<?xml version="1.0" encoding="utf-8"?>
<!-- Generator: Adobe Illustrator 24.0.2, SVG Export Plug-In . SVG Version: 6.00 Build 0)  -->
<svg version="1.1" id="Слой_1" xmlns:xodm="http://www.corel.com/coreldraw/odm/2003"
	 xmlns="http://www.w3.org/2000/svg" xmlns:xlink="http://www.w3.org/1999/xlink" x="0px" y="0px" viewBox="0 0 238.1 150.2"
	 style="enable-background:new 0 0 238.1 150.2;" xml:space="preserve">
<style type="text/css">
	.st0{fill-rule:evenodd;clip-rule:evenodd;fill:#2B2A29;}
</style>
<g id="Слой_x0020_1">
	<path class="st0" d="M157,135.3c0.2,0.1,0.3,0.1,0.5,0.5c1.3,1.6,1.5,2.4,3.6,3.8c0.8,0.5,4,2.2,1.8,4c-0.2,0.2-0.4,0.4-0.7,0.4
		c-0.7,0.8-2.4,0.6-3.6-0.2c-1-0.7-1.6-1.5-2.3-2.6c-1-1.4-0.8-1.9-1-3.8c-0.1-0.7-0.3-1.5,0.1-2.1
		C155.6,134.8,156.7,134.7,157,135.3L157,135.3z M237.2,95.4V94c-0.3,0.1-0.2,0-0.3,0.2c0,0-0.2,0.4-0.2,0.5
		C236.5,95.3,236.7,95.4,237.2,95.4L237.2,95.4z M233.9,150.2h1.9c0.2-0.2,0.4-0.1,0.7-0.3c0.3-0.2,0.2-0.4,0.7-0.4v-1.2
		c-0.3,0.2,0,0.1-0.5,0.3c-0.4,0.1-0.7,0.4-1.2,0.7C235.3,149.3,234,150,233.9,150.2L233.9,150.2z M231.1,97l-0.1,0.4
		c0,1.4,2.1,1.7,2.1,0.7c0-0.3-0.2-0.6-0.3-0.8C232.1,96.2,231.4,96.9,231.1,97z M234.4,135.4L234.4,135.4c-0.5,0.4-0.3,0.1-0.5,0.4
		c-0.2,0.2-0.1,0.4,0,0.7c0.3,0.1,0.9,1.4,1.6,1c0.3-0.2,0,0,0.3-0.3c0.1-0.2,0.2-0.1,0.3-0.4c0.1-0.3-0.2-1.1-1-1.4
		C234.5,135.2,234.8,135.4,234.4,135.4L234.4,135.4z M0.3,109.9c0.5,0,1.2,0.1,1.4-1.2c0.2-1.1-0.6-1.6-0.8-1.8
		c-0.3,0-0.1-0.2-0.6-0.2C0.3,106.7,0.3,109.9,0.3,109.9z M225,147.3c0.1,0.8,1.9,1.4,2-0.2c0-0.7-0.1-0.5-0.4-0.9
		c-0.4-0.3-0.1-0.3-0.7-0.5c-0.2,0.1-0.7,0.4-0.8,0.5C224.8,146.6,224.9,146.9,225,147.3z M14.9,67.9L14.9,67.9
		c-0.2-0.4-0.1-0.5-0.4-0.7C14.3,67,14,67,13.6,67c0,0-0.8,0.7-0.9,1.4c-0.1,0.6,0,0.6,0.3,0.9c0.2,0.3,0.2,0.4,0.4,0.7
		c0.8,0,0.7-0.1,1.1-0.6C14.8,68.9,14.9,68.5,14.9,67.9L14.9,67.9z M162.2,65.8c0.6,0.1,0.3,1.2,1.3,0.9c0.2-0.1,0.2-0.2,0.4-0.4
		c0.9-1.4,0.4-1.4,0.3-2.2c-0.5-0.3-0.4-0.3-1.1-0.3C162.4,64.6,162.1,64.7,162.2,65.8z M28.5,62.8c0,0.4-0.3,1.2,0.6,1.8
		c0.3,0.2,0.7,0.2,0.9,0l0.6-0.8c0-0.7-0.3-1.6-0.7-1.8c-0.3-0.1-0.8-0.1-1,0.1C28.7,62.1,28.6,62.5,28.5,62.8z M178.2,58.8
		c-0.3,0.5-0.6,1.3-0.3,1.9c0.3,0.5,0.7,1.1,1.4,0.7c0.4-0.2,0.5-0.7,0.7-0.8c0-0.5,0-0.7-0.2-1.1c-0.2-0.3-0.3-0.5-0.5-0.8
		C178.7,58.6,178.7,58.7,178.2,58.8L178.2,58.8z M143.3,110.2c0.2-0.5,0.3-0.8,0.1-1.3c-0.3-0.6-0.5-0.5-0.7-0.7
		c-0.8-0.1-1.1,0.1-1.5,0.5c-0.3,0.3-0.5,0.9-0.3,1.5c0.2,0.4,0.6,0.7,1.3,0.7C142.9,110.8,143.2,110.3,143.3,110.2z M154.6,115.1
		c0.5-0.2,0.9-0.7,0.9-1.4c0-0.9-0.5-1-0.9-1.4C152,112.1,152.7,115.8,154.6,115.1z M164.5,17.2c0.1-0.5,0.1-0.6-0.2-1.1
		c-0.4-0.8-1.1-0.7-1.8-0.1c-0.3,0.3-0.4,0.4-0.5,0.9c-0.1,0.5,0.3,1.5,1.1,1.7C164,18.7,164.4,17.9,164.5,17.2L164.5,17.2z
		 M181.5,22.3c0.1-0.3,0.2-1,0.1-1.4c-0.1-0.3-0.2-0.3-0.4-0.4c-0.3-0.3-0.1-0.2-0.3-0.4c-0.1-0.1-1-0.4-1.3,0.6
		c-0.3,1-0.6,1.1-0.4,1.7C179.3,22.8,180.4,24.4,181.5,22.3L181.5,22.3z M231.4,150.2h1.5c0.3-0.2,0.9-0.6,1.2-0.8
		c1-1,0.3-0.3,1.1-0.8c0.2-0.2,0.4-0.3,0.6-0.4c0.3-0.2,0.3,0,0.6-0.4l0.9-0.9v-1.4c-0.2,0.1-0.4,0.5-0.6,0.7
		c-0.2,0.2-0.5,0.5-0.7,0.6l-0.8,0.6c-0.5,0.6-0.2,0.2-0.7,0.6c-0.3,0.2-0.5,0.4-0.8,0.6c-0.4,0.3-0.4,0.3-0.7,0.6
		c-0.5,0.4-0.8,0.5-1.3,1C231.4,150.2,231.5,150.1,231.4,150.2L231.4,150.2z M148.1,113c0.4-0.2,1.3-0.6,1.1-1.8
		c-0.2-1.3-1.4-1.2-1.8-1.2c-0.3,0.3-1.2,0.6-1,1.8C146.6,112.6,147.2,113.1,148.1,113z M159.2,114.7c-0.3,0.8-0.7,1.5,0.1,2.3
		c0.3,0.2,0.7,0.4,1.2,0.3c0.6-0.1,0.7-0.4,1.1-0.6l0.2-0.5c0.1-0.2,0.1-0.4,0-0.7c-0.1-0.7-0.8-1.3-1.6-1.2
		C159.6,114.3,159.5,114.6,159.2,114.7z M137.2,108.1c0.2-0.3,0.4-0.5,0.5-1.1c0-0.7-0.2-0.9-0.3-1.3c-0.2-0.1-0.4-0.3-0.8-0.4
		c-1.6,0-2.7,2.2-1.1,2.9C136.2,108.6,136.7,108.2,137.2,108.1L137.2,108.1z M224.8,31.7c-0.1,1.5,0.2,1.3,0.8,1.9
		c0.2,0.2,0.4,0.2,0.7,0.2c0.8,0,0.9-0.2,1.3-0.5c0.6-0.4,0.5-0.5,0.5-1.4c-0.6-0.3-0.8-0.9-1.6-1C225.2,30.9,225.6,31.3,224.8,31.7
		z M52.5,33.4c0.3,0.1,0.2,0.1,0.4,0.3c0.2,0.1,0.3,0.1,0.6,0.1c0.8,0,0.6-0.2,1.2-0.3c0.1-0.4,0.4-0.2,0.6-0.7
		c0.4-1.1-1-1.9-1.6-1.9c-0.5,0-0.7-0.1-1,0.1c-0.7,0.6-0.9,0.7-0.7,1.5C52.2,33.5,52.1,32.9,52.5,33.4z M221.2,10.8
		c0-2.2-2.5-1.5-2.8-1.1c-0.1,0.2-0.5,0.8-0.5,1.2c0,0.8,0.9,1.4,1.6,1.5c0.6,0.1,0.7-0.1,1.1-0.4C221.1,11.6,221.2,11.4,221.2,10.8
		z M45.6,12c0.5,0.1,0.6,0.4,1.4,0.3c0.3,0,0.9-0.5,1.1-0.7c0.2-0.4,0.5-2.1-0.9-2.2c-0.8-0.1-0.6-0.2-1.3,0
		c-0.6,0.2-0.4,0.3-0.7,0.7c-0.2,0.3-0.2,0-0.2,0.5c0,0.3,0,0.3,0,0.5C45.2,11.6,45.4,11.7,45.6,12z M164.9,117.8
		c-0.1,2,1.4,2.4,2.4,2c0.5-0.2,0.5-0.4,0.9-0.7c0.1-1.2,0.6-1-0.4-2.5c-0.1-0.1,0-0.1-0.1-0.1c-0.7-0.3-1.2-0.3-1.9,0.1
		C165.3,116.9,165.1,117.2,164.9,117.8L164.9,117.8z M235.4,92c0.2,0,0.4,0.3,0.5,0.4c-0.4,0.4-1,0.2-0.8-0.4
		C235.2,92,235.2,91.9,235.4,92z M235,93.6c0.4,0,0.6-0.1,0.9-0.1c0.8-0.2,0.1-0.2,0.7-0.4c0.5,0.1,0.2,0.2,0.6,0.5v-2.3
		c-0.4,0.2-0.1,0.2-0.5,0.4c-0.2-0.3-0.6-0.7-0.5-1.1c0.1-0.5,0.4-0.6,0.4-1.3c-0.3-0.3-0.7-0.5-1-0.1c-0.5,0.5,0,0.7-1.1,0.7
		c-0.2-0.3-0.1-0.3-0.3-0.5h-0.6c-0.6,1.3,0.6,1.3,0.8,1.7c0.1,0.3-0.2,1.1-0.1,1.7C234.2,93.5,234.5,93.3,235,93.6L235,93.6z
		 M114.4,42.6c0.3,0.1,0.3,0.2,0.6,0.3c0.2,0.1,0.4,0.2,0.6,0.2c1.1,0.1,1.6-0.2,2.2-0.8l0.5-0.5c0.4-0.9,0.8-1.6,0.2-2.8
		c-0.5-1.1-1.5-1.2-1.9-1.5c-0.6,0.2-0.9-0.1-1.7,0.4c-0.4,0.3-0.8,0.7-1,1.2C113,41.1,114.3,42.4,114.4,42.6L114.4,42.6z
		 M229.3,143c0-0.2-0.1-0.4,0-0.6c0-0.3,0-0.3,0.2-0.3C230.7,142.1,230.2,143.5,229.3,143z M232.2,142.5c0-0.4,0.3-0.7,0.6-0.8
		c0.3,0.3,0.4,0.5,0.3,0.9C232.7,142.9,232.4,142.7,232.2,142.5z M229.1,140l-0.3,0.5c-0.3-0.2-0.5-0.3-0.6-0.6c-1-0.1-1,0.3-0.6,1
		c0.3,0,0.2,0.1,0.5,0.3c0,0.4,0,0.8,0,1.2c0,0.5,0.1,0.6,0.1,1.1c0.4,0.3,1.1,2.2,2.7,0.2c0.2-0.3,0-0.2,0.3-0.4
		c0.5,0.1-0.2,0,0.7,0.5c0.3,0.2,0.5,0.3,0.3,0.8c-0.3,0.6-0.4,0.1-0.6,0.7c-0.2,0.7,0.3,0.9,0.4,0.9c1.3,0.2,0.9-0.7,1.9-1
		c0.7,0.6,0.2,0.4,0.6,0.6c0.2,0.2,1.9,0.5,0.8-0.9c-0.3-0.4-0.4-0.5-0.9-0.7c0-0.6,0.1-0.7,0.1-1.1s-0.1-0.8-0.1-1.3
		c-0.1-0.3-0.7-1-1.1-1.1c-1-0.2-1,0.3-1.6,0.5c-0.6,1.1-1.1,0.3-1.2,0.2c-0.2-0.1-0.5-0.1-0.7-0.2c0.2-0.6,0.6-0.2,0.7-1
		C230,139.4,229.8,139.9,229.1,140L229.1,140z M91.4,41.1c-0.2,0.6-0.1,1.1-0.2,1.7c0,0,0,0,0,0.1l0.1,0.1c0,0.1,0,0.1,0.1,0.2
		c0.4,1.7,0.9,1.4,1.5,2.1c1.4,0.4,1.3,0.4,2.5,0c0.3-0.4,0.6-0.5,1-1.2c0.3-0.7,0.3-1.3,0.2-2.1c-0.1-0.3-0.1-0.6-0.3-0.9
		c-0.2-0.4-0.3-0.5-0.5-0.8c-0.3-0.1-0.6-0.4-1.1-0.6c-0.5-0.1-0.9-0.2-1.4,0C92.4,39.9,91.8,40.5,91.4,41.1z M71,39.7
		c-0.2,1.2,0.1,1.6,0.4,2.7c0.5,2.1,1.9,1.1,4.3,0.6c1.1-0.2,1.7-0.4,1.5-1.7c-0.1-0.1-0.6-0.8-0.7-1c-0.2-0.4-0.1-1.1-0.1-1.6
		c-0.3-0.5-0.4-0.9-1.1-1c-0.7-0.1-1.3,0.1-1.8,0.2C72,38.4,71.7,38.7,71,39.7z M19.8,67.2c0.3,0.1,0.5,0.2,0.7,0.2
		c0.4,0,0.4-0.2,0.8,0c0.6,0.6-0.4,1.8,1.2,1.8c0.5-0.3,0.2-0.4,0.5-0.8c-0.1-0.4-0.2-0.9-0.1-1.4c0-0.2,0.1-0.4,0.2-0.5
		c0.2-0.3,0.1-0.2,0.4-0.3c0-0.1,0-0.2,0.3-0.4c0.3-0.3,0.6-0.5,0.7-1.4c0-0.4-0.1-0.8-0.2-1.1c-0.3-0.5-1.5-0.6-2-0.3
		c-0.3,0.1-0.2,0.1-0.5,0.2c-1.4,0.3-1.6,0.7-2.5-0.1c0.1-1.7,2.4-0.7,3.3-1.5c0-0.4,0.3-1-0.2-1.2s-0.8-0.2-1.2-0.1
		c-0.2-0.3-0.4-0.4-0.5-1c0-0.9-0.1-0.5-0.2-1c-1.1,0-1.1,0-1.2,0.5c-0.1,0.8,0.2,0.9,0.3,1.4c-0.5,0.8-1.1,0.9-1.4,1.3
		c-0.4,0.6-0.5,1.4-0.2,2.1c0.2,0.5,0.3,0.3,0.5,0.8c0.6,1.1,3.2,0.6,3.2,0.5l0.1-0.1c0.2-0.3,0.1-0.2,0.3-0.3
		c0.5-0.4,1,0.2,0.2,0.8c-1.5,1.3-2.7,0.4-3.1,0.7c-0.2,0.1-0.3,0.7,0.1,1.1c0,0,0.1,0.1,0.2,0.1L19.8,67.2L19.8,67.2z M221.2,150.2
		h1.6l-0.2-0.1c-0.1,0-0.1-0.1-0.2-0.1c-0.2-0.1-0.1-0.1-0.4-0.2l-0.7-0.5c-0.4-0.2-0.3-0.1-0.5-0.6c-0.1-0.3-0.3-0.5-0.3-0.9
		c-0.3-0.5,0.2-0.4-0.7-1.3c-0.4-0.3-0.4-0.9-0.2-1.5c0.1-0.3,0,0,0.2-0.3c0.4-0.6,0.3-0.6,0.5-0.9c0.2-0.3,0.3-0.2,0.5-0.5
		c0.3-0.3,0.1-0.3,0.5-0.6c0.2-0.2,0.1,0,0.2-0.2c0.4-0.5-0.1-0.1,0.8-0.7c0.3-0.2,0.3-0.3,0.5-0.4c0.3-0.2,0.4-0.1,0.7-0.3
		c0.2-0.1,0.3-0.3,0.5-0.4c0.6-0.4,0.3,0,1.2-0.7c0.5-0.3,1.1-0.5,1.7-1.2c0.2-0.2,0.3-0.2,0.5-0.4s0.3-0.4,0.5-0.6
		c0.6-0.6,0.4-0.2,0.9-1c0.7-1,0.5-0.3,0.8-1.1c0.2-0.6,0.4-0.5,0.6-1.2c0.2-0.6,0.6-0.9,0.6-1.3c0.2-1.3,0.9-0.9,1.4-1.5
		c0.2-0.3,0.2-0.4,0.6-0.5c0-0.2,0.1-0.2,0.3-0.3l1.2,0.7c0.6,0.6,0.9,0.2,1.3,0.7c0.2,0.1,0.1,0.2,0.7,0.3c0.3,0.1,0.5,0.2,0.7,0.3
		v-0.9c-0.3-0.2-0.6-0.4-1-0.6c-0.3-0.1-0.8-0.3-1.1-0.5c-0.5-0.3-0.4-0.4-1.1-0.6c-0.6-0.2-0.1,0-0.8-0.6c-1,0-0.6,0.4-1.1,0.7
		c-1.4,0.9-1.8,0.4-1.9,1.1c-0.3,1.7,0.2,0.5-0.8,2.8c-0.2,0.4-0.2,0.5-0.4,0.8c-0.5,0.9-1.2,2.1-2.1,2.6c-0.4,0.2-0.2,0.4-0.6,0.6
		c-0.3,0.1-0.2,0-0.4,0.2c-0.1,0.1-0.2,0.2-0.3,0.3c-0.3,0.2-0.4,0.2-0.8,0.4c-0.9,0.8-0.5,0.1-1.4,0.9c-0.4,0.3-0.5,0.2-1.5,0.9
		l-1.8,1.8l-1,1.4c-0.2,0.2-0.2,0.5-0.4,0.7c-0.2,0.5-0.8,0.8-0.3,1.8c0.2,0.5,0.5,0.3,0.7,0.5c0.7,0.4,0.3,1.4,0.6,1.8
		c0.2,0.2,0.5,0.3,0.7,0.5C220.8,149.8,221,149.9,221.2,150.2L221.2,150.2z M167.3,60c0.2,0.2,0.1,0.2,0.2,0.5
		c0.1,0.2,0.2,0.2,0.3,0.4c0.3,0.4,0.2,0.6,0.7,0.7c1.1,0.4,1.6,0.1,2.7,0.1c0.3-0.2,0.6-0.9,1.1-0.5c0.3,0.4-0.8,1.1-0.9,1.1
		c-0.9,0.7-1.1,0.6-2.1,0.4c-0.1,0-0.2,0-0.3,0c-0.8,0.2-0.1,1,0.1,1.2c0.4,0,0.4,0.2,0.8,0.3c0.4,0.1,0.2-0.1,0.6,0
		c0.5,0,0.5,0.2,0.5,1.1c0,0.5,0.2,0.6,0.5,0.8h0.4c0.2,0,0.2,0,0.4,0c0.2-0.3,0.3-0.7,0.3-1.1c-0.2-0.2-0.1-0.8-0.1-1.1
		c0-0.5,0.7-1.1,1-1.4c0.4-0.3,0.3-0.5,0.5-0.7c0.3-1.4-0.1-2.5-1.8-2.1c-0.2,0-0.5,0.2-0.7,0.3c-0.3,0.1-0.5,0.1-0.8,0.2
		c-0.8,0.4-1.5,0-1.6-0.3c-0.3-1.3,1.7-1.2,2.7-1.2c0.2-0.2,0.4-0.1,0.6-0.6c0.3-0.8-0.1-0.9-0.8-1.1c-0.3-0.1-0.4,0-0.7,0
		c-0.8-0.8-0.2-1.1-0.7-2c-1.1-0.1-1.3-0.1-1.2,1.1c0,0.5,0.1,0.4,0.3,0.8l-0.5,0.7c-0.3,0.3-0.4,0.1-0.7,0.5
		C167.5,58.6,167.3,59.2,167.3,60L167.3,60z M0.3,98v1.3c0.6,0.1,0.2,0.5,1.6,1c1.7,0.7,1.5,0,2.3,0.2c0.7,0.2,0.3,0.6,1,1.7
		c0.3,0.4,0.2,0.6,0.4,1c0.2,0.3,0.4,0.4,0.5,1l1.4,3.1c0.3,1.1,0.1,0.4,0.5,1c-0.1,0.6-1.3,1.5-1.2,3.1c0,0.2,0,0.5,0.1,0.7
		c0.1,0.5,0.5,0.3,0,1c-0.3,0.4-0.5,0.3-1.3,0.7l-1.7,0.9c-0.3,0.2-3.2,1.8-3.5,1.8v1.2c0.6-0.3,0.7-0.2,1.4-0.7
		c0.2-0.2,0-0.1,0.3-0.2c0.2-0.1,0.3,0,0.5-0.1c0.3-0.1,0.4-0.3,0.7-0.5c0.3-0.2,0.4-0.1,0.7-0.3c0.2-0.1,0.4-0.3,0.7-0.5
		c0.3-0.2,0.5-0.1,0.8-0.3s0.2-0.3,0.6-0.5c0.4-0.1,0.4,0,0.8-0.2c0.3-0.2,0.4-0.3,0.6-0.5c0.4-0.2,1.1-0.2,0.7-1.3
		c0-0.1-0.1-0.3-0.1-0.4c-0.1-0.3-0.5-0.5-0.3-1.3c0.2-0.9,1.1-1.6,1.1-2.2c0.1-1.1-0.2-1-0.5-1.7c-0.1-0.2-0.2-0.7-0.3-0.8
		c-0.7-1.2-0.2-0.4-0.6-1.5c-0.2-0.5-0.4-0.7-0.7-1.6c-0.2-0.6-0.4-0.9-0.6-1.5c-0.3-1.1-0.1,0-0.4-1.2c0-0.2-0.1-0.3-0.2-0.5
		c-0.2-0.5-0.5-1-0.7-1.6c-0.1-0.4-0.1-0.5-0.5-0.6c-0.3-0.1-0.7-0.2-0.9,0c-0.5,0.4,0.2,1,0.3,1.3c-0.5,0.5-1.4,0.3-2,0.2
		C0.6,98.8,1.2,98,0.3,98L0.3,98z M172,21.6c0.3,0.1,0.5,0.4,0.8,0.5c0.2,0.1,0.1,0,0.3,0.2c0.1,0.1,0.2,0.3,0.1,0.6
		c0,0.1,0,0.2-0.1,0.3c-0.1,0.2-0.6,0.4-0.8,0.4C171.5,23.7,171.9,21.8,172,21.6L172,21.6z M169.6,18.8c0.1-0.2-0.1,0,0.3-0.1
		c0.8-0.2,0.2-0.5,0.9-0.6c0.2,0.4,0.3,1.2,0,1.6c-0.4,0.2-0.5-0.1-1.1-0.1C169.6,19.7,169.6,18.8,169.6,18.8z M171.2,14.7
		c0,0.2,0-0.1-0.1,0.3c-0.1,0.2,0,1-0.2,1.3c-0.3,0.2-0.8,0.3-1.2,0.4l-0.1,0.4c-0.7,0-0.6,0.2-0.8,0.6c-0.2,0.3-1.3,1.9-0.2,2.9
		c0.6,0.6,1.6,0.3,2,0.7c0.3,0.3,0.2,0.6,0.2,0.9c-0.2,1.2,0.4,1.2-1,1.5l-0.2-0.2c-0.2-0.1-0.7-0.2-1-0.2c-0.5,0.5-0.6,0.6-0.3,1.3
		c0.5,1.2,1.7,0.6,2,1.3c0.2,0.5-0.1,1.4,0,2c0.2,0.2,0.1,0.5,0.6,0.4c0.3,0,0.6-0.3,0.7-0.5c0.2-0.2,0.1-0.7,0.2-1.5
		c0.1-0.7,0.2-0.6,0.9-0.9c0.5-0.2,1.3-0.6,1.6-1c0.3-0.3,0-0.3,0.3-0.6c0.4-0.7,0.3-0.9,0-1.6c-0.2-0.4,0-0.5-0.4-0.7
		c-0.2-0.1-0.2,0-0.4-0.2c-1-0.9-1.4-0.4-1.6-1.1c-0.2-0.5,0.1-1.5,0.3-1.8c0.6,0,0.7,0.5,1.3,0.2c0.4-1.5-0.5-1.4-0.8-1.6
		c-0.9-0.5-0.4-1.2-0.6-1.8C172.1,14.4,171.5,14.7,171.2,14.7L171.2,14.7z M222.9,138.1c-0.2,0.4-0.3,0.3-0.7,0.5
		c-0.3,0.2-0.4,0.3-0.6,0.5c-0.3,0.2-0.4,0.2-0.6,0.5c-0.6,0.7-0.1,0-0.9,0.8c-0.6,0.6-1.5,1.4-1.9,2.2c-0.3,0.6-0.5,0.7-0.8,1.4
		c-0.1,0.3-0.2,0.5-0.4,0.8c-0.2,0.4-0.2,0.5-0.3,0.9l-0.2,0.9c-0.1,0.3-0.2,0.6-0.2,0.9c-0.5,2.4,0.5,1.9,1,2.2l0.6,0.4
		c0,0,0,0,0.1,0l0.2,0.1h1.9c-0.4-0.4-0.4-0.2-0.8-0.5c-0.3-0.2-2.1-1.4-2.1-1.7c0.1-0.3,0.2-0.4,0.3-0.7c0.2-0.6-0.1-0.6,0.3-1.8
		c0.1-0.3,0.3-0.4,0.4-0.7c0.1-0.2,0.2-0.5,0.3-0.8c0.2-0.3,0.3-0.3,0.5-0.7c0.1-0.2,0.2-0.5,0.4-0.7c0.2-0.3,0.3-0.1,0.5-0.6
		c0.2-0.4,0.1-0.2,0.5-0.5c0.3-0.2,0.2-0.3,0.6-0.6l1.3-1c0.3-0.2,0.3-0.3,0.6-0.5s0.4-0.1,0.7-0.4c0.2-0.2,0.3-0.3,0.6-0.5l1.6-1.6
		c0.2-0.2,0.4-0.4,0.5-0.6c0.2-0.2,0.4-0.4,0.5-0.6l0.6-0.9c0.1-0.2,0.1-0.2,0.2-0.4c0.2-0.4,0.3-0.3,0.5-0.6
		c0.1-0.2,0.2-0.5,0.4-0.8c0.2-0.3,0.3-0.3,0.4-0.6c0.1-0.4,0.2-0.5,0.3-0.8c0.6-1.1,0.5-1.6,0.8-2.5c0.3-1,0.4-2.2,0.7-2.6
		c0.3,0.1,0.2,0.2,0.7,0.4c0.6,0.3,1,0.6,1.4,0.7c0.3,0.1,0.5,0.1,0.7,0.4c0.4,0,0.3,0.2,0.9,0.4c0.4,0.2,0.5,0.4,0.9,0.5
		c0.5,0.2,0.6,0.1,0.9,0.4c0.5,0.4,0.5,0.2,0.9,0.4v-1.2L234,127c-0.6-0.4,0,0.1-0.4-0.3c-0.6,0-1-0.5-1.6-0.7
		c-0.5-0.2-1.1-0.8-1.7-0.5c-0.2,0.2-0.1,0.1-0.2,0.2c-0.2,0.2-0.2,0.1-0.5,0.3c-0.6,0.3-0.2,1-0.6,2c-0.2,0.6-0.3,1.2-0.5,1.8
		c-0.2,0.5-0.3,0.3-0.4,0.8c-0.1,0.4-0.1,0.5-0.3,0.8c-0.3,0.6-0.2,0.1-0.4,0.7c-0.1,0.3-0.6,1.1-0.8,1.5c-0.2,0.3-0.3,0.3-0.5,0.7
		c-0.3,0.5-1.2,1.5-1.6,1.9L222.9,138.1L222.9,138.1z M218.6,26.8c0.6,0,0.7,0.1,1.5,0c0.3,0,0.3-0.1,0.5-0.1c0.1-0.1,0.1,0,0.2-0.1
		l0.4-0.4c0,0,0.1-0.1,0.2-0.1c0.3-0.3,0.6-1,0.7-1.5c0.2-0.9,0.1-1.6-0.1-2.4c-0.1-0.3-0.2-0.8-0.4-1.1c-0.1-0.3-0.3-0.7-0.3-1.1
		c0.5-0.1,1.1,0.8,1.4,1.1c0.3,0.3,0.2,0.2,0.4,0.6c0.7,1.2,0.1,1.8,0.2,3.1c0.9,0.4,1.4,0.2,1.6-0.7c0.4-1.2,0-1.3,0.2-2.2
		c0.9-0.1,1.5,0.1,2-0.6c0.3-0.4,0.2-0.6-0.1-1.1l-0.3-0.3c-0.1-0.1-0.4-0.1-0.6-0.1c-1.7,0-1,0.5-1.8,0.3c-0.7-0.1-0.5-0.5-1.3-1.1
		c-0.6-0.5-0.7-0.7-1.4-0.9c-1.5-0.5-2.4,0.5-2.2,2.2c0.2,1.3,1.1,2.9,1,3.7c-0.1,0.7-0.4,1.3-1.1,1.4c-0.5-1.1-0.7-0.2-0.9-2.4
		c-0.2-1.6,0.1-1.6-1-2.5c-1.4,0.3-1.2,1.8-1.2,2.4c-0.1,0.9-0.9,0.3-1.7,0.7c-0.1,0.1-0.4,0.3-0.5,0.4c-0.2,0.2-0.2,0.5,0,0.8
		c1,1.4,1.4,0.1,2.7,0.1c0.2,0.3,0.2,0.4,0.4,0.6C217.8,26.3,218,26.3,218.6,26.8L218.6,26.8z M44.6,20.3c-0.7,0-1.1,0.4-1.3,1
		c-0.1,0.5-0.1,1.5-0.3,1.8c-0.3,0.2-1.1,0.1-1.5,0.3c-0.4,0.2-0.7,0.6-0.7,1.1c0.3,0.2,0.2,0.1,0.4,0.4c0.2,0.2,0,0,0.2,0.2
		l0.2,0.1c0,0,0,0,0.1,0c0.5-0.1,1.5-0.7,2-0.6c0.2,0.2,0.1,0.3,0.3,0.6c0.1,0.2,0.2,0.2,0.4,0.5c0.4,0.6-0.1,0.1,0.6,0.7l0.2,0.2
		c0.8,0.3,2,0.5,2.8-0.3l0,0c0.2-0.2,0-0.1,0.3-0.2c0.9-1.6,1-2.7,0.3-4.7c-0.2-0.5-0.5-0.9-0.4-1.5c0.4-0.1,1.2,0.8,1.5,1.1
		c0.2,0.2,0.2,0.4,0.3,0.6c0.7,1.1,0.1,1.9,0.1,3.1c0.6,0.2,1.2,0.5,1.6-0.7c0.4-1.2,0-1.4,0.2-2.2c0.6,0,1.1,0,1.6-0.2
		c0.2-0.1,0.3-0.2,0.4-0.4c0.4-0.6,0.1-1.5-0.8-1.5c-0.9-0.1-0.9,0.2-1.5,0.3c-0.1,0.1,0,0.1-0.2,0.1c-0.7,0.1-1-0.8-1.1-0.9
		c-0.3-0.4-1-0.7-1.2-1c-1-0.2-1.5-0.5-2.4,0.2c-0.3,0.3-0.4,0.7-0.4,1.1c0,0.5,0,0.9,0.1,1.4c0,0.2,0.2,0.4,0.2,0.6
		c0.3,0.7,0.3,1.1,0.5,1.8c0.1,0.4,0,0.7-0.1,1.2c-0.1,0.3-0.5,0.6-0.9,0.7c-0.5-0.8-0.6-0.8-0.7-1l0-2.2
		C45.4,20.4,45.1,21.3,44.6,20.3z M0.3,95.9v1.4c0.6-0.4,0.7-0.1,1.2-0.5c0.4-0.3,0.5-0.4,1-0.6c0.5-0.2,0.2-0.3,1-0.6
		C4.6,95.1,4,95.3,4.4,95c0.5,0.4,0.3,0.5,0.6,1c0.3,0.5,0.3,0.4,0.5,1c0.2,0.6,0.4,0.6,0.5,1c0.1,0.3,0,0.4,0.1,0.6
		c0.2,0.4,0.4,0.5,0.7,1.5c0.1,0.4,0.3,0.6,0.5,1c0.2,0.5,0.1,0.6,0.4,1.1c0.3,0.4,0.3,0.6,0.4,1.1c0.1,0.3,0.1,0.3,0.3,0.5l0.4,1.1
		c0.3,1.1,0.5,0.9,0.7,1.6c0.1,0.6,0.2,0.5,0.5,1c0.3,0.6,0,0.6,0.5,1.1c0.5,0.5,0.2,0.5,0.5,1c0.1,0.2,0.2,0.2,0.3,0.5
		c0.3,0.5,1.1,1.5,0.1,1.8c-0.7,0.2-0.3,0.2-1,0.6c-0.3,0.2-0.5,0.2-0.8,0.3c-0.2,0.1-0.3,0.3-0.7,0.5c-0.5,0.2-0.3,0.1-0.7,0.4
		c-0.4,0.4-0.5,0.1-1.1,0.7l-0.3,0.2c-0.4,0.2-0.4,0-0.8,0.3c-0.2,0.2-0.3,0.3-0.7,0.5c-1.4,0.5-0.6,0.6-1.4,0.8
		c-1,0.3-0.5,0.4-1.5,0.8c-0.2,0.1-0.5,0.3-0.7,0.4c-0.6,0.5-0.4,0.2-0.8,0.3c-0.2,0.1-0.3,0.3-0.7,0.4v1.5c0.4-0.2,0.4-0.3,0.7-0.5
		c0.4-0.2,0.2,0,0.8-0.4s0.2-0.2,0.8-0.4c0.3-0.1,0.5-0.4,0.8-0.5c0.4-0.2,0.5-0.1,0.8-0.4c1-0.9,0.5-0.1,1.5-0.9
		c0.4-0.3,0.6-0.2,0.9-0.4c0.2-0.1,0.5-0.4,0.7-0.5c0.5-0.2,0.4,0,0.9-0.4c0.4-0.3,0.3-0.3,0.8-0.4c0.4-0.1,0.5-0.3,0.8-0.5
		c0.3-0.2,0.5-0.2,0.8-0.4c0.3-0.1,0.5-0.3,0.8-0.5l0.7-0.5c0.2-0.1,0.7-0.3,1-0.4c0.9-1.4,0.1-1.3-0.3-2.4l-1.3-2.3
		c-0.4-0.9-0.5-0.9-0.6-1.2c-0.3-0.9,0.1-0.1-0.6-1.2c-0.3-0.5,0-0.5-0.6-1.3c-0.3-0.5-0.2-0.8-0.5-1.3c-0.6-0.9-0.3-0.5-0.5-1.3
		c-0.1-0.4-0.5-0.6-0.6-1.2c-0.1-0.9-0.3-0.6-0.5-1.2c-0.3-0.6,0.1-0.2-0.5-1.3c-0.3-0.4-0.3-0.8-0.5-1.3c-0.3-0.4-0.3-0.9-0.6-1.2
		c-0.1-0.2-0.3-0.3-0.4-0.5c-0.1-0.2-0.2-0.4-0.3-0.6c-0.2-0.3-0.5-0.8-0.8-0.9l-1.7,0.8c-0.5,0.4-0.5,0.2-1,0.6
		C1.5,94.8,1.4,95,1.3,95C0.9,95.6,1,95.3,0.3,95.9L0.3,95.9z M156.2,23.3c0.2,0.3,0.7,0.2,1,0.1c0.5-0.1,1.8,0.1,2.2,0.5
		c0.3,0.3,0.3,0.7,0.4,1.1c0.2,1.2-0.2,1.2,1.2,1.4c0.9,0.2,1.4,0.3,2,0.8c0.7-0.3,1.1,0.5,1.5,0.6c0.3,0.1,0.6,0.1,0.8,0.3
		c0.3,0.3,0.2,0.3,0.7,0.5c1.2,0.4,0.3,0.3,1.5,0.8c0.4,0.2,0.4,0.3,0.7,0.5l1.1,0.6c1.3,0.8,1.2,0.2,2.1,0.8
		c0.8,0.6,4.2,0.4,5.3,0.4c0.2-0.2,0.6-0.1,0.9-0.1l4.1-1.1c0.5-0.2,1.1-0.3,1.6-0.5c0.9-0.2,0.7-0.2,1-1c0.3-0.7,0.1-0.8,0.6-1.4
		c0.4-0.4,0.6-0.8,1-1.1c0.8-0.5,0.4-1.4,0.4-1.4c-0.1-0.2,0.1-0.1-0.3-0.2c-0.4-0.1-0.7,0-0.9,0.2c-0.3,0.3,0,0.2-0.4,0.4
		c-0.2,0.1-0.3,0.2-0.4,0.4c-0.4,0.7-0.9,1.4-1,2.3c-0.2,0.5-0.5,0.5-1.2,0.7c-0.3,0.1-0.3,0.2-0.7,0.3c-0.3,0.1-0.6,0.1-0.9,0.2
		c-0.6,0.2-1,0.3-1.5,0.5c-0.5,0.2-1.2,0.2-1.7,0.4c-1.6,0.2-0.9,0.2-2.7,0.3c-0.8,0-2.1,0-2.7-0.3c-0.8-0.3-0.5,0-1.7-0.6
		c-0.3-0.1-0.2,0-0.6-0.2c-0.3-0.2,0.2,0-0.2-0.1c-0.3-0.1-0.1,0.1-0.9-0.4c-0.3-0.2-0.7-0.4-1-0.6c-0.3-0.2-0.6-0.4-0.9-0.5
		c-0.5-0.2-0.5-0.4-0.9-0.6c-0.2-0.1-0.4-0.2-0.5-0.2c-0.2-0.1-0.2-0.2-0.4-0.3c-0.5-0.3-0.7-0.2-1.1-0.4c-0.3-0.2-0.5-0.4-0.9-0.5
		c-1.6-0.5-1.3,0.2-1.9-1.2c-0.1-0.3-0.5-0.7-0.5-1.1c-1.6-1.4-2.5-1.1-2.8-1.3c-0.2-0.3,0-3.2,0-4c0-1.4,0.1-2.8,0.2-4.2
		c0.2-3-0.6-1.5,1-3.2c0.6-0.6,1.1-1.1,1.2-2c0.1-1.3,0-0.8,2-0.8l2.1,0.4c1.7,0.5,0.8,0.3,2,0.8c1.2,0.5,0.4,0.2,1.2,0.6
		c0.2,0.1,0.4,0.1,0.6,0.3c0.3,0.2,0.2,0.3,0.5,0.4c1.4,0.8,0,0.3,1.2,0.8c0.2,0.1,0.9,0.5,1,0.7c0.4,0.1,0.4,0.3,0.8,0.5
		c0.2,0.1,0.5,0.2,0.8,0.4c0.4,0.3,0.3,0.4,0.8,0.5c0.4,0.1,0.5,0.2,0.9,0.3c0.6,0.3,3,1,3.8,1.1c0.2,0,0.3,0,0.5,0h1.8
		c1.3,0,2-0.3,2.2-0.4c0.7-0.1,1.1,0.8,1.5,1c0.5,0.4,0.9,0.3,1.8,0.6c0.1,0.5,0.2,0.4,0.1,0.9l0.1,5.8c0.1,1.3-0.2,0.8,0.3,1.8
		c1.3,0.1,0.7-1.5,0.7-3.4l-0.2-4.1c-0.1-0.7-0.1-1.4-0.2-1.9c-0.2-0.6-0.9-0.4-1.9-1.3c-0.6-0.6-0.9-1.6-1.8-1
		c-0.7,0.5-0.8,0.3-1.7,0.4c-0.2,0-0.6,0.1-0.9,0.2c-0.2,0-0.5,0-0.8,0c-1.9,0.1-4-0.4-5.7-1.2l-1-0.5c-0.2-0.1-0.4-0.2-0.7-0.4
		c-0.2-0.1-0.5-0.3-0.6-0.4c-0.6-0.4-0.4-0.7-1.3-0.7V9.8c-0.5-0.1-0.3,0.1-0.7-0.2c-0.7-0.5-1-0.6-1.5-1.1
		c-0.4-0.3-0.5-0.2-1.1-0.6c-0.9-0.6-0.4-0.2-1.2-0.5c-0.3-0.1-0.8-0.4-1.2-0.5c-1-0.3-3.9-0.2-4.9,0c-0.4,0.8-0.2,1.3-0.5,2
		c-0.2,0.7-0.5,0.8-1,1.4c-0.6,0.6-0.4,0.4-0.7,1.7c-0.2,0.8,0,1.6-0.1,2.4l-0.4,4.5c-0.1,0.6-0.2,1.4-0.3,2.1c0,0.4,0,0.7-0.1,1.2
		C156.1,22.7,156.2,22.8,156.2,23.3L156.2,23.3z M219,35.2c-0.6,0-1.6-0.3-2.1-0.1c-0.2-0.1-0.1,0-0.1-0.2c-0.4-0.2-0.3-0.4-0.5-0.8
		l-1-1.6c-0.3-0.4-0.1-0.6-0.4-0.9c-0.3-0.4-0.3-0.3-0.5-0.8c-0.2-0.5-0.2-0.4-0.5-0.8c-0.2-0.3-0.2-0.6-0.4-0.9
		c-0.2-0.3-0.4-0.5-0.5-0.9c-0.2-0.6-0.2-0.4-0.4-0.8c-0.3-0.4-0.2-0.6-0.3-1c-0.1-0.3-0.2-0.1-0.5-0.8l-0.8-2.4
		c-0.1-0.3-0.1-0.2-0.3-0.4l-0.8-3.2c-0.4-1.4-0.8-4.1-0.9-5.5c-0.1-0.8,0-1.8-0.1-2.6c-0.4-3.3,0.4-1.8,2.2-3.4
		c0.6-0.6,0,0.2,0.9-1c0.7-0.9,0.3-1.2,0.7-1.9c0.5-0.1,3.4,0.1,4.5,0.1c1.3,0,3.3,0.1,4.5-0.1c0.5-0.1,1.4-0.1,2,0
		c1.2,0.1,0.9-0.4,1.7,0.6c0.4,0.6,1.1,1.5,1.9,1.7c1.3,0.3,1.3-0.2,1.2,2.3c-0.1,1,0,2,0.1,3v0.4c0,0.2,0.1,0,0.1,0.4
		c0,0.2,0.1,0.8,0.1,1l1.5,7.7c0.5,1.8,0.3,0.9,0.6,1.7c0.1,0.4,0.4,1.5,0.6,1.8l1,2.5c0.1,0.3,0.2,0.4,0.4,0.7
		c0.1,0.3,0.2,0.6,0.3,0.9l0.8,1.5c0.1,0.1,0.1,0.1,0.2,0.3c0.2,0.3,0.1,0.1,0.2,0.4c0.1,0.4,0.3,0.4,0.5,0.7l0.9,1.5
		c0.2,0.6,0.8,0.6,0.9,1.5c-0.9,0.3-0.3,0-1,0.5c-0.3,0.2-0.6,0.4-0.9,0.7c-1,1-0.6,1.7-1.3,1.7c-0.2,0-0.8-0.2-1.3-0.2
		c-0.5,0-1,0-1.6,0c-0.5,0-0.9,0.1-1.4,0.1l-4.6,0.1c-0.7,0.1-0.7,0.3-1.3-0.7c-0.2-0.4,0-0.3-0.3-0.6c-0.2-0.2-0.2-0.1-0.4-0.3
		c-0.2-0.2,0-0.2-0.4-0.4c-0.3-0.2-0.2-0.1-0.5-0.3c-0.9-0.7-0.4-0.3-1.5-0.9c-0.1-0.1-0.4-0.2-0.5-0.2c-0.2-0.1-0.2,0-0.4-0.1
		C218.8,35.2,219.2,35.4,219,35.2L219,35.2z M237.2,37v-3.4c-0.6-0.5-1.2-1.6-1.5-2.3c-0.1-0.1-0.7-1-1-1.6
		c-0.2-0.4-0.2-0.6-0.4-0.9c-0.2-0.3-0.3-0.4-0.4-0.8c-0.2-0.6-0.2-0.4-0.5-0.9c-0.2-0.3-0.2-0.6-0.3-1c-0.2-0.4-0.3-0.5-0.5-0.8
		c-0.2-0.7-0.5-1.2-0.7-1.9c-0.1-0.4-0.1-0.6-0.3-1c-0.4-0.8-0.4-1.4-0.6-2c-0.8-2-0.4-2.2-0.8-3.2c-0.4-1.1-0.2-1-0.4-2.2
		c-0.1-0.4-0.1-0.7-0.1-1.2c0-0.5-0.1-0.7-0.1-1.2l-0.1-3.9c0-0.6-0.1-0.6-0.2-1c-0.7-1.7,0-0.9-1.6-1.7c-0.9-0.4-0.1,0.2-1.2-0.7
		c-1.2-1-0.6-1.3-1-1.7c-0.2-0.2-0.1-0.1-0.8-0.3c-0.1,0.2-0.3,0.7-0.5,0.8c-0.2,0.1-6.3-0.1-7.1-0.1h-4.4c-0.3-0.1-1.5-0.9-1.5,0.9
		c0,0.7,0.2,0.7-0.3,1.5c-0.2,0.4-0.2,0.2-0.5,0.5c-0.3,0.3-0.1,0.3-0.5,0.5c-0.2,0.1-0.1,0-0.3,0.1c-0.2,0.1-0.6,0.4-0.9,0.5
		c-0.7,0.2-0.9,0-1.2,0.7c-0.3,0.4-0.1,0.5-0.1,1.3c0,0.6,0,1.3,0,1.9c0,1.7,0.3,3.1,0.5,4.7c0.1,0.6,0.1,1.1,0.2,1.6l0.9,3.7
		c0.2,0.4,0.1,0.4,0.2,0.8c0.3,1,0.4,1.1,0.6,1.7c0,0.1,0.1,0.3,0.1,0.4c0.1,0.2,0.1,0.5,0.2,0.7c0.2,0.5,0.5,0.8,0.6,1.3l1.2,2.5
		c0.3,0.5-0.1,0.2,0.6,1.2c0.2,0.3,0.1,0.3,0.3,0.7c0.1,0.2,0.2,0.3,0.4,0.6c0.2,0.3,0.2,0.3,0.2,0.6c0.1,0.5,0.1,0.2,0.4,0.6l1,2.2
		c0.1,0.3,0,0.2,0.1,0.4c0.4,1.8,0.7,1.3,1.8,1.2c0.3,0,0.8,0,1.2,0.1c0.5,0.1,0.7,0.1,1,0.2c0.7,0.2,1.2,0.5,1.7,1
		c0.6,0.6,0.6,0.2,1,1l0.7,1.3c0.6,0.1,0.9,0,1.4-0.1c0.5-0.1,1,0,1.5,0c0.3,0,0.3-0.1,0.6-0.1c2.6-0.2,3.7-0.4,6.6-0.4
		c0.2,0,0.5,0,0.8,0c0.8,0.1,0.7,0.4,1.5-0.6c0.4-0.5,0.9-1.4,1.3-1.7l0.7-0.4C237.2,37,236.8,37.1,237.2,37L237.2,37z M179.6,32.8
		c-0.9,0.6-5.7,0.6-7.3,0.3c-0.3-0.1-0.5-0.2-0.8-0.3c-0.3-0.1-0.6-0.1-0.9-0.2c-0.5-0.1-0.3-0.3-0.7-0.3c-0.4-0.1-0.1,0.1-0.3-0.1
		c-0.3-0.2,0.2,0-0.3-0.2c-0.4-0.1-0.3,0-0.7-0.3c-0.2-0.2-0.3-0.3-0.6-0.4c-0.7-0.2-0.6-0.5-1.2-0.8c-0.3-0.1-0.3-0.2-0.6-0.4
		c-0.3-0.3-0.3-0.2-0.6-0.4c-1.2-1-0.6-0.4-1.2-0.8c-0.3-0.2-0.3-0.3-0.6-0.5c-0.2-0.1-0.5-0.2-0.8-0.3c-0.3-0.1-0.4-0.3-0.6-0.4
		c-0.2-0.1-0.5-0.1-0.8-0.2c-1.1-0.4-3-0.7-4.2-0.4c-0.4,0.1-0.4,0.2-0.9,0.2c-0.7,0.1-0.9,0.4-1.6,0.3c-0.1-0.5,0.1-0.7,0.1-1.2
		c0-1,0.3-2.9,0.3-4.1c0.1-0.5,0.2-1.1,0.2-1.6c0.1-1.6,0.1-3.5,0.3-5.1c0.2-1,0-2.4,0.2-3.4c0.3-1.7,0-2.7,0.2-4.2
		c0.1-0.4-0.1-0.4-0.1-0.8c0-0.6,0.4-0.7,0.9-0.9l2.9-0.7c1.3,0,0.6-0.2,2.6,0c0.3,0,0.6,0,0.9,0c1.3,0.1,0.9,0.3,1.4,0.4
		c0.8,0.1,0.5,0,1.2,0.4c0.2,0.1,0.5,0.3,0.6,0.3c1.6,0.5,0.4,0.2,1.8,0.8c0.9,0.3-0.1,0.3,1.1,0.7c0.8,0.2,0.6,0.4,1.2,0.7
		c0.4,0.2,0.3,0.1,0.7,0.3c0.8,0.6,0.7,0.4,1.8,0.9c1.4,0.7,4.5,1.1,5.9,1.3c1.3,0.2,2.2,0,3.4,0c1.6,0,3.3-0.7,4.5-1
		c0.7-0.2,0.7-0.5,1.2-0.5c0.1,0.5,0.1,1.9,0.2,2.3l0.2,2.3c0,0.7,0.1,0.4,0.1,1.1c0,0.4,0,0.9,0,1.3c0,2.8,0.3,4.6,0,7.8l0.1,4
		c0.2,1.2-0.1,1-0.7,1.1l-3.9,1.4c-0.4,0.1-0.8,0.2-1.1,0.4c-0.4,0.2-0.7,0.2-1.1,0.3C181,32.4,180.9,32.7,179.6,32.8z M153.9,23.3
		c0.1,0.8-0.2,2.6-0.3,3.4c0,0.5,0,0.6-0.1,1.1c-0.1,0.4,0,0.6,0.2,0.8c0.5,0.4,1.3,0.2,1.8,0c1.6-0.3,0.8-0.1,1.9-0.2h1.9
		c2.8,0.5,0.7-0.3,3.5,0.9c0.6,0.2,2.2,1.2,2.6,1.7c0.3,0.1,0.2,0.2,0.6,0.5l1.3,1c0.3,0.3,0.2,0.3,0.7,0.4c0.7,0.3,0.7,0.6,1.6,0.8
		l1.6,0.6c0.8,0.1,1.5,0.2,2.4,0.3c0.7,0.1,1.9,0.1,2.5,0.2l1.7-0.2c0.6-0.1,1.3-0.2,1.8-0.2l3.9-1c0.2-0.2,1.8-0.7,2.1-0.7l1.1-0.5
		c0.4-0.1,1.8-0.7,2.1-1c0.5-0.5,0.4-0.4,1.2-0.4c0.4-0.8,0.3-2.1,0.3-3.1c-0.1-0.9,0-2.7-0.1-3.4c-0.2-0.9-0.1-2.3-0.2-3.3
		l-0.3-4.9c0-1.7,0-3.3-0.2-5.1c-0.2-1.9-0.4-0.8-1-1.6c-1-1.2-0.7-0.5-3.2,0c-0.5,0.1-0.9,0.3-1.4,0.3c-0.4,0.1-1,0.2-1.5,0.2
		c-1.1,0-2.3,0.2-3.4,0.1c-0.5-0.1-1.1-0.1-1.6-0.2c-0.5-0.1-1.1-0.2-1.5-0.3c-0.5-0.1-0.8-0.3-1.3-0.4c-1.4-0.3-1.3-0.5-2.6-0.9
		c-0.5-0.2-0.6-0.4-1.2-0.6c-0.2-0.1-0.4-0.2-0.6-0.3c-0.3-0.3,0-0.2-0.5-0.4c-1.2-0.4-0.7-0.6-1.7-0.9c-0.4-0.1-0.3-0.1-0.6-0.3
		c-0.5-0.3-2.5-1-3.2-1.2c-0.4-0.1-0.6,0-0.8-0.2c-0.5,0.1-0.7-0.1-1.3-0.1c-2.2,0-1.4,0-3.7,0.4c-0.8,0.1-1.3,0.5-2.1,0.7
		c-0.6,0.1-0.4,0.2-0.9,0.4C155,6,154.9,6,154.5,6.2c-0.1,1,0.5,0.9,0.1,4c-0.1,0.6,0,3.8-0.2,4.5c-0.1,0.3-0.2,1.8-0.2,2.2
		c0,0.5,0,0.7-0.1,1.1c-0.2,1-0.1,1.8-0.3,3.1c-0.1,0.4,0,0.7-0.1,1.1C154.1,22.6,154.1,23.1,153.9,23.3L153.9,23.3z M207.5,2.7
		c-0.1,0.7-0.4,0.7-0.6,1.7c-0.1,0.3-0.2,0.6-0.3,0.9c-0.4,0.9-1,3.8-1.1,4.8c-0.2,2.4-0.3,4.1-0.1,6.5c0.1,0.7,0.1,1.5,0.2,2.2
		c0.2,1.2,0.5,2.8,0.8,3.9l0.8,2.7c0.1,0.7,1.5,3.8,1.7,4.4v0.1v0.1c0.1,0.2,0.1,0.2,0.2,0.4c0.1,0.3,0.2,0.5,0.4,0.8
		c0.3,0.7,0.6,1.4,1,2c0.3,0.4,0.1,0.3,0.7,1.2c0.2,0.4,0.3,0.6,0.4,0.8l1,1.4c0.3,0.3,0.2,0.4,0.4,0.8l0.8,1
		c0.6,0.6,1.3,1.6,1.9,2.2l0.6,0.6c0.3,0.3,0.2,0,0.7,0.5l1.4,1c0.4,0.2,0.4,0.3,0.7,0.5c0.4,0.3,0.5,0,0.9,0c0.4,0,0.8,0.1,1.1,0.1
		c0.8-0.1,1.6-0.1,2.4-0.1c1.5,0,5-0.4,6.5-0.4h7.2v-1.4c-2.7,0-9.3-0.3-11.5-0.2c-0.9,0.1-2.1,0-3,0c-0.6,0-1,0.1-1.5,0.1
		c-0.3,0-0.2-0.1-0.6,0c-0.6,0.1-0.5,0.2-1-0.1l-0.1-0.1c-0.2-0.2-0.2-0.2-0.4-0.4c-0.3-0.3-0.2-0.1-0.5-0.3
		c-0.2-0.1-0.2-0.2-0.3-0.4c0,0-1.2-0.9-1.6-1.4c-1.4-1.5-2-2.1-2.9-3.8c-0.2-0.3-0.2-0.2-0.4-0.4c-0.2-0.3-0.3-0.6-0.5-0.9
		c-0.4-0.5-0.3-0.7-0.5-1c-0.3-0.4-0.4-0.3-0.6-0.9c-0.1-0.5-0.3-0.6-0.5-1c-0.4-0.6,0.2-0.1-0.4-1c-0.4-0.6-0.2-0.4-0.4-1.1
		c-0.1-0.3-0.4-0.6-0.5-0.9c-0.1-0.3,0-0.3-0.1-0.6c-0.1-0.2-0.2-0.3-0.3-0.5l-2-7c0-0.4-0.1-0.8-0.2-1.2c-0.2-0.8-0.2-1.8-0.4-2.6
		c-0.1-0.6-0.1-3.5-0.1-4.5c0-0.5,0.2-0.9,0.2-1.3c0-0.8,0.1-0.5,0.3-1.1c0.1-0.3,0-0.9,0.1-1.3c0.2-1.1,0.1-0.5,0.4-1.2
		c0.1-0.3,0.2-0.8,0.3-1.2l0.4-1.1c0.4-1.2,0.3-1,3.2-1.1c0.9,0,1.9-0.2,2.7-0.2c1.6,0,16.8-0.2,17.7,0c0,0.5-0.2,0.3-0.4,0.9
		c-0.1,0.3-0.1,0.6-0.2,1c-0.2,0.7-0.4,1.2-0.5,1.9c-0.2,1.9-0.6,2.2-0.6,4.3c0,3.9,0,1.8,0.3,4.6c0.3,2.7,0.2,1.8,0.7,4.2
		c0.3,1.3,0,0.5,0.5,2c0.2,0.5,0.1,0.8,0.5,1.8c0.6,1.5,0.1,0.9,0.7,1.8c0.3,0.4,0.2,0.5,0.3,0.9l1.2,2.5c0.5,1.2,0.4,0.6,0.8,1.6
		c0.2,0.7,0.5,0.4,0.9,1.5c0.1,0.4,0.3,0.3,0.5,0.7c0.3,0.5,0.1,0.3,0.5,0.7v-3.3c-0.2-0.3-0.1-0.4-0.3-0.7
		c-0.1-0.2-0.3-0.3-0.4-0.5c-0.2-0.4-0.1-0.4-0.2-0.7c-0.1-0.2-0.3-0.3-0.4-0.5c-0.1-0.2-0.2-0.5-0.3-0.7c-0.1-0.3-0.2-0.3-0.4-0.6
		c-0.2-0.4-0.1-0.4-0.4-1c0-0.1-0.1-0.2-0.1-0.3l-0.9-2c-0.2-0.3,0-0.4-0.2-0.7c-0.2-0.4-0.4-0.9-0.5-1.4c-0.1-0.3-0.1-0.5-0.2-0.7
		c-0.2-0.5-0.5-1.8-0.6-2.3l-0.4-1.5c-0.4-1.9-0.4-8.6,0.3-10.1c0.2-0.4,0.3-1.1,0.4-1.6c0.1-0.6,0.3-0.6,0.5-1.4s0.2-0.8-0.4-1.2
		c-0.3-0.2-0.3-0.3-0.5-0.4l-4.5-0.2c-1.2-0.1-2.6,0-3.8,0c-2.5,0-5.1,0-7.6,0c-1.2,0-2.6,0-3.9-0.1h-2.1c-0.7,0-1.3,0-1.9,0.1
		c-0.3,0.3-0.5-0.2-0.7,0.8C207.9,2,207.7,2.5,207.5,2.7L207.5,2.7z M182.8,56.6c0,1-0.1,1.8-0.1,2.8c0,0.4,0.1,2.6-0.1,3
		c0,0.1,0.1,0.1,0.1,0.3c0,0.3,0,0.1-0.1,0.2c0,0.5,0.2,1.2,0,1.6c-0.2,0.5-0.4,0.5-0.7,0.7l-0.3,0.2c0,0.1,0,0-0.1,0.2
		c-0.1,0.1-0.1,0.1-0.1,0.2l-0.4,0.9c-0.1,0.4,0,0.4-0.2,0.6c0,0.3,0.1,0.1-0.2,0.2c-0.3,0.1-0.4-0.2-0.9-0.2c-0.5,0-1.1,0-1.6,0
		c-0.8,0-2.2,0.1-2.9,0.3c-0.4,0.1-0.9,0.1-1.3,0.2c-0.5,0.1-0.9,0.2-1.4,0.3c-0.9,0.2-1.7,0.5-2.5,0.7c-0.7,0.2-1.8,0.7-2.4,0.8
		c-0.6,0.5-0.9,0.5-1.6,0.8c-0.3,0.1-0.4,0.3-0.7,0.4c-0.3,0.2-0.6,0.2-1,0.4c-0.1,0.2-0.5,0.4-0.8,0.6c-0.8,0.4-0.6,0.5-0.9,0.6
		c-0.5,0.3-0.2-0.1-1.4,0.9c-0.9,0.8-0.9-0.4-1.2-0.8l-0.8-0.9c-0.4-0.2-0.2-0.3-0.6-0.6c0.2-0.7,0.3-0.6,0.2-1.6
		c0-0.5,0.1-1.1,0-1.6c0.1-1.2-0.2-4.1,0-5c0.2-0.4,2.2-0.9,2.7-4.7c0.1-0.5-0.1-0.7,0.1-1c0.3-0.5,0.7-0.2,1.1-0.6
		c0.6-0.5,0.4-0.3,1-0.6c0.5-0.3,0.4-0.4,1-0.6c0.7-0.2,0.5-0.4,1.1-0.7c0.5-0.2,0.6-0.3,1.1-0.6c0.4-0.2,0.8-0.2,1.2-0.5
		c0.2-0.1,0.3-0.2,0.5-0.3l1.9-0.7l0.1-0.1l0.1-0.1c0.3-0.1,0.5-0.1,1-0.2c1-0.3,1.8-0.5,2.9-0.6c0.5,0,1.2-0.2,1.5-0.2
		c0.5,0,0.6-0.1,0.9-0.2c0.5,0,2.5-0.1,2.8,0c0.4,0.2,0.8,1.7,1.1,2.1c0.1,0.1,0.2,0.1,0.3,0.2l0.9,0.7
		C183,54.8,182.8,54.2,182.8,56.6L182.8,56.6z M175.4,50c-0.3,0.3-2.8,0.5-3.9,0.8c-0.9,0.3-1.6,0.4-1.9,0.5
		c-0.3,0.1-0.5,0.3-0.8,0.4c-0.4,0.2-0.5,0.2-0.9,0.3c-0.4,0.1-0.4,0.3-1.6,0.8c-0.3,0.1-0.4,0.3-0.7,0.5s-0.5,0.2-0.8,0.4l-2.3,1.3
		c-0.3,0.2-0.4,0.3-0.7,0.5c-0.9,0.4-1.1-0.1-1.4,1c-0.3,1,0.2,1.8-1,3.8c-0.3,0.6-0.5,0.4-1,0.8c-0.8,0.6-0.9,0.2-1,0.8
		c0,0.4,0.1,0.5,0,1.1c-0.1,0.7,0.4,6,0.2,6.7l-0.1,0.1c0.2,0.8-0.4,1,0.1,1.7c0.8,1.2,1.3,0.5,1.8,2.5c0.2,0.5-0.6,0.7,0.1,1.4
		c0.5,0,0.3-0.2,0.8,0c0,0.6-0.6,0.3-1,0.8c-0.3,0.4-1.2,0.9-1.6,1.2c-0.3,0.2-0.3,0.3-0.5,0.5c-0.3,0.3-0.3,0-0.6,0.4
		c-0.3,0.4,0.1,0.2-0.5,0.5l0.7-7c0.1-2.5-0.1-5.2,0.1-7.7c0.1-0.9,0-4.3,0.3-4.9c0.1-0.3,0.4-0.5,0.6-0.7c0.3-0.3,0.3-0.4,0.5-0.7
		l1.2-1.4c0.4-0.5,0.2-0.3,0.7-0.6c0.3-0.2,0.1-0.2,0.3-0.4l2.3-1.6c0.3-0.1,0.2,0,0.5-0.2c0.1-0.1,0.1-0.1,0.3-0.3
		c0.9-0.6,0.6-0.2,1.3-0.7c1-0.7,0.7-0.1,1.7-0.8c0.3-0.2,1.4-0.6,1.9-0.8c0.3-0.1,0.1-0.1,0.5-0.1c0.6-0.1,0.1,0.1,0.5-0.2
		c0.5-0.4,1.7-0.5,2-0.6c0.7-0.2,1.3-0.4,2-0.5c0.4-0.1,1.9-0.1,2.1,0c0.4-0.2,1.2-0.2,1.7-0.2c1,0,3.1,0.1,4,0.4
		c0.5,0.2,0.3,0.2,0.9,0.3c0.4,0,2.4,1.1,2.5,1.1c0.4,0.4,0.1,1.6,0.1,2c0,0.7,0.1,4.1-0.1,4.4c0.1,0.5,0,2.7,0,3.5
		c0,1.3-0.1,2.5,0,3.7c0,0-0.1,5.4-0.1,5.5h-0.3c-0.1,0-0.3-0.1-0.4-0.1c-0.7-0.2-1.4-0.6-2.2-0.8l-3.4-0.5
		c-1.3-0.1-1.9,0.2-3.6,0.4c-1.7,0.1-2.9,0.7-3.9,0.9c-1.1,0.2-0.5,0.4-2.2,0.8l-2.6,1.3c-1,0.3-0.7,0.4-1.3,0.7
		c-1,0.5-1,0.6-1.2,0.7c-0.5,0.2-0.2-0.1-0.6,0.3c-0.6,0.6-0.7,0.4-1.2,0.9c-0.3,0.3-0.3,0.3-0.8,0.4c0.1-0.5,0-0.2,0.5-0.6
		c0.3-0.2,0.2-0.2,0.6-0.5c0.2-0.2,0.4-0.3,0.6-0.4c0.3-0.2,0.2-0.2,0.4-0.4c0.8-0.4,0.1,0.1,0.8-0.6c0.6-0.5,0.3,0.1,1.2-0.7
		c0.6-0.5,0.4,0.1,1.4-0.8c0.7-0.6,0.4,0.1,1.3-0.6c0.8-0.5,0.6-0.1,1.9-0.8c0.6-0.3,1.5-0.3,2.1-0.7c0.7-0.3,3.1-0.6,4.3-0.9
		c0.3-0.1,0.7,0,1-0.1c1.3-0.2,1.8-0.1,3,0c0.6,0.1,0.4-0.1,0.9-0.2c0.4-0.1,0.6,0.1,0.8-0.2c0.6-0.8,0.1-1.3,1.1-2.2
		c0.9-0.7,1.2-0.5,1.3-0.9c0-0.4-0.2-0.4-0.3-0.7c-0.1,0-0.1,0.1-0.1-0.4c0-0.2,0.1-0.3,0.1-0.5c0-0.3-0.1-0.5-0.1-1
		c0.1-1.1,0.2-6,0.3-6.6c0-0.8,0.2-1.5,0.1-2.3c-0.7-0.5-1,0.1-1.6-0.4c-0.2-0.1,0,0-0.2-0.2c-0.2-0.1-0.3-0.2-0.4-0.4
		c-0.3-0.4-0.5-2.1-0.9-2.3C180.4,49.9,176.2,50,175.4,50L175.4,50z M172.8,48.4c-0.1,0.1-1.3,0.2-1.6,0.3l-1.5,0.5
		c-0.5,0.2-1,0.2-1.5,0.5c-0.3,0.1-0.3,0.2-0.7,0.3c-0.3,0.1-0.4,0.1-0.7,0.2c-0.2,0.1-0.5,0.3-0.7,0.4c-0.5,0.3-0.7,0.1-1.3,0.6
		c-0.3,0.2-0.3,0.2-0.6,0.3l-3.1,1.8c-0.2,0.2-0.3,0.3-0.5,0.4c-0.5,0.2-0.2,0-0.6,0.4l-1,0.9c-0.2,0.2-0.4,0.2-0.5,0.4l-0.5,0.5
		c-0.3,0.2-1.2,1.4-1.3,1.6c-1,1.9-0.9,0.6-0.9,2.9c0,0.6,0,1.2,0,1.8v3c0,1.2,0,2.5,0,3.7c0,0.6-0.2,1.2-0.2,1.7s-0.1,1.2-0.1,1.8
		s0,1.1,0,1.7c0,0.6-0.1,1.2-0.1,1.8c0,0.4-0.1,2.5,0.1,2.8c0.1,0.3,0.3,0.3,0.5,0.4l0.1,0.7c0.2,0.1,0.5,0.2,0.8,0.2
		c0.4-0.2,0.8-0.3,1.1-0.6c0.3-0.2,0.5-0.5,1-0.7c0.2-0.4,1.3-1,1.7-1.4c0.3-0.3,0.2-0.3,0.6-0.5l1.6-1.2c0.2-0.2,0.3-0.3,0.7-0.4
		c0.2-0.2,1.3-0.8,1.4-0.9c0.5-0.4,0.6-0.5,1.1-0.5c0.1-0.1,0.5-0.5,0.7-0.6c0.3-0.2,0.4-0.1,0.7-0.3c0.2-0.1-0.1-0.1,0.2-0.1
		c0.3-0.3,0.4-0.3,0.8-0.4c0.5-0.1,0.2-0.3,0.8-0.4c0.2-0.4,4.5-1.7,5.7-1.7c0.1-0.2,0.3-0.1,0.6-0.1s0.5,0,0.8,0
		c0.3,0,1.1-0.1,1.3,0c0.5,0,0.8,0,1.3,0c1,0.1,1.4,0,2.3,0.2c0.4,0.1,0.5,0.1,0.9,0.3c0.3,0.1,0.5,0.2,0.8,0.3
		c1,0.2,0.6,0.2,1.2,0.6c0.6,0.4,1-0.1,1.2-0.2c0.1-0.3,0.2-0.2,0.2-0.5c0.1-0.3-0.1-0.3,0.1-0.5c0-0.6,0.1-2.6,0.2-3
		c0-0.4,0-2.1,0.1-2.2c0.1-0.5-0.1-0.4,0-0.9c0.1-0.4,0-0.5,0.1-0.9c0-0.5,0-1.2,0.1-1.8c0-0.9,0.1-2,0.1-3l0.1-1.9v-0.2
		c0-0.7-0.1-2.2,0.1-2.7c0-0.6,0.1-2,0-2.5c-0.2-1.1-0.6-0.6-1.4-1.1c-0.4-0.3-1.9-1-2.5-1.2c-0.2-0.1-0.2-0.1-0.4-0.1
		c-0.1,0-0.1,0-0.3-0.1c-0.3-0.2-0.1,0-0.2-0.2c-0.4,0.1-0.6,0-1-0.1l-0.5-0.1c-0.5-0.1-1.4-0.2-1.6-0.3c-0.4,0-0.8-0.1-1.3-0.1
		c-0.5,0-0.9,0-1.4,0c-0.5,0.1-1,0.2-1.4,0.2C173.9,48.2,173.2,48.3,172.8,48.4L172.8,48.4z M33.4,59.5l-0.1,2.3V62
		c0,0.6,0.1,4-0.1,4.2c-0.1,0.8,0.3,1.3-0.3,1.9c-0.2,0.2-0.4,0.3-0.7,0.5c-0.4,0.4,0,0.4-0.5,0.5c-0.1,0.3-0.2,0.7-0.4,1
		c0,1.3-0.5,0.5-1.4,0.5c-0.7,0-1.4,0-2.1,0c-1,0-4.7,0.6-5.5,0.9c-0.5,0.1-3.1,0.9-3.6,1.1c-0.5,0.3-0.3,0.1-0.9,0.4
		c-0.2,0.1,0.1,0-0.2,0.1c0,0,0,0-0.1,0h0c-0.6,0.4-0.9,0.2-1.5,0.7c-0.3,0.3-0.4,0.3-0.9,0.4L13.6,75c-0.6,0.4,0,0.1-0.8,0.5
		c-0.3,0.1-0.5,0.4-0.9,0.7c-0.4,0.3-0.2,0.3-0.7,0.3c-0.8-1,0.1-0.5-0.9-1.5c-0.8-0.9-0.3-0.1-1.1-1.3C9.5,73,9.4,73,9.4,72.1
		c0-1.6,0.2-3.8,0-5.8v-0.7c0.1-0.1,0.4-0.2,0.5-0.4c0.8-0.6,0.8-0.8,1.2-1.3c0.4-0.4,0.9-1.9,1-2.2c0.1-0.5,0.1-1,0.1-1.5
		c0.1-0.7,0.5-0.5,0.9-0.7c0.3-0.1,0.2-0.2,0.5-0.4c0.1-0.1,0.3-0.2,0.5-0.3c0.6-0.2,0.7-0.6,1.1-0.6c0-0.1,0,0,0.2-0.1
		c1.2-0.6,0.5-0.4,1.2-0.7c0.6-0.3,0.9-0.7,1.6-0.7c0.6-0.3,1.1-0.6,1.6-0.7C20,56,20,56,20.3,55.9c0.5-0.2,0.9-0.4,1.5-0.5
		c0.3,0,0.5-0.1,0.8-0.2c0.2-0.1,0.6-0.1,0.8-0.2c0.9-0.2,1.5-0.2,2.5-0.3c0.1-0.1,1.8-0.3,2.2-0.3c0.8,0,1.7-0.1,2.5,0
		c1.1,1.6,0.5,1.8,2.2,3c0.8,0.6,0.8,0.3,0.7,1.1C33.4,58.8,33.4,59.2,33.4,59.5z M26.2,52.7c0.5-0.2,0.5-0.1,1.2-0.2
		c1.1-0.1,2.8,0.1,3.8,0.3l2.2,0.7c0.2,0.1,0.3,0.2,0.5,0.3c0.2,0.1,0.3,0.1,0.5,0.2c1.1,0.6,1.3,0.1,1,3l-0.1,8.3
		c0,1.1-0.1,1.8-0.1,2.1c0,0.4,0.1,0.5,0.1,1c-0.1,0.6,0,0.5,0,1c0,0.3-0.1,0.5-0.1,0.9v3c0,0,0,0,0,0.1L35,73.5
		c-0.1,0.1-2.3-0.8-2.8-0.9L28.8,72c-0.6-0.1-1.3,0-1.9,0.1c-0.7,0.2-2.4,0-5,1c-0.6,0.2-0.9,0.1-1.5,0.5c-0.8,0.5-0.6,0.1-2.1,0.8
		c-0.8,0.4-0.6,0.1-1.3,0.7c-0.4,0.3-0.3,0.2-0.7,0.3c-0.6,0.2-0.7,0.5-1.2,0.7c-0.6,0.2-0.8,0.6-1.2,0.7c-0.5,0.2-0.2,0-0.6,0.4
		c-0.2,0.2-0.4,0.3-0.6,0.4c-0.8,0.4-0.7,0.9-1.3,0.6c0.1-0.4,0.3-0.3,0.5-0.5c0.2-0.2,0.2-0.3,0.5-0.5l1.3-0.9
		c0.3-0.2,0.3-0.3,0.6-0.5c0.4-0.3,0.3-0.1,0.7-0.3c0.3-0.1,0.3-0.3,0.6-0.5c0.5-0.4,0.3-0.1,0.8-0.3c0.3-0.1,0.3-0.2,0.6-0.5
		c0.4-0.3,0.3-0.1,0.8-0.2c0.2-0.1,0.4-0.3,0.6-0.4c0.3-0.2,1.1-0.3,1.6-0.5c0.3-0.2,0.4-0.2,0.8-0.3c1.8-0.4,1.3-0.5,3.3-0.9
		c0.7-0.1,1.2-0.2,1.9-0.3c0.3-0.1,0.5-0.2,0.9-0.2c1-0.1,2.1-0.2,3.1-0.1c0.3,0,0.6,0.1,0.9,0.1c0.5,0,0.3-0.1,0.8-0.2
		c0.5-0.1,0.8,0,1.1-1.1c0.2-1,0.1-0.8,0.8-1.4c0.2-0.2,0.3-0.3,0.6-0.4c1.3-0.6,0.1-0.6,0.2-1.5c0-0.2,0.1-0.4,0.1-0.6
		c0-0.2-0.1-0.4-0.1-0.7c0-0.4,0.1-0.8,0.1-1.4c0-0.4-0.1-1.2,0.1-1.4c-0.1-1,0.1-3.5,0.2-4.8c0-0.5,0.2-1,0.1-1.6
		c-0.5-0.3-0.9-0.1-1.5-0.2c-0.5-0.7-0.8-0.3-1-1.4c-0.2-0.7-0.4-1.2-0.6-1.8c-0.9-0.2-4.3-0.1-5.4,0c-0.2,0.2-2,0.4-2.4,0.5
		l-3.5,0.9c-0.3,0.1-0.6,0.4-1,0.6c-0.4,0.2-0.7,0.1-1.1,0.4c-0.8,0.6-0.8,0.3-1.5,0.8c-0.2,0.2-0.2,0.2-0.5,0.3
		c-0.8,0.4-0.1-0.1-1,0.5c-0.3,0.2-0.7,0.3-1,0.5c-0.4,0.2-0.1,0.2-1,0.6c-0.5,0.2-0.4,0.4-0.9,0.5c-0.3,0.1-0.9,0.1-1.1,0.4
		c-0.4,0.7-0.2,2.1-0.4,2.6l-0.4,1.1c-0.5,1.2-0.8,1.1-1.4,1.6c-0.6,0.5-0.8,0.2-0.9,0.7c-0.1,0.2,0.1,0.7,0,1.3l0.2,4.3
		c0,0.9,0.2,1.8,0,2.9c-0.1,0.5-0.4,1.3,0.6,2c0.8,0.5,0.9,0.6,1.2,1.8c0.2,0.6-0.3,0.3-0.1,1.1c0.2,0.6,0.6,0.2,1,0.3
		c0,0.6-0.5,0.3-1,0.8c-0.4,0.4-0.7,0.4-1.1,0.8l-1,0.9c-0.2,0.2-0.4,0.2-0.5,0.4c-0.3,0.3,0,0.2-0.5,0.5v-0.3c0-0.2,0-0.1,0-0.3
		l0.2-2.1c0.1-1,0.1-1.9,0.2-2.8c-0.1-1.8,0-0.9,0-3.1c0-1.2-0.1-5.1,0.1-6c0.1-0.9,0.1-3.3,0.1-4.5c0-0.8,0.5-1.1,1.1-2l1.8-2
		c0.5-0.2,0.1,0.1,0.5-0.3c0.3-0.4,1.8-1.3,2.2-1.6c0.2-0.2,0.3-0.1,0.5-0.2c0.5-0.2,0.5-0.5,1.2-0.7c0.5-0.1,0.3-0.1,0.8-0.5
		c0.4-0.2,0.7-0.2,1.1-0.5c0.5-0.3,0.4-0.3,1-0.5c0.5-0.1,1.3-0.6,1.7-0.6c0.5-0.1,0.2,0.1,0.6-0.2c0.8-0.5,1.5-0.5,2.4-0.8
		c0.7-0.2,1.9-0.4,2.6-0.5L26.2,52.7L26.2,52.7z M24.2,51.4c-0.1,0.1-0.2,0.1-0.6,0.1L22,51.7c-0.1,0.1-0.9,0.3-1,0.3
		c-0.5,0.1-0.6,0.3-1.1,0.3c-0.1,0.1,0,0-0.2,0.1c-0.7,0.3-1.7,0.7-2.3,0.8c-0.2,0.1-0.3,0.1-0.5,0.2c-1,0.6-0.8,0.3-1.4,0.6
		c-0.4,0.2-0.4,0.3-0.9,0.5c-0.5,0.2-0.6,0.3-0.9,0.5c0,0,0,0-0.1,0c0,0,0,0-0.1,0l-2.5,1.6c-0.5,0.3-0.2-0.1-0.6,0.4
		c0,0-1.5,1.3-1.8,1.4l-1.1,1.8c-0.4,0.4-0.9,1.7-1.2,1.8c-0.1,1.2,0,3.1,0,4.4c0,1,0.1,5.8,0,6.5l-0.2,1.9c0,0.6,0,3.6-0.1,3.7
		c-0.1,0.7,0,1.6,0,2.3c0,1-0.2,1.3,0.6,1.6V83c0.4,0.2,0.6,0.3,1,0.1c0.2-0.1,0.7-0.4,0.9-0.5C9.3,81.9,9,82.3,9.4,82
		s0.2-0.3,0.7-0.6c0.5-0.4,0.4-0.4,0.8-0.7c0.4-0.4-0.1,0.2,0.8-0.6l1.6-1.1c0.5-0.4,0.2-0.4,1-0.7c0.5-0.2,0.6-0.5,1-0.6
		c0.7-0.3,0.3-0.4,1-0.7c0.9-0.4,0.5-0.3,1.1-0.6c0.3-0.4,0.3,0,1-0.5c0.6-0.5,0.8-0.3,1.1-0.5c0.4-0.2,0.3-0.4,1-0.6
		c1-0.3,2.3-0.9,3.6-1.2c2-0.5,6.7-0.6,8.7,0.1l1.7,0.6c0.4,0.3,0.7,0.8,1.6,0.1c0.4-0.3,0.2-0.3,0.4-1.2c0-0.8,0.1-1.4,0.1-2.2
		l0.2-2.2c-0.1-0.4-0.1-0.8,0-1.3c0-0.3,0.1-0.4,0.1-0.6c0-0.3-0.1-0.4,0-0.5c0-0.5,0-1,0-1.6c0-0.5,0.1-0.8,0.1-1.4
		c0-1,0.1-2.1,0-3.1c0.2-0.9,0-2.8,0.2-3.1v-2.6c0-0.4-0.2-0.7-0.3-1c-1.4-0.3-0.9-0.4-1.5-0.6c-1-0.4-0.8-0.6-2.9-1.3
		c-0.3-0.1-0.5-0.1-0.8-0.2c-0.4-0.1-0.5,0-0.7-0.2c-0.4,0-0.7-0.1-0.9-0.1c-0.3,0-0.6,0.1-0.9-0.1h-0.3l-0.3-0.1
		c-0.6-0.1-1.6-0.1-2.2,0C25.4,51.3,25,51.4,24.2,51.4L24.2,51.4z M211.9,98.9c0.4,0.3,1.4,2.8,1.7,3.5c0.3,1,0.9,3,1,4.2
		c0.1,1-0.1,1.5-0.7,1.8c-0.4,0.3-1.3,0.7-1.9,0.7c-1-0.1-1.7-2.4-1.8-3.4c-0.1-0.2-0.3-1-0.4-1.3c-0.4-1.1-1.1-3.1-1.3-4
		c-0.4-2.2,2.3-2.5,2.7-2.4C211.5,98.1,211.9,98.5,211.9,98.9L211.9,98.9z M219,94.5c1.4,0.3,1.8,1.6,2.2,3c0.4,1.5,0.8,2.9,0.1,4.3
		c-0.5,1.2-1.3,2.4-2,3.1c-0.8,0.8-2.3,2-2.7-0.3c-0.6-1.4-0.9-3.9-1.3-5c-0.8-2.3-1.7-3.2,0.6-4.3C216.4,95.1,218.3,94.3,219,94.5z
		 M199.2,88.7c0.8,0.3,1.3,1.6,1.7,2.4c0.5,1,0.9,1.7,1.3,2.8c0.5,1.4,0,2-1.1,2.5c-0.7,0.3-2.8,0.8-3.3,0.1c-0.7-0.1-1.2-1-1.4-1.7
		C195.7,91.8,198.3,87.9,199.2,88.7L199.2,88.7z M205.9,85.9c0.4,0.2,2.3,3.8,2.4,4.2c0.3,1.2-1.3,2.3-2.2,2.8
		c-0.3,0.1-0.7,0.3-1,0.2c-0.3-0.1-0.1,0-0.2-0.2c-0.6-0.1-1.2-1.9-1.4-2.4c-1.2-2.7-2.7-3.8-0.2-4.8c0.4-0.1,1-0.4,1.5-0.4
		C205.2,85.2,205.9,85.4,205.9,85.9z M211.4,80.8l-0.3,0.2c-0.5,0.2-2.7,0.5-3.1,0.5c-0.7,0.1-1.3,0-1.8-0.4l-0.4-0.5l-0.3-0.3
		c-0.8-1-0.9-2-2.2-1.8c-0.3,0.4-0.6,0.4-0.5,1.3c0.1,0.6,0.4,0.9,0.5,1.4c0.4,1.3-0.6,1.8-1.6,2.1c-0.3,0.3-1.4,0.6-1.9,0.5
		c-0.7-0.1-1.2-0.7-1.4-1.1c-0.4-0.2-1.1-1.6-2-1.6c-1.2,0-0.4,1.8-0.1,2.4c0.4,0.8,1,1.7,0.3,2.7l-1.6,1.8c0,0,0,0-0.1,0
		c-0.1,0.3,0,0.1-0.2,0.4c-1.1,1.3-2.1,4-2.3,5.4c-0.3,2.2,0.4,4.3,1.9,5.7l0.2,0.2l1,0.7c0.2,0.1,0.9,0.4,1,0.5
		c0.8,0.2,1.5,0.4,2.4,0.6l0.6,0.1c0.7,0,1.2,0,1.9,0c0.5,0,1.2-0.2,1.6-0.1l0.2-0.1c1.4-0.5,2.3,0.5,2.3,1.5c0.2,0.3,0.4,1,0.6,1.4
		c0.2,0.5,0.5,0.8,0.6,1.3c0.3,0.7,0.7,2.2,0.9,3c0.3,1.3-0.1,2.2-1.2,2.4c-0.5,0.1-2.1,0.1-2.7,0.1c-0.3,0-0.5-0.1-0.7-0.3
		c-0.7-0.1-0.6-1.6-0.6-2c0-1.2-0.3-1.2-0.6-2c-0.3-0.1-0.5-0.5-0.9-0.7c-0.4-0.2-0.8-0.2-1.4-0.2c-0.5,0.1-0.9,0.2-1.3,0.5
		c-0.2,0.1-0.3,0.3-0.5,0.4c-0.2,0.2-0.2,0.3-0.5,0.5c-0.1,0.4-0.4,1-0.5,1.7c0,0.6,0,1.1,0.1,1.6s0.5,0.8,0.5,1.1
		c0.2,0.1,0.5,0.6,1,0.9c0.4,0.2,0.9,0.5,1.2,0.7c0.4,0.1,0.6,0.3,1,0.4c0.3,0.1,0.6,0.2,1,0.3l1.3,0.1h2.4c0.5-0.2,2.6-0.1,3,0.2
		c0.5,0.3,1.1,1.4,1,2.3l0.9,3c0.3,0.3,0.4,0.9,0.5,1.4c0.3,0.7,0.5,0.7,0.9,1c1,0,1.2-0.5,1.2-1.4c0.2-3.4-1.2-5.5-0.3-7.3
		c0.4-0.8,2.7-1.9,3.5-0.5c0.1,0.3,1.2,4,1.2,4.2c0.3,0.3,0.4,0.7,1.1,0.6c1.6-0.1,0.6-3.3,0.5-3.6c-0.1-0.5-0.2-1-0.3-1.4
		c-0.2-0.9-0.7-1.6-0.1-2.7c0.8-1.4,3.2-2.3,5.8-7.4c0.1-0.3,0.4-1,0.5-1.1c0.2,0.2,0.4,0.3,0.7,0.6l2.5,2.6c0.6,0.6,1.5,1.6,1.7,2
		c0.5,0.2,0.8,0.8,1.3,1.3l0.5,0.5l1,0.8c0.2,0.1,0.3,0.1,0.5,0c0.2-0.3,0.1-0.2,0.4-0.4l1.1-1.2c0.1-0.2,0,0,0.1-0.2
		c0.1-0.2,1.1-1.5,1.3-1.7c0.4-0.4,1.1-1.4,1.4-1.7v-1.3c-0.3,0.2-1.5,1.9-1.8,2.1c-0.2,0.2-0.3,0.3-0.6,0.6l-0.6,0.7
		c-0.4,0.5-1.3,1.6-1.7,1.9c-0.4-0.1-1.1-0.9-1.4-1.2l-1.8-2c-0.3-0.4-0.3-0.4-0.6-0.7c-0.2-0.2-0.1-0.2-0.3-0.4
		c-0.2-0.2-0.2-0.1-0.3-0.3l-0.6-0.6c-0.3-0.3-0.2-0.4-0.6-0.7c-0.4-0.3-1-1.2-1.2-1.4c-0.2-0.2-0.5-0.4-0.6-0.6
		c-0.1-0.2,0.2-1.8,0.1-2.3c-0.1-1.2-0.5-1,0.5-1.6c-0.2,0.3-0.1,0.4-0.1,0.9c0,0,0.8,0.4,0.8,1.3c0,0.5-0.3,1.3-0.2,1.8
		c0.1,0.3,0.6,1,0.9,1.3l4,4.5c0.9,0.8,0.3,0.8,1.1,0.9c0.8-1-1-1.3,0.8-2c0.7-0.3,0.5,1,1.6,0.3l0.4-0.4c0,0,0.1-0.1,0.1-0.2
		c0.2-0.3,0.3-0.4,0.5-0.7c0.3-0.4,1.3-1.7,1.6-1.8v-1.5l-0.8,0.9c-0.1,0.2-0.3,0.4-0.4,0.6c-0.4,0.5-0.9,0.9-1.2,1.5
		c-0.1,0.2-0.3,0.3-0.7,0.6c-0.2,0.2,0,0.1-0.3,0.2l0.1-0.6c-0.5,0.1-1.1,0-1.6,0.1c-0.7,0.2-0.5,0.7-1.1,0.5l-0.9-1
		c-0.1-0.2,0-0.1-0.2-0.3c-0.3-0.2-0.2-0.1-0.5-0.4c-0.2-0.4-0.3-0.3-0.8-0.9c-0.3-0.4-0.2-0.1-0.6-0.6c-0.3-0.4-0.4-0.4-0.6-0.6
		c-0.2-0.3,0-0.2-0.4-0.5c-0.8-0.7,0.2-0.5-0.1-1.9c-0.1-0.3-0.1-0.5-0.2-0.8c-0.2-0.5-0.2-0.2-0.4-0.6c0.2-0.3,0.3-0.7,0.6-0.9
		c0.7-0.5,0.1-0.3,0.6-0.7l3-3.4c0.4-0.4,0.1-0.3,0.8-0.9l0.1-0.1l0.1-0.1c0-0.4,0.4-0.5,0.7-0.8c0.2-0.2,0.2-0.3,0.3-0.5l1.1-1.2
		c0.1-0.1,0.6-0.8,0.7-0.9c0.3-0.3,0.1,0.1,0.4-0.4c0.5-0.8,0.3,0,0.7-0.9c0.3-0.7,0.3-0.1,0.6-0.9l0.9-1.3v-1
		c-0.5,0.4,0.1,0.1-0.7,0.8c-0.2,0.2-0.1,0.2-0.3,0.5c-0.2,0.2-0.2,0.2-0.4,0.3c-0.2,0.2-0.2,0.3-0.3,0.5l-1.6,2
		c-0.4,0.5-0.3,0.3-0.7,0.8l-3,3.3c-0.7,1-0.1,0-0.8,1c0,0,0,0,0,0.1l-0.3,0.3c-0.2,0.2-0.2,0.3-0.4,0.5l-0.1,0.1
		c-0.3,0.3-0.3,0.4-0.5,0.6l-1.1,1.1c-0.5,0.7-0.4,0.3-0.7,0.6c0.2-0.6,1.1-1.3,1.3-1.7c0.5-0.8,1.5-1.7,2-2.4
		c0.2-0.3,0.1-0.2,0.4-0.4c0.3-0.3,0.1-0.1,0.3-0.4c0.1-0.2,0.3-0.2,0.4-0.4c0.1-0.2,0.1-0.2,0.3-0.4c0.2-0.2,0.2-0.2,0.4-0.4
		l3.4-4.2c0.4-0.6,0.3-0.3,0.6-0.7l0.7-0.8c0.2-0.2,0.1-0.2,0.3-0.4c0.3-0.3,0.2-0.1,0.4-0.3c0.2-0.1,0.1-0.2,0.3-0.4V81l-3.1,3.7
		c-0.2,0.4-1,1-1.3,1.4c-0.3,0.6,0,0-0.5,0.5l-0.1,0.1c-0.1,0.6-0.1,0.3-0.5,0.6l-0.9,1.1c-0.8,0.8-1.8,2.2-2.4,2.8
		c-0.3,0.3-0.2,0.3-0.4,0.6c-0.2,0.3-0.3,0.2-0.5,0.5c-0.3,0.4,0,0.3-0.4,0.6l-1,1.1c-0.4,0.5-0.2,0.1-0.7,0.8
		c-0.2,0.3,0,0.1-0.2,0.3c-0.3,0.2-0.2,0.3-0.4,0.5c-0.2-0.3-0.3-0.7-0.5-1c-1-1.7-1.7-1.8-2-2.4c-0.3,0-0.1,0-0.4-0.2
		c-0.1-0.1-0.2-0.2-0.3-0.2c-0.2-0.2-0.4-0.3-0.6-0.5c-0.2-0.2-0.4-0.3-0.6-0.4l-0.6-0.5c-0.3,0-0.9-0.4-1.5-0.6l-0.4-0.2
		c0,0,0,0-0.1,0c-0.4,0-0.9-0.1-1.4-0.2c-0.6-0.1-1.1-0.1-1.7-0.1l-1.1,0.2c-0.2,0.1-0.8,0.2-1.2,0.3c-0.2,0-0.5,0.1-0.7,0.1
		c-0.4,0-0.5,0-0.6-0.1c-0.9,0.1-1.9-2.4-2.3-3.3c-0.3-0.6-0.6-1.6-0.2-2.2c0.3-0.5,1.3-0.8,2.1-0.8c0.6-0.4,2.5,0.3,3.1,0.5
		c2.5,0.1,1-2.5,0.5-3.6c-0.3-0.7-0.5-1.4-0.8-2.1c-0.3-0.8-0.5-1.4-1.5-1.3c-0.5,0.7-0.6,0.8-0.3,2C212,79.7,212.2,80.4,211.4,80.8
		L211.4,80.8z M199.9,131.2c-0.3-1.6,2.7-0.6,2.8,0.4C202.9,133,200.1,132.4,199.9,131.2z M99.3,130.5c-0.5,1.9-3.9,2.5-3.8,0.8
		c0-0.5,0.6-1.1,0.8-1.4c0.6-0.9,0.6-2.8,1.9-2.6C99.1,127.5,99.7,129.4,99.3,130.5z M148.7,129.8c-0.1-0.7,0-3.4,1.1-2.5
		c0.5,0.4,1.1,1.7,1.4,2.5c0.4,0.9,0.8,1.8,1.1,2.9c0.3,1.3-0.1,2.5,0.2,3.8c0.1,0.5,0.3,1.2,0.1,1.8c-0.1,0.5-0.5,0.9-1.2,0.7
		c-1.3-0.6-2.3-3.8-2.5-5.4C148.9,132.3,148.8,131,148.7,129.8L148.7,129.8z M77.8,126.1c0.6,0,0.4,0.3,0.8,1.5
		c0.2,0.6,0.5,1.1,0.7,1.7c0.3,0.7,1.8,2.8,0.9,3.4c-1.1,0.6-1.7-1.7-2-2.5C78,129.1,77.4,126.9,77.8,126.1z M154.7,125.9
		c0.2,0,3.5,0.7,4.1,1l0.3,0.1c0.4-0.1,2.8,0.6,3.1,0.9c0.5,0,1.2,0.4,1.6,0.6c0.4,0.2,1.3,0.4,1.6,0.7c0.3,0,2.6,0.5,2.8,0.7
		c0.5,0,2.3,0.4,2.6,0.7c0.5,0,1,0.2,1.5,0.4c0.5,0.1,1.2,0.2,1.5,0.5c0.5,0,1,0.2,1.4,0.4l1.4,0.5c0.7,0,2.3,0.8,2.9,1.1
		c0.4,0.2,0.8,0.6,0.9,1.2c0.1,0.6-0.3,1.3-0.5,1.5c-0.3,0.8-1.3,2.6-2,2.6c-0.5,0.4-1.4-0.2-1.9-0.5c-0.4-0.2-1.7-0.6-1.9-0.7
		c-0.1,0-2.9-1-2.9-1c-0.6-0.1-1.2-0.3-1.8-0.6c-0.5-0.2-1.1-0.5-1.6-0.7c-0.5-0.2-2.4-0.7-2.7-1l-1.2-0.3c-1.9-0.2-2.2,0.3-3.7-0.7
		c-0.4-0.3-0.8-0.6-1.3-0.9c-0.3-0.2-1.2-0.5-1.4-0.6c-2.3-0.4-2.8-0.6-3.8-2.4c-0.3-0.7-1.3-2.9-0.4-3.5
		C153.8,125.6,154.4,125.7,154.7,125.9L154.7,125.9z M114.2,127.3c-0.4,2-0.5,3.3-2.6,3.4c-0.8,0.1-2.1,0.2-2.9,0
		c-1-0.2-1.2-0.8-1-1.8c0.5-2.1,0.4-3.1,2.5-3.5c0.8-0.1,2.2-0.2,2.9-0.1C114.3,125.5,114.4,126.2,114.2,127.3z M146.7,126.4
		c-0.1,1.3-0.5,3.5-0.3,4.7c0.2,1,0.8,3.6,0.7,4.5c-0.1,1-0.9,0.9-1.6,0.5c-0.5-0.3-2.7-2.6-3.2-3.2c-0.3-0.3-0.4-0.3-0.6-0.7
		c-0.5-0.8-1.4-2.5-1.7-3.5c-0.5-1.6,0.3-3.1,1.1-3.8c0.7-0.5,2.4-1.6,3.5-1.6C146.7,123.4,146.8,124.8,146.7,126.4L146.7,126.4z
		 M140.3,122.7c-0.2,0.5-1.3,1.6-1.6,2c-1.7,1.8-1.5,1.4-5.1-0.1c-0.8-0.4-2-0.8-1.8-2c0.1-0.5,1.1-1.9,1.4-2.3
		c0.6-0.8,1.4-0.9,2.7-0.6C137.1,120.3,141.1,121.2,140.3,122.7z M129.7,117.9c-0.3,0.7-1,1.4-1.5,1.7c-0.7,0.4-2,0-2.8-0.1
		c-1-0.1-2-0.1-3-0.2c-2.6-0.2-0.8-3.1,0.4-3.7c0.9-0.4,1.8,0,2.7,0.1c0.9,0.2,1.8,0.3,2.7,0.5C129.1,116.4,130.2,116.8,129.7,117.9
		L129.7,117.9z M110.8,114.6c-0.4-1.3,0.6-1.5,1.8-1.5c2.2,0.1,3.6,0.2,5.7,0.8c0.9,0.2,1.9,0.6,1.4,1.7c-0.3,0.7-0.9,1.4-1.7,1.5
		c-1,0.1-1.8-0.3-2.7-0.5C113.6,116.2,111.2,116.1,110.8,114.6z M178.9,119.8c-0.2,0.9-0.6,1.9-1.6,1.9c-0.9,0-2.1-0.4-2.6-0.9
		c-0.7-0.7-0.3-1.8,0-2.6c0.2-0.5,0.9-1.9,1.3-2.2c0.1-0.7,1.5-1.9,1.9-2.3c0.3-0.4,0.7-0.7,1.1-1c0.5-0.3,1.2-0.3,1.4,0.4
		c0.2,0.6-0.5,2.8-0.7,3.5C179.7,117.1,179.1,119.6,178.9,119.8L178.9,119.8z M170.8,112.6c0.9,0,0.9,0.2,1,0.6
		c-0.3,0-0.4,0-0.7-0.1C170.8,112.9,170.8,112.8,170.8,112.6z M97.1,110.5c0.8,0.3,3.8,1.9,4.9,2.6c0.4,0.2,0.5,0.2,0.7,0.5
		c0.5,0.1,1.9,1.3,2.4,1.7c0.9,0.6,1.8,1.1,1.2,2.7c-1.5,3.8-5.2,0.9-5.2,0.9c-0.6-0.2-1.9-1.2-2.4-0.2c-0.5,0.9,0.7,1.9,1,2.2
		c0.6,0.5,1.4,0.9,1.9,1.4c1.5,1.5,0.6,3.4-0.7,1.6c-0.3-0.4-0.6-0.7-0.9-1c-0.6-0.6-1.3-1.3-2-1.8c-1.7-1.3-3.4-2.5-4.8,0
		c-1.1,2-3.7,4.6-4.8,6.6c-0.2,0.4-0.9,2-1.2,2.3c-0.1,0.1-0.1,0.1-0.2,0.1c-0.2,0.6-1.1,1.2-1.9,0.6c-0.5-0.4-1.6-1.7-2.2-2.3
		c-1-1.1-1.2-0.8-1.9-2.8c-1.1-3.2-0.7-6.8-1.4-7.7c-0.8-0.9-1.5,0.3-1.8,0.6c-0.8,0.8-1.3-0.5-2.3,0.2c-0.6,0.4-0.8,1.2-1.2,1.8
		c-0.8,1.1-3.8,0.7-5.4,0.7c-1,0-2,0-3,0c-0.8,0-2.2-0.1-1.7-1.1c0.2-0.4,0.4-0.5,0.7-0.8c0.7-0.7,1.6-2.3,0.4-3
		c-1.1-0.7-3.9-0.2-5,0.3c-1.4,0.6-2.8,1.3-4,2.1c-3,1.8-2.3-0.6-3.7-1.1c-1.5-0.5-2.7,1.7-3.2,2.8c-0.9,2-2.1,4.1-2.9,6.2
		c-0.7,1.7-2.7,1.3-4.8,1.3c-3.1-0.1-4.9,0.8-7.7-1.3c-1.3-1-1.2-3-0.7-4.6c0.5-1.3,1.6-2.8,2.3-3.8c0.8-1.2,2-1.8,3.5-2.6
		c1.4-0.7,0.9-1.8,3.4-2.7c1.7-0.6,3.2-1,5.1-1c1.9,0,3.9-0.2,5.8-0.2c4-0.1,8,0.2,11.9-0.2c2.2-0.2,9.3-1.3,11.1-0.9
		c1.8,0.4-0.2,3-0.3,4.3c-0.1,1.1,0.5,1.8,1.4,1.1c0.6-0.5,1-1.4,1.9-0.7c1.3,1.1,2.4-0.6,3.5-1.9c2.4-2.9,2.2-2.4,6.1-3
		c0.9-0.1,1.7-0.3,2.6-0.5C93.3,109.6,96.2,109.7,97.1,110.5L97.1,110.5z M130,102.2c0.7-0.1,3.3,1,4.2,1.3c0.7,0.2,1.4,0.4,2,0.7
		c0.3,0.2,0.6,0.3,0.9,0.4c0.2,0.1,0.3,0.1,0.5,0.2c0.3,0.1,0.3,0,0.5,0.2c0.4,0,2.8,0.6,3.1,0.9c0.5,0,5.1,1.7,5.3,1.9
		c0.4,0,2.5,0.8,2.8,1c0.3,0,3,0.7,3.6,1l0.2,0.1c0,0,0,0,0.1,0c0.6,0,1.8,0.6,2.3,0.8l2.1,1c0.4,0,4.5,1.4,4.8,1.6
		c0.4,0,2.2,0.6,2.8,0.8c0.8,0.3,1.5,0.5,2.1,1c0.2,0.1,0.1,0.1,0.3,0.2c0.2,0,1.7,0.5,2,0.6c0.7,0.3,1.2,0.6,1.3,1.3
		c0.1,1.1-1.2,3.2-1.7,3.4c-0.2,0.4-0.5,0.7-0.7,1.2c-0.2,0.5-0.3,0.9-0.6,1.2c-0.7,0.5-2.6-0.2-2.8-0.4c-1.4-0.4-1.3-1-1.9-2.2
		c-0.6-1.1-1.3-1.3-2.5-0.6c-1,0.7-2,0.9-2.7-0.1c-0.7-1.1-0.5-1.6-1.8-2.1c-1-0.1-1.5,0.4-2.2,0.3c-0.4,0.3-1.3,0.2-1.8,0
		c-1.2-0.4-1.3-1.4-1.9-2.1c-0.5-0.6-0.8-0.3-1.5-0.4l-0.1,0.1c0,0,0,0-0.1,0c0,0,0,0-0.1,0l-0.9,0.4c-0.4,0.1-1,0.2-1.3,0.1
		c-1.5-0.4-1.1-2.1-2.4-2.7c-1.5-0.7-2.2,1.8-3.6,1c-2.2-0.6-1.2-3.9-4.2-2.7c-0.9,0.4-2.2,0.3-2.8-0.3c-0.6-0.5-0.7-1.4-1.2-2
		l-0.2-0.2c-1.9-0.7-1.8,0.9-3.4,0.9c-1.4,0-2.2-1.1-2.3-2.4C125.9,103.9,128.6,101.4,130,102.2z M113.7,106.4
		c-0.1,0.2-0.8,0.9-1,1.1c-1.4,1.4-6.6,0.4-3.3-2.2C111,104,114.3,105.2,113.7,106.4z M107.3,100.7c-0.3-1.1,0.2-1.6,1.1-1.7
		c0.7-0.1,2.1,0,2.8,0.1l6.9,1.7c0.8,0.2,1.5,0.5,2.3,0.7c0.7,0.2,1.5,0.4,2.2,0.6s1.6,0.4,1.6,1.3c0,0.7-0.7,1.3-1.2,1.6
		c-0.8,0.4-1.8,0.1-2.6-0.1c-1.5-0.4-3-0.9-4.4-1.4c-1.4-0.5-3-1.1-4.6-1.2C109.2,102.2,107.9,102.8,107.3,100.7z M99.1,93.6
		c0.1-0.8,1.3-0.6,2.6-1.5c1.5-0.9,1.4-0.7,2.4,0.7c0.3,0.5,1.1,1.1,0.9,1.8c-0.4,0.6-3.5-0.3-4.7-0.5c-0.3,0-0.5-0.1-0.8-0.2
		C99.3,93.9,99.3,93.9,99.1,93.6z M125.8,92.2c-0.2-1.3,2.5,0.4,2.6,0.6c0.6,0.5,1.8,1.4,0.8,2.5c-0.7,0.7-2,1.3-2.6,0.1L125.8,92.2
		L125.8,92.2z M61.6,90.9c-0.1-0.8,0.1-2,0.3-2.7c0.3-1.7,1.3-3.1,3.2-2.7c0.9,0.2,1.4,0.5,2.2,0.8c0.7,0.3,1.6,0.4,2.3,0.7
		c0.7,0.2,1.4,0.6,2.2,0.8c1.6,0.5,3,1,4.6,1.4c1.6,0.4,2.9,1,4.6,1.4c1.5,0.4,2.9,1.2,4.3,1.7c1.5,0.5,3,1,4.4,1.6
		c0.7,0.3,1.4,0.6,2.1,0.9c1.3,0.5,3.2,0.8,4.2,1.9c0.4,0.4,1.1,1.6,0.1,1.8c-2.4,0.6-6.8-1.9-9.6-2.3c-0.9-0.1-1.6-0.4-2.5-0.5
		c-1-0.1-1.7-0.2-2.7-0.3c-3.1-0.6-7-1.2-10.1-1.8c-1.8-0.4-3.5-0.4-5.4-0.6C64.1,92.7,61.8,92.5,61.6,90.9z M114.6,85.7
		c0.9,0.1,2.8,1.1,3.6,1.5c1,0.5,2.4,1.4,3.4,1.8c0.4,0.2,1.2,0.6,1.3,1.1c-0.3,0-0.6,0-0.8-0.1c-0.5-0.1-0.3-0.1-0.6-0.2
		c0,0,0,0-0.1-0.1c-0.9-0.1-2.9-1-3.8-1.4c-0.6-0.3-1.2-0.5-1.8-0.9c-0.5-0.3-1.4-0.9-1.7-0.9c-0.1-0.1-2.1-1.2-2.2-1.4
		c0.5,0,0.9,0.1,1.4,0.2c0.6,0.2,0.8,0.1,1.1,0.3C114.5,85.7,114.5,85.7,114.6,85.7z M123.8,74.7c0.5-0.1,1.3,0.2,1.8,0.4
		c0.3,0.1,0.6,0.2,0.9,0.3l0.7,0.2c0,0,0.1,0,0.1,0.1l0.1,0.1c0.5-0.1,2.1,0.3,2.4,0.6c0.3,0,2,0.6,2.3,0.8c0.4,0,2.4,0.6,3.1,0.8
		c0.1,0,0.2,0,0.2,0.1l0.2,0.1c0.5-0.1,1.2,0.2,1.7,0.4c0.3,0.1,0.6,0.1,0.8,0.2l0.9,0.3c0.5,0,1.1,0.3,1.5,0.6
		c1.2,0.9,1.7,2.8,2.1,4.2c0.3,1.1,0.5,2.3,0.8,3.4c0.3,1.2,0.8,2.2,0.8,3.6c-0.1,0.6-0.2,0.9-0.6,1.2c-0.3,0.2-1,0.5-1.5,0.4
		l-0.3,0.2c-0.9,0.3-1.5,0.4-2.2,1.4c-0.6,1.1-0.6,1.6-2.2,1.6c-1-0.1-1.9-0.3-2.5-0.8c-0.2-0.2-0.5-0.6-0.7-0.9
		c-0.3-0.4-0.6-0.7-0.7-1c-0.3-0.2-0.5-0.4-0.9-0.6c-1.2-0.8-3.7-1.8-5.2-2.4l-1.7-0.9c-0.3-0.2-0.1-0.1-0.2-0.1
		c-1.5-0.4-4.1-1.9-5.5-2.7c-0.9-0.5-2.5-1.1-1.3-2.8c1.4-2,3.8-3.8,4-5.8C122.9,76,122.7,74.9,123.8,74.7L123.8,74.7z M88.3,80
		c-0.3-0.6,0.3-1.2,0.6-1.3c0.5-0.2,1.2-0.1,1.8,0c2.7,0.5,4.9,0.1,5.2,2.9c0.2,1.5,0,2.3-0.6,3.5c-1,2.3-1.6,3.2-2.8,5.3
		c-0.7,1.2-1.2,1.3-2.7,0.8c-1.5-0.5-4.6-1.1-5.8-2.3c-0.9-0.9-0.3-2.1,0.2-2.9s1.5-2,2.2-0.7c0.7,1.2,0.8,1.6,1.9,2.3
		c1.2,0.7,2.2-0.3,2.7-0.9c0.5-0.7,1.4-1.5,1.5-2.6c0.1-1.2-0.4-2.4-1-3.1C90.4,79.7,88.5,80.5,88.3,80z M49.2,79.6
		c-0.3-1.6,1.5-4.2,2.3-4.7c1.1-0.6,1.7,0.6,2,1.3c0.2,0.5,0.8,2.4,0.8,2.8c0.2,0.2,0.8,1.4,1,1.8c0.2,0.5,0.7,1.6,0.6,2.2
		c0.3,0.4,0.4,2.2,0.2,2.7c-0.4,1-1.5,0-2.3,0.6c-0.5,0.4-0.7,1.4-1,2.1c-0.3,0.8-0.8,1.4-0.5,2.5c0.5,1.4,2.4,2.4,2.1,4
		c-0.1,0.7-0.9,1.4-1.4,1.7c-0.3,0.2-0.7,0.4-1,0.6c-0.4,0.3-0.6,0.5-1,0.7c0,0.1,0,0-0.1,0.1c-0.1,0.1-0.1,0.1-0.2,0.2
		c-2.3,2.3,0.8,3-0.5,4.8c-1.3,1.9-4,2.1-3.3,3.9c0.2,0.5,0.8,0.9,1.4,1c0.7,0.1,1.8-0.3,1.8,0.6c-0.5,0.5-1.9,0.5-2.7,0.6
		c-2.5,0.2-3.2,0-5.8,0.8c-0.7,0.2-1.8,0.8-2.6,0.6c-1.8-0.4-1.3-3.4-0.9-5c0.4-1.7,1.2-3.5,1.8-4.9l2-4.7c1-2.4,3.7-1.4,4.9-1.8
		c0.8-0.2,1.4-1.2,0.7-2c-0.5-0.6-1.3-1-1.7-1.6c-0.5-0.7-0.6-1.8-0.1-2.5c0.5-0.7,1.6-0.5,2.5-0.2c1.1,0.1,1.6-0.1,1.5-1.2
		c-0.7-1.6-1.8-1.3-2.4-2.3c-0.5-0.6-0.1-1.4,0.8-1.1c0.6,0.1,1.1,0.7,1.5,1c1.6,1,2.8-0.2,1.6-1.6C50.4,81.6,49.5,81.5,49.2,79.6
		L49.2,79.6z M118.3,72.8c0.3,0.2,0.6,0.8,0.8,1.1c1.2,1.7,1.1,2.5-0.4,4c-1.5,1.5-3.3,0.4-4.8-0.6c-0.1-0.1-0.2-0.2-0.3-0.2
		c-0.2-0.2-0.2-0.1-0.3-0.3c-0.2-0.1,0,0-0.2-0.1c-0.7-0.4-1.8-1.4-1.2-2.4l1.9-2.4c0.4-0.6,1.4-2.2,2.5-1.6
		C117,70.6,118.2,72.2,118.3,72.8L118.3,72.8z M73.1,73c-0.2,0.3-0.5,0.5-0.9,0.8c-1.4,1-1.7,1.2-3.5,1.6c-1.2,0.2-1.7,0.3-3,0.3
		s-1.8-0.2-2.4-0.9c-1.9-2.2-2.7,0.2-4.3,0.7c-1.7,0.6-3.6-1.4-3.8-2.7c-0.3-1.3,0.8-1.4,1.6-1.6c1-0.3,1.4-0.7,2.6-0.8l6.4-0.4
		c2.2,0,4.3,0,6.5-0.1c1-0.1,2.3,0,2.2,1.2c-0.1,0.4-0.4,0.9-0.6,1.1C73.7,72.4,73.4,72.8,73.1,73z M76.6,29.2
		c-0.3,0.3-1.5,0.7-1.9,0.9l-3.7,1.7c-0.4,0.2-1.4,0.9-1.7,1c-0.1,0.1,0,0.1-0.1,0.1L67,34.5c-0.4,0.3-0.7,0.6-1.1,1l-1,1
		c-0.2,0.4-0.5,0.7-0.7,1.1c-0.2,0.3-0.5,1-0.6,1.1c-0.1,0.4-0.3,0.8-0.5,1.3c-0.2,0.4-0.3,0.8-0.4,1.2c-0.1,0.7-0.4,1.8-0.3,2.6
		l-0.1,1.5c-0.5,0.2-0.6-0.3-0.6-0.7c-0.1-0.4-0.4-1.1-0.5-1.7c-0.2-0.6-0.3-1.3-0.3-2c0-0.5,0-1,0.1-1.6c0.1-0.4,0.2-0.9,0.4-1.2
		c0-0.3,0.5-1.2,0.7-1.6c0.3-0.5,0.6-1,1.1-1.2l0.2-0.3c0.6-0.6,1.1-1.2,1.8-1.8c0.4-0.3,2.2-1.6,2.5-1.7c0.5-1.1,6.1-3.6,7.4-3.9
		c0.2-0.1,1-0.3,1.3-0.4c0.5-0.2,0.8-0.3,1.2-0.5c0.9-0.3,2-0.3,2.9-0.6c3.6-1.3,4.2-0.6,6-1c0.5-0.1,0.9-0.3,1.4-0.4
		c1.2-0.2,3.7-0.4,4.9-0.4c2.2,0,4.2,0.2,6.3,0.6c1,0.1,2.3,0.1,3.2,0.3l2.4,0.3h0.7c1.3,0,2.6,0.1,3.9,0c0.6,0,2.9-0.4,3.1,0.6
		c0.6,0.5-0.3,1.5-0.5,2c-0.6,1.4,0.4,1.8,0.6,1.9l0.8,0.1c0.8,0,2-0.1,2.7,0.2c0.3,0.1,0.4,0.2,0.5,0.4c0.2,0.1,0.1,0,0.2,0.2
		c0.3,0.3,1.8,2.9,1.8,3.3c0.4,0.4,1.1,3,1.5,4.2c0.5,1.1,0.9,3.8,0.9,4.7c0.2,0.2,0.2,0.4,0.3,0.8l0.1,2.7c0.6,0.9-0.4,4.3-0.6,5.4
		c-0.1,0.9-0.2,2-0.8,2.4c-0.7,0.4-2.1-0.2-2.4-0.5c-0.3,0-1.4-0.7-1.6-0.8c-0.5-0.2-2.1-1.1-2.4-1.4c-0.3,0-1.7-0.5-1.9-1
		c-0.4-0.1-0.8-1.4-0.9-1.8c-0.2-0.4-0.4-1.2-0.7-1.8c-0.5-0.8-1.1-1.2-1.2-1.4c-0.3-0.1-0.5-0.3-0.9-0.3c-0.5-0.1-0.7,0-1.1,0.1
		l-0.5,0.5c-0.3,1.6,0.3,1.4,0.4,2.4c0.3,0.3,0.5,1,0.4,1.5c-0.1,0.5-0.5,0.9-0.7,1.2c-1,0.9-1,0.6-1.7,2c-0.3,3.2,3.5,0.9,5.4,1.4
		c0.8,0.1,1.3,0.4,1.8,0.7c0.5,0.3,1.2,0.6,1.6,0.8l1.9,1.1c0.3,0.1,1.6,0.6,1.8,0.7c0.6,0.1,1,0.4,1.5,0.6c0.3,0.1,1.3,0.5,1.5,0.6
		l2.2,0.7c0.9,0.1,2,0.1,2,1.1c-0.1,1.2-1.8,2.5-3,3c-0.7,0.3-1.5,0.7-2.2,0.9c-0.3,0.2-2.3,0.8-2.8,0.8c-0.6,0.1-3.3,0.2-3.6-0.1
		c-0.7,0.1-2.3-0.6-2.6-1c-0.5-0.1-1.6-1.1-2.2-1.4c-0.1,0-0.1,0-0.2-0.1c-0.1-0.1,0.1,0.1-0.1-0.1c0,0,0,0-0.1,0c0,0,0,0-0.1,0
		c-0.5,0-1-0.1-1.6,0c-0.5,0.1-0.9,0.3-1.3,0.5c-0.5,0.3-1.7,1.4-2.2,1.5l-0.3,0.3c-0.1,0.1-0.2,0.1-0.4,0.2
		c-1.9,1.1-5.2,1.7-7.4,1.6c-2.3-0.1-4.2-0.4-6.2-1.4c-0.5-0.2-1.3-0.6-1.6-1c-0.1,0-0.1,0-0.3-0.2C86,64.1,86,64,85.9,63.9
		c-1.3-2,1.3-1.7,2.8-2.1c0.6-0.1,1.2-0.4,1.7-0.6c0.2-0.2,0.8-0.4,1.1-0.6c0.4-0.3,0.7-0.5,1-0.8c0.6-0.5,1.5-1.3,2.2-1.6
		c0.2-0.3,1.4-0.9,2-1.1c1.8-0.6,6.2-0.3,6-3.5c-0.2-0.5-0.3-0.7-0.7-1.1c-1.1-0.9-3.6-0.5-4.8-0.3c-2.8,0.5-3.9,2.5-4.7,2.7
		c-0.2,0.3-1.7,1.4-2.1,1.6c-0.4,0.3-1.9,1.3-2.3,1.3c-0.5,0.4-2.4,0.7-3,0.7c-2.5,0.2-5-1.3-5.9,0.3c-0.6,1.2,0.3,2.1,0.3,2.8
		l0.9,1.5c0.1,0.2,0.1,0.1,0.1,0.3c0.3,0.2,3,3.4,3.7,4c0.4,0.4,1.2,0.7,1.5,1c1,0.3,1.7,0.7,3.3,1.1c3.9,1,7.6,1.3,11.5,0.2
		c1.4-0.4,2.1-0.7,3.8-0.5c1.9,0.2,2.1,0.2,3.4-0.7c0.4-0.3,0.9-0.6,1.5-0.7c0.6,0,1.5,0.2,1.9,0.4c1.2,0.7-0.5,2.3-1.1,2.5
		c-0.2,0.3-0.8,0.8-1.1,1c-0.5,0.3-0.9,0.5-1.4,0.7c-1.3,0.7-1.1,0.7-2.8,1.4c-0.9,0.4-2,0.9-3,1.3c-1,0.3-3,0.2-4.1,0.2
		c-3.7-0.1-6.9-1-9.9-2.6c-0.7-0.3-2.3-1.3-2.6-1.8c-0.4-0.1-1.1-0.7-1.4-1.1c-0.2-0.2-0.4-0.4-0.6-0.6l-0.6-0.7
		c-0.2-0.1-0.1,0-0.3-0.2c-0.1-0.1-0.2-0.2-0.3-0.3c-1.1-1.2-0.5-0.5-1.5-1.9c-0.6-0.9-1.4-1.6-2-2.6c-0.2,0-0.4-0.3-0.5-0.5
		c-0.2-0.2-0.3-0.4-0.5-0.6c-0.3-0.3-0.7-0.9-0.9-1.3c-0.3-0.4-0.9-1.4-1.1-1.9c-0.3-0.8-0.3-1.8-0.4-2.7c-0.3-0.7-0.4-1.1-1.1-1.3
		c-1.5-0.4-2.5,0.2-5-1.2c-0.3-0.1-0.5-0.3-0.7-0.5c-0.4-0.1-0.9-0.9-1.2-1.3c-0.3-0.5-0.5-1.3-0.6-2c-0.1-0.6-0.4-1.9,0.1-2.4
		c0-0.5,0.8-1,1.3-1.2c0.3-0.1,0.6-0.2,0.9-0.4c0.4-0.2,0.4-0.4,0.7-0.5c0-0.2,0,0,0.1-0.2c0.5-1.1,0.2-1.1-0.2-2.1
		c-0.7-0.6-0.5-2.7-0.1-3.5c0.4-1.3,2.7-4.1,3.5-4.5l1.2-0.8c0.4-0.3,0.7-0.5,1.2-0.8c0.4-0.3,0.8-0.5,1.1-0.8
		c0.4-0.3,0.7-0.7,1.2-0.8c0.3-0.4,2.9-1.6,3.6-1.9c1.1-0.5,2.9-1,4.2-1.3c1.4-0.4,4.1-1.5,3.7,0.1c-0.3,1.1-1,1-1.5,3.9
		c0,0.8,0.1,1.4,0.7,1.6c0.7,0.2,1.1-0.3,1.4-0.5l1-1.8c1.8-2.5,5.3,0,5-3.4c-0.3-0.5-0.2-0.7-0.6-1c-0.8-0.9-2.2-0.8-3.2-1.7
		c-0.6-0.6-0.9-1.1-2.2-1.1c-0.9,0-1.8,0.3-2.7,0.5c-2.1,0.3-3.5,0.6-5.4,1.3c-1,0.3-1.6,0.4-2.5,0.8C78.4,28.6,77,29.2,76.6,29.2
		L76.6,29.2z M69,23.2c1.3-0.4,1.7,1.8-0.9,2.4C66.3,26,67.4,23.7,69,23.2z M75.6,18.5c0.1-0.8,1.2-1.1,1.9-1.1
		c-0.1,0.3-0.5,0.5-0.8,0.7C76.4,18.4,76.2,18.5,75.6,18.5z M100.6,21.8c-0.4,0.1-2.8-0.2-3.1-0.4c-0.6,0.1-1.4-0.2-2.1-0.3
		c-0.7-0.1-1.4-0.1-2-0.2c-1.5-0.1-3,0-4.4,0.1c-2.7,0.1-2.1,0.2-4.1,0.4c-0.8,0.1-1.3-0.1-1.5-0.7c-0.2-0.5-0.2-1.6-0.1-2.1
		c-0.3-0.4-0.3-1.1-0.5-1.6c-0.4-0.7-0.8-0.7-0.8-1.1c-0.4-0.2-0.3-0.5,0-0.9c1.2-1.4,4.1-1.8,5.8-2.2c0.7-0.1,1.2-0.3,1.8-0.5
		c1.1-0.2,5.3-0.4,6.4-0.4c1.3,0,3.3-0.4,3.8,0.7c0.2,0.6,0,1.3,0.2,2.1c0.2,0.7,2.1,3.8,2.4,4.3c0.4,0.6,0.6,0.7,1.1,1.2
		C106.3,23.2,100.8,21.9,100.6,21.8z M59.5,19.5c0.2,0.2,1.7,3.7,1.8,4.3c0.3,1,0.3,1.6,0.4,2.7c0.1,1,0.2,1.7-0.4,2.5
		c-0.3-0.3-0.3-0.5-0.5-1s-0.3-0.5-0.5-0.9c-0.2-0.4-0.2-0.7-0.4-1.1c-0.6-1.1-1.9-3.7-2.2-4.9c-0.6-1.4-1.1-6.1-1.1-7.9
		C56.9,13.5,59.3,18.8,59.5,19.5z M63.8,14.3c0.5,0.7,0.9,2.1,1.3,3.1c0.3,0.9,1.1,2.4,0.4,3.3c-0.4,0.5-1,0.2-1.3-0.2
		c-0.3-0.4-0.5-0.9-0.7-1.4c-0.2-0.6-1.2-2.6-1.2-3.1c-0.3-0.4-0.9-2.2-1.1-2.8c-1.1-3.9,0.3-3.8,1-2.9c0.5,0.6,0.7,1.8,1.1,2.7
		C63.4,13.4,63.7,13.9,63.8,14.3z M55.3,10.9l0.4,4.4c0.1,0.1,0.1,0.3,0.1,0.5l0.5,2.7c0.1,0.5,0.2,0.3,0.2,1.1l0.6,2.2
		c0.1,0.3,0.2,0.9,0.3,1.2c0.1,0.8,0.2,0.3,0.4,1.1c0.1,0.3,0.3,1.2,0.5,1.6c0.1,0.3,0.2,0.3,0.3,0.7c0.3,1.2,0.4,0.8,0.6,1.6
		c0.2,0.6,0.5,1,0.9,2.1l-0.7,0.7c-0.7,0.7-1.2,1.5-1.7,2.4c-1,1.5-1,1.9-1.5,3.9c-0.1,0.5-0.1,1.3-0.3,1.7
		c-1.1,0.1-3.5,0.3-4.6,0.1c-0.5,0.6-1.2-0.3-1.4-1.2c-0.6-0.3-0.3-0.1-0.7-0.6L47,35.6c-0.4-0.1-0.5-0.2-0.9-0.3
		c-0.2,0-0.2,0-0.5-0.1c-0.2,0-0.4,0.1-0.3-0.1c-0.5-0.1-1-0.1-1.4,0.1c-0.6-0.8-0.4-0.6-0.9-1.4c-0.1-0.2-0.1-0.1-0.2-0.4
		c-0.3-0.8-0.6-0.6-0.5-1l-0.2-0.3c-0.3-0.6-0.3-0.4-0.5-0.8c-0.3-0.6,0.2,0.1-0.6-1.1c-0.3-0.4-0.2-0.7-0.5-1.2
		c-0.3-0.4-0.4-0.6-0.4-1.1c-0.3-0.2-0.2,0-0.4-0.4c-0.1-0.1-0.2-0.3-0.2-0.5c-0.3-1.1-0.3-0.4-0.4-1l-0.3-0.6
		c-0.2-0.7-0.4-1-0.6-1.7c-0.1-0.2,0-0.4-0.1-0.6c-0.1-0.3-0.1-0.1-0.2-0.4c-0.3-0.6-0.4-1.7-0.5-2.3c-0.1-0.2-0.1-0.2-0.2-0.5
		l-0.1-0.5v-0.1c0,0,0,0,0-0.1c0,0,0,0,0-0.1L37,18.8c-0.2-1.4-0.6-2.8-0.6-4.3c-0.1-0.2-0.1-1.1-0.2-1.6c-0.1-0.5,0-1-0.1-1.6
		c-0.1-0.9-0.2-1.7,0.5-2c1.4-0.7,1-0.5,2-1.3c0.3-0.2,0.9-1.2,1-1.5c0.3-1.1-0.5-1.3,1.8-1.2c0.3,0,0.8,0.1,1.2,0.1h3.8
		c0.8-0.1,1.7,0,2.5-0.1c0.7-0.1,1.6,0,2.3,0c0.3-0.2,0.8-0.1,1,0.1c0.2,0.2,0.5,0.6,0.6,0.9c0.3,0.1,0.2,0.1,0.4,0.3
		c0.3,0.2,0.8,0.6,1,0.8l1.3,0.2C55.6,8.5,55.2,10.1,55.3,10.9z M49.4,4.2c-1.3,0-2.7,0-4,0c-0.6,0-1.3-0.1-2,0
		c-0.6,0-1.4,0.1-2-0.1c-0.2,0.2-0.3,0.1-0.6,0.1c-0.4,0-0.5,0-0.9,0c-0.8-0.1-0.4-0.5-1.3-0.1c-0.5,0.4,0,1.3-0.4,2.2
		c-0.2,0.3-0.1,0.3-0.3,0.5c-0.2,0.1-0.1,0-0.3,0.3c-0.2-0.1-0.2,0-0.3,0.1c-0.3,0.3-0.2,0.1-0.7,0.4c-1.6,1-1.5,0-2.1,1.3V13
		l0.5,3.9c0.1,0.9,0.8,4.5,1,5.1c0.1,0.3,0.1,0.2,0.2,0.6c0.1,0.6,0.7,2.1,1,2.9c0.1,0.4,0.3,0.7,0.5,1.1l0.9,1.9
		c0.3,1,0.4,0.6,0.6,1.3c0.4,1.2,0.4,0.7,0.6,1.3c0.2,0.4,0,0.3,0.3,0.6c0.6,0.8,0.4,0.9,0.6,1.3c0.2,0.2,0.2,0.2,0.4,0.5
		c0.1,0.2,0.1,0.5,0.2,0.7l0.6,1.3c0.1,0.4-0.1,0.2,0.1,0.6c0.2,0.3,0.1,0.3,0.2,0.7l0,0l0,0l0.1,0.1c0.1,0.1,0.1,0.1,0.1,0.2
		c0.4,0.2,1.5-0.7,4.4,0.6c0.2,0.1,1.4,1.1,1.5,1.2l0.5,0.9c0.2,0.4,0.2,0.6,0.4,0.9l3.2-0.2c0.3-0.1,0.4,0,0.8-0.1
		c0.4,0,0.5-0.1,0.8-0.1c0.3,0,0.6,0,0.8,0c0.3,0,0.3-0.1,0.7-0.1v1.1c-0.8,0.1-1.6-0.1-2.4,0c-0.7,0-1.4,0.1-2.2,0.1s-1.5,0-2.2,0
		c-0.5,0-0.6,0.1-1,0c-0.4,0-1,0.4-1.7-0.4c-0.5-0.6-0.3-0.2-0.7-0.5c-0.3-0.2-0.2-0.4-0.6-0.6c-0.5-0.3-2.7-2.4-2.8-3
		c-0.2-0.1-0.1,0-0.3-0.2c-0.1-0.1-0.1-0.2-0.2-0.2l-0.7-1c-0.1-0.2-0.2-0.4-0.3-0.5c-0.2-0.2-0.2-0.1-0.4-0.5
		c-0.1-0.2-0.2-0.4-0.3-0.6c-0.1-0.2-0.2-0.3-0.4-0.5c-0.1-0.2-0.1-0.3-0.2-0.5c-0.2-0.5-0.6-0.5-0.7-1c-0.1-0.7-0.3-0.6-0.6-1.1
		c-0.3-0.5,0.1-0.2-0.4-0.9c-0.1-0.1-0.1-0.1-0.2-0.3c-0.5-0.9-0.1-0.4-0.4-1.2c-0.3-0.3-0.4-0.7-0.5-1.2L35.8,26
		c-0.2-0.4-0.3-0.8-0.4-1.3c-0.1-0.2-0.2-0.4-0.2-0.6c-0.1-0.3,0-0.4-0.1-0.6l-0.7-3.7c-0.1-0.3,0-0.5-0.1-0.8
		c-0.1-0.4-0.2-0.9-0.3-1.3c0-0.9-0.3-1.8-0.3-2.7c0-1,0-2.1,0-3.1c0-1.6,0.1-1.6,0.2-2.2c0-1.6,0.3-0.5,0.3-1.9
		c0-0.8,0.2-1.3,0.4-1.9c0.1-0.3,0.1-0.9,0.5-1.8c0.4-0.8,0.3-1.5,1.5-1.4l5.8-0.2h7.7c1.4,0,8.2-0.2,9,0.1c0,0.3-1.2,1.9-1.4,2.2
		c-1,1.3-1,1.6-1.4,2.2c-0.2-0.3,0-0.3-0.4-0.5l-1.3-0.5c-0.4-0.1-0.3,0.1-0.6-0.3c-0.3-0.4-0.6-0.4-0.9-0.8
		c-0.2-0.3-0.3-0.9-0.5-1.2c-0.1-0.1-0.4-0.2-0.7-0.3v0.1c0,0,0,0,0,0.1l-0.5,0.7C51,4.3,49.6,4.3,49.4,4.2L49.4,4.2z M33.5,5.6
		c0,0.3-0.3,1.7-0.5,1.8c0,0.5-0.2,0.6-0.2,1.1c-0.4,2.4-0.6,5-0.4,7.5c0.2,0.2,0.3,2.6,0.3,3.1c0.2,0.2,0,0,0.1,0.3l0.4,2.4
		c0.2,0.2,0.3,1.1,0.4,1.4c0.1,0.3,0.1,0.4,0.2,0.7c0.1,0.3,0.2,0.4,0.2,0.7l0.4,1.3c0.1,0.4,0.3,0.3,0.4,1.1
		c0.2,0.4,0.8,1.9,1.1,2.5c0.2,0.5,0.2,0.4,0.3,0.8c0.2,0.2,0.2,0.3,0.3,0.6c0.1,0.3,0.2,0.4,0.3,0.6c0.2,0.5,0.4,0.7,0.5,1.3
		c0.3,0.1,0.1,0.1,0.3,0.5c0.1,0.2,0.2,0.3,0.3,0.6c0.2,0.5,0.5,0.7,0.6,1.1c0.3,0.2,0.2,0.4,0.4,0.7c0.3,0.3,0.2,0.3,0.4,0.7
		c0.3,0.5,0.5,0.3,0.9,1.4c0.1,0,0.1-0.1,0.4,0.3c0.6,1,0.6,0.6,1,1.4c0.2,0,0.1,0,0.3,0.2c0.4,0.5,1.2,1.2,1.6,1.6
		c0.1,0.1,0.2,0.2,0.2,0.3c0.5,0.1,0.3,0.1,0.5,0.4c0.2,0.2,0.4,0.2,0.6,0.3c0.2,0.1,0.3,0.3,0.5,0.4s0.4,0.1,0.6,0.3
		c0.3,0.2,0.3,0.3,0.6,0.4c0.4,0.1,0.3-0.1,0.8-0.1c0.3,0,0.6,0.1,0.9,0.1l6.1-0.3c0.6,0,1.2,0,1.7-0.1c0.1,0.5,0,1,0.1,1.5
		c0.1,0.4,0.2,0.9,0.2,1.3c0.1,0.1,1,2.2,1,2.4c0.1,0.1,0-0.1,0.2,0.2l0.3,0.6c0.4,0.9,0.5,1.1,1.1,1.8l0.1,0.1c0.1,0.2,0,0,0.1,0.1
		c0.4,0.2,0.4,0.3,0.7,0.6c0.2,0.2,0.4,0.4,0.6,0.6c0.3,0.3,1.1,0.7,1.3,0.9c0.7,0.2,1.3,0.7,1.7,1.1c0.3,0.2,0.4,0.4,0.7,0.7
		s0.5,0.4,0.5,0.7c0.3,0.2,0.6,0.6,0.8,0.9c0.2,0.3,0.5,0.6,0.7,0.9c0.5,0.5,1.1,0.9,1.9,1.3c0.5,0.2,0.9,0.4,1.4,0.5
		c0.5,0.2,1.1,0.2,1.6,0.5c0.6,0.3,0.7,0.5,1,0.9c0.2,0.3,0.7,0.9,0.8,1.2c0.2,0.2,0.2,0.3,0.4,0.6l0.7,1.2c0.1,0.1,0.1,0.2,0.2,0.3
		c0.2,0.2,0.1,0.1,0.1,0.3c0.8,0.5,1.2,2.4-0.2,2.3c-0.4,0.3-5.2,0.7-6,0.7c-2.3,0-4.2,0-6.4,0.4c-1.1,0.2-2,0.2-3.1,0.3
		c-0.8,0.1-4.7,1-5.4,1.3c-0.4,0.2-0.8,0.4-1.1,0.6c-0.3,0.2-0.7,0.6-0.9,0.7l-2.2,2.7c-0.1,0.1-0.1,0.1-0.2,0.1
		c-0.1,0.4-1,1.3-1.3,1.8c-0.2,0.3-0.4,0.6-0.5,0.9c-0.1,0.3-0.3,0.9-0.4,1c-0.1,0.6-0.3,1.1-0.4,1.8c-0.1,0.7-0.1,1.1-0.3,1.7
		c-0.8,1.6-2.1,1-2,3.7c0.2,4.7-2.4,4.6-3.7,7.5c-0.6,1.3-0.2,2.1-1.2,4.4c-0.4,0.9-1.3,2.5-1.8,3.7c-0.5,1.1-1.3,1.7-2.1,3.6
		c-0.6,1.5-1.5,2.9-1.8,3.8c-0.9,2.4-1.2,4.4-1.6,6.9c-0.1,0.8-0.5,1.4-0.8,2.1c-0.6,1.4-1.1,2.6-1.7,4c-0.8,1.9-0.8,2.6-0.8,4.8
		c0,3.4-0.2,7.5,0.7,10.5c0.3,1,1.3,3,1.8,3.8c2,3,3.1,4.1,7.5,3.9c1.3-0.1,2.7-0.2,4-0.3c0.9-0.1,3.5-0.5,4.1,0
		c0.8,0.7,0.1,2.6,0,3.6c-0.2,1.2-0.3,3-0.3,4.2h50.1c0.1-1.2,0.6-2.9,0.5-4c0.5-1.7,0.4-3.2,0.4-5c0-1.6-0.3-3.7,0.7-4.7
		c0.9-1,2.7-0.9,3.5-1.8c1.4-1.4,1.3-1.5,3.9-1.4c2.4,0.1,4.1-0.5,3.7,1.6c-0.1,0.8-0.3,1.4-0.4,2.3c-0.1,0.9-0.1,1.7-0.2,2.6
		c-0.1,0.8-0.1,1.7-0.2,2.4c-0.1,0.8-0.4,1.5-0.5,2.3s-0.1,4.8-0.3,5.1v0.6h20.4c0.1-1.3-0.4-3.7-0.2-4.8c0.3-1.3,2.1-1.9,3.3-1.1
		c0.8,0.5,1.5,1.9,2.3,2.8c0.4,0.5,0.7,0.9,1.1,1.5c0.3,0.5,0.7,1.2,0.9,1.6h18.4c0.3-0.4,1.1-0.9,1.6-1.3c0.6-0.4,1.2-0.7,2-0.9
		c1.8-0.3,3.4,0.2,5.5-0.2c0-0.1,0.8-0.5,1-0.6c0.4-0.3,0.7-0.5,1.1-0.7c0-0.2,0.9-1,1.1-1.2c0.4-0.4,0.7-1,1.2-1.2
		c0.3-0.7,1.6-0.9,2.6-0.6l0.8,0.3c0,0,0,0,0.1,0c0.1,0,4.5,1,4.9,1.3l1.7,0.4c0.7,0,1.9,0.3,2.6,0.4c0.5,0.1,0.9,0.1,1.4,0.2
		c0.5,0,1,0,1.5,0.1c0.8-0.5,3.2,0.3,5.9-2.3c1.9-1.8,2.1-3.4,1.8-6.5c-0.1-0.5-0.2-0.9-0.3-1.3c-0.1-0.5-0.4-0.9-0.5-1.3
		c-0.3-0.2-0.5-0.7-0.7-0.9c-0.3-0.2-0.6-0.5-0.9-0.8c-0.4-0.3-1.8-1.2-2.1-1.5c-0.3,0-1.7-0.6-2-0.7c-1-0.6-1.6-2.8,1.6-1.8
		c0.5,0.2,1.8,0.6,2,0.7c0.9,0.2,4,0.8,4.6,1.2c0.5,0.1,1.1,0.2,1.6,0.4c0.3,0.1,1,0.4,1.2,0.6c0.5,0.3,1.1,0.9,1.4,1.3
		c0.2,0.3,0.3,0.4,0.6,0.7c0.2,0.2,0.6,0.4,0.7,0.6c0.3,0.1,0.6,0.3,0.9,0.4c0.3,0.1,0.7,0.1,0.9,0.2c0.7,0.1,1.7,0.3,2,0.6
		c0.3,0.1,0.6,0.2,0.9,0.3c0.4,0.1,0.6,0.1,1,0.2c1.9,0.1,2.8-0.3,3.6-1.3c0.7-0.9,1.3-2.5,0.7-3.9c-0.3-0.9-1.1-1.3-1.5-1.9
		c-0.3,0-0.1,0-0.4-0.2c-0.1-0.1-0.3-0.2-0.4-0.2c-0.3-0.1-0.7-0.3-0.9-0.5c-0.5,0-1-0.4-1.6-0.6c-0.6-0.1-1.6,0-2.1-0.3
		c-0.3,0.1-3.2-0.1-3.3-0.2c-0.5,0-1.3-0.1-1.7-0.5l-1.6-0.6c-0.5,0-2.5-0.7-2.8-0.9c-0.4,0-1.9-0.4-2.2-0.7c-0.4,0-1-0.3-1.3-0.4
		c-0.4-0.2-1.1-0.2-1.4-0.4c-0.3,0.1-0.6,0-1,0c-0.1,0-0.3-0.1-0.4-0.1c-0.2-0.1-0.2-0.1-0.3-0.3c-0.4-0.2-0.5-0.8-0.4-1.2l0.8-4.4
		c0.3-1.6,0.2-2.7,0.7-4.6c0.1-0.3,0.3-1.2,0.4-1.4c-0.2-0.8,0.4-1.4-0.2-2.5c-0.2-0.4-0.4-0.5-0.7-0.8s-0.6-0.4-0.8-0.7
		c-0.5-0.1-3.1-1.7-6.3-0.2c-0.3,0.2-0.4,0.3-0.7,0.3c-0.2,0.3-0.7,0.6-0.9,0.8c-0.2,0.2-0.3,0.3-0.4,0.5c-0.2,0.2-0.2,0.3-0.5,0.3
		c-0.4,0.6-1.6,0.6-2.3,0.4c-0.4-0.1-1.8-0.6-2-0.8c-0.5-0.1-1-0.4-1.6-0.6c-0.5-0.2-1.1-0.3-1.6-0.5l-2.9-0.5l-4.2-0.9
		c-0.8,0-1.2,0.1-1.8,0.5c-0.7,0.4-0.9,0.9-1.2,1l-0.2,0.2c-1.2,0.8-4.4-0.9-5.3-1.2c-3.9-1.8-5.3-0.9-4.2-5.2
		c0.1-0.5,0.4-2.7,0.5-2.9c-0.1-0.5,0.1-2.6,0.1-3.3c0-1.2,0-2.3-0.1-3.4c-0.1-1,0-1.8-0.4-2.7c-0.4-1-0.6-1.4-0.7-2.5
		c-0.3-1.9-1.2-3.2-1.7-5v-0.1c-0.3-0.2-1-2.5-1.4-3.3c-0.7-1.6-0.6-1.8-1.7-2.6c-0.3-0.2,0,0-0.1-0.1l-2.3-0.9l-2.1-0.6l-2-0.4
		l-2.2-0.4l-2.1-0.5l-3.2-0.8l-3.5-1c-0.5-0.1-0.8-0.3-1.3-0.4c-0.4-0.1-0.8-0.2-1.3-0.3c-0.9-0.1-1.5-0.2-2.1-0.7
		c-1.6-1.5,0.8-2.3,1.7-2.9c0.5-0.3,1.3-1.1,1.7-1.2c0.2-0.3,0.4-0.4,0.7-0.7c1.1-1.1,0.9-1,1.8-2.5c0.8-1.3,4.2-6.2,3.1-7.8
		c-1.1-1.6-2.9,0.4-4,0.6c-0.4,0.3-1.7,0.6-2.1,0.1c-0.6-0.7,0.5-3.6,0.7-4.5c0.2-0.8,0.2-1.6,0.1-2.4v-4.5l-0.5-4l-0.7-2.9
		c-0.2-0.4-0.5-2-0.7-2.5c-0.3-0.9-0.7-1.6-0.9-2.5c-0.1-0.2-0.3-0.7-0.4-1s-0.3-0.6-0.4-0.9c-0.2-0.5-0.4-0.9-0.7-1.4
		c-0.6-1.1-2-3.2-0.7-4.4c0.4-0.4,1.8-1.1,2.5-1.5l2.5-1.5c0.1-0.3,0.8-0.8,1.1-1c0.3-0.4,0.5-0.6,0.9-1.1c0.8-2.1-0.1-3.6-2.4-3.4
		l-0.8,0.2c-0.2,0.2-0.7,0.3-1.1,0.5c-0.3,0.2-0.7,0.3-1.1,0.5c-0.6,0.2-1.2,0.5-1.8,0.7c-0.6,0.3-1.3,0.8-1.7,1
		c-0.1,0.3-1.9,1.5-2.6,1c-0.8,0-1.2-1.1-1.6-1.8c-0.6-1.1-3.1-5.8-3.1-6.7c-0.2-0.2-0.9-1.9-0.9-2.2c-0.1-0.4-0.2-1-0.3-1.4
		c-0.1-0.5-0.3-0.9-0.3-1.4c-0.3-0.3-0.3-1.5-0.4-2c-0.2-0.7-0.3-1.3-0.4-2l-0.3-1.1c-0.1-0.1-0.2,0.1,0-0.2
		c1.5-0.1,3.1,0.1,4.5-0.2c0.1,0,0.4-0.1,0.6-0.2c0.3-0.1,0.4,0,0.7-0.1c0.1,0,1.6-0.3,1.8-0.3l0.8-0.1c0.1,0,0.1,0.1,0.1-0.1
		c0,0,0,0,0.1,0h-21c-0.1,1,0.2,1.6,0.6,2.4c0.2,0.6,0.6,1.6,0.7,2.3c0.1,0.1,0.4,1,0.5,1.2c0.1,0.3,0.5,1.1,0.1,1.4
		c-0.1,0.5-0.6,0.6-1.2,0.7c-0.6,0.1-1.2,0.1-1.7,0.1c-1.2,0.3-2.6,0.6-3.9,0.8C89,9.8,87.5,9.8,86.2,10c-1.5,0.2-3,1-4,0.1
		c-0.6-0.5-1.5-2.7-1.6-3c-0.3-0.2-0.8-1.2-1-1.5c-0.2-0.3-0.8-1.2-0.8-1.5l-0.3-0.5c-0.9-2.4-1.2-2.2-1.5-2.8H61.3
		c-0.2,0.3-0.9,0.7-1.1,1c-0.7-0.2-1-0.7-1.1-0.7l-6-0.2c-2,0-4.1,0-6.1,0c-1.8,0-10.9-0.2-11.9,0.2C35,1.4,35,1.4,34.9,1.8
		l-0.6,1.6c-0.4,0.8,0-0.2-0.5,1.1C33.8,4.8,33.7,5.3,33.5,5.6L33.5,5.6z"/>
</g>
</svg>
