<?xml version="1.0" encoding="utf-8"?>
<!-- Generator: Adobe Illustrator 24.0.2, SVG Export Plug-In . SVG Version: 6.00 Build 0)  -->
<svg version="1.1" id="Слой_1" xmlns="http://www.w3.org/2000/svg" xmlns:xlink="http://www.w3.org/1999/xlink" x="0px" y="0px"
	 viewBox="0 0 238.1 150.2" style="enable-background:new 0 0 238.1 150.2;" xml:space="preserve">
<g>
	<path d="M23.2,120.6c6.6-4.3,13.3-8.6,20.5-11.9c6.3-2.9,12.7-5.2,19.6-5.8c1.4-0.1,2.8-0.2,4.2-0.1c1,0.1,1.7-0.3,2.3-1.1
		c2.3-2.8,5.3-4.5,8.8-5.2c0.2,0,0.4-0.1,0.6-0.1c2-0.2,2.1-0.2,2.4-2.3c0.4-3.1,0.6-6.2,0.9-9.3c0.1-0.8-0.2-1.2-1.1-1.3
		c-1.9-0.2-3.3-1.4-4.3-2.8c-1.5-2-3.2-3.5-5.4-4.8c-3.3-2-6-4.5-7.8-7.9c-2.5-4.9-2-9.8,0-14.6c0.6-1.4,1.2-2.7,2-4
		c0.4-0.7,0.3-1-0.2-1.6c-2.5-2.5-5-5-7.5-7.6c-0.3-0.3-0.5-0.7-1-1.3c0.6-0.1,1-0.2,1.3-0.2c2.6-0.1,5.2-0.2,7.8-0.3
		c1,0,1.3-0.3,1.2-1.3c-0.3-3.4-0.5-6.9-0.8-10.5c3.3,2.7,6,5.9,8.8,9.2c1.2-1.4,2.2-2.8,3.4-4.1c2.6-3,5.8-5.3,9.8-6.1
		c2.4-0.5,4.8-0.5,7.2,0.3c2.7,0.9,5.5,1.7,8.1,2.7c1.5,0.6,2.9,1.5,4.6,2.4c-0.3-2.2-0.6-4.4-0.8-6.4c-1.9,0-3.6,0-5.3,0
		c-1.5,0-2-0.5-2-2c0-3.5,0-7,0.1-10.5c0-0.3,0-0.6,0-0.8c0-1.8,0-1.8-2.1-1.6c0,0.4,0,0.8,0,1.2c0,2.6,0,5.3,0,7.9
		c0,3.6-2.2,5.9-5.8,6.1c-1.9,0.1-3.8,0-5.4-1.2C86.4,23,85.8,22,84.9,21c0,0.5,0,1.1,0,1.6c0.1,1.5-0.4,2-1.9,2c-3,0-6,0-9,0
		c-2.4,0-2.4,0-3-2.4c-2.7,3-6,3.4-9.6,2c-1.4-0.5-2.4-1.7-2.9-3.1c-0.3-1.1-0.4-2.4-0.5-3.6c-0.1-1,0-2.1,1.5-2.2
		c0.1,0,0.3-0.8,0.2-1c-2.2-2.3-2-5.1-1.3-7.8c0.3-1.3,1.2-2.3,2.5-2.8c3.2-1.3,6.3-1.1,9.1,1c0.4,0.3,0.7,1,1.2,1.8
		c0.1-0.6,0.1-0.9,0.1-1.2c0-1.6,0.3-1.9,2-1.9c1.6,0,3.3,0.2,4.9,0.2c1.6,0,3.1-0.2,4.7-0.2c0.7,0,1.5,0.3,2.1,0.4
		c0.7-0.1,1.5-0.4,2.2-0.4c3,0,6,0,9.1,0c4.3,0,8.5,0,12.8,0c1.6,0,1.9,0.3,2,1.9c0,0.9-0.1,1.8,0,2.7c0.1,1.1-0.6,1.5-1.5,1.7
		c-1.2,0.1-1.8,1.3-1,2.2c2,2.2,4.1,4.2,6.1,6.3c0.1-0.1,0.3-0.1,0.4-0.2c0-1.5,0-3,0-4.5c0-2.8,0-5.5,0-8.2c0-1.4,0.4-1.8,1.8-1.8
		c3.3,0,6.7,0,10,0c0.6,0,1.3,0.3,2,0.6c0.2-0.1,0.6-0.5,0.9-0.5c2.9,0.1,5.7,0.1,8.5,0.4c1.9,0.3,3.1,1.8,3.2,3.8
		c0.1,1.8,0.1,3.6,0,5.4c-0.1,2.2-1.7,3.6-4.3,3.9c-0.9,0.1-1.2,0.4-1.2,1.3c0.1,1.5,0,3.1,0,4.6c0,1.2-0.5,1.7-1.7,1.7
		c-1.6,0-3.1,0-5,0c0.4,0.7,0.6,1.2,0.8,1.7c2.3,5.5,4.4,11,4,17.1c-0.1,2.1-0.8,4.2-1.4,6.3c-0.5,1.8-2.1,2.8-3.9,2.9
		c-1.8,0.2-3.7,0-5.5-0.1c-0.4,0-0.8,0-1.3-0.1c0.1,1.1,0.1,2.1,0.3,3c0,0.3,0.3,0.6,0.6,0.7c2.1,0.9,3,2.5,2.8,4.8
		c-0.1,1,0.2,1.8,0.9,2.6c2.6,2.7,3.4,6.8,0.6,10.4c-0.8,1-1.5,2.1-2.4,3.2c0.8,0.4,1.6,0.8,2.4,1.1c0.5,0.2,1,0.4,1.4,0.8
		c2.3,2,2.3,3.6-0.5,5.8c-0.9,0.7-0.9,1.2-0.5,2c1.2,3.1,3,5.8,5.3,8c1.2,1.2,1.4,2.6,1.1,4.1c-0.3,1.4-1.6,2-2.9,2.3
		c-3.4,0.8-6.6,0-9.9-0.8c-1.6-0.4-3.2-0.9-4.8-1.3c-0.4-0.1-0.8,0.2-1.2,0.3c-0.6,0.1-1.3,0.4-1.9,0.3c-0.8-0.1-1.7-0.4-2.4-0.7
		c-1.3,1.9-1.4,3.9-0.2,5.7c1.2,1.7,1.8,3.4,0.4,5.3c-0.2,0.2,0,0.9,0.2,1.3c1.5,2.3,3.8,3.8,6.3,4.6c3,0.9,6.2,1.4,9.3,2.1
		c1.8,0.4,3.5-0.2,5-1.2c3.5-2.3,7-4.7,10.5-7.1c3.4-2.3,6.7-4.8,10.2-6.9c2-1.2,4.3-1.9,6.7-1.9c1,0,1.1-0.3,1-1.2
		c-0.6-3.7-0.3-7.3,1.5-10.6c1-1.8,2.5-3.2,4-5.1c-0.7-0.7-1.6-1.7-2.6-2.5c-3-2.4-6.6-3.4-10.3-3.8c-1.6-0.2-3.2-0.2-4.8-0.3
		c-0.3,0-0.9-0.3-1-0.5c-0.1-0.3,0.2-0.8,0.4-1c1.4-1.3,2.9-2.4,4.2-3.8c1.1-1.2,2-2.7,2.9-4.2c1.4-2.4,2.7-4.8,5-6.5
		c0.9-0.7,1-1.3,0.5-2.2c-0.6-1.2-1.1-2.5-1.7-3.7c-0.5-1.1-0.1-1.8,0.9-2.2c1.8-0.6,3.6-1.1,5.4-1.7c0.3-0.1,0.6-0.1,0.9-0.1
		c0.1-1,0.1-1.9,0.1-3c1.4,0.2,2.6,0.4,3.8,0.6c4.5,0.7,8.9,0.6,13.3-0.7c2.3-0.7,4.6,0.1,6.8,0.8c0.7,0.2,1.5,0.5,2.2,0.8
		c1.2,0.6,2.3,0.5,3.4-0.3c0.1-0.1,0.3-0.1,0.7-0.2c-0.2,1.1-0.4,2.1-0.5,3c2.1,0.1,3.9,0.2,5.8,0.4c0.4,0,0.9,0.3,1.3,0.5
		c1.4,0.8,1.6,1.7,0.7,3c-0.2,0.3-0.4,0.5-0.6,0.8c1.4,0.7,2.8,1.2,4,1.9c0.8,0.5,1.6,1.1,2.2,1.9c0.2,0.3,0.1,1.2-0.2,1.5
		c-0.6,0.7-0.4,0.9,0.1,1.5c1.3,1.4,2.8,2.8,3.8,4.4c0.8,1.4,1.1,3.2,1.5,4.8c0.2,0.8-0.4,0.8-1,0.9c-3.4,0.7-6.9,1.1-10.2,2.2
		c-2.4,0.8-4.6,2.3-6.8,3.5c-0.4,0.2-0.6,0.5-1,0.8c0.9,0.9,1.8,1.8,2.5,2.7c1.6,1.9,1.5,4.2,0.7,6.3c-0.7,1.8-0.8,3.4-0.3,5.3
		c0.4,1.3-0.1,2.8-0.2,4.3c0,0.5,0,1,0.2,1.4c1.2,2,1.1,4.2-0.3,6.1c0,0-0.1,0.1-0.1,0.1c-1.7,2.3-1.5,2.6,0.4,5.9
		c1,1.8,1.4,4.1,1.9,6.2c0.1,0.3-0.5,0.9-0.9,1.1c-3.2,1.5-6.7,2.2-10.2,2.6c-3.7,0.4-7.5,0.6-11.2,1c-0.3,0-0.8,0.2-1,0.5
		c-0.5,0.7-1,1.4-1.5,2.1c-0.1,0.2-0.1,0.5-0.1,0.7c0.1,0.2,0.4,0.3,0.6,0.3c2-1.1,4.2-0.4,6.3-0.6c2.6-0.2,5.2-0.1,7.7,0
		c4.3,0.2,8.7-0.1,13,0c2.5,0,2.9,0.5,2.8,2.9c-0.2,3.8-0.5,7.6-0.6,11.3c-0.1,1.7,0.2,3.4,0.3,5.1c0.1,1.7-0.5,2.3-2.1,2.3
		c-1.1,0-2.2,0-3.3,0c-1.2,0-1.9-0.7-1.9-1.9c0.1-1.5,0.3-2.9,0.4-4.4c0.1-1.1-0.1-2.2-0.1-3.3c-0.1-1.6-0.3-3.1-0.4-4.8
		c-0.2,0.2-0.3,0.3-0.4,0.5c-1.2,3.4-2,6.8-1.7,10.5c0.2,3.2-0.1,3.4-3.3,3.4c-0.8,0-1.5,0-2.2,0c-1.3,0-1.9-0.7-1.9-2
		c0-1.3-0.1-2.7,0-4c0.2-2.8-1.1-5.3-1.7-7.9c-0.1-0.4-0.3-0.9-0.4-1.3c-0.9,0.1-1.7,0.3-2.5,0.4c0,0.1,0,0.1,0,0.2
		c0.2,0.1,0.3,0.1,0.5,0.1c1.9,0.2,2.2,0.5,2.2,2.4c0,0.7,0,1.5,0,2.2c0,1.3-0.6,1.9-1.9,2c-0.4,0-0.7,0.3-1.1,0.5
		c0.4,0.2,0.7,0.5,1.1,0.5c2,0.1,2.4,0.4,2.5,2.4c0,0.9,0,1.8,0,2.7c-0.1,1-0.7,1.6-1.7,1.6c-2.6,0-5.3,0-7.9,0
		c-0.6,0-1.1-0.3-1.6-0.4c-0.8,0.1-1.6,0.4-2.4,0.4c-1.4-0.1-2.9-0.3-4.4-0.4c-0.2,0-0.4,0.1-0.7,0.2c-1.7,0.1-3.4,0.2-5.1,0.1
		c-0.4,0-0.9-0.9-1.1-1.5c-0.2-0.3,0-0.8,0-1.6c-1.6,2.7-3.8,3.7-6.5,3.7c-2.7,0.1-4.9-0.9-6.5-3.3c-0.6,2.9-0.6,2.9-3.6,2.9
		c-4.1,0-8.3,0-12.4,0c-1.6,0-2.2-0.6-2.1-2.1c0.1-1.2-0.4-1.5-1.5-1.6c-1.4-0.1-2.9-0.3-4.3-0.5c-0.9-0.1-1.2,0.2-1.1,1
		c0.2,3.4-0.6,3.3-3.4,3.3c-4.1,0-4.1,0.1-4-4c0-0.2,0-0.5,0-0.7c0-1.6-0.1-1.7-1.8-1.8c0,1.4,0,2.7,0,4.1c0,1.9-0.5,2.4-2.4,2.4
		c-1.1,0-2.1-0.1-3.2,0c-0.3,0-0.6,0.4-0.9,0.7c-0.3,0.3-0.5,0.8-0.7,0.8c-3.9,0.1-7.9,0-12,0c0.3-1.9,0.8-3.7,0.9-5.5
		c0.2-4.1,0.3-8.2,0.4-12.3c0-1.2,0-2.4,0-3.5c0-1.1,0.5-1.8,1.6-1.9c0.8,0,0.9-0.5,1-1c0.3-1.7,0.6-3.5,0.9-5.2
		c0.2-1.1,0-1.3-1.2-1.1c-2.5,0.3-5,0.9-7.5,0.9c-6.2,0-10.5-3.3-13.6-8.4c-0.2-0.3-0.3-0.6-0.5-0.9c-0.1-0.1-0.2-0.3-0.4-0.6
		c-2.7,5.2-3.7,10.8-5.3,16.3c1.7,0,3.2,0,4.7,0c0.7,0,1.3,0,2,0c2,0,4,0,5.9,0c2,0,4.1,0,6.1,0c1.4,0,1.9,0.5,1.9,1.8
		c0,1,0,2,0,2.9c0,1.4-0.4,1.8-1.8,1.9c-0.4,0-0.8,0.1-1.2,0.1c0,0.1,0,0.3,0,0.4c0.3,0.1,0.6,0.1,1,0.2c1.4,0.1,1.9,0.6,2,1.9
		c0,0.7,0,1.5,0,2.2c0,1.8-0.4,2.2-2.2,2.3c-0.2,0-0.5,0-0.7,0.1c-0.3,0.9,0,1.1,0.9,1.1c2.2-0.1,2.5,0.3,2.5,2.5c0,0.8,0,1.6,0,2.5
		c-0.1,1-0.6,1.6-1.7,1.6c-2.9,0-5.8-0.1-8.7-0.1c-1.6,0-3.1,0.1-4.7,0.1c-3,0-5.9-0.2-8.8-0.1c-1.1,0-2.5,0-2.3,1.7
		c-9.6,0-19.1,0-28.9,0c1-2.1,1.9-3.9,3-6.1c-1.3,0.6-2.4,1.1-3.3,1.8c-1.5,1.1-3,2.4-4.4,3.7c-0.5,0.5-1,0.7-1.7,0.7
		c-2.5,0-5.1,0-7.7,0C23.2,140.2,23.2,130.4,23.2,120.6z M202.2,60.8c1.3,0,2.3,0.7,3.2,1.5c0.5,0.2,0.9,0.4,1.4,0.5
		c0.1,0,0.2,0,0.3-0.1c0.4-0.2,1.1-0.4,1.3-0.8c0.1-0.2-0.3-0.9-0.5-1.2c-1.4-1.7-3.4-2-5.3-2.8c-0.3-0.1-1,0.2-1.2,0.5
		c-0.2,0.3,0,0.8,0.2,1.2C201.8,60,202,60.4,202.2,60.8c-1-0.1-1.4,0.6-1.9,1.4C201.7,62.6,201.7,61.4,202.2,60.8z M124.9,61.9
		c0.7-2.5-0.1-4.3-2.3-5.3c-0.4-0.2-0.8-0.6-0.9-1c-0.2-0.9-0.1-1.8-0.3-2.7c-0.1-0.4-0.5-0.9-0.9-1.1c-0.9-0.4-1.9-0.5-2.8-0.9
		c-5-1.9-9.9-3.9-14.9-5.7c-4.1-1.5-8.4-2.5-12.9-2.4c-1.1,0-2.3,0.3-3.6,0.6c0.4,0.4,0.5,0.6,0.7,0.7c1.7,2.2,3.5,4.3,5.1,6.5
		c0.7,1,1.1,2.3,0.7,3.7c-0.2,0.9-0.6,1-1.3,0.5c-1.4-0.8-2.7-1.7-4.2-2.4c-1.7-0.8-3.5-1.2-5.5-0.8c0.2,0.3,0.3,0.4,0.3,0.6
		c1.5,2.2,3.2,4.3,4.5,6.6c3.2,5.4,4.7,11.3,3.7,17.6c-0.1,0.3-0.3,0.6-0.5,1.2c-0.4-0.7-0.5-1.1-0.8-1.4c-1.2-1.9-2.3-3.9-3.7-5.7
		c-1-1.3-2.3-2.2-4.1-2.3c-3.2-0.2-5.8,3.6-6,6.1c-0.2,3,2.5,7.2,5.3,8.3c2.3,0.8,4,0.3,5.3-1.6c0,0,0.1,0,0.2,0
		c0.1,1.3-0.6,2.2-2.2,2.4c-0.7,0.1-0.7,0.4-0.8,1c-0.2,3.1-0.3,6.3-0.8,9.3c-0.8,5.2-2.7,10-4.4,14.9c-0.2,0.5-0.3,1.2-0.1,1.7
		c1.8,3.6,4.4,6.4,8.1,8.1c4.5,2,9,1.4,13.6,0.2c0.3-0.1,0.7-0.3,0.8-0.6c1.4-2.2,2.7-4.3,4-6.5c0.5-0.8,1-1.2,2-1.1
		c0.9,0.1,1.9-0.1,2.8-0.2c1.6-0.1,2.5-1.2,2.2-2.8c-0.2-0.8-0.7-1.6-1-2.3c-0.4-1-0.9-2-1-3.1c-0.1-0.8,0.2-1.6,0.4-2.4
		c-2.2-0.3-3.7,1.5-3,3.7c0.1,0.4,0.2,0.8,0.4,1.3c-0.4,0-0.6,0.1-0.8,0.1c-3.1-0.1-6.2-0.1-9.3-0.3c-2.5-0.1-5-0.6-7.2-1.9
		c-1.3-0.8-2.1-2.1-1.8-3.6c0.4-2.5,3.2-5.3,5.7-5.8c5-0.9,9.7,0.2,14.4,1.7c4.2,1.4,7.9,3.8,12.3,4.7c3.3,0.7,6.6,1.6,10,1.1
		c1.4-0.2,2.7-0.7,3.2-2.1c0.4-1.4-0.1-2.6-1.1-3.6c-2.6-2.6-4.5-5.6-5.6-9.2c-1.8,0-3.6,0.1-5.4,0c-2.3-0.2-4.5-1-5.1-1.9
		c0.4,0.1,0.7,0.2,1,0.2c1.8,0.4,3.7,0.9,5.5,1.1c1.8,0.2,3.7,0.1,5.3-1.1c2-1.5,2.4-3.4,0.2-4.8c-0.3-0.2-0.7-0.4-1-0.6
		c-2.1-1.3-4.4-1.5-6.8-1.4c-0.9,0.1-1.4-0.3-1.7-1.2c-0.6-1.8-2-2.8-3.8-3.4c-0.1,0.3-0.2,0.6-0.3,0.8c-0.7,1.2-1.3,2.6-2.2,3.7
		c-1.6,1.8-3.8,2.4-6.2,2.4c-2.9,0-5.7-0.4-8-2.5c-1.4-1.3-2-3.1-2.4-4.9c-0.7-3.3-0.4-6.4,2.4-8.7c0.8-0.7,2-1.6,2.9-1.5
		c4.1,0.3,8.1,1,11.8,2.8c0.5,0.2,0.7,0.3,1.2-0.2c0.9-1.1,0.3-1.9-0.2-2.7c-0.2-0.4-0.5-0.7-0.7-1.1c0.1-0.1,0.3-0.2,0.4-0.3
		c0.6,0.9,1.2,1.8,1.8,2.7C119,61.4,120.1,61,124.9,61.9z M75.5,36.7c-2.4-2.7-4.9-5.4-7.3-8.1c-0.1,0.1-0.3,0.1-0.4,0.2
		c0,0.5,0,1.1,0,1.6c0.2,2.5,0.3,4.9,0.5,7.4c0,0.8-0.2,1.2-1,1.2c-1.2,0-2.5,0.1-3.7,0.1c-1.6,0.1-3.2,0.2-4.9,0.2
		c0.2,0.3,0.2,0.4,0.3,0.5c2.5,2.5,5,5.1,7.5,7.7c0.3,0.3,0.5,1,0.4,1.4c-0.9,2.3-2.1,4.5-3,6.8c-1,2.6-1.2,5.3-0.7,8
		c1,5.3,4.5,8.7,8.8,11.6c0.7,0.5,1.6,0.9,2.6,1.4c-0.4-2.9,0.5-5.1,2.2-7c1.3-1.5,3.5-2.6,5.6-1.9c2.2,0.7,3.7,2.3,5,4.1
		c0.8,1.1,1.4,2.3,2.1,3.4c0.9-4.5,0-8.8-1.7-12.8c-1.7-4-4.2-7.7-7.2-11.2c4.7-1.5,8,1,11.8,3c-0.4-5.1-4.3-7.6-7-11
		c0.6-0.3,1.1-0.6,1.6-0.7c4.7-1.2,9.3-0.1,13.8,1.2c2.8,0.8,5.5,2,8.3,3c2.6,1,5.2,2,7.8,3c3.1,1.2,6.3,2.1,9.7,2.1
		c2.4,0,4.7-0.4,5.8-2.9c0.5-1.2,0.7-2.5,0.9-3.7c0.6-3.6,0.2-7.2-0.8-10.7c-0.9-3.1-2.2-6.1-3.3-9.2c-0.4-1-0.9-1.8-1.3-2.6
		c-1.7,0.8-3.2,1.6-4.8,2.4c-0.2,1.5,0.3,3.3-0.3,5.3c-0.9-1.5-1.6-2.7-2.2-3.9c-0.6-1.2-1.5-2.2-2.8-2.8c-1.1-0.5-1.9-1.4-2.3-2.6
		c-0.3-0.9-0.5-1.9-1.1-2.6c-1-1.3-2.2-2.4-3.3-3.5c-0.8-0.8-1.6-1.5-2.6-2.5c-0.1,4.9-0.2,9.5,0.6,14c0.3,1.5,0.4,3.1,0.6,4.6
		c0,0.3-0.2,0.5-0.3,0.8c-0.2-0.1-0.5-0.2-0.7-0.3c-1.4-0.9-2.8-1.9-4.3-2.5c-2.2-0.9-4.6-1.5-6.9-2.3c-5.9-2.2-11.2-1-15.8,3.2
		C79.4,32.2,77.6,34.5,75.5,36.7z M171.8,93.2c0.5,0.1,0.8,0.1,1.1,0.2c1.4,0.3,2.8,0.7,4.2,0.9c2.1,0.3,4.2,0.2,6.1-0.9
		c1.7-1.1,2.1-3.4,0.5-4.4c-3.3-2.1-6.8-4-10.2-6c-0.9-0.5-1.9-0.6-2.9-0.1c-1,0.5-2.1,1-3.1,1.6c-4.1,2.3-6.4,5.7-6.5,10.4
		c-0.1,3.2,0.1,6.3,0.3,9.5c0.3,4.5,2.4,8,6.2,10.5c0.8,0.5,1.3,0.6,1.8-0.4c1.2-2.5,2-5.1,2.3-7.8c0.3-2.7,0.5-5.4,0.6-8.1
		C172.2,96.7,171.9,95,171.8,93.2z M139.8,133.2c-0.1,0-0.1,0-0.2,0c-0.1-0.4-0.2-0.8-0.2-1.2c-0.2-1.1-0.3-2.3-0.5-3.4
		c-0.1-0.5-0.3-0.8-0.9-0.8c-1.7,0-3.4,0-5.1,0c-0.8,0-1.1,0.3-1.1,1c0,5.9,0,11.7,0,17.5c0,0.6,0.2,0.9,0.8,0.8
		c0.9,0,1.7,0,2.6,0.1c1.5,0.1,1.5,0,1.5-1.4c0-1.4,0-2.8,0-4.2c0.1,0,0.2,0,0.3,0c0.3,1.9,0.6,3.7,0.9,5.6c1,0,1.8-0.1,2.6,0
		c1,0.1,1.1-0.4,1.2-1.1c0.2-1.3,0.3-2.5,0.4-3.8c0.3,0.1,0.4,0.3,0.4,0.5c0,1.1,0.2,2.3,0,3.4c-0.1,0.8,0.1,1.1,0.9,1.1
		c0.9,0,1.9-0.1,2.8,0c1,0.1,1.3-0.4,1.3-1.3c0-1.8,0-3.6,0-5.4c0-3.8,0-7.5,0-11.3c0-1-0.3-1.5-1.4-1.4c-1.5,0.1-3,0.1-4.5,0
		c-0.9,0-1.3,0.2-1.4,1.1C140.2,130.4,140,131.8,139.8,133.2z M108.5,147.2c1.4,0,2.7,0.1,3.9-0.1c0.4,0,1-0.6,1-1
		c0.1-5.7,0-11.5,0-17.2c0-0.9-0.3-1.2-1.2-1.2c-1.6,0.1-3.1,0.1-4.7,0c-0.8,0-1.2,0.2-1.2,1.1c-0.1,1.4-0.4,2.8-0.6,4.2
		c-0.1,0-0.2,0-0.3,0c-0.2-1.4-0.5-2.9-0.6-4.3c-0.1-0.7-0.4-1-1.1-1c-1.5,0.1-3,0.1-4.5,0c-1.2-0.1-1.5,0.4-1.5,1.5
		c0.1,4.8,0,9.6,0.1,14.5c0,1.1-0.3,2.7,0.3,3.2c0.6,0.6,2.1,0.2,3.3,0.3c1.1,0.1,1.4-0.3,1.3-1.4c-0.1-1.4,0-2.8,0-4.2
		c0.1,0,0.3,0,0.4,0c0.2,1.4,0.3,2.9,0.6,4.3c0.1,0.4,0.4,1.1,0.7,1.2c2.6,0.6,3.1,0.2,3.4-2.5c0.1-0.5,0.1-0.9,0.2-1.4
		c0.1-0.4,0.2-0.8,0.3-1.2c0.1,0,0.2,0,0.3,0.1C108.5,143.8,108.5,145.4,108.5,147.2z M96.2,69.8c0,0.5,0,0.9,0.1,1.4
		c0.3,2.5,1,4.9,3.3,6.3c3.3,1.9,6.9,2.2,10.4,0.8c3.4-1.3,5.3-6,4.5-9.8c-0.4-1.9-1.3-3.3-3.2-3.8c-2.7-0.7-5.5-1.3-8.2-2
		c-2.2-0.5-3.9,0.4-5.3,2C96.5,66.2,96,67.8,96.2,69.8z M167.8,142c0.1,0,0.3,0,0.4-0.1c0.2,0.6,0.4,1.3,0.6,1.9
		c0.9,3.4,0.9,3.4,4.4,3.4c1.2,0,1.5-0.4,1.5-1.5c-0.1-5-0.1-10,0-14.9c0-3,0-3-2.9-3c-0.2,0-0.3,0-0.5,0c-1.1-0.1-1.5,0.3-1.4,1.4
		c0.1,1.4,0,2.7,0,4.1c-0.7-1.3-1.1-2.5-1.4-3.9c-0.3-1.2-0.8-2-2.2-1.7c-0.5,0.1-1.1,0.1-1.6,0c-1.2-0.2-1.5,0.5-1.5,1.5
		c0,5.6,0,11.3,0,16.9c0,0.8,0.3,1.1,1.1,1.1c0.7-0.1,1.5,0,2.2,0c1.1,0.1,1.6-0.3,1.5-1.5C167.7,144.5,167.8,143.3,167.8,142z
		 M161.2,137.6C161.2,137.6,161.2,137.6,161.2,137.6c0-1.4,0-2.9,0-4.4c-0.1-3.5-1.6-5.3-5.1-5.8c-3.3-0.4-6.9,1.3-6.8,5.1
		c0,3.2,0,6.5,0,9.7c0,3.5,2.8,5.4,6,5.3c3.7,0,5.9-2.2,5.9-5.9C161.2,140.3,161.2,139,161.2,137.6z M74.6,143.1
		c0.1,0,0.3,0,0.4-0.1c0.3,1,0.6,2,0.8,3c0.2,0.8,0.5,1.2,1.4,1.1c1.1-0.1,2.1,0,3.2,0c1.2,0,1.4-0.2,1-1.4c-0.6-2.1-1.3-4.3-2-6.4
		c-0.6-1.7-0.9-3.4-0.1-5.2c0.7-1.6,1.2-3.3,1.7-5c0.1-0.4,0.1-0.9,0.2-1.4c-1.4,0-2.7,0.1-3.9,0c-0.8,0-1.2,0.3-1.4,1.1
		c-0.3,1.1-0.7,2.1-1,3.2c-0.1,0-0.2,0-0.3,0c0-1.1,0-2.1,0-3.2c0-0.7-0.2-1-1-1c-1.2,0-2.3,0-3.5,0c-0.7,0-1,0.2-1,0.9
		c0,5.8,0,11.7,0,17.5c0,0.7,0.3,1,1,0.9c1.2,0,2.3,0,3.5,0c0.7,0,1-0.3,1-1C74.6,145.2,74.6,144.1,74.6,143.1z M78.7,4.4
		c0,1.9,0,3.7,0,5.5c0,0.4-0.4,0.8-0.6,1.1c-0.2-0.4-0.6-0.8-0.6-1.1c-0.1-1.5-0.1-3.1,0-4.6c0-0.7-0.2-1-0.9-1
		c-1.1,0.1-2.2,0-3.3,0.1c-0.3,0-0.8,0.5-0.8,0.8c0,5.8,0,11.5,0,17.3c0,0.3,0.5,0.8,0.8,0.8c1,0.1,2.1,0,3.2,0
		c0.8,0,1.1-0.3,1.1-1.1c0-2,0-3.9,0-5.9c0-0.3,0.4-0.6,0.6-0.9c0.2,0.3,0.6,0.6,0.6,0.9c0.1,1.2,0,2.4,0,3.5c0,1.1,0,2.2,0,3.4
		c1.6,0,2.9,0,4.2,0c0.3,0,0.8-0.5,0.8-0.8c0-5.8,0-11.5,0-17.3c0-0.6-0.2-0.8-0.8-0.8C81.6,4.4,80.3,4.4,78.7,4.4z M57.9,127.9
		c-0.4,2.8-0.8,5.5-1.1,8.2c-0.4,3.3-0.8,6.5-1.3,9.8c-0.1,1,0.1,1.5,1.2,1.4c0.5-0.1,1.1,0,1.6,0c2.6,0,2.5,0,2.9-2.5
		c0-0.3,0.4-0.6,0.7-0.9c0.2,0.3,0.5,0.6,0.6,0.9c0.1,0.5,0.1,1,0.1,1.5c0,0.6,0.3,0.9,1,0.9c1.1-0.1,2.3,0,3.4,0
		c1.3,0,1.4-0.2,1.2-1.4c-0.7-4.6-1.4-9.1-2.1-13.7c-0.2-1.4-0.5-2.8-0.7-4.2C62.8,127.9,60.4,127.9,57.9,127.9z M92.4,4.4
		c0,0.6-0.1,1.1-0.1,1.6c0,4.2,0,8.4,0,12.6c0,0.6-0.4,1.1-0.6,1.7c-0.2-0.5-0.5-1.1-0.5-1.7c0-4.4,0-8.7,0-13.1
		c0-0.8-0.2-1.2-1.1-1.2c-1,0.1-2,0.1-3.1,0c-0.8,0-1,0.3-1,1c0,4.4,0,8.9,0.1,13.3c0,0.9,0.3,1.8,0.7,2.6c1,1.8,2.8,2.3,4.7,2.4
		c3,0.2,5.8-1.3,5.8-4.4c0.1-4.7,0.1-9.4,0.1-14.1c0-0.3-0.5-0.7-0.7-0.8C95.3,4.4,93.9,4.4,92.4,4.4z M127.3,12.4L127.3,12.4
		c0-2.3,0-4.6,0-6.9c0-0.8-0.3-1.1-1-1c-0.9,0-1.9,0.1-2.8,0c-1-0.1-1.3,0.3-1.3,1.2c0.1,4.2,0,8.4,0,12.6c0,0.4,0,0.9-0.1,1.3
		c-0.1,0.3-0.4,0.5-0.5,0.8c-0.2-0.2-0.4-0.5-0.5-0.7c-0.1-0.5-0.1-1.1-0.1-1.6c0-4.1,0-8.2,0-12.2c0-0.9-0.2-1.4-1.2-1.3
		c-0.9,0.1-1.8,0.1-2.7,0S116,4.7,116,5.6c0.1,4.3,0,8.6,0.1,12.8c0,0.8,0.1,1.6,0.3,2.3c0.8,2.1,2.6,2.8,4.7,3
		c3.5,0.4,6.3-1.5,6.3-5.3C127.3,16.4,127.3,14.4,127.3,12.4z M167.7,83.4c-0.3-0.3-0.5-0.7-0.7-0.8c-1.8-1.4-3.6-2.9-5.5-4.1
		c-1.1-0.7-1.9-1.4-2.1-2.7c-0.2-1.4-1.2-2.1-2.5-2.3c-0.7-0.1-1.4-0.1-2.3-0.2c0.4-1.3,0.7-2.4,1.2-3.6c1.1-2.8,2.4-5.4,4.9-7.2
		c0.8-0.6,1.4-0.5,1.8,0.4c0.7,1.6,1.6,3.1,2.1,4.7c1.5,4.7,3,9.5,4.4,14.3c0.1,0.3,0.2,0.5,0.4,0.7c0.1,0,0.2-0.1,0.3-0.1
		c-0.4-7.4-3.7-13.9-5.9-20.8c1.9-1.3,1.8-3.2,1.3-5c-0.8-2.7-0.7-2.9,2.1-2.8c4.3,0.3,8.6,0.7,12.9,1.1c0.9,0.1,2.2-0.1,2.7,0.5
		c0.5,0.6,0.3,1.8,0.4,2.8c0.2,1.6,0.4,3.2,2.1,4c0.2,0.1,0.3,0.7,0.2,1c-0.5,1.6-1.2,3.2-1.6,4.9c-1.2,5.9-1.5,11.9-1.4,17.9
		c0,0.4,0.1,0.8,0.2,1.2c-0.3-9.3,2.5-17.9,5-26.7c-1.1,0.4-2.3,0.8-3.1-0.2c-0.3-0.3-0.1-1.1-0.1-1.7c0-0.7-0.2-1.5,0-2
		c0.4-0.7,2-0.7,2.7-0.2c1,0.7,0.3,1.4-0.1,2.1c0.3,0.3,0.5,0.5,0.8,0.8c0.2-0.4,0.4-0.6,0.4-0.9c0.2-1.5,0.3-2.9,0.6-4.3
		c0.2-1-0.2-1-1-1c-4,0.2-8.1,0.3-12.1,0.3c-1.4,0-2.9-0.1-4.3-0.5c-4.1-1.3-7.9-0.8-11.7,1.1c-0.6,0.3-0.8,0.7-0.6,1.3
		c0.5,1.2,1,2.5,1.6,3.7c0.2,0,0.4-0.1,0.5-0.1c-0.1-0.4-0.1-0.8-0.3-1.1c-0.5-0.6-0.6-1.1-0.2-1.7c0.5-0.6,2.1-1.1,2.6-0.5
		c0.4,0.4,0.4,1.2,0.7,1.8c0.1,0.6,0.6,1.3,0.4,1.7c-0.5,1.5-1.9,0.9-2.8,1.1c-0.3,0.4-0.5,0.8-0.8,1c-1.9,1.3-3.4,3-4.5,5
		c-0.7,1.2-1.3,2.3-1.9,3.5c-1.2,2.4-3.3,3.9-5.3,5.6c-0.5,0.4-0.9,0.8-1.6,1.5c1.7,0.1,2.9,0.1,4.4,0.2c-0.4-0.9,0.7-1.7-0.3-2.4
		c-0.1,0,0.2-0.6,0.4-0.7c0.3-0.2,0.7-0.3,1.3-0.5c0,0.5,0.1,0.9,0,1.3c-0.1,0.6-0.4,1.1-0.4,1.7c0,0.3,0.2,0.5,0.4,0.8
		c0.1,0,0.2-0.1,0.4-0.1c-0.3-1.2-0.2-2.4,1-3c0.5-0.2,1.3,0.2,2,0.4c0.7,0.1,1.6,0,1.9,0.4c0.9,1.2,0.1,2.2-0.6,3.1
		c1.6,0.9,3.3,1.6,4.8,2.6c1.5,1,2.8,2.2,4.3,3.4C167,83.8,167.3,83.7,167.7,83.4z M61.8,16.5c-0.5,0-1.1-0.1-1.6,0
		c-0.3,0-0.7,0.3-0.8,0.5c-0.8,2.1,0.6,5.4,2.7,6.3c0.8,0.3,1.7,0.5,2.5,0.5c3.7,0,5.9-1.1,5.9-5.1c0-2.5-0.6-4.8-3-6.2
		c-0.8-0.5-1.6-1.1-2.5-1.6c-0.8-0.5-1.2-1.3-1.1-2.2c0.1-0.4,0.5-0.8,0.7-1.2c0.2,0.4,0.5,0.7,0.7,1.2c0.1,0.2,0,0.5,0,0.7
		c-0.1,0.7,0.2,1,0.9,1c1-0.1,2,0,2.9,0c0.3,0,0.8-0.3,0.8-0.5c0-1.5,0.3-3.2-1.1-4.4c-1.8-1.6-6.2-1.9-8.1-0.5
		c-0.4,0.3-0.7,0.6-1,1c-1.5,2.2-0.8,6.5,1.4,8.1c1,0.7,2,1.5,3.1,2.2c0.9,0.6,1.3,1.4,1.2,2.4c0,0.7,0.2,1.6-0.8,1.7
		c-1,0-0.8-1-0.8-1.6C64,16.4,64,16.4,61.8,16.5z M122,77c0,0,0,0.1,0,0.1c0.7-0.1,1.7,0.1,2.1-0.3c2-1.9,3.7-4,4.3-6.9
		c0.4-2.5-1.5-6.6-3.8-7.4c-3.8-1.3-7.1-0.5-10,2.3c-0.6,0.5-0.6,1.1-0.3,1.9c0.5,1.5,0.7,3.1,0.9,4.6c0.1,0.7,0.2,1.1,0.8,1.4
		c1.4,0.7,2.5,1.7,3.1,3.1c0.3,0.9,0.8,1.3,1.7,1.2C121.2,76.9,121.6,77,122,77z M88,142.7c0-0.8,0.1-1.5,0-2.1
		c-0.1-0.9,0.2-1.3,1.2-1.2c1.9,0.1,1.9,0,1.9-1.9c0-2.3,0-2.3-2.2-2.4c-0.7,0-0.9-0.2-0.9-0.9c0-0.4,0-0.7,0-1.1
		c-0.1-0.7,0.2-0.9,0.9-0.9c2.5-0.1,2.5-0.1,2.4-2.6c0-0.3,0-0.6,0-0.8c0-0.8-0.3-1-1.1-1c-2.1,0-4.2,0.1-6.3,0
		c-1.2-0.1-1.4,0.5-1.4,1.5c0,5.6,0,11.3,0,16.9c0,0.8,0.3,1.1,1,1c1.6,0,3.2,0,4.8,0c3.9-0.1,3.2,0.7,3.3-3.5c0-0.7-0.3-1-1-1
		C89.8,142.7,89,142.7,88,142.7z M182.1,139.4c0.9,0,1.8,0.3,2.4-0.1c0.5-0.3,0.6-1.3,0.7-1.9c0-0.7-0.1-1.9-0.5-2.1
		c-0.6-0.4-1.6-0.1-2.5-0.1c0-0.6-0.1-1-0.1-1.4c0-0.4,0-0.8,0-1.2c0.2-0.1,0.3-0.1,0.4-0.1c0.9-0.1,2.3,0.1,2.7-0.5
		c0.5-0.7,0.2-1.9,0.2-2.9c0.1-0.9-0.3-1.1-1.2-1.1c-2,0.1-4,0-6,0c-1.6,0-1.7,0.1-1.7,1.6c0,5.5,0.1,11,0,16.5
		c0,1.1,0.4,1.3,1.3,1.3c2.1,0,4.1,0,6.2,0c1.6,0,1.6,0,1.6-1.6c0-0.6,0-1.1,0.1-1.7c0.1-0.9-0.2-1.2-1.1-1.2c-0.8,0-1.6,0-2.4,0
		C182.1,141.5,182.1,140.5,182.1,139.4z M134.7,23.4c0-1.9,0-3.6,0-5.3c0-2.1,0-2.1,2.1-2.2c2.3-0.1,3.5-1.3,3.5-3.7
		c0-1.4,0-2.8,0-4.1c-0.1-1.9-1.1-3.1-3-3.3c-1.7-0.2-3.4-0.2-5.2-0.3c-0.8,0-1.6,0-2.4,0c0,6.4,0,12.6,0,18.9c1,0,2,0,2.9,0
		C133.2,23.4,133.9,23.4,134.7,23.4z M120.3,132.2c-0.1,0-0.2,0-0.3,0c-0.1-0.3-0.1-0.6-0.2-0.9c-0.2-1.1-0.1-2.6-0.8-3.2
		c-0.6-0.6-2.1-0.2-3.2-0.3c-0.2,0-0.4,0-0.6,0c-1-0.1-1.3,0.3-1,1.3c0.6,1.9,1.1,3.8,1.7,5.8c0.9,3.1,1.8,6.2,1.5,9.6
		c-0.3,2.8,0,2.8,2.8,2.8c2.6-0.1,2.3,0.5,2.5-2.6c0.1-1.9,0-3.9,0.4-5.8c0.7-3.2,1.8-6.4,2.8-9.6c0.4-1.2,0.3-1.4-1-1.4
		c-0.9,0-1.9,0-2.8,0c-0.8-0.1-1.1,0.3-1.2,1C120.7,130,120.5,131.1,120.3,132.2z M191.9,132.2c-0.1,0-0.2,0-0.3,0.1
		c-0.2-1.2-0.4-2.5-0.7-3.7c-0.1-0.3-0.6-0.7-0.9-0.8c-1.1-0.1-2.1,0-3.2,0c-0.9,0-1.1,0.3-0.9,1.1c0.6,1.9,1.2,3.7,1.6,5.6
		c0.6,2.6,1.9,5,1.6,7.7c-0.1,1.3-0.1,2.6-0.1,3.8c0,0.8,0.3,1.1,1.1,1.1c0.9,0,1.7,0,2.6,0c1.3,0,1.8-0.5,1.6-1.8
		c-0.2-2.6-0.2-5.2,0.6-7.8c0.9-2.8,1.7-5.7,2.5-8.6c0.2-0.6,0.4-1.2-0.6-1.2c-1.4,0-2.7,0-4.1,0
		C192.5,129.3,192.2,130.8,191.9,132.2z M184.6,88.4c0.2,0.4,0.5,0.9,0.6,1.3c0.5,1.9,0.1,3.7-2.9,4.8c-0.3,0.1-0.6,0.5-0.6,0.7
		c0,0.3,0.3,0.6,0.5,0.9c0.1,0.1,0.4,0.1,0.7,0.2c2.7,0.6,5.4,0.6,7.9-0.4c3-1.1,5.7-2.7,6.8-6.2c0.9-3,0.6-5.4-1.8-7.5
		c-0.8-0.7-1.5-1.2-2.5-0.2c-0.4,0.5-1.1,0.7-1.6,1.2c-0.3,0.2-0.6,0.6-0.5,0.8c0.2,2.2-1.3,2.8-2.9,3.4
		C187.1,87.9,185.8,88.1,184.6,88.4z M46.9,132.4c0,0.4,0.1,0.7,0.1,1c0,4.2,0,8.4,0,12.6c0,0.9,0.3,1.3,1.2,1.3c1-0.1,2-0.1,2.9,0
		c1.1,0.1,1.4-0.4,1.4-1.4c0-4.1,0-8.1,0-12.2c0-0.4,0-0.8,0-1.1c2.9-0.4,2.9-0.4,2.8-3.4c0,0,0-0.1,0-0.1c0.1-0.9-0.4-1.2-1.3-1.2
		c-2.4,0.1-4.9,0-7.3,0.1c-3.2,0-2.6-0.4-2.8,2.8c-0.1,1.6,0.1,1.7,1.7,1.8C46,132.3,46.4,132.4,46.9,132.4z M196.6,93.1
		c-0.4,0.4-0.8,0.7-1.1,1c-3,2.5-6.6,3.5-10.5,3.2c-1.5-0.1-2.6,0.3-3.8,1.2c-2.1,1.7-2.3,3.6-0.5,5.1c1.6,1.3,3.5,1.7,5.5,1.6
		c4-0.1,7.2-1.9,9.9-4.8C197.8,98.7,198,95,196.6,93.1z M101.8,15.9C101.8,15.9,101.8,15.9,101.8,15.9c0.1,2.2,0.1,4.3,0,6.5
		c0,0.7,0.2,1,0.9,1c0.9,0,1.8-0.1,2.7,0c1,0.1,1.3-0.3,1.3-1.3c-0.1-4.2,0-8.4,0-12.6c0-0.6,0.1-1,0.9-1c2-0.1,2-0.1,2-2.2
		c0-0.2,0-0.5,0-0.7c0.1-0.8-0.3-1.1-1.1-1.1c-2.9,0-5.7,0.1-8.6,0c-0.9,0-1.3,0.3-1.2,1.2c0,0.3,0,0.6,0,0.9c0,1.8,0,1.9,1.8,1.8
		c0.9,0,1.2,0.3,1.1,1.1C101.8,11.7,101.8,13.8,101.8,15.9z M201.4,127.8c-0.6,0-1.3,0-1.9,0c-0.7,0-1,0.1-1,1
		c0.3,3.6,0.4,7.1,0.6,10.7c0.1,1.1,0,2.3,0,3.4c0,1.3-0.1,2.6-0.1,3.9c0,0.1,0.5,0.4,0.8,0.4c1.1,0.1,2.2,0.1,3.3,0.1
		c0.8,0,0.8-0.5,0.9-1.1c0.3-2.1-0.7-4-0.4-6.2c0.4-3,0.4-6.1,0.5-9.2C204.4,127.5,204.8,127.8,201.4,127.8z M197,100.5
		c-0.4,0.4-0.7,0.7-1,0.9c-3.5,3.3-7.4,5-12.3,4.1c-0.8-0.2-1.2,0.2-1.3,0.9c-0.1,0.6-0.1,1.2,0.1,1.7c0.2,1.1,0.9,1.7,2,1.9
		c1.9,0.3,3.7,1,5.6,1c3.6,0,5.7-2.4,7.4-5.3C198.6,103.9,198.2,102.3,197,100.5z M97.5,93.3c-1.4,0.2-2.8,0.3-4.2,0.6
		c-0.3,0.1-0.6,0.4-0.9,0.7c0.3,0.4,0.6,0.9,1,1.1c0.5,0.1,1.2,0,1.7-0.2c0.6-0.2,1-0.2,1.4,0.4c1,1.3,2.4,1.8,4.1,1.3
		c0.4-0.1,1,0,1.3,0.2c1.3,1,2.7,1.3,4.3,0.7c0.3-0.1,0.9,0.1,1.2,0.3c0.8,0.5,1.6,1.2,2.5,0.6c0.8-0.5,1.5-0.3,2.3,0
		c0.5,0.2,1.1,0.3,1.6,0.4c0.3,0,0.7-0.2,1-0.2c-0.2-0.3-0.3-0.7-0.6-0.9c-1.1-0.6-2.2-1.1-3.3-1.5C106.6,94.9,102.3,93.4,97.5,93.3
		z M209.5,68c-0.4,0.1-0.8,0.2-1.1,0.3c-1.7,0.6-3.1,1.4-3.4,3.3c-0.2,1.4-1,1.8-2.1,2.3c-4.6,2.1-9.1,4.6-12.3,8.6
		c-0.9,1.1-1.7,2.4-1.9,4c1.5-0.4,1.9-1,1.9-2.3c0-0.4,0.3-1,0.6-1.3c0.7-0.6,1.6-1,2.3-1.7c1.7-1.7,3.7-2.9,5.9-4
		c4.1-2.1,8.6-3.1,13.2-3.5c0.9-0.1,1.3-0.4,0.9-1.3c-0.1-0.4-0.3-0.8-0.4-1.2c-0.1,0.1-0.1,0.2-0.2,0.3c-0.5-0.2-1-0.3-1.5-0.4
		c-0.1,1.4-0.3,1.5-1.9,1.5c-0.3,0.7-0.7,1.4-1.6,1c-0.6-0.3-1.2-0.8-1.7-1.4c-0.3-0.4-0.6-1.2-0.4-1.5c0.2-0.3,1-0.4,1.7-0.6
		c0.5-1.6,1.7-0.7,2.8-0.3c-0.3-0.4-0.4-0.7-0.7-1.1c1.1-0.5,1.3,0.5,1.9,0.8c0.2,0.1,0.5,0.1,0.8,0.2c0-0.3,0.1-0.6,0-0.8
		c-1.2-1.9-2.6-3.7-4.5-5c-0.2-0.1-0.5-0.1-0.7-0.2c0,0.2-0.1,0.5,0.1,0.7C207.8,65.5,208.6,66.7,209.5,68z M171.5,52.2
		c0.3-1.3,1.4-1,2.3-1c4.6-0.1,9.2-0.2,13.8-0.3c0.6,0,0.9,0,0.9,0.7c0,0.2,0.3,0.6,0.4,0.7c0.8,0,1.7,0.1,2.2-0.2
		c1.5-0.9,1.3,0.4,1.7,0.9c0,0.1-0.1,0.3-0.1,0.4c-1.2-0.2-2.3-0.3-3.5-0.4c0,0.1-0.1,0.2-0.1,0.3c0.2,0.1,0.4,0.3,0.6,0.4
		c0.2,0,0.5-0.1,0.7-0.1c0.7,0.2,1.4,0.4,1.9,0.9c0.2,0.2-0.3,1-0.3,1.6c0,0.2,0.1,0.5,0.1,0.8c0.1,0,0.2,0,0.3,0
		c0.8-1.9,1.6-3.8,2.4-5.6c-1.2-0.2-2.3-0.2-3.4-0.5c-1.2-0.3-2.3-1-3.4-1.2c-1.7-0.3-3.5-0.7-5.1-0.3c-4.3,1.1-8.6,1.4-12.9,0.7
		c-1.3-0.2-2.6-0.4-4-0.6c0,0.5,0,0.7,0,1c-0.2,1.2,0.3,1.5,1.4,1.5C168.8,51.7,170,52,171.5,52.2z M185.7,87.5
		c0.1-0.9,0.2-1.8,0.3-2.7c0.5-3.3,1.6-6.3,3.3-9.2c2.1-3.5,3.9-7.1,6.2-10.5c2.1-3.1,4.6-5.8,6.9-8.8c1-1.2,0.9-2-0.5-2.7
		c-0.3-0.2-0.7-0.4-1.1-0.4c-2.1,0-4.2,0-6.3,0c-0.1,0.1-0.1,0.2-0.2,0.3c0.6,0.4,1.1,0.9,1.8,1.4c-0.1,0.3-0.3,0.8-0.5,1.2
		c-0.2,0.4-0.3,0.9-0.6,1.5c0.6-0.2,1-0.3,1.4-0.4c-0.4-1.5,0.7-1.7,1.7-1.9c-0.2-0.3-0.4-0.5-0.7-0.9c0.4-0.1,0.6-0.2,0.9-0.2
		c0.7,0,1.5,0.1,2.2,0.2c0.3,0,0.6,0.3,0.8,0.6c0.1,0.2,0.2,0.7,0,0.8s-0.6,0.1-0.9,0.1c-0.2,0-0.4-0.1-0.7-0.2c1,1.3,1,1.3-0.3,2.3
		c-0.1,0.1-0.2,0.3-0.2,0.4c-0.2,1.1-0.8,1.6-1.9,1.3c-0.8-0.2-1.6-0.6-2.7-1c0.2,0.8,0.4,1.5,0.4,2.2c0.1,0.5,0.2,1.1,0,1.5
		c-0.8,1.6-1.7,3.2-2.6,4.8c-1.3,2.5-2.8,4.9-3.9,7.5c-1.4,3.3-2.6,6.8-3.9,10.2C184.5,86.1,185,86.7,185.7,87.5z M173.9,115.4
		c1.3,0.2,2.3,0.1,3.1,0.5c2.4,1.5,5,1.6,7.7,1.5c2.7-0.1,5.5-0.4,8.2-0.5c0.9,0,1.2-0.3,1.2-1.2c0-1.1,0.2-2.2,0.2-3.3
		c0-0.6-0.1-1.1-0.1-1.7c-0.1,0-0.2,0-0.4-0.1c-0.1,0.3-0.2,0.5-0.3,0.8c0,0.2,0.2,0.4,0.2,0.5c-0.4,1.1,0.1,2.2,0,3.2
		c-0.1,0.4-0.3,1.2-0.6,1.2c-0.6,0.1-1.4,0-2-0.2c-0.2-0.1-0.2-0.8-0.3-1.3c0-0.3,0-0.6-0.1-0.9c-0.1,0-0.2,0-0.4,0
		c-0.1,0.3-0.2,0.7-0.1,1c0.1,0.7-0.3,0.9-0.8,1c-3.2,0.6-6.3,0.3-9.2-1c-2-0.8-3.8-1.3-5.9,0.3c0.3-1.3,0.6-2.2,0.7-3.2
		c0.3-2-0.1-2.7-1.9-3.5c-0.3-0.2-0.7-0.7-0.7-1.1c0.1-1.1,0.4-2.2,0.5-3.2c0.3-3.1,0.5-6.2,0.7-9.3c0-0.3-0.3-0.7-0.5-1.1
		c-0.1,0.1-0.3,0.1-0.4,0.2c0,5.7,0.1,11.3-1.5,16.8c1,0.6,2.4-1.2,2.8,0.9c-0.2,0.1-0.4,0.3-0.6,0.4c0.2,0.4,0.5,0.8,0.6,1.2
		C174,114.2,173.9,114.9,173.9,115.4z M186.5,87.1c0.8,0.1,1.4,0.1,1.4-0.8c-0.1-2,0.7-3.8,1.6-5.4c2.8-5.2,7-9,11.2-12.9
		c0.9-0.8,1.9-1.6,2.8-2.4c-1.9,0.1-2.8-1.2-3.9-2.1c-0.1,0.2-0.2,0.3-0.2,0.4c-0.1,0.7-0.2,1.5-0.1,2.2c0.1,0.8-0.2,1.3-0.7,1.8
		c-4.1,3.7-7.7,7.9-10.2,12.9C187.3,82.7,186.3,84.7,186.5,87.1z M173.1,122.7c0.8,0.1,1.6,0.2,2.4,0.2c3.4-0.1,6.8-0.2,10.2-0.5
		c4.2-0.4,8.4-1.1,12.4-2.5c0.8-0.3,1.2-0.8,1.1-1.6c-0.4-2.5-1.4-4.7-2.7-6.9c0,0.9,0.3,1.8,0.6,2.6c0.4,1.5,1.4,2.9,1.1,4.3
		c-1,0.4-1.7,0.8-2.4,1.1c-1.2,0.5-2.4,1.3-3.6,1.6c-5.6,1.3-11.2,1.5-16.8,0c-1.8-0.5-1.8-0.4-2.1,1.4
		C173.1,122.5,173.1,122.5,173.1,122.7z M175.6,120.2c0.2,0.1,0.4,0.2,0.5,0.3c6,1.3,12,1.1,17.8-0.9c1.3-0.4,2-1.2,1.9-2.7
		c-0.2-2.3-0.2-4.7-0.3-7.1c-0.2,0-0.3,0-0.5,0c-0.1,0.3-0.1,0.7-0.1,1.1c-0.1,1.4-0.1,2.8-0.2,4.2c0,0.5-0.2,1.1,0,1.5
		c0.6,1.1-0.1,1.3-0.9,1.6c-3.9,1.3-7.9,2-12,2.2c-1.9,0.1-3.8,0.4-5.6-0.6C176.1,119.9,175.9,120.1,175.6,120.2z M184.8,77.8
		c2.3-6.5,4.5-13,6.8-19.4c-0.9-0.2-1.9-0.4-2.8-0.6c-0.8,1.6,1.1,1.7,1.5,2.6C187.9,66,185.9,71.8,184.8,77.8z M171.5,112.2
		c-0.9,0.1-2.7,3.9-2.7,5.8c1.3,0.1,2.3-0.4,3.1-1.4C170.7,115.6,170.5,113.6,171.5,112.2z M81.2,141c0-2.9,0-5.5,0-8.3
		C79.4,135.5,79.7,138.1,81.2,141z M184.9,78.3c-0.1,0-0.2-0.1-0.3-0.1c-0.2,0.8-0.5,1.7-0.6,2.5c-0.3,2.1-0.4,4.2-0.6,6.4
		c0,0.2,0.4,0.4,0.6,0.7c0.1-0.3,0.3-0.6,0.3-0.8c0-1.7-0.1-3.4,0-5.1C184.3,80.6,184.6,79.4,184.9,78.3z M171.8,119.7
		c0.5,0.1,1,0.1,1.5,0.2c0.1-1.1,0.3-2,0.4-3.1C171.9,117.3,171.8,117.4,171.8,119.7z M71.3,11c-1,0.3-1.8,0.5-2.4,0.6
		c0.6,0.7,1.3,1.5,1.9,2.3c0.1,0,0.2-0.1,0.3-0.1C71.2,12.9,71.2,12,71.3,11z M121.9,27.9c0.1,0,0.2,0,0.3,0c0-0.5,0-1,0-1.5
		c0-1.6-0.1-1.6-1.9-1.3C120.8,26.1,121.3,27,121.9,27.9z"/>
	<path d="M171.7,23.9c-1.4,1-5.3,1-6.4,0.2c-1.2,0.2-2.1,0.4-3.1,0.5c-2.7,0-5.3,0-8,0c-0.6,0-1.2-0.2-1.8-0.3
		c-0.2,0-0.4-0.1-0.6-0.1c-1.9,0.1-3.8,0.3-5.7,0.4c-1,0-1.6-0.6-1.4-1.7c0.8-5.7,1.5-11.3,2.3-17c0.4-2.6,0.4-2.5,3.1-2.5
		c1.5,0,3.1,0.1,4.6,0c1.2,0,1.8,0.5,2,1.6c0.4,2.5,0.8,5,1.1,7.6c0.1,0.5,0.1,1,0.2,1.5c0.1,0,0.2,0,0.3,0c0-0.9,0-1.8,0-2.7
		c0-2,0-3.9,0-5.9c0-1.7,0.4-2.1,2-2.1c0.8,0,1.7-0.1,2.5,0c0.8,0.1,1.5,0.4,2.5,0.6c1-1,4.9-1.1,6.2-0.2c1-0.2,1.8-0.5,2.6-0.5
		c2.3,0,4.6,0.1,6.8,0.2c3.1,0.2,4.7,2.6,4.7,5.4c0,3.6,0,7.3-0.1,10.9c-0.1,3.1-1.5,4.4-4.5,4.6c-2.5,0.1-5.1,0.1-7.6,0
		C172.8,24.4,172.3,24.1,171.7,23.9z M173,13.8C173,13.8,173,13.8,173,13.8c0,2.8,0,5.5,0,8.3c0,0.6,0,1.2,0.9,1.2
		c2.5,0,4.9,0,7.4-0.1c1.9-0.1,3-1.2,3.1-3c0.1-4,0.1-7.9,0-11.9c-0.1-2.3-1.2-3.5-3.6-3.7c-2.2-0.2-4.5-0.1-6.7-0.2
		c-0.9,0-1.1,0.3-1.1,1.2C173,8.3,173,11.1,173,13.8z M163.8,16.5c0.1,0,0.2,0,0.3-0.1c0.4,1.2,0.7,2.4,1.1,3.6
		c0.9,3.4,0.9,3.4,4.4,3.3c0.8,0,1.1-0.2,1.1-1.1c-0.1-5,0-10,0-15.1c0-2.8,0-2.8-2.9-2.8c-1.2,0-1.6,0.4-1.5,1.5
		c0.1,1.7,0,3.4,0,5.1c-0.7-1.2-1.1-2.4-1.5-3.7c-0.9-2.9-0.9-2.9-3.9-2.9c-1,0-1.4,0.3-1.3,1.3c0.1,4.8,0,9.6,0,14.5
		c0,3.3,0,3.3,3.4,3.2c0.8,0,1-0.3,1-1.1C163.8,20.4,163.8,18.4,163.8,16.5z M158.2,23.4c0.1-0.4,0.1-0.5,0.1-0.6
		c-0.9-5.9-1.7-11.8-2.7-17.6c0-0.3-0.6-0.6-1-0.7c-1.4-0.1-2.9,0-4.3,0c-2,0-2,0-2.2,2c-0.6,4.5-1.2,9.1-1.8,13.6
		c-0.1,1.1-0.2,2.1-0.3,3.3c1.4,0,2.7,0,4,0c0.9,0,1.3-0.2,1.3-1.2c0-0.5,0-1,0.1-1.5c0.1-0.3,0.6-0.7,0.8-0.6
		c0.3,0,0.7,0.4,0.8,0.7c0.2,0.5,0.1,1.2,0.2,1.7c0.1,0.3,0.4,0.8,0.6,0.8C155.2,23.4,156.7,23.4,158.2,23.4z"/>
	<path d="M205.4,62.2c-0.8-0.6-1.5-1.2-2.2-1.8c0.1-0.2,0.2-0.3,0.3-0.5c0.3,0,0.7,0,1,0.1c0.7,0.2,1.3,0.5,1.9,0.8
		c1,0.5,0.6,1.3,0.4,2C206.4,62.6,205.9,62.4,205.4,62.2z"/>
	<path d="M83.1,78.8c-1.3,0.1-2.7-0.7-3.1-2c-0.3-1.2-0.3-2.5-0.4-3.8c-0.2,0-0.6,0.1-1.1,0.2c0.6-1,2.1-1.4,3.7-1.1
		c1.1,0.3,1.9,1.1,2.1,2.6c-0.4-0.5-0.6-0.9-0.9-1.1c-0.7-0.4-1.4-0.8-2.1-0.9c-0.2,0-0.7,0.9-0.8,1.5c-0.4,1.5,0.1,2.8,1.3,3.7
		C82.1,78.1,82.6,78.4,83.1,78.8z"/>
	<path d="M106.2,70.3c-0.8,0-1.6-0.7-1.7-1.5c-0.1-0.8,0.8-1.7,1.6-1.7c0.8,0,1.6,0.8,1.6,1.6C107.7,69.5,107,70.3,106.2,70.3z"/>
	<path d="M155,131.1c0.4,0.4,0.6,0.6,0.6,0.7c0,3.8,0,7.5,0,11.3c0,0.3-0.2,0.5-0.3,0.7c-0.1-0.1-0.2-0.2-0.4-0.3
		C155,139.5,155,135.5,155,131.1z"/>
	<path d="M61.9,136.9c0.1,0.7,0.3,1.5,0.3,2.2c0,0.2-0.2,0.5-0.3,0.7c-0.2-0.2-0.4-0.4-0.4-0.6c0-0.8,0.2-1.5,0.2-2.3
		C61.7,136.9,61.8,136.9,61.9,136.9z"/>
	<path d="M186.4,54.1c0.2,0.2,0.6,0.6,1,1c0,0.1-0.1,0.2-0.1,0.4c-1,0-1.9,0.1-2.9,0.1c-0.2,0-0.4-0.3-0.6-0.5
		c0.2-0.2,0.4-0.3,0.6-0.4C185,54.5,185.6,54.4,186.4,54.1z"/>
	<path d="M162.1,53.2c0.4,0.3,0.9,0.7,1.6,1.2c-1.3,0.4-2.2,0.7-3.1,0.9c-0.1,0-0.4-0.2-0.5-0.3c0.1-0.2,0.2-0.5,0.4-0.6
		c0.5-0.3,1.1-0.6,1.6-0.9C162.1,53.4,162.1,53.3,162.1,53.2z"/>
	<path d="M124.6,66.4c0.7,0.1,1.3,0.5,1.3,1.5c0,1-0.6,1.6-1.6,1.6c-1,0-1.4-0.6-1.5-1.4C122.7,67.2,123.6,66.4,124.6,66.4z"/>
	<path d="M136.1,10.1c0,0.5,0,1.1-0.1,1.5c-0.1,0.3-0.6,0.5-0.9,0.7c-0.1-0.3-0.4-0.6-0.4-0.8c-0.1-0.9-0.1-1.9,0-2.8
		c0-0.3,0.3-0.6,0.5-0.8c0.3,0.3,0.7,0.5,0.8,0.8C136.1,9.2,136,9.7,136.1,10.1C136,10.1,136.1,10.1,136.1,10.1z"/>
	<path d="M178.1,13.9c0-1.7,0-3.4,0-5.2c0-0.3,0.3-0.6,0.4-0.9c0.3,0.2,0.6,0.4,0.8,0.8c0.2,0.4,0.2,0.8,0.2,1.3c0,2.9,0,5.7,0,8.6
		c0,0.3,0,0.6-0.2,0.8c-0.2,0.2-0.5,0.4-0.8,0.5c-0.1-0.3-0.4-0.5-0.4-0.8C178,17.4,178,15.6,178.1,13.9
		C178,13.9,178,13.9,178.1,13.9z"/>
	<path d="M152.8,16.4c-0.6,0-0.9,0-1.5,0c0.2-1.7,0.4-3.3,0.5-5c0.1,0,0.2,0,0.3,0C152.3,13,152.5,14.6,152.8,16.4z"/>
</g>
</svg>
