<?xml version="1.0" encoding="utf-8"?>
<!-- Generator: Adobe Illustrator 24.0.2, SVG Export Plug-In . SVG Version: 6.00 Build 0)  -->
<svg version="1.1" id="Слой_1" xmlns="http://www.w3.org/2000/svg" xmlns:xlink="http://www.w3.org/1999/xlink" x="0px" y="0px"
	 viewBox="0 0 238.1 150.2" style="enable-background:new 0 0 238.1 150.2;" xml:space="preserve">
<g>
	<path d="M161.4,22.5c-0.4,1.3-0.2,2.7,0.3,4.1c0.5-0.7,1-1.3,1.4-2c0.1-0.2,0-0.5,0-0.7c-0.2-0.8,0.2-1.6,0.9-1.9
		c0.6-0.2,1.3,0.1,1.6,0.8c0.4,0.9,0.1,1.8-0.9,2.2c0,0.4,0,0.7,0,1.1c0,0.2,0,0.4,0,0.8c0.6-0.8,1.1-1.5,1.6-2.2
		c0.5-0.6,1.2-1.1,1.7-1.6c0.2-0.2,0.3-0.4,0.4-0.6c0.1-0.9,0.6-1.5,1.2-1.5c0.6-0.1,1.3,0.5,1.4,1.2c0.2,1-0.2,1.8-1,2
		c-0.5,0.1-0.6,0.4-0.7,0.7c-0.5,1.4-1.2,2.8-1.1,4.3c0,0.2,0.1,0.4,0.2,0.8c0.3-0.4,0.5-0.6,0.6-0.8c0.6-1,1.1-1.9,1.6-2.9
		c0.1-0.2,0.1-0.4,0-0.6c-0.2-0.9,0.3-1.6,1-1.9c0.5-0.2,0.9-0.1,1.2,0.3c0.5,0.5,0.7,1.1,0.5,1.6c-0.1,0.8-0.6,1.1-1.3,1.2
		c-0.2,0-0.4,0.2-0.5,0.4c-1,1.6-1.3,3.5-1.8,5.3c-0.1,0.5,0.3,0.9,0.8,0.8c3.5-0.7,6.4,0.7,8.1,3.8c1.1,1.9,1.6,3.9,1.4,6.1
		c0,0.2-0.1,0.5-0.1,0.6c0.8-0.3,1.5-0.6,2.3-0.8c0.5-0.1,1.4,0.6,1.7,1.2c0.3,0.7,0.4,0.8,1,0.2c0.1-0.1,0.1-0.1,0.2-0.2
		c1.5-0.6,3-1.2,4.5-1.6c3.3-1.1,6.5-2,9.8-3c0.5-0.2,0.9-0.6,1.2-0.9c0.1-0.1,0-0.4,0-0.7s-0.2-0.7-0.1-0.9
		c0.2-0.2,0.6-0.4,0.9-0.4c0.2,0,0.5,0.3,0.6,0.5c0.2,0.5,0.3,1.1,0.5,1.6c0.6-0.2,1.2-0.3,1.6-0.5c0.1,0,0.2-0.3,0.2-0.4
		c-0.1-0.9,0.4-1.5,1-2.1c0.8-0.9,1.8-0.6,2.1,0.5c0.2,0.6,0.4,1.3,0.9,1.5c0.7,0.3,0.7,0.9,0.9,1.3c0,0.1,0.3,0.2,0.5,0.1
		c0.6-0.2,1,0,1.3,0.5c0.1,0.1,0.4,0.1,0.6,0.1c0.9-0.2,1.6-0.5,2.5-0.8c0.2-0.1,0.5-0.1,0.8-0.2c0.3,0.8,0.5,1.5,0.9,2.4
		c-1.2,0.4-2.3,0.8-3.5,1.1c-0.1,0.4,0,0.9-0.2,1.2c-0.1,0.2-0.6,0.3-0.9,0.4c-1.3,0.4-2.7,0.9-4,1.2c-0.2,0.1-0.4,0.3-0.5,0.5
		c-0.8,1.3,0,2.6,0.3,3.8c0.1,0.4,0.2,0.8,0.2,1.2c0,0.9-0.3,1.3-1.2,1.6c-1.2,0.4-2.5,0.8-3.8,1.2c0.8,0.8,0.9,1.6,0.3,2.4
		c1.1,1.2,1.2,1.6,0.6,2.7c1.4,1.1,1.5,1.8,0.6,3c0.1,0.4,0.4,0.8,0.4,1.1c-0.1,0.3-0.5,0.5-0.9,0.8c0.2,0.7,0.5,1.5,0.7,2.3
		c0.8,2.6,1.6,5.2,2.4,7.8c0.1,0.5,0.1,0.8-0.6,0.9c-1.3,0.3-2.6,0.8-3.8,1.2c-0.5,0.2-0.6,0-0.8-0.4c-0.8-2.5-1.5-5-2.3-7.5
		c-0.3-1-0.6-1.9-0.9-2.7c-0.4-0.1-0.7-0.2-1-0.3c-0.2,0-0.4-0.1-0.5,0c-1.2,0.3-2.3,0.7-3.6,1c-4,1.1-7.8,2.7-10.8,5.6
		c-1.3,1.3-2.5,2.9-3.6,4.5c-2.4,3.9,0.4,9.7,5,11c2,0.6,4.1,0.6,6.2-0.1c1.5-0.6,2.7-1.6,3.5-3.1c0.5-0.9,1-1.6,1.3-2.4
		c0.1,0,0.2,0.1,0.3,0.1c0,0.8,0,1.5-0.2,2.3c-0.3,1.5-0.7,3-1.4,4.3c-1.4,2.6-3.3,4.9-5.9,6.3c-1.4,0.8-3,1.2-4.6,1.1
		c-0.2,0-0.3,0-0.5,0c-0.1,0.9-0.2,1.8-0.3,2.7c-0.3,3.9-2.5,7.3-6.6,8.5c-1.2,0.4-2.5,0.3-3.7,0.1c-0.7-0.1-1.1-0.7-0.7-1.3
		c0.5-1.1,1.2-2,1.7-3.1c0.2-0.4,0.5-0.8,0.7-1.2l-0.1-0.1c-0.8,0.8-1.4,1.6-2.2,2.3c-1.2,1-2,2.2-2.8,3.6c-0.8,1.2-1.8,1.8-3.2,2.1
		c-0.5,0.1-1,0.3-1.4,0.4c-1.4,0.3-2.8-0.2-3.7-1.4c-0.8-1.1-1.4-2.1-1.3-3.6c0.1-0.7,0.4-1.3,0.6-1.9c0.1-0.2,0.3-0.5,0.5-0.8
		c-1.5,0.5-2.7,1.2-3.5,2.5c-0.1,0.2-0.2,0.3-0.3,0.5c-0.7,0.9-0.6,1.4,0.3,2.1c0.7,0.6,1,1.2,0.9,2c-0.1,1.5,0.4,1.9,1.6,2.3
		c1.3,0.5,2.7,1.1,3.7,2c0.8,0.7,1.7,0.7,2.7,0.5c1.4-0.4,2.8-0.3,3.8,0.9c0.5,0.5,0.9,1.2,1.2,1.7c0.4,0.8,0.6,1.6,0.9,2.5
		c0.2,0.8-0.1,1.2-0.8,1.5c-1.3,0.5-1.3,0.5-1.3,1.8c0,2.4,0.1,4.7,0.1,7.1c0,3.1-1.5,5.3-3.8,7c-2.4,1.8-6.3,1.2-7.6-2.7
		c-0.9-2.7-0.9-5.5-0.7-8.2c0-0.2,0-0.5-0.2-0.7c-1.6-2.4-3.2-4.9-4.8-7.2c-0.9-1.2-2.1-1.9-3.5-2.5c-1.7-0.9-3.5-1.6-5.1-2.7
		c-1.9-1.2-2.8-3.1-2.9-5.3c-0.1-2,0.7-3.7,1.3-5.5c0.6-1.5,1.3-3,2-4.5c0-0.1,0-0.1,0,0c-1.6-0.7-3.4-1.2-4.9-1.9
		c-1.7-0.9-2.6-2.4-3.2-4.2c0.9,0.3,1.7,0.6,2.5,0.8c2.4,0.6,4.6-0.5,5.4-2.8c1.1-2.9,1.3-5.8,0.3-8.7c-0.6-1.7-1.6-3.3-2.8-4.7
		c-2.1-2.6-4.6-4.7-7.6-6.1c-1.6-0.8-3.4-1.2-5-1.7c-1.9-0.6-3.6-1.5-5.2-2.6c-0.2-0.1-0.3-0.2-0.5-0.4c-0.8,0.8-1.7,1.1-2.8,1.2
		c-0.1,0-0.3,0.3-0.3,0.4c-0.8,2.5-1.5,5-2.3,7.5c-0.3,0.9-0.5,1.6-0.8,2.5c-0.1,0.3-0.3,0.5-0.6,0.3c-1.3-0.4-2.6-0.9-3.9-1.2
		c-0.6-0.2-0.8-0.4-0.6-1c1-3.1,1.9-6.2,2.9-9.2c0.2-0.5,0.4-1-0.4-1.2c-0.1,0-0.3-0.3-0.2-0.5c0-0.3,0.2-0.6,0.3-0.9
		c-1-1.2-0.8-1.8,0.6-3.1c-0.5-1.3-0.4-1.6,0.6-2.6c-0.5-0.9-0.5-1.6,0.2-2.4c-1.2-0.4-2.5-0.8-3.7-1.2c-1.1-0.4-1.5-1.2-1.2-2.2
		c0.3-0.9,0.7-1.7,0.8-2.6c0.1-0.7-0.2-1.4-0.4-2.1c0-0.1-0.3-0.1-0.4-0.2c-1.4-0.5-2.8-1-4.2-1.3c-0.7-0.2-1-0.7-0.7-1.4
		c-1.1-0.3-2.1-0.7-3.1-1c-0.5-0.1-0.6-0.3-0.4-0.7c0.2-0.4,0.3-0.9,0.4-1.2c0.1-0.7,0.5-0.7,1-0.5c1,0.3,1.9,0.6,2.9,0.9
		c0.3-0.7,0.7-1,1.3-0.7c0.4,0.1,0.5-0.1,0.6-0.4c0.1-0.8,0.8-1.1,1.2-1.5c0.2-0.2,0.2-0.5,0.4-0.8c0.2-0.5,0.3-1.2,1-1.2
		c0.7-0.1,1.2,0.2,1.5,0.8c0.4,0.6,1,1.2,0.6,2.1c0.6,0.2,1.2,0.4,1.6,0.5c0.1,0,0.3-0.2,0.4-0.3c0.2-0.4,0.2-0.8,0.4-1.2
		c0.1-0.2,0.4-0.5,0.5-0.5c0.3,0,0.7,0.2,0.9,0.4c0.1,0.1,0.1,0.5,0,0.8c-0.3,0.5-0.2,0.8,0.3,1.1c1.4,1.1,3.2,1.2,4.7,1.7
		c2.9,1,5.8,1.8,8.6,2.7c0.3,0.1,0.5,0.3,0.8,0.6c0.3-2.6,1.6-4.4,3.7-5.8c2-1.4,4.3-1.7,6.8-0.9c-0.2-0.4-0.2-0.6-0.3-0.8
		c-0.3-0.6-0.4-1.1-0.2-1.7c0.1-0.2,0.1-0.5,0-0.6c-0.8-1.5-1.6-3.2-2.5-4.7c-0.2-0.4-0.5-0.5-0.9-0.5c-0.9,0-1.4-0.7-1.4-1.5
		c0-0.8,0.6-1.6,1.5-1.5c0.8,0.1,1.3,0.9,1.3,1.7c0,0.2,0,0.4,0.1,0.6c0.7,0.9,1.2,1.6,1.9,2.5c0.2,0.2,0.4,0.4,0.6,0.6
		c0.1,0,0.2-0.1,0.3-0.1c0-0.4,0-0.9-0.1-1.2c-0.6-1.3-1.2-2.6-1.8-3.8c-0.1-0.2-0.4-0.2-0.7-0.3c-0.8-0.1-1.2-0.9-1.2-1.9
		c0.1-0.8,0.8-1.2,1.4-1.2c0.6,0,1.2,0.6,1.2,1.2c0,0.2,0.1,0.4,0.3,0.5c1.5,0.8,2.8,1.8,3.8,3.2c0,0.1,0.1,0.1,0.3,0.2
		c-0.1-0.5-0.1-1-0.2-1.3c-0.1-0.2-0.3-0.5-0.6-0.6c-0.7-0.4-1-1.2-0.8-1.8c0.2-0.7,0.8-1.1,1.4-1c0.8,0.1,1.3,1,1.2,1.7
		c-0.1,0.4,0,0.6,0.3,0.9c0.5,0.5,1,1,1.4,1.3c0,0,0.1,0,0.2,0c0.2-1.3,0.1-2.6-0.4-3.8c0-0.1-0.3-0.2-0.5-0.2
		c-0.9,0-1.5-0.6-1.6-1.5c-0.1-0.9,0.5-1.6,1.2-1.8c0.9-0.1,1.5,0.4,1.7,1.2c0,0.2,0.1,0.4,0.2,0.5c1.5,1.2,2.6,2.7,3.7,4.2
		c0.4,0.6,0.9,1.1,1.4,1.4c0.7,0.6,1.4,0.6,2-0.2c0.6-0.8,1.2-1.6,1.5-2.5c0.7-1.3,1.4-2.7,2.4-3.8c0.2-0.2,0.2-0.5,0.3-0.7
		c0.1-0.9,0.7-1.4,1.5-1.4c0.8,0,1.4,0.8,1.4,1.5C163.2,21.8,162.9,22.3,161.4,22.5z M168.5,25.5c-0.9,1.1-1.1,4.2-0.4,4.5
		c0-0.6-0.1-1.2-0.1-1.8C168.1,27.4,168.4,26.5,168.5,25.5c0.3-0.5,0.5-0.9,0.7-1.3c0.1-0.3,0-0.6,0-0.8c-0.3,0.1-0.5,0.1-0.8,0.2
		c-0.1,0-0.3,0.1-0.4,0.1c0.1,0.1,0.1,0.1,0.2,0.2c0.3-0.1,0.5-0.3,0.9-0.5C168.9,24.3,168.7,24.9,168.5,25.5z M138.1,27.5
		c-0.3-0.4-0.8-0.4-1,0c-0.2,0.3-0.4,0.7,0.1,1c0.3,0.5,0.6,0.4,0.9,0.1C138.4,28.2,138.3,27.8,138.1,27.5z M169.5,21.8
		c-0.1,0.1-0.3,0.3-0.3,0.4c-0.1,0.4,0,0.8,0.4,0.9c0.3,0.1,0.8,0,0.8-0.1c0.1-0.4,0.1-0.8-0.1-1.1
		C170.3,21.5,169.9,21.5,169.5,21.8L169.5,21.8z M157.8,69.1L157.8,69.1c-0.8-0.6-2.9-0.5-3.5,0.1c-0.1,0.1-0.1,0.2-0.2,0.3
		c-0.7,1.2-0.1,2.7,1.2,3c0.4,0.1,0.7,0.1,1.1,0.1c1.5,0,2.5-1.4,1.9-2.9C158.2,69.4,158,69.3,157.8,69.1z M142.9,50.8
		c-1.2,2.5-1.8,5.1-1.4,7.9c0.2,1.4,0.6,2.7,1.4,3.8c1.2,1.6,3,2.6,4.8,3.3c3.5,1.2,7,1.2,10.6,0.9c2.6-0.3,5.2-1,7.6-2.2
		c3.1-1.5,5.8-3.6,7.5-6.5c0.7-1.2,1.2-2.6,1-4c-0.1-1.1-0.4-2.2-0.8-3.3c-0.7-1.7-1.6-3.3-3.5-4c-0.1-0.1-0.3-0.1-0.4-0.2
		c1.1-0.1,1.9,0.4,2.7,1.1c0-0.3,0-0.5-0.1-0.7c-0.5-1.9-1.3-3.7-2.6-5.3c-1.7-2.2-3.9-3.4-6.8-3.2c-2.4,0.2-4.9,0.3-7.4,0.5
		c-2.7,0.3-5.4,0.8-8,1.2c-0.7,0.1-1.4,0.3-1.8,0.7c-0.8,0.7-1.3,1.5-1.9,2.5c-1.1,1.7-1.6,3.7-1.8,5.7c-0.1,1.1-0.1,2-0.2,3.1
		c0.1,0,0.1,0,0.2,0C142.2,51.7,142.5,51.3,142.9,50.8z M165.3,99.7c0-0.4,0-0.7,0-0.9c0-2.2,0-4.3,0-6.5c0-1.9-0.5-3.7-1.4-5.4
		c-0.4-0.7-1-1.2-1.5-1.8c-1.4-1.2-3.4-0.6-4.3,1.1c-0.6,1.1-0.5,2.2-0.6,3.3c-0.2,2.5,0.1,5,0.9,7.3c0.9,2.7,2.5,4.8,5.2,6
		c0.3,0.1,0.5,0.3,0.9,0.5c-1.7,0.4-3.3,0.7-5,1c0.5,0.8,0.9,1.4,1.2,2.1c1,1.3,2,1.6,3.4,0.8c1.1-0.7,2.1-1.4,2.8-2.6
		c1.2-2.1,1.8-4.2,0.4-6.4C166.6,98.7,166,99.1,165.3,99.7z M162.5,125.9c-0.5-0.2-0.9-0.3-1.2-0.5c-1.3-0.6-1.5-0.6-2.5,0.4
		c-0.4,0.4-1,0.8-1,1.2c-0.2,1.6-0.3,3.3,0.2,4.9c1,2.8,4.5,3.5,6.4,2.2c1.7-1.2,2.5-2.8,2.7-4.8c0.1-1.4,0-2.9,0-4.3
		c0-1,0-1.9-0.2-2.9c-0.3-2-0.1-2.7,1.4-3.4c-0.4-0.8-0.8-1.6-1.2-2.3c-0.9-1.3-2.1-1.7-3.7-1.2c-0.1,0.1-0.3,0.3-0.3,0.4
		c-0.2,1.4-0.3,2.8-0.4,4.2C162.8,121.8,162.7,123.8,162.5,125.9z M179.6,45.6c-0.9,1.9-2.2,3.3-3.7,4.3c-0.3,0.2-0.4,0.5-0.4,0.8
		c0.1,0.6,0.1,1.1,0.2,1.6c0.4,3,0,5.8-2.1,8.1c-0.7,0.8-1.3,1.4-1.9,2.1c0,0.1,0.1,0.1,0.1,0.2c1.3-0.6,2.8-1.1,4.1-1.7
		c1.3-0.7,2.6-1.6,3.9-2.3c2.9-1.3,5.8-2.5,8.7-3.7c0.7-0.3,1.2-0.1,1.8,0.4c0.5-0.8,1.2-1.4,0.4-2.4c-0.2-0.1-0.6-0.1-0.6-0.2
		c-0.3-0.8-1-0.5-1.5-0.7c-0.5-0.1-1-0.2-1.3-0.2c-1.6-0.2-3.3-0.7-4.8,0.2c-0.4,0.2-0.7,0.1-0.8-0.5
		C180.9,49.7,180.4,47.7,179.6,45.6z M150.7,76.2c0.1,0.3,0.2,0.6,0.3,0.9c0.9,2.1,1.1,4.3,0.3,6.5c-0.4,1.2-0.8,2.4-1.1,3.7
		c-0.4,1.2,0.1,2.2,1.1,3.1c1-1.2,1.8-2.4,2.8-3.7c0.6,0.7,1.2,1.3,1.7,2.1c0.2-0.7,0.3-1.2,0.4-1.8c0.4-2,1.2-3.5,3.4-3.9
		c0.8-0.2,1-0.7,1.1-1.4c0.1-0.9,0.1-1.7,0.3-2.6c0.2-1,0.4-1.9,0.6-2.9c-1.1-0.7-2.2-1.2-3.3-1.9c-0.2-0.1-0.4-0.2-0.5-0.2
		c-0.9,0-1.8,0.1-2.7,0.1c-0.3,0-0.6-0.1-0.7,0C153.1,74.7,151.9,75.5,150.7,76.2z M170.5,71.9c0-2,0.6-3.7,1.8-5.5
		c0,1.2,0.3,1.9,1,2.5c0.1-0.4,0.2-0.8,0.3-1.2c0.4-1.1,1-1.7,2.1-2.1c1.6-0.5,3.3-0.5,4.9-0.2c1,0.2,1.8-0.2,2.4-1
		c0.5-0.8,0.9-1.5,1.4-2.2c0.5-0.6,1.1-0.9,1.8-0.8c0.6,0.1,1.3,0.3,1.6-0.6c0.9,0.7,1.7,1.2,2.8,1c-0.7-1.8-1.9-3.3-2.1-5.3
		c-0.8,0-1.3,0.3-1.7,0.8c-0.6,0.7-0.4,1.3,0,2c-0.3-0.2-0.5-0.3-0.7-0.5c-0.2-0.2-0.4-0.3-0.7-0.6c0,0.5,0,0.8,0,1.1
		c-0.7-1-1.5-0.9-2.3-0.5c-0.5,0.2-1,0.4-1.3,0.7c-1.9,1.1-3.8,2-5.6,3.3c-1.5,1.1-3.1,1.7-4.9,1.7c-1.1,0-1.6,0.5-1.8,1.5
		c-0.1,0.6,0,1.1,0,1.6C169.4,69.4,169.8,70.5,170.5,71.9z M165.1,75.9c0-0.1,0-0.1,0.1-0.2c-0.4-0.2-0.8-0.4-1.2-0.6
		c0.6,0,1.2,0.2,1.7,0.3c0.5,0.1,1-0.3,1.2-1c0.2-0.5-0.3-0.6-0.5-0.7s-0.3-0.2-0.5-0.3c0.1-0.1,0.2,0,0.2,0c0.3,0,0.9,0,1-0.2
		c0.3-0.5-0.2-0.7-0.6-0.9c-0.4-0.2-0.9-0.4-1.2-0.6v-0.1c0.6,0.1,1.2,0.1,1.8,0.2c0-0.8,0-1.4,0-2.1c-1,0.1-2,0.3-3,0.4
		c0-0.1,0-0.1,0-0.2c0.5-0.1,0.9-0.1,1.3-0.3c0.6-0.2,1.2-0.5,1.7-0.8c0.7-0.4,0.4-1.2,0.6-1.9c-0.6-0.1-1.2-0.2-1.8-0.3v-0.1
		c0.6-0.1,1.2-0.2,1.7-0.3c-0.3-0.7-0.4-0.7-1.1-0.5c-1.5,0.6-3.1,1.2-4.7,1.6c-1.2,0.3-2,1-2.9,1.8c0.2,0,0.4,0.1,0.6,0.1
		c-0.2,0.2-0.3,0.3-0.6,0.5c0.9-0.2,1.4-0.4,2.1-0.6v0.1c-0.7,0.4-1.4,0.8-2.3,1.2c0.4,0.2,0.6,0.4,0.8,0.5c0.2,0.1,0.5,0.2,0.7,0.3
		c-0.2,0.1-0.4,0.1-0.6,0.1s-0.4,0-0.7,0c0.1,0.3,0.2,0.5,0.3,0.8c-0.3,0-0.6,0-0.8,0c0,0.1,0,0.1-0.1,0.2
		C160.6,73.7,162.6,75.1,165.1,75.9z M173.7,48.8c1.9-1.2,3.5-2.5,4.4-4.3c1-1.7,1.1-3.6,0.1-5.3c-0.7-1.2-1.6-2.3-2.8-3.2
		c-1.6-1.2-3.4-1.6-5.4-0.8c0.1,0.8,0.1,1.5,0.2,2.4c0.4-0.2,0.7-0.3,1-0.4c0.3-0.1,0.6-0.2,1-0.3c-0.4-0.1-0.8-0.2-1.1-0.3
		c0.2-0.1,0.4-0.1,0.6-0.1c1.4-0.2,2.5,0.4,2.8,1.4c0.2,0.8,0.3,1.6,0.3,2.4c0,1.6-0.6,3-2,3.8c-0.1,0.1-0.3,0.3-0.3,0.4
		C173,46.1,173.3,47.4,173.7,48.8z M147.2,71.7C147.2,71.7,147.2,71.8,147.2,71.7c-0.1,0.2-0.3,0.3-0.5,0.4
		c-0.4,0.2-0.8,0.4-1.1,0.6c-0.1,0.1-0.3,0.4-0.2,0.5c0.1,0.1,0.3,0.3,0.5,0.3s0.5-0.1,0.8-0.1v0.1c-0.4,0.2-0.8,0.5-1.1,0.7
		c0.3,1.2,0.7,1.4,1.8,1.2c0.4-0.1,0.8-0.2,1.2-0.3V75c-0.4,0.2-0.8,0.4-1.2,0.6c2.4-0.7,4.5-2,6.6-3.4c0-0.1,0-0.1,0-0.2
		c-0.3,0-0.5,0-0.8,0c0.1-0.2,0.2-0.4,0.3-0.7c-0.5,0-0.9,0-1.3,0c0.2-0.2,0.4-0.2,0.5-0.3c0.2-0.1,0.4-0.3,0.7-0.5
		c-0.2-0.2-0.4-0.4-0.6-0.6c-0.5-0.3-1-0.5-1.4-0.7v-0.1c0.7,0.2,1.3,0.4,2,0.6c0,0,0-0.1,0.1-0.1c-0.2-0.1-0.3-0.3-0.5-0.5
		c0.2,0,0.4,0,0.5,0c0-0.1,0.1-0.1,0.1-0.2c-0.6-0.4-1.1-1-1.7-1.2c-1.5-0.5-3.2-0.8-4.8-1.2c-0.8-0.2-1.6-0.2-2.4,0.1
		c0.1,0.8,0,1.4,0.8,1.9c0.4,0.2,0.8,0.5,1.2,0.6c0.5,0.2,1.1,0.3,1.5,0.4c0,0.1,0,0.1,0,0.2c-1-0.1-1.9-0.3-2.9-0.4
		c0,0.7,0,1.4,0,2.2C145.9,71.9,146.5,71.8,147.2,71.7z M139,54.4c-0.4-0.2-0.8-0.4-1.2-0.5c-1-0.4-1.7-1.2-2.8-1.2
		c-0.8,0-1.5-0.6-2.4-0.4c-1,0.2-2,0.2-3,0.5c-0.8,0.2-1.8-0.1-2.3,0.9c0,0.1-0.2,0-0.3,0.1c-0.6,0.1-0.6,0.6-0.5,1
		c0.3,1.3,1.7,2.1,3.1,1.8c1.1-0.3,2.1-0.6,3.2-0.1c2,0.8,4,1.6,6,2.5c0.1,0,0.2,0,0.3,0.1C139,57.3,139,55.9,139,54.4z M133.8,59.7
		c-0.5,1.2-0.9,2.2-0.5,3.5c0.1-0.2,0.2-0.3,0.2-0.4c0.6-1.2,1.5-1.5,2.7-0.8c0.5,0.3,0.9,0.6,1.2,0.9c1.2,0.9,2.2,1.9,2.7,3.4
		c0.1,0.3,0.1,0.7,0.2,1c0.1,0,0.1,0,0.2,0c0.3-0.6,0.5-1.2,0.8-1.8c0.3,1.2,0.6,2.4,1,3.7c0.7-1.2,0.9-2.5,0.8-3.8
		c0-0.3-0.2-0.6-0.4-0.8c-0.5-0.5-1.1-0.9-1.4-1.3c-0.9-1.2-2-2-3.3-2.9c-0.3,0.3-0.5,0.6-0.9,1.1c-0.1-0.4-0.1-0.7-0.2-0.9
		c-0.1-0.4-0.2-1-0.4-1.2c-1-0.7-1.9-1.2-3.2-1.5c-1.3-0.3-2.5,0.2-3.4,1.2c-0.9,1.1-1.2,2.2-1.1,3.7c0.8-1.1,1.5-1.9,2.3-2.9
		c-0.1,1.1-0.2,1.8-0.3,2.7C132,61,132.5,60.5,133.8,59.7z M205.2,73.5c-1.1-3.5-2.1-6.7-3.1-10.1c-1,0.3-1.9,0.7-2.9,0.9
		c-0.6,0.2-0.8,0.4-0.5,1c0,0.1,0.1,0.2,0.1,0.2c1,3.1,1.9,6.1,2.8,9.1C202.7,74.3,203.9,73.9,205.2,73.5z M115.8,75.1
		c0.4-1.2,0.7-2.2,1.1-3.3c0.7-2,1.2-4.1,1.9-6.2c0.1-0.5,0.1-0.7-0.4-0.8c-0.8-0.2-1.5-0.4-2.3-0.8c-0.5-0.2-0.6-0.1-0.8,0.3
		c-0.1,0.2-0.1,0.4-0.2,0.6c-0.9,2.8-1.7,5.7-2.6,8.5c-0.1,0.5,0,0.6,0.4,0.7C113.8,74.5,114.7,74.8,115.8,75.1z M168.3,24.5
		c-1.2,1-1.9,2.3-2.5,3.7c-0.5,1.1-1.2,1.7-2.5,1.7c-1.2,0-2.1-0.7-2.4-1.8c-0.3-1-0.5-2-0.6-3.1c-0.1-0.6,0-1.2,0-1.8
		c-0.1,0-0.1,0-0.2,0c-0.1,0.3-0.3,0.5-0.4,0.8c-0.8,1.6-1.6,3.2-2.4,4.8c-0.9,1.5-3.1,1.7-4.2,0.2c-1-1.3-1.9-2.7-2.9-3.9
		c-0.2-0.3-0.5-0.7-0.7-1c0,0.5,0.1,1,0.1,1.4c0.1,1.3,0.3,2.7-0.2,4c-0.6,1.7-2.8,2.3-4.1,1c-0.6-0.6-1-1.3-1.5-1.9
		c-0.7-0.8-1.4-1.4-2.1-2.1c-0.1,0.1-0.1,0.1-0.2,0.2c0.3,0.5,0.6,1.1,0.9,1.5c0.6,1.2,1.2,2.3,1,3.7c-0.1,0.5-0.4,1-0.7,1.2
		c-0.4,0.3-0.9-0.1-1.2-0.4c-0.1-0.1-0.1-0.1-0.2-0.2l-0.1,0.1c0.3,0.7,0.6,1.3,0.9,1.9c0.1,0,0.2-0.1,0.2-0.1
		c-0.1-0.4-0.3-0.7-0.5-1.1c1.7,0,2.2-0.7,2.1-2.7c0.2,0.4,0.2,0.8,0.4,1.2c0.1,0.2,0.3,0.3,0.5,0.4c0-0.2,0.1-0.4,0.1-0.5
		s-0.1-0.3-0.2-0.4c-0.4-0.8-0.8-1.5-1.2-2.2c0.5,0.4,1,0.9,1.2,1.4c0.5,0.7,1.1,1.1,1.8,1.2c1.8,0.3,3.3-0.5,3.4-2.4
		c0.1-1,0.2-1.8,0.3-2.7h0.1c0.2,0.9,0.5,1.8,0.8,2.9c0-0.8,0-1.3,0-2c0.5,0.7,1,1.2,1.3,1.7c1.2,1.8,4.8,1.5,5.7-0.4
		c0.3-0.7,0.7-1.2,1.1-1.9c0.1,0.6,0.2,1.1,0.3,1.7c0.1-1.1,0.2-1.9,0.4-3c0.4,1.2,0.7,2.3,1.1,3.4c0.2,0.7,0.7,1.2,1.2,1.4
		c1.2,0.5,3.1,0,3.8-1.5c0.3-0.6,0.6-1.2,1-1.7c0.1,0,0.1,0,0.2,0.1c-0.2,0.6-0.4,1.2-0.6,1.7c-0.1,0.6-0.6,1.2-0.1,1.8
		c0.2-0.3,0.3-0.5,0.4-0.8c0.1-0.3,0.1-0.6,0.1-0.9c0.3,1.8,1.1,2.9,2.6,2.2c-0.1,0.4-0.1,0.7-0.2,1.1h0.1c0.2-0.6,0.3-1.2,0.5-1.8
		c-0.2,0-0.3,0.1-0.4,0.2c-0.7,0.6-1.4,0.6-1.7-0.3c-0.2-0.6-0.4-1.3-0.3-1.9C167.6,27,168,25.7,168.3,24.5z M142.8,108.9
		c0.1-4.2,2.2-7,6.2-8.4c0-0.1,0-0.2,0-0.2c-0.9-0.1-1.8-0.3-2.7-0.4c0.1-0.1,0.1-0.2,0.2-0.3c0.4-0.2,0.8-0.3,1.2-0.4
		c0.5-0.1,0.8-0.7,0.5-0.8c-1-0.3-1.9-0.5-2.9-0.7c-0.6,0.8-1.2,1.5-1.6,2.4c-0.4,0.7-0.5,1.4-0.8,2.2c-0.6,1.4-1.2,2.9-1,4.5
		C141.9,107.7,142.1,108.4,142.8,108.9z M145.4,39.5c0,0.1,0,0.1,0.1,0.2c3.4-0.8,6.8-1.4,10.3-1.6c3.5-0.2,7-0.2,10.5-0.4l0,0
		c-1.9-0.2-3.8-0.4-5.7-0.7c0-0.1,0-0.1,0-0.2c1.8,0.1,3.7,0.2,5.6,0.5c1.1,0.2,2,0.7,3,1.2c0.6,0.3,0.5,0.6-0.1,1
		c0.2,0,0.5,0,0.5-0.1c0.1-0.3,0.2-0.7,0.1-0.8c-0.2-0.3-0.6-0.5-1-0.7c-1.7-0.9-3.7-1.1-5.6-1.2c-3.2-0.2-6.3,0-9.5,0.4
		c-2.7,0.3-5.4,0.8-8,1.7c-1.2,0.4-2.2,1-3,1.9c-0.1,0.1-0.1,0.5,0,0.7s0.4,0.2,0.6,0.4c0-0.1,0.1-0.1,0.1-0.2
		c-0.2-0.1-0.3-0.2-0.6-0.4c2.3-2.3,5.2-2.7,8.1-3.2c-0.9,0.3-1.7,0.5-2.7,0.8C147.1,38.8,146.2,39.2,145.4,39.5z M144.9,37.4
		c1.1-0.2,2.2-0.4,3.4-0.5c-0.1,0.1-0.2,0.1-0.3,0.3c1.5-0.3,3-0.5,4.4-0.8l0,0c-0.2,0-0.3,0-0.5,0c0,0,0,0,0-0.1
		c1-0.2,1.9-0.4,2.9-0.6v-0.1c-0.5,0-1.1,0-1.5,0c0,0,0,0,0-0.1c0.6-0.2,1.1-0.3,1.6-0.5V35c-0.7,0-1.2,0-1.9,0c0,0,0,0,0-0.1
		c0.7-0.2,1.2-0.3,1.9-0.5c0-0.1,0-0.1,0-0.2c-0.5,0-0.9,0-1.4-0.1c0.6-0.2,1.1-0.4,1.5-0.5v-0.1c-0.6,0-1.2-0.1-1.7-0.1v-0.1
		c0.4-0.1,0.8-0.2,1.2-0.2c-1.2-0.1-2.4-0.1-3.5,0.1c-1.8,0.4-3.7,0.9-5.6,1.3c-0.5,0.1-1,0.6-1.4,0.7c-0.7,0.2-0.8,0.7-1.1,1.1
		c-0.3,0.4,0,0.8,0,1.2c0,0.3,0.1,0.5,0.2,0.9c0.3,0,0.6-0.1,1.1-0.2c-0.9-0.6-1.1-1.1-0.8-1.7c0.1-0.3,0.5-0.7,0.7-0.7
		c0.3,0,0.7,0.3,0.8,0.6C144.9,36.6,144.8,37.1,144.9,37.4z M136.4,42.4c0.1,0,0.1,0,0.2,0c0.8-0.8,1.7-1,2.8-0.7c1,0.3,2,0.6,3,0.8
		c0-0.1,0.1-0.2,0.2-0.4c-1-0.2-1.2-0.6-1.1-1.5c0.1-0.6,0-0.8-0.6-1c-0.7-0.2-1.3-0.4-2-0.5c-2.8-0.6-5.7,1.9-5.5,4.9
		c0.6-0.9,1.3-0.9,2.1-0.5c-0.1-2,0.1-2.6,1.1-2.9C136.7,41.3,136.5,41.9,136.4,42.4z M140.1,53c0.3-2.1,0.5-3.9,0.7-5.7
		c-1.1-0.4-2-0.7-3.1-1.1c-0.4,1.3-0.9,2.7-1.2,4.1c0,0.1,0,0.4,0.2,0.5C137.7,51.6,138.8,52.2,140.1,53z M166.8,35.8
		c-0.1-0.3-0.2-0.5-0.3-0.7c-0.1-0.6,0.3-1.3,0.7-1.4c0.5-0.1,1.1,0.4,1.1,1.1c0,0.5-0.3,0.9-0.4,1.3c0.2,0,0.5,0,0.9,0
		c-0.1-0.1-0.3-0.2-0.3-0.2c0-0.4,0.1-0.7,0.1-1.2l-0.2-0.1c0.3-0.4-0.1-0.5-0.2-0.7c-0.3-0.6-0.9-0.5-1.3-0.6
		c-1.3-0.6-2.8-0.6-4.2-0.8c-2-0.2-4,0-6.1,0.5c0.7,0,1.2,0,1.9,0c0,0,0,0,0,0.1c-0.8,0.1-1.6,0.3-2.4,0.4c0,0.1,0,0.1,0,0.2
		c0.6,0.1,1.2,0.1,1.8,0.2v0.1c-0.5,0.1-1.1,0.2-1.5,0.3c0.4,0.2,0.7,0.2,1,0.2s0.7,0,1.1,0v0.1c-0.7,0.1-1.2,0.2-1.9,0.4v0.1
		c0.7,0.1,1.3,0.1,2,0.2c0,0,0,0,0,0.1c-0.7,0.1-1.2,0.1-1.9,0.2c0,0.1,0,0.1,0,0.2c1.1,0,2.1,0,3.2,0c0,0.1,0,0.1,0,0.2
		c-0.2,0-0.5,0-0.7,0c1.4-0.1,2.9,0.4,4.2-0.1c0.6-0.2,1.2,0.1,1.8-0.2C165.7,35.3,166.2,35.6,166.8,35.8z M176.5,90.2
		c0-0.1,0.1-0.1,0.2-0.2c-0.7-0.7-1.3-1.4-2.1-2c-1.3-1.2-4.3-1.5-5.9-0.4c-0.3,0.2-0.4,0.3-0.2,0.7c0.4,0.8,0.8,1.5,1.2,2.3
		C171.8,89.2,174.1,89.2,176.5,90.2z M141.6,35.4c0,0.1,0.1,0.1,0.1,0.2c1.9-1.4,5.5-2.9,6.8-2.8c-1.1,0.4-2.1,0.9-3.2,1.2
		c1.6-0.3,3.3-0.8,5-1.1c1.6-0.3,3.4-0.5,5.1-0.7c1.7-0.2,3.5-0.3,5.2-0.3c1.6,0,3.4,0.2,5,0.3c0,0,0,0,0-0.1
		c-1.2-0.3-2.4-0.5-3.7-0.8c2.7,0,5.4,0.2,7.9,1.8c-0.5-0.7-1.2-1-1.9-1.2c-2.1-0.7-4.4-0.9-6.6-0.9c-3.8,0-7.6,0.3-11.3,0.9
		c-2.3,0.4-4.6,0.9-6.6,2C142.6,34.7,142.1,35,141.6,35.4z M122.2,52.4c0,0.5,0,1,0.1,1.2c0.4,1.1,0.8,2.2,1.3,3.3
		c0.6,1,0.7,1.9,0.7,2.9c0,0.6-0.2,1.2-0.3,1.8c0.1,0,0.1,0.1,0.2,0.1c0.5-1,1.1-1.8,1.5-2.8c0.7-1.3,0.8-2.7-0.4-3.9
		C124.5,54.1,123.7,53,122.2,52.4z M195.2,52.1c-0.1-0.1-0.2-0.1-0.3-0.2c-0.4,0.3-0.9,0.6-1.2,1c-0.6,0.5-1.1,1.1-1.5,1.6
		c-0.4,0.5-0.8,1-1.1,1.4c-0.1,0.2-0.1,0.6,0,0.9c0.1,0.4,0.3,0.8,0.5,1.2c0.3,0.9,0.8,1.7,1.3,2.3c0.1-0.9,0.2-1.7,0.2-2.6
		c0-0.3,0.1-0.6,0.2-0.9c0.5-1.1,1.1-2,1.4-3.1C195,53.4,195.1,52.8,195.2,52.1z M114.5,43.7c-0.1,0.1-0.3,0.2-0.4,0.3
		c0,0.2,0.1,0.4,0.2,0.5c0.2,0.1,0.4,0.2,0.6,0.2c3.7,1.2,7.4,2.3,11.1,3.4c1.2,0.4,2.2,0.7,3.4,1.1c0.2,0.1,0.5-0.1,0.7-0.2
		c-0.1-0.2-0.2-0.4-0.4-0.6c-0.2-0.1-0.4-0.2-0.6-0.2c-3.6-1.1-7.2-2.2-10.8-3.3C117.1,44.5,115.9,44.1,114.5,43.7z M130.1,47.7
		c0.1-0.1,0.3-0.1,0.4-0.3c0-0.2-0.1-0.4-0.2-0.5c-0.1-0.1-0.4-0.2-0.5-0.2c-4.7-1.4-9.5-2.9-14.2-4.3c-0.4-0.1-0.8-0.4-0.9,0.1
		c0,0.1,0.4,0.6,0.7,0.7c4.5,1.4,9.1,2.8,13.6,4.2C129.3,47.5,129.7,47.6,130.1,47.7z M187.7,48.5c0.2-0.1,0.4-0.1,0.5-0.1
		c4.3-1.3,8.6-2.6,12.9-3.9c0.6-0.2,1.2-0.3,1.6-0.6c0.2-0.1,0.4-0.4,0.5-0.6c-0.3-0.1-0.5-0.1-0.8-0.2c-0.1,0-0.2,0-0.3,0.1
		c-3.3,1-6.4,2-9.7,3c-1.6,0.5-3.3,1-4.9,1.5c-0.2,0.1-0.3,0.3-0.5,0.5C187.4,48.4,187.6,48.5,187.7,48.5z M202.8,42.2
		c-0.2-0.7-0.6-0.5-1-0.4c-3.4,1.1-6.7,2.1-10.1,3.2c-1.4,0.5-3,0.9-4.4,1.3c-0.2,0.1-0.6,0.4-0.6,0.6c0.1,0.4,0.4,0.3,0.8,0.2
		c0.8-0.3,1.6-0.5,2.5-0.8c4-1.2,8.1-2.5,12-3.7C202.5,42.5,202.7,42.3,202.8,42.2z M128.7,57.3c-0.4,0.3-0.8,0.5-1,0.8
		c-1.1,1.7-2,3.4-3,5.1c-0.2,0.4,0,0.8,0.4,0.7c0.3-0.1,0.8-0.2,0.9-0.5c0.9-1.3,1.6-2.7,2.5-4C128.9,58.8,128.9,58.1,128.7,57.3z
		 M148.6,22.8c0.8,0.8,1.4,1.3,2,2c1,1.2,1.7,2.4,2.7,3.6c0.6,0.8,1.3,1.1,2.2,0.8c0.9-0.3,1.3-1,1.6-1.8c-1.5,1.7-2.5,1.8-3.9,0.5
		c-0.3-0.2-0.5-0.5-0.7-0.8c-0.6-0.8-1.1-1.5-1.6-2.3c-0.7-1-1.4-1.9-2.7-2.5c0,0.4-0.1,0.8,0,1c0.4,1.2,0.7,2.4,0.6,3.7
		c-0.1,1.1-0.3,2.1-1,2.9c-0.5,0.6-1.1,0.8-1.7,0.3c-0.6-0.4-1.1-0.9-1.5-1.3c-0.6-0.6-1.1-1.2-1.5-1.7c-0.1,0.1-0.1,0.1-0.2,0.2
		c1,1.1,1.9,2.1,3,3.1c0.8,0.7,2.3,0.3,2.8-0.7c0.5-1.1,0.8-2.2,0.6-3.4C149.1,25.2,148.9,24.2,148.6,22.8z M134.3,50.6
		c0.3-0.9,0.6-1.7,0.9-2.7c-0.8-0.2-1.4-0.5-2.1-0.7c-0.1,0-0.4,0.1-0.4,0.2c-0.3,0.8-0.5,1.5-0.8,2.4
		C132.7,50,133.5,50.3,134.3,50.6z M184.6,46.6c-0.8,0.3-1.5,0.5-2.4,0.8c0.3,0.9,0.5,1.6,0.8,2.4c0,0.1,0.2,0.2,0.3,0.2
		c0.7-0.2,1.4-0.5,2.2-0.7C185.2,48.3,184.9,47.4,184.6,46.6z M124.2,50.2c0.3-0.8-0.3-0.8-0.6-0.9c-1.2-0.4-2.5-0.8-3.7-1.2
		c-1.1-0.3-2.2-0.7-3.3-1c-0.1,0-0.3,0.1-0.5,0.1c0.1,0.2,0.2,0.3,0.3,0.4c0.1,0.1,0.2,0.1,0.4,0.1c1.7,0.6,3.5,1.1,5.2,1.6
		C122.8,49.8,123.5,50,124.2,50.2z M201.2,47.1c0-0.1,0-0.2,0-0.2c-0.2,0-0.4-0.1-0.6-0.1c-1,0.3-1.9,0.6-2.9,0.9
		c-1.4,0.5-2.9,0.9-4.3,1.3c-0.2,0.1-0.3,0.3-0.5,0.5c0.2,0.1,0.4,0.2,0.5,0.2c2.4-0.8,4.9-1.5,7.3-2.3
		C200.9,47.2,201,47.2,201.2,47.1z M201,61.8c0.6-0.3,1.2-0.6,1.7-1c0.6-0.5,0.4-0.9-0.3-1.2c-0.7-0.3-1.3,0-1.9,0.4
		c-0.4,0.2-0.8,0.6-0.6,1.1C200.2,61.4,200.6,61.5,201,61.8z M200.2,58.8c0.7,0,1.2-0.2,1.7-0.7c0.2-0.2,0.3-0.6,0.3-0.8
		c-0.1-0.2-0.4-0.5-0.7-0.5c-0.9-0.1-1.6,0.2-2.1,0.9c-0.4,0.5-0.3,0.8,0.3,1C199.8,58.8,200,58.8,200.2,58.8z M202,51.2
		c0.7,0,1.2-0.2,1.7-0.7c0.4-0.5,0.4-0.9-0.2-1.1c-0.7-0.3-1.7,0-2.3,0.7c-0.2,0.2-0.3,0.5-0.3,0.7c0.1,0.2,0.4,0.4,0.7,0.5
		C201.7,51.2,201.9,51.2,202,51.2z M132.8,46.2c0-0.1,0-0.1,0.1-0.2c-6.8-2.1-13.7-4.2-20.6-6.3c0,0.1,0,0.1-0.1,0.2
		C119,42,125.9,44.1,132.8,46.2z M160.6,22c0.1,0,0.1,0,0.2,0.1c0,0.2-0.1,0.4-0.1,0.6c-0.3,1.6-0.3,3.3,0.3,4.9
		c0.5,1.3,1.2,1.9,2.3,1.8c0.3,0,0.6-0.2,1-0.3c0-0.1,0-0.1-0.1-0.2c-0.9,0.5-1.5,0.3-2.1-0.5c-1.2-1.7-1.3-3.7-1.2-5.7
		c0-0.4,0.3-0.9-0.2-1.2c-0.8,0.7-1.4,1.3-1.8,2.4C159.5,23.2,160.1,22.6,160.6,22z M117,59.5c0,0,0-0.1,0.1-0.2c0.2,0,0.3,0,0.5,0
		c0.7-0.1,0.9-0.5,0.5-1.1c-0.4-0.5-1.4-1-2-0.8c-0.3,0.1-0.7,0.3-0.8,0.5c0,0.3,0.2,0.7,0.4,0.9C116.1,59.1,116.5,59.3,117,59.5z
		 M115.4,51.8c0.2,0,0.4,0,0.6,0c0.5-0.1,0.7-0.6,0.4-0.9c-0.4-0.7-1.7-1.2-2.4-0.9c-0.6,0.2-0.7,0.6-0.3,1.1
		C114.1,51.6,114.7,51.8,115.4,51.8z M116.3,62.3c0.4-0.3,0.8-0.4,1-0.7c0.1-0.2-0.2-0.7-0.5-0.9c-0.5-0.5-1.2-0.6-1.8-0.5
		c-0.2,0-0.5,0.3-0.6,0.5s0.1,0.6,0.2,0.7C115.2,61.8,115.8,62,116.3,62.3z M199.4,56.2c0.6-0.2,1.2-0.2,1.5-0.4
		c0.3-0.2,0.5-0.7,0.7-1c-0.3-0.2-0.7-0.6-1-0.5c-0.6,0.1-1.2,0.3-1.6,0.6c-0.2,0.2-0.5,0.7-0.4,0.9C198.7,56,199.2,56.1,199.4,56.2
		z M205.2,47.8c-0.5,0.2-1,0.3-1.4,0.5c1.4,1,1.5,1.8,0.5,3.1c-0.1,0.1-0.1,0.3-0.2,0.5c0.6-0.2,1.1-0.3,1.4-0.5
		c0.4-0.2,0.6-0.6,0.5-1C205.8,49.6,205.5,48.7,205.2,47.8z M116.8,54.6c-0.5,0.3-0.9,0.5-1.1,0.8c-0.1,0.1,0.2,0.7,0.5,0.9
		c0.6,0.3,1.2,0.5,1.7,0.5c0.2,0,0.6-0.2,0.8-0.5c0.1-0.1-0.1-0.6-0.2-0.7C118,55.2,117.5,54.9,116.8,54.6z M112.1,48.4
		c-0.3,1-0.6,1.8-0.9,2.7c-0.1,0.2,0.1,0.7,0.3,0.8c0.5,0.3,1,0.4,1.4,0.5c0.1,0,0.1-0.1,0.2-0.1c-1.2-1.2-1.3-2.5,0.3-3.5
		C113,48.7,112.6,48.5,112.1,48.4z M194.2,57.8c-0.1,0-0.1,0-0.2,0c-0.5,1-0.2,2,0.1,3c0.5,1.3,1.2,2.4,2.7,3
		c-0.1-0.7-0.2-1.2-0.7-1.4c-1-0.6-1.7-1.4-1.9-2.6C194.1,59.1,194.2,58.4,194.2,57.8z M205.2,39.3c0-0.1,0-0.1-0.1-0.2
		c-6.2,1.9-12.2,3.7-18.4,5.7c0,0.1,0,0.1,0.1,0.2C192.9,43,199.1,41.2,205.2,39.3z M134.8,51.2c-2.5-0.8-4.9-1.4-7.4-2.1v0.1
		c2.5,0.8,5,1.5,7.7,2.4c0.4-1.3,0.9-2.8,1.2-4.2c-0.5-0.2-1-0.3-1.4-0.5V47c0.4,0.2,0.7,0.4,1.1,0.6
		C135.5,48.8,135.2,50,134.8,51.2z M120.5,64.3c1.2-0.6,2-1.3,2.6-2.5c0.5-1.1,0.7-2.1,0.4-3.3c-0.1,0.2-0.1,0.3-0.1,0.5
		c0,1.5-0.6,2.8-1.8,3.6C121,63.1,120.6,63.5,120.5,64.3z M112.4,39.3c0,0.1,0,0.1,0,0.2c6,1.8,11.9,3.7,17.9,5.5
		c0-0.1,0-0.1,0.1-0.2C124.3,42.9,118.4,41.1,112.4,39.3z M188.1,49.3C188.1,49.3,188.1,49.2,188.1,49.3c-0.2-0.1-0.3-0.1-0.4-0.1
		c-1.6,0.5-3.3,1-4.9,1.4c-0.2,0-0.5,0-0.5-0.1c-0.4-1.2-0.7-2.3-1.1-3.5c0.4-0.2,0.7-0.4,1.1-0.5c-0.4,0-0.7,0.1-1,0.2
		c-0.2,0.1-0.4,0.4-0.3,0.5c0.4,1.2,0.8,2.6,1.2,3.8C184.3,50.4,186.2,49.8,188.1,49.3z M142.1,32.4L142.1,32.4
		c0.3-0.1,0.5-0.3,0.6-0.5c0.1-0.4,0.1-0.8,0-1.2c-0.4-1.1-0.7-2.1-1.2-3.2c-0.3-0.6-0.7-1.2-1.1-1.7c0.1-0.1,0.1-0.1,0.2-0.2
		c0.7,0.3,1.3,0.7,2,1c0-0.1,0.1-0.1,0.1-0.2c-0.7-0.3-1.3-0.7-2-1c-0.1,0-0.3,0-0.4,0.1c-0.1,0.1-0.1,0.3-0.1,0.4
		c0.1,0.2,0.2,0.4,0.3,0.6c0.6,1.2,1.2,2.4,1.7,3.7C142.6,31.1,142.8,31.9,142.1,32.4z M110.7,37.3c0.3,0.4,0.6,0.8,0.9,1.1
		c0.1,0.1,0.3,0.2,0.5,0.3c0-0.2,0.2-0.4,0.1-0.6c-0.3-0.6-0.5-1.4-1.2-1.4s-0.7,0.9-0.9,1.3c0,0,0,0.1,0.2,0.2
		C110.4,37.8,110.6,37.6,110.7,37.3z M207,37.6c0.1-0.2,0.3-0.3,0.3-0.3c-0.2-0.5-0.3-1.1-0.7-1.2c-0.5-0.3-0.8,0.3-1.1,0.7
		c-0.1,0.2-0.3,0.3-0.3,0.5c-0.1,0.3,0,0.5-0.1,0.8c0.1,0,0.2,0.1,0.2,0.1c0.4-0.5,0.9-1,1.2-1.5C206.8,37,206.9,37.3,207,37.6z
		 M205.1,43.2c0,0.1,0,0.2,0,0.2c1.2-0.3,2.6-0.7,3.9-1.1c-0.4-1.2-0.8-2.4-1.1-3.6c-0.1,0-0.1,0-0.2,0.1c0,1.2,0.7,2.1,0.9,3.4
		c-0.7,0.2-1.2,0.6-1.9,0.5C206,42.7,205.5,43,205.1,43.2z M147.4,21.1c-0.5,0-0.9,0.4-0.8,0.9c0,0.4,0.5,0.9,0.9,0.9
		c0.5-0.1,0.8-0.4,0.7-0.9C148.1,21.4,147.8,21.1,147.4,21.1z M139.5,25.7c0.6,0,0.8-0.4,0.8-0.8c0-0.5-0.3-0.8-0.7-0.9
		c-0.5,0-0.8,0.4-0.8,0.8C138.8,25.3,139,25.7,139.5,25.7z M192.1,52.1c0.8-0.3,1.4-0.6,2-0.9c0-0.1-0.1-0.1-0.1-0.2
		c-1.2,0.4-2.2,0.7-3.4,1.1c0,0.1,0,0.1,0,0.2c0.5,0.2,1,0.4,1.5,0.6c0.2-0.2,0.3-0.4,0.6-0.6C192.6,52.1,192.5,52.1,192.1,52.1z
		 M162.4,20.9c0-0.6-0.2-1-0.7-1s-0.7,0.3-0.7,0.8c0,0.4,0.4,0.9,0.8,0.9C162.1,21.5,162.5,21.3,162.4,20.9z M145.9,25.2
		c-0.2-0.6-0.3-1-0.9-1c-0.5,0-0.7,0.3-0.7,0.8s0.3,0.9,0.7,0.8C145.4,25.8,145.6,25.5,145.9,25.2z M164.3,22.7
		c-0.1,0.2-0.4,0.5-0.5,0.8c-0.1,0.5,0.3,0.8,0.8,0.8c0.5,0,0.7-0.4,0.7-0.8C165.2,23.1,165,22.7,164.3,22.7z M107.4,44
		c0.3-1,0.6-1.9,0.9-2.9c0-0.2-0.1-0.3-0.1-0.5c-0.1,0-0.1,0-0.2,0c-0.3,1-0.6,1.8-0.9,2.8C106.9,43.8,107,44,107.4,44z M123.6,51.7
		c0,0.1,0,0.1-0.1,0.2c0.5,0.3,1.1,0.5,1.5,0.8c-0.1,0-0.2,0.1-0.4,0.1c0.5,0.6,1.1,0.6,1.8-0.1C125.6,52.2,124.6,52,123.6,51.7z
		 M210,43.4c0.1,0,0.2,0,0.2,0.1c0-0.2,0.2-0.4,0.1-0.5c-0.2-0.9-0.5-1.6-0.8-2.5c0-0.1-0.3-0.2-0.4-0.3c0,0.2-0.1,0.3-0.1,0.5
		C209.4,41.6,209.7,42.4,210,43.4z M144.8,36.9c-0.4-0.4-0.7-0.7-0.9-1c-0.2,0.2-0.5,0.5-0.5,0.7c-0.1,0.4,0,0.9,0.5,0.9
		C144.1,37.5,144.4,37.2,144.8,36.9z M196.1,41.5c0,0.1,0,0.1,0,0.2c3-1,6-1.8,8.9-2.8c0-0.1,0-0.1,0-0.2
		C202,39.7,199,40.5,196.1,41.5z M111.2,44.9c0-0.1,0-0.1,0-0.2c-1-0.3-1.9-0.6-2.9-0.9c-0.1,0-0.2,0.1-0.4,0.1
		c0.1,0.1,0.1,0.3,0.3,0.3c0.8,0.3,1.6,0.6,2.5,0.8C110.9,45.1,111.1,45,111.2,44.9z M209.4,43.5c0-0.1-0.1-0.1-0.1-0.2
		c-1,0.3-1.9,0.6-2.9,1c-0.1,0-0.1,0.2-0.1,0.3c0.1,0,0.3,0.1,0.4,0.1c0.9-0.3,1.6-0.5,2.5-0.8C209.3,43.8,209.3,43.6,209.4,43.5z
		 M168.1,35c-0.1-0.5-0.2-0.9-0.7-1c-0.6,0-0.5,0.5-0.6,0.8c0,0.4,0.1,0.9,0.6,0.8C167.8,35.5,168,35.2,168.1,35z M148,28.9
		L148,28.9c-0.7-1-1.4-1.8-2.2-2.6c0,0-0.1,0-0.1,0.1c0.2,1.2,0.4,2.5,0.6,3.7c0.1,0,0.2,0,0.2,0c-0.2-1.1-0.4-2.1-0.5-3.2
		c0,0,0.1,0,0.1-0.1C146.7,27.5,147.4,28.2,148,28.9z M108.4,42.9c0.4,0.1,0.8,0.2,1.2,0.3v-0.1c-0.3-0.1-0.5-0.2-0.8-0.4
		c0.1-0.4,0.3-0.8,0.4-1.2s0.3-0.8,0.4-1.2c0.1-0.3,0.1-0.7,0.2-1.1c-0.1,0-0.1,0-0.2,0C109.1,40.6,108.8,41.8,108.4,42.9z
		 M102.8,40.2c0.1,0.2,0.1,0.4,0.2,0.5c1,0.3,2,0.7,3.1,1c0-0.1,0.1-0.2,0.1-0.3C105,40.9,103.9,40.6,102.8,40.2z M211.3,40.7
		c0.3,0.3,2.4-0.2,3.3-0.9C213.4,39.9,212.4,40.3,211.3,40.7z M198.6,53.9c0.2-0.3,0.6-0.6,0.5-0.8c-0.1-0.5-0.3-1-0.5-1.4
		c-0.6,0-0.7,0.3-0.5,0.7C198.3,52.9,198.4,53.3,198.6,53.9z M119.2,52.5c-0.7-0.3-0.8-0.2-1.1,1.4c0.2,0.1,0.4,0.2,0.6,0.3
		C118.9,53.7,119.1,53.1,119.2,52.5z M131.9,51.5L131.9,51.5c-0.8-0.3-1.4-0.6-2.2-0.8v0.1c0.3,0.2,0.5,0.3,0.9,0.5
		c-0.6,0.2-1.1,0.4-1.5,0.5v0.1C129.9,51.8,130.9,51.6,131.9,51.5z M185.4,50.8C185.4,50.9,185.4,50.9,185.4,50.8
		c1.1,0.2,2,0.4,3.1,0.5c0,0,0,0,0-0.1c-0.5-0.2-1.1-0.4-1.6-0.6c0.3-0.2,0.5-0.3,0.7-0.5c0,0,0,0,0-0.1
		C186.8,50.4,186.1,50.6,185.4,50.8z M112.4,40.8c-0.4-0.3-0.7-0.7-0.8-0.6c-0.3,0.1-0.6,0.4-0.6,0.7c0,0.1,0.4,0.6,0.6,0.6
		C111.7,41.4,112,41.1,112.4,40.8z M172.2,25.9L172.2,25.9c0.3-0.1,0.7-0.2,0.8-0.4c0.1-0.3,0-0.7-0.1-1c-0.1-0.2-0.5-0.2-0.8-0.4
		c-0.1,0.8,0,1.2,0.8,1.2C172.6,25.7,172.4,25.8,172.2,25.9z M205.8,41c0.3-0.4,0.6-0.6,0.6-0.8c0-0.3-0.4-0.5-0.5-0.7
		c-0.2,0.2-0.5,0.4-0.6,0.7C205.2,40.4,205.5,40.6,205.8,41z M197.4,62.6c0.2,0.5,0.4,0.5,2.2-0.3C199.2,61.9,199.1,61.9,197.4,62.6
		z M199,60.9c-0.1,0-0.1-0.1-0.2-0.1c-0.6,0.2-1.2,0.4-1.7,0.6c0.3,0.5,0.3,0.5,1.6-0.1C198.8,61.2,198.9,61,199,60.9z M204.2,45.3
		c-0.3,0.3-0.6,0.6-0.6,0.7c0,0.2,0.3,0.5,0.5,0.5s0.5-0.3,0.6-0.5C204.7,45.9,204.4,45.6,204.2,45.3z M191.2,50.3
		c-0.3-0.3-0.5-0.7-0.6-0.7c-0.3,0.1-0.5,0.3-0.6,0.5c0,0.1,0.3,0.5,0.5,0.6C190.5,50.8,190.8,50.5,191.2,50.3z M113.1,47.2
		c0.1,0,0.2,0,0.3,0c0.1-0.2,0.4-0.4,0.4-0.6s-0.3-0.4-0.5-0.6c-0.2,0.2-0.4,0.4-0.5,0.6C112.7,46.8,113,47,113.1,47.2z M117.8,62.9
		c0.7,0.2,1.3,0.5,2.1,0.7c0-0.2,0-0.4-0.1-0.5C119.4,62.8,118.2,62.6,117.8,62.9z M126.9,50c-0.3,0.4-0.5,0.6-0.5,0.8
		c0,0.2,0.3,0.5,0.5,0.5c0.2,0,0.5-0.3,0.5-0.5C127.4,50.6,127.1,50.4,126.9,50z M199.5,63.3c-0.1-0.2-0.2-0.4-0.2-0.7
		c-0.4,0.1-0.8,0.3-1.2,0.4c0.1,0.3,0.2,0.4,0.2,0.6C198.7,63.6,199.1,63.5,199.5,63.3z M195.6,55.4c0.8-0.3,1.6-0.1,2.3-1.1
		C197.1,54.7,196.2,54.7,195.6,55.4z M200.2,52c-0.2-0.7-0.4-1.2-0.6-1.7c-0.4,0.2-0.4,0.8,0,1.5C199.8,51.9,200.1,51.9,200.2,52z
		 M119.5,54.9c0.5,0.6,1.8,1.1,2.4,0.8C121.1,55.5,120.4,55.2,119.5,54.9z M117.1,52.4c0.5,0.1,0.6,0,0.8-1.2c0-0.2-0.2-0.4-0.3-0.6
		C117.5,51.3,117.3,51.9,117.1,52.4z M198.3,56.9c-0.7,0.2-1.4,0.4-2.2,0.7C196.6,57.9,197.9,57.5,198.3,56.9z M118.6,61.5
		c0.4,0.6,1.1,0.5,1.5,0.8C120.3,61.8,120.1,61.7,118.6,61.5z M119.2,63.6c-0.4-0.1-0.8-0.2-1.2-0.4c-0.3,1,0.5,0.7,0.9,1
		C119,64,119.1,63.8,119.2,63.6z M164.1,24.9c-0.1,0-0.1,0-0.2,0c0,1.2,0,2.4,0,3.7c0.1,0,0.1,0,0.2,0
		C164.1,27.4,164.1,26.1,164.1,24.9z M119.5,54.2c0,0.1-0.1,0.2-0.1,0.3c0.7,0.2,1.4,0.4,2.1,0.6c0-0.1,0-0.2,0.1-0.3
		C121,54.6,120.2,54.4,119.5,54.2z M195.7,54.4c0,0.1,0,0.1,0.1,0.2c0.7-0.2,1.4-0.5,2.1-0.7c0-0.1-0.1-0.2-0.1-0.2
		C197.1,53.8,196.3,53.9,195.7,54.4z M199,59.6c-0.6-0.3-1.7,0-2,0.6C197.7,60,198.3,59.8,199,59.6z M121,58.4
		c0-0.1,0.1-0.2,0.1-0.2c-0.7-0.4-1.4-0.5-2.1-0.7c0,0.1,0,0.1-0.1,0.2C119.6,57.9,120.3,58.2,121,58.4z M136,45.4
		c-0.3-0.2-0.5-0.5-0.6-0.5c-0.2,0-0.4,0.3-0.5,0.4c0,0.1,0.2,0.4,0.4,0.4C135.6,45.8,135.8,45.6,136,45.4z M195.7,56
		c0,0.1,0.1,0.2,0.1,0.3c0.6-0.2,1.1-0.3,1.6-0.5c0,0,0.1-0.2,0-0.2c0-0.1-0.2-0.1-0.2-0.1C196.8,55.6,196.2,55.8,195.7,56z
		 M112.5,44c-0.7-0.8-1.5-0.6-2.3-0.5C110.9,43.6,111.6,43.8,112.5,44z M121.7,56.6c-0.7-0.2-1.2-0.4-1.9-0.6
		C120.1,56.5,121.1,56.8,121.7,56.6z M196,56.9c0.7,0.2,1.2-0.2,1.7-0.4C197.1,56.2,196.6,56.6,196,56.9z M182.5,44.7
		c-0.3-0.2-0.5-0.4-0.6-0.4s-0.3,0.3-0.3,0.4c0,0.2,0.2,0.4,0.4,0.4C182.1,45.2,182.3,45,182.5,44.7z M196.5,58.3c0,0.1,0,0.1,0,0.2
		c0.4,0.2,0.9-0.1,1.2-0.2c0.1,0,0.2-0.2,0.3-0.3l-0.1-0.1C197.5,58,197,58.2,196.5,58.3z M118.7,60c0,0.1,0,0.2-0.1,0.3
		c0.6,0.2,1.1,0.3,1.6,0.5c0-0.1,0.1-0.2,0.1-0.3C119.8,60.3,119.2,60.1,118.7,60z M116.2,39.8L116.2,39.8c-0.6-0.5-0.5-1.1-0.5-1.6
		c-0.1,0.5-0.3,0.9-0.4,1.4C115.6,39.7,115.9,39.7,116.2,39.8z M121.2,57.5c0-0.1,0-0.2,0.1-0.3c-0.6-0.2-1.2-0.3-1.6-0.5
		c0,0.1,0,0.2-0.1,0.3C120.2,57.2,120.8,57.4,121.2,57.5z M196.7,59.5c0.6-0.2,1.1-0.4,1.6-0.6C197.7,58.7,197,59,196.7,59.5z
		 M210.5,40c-0.1,0-0.1,0.1-0.2,0.1c0.3,0.9,0.6,1.7,0.8,2.6c0.1,0,0.1,0,0.2-0.1C211,41.8,210.8,40.9,210.5,40z M119.2,58.4
		c0.5,0.6,1.2,0.8,1.7,0.5C120.4,58.8,119.8,58.6,119.2,58.4z M107,40.7c-0.1,0-0.1,0-0.2,0c-0.3,0.9-0.5,1.7-0.8,2.6
		c0.1,0,0.1,0,0.2,0C106.4,42.4,106.7,41.6,107,40.7z M110.6,44.4c0-0.1,0-0.1,0.1-0.2c-0.8-0.3-1.6-0.5-2.4-0.8v0.1
		C109,43.8,109.8,44.1,110.6,44.4z M201.2,39.2c0.9-0.2,0.9-0.2,0.5-1.2C201.6,38.4,201.4,38.8,201.2,39.2z M119.2,59.3
		c0,0.1-0.1,0.2-0.1,0.3c0.5,0.1,1,0.3,1.3,0.4c0-0.1,0.1-0.2,0.1-0.3C120.2,59.5,119.7,59.5,119.2,59.3z M206.8,43.6
		c0,0,0,0.1,0,0.2c0.8-0.3,1.6-0.5,2.4-0.8c0,0,0-0.1,0-0.2C208.4,43.1,207.6,43.4,206.8,43.6z M197.9,51.1c0.2-0.3,0.4-0.5,0.3-0.6
		c0-0.1-0.2-0.3-0.3-0.4c-0.1,0.1-0.3,0.2-0.3,0.4C197.7,50.7,197.8,50.8,197.9,51.1z M135.9,44.6c0.2,0.5,0.5,1,0.8,1.4
		C136.8,45.5,136.3,44.7,135.9,44.6z"/>
	<path d="M118.7,100.5c-2.3-0.1-4.7-0.2-7-0.3c0.3-7.6,2.6-14.5,6.9-20.8c1.1,0.8,2.1,1.5,3.2,2.3c0.6-0.8,1.2-1.5,1.7-2.2
		c1.2-1.2,2.5-2.5,3.7-3.7c0.1-0.1,0.4-0.1,0.5,0c1.4,1.6,2.8,3.3,4.2,4.9c0.1,0.1,0,0.5-0.1,0.6c-0.9,1-1.8,1.9-2.7,2.9
		c-1.8,2.1-3.4,4.4-4.5,7c-0.7,1.5-1.2,3.2-1.9,4.8c-1-0.3-2.1-0.6-3.4-0.9C119.1,96.8,118.9,98.6,118.7,100.5z M113.8,91.4
		c-0.1,0-0.1,0-0.2,0c-0.7,2.6-1.2,5.1-1.3,7.8c1.9,0.1,3.8,0.3,5.7,0.4c0.4-2.2,0.8-4.4,1.2-6.6c-0.3,0.3-0.5,0.6-0.6,0.9
		c-0.3,1.5-0.6,3.2-0.8,4.7c-0.1,0.4-0.2,0.5-0.5,0.4c-0.2,0-0.4-0.1-0.6-0.2c0.3-1.6,0.5-3.2,0.8-4.8c-1,0.3-1.9,0-2.8-0.7
		c-0.3,1.8-0.6,3.6-0.9,5.3c-0.3,0-0.6,0-0.9,0c0-0.2,0-0.4,0-0.6c0.3-1.8,0.7-3.7,1-5.6C113.9,92,113.8,91.7,113.8,91.4z
		 M120.1,89.9c1-1.9,2-3.9,3.1-6c-1.4-1.1-3-2-4.7-3.2c-1.2,2.4-2.4,4.6-3.7,6.9c0.1,0.1,0.2,0.1,0.3,0.2c0.2-0.3,0.4-0.5,0.6-0.8
		c0.2-0.4,0.4-0.9,0.6-1.2c0.8-1.4,1.5-2.9,2.3-4.3c1,0.6,1,0.6,0.5,1.3c-0.8,1.3-1.4,2.6-2.2,4.1c1.2-0.2,2,0.4,2.6,1.1
		c0.8-1.4,1.6-2.9,2.4-4.4c0.4,0.3,0.6,0.5,0.8,0.6c-0.7,1.2-1.3,2.4-1.9,3.7C120.4,88.5,119.8,89.2,120.1,89.9z M129.6,80.3
		c0.8,0.8,0.8,0.8,0.2,1.3c-1,1.1-1.9,2.1-2.8,3.2c-0.3,0.3-0.4,0.8-0.6,1.2h0.1c1.4-1.7,2.9-3.4,4.3-5.1c-1.2-1.3-2.5-2.7-3.8-4.2
		c-1.5,1.7-3,3.5-4.4,5.2c-0.1,0.1,0,0.3-0.1,0.6c1.5-1.7,3-3.4,4.3-5c0.8,0.8,0.8,0.9,0.3,1.3c-0.4,0.4-0.9,0.8-1.2,1.2
		c-0.7,0.8-1.2,1.4-1.7,2.1c0.8,0.6,1.4,1.2,2.1,1.7C127.4,82.8,128.5,81.6,129.6,80.3z M117,87.5c0,0-0.3,0-0.5,0.1
		c-1.5,0.5-2.6,2.3-2.2,3.8c0.5,1.6,1.4,2.2,2.6,2c1.9-0.3,3.1-2,2.6-3.9C119.3,88.4,118.2,87.5,117,87.5z M122,94.1
		c-0.9-0.2-0.9-0.2-0.6-1c0.1-0.2,0.1-0.4,0.2-0.6c0.5-1.1,0.9-2.1,1.3-3.2c-0.6-0.1-1.1-0.2-1.6-0.4c-0.6,1.7-1.2,3.4-1.7,5.1
		c1.1,0.3,1.9,0.6,2.7,0.9c0.9-2.1,1.7-4.2,2.6-6.2c-0.4,0.3-0.7,0.6-0.9,1C123.4,91.2,122.7,92.6,122,94.1z M121.7,88.4
		c1,0.6,2.4,0.4,3.2-0.3c1.1-1,1.4-2.4,1-3.7c-0.5-1.1-1.2-1.6-2.3-1.4c0.1,0.1,0.2,0.2,0.4,0.3c0.6,0.2,0.5,0.6,0.2,1
		c-0.2,0.3-0.5,0.7-0.8,1.1c0.3-0.1,0.5-0.2,0.7-0.2c0.5-0.1,1,0.2,1.1,0.7c0.1,0.4,0.2,0.8,0.4,1.2c-0.1,0-0.4-0.1-0.7-0.2
		c0.2,0.3,0.3,0.5,0.5,0.7c0,0.1-0.1,0.1-0.1,0.2c-0.5-0.7-0.8-0.3-1,0.2c-0.4-0.2-0.7-0.5-1.1-0.7c0.4-0.1,0.7-0.2,1-0.3
		c-0.9-0.7-1.2-0.6-1.7,0.3C122.1,87.6,121.9,88,121.7,88.4z"/>
	<path d="M212.8,96.9c-2.4,0.1-4.8,0.2-7.1,0.3c-0.2-1.8-0.5-3.7-0.7-5.4c-1.1,0.3-2.1,0.5-3,0.8c-0.5,0.2-0.6-0.1-0.6-0.4
		c-0.6-2.2-1.4-4.2-2.5-6.2c-1.6-3.1-3.7-5.7-6.3-8.1c-0.3-0.2-0.3-0.3-0.1-0.6c1.2-1.3,2.3-2.7,3.5-3.9c0.4-0.4,0.7-0.8,1.1-1.3
		c1.2,1.2,2.4,2.5,3.6,3.7c0.7,0.8,1.2,1.5,1.8,2.3c0.1,0.1,0.5,0.1,0.7,0c1-0.7,1.8-1.3,2.8-2C210.1,82.5,212.6,89.3,212.8,96.9z
		 M202.9,81c-0.2,0.1-0.5,0.1-0.7,0.2c0.3,0.4,0.5,0.7,0.7,1c0.1,0.1,0.2,0.1,0.3,0.1c0-0.1,0.1-0.2,0.1-0.3c0-0.1,0-0.2,0.1-0.3
		c0.6,1.1,1.2,2.1,1.7,3.2c1.2-1.1,1.3-1.1,2.7-1.2c-0.6-1.1-1.2-2.1-1.6-3.2l0,0c0.3-0.2,0.5-0.3,0.9-0.5c0.5,1,1,2,1.5,3
		c0.3,0.6,0.4,1.3,1.2,1.6c-1-2.6-2.2-5-3.7-7.2c-1.6,1.1-3.2,2.1-4.7,3.2c1.1,2,2.1,4,3.2,6c0-0.3,0.1-0.6,0-0.9
		c-0.4-0.9-0.8-1.8-1.2-2.7c-0.4-0.8-0.8-1.4-1.2-2.2C202.3,80.9,202.7,80.1,202.9,81z M206.8,95.6c-0.3-1.7-0.6-3.5-1-5.1
		c-0.1-0.3-0.3-0.6-0.5-0.9c0,0-0.1,0-0.1,0.1c0.4,2.2,0.8,4.4,1.2,6.6c1.6-0.1,3.4-0.2,5.2-0.3c0.4,0,0.5-0.3,0.5-0.7
		c-0.2-1.2-0.3-2.5-0.5-3.7c-0.2-1.2-0.5-2.3-0.8-3.5c-0.1,0-0.2,0-0.3,0c0.2,2.4,1.1,4.6,1.1,7c-0.2,0.1-0.4,0.1-0.5,0.1
		c-0.4,0.1-0.5,0-0.5-0.4c-0.1-0.9-0.1-1.6-0.3-2.5c-0.1-0.9-0.3-1.6-0.5-2.6c-0.8,0.9-1.7,0.9-2.7,0.9c0.3,1.6,0.5,3.3,0.8,4.9
		C207.3,95.6,207,95.6,206.8,95.6z M197.8,82.7c0.1,0,0.1,0,0.2,0c-0.2-0.4-0.3-0.8-0.5-1.1c-1-1.2-2-2.3-3.1-3.5
		c-0.3-0.3-0.3-0.5,0-0.7c0.1-0.1,0.3-0.2,0.5-0.4c1.1,1.2,2.2,2.4,3.3,3.7c0.5-0.9,1.2-1.5,2.2-1.6c-0.1-0.2-0.1-0.3-0.2-0.4
		c-1-1.1-1.9-2.1-2.9-3.1c-0.7-0.7-0.7-0.8,0.3-1.3c1.3,1.6,2.8,3.3,4.1,4.9c0.1-0.1,0.2-0.2,0.3-0.3c-1.4-1.9-3-3.7-4.8-5.3
		c-1.3,1.4-2.6,2.8-3.7,4.1C195,79.4,196.4,81.1,197.8,82.7z M204.9,87c-0.1,0-0.1,0-0.2,0.1c0.2,0.6,0.4,1.2,0.7,1.7
		c1.1,1.6,3.5,1.9,4.5,0c0.6-1,0.3-3.2-0.6-3.8c-1.1-1-2-1.2-3.2-0.6C205.2,85.1,204.8,86,204.9,87z M202.4,91
		c-0.1-0.2-0.1-0.3-0.2-0.5c-0.6-1.4-1.2-2.9-1.8-4.3c-0.1-0.3-0.5-0.6-0.8-0.9c0.9,2.1,1.6,4,2.4,6c0.1,0.1,0.4,0.3,0.5,0.3
		c0.7-0.2,1.2-0.4,1.9-0.6c0.1-0.1,0.4-0.3,0.3-0.5c-0.5-1.6-1.1-3.3-1.5-4.8c-0.7,0.2-1.2,0.3-1.6,0.5c0.5,1.2,1.1,2.5,1.5,3.7
		C203.2,90.6,203.5,90.7,202.4,91z M201.1,79.6c-1.2-0.3-2.3,0.7-2.6,1.5c-0.5,1.4-0.2,2.7,1.2,3.7c0.9,0.7,2.1,0.7,3,0.1
		c-0.2-0.5-0.4-0.9-0.7-1.3c-0.4-0.8-1.2-0.9-1.6-0.1c0.3,0.1,0.5,0.2,0.9,0.3c-0.4,0.2-0.7,0.4-1.1,0.6c-0.1-1-0.7-0.3-1.2-0.4
		c0.3-0.2,0.4-0.4,0.6-0.5v-0.1c-0.2,0-0.5,0.1-0.6,0.1c0.1-0.4,0.2-0.8,0.3-1.1c0-0.1,0.1-0.1,0.1-0.2c0.4-0.7,1.1-0.4,1.6-0.3
		c-0.4-0.6-0.7-1.1-1-1.6C200.4,80.2,200.7,80,201.1,79.6z"/>
	<path d="M177.9,129.9c-1.3-2.2-2.6-4.3-3.9-6.5c5.4-3.2,9.3-7.5,12-13.1c2.1,1.1,4.1,2.1,6.2,3.2c0.3,0.2,0.5,0.3,0.3,0.7
		c-0.8,1.4-1.4,2.9-2.3,4.3c-1.6,2.6-3.7,4.9-6,7c-1.8,1.6-3.7,3.1-5.8,4.3C178.1,129.8,178,129.8,177.9,129.9z M187,120.8
		c0.1,0,0.1,0.1,0.2,0.1c1-1,4-5.5,4.1-6.6c-1.6-0.9-3.4-1.8-5-2.7c-1.2,1.8-2.3,3.7-3.5,5.5c0.2,0,0.5-0.2,0.6-0.3
		c0.3-0.3,0.5-0.6,0.8-1c0.8-1.2,1.5-2.4,2.3-3.6c0.3,0.1,0.6,0.3,1,0.5c-0.9,1.4-1.7,2.8-2.6,4.2c0.9,0.3,1.7,0.8,2.2,2
		c0.1-0.3,0.2-0.4,0.3-0.5c0.8-1.2,1.5-2.3,2.2-3.6c0.5-0.8,0.5-0.8,1.2-0.2c-0.1,0.2-0.1,0.3-0.2,0.5c-1,1.5-1.9,3-2.9,4.5
		C187.5,120,187.2,120.4,187,120.8z M180.5,119.6c-1.7,1.3-3.4,2.7-5.2,4.1c1.1,1.6,2.1,3.3,3.2,5.1c2.1-1.6,4.1-3.3,6.2-4.8
		c-0.1-0.1-0.1-0.2-0.2-0.3c-0.3,0.2-0.5,0.3-0.8,0.5c-1.6,1.2-3.2,2.6-4.8,3.9c-0.3-0.4-0.5-0.7-0.7-1c1.4-1.2,2.8-2.2,4.3-3.4
		c-1.2-0.4-1.7-1.2-2-2.1c-1.3,1-2.6,1.9-3.9,3c-0.1,0-0.1,0-0.2-0.1c0.1-0.4-0.9-0.7-0.1-1.2c1-0.7,1.9-1.3,2.8-2.1
		C179.6,120.8,180.5,120.5,180.5,119.6z M181.4,119c-0.9,1.3-0.6,3.1,0.8,3.9c1.1,0.7,2.7,0.5,3.8-1c1-1.2,0.8-3-0.2-3.8
		c-1.2-1-2.9-0.9-3.6,0.1c0.3,0.3,0.5,0.6,1,0.3c0.5-0.2,1.2,0.5,1.2,1.1c-0.2,0.8,0.3,0.9,0.9,1.2c-0.1-0.5-0.1-0.8-0.2-1.2
		c0.4,0.4,0.8,0.7,1.1,1.1c-0.6,0.4-0.5,0.8,0,1.1l-0.1,0.1c-0.2,0-0.5-0.1-0.7-0.1c0,0.2,0.1,0.5,0.1,0.6c-0.5,0-0.8-0.1-1.2-0.1
		c-0.7,0-1.2-0.5-1.1-1.2c0.2-0.7-0.3-0.8-0.7-1.2c0,0.4,0.1,0.7,0.1,1.2c-0.4-0.5-0.7-0.8-1-1.1C182.2,119.5,182.1,119.3,181.4,119
		z"/>
	<path d="M131.8,116.9c2.2-1.2,4.2-2.2,6.3-3.3c0.4-0.2,0.5,0,0.6,0.3c1,2,2.1,3.9,3.6,5.7c2.1,2.6,4.6,4.9,7.5,6.6
		c0.2,0.1,0.3,0.2,0.4,0.3c0.1,0,0.1,0.1,0.2,0.2c-1.2,2.1-2.6,4.3-3.8,6.5C140,129.3,135.1,123.9,131.8,116.9z M142.5,121.6
		c-0.6-0.7-1.3-1-2.2-0.9c-1.9,0.2-3,2-2.2,3.8c0.6,1.3,2.1,2.3,3.3,2c2.1-0.4,2.9-3,1.4-4.6C142.7,121.8,142.6,121.7,142.5,121.6z
		 M137.1,124.2c0.1,0,0.2-0.1,0.3-0.1c-0.1-0.2-0.2-0.5-0.3-0.7c-1.2-1.7-2.3-3.6-3.5-5.3c0.2-0.1,0.3-0.2,0.4-0.2
		c0.7-0.5,0.7-0.5,1.1,0.3c0.4,0.7,0.7,1.3,1.1,1.9c0.5,0.7,1,1.3,1.4,2.1c0.5-1.2,1.2-1.5,2.2-1.8c-0.8-1.2-1.4-2.3-2.1-3.6
		c-0.5-0.9-0.5-1,0.5-1.2c1,1.4,1.9,2.9,2.9,4.3c0.2,0.3,0.5,0.4,0.9,0.7c-1.3-2-2.5-3.8-3.7-5.8c-1.6,1-3.4,1.8-5.2,2.9
		C134.3,119.9,135.7,122,137.1,124.2z M148,127.8c-0.7-0.5-1.3-0.9-2-1.3c-0.7-0.5-1.2-1.1-1.9-1.5c-0.3,0.5-0.5,0.9-0.8,1.2
		s-0.8,0.6-1.2,1c1.2,1,2.5,1.9,3.7,2.9c0.4,0.3,0.5,0.5,0.2,0.9c-0.3,0.4-0.5,0.3-0.8,0.1c-1.2-1-2.6-2-3.8-3
		c-0.5-0.3-0.9-0.7-1.3-1l-0.1,0.1c0.8,1.1,4.8,4.3,6.2,4.8c1.1-1.6,2.1-3.3,3.1-4.9c-1.7-1.4-3.5-2.7-5.3-4.1
		c0.2,0.4,0.3,0.7,0.5,0.9c0.6,0.6,1.2,1.1,1.8,1.5c0.8,0.6,1.5,1.2,2.3,1.7C148.4,127.2,148.2,127.5,148,127.8z"/>
	<path d="M121.3,107.2c2.5-0.2,4.9-0.3,7.5-0.5c0.2,6.2,2,11.7,5.8,16.8c-2.1,1.4-4.1,3-6.2,4.4
		C123.8,121.7,121.6,114.8,121.3,107.2z M122.2,108.2c0.1,2.8,0.6,5.4,1.2,7.9c0.1-0.3,0.2-0.6,0.2-0.9c-0.3-1.8-0.6-3.7-1-5.6
		c-0.2-1-0.1-1.1,0.9-0.9c0.3,1.7,0.6,3.5,0.8,5.3c1.1-0.6,1.1-0.6,2.9-0.8c-0.2-1.6-0.5-3.3-0.7-5c0.4,0,0.7,0,1.1,0
		c0.1,0.2,0.1,0.4,0.2,0.6c0.2,1.2,0.3,2.5,0.6,3.7c0.1,0.6,0.1,1.3,0.8,1.6c-0.4-2.1-0.7-4.3-1.1-6.6
		C126.1,107.9,124.2,108,122.2,108.2z M124.9,119.5c-0.1,0-0.2,0.1-0.3,0.1c1,2.4,2.2,4.7,3.7,6.9c1.7-1.2,3.3-2.2,4.9-3.3
		c-1.1-2-2.1-3.9-3.2-5.9c0,0.3-0.1,0.6,0,0.8c0.4,0.9,0.8,1.7,1.2,2.5c0.4,0.8,0.9,1.5,1.3,2.3c-0.3,0.2-0.6,0.4-1,0.6
		c-0.8-1.4-1.6-2.9-2.4-4.3c-0.7,0.8-1.5,1.2-2.7,1.2c0.9,1.6,1.7,3.2,2.6,4.8c-0.3,0.2-0.5,0.4-0.9,0.6c-0.1-0.1-0.1-0.2-0.2-0.3
		c-0.8-1.3-1.5-2.8-2.3-4.1C125.6,120.7,125.2,120.1,124.9,119.5z M124,116.7c-0.2,1.4,1.2,3.2,2.8,3.2c1.5,0,2.8-1.4,2.7-3.1
		c0-1.3-1.3-3.1-3.1-3C125.3,113.9,123.9,115.1,124,116.7z"/>
	<path d="M203,104c0.7,5.3-3,16.1-6.9,20.8c-2-1.4-4.1-2.9-6.2-4.4c3.7-5,5.6-10.6,5.8-16.8C198.1,103.6,200.5,103.8,203,104z
		 M200.1,110.6c0.3-1.6,0.5-3.4,0.8-5.1c0.3,0,0.6,0,1.1,0c-0.2,1.5-0.5,3.1-0.7,4.6c-0.1,0.9-0.7,1.7-0.2,2.9
		c0.8-2.7,1.2-5.4,1.3-8.1c-2-0.2-3.9-0.3-5.9-0.5c-0.4,2.2-0.7,4.4-1.1,6.5c0.1,0,0.1,0,0.2,0c1-1.9,0.9-3.9,1.2-6.1
		c0.3,0.1,0.7,0.1,1.1,0.2c-0.2,1.6-0.5,3.2-0.7,4.6C198.1,110.1,199,110.3,200.1,110.6z M191.2,120c1.6,1.1,3.3,2.2,4.9,3.3
		c1.5-2.2,2.8-4.5,3.7-7.1c-0.4,0.5-0.7,1-1,1.4c-0.9,1.6-1.7,3.3-2.6,4.9c-1.1-0.6-1.1-0.6-0.6-1.3c0.4-0.7,0.8-1.3,1.2-2
		c0.3-0.6,0.6-1.2,1-1.9c-1.2-0.1-2-0.5-2.6-1.2c-0.9,1.4-1.6,2.9-2.4,4.3c-0.4-0.2-0.7-0.4-1-0.6c0.1-0.2,0.1-0.3,0.2-0.4
		c0.8-1.3,1.5-2.7,2.2-4c0.2-0.4,0.2-0.8,0.3-1.2h-0.1C193.3,116.1,192.4,118,191.2,120z M197.6,116.5c1.4,0.1,3-1.2,2.9-3.2
		c0-1.7-1.1-2.9-2.7-2.9c-1.7,0.1-2.9,1.3-3,3.1C194.8,115.2,196.1,116.6,197.6,116.5z"/>
	<path d="M137.2,28.5c0.5-0.1,0.9-0.2,0.7-0.9c0,0,0.1-0.1,0.2-0.1c0.2,0.4,0.3,0.7,0,1.1C137.8,28.8,137.4,29,137.2,28.5z"/>
	<path d="M142.9,121.9c0,0.2,0,0.4-0.1,0.5c-0.4,0.4-0.3,0.7,0.1,1c-0.2,0.2-0.3,0.3-0.5,0.5c-0.1,0.2-0.2,0.4-0.4,0.6
		c-0.1,0-0.1-0.1-0.2-0.1c0-0.3,0.1-0.6,0.1-1c-0.5,0.4-0.9,0.5-0.7,1.2c0.2,0.8-0.5,1.2-1.2,1.1c-0.2,0-0.4,0-0.5,0
		c-0.2,0-0.3,0.1-0.5,0.1c0-0.2,0.1-0.4,0.1-0.6c-0.2,0.1-0.3,0.1-0.4,0.2c-0.1,0-0.2,0-0.2-0.1c0-0.1,0-0.2,0-0.2
		c0.6-0.4,0-0.7-0.2-1.1c0.3-0.3,0.7-0.5,1.1-0.9c0,0.4-0.1,0.7-0.1,1.2c0.5-0.5,1-0.6,0.9-1.3c-0.1-0.5,0.3-1,0.9-1s1-0.1,1.4-0.3
		C142.6,121.7,142.7,121.8,142.9,121.9z"/>
	<path d="M163.9,51.6c1.2,1.1,2.4,2.2,2.9,3.8c0.7,2.3,0.2,4.4-1.4,6.2c-2,2.2-4.6,3.1-7.5,2.9c-2.7-0.2-5-1.3-6.5-3.7
		c-1.5-2.4-1.2-5.8,0.9-7.8c2.1-2.1,4.7-3,7.7-2.7c1.2,0.1,2.3,0.7,3.5,1.1C163.6,51.4,163.8,51.6,163.9,51.6L163.9,51.6z
		 M159.3,57.1c0,0.8,0.1,1.7,0.2,2.7c0.1,1.9-0.3,1.2,1.4,2.4c1,0.7,1.6,0.5,2.5-0.1c1.7-1.2,2.9-2.9,2.8-5.1
		c-0.1-1.8-1-3.2-2.4-4.2c-3-2.3-7.7-2-10.5,0.6c-1.6,1.5-2.3,3.5-1.6,5.7c0.6,1.9,2,3.1,3.7,3.8c0.8,0.3,1.4,0.6,2-0.3
		c0.3-0.4,0.7-0.6,1-0.9c0.2-0.2,0.3-0.5,0.3-0.7c0-1.2-0.2-2.2-0.2-3.4c0-0.7-0.3-0.7-0.8-0.8c-0.7-0.1-1.3-0.3-1.9-0.5
		c-0.7-0.2-1.2-0.7-1.2-1.4c-0.1-0.8,0.3-1.3,1-1.7c2.1-1.3,4.4-1.5,6.7-0.4c1.3,0.7,1.5,2.2,0.2,3
		C161.4,56.3,160.4,56.7,159.3,57.1z M157.1,53.7c1.1,0.6,2.6,0.5,3.1-0.3C159.4,52.7,157.7,52.9,157.1,53.7z M160.7,63.3
		c0-0.1,0-0.1,0-0.2c-0.5-0.3-1.1-0.6-1.5-0.9c-0.4,0.4-0.8,0.8-1.2,1.1c0,0.1,0,0.2,0.1,0.2C158.8,63.5,159.8,63.4,160.7,63.3z"/>
	<path d="M164,51.6c0-0.1-0.1-0.3-0.1-0.4c0.1-0.8,0-1.2-1-1.2c-0.1,0-0.2-0.2-0.2-0.3c-0.1-0.7-0.1-1.3-0.1-1.9c0.6,0,1.2,0,1.8,0
		c1-0.1,1-0.1,0.9-1.1c-0.6-0.1-1.2-0.1-1.9-0.2c-1.2-0.1-1.3-0.5-1.4-1.5c0-1.1-0.1-2.2-0.1-3.4c0.2,0,0.5,0,0.9,0
		c-0.1-0.5-0.1-0.9-0.2-1.3c0.4-0.1,0.8-0.1,1.2-0.2c0.1,0.5,0.2,0.9,0.2,1.2c0.3-0.1,0.3-0.1,0.4-1.3c0.4-0.1,0.8-0.1,1.2-0.2
		c0.1,0.4,0.1,0.8,0.2,1.2c0.3,0.1,0.6,0.2,1,0.3c0,0.8,0.1,1.4,0.1,2.1c-0.7,0-1.2,0-1.8,0c-0.2,0-0.6,0-0.7,0.2
		c-0.2,0.2-0.3,0.5-0.3,0.8c0,0,0.3,0.2,0.5,0.2c0.8,0.1,1.6,0.2,2.4,0.3c0.1,0,0.3,0.2,0.4,0.3c0.1,0.5,0.2,1,0.3,1.5
		c0.1,1,0.1,1.8,0.1,2.9c-0.1,0-0.5,0.1-0.9,0.2c0,0.4,0.1,0.8,0.2,1.2c-0.4,0.1-0.8,0.2-1.2,0.2c-0.1-0.5-0.2-0.9-0.3-1.4
		c-0.6,0.5-0.1,1.1-0.4,1.5C164.8,51.5,164.4,51.5,164,51.6C163.9,51.6,164,51.6,164,51.6z"/>
	<path d="M148.5,43.6c0.9-0.3,0.2-1,0.5-1.3c0.4-0.1,0.8-0.1,1.2-0.2c0,0.4,0.1,0.8,0.1,1.2c0.3,0.1,0.7,0.2,1.1,0.3
		c0.1,0.7,0.1,1.4,0.2,2.1c-0.8,0-1.4,0-2.1,0c-0.4,0-0.6,0.1-0.7,0.6c-0.1,0.5,0.1,0.6,0.5,0.6c0.8,0.1,1.5,0.2,2.3,0.2
		c0.3,0,0.5,0.1,0.5,0.5c0,0.5,0.1,1,0.1,1.3c0.1,0.9,0.2,1.8,0.3,2.7c-0.2,0-0.5,0.1-0.9,0.1c0.1,0.4,0.1,0.9,0.2,1.3
		c-0.4,0.1-0.9,0.1-1.2,0.2c-0.1-0.4-0.1-0.7-0.2-1.1c0-0.1-0.2-0.2-0.3-0.3c-0.1,0.1-0.2,0.3-0.2,0.4c0,0.3,0.1,0.6,0.1,1
		c-0.5,0.1-0.9,0.1-1.3,0.2c0-0.5,0.1-1-0.1-1.2c-0.2-0.3-0.7-0.2-1.2-0.4c0-0.7-0.1-1.3-0.1-2.1c0.7,0,1.2,0,1.9,0
		c0.8,0,0.9-0.2,0.8-1.1c-0.7-0.1-1.3-0.2-2-0.3c-0.9-0.1-1.2-0.2-1.3-1.1c-0.1-0.6,0.1-1.2,0-1.8c0-0.6-0.2-1.2-0.3-1.8
		c0.4,0,0.7-0.1,1.1-0.1c-0.1-0.5-0.2-0.9-0.3-1.2c0.4-0.1,0.8-0.1,1.2-0.2C148.4,42.7,148.4,43.1,148.5,43.6z"/>
	<path d="M153.7,81.7c0-0.8,0.6-1.4,1.3-1.4c0.8,0,1.3,0.7,1.3,1.4c0,0.9-0.5,1.3-1.3,1.3C154.2,83,153.7,82.5,153.7,81.7z"/>
	<path d="M155.7,75.1c0.9,0,1.3,0.6,1.3,1.4c0,0.9-0.6,1.3-1.4,1.3c-0.8,0-1.2-0.6-1.2-1.4C154.3,75.6,154.8,75.1,155.7,75.1z"/>
	<path d="M145.7,36.9c0.1-0.1,0.2-0.2,0.3-0.3c-0.1,0-0.2-0.1-0.3-0.1c0.2-0.1,0.3-0.2,0.6-0.4c-0.4,0.1-0.5,0.1-0.9,0.2
		c0.3-0.2,0.4-0.3,0.7-0.5c-0.3,0.1-0.5,0.1-0.7,0.1l-0.1-0.1c0.2,0,0.3,0,0.5-0.1l-0.1-0.1c-0.1,0-0.2-0.1-0.3-0.1
		c0.1-0.1,0.3-0.2,0.5-0.3c-0.3,0-0.4,0-0.7,0.1c1.4-0.9,2.9-1.2,4.4-1.2c-0.1,0.2-0.2,0.4-0.2,0.6c0.1,0,0.3,0,0.5,0.1
		c-0.3,0.1-0.4,0.2-0.7,0.3c0.3,0,0.5,0,0.8,0.1c-0.3,0.1-0.5,0.2-0.8,0.3c0.3,0,0.5,0,0.8,0.1c-0.3,0.1-0.5,0.2-0.9,0.3
		c0.4,0,0.7,0,0.9,0.1V36c-1.4,0.4-2.9,0.8-4.3,1.1C145.7,37,145.7,36.9,145.7,36.9z"/>
	<path d="M150.4,34.8c0-0.7,0.3-1.2,0.8-1.2s1,0.6,1,1.2c0,0.6-0.4,1.1-0.9,1.1C150.8,36,150.4,35.5,150.4,34.8z M150.5,34.7
		c0.1,0.6,0.3,1.1,0.8,1.1c0.2,0,0.5-0.5,0.5-0.8c0.1-0.4-0.1-0.9-0.6-0.8C150.8,34.1,150.7,34.5,150.5,34.7z"/>
	<path d="M162.1,34.3c-0.3,0-0.6-0.1-0.8-0.1v-0.1c0.2,0,0.4-0.1,0.8-0.2c-0.3-0.1-0.5-0.1-0.7-0.1v-0.1c0.2,0,0.4-0.1,0.7-0.1
		c-0.3,0-0.5-0.1-0.7-0.1c0.1-0.1,0.2-0.2,0.4-0.3c-0.1,0-0.3-0.1-0.4-0.1c0,0,0,0,0-0.1c1.5-0.4,3.1-0.1,4.6,0.4
		c0,0.1,0,0.3-0.1,0.5c0,0-0.2,0-0.4,0.1c0.2,0.1,0.4,0.2,0.6,0.3c-0.3,0-0.5,0-0.7,0.1c0.2,0.1,0.4,0.2,0.6,0.3
		c-0.2,0-0.4,0-0.6,0.1c0.2,0.1,0.4,0.2,0.6,0.3c-0.1,0-0.3,0.1-0.4,0.1c0.1,0.1,0.3,0.2,0.4,0.2v0.1c-1.5-0.1-3.1-0.3-4.6-0.4v-0.1
		c0.3-0.1,0.5-0.2,0.9-0.3c-0.4,0-0.7,0-0.9-0.1v-0.1C161.5,34.4,161.8,34.4,162.1,34.3z"/>
	<path d="M159.2,34.1c0-0.2,0-0.4,0-0.5c0.2-0.3,0.4-0.6,0.7-0.7c0.2-0.1,0.5,0.2,0.7,0.4c0.2,0.2,0.2,0.5,0.3,0.7
		c0.1,0.7-0.3,1.3-0.9,1.2C159.5,35.3,159.2,34.8,159.2,34.1z M159.4,34c0.1,0.6,0.3,1,0.8,1c0.2,0,0.5-0.5,0.5-0.8
		c0-0.4,0-1-0.6-0.9C159.8,33.4,159.6,33.7,159.4,34z"/>
	<path d="M156.8,72.1c0.4-0.5,0.8-1,1.2-1.5C158,71.9,157.8,72.1,156.8,72.1z"/>
	<path d="M157.8,69.1c0.4,0.7,0.2,1-0.6,1c-0.3,0-0.5,0-0.8,0c0.3-0.4,1.2,0,1.1-0.9C157.5,69.1,157.6,69.1,157.8,69.1L157.8,69.1z"
		/>
	<path d="M155.5,72.1c-1,0-1.2-0.4-1.2-1.2C154.7,71.3,155.1,71.8,155.5,72.1z"/>
	<path d="M155.3,69.1c-0.1,0.1-0.2,0.2-0.3,0.4c0.3,0.1,0.5,0.2,0.7,0.3v0.1c-0.3,0-0.6-0.1-0.8-0.2c-0.1,0-0.2-0.4-0.1-0.5
		C154.8,69.2,155,69.1,155.3,69.1C155.2,69.1,155.2,69.1,155.3,69.1z"/>
	<path d="M169.5,21.8c0.1,0.5,0.1,1,0.9,0.9c0,0.1,0,0.1,0,0.2c-0.2,0-0.5,0.2-0.6,0.1c-0.2-0.2-0.3-0.5-0.4-0.7
		C169.4,22.1,169.5,21.9,169.5,21.8L169.5,21.8z"/>
	<path d="M119.2,91.1c-0.2,0-0.3-0.1-0.5-0.1l-0.1,0.1c0.1,0.1,0.2,0.2,0.3,0.3c0.1,0.1,0.2,0.2,0.3,0.3c-0.6-0.2-1-0.1-1,0.6
		c-0.4-0.1-0.7-0.2-1.2-0.4c0.3-0.2,0.6-0.3,0.9-0.5c-0.5-0.3-0.8-0.4-1.2-0.1c-0.8,0.5-1.3,0.3-1.5-0.6c0-0.2-0.2-0.3-0.4-0.4
		c-0.1-0.1-0.1-0.2-0.2-0.3c0.3,0,0.5-0.1,0.8-0.1c-0.2-0.2-0.4-0.3-0.7-0.6c0.9,0.2,0.9,0.2,1.2-0.6c0.3,0.1,0.7,0.3,1.1,0.5
		c-0.3,0.2-0.6,0.3-0.9,0.5c0.5,0.2,1,0.6,1.5,0.1c0.4-0.4,1.1,0,1.2,0.5C118.8,90.5,119,90.8,119.2,91.1z"/>
	<path d="M206.1,80.6c-0.3-0.6-0.7-1.1-1-1.6c0.8-0.8,0.9-0.7,1.2,0.6c-0.1-0.2-0.3-0.5-0.5-0.8c-0.6,0.5,0,0.9,0.1,1.2
		C206,80.2,206,80.4,206.1,80.6L206.1,80.6z"/>
	<path d="M207.4,88.6c-0.4,0.1-0.8,0.2-1.2,0.4c0.1-1-0.6-0.6-1.2-0.6c0.4-0.2,0.6-0.3,0.8-0.4v-0.1c-0.2,0-0.5,0-0.6,0
		c0.2-0.4,0.4-0.8,0.6-1.2c0.3-0.4,0.7-0.6,1.1-0.3c0.6,0.5,1.1,0.2,1.6-0.1c-0.3-0.2-0.6-0.3-0.9-0.5c0.3-0.2,0.7-0.3,1-0.4
		c0.3,0.7,0.3,0.7,1,0.8c-0.1,0.2-0.3,0.3-0.4,0.5c0.2,0.1,0.4,0.1,0.5,0.1c-0.1,0.3-0.3,0.6-0.4,0.9c-0.2,0.5-0.9,0.8-1.2,0.5
		c-0.5-0.4-1-0.3-1.5,0C206.8,88.3,207.1,88.4,207.4,88.6z M207.7,86.9c0.6,0.4,1,0.3,1.2-0.3C208.4,86.7,208,86.8,207.7,86.9z"/>
	<path d="M129.3,116.2c-0.3,0.4-1,0.5-0.4,1.2c-0.4,0.2-0.8,0.3-1.2,0.5c0.2-0.4,0.3-0.6,0.4-1c-0.5,0-0.9,0.1-1.1,0.6
		c-0.3,1-0.9,1.2-1.7,0.6c-0.2-0.1-0.5-0.1-0.8-0.2c0.1-0.1,0.3-0.3,0.5-0.6c-0.3,0-0.5,0-0.7,0l-0.1-0.1c0.2-0.1,0.5-0.2,0.5-0.4
		c0.1-0.3,0-0.5-0.1-0.9c0.4-0.1,0.7-0.2,1.2-0.4c-0.2,0.4-0.3,0.6-0.5,1c0.6-0.2,1.1-0.1,1.2-0.8c0.3-0.7,0.9-1.1,1.7-0.3
		c0.3,0,0.5-0.1,0.8-0.1c0,0.1,0,0.1,0,0.2c-0.2,0.1-0.4,0.2-0.7,0.3c0,0,0,0.1,0.1,0.1C128.8,116.3,129,116.2,129.3,116.2z"/>
	<path d="M199,113.5c-0.1-0.3-0.3-0.6-0.4-1c0.4,0.1,0.8,0.3,1.2,0.4c-0.4,0.7-0.3,0.8,0.4,1.2c-0.2,0-0.4,0.1-0.6,0.1v0.1
		c0.1,0.1-0.1,0.5-0.2,0.5c-0.1,0.1-0.2,0.1-0.3,0.2c-0.6,0.4-1.2,0.3-1.5-0.5c-0.3-0.7-0.3-0.7-1.1-1c0.1,0.3,0.3,0.7,0.4,1
		c-0.5-0.2-0.8-0.3-1.2-0.5c0.3-0.6,0.2-1-0.6-1c0-0.1,0.1-0.1,0.1-0.2c0.2,0,0.5,0,0.9,0.1c-0.3-0.3-0.5-0.4-0.6-0.5
		c0.4-0.1,0.7-0.2,1-0.4c0.6-0.3,1.2-0.1,1.4,0.6C198.1,113.4,198.1,113.4,199,113.5z"/>
</g>
</svg>
