<?xml version="1.0" encoding="utf-8"?>
<!-- Generator: Adobe Illustrator 24.0.2, SVG Export Plug-In . SVG Version: 6.00 Build 0)  -->
<svg version="1.1"
	 id="Слой_1" image-rendering="optimizeQuality" shape-rendering="geometricPrecision" text-rendering="geometricPrecision" xmlns:xodm="http://www.corel.com/coreldraw/odm/2003"
	 xmlns="http://www.w3.org/2000/svg" xmlns:xlink="http://www.w3.org/1999/xlink" x="0px" y="0px" viewBox="0 0 238.1 150.2"
	 style="enable-background:new 0 0 238.1 150.2;" xml:space="preserve">
<style type="text/css">
	.st0{fill-rule:evenodd;clip-rule:evenodd;fill:#373535;}
</style>
<g id="Layer_x0020_1">
	<path class="st0" d="M199.1,128.4c0-0.6-0.1-0.6,0.2-1l0.3-0.5c1.3-1.2,1.7-0.2,3.8-0.2c1.5,0,2.9-0.6,3.7-1.3
		c0.7-0.6,1.8-1.9,2.1-2.9c0.8,0.1,0.8,0.8,1.2,2.1l2.4,7.7h-3.3c-1.2,0-3.7-0.5-4.8-0.7c-0.6-0.1-1.1-0.3-1.7-0.5
		c-0.6-0.2-2.8-0.9-3.2-1.2C199.3,129.7,199.1,129,199.1,128.4L199.1,128.4z M40.5,36.1c0,0.4-0.1,0.2-0.1,0.6l0.3-1h-0.3
		C40.5,36,40.5,35.9,40.5,36.1z M7.5,49.6l-0.2-0.5C7.2,49,7.2,49,7.2,48.9C7.2,49.6,7.1,49.4,7.5,49.6L7.5,49.6z M222.1,47.1
		c0.2-0.1,0.4-0.2,0.4-0.7C222.3,46.6,222.2,46.7,222.1,47.1z M40.3,35.6h0.2c0-0.2,0-0.3-0.1-0.4c-0.1-0.4,0.1-0.1-0.2-0.4
		C40.2,35.3,40.3,35.3,40.3,35.6z M12.8,47.3c0.1-0.3-0.1-0.2-0.2-0.7h-0.2C12.4,46.9,12.4,47.1,12.8,47.3z M45.5,35.1
		c-0.1-0.3,0-0.2-0.1-0.5c-0.1-0.5,0.1-0.1-0.2-0.4C45.2,34.8,45.1,34.8,45.5,35.1L45.5,35.1z M45.5,34c-0.1-0.4-0.2-0.6-0.6-0.7
		c0.1,0.1,0.1,0.3,0.2,0.4C45.3,34.1,45,33.9,45.5,34z M12.5,46.3c0-0.6-0.3-0.7-0.8-0.8L12.5,46.3z M7.9,50.9L8,50.8
		c0.1-0.2,0.2-0.6,0-0.8s0-0.1-0.3-0.1C7.8,50.2,7.8,50.6,7.9,50.9z M222.9,46.2c0.5-0.1,0.5-0.5,0.5-1.1h-0.2
		C223.2,45.5,223,45.8,222.9,46.2z M216.4,44.4c0.4-0.1,0.8-0.3,1-0.7c0.1-0.2,0.1-0.4,0.2-0.6c0.1-0.3,0.2-0.3,0.3-0.6
		c-0.7,0.2-0.4,0.6-0.7,1C217,44,216.5,43.8,216.4,44.4L216.4,44.4z M64.7,17.5c0.3-0.1,0.4-0.3,0.7-0.5c0.4-0.5,0.3-0.2,0.8-0.4
		c0.3-0.1,0.4-0.3,0.6-0.6c0.2-0.3,0.2-0.6,0.2-1.1c-0.6,0.4-0.6,1.1-1,1.4c-0.2,0.2-0.6,0.2-0.8,0.4C64.9,16.9,64.8,17.2,64.7,17.5
		L64.7,17.5z M217,77.4c0.7-1.3,0.4-1.5,0-2.5c-0.4-0.2-0.7-0.8-1-1.1c-0.7-0.7-1.5-1.4-2.4-2l-2.2-1.2c-2-0.8-3.9-1.3-6.1-1.7
		c-1.2-0.2-2.5-0.4-3.7-0.7c-2.1-0.4-8.1-1.3-9.4-1.8c-0.8-0.3-1.3-0.9-2-1.4c-0.2-0.2-0.3-0.2-0.6-0.5c-0.6-0.6-1.6-1.6-2.3-2.1
		c-0.9-0.6-1.9-1.1-3-1.5c-1-0.3-2.4-0.8-3.4-1c-0.6-0.1-1.7,0-2.3,0l-2.1-0.1c-0.7,0-1.5,0-2.2,0c-0.8,0-1.3,0.1-2.1,0.1
		c-2.9,0-3.3,0.1-6.1,0.7c-1.3,0.2-2.5,0.6-3.8,0.6c0.5-0.7,0.9-1.1,1.6-2.3c1.8-3,2.1-6.4,0.4-9.3c-0.7-1.2-1.8-2.2-2.9-3
		c-1.9-1.4-5-2.7-7.3-1.6c-0.1-0.3-0.1-0.3-0.2-0.6l-1.1-2.9c-0.2-0.4-0.3-0.8-0.4-1.2l1.5-1.8c0.3-0.3,0.5-0.2,0.9-0.3
		c0.6-0.1,1.6-0.2,2,0c0.5,0.2,0.9,0.7,1.1,1.2l0.6,1.6c0.6,1.4,1.1,3.7,3,3.7c0.6-0.9,0.2-2.2,0-3.2c-0.3-1.3-3.1-11.4-3.8-12.1
		c-0.1-0.1-0.5-0.3-0.6-0.4c-0.3-0.1-0.5-0.2-0.9-0.1c-0.7,0-0.7,0.5-0.7,1.3c0.1,1.3,1.3,4.1,1.2,4.8s-0.7,0.6-1.5,0.6
		c0-1,0.3-1.4,0.2-2.8c-0.1-1.4-0.4-2.9-1.2-4.1c-1.7-2.7-4.5-4.6-7.6-5.3c-0.9-0.2-1.9-0.1-2.9-0.1c-0.2-0.4-0.3-0.9-0.6-1.4
		c-0.9-1.8-0.5-2.1-2.2-2.8c-2.5-1-1.8-3.4-3.1-6.1c-0.4-0.8-1-1.9-1.9-2.1c-1.4-0.2-1.8,1.1-2.2,1.9l-1.8,3.2
		c-0.9,1.4-2.6,3.1,1.2,3.5c1.8,0.2,3.4,0.3,4,2.1c0.1,0.4,0.2,1.4-0.2,1.6c-0.6,0.3-0.4,0-1.2,0.8c-0.8,0.9-1.6,1.9-2.3,2.8
		c-1.3,1.6-2.9,3.4-4.3,4.7l-1.1,0.9c-0.1,0.1-0.1,0.1-0.3,0.2c-0.1,0.1-0.1,0.1-0.3,0.2c-0.3,0.2-0.3,0.3-0.7,0.4
		c0.8-1.5,1.6-3.8,0.8-5.5c-0.5,0.1-0.9,0.5-1.3,0.8c-0.1-0.2-0.2-0.3-0.3-0.5c-0.1-0.3-0.2-0.3-0.3-0.6c-0.9-2-1.9-3.7-3.3-5.4
		c-0.2-0.2-0.2-0.2-0.2-0.5c0-0.1,0.1-0.5,0.1-0.7c0.4-1.5,0.6-3.1-0.2-4.3c-0.8-1.1-1.8-0.7-2.6,0.1c0,0,0,0,0,0.1
		c-0.9,1-2.1,2.5-2.4,3.8l-0.9-0.8c-0.5-0.6-1.2-1.1-1.7-1.7c-0.2-0.2-0.2-0.3-0.4-0.5c-0.2-0.2-0.3-0.3-0.5-0.4
		c-0.8-0.8-1.7-2-2.8-2.3c-1.4-0.4-4.6,2.4-5.6,3.7c-0.5,0.6-1,1.3-1.4,2l-1.3,3.1c-0.3,1.1-1,3.3-0.7,4.4c0.5,2.1,3.5,1.6,3.1,3.7
		c-0.3,1.8-0.3,3.9,0.9,5.5c0.5,0.7,1.2,1,2.2,1.2c1.1,0.2,1.3,0.2,1.2,1.4c0,0.4-0.1,0.4-0.2,0.7c-1.2,0-2.2-0.6-3.3-0.6
		c0-1.2,0-1.8-0.5-2.5c-0.9,0-1,0.8-1.2,1.5c0,0.1-0.1,0.3-0.1,0.5c-0.1,0.3,0,0.3-0.2,0.5c-0.6,0.9-0.6,0.7-1.7,0.6
		c-0.3,0-0.6-0.1-0.9-0.3c-0.3-0.3-1.6-3.2-1.9-3.9L98,33.9c-0.3-0.6-0.5-1-0.8-1.6c-0.4-0.8-1.2-2.4-1.7-2.9
		c-2.6-2.7-6.7,0.7-5.6,3.7c0.5,1.4,1.9,1.6,2.4,0.1c0.1-0.3,0.1-0.6,0.2-1l0.2-1c0.8,0,1.2,0.6,1.6,1.2l2.9,5.6
		c0.2,0.3,0.3,0.6,0.5,0.9c0.3,0.5,0.8,1.2,0.9,1.9c0,0.3-1,1.7,0,4c0.1,0.2,0.2,0.3,0.3,0.4c0.3,0.4,0.4,0.5,0.6,0.9
		c-0.9,0-1.7-0.3-2.6-0.4c-1.2-0.2-0.9,0-0.6-2c0.1-0.9,0.3-1.7,0.4-2.6c0.2-0.9,0.4-1.8,0-2.7c-0.5-1.3-2-1.4-2.5,1.7
		c-0.1,0.9-0.3,1.8-0.4,2.6c-0.1,0.9-0.4,1.8-0.4,2.7c-3.5,0-8,0.5-10.2,3.4c-2,2.6-1.9,6-0.4,8.8c1.2,2.2,3.6,2.6,6,3.2
		c0.6,0.1,1.3,0.4,1.9,0.4c0,0.7-0.3,1.6-0.4,2.2L89.1,70c-1.4-0.3-2.8-0.5-4.2-0.8c-1.2-0.2-1.1-0.8-1.4-1.9
		c-0.4-1.4-0.3-2.2-0.5-2.9c-0.1-0.4-0.3-0.9-0.5-1.2c-0.4-0.6-1.4-0.8-2.5-0.8c-3.8,0.2-4.3,4.1-4.9,5.3c-3.1,0-6.3-0.3-9.3-0.8
		c-0.8-0.1-1.5-0.1-2.3-0.2c-0.6-0.1-1.5-0.3-2.1-0.5c-0.8-0.2-3.7-1-4.2-0.7c-0.3,0.2-0.4,0.4-0.5,0.7C56.4,67,56.2,67.4,57,68
		c0.8,0.6,3.1,2.7,3.8,2.7c0.8,0,1.6-0.6,1.1,0.8c-0.1,0.3-0.2,0.7-0.3,1l-0.6,2c-0.2,0.7-0.8,2.4-0.9,3c-0.4,0-1-0.3-1.3-0.5
		l-3.9-1.6c0.3-0.6,0.9-2.9,1.1-3.6c0.3-0.9,0.7-2,0.5-3c-0.2-0.8-1-0.9-1.4-0.3c-1,1.3-1.2,3-1.7,4.5l-0.6,1.9
		c-0.7,0-1.1-0.1-1.8-0.1c-0.5,0-0.5-0.1-0.9-0.1c-2.8,0.2-5.9,1-7.2,3.6c-0.3,0.5-0.4,0.8-0.6,1.4c-0.6,1.8-0.5,4.9,0.6,6.5
		c0.5,0.7,1.4,1.3,2.3,1.7c0.3,0.1,0.4,0.2,0.7,0.3c0.6,0.3,1.5,0.8,2.1,0.9c0,0.3-0.1,0.4-0.2,0.6c-1,0-6.4,0.1-7.1-0.1
		c-1.1-0.3-2.2-1-3.7,0c-0.5,0.4-0.8,0.7-1.2,1.2l-1,1.4c-0.4,0.5-0.2,1.6-0.2,2.3c0,0.8,0,1.6,0,2.4s0.3,1.1,0.7,1.7
		c0.2,0.3,0.3,0.5,0.4,0.8l1.4,2.2c0.2,0.3,0.3,0.4,0.5,0.7l0.5,0.7c0.7,0.8,1.6,1.6,2.4,2.3c0.2,0.2,0.4,0.3,0.7,0.5
		s0.5,0.4,0.7,0.6c-0.4,1.8-2.9,6.2-1.3,7c0.6,0.3,1-0.4,1.3-0.8c0.6-1,1.1-3,1.6-4.2c0.1-0.3,0.2-0.6,0.3-0.9
		c0.4,0,0.9,0.3,1.3,0.5c1.5,0.5,2.8,0.9,4.5,0.9c-0.1,0.5-0.3,0.9-0.4,1.4c-0.3,0.9-1.4,3.6-0.5,4.2c0.9-0.2,1.2-1.7,1.5-2.5
		c0.2-0.5,0.4-1,0.5-1.5c0.2-0.5,0.3-1.1,0.5-1.5c2.6,0,4.3-0.5,6.5-1.7c0,1,0.4,2,0.7,2.9c0.1,0.2,0.2,0.7,0.3,0.9
		c-0.6,0.4-1.4,1.4-1.8,2.1c-1.1,2.1-0.9,4.9,0.4,6.9c0.4,0.6,0.9,1.1,1.5,1.5c0.9,0.7,2.3,1,2.6,1.3c0.3,0.2,0.6,0.8,0.8,1.1
		c1.1,1.5,3,2.7,4.9,3c0.4,0.1,1.4,0.2,1.8,0.2l1.7-0.2c4.6-0.8,5.8-4.6,6.4-5.3c0.5-0.5,2.1-0.5,3.5-2.4c0.5-0.7,0.9-1.9,0.8-3.1
		c-0.1-1-0.7-2-1.3-2.6c-0.3-0.3-0.8-0.6-1.2-0.8c-0.2-0.1-0.4-0.2-0.7-0.3c-0.4-0.2-0.4-0.1-0.6-0.4c0.5-0.1,1-0.7,1.4-1.1
		c0.6-0.6,0.3-1,0.3-2c-0.5-0.1-3-1.9-3.9,1.4c-0.2,0.6-0.1,1.2-0.4,1.8c-0.5,0-0.5-0.1-0.8-0.3l-1.4-0.9c-0.3-0.2-0.4-0.3-0.8-0.4
		v-0.2c0.6-0.2,1.8-1.2,2.2-1.6c0.4-0.4,1.5-2,0.7-2.6c-0.3-0.3-0.9-0.3-1.3-0.6c-0.4-0.3-0.5-0.6-0.7-1.2c-0.7-1.8-3.1-0.2-3.9,2.3
		s-0.2,3.6-2.2,3.6c-1.1,0-1.7-0.8-4.2-0.7c-0.5,0-0.4,0.1-0.8,0.1c-0.1-0.8,1-1.7,0.7-2.9c-0.4-2.1-1.1-0.5-2.3-1.2
		c0.5-0.8,1.2-1.4,1.6-2.3c1.4-2.6,1.4-5.3,0.9-8.2c-0.1-0.3-0.1-0.5-0.2-0.8c-0.1-0.3-0.2-0.4-0.2-0.8c1,0,6.7,0.1,7.1,0.3
		c0.4,0.4-0.1,1.9,0,2.6c0,0.4,0.1,0.5,0.5,0.5c0.1-0.6,0.3-0.5,0.3-1.4c0-0.6,0-1.1,0-1.7c0.4,0,0.3-0.1,0.8-0.1
		c1.2-0.1,2.4,0.2,3.6,0.2c0.8,0,1.9,0.3,2.6,0.3c-0.6,1.3-0.5,3.3-0.5,5.3c0,0.6-0.1,0.8-0.1,1.3c-0.1,2.2,0.4,3.1,0.4,4.1
		c0.8-0.5,0.5-1.7,0.4-2.4l0.1-2.9c0-1.4-0.2-3,0.2-4.3c0.2-0.7,0.1-0.7,0.4-1.2c1.2,0,2.9,0.1,4.1,0c0.7-0.1,1.1-0.1,1.9,0
		s0.9,0.3,0.9,1.2c0,1.4,0,2.7,0,4.1c0,0.7,0,1.4-0.1,2c-0.1,0.5-0.2,1.4,0.2,1.9c0.5-2.2,0.1-4,0.2-4.6c0-0.2,0.2-0.7,0.2-1
		c0-0.4,0-0.9,0-1.3c0-0.6,0-1.1,0.1-1.7c0.1-0.4,0.2-0.5,0.5-0.5s3.2,1.7,3.4,1.9c-0.8,1.5-2.3,2.8-2.9,3.9c-0.6,1,0,1.5,0,2.2
		c-0.1,0.6-1.3,1.2-0.9,3c0.2,1.1,0.8,1.3,1.8,1.6c1.7,0.5,2-0.3,2.9-1.6c0.8,0.6,1.1,2.2,3,1.8c1.1-0.3,1.9-1.5,2.1-2.7
		c0.2-1.4-1.1-2.1-1.3-3.4c-0.2-0.9-0.2-3.6-0.2-4.6c0.7,0,1.3-0.2,2.1-0.2c1.5,0,3-0.2,4.5-0.1c0.9,0.1,0.9,0.6,0.9,1.5
		s0.1,1.4,0.1,2.2c0,0.8,0,1.6,0,2.4c0,2.3-0.4,2.6-0.5,4.2c-1,0-1-1.1-2.2-0.9c-0.7,0.2-1.2,1.1-1.4,1.8c-0.2,0.8-0.1,2.1,0,2.9
		c0.2,0.9,0.5,1.7,0.6,2.6c-0.6,0.4-1.4,1-1.9,1.6c-0.2,0.2-0.2,0.3-0.3,0.4c-2.3,2.6-2.2,7.1-0.1,9.9c0.4,0.5,1.2,1.4,1.7,1.8
		c0.2,0.1,0.3,0.2,0.5,0.3c1.2,0.8,0.9,1.2,1.7,2.7c1.1,1.8,2.8,3.2,4.7,4c4.5,1.9,9.6-0.2,11.9-4.2c0.4-0.7,0.8-1.7,1-2.6
		c0.9,0.2,1.6,0.6,2.6,0.7c1.4,0.1,2.8-0.2,4-0.8c0.5-0.3,0.6,0,1.2,0.2c5.3,1.6,7.7-4.5,4.3-7.1c-0.4-0.3-0.7-0.4-1-0.7
		c0.5-0.1,1.8-1.1,1.6-1.7c-0.4-0.5-0.6-0.4-0.9-0.8c-0.3-0.4-0.2-0.9-0.9-0.7c-1.1,0.3-1.1,1.2-1.6,2c-0.4-0.3-0.8-1-1.2-1.4
		c-0.4-0.4-1.1-0.9-1.3-1.3c0.6-0.3,1.2-0.4,1.8-0.9c0.5-0.3,1-1,1.2-1.6c-0.1-0.7-1.2-0.5-1.5-1.7c-0.1-0.5-0.2-0.8-0.7-0.9
		c-1.7-0.5-3.5,3-3.8,4.2c-2.1,0-3.9,0.5-5.3,2c-0.3,0.3-0.3,0.3-0.6,0.6c-0.2,0.3-0.4,0.4-0.5,0.8c-0.4-0.1-1.7-1-1.8-1.4
		c0.5-0.1,1.6-0.6,2.1-0.9c0.1-0.1,0.2-0.1,0.3-0.2c0.2-0.1,0.2-0.1,0.4-0.2c0.3-0.2,0.8-0.7,1-1c0.4-0.5,0.5-0.8,0.5-1.6
		c-0.2-0.2-0.3-0.3-0.5-0.5c-0.3-0.2-0.4-0.2-0.7-0.4c-0.7-0.5-0.6-0.5-0.8-1.4c-0.2-1.4-1.4-1.5-2.6-1c-0.8,0.3-1.7,1.5-2.1,2.2
		c-0.3,0.4-0.5,0.9-0.7,1.4c-0.1,0.2-0.2,0.5-0.4,0.7c-0.1,0.3-0.2,0.5-0.3,0.8c-0.9-0.2-1.9-2.8-7.3-2.8c0.1-1.2,1.9-2.4,1.3-4.4
		c-0.2-0.7-0.5-0.6-0.7-0.7h-0.1c-0.3-0.1-0.2,0-0.4-0.1l0.4-3.4c0-0.6,0-1.3,0-1.9l0.1-1.9c0-0.4-0.1-0.4-0.1-0.8c0-0.3,0-0.7,0-1
		c0-0.7-0.3-1.1,0.4-1.3c0.7-0.2,2.7-0.2,3.6-0.1c0.7,0.1,0.7,0.5,0.8,1.1c0.3,2.3,0.3,4.8,0,7.2c-0.1,0.6-0.1,1.1-0.2,1.7
		c-0.1,0.8-0.2,2.7,0.2,3.4c0.9,0,0.6-0.5,0.6-2.3c0-2,0.5-3.6,0.5-5.7l-0.2-4.5c-0.1-1.3,0.1-1,1.7-1.2c0.3,0,0.5,0,0.8,0l2.1-0.2
		c0.3,0,0.5,0,0.8,0c1.1-0.1,2.5-0.3,3.7-0.3c0.1,0.3,0.2,0.6,0.4,0.9c0.4,0.9,0.7,2,1.1,2.8c-0.8,0.5-1.7,1.7-2,2.6
		c-0.5,1.3-0.2,2.6,0.3,3.8c0.3,0.5,0.5,1,0.9,1.4c1.4,1.3,1.7,0.1,1.7,2.9c0,0.9,0.1,1.4,0.1,2.3h0.2c0.3-1.1,0.2-3.2,0.2-4.3
		c0.3-0.2,0.7-0.3,1-0.5c1.7-1.1,2.5-3.3,2.1-5.3c-0.3-1.3-1.8-3.1-1.5-4.5c0.1-0.5,0.8-1.5,1.2-1.9c0.7-0.7,1.3-0.5,2.5-0.6
		c1-0.1,1.7-0.4,2.7-0.2c0.2,0.9,0.3,3.1,0.2,4.3l-1,9.2c0,0.4-0.1,0.7-0.1,1.1c-0.1,0.7-0.3,1.3,0,1.9c0.6,0,0.3-0.1,0.7-0.3
		c0-1.2,0.5-4.5,0.6-5.9l0.4-3.9c0.2-1.5,0.1-5,0.1-6.4l2.8-0.5c1-0.1,1.9-0.3,3-0.3c-0.1,0.8-1.1,2-1.6,2.7
		c-1.2,1.7-0.6,1.5-0.6,4.4c0,1.1-0.3,1.9-0.2,3.1c0,0.4,0.2,0.5,0.1,1c-0.2,1.7,0,1.5,0.1,3l0.1-0.1c0.4-0.5,0.2-1.2,0.2-1.8
		c0-0.8,0-1.5,0-2.3l0.1-3.3c0-0.4,0.1-0.5,0.1-1.1c0.4,0.3,0.7,0.6,1,1c0.2,0.2,0.2,0.4,0.4,0.6c0.7,1,1.5,1.9,2,2.9
		c-0.2,0.4-0.3,0.7-0.7,1c-2.7,2.7-3.4,2.2-0.7,4.2c0.3,0.2,0.3,0.2,0.4,0.7l0.2,4.3c0.3,0,0.4,0,0.6-0.1c0-0.8-0.1-1.2-0.1-2
		c0-2.4-0.8-2.7,1.4-2.7c0.9,0,1.3-0.2,2,0c0.2,0.7,0,2.6,0,3.6c0.6,0,0.5,0,0.6-0.5c0.3-1.1-0.1-1.6-0.1-3.2c0.4,0,0.4-0.1,0.7-0.1
		s0.6,0,0.9,0c0.6,0,1.2,0.1,1.8,0c4.3-0.7,3.7,0.1,6.9-2.8c0.2-0.2,0.3-0.3,0.4-0.4l2.1-2.3c0.2-0.2,0.3-0.2,0.4-0.5
		c0.4-0.5,0.6-1,0.6,0c0,2,0.5,2.5,2.1,3.2c0.3,0.1,0.9,0.5,1.3,0.5c0,0.9-1.9,5.1-2,6.1c-0.5,0-0.4-0.1-0.7-0.4
		c-0.3-0.2-0.4-0.3-0.6-0.6c-0.2-0.2-0.4-0.4-0.5-0.6c-0.4-0.5-1.4-1.6-1.3-2.2c0.1-0.8,0.9-0.6,1.6-0.7c0.6-2.4-2.3-2.3-3.3-0.4
		c-0.6,1.2-0.1,2.2,0.6,3.3c0.9,1.4,2.2,2.4,3.5,3.3c-0.2,0.8-0.7,1.6-0.8,2.4c-0.1,0.6,0,0.6,0.3,0.8c0,0-0.1,0.2,0.3,0
		c0.4-0.1,0.6-0.7,0.7-1l0.6-1.6l1.3,0.4c0,0.9-0.6,1.1-0.3,2.3c0.5,0,0.6-0.4,0.8-0.8c0.1-0.2,0.1-0.4,0.2-0.6
		c0.3-1.1,0.8-0.4,2.8-0.5c4.2-0.2,6.7-4.1,4.2-7.8c-0.7-1.1-1.2-1.4-2.5-1.7c-0.3-0.1-0.8-0.3-1.1-0.3c0-0.4,0.2-0.6,0.3-0.9
		c0.1-0.4,0.2-0.6,0.3-1c0.2-0.6,0.4-1.4,0.6-2c0.2,0.1,0.6,0.3,0.9,0.4c0.3,0.2,0.5,0.3,0.9,0.5l1.7,1.1c1.6,1-1.5,2.6,0.2,3.7
		c0.3-0.1,0.3-0.1,0.5-0.3c0.1-0.1,0.2-0.3,0.3-0.5c1-1.8,2.2-3.4,3.4-5c0.5-0.7,1-1.3,1.4-2c-0.1-0.4-0.2-0.6-0.5-0.9
		c0,0,0,0-0.1,0c-0.8,0.4-1.3,1.4-2,2c-0.8,0.6-1.5,1.8-2.1,2c-1.3-0.7-2.7-2.1-4.2-2.4l0.9-3.1c0.1-0.5,0.2-0.7-0.2-1
		c-0.8,0.2-1.1,2.9-1.5,3.7c-0.4-0.1-0.7-0.2-1.1-0.3c0.1-0.5,0.3-1,0.4-1.5c0.2-0.6,0.3-0.8,0.3-1.6l-0.4-0.3
		c-0.7,0.2-0.7,0.7-0.9,1.4c-0.2,0.6-0.3,1.3-0.6,1.7c-0.8,0-1.5-0.2-2.5-0.1c-0.6,0.1-1.1,0.2-1.6,0.4l-0.4,0.2c0,0,0,0-0.1,0
		c0-0.5,1-2.7,1.2-3.8c0.3-1.5,0.6-1.8,1.7-2.7c0.9-0.7,2.7-0.4,4-0.4c5.4,0,4.6-0.7,4.6,3.9c0,0.7-0.1,1.1-0.1,1.7l-0.1,2.5
		c0,0.4,0.1,0.3,0.1,0.8l0.7-6.1c0-0.5,0.1-1,0.1-1.5c0.1-1.4,1.5-0.9,4.2-0.9c1.1,0,2.2,0,3.3,0c0.4,0,0.4,0.1,0.7,0.1l2.4,0.2
		c0.6,0.1,0.9,0,1.1,0.5c0.3,1.4-0.5,4.4,0.6,4.5c0-0.5,0-1,0-1.5l-0.1-2.9c0-0.9,0.5-0.7,0.8-0.4c0.3,0.4,0.7,1.6,0.9,2.1
		c0.3,0.6,0.7,1.5,1,2.1c0.6,0.9,0.5,1.2,0.2,2.4c-0.1,0.4-0.3,0.7-0.3,1.2c-0.1,1.8,0.2,4.1,1.8,5.1c0.2,0.1,0.3,0.2,0.5,0.3
		c0,1.4-0.4,3.8,0.9,3.9c1.9,0.1,0.3-3.7,1.4-4.4c1.6-1,2-1.3,2.3-3.5c0.1-0.6,0.1-0.9,0-1.4c-0.3-1.6-0.6-1.4-0.4-3.7l0.2-2.3
		c0.1-0.8-0.1-0.8,0.2-1.5l12.1,0.2c0.3,0.4,0.3,0.6,0.5,1.1c0.1,0.4,0.3,0.8,0.4,1.2c-1.5,0.8-3,1.8-4.3,2.8L196,101
		c-0.2,0.2-0.4,0.5-0.7,0.7c-1.2,0.9-2.5,2.9-3,4.3c-1,2.9,0,3.7-0.3,5.1c-1.1,0-2.6,0.7-3.4,1.4c-0.1,0.1-0.1,0.1-0.3,0.2l-0.5,0.5
		c-0.1,0.2-0.1,0.1-0.2,0.3c-1.5,1.8-1.7,4.9-0.6,6.9c1.4,2.7,5,4.1,7.9,3.1c1.1-0.4,1.6-0.9,2.5-1.5l0.1,0.6
		c-0.6,0.1-1.1,0.5-1.6,0.8c-0.6,0.5-0.8,0.7-1.2,1.3c-1.7,2.2-1.2,7.8,1.2,9.1l1.6,0.8c0.3,0.1,0.5,0.2,0.8,0.4
		c3.6,1.5,7.2,2.3,11.2,2.3c0.8,0,1.7,0,2.5,0c0.9,0,1.5-0.2,2.3-0.2c0.2,0.5,0.4,1.3,0.5,1.9c0.1,0.6,0.3,1.2,0.5,1.9
		c0.2,0.9,0.7,3.1,1.1,3.8h4.1c0-0.4-0.2-0.7-0.3-1.1l-1.9-5.1c-0.2-0.7-0.5-1.5-0.8-2.1c1.2-0.1,4.4-1.5,5.5-2
		c0.6-0.3,2.5-1.4,3-1.6c0.1,0.8,1,3.2,1.3,4.1c0.2,0.5,0.2,0.6,0.5,0.9l1.2,1.6c0.2,0.2,0.5,0.4,0.8,0.6c0.4-0.7,0.2-1.5,0-2.2
		c-0.3-1.6-1.9-5.8-1.9-6.4c0.6-0.2,3.1-2.4,3.5-2.8c1.6-1.6,2.8-3.7,3.6-5.7c0.4-0.8,0.3-2,0.3-2.9c0-1.4,0.2-5.2-0.2-6.1l-0.5-1
		c-0.1-0.1-0.2-0.3-0.3-0.5l-0.7-0.9c-0.2-0.2-0.2-0.2-0.4-0.4c-0.8-1.1-3.2-2.8-4.4-3.5c-1.3-0.7-2.9-1.4-4.6-1.7
		c-1.9-0.4-2.8-0.5-4.6,0.2c-0.3,0.1-0.3,0.1-0.6,0.2c-0.3-1.2-2.4-6.5-3-8.2l-0.4-1.2c1.9,0,3.6-0.2,5.4-0.5
		c3.6-0.6,3.7,1.1,4.8,3.9c0.6,1.6,0.8,2.8,2,4.1c1.2,1.2,3.1,2.1,3-0.7c-0.1-1.7-0.6-3.4-1-5c-0.8-3.2-1.7-6.3-2.7-9.4
		c-0.1-0.4-0.2-0.7-0.4-1.1c-0.1-0.4-0.2-0.9-0.4-1.2c0.9-0.1,2-0.4,2.8-0.7c0.8-0.4,1.4-0.9,2.1-1.4c1.5-1.2,2.3-2.6,2.2-4.8
		c0-1.6-1-3.7-2.1-4.9c-1.4-1.4-1.7-1.5-3.6-1.7c-0.5-0.1-1-0.2-1.6-0.2c0.1-1.4,0.6-3.2,0.9-4.6c0.3-1.6,0.2-1,2.2-0.2
		c0.3,0.1,0.6,0.3,0.9,0.5c1.8,0.9,3.8,1.1,2.6,3.4c-0.6,1.1-0.7,2.2,0.5,2.9c0,0,0-0.1,0.1,0c0.1,0.2,1.7-3,1.8-3.3
		c0.2-0.6,0.1-4.2,0.1-5.1c-0.4,0.5-0.8,1.2-1.1,1.7c-0.8,0-1-0.2-1.6-0.6c-0.7-0.5-3.9-1.9-4.9-2c0.3-1.4,0.5-2.9,0.7-4.3
		c0.1-0.5,0-1-0.2-1.4c-0.3,0-0.4,0-0.5,0.3c-0.4,0.6-1,4.3-1.1,5.1c-0.6,0-1-0.2-1.6-0.2c0-0.6,0.1-0.9,0.2-1.3
		c0.1-0.7,0.9-3.4-0.3-3.5c-1-0.1-1.3,3.5-1.6,4.6c-0.9,0-1.7,0-2.6,0.1c-0.6,0.1-1.7,0.4-2.2,0.6s-1.3,0.8-1.6,1.2
		c-0.5,0.6-0.7,1-0.9,1.9c-0.3,1.5,0.3,3.2,1.3,4.1c0.8,0.7,3,1.3,4.1,1.5l-2,8.8c-0.8-0.2-1.6-0.9-2.2-1.4c0,0-0.1-0.1-0.2-0.1
		c-1.2-1-0.9-0.9-1.7-1.8c-0.2-0.2-0.3-0.4-0.5-0.6C215.9,78.9,216.3,77.9,217,77.4L217,77.4z M119,24.4c0.6-0.1,1.2-0.7,1.8-0.8
		v-0.2c-0.6-0.1-1.2-0.4-1.6,0.2C119,23.8,119,24,119,24.4L119,24.4z M204.1,18.5c0,0.3,0.2,0.5,0.4,0.7c0-0.6,0-0.6-0.1-1.1
		c-0.2-0.9,0.9-0.6-0.4-2.3c-0.2-0.3,0-0.2-0.3-0.3c0,0.6,0.3,0.9,0.5,1.3C204.3,17.4,204.1,17.9,204.1,18.5z M195,19.1
		c0,0.6,0.4,0.6,0.5,1.2c0.2,0.8-0.3,0.8,0,2v-0.1c0,0,0,0,0-0.1c0.2-0.4,0.4-1.2,0.4-1.7c0-0.3-0.4-0.4-0.5-0.8
		c-0.2-0.4,0.1-0.8-0.2-1.2c-0.2,0.1-0.1,0-0.2,0.2C195.1,18.8,195,18.9,195,19.1z M120,25.7c0.2,0.3,0.7,0.8,1.1,0.9
		c0.3-0.2,0.5-0.4,0.6-0.7c-0.5-0.1-0.8-0.7-1.3-0.8C120.3,25.3,120.1,25.5,120,25.7L120,25.7z M114.9,30c0,0.6,0.4,0.7,0.7,1.1
		c0.4-0.3,0.4-0.2,0.6-0.6c-0.1-0.5-0.4-0.9-0.8-1.2c0,0,0,0-0.1,0C115.4,29.4,114.9,29.6,114.9,30L114.9,30z M112.3,28.3
		c0,0.6,0.1,1,0.5,1.3c0-0.3,0.7-2.4,0.8-2.6C113,27,112.3,27.6,112.3,28.3z M165.8,29.9c0,1.3,0.3,2,0.5,2.9c1.1-0.8,0-2-0.2-2.3
		c0.3-0.5,0.4-0.5,0.8-1.2C166.5,29.3,165.8,29.4,165.8,29.9z M169.6,129.8c0,0.7,0.2,2.3,0.5,2.8c1.1-0.8-0.1-2-0.2-2.3
		c0.2-0.3,0.7-0.8,0.8-1.2C170.2,129.1,169.6,129.3,169.6,129.8z M12,89.2c0,0.8,0.2,2.2,0.5,2.7c1.1-0.8-0.1-2-0.2-2.3
		c0.2-0.4,0.7-0.7,0.8-1.2C12.5,88.4,12,88.5,12,89.2z M157.5,18.2c0,0.8,2.3,1.6,3,1.7c-0.3-1.5-1.6-1.1-2.2-1.1
		c-0.1-0.5-0.3-1.3-0.6-1.5C157.6,17.7,157.5,17.8,157.5,18.2L157.5,18.2z M84.2,13.8c1.5-0.1,0.8-2.1,0.8-2.3
		c0.5-0.1,1.1-0.2,1.2-0.7l-0.8-0.1C84.7,10.7,84.2,12.9,84.2,13.8z M3.6,77.2c0,0.4,0.1,0.6,0.4,0.8c0.7,0.5,1.7,1,2.6,1
		c-0.1-0.4-0.4-0.7-0.7-0.9c-0.4-0.3-0.9-0.2-1.5-0.2c-0.1-0.4-0.3-1.2-0.6-1.4C3.7,76.9,3.6,76.8,3.6,77.2z M69.8,24.3
		c0,1,0.4,2.1,0.7,2.8c1.2-0.9-0.3-2.3-0.4-2.4c0.6-0.7,0.5-0.4,0.9-1.2C70.3,23.5,69.8,23.7,69.8,24.3z M178.1,136.1
		c-0.4,0-1.1-0.1-1.4,0.1c-0.3,0.1-0.6,0.6-0.7,0.9c0.5-0.1,0.5-0.4,1.2-0.4c0.6,0,0.8,0.2,1.4,0.2c0.3-0.6,0.4-1.7,0.4-2.6
		C178.6,134.6,178.2,135.5,178.1,136.1z M20.5,95.3c-0.9,0-1.7-0.3-2.1,1c0.5-0.1,0.5-0.4,1.2-0.4c0.6,0,0.8,0.2,1.4,0.2
		c0.3-0.6,0.4-1.7,0.4-2.6C20.9,93.8,20.5,95,20.5,95.3L20.5,95.3z M13.3,75.4c0,0.4,0.3,0.8,0.5,1c0-0.7,0.1-0.9,0.4-1.3
		c0.3-0.3,0.5-0.6,0.8-0.9c-0.3-0.5-1.4-1.7-2.1-1.8l0.9,1.5C14.2,74.5,13.3,74.9,13.3,75.4L13.3,75.4z M174.3,36.1
		c-1.3,0-1.8,0-2.1,1.1c0.9-0.5,0.4-0.5,1.9-0.3c0.7,0.1,0.7,0.2,0.8-0.3c0.2-0.7,0.3-1.4,0.3-2.3C174.9,34.6,174.4,35.7,174.3,36.1
		L174.3,36.1z M167.1,16.4c0,0.3,0.3,0.7,0.5,0.8c0-1.2,0.6-1.1,1.2-2.2c-0.3-0.5-0.5-0.6-0.9-1c-0.3-0.3-0.8-0.7-1.2-0.8
		c0.2,0.3,0.3,0.4,0.5,0.7C168.5,15.9,167.1,15.2,167.1,16.4L167.1,16.4z M90.5,20.7c-0.8-0.2-1.6-1.2-2.4,0c1.3,0,1.1,0.2,1.9,0.7
		c0.2,0.1,0.4,0.2,0.6,0.3c0.5-0.3,1.4-1.5,1.5-2.2C91.4,19.9,91,20.3,90.5,20.7L90.5,20.7z M79.3,30.2c-1.3,0-1.8-0.1-2.1,1
		c0.7-0.2-0.1-0.3,1.4-0.3c0.6,0,0.7,0.1,1.3,0.1c0.3-0.6,0.4-1.8,0.4-2.7C79.7,28.6,79.6,29.5,79.3,30.2L79.3,30.2z M126,46.7
		c0,0.9,1,1.3,1.6,0.8c0.5-0.4,0.5-1.7-0.8-1.7C126.4,45.8,126,46.4,126,46.7L126,46.7z M59.8,50c-0.5,0-0.7-0.8-1.7-0.8
		c0.2,2.5,4,0.4,4.7,0.3c-0.1-0.4-0.5-0.6-1-0.6C60.5,48.9,60.3,50,59.8,50L59.8,50z M82,82.9c-1.1,0-0.7-1.6-0.2-2.4
		C83.3,80.8,82.9,82.9,82,82.9z M83.2,81.9c0-1.1-0.6-1.9-1.4-2.1c-1,0.7-1.3,2.2-0.9,3.1C81.5,84.1,83.2,83.3,83.2,81.9L83.2,81.9z
		 M187.2,46.7c0-0.6-0.2-0.8-0.6-1.1c-1.5-1.4-2.6,0.4-2.8-1.1c-0.1-0.6-0.3-1.2-0.7-1.5c-0.3,0.5-0.5,0.9-0.2,1.5
		C183.3,45.6,186.1,46.5,187.2,46.7L187.2,46.7z M63.7,37.4c0.3,0.4,2.2,1,2.6,1c0,1.5,0.1,1.8,0.8,2.3c0.2,0.1,0.5,0.3,0.8,0.3
		c-0.9-1.8-0.7-0.6-0.6-2.3c0-0.4,0-0.7,0-1.1l-2.7-0.3C64.3,37.4,64.2,37.4,63.7,37.4L63.7,37.4z M198,39.4c-0.1,0.6-0.7,1.1-1,1.6
		c-0.2,0.5,0.2,1.6,0.6,1.9c0.2-1.9,0.3-1.5,1.9-3.4c-0.5-0.7-2.2-2.3-3-2.7C196.6,37.6,197.6,38.8,198,39.4L198,39.4z M119.2,81.9
		c-2.3,0-1.5-4.7,0.2-4.7C121.5,77.2,121.6,81.9,119.2,81.9z M119.2,82.5c2.8,0,3-5.7,0.1-5.7c-0.6,0-1.1,0.6-1.4,1
		C116.6,79.7,117.4,82.5,119.2,82.5L119.2,82.5z M133.7,78.6c-2.5,0-1.7-4.7,0.3-4.7c0.6,0,1.3,0.9,1.3,1.5v1
		C135.3,77.3,134.4,78.6,133.7,78.6z M131.6,76.9c0,0.7,0.2,1.3,0.5,1.7c0.3,0.3,0.8,0.9,1.2,1.1c1.8-1.2,2.3-1.8,2.3-4.4
		c0-1-1.1-2.5-2.4-1.5C132.2,74.4,131.6,75.5,131.6,76.9z M113.9,83.1c-1.2,0-1.8-0.1-1.8-2c0-1.2,0.6-2.7,2.1-2.7
		c1.3,0,1.6,3,0.3,4.3C114.4,82.8,114.1,83.1,113.9,83.1L113.9,83.1z M111.5,81.4c0,4,5.7,2.5,3.9-2.5
		C114.7,76.8,111.5,78,111.5,81.4z M126.2,80.4c-1,0-1.4-1-1.4-1.7c0-1.8,1.3-3.6,2.7-2.1C128.6,78,127.6,80.4,126.2,80.4z
		 M125.9,80.9c1.4,0,2.5-1.3,2.5-2.5c0-1.7-0.3-3.7-2.5-2.9c-1.5,0.6-2.1,2.8-1.4,4.2C124.8,80.1,125.3,80.9,125.9,80.9L125.9,80.9z
		 M107.8,79.7c1.6,0,1.9,1.6,1.7,2.2c-0.3,1-0.4,1.9-1.6,2.2C105.5,84.5,105.9,79.7,107.8,79.7z M107,87.2h0.2
		c0-0.5,0.1-2.1,0.5-2.4c0.2-0.1,2.2-0.8,2.2-2.7v-0.9c0-1.6-2.3-3.2-3.7-0.8c-0.6,1-0.6,2.3-0.1,3.4c0.2,0.3,0.3,0.5,0.6,0.8
		C107.1,85.4,107,86,107,87.2L107,87.2z M79.8,81.7v-0.6c0-0.9,0.6-2.3,1.8-2.3c1,0,2.7,1.4,2.7,3.3s-1.9,2.8-3.1,1.9
		C80.4,83.4,79.8,82.6,79.8,81.7L79.8,81.7z M79.1,80.9c0,1.8,0.5,2.8,2,3.7c2.2,1.3,3.7-1.1,3.7-2.4c0-1.2-0.1-2.2-0.9-3
		c-1.3-1.5-2.6-1.7-4-0.2C79.5,79.3,79.1,80.2,79.1,80.9L79.1,80.9z M43.7,36.3c-0.1,0.3,0.2,0.1-0.3,0.2
		C43.5,36.4,43.5,36.5,43.7,36.3z M42.8,35c0.2-0.1,0.3-0.1,0.6-0.1c0,0.3,0.2,0.8,0.3,1C43.4,36,43.4,36,43.1,36
		C43.1,35.8,42.9,35.1,42.8,35z M43.6,34.8c0.6,0.1,0.6,0.4,0.4,0.8C43.5,35.4,43.8,35.3,43.6,34.8z M42.2,34.1l0.1,0.6h-0.5
		C41.9,34.4,42,34.2,42.2,34.1z M44,34.3c-0.3,0-0.5,0.1-0.6-0.1c-0.1-0.1-0.1,0.1-0.1-0.2c0.1-0.3-0.1-0.1,0.2-0.2
		c0,0,0.1-0.2,0.3,0.1C43.9,33.9,43.9,34.1,44,34.3z M42.5,33.9c0.2-0.1,0.2-0.1,0.5-0.1c0.1,0.2,0.1,0.4,0.2,0.6
		c-0.2,0.1-0.2,0.1-0.5,0.2C42.6,34.3,42.5,34.2,42.5,33.9L42.5,33.9z M41.9,33.7c-0.1,0.4-0.3,0.4-0.5,0.7c0,0.8,0.4,0.9,1.1,0.7
		c0.1,0.4,0.3,0.7,0.3,1.1c-0.4,0-0.3-0.1-0.8-0.1c0-0.4,0.2-0.6-0.2-0.6s-0.3,0.4-0.3,0.8c0.4,0.2,0.9,0.4,1.5,0.4
		c-0.3,0.4-0.9,0.6-1.4,0.8s-1.1,0.4-1.7,0.6c0-0.7-0.4-2.6-0.5-3.5C39.9,34.2,41.1,33.7,41.9,33.7L41.9,33.7z M42.3,33.6l-0.4,0.1
		L42.3,33.6z M42.3,33.6c0.1-0.4,0-0.3,0.5-0.3v0.2C42.6,33.5,42.4,33.5,42.3,33.6L42.3,33.6z M43.1,33.4c0-0.4,0.1-0.4,0.5-0.5
		C43.6,33.4,43.8,33.4,43.1,33.4z M43.9,32.7c0.4,0,1.5-0.6,2.1-0.7c0.2,1,0.4,2.2,0.6,3.2c0.1,0.6,0.3,0.5-0.9,0.8
		c-0.5,0.1-1.1,0.3-1.6,0.3c0.2-0.9,0.9-0.5,0.3-1.7c-0.3-0.5,0-0.3-0.1-0.9C44.1,33.4,44,32.8,43.9,32.7L43.9,32.7z M38.9,34.2
		c0,1.3,0.6,3.5,0.6,4.5c1.1-0.1,4.1-1.7,5.6-2.1c2.1-0.6,2.2,0.6,1.9-1.6l-0.6-3.6c-0.3,0-0.6,0.2-0.9,0.3c-0.3,0.1-0.6,0.2-1,0.3
		L38.9,34.2L38.9,34.2z M11.2,49.5c0.1-0.2,0.3-0.7,0.5-0.4C11.9,49.3,11.5,49.5,11.2,49.5z M9.8,48l0.4-0.4c0.2,0.1,0.8,0.7,1,0.9
		c-0.2,0.3-0.1,0.3-0.4,0.5L9.8,48z M8.6,47.5C8.9,47.6,9,47.8,9.2,48C8.7,48.3,8.4,48.2,8.6,47.5z M10.6,47.4c0.8,0,1,0.2,0.7,0.8
		c-0.2-0.1-0.2-0.2-0.4-0.3C10.6,47.6,10.6,47.5,10.6,47.4L10.6,47.4z M8,48c0,0.4,0.3,0.7,0.7,0.7s0.6-0.2,0.9-0.4l0.9,1
		c-0.4,0.1-0.8,0.2-1.1,0.3c0-0.4,0-0.3-0.1-0.6c-0.4,0.1-0.3,0.2-0.5,0.5c0.3,0.5,0.5,0.7,1.5,0.4c0.3-0.1,0.6-0.3,0.7,0.1
		c0.1,0.4-3,3-3.4,3c-0.3,0-3.1-2.6-3.6-2.7V50c1-0.2,3.5-2.8,4.2-3C8.2,47.7,8,47.5,8,48z M8.9,47.1c0.2-0.2,0.3-0.3,0.5-0.4
		l0.5,0.5c-0.2,0.3-0.2,0.1-0.3,0.5C9.3,47.6,9.1,47.4,8.9,47.1L8.9,47.1z M9,46.3C8.7,47.4,7.8,46.3,9,46.3z M9.6,45.5
		c0.2,0.3,0.2,0.1,0.2,0.5c-0.5,0.1-0.3,0.4-0.8,0C9.2,45.8,9.3,45.6,9.6,45.5z M9.8,45.1l1.6-2.1c0.2-0.4,0.2-0.5,0.6-0.7
		c0.1,0.5,2.5,3.3,2.9,4.1c-0.6,0.4-2.8,2.5-3,2.4c-0.3-0.1,0-0.5,0-0.8c0.1-0.6-0.3-1.2-0.9-1.2c-0.4,0-0.7,0.1-1,0.2l-0.4-0.5
		c0.4-0.1,0.2-0.2,0.5-0.2c0,0,1.4,0.8,0.7-0.1C10.4,45.8,10.1,45.6,9.8,45.1L9.8,45.1z M3.1,50c0.2,0.3,0.4,0.4,0.7,0.7L7,53.2
		c0.4,0.3,0.6,0.4,1,0.2c0.3-0.2,0.6-0.4,0.8-0.6l0.8-0.7c1.4-1.3,3.1-3.2,4.3-4.3c0.5-0.4,1.3-0.8,1.6-1.3l-1.4-1.9
		c-0.5-0.7-0.9-1.3-1.4-2c-0.5-0.6-1.3-2.1-1.5-1.2c-0.1,0.6,0.2,0.3-0.4,1.3c-0.5,0.9-2.4,3.2-3,3.7c-0.4,0.3-0.5,0.4-0.9,0.8
		C5.6,48.6,3.3,49.8,3.1,50L3.1,50z M204.1,123.1c0-0.7,0.2-1.2,0.2-2c0.5,0.1,0.8,0.4,0.8,1C205.1,122.8,204.5,122.9,204.1,123.1
		L204.1,123.1z M203.2,123.3h-0.8c0.1-0.8,0.3-1.7,0.3-2.5c1,0,0.9,0,0.7,1.1C203.3,122.4,203.3,122.9,203.2,123.3L203.2,123.3z
		 M201.1,119.7c0.1-0.3,0.1-0.7,1-0.9C202.1,120.4,201.8,120.1,201.1,119.7z M203.6,120.2h-0.8c0-0.5,0.1-0.9,0.1-1.6
		c0.3,0.2,0.5,0.1,0.9,0.1C203.7,118.8,203.6,119.9,203.6,120.2L203.6,120.2z M201.9,120.7c0,0.7-0.2,1.7-0.3,2.4
		c-0.8-0.4-1.3-0.6-1.3-1.2c0.3-0.1,0.3-0.1,0.5-0.2c-0.1-0.4-0.1-0.6-0.5-0.6c-0.8,0-1.3,1-0.6,1.6c0.3,0.3,1.4,1.1,1.8,1.2
		c-0.1,0.6-0.3,1.3,0.3,1.3c0.4,0,0.5-0.7,0.5-1.1h0.8c-0.3,1.3,0.4,1.1,0.6,0.8c0.4-0.5-0.1-0.8,0.7-1c2.8-0.9,1.5-3.4,0-3.8
		c0.1-0.3,0.1-0.8,0.2-1.2c0.3,0.1,0.5,0.1,0.8,0.2c0.1,0.4,0.1,0.3,0.1,0.8s0.1,0.4,0.2,0.8c0.4-0.1,0.4-0.2,0.4-0.7l0.2-2
		c0.1-0.3,0.2-0.7-0.2-0.7s-0.3,0.8-0.5,1.2c-0.3-0.1-0.7-0.2-0.9-0.3c0-0.6,0.2-1.6-0.4-1.6c-0.3,0-0.4,0.2-0.4,0.5
		c-0.1,0.3-0.1,0.6-0.1,0.9l-0.8,0c0-0.3,0.1-0.9-0.1-1.1c-0.2-0.2-0.5-0.1-0.6,0.2c-0.4,1.1,0.8,0.4-1.2,1.3
		C199.7,119,200.1,120.7,201.9,120.7L201.9,120.7z M156.6,119c0,0.9,0.4,1.5,1.3,1.5h8.2c1.8,0,1-2.9-0.6-2.9h-7.3
		C157.3,117.6,156.6,118.1,156.6,119z M193.4,120.2c0.1-0.4,0.3-1.6,0.3-2.1c0.9,0.2,1.1,1.3,0.4,1.8
		C193.9,120,193.7,120,193.4,120.2L193.4,120.2z M192.7,120.4h-0.9c0-0.8,0.3-1.7,0.3-2.6c0.5,0,0.5,0.1,0.9,0.1
		C192.8,118.5,192.7,119.6,192.7,120.4L192.7,120.4z M193.1,116.8v0.3h-0.9l0.1-1.5h0.9C193.1,116,193.1,116.2,193.1,116.8
		L193.1,116.8z M192.2,115.6L192.2,115.6l0.9-0.1v0.1H192.2z M191.4,116.3v0.6c-1.4,0-1.1-1,0.1-1.3
		C191.4,115.9,191.4,115.9,191.4,116.3z M195.9,115.6c0.1-0.6,0.1-1.2,0-1.4l-0.4-0.1c-0.3,0.5-0.2,0.9-0.4,1.3
		c-0.3-0.1-0.6-0.2-0.9-0.2c0-0.8,0.2-1.6-0.5-1.8c-0.6,0.4-0.4,0.7-0.5,1.5c-0.5,0-0.4,0-0.8-0.1c0-0.6,0.1-1.3-0.4-1.3
		c-0.7,0-0.1,1.1-0.7,1.4c-0.1,0.1-1,0.2-1.4,0.7 M189.9,115.6c-0.3,0.3-0.4,0.8-0.1,1.4c0.2,0.4,0.8,0.6,1.4,0.7
		c0,1.1-0.1,1.4-0.3,2.4c-0.5-0.1-1.1-0.6-1.4-0.9c0.2-0.2,0.4-0.3,0.6-0.5c-0.3-1.2-1.5-0.4-1.5,0.5c0,0.8,1.9,1.7,2.2,1.9
		c-0.1,1.1-0.3,1.3,0.6,1.3c0.1-0.3,0.1-0.3,0.2-0.5c0.1-0.2,0.1-0.5,0.1-0.7c0.3,0.2,0.3,0.1,0.8,0.1c0,0.6-0.3,0.9,0.4,1.1
		c0.4-0.2,0.5-0.6,0.5-1.2c0.4,0,0.5-0.1,0.7-0.3c0.2-0.2,0.5-0.3,0.7-0.4s0.4-0.3,0.5-0.5c0.9-1.3-0.7-2.7-1.4-2.9
		c0-0.4,0.1-0.7,0.1-1.3c0.2,0.1,0.6,0.2,0.9,0.2c0.2,0.8-0.1,1.3,0.5,1.7c0.2-0.3,0.4-1.3,0.5-2.1 M172.7,134.5
		c0.3-0.1,0.2-0.1,0.5,0c-0.2,0.3,0,0.2-0.2,0.3C172.7,134.8,172.8,134.6,172.7,134.5L172.7,134.5z M174.2,134.3
		c0.1-0.2,0.2-0.3,0.4-0.5s0.2-0.4,0.5-0.5C175.3,134.2,175.1,134.3,174.2,134.3z M173.6,134.1l-0.4-0.2c0.1-0.5,0.8-0.9,0.9-1.4
		c0.2,0.1,0.3,0.2,0.5,0.3L173.6,134.1z M174.8,132.4c-0.1-0.1-0.1-0.1-0.3-0.2c0.1-0.4,0.3-0.6,0.5-0.9l0.4,0.3
		C175.2,131.9,175.1,132.2,174.8,132.4z M176.5,132.1l-0.4-0.4c0.1-0.2,0.3-0.5,0.4-0.8c0.7,0.2,2,1.5,2.5,2s1.8,1.9,1.9,2.6
		l-3.8,3.1c-0.5-0.4-1.2-1.2-1.8-1.8l-1.7-1.4c-0.3-0.4,0.2,0.4-0.1-0.1c-0.1-0.3,0.2-0.3,0.7-0.3c2.4,0,1.2-2.1,1.2-2.1
		c-0.1-0.2,0.2-0.6,0.4-0.7l0.3,0.4c-0.1,0.6-0.4,0.5-0.2,1.1c0.4-0.3,1.2-1.2,1.3-1.9C176.8,131.7,176.9,131.9,176.5,132.1
		L176.5,132.1z M173.9,131.8c-0.2-0.2-0.2-0.2-0.2-0.6c0.2-0.1,0.5-0.1,0.7-0.2C174.3,131.4,174.2,131.6,173.9,131.8L173.9,131.8z
		 M175.6,131.2c-0.5-0.4-0.1-0.4,0-1c0.2,0.1,0.3,0.2,0.5,0.3C176,130.8,175.9,131,175.6,131.2z M174.8,130.6
		c-0.8,0-1.7-0.4-1.7,0.7c0,0.5,0.3,0.7,0.6,0.9l-1,1.3c-0.1-0.4-0.3-0.6-0.4-1c0.3-0.1,0.1-0.1,0.5-0.1c-0.1-1.2-1.1-0.3-1.1-0.1
		c0,1,0.8,1.4,0.6,1.7c-0.2,0.4-0.5,0.1-1.4-0.5c-1-0.6-2.1-1-3.2-1.4c-0.4-0.1-1.4-0.5-1.8-0.5c0.5-0.8,1.7-1.7,2.3-2.2
		c0.2-0.2,0.3-0.3,0.4-0.4c0.3-0.3,0.6-0.7,1.1-0.8c2-0.3,5.1,1.7,5.4,1.8C175.1,130.4,175,130.3,174.8,130.6L174.8,130.6z
		 M165.3,132c0.8,0.4,3.3,0.7,6.6,2.8c0.7,0.5,2.8,2.1,3.3,2.7c0.7,0.8,1,1,1.6,2c0.8-0.5,4.2-3.7,4.7-3.8c0-1.3-3.1-4.1-4.1-4.9
		c-1.8-1.4-3.7-2.5-6-3.1c-0.3-0.1-1.2-0.2-1.6-0.2c-1.3,0.1-1.5,0.9-2.5,2C166.9,130,165.5,131.5,165.3,132L165.3,132z M15.1,93.7
		c0.3-0.1,0.2-0.1,0.5,0c-0.2,0.3,0,0.2-0.2,0.3C15.1,94,15.1,93.9,15.1,93.7z M16.6,93.5c0.3-0.4,0.5-0.9,0.9-1
		C17.7,93.4,17.4,93.5,16.6,93.5z M16,93.3l-0.4-0.2c0.1-0.5,0.8-0.9,0.9-1.4c0.3,0.2,0.1,0.2,0.5,0.3L16,93.3L16,93.3z M17.2,91.7
		c-0.1-0.1-0.1-0.1-0.3-0.2c0.1-0.3,0.3-0.6,0.5-0.8C18.2,90.9,17.3,91.6,17.2,91.7L17.2,91.7z M18.9,91.4L18.5,91
		c0.1-0.2,0.3-0.5,0.4-0.8c0.6,0.1,2,1.5,2.5,2s1.8,1.9,1.9,2.6L20.4,97c-0.3,0.3-0.7,0.6-1,0.8c-0.4-0.2-1.7-1.8-2.7-2.7L16,94.6
		c-0.3-0.4,0.2,0.4-0.1-0.1c-0.1-0.3,0.2-0.3,0.7-0.3c1.6,0,1.8-1.1,1.1-2.2c0.1-0.3,0.3-0.5,0.5-0.7c0.6,1-0.1,0.5,0.1,1.5
		c0.4-0.3,1.2-1.2,1.3-1.9C19.2,90.9,19.2,91.1,18.9,91.4L18.9,91.4z M16.3,91.1c-0.2-0.2-0.2-0.2-0.2-0.6c0.2-0.1,0.5-0.1,0.7-0.2
		C16.7,90.6,16.6,90.9,16.3,91.1L16.3,91.1z M18,90.5c-0.5-0.4-0.1-0.4,0-1c0.2,0.1,0.3,0.2,0.5,0.4C18.3,90.1,18.2,90.3,18,90.5z
		 M17.1,89.9c-0.7,0-1.6-0.3-1.6,0.7c0,0.5,0.3,0.7,0.6,0.9c-0.1,0.2-0.3,0.4-0.5,0.6c-0.1,0.1-0.2,0.2-0.3,0.3
		c-0.1,0.1-0.2,0.2-0.3,0.3c-0.1-0.4-0.3-0.6-0.4-1c0.3-0.1,0.1-0.1,0.5-0.1C15,90.4,14,91.3,14,91.5c0,1,0.8,1.4,0.6,1.7
		c-0.2,0.4-0.5,0.1-1.4-0.5c-1.3-0.8-3.4-1.6-4.9-1.9c0.5-0.7,2-2,2.7-2.7c0.3-0.3,0.6-0.7,1.1-0.8c2-0.3,5.1,1.7,5.4,1.8
		C17.5,89.4,17.3,89.9,17.1,89.9L17.1,89.9z M7.7,91.3c0.8,0.4,3.3,0.7,6.6,2.8c1.7,1.1,3.8,2.9,4.9,4.6l2.3-1.9
		c0.3-0.3,2-1.8,2.4-1.9c0-0.7-0.9-1.7-1.4-2.2c-0.5-0.7-1.1-1.2-1.8-1.8c-0.8-0.8-3.2-2.5-4.3-2.9c-1.2-0.5-4.3-1.9-5.5-0.6
		l-2.5,2.9C8.2,90.6,7.8,90.7,7.7,91.3z M168.9,34.6c0.3-0.1,0.3-0.1,0.5,0.2C168.9,35,169.1,34.8,168.9,34.6z M171.3,33.4
		c0.3,1.3-0.7,1.1-0.7,1C170.5,34.2,171.1,33.5,171.3,33.4z M169.9,34.3c-0.2-0.1-0.2-0.1-0.5-0.2c0.1-0.3,0.8-1.3,1-1.4l0.2,0.1
		c0.1,0.1,0,0,0.1,0.2C170.6,33.4,170.1,33.7,169.9,34.3L169.9,34.3z M171.2,32.5c-0.3,0-0.3,0-0.5-0.1c0-0.4,0.3-0.7,0.6-0.9
		c0.1,0.1,0.1,0.1,0.3,0.2C171.5,32.1,171.3,32.1,171.2,32.5z M172.8,32.2c-0.4-0.1-0.2-0.1-0.5-0.3c0.1-0.3,0.3-0.7,0.5-0.9
		c1.1,0.7,4.2,3.5,4.3,4.7c-0.3,0.1-0.7,0.5-1,0.7c-0.4,0.4-2.5,2.1-2.9,2.4c-0.6-0.9-2.5-2.8-3.5-3.4c0.2-0.2,0.1-0.1,0.2-0.4
		c0.5,0,2.1,0.4,2.1-1.2c0-0.6-0.8-0.9,0.1-1.6l0.3,0.4c-0.1,0.5-0.4,0.6-0.2,1c0.3-0.1,0.4-0.2,0.8-0.8c0.2-0.3,0.5-0.6,0.5-1.1
		C172.9,31.8,173.2,31.9,172.8,32.2L172.8,32.2z M170.1,31.9c-0.2-0.2-0.1-0.1-0.2-0.4c0.2-0.2,0.3-0.3,0.7-0.3
		C170.5,31.8,170.3,31.8,170.1,31.9L170.1,31.9z M171.9,31.4c-0.2-0.2-0.1-0.1-0.4-0.2c0.1-0.4,0.2-0.4,0.3-0.8
		c0.4,0.1,0.1,0.1,0.5,0.2C172.2,30.9,172.1,31.1,171.9,31.4L171.9,31.4z M171,30.8c-0.5,0-1.7-0.5-1.7,0.7c0,0.4,0.2,0.7,0.6,0.8
		c-0.2,0.3-0.7,1.1-1,1.3c-0.1-0.4-0.3-0.6-0.4-1c0.5,0,0.3,0.1,0.5-0.2c-0.2-0.8-1.1-0.2-1.1,0.1c0,1,0.9,1.1,0.5,1.9
		c-0.4-0.1-4-2.4-6.2-2.6c0.1-0.6,0.3-0.4,0.8-1c0.6-0.6,2.3-2.5,2.9-2.5c2,0,4.3,1,5.5,1.8C171.3,30.4,171.2,30.5,171,30.8
		L171,30.8z M161.6,32.2c0.8,0.1,2.7,0.8,3.5,1.2c1.2,0.5,2.1,1,3.1,1.7c1.7,1.2,3.1,2.3,4.4,3.9c0.2,0.3,0.2,0.4,0.6,0.6l4.1-3.4
		c0.6-0.5,0.9-0.3-0.4-2.1c-2.3-3.1-6.9-6.4-10.9-6.4c-0.7,0-1,0.4-1.4,0.8c-0.2,0.2-0.3,0.4-0.5,0.6l-1.5,1.7
		C162.2,31.2,161.6,31.7,161.6,32.2L161.6,32.2z M163.6,18.8c0-0.5,0-0.3,0.3-0.5C163.8,18.9,163.8,18.5,163.6,18.8z M162.7,16.4
		c0.2-0.1,0.2-0.1,0.5-0.2c0.1,0.5,0.4,1,0.5,1.6c-0.2,0.1-0.2,0.1-0.5,0.1c0-0.3-0.1-0.4-0.2-0.8C162.8,16.9,162.8,16.6,162.7,16.4
		z M163.7,16c0.9,0,1,0.6,0.6,1.2C164,17,163.9,16.5,163.7,16z M161.5,15.3c0.3,0.2,0.3,0.4,0.4,0.8c-0.4,0.1-0.2,0.1-0.6,0
		C161.3,15.4,161.3,15.8,161.5,15.3z M162.1,14.9c0.3-0.1,0.3-0.1,0.5-0.2c0.1,0.2,0.3,0.8,0.4,1c-0.2,0.1-0.3,0.1-0.6,0.1
		L162.1,14.9L162.1,14.9z M160.6,15.9c0,1.1,1.4,0.7,1.6,0.7c0.1,0.7,0.4,0.8,0.4,1.5c-0.5,0-0.6-0.1-1-0.1c0-0.3,0.3-0.7-0.2-0.7
		c-0.4,0-1.1,1.1,0.7,1.3c0.4,0.1,1,0,0.9,0.4c-0.1,0.2-2.9,2.4-3.1,2.5l-3.6-3.6c0.8-1.6,3.6-3.7,4.9-4c0.1,0.2,0.2,0.6,0.3,0.9
		C161,15.1,160.6,15.4,160.6,15.9z M161.6,13.7c0.3-0.1,0.3-0.1,0.5-0.2c0.1,0.4,0.2,0.4,0.3,0.8c-0.2,0.1-0.2,0.1-0.5,0.2
		C161.7,14.1,161.6,14.3,161.6,13.7z M163.6,14.1c-0.8,0-0.3,0-0.6,0.1c-0.1-0.3-0.2-0.6-0.4-0.9c0.4-0.1,1-0.4,1.4-0.5
		c0.6-0.2,0.9-0.3,1.5-0.4c1.1-0.2,2.2-0.3,3.4-0.3l0.4,3.9c0.1,0.4,0.1,1,0.2,1.3c-1.4,0-2.9,0.2-4.1,0.7c-2,0.7-0.3-0.7-0.3-1.5
		c0-0.9-0.9-1.3-1.8-1.3c0-0.3-0.1-0.4-0.2-0.6c0.2-0.1,0.2-0.1,0.5-0.2c0.4,0.3,0.2,0.5,0.8,0.8c0-0.6-0.2-1.2-0.4-1.7
		c-0.1-0.2-0.3-0.6-0.5-0.4C163.4,13.3,163.6,13.7,163.6,14.1L163.6,14.1z M155.6,18c0,0.3,4.1,4.3,4.3,4.4c0.2-0.2,0.3-0.2,0.5-0.4
		l1-0.8c0.8-0.7,1.8-1.4,2.8-1.9c1.5-0.8,3.5-1.2,5.3-1.2c0.5,0,0.5-0.1,0.9-0.1c-0.1-0.3-0.7-5.6-0.7-6.3c-0.3,0-0.4-0.1-0.7-0.1
		c-1.6,0-3,0.2-4.3,0.6c-1.9,0.5-3.6,1.2-5.2,2.2C158.3,14.9,155.6,16.9,155.6,18L155.6,18z M10,77.5C9.9,78.3,9.2,77.7,10,77.5z
		 M1.7,77.1L1.7,77.1c0-0.6,1.6-2.3,2.1-2.6c2.7-2.1,6.6-3.8,10.2-3.8c1.9,0,1.6-0.3,1.8,1.5c0.1,1.5,0.5,3.5,0.5,4.9
		c-2.4,0-4.5,0.5-6.1,1.3c-1.1,0.6-3.4,2.2-4.1,3.2C5.4,81.1,1.7,77.5,1.7,77.1L1.7,77.1z M8.8,75.5l0.4-0.2c0.3,0.5,0.5,1,0.6,1.6
		C9.6,77,9.6,77,9.3,77.1c0-0.4-0.1-0.5-0.2-0.8C9,76.1,8.9,75.7,8.8,75.5L8.8,75.5z M9.9,75.2c0.3,0,0.4,0,0.6,0.1
		c0.1,0.5,0.2,0.5-0.1,1.1c-0.2-0.2-0.2-0.2-0.3-0.5C10,75.7,9.9,75.5,9.9,75.2z M7.4,75.1c0-0.4,0.1-0.5,0.4-0.6
		c0,0.4,0.4,0.8-0.1,0.8C7.5,75.3,7.4,75.2,7.4,75.1z M8.2,74.1C8.4,74,8.4,74,8.7,73.9c0.1,0.3,0.2,0.6,0.4,0.9
		c-0.3,0.1-0.3,0.1-0.6,0.2C8.5,74.7,8.3,74.3,8.2,74.1z M6.7,75.1c0,0.3,0.3,0.6,0.5,0.7c0.3,0.2,0.6,0,1.1,0
		c0.1,0.4,0.3,1,0.5,1.4c-0.6,0-0.8-0.1-1.2-0.1C8.1,76.1,7,76.3,7,77c0,0.8,1.2,0.7,1.7,0.8c0.4,0.1,0.4,0.1,0.4,0.5
		c-0.3,0.1-2,1.5-2.3,1.8c-0.2,0.2-0.5,0.5-0.8,0.6l-3.7-3.6c1.4-2.2,2.6-2.8,4.9-4c0.1,0.3,0.2,0.7,0.3,0.9
		C7.2,74.2,6.7,74.7,6.7,75.1L6.7,75.1z M7.6,72.9c0.3-0.1,0.3-0.1,0.6-0.2c0.1,0.2,0.2,0.6,0.3,0.8l-0.4,0.1
		C7.9,73.4,7.8,73.2,7.6,72.9L7.6,72.9z M9.7,73.2c-0.2,0.1-0.7,0.4-1-0.8l2.5-0.7c1.6-0.4,2.3-0.4,3.9-0.4c0,0.8,0.5,4.1,0.6,5.2
		c-1,0-3,0.3-4,0.7c-0.3,0.1-1.1,0.5-1.1,0.1c0-0.5,1.6-2-0.2-2.6c-0.7-0.3-0.9,0-1.1-0.9c1.2-0.3,0.4,0.4,1.3,0.6
		c0-0.5-0.3-1.4-0.5-1.8c-0.1-0.3-0.1-0.3-0.5-0.3C9.6,72.8,9.7,72.7,9.7,73.2z M73.4,28.8c0.3-0.1,0.3-0.1,0.6,0
		C73.9,29,74,29,73.7,29C73.4,29,73.5,28.9,73.4,28.8z M75.8,28.5h-0.7c0.1-0.3,0.6-1,0.8-1.1C76.1,27.9,76.1,28,75.8,28.5
		L75.8,28.5z M74.4,28.4c-0.2-0.1-0.2-0.1-0.5-0.2c0.1-0.5,0.8-0.9,0.9-1.4c0.3,0.1,0.3,0.1,0.6,0.2C75,27.5,74.7,27.9,74.4,28.4z
		 M75.7,26.6c-0.2-0.1-0.2-0.1-0.5-0.2c0.2-0.3,0.4-0.6,0.5-0.9c0.2,0.1,0.2,0.1,0.5,0.2c0,0.5,0,0.1-0.2,0.5
		C75.9,26.3,75.8,26.4,75.7,26.6L75.7,26.6z M77.5,26.2c-0.2-0.1-0.3-0.2-0.5-0.3c0.1-0.4,0.3-0.6,0.5-0.9c0.9,0.6,1.8,1.2,2.7,1.9
		l1.7,1.7c0.2,0.3,0.3,0.4,0.5,0.7c-0.3,0.4-3.7,3.2-4.2,3.5c-1.2-1.8-3.6-3.2-3.6-3.2c-0.1-0.1,0,0.1-0.1-0.1
		c-0.4-0.9,2.2,0.4,2.2-1.6c0-0.5-0.3-0.6-0.4-1c0.1-0.2,0.2-0.3,0.4-0.5c0.4,0.1,0.2,0.1,0.5,0.3c-0.1,0.2-0.4,0.7-0.4,0.8
		c0.1,0.7,1.4-1.1,1.4-1.7C77.8,25.7,77.8,25.9,77.5,26.2L77.5,26.2z M74.8,26c-0.3-0.1-0.4-0.2-0.5-0.5c0.3-0.2,0.3-0.2,0.8-0.2
		C75,25.7,74.9,25.6,74.8,26L74.8,26z M76.6,25.4c-0.3-0.1-0.3-0.1-0.5-0.2c0.1-0.4,0.2-0.4,0.3-0.8c0.2,0.1,0.2,0.1,0.5,0.2
		C76.8,25.1,76.7,25,76.6,25.4z M75.5,24.9c-1.2-0.6-2.7,0.5-1.2,1.5c-0.1,0.4-0.1,0.3-0.4,0.6c-0.2,0.2-0.3,0.4-0.4,0.7
		c-0.3-0.2-0.6-0.5-0.6-1h0.5c0-1.1-2-0.6-0.6,1.2c0.3,0.4,0.3,0.2,0.2,0.6c-0.7,0-3.3-0.8-4.2-1c0-0.7,0.5-2.6,0.6-3.6
		c0.1-0.4,0.2-0.8,0.2-1.3c2.3,0,3.1,0.1,5.3,1c0.4,0.2,0.9,0.4,1.2,0.5C75.8,24.4,75.6,24.5,75.5,24.9L75.5,24.9z M69,22.1
		c0,0.9-1,4.8-1,6c1.6,0,4.6,1,6,1.8c0.8,0.5,1.5,1,2.3,1.6c0.3,0.2,0.8,0.7,1,1l0.9,1.1c0.6-0.4,4.6-3.9,5-4
		c-0.2-0.7-1.4-1.8-2-2.4c-2.3-2.5-7.5-5.2-10.9-5.2C69.7,21.9,69.5,22.1,69,22.1L69,22.1z M88.3,17.5c-0.5,0-0.4-0.1-0.8-0.2L88,17
		C89.4,16.3,88.7,17.5,88.3,17.5L88.3,17.5z M85.9,16.7c0.4,0,0.4,0.1,0.5,0.4C85.8,17.1,86.1,17.1,85.9,16.7z M86.9,16.8
		c-0.1-0.4-0.1-0.1-0.2-0.5c0.5-0.1,1.1-0.6,1.6-0.6c0.1,0.3,0,0.2,0.2,0.4C88.1,16.4,87.5,16.7,86.9,16.8z M90.5,15.8
		c0.4-0.2,0.4-0.4,0.9-0.4c1,1.8,1.6,3.2,2,5.3l0.1,0.7c0,0.2,0,0,0,0.2c-0.3,0.1-4.7,1-5.2,1c-0.2-0.9-0.5-1.8-0.8-2.6
		c-0.2-0.5-0.3-0.8-0.5-1.2c-1.2-2.4,0.5-0.3,1.6-0.6c0.9-0.3,0.8-1.2,0.8-1.8c0.4-0.1,0.3-0.2,0.7-0.2c0.2,0.9-0.1,0.4-0.6,1.2
		c0.7,0,1.3-0.1,1.8-0.5c0.3-0.3,0.2-0.1,0.2-0.6c-0.3,0.1-0.6,0.2-0.9,0.2C90.7,16.3,90.6,16,90.5,15.8L90.5,15.8z M89,15.9
		c-0.2-0.3-0.2-0.1-0.3-0.5c0.4-0.2,1-0.7,1.1,0.1C89.5,15.6,89.3,15.8,89,15.9L89,15.9z M90,14.7c0.3-0.1,0.5-0.2,0.7-0.4
		c0.1,0.2,0.2,0.3,0.3,0.6c-0.4,0.1-0.4,0.2-0.8,0.3L90,14.7z M88.2,14.5c0.3-0.4,0.6-0.3,0.9,0.1C88.6,14.7,88.4,15.2,88.2,14.5z
		 M85.5,9.4c1.1,0.6,1.9,1,2.8,1.9c0.8,0.8,1.5,1.7,2.1,2.6c-1.4,0.7-0.9-0.3-2-0.3c-0.8,0-1,0.7-0.5,1.6c-0.7,0.2-1,0.5-1.5,0.6
		v-1.1c0.4,0,0.4,0.2,0.7,0c-0.1-0.6-0.4-0.6-0.8-0.6c-0.2,0-0.3,0.2-0.5,0.3c0,0.3,0,0.7,0,1c0,0.5,0.1,0.6-0.1,0.7
		c-0.4,0.2-0.9-0.5-1.2-0.7c-0.5-0.5-1.6-1.7-2.1-2.1C83.1,12.3,84.9,10.4,85.5,9.4L85.5,9.4z M81.5,13.5c0.3,0.1,1.3,1,1.7,1.3
		c1.6,1.3,3,3.2,3.8,5.2c0.3,0.7,0.8,2.4,0.8,3.1c0.8,0,4.5-0.8,5.6-1c0.3,0,0.7,0,0.7-0.3c0-3-2.6-7.9-4.8-10.2
		c-0.3-0.3-0.3-0.5-0.6-0.8c-0.7-0.7-1.5-1.3-2.5-1.7c-0.4-0.2-0.7-0.3-1-0.4l-1.9,2.4c-0.3,0.4-0.6,0.7-0.9,1.2
		C82.1,12.7,81.9,13.1,81.5,13.5L81.5,13.5z M60.2,16.1c0.2-0.2,0.1-0.1,0.2-0.4c0.4,0,0.7,0.3,1,0.5c-0.1,0.3-0.2,0.4-0.3,0.6
		C60.8,16.7,60.4,16.4,60.2,16.1z M62.3,15.8c0.3-0.5,1-1.2,1.1-1.5c0.4,0.3,0.5,1.3-0.1,1.5C63,15.9,62.6,15.8,62.3,15.8L62.3,15.8
		z M62,15.7c-0.4-0.1-0.6-0.4-1-0.5c0.2-0.6,1.2-1.3,1.3-1.8c0.3,0.1,0.6,0.4,0.9,0.6C63,14.5,62.1,15.3,62,15.7z M63.6,13.5
		c-0.3-0.2-0.4-0.4-0.8-0.5c0.1-0.3,0.6-0.8,0.8-1.2c0.1,0.1,0.7,0.6,0.8,0.7C64.3,12.7,63.8,13.4,63.6,13.5z M65,12.3
		c0.2-0.3,0.4-0.4,0.5-0.8c0.3,0.1,0.7,0.3,1,0.5c1,0.6,2.4,0.9,3.5,1.2l-2.3,5.7c0,0.1-0.2,0.4-0.2,0.4c-0.1,0.2,0,0.3-0.4,0.3
		c-0.9,0-5.1-1.9-5.7-2.7l0.3-0.4l1.2,0.1c0.7,0.1,1.6-0.6,1.6-1.6c0-0.7-0.4-0.9-0.5-1.4c0.1-0.2,0.5-0.6,0.6-0.7
		c1.2,0.8,0.1,1.1,0.1,1.7c0,0.4,0,0,0.1,0.3c0.5-0.1,1.9-1.9,1.9-2.1c0-0.8-0.9,0.3-1,0.4C65.5,13.1,65.1,12.6,65,12.3L65,12.3z
		 M62.4,12.5c-0.6-0.4-0.7-1.2,0.7-0.9C62.9,11.9,62.7,12.3,62.4,12.5z M64.8,12c-0.3-0.1-0.6-0.3-0.8-0.5c0.1-0.4,0.3-0.5,0.5-0.9
		c0.3,0.2,0.4,0.5,0.8,0.6C65.2,11.5,65,11.8,64.8,12z M55.6,9.8c0.4,0,1.2-0.6,1.6-0.8c0.5-0.3,1-0.6,1.5-0.9
		c0.4-0.2,2.7-1.7,3.1-1.8c0.4,0.7,0.7,1.5,1.1,2.2c0.4,0.6,1.2,1.7,1.3,2c-0.2,0.2-0.3,0.5-0.5,0.7c-0.5-0.1-2.4-1-2.4,0.8
		c0,0.6,0.5,0.8,0.8,1.2l-1.4,1.6c-0.1-0.5-0.3-0.3-0.6-1.5c0.5-0.2,0.7,0.1,0.7-0.5c0-0.7-2.7-0.8-0.5,2.6
		c-0.3,0.2-0.1,0.2-0.4,0.4C58.7,15.4,55.7,11.3,55.6,9.8L55.6,9.8z M55,9.8c0,0.7,0.9,2.3,1.3,3c0.2,0.3,0.4,0.6,0.6,0.9
		c2.1,2.8,5,4.6,8.2,5.9c2.3,0.9,2.4,0.9,2.8,0c0.1-0.3,0.2-0.6,0.4-0.9c3.2-8,2.9-5.1-0.8-6.7c-1.1-0.5-1.6-0.8-2.5-1.5
		c-2-1.6-2.4-3.6-3.1-5c-0.4,0.1-1.4,0.8-1.8,1c-0.6,0.4-1.2,0.7-1.8,1.1l-2.6,1.6C55.6,9.3,55,9.5,55,9.8L55,9.8z M145.2,33.4
		c0.5,0,0.6,1.1,0.7,1.7c0.1,0.6,0.5,1.7-0.2,1.8s-0.7-1-0.8-1.6C145,34.7,144.5,33.4,145.2,33.4z M147.5,33.2
		c0.9,0,1.9,0.9,1.6,1.7c-0.2,0.5-0.5,0.7-0.8,1s-0.5,0.7-1,0.8c0-0.6-0.6-2.6-0.6-3C146.7,33.2,147.1,33.2,147.5,33.2L147.5,33.2z
		 M142.8,32.1c0-0.5,0.3-1.2,0.6-1.2c0.4,0,0.3,0.4,0.3,0.8c0,0.6,0.1,0.3,0,0.9c-0.3,0-0.5,0-0.8-0.2
		C142.8,32.1,142.8,32.4,142.8,32.1z M147.6,31.4v0.7c-1.4,0-1.5-0.3-1.5-1.8c0-0.4,1.3-0.7,1.5,0.4
		C147.7,31.2,147.6,30.9,147.6,31.4L147.6,31.4z M144.3,30.6c0.3-0.2,0.1-0.3,0.6-0.3c0.1,0.2,0.8,1,0.2,2.1
		C144.5,32.2,144.4,31.3,144.3,30.6z M146.7,27.2c0,0.8,0.1,1.2,0.1,1.9c-0.4,0-0.2,0.1-0.6,0.1c-0.6,0-0.6-0.9-1.3-1.1
		c0,0.5-0.3,0.8-0.3,1.3c-0.3-0.2-0.8-0.4-1.2-0.5c-0.2,0.8-0.2,1-0.7,1.5c-2.1,2.2,0.3,2.9,0.9,3.2c0.5,0.3,0.4,0.6,0.5,1.2
		l0.1,1.9c-0.5,0-0.5-0.1-0.7-0.5l-1.3-1.6c-0.2-0.2,0.1-0.2-0.4-0.2c-0.3,0.4,0.2,1.5,0.4,1.8c0.4,0.6,0.5,0.6,1.1,1
		c0.8,0.5,1.1,1,1.4,1.7c0.1,0.4,0.1,0.5,0.6,0.5c0.1-0.4,0.3-2.4,1.1-1.4c0.4,0.4,0.1,0.9,1,1.1c1-1.6-0.7-0.9,1.2-2.5
		c0.9-0.8,2.7-2.4,0.8-3.8c-1.3-1-1-1.1-1.1-3.1C148.2,29.1,147.6,26.8,146.7,27.2L146.7,27.2z M145.7,133c-0.6-0.3-0.5-0.4-0.7-1.7
		c-0.1-0.5-0.5-1.9,0.2-1.8c0.5,0.1,0.6,1.2,0.7,1.7C146.2,132.4,146.4,132.6,145.7,133L145.7,133z M147.5,129.3
		c0.9,0,1.9,0.9,1.6,1.7c-0.2,0.5-0.5,0.7-0.8,1s-0.5,0.7-1,0.8l-0.6-3C146.7,129.4,147.1,129.3,147.5,129.3L147.5,129.3z
		 M142.8,128.2c0-0.5,0.3-1.2,0.6-1.2c0.5,0,0.4,1.5,0.3,1.7C143.3,128.7,142.8,128.6,142.8,128.2L142.8,128.2z M147.6,127.5v0.7
		c-1.4,0-1.5-0.3-1.5-1.8c0-0.5,1.3-0.6,1.5,0.4C147.7,127.3,147.6,127.1,147.6,127.5L147.6,127.5z M144.3,126.7l0.4-0.3
		c0.7,0.5,0.8,1.4,0.4,2.1C144.4,128.3,144.4,127.5,144.3,126.7L144.3,126.7z M146.7,123.3c0,0.8,0.1,1.2,0.1,1.9
		c-0.4,0-0.2,0.1-0.6,0.1c-0.6,0-0.6-0.9-1.3-1.1c0,0.5-0.3,0.8-0.3,1.3c-0.2-0.1-0.9-0.4-1.2-0.5c-0.2,0.8-0.2,1-0.7,1.5
		c-2.3,2.3,0.7,3.1,0.9,3.2c0.5,0.3,0.3,0.6,0.4,1.3l0.2,1.9c-0.6,0-0.6-0.2-1.3-1.1l-0.8-1c-0.2-0.2,0.1-0.2-0.4-0.2
		c-0.3,0.4,0.2,1.5,0.4,1.8c0.4,0.6,0.5,0.6,1.1,1c2,1.1,0.8,2.2,1.9,2.3c0.2-0.7,0.2-1.1,0.5-1.7c1.1,0.1,0.5,1.1,1.6,1.4
		c1-1.6-0.7-0.9,1.2-2.5c0.4-0.4,0.7-0.5,1.1-1c0.3-0.4,0.6-0.9,0.5-1.5c-0.1-0.5-0.4-1-0.8-1.3c-1.3-1-1-1.1-1.1-3.1
		c0-0.8-0.4-1.6-0.8-2.3C147.2,123.3,147,123.2,146.7,123.3L146.7,123.3z M70.1,122.2c0-1,0.2-1.9,0.3-2.8
		C71.6,119.6,72.2,121.8,70.1,122.2z M68.9,122.6h-1.2c0-0.6,0.2-1.2,0.2-1.8c0.1-0.6,0.2-1.1,0.2-1.8c0.6,0,0.7,0.1,1.2,0.1
		c0,0.5-0.1,1.2-0.2,1.7C69,121.4,68.9,122.1,68.9,122.6L68.9,122.6z M69.4,118.2h-1.2c0-0.6,0.2-1.5,0.2-2.2c0.8,0,0.8,0.1,1.2,0.1
		C69.5,116.7,69.4,117.5,69.4,118.2L69.4,118.2z M67.1,118c-1.5,0-1.7-1.3,0.2-1.8C67.2,116.5,67.1,117.6,67.1,118z M69.6,115.3
		c-0.5,0-0.3-0.1-1.1-0.1c0-1.3,0.2-1.5-0.6-1.9c-0.6,0.5-0.4,0.4-0.5,1.3c0,0.4-0.1,0.2-0.1,0.6c-1.3,0.3-2.6,0.7-2.6,2
		s1,1.8,2.3,1.8c0,0.3-0.3,3.1-0.4,3.1c-0.2,0.4-1.4-0.6-1.6-0.7c-0.2-0.2-0.3-0.2-0.3-0.6l0.2-0.1c0.1,0,0.9-0.2,0.4-0.8
		c-0.4-0.5-1.1-0.3-1.4,0c-0.9,0.9-0.2,2,0.8,2.7c0.9,0.6,1,0.5,1.8,0.9c-0.2,0.4-0.2,1.3-0.1,1.7c1.5,0.7,0.7-1.4,1.4-1.4h0.9
		c0,0.3-0.4,1.4,0.5,1.4c0.6,0,0.6-1.1,0.7-1.6c0.9-0.2,1.2-0.4,1.9-0.8c2.3-1.7,0.1-4.4-1.3-4.5c0-0.4,0.1-1.5,0.2-1.8
		c0.6,0.1,0.8,0.2,1.3,0.5c0,1.2-0.2,1.7,0.6,2.1c0.3-1.3,0.2-0.2,0.4-2.1c0.1-0.8,0.2-1.5,0.2-2.4c-0.4-0.2-0.1-0.3-0.7-0.3
		c-0.1,0.5-0.2,1.2-0.3,1.7c-0.6,0-1-0.3-1.5-0.4c0-0.9,0.5-2.2-0.6-2.3C69.6,113.6,69.6,114.5,69.6,115.3L69.6,115.3z M65.1,45.8
		c-0.4-0.1-0.1-0.1-0.5-0.2c0.2-0.3,0.1-0.4,0.4-0.6C65.5,45.3,65.2,45.3,65.1,45.8L65.1,45.8z M60.3,44.8c-0.1-0.4-0.1-0.4-0.1-0.9
		c0.3,0.1,0.7,0.3,1,0.5C60.9,44.9,61,45,60.3,44.8L60.3,44.8z M62.4,43.5c0.5,0.1,1.4,0.9,1.9,1c0,0.4-0.1,0.3-0.2,0.7
		c-0.3-0.1-0.7-0.3-1-0.5c-0.4-0.2-0.6-0.4-1-0.6C62.2,43.9,62.3,43.8,62.4,43.5z M59.5,44.6c0,0.6,0.5,1.1,1.1,1.1
		c0.7,0,0.8-0.6,1.2-0.9c0.3,0.1,1.5,0.8,1.7,1c-0.3,0.4-0.8,0.6-1.3,0.7c0-0.3,0.1-0.6-0.3-0.6c-0.8,0-0.8,2.2,1.4,1
		c0.7-0.4,0.6-0.4,0.9-0.7c0.2,0.1,0.3,0.2,0.5,0.3c-0.4,1.7-0.7,3.4-1.1,5.1c-0.5,0-1.1-0.1-1.6-0.2l-3.3-0.3
		c-0.5,0-1.2-0.2-1.7-0.2L56.9,49c0-1.8,1-4.8,1.7-6c0.5,0.1,0.5,0.4,1,0.5C59.6,44,59.5,44.1,59.5,44.6L59.5,44.6z M60.7,42.5
		c0.3,0.2,0.9,0.5,1.2,0.6c-0.1,0.2-0.2,0.5-0.3,0.7c-0.4-0.2-0.7-0.5-1.2-0.6C60.5,43,60.6,42.8,60.7,42.5z M62.9,42.8
		c0.3-0.2,0.7-0.4,1.1-0.2c0.4,0.2,0.4,0.5,0.4,1.1C64.1,43.6,63.1,43.1,62.9,42.8L62.9,42.8z M60,42.8c-0.5,0-0.7-0.3-1.2-0.3
		c0.2-0.3,0.3-0.4,0.4-0.8l1,0.5C60.1,42.5,60.1,42.5,60,42.8z M65.6,44.5c-1-0.5,0.3-1.5-1-2.4c-1-0.7-1.6-0.1-2.4,0.3
		c-0.2-0.1-0.6-0.3-0.8-0.4c0.3-1.2,0.8-0.2,1.8-0.4c-0.1-0.5-1.3-1.1-1.9-1.4c-0.4-0.2-0.4-0.2-0.8,0c0.1,0.3,0.6,0.6,0.9,0.7
		c-0.2,0.4-0.2,0.5-0.6,0.7c-0.3-0.1-0.8-0.3-1.1-0.5c0.8-1.6,2.4-3.7,3.8-5l1.6-1.4l4.5,4.4c0.2,0.2,0.2,0,0.3,0.3
		c-0.2,0.3-2.3,1.9-3.7,4.3C65.9,44.1,65.8,44.3,65.6,44.5z M56.1,49.4c0,0.6,0.1,1.3,0.2,1.7c0.2,0.7,0.5,0.5,1.3,0.6l6.1,0.6
		c0.3,0.1,0.5,0.2,0.7-0.2c0.5-1.2-0.3-4.7,3.7-9.8c0.3-0.4,0.6-0.6,0.9-1c0.3-0.5,0.6-0.6,1-0.9c0.3-0.3,0.8-0.7,1-1l-3-2.7
		c-0.5-0.5-2.3-2.4-3-2.8C60.5,36.9,56.1,44.4,56.1,49.4L56.1,49.4z M159.9,76c0.2-0.4,0.4-1.4,0.5-1.9c0.2-0.6,0.3-1.3,0.6-1.8
		c0.4,0.2,0.8,0.6,1.2,0.9c1.2,0.8,0.2,1.4-0.9,2.3C160.2,76.3,160.6,76.1,159.9,76z M158.6,76.3c-1,0-0.5,0-1.3-0.2
		c0-0.4,0.2-1.1,0.3-1.5c0.2-0.5,0.3-0.9,0.4-1.4c0.5-1.9,0.6-1.2,2.1-1.1c0,0.9-0.6,2.6-0.9,3.5C159.2,76,159.1,76.3,158.6,76.3
		L158.6,76.3z M157.4,70.4c0-0.8,0.8-1.4,1.5-1.4c-0.4,0.8-0.5,1.8-1,1.9C157.6,70.9,157.4,70.7,157.4,70.4z M160.4,71.1
		c-2.1,0-2,0.4-0.9-2.1c0.5-1.1,1.1-1,2.1-0.7c0,0.5-0.3,1.1-0.5,1.5C160.9,70.4,160.7,71.1,160.4,71.1z M161.5,67.5
		c-0.5,0-0.4-0.1-0.9-0.1v-0.9c-0.5,0-0.5,0.3-0.7,0.6c-0.7,1.3-2.1,1.4-2.9,2.5c-0.6,1-0.7,1.5,0.8,2.3c-0.3,1.1-0.4,2.1-0.8,3.1
		c-0.1,0.3-0.3,0.7-0.4,1c-1.2-0.3-1.1-1.1-2-1.7c-0.1,0.1-0.2,0.2-0.2,0.3c0,1.4,1.8,1.9,1.8,2.9c0,0.5,0,1.1,0,1.6
		c-0.7-0.2-1.7-1.3-2.1-1.9c-2-3-0.7-5,1.1-7.7c0.6-0.9,1.3-1.6,2.1-2.3c1.1-1,3.4-2,5-2c2.1,0,4.1,2.5,4.1,4.7c0,1.7-0.1,2.7-1,4.2
		c-0.6,1-1.2,1.7-1.9,2.4c-1.7,1.7-3.8,2.9-6.4,2.9c-0.7,0-0.1-1.5-0.1-2h1c1.4,0,0.4,0.8,1.3,1c0.3-0.4,0.1-0.1,0.2-0.6
		c0.1-0.3,0.1-0.3,0.3-0.5c0.6-0.5,2.8-0.9,3.4-1.7c0.4-0.5,0.3-2.1,0-2.8c-0.3-0.8-1.1-1.2-1.8-1.6c0.4-0.8,0.7-2.1,1.1-3
		c0.2,0.1,0.4,0.1,0.7,0.2c0.8,0.3,1.2,0.7,1.7,1c0.4-0.6,0.6-0.7,0.6-1.7c-0.4,0.2-0.4,0.6-0.9,0.9l-1.8-1c0.2-0.4,0.3-1.1,0.5-1.6
		C162,66,162.4,67.5,161.5,67.5L161.5,67.5z M152.5,74.2c0,2.3,2.2,5.8,4.4,5.8c1.7,0,3-0.2,4.3-1.2c1-0.6,1.8-1.3,2.6-2.1l1.1-1.2
		c0.4-0.5,0.6-0.9,1-1.4c1.4-2.4,1.5-5.4-0.2-7.6c-0.6-0.8-1.9-2.1-3.1-2.1c-3.1,0-4.6,1.3-6.6,3.3
		C154.9,68.8,152.5,72.2,152.5,74.2L152.5,74.2z M107.9,129l1.1-3.3c0.8,0.5,1.5,2.1,0.2,2.9C108.7,128.8,108.2,128.8,107.9,129z
		 M106.6,129.1c-0.4-0.1-0.9-0.2-1.3-0.3c0-0.5,1-3.1,1.2-3.9c0.3,0.1,1,0.3,1.3,0.4c-0.1,0.6-0.4,1.3-0.6,1.9
		C107,127.6,106.6,128.7,106.6,129.1L106.6,129.1z M108.2,124.2c-0.4,0-1.2-0.2-1.4-0.3c0.4-0.9,0.4-2.3,0.9-2.3
		c0.6,0,0.7,0.2,1.1,0.3C108.6,122.6,108.2,123.6,108.2,124.2L108.2,124.2z M105.6,123.6c-0.2-0.2-0.4-0.3-0.7-0.4
		c-0.4-0.3-0.3-0.3-0.5-0.7c0.3-0.7,1-1,1.8-1C106.1,122,105.7,123.3,105.6,123.6L105.6,123.6z M103.1,122.4c0,1.3,1.1,2,2.2,2.1
		c0,0.5-0.4,1.4-0.5,1.9c-0.2,0.5-0.5,1.4-0.6,1.8c-0.5-0.3-2.3-1.7-1.8-2.2c0.3-0.3,0.7,0.1,0.9-0.5v-0.1v-0.1
		c-0.1-0.8-1.6-0.9-2.2,0.3c-0.3,0.7-0.2,1.1,0.2,1.6c0.4,0.6,1.7,1.9,2.4,2.1c0,0.7-0.4,0.9-0.4,1.8c0,0.4,0.7,0.7,1.1,0.2
		c0.2-0.4,0.3-0.9,0.5-1.4c0.4,0.1,0.9,0.2,1.2,0.3c-0.1,0.6-0.8,1.7,0.4,1.7c0.5,0,0.9-1.4,0.9-1.6c4.1,0,5.2-3.7,2-5.9
		c0-0.6,0.4-1.3,0.5-1.9c0.5,0.1,0.9,0.5,1.3,0.6c0,1.7-0.6,2.1,0.2,2.6c0.6-0.4,0.7-1.3,1-2.1c0.4-1.3,0.8-2,0.6-3l-0.4-0.1
		c-0.5,0.4-0.6,1.2-0.9,1.8c-0.6-0.1-1-0.6-1.5-0.7c0.1-0.7,0.6-1.8,0.4-2.2c-0.1-0.2-0.8-1.1-1.3,0.4c-0.1,0.3-0.2,0.9-0.4,1.2
		c-0.5,0-0.7-0.3-1.2-0.3c0-0.8,0.7-1.7-0.1-2.1c-0.9-0.4-0.9,1.3-1.1,1.6c-0.1,0.2-0.1,0.2-1.1,0.3
		C104.4,120.6,103.1,121.1,103.1,122.4L103.1,122.4z M18.1,111.7c0.4-0.1,1.1-0.5,1.4-0.7c0.1,0.4,0.3,0.7,0.5,1l1,2
		c0.2,0.4,0.5,0.6,0.5,1.1c-0.5,0.1-0.7,0.6-1.3,0.7c-0.1-0.4-0.7-1.5-1-2.1C18.8,113,18.4,112.4,18.1,111.7z M14.4,111
		c0-0.7,0.3-1.3,0.8-1.7c0.1,0.3,0.9,1.7,1.1,2C15.6,111.8,14.4,112,14.4,111z M20.8,110.5c0.8,0,1.1-0.1,1.7,0.2
		c1.7,0.8,0.2,2.7,0.1,3L20.8,110.5z M16.2,108.2c0.3-0.2,1.1-0.6,1.4-0.7c0.1,0.6,1.1,1.8,1.2,2.4c-0.5,0.3-0.8,0.5-1.3,0.8
		c-0.1-0.4-0.9-1.6-1.1-2.1l-0.1-0.1v-0.1C16.2,108.3,16.2,108.2,16.2,108.2L16.2,108.2z M19.4,103.5c0,0.9,0.6,1.2,0.7,2.1
		c-0.7,0-1,0.4-1.8,0.4c-0.1-0.3-0.5-0.9-0.7-1.2c-0.2-0.3-0.5-0.9-1-0.9c-0.3,0-1,0.4-0.5,1.3c0.2,0.4,0.7,1.1,0.8,1.5
		c-0.3,0.2-0.9,0.5-1.2,0.6c-0.5-0.7-0.9-1.6-1.6-1.6c-0.2,0-0.5,0.3-0.5,0.5c-0.2,0.6,0.6,1.3,0.8,2c-0.6,0.9-1.6,1.6-1.6,3
		c0,0.9,1.1,2,2,2c1.1,0,1.3-0.5,2.1-0.7c0.5,1,1.8,2.9,1.8,3.9c-0.3,0-2.9,0.3-2.9-0.3c0-0.5,0.4-0.7,0.3-1c-0.7-1.8-3.1,1-1.2,2.4
		c1.2,0.8,3.6,0.2,4.6,0.2c0.5,0.9,0.6,1.7,1.4,1.7c0.2,0,0.7-0.3,0.5-1.1l-0.6-1.3c0.3-0.1,1-0.5,1.3-0.7c0.4,1.5,1.7,1.7,1.7,0.6
		c0-0.5-0.5-1.1-0.6-1.6c0.2-0.1,0.1,0,0.3-0.2l0.6-1.2c0.5-1,0.6-1.3,0.6-2.3c0-1.5-1.8-2.7-3.3-2.7l-1.6,0.1
		c-0.1-0.4-0.3-0.6-0.5-0.9s-0.4-0.6-0.4-1c2.9-1.5,1.5,1.2,3.7,1.4c0-0.9,0-0.6-0.6-1.6c-0.3-0.6-1.6-3.4-2-3.7
		C19.9,103.1,19.4,103.1,19.4,103.5L19.4,103.5z M219,46.6c0.3,0,0.2,0,0.4,0.1c0.1,0.1,0.2,0.1,0.3,0.2
		C219.2,46.9,219.2,46.9,219,46.6z M212.1,4.6h0.2c0.5,0.1,1.2,0.9,1.5,1.8c0.3,0.8,0.6,1.6,0.9,2.4c0.3,0.9,1.8,4.3,1.8,4.9
		l6.5-0.5c2-0.2,1.4-1.3,1-2.6c-0.3-0.9-2-5.6-0.1-5.8c0.8-0.1,2,0.4,2.3,1.3l2.2,6.9c0.6,1.9,1.1,3.6,1.6,5.6
		c0.2,0.7,1.6,5.6,0,5.6c-0.8,0-1.8-1-2.2-1.5c-0.6-0.8-1.2-2.8-1.6-3.8c-1.4-3.5-2.1-2.7-5.9-2.3c-2.3,0.3-2.7-0.1-2.3,0.9
		c0.5,1.2,1.6,4,1.9,5.3c0.8-0.5,1.1-1.9,1.9-2.5c0.8,1.3,1.2,3,1.6,3.7c0.3,0.4,3.9,0.5,7.3,3.1c0.6,0.5,1.4,1.1,1.8,1.7
		c1.6,2,2.5,3.2,2.5,6.4c0,2.8-2.2,7.3-4.4,9.2l-1.3,1c-0.4,0.3-0.8,0.7-1.2,1c0.1,1.1,2.4,5.8,1.2,6.4c-0.4,0.2-1-0.4-1.2-0.7
		c-0.6-0.8-1.5-3.5-1.7-4.5c-0.6,0.1-1.1,0.6-1.7,0.9c-1.1,0.5-1.9,1.1-2.5,1.2c-0.9,0.1-1.9,0.8-2.9,0.9c0,0.6,0.2,0.8,0.3,1.3
		c0.3,1,1,2.8,1.1,3.7c0.6,0,0.6-0.1,1.1-0.1c0.4,0,0.8,0,1.2,0c0.7-0.1,4.4-0.6,4.4,0.9c0,1.6-1.6,0.9-3.6,1.1l-2.6,0.2
		c-0.6,0.1-0.9,0.3-1.6,0.3h-4c-2.8,0-2.2-1.8-1.3-2.1c0.5-0.2,1.9,0.1,2.4,0.1c0.3,0,0.7-0.1,1.2-0.1c-0.4-1.6-1-3.1-1.4-4.7
		c-0.6,0.3-5,0.3-5.9,0.1c-1.8-0.3-3.6-0.5-5.3-1.1l-2.3-0.8c-1.5-0.6-2.9-1.2-3.6-2.8c-0.2-0.5-0.5-2-0.6-2.6
		c-4.1,0-8.6,2.3-11.4,5.2c-0.4,0.4-0.8,0.8-1.2,1.1l-6.4-6.4c0.5-2.2,3.5-4.3,5.4-5.5c3.9-2.5,8.7-4,14-4l0.9,0.1l0.6,4.8
		c0.9-0.2,2-1.3,3.1-0.7c0.7,0.3,1.8,1.3,1.8,2.3c0,0.7-0.8,1-1.3,1.3s-0.9,0.9-0.9,1.6c0,1.1,0.9,1.4,1.8,1.7
		c0.9,0.3,1.7,0.6,2.7,0.8c1.9,0.4,3.8,0.7,6.1,0.7l1.1-0.1c0-1.1-0.6-1.4-1.3-1.8c0.1-0.4,0.4-0.5,0.4-1c0-0.6-0.7-2.4-0.9-3.1
		c-0.5-1.8-2.5-7.4-2.8-8.6c-1.6,0.4-3.1,0.9-4.8,1.2c-0.6,0.1-1.4,0.3-2.1,0.3c-2.9,0-7.3-4.2-6.2-8.7c0.1-0.4,0.3-0.7,0.3-1.2
		c-0.4,0-1.4,0.4-1.9,0.6c-2.4,0.7-1.9,1-3.3-1.4c-0.2-0.4-0.4-0.6-0.6-1l-1.8-3c-0.2-0.3-0.4-0.7-0.6-1c-0.9-1.4-0.6-1.3,0.7-1.4
		c1.2-0.2,2.5-0.5,3.6-0.9c2.8-1.1,5.5-2.4,7.9-4c0.7-0.5,1.3-0.7,1.4-1.6c0.1-1.2,0.7-1.1,1.6-1.1c0-0.5,0-0.5,0.3-0.9
		c0.5,0.2,0.5,0.2,0.6,0.8l0.9,3c0.2,0.7,0.4,1.3,0.6,2c0.2,0.7,0.4,1.4,0.6,2c0.4,0,1.3-0.5,1.7-0.6c1.7-0.6,3.4-1,5.2-1.4
		c-0.2-0.7-0.5-1.5-0.8-2.2s-0.5-1.4-0.8-2.1c-0.4-1.1-1.4-3.2-1.4-4.4C211.8,4.9,211.9,4.6,212.1,4.6L212.1,4.6z M220.4,46.3
		c0.1-0.4,0.3-0.6,0.4-1h0.2C221.1,46,221.2,46.3,220.4,46.3z M220,46.4c-0.2-0.1-0.5-0.2-0.7-0.3c0.2-0.5,0.4-0.9,0.7-1.3
		c0.3,0.1,0.3,0.1,0.6,0.2L220,46.4z M221.2,44.7c0-0.3,0.1-0.4,0.2-0.6c0.4,0.1,0.1,0.1,0.5,0.2c0,0.4-0.4,1.7,0.2,0.9
		c0.3-0.4,0.5-0.9,0.8-1.4c0.4,0,2.1,0.9,2.5,1.1c-0.1,0.5-2.2,3.1-2.6,3.9l-2.1-1.3c-0.3-0.2-0.5-0.3-0.7-0.5
		c0.3-0.1,1.7,0,1.7-1.1C221.6,45.2,221.2,44.8,221.2,44.7L221.2,44.7z M191.5,44.6c0.2-0.1,0.4-0.2,0.7-0.3
		c0.1,0.2,0.1,0.2,0.2,0.5c-0.4,0.1-0.4,0.2-0.8,0.3C191.5,45,191.5,44.7,191.5,44.6z M220.9,44.6c-0.3-0.1-0.5-0.2-0.7-0.3l0.4-0.8
		l0.6,0.3C221.1,44.2,220.9,44.2,220.9,44.6L220.9,44.6z M222.4,43.5c-0.1,0.3-0.1,0.3-0.2,0.6c-0.3-0.1-0.6-0.3-0.6-0.6
		C221.8,43.1,222.1,43.4,222.4,43.5z M219.9,44.1c-0.2-0.1-0.3-0.3-0.5-0.5c0.4-0.1,0.3-0.2,0.8-0.2C220.1,43.7,220,43.9,219.9,44.1
		z M221.5,43.3c-0.2,0.1-0.7,0-0.5-0.3c0.1-0.2,0.1-0.1,0.2-0.1C221.4,43.1,221.4,43.1,221.5,43.3L221.5,43.3z M218.9,43.7
		c0,0.5,0.5,0.6,0.7,0.9c-0.1,0.4-0.4,0.9-0.6,1.2c-0.4-0.3-0.4-0.4-0.6-0.8c0.2-0.3,0.3-0.1,0.3-0.3c0.2-0.5-0.9-0.5-0.9,0.1
		c0,0.9,2.7,2.8-1.6,0.9c-0.4-0.2-1-0.5-1.4-0.7c0.1-0.5,2.5-3.3,2.6-3.7l2.9,1.2c0.3,0.2,0.2,0,0.2,0.4c-0.4,0.2-0.8-0.2-1.3,0.2
		C219,43.2,218.9,43.5,218.9,43.7z M190.4,41.4c0.4-0.1,0.3-0.2,0.7-0.2c0.4,0.7,0.5,1.6,0.9,2.3l-0.8,0.4
		C191,43.1,190.4,42,190.4,41.4L190.4,41.4z M191.9,41c1.9,0,1.1,1.5,0.7,1.8C192.3,42.3,192.1,41.6,191.9,41z M188.3,40.9
		c0-0.5,0.3-0.6,0.4-1c0.3,0.2,0.5,0.8,0.6,1.2C189.1,41.2,188.3,41.4,188.3,40.9z M189.5,39.3c0.5,0,0.3-0.2,0.8-0.2
		c0.1,0.3,0.5,1.1,0.5,1.4c-0.2,0.1-0.5,0.2-0.7,0.3L189.5,39.3L189.5,39.3z M187.4,40.9c0,0.7,0.6,1.1,1.3,1.1
		c0.4,0,0.5-0.1,0.9-0.2l0.8,2.2c-2.5,0-1.4-0.4-1.4-1c-0.8-0.6-1.2,0.4-1.2,0.7c0,0.2,0.2,0.5,0.3,0.7c0.4,0.3,2,0.5,2.6,0.4
		c0.1,0.3,0.2,0.4,0.2,0.8c-2.1,1.1-3.6,2.9-4.5,3.5c-0.7-0.5-2.5-2.5-3.4-3.3c-0.3-0.3-0.5-0.4-0.8-0.6c-0.4-0.4-0.9-1-1.4-1.3
		c0.7-1.4,1.9-2.5,3.1-3.5c1.2-0.9,1.8-1.2,3-1.9c0.3-0.2,0.8-0.5,1.1-0.6c0,0.3,0.2,1.1,0.3,1.3C188,39.6,187.4,40.3,187.4,40.9
		L187.4,40.9z M188.4,37.7c0.2-0.1,0.9-0.3,1.1-0.4c0.2,0.3,0.4,0.8,0.5,1.2c-0.2,0.1-0.5,0.2-0.7,0.3c-0.2-0.4-0.3-0.7-0.6-0.9
		L188.4,37.7L188.4,37.7z M191.6,37c0,0.2,0.2,1,0.3,1.1c-0.4,0-0.7,0.2-1.1,0.2c-0.1-0.5-0.4-0.9-0.5-1.3c1.5-0.8,5.5-1.7,7.8-1.7
		h1.6c0,0.9,0.5,4.4,0.6,5.7c0.1,0.7,0.2,1.3,0.2,2c-1.3,0-2.8,0.2-4,0.4l-3.4,1c-0.1-0.2-0.1-0.4-0.2-0.6c0.3-0.2,0.6-0.7,0.8-1.1
		c0.9-1.6-0.4-2.7-2.2-2.7c-0.1-0.3-0.3-0.8-0.4-1.1c0.9-0.1,0.9-0.4,1.3,0.5c0.2,0.4,0.2,0.5,0.7,0.5c0-0.6-0.6-2.2-0.8-2.8
		C192,36.7,191.6,36.8,191.6,37L191.6,37z M213.4,31.7c0.4,0,0.8-0.2,1.2-0.4l2.4-0.8c0.6-0.2,0.7-0.2,1.2,0.1l2.2,1
		c0.6,0.2,0.7,0,0.9,0.7l3.7,10.9l-0.7,0.6c-0.5-0.3-7-3.1-7.1-3.1c-0.3,0-0.5,0.6-0.9,0.8C216.4,40.7,213.4,32.4,213.4,31.7z
		 M222.3,29.2c1.1-0.1,1.1-0.4,2.9,0.2c2.1,0.8,5.2,2.6,5.2,5.3c0,1.9-0.3,2.8-1.4,4.4c-0.3,0.5-1.8,2.4-2.3,2.7
		c-0.2-0.4-0.4-1.1-0.6-1.5L222.6,30C222.5,29.8,222.4,29.4,222.3,29.2z M202.3,27.6c0-3,2.4-5.6,4.3-6.9l2.2,6.2
		c0.2,0.6,0.6,1.5,0.7,2.2c-0.4,0-0.5,0.1-0.8,0.2c-1.6,0.3-3.6,0.6-5.1-0.2C203.1,28.9,202.3,28.2,202.3,27.6L202.3,27.6z
		 M222.3,27.8c-0.3-0.3-0.2-0.2-0.1-0.6h0.2C222.4,27.4,222.4,27.6,222.3,27.8L222.3,27.8z M219.4,26.6l0.6,0.3
		c-0.2,0.3-0.2,0.2-0.5,0.4C219.4,26.9,219.4,27,219.4,26.6z M220.8,26.3c0.3,0.1,0.8,0.3,1.1,0.5l-0.1,0.6c-0.6,0-0.6-0.4-1.2-0.5
		C220.6,26.4,220.6,26.7,220.8,26.3z M218.9,27c0,0.5,0.7,1.2,1.5,0.1c0.4,0.2,0.7,0.4,1.1,0.6c-0.2,0.2-0.5,0.4-0.8,0.6
		c-0.2-0.3,0-0.4-0.5-0.4c-0.2,0.2-0.1,0.7,0.3,0.8c0.7,0.2,1.8-1.4,1.7-0.4l-0.9,2.1c-0.1,0.3-0.3,0.4-0.3,0.8
		c-1.2-0.6-3-0.9-4.1-2.9l1.8-2C219.1,26.1,218.9,26.6,218.9,27z M220.2,26.6c-0.2-0.1-0.4-0.2-0.7-0.3c0.1-0.3,0.1-0.3,0.2-0.5
		c0.4,0,0.3,0.1,0.7,0.2C220.3,26.2,220.3,26.4,220.2,26.6z M221,26c0.4-0.1,0.3-0.1,0.8-0.1c0.1,0.2,0.1,0.3,0.1,0.6L221,26z
		 M218.9,26c0-0.4,0.1-0.4,0.5-0.4C219.2,25.9,219.3,25.9,218.9,26z M219.4,25.2c0.2-0.3,0.1-0.4,0.6-0.4
		C219.7,25.2,219.8,25.3,219.4,25.2z M221.7,21.4c0.3,0.2,0.3,0.4,0.4,0.8c0.9,2.4,1.2,2.3,0.7,4c-0.1,0.4-0.2,0.6-0.5,0.8
		c0-1.7-0.7-2-2-1.2c-0.2-0.1-0.2-0.1-0.5-0.2c0.3-0.6,0.2-0.4,1.1-0.3c-0.1-0.4-0.7-0.8-1.1-0.9c0.1-0.4,0.7-1.1,0.9-1.5
		C221,22.6,221.7,21.7,221.7,21.4L221.7,21.4z M201.1,21.5c0.2-0.3,0.3-0.4,0.8-0.4C201.7,21.3,201.6,21.5,201.1,21.5z M209,19.2
		c0.3-0.1,0.5-0.2,0.8-0.3c1.6-0.8,4.5-1.6,6.1-1.8c0.4,0.8,1,2.7,1.4,3.8c0.2,0.5,1.4,3.6,1.4,3.9c0,1.5-3.3,2.4-4.6,2.9
		c-0.7,0.3-1.1,0.5-1.9,0.6L209,19.2L209,19.2z M199.5,18.5c0.2-0.1,0.7-0.3,1-0.4c0.4,0.7,0.6,1.4,1,2.1c-0.3,0.2-0.7,0.5-1,0.6
		L199.5,18.5z M200.9,18c1.6,0,1.4,1.4,0.8,1.8c-0.2-0.3-0.3-0.6-0.4-0.9c-0.1-0.1-0.1-0.3-0.2-0.4C201,18.3,201,18.2,200.9,18z
		 M197.7,17.8c0-0.5,0.1-0.7,0.5-0.9c0.1,0.5,0.4,0.7,0.5,1.2C198.5,18.2,197.7,18.4,197.7,17.8L197.7,17.8z M198.5,16.5
		c0.2-0.1,0.8-0.3,1-0.4l0.6,1.3c-0.4,0.2-0.6,0.3-0.9,0.5L198.5,16.5z M196.8,17.8c0,0.5,0.6,1.7,2.2,0.9c0.2,0.5,0.9,1.7,1,2.2
		c-1.1,0-1.1,0.1-1.8-0.3c0.9-1.6-1.6-0.7-0.5,0.6c0.5,0.6,2,0.5,2.7,0.5V22c-0.4,0.1-0.9,0.5-1.4,0.7c-1.1,0.5-3.9,1.6-4.8,1.7
		c-0.6-1.1-3.7-6-3.9-6.5c0.4-0.2,1.4-0.4,1.9-0.5c0.6-0.2,1.3-0.4,1.8-0.6l3.5-1.3c0.1,0.3,0.2,0.5,0.3,0.7
		c-0.2,0.3-0.4,0.4-0.6,0.7C197.1,17,196.8,17.6,196.8,17.8L196.8,17.8z M197.9,15.2c0.3-0.2,0.6-0.4,1-0.4c0.1,0.4,0.2,0.4,0.3,0.8
		c-0.5,0.1-0.4,0.3-1,0.3C198.2,15.6,198.1,15.5,197.9,15.2z M200.7,15.3c-0.4,0-0.8,0.1-1.1,0.2c-0.2-0.3-0.4-0.6-0.4-1
		c0.5-0.1,2.8-1.6,3.2-1.9c0.5-0.3,0.9-0.6,1.4-1.1c0.3-0.2,0.4-0.3,0.7-0.6c0.2-0.2,0.4-0.4,0.7-0.6c0.3,0.5,1.1,3.4,1.3,4.2
		c0.2,0.7,0.4,1.3,0.6,2c0.2,0.7,0.5,1.4,0.6,2.2c-1.2,0.1-5.2,2.2-5.6,2.2c0-1,0.7-0.4,0.7-2.2c0-1.2-1.3-1.6-2.5-1.6l-0.5-1
		c1.6-0.8,0.9,0.8,2.1,0.9c0-0.6-0.4-1.2-0.6-1.7c-0.4-1-0.4-1.3-1-1.3C200.4,14.6,200.7,14.8,200.7,15.3L200.7,15.3z M117.2,125.1
		c0-0.5-0.1-0.6-0.1-1l0.4,0.2l-0.2,0.6C117.3,125.1,117.3,125.1,117.2,125.1L117.2,125.1z M126.8,124.9l0.1-1.2
		c0.4,0,0.1-0.1,0.4,0.1l0.1,0.1c0,0,0,0,0,0.1l0.1,0.1C127.3,124.8,127.3,124.6,126.8,124.9L126.8,124.9z M125.7,125
		c0.1-0.3,0.1-0.3,0.3-0.5c0.2-0.3,0.1-0.3,0.3-0.5C126.1,124.8,126.4,125,125.7,125z M120.5,123.9c0.1-0.7,0.4-1.4,0.6-2.1
		c0.3,0.2,0.7,0.6,0.7,1.1C121.8,123.6,121.1,123.9,120.5,123.9z M119.5,124c-0.5,0-0.4-0.1-0.9-0.1c0.1-0.5,0.2-0.9,0.4-1.3
		c0.1-0.4,0.4-1,0.4-1.4c0.4,0,0.5,0.2,0.9,0.2C120.3,122,119.7,123.3,119.5,124z M202.5,115.2c1.1,1.6,2.3,0.5,3,0.5
		c0.8,0,1.9,1.1,2.4,1.7c1.9,2.5,1.1,6.5-2.1,8.1c-1,0.5-2,0.6-3.4,0.5c-1.5-0.2-2.9-1.1-3.7-2.4c-0.9-1.3-1.2-3.2-0.7-4.8
		c0.4-1.1,0.8-1.7,1.7-2.4C200.3,115.9,201.6,115.2,202.5,115.2L202.5,115.2z M126.8,120.2l1,0.1c0-0.3,0-0.2,0.1-0.4
		c0.2,0.1,0.3,0.2,0.6,0.3c2.3,1.7,1.9,4.7,0.3,5.9c-0.2,0.2-0.4,0.2-0.6,0.4c-1.3,0.8-2.6,0.6-3.8,0l0.3-0.4
		c0.2,0.1,0.3,0.2,0.6,0.3c0.1-0.2,0.2-0.4,0.3-0.7h0.4c0,0.4,0,0.4,0.1,0.7c0.6,0,0.6-0.2,0.6-0.7c0.4-0.1,0.7-0.2,1-0.4
		c1.1-0.9,0.4-1.7-0.5-2.3c0-0.5-0.1-0.7,0.3-0.7s0.4,0.6,0.4,1.1c0.4-0.1,0.5-0.5,0.6-1.1c0.1-0.7,0.2-0.9-0.3-1.3
		c0,0.4-0.1,0.5-0.2,0.9c-0.3,0-0.4-0.1-0.6-0.2v-1c0,0-0.3-0.1-0.3-0.2C126.8,120.3,126.8,120.3,126.8,120.2L126.8,120.2z
		 M126.7,119.5c0.3,0.1,0.2,0,0.4,0.3C126.5,119.7,126.9,119.8,126.7,119.5z M120.6,120.7c-0.3-0.1-0.6-0.2-0.9-0.2
		c0-0.5,0.3-1.1,0.4-1.7c0.3,0.1,0.6,0.2,0.9,0.3C120.9,119.7,120.6,120.2,120.6,120.7z M211.3,118.8c0.3,0,0.4,0,0.6-0.1
		c0,0.7,0.2,1.1,0.2,1.9c-0.3,0-0.3,0-0.5,0.1C211.5,120.1,211.3,119.4,211.3,118.8z M118.8,120.3c-0.3-0.2-0.4-0.2-0.7-0.4v-0.6
		c0.4-0.2,0.6-0.3,1.1-0.4C119.2,119.3,119,120,118.8,120.3L118.8,120.3z M98.9,120.1c-0.3-0.6,0.3-1.3,0.7-1.6
		c0.1,0.4,0.3,0.5-0.4,1.4C99,120,99.1,120,98.9,120.1L98.9,120.1z M212.5,118.7c0.4,0,0.8,0.3,0.8,0.7c0,0.4-0.3,0.6-0.6,0.7
		C212.7,119.7,212.6,118.9,212.5,118.7z M209.9,118.1c0-0.3,0.3-0.5,0.5-0.6c0,0.4,0.1,0.4,0.1,0.9
		C210.1,118.4,209.9,118.4,209.9,118.1z M77.6,118.1C77.5,117.9,77.6,117.7,77.6,118.1C77.6,118.1,77.6,118.3,77.6,118.1z
		 M111.9,117.5c0.2,0.1,0.2,0.1,0.5,0.2c3,2,4.3,5.5,3.6,9.1c-0.1,0.7-0.3,1.1-0.6,1.6c-0.6,1.4-1.7,2.5-2.9,3.5
		c-3.2,2.4-8.2,2-11-0.8c-0.8-0.8-1.2-1.2-1.8-2.3c-2.2-4.1-0.4-8.8,2.3-10.8c1.9-1.4,3.6-1.8,6-1.8c0.8,1.5,1.5,1.7,3.5,2.2
		C112.4,118.6,112,118,111.9,117.5z M127.4,119.5c-0.3-0.1-0.9-0.5-0.9-0.9c0-0.5,0.5-2.2,1.6-2.2c0.3,0.6,0.5,1,1.2,1.2
		c-0.1,0.2-0.2,0.4-0.3,0.6s-0.4,0.3-0.5,0.5L127.4,119.5L127.4,119.5z M100.6,118c0-0.4,0-0.4,0.5-0.4
		C100.9,117.8,100.9,117.9,100.6,118z M211.3,117.1h0.3c0,0.3,0.1,0.8,0.2,1c-0.2,0.1-0.4,0.1-0.6,0.2c-0.1-0.2-0.1-0.4-0.2-0.7
		C211,117.3,210.9,117.1,211.3,117.1z M123.3,116.1c2.3,1.5,3.2,3.6,2.7,6.4c-0.6,3-4.1,5.4-7.5,4.4c-0.8-0.2-1.1-0.5-1.4-0.6v-0.8
		c1.3,0.8,0.9-0.8,1.3-0.8c0.3,0,0.4,0.1,0.7,0.1c0,0.4-0.1,0.5-0.1,1.1c1.3,0.3,0.3-0.7,1.6-1.1c0.7-0.2,1.2-0.3,1.7-0.8
		c0.9-1,0.3-2.4-0.9-3.2c0.1-0.3,0.3-1,0.4-1.3c0.3,0.2,0.6,0.3,0.9,0.5c0,0.9-0.4,0.9,0,1.7c0.5-0.1,0.5-0.5,0.8-1.4
		c0.4-1.3,0.8-1.8,0.2-2.2c-0.4,0.3-0.5,0.6-0.6,1.2c-0.5,0-0.6-0.3-1.1-0.4c0.2-0.7,0.6-1.9-0.1-1.9c-0.4,0-0.7,1-0.7,1.5
		c-0.2-0.1-0.2-0.1-0.4-0.2c-0.3-0.1-0.3,0-0.4-0.2c-0.2-0.5,0.8-1.4-0.5-1.4c-0.4,0.6-0.3,0.9-0.5,1.3c-3.4,0-2.6,2.6-0.8,2.8
		c-0.1,0.8-0.6,1.6-0.7,2.4c-0.8-0.1-1.1-0.8-1.2-1.4c0.2-0.1,0.7-0.1,0.5-0.5c-0.1-0.3-0.4-0.4-0.8-0.4l-1.6-2.6
		c0-1.1,2.6-3.3,5.2-3.3h0.5c0.7,1.3,1.7,1.3,2.9,1.6C123.4,116.4,123.3,116.5,123.3,116.1L123.3,116.1z M108.7,116l0.1-0.6
		c0.5,0.1,1.7,1.6,2,2.1C110,117.4,108.7,116.8,108.7,116z M60.6,116.8h-0.4c0-0.7,0.1-1,0.5-1.3C61,116,60.7,116.2,60.6,116.8
		L60.6,116.8z M206.8,115.5c0.2-0.1,0.3-0.1,0.6-0.1c0,0.4,0.1,0.3,0.1,0.7L206.8,115.5z M122.4,116c-1.1,0-1.3-0.6-1.3-1.4
		C121.5,114.7,122.2,115.6,122.4,116z M203,114.9l1.2,0.4c0.4,0.2,0.1-0.1,0.4,0.2c-0.4,0-0.9,0.3-1.3-0.1
		C203,115.2,203.1,115.1,203,114.9z M212.2,114.4c0.8,0.2,1.2,0.3,1.9,0.8c0.1,0.1,0.2,0.1,0.3,0.2c1.6,1.2,1.9,3.7,0.7,5.4
		c-0.4,0.6-0.8,0.9-1.5,1.3c-0.5,0.3-1.7,0.6-2.1,0.5c-1-0.1-1.3-0.3-2.1-0.7c0-0.4,0.1-0.5,0.1-1c0.4,0.1,1.2,0.3,1.5,0.4
		c0.1,0.2,0.1,0.8,0.4,0.8c0.4,0,0.3-0.5,0.3-0.9c1.1-0.3,0.3,0.5,0.9,0.5c0.4,0,0.3-0.5,0.3-0.9c1.6-1.1,1.2-2.3,0.1-2.8
		c-0.8-0.3-0.5,0.2-0.8-1h0.7c0.2,0.5,0.1,0.8,0.7,1c0-0.7,0-2.3-0.7-2.5c-0.2,0.3-0.1,0.6,0,0.9h-0.8c-0.1-0.5-0.1-0.7-0.5-1
		c-0.5,0.3-0.2,0.5-0.2,1.1c-0.3,0-0.3,0-0.5,0.1c0-0.2-0.2-0.8-0.4-0.8c-0.5,0-0.3,0.4-0.3,1c-1.1,0.7-1,0.7-1,1.6
		c0.7,0.4,0.2,0.5,1.5,0.5c0,0.6,0.2,1,0.2,1.6c-0.6,0-0.7,0-1.1-0.3c0.1-0.3,0.2-0.4,0.3-0.6c-0.2-0.1-0.4-0.2-0.7-0.2
		c0-0.4-0.4-1.3-0.6-1.6c-0.3-0.5-0.6-0.9-0.8-1.4l0.8-1c1.5-1.5,1.2,0,3-0.6c0.4-0.1,0.3,0,0.3-0.4c0,0,0,0,0-0.1
		C212.2,114.3,212.2,114.8,212.2,114.4L212.2,114.4z M210.3,114.2c0.4,0.1,0.5,0.3,1,0.3v0.2h-0.7
		C210.5,114.5,210.4,114.4,210.3,114.2z M212.3,113.8c1.4-0.3,5-1.8,6.6-1.8c0,0.5,0.4,1.5,0.6,2l2.7,7.8c0.1,0.4,0.2,0.6,0.3,0.9
		l1.7,5c0,0.7-6,4-8.3,4l-2.8-8.9c1-0.2,2.4-1.6,2.8-2.6c0.5-1.3,0.4-3.1-0.4-4.3c-0.5-0.7-0.9-1-1.7-1.5
		C213,114.1,212.5,114.1,212.3,113.8L212.3,113.8z M122.8,115.6c-0.2-0.1-1.4-1.4-1.4-1.5c0-0.3,0.8-1.7,1-2.1l0.7-0.9
		c0.5-0.4,0.8-0.4,1.5-0.4c0.3,0.7,0.1,0.7,0.5,1.4c0.2,0.4,1.1,0.7,1.1,0.9c0,1.1-2.3,1.7-3,2.2
		C122.9,115.4,123.1,115.3,122.8,115.6L122.8,115.6z M111.2,116.8l-2-2.2c0.1-0.3,0.2-0.5,0.3-0.8c0.1-0.3,0.2-0.5,0.4-0.8
		c0.7-1.6,1.9-3.3,3.9-3.3c0.8,1.2,0,1.7,1.5,2.7c0.2,0.1,0.9,0.4,0.9,0.6c0,0.9-1.5,1.8-2.2,2.2c-0.5,0.2-1.1,0.4-1.6,0.6
		C111.8,116.3,111.8,116.5,111.2,116.8L111.2,116.8z M77.5,112.9c0.9,0.1,1.9,0.8,2.4,1.3c1.4,1.8,1.4,3.5,0,5.4
		c-0.2,0.3-0.7,0.6-1,0.9c-0.3,0.2-0.9,0.5-1.4,0.5c0-2.6,1.1-1.5,1.1-3.1c0-1-1.4-0.9-1.4-2.3c0.5,0,0.5-0.1,0.7,0.1
		c0.3,0.6-0.2,1,0.6,1.1l0.1-1.5c0-0.5,0.3-1-0.4-1.1c-0.1,1-0.2,0.9-0.7,0.9s-0.2-0.6-0.5-1.3c-0.5,0-0.2-0.1-0.7,0.4
		c-0.1-0.4-0.1-0.3-0.4-0.5c-0.2-0.2-0.3-0.3-0.3-0.6c1,0.5,1.5,0.2,2,0.2C77.5,113.1,77.6,113.1,77.5,112.9L77.5,112.9z
		 M101.5,112.5c0.8,0,1.5,0,2.2,0.1c1.4,0.3,4,1.6,4.3,2.6c-1.3,0-3,0.4-3.4,0.4c-0.2-0.9-0.4-1.3-1.1-1.3c-0.3,1.1,0.2,0.8,0.2,1.6
		c0,0.3-1.1,0.4-1.4,0.5c0-0.2-0.6-1.9-1.1-1.9c-0.2,0-0.1,0-0.4,0.1c-0.4,0.9,0.3,1.1,0.4,2.1c-0.4,0.1-0.5,0.3-1.1,0.3
		c-0.5-2-1.7-1.6-1.3-0.5l0.4,1.1c-1.3,0.9-2.5,2.5-0.7,3.7c-0.5,1.1-0.7,2.5-0.7,3.9c0,0.6,0.1,0.6,0.1,1.1c-0.7-0.4-0.8-0.4-1.3-1
		c-2.5-2.5-2.7-6.9-0.6-9.7c0.2-0.3,0.4-0.4,0.6-0.7c0.1-0.2,1.2-1.1,1.4-1.1c0.3,0,0.9,0.7,2.8,0c0.5-0.2,0.9-0.3,1.1-0.7
		c-0.1-0.2-0.1-0.1-0.2-0.3c0,0-0.1-0.1-0.2-0.1L101.5,112.5L101.5,112.5z M98.1,112.6l2.6,0.5c-0.5,0.4-1,0.4-1.7,0.4
		S98.3,113,98.1,112.6L98.1,112.6z M197.1,113.9c0.4,0.5,1.3,2,1.3,2.8c0,0.3-0.7,1.2-1,2c-0.2,0.5-0.2,0.7-0.3,1.2
		c-0.2,1,0.5,1.4-1.8,2.7c-2.3,1.3-5.8,0.6-7.5-1.8c-1-1.5-1.4-3.7-0.6-5.4c0.6-1.2,1.2-2.1,2.5-2.8c0.5-0.3,1.4-0.7,2.1-0.7
		c0.4,0,0.2,0.4,1.2,0.7c0.5,0.2,1.1,0.3,1.7,0.3c0.2,0,0.1-0.1,0.1-0.2 M75.5,112.2c0.3,0.2,0.9,0.5,1.1,0.7
		C75.5,112.9,75.7,112.8,75.5,112.2z M211.5,114.2c-0.5,0-0.8-0.3-1.3-0.4c0-1-0.2-1.7,0.3-2.5c0.9-1.5,0.5,0.2,2,0.2h0.3
		c0,0.9-0.1,0.9-0.5,1.6C212,113.5,211.7,113.7,211.5,114.2L211.5,114.2z M157.8,114.2l2-6.2c0.2,0.1,2,0.8,2.2,1.1
		c0.8,0.8,2,3.6-0.8,4.7C160.1,114.2,159.3,114.2,157.8,114.2L157.8,114.2z M71.6,111.7c2,0,4,2.7,4.7,4.6c0.7,2,0.6,3.9-0.3,5.9
		c-0.1,0.2-0.1,0.2-0.2,0.3c-0.6,1-1.3,1.8-2.3,2.5c-3.1,2.1-7.4,1.9-10.1-0.8c-0.2-0.2-0.2-0.3-0.4-0.5c-0.4-0.4-0.9-1.1-1.1-1.6
		c-1.1-2.5-1-5.3,0.5-7.6c0.3-0.4,0.5-0.6,0.8-1c0.9-1.1,3.2-2.3,4.7-2.3c0.8,1.1,1.9,1.3,3.5,1.3C72.1,112.5,71.7,112,71.6,111.7
		L71.6,111.7z M192.5,111.2c0.7,0.4,0.8,0.5,1.3,0.9l0.2,0.2C193,112.3,192.5,112.1,192.5,111.2L192.5,111.2z M221,111.4
		c1.8-0.4,2.8-0.1,4.6,0.7c0.9,0.4,2.8,1.6,3.4,2.5c0.1,0.2,0.1,0.1,0.2,0.3c3,3.2,0.3,8.1-2.3,10.6c-0.4,0.4-0.5,0.6-0.9,0.7
		c-0.1-0.6-0.4-1.3-0.6-1.8l-1.3-3.7c-0.2-0.6-0.4-1.2-0.6-1.9C223,117.6,221.3,112,221,111.4z M59.1,110.9c0.6,0.1,1.3,0.2,2,0.2
		l-0.5,0.3c-0.4,0.2-0.8,0.3-1.2,0l-0.2-0.2C59.1,110.9,59.3,111.2,59.1,110.9L59.1,110.9z M202.4,110.4c0-0.4,0-0.6,0.2-0.9
		c0.6,0,0.7,0.1,1.3,0.1c0.9,0,1-0.7,1.7-0.7c0.9,0,0.8,1.9,0.8,2.4c0,0.7-0.5,2-0.8,2.7c-0.1,0.4-0.2,0.5-0.3,0.9
		c-0.5-0.1-1.5-0.4-2-0.4c0.1-0.7,0.4-0.8-0.2-2.1C202.8,111.8,202.4,111.2,202.4,110.4L202.4,110.4z M68.5,110.7
		c0-0.3,0-0.3,0.1-0.5l1.5,1.1c0.3,0.2,0.3,0.1,0.4,0.5C69.6,111.8,68.5,111.5,68.5,110.7L68.5,110.7z M61.8,110.6
		c2.2-0.2,0.8-0.3,3.5,0.3v0.2c-0.4,0.1-0.8,0.4-1.2,0.6c-0.2,0.1-0.4,0.1-0.5,0.1c-0.4,0.2-0.1,0.6-1.1,1.3
		c-0.7-1.1-0.5-0.9-1.2-0.8c0,0.9,0.4,1,0.5,1.6c-0.1,0.1-0.5,0.3-0.7,0.3c-0.3,0-0.4-1-0.9-1c-0.9,0,0,1.3,0.1,1.5
		c-0.3,0.5-1.7,1.7-0.8,2.7c0.2,0.2,0.5,0.4,0.8,0.4c0,2-0.7,1.3-0.2,2.3l0.7,1.5c0.1,0.2,0.1,0.3,0.2,0.6c-0.7-0.2-2.1-1-2.6-1.5
		c-0.2-0.2-0.1-0.1-0.2-0.3c-0.6-0.8-1-1.4-1.2-2.5c-0.5-2.3,0-3.8,1.4-5.4c0.1-0.1,0.2-0.2,0.2-0.3c0.9-0.9,0.8,0.8,3.5-1.1
		L61.8,110.6L61.8,110.6z M76.9,112.5c-0.3,0-0.8-0.5-1.3-0.6c0-0.6,0.2-1.5,0.4-1.9c0.7-1.5,1.5-1.1,2.3-0.7
		c0.2,0.1,0.4,0.1,0.5,0.2c0.9,0.9-1,2.2-1.3,2.4C77.4,112,77,112.5,76.9,112.5L76.9,112.5z M194.2,111.9c-0.2-0.2-0.5-0.4-0.7-0.6
		c-0.3-0.2-0.5-0.4-0.9-0.5c0-0.8,0.3-1.9,0.6-2.5s0.8-1.4,1.7-1.4c0.4,0,0.3,1.1,1.4,1.5c0.5,0.2,1,0.1,0.2,1.3
		C196,110.4,194.5,110.9,194.2,111.9L194.2,111.9z M203.8,109.1c-0.8,0-1.2-0.6-1.7,0.3c-0.4,0.8,0,1.8,0,2.4
		c-1.5,0-2.1,0.1-3.4-0.7c-1.8-1-1.1-3.1-0.5-4.7c0.8-1.8,2.1-3.1,3.5-4.4l0.9-0.7c0,0.4,0.9,2.9,1.2,3.5l1.2,3.5
		C204.7,108.7,204.4,109.1,203.8,109.1L203.8,109.1z M98,112c-0.1-0.9-1.1-3.4-0.1-5.1c0.1-0.3,0.5-0.6,0.8-0.7s0.6,0.3,0.9,0.5
		c0.8,0.8,1.3,0.4,2.5,0.4c0.4,0.8,0.1,2.1-0.3,2.8 M138.1,107c1,0,0.8,0.7,0.7,1.2l-2.4-0.2C136.6,107.5,137.9,107,138.1,107z
		 M157,114.1c-0.2-0.1-1-0.4-1.3-0.4c0-0.4,1.3-4.1,1.6-4.7c0.1-0.4,0.5-1.3,0.5-1.7c0.5,0,0.8,0.3,1.3,0.4l-1.1,3.1
		C157.7,111.9,157.2,113,157,114.1L157,114.1z M139.4,108.4c-0.2-1.9-0.3-1,4.7-1c0.8,0,0.9-0.1,1.4,0.2c-0.1,0.6-0.4,0.5-1.2,0.5
		C143.4,108.1,140.5,108.4,139.4,108.4L139.4,108.4z M61,110.6l-2-0.1c-0.4-0.8-1.2-3-0.6-4.1c0.7-1.4,1,0,1.9,0l1.4-0.1
		C62.5,107.9,61,108.8,61,110.6L61,110.6z M71,111.2c-0.6-0.3-1.5-1.1-2.2-1.5c0-1.3,0.7-3.6,1.6-4.4c0.2-0.2,0.3-0.3,0.5-0.5
		c0.7-0.4,1.1-0.5,1.4,0.3c0.2,0.5,0.2,0.5,0.5,0.9c1,1,1.7,0.4,1.7,1.2c0,0.4-0.4,0.9-0.6,1.2c-1.1,1.3-1.3,0.9-2.1,1.7
		C71.4,110.4,71,110.7,71,111.2L71,111.2z M138.1,105.6c0-0.9-0.1-1,0.4-1c0.4,0,0.3,0.4,0.3,1.3c0,0.3-0.1,0.3-0.3,0.4
		C138.3,106.1,138.1,106,138.1,105.6z M90.9,105.2c0-0.7,0.4-2.2,1.1-2.7c1-0.6,2,0.7,2,1.6c0,1.1,0.2,2.3-1.3,2.3
		c-0.6,0-1.3-0.2-1.6-0.6C91,105.7,90.9,105.4,90.9,105.2L90.9,105.2z M85.9,104.9c0-0.9,0.2-1.4,1-2.1c0.3-0.3,0.3-0.2,0.5-0.4
		c0.7,0.2,2.8,2.1,1.5,3.7C87.7,107.5,85.9,106.3,85.9,104.9L85.9,104.9z M145.4,106.6h-5.7c-0.5,0-0.3-0.8-0.3-2.1
		c2.1,0,1.5-0.2,4,0.1c1.1,0.2,2.4,0.2,3.7,0.2C147.1,105.8,146.4,106.6,145.4,106.6z M184.4,106.7c-3.2,0-2.3-6.8-0.1-6.8
		c2.4,0,3.5,4.1,1.1,6.3C185.2,106.4,184.7,106.7,184.4,106.7z M119.3,106.4c-3.5,0-2.8-4.5-1-5.8c2.4-1.7,3.2,1.5,3,2.6
		c-0.1,0.7-0.3,1.5-0.6,2C120.4,105.7,120,106.4,119.3,106.4L119.3,106.4z M159.6,106.1c-0.4,0-0.8-0.2-1.2-0.3
		c0.1-0.7,1.1-3.1,1.2-3.9c0.5,0,0.7,0.2,1.2,0.2C160.5,103.5,159.9,104.7,159.6,106.1L159.6,106.1z M144.7,103.7h-5
		c-0.6-2.4-0.9-2,3.7-2c0.8,0,1.2-0.1,2-0.1c0.7,0,1.5,0,2.2,0c0.5,0,1.6-0.1,1.7,0.4c0,0.4-0.5,1.1-0.8,1.4c-0.8,0.7-2,0.3-2.7,0.3
		C145.5,103.7,145.1,103.7,144.7,103.7L144.7,103.7z M157.3,105.3c-0.7-0.2-3.7-1.8-0.9-3.1c0.7-0.3,1.1-0.4,2-0.4
		c-0.1,0.6-0.4,1.1-0.6,1.7c-0.1,0.3-0.1,0.5-0.2,0.8C157.5,104.7,157.4,105,157.3,105.3L157.3,105.3z M90,104.4
		c-0.4-0.1-0.3-0.3-0.8-1.2c-0.2-0.3-0.2-0.4-0.5-0.5c-0.6-0.5-1.1-0.2,0.6-2.5c0.4-0.5,1.1-1.2,1.7-1.5l0.7,3.1
		C90.9,102,90.2,103.8,90,104.4L90,104.4z M140.5,100.3c0-1-0.1-1.3,0.4-1.7c0.5,0.3,0.3,1.2,0.3,2.2
		C140.8,100.9,140.5,100.9,140.5,100.3z M205.4,99.7l1.7-0.8c0.6-0.2,1.3-0.5,1.9-0.7c1.2-0.4,3.2-0.9,4.5-0.9l1.6,4.3
		c0.1,0.3,0.1,0.3,0.3,0.6l1.3,3.7c0.1,0.4,0.4,0.8,0.4,1.3l-5.9,2.4c-0.7,0.2-1.5,0.4-2.1,0.7c-0.2-0.4-0.3-0.9-0.5-1.3L205.4,99.7
		z M52.7,104.9c0-0.4,0.3-1,0.4-1.4c0.2-0.5,0.3-0.9,0.4-1.4c0.3-1,0.6-1.9,0.9-2.8l1.9-5.7h1l0.7,1c2.4,4.5,1.1,8.7-4.1,10
		C53.7,104.7,53,104.8,52.7,104.9L52.7,104.9z M149.1,100.9H142c-0.7,0-0.4-1.9-0.3-2.3c1.1-0.3,7-0.1,9.1-0.1l-0.5,1.5
		C150,100.6,149.9,100.9,149.1,100.9L149.1,100.9z M187.3,99.9c-0.1-0.1-0.3-0.1-0.4-0.2c-0.5-0.5-0.2-2.3-0.1-2.8
		c0.1-0.7,0.1-1.4,0.3-2c0.6,0.4,0.4,1.2,0.4,2.6C187.4,98.4,187.3,99,187.3,99.9L187.3,99.9z M87.3,102.1c-0.4-0.2-0.2,0-0.4-0.3
		c-0.6-0.8,0.4-2,1.3-3.1l1.7-2.3l2.9,0.1c0,0.5,0.1,0.6,0.1,1.2v2.6c0.1,0.7,0.2,0.4-0.1,1.1c-1,0-0.7-0.5-0.9-1.9
		c-0.1-0.8-0.5-1.2-0.9-1.7c-1,0.5-1.2,1-2.1,1.9c-0.2,0.2-0.3,0.4-0.4,0.6l-0.7,1.2C87.6,101.9,87.7,101.9,87.3,102.1L87.3,102.1z
		 M147.1,107.1c0.1-0.3,0.3-0.5,0.4-0.7c1-1.6,2.1-3.2,3.2-4.9c0.6-0.9,1-2.3,1.2-3.4c0.2-0.9,0.5-3.3,0.5-4.2
		c0.9,0.5,1,0.8,1.5,1.4c0.7,0.7,0.9,0.7,0.6,2c-0.5,2.6-2.2,5.5-4.1,7.4c-0.7,0.7-1.5,1.5-2.3,2.1
		C147.8,107,147.8,107.1,147.1,107.1L147.1,107.1z M151.1,97.5c-0.8,0-1.4,0.1-2.3,0.1c-0.8,0-1.6,0-2.4,0c-1.2,0-3.7,0.3-4.5,0.1
		v-1.3c0.8-0.4,1.6-0.3,2.3-0.2c0.4,0,0.5-0.1,1-0.1l4-0.2c0.9-0.1,1.1-0.2,2.2-0.2C151.7,96.3,151.5,97,151.1,97.5L151.1,97.5z
		 M203.8,95.4h2l-1.7,0.7C204,95.9,203.9,95.7,203.8,95.4z M120.4,98l0.1,1c-1.9,0-1.9-0.3-2.3-1l-0.9-2.5c1.1-0.5,3.2-0.2,4-0.2
		c-0.1,0.3-0.2,0.3-0.3,0.6C120.6,96.4,120.4,97.3,120.4,98L120.4,98z M141.1,97.8h-1c-0.5,0.7-0.3,1.5-0.3,2.9
		c-0.6,0.3-0.8,0.2-1,1c-0.1,0.3,0.1,1.6-0.1,1.9c-0.5,0.7-1.3-0.6-1.3,2.9c-0.7,0.5-1.9,1.3-2.8,1.3l-0.3-0.3
		c0.1-0.2,0.1-0.1,0.2-0.3c0.1-0.2,0.1-0.2,0.3-0.3c0.1-0.1,0.2-0.2,0.3-0.3l2.3-3.1c0.6-1.1,1-2.3,1.4-3.4l0.8-1.7
		c0.3-0.8,0.9-3.1,0.9-4c0.4,0.2,0.5,0.6,1.3,1.1c-0.8,1.6-0.3,0.1-0.5,1.8C141.2,97.4,141.1,97.4,141.1,97.8L141.1,97.8z M183,94.7
		v-0.4c1,0,0.7,0.9,0.3,1.2C183.2,95.3,183,95.1,183,94.7z M136.5,103.2c-0.4-0.3-3.6-4.6-4-5.2l2.3-3.9c0.3-0.4,0.3-0.5,0.9-0.6
		c0.3-0.1,1.1-0.2,1.4-0.2c0.5,0,0.9,0,1.5-0.1c1.2-0.2,1.1-0.1,1.1,0.9c0,0.9-0.2,1.9-0.4,2.6c-0.2,0.8-0.7,1.9-1.1,2.7
		c-0.1,0.2-0.1,0.4-0.2,0.6l-1,2.1C136.9,102.6,136.6,102.8,136.5,103.2L136.5,103.2z M88.3,94.6c1.5,0,2.7-0.1,4.3-0.1
		c1.2,0,9.3-0.1,10.5,0.1c0.3,0.1,0.5,0.1,1,0.1c0.7,0,2.1,0.2,3.4,0.2V95c-0.2,0-0.6,0-0.8,0c-0.4,0-0.3,0.1-0.8,0.1s-1.2,0-1.7,0
		c-0.8,0.1-0.3,0.1-1.6,0.1c-0.7,0-1.1,0.1-1.7,0.1c-2.8,0-7.5,0.4-10.4,0C89.6,95.2,88.8,95.3,88.3,94.6L88.3,94.6z M143,95.4v-2.5
		l8.5-0.5c0.3,0.6,0.2,1.2,0.2,2c-1.1,0.8-7.1,1.2-7.5,1.2C143.9,95.6,143.4,95.4,143,95.4L143,95.4z M155.1,95.1
		c-0.3-0.2-0.9-0.6-1-1c0.5-0.1,1.1-0.4,2,0C155.7,94.6,155.6,94.8,155.1,95.1L155.1,95.1z M43.4,102.7c-0.8-0.2-2.7-2.5-3.3-3.2
		c-0.5-0.6-2.3-3.5-2.3-4.3c0-1,0.4-1.1,0.6-1.5c2.8,0,5.4-0.1,8.2-0.1l-2,5.6c0,0.1,0,0.2-0.1,0.3v0.1l-0.1,0.2
		c-0.1,0.2-0.1,0.4-0.2,0.6C44,100.8,43.4,102.3,43.4,102.7L43.4,102.7z M51,105.1c-1.3,0-2.2,0-3.3-0.2c-1.3-0.3-1.8-0.7-2.6-0.9
		c0.2-0.7,0.4-1.2,0.6-1.9l2.6-7.5c0.1-0.2,0.1-0.2,0.2-0.4c0.3-0.9,0.1-0.8,1.2-0.8c1.7,0,3.4,0,5.1,0L51,105.1z M182.4,93
		c0-0.6,0-0.5,0.9-0.5c0.3,0,0.4,0.1,0.6,0.2c0,0.7,0,0.4-0.3,0.8c-0.8,0-0.7,0.1-1.2-0.3V93L182.4,93z M140.6,93
		c0.6,0,0.8-0.1,1.4-0.1v1.3c-0.5-0.1-0.5-0.2-0.8-0.5C141,93.5,140.8,93.3,140.6,93L140.6,93z M152.8,92.3l1.6-0.1
		c0.4-0.1,1.1-0.1,1.6-0.1c2.2-0.4,3.6,0.2,4.6,0.2c0.5,0,1.1-0.1,1.7,0c0.9,0.2,6.9,0,8.5,0.1c0.6,0,0.9,0.1,1.6,0.1h4.9
		c1.1,0.2,1.3,0.1,1.3,0.8c-3.2,0-4,0.2-7.3,0l-1.7-0.2c-1.2-0.2-2.5,0.1-3.6-0.1l-1.7-0.1c-1.1,0-1.2,0.1-1.8,0.1
		c-3,0.1-5.9,0.1-8.9,0.1C152.9,93,152.8,92.5,152.8,92.3L152.8,92.3z M187.4,91.8c0.5-0.3,2.9-0.3,3.7-0.3c1.2,0,1.8,0.1,2.8,0.2
		c0.9,0.1,2.1,0,3,0c2.1,0,3.8,0.1,5.9,0.1c1.6,0,8.1-0.4,9.4,1c0.4,0.4,0.5,0.7,0.5,1.2c-0.2,0.1-0.4,0.2-0.8,0.2
		c-2.1,0-7.1,0.1-9.1-0.1c-2.4-0.3-9-0.2-11.3-0.2c-1.4,0-3.1,0.1-4.4-0.2V93c0.6-0.3,0.3-0.2,0.9-0.1c0.4,0,0.9,0,1.3,0
		c0.6,0,0.7,0.1,1.2,0.1c2.3,0,5.5-0.1,7.6,0c0.5,0,0.6,0.1,1.2,0.1h11.2c0.5,0,0.4-0.1,0.9-0.1c-0.5-0.7-1.3-0.6-2.5-0.6h-15.4
		c-1.5,0-4.9,0.2-6.1-0.1L187.4,91.8L187.4,91.8z M181.9,91.3c0.5,0,1.8,0.1,2.1,0.2v0.4c-0.7,0.1-1.1,0.2-2.1,0V91.3z M161.2,91.8
		c1.7,0,3.3-0.2,4.9-0.4l3.7-0.3c1.6-0.3,1.8,0.2,3,0.2h2.7c0.4,0,1.6-0.2,2.1-0.1c0.3,0.1,0.3,0.4,0.4,0.7c-1.4,0-3,0.2-4.6,0.2
		c-2.1,0-3.9-0.1-6.1-0.1c-1,0-1.9-0.1-3-0.1C163.2,91.9,162.2,91.9,161.2,91.8L161.2,91.8L161.2,91.8z M136.3,92.5
		c-0.8,0,0.4-1.9,0.5-2.2l3.1-5.5c0,1,1.2,4.3,1.6,5.3l0.7,1.7C141.4,92.2,137.3,92.5,136.3,92.5L136.3,92.5z M36.7,92v-0.5
		c0.9-0.2,1.2-0.3,2.3-0.3l3.8-0.2c0.4,0,0.9,0,1.3,0l5-0.3c0.4,0,0.9,0,1.3,0l3.8-0.2c0.8,0,1.9,0.1,2.7,0c1.6-0.1,2.2-0.1,3.8-0.1
		c0.6,0,0.7-0.1,1.3-0.1c0.9,0,1.7,0,2.6,0c1,0,1.7-0.1,2.6-0.1s1.7,0,2.6,0c1,0,1.6-0.1,2.6-0.1c0.9,0,1.7,0,2.6,0
		c1,0,1.6-0.1,2.6-0.1c1.4,0,4.1,0.1,5.2-0.1c1.4-0.2,3.7,0.1,5.1,0.1c1.8,0,3.5,0,5.3,0s3.3,0.1,5.2,0.1c5.1,0,8.1-0.1,12.7,0.4
		c1.1,0.1,4.5,0.6,5.2,1.4c0.4,0.5,0.8,1.8,0,2c-0.8,0.3-6,0.1-7.2,0.1c-0.7,0-1.1-0.1-1.9-0.1h-4.8c-0.4,0-0.4-0.1-0.9-0.1
		c-0.7,0-1.3,0-2,0l-3.7-0.2c-0.5-0.1-1.3,0-1.9,0c-0.5,0-0.4-0.1-0.9-0.1c-0.3,0-0.7,0-1,0l-3.7-0.2c-0.5-0.1-1.3,0-1.9,0
		c-0.5,0-0.4-0.1-0.9-0.1h-2.9c-0.7,0-1-0.1-1.8-0.1c-2.3,0-5.4,0.1-7.5-0.3c-0.6-0.1-1.1-0.1-1.7-0.2c-1-0.1-4.6-0.2-5.7-0.2
		c-0.6,0-1.3,0-1.9,0c-0.5,0-0.5-0.1-0.9-0.1c-1.2-0.1-4.9,0.1-6.7-0.1C55,92.1,46,92.4,43.6,92.5c-0.8,0.1-0.3,0.1-1.6,0.1
		l-4.2-0.2l4.7-0.5c1.7,0,2.9-0.2,5.1-0.2c0.6,0,1.2,0,1.8,0s1-0.1,1.7-0.1c1.2,0,2.1-0.1,3.4-0.1c1.2,0,2.4,0,3.6,0
		c0.6,0,0.9-0.1,1.6-0.1h15.4c1,0,1.7,0.1,2.7,0.1c1.9,0,3.5,0.1,5.5,0.1c3.7,0,7.1,0.3,10.8,0.3c1.8,0,3.7-0.1,5.5,0l5.4,0.2
		c3.7,0,7.2,0.3,10.9,0.3c-0.5-1,0-0.6-1.4-0.7c-0.4,0-0.2-0.1-0.6-0.1c-0.8-0.1-2,0-2.9,0c-1,0-1.7-0.1-2.8-0.1
		c-5.7,0-11.3-0.2-17-0.2c-1,0-1.7-0.1-2.8-0.1h-4.3c-0.6,0-0.8-0.1-1.4-0.1c-1.8,0-4.1,0.1-5.7-0.1c-3.2-0.5-13.6-0.3-17.7-0.3
		c-0.7,0-1,0.1-1.6,0.1l-8.2,0.3c-1.2,0-1,0.1-1.6,0.1c-0.5,0-1.1-0.1-1.7,0c-0.7,0.1-1.7,0-2.4,0.1c-0.4,0-0.4,0.1-0.8,0.1
		C41.7,91.5,37.4,91.6,36.7,92L36.7,92z M181.6,90.6v-0.7c0.5,0,1-0.1,1.5-0.1c1.1-0.1,1.3-0.4,1.3,0.6
		C183.8,90.6,182.3,90.7,181.6,90.6z M178.1,90.3c3-0.7,2.5,0.1,3.8,3.9c0.3,0.8,0.5,1.5,0.8,2.3c0.8,2.4,1.1,2.6,0,2.9
		c0,0,0-0.1-0.1,0l-0.2-0.1c-0.1-0.1-0.1-0.1-0.2-0.2c-0.1-0.2-0.2-0.4-0.3-0.6L178.1,90.3z M185.6,98.5c-0.5,0-0.5,0.2-1.3-0.2
		c0-0.6,0-0.9-0.1-1.4c-0.1-1.1,0.7-5.4,0.9-6.6c0.3-1.5,0.6-1.3,1.6-1.3c0,0.4,0.1,0.2,0.1,0.5c0,0.8-0.6,2.8-0.7,4.4
		C186.1,95.8,185.7,97.1,185.6,98.5z M141.6,88.1c1.8,0.4,2.4,0.2,2.4,1.7c-0.3,0.2-0.3,0.4-0.8,0.4C142.2,90.2,142,88.9,141.6,88.1
		L141.6,88.1z M147.6,87.6c0-0.4-0.1-1.1,0.7-1.1c0.2,0,0.8,0.4,0.8,0.9C148.4,87.4,148.7,87.7,147.6,87.6z M141.8,86.9
		c0-0.9,1.7-0.3,2-0.2c1.2,0.4,0.8,0.3,1.4,2.5c0.2,1,1,2.1-0.4,2.4c-0.4,0.1-1,0.2-1.5,0.2c-0.7-1.4-0.5-0.6,0.6-1.1
		c0.3-0.1,0.5-0.3,0.7-0.5c0.7-1,0.3-2.2-0.6-2.5c-0.4-0.1-0.6-0.1-1-0.2c-0.3,0-0.7-0.1-1-0.2C141.9,87.1,141.8,87.1,141.8,86.9
		L141.8,86.9z M63.6,89.6h-4.1c-0.3,0-0.4-0.1-0.7-0.3c-0.3-0.1-0.6-0.2-0.9-0.2c0.2-0.7,0.3-1.2,0.6-1.8c0.3-0.8,1.7-5.2,1.7-5.6
		c0.4,0.1,0.9,0.6,1.2,0.8l2.4,1.6c1.3,0.9,0.7,2.5,0.3,3.7L63.6,89.6L63.6,89.6z M146.8,87.1c0,1.6,1.5,1.2,2.7,1.1
		c0.1,0.4,0.2,0.5,0.3,0.9c-0.9,0-1-0.2-1.9-0.2c0.1,0.8,0.9,1.1,1.7,1.2c0.9,0.1,0.8,0.2,1.6,1.3c-2.2,0-3.8,0.7-4.7-1.2
		c-0.7-1.4-0.7-1.7-0.7-3.2c0-0.7,0.1-1.2,0.4-1.6c0.9-1.5,1.5-1,2.3-0.5v0.8C147.6,85.7,146.8,86.3,146.8,87.1L146.8,87.1z
		 M74.2,84c0-1.3,1.7-3.6,2.7-4.3l0.2,2.2c0.2,1.4,0.9,2.3,1.8,3.2c0.5,0.5,1.2,0.9,1.4,1.1c-1.9,0.2-1,0.1-2.9,0
		c-1-0.1-1.9-0.4-2.5-1.1C74.6,84.9,74.2,84.3,74.2,84L74.2,84z M117.9,94.3h-0.5c0-0.9,0.6-2.3-1.2-3.4c-2.1-1.4-7.7-1.4-8.2-1.7
		c0.3-0.5,0.8-0.4,1.7-0.6l5.9-1c2.6-0.4,5.3-0.8,8-1.3c1.3-0.2,2.7-0.3,4-0.6c1.3-0.3,2.7-0.5,4-0.6c0.8-0.1,1.3-0.1,2-0.3
		c0.7-0.1,1.3-0.2,2-0.3c0.6,0,1.4-0.1,2.1-0.2c0.8-0.1,1.2-0.3,1.9-0.5c-0.2,0.7-1.1,1.8-1.5,2.5c-0.2,0.5-0.4,0.9-0.7,1.3
		l-2.2,3.9c-0.2,0.5-0.4,0.9-0.9,1.1c-0.6,0.2-8.2,0.9-9.2,1c-0.5,0-1.3,0.2-1.8,0.2l-3.6,0.4C119.2,94.3,118.6,94.3,117.9,94.3
		L117.9,94.3z M144.9,86.5c-3.1-1.6-2.6-0.5-3.8-0.2c-0.3-0.5-0.6-1.1,0.2-1.6c0.2-0.1,0.7-0.4,1-0.4c0.1,0.3,0.8,1.2,1.1,1.2
		s0.8-0.4,0.9-0.6c0.1-0.1,0.2-0.3,0.4-0.4c1.3-1.1,1.5-1.9,1.9-2.1c0.4,0.3,0.4,0.6,0.4,0.9c0,0.4-0.5,0.4-1.2,1.4
		C145.3,85.2,145.3,85.8,144.9,86.5L144.9,86.5z M208.6,83.5c0,1.7,2.3,6.3,2.7,8c-0.4,0-0.7-0.1-1-0.2l-8-0.3
		c-0.3-0.6-0.5-1.3-0.9-1.8c-0.7-1.1-2.8-2.1-2.8,1c0,0.4,0.1,0.2,0.1,0.6h-11c0-2.8-0.1-2.2,4.4-3.2l5.7-1.4
		c0.5-0.1,0.9-0.2,1.3-0.4c2.4-0.6,4.7-1.4,6.9-2c0.9-0.2,1.8-0.7,2.7-0.9C208.7,83.3,208.6,83.3,208.6,83.5L208.6,83.5z
		 M209.6,82.5l3.1-1.5c0.2,0.4,0.9,1.1,1.2,1.6l1.5,1.3c0.8,0.6,2.6,1.9,3.5,2.1c0,0.5-1.6,5.1,0.1,4.6c0.3-0.1,0.4-0.2,0.5-0.4
		c0.3-0.6,0.9-3,0.9-3.5c0.8,0,1.2,0.3,1.9,0.3c0,1.2-0.1,1.1-0.2,2c-0.1,0.8-0.1,1,0.4,1.3c0.2-0.2,0.4-0.3,0.5-0.6
		c0.2,0.2,1.2,2,0.3,2.8c-0.3,0.2-0.7,0.3-1.1,0.3c-0.4,0-1,0-1.4,0c-1.4,0-5.4,0.6-6.4,0.6l-1-2.8c-0.5-1.3-2.2-6.2-2.8-7
		C210.3,83.1,209.9,82.9,209.6,82.5L209.6,82.5z M144.2,83.9c-0.2,0-0.3-0.2-0.5-0.3c-0.2-0.1-0.3-0.2-0.5-0.3
		c0.1-0.3,0.1-0.3,0.2-0.5c0.2-0.6,0.3-1.2,0.8-1.6c0.4,0.2,0.3,0.2,0.6,0.5c0.2,0.2,0.5,0.3,0.9,0.3
		C145.6,82.6,144.5,83.9,144.2,83.9z M147.1,81.2c0-0.4,0.1-0.3,0.2-0.7h0.5c0.1,0.4,0.2,0.5,0.2,1c0,0.4,0,0.8,0,1.2
		C147.4,82.5,147.1,81.8,147.1,81.2L147.1,81.2z M225.6,84.4c-0.2-0.6-0.7-0.9-1.3-1.2l1.5-7.5c0.4,0,2.9,0.7,3.4,1.3
		c0.4,0.4,0.7,0.9,1,1.4c1,1.9,0.7,3.8-1.3,5C228.2,83.7,226.7,84.4,225.6,84.4L225.6,84.4z M140.7,84.1c-0.2-1.1-0.2-0.9,0.3-2.1
		c0.9-1.8,1.2-1.4,2.2-1.3c-0.3,0.7-0.5,2.1-1.1,2.5L140.7,84.1L140.7,84.1z M81.5,76.8c1.5,0,2.3,0.4,3.3,1.5
		c0.8,0.8,1.2,1.9,1.1,3c-0.4,2.9-2.6,5.3-4.8,4.1c-1.8-0.9-2.9-2.1-3.5-4.1c-0.4-1.3,0.2-1.7,1-3C79.2,77.6,80.3,76.8,81.5,76.8z
		 M56.5,88.6c-1.1,0-4.6-1.2-5.4-1.6c0-0.5,0.5-1.6,0.7-2.1l2-6.3c2.1,0.5,3.3,0.8,5.2,2.1c-0.1,0.3-0.2,0.6-0.3,1l-1.6,4.9
		C57,87.1,56.6,88,56.5,88.6z M149.2,83.5c0-0.6,0.4-0.7,0.9-0.8l10.7-1.5c1-0.1,2-0.3,3-0.4c1.8-0.1,4.8-0.6,6.3-0.7
		c1.3-0.1,3.3-0.5,4.6-0.6c0.5-0.1,1-0.2,1.5-0.2l14.3-1.3c0.4,0,0.3-0.1,0.8-0.1l2.4-0.2c0.3,0,0.6,0,0.9,0
		c2.2-0.2,3.4-0.2,5.7-0.2c0.5,0,1.3,0,1.8,0l5,0.4c1,0.1,1.9,0.5,2.7,0.9c0.5,0.3,1.1,0.7,1.5,1.2c0.2,0.2,0.3,0.3,0.4,0.5
		c-0.3,0.1-0.5,0.3-0.8,0.4l-2.7,1.2c-0.6,0.2-1.2,0.4-1.8,0.7c-0.6,0.2-1.3,0.5-1.9,0.7c-0.7,0.2-1.2,0.4-1.9,0.6
		c-2.9,0.9-11.5,3.1-14.2,3.6c-3.4,0.7-7.3,1.3-10.9,1.8l-2.3,0.3c-1.6,0.1-3.3,0.2-4.7,0.4l-4.6,0.5c-0.4,0-0.5,0.1-1.1,0.1
		s-0.8,0.1-1.2,0.1c-0.8,0.1-1.8-0.1-2.6,0c-1.2,0.2-4.3,0.2-5.8,0.4l-1.7,0.2c-1.6,0.2-1.2-0.1-2.2-2.1
		C150.3,87.9,149.2,85.1,149.2,83.5L149.2,83.5z M146,80.9c-0.7,0-0.8,0.1-1.2-0.3c-0.3-0.3-0.2-0.2-0.6-0.4
		c0.6-1.2,1.4-0.8,2.4-0.3C146.5,80.2,146.4,80.9,146,80.9L146,80.9z M49.2,86.1c-0.4,0-3.7-1.8-3.7-3.7c0-1.1,0-1.1,0.9-2.1
		c0.4-0.4,0.9-0.7,1.4-1c1-0.6,2.8-1,3.9-1l-0.6,1.9c-0.2,0.7-0.4,1.3-0.6,1.9L49.2,86.1L49.2,86.1z M143.1,79.9
		c-0.5,0-0.7-0.7-0.8-1.1c-0.2-0.9,0-0.8,0.2-1.5c0.9,0,1.2-0.1,1.5-0.6l0.9,0.5c0,0.8-0.1,0.6-0.8,1.6c-0.1,0.2-0.3,0.4-0.4,0.6
		C143.6,79.5,143.3,79.9,143.1,79.9L143.1,79.9z M221.8,84.3c-0.4,0-0.6-0.1-0.8-0.2l2-9.1c0.3,0,1.5,0.3,1.7,0.4
		c-0.1,0.7-0.3,1.7-0.5,2.4c-0.2,0.9-0.3,1.6-0.5,2.5c-0.8,4.1-0.4,2-1.5,2.9C222,83.5,221.9,83.8,221.8,84.3z M66,81.9
		c-0.5,0-2-1.4-2.4-1.7c-0.8-0.6-1.6-1.1-2.4-1.7c0.3-0.5,1.3-4.4,1.7-5.5l0.6-1.9c1.2,0,10.6,1.1,11.7,1.2c1.6,0.3,2,0,2.8,2.4
		s0.9,2.1-0.1,2.9c-1.8,1.5-6.4,5.7-4,8.2c0.5,0.5,0.8,0.6,1.6,0.8c0.6,0.2,1.4,0.2,2,0.4c3.5,0.6,1.9,0.1,4.3,0.1
		c0.1,0.3,0.1,0.2,0.2,0.5c0.1,0.2,0.1,0.3,0.2,0.5c0.1,0.3,0.3,0.7,0.4,1c-2.4,0.2-5.6,0.3-8,0.3c-2.7,0-5.3,0.2-8.1,0.2l2.3-5.9
		c0.3-0.7,2-5.6,2-6.1c0-1-1.2-3.2-2.4-0.5c-0.1,0.3-0.2,0.5-0.3,0.9l-1.4,3.6C66.6,81.6,66.5,81.9,66,81.9L66,81.9z M97.7,77.4
		c-0.5,0.2-1.1,0.3-1.8,0.3c-0.4,0-0.5,0.1-0.9,0.1c-0.5,0-0.5-0.1-1-0.1c-2.2,0-3-0.5-3.6-0.6c0-0.5,0.2-1.2,0.3-1.6
		c0.1-0.5,0.3-1.2,0.3-1.7c2.5,0.6,4.2,1.2,6.4,0.5c0.2-0.1,0.7-0.2,0.9-0.3L97.7,77.4L97.7,77.4z M86.1,73.4c0.4,0,0.2-0.1,0.5-0.1
		c0.7,0,1.2,0.2,1.8,0.2L87.9,76c-0.3-0.2-0.4-0.2-0.6-0.5c-0.2-0.2-0.3-0.4-0.5-0.6C86.5,74.3,86.3,73.9,86.1,73.4z M85.1,71.5
		v-0.4l3.3,0.4c1.6,0.1,6.6,0.9,8,1.3c0.3,0.1,0.4,0.1,0.7,0.2c0.3,0.1,0.4,0.2,0.7,0.3c0,0,0,0-0.1,0c0,0.1-0.9,0.6-1.4,0.6
		c-1.1,0-0.9,0-1.9-0.2c-0.4-0.1-1-0.2-1.4-0.3c-0.5-0.1-0.8-0.1-1.4-0.2l-2.9-0.4c-0.5,0-1-0.2-1.5-0.2c-0.4,0-1-0.1-1.4-0.2
		C85.5,72.3,85.1,72.1,85.1,71.5L85.1,71.5z M101.9,63.8c0.8,0,1.4,0.4,1.8,0.9l1.2,1.6c2,3,2.2,6.3-0.9,8.6c-1,0.8-2.5,1.5-3.7,1.9
		c-0.2,0.1-0.4,0.1-0.6,0.2c0-0.8,0.3-1.9,0.4-2.7c0.1-0.8,0.7-2.3,0.7-2.4c0-1.1-0.3-0.2,0.1-2L101.9,63.8L101.9,63.8z M92.8,71.2
		c1.6-0.1,0.3-0.1,1.8,0c0.3,0,0.7,0,1,0l4.5,0.6c-0.2,1-0.6,0.8-2.3,0.5l-3.4-0.6C93.5,71.5,93.1,71.6,92.8,71.2L92.8,71.2z
		 M148,79.7c-0.9,0-1.4-0.8-2.8-0.9c0-0.6,0.5-1.2,0.4-1.7c-0.2-0.7-1-0.9-1.7-0.9c-0.4,0-0.4,0.1-0.6,0.3c-0.5,0.3-1,0.1-1.3,0.5
		c-0.5,0.6,0.1,2.2-0.2,3.1l-1.2,1.4c0-1.4-0.3-0.7,0.2-3.2c0.3-1.5,0.8-4.9,2-5.8c0.3-0.2,0.9-0.4,1.3-0.5c0.5-0.2,1.2-0.4,1.8-0.6
		l3.9-1c0,0.5-0.1,0.9-0.2,1.2c-0.5,2.1-1.3,4.9-1.3,7.1C148.2,79,148.2,79.4,148,79.7L148,79.7z M225.2,73.2
		c-0.3-0.1-1.3-0.3-1.7-0.3c0-0.6,0.9-5,1.1-5.7c0.6,0,1.1,0.2,1.6,0.2c0,0.6-0.6,3.5-0.8,4.3C225.4,72.3,225.2,72.7,225.2,73.2z
		 M58.2,67.6c3.4,0,3.8,0.8,7.3,1.1l4.5,0.5c2,0.1,3.9,0.4,5.9,0.4c0.7,0,1.3-0.3,1.3,1.7c0,0.5-1.1,0.1-2.4,0.1l-1.9-0.2
		c-0.3,0-0.5,0-0.8,0c-2.7-0.2-3.9-0.8-4.9-0.9l-5.3-0.5c-1.7-0.1-2.1-0.6-3.1-1.6C58.7,68.2,58.7,68.3,58.2,67.6L58.2,67.6z
		 M221.9,72.4c-1.6-0.4-4.4-1.9-2.5-3.7c0.3-0.3,0.6-0.5,1-0.7c0.4-0.3,0.7-0.3,1.2-0.5c0.8-0.2,1.1-0.2,1.4-0.3L221.9,72.4
		L221.9,72.4z M76.9,68.9c-1.6,0-3.3,0.1-5-0.1c-0.8-0.1-1.6-0.2-2.4-0.3c-1.5-0.2-6-0.7-7.2-0.9c-0.7-0.1-1.5-0.4-2.2-0.5
		C59.7,67,59.4,67,58.9,67c-0.3,0-0.9-0.1-1.2-0.2c0.1-0.4,0-0.3,0.9-0.2c0.4,0.1,0.7,0.1,1.2,0.2l7.1,1.1c0.8,0.1,1.6,0.2,2.5,0.2
		c0.6,0,0.7,0.1,1.3,0.1c0.6,0,0.9,0,1.3,0.1c0.4,0,0.9,0,1.3,0c0.6,0,0.8,0.1,1.3,0.1C76.1,68.5,76.4,68.1,76.9,68.9L76.9,68.9z
		 M171.9,66.3c0-0.6,0.7-2.1,1.1-2.7c0.2-0.5,0.3-0.4,0.5-0.8c1.3,0,3.3-0.3,4.5-0.1l3.4,0.3c0.7,0,1.2,0.1,1.8,0.1
		c0.3,0,1.3,0.1,1.6,0.2c0.6,0.1,1,0.2,1.5,0.4s2.1,0.9,2.3,1.5l-5.4,0.1c-0.5,0-0.5,0.1-1,0.1c-0.4,0-0.7,0-1.1,0l-8.2,0.8
		C172.6,66.3,172.3,66.3,171.9,66.3L171.9,66.3z M98.9,70.8l-2.6-0.2c-0.3,0-0.7,0-1,0c-0.4,0-0.4-0.1-0.8-0.1c-0.3,0-0.7,0-1,0
		c-0.4,0-0.4-0.1-0.8-0.1c-0.3,0-0.7,0-1,0l1.5-7.6c0.2-1.2-0.4-1.4,3.8-0.4l3.2,0.8l-1.1,6.6C99,70.1,98.9,70.5,98.9,70.8
		L98.9,70.8z M170.8,66.7c0,0.5,0.1,1.2,0.5,1.5c0.4-0.9,0.6-0.8,2.5-1c0.5-0.1,1-0.1,1.6-0.2l4.7-0.6c0.5-0.1,1.9,0.3,3.2,0.1
		c1.4-0.2,5.2,0.3,6.4,0.6l3,0.6c1.1,0.2,2,0.3,3.1,0.5c3.5,0.6,5.6,0.7,9.1,1.6c1.3,0.3,2.9,0.6,4.1,1.1c2,0.8,4.4,2.4,6,3.9
		c0.5,0.5,1.1,1,1.1,1.8c0,0.7-1.2,1.8-1.7,2.1c-0.4,0.3-2,1.3-2.1,1.6c-0.3-0.1-0.3-0.2-0.5-0.5l-0.5-0.6c-1-1-2.3-1.5-3.8-1.8
		c-4.5-0.9-6.5-0.5-10.4-0.5c-0.4,0-0.5,0-0.8,0.1l-3.3,0.2c-0.4,0-0.3,0.1-0.8,0.1l-1.7,0.1c-1.2,0.1-2.5-0.1-3.5,0.1
		c-0.3,0-0.5,0-0.8,0l-2.4,0.2c-2.1,0.3-4.3,0.5-6.4,0.8l-6.2,0.9c-3.2,0.5-6.4,0.7-9.6,1.2c-2,0.3-4.2,0.5-6.2,0.8l-4.7,0.7
		c-0.5,0.1-1.1,0.1-1.7,0.1c-0.6-2.4-0.1-6.2,0.5-8.3l0.6-2c0.1-0.4,0.2-0.7,0.4-1c0.1-0.3,0.3-0.6,0.4-1c-1-0.2-2.1,0.2-3.1,0.5
		s-4.9,1.2-5.7,1.8c-1.3,0.9-2.1,5.2-2.3,6.8c-0.1,0.9-0.3,1.9-0.2,2.7c0.1,0.6,0.1,1.4,0.1,2c-1.9,0-5.1,0.8-7.4,0.9
		c-0.4,0-0.3,0.1-0.6,0.1c-0.2,0-0.4,0-0.7,0l-3.6,0.5c-0.9,0.1-1.7,0.2-2.5,0.3c-1.7,0.3-3.1,0.6-4.7,0.8c-1.5,0.2-3.2,0.5-4.8,0.7
		c-2.4,0.3-4.8,0.8-7.2,1.2c-0.5,0.1-0.8,0-1.2,0.2c-1.2,0.5-0.4,0.3-2.2,0.6c-0.4,0-0.8,0.1-1.2,0.2c-3.2,0.3-8.9,0.3-12.4,0.2
		c-0.5,0-0.6-0.1-1.2-0.1c-1,0-2.1,0.1-3.1,0c-0.5,0-0.7-0.1-1.1,0h-1.5c-0.8,0-1.6-1.8-1.6-1.9c0-0.5,0.9-0.9,1.2-1.2
		c1.4-1.1,2.7-2.6,2.7-4.5c0-2.1-0.1-2.9-1.8-4.2c-1.8-1.4-3.1-1.2-5.4-1.1c-0.2-0.5-0.4-0.9-0.6-1.4c-0.6-1.6-1-3.4-1-5.3
		c0-0.8,1.8-1.9,2.4-2.4c0.6-0.4,1.1-0.9,1.8-1.2c0,0.3,0,0.3,0.2,0.5c0.1,0.3,0.1,0.3,0.2,0.6c0.1,0.5,0.2,0.8,0.4,1.2
		c1.1,4.5,2.9,7,5.6,10.4c1.4,1.8,1.9,2.5,4.5,2.5c1,0,2-0.2,2.9-0.3c3-0.5,7.5-1.6,10.5-2.4c0.9-0.2,1.7-0.5,2.6-0.7
		c0.9-0.3,1.6-0.4,2.5-0.7c0.8-0.3,1.7-0.5,2.5-0.8c3.2-1.1,6.6-2,9.9-3l7.3-2.4c0.9-0.3,1.6-0.5,2.5-0.8c4-1.3,8-2.7,12.2-3.9
		c0.9-0.3,1.7-0.4,2.6-0.7c3.4-0.9,7.1-1.6,10.6-2.3c3.8-0.8,7.2-1.7,11.2-1.7l1.5-0.1c2.7-0.2,5.3-0.2,8-0.2l3,0.2
		c0.7,0.1,1.2,0.2,1.8,0.4c0.5,0.2,1.2,0.4,1.4,0.8c-2,0-4.7-1.3-8.8-0.8c-1,0.1-3.3-0.2-3.9,0.4c-0.8,0.7-1.5,2.2-1.8,3.3
		C171,65.8,170.8,66.2,170.8,66.7L170.8,66.7z M141.3,60.5v-1l3.6,0.2c2.4,0.1,1.9,0.9,3.3,0.9c0.2-0.3,0.3-0.3,0.4-0.8
		c0.1-0.4,0.2-0.7,0.2-1.1c0.3,0.2,0.1,0,0.3,0.4c0.3,0.7,1.2,3.4,1.2,4c-3.2,0-5.2-0.4-7.9-1.5C142,61.4,141.3,61.2,141.3,60.5
		L141.3,60.5z M143.4,65.8c-1.4,0.3-6.6,2.2-8.8,2.8c-1.4,0.4-4.2,1.4-5.5,1.5c0-0.5-0.1-0.4-0.1-0.9c0-3.2,0.1-12.5,1-14.3
		c0.8,0.2,2.8,2.3,6.5,3.5c0.3,0.1,0.8,0.2,1.1,0.4c0,0.8-0.1,1.1,0,2.2c0.2,1.1,0.5,2.1,1.3,2.8c1.2,1,3.5,1.6,4.2,2H143.4
		L143.4,65.8z M147.9,59.6c-0.2-0.7,0-1,0.1-1.7h0.1c0,0,0.3,0.1,0.3,0.7C148.4,59,148.2,59.4,147.9,59.6L147.9,59.6z M147.9,56.7
		c-0.5-0.7-0.3-0.4,0-1.7l0.8-3.2c0.1-0.3,0.2-0.3,0.5-0.3c0.2,0.8,0.2,0.6,0.1,1.4c-0.1,0.5-0.1,0.9-0.2,1.5
		C148.9,55.8,149.2,56.4,147.9,56.7z M146.5,51.2l0.9,2.7c-0.7,0-1.3-0.2-1.8-0.4l-2.7-1.2c0.3-0.3-0.1-0.1,0.4-0.2
		c0.1,0,0.3-0.1,0.5-0.1c0.4-0.1,0.6-0.2,0.9-0.3C145.3,51.5,145.9,51.3,146.5,51.2L146.5,51.2z M106.2,51.9l2.3,1
		c0.8,0.3,1.4,0.8,1.6,1.7c0.1,0.6-0.3,3.5-0.5,4.3c-0.3,1.4-0.3,2.8,0.6,4c1.2,1.7,2.2-1.8,2.5-2.7c0.6-1.8,1.9-7.8,2.3-10.1
		l0.5-2.1c1.1,0,1.5-0.1,1.7,1c0.3,1.5,0.3,2.3,0.5,3.5l0.1,3.8c0,0.4-0.1,0.4-0.1,0.9c0,0.3,0,0.7,0,1c0,1.2-0.4,2.6-0.1,3.7
		c0.6,0,1.1-0.8,1.7-1.6l1.4-1.8c0,0,0,0,0-0.1c0,0,0,0,0-0.1c1.1,4.6,1.6,6.4,1.6,11.5c0,1-0.1,1.7-0.1,2.7c-0.3,0-0.5,0.1-0.8,0.2
		c-4,1.3-7.6,2.4-11.7,3.6c-0.3,0.1-0.5,0.2-0.9,0.2c0.3-1.1,3.6-3.8,0.7-10.8c-0.5-1.3-1-2-1.8-3c-0.7-0.9-1.2-1.5-2.1-2.2
		c-0.4-0.3-0.5-0.4-1-0.7s-1.3-0.5-2-0.5l1.1-6.5c0.1,0.1,0.1,0,0.1,0.2l1.3,2.9c0.1,0.3,0.3,0.6,0.5,1l0.9,2.1
		c0.3,0.7,0.9,2.2,2.1,1.3c0.8-0.6,0.1-1.7-0.3-2.7C108.1,57,106.2,52.4,106.2,51.9L106.2,51.9z M148.6,50.5c0.4,0,4.6-1.4,5.4-1.5
		c0.4,0.9,3.9,10.9,3.9,11.3c-0.4,0.1-0.6,0.5-1.1,0.8c-1.5,0.9-2.4,1.3-4.2,1.7c0-0.5-0.6-1.9-0.8-2.5c-0.5-1.6-1.7-5.2-1.9-6.3
		c-0.1-0.8,0.4-2.5-0.4-2.8C148.9,51,148.6,51.4,148.6,50.5L148.6,50.5z M100.9,59.1c-1.3,0-6.5-0.9-6.7-0.9c0-0.9,0.1-1.6,0.3-2.4
		l1.2-7.1c1.7,0,4.3,0.5,5.8,1.1c0.3,0.1,0.4,0.2,0.7,0.3c0,0.7-0.5,3.7-0.7,4.5L100.9,59.1z M91.5,57.5l-0.4-0.1
		c-1.3-0.4-1.8-0.6-2.9-1.3L88,56c-2.9-2.2-1.8-4,0.8-5.8c1.8-1.2,3.9-1.3,4.2-1.5C93,49.6,91.6,56.3,91.5,57.5z M161.9,53.5
		c0,3.3-2.4,4.8-2.6,5.5h-0.2c-0.1-0.4-0.2-0.8-0.4-1.1c-0.7-1.7-1.4-4.1-2.1-5.9l-1-3c-0.1-0.3-0.1-0.3,0.2-0.4
		C157.6,48.2,161.9,50.6,161.9,53.5L161.9,53.5z M102.6,48v-0.3l0.6-0.3c0.3,0.5,0.4,0.9,0.7,1.4l1.3,2.9c0.3,0.8,3,7.3,3,7.7
		c0,0.3,0,0.3-0.1,0.5c-0.9-0.1-1-1.2-1.7-2.6c-1.1-2.5-2.4-5.8-3.6-8.4C102.7,48.6,102.6,48.4,102.6,48L102.6,48z M104.8,46.3
		c0.4,0.1,0.5,0.5,1.3,0.9c1.1,0.5,2.6,0.6,3.9,0.6c0.8,0,1.3,0.1,2.2,0.1c-0.1,0.3-0.2,1-0.3,1.3c-0.2,0.9-0.2,0.6-0.5,1.2
		c-0.7,0-0.8,0.1-1.4-0.3c-1.4-0.8-2.5-1.3-3.8-1.9c-0.5-0.3-1.1-0.4-1.6-0.7C104.6,47.2,104.7,46.5,104.8,46.3L104.8,46.3z
		 M139.9,46.9c0-1.5,0.5-2.5,1.3-3.5l0.9-1c0.4-0.3,0.8-0.7,1.3,0c0.2,0.3,0.8,2.1,0.9,2.6l1.2,3.4c-1.3,0.3-3.5,0.7-4.8-0.2
		C140.4,47.9,139.9,47.4,139.9,46.9z M102.1,47.1h-0.6c0.1-0.6,0.3-0.6,0.6-0.9c0.4-0.3,0.4-0.6,1-0.6
		C103.1,46.4,102.8,47.1,102.1,47.1z M116.4,45.7c0-0.3,0.2-0.8,0.4-1.1l0.2,2C116.5,46.5,116.4,45.9,116.4,45.7z M100.1,45.2
		c0.7-0.1,1.4-0.5,2.2-0.6c0,0.7,0,1.3-1.1,1.4C100.6,46.1,100.2,45.8,100.1,45.2z M104.2,40.8c0.6,0.1,0.8,0.5,0.8,1.2v2.8V45
		l-0.4,0.3l-0.4-0.3V40.8L104.2,40.8z M100,44.6c0,0-0.6-0.4-0.7-0.5c-0.3-0.2-0.4-0.3-0.4-0.8c1.5-0.4,2-0.8,3.2,0
		c-0.2,0.4-0.3,0.7-0.7,1C101,44.4,100.3,44.6,100,44.6L100,44.6z M145.8,42.5c1.3,0,1.9-0.1,3.1-0.4l2.3-0.9l1.6,4.5l-2.5,1.1
		c-0.6,0.2-2.2,0.9-2.8,0.9C147.5,47.1,145.9,43.4,145.8,42.5L145.8,42.5z M125.1,42.3c0-0.9-0.2-2.2,0.6-2.4
		c0.4-0.1,1.4-0.2,1.9-0.2l3.8,5.2c1.7,2.3,1.3,1.5,0.5,4.4c-0.1,0.3-0.2,0.5-0.2,0.9l-1.3-0.7c-2-1-1.8-1.3-2.9,2.1l-0.4,1.1
		c-0.6,0-0.6,0-1-0.2c-0.3-0.2-0.5-0.3-0.9-0.4c-0.3-0.1-0.5-0.3-0.8-0.4c-0.9-0.4-1.8-0.7-2.1-1.7l-0.8-6.9c0.1-0.8,2-1.9,3-2.1
		v1.9c-1.7,1.1,0.2,3,1.3,1.8c0.6-0.6,0.4-1.4,0-1.6L125.1,42.3L125.1,42.3z M99.7,42.5h-0.4c-0.1-0.2-0.7-0.6,0.2-1.3
		c0.7-0.5,3.3-0.8,3.7,0c0.2,0.3,0.1,0.6,0.1,1.1c0,0.4,0.1,0.6,0.1,1.1c0,0.6,0,0.7,0.1,1.1c-0.2,0.1-0.2,0.1-0.5,0.1
		c0-0.3-0.1-0.5-0.2-0.7c-0.1-0.5-0.2-1.1-0.5-1.5C101.8,41.7,100.6,42.5,99.7,42.5L99.7,42.5z M119.1,41v-0.2
		c0.2-0.1,0.3-0.2,0.6-0.3c0.3-0.1,0.4-0.2,0.6-0.4c0.3-0.2,1-0.5,1.3-0.6c0,0.8,0.4,1.4,1,1.6c-0.1,0.4-1.6,1.9-2.1,1.9
		c-0.3,0-0.5-0.4-0.8-0.9C119.6,41.9,119.1,41.3,119.1,41L119.1,41z M136.2,45.7c0,1.6,0.1,1.3,0.2,2.2c-0.6-0.4-0.7-0.7-1-1.2
		l-2-3.4c-0.2-0.4-0.4-0.7-0.5-1.1c-1.3-2.6-1.6-1.8,0.9-5.2l2.7-3.7c0.3-0.4,0.4-0.6,0.8-0.9c0,0.6,0.1,0.7,0.1,1.2
		c0,1,0.2,2.6,0.4,3.5c0.5,1.9,1.5,2.2,2.1,3.1c-0.2,0.1-0.7,0.5-1,0.7l-1.4,1.5C137,43.1,136.2,44.6,136.2,45.7L136.2,45.7z
		 M109.5,40c0-0.7,0.1-1,0.1-1.7c0.2,0.1,0.8,0.2,1.1,0.2c1.4,0.1,1.5-0.2,2.7,0.3c0.4,0.2,0.7,0.3,1.1,0.5l2.2,1.2
		c-0.3,0.1-0.4,0.2-0.7,0.3c-0.3,0.1-0.7,0-1,0.1c-0.5,0.1-1.3-0.1-2-0.1C112.3,40.8,109.5,40.6,109.5,40L109.5,40z M123.3,40.9
		c-1.4,0-1.6-1.7-0.9-2.3c0.9-0.8,2.2-0.2,2.3,0.9C124.7,40.3,124.1,40.9,123.3,40.9L123.3,40.9z M126,36.1c0.3,0,0.4,0.2,0.5,0.3
		c0.6,0.7,1,1.3,1,2l-2.4,1.1c-0.2-0.4-0.1-0.6-0.4-0.9c-0.2-0.3-0.4-0.5-0.7-0.6C124.1,37.6,125.9,36.1,126,36.1z M128.2,37.2
		c1,0.1,1.9,1.8,1.6,2.5c-0.3-0.2-0.2-0.3-0.4-0.6L128.2,37.2z M138.2,32.1l-10.1,5.2L138.2,32.1z M138.2,32.1l1-4.2
		c0.6-2.6,3.2-0.5,4.2-2.8c0.1-0.3,0.1-0.3,0.4-0.5c1-0.7,4,0.2,4.7,0.5c2,0.8,3.8,2.2,5,4c2,3.1,1.4,9.1-2.6,11.1
		c-1.6,0.8-2.9,1.3-4.9,1.3c-2.1,0-3.7-0.5-5.1-1.7c-1.4-1.2-1.5-2-1.9-4.1L138.2,32.1L138.2,32.1z M91.3,33.3c-1,0-1.3-2.9,0.9-4.1
		c0.8-0.4,1.8-0.4,2.5,0.1c0.6,0.4,1,1.3,1.3,1.9c0.3,0.7,4.2,8.3,4.4,8.8c-0.4,0.2-0.4,0.3-0.9,0.4c-0.6-0.4-1.1-1.8-1.5-2.7
		c-0.7-1.3-2.8-6-3.6-6.8C94,30.5,93.9,30,93.2,30c-0.9,0-1.1,0.5-1.1,1.4c0,0.5,0.1,1.1-0.6,1.6C91.5,33.2,91.4,33.3,91.3,33.3
		L91.3,33.3z M121.5,29.9c0,1.6-2.4,0.3-3.6,2.6c-0.5,1.1-0.5,2-1.9,2.7c-0.4,0.2-0.7,0.3-1.1,0.5c0.8,1.6,3.9,2.3,6.3,0.9
		c0.2-0.1,0.5-0.4,0.7-0.5c0.7-0.5,1.2-0.1,1.9-0.5c0.6-0.4,0.3-1.1,1.2-1.2c-0.1,0.3-0.2,0.7-0.3,1.1c-0.7,1.8-2.3,2.7-3.9,3.6
		c-1.1,0.7-1.7,0.7-3,0.7c-1.4,0-2.6-0.7-3.8-1.3c-0.4-0.2-0.8-0.7-1.2-0.7c-0.6,0-0.8,0.2-1.3,0.2c-1.4,0-1.9-1.7-1.5-2.5
		c0.2-0.4,0.7-0.9,0.8-1.3c-0.6,0-0.4,0.3-1.3,0.3c-1.9-2.8,0.1-5.6,2.5-7.4l5-3.2c0.8-0.5,1.6-1.1,2.2-1.9c0.1-0.2,0.2-0.2,0.3-0.4
		c0.5-0.6,0.3-0.4,1.7,0.6c1.3,0.9,2.5,2.9,3.2,4.3c0.2,0.4,0.3,0.7,0.5,1.2c0.2,0.4,0.3,0.9,0.5,1.2h-2.1c1,1.4,3.1,0.2,3.9,0.1
		c0.1,1.1,0.3,2.1-1.1,3.6c-0.5,0.5-1.1,0.9-1.9,1.1c-1,0.2-1.3-0.1-2,1c-2,3.1-5.5,2.4-6.4,1.2c1.8-1,1.7-1.3,2.5-3.5
		c0.3-0.8,0.9-0.9,1.9-1.1c0.4-0.1,0.8-0.2,1.1-0.4c1.2-0.8,0.4-2.4-0.6-2.7C121,28.9,121.5,29,121.5,29.9L121.5,29.9z M107.1,32.1
		c0,1.4,0,1.8,0.5,3.2l0.7,1.4c0.2,0.3,0.1,0.2,0.2,0.5c-2,0-3.1-3.2-2.3-5.8l0.7-1.6c0.3-0.5,0.6-0.9,0.9-1.4
		c0.6-0.7,0.6-1.1,1.2-1.1C108.1,28.6,107.1,30.3,107.1,32.1L107.1,32.1z M137.5,23.8c0.3,0,0.2,0,0.3,0.2l1,1.5
		c0.2,0.3,0.2,0.3,0.4,0.6l-0.3,0.2c-0.4-0.3-0.7-0.7-0.9-1.2C137.8,24.8,137,23.8,137.5,23.8L137.5,23.8z M141,24.3
		c-0.3,0-0.6-0.5-0.7-0.7l2.2-1.6c0.4,0,1,0.9-0.3,1.7C142,23.9,141.4,24.3,141,24.3z M112,24.2c-0.8,0-0.8-0.2-1.5-0.7
		c0.1-1.2,1.7-2.3,2.4-2.3c0.6,0,1.1,0.8,1.4,1.2c0.2,0.2,0.2,0.3,0.4,0.5C114.1,23,112.6,24.2,112,24.2z M140.4,22.4
		c-0.2,0-0.4-0.5-0.4-0.8c0-0.4,0.6-1.8,1.3-1.8c0.2,0,1,0.7,1,0.8C142.3,21.1,141,22.4,140.4,22.4z M139.4,22
		c0,1.4,0.5,3.1,2.1,2.7c0.4-0.1,0.9-0.3,1.2-0.5c-0.1,1-1.1,1.6-2.3,1.6c-0.7,0-1.3-0.9-1.6-1.3c-1.1-1.5-1.1-2.5-0.3-4.1
		c0.3-0.6,0.6-1.2,1.1-1.6C140.9,19.6,139.4,20.5,139.4,22L139.4,22z M106.2,18.4c0.4-0.3,0.8-0.7,1.2-1.1c0.2-0.2,0.4-0.4,0.6-0.6
		c0.3-0.3,0.3-0.4,0.7-0.5c0.1,0.4,1.4,1.7,1.7,2.2l0.9,1c0.2,0.2,0.2,0.3,0.4,0.5c0.3,0.3,0.2,0.2,0.4,0.6
		c-0.1,0.1-2.2,2.1-2.6,2.2c-0.1-0.4-0.1-0.2-0.4-0.5c-0.1-0.2-0.1-0.1-0.2-0.3L106.2,18.4z M137.4,19.3c-0.4,0-0.4,0-0.7,0.1
		c0.3,0.4,0.5,0.4,0.7,0.7c-0.9-0.1-0.8-0.9-3.7-1.3c-0.3,0-0.6,0-0.9-0.1c-0.6-0.1-1-0.4-1.2-0.9c0.9-0.6,1.7-0.5,1.8-1.9
		c0.1-1.1,2.1-4.1,2.3-4.1c1.5,0,3.1,5.7,3.1,6.9c-0.5-0.4-0.5-1.1-1-1.3c-0.1,0.4,0.1,0.5,0.1,1.2c-0.3-0.1-0.7-0.4-1-0.6
		s-0.6-0.6-1.1-0.6C136,18.2,136.9,18.4,137.4,19.3L137.4,19.3z"/>
</g>
</svg>
