<?xml version="1.0" encoding="utf-8"?>
<!-- Generator: Adobe Illustrator 26.0.3, SVG Export Plug-In . SVG Version: 6.00 Build 0)  -->
<svg version="1.0" id="Слой_1" xmlns="http://www.w3.org/2000/svg" xmlns:xlink="http://www.w3.org/1999/xlink" x="0px" y="0px"
	 viewBox="0 0 239.5 150.2" style="enable-background:new 0 0 239.5 150.2;" xml:space="preserve">
<path d="M158.5,32.1c0.5,0,1-0.2,1.6-0.2c0.2,1.8,0.1,3.8,0.2,5.7c0.1,1.1,0.1,2.2,0.1,3.3c0.1,1.7-0.2,3.7,0.7,5.2
	c0.6,1,1.5,1.8,2.5,2.6c1.7,1.4,3.9,1.6,6,1.6c2.5,0,4.9-0.2,7.1-1.4c1.5-0.7,2.6-2.3,2.6-4.1c0.1-3.2-0.1-6.4-0.1-9.6l0,0
	c0-0.9-0.1-1.7,0.4-2.6c0.6-0.9,1.7-0.6,2.6-0.4c0.1,0,0.2,0,0.4,0.1c0-0.1,0-0.4,0-0.5c-0.1-0.4-0.4-0.6-0.6-0.9
	c-0.7-0.6-1.6-1.4-2.6-1.5c-0.5-0.1-1.1,0.1-1.6,0.4l-0.1,0.1c-0.1,0.1-0.4,0.4-0.5,0.5c-0.5-0.9-1.6-1.1-2.5-1
	c-0.7,0.1-1.2,0.9-1.5,1.5c0.2,0.5,0.6,0.9,1.1,1.1c0.6,0.1,1.2-0.2,1.8-0.4c0.2,0.7,0.2,1.5,0.2,2.2c0,2.5,0.1,5,0.2,7.5
	c0,1.5,0.1,3-0.9,4.2c-1.2,1.4-3.3,1.6-5,1.4c-0.4-0.1-0.9-0.1-1.2-0.5c-0.2-0.2-0.2-0.6-0.2-1c-0.1-1.1-0.1-2.3-0.1-3.4
	c0-0.2-0.1-0.5-0.1-0.7c0-2.2-0.1-4.3-0.1-6.5c0-0.7,0-1.4,0.1-2.1c0-0.1,0.1-0.2,0.1-0.2c0.6-0.9,1.8-0.6,2.7-0.4
	c0.1,0,0.4,0,0.4,0c-0.2-0.6-0.6-1.4-1.2-1.7c-0.7-0.7-1.8-1.2-2.8-1.1s-2,0.9-2,2c-0.9-0.7-1.5-1.6-2.2-2.2
	c-0.2-0.2-0.5,0.1-0.6,0.2c-0.4,0.5-1,1.2-1.5,1.7l0,0l0,0l-0.1,0.2c-0.1-0.4-0.2-0.9-0.5-1.1c-0.4-0.4-0.7-0.5-1.2-0.6
	c-0.5,0-0.9,0-1.4,0.1c-0.6,0.2-1.1,0.7-1.5,1.5C157.5,31.3,157.8,32.1,158.5,32.1z M174.1,31.3c-0.1-0.1-0.2-0.4-0.2-0.5
	s0-0.2,0.1-0.4c0.7-0.2,1.7-0.2,2.1,0.6C175.2,31.2,174.7,31.3,174.1,31.3z M161.7,36.9c0.2,0,0.5,0,0.7,0s0.6,0,0.9,0
	c0,0.2-0.1,0.5-0.1,0.6c-0.1,0-0.4,0-0.5,0s-0.4,0-0.5,0s-0.2,0-0.4-0.1C161.7,37.3,161.7,37.1,161.7,36.9z M161.7,36.4
	c0-0.1,0-0.5,0-0.6c1.4,0,2.8,0,4.2,0c0,0.1,0,0.4,0,0.5c-0.7,0-1.5,0.1-2.1,0c-0.4,0.1-0.9,0.1-1.2,0.1
	C162.3,36.4,162.1,36.4,161.7,36.4z M163.4,40.7h-0.1c-0.5,0-1,0-1.5,0.1c0-0.2,0-0.5,0-0.6c0.5,0,1-0.1,1.4,0.1
	C163.2,40.4,163.3,40.5,163.4,40.7z M162.7,38c0,0.2,0,0.4,0,0.6c-0.2,0.1-0.9,0-0.9,0.5c0.2,0,0.5,0.1,0.7,0.1c0,0.2,0,0.4,0,0.6
	c-0.2,0-0.6,0-0.9,0c0-0.6,0-1.1,0-1.7C162.1,38,162.3,38,162.7,38z M162.1,45c0-0.1,0-0.4,0-0.5c0.6,0,1.1,0,1.7,0
	c0,0.2,0.1,0.4,0.1,0.6c-0.5,0.1-1,0.1-1.5,0.1C162.3,45.2,162.2,45.1,162.1,45z M162.4,45.7c0.4,0,0.7-0.1,1.1,0
	c0.4,0,0.6,0.2,0.6,0.6c-0.2,0-0.5,0-0.7,0C163.1,46.3,162.7,46.1,162.4,45.7z M164.9,47.1c0,0.1,0,0.2,0,0.2
	c-0.5-0.2-0.9-0.4-1.4-0.7C164,46.6,164.7,46.6,164.9,47.1z M172.9,48.3c1.5-0.4,3.2-1,4.1-2.3c1.1-1.4,1-3.3,0.9-4.9
	c0-1.6,0-3.3-0.1-4.9c0-1.2-0.2-2.6-0.1-3.8c0.1-0.9,0.7-1.7,1.7-1.8c0.7,0,1.4,0.2,2.1,0.4c0.1,0.1,0.2,0.4,0.4,0.5
	c-0.6,0-1.2-0.2-1.7,0c-0.5,0.1-0.7,0.5-1.1,0.7c-0.5,1.1-0.2,2.3-0.2,3.6c0,2.1,0.1,4.2,0.1,6.1c0.1,1.2,0,2.5-0.1,3.6
	c-0.1,0.7-0.6,1.5-1.1,2c-1.1,1-2.6,1.5-3.9,1.7c-1.5,0.4-3.1,0.5-4.7,0.4c-0.5,0-1-0.1-1.4-0.1c-1.2-0.2-2.6-0.6-3.7-1.2
	c-0.1-0.1-0.4-0.2-0.5-0.4c1.1,0.2,2.1,0.5,3.2,0.6c0.6,0,1.4,0,2,0.1C170.1,48.7,171.5,48.5,172.9,48.3z M169.4,47.4
	c0,0.1,0,0.2,0,0.2c-0.6,0-1.2-0.1-1.8-0.2c-0.6-0.1-1.2-0.4-1.7-0.7c0.7-0.1,1.5-0.2,2.1,0C168.5,47.1,169,47.3,169.4,47.4z
	 M167.4,32.1c0.1-0.5,0.4-0.9,0.9-1.2c0.1-0.1,0.2-0.1,0.4-0.2c0.6-0.1,1.4,0,2,0.1c0.4,0.1,0.7,0.4,0.9,0.6c-0.5,0-0.9-0.1-1.4-0.2
	c-0.6,0-1.2,0.4-1.5,1c-0.4,1.2-0.2,2.5-0.2,3.7c0.1,1.8,0.1,3.7,0.1,5.7c0,1.4-0.1,2.7,0.2,4.1c0,0-0.1,0.1-0.2,0.2
	c-0.4-0.6-0.7-1.4-0.9-2.1c-0.1-1.4-0.1-2.8-0.1-4.2c-0.1-1.4-0.1-2.8-0.1-4.2C167.4,34.3,167.2,33.2,167.4,32.1z M167.2,46.1
	c0,0-0.1,0-0.2,0c-0.4,0-0.6,0-1,0c-0.2,0-0.4,0-0.6,0c-0.1-0.2-0.4-0.4-0.4-0.6c0.5,0,1.1,0,1.6,0C166.9,45.6,167,46,167.2,46.1z
	 M164.7,45.2c0-0.1-0.1-0.2-0.2-0.2c0-0.1,0-0.2-0.1-0.4c0.1,0,0.4,0,0.5,0c0.5,0,1,0,1.4,0c0,0.2,0.1,0.4,0.1,0.6
	C165.9,45.1,165.3,45.1,164.7,45.2z M161.9,44c0-0.1,0-0.4,0-0.5l0.1-0.1c1.4,0,2.7,0,4.2,0c0,0.2,0.1,0.4,0.1,0.6
	C164.9,44,163.4,44,161.9,44z M161.8,43c0-0.2,0-0.4,0-0.6c0.1,0,0.4,0,0.5,0c1.2,0,2.6,0,3.8,0c0,0.2,0,0.4,0,0.6
	C164.8,43,163.3,42.9,161.8,43z M162.9,41.9c-0.4,0-0.7,0-1.1,0c0-0.2,0-0.4,0-0.6c0.2,0,0.5,0,0.9,0c0.2,0,0.6,0,0.9,0
	c0.1,0.1,0.2,0.2,0.2,0.4c0.2,0,0.5-0.1,0.6-0.2c0.6,0,1.1,0,1.7,0c0,0.1,0,0.4,0,0.5C165,41.9,164,41.9,162.9,41.9z M166.1,40.7
	c-0.5,0-1,0.1-1.5,0.1c0-0.1,0-0.4,0-0.5s0.1-0.2,0.2-0.2c0.4,0,0.9,0,1.2,0c0,0.1,0,0.2,0,0.2C166.1,40.4,166.1,40.7,166.1,40.7z
	 M165,39.7c0.1-0.2,0.2-0.5,0.4-0.7c0.2,0,0.5,0,0.7,0c0,0.1,0,0.4,0,0.5C165.8,39.6,165.4,39.7,165,39.7z M166.1,38.6
	c-0.4,0-0.6,0-1,0c0-0.2-0.1-0.4-0.2-0.6c0.4,0,0.7,0,1.1,0C166.1,38.2,166.1,38.3,166.1,38.6z M164.8,37.5c0-0.2-0.4-0.5-0.2-0.7
	c0.5,0,1,0,1.5,0c0,0.2,0,0.5,0.1,0.6C165.6,37.5,165.1,37.5,164.8,37.5z M164.9,35.3c-1.1,0-2.2,0-3.3,0c0-0.2,0-0.5,0.1-0.6
	c1.4,0,2.8,0,4.2,0c0,0.2,0,0.4,0,0.6C165.6,35.1,165.3,35.3,164.9,35.3z M164.3,30.3c0.2,0.1,0.5,0.2,0.7,0.4c-0.2,0-0.6,0-0.9,0
	C164.2,30.7,164.3,30.6,164.3,30.3z M164.2,31.3c0.4,0,0.7-0.1,1.1,0c0.1,0.2,0.2,0.5,0.5,0.7c-0.5,0-1.1,0-1.6,0
	C164,31.8,164.2,31.6,164.2,31.3z M162.7,30.5c0.1,0,0.5,0.1,0.6,0.1c0,0.1,0.1,0.2,0.1,0.4c-0.4,0-0.7,0-1.1,0L162.7,30.5z
	 M162.1,31.6c0.4-0.4,0.9-0.4,1.4-0.2c0,0.1,0,0.2,0,0.2c0,0.1,0,0.2,0,0.4c-0.5,0-1.1,0-1.6,0C161.9,31.9,161.9,31.7,162.1,31.6z
	 M163.4,32.4c0.9,0,1.6,0,2.5-0.1c0,0.1,0,0.5,0.1,0.6c-0.1,0-0.5,0-0.6,0c-1.2,0-2.5,0-3.7,0c0-0.1,0-0.5,0-0.6
	C162.3,32.4,162.8,32.4,163.4,32.4z M165.9,33.5c0,0.1,0,0.4,0,0.5c-1.5,0.1-2.8,0-4.3,0.1c0-0.1,0-0.5,0-0.6
	C163.1,33.5,164.5,33.5,165.9,33.5z M159.2,30.7c0.2,0.1,0.5,0.4,0.7,0.6c-0.6,0.1-1.2,0.2-2,0.2c-0.1-0.2-0.1-0.5-0.2-0.7
	C158.1,30.5,158.7,30.6,159.2,30.7z"/>
<path d="M215.6,47.3c-0.1-0.9-0.6-1.1-1.2-1.2c-0.1,0-0.4,0.1-0.5,0.2c-0.1,0.1-0.4,0.1-0.5,0.2c-0.4,0-0.6,0.1-1,0
	c0-1.5-0.1-3-0.1-4.4c0-0.2,0-0.4,0.1-0.6c0.1-0.4,0.4-0.7,0.7-1c0.6-0.2,1.4-0.1,2,0.1c0.1,0,0.2,0.1,0.4,0.1
	c-0.1-0.4-0.2-0.6-0.4-1c-0.1-0.1-0.2-0.4-0.5-0.5c-0.9-0.7-1.7-1.6-3-1.6c-1-0.1-1.7,0.7-2,1.6c-0.1,0.1-0.2,0.2-0.2,0.4
	c-0.5-0.5-1.1-1.1-1.6-1.7c-0.1-0.1-0.2-0.2-0.2-0.4c-0.2-0.2-0.6-0.2-0.9,0.1c-0.4,0.4-0.7,0.9-1.1,1.2c-0.1,0.2-0.4,0.5-0.6,0.6
	c-0.1-1.8-2.8-2.3-3.9-1.1c-0.1,0.2-0.5,0.5-0.4,0.9c0.2,0.5,0.7,0.7,1.1,1.1c0.6-0.1,1.2-0.4,1.8-0.4c0.4,1,0.2,2,0.2,3
	c0,0.7-0.1,1.6-0.6,2.2c-1.1,1.2-2.8,1.5-4.3,1.2c-0.9-0.1-1.7-0.4-2.1-1.2c-1.4-2.7-1.8-5.8-1.4-8.6c0.2-1.8,1.1-3.6,2.6-4.7
	c1.5-1,3.4-1,5.2-0.6c0.6,0.1,1.1,0.6,1.5,1.1c0.6,1,1.5,1.7,2.2,2.6c0.4,0.5,1.1,0.7,1.7,0.6c-0.2-0.9-0.5-1.8-0.4-2.7
	c0.1-0.7,0.7-1.4,1.5-1.5c0.6-0.1,1.4,0,2,0.2c0.1,0,0.2,0,0.4,0c0-0.2-0.1-0.4-0.1-0.6c-0.1-0.2-0.2-0.4-0.4-0.6
	c-0.7-0.9-1.6-1.5-2.8-1.6c-0.6,0-1.1,0.4-1.5,0.7c-0.1,0.1-0.2,0.2-0.4,0.4c-0.5-0.4-0.9-1-1.5-1.2c-0.6,0.1-1,0.9-1.4,1.2
	c-0.1,0-0.4,0-0.4-0.1c-0.9-0.5-1.8-0.9-3-1.1s-2.2-0.4-3.3-0.2c-1.8,0.1-3.6,0.4-5.2,1.2c-1.5,0.7-2.8,2-3.7,3.4
	c-2.1,3.1-1.8,7.4,0.2,10.3c0.2,0.4,0.5,0.7,0.9,1.1c0.9,1,1.8,1.9,2.8,2.6c2.5,1.8,5.9,2.6,8.9,2.2c1.8-0.2,3.6-1,5.1-2.3
	c0.7,0.6,1.4,1.4,2.2,1.9c0.6-0.6,1.3-1.5,1.9-2.1c1.1,1,1.6,1.7,2.1,2c1.7,0.9,2.3-0.2,2.3-0.2C215.3,48.5,215.7,47.9,215.6,47.3z
	 M201.5,40.2c-0.1-0.2-0.2-0.4-0.4-0.6c0.6-0.7,1.7-0.4,2.2,0.2C202.6,39.8,202.2,40.2,201.5,40.2z M206.8,33c0-0.9,0.4-1.8,1.2-2.3
	c1-0.6,2.1-0.1,3.1,0.2l-0.1,0.2c-0.7,0-1.6-0.2-2.2,0.2c-0.6,0.5-1.1,1.1-1.2,2c0,0.7,0,1.6,0.4,2.2c-0.4-0.2-0.6-0.4-1-0.6
	C207.3,34.3,206.7,33.8,206.8,33z M206.1,31.6h-0.3c-0.1,0.1-0.4,0.1-0.5,0.2c0.1,0.1,0.4,0.1,0.5,0.2c0.1,0.4,0.1,0.6,0,1
	c-0.2-0.1-0.4-0.4-0.4-0.6c-0.2-0.4-0.6-0.6-0.7-1c0-0.1-0.1-0.2-0.1-0.4c0.5,0,1.1,0,1.6,0C206.2,31.1,206.1,31.4,206.1,31.6z
	 M205.2,29.7c0.4,0.2,0.6,0.5,1,0.9l0,0c-0.6,0-1.2,0-1.7,0C204.6,30.3,204.9,30,205.2,29.7z M209.4,43.5c-0.5,0-1,0.1-1.5,0
	c0-0.1,0-0.4,0-0.5c0.5-0.1,1-0.2,1.4,0C209.4,43.1,209.4,43.4,209.4,43.5z M209.5,44c0,0.2,0,0.5,0,0.6c-0.6-0.1-1.2,0-1.8,0
	c0-0.1,0-0.4,0-0.5c0,0,0.1-0.1,0.1-0.2C208.3,44,208.9,44,209.5,44z M208.1,42.4c-0.1-0.1-0.1-0.2-0.2-0.4c0.5-0.1,1-0.1,1.5-0.1
	c0,0.2,0,0.4,0,0.6C208.9,42.5,208.4,42.5,208.1,42.4z M209.3,41.4c-0.6,0-1.1,0-1.7,0.1c-0.1-0.2-0.1-0.5-0.2-0.7
	c0.6,0,1.2,0,1.8,0C209.3,41,209.3,41.3,209.3,41.4z M207.3,38.5c0.1,0.2,0.4,0.5,0.5,0.7c-0.4,0.1-0.9,0.1-1.2,0.1h-0.1
	C206.6,38.9,206.8,38.6,207.3,38.5z M205.5,40.2c0.1-0.1,0.2-0.2,0.5-0.4l0.1-0.1c0.6,0,1.4,0,2,0c0.4,0,0.6,0.2,0.9,0.5
	c0.1,0,0.2,0,0.4,0.1c-1.2,0.2-2.6-0.1-3.8,0.2C205.5,40.4,205.5,40.3,205.5,40.2L205.5,40.2z M207,44c0,0.1,0,0.4,0.1,0.5
	c0,0,0,0.1,0,0.2c-0.6,0-1.2,0-1.8,0c0-0.2,0-0.5,0-0.6C205.7,44,206.3,44,207,44z M205.1,43.5c0-0.2,0-0.4,0-0.6c0.5,0,0.9,0,1.4,0
	c0,0.1,0.1,0.4,0.1,0.5C206.1,43.6,205.6,43.6,205.1,43.5z M205.1,40.8c0.6,0,1.2,0,1.7,0c0,0.2,0,0.7-0.4,0.6c-0.5,0-1.1,0-1.6,0
	C205,41.3,205.1,41,205.1,40.8z M205.2,42c0.5-0.1,0.9-0.1,1.4-0.1c0,0.1,0,0.4,0,0.4c-0.5,0.1-0.9,0.2-1.4,0.2
	c-0.1-0.2-0.1-0.4-0.2-0.6C205,42,205.1,42,205.2,42z M197.4,47.1c0,0.1,0,0.2,0,0.2c-0.2-0.1-0.5-0.1-0.7-0.2
	c-0.5-0.2-1.1-0.4-1.4-0.7v-0.1C196,46.1,196.6,46.7,197.4,47.1z M194.7,45.2c0.2,0.1,0.5,0.4,0.7,0.6c-0.2,0-0.5,0.1-0.7,0.1
	c-0.4-0.1-0.7-0.4-0.9-0.7C194,45.2,194.4,45.2,194.7,45.2z M193.2,44.7c-0.1-0.2-0.2-0.4-0.2-0.6c0.5,0,0.9,0,1.4,0
	c0.1,0.2,0.2,0.5,0.4,0.7C194,45,193.5,45,193.2,44.7z M198.5,30.5c1.4-0.2,2.8-0.1,4.2,0.5c0.1,0.1,0.2,0.2,0.2,0.2
	c-1.1-0.2-2.1-0.4-3.2-0.1c-2,0.2-3.4,1.8-4.2,3.7c-0.4,0.9-0.6,1.8-0.7,2.7c0,0.2-0.1,0.6,0,0.9c0.1,1-0.1,2,0.1,3
	c0.1,1.4,0.7,2.7,1.2,4.1c-0.9-0.9-1.4-2-1.7-3.1c0-0.1-0.1-0.4-0.1-0.5c-0.7-2.6-0.7-5.3,0.2-7.7C195.3,32.3,196.6,30.8,198.5,30.5
	z M195.3,30.3c0.6-0.4,1.4-0.5,2.1-0.7c0,0.1-0.1,0.4-0.1,0.5c-0.6,0.1-1.2,0.6-1.8,0.9c-0.1,0-0.2,0-0.4,0
	C195,30.7,195.1,30.5,195.3,30.3z M194.7,31.1c0.1,0,0.4,0,0.4,0c0,0.1,0,0.2,0,0.4c-0.4,0.6-1,0.6-1.5,0.4
	C193.8,31.3,194.2,31.1,194.7,31.1z M192.8,31h0.1c0-0.1,0-0.4,0-0.4c0.2-0.1,0.5-0.1,0.6-0.2C193.3,30.6,193.1,30.8,192.8,31
	L192.8,31c-0.1,0.4-0.2,0.6-0.5,0.9c-0.4,0.1-0.7,0-1.1,0C191.6,31.3,192.1,31,192.8,31z M190.8,32.2L190.8,32.2
	c0.5,0,0.9,0,1.2,0.1c0,0.1,0,0.4,0,0.5c0.6,0,0.7-0.7,1.2-0.6c0.2,0,0.5,0,0.7,0c0.1,0.5-0.4,0.9-0.7,0.7c-1.1-0.1-2.2,0-3.3,0
	C190.1,32.6,190.5,32.2,190.8,32.2z M189.9,33.3c1.2,0,2.5,0,3.7,0c-0.1,0.2,0,0.5-0.2,0.6c-1.4,0-2.7,0-4.1,0
	C189.4,33.7,189.5,33.3,189.9,33.3z M189.1,34.4c1.4,0,2.7,0,3.9,0c0,0.2-0.1,0.4-0.1,0.6c-1.4-0.1-2.7,0-4.1-0.1
	C188.9,34.8,188.9,34.4,189.1,34.4z M188.5,35.5c0.2,0,0.4-0.1,0.6-0.1c1.2,0,2.5,0,3.7,0c0,0.1,0,0.5,0,0.6c-1.4,0-2.6-0.1-3.8,0
	c-0.1,0-0.4,0-0.5,0C188.4,35.9,188.4,35.8,188.5,35.5z M191.6,38.8c0.2,0,0.5-0.1,0.9-0.1c0.1,0.2,0.1,0.5,0.1,0.6
	c-0.4,0-0.7,0.1-1,0.1C191.6,39.3,191.6,39.1,191.6,38.8z M191.3,37.6c0.4,0,0.7,0,1.1,0c0,0.2,0,0.5,0,0.6c-0.4,0-0.6,0-1,0
	C191.5,38.1,191.5,37.8,191.3,37.6z M192.6,37c-0.1,0-0.5,0.1-0.6,0.1c-0.2,0-0.5,0-0.9,0.1c-0.1-0.2-0.2-0.4-0.4-0.6
	c0.6,0,1.2-0.1,1.7,0C192.6,36.6,192.6,36.9,192.6,37z M191.2,39.9c0.5,0,1,0,1.4,0c0,0.1,0,0.4,0,0.5c-0.5,0-1,0.1-1.5,0
	C191.1,40.4,191.2,40.1,191.2,39.9z M188.6,36.5c0.4,0,0.7,0,1.1,0c-0.1,0.2-0.1,0.4-0.2,0.6c-0.4,0-0.9,0-1.2,0
	C188.1,36.9,188.3,36.5,188.6,36.5z M188.3,37.6c0.4-0.1,0.7-0.1,1,0c0,0.1-0.1,0.4-0.1,0.5c-0.4,0.1-0.6,0.1-1,0.1
	C188.1,38.1,188.1,37.8,188.3,37.6z M188.1,38.8c0.4,0,0.6,0,1,0.1c0,0.2,0,0.4,0,0.6c-0.4,0-0.6,0-1,0
	C188.3,39.2,188.1,39.1,188.1,38.8z M188.3,40.3c0-0.1,0-0.2,0-0.4c0.5,0,0.9,0,1.4,0c0.1,0.2,0.2,0.4,0.2,0.6c-0.5,0-1,0-1.5,0
	C188.4,40.4,188.3,40.3,188.3,40.3z M188.6,41.4c0-0.1-0.1-0.4-0.1-0.4c0.5,0,1,0,1.5,0l0.1,0.1c0,0,0.1,0.1,0.1,0.2
	c0.1,0,0.2,0,0.4,0c0.1-0.1,0.2-0.2,0.4-0.4c0.6,0,1.2,0,1.8,0c0,0.1,0.1,0.4,0.1,0.5c-1.4,0.1-2.8,0.1-4.2,0.1
	C188.8,41.5,188.6,41.5,188.6,41.4z M189.2,42.6c-0.1-0.1-0.1-0.2-0.2-0.4c0,0,0-0.1,0-0.2c1.4,0,2.8,0,4.2,0c0,0.1,0.1,0.4,0.1,0.5
	C191.9,42.6,190.6,42.6,189.2,42.6z M189.5,43.1c1.4,0,2.6-0.1,3.9-0.1c0.2,0.1,0.2,0.4,0.4,0.6c-1.4,0.1-2.7,0.1-3.9,0
	C189.7,43.5,189.6,43.4,189.5,43.1z M190.4,44.4c0,0,0-0.1,0-0.2c0.6,0,1.4,0,2,0c0,0.1,0.1,0.2,0.1,0.4c-0.1,0.1-0.1,0.2-0.2,0.4
	c-0.5,0-1,0-1.5,0C190.6,44.7,190.5,44.6,190.4,44.4z M192.3,46c-0.4,0-0.6-0.4-1-0.6c0.5-0.1,1-0.2,1.5,0c0.1,0.1,0.2,0.4,0.2,0.5
	C192.9,46,192.6,46,192.3,46z M193.1,46.3c0.4-0.4,0.9,0.1,1.1,0.4C193.8,46.8,193.2,46.8,193.1,46.3z M205.5,47.6
	c-2.1,1.5-4.3,1.8-6.9,1.5c-1.7-0.1-3.6-0.6-5-1.5c0.1,0,0.4,0,0.5,0c0.7,0.2,1.1,0.5,1.8,0.6c1.4,0.2,2.7,0.2,4.1,0.1
	c1.6-0.2,3.2-0.6,4.5-1.6c0.1-0.1,0.2-0.2,0.4-0.4l0.1-0.1c0.2,0,0.6,0.2,0.7,0.4c0.1,0.1,0.2,0.2,0.4,0.4
	C206,47.2,205.7,47.3,205.5,47.6z M206.1,45.8c-0.2-0.1-0.6-0.2-0.6-0.6c1,0,2.1,0,3.1,0c0.2,0,0.5,0,0.9,0c0,0.1-0.1,0.2-0.1,0.4
	c-0.1,0-0.2,0.1-0.2,0.1c-0.2,0.1-0.5,0.2-0.6,0.1C207.4,45.7,206.7,45.7,206.1,45.8z M206.5,46.3c0.6-0.1,1.1-0.1,1.7-0.1
	c0,0.1-0.1,0.2-0.1,0.4c-0.2,0.1-0.5,0.4-0.7,0.5C207.1,46.8,206.7,46.7,206.5,46.3z M209.8,47.3c-0.4,0.4-0.7,0.9-1.2,1.2
	c-0.4,0.1-0.9-0.5-0.5-0.9c0.4-0.5,0.7-0.7,1.1-1.2c0.1-0.1,0.2-0.2,0.2-0.4c0,0,0.1,0,0.2-0.1c0.1,0.2,0.2,0.5,0.5,0.9
	C210,47.1,209.8,47.2,209.8,47.3z M211,45.7c-0.1-0.2-0.2-0.6-0.2-0.9c-0.1-1.5-0.4-2.8-0.1-4.3c0.1-0.1,0.1-0.2,0.2-0.5
	c0.2-0.4,0.6-0.6,1-0.7c0.7-0.2,1.6,0.1,2.3,0.2c0.1,0.1,0.2,0.4,0.4,0.5c-0.5,0-0.9-0.1-1.4-0.1s-0.9,0.4-1.2,0.7
	c-0.1,0.2-0.2,0.5-0.2,0.7v0.1l0,0c-0.1,1.6,0,3.3,0.1,4.9C211.5,46.3,211.3,46.1,211,45.7z M214.9,47.9c-0.1,0.4,0,0.5-0.4,0.9
	c-0.2,0.2-0.4,0.2-0.7,0.2h-0.1c-0.6-0.2-1.1-0.5-1.6-0.9c0.5-0.1,1.1-0.1,1.6-0.4c0.5-0.2,0.1-0.6,0.4-1c0.1,0,0.2,0,0.2,0
	C214.8,47.1,215.1,47.4,214.9,47.9z"/>
<path d="M123.1,47.3c-0.2,0.1-0.4,0.2-0.6,0.4c-0.9,0.1-1.7-0.1-2.3-0.6c-0.2-0.1-0.5-0.4-0.7-0.6c-1.5-1.6-2.7-3.3-4.1-4.9
	c-1.1-1.4-2.2-2.7-3.3-3.9c0.7-0.7,1.4-1.6,2.1-2.3c0.7-0.9,1.4-1.8,2.2-2.5c0.6-0.2,1.2-0.5,1.8-0.4h0.1c0.2,0,0.6,0.1,0.9,0
	c-0.1-0.4-0.2-0.6-0.4-1c-0.6-0.7-1.4-1.5-2.5-1.6c-0.6-0.1-1.1,0.1-1.6,0.5c-0.4,0.2-0.6,0.5-0.7,0.9c-0.2-0.1-0.4-0.5-0.6-0.7
	s-0.5-0.4-0.7-0.5c-1-0.1-1.8,0.4-2.3,1.2c-0.5,0.6,0.4,1.2,0.9,1.6c0.4-0.2,0.9-0.4,1.4-0.4c-0.1,0.2-0.1,0.5-0.2,0.7
	c-0.4,0.5-0.7,1-1.2,1.5c-1.1,1.2-2.2,2.5-3.3,3.8c-0.4,0.6-1.1,0.5-1.7,0.5c-0.1-1,0-2.1,0-3.1c0-0.9-0.1-1.7,0.4-2.6
	c0-0.1,0.1-0.1,0.1-0.2c0.6-0.5,1.5-0.6,2.2-0.2c0.2,0.1,0.5,0.1,0.7,0.1c-0.1-0.7-0.6-1.5-1.2-1.8c-0.5-0.4-1-0.9-1.7-1
	c-1.1-0.2-2.3,0.4-2.8,1.4c0,0.1-0.1,0.5-0.1,0.6c-0.4-0.1-0.6-0.5-0.9-0.7c-0.4-0.5-0.7-0.9-1.2-1.4c0,0-0.1-0.1-0.2-0.2
	c-0.2,0.1-0.4,0.2-0.6,0.5c-0.5,0.6-1.1,1.2-1.6,1.8l-0.1-0.1c-0.1-0.9-0.9-1.5-1.7-1.6c-1-0.2-2,0.4-2.6,1.1l0,0
	c-0.2,0.7,0.5,1.1,0.9,1.6c0.4,0,0.6-0.1,1-0.1c0.4-0.1,0.7-0.2,1.1-0.1c0.2,1,0.1,2,0.1,3c0,3.1-0.1,6.1-0.1,9.3
	c0,0.7,0,1.6-0.2,2.2c-0.4,1-1.5,1.1-2.3,0.7c-0.2,0-0.4-0.1-0.6-0.1c0.1,0.7,0.7,1.2,1.2,1.8c0.6,0.6,1.5,1.4,2.5,1.1
	c0.6-0.2,1.4-0.6,1.7-1.2c0.1-0.2,0.2-0.5,0.4-0.7c0.2,0.1,0.4,0.2,0.6,0.5c0.4,0.5,0.7,0.9,1.2,1.2c0.6-0.6,1.2-1.1,1.7-1.7
	c0.1,0,0.2-0.1,0.2-0.2c0.4,0.5,0.6,0.9,1.1,1.2c0.7,0.7,1.7,1.1,2.7,0.7c0.5-0.4,1-0.7,1.2-1.2c0.1-0.1,0.2-0.4,0.2-0.5
	c-0.4-0.5-0.9-1-1.4-1.4c-0.6,0.1-1.1,0.6-1.8,0.5h-0.1v-0.1c-0.1-2.1,0-4.1,0-6.1h0.1c0.7-0.1,1.5-0.1,2.3-0.1
	c0.5,0.6,1,1.1,1.5,1.8c0.7,1,1.6,1.8,2.2,2.8c0.2,0.4,0.4,0.7,0.2,1.1l-0.1,0.1c-0.1,0.2-0.2,0.5-0.5,0.6c-0.6,0.2-1.1-0.1-1.6-0.4
	l-0.1,0.1c0.1,0.5,0.5,0.9,0.7,1.1c0.2,0.4,0.6,0.7,1,1c1,1,2.8,0.7,3.4-0.4c0.2-0.2,0.2-0.7,0.6-0.7c0.5,0.5,1,1,1.5,1.5
	c0,0,0.1,0,0.2,0c0.1-0.1,0.2-0.1,0.4-0.2c0.4-0.5,0.9-0.9,1.2-1.4c0.1-0.1,0.2-0.2,0.4-0.4c0.6,0.4,0.9,1,1.4,1.5
	c0.6,0.6,1.6,1,2.5,0.6c0.6-0.4,1.2-0.9,1.5-1.6c0.1-0.5-0.2-0.7-0.5-1.1C123.7,47.4,123.5,47.1,123.1,47.3z M111.3,32.2
	c-0.4,0-0.7-0.2-0.5-0.6c0.4-0.4,0.9-0.4,1.2-0.2c0.1,0.1,0.2,0.1,0.4,0.2c0,0.1,0,0.2,0.1,0.4C112.1,32.1,111.8,32.2,111.3,32.2z
	 M97,32.2c-0.2,0-0.5,0-0.7,0.1c-0.2,0.1-0.5,0.1-0.9,0.2c-0.1-0.2-0.6-0.5-0.2-0.9c0.7-0.4,1.7,0,2.1,0.7
	C97.1,32.3,97.1,32.2,97,32.2z M102.2,31.6c-0.2,0.1-0.4,0.1-0.6,0.2c0-0.2,0-0.4,0-0.6C101.8,31.2,101.9,31.4,102.2,31.6z
	 M101.4,32.1c0.6-0.1,1.4,0,1.5,0.6c-0.5,0-1.1,0-1.6,0c-0.1,0.1-0.1,0.1-0.2,0.2C101.3,32.8,101.3,32.4,101.4,32.1z M100.7,31.6
	c-0.2,0.4-0.7,0.2-1.1,0.2C100.1,31.9,100.5,30.8,100.7,31.6z M99.2,32.4c0.5-0.4,1-0.2,1.5-0.2c0,0.2,0,0.5,0,0.7
	c-0.6,0-1.1,0-1.7,0.1c0,0,0,0,0-0.1C99.1,32.7,99.2,32.6,99.2,32.4z M98.9,33.3c1.1,0,2.2,0.1,3.3,0c0.2,0,0.5,0,0.7,0
	c0.1,0,0.2,0,0.2,0c0,0.2,0,0.5,0,0.6c-0.5,0-1.1,0-1.6,0c-0.9,0-1.7,0-2.7,0.1C98.9,33.8,98.9,33.4,98.9,33.3z M98.9,34.4
	c1.2,0,2.6,0,3.8,0c0.4,0,0.5,0.4,0.4,0.6c-1.5,0-2.8,0.1-4.3,0.1C98.9,34.9,98.9,34.5,98.9,34.4z M103,36c-1.5,0-2.8,0-4.3,0.1
	c0-0.2,0-0.5,0-0.6c1.4,0,2.8,0,4.2-0.1C103,35.6,103,35.9,103,36z M98.9,36.6c1.4-0.1,2.8-0.1,4.2-0.1c0,0.1,0,0.4,0.1,0.5
	c-0.7,0.1-1.5,0-2.3,0l-0.1,0.1c-0.6,0.1-1.2,0.1-1.8,0.1C98.7,37,98.9,36.9,98.9,36.6z M103,42.6c-1.5,0.1-2.8,0-4.3,0.1
	c0-0.1,0-0.5,0-0.6c0.6,0,1.1-0.1,1.7,0c0,0,0.1,0.1,0.2,0.1l0.1,0.1c0.1,0,0.2-0.1,0.4-0.1c0.5-0.2,1-0.1,1.5-0.2
	C103.2,41.9,103,42.4,103,42.6z M100.2,41.7c-0.5,0-1.1,0-1.6,0c0-0.1,0-0.5,0-0.7c0.4,0,0.9,0,1.2,0
	C100.1,41.2,100.2,41.4,100.2,41.7z M98.7,38.3c0-0.2,0-0.5,0-0.6c0,0,0.1,0,0.2,0c0.5,0,1-0.1,1.5-0.1c0,0.1,0,0.4,0,0.5
	c-0.1,0-0.2,0.1-0.4,0.2C99.6,38.3,99.2,38.3,98.7,38.3z M101.6,38.3c-0.1-0.2-0.1-0.5-0.2-0.7c0.5-0.1,1.1-0.1,1.6-0.1
	c0,0.2,0,0.5,0,0.7C102.6,38.3,102.1,38.3,101.6,38.3z M103,41c0,0.1,0,0.4,0,0.5c-0.5,0-1,0.1-1.6,0.1c0-0.1,0.1-0.4,0.1-0.5
	C101.8,40.7,102.6,41,103,41z M102.1,40.7c0-0.5,0.4-0.7,0.9-0.7v-0.2c0.1,0.2,0.1,0.5,0.1,0.7v0.1
	C102.7,40.5,102.4,40.5,102.1,40.7z M103,39.3c-0.1,0-0.2,0.1-0.4,0.1c-0.1,0-0.4-0.1-0.5-0.1c0-0.2-0.1-0.4-0.1-0.6
	C102.6,38.7,103.3,38.7,103,39.3z M98.7,38.8c0.4,0,0.6,0,1,0c-0.1,0.2-0.1,0.5-0.2,0.6c-0.2,0.1-0.5,0.1-0.7,0.1
	C98.7,39.3,98.7,39.1,98.7,38.8z M98.7,39.9c0.2,0,0.5,0,0.7,0c0.1,0.2,0.1,0.5,0.2,0.6c-0.4,0-0.7,0-1-0.1
	C98.7,40.3,98.7,40.2,98.7,39.9z M98.7,43.4c0.2,0,0.5-0.1,0.6-0.1c1.2,0,2.3,0,3.6,0c0,0.1,0,0.4,0,0.5c-0.5,0-0.9,0-1.4,0.1
	c-1,0-2,0-3,0.1h-0.1C98.6,43.7,98.6,43.5,98.7,43.4z M102.9,44.4c0,0.2,0,0.5,0,0.6c-1.4,0-2.8,0-4.2,0c0-0.2,0-0.4,0-0.6
	c0.1,0,0.2,0,0.2,0c0.7,0,1.6,0,2.3,0C101.8,44.2,102.4,44.2,102.9,44.4z M98.6,49.9L98.6,49.9c-0.5,0.4-0.9,0.6-1.4,0.5
	c-0.6-0.1-1.1-0.5-1.6-1c0.9,0.1,1.7-0.1,2.3-0.9c0.2-0.4,0.4-0.7,0.5-1.1c0.4,0.4,0.7,0.6,1,1C99.6,49,99,49.5,98.6,49.9z
	 M100.3,47.9c-0.1,0-0.2,0-0.4,0c0-0.1-0.1-0.2-0.2-0.2c0.1-0.1,0.2-0.1,0.4-0.2c0.1,0,0.2,0,0.2,0
	C100.3,47.6,100.3,47.8,100.3,47.9z M100.5,46.9c-0.5,0-0.9,0-1.4,0c-0.1-0.1-0.2-0.2-0.4-0.2c0,0,0.1-0.1,0.1-0.2
	c0.5,0,1.1,0,1.6-0.1C100.5,46.6,100.5,46.8,100.5,46.9z M98.7,46.1c0-0.1,0-0.5,0-0.7c1.4,0.1,2.8,0,4.2,0c0,0.1,0,0.5,0,0.6
	C101.6,46,100.1,46,98.7,46.1z M101.3,46.3c0.5,0.1,1,0,1.4,0c0,0.1,0,0.2-0.1,0.5c-0.5,0.2-1.1,0.2-1.6,0.2c0-0.1,0-0.2,0-0.5
	C101.2,46.6,101.3,46.4,101.3,46.3z M102.1,47.3c-0.1,0.2-0.4,0.5-0.7,0.6c0,0-0.1-0.1-0.1-0.2c0-0.1,0-0.2,0.1-0.4
	C101.4,47.4,101.8,47.3,102.1,47.3z M103.4,48.5c-0.5,0.4-1,1-1.5,1.4c-0.5,0.1-0.7-0.4-0.9-0.7c0.6-0.5,1.1-1.1,1.7-1.7
	c0.2,0.2,0.5,0.6,0.6,0.9C103.4,48.4,103.4,48.4,103.4,48.5z M104.5,33.3c0.1-0.6,0.4-1.4,0.9-1.7c0.6-0.4,1.2-0.2,1.8-0.1
	c0.5,0.1,1.1,0.1,1.4,0.7c-0.6,0-1.2,0-1.8,0.1c-0.7,0.2-1.2,1-1.2,1.7c-0.2,1.6-0.1,3.3-0.1,4.9c-0.1,0-0.4,0-0.5,0s-0.4,0-0.5,0
	C104.4,37.1,104.3,35.1,104.5,33.3z M107.6,47.9c0.5,0.1,1.1,0.7,0.7,1.4c-0.4,0.6-1,1.1-1.7,1.1c-0.6-0.1-1.1-0.4-1.5-0.9
	c-0.1-0.1-0.2-0.2-0.2-0.4l0,0C106,49.5,107.1,48.9,107.6,47.9z M105.4,41.2c-0.1,2-0.1,3.9-0.1,5.8c0,0.2,0.1,0.6,0.1,0.9
	c-0.9-0.1-1-1.2-1.1-2.1c-0.1-1.7-0.1-3.6,0-5.3c0-0.1,0-0.2,0-0.4c0.2,0,0.4,0,0.6,0c0.7,0.1,1.7-0.2,2.3,0.2
	c0.1,0.2,0.4,0.5,0.5,0.7C107,41.2,106.2,41,105.4,41.2z M117.1,45.8c-0.6,0-1.2,0-1.7-0.2c0-0.1,0-0.4,0-0.5c0.4,0,0.7,0,1.2-0.1
	C116.7,45.2,117.1,45.5,117.1,45.8z M111.7,35.6c1-1.2,2.1-2.5,3.1-3.6c0.4-0.2,0.6-0.5,1-0.7c0.7-0.5,1.7-0.1,2.5,0.2
	c0,0.1,0.1,0.2,0.1,0.4c-0.9-0.1-1.7,0-2.3,0.6c-0.9,0.6-1.5,1.6-2.3,2.5c-0.7,0.7-1.2,1.6-2,2.2c-0.2-0.2-0.4-0.5-0.5-0.7
	C111.2,36.1,111.5,35.9,111.7,35.6z M110.2,37.2c0.1,0.1,0.4,0.4,0.5,0.5c0,0.1,0.1,0.4,0.1,0.5c-0.2,0-0.5,0-0.6,0s-0.5,0-0.6,0
	C109.7,37.8,109.8,37.6,110.2,37.2z M109.4,38.6c0.5,0,1.1,0,1.6,0c0.1,0,0.2,0,0.2,0c0.2,0.2,0.4,0.5,0.6,0.7c-1.1-0.1-2.2,0-3.3,0
	c-0.1,0-0.2,0-0.2,0C108.6,38.9,108.9,38.6,109.4,38.6z M108.8,40.2L108.8,40.2c-0.1-0.2-0.2-0.4-0.2-0.5c1.2,0,2.5,0,3.7,0
	c0.1,0.2,0.4,0.4,0.5,0.6c-1.2,0.1-2.5,0-3.7,0.1C108.9,40.4,108.8,40.3,108.8,40.2z M109.3,40.9c1.2-0.1,2.6-0.1,3.8-0.1
	c0.1,0.2,0.2,0.4,0.4,0.6c-1.2-0.1-2.5,0-3.8,0C109.7,41.4,109.4,41.2,109.3,40.9z M110.2,42c1.2-0.1,2.5-0.1,3.7-0.1
	c0.2,0.2,0.5,0.4,0.5,0.7c-1.1,0-2.3,0-3.4,0.1C110.5,42.8,110.4,42.3,110.2,42z M111.7,43.6c-0.4,0-0.5-0.4-0.6-0.6
	c1.1,0,2.3,0,3.4,0c0.1,0,0.2,0,0.4,0c0.1,0.1,0.2,0.4,0.4,0.5v0.1C114,43.6,112.9,43.6,111.7,43.6z M111.9,44c1.2,0,2.6,0,3.8,0
	c0.2,0.1,0.4,0.4,0.5,0.6c-0.4,0-0.7,0.1-1.1,0c-0.9-0.1-1.8,0.1-2.7,0.1C112.1,44.6,112,44.4,111.9,44z M114.7,45.8
	c-0.2,0-0.6,0.1-0.9,0.1c-0.5,0-1.1-0.1-1.1-0.7c0.6,0,1.1-0.1,1.7,0C114.6,45.5,114.7,45.6,114.7,45.8z M113.4,50.1
	c-0.5,0.2-1.1-0.1-1.5-0.4c-0.1-0.1-0.4-0.4-0.5-0.5c0.6-0.1,1.2-0.1,1.7-0.5c0.4-0.4,0.5-1,0.6-1.5c0.6,0.2,1,0.7,1.4,1.1
	C114.7,49.2,114.1,49.9,113.4,50.1z M114.8,47.3l0.2-0.1l0.1-0.2c-0.4-0.1-0.6-0.1-1-0.2c-0.1,0-0.2-0.1-0.2-0.1
	c-0.1-0.1-0.2-0.1-0.4-0.2c0.1,0,0.4-0.1,0.5-0.1c0.4,0,0.9-0.2,1.2,0.1c0.1,0.2,0.1,0.4,0.2,0.6c0.1,0.1,0.2,0.1,0.5,0.2
	c0,0.1,0,0.2,0,0.4C115.6,47.7,115.1,47.7,114.8,47.3z M116.2,46.3c0.2-0.1,0.6-0.1,0.9-0.1c0.1,0,0.4,0,0.4,0
	c0.1,0,0.2,0.1,0.2,0.2c0,0.1,0.1,0.4,0.1,0.4c-0.4,0-0.7,0.1-1.1,0C116.6,46.7,116.3,46.6,116.2,46.3z M118.5,48.5
	c-0.5,0.4-0.9,1-1.5,1.2c-0.2-0.2-0.5-0.5-0.6-0.7c0.6-0.6,1.2-1.1,1.7-1.7c0.1,0,0.2,0.1,0.2,0.1c0.1,0.2,0.2,0.4,0.4,0.6
	C118.9,48.2,118.7,48.4,118.5,48.5z M122.7,50c-0.6,0.1-1.2-0.1-1.7-0.5c-0.2-0.1-0.4-0.4-0.5-0.6c0.6,0,1.2,0,1.7-0.4
	c0.4-0.2,0.6-0.6,1-1c0.4-0.1,0.5,0.4,0.7,0.6C124.2,49.2,123.5,49.9,122.7,50z"/>
<path d="M128.7,47.7c-0.6,0.1-1.4-0.1-2-0.4c0,0,0,0.1-0.1,0.2c0.2,0.7,0.9,1.1,1.2,1.7c0.6,0.7,1.6,1.2,2.6,1
	c0.2-0.1,0.4-0.1,0.6-0.2c0.6-0.4,1.1-1,1.4-1.6c0,0,0.1,0,0.2,0c0.5,0.5,0.9,1.1,1.4,1.5c0.2,0.2,0.5-0.1,0.6-0.2
	c0.5-0.4,0.9-0.9,1.4-1.4c0.1-0.1,0.4-0.2,0.5-0.1c0.5,0.5,0.9,1,1.4,1.4c0.5,0.5,1.4,0.7,2.1,0.5c1-0.2,1.6-1.1,1.8-2
	c-0.4-0.4-0.6-0.9-1.1-1.1c-0.6,0-1.1,0.5-1.7,0.5c-0.1-0.1-0.4-0.1-0.4-0.4c-0.1-1.4,0-2.7-0.1-4.1c0-0.6,0-1.2,0-1.8
	c0.6-0.2,1.4-0.1,2-0.1c0.7,0.7,0.7,2,1,3c0.4,1.4,0.7,2.8,1.7,3.8c0.5,0.6,1.1,1.1,1.6,1.6c0.6,0.6,1.7,0.9,2.6,0.6
	c1-0.2,1.6-1,2.2-1.7c0.2,0.4,0.6,0.6,0.9,1c0.5,0.4,1,0.7,1.6,0.7c0.9,0,1.6-0.4,2-1.1c0.4-0.5,0.5-1.1,0-1.5
	c-0.2-0.2-0.5-0.6-0.9-0.6c-0.2,0.1-0.4,0.1-0.6,0.2c-0.2,0.1-0.5,0.1-0.7,0.1c0-0.1-0.1-0.4-0.1-0.5c-0.7-1.6-1.5-3.1-2.5-4.4
	c-0.5-0.6-1-1.1-1.6-1.6c-0.4-0.4-0.9-0.6-1.1-1c1.2-0.4,2.5-0.7,3.3-1.7c0.6-0.5,1-1.2,1.1-2c0.2-1.4-0.5-2.6-1.4-3.4
	c-0.2-0.2-0.6-0.5-0.9-0.7c-1.4-1.2-3.1-2-4.9-2.2c-1.1-0.1-2.1-0.2-3.2-0.1c-0.2,0-0.5,0.1-0.7,0.1c-0.1,0-0.2,0-0.4,0
	c-1.4,0.1-2.7,0.9-3.6,2c-0.7-0.7-1.2-1.5-2-2.2c-0.1-0.1-0.5-0.2-0.6,0c-0.6,0.6-1.2,1.4-1.7,2.1c-0.2-0.4-0.4-0.9-0.7-1.2
	c-0.5-0.4-1.2-0.6-1.8-0.5c-0.7,0.1-1.4,0.6-1.7,1.1c-0.4,0.4,0.1,0.9,0.4,1.1c0.3,0.2,0.4,0.5,0.7,0.5c0.2-0.1,0.6-0.1,0.9-0.2
	c0.2,0,0.5-0.1,0.7-0.1c0.2,0.7,0.1,1.6,0.2,2.5c0,3.7,0.2,7.4,0,11.1C129.7,46.3,129.6,47.3,128.7,47.7z M139,48.7
	c0.7-0.2,1-1,1.7-1.2c0.1,0.4,0.5,0.6,0.4,1c-0.2,0.6-0.9,1.2-1.6,1.2c-0.6,0.1-1.1-0.4-1.6-0.6c0-0.1,0-0.2,0-0.2
	C138.2,48.8,138.6,48.8,139,48.7z M138.1,40.7c-0.1,0.2-0.1,0.6-0.1,0.9c0.1,1.7,0,3.6,0.1,5.3c0,0.1,0,0.4,0,0.5
	c-0.6-0.4-0.9-1-1-1.6c-0.2-2-0.1-4.1-0.1-6c0.9,0,1.7,0,2.6,0.4c0.2,0.1,0.5,0.4,0.7,0.6C139.4,40.7,138.7,40.5,138.1,40.7z
	 M141.3,40.1c-0.4-0.1-0.6-0.2-0.9-0.5c0.4-0.1,0.7-0.1,1.1,0c0.4,0.1,0.6,0.1,1,0.1c0,0.1,0.1,0.2,0.1,0.2c-0.2,0-0.5,0-0.7,0
	C141.7,40.1,141.5,40.1,141.3,40.1z M143.7,36c0,0,0.1,0,0.2,0c1.2,0,2.5-0.1,3.7-0.1c-0.1,0.2-0.1,0.4-0.2,0.6
	c-0.2,0-0.4,0.1-0.6,0.1c-1.1,0-2.1,0-3.2,0.1C143.6,36.5,143.6,36.2,143.7,36z M143.7,32.7c0.2,0,0.5-0.1,0.7-0.1
	c0.4,0,0.7,0,1,0.4c0,0.1,0.1,0.2,0.1,0.2c-0.1,0-0.5,0-0.7,0.1c-0.4,0-0.7,0-1,0C143.9,33,143.7,32.9,143.7,32.7z M146.2,37
	c0.1,0,0.4,0,0.5,0c-0.4,0.6-1.1,0.6-1.6,0.7c-0.7,0.1-1.5,0.1-2.2,0.1c0-0.1,0.1-0.4,0.1-0.4c0.1-0.1,0.2-0.2,0.5-0.4
	C144.4,37.1,145.2,37,146.2,37z M143.1,38c0.1,0,0.4,0.1,0.5,0.2c-0.6,0.4-1.5,0.4-2.2,0.4c0,0,0,0,0-0.1l0.1-0.1
	c0.1-0.1,0.2-0.2,0.2-0.2c0.2-0.1,0.4-0.1,0.6-0.2C142.8,38.1,143,38.1,143.1,38z M141.7,40.4c0.7,0,1.5-0.1,2.3,0
	c0.2,0.1,0.5,0.4,0.7,0.6c-0.9,0.1-1.8,0.1-2.8,0.1C141.7,41,141.8,40.7,141.7,40.4z M142,41.7c0.1,0,0.2-0.1,0.4-0.1
	c0.9,0,1.8-0.1,2.7-0.2c0.2,0.2,0.5,0.5,0.7,0.9h-0.2c-1-0.1-2,0-3.1,0.1c-0.1,0-0.2,0-0.4,0C142.1,42,142.1,41.9,142,41.7z
	 M142.5,42.6c1.2,0,2.3,0,3.6-0.1c0.2,0.2,0.4,0.5,0.5,0.7c-0.7,0-1.4,0-2.1,0c-0.6,0-1.4,0.1-2,0C142.5,43,142.5,42.9,142.5,42.6z
	 M142.6,43.7c0.4,0,0.7,0,1.1,0c1,0,2.1,0,3.1-0.1c0.1,0.2,0.2,0.5,0.4,0.7c-1.5,0.1-3,0-4.4,0.1C142.8,44.1,142.8,43.9,142.6,43.7z
	 M143,44.7c1.5-0.1,3,0,4.3,0c0,0.1,0.1,0.2,0.1,0.4s0,0.2,0.1,0.2c-0.7,0-1.5,0-2.2,0c-0.1-0.2-0.4-0.4-0.6-0.4c0,0.1,0,0.2,0,0.4
	c-0.5,0-1.1,0.1-1.6,0C143.1,45.2,143,44.9,143,44.7z M147.9,45.8c0,0.1,0,0.4,0,0.6c-0.6,0-1.4,0-2,0c-0.1-0.1-0.4-0.2-0.4-0.5
	c0.5-0.2,1.1-0.1,1.7-0.1C147.4,45.8,147.8,45.8,147.9,45.8z M143.3,46.1c0.5-0.1,1.1-0.1,1.6-0.1c0,0.1,0.1,0.2,0.1,0.4
	c-0.1,0-0.4,0.1-0.5,0.1c-0.4,0-0.7,0-1.1,0C143.4,46.3,143.3,46.2,143.3,46.1z M143.9,47.1L143.9,47.1c0.4-0.1,0.7-0.1,1.1-0.1
	c0.4,0.2,0.5,0.6,0.7,0.9c0.1,0.1,0.1,0.1,0.2,0.2c-0.1,0-0.5,0-0.6,0.1c-0.4-0.1-0.6-0.2-1-0.5C144.2,47.4,144,47.3,143.9,47.1z
	 M147.3,49.5c-0.7,0.4-1.6,0-2.2-0.4c-0.1-0.1-0.4-0.2-0.5-0.5v-0.1c0.7,0.1,1.5,0.1,2.2,0c0.7-0.2,1.2-0.9,1.6-1.5
	c0.2,0.2,0.6,0.5,0.6,0.9C148.8,48.8,148.1,49.3,147.3,49.5z M152.8,47.9c0.1-0.1,0.2-0.4,0.4-0.4s0.5,0.2,0.6,0.5
	c0,0.9-0.7,1.6-1.5,1.8c-0.6,0.1-1.1-0.4-1.6-0.6c-0.1-0.1-0.2-0.2-0.4-0.4h0.1C151.4,48.5,152.2,48.5,152.8,47.9z M149,36
	c0.5-1,0.2-2.1-0.1-3.2h0.1c1.1,1.2,1.7,3.3,0.6,4.8c-0.1,0.1-0.2,0.2-0.4,0.4c-1.1,1-2.5,1.4-3.8,1.6c-0.1,0-0.2,0.1-0.4,0.1
	c1,0.4,1.7,1.1,2.5,1.8c1.6,1.6,2.6,3.7,3.6,5.7c0,0-0.1,0.1-0.2,0.2c-0.5-0.4-0.9-0.7-1.1-1.1c-0.4-0.5-0.6-1.1-0.9-1.7
	c-0.5-1.2-1.2-2.3-2.2-3.3c-0.9-0.9-1.8-1.4-3-2c0.6-0.2,1.2-0.2,1.8-0.4C147.1,38.5,148.5,37.5,149,36z M147.9,35.5
	c-1.4-0.1-2.7,0-3.9,0c0-0.2,0-0.4,0-0.6c1.4-0.1,2.7,0,4.2-0.1C147.9,35,147.9,35.3,147.9,35.5z M147.9,34.3
	c-1.4,0-2.7,0.1-4.1,0.1c0-0.1,0-0.5,0-0.6c0.5,0,0.9,0,1.4,0c0.9,0,1.7,0,2.7,0C147.9,33.8,147.9,34.2,147.9,34.3z M147.8,33.2
	c0,0-0.1,0.1-0.2,0.1c-0.5,0-1,0-1.5,0c0-0.1,0-0.2,0-0.4c0-0.1,0-0.1,0-0.2c0.1,0,0.4-0.1,0.5-0.1c0.2,0,0.6,0.1,0.9,0.1
	C147.6,32.8,147.7,32.9,147.8,33.2z M146.3,31.4c0.2,0.2,0.4,0.4,0.6,0.6c-0.4,0.1-0.7,0.1-1.2,0.1c-0.2-0.1-0.4-0.2-0.5-0.4
	c0-0.1-0.1-0.2-0.1-0.4C145.6,31.4,146,31.4,146.3,31.4z M144.2,30.5c0.4,0.1,0.7,0.2,1,0.4l0.1,0.4c-0.2,0-0.4,0.1-0.6,0.1
	c-0.2-0.1-0.5-0.2-0.7-0.5c0,0-0.1-0.1-0.1-0.2C144,30.5,144.2,30.5,144.2,30.5z M143.4,30.7c-0.2,0.6,0,0.8,0.4,0.8
	c0.4,0.2,0.6,0.4,1,0.6c-0.4,0.1-0.9,0.1-1.2,0.1c-0.2-0.4-0.5-0.7-0.7-1.2h-0.2C142.6,30.7,143.2,30.8,143.4,30.7z M140.4,38.3
	c-0.6,0.1-1.4,0.2-2,0.2c0-0.2,0-0.4,0-0.6c0-1.5-0.1-2.8,0.1-4.3c0.1-0.6,0.5-1.2,1.2-1.4c0.9-0.1,1.8-0.2,2.7,0.2
	C143.4,34.4,142.5,37.3,140.4,38.3z M137.6,31.6c0.5-0.5,1.1-0.6,1.7-0.7c0.6,0,1.1,0,1.7,0.2c0.4,0.2,0.9,0.4,1,0.9
	c-0.9-0.1-1.6-0.4-2.5-0.1c-0.9,0.2-1.5,1-1.6,2c-0.2,1.6,0,3.2,0,4.8c-0.4,0-0.6,0-1,0c0.1-1.7,0-3.4,0-5.2
	C136.9,32.7,137,31.9,137.6,31.6z M128.4,31.9c-0.1,0-0.2,0-0.4,0c-0.4-0.1-0.6-0.4-0.6-0.9c0.6-0.2,1.4-0.2,1.8,0.2
	c0.1,0.1,0.2,0.2,0.2,0.2C129.1,31.7,128.7,31.8,128.4,31.9z M133,47.4c-0.2,0.2-0.5-0.2-0.6-0.4c0.2,0,0.5-0.1,0.7-0.1
	C133,47.1,133,47.3,133,47.4z M133.2,46.6c-0.5,0.1-1,0.1-1.5,0c-0.1-0.1-0.2-0.2-0.4-0.2c0,0,0.1-0.1,0.1-0.2c0.6,0,1.1,0,1.7,0
	C133.2,46.2,133.2,46.4,133.2,46.6z M133.8,46.6c0-0.1,0-0.4,0-0.5c0.6-0.1,1.2-0.1,1.8-0.1l-0.1,0.1l0,0c-0.1,0.1-0.2,0.2-0.2,0.4
	c-0.1,0-0.4,0.1-0.5,0.1c0.1,0.5-0.4,0.9-0.9,0.7c0-0.1,0-0.4,0.1-0.5c0.2,0,0.5-0.1,0.7-0.4C134.3,46.6,134,46.6,133.8,46.6z
	 M135.8,46.9c0.1,0.2,0.1,0.5,0.2,0.9c-0.1,0-0.2,0.1-0.2,0.2c-0.5,0.5-0.9,1-1.4,1.4c-0.2-0.1-0.6-0.4-0.6-0.7
	C134.5,48.2,135,47.3,135.8,46.9z M131.6,43.9c1.4,0,2.6,0,3.9-0.1c0,0.2,0,0.5,0,0.6c-0.5,0-1,0-1.6,0c-1,0-1.8,0-2.7,0.1
	c0-0.2,0-0.4,0-0.6C131.5,43.9,131.6,43.9,131.6,43.9z M131.3,43.4c0-0.1,0-0.4,0-0.5c1.4,0,2.8,0,4.2-0.1c0,0.1,0,0.4,0,0.5
	c-0.9,0-1.7,0-2.6,0C132.4,43.3,131.8,43.4,131.3,43.4z M131.3,42.4c0-0.2,0-0.5,0.1-0.6c0.6,0,1.1,0,1.7,0c0.1,0.1,0.2,0.4,0.5,0.2
	c0.6-0.4,1.2-0.2,1.8-0.2h0.1c0,0.2,0,0.4,0,0.6C134.2,42.4,132.7,42.3,131.3,42.4z M134,40.8c0.4-0.4,1-0.1,1.5-0.2
	c0,0.2,0,0.4,0,0.6c-0.5,0-1,0.1-1.5,0.1C134,41.2,134,40.9,134,40.8z M133.9,37.1c0.5,0,0.9,0,1.4,0c0.1,0,0.2,0,0.2,0
	c0,0.2,0.1,0.7-0.2,0.6C134.6,38,134,37.8,133.9,37.1z M135.6,40.1c-0.4,0-0.6,0-1,0c0-0.2,0-0.6,0.4-0.7c0.2,0,0.5,0,0.6,0
	C135.6,39.6,135.6,39.8,135.6,40.1z M134.6,38.8c0-0.2,0-0.4,0-0.6c0.4,0,0.6,0,1,0c0,0.2,0,0.4,0,0.6
	C135.3,38.8,135,38.8,134.6,38.8z M133,36.6c-0.6,0-1.2,0-1.7,0.1c0-0.2,0-0.5,0-0.6c1.4,0.1,2.8,0,4.2,0c0,0.2,0,0.4,0,0.6
	C134.8,36.7,133.9,36.6,133,36.6z M132.8,37.1l-0.1,0.2c-0.1,0.1-0.2,0.4-0.4,0.5c-0.4,0-0.7,0-1.2,0c0-0.2,0-0.4,0-0.6
	C131.8,37.2,132.3,37.2,132.8,37.1z M132.2,38.8c-0.2,0.1-0.6,0.2-0.9,0.2c0-0.2,0-0.5,0-0.7c0.4,0,0.6,0,1,0
	C132.2,38.5,132.2,38.6,132.2,38.8z M132.2,40.2c-0.2,0-0.5,0-0.9,0c0-0.2,0-0.5,0-0.7c0.2-0.1,0.5-0.1,0.7,0
	C132.2,39.7,132.3,39.9,132.2,40.2z M132.8,40.7c0,0.1,0,0.4,0.1,0.5c-0.2,0-0.5,0-0.7,0s-0.6,0-0.9,0c0-0.2,0-0.4,0-0.6
	C131.8,40.5,132.3,40.5,132.8,40.7z M135.5,34.4c-1.2,0-2.5,0-3.8,0.1c-0.1,0-0.4,0-0.5,0c0-0.2,0-0.5,0-0.6c1.4-0.1,2.7,0,4.1-0.1
	c0.1-0.1,0.2-0.2,0.4-0.2C135.5,33.9,135.5,34.2,135.5,34.4z M133.9,31.1c0.1-0.1,0.2-0.1,0.4-0.2c0.1,0.1,0.2,0.2,0.4,0.4
	c-0.2,0-0.5,0.1-0.7,0.1C133.8,31.2,133.9,31.1,133.9,31.1z M133,31c0,0.1,0,0.2,0,0.4c-0.2,0-0.5,0-0.7,0
	C132.4,31,132.7,30.8,133,31z M133,31.6c0,0.2,0,0.5,0,0.7c-0.5,0-1,0-1.5,0C131.6,31.6,132.4,31.6,133,31.6z M135.1,32.8
	c0-0.1,0-0.4,0-0.5c-0.5,0-1,0-1.5,0c0-0.2,0.1-0.5,0.1-0.7c0.5,0,1.1-0.2,1.4,0.4l0.1-0.1c0.1,0.1,0.2,0.4,0.2,0.5
	c0,0,0,0.1,0.1,0.1c-0.1,0.2,0,0.5-0.1,0.9c-1.5,0-2.8,0-4.3,0.1c0-0.2,0-0.5,0-0.7C132.6,32.8,133.9,32.7,135.1,32.8z M131.3,35
	c1.4,0,2.8,0,4.2-0.1c0,0.2,0,0.5,0,0.6c-1.5,0-2.8,0-4.3,0.1C131.3,35.4,131.3,35.3,131.3,35z M131.2,45c1,0,2,0,3,0
	c0.5,0,0.9,0,1.4,0c0,0.1,0,0.5,0,0.6c-0.6,0-1.2,0-1.7,0c-0.7,0-1.5,0-2.2,0.1C131.1,45.7,131.2,45.2,131.2,45z M131,47.7
	c0.1-0.2,0.2-0.7,0.6-0.5c0.2,0.2,0.9,0.5,0.6,1c-0.4,0.7-1,1.5-1.8,1.7c-0.6,0-1.4-0.2-1.7-0.7c0.1,0,0.2,0,0.4,0
	C129.7,48.9,130.6,48.4,131,47.7z"/>
<g>
	<path d="M208.4,65.9c0.7-0.4,1.5-0.6,2-1.1c0.7-0.5,1-1.4,1.1-2.2c0.2-2-0.1-4-1-5.7c-0.9-1.5-2.2-2.7-3.9-3.2
		c-0.4,0-0.8-0.2-1.1,0.1c-1,0.8-1.4,1.7-2,2.7c-1.4,2.7-2.6,5.5-3.6,8.4c-0.6,2.1-1.2,4.2-1.3,6.3c-0.3,1.2-0.5,2.4-0.4,3.7
		c0.1,0.3,0.5,0.4,0.5,0.4c0.8,0,1.6,0.1,2.3-0.2c0.3-0.3,0.4-0.6,0.6-0.9c0.5-1.7,0.5-3.4,0.8-5.1c0.2-1.2,0.2-2.4,0.8-3.4
		c0.7,0.3,1.2,0.6,1.7,1c1.2,1.1,2.3,2.1,3.3,3.4c1.5,1.8,2.7,3.8,3.5,6c1.1-0.1,1.9-1,2.7-1.6c-0.5-1.2-1.1-2.6-2-3.6
		C211.2,69,209.7,67.6,208.4,65.9z M206.8,63.1c-0.8,0.4-1.9,0.5-2.5-0.4c-0.2-0.9,0.5-1.7,0.7-2.5c0.7-1.2,1-2.6,2.1-3.6
		c0.9,0.6,1.7,1.5,1.9,2.6C208.8,60.8,208.1,62.5,206.8,63.1z"/>
	<path d="M182.1,59.9c-0.3-0.1-0.6-0.4-0.8,0l-0.1,0.4c0.1,2.1-0.2,4.4-0.6,6.5c-0.6,2.2-1.3,4.5-2,6.8c-0.6,1.3-0.9,2.8-1.2,4.2
		c0,0.1-0.1,0.4-0.2,0.5c-0.1-0.1-0.3-0.4-0.4-0.5v-0.1c-0.2-0.9-0.6-1.7-0.8-2.7c-0.5-1.7-0.8-3.5-1.1-5.2
		c-0.3-1.5-0.4-3.1-0.6-4.7c0-0.9-0.1-2-0.8-2.7c-0.1,0-0.4-0.1-0.5-0.2c0,0.5,0.1,1.1,0.1,1.6c0,0.1,0,0.4,0,0.5
		c0,0.7,0,1.2-0.1,1.9c0,0.1-0.3,1.3-0.3,1.4c-0.2,1.1-0.2,2.2-0.1,3.4c0.1,0.9,0.6,1.7,0.6,2.8c0.1,1.9,1.1,3.5,1.7,5.2
		c0.5,1.1,1.1,2.2,2.2,2.6c0.5,0.3,1.2,0.7,1.7,0.3c0.1-0.1,0.3-0.3,0.3-0.4l0,0c0.5-0.5,0.9-1.8,1-2.4c0.3-1.1,0.6-2,0.9-3
		c0.3-1.6,0.9-3,1.2-4.7c0.4-1.3,0.6-2.6,0.9-3.9c0.3-1.7,0.3-3.4,0.6-5.2c0-0.4,0-0.8-0.1-1.2C183,60.5,182.6,60.3,182.1,59.9z"/>
	<path d="M170.2,70c-0.6-1.3-1.2-2.8-2.2-3.9c-1.4-1.1-3.2-2-5-2.4c-1.6-0.3-3.2,0-4.7,0.8c-1,0.8-2,1.4-2.5,2.6
		c-0.3,0.7-0.6,1.4-0.6,2.1c0,0.5,0,1.2-0.1,1.7c0.1,0.5,0.6,1,0.6,1.5c0.1,0.9-0.6,1.8-0.8,2.8c-0.2,0.5-0.2,1.1-0.2,1.6
		c0.1,1.1-0.2,2-0.2,2.9c0,1.2,0.3,2.3,0.7,3.2c0.1,0.3,0.4,0.5,0.6,0.7c0.5,0.8,1.3,1.6,2.2,2.1s2,1,3,0.8c0.5-0.1,1.2-0.2,1.7-0.3
		c1.9-0.3,3.5-1.6,4.6-3.2l0,0c1.8-1,2.5-4.4,3-6.1c0.3-1.6,0.2-3.3,0.2-4.9C170.6,71.3,170.4,70.7,170.2,70z M167.7,76.1
		c-0.7,1.3-1,2.9-1.7,4.2c-0.4,0.6-0.7,1.3-1,1.8c-0.4,0.5-1,0.9-1.5,1.4c-0.7,0.6-1.5,0.9-2.3,1.2c-0.8,0.1-1.7-0.2-2.4-0.9
		c-0.9-1-1.1-2.2-1.3-3.4c-0.1-1.5,0.1-2.9,0.3-4.5c0-0.3,0-0.5-0.1-0.8c0-0.3,0.2-0.5,0.2-0.8c0.2-0.7,0.3-1.3,0.5-1.8
		c0.2-0.9,0.5-2,0.9-2.8c0.1-0.4,0.6-0.8,0.6-1.2c-0.4-0.3-0.8-0.3-1.3-0.3c-0.3,0.3-0.4,0.5-0.6,0.8c-0.1,0.3-0.4,0.6-0.7,0.9v-0.3
		c0-0.5,0.4-1,0.7-1.6c0.7-0.8,1.4-1.7,2.3-2c1.9-0.9,4,0,5.4,1.2c0.4,0.3,0.8,0.7,1.2,1.1c0.5,0.5,0.9,1.1,1.3,1.6
		c0.1,0.1,0.1,0.3,0.3,0.4c-0.3,0.7,0.1,1.3,0.1,2.1C168.1,73.6,168.2,74.9,167.7,76.1z"/>
	<path d="M194.3,67c-0.1,0.1-0.4,0.3-0.5,0.4c-0.4,0.4-0.8,0.6-1.1,1c-0.3,0.3-0.7,0.6-1,0.8c-0.7,0.4-1.4,0.7-2,1.3
		c-0.4,0.4-0.8,0.8-1.2,1.2c-0.1,0.1-0.4,0.3-0.5,0.4c-0.5,0.2-0.7,0.9-0.6,1.4c0.1,0,0.4,0,0.5,0c0.3-0.1,0.7-0.2,0.9-0.4
		c0.8-0.2,1.5-0.6,2.2-1.1c1.2-0.5,2.2-1.3,3.1-2c0.5-0.4,1-0.9,1.5-1.3c0.3-0.1,0.4-0.3,0.7-0.4c-0.1-0.4-0.2-0.9-0.5-1.3
		C195.4,66.7,194.7,66.8,194.3,67z"/>
	<path d="M194.8,74.2c-0.7,0.2-1.2,0.8-1.8,1.1c-1.1,0.6-2.3,1-3.5,1.3c-0.9-0.4-1.6-1.1-1.9-2.1c-0.1-0.3-0.2-0.5-0.4-0.8
		c-0.5-1.3-0.2-2.8-0.1-4.1c0.2-1.2,0.1-2.4,0.6-3.4c1.2-1.4,2.7-2.6,4.2-3.7c0.1-0.1,0.3-0.3,0.3-0.3c1-0.8,2-1.5,3.1-2.3
		c1.2-0.8,2.3-1.8,3.5-2.7c0.1-0.1,0.4-0.3,0.5-0.5c0-0.4-0.2-0.7-0.5-0.9c-0.6-0.4-1.3,0.1-1.9,0.5c-1,0.8-1.9,1.4-3,2.1
		c-0.7,0.5-1.4,1.3-2.1,1.8c-1,0.8-1.9,1.7-2.9,2.4c-0.4,0.5-0.8,1-1.2,1.5h-0.1c0-0.3,0-0.7,0-0.9c0.2-0.5,0.4-1,0.6-1.7
		c0-0.1,0-0.3,0-0.4c-0.2-0.7-1.3-1-1.7-0.3c-1.1,1.4-1.2,3.3-1.8,4.8c-0.2,0.7-0.6,1.2-0.6,2c-0.2,1.2-0.5,2.4-0.3,3.6
		c0.1,0.7,0.1,1.5,0.1,2.3c0.3,1.5,1.1,3.1,2.4,3.9c0.8,0.7,2,0.9,2.9,0.9c0.3,0,0.4-0.1,0.7-0.2l0,0c1.5-0.6,3.1-1,4.4-1.8
		c0.4-0.4,0.6-0.9,0.8-1.3C195.6,74.6,195.4,74.1,194.8,74.2z"/>
	<path d="M152.1,79.9c-0.8,0-1.5,0.5-2.2,0.9c-0.7,0.2-1,1-1.6,1.3c-0.9,0.4-1.8,1.1-2.6,1.6c-1.6,1.1-3,2.5-4.2,4
		c-0.3,0.3-0.4,0.5-0.7,0.6c0-0.1-0.1-0.3-0.1-0.4c0-0.3,0-0.5,0.2-0.9c0.2-1.6,0.4-3.2,0.8-4.6c1.3-4.5,2.6-8.8,4.2-13.1
		c0.1-0.4,0.3-0.8,0-1.2c-0.1-0.4-0.5-0.7-0.9-0.8c-0.3-0.1-0.4,0-0.4-0.1c-1,1.4-1,3-1.7,4.4c-0.3,0.5-0.3,1.2-0.6,1.8
		c-0.3,0.5-0.4,1-0.6,1.6c-0.2,0.9-0.9,1.8-1,2.7c-0.5,1.7-1.2,3.4-1.5,5.1c-0.3,1.2-0.3,2.4-0.7,3.6c-0.2,1.3-0.4,2.8-0.1,4.1
		c0,0.5,0.4,1.1,0.7,1.5l0.1-0.3c0.1,0.1,0.3,0.3,0.3,0.4c0.1,0.1,0.4,0.3,0.5,0.4c0.3-0.1,0.7-0.4,0.8-0.6c0.8-1.4,2-2.8,3.3-4
		c2.3-1.8,4.6-3.6,7.2-5.1c0.5-0.4,1.3-0.6,1.8-1.1C153.2,81.1,152.9,80,152.1,79.9z"/>
</g>
</svg>
