<?xml version="1.0" encoding="utf-8"?>
<!-- Generator: Adobe Illustrator 26.0.3, SVG Export Plug-In . SVG Version: 6.00 Build 0)  -->
<svg version="1.0" id="Слой_1" xmlns="http://www.w3.org/2000/svg" xmlns:xlink="http://www.w3.org/1999/xlink" x="0px" y="0px"
	 viewBox="0 0 239.5 150.2" style="enable-background:new 0 0 239.5 150.2;" xml:space="preserve">
<style type="text/css">
	.st0{fill:#1D1D1B;}
</style>
<g>
	<path class="st0" d="M112.1,98.4c-0.1-1.4,0.2-3.5-1.3-4.3c-1.5-0.9-3.5,0.5-3.3,2.2c0,4-0.3,8.1,0.2,12.2c0.4,1.9,3.7,2,4,0
		C112.4,105.1,111.9,101.8,112.1,98.4z"/>
	<path class="st0" d="M107.8,87c0.5,1.3,2,1.4,3.1,0.9c1.2-0.9,1-2.6,1.1-3.9c0-6.1,0-12.1,0-18.2c-0.1-1.1,0-2.3-0.5-3.3
		c-0.5-0.9-1.7-0.9-2.6-0.7c-1.4,0.5-1.4,2.3-1.4,3.5c0,5.9,0,11.8,0,17.7C107.5,84.3,107.4,85.7,107.8,87z"/>
	<path class="st0" d="M121.3,74.6c-0.4-1.3-2.2-1.5-3.2-0.9c-0.9,0.6-0.9,1.8-1,2.7c0.2,10.6,0.1,21.2,0,31.8c0.4,2.6,4.7,2,4.4-0.6
		c0.1-9.4,0-18.9,0.1-28.3C121.6,77.7,121.7,76.1,121.3,74.6z"/>
	<path class="st0" d="M121.5,65.8c0.3-2.5,0.1-5,0.1-7.5c-0.1-1,0.1-2.3-0.8-3c-1.2-1.2-3.6-0.3-3.5,1.5c-0.2,3.1-0.3,6.3,0.1,9.5
		C117.8,68.3,121.6,68,121.5,65.8z"/>
	<path class="st0" d="M129.9,94.8c-1.4-0.7-3.1,0.5-3,2c-0.2,2.6-0.3,5.3,0.2,7.8c0.7,1.8,3.8,1.5,4.1-0.4c0.4-2.3,0.3-4.6,0.2-6.9
		C131.2,96.4,130.9,95.2,129.9,94.8z"/>
	<path class="st0" d="M130.6,90.4c1-1.4,0.7-3.2,0.7-4.8c-0.1-5,0.1-10-0.1-15c0-1.6-1.7-2.5-3.1-1.9c-1.3,0.4-1.3,1.9-1.4,3
		c-0.1,4.5,0.1,8.9,0,13.4c0,1.5-0.1,3.1,0.3,4.6C127.4,91.1,129.5,91.2,130.6,90.4z"/>
	<path class="st0" d="M126.9,55.6c0,2.4-0.2,6,0.3,6.4c1.2,1.1,3.9,0.9,3.8-1c0.2-3.4,0.1-6.4,0.2-9.6c-0.1-2.4,0.2-4.3-0.1-7.2
		c-0.2-1.4-3.8-1-4.1,0.3C126.8,46.4,126.9,51.6,126.9,55.6z"/>
	<path class="st0" d="M140.7,68.1c-0.2-1.9-3.3-2.1-4-0.4c-0.3,1-0.3,2-0.3,3c0,9.1,0,18.2,0,27.3c0,0.8,0,1.7,0.2,2.5
		c0.3,1.7,2.6,1.8,3.7,0.8c0.6-1,0.5-2.2,0.6-3.3c0-8,0-16,0-24.1C140.8,71.9,141,70,140.7,68.1z"/>
	<path class="st0" d="M139.5,48.2c-1.3-0.6-3,0.2-3,1.7c-0.3,3.3-0.4,6.6,0.2,9.9c0.9,1.6,3.5,1.3,4-0.4c0.4-2.8,0.2-5.7,0.2-8.5
		C140.7,49.9,140.8,48.4,139.5,48.2z"/>
	<path class="st0" d="M146.3,96c-0.4,1.4-0.4,3,0,4.4c0.4,1.9,3.6,2,4,0.1c0.4-1.5,0.4-3.1-0.1-4.5C149.6,94.2,146.8,94.3,146.3,96z
		"/>
	<path class="st0" d="M150.2,67.7c-0.6-1.4-2.8-1.6-3.7-0.4c-0.6,0.8-0.5,1.8-0.5,2.8c0,5.2,0,10.3,0,15.5c0,1.4,0,2.8,0.3,4.1
		c0.5,1.7,3.4,1.7,3.9,0c0.4-1.1,0.3-2.4,0.3-3.6c0-5,0-10,0-15C150.5,70,150.6,68.8,150.2,67.7z"/>
	<path class="st0" d="M146.3,59.7c0.7,1.5,3.6,1.4,4-0.4c0.4-2.1,0.2-4.2,0.2-6.3c-0.1-2.7,0.2-5.3-0.1-8c-0.1-1.5-2-2.5-3.2-1.6
		c-1.5,0.8-1,2.9-1.2,4.3C146.2,51.7,145.6,55.8,146.3,59.7z"/>
	<path class="st0" d="M159.1,68.9c-1-0.6-2.7-0.3-3.1,0.9c-0.3,1.1-0.3,2.3-0.3,3.5c0.1,9.6,0,19.3,0,28.9c0,0.8,0.1,1.7,0.3,2.4
		c0.4,1.3,2.1,1.4,3.1,0.9c1.1-0.7,1.1-2.2,1.1-3.3c0-10,0-20,0-30C160.1,71.1,160.2,69.6,159.1,68.9z"/>
	<path class="st0" d="M155.8,52.6c-0.3,2.9-0.4,5.9,0.1,8.8c0.2,1.4,1.8,1.6,2.9,1.3c1.4-0.3,1.3-2.1,1.4-3.2c0-2.4,0.2-4.9-0.3-7.3
		C159.1,50.3,156,50.5,155.8,52.6z"/>
	<path class="st0" d="M169.5,74.6c-0.6-1.6-3.4-1.6-3.9,0c-0.2,0.8-0.2,1.6-0.2,2.4c-0.1,8,0,16.1,0,24.1c0,1.2,0,2.4,0.2,3.6
		c0.7,1.3,2.8,1.6,3.7,0.3c0.6-1,0.5-2.2,0.5-3.4c0-8,0-16,0-24.1C169.7,76.6,169.8,75.6,169.5,74.6z"/>
	<path class="st0" d="M165.5,47.3c-0.4,2.1-0.1,4.2-0.2,6.2c0.1,4.2-0.3,8.5,0.1,12.7c0.5,1.8,3.6,1.9,4,0.1c0.5-3,0.1-6,0.2-9
		c-0.1-3.2,0.2-6.4-0.1-9.6C169.4,45.7,166.1,45.4,165.5,47.3z"/>
	<path class="st0" d="M175,95.8c-0.2,4.2-0.4,8.4,0.1,12.6c0.2,2.2,4.2,1.8,4.1-0.4c0.2-4.1,0.2-8.2,0-12.2
		C179.3,93.4,174.8,93.3,175,95.8z"/>
	<path class="st0" d="M179.4,61.5c0-1-0.2-1.2-0.2-1.2c-0.8-1.9-3.8-1.8-4.3,0.2c-0.7,1.5-0.4,3.2-0.5,4.8c0,6.1,0.1,12.1,0,18.2
		c0,0.9,0.1,1.9,0.5,2.8c0.3,2.3,3.5,2.5,4.5,0.6c0.3-0.3,0.3-2.6,0.2-3.9C179.4,75.3,179.4,61.9,179.4,61.5z"/>
	<path class="st0" d="M190.3,68.7c-0.3,1.5-0.9,3.3,0.2,4.7c2.4,3.4,9.3,3.2,10.5-1.2c0.7-3.1-0.8-4.1-0.4-6.1c-5.1,0-10.3,0-15.4,0
		c0,0.8,0,1.7,0,2.5C186.9,68.7,188.6,68.7,190.3,68.7z M193.3,68.8c1.5-0.3,3.2-0.4,4.6,0.3c1.5,0.6,1.2,2.9-0.2,3.5
		c-1.8,0.7-4.5,0.8-5.7-1C191.4,70.5,192.1,69,193.3,68.8z"/>
	<path class="st0" d="M191.2,96.6c2.3,2.4,6.7,2.3,8.7-0.4c1.7-2.2,1.3-5.5-0.6-7.5c-0.6,0.4-1.2,0.7-1.8,1.1c0.6,1.2,1.6,2.6,1.1,4
		c-1.2,2.3-4.8,2.3-6.4,0.4c-1.2-1.5,0-3.2,0.8-4.6c-0.6-0.4-1.2-1.5-1.9-0.7C189.2,91,189.2,94.7,191.2,96.6z"/>
	<path class="st0" d="M199.2,85.9c1.7-1.2,2.2-3.4,1.7-5.4c-0.9-3-4.8-4.3-7.6-3.2c-2.6,0.8-4.4,4-3.2,6.6
		C191.5,87.2,196.4,88.1,199.2,85.9z M197.7,80c1.7,0.6,1.8,3.3,0.1,4c-2,0.8-5.3,0.8-6.1-1.6C191.7,79.4,195.6,79,197.7,80z"/>
	<path class="st0" d="M204.2,101.2c-0.6,0-1.2,0-1.8,0.1c-0.1,1.1,0.1,3.2-0.6,3.4c-1.2,0.5-2.7,0.2-4,0.5c-2,0.4-2,1-3.7,0.3
		c-1.9-0.8-5.4,0-6-1c-0.1-0.1-0.1-2.2-0.1-3.2c-0.6,0-1.2,0-1.8,0c-0.1,3.6,0,5.6,1.8,5.9c1.8,0.4,3.6,0.2,5.4,0.4
		c0.4,0.8,1,2.1,1.5,2.7c0.5-0.3,1.1-1.7,1.9-2.5c1.9-0.4,5-0.1,5.9-0.7C204.6,105.8,204.2,104.1,204.2,101.2z"/>
	<path class="st0" d="M188,51.7c0.1-1,0-3.1,0.1-3.2c0.6-1,4.1-0.2,6-1c1.7-0.7,1.7-0.1,3.7,0.3c1.3,0.2,2.8-0.1,4,0.5
		c0.7,0.2,0.5,2.4,0.6,3.4c0.6,0,1.2,0,1.8,0.1c0-2.9,0.3-4.5-1.5-5.7c-0.9-0.6-4-0.4-5.9-0.7c-0.7-0.8-1.3-2.2-1.9-2.5
		c-0.6,0.6-1.1,1.9-1.5,2.7c-1.8,0.2-3.6,0-5.4,0.4c-1.9,0.3-2,2.3-1.8,5.9C186.9,51.8,187.4,51.7,188,51.7z"/>
	<path class="st0" d="M189.7,59.4c0.3,4.6,6.7,6.1,9.8,3.2c2.2-2,2-5.8-0.1-7.8c-0.6,0-0.9,0.6-1.4,0.9c0.4,1.2,1,2.3,1,3.6
		c-0.2,1.4-1.7,1.8-2.8,2.3c-0.2-2.3-0.1-4.6-0.1-7C193.1,53.7,189.2,56,189.7,59.4z M194.1,61.6c-1-0.5-2.4-0.9-2.4-2.2
		c-0.2-1.4,1.2-2.3,2.4-2.3C194.1,58.6,194.1,60.1,194.1,61.6z"/>
</g>
</svg>
