<?xml version="1.0" encoding="utf-8"?>
<!-- Generator: Adobe Illustrator 26.0.3, SVG Export Plug-In . SVG Version: 6.00 Build 0)  -->
<svg version="1.1" id="Слой_6" xmlns="http://www.w3.org/2000/svg" xmlns:xlink="http://www.w3.org/1999/xlink" x="0px" y="0px"
	 viewBox="0 0 239.5 150.2" style="enable-background:new 0 0 239.5 150.2;" xml:space="preserve">
<g>
	<path d="M196.4,53.5c2.1-15.8,7.5-27.3,15.7-33.2c9.4-6.7,18.7-5.9,27.4-3.5c0-0.3,0-0.6,0-0.9c0,0,0-0.1,0-0.1
		c-8.8-2.4-18.3-3.2-27.9,3.7c-8.4,6-14,17.9-16.2,34c0.2,0,0.5-0.1,0.7-0.1C196.2,53.5,196.3,53.5,196.4,53.5z"/>
	<path d="M210.5,114.8c-7.7-5.9-12.7-17.2-14.4-32.2c0.1,0-1,0-1,0c1.8,15.3,6.9,26.9,14.8,33c10.1,7.7,20.2,6.7,29.6,4.2
		c0,0,0-1,0-1C230.3,121.2,220.3,122.3,210.5,114.8z"/>
	<path d="M239.3,20.9c0-0.2,0.1-0.3,0.1-0.5c0,0,0,0,0,0c0-0.5,0.1-0.9,0.1-1.4c0,0,0-0.1,0-0.1c-8.5-2.5-17.2-3.4-26.2,3
		c-7.7,5.5-12.8,16.5-14.9,31.5l1.9,0c2-14.5,6.8-24.7,14.1-29.9C222.8,17.5,231.1,18.4,239.3,20.9z"/>
	<path d="M212.9,111.7c-7-5.4-11.4-14.6-12.9-29c-0.3,0.1-1.6,0.1-1.9,0.1c1.6,14.9,6.2,24.7,13.6,30.5c9.3,7.1,18.7,6,27.7,3.5
		c0,0,0-2,0-2C230.7,117.1,221.7,118.4,212.9,111.7z"/>
	<path d="M235.9,78.5l3.6,0.1c0-0.2,0-0.4,0-0.6l-4-0.1c-0.7-1.1-1.3-2.3-1.8-3.5l5.8,0.1c0-0.2,0-0.4,0-0.6l-6-0.1
		c-0.4-1.1-0.6-2.3-0.8-3.5l6.7,0.1c0-0.2,0-0.4,0-0.6l-6.8-0.1c0-0.6-0.1-1.2-0.1-1.8c0-0.6,0.1-1.2,0.1-1.7l6.8,0.1
		c0-0.2,0-0.4,0-0.6l-6.7-0.1c0.2-1.2,0.5-2.4,0.9-3.5l5.8,0.1v-0.6l-5.6-0.1c0.5-1.2,1.1-2.4,1.9-3.5l3.7,0.1c0-0.2,0-0.4,0-0.6
		l-3.3-0.1c0.9-1.2,2-2.3,3.3-3.3v-5.1c-3.5,2-6.4,4.9-8.3,8.3h0l-1.6,0c1.2-2.2,2.6-4.2,4.5-5.9c1.7-1.6,3.5-2.9,5.5-4l0-1.1
		c-2.2,1.1-4.3,2.6-6.2,4.4c-1.2,1.2-2.3,2.4-3.2,3.8l-10.2,0.2l0.3,0l0,2.8l8.2-0.1c-0.1,0.2-0.2,0.4-0.3,0.6l-7.9,0.1l0,3.4l6.7,0
		c-0.1,0.2-0.1,0.4-0.2,0.6l-6.5,0l0,3.4l5.9,0c0,0.2,0,0.4-0.1,0.6l-5.8,0l0,3.4l5.7,0.1c0,0.2,0,0.4,0,0.6l-5.8-0.1l0,3.4l6.3,0.2
		c0,0.2,0.1,0.4,0.1,0.6L220,74l0,3.4l7.5,0.3c0.1,0.2,0.2,0.4,0.2,0.6L220,78l0,2.9l9.3,0.3c1,1.7,2.2,3.2,3.6,4.7
		c2,2.1,4.2,3.7,6.7,4.9c0-0.4,0-0.7,0-1.1c-2.3-1.2-4.2-2.6-6-4.5c-2-2-3.5-4.4-4.6-6.9l2,0.1c2,3.8,4.9,6.9,8.7,9c0,0,0-5.1,0-5.1
		C238.1,81.1,236.9,79.9,235.9,78.5z M227.7,62.1l1.5,0c-0.3,1.1-0.6,2.3-0.7,3.5l-1.5,0C227.1,64.4,227.4,63.2,227.7,62.1z
		 M226.8,68.3c0-0.7,0.1-1.4,0.1-2.1l1.6,0c-0.1,0.6-0.1,1.1-0.1,1.7c0,0.6,0,1.2,0,1.8l-1.6,0C226.8,69.2,226.8,68.7,226.8,68.3z
		 M226.8,70.2l1.6,0c0.1,1.2,0.3,2.4,0.6,3.5l-1.7,0C227.1,72.5,226.9,71.4,226.8,70.2z M228.6,77.7c-0.5-1.1-0.9-2.3-1.1-3.5l1.8,0
		c0.3,1.2,0.8,2.4,1.3,3.5L228.6,77.7z M229.4,61.5l-1.5,0c0.4-1.2,0.8-2.3,1.4-3.4l1.6,0C230.3,59.2,229.8,60.3,229.4,61.5z"/>
	<polygon points="206.8,69.8 201.3,69.7 201.3,73 206.7,73.1 	"/>
	<polygon points="206.8,66 201.4,66 201.3,69.2 206.8,69.3 	"/>
	<polygon points="201.5,61.6 206.9,61.6 207,58.4 201.5,58.4 	"/>
	<polygon points="200.8,69.7 194.2,69.6 194.1,72.8 200.7,73 	"/>
	<polygon points="213,58.3 207.5,58.4 207.5,61.6 212.9,61.6 	"/>
	<polygon points="212.9,66 207.4,66 207.3,69.3 212.8,69.4 	"/>
	<polygon points="212.9,62.1 207.5,62.2 207.4,65.4 212.9,65.5 	"/>
	<polygon points="188.1,72.6 193.6,72.8 193.6,69.6 188.2,69.5 	"/>
	<polygon points="165.7,69.1 157.5,69 157.4,71.8 165.6,72 	"/>
	<polygon points="148.7,71.6 156.9,71.8 156.9,69 148.8,68.9 	"/>
	<polygon points="200.9,58.4 194.4,58.5 194.3,61.6 200.9,61.6 	"/>
	<polygon points="181.5,72.4 187.5,72.6 187.6,69.5 181.6,69.4 	"/>
	<polygon points="173.3,69.3 166.3,69.2 166.2,72 173.3,72.2 	"/>
	<polygon points="173.9,72.2 181,72.4 181,69.4 173.9,69.3 	"/>
	<polygon points="96.8,62 107.7,62 107.8,59.7 96.9,59.9 	"/>
	<polygon points="148.2,68.8 139.4,68.7 139.4,71.3 148.1,71.6 	"/>
	<polygon points="108.3,61.9 118.7,61.9 118.7,59.6 108.3,59.7 	"/>
	<polygon points="188.3,61.7 193.7,61.6 193.8,58.5 188.4,58.6 	"/>
	<polygon points="119.3,61.9 129.1,61.9 129.1,59.4 119.3,59.6 	"/>
	<polygon points="96.2,65.3 84.1,65.2 84.1,67.2 96.1,67.4 	"/>
	<polygon points="96.2,62.6 84.2,62.6 84.2,64.6 96.2,64.7 	"/>
	<polygon points="96.8,64.7 107.7,64.8 107.7,62.5 96.8,62.6 	"/>
	<polygon points="139,59.3 129.7,59.4 129.7,61.9 139,61.8 	"/>
	<polygon points="173.5,58.8 166.4,58.9 166.4,61.7 173.5,61.7 	"/>
	<polygon points="174.1,61.7 181.1,61.7 181.2,58.7 174.1,58.8 	"/>
	<path d="M181.7,61.7l6,0l0.1-3l-6,0.1L181.7,61.7z M184.7,59.3c0.5,0,0.9,0.4,0.9,0.9c0,0.5-0.4,0.9-0.9,0.9
		c-0.5,0-0.9-0.4-0.9-0.9C183.8,59.6,184.2,59.2,184.7,59.3z"/>
	<polygon points="148.3,59.2 139.6,59.3 139.5,61.8 148.3,61.8 	"/>
	<polygon points="148.9,61.8 157,61.8 157.1,59 148.9,59.2 	"/>
	<polygon points="157.6,61.8 165.8,61.7 165.9,58.9 157.7,59 	"/>
	<polygon points="165.8,62.3 157.6,62.3 157.6,65.1 165.7,65.2 	"/>
	<polygon points="148.8,68.3 156.9,68.4 157,65.7 148.8,65.6 	"/>
	<path d="M148.2,65.6l-8.7-0.1l0,2.6l8.7,0.1L148.2,65.6z M143.7,67.6c-0.5,0-0.9-0.4-0.9-0.9c0-0.5,0.4-0.9,0.9-0.9
		c0.5,0,0.9,0.4,0.9,0.9C144.6,67.2,144.2,67.6,143.7,67.6z"/>
	<path d="M119.2,67.8L129,68l0-2.5l-9.8-0.1L119.2,67.8z M124.1,65.6c0.5,0,0.9,0.4,0.9,0.9c0,0.5-0.4,0.9-0.9,0.9
		c-0.5,0-0.9-0.4-0.9-0.9C123.2,66,123.6,65.6,124.1,65.6z"/>
	<polygon points="138.9,65.6 129.6,65.5 129.6,68 138.9,68.1 	"/>
	<path d="M165.7,65.7l-8.2-0.1l0,2.8l8.2,0.1L165.7,65.7z M161.7,67.7c-0.5,0-0.9-0.4-0.9-0.9c0-0.5,0.4-0.9,0.9-0.9
		c0.5,0,0.9,0.4,0.9,0.9C162.6,67.3,162.2,67.7,161.7,67.7z"/>
	<polygon points="173.9,68.7 181,68.8 181.1,65.8 174,65.8 	"/>
	<polygon points="173.4,65.8 166.3,65.7 166.3,68.6 173.4,68.7 	"/>
	<polygon points="206.9,62.2 201.4,62.2 201.4,65.4 206.9,65.4 	"/>
	<polygon points="73,59.9 72.9,62.1 83.6,62 83.7,60 73,60.2 	"/>
	<polygon points="96,73.6 84,73.1 84,75.9 83.9,75.9 96.2,76.3 96,76.3 	"/>
	<polygon points="181.6,68.8 187.6,68.9 187.6,65.9 181.7,65.8 	"/>
	<polygon points="200.9,62.2 194.3,62.2 194.3,65.3 200.8,65.4 	"/>
	<path d="M96.7,67.4l10.9,0.2l0-2.2l-10.9-0.1L96.7,67.4z M102.1,65.4c0.5,0,0.9,0.4,0.9,0.9c0,0.5-0.4,0.9-0.9,0.9
		c-0.5,0-0.9-0.4-0.9-0.9C101.2,65.7,101.6,65.3,102.1,65.4z"/>
	<polygon points="108.2,67.6 118.6,67.8 118.6,65.4 108.2,65.4 	"/>
	<polygon points="119.2,64.9 129.1,64.9 129.1,62.4 119.3,62.5 	"/>
	<polygon points="148.8,65.1 157,65.1 157,62.3 148.9,62.4 	"/>
	<polygon points="138.9,68.7 129.6,68.5 129.5,71.1 138.8,71.3 	"/>
	<polygon points="148.3,62.4 139.5,62.4 139.5,65 148.2,65.1 	"/>
	<polygon points="139,62.4 129.7,62.4 129.6,64.9 138.9,65 	"/>
	<polygon points="119.1,70.8 129,71 129,68.5 119.2,68.4 	"/>
	<polygon points="108.2,70.5 118.5,70.8 118.6,68.3 108.2,68.2 	"/>
	<polygon points="108.3,64.8 118.6,64.9 118.7,62.5 108.3,62.5 	"/>
	<polygon points="188.3,65.3 193.7,65.3 193.7,62.2 188.3,62.2 	"/>
	<polygon points="96.1,68 84.1,67.8 84.1,69.8 96.1,70.2 	"/>
	<polygon points="181.7,65.3 187.7,65.3 187.7,62.2 181.7,62.3 	"/>
	<polygon points="200.8,66 194.2,65.9 194.2,69.1 200.8,69.2 	"/>
	<polygon points="188.2,69 193.6,69 193.7,65.9 188.2,65.9 	"/>
	<polygon points="174,65.2 181.1,65.3 181.1,62.3 174,62.3 	"/>
	<polygon points="173.5,62.3 166.4,62.3 166.3,65.2 173.4,65.2 	"/>
	<polygon points="96.7,70.2 107.6,70.5 107.6,68.2 96.7,68 	"/>
	<polygon points="84,72.6 96,73 96.1,70.7 84.1,70.4 	"/>
	<polygon points="72.8,72.4 72.8,72.2 83.4,72.6 83.5,70.4 72.8,70.1 	"/>
	<polygon points="72.9,67.1 72.8,69.9 72.8,69.5 83.5,69.8 83.5,67.7 72.8,67.6 	"/>
	<polygon points="108.1,76.8 118.4,77.1 118.5,74.4 108.1,74 	"/>
	<polygon points="119,77.2 128.8,77.5 128.9,74.7 119.1,74.4 	"/>
	<polygon points="72.9,64.8 72.9,67 83.5,67.2 83.6,65.2 72.9,65.1 	"/>
	<polygon points="96.6,76.3 107.5,76.7 107.5,74 96.6,73.6 	"/>
	<polygon points="72.9,62.4 72.9,64.6 83.6,64.6 83.6,62.6 72.9,62.6 	"/>
	<polygon points="139.1,56.1 129.8,56.2 129.7,58.8 139,58.7 	"/>
	<polygon points="119.3,59 129.2,58.9 129.2,56.2 119.3,56.4 	"/>
	<polygon points="139.6,58.7 148.3,58.6 148.4,55.9 149,55.9 148.9,58.6 157.1,58.5 157.1,55.8 139.6,56.1 	"/>
	<polygon points="108.4,56.5 108.3,59.1 118.7,59 118.8,56.4 119,56.4 108.1,56.5 	"/>
	<polygon points="84.2,62 96.2,62 96.3,59.9 84.2,60 	"/>
	<polygon points="84.2,59.5 96.3,59.3 96.3,56.7 96.9,56.7 96.9,59.3 107.8,59.1 107.8,56.6 84.3,56.9 	"/>
	<polygon points="148.6,78.3 148,78.2 148,75.4 139.3,75.1 139.3,77.9 138.7,77.9 138.7,75.1 129.5,74.8 129.4,77.5 156.8,78.5 
		156.8,75.7 148.7,75.5 	"/>
	<polygon points="157.7,58.5 165.9,58.4 165.9,55.7 157.7,55.8 	"/>
	<polygon points="213.2,77.2 219.3,77.4 219.3,74 213.3,73.9 	"/>
	<polygon points="73,57.1 73,59.6 83.7,59.5 83.7,56.9 84.3,56.9 	"/>
	<polygon points="72.7,75.5 83.4,75.9 83.4,73.1 72.7,72.7 	"/>
	<polygon points="219.2,80.8 219.3,78 213.2,77.8 213.2,80.6 219.7,80.9 	"/>
	<polygon points="212.7,77.7 207.2,77.5 207.2,80.4 206.9,80.4 212.6,80.6 	"/>
	<polygon points="188,79.7 193.4,79.9 193.5,77.1 188.1,76.9 	"/>
	<polygon points="181.4,79.5 187.4,79.7 187.5,76.8 181.5,76.6 	"/>
	<polygon points="173.8,79.2 173.2,79.1 173.2,76.3 166.1,76.1 166.1,78.9 180.9,79.4 180.9,76.6 173.8,76.4 	"/>
	<polygon points="201.1,80.2 206.6,80.4 206.6,77.5 201.2,77.3 	"/>
	<polygon points="165.6,76.1 157.4,75.8 157.3,78.6 165.8,78.9 165.5,78.9 	"/>
	<polygon points="200.6,80.2 200.6,77.3 194.1,77.1 194,79.9 200.9,80.2 	"/>
	<polygon points="213.3,69.4 219.4,69.5 219.5,66.1 213.4,66 	"/>
	<polygon points="173.3,72.8 166.2,72.6 166.2,75.5 173.2,75.8 	"/>
	<polygon points="173.8,75.8 180.9,76 181,73 173.9,72.8 	"/>
	<polygon points="188.1,76.3 193.5,76.5 193.5,73.3 188.1,73.2 	"/>
	<path d="M181.5,76.1l6,0.2l0.1-3.1l-6-0.2L181.5,76.1z M184.4,73.8c0.5,0,0.9,0.4,0.9,0.9c0,0.5-0.4,0.9-0.9,0.9
		c-0.5,0-0.9-0.4-0.9-0.9C183.5,74.2,183.9,73.8,184.4,73.8z"/>
	<polygon points="212.7,73.9 207.3,73.7 207.2,77 212.7,77.2 	"/>
	<polygon points="200.7,73.5 194.1,73.4 194.1,76.5 200.6,76.7 	"/>
	<polygon points="206.7,73.7 201.2,73.5 201.2,76.8 206.7,77 	"/>
	<polygon points="119.1,73.8 128.9,74.2 128.9,71.6 119.1,71.3 	"/>
	<polygon points="165.6,72.6 157.4,72.4 157.4,75.2 165.6,75.5 	"/>
	<polygon points="108.1,73.4 118.5,73.8 118.5,71.3 108.2,71 	"/>
	<polygon points="138.8,71.9 129.5,71.6 129.5,74.2 138.8,74.5 	"/>
	<polygon points="148.7,74.9 156.8,75.2 156.9,72.4 148.7,72.1 	"/>
	<polygon points="148.1,72.1 139.4,71.9 139.3,74.6 148,74.9 	"/>
	<polygon points="181.8,55.4 181.8,58.1 187.8,58.1 187.8,55.3 188.1,55.3 	"/>
	<polygon points="219.6,54.8 213.6,54.9 213.5,57.7 219.6,57.6 	"/>
	<polygon points="213,54.9 213.4,54.9 207.6,55 207.5,57.8 213,57.7 	"/>
	<polygon points="213.5,61.6 219.5,61.5 219.6,58.2 213.5,58.3 	"/>
	<polygon points="201,55.1 194.4,55.2 194.4,58 201,57.9 	"/>
	<polygon points="188.4,58.1 193.8,58 193.8,55.2 188.4,55.3 	"/>
	<polygon points="212.8,69.9 207.3,69.9 207.3,73.1 212.7,73.3 	"/>
	<polygon points="207,55 207.3,55 201.4,55.1 201.6,55.1 201.5,57.9 207,57.8 	"/>
	<polygon points="174.1,55.5 174.1,58.2 181.2,58.1 181.2,55.4 174,55.5 	"/>
	<polygon points="173.6,55.5 166.5,55.6 166.5,58.3 173.5,58.3 	"/>
	<polygon points="96.6,73 107.5,73.4 107.6,71 96.7,70.7 	"/>
	<polygon points="219.4,70.1 213.3,70 213.3,73.3 219.4,73.5 	"/>
	<polygon points="213.4,65.5 219.5,65.5 219.5,62.1 213.5,62.1 	"/>
	<path d="M57.6,50.5c-0.4-0.7-0.6-1.1-1.1-1.3c-2.7-0.6-5.3-0.6-8-0.4c0-0.1,0-0.2,0-0.4c2.5-0.2,2.3-1.2,2.4-2.5
		c0-1.4-0.4-2.6-3.3-2.6c-2.9,0-3.4,1.1-3.4,2.5c0,1.2-0.2,2.3,2.3,2.5c0,0.2,0,0.4,0,0.6c-1,0.1-2,0.2-3,0.3
		c-2.8,0.3-5.7,0.6-8.8,0.6c0-0.2,0-0.4,0-0.7c0-0.3,0-0.7,0-1c2.5-0.2,2.3-1.2,2.4-2.5c0-1.4-0.4-2.6-3.3-2.6
		c-2.9-0.1-3.4,1.1-3.4,2.5c0,1.2-0.2,2.3,2.3,2.6c0,0.3,0,0.6-0.1,1c0,0.3,0,0.5,0,0.7c-4.3-0.2-8.2-1.1-11.7-2c0,0,0-0.1,0-0.1
		c0-0.3,0-0.7,0-1c2.5-0.2,2.3-1.2,2.4-2.5c0-1.4-0.4-2.6-3.3-2.6c-2.9,0-3.4,1.1-3.4,2.5c0,1.2-0.2,2.3,2.3,2.5c0,0.2,0,0.4,0,0.6
		c-3.9-1-7.3-1.8-9.9-1c-0.2-0.1-0.4-0.1-0.8,0.1C6,47.7,2.5,56.1,2.2,65c0,9,3.2,17.5,5.3,18.6c0.3,0.2,0.6,0.2,0.7,0.1
		c0.9,0.3,1.8,0.4,2.9,0.4c2.1,0,4.5-0.5,7-1.1c0,0.2,0,0.4,0,0.6c-2.5,0.2-2.4,1.2-2.4,2.5c0,1.4,0.4,2.6,3.3,2.6
		c2.9,0.1,3.4-1.1,3.4-2.5c0-1.2,0.2-2.3-2.3-2.6c0-0.3,0-0.6,0.1-1c0,0,0-0.1,0-0.1c3.5-0.8,7.5-1.5,11.8-1.5c0,0.2,0,0.4,0,0.7
		c0,0.3,0,0.7,0,1c-2.5,0.2-2.4,1.2-2.4,2.5c0,1.4,0.4,2.6,3.3,2.6c2.9,0.1,3.4-1.1,3.4-2.5c0-1.2,0.2-2.3-2.3-2.6
		c0-0.3,0-0.6,0.1-1c0-0.3,0-0.5,0-0.7c3.1,0.1,6,0.5,8.7,1c1,0.2,2,0.3,3,0.4c0,0.2,0,0.4,0,0.6c-2.5,0.2-2.4,1.2-2.4,2.5
		c0,1.4,0.4,2.6,3.3,2.6c2.9,0.1,3.4-1.1,3.4-2.5c0-1.2,0.2-2.3-2.3-2.6c0-0.1,0-0.2,0-0.3c2.7,0.3,5.3,0.3,8-0.1
		c0.5-0.1,0.8-0.6,1.2-1.2c1.1-1.9,3.4-5.8,13.9-5.6l0.5,0l0.3-19.3l-0.5,0C60.8,56.4,58.7,52.5,57.6,50.5z M70.7,59.8l-25.4-1.4
		c0.6-0.5,1-1.2,1-2c0-1.5-1.2-2.7-2.7-2.8c-1.5,0-2.7,1.2-2.8,2.7c0,1.5,1.2,2.7,2.7,2.8c0.6,0,1.1-0.2,1.6-0.5l25.6,1.6l0,2
		l-38.2-2.7c0.6-0.5,1-1.2,1-2c0-1.5-1.2-2.7-2.7-2.8c-1.5,0-2.7,1.2-2.8,2.7c0,1.5,1.2,2.7,2.7,2.8c0.6,0,1.2-0.2,1.6-0.5l38.4,3
		l0,2l-51-3.7c0.9-0.4,1.5-1.3,1.5-2.4c0-1.5-1.2-2.7-2.7-2.8c-1.5,0-2.7,1.2-2.8,2.7c0,1.5,1.2,2.7,2.7,2.8c0.4,0,0.7-0.1,1-0.2
		l51.3,4l0,2.3l-51.9,2.3c-0.2,0-0.4-0.1-0.6-0.1c-1.5,0-2.7,1.2-2.8,2.7c0,1.5,1.2,2.7,2.7,2.8c1.5,0,2.7-1.2,2.8-2.7
		c0-1.1-0.7-2.1-1.7-2.5l51.5-2.1l0,2.1l-38.8,1.7C31.4,71.2,31,71,30.5,71c-1.5,0-2.7,1.2-2.8,2.7c0,1.5,1.2,2.7,2.7,2.8
		c1.5,0,2.7-1.2,2.8-2.7c0-1-0.5-1.8-1.2-2.3L70.5,70l0,2.3l-26.2,0.4c-0.3-0.1-0.6-0.2-1-0.2c-1.5,0-2.7,1.2-2.8,2.7
		c0,1.5,1.2,2.7,2.7,2.8c1.5,0,2.7-1.2,2.8-2.7c0-1-0.5-1.9-1.4-2.4l25.8-0.2l0,2.3c-10.6,0-13.1,4.1-14.3,6.1
		c-0.2,0.3-0.4,0.7-0.5,0.7c-4.2,0.8-8.3,0.1-12.7-0.5c-3.3-0.5-6.8-1-10.6-1c-0.1,0-0.1,0-0.2,0c-4.5,0-8.5,0.8-12.1,1.6
		c-0.1,0-0.1,0-0.2,0.1c-0.4,0.1-0.7,0.2-1.1,0.2c-4.4,1-7.8,1.7-10.4,0.8l-0.2-0.1L8,82.8c-1.1-0.2-4.8-8-4.8-17.8
		c0.4-9.7,4.3-17.3,5.4-17.6l0.2,0.1L9,47.5c2.6-0.8,6,0.1,10.4,1.2c4,1,8.4,2.2,13.5,2.4c3.9,0.1,7.3-0.3,10.7-0.7
		c1.6-0.2,3.1-0.4,4.7-0.5c0.1,0.1,0.2,0.1,0.3,0c2.6-0.2,5.2-0.1,7.8,0.4c0.1,0.1,0.3,0.5,0.5,0.8c1.1,2,3.4,6.3,14,6.6L70.7,59.8z
		 M45,56.3c0,0.8-0.6,1.4-1.4,1.4c-0.8,0-1.4-0.6-1.4-1.4c0-0.8,0.6-1.4,1.4-1.4C44.4,54.9,45,55.5,45,56.3z M32.1,57.3
		c0,0.8-0.6,1.4-1.4,1.4c-0.8,0-1.4-0.6-1.4-1.4c0-0.8,0.6-1.4,1.4-1.4C31.5,55.9,32.1,56.5,32.1,57.3z M18.3,59.8
		c-0.8,0-1.4-0.6-1.4-1.4c0-0.8,0.6-1.4,1.4-1.4c0.8,0,1.4,0.6,1.4,1.4C19.7,59.2,19,59.8,18.3,59.8z M19.4,72.2
		c0,0.8-0.6,1.4-1.4,1.4c-0.8,0-1.4-0.7-1.4-1.4c0-0.8,0.6-1.4,1.4-1.4C18.8,70.8,19.4,71.4,19.4,72.2z M31.8,73.8
		c0,0.8-0.6,1.4-1.4,1.4c-0.8,0-1.4-0.6-1.4-1.4c0-0.8,0.6-1.4,1.4-1.4C31.2,72.4,31.8,73,31.8,73.8z M44.7,75.2
		c0,0.8-0.6,1.4-1.4,1.4c-0.8,0-1.4-0.6-1.4-1.4c0-0.8,0.6-1.4,1.4-1.4C44.1,73.8,44.7,74.4,44.7,75.2z"/>
</g>
</svg>
