<?xml version="1.0" encoding="utf-8"?>
<!-- Generator: Adobe Illustrator 26.0.3, SVG Export Plug-In . SVG Version: 6.00 Build 0)  -->
<svg version="1.1" id="Слой_1" xmlns="http://www.w3.org/2000/svg" xmlns:xlink="http://www.w3.org/1999/xlink" x="0px" y="0px"
	 viewBox="0 0 239.5 150.2" style="enable-background:new 0 0 239.5 150.2;" xml:space="preserve">
<style type="text/css">
	.st0{fill:#111111;}
</style>
<path class="st0" d="M127.7,45.8c13.3-1.5,26.8-1.5,40.1,0c2,0.2,4,0.9,5.5,2.2c2.2,3.2,4.2,6.5,6.5,9.6c-1.8-3-3.6-5.9-5.3-8.9
	c-1-2-3.3-2.8-5.4-3.4c-4-0.5-8.1-0.8-12.1-1.1c-5.9-0.2-11.8-0.2-17.7,0c-4.1,0.2-8.2,0.6-12.3,1.1c-2.2,0.5-4.7,1.4-5.7,3.6
	c-1.7,2.8-3.4,5.6-5,8.4c2.3-3.1,4.2-6.4,6.4-9.5C124.2,46.7,125.9,45.9,127.7,45.8z"/>
<path class="st0" d="M94,69.2c1.4-1.4,2.7-3,4.5-3.8c2-1,4.1-1.9,6.2-2.7c4.7-1.6,9.6-2.9,14.6-3.1c9.9-1,19.8-1.6,29.8-1.6
	c10.7,0.1,21.4,0.9,32,2c5.9,1.2,11.8,2.9,17.1,5.8c1.4,0.8,2.5,2.1,3.7,3.2c-1.8-3.1-5.3-4.4-8.4-5.8c-2.8-1.1-5.7-2-8.7-2.7
	c-2.7-0.7-5.4-0.8-8.1-1.3c-7.8-1.1-15.7-1.8-23.6-1.9c-9.8-0.2-19.7,0.1-29.4,1.4c-1.1,0.1-2.2,0.1-3.2,0.4
	c-0.8,0.1-1.5,0.1-2.3,0.2c-2.3,0.5-4.7,0.5-7,1.1c-3.8,1-7.5,2.1-11,3.8C97.7,65.3,95.3,66.8,94,69.2z"/>
<path class="st0" d="M80.6,128.1c0,1.8,0,3.6,0,5.4c-0.1,0.1-0.4,0.3-0.5,0.4c0.7,0,1.4,0,2.2,0c-0.2-0.1-0.7-0.2-0.9-0.2
	c-0.1-1-0.1-2-0.1-2.9c0.6,0,1.3,0.1,1.9,0.1c0,0.2,0.1,0.7,0.1,0.9c0-0.5,0.1-0.9,0.1-1.4c-0.7,0-1.4,0.1-2.1,0.1
	c0-0.8,0-1.7,0-2.6c0.8,0,1.5,0.1,2.2,0.4c0-0.2,0-0.6,0-0.7c-1.2,0-2.3,0-3.5,0.1C80.2,127.8,80.4,127.9,80.6,128.1z"/>
<path class="st0" d="M214.4,130.8c0.1,0.1,0.4,0.3,0.5,0.3c0.6,0.8,0.2,1.8,0.2,2.7c-1.3,0-2.7-0.2-3.5-1.2
	c-1.1-1.4-0.8-3.5,0.6-4.6c1.2-0.1,2.4-0.1,3.6,0.5c0.1,0.3,0.2,0.5,0.3,0.8c-0.1-0.5-0.2-1-0.2-1.5c-1.2-0.1-2.4-0.2-3.6,0
	c-2,0.8-2.6,3.5-1.3,5.1c1.2,1.4,3.3,1.5,4.9,1c0-1,0-1.9,0.3-2.9c-0.4-0.2-0.8-0.3-1.1-0.5C214.8,130.6,214.6,130.7,214.4,130.8z"
	/>
<path class="st0" d="M116.1,127.6c0.2,1.9,0,3.8,0.1,5.7c-0.1,0.1-0.3,0.4-0.4,0.5c1.4,0.2,2.8,0.5,4.1-0.1c2.1-0.8,2.6-3.9,1-5.4
	C119.5,127.3,117.7,127.7,116.1,127.6z M120,133.3c-0.9,0.7-2,0.5-3,0.4c-0.2-1.9-0.1-3.8-0.1-5.8c1.4,0,3.3,0.1,4,1.6
	C121.3,130.8,121.3,132.6,120,133.3z"/>
<path class="st0" d="M134.3,68.6c-1,0.2-2.5,0.1-2.7,1.4c1.5-0.8,3.2-0.8,4.9-0.6C136.3,68.3,135.1,68.6,134.3,68.6z"/>
<path class="st0" d="M160,69.9c0.4-0.4,0.7-0.7,1.1-1.1c0,0.3,0.1,0.8,0.1,1c0.4-0.2,0.8-0.5,1.1-0.7c0.3,0.2,0.6,0.5,0.9,0.7
	c0.5-0.1,1.1-0.2,1.6-0.4c-0.3,0-0.9,0-1.2,0c0-0.2,0-0.7-0.1-0.9c-1.3-0.2-2.7-0.1-4-0.1c0.3,0.3,0.6,0.5,0.9,0.8h-0.6L160,69.9z"
	/>
<path class="st0" d="M139.8,80.4c-0.6,1.4-1.7,2.6-2.2,4.1c1.1-1.2,2.1-2.5,2.6-4.1C140.1,80.4,139.9,80.4,139.8,80.4z"/>
<path class="st0" d="M183.2,68.6c0.2,0.5,0.3,1,0.5,1.5c0.3-0.1,0.6-0.2,0.9-0.3c1,0.1,2,0.3,3,0c0-0.1,0.1-0.4,0.1-0.6
	c-0.7,0-1.5,0.1-2.2,0.3c0.5-0.2,1.1-0.5,1.6-0.7C185.8,68.6,184.5,68.6,183.2,68.6z"/>
<path class="st0" d="M115.3,88.4c-2.4-0.3-4.9-0.1-7.4-0.4c-2.2-0.3-4.5,0.1-6.7-0.3c-1.4-0.2-2.4-1.1-3.6-1.8
	c1.4,1.9,4,2.4,6.2,2.3c2.3-0.1,4.6,0.1,7,0.2c3-0.1,5.9,0.6,8.8,0.4c3.3,0.3,6.7,0.6,10,0.2c-2.4-0.3-4.9,0-7.4-0.3
	C119.9,88.3,117.6,88.7,115.3,88.4z"/>
<path class="st0" d="M188.4,88c-2.4,0.4-4.8,0-7.2,0.3c-2.5,0.4-5.1,0-7.6,0.4c-2.4,0.4-4.8,0-7.2,0.3c2.6,0.2,5.2,0.2,7.8-0.1
	c2.2-0.3,4.4,0.1,6.6-0.3c2.5-0.4,4.9-0.1,7.4-0.3c2.6-0.2,5.2,0.3,7.7-0.6c1-0.3,1.8-1.1,2.5-1.8c-1,0.7-2,1.5-3.2,1.8
	C192.9,88.1,190.6,87.7,188.4,88z"/>
<path class="st0" d="M107.7,71.1c0.7-0.1,1.3-0.2,2-0.3c1.2-0.4,2.4-0.6,3.5-1.3c-1.6-0.1-3.2,0.1-4.8,0.2c0,0.1,0.1,0.4,0.1,0.6
	C108.2,70.6,108,70.9,107.7,71.1z"/>
<path class="st0" d="M201.4,91.1c3.4-0.9,6.9-0.9,10.3-0.9c2.2,0,4.4,0,6.6-0.1c0.8,0,1.7-0.1,2.5-0.3c-1-0.5-2-0.3-3-0.3
	c-4.3,0.2-8.5,0.1-12.8,0.3C203.8,90,202.3,90.1,201.4,91.1z"/>
<path class="st0" d="M133.2,69.8c0.5,0.4,2.1,0.5,2.6,0C135,69.6,134.1,69.6,133.2,69.8z"/>
<path class="st0" d="M223.5,73.6c-2.1-1.9-5.1-1.8-7.8-1.3c-3.2,0.7-5.9,3.4-6.6,6.6c-0.7,2.2,0,4.5,0.9,6.6c-0.4-1.6-1-3.1-0.7-4.8
	c0.2-4.2,3.9-8,8.2-8.1c2.8-0.4,5.9,0.9,7.4,3.4c1.2,1.7,1.2,3.8,1,5.8C226.7,78.9,226,75.5,223.5,73.6z"/>
<path class="st0" d="M85.9,85.5c0.4-1,0.9-2,1.1-3c0.6-3.4-0.9-7.1-3.9-9c-1.9-1.3-4.2-1.6-6.4-1.5c-2.7,0-5.1,1.8-6.3,4.2
	c-0.9,1.7-0.8,3.7-0.3,5.5c-0.1-1.2-0.3-2.5,0.1-3.6c0.6-2.6,2.8-4.7,5.3-5.3c2.5-0.4,5.2-0.2,7.3,1.3c2.8,1.8,4.1,5.3,3.9,8.5
	C86.4,83.6,86.1,84.5,85.9,85.5z"/>
<path class="st0" d="M95.4,128.1c-0.9-0.6-2.1-0.6-3.1-0.4c-1.8,0.6-2.7,2.8-1.9,4.5c0.7,1.9,3.3,2.6,4.9,1.4
	C97.1,132.4,97.3,129.2,95.4,128.1z M93.9,133.8c-2.9,0.3-4.2-4.3-1.8-5.7c1-0.4,2.4-0.3,3.1,0.6C96.6,130.2,96.2,133.4,93.9,133.8z
	"/>
<path class="st0" d="M164.7,128.7c0-1.3,1.6-0.8,2.5-0.3c-0.1-0.2-0.2-0.6-0.3-0.9c-0.9,0-1.8,0.1-2.6,0.4c0,0.5-0.4,1.1-0.1,1.6
	c0.4,1.2,1.7,1.6,2.3,2.6c0.4,0.8-0.4,1.3-0.8,1.8c-0.8-0.2-1.4-0.7-1.8-1.4c0.1,0.4,0.1,0.9,0.2,1.3c0.5,0.1,0.9,0.2,1.4,0.2
	c1.1,0,2.1-1.3,1.7-2.4C166.8,130.3,165.1,130,164.7,128.7z"/>
<path class="st0" d="M202.2,127.6c0.4,1.7,0.3,3.5,0.3,5.3c-1.7-1.8-3.3-3.7-5.1-5.3c0,1.9-0.1,3.8,0,5.7c-0.3,0.3-0.5,0.5-0.8,0.7
	c0.6,0.3,1.3-0.1,1.9-0.1c-0.3-0.2-0.7-0.5-0.6-0.9c-0.1-1.4-0.1-2.8-0.1-4.1c1.7,1.8,3.3,3.6,5.1,5.3c0.1-2.2-0.1-4.4,0.1-6.5
	C202.8,127.6,202.4,127.6,202.2,127.6z"/>
<path class="st0" d="M132.7,79.8C132.7,79.8,132.7,79.8,132.7,79.8c-3,0-5.6,0.4-8.4,0.4c0,0,0.1,0,0.1,0
	C127.2,80.3,129.9,79.9,132.7,79.8z"/>
<path class="st0" d="M109.5,80.8c0.2,0,0.3,0,0.5,0C109.8,80.8,109.7,80.8,109.5,80.8z"/>
<path class="st0" d="M115.5,80.6c2.8,0.1,5.6-0.5,8.4-0.4c0.1,0,0.3,0,0.4,0c-1.7-0.1-3.4,0-5.1,0.2c-2.8,0.3-5.6,0-8.4,0.3
	c-0.3,0-0.6,0-0.8,0.1C111.8,80.7,113.7,80.5,115.5,80.6z"/>
<path class="st0" d="M109.3,80.8c0.1,0,0.1,0,0.2,0c-2.2,0.1-4.5-0.1-6.7,0C105,80.8,107.1,81,109.3,80.8z"/>
<path class="st0" d="M102,80.9c0.3,0,0.6,0,0.8-0.1c-0.6,0-1.3,0.1-1.9,0.2c-1.5,0.2-3.1,0.2-4.6,0.1c0,0,0,0,0,0c0,0,0,0,0,0.1
	C98.2,81.2,100.1,81.2,102,80.9z"/>
<path class="st0" d="M134,86.3c0.3,1,1.2,1.6,2.2,1.6c-0.3-0.2-0.7-0.4-1.1-0.6c-1.1-2.1-1.7-4.6-1.2-7c0.5-0.5,1.2-0.8,1.9-0.7
	c3.9,0,7.9,0.1,11.8,0.1c4.2,0,8.4-0.2,12.5-0.1c0.8,0,2,0.4,2,1.5c0.1,2.4-0.1,5.5-2.3,6.9c0.8-0.2,1.7-0.6,2.1-1.4
	c0.6-1.5,0.9-3,1-4.6c11.5,0.2,23,0.5,34.4,0.5c1.2,0,2.5,0.4,3.7-0.1c-10.2-0.2-20.4-0.6-30.6-0.8c-0.5,0-1.1,0-1.6,0
	c-1.9,0-3.8-0.2-5.8-0.2c0-0.5,0-1,0-1.5c4.6,0.2,9.2,0.7,13.7,0.3c-3-0.2-6.1,0.1-9.1-0.2c-1.5-0.1-3-0.2-4.5-0.3
	c-0.2-0.8-0.3-1.8-1.2-2.2c-1.5-0.7-3.2-0.7-4.8-0.6c-2.7,0.2-5.3,0.1-8,0.1c0,0.1-0.1,0.4-0.1,0.6c2-0.6,4-0.1,6-0.4
	c2.1-0.3,4.3-0.3,6.4,0.4c1.1,0.4,1.7,1.8,0.9,2.8c-0.4-1.3-1.9-1.3-3-1.3c-7.9,0.1-15.7,0.1-23.6,0c-1-0.1-2,0.5-2.5,1.3
	c-0.2-0.9,0.2-2.2,0.5-2.5c0.9-0.9,2.2-0.8,3.5-0.7c3.3,0.1,6.5,0.2,9.8,0.1c-2.1-0.6-4.3-0.1-6.4-0.3c-2.2,0.1-4.6-0.5-6.7,0.5
	c-0.9,0.4-0.8,1.5-1.1,2.3c0,0-0.1,0-0.1,0c0,0.3,0.1,0.8,0.1,1.1l0.2,0.4c-12.5,0.4-24.9,0.7-37.4,1.1c0.2-0.3,0.6-0.9,0.7-1.3
	c-0.6-2-0.5-4.1-0.5-6.1c-0.3,2.1,0.1,4.2,0.2,6.3c-0.2,0.6-0.6,1-0.8,1.5c0.5,0,0.9,0.1,1.4,0.1c0.3,1,0.5,1.9,1,2.9
	c-0.3-1-0.5-1.9-0.8-2.9c12.2-0.1,24.3-0.4,36.4-0.7C133.1,83.4,133.5,84.9,134,86.3z"/>
<path class="st0" d="M113.4,106.5c-2.1-0.3-4.2-0.2-6.2-0.3c-2.6-0.1-5.3-0.3-7.9-0.2c0.2,0.1,0.7,0.4,0.9,0.5
	c4.8,0.2,9.6,0.1,14.3,0.5c3.1,0.1,6.1,0,9.2,0.2c4-0.1,7.9,0.6,11.9,0.3c-4.1,0-8.1-0.5-12.2-0.5
	C120,106.6,116.7,106.6,113.4,106.5z"/>
<path class="st0" d="M157.4,128c-0.5-0.2-1-0.3-1.5-0.5c0.1,1.5,0.2,3.1,0,4.7c0,0.8-0.8,1.3-1.3,1.8c-1.2,0-2.1-0.9-2.3-2.1
	c0.1-1.4-0.1-2.9,0.3-4.2c-0.4,0-0.8,0-1.1,0c0.3,1.5,0,3.1,0.2,4.6c0.2,2.2,3.7,2.6,4.6,0.7c0.6-1.6,0.2-3.3,0.3-4.9
	C156.8,128,157.2,128,157.4,128z"/>
<path class="st0" d="M184.9,134c0.3,0,0.7,0,1.1,0c0.2-0.8,0.4-1.6,0.6-2.4c0.7,0,1.3,0,2,0c0.3,0.8,0.6,1.6,0.9,2.4
	c0.3,0,0.8,0,1.1,0c-1.3-2-1.9-4.4-2.9-6.6C186.7,129.5,186.3,132.1,184.9,134z M186.8,131.2c0.2-0.8,0.4-1.6,0.7-2.4
	c0.4,0.7,0.7,1.5,1,2.3C188,131.2,187.2,131.2,186.8,131.2z"/>
<path class="st0" d="M146.1,81.2c-0.6-0.3-1.1-0.8-1.8-0.7c-1.4,0.1-3-0.3-4.2,0.7c0.1,0.8,1.1,0.3,1.7,0.4c2.2-0.1,4.4,0.2,6.6-0.1
	c1.8-0.6,3.6,0.2,5.2,0.9C151.8,80.1,148.6,81.1,146.1,81.2z"/>
<path class="st0" d="M154.3,80.7c-0.1,0.4-0.2,0.7-0.4,1.1c0.4-0.3,0.7-0.6,1.1-0.9c1.6,0,3.7,1.1,4.9-0.5
	C158.1,81.2,156.2,80.3,154.3,80.7z"/>
<path class="st0" d="M141.4,82.7c-0.7,0.4-1.4,0.8-2.1,0.9c-0.2,0.5-0.3,1-0.5,1.5c0.2-0.3,0.4-0.6,0.6-0.9
	C140.1,83.8,140.8,83.4,141.4,82.7z"/>
<path class="st0" d="M145.6,84.5c0.2,0.3,0.3,0.7,0.5,1c1-0.6,2-1,3.1-1.4c-0.7,0.9-1.6,1.9-2.7,2.4c-1.4,0.1-2-1.4-3-2.1
	c-0.5-0.4-0.8-1-1.3-1.4c0,0.1,0,0.4-0.1,0.5c0.2,0.1,0.6,0.4,0.8,0.6c-0.2,0.7-0.3,1.3-0.3,2c0.2-0.5,0.4-1,0.5-1.5
	c0.4,0.2,0.8,0.5,1.2,0.8c-0.2,0.1-0.6,0.2-0.8,0.3c1,0.2,1.8,0.9,2.7,1.4c-0.3,0-0.8,0.1-1.1,0.1c-0.1,0.2-0.3,0.6-0.4,0.8
	c0.8-0.4,1.7-0.8,2.5-1.3c0,0.2,0,0.7,0,1c0.1,0,0.3,0,0.5,0c-0.1-0.3-0.3-0.6-0.4-0.9c0.9-0.8,2-1.6,2.4-2.8
	C148.2,84.2,146.9,84.8,145.6,84.5z"/>
<path class="st0" d="M72.7,103.2C72.7,103.2,72.7,103.2,72.7,103.2C72.7,103.2,72.7,103.2,72.7,103.2
	C72.7,103.2,72.7,103.2,72.7,103.2z"/>
<path class="st0" d="M81.1,104c1.9,0.5,3.7,1.5,5.6,1.9c2.9,0.6,5.9,0.3,8.9,0.5c0-0.2,0.1-0.5,0.1-0.7c-2.3,0-4.6-0.1-6.9-0.1
	c-2.2-0.1-4.3-1-6.3-1.8c-2.9-1.1-6.1-0.9-9.1-1.3c-2.6-0.2-5.2-0.5-7.8-1.1c-1.3-0.3-1.9-1.8-1.4-3c0.8-1.2,1.6-2.2,2.6-2.9
	c2.1-1.3,4.4-2.4,6.5-3.6c0.2,0.4,0.2,1,0.7,1.2c1.5,0.6,3.2,0.3,4.8,0.4c4.2,0.2,8.3,0.2,12.5,0.4c1.4,0.1,2.9,0.2,4.2,1
	c1.5,1,3.2,1.3,5,1.3c3.8,0.1,7.7,0.2,11.5,0.4c1.9,0,3.7,0.1,5.6,0.1c1.7-0.2,3.4,0.1,5.1,0.2c2.1,0.4,4.2,0.2,6.3,0.3
	c3.3,0.2,6.5,0.1,9.8,0.1c-2.9-0.6-5.9-0.1-8.9-0.5c-2-0.1-4.1-0.5-6.1-0.1c-8-0.4-16-0.8-24.1-1.1c-1.4,0-2.9-0.4-4.1-1.2
	c-2.2-1.3-4.9-0.9-7.3-1.2c-4.2-0.1-8.4-0.2-12.5-0.3c-0.7,0-1.3-0.2-1.9-0.5c0.1-0.3,0.4-0.9,0.6-1.2c-2.5,0.9-4.9,2.2-7.3,3.5
	c-1.6,0.9-3,2.4-3.5,4.2c-0.4,1.5,0.7,3.2,2.2,3.4c2.2,0.4,4.5,0.7,6.8,0.9c0,0,0-0.1-0.1-0.1C75.4,103.5,78.4,103.3,81.1,104z"/>
<path class="st0" d="M105.9,116.7c-1.9-3-3.9-6-5.8-9c-0.7-1-1.6-1.7-2.7-2.3c-0.7,0.4-1.6,1-1.5,1.9c0.7,2.7,1.4,5.4,2.2,8
	c-4.9-1.2-9.7-2.3-14.5-3.6c0.5-1.6-0.8-3.1-2-4c-1.9-1.2-4.4-1.9-6.4-0.6c-0.8-1.3-1.5-2.7-2.5-3.9c0.1,1.7,1.4,3,2.2,4.5
	c-0.4,1.3,0.2,2.5,1.2,3.4c-0.3-1-0.9-2.1-0.5-3.1c0.5-0.8,1.5-0.7,2.3-0.9c-0.2,1.1-0.3,2.2,0.3,3.2c0.1-1,0.2-2,0.5-3
	c1.5,0.3,2.9,1,3.9,2.1c0,0,0,0-0.1,0c-0.4,0.1-0.8,1.1-0.2,1.2c0.3-0.1,0.5-0.5,0.5-0.8c0.2,0.3,0.4,0.6,0.5,1
	c-0.2,0.5-0.3,1-0.5,1.4c5.1,1.3,10.2,2.9,15.5,3.8c0.4,0.9,0.4,2,1.1,2.9c0.6,0.8,1.5,1.2,2.4,1.5c-1-0.7-2.1-1.4-2.4-2.7
	c-0.9-3.3-1.8-6.5-2.6-9.8c-0.4-0.7,0.2-1.3,0.7-1.8c0.8,0.6,1.6,1.1,2.1,1.9c2,3.1,3.9,6.3,6,9.3c4.8,0.9,9.6,1.5,14.4,1.8
	c1.5,0.3,3,0.2,4.4,0.4c1.8,0.3,3.6-0.1,5.4,0.4c0.1,0,0.2,0,0.3-0.1c-2.3-0.7-4.8-0.2-7.2-0.8C117.2,118.6,111.5,117.6,105.9,116.7
	z"/>
<path class="st0" d="M230,95.4c-2.5-1.9-5.6-3-8.4-4.5c0-0.1-0.1-0.3-0.2-0.4c1.3-0.2,2.7-0.3,3.8-1c3.6-1.8,5.6-5.8,6.3-9.6
	c0.2-2.3,0.6-5-0.9-6.9c-2.2-2.2-4.4-4.4-6.7-6.6c-4.2-3.3-9.7-3.4-14.7-4.3c-7.7-1-15.4-2-23.2-1.9c9.9,0.8,19.7,2.1,29.5,3.5
	c3.2,0.5,6.6,1.6,8.9,4c1.3,1.2,2.6,2.4,3.9,3.7c-6.7-0.6-13.4-0.6-20.1,0c-1.7,0.1-3.1,1.4-4.1,2.7c-15.4-1.2-30.9-1.9-46.4-2
	c-12.3,0-24.5-0.1-36.8,0.3c-9.8,0.3-19.6,0.9-29.4,1.7c-0.9-1.3-2.2-2.5-3.9-2.7c-6.7-0.6-13.6-0.6-20.3-0.1
	c1.7-1.6,3.3-3.2,5.1-4.7c2.9-2.1,6.6-2.8,10.1-3.2c8.9-1.3,17.8-2.4,26.8-3.2c-1.1-0.1-2.3,0-3.4,0C97.4,60.6,89,61.6,80.6,63
	c-3.1,0.5-6.2,1.4-8.8,3.3c-2.2,2-4.3,4.1-6.4,6.2c-1.1,1.1-1.4,2.6-1.4,4c-0.2,4.2,1.4,8.5,4.3,11.4c1.6,1.6,3.8,2.2,6,2.5
	c0.3,0.7,0.4,1.4,0.7,2.2c0.4-0.8,0.4-1.8-0.1-2.5c5.2,0.2,10.4,0,15.6,0.3c1.3,0,2.6,0.4,3.8,0.8c-0.7-1.1-2.2-1.2-3.4-1.3
	c-4.8-0.2-9.7,0-14.5-0.3c-0.6-0.1-1.2,0.1-1.8,0.5c-2.3-0.3-4.7-1-6.3-2.8c-2.9-3.2-4.3-7.8-3.6-12.1c0.1-1.4,1.2-2.6,2.5-3.1
	c3.5-0.5,7.1-0.5,10.7-0.5c3.3,0,6.6,0.2,9.9,0.6c1.4,0.2,2.7,1.3,3.1,2.7c-0.1,3.7,0.4,7.4,1.8,10.9c0.6,1.5,1.3,3,2.7,4
	c1.9,1.5,4.5,1,6.8,1.3c9.3,0.4,18.6,0.9,27.9,1.3c1.9,0.1,3.9,0,5.8,0.4c-0.5-0.3-1.2-0.3-1.8-0.3c-11-0.6-22.1-1.4-33.1-2
	c-1.7-0.2-3.5,0-5-1c-1.8-1-2.4-3.1-3.1-4.9c-1-3.1-1.5-6.5-1.2-9.8c2.9-0.1,5.7-0.4,8.6-0.6c15.6-1.1,31.3-1.5,47-1.4
	c0,1.9-0.3,3.7-0.1,5.6c0.4-2-0.1-3.8,0.6-5.8c0.7,1.9,0.2,3.8,0.6,5.8c0.2-1.9,0-3.7-0.1-5.6c16.9-0.2,33.8,0.4,50.6,1.6
	c1.7,0.2,3.3,0.3,5,0.3c0.3,4.3-0.5,8.7-2.4,12.6c-0.8,1.7-2.6,2.8-4.4,2.9c-6,0.4-12,0.7-18.1,1.1c-1.6,0.4-3.2,0.1-4.8,0.3
	c-3.3,0.2-6.6,0.4-9.9,0.6c-1.6,0.1-3.2,0.1-4.8,0.5c3.9-0.4,7.9-0.3,11.8-0.7c8.4-0.3,16.9-0.8,25.3-1.2c1.4-0.1,2.9-0.4,3.9-1.4
	c1.5-1.3,2.1-3.3,2.7-5.1c1-3,1.4-6.3,1.3-9.5c0.5-1.5,2-2.6,3.5-2.8c6.5-0.6,13-0.7,19.4-0.1c1.7,0.1,3.1,1.6,3.3,3.2
	c0.6,4.1-0.7,8.5-3.3,11.7c-1.7,2-4.3,2.9-6.8,3.2c-0.4,0.8-0.7,1.7-0.2,2.6c0.1-0.3,0.4-1,0.6-1.3c0.7,0.3,0.7,1.3-0.2,1.4
	c-4.6,0.3-9.3,0.3-14,0.5c-2.4,0.2-5-0.1-7.2,1.3c-1.6,1.2-3.7,1.1-5.7,1.2c-5.2,0.2-10.4,0.5-15.6,0.7c-3.5-0.1-7,0.3-10.5,0.4
	c-3.7,0.6-7.4,0.1-11.1,0.6c3.7,0.1,7.5,0,11.2-0.2c2.4,0,4.7-0.1,7.1-0.2c1.8-0.2,3.6,0,5.4-0.3c3.9-0.1,7.8-0.3,11.7-0.4
	c1.7-0.1,3.5,0,5.2-0.3c1.9-0.3,3.4-2,5.4-2c4.4-0.4,8.8-0.2,13.2-0.5c2-0.1,4.1,0.2,6-0.6c0-0.3,0.1-0.8,0.1-1.1
	c2.2,1.2,4.5,2.3,6.7,3.7c1.1,0.7,2,1.9,2.5,3.2c0.4,1.2-0.4,2.5-1.6,2.7c-3.8,0.7-7.5,1.1-11.4,1.3c-1,0.1-2,0.2-3,0.3
	c-2.8,0.4-5.2,2.2-8.1,2.4c-2.7,0.2-5.5,0.2-8.2,0.4c-0.7-0.8-1.6-0.2-2.3,0.3c-2.3-0.3-4.6-0.1-6.9,0.1c-3.2-0.2-6.4,0.3-9.7,0.3
	s-6.6,0.5-10,0.4c-1.4,0-2.8,0-4.1,0.2c-2,0.4-4.1,0.2-6.2,0.3c3.2,0.5,6.4-0.3,9.5-0.1c2.8,0.1,5.6-0.3,8.5-0.2
	c3.4-0.1,6.8-0.1,10.1-0.4c2.7-0.1,5.4-0.3,8.1-0.1c-2.3,3.2-4.2,6.7-6.5,9.9c-5.8,1.1-11.7,1.9-17.6,2.4c-2.2,0.4-4.5,0.1-6.6,0.6
	c8.3-0.2,16.5-1.1,24.7-2.4c1.9-3,3.8-6,5.7-9c0.6-1,1.5-1.7,2.4-2.3c0.5,0.5,1,1.1,0.7,1.8c-0.8,3.2-1.8,6.4-2.6,9.6
	c-0.3,1.2-1.3,2-2.1,2.9c0.6-0.3,1.2-0.7,1.8-1.1c0.9-0.8,1.1-2,1.4-3.1c5.2-1.2,10.4-2.5,15.6-3.9c-0.2-0.5-0.4-0.9-0.5-1.4
	c0.2-0.4,0.4-0.8,0.7-1.2c-0.1,0.6,0.4,1.4,1,1.2c0.3-0.5-0.1-1.6-0.7-1.5c0.9-1,2.3-1.7,3.7-2c0.4,1,0.5,2,0.3,3.1
	c0.8-0.9,0.8-2.1,0.4-3.2c0.9,0.2,2,0.2,2.4,1.2c0.3,1-0.3,2-0.6,2.9c1-0.8,1.6-2.1,1.2-3.4c0.8-1.5,2-2.7,2.2-4.4
	c-0.9,1.2-1.6,2.4-2.3,3.6c-2.6-1.5-5.9-0.3-7.7,1.8c-0.7,0.8-0.9,1.8-0.7,2.8c-4.8,1.3-9.6,2.4-14.5,3.6c0.8-2.8,1.7-5.7,2.3-8.6
	c0.1-0.1,0.3-0.2,0.4-0.2c2.9-0.1,5.8,0.1,8.7-0.5c2.3-0.5,4.3-1.8,6.6-2.2c2.5-0.5,5-0.3,7.5-0.7c-0.1,0.1-0.1,0.2-0.2,0.3
	c2.3-0.2,4.4-0.5,6.7-0.9c1.1-0.1,2.1-1.1,2.2-2.2C232.5,98.1,231.2,96.5,230,95.4z"/>
<path class="st0" d="M222.9,103.3c0,0,0.1-0.1,0.1-0.1c0,0-0.1,0-0.1,0C222.9,103.2,222.9,103.3,222.9,103.3z"/>
<path class="st0" d="M106.9,131.2c0.5-0.8,1.4-1.8,0.8-2.8c-0.8-1.1-2.4-0.7-3.6-0.8c0.3,2.1,0.3,4.3,0,6.4c0.6,0,1.2,0.1,1.9,0.1
	c-1.4-0.2-0.7-1.9-0.9-2.9c1.7-0.2,2.1,1.8,3.2,2.7c0.5,0.1,1,0.1,1.5,0.1C108.5,133.4,107.7,132.2,106.9,131.2z M105.1,131
	c0-1,0-2.1,0-3.1c1.2-0.2,2.4,0.8,2,2.1C107,131.1,105.8,131,105.1,131z"/>
<path class="st0" d="M143.3,127.4c-0.9,1.8-1.7,3.7-2.7,5.5c-0.9-1.8-1.7-3.7-2.7-5.5c-0.4,2.2-0.5,4.4-0.9,6.6c0.2,0,0.6,0,0.8,0
	c0-1.6,0.2-3.2,0.3-4.7c0.8,1.6,1.5,3.3,2.4,4.8c0.8-1.6,1.5-3.2,2.4-4.8c0.1,1.5,0.3,3.1,0.4,4.6c0.5,0.1,1.1,0.1,1.6,0.2
	c-0.2-0.1-0.5-0.3-0.7-0.4C143.6,131.7,143.8,129.5,143.3,127.4z"/>
<path class="st0" d="M173.5,128.3c0.8-0.2,1.6-0.3,2.4-0.3c0,2,0.2,4-0.2,6c0.5,0,1-0.1,1.4-0.1c-0.1-0.2-0.3-0.5-0.5-0.6
	c-0.1-1.8,0-3.6,0-5.4c0.7,0.2,2-0.2,2.2,0.8c0.1-0.4,0.1-0.8,0.2-1.1c-1.7,0-3.4,0-5.2,0C173.7,127.8,173.6,128.2,173.5,128.3z"/>
</svg>
