<?xml version="1.0" encoding="utf-8"?>
<!-- Generator: Adobe Illustrator 26.0.3, SVG Export Plug-In . SVG Version: 6.00 Build 0)  -->
<svg version="1.1" id="Слой_11" xmlns="http://www.w3.org/2000/svg" xmlns:xlink="http://www.w3.org/1999/xlink" x="0px"
	 y="0px" viewBox="0 0 239.5 150.2" style="enable-background:new 0 0 239.5 150.2;" xml:space="preserve">
<style type="text/css">
	.st0{fill:#080808;}
</style>
<g>
	<path class="st0" d="M24.2,15.1c-4.6,1.4-9.6,1.4-14.3,0.7c-1.8-0.4-3.8-0.8-4.8-2.4c-1.1,0-2.2,0-3.3,0c0.8,2,3,2.6,4.9,3.1
		c5.1,1.3,10.6,1.4,15.8,0.6c2.5-0.6,5.5-1,7.2-3.2c0.6-1.5-0.8-2.5-1.9-3.1c-4.9-2.4-10.5-2-15.8-2.3c-2.5-0.4-5.5-0.6-7-2.9
		c0.7-0.8,1.3-1.7,2.4-1.9c4.2-1.5,8.8-1.3,13.2-0.9c2.2,0.4,4.9,0.6,6.2,2.7c1,0,2,0,3,0l-0.2-1c-3.8-3.1-9-3.1-13.6-3.3
		C11.6,1.1,6.8,1.4,3.1,3.8C1.4,4.6,1.6,6.9,3.4,7.5c5.2,2.9,11.5,2.2,17.2,2.8c2,0.4,4.6,0.6,5.9,2.5
		C26.7,14.1,25.2,14.7,24.2,15.1z"/>
	<path class="st0" d="M89.3,10.7c-0.1,2.3-0.1,4.6,0,6.8c1.1,0,2.1,0,3.2,0c0.1-2.3,0.2-4.6,0-6.9c4.8-3.2,9.6-6.3,14.3-9.7
		c-1.3,0-2.7-0.3-4,0.2C98.8,3.9,95,6.7,91.1,9.2c-4.1-2.4-8-5.4-12-8c-1.2-0.3-2.5-0.1-3.7-0.2c0.1,0.2,0.3,0.5,0.5,0.7
		C80.4,4.6,84.8,7.7,89.3,10.7z"/>
	<path class="st0" d="M41.2,17.6c1.1,0,2.2,0,3.3,0c0.1-2-0.1-4,0-6c1.4-0.7,3-1.7,4.6-0.9c5.4,2.2,10.9,4.2,16.3,6.4
		c1.7,0.8,3.6,0.5,5.4,0.7c-0.1-0.1-0.2-0.4-0.3-0.6c-6.7-2.7-13.5-5.1-20.1-8C57.1,6.5,64,4,70.8,1.2c-1.6-0.2-3.4-0.4-5,0.2
		c-7.1,2.8-14.3,5.6-21.4,8.4c0-2.9,0.1-5.8,0-8.7c-1.1,0-2.2,0.1-3.3,0.1C41.2,6.6,41.2,12.1,41.2,17.6z"/>
	<path class="st0" d="M140.9,17.6l0.3-1l-0.5-0.2c-7.5-0.1-15.1,0-22.6,0c0-5.1-0.1-10.1,0-15.2c-1.1,0-2.2,0-3.4,0
		c0,5.5,0,11,0,16.5C123.5,17.6,132.2,17.6,140.9,17.6z"/>
	<path class="st0" d="M149.1,17.6c1.1,0,2.3,0,3.4,0c-0.1-5.5-0.1-11,0-16.5c-1.1,0-2.3,0.1-3.4,0.1
		C149.3,6.7,149.2,12.1,149.1,17.6z"/>
	<path class="st0" d="M167.2,17.6c-0.2-4.7,0-9.4-0.1-14.1c9.7,4.6,19.3,9.5,29,14.2c1,0,2,0,3,0c0.1-5.5,0-11,0.1-16.5
		c-1.1,0-2.2,0-3.3-0.1c-0.1,4.8-0.1,9.6,0,14.5C186.3,11,176.8,6,167.2,1.4c-1-0.4-2.2-0.3-3.2-0.4c-0.2,5.5,0,11.1-0.1,16.6
		C165,17.6,166.1,17.6,167.2,17.6z"/>
	<path class="st0" d="M237.7,16.6l-0.4-0.3c-7.5-0.1-15.1,0-22.6,0c0.1-2.2,0-4.4,0.1-6.5c7.1,0.1,14.2,0.2,21.3-0.1
		c-0.1-0.3-0.3-0.9-0.4-1.1c-7-0.1-14,0-21,0c0.1-2,0.1-4.1,0.1-6.1c7.6,0,15.2-0.1,22.8,0.1l0.1-1.1l-0.5-0.2
		c-8.6-0.1-17.2,0-25.8,0c0,5.5,0,11,0,16.5c8.7,0,17.5,0,26.2,0L237.7,16.6z"/>
	<path class="st0" d="M194.9,71.9c0.6-0.4,1.5-0.7,1.5-1.5c-0.1-1.2-1.3-1.9-2.3-2.4c-1.9,0.7-4.1,1.2-5.8,2.4
		c-1.1,0.9-0.4,2.3,0.3,3.2c1.8,0.2,3,2.5,5,1.5C195.2,74.9,195.7,73.1,194.9,71.9z M193.9,71.4c-1.7,0.5-3.3,1.4-5.1,1.4
		c-0.7-2,1.6-2.6,3-3.3c1.2-0.5,2.9-1.4,3.7,0.2C196,70.8,194.6,71.2,193.9,71.4z"/>
	<path class="st0" d="M140.9,99.3c-1.9,0.1-3.3,1.5-4.5,2.8c0.2,0.1,0.6,0.3,0.8,0.4c0.5,0.6,1.3,1,1.2,1.9
		c-0.1,2.1-0.3,4.3-0.3,6.4c2.3-2,4.5-4.4,5.3-7.4c1,0.7,1.8,1.6,2.4,2.7c-1.9,2.2-3.6,4.6-5.5,6.8c0.2,0.6,0.3,1.2,0.5,1.8
		c2.2,0.4,4.4,0.8,6.6,1.2c0,1.1-0.1,2.3-0.2,3.4c-2-0.1-4-0.3-6-0.6c-0.3,0.9-0.6,1.8-1.1,2.6c1.2,1.9,2.4,3.8,3.6,5.8
		c-0.6,0.6-1.2,1.2-1.8,1.8c-1.1-1.3-2-2.6-2.9-4c-0.6-0.6-0.9-1.9-2-1.4c0.3,2.9,1.6,6.2-0.6,8.6c-0.7-0.8-1.4-1.5-2-2.3
		c2.1-1.8,0.8-4.6,0.9-7c-1.1-1.2-0.7-3.7-2.6-3.9c-0.1,1-0.2,2-0.3,3c0.3,3,0.7,6,2,8.8c0.7,1,1.3,2.6,2.8,2.7
		c2.3,0.1,4.7-1,6.2-2.8c1.6-2,2.3-4.5,3-6.9c0.2,4.4-2.2,9.1-6.4,10.8c1.4,0,2.7-0.6,3.8-1.4l0.3-0.6l0.3,0.1
		c1.1-1.6,2.2-3.4,3.1-5.4c1.9-7.3,2.4-15.4-0.7-22.5C145.6,102.3,143.8,99.5,140.9,99.3z"/>
	<path class="st0" d="M92.4,117.9c1.2,0,2.8,0.1,3.4-1.1c1.5-1.9,0.3-5.4-2.3-5.4c-2.8,0.2-5.8-0.6-8.5,0.6
		c-1.4,1.6-1.1,4.5,0.9,5.4C88.1,117.8,90.2,117.8,92.4,117.9z M86.3,112.4c2.4-0.2,4.9-0.1,7.3-0.1c2.6,0,2.7,5,0,4.9
		c-2.2,0-4.4-0.1-6.6-0.3C84.6,117,84.2,113,86.3,112.4z"/>
	<path class="st0" d="M4.8,131.6c0,1.4,2,1.3,3,1.7c7.1,1.4,14.3,2.3,21.5,2.6c-5.3-0.7-10.5-1.7-15.8-2.4v-0.6c-1,0-1.9,0-2.9-0.1
		v-0.5C8.7,132.2,6.8,130.2,4.8,131.6z"/>
	<path class="st0" d="M146,132.6l0.4,0.5c-0.1-0.3-0.2-0.9-0.2-1.2l-0.2-0.7c-0.3,0.5-1,1.5-1.3,1.9l-0.4-0.3l-0.1,0.4l-0.1,0.1
		l0.2,0.2c-0.4,0.3-1.1,1-1.5,1.4l-0.1,0.3C144.3,135.1,145,133.5,146,132.6z"/>
	<path class="st0" d="M141.5,32.9c1.8-1.1,3.7-2,5.7-2.9c0,0.3,0,1,0,1.4c0.2,0,0.7,0,0.9-0.1c-0.2-0.8-0.4-1.6-0.6-2.4
		c-2.4,0.9-4.4,2.7-7,3.2C140.9,32.4,141.2,32.6,141.5,32.9z"/>
	<path class="st0" d="M6.6,121.2c0.1,0.9,0.9,1.6,1.8,1.8c3.9,1.2,7.8,2.2,11.9,2.9c-0.5-2.9-1-5.8-1.3-8.7c-4.5-0.9-9-1.7-13.6-2.2
		C5.5,117.2,6.1,119.2,6.6,121.2z"/>
	<path class="st0" d="M99.9,123.1c0.3-1.3-1.3-1.4-2.2-1.4c-9.2,0.1-18.3-0.1-27.5,0c1.4,1,3.3,0.5,4.9,0.7c0.5,2.4,1.5,4.6,2.9,6.7
		c-1.4,0.1-2.8,0.2-4.2,0.5c0.4,0.2,0.7,0.3,1.2,0.2c7.6-0.5,15.3-0.1,22.9-0.2c0.6,0,1.1-0.2,1.5-0.6
		C99.8,127.1,99.7,125.1,99.9,123.1z"/>
	<path class="st0" d="M146.3,131.7c0.3-0.2,0.8-0.5,1.1-0.8c0.3-1.2,0.8-2.4,0.2-3.5C147.2,128.9,146.6,130.1,146.3,131.7z"/>
	<path class="st0" d="M146.1,134.1c1.2-0.8,2.4-2,2.4-3.6c-0.3,0.1-0.7,0.3-1,0.4c-0.1,0.4-0.3,1.1-0.4,1.4
		c-0.2,0.2-0.6,0.5-0.7,0.6l-0.3,0.6L146.1,134.1z"/>
	<path class="st0" d="M73.8,136.3c0.9,0.3,1.9,0.3,2.9,0.3c6.6-0.2,13.1,0,19.7-0.1c1.6-0.3,2-2,2.5-3.3c-7.6-0.3-15.2,0.1-22.8-0.2
		c-1.2,0-2.4,0.1-3.6,0.2c1.7,0.4,3.5,0.3,5.2,0.7c0.2,0.5,0.6,1.4,0.8,1.9C77,135.7,75.4,136,73.8,136.3z"/>
	<path class="st0" d="M218,92.6c-1.8,1.7-3.1,5.1-1,7c0.6-1.1,1-2.3,1.2-3.5c0.3,0.3,0.9,1,1.1,1.3C219.3,95.8,219.5,93.7,218,92.6z
		"/>
	<path class="st0" d="M215.1,98.7l-0.4-0.1c-0.4,2,0.2,4,0.2,6c0.1,0.7,0.2,2.7,1.3,1.9c0.2-2.1,0.2-4.3-0.4-6.4
		C215.5,99.6,215.3,99.2,215.1,98.7z"/>
	<path class="st0" d="M67.8,107.3c0.9,0,1.8-0.1,2.7-0.2v0.7c0.5,0,1.4-0.1,1.8-0.2l-0.1,0.7c8.5-0.3,17,0.5,25.5-0.2
		c2.5-0.4,5.1-0.5,7.4-1.7c-11.2-0.4-22.5-0.4-33.7-0.7C70.2,106,68.4,106.1,67.8,107.3z"/>
	<path class="st0" d="M225.4,76.8c0.4-0.5,0.8-0.9,1.2-1.4c1.7-0.9,3.5-1.7,5.2-2.7c0-1.1-0.1-2.2-0.1-3.4
		c-3.7,1.6-7.5,2.9-11.2,4.4C222.4,74.1,224.9,74.6,225.4,76.8z"/>
	<path class="st0" d="M84.6,79.9c-12.8-0.7-25.5-1.5-38.3-2c-0.2-0.2-0.5-0.6-0.7-0.8c-4.6,1.8-9,4.1-13.2,6.7c16,0.6,32,1.5,48,2.2
		c0.8-0.1,1.5-0.5,2.3-0.9c9.3-4.3,18.7-8.5,27.9-12.8c0-0.1,0-0.3,0-0.3c-3.1,0.5-6.2,1.2-9.3,2c-13.8-0.4-27.6-1.2-41.4-1.3
		c1-1.7,3-1.7,4.7-2.1c-0.6-0.8-1.7-0.5-2.5-0.3c-2.1,0.7-4,1.8-6.1,2.4c-0.1,0.2-0.4,0.6-0.5,0.9C69.8,74,84.1,74.4,98.3,75
		c-1.4,0.9-3.1,1.1-4.7,0.9c-9.6-0.5-19.2-0.7-28.8-1.2c-3.2-0.2-6.6,0-9.8-0.5l-0.3-0.3l-0.3-0.4c-2.6,1-5.1,2.6-7.9,3
		c0.3,0.3,0.6,0.7,0.9,1c2.4-0.6,4.8,0,7.2,0c10.6,0.5,21.2,1.1,31.7,1.6C86.1,79.8,85.3,79.9,84.6,79.9z M79.2,81.7
		c-11.8-0.4-23.5-0.9-35.3-2c0-0.6,0.4-0.9,1.1-0.8c12.2,0.8,24.3,1.4,36.5,2C81.4,82.1,79.9,81.5,79.2,81.7z M51.7,75.8l0-0.4
		c2-0.4,4,0.2,5.9-0.4c0.1,0.4,0.3,1.1,0.4,1.4C55.9,76.1,53.7,76.1,51.7,75.8z M58.4,76.3c0-0.2,0.1-0.7,0.1-0.9
		c11.1,0.9,22.2,0.8,33.3,2c-1.5,0.9-3.2,0.5-4.9,0.4C77.4,77.3,67.8,76.7,58.4,76.3z"/>
	<path class="st0" d="M197.6,96.3c-1,0.6-0.9,1.9-1.2,2.9c3.3-0.5,6.6-1.1,9.8-2.1c0.7-0.3,1.6-0.5,1.8-1.3
		c-3.4,0.9-6.8,1.5-10.3,2.2C197.7,97.6,197.6,96.7,197.6,96.3z"/>
	<path class="st0" d="M196.7,101.2c-0.2,0-0.6,0.1-0.8,0.1c-0.3,0.5-0.8,1.5-1,2c3.3-2.5,7.8-2.1,11.4-4c-0.1-0.1-0.3-0.4-0.4-0.5
		C202.9,100.1,199.7,100.5,196.7,101.2z"/>
	<path class="st0" d="M136.5,105.8c-0.2-0.4-0.7-1.2-1-1.5c-1.8,3.5-2.8,7.5-2.6,11.5C136.3,113.8,136,109.2,136.5,105.8z"/>
	<path class="st0" d="M125.2,109c-3.2,0.5-6.5,2.2-7.6,5.4c-1.3,4.2-2,8.5-2.9,12.8c2.6-0.7,5.5-0.7,8-1.8c-1-0.2-2-0.4-3.1-0.6
		c0.3-1.4,0.2-3,0.8-4.4c1-0.4,2-0.7,3.1-1c0.2-0.9,0.4-1.8,0.6-2.7c-1.2-0.1-2.2,0.5-3.3,0.6c0.3-2.1,1-4.2,2.2-5.9
		C123.7,110.5,124.7,110,125.2,109z"/>
	<path class="st0" d="M63.6,131.4c0.9,0.1,1.7-0.4,2.3-1.1c-0.4-4-0.7-8-1-11.9c-0.1-1.2-0.1-2.4-0.8-3.4c-14-0.7-27.9-1.5-41.8-3.4
		c-1-0.2-2.2,0.9-1.7,2c0.7,4.5,1.4,8.9,2.2,13.4c0.2,1.2,1.6,1.2,2.5,1.3c0,0.3-0.1,0.8-0.2,1c0.9,0,1.7,0,2.5,0.5
		c1.2,0.5,2.4,0.5,3.6,0.9c0,0,0,0,0,0c0.9,0.1,2.1,0.3,2.7,0.5c9.6,1.5,19.4,2.3,29.1,1.2c-10.4-0.1-21.7-1.1-32.1-2.5l0,0
		c-0.8-0.2-1.8,0-2.4-0.7l0-0.3C40.2,130.6,51.9,131.7,63.6,131.4z M28.2,126.7c-1,0-2-0.7-2.2-1.7c-0.4-2.4-0.7-4.8-1.1-7.1
		c2.7,0.1,5.4,0.5,8.2,0.3c-2.5-0.9-4.8-1.9-7.1-3.2c0-0.1,0.1-0.4,0.1-0.5c6.6,1.4,13.4,1.6,20.1,2.1c4.5,0.2,9,0.4,13.6,0.3
		c0,0.1,0,0.3,0,0.5c-2.3,0.4-4.7,0.5-7,1.2c3.4,0.6,6.8,0.5,10.2,0.9c0.7,2.7,0.8,5.7,1.2,8.5c-0.6,0.5-1,1.2-1.8,1.3
		C51,128.4,39.6,127.5,28.2,126.7z"/>
	<path class="st0" d="M138.3,122.4c0.4-0.7,0.9-1.3,1.3-2c1.1-1.7,0.5-3.8,0.5-5.7l-0.2,0.4c0-1.5-1.3-3.6-3.1-2.7
		c-2.6,2.4-3,6.9-0.9,9.8C136.5,123,137.5,122.6,138.3,122.4z M138,116c0.2,0.8,0.4,1.5,0.7,2.3c0.2-0.1,0.7-0.2,0.9-0.3
		c-0.2,0.9-0.4,1.8-0.6,2.8c-0.6,0.4-1,0.9-1.7,1.3c-0.7-0.3-1.3-0.7-1.9-1.2C137,119.7,138.1,118,138,116z"/>
	<path class="st0" d="M113.7,118.1c-3.3-0.2-6.6,0-9.9,0c-1.6,0-3.2-0.4-4.3-1.6c-1.3,1.9-3.8,2-5.8,2.3c-7,0.2-14,0.7-21.1,0.6
		c-0.5-0.1-0.9,0.1-1.2,0.5c0.9-0.8,2-0.3,3-0.2c5.6,0.2,11.2-0.1,16.8-0.1c7.5,0.2,15.1-0.6,22.6-0.9
		C113.8,118.5,113.7,118.3,113.7,118.1z"/>
	<path class="st0" d="M49.1,70c0.3,1.4,1.9-0.4,0.2-0.3L49.1,70z"/>
	<path class="st0" d="M15.5,101.8c-0.9-0.2-2.3,0.4-2.8-0.4c-1.1,0-2.1-0.1-3.2-0.1c2,0.4,4,0.9,6,1.2
		C15.6,102.3,15.5,101.9,15.5,101.8z"/>
	<path class="st0" d="M111.6,96.1c0.2,1.7,0.5,3.4-0.2,5.1c5.2-0.6,10.4-1.5,15.6-2.4c-4.7,0.2-9.4,0.8-14.2,1.2
		C112.8,98.6,112.9,97,111.6,96.1z"/>
	<path class="st0" d="M5.4,107.4c0.3,1,0.2,2.1,0.1,3.2c0.2,0.3,0.6,0.9,0.8,1.2c1.3,0.3,3.2,0.9,3.8-0.8c0.1-1.5,0.5-3.5-0.9-4.6
		C7.8,106,6,105.7,5.4,107.4z M9.1,111.2c-1,0-2.2,0.1-3-0.7c0.1-1.2,0.1-2.5,0.3-3.7c1,0,2,0.2,2.8,0.6
		C9.2,108.7,9.3,110,9.1,111.2z"/>
	<path class="st0" d="M217.3,87.7c-0.2-0.3-0.6-0.9-0.8-1.2c-1,2.9-1.5,6-1.7,9C217.2,93.9,216.9,90.3,217.3,87.7z"/>
	<path class="st0" d="M23.4,95.4c0,2.9-0.1,5.8-0.2,8.7c0.8-0.4,1.6-0.8,2.4-1.2c-0.6-2.2-0.7-4.5-0.7-6.8
		C24.5,95.9,23.8,95.5,23.4,95.4z"/>
	<path class="st0" d="M239,30.3c-0.9,0.4-1.8,1.2-2.8,1.1c-0.9,0.1-2-0.4-2.7,0.3c-0.3,0.2-0.7,0.6-1,0.8c-0.7,0.2-1.4,0.4-2.1,0.7
		c0.4,0.1,1.1,0.3,1.5,0.4c1.4-0.5,2.5-1.6,4-1.7c-2,1.2-3.9,3.2-6.3,3.1c-5.8,0-11.6,0-17.4,0c-2.7,0.1-5.1-1-7.7-1.3
		c0.1,0.5,0.4,0.9,0.9,0.9c1.6,0.4,3.3,0.8,4.9,1c6.9,0.2,13.8-0.1,20.6,0.2l-0.1,0.8c-6,0-12.1,0-18.1,0c-4.3,0.2-8.3-1.9-12.6-1.7
		c-11.8,0.2-23.6,0.2-35.4,0.2c1.3-0.6,2.6-0.9,4-0.7l0.2-0.9c-3.1,0-6,1.8-9.1,1.5c-6-0.3-12-0.5-18-0.4c1.3-0.9,2.7-1.4,4.2-1.9
		c-0.1-0.1-0.2-0.4-0.3-0.5c-0.7-0.1-1.3,0.1-1.9,0.5c-1.7,0.9-3.3,1.9-5.2,2.2l0.2-0.9l1.3-0.1c-0.2-0.4-0.2-0.5-0.4-1
		c-1.3,0.9-2.7,1.9-4.4,1.8c-8.5-0.1-17,0.2-25.4,1.4c-4.5,0.3-8.9,1.5-12.9,3.5c-8.9,4.3-16.8,10.5-24.3,16.9
		c-1.2,1.2-3,0.3-4.5,0.5c-1.4,0.1-3.5-0.6-4.3,1c-1,2-0.5,4.4-0.2,6.5c-0.6,0.8-1.4,1.5-2.4,1.7c-3.7,1-7.3,2.2-10.9,3.4l-0.3,0.9
		c4.1-1,8-3.2,12.3-3.2c-4.8,1.2-9.6,2.8-14.1,4.8c-0.1-0.5,0-0.9-0.1-1.4c-1.3-0.5-0.6,2.1-1.9,1.7c0.2-0.6,0.5-1.1,0.9-1.6
		c-2.4,0.5-4.7,2.4-7.2,2.1c0.2,0.4,0.4,0.8,0.6,1.2c1.4-0.6,2.9-1.2,4.3-1.7c-0.2,0.4-0.7,1.1-0.9,1.5c-2.1-0.5-4.1,2.5-6.1,1
		c1.4,0.2,2-0.4,2-1.6c-4.2,2-8.6,3.7-12.9,5.6c-0.1,0.3-0.3,0.8-0.3,1c3.5-1.6,7.1-3,10.6-4.7c0.8,0.5,0,1.3-0.7,1.4
		c-3.6,1.4-7.1,3.2-10.8,4.6c2-0.3,3.8-1.4,5.6-2.1c7.5-3,15-6.1,22.8-8.5c1-0.4,2.4-0.1,3.2-0.9c0.4,0,1.1-0.1,1.4-0.2
		c2.5-1.2,5.4-1.1,8.1-1.7L66.8,67c0.7-0.2,1.4-0.3,2.2-0.4c25.9-0.1,51.7,1.8,77.5,3.4l-0.7,0.8c-3.9,2.6-8.5,3.9-12.8,5.6
		c-8.5,3.1-16.6,7.2-24.2,12.1c-2.1,0.8-3.7,2.5-5.7,3.2c-9.8,0.1-19.5,2.2-29.2,3.9c0,0,0,0,0,0c-2.7,0.8-6.5,1.9-9.2,1.5
		c-13.5-1.1-27.1-1.7-40.7-3c1.7,1.6,1.2,4.1,1.9,6.1c0.2,1,0.4,2,0.6,3.1c-1,0.5-2,1-3,1.7c1.6-0.3,3-1.3,4.7-1
		c11.8,0.9,23.6,1.6,35.4,2.6l0.3,1c1.4-3.1,2.5-6.4,3.8-9.6c0.4,0,1.3,0.1,1.8,0.2c-0.9,2.6-1.8,5.3-2.8,7.9
		c0.7-0.3,1.4-0.5,2.1-0.8c0.3-0.6,0.5-1.2,0.8-1.7c0.6,0.5,1.3,1,2,1.3c-0.1-1-1.2-1.7-0.9-2.7c0.4-1.6,0.9-3.2,1.5-4.7
		c0.1,1.2,0,2.4-0.4,3.6c-0.8,1.7,0.6,4,2.5,3.9c7.2,0.1,14.4,0,21.6,0c6.2-0.1,12.8-1.5,18.8-2.4c0,0,0,0,0,0
		c5.1-0.8,10.2-1.6,15.2-2.4c-1.5,3.3-2.5,6.8-3.2,10.4c-1.3,6.7-2.1,13.1-2.1,19.9c-0.5-0.5-0.7-0.4-1.1-0.8
		c0.1-1.1,0.2-2.3,0.3-3.4c-3.2,0.6-6.3,1.3-9.5,1.9c-3.4,0.6-6.9,0.1-10.2,0.7c1.8,0.6,3.7,0.7,5.5,0.8c-1.4,1.3-4,0.8-5.9,1.5
		c0,0.5-0.1,1.4-0.1,1.8c2.6,0,5.1-0.6,7.7-0.8c-1.4,1.6-3.9,0.5-5.3,2.2c5.3-0.7,10.7-1.3,16-1.9c0.4-1.7-1.8-2.5-2.9-3.5
		c2-0.1,3.6,1,5.2,2c0,1.2,0,2.5-0.1,3.7c-7.7,1.2-15.5,2.2-23.2,3.3c-26.9,0.2-53.8-1.7-80.4-5.2c-0.3-0.3-0.3-0.6,0.1-1
		c-0.7-1-1.1-2.4,0.1-3.3c-4.7-0.7-9.4-1.7-14.1-2.7c0.3,1.5,0.8,3.6,2.7,3.8c3.5,0.6,7,1.8,10.5,1.7c-0.2,0.2-0.5,0.7-0.7,0.9
		c-2.9,0.1-5.7-1-8.6-1.2c-0.5,0-1.5-0.2-2.1-0.5c-0.6-0.3-1.5-0.2-1.9-1c-1-3.1-1.2-6.3-1.9-9.4c-0.2-2.8-2-5.9,0.1-8.3
		c-0.1-3-0.4-5.9,0-8.9c0.6-1.8,2.6-2.3,3.9-3.3c1.1,0.6,2.9,0.2,3.6,1.3c0-0.1,0-0.3,0-0.4c0.7,0.1,1.3,0.3,1.9,0.6
		c1.8,0.2,3.5,0.6,5.3,0.9c0,0.1,0,0.4,0,0.5c-1.1-0.3-2.3-0.9-3.5-0.3c0.9,1.3,3.1,0.8,4.6,1.5c0.1-3.6,0.6-7.2,0.6-10.8
		c-2.5-2.3-5.7-3.7-8.2-6c4.6-2.3,8.9-5.1,13.8-6.9c-0.4-0.2-0.8-0.5-1.2-0.7c-4.6,2.8-9.9,4.5-14,8.1c2.8,1.5,5.6,3.2,7.9,5.3
		c-2.6-0.9-5.1-1.9-7.7-2.9c0-0.7-0.6-1.2-1.1-1.6c-1.6,3.5-1.6,7.4-2.4,11c-1.5,0.9-3.1,1.8-4.2,3.3c-0.4,3.1,0,6.3,0,9.4
		c-0.8,1.1-1.5,2.3-1,3.7c1,4.6,1.4,9.4,2.8,13.9c-0.1,0.3-0.1,0.5-0.2,0.8c0.9,0,1.6,0.4,2.5,0.8c0,0,0,0.1,0,0.1
		c0.2,0,0.3,0.1,0.5,0.1c0.2,0.1,0.3,0.1,0.5,0.2c0,0,0,0,0-0.1c1.8,0.5,4.2,1.1,5.7,1.5c7.8,0.7,15.6,2.1,23.4,2.8
		c20.7,2.2,41.5,3.2,62.3,3.2c5.6-0.7,11.2-1.4,16.8-2.4c0,0,0,0.1,0,0.1c1.1-0.3,2.7-0.6,3.4-0.4c0,0,0,0,0,0
		c1.5-0.9,3.7-0.6,5.4-0.6c0.1,0.3,0.4,0.8,0.6,1.1c-2.2-0.8-4.5-0.1-6.7,0.1c-0.8,0.4-2.1,0.5-2.8,0.4c-0.1,0.4-0.1,0.8-0.2,1.2
		c-3.3,0.4-6.6,1.2-9.9,1.5c-5,0.8-10,0.7-15,0.8c-5.1-0.7-10.4-0.1-15.5-0.5c4.7,0.9,9.6,0.3,14.3,0.8c11.8,1.4,23.6-0.6,35-3.8
		c0.1,0.2,0.2,0.6,0.3,0.9c-4.3,1.3-8.8,2.3-13.1,3.5c4.9-0.6,9.9-1.5,14.7-2.9c-0.7-1-1.1-2.1-1-3.3l0.6,0.9c1.5,0.1,0.8,1.8,1,2.8
		c-5.2,1.5-10.4,3.1-15.7,4c-12.8,1.9-25.8,0.5-38.7-0.5c-14.7-1.3-29.4-2.1-44.1-3.8c-9.7-1.2-19.5-2.4-28.8-5.5
		c1.1-1.5,3.2-1.6,4.8-2.3c-0.4-0.2-0.8-0.4-1.2-0.7c-1.4,0.9-3.5,0.9-4.2,2.6c0.3,0.6,0.7,1.2,1.3,1.4c2.3,0.8,4.6,1.3,7,1.7
		l0.5,0.7c-1.7,0.2-3.5,0.4-5,1.5c0.9,1.2,2.4,1.6,3.7,2c6.2,1.8,12.6,2.7,19,3.6c17.1,2.4,34.2,4.1,51.5,5.2
		c13.2,0.8,26.5-0.1,39.4-2.8c7.3-1.3,14.4-3.5,21.8-4.2c4.6-0.5,9-2.8,11.4-6.8c16.5-5.5,33.1-10.9,49.9-15.9
		c5.6-1.7,11.3-3.3,17.2-3.6c2.1,0,4-1.2,5.2-2.9c2.1-2.8,2.8-6.4,3.3-9.8c3.2-1.4,5.8-3.7,8.2-6.2c0.8-0.9,1.8-1.8,2.1-3
		c-0.2-2.3-2.7-2.8-4.4-3.7c0-0.8-0.1-1.6-0.1-2.4c1.6-4,1.8-8.4,2.3-12.6c0.2-1-0.9-1.6-1.4-2.4c0-4.6-0.6-9.2-1.9-13.7
		c-0.6-2.3-1.9-4.5-4.2-5.3c-3.3-0.6-6.7-0.7-10.1-0.9c-0.1-1-0.2-2-0.4-3.1c-0.4,0-1.1-0.1-1.5-0.2c0-4.1,0-8.2,0-12.3
		c5.4,0,10.8,0.1,16.2,0c0.7,1.6,0.9,3.5,1.8,5c1.6,0.5,3.3,0.5,5,0.8c0.1-0.1,0.5-0.4,0.6-0.5C238.9,38.5,239,34.4,239,30.3z
		 M61.7,104.3c-10-0.8-20-1.5-30-2.2c-0.3-0.1-0.9-0.2-1.2-0.3c2.5-1,5-1.9,7.7-2.1l0-0.8c-2.9-0.1-5.8-0.7-8.6-1.4
		c0-0.1,0-0.2,0-0.3c11,1.3,22.1,1.4,33.2,2.5c-3.3,0.7-6.8,0.2-10.1,0.4C55.8,101.3,59.2,102.1,61.7,104.3z M11.7,91
		c0.2,0.1,0.6,0.4,0.8,0.6c1.2,0.2,2.4,0.6,3.7,0.8c-0.8,2,0,5.6-2.9,6c-0.5-0.4-1-0.8-1.5-1.2c-0.9-1.7-0.2-3.5,0.7-5.1
		c-1,0.2-1.1,1.5-2,1.7C10.5,92.8,11,91.8,11.7,91z M11.4,98.1c2.2,0.7,4.5,1,6.7,1.7c-0.8-0.9-2.1-1.6-1.9-3
		c-0.3-1.5,1.1-2.9,0.1-4.3c1.4,0.4,2.7,1.1,4.2,1.1c-0.3,1.8,0.3,3.8-0.9,5.3c-0.4,0.2-0.8,0.6-1.2,0.8c0.8,0.1,1,0.5,1.3,1.1
		c-3.4-0.5-6.6-1.7-10-2.2C10.2,98.2,10.8,97.8,11.4,98.1z M211.5,37.3c1,0,1.9,0,2.9,0.1c-0.1,4-0.1,8.1,0,12.1
		c-1.1,0.1-2.2,0.1-3.3,0.1C211.4,45.6,211.5,41.5,211.5,37.3z M182.2,35.7c6.6,0.1,13.2,0,19.8-0.1c3,0.5,5.9,1.2,8.9,1.8
		c-0.4,4.9-0.4,9.8-0.5,14.8c-1.3-0.2-2.9,0.1-4-0.7c-5.3-4.1-10.4-8.4-16.1-12c-3.2-2.1-6.9-3-10.6-3.6
		C180.5,35.8,181.3,35.7,182.2,35.7z M64.8,57.8c2.1-0.3,4.3-0.1,6.4-0.2c-2.2,2.2-4.5,4.2-6.8,6.3C64.3,61.8,64.2,59.8,64.8,57.8z
		 M66.4,67.1c-1.3-0.3-2.4-0.1-3.7-0.1c9.2-9.1,18.9-17.5,29.9-24.4c0.7-0.7,1.7-1.2,2.6-0.5c-6.4,3.3-11.8,8.1-17.3,12.7
		c-4,3.6-8,7.2-11.7,11.1C66.3,66.2,66.4,66.8,66.4,67.1z M125.3,68C125.3,68,125.3,68,125.3,68c-8.8-0.7-18.5-1.1-27.3-1.6
		c-10.2-0.2-20.3-0.9-30.5-0.6c7.6-8.2,16.3-15.4,25.5-21.8c0.8-0.5,1.4-1.1,2.3-1.3c5.1-0.6,10.2-0.6,15.3-0.9
		c-0.4,0.4-1.2,1.1-1.6,1.5c2.2-0.4,4.5,0.1,6.7,0.1c4.6,0.1,9.2,0.3,13.8,0.6c3.3,0.7,6.8,0.2,10.1,0.7c-3.6,0.1-7.1,0.1-10.7-0.3
		c-6.2,0.1-12.4-0.3-18.6-0.4c-0.8,1.3-1.7,2.6-2.5,4c0.1,0.1,0.4,0.4,0.5,0.6c-0.3,0-0.8,0-1,0.1c-3.2,5-6.4,10-9.6,14.9
		c9.8,0.7,19.6,1.4,29.3,2c3.2,0.4,6,0.3,9.2,0.4c0.4,0,1.1,0.3,1.4,0.6c-12.7-0.6-25.4-1-38.2-1.3c2.8,0,5.6,0.6,8.4,0.6
		c5.3,0.1,13.5,1.4,18.9,1.2c0.1,0,0.2,0,0.2,0c0,0,0.1,0,0.1,0c0.1,0,0.1,0,0.1,0c0.7,0,1.5,0.1,2.2,0.2c6,0.3,12.1,0.7,18.1,1
		c2.8-7.6,5.3-15.5,6.2-23.6c-14.4-1.9-29-2.5-43.6-2l0.8-0.9c9.3-0.6,18.3,0.1,27.6,0.4c5.6,0.6,11.1,1,16.6,1.8
		c-1.3,8.6-3.3,17.2-6.4,25.4C140.9,69.1,132.6,68.4,125.3,68z M108.5,48l2.2-3.5l17.7,0.5l10.4,0.1l2-0.6l-11.9-0.9L115.8,43
		l10.7,0.1l14.7,0.7l11.8,1.3c0,0-0.6,6.1-2,10.9c-1.4,4.7-3.9,11.9-3.9,11.9l-17.4-1l8.5-0.1l-1.4-0.9l-18.2-1.3l-14.5-1.2L99,62.8
		l8.4-13.4l1.4-0.4L108.5,48z M154.2,57.9c-0.2-0.1-0.7-0.3-0.9-0.4c0.2-1.6,0.7-3.2,1-4.8l0.8-0.3C154.9,54.2,153.8,56,154.2,57.9z
		 M153,62.1c-0.3,0.1-0.8,0.2-1.1,0.2c0.3-1.2,0.6-2.4,0.9-3.6l0.2-0.3C154.4,59.2,152.2,60.9,153,62.1z M154.8,52
		c-0.2-0.6-0.4-2.4,0.6-1.9C155.5,51.1,155.4,51.5,154.8,52z M73.2,100.7c0.1,0.8,0,1.5-0.3,2.2c-0.6-0.1-0.6-1.3-0.3-2c0,0,0,0,0,0
		c0.5-1.1,0.5-3.5,1.6-4.4c0.1,0.3,0.2,0.6,0.3,0.8C73.7,98.1,74.1,100,73.2,100.7z M87,102.9c-3.5-0.6-7.1-0.3-10.6,0.3
		c-0.9-2.2-1.2-4.7,0-6.8c2.9-1.5,6.4-1.2,9.6-1.6C87.6,97.1,88,100.2,87,102.9z M106.5,101.9c-0.2,0-0.6,0.1-0.8,0.1
		c1-1.9,1.4-4.3,0.1-6.2c-1.2-1.4-3.2-1.9-5-1.9c2,2.5,2,5.9,0.8,8.7c-3.3-2.1-7.7-1.8-11.2-0.1c-0.4-2.8-0.5-5.9,1.4-8.3
		c1.3-0.8,2.7-1.3,4.2-1.4c3.7-0.3,7.6-0.9,11.3,0.3c1.6,1,2.4,2.8,2.3,4.6c-0.4-1.6-1.2-3.3-2.8-3.9
		C108.4,96.4,108.4,99.6,106.5,101.9z M148.7,105.1c-0.5-1.3-1.4-2.5-1.8-3.9c-0.3,0.3-0.5,0.6-0.8,0.9c3,4.3,3.5,9.9,3.5,15
		c0.2,2.5-0.8,4.9-0.6,7.4c-0.3,0.4-0.5,1.2-0.7,1.6c0.5,0.1,0.8,0.1,1.3,0.2c-0.3,0.9-0.7,1.7-1,2.6c0.2,0.4,0.4,0.9,0.7,1.3
		c0.3-1,0.7-2,1.2-2.9c-0.9,3.5-2.3,7.1-5.4,9.3c-0.8-0.7-1.8-0.9-2.8-0.4c0.1-0.3,0.4-0.9,0.6-1.2c-2,0.3-4.2,0.7-5.9-0.6
		c-3.2-2.2-3.9-6.3-4.6-9.9c-0.4-2.7-0.8-5.4-0.4-8.1c0-5.1,1.1-10.4,3.9-14.7c1.6-2,4.2-4.1,7-2.9c0.9,0.6,2.4,1.1,2.3,2.4
		c0.4-0.3,0.8-0.6,1.1-0.8c-0.2-1.6-1.9-2.2-3.2-2.8c-3.4-1.2-6.8,1.4-8.5,4.2c-3.7,6.2-4.1,13.7-3.7,20.8c0.5,5.2,2.1,11.2,6.9,14
		c0.7,0.6,1.9,0.5,2.5,1.2c-4,0-7.5-2.9-9.1-6.5c-2.7-6.1-2.8-13-2.2-19.5c0.7-5.6,1.9-11.5,5.7-15.8c1.7-1.8,4.3-3.8,6.9-2.5
		c5.7,2.3,8.8,8.4,9.9,14.2c0.6,5.2,0.8,10.7-1.2,15.6C151.1,117.2,151.1,110.8,148.7,105.1z M169.7,124.4c-5.9,1.6-12,3.8-18.2,3.2
		c0.1-0.4,0.3-1.2,0.4-1.6c5.5-0.6,10.8-2.3,16.1-3.8c14.2-4.4,28.6-8.1,43.1-11.6c0.3,0.5,0.6,1.1,0.7,1.7
		C197.7,116.3,183.7,120.4,169.7,124.4z M195.9,112.4c2.7-0.1,5.2-0.9,7.9-1.1c-1.8,0.5-3.6,0.9-5.4,1.5
		C197.5,113.4,196.7,112.8,195.9,112.4z M220.3,106.4c-0.9-1.7-1.8-3.4-2.5-5.2c0.3-0.3,0.9-1,1.2-1.3c-0.8,0.5-1.7,0.7-2.6,0.6
		c0.4,0.6,1.2,1.1,1.2,2c-0.1,2,0.6,4.1-0.3,5.9c-0.3,0.1-0.8,0.2-1.1,0.3c0.7,2,3.2,1.2,4.3,0c1.7-1.6,1.8-4,3-5.9
		c-0.8,2-0.4,4.9-2.5,6c0.5,0.5,1.2,1,1.9,1.1c0.2,0,0.3,0,0.5-0.1c0-0.6-0.1-1.7-0.1-2.3c1.1,0.6,0.7,1.8,0.7,2.8
		c-0.7,1.1-1.4,2.3-2.8,2.6l-0.3,0.7c0-0.3,0.1-1,0.2-1.3c-0.4,0.1-1.2,0.4-1.6,0.5c0.2-0.2,0.7-0.5,0.9-0.7c0.8,0,1.5-0.1,2.3-0.3
		l-0.9-0.8c0.2-0.2,0.5-0.6,0.8-0.9c-1.2,0.6-2.3,1.8-3.7,1.5c-1.7-0.1-3.5-2.1-2.5-3.7l-0.7,0.1c-0.4-2-1-4-1-6.1
		c0-1.2-0.1-2.3,0-3.5c0.6-3.8,0.2-7.8,1.8-11.4c0.8-1.9,1.4-4.6,3.8-5.1c2.2-0.1,3.5,2.4,3.5,4.3c-0.6-1.5-1.3-3.1-2.9-3.6
		c-1.5-0.1-2.4,1.3-3.3,2.3c0.3,0.3,1.1,0.9,1.4,1.1c-0.3,1.9-0.4,3.8-0.4,5.8c1.6-1.5,2.7-3.5,3.3-5.5c0.9-0.4,1.1,1.1,1.6,1.6
		c-0.8,2.5-3.8,4.3-3.3,7.2c1.5,0.3,2.9,0.6,4.3,1.1c-0.1,0.9-0.3,1.8-0.4,2.7c-1.2-0.2-2.4-0.4-3.6-0.5c-0.2,0.5-0.5,1.6-0.6,2.1
		C220,102.3,222.7,104.8,220.3,106.4z M226.1,99.3c-0.1-3.7,0-7.4-0.9-11c-0.4-1.9-1.3-3.7-2-5.5c-0.7-1.6-2.9-2.4-4.4-1.4
		c-2,1.3-3,3.6-3.8,5.7c-1.5,4.9-1.8,10.1-1.5,15.2c0.3,4.2,1.5,8.9,5.3,11.2c-1.7-0.2-3.1-1.2-3.9-2.6c-2.1-3.3-2.5-7.3-2.6-11.1
		c-0.1-5.9,0.4-11.9,2.6-17.4c0.9-2,2.2-4.3,4.5-4.8c2.5,0,4.1,2.4,5.2,4.4C227,87.3,227.4,93.6,226.1,99.3z M233.8,94.1
		c-1.5,1.8-3.4,3.4-5.3,4.7c1.1-2.4,3.2-4.1,4.6-6.3C233.3,93,233.5,93.5,233.8,94.1z M222.3,54.1c2.8,0,6.5,0.2,7.6,3.3
		c1.8,5.1,2.6,10.5,2.6,15.9c0.3,0.3,0.9,0.8,1.1,1c-0.1,1.7-0.1,3.3-0.1,5l-0.3,0c0-1.5,0-3,0.1-4.5c-2.4,0.9-4.7,2-7.2,2.6
		c2.5,4.2,2.7,9.3,2.6,14.1c2-1.7,2.8-4.7,3.5-7.2l0.3,0c-0.3,1.9-0.8,3.7-0.9,5.6c0.2,0.2,0.7,0.7,1,1c-1.2,2.2-2.7,4.5-4.8,5.8
		c0.2-6.1,0.7-12.6-2.1-18.2c-1.3-2.9-4.9-4.6-7.9-3.5c-2.3,1.1-3.4,3.5-4.4,5.6c-2.3,5.4-3.4,11.2-4.5,17c-0.8,0-1.5,0.2-2.3,0.4
		c0.2,0,0.7,0.1,0.9,0.1c0.3,0,1,0,1.4,0c-0.6,3.1-1,6.2-1.2,9.3c-2,0-3.9,0.6-5.8,0.7c-3,1-7.2,1.8-10.2,2.6c0.3-0.8,1.3-0.7,2-0.9
		c2.1-0.4,5.1-1.5,7.5-1.8c1.6-0.7,4,0,5.1-1.5c-6.8-0.1-13.3,2.2-19.8,4c-8,2.4-16.1,4.8-24.2,7.2c-0.3-1.4-0.7-2.8-1.1-4.1
		c9.7-2.5,19.5-4.9,29.2-7.4c2.7-0.7,4-3.2,5.3-5.5c-0.1-1.7,0.8-3.3,1.2-5c1.5-5.9,2.6-12,2.5-18.1c-0.2-5.3-1.2-11.1-5-15.1
		c2.3-0.7,4.6-1.4,6.8-2.4c2.4-1.3,2.9-5.1,0.7-6.8c-2.6-2.2-5.5-4-8.1-6.2c0.1,0.4,0.4,1.2,0.5,1.5c2.5,1.5,4.8,3.4,7,5.2
		c2,1.6,1.2,5.1-1.2,5.9c-2.3,0.8-4.6,1.7-6.9,2.3c-0.3-0.7-0.8-2-1.2-3c1.4,2.8,4,0.2,6.2,0.1c-2.4-5.2-6.3-9.6-10.1-13.8
		c-1.4-1.3-2.5-3.1-4.6-3.4c0.1,0.5,0.3,1,0.7,1.3c3.3,3.6,6.1,7.7,8.1,12.2c-2.7-3.6-5.1-7.4-7.9-10.9l-0.7-0.1
		c0.6,1.1,1.8,3.2,2.4,4.3c-2.6-2.6-4.5-5.8-7-8.5c2.8,0.2,5.7,0.9,7.9,2.8c1.8,1.5,3.8,2.6,5.4,4.3c0.3-0.2,0.6-0.5,0.9-0.7
		c-1.6-1.1-3.7-1.8-4.5-3.7c4.4,2.7,8.4,6,12.7,8.9c2.1,1.4,3.9,4.1,2.4,6.6c2.3-0.7,4.6-1.4,7-1.9c-2.9-2.1-5.7-4.2-8.5-6.4
		c-0.9,1.4-3.7-0.8-1.9-1.5c-0.4-0.2-1.1-0.6-1.5-0.8c-0.1,0.2-0.2,0.6-0.3,0.9c-3.9-3.6-8.7-5.8-13-8.8c-0.2,0.3-0.5,0.8-0.7,1.1
		c-4.2-2.4-9.1-1-13.5-0.3c-2.2,0.4-4.5,0.6-6.7,1.1c-2.2,0.6-3.9,2.5-4.3,4.8c-1.6,6.7-3,13.4-4.6,20.1c-0.3,0.2-0.8,0.5-1,0.7
		c0.2,0.1,0.5,0.2,0.7,0.3c-0.1,0.5-0.2,1.6-0.3,2.2c0.5,0.4,1,0.9,1.4,1.4c-0.5,16.3,1.2,32.7,5.3,48.5l-0.2,0.6l-1.5,0
		c0.3,0.3,0.6,0.6,1,0.8c1.1-0.7,2.4-1,3.6-1.3c7.1-2.3,14.3-4.5,21.5-6.6c1-0.2,1.9-0.6,2.9-0.5c0-0.2,0.1-0.5,0.1-0.7l-0.3-0.2
		c-1.3,0.2-2.6,0.7-4,0.7c1.9-1,4.1-1.3,6.1-1.8c-0.3,0.2-0.8,0.5-1,0.6c-0.9,0.6,1.5,0.9,1.6,0.4c3.7-1.1,7.5-1.9,11.3-2.8
		c1.5-0.2,3.1-0.5,4.6-0.4c-0.1,0.3-0.4,0.9-0.6,1.2c-4.8,0.5-9.6,1.7-14.2,3c-1.9,0.7-4.1,0.9-5.9,1.9c2.8-0.8,5.7-1.1,8.6-1.9
		c0.1,0.2,0.2,0.6,0.2,0.8c-11.7,2.8-23.3,6.4-35,9.5c0.4-0.4,1.2-1.2,1.6-1.7c-0.8,0.4-1.6,0.8-2.4,1.2c0-0.5,0.1-1.4,0.2-1.8
		c-2.6,1.2-5.2,2.2-8,2.6c0.5-6.4,1.1-12.9-0.5-19.2c-0.5-0.2-0.2-2.5,0.5-1.5c1.6,6.4,1.5,13.1,0.8,19.6c2.6-0.6,5.2-1.3,7.5-2.8
		c-1.1,0-2.2-0.1-3.4-0.2c0.4-0.4,1.2-1.3,1.6-1.8c-0.7,0.3-2.2,0.9-3,1.2c0.6-0.7,1.8-2,2.4-2.7c-0.7,0.4-2,1.2-2.7,1.6
		c0.9-1.3,2.1-2.4,2.7-3.9c-0.8,0.7-1.5,1.6-2.5,2c0.6-1.1,1.3-2.2,2-3.3l-2,1.3c0.3-0.9,1.3-2.4-0.1-2.8c0.1-0.8,0.1-1.5,0-2.3
		l-0.8,0.1c0.2-0.8,0.5-2.4,0.6-3.2c-0.3,0.5-0.9,1.6-1.2,2.1c-0.5-2.6-1.4-5.2-2.3-7.7c0,0.4-0.1,1.1-0.1,1.4
		c-0.2,0.1-0.7,0.4-0.9,0.5c0.6-1.2-0.4-2.3-0.7-3.4c-1.6-4.1-5.8-7.8-10.5-6.9c-4.4,0.4-7.5,4.1-9.1,7.9c-4.2,0.7-8.3,1.4-12.5,2
		c-1,0.1-3.3,0.4-4.2,0.6c-1.1,0.2-2.3,0.4-3.4,0.6c0.5-2.1,0.9-4.4,0.2-6.5c-0.9-2.5-3.6-4.1-6.2-3.8c1.1-1.3,2.8-1.8,4-2.9
		c9.3-5.3,18.7-10.4,28.9-13.8c3.2-1.2,6.6-2.3,9.2-4.5c0.7-0.8,1.7-0.6,2.6-0.6c1-2.6,2.1-4.9,2.5-7.7c0.2,0.4,0.4,0.4,0.7,0.8
		c-0.7,2.1-1.7,4.1-2,6.3c1-0.1,2-0.2,3-0.2c-0.7-0.3-1.4-0.5-2-0.8c2-5.8,3.7-11.7,4.7-17.8c0.2-1-0.1-2.2,0.7-3.1
		c-0.6,0-1.2,0-1.7,0c1.3-1.8,0.3-4.5,2.2-6c4.4-3.6,10.4-3.6,15.7-4.5l-0.2-0.2c-3.5-0.2-7,0.6-10.3,1.6c-2.7,0.8-5.7,1.9-6.9,4.7
		c-2.2-0.1-4.4-0.7-6.7-0.5c0.4-0.3,0.8-0.6,1.3-0.8c1.5,0.3,3.1,0.5,4.6,0.8c1.3-2.2,3.6-3.3,5.6-4.6c-2.1,0.2-3.9,1.2-5.5,2.5
		c-0.7,0.7-1.7,0.2-2.5,0.2c-8.1-0.9-16.3-1.3-24.5-1.3c-4,0-8.1-0.1-12.1,0.6c3.8-0.1,7.7,0.3,11.5,0.3c3.6,0,7.2,0.1,10.9,0.5
		c1.4,0.1,3.7,0.3,5.4,0.4c0.1,0,0.2,0,0.3,0c0.1,0,0.1,0,0.2,0c0,0,0,0,0,0c1.8,0.1,3.5,0.6,5.3,0.3c-1.1,1.2-2.7,0.6-4.2,0.6
		c-0.4,0.1-0.9,0-1.3-0.1c0,0,0,0,0,0c-15.6-1.2-32.6-1.6-48.2-0.2c0-0.3,0-0.6,0.1-0.9c4.6-2.8,10.1-4,15.4-4.5
		c19.6-2.2,39.3-1,58.9-0.4c3.4-0.3,6.6,0.7,10,1c6.5,0.2,11.8,4.3,16.8,8l0,0.6l0.9-0.4l-0.5,1.1l1-0.3l0.3,0.3
		c0.8,0.6,1.8,1,2.3,1.9c3,1.7,5.3,4.9,8.8,5.6C213.8,54.5,218.1,54.4,222.3,54.1z M184.7,112.4c-0.2,0.1-0.5,0.4-0.7,0.6
		c-6.1,1.8-12.2,3.6-18.3,5.6c-1.1,0.3-2.2,0.9-3.3,0.8c0.5-0.5,1.1-0.9,1.8-1C171.1,116.4,177.8,114.1,184.7,112.4z M160,106.4
		c-2.1-11.7-2.9-23.6-2.5-35.5c1.9,0.2,3.7-0.4,5.5-0.8c3.8-0.3,7.6-0.5,11.5-0.4c1.7,0.1,3-1.1,3.6-2.6c5.2-1.3,10.3-2.8,15.5-4.3
		c3.1,3.1,4.2,7.5,4.7,11.7c0.8,8.3-1,16.5-3.2,24.4c-0.6,2.9-2.4,5.8-5.5,6.5c-9.5,2.4-19.1,4.8-28.6,7.2c0-0.4-0.1-1.1-0.2-1.5
		c9.4-2.2,18.9-4.5,28.3-7c3-0.8,4.9-3.7,5.7-6.6C183.2,100.6,171.6,103.4,160,106.4z M175.9,40.3c0.9,0,1.7,0.1,2.6,0.2
		c5.7,6.5,10.5,13.8,14.1,21.7c-0.8,0.4-1.6,0.6-2.5,0.5C187.1,54.3,181.6,47,175.9,40.3z M189.2,61.8c-0.3-0.1-0.9-0.4-1.2-0.6
		c-2.3-5.3-5.4-10.4-9-14.8c0.3-0.3,0.6-0.5,0.9-0.8c0.3,1.2,1.3,2.1,1.9,3.2C184.6,52.9,187.2,57.2,189.2,61.8z M178.9,44.7
		c-0.3,0.3-0.5,0.5-0.8,0.8c-0.2-0.4-0.7-1.2-0.9-1.6l-0.9-0.3c3.2,5,5.9,10.3,8.8,15.4c-3.7-5.2-6.7-10.7-10.1-16.1
		c-1.5,0.4-3.1,0.8-4.7,1.1c3.2,6.9,6.5,13.8,9.9,20.7c2.5-0.8,5-1.5,7.4-2.3c0.4-0.7,1.3-0.4,2-0.5l-0.3,1.3
		c-3.7,1.4-7.6,2.1-11.4,3.3c1-2.9-1-6.2-4-6.6c-2.9-0.1-6.4-1-8.8,1.2c-1.9,1.2-1.9,3.9-3.8,5c0.1-2.4-0.4-5.5-3.1-6.2
		c1.3-4.7,2.2-9.5,3.3-14.2c0.7-1.6,2.2-3,3.9-3.3c3.2-0.6,6.5-1,9.7-1.5C176.4,42,177.6,43.4,178.9,44.7z M159.4,61.4
		c1.3,1.4,0.7,3.5,1.3,5.2c2.3,0.5,2.8-2.6,3.9-4c2-2.9,5.9-2.2,8.9-1.9c1.7,0.1,3.6,1.4,3.6,3.2c-0.7,1.7-3.2,0.7-3.8,2.3
		c0.7,0,2.1-0.1,2.8-0.1c-0.5,1-2,0.7-2.9,1c-5.4,0.4-11.8-0.5-16.2,3.3c-0.2-0.3-0.7-0.8-0.9-1.1c0.6-2.7,1.2-5.4,1.8-8.1
		C158.5,60.7,159.1,60.8,159.4,61.4z M177,67.4c-0.2,1.1-1.5,1.6-2.5,1.6c-2.7-0.1-5.3,0-8,0.1C169.8,67.8,173.8,69.3,177,67.4z
		 M215.9,50.5c0.1,0.6,0.3,1.7,0.4,2.3c-1.7-0.2-3.4-0.3-5.1-0.4c0-0.5-0.1-1.4-0.1-1.8C212.7,50.5,214.3,50.4,215.9,50.5z
		 M238,42.4c-1.4-0.3-2.9-0.6-4.4-0.7c-0.8-2-1.3-4.2-2.1-6.2c2.2-1.4,4.5-2.7,6.8-4C238,35.1,238.1,38.8,238,42.4z"/>
</g>
</svg>
