<?xml version="1.0" encoding="utf-8"?>
<!-- Generator: Adobe Illustrator 26.0.3, SVG Export Plug-In . SVG Version: 6.00 Build 0)  -->
<svg version="1.1" id="Слой_10" xmlns="http://www.w3.org/2000/svg" xmlns:xlink="http://www.w3.org/1999/xlink" x="0px"
	 y="0px" viewBox="0 0 239.5 150.2" style="enable-background:new 0 0 239.5 150.2;" xml:space="preserve">
<style type="text/css">
	.st0{fill:#010101;}
</style>
<g>
	<polygon class="st0" points="41.2,86.7 41.2,86.7 41.2,86.7 	"/>
	<path class="st0" d="M42.1,85.8c0.5,0.1,1.6,0.4,2.1,0.5c-0.5-0.5-1-1-1.5-1.6c0.7,0.2,1.4,0.5,2.2,0.7c-0.3-0.4-0.9-1.2-1.2-1.5
		c0.5,0.2,1.4,0.6,1.9,0.8c-0.4-0.5-0.7-1.1-1-1.6c0.5,0.2,1.4,0.7,1.8,1c-0.3-0.4-0.8-1.3-1.1-1.7c-1.6,1.2-3,2.7-4.1,4.4
		c0.5,0.1,1.6,0.3,2.1,0.4C43,86.8,42.4,86.2,42.1,85.8z"/>
	<path class="st0" d="M239.5,26.3v-3.8c-1.7,2.7-3.2,5.5-4.8,8.3c-4.5,7.9-9.1,15.8-13.3,23.8c-1.5-0.4-2.9-1.1-4.3-1.8
		c0.2-0.2,0.5-0.5,0.7-0.7c-0.9-2-3.3-2.3-5-3.5C207,31.8,200.9,16.9,195.1,0h-0.4c2.4,7.8,4.7,13.7,7.1,21.5
		c2.6,9.2,5.6,18.2,8.2,27.4c-1.2,0.3-0.8,1.9-1.9,2.3c-0.9,0.4-2,0-2.8-0.6c-0.9-0.9-2.2-0.7-3.4-0.9c0.1,0.2,0.2,0.7,0.3,0.9
		c0.6,0.1,1.2,0,1.7,0c0.2,0.4,0.5,0.8,0.7,1.1c-0.4,0.5-0.8,1-1.1,1.5c0.3,0.1,0.7,0.2,1.1,0.3c-0.2-0.2-0.5-0.5-0.7-0.7
		c1.1-0.4,2.1-0.8,3.2-1.1c0,0.3,0,0.9,0,1.2c0.7,0.1,1.4,0.1,2.2,0.1c-0.5-0.3-1.1-0.5-1.6-0.8c0.4-0.3,0.8-0.7,1.2-1
		c0.6,0.2,1.3,0.3,1.9,0.4c-0.4-0.4-0.8-0.8-1.2-1.2c0.2-0.5,0.4-0.9,0.6-1.4c0.5,0.4,1.1,0.7,1.6,1.1c0-0.3-0.1-1-0.1-1.3
		c1.6,0.5,3.1,1.4,4.7,2c-0.2,0.5-0.3,1-0.5,1.5c1.5,0.9,3,1.8,4.6,2.4c0.5,0.3,1.1,0.5,1.6,0.8c0,0.2-0.1,0.6-0.1,0.8
		c0.9-0.1,1.8-0.2,2.6,0.2c1.4,0.1,2.6,1,4,0.7c0.5-0.5,1.1-1,1.6-1.4c-0.1-2,2.4-1,3.5-0.7c0-0.2-0.1-0.7-0.1-0.9
		c1.1-0.2,2.2-0.4,3.3-0.5c0.4-1.1,1.5-1.5,2.6-1.6v-0.4c-2.7,0.5-4.8,2.6-7.6,2.5c-1-0.1-2,0.2-2.9,0.7c0.2,0.2,0.5,0.6,0.7,0.8
		c-0.8,0.5-1.7,1-2.6,1.3c-0.1-0.3-0.4-0.9-0.5-1.2c-0.8,0.1-1.5,0.2-2.2,0.3c1.4-3.2,3.2-6.2,4.7-9.4
		C232.6,40.1,235.9,33.1,239.5,26.3z"/>
	<path class="st0" d="M37.3,30.7c0.5-0.6-0.5-1.2-0.9-0.7C35.9,30.6,36.9,31.1,37.3,30.7z"/>
	<path class="st0" d="M164.8,51.7c-0.1,0.8-0.2,1.7-0.3,2.5c-1,1.5-2.5,2.7-4,3.8c2.3-0.9,4.5-2.9,4.4-5.6c0.1-3.7-0.1-7.4-0.3-11.1
		c-0.3-1.4-0.2-2.9-0.4-4.3c-0.3-1.5-0.8-3.2-2.3-3.8c-2.7-1-5.7-0.4-8.4,0.5c-4.5,1.3-9,2.7-13.5,4.2c-9.5,3.1-19,6-28.4,9.5
		c-0.6,0.2-1.1,0.5-1.6,0.9c0.8,0.5,1.6,0.8,2.4,1.1c0-0.3,0-0.8,0-1.1c2.8-0.8,5.6-1.7,8.4-2.6c13.2-4.2,26.3-8.4,39.5-12.6
		c1.2,0.6,2.5,1,3.2,2.2c0,0.3,0.1,0.8,0.1,1.1c0.6,1.6,0.1,3.4,0.7,5c0.2,3.3-0.1,6.7,0.1,10c-3.1-0.1-6.2-0.2-9.2,0.2
		c-3.6,0.1-7.2,0.4-10.7,1.1c1.9,0,3.7-0.3,5.6-0.5C155.1,51.8,160,51.7,164.8,51.7z"/>
	<path class="st0" d="M29.6,34.8c0,0.2-0.1,0.7-0.1,0.9c0.3,0,0.9,0,1.2,0.1C30.5,35.2,30.1,35,29.6,34.8z"/>
	<path class="st0" d="M192.5,49.2c0.2-0.9,0-1.9,0.5-2.7c0.1,1.5-0.1,3.5,1.3,4.6c1.4-0.1,3.7,0.4,4-1.5c0.4-2.5,0.3-5.1-0.1-7.7
		c-0.4-2.6-3.3-3.6-5.6-3.9c-0.3,2.8,0.1,5.6,0.4,8.3C192.3,47,192.5,48.2,192.5,49.2z"/>
	<path class="st0" d="M68.7,40.3c-0.8-0.3-1.5-1.1-2.4-0.9c0.3,0.4,0.6,0.7,1.1,0.7C67.6,41.1,68.2,40.7,68.7,40.3z"/>
	<path class="st0" d="M73.3,50.6l0-0.7l-0.5,0c-0.1-0.8-0.9-0.6-1.5-0.7C71.7,50,72.2,50.9,73.3,50.6z"/>
	<path class="st0" d="M12.3,51.7c0.5-0.4-0.1-1.6-0.7-1.2C11.2,50.9,11.6,52.1,12.3,51.7z"/>
	<path class="st0" d="M108.6,51.1c0.2-0.7,0-0.9-0.7-0.7C107.7,51.1,107.9,51.3,108.6,51.1z"/>
	<path class="st0" d="M132.1,52.5c-0.2,0.2-0.7,0.5-0.9,0.6c-0.5-0.1-1-0.2-1.6-0.3l0.1-0.7c-0.7,0.4-1.3,0.8-1.6,1.5
		C129.6,53.6,131.4,54,132.1,52.5z"/>
	<path class="st0" d="M206.8,53.8c-0.8-0.9-0.9,0.5-0.5,1C206.9,55.6,207.7,54.2,206.8,53.8z"/>
	<path class="st0" d="M230.8,67.3c-1.1-2-2.1-4.1-3.6-5.8c-0.6-1-1.4-2-2.6-2.2c0.8,0.7,1.6,1.3,2.4,2c-1.6-0.4-3.5,0.2-3.9,2
		c-0.3,0.7-0.6,1.3-0.9,2c-0.2,1.1-0.3,2.3-0.5,3.4c-0.4,2.4,0.1,4.9-0.6,7.2c0.2,3.1,0.9,6.2,1.7,9.2c-0.3,0-1,0.1-1.3,0.2
		c0.3-0.5,0.5-1,0.8-1.5c-0.6,0.2-1.1,0.4-1.7,0.6c0.5-0.6,0.9-1.3,1.4-1.9c-0.6,0.2-1.2,0.3-1.8,0.5c0.5-0.6,1-1.2,1.4-1.8
		c-0.5,0.1-1.4,0.2-1.9,0.3c0.5-0.5,1-1,1.5-1.5c-0.5,0-1.4,0.1-1.8,0.1c0.6-0.6,1.1-1.2,1.6-1.8c-0.4,0-1.3,0.1-1.7,0.2
		c0.5-0.5,1-1,1.6-1.5c-0.7,0-1.3,0.1-2,0.1c0.2,1.2,0.3,2.4,0.2,3.6c-0.3-0.3-1-0.8-1.3-1.1c0.1,0.6,0.3,1.9,0.3,2.6
		c0.2,0.1,0.6,0.4,0.8,0.5c-0.2,0.3-0.3,0.5-0.5,0.8c0.1,0.7,0.3,1.3,0.4,2c-0.6-1-1-1.9-1.5-2.9c-0.2,0.2-0.6,0.6-0.8,0.8
		c-0.2-0.7-0.4-1.5-1.4-1c-0.2-0.7-0.3-1.5-0.5-2.3c-0.3,0.3-0.6,0.7-0.9,1c-0.7-2.7-0.5-5.5-1-8.2c-1,1.3-0.9,3-0.9,4.5
		c0.6,4,1.2,8.1,2.7,11.9c0.7,1.8,1.4,3.9,3,5.2c0.5,0.5,1.2,0.9,1.2,1.7c-1.3-1.4-2.6-2.8-3.4-4.6c-3.5-7.8-4.7-16.6-3.4-25
		c0.4-2.5,1.9-4.5,3.2-6.6c-1.5,0.6-2.4,1.9-3.2,3.2c-2.1-2.6-5-4.4-8.1-5.5c-0.8-0.3-1.5-0.8-2.1-1.3c-0.1-1.6-0.2-3.3-0.3-4.9
		c-0.1,0-0.4-0.1-0.5-0.1c-0.2,1.1,0,2.3,0.1,3.4c-2.2,0-4.5-0.2-6.7-0.1c2.4,0,4.8-0.1,7.1,0.6c-0.2,1.6,1.4,2.6,2.7,3
		c2.9,0.9,5.4,2.8,7.5,5c0,1.8-0.7,3.5-1.2,5.2c-1.3,0.1-2.4,1-3,2.1c-2.2,4-3,8.6-4.2,13c-0.1,0.1-0.3,0.2-0.4,0.2
		c-0.5-0.8,0.3-2.2,0.3-3.2c-0.7,1.6-0.9,3.3-1.2,5c0.3-0.4,0.3-1.1,0.8-1.3c0.4,1.6-0.7,3.2-1.1,4.7c-6.5,1.9-13,3.7-19.6,5.3
		c-10.5,2.3-21,4.8-31.6,6.4c0.1-0.3,0.4-0.8,0.5-1c14.8-2.8,29.6-5.6,44.1-9.7c2-0.6,4.2-1,6.1-1.9c0.6-0.4,0.6-1.2,0.9-1.8
		c-0.6,0.6-0.9,1.5-1.7,1.8c-10.3,3.1-20.9,5.4-31.4,7.5c0.7-1.7,0.7-3.6,0.8-5.4c0.3-1.8,0.3-3.7,0.3-5.6c0.9-0.2,2.1,0.2,2.8-0.6
		c0.1-1-0.1-2-0.3-3c-0.8,0-1.6,0.1-2.3,0.1c-0.2-2.3-0.2-4.6-0.2-6.9c1.6-0.2,3.2-0.7,4.8-0.8c4.7-0.5,9.3-1.6,14-1.7
		c-0.2,0.3-0.5,0.8-0.7,1.1c1.4,1.2,3.5,0.2,5.1-0.1c0.8,0,0.7-1,0.3-1.4c0.3-0.5,0.7-0.8,1.4-0.7l0.4,0.1c0.4,3,0.1,6.1,0.3,9.1
		c0.1-3.1,0-6.3-0.2-9.4c1.9-0.4,3.9-0.7,5.9-0.8c-0.6,1-1.2,2-1.7,3.1c0.6-0.9,1.1-1.8,1.6-2.7c0.2-0.1,0.6-0.2,0.7-0.2
		c0.8-1.1,1.7-2.3,2.5-3.4c-1.3,0.6-1.8,2-2.8,2.9c-2,0.2-4.1,0.3-6.2,0.7c-0.1-1.5-0.2-3-0.2-4.5c0.4,0,1.1,0,1.5,0.1
		c0-0.1,0-0.2,0-0.3c-0.5,0-1.1,0-1.6,0.1c-0.2-2.2-0.4-4.4-0.6-6.6c3.2-0.1,6.4,0.1,9.5,0.6c-0.8-0.3-1.7-0.5-2.5-0.7
		c-0.6-0.1-0.2-1,0.3-0.9c-0.3-0.2-0.6-0.4-0.9-0.7c-2.2,0.3-4.4,0.4-6.6,0.2c-8.3,0.1-16.5,0-24.8,0.6c3,0.1,6-0.2,9-0.2
		c5.2-0.4,10.4-0.2,15.6-0.3l0.1,0.2c0,0.1-0.1,0.4-0.1,0.5c-8.4,0-16.7,0.6-25.1,1c-0.1-1.8-0.3-3.7-1.2-5.3
		c-0.6-4.2-0.8-8.4-1.4-13.3c0.4,0,1.1-0.2,1.4-0.3c0.5,3.1,0.1,5.9,0.8,9c0.5,1.2,1.8,1.6,3,1.6c5.7,0,11.3,0.1,17,0.1
		c0.7,0.1,1.8-0.2,1.6-1.1c-0.1-4-0.6-8-1-12c-1.7-1-3.8-0.9-5.7-1.1c-5.2-0.4-10.5-1.3-15.7-1.4c-0.2,0.3-0.5,0.8-0.6,1.1
		c0.3,0.3,0.5,0.7,0.8,1c0,0.8,0,1.5-0.1,2.3c-1.4,0-1-1.4-1.2-2.3c-0.1,0.8-0.1,1.7-0.2,2.5c-0.4-0.6-0.6-1.2-0.6-1.9
		c-0.1-1.9-0.3-3.8-0.6-5.7c4.6-0.1,9.1,0.7,13.7,0.2c-4.8-0.8-9.6-0.8-14.5-0.8c-0.9-0.2-1.5-1-2.1-1.7c-0.7-0.7-1.7-1-2.5-1.5
		c6.9-0.5,13.8,0.3,20.6,0.8c4.5,0.6,9.1,1.3,13.2,3.4c1.3,0.6,2.2,1.7,3.4,2.5c0.9,0.6,1.8,1.3,2.3,2.3c-0.1,1.1-1,0.1-1.4-0.2
		c-1.8-1.8-4.3-2.8-6.7-3.1c-0.5-0.1-1-0.3-1.5-0.4c0,0.2,0,0.5,0,0.6c0.2-0.1,0.7-0.2,1-0.3c0.2,0.9,0.3,1.7,0.5,2.6
		c0-0.8-0.1-1.5-0.2-2.3c2.5,0.5,5.1,1.3,6.9,3.3c1.2,1,1,2.7,1.3,4.1c-1.1-0.4-1-1.7-1.6-2.5c-1.2-1.6-3.2-2.1-5-2.6
		c1.6,0.6,3.5,1,4.7,2.4c0.9,0.9,0.7,2.3,1.3,3.3c0,0.5,0,1,0,1.5c0.1-0.8,0.3-1.5,0.7-2.2c0.4,2.8,0.8,5.6,0.9,8.4
		c1.4,0.6,0.5-1.7,0.5-2.3c0.2-0.1,0.5-0.2,0.7-0.3c0-0.5-0.1-1-0.1-1.5c-0.2,0.6-0.4,1.2-0.7,1.7c-0.3-2.4-0.5-4.9-1-7.3
		c-0.3-1,0.3-1.9,0.3-2.9c-1.4-1.9-3.2-3.5-5.1-4.8c0-0.4,0.1-0.8,0.1-1.2c-0.3,0.3-0.6,0.5-1,0.8c-5.8-3.1-12.4-3.5-18.8-4.2
		c-3.6-0.2-7.2-0.3-10.8-0.6c-1.2-0.8-2.1-1.8-3.2-2.7C151.3,16.1,141,9.1,130.6,0.3l0.1-0.3h-1.1c11.1,9.7,22,17.9,33,27.7
		c-9.7,0.5-18.8,4-28,6.8c-0.6,0.2-1.2,0.1-1.7-0.2c-24.3-12.1-48.7-22.1-73-34.2L60.3,0h-1.8c23.8,12.6,47.6,23.3,71.4,35.9
		c-5.5,2.1-11.2,3.7-16.5,6.2c-2.1,1-3.2,3-4.5,4.7c-0.5,0.8-1.4,0.3-2.1,0.1c-0.2,0.2-0.5,0.6-0.7,0.8c-1.3-0.2-2.6-0.3-3.8,0.2
		c-1.3,0.5-2.5-0.5-3.4-1.4c-1.2-0.4-2.6,0.1-3.9-0.5c-0.6,0.2-1.1,0.4-1.7,0.6c0.1-0.4,0.2-1.1,0.2-1.5c-0.5-0.5-0.9-1-1.5-1.4
		c-1.8-0.4-3.6,0.1-5,1.3c-0.6-0.2-1.2-0.4-1.8-0.5c-0.6,0.6-1.1,1.2-1.6,1.8c-2.4-0.7-4.9-1.3-7.3-2c-0.8-0.2-1.5-0.8-2.2-1.3
		c-0.3-0.6-1.8-1.6-0.4-1.9c0.1-1,0.6-1.9,1.2-2.7c-0.5-0.4-1-0.8-1.6-1.2c0.6-0.4,1.7-0.7,1.3-1.6c-1.2-0.3-2.4-0.6-3.5-1
		c-2.2,1-3.9-1.3-5.9-1.7c-1.6-0.1-3-0.7-4.5-1c-0.3,0.8-0.6,1.6-0.9,2.5c-0.2,0.2-0.7,0.5-0.9,0.6c-0.4-0.3-0.8-0.6-1.2-0.9
		c-1.3,0.2-2.5,1.5-3.9,1.1c0.3-0.1,1-0.4,1.3-0.5c0.1-0.1,0.2-0.4,0.3-0.5c-1.4-1.9-2.5-4.2-4.8-5c-1.1-0.6-2.3-0.5-3.5-0.8
		c-0.6,0.1-1.3,0.2-1.9,0.3c-0.1,0.1-0.4,0.3-0.6,0.4c-0.4-0.7-0.8-1.4-1.3-2c-1.1-0.3-2.3-0.6-3.3-1.2c-1.3,0.4-2.5-0.5-3.6-1
		c0,0.6,0,1.2,0,1.8c-0.7,0.4-1.3,0.8-2,1.1c-0.6-0.1-1.2-0.4-1.8-0.6c-0.4,0.6-1.2,1.1-1.3,1.9c0.4,0.3,0.9,0.6,1.3,0.9
		c-0.1,0.2-0.3,0.7-0.4,1c-0.9-0.2-1.7-0.2-2.5,0.3C19.7,28.7,9.8,25.9,0,23.1v0.6c9.3,2.8,18.7,5.5,28,8.3
		c-0.9,0.2-1.8,0.3-2.7,0.5c0,0.3,0,1,0,1.4c-0.5-0.4-1-0.8-1.5-1.2c-0.8,0.4-1.7,0.7-2.5,1.2c-0.1,1.1,1,0.8,1.6,0.6
		c-1.3,0.7,0,1.4,0.9,1.5c-0.6,0.5-1.2,1-1.8,1.4c0,0.2-0.1,0.5-0.1,0.7c1.3-0.3,2.7,0,3.3,1.3c-0.8-0.2-1.6-0.5-2.4-0.7
		c-1.5,0.8-3.1,1.3-4.7,1.9c0.4,0.6,0.8,1.1,1.2,1.7c-1.2-0.3-2.3-0.7-3.5-1.1c-0.3-0.5-0.5-1-0.8-1.5c0.3-0.1,0.9-0.2,1.2-0.2
		c-0.1-0.4-0.1-0.9-0.2-1.3c-1.2-0.6-2.3-1.3-3.6-1.4c0.3-0.7,0.5-1.4,0.8-2.1c-0.6-0.1-1.3-0.2-1.9-0.3c0.2-0.8,0-1.7-0.5-2.3
		c-1-0.4-2.1-0.2-3.1-0.1c0.2-0.6,0.4-1.3,0.5-2c-1.3,0.2-3.4,0.4-3.3,2.1c-1.1,0-2.3-0.8-3.2,0c0.4,0.8,0.9,1.6,1.5,2.3
		c-0.9,1.1-1.8,2.2-2.9,3v0.2c0.6,0.1,1.2,0.2,1.8,0.3c-0.1-0.4-0.3-0.8-0.4-1.3c0.3,0.1,0.8,0.2,1,0.3c0-0.2,0-0.6,0-0.8
		c0.5-0.1,1-0.1,1.5-0.2c-0.3-0.1-1-0.3-1.4-0.4c0.5-0.3,1-0.6,1.5-0.9c0.1-0.1,0.2-0.3,0.2-0.5c-1.2,0.1-1.7-1-2.1-1.9
		c1.1,0,2.7,1.2,3.5-0.1c0.2,0.2,0.6,0.7,0.8,0.9C6.2,32,6.1,31.4,6,30.8c0.3-0.1,0.9-0.2,1.2-0.3c-0.1,0.5-0.2,1-0.3,1.5
		C7.9,32,8.8,32,9.8,31.9c0.1,0.2,0.4,0.6,0.6,0.7c0,0.6,0.1,1.1,0.1,1.7c0.7,0.3,1.4,0.5,2.1,0.8c-0.6,0.1-1.3,0.2-1.9,0.3
		c0.7,0.7,1.3,1.6,2.3,1.9c0.9,0.5,2.3,0.5,2.6,1.6c-0.8,0.1-1.6,0.2-2.4,0.3c-0.1,0.2-0.2,0.5-0.2,0.7c0.6,0.1,1.1,0.2,1.7,0.3
		c0,0.3,0.1,0.8,0.1,1.1c1.5,0.5,3.1,0.9,4.6,1.6c0.7-0.5,1.1-1,1.1-1.9c0.5,0.3,0.8,0.7,1.1,1.1c0.4,0,1.1,0,0.9-0.6
		c-0.7-0.4-1.6-0.5-2.3-0.9c0.7-0.9,2-0.9,3-1.3c1.1,0.3,2.2,0.7,3.3,0.7c0.7-0.5,0.3-1-0.1-1.4c0.5-0.2,1.4-0.2,0.8-0.8
		c-1-0.8-2.4-0.7-3.6-0.8c0.5-0.4,1.1-0.8,1.6-1.2c-0.1-0.2-0.2-0.7-0.3-0.9c-0.3,0-0.9-0.1-1.2-0.1c0-0.2,0.1-0.6,0.2-0.9
		c1.2,0.4,2.4,0.5,3.6,0.5c0-0.5,0.1-1,0.1-1.4c1-0.3,2.1-0.4,3-1.1c1.4,0.2,2.4-0.6,3.3-1.6c-0.3-0.5-0.6-1-0.9-1.4
		c0-0.2,0-0.6,0-0.8c1.4,1,2.9-0.1,4.2-0.7c0.2-0.4,0.4-0.7,0.6-1.1c0.9,0.4,1.8,0.4,2.7,0.5c0.9,0.5,1.7,1,2.7,1.4
		c0.1,0.2,0.2,0.7,0.3,0.9c0.8,0.3,1.7,1,2.5,0.1c1.3-0.1,2.5,0,3.8,0c-0.1,0.2-0.2,0.5-0.3,0.7c1.7-0.3,2.7,1,3.6,2.1
		c-0.3,0.2-0.9,0.5-1.3,0.7c0.5,0.4,1.1,0.7,1.8,1c-0.2,0.4-0.3,0.8-0.5,1.3c0.4,0.4,0.9,0.7,1.3,1.1c1.5-0.1,3.1-1.8,4.5-0.6
		c1-0.3,2-0.5,3-0.5c0.1-0.2,0.4-0.7,0.6-1c-0.3-0.2-0.8-0.6-1-0.8c1.1-0.3,2.1-0.1,3,0.5c0.4-0.1,0.7-0.2,1.1-0.3
		c1.4,0.7,2.6,1.6,3.8,2.6c0.5,0,1-0.1,1.6-0.1c0.2-0.1,0.5-0.4,0.6-0.6c0.3,0.1,1,0.2,1.3,0.2c-0.3,0.3-0.5,0.7-0.8,1
		c0.2,0.4,0.4,0.8,0.6,1.1c0.3,0.1,0.8,0.3,1.1,0.4c-0.4,0-0.7,0-1.1,0c-0.1,1.2-0.6,2.3-1.2,3.2c0.1,0.3,0.3,0.7,0.4,1
		c0.2,0,0.6,0.1,0.8,0.1c0.2,0.8,1,1.2,1.7,1.5c0,0.3-0.1,0.8-0.1,1.1c1,0,2,0,3,0.4c0.2,0.7,0.5,1.3,0.7,2c0.2,0,0.7,0,1-0.1
		c0.1,0.6,0.1,1.5,0.9,1.5c1.7-0.2,3.4-0.6,5.1-0.6c0.1-0.3,0.2-0.8,0.2-1.1c0.5-0.1,0.9-0.2,1.4-0.3c-0.1-0.3-0.2-1-0.3-1.3
		c0.8,0.2,1.4,0.8,2.1,1.2c0.6-0.4,0.6-1.1,0.7-1.7c1.1-0.7,2.3-0.7,3.4-0.2c0,0.3-0.1,1-0.2,1.3c0.3,0.3,0.5,0.6,0.8,0.9
		c0.3,0.1,0.9,0.3,1.1,0.4c0.3-0.1,0.9-0.3,1.2-0.3c0.9,0.3,1.8,0.3,2.8,0.3c-0.3,1.4,1.3,1.2,2.1,1.8c0.2-0.1,0.5-0.4,0.6-0.5
		c1,0.3,2.1,0.5,3.1,0c1.3-0.7,2.9-0.1,3.4,1.3c0.4-0.2,0.8-0.4,1.1-0.7c0.9,0.5,1.8,0.9,2.8,1.2c0.2,1,0.3,2.1,0.5,3.1
		c-0.6,0.7-1.2,1.4-1.5,2.3c-0.2,0.1-0.5,0.3-0.6,0.4c0.3,1.3-0.1,2.6-1,3.6c0.9,0,1.8,0,2.7,0.1c-0.3-1.2-0.6-2.5-0.1-3.6
		c0.7-1.7,2.3-3,4.2-2.9c1.1,0.9,1.5,2.2,1.4,3.6c-0.6,0.9-0.9,1.9-1.2,2.8c-0.9-1.2-0.1-2.4,0.7-3.4c-0.8,0.5-1.6,1-2,2
		c-0.6-1.5,1.1-2.5,1.9-3.6c-0.4-0.3-0.9-0.6-1.3-0.8c-0.9,1-1.8,2.1-2.3,3.4c0.1,0.7,0.2,1.3,0.4,2c-0.5,0.2-1.1,0.4-1.6,0.5
		c0,0.3-0.1,0.9-0.1,1.1c-2.1,0.6-4.3,0.2-6.4,0.8c-0.8,0.3-1-0.6-1.3-1.1c-1.7-0.2-3.4,0-4.8,0.9c0.9-0.2,1.8-0.4,2.8-0.7
		c-0.5,1.9-2.7,1.6-4.2,1.9l0-0.9c0.4,0,1.1,0.1,1.4,0.1c-0.6-0.2-1.2-0.4-1.8-0.6c1.8-0.2,3.2-1.6,5-1.6c0.8,0.6,1.8,0.2,2.7,0
		c0,0,0,0,0,0c0.9,0,1.9,0,2.7,0c-0.2-0.9,0-1.7,0.4-2.5c-0.6,0.6-1,1.2-1.4,1.9c0-0.3,0.1-0.9,0.1-1.2c-0.2-0.1-0.6-0.2-0.9-0.2
		c0.6-1.3,2.2-1.2,3.1-2.2c-0.5-0.3-0.9-0.9-1.5-0.6c-1.5,1-2.6,2.8-2.7,4.6c-0.2-0.2-0.6-0.4-0.8-0.5c0.7-1.3,1.2-2.7,1.9-4
		c1.1-1.3,3.3-1.1,3.6,0.7c0.2-0.2,0.4-0.4,0.6-0.6c-0.7-0.6-1.3-1.5-2.3-1.6c-1-0.1-1.8,0.4-2.7,0.7c-0.7-0.9-1.5-2.2-2.9-2.1
		c-2.1,0.2-3.8,1.8-4.4,3.8c-0.3-0.3-0.6-0.7-0.8-1c-1.6-2-4.6-1.1-3.6-1.1c-1.3,1-2.6,2.2-3,3.9c-0.4,1.4,0.2,3-0.5,4.3
		c-0.3-0.8-0.3-1.8-0.8-2.5c-1.5-1.4-3.8-1.3-5.7-0.8c-1,0.1-2.2,0.7-3.1,0c0.2-0.3,0.4-0.6,0.7-0.8c-0.7-0.5-1.3-1.1-2.1-1.5
		c0.2,0.2,0.6,0.6,0.8,0.8c0.1,0.2,0.2,0.7,0.3,0.9c-1.9-1.7-4.4-2.1-6.8-2.7c0.4-0.1-5.6-0.1-9.1,1c-3.2,0.9-6,3.1-7.7,6
		c-1.1,1.8-1.2,4-2.3,5.7c0.1,0.1,0.4,0.3,0.5,0.4c-0.5,0-0.9,0-1.4,0c1.4-0.7-0.5-1.5-1-2.1c-0.3,0-0.8,0-1,0c0-0.5,0-1,0.1-1.5
		c-0.6,0.1-1.1,0.3-1.1,1c-2.3,0.8-4.8,0.6-7.2,0.6c-1.6-0.1-3.1-0.3-4.7,0.2c0,0.6,0,1.2,0.1,1.8c0.3,0,1,0.1,1.4,0.1
		c-0.5,0.3-0.9,0.6-1.4,0.9c0.4,0.6,0.8,1.2,0.5,2c-0.7,0.1-1.5,0.1-2.2,0.1c0-0.8-0.3-1.6-1-2c0.2,0.8,0.4,1.6,0.6,2.5
		c-0.9,0-1.7,0-2.6,0c-0.2,0.2-0.5,0.6-0.7,0.7c-1.2-0.9-2.6,0-3.7,0.5c-0.6-0.4-1.3-0.7-2-0.7c-0.1-0.7-0.1-1.4-0.2-2.1
		c0.7,0.4,1.4,0.9,2.1,0.2c0.1,0.1,0.3,0.3,0.4,0.4c0.6-0.3,1.2-0.5,1.8-0.8c-0.3,0-0.9-0.1-1.1-0.1c-0.1-0.8-0.3-1.5-0.7-2.1
		c-0.4,0.2-0.7,0.4-1,0.6c0.5,0.4,1,0.8,1.5,1.3c-0.8,0-1.5,0.1-2.3,0.4c-0.2-0.1-0.5-0.3-0.6-0.4c-1.2,0.2-2.4,0.5-3.4,1.2
		c-0.3,0-1-0.1-1.4-0.1c-0.1,0.6-0.1,1.2-0.1,1.8c-1.3,0-2.8-0.6-3.7,0.7c-0.6,0.2-1.2,0.5-1.9,0.7c0-0.3-0.1-0.8-0.1-1
		c-0.3,0.1-0.9,0.2-1.2,0.2l0.2-0.5c0.3-0.3,0.5-0.6,0.7-1c-0.3,0.1-0.7,0.3-1,0.4c-0.2,0.2-0.5,0.6-0.7,0.8
		c-0.4,0.2-0.7,0.4-1.1,0.6c-0.8-0.3-1.7,0.1-2.6-0.1c-0.6-0.4-1.1-0.9-1.7-1.3c0.2,0.2,0.5,0.5,0.6,0.6l0,0.7
		c-0.3,0-0.8-0.1-1.1-0.1c0.1,0.3,0.2,0.8,0.3,1.1c-0.9,0-1.8-0.1-2.7-0.1c0,0.3,0,1,0,1.3c-0.3,0.1-1,0.3-1.4,0.3
		c0-0.4-0.1-1.1-0.1-1.4c-0.1,0.4-0.2,0.9-0.2,1.3l-1-0.2c0-0.3,0.1-0.9,0.2-1.2c-0.4,0.3-0.8,0.7-1.2,1c0-0.3,0-1,0-1.3
		c-0.2,0.2-0.6,0.7-0.7,1c-0.4-0.4-0.6-0.9-0.8-1.5v0.9c0.6,0.7,1.3,1.2,2.3,0.7c0.1,0.2,0.4,0.5,0.5,0.6c1.2,0.1,2.9,0.3,3.1-1.3
		c1.4,0.1,2.8,0.1,4-0.9c1.9,0,3.7,0,5.6,0.3c1.2,0.3,2.5-0.2,3.4-1c1.4,0.1,2.8-0.1,4-0.7c-0.3-0.2-0.9-0.6-1.2-0.8
		c0.5-0.1,1.4-0.2,1.9-0.2c1.2,1.5,3.2,1.8,4.8,2.5c1.2-0.3,2.4,0.2,3.6,0.1c0.3-0.4,0.5-0.8,0.7-1.2c1.9,0.1,3.8-0.5,5.7-0.7
		c0.4-0.5,0.8-1,1.2-1.5c0.1-0.8,0.2-1.6,0.2-2.5c-0.5-0.2-1-0.4-1.6-0.6c1.4-0.5,2.8-0.3,4.2,0c0.2-0.1,0.6-0.2,0.8-0.3
		c1.9,0.1,3.8,0.4,5.6-0.4c0.8-0.3,1.5,0.3,1.4,1.1c0.7,1.4,2.1,1.8,3.4,2.3c0.1,2.7,0.3,5.3,0.5,8c-6.7-1.2-14.3,1.2-18.4,6.8
		c-0.4,0.6-1,1.1-1.7,1.4c0-0.3,0-0.8,0-1.1c-0.3,0.7-0.5,1.4-0.8,2.1c-0.9,1.3-1.4,2.8-1.8,4.3c0.6-1.1,1.1-2.3,1.5-3.5
		c0.2,0,0.6-0.1,0.8-0.1c-1.1,2-1.7,4.2-2.3,6.3c-1.3-0.1-2.6,0.2-3.9,0.5c-9.2,1.3-18.4,3-27.6,4.7v1.2c2.7-0.4,5.4-0.7,8.1-1
		c6.5-0.9,12.8-2.6,19-4.5c1.5-0.5,3.1-0.6,4.6-0.6c-0.1,0.2-0.4,0.7-0.5,0.9c-2.2,0.7-4.5,1-6.7,1.9c2.3-0.1,4.5-0.7,6.7-1.1
		c0,0.3,0,0.9,0,1.1c-3.2,0.3-6.4,0.8-9.6,1.1c-3.9-0.1-7.7,1-11.5,1.5c-3.4,0.5-6.8,1.1-10.1,1.6v11c4.3-0.9,8.6-2.2,13.1-2.1
		c-4.3,1-8.6,2.3-13.1,2.7v10.8c4-0.6,7.9-1.3,11.9-1.8c2.7-0.4,5.4-1,8.1-1.2c0.5-0.1,1-0.2,1.5-0.4c0,0.1,0,0.2,0,0.2
		c-1.2,0.2-2.3,0.5-3.4,0.9c-5.9,1.7-12,2.1-18,2.3v1.6c13.7-2.1,27.3-4,41-6.3c0,0.2,0,0.5,0.1,0.6c0.4,0.1,1.2,0.2,1.6,0.3
		c-1.6,0.6-3.2,0.7-4.9,0.9c-12.6,2-25.2,4.1-37.8,6.2v8.1c5.6,0.3,11.4,1,16.9-0.4c2.4-0.3,4.6-1.3,7-1.3c-2.2,1.2-4.7,1.5-7,2.4
		c-5.7,2-11.4,3.7-17,6v7.5h124c7.4-4,2.8-0.6,10.1-4.7c7-4.1,14.1-8.2,20.9-12.7c-1.1,0.2-2.2,0.6-3.3,1c-0.3-0.2-0.6-0.4-0.9-0.6
		c2.1-0.6,4.2-1.5,6.2-2.6c0-0.6,0-1.4-0.6-1.8c-1.6-1.2-3.7-1.6-5.7-2.1c-4.5-0.7-9.1-1.1-13.7-1.1c0.9-1.2,1.6-2.4,2.5-3.7
		c4.4-0.6,8.8-1.7,13.3-1.7c4.4-0.1,8.8-0.1,13.3,0c-0.5,0.5-1,1-1.5,1.5c9-0.6,17.6-4,25.6-7.9c5.2-0.6,10.7,0.9,15.7-1.3
		c4.3-1.8,8.2-4.3,12.1-6.9c5.5-3.8,11.1-7.7,16.1-12.2c-1-0.2-2-0.4-3-0.6c0.8-1.9,1.9-3.8,1.8-5.9c1.5-0.7,3-1.5,4.6-2.2
		c-0.4,0-1.1,0-1.5,0c1.1-0.8,2.3-1.5,3.4-2.3V68.1c-1.3,0-2.6-0.2-3.8-0.6C234.1,66.9,232.4,67.4,230.8,67.3z M172.7,81.2
		c-0.2,1,0.6,2.6-0.8,2.9c-0.3-1.1-0.4-2.2-0.6-3.3C171.6,81,172.3,81.1,172.7,81.2z M171.3,81c-0.2,1.1,0.7,3.3-1.1,3.1
		c0-1,0-2.1,0-3.1C170.4,81.1,171,81.1,171.3,81z M194.9,57.7c1.7-0.5,3.6,0,5.3-0.5c0.1,0.4,0.1,0.8,0,1.2
		c-1.7-0.2-3.5-0.1-5.2-0.2l-0.1-0.2L194.9,57.7z M174.5,45.8c1.2-1,2.9-0.7,4.3-1.2c2,0,4.1-0.2,5.9,0.7c1.4,0.4,2.3,1.6,3.7,2.1
		c0.1-2.7-0.3-5.3-0.4-8c0.1,0,0.2,0,0.3,0c0.4,1.7,0.5,3.4,0.5,5.1c0.4,1.5,0.3,3.1,0.3,4.7c-0.5-0.5-0.3-1.2-0.3-1.7
		c-0.2,0-0.7,0.1-1,0.1c-1.8-1.3-3.8-3-6.1-2.6c1.2,0.9,2.3,1.9,3.3,3c-1.8,0-3.7,0-5.4,0.6c-0.2-1-0.2-2,0.3-2.9
		c0.4-0.1,1.3-0.3,1.7-0.5c-3-1.2-6.2,0.6-9.1,1.5C173,46.1,173.7,45.7,174.5,45.8z M107,49.1c-0.2-0.5,0.7-0.9,1.2-0.7
		C108.3,49,107.4,49.4,107,49.1z M25.5,72.3c-0.5,0.4-1.3-0.5-0.8-0.9C25.2,71,26,71.9,25.5,72.3z M169.4,59.6
		c0.4,0.1,0.9,0.1,1.3,0.1c0.1,0.9,0.2,1.7,0.2,2.7c-0.6-0.1-1.1-0.1-1.7-0.3C169,61.3,168.4,60.1,169.4,59.6z M113.4,61.2
		c1,0.1,2.2-0.2,3.1,0.5c-0.6,0-1.3,0.1-1.9,0.1c-1.9,0.4-3.9,0.4-5.8,1.1C109.7,61.2,111.8,61,113.4,61.2z M111.7,64.5
		c-0.9,0-1.8,0.1-2.7,0.2c-0.8-1.8,1.5-1.8,2.7-1.8C111.7,63.3,111.7,64.1,111.7,64.5z M107.1,61.9c0.7,0.1,1.2,0.4,1.1,1.2
		c-0.4,0-1.3,0-1.8,0C106.7,62.7,106.9,62.3,107.1,61.9z M105,62.4c0.4-0.4,1.7-0.2,1.1,0.5C105.7,63.6,103.7,63,105,62.4z
		 M98.6,63.2c0,0.4,0.1,1.2,0.1,1.7c0.1-0.3,0.2-1,0.3-1.4c0.2-1.1,2,0,2.2-1.1c0.1-1.1,1.3-0.8,2-0.6c0.2,0.7,0.6,1.4,0.8,2.1
		c1.5-0.1,3-0.2,4.5-0.1c0,0.3,0,1,0,1.4c1.2-0.3,2.4-0.4,3.6-0.4c0-0.7,0-1.4,0-2.1c1.5-0.1,2.9-0.6,4.4-0.5c1,0.3,0.6,1.4,0.6,2.1
		c0.1,0,0.4,0,0.5,0c-0.1-0.7-0.2-1.3-0.2-2c1.3,0.1,2.7,0.1,4,0.2c-0.1,0.5,0.3,1.3-0.3,1.4c-0.5,0.2-0.9,0.4-1.4,0.5
		c0,0.3,0.1,0.7,0.1,1c-2.6-0.3-5.2,0-7.7-0.1c-0.8,0.9-2.3,0.6-3.3,1.1c0-0.3-0.1-0.9-0.2-1.2l-0.8,0.2c0.1,0.3,0.4,0.9,0.6,1.1
		c-0.5,0.1-1.1,0.1-1.6,0.2c-0.4,0.7-1.2,0.9-1.9,1.2c0-0.4-0.1-1.1-0.1-1.5c-1.5,0-3,0.1-4.5,0.1l0,0.4c-0.3,0-1,0-1.4,0
		c-0.1,0.7,0,1.4,0.3,2c1.4,0.1,2.8-0.5,4.3-0.3c-0.8,0.5-1.5,0.9-2.2,1.4c-0.2-0.2-0.6-0.7-0.7-0.9c-1.5,0.6-2,2.1-2.1,3.5
		c-0.6-0.6-1.8-1.2-0.7-2l-0.2-0.1c-0.2,0.4-0.5,0.8-0.6,1.1c-1.1,0.1-2.2,0.3-3.2,0.4c0.2-0.6-0.1-1.6,0.7-1.8c1-0.3,2.1-0.1,3.2,0
		c0.9,0.1,2.1-0.7,1.3-1.5c-0.7-0.6-1.1,0.1-1.5,0.6c-0.2,0-0.6,0-0.8,0c0-0.4,0-0.8-0.1-1.2c0.7-0.1,1.4-0.2,2.1-0.3
		c0-0.3,0-1,0-1.3c-0.2,0-0.6,0-0.8,0c-0.4-0.3-0.8-0.6-1.3-0.9c0,0.3,0.1,0.9,0.1,1.2l0.4,0c0.1-0.1,0.3-0.3,0.4-0.4
		c0,0.3,0,0.7-0.1,1c-0.4-0.2-0.9-0.4-1.3-0.5l-0.2-1c-0.3,0.3-0.5,0.8-0.8,1.2c-0.5,0.2-0.9,0.3-1.4,0.5c-0.1-0.9,0.2-1.6,0.8-2.2
		c-1,0.5-2.1,0.2-3.1,0c-0.1-0.4-0.1-1.2-0.2-1.6c1.5,0.2,3,0.1,4.5-0.1c-0.2,0.6-0.5,1.7-0.7,2.3c1.3-0.2,1.7-1.4,1.2-2.5
		C96.7,63.5,97.6,63.2,98.6,63.2z M125.5,62.5c0.6,0.6,1.3,1.2,1.4,2.1c-1.9,0.2-3.8,0.5-5.8,0.4c0-0.8,0.5-1.5,1.3-1.7
		C123.4,62.9,124.4,62.4,125.5,62.5z M122.5,61.9c0.3-0.3,1.4-0.2,1.3,0.3C123.5,62.6,122.5,62.5,122.5,61.9z M78.6,110.4
		c-0.5,0-0.8-0.2-1.2-0.4c3.6-0.2,7.2,0,10.7,0.5c-0.3,0.2-0.7,0.3-1,0.2C84.2,110.5,81.4,110.6,78.6,110.4z M79.4,113.7
		c-1,0.9-2.4,0.7-3.6,0.8C76.4,113,78.2,113.8,79.4,113.7z M85.5,95.4c-0.7,0.2-1.5,0.3-2.2,0.4c-3.1,0.9-6.3,1.8-9.2,3.1
		c-0.4-3.8-0.7-7.6-1.3-11.4c0.2-0.3,0.4-0.6,0.6-0.9c0,3,1.1,6,3.2,8.1c1.7,1.8,4.4,0.9,6.4,0.1l0.2,1c0.3-0.4,0.5-0.9,0.7-1.4
		c1.1-0.5,2.3-0.6,3.5-0.8c-0.7,0.2-1.3,0.3-2,0.4C85.5,94.3,85.5,95,85.5,95.4z M73.3,99.7c-0.4-0.9-0.4-2-0.6-3
		c-0.9-7.5-1.8-15.1-2.1-22.7c0.5,1.1,0.4,2.3,0.6,3.5c1,5.6,1,11.4,1.8,17C73.1,96.3,73.6,98,73.3,99.7z M77.3,106.5
		c3.1-0.3,6.2-0.4,9.3-0.6c0.5-0.1,0.6,0.4,0.8,0.8C84,106.9,80.7,106.7,77.3,106.5z M84.1,81.9c0.4,1.4,0.6,2.8,0.7,4.2
		c-0.2,0.2-0.5,0.5-0.6,0.7c0.8-0.4,1.6-0.8,2.6-0.8c-0.5,0.7-1.3,1.3-1.2,2.2c-0.1,1.7-0.6,3.2-1,4.8c1.2-0.6,2.3-1.4,3.4-2.2
		c-0.8,1.7-2.8,2.2-4.3,3.1c0.1-0.8,0.9-1.5,0.3-2.2c-0.2,0.6-0.5,1.3-0.7,1.9c-1.5,1.1-3.7,1.7-5.4,1c-1.9-1.3-3.2-3.7-3.2-5.9
		c0.6,0.2,0.6,1,0.8,1.5c0.5,1.4,1.2,3,2.6,3.9c0.7,0.4,1.5-0.1,2.1-0.6c-0.3-0.4-0.7-0.8-1.1-1c0.6-0.4,1.3-0.7,2-1
		c0-0.1-0.1-0.2-0.1-0.3c-0.7,0.3-1.3,0.7-2,1l0,0.6c-2,0.1-2.4-2.1-2.8-3.5c0.6-0.5,1.2-0.9,1.8-1.2c-0.2-0.2-0.4-0.5-0.6-0.7
		c-0.8,0.4-1.7,0.2-2.4,0.7l-0.2,0.3c-0.8-0.9-0.5-2.4-0.6-3.6c0.2-2.5,0.5-5.6,2.7-7.1c0.3,0.4,0.6,0.7,0.8,1.1
		c-0.2-0.1-0.7-0.2-0.9-0.2c-0.3,0.4-0.6,0.8-1,1.2c0,0.5,0,0.9,0,1.4l-0.5-0.1c0.1,1.1-0.4,2.1-0.6,3.1c0.4,0,1.3,0,1.8,0
		c-0.6,0.5-1.3,0.5-2,0.4c0.2,0.9,0.4,1.9,0.4,2.9c1.2,0,2.3-0.2,3.4-0.5c-0.2,0.3-0.3,0.7-0.4,1c1.4-0.5,3.2-0.4,4.2-1.7
		c0.4-2-0.3-3.9-1.1-5.6C80.6,80,80.4,79,79.5,79l0.3-0.5c-0.2,0.1-0.6,0.2-0.8,0.3c0-0.2-0.1-0.5-0.1-0.6c-0.7,0.1-1.4,0.2-1.9-0.5
		c4-0.3,8.2,0.4,11.5,2.8c0.8,0.7,1.7,1.5,2,2.5c-0.2,0.8-0.5,1.5-0.8,2.3c-1.6-0.1-3.2-0.1-4.8,0.2c-0.1-1.6-0.3-3.2-1-4.6
		C83.9,81.2,84,81.7,84.1,81.9z M80.8,80.5c0,1.6,1,3.2,0.6,4.8c-0.3,0.2-1,0.5-1.4,0.7c-0.3-0.8,0.6-1,1.1-1.3
		c-1.1-0.8-2.7,0-4-0.1c0.6-1.4,0-3.1,0.7-4.4c0.3-1.4,1.5-0.5,2,0.3c-0.1,0.5-0.2,1.1-0.2,1.6C80.2,81.8,80.3,81,80.8,80.5z
		 M87.8,77.5c1.8,0.1,2.9,1.5,4.1,2.6c-0.3,0.6-0.6,1.1-0.9,1.7C89.8,80.6,88.7,79.1,87.8,77.5z M87.9,76.1
		c-0.7-0.2-0.7-1.3-1.1-1.8l-0.9,0l0.3,0.8c-0.1,0-0.3-0.1-0.4-0.1c0-0.2,0-0.7-0.1-0.9c-0.6,0.1-1.2,0.2-1.8,0.3
		c-0.2-0.4-0.4-0.9-0.6-1.3c0.3,0.1,0.8,0.2,1.1,0.3c-0.2-0.7-0.2-1.5-0.1-2.3c0.4-0.2,0.9-0.4,1.3-0.6c0.2,0.7,0.4,1.4,0.5,2.1
		c-0.3,0.2-0.7,0.6-1,0.8c1.9,0.4,3.9,0.5,5.7-0.3c0,0.1,0.1,0.4,0.2,0.5c1.8,0.2,3.2-1.3,5-1.3c0.6-0.2,1.2,0,1.5,0.6
		c-1.2,1.2-2.1,2.9-3.8,3.4c-0.1-0.3-0.4-0.8-0.6-1.1C91.3,75,89.6,75.7,87.9,76.1z M84.1,69.9c-0.2,0.4-0.4,0.9-0.6,1.3
		c-0.4-1.2-0.5-2.5-0.6-3.8c-1.1-0.1-0.5-0.9-0.3-1.5c0.3,0.6,0.5,1.3,0.6,2C83.5,68.5,83.8,69.2,84.1,69.9z M84.7,63.2
		c-0.5,0.8-0.9,1.7-1.4,2.5C83.2,64.6,83.5,63.5,84.7,63.2z M92.9,72.8c-0.1,0-0.4-0.1-0.5-0.1c0.1-1.5-0.4-2.9-0.5-4.4
		c0.5-0.7,0.5-1.7,1.3-2.2C92.8,68.3,93.4,70.6,92.9,72.8z M95.7,63.3c0-0.2,0.1-0.5,0.1-0.6c0.2,0,0.5,0,0.7,0
		C96.5,63.2,96.3,63.4,95.7,63.3z M100.7,53.5c1.8-1.2,3.5,1.2,3.5,2.8c-0.7,1.2-0.8,2.9-2,3.8c-0.3-1.5-0.1-3,0.9-4.3
		c-0.8,0.8-1.4,1.9-2.5,2.4c0.2-0.9,0.3-1.8,0.5-2.7c0.5-0.5,1-0.9,1.5-1.3c-0.3-0.4-0.8-0.5-1.2-0.8c-0.1,1-0.8,1.6-1.4,2.2
		c0,0.3,0,0.8,0,1.1c-2.1,0.1-0.8,2.2-1,3.4c-0.9,0.3-0.8-0.9-1-1.4C97.3,56.7,98.7,54.3,100.7,53.5z M97.5,60.3
		c-0.3,0.2-1,0.5-1.3,0.6c-0.5-0.8,0.3-1.5,0.7-2.1C97.1,59.3,97.3,59.8,97.5,60.3z M93,55c2.2-1.2,4.8,2.2,3.1,4
		c-0.5,0.6-0.7,1.3-0.8,2c0.2,0.1,0.5,0.2,0.7,0.3l-0.7-0.1c-0.1,0.2-0.4,0.6-0.6,0.9c-1.4,0-2.8,0-4.1-0.1c0-0.3-0.1-0.8-0.1-1.1
		c1.4-0.2,2.8-0.7,4.1,0.1c-0.5-1.2,0.3-2,1.1-2.7c1-0.9-0.2-2.3-1.1-2.8c-0.4,0.6-0.8,1.1-1.2,1.5c-1.6-0.2-1.7,2-1.5,3.1
		c-0.6,0.3-1.1,0.5-1.7,0.8C90,58.6,90.9,56.1,93,55z M92.4,58c-0.2-0.8,1.3-1.1,1.3-0.2C93.8,58.5,92.7,58.4,92.4,58z M90.3,63
		c0-0.3-0.1-0.8-0.1-1.1c1.6,0.7,3.3,0.5,5,0.6c-1.2,1.5-3.5,0.9-5.1,0.6c0.2,1,0,2.2,0.7,3c-0.2,2.1-0.1,4.1,0.3,6.2l-0.8,0
		c0.3-1.3-0.6-2.2-1.6-2.9c0.4-0.5,0.9-1,1.3-1.5c-0.2,0.1-0.7,0.3-0.9,0.5c-0.7-1.3-0.6-2.8-1-4.2C88.7,63.4,89.1,62.2,90.3,63z
		 M80.8,60.3c2.2-0.6,4.9-1.5,6.9,0.1c1.1,0.9,0,2.2-0.4,3.2c-0.8,1.8,0.7,3.5,1.2,5.1c-0.2,0.1-0.5,0.3-0.6,0.5
		c0.1,1,1.5,1.2,1.9,2c0.1,0.6,0.1,1.3,0.1,2c-0.8-0.3-1.6-0.6-2.4-0.9c-0.2-0.9,0.2-2.2-0.9-2.6c-0.2,0.2-0.7,0.6-0.9,0.7
		c0.2-0.7,0.6-1.2,1.4-1.4c-0.1-0.2-0.3-0.5-0.3-0.7c0.3,0,0.9,0.1,1.1,0.1c-0.6-2.1-2.3-0.3-3.4,0.2c0.4-0.7,0.9-1.2,1.5-1.8
		c0.4,0,1.1,0,1.4-0.1c-0.3-0.8-0.8-1.5-0.7-2.4c0-1.1,1.1-1.9,1-3c-1.9-2-4.7-0.4-6.9-0.5C80.8,60.7,80.8,60.5,80.8,60.3z M81,62.6
		c0.4,1.3,0.6,2.6,0.9,3.8c-0.4,0-1.3-0.1-1.8-0.2c-0.3-1.2-0.7-2.4-0.7-3.6c-0.8-0.3-0.8-1.2-1.2-1.9c-0.7-1.3-2-2.1-2.9-3.3
		C78.1,58,80.1,60.1,81,62.6z M55.1,66.9c1.2-4.4,5-7.9,9.5-8.9c2.7-0.7,5.6-1.4,8.4-0.6c0.8,0.2,1.6,0.7,2.5,0.4l0,0.6
		c1.8,1.3,3,3.2,3.5,5.3c0.4,1.6,0.7,3.2,0.9,4.9c0.1,0,0.2,0.1,0.3,0.2c0.1-0.7-0.1-1.4-0.1-2.2c0.6,0.1,1.2,0.2,1.9,0.3
		c-0.1,0.7-0.3,1.4-0.8,1.9c0.3-0.1,0.8-0.2,1.1-0.3c0.3,1.5,0.4,3,0.7,4.5c0.1,1.4,0.4,2.8,0.6,4.3c1-0.7,2.2-0.2,3,0.6
		c0.9-1,1.7,1,2,1.7c-0.7-0.3-1-1.1-1.5-1.6c0,0.2,0,0.7,0,0.9c-1.7-1-3.5-1.6-5.4-1.8c-0.3-2.5-0.4-5-0.9-7.4l-0.2,0
		c-0.2,2.4,0.7,4.9,0.7,7.4c-1.8,0-4.1-0.9-5.5,0.7c-2,2.3-2.4,5.5-2.3,8.4c-0.2,0.3-0.5,0.6-0.7,0.8c-0.2-4.4-0.7-8.7-1.4-13
		c-0.1-2.8-0.5-5.9-2.1-8.3c0.1,4.1,0.4,8.3,0.7,12.4c0.2,6,1.1,11.9,1.5,17.9c0.2,1.2,0.4,2.5,0.4,3.8c0.1,0.5-0.1,0.9-0.4,1.2
		c-0.3-3.7-0.8-7.3-1.2-11c-0.6-6.2-1-12.5-1.4-18.7c0-2-0.3-3.9,0.1-5.9c-0.3-0.2-1-0.6-1.3-0.9c-0.1,7.1,0.7,14.1,1.2,21.2
		c0.3,5.1,1.2,10.2,1.3,15.4c0.2,0.6,0.7,1.4-0.1,1.8c-0.6-4.1-1.1-8.3-1.5-12.4c-0.9-8.4-1.2-16.8-1.6-25.2
		c0.1-0.3,0.3-0.5,0.4-0.8c-0.4,0-1.3-0.1-1.7-0.2c0.4,4.2,0.5,8.4,0.7,12.6c0.7,8.3,1.3,16.7,2.4,25c0.1,4.4,1.4,8.7,1.3,13.1
		c0.3-0.1,0.9-0.3,1.2-0.4c-0.2-3.5-0.8-7-1.2-10.6c1,1.2,0.8,2.8,1.1,4.2c0.1,2,0.5,4,0.7,6c0.8-0.3,1.5-0.8,1-1.7
		c-0.3-2.2-0.4-4.4-0.7-6.6c0.1,0.1,0.3,0.3,0.5,0.4c0.4,2.2,0.6,4.5,1,6.7c0.4-0.5,0.8-0.9,1.2-1.4c0-0.6-0.1-1.2-0.1-1.8
		c-0.4-1.3-0.5-2.6-0.5-4c0.9,1,0.4,2.5,1.1,3.7c0-1.3-0.2-2.7,0.1-4c-0.1-0.8-1.2-0.2-1.7-0.6c-1.1-0.9-0.8-2.7,0.4-3.3
		c2.3-1.4,4.9-2.4,7.3-3.5c-1.7,0.2-3.2,1.1-4.7,1.7c-1.4,0.7-3.1,1.1-3.9,2.4c-0.6,1.1,0,2.4,0.5,3.4c-0.9-0.3-2.1-0.9-2-2.1
		c-0.2-1.2,0.8-2.1,1.7-2.6c4.3-2.8,9.5-4,14.5-4.9c-0.2,1.9-0.3,3.7-0.3,5.6c-3.8,0.7-7.6,1.7-11.2,3c0,0.2-0.1,0.6-0.1,0.8
		l0.8-0.1c0,2.7,0.9,5.6-0.5,8.1c-2.2,3.9-7.1,5.1-11.2,5.2c-1.9,0.2-3.7-1.1-4.4-2.9c-0.7-2-1.5-3.9-1.9-5.9
		c-1-4.2-0.9-8.5-1.5-12.7c-0.1-2.5-0.5-4.9-0.6-7.4c-0.3-3.8-0.6-7.6-0.8-11.4C54.9,74.6,54.7,70.7,55.1,66.9z M55.5,98.8
		c-2.1,1.2-5.1,1.7-5.8,4.3c1.6-2,3.9-2.8,6.1-3.8c0.1,1.2,0,2.5,0.4,3.7c-0.1,0.1-0.3,0.4-0.4,0.6c-0.3,0-0.8,0.1-1,0.1
		c-0.5,0.3-1,0.5-1.5,0.8c-0.9,0-1.8-0.1-2.7-0.1c0.8-0.3,1.1-0.8,1-1.6c-0.8-0.2-1.3,0.7-1.8,1.1c0.8,1,2,1.2,3.2,1.1
		c-1.2,0.7-3,0.4-3.6-1c-0.6-1.2,0.5-2.3,1.4-2.9C52.1,100.1,53.7,99.1,55.5,98.8z M51.7,96.5c0.5-0.2,1.1-0.3,1.6-0.5
		C53.1,96.9,52.1,97.8,51.7,96.5z M53.4,95.3c0.7-1.3,1.1-2.8,1.6-4.2c0.2,1.1,0.3,2.2,0.4,3.3C54.7,94.7,54.1,95,53.4,95.3z
		 M50.9,107c-0.1-0.3-0.3-0.9-0.4-1.1c0.9,0.9,1.6,2.1,2.7,2.8c0,0.3-0.1,0.9-0.1,1.2c0.7-0.6,1.8-0.6,1.9-1.6
		c0.2,0,0.6,0.1,0.8,0.2c0.3,1-0.5,1.5-1.3,2c0.9-0.1,1.8,0.1,2.7,0.3c0,0.3,0,0.8-0.1,1c-3.5-0.4-7-2.8-7.9-6.3
		C49.8,106.1,50.1,106.9,50.9,107z M54.9,90.8c-0.5,1.4-1.1,2.9-1.8,4.3c-1.1,0.5-2.2,0.8-3.3,0.1c-2.3-2.5-2.9-6.3-2.3-9.6
		c0.3-1.2,0.8-2.5,1.8-3.2c1.7-0.2,3.5,0,5.1,0.4c0.1,1.5,0.2,3,0.1,4.4C54.7,88.4,55,89.6,54.9,90.8z M36.9,113.7
		c-1.4-3.3-3.1-6.6-3.3-10.2c-0.7-6.6,0.8-13.8,5.4-18.8c3.8-4.1,9.6-5.8,15.1-5.2c0.2,0.9,0.3,1.7,0.5,2.6
		c-1.3-0.1-2.5-0.4-3.8-0.6c-0.1-0.2-0.4-0.7-0.6-0.9c0.8,0.2,1.7,0.2,2.6,0c0.1,0.1,0.4,0.2,0.6,0.2c0-0.3-0.1-0.8-0.1-1
		c-1.4,0.1-2.7,0.4-4,0.6c0.3,0.4,0.9,1.1,1.2,1.5c-0.7-0.4-1.3-1-1.9-1.6c0,0.3,0,0.9,0,1.2c-0.1-0.2-0.2-0.6-0.2-0.8
		c-0.1,0-0.4,0-0.5,0.1c-0.8,0.6-1.7,1.1-2.6,1.4c0.6,0.4,1.2,0.8,1.9,0.9c-0.2-0.2-0.6-0.6-0.8-0.7c0.7-0.1,1.2-0.5,1.5-1.1
		c0.7,0.7-0.1,1.5-0.5,2.1c-0.3,0.6-0.4,1.5-1.2,1.8c-1.1,0.5-2.1,1.2-2.9,2c-0.3,1.5-1.7,0.3-2.1-0.5c-1,1.5-1.8,3.1-2.4,4.8
		c-0.3,0.7-0.3,1.6,0.6,1.8c-0.3,0-0.9,0.1-1.3,0.1l0.1,0.9c0.2,0.1,0.7,0.4,0.9,0.6c-0.3,0-0.9-0.1-1.2-0.2
		c-0.7,4.1-1.3,8.4-0.1,12.5c0.3,0.9,0.5,1.8,0.6,2.7c-0.6-2.3-2.1-4.4-1.9-6.8c-0.5-1.3-0.3-2.8-0.3-4.1c-0.4,0-0.8,0.1-1.3,0.1
		c0,2.5,0,5,0,7.5c0.7,0.4,0.2,1.2,0.3,1.7c0,1,0.5,1.9,0.8,2.8c1.3,3.8,4.4,6.7,7.5,9C40.8,118.7,39,115.9,36.9,113.7z M38.4,99
		c-0.1,4.3,0.4,8.6,2.3,12.5c0.7,1.9,2,3.6,3,5.4c-1.6-2.1-3-4.3-4-6.7c-1.5-3.3-1.7-7-2-10.6C37.8,99.5,38.2,99.2,38.4,99z
		 M37.7,97.9c0.3-0.6,0.7-0.6,1,0C38.4,98.5,38.1,98.5,37.7,97.9z M39.8,89.4c0.8-0.3,1.6,0,2.5-0.1c-0.4,1.9,0,3.8,0.1,5.7
		c0.2,1.3-1,2-1.7,2.9c-0.5-0.4-0.7-1-1-1.6c0.1-0.3,0.2-0.6,0.3-0.9c-0.5-0.7,0.3-1.5-0.3-2.3c0.2-0.1,0.7-0.2,1-0.3
		c-0.2,0-0.6-0.1-0.8-0.2c0-0.2,0-0.6,0-0.8c0.3,0,1,0,1.4,0c-0.6-0.5-1.3-0.8-2-1.2c0.8-0.1,1.6-0.1,2.3-0.2
		C41.1,90,40.4,89.7,39.8,89.4z M40.9,88.4c0-1,2.3,0,1.3,0.6C41.6,89,41.2,88.8,40.9,88.4z M39.1,92l0.2-0.4
		C40.2,91.6,39.2,93.1,39.1,92z M46.2,99c0,0,0.1,0,0.2,0c-0.3,4.2,1,8.5,3.4,12c0.2,0,0.7-0.1,1-0.1c1.9,1.7,4.5,2.3,7,2.2
		c0,0.2,0,0.5-0.1,0.7c-2.5,0.1-4.9-0.7-6.9-2.2c0,1.1,1.2,1.5,1.9,2.3c1.3,0.7,2.7,1.2,4.1,1.4l0,0.1c-0.7-0.1-1.4-0.2-2.1-0.2
		C48.3,112.8,45.2,105.3,46.2,99z M67.7,122.2c-6.1,1.2-11.9,3.1-17.9,4.6c-1,0.3-2,0.6-3,0.8c4.9-1.5,9.8-3.1,14.7-4.6
		c2-0.5,4.1-1,6.1-1.2c0.3-0.1,0.7-0.2,1-0.3c0,0.1,0,0.3,0.1,0.4c-0.2,0-0.7-0.1-0.9-0.1L67.7,122.2z M70.4,143.9
		c6.9-2.7,14.2-3.6,20.9-6.8c2.7-1.7,5.9-1.8,9-2.3c2.1-0.3,4.2-0.8,6.4-0.6c-0.1,0.1-0.3,0.2-0.4,0.3c-10.1,4.4-16.8,5.3-27,9.6
		C72.6,144.4,63.5,147.3,70.4,143.9z M91.5,115.1c-0.1,0.7,0.2,1.2,0.5,1.8c1.9,4.7,5.1,8.9,9,12.2c0.9,0.8,2,1.4,2.8,2.3
		c-0.2,0-0.6-0.1-0.8-0.1c-6.9-4.5-11.5-12-13.6-19.8c0.2-0.2,0.5-0.4,0.7-0.5c0,0.7,0.2,1.3,0.6,1.8c0,0.3,0,0.8,0,1.1l0.6-0.1
		c-0.1,0.3-0.1,1-0.2,1.3L91.5,115.1z M89.1,110.6c-0.1-1.4-0.5-2.9-0.6-4.3l0.7,0.3c0.2,1.4,0.4,2.8,0.7,4.2
		C89.7,110.8,89.3,110.7,89.1,110.6z M146.6,134.8c0.1-0.1,0.3-0.3,0.4-0.3c1.4-0.2,2.7-0.6,4.1-0.9l-0.4,0.5
		c-5.8,2.2-11.7,4.4-17.6,6.3c-6.6,2.3-13.2,4.8-19.8,7c-2.4,1.1-5.1,1.3-7.4,2.5c-2.5,0.6-1.2,0,2.6-1.7c4.3-1.5,8.6-2.8,12.8-4.6
		c5.1-1.8,10.3-3.3,15.3-5.4C139.8,137.1,143.2,135.9,146.6,134.8z M131.2,130.5c-0.4,0.3-0.8,0.5-1.3,0.6c0.5-1.5,1.5-2.7,2.9-3.5
		c1.8-1.2,3.4-2.7,4.6-4.5c0.2-0.1,0.7-0.2,1-0.3C136.5,125.8,134.2,128.5,131.2,130.5z M149.7,100.3c-0.7,0.3-1.5,0.4-2.3,0.5
		c0-1.9,0.1-3.9-0.1-5.8c0.2-1.8,0.1-3.7,0-5.5c-0.1-4.2-0.2-8.5-0.7-12.7c0.2,0.1,0.7,0.2,0.9,0.3c-0.1,2.6,0.4,5.1,0.4,7.7
		c0.1,2.3,0.1,4.6,0.2,7c0,1.2,0.7,2.5,0,3.6c0,1.7-0.1,3.5,0,5.2c0.7-1.8,0.1-3.8,0.4-5.7c0.3-0.1,1-0.2,1.3-0.3
		C149.6,96.4,149.6,98.4,149.7,100.3z M150.1,94.7c1.9-0.5,3.9-0.5,5.8-0.9c0.8-0.4,1.6-0.3,2.5-0.4c1-0.6,2.2-0.3,3.3-0.5
		c1.3-0.2,2.6-0.4,3.9-0.7c-2.3,0.2-4.6,0.8-6.9,0.6l0,0.3c-0.7,0-1.4,0.1-2,0.1c-2.1,0.7-4.3,0.7-6.5,1.2c0.2-4.2,0-8.5-0.2-12.7
		c0-0.7-0.1-1.4-0.3-2c-0.1-1.3-0.1-2.5-0.1-3.8c-0.1,0-0.4,0-0.5-0.1c0.2,1.9,0,3.9,0.4,5.8c0,4.2,0.1,8.4,0.1,12.6
		c-0.3,0.1-0.9,0.2-1.1,0.3c-0.4-6.1-0.4-12.2-1-18.2c-0.5,0.1-1,0.2-1.6,0.2c0.3,2.8,0.4,5.7,0.4,8.6c0.7,5.1,0.5,10.4,0.3,15.6
		L146,101c-0.3-1.2-0.5-2.4-0.8-3.6c0.2-0.1,0.6-0.2,0.8-0.2c-0.2,0-0.7,0.1-0.9,0.1c-0.1-0.7-0.4-1.4-0.8-2c-1,0.9,0,2.2-0.3,3.3
		l0.4-0.1c0.4,0.7,0.7,1.5,0.8,2.3c-0.3-0.3-0.8-0.8-1.1-1.1c0,6.8-1.2,13.8-4.3,19.9c-0.1,0.3-0.2,0.8-0.3,1l-0.4,0l0.1,0.6
		l-0.6-0.2c0,0.2,0,0.5,0,0.7c-0.5,0.1-0.8,0.4-1.1,0.8c-4.5,6.7-13.7,10.1-21.4,7.3c-1.5-0.5-2.8-1.4-4.2-2.1
		c-0.9-0.8-1.8-1.4-2.5-2.4c0,0.4-0.1,0.8-0.2,1.2c-0.1-0.2-0.4-0.5-0.6-0.7c0.2-0.4,0.5-0.9-0.1-1.2c-0.8-0.8-1.6-1.7-2.4-2.5
		l-0.3,0.4c0.7,0.6,1.4,1.3,2.1,1.9c-0.2,0.1-0.7,0.5-0.9,0.6c0.2,0.1,0.7,0.3,1,0.4c0,0.2,0.1,0.7,0.2,0.9
		c-4.2-3.8-7.2-8.9-8.4-14.4c-0.8,1.5-0.7,3.3-0.3,5c0.8,3.7,3.2,6.8,4.9,10.1c-3.8-4.8-6.8-10.4-7.9-16.5c1-0.3,1.8-1,2.5-1.9
		c-0.9,0.4-2,0.4-2.9,0.5c-0.2-1.7,2-1.4,2.7-2.6c-0.9,0-1.8,0.2-2.7,0.3c-0.2-0.3-0.3-0.7-0.4-1.1c1.2-0.1,2.2-0.8,3-1.6
		c-1.1-0.3-3.4,0.8-3.3-1c1.2,0,2.4-0.5,3.3-1.3c-1.1,0-2.2,0-3.3,0c0-0.3,0.1-0.9,0.1-1.3c1.1,0,2.1-0.3,3-0.8
		c-1-0.1-1.9-0.1-2.9-0.3c0-0.4-0.1-1.1-0.1-1.4c1.2-0.1,2.4-0.4,3.2-1.3c-1-0.1-1.9-0.1-2.9-0.2c0-0.4,0-0.8,0-1.2
		c1,0.1,2-0.2,2.9-0.5c0-0.3,0.1-0.5,0.1-0.8c-1,0.2-1.9,0.1-2.9,0c0.1-0.2,0.2-0.7,0.3-1c1.1-0.2,2.3-0.3,3.2-1c-1-0.2-2-0.4-3-0.6
		c0.1-0.4,0.2-0.9,0.2-1.3c0.3,0.1,0.8,0.3,1,0.4c0.7-0.2,1.5-0.5,2.2-0.8c-1-0.6-3.4,0.1-2.8-1.8c1,0,2,0.1,2.8-0.4
		c-0.9-0.5-2.9-0.1-2.3-1.6c1.2,0,2.4,0.2,3.6-0.1c-0.8-0.7-1.9-0.8-2.9-1.3l0.1-0.8c1.3,0,2.6,0.1,3.9,0.1c-4.1,10.2-4.5,22,0,32.1
		c1.2,2,1.9,4.5,3.9,5.8c-2.5-3.6-4.5-7.6-5.5-11.9c-1.3-4.5-1.2-9.2-1-13.8c0.6-5.9,2.3-11.7,5.6-16.7c3.1-4.6,7.8-8.3,13.4-9.2
		c1.8-0.3,3.6-0.1,5.4-0.4c-1.9-0.2-3.8-0.1-5.7,0.1c-0.6-0.9-1.4-1.8-1.8-2.8c-1-0.2-2,0.3-3,0.6c0.7,0.6,1.4,1.4,2.4,1.4
		c-0.3-0.4-0.8-1.3-1.1-1.7c0.9,0.2,1.6,0.9,2.4,1.5c0.2,0.3,0.4,0.7,0.5,1.1c-1.5-0.1-2.8,0.7-4.1,1.2c-4.4,1.9-7.7,5.6-10.1,9.7
		c-0.2,0.4-0.6,0.9-1.1,0.6c-1-0.4-2.3-0.6-2.8-1.7c1.2,0,2.5,0.2,3.7,0.2c-0.8-0.6-1.7-1.1-2.6-1.6c0.7-1.6,2.3,0.4,3.5,0.1
		c-0.5-1-2.5-1-2.3-2.3c1.2,0.1,2.3,0.6,3.5,0.8c-0.8-0.8-1.8-1.4-2.6-2.2c1.3-0.3,2.5,0.6,3.8,0.9c-0.7-0.9-1.9-1.4-2.4-2.5
		c1.1,0.3,2.2,0.9,3.3,1.3c-0.5-1-1.5-1.5-2-2.5c1.3,0.2,2.2,1.2,3.5,1.3c-0.8-0.8-1.7-1.6-2.5-2.4c-8.3,6.9-11.9,18-12,28.5
		c-1.5-0.4-1.3,1.4-1.2,2.3c0.5,2.2,0.6,4.5,0.3,6.7l0.2,0.1c0-0.2,0.1-0.6,0.1-0.8l0.2,0.1c0,0.5,0.1,1,0.3,1.6
		c0.1,0.6,0.2,1.2,0.3,1.8c0.4,1.1,0.7,2.3,0.9,3.4c-1-1.3-1.1-3.1-1.3-4.7c-0.2,0.1-0.7,0.2-0.9,0.3c-0.3-1.5-0.3-3.2-0.8-4.6
		l-0.3,0c-0.8,0.3,0,1.5-0.1,2.1c-0.1-0.3-0.2-0.9-0.2-1.2c-0.9-3.6-0.5-7.4-0.6-11c-0.4-0.3-0.7-0.6-1.1-0.9c0.1-0.7,0.2-1.3,0.4-2
		c0.1-1,0.3-2,0.6-3c-2.3,5.3-1.9,11.3-1.4,16.9l0.6,0c-0.1-0.7-0.1-1.4-0.2-2.1c-0.7-2.9-0.2-5.9-0.3-8.9c0.2,0,0.7-0.1,0.9-0.1
		c-0.2,2-0.5,4.1-0.5,6.1c-0.1,2,0.5,4,0.4,6c0.3,0.9,0.4,2,0.5,3c-0.1-0.5-0.3-0.9-0.4-1.4c-1.1,0.5,0.2,1.9-0.1,2.8l-0.6-0.4
		c-0.7-1.9-0.8-4-1.1-6c-0.2,0.1-0.7,0.2-1,0.3c-0.3-2.7-0.4-5.4-0.1-8.1c1.1,1.9,0.3,4.2,0.5,6.3h0.3c0-2.1-0.1-4.1-0.1-6.2
		c-0.1,0-0.4-0.1-0.6-0.1c0.2-7.6,2.8-15.2,7.5-21.1c4.6-5.8,11.6-9.8,19.1-10.2c1.6-0.3,3.3-0.2,4.9,0.2c-0.9,0.4-2.3,0-2.9,0.6
		c0.5,1,1.6,1.4,2.5,2c-0.5-0.6-0.9-1.3-1.4-2c0.9,0.3,1.6,0.9,2.3,1.5c-0.3-0.6-0.6-1.2-0.8-1.9c3.6,0.2,7.2,1.4,10.2,3.5
		c0.4,0,1.1,0.1,1.5,0.1c-1-1.8-3.7-1.9-4.5-3.9c-2,0.2-3.8-0.5-5.6-1.2c2.4-0.3,4.8-0.7,7.3-0.8c0.1-0.2,0.2-0.6,0.3-0.8
		c0.2,0,0.7,0,0.9,0l-0.2,0.7l1.1,0c-0.1-0.4-0.3-1.3-0.3-1.7c0.9-0.4,1.9-0.6,2.8-1c1.6-0.2,3.1,0,4.6,0.5c0,0.3,0,0.9,0,1.2
		c0.2,0,0.6,0.1,0.7,0.1c0-0.4,0.2-0.8,0.4-1.1c0.2,0.3,0.4,0.6,0.6,0.9c0.1-0.5,0.2-1.1,0.4-1.6c-0.1,0.1-0.4,0.2-0.5,0.3l-0.4,0
		c-2.1,0.4-0.7-2.4-1.6-3.5c-1.6-0.4-2.7-1.6-4-2.4c-1.3,0.3-1.9,1.8-3,2.4c-0.9,0.4-1.8,1-2.8,1c0.9,0.6,1.3,1.5,0.8,2.5
		c-0.8,0.1-1.5,0.2-2.3,0.3c0.1-0.4,0.3-0.8,0.5-1.2c-1.2,0.1-2.5,0.2-3.7-0.3c-1,0.6-2.1-0.2-3.2-0.1c-1.3-0.2-3,0.5-4.1-0.5
		c0.2-0.1,0.5-0.3,0.7-0.4c0-0.5,0-1,0.1-1.6c0.3,0,0.9-0.1,1.3-0.1c0-2.8-0.5-5.7-0.9-8.5c1.1-0.2,2.1-0.2,3.2-0.1
		c-0.4,0.2-0.8,0.5-1.1,0.7c0.3,1.4,1.2,2.5,2.4,3.1c-0.1-0.3-0.3-0.8-0.5-1.1c0.7,0,1.5,0,2.2,0c0.6,1.9,2.9,1.4,4.4,1.6
		c0.1-0.3,0.4-0.9,0.5-1.2c-0.3-0.4-0.7-0.7-1.1-1.1c-0.5,0.1-1.1,0.2-1.6,0.2c0.2-0.4,0.3-0.8,0.5-1.2c0.3-0.2,0.9-0.5,1.2-0.6
		c1.2-1.1-0.2,1.3,0.9,0.9c0-0.3,0-0.8,0-1.1c2.4,0.2,4.8,0.2,7.1,0.7c0.9,0.2,1.1,1.2,1.1,2c-1.1,0.3-2.2,0.4-3.3-0.2
		c0.1,0.2,0.3,0.6,0.4,0.8c1.9-0.4,3.7-0.7,5.6-1.3c0.8-0.7,1.3-1.7,2.3-2c0-0.1,0-0.4-0.1-0.5c0,0.1,0.1,0.4,0.2,0.6
		c1.2,0.1,2.4,0.2,3.5,0.6c6.1-1.1,12.3-1.9,18.6-1.6c-0.5-5.1-0.9-10.2-1.3-15.3c-12.2,3.8-24.5,7.5-36.7,11.2
		c-0.6,0.2-1.2,0.3-1.8,0.4c-0.1,0.2,0.1,0.7,0,0.9c7.1-2,13.9-4.3,21.2-5.5c1.7-0.4,3.5-0.6,5.2-0.9c2.4-0.1,4.9,0,7.3,0
		c0.7,0.4,1.5,0.7,2.2,1c0.2-1.6,0-3.2,0.5-4.8c0.1,1.8-0.1,3.7-0.4,5.5c-0.6-0.7-1.4-1.2-2.3-1.4c-4.2-0.5-8.4,0.2-12.5,1
		c-7.2,1.5-14.2,3.6-21.2,5.8c-0.2-0.5-0.4-0.9-0.7-1.3c-0.6,0.3-1.2,0.5-1.8,0.6c-2.3,0.7-4.6,1.4-6.9,2.1c0.1,1.3,0.3,2.5,0.5,3.7
		c-0.3,0-0.8,0.1-1.1,0.1c-0.2-1.1-0.3-2.1-0.3-3.2c-1,0-2.1-0.3-3-0.7c-0.2-1,0.5-1.8,1-2.6c1-1.4,2.2-2.9,3.8-3.6
		c2.9-1.4,5.9-2.5,8.9-3.6c8.8-3.2,17.8-5.9,26.8-8.5c3.1-0.7,6.1-1.8,9.3-1.5c1.8-0.1,3.5,1.2,4.1,2.9c-0.4,0.3-0.8,0.5-1.1,0.8
		c0.7,0,1.6,0,1.6-0.9c0.5,0.1,0.8,0.1,1.3,0.2c0.5,4.8,0.8,9.6,1.5,14.4c0.2,1.8,0.1,3.6,0.5,5.4c0.1,0.8,0.2,1.7,0.2,2.6
		c-0.3,0-1-0.1-1.3-0.1c0.6,0.2,1.3,0.4,2,0.5c0.1,1.4,0.1,2.8,0.5,4.1c-6.6,0.3-13.1,0.9-19.6,1.8c0.1-2.9-1.8-6.1-4.9-6.6
		c0.5,0.3,1.1,0.5,1.6,0.7c2.1,1.2,3.2,3.7,3,6.1l0.4-0.1c0.2,0.8,0.1,1.4-0.3,2c-0.2-0.1-0.6-0.2-0.7-0.2c-0.4-2.2-0.7-4.7-2.4-6.4
		c-0.8-1-2.1-1.3-3.2-2c-2.9-0.2-5.8-0.3-8.6-0.1c2.4,0.3,4.8-0.1,7.2,0.3c2.8,0,5.4,2.3,6,5c0.3,1.2,0.5,2.4,0.7,3.6
		c-0.7,0-1.5,0.1-2.2,0.2c0.5-2.6-0.7-5.3-2.8-6.9c-0.7-0.4-1.5-0.7-2.3-0.9c-0.1,0.1-0.3,0.4-0.4,0.6c-1.7-0.8-3.6-0.4-5.4-0.5
		c-3.3-0.1-6.7,0.1-9.9,1c2,0,4-0.7,6.1-0.6c2.7-0.4,5.4-0.2,8.1,0.2c3.3,0.6,5.6,4,5.3,7.2c-0.3-0.1-0.7-0.2-1-0.2l0.1,0.7
		c-0.2-0.1-0.6-0.2-0.8-0.3c0.1,0.8,0.1,1.7,0.1,2.6c1,1.4,0,3.2,0.6,4.7c0.7-1.1,0.2-2.5,0.3-3.7c0.3,0,0.9-0.1,1.2-0.1
		c0.4,1,0.3,2.1,0.5,3.2c5.9-0.5,11.8-1.2,17.7-1.6c1.8-0.4,3.7-0.3,5.5-0.7c-4,0.1-8,0.9-12,1.1c-2.2,0.4-4.4,0.2-6.5,0.7
		c0.1-2.2-0.5-4.3-0.5-6.4c0.7-0.1,1.5-0.1,2.2-0.1c0-0.1,0-0.2,0-0.3c-0.7,0.1-1.4,0.2-2.1,0.3c-0.1-0.7-0.2-1.4-0.2-2.1
		c0.7,0.1,1.5,0.2,2.2,0.1c5.6-0.8,11.2-1.1,16.8-1.7c0.3,1.5,0.4,3,0.6,4.5c0.3,1.3,0.2,2.7,0.3,4c0.1,0,0.3,0,0.4,0
		c0-1.8-0.1-3.5-0.2-5.3c0.4,0,1.1,0,1.5,0c0.6-1.1,0-2.2-0.1-3.3c7.9-0.3,15.8-0.9,23.8-0.9c0.1,2.3,0.4,4.5,0.6,6.8
		c-1.6,0.2-3.3,0.1-4.9,0.4c-1,0.2-2,0.2-3,0.4c-1.7,0.5-3.5,0.1-5.2,0.6c1.6,0,3.2-0.1,4.7-0.2c0.9-0.4,2-0.2,3-0.4
		c1.8-0.5,3.6-0.3,5.4-0.7c-0.2,1.5,0.4,3.2-0.3,4.5c-0.5,0.1-0.9,0.2-1.4,0.3l0.1,0.5c-0.3-0.1-1-0.2-1.3-0.2
		c0.4,0.2,0.8,0.4,1.1,0.6c0.1,0.3,0.2,0.8,0.3,1.1c-0.5,0.1-0.9,0.3-1.4,0.4c-1.1,0.2-2.3,0.9-3.3,0.3c-0.8-0.8,0.4-1.3,0.7-1.9
		c-0.2,0.1-0.5,0.3-0.7,0.5c-1,0.1-2.1,0.1-3.1,0.2c-3,0.4-6,0.8-8.9,1.3c-2.2,0.2-4.3,0.6-6.4,0.8c-0.7-0.2,0-1.1,0.5-0.9
		c1.3-0.5,2.7-0.2,3.9-0.7c1.2-0.4,2.6,0,3.8-0.6c-1.5-0.1-3,0.5-4.5,0.4c-1.2,0.5-2.6,0.4-3.9,0.5c-0.7-1-0.2-2.6-0.7-3.8
		c0,1.8,0.1,3.6-0.1,5.4c-1.2,0-2.6-0.3-3.7,0.5c-1.2,0.1-2.5,0.4-3.7,0.7c-0.7,0-1.5,0.1-2.2,0.2c-1.5,0.4-3,0.7-4.6,1.1
		c1.7-0.3,3.4-0.8,5-1.2c1.1,0.3,2.1-0.2,3.1-0.5c2-0.4,4.1-0.3,6.1-0.8c0.1,4.9,0,9.7-0.1,14.6c-0.4,1.5-0.3,3.1-0.5,4.6
		c-0.1,0.7-0.2,1.4-0.3,2.1c-4.8,0.8-9.5,1.9-14.3,2.7c-1.5,0.3-3,0.5-4.4,1.1C150.2,97.7,150.3,96.2,150.1,94.7z M98.9,82.7
		c0.7-1.6,2.2,0.5,3.5-0.4c0.6,0.6,0.5,1.3,0,1.9C101.2,83.7,100.1,83.3,98.9,82.7z M127.2,62.9c0.3,0,0.9,0,1.2,0
		c0.1-0.6,0.3-1.1,0.4-1.7c-0.7-0.9-0.2-1.5,0.9-1.4c0.1,0.2,0.4,0.5,0.5,0.7c0,0.9,0,1.8,0.1,2.8c-1,0.2-2,0.4-3,0.6L127.2,62.9z
		 M130.4,59.6c0.9-0.9,1.9-1.8,2.8-2.7c0.5,1,1.6,1.2,2.3,2.1C133.8,59,132.1,59.1,130.4,59.6z M137.4,59.9c0,0.7-0.1,1.5-0.1,2.2
		c-0.3-0.1-1-0.3-1.4-0.4c-1.1-0.1-2.3-0.2-3.4,0.1c-0.7,0.2-1.4,0.4-2.1,0.7c0-0.8,0-1.7,0-2.5C132.7,59.3,135.1,59.3,137.4,59.9z
		 M123.9,52.2c-0.4-0.2-0.7-0.4-1.1-0.6c-0.7,0.1-1.3,0.2-2,0.3c0-0.2-0.1-0.6-0.1-0.8c0.6-0.1,1.1-0.4,1.5-0.8c0.7,0,1.5,0,2.2,0
		C124,50.8,123.8,51.5,123.9,52.2z M150,69.8c-0.3,0-0.8-0.1-1.1-0.1c-0.3-1.2,0.1-2.7-0.4-3.8c0.2-0.7-0.8-2.3,0.5-2.3
		c0.3,0.4,0.5,0.9,0.6,1.4c-0.1,0-0.2,0-0.3,0C150.1,66.4,149.6,68.2,150,69.8z M146.5,70c-1-0.2-0.6-1.6-0.8-2.4
		c1,0.3,1.9-0.2,2.1-1.2c0.2,0.2,0.4,0.5,0.6,0.7c0,0.9,0,1.9,0,2.8c-0.3,0-1,0.1-1.3,0.2c-0.2-0.7-0.3-1.5-0.5-2.2
		C146.6,68.5,146.9,69.3,146.5,70z M145.6,67c-1-0.7-1.4-1.9-1-3.1c1.1-0.1,2.2-0.2,3.3-0.1c0.3,1.3-0.1,2.5-1,3.4
		c-1-0.6-1.3-1.7-1.5-2.8C145.4,65.2,145.6,66.1,145.6,67z M142.1,56.9l0-0.3c-0.4,0.4-1.4-0.3-1-0.8c0.3,0.1,0.8,0.4,1,0.5l0,0.2
		l0.4-0.1c1,0.8,2.1,1.7,2.7,2.9c0.4,1.3,1.3,3.4-0.1,4.2C145.3,61,144.2,58.5,142.1,56.9z M144,66.6c-0.8-0.4-1-2-0.3-2.4
		C143.6,64.9,144.5,66,144,66.6z M210.6,76.7c-0.4,0.8-0.8,1.5-1,2.3c0.2,0.1,0.7,0.3,1,0.4c-0.9,0-1.5-0.8-2.1-1.3
		c-0.1,0.5-0.3,0.9-0.6,1.3c0-0.8,0-1.7,0.1-2.5c0.9-0.2,1.6-0.5,2.5-0.3c-0.9-0.6-0.6-2.4-1.9-2.3c-0.9-0.1-1.1,0.9-1.4,1.6
		c-0.2,3.5,0.2,7,0.4,10.5c-1.6,0.5-3.2,0.9-4.7,1.5c0.4-1.9,0.9-3.8,1.4-5.7c0.7-3.4,1.5-6.9,2.9-10.1c0.8-1.4,1.8-3.3,3.7-2.8
		c-0.1,2.5,0.1,5-0.1,7.5C210.7,76.7,210.7,76.7,210.6,76.7z M211.2,85.6c-0.4-1.5-0.5-3.1-0.4-4.7c1.5,0.8,1,2.8,1.7,4.1
		C212.1,85.3,211.6,85.4,211.2,85.6z M231.6,90.9l-0.4,0c0.3,1.3-1.2,2.4-2.4,2c-1.6-0.7-2.6-2.4-3.4-3.9c-0.1-0.3-0.2-0.8-0.3-1.1
		l-0.4,0c0-0.2,0.1-0.7,0.2-0.9l-0.4,0c-1.7-4.8-2.8-9.9-2.7-15.1c0-2.2-0.1-4.7,0.8-6.7c0-0.2,0-0.7,0-1c0.1-0.2,0.4-0.5,0.5-0.6
		l0.4,0.1c-0.2-0.8,0-2,1-1.9c0.5,0.6,1.1-0.7,1.9-0.3c1.3,1.2,2.5,2.6,3.2,4.2c1.5,2.7,2.2,5.8,2.8,8.8
		C233.6,79.9,233.6,85.7,231.6,90.9z"/>
	<path class="st0" d="M223,60.2c0.3-0.2,0.8-0.6,1.1-0.8c-0.8,0.1-1.8-0.4-2.4,0.3c-1,1-1.5,2.3-2,3.5c-1.3,4.4-1.3,9-0.8,13.5
		c0.7-0.4,1.3-0.9,1.7-1.5c-0.4,0-1.3,0-1.7-0.1c0.5-0.4,1.1-0.8,1.5-1.3c-0.4,0-1.2,0-1.6,0c0.4-0.5,0.9-0.9,1.4-1.3
		c-0.3,0-1,0-1.4-0.1l0-0.5c0.5-0.2,1-0.4,1.5-0.6c-0.4-0.1-1.3-0.4-1.7-0.5c0.6-0.3,1.3-0.6,2-0.9c-0.4-0.1-1.2-0.2-1.6-0.2v-0.4
		c0.5-0.1,1.1-0.3,1.6-0.4c-0.6-0.2-1.2-0.5-1.8-0.8c0.4-0.1,1.3-0.2,1.8-0.3c-0.6-0.3-1.2-0.6-1.7-1.1c0.4,0,1.3-0.1,1.7-0.1
		c-0.3-0.6-1-1-1.4-1.5c0.5,0,1.4-0.1,1.9-0.1c-0.5-0.5-1-0.9-1.5-1.4c0.5,0.1,1.4,0.2,1.9,0.2c-0.4-0.4-0.9-0.7-1.3-1.1
		c0.3,0,1,0.1,1.3,0.2c-0.2-0.3-0.7-0.8-0.9-1.1l0.9,0.2c-0.1-0.2-0.2-0.7-0.3-1l0.6,0.4C221.4,60.4,222.5,60.5,223,60.2z"/>
	<path class="st0" d="M64.8,98.9c0.5,5.4,1.4,10.8,1.8,16.3c0.3,0.1,0.9,0.3,1.1,0.4c-0.9-11.7-2.9-23.3-3.5-35
		c-0.3-5.3-0.9-10.7-0.6-16c0.1,0.2,0.4,0.7,0.5,0.9c0.4,14.8,1.9,29.6,3.6,44.3c0.1,1.8,0.7,3.6,0.4,5.4c0.3,0,1-0.1,1.4-0.1
		c-0.3-2.3-0.5-4.6-0.8-6.9c-0.2-4.5-1.2-9-1.5-13.5c-0.4-3.8-1-7.7-1.2-11.5c-0.3-6.3-1-12.6-0.8-19c-1.1,0.1-2.1,0.1-3.2,0.3
		c0.8,3.8,0.4,7.6,0.8,11.4C63.4,83.5,64.1,91.2,64.8,98.9z"/>
	<path class="st0" d="M65.1,115.5l1,0c-0.1-3-0.6-6.1-1-9.1c-1.3-11.6-2.8-23.2-3-34.9c-0.4-2.4-0.2-4.8-0.2-7.2
		c-0.3,0.2-0.8,0.5-1,0.7c0.5,15.9,2.1,31.7,4,47.4C65,113.5,65.1,114.5,65.1,115.5z"/>
	<path class="st0" d="M137.9,68.1c0-1-0.1-2-0.1-3.1c-0.8,0-1.6,0-2.3,0.3c-0.7,0.1-1.4,0.3-2.1,0.4c-0.5,0.2-1,0.4-1.5,0.6l0.1,0.1
		c0.1-0.1,0.4-0.3,0.6-0.3c0.4-0.1,0.9-0.3,1.3-0.4c1-0.1,2-0.6,3-0.3l0.1-0.1c1.2,0,0.4,1.8,0.8,2.5c-1,0.9-2.1,1.8-3.4,2.1
		c0.3-0.6,0.5-1.3,0.8-1.9c0.6-0.1,1.2-0.3,1.8-0.4c-2,0.2-3.9-0.7-5.8,0.2c0-0.3,0-0.9,0-1.2c-0.3,0.2-0.6,0.4-0.9,0.5
		c0.4,1.4,1.6,2.3,2.5,3.3C134.8,71,136.5,69.5,137.9,68.1z"/>
	<path class="st0" d="M62.3,103.9c0.2,3.9,1.2,7.7,1.3,11.6c0.3,0,0.8,0,1.1,0c-0.3-2.8-0.6-5.5-1-8.2c-0.3-4.5-1.2-9-1.5-13.6
		c-0.2-1.7-0.4-3.4-0.6-5c-0.2-2.1-0.4-4.3-0.5-6.4c-0.1-5.8-1-11.6-0.6-17.5c-0.3,0.1-1,0.4-1.3,0.5c0,5,0.5,10.1,0.7,15.1
		C60.6,88.3,61.3,96.1,62.3,103.9z"/>
	<path class="st0" d="M101.4,66.1c0.5-0.3,0.5-0.6,0-1C101,65.4,101,65.7,101.4,66.1z"/>
	<path class="st0" d="M58.1,99.2c0.6,4.3,0.8,8.7,2.1,12.8c0.1-1-0.2-2.1,0.5-3c0,1.1,0.1,2.2,0.4,3.2l-0.9-0.2
		c0.7,1.2,1.5,2.3,2.5,3.2c0.1-1.2,0-2.4-0.1-3.6c-0.9-7.8-1.9-15.7-2.7-23.5c-0.4-7.6-1.2-15.2-1.2-22.8c-0.2,0.2-0.6,0.6-0.8,0.8
		c0.2,4.1,0.4,8.2,0.7,12.3c0.2,5.6,1,11.2,1.4,16.8c0,0.2-0.1,0.5-0.2,0.6c-0.1,0-0.2-0.1-0.3-0.2c-1.2-9.7-1.8-19.4-2.2-29.2
		c-0.2,0.2-0.5,0.7-0.7,0.9c0.1,2.4,0.4,4.8,0.5,7.2c-0.3,0.3-0.5,0.5-0.8,0.8c-0.1-1.7,0-3.3-0.1-5c-0.2,5.7,0.4,11.4,0.9,17
		C57.2,91.3,57.7,95.3,58.1,99.2z M59.6,100.5l0.2,0c0.6-1-0.5-2.8,0.1-4l0.2,0c0.8,5.8,1.3,11.7,2.2,17.5l-0.7-0.3
		c-0.3-4.1-0.9-8.3-1.3-12.4c-0.1,0-0.3-0.1-0.4-0.1c-0.4,2.6,0.5,5.2,0.7,7.9c-0.2-0.1-0.6-0.2-0.8-0.3c0.2-3-0.6-5.9-0.8-8.8
		c-0.4-3.2-0.7-6.4-1.1-9.6c0.2,0.1,0.7,0.2,0.9,0.3C58.5,94,59.2,97.3,59.6,100.5z M56.6,75.9c0.3-0.3,0.5-0.5,0.8-0.8
		c-0.2,1.9,0.1,3.8,0.3,5.8c-0.3,0.3-0.5,0.5-0.8,0.8C56.6,79.8,56.7,77.8,56.6,75.9z M57.8,81.9c-0.2,2.6,0.4,5.3,0.6,7.9
		c-0.2,0.3-0.5,0.5-0.7,0.8c-0.1-2.9-0.7-5.8-0.7-8.8C57.3,81.8,57.6,81.8,57.8,81.9z"/>
	<path class="st0" d="M226.3,79.6c0.4-0.2,1.2-0.5,1.7-0.7c0,1-0.2,2.1-0.1,3c0.2,1.7-0.4,3.3,0,5.1c0.1-0.2,0.3-0.7,0.4-0.9
		l0.3,0.2c0.4-0.9,0.9-1.8,0.9-2.8c-0.1-2.4,0.4-4.7,0-7.1l0.5,0c-0.3-0.9-0.4-1.8-0.5-2.7c-0.6-1.7-0.9-3.5-1.9-5.1
		c-0.5-0.8-1.3-1.3-1.6-2.2c-0.1,0.5-0.6,1.8-1.2,1.1c0-0.3,0.1-0.8,0.2-1c-0.2,0.1-0.5,0.3-0.7,0.4c-1.1,1.5-1.1,3.4-1.4,5.2
		c1.5,1.5,2.3,3.5,2.5,5.6c-0.9,0.4-0.5,1.1,0,1.6c-0.7,0.4-0.6,1.3,0,1.7c-0.3,0.8-1.2,1.5-0.9,2.5c0.3-0.2,0.9-0.5,1.2-0.7
		c0.9-1.8,0.4-3.8,0.5-5.7C226.2,77.9,226.2,78.8,226.3,79.6z M227.4,71c0.9,1,0.8,2.4,1.1,3.6c0.9,2.9,0.7,5.9,0.7,8.9
		c-0.1,0.8,0.1,1.9-0.9,2.2c-0.1-2.7,0-5.5,0-8.2C228.2,75.3,227,73.2,227.4,71z"/>
	<path class="st0" d="M113.6,67.9c-1,0.4-2,0.8-3,1.3c1,0.7,1.9,1.6,3.1,2c-0.5-0.8-1.5-1.5-1.5-2.5c0.9,0.5,1.6,1.8,2.8,1.6
		C114.4,69.5,113.3,69,113.6,67.9z"/>
	<path class="st0" d="M110.8,72.8c-0.6-0.9-2.1-1.4-1.8-2.6c1.1,0.6,2.1,1.3,3.2,1.8c-0.5-1-1.4-1.7-1.5-2.8c-1,0.5-2,1-3,1.6
		C108.3,72,109.6,72.4,110.8,72.8z"/>
	<path class="st0" d="M110.6,69.2C110.6,69.2,110.6,69.2,110.6,69.2C110.6,69.2,110.6,69.2,110.6,69.2
		C110.6,69.2,110.6,69.2,110.6,69.2z"/>
	<path class="st0" d="M143.5,87.3c0.1-1-1-1.9-0.6-2.9c0.3-0.1,1-0.2,1.3-0.2c-0.4-0.2-0.8-0.5-0.6-1.1c0.1-1.9,0.1-3.9,0.2-5.8
		c-0.1,0-0.3,0-0.4,0c0,2.2,0.2,4.5,0,6.7c-0.6,0-1.1,0.3-1.6,0.5c-1.7-4.4-4.3-8.3-7.5-11.7c-0.1-0.4-0.3-1.1-0.3-1.4
		c0.4,0,1.1,0.1,1.5,0.1l-0.1-1c-0.3,0.1-0.9,0.4-1.2,0.6c-0.2-0.1-0.6-0.2-0.9-0.3c0,0.3,0,0.9,0,1.2c-0.3-0.3-0.7-0.7-1-1
		c-0.3,0.1-1,0.2-1.3,0.3c3.3,2.3,5.5,5.6,8,8.6c-0.3,0.2-0.6,0.3-0.9,0.3c-1.5-2.4-3.5-4.3-5.6-6.2c-1.4-0.9-2.7-2.1-4.4-2.4
		c3.5,1.6,6.5,4.3,8.9,7.3c0.4,0.6,0.8,1.3,1.5,1.5c-0.1,0.5,0,1.1,0.6,1.3c-0.1-0.2-0.2-0.5-0.2-0.7c-0.3-0.5,0.4-0.7,0.6-0.3
		c0.7,1.8,2,3.5,2.1,5.5l0.3,0c0.2,0.8,0.5,1.6,0.8,2.3c0.1,0.7,0.3,1.4,0.5,2c0.4,1.5,0.8,3.1,0.9,4.6c0.2,0,0.6,0,0.8,0
		c-0.7-2.5-0.9-5.2-1.8-7.7c1.1,0,2.1-0.2,3.1-0.5c0-0.1,0-0.3,0-0.4C145.1,86.9,144.3,87.2,143.5,87.3z M142.9,86.9
		c-0.1-0.2-0.4-0.5-0.6-0.7C142.6,85.4,143.7,86.6,142.9,86.9z"/>
	<path class="st0" d="M223.2,73.5c-0.3,0.5-0.3,0.9,0,1.4C223.8,74.9,223.8,73.3,223.2,73.5z"/>
	<path class="st0" d="M135.9,114.4c-1.6,2.9-4.1,5.3-6.9,7c-3.7,1.7-8.1,2-11.8,0.1c-4-2.1-6.9-5.8-8.6-9.9
		c-2.8-6.5-2.8-14.1-0.7-20.8c1.5-4.6,4.2-9.1,8.7-11.4c3.4-1.7,7.6-2.1,10.9-0.2c5.7,2.9,9.4,8.9,10.8,15
		c-1.3-6.8-5.7-13.4-12.3-16c-3.9-1.1-8.2-0.5-11.5,1.9c-4.9,3.4-7.3,9.2-8.3,14.9c-0.8,5.6-0.5,11.6,1.9,16.8
		c2.1,4.9,6,9.4,11.2,11c3.2,0.2,6.6,0.5,9.5-1c5.4-2.6,8.6-8.3,9.6-14c-0.3,0.9-0.5,1.7-0.8,2.6
		C137.2,111.8,136.5,113.1,135.9,114.4z"/>
	<path class="st0" d="M137.5,96c-0.1-2.3-1-4.5-1.9-6.6c-2.1-4.1-5.3-7.9-9.8-9.4c-3.4-1.2-7.1-0.3-10.1,1.5
		c-3.9,2.6-6.4,6.8-7.5,11.3c-1.4,4.5-1.1,9.4-0.4,14c0.2,0.1,0.6,0.3,0.9,0.4c-0.7-1.5,0.7-2.7,0.1-4.1c-0.3-2-0.3-4.1,0.1-6.1
		c0.2-0.1,0.7-0.3,1-0.4c0.7-1.8,0.8-3.7,1.8-5.4c1.1-2.1,3-3.6,4.7-5.2c0.6-0.6,1.4-0.3,2,0.1c-1.7,1.1-3.3,2.4-4.4,4.2
		c0.1,0,0.3-0.1,0.4-0.1c1.9-2.9,5.6-4.3,8.9-3.3c0.1-0.2,0.2-0.5,0.3-0.7c2.2,1.1,4,2.9,5.2,5c0.3,0.4,0.5,0.8,0.8,1.2l-0.2,0
		c-0.3-0.2-0.9-0.6-1.1-0.8c0.4,0.9,0.9,1.7,1.4,2.6c0.2,1,0.7,2,0.6,3.1l-0.7,0.2c-0.7-3.7-3-7.3-6.7-8.5c-2.1-0.3-4.6,0.2-6,2
		c-0.3-0.1-0.4-0.3-0.2-0.6c0.8-1,2-1.6,3.2-2.2c1.4-0.2,2.9-0.1,4.3,0c1.8,0.9,3.1,2.6,4.7,3.8c-1.4-2.3-4-4.5-6.9-4.2
		c-2.3-0.1-4.5,1.1-6,2.8c-0.3,0.4-0.6,0.8-0.9,1.2c0.4-0.2,1-0.7,1.4-0.3c-0.8,0.8-1.6,1.8-1.9,3c0.4-0.3,1.1-0.9,1.5-1.2
		c-0.3,0.7-0.7,1.3-1,2c-0.2-0.1-0.5-0.2-0.6-0.3c0.5,1.4-0.7,3.2,0.9,4.1c-0.9,2.6,1.1,6.6,4.2,5.8c0.8-1,2-1.2,3.1-1.3
		c1.3-0.9,3.4-1.7,2.9-3.6c0-0.6-0.7-1.4,0.1-1.7c4-0.3,8-1.2,12-1.6c-0.2,0.3-0.5,0.8-0.6,1c-2.2,0.1-4.4,0.7-6.5,1.3
		c0.1,0.3,0.2,1,0.2,1.3c1.8-0.2,3.6-0.7,5.4-0.9c0-0.3-0.1-0.9-0.1-1.2c0.7-0.6,1.1,0.3,0.9,1c0.2,0,0.7-0.1,1-0.1
		c-0.1-0.8-0.2-1.5-0.2-2.3c0.5-0.2,1-0.3,1.5-0.4c-0.1-0.1-0.2-0.2-0.2-0.2C138.5,95.8,138,95.9,137.5,96z M118.5,84.7
		c-4.9,0.6-8.4,4.9-9.7,9.4c0.3-1.8,0.8-3.5,1.7-5c-0.1-1.2,0.8-2.2,1.5-3.1c1.6-1.9,3.8-3.2,6.1-4c0.4,0.3,0.9,0.7,1.3,1
		c-3.2,0.4-6.3,2.1-8.1,4.8c1.1-0.6,1.8-1.7,2.9-2.4c2.1-1.5,4.7-2.1,7.3-1.8c0.5,0,1,0.3,1.3,0.7C121.5,85.3,119.9,84.4,118.5,84.7
		z M115.9,102.2c-0.9-1.6-0.2-3.4,0.3-5c0.8-0.9,1.9-1.6,3.2-1c0.3,0.2,0.3,0.6,0.1,0.9c-1.5-0.8-3,0.7-3,2.2c0,1.1-0.3,2.3,0.4,3.2
		c0.6,1.1,1.9,1.5,3.1,1.2C118.8,105.4,116.3,103.8,115.9,102.2z M120.5,103.1c-1.2,0.1-2.8,0.1-3.3-1.3c-0.4-1.5-0.7-3.7,0.9-4.6
		c1,0.2,2.1-0.1,3,0.3c-0.3,0.2-0.9,0.7-1.2,0.9c0.3,1.2,0.3,2.4,0,3.6l0.6-0.1C120.5,102.2,120.5,102.8,120.5,103.1z M120.6,102.6
		c0.1-0.3,0.2-0.7,0.3-1l-0.7,0.2c0.2-1.1,0.2-2.2,0-3.3l0.4,0c0.3-0.5,0.8-1,1.3-1.4c0.2,0.3,0.5,0.5,0.7,0.8
		c-1.4,0.4-1.6,2.3-1,3.4c0.2,0.6,1.2,0.7,1.3,1.4C122.1,103,121.3,102.8,120.6,102.6z M124.8,100.3c-0.2,0.8-0.6,1.9-1.7,1.7
		c-1.5-0.5-1.4-2.5-0.8-3.6c0.7-0.8,1.5-0.3,2.1,0.3c0.2,0.1,0.6,0.4,0.8,0.5C125.2,99.7,125.1,100,124.8,100.3z M124.4,98.2
		c-0.8-0.2-1.3-0.8-1.9-1.3c-0.7,0.1-1.5,0.2-2.2,0.3l0.1-0.6c-0.5-1.1-1.8-0.9-2.8-0.9c-1.1,0.4-1.7,1.4-2.2,2.4
		c-1.1-0.1-0.4-1.3-0.3-1.9c0.5-1.6,1.4-3.1,2.8-4c1.1-0.7,2.5-0.8,3.8-1l0-0.3c-1.9-0.2-3.7,0.6-5.3,1.6l-0.1-0.6
		c1.9-1.6,4.5-2.1,6.8-1.1c-0.5,0.4-0.9,0.9-1,1.6l-0.4-0.8l-0.6-0.1c0,0.1-0.1,0.4-0.1,0.5c0.8,0.6,1.7,1,2.3,1.8
		c-0.2,1.1-1.4,1.6-2.1,2.4c0.9-0.7,2.4-1.3,2.4-2.6c-0.3-0.5-0.7-0.9-1.2-1.1c0.2-0.3,0.4-0.5,0.6-0.8c0.7,1.9,0.6,0.2,0.8-0.3
		c1.7,1.7,3.2,3.8,3.4,6.3C126.4,97.7,125.3,97.6,124.4,98.2z M135.2,92.8c0.8,1,1.1,2.3,1.4,3.6C135.2,95.9,135.6,94,135.2,92.8z"
		/>
	<path class="st0" d="M92.3,93.6c0.2,0.3,0.5,0.6,0.7,0.9c0.1-3.3,1-6.5,1.9-9.7c0.4-1.3,1.2-2.4,1.3-3.7c-0.8,2-1.8,4-2.5,6.1
		C93.2,89.3,92.7,91.4,92.3,93.6z"/>
	<path class="st0" d="M49.4,83.3c-1.5,1.2-1.1,3.3-1.5,4.9c0.4,1.2,0.1,2.6,0.6,3.8c0.4,1.2,1.2,2.8,2.7,2.4c-0.1-0.3-0.2-0.7-0.2-1
		c-0.3,0-1.1,0-1.4,0c-0.3-0.8-0.6-1.6-1-2.3c0.8-0.6,1.6-1.2,2.4-1.9c-0.4,0-1.2,0-1.6,0c0.4-1.3,0.5-2.6,0.6-3.9
		c0.2,0,0.6,0.1,0.8,0.2c0-0.4,0.1-1.3,0.1-1.7c0.6,0.4,0.9,1,0.8,1.7c0.1,0,0.4,0,0.5,0C51.9,84.4,50.9,82.6,49.4,83.3z"/>
	<path class="st0" d="M53.8,88.5c-0.6,0.9-0.5,2.1-0.6,3.2C54.3,91,55.2,89.5,53.8,88.5z"/>
	<path class="st0" d="M228.9,91.8c-1.1-0.6-1.7-1.7-2.7-2.4c0.9,1.5,2.8,3.8,4.7,2.4C230.2,91.8,229.5,91.8,228.9,91.8z"/>
	<path class="st0" d="M122.2,93.6c-0.5-0.6-1.3-0.7-2-0.7c0.2,0.2,0.5,0.6,0.6,0.8c-0.1,0.4-0.2,1.1-0.2,1.5
		C121.3,94.8,121.8,94.2,122.2,93.6z"/>
	<path class="st0" d="M92.1,94.2c-0.1,3.6-0.3,7.2-0.1,10.8c0.1,0.1,0.4,0.2,0.5,0.2c0.1-0.2,0.2-0.6,0.2-0.8
		c-0.3-3.1-0.3-6.3,0-9.4C92.6,94.8,92.4,94.5,92.1,94.2z"/>
	<path class="st0" d="M129.7,98.8c-0.7,0.2-1.4,0.4-2.1,0.5c0,0.3,0,0.8,0,1.1c0.7-0.1,1.4-0.1,2.1-0.2
		C129.7,99.7,129.7,99.3,129.7,98.8z"/>
	<path class="st0" d="M137.7,99.1c-1,0-0.6,0.9-0.7,1.5c0.4,0.2,0.8,0.5,1.2,0.7C138,100.6,138.5,99.5,137.7,99.1z"/>
	<path class="st0" d="M123.5,118.7c2.3-0.3,4.2-1.9,5.8-3.5c3.2-4,4.7-9.2,4.8-14.2c0.7,0.2,1.4,0.3,2.1,0.4c0-0.5,0-1.4,0.1-1.9
		c-0.9,0.2-1.7,0.4-2.6,0.6c0.3,3.8-0.6,7.7-2.2,11.1C129.9,114.6,127.1,117.5,123.5,118.7z"/>
	<path class="st0" d="M121.5,117.7c3.5-0.4,6.5-2.6,8.3-5.5c2.3-3.6,3.2-7.8,3.3-12c-0.2,0.1-0.6,0.2-0.9,0.3
		c-0.1,3.9-0.9,7.9-3,11.2c-1.7,2.8-4.5,5-7.8,5.4c-2.4,0.4-4.7-0.6-6.8-1.8c0.1,0.2,0.2,0.5,0.3,0.6
		C116.9,117.1,119.2,118,121.5,117.7z"/>
	<path class="st0" d="M109.1,104.7c-0.8,0.4-0.5,1.4-0.3,2c0.9,2.8,2.4,5.4,4.4,7.6c0.4,0.4,0.8,1.1,1.5,1c-0.4-0.4-0.8-0.9-1.2-1.3
		c-0.1,0-0.2-0.1-0.2-0.2c0-0.1-0.1-0.3-0.2-0.4l0.2,0.1l-0.1,0.3l0.2,0l0,0.2c0.5,0.1,1,0.3,1.5,0.6c2.2,1.5,5.1,1.9,7.6,1
		c1.9-0.5,3.7-1.6,5-3.1c0.3-0.3,0.5-0.7,0.5-1.1c-1.2,1.6-2.8,2.7-4.6,3.6c-0.9,0.2-1.8,0.4-2.8,0.5c0.3-0.7,0.4-1.6,1.1-1.9
		c1.4-0.6,3.1-0.5,4.4-1.6c1.4-0.9,2.3-2.4,3.3-3.7c-0.1,1.2-0.8,2.1-1.5,3c1.1-0.6,1.7-1.9,1.5-3.1c0.2,0,0.5,0,0.6,0l-0.8-0.1
		c0.3-0.6,0.6-1.2,0.9-1.8c0.7-1.9,0.8-4,0.9-6c-0.2,0.2-0.5,0.5-0.6,0.6c-0.2,2.6-0.7,5.2-2,7.5c-1.2,2.3-3.4,4.1-5.9,4.4
		c-4.3,0.4-7.2-3.6-8.9-7.1c-1.6,0.1-3.3-0.4-4.4-1.5c0.7,3.5,2.5,6.9,5.2,9.3C111.6,111.8,109.7,108.2,109.1,104.7z"/>
	<path class="st0" d="M123.6,109.2c-1.8,1.2-4.4,1.1-6-0.4c-0.2,0.2-0.4,0.4-0.6,0.6c1.2,0.8,2.5,1.9,4,2c1.7,0.2,3.4-0.5,4.8-1.5
		c2.6-2.2,3.6-5.5,4-8.8c-0.7,0.2-1.4,0.4-2.2,0.5C127.1,104.5,126.2,107.6,123.6,109.2z"/>
	<path class="st0" d="M116.9,107.1c-0.4-0.1-0.8-0.2-1.2-0.2c-0.3-0.5-0.7-1-1.1-1.4c0.4,1.5,1.4,2.7,2.3,3.9
		c0.2-0.8-0.1-1.4-0.8-1.7c0.2-0.1,0.4-0.3,0.6-0.4c1.1,1.2,2.7,2.2,4.3,1.9c3.2-0.5,5.4-3.8,5.4-6.9c-1.2,0.8-1.1,2.4-1.6,3.6
		c-1.1-0.4-2-1.1-3-1.8c-0.7-0.1-1.2,0.6-1.7,1.1c0.5-0.3,1.1-0.6,1.6-1c0.8,0.9,1.8,1.5,2.8,2c-0.7,1.3-2,2-3.4,2.5
		c-0.5,0-1.5,0-2,0c0.5-0.8,1.1-1.6,1.5-2.5c-0.8-0.4-1.7-0.6-2.5-0.2c0.3,0.1,0.8,0.2,1,0.3c0.1,0.8-0.1,1.5-0.1,2.3
		C118.3,108.2,117.6,107.7,116.9,107.1z"/>
	<path class="st0" d="M74,102.8c-0.6,0.5-0.5,1.6,0.4,1.8C75.5,104.3,75.2,102.4,74,102.8z"/>
	<polygon class="st0" points="50.8,107.3 51,107.2 50.9,107 50.7,107.1 	"/>
	<path class="st0" d="M91,109.1c0.2-0.7,0-1.8-0.5-2.2C90.3,107.6,90.4,108.8,91,109.1z"/>
	<path class="st0" d="M52.4,109.1c-0.1-0.9-0.8-1.6-1.6-1.8C51,108.1,51.6,108.8,52.4,109.1z"/>
	<path class="st0" d="M109.1,110.3c2.1,5,6.2,9.6,11.7,10.8c1.2,0.3,2.3-0.7,3.5-0.5c0-0.2-0.1-0.5-0.2-0.7c0.4-0.1,1.3-0.2,1.8-0.2
		c0,0.2,0.1,0.6,0.1,0.8c0-0.2,0-0.6-0.1-0.8c0.7-0.3,1.4-0.6,2-1.1c-1.2,0.7-2.6,1.1-4,1.4l0.1,0.5c-1.1,0.2-2.2,0.4-3.3,0.2
		c-3.7-1-6.7-3.6-8.7-6.8c-1.3-2-2.6-4.1-3-6.5c-0.4-0.1-0.7-0.1-1.1-0.2C108.5,108.1,108.5,109.3,109.1,110.3z"/>
	<path class="st0" d="M212.3,119.4l0.2,0.3c-1.4,0.7-2.9,0.9-4.4,1c-7.2,2.2-14.2,4.9-20.8,8.4c-2.9,1.4-5.7,3.1-8.7,4.3
		c-2.9,1.3-5.9,2.5-8.7,4.1c-0.8,0.3-1.7,0.6-2.5,1c2.5-0.5,4.8-1.4,7.1-2.5c-2,1.7-4.5,2.8-7,3.7c-2,0.8-3.9,1.8-6,2.4
		c1.2-0.9,2.4-1.7,3.7-2.3l0-0.1c-6.9,2.6-13.7,5.6-20.7,8c-8.9,3.2-5.8-1.3-14.4,2.6h10.1c4.8-2,2.3-0.5,7.6-2.4
		c-2.3,1.6-2.4,1-4.8,2.4h17.4c2.8-1.2,2.9-3.1,5.6-4.4c-2.1,1.3-1.2,3.6-3.6,4.4h29.3c3.3-1.9,6.3-1.1,9.8-2.6
		c2-0.9,3.5,0.6,5.4-0.4c2.9-1.5,6.5-5.5,9.4-6.9c1.7-0.7,3.2-1.7,5.1-1.9c-0.7,0.8-3.2,2.6-2.3,2.1c0.4-0.3-8.4,7.7-11.2,9.8
		l14.2,0c8.2-6.5,9.3-5.3,17.6-11.6v-15.8c-2.6,1.4-5.4,2.6-8,4c2.6-1.9,5.4-3.3,8-5V112c-2.7,1-5.3,2.2-8.1,3.2
		c2.6-1.6,5.2-3.1,8.1-4.2v-0.8c-3.5,1.5-6.9,3.1-10.6,4.2c3.4-1.9,6.8-3.8,10.6-5.1v-0.9c-8.5,3.4-17,6.9-25.4,10.5
		C213.5,119.3,212.9,119.4,212.3,119.4z M165.8,143.2c-4.5,2.4-9.5,3.6-14.2,5.4c-0.3,0-0.6,0.1-0.9,0.1c5.5-2.6,10.6-5.8,16.1-8.4
		c0.6-0.5,1.3,0.4,1.2,1C167.6,142.1,166.7,142.7,165.8,143.2z M179.2,134.5c-0.9,0.3-1.8,0.6-2.8,0.8c0.3-0.4,0.6-0.7,1-0.8
		c7.7-3.2,15.3-6.5,22.9-9.7c2.7-1.1,5.3-2.4,8.1-3.3c-3.6,2.8-8.1,4.1-12.3,5.7c-1.4,0.6-3,0.8-4.2,1.7
		C188.4,132,183.6,133.1,179.2,134.5z M222.4,123.4c0.4-0.1,0.9-0.2,1.3-0.3c-3.1,1.5-6.3,2.9-9.3,4.7c-5.5,2.8-11,5.6-16.5,8.4
		c-1.8,1.1-3.8,1.8-5.9,2.2c3.9-2,7.5-4.4,11.4-6.5c1.1-0.6,2.5-0.4,3.4-1.2c1.4-1.1,2.8-2.2,4.6-2.6c3.1-1.7,6.5-2.9,9.9-4.2
		C221.7,123.7,222,123.5,222.4,123.4z"/>
	<polygon class="st0" points="50.2,111.3 50.2,111.5 50.4,111.5 50.4,111.3 	"/>
	<polygon class="st0" points="50.4,111.5 50.6,111.7 50.7,111.5 50.5,111.4 	"/>
	<path class="st0" d="M230.2,150.2c0,0,6.2-4.2,9.3-6.4V142c-4,2.8-12,8.2-12,8.2H230.2z"/>
	<path class="st0" d="M233.8,150.2c1.9-1.3,3.8-2.7,5.7-3.9v-1.6c-2.8,1.8-5.6,3.7-8.3,5.5L233.8,150.2z"/>
	<path class="st0" d="M236.9,150.2h2.6v-1.8C239.6,148.4,236.9,150.2,236.9,150.2z"/>
</g>
</svg>
