<?xml version="1.0" encoding="utf-8"?>
<!-- Generator: Adobe Illustrator 24.0.2, SVG Export Plug-In . SVG Version: 6.00 Build 0)  -->
<svg version="1.1" id="Слой_1" xmlns="http://www.w3.org/2000/svg" xmlns:xlink="http://www.w3.org/1999/xlink" x="0px" y="0px"
	 viewBox="0 0 238.1 150.2" style="enable-background:new 0 0 238.1 150.2;" xml:space="preserve">
<style type="text/css">
	.st0{fill-rule:evenodd;clip-rule:evenodd;fill:#36362F;}
	.st1{fill:#36362F;}
</style>
<g>
	<path class="st0" d="M161.2,134.9c16,0,30.9-6.2,42.3-17.5S221,91.1,221,75.1s-6.2-30.9-17.5-42.3c-11.3-11.3-26.3-17.5-42.3-17.5
		c-33,0-59.8,26.8-59.8,59.8c0,16,6.2,30.9,17.5,42.3S145.2,134.9,161.2,134.9z M120.4,34.3c-10.9,10.9-16.9,25.4-16.9,40.8
		s6,29.9,16.9,40.8c10.9,10.9,25.4,16.9,40.8,16.9c31.8,0,57.7-25.9,57.7-57.7c0-15.4-6-29.9-16.9-40.8
		c-10.9-10.9-25.4-16.9-40.8-16.9S131.3,23.4,120.4,34.3z M105.9,75.1c0-30.6,24.7-55.3,55.3-55.3s55.3,24.7,55.3,55.3
		s-24.7,55.3-55.3,55.3S105.9,105.7,105.9,75.1z M163,37.4l3.8-10.1v10.1h2.9V22.8h-4.4l-3.9,10.3l-3.9-10.3h-4.4v14.6h2.9V27.3
		l3.8,10.1H163z M135.2,41.4c-1.1-1.1-3-1.5-4.7-0.5c0.3-0.8,0.2-1.7,0-2.2c-0.7-1.3-0.9-1.5-1.5-2l-0.1-0.1c-2-1.6-4-0.2-5.5,1.5
		l-7.1,8.5l11.1,9.4l7.5-9C136.7,45.2,137.1,43.2,135.2,41.4z M196.7,51.2l5.5-7.8l-2.4-3l-8.7,3.8l5.7-7.5l-2.3-2.8l-9.1,11.7
		l2.6,3.2l8.6-3.6l0,0l-5.3,7.7l2.6,3.3l13.4-6.4l-2.3-2.8L196.7,51.2z M125.9,75.1c0,19.5,15.9,35.3,35.3,35.3
		c19.5,0,35.3-15.9,35.3-35.3c0-19.5-15.9-35.3-35.3-35.3C141.7,39.8,125.9,55.6,125.9,75.1z M128.1,75.1h33.1v33.1
		c18.3,0,33.1-14.8,33.1-33.1h-33.1v-33C142.9,42.1,128.1,56.8,128.1,75.1z"/>
	<path class="st1" d="M125.1,40.4c0.5-0.6,1.6-0.6,2.3,0c0.8,0.7,0.8,1.6,0.2,2.2l-4.3,5.1l-2.6-2.2L125.1,40.4z"/>
	<path class="st1" d="M132.6,46.4l-4.5,5.3l-2.8-2.3l4.5-5.3c0.5-0.6,1.6-0.8,2.4-0.1C133,44.5,133.2,45.7,132.6,46.4z"/>
</g>
</svg>
