<?xml version="1.0" encoding="utf-8"?>
<!-- Generator: Adobe Illustrator 26.0.3, SVG Export Plug-In . SVG Version: 6.00 Build 0)  -->
<svg version="1.0" id="Слой_1" xmlns="http://www.w3.org/2000/svg" xmlns:xlink="http://www.w3.org/1999/xlink" x="0px" y="0px"
	 viewBox="0 0 238.1 150.2" style="enable-background:new 0 0 238.1 150.2;" xml:space="preserve">
<style type="text/css">
	.st0{fill:none;}
</style>
<g>
	<path d="M39.3,113.6c-0.2-0.8-0.5-1.5-0.8-2.2c-0.2,0-0.3,0.1-0.5,0.3c0.3,1.1,0.5,2.2,1.1,3.2C39.2,114.5,39.5,114,39.3,113.6z"/>
	<path d="M146.3,87c-0.5,0-1.1,0-1.6,0c0,0.2-0.1,0.5-0.1,0.6C145.2,87.5,146,87.7,146.3,87z"/>
	<path d="M219.7,87.2c0-0.1-0.1-0.2-0.2-0.3c0,0-0.2,0.1-0.3,0.2C219.3,87.3,219.5,87.3,219.7,87.2z"/>
	<path d="M223.1,89c0.8-0.4,1.7-0.6,2.6-0.7l0.1-0.3C224.9,87.7,223.6,88.1,223.1,89z"/>
	<path d="M39.1,115.5L39.1,115.5L39.1,115.5L39.1,115.5z"/>
	<path d="M39,115.6L39,115.6L39,115.6C39,115.5,39,115.5,39,115.6z"/>
	<path d="M118.2,93.5c0.7,1.4,1.5,2.8,2.3,4.2c0.2,0,0.4-0.1,0.5-0.2c0-0.8,0.3-1.5,0.5-2.2c0.4-2.7,0.4-5.5,1.3-8.1
		c0.2-0.3-0.3-0.5-0.5-0.6c-1.5-0.7-3.2-1-4.8-0.7c-0.1,1.4,0.2,2.8,0.2,4.1C117.8,91.2,117.5,92.5,118.2,93.5z"/>
	<path d="M125.6,90.3c-0.6-0.1-1.3-0.2-1.9-0.3c-0.1,1.6-0.3,3.1-0.4,4.6c0.6-0.2,1.3-0.1,1.8-0.4C125.3,92.9,125.4,91.6,125.6,90.3
		z"/>
	<path d="M123.2,95.4c1-0.3,2-0.4,2.8-1c-0.9,0.1-1.8,0.3-2.7,0.4C123.3,95,123.2,95.3,123.2,95.4z"/>
	<path d="M114.3,101.6c1.4-0.1,2.8-0.5,4.1-0.9c-0.5-1-1.1-1.9-1.6-2.8s-0.9-1.8-1.5-2.6c-1.3-1.2-2.5-2.5-3.8-3.8
		c-1.1,1.9-1.8,4.1-2.2,6.3c-0.2,0.7,0.4,1.3,1,1.9C111.6,100.4,113,100.9,114.3,101.6z"/>
	<path d="M111,106c0.4-0.8,1.2-1.3,1.3-2.2c-0.9-0.7-1.8-1.2-2.7-1.9c-0.3-0.1-0.7-0.5-0.9-0.2c0,2.1,0.1,4.3,0.5,6.4
		C110,107.6,110.4,106.7,111,106z"/>
	<path d="M109.9,113.2h0.2c-0.5-1.1-0.8-2.1-1.3-3.1c0.4-0.4,0.8-0.7,1.2-1.1c-0.5,0.1-1,0.3-1.4,0.6
		C109,110.8,109.3,112.1,109.9,113.2z"/>
	<path d="M125.5,106.7c0.4,0.1,0.3,0.3,0.6,0.4c0.7-0.1,1.8-0.1,2.5-0.2c-0.4-0.3-0.7-0.6-1.2-0.7
		C126.8,106.3,126.1,106.4,125.5,106.7z"/>
	<path d="M122.8,81.2c2.1,1.1,3.7,2.9,5,4.8c-0.1-0.5-0.2-0.9-0.4-1.3c-1-2.5-2-5-3.8-7c-3.2,0-6.1,1.4-8.6,3
		c0.6-0.1,1.3-0.4,1.9-0.5C118.9,79.8,121,80.2,122.8,81.2z"/>
	<path d="M113.5,117.7c0.1-0.2,0.1-0.4,0.2-0.6c-0.4-0.3-0.7-0.7-1-1c-1-1.4-1.8-2.9-2.4-4.4c-0.2-0.5-0.3-1.3-1-1.3
		c0,0.7,0.3,1.3,0.6,2c0.3,0.7,0.7,1.5,1.1,2.2l0,0C111.8,115.7,112.6,116.7,113.5,117.7z"/>
	<path d="M116.9,109.4c0.4-1.4,0.8-2.7,1.3-4.1c0-0.2,0.1-0.4,0.1-0.6c-1.6,0.3-3.2,0.7-4.8,1c-1.1,1.2-2.2,2.3-3.3,3.5
		c-0.4,0.3-0.1,0.8,0,1.3c0.8,1.9,1.7,4,3.3,5.4c0.1-0.1,0.2-0.3,0.2-0.4c0.1-0.5,0.3-0.9,0.6-1.4
		C115.1,112.5,116.1,111,116.9,109.4z"/>
	<path d="M108.3,97.6c-0.1-0.1-0.2-0.1-0.3-0.1c-0.3,0.9-0.3,2-0.4,3h0.1h0.3C108,99.5,108.1,98.6,108.3,97.6z"/>
	<path d="M195.5,92.1L195.5,92.1L195.5,92.1z"/>
	<path d="M117.4,114.7c-0.5,0.6-0.9,1.3-1.3,1.9c-0.1,0.6,0.1,1.3,0.2,1.9c0.5,0.2,1.1,0.3,1.7,0.3
		C117.9,117.4,117.7,116.1,117.4,114.7z"/>
	<path d="M206,59.4c-0.4-0.3-0.8-0.7-1.4-0.9c-0.8-0.5-1.6-1-2.4-1.4c-1.6-0.9-3.2-1.7-4.9-2.5c-0.3-0.1-0.6-0.4-0.9-0.3
		c0,0.1,0.1,0.2,0.2,0.3c2.4,1,4.7,2.2,6.9,3.5c0.6,0.3,1.1,0.7,1.7,1c-0.2,0.1-0.4,0.2-0.6,0.3c0.4,0.1,0.9,0.2,1.3,0.3
		C206,59.7,206,59.5,206,59.4z"/>
	<path d="M115.8,87.3C115.8,87.3,115.9,87.3,115.8,87.3C115.9,87.3,115.8,87.3,115.8,87.3z"/>
	<path d="M193.1,93.1c0.4,0,1.1-0.1,1.2,0.5c0.5,1.3,0.4,2.9,0.1,4.2c-0.4,0.4-0.9,0.3-1.3,0.3c0.5,0.3,1.2,0.1,1.5-0.4
		c0.3-1.5,0.4-3.3-0.4-4.7c-1.6,0-3.2-0.1-4.8,0.1c-0.1,0.1-0.1,0.1-0.2,0.2C190.5,93,191.8,93.1,193.1,93.1z"/>
	<path d="M189.7,98.3c0-0.1,0.1-0.2,0.1-0.3c-0.2,0-0.5,0.1-0.6,0.1c-0.2-0.2-0.4-0.4-0.4-0.7c-0.1-1.4-0.3-2.8,0.3-4
		c-0.8,1.1-0.5,2.6-0.4,3.9C188.6,97.9,189.1,98.3,189.7,98.3z"/>
	<path d="M189.2,93.3c0,0,0,0.1-0.1,0.1C189.2,93.4,189.2,93.3,189.2,93.3L189.2,93.3z"/>
	<path d="M48.8,63.3c-0.1,0-0.4,0.1-0.5,0.1c-0.3,0.2-0.6,0.5-0.8,0.8c0.2,0.2,0.4,0.5,0.7,0.7c0.2,0.4,0.1,1,0.4,1.3
		c0.7,0.8,1.8,0.7,2.8,0.6c1.2-0.2,2.4-0.9,2.7-2.1c0.2-0.7,0-1.5-0.5-2.1C52.2,61.6,49.9,61.9,48.8,63.3z M52.1,63.9
		c0.1,0.1,0.2,0.2,0.2,0.2c-1.1-0.1-2.2,0-3.3-0.1l-0.2-0.3C49.9,63.7,51,63.7,52.1,63.9z M52.1,66.3c-1,0.2-2,0.4-2.9,0.1
		c-0.3-0.4-0.7-0.7-0.5-1.2c1.3,0.3,2.7,0.5,4,0.2c0.2,0,0.5-0.1,0.7-0.1C53.1,65.6,52.7,66,52.1,66.3z M49.6,64.7
		c-0.6,0-1.1-0.2-1.6-0.4c0.1-0.2,0.3-0.3,0.4-0.5c0.3,0.1,0.5,0.3,0.8,0.4c1.2,0.1,2.4,0,3.6,0c0.2,0,0.4,0.2,0.6,0.3
		C52.2,65.1,50.9,64.8,49.6,64.7z M52.7,62.7c0.6,0.3,1.1,0.9,1,1.6c-1-1.3-2.8-1-4.3-1.1C50.3,62.4,51.6,62.3,52.7,62.7z"/>
	<path d="M76.7,62.9C75.6,61.4,73,61.5,72,63c-0.4,0.5-1,0.7-1.4,1.2c0,0.1,0,0.4,0,0.6c0.2,0.2,0.4,0.4,0.6,0.6
		c-0.2,1,0.2,2.2,1.3,2.5c1.1,0.3,2.3,0.2,3.2-0.5C77.1,66.5,77.6,64.4,76.7,62.9z M76,62.7c0.2,0.3,0.3,0.5,0.5,0.8
		c0.1,0.4,0.1,0.7,0.1,1.1c-1-1.2-2.8-1.2-4.3-1.2C73,62.1,74.8,62,76,62.7z M75.7,64.4c-0.9,0-1.8,0-2.7,0.1
		c-0.5,0-1.1-0.1-1.5-0.5C72.9,63.8,74.4,63.7,75.7,64.4z M71,64.2c0.6-0.1,1.1,0.3,1.6,0.3c1.1,0,2.3,0,3.4,0.1
		c0.2,0.6-0.4,0.9-0.9,0.9c-1.2,0.1-2.4,0-3.5-0.4C71.4,65,70.8,64.8,71,64.2z M71.9,66.8c-0.3-0.3-0.2-0.8-0.3-1.3
		c1.5,0.4,3.2,0.8,4.7,0.1c0.1,0,0.3-0.1,0.4-0.1c-0.6,0.9-1.3,1.7-2.3,1.9C73.5,67.6,72.4,67.7,71.9,66.8z"/>
	<path d="M191.9,98c0,0.3,0.7,0.3,0.7,0C192.4,97.9,192.2,97.9,191.9,98z"/>
	<path d="M188.7,61.4c0.8,0.1,1.6,0.5,2.4,0.4c0.5,0,1.2-0.4,1.1-1c-0.4-0.8-1.3-1.1-2.1-1.4c-1-0.4-2.4-0.7-3.3,0.1
		c0,0.2,0,0.5,0,0.6C187.3,60.7,188,61.1,188.7,61.4z"/>
	<path d="M176.4,67.8L176.4,67.8L176.4,67.8z"/>
	<path d="M179.7,67.5c0.1,0.3,0.1,0.7,0.1,1c0-0.2,0-0.4,0-0.6c-0.1-0.7-0.2-1.5,0-2.2C179.5,66.3,179.6,66.9,179.7,67.5z"/>
	<path d="M206.2,80.6c-0.2,0-0.4,0-0.6,0C205.8,80.6,206,80.6,206.2,80.6z"/>
	<path d="M209.1,78.5c-0.5,0.5-1,1-1.5,1.6l0,0C208.2,79.6,208.6,79.1,209.1,78.5z"/>
	<path d="M204.4,64.8c-0.1,0-0.2,0-0.4,0C204.2,64.8,204.3,64.8,204.4,64.8L204.4,64.8z"/>
	<path d="M208.3,80.8L208.3,80.8L208.3,80.8L208.3,80.8z"/>
	<path d="M205,64.8L205,64.8c0.1,0,0.1,0,0.1,0H205z"/>
	<path d="M210.2,74.2c-0.3,1.3,0.1,2.8-0.9,3.9c0.1-1.3,0.6-2.5,0.5-3.8l-0.1,0.1c0,1.3-0.5,2.6-0.5,4l-0.1,0.1
		c0.1-0.1,0.3-0.3,0.4-0.4C210.3,77,210.2,75.5,210.2,74.2z"/>
	<path d="M210.2,69c-0.1,0-0.4,0-0.5,0c0.1,1.6-0.1,3.2-0.1,4.9l0.2,0.1h0.2c0.1-0.7,0-1.3,0-2h0.1c0.1,0.6-0.1,1.2,0.1,1.8h0.1
		c0.1-0.9,0.1-1.8,0.2-2.8C210,70.3,210.3,69.6,210.2,69z"/>
	<path d="M195.8,98.4C195.8,98.4,195.8,98.3,195.8,98.4"/>
	<path d="M117.8,83.9c0.8-0.1,2.7,0.2,3.5,0.4c-0.9-0.5-1.7-0.9-3.6-0.8c-2.3,0.2-4.2,1.6-5.7,3.2c-0.3,0.4-1.6,2.2-1.5,2.7
		c0.2-0.3,1.4-1.9,1.6-2.2C113.6,85.5,115.5,84.1,117.8,83.9z"/>
	<path d="M129,106.9c-0.2,0.7-0.2,1.5-0.5,2.3c0,0-0.1,0.1-0.2,0.1c0.1-0.8,0.3-1.5,0.4-2.2c-0.9,0.1-1.7,0.3-2.6,0.4
		c-0.2,0.3-0.5,0.7-0.3,1.1c0.5,1,0.7,2.1,1.1,3.2c0,0,0,0,0,0c-0.2,0.4-0.3,0.8-0.5,1.3c-0.5-0.6-1.2-1.3-1.3-2.1
		c-0.4-1.4-0.9-2.8-1.3-4.2c-0.1-0.3,0.3-0.5,0.5-0.6c0.9-0.2,1.8-0.3,2.7-0.5c0.5,0.1,0.9,0.6,1.4,0.8c0.3,0.2,0.5-0.3,0.3-0.5
		c-0.3-0.3-0.8-0.7-1.1-1c-0.6,0-0.7-0.1-1.3,0l-0.6,0.1c-0.7,0.1-1.5,0.2-2.2,0.2c-0.7-0.9-1.4-1.8-2.1-2.6c-0.1-0.6-0.1-1.3,0-1.9
		c0.4-1.3,0.8-2.5,1.2-3.8c1-0.8,2.2-1.3,3.3-2c0,0-2.1,0.6-3.1,0.9c0.2-1.9,0.2-3.8,0.4-5.7c0.3-0.9,0.7-1.7,1.1-2.5
		c0.3,0,0.4,0.3,0.6,0.5c1,1.3,1.9,2.7,2.5,4.2c0,0.2,0.1,0.5,0,0.7c-0.5,0.6-1,1.2-1.4,1.8h0.4v-0.1c0.6-0.2,0.8-0.9,1.4-1
		c0.1,0.2,0.1,0.4,0.2,0.6c0.3,1.1,0.6,2.1,0.8,3.2c0.2,0,0.4,0.1,0.5,0.1c-0.5-0.9-0.5-2-0.8-2.9c-0.7-2.8-2-5.6-3.9-7.8
		c-1.1-1.3-2.6-2.3-4.3-2.8c-0.8-0.2-1.6-0.3-2.4-0.2c-2.3,0.2-4.2,1.6-5.7,3.3c-0.3,0.3-0.5,0.6-0.7,1c-1.7,2.6-2.8,5.5-3.4,8.5
		c0,0,0,0.2,0,0.3h0.1l0.1-0.2l0.2-0.1c-0.2,1.2-0.4,2.4-0.4,3.6c0.2-0.1,0.5-0.1,0.7-0.1c0.2-1.4,0.1-2.8,0.5-4.2
		c0.4-1.8,1-3.6,1.9-5.3c-0.1-0.1-0.3-0.4-0.4-0.5c-1.1,2-1.7,4.2-2.3,6.4c-0.1,0-0.1,0.1-0.2,0.1c0.3-1.6,0.8-3.2,1.4-4.7
		c0.4-0.8,0.7-1.6,1.3-2.3c0.2,0.4,0.4,0.8,0.8,1.1c-0.1-0.6-0.3-1.1-0.5-1.6c0,0,0.1-0.2,0.2-0.2c0.3,0.8,0.5,1.6,0.8,2.3
		c1.3,1.7,3.2,2.9,4.1,4.9c0.9,1.6,1.9,3.1,2.6,4.7c-0.3,0.4-0.4,1-1,1c-1.5,0.2-2.9,0.6-4.4,0.7c-1.2-0.5-2.3-1.4-3.5-2
		c-0.7-0.4-1.7-0.1-2.5-0.1c-0.1,1.6-0.1,2.4,0.1,4v0.6c0.3,1.2,0.2,2.5,0.8,3.6h0.1c-0.5-2.4-0.7-4.7-0.7-7.2c0.5,0,1,0,1.5-0.1
		c1.1,0.8,2.3,1.6,3.4,2.4c0,0.3-0.1,0.6-0.3,0.8c-0.8,1-1.5,2.1-2.3,3.1c-0.2,0.2-0.4,0.4-0.6,0.5c0.4-0.2,0.8-0.4,1.1-0.8
		c0.8-0.9,1.6-1.8,2.4-2.8c0.2-0.3,0.4-0.6,0.7-0.6c1.5-0.2,3-0.4,4.5-0.8c0.4,0.3,0.8,0.8,0.6,1.3c-0.2,0.6-0.4,1.2-0.5,1.8
		c-0.4,1.6-0.9,3.2-1.5,4.7c-0.9,1.9-2,3.6-3,5.5c-0.1,0.2-0.1,0.5-0.2,0.7l-0.1,0.7c-1.1-0.8-2-2-2.6-3.2l-0.3-0.2
		c1.4,2.7,4.2,5.1,7.3,5.7c0.8,0,1.4-0.1,2.2-0.3c0,0,0,0,0,0c0,0,0,0,0,0c0,0,0.1,0,0.1,0c0,0,0,0,0,0c1.1-0.3,2.2-1.1,3.1-1.8
		c0.3-0.2,0.6-0.5,0.8-0.8c1.6-1.8,3.1-4.9,3.9-7.4c0.1-0.2,0.2-0.4,0.3-0.6l0.2,0c-0.2,0.6-0.5,1.1-0.6,1.7l0.3-0.2
		c0.4-1,0.6-2.1,0.8-3.1c0-0.3,0.2-0.6,0-0.9H129z M115.7,93.8c-1-0.4-1.7-1.3-2.7-1.9c-0.5-0.3-0.6-0.9-0.8-1.4
		c-0.1-0.6-0.5-1.1-0.5-1.7c1-1.5,2.3-2.5,3.7-3.4c0.1,0.7,0.3,1.3,0.4,1.9c0,0,0,0,0,0.1c0.1,0.4,0.1,0.8,0.1,1.2c0,1.5,0,3,0,4.5
		C116,93.4,115.8,93.6,115.7,93.8z M117.5,95.4c-0.2-0.4-0.6-0.9-0.6-1.4c-0.1-3,0.1-6-0.4-8.8c1.8-0.6,3.8-0.3,5.4,0.7
		c0.5,0.3,1,0.6,1.5,0.9c-1,2.7-1.1,5.7-1.5,8.5c-0.4,1.6-0.9,3.3-1.4,4.9c-0.1,0-0.3-0.1-0.4-0.1C119.3,98.5,118.4,96.9,117.5,95.4
		z M119.5,103.2c0.3,0.2,0.5,0.7,0.9,0.7c0.5,0,0.6-0.6,0.8-0.9c-0.1,0.4-0.3,0.9-0.8,0.9c-0.6,0.1-0.8-0.5-1.1-0.8
		c0-0.4-0.1-0.8,0-1.3C119.3,102.3,119.4,102.8,119.5,103.2z M119.3,101.5L119.3,101.5C119.3,101.5,119.3,101.5,119.3,101.5
		C119.3,101.5,119.3,101.5,119.3,101.5z M119.4,101.2c0-0.1,0.1-0.3,0.1-0.4c0.1-0.2,0.3-0.3,0.6-0.2c0.6,0.5,1.2,1.2,1,2.1
		c0-0.8-0.4-1.6-1.1-2C119.6,100.8,119.4,100.9,119.4,101.2z M117.9,119.8c-1.2-0.1-2.4-0.4-3.3-1.2c-0.3-0.8,0.2-1.6,0.2-2.4
		c0.1-1,0.8-1.7,1.3-2.5c0.4-0.7,0.9-1.4,1.4-2.1c0.3,0.9,0.3,1.9,0.5,2.8c0.3,1.8,0.4,3.7,0.9,5.5
		C118.5,119.9,118.3,119.8,117.9,119.8z M126,114.1c-0.1,0.3-0.2,0.6-0.4,0.8c-0.4,0.5-0.8,1-1.2,1.4c-0.5,0.7-1.1,1.3-1.8,1.8
		c0,0,0,0,0,0c-0.6,0.5-1.5,1.3-2.2,1.5c-0.1,0-0.1,0-0.1,0.1c-0.2,0.1-0.4,0.1-0.7,0.2c-0.2-2.4-0.7-4.9-1-7.3
		c0-0.8-0.4-1.6-0.1-2.3c0.4-1.4,0.8-2.8,1.3-4.2c0.1-0.4,0.1-0.8,0.1-1.2c0.3-0.2,0.6-0.6,1-0.6c0.5,0.7,1,1.3,1.5,2
		c0.5,0.5,0.6,1.2,0.9,1.8c0.4,1.3,0.9,2.6,1.4,3.9c0.5,0.7,0.9,1.2,1.5,1.8C126.1,113.8,126.1,114,126,114.1z"/>
	<path d="M117.8,119.7L117.8,119.7L117.8,119.7L117.8,119.7z"/>
	<path d="M38.9,92.6c-0.2,0.4-0.4,0.8-0.4,1.3C38.6,93.5,38.8,93,38.9,92.6L38.9,92.6z"/>
	<path d="M49,99.2c-0.5-3.3-1-6.9-3.1-9.7c-0.7-1-1.9-2-3.3-1.8c-1.1,0-1.9,1-2.7,1.7c0.1,0.1,0.2,0.2,0.3,0.3
		c0.7-1.1,2.2-2.2,3.6-1.5c1.8,0.7,2.7,2.6,3.4,4.3c0.8,2.2,1.3,4.6,1.5,7c0.4,3,0.2,6.1-0.2,9.1c-0.4,2.8-1.1,5.5-2.5,7.9
		c-0.8,1.3-2.1,2.6-3.7,2.4c-1.4-0.5-2.5-1.7-3.1-3.1c0-0.1-0.1-0.2-0.1-0.3l0,0l-0.1,0.1c0-0.1-0.1-0.2-0.2-0.5
		c-0.4-0.7-0.6-1.2-0.7-1.8c0.4,0.7,0.7,1.4,1,2.1c0.3-0.9,0.8-1.9,0.9-2.9c0.1-1.2,0.4-2.5,0.4-3.7c-0.8,0.1-1.5,0.4-2.3,0.5
		c0.4-0.9,1.6-0.9,2.2-1.5c1-1,1.8-2.1,2.8-3c0.4-0.3,0.4-0.9,0.5-1.4c-1.2-0.9-2.3-2-3.6-2.8c-0.8-0.2-1.8-0.1-2.8-0.4
		c0.1-0.4,0.1-0.7,0.2-1.1c0.2,0.3,0.5,0.6,0.7,0.9c0.7,0,1.5-0.1,2.2-0.3c-0.2-1.4-0.5-2.7-0.8-4.1c0-0.3-0.3-0.9-0.5-1.1
		c0,0.1,0,0.4,0,0.5c-0.1,0.4-0.1,0.8-0.2,1.2c0.1-0.3,0.2-0.7,0.3-1c0.3,1.4,0.6,2.9,0.9,4.3c-0.6,0.1-1.2,0.1-1.8,0.2
		c0-0.2,0-0.5,0-0.7c-0.2-0.2-0.3-0.2-0.5-0.4c0.1-0.9,0.3-1.8,0.4-2.7h-0.2c-0.1,0.3-0.1,0.5-0.2,0.8c0-0.8,0.2-1.5,0.4-2.2
		c-0.1-0.1-0.2-0.3-0.3-0.4c-1,3.8-1.4,7.8-1.1,11.7c0,1.1,0.3,2.2,0.2,3.4c0.1-0.1,0.2-0.3,0.3-0.4c-0.1-0.6-0.2-1.2,0-1.8
		c0.1,1.1,0.2,2.3,0.4,3.4c0,0.2,0.1,0.3,0.1,0.5c0.4-0.6,0.6-1.1,1-1.6c0.5-0.1,1-0.2,1.5-0.3c-0.1,0.5-0.1,1.1-0.2,1.6
		c-0.6,0.6-1.5,0.5-2.3,0.4c0.1,0.4,0.2,0.8,0.2,1.2c-0.4-0.9-0.6-1.9-0.5-2.9c-0.1,0-0.3,0-0.5,0c0.5,2.7,1.1,5.5,2.7,7.8
		c0.7,0.9,1.6,1.8,2.8,2c1.4,0.2,2.6-0.7,3.4-1.7c2.3-3.1,2.9-7.1,3.4-10.9C49.2,104.1,49.1,101.7,49,99.2z M38.1,100.8
		c0.9,0.1,1.9-0.4,2.6,0.4c0.8,0.6,1.6,1.3,2.4,2c0.3,0.2,0.4,0.7,0.2,0.9c-0.9,1-1.8,1.9-2.6,2.9c-0.7,0.7-1.6,1-2.5,1.4
		C38,105.9,37.7,103.3,38.1,100.8z M40,111.1c0,0.7-0.1,1.5-0.3,2.3c-0.4-0.6-0.6-1.3-0.8-2C39.3,111.3,39.6,111.2,40,111.1z"/>
	<path d="M41.4,97.7c0.6,0.7,1.4,1.3,2.1,1.9c0.1,0.6,0.2,1.2,0.3,1.8c-1-0.7-1.9-1.6-2.8-2.5c-0.6-1.9-1.1-3.9-1.8-5.8
		c-0.1,0-0.2,0.1-0.3,0.1c0.7,1.8,1.2,3.7,1.7,5.5c0.1,0.6,0.7,1,1.2,1.4c0.6,0.5,1.2,1,1.7,1.5c0.2,0.3,0.5,0,0.7-0.1
		c-0.3-0.9-0.3-1.9-0.5-2.9c-0.5-3.3-1.1-6.7-1.5-10c0.5,0.3,0.4,1,0.5,1.6c0.3,1.4,0.4,2.8,0.6,4.3c0,0.3,0.1,0.5,0.3,0.7
		c0.6-1.6,0.9-3.4,1.5-5c0.3,0.3,0.4,0.6,0.2,1c-0.5,1.6-1,3.1-1.4,4.7c-0.3,0.8,0.1,1.6,0.2,2.4c0.1,1.1,0.4,2.3,0.6,3.4
		c0.2,0.2,0.4,0.4,0.6,0.5c0.3,0,0.4-0.4,0.5-0.6c0.5-1,1-1.9,1.4-2.9c0.3-0.1,0.5-0.2,0.8-0.3c-0.2,0.5-0.7,0.8-0.9,1.2
		c-0.5,1-1,2-1.4,3.1c0.3,0.7,1,1.2,1.5,1.7c0.2,0.3,0.6,0.5,0.9,0.5c0,0.4,0,0.8,0,1.2c-0.8-0.9-1.5-1.8-2.2-2.7
		c-0.3,0-0.5,0-0.8,0.1c-0.1-0.6-0.2-1.3-0.8-1.5c0.3,0.4,0.6,0.9,0.7,1.5c-0.1,0.3-0.2,0.5-0.3,0.8c-0.1,0-0.3-0.2-0.4-0.2
		c-0.1-0.6-0.1-1.1,0-1.7c-0.4,0.5-0.2,1.1-0.2,1.7c0.2,0.1,0.3,0.3,0.5,0.4c0.3,0,0.4-0.4,0.6-0.5c-0.1,2.1-0.4,4.1-0.5,6.2
		c0.5,1.6,1.5,3.1,1.4,4.8h-0.3v-0.6c-0.1,0.1-0.2,0.3-0.3,0.4c0.1,0.4,0.2,0.8,0.1,1.2c-0.7,0.3-0.3-0.8-0.3-1.1
		c-0.1,0-0.3,0.1-0.4,0.1c0,0.1,0,0.4,0,0.6c-0.3,0-0.6-0.1-1-0.1c0-1.3,0.1-2.6,0.3-3.9c0.4,0.3,0.5,0.8,0.7,1.3
		c0.3,0.6,0.3,1.3,0,1.9c0.3-0.1,0.5-0.2,0.8-0.4c-0.3-1.1-0.6-2.2-1.2-3.2c-0.4-0.2-0.7,0.3-0.7,0.7h-0.2c0.1-2.2,0.4-4.3,0.4-6.5
		c-0.7,0.4-1,1.1-1.5,1.7s-1.1,1.2-1.5,2c-0.5,2.1-0.5,4.5-1.9,6.4l0,0c0.7,0.8,1.1,1.8,2,2.3c0.5,0.3,1.1,0.7,1.8,0.6
		s1.4-0.4,1.9-0.9c1.5-1.4,2.2-3.3,2.8-5.2c0.4-1.3,0.7-2.6,0.8-4c0.5-3.7,0.5-7.5-0.1-11.2c-0.4-2.7-1.1-5.5-2.9-7.7
		c-0.8-1-2.3-1.7-3.5-1c-1.3,0.6-1.9,2-2.7,3.1c0.2-0.6,0.6-1.1,0.9-1.6c-0.1-0.1-0.2-0.2-0.3-0.3c-0.7,1.4-1.5,2.8-1.9,4.4
		c0.1,0,0.3,0,0.4,0c0.1-0.6,0.3-1.2,0.6-1.8l0.2,0.1c0,0.1-0.1,0.2-0.1,0.3c0.1,0,0.3,0.1,0.4,0.1C40.1,94.3,40.7,96,41.4,97.7z
		 M41.4,113.3c0.2-0.7,0.3-1.4,0.4-2c0.2-1.2,1.1-2,1.9-2.9c-0.2,2-0.3,4.1-0.5,6.1c-0.1,0.9,0,1.7,0.1,2.6
		c-1.1,0.2-2.1-0.6-2.7-1.5C40.7,114.8,41.2,114.1,41.4,113.3z M43.3,118.1c-1.3,0.5-2.5-0.5-3.2-1.5c0.1-0.2,0.2-0.5,0.3-0.7
		c0.4,0.4,0.8,0.9,1.3,1.2c0.5,0.3,1.2,0.2,1.8,0.2C43.4,117.6,43.7,118.1,43.3,118.1z M47,112.6c-0.3-1.2-1.2-2.4-1-3.7
		s0.3-2.7,0.5-4l0.1-0.1c0.5,0.4,0.8,0.9,1.3,1.4c0.3,0.4,0.1,0.9,0.2,1.3C47.9,109.2,47.6,111,47,112.6z M48.2,104.6
		c-0.1,0-0.4-0.1-0.5-0.1c-0.5-0.5-1-1.1-1.4-1.7c0.7-0.1,1.3-0.3,1.9-0.5C48.2,103,48.2,103.8,48.2,104.6z M46.2,102.5
		c0.5-1.2,0.9-2.5,1.8-3.5c0.2,1,0.2,1.9,0.2,2.9C47.5,102.1,46.9,102.3,46.2,102.5z M46.6,92.6c0.4,0.8,0.6,1.7,0.8,2.7
		c0.2,0.9,0.5,1.8,0.5,2.7c-0.3,0.2-0.6,0.3-0.8,0.6c-0.3,0.5-0.5,1.1-0.8,1.6c-0.3-1.4-0.5-2.9-0.7-4.3
		C45.8,94.8,46.2,93.7,46.6,92.6z M43.7,94.4c-0.1-1.1-0.3-2.2-0.5-3.2c-0.2-0.7,0.5-1.1,0.8-1.6c0.4,0,0.7,0.1,1,0.2
		C44.5,91.3,44,92.8,43.7,94.4z M44.1,89c-0.2,0.5-0.5,0.9-1,1.2c-0.1-0.5-0.1-1-0.1-1.5C43.4,88.7,43.7,88.8,44.1,89z M42.2,89.8
		c0.5,3.1,1,6.1,1.4,9.2c-0.8-0.6-1.8-1.1-2.1-2.1c-0.5-1.4-1.1-2.6-1.5-4C40.1,91.5,41.1,90.5,42.2,89.8z"/>
	<path d="M38.5,93.9c-0.2,0.5-0.3,1-0.4,1.5h0.2c0.1-0.4,0.2-0.8,0.4-1.1c0,0,0.1,0.1,0.2,0.1C38.7,94.3,38.6,94.1,38.5,93.9
		L38.5,93.9z"/>
	<path d="M189.8,98.3c0.7,0,1.3,0,2,0V98c-0.6,0-1.3,0-1.9,0L189.8,98.3z"/>
	<path d="M217.8,97.1c-0.2,0-0.4,0-0.6,0"/>
	<path d="M220.2,92.4C220.2,92.4,220.3,92.4,220.2,92.4"/>
	<line class="st0" x1="195.5" y1="92.1" x2="195.5" y2="92.1"/>
	<path d="M151.9,92c-0.2,0.2-0.3,0.3-0.5,0.5C151.6,92.4,151.7,92.2,151.9,92z"/>
	<path d="M149.3,96.2C149.3,96.1,149.3,96.1,149.3,96.2c-0.2-0.2-0.4-0.5-0.6-0.7l0,0C148.8,95.7,149.1,96,149.3,96.2z"/>
	<path d="M157.3,96.8L157.3,96.8L157.3,96.8L157.3,96.8z"/>
	<path d="M137.7,98.8L137.7,98.8"/>
	<path d="M148.5,95.4L148.5,95.4L148.5,95.4L148.5,95.4z"/>
	<path d="M149.2,98C149.2,97.9,149.2,97.9,149.2,98c-0.2-0.3-0.5-0.5-0.8-0.7l0,0C148.7,97.5,148.9,97.8,149.2,98z"/>
	<path d="M144.3,100.1L144.3,100.1c0.5,0.1,1.1,0.1,1.6,0.1c0.1-0.2,0.2-0.4,0.3-0.5C145.7,100.2,145,100.2,144.3,100.1z"/>
	<path d="M148.7,93.8c0.2,0.2,0.3,0.4,0.4,0.6c0,0,0,0,0.1,0C149,94.2,148.9,94,148.7,93.8L148.7,93.8z"/>
	<path d="M92.7,28.8c0,0-0.6,0.3-0.5,0.3c1.2,0.4,2.7,1.6,3.5,2.7c-0.3-0.4,0.7,0.4-1.2-1.9C93.9,29.3,93.5,29,92.7,28.8z"/>
	<path d="M184.9,53c-1.3-0.2-1.6-0.3-2.6-0.3c0,0,0,0.1,0,0.2c1.5,0.2,3,0.5,4.5,0.9c0.9,0.2,1.8,0.5,2.8,0.7
		c4.1,1.2,8.1,2.4,12.1,4c0.4,0.1,0.8,0.2,1.1,0.3c0.6,0.2,1.3,0.4,1.8,0.6c0.1-0.1,0.3-0.1,0.4-0.2c-1.5-0.4-3.1-1-4.5-1.5
		c-5.1-1.7-9.6-3.7-15-4.6L184.9,53z"/>
	<path d="M211.9,65.8c1.8-0.6,3.6-1.1,5.2-2.2l-0.3-0.3C215.2,64.3,211.7,65.1,211.9,65.8L211.9,65.8z"/>
	<path d="M146.3,99.6L146.3,99.6c0,0-0.1,0-0.1,0.1L146.3,99.6z"/>
	<path d="M201.3,96.8c-0.1-0.1-0.3-0.2-0.4-0.3C201,96.6,201.1,96.7,201.3,96.8L201.3,96.8z"/>
	<path d="M205.7,92.8l-0.1,0.1c0.3,0.3,0.5,0.5,0.7,0.7c0,0,0,0,0.1,0C206.1,93.3,205.9,93.1,205.7,92.8z"/>
	<path d="M201.2,95.3L201.2,95.3c-0.2,0.2-0.5,0.4-0.7,0.6C200.8,95.8,201,95.5,201.2,95.3z"/>
	<path d="M206.5,95.3c-0.3-0.3-0.5-0.5-0.8-0.8l0,0C205.9,94.8,206.1,95,206.5,95.3c-0.3,0.3-0.6,0.5-0.9,0.8h0.1
		C206,95.8,206.2,95.6,206.5,95.3z"/>
	<path d="M180.9,97.8c0.1-0.1,0.1-0.1,0.2-0.2C181,97.7,181,97.7,180.9,97.8z"/>
	<path d="M178.5,94.4c-0.1-0.1-0.2-0.1-0.2-0.2C178.3,94.3,178.4,94.3,178.5,94.4z"/>
	<path d="M178.1,97.1L178.1,97.1c0.1-0.1,0.3-0.2,0.4-0.3C178.4,96.9,178.2,97,178.1,97.1z"/>
	<path d="M201.2,93.5L201.2,93.5c-0.1-0.1-0.3-0.3-0.5-0.5C200.8,93.2,201,93.4,201.2,93.5z"/>
	<path d="M201.2,98.4L201.2,98.4c-0.2-0.2-0.4-0.5-0.6-0.7h-0.1C200.7,97.9,200.9,98.1,201.2,98.4C201.1,98.4,201.2,98.4,201.2,98.4
		z"/>
	<path d="M150.1,85.4c1.1,0,2,0.1,3,0.1c1.3,0,2.5-0.9,3.4-1.8c0.4-0.4,0.7-1.1,1.2-1.3c-0.1-0.1-0.2-0.2-0.3-0.2
		c-0.9,1-1.8,2.2-3.1,2.7c-0.9,0.4-2,0.3-2.9,0.3L150.1,85.4z"/>
	<path d="M200.7,97.4C200.6,97.5,200.6,97.5,200.7,97.4C200.6,97.5,200.6,97.5,200.7,97.4C200.6,97.5,200.6,97.5,200.7,97.4z"/>
	<path d="M205.5,92.7c-0.5,0-1,0-1.5,0C204.5,92.8,205,92.7,205.5,92.7z"/>
	<path d="M151.9,88c-0.1-0.1-0.2-0.2-0.4-0.3c0,0,0,0.1,0.1,0.1C151.7,87.9,151.8,88,151.9,88z"/>
	<path d="M171.2,87.4c-0.5-0.5-0.5-1.3-0.6-1.9l0,0c0,0.5-0.1,1,0,1.5c0.6,0.7,1.3,1.5,2,2c0.1,0.1,0.3,0.1,0.4,0.1
		C172.3,88.7,171.8,88,171.2,87.4z"/>
	<path d="M150.8,86.8L150.8,86.8L150.8,86.8L150.8,86.8z"/>
	<path d="M139.4,71.5c-0.4-0.7-0.7-1.2-0.9-2c-0.2-1.1-0.1-2.1,0.1-3.2l-0.4,0.5C137.6,68.5,138.1,70.3,139.4,71.5z"/>
	<g>
		<path d="M109,117.2c-0.1-0.1-0.2-0.3-0.2-0.4C108.8,117,108.9,117.1,109,117.2z"/>
		<polygon points="218.3,71.8 218.3,71.8 218.3,71.8 		"/>
		<path d="M148.5,95.4l0.1,0.1c0.2-0.3,0.5-0.6,0.7-0.9c-0.3,0.3-0.5,0.5-0.7,0.8H148.5z"/>
		<path d="M108.7,116.8c-0.2-0.3-0.4-0.7-0.6-1C108.3,116.2,108.5,116.5,108.7,116.8z"/>
		<path d="M122.2,67.8c0.1,0.1,0.2,0.2,0.4,0.3C122.5,68,122.3,67.9,122.2,67.8z"/>
		<path d="M109.5,118.1c-0.2-0.3-0.4-0.5-0.5-0.8C109.1,117.5,109.3,117.8,109.5,118.1z"/>
		<path d="M150.4,87.3c0.1-0.1,0.3-0.3,0.4-0.5c-0.1,0-0.2,0-0.3,0C150.5,86.9,150.4,87.2,150.4,87.3z"/>
		<path d="M203.5,92.4C203.5,92.4,203.5,92.4,203.5,92.4C203.5,92.4,203.5,92.4,203.5,92.4z"/>
		<path d="M109.5,118.1c1.1,1.7,2.4,3.3,3.9,4.6C111.9,121.3,110.6,119.7,109.5,118.1z"/>
		<path d="M113.4,122.7c0.1,0.1,0.3,0.3,0.4,0.4c0,0,0,0,0,0c-0.1-0.1-0.1-0.1-0.2-0.2C113.5,122.8,113.5,122.8,113.4,122.7z"/>
		<path d="M152.1,91.8c0.5,0,1.1,0,1.6,0c0.2,0.1,0.3,0.2,0.5,0.3c-0.2-0.3-0.3-0.6-0.1-0.9c-0.5,0.5-1.4,0.4-2,0.5
			c-0.1,0.1-0.2,0.2-0.2,0.3C152,91.9,152.1,91.8,152.1,91.8z"/>
		<path d="M119,32.4c2.7,0,5.4-0.2,8.1,0c4,0,8,0.2,12,0.4c4.2,0.3,8.4,0.7,12.4,1.8c1,0.2,1.9,0.7,2.9,0.8c-4.3-1.6-9-2.2-13.6-2.6
			c-2.3-0.2-4.5-0.2-6.8-0.4c-4.3-0.1-8.7-0.4-13-0.1c-5.6-0.1-11.1,0.4-16.6,1c-1.1,0.2-2.3,0.2-3.4,0.7c1-0.4,2.2-0.5,3.3-0.6
			C109.2,32.8,114.1,32.5,119,32.4z"/>
	</g>
	<path d="M218.3,93.7c-0.1,0.1-0.3,0.3-0.6,0.3c0.2,0,0.4,0.1,0.6,0.2C218.3,94.1,218.3,93.8,218.3,93.7z"/>
	<path d="M217.7,94L217.7,94L217.7,94z"/>
	<path d="M214.7,69.4L214.7,69.4L214.7,69.4L214.7,69.4z"/>
	<path d="M221.1,98.6L221.1,98.6L221.1,98.6z"/>
	<path d="M54,89.1c0.9,1.7,2.9,2.2,4,2.4C56.8,90.8,54.1,89.3,54,89.1z"/>
	<path d="M110.4,67.1c-0.9,0.4-1.8,0.9-2.6,1.5c-3,2.3-4.8,5.7-6.3,9.1c-0.6,1.7-1.3,3.4-1.7,5.2c0.1-0.1,0.1-0.1,0.1-0.2
		c0.4-1.2,0.7-2.4,1.2-3.5c0.9-2.7,2.3-5.2,3.9-7.5c1.6-2,3.6-3.9,6.1-4.6c1.5-0.6,3.2-0.7,4.8-0.8c1.3,0.2,2.6,0.1,3.8,0.5
		c1,0.2,1.8,0.6,2.7,1c-0.9-0.6-2-1.2-3.1-1.4C116.4,65.8,113.2,66.1,110.4,67.1z"/>
	<path d="M53.9,89L53.9,89L53.9,89z"/>
	<path d="M69.3,94.4c-0.7-0.1-1.4-0.3-2.2-0.5l-0.1,0c-1.7-0.4-7-1.7-8.6-2.3c-0.2-0.1-0.2,0-0.4,0c1.8,0.7,5.5,1.7,7.4,2.1
		c0,0,0,0,0,0c0,0,0,0,0,0c0,0,0,0,0,0l0,0C66,93.8,68.5,94.5,69.3,94.4z"/>
	<path d="M75,95L75,95L75,95L75,95z"/>
	<path d="M98.9,97c-0.1-0.6-0.1-1.1-0.2-1.7C98.7,95.9,98.8,96.4,98.9,97z"/>
	<path d="M98.7,95.3c-0.1-0.4-0.1-0.7-0.2-1.1c0,0.3,0.1,0.6,0.1,0.8C98.6,95.2,98.6,95.3,98.7,95.3z"/>
	<path d="M66.5,54.9c0.2,0,0.4,0,0.6,0l0,0C66.9,54.9,66.7,54.9,66.5,54.9z"/>
	<path d="M56,54.6L56,54.6L56,54.6L56,54.6z"/>
	<g>
		<path d="M108.2,115.8c-0.1-0.2-0.2-0.4-0.3-0.6c0,0.1,0.1,0.2,0.1,0.3C108.1,115.6,108.1,115.7,108.2,115.8z"/>
		<path d="M226.7,97.1c-0.1-3.9,0.1-7.8,0.4-11.8c-0.1-1.9,0.1-3.9-0.2-5.9c-0.2-2.5-1.2-5.1-3.2-6.7c-0.5-0.5-1.2-0.9-1.3-1.6
			c-0.4-2.6-1.2-5.1-2.6-7.3c-1.6-2.7-4.3-4.6-7-6.1c-0.2-0.1-0.4-0.2-0.7-0.2c-0.4-0.5-1-0.5-1.5-0.8c-3.9-1.5-8.1-2.1-12.2-2.9
			c-5.9-0.9-11.8-1.6-17.7-2.1c-0.8-0.1-1.6-0.1-2.4-0.3c-1-0.9-1.9-2-3-2.8c-0.9-0.8-1.8-1.7-2.8-2.4c-5.4-4.5-11-8.7-17-12.3
			c-1.8-1-3.6-1.8-5.5-2.4c-1.4-0.5-2.9-0.8-4.3-1.2c-0.3,0-1-0.2-1.2-0.2c-4.1-0.8-7.6-1-11.6-1.6c-4.6-0.5-9.2-0.9-13.8-1.1
			c-3.5-0.1-6.9-0.3-10.4-0.2c-6.3,0-12.5,0.6-18.8,1.4c-4.9,0.8-9.7,1.8-14.4,3.4C64.6,35.6,55,42.4,47,50.5
			c-2.1,1.9-3.8,4.2-6.2,5.8c-0.7,0.5-1.6,0.4-2.3,0.8c-0.9,0.6-1.5,1.6-2.4,2.3c-0.9,0.7-1.8,1.6-2.6,2.5c-1.2,1.4-1,3.4-0.8,5.1
			c0,1.5,0.2,3.1-0.3,4.6c-0.3,0.7-1.1,1.1-1.4,1.8c-0.2,0.6-0.1,1.1,0.1,1.7c0.5,1.8,0.2,3.7,0.1,5.5c-0.2,2.2-0.3,4.4-0.4,6.7
			c-0.2,1.8-0.1,3.5-0.1,5.3c-0.2,2.2,0,4.5,0.2,6.7c0.2,1.2,0.5,2.4,1,3.5c0.4,1.2,1.4,2.2,2.5,2.8c0.3,0.2,0.7,0.4,1.1,0.5
			c0.3,2.2,0.7,4.4,1.3,6.5c1,3.4,2.8,6.5,4.9,9.2c0.7,0.9,1.8,1.2,2.9,1.2c2.2,0,4.4,0,6.6-0.1c1-0.1,2.1-0.1,3.1-0.1
			c1.1,0,2.3,0.1,3.3-0.5c0.4-0.3,0.8-0.7,1.1-1.1c1.2-1.4,1.9-3.2,2.6-4.9c0.7-1.5,1-3,1.5-4.6c1.7,0,3.3,0,5-0.1
			c0.4,0,0.7-0.1,1.1-0.2c0-0.4-0.2-1,0.3-1c0.8,0,1.6-0.2,2.3,0.1c-0.1-0.1-0.1-0.3-0.2-0.4c-1,0-2-0.1-3,0.2c0,0.3,0,0.8,0.1,1
			c-1.9,0.2-3.8,0.2-5.8,0.2c0.2-1,0.4-2,0.6-3.1c2.3,0,4.7,0.1,7,0.1c2.4,0.1,4.7,0,7.1,0.2c3.1,0.1,6.2,0.1,9.3,0.3
			c2.2,0,4.5,0.2,6.7,0.3c-1.3,0.3-2.7,0.3-4,0.4c-5.8,0.3-11.7,0.6-17.5,1c0,0-0.2-0.2-0.2-0.2c0,0.1,0.2,0.3,0.2,0.4
			c5.9-0.4,11.9-0.7,17.9-1c2.2-0.2,4.3-0.1,6.5-0.4c3.2,0,6.5,0.3,9.7,0.5c0.5,1.8,1.2,3.6,2,5.2c-2.8-5.7-3.6-12.3-2.5-18.6
			c-0.1,0-0.4,0.1-0.5,0.1c0,1.2-0.3,2.3-0.4,3.5c-0.4-2-0.7-4.1-1-6.1c-0.2-2.8-0.3-5.6-0.1-8.4c0.3-2.6,0.9-5.3,1.9-7.7
			c1.2-2.6,2.8-5.1,5.1-6.8c0.4-0.3,0.8-0.5,1.3-0.8c3.3-1.1,7.2-0.7,10.1,1.3c1.2,1,2.3,2,3.2,3.2c2.6,3.5,4,7.6,5.1,11.7
			c0.6,1.9,0.9,3.8,1.4,5.7c0.1,0.7,0.3,1.5,0.4,2.2c0.2,0.9,0.3,1.7,0.5,2.6c-0.2-2.1-0.7-4-1.1-6c-0.6-2.8-1.3-5.6-2.2-8.3
			c-1.4-4.3-3.6-8.5-7.2-11.3c0.4-1,0.6-2.2,1.2-3.2H123c-0.1-0.1-0.3-0.2-0.4-0.2c0,0,0.1,0.1,0.1,0.1c-0.4,1-0.7,2.1-1,3.2
			c-3-1.9-6.8-2.4-10.1-1.2c-1.3,0.6-2.4,1.5-3.3,2.6c-1,1.2-2,2.5-2.6,3.9c-0.7,0-1.4,0-2.1,0c-0.2,0.3-0.4,0.6-0.6,1
			c-0.5,1.2-1.2,2.3-1.6,3.5c-0.7,1.5-1.4,2.9-2,4.4c-0.2,0.4-0.3,0.7-0.6,1c0-0.4,0.1-0.9,0.2-1.3c-0.1,0.1-0.1,0.3-0.2,0.4
			c-0.1-1,0-2-0.2-3c-0.4-3.6-1.2-7.2-1.1-10.8c0.3-4.1,0.6-8.4,2.7-12c0.3-0.6,0.6-1.2,1-1.8c0.5-0.6,0.2-1.4,0.1-2
			c-0.3-1.1-0.5-2.3-0.8-3.4c0.4-0.7,1-1.3,1.7-1.8c0.5-0.2,1.1-0.3,1.6-0.6l0.2-0.2c-0.1-0.5-0.2-0.9-0.4-1.3
			c-0.4-0.9-0.8-1.9-1.2-2.8c-0.9-2-1.8-4-2.7-6.1c-1.2-2.7-2.7-5.6-4.1-8.2c-0.2-0.3-0.9-1.2-0.6-0.7c-0.3-0.5-1.4-1.7,1.3,2.7
			c2.2,4.5,4.3,9.3,6.3,13.9c0.2,0.8,0.7,1.5,0.8,2.3c-1.3,0.1-2.2,1.1-3,2c-0.7-2.8-1.5-5.5-2.6-8.1c-0.2-0.4-0.3-0.8-0.5-1.2
			c-1-2.3-2.1-4.5-3.3-6.7c-0.9-1.6-2.1-3.4-4-3.9c-1.5-0.4-3.1-0.3-4.7-0.2c-4.4,0.3-8.7,1.6-12.8,3.1c-4.7,1.9-9.3,4.3-13.6,7
			c-2.9,1.9-5.8,3.9-8.3,6.4C49.1,49.8,48.8,52,49,54c0.9,1,2.5,1.1,3.7,1.5c-0.7,1-1.7,1.8-2.5,2.8c-0.7,0.8-0.8,1.9-1.5,2.7
			c-0.9,1-1.9,1.9-2.4,3.1c-0.9,2-1.1,4.2-1,6.4c0,2.1,0.4,4.2,0.7,6.3c-2.2-1.2-5.1-1.9-7.5-0.8c-2.2-0.8-3.8-2.8-4.9-4.9
			c-0.3-0.8-0.8-1.5-0.8-2.3c0-2-0.5-4,0.2-5.9c0.6-1.4,2-2.2,3-3.2c0.8-0.6,1.3-1.4,2.1-2.1c0.7-0.6,1.7-0.4,2.4-0.9
			c2-1.2,3.6-3,5.2-4.7c3.2-3.3,6.7-6.5,10.4-9.3c5.4-4,11.2-7.5,17.6-9.8c5.3-2,10.9-3.2,16.5-4c0.6-0.1,1.2-0.1,1.8,0.1
			c0.6-0.4,1.3-0.5,2-0.5c0.2,0.1,0.4,0.2,0.5,0.3c1,0.8,1.8,1.9,2.5,3c0.6,0.8,0.8,1.7,1.1,2.6c1.5,3.6,3.1,7.3,4.8,10.9
			c0.7,1.6,1.4,3.1,2.2,4.6c0.3,0.6,0.8,1.2,1.3,1.7c0.5,0.4,1,0.1,1.6,0.1c0,0.3,0.2,0.6,0.2,0.9c0.3,1.1,0.7,1,1.3,1.1
			c3.4,0,6.8,0.6,10.2,1c3.8,0.7,7.6,1.4,11.4,2.3c2.5,0.6,4.9,1.4,7.2,2.6c0.7,0.4,1.5,0.9,2.2,1.3c0.5,0.3,0.9,0.7,1.4,0.7
			c-1.8-1.3-3.7-2.4-5.8-3.3c-1.4-0.6-2.9-1-4.3-1.4c-3.5-0.9-7-1.6-10.5-2.2c-4.1-0.6-8.1-1.3-12.3-1.4c-0.4-0.5-0.7-1-0.7-1.6
			c2.1,0.1,4.1,0.3,6.2,0.6c0.9,0.1,1.8,0.2,2.6,0.4c3.6,0.4,7.3,1.1,10.9,1.6c6.6,1,13.2,2.2,19.9,3c6,0.8,12,1.6,18,2
			c0.9,0.1,1.8,0.2,2.8,0c-0.2-0.2-0.3-0.5-0.6-0.6c-2.9-1.4-6-2.5-9-3.5c-5.2-1.8-10.5-3-16-3.6c-3.2-0.5-6.3-0.7-9.5-1
			c-1.6-0.1-3.2-0.2-4.8-0.3c0,0-0.1,0.1-0.1,0.2c6.2,0.4,12.4,0.8,18.5,1.9c4.4,0.8,8.7,1.9,12.8,3.4c2.8,1,5.6,1.9,8.2,3.3
			c-2,0.1-4-0.2-5.9-0.3c-8.3-0.9-16.5-1.9-24.7-3.3c-4.1-0.7-8.2-1.3-12.4-1.9c-4.7-0.8-9.4-1.4-14.1-2c-1.5-0.2-3-0.4-4.5-0.2
			c-0.1-0.2-0.2-0.3-0.3-0.5c0.6-0.1,1.2-0.1,1.8-0.2h0.5c2.3-0.2,4.6-0.2,7-0.3c3-0.2,6.1-0.3,9.1-0.1c1.2,0,2.5,0.2,3.7,0.2
			c0-0.1,0-0.3,0-0.3l0.1-0.1c1.6,0.1,3.2-0.1,4.8-0.1c1.8-0.1,3.5,0.1,5.3,0c3.2,0,5.4,0.3,8.6,0.4c0,0.1,1.1-0.2,1.1-0.1
			c2.4,0,4.9,0,7.3,0.2c3.6,0.2,7.2,0.3,10.7,0.6c3,0.2,6,0.5,9.1,0.6c0-0.1,0-0.2,0.1-0.3c-1.5-1.5-3.2-2.8-4.7-4.2
			c-2.3-1.9-4.6-3.9-7-5.8c-2.4-2-5-3.7-7.6-5.5c-2.5-1.7-5-3.3-7.8-4.3c0.9,0.6,2,1,2.9,1.5c-1.1,0-2.1-0.3-3.2-0.4
			c-8.7-1.3-17.6-2-26.4-1.9c-3.9,0-7.8,0.3-11.7,0.4c-3.1,0.3-6.2,0.4-9.3,0.7c-0.9,0.2-1.9,0.1-2.9,0.4c-0.9-1.2-1.7-2.5-2.9-3.5
			c-0.1-0.1-0.4-0.3-0.5-0.5c1.5-0.1,3.1-0.4,4.6-0.4c3.9-0.5,7.9-0.5,11.8-0.5c2.4,0,4.9,0.2,7.3,0.2c7.3,0.4,14.6,1.1,21.9,2.2
			l3,0.5c1.9,0.2,3.7,0.7,5.5,1.4l-0.1-0.1l-0.4-0.4c5.4,1.2,9.9,4.5,14.4,7.5c4.4,3.2,8.6,6.6,12.7,10.1c1.1,1,2.1,2.1,3.2,3.1
			c1.2,0.1,2.3,0.4,3.5,0.6c0.1-0.1,0.2-0.2,0.3-0.2l2.5,0.3c3.2,0.3,6.2,0.7,9.4,1.1c0.7,0.1,1.4,0.3,2,0.6l0.1-0.1l0.1-0.1
			c1.2,0.1,2.4,0.3,3.6,0.5c3.7,0.7,7.4,1.3,10.9,2.7c0.4,0.2,0.8,0.5,1.3,0.5c0.2,0.3,0.5,0.3,0.7,0.5c1,0.4,1.8,1.3,2.7,2
			c0.9,0.8,1.7,2.1,1.6,3.3c0.3-0.2,0.5-0.5,1-0.5c0.9,0.2,1.2,0.7,1.5,1.2c0.5,1,1.1,2.1,1.3,3.2c-0.1,0.1-0.2,0.2-0.2,0.3
			c-0.1-0.5,0-1-0.5-1.2c-0.2-0.4-0.3-0.7-0.4-1.1c-0.4-0.7-0.8-1.5-1.6-1.9c-0.8,0.3-1.6,0.6-2.1,1.2c0.1,0.1,0.2,0.4,0.3,0.5
			c0.9-0.2,2.1-0.6,2.8,0.2c0.5,1.9,0.9,3.9,0.6,5.9c0,0.4-0.4,0.6-0.8,0.6c0-0.1,0.1-0.2,0.1-0.3c-0.2,0-0.5,0-0.7,0.1
			c0.1,0.1,0.2,0.2,0.3,0.4c-0.7,0.1-0.9-0.7-1.2-1.2c-0.1,0-0.3,0-0.4,0c0.1-0.4,0.5-0.4,0.9-0.4c0.1,0.4,0.2,0.8,0.4,1.2
			c0-0.1,0-0.4,0.1-0.5l-0.2,0.2c-0.1-0.4-0.1-0.7-0.2-1.1c-0.3,0-0.5,0-0.8,0c0.1-1.5-0.1-3-0.6-4.4c0.3-0.1,0.6-0.1,1-0.2
			c0,0,0.6-0.2,1.1,0.1c-0.1-0.2-0.3-0.4-0.5-0.5c-0.9-0.2-1.5,0.3-2.4,0.2l0.1-0.3v-0.7c-0.3,0.2-0.7,0.3-1.1,0.4
			c0.1,0.1,0.1,0.3,0.2,0.4c-0.5-0.4-1.1,0.1-1.6,0.2c-0.7,0.2-1,0.9-1,1.6c-0.2-0.5-0.5-1-0.7-1.5h0.1c-1.6-1.8-3.8-3-6.3-2.9
			c-3.7,0.1-7.6-0.1-11.2,0.9c-0.6,0.3-1,0.8-1.2,1.5c0,0.4-0.1,0.7-0.2,1.1c-0.3-0.1-0.9,0-1-0.4c-0.5-1-1.1-2-2.2-2.4
			c-2.1-0.4-4.2-0.6-6.3-0.7c-3.2-0.2-6.3-0.3-9.5-0.1c-0.9,0.1-1.7,0.2-2.5,0.6c-0.4,0.2-0.8,0.5-1.1,0.8c0.6-0.5,1.3-0.8,2-1
			c2.3-0.4,4.6-0.4,6.9-0.3c2.2,0.1,4.4,0.1,6.5,0.4c0.1,0,0.2-0.1,0.2-0.2v0.2c0,0,0,0,0.1,0c0,0.1-0.1,0.1-0.2,0.1
			c-2.1-0.3-4.3-0.3-6.5-0.4c-2.3-0.1-4.6-0.1-6.9,0.3c-0.7,0.2-1.4,0.5-2,1c-0.5,0.4-1,0.8-1.4,1.3c-0.1,0.1-0.2,0.3-0.3,0.4
			c-0.1,0.1-0.1,0.1-0.2,0.2c-1.7-0.3-3.4-0.5-5.1-0.9c-4.4-0.8-9-1.1-13.4-2c-2.2-0.3-4.3-0.7-6.5-0.9c-0.6,0-1-0.4-1.5-0.5
			l0.2,0.4c-3.2-0.4-6.8-0.4-10,0.1c-2.1,0.3-4.1,1.4-5.6,2.9c-1,1.1-2,2.1-3.1,3.1c-0.1,0-0.2,0-0.3,0c1.6,1.2,2.9,2.8,3.8,4.5
			c0.2,0.3,0.4,0.6,0.5,0.9c0.8,1.5,1.5,2.9,2.2,4.5c1,2.2,1.8,4.5,2.5,6.8c0.3,1.2,0.7,2.5,1,3.7c0.3,1.3,0.7,2.6,0.6,4
			c-0.2,0.8-0.3,1.7-0.5,2.5c-0.3,1-0.3,2.1-0.5,3.1v0.1c-0.3-0.2-0.2-0.6-0.3-0.8c0.1,0.8,0.2,1.7,0.3,2.5c-0.6,0-1.2,0.1-1.8,0.2
			c-0.6-5-1.2-10-2.9-14.7c-0.9-2.7-2-5.4-3.8-7.8c-1.4-1.8-3.2-3.3-5.4-4.2c-1.8-0.8-3.8-1-5.8-0.8c-1.4,0.2-2.6,0.9-3.6,2
			c-2.4,2.8-3.6,6.4-4.2,9.9c-0.5,3.6-0.6,7.3-0.3,10.9c0,0.2-0.1,0.5-0.1,0.7c0.2,0,0.4,0,0.6,0c0.9-5.3,3.4-10.5,7.4-14.2
			c1.9-1.4,4.4-2.2,6.8-1.8s4.5,1.9,6.2,3.6c0.9,1.5,2.3,2.7,2.7,4.5c1.2,4.3,1.6,8.7,2.1,13.2c0.1,1,0.2,2.1,0.4,3.1
			c0.2,0.7,0.4,1.5,0.3,2.2c-0.5,3.6-1.5,7.1-3.2,10.2c-1.8,3.1-4.3,6-7.9,6.9c-2.2,1-4.7,0.5-6.4-0.9c0.9,0.9,1.9,1.5,3,1.9
			c3.4,1,7,0.6,10.4,0.4c1.5,0,2.9,0,4.4-0.2c0.3-0.1,0.6-0.1,0.9-0.2c1.2-0.2,2.4-0.8,3.3-1.6v-0.1c2.8-2.3,4.9-5.4,6.4-8.6
			c1.2,0,2.7,0.5,3.5-0.6c0.3-0.1,0.7-0.1,1-0.3c1.1-0.9,1.7-2.2,2.2-3.5c0-0.1,0.1-0.4,0.2-0.5c5.7,0,11.3-0.2,17-0.2
			c0.3,0.2,0.5,0.4,0.7,0.6c0.7-0.1,1.4-0.2,2-0.2c5-0.1,9.9-0.1,14.9-0.3c0,0,0.1-0.1,0.1-0.2c-0.2-0.2-0.7-0.1-1-0.1
			c-5.3,0.1-10.7,0.1-16,0.3c-0.2-0.2-0.4-0.3-0.6-0.5c-0.1-0.4-0.3-0.8-0.4-1.2c1.4-0.7,2.9-1.2,4.4-1.2c2.2,0,4.4-0.2,6.7-0.3
			c2-0.2,3.9-0.1,5.9-0.3c6.6-0.2,13.2-0.7,19.9-0.2c1.3,0.2,2.6,0.5,3.8,1c-0.4,0.8-1,1.6-1.9,1.8c-1.6,0.4-3.3,0.2-4.9,0.3
			c-4.9,0-9.7,0.2-14.6,0.3c-0.3,0-0.7,0-1,0.2v0.1c0.2,0.2,0.6,0,0.9,0.1c0.2,0.5,0.4,1,0.5,1.5c0.8,2,1.9,3.9,3.3,5.5
			c0.9,1,1.9,1.9,2.9,2.8c1.3,1.1,2.9,2.1,4.7,2.3c3.2,0.3,6.4,0.4,9.5,0.3c2,0,4.1-0.1,6-0.8c1.8-0.6,3.2-1.9,4.5-3.2
			c1.9-1.9,3.5-4.1,4.5-6.6c0.7-0.3,1.1-0.9,1.3-1.5c0.3-1.1,0.3-2.3,0.3-3.4c2.2-1.1,3.9-3,4.6-5.3
			C227.4,100,226.7,98.5,226.7,97.1z M33,104.3c-0.4-0.6-0.8-1.1-1.1-1.8c-0.6-1.7-1-3.4-1-5.2c1,0.9,2.3,1.3,3.4,1.9
			c0.3,2.1,0.4,4.3,0.6,6.4C34.3,105.2,33.6,104.8,33,104.3z M43.5,122.4c-1.3-0.1-2.1-1.4-2.8-2.3c-3.9-5.3-5.4-12.1-5.2-18.6
			c0.1-0.3,0-0.5-0.2-0.5c0,0.1-0.1,0.4-0.1,0.5c-0.3-3.1-0.5-6.2-0.4-9.2c0.2-3.2,0.6-6.5,1.8-9.5c0.6-1.4,1.7-2.9,3.4-3.1
			c2.3-0.2,4.8,0.6,6.4,2.3c-1.8,0.5-3.3,1.6-4.7,2.8c-4,4-5.9,9.7-6.4,15.2c0,0.4,0,0.8,0.3,1.1c0.3-3.4,0.9-6.9,2.4-10
			c0.7-1.6,1.6-3,2.6-4.4c0.8-1.1,2.2-1.9,3.6-1.5c1.5,0.4,2.5,1.7,3.4,2.9c0.6,1.1,1.1,2.2,1.5,3.4c0.5,1.3,0.8,2.7,1.1,4.1
			c0.5,2.8,0.8,5.7,0.8,8.6c0,3.2-0.3,6.4-1,9.5c-0.7,2.4-1.4,4.9-3,6.9C46,121.5,44.9,122.5,43.5,122.4z M62.5,109.7
			c-0.4,2.5-1.1,5.1-2.2,7.5c-0.8,1.6-1.5,3.3-2.9,4.6c-0.6,0.5-1.4,0.7-2.1,0.7c-2.7,0.1-5.4,0-8.1,0.2c-0.7,0-1.5,0-2.2-0.1
			c1.3-0.6,2.3-1.8,3-3c1.9-3.5,2.7-7.6,3.1-11.5c0.4-4.5,0.1-9-0.9-13.4c-0.7-2.9-1.7-5.9-3.6-8.2c-0.6-0.7-1.4-1.2-2.2-1.6
			c-0.7-0.1-1.4-0.1-2.1,0c1.3-1.1,2.7-2.2,4.4-2.5c0.8,0.9,1.3,2,1.7,3.1c2,5.2,3,10.7,4.1,16c0.3,1.4,0.6,2.8,0.9,4.3
			c0.2,0.9,0.4,1.9,1.2,2.5c2.7,0.2,5.3,0.1,8,0.2C62.6,108.9,62.6,109.3,62.5,109.7z M105.6,109.6c-3.5-0.1-7-0.4-10.5-0.6
			c-0.3,0-0.7,0-1-0.1c-12-0.6-24-0.8-35.9-1c-1.2,0-2.3,0-3.5-0.1c-0.9-1.1-0.9-2.6-1.3-3.9c8.3,0.6,16.6,1.2,25,1.7
			c2.5,0.3,5,0.2,7.5,0.5c1.8,0.1,3.5,0.1,5.3,0.2c2.6,0.2,5.3-0.1,7.9,0.6c1.1,0.3,2,1,2.8,1.8c1.1,0,2.3,0,3.4,0.1
			C105.4,109.1,105.5,109.3,105.6,109.6z M105.2,108.6c-1.1-0.1-2.2,0-3.3-0.1c-0.6-0.5-1.1-1-1.7-1.4c-1.4-0.7-3-0.8-4.6-0.9
			c-4.1-0.1-8.2-0.2-12.4-0.5c-1.6,0-3.1-0.2-4.7-0.3c-2.6-0.2-5.1-0.3-7.7-0.5c-2.9-0.1-5.8-0.5-8.7-0.6c-2.9-0.3-5.9-0.4-8.8-0.7
			c-0.4-1.4-0.5-2.9-0.9-4.3c2.8,0.4,5.4,1,8.1,1.3c3.3,0.4,6.6,0.9,9.9,1.2c2.3,0.4,4.6,0.4,7,0.6c5.2,0.3,10.5,0.5,15.7,0.5
			c2.4,0.1,4.8,0,7.2,0.2c1.4,0,2.9-0.1,4.3,0C104.7,105,104.9,106.8,105.2,108.6z M98.9,62.1c-0.3,1-0.6,2.1-0.8,3.2
			c-0.9,4.2-1,8.7-0.2,12.9c0.4,3.4,1.1,6.7,0.6,10.1c0,0.5-0.1,1.1-0.1,1.6c-0.2,0.4-0.3,0.8-0.4,1.2c-0.6,1.3-1.1,2.7-2.3,3.5
			c-0.6,0.4-1.3,0.4-2,0.5c-1.1,0.2-2.2,0.1-3.4,0.2c-2.9,0.1-5.8-0.1-8.7-0.1C79.4,95,77.2,95.1,75,95l-0.1,0.2
			c1,0.1,1.5,0.1,2.2,0.1c1.5,0.2,3.1,0.2,4.6,0.3c4.4,0.1,8.6-0.2,13-0.6c1.2-0.2,2.1-1.1,2.6-2.1c0.3-0.6,0.5-1.2,0.9-1.7
			c0.1,1,0.2,2,0.3,3c-0.1-1.3-0.2-2.6-0.1-4c0.2-1.2,0.2-2.5,0.9-3.6c1.2-3,2.6-5.9,3.9-8.9c0.2-0.3,0.3-0.6,0.5-0.8
			c0.6-0.2,1.3-0.1,1.9,0c-1.4,2.8-2.1,5.9-2.4,9c0,2.7,0,5.5,0.2,8.3c0.4,2.3,0.6,4.6,1.1,6.9c0.1,0.6,0,1.1,0.1,1.7
			c-1.5-0.1-3.1,0-4.6-0.1c-0.1-0.3-0.1-0.6-0.2-0.9c-0.3-1.6-0.5-3.2-0.9-4.9c0.3,1.9,0.7,3.8,1,5.7c-2.3,0-4.6,0-6.9-0.1
			c-7.1-0.2-14.3-0.3-21.4-1c-0.1-0.6-0.3-1.3-0.6-2c-0.1-0.5-0.3-0.9-0.4-1.4c-0.3-1.2-0.6-2.4-0.9-3.6c1.2,0.1,4,0.4,5.1,0.6
			c0.1-0.1-0.1-0.1,0.1-0.2c-1.4-0.2-2.5-0.3-3.8-0.4c-0.5-0.1-1-0.1-1.5-0.4c0.3-2.8,0.6-5.7,0.5-8.5c0-3.4-0.5-6.8-0.6-10.1
			c-0.3-4.2-0.1-8.4,0.5-12.6c0.2-1.2,0.3-2.4,0.7-3.6c0.2-0.5,0.9-0.2,1.3-0.2c8.1,0.2,16.1,1,24.1,1.7c1,0.2,2.1,0.2,3.1,0.4
			C99.1,61.6,99,61.8,98.9,62.1z M99.3,61c-1.1,0-2.1-0.2-3.2-0.3c-0.7-0.1-1.3-0.1-2-0.2c-0.8-0.2-1.5,0-2.3-0.2
			c-2.8-0.4-5.7-0.5-8.5-0.8c-2.5-0.1-5-0.4-7.5-0.4c-1.7-0.2-3.3,0-5-0.3c0.5-0.9,1.1-1.7,1.7-2.5c5.2,0.1,10.3,0.4,15.5,0.5
			c1.6,0.2,3.3,0.1,4.9,0.2c2.4,0.1,4.8,0.3,7.2,0.3c0.3,0,0.7,0.1,1,0.1C100.5,58.6,99.8,59.7,99.3,61z M50.1,54.2
			c-0.3-0.2-0.7-0.3-0.7-0.6c-0.2-1.8,0.2-3.9,1.6-5.2c3.8-3.5,8.1-6.3,12.6-8.8c4.6-2.4,9.3-4.7,14.3-6c3.8-1,7.8-1.8,11.8-1.3
			c1.7,0.4,2.9,1.9,3.7,3.4c3.3,5.6,5.6,11.9,7,18.2c0.2,0.9,0.4,1.8,0.5,2.8c-7.5,0-15.1-0.4-22.7-0.6c-3.5-0.2-7.1-0.3-10.6-0.4
			c0-0.2,0-0.4,0-0.6c1.1,0.3,2.3,0.1,3.5,0.2c1.8,0,5.3,0.1,5.3,0.1c0,0,0.5-3.3,0.8-4.9c1-5.7,2.6-11.3,4.9-16.5
			c2.1-0.4,4.3-0.6,6.5-0.3c1.6,0.3,2.9,1.4,3.8,2.7c0.3,0.4,0.6,0.9,0.9,1.3c0,0.1,0.1,0.3,0.1,0.4c0.1,0.1,0.2,0.2,0.3,0.3
			c0.8,1.5,1.4,3,2.1,4.6c0.2,0.5,0.4,1,0.5,1.5c-0.8,2.2-1.5,4.7-1.4,7.3c-0.4,0-0.8,0-1.2,0c0.1-0.7,0.1-1.5,0.1-2.2
			c-0.1-1.4-0.5-2.9-1.7-3.7c-1.3-0.8-2.9-0.9-4.3-0.9c-2.5,0.1-5.2,1.1-6.8,3.1c-1.1,1.4-1.9,3.2-1.5,5c0.1,0.6,0.5,1,1,1.3
			c0.9,0.3,1.9,0.5,2.9,0.7c0,0,0.1,0,0.1,0c0.4,0,0.7,0.1,1.1,0.1c0,0.1,0.1,0.1,0.1,0.2c-2.8-0.1-8.2-0.1-8.3,0s7.8,0.2,11.7,0.3
			c2.7,0.2,5.4,0.1,8.1,0.2c1.2,0.1,2.5,0.1,3.7,0c-0.6-3.7-1.7-7.3-3-10.8c-0.5-1.5-1.2-3-1.8-4.4c-0.9-2.1-1.9-4.1-3.5-5.8
			c-1-1-2.2-1.8-3.6-1.9c-2.5-0.1-5,0.1-7.5,0.6c-6,1.1-11.6,3.6-16.9,6.5c-3.5,1.9-6.8,4.1-10,6.5c-0.4,0.3-0.8,0.6-1.1,0.9
			c-0.7,0.6-1.6,1.2-1.9,2.2c-0.3,1-0.6,2.1-0.7,3.2l0.1,0.2c0.5,0.4,1.2,0.6,1.8,0.8c1,0.3,2,0.5,3,0.6c0.4,0,0.8,0.1,1.2,0.1
			c-0.1,0-0.4-0.2-0.6-0.2c-0.1,0-0.2-0.1-0.5-0.1l-0.2-0.1c1.8-3.8,3.6-7.7,5.8-11.4c0.2-0.5,0.7-0.7,1.2-0.9
			c-0.2,0.4-0.4,0.8-0.5,1.2c-1.2,2-2.2,4.2-3.1,6.3c-0.7,1.7-1.6,3.4-2.1,5.2c1.2,0.1,2.5,0.1,3.7,0.2c0,0,0,0,0,0
			c0.7,0.1,2.5,0.2,2.9,0.3c1.3,0,3.3,0,4.5-0.1c0,0.2,0,0.4,0,0.6c-0.7-0.2-1.4-0.1-2.1-0.1c-3.4-0.1-6.7-0.2-10.1-0.2
			C53.3,55.1,51.6,54.9,50.1,54.2z M65.7,54.9c-1.4,0-4.4,0-6-0.1c0.8-5,2.7-9.9,5-14.5c0.2-0.4,0.6-0.6,0.9-0.7
			c3.9-1.9,7.8-3.7,12-4.8c-0.8,1.9-1.7,3.8-2.5,5.7c-1.7,4.5-2.9,9.3-3.5,14.1h-0.1c0,0.1,0,0.4,0,0.5c-1.4,0.1-2.9-0.1-4.4-0.2
			c0,0,0,0,0,0C66.8,54.9,66,54.9,65.7,54.9z M60.8,46.2c0.4-1,0.9-1.9,1.2-2.8c0.4-0.8,0.8-1.6,1.2-2.5c0.3-0.2,0.7-0.4,1.1-0.6
			c-0.9,2.4-2.1,4.6-2.9,7c-0.9,2.4-1.5,4.9-2.1,7.4c-0.6,0-1.1,0-1.6-0.1C58.5,51.8,59.6,49,60.8,46.2z M57.5,54.6
			c-0.4,0-0.9-0.1-1.3-0.1c1.2-3.7,3-7.5,4.9-11.1c0.5-0.8,0.8-1.9,1.8-2.4c-0.3,0.8-0.7,1.6-1,2.4c-1.2,2.5-2.2,5-3.1,7.6
			C58.4,52.2,58,53.5,57.5,54.6z M81.6,33.9c-1,2.8-2.1,5.6-3,8.5c-1.2,4.2-1.9,8.6-2.6,12.9c-0.8,0-1.5,0-2.3,0
			c0-0.9,0.2-1.8,0.4-2.7c1-5.8,2.7-11.5,5.2-16.9c0.2-0.3,0.3-0.6,0.4-1c-0.9,1.8-1.7,3.6-2.5,5.5c-0.4,1.2-1,2.3-1.1,3.6H76
			c-1.1,3.7-1.9,7.6-2.5,11.4c-0.6,0-1.2,0-1.8-0.1c0.1-1.1,0.4-2.2,0.5-3.3c0.2-1,0.4-1.9,0.6-2.9h0.1c0.3-2.3,1.1-4.4,1.8-6.6
			c0.9-2.4,1.9-4.8,3.1-7.2c0.3-0.8,1.4-0.6,2.1-0.8v0.1C80.3,33.9,81.1,34,81.6,33.9z M83.3,54.5c-0.9-0.1-2-0.3-2.8-0.5
			c-0.4-0.4-0.6-1-0.5-1.6c4.2,0.1,8.4,0,12.6,0c0.1,0.3,0.2,0.6,0.3,1c1.5,0.1,3.1,0,4.6,0c-0.3,1.1-1.3,1.8-2.4,2
			c-1.1-0.3-2.2-0.4-3.2-0.9c-0.8,0.3-1.5,0.8-2.4,0.7C87.4,55.1,85.4,54.9,83.3,54.5C83.3,54.5,83.3,54.5,83.3,54.5z M87.9,47.6
			c1.7,0.2,3.5,0,5.2,0.2c0.3,1.2,0.4,2.5,0.3,3.7c-4.5-0.1-9,0-13.5-0.1c0.3-1.5,1.1-3,2.4-3.9C84.2,47.5,86,47.5,87.9,47.6z
			 M82.5,47.3c0.4-0.3,0.8-0.6,1.3-0.8c0.1,0,0.2-0.1,0.2-0.1c2.1-0.8,4.6-1.2,6.8-0.6c0.9,0.3,1.8,0.9,2.2,1.8
			C89.5,47.4,86,47.4,82.5,47.3z M97.4,54.4c0.5-0.8,0.5-1.7,0.2-2.5c-0.8,0-1.6,0-2.4,0c0-2.4,0.5-4.7,1.3-6.9
			c0.4,0.6,0.6,1.2,0.8,1.9c0.8,2.2,1.3,4.4,1.9,6.6l0.1,0.2c0.1,0.7,0.3,1.5,0.5,2.2c-1.4-0.1-2.8,0-4.3-0.1
			C96.2,55.4,97,55.1,97.4,54.4z M51.8,53.1c-0.5,0-1,0-1.4,0c0.1-1.2,0.4-2.4,0.8-3.6c0.2,0,0.6-0.1,0.8-0.2
			C51.8,50.6,51.6,51.9,51.8,53.1z M51.5,49c0.7-0.6,1.3-1.4,2.1-1.6c-0.2,0.4-0.6,0.5-0.8,0.9c-0.4,0.4-0.8,0.9-1.2,1.1
			C51.6,49.3,51.5,49.1,51.5,49z M52,49.6c0.1-0.5,0.6-0.8,0.8-1.2c1.9-1.6,3.7-3.4,5.9-4.8c0.5-0.3,1-0.6,1.5-0.8
			c-0.8,1.5-1.6,2.9-2.3,4.4c-1.2,2.3-2.3,4.7-3.5,7.1c-0.4-0.1-0.7-0.2-1.1-0.3c-0.1,0-0.2-0.1-0.3-0.1c-0.4-0.2-0.8-0.4-1.1-0.7
			C51.8,52,52,50.8,52,49.6z M45.7,67.8c0.2-1.6,0.5-3.1,1.4-4.5c0.7-1,1.7-1.7,2.4-2.8c0.3-0.6,0.6-1.1,0.8-1.7
			c0,0,0.2-0.3,0.1-0.3c0.8-1.1,1.6-1.6,2.5-2.7c6.4,0.2,12.8,0.3,19.1,0.6c-0.6,0.8-1.1,1.5-1.5,2.4c-2.7,0-5.4,0-8.1-0.1
			c-1.7-0.1-3.4,0-5.4-0.1c-1.4,0-5.2,0.1-6.6,0.1c2.4,0.1,7.6,0.4,10.1,0.3c3.3,0,6.5,0.3,9.8,0.3c-1,3.7-1.1,7.4-1.3,11.2
			c-0.1,6,0.9,11.8,0.7,17.7c-0.1,2.1-0.3,4-0.5,6.1v0.3c0.5,1.5,0.9,2.8,1.3,4.2c0.1,0.3,0.2,0.7,0.2,1c0.2,0.7,0.4,1.2,0.5,1.8H71
			c-0.6,0-1.3,0-1.9-0.1c-3.8-0.5-7.6-1-11.4-1.5c-1-0.2-1.9-0.3-2.9-0.5c-0.1-0.6-0.3-1.3-0.4-1.9c-0.7-3.4-1.5-6.8-2.6-10.1
			c-0.1-0.2-0.2-0.5-0.2-0.7c0.7,0.6,0.7,0.9,1.4,1.5c0.2,0.2,0.8,0.5,1,0.6c-0.8-0.7-1.6-1.5-2.2-2.4c-0.7-0.9-0.9-2-1.3-3
			c-0.6-1.5-1.1-3.1-2-4.5c-0.5-0.9-1.3-1.5-2-2.2C45.9,73.8,45.5,70.8,45.7,67.8z M39.2,76c2-0.6,4.1-0.2,6,0.6
			c0.4,0.3,0.9,0.5,1.3,0.8c1.1,0.8,1.9,2.1,2.5,3.3c2.5,6,4.4,12.3,5.5,18.7c-0.7-0.1-1.4-0.2-2.1-0.3c-0.4-2.3-0.9-4.5-1.4-6.8
			c-0.9-3.2-1.7-6.6-3.4-9.5c-1.6-2.5-4.7-4-7.7-3.7c-1.3,0.1-2.3,0.9-3,2c-2.1,3.6-2.3,7.9-2.7,12c-0.1-0.7,0-1.5-0.1-2.2
			c-0.1-0.3-0.1-0.7,0-1c0.1-2.5,0.3-5,0.8-7.5c0.5-1.9,1.2-3.8,2.5-5.2C37.9,76.6,38.6,76.3,39.2,76z M33,70.1
			c0.6,1,1.1,2.1,1.8,3.1c0.8,1.3,2.2,2.2,3.5,3c-2.1,1.6-3,4.2-3.6,6.7c-1,5.3-0.8,10.7-0.2,16.1c-1.2-0.3-2.3-1-3.4-1.7
			c-0.3-1.1-0.2-2.3-0.2-3.3c0.1-3.9,0.2-7.8,0.4-11.8c0.1-2.3,0.6-4.6,0.1-6.9c-0.1-0.6-0.3-1.3-0.1-1.9c0.4-0.6,1-1,1.3-1.6
			C32.9,71.3,32.9,70.7,33,70.1z M109.8,50.4c-1.1,0-2.2,0.1-3.3,0.2c-0.9-1-1.3-2.2-1.9-3.2c1.7,1.2,3.6,2.5,5.8,2.6
			C110.2,50.1,110,50.3,109.8,50.4z M110.9,31.8c8.1-0.4,16.2-0.6,24.3,0c4.3,0.3,8.6,0.8,12.8,1.4c1.6,0.3,3.1,0.4,4.6,0.9
			c0.8,0.3,1.5,0.8,2.2,1.3c-0.2,0-0.6,0-0.8,0.1c0.7,0.2,1.4,0.4,2,0.7c4.2,2.7,8.2,5.7,11.9,8.9c0.8,0.7,1.7,1.3,2.4,2
			c0.9,0.9,2.1,1.6,3,2.6c0,0.5-0.5,0.8-0.8,1.2c0.4-0.2,0.7-0.6,1-1c0.4,0.4,0.9,0.8,1.3,1.3c-1.4,0-2.7-0.5-4.1-0.4
			c-2,0-3.9-0.2-5.9-0.3c-3.3-0.2-6.6-0.4-9.9-0.7c-1.3-0.3-2.6-0.3-3.9-0.4c-1.2-0.2-2.4-0.2-3.7-0.3c-0.5-0.1-0.7,0.4-1,0.6
			c0.1,0,0.4,0,0.6,0c0.1-0.1,0.2-0.3,0.2-0.4c1.3,0.2,2.6,0.3,3.9,0.4c0.4,0,0.7,0.1,1.1,0.3c-1.2-0.2-2.4,0-3.6-0.2l-0.4-0.1
			c-1.9,0.1-3.9,0-5.8-0.2c-0.7-0.1-1.3-0.2-2-0.2c-1.5,0-2.9-0.3-4.4-0.3c-1.2,0-2.4-0.1-3.5-0.1c-1.2,0-2.2,1-3.4,0.9
			c-5.1,0-10.1,0.3-15.1,0.4c-1-0.1-2.1-0.2-3.1-0.3c-1.4-0.2-2.7-0.6-3.9-1.4c-1-0.7-2.2-1.3-2.6-2.5c-1.3-2.9-2.6-5.8-3.9-8.7
			c-0.5-1-0.3-2.5,0.6-3.3c-0.8,0.3-0.9,1.3-1.1,2c-0.6-1-0.9-2.1-1.4-3.2C102.6,32.2,106.7,32.1,110.9,31.8z M217.3,62.9
			c-0.2-1.1-0.6-1.7-1.3-2.6c1,0.7,1.7,1.7,2.7,2.4C218.1,62.6,217.7,62.6,217.3,62.9z M110.6,84.2c-2.4,3-4.1,6.5-5,10.1
			c-0.4-4-0.1-8.1,0.8-12c0.5-1.7,1.1-3.4,2-4.9c0.9-1.5,2.1-3,3.8-3.7c1.6-0.5,3.3-0.4,4.9-0.1c2.3,0.5,4.4,1.9,6.1,3.5
			c-1.5,0.3-3.1,0.5-4.5,1.1C115.6,79.5,112.7,81.6,110.6,84.2z M122.8,81.2c-1.8-1-3.9-1.4-5.9-1c-0.6,0.1-1.3,0.4-1.9,0.5
			c2.5-1.6,5.4-3,8.6-3c1.8,2,2.8,4.5,3.8,7c0.2,0.4,0.3,0.8,0.4,1.3C126.5,84.1,124.9,82.3,122.8,81.2z M226.5,82.6
			c0.1,1,0,2.1-0.1,3.2c-0.2-0.2-0.4-0.3-0.4-0.6c0.1-1.5,0.1-3.1,0-4.6c0-0.8-1-1-1.7-0.9c-1.7,0.2-3.4,0.2-5,0.7
			c1.9-0.1,3.7-0.5,5.6-0.5c0.4,0,0.7,0.3,0.9,0.6c-1.6-0.5-3.3,0.2-4.9,0.1c0.1,0.1,0.3,0.2,0.5,0.3c1.2-0.1,2.4-0.4,3.6-0.4
			c0.4,0.2,1,0.3,0.9,0.9c-0.1,1.3,0.1,2.5-0.2,3.8c-0.9,0.3-1.9,0.2-2.9,0.2s-2.1,0.1-3.1,0.1c0.1-0.7-0.4-1.3-0.6-1.9
			c-0.4-0.7-0.8-1.4-1-2.2c1-0.1,1.9-0.4,2.9-0.3c0-0.1,0-0.3,0-0.3c-1,0.1-2.1,0.3-3.1,0.4c0.3-0.5,0.9-0.4,1.3-0.5v-0.1
			c-0.4,0-0.7,0-1.1,0c1.1-1.3,2.9-1.6,4.4-1.8c1.1,0,2.4-0.6,3.4,0.1C226.7,79.9,226.4,81.3,226.5,82.6z M223,97.3
			c-0.4,0.5-1,0.4-1.6,0.4c0-0.3-0.3-0.8,0.1-1c0.3-0.4,0.9-0.1,1.3-0.2v-0.3c-0.4,0-0.8,0-1.2,0c-0.1-0.4-0.4-0.8,0-1.1
			c0.3-0.2,0.6-0.2,0.9-0.3h0.1c-0.4-0.1-0.7-0.2-1.1-0.3c-0.3-0.4-0.1-0.8,0.1-1.1c0.3,0,0.6,0.1,1,0.1c0.1,0.2,0.2,0.5,0.3,0.7
			c-0.1,0.1-0.3,0.4-0.3,0.6c0.1,0,0.3,0,0.5,0C222.9,95.6,223,96.5,223,97.3z M220,98.7c-0.7,0-1.4,0.1-2-0.2
			c0.2-0.2,0.4-0.4,0.6-0.7c-0.4-0.4-0.5-1.2,0.2-1.4h-0.2c-0.2-0.2-0.3-0.4-0.5-0.6c0.1,0.1,0.2,0.4,0.3,0.5
			c-0.2,0.3-0.4,0.5-0.6,0.8c0.1,0,0.2,0,0.3,0c0,0.1-0.1,0.3-0.1,0.4c0.8-0.1,0.3,0.7-0.1,0.9c-0.3-0.4-0.6-0.8-0.7-1.3
			c-0.1,0-0.1,0-0.2,0c-0.1-0.5-0.1-0.9,0-1.4c0.3,0,0.6,0,0.9,0v-0.2c-0.2,0-0.6,0-0.7,0c0.1-0.5,0.1-1,0.3-1.4
			c0.1,0,0.1-0.1,0.2-0.1c-0.1,0-0.1,0-0.2,0c0.1-0.5,0.2-1,0.4-1.5c0.2,0.3,0.4,0.6,0.6,0.9c0.4,0,1-0.2,1.3,0.3
			c0.2,0.3-0.1,0.7-0.2,1c-0.4-0.1-0.8-0.1-1.2-0.2c-0.1,0.4-0.2,0.8-0.3,1.1c0.2-0.3,0.5-0.5,0.7-0.7c0.3-0.1,0.6,0,0.9,0.1
			c0.1-0.3,0.3-0.6,0.4-0.9c0.4,0.1,0.7,0.1,1.1,0.2c0,0.3,0.2,0.6,0,0.9c-0.3,0.3-0.8,0.2-1.2,0.3c-0.2,0.2-0.4,0.4-0.5,0.7
			c-0.2,0.1-0.5,0.1-0.7,0.2c0.3,0,0.5,0.1,0.8,0.1c0.1,0.2,0.2,0.4,0.3,0.6c-0.1,0.1-0.2,0.3-0.2,0.4c0.4-0.1,0.9-0.2,1.3-0.1
			c0.5,0.3,0.1,0.8,0.1,1.2c0.2-0.2,0.4-0.4,0.5-0.6c0.4,0,0.8,0,1.1,0c0,0.1,0,0.4,0,0.6c-0.6,0-1.2,0.1-1.7,0.1l0.1-0.1
			C220.7,98.6,220.4,98.6,220,98.7z M219.8,90.3c-0.4-0.3-0.8-0.3-1.2-0.3c0.1-0.3,0.1-0.7,0.2-1c0.3-0.1,0.7-0.4,1-0.1
			c0.1,0.2,0.2,0.5,0.2,0.7c0.4-0.1,0.8-0.1,1.2-0.2c-0.3,0-0.7,0-1,0c-0.2-0.3-0.3-0.5-0.5-0.7c0.1-0.2,0.3-0.4,0.4-0.5
			c0.4,0,0.7,0,1.1,0c0.2,0.4,0.1,0.8,0,1.2c0.1,0.3,0.2,0.6,0.3,1c0.2-0.1,0.3-0.1,0.6-0.2c-0.2-0.1-0.4-0.2-0.6-0.3
			c-0.2-0.3,0-0.6,0-0.9c0.4,0,0.8-0.1,1.2-0.1c-0.2,0.5-0.4,0.8-0.5,1.3h0.2c0.2,0.2,0.4,0.4,0.7,0.7c-0.2,0.4-0.1,0.9-0.2,1.3
			c-0.1,0.3-0.2,0.7-0.4,1c-0.5,0.2-1.1,0-1.3-0.6c0.1-0.3,0.2-0.5,0.4-0.8c0.4,0,0.8,0,1.2,0.1l-0.1-0.3c-0.4,0-0.8,0-1.2-0.1
			c-0.1-0.2-0.2-0.5-0.3-0.7c-0.4,0-0.8,0-1.2,0c-0.1,0.3-0.3,0.6-0.4,0.9c-0.5,0-1-0.1-1.4-0.4c0.1-0.3,0.2-0.7,0.3-1
			c0.5,0,1.1-0.1,1.4,0.3c0-0.2-0.1-0.5-0.2-0.7L219.8,90.3z M221.7,87.3c0.4-0.1,0.9-0.1,1.3-0.2c0,0.5,0,1-0.1,1.5
			c-0.4,0-0.9,0-1.3,0C221.4,88.1,221.4,87.7,221.7,87.3z M221.6,87.2c-0.1-0.3-0.2-0.7-0.4-1c0.6,0,1.2,0,1.8,0
			c-0.1,0.3-0.1,0.6-0.2,0.9C222.5,87.1,222.1,87.2,221.6,87.2z M223.5,89.1c0.7-0.3,1.5-0.5,2.3-0.5c-0.1,0.9-0.1,1.8-0.2,2.7
			c-1.1-0.1-2.3-0.3-3-1.2C222.6,89.6,223.1,89.3,223.5,89.1z M225.7,87.6c-0.1,0-0.4,0.1-0.5,0.2c-0.3,0-0.6,0-0.9,0.1
			c-0.4,0.2-0.8,0.4-1.2,0.7c0-0.6-0.1-1.3,0.1-1.9c0.1-0.2-0.1-0.4-0.1-0.6c-1.2,0.1-2.5,0-3.7,0.1l0.3-0.4c2-0.2,4.1,0.1,6.1-0.4
			C225.8,86,225.7,86.8,225.7,87.6z M219.5,86.9c0.1,0.1,0.2,0.2,0.2,0.3c-0.2,0.1-0.4,0.1-0.5-0.1C219.3,87,219.5,86.9,219.5,86.9z
			 M219.9,86.9c0.2-0.3,0.4-0.6,0.8-0.5c0.4,0.2,0.6,0.6,0.9,0.9c-0.4,0.4-1,0.6-1.6,0.5c-0.2,0.4-0.4,0.7-0.9,0.8l-0.3-0.1
			c0.1-0.4,0.2-0.9,0.3-1.3C219.6,87.4,220.1,87.7,219.9,86.9z M221.3,93.1c0,0.7-0.9,0.6-1.4,0.6c-0.1-0.4-0.1-0.7,0-1.1
			c-0.3,0.4-0.8,0.5-1.3,0.3c-0.4-0.4-0.2-0.9-0.1-1.3c0.4,0.1,0.8,0.1,1.2,0.2c0.1,0.2,0.2,0.4,0.3,0.6h0.2
			c-0.3-0.2-0.4-0.5-0.5-0.7c0.4-0.5,1-0.6,1.6-0.5c0.2,0.5,0.1,0.9-0.2,1.2c-0.3,0-0.5,0-0.8,0C220.7,92.5,221.4,92.5,221.3,93.1z
			 M221.4,96.4c-0.3,0.5-0.9,0.6-1.4,0.5c-0.1-0.1-0.3-0.3-0.3-0.4c0.2-0.4,0.3-1,0.9-0.8C221.1,95.6,221.3,96,221.4,96.4z
			 M223.1,94.9c0.2-0.7,0.2-1.4,0.1-2.1c-0.1-0.6-0.1-1.2,0-1.8c0.8,0.3,1.6,0.5,2.4,0.5c0,1.9-0.2,3.8-0.3,5.6
			c-0.6,0.7-1.3,1.2-2.2,1.3C223.1,97.2,223,96,223.1,94.9z M225.8,91.3c0.1-1.9,0.1-3.8,0.1-5.7c0.1,0.1,0.3,0.3,0.4,0.4
			c-0.2,2.6-0.3,5.1-0.3,7.7c-0.1,0.8,0.1,1.7-0.4,2.4C225.6,94.5,225.8,92.9,225.8,91.3z M226.3,78.7c-0.8-0.7-1.9-0.5-2.8-0.5
			c-1.9,0.2-3.8,0.4-5.4,1.6c-0.5,0.2-1.1,0.4-1.8,0.7c0,0,0.1,0,0.1-0.1c-0.3,0.1-1.8,0.5-2.2,0.6c0.9-1.3,1.1-2.3,2.5-3.1
			c0.7-0.4,1.5-0.6,2.3-0.7c2.2-0.4,4.5-0.9,6.8-0.5C226,77.3,226.2,78,226.3,78.7z M221.6,72.2c0.3-0.3,0.3-1-0.1-1.3
			c0,0.4,0,0.7,0,1.1c-0.5,0.1-1,0.1-1.5,0.1c0.5-1.8,0-3.7-0.2-5.6l1.6,4.2l0.3,0.2c-0.2-0.9-0.5-1.7-0.7-2.6
			c0-0.2,0.1-0.2,0.2-0.3c0.3,1.4,0.8,2.8,0.8,4.3c-0.1,0.7-0.8,0.6-1.4,0.7c-1.5,0-3-0.1-4.5,0.1c-0.6,0.1-1.1-0.2-1.4-0.6
			c0.9,0.2,1.8,0.2,2.6,0.1C218.7,72.4,220.1,72.4,221.6,72.2z M217.1,71.3l-0.1,0.5c0.1-0.1,0.3-0.4,0.3-0.5c0.1,0.3,0.3,0.7,0.4,1
			c-0.2,0-0.6,0-0.8,0c0-0.2-0.1-0.5-0.1-0.7c-0.1,0.3-0.1,0.5-0.2,0.8c-0.4,0-0.8,0-1.2,0v-0.2c0.5-0.1,1.2-0.3,1.1-0.9
			C216.7,71.3,216.9,71.3,217.1,71.3z M216.1,66.6l0.2-0.3c0.5,1.5,0.5,2.9,0.5,4.5c-0.1,0-0.4,0.1-0.5,0.2
			C216.5,69.7,216.5,68.3,216.1,66.6C216.2,66.6,216.1,66.6,216.1,66.6C216,66.7,216.1,66.6,216.1,66.6z M213.6,66.9l1.6-0.2
			l0.6,0.2c0,0,0,0,0,0C216,67.8,216,69,216,70c0,0.5,0,1.1-0.2,1.6c-0.4,0.1-0.6,0.1-1.1,0.1h-0.3c0-0.1-0.1-0.1-0.1-0.2
			c-0.7-1.3-1.5-2.5-1.5-4.1C212.9,67.1,213.2,66.9,213.6,66.9z M212.5,72.6c-0.1,2.1-1.2,4-2.2,5.7c-0.6,0.8-1.1,1.8-2,2.4
			c0,0,0,0,0,0.1c0,0,0,0,0,0c-0.4-0.1-0.8-0.2-1.1-0.3c0.1-0.1,0.3-0.3,0.4-0.4c-0.1,0-0.3,0-0.4-0.1c-0.2,0.4-0.6,0.5-1,0.6
			c0.5,0,1,0,1.5,0.1V81c-2.4,0-4.8,0.2-7.2,0.1c-1.1-0.1-2.2,0-3.2,0c-0.3,0.1-0.6-0.2-0.8-0.4c2.4-0.2,4.9,0,7.4-0.1
			c0.6,0,1.2,0,1.7,0c-0.2,0-0.5-0.1-0.7-0.1c0,0,0,0,0,0c0.6-1.3,1.2-3.8,1.4-5.2c0.1-1.9,0.4-3.8,0.5-5.7c0-0.8,0.3-1.6-0.1-2.3
			c0.1,0,0.2-0.1,0.3-0.2c0-0.4,0-1,0.5-1.1c0.2,1,0.6,1.9,0.5,2.9c-0.1,1.3-0.2,2.6-0.3,3.9c0.1,0,0.3,0,0.4,0
			c-0.1-0.6-0.1-1.2-0.1-1.8h0.1c0,0.8,0.1,1.7-0.1,2.5c0,0.4,0,0.9,0,1.3h-0.2c0-0.5,0-1,0.1-1.5c-0.1-0.1-0.2-0.3-0.4-0.4
			c0.1,0.8,0,1.6-0.1,2.4c-0.1,1.7-0.2,3.3-0.7,5c0.1,0,0.3-0.1,0.4-0.2c0.4-1.6,0.4-3.2,0.6-4.8c0,1,0.1,1.9,0.3,2.9
			c-0.1,0.6-0.6,1.2-0.7,1.8c0.8-0.6,1.2-1.8,0.9-2.8c-0.3-0.9,0-1.7,0.1-2.6c0.3-2.5,0.2-5.1,0.9-7.5c0.2-0.1,0.4-0.2,0.7-0.3
			c0.2,0.6-0.1,1.5,0.4,2c0,0.2,0,0.4,0,0.7c0.2-0.7,0.2-1.3,0.2-2c-0.1,0-0.2,0.1-0.2,0.1c0,0.2,0,0.4,0,0.6
			c-0.1-0.3-0.2-0.6-0.1-0.9c0.1,0,0.2-0.1,0.3-0.2c0.6,1.1,0.9,2.2,1.3,3.4c0.4,1.3,0.6,2.8,0.1,4.1c-0.9,2.3-2.1,4.4-3.7,6.1
			c0.8-0.7,1.4-1.6,2-2.4c1-1.7,2.1-3.6,2.2-5.7c-0.3-2.1-0.9-4.2-2-6c0,0,0,0,0.1,0c0.1,0.1,0.2,0.3,0.2,0.5l0-0.1
			C211.7,68.7,212.2,70.7,212.5,72.6z M195.6,80.1c0.2-0.6,0.6-1.1,0.6-1.8c0-0.8-0.2-1.5-0.2-2.3c0-1.2,0.4-2.4,0.3-3.6
			c-0.4-0.1-0.4,0.3-0.4,0.6c0,0.4,0,0.7,0,1.1h-0.2c0-0.6,0.2-1.3-0.1-1.8c0,0-0.1,0.1-0.2,0.1c-0.1,2.2-0.3,4.5-0.6,6.7
			c-0.4-0.5-0.7-1.1-1-1.6c0-0.1,0-0.2,0-0.2c0.2-0.3,0.3-0.6,0.3-0.9c0.3-2.7,0.5-5.4,0.8-8.2c0.1-0.4,0-0.8,0.1-1.2
			c0,0,0.1-0.1,0.1-0.1c0.1-0.3,0.2-0.5,0.4-0.7c0,0.1,0,0.1,0.1,0.2c0.3,0.6,0.4,1.3,0.4,2c0,1.2,0.1,2.5-0.2,3.7
			c0.4,0.5,0.5-0.4,0.4-0.7c-0.2-1.1,0.2-2.1,0-3.2c-0.1-0.7-0.2-1.3-0.4-2c0-0.1-0.1-0.3-0.1-0.4c0.2,0,0.2,0,0.3,0.1l0.1,0.1
			c0.3,0.2,0.4,0.8,0.5,1.3c0.2,1.2-0.4,2.3-0.3,3.5c0,0.5-0.1,1.1,0.1,1.6h0.1c0.2-0.7,0.1-1.5,0.2-2.2c0.2-1.4,0.6-3.1-0.3-4.4
			c0-0.1-0.1-0.1-0.1-0.2c0.5-0.1,1.1-0.2,1.6-0.3c0.2,0,0.4,0,0.5,0c-0.4,0.6-0.8,1.3-0.8,2c0.1,4.3-0.3,8.7-1,12.9
			C196.4,80.5,195.9,80.1,195.6,80.1z M196,81.6C196,81.6,196,81.6,196,81.6c-1.3-1.2-2.2-2.7-3.2-4.1c-0.1-0.9-0.1-2-0.1-2.8
			c0,0,0.5,0.1,0.5,0.1c0.1,0.9-0.2,1.8-0.1,2.7C194.1,78.8,194.8,80.4,196,81.6z M199.3,73.8c0-0.4,0-0.9,0.1-1.2
			c0.1,0.6,0,1.3,0,1.9c0,0.5,0,1.3-0.1,1.8C199.2,75.7,199.3,74.4,199.3,73.8C199.3,73.8,199.3,73.8,199.3,73.8z M198.9,74.6
			C198.9,74.6,198.9,74.6,198.9,74.6c0.1,1.5-0.2,3.1-0.4,4.6c0.1,0.1,0.2,0.3,0.3,0.4c0.2-1,0.3-2,0.3-3c0,0,0.1,0,0.2,0
			c0.1,0.5,0.2,1,0.2,1.5c-0.2,0.7-0.6,1.4-0.9,2.2c0-0.2,0.1-0.5,0.1-0.7c-0.1,0-0.3,0-0.4,0c0,0.3,0,0.5-0.1,0.7
			c-0.3,0-0.7,0-1,0.1c0.4-2.8,0.7-5.5,0.9-8.3c0-1.5,0-3,0.1-4.4c0-0.7,0.1-1.5,0.6-2.1c0.1,0.5,0.3,1.1,0.4,1.7
			C199.5,69.6,198.9,72.3,198.9,74.6z M199.9,70.9c0.1,0,0.3,0,0.3,0c-0.1,0.9,0,1.8-0.2,2.7c-0.1,0-0.2,0-0.3,0
			C199.9,72.6,200,71.8,199.9,70.9z M199.8,73.8c0.1,0,0.2,0,0.2,0c0,0.9-0.1,1.8-0.1,2.8c0,0.3,0,0.7-0.2,0.9c-0.1-1,0-2.1,0-3
			C199.7,74.3,199.8,73.9,199.8,73.8z M200.4,72.8c0.2-2.2,0.3-4.4,0.7-6.5c0-0.4,0.3-0.6,0.5-0.9c0.4,1,0.8,2.1,0.7,3.3
			c-0.3,3.9-0.3,7.8-1.1,11.6c-0.4,0-0.8,0-1.2,0C200,77.8,200.3,75.3,200.4,72.8z M200.6,67.4c-0.1,1.1-0.3,2.2-0.3,3.4
			c-0.2,0-0.3,0-0.5,0c0.3-0.7,0.2-1.5,0.4-2.2c0.2-1.1,0.1-2.4-0.6-3.3c0.7-0.2,1.4-0.2,2-0.2C200.7,65.5,200.8,66.6,200.6,67.4z
			 M205.9,67.8c0.1,0,0.3,0,0.4,0c-0.2,0.5-0.1,1-0.1,1.5C206.1,68.8,206.2,68.3,205.9,67.8c-0.1,1-0.2,1.9-0.3,2.8
			c-0.2-0.9,0.1-1.8,0-2.7c-0.1-0.9-0.4-1.8-0.6-2.7c0.1,0.2,0.5,0.3,0.6,0.7c0.1,0.2,0.2,0.3,0.2,0.5c0,0.1,0,0.4,0,0.3
			C205.8,67.1,205.8,67.4,205.9,67.8z M205.5,69c-0.1,1-0.2,2-0.2,3c-0.3,2.3-0.5,5.8-0.9,8.1c0,0.1-0.1,0.1-0.1,0.2
			c-0.3,0-0.7,0-1,0c0.4-3,0.8-6.1,0.8-9.1c0.2-1.6,0.1-3.3,0.2-4.9c0-0.3,0-0.8,0.5-0.8C205.3,66.6,205.6,67.8,205.5,69z M205,79.3
			c0.1-1.2,0.3-2.7,0.3-3.4C205.5,76.8,205.4,78.2,205,79.3z M210.3,66.8C210.2,66.8,210.2,66.8,210.3,66.8
			c-0.2-0.1-0.2-0.1-0.2-0.1c0.1-0.1,0.2-0.2,0.3-0.2c0,0,0,0,0,0C210.3,66.6,210.3,66.6,210.3,66.8L210.3,66.8z M210.8,67.1
			c0-0.1,0-0.1,0-0.2l0-0.2c-0.4-0.7-1.2-1-2-1.4c-1.2-0.5-2.5-0.5-3.8-0.5c1.7,0.1,3.4,0.3,4.7,1.4c-0.3,0.1-0.5,0.1-0.8,0.2
			c-0.2,0.1-0.3,0.3-0.5,0.4c-0.2-0.7-0.6-1.5-1.4-1.6c-0.6,0.3-0.7,1.1-0.9,1.6c-0.2-0.8-0.6-1.5-1.2-2c-0.2,0-0.4,0-0.6,0
			c-0.3,0.3-0.7,0.7-0.6,1.2c-0.1,3.7-0.2,7.4-0.6,11.1c-0.1,0.4-0.1,0.7-0.1,1.1c-0.1,0-0.2,0-0.3,0c0-1-0.3-1.9-0.1-2.9
			c0.2-1.3,0.3-2.7,0.3-4c-0.1-0.1-0.3-0.3-0.4-0.4c0-0.1,0-0.2,0.1-0.3c-0.1-1.5,0.3-3.1-0.4-4.5c0-0.3-0.1-0.5-0.1-0.8
			c0.9,0.3,0.9,1.3,0.9,2.1c-0.1,1.2-0.3,2.3-0.4,3.5c0.1,0,0.3,0,0.4-0.1c-0.4-1.3,0.4-2.5,0.2-3.9c-0.1-0.8-0.4-1.4-1-1.9
			c0.6,0,1.1-0.1,1.6-0.2c0.1,0,0.1,0,0.2,0c0.1,0,0.2,0,0.4,0c0.2,0,0.4,0,0.6,0h0.1c1.3,0,2.6,0,3.8,0.5c0.8,0.4,1.6,0.7,2,1.4
			L210.8,67.1z M192.9,66.6c0.8-0.5,0.3-2,1.2-2.4c1.1-0.5,2.3-0.6,3.4-0.7c2-0.2,3.9-0.2,5.9-0.3c1.7,0,3.5-0.1,5.2,0.6
			c0.7,0.4,1.5,0.8,2,1.4c-0.6-0.5-1.3-0.9-1.9-1.3c-1.7-0.7-3.5-0.6-5.2-0.6c-2,0.1-3.9,0.1-5.9,0.3c-1.1,0.1-2.3,0.2-3.4,0.7
			C193.3,64.7,193.8,66.2,192.9,66.6c-0.3,0.1-0.7,0.1-1.1,0c0,0-0.1-0.1-0.1-0.1C192.1,66.6,192.5,66.6,192.9,66.6z M188.1,80.2
			c0.2-0.6,0.5-1.1,0.8-1.6c0.5-0.7-0.2-1.6-0.1-2.5c0.1-1.2,0.3-2.4,0.3-3.7c0-1.4,0.2-2.9,0.4-4.3c0.2-0.9-0.2-1.8-0.6-2.6
			c0.5,0.2,1.1,0.6,1.3,1.1c0.5,1.3,0.1,2.7,0.1,4c-0.2,1.5-0.1,3.1-0.4,4.6c-0.2,1.9-0.1,4-1.3,5.6c0,0,0,0-0.1-0.1
			c-0.1-0.1-0.1-0.1-0.2-0.2c-0.1-0.1-0.3-0.1-0.5-0.1c0.2,0,0.2-0.1,0.4,0C188.1,80.3,188.1,80.3,188.1,80.2z M186,63.2
			c1.3,0.1,2.4,0.3,3.5,0.6c0.4,0.2,0.6,0.4,0.9,0.7c-0.2-0.2-0.5-0.5-0.8-0.6C188.5,63.6,187.3,63.4,186,63.2L186,63.2z
			 M187.3,65.4c-0.2,0.2-0.3,0.4-0.3,0.7c0.1-0.3,0.3-0.5,0.6-0.7c0.5,1.2,1.1,2.3,1,3.6c-0.4,3.8-0.3,7.6-1.1,11.3
			c-0.5,0.1-1,0.2-1.6,0.3c-0.2-1-0.2-2,0.2-3c0.9-1.3,1.2-3.1,1.1-4.6c0-0.3-0.2-4.1-0.2-5.1c0-0.1,0-0.2,0-0.2
			c-0.1-0.5,0-1.4,0-1.7c-0.2,0.6-0.2,1.8,0,2.7c0,2.1,0.1,6.6-0.3,7.8c-0.2,0.7-0.7,1.2-0.8,1.9c-0.1,0-0.3,0-0.3,0
			c-0.2-1.3-0.3-2.8-0.2-4.1c0.1-1.9,0-3.9,0.4-5.8c0.2-1.1,0.1-2.3-0.7-3.2C185.8,65.3,186.5,65.3,187.3,65.4z M185.3,66.2
			c0.4,1,0.1,2,0,3c-0.2,1.7-0.1,3.4-0.3,5.1l0,0c0,0.5,0,1.1,0,1.6l-0.2,0.3c0-2.2,0.3-4.4,0.3-6.6c0.1-1.1,0-2.2-0.5-3.2
			c-0.1-0.3-0.3-0.7-0.4-1C184.6,65.3,185.1,65.6,185.3,66.2z M183.7,65c-0.4,0.6-0.8,1.2-0.7,2c0.3,2.1,0.4,4.3,0.4,6.5
			c-0.1,1.4-0.3,2.9-1.2,4.1c-0.2-0.6-0.4-1.3-0.3-2c0.2-1.7,0.2-3.4,0.2-5.1c0.1-1.3,0.5-2.5,0.3-3.8c-0.1-0.7-0.6-1.2-1-1.8
			C182.2,65,183,65,183.7,65z M181.9,78.9c0.1,0,0.2,0.1,0.3,0.1c-0.1-0.8,0.3-1.6,0.7-2.3c0.9-1.9,0.6-4.1,0.7-6.2
			c0-1.3-0.2-2.6-0.3-3.9c-0.1-0.6,0.2-1.2,0.7-1.5c0.3,1.2,0.8,2.3,0.8,3.5c-0.1,2.4-0.1,4.9-0.3,7.3c-0.2,1.2-0.2,2.4-0.4,3.6
			c0.6-0.7,0.4-1.8,0.6-2.8c0.1-0.1,0.2-0.2,0.2-0.3c0.1,0.6,0.3,1.2,0.4,1.8c-0.4,0.6-0.6,1.3-1,2c0-0.2,0.1-0.7,0.1-1
			c-0.4,0.2-0.3,0.7-0.5,1c-0.6,0-1.1-0.1-1.7-0.1c-0.1-0.3,0-0.8-0.2-1c0,0.4,0,0.7,0.1,1.1c-0.2,0-0.5,0-0.7,0
			C181.5,79.8,181.7,79.3,181.9,78.9z M180.2,65c-0.2,0.2-0.3,0.5-0.4,0.7C179.9,65.5,180.1,65.3,180.2,65c0.5,1.2,1.1,2.3,1.1,3.5
			c-0.1,3.9,0,7.9-0.7,11.8c-0.6,0-1.2,0-1.9,0c-0.1-1,0.6-2.2,0.5-3.2c0-1.3,0.8-7.3,0.6-8.6c0.1,1.5-0.7,6.6-0.8,8.5c0,0,0,0,0,0
			c-0.1,0.1-0.1,0.3-0.2,0.4c-0.3-0.8-0.4-1.6-0.3-2.4c0.3-1.9,0.1-3.8,0.2-5.7c0.1-1.1,0.3-2.1,0-3.1c-0.1-0.5-0.6-0.9-0.9-1.3
			C178.6,64.9,179.4,65,180.2,65z M177,64.8c-0.5,0.5-0.9,1.3-0.8,2c0.1,0.3,0.1,0.6,0.2,1c0-0.2,0-0.4-0.1-0.7
			c-0.1-0.7,0.1-1.4,0.6-1.9c0.2,0.8,0.8,1.6,0.9,2.5c0.2,1.8-0.1,3.6,0,5.4c-0.1,2.4-0.1,4.8-0.6,7.1c-0.6,0-1.2,0-1.9,0
			c-0.3-0.9,0-1.9,0.2-2.8c0.5-0.9,0.9-1.8,1-2.8c0.2-2.2,0.2-4.5-0.1-6.7c0.1,1,0.2,2,0.1,2.9c0,2.1,0.2,4.2-0.8,6.1
			c-0.1,0.1-0.2,0.2-0.3,0.2c-0.4-1.2-0.1-2.4-0.1-3.7c0-1.8-0.1-3.5,0.2-5.3c0.2-1.3-0.2-2.6-1.3-3.4C175.1,64.8,176,64.8,177,64.8
			z M174.4,79.2c0,0,0.1-0.1,0.2-0.1c0.3-3.4,0.3-6.8,0.3-10.2c0-1-0.2-2-0.6-2.8c-0.2-0.3-0.3-0.6-0.3-1c0.5,0.3,1.1,0.7,1.3,1.4
			c0.4,1.2-0.1,2.4,0,3.6c-0.2,2,0.1,3.9-0.3,5.9c-0.1,0.7,0.3,1.4,0.2,2.1c-0.2,0.8-0.5,1.5-0.8,2.2c0-0.2-0.1-0.5-0.1-0.7
			c-0.2,0.1-0.3,0.3-0.3,0.6c-0.7-0.5-1.3-1-1.9-1.6c-0.2-0.3-0.1-0.7-0.1-1c1.6-2,1.3-4.7,1.3-7.1c0.1-1.4-0.2-2.7-0.3-4
			c-0.1-0.5,0.3-0.9,0.6-1.3c0.4,1,1,2,1,3.1c0,3.6,0.1,7.3-0.3,10.9H174.4z M173.1,65.1c-0.4,0.8-0.4,1.6-0.3,2.4
			c0.2,1.9,0.2,3.8,0.2,5.6c-0.1,1.5-0.1,3.4-1.4,4.4c0-1.1,0.1-2.3,0.2-3.4c0-1.1-0.1-2.3,0-3.4c0.1-0.8,0.3-1.6,0.2-2.4
			c-0.1-0.7-0.5-1.4-0.8-2C171.8,65.8,172.4,65.4,173.1,65.1z M170.5,67.1c0.3,0.9,0.6,1.8,0.6,2.8c-0.1,2.6-0.1,5.1-0.2,7.6
			c-0.4-0.4-0.8-0.8-1.2-1.2c0.2-0.5,0.5-0.9,0.5-1.4c0.1-0.5-0.4-0.8-0.5-1.3c-0.2-1,0.1-2,0.1-3c0-0.3,0.2-0.6,0.3-0.9
			c0-0.5-0.2-0.9-0.5-1.3C169.9,68,170.2,67.5,170.5,67.1z M168.9,66.4c0.1,0,0.1,0,0.1,0.1c-1.3,1.7-2.3,3.7-3.1,5.7
			C166.7,70.2,167.7,68.2,168.9,66.4z M165.7,73.4c0,0.1,0.1,0.2,0.1,0.3c0.8,1.1,1.5,2.2,2.5,3.2c0,0-0.1-0.1-0.1-0.1
			c-1-1-1.7-2-2.4-3.1c0,0,0,0,0,0C165.8,73.6,165.7,73.5,165.7,73.4z M167.6,73.2c0.2-1.1,0.7-2.2,1.2-3.2c0.1,0.4,0,0.8,0,1.2
			c0,1.4,0,2.7,0,4.1C168.3,74.7,167.7,74,167.6,73.2z M130.1,63.1c2.4-0.9,5.1-0.9,7.6-0.9c2.3,0,4.7,0.3,7,0.5
			c4.3,0.5,8.5,1.4,12.9,1.8c2.3,0.3,4.6,0.6,6.9,1.1c0.6,0.7,1.1,1.6,1,2.6c-0.4,0.9-1,1.6-1.6,2.3c-0.5,0.8-1.3,1.3-2,1.9
			c-0.6,0.4-1.4,0.8-2,0.3c0.4-0.1,0.8-0.2,1.1-0.4c1.1-0.8,2-1.8,2.8-2.8c0.5-0.7,1.1-1.5,0.8-2.4c-0.1-0.3-0.2-0.8-0.6-0.9
			c-1.7-0.7-3.6-0.8-5.4-1c-5.3-0.5-10.6-1.2-15.9-1.7c-3.4-0.3-6.8-0.8-10.2-0.3c-1.8,0.2-3.5,1.3-4.5,2.8c2.6,2.8,5.8,5.3,9.5,6.3
			c0-0.2,2.1,0.5,1.9,0.3c0.1,0-1.8-0.8-1.7-0.8c-0.6-1.2-1.6-2.3-1.7-3.7c0.1-0.9,0.9-1.5,1.4-2.2c0.2-0.5,0.8-0.2,1.2-0.2
			c-0.2,0.3-0.5,0.5-0.7,0.8c0.1,0.1,0.2,0.2,0.3,0.3l0.2-0.3c0.3-0.5,0.4-0.9,0.7-1.3c1.3,0,2,0.1,3.3,0.2c0.8,0,1.4,1,1.6,1.6
			c0.4,1.6-0.2,3.8-1.7,4.8c-1.1,0.1-1.7,0-2.7-0.1c-0.1-0.1-0.4-0.3-0.5-0.4c0,0,0.3,0.5,0.4,0.6c-0.1,0-0.4-0.1-0.6-0.1
			c-0.7-1-1.4-2-1.9-3.1c0.2-0.5,0.8-1.4,1.1-1.8c-0.1-0.1-0.2-0.2-0.3-0.3c-0.3,0.6-1,1.6-0.9,2.3c0.2,0.8,0.8,1.4,1.2,2.1
			c0.2,0.3,0.4,0.8,0.8,1c1.4,0.4,2.8,0.2,4.2,0.3c0.7,0,1.4,0,2-0.3c0.4-0.3,0.7-0.8,1.1-1.2c0.1,0,0.3,0,0.5,0
			c0-0.1,0.1-0.2,0.1-0.3c-0.4,0-0.8,0-1.3,0.1c-0.3,0.3-0.5,0.7-0.9,1c-0.4,0.3-0.9,0.3-1.4,0.4c0.4-0.8,0.9-1.5,1.1-2.3
			c0.3-1.4,0.1-2.8-0.5-4.1c1.8,0.1,3.7,0.2,5.5,0.4c-0.5,0.8-1.3,1.6-1.1,2.6c0.2,1.2,0.9,2.3,1.5,3.4c-0.5,0-1,0-1.4,0.1
			c0.5,0.4,1.2,0.2,1.8,0.1c-0.6-1.3-1.6-2.5-1.6-4c0.2-0.8,0.8-1.6,1.3-2.2c0.3,0,0.5,0.1,0.8,0.1c-0.5,0.7-1.1,1.6-1.5,2.4
			c0.1,0.5,0.3,0.9,0.5,1.4c0.2,0.3,0.3,0.6,0.5,0.9s0.4,0.5,0.6,0.8c0,0.1,0.1,0.4,0.1,0.5c1.1,0.4,2.2,0.3,3.3,0.3
			c1,0,2.1,0.1,2.9-0.6c0.5-0.4,0.5-1.2,1.3-1.1c0,0.9-1,1.3-1.5,2c-2.5,0-5,0-7.5-0.2c-0.4,0-0.7-0.1-1-0.3
			c-0.8,0.3-1.7,0.1-2.5,0.1c-0.2,0.1-0.3,0.3-0.5,0.4c0.8,0.2,1.7,0.1,2.5,0.2c-1,0.6-2.1,0.4-3.2,0.4c-1.5-0.2-3-0.2-4.5-0.4
			c-0.8-0.2-2-0.6-2.9-0.6c0.6,0.3,1.7,0.5,2.3,0.7c1.7,0.3,3.5,0.5,5.3,0.5c1.1,0.1,2.5,0.3,3.3-0.6c4,0.4,8.1,0.5,12.1,0.2
			c0,0.1,0,0.3-0.1,0.4c-3.5,0.2-7.1,0-10.6-0.1c-0.5,0-1,0.2-1.6,0.4c-2.1,0.7-4.4,0.3-6.6,0.2c-0.7,0-1.5-0.4-2.1,0.1
			c2.4,0.4,4.8,0.6,7.2,0.5c1,0,2-0.6,3-0.7c3,0.2,6.1,0.2,9.1,0.3c1-0.1,2.1-0.1,3-0.5c1.6-0.5,2.7-1.9,3.7-3.2
			c0.4-0.7,1-1.3,1.2-2.1c0-0.9-0.5-1.6-0.8-2.4c1,0.1,1.9,0.3,2.8,0.4c0,0,0,0,0,0c0,0,0,0,0,0c0,0,0,0,0,0c0,0,0,0,0,0
			c0,0,0,0,0,0c-1.2,1.8-2.2,3.6-2.9,5.7c-0.2,0.5-0.2,1.1,0.2,1.5c0.2,0.5,0.5,0.9,0.8,1.3c1.8,2.6,4.1,4.9,6.8,6.6
			c2.2,1.3,4.7,1.6,7.2,1.7c2,0,3.9,0,5.9-0.2c1-0.1,2.1,0,3.1-0.3c1.7-1,1.9-3.1,2.4-4.8c0.4,0,0.7,0,1.1,0.1
			c1.1,1.6,2.1,3.4,3.7,4.7c2.8,0.1,5.7,0.2,8.5,0.1c1.3,0,2.7-0.1,3.9-0.4c0.8-0.2,1.4-0.9,1.9-1.6c0.7-0.9,1.4-1.9,1.9-3
			c0.9-1.8,1.9-3.8,1.4-5.9c0,0.1,0.1,0.3,0.2,0.5c0.4,0.6,0.7,1.4,1.5,1.4c1.8,0,3.6-0.1,5.5-0.1c0.1-0.4,0.8-0.7,0.9-1.5
			c1.5,0.9,2.6,2.4,3.3,4c-1.5,0-3-0.1-4.5,0.2c-1.7,0.3-3.8,0.2-5.2,1.4c-0.3,0.2-0.6,0.6-0.9,1c-0.7,0.9-1.2,1.9-1.8,2.9
			c0.2-0.1,0.6-0.2,1-0.4c0,0-0.1,0-0.1,0.1c1-0.3,2.3-0.4,3.3-0.7c-0.3,0.7,0,1.1,0.3,1.9c0.4,0.9,1.1,1.7,1.3,2.7
			c-0.6,3.6-1.9,7-2.5,10.6c-0.2,1,0.2,2.1,0.9,2.9c0.4,0.3,0.8,0.7,1.3,0.6c1.6-0.1,3.1,0.1,4.7-0.3c1.1-0.3,2.1-1.1,2.5-2.1
			c0,1.4,0.8,2.6,0.5,4.2c0,0.2-0.1,0.5-0.3,0.5c-0.6,0.1-1,0.1-1.6,0.1c-2,0.1-4.1-0.1-6.1-0.4c-1.9-0.3-3-1.6-4-3.2
			c0.9-0.8,1.3-1.2,1.7-2.3c0.3-0.8,0.5-1.7,0.6-2.6V93c0.1-0.2,0.1-0.5,0.1-0.7c0.2-1.7,0.5-3.5,0.6-5.3c-0.3-1.3-1-2.4-1.8-3.4
			c-1.2-0.1-2.4-0.2-3.6,0c-0.3,0.4-0.5,0.8-0.8,1.2c-1,0-1.9,0.1-2.9,0.1c-0.2-0.9-1-1.5-1.9-1.5L179,83.5c-0.8,0-1.5,0.5-1.8,1.2
			v0.1c-0.7,0-1.5,0-2.2,0.1c-0.5,0-0.9,0-1.3,0.1c-0.7-0.6-1.4-1.1-2.2-1.5c-1.2-1-2.1-2.2-3.4-3.1c-1.6-1.3-3.5-2.4-5.6-2.8
			c-2.5-0.6-5.1-0.9-7.6-1.1c-2.2-0.3-4.4-0.3-6.6-0.3c-1.8-0.1-3.5-0.1-5.3,0.1c-0.8,0-1.5,0.2-2.2,0.4c-0.9-1.3-2.1-2.4-3.3-3.4
			c0.4,0.1,0.8,0.2,1.2,0.3c0-0.2,0-0.3,0-0.5c-1.7-0.4-3.1-1.3-4.6-2c-2.7-1.6-5.3-3.3-7.4-5.6C127.8,64.6,128.8,63.6,130.1,63.1z
			 M155.4,72.1c-1.3,0.1-2.4,0.1-3.7-0.2c-0.2,0-0.4-0.1-0.6-0.1c0-0.1-0.1-0.3-0.1-0.4c-0.1-0.7-0.4-1.2-0.5-1.9
			c-0.1-0.9,0-1.9,0.2-2.8c0.1-0.2,0.4-0.5,0.6-0.7c1.8,0.2,3,0.2,4.8,0.4l1,0.1c1.2,0.1,2.2,0.1,3.4,0.3c1.3,0.1,2.3,0.4,3.6,0.3
			c0,0.1,0.1,0.3,0.2,0.5c0.1,0.7-0.4,1.2-0.7,1.8c-0.8,1-1.6,1.9-2.6,2.7c-1.1,0.9-2.6,0.6-3.8,0.5c0.6-0.6,1.2-1.2,1.3-2.1
			c-0.3,0-0.6,0-1,0c-0.2,0.7-0.8,1.4-1.6,1.5c0.1-0.2,0.2-0.5,0.2-0.7C155.9,71.6,155.7,71.8,155.4,72.1z M135.6,68.6
			c0.3,1.1,0.9,2,1.5,2.9c-1.1,0.2-2-0.4-2.9-0.9c-1.9-1-3.4-2.6-4.7-4.3c0.6-0.5,1.1-1.2,1.8-1.7c1.4-0.2,2.8,0.1,4.2,0.1
			c1.1,0,2.2,0.2,3.3,0.2c0,0.1,0,0.1,0,0.2c-0.5,0-1-0.1-1.5,0.1c-0.5,0.6-1,1.2-1.4,1.8C135.5,67.6,135.5,68.1,135.6,68.6z
			 M209.7,99.9c-0.5-0.1-0.9-0.2-1.3-0.4c-0.7-0.3-1.6-0.3-2.4-0.3c0.1-0.2,0.3-0.5,0.3-0.7c-0.2-0.3-0.4-0.5-0.7-0.7
			c0.2-0.3,0.5-0.6,0.7-0.9c0-0.1-0.1-0.1-0.1-0.2c0.1,0.3-0.4,0.6-0.7,0.9c-0.5,0-1.1,0-1.6,0.1c-0.2-0.3-0.5-0.6-0.8-0.9
			c0.2-0.2,0.5-0.5,0.7-0.7c0.6,0.1,1.4-0.2,1.9,0.2c0-0.1-0.1-0.1-0.1-0.2C205,96,204.5,96,204,96c-0.3-0.2-0.6-0.5-0.9-0.7
			c0.3-0.3,0.5-0.5,0.8-0.8c0.6,0,1.2,0,1.8,0l-0.1-0.1c0.3-0.2,0.6-0.5,0.8-0.7c0,0,0,0-0.1-0.1c-0.3,0.3-0.5,0.5-0.7,0.7
			c-0.5,0.1-1.1,0.1-1.6,0c-0.3-0.1-0.6-0.4-0.9-0.7c0.3-0.3,0.5-0.6,0.8-0.9c0.1,0,0.1,0,0.1,0c-0.2-0.1-0.4-0.1-0.5-0.3
			c0.1,0.1,0.1,0.2,0.2,0.3c-0.2,0.2-0.4,0.5-0.6,0.7c-0.6,0.1-1.2,0.1-1.8,0.2l-0.1-0.1c-0.2,0.2-0.4,0.5-0.6,0.7
			c0.2-0.2,0.4-0.4,0.6-0.6c0.6,0,1.1,0,1.7,0.1c0.3,0.3,0.5,0.5,0.8,0.8c-0.3,0.2-0.5,0.6-0.8,0.7h0.1c0.3,0.3,0.5,0.5,0.8,0.8
			c-0.3,0.3-0.5,0.5-0.8,0.8c-0.6,0-1.1,0-1.7,0c-0.2,0.2-0.4,0.4-0.6,0.6c0.2-0.2,0.4-0.4,0.7-0.4c0.5-0.1,1.1,0,1.6,0
			c0.3,0.2,0.5,0.5,0.8,0.7c-0.3,0.2-0.5,0.6-0.9,0.7c-0.6,0.1-1.1,0-1.7,0c-0.2,0.2-0.4,0.4-0.6,0.7c-0.7,0-1.4,0.1-2.1,0
			c-0.2-0.2-0.4-0.4-0.6-0.7c0.3-0.2,0.5-0.5,0.9-0.7c0.6-0.1,1.1,0,1.7,0l-0.1-0.1c0.1,0,0.1-0.1,0.2-0.1c-0.6,0.1-1.2,0.1-1.8,0
			c-0.4-0.2-0.6-0.5-0.9-0.7c0.2-0.2,0.4-0.4,0.7-0.7c0.6,0,1.2,0,1.8,0c0,0.1,0,0.3,0.1,0.3c0.1,0,0.3,0,0.4,0.1
			c-0.2-0.2-0.3-0.3-0.5-0.5c0,0,0.1,0,0.1-0.1c-0.1,0-0.1,0.1-0.2,0.1c-0.5,0-1,0-1.5,0c-0.4-0.2-0.6-0.5-0.9-0.8
			c0.2-0.2,0.5-0.5,0.7-0.7c0.6,0,1.2,0,1.8,0c0.3,0.3,0.5,0.5,0.8,0.8l0.1-0.1c0.6,0,1,0,1.6,0c-0.5,0-1.2-0.1-1.8-0.1
			c-0.2-0.2-0.4-0.5-0.7-0.7c0.1-0.1,0.1-0.1,0.2-0.2c-0.6,0.2-1.2,0.1-1.8,0.1c-0.4-0.2-0.7-0.5-1-0.7c0.2-0.2,0.4-0.4,0.6-0.7
			c0.6-0.1,1.3-0.3,2-0.1c0.1,0.1,0.2,0.2,0.3,0.2c-0.1-0.1-0.1-0.2-0.2-0.2c-0.1-0.4,0.3-0.5,0.6-0.7c0.8,0,1.8-0.2,2.4,0.3
			c-0.1-0.1-0.1-0.2-0.2-0.3c1,0,2-0.1,3,0c-0.3,0.1-0.4,0.6-0.8,0.6h0.1l0.1,0.1c0.2-0.2,0.3-0.4,0.5-0.6c1.2-0.3,2.5,0,3.7-0.2
			c0,0.2,0,0.5,0,0.7c-0.2,0.9-0.2,1.8-0.4,2.6l0,0.2c-0.3,1-0.2,2.1-0.4,3.2C209.3,99.1,209.5,99.5,209.7,99.9z M203.1,98.5
			c0.2-0.2,0.5-0.5,0.7-0.7c0.6-0.1,1.2,0,1.7,0c0.2,0.2,0.4,0.4,0.7,0.7c-0.1,0.2-0.2,0.5-0.3,0.7c-0.7,0-1.5,0.1-2.2,0.1
			C203.6,98.9,203.3,98.7,203.1,98.5z M203.6,99.2c-1,0-2,0-3,0c0.3-0.2,0.5-0.5,0.8-0.7c0.6,0,1.1,0,1.7,0
			C203.2,98.7,203.5,99,203.6,99.2z M179.1,99.5l0.3,0.3c-1.1,0-2.3,0.1-3.4,0.1c-0.1-0.1-0.3-0.2-0.4-0.3c0.3-0.2,0.5-0.5,0.8-0.6
			c0.6-0.2,1.2-0.1,1.8-0.1C178.5,99.1,178.7,99.4,179.1,99.5c-0.3-0.2-0.6-0.4-0.8-0.6c0.6-0.9,1.6-0.8,2.5-0.8
			c0.3,0.3,0.6,0.6,0.9,0.9c0.6,0,1.2,0,1.8-0.1c0.3,0.3,0.5,0.6,0.8,0.8c-0.6,0-1.3,0.1-1.9,0.1c-0.5,0-1,0-1.5,0l0.2-0.2
			C180.3,99.5,179.7,99.5,179.1,99.5z M172.1,85.5c0.6,0.2,0.7,0.8,0.8,1.3c0.1,0.8,0.2,1.5,0.3,2.2c-0.1,0.1-0.1,0.1-0.2,0.1
			c0.1,0.1,0.2,0.1,0.3,0.2c0.1,0.9,0.1,1.6,0.2,2.4c-2.8,0-5.6,0.2-8.3,0.3c-0.1-0.7-0.1-1.4-0.1-2.2c-0.2-0.7-0.1-1.3-0.2-2
			c-0.3-1.2,0.8-2.4,2-2.5c1.2-0.1,2.5,0,3.7-0.1c0,0.1,0,0.2,0,0.3C171.1,85.3,171.6,85.2,172.1,85.5z M170.2,92.8
			c1.2,0,2.3-0.1,3.5-0.1c0,2.3,0.3,4.6,0.3,6.8c-0.4,0.4-1,0.5-1.6,0.4c-1.6-0.3-3-1-4.4-1.8c-0.5-0.4-1.1-0.7-1.4-1.2
			c-0.8-1.1-1-2.6-1.1-3.9C167,92.7,168.6,92.8,170.2,92.8z M173.8,85.4c0.3,0,0.6-0.1,0.8-0.1c0.8,0,1.6,0,2.4-0.1
			c0,0.1,0,0.2,0,0.3l0.1,4.9c0,0.5,0.2,1,0.6,1.3c0.4,0.4,0.8,0.5,1.4,0.5h-1.6c-1,0-2.1,0.1-2.7,0.1
			C174.5,90,174.1,87.7,173.8,85.4z M207.9,90c0,0.7-0.6,1.4-1.4,1.4l-27.4,0.4c-0.4,0-0.7-0.1-1-0.4c-0.3-0.3-0.4-0.6-0.4-1
			l-0.1-4.9c0-0.1,0-0.2,0-0.2c0-0.1,0-0.2,0.1-0.3c0.2-0.5,0.7-0.9,1.3-0.9l27.4-0.4c0.7,0,1.3,0.5,1.4,1.1c0,0.1,0,0.2,0,0.3
			L207.9,90z M208.3,85c0.9,0,1.7,0,2.6,0c-0.2,2.2-0.6,4.5-0.9,6.7c-1,0-2.1,0-3.1,0.1c0.9-0.2,1.5-1,1.5-1.9L208.3,85z
			 M211.4,88.8c0.7-0.7,1.6-1.3,2.2-2.2c0.2-0.4,0.5-0.9,0.6-1.3c-0.1-0.2-0.6-0.4-0.7-0.7c0.6,0,1.2,0,1.9,0.1
			c0.8,0.4,1.3,1.4,1.1,2.3c-0.2,1.3-0.4,2.6-0.6,4c-1.7,0.1-3.3,0.3-5,0.3C211.1,90.5,211.1,89.6,211.4,88.8z M211.3,88.3
			c0.2-1,0.1-2,0.4-2.9c0.5-1,1.6-0.7,2.1,0c-0.3,1.1-1.1,2-1.9,2.8C211.7,88.4,211.1,89,211.3,88.3z M197.7,95
			c-0.5,0.1-1,0-1.6,0.1c-0.1-0.5-0.2-1-0.3-1.5c0.7,0,1.3-0.1,1.9,0c0.3,0.2,0.5,0.5,0.8,0.7C198.2,94.5,198,94.8,197.7,95z
			 M197.8,95.3c0.2,0.3,0.5,0.5,0.8,0.7c-0.3,0.3-0.5,0.5-0.8,0.7c-0.5,0.1-1,0-1.6,0c0-0.5,0-1,0-1.5
			C196.7,95.3,197.2,95.3,197.8,95.3z M197.6,93.4c-0.6,0-1.2,0-1.8,0c-0.1-0.4-0.2-0.8-0.3-1.3c1,0.2,2.3-0.4,2.9,0.6
			C198.1,92.9,197.8,93.2,197.6,93.4z M198.1,92.1c0.9,0,1.8,0,2.7,0c-0.1,0.1-0.4,0.4-0.5,0.5c-0.6,0-1.2,0-1.8,0.1
			C198.4,92.6,198.2,92.3,198.1,92.1z M178.9,98c-0.3,0.2-0.5,0.5-0.8,0.8c-0.6,0-1.2,0-1.8,0c-0.3-0.3-0.5-0.5-0.8-0.8
			c0.3-0.2,0.5-0.5,0.8-0.7c0.6-0.1,1.2-0.1,1.8-0.1c-0.6,0-1.2,0-1.8-0.1c-0.3-0.2-0.6-0.4-1-0.7c0.3-0.3,0.6-0.6,0.9-0.8
			c0.6-0.1,1.2,0,1.8,0c0.3,0.3,0.5,0.5,0.8,0.8c-0.1,0.1-0.2,0.3-0.3,0.4c0.1-0.1,0.3-0.3,0.4-0.4c0.6,0,1.2,0,1.8,0
			c0.2,0.2,0.5,0.5,0.7,0.7c-0.1,0.2-0.2,0.3-0.3,0.5c0.2-0.2,0.4-0.3,0.5-0.4c0.6,0,1.1,0,1.7-0.1c0.3,0.3,0.6,0.5,0.8,0.8
			c-0.3,0.2-0.5,0.5-0.8,0.7c-0.8,0-1.7,0.3-2.3-0.4c-0.1-0.1-0.1-0.2-0.1-0.4c0,0.1-0.1,0.1-0.1,0.2c-0.6,0-1.2,0-1.7,0.1
			c-0.4-0.4-0.7-0.7-1-1c0,0,0,0,0,0.1C178.4,97.5,178.6,97.7,178.9,98z M175.4,98c0-0.5-0.1-1-0.1-1.5c0.3,0.2,0.6,0.4,0.9,0.6
			C176,97.4,175.7,97.7,175.4,98z M177.9,93.9c0.2-0.3,0.5-0.5,0.7-0.8c0.3,0,0.6,0,1,0c-0.1-0.1-0.3-0.1-0.4-0.2
			c-0.3,0.1-0.6,0-0.6-0.3c0.7-0.2,1.6-0.1,2.3-0.1l-0.3,0.3c-0.1,0-0.2,0.1-0.3,0.1c0.4,0.3,0.7,0.6,1,0.9
			c-0.2,0.3-0.5,0.5-0.7,0.8c-0.5,0-0.9,0-1.4,0c-0.3,0-0.5,0-0.7-0.2c0.1,0.1,0.2,0.2,0.3,0.3c-0.3,0.2-0.6,0.5-0.9,0.7
			c-0.6,0-1.1,0-1.7,0c-0.4-0.1-0.6-0.5-0.9-0.7c0.2-0.3,0.5-0.5,0.7-0.8C176.6,93.9,177.2,93.8,177.9,93.9c0.1,0.1,0.2,0.2,0.3,0.3
			C178.1,94.1,178,94,177.9,93.9z M183.5,92.4c0.1,0.1,0.3,0.4,0.4,0.6c-0.3,0.3-0.5,0.6-0.8,0.8c-0.5,0-0.9,0-1.4,0
			c-0.5-0.1-0.8-0.5-1.1-0.8C181.3,92.1,182.5,92.6,183.5,92.4z M180.6,94.7c0.2,0.2,0.5,0.5,0.9,0.7c-0.2,0.2-0.4,0.5-0.7,0.7
			c-0.7,0.1-1.3,0.1-2,0c-0.2-0.2-0.5-0.5-0.7-0.7c0.3-0.2,0.6-0.6,1-0.7C179.6,94.7,180.1,94.7,180.6,94.7z M181.5,97
			c-0.2-0.3-0.5-0.5-0.7-0.8c0.3-0.2,0.5-0.5,0.8-0.7c0.6,0,1.2,0,1.8,0c0.2,0.3,0.5,0.5,0.7,0.8c-0.2,0.2-0.4,0.4-0.6,0.6
			C182.8,97,182.1,97,181.5,97z M181.9,95.4c-0.5,0-0.9-0.4-1.2-0.7c0.2-0.2,0.4-0.5,0.7-0.7c0.6,0,1.3,0,1.9,0
			c0.3,0.3,0.5,0.5,0.8,0.8C183.6,95.4,182.7,95.5,181.9,95.4z M183.3,93.8c0.2-0.2,0.5-0.5,0.7-0.7c0.7,0,1.3,0,2,0
			c0.2,0.3,0.7,0.5,0.6,0.9c-0.2,0.2-0.5,0.4-0.7,0.6c-0.6,0-1.1,0.1-1.7,0C183.8,94.3,183.6,94.1,183.3,93.8z M185.7,93
			c-0.7,0-1.7,0.3-2.1-0.5c0.9-0.1,1.7-0.1,2.6-0.1C186.1,92.5,185.9,92.8,185.7,93z M175.2,92.7c0.9-0.2,1.8-0.2,2.6-0.2
			c0.2,0,0.4,0.1,0.6,0.3c0.2,0.4-0.2,0.6-0.4,0.9c-0.8,0-1.7,0.3-2.4-0.3c0.1,0.1,0.3,0.3,0.4,0.4c-0.3,0.3-0.6,0.7-1,0.8
			c0-0.5-0.1-1-0.1-1.5c0.1,0,0.4,0.1,0.5,0.1C175.3,93,175.3,92.8,175.2,92.7z M175.1,94.7c0.3,0.2,0.7,0.5,1,0.8
			c-0.3,0.3-0.6,0.5-0.9,0.8C175.1,95.8,175,95.2,175.1,94.7z M175.3,98c0.3,0.3,0.6,0.5,0.9,0.8c-0.3,0.3-0.6,0.5-0.9,0.8
			C175.3,99.1,175.3,98.5,175.3,98z M183.5,98.7c0.2-0.3,0.5-0.5,0.8-0.8c0.5,0,1,0,1.5,0c0.4,0,0.7,0.4,0.9,0.7
			c-0.2,0.2-0.5,0.5-0.7,0.7c-0.6,0-1.2,0.1-1.7,0C184,99.2,183.7,99,183.5,98.7z M186.8,98.6c-0.3-0.3-0.5-0.6-0.8-0.8
			c-0.6-0.1-1.2,0-1.7,0c-0.3-0.2-0.6-0.5-0.8-0.7c0.3-0.2,0.5-0.5,0.8-0.7c0.6,0,1.2,0,1.8-0.1c0.2,0.3,0.5,0.5,0.7,0.8
			c-0.2,0.2-0.4,0.4-0.5,0.6c0.2-0.2,0.5-0.3,0.6-0.6c-0.2-0.3-0.5-0.6-0.7-1c-0.6,0.1-1.3,0.1-1.9,0.1c-0.3-0.3-0.5-0.5-0.8-0.8
			c0.3-0.2,0.5-0.5,0.8-0.7c0.6,0,1.2,0,1.8,0c0.2,0.2,0.4,0.4,0.6,0.6c-0.1,0.2-0.3,0.3-0.4,0.5c0.2-0.1,0.5-0.1,0.7-0.2
			c-0.3-0.4-0.6-0.8-0.9-1.1c0.2-0.2,0.5-0.4,0.7-0.7c-0.2-0.3-0.5-0.6-0.7-0.9c0.1-0.1,0.2-0.4,0.3-0.6c0.6,0,1.1-0.1,1.7-0.1
			c-1.1,2.3-0.9,4.9,0.2,7.2c-0.4,0-0.8,0-1.2,0.1c-0.3,0-0.6,0-0.9,0C186.3,99.2,186.6,98.9,186.8,98.6z M187.9,93.2
			c0.2-0.4,0.4-0.9,0.9-0.9c2-0.1,4.1-0.1,6.1-0.1c0.6-0.1,0.6,0.7,0.7,1c0.6,2.1,0.6,4.6-1.2,6.1c-2,0-4,0.1-6,0.2
			C187.5,97.6,187.1,95.3,187.9,93.2z M195.2,99c0.2-0.3,0.3-0.7,0.6-0.7c-0.1-0.5,0.1-0.9,0.2-1.4c0.5,0,1.1-0.1,1.6,0
			c0.2,0.3,0.7,0.4,0.9,0.7c-0.2,0.3-0.5,0.5-0.8,0.7c-0.6,0.1-1.3,0-1.9,0c0.1,0.2-0.2,0.4-0.3,0.6c0.5-0.8,1.4-0.5,2.2-0.5
			c0.2,0.2,0.8,0.4,0.5,0.8c-1.1,0-2.2,0.2-3.3-0.1L195.2,99z M210.1,96.5c0-0.1,0-0.2,0-0.4c0.1-0.1,0.2-0.3,0.2-0.5
			c0-1.2,0.3-2.3,0.4-3.5c1.7-0.2,3.4-0.3,5.1-0.2c0.2,1.3,0.1,2.8-0.7,3.9c-0.8,0.9-1.7,1.7-2.7,2.4c-0.7,0.4-1.6,0.8-2.4,0.5
			c0,0,0,0-0.1,0C209.9,98,210.2,97.3,210.1,96.5z M154.5,90.7c0,0.1-0.1,0.3-0.2,0.5c0.1-0.2,0.3-0.4,0.4-0.6
			c0.6,0.4,0.7,1.1,1,1.7c-0.4,0.1-0.9,0.1-1.3,0c0,0.5-0.5,0.9-0.9,1.1c-0.5,0-0.9,0-1.4,0c-0.3-0.2-0.6-0.5-0.9-0.7
			c0.1-0.1,0.1-0.1,0.2-0.2c-0.7,0.1-1.3,0.2-1.9,0.2c-0.3-0.2-0.6-0.5-0.8-0.8c0.3-0.3,0.5-0.6,0.9-0.8c0.5-0.1,1.1-0.1,1.7-0.1
			c0.3,0.2,0.5,0.5,0.8,0.7c-0.3-0.3-0.5-0.5-0.8-0.8c0.2-0.3,0.4-0.5,0.6-0.8c-0.3,0.2-0.5,0.5-0.8,0.7c-0.6,0-1.1,0-1.7,0.1
			c-0.3-0.2-0.5-0.5-0.8-0.7c0.3-0.3,0.6-0.7,0.9-1c0.5,0,1.1-0.1,1.6,0c0.3,0.2,0.6,0.5,0.8,0.8c0.7,0,1.4-0.3,2.1,0.1
			c0-0.1-0.1-0.4-0.1-0.5c-0.6,0.2-1.3,0.2-2,0.2c-0.2-0.2-0.5-0.4-0.7-0.7c0.3-0.3,0.6-0.9,1.1-0.9c0.5-0.1,1.1-0.1,1.6,0
			c0.2,0.8,0.6,1.5,0.9,2.4c-0.2-0.1-0.4-0.1-0.7-0.2C154.3,90.5,154.5,90.6,154.5,90.7z M141,86.4c-0.3,2.1-0.4,4.2-0.5,6.3
			c-0.1,2.3-0.1,4.6-0.8,6.8c-0.4-0.4-1-0.6-1-1.2c-0.3-1.8-0.2-3.6-0.2-5.5c0.1-2.8,0.2-5.6,0.6-8.4c0-1.6,0.4-3.2,1.3-4.6
			c0.6,0.4,1.2,0.9,1.8,1.4C141.4,82.9,141.2,84.6,141,86.4z M142.7,82.1c4,0.1,8,0.1,12,0.2c-0.3,0.9-1,2-2.1,1.8
			c-3.6,0-7.3,0-11-0.1C141.7,83.3,141.7,82.1,142.7,82.1z M149.3,94.6c0.6,0,1.2,0,1.7-0.1c0.3,0.2,0.6,0.5,0.9,0.8
			c-0.3,0.2-0.6,0.6-0.9,0.9c-0.6-0.1-1.1,0-1.7,0c-0.4,0.5-0.7,0.8-0.9,1c-0.6,0-1.2,0-1.7,0c-0.2-0.3-0.5-0.6-0.7-0.9
			c0.3-0.3,0.6-0.5,0.9-0.8c0.5,0,1.1-0.1,1.6-0.1c-0.6,0-1.2,0-1.8,0.1c-0.2-0.3-0.5-0.5-0.7-0.8c0.3-0.3,0.6-0.8,1.1-0.9
			c0.5-0.1,1-0.1,1.6,0c0,0,0-0.1-0.1-0.1c0.3-0.3,0.5-0.6,0.8-0.9c0.5,0,1.1,0,1.6,0c0.3,0.2,0.5,0.5,0.8,0.7
			c-0.2,0.3-0.5,0.6-0.7,0.9c-0.7,0-1.3,0-1.9,0C149.2,94.5,149.3,94.5,149.3,94.6z M144.4,93.1c0.5,0,1.1,0,1.6,0
			c0.2,0.2,0.4,0.4,0.7,0.6c-0.3,0.3-0.5,0.7-0.9,0.9c-0.5,0.1-1.1,0.1-1.7,0.1C144.2,94.2,143.9,93.5,144.4,93.1z M144.2,93
			c0-0.1,0.1-0.4,0.1-0.5c0.6-0.3,1.2-0.6,1.7-1.1c0.3,0.2,0.5,0.4,0.7,0.6c-0.3,0.3-0.5,0.6-0.9,0.9C145.3,93,144.7,93,144.2,93z
			 M145.8,94.8c0.3,0.3,0.5,0.5,0.8,0.8c-0.3,0.3-0.5,0.7-0.9,0.9c-0.6,0-1.2,0-1.7,0c0-0.3,0-0.6,0-0.9s0.1-0.5,0.1-0.7
			C144.7,94.9,145.2,94.8,145.8,94.8z M145.9,96.6c0.3,0.2,0.5,0.5,0.7,0.7c-0.2,0.3-0.5,0.6-0.8,0.8c-0.6,0.1-1.3,0.1-1.9,0.1
			c0-0.4,0-0.9,0.1-1.4C144.6,96.6,145.3,96.6,145.9,96.6z M146.7,97.4c0.6,0,1.1-0.1,1.7-0.1c0.4-0.3,0.7-0.6,0.9-0.9
			c0.5,0,1.1,0,1.6-0.1c0.3,0.2,0.6,0.5,0.8,0.8c-0.3,0.3-0.5,0.6-0.9,0.8c-0.5,0.1-1.1,0.1-1.6,0.1c-0.2,0.3-0.5,0.6-0.7,0.8
			c-0.5,0-1.1,0.1-1.6,0.2c-0.3-0.2-0.6-0.5-1-0.7C146.1,98,146.4,97.7,146.7,97.4z M149.3,98.1c0.6-0.1,1.2-0.1,1.8-0.1
			c0.3,0.2,0.5,0.5,0.7,0.8c-0.4,0.2-0.6,0.6-1.1,0.7c-0.5,0.1-1,0.1-1.4,0.1c-0.3-0.2-0.5-0.5-0.8-0.7
			C148.8,98.7,149,98.3,149.3,98.1z M151.1,97.9c0.2-0.3,0.5-0.5,0.7-0.8c0.6-0.1,1.2-0.1,1.7-0.1c0.3,0.1,0.6,0.4,0.8,0.7
			c-0.3,0.3-0.5,0.6-0.8,0.9c-0.6,0-1.2,0.1-1.7,0.1C151.6,98.4,151.4,98.2,151.1,97.9z M151.9,96.9c-0.3-0.2-0.5-0.5-0.8-0.8
			c0.3-0.3,0.5-0.6,0.9-0.8c0.5,0,1,0,1.5-0.1c0.3,0.2,0.6,0.5,0.8,0.8c-0.2,0.3-0.5,0.6-0.8,0.8C153,96.9,152.4,96.9,151.9,96.9z
			 M148.6,93.6c-0.6,0-1.2,0.1-1.7,0.1c-0.3-0.2-0.6-0.5-0.9-0.8c0.3-0.3,0.6-0.6,0.9-0.8c0.7,0,1.7-0.3,2.2,0.4
			C149.6,92.9,148.8,93.2,148.6,93.6z M146.8,92c-0.3-0.2-0.5-0.4-0.8-0.7c0.3-0.5,0.8-1.1,1.5-1c0.7-0.2,1.5,0.1,1.8,0.8
			c-0.3,0.2-0.6,0.5-0.8,0.8C147.9,91.9,147.4,91.9,146.8,92z M146.2,90.8c-0.4-0.5-0.8-0.8-1.3-1.2c0.7-0.2,1.3,0.2,1.8,0.7
			C146.6,90.4,146.3,90.7,146.2,90.8z M146.8,90.2c-0.3-0.3-0.5-0.5-0.8-0.8c0.6-0.8,1.6-1,2.6-0.9c0.3,0.2,0.5,0.4,0.7,0.7
			C148.9,90.2,147.7,90.2,146.8,90.2z M145.8,89.3c-0.4,0.1-0.8,0-1.2,0c0-0.5,0-1,0-1.6c0.4,0,0.8,0,1.2,0c0.4,0.1,0.7,0.5,0.9,0.9
			C146.4,88.8,146.1,89.1,145.8,89.3z M146,91c-1.2,1.5-3.3,1.7-5.1,1.7c-0.1-0.9,0.1-1.9,0.1-2.8C142.7,89.7,144.6,89.8,146,91z
			 M141,89.5c0.1-0.4,0.1-0.8,0.2-1.3c1.2,0.3,2.4,0.7,3.3,1.5C143.4,89.6,142.2,89.5,141,89.5z M144.3,89.3
			c-0.6-0.3-1.1-0.6-1.7-0.9c-0.5-0.2-1-0.3-1.5-0.4c0-0.3,0.1-0.6,0.1-0.9c1.1,0,2.1-0.1,3.2,0C144.4,87.8,144.4,88.6,144.3,89.3z
			 M140.2,99.4c0.5-2.1,0.6-4.3,0.7-6.4c1,0,2.1-0.2,3.2-0.5c-0.3,1.9-0.3,3.7-0.4,5.6c-0.1,0.7-0.1,1.4-0.1,2.2
			c-1.2,0-2.5,0.1-3.5-0.6L140.2,99.4z M143.7,99.2c0.1-0.2,0.1-0.5,0.2-0.7c0.8,0.1,1.7-0.3,2.4,0.3V99c0,0.1,0,0.3,0,0.5l0.1-0.1
			l0.1-0.1c0.9-0.2,2.1-0.4,2.7,0.6c0.7,0,1.4-0.1,2,0c0-0.1,0-0.3,0-0.4c0.5-0.9,1.5-0.8,2.4-0.8c0.3,0.3,0.6,0.6,0.7,1
			c0,0,0.1-0.1,0.1-0.2c0.4-0.1,0.9,0,1.4,0c-0.5,0.4-1,0.8-1.7,0.7c-0.3-0.3-0.7,0-1,0c-1.1,0-2.3,0-3.4,0.1
			c-1.3-0.1-2.6,0.2-3.8-0.1v0.2c-0.7,0-1.5,0.1-2.2-0.2C143.7,99.8,143.7,99.5,143.7,99.2z M154.4,99.4c-0.2-0.3-0.5-0.5-0.8-0.8
			c0.3-0.3,0.6-0.6,0.9-0.9c0.5,0,1.1,0,1.6,0c0.2,0.2,0.4,0.4,0.6,0.5l0.2,0.2c-0.3,0.3-0.7,0.6-1,0.9
			C155.4,99.3,154.9,99.3,154.4,99.4z M156.3,97.6c0.3-0.3,0.5-0.6,1.1-0.9c-0.4-0.2-0.7-0.4-1-0.6c0.1,0.2,0.4,0.5,0.6,0.6
			c-0.3,0.3-0.6,0.5-0.9,0.7c-0.5,0.2-1.1,0.1-1.6,0.2c-0.3-0.3-0.5-0.5-0.8-0.7c0.3-0.3,0.5-0.6,0.8-0.9c0.6,0,1.2,0,1.8,0
			c0.1-0.2,0.3-0.5,0.5-0.7c-0.6,0.7-1.4,0.7-2.2,0.6c-0.3-0.2-0.5-0.5-0.8-0.7c0.2-0.3,0.5-0.5,0.7-0.8c0.6,0,1.2-0.1,1.8,0
			l0.2,0.2c0.1,0.1,0.2,0.2,0.3,0.3c0,0.2,0,0.4,0.2,0.6c0.1,0.4,0.4,0.8,0.4,1.2c0.3,0.5,0,1.1-0.2,1.6
			C156.8,98.1,156.5,97.8,156.3,97.6z M153.9,93.6c0.2,0.2,0.4,0.4,0.6,0.6c-0.3,0.3-0.5,0.6-0.8,0.8c-0.6,0.1-1.2,0.2-1.7,0.1
			c-0.3-0.2-0.5-0.5-0.8-0.7c0.3-0.3,0.6-0.6,1-0.8C152.8,93.5,153.3,93.5,153.9,93.6c0.2-0.4,0.5-0.7,0.7-1c0.4,0,0.8-0.1,1.2-0.1
			c0.1,0.2,0.2,0.4,0.3,0.6c0,0.1,0.1,0.2,0.1,0.3c0.1,0.2,0.2,0.5,0.2,0.6C155.5,94.3,154.6,94.2,153.9,93.6z M153.8,86.8
			c-0.9,0-1.9,0-3,0c0.1,0.4,0.4,0.6,0.7,0.8c-0.1-0.2-0.2-0.4-0.2-0.6c0.8-0.1,1.6-0.1,2.3,0c0.1,0.3,0.1,0.6,0.2,0.9
			c-0.6-0.1-1.3,0.3-1.9,0L152,88c-0.3,0.3-0.6,0.6-0.9,0.9c-0.5,0-1,0.1-1.5,0.1c-0.4-0.1-0.6-0.5-0.9-0.7c0.2-0.3,0.4-0.5,0.5-0.8
			c-0.2,0.2-0.4,0.5-0.6,0.7c-0.6,0.1-1.2,0.1-1.8,0.1c-0.2-0.2-0.5-0.4-0.7-0.6c0.1-0.2,0.1-0.4,0.2-0.6c0.9-0.2,1.8-0.1,2.7-0.1
			c0.2,0.2,0.3,0.4,0.5,0.5c0.3,0,0.6-0.1,0.9-0.1c-0.4-0.2-0.9-0.1-1.1-0.5c0.4,0,0.8,0,1.2-0.1c-0.5,0-1,0-1.5,0
			c-2.6-0.1-5.1,0.1-7.7,0c0.1-0.6,0.1-1.1,0.2-1.7c0.9,0,1.9,0.1,2.8-0.1c-0.1,0-1.9,0-2.8-0.1c0-0.1,0-0.2,0-0.3
			c3.8-0.1,7.4,0.2,11.2,0.1c1.2,0,1.8-1.2,2.2-2.2c1.1-0.3,1.2,0,2.3-0.2c-0.2,0.1,0.4,0.1,0.2,0.2c0.8,0.1,1.8-0.1,2.6-0.1h0.1
			c-0.4,0.8-1,1.5-1.6,2.2C157.2,85.7,155.5,86.5,153.8,86.8z M159.7,81.1c-0.7,0-1.4-0.1-2.1-0.1c-1-0.1-2-0.2-2.9-0.1
			c-1,0.1-2.1,0-3.1-0.1c-2.2-0.1-4.5-0.2-6.7-0.3c-0.8,0-1.7,0.1-2.4,0.5c-0.7-0.4-1.3-0.8-1.9-1.4c0.4-0.4,1-0.6,1.6-0.6
			c3.2,0,6.5,0,9.7,0.2c1.5,0,3,0.1,4.4,0.3c1.4,0.2,2.5,0.5,3.8,1.2c0.3,0.1,0.3,0.4,0.2,0.6C160.1,81.2,160,81.1,159.7,81.1z
			 M155.2,78.9c-4.2-0.3-8.4-0.4-12.6-0.4c-0.8,0-1.8,0-2.4,0.7c-1.3,1.4-1.4,3.4-1.6,5.3v0.4c0,0.4,0,0.7-0.1,1.1
			c-0.4,4-0.5,7.9-0.3,11.9c-0.1,0.1-0.3,0.2-0.4,0.4c-0.2-2-0.4-4-0.3-6.1c0-2.1,0.2-4.2,0.5-6.3c0.5-2.8,1-5.6,2.3-8.1
			c0.5-1.1,1.8-1.3,2.9-1.4c2.3-0.2,4.6-0.2,6.9-0.1c4.1,0.2,8.2,0.5,12.2,1.3c2.6,0.5,5,2,6.9,3.8c-0.2-0.1-0.6-0.2-0.8-0.2
			c-2.3-0.8-4.7-0.7-7.1-0.5C159.4,79.7,157.3,79,155.2,78.9z M140.8,116.5c-0.8,1.6-1.9,3-3,4.3c-1.3,1.5-2.6,3-4.5,3.7
			c-2.5,0.9-5.3,0.6-7.9,0.8c-2.6,0.2-5.2,0.3-7.7-0.2c1.5-0.1,3-0.3,4.3-1c2.6-1.2,4.6-3.4,6.1-5.9c2-3.3,3.1-7,3.7-10.8
			c0.4,0.9,0.9,1.8,1.9,2.1c1.1,0,2.2,0.2,3.3,0.2c0,1.2-0.2,2.4,0.2,3.6c0.2,0.7,0.8,1.4,1.6,1.5c0.9,0.2,1.8,0.2,2.7,0.2
			C141.4,115.5,141.1,116,140.8,116.5z M146.4,113.8c-0.5,0-1,0.1-1.2,0.6c-1.4,0.5-2.9,0.1-4.4,0.1c-1,0-2.4,0-3-1
			c-0.6-1.2-0.4-2.6-0.4-3.9c3.8,0.2,7.5,0.2,11.3,0.3C148.2,111.4,147.5,112.8,146.4,113.8z M200.7,109.7c1.3,0,2.7,0.1,4-0.3
			c0.9-0.3,1.4-1.1,1.9-1.8c0.2-0.3,0.5-0.1,0.5,0.2c-0.1,0.5-0.2,1-0.3,1.5c-0.7,2.2-2.1,4.3-4.2,5.2c-1.9,0.9-4.2,0.5-5.9-0.6
			c-1.5-0.9-2.4-2.5-3.1-4.1C196.2,109.7,198.3,109.7,200.7,109.7z M193.1,109.8c0.9,2,2.3,3.8,4.4,4.8c1,0.5,2.2,0.7,3.4,0.6
			c-0.4,0.5-1.1,0.4-1.7,0.5c-1.7,0.1-3.5-0.2-5-1c-1.7-0.8-3-2.2-4-3.8c-0.2-0.3-0.4-0.7-0.5-1
			C190.7,109.8,191.9,109.8,193.1,109.8z M215.5,118.4c-1.6,1.6-3.6,3-5.8,3.3c-2.2,0.4-4.5,0.3-6.7,0.3c-2.4-0.1-4.8-0.1-7.2-0.4
			c-1.8-0.3-3.3-1.5-4.7-2.7c-2.8-2.3-4.8-5.5-5.8-8.9c1.3,0,2.6-0.2,3.8-0.1c0.4,0.1,0.4,0.5,0.6,0.8c0.5,0.8,1.1,1.6,1.7,2.3
			c1.1,1,1.7,1.8,3.2,2.2l0.6,0.2c1.8,0.6,3.9,0.7,5.8,0.1c0.2-0.1,0.4-0.2,0.6-0.3l0.4-0.1c3.1-1.3,5.2-4.3,5.5-7.6
			c1.1,0,2.1-0.1,3.2-0.1c0.3,1.1,0.7,2.2,1.4,3.1c0.3,0.4,0.8,0.5,1.3,0.7c0.2,0.2,0.3,0.3,0.5,0.5c0.9,0.3,1.9,0.2,2.8,0.2
			c1.1,0,2.3,0.1,3.4-0.1C219,114.3,217.5,116.6,215.5,118.4z M221.2,111.1c-0.8,0.6-1.9,0.7-2.9,0.6c-1.2-0.1-2.5,0.1-3.7-0.1
			c-0.4,0-0.7-0.2-0.9-0.6c-0.4-0.1-0.8-0.2-1.1-0.5c-0.8-0.8-1.3-2-1.6-3.1c3.6-0.4,7.3,0,10.8-0.6
			C221.9,108.3,222,109.8,221.2,111.1z M221.6,106.5c-2.6,0.5-5.3,0.2-8,0.4c-2.2,0.1-4.4,0.3-6.6,0.2c0.1-0.7,0.6-1.5,0.1-2.1
			c-0.3-0.6-1-0.7-1.6-0.6c-4.2,0.3-8.4,0.3-12.5,0.4c-7.8,0.1-15.7,0.6-23.5,0.4c-1.1,0-2.2-0.1-3.2,0c-0.7,0.1-1.5,0.3-1.6,1
			c-0.3,1.2,0.7,2.2,1,3.3c-8.8-0.1-17.5,0.3-26.3-0.1c-1.8-0.1-3.5-0.1-5.3-0.3c-0.4,0-0.7-0.2-1-0.4c-0.3-0.5-0.6-1-0.8-1.5
			c-0.8-2.1-1-4.3-1.1-6.5c0.7-0.1,1.3-0.2,2-0.2c0-0.4,0.1-0.8,0.1-1.1c0.4-1.2,0.4-2.4,0.5-3.6c0-1.5,0.7-3,0.4-4.5
			c-1-5-2.6-10-4.8-14.6c-0.6-1.3-1.4-2.6-2-3.9c-1-1.6-2.2-3.1-3.7-4.4c0.8-0.9,1.7-1.7,2.6-2.5h0.2c0.6,0.8,1.3,1.4,2.1,2
			c2.2,1.9,4.8,3.4,7.4,4.7c1.2,0.7,1.8,1.3,2.8,2.2c0.5,0.7,1.3,1.4,1.8,2c-0.9,1-1.6,2.4-2,3.7c-1.1,3.4-1.7,7.3-1.9,10.9
			c0,2.5,0.4,4.8,0.8,7.3c0,0,0.1,0.1,0.3,0.1c0.2-0.3,0.3-0.5,0.5-0.6c0.1,1.1,1.2,1.6,2,2.1c0.7,0.5,1.5,0.5,2.3,0.5
			c4.2,0.1,8.3-0.1,12.5-0.2c1-0.5,2.1-1.2,2.6-2.2c0.6-1.2,0.1-2.5-0.3-3.7c-1.1-2.5-2.3-4.9-3.1-7.5c1.8-0.4,3.7-1.2,4.9-2.6
			c0.9-1,1.8-2.2,2.1-3.5c2.6-0.2,5.3-0.2,7.7,0.8c0.9,0.3,1.6,1.1,2.2,1.7c-1.2,0.2-2.5,0-3.7,0.1c-1.1,0.1-1.8,0.9-2.5,1.6
			c-0.6,0.6-1.3,1.4-1.3,2.3c0,1.8,0.3,3.5,0.6,5.3c0.2,1.3,0.5,2.6,1,3.8c0.5,1.1,1.5,1.7,2.4,2.5c-0.5,1.4-1.8,2.3-3.1,3.1
			c-1.2,0.7-2.5,0.7-3.8,0.8c-3.5,0.3-6.7,0.3-10.2,0.5c-1.9,0.1-3.5,0.1-5.3,0.1c-0.6,0-1.6,0.1-2.5-0.3c-1.3-0.6-2.2-1.3-3.3-2.3
			c-0.5-0.4-1.3-1.5-1.7-2c0.1,0.2,0.5,1,0.6,1.2c0.8,1.1,1.9,2,2.9,2.8c0.7,0.4,1.3,0.7,2.1,0.9c2.6,0.3,5.4,0.1,8,0
			c3.7-0.1,7.5-0.2,11.2-0.6c1.7-0.1,3-0.9,4.2-2c0.5-0.4,1-1.4,1.3-2c1,0.6,2,1.3,3.2,1.6c1.1,0.1,2.2,0.1,3.3,0
			c0.5,0,0.8-0.4,1.1-0.7c2.4-0.1,4.8-0.1,7.3-0.1c1.5,0,2.9-0.1,4.4-0.1c6.6-0.2,13.2-0.5,19.9-0.4c0.7,0,1.5,0.2,2.1,0.5
			c0.9,0,1.9,0.1,2.8-0.1c0.7-0.3,1.3-0.9,2-1.4c0.8,1.1,1.8,2.1,3.1,2.7c1.4,0.6,2.8,0.5,4.3,0.7c1.1,0.1,2.3,0.1,3.4,0
			c0.6,0,1.1-0.1,1.7-0.1C225.4,104,223.8,105.9,221.6,106.5z"/>
	</g>
	<path d="M79.7,34.7c0.1-0.1,0.1-0.2,0.2-0.3C79.8,34.5,79.8,34.5,79.7,34.7C79.7,34.6,79.7,34.7,79.7,34.7z"/>
</g>
<path d="M198.7,91.9L198.7,91.9c-0.2,0-0.3-0.1-0.3-0.3l-0.2-7.8c0-0.2,0.1-0.3,0.3-0.3l0,0c0.2,0,0.3,0.1,0.3,0.3l0.2,7.8
	C199,91.8,198.9,91.9,198.7,91.9z"/>
<path d="M127.5,95.2l-4.2,2.2l-1.2,3.4l-0.1,1.6l1.6,2l4-0.2l1.2,0.8C128.9,105,128.8,97.4,127.5,95.2z"/>
<polygon points="120.4,105.5 120.2,106.7 119.1,110.5 120.6,118.2 125.1,114.4 123.7,112.6 121,105.2 "/>
<path d="M38.5,101.5l0.2,6l1.6-0.9l2.6-2.6c0,0,0.5-0.5,0-0.7c-0.5-0.3-1.9-1.7-2.5-1.9C39.7,101.2,38.5,101.5,38.5,101.5z"/>
<path d="M40.5,93l1.7,3.8l0.8,0.7l-1.1-6.2C41.9,91.3,40.9,92.1,40.5,93z"/>
<path d="M42.5,111.1c0,0-0.7,3.6-1,4.1c-0.4,0.5,1.3,0.7,1.3,0.7l0.4-5.7C43.1,110.2,42.6,110.6,42.5,111.1z"/>
<path d="M115.3,92.1v-3.5l-0.4-1.6c0,0-2.4,1.3-2.3,2s0.4,2,0.4,2l2,1.5L115.3,92.1z"/>
<path d="M46,95.7l0.4,3l0.5-0.8l0.6-0.3l-0.8-3.7C46.7,93.8,46.1,95.1,46,95.7z"/>
<polygon points="38.7,96.4 38.1,98.5 38.4,98.8 38.5,99.4 39.6,99.3 38.8,96.6 "/>
<path d="M46.8,105.9l-0.5,2.9c0,0-0.1,0.6,0.1,1.1S47,111,47,111l0.7-3.7c0,0,0-0.3-0.1-0.6C47.5,106.5,46.8,105.9,46.8,105.9z"/>
<path d="M195.3,120.6c0,0,9.2,1,12.3,0.6c3.1-0.4,4.6-1,6.1-2.2c1.7-1.2,5.1-6.5,5.1-6.5s-4.2,0-4.6,0s-1.1-0.8-1.1-0.8
	s-0.8-0.2-1.5-0.8c-0.7-0.6-1.2-2.8-1.2-2.8l-2.3,0.1c0,0,0.1,4.6,4.7,6.1c-0.2,1.2-1.7,4.7-4.5,5.6
	C205.4,120.6,195.3,120.6,195.3,120.6z"/>
</svg>
