<?xml version="1.0" encoding="utf-8"?>
<!-- Generator: Adobe Illustrator 23.0.1, SVG Export Plug-In . SVG Version: 6.00 Build 0)  -->
<svg version="1.1" id="Слой_1" xmlns="http://www.w3.org/2000/svg" xmlns:xlink="http://www.w3.org/1999/xlink" x="0px" y="0px"
	 viewBox="0 0 238.1 150.2" style="enable-background:new 0 0 238.1 150.2;" xml:space="preserve">
<style type="text/css">
	.st0{fill:#1D1D1B;}
</style>
<g>
	<g>
		<g>
			<path class="st0" d="M157.4,84.6c3.7,0.6,7.4,1,11,1.9c3.4,0.8,6.4,2.5,9.3,4.4c1,0.7,2,1.3,2.8,2.2c-1.3,0-2.5,0-3.8,0
				c-4,0.2-8,0.4-12,0.9c-0.2,0-0.5,0.1-0.7,0.2c4.6,0,9.1-0.4,13.7-0.2c1.1,0.1,2.3,0.1,3.4,0.1c1.7-0.1,3.4,0.2,5,0.3
				c2.2,0.1,4.5,0.5,6.7,0.5c0.9,0.1,1.8,0.3,2.7,0.2c0.6-0.1,0.5-0.9,0.5-1.4c0-0.7-1-1.2-0.5-1.9c0.6,0.1,1.2,0,1.7,0.3
				c0.3,0.3,0.4,0.7,0.3,1.1c-0.2,0.3-0.6,0.4-0.7,0.7c-0.1,0.7,0.4,1.4,1.1,1.5c4,0.6,8.1,1.1,11.9,2.6c0.8,0.3,1.2,1.1,1.5,1.8
				c1.2,0.3,2.4,0.7,3.5,1.1c1.2,0.5,2.4,1.2,3.1,2.3c0.7,1.1,0.9,2.4,1.2,3.7c0.7,3.5,1.3,6.9,1.8,10.4c0.1,1-0.3,1.8-0.7,2.7
				c0,2.1,0,4.3-0.3,6.4c-0.2,0.8-0.6,1.5-1.1,2.1c-0.6,0.7-1.4,1.1-2,1.7c-0.5,0.5-0.9,1-1.3,1.5c-1.4,1.6-3.1,3.1-5,4.1
				c0.4,0.2,0.9,0.1,1.4,0.1c2.5,0.2,5.1,0.4,7.6,0.7c0.6,0.1,1.4-0.1,1.9,0.4c-1.7,0.3-3.4,0.3-5,0.4c-18.3,0.6-36.6,0-54.9-0.1
				c-2.8,0-5.6,0.1-8.4-0.2c-3.7-0.2-7.3-0.7-11-1.1c-3.3-0.3-6.6-0.6-10-0.9c-3.6-0.3-7.2-0.9-10.9-1.1c-1.4-0.1-2.8-0.3-4.3-0.1
				c-1.7,0.3-3.5,0.2-5.2,0.2c-0.9,0-1.8,0-2.6-0.4c-0.7-0.4-1.1-1.1-1.4-1.8c-1.5-4.5-1.5-9.4-0.5-14c0.3-1.6,0.9-3.1,1.7-4.5
				c-0.6,0.2-1.1,0.6-1.7,1.1c0.1-1.7,0.4-3.3,0.6-5c0.1-1.1,0.8-2.2,1.9-2.6c2.7-0.9,5.4-1.5,8.1-2.5c-2.6,0.5-5.2,1.1-7.7,1.7
				c0.4-0.7,0.9-1.3,1.3-2c1.7-2.9,3.6-5.7,5.5-8.5c1.7-2.6,4.2-4.8,7-6.1c3.1-1.5,6.2-2.9,9.5-4.1c2-0.7,4-1.6,6.1-1.7
				c2.5-0.3,5.1-0.2,7.6-0.1C150.7,83.7,154.1,84,157.4,84.6z M142.3,85.1c-0.7,0-1.6-0.1-1.9,0.7c0.2,1,0.6,1.8,1,2.8
				c0.9,2.2,1.8,4.5,2.7,6.7c0.2,0.6,0.8,1,1.5,1c2.3-0.1,4.5-0.6,6.7-0.7c-1.7-0.3-3.5-0.1-5.2,0c-0.8,0-1.8,0-2.2-0.8
				c-1.3-2.7-2.3-5.6-3.3-8.4l0.1-0.2c4.1-0.5,8.2-0.2,12.3,0c1.9,0,3.7,0.3,5.6,0.2C153.7,85.7,148,85.2,142.3,85.1z M136.2,85.5
				c-4.6,1.6-9.3,3.2-13.5,5.7c-1,0.6-1.9,1.3-2.6,2.3c-1.8,2.8-3.9,5.6-5.1,8.7c-0.2,0.4-0.2,0.8-0.1,1.2c0.4,0.3,1,0.1,1.4,0
				c3.8-0.7,7.6-1.8,11.4-2.5c2.2-0.4,4.5-0.7,6.7-1.1c0.6-0.1,1.1-0.2,1.6-0.4c0-0.6,0.1-1.2,0-1.8c-0.1-0.3-0.5-0.4-0.8-0.5
				c-1.1-0.2-2.2-0.4-3.3-0.5c-0.1-0.9,0-1.8,0.2-2.6c-0.7,0.9-1.2,1.9-1.2,3c0.2,0.1,0.4,0.3,0.7,0.3c1.1,0.3,2.1,0.5,3.2,0.7
				c0.3,0.1,0.3,0.4,0.3,0.7c-2.8,0.6-5.6,1.1-8.4,1.7c-3.5,0.7-6.9,1.6-10.4,2.3c-0.4,0.1-0.5-0.4-0.4-0.7c0.9-2.2,2.1-4.1,3.4-6.1
				c0.6-0.8,1-1.8,1.7-2.5c1.2-1.3,2.8-2.1,4.4-2.8c3.6-1.5,7.2-3,10.9-4.2c0.4-0.1,0.9-0.2,1.3-0.2c0.3,0,0.4,0.4,0.6,0.7
				c1.4,3.4,2.6,6.8,3.7,10.2c0.1,0.3,0,0.6-0.3,0.7c-0.6,0.1-1.3,0.2-1.9,0.3c-0.4-0.1-0.6-0.6-0.9-0.9c0,0.7,0,1.3,0,2
				c1.3-0.1,2.7-0.3,4-0.4c0.3,0,0.8-0.2,0.6-0.6c-1.1-3.2-2.4-6.4-3.6-9.6c-0.4-1-0.6-2.1-1.3-2.9C137.9,85,137,85.3,136.2,85.5z
				 M162.1,96.9c-4.7,0.1-9.4,0.5-14,1.5c1.3,0.2,2.5-0.2,3.8-0.1c2.9,0,5.8-0.2,8.6,0.3c0.7,0.1,0.9,0.9,1.1,1.5
				c0.9,3.2,1.2,6.6,1.5,9.9c0,2.2,0.2,4.5,0.1,6.7c-0.2,2.8,0,5.6-0.8,8.3c-0.2,0.4-0.3,1.1-0.9,1c-0.3-0.2-0.5-0.5-0.8-0.7
				c-0.1,1.4,0.5,2.7,1.6,3.6c1.6,1.3,3.7,1.5,5.6,1.6c2.7,0.2,5.3,0.1,8,0.1c2.5-0.3,4.7-1.7,6.5-3.3c1.5-1.3,2.6-3.1,3.2-5
				c0.1-0.4,0.4-0.9,0.2-1.3c-0.1-0.3-0.4-0.3-0.7-0.3c-3.9,0-7.7,0-11.6,0c-1.6-0.2-3.1-0.1-4.7-0.1c-0.2,0-0.5,0.1-0.7,0.1
				c-0.2,0.2-0.1,0.5,0.1,0.8c2.7,0.1,5.4,0,8.1,0.1c2.4,0.2,4.8,0,7.1,0.1c-1.4,1-2.8,2-3.8,3.4c-0.3,0.6,0.3,1.1,0.7,1.5
				c-1,0.2-2,0.1-3,0.1c-2-0.2-4.1-0.1-6.2-0.2c-1.2-0.2-2.5-0.1-3.7-0.2c-0.6-0.2-1.3-0.4-1.4-1.2c-0.1-1.9-0.2-3.9,0.9-5.6
				c0.5-0.8,1.5-1.1,2.4-1.1c3.7,0,7.4,0,11,0.2c1.7,0,3.5,0,5.2,0c0.3,0,0.8,0,1-0.3c0.3-1.3,0.3-2.7,0-4.1
				c-0.1-0.3-0.3-0.5-0.4-0.7c-0.3-0.1-0.6-0.2-0.9-0.2c-2.1,0-4.1,0-6.2-0.1c-1.6-0.2-3.3-0.2-4.9-0.5c-2.2-0.2-4.4-0.6-6.5-1.6
				c0,0,0-0.1,0-0.2c1.1,0.2,2.2,0.2,3.3,0.2c2.3,0.4,4.6,0,6.9,0.3c0.8,0.1,1.6-0.1,2.4-0.1c1.5,0,3.1,0,4.6-0.2
				c0.1-0.3,0.3-0.5,0.3-0.8c-0.1-1.1-0.1-2.1-0.1-3.2c-0.2-1-1.5-0.9-2.1-1.5c-1-0.7-1.2-1.9-1.2-3c0-0.5,0-1.3-0.6-1.5
				c-1.5-0.3-3-0.2-4.5-0.4c-1.6,0-3.1-0.1-4.7-0.2c-1.8,0-3.6,0-5.4,0c-0.4,0.2-0.5,0.7-0.6,1.2c-0.1,1.1-0.3,2.3,0,3.4
				c0.5,0.7,1.6,0.3,2.3,0.5c1.4,0.2,2.9,0.2,4.3,0.2c2.8,0.3,5.6,0.2,8.4-0.2c-0.9,0.7-2.2,0.8-3.3,0.9c-3.8,0.1-7.6,0-11.4-0.2
				c-0.7-0.1-1.3-0.6-1.4-1.3c-0.1-1.7-0.1-3.4,0.5-5c0.1-0.3,0.5-0.6,0.8-0.6c1.5-0.3,3,0,4.5,0c1.4,0.1,2.9,0.1,4.3,0.1
				c1.3,0.1,2.6,0.2,3.9,0.2c1.2,0,2.4,0.2,3.6,0.2c0.2-0.2,0.1-0.5-0.1-0.6c-0.9-0.7-2-1-3.1-1.3c-2.6-0.6-5.2-0.6-7.8-0.9
				C168.2,96.9,165.1,96.6,162.1,96.9z M195.1,97c-1.4,0-2.7-0.1-4.1,0.1c-0.8,0.1-1.6,0-2.4,0.2c-0.7,0.2-1.6,0-2.2,0.5
				c-0.2,0.4,0,0.9,0,1.3c0.7,4.7,0.9,9.5,1.2,14.2c0,0.2,0.2,0.3,0.3,0.5c1.2,0,2.4,0,3.6,0c3.4,0.3,6.7,0,10.1,0.3
				c1.7,0,3.4,0,5,0.1c1.1,0.1,2.2,0.1,3.4,0.1c0.9-0.1,1.5-0.9,1.6-1.7c0.1-1,0-2,0-3c-0.2-0.8,0-1.6-0.3-2.4
				c-0.1-1-0.2-1.9-0.3-2.9c-0.3-1.5-0.2-3-0.7-4.4c-0.2-0.6-0.7-1-1.3-1.2c-3.2-0.9-6.6-1.3-9.9-1.6
				C197.7,97.2,196.4,96.9,195.1,97z M127.4,103c-1.6,0.3-3.2,0.6-4.8,1.2c-0.2,0.1-0.7,0.2-0.4,0.5c0.5,0.2,1.1,0,1.7-0.1
				c1.2-0.1,2.4-0.2,3.6-0.4c0.7-0.1,1.4-0.6,1.4-1.4C128.3,102.8,127.8,102.9,127.4,103z M212,103c0,0.3,0,0.5,0.1,0.8
				c1.1,0.2,2.2,0.4,3.2,0.7c0.4,0.1,0.9,0.3,1,0.8c0.2,0.7,0.4,1.5,0.4,2.2c-0.5,0-1.1,0.1-1.6-0.1c-0.5-0.1-0.8-0.6-1.3-0.8
				c-0.5-0.1-1-0.2-1.5-0.3c0.1,0.4,0.2,0.9,0.2,1.3c0.6,0.2,1.2,0.2,1.8,0.3c0.6,0.2,1.2,0.1,1.8,0.3c0.5,0.1,1,0.1,1.4-0.1
				c0.1-1-0.1-2.1-0.4-3.1c-0.2-0.6-0.8-1-1.4-1.2C214.6,103.5,213.3,103.3,212,103z M212.1,104.2c0,0.6,0.2,1.2,0.3,1.8
				c0.3,0,0.6,0,1,0c-0.2-0.2-0.4-0.4-0.7-0.5c0-0.3-0.1-0.7,0.3-0.8C212.8,104.3,212.5,104.3,212.1,104.2z M214,104.6
				c-0.1,0.1-0.2,0.2-0.3,0.4c0,0.2,0,0.4,0.1,0.6c0.2,0,0.4,0,0.7,0c0-0.2,0-0.4,0-0.6C214.3,104.8,214.1,104.7,214,104.6z
				 M158.8,106.8c0,0.5,0,1,0,1.5c1,0.1,1.9,0.2,2.9,0c0.1-0.5,0-1-0.1-1.5C160.6,106.7,159.7,106.8,158.8,106.8z M150.6,107.9
				c-1.3,0.5-2.4,1.4-3.3,2.3c-2.1,2-3.8,4.6-4.7,7.3c0,0.1,0,0.3,0,0.4c0.4-0.9,0.8-1.8,1.2-2.6c0.2-0.4,0.7-0.6,1-0.8
				c0.4-0.6,0.8-1.4,1.5-1.8c0.2-0.1,0.4,0.1,0.5,0.3c1,2,2.5,3.7,4,5.4c0.1-0.1,0.4-0.2,0.6-0.3c-1.7-1.7-2.9-3.8-3.7-6
				c-0.2-0.6,0.2-1.1,0.5-1.5c0.5-0.8,1.3-1.3,2.2-1.7c0.3-1,1.5-1.1,2.4-1.3C152,107.5,151.3,107.6,150.6,107.9z M216.2,109
				c-1.2-0.1-2.4-0.2-3.6-0.4c0.2,1.4,0.2,2.7,0.2,4.1c1,0.1,2,0.2,3.1,0.2c1,0.1,2,0.2,3,0.2c0.1-1.5-0.4-2.9-0.6-4.4
				C217.7,109.2,216.9,109.1,216.2,109z M140.1,110.7c-0.3,1.6-0.3,3.2-0.5,4.9c0.3,0,0.6,0,0.9,0c0.3-1.7,0.4-3.5,0.6-5.2
				C140.7,110.3,140.2,110.2,140.1,110.7z M152,110.3c-0.3,0-0.8,0.1-0.7,0.5c0.2,2.2,0.7,4.4,1.4,6.5c0.1-0.1,0.2-0.2,0.3-0.2
				c-0.6-2-0.9-4-0.8-6C152.2,110.8,152.2,110.5,152,110.3z M156.3,111.2c-0.6,0.3-0.5,1.1-0.8,1.6c-0.4,1.6-0.8,3.2-0.9,4.8
				l0.3-0.1c0.2-1.9,0.6-3.7,1.6-5.3C156.9,111.9,156.6,111.5,156.3,111.2z M218.6,114.8c-0.7,0.2-1.5,0-2.3-0.1
				c-1.2,0-2.3-0.3-3.5-0.2c0,1.5,0.1,3,0,4.4c1.7,0,3.3,0.2,5,0.3c0.3,0.1,0.6,0.1,1,0.1c0.4-0.2,0.7-0.6,1-1c0-0.8,0-1.5,0-2.3
				c-0.2-0.6-0.2-1.3-0.4-1.9C219.2,114.4,218.9,114.6,218.6,114.8z M110.5,114.8c0,0.8-0.1,1.7,0.1,2.5c0.1-0.8,0.3-1.6,0.2-2.3
				C110.8,114.9,110.6,114.8,110.5,114.8z M112,115.4c-0.3,0.9-0.4,1.8-0.5,2.8c0.3-0.9,0.8-1.9,0.7-2.9
				C112.2,115.4,112,115.4,112,115.4z M187.8,115.6c-0.4,1,0,2-0.1,3.1c0,0.6-0.2,1.2,0.1,1.7c2.9,0.1,5.7,0,8.6,0.1l0.2,0.1
				c1.9,0,3.9-0.1,5.8,0.2c1.6,0.1,3.1,0,4.7,0.1c1.1,0.2,2.2,0.1,3.4,0.1c0.3,0,0.7-0.1,1-0.2c0.7-1.6,0.4-3.3,0.5-5
				c-1.2,0.3-2.5,0.2-3.7,0.2c-2.1,0-4.2,0-6.3-0.2c-1.7,0-3.4,0-5-0.2C193.8,115.6,190.8,115.5,187.8,115.6z M156.9,117.8
				c-0.2,0.2-0.2,0.4-0.2,0.7c0.8-0.6,1.6-1.4,1.8-2.5C157.8,116.5,157.4,117.2,156.9,117.8z M109.4,116.6c-0.8,1.6-0.8,3.4-1,5.1
				c0.1-0.1,0.3-0.3,0.4-0.4c0.4,0.1,0.9,0.3,1.3,0.5c-0.4-0.4-0.8-0.7-0.9-1.2c-0.2-0.7-0.1-1.4,0.2-2c0.4,0.4,0.5,1.1,1,1.5
				C109.8,118.9,109.6,117.7,109.4,116.6z M144.7,117.2c-0.2,0.2-0.5,0.4-0.7,0.5c1.1,1.2,2.6,1.6,4.1,2.1c0.4,0.1,0.7,0.2,1.1,0.2
				c-0.1-0.6-0.8-0.6-1.2-0.9C146.7,118.8,145.6,118.2,144.7,117.2z M112.3,119.9c0.5-0.3,1-0.8,0.8-1.4
				C112.7,118.9,112.5,119.4,112.3,119.9z M152,120c-1.1,1-0.9,3.2,0.5,3.8c1.3,0.4,2.1-1,2.1-2.1c-0.1-0.8-0.4-1.5-1.1-1.9
				C153,119.6,152.4,119.6,152,120z M159.3,120.3c-0.8,0.5-1.8,0.5-2.5,1.1c0.9-0.2,1.9-0.1,2.9-0.4c0-0.1,0-0.3,0-0.4
				C159.6,120.4,159.4,120.3,159.3,120.3z M212.7,121.2c0.1,0.3,0.1,0.5,0.2,0.8c1-0.1,1.9,0.2,2.9,0.2c1,0,2.1,0.1,3.1,0
				c0.1-0.8-0.9-0.7-1.4-0.7C215.9,121.3,214.3,121.4,212.7,121.2z M110.8,122.8c-0.1,0.7,0,1.4,0.4,1.9c0.4,0.2,0.6-0.3,0.7-0.7
				c0.2-0.8,0.2-1.8-0.4-2.5C111,121.7,110.9,122.3,110.8,122.8z M209.6,124.8c-0.6,0.4-1.4,0.5-2.1,0.6c-1.1,0.1-2.2,0-3.4-0.1
				c-5.2-0.1-10.3-0.1-15.5-0.1c-1.1,0-2.2,0.5-3,1.3c-0.8,0.8-1.6,1.6-2.6,2.3c-0.9,0.7-2,1.1-3,1.6c1,0.1,2-0.1,2.9-0.3
				c1-0.3,1.8-0.9,2.7-1.4c1.6-0.9,3.4-1.9,5.3-1.8c5.7,0,11.3,0,17,0.2c0.5,0,1-0.1,1.4,0.2c0.5,0.3,0.7,0.9,0.8,1.4
				c0.5-0.4,0.7-1.1,1-1.7c0.5-1.7,0.5-3.5,0.4-5.2C211.2,123,210.7,124.2,209.6,124.8z M142.7,121.6c-0.1,0.1-0.2,0.3-0.3,0.4
				c-0.1,0.9,0,1.8,0.1,2.6c0.3,3.2,1.8,6.4,4.3,8.5c1.7,1.5,3.9,2.3,6.1,2.2c1.7-0.2,3.4-0.7,4.7-1.8c0.6-0.5,1.1-1.2,1.6-1.9
				c-0.4,0-1,0.1-1.3-0.3c-1.3-1.3-2-3-2.6-4.7c-0.1-0.2-0.2-0.4-0.4-0.5c0,0.3-0.1,0.5,0,0.8c0.6,1.6,1.3,3.2,2.2,4.7
				c0.2,0.4,0.6,0.9,0.1,1.2c-1,0.8-2.3,1.2-3.6,1.5c-0.1,0-0.3-0.1-0.4-0.2c-0.3-1-0.2-2-0.3-3.1c-0.2-1.2,0-2.5-0.1-3.7l-0.3,0.1
				c-0.2,0.7-0.3,1.5-0.3,2.3c-0.2,1.2-0.2,2.5,0,3.8c0.1,0.4-0.3,0.9-0.8,0.8c-1-0.1-2-0.5-2.9-1c-0.1-0.6,0-1.1,0.1-1.7
				c0.5-2,1.5-3.8,2.8-5.3c-0.1,0-0.4-0.1-0.5-0.1c-1.4,1.6-2.3,3.4-3,5.4c-0.1,0.3-0.3,0.9-0.7,0.7c-0.9-0.6-1.5-1.6-2.2-2.5
				c-0.4-0.8,0.3-1.4,0.8-1.9c1.2-1,2.6-1.9,3.8-2.9c0.1-0.1,0.2-0.3,0.2-0.4c-0.2,0-0.5,0-0.7,0.2c-1.3,0.8-2.7,1.5-3.9,2.5
				c-0.3,0.3-0.6,0.5-1,0.6c-0.9-1.2-1.1-2.8-1-4.3c1.8-0.4,3.6-0.5,5.4-0.9c0.1,0,0.2-0.1,0.3-0.2c-0.1-0.2-0.3-0.3-0.5-0.3
				c-1.4,0-2.8,0-4.1,0.3c-0.3,0-0.7,0.1-1,0.1C143,122.4,142.9,122,142.7,121.6z M139.3,121.8c-0.9-0.1-1.9,0-2.8,0.1
				c-2.6,0.1-5.1,0-7.7,0.1c-2.6,0.3-5.2,0-7.8,0.3c-1.1,0-2.2,0-3.4,0.1c-0.4,0-0.9,0-1.2,0.4c0.1,0.1,0.2,0.4,0.2,0.5
				c3.1,0.2,6.2,0.1,9.4,0.2c3.2,0,6.5,0,9.7,0.1c0.7,0,1.5-0.1,2.2,0.1c0.5,0,1.1,0,1.6-0.1C139.5,122.9,139.8,122.1,139.3,121.8z
				 M108.3,123.6c-0.1,0.3-0.2,0.6-0.2,1c0.5-0.3,1-0.5,1.5-0.8C109.2,123.7,108.8,123.6,108.3,123.6z M156.5,124.3
				c0.9,0.9,2,1.7,3.2,2.2c0-0.5-0.2-0.9-0.6-1.1C158.3,125,157.4,124.4,156.5,124.3z M218.2,126.7c-0.3,0.4-0.7,0.5-1.1,0.6
				c-1.3,0.1-2.5-0.2-3.7-0.2c-0.6,0.3-0.9,0.9-1.3,1.4c-0.2,0.2-0.5,0.5-0.3,0.8c0.9,0.4,1.8,0.2,2.7,0.2c1.7,0.1,3.2-0.9,4.3-2.2
				c0.3-0.3,0.3-0.8,0.5-1.2c0-0.4,0-0.8,0-1.2C218.8,125.5,218.7,126.2,218.2,126.7z M108.1,128.1c0.7-0.6,1.1-1.5,1.7-2.3
				C108.9,126.3,108.1,127.1,108.1,128.1z M112.2,126.2c0.1,0.5,0.2,1,0.2,1.5c0.2,0.7-0.2,1.4-0.5,2.1c-0.4-0.7-0.5-1.4-0.7-2.1
				c-0.2,1.4,0.2,2.7,0.2,4.1c1.2-1.5,1.4-3.4,1.8-5.2C112.9,126.8,112.5,126.6,112.2,126.2z M108.7,131c0.4-1.2,0.9-2.4,1.3-3.7
				C109,128.2,108.4,129.7,108.7,131z M110.5,128.5c-0.5,1.2-0.9,2.5-0.8,3.8c0,0.3,0.3,0.3,0.5,0.3
				C110.2,131.3,110.4,129.9,110.5,128.5z M119.5,130.1c-0.2,0.9-0.6,1.8-1.1,2.6c1.2,0,2.5-0.3,3.7-0.2c3.3-0.2,6.6-0.2,9.9-0.1
				c1.3,0.1,2.6,0.1,3.9,0.1c2.4,0,4.9,0,7.3,0c-0.1-0.7-0.6-1.3-1.3-1.2c-3.2,0-6.4-0.1-9.5-0.3c-1.6-0.2-3.1-0.1-4.7-0.2
				c-1.2-0.1-2.4,0-3.5-0.2c-1.2-0.2-2.5,0-3.7-0.3C120.1,130.3,119.8,130.1,119.5,130.1z M207.3,130.3c0.1,0.4,0.2,0.8,0.4,1.1
				c0.1,0,0.3,0,0.4,0C208.2,130.9,207.8,130.5,207.3,130.3z M204.4,130.7c-0.3,0.4-0.2,0.9-0.1,1.4c0.5,0.2,1,0.1,1.5,0.1
				c0.1-0.1,0.2-0.3,0.3-0.4c0-0.3,0.1-0.7-0.1-1C205.5,130.5,204.8,130.4,204.4,130.7z M200.1,130.8c0.1,0.7,0.9,0.9,1.5,1
				c0.6,0.1,0.5-0.6,0.5-0.9C201.5,130.7,200.8,130.7,200.1,130.8z M191.6,131.2c-1.3,0.2-2.6,0.1-3.9,0.3c-2.7,0-5.5,0.2-8.2,0.1
				c-1.2,0-2.5,0-3.7-0.1c-2.5-0.2-5.1-0.3-7.6-0.1c-0.6,0.6-1.2,1.2-1.6,1.9c1.6,0.1,3.2,0.1,4.7,0.3c1.5,0,3,0,4.5,0.2
				c2.4,0,4.9,0.2,7.3,0.2c3.1,0.2,6.2,0.3,9.3,0.5c1.2,0,2.5,0.3,3.7,0.2c-1-0.8-2.1-1.6-2.9-2.7
				C192.9,131.4,192.2,131.1,191.6,131.2z"/>
		</g>
	</g>
	<g>
		<path class="st0" d="M200.8,98.3c-0.3-0.4-1-0.5-1.4-0.2c-0.1,0.5-0.1,0.9,0,1.4c0.3,0.5,0.9,0.4,1.4,0.5
			C201,99.4,201,98.8,200.8,98.3z"/>
	</g>
	<g>
		<path class="st0" d="M200.5,100.5c-0.9,0-1.7-0.1-2.6-0.2c-2.1,0-4.2,0-6.3,0c-0.9,0-1.9,0.2-2.8,0.2c-0.4,0-1.1,0.3-1,0.8
			c0.4,2.3,0.5,4.6,0.6,6.9c0.2,1.3,0,2.6,0.2,4c0.8-3.1,0.5-6.3,0.6-9.4c0.2,1.8,0.3,3.5,0.5,5.3c0.2,1.2,0,2.5,0.4,3.7
			c0.4-2.5,0.5-5,0.5-7.5c0-0.5-0.1-1.1,0.1-1.6c0.2,3.1,0.7,6.2,0.8,9.3c0.8-2.5,0.7-5.1,0.7-7.7c-0.1-0.5,0-0.9,0.1-1.4
			c-0.2-0.4-0.2-0.8-0.3-1.2c0,0,0.1-0.1,0.1-0.1c0,0.3,0.2,0.6,0.2,0.9c0,2.6,0.5,5.1,0.6,7.6c0.1,0.6,0.1,1.2,0.3,1.7
			c0.4-1.5,0.7-3.1,0.7-4.7c0.1-1.8,0.1-3.6,0.1-5.5c0.2,2.4,0.4,4.8,0.6,7.1c0,1,0.1,2.1-0.1,3.1c0.1-0.1,0.3-0.1,0.4-0.2
			c0.6-2.4,0.8-4.8,0.8-7.2c0-0.9,0.1-1.9,0-2.8c0.3,1.3,0.2,2.6,0.4,3.9c0,1.4,0.3,2.7,0.2,4.1c0,0.7,0.1,1.4,0.2,2.1
			c0.7-1.7,0.7-3.6,0.9-5.4c0.1-1.3-0.1-2.5,0.2-3.8c0.1,3.1,0.6,6.2,0.8,9.4c0.2-0.3,0.3-0.7,0.4-1.1c0.4-2.1,0.3-4.2,0.4-6.3
			c0-0.9-0.1-1.8,0.1-2.7c0.2,3.3,0.6,6.5,0.9,9.8c0.1,0,0.2-0.1,0.2-0.2c0.1-0.9,0.3-1.9,0.3-2.8c0.3-1.7,0.1-3.5,0.2-5.3
			c0-0.1,0.1-0.3,0.1-0.3c0.1,0.8,0.2,1.7,0.3,2.5c0.3,2,0.5,4.1,0.6,6.1c0.6-1.5,0.5-3.2,0.7-4.8c0-1.4,0-2.9,0-4.3
			c0,0,0.1,0,0.1,0c0,0.9,0,1.8,0.2,2.7c0.1,1.8,0.4,3.5,0.4,5.3l0.1,0.1c0,0.5,0,1,0.1,1.5c0,0,0.1,0,0.1,0
			c0.2-0.8,0.3-1.7,0.4-2.5c0-2.3,0.2-4.5,0.2-6.8c0.3,1.7,0.3,3.5,0.5,5.3c0,0.6,0,1.3,0.1,1.9c0.2,0.8,0.1,1.6,0.1,2.4
			c0,0,0.1,0,0.2,0c0.8-3.1,0.5-6.3,0.6-9.4c0,0,0.1,0,0.1,0c0.1,2.2,0.4,4.4,0.6,6.5c0.2,0.8,0.1,1.6,0.3,2.4
			c0.4-0.9,0.3-2,0.5-2.9c0.1-0.9,0.1-1.8,0-2.7c-0.1-0.8-0.1-1.6-0.2-2.5c0-0.3,0.1-0.6,0.2-0.8c0.5,3,0.6,6,1.2,8.9
			c0.2-0.9,0.2-1.7,0.3-2.6c0.1-1.2,0-2.4,0-3.7c-0.2-0.7,0.1-1.5-0.2-2.2c0.1,0.1,0.2,0.1,0.3,0.2c0,0.7-0.1,1.4,0.2,2
			c0.3,2.4,0.7,4.8,1,7.3c0.1,0,0.2-0.1,0.3-0.1c0.4-1.3,0.2-2.6,0.2-4c-0.2-1.7-0.3-3.4-0.6-5c-0.1-0.7-0.1-1.6-0.8-1.8
			C206.3,101.1,203.4,100.8,200.5,100.5z"/>
		<g>
			<path class="st0" d="M173.1,101.9c-0.9,0-0.6,1.2-0.4,1.7c-0.1,0.2-0.3,0.4-0.4,0.6l-0.1,0.1c-0.4,0.2-0.8,0.5-1.2,0.7
				c-0.9,0.1-1.7-0.1-2.6-0.1c-0.6,0-1.2-0.1-1.8-0.4c-0.4-1.1-0.2-2.3,0.2-3.3c0.3-0.1,0.6-0.1,0.9-0.1c1.6,0.1,3.2,0.1,4.9,0.1
				C172.9,101.5,173,101.7,173.1,101.9z M169.2,101.7c-0.5,0-1.1,0-1.6,0c0,0.2,0.1,0.5,0.2,0.7c0.6,0,1.2,0,1.7,0
				C169.5,102.1,169.5,101.7,169.2,101.7z M171.6,102.1c-0.3,0.2-0.4,0.5-0.3,0.8c0.2,0,0.5,0.1,0.8-0.1
				C172.1,102.5,171.8,102.3,171.6,102.1z M167.5,103.3c0,0.3,0,0.6,0,0.9c0.3,0.1,0.6,0.2,0.9,0.2c0-0.3,0.1-0.7-0.2-0.9
				C168.1,103.2,167.8,103.3,167.5,103.3z"/>
		</g>
	</g>
	<g>
		<path class="st0" d="M178.6,101.7c-1.9-0.4-3.9-0.1-5.8-0.4c0.1,0.2,0.3,0.4,0.4,0.7c1.5-0.2,2.9,0.1,4.4,0.1
			C177.9,101.9,178.2,101.8,178.6,101.7z"/>
	</g>
	<g>
		<path class="st0" d="M179.6,102.3c-0.1-0.4-0.5-0.5-0.9-0.7l-0.2,0.1c-0.3,0.1-0.7,0.2-1,0.3c0.5,0.5,0.9,1.5,0.1,1.9
			c0.7,0.4,1.5,0.2,2.2,0.3l0.1,0C179.8,103.6,179.8,102.9,179.6,102.3z"/>
	</g>
	<g>
		<path class="st0" d="M177.4,102.5c-1.4-0.1-2.8-0.2-4.3-0.2c0,0.3-0.2,0.9,0.3,0.9c1.3,0,2.7,0,4,0
			C177.5,103,177.5,102.8,177.4,102.5z"/>
	</g>
	<g>
		<path class="st0" d="M207.3,102.9c-0.1,0.3-0.2,0.5-0.2,0.8c0.1,0.8,0.1,1.6,0.2,2.5l0.3,0.1c0.1,2.1,0.6,4.1,0.7,6.1
			c0.1,0,0.2,0.1,0.2,0.2c0.2-1.1,0.4-2.2,0.3-3.3c-0.2,0.9-0.1,1.7-0.3,2.6C207.9,108.9,207.8,105.9,207.3,102.9z"/>
	</g>
	<g>
		<path class="st0" d="M177.6,103.9c-1.6-0.1-3.3,0.1-4.9-0.2c-0.1,0.2-0.3,0.4-0.4,0.6c2.4,0.1,4.9,0.2,7.3,0.1
			c0.1,0,0.2-0.1,0.2-0.2C179.1,104.1,178.3,104.3,177.6,103.9z"/>
	</g>
	<g>
		<path class="st0" d="M201.9,111.6c-0.2-2-0.3-4.1-0.6-6.1c0,1.3,0.3,2.7,0.3,4c0.2,0.9,0.1,1.8,0.3,2.6c0.1-0.2,0.2-0.4,0.3-0.6
			c0.3-1.6,0.5-3.2,0.4-4.8C202.4,108.4,202.5,110.1,201.9,111.6z"/>
	</g>
	<g>
		<path class="st0" d="M207.3,108.9c-0.2,1-0.2,2-0.5,2.9c-0.2-0.8-0.2-1.6-0.3-2.4c-0.1,1,0.2,1.9,0.2,2.9c0.1-0.1,0.4-0.1,0.4-0.4
			C207.2,110.9,207.3,109.9,207.3,108.9z"/>
	</g>
</g>
</svg>
