<?xml version="1.0" encoding="utf-8"?>
<!-- Generator: Adobe Illustrator 24.0.2, SVG Export Plug-In . SVG Version: 6.00 Build 0)  -->
<svg version="1.1" id="Слой_1" xmlns:xodm="http://www.corel.com/coreldraw/odm/2003"
	 xmlns="http://www.w3.org/2000/svg" xmlns:xlink="http://www.w3.org/1999/xlink" x="0px" y="0px" viewBox="0 0 238.1 150.2"
	 style="enable-background:new 0 0 238.1 150.2;" xml:space="preserve">
<style type="text/css">
	.st0{fill-rule:evenodd;clip-rule:evenodd;fill:#2B2A29;}
</style>
<g id="Слой_x0020_1">
	<g id="_1844900064992">
		<path class="st0" d="M56.9,140c0.6-0.8,0.8-1.1,1.3-1.7c0.4-0.6,0.6-1.3,1.3-1.9c4.2,0,30.8,2.1,32.9,3L56.9,140L56.9,140z
			 M159.4,140l37.1-3.2c0.4,1.1,0.8,1.5,1.3,2.1L159.4,140z M208.1,135.6c0.4,0.6,0.6,1.5,1.1,2.3c0.8,1.1,0.8,0.8,1.7,1.7
			C207.2,139.6,207.6,138.7,208.1,135.6z M120.4,136.8c0.2,1.3,1.9,3.6,2.7,4.4c0.6,0.8,1.1,1.3,1.7,1.9c0.6,0.6,1.3,1.1,2.1,1.7
			C123.7,146.1,120.8,139.2,120.4,136.8z M143.1,128.2l0.6,2.3c0,0,0-0.2,0.2-0.2c0,0-0.4-0.2,0.6-0.4c0.6-0.2,1.1,0,1.7,0
			c0,0,2.7,3.6-0.4,4.2c-1.7,0.4-1.3,0-1.5-0.8c0,0,0,0.2,0,0.4c-0.2,1.3-1.1,1.3-1.5,1.5c0-3.4-0.6-4.8-0.6-5.3
			C142.3,126.9,141.9,129,143.1,128.2L143.1,128.2z M217.3,135.4c-2.1,4.8-5.3,5.3-7.2,2.3c-1.7-3-2.3-7-2.3-10.8
			c0.4,3.6,1.9,11.8,6.1,10.3c3.6-1.3,3.8-9.5,4.4-11.4l0.2-0.8c0,0,0-0.2,0.2-0.2C218.8,128.6,218.2,132.2,217.3,135.4L217.3,135.4
			z M31.2,125.7l0.6,2.5H16.2c-0.8-1.1-0.8-1.1-1.1-2.5C15.4,125.9,31.2,125.7,31.2,125.7z M137.6,127.6c2.1,0.8,3.4,0.2,4.4-1.5
			c-0.2,1.5-1.1,2.1-1.9,3h-1.5C138.1,128,138.3,128.8,137.6,127.6L137.6,127.6z M111.7,128.4H91.9c-0.4-0.8-1.1-1.7-1.1-3.2h19.8
			L111.7,128.4z M209.7,125.3c-0.6-1.3-0.6-2.5,0.2-3.4c0.6,0.6,0.6,0.6,0.6,1.7C210.6,124.8,210.4,124.8,209.7,125.3L209.7,125.3z
			 M139.5,124.8c-1.1-0.2-1.5-0.6-1.5-2.1c0-1.3,0.2-1.9,1.1-2.3C141,121.2,140.4,123.8,139.5,124.8L139.5,124.8z M196.9,129
			c-0.8,0.8-1.7,0.6-3.2,0.6c1.7,0.6,2.5,0.6,4.2,0.8c2.1,0.4,3,0.6,4.2,1.7c-1.9,4-7,3.2-10.5,3.2c-4.6,0.2-9.3,0.4-13.7,0.4
			c-9.1,0.2-18.1,0.8-27.2,0.8l1.3-6.7l11.4-0.4c0,0,0,0,0,0.2v0.2v0.2v0.2v0.2c0.6-1.7,2.3-1.1,6.3-1.3l21.1-1.9
			c-4.4,0-8.4,0-12.9-0.2c-4.2-0.2-8.2-0.8-12.2-1.3c0.8-2.5,1.9-4.8,2.3-7.8l31.6,1.7C200,122.9,197.5,126.7,196.9,129L196.9,129z
			 M5.3,119.8c4.2-0.6,16-0.6,21.5-0.6c4.2,0,5.9-0.6,5.9,1.3C30.8,121,8.2,120.2,5.3,119.8z M233.1,123.4c-0.6-0.4-0.6,0.6-0.6-1.7
			c0-1.3-0.4-4.4,0-5.5c0.6,0.2,0.6,0,0.8,1.3L233.1,123.4L233.1,123.4z M155.6,124.2c0.2-2.3,0.6-3.6,0.4-6.5l11.4,0.6
			c-0.2,2.5-1.1,5.7-2.1,7.6C162.9,125.9,158.1,124.6,155.6,124.2z M222,123.4l7.6-1.1l-7.4-1.1l-0.4-5.3l10.3,4.2
			c0.2,3.8,0.4,2.1-4.6,6.5c-2.5,2.3-3.4,2.3-8.4,3.2c0-3.4,0-1.5,1.5-3.4C221.1,125.7,221.3,124.6,222,123.4L222,123.4z M5.3,117.9
			c0.8-0.6,3.8-1.5,5.1-1.5l19.4,0.8L5.3,117.9z M196.9,129l1.3-2.1c0.4-0.8,0.6-1.5,1.1-2.3c0.6-1.5,1.1-3.2,1.5-4.8
			c5.3,0.2,4.8,0.6,10.1-5.9c-0.6,1.7-1.5,3.4-2.3,5.3c-0.6,2.1-0.8,4-1.7,5.9c-1.7,4.4-1.1,4-7.2,4.4
			C196.7,129.9,196.9,129.9,196.9,129L196.9,129z M16.9,107.8l0.6,1.5c-0.6,0.4-1.1,0.2-1.5,0.8c0.2,0.6,0,0.2,0.8,1.1l0.2,0.2
			c0,0,0.2,0,0.2,0.2c-1.1,1.1-1.5,1.1-3.4,1.1c1.5,0.6,1.3,0.8,3.4,0.6c-0.6,0.4-0.8,1.3-2.3,0.8c-1.5-0.2-4.2-3.2-1.7-6.7
			c1.1,1.1,1.3,1.7,3.4,1.9c-0.2-1.1-0.6-2.1-1.5-2.5C15.8,106.7,16.2,107.3,16.9,107.8L16.9,107.8z M26.1,108.8
			c-0.2-1.1-0.8-2.3-1.5-2.5c1.3,0.4,2.1,1.1,2.7,2.5c0,0-0.2,0-0.2,0.2l-1.3,0.8c0.4,1.5,0.2,0.4,1.3,1.3c-0.8,1.1-1.1,1.1-2.3,1.3
			l-0.8,0.2h-0.2c1.5,0.4,1.3,0.6,3,0.2c-2.5,3.2-7.2-1.9-3.8-5.7C24,108,24.2,108.8,26.1,108.8z M16.9,107.8
			c-1.5-4-7.2-2.1-5.5,3.8c0.4,1.7,1.7,3.4,3.4,3.4c2.1,0,2.5-2.1,3.6-3.2c0.2,3.8-0.2,5.3-7.2,4c-0.6-1.3-0.8-3.4-1.5-5.3
			c-0.6-1.5-1.7-4-0.6-5.5c1.3-0.8,5.7-0.6,7.2-0.2C16.4,105,18.1,108.2,16.9,107.8z M18.6,104.4c7-0.2,7.6-1.1,8.4,2.7
			c-0.6-0.4-1.3-1.3-2.1-1.7c-3-1.1-4.4,2.5-3.6,5.7c0.8,3.4,3.6,4.6,5.5,2.3c0.4-0.4,0.4-0.4,0.8-1.1l0.4-0.8c0-0.2,0-0.2,0.2-0.2
			c0,1.5,0.2,2.7-0.8,4c-1.3,0.4-4.8,0.6-6.1,0c-0.8-0.6-0.6-1.1-1.1-2.7C19.6,109.7,17.7,107.5,18.6,104.4L18.6,104.4z
			 M227.7,105.9c0.8,2.1,0.4-0.2,0,0.6c-3.4-1.5-6.7-3.2-11.2-3.6c-4.4-0.6-7.8,2.3-8.9,6.1l0.8-0.6c8-5.7,22.3,0.6,23.2,1.9
			c0.2,0.4,0.6,3,0.6,3.6c-9.7-1.3-9.5-3.6-14.8-5.1c-3.2-0.8-5.7-0.2-8.2,1.3c-1.3,0.6-2.1,1.7-3.6,1.5c-0.8-0.2-2.7-0.8-3.8-1.1
			c-5.3-1.5-10.8-2.5-16.4-3.6l-17.3-3l-0.2-1.7c5.1,0,22.3,2.7,29.3,3.8c3.2,0.4,6.3,1.3,9.7,1.5c1.5-2.3,0.8-3.2,3.2-4.8
			C215.4,98.5,225.3,105.6,227.7,105.9L227.7,105.9z M123.9,77.8h1.9c0.8,1.1,0.8,1.3,2.7,1.1c1.7-0.2,1.9-0.4,2.5,0.8
			c-0.8-0.6-1.1-0.4-2.5-0.4c-4.6,0.6-5.3-0.2-5.3,2.3l1.1,0.6c0,0,0.2,0,0.2,0.2l-1.5-0.2c-1.5-3.2,1.1-3,3.2-3.2
			C126.3,78.9,123.9,77.8,123.9,77.8z M195.8,95.5c0.2-3,0.6-2.3-0.8-4.4l-2.5-3.4c-3-3.6-1.5-3.4-6.3-5.7
			c-4.4-2.1-12.9-5.5-17.5-6.5c5.3,0.4,14.1,3.8,18.5,5.9c3.8,1.7,3.4,2.1,6.1,6.1C196,91.7,197.7,92.4,195.8,95.5L195.8,95.5z
			 M169.1,90c-1.1-2.1-1.1-6.1-1.7-8.6c-0.6-2.7-1.7-5.5-2.1-8.2c5.3,0.2,19.4,4.4,22.3,7.2c-1.7-0.4-3.4-1.3-5.1-1.9
			c-1.7-0.6-3.4-1.1-5.1-1.7c-3.4-1.1-7.6-2.1-11-2.5C167.2,79.5,169.1,83.7,169.1,90z M115.7,72.8c-1.5,1.1-7.4,1.3-9.7,1.9
			c-2.3,0.4-2.5,0.4-4.2,1.5L86.2,88.6C86,89,86.2,89.4,86,89c1.9,0.6,0.6,0.4,1.3,0l4.2-3.8c0.6-0.4,0.4-0.4,1.1-0.2l9.7-7.6
			c0.4-0.2,0.8-0.6,1.3-1.1c3.8-2.7,38.2-3.6,45.5-3.6l8.4,0.2c2.3,0.4-1.7-0.4,0.6,0.2l0.4,0.2c-18.1,0.4-32,0.8-50,3
			c-4.4,0.4-3.6,0.2-6.3,2.3c-1.5,1.1-3.6,2.5-5.3,3.6c0,1.3-0.2,1.1,1.1,1.7c0-0.4,0.4-0.6,1.3-1.3c6.5-4.6,5.5-4,13.1-1.9
			c6.1,1.5,12.9,4.4,15.8,5.3c-0.6,1.3-2.3,2.7-2.5,3.8c12,0.2,24,0.6,36,2.1c1.5,0.2,1.3,0,1.5,0.8c-0.8,0.6-3,0.2-3.8,0
			c-10.3-1.1-18.8-1.3-29.3-1.7l0.2,1.7H128c5.5-0.2,22.6,1.9,29.3,3c2.5,0.4,7.4,0.4,8.4,2.1c-7-0.6-30.6-4.2-35.8-3.4l-0.6,0.6
			c1.1,0.8,1.9,1.1,1.7,2.1c-0.2,0.6,0,0-0.4,0.6l-0.6,0.6c9.5,0.6,20.2,1.9,29.9,3c7.8,0.8,8,0,8,3c-5.3-0.6-36-5.7-38.2-5.3
			c-1.3,0.2-0.6,0.2-1.7,0v0.4c-0.2,1.9-1.9,0.2-2.7,1.3c-0.8,1.9-0.2,1.3-0.2,2.5c-1.7,0.2-1.7-1.5-3-4c-0.4-1.1-0.6-0.2-0.2-1.5
			c0.6-1.1,1.9-0.2,2.7-0.2c1.9,0,1.7-1.1,2.1-1.3c0,0,1.1,0.8,0,0.2c-0.8-0.4,0.2,0.4-0.6-0.6c1.1-1.1,0-0.4,1.3-0.8l-0.6-1.1
			l-8.4-0.4H82c0.2,0.6,0.6,1.1,0.4,1.7c12.2,0.2,24.7,0.2,37.1,0.2c-0.2-0.6-1.9,0-3,0c-1.3,0-2.7,0-4,0l-0.4,0.6
			c-0.6,0.6-1.3-0.4-1.3-0.4c0-0.2-0.2-0.2-0.2-0.2l-0.4,0.2l-0.4,0.2l-3.4,0.2c-0.8,0-1.1-0.2-1.9-0.4c-0.4-0.2-1.5-0.2-2.3-0.2
			l-7,0.2c-0.2,0-1.1,0-1.3,0C93,96,93.4,96,92.7,96.4c0.4,1.7-0.2,1.3,1.7,1.3h7.4c1.3,0,3-0.4,4.2-0.6c1.1,0,3.6,0.4,4.2-0.2h-3
			c1.1,1.1,2.1,0.6,2.7,1.3c2.3,0,3.2,0.2,4.2,1.7c-1.7-1.9-3.6-1.3-6.5-1.3l-23,0.4c0.8,1.1,0.4,0.6,1.7,0.6c0.8,0,1.5-0.4,2.1,0.4
			c5.9-0.2,12.2-0.2,18.1,0c4.6,0,4.4-0.4,5.5,3.8c0.4,2.3,1.3,5.5,1.5,7.6c-0.2-0.2-0.2-0.2-0.4-0.6l-1.3-4.4
			c-0.4,0.6,0.8,0.2-0.8,0.6c-0.2,2.3,0.2-0.4-1.9,1.3c0.2,1.3,0.4,0.6,1.5,1.5c-2.3,1.7-1.7,1.3-4.6,1.1c0.4,0.2,1.1,0.8,1.9,0.8
			c1.3,0.2,1.5-0.2,2.3,0c-4.8,2.3-8.9-1.9-5.1-6.7c1.5,0.8,0.8,1.9,4.4,2.1c-0.2-1.7-0.4-1.7-1.5-2.7l2.1,1.1h0.4
			c-1.3-1.1-3-3.2-5.7-1.7c-5.3,3-0.8,13.1,5.3,8.6c0.8-0.6,0.6-0.6,1.3-1.7c0.2-0.4,0.2-0.2,0.4-0.6c0,4.2-0.6,4.6-4.8,4.4
			c-0.4,0-0.2,0-0.6,0.4c12,0,9.5,1.3,15.6,1.9v0.6c0.2,0,1.1,0,1.3,0c1.1,0.2,0.4,0,1.1,0.6l1.7,1.3c0.8-1.5,1.7-3.2,2.5-4.6
			c1.1-1.7,2.1-2.7,3-4.2l-8,20.9c-0.8,2.1-1.5,3-4,3.2c-6.3,0.6-14.5,0-20.9-0.8c3.8-1.1,13.1-1.1,17.5-1.5
			c4.4-0.4,4.4,0.2,5.7-3.6c0.8-2.5,2.1-4.8,3-7.2c-0.4-0.6,0.2-0.2-0.8-0.6c-1.3-0.6-1.5,0-3.8,0c-2.1,0-4,0-6.1,0
			c0.8,1.1-0.4,0.6,1.9,1.1c0,0,1.5,0,1.9,0l-5.5-0.2c-0.2-0.6-0.2-0.6-0.6-1.5c-10.1,0.4-23,0.2-33.5,0.2c-2.3,0-2.1-0.4-3.6-1.5
			H48.5l-0.2-0.2c1.5,0,1.5-0.2,1.9-0.4c-0.2-0.4-0.2-0.8-2.3-0.8c-1.1,0-1.3,0.2-2.1,0.4c-1.3,0.2-3.2-0.6-3.6,0h-2.1
			c0.6-2.1-0.4-1.1-2.1-0.8l0.2,0.2c0,0,0.4,0,0.6-1.1c-1.1,0-0.8-0.2-1.7,0.2c0.2,0,0.2,0.2,0.4-0.4l-0.2-1.1
			c1.1,0-0.6,0.6,1.3,0.2l0.6-0.6c0.6-0.6-0.6-0.2,0.6-0.4h1.1c0,0-1.5,0.8,0-0.2c0.8-0.6,0.8-0.2,2.5-0.6l15-0.6
			c3.6,0,3.6,0.4,4.4-0.8c-1.3,0.8-2.1,0.6-4,0.2c-3.4-0.6-11-0.4-14.1,0.2c-2.3,0.4-3.4,0.4-6.1,0.4c0.8-1.1,0-0.4,1.5-1.1
			l31.8-0.8c4.2,0,2.7,1.1,4.2-0.2h-3c0.6,0.4-0.6,0,0.4,0.2c1.1,0.2,2.3,0.2,3.2-0.2v-0.2l-0.2-0.8l-2.5,0.2c-1.5,0.2-3.6,0-5.3,0
			c-7.2,0-19-0.2-25.5,0.6c-3.4,0.6-3.6-0.6-4.2,0.2c-2.1,0-1.1-0.2-1.5-0.4l-0.6-0.6c0,0-0.2,0-0.2-0.2c0-0.2-0.2-0.2-0.2-0.2
			c-0.6,0.8,0-0.2-0.6,0.6l1.3-0.8c0,0,0.2,0,0.2-0.2h0.2h0.2c1.3-0.4,0.8-0.4,2.5-0.4v-0.2c2.1-1.7,24-1.3,26.6-1.3l0.2-0.6
			c-5.1,0-10.3,0-15.4,0c-6.3,0-9.3,0.8-14.1,0.8l0.6-0.8c1.3-0.6,1.3-0.6,3-0.6c-1.3-1.1-5.9-1.9-6.3,0v0.2l0.2,1.1
			c0,0,0.4,0.2,0-0.4c-0.2-0.6-0.8-0.6-1.1,0l2.3,10.3l-3.6-11.6c-1.3,0.6-0.2-0.2-0.8,0.6c-0.4,0.4,0,0-0.2,0.8l-1.3-1.5
			c0,1.1,0.4,0.6-0.8,0.2v2.3c1.1-1.5,0,0-0.2-1.5c-0.8,0.6-1.3-1.1-0.6,1.1c-0.2,1.9,0.8,4.2,1.1,6.3l-3.4-9.7c-0.2-0.6-8,0-9.5,0
			l-8.2,0.2H8.4L7.8,104c-0.6,1.1,1.9,7.8,2.1,9.7l-1.3-3H8.4c0,1.5,0.8,3.2,1.5,4.6c-2.1,1.7-4,0.6-6.5,3.6
			c0.8,0.8,0.6,0.2,1.7,1.1c0.2,0.2,1.5,1.3,1.7,1.5c1.7-0.4,4,0,5.7,0c1.1,2.5,0.4,0,1.9,4.6c0.6,1.9,1.7,3.2,2.7,4.2
			c4.2,3.6,5.9,1.7,11.4,2.5c0.6,1.7,0.8,3,1.7,4.4c0.8,1.5,2.1,2.5,2.7,3.4c-2.5,0.4-16.4,1.9-17.5,3c1.1,0.6,2.5,0.4,3.8,0.4
			c1.3,0,2.5,0,4,0l101.4,1.5c4.8,0.2,11.4,0.2,16,0c-0.6-0.2-1.5-0.6-2.1-1.1c-1.3-0.6-0.8-0.6-1.9-1.5c-6.1-6.1-6.1-22.3-2.7-31.4
			c0.4-1.3,1.9-3.6,1.9-4.4c-0.2,1.7-1.5,5.5-1.9,8c-0.4,3.4-0.6,6.1-0.4,9.7c0.2,5.9,1.9,11.8,4.8,15.6c1.3,1.5,4.8,3.4,7.4,1.5
			c1.9-1.5,2.7-3.6,3.8-6.5c1.5-4,2.7-13.5,2.3-18.1c0.4,7,0.4,21.1-5.7,26.1c-1.3,1.1-1.9,1.1-3.2,1.7c1.5,0,1.9-0.8,7-1.5
			l23.8-1.9l20-1.1c4.6-0.2,9.5-0.2,14.1-0.4c6.5-0.2,8,0.6,9.9-5.1l1.5-4.6c3.4-1.3,4.6,0,8.4-2.7c1.1-0.6,2.1-1.7,3.4-2.3
			c4.4-2.7,3.8-0.2,3.8-7.6c0-0.8,0-1.7-0.4-2.3l-1.3-0.8l-0.2-0.2c0,0-0.2,0-0.2-0.2c1.3-1.3,0.6-1.9,0.2-3.8
			c-1.1-4.2-1.1-2.5-1.7-3.8c-1.1-0.4-1.9-1.3-3-1.5l-7.4-4.2c-3-1.3-5.5-2.3-8.4-3.4c-5.3-1.5-7.4,0-9.3-2.5
			c-0.8-1.1-4.4-6.1-4.4-7c-1.1-0.4-5.3-6.5-6.5-7.8c-0.2-0.2-0.4-0.2-0.4-0.4l-0.6-0.4c-1.3-0.2-5.3-2.7-7.2-3.4
			c-8.4-3.6-17.5-5.1-26.8-5.3c-7-0.2-13.9-0.4-20.9,0C132.4,71.5,117,73.2,115.7,72.8L115.7,72.8z"/>
		<path class="st0" d="M97,106.9c-0.2-1.3-0.8-2.3-1.7-2.7c1.7,0.2,3.2,1.5,3.2,3.4c-0.6-0.2-1.3-0.2-1.9,0.2
			c-0.2,1.5,0.4,0.4,1.5,1.7c-1.9,1.1-1.9,1.3-4.6,0.8c1.1,1.1,2.3,1.3,4.2,0.8c-2.1,3.6-10.1-1.9-4.6-6.3
			C94.4,106.1,93.8,106.9,97,106.9z M99.3,109.7c0.2,5.7-1.9,4.6-6.5,4.4c-5.5-0.2-3-1.5-4.8-5.9c-0.6-1.3-1.3-2.7-1.1-4.4
			c0.2-2.3,1.7-1.9,3.8-1.9c1.7,0,3.8,0,5.5,0.2c1.9,0.2,1.9,1.5,2.3,3.4L98,105c-1.7-1.5-3.2-2.7-5.7-1.5c-3.8,1.9-2.7,9.9,2.3,9.7
			C97.4,113.2,98,111.1,99.3,109.7L99.3,109.7z M37.9,94.7c2.7-0.4,0.4-3,12-3.8c-2.3,1.1-5.7,1.7-8,2.7c-2.1,1.1-4.6,3.6-6.1,4.6
			l1.5-2.1l-22.8,1.3L37.9,94.7z M92.5,85c-0.8,0-0.6,0-1.1,0.2L87.3,89c-0.6,0.4,0.6,0.6-1.3,0c0.4,0.4,0,0.2,0.2-0.4H68.9
			c-11.2,1.1-14.3,0-26.6,2.7c-4.6,1.1-3,2.7-6.3,3.2l-11.4,1.1L20.2,96C15.8,96.4,11,96.4,8,98.7c-1.5,1.1-3.4,1.9-2.5,4.6
			c0.6,1.9,1.9,4,1.9,5.9l1.1,1.7h0.2c-0.4-1.9-2.3-5.7-1.9-7.4c1.5-1.7,6.7-1.1,9.5-1.3c16-0.6,9.5,0.2,12.4,4.4
			c-0.6-1.9-0.4-0.4,0.6-1.1c0.2,1.5,1.5,0,0.2,1.5v-2.3c1.3,0.4,0.8,0.8,0.8-0.2l1.3,1.5c0.2-0.6-0.2-0.4,0.2-0.8
			c0.6-0.8-0.2,0,0.8-0.6c-1.3-2.7,2.1-2.7,4.2-3.2c11-1.7,11.8-1.5,23.4-1.5c3.8,0,13.3-0.2,16.4,0.2c2.3,0.4,2.3,3.8,2.5,5.9
			c0.4,2.1,1.1,4.8,1.1,7c-0.2-1.5-1.1-4.2-1.5-5.9c-1.9-7.6,0.2-5.9-12.9-5.7c-7.4,0-27-0.2-32.5,1.9c-0.2,1.1,0,1.9,0.4,2.7
			c0.2-0.6,0.8-0.4,1.1,0c0.4,0.8,0,0.4,0,0.4l-0.2-1.1v-0.2c0.6-1.7,5.3-1.1,6.3,0c-1.7,0-1.7-0.2-2.3,0.4l-0.6,0.8
			c5.1,0,7.8-0.8,14.1-0.8c5.1,0,10.3,0,15.4,0l-0.2,0.6c-2.5,0-24.5-0.4-26.6,1.3v0.2c-1.7,0-1.3-0.2-2.5,0.4h-0.2h-0.2
			c0,0-0.2,0-0.2,0.2l-1.3,0.8c0.6-0.8,0,0.2,0.6-0.6c0.2,0,0.2,0,0.2,0.2c0,0.2,0.2,0.2,0.2,0.2l0.6,0.6c0.4,0.2-0.8,0.4,1.5,0.4
			c0.6-0.8,0.6,0.4,4.2-0.2c6.5-1.1,18.3-0.6,25.5-0.6c1.7,0,3.6,0.2,5.3,0l2.5-0.2l0.2,0.8v0.2c-1.1,0.4-2.3,0.2-3.2,0.2
			c-1.3-0.2,0.2,0.4-0.4-0.2h3.4c-1.5,1.3,0,0.2-4.2,0.2l-31.8,0.8c-1.3,0.4-0.6-0.2-1.5,1.1c2.5,0,3.8,0,6.1-0.4
			c3.4-0.6,10.8-0.8,14.1-0.2c1.9,0.4,2.7,0.4,4-0.2c-0.8,1.3-0.8,0.8-4.4,0.8l-15,0.6c-1.7,0.4-1.9,0-2.5,0.6c-1.5,1.1,0,0.2,0,0.2
			c-0.2,0-1.1,0-1.1,0c-1.1,0.2,0-0.2-0.6,0.4l-0.6,0.6c-1.7,0.6-0.2-0.2-1.3-0.2l0.2,1.1c-0.2,0.6,0,0.4-0.4,0.4
			c0.6-0.4,0.4-0.2,1.7-0.2c-0.4,1.1-0.6,1.1-0.6,1.1l-0.2-0.2c1.7-0.2,2.7-1.3,2.1,0.8h2.1c0.4-0.6,2.3,0,3.6,0
			c0.8,0,1.1-0.2,2.1-0.4c2.1,0,1.9,0.4,2.3,0.8c-0.4,0.2-0.4,0.4-1.9,0.4l0.2,0.2c5.7-0.6,13.1-0.4,19-0.2
			c14.5,0.2,32.9-0.2,47.2,0.4c2.5,0.2,6.7,0.8,8.6,0.8l-11.4,0.2c0.4,0.8,0.4,0.8,0.6,1.5l5.5,0.2c-0.2,0-1.7,0-1.9,0
			c-2.3-0.2-0.8,0-1.9-1.1c2.1,0,4,0,6.1,0c2.3,0,2.3-0.6,3.8,0c1.1,0.4,0.2,0,0.8,0.6l1.3-2.3l-1.7-1.3c-0.6-0.6,0-0.4-1.1-0.6
			c-0.2,0-0.8,0-1.3,0v-0.6c-6.1-0.6-3.6-1.9-15.6-1.9c0.4-0.4,0.2-0.4,0.6-0.4c-5.7-0.2-4.8,0.8-5.9-4.2c-0.4-2.3-2.5-5.3-1.3-7.8
			c1.5-1.1,5.3-0.4,7.2-0.4c3.4,0,3,0.6,3.8,3.4l-0.2-0.2h-0.4l0.6,1.5c1.9-0.4,0.4,0,0.8-0.6c-2.7-6.7,1.9-5.3-14.3-5.1
			c-2.3,0-11.2-0.6-12.4,0.4c-0.4,1.3,2.1,8.9,2.3,11.2c-3.8-11.8-5.9-12.6,1.1-12.6c-0.8-0.8-1.5-0.4-2.1-0.4
			c-1.3,0.2-1.1,0.4-1.7-0.6c-7-0.2-33.7-0.2-39.2,0.4c-6.1,0.6-11.8,2.1-18.1,2.1c-6.5,0-13.1,0.2-19.6,0c7.2-0.4,15.6-0.6,23-1.3
			c2.1-0.2,13.9-1.7,15.2-3.2c0.6-0.6,0.6-0.8,1.3-1.7l1.3-1.3c0,0,0.2,0,0.2-0.2C49.7,93,50,93,50,93l-2.3,4
			c21.3-0.8,42.2-0.2,63.4,0c-0.6-0.6-1.7-0.2-2.7-1.3h3c-0.6,0.6-3.2,0.2-4.2,0.2c-1.3,0-3,0.4-4.2,0.6h-7.4
			c-1.9,0-1.3,0.4-1.7-1.3c0.6-0.4,0.2-0.4,1.3-0.6c0.2,0,1.1,0,1.3,0l7-0.2c0.8,0,1.9,0,2.3,0.2c0.8,0.2,0.8,0.4,1.9,0.4l3.4-0.2
			l0.4-0.2l0.4-0.2c0,0,0.2,0,0.2,0.2c0,0,0.6,1.1,1.3,0.4l0.4-0.6c1.3,0,2.7,0,4,0c1.1,0,2.7-0.6,3,0c-12.2,0-24.9,0.2-37.1-0.2
			c0.2-0.6,0-1.1-0.4-1.7h36.3H82.6c1.1-1.9,1.9-1.3,4.6-1.3c11.4,0,32.7-0.4,41.7,0.6h2.3l-0.2-1.7l-66.8,0.2
			c2.5-1.1,43-1.1,49.3-1.1l-20.9-0.8c0.6-1.3,4-4,5.5-4.8c-1.5-0.6-1.1-0.4-1.1-1.7C96.1,83.1,93.6,84.8,92.5,85L92.5,85z"/>
		<path class="st0" d="M129.8,98.9c-0.8-0.4,0,0-1.1-0.4l1.3-0.2l0.6-0.6c0.4-0.6,0.2,0,0.4-0.6c0.2-1.1-0.4-1.5-1.7-2.1l0.6-0.6
			c-0.6-0.4-2.1-0.4-3.2-0.4l0.6,1.1c-1.3,0.4,0,0-1.3,0.8c0.6,1.1-0.2,0.2,0.6,0.6c1.1,0.6,0.2,0,0-0.2c-0.4,0.2-0.2,1.3-2.1,1.3
			c-0.8,0-2.1-0.8-2.7,0.2c-0.4,1.3-0.2,0.4,0.2,1.5c1.3,2.5,1.3,4.4,3,4c0-1.3-0.6-0.8,0.2-2.5c1.1-1.1,2.7,0.6,2.7-1.3v-0.4
			C129.2,99.1,128.8,99.1,129.8,98.9L129.8,98.9z"/>
		<path class="st0" d="M143.8,130.5C143.8,130.3,143.8,130.5,143.8,130.5l-0.6-2.3c-1.1,0.8-0.8-1.3-0.8,1.7c0,0.2,0.6,1.9,0.6,5.3
			c0.4-0.2,1.1-0.2,1.5-1.5c0-0.2,0-0.2,0-0.4c0,0.8-0.2,1.3,1.5,0.8c3.2-0.6,0.4-4.2,0.4-4.2c-0.6,0-1.1-0.2-1.7,0
			C143.5,130.1,143.8,130.5,143.8,130.5L143.8,130.5z"/>
	</g>
</g>
</svg>
