<?xml version="1.0" encoding="utf-8"?>
<!-- Generator: Adobe Illustrator 24.0.2, SVG Export Plug-In . SVG Version: 6.00 Build 0)  -->
<svg version="1.1" id="Слой_1" xmlns:xodm="http://www.corel.com/coreldraw/odm/2003"
	 xmlns="http://www.w3.org/2000/svg" xmlns:xlink="http://www.w3.org/1999/xlink" x="0px" y="0px" viewBox="0 0 238.1 150.2"
	 style="enable-background:new 0 0 238.1 150.2;" xml:space="preserve">
<style type="text/css">
	.st0{fill-rule:evenodd;clip-rule:evenodd;fill:#2B2A29;}
</style>
<g id="Слой_x0020_1">
	<path class="st0" d="M195.4,96.7L195.4,96.7c0.3-0.4,0.3-0.3,0.5-0.5l0.4-0.7c-1.3,0.7-0.5,0.2-1.2,1c-0.9,0.9-0.3-0.3-0.9,1.2
		C195.1,97.2,194.8,97.1,195.4,96.7L195.4,96.7L195.4,96.7c-0.3,0.7-0.3,0.3-1.1,1.1l-1.3,1.4l-0.1,0.1c-0.4,0.4-0.3,0-0.7,0.9
		c0.7-0.3,0.5-0.4,1.1-0.8c-0.3,0.4-0.2,0.2-0.4,0.5c-0.4,0.5,0-0.3-0.4,0.6l4-3.7c1.1-1.1,0.6-0.4,0.8-1.1
		c-0.3,0.3-0.3,0.4-0.5,0.5c-0.1,0.1-0.5,0.3-0.7,0.4c0.4-0.6,0.1-0.2,0.4-0.5l0.4-0.6c-0.4,0.2-0.3,0.1-0.6,0.3L195.4,96.7
		L195.4,96.7L195.4,96.7z M235.4,68.1c0.7,0.5,0,0.3,1.1,0.9c0.9,0.5,0.2,0.4,0.6,1.2c0.2-0.2,0.1,0.3,0.2-0.5v-0.5
		C237.1,67.9,236.1,68,235.4,68.1L235.4,68.1z M156.7,103.1l1-0.7c-0.4,0.6-0.4,0.5-0.8,1c0.6-0.1,0.5-0.1,0.8-0.5
		c0.5,0.5,0.7,0.1,1.3-0.5l-0.2-0.2l-0.1-0.1l0.1-0.5c-0.5,0.1-0.1,0-0.6,0.4c-0.4,0.3,0,0-0.4,0.2l0.2-0.2c0,0,0.2-0.1,0.2-0.2
		c0.3-0.4,0.1-0.1,0.3-0.7C157.7,101.6,157.2,102.3,156.7,103.1z M181.2,51c0.5,0.1,0.6,0.3,1,0.6c0.8-0.6,1.4-1.2,1.8-1.8
		c0,0-0.1-0.1-0.1,0h-0.7c-0.5,0,0.1,0-0.4,0.1C182.5,49.9,181.4,49.6,181.2,51z M185.2,51c-0.3,0.7-0.1,0.1,0.2,0.3
		c0.2-0.4,0.3-0.5,0.8-0.8c-0.4,1.3-0.7,0-1.1,1.5c0.1,0,0.1-0.1,0.2-0.1l1-0.7c-0.6,1.1-1.8,1.5-2.5,2.8c0.6-0.2,2.2-2,2.8-2.6
		c0.2-0.2,0.3-0.3,0.5-0.5c0.4-0.4,0.8-0.7,1.1-1.3c-0.7,0.3-0.5,0.4-1.1,0.8l0.4-0.7l-0.9,0.5c-0.3,0.2,0.2,0-0.4,0.2
		c0.3-0.5,0.2-0.2,0.4-0.7c-0.7,0.2-0.3,0.2-0.8,0.6C185.2,50.8,185.6,50.2,185.2,51L185.2,51z M217.8,101.5
		c-0.5,0.3-0.4,0.5-0.7,0.8c0.8-0.1,0.4-0.1,1-0.7c0.3-0.3,0.5-0.5,0.9-0.8c0.4-0.4,0.5-0.4,0.8-0.8c0.6-0.7,0.5-0.2,0.9-1.1l-1,0.6
		c0.5-0.4,0.7-0.5,1-1.2l-1.3,1c0.1-0.2,0.2-0.4,0.4-0.8c-0.9,0.3-0.5,0-1.2,0.8l1.1-1.1c1.1-1.1,0.8-0.4,1-1.4l-2.3,2
		c1.2-0.9,1-0.9,0.9-1.3v-0.1v-0.6c0-0.4-0.7,0.1,0-0.2c0.3-0.5,0.3-0.5,0.7-0.8c0.5-0.4,0.5-0.3,0.6-1c-0.8,0.3-4.2,3.9-4.8,4.5
		l-2.8,2.9l0.8-0.1c0.2,0,0.3,0.1,0.7-0.4c0,0,0,0,0,0.1l0.2,0.4c0.4-0.4,0.6-0.3,1.1-0.8c0.3-0.3,0.5-0.6,0.9-1.1
		c-0.2,0.5-0.4,0.3-0.4,0.8l0.1,0.2l0,0c-0.5,0.3-0.4,0.2-0.6,0.9c0.9-0.2,0.9-0.5,1.9-1.5c0,0.1-0.1,0.1-0.1,0.2L217.8,101.5
		L217.8,101.5z M202.1,46.8L202.1,46.8C202.1,46.8,202,46.7,202.1,46.8l-0.9-0.2c-0.9,0-0.6-0.3-1.1,0.3c-0.1-0.3-0.3-0.3-0.4-0.3
		c-0.1,0.1-0.2,0.2-0.3,0.2l-0.5,0.8c0.2,0.1,0.5,0.1,0.9,0.2c0.5,0.1,0.1,0.2,0.7-0.1c-0.4,0.9-0.2,0.3,0,0.6
		c0.3-0.2,0.3-0.1,0.6-0.3l-0.1,0.6c0.8-1,1.6-1.3,2-2.1C202.4,46.6,202.4,46.4,202.1,46.8L202.1,46.8z M153.2,100.6l0.6-0.3
		c-0.8,0.6-0.9,0.9-0.9,0.9l-0.1,0.1h0.8l0.4-0.7c0.4-0.4-0.2,0.2,0.3-0.2c0.8-0.5,0.1-0.4,0.8-0.9c0.4-0.3,0.1,0.1,0.5-0.3
		c1.1-1.3,0.3-0.1,0.9-0.8c0.1-0.2,0.2-0.5,0.3-0.8c-0.6,0.2-0.1-0.1-0.7,0.4c-0.2,0.2-0.3,0.4-0.5,0.6c0.8-1.2,0.1-0.7,0-0.8
		c-0.4,1-0.4,0.4-1,1c-0.2,0.2,0,0.1-0.3,0.4C154.3,99.2,153.4,99.6,153.2,100.6L153.2,100.6z M224.4,68.5c0.8-0.6,2.4,0.1,3.3-0.3
		c-0.5-0.3-3.3-0.2-4,0c-0.1,1.6,1.5,0.7,2.9,1.3c0.3,0.1,0.1,0.1,0.3,0.2c-0.8,0.5-2.6-0.2-3.3,0.3c0.4,0.4,3.5,0.3,4,0
		c0.4-0.9-0.4-1-1.2-1.1c-0.4,0-0.8,0-1.2-0.1C224.4,68.8,224.5,68.7,224.4,68.5L224.4,68.5z M209.4,47.6c0.6-1,0.5-0.1,0.9-1.1
		c-0.4,0.3-0.7,0.4-1,0.7l-2.2,2.2c-0.4,0.4-0.4,0.6-0.7,0.8l-1.2,1.1c-0.5,0.5-0.6,0.4-0.8,1.1c0.7-0.2-0.1,0.1,0.5-0.4
		c0.4-0.4,0.2-0.2,0.6-0.4l-0.5,0.8c0,0-0.1,0.2-0.1,0.1c0,0-0.1,0.1-0.1,0.2c1.9-0.7-0.4,0,1.5-1.2c0.3-0.2,0.1,0,0.3-0.4
		c0.5-0.7-0.2,0,0.6-0.5c0.2-0.1,0.1,0,0.3-0.2c0,0,0.1-0.1,0.1-0.2l1.4-1.3c1-0.8-0.3-0.3,0.7-0.8l-0.1-0.1L209.4,47.6L209.4,47.6z
		 M225.9,93.8l0.1-0.2c1.1-1.1,2.2-2.1,2.5-2.2l-2,2.1c-0.2,0.2-0.2,0.1-0.4,0.3c-0.3,0.2-0.1,0.1-0.3,0.4c-0.6,0.7-2.4,2.1-2.7,2.8
		l0.7-0.2v0.1c0.1,0.3-0.1,0,0.1,0.2l2-2L226,95l0.7-0.8c0.4-0.5,0.4-0.3,0.8-0.7l1.4-1.5c0.3-0.2,0.5-0.3,0.7-0.6
		c-0.2,0.8-0.1,0.3-0.7,0.8l-1.6,1.6l-0.1,0.1c-0.3,0.2-0.1,0.1-0.4,0.3L224,97c0.3-0.1,0.9-0.6,1.5-1.2c0,0.1-0.1,0.2-0.1,0.3
		l0.1,0.4v0.3v0.1l0.2,0.3c0.2-0.6,0.2-0.4,0.7-0.7l-0.6,0.7c0.7-0.1,0.3,0.1,1.3-0.9c0.6-0.6,0.5-0.7,1.2-1l-1.7,1.8
		c0.5-0.1,0.4-0.2,0.7-0.2l0.8-0.2h0.1c0.4,0-0.4,0.3,0.4,0c0.4-0.2,1.4-1.4,1.9-1.8l1.4-1.4c0.2-0.2,0.2-0.3,0.4-0.4l1.9-1.8h0.9
		c-0.3,0.8-0.2,0.3-0.8,0.9c-0.6,0.6-0.1,0.5-1,0.8c0.3-0.5,0.4-0.3,0.6-0.9c-0.6,0.2-1.4,1.1-1.7,1.7l1-0.7c-0.3,0.8-0.2,0.4-0.8,1
		c-0.5,0.5-0.2,0.5-1,0.8l-0.9,0.3c-0.2,0.4,0,0.2,0,0.5v0.2c0,0.2-0.4,0.6-0.5,0.8c0.8-0.3,0.7-0.7,1.4-1c-0.2,0.6-0.3,0.7-0.7,1
		c0.9-0.1,0.3,0,0.8-0.6l2.9-2.9c0.2-0.2,0.2-0.2,0.4-0.3l0.1-0.1l0.1-0.1l0.1-0.1c0.4-0.4,0.9-1.2,1.5-1.3
		c-0.3,0.7-3.5,3.4-4.2,4.4c1.4-0.5,0.2-0.6,1.6-1.1l-0.9,1c-0.5,0.4-0.5,0.4-0.8,1c0.7-0.2,0.4-0.1,0.8-0.6l2.4-2.4
		c0.3-0.3,0.3-0.3,0.6-0.6c0.6-0.5,0.7-0.4,1-1.3l-1.4,1.2c0.6-1.7,1.5-0.2,1.4-2.9c0-1.4,0-2.7,0-4.1c-3.2,0.1-6.4,0-9.6,0
		c-3.5,0-5.5-0.6-6.2,2c-0.3,0.9,0.1,0.5-0.5,0.8c-0.4-0.8,0.4-2.5,1.8-3c0.9-0.3,12.9-0.2,14.4-0.1c0.3-0.3,0.2,0.4,0.2-0.5
		c-2.7,0.3-7.3,0.1-10.2,0.1c-3.8,0-6.2-0.4-6.6,3.6c-10.5-0.1-20.9-0.2-31.3,0.1c-5.2,0.1-10.3,0.4-15.4,0.4
		c-2.5,0-5.1,0.1-7.6,0.2c-1.3,0.1-2.4,0.3-3.5,0.5c-2.6,0.5-2.1,0.6-3.1,0.8c-0.1-4.1-0.1-8.2,0-12.3c0.1-7-1.1-6.5,5.4-6.7
		c16-0.3,32.4-0.2,48.4-0.2c3.1,0,22.9-0.2,24.1,0.1l0.1-1h-26.7l-1.3-3.7h27.9V66h-28.2c-0.2-0.3-3.2-7.9-3.3-8.3
		c-0.7-0.7-2-6-5-8.1c-1-0.7-1.8-0.9-3.2-1.2c-4.9-0.9-14.2,0.1-17-0.3l-0.6-2.4c0.8,0.5,11.9,0.2,13.9,0.2c4.8,0,9.6,0,14.4,0
		c9.6,0,19.2,0.2,28.8,0v-0.8c-1.7,0.2-39,0-42.7,0.1c-2.1,0-12.8,0.3-13.9,0.1l-0.6-1.7l57.1-0.1v-0.7c-0.8-0.3-10.7-0.1-12.9-0.1
		c-0.9,0-3.6,0.4-3.5-0.7c0.1-0.8,0.9-0.6,1.6-0.5h13.1c2.2,0,1.5,0.1,1.7-0.3c-0.6-0.3-2.7-0.2-4.8-0.2c-14.4,0-29.3-0.1-43.7,0
		c-1.7,0-5.1,0.1-6.5-0.9c-1.6-1-3.3-6.4-3.6-8.4c-0.3-1.7-0.7-2.3-0.7-4.2c0-1.4-0.1-3.3,0.4-4.4c0.1,8.4-0.2,7.3,2.6,7.4
		c0.2,0.8,0.8,2.2,1.2,3c1.3,3,2.4,6,5.8,6.5c2.3,0.3,29.7,0.1,32.8,0.1c5.4,0,11-0.2,16.4,0c0.2-0.8,0.2-5.3,0-6
		c-0.1,0.6-1.6,3.2-2.1,4.2c-0.3,0.7-0.4,1.1-0.9,1.2l-4.9-0.1l4.2-7c1.7-2.7,0.8-2.2,3.7-2.2v-6.4L179.8,24
		c-0.5-0.1-0.3,0.1-0.5-0.4c0.9-0.2,12.5-0.2,14.4-0.2c14.1-0.1,29.3-0.5,43.2-0.3l-0.1-5.9c-12.9,0.2-23.3,0.3-36.2,1.3
		c-2.3,0.2-4.4,0.6-6.6,0.7c-1.4,0.1-5.2,0.8-6.2,1.3c-3.7,2-2,2.5-4.7,2.6c0.2-0.4,0.2-0.2,0.4-0.5c0.1-0.1,0.2-0.3,0.2-0.3
		l2.3-2.1c1.9-1.5,3-2.1,5.6-2.2c0.8,0,1.1,0.2,1.7,0.2c1.5,0,5-0.8,6.8-0.9c2.4-0.2,4.7-0.3,7-0.5c9.6-0.8,19.9-0.7,29.7-0.8v-1
		c-2.4,0.3-5.7,0.1-8.2,0.1c-8,0.2-15.9,0.2-23.9,0.9c-2.5,0.2-5.2,0.3-7.5,0.7c-1.1,0.2-2.5,0.5-3.6,0.5c-5.2,0.1-4.2-0.8-9,3
		c-0.9,0.8-1.4,1.2-2.2,2.1c-0.9,0.9-1.6,0.9-3.5,0.7l-0.8-1.9c-1.2-0.3-2-0.2-2.4,0.8c-0.6,1.4-1.2,6.4-1.4,7.8
		c-0.5,3.8-0.2,2.9-3.3,7.1l-2,3.2c-0.3,0.6-0.6,1-0.9,1.6c-0.4,0.7-0.6,0.9-1,1.7c-0.6,1.1-1.3,2.2-1.9,3.4c-0.5,1.1-1.8,2-2.6,2.8
		c-0.7,0.3-8.8-0.8-11.1,0.6c-4,2.5-3.5,7.7-1.5,9.6l1.1,1c0.8,0.6,1.9,1,3,1.2c-1.1,2.2-0.7,1.8-2.2,3.4l-2.8,3.1
		c-1.9,2.1-2.7,4.7-3.5,8.1c-0.9,4.3-1.6,15.8-2.1,21c-0.8,8.6-2.1,31.1,1.6,40c0.3,0.7,0.8,1.3,1.1,1.9c-1.5,0.3-3.2,0.4-4,1.3
		c2.3,1.6,18.5,1.2,22.6,1.2c7.9,0,16,0,24,0c16,0,32-0.2,47.9,0v-4.5h-57.5c0.1-1.1,0.5-0.2,0.5-3.1c0-1.1-0.1-3,0.1-4l35.3-0.3
		c0,1.4-0.5,1.8,2.5,1.8l0.5-0.9h0.7c0.3,0.8,0.2,1.2,1,1.6c0.7-0.4,0.4-0.5,0.9-1.3c0,0,0-0.1,0.1-0.1c1.8,0.1,2.4,0.9,3.9,0.6
		c2.9-0.7,3,0.7,6.5,0.4c1-0.1,1.2,0,2.2-0.1c0.6,0,1.5-0.4,1.9-0.4c0.5,0,1,0.6,1.5,0.8v-13.7c-2.8,0-5.6-0.2-8.2-0.3
		c-2.6-0.1-5.2-0.6-7.5-0.7c1.5-0.7,13.4-0.1,15.9,0l-0.1-7.4l-13.1,0.1c-1.5,0-2.8-0.3-3.5,0.8c-1.7,2.8,0.1,13.3-3.4,14
		c0.2-2.8,0.5-5.6,0.9-8.3c0.7-5.3,0.1-8,5.5-8.1l13.6-0.1l-0.1-1.4c-3.6,0.1-7.2,0-10.9,0c-4,0-6.5-0.6-7.8,2.8h-6.3
		c-1.1-2.5-0.8-2.5-2.8-4.4c-1.2-1.2-3.1-1.7-5.3-1.7c-3.8-0.5-12.9-1.1-16.2,1.9c-0.9,0.8-0.7,1.1-1.2,1.4c-0.1,1-0.4,2-0.5,3.3
		c-1,0.2-6.3-0.3-7.8-0.4c0.6-1.9,1.5-3.7,1.8-5.8l-0.1-0.9c-1.5-0.6-11.8-0.3-14.6-0.2c-1.4,0.1-3.4,0.4-4.6,0.4
		c-1-2.5-3.8-8.1-1.9-11.2c0.6-1,4.1-1.6,5.4-1.7c2.1-0.2,4.8-0.2,6.9-0.2c13-0.5,24.4-0.7,37.4-0.7c3.8,0,8.9-0.3,12.5,0.1
		c0,2.5,0,4.9,0,7.3c0,1.9,0,5.4,1.6,5.8c1.2,0.4,5.7,0.2,7.1,0.2c1.2,0,2.5,0,3.7,0c1,0,2.8,0.2,3.6-0.2c-0.3-0.5-0.2-0.3-1-0.3
		h-3.7c-1.7,0-3.4,0-5.1,0c-5.6,0-5.2,0.6-5.1-5.1c0.2-0.5,0.1-0.2,0.4-0.5c0.5-0.5,1.6-1.6,2.7-2.7L225.9,93.8L225.9,93.8z
		 M161,99.3L161,99.3c0.4-1,0.3-0.5,0.8-1.2l0.1-0.1l1-1l0.1-0.1l0.1-0.1l0.4-0.4c1-1.1-0.1-0.3,1-0.9c0.3-0.2,0.2-0.1,0.4-0.3
		l1.4-1.6l0.1-0.1l0.8,0.2c0.3-0.7,0-0.2,0.5-0.6c-0.3,0.7-0.1,0.4-0.8,1.1c-0.8,0.7-0.3,0.5-0.3,0.9l-1.4,1.3c0,0-0.1-0.1-0.1,0
		l-0.8,0.3c-0.3,0.3-1.8,2-2.2,2.1c-0.4,0.1-0.2-0.1-0.5-0.2c-0.1,0.2,0.1,0.1-0.2,0.3l-0.1,0.1L161,99.3c-0.2,0.2-0.4,0.4-0.7,0.7
		c0.4,1,0.5,0.7,0.9,0.5c-0.6,1-0.3,0.4-0.2,0.7v0.1c0.5-0.5,1.5-1.7,2.1-1.9c-0.7,0.5-0.6,0.4-0.9,1.1c0.7-0.3,0.6-0.1,0.9-0.7
		c-0.3,1-0.5,0.2-1.1,1.6c0.8-0.2,0.8-0.3,1.1-0.8c-0.4,0.4-0.5,0.5-0.9,0.9c-0.7,0.6-0.7,0.6-0.9,1.2c1.1-0.3,0.6-0.1,1.2-0.8
		l2.1-2.1c0.3-0.3,0.2-0.1,0.5-0.4l2.9-3c0.2-0.2,0.2-0.2,0.4-0.5c0.5-0.4,1.3-1.5,2.1-2.2l0,0l0,0l0,0c0.3-0.3,0.6-0.5,0.8-0.5
		l-0.7,0.8c-0.4,0.5-0.2,0.6-1.1,0.8c0.5,0.4,0.1,0.4,1-0.1c-0.2,0.2-0.2,0.2-0.4,0.4l-0.5,0.7c0.8-0.3,0.5-0.1,1-0.6l0.2-0.3
		l0.1-0.1l1.6-1.5c0.3-0.2-0.3-0.2,0.3-0.2c-0.3-0.1,0.2-0.3-0.1,0.1l-4,4l-0.1,0.1l-1.8,1.8c-0.4,0.4-0.3,0.1-0.7,0.6
		c-0.7,0.8-1.8,1.4-2.1,2.4c0.9-0.3,1.3-1,2-1.7c0.5-0.5,1.6-1.4,1.8-2v0.3c0.1,0.6-0.2,0,0.2,0.5c0.4-0.7,0.5-0.5,0.9-1l5.4-5.3
		c-0.2,0.4-0.4,0.4-0.7,0.7l-3.7,3.7c-0.6,0.5-1,1.2-1.7,1.7l-0.6,0.6c-0.7,1-1.5,1.3-2.2,2.4c0.8-0.2,0.6-0.6,1.5-1.1L166,102
		c1-0.2,0.6-0.7,1.6-1.1c-0.3,0.4-0.5,0.5-0.8,1.1c0.4-0.2,1.6-1,1.9-1.5c0.2-0.5,0.1,0.3,0-0.3l-0.2-0.4c0.5-0.2,0.2-0.1,0.5-0.5
		l1.6-1.6l0.1-0.1h0.2c-0.2,0.2-0.2,0.3-0.3,0.7l0.8-0.6l1.4-1.2c0.3-0.4,0.4-0.5,0.5-0.7l1.9-1.8c0.1-0.1,0.2-0.2,0.3-0.4
		c0.2-0.2,0.4-0.2,0.6-0.8c-0.6,0.7-0.1,0.5-1,0.6c0.3-0.4,0.3-0.3,0.4-0.7c-0.6,0.1-0.6,0.3-1.1,0.8l-0.1,0.1
		c-0.3,0.3-0.3,0.2-0.5,0.5c-0.1,0.1-0.1,0.1-0.2,0.3l-2.1,2.1c-0.3,0.4,0,0-0.3,0.5l0.6-0.4c0.4-0.3,0-0.1,0.6-0.4
		c-0.5,1.5-0.8,0.3-1,1.3c-0.3,0.9,0,0.1-0.5,0.6c-0.6,0.5-2.5,2.1-2.4,2.6l-0.2,0.6c-0.2,0.4,0-0.3-0.2,0.4c1-0.3,0.6-0.6,1.6-1.2
		l1.7-1.8c0,0,0.1-0.1,0.2-0.2c0.1-0.2,0.2-0.2,0.3-0.3c0.5-0.5,0.8-0.9,1.3-1.2l-0.7,1c1-0.4,0.5-0.5,1.3-1c-0.3,0.6-0.8,1-1.3,1.5
		l-1.3,1.4c-0.5,0.5-1.4,1.1-1.6,1.8l1.1-0.9c-0.2,0.5-0.3,0.5-0.5,0.9c1-0.1,0.6-0.8,1.9-1.6l2.2-2.2c0.2-0.2,0.1-0.1,0.3-0.4
		c0.7-0.9,0.5-0.2,0.9-0.2c0.7,0,1.4-1.4,2-1.8c0.1-0.1,0.3-0.2,0.4-0.3l0.8-0.9l0.1-0.1c0.2-0.2,0.1-0.1,0.3-0.4l1.2-1.1
		c-0.7,1.1-2.2,2.2-3.2,3.2c-0.3,0.4-0.8,0.9-1.2,1.2c-0.6,0.5-4.2,3.9-4.4,4.6c0.9-0.1,0.8-0.4,1.5-1.2l1.3-1.3c0,0,0-0.1,0.1-0.1
		l3.6-3.6c0.2-0.2,0.1-0.1,0.3-0.3l-2.1,2.3c-0.5,0.6-0.1,0.2-0.6,0.6l-2.8,2.8c-0.4,0.4-0.2,0.1-0.4,0.8c0.5-0.2,0.7-0.5,1.1-0.8
		l-0.4,0.8c0.5-0.1,0.9-0.6,1.3-1l2.9-2.9c0,0,0-0.1,0.1-0.1l1.5-1.4l0.1-0.1l0.1-0.1l3-3.1c0.3-0.3-0.3-0.2,0.5-0.4
		c-0.1,0.3-0.2,0.3-0.3,0.4l-3.4,3.4c-1.3,1.5-4.1,3.7-5,5.2c0.8-0.3,0.7-0.6,1.5-1.1c-0.3,0.4-0.6,0.6-0.8,1.1
		c0.6-0.2,0.9-0.1,1.2-0.3c0.2-0.1,0.3-0.2,0.3-0.3c-0.1,0.1-0.2,0.3-0.2,0.6c0.9-0.1,0.3,0.1,0.8-0.4c0.2-0.2,0.2-0.2,0.4-0.5
		c-0.2,0.3-0.2,0.3-0.5,0.6h0.1l0.4,0.1c1.3,0,0.6-0.3,1.4-0.7c-0.4,0.4-0.3,0.1-0.4,0.7c0.7-0.4,1.6-1.3,2.1-1.9
		c0.4-0.4,0.3-0.5,0.8-0.7c-0.4,0.8-0.3,0.5-0.8,0.9l-0.2,0.2l-0.2,0.3l-0.5,0.7c0.6-0.2,0.8-0.6,1.3-1l6.7-6.6
		c0.5-0.5-0.2-0.3,0.7-0.5l-0.4,0.5l-0.1,0.1l-0.1,0.1c1-0.3,0.6-0.3,1.2-0.8l-0.2,0.3l-6.5,6.5c-0.2,0.2-0.1,0.1-0.2,0.3
		c-0.6,0.5-1.5,1-1.6,1.8c0.6-0.1,0.2,0.1,0.7-0.4c0.2-0.2,0-0.1,0.2-0.3l0.1-0.1l0.3-0.2c0.6-0.5,1.1-1.2,1.7-1.7
		c0.2-0.2,0.3-0.2,0.7-0.5l4.6-4.6c0.4-0.4,0.7-0.8,1.1-1.1c-0.2,0.9-0.2,0.3-0.7,0.7c-0.7,0.6-1.1,0.9-1.4,1.7l1.1-0.8
		c-0.8,1.1-2.5,2.6-2.9,3.1c-0.4,0.6-1.1,1.1-1.6,1.6l-1.3,1.4c-0.7,0.8-0.5-0.2-0.8,1l0.1-0.1l0.1-0.1c0.1-0.1,0.3-0.2,0.3-0.2
		l0.4-0.4c0.5-0.6,0-0.3,0.9-0.8c-0.3,0.6-1.2,1.3-1.7,1.8c0.4,0,0.4-0.1,0.6-0.3l1.1-1.1c0,0.1,0,0.3-0.1,0.5l1.3-0.9
		c-0.1,0-0.4-0.2-0.3,0.3l0.2,0.3c0,0.1,0.1,0.1,0.1,0.2c0.2-0.2,0.2-0.3,0.3-0.6c0,0-0.3,0.3-0.6,0.5c-0.5,0.4-0.5,0.3-0.8,1.2
		c1.4-0.3,0.4-0.4,1.7-1.1l0.6-0.5c0,0,0-0.1,0.1-0.1l0.2-0.3l0.8-0.9c0.5-0.5,0.6-0.6,0.3-1l0,0l0.7-0.6c-0.3,0.7-0.1,0.1,0.2,0.4
		c0.3-0.7,1.7-1.9,2.3-2.5l2.3-2.3l0,0l0.2,0.5l0.7-0.6c-0.4,0.7-1,1.4-1.7,1.7c0.3-0.3,0.5-0.4,0.7-1l-1.4,1
		c-0.4,0.5-0.2,0-0.4,0.7c0.6-0.2,0.3-0.1,0.6-0.3l0.4-0.4c-0.4,0.7-0.3,0.5-0.8,1c-0.5,0.5-0.3,0.5-1,0.8c0.3-0.3,0.5-0.4,0.7-1
		c-0.6,0.3-0.8,0.5-1.1,0.8l-0.1,0.1c-0.5,0.4-0.5,0.4-0.7,1c0.6-0.2,0.7-0.4,1-0.7c-0.3,0.6-0.3,0.5-0.8,1c-0.5,0.5-0.4,0.5-1,0.8
		l0.1-0.1l0.6-0.9c-0.8,0.3-0.1,0-0.6,0.4c-0.6,0.5-1,0.8-1.2,1.4c0.6-0.3,0.6-0.3,1-0.7c-0.6,1.2-2.7,2.3-3,3.4
		c0.7-0.3,0.6-0.5,1.2-0.9l-0.5,0.8c0.9,0,0-0.4,1.2-0.8l-0.6,0.8c0.9-0.1,0.3-0.1,1-0.7c0.8-0.6,0.4,0.1,0.8-1l-0.6,0.4
		c-0.4,0.3,0,0.1-0.5,0.4c0.4-0.9,0.3-0.3,0.9-1c0.2-0.2,0.1-0.2,0.4-0.6c0.2-0.2,0.3-0.2,0.5-0.5l3.5-3.6c0.2-0.2,0.2-0.2,0.5-0.5
		l1.5-1.5c0.3-0.2-0.1-0.2,0.6-0.3l-0.6,0.7c1.4-0.4,0.5-0.6,1.2-0.7c-0.4,0.3-1.1,0.9-1.3,1.4l-0.2-0.8c-0.4,0.8-1.1,1.1-1.7,1.8
		l-1.2,1.3l-0.3,0.3l-0.2,0.3l-0.1,0.1c1.7-0.6,0.1-0.5,1.6-1.2c-0.9,0.9-1.8,1.8-2.7,2.7c-0.5,0.5-0.9,0.8-1.4,1.3
		c-0.5,0.5-1.1,0.9-1.4,1.5c0.6-0.1,0.6-0.2,1-0.6l1.2-1.2c0.1-0.1,0.1-0.1,0.4-0.3l6.4-6.3c-0.6,0.5-0.5,0.3-0.8,1.1
		c0.6-0.3,0.9-0.7,1.4-1.2c0.6-0.5,0.4-0.2,0.5-0.2h0.3c0.2,0,0.1-0.1,0.3,0c-0.3,0.4-0.6,0.7-1,1.1l-7.5,7.6c0.4,0,0.4-0.1,0.7-0.4
		c0.4-0.4,0-0.2,0.8-0.6c-0.3,0.5-0.5,0.5-0.8,1.1c0.6-0.3,0.9-0.7,1.3-1l0.5-0.4c-0.4,0.7-0.2,0.3-0.6,0.7
		c-0.5,0.4-0.3,0.2-0.5,0.8c0.3-0.1,0.3-0.1,0.6-0.3l0.5-0.5c-0.2,0.3-0.4,0.5-0.2,0.8l0.1-0.1l0.1-0.1l0.9-0.8
		c-0.4,0.6-0.4,0.3-0.7,1c0.6-0.2,0.7-0.2,1-0.7c0.2-0.3,0.2-0.3,0-0.6c0,0,0,0,0-0.1l0.8-0.7c0.4-0.4,0.5-0.5,0.8-0.8
		c-0.3,0.3-0.2,0.2-0.5,0.5c-0.4,0.5-0.2,0.1-0.4,0.6c1.2-0.4,0.4-0.1,1.1-0.8l1.6-1.6c0.1-0.1,0.1-0.1,0.2-0.3
		c0.1-0.1,0.3-0.2,0.4-0.4c0.2-0.2,0,0,0.3-0.3c0,0,0.2-0.2,0.2-0.3l3.7-3.7l0.1,0.5c0.3-0.3,0.3-0.3,0.6-0.5
		c-0.1,0.5-1.1,1.4-1.7,1.6c0.4-0.4,0.6-0.5,0.9-1.1c-0.8,0.2-0.8,0.4-1.3,0.9c-0.2,0.2-0.1,0.1-0.4,0.3c-0.7,0.7-1.1,0.8-1.3,1.7
		c0.6-0.3,0.7-0.5,1.1-0.9c-0.4,0.7-0.8,1.1-1.4,1.6c-1,0.8-0.3,0.1-0.6,0.1l-0.3,0.1c0,0-0.2,0.2-0.3,0.3l-0.8,0.7
		c-0.5,0.6-0.2,0-0.4,0.8c0.6-0.2,0.6-0.4,1-0.7c-0.3,0.7-0.6,0.8-1.1,1.3c-0.3,0.3,0,0.1-0.4,0.4l-0.8,0.7c-0.3,0.3-0.6,0.6-0.7,1
		c0.5-0.1,0.7-0.6,1.2-0.9c-0.1,0.2-0.1,0.3-0.2,0.5c-0.2,0.3-0.1,0.2-0.3,0.5c0.9-0.2,0.3-0.1,0.9-0.7l2.3-2.2
		c0.3-0.3,0-0.1,0.3-0.4c0.2-0.2,0,0,0.3-0.2l0.5-0.4l0.1-0.1l0.1-0.1l0.8-0.7c0,0,0-0.1,0.1-0.1c0.5-0.6,0.2-0.2,0.6-0.6l3.1-3.1
		c0.2-0.1,0-0.1,0.3-0.2c-0.2,0.3-8.2,8.3-8.6,8.5c0,0,0.1,0,0.1,0.1c0.2,0.6,0,0,0.3,0.1h0.5c0.6-0.1,0.3,0,0.7-0.5
		c0.2-0.3,0-0.1,0.2-0.3l1.8-1.8l0.1-0.1l3.7-3.7c0.3-0.3,0.4-0.3,0.7-0.6c0.2-0.2,0.4-0.4,0.6-0.6l0.5-0.6c0.4-0.5,0.8-0.5,1.3-0.5
		h0.2h0.1c-0.9,0.3-0.6,0.3-1.2,1l-0.1,0.1l-3.9,3.9l-0.1,0.1l-0.1,0.1l-0.9,1c-0.2,0.2,0.1,0-0.3,0.4c-0.4,0.4-0.2,0.1-0.6,0.4
		c-0.3,0.2,0,0-0.2,0.3l-0.8,0.9c-0.2,0.2-0.3,0.4-0.4,0.6c0.3,0,0.9-0.7,1.1-0.9c0.5-0.4,0.5-0.7,1.2-1c-0.3,0.5-0.4,0.5-0.8,0.9
		c-0.3,0.3-0.6,0.7-0.9,1.1c0.6-0.3,0.6-0.4,1-0.8l0.9-0.9c-0.1,0.1-0.1,0.2-0.2,0.4h0.1l1,0.1c0.3-0.4,0.3-0.4,0.7-0.7
		c-0.9,0.7-1.2,0.9-1.5,1.8c1-0.2,0.2,0.2,1.5-1l0.2-0.2l0.2-0.2c-0.1,0.1-0.1,0.2-0.1,0.3v0.1l0.1,0.2v0.1
		c-0.1,0.4-0.1-0.3-0.4,0.7c0.6-0.3,0.6-0.3,0.9-0.8v0.1v0.1v0.1v0.1v0.4c0.8-0.8,1.5-1.4,2.2-2.2l2.8-2.8c0.5-0.6,2.5-2.6,3.5-3.5
		h0.1l0,0c0.2-0.2,0.4-0.3,0.5-0.3l-0.6,0.6c-0.3,0.4-0.1,0.3-0.6,0.7l-1.9,1.8c0,0-0.1,0-0.1,0.1l-0.1,0.1L207,96l-0.4,0.5
		c-0.5,0.5-0.7,1-1.4,1.2c1,0.6-0.4,0,0.6,0.2h0.1h0.1l-0.9,1c1.1-0.3,0.7-0.5,1.4-1l3.4-3.5l0.1-0.1l0.1-0.1l0.7-0.8
		c0.3-0.4,0.5-0.3,0.9-0.7c-0.2,0.5-0.7,0.7-1,1.1l-3.8,3.8c-0.2,0.2,0,0-0.3,0.2c-0.2,0.2-0.1,0-0.4,0.3l-2.2,2.2
		c-0.5,0.5-0.8,0.2-0.9,1.2c0.9-0.2,1.5-1.3,2.2-1.9c1.3-1.1,6.2-6.4,6.7-6.6c0.3-0.1,0.2,0,0.3,0h0.2c0.7,0-0.6,0,0.2,0
		c0.3,0,0.2-0.1,0.3,0c-0.8,0.6-0.2,0.1-0.7,0.8c-0.4,0.5-1.1,1-1.6,1.5c-0.5,0.5-0.1,0.6-0.9,0.8c0.4-0.7,0.8-0.8,1.3-1.4l0.4-0.6
		c-0.9,0.3-0.5,0.1-0.9,0.5c0,0,0,0.1-0.1,0.1l-0.5,0.5c-0.4,0.3-0.8,0.9-1.3,1.1l-0.1,0.7c0.4-0.3,0.5-0.4,1-0.8
		c-0.2,0.5-0.9,1-1.3,1.4c-0.3,0.3-0.4,0.5-0.6,0.7c-0.4,0.5-0.4,0.3-0.7,0.6c-0.3,0.3-0.2,0.3-0.6,0.7l-2,2c0.9,0,0.9-0.7,1.6-1.1
		c-0.4,0.6-0.7,0.6-0.9,1.2c0.8-0.2,0.9-0.8,1.6-1.2c-0.3,0.4-0.7,0.5-0.9,1.1c0.4-0.1,0.6-0.2,0.8-0.6c0.2,0.2,0-0.1,0,0.3v0.2v0.1
		c0.5-0.3,0.7-0.4,1-0.9l0.5,0.1c0.3-0.1,0.1-0.2,0.6-0.4c-0.6,0.4-0.6,0.4-0.8,1.1c1.3-0.5,0.4-0.5,1.3-1.1c-0.5,0.5-0.4,0.3-0.5,1
		c0.7-0.4,0.6-0.6,1.2-1c-0.3,0.5-0.4,0.6-0.6,1c0.7-0.1,0.6-0.4,1.2-0.9l6.4-6.3c0.6-0.5,0.9-1.2,1.7-1.5c-0.3,0.3,0.1-0.1-0.3,0.2
		c-0.4,0.4-0.5,0.7-1.1,1c0.3,0.3,0.2,0.1,0.7,0.2c-0.5,0.3-0.5,0.4-0.9,0.8c-0.5,0.4-0.5,0.3-0.8,0.9v-0.1l-0.1-0.4l-0.1-0.1
		c0,0,0-0.1-0.1-0.1c-0.2,0.5-1.1,1.4-1.6,1.6l0.8,0.2c-0.5,0.2-0.6,0.4-0.9,0.8l-0.2-0.8c-0.4,0.9-2.7,2.5-3.5,3.8
		c1.7-0.5,0.2-0.5,1.6-1.2c-0.4,0.4-1.6,1.5-1.8,2c0.8,0,0.7-0.3,1.1-0.8l0.1-0.1l0.4-0.3l0.1-0.1l0.5-0.5c0.2-0.2,0.1,0,0.4-0.3
		l3.2-3.3l0.1-0.1l0.1-0.1l2.8-2.8c0.3-0.3,0,0,0.4-0.3c0.6-0.5,0.7,0,0.3-1c-1.4-0.3-23.6-0.2-25.6-0.3c-2.7,0-25.5,0.2-25.9,0.1
		c-1.6,0.6-8.1,0-9.7,2.1l-0.1,0.4c0.1,0.6-0.2,0.1,0.2,0.6l0.5-0.7c0,0,0,0,0,0.1v0.1v0.6c0.4-0.3,1.5-1.5,1.7-1.6l-0.7,0.8
		c-0.5,0.5-1.2,1.1-1.5,1.7c0.5-0.2,2.3-2.4,3-2.7L161,94c1.1-0.3,1.1-1.1,1.7-1.1l-2.6,2.6c-0.2,0.3,0-0.1-0.3,0.4
		c0.7-0.2,0.5-0.1,1-0.5c-0.4,0.7-1.4,1-1.7,2c0.5-0.2,0.5-0.2,0.8-0.6c-0.5,1.3-0.2,0.4,0,0.8c0.2-0.4,4.6-4.8,5.1-5l-2.5,2.5
		l-0.1,0.1l-0.7,0.7l-0.1,0.1l-1.1,1.1c-0.9,1.2-1-0.1-1,1.8C160.5,99.5,160.7,99.4,161,99.3L161,99.3z M151.2,91.1l-0.2,1.2
		l0.7-0.9c0.5,0.3,0.2,0.2,0.6,0.5c-0.6,0.6-0.4,0.6-1.3,1.2c-1-0.6-1.4-1-2.5-1.5l1.3,1.1c-0.2,0.2-0.6,0.8-0.8,1.1
		c-0.5-0.4-0.7-0.7-1.2-1c0.2,0.7,0.7,1,1.1,1.4c-0.2,0.9-0.6,1.4-0.4,2.5c0.6-1,0.3-2,1.1-2.2c-0.4-0.8-0.2-0.7,0.4-1.5l0.8,0.6
		c-0.5,0.7-0.8,1-0.8,2.1l1.2-1.9l0.9,0.5c-0.2,1-0.5,1.1-0.5,2.4c0.1-0.2,0.1-0.1,0.2-0.3c0-0.1,0.3-1.3,0.6-1.8
		c0.3,0,0.4,0.2,1.1,0.2c-0.2-0.2-0.1-0.1-0.4-0.3c-0.3-0.2-0.1,0-0.3-0.2c-0.3-0.3-0.2-0.1-0.1-0.5c-0.7,0.2-0.9,0.1-1.4-0.3
		c0.4-0.7,0.5-0.2,1-1.2c0.6,0.3,0.4,0.3,0.7,0.7c-0.2-0.9-0.4-0.6,0-1.4c-0.4,0.5,0,0.1-0.4,0.2c-0.3-0.4-0.3-0.3-0.6-0.5
		c-0.5-0.4-0.3,0-0.4-0.7c-0.6,0.3-0.6,0.1-1.4,0.1L151.2,91.1L151.2,91.1z M206.4,95.6l-1.7,1.7V97l1.5-1.4
		C206.3,95.6,206.3,95.6,206.4,95.6L206.4,95.6z M203.8,98.3C203.8,98.3,203.8,98.4,203.8,98.3c0.1,0.5,0.5-0.2-0.1,0.9
		c0,0.1-0.1,0.1-0.1,0.2c0.5-0.1,0.7-0.2,0.8-0.3l-0.2,0.2c-0.6,0.6-0.4,0.7-1.3,1.1c0.3-0.3,0.5-0.5,0.8-0.8H203
		c-0.2,0,0.3-0.5-0.3-0.1L203.8,98.3z M204.5,99c0.1-0.1,0.1-0.2,0.3-0.3L204.5,99z M175.9,43.1c-0.3,0.6-0.2,0.4-0.7,0.7l-1.3,1.4
		c-0.4,0.5-0.4,0.3-0.8,0.6c-0.3,0.2-0.6,0.9-1.7,1.7l-0.8,0.9l-0.1,0.1l-0.2,0.3c1.7-0.5,0.4-0.4,1.4-1.1c1.3-0.9,0.1-0.4,1.3-1.1
		c-0.3,0.3-0.7,0.7-1.1,1.1c-0.4,0.4-0.9,0.8-1.1,1.3c0.6-0.2,1-0.6,1.5-1l1.1-1.1c0.3-0.3,0.2,0,0.6-0.4l1-1.1
		c-0.5,0.6-0.5,0-1,1.3c0.2-0.1,0.4-0.2,0.6-0.2l-0.1,0.1l-0.6,0.6c-0.9,0.8-0.4-0.3-0.7,0.9c1.4-0.5,1.9-0.7,2.8-1.7
		c0.5-0.5,0.1-0.4,0.8-0.8c-0.4,0.5-0.5,0.4-0.8,1.1c1-0.5,0.7-0.7,1.5-1.2c-0.5,0.4-1.2,1.2-1.6,1.8c0.6-0.3,0.6-0.4,0.8-0.5
		c0.8-0.3-0.2,0.1,0.6,0.2c0.4-0.7,0.1,0.2,1-1.1l-0.7-1.9l-1.2,1.2c-0.1,0.1-0.3,0.2-0.3,0.2l-0.7,0.7c-0.3,0.2-0.1,0.1-0.4,0.3
		c0.5-0.6,0.5-0.3,0.9-1.1c-0.2,0.1-0.4,0.1-0.5,0.2c0.2-0.2,0.4-0.4,0.6-0.6c2.4-2.3,1.4-1.7,1.2-1.9c-0.3,0.2,0-0.1-0.3,0.3
		l0.2-0.3c0.2-0.3,0,0.1,0.2-0.3c-0.4-0.2-0.2-0.1-0.5,0.1c0.5-0.8,0.3-0.6,0.1-0.9C176.5,42.8,176.6,42.7,175.9,43.1l1-1.3
		c0.4-0.5,0.3-0.4,0.9-0.5c0.4,1,0.7,2.3,1,3.3c0.3,1,1,2.1,1,3.3c-7.9,0.3-11.4,2.5-15.5,8.5c-2.4,3.5-3.9,10.6-4,14.7
		c-0.7,0.5-1.4,0.4-1.7,1.4c-0.4,1.1,0,18.2-0.2,18.9c-0.2,0.9-0.6,1.3-0.6,2.6c-0.2,3.6,1.1,5.3,1.6,7.1c0.3,0.9,0.6,1.3,0.8,2.1
		c-0.8,0.5-5.2,1.5-6.4,1.9c-1.2,0.4-5.7,1.9-6.5,1.7c-0.3-0.6-0.3-1.1-0.4-1.8c-0.4-3.3-0.5-7-0.8-10.4c-0.4-3.8,0.1-6.8,0.3-10.5
		c0.1-1.8,0.2-3.5,0.5-5.2c0.4-2.4,0.3-2.9,1.5-4.1c3-3,6.3-3.1,7.4-3.5c-1.1-0.6-5.5,0.2-6.9,0.2c0.5-1.8,1.6-2.7,2.7-4
		c3.8-4.4,3-2.8,6.2-3.8l0.7-0.4l-3.4-0.2c0.3-1,3.3-5.9,4-6.8c0.8-1.2,1.4-2.1,2.2-3.2c0.3-0.4,0.4-0.4,0.6-0.7
		c1.2-1.5,1.8-2.1,3.2-3.6c3-3,7-6.4,11.2-7.4c-0.6,0.6-3,0.8-7.3,5.1c-2.1,2.1-5.7,6.9-6.8,9.6c-2.3,5.5-2.8,7.5-3.4,13.8
		c0.5-0.2,0.5-0.1,0.7-0.7c-0.4-0.1,0,0.2-0.5,0.1l0.7-0.8c-0.1-0.4,0-0.1-0.1-0.2l-0.2-0.1c0.3-0.4,0.2-0.3,0.5-0.7
		c-0.7-0.2,0.1,0.4-0.5,0c0.2-0.4,0.4-0.6,0.7-0.9c-0.6-0.2-0.1,0.2-0.6-0.1l0.6-0.7l-0.6,0.1c0.3-0.3,0.5-0.4,0.7-0.9
		c-0.1-0.1,0,0-0.2-0.1v0.1c1.4-0.8-0.4-0.6,0.9-1.5l-0.1-0.1l-0.1-0.1l-0.2-0.1c0.3-0.3,0.4-0.5,0.7-0.8l-0.5-0.2
		c1.7-1.7-0.6,0,1.1-1.8c0-0.4-0.2-0.2-0.2-0.4l0.6-0.6h-0.1h-0.1l-0.3-0.1c0.3-0.4,0.6-0.6,1-1.2h-0.1c-1.1-0.1,0.2,0.4-0.4,0
		c0.2-0.6,0.6-0.5,1-1.2c-0.2-0.1-0.5,0.2-0.7,0.3l0.8-1.1c0.3-0.4,0.6-0.5,0.8-1.1c-0.4,0.4-0.3,0.4-0.8,0.7c0.3-1.1,2.2-2,2.7-3.2
		c-0.3,0.3-0.3,0.4-0.9,0.6c0.4-0.7,1.1-1.4,1.8-1.7c-0.2,0.7-0.1,0.5-0.6,0.8l8.4-8.1C175,43.9,175.4,43.4,175.9,43.1z M219.2,48.8
		l-3,3c-0.5,0.7-1.4,1.2-1.8,1.8c-0.2,0.4-0.2,0.2-0.5,0.5c-1.4,1.3-1.1,0.7-1.8,2.1c1.3-0.6,0-0.2,1.5-1.1
		c-0.5,0.6-0.6,0.5-0.9,1.2c0.6-0.1,0.4,0,0.7-0.5l0.1,0.3c0.1,0.1-0.1,0,0.1,0.2c0.3-0.2,0.5-0.4,0.8-0.7c0,0.1-0.1,0.3-0.2,0.6
		c0.7-0.2,0.8-0.2,1-0.7c0,0.1,0,0-0.2,0.3l-0.2,0.3c-0.3,0.4,0-0.1-0.4,0.6c1.4-0.2,0.8-0.5,1.7-1.2c-0.7,0.5-0.7,0.5-0.6,1
		c0.1,0.5,0.3-0.4,0.1,0.4c0.8,0,0.5-0.1,0.6-0.1c1-0.1-0.8-0.2,0.2,0l0.3,0.1c0.4-0.4,0.3-0.1,0.7-0.6c0.3-0.4,0.1-0.3,0.6-0.6
		c0.3-0.3,0.3-0.5,0.6-0.7c0.3-0.2,0,0,0.3-0.2c0.3-0.2,0.1,0,0.3-0.2c0.7-0.9-0.4,0,0.4-0.6l1.7-1.7l0.1-0.1l0.1-0.2
		c0.1-0.1,0.2-0.2,0.2-0.3c0,0,0.1,0,0.1-0.1l1-1c0.8-0.7,0-0.3,0.7-0.8l1.3-1.1c0.7-0.6-0.3-0.1,0.9-1c0.9-0.6-0.1-0.7,1.2-0.9
		c-0.9-0.9-0.3-0.4-1.9,0.8c1-1.3,1-0.3,1-1.2c-0.5,0.3-0.3,0-0.9,0.5l-0.9,0.7c0,0,0.1,0,0.1-0.1c0.5-0.4,0.5-0.4,0.6-1
		c-0.7,0.3-0.9,0.6-1.4,1.1c0.5-0.3,0.4-0.3,0.7-1.1c-0.8,0.2-0.5,0-1.2,0.9c0.7-0.6,0.9-0.6,0.9-1.1c-0.6,0-0.3-0.2-1,0.6l-2.5,2.4
		c0.3-0.6-0.1-0.5,0.8-0.6c-0.3-0.4,0.4-0.7-0.5-0.2c-0.5,0.1-0.4,0.2-0.9,0.7c-0.1,0.1-0.1,0.1-0.2,0.2c0.4-0.4,0.3-0.2,0.7-0.9
		c-0.8,0.3-0.6,0.4-1.1,0.8c0.5-0.9,0.3-0.3,0.9-0.9l0.8-0.9l0.5-0.6c0.2-0.2,0.2,0,0.4-0.5c-0.9,0.3-0.6,0.4-1.3,1.1
		C220,48.1,220.2,48.2,219.2,48.8L219.2,48.8z M215.4,54.7c0.1-0.1,0.2-0.3,0.3-0.6c-0.8,0.3-0.6,0.2-1,0.7c0.3-0.5-0.1,0,0.1-0.2
		l1.6-1.5c-0.4,0.4-0.4,0.2-0.7,1c0.2-0.1,0.3-0.1,0.5-0.2l-0.5,0.6C215.5,54.5,215.5,54.6,215.4,54.7L215.4,54.7z M217.2,52.7
		c0.1-0.2,0.2-0.3,0.2-0.3v-0.1l-0.3-0.3c0.9-0.4,0.1-0.3,1.1-0.8c-0.6,0.5-0.4,0.1-0.7,1c0.3-0.1,0.4-0.2,0.5-0.2L217.2,52.7z
		 M219,50.9c0.1-0.1,0.1-0.1,0.2-0.4c0.8-0.3,0.5-0.4,1.1-0.8c-0.3,0.3-0.4,0.4-0.7,0.7C219.4,50.5,219.2,50.7,219,50.9z
		 M219.2,50.4c-0.6,0.2-0.6,0.3-0.9,0.7c0.3-0.5,0.1-0.3,0.5-0.6l0.7-0.7C219.3,49.9,219.3,50.1,219.2,50.4L219.2,50.4z
		 M237.3,105.4c-0.6-0.6-5.5-0.2-6.2-0.2c-2.1,0-4.3,0-6.3,0.1c-4.3,0-8.6-0.1-12.9,0.1c2.6,1,18.8,0.4,23.9,0.3c0.2,0,0.7,0,0.9,0
		C236.6,105.6,237.3,105.4,237.3,105.4z M215.1,46.8l-0.6-0.1c-0.5,0-1.2-0.2-1.6,0.3l-0.8,0.8c-0.3,0.4,0.2-0.1-0.3,0.4
		c-0.5,0.7-0.3,0.1-0.8,0.7c0,0,0,0.1-0.1,0.1c-0.8,1-0.3,0-0.9,1c-0.6,0.8-0.3,0.3-0.7,0.6l-0.9,0.9c-0.6,0.5,0.3-0.5-0.2,0.3
		c-0.5,0.7-0.2,0.3-0.6,0.6l-1,0.9c-0.2,0.2,0,0-0.2,0.3c-0.3,0.5,0.2,0-0.2,0.4c-0.3,0.3-0.1,0-0.3,0.2c-0.5,0.3-0.5-0.4-0.4,0.7
		l1-0.7c-0.3,0.4-0.4,0.6-0.9,0.8c0.1,0.1-0.2,0.6,0.8,0c-0.7,0.5-0.5,0.5-0.5,0.7c0.1,0,0.4-0.2,0.6-0.3c-0.1,0.1-0.2,0.3-0.3,0.5
		v0.1l0.1,0.3v0.1l0.2,0.7c0.8-0.3,1.7-1.1,1.8-1.5c0.2-0.5,0,0.6,0-0.3c0-0.3-0.6,0,0-0.2c0.2-0.5,1.2-1.4,1.6-1.8
		c-0.8,0.6-0.4,0.1-0.7,1c1.1-0.3,0.7-0.3,1.4-1c-0.2,0.3-0.1,0.1-0.3,0.4l-0.3,0.3c-0.5,0.6-0.5,0.5-0.9,1.2
		c0.9-0.3,0.6-0.2,1.1-0.8l-1.4,1.5c-0.6,0.6-0.2-0.1-0.5,0.8l0.8-0.4c0.4-0.4,0.3-0.5,0.6-0.8l8.3-8.2c0.6-0.6,0.4,0.2,0.4-0.6
		c-1.1,0.3-1.3,1.1-2.7,2.2c0.3-0.4,0.4-0.4,0.8-0.8c-0.4-0.2,0.1,0-0.3,0c-0.9,0-0.6-0.1-0.8-0.2l-0.7,0.8c0.5-0.5,1.2-1.5,1.9-1.7
		c0,0-0.1-0.1-0.2-0.1C215.7,46.3,215.5,46.5,215.1,46.8z M206.7,55.1c0.2-0.2,0.1-0.1,0.2-0.3l0.4-0.4c0,0.1-0.1,0.3-0.2,0.7
		c0.8-0.2,0.2,0.1,0.8-0.4c0.1-0.1,0.3-0.4,0.4-0.5l-1.8,1.8c0.8-0.7,0.5-0.3,0.4-0.9C206.9,55,206.9,55,206.7,55.1
		C206.8,55,206.8,55,206.7,55.1L206.7,55.1z M207.5,54.2l0.3-0.3c0.2-0.2,0.1-0.1,0.2-0.3l0.2-0.1l0.1-0.1c-0.1,0.1-0.1,0.2-0.4,0.5
		C207.7,54.2,207.5,54.2,207.5,54.2L207.5,54.2z M208.6,53.2c0.2-0.2,0.4-0.4,0.5-0.5c0,0.1-0.1,0.3-0.2,0.5c0.8-0.2,0.4,0,1.2-0.9
		c-0.6,0.6-1.2,1.2-1.8,1.8c0.6-0.5,0.5-0.4,0.7-1.1C208.9,53.1,208.7,53.2,208.6,53.2z M209.5,52.3c0.1-0.1,0.2-0.2,0.4-0.4
		l-0.2,0.2C209.6,52.2,209.5,52.3,209.5,52.3z M210.2,51.6c0-0.2-0.1-0.4-0.1-0.4v-0.1c0,0,0,0,0-0.1c0,0,0,0,0-0.1l0.4-0.3
		c1.2-1.2,0.2-0.6,1.5-1.3l-0.1,0.1l-0.1,0.1l-0.2,0.2c-0.4,0.4-0.3,0.3-0.5,0.9l0.5-0.2c0,0,0.3-0.2,0.3-0.3
		c0.2-0.2,0.3-0.3,0.5-0.4L210.2,51.6L210.2,51.6z M213.7,48.2c0.5-0.6,1-1.1,1.4-1.4L213.7,48.2z M199.8,100.1
		c-0.2,0.4-0.3,0.3-0.4,0.3L199.8,100.1z M181.9,95.6L181.9,95.6c0.1-0.2,0.2-0.2,0.3-0.3C182,95.6,182,95.6,181.9,95.6L181.9,95.6z
		 M180.1,97.3l-1.6,1.6l-0.1-0.1c-1-0.3,0.1,0-0.3-0.1H178l-0.5-0.1c-0.3,0.4-0.3,0.4-0.7,0.7c0.5-0.9,1.5-1.7,2.2-2.4
		c0.2-0.2,0.2-0.2,0.5-0.5c0.7-0.7,0-0.4,1-0.9l-0.3,0.4c-0.2,0.2-0.2,0.2-0.4,0.3c0.1,0.5-0.3-0.1,0.1,0.3l0.1,0.1l0.2,0.1
		c-0.7,0.3-0.2-0.2-0.6,0.7C179.8,97.4,179.9,97.3,180.1,97.3L180.1,97.3z M176.4,101L176.4,101c-0.3,0.3-0.4,0.4-0.5,0.5l0.1-0.1
		l-0.2-0.5c0.2-0.1,0.4-0.4,0.6-0.6L176.4,101L176.4,101z M224.7,56.4l0.1,0.3c0.1,0,0.1-0.1,0.2-0.1l0.7-0.5
		c-0.2-0.2-0.2,0.2-0.3,0.6c0.8-0.2,0.5-0.4,0.9-0.3c0.9,0.2-0.5,0,0.3,0.1c0.3-0.1,3-2.7,3.1-3.1c0.7-0.4,0.5-0.4,1-0.8l0.8-0.8
		v0.5l0.1-0.1l0.1-0.1l1.5-1.5c-0.4,0.9-0.4,0.2-1,1l-0.6,0.7c-0.3,0.2-0.1,0.1-0.3,0.3c-0.4,0.5-0.4,0.3-0.7,0.6
		c-0.2,0.2-0.3,0.4-0.6,0.7c-1.2,1.2-1,0.7-2,2.2l-0.1,0.1c0.8-0.2,0.9,0,1.4-0.3c0.6-0.4,2-2.2,2.9-2.8c-0.6,0.3-0.4,0.2-0.7,1
		c1.1-0.5,1.6-1.1,2.2-1.8c-0.2,0.2-0.6,0.6-0.8,0.8c-0.3,0.2-0.8,0.7-0.8,1v0.2c0,0.3,0,0.4-0.4,0.5h-0.1c-0.4,0-0.2-0.2-0.7,0.2
		l-0.9,1.2c0.8-0.2,0.9-0.5,1.4-1c-0.5,0.4-0.4,0.2-0.6,0.9c1-0.1,0.2,0.1,1.5-1.1l1-0.9c0.3-0.3,0.4-0.5,0.8-0.8l-0.7,0.8
		c0,0.2,0.5,0.2-0.2,0.9c-0.7,0.6-0.7,0.4-0.9,1.2c0.7-0.3,0.8-0.5,1.2-0.9c-0.4,0.5,0,0.2-0.5,0.6c0.3,0.6-0.1,0.1,0.6,0.4
		c0.1-0.7-0.1-0.4,0.3-0.9l2.7-2.6c1-0.8,0.3,0.4,1-1.3c-0.9,0.4,0,0-0.7,0.6c-0.3,0.2-0.3,0.2-0.6,0.4c0.6-0.8,0.9-0.7,1.3-1.7
		c-0.8,0.4,0-0.1-0.4,0.3l-0.1,0.1l-0.1,0.1c-0.2,0.2-0.2,0.3-0.4,0.4c-0.3,0-0.1,0-0.3-0.1l-0.3-0.1c-0.1,0.4-0.1,0.3-0.6,0.6
		c0,0-0.1,0-0.1,0.1l-0.9,1.1v-0.1l2.9-3c0.2-0.4,0.1-0.5-0.1-0.9l-0.1-0.1c0-0.1,0-0.1-0.1-0.1c-0.2,0.5-0.2,0.4-0.6,0.8l-0.1,0.1
		c-0.4,0.4-0.4,0.4-0.8,0.7c0.4-0.5,1.9-1.6,1.9-2.4c-0.6,0.2-0.1,0-0.6,0.5c0.4-0.8,0.6-0.4,0.6-1c0-0.4,0,0.4,0-0.1
		c0-0.7,0.4-0.1,0-0.7c-0.6,0.9-0.6,0.4-1.2,1.1l-0.2,0.3c-0.5,0.5,0,0.1-0.6,0.4c0.7-0.8,0.5-0.2,0.9-1.2c-0.1,0-0.2,0.1-0.3,0.1
		l0.6-0.6c-0.7-0.7,0.1,0-1-0.5l-0.4,0.2c0,0-0.2,0.1-0.2,0.2l-5.4,5.4c1-1.1,0-0.8-0.1-0.8l0.5-0.5L230,51l3.4-3.4l0.1-0.1
		c0.9-1,0.6-0.3,0.8-1.1c-1.3,0.8-1.2,1-2.2,2l0.1-0.3c0-0.8-0.5,0.3,0.3-1.4c-0.8,0.2-0.3-0.1-0.9,0.5c-0.2,0.2-0.3,0.4-0.5,0.6
		l0.6-0.7l0.1-0.1c0,0,0.1,0,0.1-0.1c0.6-0.4-0.8,0.1,0.4-0.2c-0.4-0.4-0.7-0.4-1.2-0.2c-0.1,0.2,0.1,0.1,0,0.5c0,0-0.3,0.4-0.4,0.5
		l-0.5,0.5c-0.2,0.2-0.3,0.3-0.6,0.5l0.1-0.1l0.6-1c-1.1,0.4-0.4,0.2-1.1,0.9c-0.7,0.7-0.4,0-0.8,1.1c0.7-0.3,0.1,0.1,1-0.7
		l-0.9,0.5c-0.8,0.3-1.6,1.1-2,2c0.9-0.3,0.5-0.1,1.2-0.9c-0.6,0.5-1.1,1-1.6,1.6l-0.1-0.1c-0.4-0.1-0.4,0-0.7,0.4
		c-0.6,0.1-0.3,0-0.5,0.7l0.7-0.3c0,0,0.2-0.2,0.3-0.3l-1.7,1.7c0.3-0.3,0.5-0.2,0.4-0.7l-0.6,0.3c0-0.1,0.1-0.3,0.2-0.7
		c-0.8,0.3-0.7,0.4-1.1,0.9c0.4-0.8,0.1-0.3,0.6-0.8l2.1-2.2c0.3,0.3,0.1-0.1,0.1,0.3c0.8,0,0.5,0,1.1-0.4l-0.1-0.8
		c0.1-0.2,0.3-0.4,0.4-0.5l3.1-3.1c-0.5-0.1,0.1,0-0.5,0.1h-0.2h-0.1h-0.7c-0.1,0-0.2,0-0.5,0.3c-0.6,0.1-0.4,0.1-0.6,0.9
		c0.6-0.3,0.5-0.2,1-0.7c-0.3,0.9,0,0.2-0.6,0.7l-1.9,1.9l-0.1,0.1l-2.8,2.8c-0.4,0.4,0,0.2-0.5,0.6l-3.1,3l-0.1,0.1l-0.2,0.3
		c-0.1,0.1-0.2,0.3-0.3,0.4c1.1,0-0.2,0.3,1.3-0.8c-0.3,0.4-0.3,0.3-0.7,0.9c0.8-0.3,1-0.7,1.7-1.5c0.3-0.4,0.3-0.3,0.7-0.6
		c0.5-0.5,0.2-0.4,0.8-0.7c-0.4,0.3-0.4,0.3-0.7,0.9c0.9-0.2,0.6-0.2,1-0.5l-0.1,0.4c0.9-0.3,0.4,0.1,1-0.7l-1.7,1.7
		c0.3-0.2,0.3-0.2,0.4-0.4c0.4-0.6,0.1,0,0.4-0.8c-0.7,0.2-1.3,0.5-1.3,1.1V56c0,0.3-0.1,0.2-0.3,0.8c0.9-0.1,0.6-0.2,1.2-0.8
		c-0.5,0.4-0.3,0-0.3,0.5l0.1,0.3c0.9-0.5,1.4-1.4,1.8-1.8l0.4-0.4c0.8-0.9,0.3,0,1.1-1.1l1-1.1v0.8l-2.2,2.3
		c-0.1,0.1-0.1,0.1-0.2,0.3c-0.9,0.9-0.5,0.3-0.7,1.1L224.7,56.4L224.7,56.4z M229.3,51.5l-4.7,4.9l0.3-0.5c0.5-0.8,0.6-0.6,0.9-0.9
		l1.1-1.2c0.3-0.3,0-0.1,0.3-0.3C227.4,53.4,229.3,51.5,229.3,51.5z M193.5,54.2c1.2-0.2,1.9-0.1,2.8,0.5c0.5,0.4,0.7,0.4,1,0.9
		c2.2,3.4-1.2,7-5,5.2c-0.7-0.3-1.4-1.2-1.5-2c-0.4-1.8,0.1-3.1,1.5-4C192.7,54.5,192.9,54.3,193.5,54.2z M186.7,57
		c0.1-1.1,0.4-2.2,0.9-2.9c0.5-0.8,0.9-1.4,1.6-2c3.2-2.5,7.1-2.6,10.1,0c1.3,1.1,2.3,2.8,2.5,4.5c-1.4,0.2-1.7,1.1-3.3,0.5
		c-0.8-1.1-0.3-1.7-1.6-2.7c-1.9-1.6-5.7-1.5-6.8,2.1c0,0.1-0.1,0.4-0.1,0.4c-0.1,0.3-0.1,0.3-0.2,0.4
		C188.5,56.9,188.5,56.9,186.7,57L186.7,57z M186.3,59.8c0.5,1,0.7,1.9,1.4,2.7c0.6,0.7,1.3,1.5,2.2,2c3.7,2,7.8,1.5,10.6-1.5
		c0.9-1,1.8-3,1.9-4.5c0.2-1.8-0.5-2.7-0.5-3.7c-0.6-0.8-0.9-1.7-1.6-2.3c-2.3-2.2-5.1-3.5-8.4-2.3c-1.9,0.7-1.2,0.4-2.6,1.3
		c-0.7,0.4-1.5,1.4-1.9,2c-0.3,0.4-1.1,2.1-1.2,2.7C186,57.4,186.1,58.4,186.3,59.8z M161.4,99.1l-0.4,0.2L161.4,99.1z M177,94
		c0.7-0.4,0.5-0.5,1.2-0.8c-0.3,0.2-0.1,0.3-0.5,0.7c0,0-0.2,0.2-0.3,0.2l-0.6,0.6c-0.4,0.4-0.3,0-0.8,0.7c0,0,0,0.1-0.1,0.1
		l-0.4,0.5c-0.2,0.2-0.3,0.3-0.4,0.4c-0.2,0.2-0.1,0.1-0.3,0.3c-0.4,0.3,0,0-0.5,0.2l0.4-0.5c0.3-0.3,0.1-0.1,0.4-0.6
		c0,0-0.2,0.2-0.3,0.3l-0.1,0.1l-1.2,0.9l-0.1,0.1l-0.3,0.3c0.6-1.2,0.5-0.5,1.2-1.3c0.5-0.6,0.2-0.4,0.2-0.5c0,0,0-0.1-0.1-0.1
		v-0.1v-0.1l0.4-0.3c0-0.1,0.2-0.1,0.4,0.4c0.4-0.8,0.3-0.3,1.3-1.5l0.1-0.1l1-0.6C176.8,93.6,177,93.2,177,94L177,94z M180.5,95.6
		c0.5-1,0.1-0.2,0.9-1c0.8-0.8-0.1-0.3,1-0.9c-0.4,0.6-0.5,0.3-0.9,1.2c0.9-0.4,0.6-0.4,1.4-1.2c0.1-0.1,0.3-0.2,0.4-0.4v0.1v0.2
		l0.1,0.4c0,0,0,0,0,0.1c-0.4,0.4-0.8,0.8-1.2,1.2c0-0.1,0-0.1,0.1-0.6c-0.8,0.3-0.4-0.1-0.7,0.5c-0.2-0.4-0.2-0.3-0.5-0.4
		L180.5,95.6L180.5,95.6z M145.8,133.6c1.3,0.5,1.3,0.8,1.5,2.4c-0.7-0.2-0.8-0.2-1-0.8C146.1,134.7,145.9,134.1,145.8,133.6z
		 M145.3,131.2l1.2,0.5l0.3,1.7C145.5,133,145.4,132.8,145.3,131.2z M144.7,128.5l1.6,0.7l0.1,1.8
		C144.8,130.6,144.8,130.1,144.7,128.5z M165.6,140c-0.7-2-0.8-14.1-0.5-16.7c1.5,0.2,3.3,0.1,4.7,0.6c0.1,0.9,0.2,3.3,0,4l-3.7,0.2
		L165.6,140z M160.3,139.4l-0.2-17.7c1.1,0.3,1.3,0.7,4,1.3l-0.1,5h-3.1C160.8,130.2,161,137.8,160.3,139.4L160.3,139.4z
		 M155.5,139.3c-0.7-1.8-0.9-15.8-0.9-18.6l4.2,0.4c0.4,1.1,0.3,5.3,0.3,6.7l-3.6-0.1C155.5,131.4,155.8,135.7,155.5,139.3
		L155.5,139.3z M189.8,128c-1.4,0.1-7.3,0.2-8.5-0.2c-0.4-0.1-2.1-0.8-0.9-1.3c0.4-0.2,5,0.1,5.7,0.2c0.5,0.1,0.6,0.3,1.1,0.4
		c0.7,0,0.5-0.3,1.1-0.2C188.8,126.9,189.3,127.7,189.8,128z M171.9,127.7c-0.2,2,0.1,8.3-0.2,11.9c-0.6-1.3-0.6-13.4-0.7-15.8
		l6.7,0.7l0.1,1c0,0.5,0,1.1,0,1.6L171.9,127.7z M150.8,120.4l2.5,0.2l0.2,7l-1.5-0.1l0.1,10.5C151.2,135.1,150.7,123.9,150.8,120.4
		L150.8,120.4z M144.1,119.1c0.9,0.2-0.2,0.5,2.6,1c1.1,0.2,2.3,0.1,3.5,0.2l0.3,7.2l-3.9-0.1c-0.4,0.6-0.1,0.3-0.3,0.9
		c-1.8-0.2-1.5-0.9-1.8-2.6c0.4,0.1,3.7,1.8,4.8,0.8c-0.9-0.4-1.3,0-3.7-1c-1.5-0.6-1.4-1.5-1.3-3.4c1,0.4,3.7,2.4,5.2,1.2
		c-0.8-0.4-2.6-0.4-3.7-1.1C144.1,121.2,144.1,121.3,144.1,119.1L144.1,119.1z M144.2,116.1l1.2,0.6l0.5,2.6
		c-0.9-0.3-1.1-0.7-1.8-1.1L144.2,116.1L144.2,116.1z M215.6,123l0.1,0.7c0,0.4-0.1,0.8-0.1,1.1c-2.3,0-4.6-0.3-6.8-0.4
		c-2.5-0.1-4.9-0.2-7.3-0.3c-4.7-0.3-9.4-0.6-14.1-0.8c-4.8-0.2-9.3-0.7-14.1-0.9c-3.4-0.1-8.7-0.3-11.9-2.2l-0.4-0.3l-0.1-0.1
		l-0.1-0.1l2.9-3.6c0.4-0.5,0.5-0.9,1.1-1.1c0.6,1.1-1.5,4.4,1.5,5.2c1.7,0.4,37.1,2,42.4,2.2C210.1,122.7,214.5,122.7,215.6,123
		L215.6,123z M144.3,114.9l0.1-2.9c0.5,0.6,0.5,0.6,0.6,1.6c0.1,0.7,0.2,1.3,0.2,2.1L144.3,114.9L144.3,114.9z M191.8,106.4
		c0.9-0.2,1.7-0.2,2.6,0.1c4.4,1.4,5.9,6.4,3.4,10c-0.8,1.1-1.8,2.1-3.8,2.5c-5.7,1.2-9.6-5.4-6.1-10.2
		C189,107.1,190.1,106.8,191.8,106.4z M222,111.5c0.1-0.4,0.1-0.8,0.7-0.8c0.7-0.1,0.8,0.3,0.9,0.7L222,111.5z M184.3,111.3
		c0.3-0.5,0.2-0.5,0.9-0.7c-0.2,0.6-1.5,1.8-2,2.1c-0.2-0.3,0,0.1-0.1-0.2l-0.7,0.3c0.1-0.8,0-0.1,0.9-1.1c0.7-0.9,0.5-0.2,1-1.1
		C184.7,111.4,183.6,111.1,184.3,111.3z M162.7,111.4c0.5,0.1,0.3-0.2,0.4,0.5l-2.4,2.3c-0.6-0.1-0.3,0.1-0.5-0.4
		c-0.3,0.6,0.1,0.3-0.9,0.6c0.4-1.2-0.2-0.1,0.8-1.1l-1.7,1.7l0.1-0.1l0.1-0.1l0.9-0.5c-0.2,0.7-0.3,0.8-1.3,1.6
		c-1.3,1.1-1.4,1.8-2.5,2.1l0.7-1c-0.4,0.4-0.6,0.4-0.7,1c-0.8,0.2,0.2-0.1,0.1,0.4c0,0-0.8,1-1.6,1.3c0.3-0.5,0.2-0.3,0.4-0.8
		c-0.4,0.4-0.3,0.5-1,0.7c0.4-1,0.2-0.5,0.8-1.2l0.3-0.4c0,0,0.1-0.1,0.2-0.2l0.7-0.7l0.1-0.1c0,0,0.1-0.1,0.2-0.2l2.1-2.1
		c0.2-0.2,0.1-0.1,0.2-0.3l2-2c0,0,0.3-0.2,0.3-0.3c1.6-1.5,0.8-1,1.5-0.9c0.3,0,0.7-0.4,1.2-0.8c-0.1,0.4,0,0.2-0.2,0.5
		C162.9,111.4,163.1,111.2,162.7,111.4L162.7,111.4z M177.9,111.4c1.1-0.5,0.1-0.7,1.3-0.9l-0.6,0.8c0.5-0.4,0.6-0.3,0.9-0.8
		l0.2,0.1c0.4,0.1-0.2,0.1,0.8-0.2c-0.1,0.4-0.1,0.2-0.3,0.5c-0.1,0.2-0.2,0.2-0.3,0.4c1-0.5,0-0.6,1.2-0.8c-0.5,0.9-0.7,0.9-1,1.2
		c-0.6,0.5,0,0.3-0.7,0.8c-0.3,0.2-0.1-0.1-0.4,0.3c-0.3-0.1-0.2-0.2-0.5-0.2c-0.5,0,0.3,0.2-0.7,0.2c0.3-0.4,0.5-0.5,0.8-1
		c-0.3,0.3-0.4,0.5-1,0.7c0.5-1.4,0.1,0,0.7-1.1c-0.8,0.4-0.8,1.1-1.8,1.4c0.2-0.6,0.5-1,1-1.2l-0.3-0.1h-0.1H177
		c0.6-0.7,0.3-0.9,1.3-1C178.2,111.2,178.5,110.8,177.9,111.4z M175.9,111.4l1-0.9c-0.1,0.8-0.9,1.3-1.5,1.9l-0.7,0.6
		c-0.2-0.5,0.3-0.1,0-0.5l-0.8,0.5c0.3-0.8,0,0,1.1-1.3c0.3-0.4,0.4-0.2,0.7-0.5c0.6-0.6-0.2-0.5,0.8-0.6
		C176.3,110.8,176.2,110.9,175.9,111.4z M171.6,111l0.6-0.6c0.2,0.2,0.1,0.1,0.5,0.2l-1.5,1.9c-0.2,0.2-0.4,0.3-0.7,0.5v-0.1
		l-0.1-0.4c-0.3,0.5-0.2,0.4-0.9,0.6c0.3-0.5,0.9-1.1,1.4-1.4l-0.2-0.2l-0.1-0.1c-0.2-0.4,0.5-0.8,0.8-1
		C171.7,111.1,171.1,110.8,171.6,111L171.6,111z M162.2,115.4c0.5-0.5,0.5-0.3,0.8-0.6c0.5-0.7-0.3-0.4,1-0.8
		c-0.2,0.6-0.1,0.3-0.3,0.6c0,0.1-0.2,0.3-0.3,0.3l-4.3,4.2c-0.6,0.5-0.2,0.5-1,0.6l0.3-0.7c-0.3,0.5-0.2,0.6-1,0.7
		c0.1-1.1,1.6-1.8,1.8-2.1c0.2-0.2,0-0.2,0.2-0.4c0.4-0.6,1.3-1,1.8-1.8c0.3-0.4,0.3-0.3,0.6-0.6c1.2-1.2,0.7-0.4,1.2-1.2l1.5-1.4
		c0.5-0.4,0.2-0.4,0.9-1s0.4-0.9,1.4-1c-0.3,1.2-0.5,0.6-1.1,1.3c-0.3,0.4-0.1,0.2-0.6,0.6c-0.3,0.3-0.3,0.3-0.6,0.6l-0.7,0.5
		c-0.5,0.6-0.6,0.9-1.5,1.6L162.2,115.4L162.2,115.4z M158.9,117.4l-0.4-0.1c-0.3-0.1-0.5,0.4-0.9,0.8c-0.4,0.4-0.5,0.3-0.8,0.8
		c0.2-0.1,0.4-0.2,0.5-0.3c0,0,0.2-0.1,0.2-0.2l0.3-0.2c0.1,0,0.1-0.1,0.2-0.1c-0.2,0.7-0.1,0.5-0.6,0.9c-1.1,0.8-0.1,0.7-1,0.7
		c0.1-0.3,0.3-0.2,0.1-0.7c-0.3,0.5-0.2,0.4-0.6,0.7c0-0.7-0.3-0.1,0.9-1.3c0.6-0.6,0.8-0.5,1.1-1.2c-0.5,0.5-0.3,0.5-1.1,0.9
		c0.2-0.7,0.3-0.7,1.3-1.7c0.3-0.3,0.5-0.5,0.7-0.7c0.6-0.6,0.1-0.4,1-0.7c-0.3,0.7-0.4,0.7-0.9,1.1c0.6-0.3,2-1.8,2.5-2.4l3.3-3.3
		c0.6-0.2-0.8,0,0.5,0c0.4,0,0.3-0.1,0.6,0.1l-4.6,4.7c-0.8,0.6-0.3,0.4-0.8,0.9l-0.6,0.6c-0.3,0.4-0.1,0.1-0.2,0.3
		C159.3,117.1,158.9,117.4,158.9,117.4L158.9,117.4z M198.1,119.9C198.1,119.9,198.2,119.9,198.1,119.9l1.4-0.6
		c5.8-2.8,4.6-9.9,0.8-11.7c-3.3-1.6-2.7-0.1-5.1-1.9c2.3-1.7,7.5-0.3,9.5,4.4c0.5,1.2,0.8,2.4,0.6,4.1l-1.4-0.1
		c-0.5,3.1-1.8,4-3.6,5.2C199.7,119.8,199.2,119.8,198.1,119.9L198.1,119.9z M147.5,118.6c-1-2.7-1.3-5.6-1.6-8.8
		c-0.1-1.2-0.3-9.5-0.4-9.6c0.2,1.6,0.2,6.6,1.3,7.5c1.1,0.5,11.2-3.3,14.7-3.7c1.5-0.2,2.6-0.5,4.3-0.5c3.8-0.1,10.4-0.3,13.7-0.1
		c-0.1,1.3-1.3,5.1-1.9,6c-2.9,0.3-6.7,0-9.8,0.1c-3.2,0.1-5.7,0-8.2,1.5l-11.3,7.1C147.9,118.5,148,118.5,147.5,118.6L147.5,118.6z
		 M222.4,95.3c0.2-0.6,0-0.2,0.4-0.7c0.2-0.2,0.4-0.4,0.5-0.5l1.4-1.4c0.7-0.7,0.9-1.1,1.6-1.3c0.1,0.5,0-0.1,0,0.3v0.1v0.1
		c0,0,0,0,0,0.1l0.3-0.6l0.1,0.1l0.2,0.4c0,0,0,0,0,0.1c0.1-0.2,0-0.3,0.3-0.4c0.9-0.4,0.4,0,0.6,0.1L222.4,95.3L222.4,95.3z
		 M225.9,93.8c-0.6,0.6-0.5,0.3-0.8,0.3c-0.4-0.1,0.1-0.7-0.6,0.2c-0.1,0.1-0.2,0.3-0.3,0.4l-0.7,0.5c-0.4,0.4,0,0.5-1.2,0.9
		l0.7-0.8c-0.4-0.3-0.1,0.1-0.5,0L225.9,93.8z M222.5,93.5c1-0.6,0.3-0.1,0.2-0.4c-0.1-0.5-0.2-0.1,0.3-0.6c0.3-0.4,0.7-0.7,1.2-1
		l0.4,0.7l0.1,0.1l-1.5,1.4c0.5-0.3,0.3-0.3,1-0.7c-0.3,0.7-1,1.5-1.7,1.8c0-0.6,0.1-0.5,0.5-0.8C222.6,93.8,222.7,93.8,222.5,93.5z
		 M208.2,66.4c0.6,0.7,1.5,3.4,1.6,4.4h-25.1c-7.8-0.1-15.8,0.2-23.6,0.4c0-1.4,0.1-3.3,0.5-4.5L208.2,66.4L208.2,66.4z M163.3,60.5
		c0.3-0.7,0.8-1.9,1.1-2.4c1.4-2.3,2.3-3.8,4.4-5.6c2.4-2.1,6.8-3.1,9.9-3.2c4.3-0.1,8.5-0.2,12.8-0.2c2.8,0,6.3-0.3,8.7,1.1
		c0.7,0.4,1.4,0.9,1.6,1.7c1.2,0.8,5.9,12.8,6.1,13.7l-46,0.5C162,64.2,162.7,62,163.3,60.5z M152,55.3c0.7-4.8,4.7-4.2,9.2-3.9
		c-0.2,0.5-1.2,1.5-1.6,2.2c-0.6,0.9-1,1.3-1.5,2.3c-0.6-0.2-0.6-0.4-1.5-0.5c-0.8-0.1-0.9,0-1.6,0C153.6,55.5,154.9,54.9,152,55.3z
		 M155.7,59.8c-0.3,0.7-0.2,0.8-1.1,0.6c-3.3-0.8-5.7-4.2-3.8-7.8c1.6-3,4.7-2.9,8.3-2.8c0.6,0,1.2,0.1,1.9,0.1c0.6,0,1,0,1.4,0.3
		c-1.2,1.1-2.7,0.3-5.8,0.5c-4.6,0.3-6.1,3.3-4.6,6.5C153,59.4,155.1,59.4,155.7,59.8L155.7,59.8z M173.4,44
		c0.4-0.3,0.4-0.3,0.9-0.7c0.4-0.4,0.5-0.4,1-0.7c-0.5,1.2-0.2,0.3-0.8,0.9c-0.4,0.4,0,0.2-0.3,0.5c-0.3,0.3-0.3-0.1-0.8,0.7
		c-0.6,0.9-0.2,0-0.8,0.8c-0.7,1-0.3,0.2-0.8,0.7c-0.4,0.4,0,0.3-0.6,0.8c0,0-0.1,0-0.1,0.1c0,0-0.1,0-0.1,0.1
		c-0.6,0.5,0.1,0.2-0.7,0.8c-1.1,0.9,0,0.7-1.4,1.1l0.8-1.2c-0.9,0.5-0.7,1-1.9,1.7c0.3-0.7,0.4-0.6,0.8-1l2-2
		c0.8-1,1.3-1.3,1.8-1.8C173.3,43.8,173,44.4,173.4,44L173.4,44L173.4,44z M167.8,45c1.6-3.2,3.7-6.2,5.6-9.2
		c0.2-0.4,0.6-0.9,0.9-1.1l-0.3,6.5c-1.2,0.4-2.3,1.2-3.3,1.8c-0.6,0.4-1,0.7-1.5,1C168.5,44.4,168.7,44.5,167.8,45z M222.2,39.4
		c0.3-1,3.5-5,4.5-6.5c1.9-3.1,1.8-2.7,3.7-2.7c-0.1,0.8-1.9,3.7-2.4,4.7l-1.3,2.3c-0.2,0.4-1,2-1.2,2.3H222.2L222.2,39.4z
		 M193.9,37.6c0.1-0.2,0.3-0.3,0.5-0.6c0.5-0.7,1.1-1.6,1.6-2.3c0.3-0.4,0.5-0.7,0.9-1.1l1.6-2.3c0.3-0.4,0.5-0.6,0.8-1h3.7
		c-0.2,0.9-2.4,3.6-3,4.5c-0.9,1.5-2.3,3-3,4.6h-4.4L193.9,37.6L193.9,37.6z M188.2,39.3c0.2-0.7,4.8-6.2,5.7-7.4
		c1-1.2,0.6-1.5,2.6-1.5c-0.1,0.6-1,1.9-1.4,2.4l-4.5,6.6L188.2,39.3L188.2,39.3z M185.6,32.7c0.5-0.5,0.6-0.7,1-1.2
		c0.5-0.6,0.5-0.4,0.9-1.2h4.2c-0.7,1.1-2.3,2.9-3.1,3.9c-0.6,0.7-2.4,3.2-3.2,3.7c-0.7-0.8-1.3-1.9-1.7-3L185.6,32.7z M181.8,30.4
		h3.4c-0.3,0.7-0.2,0.3-0.6,0.7c-0.6,0.6-1,1.6-1.8,1.8L181.8,30.4L181.8,30.4z M213.8,39.4c0.3-0.9,1.1-1.4,1.9-2.4l5.4-6.1
		c0.2-0.3,0.2-0.3,0.4-0.6h4c-0.1,0.5-0.4,0.8-0.7,1.2l-2.5,3.5c-0.9,1.3-2.5,3-3.2,4.6L213.8,39.4z M174.7,40.9
		c-0.1-3,0.1-7.7,0.4-10.7c0.2-1.6,0.6-3.2,0.8-4.7c0.1-0.9,0.6-3.8,1.4-3.9c-0.6,0.4-0.6,1.6-0.8,2.6c-0.8,4.1-0.3,4.3-0.5,5.8v0.2
		c-0.1,0.4,0,0.3,0,0.4l0.2,0.4v0.1v0.1v0.1v0.1c-0.3,0.3-0.4,0.5-0.7,0.9l0.1-0.1l0.6-0.2c-0.1,0.2-0.1,0.1-0.3,0.3
		c-0.2,0.3-0.1,0.3-0.4,0.6c0.6-0.3,0.4-0.5,1.1-0.8c-0.1,1-0.5,0.4-0.9,1.3c-0.3,0.5-0.1,0-0.1,0.9v0.1v0.6v0.1v1.1
		c0,0-0.1,0.3-0.2,0.4c0.4-0.2,0.6-0.5,1-0.9c0.3-0.3,0.5-0.7,1-0.7l-0.6,0.5c0,0,0.1,0,0.1,0.1l0.2,0.1h0.1c0.8,0.2-0.3-0.2,0.2,0
		c-0.6,0.6-0.5,0.4-0.8,1c0.6-0.3,0.4-0.4,0.9-0.6c-0.2,0.7-0.1,0.3-1.2,1.4c-0.4,0.4-0.9,0.8-1.2,1.3c1-0.5,1.5-1.8,2.5-2.1
		c-0.1,0.5-0.1,0.3-0.3,0.6l-0.5,0.6c0.9-0.4,0.5-0.3,1-0.7c-0.2,0.8-0.7,0.7-1.2,1.5l1-0.7c0.4-0.3-0.3,0.1,0.4-0.3
		c-0.6,1.2-1.9,1.8-2.2,2.6c1-0.4,1.4-1.8,2.4-2l-1.5,1.6c-1.1,1.2-0.3,0.3-1.4,0.8C175,40.7,175.4,40.7,174.7,40.9L174.7,40.9z
		 M186.4,22.7c0.4-0.3,0.4-0.3,0.6-0.6c1.3-1.1,5.5-2.3,7-2.2c-0.4,0.2-1.9,2.5-2.5,2.7C191.3,22.8,186.9,22.8,186.4,22.7
		L186.4,22.7z M196.7,19.9c0.6-0.6,3.1-0.9,4.2-0.8c-1,1.1-1.8,2.3-2.9,3.6h-3.6L196.7,19.9L196.7,19.9z M204.9,22.7
		c0.4-1.1,1.5-2.1,2.2-3.1c0.5-0.6,0.5-1,1.4-1.1c0.8-0.1,1.7-0.1,2.5-0.2l-2.8,4.3L204.9,22.7z M231.1,18.7
		c0.2-0.2,0.4-0.6,0.6-0.7c0.5-0.4,1.8-0.3,2.6-0.2l-1.2,1.9c-0.8,1.2-0.9,1-2.1,3h-3.2C227.9,22.6,231.1,18.7,231.1,18.7z
		 M226.2,95.6c0.7-0.7,1.3-1.3,1.6-1.7l0,0c0,0.1-0.1,0.3-0.8,0.8l-0.5,0.6C226.5,95.6,226.3,95.6,226.2,95.6z M228,93.9
		c2.2-2.3,2.1-2.5,3.8-2.4l0.3,0.4c0,0,0,0.1,0.1,0.1l0.1,0.2c0.2,0.2,0,0,0.6-0.2l-0.3,0.5c-0.1,0.6-0.3-0.1,0.1,0.3l0.7-0.6
		c-0.3,0.6-1.1,1.5-1.7,1.7c-1.7,0.4-0.6,0.7-1.9,1.3c0.3-0.5,0.6-0.7,1-1.3l-0.4,0.2l0.1-0.6c-0.2,0.1-0.5,0.2-0.6,0.2
		c-0.2-0.1,0,0,0-0.1l-1.3,0.9c0,0,0,0.1-0.1,0.1c-0.3,0.4-0.2,0.3-0.5,0.5c1.1-1.1,0.5-0.3,0.9-1.2C228.3,93.8,228.1,93.8,228,93.9
		z M218.6,74.8c6.1,0,12.5-0.1,18.6,0l-0.1-2.3h-76.7c0.2,4.2,13,4.5,16,4.6c6.7,0.2,13.4,0.2,20.1,0.2c13.6,0,27.2,0.2,40.7,0V76
		c-5.9,0.1-63.7,0.4-70.5-1c-0.8-0.2-3.2-0.6-3.7-1.2c12.2,1,24.5,0.8,36.7,0.8C206.1,74.7,212.4,74.8,218.6,74.8L218.6,74.8z
		 M187.4,113.4c0.7,5,6.5,6.6,9.6,2.9c0.2-0.3,0.8-1.4,0.9-1.9c1.1-3.7-2-7.9-5.9-7.3C189.3,107.4,187,110.2,187.4,113.4
		L187.4,113.4z M147.9,115.4c1.4,0,5.8-2.5,7-3.2c1-0.5,2.3-1.4,3.3-1.8c1.2-0.5,2.1-1.2,3.6-1.4c2.8-0.4,7-0.2,10-0.3
		c3.8-0.1,3.9,0.3,5.7-1.9c0.4-0.4,0.7-0.9,1-1.5c-0.4,0.3-0.2,0.2-0.5,0.4c-2.1,1.6-2.4,2-4.7,2h-7.7c-6.1,0-4.6,0.3-9.4,2
		c-1.6,0.5-6.1,2.8-7.5,2.7c-0.6-0.4-0.8-1-1.2-1.7c-0.2-0.6-0.6-1.2-0.8-1.8C146.4,110.3,147.3,114.5,147.9,115.4z M191.7,57.6
		c-0.2-3.2,4.9-3.5,5.2-0.2c-0.7,0.5-0.6,0.3-1.2,0.9C193,57.3,193.9,58.3,191.7,57.6z M191.1,58.3c0.1,0.8,0.7,1.5,1.2,1.9
		c0.8,0.6,1.3,0.7,2.5,0.6c3.8-0.3,3.4-6.9-1.2-6C192.1,55,190.8,56.4,191.1,58.3L191.1,58.3z M231.9,69.1c0.6-0.3,1.1-0.6,1.5-1
		c-1.7-0.1-1.4,0.5-2.5,0.8l-0.1-0.1c-0.3-0.7,0-0.8-0.9-0.6c0,0.7-0.1,1.6,0.1,2.1c0.2,0,0.7,0.2,0.8-0.8c0-0.1,0-0.1,0-0.1
		c0.8,0.3,0.8,1,2.5,0.9C232.6,69.6,232.5,69.8,231.9,69.1L231.9,69.1z M175.6,54.6c2.1-0.6,3.9,1,4.2,2.5c0.5,2.8-2.2,5.7-5.7,3.7
		C171.8,59.6,171.8,55.6,175.6,54.6z M168.9,56.6c0.4-1.9,1.7-3.5,2.7-4.2c6.5-4.7,12.6,1.5,11.9,4.9c-0.8,0.4-0.7,0.1-1.4-0.1
		c-0.7-0.2-1,0.1-1.8-0.1c-0.5-1-0.5-1.5-1.4-2.2c-1.8-1.5-4.7-1.4-6.2,0.9l-0.6,1.1C171,57,169.9,57.2,168.9,56.6L168.9,56.6z
		 M168.5,60.3c0.6,2.2,2,3.8,4.1,4.8c2,1,5.4,0.9,7.2-0.2c0.9-0.6,1.8-1.1,2.5-1.9c2.4-2.6,2.9-7.1,0.4-9.8c-0.3-0.3-0.5-0.6-0.9-1
		c-3.2-3-8.3-2.1-10.2-0.4c-1,0.9-1.6,1.3-2.4,2.7C168.2,56.1,168,58.3,168.5,60.3z M148.1,110.6c0.9,0,3.6-1.2,4.6-1.7l4.7-1.8
		c5.9-2.6,12.4-2,19.3-2.3c-1.2,0.5-13-0.7-16.6,0.6l-9.5,3.5c-0.6,0.3-0.9,0.4-1.6,0.6C148.2,109.9,148.1,109.8,148.1,110.6
		L148.1,110.6z M173.6,58c0.6-3.4,5.2-3.3,5.2,0.2c-1.5-0.4-1.6-0.1-2.9,0.2C174.3,58.7,175.4,57.7,173.6,58z M175.5,55
		c-3.8,0.8-3,7,1.5,5.8C180.7,59.9,179.7,54.2,175.5,55z M231.7,92.1c-0.4-0.2-0.6-0.6-1.1-0.4c-0.3,0.1-0.7,0.5-0.5,1
		C230.2,93.5,231.8,93.9,231.7,92.1z M151.5,105c0.8-0.3,0.3-0.1,0.8-0.5c0.2-0.2,0.3-0.2,0.6-0.4l-0.5,0.7c0.9-0.2,2-1.5,2.5-2.1
		l1.6-1.5c-0.4,0.4-0.4,0.3-0.7,1c0.8-0.2,0.3,0.1,0.8-0.4l1.2-1.3c-0.1,0.4-2.7,2.8-3.5,3.7c0.8-0.1,1-0.5,1.5-1l-0.3,0.4
		c0,0.1-0.3,0.4-0.3,0.5c1.1-0.2,0.1,0.2,1.4-1.1l1.6-1.6c0.4-0.5,0.1,0,0.5-0.7c-0.9,0.3-0.3-0.1-0.9,0.5c1.1-1,0.2-0.2,0.4-1.5
		c-0.4,0.1-0.3,0.1-0.5,0.3c0.4-0.7,0.2-0.6,0.1-0.9l-0.1-0.5c-0.5,0.8-0.5,0.3-0.9,0.8l-0.9,1.1c-0.2,0.2-0.1,0.2-0.4,0.4
		c-0.7,0.5-0.3,0-0.8,0.7c-0.4,0.6-1.6,1.4-1.6,1.4L151.5,105L151.5,105z M184.2,54.5l0.1,0.6v0.1l0.1,0.2l0.1,0.1
		c0.1-0.1,0.2-0.2,0.3-0.3l0.3-0.3c0.4-0.4,0.6-0.6,1.1-0.9c0-0.8-0.2-1,1.1-2.1l0.1-0.1l1.1-1.2c0.5-0.4,0.7-0.2,0.9-1
		c-1,0.1,0.1,0-1.2,0.8l0.6-0.9c-0.5,0.2-0.8,0.5-1.1,0.8c-0.5,0.5-0.5,0.4-0.8,1.1c0.9-0.4,0.1,0,0.6-0.4c0.3-0.2-0.3,0,0.4-0.3
		l-1.6,1.6c0.4-0.9,0.3,0.1,0.7-1.1c-0.8,0.3-0.6,0.3-1.1,0.9l-0.2,0.2c-0.2,0.2-0.3,0.2-0.5,0.4l0.1,0.3c0.1,0.4,0.7-0.1,0,0.2
		C185.1,53.9,184.8,54,184.2,54.5L184.2,54.5z M155.9,96.2c-0.7,0.7-0.8,0.6-1.1,1.4c0.9-0.3,0.5-0.4,1.1-0.8l-1.8,1.8
		c0.2-0.2,0.4-0.4,0.7-0.6v-0.9c0-0.1,0.1-0.1,0.1-0.2c-0.7,0.2-0.2-0.1-0.8,0.5l-1.6,2.2c-0.3,0.7-1,0.9-1.4,1.8
		c0.9-0.4,0.6-0.4,1.1-0.8c-0.7,1.2-2.6,2.2-2.9,3.4c0.3-0.2,0.2-0.1,0.4-0.3c0.4-0.3-0.1,0,0.3-0.2c-0.3,0.6-0.3,0.3-0.9,1
		c-0.3,0.3-0.6,0.5-0.8,1l0.6-0.3c0.4-0.3,0.3-0.4,0.5-0.6c0.4-0.4,0,0,0.4-0.3c0.1-0.1,0.1-0.1,0.3-0.3c1.2-1.5,0.6,0,1.1-1.3
		l-1.2,0.6l2.2-2.2c0.2-0.2,0.2-0.2,0.4-0.4l3.1-3.1c0.2-0.2,0.1-0.2,0.4-0.5c0.5-0.4,0.5-0.2,0.8-1c-0.9,0.3,0,0.3-1,0.7
		c0.5-1,0.9-0.3,0.2-1.1C156.1,96.2,156.1,96,155.9,96.2L155.9,96.2z"/>
</g>
</svg>
