<?xml version="1.0" encoding="utf-8"?>
<!-- Generator: Adobe Illustrator 26.0.3, SVG Export Plug-In . SVG Version: 6.00 Build 0)  -->
<svg version="1.1" id="Слой_5" xmlns="http://www.w3.org/2000/svg" xmlns:xlink="http://www.w3.org/1999/xlink" x="0px" y="0px"
	 viewBox="0 0 239.5 150.2" style="enable-background:new 0 0 239.5 150.2;" xml:space="preserve">
<style type="text/css">
	.st0{fill:#161413;}
</style>
<g>
	<g>
		<g>
			<path class="st0" d="M156.9,30c6.3-0.2,12.5-0.4,18.8-0.3c6.7,0.1,13.5,0.4,20.2,0.8c1.5,0.1,3,0.2,4.5,0.5c1.5,0.3,3,0.9,4,2.1
				c1,1,1.5,2.4,1.8,3.8c0.2,1.3,0.2,2.6,0.2,3.8c0,8-0.2,16.1-0.6,24.1c-0.2,3.5-0.4,7.1-0.7,10.6c-0.2,2.4-0.6,4.8-1.4,7
				c-0.8,2.2-2.1,4.2-3.7,5.8c-1.7,1.8-3.8,3.3-5.9,4.5c-7.4,4.5-15.1,8.4-22.7,12.4c-7.3-3.8-14.7-7.6-21.8-11.8
				c-2.5-1.4-4.9-3-6.9-5.1c-1.8-1.9-3.2-4.2-4-6.7c-0.7-2.1-1-4.3-1.2-6.5c-0.5-5.7-0.7-11.5-0.9-17.2c-0.2-6.3-0.3-12.5-0.3-18.8
				c0-1.6,0.2-3.3,1-4.7c0.6-1.1,1.6-2,2.7-2.5c1.4-0.7,2.9-0.9,4.4-1C148.6,30.3,152.8,30.1,156.9,30z M150.2,33.3
				c-2.2,0.1-4.3,0.3-6.5,0.5c-1.2,0.2-2.5,0.5-3.3,1.4c-0.9,1-1,2.3-1,3.5c0,6.4,0.1,12.9,0.3,19.3c0.2,5.6,0.4,11.2,0.9,16.8
				c0.2,1.9,0.4,3.8,1,5.6c0.5,1.5,1.1,2.9,2.1,4.1c1.6,2.2,3.8,3.8,6.1,5.2c7,4.3,14.4,8.1,21.7,11.9c2-1,4-2.1,6-3.1
				c5-2.6,10.1-5.4,14.9-8.3c1.3-0.8,2.6-1.6,3.8-2.5c1.9-1.5,3.5-3.3,4.5-5.5c1.2-2.7,1.5-5.7,1.7-8.6c0.2-2.2,0.3-4.5,0.4-6.7
				c0.4-8.7,0.6-17.5,0.7-26.2c0-1.2,0.1-2.5-0.2-3.7c-0.2-0.9-0.6-1.7-1.4-2.2c-1-0.7-2.2-0.9-3.4-1c-4.2-0.4-8.5-0.6-12.8-0.8
				c-5-0.2-9.9-0.3-14.9-0.3C164,32.7,157.1,32.9,150.2,33.3z"/>
		</g>
		<path class="st0" d="M152,43c2.1-1,4.6-1.3,6.9-1c2.4,0.3,4.6,1.4,6.5,2.9c2.4,2,4.1,4.6,5.5,7.3c-0.4,1.2-0.7,2.4-1.1,3.5
			c-1.4-2.8-3-5.5-5.1-7.7c-1.6-1.7-3.5-3.1-5.8-3.7c-2.3-0.7-4.8-0.5-7,0.3c-2.3,0.8-4.3,2.5-5.7,4.5C147.3,46.4,149.4,44.2,152,43
			z"/>
		<path class="st0" d="M180.3,43c3-1.4,6.6-1.5,9.7-0.3c2.9,1.1,5.4,3.5,6.6,6.4c-1.5-2.2-3.6-3.9-6.1-4.7c-2.3-0.7-4.8-0.8-7.1,0
			c-2.3,0.8-4.3,2.4-5.9,4.2c-1.9,2.1-3.4,4.6-4.6,7.2c-0.4-1.2-0.7-2.4-1.1-3.5c1.2-2.4,2.7-4.7,4.6-6.6
			C177.6,44.5,178.9,43.6,180.3,43z"/>
		<g>
			<path class="st0" d="M149.6,49.5c2-0.7,4.3-0.6,6.3,0.2c2,0.9,3.7,2.4,5,4.1c1.8,2.4,2.9,5.1,3.8,7.9c-0.6,0.4-1.2,0.8-1.8,1.3
				c0.3,1.5,0.6,2.9,0.9,4.4c1.1,0.5,2.3,0.9,3.4,1.4c0.2,1.4,0.4,2.9,0.6,4.3c-0.6-0.7-1.1-1.4-1.7-2c-0.6-0.3-1.2-0.5-1.8-0.8
				c0.2,0.9,0.4,1.8,0.5,2.8c1,0.4,2.1,0.8,3.1,1.3c0.3,2.3,0.7,4.6,1,7c0,0.2,0.1,0.4,0,0.6c-0.2,0.7-0.5,1.5-0.7,2.2
				c1,0.4,2,0.8,3,1.2c1-0.4,2-0.8,3-1.2c-0.2-0.8-0.5-1.6-0.7-2.4c0.3-2.5,0.7-4.9,1.1-7.4c1-0.4,2.1-0.9,3.1-1.3
				c0.2-0.9,0.4-1.8,0.6-2.8c-0.6,0.3-1.2,0.5-1.8,0.8c-0.6,0.7-1.1,1.4-1.7,2c0.2-1.4,0.4-2.9,0.6-4.3c1.1-0.5,2.3-0.9,3.4-1.4
				c0.3-1.5,0.6-2.9,0.9-4.4c-0.6-0.4-1.2-0.9-1.8-1.3c0.9-3,2.2-5.8,4.1-8.3c1.1-1.3,2.3-2.5,3.8-3.3c2.5-1.4,5.8-1.6,8.3-0.1
				c1.4,0.8,2.4,2.1,3.1,3.5c0.9,1.8,1.2,3.8,1.1,5.8c-0.5,0-1,0-1.4,0c-0.5,2.9-1.4,5.7-2.8,8.2c-0.7,1.2-1.4,2.3-2.4,3.2
				c-0.5,0.4-1.2,0.9-1.9,0.8c-0.4,0-0.8-0.3-0.9-0.6c-0.3-0.6-0.2-1.2-0.1-1.8c0.2-1.4,0.7-2.7,1-4.1c0.3-1.3,0.5-2.7,0.5-4.1
				c0-0.9-0.1-1.9-0.6-2.7c-0.5-0.7-1.5-1-2.3-0.6c-0.9,0.4-1.4,1.3-1.7,2.1c0.4,1.4,0.7,3,0.4,4.4c-0.2,0.8-0.6,1.6-1.2,2.2
				c-0.4,0.4-0.9,0.6-1.4,0.8c-0.9,0.4-1.7,0.8-2.6,1.2c-0.6,2.5-1.2,5-1.8,7.4c-0.2,0.8-0.5,1.5-0.9,2.1c-0.7,1.2-1.4,2.3-2,3.5
				c-0.1,0.2-0.2,0.4-0.3,0.6c-0.3,1.5-0.6,3-0.9,4.5c-0.1,0.7-0.5,1.4-1.2,1.8c-0.9,0.4-2,0.3-2.9,0.3c-0.9,0-1.9,0-2.5-0.7
				c-0.6-0.5-0.7-1.3-0.8-2c-0.3-1.3-0.5-2.6-0.8-3.8c0-0.3-0.2-0.5-0.3-0.7c-0.6-1.1-1.2-2.1-1.9-3.2c-0.4-0.7-0.8-1.5-1-2.3
				c-0.6-2.5-1.2-5-1.8-7.5c-1-0.4-1.9-0.9-2.9-1.3c-0.6-0.3-1.2-0.7-1.6-1.3c-0.5-0.7-0.7-1.5-0.8-2.4c-0.1-1.2,0.2-2.4,0.5-3.5
				c0.1-0.2,0-0.3-0.1-0.5c-0.3-0.7-0.8-1.3-1.4-1.7c-0.8-0.5-1.9-0.3-2.4,0.5c-0.4,0.6-0.6,1.3-0.6,2.1c-0.1,2.2,0.3,4.4,0.9,6.5
				c0.3,1.1,0.7,2.3,0.6,3.5c0,0.5-0.2,1.1-0.8,1.3c-0.7,0.2-1.4-0.1-1.9-0.5c-1.1-0.8-1.9-2-2.6-3.2c-1.5-2.6-2.4-5.5-3-8.4
				c-0.5,0-1,0-1.4,0c-0.1-2.4,0.4-4.8,1.6-6.8C146.8,51.2,148.1,50.1,149.6,49.5z M158.5,59.8c-0.2,1.2-0.4,2.5-0.2,3.7
				c0.1,0.8,0.5,1.6,1.3,2.1c0.6,0.3,1.2,0.5,1.8,0.8c-0.2-1-0.5-2.1-0.7-3.1c0-0.1-0.1-0.3-0.1-0.4
				C159.8,61.8,159.2,60.8,158.5,59.8z M182.3,62.7c-0.1,0.1-0.2,0.3-0.2,0.4c-0.2,1.1-0.5,2.1-0.7,3.2c0.5-0.2,1.1-0.4,1.6-0.7
				c0.7-0.4,1.2-1.1,1.4-1.9c0.3-1.3,0.1-2.6-0.2-3.9C183.6,60.8,183,61.8,182.3,62.7z"/>
		</g>
		<path class="st0" d="M143.2,60.2c0.5,0,1,0,1.5,0c0.4,2.7,1,5.4,2,8c0.6,1.6,1.4,3.2,2.4,4.6c0.7,0.9,1.4,1.8,2.4,2.4
			c0.7,0.4,1.5,0.7,2.3,0.6c0.8-0.1,1.5-0.5,1.9-1.2c0.4-0.8,0.4-1.7,0.4-2.5c0-0.6-0.1-1.2-0.3-1.7c0.9,1.6,1.5,3.4,1.4,5.2
			c-0.1,1.1-0.6,2.2-1.5,3c-1,0.8-2.3,1-3.5,1c-1.4-0.1-2.7-0.6-3.8-1.5c-1.1-0.9-2-2.1-2.6-3.4c-0.8-1.7-1.4-3.5-1.8-5.3
			C143.4,66.2,143.2,63.2,143.2,60.2z"/>
		<path class="st0" d="M198,60.2c0.5,0,1,0,1.5,0c0,3.9-0.3,7.9-1.5,11.7c-0.5,1.7-1.3,3.4-2.4,4.8c-0.9,1.1-2,2-3.3,2.5
			c-1.3,0.4-2.7,0.5-4,0.1c-1.1-0.3-2-1.1-2.4-2.2c-0.5-1.2-0.4-2.6-0.1-3.8c0.2-1,0.7-2,1.2-2.9c-0.2,0.9-0.3,1.9-0.3,2.9
			c0,0.7,0.3,1.4,0.8,1.9c0.7,0.7,1.7,0.9,2.7,0.6c0.9-0.2,1.6-0.8,2.3-1.4c1.1-1.1,1.9-2.4,2.6-3.8C196.6,67.3,197.5,63.8,198,60.2
			z"/>
	</g>
	<g>
		<g>
			<path class="st0" d="M151.2,111.3c1.8-0.2,3.6-0.2,5.4,0.2c1.3,0.3,2.7,0.7,3.6,1.7c0.9,1,1.1,2.4,0.8,3.7
				c-0.2,0.9-0.7,1.7-1.4,2.2c-1,0.7-2.2,1.1-3.4,1.3c-1.4,0.2-2.8,0.1-4.2,0.1c-1.4-0.1-2.9-0.3-4.2-1c-1-0.5-1.8-1.4-2-2.4
				c-0.3-1.2-0.2-2.6,0.5-3.6c0.6-0.8,1.5-1.4,2.4-1.7C149.5,111.5,150.4,111.4,151.2,111.3z M151.9,113.3c-0.9,0.1-1.8,0.5-2.4,1.2
				c-0.6,0.6-0.7,1.6-0.3,2.4c0.3,0.6,0.8,1,1.3,1.3c1,0.4,2.1,0.5,3.1,0.5c0.9,0,1.8-0.1,2.6-0.5c0.5-0.3,1-0.7,1.3-1.2
				c0.3-0.7,0.3-1.7-0.2-2.3c-0.5-0.7-1.3-1-2.1-1.2C154.1,113.1,153,113.1,151.9,113.3z"/>
		</g>
		<path class="st0" d="M127.7,111.3c2.7,0,5.4,0,8,0c1.7,0,3.5,0.1,5,0.8c1,0.5,1.8,1.3,2.1,2.4c0.3,1.1,0.2,2.4-0.3,3.4
			c-0.5,0.9-1.3,1.6-2.3,1.9c-1.3,0.5-2.7,0.6-4.1,0.6c-2.8,0-5.7,0-8.5,0c0-1.9,0-3.7,0-5.6c1.1,0,2.2,0,3.3,0c0,1.2,0,2.4,0,3.6
			c1.7,0,3.3,0,5,0c0.9,0,1.9-0.1,2.6-0.7c1.2-0.8,1.2-2.9,0-3.8c-0.7-0.5-1.7-0.7-2.6-0.7c-2.8,0-5.6,0-8.4,0
			C127.7,112.6,127.7,112,127.7,111.3z"/>
		<path class="st0" d="M164,111.3c3,0,5.9,0,8.9,0c1.5,0,3,0.2,4.4,0.9c0.9,0.5,1.7,1.4,1.9,2.5c0.2,1.1,0.2,2.3-0.4,3.3
			c-0.5,0.9-1.3,1.5-2.2,1.8c-1.3,0.5-2.8,0.6-4.2,0.6c-2.8,0-5.6,0-8.4,0c0-1.9,0-3.7,0-5.6c1.1,0,2.2,0,3.3,0c0,1.2,0,2.4,0,3.6
			c1.5,0,3,0,4.4,0c1,0,2,0,2.9-0.4c0.6-0.3,1-0.8,1.2-1.4c0.2-0.7,0.1-1.5-0.3-2.1c-0.7-1-2-1.2-3.1-1.2c-2.8,0-5.6,0-8.3,0
			C164,112.6,164,112,164,111.3z"/>
		<path class="st0" d="M184.6,111.9c1.3-0.5,2.7-0.6,4.1-0.6c2.8,0,5.7,0,8.5,0c0,0.7,0,1.3,0,2c-2.6,0-5.1,0-7.7,0
			c-1,0-2,0-2.9,0.4c-0.6,0.3-1.1,0.8-1.3,1.5c-0.2,0.7-0.1,1.6,0.4,2.1c0.4,0.5,1,0.8,1.6,0.9c0.9,0.2,1.9,0.2,2.8,0.2
			c1.2,0,2.4,0,3.7,0c0-0.5,0-1,0-1.6c-1.6,0-3.2,0-4.8,0c0-0.7,0-1.3,0-2c2.7,0,5.4,0,8.2,0c0,1.9,0,3.7,0,5.6c-2.7,0-5.4,0-8.1,0
			c-1.7,0-3.5-0.1-5-0.9c-1-0.5-1.8-1.4-2-2.5c-0.3-1.1-0.2-2.3,0.3-3.3C182.8,112.9,183.7,112.3,184.6,111.9z"/>
		<path class="st0" d="M201,111.3c4.6,0,9.3,0,13.9,0c0,0.7,0,1.3,0,2c-3.5,0-6.9,0-10.4,0c0,0.5,0,1,0,1.6c3.3,0,6.6,0,9.9,0
			c0,0.7,0,1.3,0,2c-3.3,0-6.6,0-9.9,0c0,0.5,0,1,0,1.6c3.5,0,7,0,10.5,0c0,0.7,0,1.3,0,2c-4.7,0-9.3,0-14,0
			C201,117.4,201,114.4,201,111.3z"/>
	</g>
</g>
</svg>
