<?xml version="1.0" encoding="utf-8"?>
<!-- Generator: Adobe Illustrator 26.0.3, SVG Export Plug-In . SVG Version: 6.00 Build 0)  -->
<svg version="1.1" id="Слой_31" xmlns="http://www.w3.org/2000/svg" xmlns:xlink="http://www.w3.org/1999/xlink" x="0px"
	 y="0px" viewBox="0 0 239.5 150.2" style="enable-background:new 0 0 239.5 150.2;" xml:space="preserve">
<style type="text/css">
	.st0{fill:#1F1A17;}
</style>
<g>
	<path class="st0" d="M208.6,74.5c0.2,1-0.2,2-0.3,3c-1.9,11.2-3.8,22.4-5.7,33.6c0.6,0,1.2,0,1.9,0c0-0.4,5.9-35.1,6-35.2
		c0.1-0.4,0.2-0.8,0.1-1.1c-2.3-11.9-4.5-23.7-6.8-35.6c-0.7,0-1.4,0-2.1,0c0,0.1,0.1,0.3,0.1,0.4C204.1,51.2,206.3,62.8,208.6,74.5
		z"/>
	<path class="st0" d="M200.3,89.1c0.1,0.3-1.3,7-1.5,7.1c-1.2,5.1-2.8,10.1-4.8,14.9c2.1,0,4.1,0,6.2,0c0.1-0.2,0.1-0.4,0.1-0.6
		c0.1-0.5,5.2-33.9,5.4-34.1c0.2-0.9,0.2-1.7,0-2.6c-0.2-0.2-3.5-19.1-5.1-28.2c-0.4-1.9-0.7-3.8-1.1-5.7c-0.1-0.2-0.1-0.5-0.2-0.8
		c-1.9,0-3.8,0-5.8,0c3.8,8.9,6.5,18.3,7.4,27.9C201.7,74.4,201.4,81.8,200.3,89.1z"/>
	<path class="st0" d="M125.6,92.6c5.4,4.6,11.4,8.5,17.8,11.6c0.3,0.1,0.6,0.2,0.9,0.3c0.3,0,0.5,0.2,0.7,0.4
		c0.8,0.5,1.7,0.9,2.6,1.2c0.1,0,0.3,0.1,0.4,0.2c0.3,0.2,0.6,0.3,1,0.4c0.1,0,0.3,0.1,0.4,0.1c0.3,0.2,0.7,0.3,1.1,0.4
		c0.1,0,0.3,0.1,0.4,0.1c0.4,0.2,0.7,0.4,1.2,0.4c0.1,0,0.3,0.1,0.4,0.2l0.2,0c0.1,0,0.3,0.1,0.4,0.2l0.2,0c0.1,0,0.3,0.1,0.4,0.2
		l0.2,0c0.1,0,0.3,0.1,0.4,0.2l0.2,0c0.1,0,0.3,0.1,0.4,0.1c0.5,0.2,1,0.4,1.5,0.4c0.1,0,0.3,0.1,0.4,0.1c0.3,0.1,0.6,0.2,1,0.2
		c0.2,0,0.4,0,0.5,0.2l0.2,0c0.2,0,0.4,0,0.6,0.1l0.2,0c0.2,0,0.4,0,0.5,0.1c0.1,0,0.3,0.1,0.4,0.1c0.1,0,0.3,0.1,0.4,0.1
		c0.1,0,0.3,0,0.4,0c0.2,0,0.4,0,0.5,0.1c0.1,0,0.3,0,0.4,0.1c0.2,0,0.4,0,0.5,0.1c0.1,0,0.4,0,0.6,0.1c0.2,0,0.5,0,0.7,0.1
		c0.2,0,0.5,0.1,0.6,0.1c0.2,0,0.5,0,0.7,0.1c0.3,0.1,0.5,0.1,0.8,0.1c0.4,0,0.8,0,1.2,0.1c0.4,0.1,0.7,0.1,1.1,0.1
		c3.3,0,6.6,0,9.9,0c4.8,0,9.6,0,14.3,0c2-4.8,3.6-9.8,4.8-14.9c-0.1-0.2,0-0.4,0.2-0.6c0.3-1.5,0.7-3.1,0.9-4.6
		c-0.1-0.3,0-0.6,0.2-0.8c0-0.1,0-0.2,0-0.3c-0.1-0.3,0-0.6,0.2-0.8c1.1-7.3,1.4-14.7,0.7-22c-0.9-9.6-3.6-19.1-7.4-27.9
		c-3.6,0-7.3,0-10.9,0c-1.1,0.1-2.3,0.1-3.4,0.1c-3.5,0-7,0.1-10.5,0c-0.4,0-0.7,0-1.1,0.1c-0.2,0.1-0.4,0.1-0.7,0.1
		c-0.3,0-0.5,0-0.8,0.1c-0.2,0.1-0.4,0.1-0.7,0.1c-0.2,0-0.5,0-0.6,0.1c-0.2,0.1-0.3,0.2-0.5,0.1c-0.1,0-0.3,0-0.4,0.1
		c-0.2,0.1-0.5,0.2-0.7,0.1c-0.1,0-0.3,0-0.4,0c-0.2,0.1-0.3,0.2-0.5,0.1c-0.1,0-0.3,0-0.4,0c-0.1,0-0.3,0.1-0.4,0.1
		c-0.1,0-0.3,0.1-0.4,0.1c-0.2,0.1-0.3,0.2-0.5,0.1l-0.2,0c-0.2,0.1-0.3,0.2-0.5,0.1c-0.1,0-0.3,0-0.4,0c-0.1,0-0.3,0.1-0.4,0.2
		c-0.3,0-0.7,0.1-1,0.2c-0.1,0-0.3,0.1-0.4,0.1c-0.1,0-0.3,0-0.4,0.1c-0.1,0-0.3,0.1-0.4,0.1l-0.2,0c-0.1,0-0.3,0.1-0.4,0.2l-0.2,0
		c-0.1,0-0.3,0.1-0.4,0.2c-0.8,0.2-1.7,0.4-2.5,0.8c-0.1,0-0.3,0.1-0.4,0.1l-0.2,0c-0.1,0-0.3,0.1-0.4,0.2c-0.4,0.1-0.8,0.2-1.2,0.4
		c-0.1,0-0.3,0.1-0.4,0.1c-0.2,0-0.4,0.1-0.6,0.2c-0.1,0-0.3,0.1-0.4,0.2c-0.2,0-0.4,0.1-0.6,0.2c-0.1,0-0.3,0.1-0.4,0.2
		c-0.3,0.1-0.7,0.2-0.9,0.4c-0.1,0-0.3,0.1-0.4,0.2c-0.5,0.1-0.9,0.3-1.3,0.6c-0.1,0-0.3,0.1-0.4,0.2c-2.2,0.9-4.3,2.1-6.4,3.3
		c-9.3,5.3-17.8,12.4-23.7,21.4c-0.9,1.5-1.9,3-2.5,4.6c0,0.1,0,0.2,0,0.3c0.2,0.6,0.6,1.2,0.9,1.8C115.8,83,120.4,88.1,125.6,92.6z
		 M112.2,74.8c1.3-2.7,3-5.2,4.7-7.6c4.7-6.1,10.6-11.2,17.1-15.4c6.7-4.3,14-7.7,21.7-10c4.6-1.3,9.4-2.2,14.2-2.2
		c7.1,0,14.2-0.1,21.3-0.1c3.2,7.3,5.5,15,6.7,22.9c1.2,8.1,1.2,16.3,0.1,24.4c-1.1,8-3.4,15.9-6.2,23.5c-7.3,0-14.7,0-22,0
		c-4.7,0.1-9.4-0.8-13.9-2.1c-7-2.1-13.7-5.2-20-9.1c-5.9-3.7-11.3-8-16-13.1c-2.8-3.1-5.3-6.5-7.3-10.2
		C112.4,75.6,112,75.2,112.2,74.8z"/>
	<path class="st0" d="M134.7,75.3c-1.1-0.7-2-1.8-3.3-2.3c-0.4-0.2-0.8-0.1-1.2,0.1c-0.1,0.3-0.2,0.7-0.1,1c0.4,0.9,0.8,1.8,1.2,2.7
		c0.5,0.1,1,0.1,1.4,0.3c0.4,0.4,0.7,1.1,1.3,1.3c0.4,0.2,0.9,0.2,1.1,0.6c0.5,0.7,1.2,1.1,1.8,1.8c0.7,0.7,1,1.7,1.7,2.4
		c0.6,0.1,1.3,0.2,2,0.2c0.6-0.3,1-0.8,1.7-0.9c0.8,0,1.6-0.2,2.3,0.4c0.7,0.6,1.3,1.3,1.7,2c0.4,0.8,1.2,1.3,1.9,1.9
		c1.4,1.2,3.1,2,4.9,2.1c-0.1,0.2-0.2,0.5-0.5,0.6c-0.9,0.3-1.9,0-2.8,0c-0.5,0-1.2-0.1-1.6,0.4c1.1,0.2,2.2,0.2,3.2,0.6
		c-1.2,0.7-2.8,0.6-3.8-0.4c-0.7-0.7-1.8-0.8-2.6-0.4c0.8,0.3,1.6,0.4,2.3,0.9c1.1,0.9,2.6,1.5,4.1,1.5c0.8,0,1.3-0.6,2.1-0.5
		c-0.3,0.6-1,0.9-1.6,1c-1.1,0.2-2.2,0.3-3.1,0.9c1-0.3,2.1-0.2,3.1,0c0.8,0.1,1.4-0.5,2.2-0.5c0.6,0.8,0.9,1.7,1.6,2.4
		c0.4,0.4,0.7,0.7,1.2,1c0.5,0.3,1.1,0.4,1.7,0.5c0.9,0.1,1.8,0.3,2.7,0.1c1.4-0.2,2.8-0.6,4.2-0.5c1,0.1,2,0.6,2.7,1.2
		c0.5,0.5,1.2,0.6,1.9,0.7c-0.6-0.9-1.6-1.3-2.4-2c-0.3-0.3-1.3-0.5-0.9-1.1c1.6-0.5,3.3,0.3,4.6,1.3c0.6,0.4,1.3,0.5,1.9,0.6
		c-1.4-1-2.6-2.2-3.9-3.4c0.9-0.7,1.9,0,2.8,0.2c1.3,0.3,2.3,1.2,3.2,2.1c-0.1-0.7-0.7-1.2-1.3-1.7c-0.6-0.6-1.2-1.2-2-1.6
		c-1.8-0.8-3.9-0.9-5.7-0.3c-1.5,0.7-3.1,0.9-4.8,1.1c-2,0.1-4.2-0.4-5.4-2.1c-0.6-0.9-1-2-1-3.2c1-0.2,1.9-0.9,2.8-1.4
		c1.6-1.1,2.9-2.7,4.1-4.3c0.8-1,1.5-2.2,2.6-3c1.2-1,2.5-2,3.9-2.6c0.6-0.3,1.3-0.2,2-0.2c-0.5,1-0.5,2.3-1.2,3.2
		c-0.4,0.6-1.2,1.1-0.9,1.9c0.6-1,1.8-1.4,2.3-2.5c0.1,0.8-0.5,1.4-0.9,2c0.1,0,0.4,0,0.5,0c0.4-0.5,0.7-1,1.1-1.5
		c0.4-0.5,0.4-1.3,1-1.7c-0.2,1.5-1.1,2.8-1.2,4.3c-0.1,0.7,0.3,1.4,0.8,1.9c-0.2-0.7-0.7-1.3-0.4-2.1c0.3-0.6,1-0.9,1.3-1.5
		c0.3-0.6,0.3-1.3,0.7-1.9c0,0.9,0.2,1.7,0.2,2.6c-0.2,0.5-0.5,0.9-0.5,1.4c0.5-0.4,0.9-0.8,1.2-1.3c0.3-0.5,0.2-1.1,0.6-1.6
		c0.2,1.1-0.7,2-0.7,3c0,0.2,0,0.5-0.1,0.7c0.1,0,0.3,0,0.5,0c0-0.7,0.5-1.3,0.9-1.8c0.3-0.7,0.2-1.5,0.8-2.1
		c-0.1,0.6-0.3,1.2-0.4,1.7c0.3-0.2,0.5-0.4,0.8-0.6c0.1,1.1-0.6,2-1.2,2.8c0.5-0.3,1.1-0.6,1.6-0.9c0.7-0.5,0.6-1.4,1.2-1.9
		c0.4-0.4,0.8-0.9,1.3-1.1c-0.1,0.6-0.2,1.1-0.3,1.7c-0.3,0.4-0.8,0.6-1.1,1.1c-0.2,0.6-0.2,1.3-0.1,1.9c0.3-0.4,0.5-1,0.8-1.4
		c0.4-0.4,1.1-0.5,1.4-1c0.6-0.8,0.8-1.9,1.9-2.2c-0.4,0.7-1,1.3-1.4,2c-0.4,0.9-1.5,1.3-1.5,2.3c0.5-0.5,1.2-0.9,1.8-1.2
		c0.4-0.7,1.3-0.9,1.8-1.5c0.4-0.4,0.7-0.8,1.2-1l0.2,0.1c0.1,0.7-0.7,1-0.8,1.7c-0.1,0.8-0.3,1.5-0.2,2.3c0.6-0.6,0.9-1.5,1-2.3
		c0.1-0.6,0.7-0.8,1.1-1c-0.1,0.4-0.3,0.8-0.4,1.2c-0.1,0.6,0.2,1.2,0,1.8c-0.2,0.4-0.4,0.8-0.6,1.2c0.5-0.2,1-0.6,1.2-1.1
		c0.4-0.8,0.3-1.7,0.5-2.5c0.4-0.6,0.9-1.3,1.5-1.8c0,0.7-0.3,1.3-0.3,2c-0.1,0.5-0.1,1.1-0.4,1.5c-0.4,0.4-0.8,0.9-1,1.5
		c0.4-0.3,0.8-0.5,1.2-0.8c0.5-0.5,0.7-1.1,0.9-1.7c0.4-0.7,1-1.3,1.3-2c0.1-0.3,0.3-0.5,0.6-0.7c0.4,0.8,0.5,1.7,1,2.4
		c0.4-1,0.2-2.1,0.3-3.2c0.2-0.6,0.7-0.9,0.9-1.5c0.3-0.6,0.4-1.3,0.4-1.9c0.4-0.8,1.1-1.5,1.8-2.1c-0.6-0.4-1.3-0.2-2-0.3
		c-0.1-0.7-0.1-1.4,0.2-2c0.4-0.7,0.2-1.5,0.2-2.2c-0.2,0.2-0.4,0.4-0.6,0.6c0-0.6,0.3-1.4-0.3-1.8c0,1-0.1,2.1-0.8,2.8
		c-0.7-1.3-1.4-2.6-2.1-3.8c-0.3-0.5-0.3-1.1-0.6-1.7c-0.4-0.5-0.9-1-1.4-1.4c-0.6-0.1-1.3,0-1.9,0c0,0.8,0.4,1.6,0.5,2.4
		c-0.1,0.1-0.2,0.2-0.3,0.3c-0.3-0.6-0.5-1.3-0.7-1.9c-0.1,0.3-0.4,0.5-0.4,0.8c0,0.9,0.6,1.8,0.4,2.7c-0.3,1.2-0.5,2.4-0.6,3.6
		c-0.3,0.1-0.6,0.2-0.9,0.1c-1.2-0.4-2.4-1-3.5-1.7c-1-0.6-2-1.3-2.7-2.3c-0.3-0.4-0.7-0.7-1.2-0.9c-0.7-0.3-1-1.1-1.5-1.7
		c-0.6-0.9-1.3-1.7-1.8-2.7c0.2-0.8,0.7-1.6,1-2.4c0.2-0.6,0.7-0.9,1.1-1.3c0.7-0.8,1.3-1.8,1-2.8c-0.2-0.9-1.2-1.2-1.9-1.6
		c-0.8-0.5-1.7-0.6-2.5-0.9c-1.4-0.6-2.8-0.9-4.2-1.4c-0.4-0.2-0.8-0.6-1.3-0.5c-1.4,0.3-2.7-0.3-4,0c-0.1,0.2-0.1,0.4-0.2,0.7
		c0.5,0.5,1,1,1.4,1.5c0.7-0.2,1.4-0.4,2.2-0.6c1.1-0.3,2.4-0.1,3.4,0.5c0.5,0.5,0.8,1.2,1.3,1.7c0.7,0.4,1.5,0.6,2.3,0.8
		c-0.3,0.9-1.2,1.4-1.9,2.1c-0.6,0.5-0.9,1.3-1.7,1.6c0.2-1.4,0.6-2.7,0.6-4.1c0-0.9-0.6-1.8-1.4-2.1c-0.8-0.2-1.7-0.1-2.6,0
		c-2.1,0.4-4.2,0.6-6.2,1.3c-0.5,0.4-0.9,1-1.6,1.2c-0.9,0.3-1.8,0.9-2.4,1.7c-0.3,0.4-0.2,0.9-0.1,1.4c0.8,0.2,1.7,0.3,2.5,0.1
		c0.8-0.3,1.3-1,1.4-1.9c0.4,0,0.9,0,1.3-0.3c1.3-0.8,2.8-0.8,4.2-1.3c0.5-0.1,1.4-0.2,1.5,0.4c-0.3,1.2-1.1,2.1-1.4,3.3
		c-0.3,1.1-1.5,1.6-1.7,2.7c-0.2,0.7-0.1,1.4-0.1,2.2c-0.4,0-0.9-0.1-1.3,0.2c-1.4,0.8-2.4,2.1-3.5,3.2c-0.7,0.9-1.4,1.9-2,2.9
		c-0.4,0.6-1,1.2-1.3,1.8c-0.5,0.8-1.2,1.4-1.9,2.1c-0.6,0.6-1.6,0.5-2.3,1.1c-0.3,0.3-0.4,0.7-0.4,1.1c0.5,0.3,0.9,0.6,1.4,0.9
		c0.9,0.5,2,0,2.9,0.7c0.3,0.2,0.3,0.6,0.4,0.9c-0.6-0.2-1-0.8-1.6-0.8c-0.5,0-1,0-1.5-0.2c-0.8-0.3-1.4-1.1-2.2-1.4
		c-0.8-0.3-1.6-0.7-2.5-0.7c-1,0.1-2,0.3-3,0.7c-1.5,0.6-2.8,1.7-4.3,2.4c-1.3-0.1-2-1.4-3.1-2.1C135.9,77.5,135.8,76,134.7,75.3z
		 M131.3,73.9c0.4,0.1,0.7,0.5,0.9,0.9C131.6,74.9,131.2,74.4,131.3,73.9z M134.3,76.2c0.1-0.3,0.5-0.1,0.6,0.1
		C135,76.8,134.2,76.6,134.3,76.2z M158.6,94.4c1.4,0.5,2.9,0.5,4.4,0.4c-1.5,0.9-3.5,0.7-5,0c-0.9-0.4-1.9-1.1-2.2-2.1
		C156.6,93.4,157.5,94.1,158.6,94.4z M192,77.4c0.2,0.2,0,0.6-0.3,0.4C191.5,77.6,191.8,77.1,192,77.4z M191.1,77.8
		c0.1,0.3,0,0.4-0.3,0.3C190.7,77.8,190.8,77.7,191.1,77.8z M190.8,73.7c0.2,0.3-0.3,0.4-0.3,0.1C190.2,73.4,190.7,73.3,190.8,73.7z
		 M188.9,68.1c0.4,0.7,0.7,1.6,0.9,2.4c-0.1,0-0.4-0.1-0.6-0.1C189.1,69.7,188.7,68.9,188.9,68.1z M189.5,71.5
		c0.1,0.4,0.4,0.9,0.1,1.3c-0.2,0.4-0.7,0.4-1.1,0.4C188.5,72.4,188.9,71.8,189.5,71.5z M189.1,77.9c-0.4,0.3-0.6,0.8-0.7,1.3
		c-0.2-0.6-0.5-1.2-0.5-1.9C188.3,77.5,188.7,77.7,189.1,77.9z M187.7,65.6c0.1,0.3,0.1,0.9-0.4,0.7c-0.2-0.3-0.4-0.6-0.5-1
		C187.1,65.4,187.4,65.4,187.7,65.6z M184.7,79.4c-0.1-0.3,0-0.4,0.3-0.3C185.1,79.4,185,79.5,184.7,79.4z M185.5,79.4
		c-0.1-0.3,0-0.4,0.3-0.3C185.9,79.4,185.8,79.5,185.5,79.4z M186.6,73.2c-0.3-0.1-0.5-0.2-0.8-0.4c0-0.3,0-0.6-0.1-0.9
		C186.1,72.4,186.3,72.8,186.6,73.2z M185.4,73.9c0.4,0.3,0.9,0.6,1,1.2C185.7,75.2,185.3,74.6,185.4,73.9z M184.5,74
		c0.3,0.7,0.8,1.2,1,1.9C184.5,76,184.2,74.7,184.5,74z M184.2,78.9c0.2,0.2,0.1,0.4-0.1,0.4C183.9,79.1,184,78.9,184.2,78.9z
		 M178,78.8c-0.4-0.1-0.5-0.7,0-0.8c0,0.1,0.1,0.3,0.1,0.3C178,78.4,178,78.7,178,78.8z M178.8,78.8c-0.2-0.2-0.1-0.7,0.2-0.5
		C179.2,78.5,179.1,79.1,178.8,78.8z M179.9,79.4c-0.3-0.1-0.5-0.4-0.5-0.7C180,78.5,179.9,79.1,179.9,79.4z M180.8,79.4
		c-0.4-0.1-0.3-0.5-0.3-0.8C180.9,78.6,181,79,180.8,79.4z M181.5,79.5c-0.2-0.2-0.4-0.5-0.4-0.9C181.7,78.6,181.7,79.2,181.5,79.5z
		 M183.2,78.5c0.1,0.3,0.3,0.5,0.4,0.8C182.9,79.5,182.9,78.9,183.2,78.5z M182.2,78.6c0.2,0.3,0.3,0.5,0.4,0.8
		C182,79.6,182,78.9,182.2,78.6z M178.2,71.7c0.9,0.6,1.9,0.9,2.8,1.5c0.5,0.4,1.2,0.6,1.4,1.3c-1.7-0.1-3-1.3-4.3-2.3
		c-0.3-0.2-0.5-0.6-0.7-0.9C177.7,71.4,178,71.5,178.2,71.7z M176.2,77.7c0.1,0.3,0,0.4-0.3,0.3C175.8,77.7,175.9,77.6,176.2,77.7z
		 M174.3,77.5c-0.1-0.3,0-0.4,0.3-0.3C174.7,77.5,174.6,77.6,174.3,77.5z M175.3,77.4c0.3,0.2,0,0.6-0.3,0.4
		C174.7,77.6,175,77.2,175.3,77.4z M174.2,68c0.7,0.5,0.7,1.4,0.8,2.1c0,0.6-0.1,1.4-0.8,1.6c0.1-0.7,0.3-1.3,0.3-2
		C174.4,69.1,174.2,68.6,174.2,68z M175.1,56.7c0.4,0.3,0.5,0.9,0,1.1C175.1,57.5,175.1,57.1,175.1,56.7z M163.4,53.4
		c-0.1-0.3,0-0.4,0.3-0.3C163.8,53.4,163.7,53.5,163.4,53.4z M156.6,59c0,0,0.1,0.1,0.2,0.2C156.9,59.8,156.1,59.1,156.6,59z
		 M162.4,56.5c0.5-0.7,1.4-0.9,2.2-0.9c0.1,0.1,0.4,0.3,0.5,0.3C164.2,56.1,163.3,56.3,162.4,56.5z M171.9,73.5
		c-0.1,0-0.4,0.1-0.6,0.2c0.1-0.3,0.1-0.7,0.3-0.9C172.1,72.7,172.2,73.3,171.9,73.5z M171.7,55.3c0.5,0,1.1,0.1,1.5,0.3
		c0.2,0.1,0.7,0.2,0.5,0.5C173,56.2,172.1,56,171.7,55.3z M172.9,74.5c0.1,0.3,0,0.4-0.3,0.3C172.5,74.6,172.6,74.4,172.9,74.5z
		 M172.4,59c0,0.5-0.4,0.8-0.7,1C171.8,59.6,172.1,59.3,172.4,59z M169.1,61.9c0.6,0.4,1.2,0.8,1.9,1c0.3,0.1,0.6,0.4,0.8,0.6
		c-0.4,0.1-0.8,0.3-1.2,0c-0.5-0.4-1.2-0.5-1.6-1C169,62.2,169.1,62.1,169.1,61.9z M168.8,55.6c0,0.3-0.5,0.2-0.5,0
		C168.3,55.3,168.8,55.3,168.8,55.6z M166.7,59.1c-0.3,0.8-0.6,1.5-1.1,2.2c-0.1-0.1-0.2-0.3-0.2-0.4
		C165.8,60.3,166.2,59.7,166.7,59.1z M165.4,77c1-0.6,2.2-1,3.3-1.2c0.4-0.1,0.5,0.5,0.1,0.6c-1.1,0.4-2.2,0.8-3.2,1.4
		c-0.6,0.5-1.3,0.8-1.9,1.3C164.3,78.3,164.7,77.4,165.4,77z M158.1,78.1c0.5,0,1,0.2,1.5,0.2c0,0.1,0.1,0.4,0.1,0.5
		C159.1,78.9,158.4,78.7,158.1,78.1z M157.9,71.1c0.5-0.8,1.3-1.5,1.8-2.3c0.5-0.5,1.1-1.1,1.9-1.1c0.1,0.4-0.4,0.7-0.6,1
		c-0.9,1-2.1,1.9-2.9,3c-0.4,0.4-0.7,0.8-1.2,1.2C157,72.2,157.5,71.7,157.9,71.1z M153.2,86.7c0,0.1,0.1,0.3,0.2,0.4
		c-0.5,0.2-1.1,0.3-1.6,0C152.2,87,152.7,86.9,153.2,86.7z M150.2,79.1c-0.8-0.2-1.6-0.5-2.4-0.9C148.7,78,149.8,78.2,150.2,79.1z
		 M144.8,79.2c-0.5,0.6-1.4,0.5-2.1,0.6C143.4,79.5,144.1,78.9,144.8,79.2z M139.7,82.4c0,0.3-0.5,0.2-0.5-0.1
		C139.2,82,139.7,82.1,139.7,82.4z M137.7,79.4c0.5,0.3,0.7,0.8,0.9,1.3c-0.5-0.3-0.9-0.7-1.3-1c-0.6-0.5-1-1.2-1.4-1.8
		C136.5,78.3,137,78.9,137.7,79.4z"/>
	<path class="st0" d="M194.7,72.6c-0.4-0.2-0.8-0.3-1.2-0.5c-0.2,0.5-0.3,1-0.3,1.5C193.8,73.4,194.2,73,194.7,72.6z"/>
	<path class="st0" d="M143.3,78c1-0.6,2.1-0.8,3.1-1.1c1.1-0.3,2.3,0.1,3.5,0.1c0.6-0.3,0.9-1.1,1.7-1.3c0.8-0.2,1.6-0.6,2.2-1.2
		c0.6-0.7,1.3-1.6,1.5-2.6c-1.5-0.3-2.9,0.5-4.4,0.8c-0.9,0.1-1.6,0.5-2.3,1c-0.7,0.5-1.6,0.7-2.2,1.3c-0.3,0.3-0.7,0.6-1.2,0.7
		c-0.4,0.1-0.8-0.2-0.7-0.6c0.1-1,0.2-2.1,0.4-3.1c0.4-1,0.6-2,0.9-3c0-1.1,0.3-2.1,0.2-3.2c0-1,0.2-2,0-3c-0.7,0-1.5,0.2-1.8,1
		c-0.9,1.2-0.8,2.8-0.4,4.2c-0.3,0.3-0.6,0.7-0.6,1.2c-0.1,0.7,0.2,1.5,0,2.2c-0.1,0.4-0.2,0.8-0.2,1.3c-0.3,1.5-1.2,2.8-1.4,4.3
		c-0.1,0.5,0.1,0.9,0.4,1.3C142.4,78.4,142.9,78.2,143.3,78z M145.3,64.2c0.2,0.2,0,0.7-0.3,0.5C144.8,64.5,145,63.9,145.3,64.2z
		 M145.1,68.5c0.2,0.1,0,0.6-0.2,0.4C144.7,68.8,144.9,68.3,145.1,68.5z M143.9,76.4c0-0.3,0.5-0.2,0.4,0.1
		C144.3,76.8,143.9,76.6,143.9,76.4z M143.9,72.2c0.2-0.6,0.3-1.2,0.7-1.7c-0.1,1.3-0.4,2.5-0.8,3.7
		C143.8,73.6,143.6,72.8,143.9,72.2z"/>
	<path class="st0" d="M135.8,87.7c0.2-1.1,0.2-2.3-0.3-3.3c-0.4-0.8-1-1.6-1.9-1.7c-0.8-0.1-1.3,0.8-1.1,1.5c0.1,0.6,0.6,1,1.2,1.2
		c-0.2-0.6-0.4-1.2-0.2-1.8c0.8-0.1,1.4,0.4,1.5,1.2c0.2,1.3-0.3,2.5-0.5,3.7c-0.9-0.8-1.9-1.5-3.1-1.7c-0.1-0.7-0.4-1.3-1-1.6
		c0,0.4,0.1,0.7,0.1,1.1c-1.2-0.3-2.4-1-3.3-1.9c-1.1-1-0.9-3,0.4-3.9c0.4-0.3,1-0.2,1.5-0.2c0,0.4-0.2,0.8,0.1,1.2
		c0.3,0.5,1.3,0.3,1.4-0.3c0.1-0.6-0.3-1.2-0.9-1.4c-1-0.4-2.1-0.2-2.9,0.4c-1.3,1.1-1.5,3.1-0.6,4.6c0.9,1.6,2.7,2.4,4.3,3.1
		c0,0.9,0.3,1.8,1.3,2c-0.1-0.5-0.2-1.1-0.3-1.6c1.1,0.1,2.2,0.6,3,1.4c-0.1,1.8,0.5,3.5,1.3,5c0.1,0.2,0.3,0.3,0.4,0.4
		c0-0.9-0.3-1.7-0.5-2.6C135.4,91.1,135.5,89.4,135.8,87.7z"/>
	<path class="st0" d="M126.6,69.6c0.9,0.9,2.3,0.9,3.4,0.5c1.3-0.7,1.8-2.2,2.3-3.4c0.3-0.7,0.5-1.6,1.3-1.9c0.4-0.2,0.9,0,1.1,0.5
		c0.4,1.1-0.1,2.3-0.8,3.1c-0.4,0.5-1,0.8-1.3,1.3c1-0.1,1.9-0.4,2.9-0.6c-0.2-0.3-0.5-0.7-0.3-1.1c0.3-0.9,0.8-1.7,0.6-2.7
		c-0.2-1.4-2-2.3-3.2-1.5c-1.5,1.1-1.9,3.1-2.6,4.7c-0.3,0.8-1.3,1.3-2.2,0.9c-1.5-0.7-2-2.7-1.3-4.2c0.4-0.9,1.3-1.9,2.4-1.6
		c0,0.4-0.2,0.9,0.2,1.2c0.4,0.4,1.1,0.2,1.3-0.3c0.2-0.6-0.3-1.2-0.8-1.4c-0.9-0.4-1.9-0.1-2.6,0.4c-1,0.8-1.5,2.2-1.3,3.4
		C125.6,67.8,125.9,68.8,126.6,69.6z"/>
	<path class="st0" d="M101,119.3l-0.2,0c-0.2,0-0.4,0-0.5,0c-0.4,0-0.6,0.5-0.7,0.9c0,0.1-0.1,0.2-0.2,0.3l0,0.1
		c0,0.1-0.1,0.3-0.1,0.3c0,0.1,0,0.3,0,0.3c0,0.2,0,0.3-0.1,0.5c0,0.1-0.1,0.3-0.1,0.5c0,0.8,0,1.5,0,2.3c0,0.1,0.1,0.3,0.1,0.5
		c0.1,0.1,0.1,0.3,0.1,0.5c0,0.6,0.3,1.2,0.6,1.6c0.1,0.2,0.3,0.4,0.5,0.4c0.2,0,0.3,0,0.5,0c0.6-0.2,0.8-0.9,0.9-1.5
		c0-0.1,0.1-0.3,0.1-0.3c0-0.1,0-0.3,0-0.4c0-0.2,0-0.4,0.1-0.6c0-0.1,0.1-0.2,0.1-0.3c0-0.7,0-1.3,0-2c0-0.1-0.1-0.2-0.1-0.3
		c-0.1-0.2-0.1-0.4-0.1-0.6C101.9,120.7,101.5,120,101,119.3z"/>
	<path class="st0" d="M82.2,33.9c0-1.1,0-2.1,0-3.2h0.2c2.2,0,4.5,0,6.7,0l0.2,0c0,0.7,0,1.3,0,2c-0.4,0-0.9,0-1.3,0
		c0,0.7,0,1.4,0,2.2c2,0,3.9,0,5.9,0c0-0.8,0-1.5,0-2.3c-0.5,0-1-0.1-1.6-0.1c0-0.6,0-1.2,0-1.8c2.3,0,4.5,0,6.8,0
		c0.1,8.5,0,16.9,0,25.4c0,20.5,0,40.9,0,61.4c1,0,1.9,0,2.9,0c0-26.1,0-52.3,0-78.4c0-5.4,0-10.8,0-16.2c-1,0-2,0-3.1,0
		c0,0.9,0,1.9,0,2.8V26c-5.5,0-11.1,0-16.6,0c0-1.1,0-2.2,0-3.4c-1,0-1.9,0-2.9,0c0,3.8,0,7.5,0,11.3C80.3,33.9,81.3,33.9,82.2,33.9
		z"/>
	<path class="st0" d="M96.2,60.6c0-2.1,0-4.2,0-6.3c-0.8,0-1.7,0-2.5,0c0,0.6,0,1.1,0,1.7c-3.8,0-7.6,0-11.4,0c0-0.5,0-1,0-1.5
		c-0.9,0-1.8,0-2.7,0c0,2.6,0,5.2,0,7.8c0.9,0,1.8,0,2.7,0c0-0.6,0-1.1,0-1.7c2.1,0,4.3,0,6.4,0c0.7,0,1.4,0,2,0.1
		c0.9,1,2.1,1.8,2.7,3.1l0.1,0.1c-2,0.1-4.1,0-6.1,0c0,1.6,0,3.2,0,4.7c2.3,0,4.5-0.1,6.8,0l0.1-0.1c0.1,0,0.2-0.1,0.3-0.2
		c0.8-0.3,1.6-1.1,1.7-2.1c0-0.2,0-0.4,0.1-0.6l0.1-0.2l-0.1-0.2c-0.1-0.2-0.1-0.4-0.1-0.6c0-0.5-0.3-1-0.5-1.4
		c-0.6-0.9-1.2-1.7-1.8-2.6c0-0.1-0.1-0.2-0.2-0.2C94.6,60.6,95.4,60.6,96.2,60.6z"/>
	<path class="st0" d="M87.2,80.5c0,1.6,0,3.3,0,4.9c2.2,0,4.4,0,6.6,0c1.1-0.3,2.3-1.2,2.3-2.4c0-0.2,0-0.4,0.1-0.6v-0.1
		c-0.1-0.2-0.1-0.4-0.1-0.7c0-0.1,0-0.3,0-0.3c0-0.1-0.1-0.2-0.1-0.3c-0.5-1.3-1.5-2.3-2.2-3.6l-0.1-0.1c0.8,0,1.6-0.1,2.4-0.1
		c0-2.1,0-4.1,0-6.2c-0.8,0-1.7,0-2.5,0c0,0.6,0,1.2,0,1.8c-3.8,0-7.6,0-11.4,0c0-0.5,0-1.1,0-1.6c-0.9,0-1.8,0-2.7,0
		c0,2.6,0,5.2,0,7.8c0.9,0,1.8,0,2.7,0c0-0.6,0-1.1,0-1.7c2,0,3.9,0,5.9,0c0.8,0,1.7-0.1,2.5,0.1c0.9,0.9,1.9,1.7,2.6,2.7
		c0.1,0.1,0.1,0.3,0.2,0.4C91.3,80.5,89.3,80.5,87.2,80.5z"/>
	<path class="st0" d="M96.4,90.9c0-0.1-0.1-0.2-0.1-0.3c-0.1-0.1-0.2-0.3-0.1-0.5l0-0.2c0-0.1-0.1-0.2-0.1-0.3
		c-0.3-1.1-1.3-2.1-2.4-2.4c-0.1,0-0.3-0.1-0.3-0.1l-0.2,0c-0.2,0-0.4,0-0.6-0.1c-0.1,0-0.2-0.1-0.3-0.1c-0.4,0-0.7,0-1.1,0
		c0,1.6,0,3.1,0,4.7c0.9,0,1.7-0.1,2.6,0.1c0.1,0.1,0.3,0.2,0.4,0.3c0.2,1,0.2,2,0,3c-0.1,0.1-0.2,0.2-0.3,0.3
		c-1.5,0.1-2.9,0-4.4,0.1c0-1.7,0-3.3,0-5c0-0.2,0-0.4-0.1-0.6c0-0.1-0.1-0.2-0.1-0.3c-0.2-1.1-1-2-2-2.4c-1.7,0-3.4,0-5.1,0
		l-0.1,0.1c-0.1,0-0.2,0.1-0.3,0.2c-1,0.4-1.9,1.3-2,2.3c0,0.1-0.1,0.2-0.1,0.3c0,0.1,0,0.2-0.1,0.3c0,3.7,0,7.4,0,11.2c1,0,2,0,3,0
		c0-0.3,0-0.7,0-1l0-0.2c3.5,0,7.1,0,10.6,0c0.2,0,0.4-0.1,0.6-0.2c0.1,0,0.2-0.1,0.3-0.1c1-0.3,1.7-1.2,2-2.2
		c0-0.1,0.1-0.2,0.2-0.3c0-0.1,0-0.2,0-0.3c0-0.2,0-0.3,0.1-0.5c0-0.1,0.1-0.3,0.1-0.4C96.3,94.3,96.3,92.6,96.4,90.9z M87.7,95.4
		c-2.1,0-4.1,0-6.2,0c0-1.1,0-2.1,0-3.2l0.2,0c0-0.3,0.2-0.5,0.4-0.5c0.7-0.2,1.5-0.1,2.2-0.1c0.9,0,1.8-0.1,2.7,0.1
		c0.3,0.1,0.5,0.4,0.4,0.7l0.1,0C87.8,93.4,87.8,94.4,87.7,95.4z"/>
	<path class="st0" d="M96.2,113.8c0-0.3-0.1-0.5-0.3-0.7c-0.2-0.2-0.3-0.4-0.3-0.6c0-0.3-0.3-0.6-0.4-0.9c-0.4-0.6-0.8-1.2-1.2-1.8
		c0-0.1-0.1-0.2-0.2-0.2c0.8,0,1.6,0,2.5,0c0-2.1,0-4.2,0-6.3c-0.8,0-1.7,0-2.5,0c0,0.6,0,1.2,0,1.7c-3.8,0-7.6,0-11.4,0
		c0-0.5,0-1-0.1-1.5c-0.9,0-1.8,0-2.7,0c0,2.6,0,5.2,0,7.8c0.9,0,1.8,0,2.7,0c0-0.6,0-1.1,0-1.7c2.3,0,4.6,0,6.9,0
		c0.5,0,1,0,1.5,0.1c0.9,0.9,1.9,1.7,2.6,2.8c0.1,0.1,0.1,0.3,0.2,0.4c-2,0-4.1,0-6.1,0c0,1.6,0,3.2,0,4.8c2.2,0,4.5,0,6.7,0
		c0.9-0.2,1.7-0.9,2-1.7c0-0.1,0.1-0.3,0.1-0.3l0-0.2c0-0.2,0-0.5,0.1-0.6l0.1-0.2l-0.1-0.2C96.2,114.3,96.1,114.1,96.2,113.8z"/>
	<path class="st0" d="M93.9,120.8l-0.1,0c-3.7,0-7.5,0-11.2,0l-0.1,0c0-0.5,0-1,0-1.5c-0.9,0-1.8,0-2.7,0c0,2.7,0,5.5,0,8.2
		c0.9,0,1.8,0,2.7,0c0-0.6,0-1.1,0-1.7l0.2,0c3.7,0,7.5,0,11.2,0h0.1c0,0.5,0,1,0,1.5c0.8,0,1.6,0,2.4,0c0-2.7,0-5.4,0-8.1
		c-0.8,0-1.6,0-2.4,0C93.9,119.8,93.9,120.3,93.9,120.8z"/>
	<path class="st0" d="M79.4,48.7c0.1,0.1,0.2,0.3,0.1,0.5c0,0.2,0,0.5,0.2,0.7c0,0.1,0.1,0.2,0.1,0.3c0.4,1,1.3,1.7,2.3,2.1
		c0.9,0,1.7,0,2.6,0c0-1.6,0-3.1,0-4.7c-0.8,0-1.5,0-2.3-0.1c-0.3-0.1-0.6-0.3-0.8-0.6c-0.2-1.1-0.2-2.2,0-3.3
		c0.1-0.2,0.3-0.4,0.5-0.5c1.5-0.3,3-0.1,4.4-0.1c0,3.1,0,6.2,0,9.3c2.4,0,4.7,0.1,7.1,0c1.3-0.5,2.3-1.8,2.5-3.2c0-2.6,0-5.1,0-7.7
		l-0.1-0.1C96,41,96,40.8,96,40.7c0-0.2,0-0.4-0.2-0.5c0-0.1-0.1-0.2-0.2-0.3c-0.2-0.8-1.1-1.3-1.8-1.7c-3.7,0-7.3,0-11,0
		c-0.1,0-0.3,0.1-0.4,0.1c-0.1,0-0.2,0.1-0.3,0.1c-1.1,0.2-2,1.2-2.4,2.2c0,0.1-0.1,0.2-0.2,0.3c0,0.1,0,0.2,0,0.3
		c0,0.1-0.1,0.3-0.1,0.3c0,0.1-0.1,0.2-0.1,0.3c0,2.2,0,4.5,0,6.7C79.3,48.5,79.4,48.6,79.4,48.7z M88.3,42.9c1.6,0,3.2,0,4.9,0
		l0,0.1c0.4,0,0.7,0.3,0.9,0.6c0.2,1,0.2,2.1,0,3.1c-0.1,0.2-0.3,0.4-0.5,0.5l0,0.2c-1.7,0-3.5,0-5.2,0
		C88.3,45.9,88.2,44.4,88.3,42.9z"/>
	<path class="st0" d="M2.5,2.1v146H237V2.1H2.5z M235.7,146.7H3.8V3.5h231.8V146.7z"/>
	<path class="st0" d="M231.2,7.9H8.3v134.3h222.9V7.9z M229.8,140.9H9.7V9.3h220.2V140.9z"/>
	<path class="st0" d="M228.2,11c-1.4,0-2.8,0-4.2,0c1.4,1.4,2.8,2.8,4.2,4.2C228.2,13.8,228.2,12.4,228.2,11z"/>
	<path class="st0" d="M228.2,139.2c0-1.4,0-2.8,0-4.2c-1.4,1.4-2.8,2.8-4.2,4.2C225.4,139.2,226.8,139.2,228.2,139.2z"/>
	<path class="st0" d="M11.3,11c0,1.4,0,2.8,0,4.2c1.4-1.4,2.8-2.8,4.2-4.2C14.1,11,12.7,11,11.3,11z"/>
	<path class="st0" d="M11.3,135c0,1.4,0,2.8,0,4.2c1.4,0,2.8,0,4.2,0C14.1,137.8,12.7,136.4,11.3,135z"/>
	<path class="st0" d="M11.5,133.6l5.4,5.4h205.7l5.4-5.4v-117l-5.4-5.4H16.9l-5.4,5.4V133.6z M12.2,16.9l5-5h205.1l5,5v116.4l-5,5
		H17.2l-5-5V16.9z"/>
	<path class="st0" d="M5.5,145c0.1,0.1,0.2,0.1,0.3,0.2c0.1,0,0.2,0.1,0.3,0.1c0.2,0,0.4-0.1,0.6-0.2c0.1-0.1,0.1-0.2,0.2-0.2
		c0-0.1,0.1-0.2,0.1-0.3c0-0.2-0.1-0.4-0.2-0.6c-0.3-0.3-0.8-0.3-1.1,0c-0.1,0.1-0.2,0.3-0.2,0.6c0,0.1,0,0.2,0.1,0.3
		C5.4,144.9,5.5,145,5.5,145z"/>
	<path class="st0" d="M6.1,139.7c0.4,0,0.8-0.3,0.8-0.8c0-0.4-0.3-0.8-0.8-0.8c-0.4,0-0.8,0.3-0.8,0.8
		C5.3,139.4,5.6,139.7,6.1,139.7z"/>
	<circle class="st0" cx="6.1" cy="122.4" r="0.8"/>
	<circle class="st0" cx="6.1" cy="127.9" r="0.8"/>
	<circle class="st0" cx="6.1" cy="27.8" r="0.8"/>
	<circle class="st0" cx="6.1" cy="22.3" r="0.8"/>
	<circle class="st0" cx="6.1" cy="11.2" r="0.8"/>
	<circle class="st0" cx="6.1" cy="133.4" r="0.8"/>
	<circle class="st0" cx="6.1" cy="16.8" r="0.8"/>
	<path class="st0" d="M5.5,6.2c0.1,0.1,0.2,0.1,0.3,0.2c0.1,0,0.2,0.1,0.3,0.1c0.2,0,0.4-0.1,0.6-0.2C6.7,6.2,6.7,6.1,6.8,6
		c0-0.1,0.1-0.2,0.1-0.3c0-0.2-0.1-0.4-0.2-0.5c-0.3-0.3-0.8-0.3-1.1,0c0,0-0.1,0.1-0.1,0.1c0,0,0,0.1-0.1,0.1c0,0,0,0.1,0,0.1
		c0,0,0,0.1,0,0.1c0,0.1,0,0.2,0.1,0.3C5.4,6.1,5.5,6.2,5.5,6.2z"/>
	<circle class="st0" cx="217" cy="5.7" r="0.8"/>
	<circle class="st0" cx="222.5" cy="5.7" r="0.8"/>
	<circle class="st0" cx="211.5" cy="5.7" r="0.8"/>
	<circle class="st0" cx="227.9" cy="5.7" r="0.8"/>
	<circle class="st0" cx="11.6" cy="5.7" r="0.8"/>
	<circle class="st0" cx="17" cy="5.7" r="0.8"/>
	<circle class="st0" cx="28" cy="5.7" r="0.8"/>
	<path class="st0" d="M22.5,6.5c0.4,0,0.8-0.3,0.8-0.8c0-0.4-0.3-0.8-0.8-0.8c-0.4,0-0.8,0.3-0.8,0.8C21.7,6.1,22.1,6.5,22.5,6.5z"
		/>
	<path class="st0" d="M233.1,6.4c0.1,0,0.2,0.1,0.3,0.1c0.2,0,0.4-0.1,0.5-0.2c0.1-0.1,0.1-0.2,0.2-0.3c0-0.1,0.1-0.2,0.1-0.3
		c0,0,0-0.1,0-0.1c0,0,0-0.1,0-0.1c0,0,0-0.1-0.1-0.1c0,0-0.1-0.1-0.1-0.1c-0.2-0.2-0.5-0.3-0.7-0.2c0,0-0.1,0-0.1,0
		c0,0-0.1,0-0.1,0.1c0,0-0.1,0.1-0.1,0.1c0,0-0.1,0.1-0.1,0.1c0,0,0,0.1-0.1,0.1c0,0,0,0.1,0,0.1c0,0,0,0.1,0,0.1
		c0,0.2,0.1,0.4,0.2,0.6C233,6.3,233,6.4,233.1,6.4z"/>
	<circle class="st0" cx="233.4" cy="22.3" r="0.8"/>
	<circle class="st0" cx="233.4" cy="16.8" r="0.8"/>
	<circle class="st0" cx="233.4" cy="27.8" r="0.8"/>
	<circle class="st0" cx="233.4" cy="11.2" r="0.8"/>
	<circle class="st0" cx="233.4" cy="133.4" r="0.8"/>
	<circle class="st0" cx="233.4" cy="122.4" r="0.8"/>
	<path class="st0" d="M233.4,139.7c0.4,0,0.8-0.3,0.8-0.8c0-0.4-0.3-0.8-0.8-0.8c-0.4,0-0.8,0.3-0.8,0.8
		C232.7,139.4,233,139.7,233.4,139.7z"/>
	<circle class="st0" cx="233.4" cy="127.9" r="0.8"/>
	<path class="st0" d="M232.9,145c0.1,0.1,0.3,0.2,0.5,0.2c0.1,0,0.2,0,0.3-0.1c0.1,0,0.2-0.1,0.2-0.2c0.1-0.1,0.1-0.2,0.2-0.2
		c0-0.1,0.1-0.2,0.1-0.3c0-0.2-0.1-0.4-0.2-0.5c0,0-0.1-0.1-0.1-0.1c0,0-0.1,0-0.1-0.1c0,0-0.1,0-0.1,0c-0.1,0-0.2,0-0.3,0
		c0,0-0.1,0-0.1,0c0,0-0.1,0-0.1,0.1c0,0-0.1,0.1-0.1,0.1c-0.1,0.1-0.2,0.3-0.2,0.5c0,0.1,0,0.2,0.1,0.3
		C232.8,144.9,232.8,145,232.9,145z"/>
	<path class="st0" d="M22.5,143.7c-0.4,0-0.8,0.3-0.8,0.8c0,0.4,0.3,0.8,0.8,0.8c0.4,0,0.8-0.3,0.8-0.8
		C23.3,144.1,22.9,143.7,22.5,143.7z"/>
	<circle class="st0" cx="11.6" cy="144.5" r="0.8"/>
	<circle class="st0" cx="28" cy="144.5" r="0.8"/>
	<circle class="st0" cx="17" cy="144.5" r="0.8"/>
	<circle class="st0" cx="211.5" cy="144.5" r="0.8"/>
	<circle class="st0" cx="217" cy="144.5" r="0.8"/>
	<circle class="st0" cx="227.9" cy="144.5" r="0.8"/>
	<circle class="st0" cx="222.5" cy="144.5" r="0.8"/>
</g>
</svg>
