<?xml version="1.0" encoding="utf-8"?>
<!-- Generator: Adobe Illustrator 24.0.2, SVG Export Plug-In . SVG Version: 6.00 Build 0)  -->
<svg version="1.1" id="Слой_1" xmlns="http://www.w3.org/2000/svg" xmlns:xlink="http://www.w3.org/1999/xlink" x="0px" y="0px"
	 viewBox="0 0 238.1 150.2" style="enable-background:new 0 0 238.1 150.2;" xml:space="preserve">
<style type="text/css">
	.st0{fill-rule:evenodd;clip-rule:evenodd;fill:#36362F;}
</style>
<g>
	<path class="st0" d="M170.2,36.1c0,0-9.3-6.4-13-6.4c-3.8,0-13,6.4-13,6.4c-20.7,14.4-37.1,34.5-46.9,58c0,0-2.6,5.8-2.6,8.7
		c0,0.5,0,0.7,0.2,1.1c0.2,0.4,0.4,0.7,0.5,0.9c2,2.2,7.9,4.8,7.9,4.8c16.4,7.2,34.8,11.3,53.8,11.3s37.4-4.2,53.8-11.3
		c0,0,5.8-2.6,7.9-4.8c0.2-0.2,0.4-0.5,0.5-0.9c0.2-0.4,0.2-0.5,0.2-1.1c0-2.9-2.6-8.7-2.6-8.7C207.2,70.6,190.8,50.6,170.2,36.1z
		 M179.1,44.5c6,5,11.6,10.6,16.6,16.6l-16.6,10.1V44.5z M144.8,37c0,0,8.7-6,12.4-6s12.4,6,12.4,6c2.7,1.9,5.1,3.8,7.7,5.8
		l-20.1,12l-20.1-12C139.7,40.8,142.1,39,144.8,37z M135.2,44.5v26.8l-16.6-10.2C123.6,55,129.2,49.4,135.2,44.5z M116,113.4
		c-4.2-1.4-8.2-2.9-12.2-4.8c0,0-5.3-2.2-7.2-4.3c-0.2-0.2-0.4-0.5-0.5-0.7c-0.2-0.4-0.2-0.7-0.2-1.1c0-2.6,2.2-8,2.2-8
		c4.8-11.3,11.1-21.7,18.6-31.2L116,113.4z M135.2,118c-4-0.7-7.7-1.4-11.5-2.4l0.7-42.1l10.8,6.5V118z M171.4,119.1
		c-4.6,0.4-9.5,0.7-14.2,0.7s-9.6-0.4-14.2-0.7V84.8l14.2,8.6l14.2-8.6V119.1z M179.1,118V80.1l10.8-6.5l0.7,42
		C186.8,116.6,183.1,117.3,179.1,118z M191.7,115.2L191,71.7l-12.9,7.7v38.7c-1.9,0.4-3.8,0.7-5.7,0.9V82.8l-15.3,9.3l-15.3-9.3V119
		c-1.9-0.2-3.8-0.5-5.7-0.9V79.4l-12.9-7.7l-0.7,43.6c-1.9-0.5-3.8-1.1-5.5-1.5l0.7-51.8l18.4,11V43.6l20.9,12.5l20.9-12.5v29.3
		l18.4-11l0.7,51.8C195.4,114.2,193.5,114.7,191.7,115.2z M218.2,103.6c-0.2,0.2-0.4,0.5-0.5,0.7c-1.9,2-7.2,4.3-7.2,4.3
		c-4,1.9-8,3.4-12.4,4.8l-0.7-50.1c7.5,9.5,13.9,19.9,18.6,31.2c0,0,2.2,5.5,2.2,8C218.4,102.9,218.4,103.2,218.2,103.6z"/>
	<path class="st0" d="M220.6,92.6c-10.1-24.2-27.1-44.7-48.3-59.5c0,0-10.6-7.5-15.1-7.5c-4.4,0-15.1,7.5-15.1,7.5
		c-21.3,14.8-38.3,35.4-48.3,59.5c0,0-3.3,7.9-3.3,11.8c0,0.4,0,0.9,0.2,1.2c0.2,0.5,0.4,0.9,0.7,1.2c2.7,2.7,10.4,6.2,10.4,6.2
		c17,7.5,35.7,11.8,55.4,11.8s38.4-4.3,55.4-11.8c0,0,7.7-3.4,10.4-6.2c0.4-0.4,0.5-0.7,0.7-1.2c0.2-0.4,0.2-0.9,0.2-1.2
		C223.8,100.5,220.6,92.6,220.6,92.6z M219.4,103.9c-0.2,0.4-0.4,0.7-0.5,0.9c-2,2.2-7.9,4.8-7.9,4.8c-16.4,7.2-34.8,11.3-53.8,11.3
		s-37.4-4.2-53.8-11.3c0,0-5.8-2.6-7.9-4.8c-0.2-0.2-0.4-0.5-0.5-0.9s-0.2-0.5-0.2-1.1c0-2.9,2.6-8.7,2.6-8.7
		c9.7-23.5,26.2-43.6,46.8-58c0,0,9.3-6.4,13-6.4c3.8,0,13,6.4,13,6.4c20.6,14.4,37,34.5,46.8,58c0,0,2.6,5.8,2.6,8.7
		C219.6,103.4,219.6,103.6,219.4,103.9z"/>
	<path class="st0" d="M178.1,72.9V43.6l-20.9,12.5l-20.9-12.5v29.3l-18.4-11l-0.7,51.8c1.7,0.5,3.6,1.1,5.5,1.5l0.7-43.6l12.9,7.7
		V118c1.9,0.4,3.8,0.7,5.7,0.9V82.8l15.3,9.3l15.3-9.3V119c1.9-0.2,3.8-0.5,5.7-0.9V79.4l12.9-7.7l0.7,43.6c1.9-0.5,3.8-1.1,5.5-1.5
		L196.5,62L178.1,72.9z M172.4,76.3l-15.3,9.3l-15.3-9.3V53.5l15.3,9.1l15.3-9.1V76.3z"/>
</g>
</svg>
