<?xml version="1.0" encoding="utf-8"?>
<!-- Generator: Adobe Illustrator 26.0.3, SVG Export Plug-In . SVG Version: 6.00 Build 0)  -->
<svg version="1.1" id="Слой_17" xmlns="http://www.w3.org/2000/svg" xmlns:xlink="http://www.w3.org/1999/xlink" x="0px"
	 y="0px" viewBox="0 0 239.5 150.2" style="enable-background:new 0 0 239.5 150.2;" xml:space="preserve">
<g>
	<path d="M151.1,77c-1.1,0-2,0-3,0c-0.1,0-0.3-0.2-0.4-0.4c-0.8-1.4-1.5-2.9-1.9-4.4c-0.1-0.2-0.1-0.4-0.3-0.5
		c-0.1,0.2-0.1,0.5-0.2,0.7c-0.6,1.4-1.2,2.8-1.9,4.2c-0.1,0.3-0.3,0.4-0.7,0.4c-0.9,0-1.7,0-2.7,0c1.7-2.7,3.2-5.4,3.9-8.5
		c0.7-3,0.8-6.1,0.7-9.2c-1.3,0.4-2.4,1.2-3.8,1.5c1.1-1.4,2.6-2.6,3.2-4.3c0.6-1.7,1-3.4,1.5-5.2c0.1,0.2,0.1,0.4,0.2,0.5
		c0.2,1,0.4,2,0.7,2.9c0.4,1.7,1.3,3.2,2.6,4.5c0.4,0.4,0.9,0.9,1.3,1.4c0,0,0,0.1-0.1,0.1c-0.2,0-0.4,0-0.6-0.1
		c-0.8-0.4-1.7-0.8-2.5-1.1c-0.2-0.1-0.4-0.2-0.6-0.3c-0.2,3.2,0,6.2,0.7,9.3C147.9,71.6,149.3,74.3,151.1,77z"/>
	<path d="M132.9,63.4c2.6,4.2,3.7,8.8,4.1,13.6c-1,0-1.9,0-2.8,0c-0.2-3.1-0.5-6.1-1.3-9.1c-0.8-3-2.3-5.6-4.1-8.1
		c1.9-0.5,6.8,2.7,7.6,4.7C135.2,64,134.2,63.4,132.9,63.4z"/>
	<path d="M157.1,77c-1,0-1.9,0-2.8,0c0.4-4.8,1.5-9.4,4.1-13.6c-1.3,0-2.3,0.6-3.4,1.2c0.4-1.9,5.5-5.2,7.5-4.8
		c-0.2,0.4-0.4,0.7-0.6,1c-1.6,2.2-2.8,4.6-3.5,7.3c-0.6,2.3-0.9,4.7-1.1,7.1C157.2,75.8,157.1,76.4,157.1,77z"/>
	<path d="M152.1,83.2c-2.5,0.4-3.7,1.9-3.8,4.3c-1.8,0-3.6,0-5.5,0c-0.1-2.4-1.3-4-3.9-4.3c0,0,0.1-0.1,0.1-0.1c4.3,0,8.6,0,12.9,0
		C152.1,83.1,152.1,83.2,152.1,83.2z"/>
	<path d="M142.8,91c1.9,0,3.8,0,5.7,0c0,1.3,0,2.6,0,3.9c-1.9,0-3.8,0-5.7,0C142.8,93.6,142.8,92.3,142.8,91z"/>
	<path d="M158.2,77.8c0,0.3,0,0.6,0,0.9c-8.4,0-16.9,0-25.3,0c0-0.3,0-0.6,0-0.9C141.4,77.8,149.8,77.8,158.2,77.8z"/>
	<path d="M158.3,81.3c0,0.3,0,0.6,0,0.9c-8.4,0-16.8,0-25.3,0c0-0.3,0-0.5,0-0.9C141.4,81.3,149.8,81.3,158.3,81.3z"/>
	<path d="M134.2,80.4c0-0.3,0-0.6,0-0.9c7.6,0,15.2,0,22.9,0c0,0.3,0,0.5,0,0.9C149.4,80.4,141.8,80.4,134.2,80.4z"/>
	<path d="M141.8,88.3c2.6,0,5.1,0,7.6,0c0,0.6,0,1.2,0,1.8c-2.5,0-5.1,0-7.6,0C141.8,89.6,141.8,89,141.8,88.3z"/>
	<path d="M137,83.1c0.1,1.5-1.1,2.3-2.7,1.9c0-0.6,0-1.3,0-1.9C135.2,83.1,136.1,83.1,137,83.1z"/>
	<path d="M157,85c-1.7,0.4-2.7-0.4-2.7-1.9c0.9,0,1.8,0,2.7,0C157,83.7,157,84.4,157,85z"/>
</g>
</svg>
