<?xml version="1.0" encoding="utf-8"?>
<!-- Generator: Adobe Illustrator 24.0.2, SVG Export Plug-In . SVG Version: 6.00 Build 0)  -->
<svg version="1.1" id="Слой_1" xmlns="http://www.w3.org/2000/svg" xmlns:xlink="http://www.w3.org/1999/xlink" x="0px" y="0px"
	 viewBox="0 0 238.1 150.2" style="enable-background:new 0 0 238.1 150.2;" xml:space="preserve">
<g>
	<path d="M226.7,133.5c-2.1,4.1-5.6,5.7-10.1,5.7c-22.1,0-44.1,0-66.2,0c-1.8,0-3.7-0.2-5.5-0.6c-5.7-1.3-8.9-5.3-9-11.2
		c-0.1-3.5,0-6.9,0-10.4c0-0.6,0-1.2,0-2.1c-5.4,3.3-10.5,6.5-15.8,9.8c6.5,4.9,12.8,9.6,19,14.3c0,0.1-0.1,0.2-0.1,0.4
		c-2.7,0-5.4-0.3-8.1,0.1c-4.7,0.6-8.5-0.9-11.9-4c-1.9-1.7-4.1-3-6.2-4.6c-0.9-0.7-1.5-0.6-2.3,0c-3.9,2.6-7.8,5.1-11.7,7.6
		c-0.9,0.5-2,0.9-3,0.9c-23.2,0-46.4,0.1-69.6,0c-2,0-4.1-0.2-6-0.7c-4.5-1.1-7.5-3.8-8.5-8.5c-0.1-0.3-0.2-0.5-0.3-0.8
		c0-5.7,0-11.5,0-17.2c3.4,0,6.8,0,10.3,0c0,0.8,0.1,1.3,0.1,1.9c0,4.7,0,9.5,0,14.2c0,3.7,1.5,5.4,5.2,5.4c6.9,0.1,13.9,0.1,20.8,0
		c0.4,0,1-0.3,1.3-0.6c1.6-2.3,3.1-4.6,4.7-6.9c-1.7,0-3.6,0-6,0c0.4-1.3,0.6-2.3,1-3.3c3.2-7.3,9.2-10.5,16.9-10.6
		c12-0.1,24-0.1,36.1,0c0.8,0,1.6,0.4,2.3,0.8c3.4,2.4,6.7,4.8,10.1,7.2c1,0.7,1.7,0.9,2.8,0.1c3.8-2.5,7.8-5,11.7-7.3
		c0.8-0.5,1.9-0.8,2.8-0.8c4.8-0.1,9.6,0,14.6,0c0,0.7,0.1,1.3,0.1,2c0,4.5,0,9.1,0,13.6c0,4.3,1.5,5.9,5.8,5.9
		c5.7,0.1,11.3,0,17.3,0c0-7.2,0-14.3,0-21.4c3.5,0,6.7,0,10.1,0c0,7.1,0,14.2,0,21.4c0.8,0,1.3,0.1,1.8,0.1c10.2,0,20.5,0,30.7,0
		c0.8,0,1.6-0.1,2.3-0.2c1.2-0.3,1.9-1,1.9-2.3c0-1.3-0.6-2.2-1.8-2.5c-0.8-0.2-1.6-0.3-2.5-0.3c-9.3,0-18.5,0-27.8,0
		c-0.6,0-1.2,0-2.1,0c0.1-1.2,0.2-2.2,0.4-3.2c1.7-7.7,8.1-12.9,15.9-12.9c8.2,0,16.4,0,24.6,0c0.5,0,1.1,0,1.7,0c0,1.8,0,3.5,0,5.4
		c-0.6,0-1.3,0.1-1.9,0.1c-7.4,0-14.8,0-22.3,0c-3.9,0-5.9,1.5-6.8,5c0.7,0,1.3,0.1,1.9,0.1c6.9,0,13.8,0,20.6,0
		c1.7,0,3.4,0.2,5,0.6c2.7,0.6,4.7,2.3,5.8,4.9C226.7,129.9,226.7,131.7,226.7,133.5z M89.1,128.1c-0.8,0-1.5,0-2.2,0
		c-6.5,0-13,0-19.6,0c-3.5,0-6.1,2.3-6.2,5.3c0.2,0,0.5,0.1,0.7,0.1c11,0,22,0,33,0c0.4,0,0.9,0,1.2-0.2c3.6-2.2,7.2-4.5,11-6.9
		c-5.3-3.9-10.4-7.6-15.7-11.5c-0.1,0.9-0.2,1.6-0.3,2.4c-0.6,0-1.2,0-1.8,0c-7,0-14,0-21,0c-1.1,0-2.3,0.1-3.4,0.4
		c-2.2,0.7-3.9,2-4.3,4.7c9.5,0,18.9,0,28.4,0C89.1,124.5,89.1,126.2,89.1,128.1z"/>
	<path d="M155.4,89.1c-1.9,1.5-3.7,3.1-5.7,4.4c-6.4,4.2-13.4,6.4-20.9,7.4c-10.1,1.3-20.1,0.7-29.6-3.1
		c-6.6-2.7-12.3-6.7-16.2-12.8c-6.6-10.3-5.2-22.9,3.3-32.2c5-5.4,11.1-9,18.1-10.8c10-2.5,20.1-2.9,30.2-0.9
		c3.4,0.7,3.8,1.8,1.7,4.6c-6.6,9.1-13.2,18.2-19.7,27.3c-0.7,1-1.3,2.2-1.7,3.3c-0.6,1.7,0.2,2.9,2,3.2c0.8,0.1,1.5,0.2,2.3,0.2
		c10.9,0,21.9-0.1,32.8-0.1c1.7,0,2.6-0.8,3.1-2.3c3.4-9.3,0.1-20.5-8.4-26.9c-2.5-1.9-5.4-3.5-8.3-5.3c0.6-0.8,1.3-1.6,2-2.6
		c10.5,4.6,19.1,11,21.8,22.8c1.6,6.9,0.2,13.4-3.7,19.4c-0.9,1.3-2,1.9-3.6,1.9c-12.3,0.1-24.6,0.3-37,0.3c-3.5,0-7.1-0.3-10.5-1
		c-5.7-1.3-8-5.7-5.5-11c1.7-3.7,3.9-7.1,6.2-10.5c4.3-6.2,8.9-12.1,13.4-18.2c0.5-0.6,0.6-1.5,0.9-2.2c-0.8-0.2-1.6-0.7-2.4-0.7
		c-9.8,0.1-18.7,2.9-26.2,9.6c-12.8,11.5-11,30,3.6,39c5.3,3.3,11.1,5,17.3,5.5c10.3,0.9,20.3-0.3,29.5-5.5c0.5-0.3,1-0.6,1.5-0.9
		C149.9,88.3,150,88.3,155.4,89.1z"/>
</g>
</svg>
