<?xml version="1.0" encoding="utf-8"?>
<!-- Generator: Adobe Illustrator 23.0.1, SVG Export Plug-In . SVG Version: 6.00 Build 0)  -->
<svg version="1.1" id="Слой_1" xmlns="http://www.w3.org/2000/svg" xmlns:xlink="http://www.w3.org/1999/xlink" x="0px" y="0px"
	 viewBox="0 0 238.1 150.2" style="enable-background:new 0 0 238.1 150.2;" xml:space="preserve">
<style type="text/css">
	.st0{fill:#020202;}
</style>
<g>
	<g>
		<g>
			<path d="M180.5,88c3.6-0.7,7.2-1.4,10.8-2c0.1,0,0.2,0,0.3,0.1c0.2,0,0.4,0.1,0.7,0.1c0.4,0.1,0.9,0.2,1.3,0.2
				c1.9,0.4,3.8,0.7,5.7,1.1c1,0.2,2,0.4,2.9,0.6c0,2.8,0,5.7,0,8.5c0,0.3,0,0.6-0.1,0.9c0,0.2,0,0.3,0,0.5
				c-0.1,1.5-0.5,3.1-0.9,4.5c-0.8,2.8-2.1,5.4-3.9,7.7c-1.6,2-3.5,3.8-5.6,5.1c-0.1,0.1-0.2,0.2-0.4,0.2c-0.4-0.3-0.8-0.5-1.3-0.8
				c-2.5-1.8-4.6-4.1-6.2-6.7c-0.3-0.4-0.5-0.9-0.7-1.3c-0.8-1.5-1.4-3.1-1.8-4.7c-0.3-1-0.5-2.1-0.6-3.2c-0.1-0.6-0.1-1.1-0.2-1.7
				c0-0.2,0-0.4,0-0.7C180.5,93.5,180.5,90.8,180.5,88z M185.9,88.3c-0.6,0.1-1.2,0.2-1.8,0.3c-0.1,0-0.1,0-0.2,0
				c-0.2,0.1-0.5,0.1-0.7,0.1c-0.2,0-0.4,0.1-0.6,0.1c-0.1,0-0.1,0-0.2,0c-0.1,0-0.2,0-0.3,0.1c-0.1,0-0.1,0-0.2,0
				c-0.1,0-0.1,0-0.2,0c0,0.4,0,0.8,0,1.2c0.8-0.1,1.6-0.3,2.4-0.4c0.4-0.1,0.7-0.1,1.1-0.2c0.2-0.1,0.5-0.1,0.7-0.1
				c0.2,0,0.4-0.1,0.6-0.1c0.1,0,0.1,0,0.2,0c0.2,0,0.3-0.1,0.5-0.1c0.1,0,0.1,0,0.2,0c0.2,0,0.3-0.1,0.5-0.1c0.1,0,0.1,0,0.2,0
				c0.1,0,0.1,0,0.2,0c0.1,0,0.2,0,0.2-0.1c0.1,0,0.1,0,0.2,0c0.2,0,0.3-0.1,0.5-0.1c0.1,0,0.1,0,0.2,0c0.1,0,0.1,0,0.2,0
				c0.1,0,0.2,0,0.3-0.1c0.1,0,0.1,0,0.2,0c0.2,0,0.3,0,0.5-0.1c0.2,0,0.4-0.1,0.7-0.1c0.2,0,0.4,0.1,0.5,0.1c0.1,0,0.2,0,0.2,0
				c0.1,0,0.1,0,0.2,0c0.1,0,0.1,0,0.2,0c0.2,0,0.3,0.1,0.5,0.1c0.1,0,0.1,0,0.2,0c0.2,0,0.3,0.1,0.5,0.1c0.2,0,0.3,0.1,0.5,0.1
				c0.1,0,0.1,0,0.2,0c0.1,0,0.1,0,0.2,0c0.2,0,0.4,0.1,0.7,0.1c0.1,0,0.2,0,0.3,0.1c0.1,0,0.1,0,0.2,0c0.2,0,0.3,0.1,0.5,0.1
				c0.1,0,0.1,0,0.2,0c0.1,0,0.1,0,0.2,0c0.1,0,0.2,0,0.2,0c0.1,0,0.1,0,0.2,0c0.4,0.1,0.9,0.2,1.3,0.2c0.9,0.2,1.8,0.3,2.7,0.5
				c0-0.4,0-0.8,0-1.2c-0.1,0-0.1,0-0.2,0c-0.1,0-0.3-0.1-0.4-0.1c-0.2,0-0.3-0.1-0.5-0.1c-0.1,0-0.1,0-0.2,0
				c-0.2,0-0.3-0.1-0.5-0.1c-0.1,0-0.1,0-0.2,0c-0.1,0-0.1,0-0.2,0c-0.1,0-0.2,0-0.2,0c-0.1,0-0.1,0-0.2,0c-2.2-0.4-4.4-0.8-6.7-1.2
				c-0.1,0-0.2-0.1-0.4,0C189.5,87.6,187.7,87.9,185.9,88.3z M181.8,91.6c0,0.5,0,1,0,1.5c0.1,0,0.2-0.1,0.3-0.1
				c0.1,0,0.2-0.1,0.4-0.1c0,0,0.1,0,0.1,0c0,0,0.1,0,0.1,0c0.1,0,0.1,0,0.2-0.1c0.1,0,0.2,0,0.3-0.1c0.1,0,0.2-0.1,0.3-0.1
				c0.1,0,0.3-0.1,0.4-0.1c0.4-0.1,0.7-0.2,1.1-0.3c4.6-1,9.5-0.9,14.1,0.3c0.1,0,0.1,0,0.2,0c0.1,0,0.2,0.1,0.3,0.1
				c0,0,0.1,0,0.1,0c0.1,0,0.1,0,0.2,0c0.1,0,0.3,0.1,0.4,0.1c0,0,0.1,0,0.1,0c0,0,0.1,0,0.1,0c0.1,0,0.1,0,0.2,0.1c0,0,0.1,0,0.1,0
				c0.1,0,0.2,0.1,0.3,0.1c0-0.5,0-1,0-1.5c-2.8-0.5-5.7-1.1-8.5-1.6c-0.2-0.1-0.5-0.1-0.7-0.1c-0.2,0-0.3-0.1-0.5,0
				C188.1,90.4,184.9,91,181.8,91.6z M189.8,92.9c-0.2,0-0.5,0-0.7,0.1c-0.3,0-0.6,0-0.9,0.1c-0.1,0-0.2,0-0.3,0
				c-0.1,0-0.3,0-0.4,0.1c-0.1,0-0.2,0-0.3,0c-0.1,0-0.2,0-0.3,0.1c-0.2,0-0.3,0-0.5,0.1c-0.2,0-0.3,0.1-0.5,0.1
				c-1.4,0.3-2.8,0.6-4.2,1.1c0,0.7,0,1.4,0,2.1c0,0.8,0.1,1.7,0.3,2.5c0.3,1.8,0.8,3.5,1.5,5.2c0,0.1,0.1,0.2,0.1,0.2
				c0.1,0.3,0.2,0.5,0.3,0.8c1.6,3.5,4.2,6.5,7.4,8.6c0.1-0.1,0.2-0.1,0.3-0.2c0.6-0.4,1.2-0.9,1.8-1.4c2.2-1.9,3.9-4.2,5.2-6.8
				c0.1-0.2,0.2-0.3,0.2-0.5c0.1-0.1,0.1-0.2,0.2-0.4c0.1-0.2,0.1-0.3,0.2-0.5c0.1-0.1,0.1-0.3,0.2-0.4c0-0.1,0.1-0.2,0.1-0.3
				c0.7-1.9,1.2-3.9,1.3-5.9c0.1-1,0.1-2,0.1-3.1c-1.5-0.5-3-0.9-4.5-1.2c-0.1,0-0.2,0-0.2,0c-0.2,0-0.3-0.1-0.5-0.1
				c-0.2,0-0.4-0.1-0.6-0.1c-0.2,0-0.5-0.1-0.7-0.1c-0.1,0-0.3,0-0.4,0c-0.4,0-0.7-0.1-1.1-0.1c-0.1,0-0.2,0-0.3,0
				C191.7,92.8,190.8,92.8,189.8,92.9z"/>
		</g>
		<path d="M191.6,95C191.6,95,191.7,95,191.6,95c0.1,0.2,0.2,0.4,0.3,0.5c0.1,0.1,0.2,0.1,0.3,0.2c0.2,0.2,0.3,0.3,0.6,0.4
			c0.2,0.1,0.3,0.1,0.5,0.1c-0.1,0.1-0.3,0.2-0.5,0.3c0,0-0.1,0-0.1,0c0.3,0.2,0.6,0.4,0.9,0.6c-0.3,0.1-0.6,0-0.9,0
			c0.4,0.3,0.9,0.5,1.2,1c-0.3-0.2-0.7-0.2-1.1-0.2c0.3,0.4,0.7,0.7,1.1,0.8c-0.4,0.1-0.7,0.1-1.1,0c0.1,0.3,0.4,0.5,0.7,0.6
			c0.1,0,0.2,0.1,0.3,0.2c-0.4,0-0.8,0-1.1-0.1c0.3,0.4,0.7,0.7,1.1,0.9c0,0,0,0,0,0.1c-0.2,0-0.3,0-0.5,0c-0.1,0-0.1,0-0.2,0
			c-0.1,0-0.2,0-0.3-0.1c0,0-0.1,0-0.1,0c0,0-0.1,0-0.1,0c0.2,0.2,0.5,0.4,0.7,0.6c-0.1,0-0.2,0-0.4,0c0,0,0,0,0,0
			c-0.2,0-0.4-0.1-0.5-0.2c-0.1,0.4,0.2,0.8,0.4,1c0.3,0.3,0.7,0.5,1,0.7c0.4,0.3,0.9,0.7,1,1.3c0,0.1,0,0.2,0,0.3
			c0.1,0,0.1,0,0.2,0c0.1-0.1,0.1-0.2,0.2-0.3c0-0.1,0-0.1,0.1-0.2c0.1-0.7,0.1-1.4,0.1-2.1c0-0.1,0-0.2,0-0.4c0-0.1,0-0.1,0-0.2
			c0-0.1,0.1-0.2,0.1-0.2c0.1-0.2,0.2-0.4,0.5-0.5c0,0,0,0,0,0.1c-0.1,0.3-0.2,0.5-0.2,0.8c0,0.1,0,0.3,0.1,0.4
			c0.1-0.3,0.3-0.6,0.6-0.8c0,0,0.1-0.1,0.2-0.1c-0.1,0.2-0.2,0.5-0.3,0.8l0,0c-0.1,0.3-0.1,0.5-0.1,0.8c0,0.1,0.1,0.1,0.1,0
			c0.1-0.1,0.3-0.2,0.4-0.3c0,0.4-0.1,0.7-0.1,1.1c-0.1,0.4-0.1,0.8-0.3,1.1c-0.1,0.2-0.3,0.4-0.6,0.5c-0.1,0-0.3,0.1-0.4,0.1
			c-0.2,0-0.3,0-0.5,0c-0.3,0.4-0.6,0.7-1,0.9c-0.2,0.2-0.5,0.3-0.6,0.6c0,0.2-0.1,0.4,0,0.5c0.1,0.2,0.2,0.3,0.3,0.5
			c-0.3,0.3-0.5,0.7-0.6,1.1c-0.1,0.1,0,0.3-0.2,0.3c-0.1,0.1-0.2,0-0.2,0c0,0-0.1,0-0.1,0c0,0.1,0,0.4-0.2,0.4
			c-0.4,0.1-0.8,0-1.2,0c0.1-0.3,0.4-0.6,0.7-0.8c0,0,0.1-0.1,0.1-0.1c0-0.1,0-0.2,0-0.2c0.2-0.2,0.3-0.4,0.4-0.7
			c0-0.1,0.1-0.2,0.1-0.3c0-0.2-0.1-0.3-0.1-0.5c-0.1-0.1-0.1-0.3-0.2-0.4c0-0.1-0.1-0.1-0.1-0.2c0-0.1-0.1-0.2-0.1-0.3
			c0-0.1-0.1-0.2-0.1-0.4c0-0.2,0-0.4,0-0.7c0-0.1,0.1-0.2,0.1-0.3c0.2-0.3,0.5-0.5,0.8-0.6l0,0c0.1,0,0.1,0,0.2,0
			c-0.1,0-0.3,0-0.4,0c-0.2,0.1-0.4,0.2-0.6,0.4c0,0.1-0.1,0-0.1,0c-0.8-0.5-1.5-1.2-2-2c-0.4,0-0.7,0-1.1,0c0,0.1,0,0.2,0.1,0.3
			c0.1,0.2,0.1,0.5,0.2,0.7c0,0.1,0,0.2,0,0.3c0.1,0.1,0.3,0.1,0.4,0.2c0.1,0.1,0,0.2,0,0.3c-0.1,0.3-0.3,0.5-0.5,0.8
			c-0.2-0.3-0.3-0.6-0.4-0.9c0-0.1-0.2-0.1-0.3-0.3c-0.1-0.1-0.1-0.3-0.1-0.4c0-0.1-0.1-0.2-0.1-0.3c0-0.2-0.1-0.3-0.1-0.5
			c0-0.1,0-0.2,0-0.3c-0.1-0.2,0-0.3,0-0.5c0-0.1,0.1-0.2,0.2-0.2c0.3,0,0.5-0.1,0.8-0.1c0,0,0.1,0,0.1,0c0.3-0.1,0.7-0.3,1-0.5
			c0.4-0.2,0.5-0.7,0.7-1.1c0.1-0.4,0.3-0.8,0.4-1.3l0,0c0-0.1,0-0.1,0-0.2c0.2,0,0.4,0,0.6-0.2c0.1-0.1,0.2-0.2,0.2-0.4
			c0,0,0-0.1,0-0.1c0-0.1,0-0.2,0-0.3c0,0,0,0.1,0,0.1c-0.1,0.2-0.3,0.4-0.5,0.5c-0.2,0.1-0.4,0-0.6,0c-0.1,0-0.2-0.1-0.3-0.1
			c-0.1-0.1-0.3-0.1-0.4-0.1c-0.2,0-0.4,0.2-0.7,0.2c-0.2,0-0.3-0.1-0.4-0.3c-0.1-0.3,0-0.6,0.3-0.7c0.1-0.1,0.3,0,0.4-0.1
			c0.3,0,0.5-0.1,0.8-0.2c0.2-0.1,0.2-0.2,0.3-0.3c0.1-0.1,0.2-0.2,0.4-0.2c0.1,0,0.3,0,0.4-0.1c0-0.1,0-0.2,0-0.3
			C191.5,95.2,191.6,95.1,191.6,95z"/>
		<path d="M188.5,98.3c0.1-0.1,0.3,0,0.4,0.1c0.4,0.3,0.7,0.7,1,1.1c-0.2,0.3-0.4,0.5-0.6,0.7c-0.2-0.3-0.5-0.6-0.7-0.9
			c-0.2,0.2-0.5,0.4-0.7,0.7c-0.1,0.1-0.2,0.1-0.3,0.1c0,0,0,0.1,0,0.1c0,0.1-0.1,0.2-0.1,0.3c0,0.1-0.1,0.1-0.1,0.2
			c-0.1,0.1-0.3,0-0.5,0c-0.2-0.1-0.4-0.2-0.6-0.3c0.2-0.3,0.5-0.5,0.8-0.6c0-0.1,0.1-0.3,0.2-0.4C187.7,99,188.1,98.6,188.5,98.3z"
			/>
		<path d="M190.8,103.9c0.2,0.1,0.3,0.3,0.5,0.4c0,0.1,0,0.1,0,0.2c0,0.1,0,0.2,0,0.2c0,0.2,0,0.3,0,0.5c0,0.1,0,0.3,0.1,0.4
			c0,0.1,0.1,0.2,0.1,0.3c0.1,0.1,0.1,0.2,0.2,0.3c0,0,0,0.1,0,0.1c0,0.1-0.1,0.2-0.1,0.3c-0.5,0-1.1,0.1-1.5,0.5
			c-0.1,0-0.2,0-0.2,0c-0.1-0.1-0.1-0.2-0.2-0.3c-0.1,0.1-0.2,0.2-0.3,0.2c-0.1,0-0.2,0-0.3-0.1c-0.3-0.2-0.5-0.5-0.7-0.7
			c0.3-0.3,0.8-0.3,1.2-0.2c0,0,0-0.1,0.1-0.1c0.2-0.1,0.4,0,0.6,0.1c0.2,0,0.4,0,0.6-0.1c0,0,0-0.1,0-0.1c0-0.3,0-0.6,0-0.8
			c0-0.2,0-0.3,0-0.5C190.8,104.1,190.8,104,190.8,103.9z"/>
	</g>
	<g>
		<path class="st0" d="M170,118.7c0-0.4,0-0.9,0-1.3c12.9,0,25.9,0,38.8,0c0,0.4,0,0.9,0,1.4c-11.8,0-23.6,0-35.4,0
			c0,0.9,0,1.8,0,2.7c0.2,0,0.4,0,0.7,0c0-0.2,0-0.4,0-0.6c0.3,0,0.7,0,1,0c0,0.8,0,1.7,0,2.5c-0.3,0-0.7,0-1,0c0-0.2,0-0.4,0-0.6
			c-0.2,0-0.5,0-0.7,0c0,0.9,0,1.9,0,2.8c0.5,0,0.9,0,1.4,0c0,0.4,0,0.9,0,1.3c-1.6,0-3.2,0-4.8,0c0-0.4,0-0.9,0-1.3
			c0.5,0,0.9,0,1.4,0c0-2.2,0-4.5,0-6.7C171,118.7,170.5,118.7,170,118.7z"/>
		<path class="st0" d="M209.7,117.6c0.5-0.2,1.1-0.2,1.7-0.2c0.4,0,0.7,0.1,1,0.3c0.1,0.1,0.2,0.3,0.2,0.4c-0.1,0.3-0.4,0.4-0.7,0.5
			c-0.1,0-0.2,0-0.3,0.1c-0.1,0-0.3,0-0.4,0c-0.2,0-0.4,0-0.7,0c-0.1,0-0.2,0-0.3,0c-0.3-0.1-0.6-0.1-0.8-0.3
			c-0.1-0.1-0.3-0.3-0.2-0.4C209.3,117.8,209.5,117.7,209.7,117.6z"/>
		<g>
			<path class="st0" d="M177.3,119.7c0.1,0,0.1,0,0.2,0c0.9,0,1.7,0,2.6,0c0.1,0,0.3,0,0.4,0c0.4,0.1,0.8,0.3,1,0.6
				c0.1,0.2,0.2,0.4,0.2,0.6c0,0.9,0,1.9,0,2.8c-1.3,0-2.5,0-3.8,0c0,0.5,0,1,0,1.6c0,0.1,0,0.2,0.1,0.3c0.1,0.1,0.2,0.2,0.4,0.1
				c0.4,0,0.8,0,1.1,0c0.1,0,0.2-0.2,0.2-0.3c0-0.3,0-0.7,0-1c0.7,0,1.3,0,2,0c0,0.3,0,0.6,0,0.9c0,0.4-0.2,0.8-0.6,1.1
				c-0.2,0.1-0.4,0.2-0.6,0.3c-0.2,0-0.4,0.1-0.6,0.1c-0.8,0-1.7,0-2.5,0c-0.2,0-0.4,0-0.6-0.1c0,0-0.1,0-0.1,0
				c-0.1,0-0.1-0.1-0.2-0.1c0,0-0.1,0-0.1,0c-0.3-0.2-0.5-0.5-0.6-0.8c0-0.1,0-0.1,0-0.2c-0.1-0.6,0-1.2,0-1.8c0-0.1,0-0.3,0-0.4
				c0-0.1,0-0.1,0-0.2c0-0.5,0-1.1,0-1.6c0-0.2,0-0.5,0-0.7c0.1-0.6,0.7-1,1.2-1.1C177.2,119.7,177.3,119.7,177.3,119.7z
				 M177.9,120.9c0,0.2,0,0.3,0,0.5c0,0.5,0,1.1,0,1.6c0.6,0,1.2,0,1.8,0c0-0.7,0-1.3,0-2c0-0.1-0.1-0.3-0.2-0.3c-0.4,0-0.8,0-1.2,0
				C178,120.7,177.9,120.8,177.9,120.9z"/>
		</g>
		<path class="st0" d="M182.4,119.7c0.9,0,1.7,0,2.6,0c0,0.3,0,0.7,0,1c0.4-0.5,1-0.8,1.6-1c0.1,0,0.2,0,0.2,0c0.1,0,0.2,0,0.3,0
			c0.1,0,0.2,0,0.4,0.1c0.3,0.1,0.5,0.3,0.6,0.6c0.1,0.1,0,0.2,0.1,0.3c0,0.9,0,1.9,0,2.8c-0.7,0-1.4,0-2,0c0-0.7,0-1.5,0-2.2
			c0-0.1,0-0.1,0-0.2c0-0.1-0.1-0.1-0.2-0.1c-0.4,0.2-0.7,0.6-1,1c-0.1,0.1-0.1,0.2-0.1,0.4c0,1,0,2,0,3c0.2,0,0.4,0,0.6,0
			c0,0.4,0,0.9,0,1.3c-1.1,0-2.2,0-3.3,0c0-0.4,0-0.9,0-1.3c0.2,0,0.4,0,0.7,0c0-1.5,0-3.1,0-4.6c-0.2,0-0.4,0-0.7,0
			C182.4,120.5,182.4,120.1,182.4,119.7z"/>
		<path class="st0" d="M188.9,120.9c0-0.4,0-0.8,0-1.2c0.9,0,1.8,0,2.6,0c0,0.3,0,0.7,0,1c0.4-0.5,1-0.8,1.6-1c0.1,0,0.2,0,0.2,0
			c0.1,0,0.2,0,0.3,0c0.2,0,0.3,0,0.5,0.1c0.3,0.2,0.6,0.5,0.6,0.9c0,0.1,0,0.2,0,0.3c0,0.8,0,1.7,0,2.5c-0.7,0-1.4,0-2.1,0
			c0-0.7,0-1.4,0-2.1c0-0.1,0-0.3,0-0.4c-0.2,0-0.4,0.1-0.5,0.3c-0.3,0.2-0.5,0.5-0.7,0.8c0,1.1,0,2.2,0,3.3c0.2,0,0.4,0,0.6,0
			c0,0.4,0,0.9,0,1.3c-1.1,0-2.2,0-3.3,0c0-0.4,0-0.9,0-1.3c0.2,0,0.5,0,0.7,0c0-1.5,0-3.1,0-4.6
			C189.4,120.9,189.2,120.9,188.9,120.9z"/>
		<g>
			<path class="st0" d="M196.7,119.8c0.1,0,0.2,0,0.3,0c0.9,0,1.7,0,2.6,0c0.1,0,0.2,0,0.3,0.1c0.4,0.1,0.7,0.3,0.9,0.6
				c0.2,0.4,0.2,0.8,0.2,1.2c0,1.3,0,2.6,0,3.9c0.2,0,0.3,0,0.5,0c0,0.4,0,0.9,0,1.3c-1.2,0-2.4,0-3.6,0c-0.4,0-0.8,0-1.1,0
				c-0.1,0-0.1,0-0.2-0.1c0,0-0.1,0-0.1,0c-0.1,0-0.2-0.1-0.3-0.2c-0.2-0.2-0.4-0.4-0.5-0.7c0-0.1-0.1-0.3-0.1-0.4c0-0.5,0-1,0-1.5
				c0-0.1,0-0.2,0-0.4c0-0.2,0.1-0.3,0.1-0.5c0.1-0.2,0.3-0.4,0.6-0.4c0.1,0,0.2-0.1,0.4-0.1c0.4,0,0.8,0,1.2,0c0.4,0,0.7,0,1.1,0
				l0,0l0,0c0-0.2,0-0.4,0-0.6c0-0.3,0-0.6,0-0.9c0,0,0-0.1,0-0.1c-0.1-0.1-0.1-0.2-0.3-0.2c-0.3,0-0.6,0-0.9,0
				c-0.1,0-0.3,0.2-0.3,0.3c0,0.3,0,0.6,0,0.9c-0.7,0-1.4,0-2,0c0-0.3,0-0.7,0-1c0-0.3,0.1-0.6,0.3-0.8
				C196.1,119.9,196.4,119.8,196.7,119.8z M197.6,123.4c-0.1,0.1-0.1,0.3-0.1,0.4c0,0.5,0,1.1,0,1.6c0,0.2,0.1,0.4,0.3,0.4
				c0.4,0,0.7,0,1.1,0c0-0.8,0-1.6,0-2.4c0,0-0.1,0-0.1,0c-0.1,0-0.2,0-0.3,0c-0.1,0-0.2,0-0.3,0c-0.1,0-0.3,0-0.4,0
				C197.8,123.4,197.7,123.4,197.6,123.4z"/>
		</g>
		<path class="st0" d="M202.2,119.7c0.9,0,1.7,0,2.6,0c0,0.3,0,0.7,0,1c0.4-0.5,1-0.8,1.6-1c0.1,0,0.2,0,0.2,0c0.1,0,0.2,0,0.3,0
			c0.4,0,0.8,0.2,0.9,0.6c0.1,0.2,0.1,0.5,0.1,0.7c0,0.9,0,1.7,0,2.6c-0.7,0-1.4,0-2,0c0-0.6,0-1.3,0-1.9c0-0.2,0-0.4,0-0.6
			c-0.2-0.1-0.4,0.2-0.6,0.3c-0.2,0.3-0.5,0.5-0.7,0.8c0,1.1,0,2.2,0,3.3c0.2,0,0.4,0,0.6,0c0,0.4,0,0.9,0,1.3c-1.1,0-2.2,0-3.3,0
			c0-0.4,0-0.9,0-1.3c0.2,0,0.4,0,0.7,0c0-1.5,0-3.1,0-4.6c-0.2,0-0.4,0-0.7,0C202.2,120.5,202.2,120.1,202.2,119.7z"/>
		<path class="st0" d="M209.2,119.7c1.1,0,2.2,0,3.3,0c0,0.4,0,0.8,0,1.2c-0.2,0-0.4,0-0.6,0c0,1.5,0,3.1,0,4.6c0.2,0,0.4,0,0.6,0
			c0,0.4,0,0.9,0,1.3c-1.1,0-2.2,0-3.3,0c0-0.4,0-0.9,0-1.3c0.2,0,0.4,0,0.7,0c0-1.5,0-3.1,0-4.6c-0.2,0-0.4,0-0.7,0
			C209.2,120.5,209.2,120.1,209.2,119.7z"/>
	</g>
</g>
</svg>
