<?xml version="1.0" encoding="utf-8"?>
<!-- Generator: Adobe Illustrator 26.0.3, SVG Export Plug-In . SVG Version: 6.00 Build 0)  -->
<svg version="1.1" id="Слой_6" xmlns="http://www.w3.org/2000/svg" xmlns:xlink="http://www.w3.org/1999/xlink" x="0px" y="0px"
	 viewBox="0 0 239.5 150.2" style="enable-background:new 0 0 239.5 150.2;" xml:space="preserve">
<style type="text/css">
	.st0{fill:#242122;}
</style>
<g>
	<path class="st0" d="M216,92.7c0-0.8-0.9-1.2-1.6-1.2c-1.6,0.4-2.8,1.7-4.4,2c-1.8,0.3-3.7,0-5.4-0.8c-4.8-2-9.1-5-13.7-7.4
		c-6.4-3.6-13.1-6.9-19.8-9.9c-8.4-3.9-16.9-7.5-25.8-9.9c-6.2-1.7-12.6-3-19-2.5c-2.6,0.3-5.3,0.7-7.5,2.2
		c-0.6,0.4-0.9,1.1-1.1,1.8c-0.8,0.6-1.6,1.3-2.3,2.1c-0.2,0.4-0.1,0.9,0.2,1.3c0.5,0.8,1.2,1.7,2.2,1.8c0.8,0,1.5,0.6,2.2,0.7
		c0.1,0.2,0.2,0.6,0.2,0.8c-0.8,1,0.3,2.7,1.5,2.4c1-0.1,1.7-1.1,2.4-1.7c1.7-1.4,4-2,6.2-1.6c2.3,0.5,4.5,1.7,6.4,3.1
		c0.1,0.1,0.3,0.2,0.4,0.3c-0.2-0.6-0.7-0.9-1-1.4c-1.5-1.7-3.5-3-5.7-3.4c-0.9-0.1-1.2-0.9-1.6-1.6c-0.4-0.8-1.1-1.3-1.9-1.7
		c-0.1,0-0.2,0.1-0.3,0.1c0.7,0.9,0.9,2.4,0.1,3.3c-0.7,0.7-1.7,1-2.6,1.1c-0.6,0.9-1.1,2-2.3,2.5c-0.5,0.1-0.9-0.1-1-0.5
		c1.3-0.9,2.6-2,3-3.6c0.6-1.6-1.2-3.6-2.8-2.9c-1.3,0.7-1.4,2.6-2.7,3.3c-0.8,0.2-2.3-0.8-1.5-1.6c0.7-0.9,1.7-1.3,2.7-1.6
		c1.2-0.3,2.3-1,2.9-2.1c-0.7-0.3-1.5-0.7-2.2-0.4c-0.7,0.2-1.1,0.8-1.5,1.3c0-0.2-0.1-0.5-0.1-0.7c0.8-0.6,1.7-1.1,2.7-1.4
		c3.1-0.9,6.3-0.8,9.5-0.5c-1.4,1.5-3.7,2.2-5.7,1.6c0.6,1,1.9,1.3,3,1.5c2.4,0.5,4.3,2,6.1,3.5c-0.4-1-1.2-1.8-1.9-2.6
		c-0.7-0.8-1.6-1.3-2.2-2.1c1-0.8,2.1-1.6,3.4-1.5c4,0.4,8,1.5,11.3,3.6c1,0.6,1.9,1.5,2.8,2.2c-0.3-0.9-0.7-1.7-1.2-2.5
		c0,0,0.1-0.1,0.2-0.2c4,0.7,7.7,2.1,11.5,3.4c4.2,1.6,8.5,2.9,12.5,4.7c-1.6,0.1-3.1,0.1-4.6,0.7c0,0.1,0,0.3,0,0.4
		c1.9-0.5,4-0.4,5.7,0.5c1.9,0.9,3.8,2,5.3,3.5c1.7,1.7,3.5,3.3,5.6,4.5c0.1,0.1,0.3,0.2,0.4,0.2c-0.3-0.4-0.7-0.8-1.1-1.2
		c-2.1-1.8-3.7-4.1-5.7-6c1,0.3,1.8,0.8,2.7,1.2c3.9,1.9,7.9,3.9,11.7,6.1c4.8,2.6,9.4,5.8,14.5,7.8c1.7,0.7,3.7,0.9,5.5,0.3
		c1.1-0.3,2.1-1.1,3.3-1.2c0.7,0,1.1,0.7,1.1,1.3C215.7,93.8,216.1,93.3,216,92.7z M120.1,70.8c0.1-0.6,0.5-1,0.9-1.4
		c0.3,0,0.6,0.1,0.8,0.1c0.5,0.5,0.8,1.1,1,1.8c-0.2,0.7-0.6,1.4-1.3,1.8c-0.4-0.1-0.8-0.2-1.2-0.3
		C120.3,72.1,119.8,71.4,120.1,70.8z M121.2,66.2c-0.3,0.6-0.9,0.9-1.6,0.9C119.9,66.5,120.6,66.3,121.2,66.2z M117.5,68.4
		c-0.4,0.3-0.7,1-1.3,0.9c0.7-0.8,1.5-1.7,2.6-2.1C118.5,67.8,117.8,68,117.5,68.4z"/>
	<path class="st0" d="M125.4,65c1.4,0,2.8-0.3,4.2-0.2c-1.3,0.6-2.7,0.9-4.1,0.7C125.4,65.4,125.4,65.1,125.4,65z"/>
	<path class="st0" d="M138.4,76.8c-1-1.6-0.6-3.7,0.5-5.1c0,1.6,0.1,3.3,1.3,4.5c1,0.9,2.3,1.4,3.6,1.9c1.2,0.4,2.5,0.8,3.7,1.1
		c0.2,0,0.3,0.1,0.4,0.2c-3-0.6-6-1-9.1-1.2c-2-0.1-4.2-0.3-6.1,0.6c-1.4,0.6-2.6,1.9-2.5,3.5c0,0.6,0.4,1.1,0.9,1.4
		c0.5,0.2,1.1,0.1,1.6,0.1c-0.6,0.5-1.4,0.8-2.1,0.5c-0.8-0.3-1.6-1.2-1.6-2.1c-0.2-2.1,1.5-4,3.4-4.7
		C134.4,76.9,136.4,76.7,138.4,76.8z"/>
	<path class="st0" d="M149.1,74.3c2.4,1.7,5.1,2.7,7.9,3.5c-2,0.5-4.1,0.1-6-0.5c0.5,1.1,0.5,2.3,0.5,3.5c2.3,1.1,4.8,2.2,7.4,2.4
		c3.3,0.2,6.6,0.1,9.9,0c1.7-0.1,3.3,1,3.8,2.6c1.2,3.2,3.8,6,7.2,7c3,1,6.2,0.2,9.3,0.7c2,0.2,4,0.8,5.6,2.1
		c1.2,1.1,2.4,2.1,3.5,3.2c-3-2-6.3-4-10-3.8c-1.6,0-3.3,0-4.9-0.1c-4.6-0.5-8.5-3.7-11-7.4c-0.8-1-1.1-2.4-2.3-2.9
		c-1.1-0.5-2.4-0.7-3.6-0.7c-2.7,0.1-5.3,0.1-8,0.1c-2,0-3.9-0.4-5.8-0.9c-0.7-0.1-1.4-0.6-2.1-0.5c-1.3,1-3.1,1.4-4.7,1.4
		c-2.7-0.3-5.3-1.5-7.8-2.4c-1.2-0.3-2.5-0.8-3.7-0.3c0,0.5,0,0.9-0.1,1.4c-0.2,0.1-0.3,0.3-0.5,0.5c0.4-1.1-1-1.4-0.8-2.5
		c0.5-0.4,1.2-0.6,1.8-0.7c2.2,0.1,4.3,0.7,6.3,1.4c2.1,0.6,4.4,1.2,6.6,0.6c1.2-0.3,2-1.6,2.1-2.8
		C149.9,77.4,149.4,75.9,149.1,74.3z"/>
	<path class="st0" d="M185.9,87.4c-0.1-0.1-0.2-0.2-0.2-0.4c0.8,0.7,2.1,0.7,3.1,1.1c2,0.2,4.2-0.2,6.1,0.6c0.8,0.3,1.5,0.9,2,1.6
		c1.1,1.9,2.7,3.6,4.6,4.9c-2.3-1-4.6-2.4-6-4.5c-0.3-0.5-0.7-0.9-1.2-1c-1.8-0.5-3.6-0.1-5.4-0.7C187.8,88.7,186.8,88.2,185.9,87.4
		z"/>
	<path class="st0" d="M208.3,96.9c2.3,0.2,4.5-0.8,6.3-2c-2,2.2-5.2,3.2-8.1,2.6c0.7,1.5-0.6,3.5-2.2,3.6c-1.7,0.2-3.3-0.6-4.7-1.5
		c1.4,0.1,3,0.4,4.3-0.2c0.8-0.3,1.3-1.2,1.1-2c-0.4-0.9-1.4-1.2-2.1-1.6c-0.3-0.1-0.5-0.2-0.7-0.3C204.4,95.4,206.2,97,208.3,96.9z
		"/>
	<path class="st0" d="M149.3,105c2.8-0.8,5.9-0.6,8.5,0.5c0.1,0.1,0.2,0.2,0.2,0.3c0,0.5,0,1.1,0,1.6c-1.4-0.9-3-1.7-4.8-1.7
		c-2.2-0.1-4.6,0.8-5.9,2.7c-1.1,1.5-1.3,3.5-1,5.3c0.3,1.8,1.4,3.5,3.1,4.3c1.8,0.9,4,0.8,5.9,0.2c0.1-0.1,0.2-0.2,0.3-0.2
		c0-1.7,0-3.5,0-5.2c0.9,0,1.9,0,2.8,0c0,2,0,4,0,6c-0.3,0.4-0.8,0.4-1.2,0.6c-3.1,0.9-6.5,0.9-9.6-0.1c-1.6-0.5-3-1.6-3.8-3.1
		c-1.2-2.4-1-5.5,0.5-7.7C145.6,106.7,147.4,105.6,149.3,105z"/>
	<g>
		<path class="st0" d="M195.6,104.8c0.6,0,1.2,0,1.8,0c1.9,3.9,3.8,7.8,5.7,11.7c0.5,1.1,1.1,2.1,1.5,3.2c-1.2,0-2.3,0.1-3.5-0.1
			c-0.5-1.4-1.2-2.7-1.8-4.1c-2.4,0-4.9,0-7.3,0c-0.6,1.4-1.3,2.7-1.9,4.1c-0.6,0.1-1.2,0.1-1.9,0.1c0.1-0.3,0.2-0.7,0.4-1
			C191,114.1,193.3,109.5,195.6,104.8z M195.8,107.7c-1,2.3-2.2,4.4-3.2,6.7c2.1,0,4.2,0,6.3,0C197.7,112.3,196.9,109.9,195.8,107.7
			z"/>
	</g>
	<g>
		<path class="st0" d="M217.9,104.8c1.5,0.1,3.2,0.3,4.4,1.3c1.2,1,1.5,2.8,1.2,4.2c-0.3,1.3-1.3,2.5-2.6,3
			c-0.2,0.1-0.6,0.3-0.4,0.5c1.3,2,2.9,3.8,4.1,5.8c-1.1,0-2.2,0-3.3,0c-1.3-1.9-2.6-3.8-3.9-5.7c-1,0-2,0-2.9,0c0,1.9,0,3.8,0,5.8
			c-0.9,0-1.9,0-2.8,0c0-5,0-9.9,0-14.9C213.8,104.8,215.9,104.8,217.9,104.8z M214.6,105.9c0,2.3,0,4.7,0,7c1.4,0,3,0.2,4.3-0.5
			c1-0.5,1.7-1.5,1.8-2.6c0.1-1.1-0.1-2.3-0.9-3C218.4,105.6,216.3,106,214.6,105.9z"/>
	</g>
	<path class="st0" d="M109.8,104.8c1,0,1.9,0,2.9,0c0,4.2,0.1,8.3-0.1,12.5c-0.1,0.4-0.2,0.8-0.2,1.2c-0.5,1.5-1.3,2.9-2.6,3.8
		c-0.9,0.6-2,1-3.1,1.1c0.4-0.6,1.1-1,1.5-1.5c1-1.1,1.4-2.6,1.5-4C110,113.5,109.8,109.2,109.8,104.8z"/>
	<g>
		<path class="st0" d="M128.3,104.8c0.6,0,1.2,0,1.9,0c2.4,5,4.8,9.9,7.2,14.9c-1.2,0-2.4,0.1-3.5-0.1c-0.6-1.4-1.1-2.8-1.8-4
			c-2.4,0-4.9,0-7.3,0c-0.6,1.4-1.2,2.7-1.9,4c-0.6,0.1-1.2,0-1.8,0C123.3,114.7,125.9,109.8,128.3,104.8z M125.3,114.5
			c2.1,0,4.2,0,6.3,0c-1-2.3-2-4.5-3-6.7C127.4,110,126.4,112.2,125.3,114.5z"/>
	</g>
	<path class="st0" d="M167.5,114.5c0-3.2,0-6.5,0-9.7c0.9,0,1.9,0,2.8,0c0.1,3.2,0,6.3,0,9.5c0.1,1.1,0.2,2.3,0.9,3.1
		c0.8,0.9,2.1,1.3,3.4,1.3c1.4,0,2.8-0.1,3.9-1c1-0.8,1.4-2.2,1.4-3.5c0-3.1,0-6.3,0-9.4c0.6,0,1.2,0,1.8,0c0,2.5,0,5.1,0,7.6
		c0,1.9-0.1,4.1-1.3,5.6c-1.2,1.4-3.1,1.9-4.9,2c-2,0.1-4.2-0.1-6-1.1C168.1,118,167.6,116.2,167.5,114.5z"/>
</g>
</svg>
