<?xml version="1.0" encoding="utf-8"?>
<!-- Generator: Adobe Illustrator 26.0.3, SVG Export Plug-In . SVG Version: 6.00 Build 0)  -->
<svg version="1.0"
	 id="Слой_1" image-rendering="optimizeQuality" text-rendering="geometricPrecision" shape-rendering="geometricPrecision" xmlns:xodm="http://www.corel.com/coreldraw/odm/2003"
	 xmlns="http://www.w3.org/2000/svg" xmlns:xlink="http://www.w3.org/1999/xlink" x="0px" y="0px" viewBox="0 0 238.1 150.2"
	 style="enable-background:new 0 0 238.1 150.2;" xml:space="preserve">
<style type="text/css">
	.st0{fill-rule:evenodd;clip-rule:evenodd;fill:#1D1D1B;}
</style>
<g>
	<path class="st0" d="M133.9,46.4c7.9-7.9,18.2-12.2,29.6-12.2c11.1,0,21.7,4.3,29.6,12.2c7.9,7.9,12.2,18.2,12.2,29.6
		c0,11.1-4.3,21.7-12.2,29.6c-7.9,7.9-18.2,12.2-29.6,12.2c-11.1,0-21.7-4.3-29.6-12.2S121.7,87.4,121.7,76
		C121.7,64.7,126,54.3,133.9,46.4z M125.4,76c0,10.1,4.1,19.7,11.1,27c7.1,7.1,16.8,11.1,27,11.1s19.7-4.1,27-11.1
		c7.1-7.1,11.1-16.8,11.1-27s-4.1-19.7-11.1-27c-7.1-7.1-16.8-11.1-27-11.1s-19.7,4.1-27,11.1C129.2,56.2,125.4,65.7,125.4,76z
		 M159.8,34.7c17.6-1.4,34.1,8.5,40.9,24.5c1.8,3.9,2.4,6.9,3,12c-1-6.1-3.2-10.5-5.1-14.2c-3.4-6.1-8.7-11.8-15-15.2
		c-10.7-6.9-27.6-7.5-38.7-1.2c-6.9,3.9-12.6,9.1-16.2,15.8c-4.1,6.9-5.9,15-5.1,23.3c0.8,9.3,5.3,19.1,12.4,26.4l-1.8-1.6
		c-9.9-10.5-14.8-26.8-9.7-41.6c0.8-2.4,1.8-4.9,3-7.1C133.9,44,146.9,35.5,159.8,34.7z M202,78.9c0.6-8.1-1.4-16.8-5.3-23.1
		c-1.6-2.4-4.3-5.9-6.1-7.9c9.3,8.5,13.4,19.7,13.2,31.4c-1,15.4-13,30.2-27.8,34.5c-15,4.9-31.4,0.4-41.8-11.1
		c-2-2.2-2.6-3-4.5-6.1c-0.6-0.8,0.2-1.4,0.4-0.8c7.9,13.2,22.9,20.3,38.9,18.2c10.9-1.6,20.9-8.1,27.2-17.8
		c0.3-0.4,0.4-0.6,0.8-1.2C200.2,90.6,201.6,84.7,202,78.9z M127.6,92.2c0.2,0.4,0.6,1.2,0.8,1.8c0.8,1.8,1.4,1,1,0.4
		c-1.8-3.2-4.3-8.9-5.1-17C124.6,84.7,126.2,89,127.6,92.2z"/>
	<path class="st0" d="M130.8,94.7c0.4,0.9,2.2,0.1,2.2,0.1c0,0,30.3-10.5,30.3-10.5l0,0v-7.1l-31,16.6L159,74.4l-1.8-1.2l0,0
		l-25.1,19.6C132.1,92.8,130.3,93.9,130.8,94.7z M163,40.4l-5.4,31.9l0,0l1.8,1.2c0,0,3.9-33.4,3.8-33.5
		C163.1,39.9,163,40.4,163,40.4z M163.3,39.5c-0.1-0.1,0.2-1,0.6-1.2c0.4-0.2,0.8-0.1,1,0.9l5.3,33.4l0,0l-5.3,3l-0.4-36.2
		c0-0.6-0.3-0.9-0.7-0.5C163.6,39,163.3,39.5,163.3,39.5z M170.8,73.8l-1.8,1c0,0,23.7,18.1,24.5,18.7c0.8,0.8,0,1-0.4,0.8
		l-28.5-16.6v6.9h-0.2l29.5,10.8c0,0,0.3,0.1,0.6,0.2c0.7,0.3,1,0.5,1.4-0.2c0.2-0.4-0.1-0.7-0.5-1l-0.6-0.5L170.8,73.8z
		 M160.7,75.5l1.8,1.2l-9.3,4.9L160.7,75.5z M165.5,76.8l1.4-0.8l26,17.7L165.5,76.8z M163.1,76l-2-1.4l2.7-34.5L163.1,76z"/>
</g>
</svg>
