<?xml version="1.0" encoding="utf-8"?>
<!-- Generator: Adobe Illustrator 24.0.2, SVG Export Plug-In . SVG Version: 6.00 Build 0)  -->
<svg version="1.1" id="Слой_1" xmlns="http://www.w3.org/2000/svg" xmlns:xlink="http://www.w3.org/1999/xlink" x="0px" y="0px"
	 viewBox="0 0 238.1 150.2" style="enable-background:new 0 0 238.1 150.2;" xml:space="preserve">
<style type="text/css">
	.st0{fill-rule:evenodd;clip-rule:evenodd;fill:#36362F;}
</style>
<g>
	<path class="st0" d="M50.1,130.6v0.2c0,1.2,0.4,1.6,2.4,1.8v0.6c-1.6-0.1-2.2-0.1-3-0.1s-1.4,0-3,0.1v-0.6c2.1-0.2,2.3-0.4,2.4-2
		l0.8-15.4v-0.2c0-1.2-0.4-1.6-2.4-1.8v-0.6c1,0.1,1.4,0.1,2.1,0.1c0.9,0,1.7,0,2.6-0.1l5.7,16.1l5.8-16.1c1.4,0.1,1.9,0.1,2.7,0.1
		c0.6,0,1.1,0,2.1-0.1v0.6c-2,0.1-2.4,0.4-2.4,1.7v0.2l0.3,15.4c0,1.4,0.4,1.8,2.4,2v0.6c-1.8-0.2-2.6-0.2-3.5-0.2
		c-1,0-1.8,0-3.5,0.2v-0.6c1.9-0.1,2.4-0.4,2.4-1.7v-0.2l-0.2-16.1l-6.5,18.1H57l-6.3-18.1L50.1,130.6z"/>
	<path class="st0" d="M82.1,128.4c-0.3,3.1-2.2,5-5.1,5c-3.9,0-6-2.6-6-7.3c0-4.7,2.2-7.7,5.8-7.7c3.5,0,5.3,2.4,5.3,7h-9.2
		c0,4.8,1.3,7,4.1,7c2.2,0,3.6-1.4,3.9-4.1L82.1,128.4L82.1,128.4z M80.2,124.3c-0.2-3.5-1.3-5.1-3.5-5.1c-2,0-3.3,1.8-3.8,5.1H80.2
		z"/>
	<path class="st0" d="M84.5,118.9c1.3-0.1,2.7-0.3,3.7-0.7l0.2,1.8v1.2c0.6-1.8,1.9-2.8,3.5-2.8c1.4,0,2.6,0.9,2.6,2.2
		c0,0.9-0.4,1.4-1.2,1.4c-0.7,0-1.1-0.4-1.1-1c0-0.1,0-0.1,0.1-0.6c0,0,0-0.1,0-0.2c0-0.4-0.4-0.8-1-0.8c-1.7,0-2.8,2.1-2.8,5.3v6.1
		c0,1.2,0.3,1.4,2.2,1.6v0.6c-1.6-0.1-2.2-0.2-3.1-0.2c-0.9,0-1.6,0-3.1,0.2v-0.6c1.8-0.1,2.2-0.3,2.2-1.6v-9.9c0-1.8,0-1.9-2.1-1.9
		L84.5,118.9L84.5,118.9z"/>
	<path class="st0" d="M105.7,122.8h-0.6c-0.2-1-0.4-1.4-0.8-2.1c-0.6-1-1.7-1.7-2.8-1.7c-2.3,0-3.8,2.6-3.8,6.9
		c0,4.2,1.2,6.5,3.7,6.5c1.9,0,2.9-1.2,3.3-4h1.2c-0.3,3.2-2,5-4.7,5c-3.5,0-5.7-2.9-5.7-7.3c0-4.6,2.3-7.7,5.8-7.7
		c1.2,0,2,0.3,2.9,1.2l0.8-1.6h0.6V122.8L105.7,122.8z"/>
	<path class="st0" d="M119.7,128.4c-0.3,3.1-2.2,5-5.1,5c-3.9,0-6-2.6-6-7.3c0-4.7,2.2-7.7,5.8-7.7c3.5,0,5.3,2.4,5.3,7h-9.2
		c0,4.8,1.3,7,4.1,7c2.2,0,3.6-1.4,3.9-4.1L119.7,128.4L119.7,128.4z M117.9,124.3c-0.2-3.5-1.3-5.1-3.5-5.1c-2,0-3.3,1.8-3.8,5.1
		H117.9z"/>
	<path class="st0" d="M135.4,132.6c-2,0.2-2.6,0.3-3.6,0.7c-0.2-0.8-0.3-1.7-0.3-2.7c-0.9,1.8-2.1,2.7-3.9,2.7c-3.1,0-5.3-3-5.3-7.3
		c0-4.5,2.2-7.5,5.3-7.5c1.7,0,2.8,0.8,3.8,2.7v-5.9c0-1.4-0.2-1.7-2.1-1.7v-0.4c1.4-0.1,2.9-0.4,4-0.7v17.6c0,1.2,0.1,1.6,0.4,1.9
		c0.3,0.2,0.4,0.2,1.7,0.2V132.6z M124.3,126c0,4.1,1.3,6.6,3.6,6.6c2.2,0,3.6-2.2,3.6-6.2c0-4.5-1.2-6.9-3.7-6.9
		C125.5,119.4,124.3,121.6,124.3,126z"/>
	<path class="st0" d="M148.6,128.4c-0.3,3.1-2.2,5-5.1,5c-3.9,0-6-2.6-6-7.3c0-4.7,2.2-7.7,5.8-7.7c3.5,0,5.3,2.4,5.3,7h-9.2
		c0,4.8,1.3,7,4.1,7c2.2,0,3.6-1.4,3.9-4.1L148.6,128.4L148.6,128.4z M146.7,124.3c-0.2-3.5-1.3-5.1-3.5-5.1c-2,0-3.3,1.8-3.8,5.1
		H146.7z"/>
	<path class="st0" d="M151.5,128.5h0.6c0.2,1,0.4,1.6,0.8,2.1c0.6,1.2,1.9,1.9,3.3,1.9c1.9,0,3.3-1.2,3.3-2.9c0-1-0.4-1.6-1.7-2.2
		c-0.3-0.1-0.3-0.1-3-1.2c-2.2-0.9-2.9-1.8-2.9-3.7c0-2.3,1.8-4,4.3-4c1.1,0,1.9,0.2,3,0.9l0.4-1.1h0.6v4.6h-0.6
		c-0.2-2.4-1.3-3.6-3.2-3.6c-1.7,0-3,1.1-3,2.7c0,1,0.4,1.6,1.7,2.2c0.4,0.2,0.7,0.3,3,1.2c2.3,1,3.1,1.9,3.1,3.7
		c0,2.4-2,4.3-4.8,4.3c-1.3,0-2.4-0.3-3.7-1.2l-0.7,1.2h-0.6L151.5,128.5L151.5,128.5z"/>
	<path class="st0" d="M162.6,124.2v1.2h7.7v-1.2H162.6z"/>
	<path class="st0" d="M179.1,112.8c1.9,0,3.1,0.3,4.1,1.1c1.1,0.9,1.7,2.2,1.7,3.8c0,2.1-1.1,3.7-3.2,4.6c2.8,0.7,4.2,2.3,4.2,5
		c0,1.8-0.9,3.6-2.2,4.7c-1.2,0.9-2.4,1.2-4.7,1.2h-7.5v-0.6c2.2-0.2,2.4-0.4,2.4-2v-15.1c0-1.6-0.3-1.8-2.4-2v-0.6L179.1,112.8
		L179.1,112.8z M178.2,122.1c1.8,0,2.7-0.2,3.5-1c0.8-0.8,1.1-1.8,1.1-3.2c0-1.3-0.3-2.4-0.9-3.1c-0.6-0.8-1.6-1.1-3-1.1h-2.8v8.3
		h2.1V122.1z M175.8,130.6c0,1.4,0.3,1.7,2.1,1.7h1.1c2.8,0,4.5-1.8,4.5-4.8c0-1.4-0.4-2.7-1.2-3.5c-0.7-0.8-1.7-1-3.3-1h-3.2
		L175.8,130.6L175.8,130.6z"/>
	<path class="st0" d="M199.7,128.4c-0.3,3.1-2.2,5-5.1,5c-3.9,0-6-2.6-6-7.3c0-4.7,2.2-7.7,5.8-7.7c3.5,0,5.3,2.4,5.3,7h-9.2
		c0,4.8,1.3,7,4.1,7c2.2,0,3.6-1.4,3.9-4.1L199.7,128.4L199.7,128.4z M197.8,124.3c-0.2-3.5-1.3-5.1-3.5-5.1c-2,0-3.3,1.8-3.8,5.1
		H197.8z"/>
	<path class="st0" d="M202,119.1c1.4-0.2,2.6-0.4,3.7-0.9c0.1,0.8,0.1,1.2,0.2,2.7c1.1-1.6,2.3-2.3,4-2.3c1.6,0,2.9,0.7,3.7,2
		c0.4,0.8,0.7,1.8,0.7,3.2v7.5c0,1.2,0.3,1.4,2.2,1.6v0.6c-1.6-0.1-2.2-0.2-3.1-0.2c-0.9,0-1.6,0-3.1,0.2v-0.6
		c1.9-0.1,2.2-0.3,2.2-1.6v-7.3c0-1.4-0.1-2.2-0.6-2.9c-0.4-0.8-1.3-1.1-2.3-1.1c-1.1,0-2.1,0.6-2.8,1.3c-0.4,0.7-0.7,1.3-0.7,2.8
		v7.2c0,1.2,0.3,1.4,2.2,1.6v0.6c-1.6-0.1-2.2-0.2-3.1-0.2s-1.6,0-3.1,0.2v-0.6c1.8-0.1,2.2-0.3,2.2-1.6v-9.9c0-1.1,0-1.3-0.2-1.6
		c-0.2-0.2-0.4-0.2-1.9-0.2L202,119.1L202,119.1z"/>
	<path class="st0" d="M226.8,119.5h-3.9c-1.9,0-2.2,0.3-3.3,3H219l0.7-3.8h9.8l-8.6,13.7h4.1c1.6,0,2-0.2,2.8-1.4
		c0.4-0.6,0.7-1.1,0.9-2h0.6l-0.8,4.1h-10.1L226.8,119.5z"/>
	<path class="st0" d="M109.4,22.5c7.8-7.8,18-12,29-12c10.9,0,21.3,4.2,29,12c7.8,7.8,12,18,12,29c0,10.9-4.2,21.3-12,29
		c-7.8,7.8-18,12-29,12c-10.9,0-21.3-4.2-29-12s-12-18-12-29C97.4,40.5,101.6,30.2,109.4,22.5z M100.9,51.5c0,10,3.9,19.4,10.9,26.4
		s16.5,10.9,26.4,10.9c10,0,19.4-3.9,26.4-10.9c7-7,10.9-16.5,10.9-26.4c0-10-3.9-19.4-10.9-26.4c-7-7-16.5-10.9-26.4-10.9
		c-10,0-19.4,3.9-26.4,10.9C104.8,32.1,100.9,41.5,100.9,51.5z M134.8,11c17.4-1.4,33.5,8.3,40.3,24c1.7,3.8,2.3,6.8,2.9,11.7
		c-0.9-6-3.1-10.4-5-13.9c-3.3-5.9-8.6-11.5-14.7-14.9c-10.6-6.8-27-7.3-38.1-1.1c-6.8,3.7-12.4,9-16,15.5c-3.9,6.8-5.7,14.7-5,22.9
		c0.8,9.2,5.2,18.7,12.1,25.8l-1.8-1.6C99.7,69.1,95,53.1,99.9,38.6c0.7-2.4,1.8-4.8,3-7C109.3,20.2,122,11.8,134.8,11z M176.2,54.4
		c0.6-8-1.3-16.5-5.2-22.7c-1.6-2.3-4.1-5.7-6-7.8c9.1,8.3,13.1,19.3,12.9,30.9c-1,15.1-12.7,29.6-27.2,33.9
		c-14.8,4.7-30.9,0.4-41-11c-1.9-2.1-2.9-3.6-4.7-6.5c-0.6-0.8,0.1-1.3,0.4-0.7c7.8,13,22.7,20.4,38.4,18.4
		c10.8-1.6,20.6-8,26.7-17.5c1,0.1,1.2-0.6,0.7-1.2C174.3,65.8,175.8,60.1,176.2,54.4z M103.2,67.5c0.2,0.4,0.3,0.9,0.6,1.3
		c0.8,1.7,1.4,1,1,0.3c-1.7-3.2-4-8.3-4.8-16.2C100.2,60.2,101.8,64.3,103.2,67.5z"/>
	<path class="st0" d="M138.1,58.9L138.1,58.9V52l-32.3,17.7L134,49.2l-1.8-1.2l0.2-0.2l-26.2,20.8c-0.4,0.3-1.1,0.4-1.8-0.7l0.8,1.9
		l1.3,1.8c-0.1-0.1-0.2-0.6-0.3-1l0.1-0.4L138.1,58.9z M132.7,47.1L132.7,47.1l1.8,1.1l3.7-34.4c0-0.1,0-0.1,0-0.2v0.1L132.7,47.1z
		 M138.2,13.1c0.1-0.2,0.2-0.4,0.6-0.4c0.6,0,0.7,0.2,0.9,1l5.3,34.3l-0.1-0.6l-5.1,3l-0.3-36.5c0-0.4-0.1-1.2-0.7-1.2
		C138.6,12.7,138.3,12.9,138.2,13.1z M145.5,48.5l-1.7,1c0,0,26.2,19.8,27,20.5c0.8,0.7,0,1-0.3,0.7l-30.9-18.5v6.7h-0.1l30.6,12.4
		c0,0,0.1,0,0.2,0.1c0.6,0.2,1.3,0.7,1.7,0.2s0.3-0.6-0.6-1.3l-0.1,0.1L145.5,48.5z M135.9,50.5l1.7,1.1l-9.1,4.7L135.9,50.5z
		 M140.3,51.5l1.3-0.8l28.4,19.4L140.3,51.5z M138,50.6l-2-1.3l2.8-35.9L138,50.6z"/>
</g>
</svg>
