<?xml version="1.0" encoding="utf-8"?>
<!-- Generator: Adobe Illustrator 23.0.1, SVG Export Plug-In . SVG Version: 6.00 Build 0)  -->
<svg version="1.1" id="Слой_1" xmlns="http://www.w3.org/2000/svg" xmlns:xlink="http://www.w3.org/1999/xlink" x="0px" y="0px"
	 viewBox="0 0 238.1 150.2" style="enable-background:new 0 0 238.1 150.2;" xml:space="preserve">
<style type="text/css">
	.st0{fill:#010101;}
</style>
<g>
	<path class="st0" d="M162.4,48.9c7.2-0.6,14.5-1,21.7-1.5c-1,1.1-1.9,2.2-2.3,3.6c-1.2,3.9-2.7,7.8-4.8,11.4
		c-0.5,0.6-0.9,1.7-1.8,1.5c-9.1,0-18.1-0.5-27.2-0.3c0.7-0.9,1.1-1.9,1.4-3c0.9-2.8,3.3-4.7,5.2-6.9c1.4-1.8,3.4-3.1,5.4-4.3
		l0.4,0.2c0-0.1,0.1-0.3,0.1-0.5C161.1,49.1,161.7,49,162.4,48.9z"/>
	<path class="st0" d="M187.5,48.6c2.4-0.4,4.8,0.6,7.1,1.3c3.2,1.1,6.3,2.6,9,4.7c-2-1.2-3.9-2.5-6.1-3.3c-0.4-0.3-0.8,0-1.1,0.1
		c3.2,1.3,6.2,3,8.8,5.2c0.7,0.6,1,1.5,1.4,2.2c0.6,1.3,1.4,2.6,1.7,4c-1.1-1.8-1.9-3.7-2.9-5.5c-0.6-0.6-1.4-0.9-2.2-1.3
		c-2.7-1.4-5.3-2.9-8.2-3.7c-0.4-0.6-0.7-1.2-1.1-1.8c0.8,0.2,1.5,0.5,2.3,0.8c0.2-0.1,0.4-0.3,0.6-0.4c-1.5-0.5-3-1.1-4.5-1.4
		c-0.2,0.1-0.4,0.3-0.7,0.4c1.4-0.2,1.8,1.2,2.3,2.1c1.6,2.7,2.5,5.6,3.7,8.5c-1.6-0.1-3.2-0.1-4.7-0.3c0-0.8,0.7-0.4,1.2-0.3
		c-0.7-0.9-1.4-1.8-2.5-2.3c-2.4-0.9-3.4-3.6-4.1-5.9c-0.1-0.5-0.5-1.1-0.1-1.6c1.1-0.8,2.6-0.7,3.8-0.4c0.2-0.1,0.5-0.3,0.7-0.4
		c-1.6-0.3-3.2-0.8-4.8-0.1c-1.2,0.6-1.6,2-2.2,3.2c-1.2,3.1-2.3,6.3-3,9.5c0,0-0.1,0-0.2,0c0-0.1,0.1-0.4,0.1-0.5
		c0.6-3.5,1.7-7,3.1-10.3C185.3,50.1,186.1,48.8,187.5,48.6z"/>
	<path class="st0" d="M149.5,49.9c3.6-0.4,7.3-0.5,10.9-0.8c-0.7,0.5-1.6,0.8-2.4,1.3c-1.6,0.9-3,2.2-4.3,3.6c-1.9,2.1-4,4-5,6.7
		c-0.4,1.1-1,2.2-1.9,2.9c-0.4,0.2-0.9,0.1-1.3,0.1c1.7-0.9,2.3-2.8,3-4.4c0.9-1.3,1.4-2.9,2.8-3.8c1.3-0.8,2-2.2,3-3.2
		c-1.6-0.1-3.2,0.3-4.8,0.4c-0.9,0-1.8,0.5-2.6,0.2c0.2-1,1.1-1.6,1.8-2.2c-1.7,0.8-3.6,1.2-5,2.5c-0.9,1.1-1.5,2.5-2.5,3.5
		c-2.1,2.2-3.7,4.8-5.6,7.2c-3.1,0.3-6.2,0.4-9.3,0.5c0.9-0.8,2.4-0.9,3.1-2.1c0.9-1.2,0.9-3.1,2.3-4c1.3-1,2.3-2.4,3.6-3.5
		c2.3-1.5,4.7-2.8,7.3-3.7l-0.1-0.3c2.2-0.1,4.5-0.6,6.7-0.9c0,0.2-0.1,0.6-0.1,0.8C149.2,50.4,149.4,50.1,149.5,49.9z"/>
	<path class="st0" d="M131.8,53.6c3.1-1.4,6.3-2.4,9.6-2.9l0,0.4c-5.2,1-9.9,3.6-14.3,6.3c-3.7,2.3-7.2,4.9-10.6,7.5
		c-1.6,0.3-3.3,0.2-5,0.4c0.3-0.4,0.7-0.7,1.1-0.9C118.6,60.3,125,56.6,131.8,53.6z"/>
	<path class="st0" d="M186.9,59.5c1.8-0.5,3.8,0,5.6,0.1c-0.2,0.2-0.4,0.4-0.6,0.6c-1.6,0-3.3-0.3-4.9,0.1c-1.5,1-0.2,3-0.7,4.3
		c-0.1,0-0.4,0.1-0.5,0.2c-0.4-1.2-0.3-2.6-0.2-3.9C185.6,60.2,186.3,59.6,186.9,59.5z"/>
	<g>
		<path class="st0" d="M207.3,59.1c1,0.9,1.8,1.9,2.5,3.1c0.7,0.9,1.3,2,2.5,2.4c0.9,1.2,1.5,2.5,2.3,3.7c0.7,1,2.1,1.1,3.2,0.9
			c0.9,1,1.9,1.9,2.7,2.9c0.8,0.9,1.1,2.1,1.2,3.3c0.2,1.4,0.9,2.6,0.9,4c0.1,0.9-0.2,2.1,0.8,2.6v0.8c-0.1,0.1-0.4,0.2-0.5,0.3
			c-0.1,0.8,0.1,1.7,0.1,2.5c0.1,2.1-0.5,4.2-1,6.3c-0.1,4.1,0.2,8.4-1.5,12.3c-0.5,1-1.1,2.3-2.4,2.3c-3.1,0.1-6.3-0.5-9.4-0.7
			c-1.5-0.2-1.6-2-1.9-3.1c-3.7,1.6-7.9,1.5-11.7,3.1c-2.6,1-5.2,2-7.8,3.1c-5,2.2-10.1,4.2-15,6.5c-0.5,1-0.6,2.2-0.9,3.3
			c-1.3,4.6-3.3,9.3-7.1,12.3c-2,1.6-4.4,2.9-7.1,2.7c-3-0.2-6-0.7-9-1c-2.3-0.1-4.6-0.7-6.6-2c-1.2-0.7-2.1-1.9-2.9-3
			c-0.6,0-1.2,0.1-1.8,0.1c-5,0.7-10,1-15,1.1c-6.4,0.1-12.7-0.7-19.1-1.4c-1.5-0.2-3-0.2-4.4-0.8c-1.2-0.5-2.4-0.8-3.7-0.8
			c-8.2-0.8-16.3-2.2-24.4-3.7c-1.5-0.3-3-0.5-4.5-1c-3.9-1.5-7.7-3.2-11.6-4.6c-1.7-0.7-3.3-1.7-4.5-3.1c0.9,0.5,1.8,1,2.8,1.4
			c4.8,1.8,9.6,3.5,14.3,5.2c0.8,0.3,1.7,0.4,2.5,0.5c6.9,1,13.7,2,20.6,2.8c1.2,0.1,2.5,0.4,3.7,0.3c0.7-0.7,1.2-1.6,1.7-2.5
			c-7.6-0.7-15.2-1.8-22.8-2.8c-2.1-0.3-4.2-0.6-6.2-1.3c-2.5-0.8-5-1.9-7.5-2.9c-1.5-0.6-3.1-1.2-4.5-2c-0.4-1-1.3-1.8-1.3-2.9
			c0-2.2-0.2-4.5-0.2-6.7c-0.9-0.8-1.3-1.9-2-2.9c-0.6-1-1.7-1.6-2.7-2.1c0.6-1.8,0.3-3.8,0.4-5.7c0.4,0.9,1.2,1.5,2,2.1
			c0.1,0.4,0.1,0.8,0.2,1.3c-0.2,0.1-0.5,0.3-0.6,0.4c0.1,0.8-0.1,1.6,0.2,2.4c1.1,1.2,2.7,1.6,4.2,1.7c0.9-0.5,1.6-1.3,1.7-2.3
			c4.2,0.4,8.3,1.7,12.5,2c3.4,0.4,6.8,0.6,10.3,1c0.8,0.1,0.8,1.2,1.4,1.6c1.3,1.1,2.8,2.3,4.6,2.6c2.8,0.4,5.7,0,8.5-0.3
			c2.9-0.4,5.8-0.8,8.7-1.1c2.7-0.4,5.4,0,8.1,0c2.5,0,5.3,0.4,7.6-0.9c1.3-0.8,1.8-2.4,1.6-3.9c3.1-0.4,6.2-0.8,9.4-1.2
			c1.7-0.2,3.4-0.8,4.9-1.5c1.1-0.5,1.9-1.4,2.8-2.2c2.8,1.2,6,0.7,8.7-0.5c1.5-0.7,3.1-1.1,4.5-1.9c1.4-2.5,2.9-5.1,4.9-7.2
			c2.3-2.4,4.9-4.9,8.3-5.3c1.3-0.3,2.7,0.4,4-0.2c1.5-0.6,3.1-0.8,4.7-0.9c0.6,0.4,1.1,1,1.6,1.6c-0.2-0.8-0.5-1.5-0.8-2.3
			c0.7-0.5,1.5-0.9,2.4-1.1c2.3-0.6,4.6-1.2,6.9-1.8c0,0.7,0.1,1.4,0.3,2c0.1-0.6,0.2-1.2,0.3-1.8c5.5-0.9,11-2,16.5-2.7
			c0.3-1,0.9-2.3,2.1-2c0.6,0.2,1.7,0.9,1.2,1.6c-0.4,0.3-1,0.3-1.5,0.4c0-0.3-0.1-0.9-0.2-1.1c-0.6,0-0.3,0.9-0.4,1.3
			c-0.2,0-0.5,0.1-0.6,0.1c-0.1,0.3-0.2,0.6-0.2,0.9c0.9,0,1.8-0.1,2.6-0.4c0.3,0.1,0.5,0.2,0.8,0.4c-0.7,0.9-1.8,0.9-2.8,0.9
			c0,0.1,0.1,0.4,0.1,0.5c1.2,0.2,2.5-0.2,3.1-1.4c-0.3-0.2-0.5-0.5-0.7-0.7c0-0.6,0.2-1.1,0.7-1.4c0.6,1.1,0.7,2.4,1.2,3.5
			c0.2-1.1-0.2-2.2-0.4-3.3c3-0.5,6-0.9,9-1.1c-0.2-0.2-0.5-0.3-0.8-0.4c-3.6-0.8-7.3-1-10.9-1.1c-3.2-0.1-6.5-0.4-9.7-0.1
			c-2.3,0.1-4.6,0.3-6.9,0.5c-0.6,0.6,0.7,0.6,1,0.9c-0.2,0.7-0.7,1.4-1.3,1.8c-0.9,0.6-1.9,1.5-3,1.5c-1.2-0.3-2.5-0.8-3.4-1.7
			c0.1-0.4,0.3-0.9,0.3-1.3c-0.2-0.6-1-1.3-0.3-1.9c1-1.1,1.9-2.4,2.1-3.9c-0.7-0.5-1.8,0.1-2.3-0.5c1.1,0,2.2,0,3.3,0
			c0.1,0.9,0.2,1.8,0.4,2.6c0.2-0.6,0.4-1.1,0.6-1.7c0.2,0.3,0.3,0.6,0.5,0.9c1.9,0,3.7,0,5.6,0c-0.5-0.2-0.9-0.4-1.4-0.6
			c0.7-1.8,2.3-3.1,4.1-3.7c1.7-0.5,3.5-0.4,5.3-0.4c0.7,0,1.6,0.2,1.9,0.9c0.5,1.3,0.7,2.6,1.1,3.9c0.5-0.3,1.1-0.6,1.6-0.9
			c0.4,0.2,0.8,0.8,1.4,0.6c2.1-0.6,4.2-1.3,6.2-2.2c0.4,0.8,0.8,1.6,1.3,2.3c0.1-0.9-0.3-1.7-0.7-2.4c0.2-0.3,0.4-0.6,0.7-0.9
			C208.8,61,208.1,60.1,207.3,59.1z M186.1,67.6c-0.6,0-1.3,0.2-1.7,0.8c2.2-0.1,4.5-0.5,6.7-0.5c4-0.4,8.1-0.3,12.1-0.2
			c2.7,0,5.4,0.4,8.1,0.2c-2.9-0.8-6-0.8-9.1-0.9C196.9,67,191.5,67.1,186.1,67.6z M214,70.8c-0.3,0.2-0.3,0.6-0.1,0.9
			c0.7-0.2,1.5-0.3,2.2-0.5c0-0.1-0.1-0.3-0.1-0.5C215.4,70.7,214.7,70.6,214,70.8z M206.1,74c1.8-0.2,3.7-0.6,5.5-0.4
			c0.4,0,0.7,0.3,1.1,0.5c0.3-0.3,0.8-0.5,1.2-0.7c-0.6-0.6-1.5-0.4-2.3-0.4C209.8,73.1,207.8,73.3,206.1,74z M217.3,74
			c0.4,0,0.8,0,1.2-0.1c0.3,0.2,0.8,0.6,1.1,0c-0.4-0.9-1.4-0.9-2.2-1C217.4,73.3,217.4,73.6,217.3,74z M216.4,76.3
			c-1.2,2-1.6,4.5-1.5,6.8c0.9-1.4,0.8-3.1,1.3-4.6c0.4-1.1,1-2.1,1.7-3c0.1,0.2,0.3,0.5,0.4,0.6c0.1-0.6,0.3-1.1,0.6-1.6
			C217.6,74.2,216.9,75.4,216.4,76.3z M192.3,76.2c-2,0.3-4,0.8-6,1.3c-0.5,0.1-1,0.5-1.2,1c1.7,0,3.2-0.6,4.8-1.1
			c3.3-0.8,6.5-1.6,9.8-2.3l0-0.2C197.2,75.1,194.8,75.9,192.3,76.2z M219.2,78c0.3,0.5,0.5,1.1,1,1.4c0-0.3,0-0.9,0-1.3
			c0.3,0.4,0.5,0.8,0.8,1.3c0-0.7-0.1-1.4-0.7-1.8C219.9,77.5,219.6,77.8,219.2,78z M175.8,79.4c1,0.6,1.9-0.3,2.8-0.7
			C177.6,78.5,176.5,78.6,175.8,79.4z M217.5,80.5c0.5-0.1,1.1-0.1,1.3-0.6c0.5-0.5-0.1-1.2-0.3-1.8
			C217.7,78.6,217.2,79.6,217.5,80.5z M167.7,79.8c1.3,1.2,2.9,2.3,4.7,1.9c-0.4-0.4-0.8-0.8-1.2-1.2
			C170.1,80.2,168.9,80.1,167.7,79.8z M216.5,79.6c0,0.5,0,1,0,1.6C217.2,81,217.2,79.8,216.5,79.6z M174.7,80.3
			c0,0.2,0.1,0.6,0.1,0.8c-0.3-0.1-0.9-0.2-1.2-0.2c0,0.2,0.1,0.6,0.1,0.8c0.8,0.5,1.4,1.1,1.9,1.9c-0.1-1-0.2-2-0.4-3
			C175.1,80.5,174.8,80.4,174.7,80.3z M219,84.1c-0.5,0.5-0.9,1.1-1.2,1.7c0.6-0.5,1.1-1.1,1.8-1.3C219.5,84.4,219.3,84.3,219,84.1z
			 M218.9,90.2c0.1,0.3,0.3,0.8,0.7,0.7c0.5-0.9,1.3-1.7,1.3-2.7C220.3,88.7,219.6,89.5,218.9,90.2z M161.1,89.8
			c-2.7,0.5-4.3,2.9-5.6,5.1c-1.7,3.2-2.9,6.7-3.3,10.3c0.3-1.1,0.5-2.2,1.3-3c2,2,3.3,4.4,4.9,6.8c0.2-0.5,0.4-1,0.5-1.5
			c-1.6-2.1-3.2-4.1-5.2-5.9c0.2-0.7,0.3-1.5,0.6-2.2c2.1,1.4,3.6,3.4,5.4,5.1c0.5,0.4,0.6,1.1,0.8,1.7c0.4-0.6,0.8-1.1,1.5-1.2
			c0.3-1.8,0.9-3.6,0.8-5.5c0,0.2-0.3,1.5-0.7,0.8c0.2-1,0.4-2,0.5-3.1c0.1,0.2,0.3,0.4,0.4,0.7c-0.1,0.6-0.1,1.2-0.1,1.8
			c0.1-0.3,0.2-0.9,0.3-1.2c0.2,0.2,0.3,0.4,0.5,0.7c-0.2,1.3-0.4,2.5-0.8,3.7c-0.5,1.2-0.4,2.5-0.4,3.8c1.4-2,1.8-4.5,2.1-6.9
			c0.1-2.7,0.4-5.4,0.7-8c-0.5,0.3-1,0.8-0.9,1.4c-0.1,1.9-0.4,3.7-0.5,5.6c-0.2-0.2-0.4-0.4-0.5-0.6c0.5-2.5,0.9-5,1.2-7.5
			c1.1,0.7,2.1,1.4,3.2,2.1C166.5,90.4,163.6,89,161.1,89.8z M219.7,91.7c-0.4,0.8-1,1.5-1.2,2.4c0.8-0.4,1.2-1.2,1.7-1.9
			c0.5-0.9,1.2-1.8,1-2.8C220.5,90,220.2,90.9,219.7,91.7z M217.4,90.5c-0.2,1.1-0.3,2.1-0.6,3.1C218.3,93.4,218.6,91.4,217.4,90.5z
			 M213,91.4c0,0.2,0,0.6,0.1,0.8c0.3,0.4,0.8,0.9,0.7,1.5c-2.8,0.6-5.6,1.6-8.4,2.3c-0.9-0.4-1.8,0.2-2.7,0.4
			c-4.8,1.3-9.6,2.8-14.4,4c0.3,0,0.8,0.1,1.1,0.1c-0.3,0.5-0.9,0.5-1.3,0.7c-3.9,1.2-7.7,2.3-11.6,3.5c-0.1-0.2-0.2-0.5-0.3-0.7
			c-0.6,0.3-1,0.8-1.4,1.3c0.4,0.3,1-0.1,1.4-0.1c10.2-3,20.4-6,30.6-9c2.7-0.8,5.3-1.8,8-2.4C214.1,93,213.8,92,213,91.4z
			 M221.2,92.8c0,0.7-0.1,1.5-0.3,2.2c-0.3-0.2-0.6-0.4-0.9-0.7c-0.2,1.2,0.3,2.4,1,3.4c0.1-1.7,0.5-3.3,0.4-4.9
			C221.4,92.8,221.3,92.8,221.2,92.8z M218.1,95.7c0.3,1.9,0.4,3.9,0.5,5.8c0.7-1,0.3-2.3,0.4-3.4c0.3,0,0.8,0,1.1,0.1
			C219.8,97.2,219.1,96.2,218.1,95.7z M147.8,96.1c-0.5,1.7-0.6,3.5-1.1,5.2c-1.7,5.8-2.4,11.9-2.1,17.9c-0.5,0.1-1,0.2-1.6,0.2
			c-0.1-0.2-0.3-0.4-0.4-0.6c0,0.2,0,0.6,0,0.8c-3.6,0.5-7.1,1.2-10.7,1.7c-3.9,0.4-7.7,1-11.6,1.3c-6.7,0.3-13.3-0.3-19.9-0.8
			c-0.9,0-2-0.4-2.9,0.2c-1.1,0.6-2.2,1.3-3.2,2.1c4.7,0.5,9.4,0.9,14.1,1.2c10.1,0.7,20.3,0,30.3-1.7c2.5-0.4,5.1-0.7,7.5-1.5
			c-0.4-1.4-1.8-2.5-1.4-4c0.7-6,1.7-12,3.4-17.8C148.6,98.9,147.8,97.5,147.8,96.1z M210.1,98.8c-0.1-0.1-0.4-0.2-0.5-0.3
			c-3.3,1.2-6.7,2.5-9.8,4.3c2.2-0.2,4.2-1.2,6.3-1.9c2.9-1,5.8-2,8.7-2.9c-0.1-0.3-0.2-0.6-0.3-0.9
			C212.9,97.4,211.3,97.9,210.1,98.8z M217.1,97.6c-0.2,1.6,0.1,3.4,0.9,4.8c0-1.5,0.2-3.1-0.2-4.6
			C217.6,97.7,217.3,97.6,217.1,97.6z M219.1,104c0.3-0.4,0.6-0.9,1.1-0.9c-0.2-0.8,0.1-1.5,0.3-2.2
			C219.5,101.4,218.8,102.8,219.1,104z M172.5,110.2c0.3,0.6,0.7,1.1,1,1.7c1.3-0.4,2.5-0.9,3.7-1.3c5.9-2.3,11.9-4.6,17.8-6.9
			c1.4-0.6,2.8-1.1,4.1-2C190.1,104,181.2,106.8,172.5,110.2z M141.8,105.2c-1.4,4.2-2.4,8.5-3.2,12.8c-0.3,0.5,0.3,0.7,0.5,1
			c0.8,0,1.7,0,2.5,0c0,0,0-0.1,0-0.2c-0.2,0-0.7,0-0.9-0.1c-0.5-0.2-1.1-0.4-1.6-0.7c0.8-4.3,1.6-8.7,3.3-12.9
			c0.3-1,1.4-1.3,2.1-1.8C143.4,103.5,142.1,104,141.8,105.2z M167.1,103.4c0.5,0.6,1.2,0.6,1.9,0.8c-1.2,0.2-2.4,0.1-3.5,0.2
			c0.3,0.4,0.7,0.9,1.3,1c1.6,0.2,3.1,0,4.7,0C170.6,103.8,168.8,103.3,167.1,103.4z M138.7,105.4c-1.8,4.4-3.4,8.9-4.2,13.5
			c0.3,0.5,0.9,0.5,1.5,0.5c0-0.1,0-0.2,0-0.2c-0.6,0-0.8-0.3-0.6-0.8c0.9-4.2,2.2-8.3,3.8-12.3c0.2-0.9,0.9-1.6,1.8-1.7
			c0,0,0-0.2,0-0.2C140.2,104.2,139,104.4,138.7,105.4z M101.5,105.8c-2.3,0.1-4.6,0.4-6.7,1.4c-0.5,0.3-1.1,0.6-1.4,1.1
			c1.1,1,2.7,0.2,4,0.3c3.6-0.1,7.3,0,10.9,0c2-0.1,4,0.3,5.9,0c3.7,0,7.5-0.3,11.2-0.6c1.1-0.1,2.2-0.6,3.2,0
			c0.5-0.5,1.2-0.9,1.5-1.6c-0.2-0.9-1.1-1.3-1.9-1.4c-3.1,0-6.2,0-9.3,0.2C113.2,105.3,107.3,105.6,101.5,105.8z M163,109.9
			c-0.4,0.2-0.7,0.8-0.7,1.2c0.3,0.9,0.9,1.7,1.4,2.5c-0.1-0.8-0.4-1.5-0.8-2.2c-0.3-0.4,0-0.9,0.5-1c2.5-0.5,5-1.4,7.3-2.4
			c0.7-0.2-0.2-0.7-0.4-0.9C167.8,107.9,165.6,109.3,163,109.9z M168.2,111.2c-0.3,1.7-0.2,3.7-1.5,5c0,1.1-0.3,2.1-1,3
			c0.3,1.4,0.4,2.8,0.6,4.2c2.5-4.2,3.6-9.2,3.9-14C169.6,110,168.9,110.6,168.2,111.2z M94.7,110.1c1.8,3.5,4,6.7,5.7,10.2
			c-0.7,0.2-1.5,0.2-2.1,0.7c2,0.4,4,0.3,6,0.5c1,0.1,2,0,2.9-0.2c-1.3-0.5-2.9,0-4.2-0.5c1-0.6,2.1-0.8,3.1-1.4
			c-1.2,0.2-2.9,0.9-3.8-0.3c-2-2.2-2-5.6-4.1-7.7C97.3,110.4,95.9,110.2,94.7,110.1z M129.2,110.4c0.4,2.4,0.6,4.9,0.4,7.3
			c0,1-0.9,1.7-1.9,1.7c-4.3,0.5-8.6,1.4-13,1.5l-0.1,0.4c1.6,0,3.2,0,4.8-0.2c3.2-0.2,6.4-0.6,9.5-1.4c0.9-0.2,1.4-1.1,1.3-1.9
			c0-2.5,0.1-5-0.8-7.4C129.3,110.3,129.2,110.3,129.2,110.4z M157.2,110.8c-0.2,1.3-0.3,2.7-0.9,3.9c-0.8,1.9-1.4,4-2.6,5.7
			c-0.2-0.1-0.6-0.4-0.7-0.5c0.3,0.8,0.6,1.6,0.9,2.4c1.1-1.9,1.9-3.9,2.9-5.9c0.6-1.6,1.7-3.1,1.6-4.9
			C158.1,111.2,157.6,111,157.2,110.8z M160.5,112.3c-1,1.3-2,2.7-2.4,4.3c-0.9,2.4-2,4.9-3.6,7c0.1,0.4,0.3,0.9,0.4,1.3
			c0.8-1.2,1.5-2.5,2.3-3.8c1.4-2.4,3-4.8,3.7-7.5c0.1-0.1,0.3-0.3,0.4-0.3c0,1.3,0,2.5,0,3.8c1.4,0.6,1.5,2.2,2,3.4
			c0.7-2.5-0.5-5.1-1.6-7.3C161.4,112.8,161,111.8,160.5,112.3z M160.8,125c0.8,0.5,1.6,0.9,2.4,1.2c0.2,0.1,0.7,0.2,0.6-0.2
			C162.8,125.6,161.9,124.8,160.8,125z"/>
	</g>
	<path class="st0" d="M158.9,64.4c3.6-0.3,7.3-0.1,10.9-0.4v0.2c-6.4,0.8-12.9,1-19.3,2.2c-4,0.8-8.1,1.3-12.1,2
		c-1.2,0.2-2.4,0.4-3.6,0.5l0.1,0.3c-0.5,0-0.9,0-1.4,0c2.4-0.7,5-0.9,7-2.4c-0.4-0.4-0.9-0.7-1.5-0.7c-1.6-0.1-3.1-0.9-4.7-0.9
		c-0.8,0-1.5-0.1-2.2-0.4c3.1-0.2,6.2,0,9.4-0.1C147.3,64.7,153.1,64.6,158.9,64.4z"/>
	<path class="st0" d="M157.4,71.4c0.8-0.2,1.6-0.6,2.5-0.4c3,0.3,6,1.1,8.5,2.9c1.5,0.7,2.8,1.8,3.7,3.2c-0.8,0.2-1.4-0.4-2-0.8
		c-0.8-0.5-1-1.5-1.8-2C165,72.4,161.2,71.3,157.4,71.4z"/>
	<g>
		<path class="st0" d="M114,74.5c0.6-0.2,1.2-0.4,1.9-0.4c-1.2,1.2-2.7,1.9-3.9,3c-2.5,2.2-4.9,4.4-7.4,6.6
			c-0.2,0.2-0.6,0.4-0.5,0.7c0.6,0,1.2,0.1,1.8-0.1c1.2-0.7,2.3-1.6,3.6-2.3c5.2-2.6,10.8-4.2,16.4-5.5c3.3-0.7,6.6-1.6,10-1.3
			c3.6,0.3,7.1,0.9,10.5,1.9c0.8,0.2,1.2,1.2,0.6,1.8c-2.5,3.4-4.9,6.9-7.4,10.3c-0.8,0.2-1.7,0.3-2.5,0.4c-0.2,0.6-1.2-0.2-0.7-0.4
			c1-0.1,1.9-0.2,2.9-0.3c1.9-2.5,3.7-5.1,5.5-7.6c0.7-1,1.5-1.9,1.9-3c-0.5-0.3-0.9-0.5-1.5-0.7c-3.4-1-6.8-1.6-10.4-1.9
			c-3.3-0.1-6.5,0.9-9.7,1.7c-5.2,1.4-10.4,3-15.2,5.4c-3.2,2-6.5,4-9.1,6.8c-0.6,0.7-1.3,1.4-1.5,2.3c0.5,0.1,1,0.3,1.5,0.3
			c8.1-0.1,16.3-0.4,24.3-1.3c-0.2-0.2-0.4-0.4-0.6-0.5c-4.6,0.7-9.4,0.7-14,1.1c-3.5,0.1-7.1,0.4-10.6,0.3c0.4-0.6,0.9-1.2,1.5-1.6
			c7,0,13.9-0.4,20.8-0.9c0.6-0.9,1.1-1.9,2-2.6c0.5,0.4,1,0.9,1.5,1.3c0.9,0.3,1.9,0,2.8-0.1c0.9-0.2,1.8,0.3,2.7,0.3
			c2.5-0.4,5-0.8,7.5-1.1c-0.3,0.5-0.6,1.1-1,1.5c-2.7,0.5-5.4,0.8-8.2,1.1c-0.1,0.1-0.2,0.3-0.2,0.4l0.1,0.2c1.7-0.2,3.3-0.4,5-0.6
			c0.5-0.1,1.1,0,1.5,0.3c-3.1,0.2-6.2,0.6-9.3,1.2c-0.1-0.5,0.4-0.8,0.6-1.1c-0.8,0.1-1.6,0.2-2.5,0.3c0.4,0.3,0.8,0.9,1.4,0.4
			c0,0.1-0.1,0.4-0.2,0.6c-2.2,0.1-4.3,0.6-6.6,0.6c0.2,0.2,0.4,0.4,0.7,0.6c1,0,2.1-0.4,2.9,0.3c-0.1,0.4-0.3,0.9-0.6,1.2
			c-1,1.1-1.9,2.2-2.9,3.3c-0.8,0.9-2.1,0.7-3.2,0.8c-1.8,0-3.7,0.2-5.5,0c-0.4-0.7,0.4-1.2,0.8-1.7c1-1.1,1.8-2.4,3-3.2
			c1.7-0.3,3.4-0.4,5.1-0.5c-0.2-0.2-0.4-0.4-0.6-0.6c-7,0.6-14.1,0.9-21.1,0.7c-0.1-1.1,0.8-1.9,1.4-2.7c1.5-1.8,3.3-3.2,5-4.6
			c-0.6,0-1.1,0-1.7,0c-3.6,3.2-6.8,6.9-10.6,9.9c-2.4,2-5.6,2.2-8.6,2.6c-5.5,0.4-11,0.5-16.5,0.8c-1,0.1-1.9-0.5-2.8-0.8
			c-2.5-1.1-5.2-1.8-7.1-3.8c-1.2-1.2-0.9-3.1-0.8-4.6c-0.9-0.3-1.8-0.6-2.5-1.2c0-0.9,0.4-1.7,0.7-2.6c0.9,0.2,1.6,0.8,2.3,1.2
			c-0.6,1.7-0.4,3.5,0.1,5.2c0.6,1,1.7,1.4,2.6,2.1c2.1,1.4,4.5,2.2,6.8,3c0,0.3,0,0.7,0,1c4.6-0.2,9.2-0.5,13.8-0.7
			c3-0.2,6.1-0.2,9-1.1c2.1-0.6,3.4-2.5,4.8-4c1.9-2.4,3.8-4.7,5.7-7.1c-0.8,0-1.6,0-2.4,0c-1.6,2.2-3.1,4.4-4.7,6.6
			c-0.8,1-1.6,2-2.7,2.6c-1.5,0.8-3.3,0.8-5,1c-4.6,0.3-9.2,0.7-13.8,0.9c-1.2,0.1-2.5,0.3-3.7,0.1c-2.9-1.4-5.8-2.8-8.6-4.3
			c-0.6-0.2-0.8-0.8-1.1-1.4c0.5,0.4,1,0.9,1.6,1.2c2.7,1.4,5.5,2.7,8.4,3.7c6.6-0.1,13.2-0.5,19.7-1.3c1.3-0.1,2.7-0.6,3.6-1.7
			c2-2.4,4-4.8,5.8-7.4c0.7-1.9,1.8-3.7,2.3-5.6c-0.3,0-0.8,0-1-0.1c-0.4-0.6-0.7-1.4-1.5-1.5c-7.3-1.1-14.6-1.6-21.9-2.4
			c0.9,0,1.4-0.7,2.1-1.1c3.7-0.3,7.3,0.3,10.9,0.6c3.6,0.2,7.1,0.8,10.6,1.3c1,0.1,2.1,0.3,3,1c0.5,0.4,0.5,1.1,0.2,1.6
			c-1.1,1.8-2.4,3.6-3.6,5.3c0.9,0,1.8,0,2.6,0c2.2-2.6,4.4-5.3,7.3-6.9C109.8,76.1,111.9,75.3,114,74.5z M127.5,90.3
			c0.5,0,1.4,0.1,1.7-0.3C128.9,89.8,127.4,89.7,127.5,90.3z M116.8,93c-0.8,0.2-1.9,0-2.5,0.7c-1.1,1.3-2.2,2.5-3.2,3.9
			c2.3,0,4.6-0.1,6.9-0.1c0.9,0,1.5-0.7,2-1.3c0.8-1,1.7-1.9,2.5-2.9c0-0.2,0.1-0.5,0.1-0.7C120.7,92.6,118.8,92.9,116.8,93z"/>
	</g>
	<path class="st0" d="M121.2,79.2c2.7-0.8,5.4-1.5,8.1-2.3c3.2-0.5,6.5-0.5,9.7-0.1c-0.8,0.5-1.5,1.1-2.2,1.6
		c-5.1,0.1-10.2,0.5-15.3,1.2c-1.2,0.1-2.3,0.3-3.5,0.7C119,79.8,120.1,79.5,121.2,79.2z"/>
	<g>
		<path class="st0" d="M138,78.3c0.8-0.7,1.8-1.6,2.9-1.1c-0.4,0.4-1,0.6-1.6,0.6c0.2,0.1,0.3,0.3,0.5,0.4c-1.8,1.5-3.6,3.1-5.3,4.8
			c0.2-0.4,0.4-0.7,0.6-1.1c-0.5,0.2-0.9,0-1.3-0.2c-0.3,0.2-0.6,0.4-0.9,0.7c-0.2-0.9-0.6-1.7-0.9-2.5c1.3,0,2.6-0.1,3.9-0.2
			c0.1,0.1,0.2,0.4,0.2,0.5c0.1,0,0.2,0,0.3,0c1-0.7,2-1.4,3.1-1.9C139.1,78.1,138.5,77.8,138,78.3z M134.4,81.3
			c0.6,0.6,1.2-0.3,1-0.9C135.1,80.7,134.7,81,134.4,81.3z"/>
	</g>
	<path class="st0" d="M141,77.1c1.5,0.3,3.1,0.7,4.6,1.1c-0.5,0.8-1.1,1.5-1.8,2.1c-1.2,0-2.4-0.1-3.6-0.1
		C140.7,79.4,141,78.2,141,77.1z"/>
	<path class="st0" d="M60.7,79.4c4-0.4,8-0.5,11.9-0.5c-0.3,0.7-0.5,1.4-0.7,2.1c-3.9-0.1-7.7-0.2-11.6-0.6
		C60.4,80.2,60.6,79.7,60.7,79.4z"/>
	<path class="st0" d="M73.4,78.9c8.1,0.3,16.3,0.7,24.4,1.5c-0.2,0.3-0.3,0.7-0.5,1c-0.6,0.2-1.3,0-2,0c-7.6-0.1-15.1-0.3-22.7-0.4
		C72.9,80.3,73.1,79.6,73.4,78.9z"/>
	<path class="st0" d="M124.4,84.3c-0.2-1.6,0.7-3.5,2.4-3.9c0.9-0.3,1.8,0.4,2.5,1c0.8,0,1.6,0,2.4-0.1c0.3,0.5,0.6,1,0.8,1.5
		c-0.9,0.8-1.8,1.7-2.7,2.6c0.4-1.1,0.5-2.3-0.1-3.3c-0.5-1-1.7-1.8-2.9-1.3c-2.2,0.7-2.6,3.9-1,5.4c0.6,0.7,1.6,0.6,2.3,1.2
		C126.1,87.9,124.5,86.1,124.4,84.3z"/>
	<path class="st0" d="M120.9,80.8c1.4,0,2.7-0.1,4.1-0.2c-0.6,0.9-1.2,1.8-1.2,2.9c-0.2-0.3-0.4-0.5-0.6-0.8c-0.2,0-0.7,0.7-0.8,0.1
		C122,82.2,121.5,81.5,120.9,80.8z"/>
	<g>
		<path class="st0" d="M118,81.1c1.2-0.2,2.6-0.1,3.2,1.1c-0.6,0.1-1.2,0.3-1.8,0.3c-0.4-0.3-0.7-1-1.3-0.9c0.4,0.6,0.9,1.5,1.5,1.9
			c0.7-0.2,1.3-0.4,2-0.6c0.5,1,0.3,2.2,0.3,3.3c-0.7-0.2-1.4-0.2-2.1,0.1c0.1-0.7,0.3-1.5,0-2.2l-0.1,0c0.1,1.5,0,3.4-1.3,4.5
			c-0.9,0.9-2.5,0.8-3.3-0.2c-1.6-1.8-1.4-5.1,0.6-6.5c0.6-0.5,1.3-0.3,2-0.3C117.8,81.3,117.9,81.2,118,81.1z M116.2,81.9
			c-2.4,1.3-2.4,5.4,0,6.7c2.3,0.6,3.5-2.4,3-4.2C119,83,117.8,81.2,116.2,81.9z"/>
	</g>
	<path class="st0" d="M136.8,82.9c1.4-1.8,3.9-1.5,5.9-1.5c-0.2,0.4-0.5,0.8-0.8,1.2C140.2,82.7,138.5,82.9,136.8,82.9z"/>
	<path class="st0" d="M55.4,83.3c0.3-0.7,0.8-1.3,1.3-1.8C56.4,82.2,56.4,83.5,55.4,83.3z"/>
	<path class="st0" d="M60,81.5c3.8,0.1,7.6,0.3,11.4,0.5c-0.3,0.7-0.5,1.4-0.7,2.1c-3.7-0.2-7.3-0.7-10.8-1.5
		C59.9,82.2,60,81.9,60,81.5z"/>
	<path class="st0" d="M126.6,81.7c0.8-0.7,2-0.1,2.4,0.8c0.9,1.5,0.3,3.8-1.6,4.2C125.3,86.1,125,82.9,126.6,81.7z"/>
	<path class="st0" d="M72.3,82c0.8,0.1,1.6,0.2,2.5,0.2c7.3,0.3,14.6,0,21.9,0.3c-0.5,0.6-0.7,1.6-1.6,1.6c-7.8,0-15.6,0-23.4,0
		C71.7,83.4,72,82.7,72.3,82z"/>
	<path class="st0" d="M57.9,82.5c0.2,0,0.6,0,0.7,0c0,0.2,0,0.6-0.1,0.7c-0.3,0-0.6,0-0.9,0C57.8,83,57.8,82.8,57.9,82.5z"/>
	<path class="st0" d="M116.1,82.6c1.9-0.7,3,1.7,2.6,3.3c-0.1,1.2-1.2,2.5-2.5,1.9C114.5,86.6,114.6,83.9,116.1,82.6z"/>
	<path class="st0" d="M59.3,83.7c3.6,0.6,7.3,1.2,11,1.6c-0.2,0.7-0.5,1.4-0.7,2.1c-3.6-0.4-7.1-1.4-10.4-2.6
		C59.2,84.5,59.2,84.1,59.3,83.7z"/>
	<path class="st0" d="M129.7,86.8c0.7-1.2,1.8-2.2,2.8-3.1c0,0.7-0.1,1.5-0.5,2.2C131.4,86.3,130.5,86.5,129.7,86.8z"/>
	<path class="st0" d="M56.2,84.6c0.4-0.2,0.8-0.4,1.2-0.6c-0.1,0.5-0.2,1-0.3,1.4C56.8,85.2,56.3,85.1,56.2,84.6z"/>
	<path class="st0" d="M109.8,84.8c1.1-0.1,2.3-0.2,3.4-0.4c0.4,0.9,0.4,1.9,0.4,2.9c-0.7,0-1.4,0-2.1,0
		C110.6,86.7,110.1,85.8,109.8,84.8z"/>
	<path class="st0" d="M71.1,85.3c7.9,0,15.7-0.1,23.6-0.1c-0.3,0.6-0.7,1.2-1.2,1.7c-7.7,0.1-15.4,0.3-23.1,0.6
		C70.6,86.8,70.9,86,71.1,85.3z"/>
	<path class="st0" d="M104.4,88.9c1.5-1.4,3.1-2.8,4.9-3.8c0,1,0,1.9,0,2.9C107.6,88.3,106,88.7,104.4,88.9z"/>
	<path class="st0" d="M58.9,86.1c3.4,0.9,6.9,1.6,10.4,2.5c-0.2,0.7-0.4,1.5-0.7,2.2c-3.3-0.9-6.6-1.9-9.7-3.5
		C58.9,86.9,58.9,86.5,58.9,86.1z"/>
	<path class="st0" d="M128.1,87.2c-0.4-0.6,0.7-0.8,1.1-0.9C129.3,86.8,128.6,87.2,128.1,87.2z"/>
	<path class="st0" d="M70,88.5c7.6,0.2,15.2-0.3,22.8-0.6c-0.4,0.6-0.8,1.2-1.3,1.7c-7.4,0.5-14.7,0.8-22.1,1.1
		C69.7,90,69.9,89.3,70,88.5z"/>
	<path class="st0" d="M58.6,88.5c3.2,1.3,6.4,2.5,9.7,3.4c-0.2,0.7-0.3,1.4-0.5,2.1c-0.5,0.1-0.9-0.2-1.4-0.4
		c-2.4-1-4.8-1.8-7.1-2.9C58.5,90.2,58.6,89.2,58.6,88.5z"/>
	<path class="st0" d="M159,92.1c1.3-1.4,3.3-2.2,5.2-1.6c-0.4,0.6-1,1.1-1.6,1.6c-0.4,2.8-1,5.5-1.8,8.2c-0.4,0.8-1.1,1.3-1.6,2
		c-1.5-1.2-2.9-2.5-4.4-3.7C155.3,96,157.2,93.9,159,92.1z"/>
	<path class="st0" d="M69.1,91.9c7.2-0.4,14.4-0.7,21.6-1.2c-0.8,1-1.9,1.7-3.2,1.9c-6.2,1-12.6,1-18.9,1.4
		C68.8,93.3,69,92.6,69.1,91.9z"/>
	<path class="st0" d="M163.1,94.9c0.3-1.1,0.2-2.4,0.9-3.4c-0.1,1.3-0.4,2.7-0.4,4C163.5,95.3,163.3,95.1,163.1,94.9z"/>
	<path class="st0" d="M163,95.6c0.6-0.1,0.5,1,0.4,1.3c-0.2,0.2-0.4,0.1-0.5-0.2C162.8,96.4,162.9,96,163,95.6z"/>
	<path class="st0" d="M48.5,100.8c1.2,0.6,2.4,1.4,3.6,2c0,1.6-0.1,3.3-0.2,4.9c-0.7-0.7-0.1-1.9-0.6-2.7
		C50.7,103.5,50,101.9,48.5,100.8z"/>
	<path class="st0" d="M162.1,100.6c0.7,0.9,0,2-0.1,3c-0.5-0.1-1.1-0.2-1.6-0.3C161.1,102.5,162.1,101.7,162.1,100.6z"/>
	<path class="st0" d="M49.5,109.4c0.5,0.7,1,1.3,1.7,1.8c-0.2,0-0.5,0-0.7,0c-0.3-0.3-0.7-0.7-1-1C49.5,110,49.5,109.6,49.5,109.4z"
		/>
</g>
</svg>
