<?xml version="1.0" encoding="UTF-8"?>
<!DOCTYPE svg PUBLIC "-//W3C//DTD SVG 1.1//EN" "http://www.w3.org/Graphics/SVG/1.1/DTD/svg11.dtd">
<!-- Creator: CorelDRAW -->
<svg xmlns="http://www.w3.org/2000/svg" xml:space="preserve" width="84mm" height="53mm" version="1.1" style="shape-rendering:geometricPrecision; text-rendering:geometricPrecision; image-rendering:optimizeQuality; fill-rule:evenodd; clip-rule:evenodd"
viewBox="0 0 8400 5300"
 xmlns:xlink="http://www.w3.org/1999/xlink"
 xmlns:xodm="http://www.corel.com/coreldraw/odm/2003">
 <defs>
  <style type="text/css">
   <![CDATA[
    .fil0 {fill:black}
   ]]>
  </style>
 </defs>
 <g id="Слой_x0020_1">
  <metadata id="CorelCorpID_0Corel-Layer"/>
  <g>
   <path class="fil0" d="M4216.93 2624.6l228.6 -127 -211.66 -1295.4 -16.94 1422.4zm-3613.06 -2184.44l66.93 -37.17 -66.93 -401.5 0 438.67zm7788.2 754.11l0 33.8 -51.66 -37.57 29.74 -14.86 21.92 18.63zm0 54.83l0 17.36 -81.41 -46.21 14.88 -14.88 66.53 43.73zm0 23.73l0 61.85 -88.84 -32.64 0 -81.79 88.84 52.58zm0 1445.76l0 34.68 -44.53 -32.38 29.75 -14.86 14.78 12.56zm0 56.21l0 18 -74.27 -42.15 14.87 -14.88 59.4 39.03zm0 24.2l0 63.44 -81.71 -30.02 0 -81.77 81.71 48.35zm0 1449.98l0 34.7 -44.53 -32.38 29.75 -14.88 14.78 12.56zm0 56.22l0 17.99 -74.27 -42.15 14.87 -14.88 59.4 39.04zm0 24.2l0 63.44 -81.71 -30.02 0 -81.78 81.71 48.36zm-233.5 970.67l-352.88 -127.05 0 -81.8 352.88 208.85zm-900.23 0l-352.87 -127.05 0 -81.8 352.87 208.85zm-900.23 0l-352.86 -127.05 0 -81.8 352.86 208.85zm-900.22 0l-352.87 -127.05 0 -81.8 352.87 208.85zm-900.23 0l-352.87 -127.05 0 -81.8 352.87 208.85zm-900.24 0l-352.87 -127.05 0 -81.8 352.87 208.85zm-900.22 0l-352.87 -127.05 0 -81.8 352.87 208.85zm-900.23 0l-352.87 -127.05 0 -81.8 352.87 208.85zm-900.22 0l-352.88 -127.05 0 -81.8 352.88 208.85zm-964.68 -887.34l0 -49.48 146.82 -82.21 0 81.77 -146.82 49.92zm0 -85.9l0 -26.09 79.9 -64.32 29.74 14.87 -109.64 75.54zm0 -1444.49l0 -49.48 146.82 -82.21 0 81.77 -146.82 49.92zm0 -85.92l0 -26.09 79.9 -64.31 29.74 14.87 -109.64 75.53zm0 -1444.46l0 -49.49 146.82 -82.23 0 81.8 -146.82 49.92zm0 -85.93l0 -26.08 79.9 -64.31 29.74 14.86 -109.64 75.53zm8311.16 -60.66l66.92 -37.17 -66.92 -401.54 0 438.71zm-14.87 0l7.44 -312.3 -22.31 304.87 14.87 7.43zm-37.18 -22.3l-22.3 -14.87 66.92 -401.54 -44.62 416.41zm37.18 118.97l0 -81.79 -371.77 208.2 371.77 -126.41zm-22.31 -104.1l14.88 14.87 -89.23 52.06 74.35 -66.93zm-14.87 -7.44l-29.74 -14.86 -304.85 245.38 334.59 -230.52zm59.18 3075.66l66.93 -37.18 -66.93 -401.55 0 438.73zm-14.87 0l7.44 -312.31 -22.31 304.87 14.87 7.44zm-37.18 -22.32l-22.31 -14.86 66.93 -401.55 -44.62 416.41zm37.18 118.98l0 -81.78 -371.77 208.18 371.77 -126.4zm-22.31 -104.1l14.88 14.87 -89.23 52.05 74.35 -66.92zm-14.87 -7.42l-29.73 -14.88 -304.86 245.39 334.59 -230.51zm52.05 -1515.53l66.93 -37.18 -66.93 -401.52 0 438.7zm-14.87 0l7.44 -312.29 -22.31 304.85 14.87 7.44zm-37.18 -22.31l-22.31 -14.87 66.93 -401.52 -44.62 416.39zm37.18 118.96l0 -81.77 -371.77 208.17 371.77 -126.4zm-22.31 -104.09l14.88 14.86 -89.23 52.07 74.35 -66.93zm-14.87 -7.44l-29.73 -14.86 -304.86 245.37 334.59 -230.51zm-8141.72 -1522.94l14.89 14.86 -0.01 0 0.01 0.01 -89.24 52.05 74.35 -66.92zm7689.1 3878.4l66.92 -37.17 -66.92 -401.51 0 438.68zm-14.86 0l7.42 -312.28 -22.3 304.86 14.88 7.42zm-37.18 -22.31l-22.31 -14.86 66.91 -401.51 -44.6 416.37zm89.22 7.44l29.74 -14.87 297.42 252.81 -327.16 -237.94zm-14.87 14.87l-14.87 14.87 275.11 156.15 -260.24 -171.02zm-37.17 96.67l0 -81.8 -371.77 208.2 371.77 -126.4zm-22.31 -104.09l14.87 14.87 -89.23 52.05 74.36 -66.92zm-14.87 -7.45l-29.74 -14.87 -304.85 245.36 334.59 -230.49zm-848.18 14.87l66.92 -37.17 -66.92 -401.51 0 438.68zm-14.88 0l7.44 -312.28 -22.3 304.86 14.86 7.42zm-37.17 -22.31l-22.31 -14.86 66.92 -401.51 -44.61 416.37zm89.23 7.44l29.74 -14.87 297.41 252.81 -327.15 -237.94zm-14.88 14.87l-14.87 14.87 275.12 156.15 -260.25 -171.02zm-37.18 96.67l0 -81.8 -371.76 208.2 371.76 -126.4zm-22.3 -104.09l14.88 14.87 -89.24 52.05 74.36 -66.92zm-14.87 -7.45l-29.75 -14.87 -304.84 245.36 334.59 -230.49zm-848.17 14.87l66.92 -37.17 -66.92 -401.51 0 438.68zm-14.88 0l7.43 -312.28 -22.31 304.86 14.88 7.42zm-37.18 -22.31l-22.3 -14.86 66.91 -401.51 -44.61 416.37zm89.22 7.44l29.76 -14.87 297.4 252.81 -327.16 -237.94zm-14.86 14.87l-14.88 14.87 275.11 156.15 -260.23 -171.02zm-37.18 96.67l0 -81.8 -371.77 208.2 371.77 -126.4zm-22.3 -104.09l14.87 14.87 -89.23 52.05 74.36 -66.92zm-14.88 -7.45l-29.74 -14.87 -304.85 245.36 334.59 -230.49zm-848.17 14.87l66.91 -37.17 -66.91 -401.51 0 438.68zm-14.87 0l7.42 -312.28 -22.29 304.86 14.87 7.42zm-37.18 -22.31l-22.31 -14.86 66.91 -401.51 -44.6 416.37zm89.23 7.44l29.73 -14.87 297.42 252.81 -327.15 -237.94zm-14.88 14.87l-14.87 14.87 275.11 156.15 -260.24 -171.02zm-37.17 96.67l0 -81.8 -371.78 208.2 371.78 -126.4zm-22.32 -104.09l14.88 14.87 -89.23 52.05 74.35 -66.92zm-14.86 -7.45l-29.76 -14.87 -304.84 245.36 334.6 -230.49zm-848.18 14.87l66.92 -37.17 -66.92 -401.51 0 438.68zm-14.87 0l7.43 -312.28 -22.31 304.86 14.88 7.42zm-37.2 -22.31l-22.29 -14.86 66.92 -401.51 -44.63 416.37zm89.25 7.44l29.74 -14.87 297.41 252.81 -327.15 -237.94zm-14.87 14.87l-14.88 14.87 275.11 156.15 -260.23 -171.02zm-37.18 96.67l0 -81.8 -371.77 208.2 371.77 -126.4zm-22.32 -104.09l14.88 14.87 -89.22 52.05 74.34 -66.92zm-14.88 -7.45l-29.72 -14.87 -304.85 245.36 334.57 -230.49zm-848.17 14.87l66.94 -37.17 -66.94 -401.51 0 438.68zm-14.86 0l7.43 -312.28 -22.3 304.86 14.87 7.42zm-37.19 -22.31l-22.29 -14.86 66.91 -401.51 -44.62 416.37zm89.23 7.44l29.76 -14.87 297.39 252.81 -327.15 -237.94zm-14.87 14.87l-14.86 14.87 275.11 156.15 -260.25 -171.02zm-37.17 96.67l0 -81.8 -371.77 208.2 371.77 -126.4zm-22.31 -104.09l14.88 14.87 -89.23 52.05 74.35 -66.92zm-14.88 -7.45l-29.73 -14.87 -304.85 245.36 334.58 -230.49zm-848.17 14.87l66.93 -37.17 -66.93 -401.51 0 438.68zm-14.87 0l7.44 -312.28 -22.31 304.86 14.87 7.42zm-37.18 -22.31l-22.29 -14.86 66.91 -401.51 -44.62 416.37zm89.24 7.44l29.74 -14.87 297.4 252.81 -327.14 -237.94zm-14.88 14.87l-14.88 14.87 275.12 156.15 -260.24 -171.02zm-37.18 96.67l0 -81.8 -371.78 208.2 371.78 -126.4zm-22.31 -104.09l14.88 14.87 -89.22 52.05 74.34 -66.92zm-14.87 -7.45l-29.76 -14.87 -304.84 245.36 334.6 -230.49zm-848.18 14.87l66.92 -37.17 -66.92 -401.51 0 438.68zm-14.86 0l7.42 -312.28 -22.3 304.86 14.88 7.42zm-37.19 -22.31l-22.3 -14.86 66.91 -401.51 -44.61 416.37zm89.23 7.44l29.74 -14.87 297.41 252.81 -327.15 -237.94zm-14.86 14.87l-14.87 14.87 275.1 156.15 -260.23 -171.02zm-37.18 96.67l0 -81.8 -371.77 208.2 371.77 -126.4zm-22.32 -104.09l14.89 14.87 -89.23 52.05 74.34 -66.92zm-14.87 -7.45l-29.74 -14.87 -304.84 245.36 334.58 -230.49zm-848.18 14.87l66.93 -37.17 -66.93 -401.51 0 438.68zm-14.87 0l7.45 -312.28 -22.31 304.86 14.86 7.42zm-37.18 -22.31l-22.3 -14.86 66.93 -401.51 -44.63 416.37zm89.24 7.44l29.74 -14.87 297.41 252.81 -327.15 -237.94zm-14.88 14.87l-14.86 14.87 275.1 156.15 -260.24 -171.02zm-37.18 96.67l0 -81.8 -371.76 208.2 371.76 -126.4zm-22.3 -104.09l14.88 14.87 -89.23 52.05 74.35 -66.92zm-14.88 -7.45l-29.74 -14.87 -304.84 245.36 334.58 -230.49zm6803.76 -795.32l66.92 -37.19 -66.92 -401.54 0 438.73zm-14.88 0l7.45 -312.31 -22.31 304.87 14.86 7.44zm-37.18 -22.32l-22.29 -14.87 66.92 -401.54 -44.63 416.41zm89.24 7.45l29.74 -14.87 297.41 252.8 -327.15 -237.93zm-14.86 14.87l-14.88 14.88 275.09 156.14 -260.21 -171.02zm-22.32 96.65l0 -81.77 364.33 215.63 -364.33 -133.86zm-14.88 0l0 -81.77 -371.76 208.18 371.76 -126.41zm-22.3 -104.09l14.88 14.87 -89.22 52.05 74.34 -66.92zm-14.88 -7.43l-29.73 -14.87 -304.85 245.39 334.58 -230.52zm-848.18 14.87l66.93 -37.19 -66.93 -401.54 0 438.73zm-14.86 0l7.44 -312.31 -22.32 304.87 14.88 7.44zm-37.18 -22.32l-22.29 -14.87 66.91 -401.54 -44.62 416.41zm89.23 7.45l29.74 -14.87 297.41 252.8 -327.15 -237.93zm-14.87 14.87l-14.86 14.88 275.1 156.14 -260.24 -171.02zm-22.32 96.65l0 -81.77 364.34 215.63 -364.34 -133.86zm-14.86 0l0 -81.77 -371.76 208.18 371.76 -126.41zm-22.3 -104.09l14.88 14.87 -89.23 52.05 74.35 -66.92zm-14.88 -7.43l-29.74 -14.87 -304.84 245.39 334.58 -230.52zm-848.17 14.87l66.92 -37.19 -66.92 -401.54 0 438.73zm-14.88 0l7.45 -312.31 -22.32 304.87 14.87 7.44zm-37.18 -22.32l-22.29 -14.87 66.92 -401.54 -44.63 416.41zm89.25 7.45l29.73 -14.87 297.4 252.8 -327.13 -237.93zm-14.89 14.87l-14.87 14.88 275.11 156.14 -260.24 -171.02zm-22.3 96.65l0 -81.77 364.32 215.63 -364.32 -133.86zm-14.88 0l0 -81.77 -371.77 208.18 371.77 -126.41zm-22.3 -104.09l14.88 14.87 -89.24 52.05 74.36 -66.92zm-14.88 -7.43l-29.75 -14.87 -304.84 245.39 334.59 -230.52zm-848.17 14.87l66.92 -37.19 -5.48 -32.88c-20.35,7.08 -40.85,13.68 -61.44,19.94l0 50.13zm-14.87 0l1.09 -45.94 -13.44 3.97 -2.53 34.53 14.88 7.44zm-37.18 -22.32l-13.78 -9.19 15.21 -4.12 -1.43 13.31zm89.22 7.45l29.75 -14.87 297.41 252.8 -327.16 -237.93zm-14.85 14.87l-14.88 14.88 275.1 156.14 -260.22 -171.02zm-22.32 96.65l0 -81.77 364.33 215.63 -364.33 -133.86zm-14.87 0l0 -81.77 -371.76 208.18 371.76 -126.41zm-22.31 -104.09l14.88 14.87 -89.24 52.05 74.36 -66.92zm-14.87 -7.43l-33.67 -11.71 -300.91 242.23 334.58 -230.52zm-848.18 14.87l44.88 -24.94c-15,-3.64 -29.96,-7.54 -44.88,-11.62l0 36.56zm-14.88 0l0.96 -40.45 -13.12 -3.88 -2.7 36.89 14.86 7.44zm-37.17 -22.32l-22.3 -14.87 3.44 -20.66 21.91 7.04 -3.05 28.49zm89.23 7.45l16.24 -8.12c9.76,2.31 19.54,4.58 29.33,6.7l281.58 239.35 -327.15 -237.93zm-14.88 14.87l-14.86 14.88 275.11 156.14 -260.25 -171.02zm-22.3 96.65l0 -81.77 364.33 215.63 -364.33 -133.86zm-14.88 0l0 -81.77 -371.75 208.18 371.75 -126.41zm-22.3 -104.09l14.88 14.87 -89.23 52.05 74.35 -66.92zm-14.87 -7.43l-29.75 -14.87 -304.83 245.39 334.58 -230.52zm-848.17 14.87l66.92 -37.19 -66.92 -401.54 0 438.73zm-14.88 0l7.44 -312.31 -22.32 304.87 14.88 7.44zm-37.18 -22.32l-22.29 -14.87 66.91 -401.54 -44.62 416.41zm89.23 7.45l29.75 -14.87 297.4 252.8 -327.15 -237.93zm-14.87 14.87l-14.88 14.88 275.12 156.14 -260.24 -171.02zm-22.3 96.65l0 -81.77 364.32 215.63 -364.32 -133.86zm-14.88 0l0 -81.77 -371.76 208.18 371.76 -126.41zm-22.3 -104.09l14.88 14.87 -89.23 52.05 74.35 -66.92zm-14.88 -7.43l-29.74 -14.87 -304.84 245.39 334.58 -230.52zm-848.17 14.87l66.92 -37.19 -66.92 -401.54 0 438.73zm-14.87 0l7.42 -312.31 -22.29 304.87 14.87 7.44zm-37.18 -22.32l-22.31 -14.87 66.91 -401.54 -44.6 416.41zm89.23 7.45l29.74 -14.87 297.41 252.8 -327.15 -237.93zm-14.88 14.87l-14.87 14.88 275.11 156.14 -260.24 -171.02zm-22.3 96.65l0 -81.77 364.33 215.63 -364.33 -133.86zm-14.87 0l0 -81.77 -371.77 208.18 371.77 -126.41zm-22.31 -104.09l14.88 14.87 -89.24 52.05 74.36 -66.92zm-14.87 -7.43l-29.75 -14.87 -304.84 245.39 334.59 -230.52zm-848.18 14.87l66.92 -37.19 -66.92 -401.54 0 438.73zm-14.87 0l7.44 -312.31 -22.31 304.87 14.87 7.44zm-37.18 -22.32l-22.3 -14.87 66.92 -401.54 -44.62 416.41zm89.23 7.45l29.74 -14.87 297.42 252.8 -327.16 -237.93zm-14.87 14.87l-14.88 14.88 275.11 156.14 -260.23 -171.02zm-22.31 96.65l0 -81.77 364.34 215.63 -364.34 -133.86zm-14.87 0l0 -81.77 -371.76 208.18 371.76 -126.41zm-22.31 -104.09l14.88 14.87 -89.23 52.05 74.35 -66.92zm-14.87 -7.43l-29.74 -14.87 -304.84 245.39 334.58 -230.52zm-848.18 14.87l66.93 -37.19 -66.93 -401.54 0 438.73zm-14.87 0l7.43 -312.31 -22.3 304.87 14.87 7.44zm-37.18 -22.32l-22.3 -14.87 66.91 -401.54 -44.61 416.41zm89.23 7.45l29.75 -14.87 297.4 252.8 -327.15 -237.93zm-14.87 14.87l-14.87 14.88 275.12 156.14 -260.25 -171.02zm-22.31 96.65l0 -81.77 364.33 215.63 -364.33 -133.86zm-37.17 -104.09l14.89 14.87 -89.24 52.05 74.35 -66.92zm7689.1 -757.78l66.92 -37.18 -66.92 -401.51 0 438.69zm-14.86 0l7.42 -312.29 -22.3 304.85 14.88 7.44zm-37.18 -22.31l-22.31 -14.87 66.91 -401.51 -44.6 416.38zm89.22 7.45l29.74 -14.88 297.42 252.8 -327.16 -237.92zm-14.87 14.86l-14.87 14.87 275.11 156.14 -260.24 -171.01zm-22.31 96.65l0 -81.78 364.34 215.63 -364.34 -133.85zm-14.86 0l0 -81.78 -371.77 208.19 371.77 -126.41zm-22.31 -104.09l14.87 14.87 -89.23 52.05 74.36 -66.92zm-14.87 -7.42l-29.74 -14.88 -304.85 245.36 334.59 -230.48zm-848.18 14.86l66.92 -37.18 -66.92 -401.51 0 438.69zm-14.88 0l7.44 -312.29 -22.3 304.85 14.86 7.44zm-37.17 -22.31l-22.31 -14.87 66.92 -401.51 -44.61 416.38zm89.23 7.45l29.74 -14.88 297.41 252.8 -327.15 -237.92zm-14.88 14.86l-14.87 14.87 275.12 156.14 -260.25 -171.01zm-22.3 96.65l0 -81.78 364.33 215.63 -364.33 -133.85zm-14.88 0l0 -81.78 -371.76 208.19 371.76 -126.41zm-22.3 -104.09l14.88 14.87 -89.24 52.05 74.36 -66.92zm-14.87 -7.42l-29.75 -14.88 -304.84 245.36 334.59 -230.48zm-848.17 14.86l66.92 -37.18 -66.92 -401.51 0 438.69zm-14.88 0l7.43 -312.29 -22.31 304.85 14.88 7.44zm-37.18 -22.31l-22.3 -14.87 66.91 -401.51 -44.61 416.38zm89.22 7.45l29.76 -14.88 297.4 252.8 -327.16 -237.92zm-14.86 14.86l-14.88 14.87 275.11 156.14 -260.23 -171.01zm-22.3 96.65l0 -81.78 364.32 215.63 -364.32 -133.85zm-14.88 0l0 -81.78 -371.77 208.19 371.77 -126.41zm-22.3 -104.09l14.87 14.87 -89.23 52.05 74.36 -66.92zm-14.88 -7.42l-29.74 -14.88 -304.85 245.36 334.59 -230.48zm-521.77 205.68l37.93 32.24 -37.93 -32.24zm-9.3 11.73l47.23 27.95 -54.04 -19.85 6.81 -8.1zm-2472.17 2.58l-32.03 17.93 36.58 -12.44 -4.55 -5.49zm-7.6 -9.17l-24.43 19.66 24.43 -19.66zm-538.02 -195.96l66.93 -37.18 -66.93 -401.51 0 438.69zm-14.87 0l7.44 -312.29 -22.31 304.85 14.87 7.44zm-37.18 -22.31l-22.29 -14.87 66.91 -401.51 -44.62 416.38zm89.24 7.45l29.74 -14.88 297.4 252.8 -327.14 -237.92zm-14.88 14.86l-14.88 14.87 275.12 156.14 -260.24 -171.01zm-22.31 96.65l0 -81.78 364.33 215.63 -364.33 -133.85zm-14.87 0l0 -81.78 -371.78 208.19 371.78 -126.41zm-22.31 -104.09l14.88 14.87 -89.22 52.05 74.34 -66.92zm-14.87 -7.42l-29.76 -14.88 -304.84 245.36 334.6 -230.48zm-848.18 14.86l66.92 -37.18 -66.92 -401.51 0 438.69zm-14.86 0l7.42 -312.29 -22.3 304.85 14.88 7.44zm-37.19 -22.31l-22.3 -14.87 66.91 -401.51 -44.61 416.38zm89.23 7.45l29.74 -14.88 297.41 252.8 -327.15 -237.92zm-14.86 14.86l-14.87 14.87 275.1 156.14 -260.23 -171.01zm-22.32 96.65l0 -81.78 364.33 215.63 -364.33 -133.85zm-14.86 0l0 -81.78 -371.77 208.19 371.77 -126.41zm-22.32 -104.09l14.89 14.87 -89.23 52.05 74.34 -66.92zm-14.87 -7.42l-29.74 -14.88 -304.84 245.36 334.58 -230.48zm-848.18 14.86l66.93 -37.18 -66.93 -401.51 0 438.69zm-14.87 0l7.45 -312.29 -22.31 304.85 14.86 7.44zm-37.18 -22.31l-22.3 -14.87 66.93 -401.51 -44.63 416.38zm89.24 7.45l29.74 -14.88 297.41 252.8 -327.15 -237.92zm-14.88 14.86l-14.86 14.87 275.1 156.14 -260.24 -171.01zm-22.31 96.65l0 -81.78 364.34 215.63 -364.34 -133.85zm-14.87 0l0 -81.78 -371.76 208.19 371.76 -126.41zm-22.3 -104.09l14.88 14.87 -89.23 52.05 74.35 -66.92zm-14.88 -7.42l-29.74 -14.88 -304.84 245.36 334.58 -230.48zm6803.76 -750.32l66.92 -37.17 -66.92 -401.52 0 438.69zm-14.88 0l7.45 -312.28 -22.31 304.85 14.86 7.43zm-37.18 -22.29l-22.29 -14.88 66.92 -401.52 -44.63 416.4zm89.24 7.42l29.74 -14.87 297.41 252.8 -327.15 -237.93zm-14.86 14.87l-14.88 14.89 275.09 156.13 -260.21 -171.02zm-22.32 96.66l0 -81.77 364.33 215.61 -364.33 -133.84zm-14.88 0l0 -81.77 -371.76 208.17 371.76 -126.4zm-22.3 -104.09l14.88 14.86 -89.22 52.07 74.34 -66.93zm-14.88 -7.44l-29.73 -14.87 -304.85 245.38 334.58 -230.51zm-848.18 14.87l66.93 -37.17 -66.93 -401.52 0 438.69zm-14.86 0l7.44 -312.28 -22.32 304.85 14.88 7.43zm-37.18 -22.29l-22.29 -14.88 66.91 -401.52 -44.62 416.4zm89.23 7.42l29.74 -14.87 297.41 252.8 -327.15 -237.93zm-14.87 14.87l-14.86 14.89 275.1 156.13 -260.24 -171.02zm-22.32 96.66l0 -81.77 364.34 215.61 -364.34 -133.84zm-14.86 0l0 -81.77 -371.76 208.17 371.76 -126.4zm-22.3 -104.09l14.88 14.86 -89.23 52.07 74.35 -66.93zm-14.88 -7.44l-29.74 -14.87 -304.84 245.38 334.58 -230.51zm-621.98 120.51l138.13 117.42 -140 -101.82 1.87 -15.6zm-3.82 31.24l60.17 34.14 -59.51 -39.11 -0.66 4.97zm-1.21 8.89l143.16 84.73 -147.61 -54.23 4.45 -30.5zm-3177.89 4.16l-130.59 73.13 134.2 -45.63 -3.61 -27.5zm-4.08 -36.12l-126.51 101.83 127.98 -88.17 -1.47 -13.66zm-640.1 -113.81l66.92 -37.17 -66.92 -401.52 0 438.69zm-14.87 0l7.42 -312.28 -22.29 304.85 14.87 7.43zm-37.18 -22.29l-22.31 -14.88 66.91 -401.52 -44.6 416.4zm89.23 7.42l29.74 -14.87 297.41 252.8 -327.15 -237.93zm-14.88 14.87l-14.87 14.89 275.11 156.13 -260.24 -171.02zm-22.3 96.66l0 -81.77 364.33 215.61 -364.33 -133.84zm-14.87 0l0 -81.77 -371.77 208.17 371.77 -126.4zm-22.31 -104.09l14.88 14.86 -89.24 52.07 74.36 -66.93zm-14.87 -7.44l-29.75 -14.87 -304.84 245.38 334.59 -230.51zm-848.18 14.87l66.92 -37.17 -66.92 -401.52 0 438.69zm-14.87 0l7.44 -312.28 -22.31 304.85 14.87 7.43zm-37.18 -22.29l-22.3 -14.88 66.92 -401.52 -44.62 416.4zm89.23 7.42l29.74 -14.87 297.42 252.8 -327.16 -237.93zm-14.87 14.87l-14.88 14.89 275.11 156.13 -260.23 -171.02zm-22.31 96.66l0 -81.77 364.34 215.61 -364.34 -133.84zm-14.87 0l0 -81.77 -371.76 208.17 371.76 -126.4zm-22.31 -104.09l14.88 14.86 -89.23 52.07 74.35 -66.93zm-14.87 -7.44l-29.74 -14.87 -304.84 245.38 334.58 -230.51zm-848.18 14.87l66.93 -37.17 -66.93 -401.52 0 438.69zm-14.87 0l7.43 -312.28 -22.3 304.85 14.87 7.43zm-37.18 -22.29l-22.3 -14.88 66.91 -401.52 -44.61 416.4zm89.23 7.42l29.75 -14.87 297.4 252.8 -327.15 -237.93zm-14.87 14.87l-14.87 14.89 275.12 156.13 -260.25 -171.02zm-22.31 96.66l0 -81.77 364.33 215.61 -364.33 -133.84zm-37.17 -104.09l14.89 14.86 -89.24 52.07 74.35 -66.93zm7689.1 -757.77l66.92 -37.16 -66.92 -401.52 0 438.68zm-14.86 0l7.42 -312.29 -22.3 304.86 14.88 7.43zm-37.18 -22.3l-22.31 -14.86 66.91 -401.52 -44.6 416.38zm89.22 7.43l29.74 -14.87 297.42 252.79 -327.16 -237.92zm-14.87 14.87l-14.87 14.88 275.11 156.14 -260.24 -171.02zm-22.31 96.66l0 -81.78 364.34 215.62 -364.34 -133.84zm-14.86 0l0 -81.78 -371.77 208.17 371.77 -126.39zm-22.31 -104.09l14.87 14.88 -89.23 52.04 74.36 -66.92zm-14.87 -7.44l-29.74 -14.87 -304.85 245.36 334.59 -230.49zm-848.18 14.87l66.92 -37.16 -66.92 -401.52 0 438.68zm-14.88 0l7.44 -312.29 -22.3 304.86 14.86 7.43zm-37.17 -22.3l-22.31 -14.86 66.92 -401.52 -44.61 416.38zm89.23 7.43l29.74 -14.87 297.41 252.79 -327.15 -237.92zm-14.88 14.87l-14.87 14.88 275.12 156.14 -260.25 -171.02zm-22.3 96.66l0 -81.78 364.33 215.62 -364.33 -133.84zm-14.88 0l0 -81.78 -371.76 208.17 371.76 -126.39zm-22.3 -104.09l14.88 14.88 -89.24 52.04 74.36 -66.92zm-14.87 -7.44l-29.75 -14.87 -304.84 245.36 334.59 -230.49zm-848.17 14.87l66.92 -37.16 -66.92 -401.52 0 438.68zm-14.88 0l7.43 -312.29 -22.31 304.86 14.88 7.43zm-37.18 -22.3l-22.3 -14.86 66.91 -401.52 -44.61 416.38zm89.22 7.43l29.76 -14.87 297.4 252.79 -327.16 -237.92zm-14.86 14.87l-14.88 14.88 275.11 156.14 -260.23 -171.02zm-22.3 96.66l0 -81.78 364.32 215.62 -364.32 -133.84zm-14.88 0l0 -81.78 -279.02 156.23 5.91 18.4 273.11 -92.85zm-22.3 -104.09l14.87 14.88 -89.23 52.04 74.36 -66.92zm-14.88 -7.44l-29.74 -14.87 -220.04 177.1 2.72 7.96 247.06 -170.19zm-3548.86 14.87l66.93 -37.16 -66.93 -401.52 0 438.68zm-14.87 0l7.44 -312.29 -22.31 304.86 14.87 7.43zm-37.18 -22.3l-22.29 -14.86 66.91 -401.52 -44.62 416.38zm89.24 7.43l29.74 -14.87 209.74 178.28 -2.95 8.61 -236.53 -172.02zm-14.88 14.87l-14.88 14.88 263.78 149.7 0.28 -0.83 -249.18 -163.75zm-22.31 96.66l0 -81.78 268.23 158.74 -6.19 19.3 -262.04 -96.26zm-14.87 0l0 -81.78 -371.78 208.17 371.78 -126.39zm-22.31 -104.09l14.88 14.88 -89.22 52.04 74.34 -66.92zm-14.87 -7.44l-29.76 -14.87 -304.84 245.36 334.6 -230.49zm-848.18 14.87l66.92 -37.16 -66.92 -401.52 0 438.68zm-14.86 0l7.42 -312.29 -22.3 304.86 14.88 7.43zm-37.19 -22.3l-22.3 -14.86 66.91 -401.52 -44.61 416.38zm89.23 7.43l29.74 -14.87 297.41 252.79 -327.15 -237.92zm-14.86 14.87l-14.87 14.88 275.1 156.14 -260.23 -171.02zm-22.32 96.66l0 -81.78 364.33 215.62 -364.33 -133.84zm-14.86 0l0 -81.78 -371.77 208.17 371.77 -126.39zm-22.32 -104.09l14.89 14.88 -89.23 52.04 74.34 -66.92zm-14.87 -7.44l-29.74 -14.87 -304.84 245.36 334.58 -230.49zm-848.18 14.87l66.93 -37.16 -66.93 -401.52 0 438.68zm-14.87 0l7.45 -312.29 -22.31 304.86 14.86 7.43zm-37.18 -22.3l-22.3 -14.86 66.93 -401.52 -44.63 416.38zm89.24 7.43l29.74 -14.87 297.41 252.79 -327.15 -237.92zm-14.88 14.87l-14.86 14.88 275.1 156.14 -260.24 -171.02zm-22.31 96.66l0 -81.78 364.34 215.62 -364.34 -133.84zm-14.87 0l0 -81.78 -371.76 208.17 371.76 -126.39zm-22.3 -104.09l14.88 14.88 -89.23 52.04 74.35 -66.92zm-14.88 -7.44l-29.74 -14.87 -304.84 245.36 334.58 -230.49zm6803.76 -750.32l66.92 -37.18 -66.92 -401.53 0 438.71zm-14.88 0l7.45 -312.31 -22.31 304.89 14.86 7.42zm-37.18 -22.3l-22.29 -14.88 66.92 -401.53 -44.63 416.41zm89.24 7.43l29.74 -14.86 297.41 252.81 -327.15 -237.95zm-14.86 14.87l-14.88 14.87 275.09 156.17 -260.21 -171.04zm-22.32 96.67l0 -81.8 364.33 215.64 -364.33 -133.84zm-14.88 0l0 -81.8 -371.76 208.21 371.76 -126.41zm-22.3 -104.09l14.88 14.86 -89.22 52.06 74.34 -66.92zm-14.88 -7.45l-29.73 -14.86 -304.85 245.37 334.58 -230.51zm-848.18 14.87l66.93 -37.18 -66.93 -401.53 0 438.71zm-14.86 0l7.44 -312.31 -22.32 304.89 14.88 7.42zm-37.18 -22.3l-22.29 -14.88 66.91 -401.53 -44.62 416.41zm89.23 7.43l29.74 -14.86 297.41 252.81 -327.15 -237.95zm-14.87 14.87l-14.86 14.87 275.1 156.17 -260.24 -171.04zm-22.32 96.67l0 -81.8 364.34 215.64 -364.34 -133.84zm-14.86 0l0 -81.8 -371.76 208.21 371.76 -126.41zm-22.3 -104.09l14.88 14.86 -89.23 52.06 74.35 -66.92zm-14.88 -7.45l-29.74 -14.86 -304.84 245.37 334.58 -230.51zm-848.17 14.87l66.92 -37.18 -66.92 -401.53 0 438.71zm-14.88 0l7.45 -312.31 -22.32 304.89 14.87 7.42zm-37.18 -22.3l-22.29 -14.88 66.92 -401.53 -44.63 416.41zm89.25 7.43l29.73 -14.86 297.4 252.81 -327.13 -237.95zm-14.89 14.87l-14.87 14.87 275.11 156.17 -260.24 -171.04zm-22.3 96.67l0 -81.8 364.32 215.64 -364.32 -133.84zm-14.88 0l0 -81.8 -331.08 185.42 7.65 6.35 323.43 -109.97zm-22.3 -104.09l14.88 14.86 -89.24 52.06 74.36 -66.92zm-14.88 -7.45l-29.75 -14.86 -274.8 221.19 2.3 1.9 302.25 -208.23zm-787.51 -59.88l-60.66 -363.96 0 344.53c20.34,6.03 40.54,12.58 60.66,19.43zm-73.21 -22.94l5.11 -214.62 -15.49 211.71 10.38 2.91zm-49.49 -13.37l54.6 -327.65 -35.62 332.47 -18.98 -4.82zm-784.1 -3.18l-54.09 -324.47 0 338.67c17.96,-5.03 35.99,-9.79 54.09,-14.2zm-66.67 17.77l5.15 -215.84 -16.02 218.93 10.87 -3.09zm-54.69 16.81l59.84 -359.05 -37.72 352.03 -22.12 7.02zm-832.95 79.66l66.92 -37.18 -66.92 -401.53 0 438.71zm-14.88 0l7.44 -312.31 -22.32 304.89 14.88 7.42zm-37.18 -22.3l-22.29 -14.88 66.91 -401.53 -44.62 416.41zm89.23 7.43l29.75 -14.86 263.04 223.6 -2.72 2.24 -290.07 -210.98zm-14.87 14.87l-14.88 14.87 275.12 156.17 -260.24 -171.04zm-22.3 96.67l0 -81.8 318.45 188.49 -8.64 7.13 -309.81 -113.82zm-14.88 0l0 -81.8 -371.76 208.21 371.76 -126.41zm-22.3 -104.09l14.88 14.86 -89.23 52.06 74.35 -66.92zm-14.88 -7.45l-29.74 -14.86 -304.84 245.37 334.58 -230.51zm-848.17 14.87l66.92 -37.18 -66.92 -401.53 0 438.71zm-14.87 0l7.42 -312.31 -22.29 304.89 14.87 7.42zm-37.18 -22.3l-22.31 -14.88 66.91 -401.53 -44.6 416.41zm89.23 7.43l29.74 -14.86 297.41 252.81 -327.15 -237.95zm-14.88 14.87l-14.87 14.87 275.11 156.17 -260.24 -171.04zm-22.3 96.67l0 -81.8 364.33 215.64 -364.33 -133.84zm-14.87 0l0 -81.8 -371.77 208.21 371.77 -126.41zm-22.31 -104.09l14.88 14.86 -89.24 52.06 74.36 -66.92zm-14.87 -7.45l-29.75 -14.86 -304.84 245.37 334.59 -230.51zm-848.18 14.87l66.92 -37.18 -66.92 -401.53 0 438.71zm-14.87 0l7.44 -312.31 -22.31 304.89 14.87 7.42zm-37.18 -22.3l-22.3 -14.88 66.92 -401.53 -44.62 416.41zm89.23 7.43l29.74 -14.86 297.42 252.81 -327.16 -237.95zm-14.87 14.87l-14.88 14.87 275.11 156.17 -260.23 -171.04zm-22.31 96.67l0 -81.8 364.34 215.64 -364.34 -133.84zm-14.87 0l0 -81.8 -371.76 208.21 371.76 -126.41zm-22.31 -104.09l14.88 14.86 -89.23 52.06 74.35 -66.92zm-14.87 -7.45l-29.74 -14.86 -304.84 245.37 334.58 -230.51zm-848.18 14.87l66.93 -37.18 -66.93 -401.53 0 438.71zm-14.87 0l7.43 -312.31 -22.3 304.89 14.87 7.42zm-37.18 -22.29l-22.3 -14.89 66.91 -401.53 -44.61 416.42zm89.23 7.42l29.75 -14.86 297.4 252.81 -327.15 -237.95zm-14.87 14.87l-14.87 14.87 275.12 156.17 -260.25 -171.04zm-22.31 96.67l0 -81.8 364.33 215.64 -364.33 -133.84zm7651.93 -861.88l66.92 -37.17 -66.92 -401.5 0 438.67zm-14.86 0l7.42 -312.26 -22.3 304.85 14.88 7.41zm-37.18 -22.29l-22.31 -14.88 66.91 -401.5 -44.6 416.38zm89.22 7.44l29.74 -14.87 297.42 252.8 -327.16 -237.93zm-14.87 14.85l-14.87 14.89 275.11 156.15 -260.24 -171.04zm-22.31 96.67l0 -81.78 364.34 215.62 -364.34 -133.84zm-14.86 0l0 -81.78 -371.77 208.19 371.77 -126.41zm-22.31 -104.08l14.87 14.86 -89.23 52.06 74.36 -66.92zm-14.87 -7.44l-29.74 -14.87 -304.85 245.36 334.59 -230.49zm-848.18 14.85l66.92 -37.17 -66.92 -401.5 0 438.67zm-14.88 0l7.44 -312.26 -22.3 304.85 14.86 7.41zm-37.17 -22.29l-22.31 -14.88 66.92 -401.5 -44.61 416.38zm89.23 7.44l29.74 -14.87 297.41 252.8 -327.15 -237.93zm-14.88 14.85l-14.87 14.89 275.12 156.15 -260.25 -171.04zm-22.3 96.67l0 -81.78 364.33 215.62 -364.33 -133.84zm-14.88 0l0 -81.78 -371.76 208.19 371.76 -126.41zm-22.3 -104.08l14.88 14.86 -89.24 52.06 74.36 -66.92zm-14.87 -7.44l-29.75 -14.87 -304.84 245.36 334.59 -230.49zm-848.17 14.85l66.92 -37.17 -66.92 -401.5 0 438.67zm-14.88 0l7.43 -312.26 -22.31 304.85 14.88 7.41zm-37.18 -22.29l-22.3 -14.88 66.91 -401.5 -44.61 416.38zm89.22 7.44l29.76 -14.87 297.4 252.8 -327.16 -237.93zm-14.86 14.85l-14.88 14.89 275.11 156.15 -260.23 -171.04zm-22.3 96.67l0 -81.78 364.32 215.62 -364.32 -133.84zm-14.88 0l0 -81.78 -371.77 208.19 371.77 -126.41zm-22.3 -104.08l14.87 14.86 -89.23 52.06 74.36 -66.92zm-14.88 -7.44l-29.74 -14.87 -304.85 245.36 334.59 -230.49zm-848.17 14.85l66.91 -37.17 -66.91 -401.5 0 438.67zm-14.87 0l7.42 -312.26 -22.29 304.85 14.87 7.41zm-37.18 -22.29l-22.31 -14.88 66.91 -401.5 -44.6 416.38zm89.23 7.44l29.73 -14.87 297.42 252.8 -327.15 -237.93zm-14.88 14.85l-14.87 14.89 275.11 156.15 -260.24 -171.04zm-22.3 96.67l0 -81.78 364.33 215.62 -364.33 -133.84zm-14.87 0l0 -81.78 -371.78 208.19 371.78 -126.41zm-22.32 -104.08l14.88 14.86 -89.23 52.06 74.35 -66.92zm-14.86 -7.44l-29.76 -14.87 -304.84 245.36 334.6 -230.49zm-848.18 14.85l66.92 -37.17 -66.92 -401.5 0 438.67zm-14.87 0l7.43 -312.26 -22.31 304.85 14.88 7.41zm-37.2 -22.29l-22.29 -14.88 66.92 -401.5 -44.63 416.38zm89.25 7.44l29.74 -14.87 297.41 252.8 -327.15 -237.93zm-14.87 14.85l-14.88 14.89 275.11 156.15 -260.23 -171.04zm-22.31 96.67l0 -81.78 364.33 215.62 -364.33 -133.84zm-14.87 0l0 -81.78 -371.77 208.19 371.77 -126.41zm-22.32 -104.08l14.88 14.86 -89.22 52.06 74.34 -66.92zm-14.88 -7.44l-29.72 -14.87 -304.85 245.36 334.57 -230.49zm-848.17 14.85l66.94 -37.17 -66.94 -401.5 0 438.67zm-14.86 0l7.43 -312.26 -22.3 304.85 14.87 7.41zm-37.19 -22.29l-22.29 -14.88 66.91 -401.5 -44.62 416.38zm89.23 7.44l29.76 -14.87 297.39 252.8 -327.15 -237.93zm-14.87 14.85l-14.86 14.89 275.11 156.15 -260.25 -171.04zm-22.31 96.67l0 -81.78 364.33 215.62 -364.33 -133.84zm-14.86 0l0 -81.78 -371.77 208.19 371.77 -126.41zm-22.31 -104.08l14.88 14.86 -89.23 52.06 74.35 -66.92zm-14.88 -7.44l-29.73 -14.87 -304.85 245.36 334.58 -230.49zm-848.17 14.85l66.93 -37.17 -66.93 -401.5 0 438.67zm-14.87 0l7.44 -312.26 -22.31 304.85 14.87 7.41zm-37.18 -22.29l-22.29 -14.88 66.91 -401.5 -44.62 416.38zm89.24 7.44l29.74 -14.87 297.4 252.8 -327.14 -237.93zm-14.88 14.85l-14.88 14.89 275.12 156.15 -260.24 -171.04zm-22.31 96.67l0 -81.78 364.33 215.62 -364.33 -133.84zm-14.87 0l0 -81.78 -371.78 208.19 371.78 -126.41zm-22.31 -104.08l14.88 14.86 -89.22 52.06 74.34 -66.92zm-14.87 -7.44l-29.76 -14.87 -304.84 245.36 334.6 -230.49zm-848.18 14.85l66.92 -37.17 -66.92 -401.5 0 438.67zm-14.86 0l7.42 -312.26 -22.3 304.85 14.88 7.41zm-37.19 -22.29l-22.3 -14.88 66.91 -401.5 -44.61 416.38zm89.23 7.44l29.74 -14.87 297.41 252.8 -327.15 -237.93zm-14.86 14.85l-14.87 14.89 275.1 156.15 -260.23 -171.04zm-22.32 96.67l0 -81.78 364.33 215.62 -364.33 -133.84zm-14.86 0l0 -81.78 -371.77 208.19 371.77 -126.41zm-22.32 -104.08l14.89 14.86 -89.23 52.06 74.34 -66.92zm-14.87 -7.44l-29.74 -14.87 -304.84 245.36 334.58 -230.49zm-863.05 14.85l7.45 -312.26 -22.31 304.85 14.86 7.41zm-37.18 -22.29l-22.3 -14.88 66.93 -401.5 -44.63 416.38zm89.24 7.44l29.74 -14.87 297.41 252.8 -327.15 -237.93zm-14.88 14.85l-14.86 14.89 275.1 156.15 -260.24 -171.04zm-22.31 96.67l0 -81.78 364.34 215.62 -364.34 -133.84zm-14.87 0l0 -81.78 -371.76 208.19 371.76 -126.41zm-22.3 -104.08l14.88 14.86 -89.23 52.06 74.35 -66.92zm-14.88 -7.44l-29.74 -14.87 -304.84 245.36 334.58 -230.49zm2166.51 2241.62c0,-821.26 668.87,-1490.13 1490.14,-1490.13 821.26,0 1490.13,660.4 1490.13,1481.67 0,0 8.47,-8.47 8.47,-8.47 0,-838.2 -677.34,-1515.53 -1515.54,-1515.53 -838.2,0 -1515.53,677.33 -1515.53,1515.53 0,838.2 677.33,1515.53 1515.53,1515.53 0,0 8.47,0 8.47,0 -821.27,-8.46 -1481.67,-677.33 -1481.67,-1498.6zm2988.74 -8.46c-8.47,829.73 -677.34,1498.6 -1507.07,1507.06 8.47,0 8.47,0 8.47,0 829.73,0 1498.6,-668.86 1498.6,-1498.6 0,0 0,0 0,-8.46zm-406.4 -905.94c203.2,245.54 321.73,567.27 321.73,905.94 0,795.86 -635,1430.86 -1422.4,1430.86 -787.4,0 -1422.4,-626.53 -1430.87,-1405.46 0,8.46 0,16.93 0,16.93 0,804.33 643.47,1430.87 1439.34,1430.87 804.33,0 1430.86,-626.54 1430.86,-1430.87 0,-364.07 -118.53,-694.27 -338.66,-948.27zm-1117.6 863.6l16.93 -1024.46 -76.2 1007.53 59.27 16.93zm-118.54 -67.73l-93.13 -50.8 237.07 -1312.33 -143.94 1363.13zm296.34 42.33l84.66 -59.26 973.67 821.26 -1058.33 -762zm-59.27 33.87l-59.27 42.33 905.94 524.94 -846.67 -567.27zm-76.2 313.27l0 -262.47 1185.33 711.2 -1185.33 -448.73zm-50.8 8.46l0 -279.4 -1210.73 702.74 1210.73 -423.34zm-67.73 -330.2l50.8 42.34 -304.8 160.86 254 -203.2zm-59.27 -33.86l-93.13 -50.8 -1007.54 812.8 1100.67 -762z"/>
  </g>
 </g>
</svg>
