<?xml version="1.0" encoding="utf-8"?>
<!-- Generator: Adobe Illustrator 26.0.3, SVG Export Plug-In . SVG Version: 6.00 Build 0)  -->
<svg version="1.1" id="Слой_14" xmlns="http://www.w3.org/2000/svg" xmlns:xlink="http://www.w3.org/1999/xlink" x="0px"
	 y="0px" viewBox="0 0 239.5 150.2" style="enable-background:new 0 0 239.5 150.2;" xml:space="preserve">
<style type="text/css">
	.st0{fill:#373435;}
</style>
<g>
	<g>
		<path class="st0" d="M156,43.2c4.1-0.9,8.4-1.4,12.6-1.3c2.9,0,5.9-0.1,8.8,0.2c4.8,0.4,9.6,1.5,14.2,2.9l0.2,0.1
			c5.3,1.8,10.5,4.4,14.6,8.3c2.6,2.6,4.6,5.9,4.8,9.6c0.2,3.2-1,6.5-3,9c-3,3.9-7.3,6.5-11.7,8.6c-11.2,4.9-23.8,6-35.8,4.5
			c-7.7-1.1-15.4-3.2-22-7.3c-3.2-2.1-6.2-4.6-7.9-8c-1.7-2.9-2.1-6.5-1.1-9.6c1.2-3.7,3.9-6.6,6.9-8.9
			C142.3,47,149.1,44.6,156,43.2z M163,44.5c-4.1,0.4-8.1,1.3-12.1,2.4c-5.2,1.7-10.4,4-14.4,7.8c-2.4,2.4-4.4,5.7-4.3,9.2
			c0,3.4,1.9,6.5,4.2,8.9c3.2,3.1,7.1,5.2,11.3,6.8c2.3,0.9,4.7,1.5,7,2.1c7.5,1.8,15.3,2,22.9,1.4c4.6-0.4,9.2-1.5,13.6-2.9
			c2.4-0.9,4.8-1.8,7-3.1c3.3-1.8,6.4-4.3,8.4-7.5c1.9-2.9,2.2-6.8,0.8-10c-2.1-4.8-6.7-7.8-11.2-10.1c-3.2-1.5-6.5-2.7-9.9-3.4
			C178.7,44,170.8,43.7,163,44.5z"/>
	</g>
	<path class="st0" d="M156.1,54.1c1.2-2.6,1.8-5.4,2.6-8.1c0.1,0.1,0.4,0.3,0.5,0.3c0.1,0.4,0.1,0.8,0.2,1.1c0.4,1.7,0.9,3.4,1.5,5
		c0.4,1.1,0.8,2.2,1.8,3c0.9,0.7,2.2,0.8,3.3,1.1c5,0.8,10,1.2,15,1.8c3.1,0.4,6.2-0.2,9.3-0.6c0.7-0.1,1.7-0.2,2-1
		c0.5-1.1,0.8-2.2,1-3.3c0.2,0,0.4-0.1,0.5-0.1c0.3,1.1,0.5,2.3,1,3.3c0.5,0.8,1.5,0.9,2.3,1.1c1.8,0.2,3.6,0.5,5.4,0.7
		c0,0.2,0,0.4,0.1,0.5c-2,0.3-4,0.5-6,0.9c-0.7,0.1-1.5,0.4-1.8,1.1c-0.5,1.3-0.8,2.6-1,3.9c-0.1,0-0.4-0.1-0.5-0.2
		c-0.4-1.3-0.6-2.7-1.2-4c-0.2-0.5-0.7-0.7-1.2-0.8c-2.2-0.4-4.4-0.6-6.6-0.9c-2.3-0.2-4.5,0.3-6.8,0.5c-4.1,0.5-8.3,0.9-12.4,1.6
		c-1.2,0.2-2.5,0.7-3.2,1.7c-0.9,1.4-1.2,3.1-1.6,4.6c-0.4,1.9-1,3.9-1.2,5.9c-0.2,0.1-0.4,0.1-0.6,0.2c-0.6-3.2-1.3-6.5-2.4-9.6
		c-0.5-1.6-2.2-2.6-3.8-2.8c-5.6-1-11.3-1.4-17-2.1c0-0.2,0-0.4,0-0.5c5.7-0.6,11.3-1,16.9-2.1C153.9,56.2,155.5,55.6,156.1,54.1z"
		/>
	<path class="st0" d="M181.3,61.5c0.1,0,0.3,0,0.4,0c0.4,1.1,0.6,2.2,1.1,3.2c0.5,1,1.7,1,2.6,1.2c1.8,0.3,3.6,0.7,5.4,0.6
		c1.8,0.1,3.6-0.4,5.4-0.8c1-0.3,1.3-1.4,1.5-2.3c0.2-0.5,0.2-1.1,0.8-1.2c0.5,1.2,0.4,2.9,1.8,3.5c1.9,0.5,3.9,0.6,5.8,1.1
		c0,0.1-0.1,0.3-0.1,0.4c-1.8,0.3-3.5,0.4-5.3,0.8c-0.6,0.1-1.1,0.5-1.3,1.1c-0.4,1-0.5,2-0.8,3.1c-0.1,0-0.3,0-0.4,0.1
		c-0.6-1.3-0.4-3-1.6-4c-2.1-0.6-4.2-1-6.4-0.9c-2.1,0.2-4.3,0.4-6.4,1c-1.3,0.5-1.4,2.2-1.7,3.3c-0.2,0.5,0,1.4-0.8,1.6
		c-0.3-1.2-0.5-2.4-0.8-3.5c-0.2-0.8-0.9-1.5-1.8-1.6c-2.1-0.3-4.2-0.6-6.3-0.8c-0.3,0-0.7-0.1-0.9-0.4c0.6-0.3,1.2-0.3,1.8-0.4
		c1.8-0.2,3.6-0.4,5.4-0.8c0.6-0.1,1.3-0.4,1.6-1.1C180.8,63.6,181,62.5,181.3,61.5z"/>
	<path class="st0" d="M168.4,72.1c0.4-0.8,0.4-1.8,1-2.6c0.7,1.2,0.6,2.7,1.5,3.9c0.6,0.7,1.6,0.7,2.5,0.8c2.3,0.3,4.5,0.9,6.8,0.6
		c1.6-0.2,3.2-0.5,4.8-0.8c0.5-0.1,0.9-0.6,1.1-1.1c0.3-0.8,0.6-1.6,0.7-2.5c0.2,0,0.4-0.1,0.5-0.1c0.3,1,0.5,2.1,1.1,3.1
		c0.4,0.6,1.1,0.6,1.7,0.8c2,0.3,4.1,0.6,6.1,0.8c0,0.2-0.1,0.4-0.1,0.6c-1.8,0.1-3.7,0.4-5.5,0.6c-0.8,0.1-1.8,0.1-2.3,0.9
		c-0.6,0.9-0.7,2-1,3.1c-0.1,0-0.3,0-0.4,0c-0.4-1.1-0.5-2.2-1.1-3.2c-0.4-0.6-1.1-0.6-1.7-0.7c-2.3-0.3-4.7-0.9-7-0.6
		c-1.6,0.3-3.3,0.5-4.9,0.7c-0.6,0.1-1.2,0.4-1.5,0.9c-0.7,1.3-0.8,2.8-1.2,4.2c-0.1,0-0.3-0.1-0.4-0.1c-0.3-1.5-0.5-3-1.4-4.3
		c-0.4-0.6-1.2-0.7-1.8-0.8c-2.1-0.3-4.3-0.6-6.4-0.7c0-0.2,0-0.4,0-0.6c2.4-0.2,4.8-0.5,7.2-0.9C167.7,73.8,168.1,72.9,168.4,72.1z
		"/>
	<path class="st0" d="M133,93.8c1.3,0,2.5,0,3.8,0c0,3.3,0,6.7,0,10c0.3,0.3,0.6,0.6,0.9,0.9c2.4,0.1,4.9,0.1,7.3,0
		c0.6,0,1.2-0.4,1.3-1c0.1-0.5,0.1-1.1,0.1-1.6c0-2.8,0-5.6,0-8.4c1.2,0,2.4,0,3.6,0c0.2,0.6,0.2,1.3,0.2,1.9c0,2.5,0,5.1,0,7.6
		c0,1.3-0.2,2.7-1.1,3.7c-0.7,0.9-1.9,1.2-3,1.3c-2.8,0.1-5.6,0.1-8.3,0c-1.1,0-2.3-0.1-3.2-0.8c-1.1-0.8-1.6-2.2-1.6-3.5
		C133,100.5,133,97.1,133,93.8z"/>
	<path class="st0" d="M222.3,93.8c1.2,0,2.5,0,3.7,0v11.4c-0.3,1.7-1.9,3-3.6,3c-2.8,0.2-5.6,0.1-8.3,0.1c-1.3,0-2.6-0.1-3.7-0.9
		c-0.9-0.7-1.5-1.9-1.4-3c0-3.5,0-7.1,0-10.6c1.2,0,2.5,0,3.7,0c0.1,3.2,0,6.5,0.1,9.7c0,0.7,0.7,1.3,1.3,1.2c2.3,0.1,4.6,0.1,7,0
		c0.7,0,1.3-0.7,1.2-1.4C222.3,100.1,222.2,96.9,222.3,93.8z"/>
	<path class="st0" d="M114.7,95.2c0.9-0.9,2.3-1.4,3.6-1.5c2.9-0.1,5.9-0.1,8.8,0c1.2,0.1,2.5,0.3,3.3,1.3c0.8,0.9,0.9,2.2,0.9,3.4
		c-1.3,0-2.6,0-3.8,0c0-0.6-0.1-1.5-0.9-1.5c-2.4-0.2-4.9-0.1-7.3,0c-0.5,0.1-1.1,0-1.4,0.4c-0.5,0.6,0,1.7,0.8,1.6
		c3.1,0.3,6.3,0.3,9.5,0.5c1,0.1,2,0.4,2.6,1.2c1.1,1.2,1.1,3,0.9,4.5c-0.3,1.6-1.7,2.9-3.3,3c-3.5,0.3-7.1,0.3-10.6,0
		c-1-0.1-2.1-0.4-2.8-1.1c-1-1-1-2.5-1-3.8c1.3,0,2.5,0,3.8,0c0.1,0.5,0.1,1.1,0.4,1.6c2.1,0.4,4.2,0.2,6.4,0.2c1,0,2-0.2,3-0.2
		c0.2-0.2,0.3-0.3,0.5-0.5c0-0.3,0-0.7,0-1c-0.2-0.2-0.3-0.3-0.5-0.5c-1.9-0.3-3.8-0.2-5.7-0.4c-1.7-0.1-3.3-0.1-5-0.4
		c-1.2-0.2-2.3-1-2.7-2.2C113.4,98.2,113.6,96.4,114.7,95.2z"/>
	<g>
		<path class="st0" d="M152.3,108.3c0-4.8,0-9.7,0-14.5c4.3,0,8.7,0,13,0c1,0.2,2.1,0.5,2.7,1.3c1.2,1.5,1.2,4.1-0.3,5.5
			c0.7,0.6,1.3,1.3,1.4,2.2c0.2,1.5,0.1,3.2-1,4.3c-0.8,1-2.2,1.2-3.4,1.2C160.6,108.3,156.4,108.3,152.3,108.3z M156.1,97
			c0,0.8,0,1.6,0,2.4c2.4,0,4.8,0,7.1,0c0.5,0,1.1,0,1.6-0.3c0.4-0.4,0.5-1.1,0.2-1.6c-0.3-0.5-1-0.5-1.5-0.5
			C161,97,158.5,97,156.1,97z M156.1,102.3c0,1-0.1,1.9,0,2.9c2,0,4,0,6,0c0.9,0,1.9,0.1,2.7-0.3c0.6-0.3,0.7-1.2,0.4-1.8
			c-0.3-0.6-1.1-0.7-1.8-0.7C161,102.3,158.6,102.3,156.1,102.3z"/>
	</g>
	<g>
		<path class="st0" d="M172.4,102.1c1.6-2.8,3-5.6,4.7-8.4c1.4,0,2.8,0,4.2,0c2.7,4.8,5.3,9.7,8,14.5c-1.5,0-3,0-4.5,0
			c-0.5-0.9-0.9-1.7-1.4-2.6c-2.9,0-5.7,0-8.6,0c-0.6,0.8-0.9,1.8-1.4,2.6c-1.4,0-2.8,0-4.3,0C170.1,106.2,171.4,104.2,172.4,102.1z
			 M177.6,100.3c-0.4,0.8-0.9,1.5-1.1,2.4c1.8,0,3.6,0,5.3,0c-0.8-1.8-1.8-3.5-2.7-5.3C178.6,98.3,178.2,99.3,177.6,100.3z"/>
	</g>
	<g>
		<path class="st0" d="M190.3,93.7c3.7,0,7.5,0,11.2,0c1.2,0,2.5,0,3.6,0.5c0.9,0.4,1.5,1.3,1.8,2.3c0.3,1.7,0.3,3.7-1.2,4.8
			c1,0.7,1.6,2,1.6,3.2c0,1.2,0,2.4,0,3.7c-1.3,0-2.5,0-3.8,0c0-1.4,0-2.7-0.1-4.1c-0.1-0.7-0.7-1.2-1.4-1.1c-2.6,0-5.3,0-7.9,0
			c0,1.7,0,3.4,0,5.2c-1.2,0-2.5,0-3.7,0c-0.2-1.6,0-3.2-0.1-4.8C190.2,100.2,190.1,97,190.3,93.7z M194,97c0,0.9,0,1.8,0,2.7
			c2.7,0,5.4,0,8.1,0c0.9,0,1.4-1,1.2-1.8c-0.1-0.7-0.9-1-1.6-0.9C199.1,97,196.5,96.9,194,97z"/>
	</g>
</g>
</svg>
