<?xml version="1.0" encoding="utf-8"?>
<!-- Generator: Adobe Illustrator 26.0.3, SVG Export Plug-In . SVG Version: 6.00 Build 0)  -->
<svg version="1.1" id="Слой_19" xmlns="http://www.w3.org/2000/svg" xmlns:xlink="http://www.w3.org/1999/xlink" x="0px"
	 y="0px" viewBox="0 0 239.5 150.2" style="enable-background:new 0 0 239.5 150.2;" xml:space="preserve">
<g>
	<path d="M198.3,67.7c-1.2-7.8-4.2-15.4-8.9-21.8c-3.4-4.7-7.7-8.9-12.6-12.1c-6.8-4.6-14.9-7.5-23.1-8.3c-0.6,0-1.1-0.1-1.7-0.1
		c-2-0.2-4-0.1-6.1,0c-0.6,0.1-1.3,0.1-1.9,0.2c-9.5,0.9-18.7,4.7-26.1,10.6c-5.8,4.6-10.6,10.5-13.8,17.2
		c-2.7,5.7-4.4,11.8-4.9,18.1c0,1.2,0,2.4-0.1,3.6c0,0.1,0,0.3,0,0.4c0.1,1.2,0.1,2.4,0.2,3.6c0.8,10,4.7,19.8,11.1,27.6
		c4.1,5.1,9.3,9.3,15.1,12.4c6.1,3.3,12.9,5.2,19.8,5.8c1.3,0,2.5,0,3.8,0.1h0.1c1.2-0.1,2.4-0.1,3.6-0.1c7.3-0.5,14.5-2.7,20.9-6.4
		c5.3-3,10-7.1,13.9-11.8C196.5,96,200.5,81.5,198.3,67.7z M195.2,88.1c-1.7,6-4.6,11.6-8.4,16.5c-8.1,10.4-20.6,17.3-33.7,18.3
		c-7.8,0.7-15.8-0.6-23-3.8c-5.1-2.2-9.7-5.3-13.8-9.1c-7.2-6.7-12.3-15.6-14.2-25.3c-1.6-7.6-1.3-15.5,0.9-22.9
		c2.9-10,9.2-19,17.6-25.3c7.1-5.3,15.7-8.7,24.6-9.4c9.9-0.8,20.1,1.6,28.6,6.8c11.1,6.7,19.4,18.1,22.1,30.8
		C197.6,72.5,197.4,80.6,195.2,88.1z"/>
	<path d="M188.2,49.7c-3.2-4.9-7.3-9.2-12-12.6c-7-5-15.4-8-24-8.6c-2.1-0.1-4.2-0.1-6.3,0c-9,0.6-17.9,3.9-25.1,9.4
		c-4.9,3.7-9.1,8.4-12.1,13.8c-3.4,5.9-5.5,12.5-6.1,19.2c0,0.7-0.1,1.5-0.2,2.2c-0.1,1.4-0.1,2.8,0,4.1c0.1,0.7,0.1,1.4,0.1,2
		c0.8,8.7,4.1,17.2,9.4,24.2c3.8,5,8.6,9.2,14,12.3c5.8,3.3,12.4,5.4,19,5.9c0.7,0,1.5,0.1,2.2,0.1c1.3,0.1,2.7,0.1,4,0
		c0.7-0.1,1.5-0.1,2.2-0.1c8.7-0.8,17.2-4.1,24.1-9.4c5-3.8,9.3-8.7,12.4-14.2c3.4-6.1,5.4-12.9,5.9-19.8c0.1-2.1,0.1-4.2,0-6.3
		C195.1,64.1,192.5,56.3,188.2,49.7z M193.8,75.5c0,0.5,0,1.1-0.1,1.6c-0.3,7-2.3,14-5.8,20.1c-3.3,5.9-8,11-13.6,14.8
		c-6.1,4.2-13.3,6.8-20.6,7.5c-0.5,0.1-1,0.2-1.5,0.1c-0.3,0-0.5,0-0.8,0.1c-0.8,0.2-1.7,0.1-2.5,0.1c-0.7,0-1.5,0.1-2.2-0.1
		c-6.8-0.4-13.5-2.3-19.5-5.6c-6-3.4-11.1-8.1-15-13.8c-6.9-10-9.4-22.9-6.7-34.7c1.3-6.1,3.9-12,7.6-17
		c6.5-8.9,16.4-15.2,27.3-17.4c2.1-0.4,4.3-0.7,6.5-0.8c0.9-0.2,1.8-0.1,2.7-0.1c0.5,0,1,0,1.5,0.1c8.7,0.4,17.4,3.4,24.4,8.6
		c5.4,3.9,9.9,9.2,13.1,15.1c3.1,5.8,4.9,12.2,5.2,18.7C193.9,73.7,193.8,74.6,193.8,75.5z"/>
	<path d="M130.7,62.3c0.9,2,2.1,4,3.1,6c0.3,0.5,0.6,1.2,1.2,1.2c0.3-0.6,0.7-1.2,1-1.8c-0.7-0.7-1.6-0.9-2.5-1.2
		c-0.4-0.5-0.6-1.2-0.9-1.8c0.5-0.7,1-1.4,1.2-2.3c-0.8-0.3-1.7-0.6-2.6-0.8c-0.1-0.3-0.4-0.7-0.2-1.1c0.7-1.4,2.1-2.4,2.4-3.9
		c-0.9-0.3-1.8,0-2.6,0.4c-0.2,0.1-0.4,0.2-0.6,0.4c0-0.5,0-1.1,0.1-1.6c0.5-0.4,0.9-0.8,1.1-1.4c0.2-0.7,0.6-1.3,0.5-2
		c-0.5-0.1-1,0-1.4,0.2c-0.4,0.3-0.4-0.4-0.2-0.6c0.1-0.3,0.2-0.6,0.3-0.9c0.2,0.2,0.4,0.6,0.7,0.5c1.3-0.1,2.2-1.3,2.7-2.4
		c0.1-0.2,0.3-0.4,0.5-0.2c0.2,0.2,0,0.4-0.1,0.6c-0.1,0.1-0.2,0.4-0.2,0.6c1.5-0.5,2.8-1.6,3.9-2.7c0.1,0,0.2-0.1,0.3-0.2
		c0,0.1-0.1,0.2-0.2,0.3c-0.9,1.6-1.1,3.4-1.7,5.1c-0.2,0.6-0.5,1.2-0.7,1.8c0.2,0.4,0.9,0.6,0.7,1.2c-0.5,0.2-1,0.3-1.5,0.6
		c-0.6,0.8-1.2,1.7-1.8,2.5c-0.5,0.7-1.2,1.3-1.3,2.2c0.8,0.2,1.6,0.4,2.3,0.5c0.7,0,1-0.8,1.2-1.3c0.3-0.9,0.8-1.7,1-2.6
		c0.1-0.6,0.5,0,0.4,0.3c0,0.3,0,0.6,0,0.9c-0.2,0.9-0.9,1.6-1,2.5c0,0.4,0.5,0.5,0.9,0.5c0.3,0,0.6,0,0.9,0l0,0.1
		c0.1,0.3,0.2,0.5,0.2,0.8c-0.3-0.1-0.6-0.2-0.8-0.1c-0.6,0.1-1.2,0.2-1.8,0.1c-0.6,0.5-1.1,1.1-1.5,1.9c-0.1,0.4-0.1,1,0.3,1.2
		c0.7,0.4,1.7,1,2.5,0.4c0.5-0.8,1.2-1.6,1.4-2.5c0-0.5,0.5-0.2,0.4,0.1c0,0.3,0.1,0.6,0.2,1c-0.3,0.7-0.9,1.3-0.7,2.1
		c0.6,0.4,1.4,0.8,2.1,0.9c0.2,0,0.5,0,0.6,0c-1.3-2.8-2.3-5.7-2.9-8.8c-0.1-0.5-0.1-1-0.2-1.5c0-0.1,0-0.3,0-0.4
		c-0.1-0.9-0.2-1.8-0.1-2.8c0-1.7-0.2-3.5,0.7-5c0.2,0,0.4,0.1,0.6,0.1c0.1,0.5,0.1,1.1,0.1,1.7c0,2.6-0.1,5.1,0,7.7
		c0,0.1,0,0.3,0,0.4c0.1,0.5,0.1,1,0.2,1.5c0.3,2.5,0.9,4.9,2.1,7.1c0.3,0.6,0.5,1.4,1.2,1.6c-0.1-0.5-0.4-1-0.3-1.5
		c0.2-0.3,0.6-0.4,0.9-0.5c1.3-0.4,2.7-0.8,4-1c-0.3-0.1-0.6-0.1-0.9-0.2c-1.6,0.2-3.1,0.7-4.6,1c-0.3-0.9-0.6-1.7-0.8-2.6
		c0.2-0.6,0.9-0.7,1.4-0.8c1-0.1,2,0,3.1,0c1.4,0,2.7-0.1,4.1,0.1c0.7,0.1,1.4,0.9,1.2,1.6c-1.1,0.4-2.3,0.4-3.5,0.6
		c1.1,0.3,2.3,0,3.4,0.3c0.1,0,0.2,0,0.3,0.1c0.2,0.5,0.6,1.2,0.1,1.7c-0.6,0.7-1.7,0.6-2.4,1.1l-0.1,0c0.2,0,0.5,0,0.7,0
		c1,0,1.9,0.1,2.9,0c0-0.3-0.1-0.5-0.1-0.8c-0.4-2-0.9-4.1-0.8-6.2c0-2.4,0-4.9,0.8-7.3c0.3-0.7,0.5-1.5,1.2-2
		c0.3-0.2,0.5,0.3,0.6,0.5c0.3,0.9,0.2,1.9,0,2.8c-0.1,0.4-0.2,0.8-0.2,1.2c0,0.5,0,1.1-0.1,1.6c-0.1,1.5-0.1,3,0,4.5
		c0.1,0.6,0.1,1.1,0.2,1.7c0.1,1.2,0.3,2.5,0.8,3.6c0.1,0,0.2,0,0.2,0c0,0,0.1-0.1,0.1-0.1c-0.2-1.2-0.4-2.4-0.6-3.6
		c-0.1-0.5-0.1-1-0.2-1.5c0-0.1,0-0.2,0-0.2c-0.2-0.8-0.2-1.6,0-2.3c0.3-2.6,0.9-5.1,1.9-7.5c0.1-0.3,0.3-0.5,0.5-0.8
		c0.4,0.9,0.5,2.1,1.5,2.6c0.7,0,1.4,0,2,0c0.4,0,0.7-0.2,1-0.4c1-0.7,2.1-1.4,3.1-2.1c0.6-0.4,1.2-0.9,1.4-1.6
		c-0.7,0.1-1.2,0.6-1.7,1c0-0.2,0-0.5,0.1-0.7c-0.9,0.3-1.7,1-2.4,1.6c-0.2,0.4-0.5,0-0.2-0.2c0.4-1,0.2-2.1,0.2-3.2
		c0-0.8,0-1.6,0.2-2.4c0.2-1,0.3-2.1,0.7-3.1c0.1-0.2,0.1-0.5,0.4-0.5c0.5,0,1,0.1,1.3,0.5c-0.1,1.2-0.9,2.2-1,3.4
		c0.6-0.3,0.8-1,1.1-1.5c0.3-0.6,0.7-1.1,0.7-1.8c-0.1-0.6-0.6-0.9-1-1.2c-1.4-1.1-2.7-2.4-4.5-2.8c-0.3,0-0.6,0-0.9,0
		c-0.4,0-0.5,0.4-0.6,0.7c-0.1,2.9,0,5.9,0,8.8c0.1,1.1,0.4,2.2,0.7,3.2c0.1,0.5,0.3,1.1,0.8,1.3c0.6,0.1,1.2-0.3,1.6,0.2
		c-0.6,0.3-1.3,0.7-2,0.5c-0.9-0.4-1.1-1.4-1.4-2.3c-0.7-2.3-1-4.6-1.3-7c-0.1-0.6-0.1-1.2-0.2-1.7c0-0.1,0-0.3,0-0.4
		c-0.1-0.8-0.2-1.6-0.1-2.4c0-1.1,0.3-2.2,0.3-3.2c0-0.4,0.1-0.8,0.2-1.1c0.1,0,0.2,0,0.3,0c0.6,0.6,1.3,1.2,1.8,1.9
		c0.2,0.3,0.5,0.4,0.8,0.6c2,0.8,3.8,2.3,5.4,3.7c0.4,0,0.7-0.1,1.1-0.2c0.3-0.2,0.8-0.2,1.1,0.1l0.1,0.1c0.4,0,0.7,0,1.1,0l0.1,0
		c0.1,0.2,0,0.3-0.2,0.4l-0.2,0c-0.6,1.5-1.2,3.1-2.1,4.5c-0.2,0.4-0.8,0.3-1.1,0.7c-0.3,0.3-0.4,1,0,1.2c0.5,0,0.8-0.4,1.1-0.8
		c1-1.2,1.8-2.7,2.4-4.1c0.3-0.8,1.3-1,1.5-1.9c-1.3-0.9-2.6-1.8-3.5-3c-0.6-0.8-1.3-1.4-1.9-2.1c-0.5-0.5-1.2-0.9-1.9-1.2
		c-1.7-0.6-3.4-0.9-5-1.6c-2.4-0.9-4.8-1.9-7.4-2.2c-0.3,0-0.6,0-1,0l-0.5,0.1c0.2,0.2,0.3,0.4,0.5,0.6c-0.3-0.1-0.5-0.3-0.5-0.6
		c0,0-0.1,0-0.2,0c-1.8,0.5-3.6,1.3-5.1,2.4c-2.7,1.9-5.2,4.1-7.4,6.6c-1.7,1.9-3.4,3.7-4.5,6c-0.6,1.3-1,2.8-1.1,4.2
		c-0.1,1.5-0.1,3.1,0,4.6C129.8,59,130,60.7,130.7,62.3z M131.5,57.8c0.3,0.6-0.4,1.1-0.8,1.5C130.6,58.7,131,58.2,131.5,57.8z
		 M134,59.6c0.2-0.6,0.5-1.4,1.2-1.6C135,58.6,134.7,59.4,134,59.6z M135.8,64.8c-0.1-0.4,0.2-0.9,0.6-1
		C136.6,64.2,136.2,64.7,135.8,64.8z M161.9,53.2c-0.3,0.4-0.5,0.9-1.1,0.9C161.1,53.7,161.4,53.4,161.9,53.2z M158,42
		c-0.3,0-0.5-0.3-0.3-0.6C158,41.2,158.4,41.9,158,42z M161.9,39.2c0.3,0.1,0.6,0.4,0.7,0.7c-0.6,0.1-1.2,0.3-1.8,0.1
		c-0.7-0.3-1.1-1.1-1.5-1.8C160.2,38.6,161.1,38.8,161.9,39.2z M135.5,48.3c0.3-0.5,0.7-0.9,1.2-1.1C136.5,47.8,136,48.1,135.5,48.3
		z M139.7,56.5c3.4-0.2,6.7,0,10,0.7c0.6,0.4,0.5,1.1,0.4,1.7c-0.1,0.4-0.3,0.8-0.8,0.8c-2.7,0.1-5.5,0-8.2-0.3
		c-0.5-0.1-1.1-0.2-1.5-0.5C139.4,58.1,139.4,57.2,139.7,56.5z M149.2,63.2c-2,0.1-3.9,0-5.9,0c-0.8,0-1.6,0.1-2.4-0.1
		c-0.6-0.5-1-1.3-1.1-2c-0.1-0.5,0.3-0.8,0.7-0.9c1-0.2,2.1,0,3.1-0.1c1.5,0.1,3.1-0.1,4.6,0.2c0.6,0.1,1.3,0.1,1.7,0.6
		C150.6,61.8,150.2,63.2,149.2,63.2z M150.5,56.3c-0.9,0.2-1.8-0.2-2.7-0.3c-2.5-0.4-5.1,0.1-7.6-0.5c-1.3-0.3-0.5-2.3,0.6-2.3
		c2.8,0.2,5.6,0.6,8.4,1.3c0.4,0.1,0.9,0.2,1.2,0.6C150.6,55.5,150.5,55.9,150.5,56.3z M141.6,52.4c0.3-0.2,0.6-0.4,0.9-0.5
		c1-0.3,2.1-0.9,3.2-0.7c1.1,0,2.1,0.6,3,1.3c0.5,0.4,0.7,0.9,0.9,1.5c-1.6-0.3-3.3-0.6-4.9-0.8C143.7,52.9,142.6,52.8,141.6,52.4z
		 M153.2,48.2c-0.3,0.7-0.2,1.5-0.5,2.2c-0.2,0.6-0.6,1-1,1.4c0,1,0.1,2.4-1,2.8c0-0.8,0.7-1.5,0.4-2.3c-0.3-0.7-1-1-1.7-1.3
		c-2.6-0.9-5.4-1.6-8.1-1.6c-0.8,0-1.1,0.9-1.3,1.6c-0.2,0.6,0.3,1.1,0.7,1.5c-0.4,0.2-0.8,0.5-1.2,0.7c-0.7-1.5,0-3.4,1.1-4.5
		c0.1-0.5,0.2-1,0.3-1.4c0.7-0.6,1.4-1.2,2-1.9c0.5-0.6,0.8-1.3,1.4-1.8c0.4-0.4,0.9-0.7,1.3-1c0.6-0.4,0.9-1.1,1.5-1.5
		c1.4-0.8,2.8-1.6,4.3-2.1c0.4-0.1,0.8-0.3,1.1,0c-0.5,0.4-1.3,0.2-1.8,0.8c0.5,0.8,1.1,1.6,1.8,2.3c-0.8-0.6-1.7-1.2-2.5-1.7
		c-0.5-0.3-1.1,0.1-1.4,0.5c1.1,1.2,2.4,2.1,3.7,3.1c-1.5-0.7-2.8-1.8-4.3-2.5c-0.5-0.3-0.9,0.1-1.2,0.4c0.3,0.5,0.6,1,1.1,1.3
		c1.4,0.9,2.9,1.7,4.3,2.6c-1.7-0.8-3.4-1.7-5.1-2.4c-0.4-0.2-0.9-0.4-1.4-0.2c-0.5,0.2-1,0.6-1.3,1.1c-0.2,0.4,0.1,0.9,0.5,1
		c1.7,0.5,3.4,1.1,5.1,1.9c0.7,0.3,1.4,0.7,2.2,0.8c0.5,0.2,0.9-0.4,1-0.9c0-0.3-0.2-0.6-0.2-0.9c0.2,0,0.5,0.1,0.7,0.1
		C153.6,47,153.4,47.6,153.2,48.2z M153.6,36.2c0.3,0.3,0.5,0.9,0.2,1.3c-0.4,0.4-1,0.2-1.4,0.1c-0.6-0.2-0.7-0.9-0.6-1.4
		c0.2-0.3,0.5-0.1,0.8-0.1c-0.2,0.2-0.4,0.4-0.3,0.7c0.3,0.4,0.8,0.2,1.3,0.2C153.6,36.8,153.6,36.5,153.6,36.2z M152.2,34.3
		c-0.1,0.2-0.2,0.4-0.3,0.5c0.3,0.4,0.8,0.3,1.2,0.2c-0.1-0.2-0.2-0.4-0.3-0.6c0.3,0.2,0.6,0.3,0.8,0.6c0,0.3-0.1,0.7-0.5,0.6
		c-0.7,0-1.7-0.2-1.9-1.1C151.3,34.2,151.8,34.4,152.2,34.3z M150.9,37.8c-0.5,0.1-1,0.2-1.6,0.2c-0.5-0.3-0.5-0.9-0.6-1.4
		c-0.1-0.3,0.1-0.7,0.5-0.7c0.5-0.1,1.1-0.1,1.6-0.1C151.7,36.1,151.8,37.6,150.9,37.8z M148.6,34.2c-0.1,0.1-0.2,0.4-0.2,0.5
		c0.4,0.5,1.1,0.5,1.7,0.1c0.2-0.2-0.1-0.5-0.2-0.7c0.3,0.2,0.6,0.5,0.7,0.9c-0.7,0.4-1.5,0.4-2.2,0.3c-0.5-0.1-0.5-0.6-0.5-1
		C148.2,34.3,148.4,34.3,148.6,34.2z M148.1,36.6c0.2,0.5,0.4,1.1,0.3,1.7c-0.4,0.5-1,0.7-1.6,0.8c-0.4,0.1-0.6-0.3-0.8-0.6
		c-0.2-0.4-0.5-0.8-0.3-1.3c0.4-0.4,0.9-0.6,1.5-0.8C147.5,36.3,148,36.2,148.1,36.6z M145.3,34.5c0.2,0.1,0.2,0.2,0,0.4
		C145,34.8,145,34.7,145.3,34.5z M145.1,35.4c0.4,0.8,1.3,0.3,1.8-0.1c-0.1-0.2-0.2-0.3-0.4-0.5c0.2,0,0.4-0.1,0.7-0.1
		c0.4,0.2,0.4,0.9,0,1.1c-0.7,0.4-1.5,0.7-2.4,0.8C144.6,36.2,144.7,35.7,145.1,35.4z M145.6,38.6c0.3,0.6-0.1,1.3-0.7,1.5
		c-0.5,0.2-1,0.6-1.6,0.3c-0.5-0.4-0.7-1-1.1-1.5c0.6-0.6,1.4-0.9,2.2-1.2C145.1,37.5,145.4,38.2,145.6,38.6z M141.4,37.2
		c0.3,0.2,0.6,0.6,1,0.4c0.4-0.2,0.8-0.5,1-0.9c-0.2-0.1-0.5-0.2-0.7-0.3c0.6-0.4,1.6,0.3,1.1,0.9c-0.6,0.4-1.3,0.6-2,0.9
		C141.3,38,141.3,37.5,141.4,37.2z M142.4,41.7c-0.4,0.4-0.9,0.8-1.5,1c-0.9-0.2-1.4-1.1-1.7-1.9c0.5-0.5,1-1,1.8-1.2
		C142.1,39.2,143.1,40.8,142.4,41.7z M139.2,39.5c0.6-0.1,0.8-0.7,1-1.2c0.3-0.2,0.7,0.1,0.6,0.4c-0.1,0.4-0.5,0.6-0.8,0.8
		c-0.5,0.3-1,0.8-1.7,0.8C138.4,39.7,138.8,39.6,139.2,39.5z M137.7,40.4c0.3,0,0.1,0.7-0.2,0.6C137.4,40.8,137.5,40.5,137.7,40.4z
		 M138.1,41.4c0.6,0.4,1.6,0.7,1.7,1.6c0.1,1.3-1.2,2.1-2.3,2.5c-0.8-0.5-1.9-0.9-2.1-2C136.1,42.6,137,41.8,138.1,41.4z
		 M134.2,44.6c1-0.4,1.4,0.9,1.7,1.6c-0.3,0.8-1.1,1.3-1.8,1.7c-0.6,0.3-1.2,0.7-1.9,0.6c-0.2-0.3-0.3-0.6-0.4-0.9
		C132.4,46.5,133,45.2,134.2,44.6z M130.2,53.7c0.2,0.1,0.2,0.2,0,0.4C130,53.9,130,53.8,130.2,53.7z"/>
	<path d="M146.3,37.9c0.4,0.8,1.7,0.4,1.9-0.3c0-0.6-0.7-1.1-1.3-0.7C146.4,36.9,146.1,37.4,146.3,37.9z"/>
	<path d="M143.6,39.7c0.5,0.1,1.2-0.1,1.5-0.6c0.1-0.6-0.5-0.9-1-1.1c-0.4,0.2-1,0.4-1.2,0.9C142.9,39.3,143.3,39.6,143.6,39.7z"/>
	<path d="M140.8,41.8c0.5,0,0.9-0.3,1.3-0.7c0.3-0.8-0.7-1.6-1.4-1.2c-0.3,0.1-0.6,0.3-0.8,0.7C139.8,41.1,140.3,41.6,140.8,41.8z"
		/>
	<path d="M137.9,44.4c0.4-0.3,0.9-0.6,1.2-1c0.4-0.8-0.6-1.6-1.4-1.4c-0.5,0.1-1,0.5-1.3,1c-0.2,0.3-0.4,0.7-0.2,1
		C136.4,44.6,137.3,44.8,137.9,44.4z"/>
	<path d="M164.9,45.4c-0.5,1-1.1,2-1.8,3c-0.6-0.1-1.2,0.2-1.2,0.8c0,0.3,0,0.5-0.1,0.8c0.1,0.1,0.2,0.3,0.3,0.4
		c1.8-1.9,3.3-4,4.2-6.4C165.6,43.9,165.3,44.8,164.9,45.4z"/>
	<path d="M135,46.5c0.5-0.6,0-1.8-0.8-1.6c-0.8,0.3-1.2,1-1.7,1.6c-0.4,0.5-0.3,1.2,0,1.8C133.4,47.8,134.3,47.3,135,46.5z"/>
	<path d="M145.5,45.8c-1.1-0.2-2.4-0.3-3.1,0.8c-0.4,0.5-0.9,1.1-0.8,1.8c0.5,0.7,1.4,0.6,2.2,0.7c1.9,0.2,3.7,0.8,5.5,1.4
		c0.9,0.3,1.9,0.6,2.7,0c0.5-0.4,0.4-1.1,0.3-1.6C150.2,47.6,147.9,46.6,145.5,45.8z"/>
	<path d="M136.3,50.5c-1.4,0.3-2.9,0.9-3.6,2.2c-0.4,0.8-0.8,1.6-1,2.5c0.4,0.5,1.1,0.2,1.6,0.1c1.2-0.4,1.9-1.6,2.4-2.7
		C136,52,136.5,51.3,136.3,50.5z M133.5,53.9c0.1-0.7,0.5-1.4,1-1.9C134.7,52.8,134,53.4,133.5,53.9z"/>
	<path d="M139.5,69.5c0.1,0,0.3,0,0.4,0c0.3-0.1,0.6-0.1,0.9-0.2c0-0.1-0.1-0.2-0.2-0.3c-1-0.6-2.2-0.8-3.3-1.1
		c-0.4,0.4-1,0.8-1,1.4c0.3,0.3,0.8,0.2,1.2,0.2C138.1,69.5,138.8,69.5,139.5,69.5z"/>
	<path d="M168.5,101c-1.9-1.8-3.8-3.7-6.2-4.8c-0.3-2.7-1.7-5.2-2.6-7.7c-0.8-2.1-1.5-4.3-2.3-6.4c0-0.1-0.1-0.3-0.2-0.4
		c-3.5,0-6.9,0-10.4,0c-0.5,0.4-0.8,1.2-0.9,1.8c0.1,0.8,1.1,1,1.7,1.3c0.1-0.1,0.3-0.2,0.3-0.3l0-0.2c-0.1-0.2,0.3-0.5,0.4-0.1
		c0.2,0.5,0.2,1.1,0.5,1.5c0.2,0.3,0.4,0.7,0.6,1c-0.4-0.1-0.8-0.4-1.2-0.6c-0.3,0.4-0.5,0.8-0.7,1.2c0.6,0.5,1.1,0.9,1.7,1.4
		c0.2-0.2,0.5-0.5,0.7-0.7c0.1,0.4,0.1,0.8,0.1,1.2c0.4,0.5,0.8,1.1,1.1,1.8c0.1,0.2,0.2,0.4,0.3,0.7c0.2,0.4,0.1,0.9-0.1,1.3
		c0.1,0.2,0.3,0.4,0.5,0.7c0.5,0.6,0.5,1.4,0.8,2.1c-0.3,0.5-0.6,1-0.9,1.4c0.4,0.5,0.9,1,1.2,1.5c0.2,0.4,0.1,0.8,0.1,1.2
		c-0.3,0.2-0.7,0.4-1,0.7c0.2,0.6,0.5,1.3,0.7,1.9c0.2,0.5,0,1.2-0.5,1.3c-0.4,0.2-1.2,0.2-1.1,0.8c-0.1,0.8,0.8,1.5,0.2,2.2l0,0.1
		c-0.3,0-0.6,0-1,0c-0.3,0-0.6,0-0.7,0.3c-0.2,0.5,0.1,1.1,0.3,1.6c-0.2,0.3-0.4,0.5-0.7,0.8c-0.8-0.1-1.5-0.3-2.3-0.3
		c-0.3,0-0.4,0.4-0.3,0.6c0,0.3,0,0.7-0.1,1c-0.1,0.3-0.1,0.6-0.2,0.8c-0.3,0.1-0.5,0.1-0.8,0.2c-0.7-0.4-1.3-0.8-2.1-0.9
		c-0.6,0-0.6,0.7-0.7,1.1c-0.1,0-0.4,0-0.5,0c0.2-0.5,0.6-1,0.3-1.5c-0.3-0.5-0.8-0.8-1.4-1c-0.3,0.2-0.4-0.3,0-0.2
		c0.6,0,1.1,0.1,1.7,0.2c0.2-0.3,0.4-0.7,0.7-1c0.1,0,0.2-0.1,0.3-0.2c0,0.5,0,0.9,0,1.4c0.5,0.5,1.2,1.2,2,0.9
		c0.3-0.4,0.4-0.8,0.4-1.3c-0.1-0.8-1-1-1.6-1.4c0.4-0.4,0.8-0.1,1.3-0.1c0.4-0.3,0-0.8,0.2-1.2c0.1-0.3,0.3-0.5,0.5-0.8
		c0.4,0.1,0.9,0.1,1.4,0.2c-0.1-0.7-0.5-1.4-0.6-2.1c0-0.1,0-0.3,0-0.4c0.5,0,1.1,0,1.6-0.1c0.1,0,0.3-0.1,0.4-0.2
		c-0.2-0.7-0.6-1.3-1-1.9c-0.2-0.2-0.2-0.6-0.1-0.9c0.7-0.1,1.4,0,1.9-0.6c-0.2-0.9-1-1.3-1.8-1.6c0-0.2,0-0.5,0-0.7
		c0.4,0,0.9,0.1,1.2-0.2c0.3-0.2,0.8-0.6,0.5-1c-0.4-0.7-0.9-1.5-1.8-1.5c-0.1-0.4-0.2-0.8-0.2-1.2c0.3,0.1,0.6,0.2,0.9,0.3
		c0.4-0.5,1-1,0.9-1.7c-0.1-0.4-0.4-0.8-0.8-0.9c-0.3,0-0.6,0-0.9,0c-0.1,0-0.4,0-0.5,0.1c-0.1-0.4-0.1-0.8-0.3-1.2
		c0.3,0,0.6,0.2,0.9,0c0.3-0.3,0.4-0.6,0.6-1c-0.2-0.2-0.4-0.5-0.6-0.7c-0.3-0.3-0.5-0.5-0.8-0.8c-0.1,0-0.3,0-0.5,0
		c-0.1,0.1-0.4,0.3-0.5,0.3c-0.2-0.5-0.3-0.9-0.6-1.3l0-0.1c0-0.1,0-0.2,0-0.3c0.3,0,0.6,0,0.9,0.1l0.2,0c0.2-0.4,0.6-0.9,0.4-1.4
		c-0.3-0.5-0.9-0.7-1.4-0.9c-0.4-0.2-0.8,0-1.1,0.2c-0.1-0.1-0.2-0.2-0.2-0.2c-0.2-0.2-0.2-0.4-0.2-0.6c-0.1-0.5-0.6-0.9-0.8-1.3
		c0.6,0.1,1.1,0.3,1.6,0.5c0.3-0.4,0.5-0.8,0.6-1.3c-0.5-0.2-0.9,0-1.3,0.2c-0.4-0.2-1-0.4-1.5-0.2c-0.1,0.1-0.3,0.2-0.4,0.3
		c1.3,2.3,2.6,4.7,3.5,7.2c0.9,3,1.8,6.1,1.3,9.3c-0.3,0.9-0.7,2.2-1.8,2.2c-0.3-0.5-0.8-0.8-1.2-1.1c-1.6-1-3.2-2.1-4.8-3
		c-1.3-0.8-2.8-1.2-4.3-1.5c-0.9-0.1-1.7-0.3-2.6-0.2c-0.9,0.1-1.7,0.1-2.6,0.1c-3.3,0.9-5.7,3.8-6.7,7c-0.2,0.7,0.3,1.3,0.7,1.8
		c-0.5,1-1.1,2-1.6,3c-0.3,0.8-0.2,1.8,0.4,2.4c1.4,1.4,3.2,2.3,5,3.1c2.3,0.5,4.6,0.9,6.9,1.2c1.9,0,3.7,0,5.6,0c0.1,0,0.3,0,0.4,0
		c0.5-0.1,1-0.1,1.5-0.2c1.1-0.1,2.1-0.3,3.2-0.4c0.5,0,1,0.2,1.5,0.3c0.9,0,1.7,0,2.6,0c1.2,0,2.4-0.1,3.5-0.3
		c1.3-0.3,2.6-0.9,3.7-1.6c1.8,0.3,3.6,0.7,5.4,0.9c1.1,0,2.2,0,3.3,0c1.5,0,2.9-0.6,4.3-1.1c1.2-0.5,2.1-1.7,2.4-2.9
		c0-0.6,0-1.1,0-1.7C171.8,104.1,170.1,102.5,168.5,101z M147.4,83.4c-0.3,0.2-0.6-0.2-0.3-0.4C147.3,82.8,147.6,83.3,147.4,83.4z
		 M149,87.7c-0.2,0.2-0.6-0.2-0.3-0.4C148.9,87.1,149.2,87.5,149,87.7z M148.7,99.5c0.2-0.2,0.5,0.1,0.3,0.3
		C148.9,100,148.6,99.7,148.7,99.5z M148.7,96.3c0.3-0.2,0.6,0.2,0.4,0.5C148.8,96.9,148.5,96.5,148.7,96.3z M148.4,92.5
		c0.2-0.2,0.6,0.2,0.4,0.4C148.5,93.1,148.2,92.7,148.4,92.5z M147.4,89.2c0.2-0.2,0.5,0.1,0.4,0.3
		C147.6,89.7,147.3,89.4,147.4,89.2z M146.4,86.1c-0.2-0.2-0.5-0.3-0.5-0.7C146.3,85.6,146.6,85.8,146.4,86.1z M145.1,110
		c-0.3-0.2-0.5-0.5-0.5-0.9C145.1,109,145.2,109.6,145.1,110z M147.4,100.7c0,0.4-0.1,0.8-0.2,1.2c-0.5,0.2-1.1,0.2-1.7,0.2
		C146.1,101.5,146.8,101.1,147.4,100.7z M145.3,102.9c0.6,0,1.2,0,1.8,0c-0.2,0.7-0.4,1.3-0.7,2c-0.1-0.3,0-0.7-0.3-1
		c-0.6,0-1,0.7-0.8,1.2c0.2,0.2,0.4,0.3,0.7,0.4c-0.3,0.4-0.6,0.7-0.8,1.1c-0.3-0.3-0.7-0.6-0.6-1
		C144.7,104.7,145.1,103.8,145.3,102.9z M144.9,101.2c-0.1,0.1-0.3,0.2-0.4,0.3c-0.1-0.2-0.2-0.5-0.3-0.7
		C144.5,100.8,144.7,101,144.9,101.2z M144.4,102.7c-0.1,0.7-0.2,1.4-0.5,2.1c-0.1,0.3-0.6,0.4-0.8,0.2c-0.5-0.4-0.8-0.9-1.1-1.5
		c0.2-0.1,0.3-0.2,0.5-0.4c0.2,0,0.4,0.1,0.7,0.1c0.4-0.1,0.5-0.5,0.7-0.8C144,102.6,144.2,102.6,144.4,102.7z M142.9,100.9
		c0,0.3,0.1,0.6,0.2,0.9c-0.4-0.1-0.5-0.5-0.6-0.8c0.2-0.5,0.7-0.6,1.2-0.6C143.4,100.6,143.1,100.6,142.9,100.9z M142.8,99.8
		c-0.2,0-0.5,0-0.7,0c-0.1-0.2-0.2-0.5-0.2-0.7C142.2,99.2,142.6,99.4,142.8,99.8z M141.9,101.8c-0.2-0.1-0.4-0.3-0.6-0.4
		c-0.5,0-1,0.3-1.4,0.5c0.3-0.6,1.1-0.7,1.7-0.9C141.8,101.2,141.8,101.5,141.9,101.8z M137.9,103.3c0-0.4,0.5-0.5,0.8-0.6
		c0.1,0.4,0.1,0.9,0.5,1.1c0.2-0.1,0.4-0.3,0.6-0.4c0-0.2-0.1-0.5-0.1-0.7c0.3,0.1,0.9,0,1,0.4c-0.6,0.6-1.3,1.1-2,1.6
		C138.4,104.3,138.1,103.9,137.9,103.3z M139.6,108.6c-0.9,0.3-1.8,0.4-2.7,0.3c0.4-0.8,0.7-1.8,1.6-2.2
		C139,107.2,139.2,108,139.6,108.6z M140.1,98.4c0.9,0,0.9,1.1,1.2,1.7c-0.5,0.2-1,0.6-1.5,0.6c-0.5-0.5-0.6-1.2-0.8-1.8
		C138.8,98.3,139.7,98.4,140.1,98.4z M138.7,97.3c0.2,0.1,0.5,0.1,0.6,0.4c-0.3,0-0.6,0-0.9,0c-0.1-0.2-0.2-0.4-0.3-0.7
		C138.3,97.1,138.5,97.2,138.7,97.3z M139,101.1c-0.3,0.3-0.7,0.6-1.1,0.7c-0.6,0.1-1.1-0.2-1.7-0.3c-0.2-0.7-0.6-1.5-0.3-2.2
		c0.6-0.4,1.3-0.5,2-0.5C138.3,99.6,138.8,100.3,139,101.1z M130.3,104.1c0.2-0.9,1.1-1.5,2-1.8c0.7-0.1,0.7,0.8,0.8,1.2
		c0,0.7,0.4,1.6-0.2,2.1c-0.5,0.6-0.9,1.2-1.6,1.6C130.7,106.3,130.1,105.3,130.3,104.1z M130.7,109.1c-0.3,0-0.2-0.5,0.1-0.5
		C131,108.7,130.9,109.1,130.7,109.1z M131.2,100.2c0.6,0.2,1,0.6,1.4,1c-0.8,0.5-1.6,1-2.5,1.5c-0.4-0.7-0.3-1.5-0.3-2.2
		C130.3,100.4,130.7,100.2,131.2,100.2z M130,98.7c0.3,0.3,0.6,0.6,0.8,1c-0.3,0-0.7,0.4-0.9,0C129.8,99.3,130,99,130,98.7z
		 M133.6,106.4c0.3,0,0.4,0.3,0.4,0.5c0.2,0.6,0.4,1.1,0.5,1.7c-0.9,0-1.8-0.3-2.6-0.6C132.4,107.3,133,106.9,133.6,106.4z
		 M134,104.3c-0.2-0.9-0.7-1.7-0.5-2.6c0.3,0,0.6,0.1,0.9,0.3c-0.1,0.4-0.2,0.8,0.1,1.1c0.4-0.1,0.8-0.4,1-0.8
		c0.3,0.1,0.5,0.2,0.8,0.3C135.7,103.3,134.9,104,134,104.3z M133.3,100.6c0.2-0.4,0.6-0.6,1-0.8c0.2-0.1,0.5-0.1,0.6,0.2
		c0.2,0.4,0.2,0.8,0.2,1.2c-0.3-0.1-0.6-0.3-0.8-0.4C134,100.7,133.6,100.7,133.3,100.6z M136.5,96.6c0.5,0.3,0.8,0.8,1,1.4
		c-0.7,0.2-1.4,0.4-2,0.6c-0.5-0.5-0.6-1.1-0.8-1.7C135.2,96.6,135.9,96.3,136.5,96.6z M134.6,95.9c0,0.3-0.5,0.2-0.5,0
		C134.1,95.6,134.6,95.6,134.6,95.9z M133.8,97.1c0.3,0.6,0.6,1.1,0.8,1.7c-0.5,0.3-1,0.7-1.5,1c-0.5-0.7-0.5-1.5-0.6-2.2
		C132.8,97.2,133.3,97.1,133.8,97.1z M132.1,96.2c0.3,0,0.6-0.2,0.9-0.5c0.1,0.2,0.3,0.4,0.1,0.6c-0.3,0.2-0.7,0.3-1,0.4
		c-0.2-0.3-0.3-0.6-0.4-0.9C131.8,95.9,132,96.1,132.1,96.2z M131.6,98.1c0.3,0.5,0.5,1.1,0.6,1.6c-0.5-0.3-1-0.7-1.3-1.2
		C131,98.3,131.3,97.9,131.6,98.1z M130.5,95.9c0.3,0.4,0.6,0.9,0.5,1.4c0,0.3-0.4,0.6-0.7,0.4c0.1-0.3,0.3-0.5,0.3-0.8
		c0-0.5-0.5-0.6-0.9-0.7C130.1,96.1,130.3,96,130.5,95.9z M129.7,107.1c-0.7-0.2-1.3-0.7-1.9-1.2c0.4-0.4,0.7-0.9,1.2-1.2
		C129.8,105.2,129.6,106.3,129.7,107.1z M127.2,105.2c-0.3-0.8-0.6-1.8-0.4-2.7c0.4-0.8,1.4-1.2,2.3-1.2c0,0.8,0,1.5,0,2.3
		C128.5,104.1,127.8,104.7,127.2,105.2z M127.8,96.9c0.4,0.3,0.9,0.2,1.3,0c0.1,0.2,0.1,0.5,0.2,0.7c-0.5,0.2-1.1,0.5-1.6,0.3
		C127.4,97.6,127.7,97.2,127.8,96.9z M128.9,98.2c0.4,0.5,0.4,1.3,0,1.9c-0.5,0.6-1.3,0.9-2.1,1c0.1-0.8,0-1.6,0.5-2.3
		C127.9,98.5,128.4,98.4,128.9,98.2z M127.1,97.3c-0.3,0.6-0.7,1.2-1.4,1.4C126,98.1,126.5,97.6,127.1,97.3z M124.7,100.5
		c0.3-0.6,0.9-0.9,1.4-1.2c0.3,0.6,0.1,1.3-0.1,1.9c-0.2,0.8-0.9,1.3-1.5,1.7C124,102.2,124.3,101.3,124.7,100.5z M125.9,107.4
		c-0.3,0-0.2-0.5,0-0.5C126.3,106.9,126.2,107.4,125.9,107.4z M126,104.4c-0.3-0.2-0.7-0.4-0.9-0.7c0.2-0.2,0.4-0.5,0.7-0.7
		C125.9,103.5,126,103.9,126,104.4z M125.4,110.3c-0.1-0.2-0.3-0.5-0.1-0.7C125.8,109.3,125.8,110.2,125.4,110.3z M131,111.2
		c0.3-0.1,0.5-0.2,0.8-0.3C131.8,111.5,131.2,111.5,131,111.2z M133.9,112.1c-0.8-0.1-1.4,0.7-2.2,0.3c0.3-0.3,0.6-0.5,0.9-0.7
		c0.2-0.5-0.3-1-0.6-1.3c-0.6,0.3-1.2,0.5-1.6,0.9c-0.2,0.3-0.1,0.6-0.1,1c-0.4-0.2-0.8-0.5-1.1-0.9c-0.4,0.1-0.7,0.2-1.1,0.3
		c-0.5,0-1-0.3-1.5-0.5c0-0.7,0.2-1.4-0.2-2.1c-0.1-0.3-0.5-0.2-0.7-0.2c-0.6,0.1-0.9,0.5-1.3,0.9c-0.4-0.3-0.8-0.6-1.2-1
		c0.5-0.2,1.1-0.4,1.3-0.9c0.1-0.4,0.1-0.9-0.1-1.2c-0.3-0.2-0.6-0.3-0.9-0.4c0.3-0.4,0.9-0.2,1.4-0.4c0.2-0.2,0.3-0.5,0.5-0.7
		c0.1,0.4,0.4,0.7,0.8,0.9c-0.3,0.3-0.8,0.5-0.9,0.9c-0.1,0.4-0.3,0.9,0,1.3c0.5,0.2,1.1,0,1.5-0.2c0.3-0.3,0.5-0.8,0.7-1.1
		c0,0.3,0,0.6,0.1,0.9c0.6,0.5,1.3,0.1,2,0.2c0.8,0.3,0.4,1.4,0.5,2c0.7,0.5,1.5,0,2-0.6c0.7,0.5,1,1.6,1.9,1.8
		c0.2-0.1,0.6-0.6,0.8-0.3c-0.1,0.3-0.3,0.6-0.4,0.9c0.4,0.3,0.9,0.7,1.2,1.1C134.8,112.7,134.4,112.3,133.9,112.1z M135.3,108.5
		c-0.4-0.7-0.6-1.5-0.8-2.2c-0.2-0.6,0.2-1.1,0.6-1.4c0.6-0.5,1.3-0.9,1.9-1.2c0.4,0.7,1.1,1.6,0.6,2.3c-0.6,1-1.2,2-1.8,3
		C135.7,108.7,135.4,108.7,135.3,108.5z M137.8,112.8c-0.4,0.1-0.9,0-1.3,0c0.3-0.3,0.7-0.6,1.1-0.8c0.2,0.1,0.5,0.1,0.7,0.2
		C138.1,112.4,138,112.6,137.8,112.8z M140,111.7c-0.7-0.2-1.5-0.3-2.1-0.6c-0.5-0.3-1-1-1.7-0.8c-0.3,0.1-0.8-0.3-0.5-0.5
		c0.6-0.2,1.3-0.1,1.9-0.1c0.4,0.5,0.9,0.9,1.6,0.8c0.1-0.2,0.3-0.5,0.5-0.7c0.3-0.2,0.7-0.2,1-0.2
		C140.2,110.2,139.6,110.9,140,111.7z M139.3,105.7c0.5-0.7,1.2-1.3,2-1.6c0.6,0.7,1.2,1.4,1.7,2.2c0.4,0.5,0.1,1.2-0.3,1.7
		c-0.5,0.6-1.2,0.7-1.9,0.7C140.1,107.7,139.4,106.8,139.3,105.7z M141,111.2c-0.2-0.1-0.2-0.2,0-0.4
		C141.2,111,141.2,111.1,141,111.2z M170.8,104.6c-0.4,0-0.9-0.1-1-0.6C170.3,104.1,170.6,104.3,170.8,104.6z M166,100.5
		c0.1,0.2,0.3,0.3,0.4,0.5c-0.2,0.1-0.4,0.2-0.5,0.4c0,0.6,0.6,1,1.1,1.3c-0.1,0.2-0.2,0.3-0.3,0.5c-0.4-0.5-0.9-0.9-1.1-1.4
		C165.4,101.3,165.7,100.9,166,100.5z M164.4,104.4c-0.4-0.2-0.8-0.6-0.6-1c0.3-0.4,0.6-0.8,1.1-0.9c0.5,0.3,0.9,0.9,1.2,1.4
		c-0.5-0.2-0.7-0.8-1.2-0.8c-0.3,0.1-0.4,0.4-0.6,0.6C164.4,103.9,164.4,104.2,164.4,104.4z M163.7,97.5c0.3,0.3,0.5,0.8,0.9,1
		c0.3,0.2,0.8,0.2,0.9,0.6c-0.6-0.3-1.3-0.6-1.7-1.1C163.6,97.8,163.7,97.7,163.7,97.5z M163.7,98.9c0.4-0.1,0.7,0.2,0.9,0.4
		c0.6,0.4,0.5,1.3,0,1.7c-0.5-0.3-0.9-0.6-1.3-1C163.3,99.6,163.2,99,163.7,98.9z M162.9,97.5c-0.1,0.1-0.3,0.1-0.4,0.2
		c0-0.2,0-0.4,0-0.7C162.8,96.9,163,97.2,162.9,97.5z M162.7,99.2c0,0-0.2,0.1-0.2,0.2c0-0.4,0.1-0.8,0.2-1.1
		C162.9,98.6,162.8,98.9,162.7,99.2z M162.7,100.7c0.2-0.2,0.5,0,0.8,0c-0.3,0.3-0.9,0.4-0.8,0.9c0.1,0.5,0.7,1,1.2,0.7
		c0.4-0.2,0.1-0.7,0.2-1c0.8,0.6,0,1.5-0.7,1.7c-0.4-0.1-0.6-0.5-0.9-0.8C162.1,101.7,162.3,101,162.7,100.7z M161.8,102.6
		c0.4-0.2,0.7,0.4,0.8,0.7c0.3,0.5-0.4,1.1-0.9,1c0-0.4,0.5-0.6,0.6-1C162.3,103,162,102.9,161.8,102.6z M161.3,105.6
		c0.2,0.2,0.4,0.4,0.5,0.6c-0.1,0.2-0.1,0.4-0.3,0.5C161.2,106.4,161,105.9,161.3,105.6z M161.1,101.7c-0.7,0.7-1.7,0.8-2.6,0.9
		c-1.3,0.2-2.7,0.2-4.1,0.2c-0.3,0-0.6-0.3-0.7-0.6c-0.1-0.7,0-1.6,0.7-2.1c1.5,0.2,2.9,0,4.4-0.3c0.9-0.1,1.7-0.5,2.6-0.4
		C161.5,100.1,161.6,101,161.1,101.7z M161.6,97.9c-0.1,0.4-0.3,0.8-0.7,0.8c-1.8,0.3-3.6,0.6-5.3,0.8c-0.5,0-1.2,0.1-1.6-0.4
		c-0.4-0.7-0.3-1.6-0.3-2.4c2.5-0.3,5-0.8,7.5-0.6C161.4,96.6,161.7,97.2,161.6,97.9z M149.8,85.6c-0.5-1-1-2-1.3-3.1
		c1.5-0.7,3.2-0.5,4.7-0.5c0.9,0,2-0.2,2.8,0.4c0.6,0.5,0.8,1.3,1.1,1.9c0.2,0.5,0.4,1,0.4,1.6c-0.3,0.6-1.1,0.6-1.7,0.6
		c-1.7,0-3.3,0-5,0C150.3,86.6,150,86.1,149.8,85.6z M152.1,91.1c-0.5-1.1-0.9-2.3-1.3-3.4c1.4-0.9,3.2-0.5,4.8-0.6
		c0.9,0.1,1.9-0.2,2.6,0.3c0.6,0.7,0.9,1.6,1.2,2.5c0.1,0.4,0,0.8-0.2,1.1c-1.6,0.4-3.2,0.1-4.9,0.3
		C153.6,91.3,152.7,91.5,152.1,91.1z M152.5,92.7c0-0.3,0.3-0.3,0.6-0.4c1.1-0.2,2.2-0.3,3.3-0.4c1.2-0.1,2.4-0.3,3.5,0.2
		c0.9,0.7,1.1,2.1,0.7,3.1c-2.3,0.4-4.7,0.5-7,0.4C152.9,94.8,152.6,93.8,152.5,92.7z M153.6,104.1c0.2-0.5,0.8-0.7,1.2-0.7
		c1.4-0.1,2.8,0,4.3-0.2c0.6-0.1,1.2-0.1,1.8-0.1c-0.3,0.7-0.5,1.4-0.8,2.1c-0.2,0.5-0.7,0.7-1.1,1c-1.9,0.8-4.1,0.8-6.2,0.8
		C152.6,105.9,153.2,105,153.6,104.1z M150.4,107.8c0.3-0.1,0.4,0.4,0.1,0.4C150.2,108.3,150.2,107.8,150.4,107.8z M147.9,110.5
		c0.2-0.2,0.6,0.2,0.3,0.4C148,111.1,147.6,110.7,147.9,110.5z M150.9,112.2c-1-0.1-2.1,0.2-3.1-0.3c0.4-0.4,0.8-0.9,1.5-0.9
		c2.2-0.1,4.5-0.1,6.7-0.1C154.6,112,152.7,112.3,150.9,112.2z M156.5,110c-2.2,0.3-4.4,0.7-6.6,0.5c0.7-0.9,1.5-1.7,2.3-2.5
		c0.4-0.4,1.1-0.2,1.6-0.3c1.9,0.1,3.7-0.4,5.6-0.7C158.8,108.2,158,109.8,156.5,110z M163.4,109.7c-0.2-0.5,0.4-0.7,0.7-0.8
		C164.1,109.3,163.8,110,163.4,109.7z M171.2,108.3c-0.2,0.3-0.5-0.1-0.5-0.3c-0.1-0.4,0.1-0.7,0.3-0.9c0.1,0.1,0.2,0.3,0.3,0.4
		C171.2,107.8,171.2,108.1,171.2,108.3z M170.1,106.1c-0.3,1.3,0,2.6,0.2,3.8c-0.5,0.4-1,0.8-1.6,0.8c-0.7-0.2-1.2-0.9-2-0.9
		c-1.1,0.1-1.2,1.9-2.5,1.6c0.4-0.7,0.9-1.4,1.4-2.1c-0.4-0.7-0.7-1.4-1.4-1.9c-0.8,0.4-1.6,0.8-2.2,1.4c0.2,0.8,0.4,1.6,0.5,2.5
		c-1,0.2-0.8-1.1-1.5-1.4c-0.9,0.4-1.7,1.3-2.7,0.8c0.8-0.5,1.8-0.9,2.1-1.9c-0.2-0.7-0.8-1.5-0.2-2.1c0.4,0.6,0.7,1.5,1.5,1.4
		c0.5-0.4,1-0.8,1.3-1.4c0.3-0.7-0.5-1.2-0.8-1.8c0.6-0.1,1.2,0.2,1.6,0.7c0.5-0.3,0.9-0.7,1.4-1c0.9-0.5,2-0.4,3-0.1
		c-0.2-0.6-0.3-1.3-0.5-1.9c0.6,0.1,1.2,0.1,1.8,0.3c-0.3,0.1-0.6,0.1-0.8,0.3c-0.2,0.5-0.1,1.1,0.3,1.4c0.5,0.5,1.2,0.6,1.8,0.7
		c0.3,0.1,0.3,0.5,0.4,0.7C170.9,106.1,170.5,106.1,170.1,106.1z"/>
	<path d="M151.1,97.5c-0.5,0.1-0.9,0.5-1.3,0.8c0.3,0.7,0.8,1.4,1.5,1.7c0.5-0.1,1-0.4,1.1-0.9C152.1,98.5,151.7,97.9,151.1,97.5z
		 M151.2,99.3c-0.2-0.3-0.3-0.6-0.2-0.9C151.4,98.6,151.5,99,151.2,99.3z"/>
	<path d="M164.8,100.2c0-0.6-0.7-1.2-1.3-0.8C162.9,100,164.5,100.9,164.8,100.2z"/>
	<path d="M151.5,103.4c0.4,0,0.8-0.5,0.6-0.9c-0.3-0.5-0.6-1.2-1.2-1.4c-0.5,0.1-1.4,0-1.5,0.7c0.1,0.4,0.3,0.8,0.6,1.2
		C150.4,103.4,151,103.5,151.5,103.4z M150.9,102.6c-0.3,0.1-0.4-0.4-0.1-0.5C151.1,102,151.2,102.6,150.9,102.6z"/>
	<path d="M148.4,104.8c0.2,0.6,0.3,1.2,0.7,1.6c0.6,0.4,1.4,0.3,1.9-0.2c-0.1-0.6-0.2-1.3-0.7-1.8
		C149.7,104.2,148.9,104.4,148.4,104.8z"/>
	<path d="M168.1,105.7c-0.3,0.8-0.7,1.6-0.9,2.5c-0.2,0.7,0.5,1.3,1,1.6c0.3,0.2,0.9,0.5,1.1,0.1c0.1-1.4,0.4-3.1-0.6-4.3
		C168.6,105.6,168.2,105.6,168.1,105.7z M168.4,108.8c-0.4-0.4-0.2-1.1,0-1.5C168.6,107.7,168.6,108.3,168.4,108.8z"/>
	<path d="M127.9,108.3c-0.5,0.1-1,0.4-1,1c0,0.6-0.3,1.4,0.4,1.7c0.7,0,1.3-0.4,1.8-0.8c0.3-0.6,0.5-1.4,0.1-1.9
		C128.8,107.9,128.3,108.2,127.9,108.3z"/>
	<path d="M120.7,75.8l-0.1-0.3c-0.1-0.1-0.2-0.2-0.2-0.3c-0.3-0.3-0.7-0.6-1.1-0.6c-2.2-0.4-4.4-0.1-6.7-0.2c0-0.5,0-0.9,0-1.4
		l0.1,0c1.7,0,3.5,0,5.2,0c0.1,0.3,0.2,0.6,0.3,0.9c0.8,0,1.7,0,2.5,0c0.1-0.8,0.1-1.7-0.5-2.5c-0.4-0.2-0.8-0.6-1.3-0.6
		c-2.7,0.1-5.3-0.1-8,0c-0.1,0.1-0.3,0.1-0.4,0.2c-1,1.1-1.1,2.7-0.9,4.2c0.1,0.8,0.9,1.1,1.5,1.3c2.1,0.3,4.3,0.1,6.5,0.2
		c0.1,0.3,0.2,0.6,0.3,0.9c-0.1,0.2-0.1,0.5-0.2,0.7l-0.1,0.2c-1.1,0.1-2.2,0-3.3,0c-0.6,0-1.2,0.1-1.8-0.1c-0.4-0.1-0.5-0.6-0.7-1
		c-0.8,0-1.5,0-2.3,0c0,0.7-0.1,1.4-0.1,2.2l0,0l0.2,0.1c0.4,0.3,0.8,0.7,1.4,0.7c2.7,0,5.5,0.2,8.2,0l0.2-0.1
		c0.4-0.3,0.7-0.5,1-0.9l0.1-0.2c0.1-0.6,0.1-1.2,0-1.8C120.7,76.9,120.8,76.3,120.7,75.8z"/>
	<path d="M122.7,80.3c1,0.1,1.9,0,2.9,0c0-1.1,0-2.2,0-3.3c2.2,0,4.4,0,6.5,0c0.1,1,0.1,2.1,0,3.1c1,0.3,2.1,0.2,3.2,0.1
		c0.1-3.2,0-6.4,0.1-9.6c-0.7,0-1.3,0-2,0c-0.4,0-0.7,0-1.1,0.1c0,1.1,0,2.2-0.1,3.3c-0.1,0.1-0.3,0.2-0.4,0.3c0.1,0,0.2,0,0.3,0
		c-2.1-0.3-4.3-0.1-6.4-0.2c0-0.8,0-1.7,0-2.5c0-0.3,0-0.6-0.2-0.9c-0.9-0.3-1.9-0.1-2.9-0.1C122.7,74,122.6,77.2,122.7,80.3z"/>
	<path d="M172.6,75.4c0.3-0.4,0.6-0.8,0.7-1.4c0-0.7,0-1.3,0-2c-0.2-0.4-0.4-0.9-0.8-1.2c-1-0.3-2-0.2-3-0.2c-2.7,0-5.4,0-8.1,0.1
		c0,3.2,0,6.5,0,9.7c2.7,0,5.3,0,8,0l0.2,0c0.1,0,0.3,0,0.4,0c0.1,0,0.4,0,0.6-0.1c0.4-0.1,0.7-0.1,1.1,0c0.2,0,0.4,0,0.6,0.1
		c0.1,0,0.2-0.1,0.2-0.2c0.3-0.3,0.6-0.6,0.9-0.9l0-0.2c0.1-0.9,0.1-1.8,0-2.7C173.4,76.1,173,75.7,172.6,75.4z M164.4,73.1
		c2,0.1,4,0,6.1,0c0.2,0.5,0.2,1,0.1,1.4c-2.1,0.1-4.1,0-6.2,0C164.4,74.1,164.4,73.6,164.4,73.1z M170.6,78.1c-2.1,0.1-4.1,0-6.2,0
		c0-0.1,0-0.4,0-0.5c0-0.1,0-0.2,0-0.3c0-0.2,0-0.5,0-0.7c2,0,3.9,0,5.9,0c0.3-0.1,0.3,0.2,0.4,0.4
		C170.7,77.4,170.6,77.7,170.6,78.1z"/>
	<path d="M183,72.4c0,0.3-0.2,0.4-0.5,0.5c-0.1,0.1-0.2,0.3-0.3,0.4c-0.1,0.3-0.3,0.5-0.6,0.7l-0.2,0.2c-0.1,0.1-0.2,0.1-0.3,0.2
		c-0.1,0-0.4,0-0.5,0c0-0.1,0-0.3,0-0.3l-0.1-0.2c-0.1,0-0.2-0.1-0.2-0.2c-0.3-0.1-0.6-0.3-0.6-0.7l0-0.1c-0.4-0.3-0.7-0.8-1-1.2
		c-0.3-0.3-0.5-0.9-1-0.8c-0.1,0-0.3,0-0.4,0c-1,0-2,0-3,0c0.5,0.6,0.9,1.2,1.5,1.8c0.3,0.3,0.5,0.8,1,1c0.2,0.1,0.4,0.3,0.5,0.6
		c0.2,0.5,0.5,0.9,1,1.2c0.2,0.1,0.4,0.3,0.4,0.5c0,0.2,0.2,0.5,0.4,0.6c0,0,0.1,0.1,0.2,0.1c0.1,0,0.3,0.1,0.4,0.2
		c0,1.2,0,2.5,0,3.7c1,0,2,0,3.1,0c0-1,0-2,0-2.9c0-0.3,0.2-0.6,0.4-0.9c0.8-0.9,1.5-1.8,2.2-2.8c0.2-0.2,0.4-0.4,0.4-0.7
		c0.1-0.3,0.3-0.6,0.6-0.7c0.6-0.5,1-1.2,1.5-1.8c-1.2,0-2.4,0-3.7,0C183.9,71.2,183.3,71.7,183,72.4z"/>
	<path d="M140.1,78.3l0-0.2c0-0.5,0-1,0-1.6c2.4,0,4.9,0,7.3,0c0-0.7,0-1.3,0-2c-2.1,0-4.2,0-6.4,0c-0.3,0-0.6,0.1-0.9-0.2
		c-0.1-0.5-0.1-1-0.1-1.5c2.6-0.1,5.2,0,7.9-0.1c0-0.6,0-1.3,0-1.9c-3.6,0-7.3,0-10.9-0.1c0.1,2.1,0,4.2,0,6.2
		c0,1.1,0.1,2.1-0.1,3.2c3.7,0,7.4,0,11.1,0c-0.1-0.6-0.1-1.2,0-1.8C145.4,78.2,142.7,78.4,140.1,78.3z"/>
	<path d="M159.8,80.3c0-0.6,0-1.3,0-1.9c-2.2-0.1-4.4,0-6.6-0.1l0-0.2c0-2.4-0.1-4.8,0-7.3c-1,0.1-2,0-3.1,0c-0.1,1.3,0,2.5-0.2,3.8
		c-0.1,1.9,0,3.7-0.1,5.6C153.3,80.3,156.5,80.3,159.8,80.3z"/>
	<path d="M140.8,99.8c0-0.2,0.1-0.5,0.1-0.6c-0.3-0.2-0.6-0.7-1-0.5c-0.6,0.2-0.2,0.9,0,1.3C140.2,100.1,140.5,99.9,140.8,99.8z"/>
	<path d="M149.6,36.2c-0.3,0.1-0.2,0.5-0.1,0.7c0.2,0.8,1.6,0.6,1.7-0.1C151.1,36.1,150.1,35.8,149.6,36.2z"/>
	<path d="M150,90.3c-0.5-0.6-1.3,0.5-0.8,1c0.4,0.4,0.8,0.8,1.2,1.1c0.3,0.2,0.7-0.1,0.7-0.4c0-0.2-0.1-0.4-0.1-0.7
		C150.7,90.9,150.4,90.6,150,90.3z"/>
	<path d="M152.2,95.5c-0.4-0.6-0.8-1.3-1.3-1.8c-0.5,0.2-1.2,0.5-1.2,1.1c0.2,0.6,0.6,1.2,1.2,1.5C151.5,96.4,151.8,95.9,152.2,95.5
		z M150.6,94.7c0.3,0.2,0.6,0.4,0.5,0.8C150.9,95.3,150.7,95,150.6,94.7z"/>
	<path d="M166.5,104.9c-0.9,0-1.3,1-1.7,1.7c0.3,0.6,0.6,1.2,1.2,1.6c0.1,0,0.3,0,0.4-0.1c0.4-0.7,0.8-1.4,1-2.2
		C167.6,105.3,167.1,104.8,166.5,104.9z M165.8,106.7c0-0.4,0.2-0.9,0.7-0.8C166.3,106.2,166.1,106.5,165.8,106.7z"/>
	<path d="M135.6,97.7c0.4,0.2,0.8-0.1,1.1-0.2c-0.1-0.3-0.1-0.7-0.4-0.7c-0.4-0.2-0.7,0.1-1.1,0.2C135.4,97.2,135.4,97.5,135.6,97.7
		z"/>
	<path d="M133.3,98.9c0.3,0,0.5-0.2,0.7-0.4c-0.1-0.4-0.3-0.8-0.6-1c-0.1,0.1-0.4,0.2-0.5,0.3C132.9,98.1,132.9,98.6,133.3,98.9z"/>
	<path d="M128.4,98.8c-0.6,0.1-1.1,0.6-0.9,1.2C128.2,100.2,129.1,99.3,128.4,98.8z"/>
	<path d="M138.4,100.9c0.1-0.7-0.6-2-1.5-1.5c-1,0.2-0.7,1.4-0.3,2C137.1,102,138.1,101.4,138.4,100.9z"/>
	<path d="M125.7,100.5c-0.1,0-0.3-0.1-0.4-0.1c-0.4,0.4-0.9,1-0.5,1.5C125.4,102.1,125.5,101,125.7,100.5z"/>
	<path d="M130.7,101.6c0.5,0.3,0.8-0.4,1-0.6c-0.2-0.3-0.5-0.3-0.8-0.2C130.4,100.7,130.3,101.4,130.7,101.6z"/>
	<path d="M127.5,102.4c-0.3,0.4-0.4,1.1,0.1,1.3c0.7,0.1,0.8-0.7,0.8-1.2C128.2,102.3,127.8,102.1,127.5,102.4z"/>
	<path d="M132.4,104.8c-0.1-0.4-0.1-0.9-0.5-1.2c-0.9,0-1.1,1.4-0.5,1.9C131.9,105.6,132.1,105.1,132.4,104.8z"/>
	<path d="M136.7,105.9c0.2-0.5-0.3-1.2-0.8-0.9c-0.4,0.2-0.8,0.7-0.5,1.2c0.1,0.3,0.2,0.9,0.7,0.8
		C136.4,106.7,136.5,106.3,136.7,105.9z"/>
</g>
</svg>
