<?xml version="1.0" encoding="utf-8"?>
<!-- Generator: Adobe Illustrator 26.0.3, SVG Export Plug-In . SVG Version: 6.00 Build 0)  -->
<svg version="1.1" id="Слой_13" xmlns="http://www.w3.org/2000/svg" xmlns:xlink="http://www.w3.org/1999/xlink" x="0px"
	 y="0px" viewBox="0 0 239.5 150.2" style="enable-background:new 0 0 239.5 150.2;" xml:space="preserve">
<style type="text/css">
	.st0{fill:#2B2A29;}
</style>
<g>
	<path class="st0" d="M188.4,85c1.8,0,3.6-0.1,5.5-0.2c3.1,0,6.1,0,9.2,0c2.3,0.1,4.6,0.1,6.9,0.2c1.9,0,3.8,0.1,5.6,0.3
		c1.7,0,3.3,0.2,5,0.2c1.8,0.2,3.6,0.1,5.5,0.4c0.4,0.1,1,0.1,1.3,0.5c0,0.2-0.1,0.4-0.3,0.5c-0.8,0.4-1.7,0.2-2.6,0.3
		c-1.5,0.1-3,0-4.5,0.1c-4.6,0-9.2,0.5-13.8,0.7c-3,0.2-5.9,0.3-8.9,0.6c-1.4,0.1-2.7,0.3-4,0.4c-5.7,0.6-11.4,1.5-17.1,2.4
		c-2.5,0.5-5,1-7.5,1.4c-1.5,0.2-3,0.7-4.5,0.9c-2.1,0.5-4.2,0.8-6.3,1.4c-5.5,1.2-11,2.4-16.2,4.4c-2.3,0.7-4.5,1.8-6.7,2.8
		c-2,1-4.1,1.9-6,3.2c-1.3,0.9-2.5,1.9-3.7,2.9c-0.6,0.4-1,1-1.4,1.5c-0.8,1.1-1.4,2.3-1.4,3.7c0.1,2.3,0.6,4.6,2.1,6.4
		c0.7,1,1.8,1.6,2.8,2.2c2.2,1,4.3,2.1,6.6,2.9c1.4,0.3,2.8,0.7,4.2,1.1c2.5,0.6,5,1,7.6,1.5c1.3,0.3,2.6,0.5,3.6,1.4
		c-0.4,0.3-0.9,0.5-1.3,0.5c-2.2,0.1-4.5,0.1-6.7,0c-3.6-0.1-7.2-0.6-10.8-1.2c-1.5-0.1-2.9-0.5-4.3-0.6c-3.1-0.5-6.1-0.8-9.2-1.4
		c-2.3-0.6-4.7-1.2-6.9-2c-1.5-0.5-2.8-1.2-4.2-1.9c-1.4-0.8-2.8-1.7-4-2.9c-1.6-1.5-2.8-3.5-3-5.7v-1.3c0.1-1.1,0.2-2.3,0.7-3.4
		c0.9-2.3,2.3-4.6,4.4-6c1.3-0.9,2.6-1.9,4-2.7c3.8-2.3,7.8-4.1,12-5.5c1.6-0.6,3.2-1,4.8-1.4c2.2-0.7,4.4-1.1,6.5-1.7
		c1.3-0.3,2.6-0.5,3.8-0.8c3.9-0.7,7.7-1.4,11.6-2.1c2.6-0.4,5.1-1,7.7-1.3c1.3-0.1,2.6-0.4,3.9-0.5c1.8-0.2,3.7-0.5,5.5-0.6
		c2.2-0.3,4.5-0.4,6.7-0.6c2-0.2,4.1-0.3,6.1-0.4c1.2-0.1,2.5-0.1,3.7-0.2C182.9,85.2,185.6,85.2,188.4,85z"/>
	<path class="st0" d="M214.7,89.4c2.8-0.2,5.7-0.6,8.5-0.7c0.2,0,0.5,0.1,0.6,0.3c-0.4,0.5-1,0.6-1.6,0.8c-2.4,0.7-4.9,1.1-7.4,1.6
		c-7.2,1.5-14.5,3.1-21.7,4.7c-1,0.2-1.9,0.5-2.8,0.8c-2.4,0.7-4.8,1.5-7.2,2.2c-2.3,0.6-4.4,1.6-6.6,2.3c-3.2,1.3-6.5,2.6-9.7,4
		c-0.3,0.1-0.6,0.3-0.9,0.1c-2.3-0.9-4.6-1.7-6.9-2.3c-1.7-0.5-3.5-0.7-5.3-1.1c0.2-0.2,0.4-0.3,0.6-0.4c1.5-0.6,2.9-1.2,4.5-1.7
		c2.7-0.9,5.4-1.4,8.1-2.1c4.4-1.1,8.8-2.1,13.2-3.2c6.9-1.5,13.8-3.1,20.9-3.9c1.9-0.2,3.8-0.4,5.7-0.7c1.1-0.2,2.2-0.1,3.3-0.3
		C211.6,89.6,213.2,89.7,214.7,89.4z"/>
	<path class="st0" d="M208.5,96.1c2.5-0.6,5-1.3,7.5-1.7c0.5-0.1,1-0.2,1.5-0.1c0.3,0.6-0.4,0.9-0.9,1.1c-5.3,2.1-10.7,4.2-16,6.3
		c-1.2,0.5-2.3,1-3.5,1.5c-1.9,0.7-3.6,1.7-5.5,2.6c-2.9,1.4-5.8,2.8-8.6,4.4c-2.5,1.3-4.7,2.9-7.1,4.2c-1-2.2-2.5-4.1-4.2-5.9
		c0.6-0.3,1.2-0.5,1.7-0.9c0.8-0.5,1.6-0.8,2.4-1.2c1.7-0.8,3.5-1.6,5.2-2.4c1.7-0.7,3.4-1.3,5-2c2-0.6,3.9-1.3,5.9-1.9
		c1.1-0.3,2.2-0.7,3.3-1C199.7,98.2,204.1,97.2,208.5,96.1z"/>
	<path class="st0" d="M136.6,108.7c0.7-2,1.4-4.1,2.2-6.1c0.8,2.1,1.5,4.2,2.3,6.3c0.1,0.4,0.5,0.4,0.8,0.5c1.4,0.3,2.7,0.6,4.1,0.9
		c1.2,0.4,2.5,0.5,3.8,0.9c0.5,0.2,1.1,0.2,1.6,0.4c-3.4,0.9-6.8,1.3-10.2,2.2c-0.2,0.1-0.2,0.3-0.3,0.5c-0.7,2-1.5,3.9-2.2,5.9
		c-0.8-2-1.5-4.2-2.3-6.2c-0.1-0.2-0.4-0.2-0.5-0.3c-3.2-0.7-6.4-1.3-9.6-2c0.4-0.2,0.9-0.3,1.3-0.4c2.8-0.6,5.6-1.3,8.3-1.9
		C136.2,109.2,136.5,109,136.6,108.7z"/>
	<path class="st0" d="M160.8,107.3c0.4-1,0.5-2.1,1.2-2.9c0.4,1,0.6,2,1.1,3c1.5,0.5,3.2,0.7,4.8,1.1c-0.1,0-0.2,0.1-0.2,0.1
		c-1.5,0.4-3.1,0.6-4.6,1c-0.4,0.9-0.7,1.9-1,2.9c-0.5-0.9-0.8-1.9-1.1-2.9c-1.6-0.4-3.2-0.6-4.7-1c0.1-0.1,0.3-0.2,0.4-0.2
		c1.3-0.2,2.6-0.5,3.9-0.8C160.5,107.6,160.7,107.5,160.8,107.3z"/>
	<path class="st0" d="M164.5,114.6c0.5-1,0.7-2.1,1.1-3.1c0.4,0.9,0.6,1.8,0.9,2.7c0.1,0.2,0.2,0.5,0.4,0.5c1.4,0.4,2.8,0.6,4.2,0.9
		c-0.4,0.2-0.9,0.3-1.3,0.4c-1,0.2-2.1,0.5-3.1,0.7c-0.4,1-0.7,2.1-1.2,3c-0.3-0.9-0.6-1.9-1-2.8c0-0.3-0.3-0.3-0.5-0.3
		c-1.4-0.3-2.8-0.5-4.2-0.8c0.4-0.3,0.9-0.3,1.3-0.4C162.3,115.1,163.4,114.8,164.5,114.6z"/>
	<path class="st0" d="M152.8,112c0.6,0.9,0.8,2,1.2,3.1c1.4,0.3,2.8,0.6,4.1,0.9c0.2,0,0.4,0.1,0.5,0.2c-1.5,0.3-3.1,0.6-4.6,1
		c-0.5,0.9-0.7,2-1.1,2.9c-0.4-0.9-0.7-1.9-1.1-2.9c-1.6-0.4-3.2-0.7-4.8-1c0.3-0.2,0.8-0.2,1.1-0.3c1.2-0.3,2.3-0.5,3.5-0.8
		C152.2,114.1,152.5,113,152.8,112z"/>
	<path class="st0" d="M156.5,120.2c0.4-0.9,0.6-1.9,1-2.7c0.4,1,0.6,2.1,1.2,3c0.5,0.3,1.2,0.3,1.8,0.5c0.9,0.3,1.9,0.4,2.8,0.6
		c-1.5,0.6-3.1,0.6-4.7,1.1c-0.6,0.9-0.7,2-1.2,3c-0.4-0.9-0.6-1.8-1-2.7c-0.1-0.4-0.6-0.4-0.9-0.5c-1.3-0.2-2.5-0.5-3.8-0.9
		c1.4-0.4,2.9-0.6,4.3-1C156.3,120.6,156.4,120.4,156.5,120.2z"/>
	<path class="st0" d="M144.3,118.6c0.5,0.9,0.7,2,1.1,2.9c0.1,0.3,0.5,0.3,0.7,0.4c1.4,0.2,2.7,0.6,4.1,0.9c-1.5,0.4-3,0.6-4.5,1
		c-0.3,0-0.4,0.3-0.4,0.5c-0.3,0.9-0.6,1.7-0.9,2.6c-0.5-1-0.7-2.1-1.2-3.1c-1.5-0.4-3.1-0.6-4.6-1c1.5-0.6,3.2-0.5,4.6-1.2
		C143.7,120.7,143.9,119.6,144.3,118.6z"/>
	<path class="st0" d="M153.9,128c0-0.6,0.4-1.3,1.1-1.3c1.2,0,2.5,0,3.7,0c0.3,0,0.8,0,1,0.2c0.3,0.3,0.3,0.8,0.3,1.2
		c-0.5,0-1,0-1.4,0c0-0.1-0.1-0.2-0.1-0.3c-0.9-0.1-1.8-0.2-2.7-0.1c-0.4,0-0.6,0.6-0.2,0.7c1.2,0.3,2.5-0.1,3.7,0.2
		c0.5,0.1,0.8,0.6,0.8,1.1c0,0.5,0,1.1-0.4,1.6c-0.3,0.3-0.8,0.4-1.2,0.4c-1.1,0-2.1,0-3.2,0c-0.4,0-0.9,0-1.2-0.4
		c-0.3-0.3-0.2-0.7-0.3-1.1c0.5,0,1,0,1.4,0c0.2,0.2,0.4,0.4,0.7,0.4c0.8,0,1.6-0.1,2.4-0.1c0.4,0,0.4-0.7,0-0.7
		c-1.3-0.3-2.6,0.2-3.9-0.2C153.9,129.3,153.9,128.5,153.9,128z"/>
	<path class="st0" d="M160.5,126.7c0.5,0,1,0,1.5,0c0,1.2-0.1,2.5,0.1,3.7c0.8,0.1,1.6,0.1,2.4,0c0.3,0,0.4-0.3,0.4-0.6
		c0-1.1,0-2.1,0-3.2c0.5,0,1,0,1.5,0c0,1.3,0.1,2.7-0.1,4c0,0.5-0.4,1-1,0.9c-1.3,0-2.7,0.1-4-0.1c-0.6-0.1-0.8-0.8-0.8-1.4
		C160.4,129,160.5,127.9,160.5,126.7z"/>
	<g>
		<path class="st0" d="M167,126.7c1.6,0,3.1,0,4.7,0c1.1,0.1,1.4,1.8,0.5,2.3c0.7,0.4,0.8,1.3,0.5,2c0.1,0,0.3-0.1,0.3-0.2
			c0.5-1.4,1.3-2.7,1.9-4.1c0.7,0,1.4,0,2.2,0c0.8,1.6,1.6,3.3,2.4,4.9c-0.5,0-1,0-1.4,0.1c-0.2-0.3-0.4-0.6-0.5-1c-1,0-2,0-3,0
			c-0.3,0.2-0.4,0.7-0.5,1c-0.5,0-1,0-1.5,0c0.2-0.2,0-0.4-0.1-0.6c-0.2,0.4-0.7,0.5-1.1,0.5c-1.4,0-2.9,0-4.3,0
			C167,130,167,128.3,167,126.7z M168.4,127.9c0,0.2,0,0.5,0,0.7c0.8,0,1.6,0,2.3,0c0.3,0,0.4-0.3,0.5-0.5
			C170.4,127.7,169.4,127.9,168.4,127.9z M175.9,127.9c-0.3,0.5-0.5,1-0.7,1.5c0.5,0,1,0,1.6,0c-0.3-0.5-0.4-1-0.7-1.6
			C176,127.9,175.9,127.9,175.9,127.9z M168.5,129.6c0,0.3,0,0.6,0,0.8c0.8,0,1.7,0,2.5,0c0.4,0,0.4-0.7,0-0.8
			C170.2,129.5,169.3,129.6,168.5,129.6z"/>
	</g>
	<g>
		<path class="st0" d="M179.6,126.7c1.5,0,3.1,0,4.6,0c1.3,0.1,1.8,2.2,0.6,2.8c0.2,0.3,0.4,0.5,0.5,0.8c0.1,0.4,0,0.8,0,1.3
			c-0.5,0-0.9,0-1.4,0c0-0.5,0.1-1.2-0.4-1.4c-0.8-0.1-1.6,0-2.4,0c0,0.5,0,0.9,0,1.4c-0.5,0-1,0-1.5,0
			C179.6,130,179.6,128.4,179.6,126.7z M181.1,127.9c0,0.4,0,0.7,0,1.1c0.8,0,1.6,0,2.4,0c0.5-0.1,0.6-0.8,0.2-1
			C182.8,127.9,182,128,181.1,127.9z"/>
	</g>
	<path class="st0" d="M185.8,126.6c0.5,0,1,0,1.5,0c0,1.2,0,2.4,0,3.6c0.4,0.5,1.2,0.3,1.7,0.3c0.4,0,1.2,0,1.2-0.6
		c0.1-1.1-0.1-2.2,0-3.3c0.5,0,0.9,0,1.4,0.1c0,1.3,0.1,2.5,0,3.8c0,0.4-0.2,0.9-0.6,1c-1.1,0.3-2.3-0.1-3.5,0
		c-0.4,0-0.8,0.1-1.2-0.1c-0.4-0.2-0.5-0.8-0.5-1.2C185.7,129,185.8,127.8,185.8,126.6z"/>
</g>
</svg>
