<?xml version="1.0" encoding="utf-8"?>
<!-- Generator: Adobe Illustrator 26.0.3, SVG Export Plug-In . SVG Version: 6.00 Build 0)  -->
<svg version="1.1" id="Слой_15" xmlns="http://www.w3.org/2000/svg" xmlns:xlink="http://www.w3.org/1999/xlink" x="0px"
	 y="0px" viewBox="0 0 239.5 150.2" style="enable-background:new 0 0 239.5 150.2;" xml:space="preserve">
<g>
	<path d="M176.7,18c10.7,0.3,21.4,2.1,31.6,5.4c2.2,0.7,4.3,1.5,6.5,2.3c-0.4,1.6-1.4,3.1-2.1,4.6c-1-0.3-2-0.8-3-1.2
		c-11.1-4.4-23.1-6.5-35-6.4c-12.7-0.1-25.5,2.3-37.2,7.3c-0.3,0.1-0.7,0.4-0.9,0c-0.8-1.4-1.5-2.8-2.1-4.3
		C147.8,20.5,162.2,17.7,176.7,18z"/>
	<path d="M137.9,32.6c7.5-3.5,15.7-5.5,23.9-6.5c1.5-0.1,2.9-0.3,4.4-0.3c2.7,3.4,5.5,6.7,8.3,10.1c2.8-3.3,5.5-6.7,8.3-10.1
		c6.8,0.3,13.6,1.6,20.1,3.6c2.8,0.9,5.6,2,8.3,3.2c-2.6,3.8-6.6,6.3-10.7,8.1c-0.2-1.1-0.4-2.3-1.2-3.2c-1-1.2-2.6-1.8-4.1-2.1
		c-3.1-0.6-6.2-0.6-9.3-0.6c-3.7,21.1-7.5,42.1-11.2,63.2c-3.7-21.1-7.6-42.1-11.3-63.2c-2.2,0-4.3,0-6.5,0.2
		c-2.1,0.2-4.3,0.5-6.1,1.7c-1.3,0.9-1.9,2.5-2,4C144.5,38.9,140.6,36.3,137.9,32.6z"/>
	<path d="M128.8,120.8c4.8,0,9.6,0,14.5,0c-0.3,0.9-1,1.7-1.9,2.1c-1.4,0.3-2.8,0-4.1,0.1l-0.1,0.1c-0.1,3,0,6,0,9.1
		c-0.7,0-1.5,0-2.2,0c-0.1-3,0-6.1-0.1-9.1c-1.3-0.3-2.7,0.1-4.1-0.2C129.8,122.6,129.1,121.7,128.8,120.8z"/>
	<path d="M148.7,120.8c4.4,0,8.8,0,13.1,0c-0.3,1.2-1.4,2.3-2.7,2.2c-2.5,0-5.1,0-7.6,0C150.2,123.1,149.1,121.9,148.7,120.8z"/>
	<path d="M168.4,120.8c4.2,0,8.4,0,12.5,0c-0.5,1.2-1.7,2.3-3.1,2.2c-2.4,0-4.8,0-7.3,0c0,0.8,0,1.5,0,2.3c3.4,0,6.9,0,10.3,0
		c0,2.3,0,4.6,0,6.9c-4.4,0-8.8,0-13.1,0c0.5-0.8,1.2-1.6,2.1-2c0.7-0.4,1.4-0.2,2.2-0.3c2.2,0,4.4,0,6.6,0c0-0.8,0-1.6,0-2.5
		c-3.4,0-6.9,0-10.3,0C168.4,125.3,168.4,123,168.4,120.8z"/>
	<path d="M187.3,120.8c0.7,0,1.5,0,2.2,0c0,3.1,0,6.1,0,9.2c3.3,0,6.7,0,10,0c-0.4,0.9-1,1.9-2.1,2.1c-3.4,0-6.8,0-10.1,0
		C187.2,128.4,187.3,124.6,187.3,120.8z"/>
	<path d="M203.9,120.8c4.4-0.1,8.8,0,13.2,0c-0.3,1.1-1.3,2.2-2.6,2.2c-2.6,0-5.2,0-7.9,0C205.3,123.1,204.4,121.9,203.9,120.8z"/>
	<path d="M148.7,125.3c4.4,0,8.8,0,13.2,0c-0.4,1.2-1.4,2.3-2.8,2.2c-2.5,0-5.1,0-7.6,0C150.2,127.6,149.1,126.5,148.7,125.3z"/>
	<path d="M204.3,125.3c3.9,0,7.7,0,11.6,0c0.3,0,0.7,0,1,0.1c-0.1,2.3,0,4.5,0,6.8c-0.7,0-1.5,0-2.2,0c0-1.5,0-3.1,0-4.6
		c-2.7,0-5.4,0-8.2,0c0,1.5,0,3.1,0,4.6c-0.7,0-1.5,0-2.2,0C204.3,129.9,204.3,127.6,204.3,125.3z"/>
	<path d="M148.7,130c4.4,0,8.8,0,13.2,0c-0.4,1.1-1.5,2.3-2.8,2.2c-2.5,0-5.1,0-7.6,0C150.2,132.3,149.1,131.2,148.7,130z"/>
</g>
</svg>
