<?xml version="1.0" encoding="utf-8"?>
<!-- Generator: Adobe Illustrator 24.0.2, SVG Export Plug-In . SVG Version: 6.00 Build 0)  -->
<svg version="1.1" id="Слой_1" xmlns="http://www.w3.org/2000/svg" xmlns:xlink="http://www.w3.org/1999/xlink" x="0px" y="0px"
	 viewBox="0 0 238.1 150.2" style="enable-background:new 0 0 238.1 150.2;" xml:space="preserve">
<style type="text/css">
	.st0{fill-rule:evenodd;clip-rule:evenodd;fill:#36362F;}
</style>
<path class="st0" d="M151.2,23c-37,0-67,19.1-67,42.7s30,42.7,67,42.7s67-19.1,67-42.7S188.2,23,151.2,23z M101.6,48.8
	c1.8,7.7,15.2,14.1,33.4,16.5c0,0.4,0,0.7,0,1.1c0,18.3,5.3,33.6,12.4,37.8c-29.4-1.4-52.6-17.6-52.6-37.5
	C94.7,60.3,97.2,54.2,101.6,48.8z M141.6,66.1c3.1,0.2,6.3,0.4,9.6,0.4s6.5-0.1,9.6-0.4c-0.4,13.6-4.6,24.2-9.6,24.2
	C146.2,90.3,142.1,79.6,141.6,66.1z M167.4,65.4c18.6-2.5,32.2-9.1,33.5-17.1c4.7,5.5,7.3,11.8,7.3,18.5c0,20-23.5,36.3-53.2,37.5
	c7.1-4.1,12.4-19.5,12.4-37.8C167.5,66.1,167.5,65.7,167.4,65.4z M157,30.1c18.6,0.9,32.8,6.3,32.8,12.9c0,5.3-9.5,9.9-23.1,11.9
	C165.2,43.5,161.6,34.3,157,30.1z M160.4,55.6c-2.9,0.2-6,0.4-9.2,0.4s-6.2-0.1-9.2-0.4c1.2-10.8,4.9-18.5,9.2-18.5
	C155.5,37.1,159.1,44.9,160.4,55.6z M135.7,54.9c-13.6-2-23.1-6.6-23.1-11.9c0-2.2,1.6-4.3,4.5-6.1c3.4-1.7,7-3.1,10.9-4.3
	c5-1.3,10.9-2.1,17.4-2.5C140.8,34.3,137.2,43.5,135.7,54.9z"/>
</svg>
