<?xml version="1.0" encoding="utf-8"?>
<!-- Generator: Adobe Illustrator 26.0.3, SVG Export Plug-In . SVG Version: 6.00 Build 0)  -->
<svg version="1.0" id="Слой_1" xmlns="http://www.w3.org/2000/svg" xmlns:xlink="http://www.w3.org/1999/xlink" x="0px" y="0px"
	 viewBox="0 0 239.5 150.2" style="enable-background:new 0 0 239.5 150.2;" xml:space="preserve">
<g>
	<path d="M162.3,104.2c-0.1,0-0.2,0-0.3-0.1C162.1,104.1,162.2,104.2,162.3,104.2z"/>
	<path d="M237.2,36.2c0.8-0.2,1.6-0.3,2.4-0.6v-5.5c-3.2,0.7-6.5,1.5-9.6,2.7c-2.6,0.7-5,1.8-7.3,3c-2.4,1.2-4.6,2.9-6.4,5
		c-2.7-0.1-5.4,0.5-8,1.2c-3.3,0.5-6.5,1.9-9.5,3.4c-0.6,0.3-1.1,0.9-1.8,1c-1-0.2-2.1-0.2-3.2-0.2c2.1-1.1,4.4-1.5,6.4-2.6
		c-4.7,1.5-9.3,3.2-13.8,5c0.5-0.6,1.1-1.2,1.9-1.2c0.1-0.3,0.3-0.6,0.4-0.8c-0.3,0.1-0.9,0.2-1.2,0.3c-0.5,0.6-0.9,1.4-1.8,1.3
		c0.3,0.2,0.6,0.4,0.9,0.5c-0.2,0.1-0.7,0.4-1,0.5c0-0.2,0-0.5,0-0.7c-1,0.8-2.4,0-3.3,0.8c-1.2,0.9-2.6,1.6-4,2.2
		c-0.9,0.4-1.9,0.5-2.7,1c1.8,0.1,3.4-1,5-1.6c0.4-0.2,1.1-0.3,1.2-0.8c0.2,0.1,0.7,0.2,1,0.3c-0.2-0.1-0.6-0.3-0.8-0.4
		c0.4-0.2,0.8-0.4,1.1-0.6c0.3,0.2,0.6,0.4,0.9,0.7c0.3-0.3,0.8-0.5,1.3-0.4c-0.6,0.4-1.2,0.5-1.8,0.8c-2.4,0.9-4.6,2.2-7.1,2.5
		c-0.3,0-0.6-0.2-0.8-0.3c-1,0.4-2.4,0.7-2.8-0.6c0,0.3,0.1,1,0.2,1.4c1,0.1,1.9,0.4,2.9,0.5c0.2,0,0.8-0.1,0.8,0.3
		c-1.3,0-2.7-0.4-4-0.3c0,0.4-0.1,0.7-0.1,1.1c1.4,1,2.5,2.4,3.6,3.7c0.8-0.5,1.4-1.4,2.4-1.3c1.3-0.1,2.4,0.8,3.3,1.7
		c-0.2-0.6-0.4-1.1-0.4-1.7c0.9,0.1,1.7,0.5,2.5,0.9c0-0.3-0.1-0.8-0.2-1.1c0.2,0.2,0.6,0.5,0.8,0.7c0.8,0.4,1.5-0.4,2-0.9
		c-0.4-0.1-0.8-0.2-1.2-0.4c-0.6-0.1-1.2,0-1.7,0.2c0.1,0.2,0.2,0.7,0.2,0.9c-1-0.6-2-1.2-3.1-1.7c1.8-0.4,3.8-0.2,5.5,0.6
		c1.2,0.5,2.5-0.4,3.7-0.2c2.3,0.3,4.9,0.3,6.6,2.1c1.7,2.1,3.3,4.5,5.5,6.2c1.4,1.1,2.5,2.5,3.8,3.7c1.2,0.2,2.5,0.2,3.7,0.5
		c0.9,0.2,1.5,1.1,2.5,0.7c2-0.5,4.1-0.4,5.9,0.7c0.8,0.8,0.6,2,0.2,3c2,0.5,4,0.7,6.1,0.9c0.3,0.1,0.8,0,0.9,0.4
		c-0.4,0.1-0.8,0.1-1.3,0.1c0.2,0.6,0.8,0.5,1.3,0.6c0.1,0.2,0.3,0.6,0.4,0.8c-0.5,0-1-0.1-1.5,0.1c0.7,0.1,1.4,0.1,2,0.2
		c-0.1,0.4-0.2,0.7-0.3,1.1c0.2,0.3,0.5,0.7,0.7,1c0.4,0.1,0.8,0.1,1.1,0c0-1.2-1.9-1.7-1.3-2.9c-0.1,0.2-0.4,0.5-0.6,0.7
		c0-0.5-0.4-1-0.4-1.6c0.8-0.2,1.3,0.6,2,1c-0.3-0.5-0.7-1-1.2-1.2c0.3-0.4,0.6-0.8,1.1-1c-0.7-0.2-1.3-0.6-2-0.7
		c-1.7-0.1-3.6-0.1-5.1,0.8c-0.2-0.1-0.6-0.2-0.8-0.3c2.6-1.1,5.8-1.7,8.3-0.1c1-1.3,2.5-0.3,3.7-0.3c1-0.6,2.3-1.2,3.5-0.6
		c0.4,0.8,0.2,1.7-0.2,2.5l-0.4-0.2c0-0.2,0-0.5,0.1-0.7s0.2-0.7,0.2-1c-0.9-0.7-2.2-0.1-2.8,0.6l0.5,0.1l0,0c-0.5,0.6,0,1.7-1,1.8
		c0-0.1-0.1-0.4-0.1-0.6c-0.5,0.2-0.8,0.5-1.1,0.9c-0.5,1.1-1.7,0.3-2.4-0.1c0.5,0.9,2.3,0.4,2.4,1.6c-0.5,0.8-1.2,1.6-2,2.2
		c-0.7,0.3-1.4,0.4-2.1,0.5c-0.4,0.4-0.8,1.2-1.6,1c0.3-0.2,0.7-0.3,1-0.5c0-0.3,0.1-0.8,0.1-1.1c-1-0.2-2.1-0.2-2.7,0.7
		c-0.2-0.1-0.4-0.3-0.6-0.4c-0.8,0.3-1.6,0.2-2.4,0.2c1-0.3,2.2-0.1,3.3-0.3c0.9-0.7,2-0.6,3-0.4c0-0.3,0-0.9-0.1-1.1
		c-0.6,0-1.1,0.1-1.6,0.4c0-0.3,0-0.6,0.1-0.8h0.4c0.1-0.2,0.3-0.5,0.4-0.7c-0.8-0.1-1.7,0-2.4-0.5s-1.4,0.2-2,0.4
		c0,0.2-0.1,0.7-0.2,0.9c-0.3-0.8-0.1-1.8-0.6-2.5c-0.2,0.9,0.1,1.9,0.2,2.8c-0.2,0.8-0.9,1.3-1.6,1.8c0.6-0.8,1-1.7,0.7-2.7
		c-0.9,0.6-1.9,0.3-2.9,0.1c-0.1-0.2-0.2-0.5-0.3-0.7c0,0.5,0,0.9,0,1.4c-1,0-2,0-3.1-0.1l0.2-0.4c-0.2,0-0.5,0-0.7,0.1
		c0.5-1,1.3-1.9,1.9-2.9c0.1,0,0.4-0.2,0.5-0.2c0.1-0.1,0.2-0.4,0.3-0.6c-0.2,0-0.5,0.1-0.6,0.2c-0.6-0.9-2.3-0.2-2.8-1.3
		c0.9-0.1,1.8-0.4,2.8-0.3c1,0.3,2,0.6,3,1c0.1-0.5,0.2-0.9,0.2-1.4c-0.1-1-1.1-1.4-2-1.7c-2.5-0.4-5.1,0.4-7.3,1.6
		c-0.5-0.5-0.9-1.1-1.5-1.5c1.7,2.2,3.2,4.7,3.7,7.4c0.4,1.5,0.6,3,0.9,4.5c-0.5-0.3-1.5-0.5-1.6-1.2c0.1,0,0.3-0.1,0.4-0.1
		c-0.3-0.5-0.7-0.9-1-1.4l-0.1,0.7c-0.4-0.2-0.7-0.5-1.1-0.7c0.1,0.3,0.4,1,0.5,1.3c-1.4-0.6-2.8-1-4.2-1.7c-0.4-0.8-1-1.5-1.3-2.3
		c-0.4-0.9-0.5-1.9-0.9-2.8c0-0.2,0.1-0.4,0.1-0.7c-0.2,0-0.5,0.1-0.6,0.1c0-0.2-0.1-0.5-0.2-0.7c-0.1,0-0.4,0.1-0.6,0.1l0.1-0.3
		c-0.4-0.3-0.8-0.6-1.2-0.8c0.1,0.7-0.2,1.5,0.4,2c0.4,1.5,1,2.8,1.8,4.2v0.4c0.3,0.4,0.7,0.7,1.3,0.7c1,1.3,1.8,2.8,2.9,4
		c0.4,0.4,0.6,1,0.9,1.5c-0.2,0.1-0.5,0.2-0.7,0.2c0.2,0,0.7,0,1,0.1c-0.1,0.3-0.3,0.6-0.8,0.6c0.5,0,1,0.1,1.5,0.2
		c-0.4,0-0.8,0.1-1.1,0.3c0,0.1,0,0.2,0,0.2c0.2,0.3,0.5,0.6,0.5,1.1c0.2,2,0.8,3.9,0.7,5.9c0.3,3.4,1,6.9,1.9,10.2
		c0.2,2,0.7,4,1.6,5.8c-0.2,0.6-0.4,1.1-0.7,1.7c-0.4-0.4-0.8-0.7-1.2-1c-0.9-1.5-0.9-3.3-1-5c-0.5-3.8-1.6-7.5-3-11.1
		c-0.4-1.2-0.7-2.5-1.2-3.6c-0.5-1-0.8-2.2-0.7-3.4c-0.5-0.6-0.5-1.5-1.1-2c-1.1-2.5-2.8-4.6-4.2-6.9c0-0.1,0.1-0.4,0.2-0.5
		c-1-0.2-1.3-1.3-1.9-2c-0.4-0.5-0.5-1.1-0.5-1.7c-0.3-0.6-0.4-1.2-0.5-1.8c0.4-0.8,0.7-1.6,1-2.5c0.3-0.8,0.9-2-0.3-2.4
		c0-0.2,0.1-0.4,0.1-0.6c-0.2-0.2-0.4-0.4-0.6-0.7c0.2,0,0.6-0.1,0.8-0.1c-0.5-0.4-1-0.9-1.4-1.5l-0.5,0.4c0.4,0.3,1.4,0.8,0.4,1.2
		c0.1,0.1,0.4,0.4,0.5,0.5c-0.3-0.1-0.6-0.3-0.9-0.4c0.1-0.1,0.2-0.3,0.2-0.4c-0.2-0.3-0.5-0.5-0.7-0.8c0.1-0.1,0.4-0.3,0.5-0.3
		c-0.5-0.4-0.9-1.4-1.7-0.9c0.4,0.4,0.9,0.8,1.1,1.3c-0.9-0.3-1.6-0.8-2.5-1c0,0.1,0.1,0.4,0.1,0.5c-0.1,0.3-0.3,0.6-0.5,0.9
		c-0.6-0.8-1.7-1.2-2.5-0.6c-0.7-0.9-1.3-1.9-2-2.8c0.2,0,0.6,0,0.8,0c-0.3-0.4-0.6-0.7-0.9-1.1c-0.3,0-0.7,0-1,0
		c0.6,0.7,1.1,1.5,1.6,2.2c-0.2,0-0.6,0-0.7,0c0.2,0.4,0.4,0.7,0.5,1.1c1,0,1.4,0.8,1.6,1.7c-0.2-0.2-0.6-0.5-0.9-0.7
		c-0.2,0-0.5-0.1-0.7-0.1c0-0.2,0-0.5,0-0.6l-0.3,0.2c-0.3-0.8-0.9-1.4-1.4-2.1c-0.3-0.5-0.5-1.3-1.3-1c0.1-0.2,0.2-0.5,0.2-0.7
		c-0.1,0.1-0.4,0.2-0.6,0.2c-0.1-0.3-0.2-0.7-0.3-1c-0.2,0.5-0.4,1-0.6,1.5c-0.3,0-0.7-0.1-1-0.1c-0.1-0.1-0.4-0.3-0.5-0.4
		c-0.6,0.1-1.2,0.1-1.7,0.2c0.2,0.7,1.1,0.8,1.6,1.1c0.5,0.4,1.4,0.2,1.7,0.7c0.1,0.5-0.1,1-0.2,1.5c0.1-0.1,0.3-0.4,0.4-0.5
		c0.5,0.2,0.4,0.8,0.6,1.2c0.9,0.6,1.9,0.3,2.8-0.1c0.8,1.4,1.7,2.8,2.4,4.3c1.3,0.4,2.7,0.9,4,1.2c0.2,1.1,0.6,2.2,0.8,3.4
		c0.4,1.3,0.2,2.7,0.6,4c0.4,1.3,1.3,2.6,1.3,4c-0.2-0.4-0.4-0.8-0.5-1.1c-0.7-1.1-1.2-2.2-1.8-3.3c-0.3-0.5-0.5-1-0.7-1.5
		c-1.1-0.3-1.6-1.3-1.8-2.4c-0.3,0.4,0.1,0.9,0.2,1.3c-0.7-0.5-1.5-0.9-2.3-1.2c-0.1,0-0.3-0.1-0.4-0.1c-0.3-0.4-0.5-0.8-1-0.9
		c0-0.2,0-0.6,0-0.8c-0.4-0.5-0.8-0.9-1.1-1.4c0-1.1-0.1-2.1,0-3.2c-0.1,0.2-0.3,0.5-0.3,0.6c-0.1-0.1-0.4-0.4-0.5-0.6
		c-0.1,0.1-0.2,0.3-0.2,0.4c0,0.2,0,0.6,0,0.7c-0.3-0.1-0.6-0.2-1-0.3c-0.5,0-1.2-0.2-1-0.9h-0.3c0-0.4,0-0.9,0-1.3
		c0.1-0.3,0-0.6-0.2-0.8c-0.1,0.2-0.2,0.7-0.3,0.9c-0.9-0.7-2-0.5-2.9-0.2c-0.4-0.8-1.3-0.6-2-0.7c-1.1,0-1.8,1-2.7,1.5
		c-0.3,0.1-0.7,0.2-1,0.3c0.1,0.1,0.4,0.4,0.5,0.6c-0.1-0.1-0.4-0.4-0.6-0.5c-0.5,0.2-1,0.4-1.5,0.7c0.1-0.8,0.2-1.7,0.5-2.5
		c0.8,0.1,0.8-0.9,0.8-1.4c-0.3,0.5-0.3,1.4-1.1,1.1c0,0.2-0.1,0.7-0.1,0.9c-0.2,0-0.6,0-0.7,0c-0.1,0.4-0.2,0.8-0.3,1.2h0.5
		c0-0.3-0.1-0.9-0.1-1.2c1.1,0.3-0.3,1.6,0.1,2.4c0,0.1,0.1,0.2,0.2,0.3v-0.2c0.1,0,0.3,0.1,0.4,0.2c-0.5,0.1-0.9,0.4-1.3,0.6
		c0.1-0.2,0.4-0.5,0.5-0.6c-0.1-0.4-0.3-0.8-0.4-1.2c-0.1,0.5-0.3,1-0.5,1.5c-0.1,0-0.4,0.1-0.6,0.1c0,0.9-1,0.8-1.3,1.5
		c0-0.2,0.1-0.7,0.1-0.9c0.8,0.7,0.9-0.6,1.2-1c0-0.4,0-0.8,0.1-1.2c0.2-0.1,0.6-0.2,0.8-0.3l0.2-0.2l-0.1-0.6
		c-0.3,0.4-0.6,0.9-1.2,0.6c0,0.3-0.1,0.8-0.2,1c-0.3-0.3-0.5-0.6-0.8-0.9c-0.1,0.4-0.1,0.8-0.2,1.2c-0.2,0-0.6-0.1-0.8-0.1
		c-0.3-0.2-0.6-0.3-0.9-0.5c0.2-0.1,0.4-0.2,0.6-0.3c-0.1-0.1-0.3-0.4-0.4-0.5c0.4-0.2,0.9-0.1,1.1-0.5l-0.6,0.1l0.1-0.6
		c0.3,0,0.8,0,1.1,0c-0.1-0.3-0.2-0.5-0.2-0.8c0.2-0.1,0.5-0.2,0.7-0.3c-0.8,0.2-1.6,0.5-2.5,0.6c0.1,0.1,0.4,0.4,0.5,0.5
		c-0.7,0.2-1.5,0.2-2.1,0.7c0-0.2,0.1-0.7,0.2-1c-0.2,0.3-0.3,0.5-0.4,0.9c-0.4,0.2-0.8,0.3-1.2,0.5c0.2-1.1,1.3-1.5,1.7-2.5
		c-0.8,0.7-1.5,1.5-1.9,2.4c-0.8,0.3-1.5,0.6-2.3,1c0.3-1.3,0.9-2.5,1.3-3.7c-1,0.9-2.2,1.7-2.7,3l-0.4-0.2c0-1.4,0.7-2.7,0.9-4.1
		c-1.2,0.3-1.5,1.4-1.9,2.4c0-0.5-0.2-1-0.4-1.4c1.8-0.7,3.4-2,5.3-2.5c1.3-0.5,2.8-0.6,4.2-0.9c0-0.1,0.1-0.2,0.2-0.3
		c-1.1,0-2.1-0.1-3.2-0.1c-1.9-0.3-4-0.1-5.9,0.3c0-0.1,0-0.3,0.1-0.5c0.2,0,0.4-0.1,0.5-0.1c1.1-0.6,2.5-0.1,3.7-0.5
		c-1.1-0.2-2.2,0-3.3,0c0-0.1,0-0.3,0-0.4c-0.2,0.2-0.7,0.6-1,0.8c0.1-1,0.8-1.8,1.5-2.4c1.1-0.5,2.4-0.9,3.7-0.8
		c2,0.2,3.8,1.5,4.4,3.4c0.9-1,2.3-1.5,3.6-1.6c1.9,0.8,3.5,2,5.1,3.1c-0.2-0.3-0.4-0.6-0.7-0.9c0-0.2-0.1-0.7-0.1-0.9
		c-0.1,0-0.3,0.1-0.4,0.1c0.1,0.2,0.3,0.6,0.4,0.7c-0.7-0.1-1.1-0.7-1.7-1.1c0-1-0.9-1.8-1.4-2.5c-1.5-1.9-3.9-2.9-6.2-3.5
		c0.4,0.1,0.8,0.1,1.2,0.2c0.2-1.3,1.1-2.3,1.9-3.3c0-0.3,0-0.9,0-1.2c0.5,1,1,2,1.3,3c-0.2,0.2-0.3,0.3-0.5,0.5l-0.2-0.6
		c-0.2,0-0.7-0.1-0.9-0.1c0,0.8-0.1,1.7,0,2.5c0.9,0.5,0.7-0.6,0.8-1.1c0.7-0.2,0.4,1.3,1.1,1c0.6-0.1,0.5-1.3-0.1-1.3
		c-0.1,0.3-0.2,0.8-0.3,1c0-0.6,0.1-1.1,0.4-1.6c0.2,0,0.7,0.1,0.9,0.1c-0.1-0.1-0.3-0.3-0.4-0.4c-0.1-0.2-0.2-0.5-0.3-0.6
		c-0.4-0.8-0.7-1.7-1.2-2.5c0.2-1.4-0.6-2.6-1-3.9c-0.2-0.4-0.4-1.4-1-1c0.4,0.3,0.7,0.7,1,1.1c-0.2,0.9,1.1,2,0.1,2.6
		c-0.4-1.1-0.8-2.1-1.4-3.1c-0.1,0.7,0.7,1.1,0.4,1.8c-0.3,0.9,0.1,1.7,0.3,2.5c-0.3,0.3-0.6,1-1.1,0.7c-0.7-0.3-1.4-0.7-2-1
		c0.3-1.3-0.2-2.6-0.4-3.9l0.4-0.2c0.3-0.1,0.5-0.1,0.8-0.2c0.4,0.2,0.8,0.4,1,0.8c0-0.1,0-0.3,0-0.4c-0.1-0.1-0.4-0.4-0.6-0.5
		c0.1-0.5-0.2-1-0.7-1.1c-1-1.2-1.6-2.6-2.4-3.9c-0.3,0.1-0.6,0.1-0.8,0c-0.8-0.5-1.6-1.1-2.5-1.2c-0.1,0.1-0.3,0.4-0.4,0.6
		c-0.6,0.2-1.2,0.3-1.8,0.3c-0.1,0.7-0.4,2.2,0.8,1.8c0.7-0.9,2-1.1,3-0.7c0.2-0.1,0.5-0.4,0.7-0.5c0.6,0.4,1.2,0.9,1.8,1.4
		c0.2,0.3,0.3,0.6,0.5,0.9c-0.2,0-0.6-0.1-0.9-0.1c-0.4-0.2-0.8-0.5-1.3-0.5c-1.9-0.1-4,0.4-5.7-0.6c-0.2-0.1-0.5-0.2-0.7-0.3
		c-0.2,0.2-0.4,0.5-0.6,0.7c-0.2-0.4-0.6-0.6-0.9-0.8c-0.8,0.2-1.4,1.1-2.3,1c0.5-0.7,0.8-1.6,1.4-2.3c0.9-0.8,2.1-1,3.1-1.5
		c-1.1-0.1-2,0.5-2.9,1.1c-1,0.7-1.4,1.9-2.4,2.6c-0.3-0.4-0.5-1.1-1.1-1.2c0.6,2.3,0.9,4.7,1.6,6.9c0.4,1.3,1.1,2.5,0.9,3.8
		c0.3,0.8,0.9,1.5,1.1,2.4c-0.2,0.1-0.7,0.3-0.9,0.3c0,0.3,0,0.7,0,1c-0.5-0.9-1.1-1.8-1.9-2.6c-1-0.8-2.2-1.2-3.3-1.6
		c0.4,1.1,0.8,2.7-0.3,3.5c-0.7-0.6-1.4-1.4-2.2-1.8c0.9,1.4,1.3,2.9,2.1,4.3c-0.2,0.2-0.4,0.5-0.7,0.7c-1.3-0.2-2.5-0.9-3.7-1.4
		c-0.1,0.2,0,0.5,0.3,0.7c-0.2,0-0.6,0-0.8,0c-0.1,0.4-0.4,0.6-0.8,0.7c0.1,0.2,0.4,0.4,0.5,0.6c-0.4-0.2-0.8-0.3-1.2-0.5
		c-0.2-0.1-0.4-0.3-0.6-0.4l0.4-0.2c-0.7-0.8-2-0.7-2.6-1.6c1.1,0.4,2.7,0.7,3,2.1c0.3-0.2,0.9-0.3,0.9-0.8c-0.2,0-0.4-0.1-0.6-0.1
		c0.1-0.1,0.3-0.3,0.4-0.5c-0.3-0.1-0.6-0.3-0.9-0.4l-0.1-0.3c-0.1-0.2-0.3-0.6-0.3-0.8c-0.3,0.3-0.1,0.7-0.1,1.1
		c-0.6-0.3-0.8-0.8-1.2-1.3c0,0.2-0.1,0.6-0.1,0.8c-0.9-0.4-1.7-1-2.6-1.3c-1-0.7-2.6-0.8-3.2-2c0.2,0,0.6-0.1,0.7-0.2
		c0,0.1,0.1,0.4,0.1,0.5c0.1-0.1,0.4-0.2,0.6-0.2c-0.1-0.2-0.2-0.6-0.2-0.7c-0.2,0.1-0.6,0.2-0.8,0.2c0.5-0.2,0.4-0.7,0.5-1.1
		c-0.3,0.1-0.8,0.2-1,0.3c-0.3-0.6-0.4-1.3-0.7-2c-0.6-0.3-1-0.8-1.1-1.4c-0.3,0-0.7,0-1,0c-0.2-0.3-0.5-0.5-0.8-0.6
		c0.6,2.2,1.7,4.2,2.9,6.1c-0.2,0.1-0.4,0.3-0.5,0.4c0-0.2-0.1-0.6-0.2-0.8c-0.1,0.1-0.4,0.3-0.6,0.5c0-0.2,0-0.5,0.1-0.7
		c-0.2,0.1-0.5,0.3-0.7,0.3c0-0.1,0-0.4,0-0.5c-0.4-0.1-0.7-0.1-1.1-0.2c-0.4-0.5-1.1-0.5-1.7-0.7c-0.2-0.4-0.8-0.9-0.3-1.3
		c0.7-1,1.2-2,1.5-3.1c-0.7,1-1,2.2-1.8,3.1c-0.4-0.6-0.7-1.2-1-1.8c0.2-1-0.5-1.8-1.1-2.6c-0.7-0.3-1.5-0.7-2.1-1.3
		c-0.5,0.4-0.5,1.1,0,1.5c-0.3-0.1-0.7-0.3-1-0.4l0.5-0.1c-0.2-0.3-0.5-0.6-0.8-0.9c0.2,0,0.6,0,0.8,0c-0.1-0.1-0.2-0.2-0.3-0.2
		c-0.3,0-0.7-0.1-1.1-0.1c0.1,0.1,0.3,0.2,0.4,0.3c-0.2,0-0.5,0.1-0.7,0.2c0.1,0.1,0.4,0.2,0.6,0.2c-0.1,0.1-0.3,0.4-0.4,0.6
		c0.2,0,0.5,0.1,0.7,0.1c-0.1,0.5-0.1,1.1,0,1.6l-0.8-0.1c0-0.2,0.1-0.5,0.1-0.7c-0.2,0-0.6,0.1-0.8,0.2c0-0.2,0.2-0.6,0.2-0.8
		c-0.2,0-0.5,0.1-0.7,0.1c0.2-1-0.9-1.4-1.4-2.1c-1.4-1.6-2.2-3.9-4.3-4.9c0,0.1,0.1,0.4,0.1,0.5c0.8,0.7,1.9,1.2,2.5,2.2
		c-0.9,0-1.3-0.9-2.2-1c-0.3-0.3-0.6-0.6-1-0.9c-0.3,0.1-0.6,0.2-1,0.3c0.4,0.3,0.8,0.6,1.2,0.9c0.3,0.1,0.6,0.3,0.8,0.4
		c-0.8-0.1-1.6,0-2.4-0.1l-0.2-0.3c-0.2,0.1-0.5,0.3-0.7,0.4c0-0.2-0.1-0.7-0.2-0.9c0.1,0.1,0.3,0.4,0.4,0.6
		c0.2-0.1,0.6-0.3,0.9-0.4c-0.4-0.2-0.9-0.3-1.3-0.6c-0.4,0.5-1,0.4-1.6,0.4c0.5-0.3,1.1-0.5,1.5-0.9c0.5-0.3,1.1-0.4,1.7-0.6
		c-0.3-0.5-0.9-0.7-1.4-1.1l-0.4,0.2l0.1-0.5c-0.6,0.3-1.2,0.4-1.8,0.5c0.6-0.5,1.5-0.7,2-1.4c0-0.3,0.1-0.9,0.1-1.2
		c-0.6,0.4-1.2,0.9-1.8,1.3v-0.4c0.2-0.2,0.5-0.4,0.7-0.6c0.1-0.1,0.3-0.4,0.4-0.6c0.2,0,0.6,0.1,0.8,0.2c-0.1-0.6-0.6-1-0.9-1.4
		c-0.3,0.3-0.6,0.5-1,0.8c-0.7,0.5-1,1.2-1.5,1.9c-0.2,0-0.7,0.1-1,0.2c-0.1-0.3-0.2-0.9-0.2-1.2c0.9-1.1,2.5-1,3.5-2
		c0.1-0.1,0.2-0.2,0.3-0.2c0.4,0.5,0.7,1.5,1.5,1.3c0.2,0.7-0.5,1.3-0.3,1.9c0.5,0.2,0.4-1.1,1-0.8c0.3,0.4,0.7,0.9,1.1,1.2
		c0.2,0.1,0.5,0.2,0.6,0.3c0.3-0.3,0.6-0.6,0.9-0.8c0-0.9-0.9-1.3-1.5-1.8v-0.4c-0.2,0.2-0.4,0.5-0.6,0.7l0.2,0.6
		c-0.2-0.1-0.5-0.2-0.7-0.4c1-0.5,0.3-1.5,0-2.1l-0.6,0.2c-0.2-0.7,0.3-1.1,0.7-1.6c0,0.2-0.1,0.7-0.1,1c0.3-0.1,0.7-0.2,1-0.4
		c-0.3-0.2-0.5-0.5-0.4-0.9c0.1-1.7,0.4-3.5,0.3-5.2c0-1,0.9-2,0.5-3c-0.6-0.8-1.4-1.5-1.4-2.5c-0.9-0.3-2.6-1.2-3,0.1
		c1,0,1.9,0.4,2.8,0.7c0.1,0.2,0.4,0.6,0.5,0.8l-0.7-0.3c0,0.6-0.1,1.2-0.2,1.8c-1.2,1-2.4,2-3.8,2.6c-0.6-0.5-1.2-1-1.9-1.5
		c0.2-0.3,0.4-0.5,0.5-0.8c0.4,0.4,0.7,0.9,1.2,1.2c0.8,0.2,1.3-0.5,1.9-0.9c0.5-0.4,1.2-0.7,1.4-1.4c-0.7,0.8-1.6,1.3-2.4,2.1
		c-0.6-0.4-1.1-0.9-1.6-1.4c0.2-0.4,1-0.6,0.6-1.2c0.6,0.2,0.9-0.4,1.2-0.8c0.5,0,1.1-0.2,1.5,0.2c0.4,0.1,0.9,0.9,1.2,0.4
		c-0.1-1.2-1.7-1.1-2.5-1.6c-0.2,0.3-0.3,0.7-0.4,1.1c-0.4,0.4-0.7,0.8-1.3,0.4c0,0.2,0.1,0.5,0.2,0.7l-0.1,0.4
		c-0.9-0.4-2-0.3-3-0.6c-0.4,0.2-0.8,0.4-1.1,0.6c0.2-0.3,0.5-0.8,0-1c-1.1-0.7-1.9-1.9-3.1-2.3c-1.2-0.3-2.6-0.4-3.8,0.1
		c-1.4-0.6-2.8-1.3-4.3-1.4c-0.1-0.2-0.2-0.7-0.3-0.9c0.1-0.2,0.3-0.5,0.4-0.7c0.3-0.1,0.7-0.2,1.1-0.3c0.7,0.3,1.4,0.6,1.6,0.6h0.9
		c0.8,0,1.5,0.2,2.1,0.6c0.1,0,0.4-0.1,0.5-0.1c-0.7-0.9-1.1-1.2-2.1-1.2h-0.5c-0.4,0-3.2-0.6-3.9-0.5h-0.1
		c-0.4,0.3-0.6,0.9-0.9,1.3c0.1,0.4,0.2,0.7,0.3,1.1c0.2,0,0.4,0.4,0.6,0.5c0,0.1,0.4,0,0.4,0.2c1.5,0.5,2.9,1,4.4,1.6
		c1.5,0.9,2.4,2.4,3.3,3.8c-1.1,1-2.4-0.6-3.7-0.3c-1.1,0.3-1.6,1.5-1.8,2.5c0.4,0.2,0.8,0.4,1.2,0.5c-0.6-0.1-1.2-0.5-1.8-0.3
		c-0.8,0.2-2.1,0.7-1.4,1.7c-1.3-0.3-2.6-1-4-1.2c-0.2-0.5-0.3-1-0.3-1.5c0.2,0,0.6-0.1,0.8-0.1c0-0.1,0.1-0.3,0.1-0.5
		c-0.7,0-0.6-0.1-1.2-0.3c-0.1-0.6-0.3-1-0.3-1.7c2-0.4,3.3-0.3,5.2,0.2c0.5,0.2,1.1,0.2,1.5,0.2c0-0.2-0.1-0.5-0.1-0.6
		c-2.6-0.6-5.4-0.9-8-0.4c-0.4,0.5-0.3,1-0.2,1.7c0.1,0.5,0.4,1.2,1,1.7c0.3-0.2,0.6-0.3,0.9-0.4c-0.6,1.2-0.1,2.2,1,2.3
		c1.5,0.3,3,0.9,4.5,1.4c1,0.1,2,0,3,0.1c0.2,0.8,0.4,2-0.5,2.4c-0.5,0.3-1.1,0.1-1.7,0.2c-1.4-0.1-2.8,0.4-4.1,0.5
		c-0.2,0.9,0.4,1.7,1,2.3c2.1-0.1,4.1-0.2,6.2,0.2c1,0.3,2.1-0.1,3.1-0.3c-0.5,0.2-0.6,0.5-0.4,0.8c0.4,0.6,0.8,1.1,1.2,1.7
		c0.9,0.1,1.8,0.1,2.6,0.1c0.1,0.2,0.2,0.4,0.4,0.6c0-0.2,0-0.5,0-0.7c0.3,0.1,0.8,0.4,1.1,0.5c-0.1,0.2-0.1,0.4-0.2,0.6
		c0.7,0.4,1.4,1,2.2,1.2c0,0.1,0,0.4,0,0.6c0.2,0,0.5-0.1,0.7-0.2c0,1.4-1,2.5-0.8,3.9c0.2,1.2,0.8,2.2,1.4,3.2
		c0.2,0.4,0.4,0.8,0.8,1c0.3-1.1,0.6-2.2,0.8-3.3c0.5,0.3,0.5,0.9,0.8,1.3c-0.2,1.9-0.9,3.9,0,5.6c0.5,1.2,0.9,2.5,1.8,3.5
		c0.5-1.7,0.2-3.5,0.4-5.3c0.3,0.4,0.6,0.8,0.9,1.2c-0.1,1.8,0.3,3.6,0.5,5.3c0.3,2.4,2.8,3.4,4.3,5.1c-0.6-2.4-1.7-4.7-1.6-7.2
		c1.1,0.3,2,1.1,2.9,1.7c0.2-0.1,0.5-0.1,0.7-0.2c1.3,1.2,2,2.9,3.4,4c1.3-0.1,2.6,0,3.8,0.5c1.5,1,3,2.1,4.4,3.3
		c1.2,1.6,2,3.6,3.5,5c3.1,2.7,7.5,2.9,11.4,2.9c1.7,1.4,3.3,2.8,5,4.1c1.1,1.9,1.7,4.1,3.1,5.8c0.9,1.5,2.4,2.6,4.1,3.1
		c0.1-0.1,0.2-0.3,0.3-0.5c1.2-1,2.3-2.2,3.4-3.2c-0.3,0-0.8-0.1-1.1-0.2c-0.3-0.2-0.6-0.4-0.9-0.7c-0.9-0.5-1.6-1.3-2.6-1.5
		c-0.2-0.5-0.4-1-0.6-1.5c0.9-0.2,1,1.2,1.8,1.6c0.7,0.5,1.3,1.4,2.2,1.4c0-0.2,0.1-0.6,0.1-0.8c0.2,0.2,0.4,0.3,0.5,0.5
		c0.3,0,0.5,0.1,0.8,0.1l-0.2,0.3c-0.4,0.7,0.7,0.8,1.2,0.7c-0.5,0.1-1,0.1-1.4,0.5c0.1,0.1,0.2,0.3,0.4,0.4l0.3-0.6l0.2,0.4
		c-0.2,0.3-0.7,0.8-0.9,1.1c0.4-0.2,0.8-0.5,1.2-0.7c0,0.1,0,0.4-0.1,0.5s-0.4,0.3-0.5,0.4l-0.2,0.1c-0.2,0-0.5-0.1-0.6-0.1
		c-0.3,0.3-0.6,0.5-1,0.8l0.2,0.1c0.3,0,0.5,0.2,0.5,0.4l-0.3,0.2c0.8-0.1,0.4,0.7-0.2,0.6c0-0.1,0.1-0.4,0.2-0.6
		c-0.3,0.1-0.6,0.2-0.9,0.3c0.1-0.2,0.3-0.5,0.4-0.7c-0.6-0.2-0.9,0.4-1.3,0.7l0.1-0.9c-0.3,0.3-0.6,0.6-0.9,0.9
		c2.2,0.7,4.6,1.2,6.3,2.7c-0.2,0.5-0.8,1.2,0.4,0.8c0.4,0.7-0.5,1.3-0.7,1.9c0.3,0.5,0.5,1.1,0.6,1.7c-0.2,0.3-0.4,0.5-0.6,0.8
		c0.2,0,0.5,0.1,0.7,0.1l0.1,0.5h0.5c-0.1-0.2-0.2-0.6-0.2-0.8c0.3,0.1,0.7,0.2,1,0.3l0.2,0.2c-0.4,0.3-0.8,0.4-1.2,0.5
		c0.3,0.7,0.7,1.5,0.8,2.3c-0.6-0.7-0.8-1.5-1-2.4c-0.2-0.1-0.6-0.3-0.8-0.4c0.3,1.1,0.9,2.1,1.3,3.2c-2.1-0.5-4.2-0.3-6.3-0.2
		c-4.5,0.6-9.4,1-13.1,3.9c-0.1,0.1-0.2,0.2-0.2,0.4c0.4-0.5,1.1-0.4,1.7-0.5c2.5-0.1,4.8,0.9,7.1,1.9c-0.7,0.3-1.3,0.7-2.1,0.7
		c-0.2,0.2-0.4,0.4-0.6,0.5v0.4c0.1-0.1,0.4-0.3,0.6-0.4c0.6,0.2,1.1-0.1,1.6-0.4c0.9-0.2,1.9-0.5,2.7,0.1c0.9,0.5,1.9,1.1,2.7,1.9
		c0.7,0.5,0,0.8-0.6,0.8c0.5,0.3-0.4,0.7-0.6,1.1c0.8-0.3,1.3-1.1,2.2-1.2c-0.2,0.5-0.6,0.8-1.1,0.9c0,0.1,0,0.4,0.1,0.6
		c-0.1-0.1-0.4-0.2-0.5-0.2c-0.1,0.1-0.4,0.4-0.5,0.5c-0.1-0.2-0.2-0.5-0.3-0.7c-0.5,0.4-1.1,0.8-1.6,1.2c0,0.1,0.1,0.3,0.2,0.4
		c-0.3,0.3-1,0.7-0.6,1.2c0.4,0.1,0.8,0,1-0.3c1.4-1,2.8-1.9,4.2-2.9c0,1.1-1.8,1-2.2,2.1c0.6-0.3,1.3-0.6,1.9-0.9
		c-0.3,0.2-0.6,0.4-0.9,0.6c-0.6,0.3-1.1,0.8-1.6,1.2c-0.5,0.4-0.9,0.8-1.3,1.2c0.2,0.1,0.5,0.3,0.7,0.4c0.4-0.2,0.8-0.3,1.2-0.4
		c-0.8,0.5-1.7,0.8-2.5,1.2c0.1-0.1,0.2-0.3,0.3-0.5h0.3c0-0.2,0-0.5,0-0.7c-0.7,0-1.3,0.5-1.8,1c0.2,0.3,0.2,0.6-0.3,0.8
		c0.5-0.1,1-0.2,1.5-0.3c-0.3,0.6-1.1,0.4-1.6,0.4c-0.5,0.3-0.9,0.7-1.3,1.1c0.6-0.1,1.1-0.2,1.7-0.2c0.3-0.2,0.5-0.4,0.8-0.6
		c-0.2,0.3-0.3,0.6-0.5,0.9c0.2,0.2,0.4,0.4,0.5,0.6c0.3-0.3,0.8-0.3,1.2-0.4c-0.2,0.1-0.5,0.3-0.7,0.5c-0.3,0-0.7,0.1-1,0.1
		c0-0.1,0-0.4,0-0.5c-0.2-0.2-0.4-0.3-0.5-0.5c-0.2,0.1-0.6,0.2-0.8,0.3c-1.5-0.3-2.5,1.1-3.6,1.9c0.4,0,0.7-0.2,1-0.4l-0.1,0.5
		c-0.2,0.1-0.5,0.3-0.6,0.4c-0.1,0.4-0.4,0.6-0.7,0.6h-0.2c-0.1,0.2-0.2,0.5-0.3,0.7c0.6-0.1,1.3-0.2,1.9-0.3c0-0.2,0-0.5,0.1-0.7
		c0.3-0.2,0.7-0.3,1-0.5c-0.2-0.1-0.5-0.3-0.6-0.4c0.2-0.2,0.5-0.4,0.9-0.4c-0.1,0.2-0.2,0.6-0.3,0.8c0.7,0.1,1.4-0.1,1.9-0.6
		c-0.2,0-0.6-0.1-0.7-0.1c0.1-0.1,0.2-0.2,0.3-0.3c0.1,0.1,0.3,0.2,0.4,0.3c0.4,0.2,0.7,0.1,1.1-0.1c0,0.1,0,0.2,0,0.2
		c-0.6,0.1-1.1,0.6-1.6,1c-0.4,0-0.7-0.1-1.1-0.1c0.2,0.6,0,1.1-0.7,1.2c0.1-0.4,0.2-0.7,0.3-1c-0.8,0.1-1,1-1.2,1.6
		c-0.2,0-0.5,0.1-0.7,0.2c0.1-0.2,0.2-0.5,0.3-0.7c-0.6,0-1.2,0-1.8,0.2v0.1c-0.1,0.2-0.2,0.5-0.3,0.7c-0.2,0.1-0.6,0.2-0.9,0.2
		c0.2,0,0.7,0.1,1,0.1c-0.4,0.8-1.5,0.2-1.9,0.9l0.1-0.4c-0.3,0.1-1,0.2-1.3,0.2c0-0.1,0.1-0.4,0.1-0.6c-0.4,0.2-0.8,0.4-1.1,0.6
		l0.2-0.6c-0.3-0.1-0.7-0.2-1-0.4c-0.3,0.1-0.6,0.3-0.9,0.4c0.1-0.2,0.2-0.6,0.3-0.8c-0.9,0.3-1.7,0.8-2.5,1.3l-0.4-0.1
		c-0.7-0.2-1.8,0.5-1.2,1.3c-0.5,0-0.9,0.2-1.2,0.6c0.2-0.1,0.7-0.4,0.9-0.5c0,0.2-0.1,0.6-0.2,0.8c0.2,0,0.6,0,0.8,0
		c-1,0.6-1.9,1.4-3,1.7c0.2,0.1,0.4,0.2,0.6,0.3c0.5-0.6,1.3-1,2-1.4c0,0.2-0.1,0.7-0.2,0.9c0.3-0.1,0.9-0.2,1.2-0.2
		c-1.1,0.6-1.9,1.4-3.1,1.8c0-0.7,0.8-0.9,1.2-1.3c-0.6,0.1-1.1,0.3-1.5,0.7c-0.2-0.3-0.3-0.6-0.5-0.9c0.5-0.3,1-0.8,1.5-1.2
		c-0.3,0.1-1,0.4-1.4,0.5c0.4-0.7,1-1,1.6-1.4c-0.2,0.1-0.6,0.2-0.8,0.3c-0.1-0.2-0.3-0.6-0.4-0.8l0.3,0.8c-0.4,0-0.8,0-1.3-0.1
		c0.3,0.1,0.6,0.3,0.9,0.4c-0.7,0.5-1.5,0.9-2.3,1.3c0.1-0.2,0.4-0.6,0.5-0.8c-0.2,0-0.7,0.1-1,0.2l-0.1-0.3
		c0.2-0.1,0.7-0.2,0.9-0.3c-0.3,0-1,0.1-1.4,0.1c0.2-0.2,0.7-0.7,0.9-0.9c-0.8,0.2-1.1,1.7-2,1c0.4-0.3,0.6-0.9,1.2-1
		c-0.2-0.1-0.4-0.3-0.6-0.5c0.6-0.9,1.6-1.3,2.4-1.9c0.1,0.2,0.2,0.6,0.2,0.8c0.6-0.2,0.2-0.7,0-1l1-0.2c0.2,0.9-0.2,1.6-0.9,2
		c0.4-0.1,0.8-0.3,1.2-0.4c0-0.1-0.1-0.4-0.1-0.6c-0.1-0.5-0.2-1.1,0.1-1.5c-0.3,0.3-0.7,0.5-1.1,0.6c-0.1-0.2-0.2-0.6-0.3-0.8
		c0.4-0.4,1-0.5,1.5-0.7c0.1,0.1,0.2,0.3,0.3,0.5c0.1,0.1,0.2,0.4,0.3,0.6c-0.1,0.3-0.4,0.8-0.5,1c0.3-0.1,1-0.4,1.3-0.5
		c-0.2,0.2-0.7,0.7-1,0.9c1.2,0.2,1.8-1.1,2.9-1.3c0,0.2-0.1,0.6-0.1,0.8c0.5-0.2,0.9-0.5,1.4-0.8c-0.2,0.3-0.6,0.9-0.8,1.2
		c0.7-0.5,1.8-0.7,2.2-1.5c-0.3,0.1-0.9,0.2-1.1,0.3c0.2-0.2,0.5-0.7,0.7-0.9c-0.2,0.1-0.7,0.3-1,0.5c0.3-0.3,0.6-0.6,0.8-1
		c-1.4,0.2-2.5,1-3.7,1.5c0.1-0.1,0.3-0.4,0.3-0.6c1.1-0.5,2.2-1,3.3-1.4c-0.1-0.1-0.2-0.3-0.3-0.5c-1.4,0.4-2.6,1.3-3.9,1.7v-0.4
		c0.8-0.7,1.9-1.2,2.9-1.6c0.5-0.2,1.2-0.3,1.4-0.9c-1.6,0.2-3,1.2-4.4,2l-0.2-0.4c-0.2,0.1-0.5,0.4-0.7,0.5c-0.1,0-0.2,0-0.2,0
		c-1.4,0.7-2.7,1.3-4,2.2c-0.4,0.3-0.8,0.7-1.4,0.7c0.2-0.4,0.4-0.9,0.6-1.3c1-0.1,1.7-0.9,2.6-1.3c1.1-0.6,2.2-0.9,3.2-1.6
		c-1.9,0.8-3.8,1.8-5.5,2.8c0.3-2.5,1.7-4.5,2.9-6.7c0.3,0,0.6,0,1,0c-0.2-0.1-0.5-0.3-0.7-0.4c0.5-0.6,1-1.2,1.5-1.9
		c1.1-1.6,2.5-3,3.7-4.6c0.6-0.8,1.4-1.2,2.1-1.9c-1,0.5-1.8,1.2-2.4,2c-3.3,3.5-6.3,7.4-8,11.9c-0.6,2.1-1.7,4.1-2.2,6.2
		c0.1,0.1,0.3,0.3,0.4,0.4c0.6,1.9,1.6,3.7,3.2,5c1.5,1.1,3,2.3,4.7,3.1c1.7,1.6,3.5,2.9,5.4,4.2c2,1.2,4.4,1.3,6.7,1.1
		c1.5-0.4,3.1-0.1,4.7-0.1c3,0.4,6.1,0.3,9.1-0.1c2-0.5,3.9-1.1,5.8-1.7c2-1,4-2.2,6.1-3.1c1.8-1,3.9-1.4,6-1.8
		c0.6-0.3,0.8,0.4,1.1,0.8c0.5,0,1.1,0,1.6-0.1c0.2-0.2,0.3-0.4,0.5-0.6c0.1,0.2,0.3,0.5,0.4,0.6c1.5-0.1,3.3-0.5,4.6,0.6
		c1.7,1.4,3.3,3,4.7,4.7c0.9,1.4,1.9,2.6,2.7,4c0.8,1.7,2.7,2.3,4.2,3.3c0,0.2,0,0.6,0,0.7c0.3,0,0.8-0.1,1-0.1
		c0.5,0.3,1,0.7,1.5,1.1c0.5-0.4,1-0.9,1.4-1.5c-0.4-0.4-0.1-0.8,0.1-1.2l0.4,0.8c0.7-1.7,0.8-3.5,0.8-5.2c1.4,2.5,3.2,4.8,4.8,7.3
		c0.6,0.8,0.8,1.8,1.7,2.2c1.8-0.9,2.9-2.7,4.7-3.6c1-2.4,1.2-5.1,1.4-7.7c0.1-1.7-0.1-3.5,0.3-5.2c-0.7-1.6-1.5-3.2-2.6-4.6
		c0.4,1.2,1.1,2.2,1.5,3.4c1,4,0.4,8.2-0.5,12.2c-0.4,2.2-2.6,3.3-4.1,4.6c-1.8-2.6-3.7-5-5.4-7.7c0-0.2,0.1-0.6,0.1-0.9
		c-0.3-0.1-0.6-0.2-1-0.3c-0.1-0.6-0.3-1.2-0.5-1.9c0,0,0-0.1,0-0.2c-0.1-0.9-0.1-1.8-0.2-2.6c-0.4-4.1-2.1-8-1.9-12.2
		c-0.2-0.2-0.5-0.4-0.7-0.7c1,0.8,2.4,0.6,3.5,0.1c0.5-0.7,0.8-1.5,1-2.2c0-0.8,0.3-1.9-0.6-2.2c0,0.2,0,0.6,0,0.9
		c-0.7,0-1.3-0.4-2-0.3c-0.9,0-1.9,0.3-2.6-0.4c-0.1,0.1-0.3,0.4-0.4,0.5l0.1-0.5c-1.4-0.1-2.5-1.3-3.9-1.2c0.5,0.9,1.4,1.5,2,2.4
		c0.2,0.9-0.2,1.9,0.4,2.7c0.7,0.4,1.7,0.5,2,1.4c1.2,4.6,2.7,9.2,2.6,14c-0.2-0.5-0.5-1-0.7-1.5c0.2-1-0.1-2-0.6-2.9
		c-0.3-0.9-0.7-1.8-1.3-2.5c-0.7-0.9-1.1-2.1-2.2-2.6c0,0.1,0,0.3,0,0.4c1,0.1,1.3,1.3,1.9,1.9c-0.2,0-0.6,0.1-0.8,0.1
		c0.1,0.5,0.7,0.5,1.1,0.8c0.4,0.6,0.7,1.2,1,1.7c-0.1,0.1-0.4,0.4-0.6,0.6c0.2,0.1,0.5,0.2,0.7,0.2c0.3,0.7,0.5,1.5,0.7,2.3
		c-0.5,0-0.7,0.2-0.7,0.7c0.2,0,0.5,0.1,0.7,0.1c0.4,0.8-0.1,1.9,0.6,2.6l0.3-0.1l0.3-0.1c0,0.2,0.1,0.6,0.2,0.8
		c-0.5-0.3-1.1-0.6-1.7-0.5c0.9,0.8,0.6,2,0.6,3.1c-0.2-0.1-0.5-0.2-0.6-0.3c0,0.2,0,0.5-0.1,0.7c1,0.1,0.2,1,0.2,1.5
		c-0.2,0.1-0.5,0.2-0.7,0.2c-0.4,0.5-0.9,1.1-1.2,1.7c-0.4-0.3-0.8-0.5-1.2-0.8c0.3-0.4,0.5-0.7,0.7-1.1c1.6-1.8,1.2-4.4,0.7-6.6
		c-0.6-3.3-1.4-6.8-3.5-9.6c-0.3-0.3-0.2-0.7-0.2-1c-0.9-0.7-1.7-1.6-2.1-2.7c-0.3-0.7,0.7-0.9,0.7-1.6c-0.4-0.4-0.8-0.9-1.2-1.3
		c0-0.7-0.6-1.1-1.1-1.5c-0.3,0.1-0.6,0.2-0.9,0.3c0-0.1-0.1-0.2-0.2-0.2c0.6-0.6-0.3-1.2-0.6-1.7c-0.8-0.3-1.7,0.1-2.5-0.3
		c-0.9-0.3-2.3-0.8-2.8,0.4c-1.9,0.4-4.7,0.5-5.2,2.8c-0.7,0-1.4-0.1-2.1-0.1c-0.2,0.3-0.5,0.5-0.8,0.7c-1.5-0.1-2.9-0.6-4.3-0.8
		c2.6-0.7,5.1-1.8,7-3.8c0.9-1,1.8-1.9,2.5-3c1.3,0,2.7-0.2,4-0.3c-1-0.5-2-1.3-2.5-2.4c0.7,0.9,1.9,1.3,2.6,2.2
		c1.2,0.3,2.3,0.8,3.5,0.9c1.8,0.1,3.7-0.3,5.3-1c0.3,0.9,0.6,1.8,0.6,2.7c0.7-0.2,0.4-1,0.3-1.5c-0.9-3.4-2.3-6.6-3.9-9.7
		c-0.6-1.2-1.3-2.2-1.8-3.4c-1.6-2.2-3.9-3.6-5.8-5.4c-0.4-1-0.1-2.4,0.4-3.3c0.5,0.5,0.8,1.1,1.4,1.5c-0.1,0.1-0.2,0.4-0.2,0.6
		c0.7,0.9,1.7,1.4,2.1,2.5c1,0.7,1.8,1.7,2.3,2.8c1.4,0.5,1.8,2.1,2.9,3c0.9,1,1.2,2.4,1.9,3.5c-0.4,0.1-0.8,0.1-1.2,0.2
		c0.1,0.1,0.2,0.4,0.3,0.6c0.2,0.1,0.4,0.2,0.6,0.3l0.1-0.4c0.1,0.3,0.2,0.5,0.3,0.8l-0.3-0.4c-0.2,0.2-0.4,0.4-0.5,0.6
		c0,0.6,0.9,0.8,1.1,0.3c0,0.1-0.1,0.4-0.2,0.5c-0.1,0.1-0.2,0.4-0.3,0.5c0.4,1.2,0.8,2.4,1.3,3.5c0.3,0.8,0.6,1.5,0.9,2.3
		c0.4,0.1,0.7,0.2,1.1,0.4c-0.6,0.1-1.1,0.1-1.7,0.1c0,0.2,0,0.5,0.1,0.7c1.3,1.1,3.1,0.6,4.7,0.8c0.4-0.1,1.1,0.3,1.2-0.3
		c-1-0.1-1.9-0.4-2.9-0.5c0.1-0.1,0.3-0.2,0.4-0.2c0.8,0,1.5,0.2,2.2,0.3c-0.1-0.2-0.2-0.7-0.3-0.9h0.5c-0.1,0.8,0.8,0.6,1.2,0.8
		c0.9-0.8,0.9-1.4,1.2-2.5c0.3,0.6,0.7,0.5,0.8,1.2c-0.3,0.3-0.7,0.5-0.6,1c-0.8-0.1-0.1,0.5,0,0.7c-0.3,0.5-0.6,1-0.7,1.5
		c0,0.6,0.6,1.3,1.2,1c0.4-1.1,0.3-2.3,0.4-3.4c0.5,0.2,0.9,0.4,1.4,0.6c-0.5-0.4-1-0.9-1.4-1.4c0.1-0.2,1-0.5,1.1-0.7
		c-0.7-1.6-0.7-3.4-1.1-5.2c0-0.2-1-0.5-1-0.7l0-0.1c-0.1,0,0,0.1-0.1,0.1c-0.1-0.2-0.3-0.5-0.3-0.7c-0.9-3,0-5.7-0.2-8.8
		c1.7,0,2.3,0.2,4,0.4c1.1,0.1,2.2,0.6,3.3,0.7c1.8,0.2,3.6,0.4,5.3,1c2,0.2,4,0.7,6.1,0.9c2.3,0.7,6.6,1,8.9,1.6V76.2l-2-0.1
		c-1.8-0.1-3.5-0.5-5.3-0.4c0.2-0.3,0.3-0.6,0.5-0.8l0.1,0.1c1.7,0.2,4.9,0.6,6.6,0.8V36.4c-1.2,0-3.9,0.1-5,0.3
		c-1.5,0.4-2.9,0.8-4.3,1.4c1.3-0.9,2.7-1.5,4.2-2.1C236.5,35.9,236.8,36.2,237.2,36.2z M220.8,76.6c1.2,0,2.3,0.6,3.5,0.5l-0.1,0.7
		c-1.1,0.3-2.3-0.5-3.4-0.4C220.7,77.1,220.8,76.8,220.8,76.6z M193.9,66.5l-0.1,0.2c-0.3,0-0.5,0-0.8-0.1c0.1-0.1,0.3-0.2,0.4-0.3
		c-0.1-0.3-0.3-0.5-0.6-0.6c0.1-0.2,0.2-0.4,0.3-0.6h-0.8c0.5-0.2,1-0.2,1.5,0c-0.2-0.2-0.7-0.7-1-0.9c0.6,0.1,0.4,0.5,1,0.5
		c-0.2,0.2,0.4,0.1,0.2,0.3c0.5,0,0.8,0.1,1,0.5c-0.3-0.1-0.6-0.3-1-0.4c-0.3,0.2-0.6,0.5-0.9,0.8c0.7,0.4,1.6,0.6,2.1,1.3
		C194.7,66.9,194.2,66.1,193.9,66.5z M170.4,47.2v0.2c0-0.1-0.1-0.2-0.2-0.2H170.4z M114.2,20.8c0.7,0.2,1.3,1.1,0.6,1.6
		c-0.3,0-0.8,0.1-1,0.2C113.9,22,114.1,21.4,114.2,20.8z M110.7,27.1c0.2-0.1,0.4-0.1,0.6-0.2c-0.5-0.1-1.3,0.2-1.4-0.5
		c0.8-0.3,1.8-0.8,1.9-1.8c0.8,0.1,2,0.8,2.5-0.1l-0.1-0.4l-0.5-0.2c-0.1,0.2-0.2,0.5-0.2,0.7c0-0.2-0.1-0.5-0.1-0.6
		c-0.3,0-0.9,0.1-1.2,0.2c0.5-1,1.6-1.1,2.6-1.5c-0.3,1.2,0.3,2.5,0.2,3.7c-0.7,0.1-1.5,0.3-2.2,0.5c0,0.1,0,0.2,0.1,0.3
		c0.6-0.1,1.3,0.1,1.8-0.3c0.2,0.3,0.6,0.7,0.3,1.1c-0.4,0.9-1.2,1.6-1.6,2.5c0-0.2-0.1-0.5-0.1-0.6c-0.3,0.2-0.7,0.4-1,0.3
		c-0.8,0.2-1.5-0.1-2.3-0.1c-0.1,0.1-0.3,0.3-0.3,0.4c-0.3-0.4-0.6-0.7-0.9-1.1c-0.1-1-0.3-2.1-0.3-3.1
		C109,26.4,109.9,26.7,110.7,27.1z M108.1,35.1c-0.1,0.2-0.3,0.5-0.5,0.7c-0.9-0.3-1.9,0-2.8-0.1c-0.5-0.3-0.9-0.8-1.1-1.4
		c0.2-0.3,0.4-0.5,0.7-0.7c1.1-1.1,2.6,0.2,3.7,0.7C107.9,34.5,107.6,34.9,108.1,35.1z M109.9,37.1c-0.6-0.1-1.3,1.3-1.5,0.2
		c0.2,0,0.6-0.1,0.8-0.1c0.3-0.4,0.3-1.1,0.9-1.1c-0.1,0.1-0.2,0.3-0.3,0.4C109.8,36.7,109.9,36.9,109.9,37.1z M110.9,38.3
		c0.1,0,0.4-0.1,0.6-0.1v0.2c-0.1,0-0.4,0.1-0.6,0.1V38.3z M131.3,56.9c-1.3-0.4-2.7-0.8-4.1-0.7c-0.4-0.3-0.9-0.6-1.1-1.2
		c1.5,0.1,3,0.2,4.4,0.5c0.8,0.5,1.6,1.1,2.2,1.8C132.3,57.3,131.8,57.1,131.3,56.9z M138.8,54.7l-0.1-0.1c0-0.3,0-0.5,0.1-0.8
		c0.1-0.5,0.6,0,0.8,0.2C139.3,54.3,139.1,54.5,138.8,54.7z M145.9,55.9c0.1,0.4-0.1,0.6-0.5,0.4C145.3,55.9,145.5,55.7,145.9,55.9z
		 M149,65.5c-0.3,0.7-1.5-0.1-1.7,0.6c-0.5-0.3-1.1-0.2-1.6-0.4c-0.8-1.1-1.5-2.2-2.3-3.2c-0.7-0.7-1.5-1.2-2.2-1.8
		c-1.1,0.2-0.7-1.3,0.2-1c1.6,0.7,3.3,1.2,4.9,1.9c1.2,1.5,2.8,2.7,3.9,4.2C149.8,65.7,149.4,65.6,149,65.5z M152.7,65.5
		c-0.1-0.1-0.4-0.2-0.5-0.3c0.6-0.5,1.4-0.3,1.8,0.2C153.6,65.3,153.1,65.4,152.7,65.5z M153.3,41.8c-0.6,0-0.1-1.1,0.3-0.9
		C153.6,41.2,153.5,41.5,153.3,41.8z M155.1,44.9c0.1-0.4,0.2-0.9,0.3-1.3c-0.2,0.3-0.4,0.5-0.7,0.8c-0.3-0.2-0.7-0.4-1-0.6
		c0.5-1,1.1-2,2.1-2.4c0,0.2-0.1,0.7-0.1,0.9c0.2-0.3,0.3-0.6,0.2-0.9l0.4,0.1c0-0.2,0.1-0.5,0.2-0.7c0.1,0.1,0.4,0.4,0.5,0.5
		c-0.3,0.5-0.6,1-0.9,1.5c0.3-0.2,0.5-0.3,0.7-0.5c0.5,0,0.9,0.1,1.4,0.2c-0.5,0.5-1.5,0.6-1.6,1.5c-0.1,0.3-0.2,0.6-0.3,1
		c-0.1,0-0.4,0-0.5,0C155.7,45,155.3,44.9,155.1,44.9z M157.5,49.3c0.2,0.3-0.1,1.2-0.5,0.8c-0.4-0.8-0.7-1.7-1.1-2.5
		C156.5,48.1,157.5,48.4,157.5,49.3z M156.3,63l0.1,0.4H156l0.1,0.5c-0.1,0-0.3,0-0.4,0c0-0.2,0-0.6,0-0.9c0.2-0.7,0.5-1.3,0.8-1.9
		c0.8,0,1,0.7,1.1,1.3c-0.2,0-0.5,0-0.7,0c0.4,0.1,0.8,0.3,1,0.6C157.5,63,156.9,63,156.3,63z M158,48.1c0.1-0.1,0.4-0.2,0.5-0.2
		c-0.7-0.9,0.6-1.7,0.4-2.7c-0.5,0.4-0.8,1-1.1,1.5c-0.1-0.2-0.4-0.5-0.5-0.7c0.2-0.3,0.4-0.6,0.6-0.8c0.1-0.1,0.3-0.3,0.4-0.4
		c0.4-0.2,1.3-0.1,1.2-0.8c-0.5,0.2-0.9,0.5-1.4,0.8c-0.1-0.2-0.2-0.6-0.2-0.8l0.3-0.6c0.9,0,2-0.9,2.7-0.1c-0.3,0.3-0.7,0.5-1,0.8
		c1.2-0.5,2.5,0,3.7-0.4c-0.9-0.4-1.7-0.9-2.6-1.3c-0.7-0.3-1.4,0-2,0.2l-0.3-0.2c0.5-0.5,0.6-1.6,1.5-1.5c1-0.1,1.9-0.1,2.9,0
		c0,0.3,0.1,0.8,0.1,1.1c0.2-0.3,0.3-0.7,0.7-0.9c0.4,0.1,0.7,0.3,1.1,0.5c-0.1,0.4,0.1,0.9-0.3,1.2c0.8,1.5,2,3,1.7,4.8
		c-0.3,0-0.9,0.1-1.2,0.1l0.1-0.4c-0.7,0-1.5-0.1-2-0.6C161.4,46.8,159.6,47.3,158,48.1z M162.9,80.4c-0.5,0.5-1,1.2-1.7,1.4
		c0,0.2-0.1,0.5-0.1,0.6c1-0.6,1.6-2,2.8-2.1c0,0.1-0.1,0.3-0.1,0.5c-0.9,0.8-1.8,1.6-2.8,2.2c-0.1-0.4-0.8-0.6-0.7-1.1
		c0.6-0.5,1.2-1,1.8-1.6C162.2,80.1,162.9,79.7,162.9,80.4z M161.1,79.5c0,0.1-0.1,0.4-0.1,0.5c0.2-0.1,0.5-0.3,0.7-0.4
		c0.6,0.2,0.1,0.7-0.2,0.9c-0.6,0.4-1,1.1-1.8,1.2c0.1-0.5,0.3-0.8,0.8-0.9l-0.2-0.4c-0.1,0-0.4,0.1-0.6,0.2v0.2h-0.2v-0.2h0.2v-0.1
		C160.2,80.2,160.5,79.4,161.1,79.5z M160,79c0.1,0.1,0.4,0.3,0.5,0.4c-0.4,0.4-0.9,0.7-1.2,1.2c-0.3-0.3-0.4-0.6-0.1-1l-0.4,0.1
		c0.1-0.3,0.1-0.6,0-0.9c0.2,0,0.6,0.1,0.8,0.1l-0.2,0.8C159.5,79.4,159.9,79.1,160,79z M167.7,64.5c0.3,0,0.8,0,1.1,0
		C168.7,64.8,167.6,64.9,167.7,64.5z M166.5,66.6c-0.1,0.1-0.2,0.4-0.3,0.5l-0.5-0.4C165.9,66.6,166.2,66.5,166.5,66.6z M164.5,68.3
		c0.5-0.1,1-0.4,1.2-0.9c-1.1-0.4-1.5,1.1-2.4,1.4c0,0.3,0.1,0.6,0.1,0.9c-0.5-0.1-0.8,0.2-1.2,0.5c0-0.4-0.2-0.8-0.5-1.1
		c0.1-0.2,0.4-0.5,0.5-0.7c0-0.1,0.1-0.4,0.1-0.5c0.1-0.1,0.4-0.2,0.5-0.3c0.4-0.2,0.8-0.3,1.2-0.5c0.6,0.1,1-0.2,1.5-0.4
		c0.1,0.5,0.1,1.1,0.1,1.6c0.4-0.1,0.5-0.6,0.7-0.9c0,0.1-0.1,0.4-0.1,0.5c0,0.2,0.1,0.7,0.1,0.9c-0.1,0-0.4-0.1-0.5-0.1
		C165.5,68.6,165,68.4,164.5,68.3z M166.4,72.8c0,0.2,0,0.6,0,0.8c-0.2-0.4-0.6-0.8-0.9-1.2c0.1-0.1,0.4-0.4,0.5-0.6
		c-0.3-0.2-0.6-0.4-0.9-0.5c0.1-0.5,0.1-1.1,0.5-1.5l0.4,0.1c0.8,0.8,0.3,2,1,2.9C166.9,72.8,166.5,72.8,166.4,72.8z M168.1,65.3
		c-0.1,0.4-0.4,0.5-0.8,0.4C167.4,65.2,167.7,65.1,168.1,65.3z M136.3,120.2c-0.4,0-1.1,0-1.5,0c0.2-0.8,0.5-1.6,0.7-2.3
		c0.2,0,0.6,0,0.8,0c0.9-0.8,1.9-1.4,3-1.9c0.1,0.2,0.4,0.4,0.5,0.6c-1,1-2.4,1.5-3.4,2.6l0.1,0.5l-0.6-0.2
		C136,119.6,136.2,120,136.3,120.2z M140.3,121.1v-0.2h0.2v0.2H140.3z M144.3,124.2c0-0.1,0-0.2-0.1-0.2c-0.6,0.8-1.1-0.7-1.6,0.3
		l0.1-0.3l0.4-0.3c-0.3-0.3-0.6-0.4-1-0.5c0.5-0.2,0.9-0.7,1.5-0.7c-0.2,0.3-0.4,0.7-0.7,1c0.4-0.4,1.5-0.9,1.2,0.1
		c0.2,0,0.5,0,0.6-0.1C144.6,123.6,144.3,123.9,144.3,124.2z M144.1,119.4c-0.1-0.4,0.6-0.9,0.9-0.9
		C145,118.9,144.6,119.5,144.1,119.4z M146.6,122.9c-0.2,0-0.5,0.1-0.6,0.2C146.1,122.7,146.3,122.6,146.6,122.9z M145.7,124
		c0-0.5,0.7-0.6,1.1-0.6C146.8,123.9,146.1,124.3,145.7,124z M149.2,122.6c-0.6,0.2-1.1,0.8-1.7,1c0.1-0.1,0.4-0.3,0.6-0.4
		c0-0.2,0-0.5,0-0.6l-0.6,0.1c0.5-0.5,1.1-0.9,1.8-1.1c0,0.1-0.1,0.2-0.1,0.3l-0.4,0.2C148.9,122.3,149,122.5,149.2,122.6z
		 M207.7,116.3c-0.4,0-0.7,0.1-1.1,0.1c0.1,0.7,0.8,0.7,1.4,0.6c0,0.1-0.1,0.3-0.1,0.4c-0.4-0.4-1.1-0.1-1.6-0.1
		c0-1.2,0.1-2.3-0.1-3.4c0.6,0.4,0.8,1.2,1.4,1.5c1.2,0.9,2.8,0.2,3.9-0.6c0.2,0.5,0.1,0.7-0.3,0.8v0.3c-0.8,0-1.4,0.6-1.3,1.4
		c0.1,0.1,0.4,0.4,0.5,0.6C209.4,117.5,208.5,116.9,207.7,116.3z M200.2,134.2c0.2,0,0.5,0,0.6,0c0,0.2,0,0.5,0,0.6h0.4
		c0,0.2-0.1,0.5-0.2,0.7l0.6-0.2l-0.3,0.5l0.5-0.1c0,0.1-0.1,0.4-0.2,0.6h0.4l-0.1,0.4h0.3c0.2,0.9,1.1,1.5,1.7,2
		c0.8,0.4,1.5-0.1,2.1-0.6c0-0.3,0.1-0.6,0.1-1c-0.3,0-0.7,0.1-1,0.1l0.2-0.5l-0.6,0.2c0-0.4,0-0.8,0.1-1.2
		c-0.3,0.1-0.6,0.3-0.9,0.4l0.1-0.5h-0.3c0-0.6-0.2-0.8-0.7-0.5l0.2-0.7l-0.6,0.3c0.1-0.2,0.3-0.5,0.4-0.7l-0.7,0.2l0.2-0.6
		l-0.5,0.2c0-0.1-0.1-0.2-0.1-0.2c0.2,0,0.7-0.1,0.9-0.2l-0.2,0.5l0.9-0.1c-0.8-1.1-1.7-2-2.7-2.9c-0.8-0.5,0.1-1.2,0.6-1.6
		c0.5-0.3,0.4-1,0.4-1.6c-0.5-0.4-0.3-1-0.2-1.5c0.8,0,0.9,1.1,1.3,1.6l-0.5,0.1c0.5,0.8,0.6,2,1.5,2.4c0-0.8-0.4-1.4-0.6-2.1
		c-0.5-0.6-0.7-1.5-1.2-2.2c-0.6-0.6,0.1-1.3,0.2-1.9c1-0.8,2.5,0,3.2,0.9c0.6,1.1,1.1,2.3,1.6,3.4c0.7,1.6,0.8,3.3,1.1,5
		c0,1.4,0.2,2.8,0.3,4.1c-0.8,0.5-0.1,2-1.2,2.1c0-0.3-0.1-0.9-0.1-1.2c-0.7,0.1-1.2,0.9-1.7,1.4c-0.8-0.4-1.7-0.6-2.4-1
		c-0.7-1.2-1.4-2.5-2.3-3.6c-0.4-0.4-0.3-1-0.7-1.4c0-0.3,0-0.7-0.1-1C200.2,133.4,200.1,133.8,200.2,134.2z M183,68.7
		c0.2,0.2,0.3,0.4,0.3,0.7c0.1,0,0.4,0,0.6,0c-0.1,0.8,0.4,1.4,0.3,2.2l0.4-0.1c-0.1,0.2-0.2,0.7-0.2,0.9c0.1,0,0.4,0.1,0.5,0.1
		c0,0.2-0.1,0.7-0.2,0.9l0.4-0.1c0,0.2-0.1,0.5-0.1,0.7l0.4,0.1c-0.1,0.4,0,0.7,0.3,0.9c0.1,0.9,0.3,1.7,0.4,2.6
		c0.2,1.4,0.8,2.7,0.6,4.1c-0.3-0.5-0.4-1.1-0.5-1.7c-0.8-2.6-2-5-2.9-7.6C182.7,71.3,182.9,70,183,68.7z M185.3,79.4
		c0,0.6-0.9,0.6-1.2,0.4c-0.3-0.3,0.1-1-0.4-1.2c-0.1-0.5-0.5-1-1-1c0.2-0.2,0.4-0.4,0.5-0.5C184.5,77,185,78.4,185.3,79.4z
		 M183,73.4c0.3,1.3,1,2.4,1.1,3.7c-0.2-0.1-0.5-0.2-0.7-0.3c-0.5-0.2-0.9-0.3-1.4-0.4c-0.1-0.4-0.2-0.8-0.3-1.2
		C182.3,74.7,182.7,74.1,183,73.4z M178.5,72c0.5,0.3-0.1,1.1,0.5,1.4c-0.3,0.1-0.7,0.2-1,0.3c0.1-1-0.5-1.9-0.5-2.9
		c0.1,0,0.3-0.1,0.4-0.1c0.1,0.9,0.1,1.9,0.5,2.7C178.4,72.9,178.5,72.4,178.5,72z M177.5,68.8l0.1-0.7c0.5,0.6,0.6,1.3,0.7,2
		c-0.3-0.3-0.5-0.7-0.7-1.1c0.1,0.5,0,1-0.3,1.4c-0.1-0.6-0.4-1.1-0.4-1.7C177.1,68.7,177.4,68.8,177.5,68.8z M176.3,70.3
		c0.3,0.8,0.3,1.8,0.5,2.6h0.4c-0.3-1.2-0.6-2.4-0.8-3.7c0.1,0,0.3,0.1,0.4,0.2c0.2,1.5,0.6,2.9,0.8,4.3c-0.1,0.1-0.2,0.2-0.3,0.2
		c0-0.4,0-0.7-0.2-1c-0.1,0.3-0.2,0.8-0.2,1c-0.3-0.6-0.4-1.2-0.6-1.8l-0.1-0.2c-0.2-0.6-0.3-1.2-0.4-1.8
		C176,70.2,176.2,70.3,176.3,70.3z M177,82c0.2,0.2,0.3,0.3,0.5,0.5l-0.5,0.1c0,0.3,0.1,0.8,0.1,1.1c0.1-0.1,0.4-0.2,0.6-0.3
		c-0.1,0.2-0.2,0.6-0.2,0.7c0.2,0,0.5,0,0.7,0c0-0.7-0.6-1.4-0.2-2c0,0.1,0.1,0.3,0.1,0.5c1-0.2,0.4,0.9,0.8,1.3
		c0.8,0.4,0.3,1.3,0.4,2h0.4c0,0.2-0.1,0.5-0.2,0.7h0.4c-0.1,1.1,0.6,2,1,2.9c-0.4,0.3-0.8,0.7-1.3,1c-1.1,0.6-1.9,1.4-3,2
		c-0.7,0-1.3-0.5-1.4-1.2c-0.2-0.9-0.7-1.8-0.8-2.8c0.2-0.1,0.7-0.3,0.9-0.4c0,0.4,0.1,0.9,0.1,1.3l0.6-0.1c-0.3,0.4,0.1,1.2,0.6,1
		c-0.1-0.1-0.3-0.3-0.4-0.4c0-0.2,0.1-0.7,0.2-1c-0.2,0.1-0.5,0.2-0.7,0.3c-0.1-0.3-0.1-0.5-0.2-0.8l0.5,0.1
		c-0.6-0.7,0.3-0.9,0.8-1.1c0.8,0.6,1.2,1.6,1.7,2.4c0-1-0.9-1.7-1.4-2.5c-0.1-0.7,1-0.8,0.8-1.6c0.6,0.2,0.5,0.9,0.6,1.4
		c0.2,0,0.5,0.1,0.6,0.1c-0.6-0.8-0.5-1.9-1.1-2.8c-0.3,0.8-0.6,2.6-1.8,1.9c0.2-0.4,0.3-0.8,0.5-1.1l0.5,0.3l0.1-0.6
		c-0.2,0-0.5,0.1-0.7,0.1c-0.1-0.5-0.2-1-0.5-1.4c-0.2,0.2-0.4,0.5-0.5,0.8l0.5,0.1c0.1,0.2,0.2,0.7,0.3,0.9
		c-0.4,0.2-0.8,0.2-1.2,0.3c0.2-0.6-0.3-0.8-0.8-1.1c0.1,0.2,0.4,0.4,0.7,0.5c0,0.8-0.1,2.4,1.3,1.8c-0.2,0.6-0.9,0.6-1.4,0.9
		c-0.4,0-0.7-0.1-1.1-0.1c-0.3-0.9-0.4-1.9-0.6-2.9C174.3,84,175.7,83.1,177,82z M171.8,87c0.3-0.1,0.6-0.2,0.9-0.3
		c0.1,0.1,0.3,0.2,0.4,0.3C172.8,87,172.2,87.1,171.8,87l0.7,0.4l0.1,0.4c-0.2,0-0.6,0-0.8,0h-0.3C171.6,87.5,171.7,87.2,171.8,87z
		 M173.6,90.1c0,0.5,0,1.1,0,1.6l-0.4-0.2c-0.5-0.5-1-1-1.2-1.6c0-0.1,0-0.4,0-0.6c0-0.6,0-1.3,0.8-1.2
		C173.2,88.7,173.7,89.4,173.6,90.1z M169.8,89c0,0.2-0.1,0.5-0.2,0.7c-0.2,0-0.5,0-0.7-0.1c0.1,0.3,0.2,0.6,0.4,0.9
		c-0.2,0-0.5-0.1-0.7-0.2c-0.1-0.5-0.1-0.9-0.2-1.4c0.2-0.2,0.3-0.5,0.5-0.7c0.2-0.1,0.5-0.4,0.6-0.5c-0.4-0.6-0.7-1.2-1.1-1.8
		l0.3,0.2c0.3,0.5,0.7,0.9,1.1,1.4c0.4-0.4,0.9-0.8,1.5-0.7c-0.1,0.4-0.1,0.8,0,1.2l-0.2,0.1c-0.4,0.2-0.4,1.5,0.3,1
		c0,0.4-0.1,0.8-0.1,1.2c-0.3,0.2-0.5,0.5-0.8,0.7c-0.1-0.4,0-0.9-0.4-1.3C170.9,89.3,170.3,88.1,169.8,89z M171.2,93.8
		c-0.1-0.1-0.4-0.3-0.5-0.4c-0.1-0.3-0.4-0.8-0.5-1h0.6c0.4,0.3,0.8,0.6,1.2,0.8c0-0.4-0.3-0.7-0.6-0.9l-0.2-0.2c-0.3,0-0.8,0-1.1,0
		c0.3-0.7,0.8-1.3,1.2-1.9c0.4,0.4,0.8,0.7,1.2,1.1c-0.5,0.6,0.1,1,0.5,1.3c0.4,0.2,0.9,0.4,1.3,0.6c-1.3-1.6,1.2-0.4,0.3,0.1
		c-0.6,0.6-1.3,1.1-1.7,1.9c0.7,0.1,1.4,0.2,2,0.5c-1.6-0.3-3.3-0.2-4.8-0.9c-0.4-0.6-0.6-1.3-0.8-2C170,93.4,170.6,93.7,171.2,93.8
		z M164.5,107.4h0.2v0.2h-0.2V107.4z M164.3,109.5c0.2,0.5-0.6,0.7-1,0.8C163.1,109.9,163.9,109.3,164.3,109.5z M162,109.8
		c-0.1,0.3-0.3,0.5-0.7,0.7C160.7,110.3,161.6,109.6,162,109.8z M160.9,111.9c0.2-0.4,0.1-1.1,0.5-1.3c0.1,0.2,0.3,0.5,0.3,0.7
		l0.6-0.3C162.3,111.7,161.4,111.7,160.9,111.9z M171,127.2c-0.2,0.4-0.3,0.9-0.4,1.4c0-0.4,0-0.8,0-1.2H170c0,0.2,0,0.5,0.1,0.6
		c-0.2-0.2-0.5-0.5-0.6-0.7c0,0.3,0,1,0,1.3c-0.4-0.3-0.2-0.9-0.7-1.2c0,0.4,0,0.8,0.1,1.2c-0.2-0.2-0.4-0.4-0.6-0.7
		c0,0.2,0,0.5,0,0.6c-0.3-0.2-0.6-0.1-0.9,0c0-0.2,0.1-0.6,0.2-0.8l-0.4,0.1c0,0.2,0.1,0.6,0.1,0.8h-0.6c0-0.2,0.1-0.6,0.1-0.9
		c-0.1,0.2-0.2,0.7-0.3,0.9c-0.4-0.7-1.3-0.2-1.9-0.4c-0.8,0.4-1.6,0.3-2.4,0.3c0-0.2-0.1-0.5-0.2-0.7c-1.1,0.3-2.3,0.6-3.4,1.2
		c0-0.5,0.5-0.8,0.8-1.1c1.2-1.2,2.1-2.6,2.7-4.1c2.5-0.8,4.9-1.8,7.4-2.7c1.6,1.6,2.6,3.7,2.7,6C171.9,127.2,171.4,127.2,171,127.2
		z M179.2,124.1c0-0.1-0.1-0.4-0.1-0.6h0.2c0,0.1,0.1,0.4,0.1,0.6H179.2z M181.7,121.4c0.7,0.8,1.6,1.4,2.1,2.4
		c-0.3,0-1,0.1-1.3,0.1l0.1-0.4c-0.3-0.1-0.8-0.3-1.1-0.5c0.1,0.3,0.2,0.8,0.2,1.1c-0.1-0.1-0.3-0.3-0.4-0.4
		c-0.1,0.1-0.3,0.2-0.4,0.2c-0.2-0.2-0.5-0.7-0.7-0.9c0,0.3,0.1,1,0.1,1.3c-0.5-0.2-0.5-0.7-0.3-1.2c-0.5,0.1-1,0.1-1.5,0.1
		c0.1,0.2,0.3,0.6,0.4,0.8c-0.1,0.5,0,1,0,1.5c-0.1-0.8-0.2-1.9-1.1-2.2c0.1,0.3,0.2,1,0.3,1.4h-0.4c0-0.2,0-0.6,0-0.9l-0.4-0.2
		c0,0.2,0,0.5,0,0.6c-0.2,0-0.5-0.1-0.7-0.2c0,0.2,0.1,0.5,0.2,0.7l-0.5-0.1c0,0.1-0.1,0.4-0.1,0.5c-0.2-0.1-0.5-0.3-0.7-0.4
		c0,0.2,0.1,0.6,0.1,0.8c-0.1-0.1-0.4-0.3-0.5-0.3c-0.8,0.4-1.5,0.9-2.2,1.5c-0.7-2-1.4-4.1-2.9-5.7c2.3-0.6,4.4-2.5,6.9-2.2
		C178.7,118.7,180.3,120.1,181.7,121.4z M186.5,87c-1.8,0.5-3.6,1.2-5.4,1.8c0-0.2,0-0.5,0-0.7c-0.4-0.9-0.8-1.8-1.1-2.8
		c0.8,0,1.6-0.1,2.3,0.3c0.9,0.4,2.4,0,2.7,1.2c-0.7,0-1.3,0.4-1.9,0.4c-0.6,0.3-1.3,0.6-2,0.7c0.2,0.1,0.3,0.2,0.5,0.3
		c0.3-0.3,0.8-0.5,1.2-0.5c0.7-0.3,1.5-0.6,2.3-0.8c-0.6-1.2,1,0.3,1.1-0.7c-0.7,0.2-1.2-0.3-1.8-0.5c-1.1,0-2-0.5-3.1-0.6
		c-0.5-0.2-1.7,0.4-1.5-0.6c1.3,0.1,2.6,0,3.9,0v-0.2c-1,0-2-0.1-2.9,0.1c-0.1-0.2-0.3-0.5-0.3-0.7c1.2,0,2.5,0.1,3.7,0.2
		c-0.9-0.4-2.1-0.3-3.1-0.4l0.2-0.5c1.5-0.2,2.9-0.3,4.4-0.3v-0.2c-1.7,0-3.4,0.1-5,0.5c-0.4,0.3-0.7,0.6-1.1,0.7
		c-0.1-0.2-0.3-0.7-0.4-0.9c0.2-0.4,0.4-0.9,0.9-1.1c0.4-0.2,1-0.1,1.1-0.6c-0.5,0.3-1.1,0.5-1.7,0.4c-0.3,0.4-1,0.7-1-0.1
		c-0.1,0.1-0.3,0.3-0.4,0.4c-0.4,0.3-0.8-0.6-0.3-0.8c1.1-0.7,2.4-0.5,3.6-0.5c-1.2-0.2-2.6-0.1-3.9,0c0.2-0.8-0.5-1.2-0.6-1.8
		c0.6-0.1,1.2-0.1,1.9-0.2v-0.1c-0.7,0-1.6-0.2-2.2,0.3c0-0.8,0.6-1.5,1-2.2c-0.1-0.1-0.4-0.3-0.5-0.4c0.7,0.3,0.9-0.4,1.1-0.9
		l0.2-0.2c0.2-0.3,0.3-0.6,0.4-0.9l0.1-0.2c0.2-0.1,0.5-0.3,0.6-0.4s0.2-0.3,0.3-0.4c0.8,0.1,1.1,1.3,1.5,1.9
		c0.1,0.3,0.3,0.7,0.6,0.9c-0.9,0.9-2.2-0.1-3.3,0.1c0,0.1,0,0.3,0,0.4c1-0.1,2,0.2,3,0.3c0.2,0.2,0.3,0.5,0.4,0.8
		c0.3,0.7,0.6,1.7,0.1,2.4c0.6-0.2,1.2,0.2,1.8,0.3c0.5-0.2,1-0.2,1.5-0.1c0.5,1.5,0.6,3,0.8,4.5c-0.6-0.3-1.3-0.6-2.1-0.5
		c0.2,0.3,0.6,0.5,1,0.4c-0.4,0.3-0.9,0.2-1.3,0.3c0.5,0.2,1.1,0,1.7,0l0.1,0.4c0.2,0,0.6-0.1,0.8-0.2c0.1,2,0.8,4,0.9,6
		C187,89.8,186.8,88.4,186.5,87z M179.9,84c0.1,0,0.4,0.1,0.5,0.1c0,0.1-0.1,0.2-0.1,0.3l-0.3-0.2L179.9,84z M189.7,88
		c-0.9-1.8-1.5-3.7-2.4-5.5c-0.5-2.9-0.9-5.7-0.8-8.6c1,0.6,1.8,1.4,2.7,2.1c0.9,0.9,2,1.7,2.8,2.7c-0.6-0.1-1.2-0.4-1.8-0.6
		c-0.7-0.2-1.4-0.1-2.1-0.4c0.5,1.5,0.5,3.4,1.6,4.6c-0.1,0.4,0,1,0.6,0.9c0,0.1,0,0.4,0,0.5c1.1,1,1.4,2.7,2.4,3.8
		c0.8,1.2,0.2,2.7,0.2,4C191.7,90.7,190.8,89.3,189.7,88z M194.5,94.2c-0.1,0.6-0.8,1.1-0.4,1.8l-0.5-0.2c0.2,0.3,0.2,0.7,0,1.1h0.5
		c-0.1,0.2-0.3,0.4-0.4,0.6c0,1.3-0.1,2.5-0.2,3.8c-0.5-0.5-0.3-1.2-0.5-1.8c-0.5-1.9-1-3.9-0.5-5.8c0-0.4,0-0.8,0-1.2
		C193.1,93.1,193.8,93.6,194.5,94.2z M210.7,111.1c-0.3-0.3-0.6-0.5-0.6-0.9l-0.2,0.1c0,0.2,0.1,0.5,0.1,0.7
		c-0.2-0.1-0.5-0.3-0.7-0.4c0.2-0.4,0.3-0.8,0.4-1.3h0.5l-0.1,0.5C211.1,109.3,211.2,110.6,210.7,111.1z M215,112v-0.2h0.2v0.2H215z
		 M227.4,79.9c0.1,1-1,1.1-1.8,1.3c0-0.2,0-0.5,0-0.6C226.1,80.3,226.8,80.1,227.4,79.9z M214,81.9c0,0.3-0.1,0.6-0.1,0.9
		c-0.3-0.2-0.8-0.4-0.8-0.9C213.2,82,213.7,82,214,81.9z M210.7,71.8c-0.7,0.1-1.6,0.5-2-0.3c1-0.9,2.3-1.1,3.6-1.4
		c0.5,0.4,1,0.7,1.6,1C212.8,71.2,211.7,71.5,210.7,71.8z M213.1,106.2c0.2,0.1,0.5,0.2,0.7,0.2c0.1,0.6,0.2,1.2,0.4,1.8
		c-0.1,0.1-0.2,0.4-0.3,0.5c0.1,0.5,0.2,1,0.3,1.5c-0.2-0.1-0.5-0.2-0.7-0.3l-0.2-0.1c-0.3,0.2-0.5,0.5-0.8,0.7
		c0.1-0.5,0-1.3,0.7-1.4c-0.1-0.3-0.1-0.6-0.2-0.8c-0.1-0.1-0.4-0.3-0.6-0.4c-0.4-2-1.2-3.8-1.7-5.8c0-0.1-0.1-0.3-0.1-0.4
		c0-0.4,0-0.8,0-1.2c0.1-1.2,0-2.3,0.1-3.5c0.2-1.5,0.1-3.1,0.4-4.6c0.2-1.1,0-2.3,0.2-3.4c0.1-1.1,0.6-2.2,0.1-3.3
		c-0.2-0.6,0.5-1.6-0.3-2c0,0.6-0.2,1.4,0.1,2h-0.4c-0.3-1.3-0.1-2.7-0.2-4.1c0.1,0,0.3,0,0.4,0c0,0.7-0.7,1.9,0.3,2.2
		c-0.1-0.7-0.2-1.5-0.1-2.2c0.8,0.3,0.8,1.3,0.9,2.1c0.3,4.6,0.1,9.2,0,13.9c-0.1,1.3,0.2,2.6,0,4c-0.1,0.5,0.1,1,0.2,1.5
		C212.5,104.1,212.8,105.2,213.1,106.2z M220,86.9c-2.1,1.5-4.8,2.1-7.3,1.8l-0.1-0.6c2,0.3,4,0,5.8-0.9c1.8-1,3.7-2,5.2-3.4
		c-2.3,0.4-4.7,0.1-7-0.1c0.2-0.2,0.4-0.4,0.6-0.6c2.3,0.4,4.6,0.3,6.8,0c-0.1-0.2-0.2-0.7-0.2-0.9c-0.6,0.4-0.9-0.4-1.4-0.6
		c0.3,0.1,0.6,0.3,0.8,0.5c0.4,0,0.8,0,1.2,0c0,0.1,0,0.2,0,0.2l-0.6-0.1c0,0.7,0.8,0.8,1.2,1.2C223.5,84.8,221.7,85.8,220,86.9z
		 M226.6,83.8c-0.3,0-0.7,0-1,0c0-0.6,0.7-0.3,1.1-0.3C226.6,83.6,226.6,83.8,226.6,83.8z M229.2,82.2c-0.3-0.2-0.7-0.3-1-0.4
		c0.4,0.7-0.3,1.2-0.8,1.5c-0.6-0.3-1-0.8-1.7-0.9c0.2,0.9-0.4,0.4-0.7,0.1c0.3-0.1,0.7-0.2,1-0.2c0.3-0.2,0.6-0.4,0.9-0.7
		c0.3-0.3,0.3-0.9,0.9-0.7c0-0.2-0.1-0.5-0.2-0.6c0.9-1.1,2.3,0.1,2.9,0.9C230.4,81.9,229.7,82.1,229.2,82.2z M232.1,80.6
		c-0.4,0.2-0.8,0.3-1.2,0.3c-0.3-0.4-0.6-0.8-0.8-1.2c0.4-0.4,0.5-1.2,1.1-1.4c0.5,0.3,0.2,0.9,0.2,1.4
		C231.5,80.2,232.3,80.2,232.1,80.6z M232.3,76.9c0.1-0.7,0.6-0.9,1.3-0.9c0.1,0.6,0.2,0.9,0.5,1.5
		C233.3,77.7,232.8,77.3,232.3,76.9z"/>
	<path d="M99.6,18c-0.4,0-0.7-0.1-0.8-0.5c0,0.4-0.2,0.7-0.6,0.9c0-0.6,0.3-1,0.7-1.5c0.2,0.2,0.4,0.3,0.7,0.4
		C99.5,17.5,99.6,17.9,99.6,18z"/>
	<path d="M92.4,22.4c0.3,0.7,1.1,0.9,1.2,1.8c-0.2-0.1-0.7-0.3-0.9-0.4l0.1,0.6c-0.1,0-0.3,0-0.4,0c0-0.2,0.1-0.5,0.1-0.6h0.4
		C93.1,23.2,92.2,23.1,92.4,22.4z"/>
	<path d="M94.9,25c-0.5-0.1-1.6,0.3-1.7-0.4C93.7,24.7,94.8,24.2,94.9,25z"/>
	<path d="M115.6,32.1c-0.1,0.2-0.3,0.6-0.4,0.8c-0.3-0.7,0.3-1.2,0.3-1.8c0.2,0,0.5,0,0.6-0.1c-0.1,1,0.9,1.3,1.3,2
		C116.8,32.8,116.3,31.9,115.6,32.1z"/>
	<path d="M117.9,32.5c0.7,0.3,0.7,1.1,0.8,1.7c-0.3-0.2-0.6-0.4-0.9-0.5C117.9,33.3,117.9,32.9,117.9,32.5z"/>
	<path d="M197.2,35.1c0.6-0.2,1.2-0.3,1.8-0.3c-0.2-0.6,0-1.1,0.4-1.3c0.1,0.5,0.1,1-0.1,1.5c-1.2,0-2.2,0.7-3.3,1
		c0.4-1,1.3-1.6,1.9-2.4l0.3,0.3C198,34.3,197.5,34.6,197.2,35.1z"/>
	<path d="M139.2,46.2c1.8,0.1,3.1,1.4,4.6,2.2c-0.7-0.8-1.7-1.3-2.6-1.9c-1.9-0.9-4.1-1.3-6-0.2c-0.7-0.4-1.6-0.7-1.9-1.5
		c-0.2-0.4-0.5-0.7-0.8-1.1c0.1-0.1,0.3-0.3,0.5-0.4c-0.3-0.2-0.5-0.4-0.7-0.7c-0.7-1.3-1.5-2.7-2.7-3.7c-2.2-1-4.3-2.3-6.6-3.1
		c-1-0.2-1.8-0.7-2.7-1c-0.3-0.3-0.6-0.7-0.9-1c0.1,0.5-0.3,1.4,0.3,1.6c-0.1,0.7-0.1,1.4,0,2.1c-0.2,0-0.5,0-0.7,0.1
		c0.5,1.1,1.7,1.9,2.9,1.9c0.7,0.2,1.1-0.6,1.9-0.3c-0.1,0-0.4-0.1-0.5-0.1c-0.6-0.1-1.2-0.2-1.8-0.5l-0.2-0.3
		c-0.4-0.3-1.2-0.8-1.6-1.1l1.7,0.4c-0.5-0.2-0.9-0.7-1.5-0.7c-0.1-0.5-0.1-1.1-0.2-1.7c1.2,0.4,2.5,0.4,3.6,1
		c1.2,0.3,2.2,1,3.2,1.5c0.1,0.2,0.3,0.5,0.4,0.7l0.3-0.1l-0.1,0.4l0.4-0.1l-0.1,0.4l0.4-0.1c-0.2,0.5,0.3,0.7,0.5,1
		c0.6,0.6,0.8,1.5,1.3,2.2c-0.2,0.3-0.4,0.5-0.7,0.8c0.5-0.1,0.7,0.3,0.9,0.7c0.5,0,1.6,0.2,1.4,0.9c0.2,0,0.5,0,0.7,0
		c0.1,0.1,0.4,0.4,0.5,0.6c1.1,0.4,2.1,1,2.9,1.9C136.7,46.6,137.9,46.1,139.2,46.2z M132.5,43.6l-0.2,0.4l0.1,0.8
		c-0.6-0.5-1.3-0.9-2-1.3c-0.5-0.3,0-0.9-0.3-1.2c-0.5-1-0.9-2-1.7-2.8c0-0.2,0.1-0.6,0.1-0.8c0.1,0.6,0.7,0.8,1,1.2
		c0.9,0.8,1.4,1.9,1.9,3C131.5,43.3,132.1,43.3,132.5,43.6z"/>
	<path d="M203.8,34.7c0.1-0.1,0.3-0.2,0.4-0.3c0,1.2-0.8,2.4-1.9,2.9c0-0.5,0.2-0.9,0.3-1.3l0.4,0.1
		C202.7,35.5,203.5,35.2,203.8,34.7z"/>
	<path d="M118.4,37.3c-0.8-0.1-1.6-0.5-2.3-0.8c0.4-0.5,0.8-1,1.3-1.5c0.4,0.5,0.7,0.9,1.2,1.2C119.5,36.2,119.2,37.6,118.4,37.3z"
		/>
	<path d="M112.6,35.5c0.5,0,1-0.1,1.5-0.1c0.6,0.4,1,1.2,1.8,1.4l0,0c-0.1,0.1-0.2,0.4-0.3,0.5C114.5,37,113.3,36.6,112.6,35.5z"/>
	<path d="M119,39.8c-0.9-0.8-1.8-1.6-2.7-2.5l0.1-0.3c0.3,0.2,0.6,0.5,0.9,0.8C117.9,38.4,118.6,39,119,39.8z"/>
	<path d="M157.3,39.3c-0.4-0.6,0.2-1.2,0.3-1.8c0.1,0,0.2,0.1,0.2,0.2c-0.2,0.3-0.3,0.6-0.3,1c0.3,0.1,0.6,0.2,0.8,0.4
		C158.1,39.1,157.6,39.3,157.3,39.3z"/>
	<path d="M201.6,42.2c2-1,4.5-1.5,5.8-3.4c0.2,0.1,0.4,0.2,0.6,0.3c0.9-0.4,1.8-0.8,2.8-1c0.4-0.4,0.9-0.3,1.4-0.4
		c-1.5,0.9-3.4,1.1-5,1.9c-0.6,0.4-1.3,0.8-1.9,1.1l0.2,0.4C204.2,41.6,202.9,42.2,201.6,42.2z"/>
	<path d="M166.3,39.6c1.1,1,1.7,2.3,2.6,3.3c-0.1,0.1-0.3,0.2-0.4,0.2C167.6,42.1,166.9,40.9,166.3,39.6z"/>
	<path d="M120.8,42v-0.3c0.2,0,0.7-0.1,0.9-0.1C121.5,42.1,121.2,42.2,120.8,42z"/>
	<path d="M164.2,44.5c0-0.3,0-0.7,0.1-1c0,0.7,0.8,1.4-0.1,1.9c0.3,0.3,0.5,0.6,0.8,0.8c-0.9-0.2-1.2-1.4-2.1-1.4
		C163.1,44.4,163.8,44.9,164.2,44.5z"/>
	<path d="M160.9,44.5c0,0.3,0.1,0.7,0,1c-0.4,0-0.7,0-1.1-0.2C160.1,45,160.5,44.8,160.9,44.5z"/>
	<path d="M159.5,45.1c0.1,0.5-0.1,0.7-0.5,0.6C158.9,45.2,159.1,45,159.5,45.1z"/>
	<path d="M145.2,49.8c0.5-0.9,1.6-0.5,2.5-0.5c0,0,0,0.1,0,0.2C146.8,49.2,146.1,50.1,145.2,49.8z"/>
	<path d="M136.2,49.5c0.4,0,0.6,0.1,0.5,0.4c-0.2,0-0.5,0.1-0.7,0.2C135.8,49.8,135.9,49.6,136.2,49.5z"/>
	<path d="M192,57.6c0.7,0.3,1,1,1.5,1.5C192.7,59.1,192.1,58.3,192,57.6z"/>
	<path d="M197.9,64.7c-0.4-0.4-0.8-0.8-1.2-1.2c-0.4-0.2-0.8-0.3-1.2-0.4c-0.2-0.7-0.9-0.6-1.4-0.9c-0.3-0.7-0.7-1.3-1-2
		c0.3,0.1,0.6,0.2,0.9,0.4c-0.3,0.8,0,1.8,1,1.8c0-0.3,0.1-0.9,0.1-1.2h-0.5c0-0.1-0.1-0.2-0.2-0.3c1.2,0.2,2.1,1.2,3,2
		c-0.9-0.3-1.5-1.2-2.3-1.7C194.8,63.1,197.3,63.1,197.9,64.7z"/>
	<path d="M166.1,61.5c-0.7,0.3-1.1,1.1-1.9,0.9c0.3-0.3,0.6-0.5,1-0.6c0.9-0.5,1.8-0.9,2.6-1.3C167.4,61.1,166.5,61,166.1,61.5z"/>
	<path d="M201.2,70.6l-0.1,0.2C201.1,70.8,201.1,70.7,201.2,70.6z"/>
	<path d="M209.8,78.1H209c0.1-0.4,0-0.8-0.4-1l-0.1-0.1c-0.1-0.1-0.2-0.3-0.3-0.4l0.3-0.2C208.9,77,209.4,77.5,209.8,78.1z"/>
	<path d="M160.7,80.3c0.1-0.1,0.2-0.2,0.2-0.3v0.2L160.7,80.3z"/>
	<path d="M160.6,80.5l-0.2-0.1c0.1,0,0.3-0.1,0.3-0.2L160.6,80.5z"/>
	<path d="M164.1,81.9l-0.2,0.1c0.1-0.1,0.2-0.2,0.3-0.3L164.1,81.9z"/>
	<path d="M163.6,82.2c0.1-0.1,0.2-0.2,0.3-0.2l-0.1,0.2H163.6z"/>
	<path d="M163.7,82.8l0.3-0.1c-0.1,0.1-0.2,0.2-0.3,0.3V82.8z"/>
	<path d="M179.7,89.8c-0.3-0.3-0.6-0.7-0.9-1c0.6-0.2,1,0.3,1.4,0.6C180.1,89.4,179.9,89.6,179.7,89.8z"/>
	<path d="M152.2,104.8l-0.1,0.4c-0.3,0.3-0.5,0.6-0.8,0.9c0.1-0.4,0.2-0.8,0.4-1.2C151.8,104.9,152.1,104.8,152.2,104.8z"/>
	<path d="M162.1,106.9l0.2-0.1c0,0.1-0.1,0.2-0.2,0.3V106.9z"/>
	<polygon points="161.5,107.6 161.3,107.6 161.3,107.4 161.5,107.4 	"/>
	<path d="M159.4,108L159.4,108c-0.3-0.1-0.6-0.1-1-0.2c0,0.1,0.1,0.3,0.1,0.4c-0.6,0.1-1.1,0.5-1.7,0.8c0.5-0.2,0.6,0.5,0.2,0.6
		c-1.3,0.3-2.7,0.4-4,0.9c0.3,0.2,0.6,0,0.9-0.1c0.8-0.2,1.6-0.3,2.4-0.5v0.9c-0.2-0.1-0.5-0.2-0.7-0.2l0.1,0.4
		c-0.4,0-0.8,0.2-1.1,0.5c0.5-0.2,1-0.4,1.5,0l-0.3-0.7c0.2,0.1,0.7,0.3,0.9,0.4l-0.3-0.7c0.4,0.3,0.7,0.3,1,0l0.1-0.2
		c1.1-0.3,2-1.3,2.9-1.9c-0.3,0-1,0.1-1.3,0.1C159.2,108.3,159.4,108.1,159.4,108z M157,110.4h-0.2v-0.2h0.2V110.4z M158.1,109.1
		l-0.1,0.2l-0.2-0.1l0.1-0.2L158.1,109.1z"/>
	<path d="M156.1,112c-0.5,0.5-1.1,0.8-1.7,1.1c-0.1,0.1-0.3,0.3-0.4,0.4c-0.9,0.3-1.7,1-2.5,1.5c0.7-0.7,1.4-1.2,2.3-1.5
		c-0.2-0.2-0.5-0.3-0.7-0.4c0.7,0.2,1.1-0.7,0.9-1.3l0.3,0.2c0-0.2,0.1-0.4,0.2-0.5c-0.1,0.5-0.1,1-0.2,1.5
		C155,112.6,155.5,112.2,156.1,112z"/>
	<path d="M154.6,111.4L154.6,111.4L154.6,111.4L154.6,111.4z"/>
	<path d="M220.1,124.9c-0.1-0.9,0.1-1.9,0.3-2.8c-0.3-0.8-0.8-1.4-1.2-2.1c-0.3-1.4-0.9-2.6-1.3-4c-0.9,0.8-0.4,2.2-0.7,3.2
		c-0.1,0.1-0.4,0.2-0.5,0.3c0-0.9,0.6-1.7,0.5-2.6c0-1.2,0.1-2.4,0.6-3.5l-0.4,0.1c-0.6,1-0.9,2.2-1.8,2.9c0.4-0.5,0.4-1.1,0.5-1.7
		c-1.2,1.4-2.8,2.5-3.9,4.1c0,0.1,0,0.3,0,0.5c-0.8,0-1.5,0.1-2.3,0.1c0.8,2.2,1.5,4.5,1.9,6.8c0.3,1.3,0.7,2.6,0.7,4
		c0,1.1,0.7,2.1,0.6,3.2h0.4c0,0.2-0.1,0.7-0.1,1l0.5-0.1c-0.1,0.2-0.2,0.6-0.3,0.8l0.6-0.2l-0.2,0.5c1.2,2.7,2.5,5.4,4.2,7.8
		c0.7,0.5,1.2-0.5,1.7-0.7c0.8-0.9,1.8-1.7,1.8-3c0.5-2,0.6-4.1,0.6-6.2c0.2-1.3,0.3-2.7,0.1-4C221.8,127.7,220.8,126.4,220.1,124.9
		z M217,126.8c1.7,2.5,3,5.4,4.1,8.3c0.3,1.6-0.4,3.2-0.3,4.8c-0.7-0.1-1.2,0.3-1.9,0.3c-0.6-1.3-1.7-2.5-1.7-4
		c0.2,0.1,0.5,0.3,0.7,0.5l-0.1-0.4c0.4-0.1,1.1,0.3,1.4-0.2c0.2,0,0.7,0.1,0.9,0.1c0-0.1,0-0.3,0-0.4c-0.9-0.4-1.8-0.1-2.7-0.4
		c-0.4-0.2-1.5,0.1-1.4-0.6c0.3,0,0.9-0.1,1.2-0.1c-0.4-0.2-0.9-0.1-1.3-0.1c-0.4-0.7-0.6-1.5-1-2.3
		C215.4,130.3,216.2,128.6,217,126.8z M218.8,127.3h-0.2v-0.2h0.2V127.3z M219.2,127.4l-0.3,0.5c-0.1,0.1-0.2,0.3-0.3,0.3
		c0.7,1.4,1.5,2.8,2.3,4.2c0.3,0.5,0.3,1.1,0.2,1.6c-0.5-0.4-0.6-1-0.9-1.6c-0.8-2-2-3.8-3-5.7v-0.3c0.1-0.1,0.4-0.3,0.5-0.4
		c0.1,0.8,0.4,1.5,0.7,2.2c0.1-0.1,0.2-0.4,0.3-0.6L219.2,127.4z"/>
	<path d="M144.3,117.1c-0.6,0.3-1.2,0.8-1.7,1.2C142.5,117.5,143.6,116.6,144.3,117.1z"/>
	<path d="M142.5,120.1c-0.1,0.1-0.3,0.2-0.5,0.2c0.1-0.1,0.4-0.4,0.5-0.5V120.1z"/>
	<polygon points="142.8,121.7 142.6,121.7 142.6,121.5 142.8,121.5 	"/>
	<path d="M100.3,17.1c0.5-0.2,1.1,0.4,1.1,0.9C100.9,18.1,100.2,17.6,100.3,17.1z"/>
	<path d="M194.5,43.8L194.5,43.8c0.1,0,0.1,0,0.1,0c1-0.9,1.8-2.1,2.8-2.9c0.3-0.2,0.5-0.6,0.6-0.9c-0.9,0-0.3-0.6-0.1-0.9
		c1.7,0,3.2-1.4,3.9-2.9c0.3-1.2,0.8-2.3,1.2-3.4c0.8,1.1,2.5,0.8,3.4,0.1c0,0.2-0.1,0.7-0.1,0.9c1.3-0.7,2.3-2,3-3.3
		c0.3-0.4,0-1.4-0.7-1c0.1-0.2,0.3-0.6,0.4-0.7c-0.4-0.2-0.6-0.6-0.3-1.1c0.2,0.3,0.3,0.6,0.5,0.9l0,0c0.1,0.7,2.2-2.2,3-2.3
		c0.9-0.6,1.4-1.7,1.6-2.8l0.3,0.2c0.2,1.1,0.8,2,1.5,2.8c-0.1,0.9-0.1,1.9,0,2.8c-1.3,0.6-2.2,1.6-3.4,2.3c-1.8,1.4-3.9,2.4-5.6,4
		c1.4-1,2.9-2,4.4-2.9c1.6-1.1,3.2-2.2,5.1-2.9c0.2,0.4,0.4,0.7,0.7,1.1c-5,2.9-9.7,6.3-14.7,9.1c-0.9,0.4-1.7,0.8-2.5,1.4
		c6.3-2.7,11.8-6.8,17.7-10.3c0.8-0.1,1.5,0.6,2.3,0.8c-0.9,1.2-2.6,1.3-3.8,2.1c-1.1,0.7-2.4,1-3.4,1.8c0.5,0.1,0.8-0.1,1.2-0.4
		c2.1-0.9,4.3-1.6,6.3-2.6c0.7,0.1,1.3,0.1,2,0.2c-2.9,1.6-5.9,3.2-8.9,4.4c0,0.2,0.1,0.4,0.1,0.6c-2.2,1.3-4.6,2.1-7,3.1l-0.2,0.3
		c1.2-0.3,2.3-0.6,3.5-1c3.1-0.9,6-2.4,9.2-3.4c2-0.6,4-1.4,6-2.3c1.4-0.6,3-1,4.5-1.4c2.2-0.5,4.3-1.6,6.5-2.1
		c1.4-0.4,2.8-0.9,4.3-1.3c0.1-0.1,0.2-0.2,0.3-0.3v-4.9v-1l-0.2-0.6c-0.2,0.2-0.5,0.5-0.7,0.7c-0.6-0.2-1.1,0.1-1.4,0.6l-0.1-0.3
		c-1.5,1-3.7,1.9-3.8,3.9c0,0.5,0.5,0.5,0.8,0.8c-3.1,1.2-6.4,1.9-9.2,3.8c-0.9,0.4-1.6,1-2.2,1.7c-2,0.5-3.9,1.3-5.8,1.7
		c1.5-1.2,3.4-1.8,4.9-2.8c1.5-0.5,2.7-1.4,4.1-2.1c0.9-0.8,1.5-1.8,2.2-2.8c2.5-0.6,5.6-2.1,5.6-5.1c1.9,0.4,3.8-0.1,5.7-0.4v-0.5
		c-1.3,0.3-2.7,0.4-4,0.6c-0.8,0.2-1.3-0.8-2-0.5c-0.5,0.8,0,1.9-0.5,2.8c-0.8,1.7-2.7,2.3-4.3,2.8c-0.3-0.1-0.6-0.1-0.9-0.2
		c-0.4,1-1.1,1.8-1.8,2.6c-1.6,1.3-3.7,2.5-5.9,2.1c0-0.1-0.1-0.4-0.1-0.6c-1.1-0.5-2.1-1.8-3.3-1.2c0.3-0.5-0.3-0.8-0.5-1.2
		c-0.6-1-0.1-2.1-0.1-3.2c-1.6-1-2.1-3.1-1.9-4.9c-0.8,1.3-0.7,3.2-2.1,4.1c-0.2-1.6,0.2-3.4,1.4-4.5c-1-2.2-0.7-4.8-0.4-7.1
		c-0.5-1.2,0.5-2.5,0-3.8c-0.1,0.3-0.2,0.6-0.2,0.9c-0.2,2.4-0.5,4.8-1.3,7.1c0.2-0.1-2.5,5-2.3,4.9l0,0c-0.2-1-0.7-2-0.1-3
		c-1.1,0.1-0.6,1.9-0.4,2.5c-0.2-0.1-0.5-0.2-0.6-0.2v-0.5l-0.6,0.2c0.2,0.5,0.7,0.7,1.1,1c0.3,0.4,0.3,0.9,0.4,1.4
		c0,0.5,0,0.9,0,1.4c0.7-0.2,0.7-1,1-1.6c0.6,0.1,0.3,0.8,0.2,1.2c-0.2,0.5-0.6,1.2-0.8,1.8c-0.1,0.1-0.2,0.3-0.4,0.4
		c0-0.3-0.1-1-0.2-1.3c-0.8,0.9-1.4,2.2-1.2,3.5c-0.3,0.5-0.5,1.1-0.6,1.7c0.7-0.3,1-1.1,1.6-1.5c-0.2,0.9-0.9,1.9-1.8,2.3
		c0-0.2,0-0.5,0-0.6c-0.6-0.1-0.7,0.6-1.1,0.9c-0.6,0.8-1.6,0.3-2.4,0.7c-0.8-1.2-0.3-2.8,0.2-4.1c0.5-0.5,0.4-1.3,0.1-1.9
		c-0.4,0.2-0.8,0.5-1.3,0.7c0-0.1-0.1-0.2-0.2-0.2c0-1.8,0.3-4.1,1.6-5.4c0.2-0.2,0.4-0.5,0.5-0.8c-0.7-0.1-0.3-1-0.3-1.5
		c0.2-0.1,0.6-0.3,0.8-0.5c0,0.3,0.6,0.4,0.4,0c-1.2-1.1-1.3-2.8-2.1-4.1c-0.2,0.1-0.3,0.3-0.3,0.6c0,1.3-0.3,2.5-0.7,3.7
		c0.8,1.2,0.2,2.9-1,3.6c0.1,0.4,0.2,0.8,0.3,1.1c0.5,0,0.4,0.9,0.1,1c0,0.5-0.4,1.5-0.5,2c0,0.1,0.1,0.4,0.1,0.5
		c-0.2,0.6-0.7,1.1-0.9,1.7c0.4-0.1,0.8-0.3,1.1-0.5c0-0.2,0-0.6,0-0.9h0.2c0,0.3-0.1,0.9-0.1,1.2c0.6-0.4,1-1.2,1.9-1.4
		c-0.6,1.4-0.8,2.9-0.8,4.4c-0.5-0.7-1-1.6-2-1.5c0.4-0.5,0.8-1.1,1.2-1.6l-0.6,0.2c-0.9,1.1-1.9,2.3-3,3.3c0.2,0.5,1.1,0.8,1.2,0
		c0.2-1.3,1.9-1.7,2.6-0.6c0.1,1.2-1,2.1-1,3.3c-0.3,1.6-2.1,3.2-3.8,2.5c-0.2,0.8-0.8,1.5-1.2,2.2c0.2,0,0.6-0.1,0.8-0.1
		c-0.1,0.4-0.6,0.4-0.8,0.7c-0.8,1.4-2.5,1.8-3.6,2.9c-1,1.3-2.5,2.3-4,2.8c0.2,0.2,0.3,0.4,0.5,0.6c1.8-0.7,3.3-2,4.9-2.9
		L194.5,43.8z"/>
	<path d="M163.2,36.1c0.1,0.3,0.2,0.9,0.3,1.3c-0.1-0.1-0.4-0.2-0.5-0.2c-1.2-0.4-2.7-0.3-4-0.5c0.6,0.1,0.7-0.1,1.3-0.9
		c0.4,0.9,1.5,0.5,2.3,0.7c-0.2-0.8-0.7-1.6-0.9-2.4c0.1,0.1,0.4,0.2,0.5,0.3c0.8,0.4,1.2,1.3,1.8,2c0.3,0.6,1,1,1,1.7
		C164.3,37.5,164,36.5,163.2,36.1z"/>
	<path d="M126.4,39.6c-0.7-0.4-1.4-0.5-2-1C125.1,38.9,126,38.9,126.4,39.6z"/>
	<path d="M126.3,43.8c-0.5,0.1-1.3-0.3-1.4-0.9C125.3,42.9,126.3,43.3,126.3,43.8z"/>
	<path d="M134.7,46.9c0.5,0.5,0.8,1.1,1.1,1.7C135.3,48.3,134.8,47.6,134.7,46.9z"/>
	<path d="M138.2,50.7c0.7,0.7,1.4,1.4,2,2.2c0,0.1,0,0.4,0,0.5c-1-0.5-2.2-1-3-1.8c-0.6-0.1-1.2-0.4-0.8-1.2l0.3,0.2
		C137.2,51,137.7,50.7,138.2,50.7z"/>
	<path d="M189.3,56.5c1.6,0.7,2.7,2,3.6,3.5c-0.1,0-0.3,0-0.4-0.1c-0.5-0.7-1-1.6-1.8-2.2C190.2,57.3,189.5,57.2,189.3,56.5z"/>
	<path d="M192.1,60.7c-0.7-0.4-1.2-1.1-1.8-1.7c0-0.1,0-0.3,0-0.4C191,59.2,191.8,59.8,192.1,60.7z"/>
	<path d="M171.7,59.8c-0.1,1.2-1.9,0.7-2.6,1.4c0-0.1,0-0.2-0.1-0.3c0.2-0.1,0.5-0.2,0.7-0.3c0.6-0.1,1.8-0.1,1.8-1
		c0.5-0.1,0.6-0.7,1.2-0.4C172.6,59.6,172.1,59.6,171.7,59.8z"/>
	<path d="M193.3,62.3v0.2C192.7,63,192.7,61.8,193.3,62.3z"/>
	<path d="M163.4,65.6c-0.5-0.3,0.2-1.3,0.7-1.1C164.1,64.9,163.7,65.3,163.4,65.6z"/>
	<polygon points="197.2,65 197,64.9 197.1,64.7 197.3,64.8 	"/>
	<path d="M198.2,65.8c-0.5,0.1-0.8-0.5-1-0.8C197.6,64.9,198.3,65.3,198.2,65.8z"/>
	<path d="M201.5,66.1c-0.5,0-1.1,0-1.5-0.4C200.5,65.6,201.1,65.8,201.5,66.1z"/>
	<path d="M199,66.5c1.5,0.6,3.3,1.2,4.2,2.7c-0.3,0.2-0.7,0.3-1,0.5c-0.7-0.4-1.4-0.9-2.1-1.2c0.1,1.4,1.8,1.4,2.5,2.4
		c-0.2,0-0.5,0-0.6,0.1c-0.4-0.7-1.1-1-1.8-1.1c0.2,0.2,0.6,0.7,0.8,1c-0.2,0-0.7-0.1-0.9-0.1c-0.2-0.9,0-1.9-0.2-2.9
		c0.8,0.4,1.6,0.9,2.3,1.5c0.2-0.2,0.3-0.4,0.5-0.6c-1.1-0.7-2.2-1.4-3.5-1.9L199,66.5z"/>
	<path d="M188.7,70.8c-0.4-0.3-0.3-1-0.5-1.5c-0.1-0.4-0.4-1.2,0.3-1.2C188.7,69,188.6,69.9,188.7,70.8z"/>
	<path d="M193,74.3l-0.3-0.1c-0.6-1.2-1.3-2.4-1.5-3.8c0.7,0.4,0.7,1.3,1,2C192.3,73.1,193,73.6,193,74.3z"/>
	<path d="M206.2,73.4c0.1,0,0.3,0,0.4,0c0.8,0.9,2,1.6,2.5,2.8c-0.9,0-0.8-1.4-1.7-1.4C207.6,74.2,206.6,73.9,206.2,73.4z"/>
	<path d="M208.4,76.1l-0.1,0.5c-0.5-0.5-1-1-1.5-1.6c0.2,0,0.5-0.1,0.6-0.2C207.2,75.4,208,75.8,208.4,76.1z"/>
	<path d="M215.2,98.8v0.5c0.1,0,0.4,0,0.6,0c0.2,0.7-0.2,1.7,0.3,2.3c-0.1,0.3-0.3,0.5-0.4,0.8c0.1,0,0.3,0.1,0.4,0.2
		c-0.1,0.1-0.2,0.4-0.3,0.5c-0.1-0.3-0.4-0.7-0.1-1.1c0.4-0.5-0.4-0.8-0.7-1.1c-0.1,0.4-0.2,0.7-0.3,1.1c0.1,0.2,0.2,0.5,0.2,0.6
		c-0.4,0-0.5-0.2-0.4-0.6c-0.1-0.7,0.6-1.2,0.6-1.9c-0.2-0.5-0.5-1-0.5-1.6c0.2-0.2,0.4-0.5,0.6-0.8c0.2,0,0.5-0.1,0.7-0.1
		c-0.1,0.3-0.2,0.6-0.2,0.9c0.1,0.1,0.4,0.2,0.6,0.2C216,98.7,215.5,98.8,215.2,98.8z"/>
	<path d="M200.5,97.9c0-0.1-0.1-0.2-0.2-0.2L200.5,97.9L200.5,97.9z"/>
	<path d="M145.8,102.9c0.9-0.7,1.5-1.7,2.5-2.2c-0.1,0.6-0.8,0.7-1.2,1.1c-1.8,1.6-3.2,3.6-4.3,5.8c-0.6,0.9-1.2,1.9-1.7,2.9
		c-0.3-1.3,1.5-2.3,1.3-3.5C143.9,105.9,144.5,104.1,145.8,102.9z"/>
	<path d="M156.9,105c-0.1-0.1-0.2-0.2-0.3-0.3c1.1-0.6,2.3-0.6,3.5-0.7c0,0.1,0,0.2,0,0.3c-0.4,0-0.9-0.1-1.3-0.1c0,0.1,0,0.3,0,0.4
		C158.1,104.6,157.3,104.6,156.9,105z"/>
	<path d="M150.5,104.7L150.5,104.7c-1.1-0.1-2.2,0.5-3.3,0.4C148.2,104.6,149.4,104.7,150.5,104.7z"/>
	<path d="M147,108.8c0-0.3,0.2-0.5,0.6-0.6c0.8-0.2,1.5-0.7,2.4-0.7c0,0.1-0.1,0.2-0.1,0.3C148.9,108.1,147.9,108.3,147,108.8z"/>
	<path d="M146.3,110.5c-1,0.3-1.7,1.2-2.8,1.4c1.5-1,3.1-2.2,4.9-2.4C148,110.3,147,110.1,146.3,110.5z"/>
	<path d="M142.3,110.8c0,0.1-0.1,0.2-0.1,0.3c-0.8,0.2-1.6,0.6-2.4,0.9C140.4,111.3,141.4,111,142.3,110.8z"/>
	<polygon points="157.3,111.1 157.3,111.3 157.1,111.4 157.1,111.1 	"/>
	<path d="M142.3,113.8c1.3-1.2,3-1.7,4.5-2.5c0.1,0.1,0.3,0.2,0.4,0.2c-1.1,0.5-2.2,0.9-3.2,1.5C143.4,113.2,143,113.9,142.3,113.8z
		"/>
	<path d="M157.1,111.4c-0.2,0.3-0.5,0.8-1,0.6C156.1,111.5,156.7,111.3,157.1,111.4z"/>
	<path d="M139.9,113.4c-0.8,0.4-1.6,1-2.4,1.3c1-0.8,2.1-1.4,3.3-1.8C140.8,113.5,140.2,113.3,139.9,113.4z"/>
	<path d="M139.3,119.4c0.1,0,0.4,0,0.5,0v0.2c-0.1,0-0.4,0-0.5,0V119.4z"/>
	<path d="M180.9,123.4c-0.1-0.1-0.2-0.2-0.2-0.2h0.2V123.4z"/>
	<path d="M164.2,127.3l0.3,0.8c-0.6-0.2-0.7-0.8-1-1.2c0.3-0.2,0.6-0.4,0.8-0.6c0.3,0.4,0.5,0.8,0.7,1.2
		C164.9,127.4,164.6,127.3,164.2,127.3z"/>
	<path d="M204.3,132.8c-0.5,0-0.8-1.2-0.1-1.2C204.6,131.8,204.8,132.6,204.3,132.8z"/>
</g>
<g>
	<path d="M17.8,19.7c-0.4-0.8-1.1-1.1-2-1.1c-0.3,0-1.2,0-1.8,0.7c-0.4,0.5-0.6,1.1-0.6,1.7c0,0.8,0.3,1.3,0.5,1.6
		c0.6,0.8,1.4,0.8,1.8,0.8c1.2,0,1.9-0.6,2.2-1.3l2.7,0.3c-0.1,0.3-0.3,0.9-0.9,1.5c-1,1-2.6,1.3-4,1.3c-1.5,0-2.3-0.3-2.9-0.6
		c-0.8-0.3-2.3-1.3-2.3-3.6c0-0.8,0.3-4.2,5.3-4.2c2.1,0,3.3,0.6,4,1.3c0.4,0.5,0.6,1,0.7,1.2L17.8,19.7z"/>
	<path d="M27.2,24.9l-0.4-1.3h-3l-0.4,1.3h-3.1l3.4-7.8h3.2l3.4,7.8H27.2z M25.2,19.3l-0.9,2.6h1.8L25.2,19.3L25.2,19.3z"/>
	<path d="M36.7,24.9l-1.6-2.8h-1.5v2.8h-2.8v-7.8h5.8c1.1,0,2.1,0.1,2.7,1.1c0.1,0.2,0.4,0.7,0.4,1.4c0,0.5-0.1,1.9-1.8,2.2l2,3.1
		L36.7,24.9L36.7,24.9L36.7,24.9z M33.6,20.3h2.1c0.5,0,0.8-0.1,1-0.3c0.1-0.2,0.2-0.4,0.2-0.4c0-0.1,0-0.2-0.1-0.4
		c-0.2-0.3-0.5-0.3-0.8-0.3h-2.3v1.4H33.6z"/>
	<path d="M45.5,18.8v6.1h-2.8v-6.1h-2.8v-1.7h8.4v1.7H45.5L45.5,18.8z"/>
	<path d="M56.6,24.9v-7.8h2.8V23h4v1.9H56.6L56.6,24.9L56.6,24.9z"/>
	<path d="M67.7,22.6v2.3h-2.8v-2.3l-3.6-5.5h3.3l1.7,3.1l1.7-3.1h3.2L67.7,22.6z"/>
	<path d="M71.7,24.9v-7.8h8.4v1.7h-5.6v1.3h5.6v1.8h-5.6v1.2h5.6v1.8C80.1,24.9,71.7,24.9,71.7,24.9z"/>
	<path d="M56,17.1h-7.2v1c0.4,0.2,0.7,0.4,1,0.7H56V17.1z"/>
	<path d="M50.5,20.1c0.1,0.3,0.1,0.5,0.1,0.8s-0.1,0.7-0.2,1H56v-1.8H50.5z"/>
	<path d="M49.8,23.1c-0.3,0.3-0.6,0.5-0.9,0.7v1.1H56v-1.8C56,23.1,49.8,23.1,49.8,23.1z"/>
	<path d="M48.8,19.1v3.7c0.6-0.4,1.1-1.1,1.1-1.9C49.9,20.2,49.5,19.5,48.8,19.1z"/>
</g>
</svg>
