<?xml version="1.0" encoding="utf-8"?>
<!-- Generator: Adobe Illustrator 26.0.3, SVG Export Plug-In . SVG Version: 6.00 Build 0)  -->
<svg version="1.1" id="Слой_1" xmlns="http://www.w3.org/2000/svg" xmlns:xlink="http://www.w3.org/1999/xlink" x="0px" y="0px"
	 viewBox="0 0 239.5 150.2" style="enable-background:new 0 0 239.5 150.2;" xml:space="preserve">
<g>
	<g>
		<path d="M166,125.4c-0.1,0.7,0.1,1.7,0,2.4c-0.8-2.1-0.2-4.4-0.7-6.5c-0.5,0-1,0-1.5,0.1c-0.1,0.9,0,1.8-0.2,2.7
			c0,1.5-0.3,5.8-0.3,7c-1.1-0.8-1.5-5.4-2.6-6.2c-0.1,1-0.2,5.8-0.3,6.7c-0.5-1.3-0.1-6.6-0.6-8c-0.1,1.2,0,2.6-0.9,3.6
			c-0.1-1.1,0.1-2.2-0.2-3.2l-0.5,0.7c0.3,1.3-0.4,2.6-0.6,3.9c-0.3,0-0.6,0.1-0.8,0.1c0,0.9,0,1.8,0,2.7c-0.2-0.7-0.3-1.5-0.6-2.2
			c-0.1,1.3,0,2.6-0.5,3.8c-0.6,1.4-0.7,2.9-1.1,4.3c-1-0.8-1.1-2.1-1.2-3.2c-0.2,1.8-0.4,3.7-1.1,5.4c-0.7-1.3-0.9-2.7-1.3-4
			c-0.6-0.9-1.6-1.6-2.3-2.4c-0.2,1.1-0.3,2.3-0.3,3.4c-0.7-0.4-1.4-0.9-1.8-1.6c-0.3-1-0.3-2-0.5-3c-0.3,0.6-0.5,1.2-0.6,1.9
			c-0.2-0.2-0.5-0.3-0.7-0.4c0,1.7,0,3.5-0.2,5.2c-0.3-1.3-0.9-2.4-1-3.7c-0.1-1-0.2-2-0.6-2.9c-0.3,0.4-0.7,0.7-1,1.1
			c-0.5-0.8-1.1-1.6-1.3-2.6c-0.3-1.1-1-2.3-0.9-3.4l-0.7-3.2c-0.8-0.2-1.3-1-1.9-1.5c0.5-0.6,1.1-1.1,1.7-1.7
			c0.5-0.6,0.7-1.3,0.9-2c0.7-2.1,1.3-4.2,2-6.3c-1.1-0.4-2.2-0.3-3.3-0.1c-0.3,0.7-0.5,1.3-0.8,2c-0.4-0.7-0.4-1.7-1.1-2.1
			c-1.1-0.2-2.2,0-3.3,0.2c-0.3,0.7-0.5,1.4-0.7,2.1c-0.3-0.7-0.5-1.4-0.8-2.1c-1.1-0.4-2.6,0.2-3.4-0.7c2.8-0.2,5.6,0,8.5-0.1
			c1,0,2-0.6,2.5-1.5c0.2-0.7,0.2-1.6,0-2.3c-0.4-0.7-0.9-1.4-1.4-2c1.1-0.3,2.2-0.3,3.3-0.2c0.6,0.4,0.4,1.2,0.5,1.8
			c0,1.4-0.1,2.8,0.2,4.2c1.3,0,2.6,0,3.8,0c0.1-1.9-0.2-3.9,0.1-5.8c0.4,0,0.8,0,1.1,0c0.1,2,0.7,3.9,0.7,5.9c1,0,1.9,0.1,2.9-0.1
			c0.7-0.5,1.3-1.3,2.2-1.3c1-0.2,1.7,0.7,2.3,1.4c0.9,0,1.7,0,2.6,0c-0.5-3.1-2.2-6-2.2-9.2c0.4-2.6,1.2-5.1,1.8-7.7
			c0.1,0.8,0.3,1.7,0.6,2.5c0.4-0.3,0.8-0.6,1-1.2c0.5-1.4,0.7-2.9,1.1-4.3c0.6,1.4,0.7,2.9,1,4.4c0.4-0.1,0.8-0.2,1.2-0.3
			c0.1,0.4,0.2,0.9,0.3,1.3c0.7,0.1,1.4,0.4,1.9,0.9c0.3-1.1,0.5-2.2,0.5-3.3c0-0.6,0.1-1.2,0.5-1.7c0.5,1,0.5,2.2,0.5,3.3
			c0.2,0.2,0.5,0.3,0.7,0.5c0-0.6,0-1.2,0-1.8c0.2,0.5,0.3,1,0.5,1.5c0.1-0.7,0.2-1.3,0.3-2c0.2,0.7,0.4,1.3,0.6,2
			c0.2-0.9,0.5-1.9,0.9-2.8c0.2,1.9,0.1,3.8,0.3,5.6c0.1-2.1,0-4.3,0.3-6.4c0.2-1.6,0-3.1,0.3-4.7c0.1,1.5,0.1,3,0.5,4.4
			c0.1-0.4,0.3-0.8,0.4-1.2c0.1,0.9,0.2,1.9,0.5,2.8c0.6-1.1,0.8-2.3,1.4-3.5c0.4-1.1,0.8-2.4,0.7-3.6c-0.6-3.4-2.9-6.3-5.2-8.8
			c-2.4,2.1-4.4,4.5-6.6,6.7c-1.2,1.1-2.2,2.4-3.3,3.6c-1.9,2-4,3.9-5.8,6c-0.7,0.8-1.5,1.5-2.4,2.2c-1.8-1.6-3.2-3.6-4.9-5.2
			c-3.1-3.1-6-6.4-9.1-9.4c-1.2-1.3-2.4-2.6-3.7-3.9c-1.9,1.3-3.2,3.2-4.5,5.1c-0.8,1.6-1.7,3.4-1.4,5.2c0.6,1.4,1.4,2.8,2,4.3
			c0.3-1.6,0.3-3.1,0.4-4.7c0.3,2.9,0.6,5.8,1.1,8.7c0.1-0.4,0.2-0.8,0.3-1.2c0.3,0.4,0.6,0.8,1,1.3c0.3-2.2-0.3-4.3-0.2-6.4
			c0-0.7,0.5-1.2,0.8-1.8c0.4,2,0.4,4.1,0.4,6.1c0,1.2,0.5,2.2,1,3.2c0.2-1.3,0.3-2.6,0.5-3.9c0.4,0,0.8,0,1.1-0.1
			c0.1-0.3,0.2-0.6,0.2-1c0.2,0.4,0.4,0.7,0.5,1.1c0.9-2-0.3-4-0.4-6.1c0.2,0.7,0.4,1.5,1,2c0.1,1.4-0.1,2.9,0.3,4.3
			c0.5-0.6,1.1-1.2,1.7-1.7c0.2,1.5-0.2,3.3,0.7,4.6c0.2,0,0.6,0,0.8-0.1c0-0.5,0.1-0.9,0.1-1.4c0.2,1.5,0.1,3,0.6,4.4
			c0.3-0.7,0.6-1.3,0.9-2c0.1,0.8,0.1,1.7,0.2,2.5c0.5-0.1,1.2,0.1,1.4-0.5c0.2-0.9,0.2-1.7,0.4-2.6c-0.1,2.8,0.1,5.6-0.1,8.4
			c-0.2-1.2-0.5-2.5-0.8-3.7c-2,0.1-3.9,0-5.9,0.1c-1.5,0.1-2.8,1.7-2.4,3.2c0.3,0.9,1,1.7,1.5,2.5c-2.3,0-4.7,0-7,0
			c0-1.2-0.1-2.5-0.3-3.7c0,1.7,0.1,3.5,0,5.2c-0.3,0.3-0.7,0.5-1,0.7c-0.7-2.1-0.1-4.4-0.3-6.5c-0.8,1-2.1,1.7-2.7,2.9
			c0.7,0.7,1.8,1.3,1.5,2.4c-0.2,1.4-0.2,2.7-0.2,4.1c-0.2-1-0.2-2-0.4-3c-0.2-0.6-0.8-0.9-1.3-1.2c-0.1-1.5-0.1-3-0.1-4.4
			c0-1.6-0.3-3.1-0.2-4.6c-0.1-0.9,1.3-1.3,1.1-2.3c-0.1-1.4,0.2-2.7,0.5-4.1c0.1-1.8,1.1-3.4,0.7-5.3c-0.3,0.5-0.7,1.1-1,1.6
			c-0.1-1-0.1-2.1,0.2-3.1c0.5-1.6,0.6-3.3,1.3-4.8c0.5-1.1,1.2-2.1,1.3-3.4c0-1.1,0.1-2.1,0-3.2c-0.3-0.9-1.3-1.5-1.6-2.5
			c-0.1-0.7-0.1-1.3,0-2c0.2-1.1,1.4-1.8,1.3-3c0-4.4-0.2-8.9,0.3-13.3c0.2-3.4,0.2-7.1,2.5-9.8c1.7-1.7,4.1-2.4,6.4-2.7
			c2.5-0.2,5,0,7.4,0.5c1.5,0.3,2.1,1.8,3.3,2.7c0.1-1.1,0.1-2.2,0.1-3.2c-4.3-1.2-8.8-2-13.2-1.1c-2.2,0.5-4.3,1.5-6.1,2.8
			c-2.6,2.2-4.7,5-6.1,8.1c-3.2,6.7-5.6,13.8-8,20.9c-1.5,4.3-2.9,8.7-4.2,13.1c-0.7,2.1-0.6,4.5,0,6.6c0.2,0.9,1.1,1.2,1.8,1.6
			c2.5,1.3,5.1,2.2,7.7,3.2c-0.9,1.4-0.2,3.1-0.3,4.7c0,3.9,0.1,7.7-0.1,11.6c-0.2-1.5-0.1-3.1-0.3-4.6c-0.2-1.6-0.1-3.3-0.3-4.9
			c-0.2-2,0-4-0.3-6c0-0.6-0.6-0.8-1-1c-0.5,2.6-0.3,5.3-0.3,7.9c-0.1,1.6,0,3.1,0,4.6c-0.2-2.5-0.4-5-0.7-7.5
			c-0.3-1.7-0.1-3.4-0.4-5.1c-0.2,0-0.5,0-0.6,0c0,2.1-0.7,4.2-0.8,6.4c-0.2-2.3,0-4.6-0.4-6.9c-1.7-1-3.7-1.5-5.3-2.8
			c-1.6-1.2-2.5-3.1-2.6-5.1c-0.1-1.6,0.3-3.1,0.7-4.6c1.6-5.5,3.5-10.9,5.4-16.3c0.9-1.6,0.4-3.4,0.7-5.1c0.2-2.1-0.1-4.3,0.3-6.4
			c0.1,2.2,0.4,4.4,0.5,6.6c0.3-0.4,0.8-0.7,0.9-1.3c0.3-1.6,0.1-3.2-0.1-4.7c-0.2-3.1,0-6.3-0.1-9.4c-0.1-2.7-0.1-5.4,0-8.1
			c0.2,3.9,0,7.9,0.5,11.8c0.3,2.1-0.1,4.3,0.3,6.4c0,0.4,0.3,0.7,0.5,1c0.3-1.6,0.1-3.3,0.1-4.9c-0.1-2.4,0.1-4.9-0.2-7.3
			c-0.3-3.1,0.2-6.2,0.3-9.3c0.4,1.8,0,3.8,0.4,5.6c0.1,0.7,0.6,1.3,0.9,1.9c1,2.8,0.8,5.9,1,8.8c0.4-1.6,0.2-3.3,0.2-5
			c0.1-3.3-0.2-6.6,0.2-9.8c0.1-4.3,0-8.7,0.1-13c0.2,4.3,0.3,8.6,0.6,12.9c0.9-1.5,0.4-3.3,0.5-5c0.2,0,0.6,0.1,0.8,0.2
			c0.8-0.5,1.6-0.8,2.4-1.2c0.4-0.4,0.2-1.1,0.5-1.6c0.3-0.6,0.8-1.1,1.2-1.7c0.5-0.7,1.3-0.9,2-1.5c0.2-1.4,0.1-2.9,0.1-4.3
			c0.3,1.5,0.2,3,0.5,4.5c0.7,0,1.5,0.6,2.1,0c0.8-0.7,1.5-1.5,2-2.5c0.4-1,0.8-2.1,1.2-3.2c0.2,0.5,0.4,0.9,0.5,1.4
			c0.1,0,0.4,0,0.6,0c0.2-0.6,0.5-1.3,0.7-1.9c0.4,0.4,0.8,0.8,1.2,1.1c1.2-0.3,1.9-1.6,2-2.8c0.2-2.6,0-5.2,0.1-7.9
			c0.1,1.6,0.1,3.3,0.4,4.9c0.3,1.4,0,2.8,0.3,4.1c0.5-3.1,0.3-6.2,0.4-9.3c0.6,2.9,0,6,0.7,8.9c2.9-1.2,5.9-1.9,8.8-3.1
			c0.8-0.3,1.8-0.1,2.6-0.1c0-0.3,0.1-0.7,0.1-1c1,1,2.3,1.7,3.7,2c2,0.5,3.9,1.3,5.9,1.9c1.1,0.4,2.3,0.8,3.3,1.4
			c0.3-0.2,0.5-0.5,0.8-0.7c-0.1,0.5-0.2,1-0.3,1.4c0.3,0.1,0.6,0.2,0.8,0.3c-0.1-2,0.7-3.8,1.7-5.4c0.1,0,0.3,0.1,0.4,0.1
			c0.5,1.6,0.2,3.4,0.3,5c0,0.6,0.5,1,0.7,1.4c0.4,0.5,0.4,1.2,0.6,1.8c0.2-0.5,0.4-1,0.6-1.5c0.4,0.4,0.6,0.8,1.1,1.1
			c0.6,0,1.3-0.1,1.9-0.1c0.5-0.7,1.1-1.4,1.6-2.1c0.4,0.4,0.7,0.8,1.1,1.2c0.5-0.1,1-0.3,1.5-0.4c-0.1,0.5-0.3,1-0.4,1.4
			c0.7,0.3,1.4,0.7,2,1c-0.4,0.5-1.3,0.8-1.2,1.6c0.1,0.7,0.4,1.3,0.6,2c-0.5,0.5-1.1,0.9-1.5,1.6c0.1,0.8,0.6,1.4,0.6,2.2
			c0,1.3-0.1,2.6,0.1,3.9c0.9-1,0.3-2.4,0.2-3.6c0.7-2.2,0.7-4.6,1.9-6.6c0.2,2,0,4.1,0.1,6.1c0.4-2,0.9-4.1,0.7-6.2
			c0.1-1.4,0.2-2.8,0.7-4.1c0.6,3.1,0.1,6.3,0.4,9.4c0.4-1.8,0.1-3.7,0.4-5.6c0.1-1.2,0.1-2.3,0.6-3.4c0.1,1.2,0.3,2.5,0.5,3.7
			c-0.2,1.2-0.5,2.3-0.3,3.5c0.6,4-0.2,8.1,0.5,12.2c0-3,0-6,0-9c0-1.5,0.8-2.8,1.7-4c0.1,0.9,0.1,1.7,0.1,2.6
			c0.3-2.6,0.4-5.3,0.8-7.9c0.1,4.2,0.2,8.3-0.2,12.5c0,2.8-0.2,5.7,0,8.5c0.6-2.4,0.6-4.8,0.9-7.2c0.4-2.2,0-4.4,0.9-6.5
			c-0.1,2.5,0.1,5-0.3,7.5c-0.2,2.9-0.1,5.9,0.3,8.8c0.7-1.3,0.4-2.8,0.5-4.2c0.2-1.7,0.3-3.3,0.6-4.9c0.2,0.6,0.4,1.1,0.4,1.8
			c0,2-0.1,4.1,0,6.1c0,1,0,2.1-0.5,3c-1,2-1.1,4.3-0.7,6.5c0.2,2,0,4-0.2,6c-0.2,1.8,0.8,3.4,1.4,5c2,5.7,4.1,11.4,5.7,17.3
			c0.5,2.2,1.1,4.7-0.1,6.8c-1,2-3.1,2.9-4.9,4.1c-0.2,0.6-0.1,1.2-0.2,1.8c-0.1,1-1,1.8-1.1,2.9c0,1.4-0.1,2.9,0.3,4.3
			c0.4,1.8,0.2,3.7,0.3,5.5c0,1.2,0.2,2.5-0.3,3.7c-0.4-0.9-0.8-1.8-0.8-2.9c-0.1-1.5,0.4-2.9,0.3-4.4c-0.2-0.1-0.4-0.3-0.6-0.4
			c-0.7,3.8-0.3,7.8-1.4,11.6c-0.1-1.3-0.1-2.6-0.3-3.9c-0.3-1.8,0.5-3.6,0.5-5.5c0-3-0.2-6,0.5-9c-0.2,0.6-0.4,1.3-0.6,1.9
			c-0.6-1.2-0.5-2.7-0.5-4c-0.2,0-0.5,0-0.7,0c-0.1,3,0,6-0.3,9.1c-0.1,2,0,4-0.2,6.1c-0.2,1.7-0.1,3.5-0.2,5.2
			c-0.2,1.9-0.2,3.9-0.3,5.8c-0.4-2.9-0.2-5.8-0.3-8.7c-0.2-1.5-0.1-3.1-0.2-4.6c0.1-0.9-0.7-1.6-1.2-2.2c0,0.8,0,1.5-0.1,2.3
			c-0.3,1.9,0,3.8-0.3,5.7c-1-1.6-0.6-3.6-0.9-5.4c-0.1-2.4-0.5-4.8-0.4-7.2c-0.1-1.5-0.1-3.1-0.7-4.5c-0.2,1.7-0.1,3.4-0.6,5
			c-0.8,1-1.7,2.2-1.8,3.5c0.4,1,0.9,2.1,0.8,3.2c-0.1,3.2,0.3,6.4-0.3,9.5c-0.3-0.1-0.5-0.2-0.8-0.3c-0.3,1-0.6,2-0.8,3
			c-0.4-2.7,0-5.5-0.4-8.2c-0.2-1.4,0-2.9-0.2-4.3c-0.2,2.1-0.3,4.1-0.7,6.2c-0.3-0.7-0.6-1.4-0.9-2c-0.2,0.5-0.4,1.1-0.3,1.7
			c0,1.4-0.2,2.8-0.4,4.1c-0.4-0.9-0.7-1.8-1.1-2.7c-0.2,0.3-0.4,0.7-0.5,1c-0.4-0.1-0.8-0.2-1.3-0.3c0.8,3.6,0.8,7.3,0.5,10.9
			c-0.2-0.4-0.4-0.8-0.6-1.3c-0.2,0.8-0.4,1.7-0.7,2.5c-0.5-1.7-0.1-3.5-0.3-5.3c-0.2-1.4,0-2.8-0.6-4.1c-0.2,0.5-0.4,0.9-0.6,1.4
			c-0.4-0.3-0.9-0.5-1.3-0.8c0,0.7-0.1,1.4-0.1,2.2L166,125.4z M148.2,18.4c-0.7,2.4-0.9,4.9-0.9,7.4c-0.5,4.7-0.6,9.4-0.5,14.2
			c-0.1,0.5,0.6,0.6,1,0.6c1.7,0.1,3.3,0,5,0c0.1-5.4,0.2-10.8-0.5-16.2c0-2,0-4-0.6-5.9C150.5,18.3,149.4,18.3,148.2,18.4z
			 M140.5,21.1c-3.7,1.7-7.4,3.7-10.2,6.8c-1.8,1.9-3.1,4.1-4.4,6.3c-1.6,3.3-3.1,6.8-3.1,10.5c1.5-1,2.7-2.3,4.3-3.2
			c2.3-1.2,4.8-2.1,7.4-2.6c1.6-0.4,3.3-0.2,4.9-0.2c2.4-0.1,4.6,1,6.9,1.5c0.3-3.7,0-7.5,0.3-11.2c0.3-1.7,0.2-3.5,0.4-5.3
			c0.1-1.5,0.4-3.1,0.4-4.6C145,19.4,142.8,20.3,140.5,21.1z M152.3,19.1c0.6,2.7,0.5,5.4,0.8,8c0.2,4.3-0.1,8.7,0.2,13
			c1.9-0.4,3.7-1.3,5.7-1.3c2.5,0,5.1-0.2,7.6,0.4c4,0.8,7.6,3,10.5,5.8c-0.5-4.4-1.9-8.8-4.3-12.6c-1.9-3.6-4.9-6.7-8.5-8.7
			c-3-2-6.4-3.3-9.8-4.3C153.8,19.3,153,19.2,152.3,19.1z M174.6,26.6c-0.1,1.2,0,2.4,0,3.5c0.1,0.1,0.4,0.2,0.5,0.2
			C175.1,29.1,175.5,27.6,174.6,26.6z M130.7,40.3c-3.7,1.3-7.1,3.9-9.1,7.4c-4.5,8.3-7.8,17.1-11,26c-1.3,4.1-2.8,8.2-3.8,12.3
			c-0.3,2-0.5,4.5,1.3,5.9c-0.1-1.3-0.4-2.7-0.1-4c0.8-4,2.3-7.8,3.5-11.6c2.7-7.9,5.3-15.8,8.7-23.3c1.4-3.4,3.5-6.5,6.3-9
			c3.6-3.1,8.6-4.3,13.3-3.7c2.1,0,4.1,0.7,6.2,0.9c-0.3-0.3-0.6-0.6-1-0.8c-2.4-1-5-1.3-7.5-1.2C135.1,39,132.8,39.5,130.7,40.3z
			 M157.1,39.6c-1.3,0.3-2.7,0.6-3.7,1.5c2-0.2,3.9-0.8,6-0.8c4.3-0.6,9,0.2,12.6,2.8c2.3,1.5,4,3.8,5.5,6.1
			c1.9,3.2,3.2,6.7,4.6,10.1c3.3,8.5,6.1,17.3,8.9,26c0.8,2.4,0.7,5,0.2,7.5c1.3-1.3,2.3-3,2-4.9c-0.4-3.3-1.7-6.5-2.6-9.7
			c-1.7-4.9-3.4-9.8-5.3-14.6c-1.3-3.3-2.5-6.6-4.1-9.7c-0.9-2.1-2-4.1-3.1-6.2c-0.6-1.2-1.4-2.2-2.4-3.1c-3.1-2.9-7.1-4.7-11.2-5.3
			C162.1,39.1,159.5,38.9,157.1,39.6z M146.5,41c0.3,0.2,0.6,0.5,1,0.5c1.8,0,3.5,0.1,5.3-0.1c-0.5-0.6-1.4-0.5-2.1-0.5
			C149.3,40.9,147.9,40.9,146.5,41z M152.9,42.4c-0.6,1.1-0.1,2.5-0.1,3.7c0.8-1,1.4-2.2,2.5-2.9c2.4-0.9,5-0.9,7.5-0.8
			c2,0,3.9,0.6,5.6,1.5c2.1,1.1,2.9,3.5,3.5,5.6c0.4,1.4,0.2,2.9,0.4,4.3c0.2,1.7,0.1,3.4,0.4,5.1c0.1,3,0.1,6.1,0.1,9.1
			c-0.2,1.6,1.5,2.7,1.4,4.3c0,1.3-0.9,2.2-1.6,3.2c-0.2,1.4-0.1,2.9,0,4.3c0.5,1.5,1.5,2.7,1.8,4.3c0.3,1.9,0.5,4.1-0.7,5.7
			c-0.7,1.4-2.1,3.2-1.1,4.8c0.2-0.6,0.4-1.2,0.5-1.8c-0.1,2-0.2,3.9,0.3,5.9c0.3-0.4,0.6-0.9,0.9-1.3c1.1,0.5,2.1,1.1,3.2,1.4
			c2.6-0.7,5.2-1.8,7.7-2.8c1.6-0.7,3.3-1.2,4.6-2.3c1.4-2.6,1.2-5.7,0.2-8.5c-1.3-3.8-2.3-7.6-3.7-11.3c-1.3-3.7-2.4-7.5-3.9-11.1
			c-1.4-3.9-2.9-7.7-4.8-11.4c-1.3-2.5-3-4.8-5.1-6.7c-1.9-1.6-4.2-2.7-6.6-3.3c-2-0.5-4.1-0.4-6.1-0.3
			C157.5,41.2,155.1,41.5,152.9,42.4z M181.3,41.6c-0.2,1.7-0.1,3.5-0.3,5.2c0,1.6-0.4,3.2,0.4,4.7c0.3-2.3,0.1-4.7,0.1-7
			C181.4,43.5,181.5,42.5,181.3,41.6z M147.4,42.3c0,1.3,0,2.6,0,3.8c1.6-0.5,3.3-0.4,4.9-0.2c0-1.2,0-2.4,0-3.6
			C150.6,42.3,149,42.3,147.4,42.3z M132.6,43.6c-1.4,0.5-2.5,1.6-3.3,2.8c-1.2,2.1-1.5,4.5-1.6,6.8c-0.3,1.9-0.2,3.8-0.4,5.7
			c-0.1,0.8,0.1,1.5,0.3,2.3c0.3-1.3,0.8-2.6,0.8-4c0-2.3,0.5-4.6,1.6-6.6c0.8-1.6,2.3-2.7,3.8-3.6c2.2-1.1,4.7-1.3,7.1-1.5
			c1.9-0.1,3.8,0.5,5.4,1.6c-0.4-1.7-1.4-3.4-3.1-3.9C139.7,42.3,135.9,42.4,132.6,43.6z M156.6,43.1c-2,0.3-3.1,2.4-3.4,4.2
			c2.8-2.2,6.6-1.9,9.8-1.3c2.6,0.5,5.1,2.1,6.5,4.4c1,1.9,1.7,4,1.6,6.2c-0.1,1.3,0.4,2.5,0.7,3.7c0.1,0.4,0.2,0.8,0.6,1
			c-0.3-2-0.2-4.1-0.3-6.2c-0.3-2.2-0.3-4.5-0.9-6.6c-0.6-1.8-1.6-3.5-3.2-4.4C164.6,42.2,160.4,42.3,156.6,43.1z M133.5,47.7
			c-1.8,1-3.1,2.7-3.9,4.6c-0.7,1.9-0.7,4-0.7,6c0.2,0,0.5,0,0.7,0c0.2-1.2,0.1-2.5,0.2-3.7c0.2-2.7,2-5.2,4.5-6.3
			c2.5-1.2,5.3-1.2,8-1.1c1.2,0.1,2.3,0.7,3.5,0.5c-1.1-1.7-3.3-1.8-5.2-1.8C138.1,46,135.6,46.5,133.5,47.7z M147.2,47
			c1.6-0.4,3.2-0.4,4.8-0.4C150.4,45.9,148.5,45.9,147.2,47z M153.9,48.1c1.2-0.3,2.3-0.7,3.6-0.9c2.4-0.1,5-0.2,7.3,0.8
			c2.3,0.7,4,2.7,4.8,5c0.6,1.7,0.3,3.5,0.5,5.3c0.2,0,0.5-0.1,0.7-0.2c0.5-3.5-0.7-7.4-3.5-9.7c-2.1-1.6-4.7-2.5-7.3-2.4
			c-1.2,0-2.5-0.1-3.7,0.1C155.2,46.5,154.1,47,153.9,48.1z M147.1,48.1c0.8-0.2,1.6-0.4,2.5-0.5c0.9,0,1.8,0.3,2.7,0.3
			c-0.4-0.2-0.7-0.5-1.1-0.6C149.7,47.1,148.2,47.1,147.1,48.1z M137.7,47.8c-1.9,0.3-4,0.9-5.3,2.4c-1.9,2.1-2.8,5.1-2,7.9
			c1.1-0.1,2.2-0.3,3.2-0.6c3.8-1.2,7.7-2.1,11.5-3.5c0.7-0.3,1.4-0.6,1.6-1.4c0.7-1.6-0.4-3.5-2-4.1
			C142.4,47.5,140,47.3,137.7,47.8z M154.5,48.5c-1.9,0.8-2.4,4.1-0.4,5.1c2.4,1.3,5.3,1.6,7.8,2.6c2.5,0.7,5,1.5,7.6,2
			c0.2-2.4,0-4.9-1.3-6.9c-1-1.4-2.4-2.5-4-3C161,47.4,157.5,47.1,154.5,48.5z M146.9,49c1.1-0.1,2.1-0.5,3.2-0.4
			c0.9,0,1.8,0.4,2.7,0.6C151.3,47.6,148.6,47.7,146.9,49z M147,50.1c0.9,0,1.9-0.3,2.8-0.3c0.9,0,1.8,0.2,2.7,0.4
			c-0.7-0.6-1.6-1.3-2.7-1.2C148.8,48.9,147.8,49.5,147,50.1z M147.1,50.8c0,0.6,0,1.2,0,1.8c0.7-0.6,1.4-1.4,2.5-1.3
			c1-0.1,1.9,0.4,2.8,0.8c0-0.7-0.1-1.6-0.9-1.8C150,49.9,148.5,50.2,147.1,50.8z M183.5,50.3c0,1.4-0.3,2.9-0.3,4.3
			c-0.1,1.1,0.6,2,1,2.9c0.3-2.3,0.2-4.7-0.2-7C183.8,50.4,183.6,50.3,183.5,50.3z M149,51.7c-1,0.2-1.4,1.3-1.6,2.2
			c0.8-0.2,1.6-0.5,2.4-0.6c0.8,0,1.6,0.3,2.4,0.4C151.9,52.4,150.5,51.2,149,51.7z M128.3,59.2c0,0.5,0,1,0,1.5
			c1.7-0.5,3.2-1.3,4.9-1.8c2.4-0.8,4.9-1.4,7.4-2.2c1.7-0.5,3.5-0.7,5-1.6c0.6-0.3,0.8-1,1.1-1.6C140.9,56.3,134.5,57.2,128.3,59.2
			z M146.6,56.3c-0.6,1.2-0.2,2.7-0.7,3.9c-0.7,1.7-1.8,3.2-2.8,4.7c-2.1,3.1-4.7,5.9-7.2,8.7c-0.9,0.8-0.5,2.3-1.5,3.1
			c-0.9,0.2-2,0.2-2.5-0.6c-1-1.5-3.1-1.6-4.3-2.9c-0.5-0.9-0.5-2-0.8-2.9c-0.7,0.7-1.3,1.6-0.9,2.6c0.7,2,2.8,3.1,4.6,3.9
			c-1.1,1.5-2.5,2.7-3.4,4.3c-1,1.7-1.7,3.6-1.6,5.6c1.2-1.1,1.5-2.9,2.5-4.1c1.2-1.4,2.3-3,3.9-4.2c1-0.2,2-0.1,3-0.1
			c11,0,21.9,0,32.9,0c0.4,0,0.7,0.1,0.9,0.4c1.1,1.3,2.1,2.7,3.1,4.1s1.3,3.2,2.3,4.6c0.4-2.6-0.7-5.2-2.2-7.2
			c-0.8-1.2-2-2.1-2.7-3.4c1.7-0.7,3.5-1.6,4.4-3.2c0.2-1.2,0.3-2.7-1-3.3c-0.2,1,0,2-0.4,2.9c-0.8,1-2.1,1.3-3.2,1.9
			c-0.8,0.4-1.2,1.2-1.8,1.7c-0.6,0.3-1.3,0.2-1.9,0.1c-1-0.8-0.8-2.3-1.7-3.2c-1.7-1.8-3.2-3.7-4.9-5.5c-1.6-1.9-2.9-4.1-4.2-6.2
			c-0.6-1-1-2.1-1-3.2c0-1.5-0.5-3-1.6-4c-0.6-0.6-1.4-1.2-2.3-0.9C148.2,54,147.1,55,146.6,56.3z M153.1,53.9
			c0.1,0.3,0.3,0.7,0.4,1c1.2,0.8,2.7,1,4.1,1.5c2.6,0.8,5.3,1.4,7.9,2.2c1.9,0.6,3.8,1.5,5.8,2.1c-0.1-0.6,0.1-1.4-0.6-1.6
			c-3.6-1.3-7.4-2-11.1-3.1C157.4,55.5,155.3,54.5,153.1,53.9z M128.2,61.5c0.5,2.2,1.4,4.3,2.2,6.5c0.8,1.7,1.1,3.6,2.1,5.3
			c1.4-0.6,1.9-2.1,2.7-3.3c2.8-4.3,6.4-8,10-11.6c0.7-0.8,0.8-2,1.1-3C140.3,57.6,133.9,58.5,128.2,61.5z M153.3,55.5
			c0.2,0.9,0.3,2,1,2.7c4.2,4.2,8.2,8.7,11.3,13.7c0.4,0.6,0.8,1,1.3,1.5c1.1-1.3,1.3-3,2-4.5c0.8-2.5,2-4.9,2.6-7.5
			C165.7,58.5,159.3,57.6,153.3,55.5z M185.7,57.4c-0.5,1.2-0.7,2.5-0.1,3.7C186.1,59.9,186.4,58.5,185.7,57.4z M153.8,58.8
			c0.7,2.6,2.4,4.8,3.8,7c2.1,2.9,4.5,5.5,6.9,8c0.4-0.3,0.7-0.5,1.1-0.8c-2.2-4.1-5.3-7.7-8.5-11.1
			C156.1,60.9,155.1,59.6,153.8,58.8z M141.9,62.5c-2,1.9-3.7,4.1-5.2,6.3c-0.9,1.4-2.1,2.7-2.7,4.2c0.4,0.2,0.7,0.5,1.1,0.7
			c3-3.1,6-6.4,8.3-10.1c0.9-1.5,2-2.9,2.3-4.6C144.1,59.8,143.1,61.3,141.9,62.5z M127.6,62.5c-0.7,2.3-0.4,4.7-0.3,7.1
			c0.2,1.1,0,2.4,0.8,3.3c0.9,0.8,2.1,1.4,3.3,1.6c0.7-0.4,0.3-1.2,0.1-1.8c-0.7-1.9-1.3-3.8-2.1-5.7
			C128.9,65.4,128.5,63.8,127.6,62.5z M171.8,62.7c-0.9,1.4-1.3,3-1.8,4.6c-0.6,1.8-1.3,3.5-1.9,5.3c-0.2,0.6-0.4,1.2-0.1,1.7
			c0.9,0.3,1.7-0.2,2.5-0.6c0.7-0.5,1.6-1,1.7-1.9c0.4-2.3,0.5-4.7,0.4-7.1C172.4,64,172.1,63.3,171.8,62.7z M132.1,74.4
			c-0.3,0.7,0.1,1.4,0.4,2c0.8-0.1,1.8,0.2,2.2-0.6c0.7-0.9-0.2-1.9-1-2.3C133,73.6,132.4,73.9,132.1,74.4z M165.1,76
			c0.5,0.5,1.2,0.4,1.8,0.5c0.4-0.6,0.9-1.2,0.7-1.9c-0.2-0.8-1.2-0.8-1.9-0.7C164.7,73.8,164.3,75.4,165.1,76z M127.5,75.9
			c0,1,0,2,0,3c0.9-0.6,1.6-1.4,2.1-2.2C129,76.4,128.2,76.1,127.5,75.9z M170,76.8c0.5,0.9,1.2,1.7,2.1,2.2c0.1-1,0.1-2,0-3
			C171.4,76.1,170.6,76.4,170,76.8z M133,78.7c0.8,0.9,1.6,1.8,2.5,2.6c1.5,1.5,2.8,3.2,4.3,4.6c1.3,1.2,2.4,2.6,3.6,3.9
			c2.2,2.2,4.2,4.4,6.4,6.6c2.6-2.4,5-5,7.4-7.5c2-2.1,4.1-4,6-6.2c1.2-1.3,2.6-2.5,3.7-3.9c-0.6-0.2-1.2-0.3-1.8-0.3
			c-10.2,0-20.4,0-30.6,0C134,78.4,133.5,78.6,133,78.7z M126,90c-0.1,1.5,0,2.9-0.2,4.4c-0.3,1.2,0.4,2.2,0.8,3.3
			c0.3-1.7,0.2-3.5,0.3-5.2C127,91.5,126.4,90.8,126,90z M181.8,97.5c-0.2,2.2-0.1,4.4,0.1,6.5c0.2-1.5,0.1-2.9,0.2-4.4
			C182.1,98.9,182.2,98.1,181.8,97.5z M158.4,102.5c-0.1,3-0.1,6,0,9c1.1,0,2.2,0,3.3,0c0.1-0.6,0.3-1.3,0.4-1.9
			c1.1,0.6,1.9,1.9,3.3,1.9c1.8,0.1,3.5,0,5.3,0c0.1-1,0.1-2,0-3.1c-1.5-0.1-3-0.1-4.4-0.1c0.4-0.8,1.1-1.5,1.1-2.4
			c0-0.8,0.1-1.7-0.6-2.2c-1.5-1.4-3.8-1.2-5.7-0.9c-0.1,0.6-0.1,1.3-0.2,1.9c-0.1-0.3-0.2-0.6-0.3-1c-0.2,0-0.4,0-0.7,0
			C159.6,103.3,159.2,102.6,158.4,102.5z M143.1,112.5c-0.8,2.9-1.9,5.7-2.5,8.7c0.9,0,1.8,0.1,2.7,0c0.3-0.4,0.4-0.7,0.7-1.2
			c0.7-0.2,2.2-0.2,2.9-0.2c0.2,0.4,0.5,1,0.7,1.4c1,0,1.9,0,2.9,0c-0.1-1.2-0.4-2.3-0.8-3.4c-0.6-1.8-1-3.6-1.8-5.3
			C146.4,112.1,144.7,112.1,143.1,112.5z M151.7,112.3c0,3,0,5.9,0,8.9c1.1,0,2.2,0,3.2,0c0.1-0.7,0.2-1.5,0.3-2.2
			c0.7,0.6,1.3,1.3,2,1.8c0.6,0.4,1.4,0.4,2.1,0.5c0.5-1.1,0.6-2.4,0.2-3.6c0.4-0.6,0.8-1.1,1.1-1.7c0.3-0.9,0-2-0.7-2.7
			c-0.8-0.8-2-0.9-3.1-1C155.1,112.2,153.4,112.2,151.7,112.3z M164.1,112.5c-1.3,0.4-2,1.9-1.7,3.2c0.6,1.1,1.7,1.9,2.5,2.9
			c0-0.8,0-1.6,0-2.3c0.2,0.5,0.4,1.1,0.6,1.6c0.1-1.3,0.1-2.6,0.2-3.9c0.2,0.4,0.4,0.7,0.7,1.1c0.2-0.3,0.5-0.7,0.7-1
			c0.2,0.3,0.3,0.7,0.5,1c0.5-0.6,0.9-1.2,1.2-2c0.1,0.7,0.3,1.4,0.5,2.1c0.2-0.6,0.3-1.2,0.4-1.8c0,0.7,0.3,1.3,0.8,1.8
			c0.4-0.9,0.4-2,0.3-3c-1.1,0.1-2.2,0.2-3.3,0C166.3,112.2,165.2,112.1,164.1,112.5z M167.2,116.6c-0.5,1.2-0.6,2.6-0.5,3.9
			c0.5-0.7,1.1-1.3,1.3-2.1C168.1,117.7,167.6,117.1,167.2,116.6z M161.2,118.6c0,0.7,0.1,1.4,0.3,2.1c0.2-0.1,0.5-0.3,0.7-0.4
			c0.2,0.2,0.4,0.5,0.6,0.7c0.5-0.4,1-0.7,1.3-1.2c0-0.5,0-1.1-0.1-1.6C163.1,118.3,162.1,118.5,161.2,118.6z M160.8,121.4
			c0.1,0.8,0,1.6,0.2,2.3c0.3,0.6,0.9,1.1,1.4,1.6c0.5-1.2,0.3-2.4,0.2-3.7c-0.3,0.1-0.7,0.3-1,0.3
			C161.3,121.8,161.1,121.6,160.8,121.4z"/>
	</g>
	<path d="M172.2,17.6c0.9,0.9,0.8,2.2,1,3.3C172.1,20.2,172.1,18.8,172.2,17.6z"/>
	<path d="M173.5,22.2c0-0.5,0.1-0.9,0.1-1.4c0.2,0.1,0.7,0.4,0.9,0.6c0,0.2-0.1,0.6-0.2,0.8C174.2,22.2,173.8,22.2,173.5,22.2z"/>
	<path d="M141.9,48.1c0.7,0.2,1.4,0.3,2.1,0.5c0,1.8,0,3.5,0,5.3c-0.7,0.3-1.4,0.5-2.1,0.7C141.9,52.4,142,50.2,141.9,48.1z"/>
	<path d="M166.9,50.6c1,1.2,0.1,2.8-0.9,3.8C166.3,53.1,166.6,51.8,166.9,50.6z"/>
	<path d="M167,54.7c0.5-0.7,0.8-1.5,1.1-2.2c0.7,1.5,1,3.2,0.9,4.9c-1.3-0.1-2.6-0.5-3.8-1C165.8,55.8,166.5,55.4,167,54.7z"/>
	<g>
		<path d="M147.6,55.8c0.4-0.8,1.2-1.1,2-1.3c1.3-0.2,2.6,0.8,2.9,2.1c0.3,1.8,0.3,3.7,1.1,5.3c3.2,4.9,6.5,9.8,9.6,14.8
			c-8.9,0-17.7,0-26.6,0c3-5,6.3-9.8,9.5-14.7C147.2,60.1,146.6,57.7,147.6,55.8z M147.6,56.7c-0.5,1.7-0.5,3.5-0.7,5.2
			c1.9,0,3.8,0,5.8,0c0-1.6-0.3-3.2-0.5-4.7c-0.2-1-0.9-2.3-2.1-2.3C148.9,54.7,147.9,55.7,147.6,56.7z M146.8,62.5
			c-0.1,4.6,0,9.3-0.1,13.9c0.4,0,0.9,0,1.3,0c0.5-0.2,0.9-0.8,1.5-0.8c1.2-0.1,2.1,0.9,3.3,0.9c0-4.6,0.1-9.3,0-13.9
			C150.8,62.5,148.8,62.5,146.8,62.5z M144.8,64.8c-0.2,1.3,0,2.6-0.1,3.9c-0.2,2.3-0.2,4.7,0.1,7.1c0.5-0.1,1.1-0.2,1.6-0.3
			c0.3-1.9-0.2-3.8-0.1-5.6c0-2.4,0.1-4.7-0.1-7.1C145.7,63.5,145.1,64.1,144.8,64.8z M153.2,68.7c0.1,2.3-0.2,4.6,0.2,6.8
			c0.4,0,0.9,0,1.3,0c0.3-1.5,0.2-3,0.2-4.5c0-1.7,0-3.5,0-5.2c0-1.2-0.8-2.1-1.4-3.1C152.9,64.7,153.2,66.8,153.2,68.7z
			 M142.5,68.4c-0.4,2.6-0.3,5.3-0.3,8c0.7,0,1.3,0,2,0c0-3.5,0.1-7.1-0.1-10.6C143.4,66.5,142.8,67.4,142.5,68.4z M155.2,65.8
			c-0.2,3.5,0,7.1-0.1,10.6c0.7,0,1.4,0,2.1,0c0-2.3,0-4.7,0-7C157.3,67.9,156.2,66.7,155.2,65.8z M140.5,71.4
			c-0.2,1.5-0.1,2.9,0,4.4c0.5,0,1.1,0.1,1.3-0.4c0.1-1.9,0.1-3.8-0.1-5.6C141.3,70.2,140.7,70.7,140.5,71.4z M157.9,69.9
			c-0.6,1.8-0.4,3.8-0.1,5.7c0.5,0.1,0.9,0.2,1.4,0.2c0.1-1.3,0.1-2.6,0-3.9C159.2,71,158.4,70.4,157.9,69.9z M137.3,76.3
			c0.9,0,1.8,0,2.8,0c0-1.3,0.1-2.7,0-4C138.8,73.4,138.1,74.9,137.3,76.3z M159.6,72.4c-0.1,1.3-0.1,2.7-0.1,4c0.9,0,1.8,0,2.8,0
			C161.6,74.9,160.7,73.5,159.6,72.4z"/>
	</g>
	<path d="M130.4,55.7c0.7,0.4,1.3,0.9,1.8,1.5c-0.6,0.1-1.2,0.2-1.8,0.2C130.4,56.8,130.4,56.3,130.4,55.7z"/>
	<g>
		<path d="M136.2,80.1c1.5,0,2.9,0,4.4-0.2s3.1,0.4,4.6,0.1c2-0.4,4,0.3,6.1,0c1.6-0.4,3.3,0.3,4.9,0.1c2.4-0.3,4.8-0.4,7.2,0.1
			c-1.9,2.4-4.2,4.5-6.3,6.8s-4.3,4.3-6.3,6.7c-0.3,0.3-0.8,0.9-1.2,0.4c-3-2.9-5.8-6.1-8.8-9.1C139.1,83.5,137.7,81.8,136.2,80.1z
			 M137,80.4c0.3,0.4,0.7,0.9,1.1,1.2c0.8,0.2,1.6-0.3,2.3-0.7C139.4,80.3,138.2,80.4,137,80.4z M142.1,81.1
			c0.6,0.2,1.2,0.5,1.9,0.5c0.8,0,1.5-0.5,2.2-0.9C144.9,80.2,143.2,80.1,142.1,81.1z M148,80.8c0.7,0.3,1.3,0.9,2.1,0.7
			c0.6-0.2,1.1-0.5,1.6-0.8C150.5,80.1,149.1,80.3,148,80.8z M153.7,80.5c0.5,0.5,1,1.1,1.7,1.1c0.7,0.1,1.4-0.2,2.1-0.5
			C156.5,80.1,155,80.4,153.7,80.5z M159.2,80.9c0.7,0.4,1.4,1,2.2,0.7c0.4-0.3,0.6-0.7,1-1.1C161.3,80.3,160.2,80.3,159.2,80.9z
			 M144.8,82c1.2,1.1,3.1,0.9,4.1-0.3c-0.6-0.3-1.2-0.5-1.9-0.7C146.1,81.2,145.4,81.6,144.8,82z M150.8,81.8c0.7,0.5,1.5,1.2,2.4,1
			c0.6,0,1.1-0.4,1.6-0.7c-0.7-0.4-1.3-0.8-2.1-1C152,81,151.4,81.5,150.8,81.8z M139.3,82.3c1.2,0.6,2.6,0.7,3.7-0.3
			c-0.6-0.3-1.3-0.8-2.1-0.7C140.2,81.2,139.7,81.9,139.3,82.3z M156.6,82.3c0.7,0.3,1.5,0.6,2.3,0.5c0.5-0.1,1-0.4,1.4-0.7
			c-0.5-0.3-1-0.7-1.6-0.8C157.9,81.2,157.2,81.8,156.6,82.3z M143.8,82.4c-0.7,0-1.2,0.5-1.8,0.8c1,1.1,2.7,0.9,3.7,0
			C145.1,82.9,144.5,82.4,143.8,82.4z M147.5,83.2c0.8,0.4,1.6,1.1,2.6,1c0.8-0.2,1.4-0.6,2-1c-0.7-0.4-1.5-0.8-2.3-1
			C149,82.4,148.2,82.8,147.5,83.2z M153.9,83.2c1.1,0.9,2.7,1.1,3.7,0c-0.5-0.2-0.9-0.5-1.4-0.7C155.3,82.2,154.6,82.8,153.9,83.2z
			 M140.5,83.6c0.2,0.4,0.3,1,0.8,1.2c0.6,0.5,1.1-0.3,1.6-0.5C142.2,83.9,141.4,83.5,140.5,83.6z M144.8,84.3
			c0.7,0.5,1.5,1.1,2.4,1c0.6-0.1,1.2-0.5,1.8-0.8c-0.7-0.4-1.4-1-2.3-1C145.9,83.5,145.3,84,144.8,84.3z M150.7,84.6
			c0.6,0.3,1.1,0.7,1.8,0.8c0.9,0.1,1.6-0.6,2.3-1.1c-0.5-0.3-0.9-0.7-1.5-0.7C152.3,83.5,151.5,84.1,150.7,84.6z M156.6,84.6
			c0.5,0.2,1,0.3,1.6,0.5c0.6-0.3,0.9-0.9,1.2-1.4C158.4,83.5,157.3,83.8,156.6,84.6z M142.1,85.5c0.7,0.4,1.5,0.9,2.3,1
			c0.7-0.1,1.3-0.4,1.9-0.7c-0.8-0.4-1.6-1-2.5-1C143.1,84.7,142.6,85.2,142.1,85.5z M147.8,85.8c0.6,0.3,1.3,0.7,2,0.8
			c0.8-0.1,1.4-0.5,2.1-0.8c-0.7-0.4-1.5-0.8-2.4-0.7C148.9,85,148.4,85.5,147.8,85.8z M153.4,85.8c0.6,0.3,1.1,0.6,1.7,0.8
			c0.9,0,1.6-0.6,2.3-1c-0.5-0.3-0.9-0.8-1.6-0.8C155,84.7,154.2,85.3,153.4,85.8z M145.3,86.9c0.6,0.3,1.2,0.7,1.9,0.8
			c0.6-0.1,1.2-0.5,1.8-0.8c-0.6-0.3-1.2-0.8-2-0.8C146.3,86.1,145.8,86.6,145.3,86.9z M150.7,86.9c0.6,0.3,1.1,0.7,1.8,0.8
			c0.7-0.1,1.3-0.5,1.9-0.8c-0.6-0.3-1.2-0.9-1.9-0.8C151.8,86.3,151.2,86.6,150.7,86.9z M143.7,87.1c0.3,0.5,0.6,1.1,1.1,1.4
			s1-0.3,1.5-0.4C145.5,87.5,144.6,87.2,143.7,87.1z M148,87.9c0.5,0.3,0.9,0.7,1.5,0.9c0.8,0,1.4-0.4,2.1-0.7
			c-0.6-0.3-1.1-0.8-1.8-0.8C149.2,87.3,148.6,87.6,148,87.9z M153.4,88.1c0.5,0.2,1.1,0.6,1.7,0.4c0.3-0.3,0.6-0.6,0.8-0.9
			c-0.2-0.1-0.5-0.4-0.7-0.5C154.6,87.4,154,87.7,153.4,88.1z M145.3,89.2c0.6,0.3,1.2,0.5,1.9,0.7c0.6-0.2,1.1-0.4,1.7-0.7
			c-0.5-0.3-1-0.8-1.6-0.8C146.5,88.4,145.9,88.9,145.3,89.2z M150.8,89.2c1.1,0.6,2.6,0.7,3.5-0.3
			C153.2,88.3,151.7,88.1,150.8,89.2z M148,90.4c1.1,0.6,2.6,0.8,3.6-0.2c-0.6-0.3-1.1-0.6-1.8-0.7C149.1,89.6,148.6,90,148,90.4z
			 M146.9,90.7c0.3,0.4,0.6,0.7,1,1c0.4,0,0.8-0.3,1.2-0.4C148.4,91,147.6,90.8,146.9,90.7z M150.7,91.2c0.3,0.3,0.6,0.6,0.9,0.9
			c0.4-0.5,0.8-0.9,1.1-1.4C152.1,90.8,151.4,90.9,150.7,91.2z M148.4,92.4c0.5,0.4,0.9,0.9,1.5,1.1c0.8,0,1.1-0.9,1.6-1.4
			C150.4,91.6,149.2,91.5,148.4,92.4z"/>
	</g>
	<path d="M119.7,97.9c0.2,0.1,0.6,0.2,0.8,0.3c0,2.7-0.3,5.4-0.6,8.1C120,103.5,119.5,100.7,119.7,97.9z"/>
	<path d="M149.4,100.6c0.3,0,0.6,0,0.9,0c0.1,1.1,0,2.1-0.5,3.1C149.3,102.8,149.3,101.7,149.4,100.6z"/>
	<path d="M143.9,101.6c0.3,0.7,0.7,1.5,0.6,2.3c0,0.6-0.2,1.2-0.2,1.8c-0.1,1.3,0.4,2.6,0.1,3.9
		C143.8,106.9,143.9,104.3,143.9,101.6z"/>
	<path d="M152.9,103c0.5-0.2,1-0.3,1.5-0.4c0,0.6,0,1.1-0.2,1.7c-0.3,0.6-0.8,1.1-1.3,1.6C152.5,104.9,152.2,103.8,152.9,103z"/>
	<path d="M145,103c0.2,0,0.5-0.1,0.7-0.2c0,0.8,0,1.6-0.1,2.4C145.2,104.5,145,103.8,145,103z"/>
	<path d="M150.9,103c0.4-0.6,1,0.2,0.8,0.7c-0.3,1.5-0.2,3.1-0.4,4.7C151.1,106.5,150.7,104.8,150.9,103z"/>
	<path d="M162.1,105c0.7,0,1.4-0.1,2.1,0.2c0.3,0.4,0.2,0.8,0,1.1c-0.7,0-1.4,0-2.1,0C162.1,105.9,162.1,105.4,162.1,105z"/>
	<path d="M123.1,110.8c0.2,1.7,0.1,3.3,0,5C123,114.2,123,112.5,123.1,110.8z"/>
	<path d="M134.6,114c0.3,2.5,2.2,4.6,1.7,7.2c-0.8-1.1-1.1-2.4-1.8-3.5C134.2,116.5,134.5,115.2,134.6,114z"/>
	<path d="M132.8,114.5c0.5,1.4,0.5,3,1.2,4.4c0.5,0.9,0.4,2,0.5,2.9c-0.1-0.2-0.2-0.5-0.4-0.7c-0.8,0-1.7,0-2.5,0
		c-0.3-1.9-0.2-3.9-0.1-5.8c0.8,1.2,0.3,2.6,0.4,4C132.4,117.7,132.6,116.1,132.8,114.5z"/>
	<path d="M155.2,114.8c0.5-0.1,1.7-0.3,2.3,0.1c0.2,0.4,0.2,0.9,0,1.1c-0.8,0-1.5,0-2.3,0C155.1,115.6,155.2,115.2,155.2,114.8z"/>
	<path d="M145.4,115.4c0.8,0.5,0.8,1.5,0.9,2.3c-0.3,0-0.7,0-1-0.1C145.3,116.9,145.3,116.1,145.4,115.4z"/>
	<path d="M130.2,121.7c-0.3-1.4,0.1-2.7,0.6-3.9C130.9,119.1,131.2,120.6,130.2,121.7z"/>
	<path d="M131.4,121.5c0.3,1.4,0.8,2.2,0.8,3.7c0,0.6,0.1,1.4,0.1,2.1c0,0.7-0.1,2.1-0.4,2.2C131.7,127.4,131.5,123.6,131.4,121.5z"
		/>
	<path d="M133,122.6c0.4,0.2,0.8-0.2,1.2,0c-0.2,0.6-0.3,2.7-0.5,3.3c-0.2,1.6-0.2,2.9-0.2,3.8c-0.3-1.3-0.3-2.9-0.4-3.7
		C133.1,124.1,133.3,123.5,133,122.6z"/>
	<path d="M158.1,128.5c-0.2-0.6,0.2-1.1,0.4-1.5c0.6,0.9,0.4,2,0.4,3c0,1.2-0.1,2.4-0.3,3.5C158.7,131.8,158.5,130.1,158.1,128.5z"
		/>
</g>
</svg>
