<?xml version="1.0" encoding="utf-8"?>
<!-- Generator: Adobe Illustrator 26.0.3, SVG Export Plug-In . SVG Version: 6.00 Build 0)  -->
<svg version="1.1" id="Слой_15" xmlns="http://www.w3.org/2000/svg" xmlns:xlink="http://www.w3.org/1999/xlink" x="0px"
	 y="0px" viewBox="0 0 239.5 150.2" style="enable-background:new 0 0 239.5 150.2;" xml:space="preserve">
<style type="text/css">
	.st0{fill:#010101;}
</style>
<g>
	<path class="st0" d="M197.9,64c-2.4-0.4-4.5-2-5.5-4.2c-0.8-1.6-1-3.5-1.4-5.3c-0.4-2.2-0.6-4.4-0.8-6.6c-0.1-4.5-0.5-8.9-0.5-13.4
		c-0.1-3.5-0.4-7.1,0.6-10.5c0.5-2.2,1.6-4.3,2.4-6.5c0.5-1.3,0.3-2.9-0.4-4.1c-1.2-2.1-2.9-4-4.7-5.7c-1.1-1-2.4-2-3.9-2.2H183
		c-1.2,0.1-2.5,0.7-3.2,1.8c-0.9,1.4-1.5,3.1-1.4,4.9c0.1,5.2,0,10.4,0.1,15.6c0,10,0,20.1,0,30.1c0,13.4,0,26.8,0,40.2
		c0,10,0,20.1,0.5,30.1c0.1,4.4,0.5,8.8,1.8,13c0.3,0.8,0.5,1.7,1,2.4c1.6-1.8,3.4-3.4,4.8-5.3c3-3.7,5.3-7.9,6.8-12.5
		c2.4-6.7,3.2-13.9,3.8-21c0.3-3.4,0.4-6.9,0.7-10.3c0.1-4.9,0.3-9.8,0.4-14.7c0.1-5,0.4-10,0.5-14.9C198.9,64.5,198.5,64,197.9,64z
		 M188.9,23.6c0.5-2.1,1.6-4,2.3-6c0.4-1.1,0.4-2.2,0.3-3.3c0.5,0.4,0.5,1.2,0.5,1.8c-0.2,1.3-0.7,2.6-1.2,3.8
		c-1.6,3.4-2.2,7.2-2.1,10.9c0.1,6.1,0.3,12.3,0.7,18.4c0,3.2,1,6.3,1.5,9.4c0.1,0.7-0.7,0.2-0.8-0.2c-0.8-2.4-1.1-4.8-1.3-7.3
		c-0.2-4.8-0.4-9.7-0.5-14.5C188.2,32.3,187.7,27.8,188.9,23.6z M183.8,14.2c0.8-0.5,1.9,0.3,1.9,1.2c0,0.9-1.1,1.7-1.9,1.1
		C182.8,16.1,182.8,14.6,183.8,14.2z M183.8,32.7c0.9-0.5,2.1,0.6,1.7,1.6c-0.2,0.9-1.5,1.2-2.2,0.5C182.7,34.2,183,33,183.8,32.7z
		 M185.6,52.2c-0.2,0.9-1.5,1.3-2.1,0.7c-0.7-0.6-0.5-1.8,0.3-2.2C184.7,50.2,185.9,51.2,185.6,52.2z M179.9,60c3.5,0,7-0.1,10.5,0
		c0.4,0,0.8,0.1,1.2,0.2c-0.4,0.4-0.9,0.4-1.4,0.4c-3.4,0-6.9,0.1-10.3,0.1C179.3,60.8,179.3,59.8,179.9,60z M189.3,131.2
		c-2.4,1.6-5.3,2-8.1,2.6c-0.6,0.2-1.3-0.8-0.6-1c1.6,0,3.3,0,4.9-0.6c2.2-0.7,4.1-2.1,5.8-3.5C191.2,129.9,190.3,130.7,189.3,131.2
		z M194.6,118.3c-0.4,2.5-1.3,4.8-1.9,7.3c-0.4,1.5-1.7,2.3-2.8,3.1c-1.1,0.8-2.3,2-3.8,1.9c-1.9-0.1-3.7-0.5-5.5-1
		c-0.6-0.1-0.8-0.8-0.8-1.3c-0.1-1.6-0.2-3.3-0.2-4.9c0-0.4,0.3-0.6,0.6-0.6c1.8-0.6,3.6-1,5.3-1.6c0.5-0.1,0.7-0.5,1-0.9
		c-0.6-0.1-0.9,0.5-1.4,0.6c-0.8,0.2-1.6,0-2.4-0.1c-1-0.2-2.1-0.2-3-0.6c0-0.4,0-0.9,0-1.3c3.8-0.3,7.6-0.1,11.3-0.6
		c0-0.6-0.8-0.6-1.2-0.8c-1-0.3-2.2-0.3-3.1-1c-0.5-0.3-1-0.6-1.5-0.8c0-0.2,0.1-0.5,0.1-0.7c-0.3,0.2-0.5,0.5-0.8,0.5
		c-0.7-0.3-1.4-0.6-2.1-0.5c-0.7,0-1.3,0.5-2,0.7c-0.8,0.1-0.9-0.8-0.9-1.4c0.1-1,0.1-2,0.1-3c0-0.5,0.4-0.8,0.8-1
		c1.8-1.1,3.6-2.1,5.5-3.1c0.6-0.3,1.3-0.2,1.8,0.3c1.2,1.4,2,3.3,3.8,4.2c1.3,0.7,2.8,0.6,4.3,0.4
		C195.3,114.2,194.9,116.3,194.6,118.3z M179.7,117.3c2.3-0.5,4.8-0.2,7,0.6c-0.1,0.1-0.3,0.2-0.4,0.2c-2.2-0.1-4.4-0.2-6.6-0.3
		C179.7,117.6,179.7,117.4,179.7,117.3z M197.4,76c-0.2,8.1-0.2,16.3-0.7,24.4c-0.3,2.6-0.4,5.1-0.7,7.7c-0.1,0.3,0,0.8-0.4,0.9
		c-1.6,0.7-3.6,0.6-5.1-0.4c-1.1-0.8-2-1.8-2.9-2.8c-0.8-0.9-1.2-2.1-2.3-2.8c0,0.6,0.5,1,0.6,1.5c0.2,0.9-0.1,2.1-1.2,2.3
		c-0.6,0.3-0.6-0.9-1.3-0.7c-0.8,0.3-1.3,1.1-1.9,1.6c-0.5,0.6-1.3,0.8-2,1c-0.1-0.3-0.3-0.7,0-1c0.3-0.5,1-0.6,1.2-1.2
		c-0.4,0.1-0.8,0.2-1.2,0.3c-0.1-0.2-0.1-0.5-0.1-0.8c0-6.6,0-13.1,0-19.7c0.1-1.5-0.1-3.1,0.1-4.6c0.5-0.2,1.1-0.3,1.6-0.3
		c1.6-0.1,3.2-0.2,4.8-0.3c0-0.1,0-0.2,0-0.4c-2.2-0.2-4.4-0.1-6.5-0.5c0-0.7,0-1.5,0-2.2c0-0.3,0.2-0.7,0.5-0.8
		c1.4-0.2,2.9-0.2,4.4-0.3c-0.2-0.2-0.5-0.3-0.8-0.3c-1.3-0.2-2.7-0.3-4-0.4c-0.2-0.7-0.1-1.5-0.1-2.2c0-2.2,0-4.4,0-6.6
		c-0.1-0.6,0.4-1,1-1.1c1-0.1,2-0.6,2.9-0.2c1.5,0.6,3.1,1.1,4.6,1.6c0.6,0.2,0.8,0.9,1.4,1.1c1.1,0.4,2.1,1.1,3,1.7
		c0.4,0.3,1,0.3,1.5,0.3c0.4,0.4,0.9,0.7,1.3,1.1c0.5,0.6,0.8,1.3,1.3,1.8c0.3,0.4,0.7,0.7,1,1.2C197.4,75.2,197.4,75.6,197.4,76z"
		/>
	<path class="st0" d="M141.4,62c0.7-0.4,0.7-1.3,0.7-1.9c0-0.6-0.2-1.4-0.9-1.6c-1.1-0.3-2.3-0.1-3.4-0.2c-0.4-0.2-0.2-0.7-0.3-1.1
		c0.1-12.3,0.2-24.5,0.3-36.8c0-1.5,0.1-3.1-0.3-4.6c-0.6-2.2-2.4-3.7-4-5.1c-3-2.1-6.3-4.1-10-4.5c-1.2-0.1-2.6,0.1-3.4,1.2
		c-0.9,1.3-1.1,3-0.8,4.5c0.4,1.6,1.5,2.8,2.2,4.2c1.2,2.1,2.6,4.5,2.4,7c0,1.4-0.9,2.7-1,4.1c-0.2,1.3,0,2.6,0.4,3.7
		c0.3,0.8,0.6,1.6,0.6,2.5c0,1.6-1.1,2.9-1.1,4.5c-0.1,1.9,1.3,3.5,1.2,5.3c0,1.2-0.7,2.2-1.2,3.2c-0.6,1.4-1,2.9-0.8,4.5
		c0.3,2.4,1.2,4.7,1.1,7.2c-2.5,0.4-5.1,0-7.7,0.2c-0.9,0.1-1.4,1-1.4,1.8v0.2c0.1,0.6,0.4,1.3,1,1.5c1.6,0.3,3.2-0.1,4.7,0.1
		c0.4,0,0.6,0.4,0.7,0.7c0.5,1.4,0.9,2.9,0.8,4.4c-0.1,4.8,0,9.7-0.1,14.5c0,8.8-0.4,17.5,0.1,26.3c0.1,3.1,0.6,6.1,1,9.2
		c0.4,2.5,1.1,5,1.8,7.4c1.1,3.6,3,6.9,4.9,10.2c2.5,4.1,6.3,7.2,10.7,9c0.7,0.2,1.4,0.7,2.1,0.4c0.2-0.3,0.2-0.6,0-0.9
		c-0.3-0.8-0.8-1.5-1.1-2.3c-0.7-1.7-1.2-3.6-1.7-5.4c-0.9-4.2-1.5-8.5-1.3-12.8c0.1-2.9,0.6-5.7,1.2-8.5c0.3-1.3,0.6-2.6,0.6-3.9
		c0-15.7-0.1-31.4-0.1-47c0-0.4,0-0.8,0.1-1.2C140.2,62.1,140.8,62.1,141.4,62z M138.6,68c-0.5-0.1-0.9-0.5-1.3-0.8
		c-0.7-0.5-1.6-0.6-2.2-1.2c-1-0.9-1.8-2.1-3.1-2.7c-1.6-0.8-3.7-0.4-5,0.9c-1.4,1.4-2.7,2.9-4,4.3c-0.1,0.2-0.3,0.3-0.5,0.4
		c0.4-1,1.2-1.7,1.9-2.5c0.7-0.8,1.4-1.7,2.2-2.4c1-0.8,2.3-1.4,3.6-1.5c1.4,0,2.7,0.7,3.6,1.6c0.8,0.8,1.4,1.9,2.5,2.2
		C137.1,66.9,138.2,67.1,138.6,68z M136.3,20.1c0.4-0.1,0.5,0.3,0.6,0.6c-0.3,0.1-0.5,0.2-0.8,0.2c-3.6,0-7.1,0-10.7,0
		c-0.4,0.1-0.6-0.3-0.8-0.5c0.1-0.1,0.2-0.2,0.3-0.3C128.7,20,132.5,20.1,136.3,20.1z M135.7,54.6c0-10.9,0-21.8,0-32.7
		c0.4,0,0.7,0,1.1,0c0,5.4-0.1,10.8-0.1,16.2c-0.1,6.6-0.1,13.1-0.1,19.7c0.1,0.5-0.4,0.5-0.8,0.5C135.6,57.1,135.7,55.8,135.7,54.6
		z M123.2,11.6c0.1-1.4,0.3-2.9,1-4.2c0.8,0,1.6,0.1,2.3,0.5c1.6,0.8,3.1,1.6,4.7,2.4c0.8,0.4,1.4,1,1.8,1.7c0.8,1.4,1.6,3,1.8,4.7
		c0.1,0.8,0.2,1.6,0.2,2.4c-0.2,0.3-0.6,0.3-0.9,0.3c-3.1,0-6.1,0-9.2,0c-0.3,0-0.7,0.1-0.8-0.4C123.4,16.7,123.3,14.1,123.2,11.6z
		 M121.5,59.4c1.6-0.1,3.1-0.1,4.7-0.1c3.4,0,6.8-0.1,10.2,0.2c0.3,0,0.6,0.1,0.8,0.3c-3.4,0.1-6.9,0-10.4,0c-2-0.1-4,0.1-6-0.1
		C121.1,59.5,121.3,59.4,121.5,59.4z M120.6,60.9c0.5-0.2,1-0.1,1.5-0.2c2.9-0.1,5.9-0.2,8.8-0.1c2.1,0.1,4.3-0.1,6.4,0.1
		c-0.1,0.5-0.7,0.3-1.1,0.4c-3.9,0-7.8,0.1-11.7,0C123.2,61,121.9,61,120.6,60.9z M138.6,141.4c0.5,0.6,1.3,0.9,1.6,1.6
		c-3.4-1.5-6.5-3.7-8.8-6.6c-2.4-3-4.1-6.5-5.6-10c-0.7-1.6-1.2-3.4-1.6-5.1c-0.1-0.3,0-0.6,0.2-0.8c0.7,0.5,0.8,1.3,1.2,2
		c1.4,3.3,2.6,6.8,4.6,9.7C132.6,135.6,135.8,138.4,138.6,141.4z M138.3,113.6c-0.7,1.8-0.9,3.7-1.1,5.6c-0.2,1.4-0.2,3-0.7,4.3
		c-0.5,1.2-1.1,2.4-1.9,3.5c-0.5,0.7-1.5,1-2.3,0.7c-1.6-0.5-2.7-1.9-3-3.5c-0.8-4.2-0.7-8.7-2.5-12.7c-0.9-2.1-2.3-3.9-3.6-5.8
		c-0.7-1-1.2-2.3-1.1-3.5c0.2-2,0.1-4.1,1-5.9c1-2.1,2.3-4,3.1-6.1c-0.7,0.5-1.1,1.4-1.7,2c-0.7,0.6-1.4,1.3-2.2,1.7
		c-0.1-0.9-0.3-2.1,0.5-2.8c2.3-2.2,4.1-5,4.6-8.2c0.4-1.7,0.3-3.8-0.9-5.1c-0.7-0.7-2-0.5-2.4,0.4c-0.6,1-1,2.2-1.5,3.3
		c-0.4-0.5-0.2-1.1-0.3-1.7c-0.2-1.3,0.7-2.3,1-3.4c0.2-0.7,0.4-1.6,1.2-2c1-0.6,2.3,0.1,2.8,1c0.2,0.2,0.3,0.7,0.7,0.6
		c-0.1-1.3-1.1-2.5-2.5-2.6c-0.7-0.1-1.3,0.3-1.9,0.3c-0.8-0.6-1.4-1.7-1.1-2.7c0.2-1.4,1.2-2.5,2.2-3.4c0.9-0.9,1.6-1.9,2.6-2.8
		c1.1-1,2.8-1.5,4.2-0.8c1.6,0.7,2.2,2.5,3.9,3.2c1.1,0.4,2.5,1,2.9,2.2c0.2,1,0.3,2.1,0.2,3.1c-0.4,1.1-1.3,1.9-2,2.7
		c-0.7-0.5-1-1.4-1.7-1.9c-1-0.8-2.6-0.6-3.6,0.1c-0.8,0.6-1.3,1.6-1.3,2.6c0.1,0,0.2,0,0.2,0c0.5-0.9,0.9-1.9,1.9-2.3
		c0.9-0.5,2.1-0.1,2.7,0.7c0.8,1.1,1.1,2.4,1.7,3.6c0.8,1.5,2.2,2.8,2.1,4.6c-0.6-0.1-1-0.6-1.4-1c-1-1.2-1.8-2.6-2.9-3.7
		c-0.4-0.5-1-0.9-1.7-0.8c-1,0.1-1.8,1.1-1.8,2.1c0.1,1,0.3,2.1,0.5,3.1c0.6,2.9,2.2,5.7,4.7,7.4c0.8,0.5,1.7,0.7,2.5,1.2
		c0.2,0.4,0.1,0.9,0.1,1.3c0,0.3-0.2,0.7-0.5,0.5c-2.6-0.7-3.9-3.3-5.3-5.4c-0.1,0.1-0.1,0.2-0.1,0.2c1.7,2.5,3.3,5.1,4.9,7.7
		c0.6,1,1,2.1,1.1,3.2c0,3.3,0.1,6.6,0.1,9.8C138.6,110,138.9,111.9,138.3,113.6z"/>
	<path class="st0" d="M168.8,24.6c-2.8-6.4-7.5-11.7-13.2-15.6c-1.8-1.2-3.8-2.2-5.9-2.8c-0.4-0.1-0.9-0.2-1.2,0.2
		c-0.6,0.6-0.3,1.4-0.4,2.1c0,10.7,0,21.5,0,32.2c0,10.3,0.1,20.5,0,30.8c-0.1,1.6,0.3,3.1,0.2,4.7c-0.1,2.2,0.1,4.4-0.1,6.6
		c-0.1,1,0.1,2,0.1,3c0,17.3,0,34.6,0,52c0,0.9,0,1.7,0.1,2.6c0.1,1.2,0.9,2.2,2,2.6c1.1,0.4,2.2,0.1,3.2-0.4
		c1.2-0.6,2.6-0.7,3.9-0.2c1.9,0.7,3.9,1.5,6,1.6c0.8,0,1.8,0.2,2.4-0.5c1-1.1,1.1-2.7,0.6-4.1c-0.4-1.3-1.6-2.2-2.5-3.2
		c-1.3-1.3-2.9-2.5-3.8-4.1c-0.7-1.2-1.1-2.5-1.2-3.9c-0.2-2.4-0.3-4.7-0.5-7.1c-0.2-3.3,0.1-6.9,1.9-9.7c0.7-0.9,1.2-2,1.4-3.1
		c0.3-1.3,0.1-2.7,0.3-4c0.7-4.4,1.4-8.8,2.3-13.2c1.3-7.6,2.6-15.2,3.9-22.8c1.4-7.8,2.8-15.7,3.1-23.7c0.1-3.1,0.4-6.1,0.1-9.2
		C171.2,31.6,170.3,28,168.8,24.6z M156,10.5c-0.7,0-1.2-0.3-1.9-0.5c-1.2-0.3-2.5-0.6-3.7-0.7c-0.4-0.1-0.9,0-1.2-0.4
		C151.5,8.8,154.1,9,156,10.5z M156.2,120.8c-0.4,0.6-1,1.1-1.6,1.5c-0.7,0-1.4-0.3-2,0.2c-0.7,0.5-0.7,1.5-0.3,2.1
		c0.6,1,0.5,2.2,1,3.2c0.5,1,1.4,1.7,2.4,2c1,0.3,1.1,1.5,1.4,2.4c-3.1,0-6.3-2.4-6.3-5.7c0-3.5,2.4-6.5,5.2-8.3
		C156.3,119.2,156.1,120,156.2,120.8z M156,126.9c0.2,0.8,0.9,1.8,0.2,2.5c-1.7-0.4-2.8-2.1-2.7-3.8c0.4-0.2,0.9-0.4,1.3-0.7
		c0.5-0.6,0.1-1.6,0.6-2.2c0.2-0.3,0.5-0.4,0.7-0.6c0.1,0.5,0.2,1.1,0.3,1.6C156.6,124.8,155.4,125.7,156,126.9z M151.2,134.1
		c0.3,0.3,0.8,0.6,1,1.1c-0.2,0.7-0.2,1.3,0,2C151.5,136.3,151.5,135.1,151.2,134.1z M153.4,139.2l-0.1-0.2c1.2,0.3,2.3,0.8,3.5,1.2
		c1.6,0.5,3.2,1.2,4.3,2.4C158.5,141.6,155.8,140.7,153.4,139.2z M163.5,138.1c1.1,1,1.7,2.6,1.1,4c-0.4,0.7-1.6,1.3-2.2,0.5
		c-1.7-2-4.4-2.7-6.7-3.7c-1-0.5-2.1-0.7-3-1.3c0.5,0,1,0.2,1.5,0c0.6-0.2,0.8-0.8,1.2-1.3c1.5,0.2,2.9,0.5,4.4,0.7
		C161.1,137.3,162.5,137.3,163.5,138.1z M159.2,134.7c0.9,0.7,1.9,1.2,2.8,1.9c-2-0.1-4-0.6-6-0.9c-0.8-0.1-1.1-0.9-1.7-1.1
		c-0.7-0.2-1.5,0-2-0.6c-1.2-1-1.1-2.6-1.1-4c0.9,0.6,1.7,1.5,2.7,2c1.1,0.6,2.4,0.8,3.6,1.2C158.3,133.4,158.5,134.3,159.2,134.7z
		 M159,108.3c-0.5,2.5-1.7,4.9-2.2,7.4c-0.1,1.2-1,2-1.9,2.6c-1.6,1.2-2.7,2.7-3.9,4.2c0.1-1.4,0.1-2.7,0.1-4.1
		c0.1-1.3,1.3-2.1,2.1-2.9c0.9-1,1.9-1.8,2.7-2.8c1.6-1.9,1.6-4.9,0-6.8c0.8-0.2,1.7-0.2,2.5,0C159.1,106.6,159.2,107.5,159,108.3z
		 M152.3,111.6c0.5,0.3,1,0.7,1.6,0.6c1.1,0,1.9-1.5,1.2-2.4c-0.4-0.5-1.3-0.6-1.4-1.3c-0.1-0.8,0.4-1.6,0.9-2.2
		c0.2-0.2,0.5-0.2,0.6,0c0.9,0.5,1.4,1.6,1.4,2.6c0.2,1.7-0.7,3.4-1.9,4.5c-1.2,1.1-2.2,2.3-3.5,3.3c0-0.9,0.1-1.8-0.1-2.6
		C151,113,151.6,112.2,152.3,111.6z M151.5,111.3c0.1-1.1,0.8-2,1.2-3c0.5,0.1,0.1,0.6,0,0.9C152.4,109.9,152.1,110.7,151.5,111.3z
		 M165.2,80.6c-0.3-0.2-0.7-0.3-0.9-0.6c-0.1-0.8,0.4-1.5,0.9-2c0.4-0.1,0.4,0.4,0.4,0.6C165.6,79.2,165.4,79.9,165.2,80.6z
		 M170.2,48.4c-0.8,9.3-2.6,18.6-4.1,27.8c-0.1,0.3-0.2,0.6-0.3,0.9c-1.1-1.4-2.5-2.5-3.8-3.8c-1.3-1.1-2.4-2.5-3.9-3.4
		c-0.3-0.2-0.8,0.2-0.5,0.5c1.3,2.3,2.8,4.6,4.2,6.9c0.7,1,1,2.2,1.7,3.2c0.3,0.5,0.9,0.6,1.5,0.9c0.1,0.4,0,0.8-0.1,1.2
		c-0.7,3.6-1.3,7.1-2,10.7c-0.2,1.1-0.8,2.1-1.3,3.2c-1.4,2.7-3,5.3-4.9,7.7c-0.3,0.4-0.7,0.8-1.2,0.8c-1.8,0-3.6,0-5.4,0
		c-0.3,0-0.6-0.1-0.9-0.1c0-1.5-0.1-3,0-4.4c0.7,0.5,1.3,1.2,2.2,1.1c1.5-0.2,2.2-2.2,1.4-3.4c-0.5-0.7-1.4-1.3-2.2-1.1
		c-0.5,0.2-0.9,0.7-1.4,1c-0.1-1.2,0-2.4,0-3.6c0-6.8-0.1-13.7,0-20.5c0.1-0.9,1.1-1.1,1.7-1.6c1.3-0.9,2.9-1.6,3.6-3
		c0.6-1,0.6-2.3,0.1-3.3c-1-2.4-2.2-4.7-3.3-7c-0.2-0.2-0.2-0.7-0.5-0.6c-0.2,0.3,0.1,0.8,0.1,1.1c0.6,2.2,1.3,4.4,2,6.6
		c0.3,1,0.7,2,0.2,3c-0.3,0.8-1.1,1.2-1.7,1.7c-0.7,0.5-1.4,1.2-2.2,1.6c0-0.3-0.1-0.6-0.1-0.9c0-7.6,0-15.2,0-22.9
		c0-0.6,0.5-1.1,1-1.4c2.5-1.6,5.1-3.2,7.6-4.7c0.8-0.5,1.6-1,2.2-1.8c-0.9-0.4-1.9,0-2.9,0.1c-2.2,0.5-4.4,0.9-6.6,1.4
		c-0.4,0.1-0.8,0.1-1.3,0.1c0-1.8,0-3.5,0-5.3c0.4,0.5,0.7,1.1,1.4,1.3c0.8,0.3,1.8-0.3,2-1.1c0.5-1.3-0.4-3-1.8-3.1
		c-0.8,0-1.1,0.7-1.6,1.1c-0.1-6.4,0.1-12.8,0-19.2c-0.2-1.9,1.4-3.7,3.3-4c2.4-0.4,5-0.2,7,1.3c1.1,0.9,2.1,2,3,3.1
		c0.7,0.9,1.4,1.7,1.7,2.8c0.3,1.1,0.9,2.2,1.2,3.3c0.8,3.1,2,6.1,2.6,9.3c0.1,1,0.7,1.8,0.8,2.7c0.3,2.1,0.5,4.2,0.9,6.2
		C169.6,43.4,170.4,45.9,170.2,48.4z M150.4,100.4c0.6-0.3,1.2-0.6,1.9-0.8c0.3,0.5-0.4,1.1-0.9,1.2
		C151,101,150.8,100.5,150.4,100.4z M155.6,42c0.7-0.3,1.4-0.4,2.1-0.6c-0.5,0.6-1.3,0.8-1.9,1.2C155.3,42.7,155.2,42.1,155.6,42z
		 M151.5,37.7c0.1-0.6,0.1-1.4,0.5-1.9C152.4,36.4,152,37.3,151.5,37.7z"/>
	<path class="st0" d="M160.7,19.3c0.1-0.3,0.3-0.7,0.1-1.1c-0.4-1.4-1.8-2.1-3.2-2.1c-0.6,0.3-0.7,1.1-0.3,1.7
		C158,18.9,159.3,20.1,160.7,19.3z M158.3,16.8c0.8,0.3,1.8,0.8,1.8,1.8C159.5,18,158.6,17.6,158.3,16.8z"/>
	<path class="st0" d="M154.8,21.1c0,0.4,0,0.7,0,1.1c0.1,0,0.4,0.1,0.6,0.1c0.4-0.3,0.1-0.8,0-1.2C155.2,21.1,155,21.1,154.8,21.1z"
		/>
	<path class="st0" d="M153.7,23.2c0.2,0.2,0.3,0.3,0.5,0.5C154.9,23.4,154,22.4,153.7,23.2z"/>
	<path class="st0" d="M162.2,27.2c0.5-1.7-1.3-3.8-3.1-3.1c-0.4,0.9,0.1,1.9,0.7,2.6C160.4,27.4,161.5,27.9,162.2,27.2z M161.7,26.6
		c-0.8-0.4-1.1-1.3-1.5-1.9C161.1,24.9,161.7,25.7,161.7,26.6z"/>
	<path class="st0" d="M149.4,30.1c0.2,0.4,0.8,0.1,0.7-0.3c-0.2-0.1-0.4-0.2-0.7-0.3C149.5,29.7,149.4,29.9,149.4,30.1z"/>
	<path class="st0" d="M161.3,36.2c0.8,0.4,1.7-0.2,1.9-1.1c0.1-1.3-0.5-2.6-1.7-3.2c-0.3-0.2-0.7-0.2-1,0
		C159,33,159.6,35.6,161.3,36.2z M162.1,35.6c-0.4-0.8-0.3-1.7-0.5-2.6C162.5,33.5,162.8,34.8,162.1,35.6z"/>
	<path class="st0" d="M165,41.8c-0.2-0.2-0.4-0.4-0.6-0.6c-0.3,0.1-0.5,0.3-0.6,0.6c0.1,0.1,0.4,0.3,0.5,0.5
		C164.6,42.1,164.8,42,165,41.8z"/>
	<path class="st0" d="M160.2,46c-1.8,0.1-3.6,0.6-5.1,1.5c-1.1,0.7-1.9,1.9-2.5,3.1c-0.1,0-0.2,0-0.2,0c-0.2-0.5-0.2-1-0.3-1.5
		c0-0.3-0.1-0.4-0.4-0.3c-0.2,1-0.1,2.1,0.2,3.1c0.7,2.3,1.8,4.5,3.4,6.3c1.3,1.6,3.1,2.6,5.1,2.8c2,0.3,4.3-0.2,5.7-1.8
		c1.5-1.7,2.2-3.9,2.4-6.1c0.1-1.6-0.3-3.4-1.4-4.6C165.5,46.7,162.8,45.9,160.2,46z M167.5,55.2c-0.4,1.3-1.1,2.5-1.9,3.6
		c-0.3,0.3-0.6,0.8-1.1,0.7c0.6-1.3,1.4-2.5,1.6-4c0.3-2.4,0-5.1-1.6-7c-0.5-0.6-1.2-0.9-1.5-1.6c1.6,0.3,3.1,1.3,4.1,2.6
		C168.1,51.3,168,53.4,167.5,55.2z"/>
	<path class="st0" d="M209.1,53.7c-0.1-0.6-0.3-1.3-1-1.5C208.3,52.7,208.5,53.5,209.1,53.7z"/>
	<path class="st0" d="M210.4,54.8c-0.1-0.8-0.3-2-1.2-2.3c0.2,0.7,0.5,1.5,0.8,2.2C210,54.8,210.5,55.2,210.4,54.8z"/>
	<path class="st0" d="M213.1,52.9c0,0.1,0,0.3,0,0.4c0.5,0.8,1.1,1.5,1.7,2.2C214.8,54.4,214,53.5,213.1,52.9z"/>
	<path class="st0" d="M216,55c0-0.8-0.6-1.4-0.9-2c-0.1,0-0.3,0-0.3,0C215.1,53.7,215.3,54.6,216,55z"/>
	<path class="st0" d="M214.1,55.6c-0.3-0.7-0.7-1.3-1.1-1.9l-0.2,0.3c0.2,0.6,0.5,1.1,0.9,1.5C213.8,55.5,214,55.6,214.1,55.6z"/>
	<path class="st0" d="M231.6,85.8c-1.8-0.5-3.8,1.1-3.7,2.9c0,0.6,0.3,1.3-0.2,1.8c-0.8,0.9-1.8,1.5-3,1.7c-0.1-5.2,0-10.3,0-15.5
		c0-16.8,0-33.5,0-50.3c0-1.2-0.4-2.4-1.1-3.3c-1.1-1.4-1.9-3-2.5-4.7c-0.9-2.7-1.8-5.6-1.8-8.5c0-0.8,0.2-1.6,0.3-2.5
		c-0.2-0.3-0.5-0.4-0.8-0.2c-1.3,1.2-2.1,2.7-3,4.1c-4.6,7.7-7.2,16.6-8.1,25.5c-0.7,7-0.7,14.1-0.9,21.2c0,6.7-0.2,13.4-0.3,20
		c0,0.8-0.1,1.5,0,2.3c0.8,0.5,1.7,0.7,2.5,1.3c2.5,1.8,3.8,4.9,3.8,8c0,0.4,0.1,1-0.2,1.3c-2.4,0.2-5,0.4-7.2,1.7
		c-1.3,0.8-2.4,1.9-3.2,3.2c-1,1.6-0.9,3.7,0.1,5.3c1,1.6,3.6,2.2,5,0.8c0.7-0.8,1.4-1.9,1-3c-0.3-0.8,0.4-1.4,0.9-1.8
		c0.9-0.7,2-1.1,3.1-1.1c0.6,1,0.7,2.2,0.5,3.4c-0.3,1.8-1.5,3.3-1.9,5.1c-0.3,1.6-0.3,3.2,0.1,4.8c0.4,1.4,1.1,2.7,1,4.2
		c-0.1,1.9-1.1,3.7-1.4,5.5c-0.3,1.7-0.6,3.4-0.4,5.2c0.2,1.5,1,2.8,1.1,4.2c0.2,2.9-0.6,5.7-2,8.2c-0.3,0.7-0.8,1.3-0.9,2.1
		c0,0.8,0.7,1.3,1.3,1.8c2.6,2.3,6.1,3.6,9.7,3.7h1.3c1.2-0.1,3.2-0.3,3.1-1.9c0.1-6.8,0.1-13.7,0.1-20.5c0.1-8.1,0.1-16.2,0.1-24.4
		c-0.1-0.6,0.6-0.5,1-0.5c2.9,0,5.8-1.1,7.8-3.2c1-1.1,1.6-2.5,1.6-4v-0.3C234.7,87.9,233.4,86.2,231.6,85.8z M226.6,93.4
		c-1.6,0.9-3.5,0.6-5.2,0.3c0.3-0.4,0.7-0.1,1.1-0.1C223.8,93.7,225.2,92.9,226.6,93.4z M223,85.1c0.6,0.2,0.6,0.9,0.8,1.4
		c-0.4,0.1-0.7,0.1-1.1,0c0.2-0.2,0.4-0.5,0.6-0.7C223.2,85.5,223.1,85.3,223,85.1z M223.2,89.5c-0.3-0.5-0.1-1.1,0.4-1.4
		C223.7,88.6,223.8,89.3,223.2,89.5z M223.3,91c-0.7-0.2-0.1-0.9,0.3-0.9C223.7,90.5,223.7,90.8,223.3,91z M223.1,91.8
		c0.2,0.1,0.6,0,0.5,0.3c-0.2,0.3-0.7,0.2-1,0.2c-1.7-0.2-3.5-0.7-5-1.6c-1.1-0.7-2.2-1.5-3.3-2.2c-0.3-0.3-0.9-0.6-0.7-1.2
		c2.2,1.2,4.2,2.5,6.4,3.6C221,91.5,222.1,91.7,223.1,91.8z M223.3,82c-0.3-0.1-0.4-0.3-0.5-0.5c0.1-0.2,0.3-0.4,0.4-0.5
		c0.3,0.1,0.5,0.3,0.8,0.4C223.7,81.6,223.5,81.8,223.3,82z M223.7,76.6c-0.4-0.3-0.8-0.6-1.2-0.7c-0.5,0.1-1,0.2-1.5,0.3
		c0-0.1,0.1-0.3,0.1-0.4c0.8-0.2,1.7-0.3,2.6-0.3C223.8,75.8,223.6,76.2,223.7,76.6z M221.9,76.9c0.8-0.3,1.5,0.6,1.3,1.3
		c-0.6-0.1-1.2-0.3-1.7-0.5C221.5,77.4,221.6,77.1,221.9,76.9z M216.5,17.8c0.1-0.4,0.4-0.5,0.8-0.6c-0.1,0.7-0.3,1.3-0.7,1.9
		C216.2,18.8,216.5,18.2,216.5,17.8z M215.7,17.8c0,0.5,0,1-0.1,1.5C215.1,19,215.2,18.1,215.7,17.8z M214.3,18.5
		c0.1,0.1,0.3,0.2,0.4,0.3c0,0.4,0.1,0.9-0.4,1C214.3,19.3,214.3,18.9,214.3,18.5z M213.3,19.1c0.2,0.3,0.4,0.7,0.5,1.1
		c-0.2,0.1-0.3,0.3-0.6,0.3C213,20,213.1,19.5,213.3,19.1z M211.9,28.9c0.2,1.5,0.8,2.9,1.8,4.1c-0.6,0-0.8-0.6-1.2-0.9
		c-1.3-1.7-1.3-3.9-0.7-5.9C212.1,27,211.8,28,211.9,28.9z M210.8,26.6c0.1-0.3,0-0.7,0.3-0.9c-0.1,1-0.1,2.1-0.5,3.1
		C210.5,28,210.7,27.3,210.8,26.6z M211,32.4c0-0.7-0.1-1.5,0.1-2.2C211.3,30.8,211.6,31.8,211,32.4z M207.7,56.1
		c0.2-5.4,0.4-10.8,0.7-16.3c0-0.4,0.1-0.8,0.4-1.2c0.6-0.9,1.1-1.8,1.7-2.6c0.6-1,1.6-1.9,1.5-3.2c0.6,0.8,0.3,1.7,0.2,2.6
		c0.7-0.2,0.6-1.1,1-1.7c0.3,0.6,0.3,1.2,0.2,1.8c0.1-0.1,0.4-0.2,0.6-0.2c-0.1,0.5,0.2,1,0.6,1.3c-0.1,0.3-0.3,0.7-0.4,1
		c0.3,0.2,0.5,0.4,0.8,0.6c-0.2,0.3-0.4,0.6-0.6,0.9c0.6,0,0.8,0.5,0.9,1c0.1,0,0.2-0.1,0.3-0.1c0-0.5,0.2-1,0.6-1.3
		c-0.3-0.4-0.7-0.7-1-1.1c0.3-0.1,0.5-0.2,0.8-0.4c-0.3-0.2-0.5-0.4-0.8-0.6c1-0.2,1.5,0.8,2.3,1.1c-0.2-1-1.1-1.5-1.9-1.9
		c0-0.1,0.1-0.4,0.1-0.5c-0.5-0.1-1.1-0.2-1.1-0.8c-0.2-0.1-0.4-0.3-0.6-0.4c0.2-0.6,0.4-1.3,0.5-1.9c0.3,0,0.6-0.1,0.9-0.1
		c-0.5-0.9-1.1-1.7-1.3-2.7c-0.3-1.3,0-2.5,0.5-3.7c-0.2-0.1-0.4-0.2-0.6-0.3c0.7-1.4,1.6-2.5,1.6-4.1c-1.1,0.5-2.3,0.9-3.2,1.7
		c-0.2,0.2-0.4,0.3-0.6,0.4c0.4-0.9,1.4-1.4,2.2-1.9c0.8-0.4,1.5-0.9,2.3-1.3c0.3,0.1,0.6,0.1,0.9,0.2c0.3-0.6,0.4-1.3,0.6-1.9
		c0.1,0,0.2-0.1,0.3-0.1c-0.1,0.7-0.2,1.4-0.3,2.2c0.3-0.1,0.6-0.3,0.8-0.5c-0.1,0.9-0.4,1.7-0.4,2.6c0.6,0.2,0.6-0.5,0.8-0.8
		c0.6,0.8-0.5,2,0.2,2.8c0.2-0.3,0.4-0.7,0.6-1c0.4,0.9-0.2,1.9-0.1,2.8c0.6,0.1,0.6-0.6,0.8-1c0.9,0.6,0.3,1.8,0.2,2.7
		c0.6,0.2,0.6-0.6,0.9-1c0.4-0.1,0.3,0.4,0.4,0.6c0.1,0.8-0.4,1.6,0,2.4c0.4-0.3,0.5-0.8,0.6-1.2c1,0.7-0.3,2.2,0.7,2.9
		c0.1-0.3,0.3-0.6,0.4-0.9c0,0.1,0.1,0.3,0.1,0.4c0,8.5,0,17,0,25.5c0,0.4-0.1,0.7-0.2,1.1c-0.6,0.1-1.2,0.2-1.8,0.2
		c0.4,0.8,1.8,0.4,2.1,1.4c-0.5,0.6-1.4,0.5-2.1,0.4c-0.7-0.1-1.4-0.4-2-0.6c0.6,1.4,2.3,1.7,3.6,2.1c0.7,0.2,0.6,1,0.5,1.5
		c-0.7,0-0.8,0.9-1.5,0.8c-0.1,0.1-0.4,0.4-0.5,0.5c0-0.7,0-1.3-0.1-2c-0.3,0.2-0.4,0.7-0.5,1c-0.7,1.8-2.2,3.2-3,5
		c-0.2,0.6-0.2,1.4,0.3,1.9c0.7,0.6,1.8,0.1,2.5,0.7c0.8,0.6,1.6,1.1,2.5,1.5c0.1,0.1,0.2,0.3,0.3,0.4c-0.1,0.6-0.1,1.2,0,1.8
		c-0.4,0.2-0.9,0.3-1.4,0.3c-0.4,0-0.7-0.4-1-0.7c0,0.2,0,0.6,0,0.8c-0.1-0.1-0.3-0.3-0.5-0.4c-0.2,0.2-0.3,0.7-0.7,0.7
		c-0.3,0.1-0.5-0.2-0.7-0.4c0.2-0.2,0.4-0.3,0.6-0.5c-0.4-0.2-0.7-0.5-1.1-0.8c0.1-0.1,0.4-0.2,0.5-0.2c-0.1-0.6-0.9-0.6-1.4-0.9
		c0.2-0.2,0.3-0.4,0.5-0.6c-0.4-0.2-0.8-0.4-1.2-0.6c0.1-0.2,0.2-0.4,0.4-0.6c-0.6-0.1-1.2-0.2-1.9-0.3c0.1-0.2,0.2-0.4,0.3-0.6
		c-0.5-0.1-1,0.1-1.5,0.2c-0.6-0.4-1.1-1-1.8-1.1c0.1-0.1,0.4-0.4,0.5-0.5c-0.3-0.4-1,0.1-1.3-0.2c-0.6-0.4,0.3-0.7,0.5-1
		c-0.3-0.1-0.6-0.1-0.9-0.3c-0.1-0.4,0.2-0.6,0.6-0.6c0.8-0.1,1.1,1,1.9,1c0.1-1.2,1-2.3,2.1-2.8c0.6-0.4,1.3-0.2,2-0.3
		c-0.1-0.4-0.4-0.7-0.8-0.9c-0.1-0.4-0.1-0.8-0.1-1.3c0.2-0.2,0.6-0.3,0.4-0.6c-0.8-0.2-1.8-0.4-2.2-1.2c-0.6-1,0.7-3,0.7-3
		c0.1,0.1,0.1,0.2,0.1,0.3l0,0c0.1,0.4,0.1,0.9,0.1,1.1c0.1,0,0.2,0.1,0.3,0.1c0-0.4,0-1.7,0-2c0.1,0.4,0.2,0.9,0.3,1.3
		c0.6-0.4-0.2-1.2,0.1-1.7c0.4-0.6,0.8-1.4,1.6-1.7c0.1-0.6-0.4-1.6,0.6-1.6c0-0.6-0.1-1.2,0-1.8c0.1-0.4,0.5-0.7,0.8-1
		c0-2.1,1.1-4.2,2.4-5.8c-0.3-1.2-0.1-2.4-0.2-3.6c-0.2,0.1-0.3,0.2-0.4,0.4c-0.3,1-0.7,2-1,3c-0.2,0.6-0.8,0.9-0.9,1.5
		c-0.4,1.3-0.9,2.7-1.7,3.8c-0.4,0.7-1.1,1.1-1.5,1.8c0.6-0.1,1-0.7,1.6-0.8c-0.5,1.5-0.9,3.1-1.7,4.6c-0.5,0.9-1.4,1.6-2.1,2.2
		l0.1,0.4c-0.1,0.1-0.3,0.3-0.4,0.4c-0.7-0.6-0.9-1.5-1.5-2.2c-1.6-2.3-2.4-5-3.9-7.4c-0.2,0.4,0,0.9,0.1,1.3
		c0.5,1.7,0.9,3.4,1.6,5.1c0.5,1.2,1.1,2.3,1.6,3.5c-1.4-0.6-3.2-1.5-3-3.3c-0.1,0-0.2-0.1-0.3-0.1c-0.2,0.8-0.1,1.7-0.7,2.3
		C208,57.4,207.6,56.5,207.7,56.1z M219.8,69.6c-0.8,0.4-1.4-0.6-1.1-1.3c0.3-0.4,0.7-0.7,1.1-1c1-0.7,1.6-1.8,2.4-2.7
		c0.2,0.1,0.4,0.1,0.6,0.2c0.1-0.3,0.2-0.5,0.3-0.8c0.1,0.1,0.4,0.2,0.6,0.3c0.1,2,0,4.1,0,6.1c0.1,0.6-0.6,0.4-0.9,0.3
		c-1.1-0.5-1.8-1.4-2.9-1.9c-0.2,0-0.4,0.2-0.5,0.3C219.4,69.3,219.9,69.3,219.8,69.6z M220.4,77.3c-0.3-0.1-0.6-0.3-0.9-0.5
		c0.2-0.1,0.3-0.3,0.5-0.4C220.2,76.6,220.9,77,220.4,77.3z M208.4,62.5c0,1.5,1.5,2.3,2.3,3.4c-2.2-0.5-3.3-3.2-2.5-5.2
		c0.3-0.7,0.7-1.5,1.5-1.6C209.2,60.2,208.2,61.2,208.4,62.5z M209.3,63.7c-0.9-1.6-0.2-3.9,1.5-4.7c0.5-0.3,1,0,1.4,0.1
		c0.6,0.2,1.3,0.2,1.9,0.4c1.6,0.9,2.3,3.5,0.8,4.8C213.4,66,210.3,65.7,209.3,63.7z M218.8,51.4c0.2-1,0.6-1.9,0.9-2.8
		c0.2-0.6,0.3-1.3,0.8-1.8c-0.3,1.2-0.7,2.3-1.1,3.5C219.3,50.7,219.2,51.2,218.8,51.4z M211.4,81.8c-1.1-2-2.8-3.6-3.5-5.8
		c-0.6-1.8-0.3-3.7-0.4-5.6c0-0.9-0.1-2.1,0.9-2.5c0.6-0.3,0.5,0.7,1,0.7c0.4-0.7,0.8-1.5,1.5-2c0.1,0.1,0.3,0.3,0.4,0.4
		c-0.2,0.4-0.4,0.8-0.6,1.2c0.2,0,0.5,0,0.7-0.1c0.5,0.4,0.5,0.9,0.3,1.5c0.4-0.1,0.7-0.3,1.1-0.2c0.4,0.4,0.3,1,0.6,1.4
		c0.2-0.2,0.3-0.5,0.5-0.7c0.6,0.1,1,0.6,1.1,1.2c0.1,0,0.2,0,0.2,0c0.1-0.2,0.3-0.3,0.4-0.5c0.6,0.3,1.2,0.6,1.7,1
		c-0.2,0.3-0.3,0.6-0.4,0.9c0.2,0,0.5-0.1,0.7-0.2c0.5,0.5,1,1,1.3,1.7c-0.2,0.3-0.6,0.4-0.7,0.8c0.3,0,0.6,0,1-0.1
		c0.2,0.6-0.5,0.6-0.9,0.7c-0.8,0.1-1.8,0.6-2.3-0.3c0-0.8,0.4-1.4,0.6-2.2c-0.8,0-0.8,1.1-1.2,1.5c-0.5,0.9-1.4,1.6-2.4,2
		c-0.5,0.2-1,0.3-1.3,0.8c1,0.2,1.9-0.6,2.9-0.4c1,0,1.6,0.8,2.2,1.5c0.9,1,1.8,1.9,2.7,2.8c0.9,0.9,2.2,1.4,3.5,1.6
		c0.2,0.1,0.7,0,0.6,0.4c-0.3,0.1-0.6,0.1-0.9,0.1c-1.4-0.2-2.8-0.9-3.9-1.9c-0.9-0.7-1.6-1.7-2.5-2.4c0,0.6,0.4,0.9,0.7,1.4
		c0.8,1.2,1.7,2.3,3,3c0.8,0.6,1.8,0.8,2.5,1.5c-0.2,0.1-0.5,0.2-0.7,0.2c0.2,0.4,0.5,0.8,0.7,1.2c-0.3,0.1-0.6,0.1-0.8,0.2
		c0.3,0.4,0.7,0.8,1,1.3c-0.4,0.1-0.8,0.2-1.1,0.3c0.2,0.5,1.2,0.3,1.2,0.9c0.1,0.5-0.6,0.4-0.9,0.6c0.3,0.4,1.1,0.7,0.6,1.2
		c-2.4-0.6-4.5-2-6.6-3.4C213.6,86.3,212.7,83.9,211.4,81.8z M211.3,95.5c-0.7,0.1-1.5,0.1-2.2,0.1c0.3-0.5,1-0.7,1.6-0.8
		c2.4-0.3,4.9,0.1,7.3,0.8c0.2,0.1,0.4,0.2,0.5,0.3c-0.6,0-1.2-0.2-1.9-0.3C214.9,95.2,213.1,95.2,211.3,95.5z M220.3,107.9
		c-0.2,0.5-0.7,0.7-1.2,1c-1.4,0.7-2.7,1.6-4.1,2.2c-0.4-2.2-0.3-4.4-0.2-6.6c0.4-0.8,1.4-1.1,2.1-1.6c1.1-0.6,2.1-1.4,3.4-1.7
		c0,1.2,0.1,2.3-0.1,3.5C220.1,105.7,220.7,106.8,220.3,107.9z M220.6,116.2c-0.8,0.6-1.7,1-2.6,1.6c-1.1,0.6-2.2,1.3-3.3,1.8
		c-0.1-1.1,0.3-2.2,0.2-3.4c0.1-1.1,0.3-2.1,0.2-3.2c-0.1-0.9,0.9-1.4,1.6-1.8c1.2-0.6,2.3-1.4,3.5-1.9c0.4,1.2,0.5,2.6,0.3,3.8
		C220.3,114.2,220.7,115.2,220.6,116.2z M219.7,100.4c-1.4,0.8-2.8,1.5-4.2,2.2c0-2,0.1-4,0.9-5.8c1.1-0.4,2.3-0.1,3.2,0.4
		c0.6,0.4,0.5,1.2,0.7,1.8C220.5,99.6,220.2,100.2,219.7,100.4z M219.7,140.7c0,0.5-0.1,1.1-0.6,1.3c-0.7,0.4-1.4,0.9-2.2,1.2
		c-1-0.2-2-0.6-3-1c-0.9-0.7-0.6-2.1-0.9-3.1c0.7-0.9,1.5-1.8,2.5-2.4c1.4-0.8,2.8-1.5,4.3-2.3C220.1,136.6,219.8,138.7,219.7,140.7
		z M220.2,128.2c-0.3,1.6,0,3.1-0.1,4.7c-0.1,0.5-0.5,0.8-0.9,1c-2,1.1-4,2.3-5.9,3.5c0.2-1.3,0.7-2.6,0.9-3.9
		c0-0.7,0.1-1.3,0.2-1.9c-0.1-0.4-0.1-0.9,0.1-1.3c-0.1-0.1-0.2-0.3-0.3-0.4c1.6-1.6,3.8-2.5,5.8-3.6
		C220.3,126.8,220.3,127.5,220.2,128.2z M220.4,121c-0.2,0.6-0.3,1.2-0.1,1.8c0.3,0.7-0.4,1.3,0.1,2c-0.4,0.5-0.9,0.8-1.5,1.1
		c-1.4,0.8-2.9,1.6-4.3,2.3c-0.3-0.9-0.2-1.8-0.3-2.7c-0.1-1.1,0.1-2.3,0.2-3.4c0.1-0.7,0-1.5,0.7-1.9c1.6-0.9,3.2-1.9,4.8-2.8
		c0.4-0.2,0.4,0.3,0.6,0.6C220,118.9,220.7,120,220.4,121z M233.5,90.1c-0.6,1.6-1.9,2.9-3.3,3.9c-1.9,1.3-4.3,1.6-6.6,1.8
		c-2.3,0-4.6-0.6-6.9-1.2c-2.7-0.7-5.6-0.9-8.2,0.3c-1.9,0.8-3.3,2.5-4.2,4.4c-0.1,0.4,0.1,0.7,0.3,1c0.1,0,0.4,0,0.5,0
		c0.1-0.6,0-1.4,0.7-1.6c0.8-0.5,1.7,0.4,1.7,1.2c0.1,1.2-1.2,2.3-2.4,2.1c-1.5-0.2-2.8-1.9-2.2-3.4c0.5-1.7,1.8-3.1,3.4-4
		c2.3-1.3,5-2,7.7-1.9c2.3,0,4.4,1.1,6.7,1.5c2.4,0.6,4.9,0.6,7.2-0.3c1.2-0.5,2.5-1.2,3.2-2.4c0.4-0.6,0.8-1.2,1-1.9
		c0.2-0.5-0.2-1.2-0.8-1.1c0,0.6,0,1.5-0.8,1.6c-0.7,0.4-1.6-0.3-1.6-1c-0.1-1,0.7-1.9,1.6-2.2C232.1,86.4,234,88.2,233.5,90.1z"/>
	<path class="st0" d="M215.1,62.7c0.2-0.9-0.2-1.8-0.8-2.4c-0.8-0.5-1.8-0.8-2.7-0.4c0.1,0.3,0.3,0.6,0.4,0.9
		c-0.2,0.2-0.4,0.3-0.5,0.5c-0.2-0.2-0.4-0.4-0.6-0.6c0.2-0.3,0.3-0.6,0.3-0.9c-0.9,0.3-0.6,1.3-0.8,2c-0.3,1.1,0.4,2.3,1.5,2.7
		C213.2,64.9,214.8,64,215.1,62.7z M211.2,62.1c0.3-0.5,0.8-0.8,1.3-1.1c0.6-0.5,1.3,0.1,1.6,0.6c0.6,0.7-0.1,1.7-0.9,2.1
		C212.3,64,211.1,63.1,211.2,62.1z"/>
	<path class="st0" d="M213.7,62.2c0.1-0.4-0.3-0.7-0.6-0.8c-0.4,0.1-0.7,0.3-0.9,0.6c-0.2,0.5,0.5,0.7,0.8,1
		C213.2,62.8,213.6,62.6,213.7,62.2z"/>
	<path class="st0" d="M157.6,63.1c-0.5-0.3-1-0.7-1.6-0.8c0.7,2,2.6,3.6,4.7,4.1c1.2,0.2,2.4,0.2,3.5-0.4c1.1-0.5,1.7-1.6,2.3-2.6
		c0.3-0.6,0.8-1.1,0.9-1.7c-0.9,0.3-1.7,1-2.6,1.3C162.6,64.1,159.8,64.2,157.6,63.1z"/>
	<path class="st0" d="M151.1,80.1c-1.6,0.5-2.1,2.9-1,4.1c0.6,0.7,1.8,0.8,2.6,0.3c1.3-0.7,1.7-2.5,0.9-3.7
		C153,79.9,151.9,79.7,151.1,80.1z M151.7,84.2c-0.4,0-0.8-0.3-1.1-0.5c0.5-0.1,1.1-0.1,1.6-0.4c0.4-0.3,0.7-0.7,1.1-1
		C153.2,83.2,152.5,83.9,151.7,84.2z"/>
	<path class="st0" d="M161.1,86.9c0.9,0.1,1.7-0.7,2-1.5c0.3-0.8-0.1-1.7-0.5-2.5c-0.3-0.6-0.9-1.2-1.6-0.9
		c-0.9,0.4-1.3,1.5-1.4,2.4C159.4,85.5,160,86.8,161.1,86.9z M162.5,85.1c-0.2,0.6-0.5,1.2-1.2,1.3c-0.3,0-0.7-0.1-0.6-0.5
		C161.3,85.6,161.8,84.9,162.5,85.1z"/>
	<path class="st0" d="M194.4,84.3c-1.5-0.5-3.1-0.8-4.6-0.4c-1.1-0.1-2.2,0.1-3.3,0.3c-0.7,0.2-1.4,0.5-2.1,0.4
		c-0.2,0.7-0.4,1.3-0.5,2c0.1,0.1,0.4,0.2,0.5,0.3c2.4-0.3,4.9-0.7,7.3-1c1.7-0.2,3.4,0.3,5.1,0.2C196.2,85.2,195.3,84.7,194.4,84.3
		z"/>
	<path class="st0" d="M194.3,88.7c-1.9-1.3-4.4-1.6-6.6-1.2c-1.4,0.3-2.7,1.1-3.6,2.1c-1.2,1.5-0.9,3.6,0,5.2
		c1.2,1.9,3.5,2.6,5.6,2.8c1.6,0,3.3-0.2,4.5-1.3c0.9-1,1.7-2.1,2-3.4C196.5,91.3,195.7,89.6,194.3,88.7z M185.5,93.5
		c-1.3-1.3-0.5-4,1.2-4.5c-0.5,0.5-1.1,1-1.3,1.7C185.1,91.6,185.3,92.6,185.5,93.5z"/>
	<path class="st0" d="M182.3,88c-0.6-0.1-0.6,0.8-0.8,1.2c-0.5,3.1-0.1,6.4,1.4,9.2c0.1,0,0.2-0.1,0.3-0.2
		C181.9,95,181.4,91.4,182.3,88z"/>
	<path class="st0" d="M128.6,94.8c0.9-0.3,1.1-1.4,1.6-2.1c0.7,0.5,1.3,1.4,2.3,1.3c1.2-0.3,1.3-2,0.5-2.7c-0.9-1-1.7-2-2.7-2.8
		c-0.4-0.4-0.9,0.1-1.2,0.5c-0.9,1.4-1.6,3-1.8,4.6C127.1,94.3,127.8,95.1,128.6,94.8z"/>
	<path class="st0" d="M151.1,89.3c-1.1,0.3-1.6,1.6-1.6,2.6c0,1.2,1.3,2.4,2.5,2c1.4-0.4,1.9-2,1.6-3.3
		C153.4,89.6,152.1,89,151.1,89.3z M150.7,93.1c0.6-0.4,1.4-0.6,2.1-0.6C152.6,93.4,151.3,93.7,150.7,93.1z"/>
	<path class="st0" d="M134.3,92.6c-0.1,0-0.2-0.1-0.2-0.1c-0.1,0.8-0.7,1.4-1,2.1C134,94.5,134.2,93.4,134.3,92.6z"/>
	<path class="st0" d="M128.6,95.6c-0.4-0.2-0.9-0.3-1.2-0.7c-0.2-0.2-0.3-0.5-0.6-0.5C126.5,95.3,127.8,96.1,128.6,95.6z"/>
	<path class="st0" d="M130.6,97.3c-1.5,0.4-2.9,1.4-3.6,2.8c-0.7,1.5-0.5,3.2-0.2,4.8c1.1,4.6,2.6,9.1,2.8,13.9
		c0.1,1.4-0.2,3,0.6,4.3c0.6,1.1,2.1,1.9,3.3,1.2c1.5-0.9,2-2.6,2.4-4.2c1-4.5,1.7-9.2,1.9-13.8c-0.1-2.7-0.7-5.6-2.6-7.7
		C134.1,97.3,132.2,96.9,130.6,97.3z M130.6,122.3c-0.2-0.9-0.3-1.8-0.3-2.7c0-4.5-1.2-8.9-2.4-13.2c-0.3-1.6-0.9-3.3-0.5-5
		c0.2-0.8,0.7-1.5,1.3-2c-0.5,1.7-0.8,3.6-0.3,5.4c0.5,2.4,1.1,4.8,1.7,7.2c0.9,3.4,0.7,6.9,0.9,10.3
		C130.8,122.2,130.7,122.2,130.6,122.3z"/>
	<path class="st0" d="M133.3,125.6c-1,0.4-1.9-0.3-2.7-0.9c0.6,2.3,4.6,1.6,4.7-0.7C134.6,124.5,134.2,125.4,133.3,125.6z"/>
	<path class="st0" d="M161.2,141.1c1,0.7,2.5-0.2,2.4-1.4c0-1.2-1.4-2-2.4-1.3C160.2,138.9,160.1,140.5,161.2,141.1z"/>
</g>
</svg>
