<?xml version="1.0" encoding="utf-8"?>
<!-- Generator: Adobe Illustrator 26.0.3, SVG Export Plug-In . SVG Version: 6.00 Build 0)  -->
<svg version="1.1" id="Слой_1" xmlns="http://www.w3.org/2000/svg" xmlns:xlink="http://www.w3.org/1999/xlink" x="0px" y="0px"
	 viewBox="0 0 239.5 150.2" style="enable-background:new 0 0 239.5 150.2;" xml:space="preserve">
<g>
	<path d="M116,32.5c0.4-0.2,0.5-0.5,0.3-0.9c-0.1,0-0.4,0-0.5,0C115.5,32,115.6,32.4,116,32.5z"/>
	<path d="M120.6,32.8l0-0.3c-0.3,0-0.8,0-1.1,0l0,0.4c0,0.2,0.1,0.8,0.1,1C120.1,33.6,120.5,33.3,120.6,32.8z"/>
	<path d="M116.1,33.2c-0.4,0.3,0,1.2,0.5,0.8C117,33.6,116.6,32.8,116.1,33.2z"/>
	<path d="M112.6,33.7c-0.2,0-0.7-0.1-1-0.1l-0.4,0c0,0.3,0.1,0.8,0.2,1C112,34.6,112.4,34.2,112.6,33.7z"/>
	<path d="M132.7,37c0.6-0.1,0.4-1.1-0.2-0.9C131.8,36.2,132,37.2,132.7,37z"/>
	<path d="M130.6,37c0.5-0.4-0.2-1.2-0.7-0.7C129.5,36.7,130.2,37.5,130.6,37z"/>
	<path d="M124.5,37.4c0.4-0.5-0.5-0.8-0.7-0.4C123.4,37.5,124.3,37.9,124.5,37.4z"/>
	<path d="M115.8,38.3c0-0.3-0.1-0.8-0.1-1.1c-0.3,0.1-0.5,0.3-0.8,0.4C114.7,38.3,115.2,38.4,115.8,38.3z"/>
	<path d="M138.7,38.6c0.7-0.1,0.3-1.2-0.3-1C137.9,37.9,138.1,38.6,138.7,38.6z"/>
	<path d="M116.2,38c-0.6,0.4,0.2,1.2,0.6,0.6C117.3,38.2,116.6,37.5,116.2,38z"/>
	<path d="M189.4,40.1c-0.1-0.3-0.1-0.6-0.2-0.9c0,0.2,0,0.7,0,1c-1.1,0.5-1.8,1.6-2,2.8C188.7,43,188.8,41.1,189.4,40.1z"/>
	<path d="M114.6,40.6c0-0.3,0.1-0.7,0.1-1c-0.3,0-0.7,0-1,0c0,0.2,0,0.5,0,0.6C114,40.4,114.3,40.5,114.6,40.6z"/>
	<path d="M118.8,40.6c-0.1-0.1-0.4-0.3-0.5-0.4c-0.1,0.4-0.1,0.7-0.2,1.1c0.2,0,0.5,0,0.7,0C118.8,41.1,118.8,40.8,118.8,40.6z"/>
	<path d="M161.8,44c0.4-0.1,1.1-0.6,1.4,0c0.1,0,0.3,0,0.4,0c-0.2-0.4-0.4-0.8-0.5-1.2c-0.3,0.4-0.8,0.2-1.2,0
		c-0.4,0.3-0.8,0.6-1.2,0.8c0,0,0.1,0.1,0.2,0.1C161.1,43.9,161.4,44,161.8,44z"/>
	<path d="M112.7,43.5c-0.7-0.2-1.1,0.4-1.1,1.1c-0.3,0.4-0.6,0.8-0.7,1.3c0.3,0,0.7-0.1,1-0.2C112.1,44.9,112.5,44.2,112.7,43.5z"/>
	<path d="M163.4,47.3c0.6,0.2,1.3,0.3,1.9,0.4c0.4,0.5,1.2,1,0.5,1.7c0.1,0,0.2-0.1,0.3-0.2c0.1-0.4,0.3-0.7,0.4-1.1
		c0.1-0.3,0.2-0.7,0.3-1c-0.1-0.1-0.2-0.2-0.3-0.3c-0.4-0.3-0.8-0.6-1.2-0.8c-0.2,0.3-0.4,0.5-0.7,0.5c-0.3-0.2-0.5-0.3-0.8-0.5
		c0-0.2-0.1-0.7-0.1-1c-0.3,0.1-0.6,0.2-1,0.2C162.9,45.9,163.1,46.6,163.4,47.3z"/>
	<path d="M104.3,46.5c0,0.7,0.8,0.5,1.3,0.4c0-0.3,0-0.6,0-0.9C105.1,45.9,104.4,45.8,104.3,46.5z"/>
	<path d="M108.9,48.2c0.4-0.3,0.8-0.3,1.3-0.2c-0.1,0.2-0.3,0.6-0.4,0.8c0.3-0.3,0.5-0.5,0.8-0.8c-0.6,0-1-0.3-0.9-0.9
		c-0.3,0-0.5,0-0.8,0C108.9,47.3,108.9,47.8,108.9,48.2l-0.5-0.2C108.6,48,108.8,48.1,108.9,48.2z"/>
	<path d="M140.1,51c0.6,0,1.2,0.3,1.7-0.1c0.4-0.6,0.5-1.4,0.6-2.1c-0.2,0-0.6,0.1-0.8,0.2c-0.3,0.7-0.5,1.3-0.8,1.9
		C140.5,50.9,140.3,51,140.1,51z"/>
	<path d="M138.6,52.5c0.1,0.4,0.2,0.9,0.3,1.3c0.2-0.5,0.5-1.1,0.6-1.7c0-0.1,0.1-0.3,0.2-0.4c-0.2-0.5-0.6-0.8-1.1-0.9
		c0.2,0.4,0.7,0.8,0.4,1.2C138.8,52.2,138.7,52.4,138.6,52.5z"/>
	<path d="M102.9,52.3c-0.2-0.3-0.5-0.6-0.7-0.9c-0.5,0.2-0.8,0.7-0.9,1.2c0.2,0.2,0.5,0.5,0.7,0.6C102.3,52.9,102.6,52.6,102.9,52.3
		z"/>
	<path d="M123.2,52.8c0-0.3,0-0.9-0.1-1.2c-0.4,0.3-0.9,0.5-1.3,0.8C122.3,52.5,122.8,52.7,123.2,52.8z"/>
	<path d="M123.2,53.8c0.5-0.3,0-1.2-0.5-0.8C122.3,53.3,122.7,54.1,123.2,53.8z"/>
	<path d="M177.6,56c0.2-0.5,0.5-1.1-0.1-1.5c-0.2-0.1-0.5-0.1-0.7-0.1c0.1,0.2,0.2,0.5,0.3,0.7c-0.2,0.2-0.4,0.5-0.6,0.7
		C176.7,55.9,177.3,56,177.6,56z"/>
	<path d="M167.7,54.6c-0.1,0.2-0.2,0.6-0.2,0.8c0.2,0,0.7,0,0.9,0c0.4-0.3,0.7-0.5,1-0.8l0.1-0.1C168.9,54.6,168.3,54.6,167.7,54.6z
		"/>
	<path d="M205.8,59.5c0.8-0.6,1.7-1.4,1.9-2.4c-1.1,0.7-2,1.8-2.9,2.6c-1.2,1.4-2.9,2.3-4.3,3.5c-0.1,0.2-0.3,0.6-0.3,0.7
		C202.8,63.6,203.6,60.6,205.8,59.5z"/>
	<path d="M86.1,61.5l0.3,0c-0.2,0.3-0.4,0.7-0.7,1c-1.7,0.1-2.2,2-1.9,3.4c0.9,0.5,2.2,0.4,2.7-0.6l0.3,0c0-0.6-0.1-1.2-0.2-1.8
		c0.1-0.7,0.2-1.4,0.2-2.1l0.2,0c0-0.3,0-0.6-0.1-0.9c-0.1,0-0.4,0-0.5,0C86.4,60.8,86.3,61.1,86.1,61.5z"/>
	<path d="M93.1,64.2c-0.6,0.1-0.1,0.9,0.3,0.7C94.1,64.7,93.6,63.9,93.1,64.2z"/>
	<path d="M112.9,67.7c-0.2-0.4-0.4-0.8-0.6-1.3c-0.1,0-0.4,0-0.5,0.1c0,0.4-0.1,0.8-0.1,1.2C112.1,67.7,112.5,67.7,112.9,67.7z"/>
	<path d="M98.5,71.3c-0.1,0.7,0.5,1,0.9,1.4c0.7-0.3,1-1,1.7-1.3C100.3,71.3,99.4,71.3,98.5,71.3z"/>
	<path d="M187.4,81.9c-0.6-0.1-0.4,0.6-0.3,0.9c0.2,0,0.6,0,0.8,0C187.9,82.4,187.9,81.7,187.4,81.9z"/>
	<path d="M91.2,88.8c-0.1-0.2-0.3-0.6-0.4-0.8c-0.2,0-0.4-0.2-0.6-0.2c0,0.3,0,0.9-0.1,1.2C90.1,90.1,90.8,89,91.2,88.8z"/>
	<path d="M88.5,88.9c0,0.3,0,0.7,0,1c0.3-0.1,1,0,0.9-0.5C89.4,88.8,88.8,88.9,88.5,88.9z"/>
	<path d="M95.4,96c-0.2,0.1-0.3,0.1-0.5,0.2C95.1,96.2,95.3,96.1,95.4,96z"/>
	<path d="M135.4,92.4c0.3,0.1,0.6-0.2,0.9-0.3c0.2,0.1,0.6,0.4,0.8,0.6c0.2-0.1,0.5-0.2,0.7-0.2l0.3-0.1
		C137.7,91.1,135.8,91.2,135.4,92.4z"/>
	<path d="M86.8,93c0,0.3,0,0.7-0.1,1c0.4,0,0.7,0,1.1,0c0-0.3-0.1-0.7-0.1-1C87.4,93.1,87.1,93,86.8,93z"/>
	<path d="M180.2,93.6c-0.2,0-0.6,0-0.7,0.1c0,0.2,0,0.5,0,0.7c0.2,0,0.6,0,0.7,0C180.2,94.1,180.2,93.8,180.2,93.6z"/>
	<path d="M136.6,95.3c0.5,0,1,0,1.4-0.1c-0.2-0.5-0.4-1-0.8-1.5C137,94.2,136.8,94.7,136.6,95.3z"/>
	<path d="M181.4,97.5c0.1-0.4,0-0.8-0.3-1.1c0.2-0.3,0.4-0.6,0.6-1c-1-0.2-1.1,1-1.2,1.7C180.5,97.7,181.1,97.4,181.4,97.5z"/>
	<path d="M91.1,107.1c0.2,0,0.5,0,0.6,0h0c0.7-0.9,1.8-1.4,2.3-2.4C92.8,105,91.9,106.1,91.1,107.1z"/>
	<path d="M179.9,107.7c-0.3,0-1,0-1.3,0c0.1,0.3,0.2,0.8,0.3,1c0.2,0,0.5,0,0.7,0C179.6,108.5,179.8,108,179.9,107.7z"/>
	<polygon points="156.3,114 156.3,114 156.3,114 	"/>
	<path d="M157.2,115.2c0.1-0.7-0.2-1.2-1-1.2c0,0.4-0.1,0.9-0.1,1.2C156.4,115.1,157,115.2,157.2,115.2z"/>
	<path d="M132.5,116.1c0.8,0.3,0.8-0.5,0.7-1C132.6,114.9,131.8,115.6,132.5,116.1z"/>
	<path d="M137.3,117c0.2,0,0.5,0.1,0.6,0.1c0-0.2,0-0.6,0-0.8c-0.2,0-0.5,0-0.7,0C137.3,116.5,137.3,116.8,137.3,117z"/>
	<path d="M172.5,41c0.4-0.3,0-1.1-0.5-0.8C171.7,40.5,172.1,41.3,172.5,41z"/>
	<path d="M165.9,75.9c0-0.2,0-0.7,0-1c-0.2,0-0.6,0-0.8,0.1C164.7,75.7,165.3,76,165.9,75.9z"/>
	<path d="M120.3,41.5l0.3-0.2c0,0.5,0,1,0,1.5c0.5-0.5,0.1-1.2,0.4-1.7c0.2,0.2,0.6,0.6,0.7,0.8c1,0.3,1.2-0.9,1.2-1.7
		C122,40.4,121,40.7,120.3,41.5z"/>
	<path d="M105.4,41.9c0.1-0.4-0.4-0.6-0.7-0.8c0,0.3-0.1,0.8-0.2,1c-0.5-0.4-0.8-1.4-1.5-1.3c0,0.8,0.6,1.5,0.9,2.2
		C104.4,42.7,104.9,42.4,105.4,41.9z"/>
	<path d="M132.3,41.4c0.2-0.5,0-0.7-0.5-0.6C131.6,41.3,131.7,41.5,132.3,41.4z"/>
	<path d="M140.2,41.9c0.4,0,0.8,0,0.9-0.5c-0.2,0-0.7-0.1-0.9-0.2c-0.3-0.2-0.5-0.3-0.8-0.5c-0.3,0.5-0.1,1-0.1,1.5
		C139.6,42.2,139.9,42.1,140.2,41.9z"/>
	<path d="M185.3,41.6c0.4-0.4-0.3-1.2-0.7-0.8C184.2,41.3,184.9,42.1,185.3,41.6z"/>
	<path d="M126.7,42.2c0.3-0.2,0-0.9-0.4-0.7C126,41.8,126.3,42.5,126.7,42.2z"/>
	<path d="M112.2,42.3c0.1,0.2,0.2,0.6,0.3,0.8c-0.1,0.7,1,0.4,0.8-0.2c0.3-0.2,0.5-0.6,0.5-1c-0.2,0-0.7,0.1-1,0.2
		C113,41.3,111.7,41.7,112.2,42.3z"/>
	<path d="M147.3,42.3c0.2-0.5,0-0.7-0.5-0.5C146.6,42.3,146.8,42.5,147.3,42.3z"/>
	<path d="M133.9,43c0.6-0.1,0.4-1.2-0.2-1C133.3,42.3,133.3,43.4,133.9,43z"/>
	<path d="M144,42.7c-0.4-0.4-1.1-0.9-1.3,0c0.1,0.2,0.2,0.6,0.2,0.8C143.3,43.3,143.7,43.1,144,42.7z"/>
	<path d="M177.1,42.6c0-0.1,0-0.3,0-0.4c-0.3-0.4-1.1-0.1-0.9,0.4C176.3,43.1,177,43.1,177.1,42.6z"/>
	<path d="M137.4,43.2c0.4-0.3,0-1.1-0.5-0.8C136.6,42.7,137,43.5,137.4,43.2z"/>
	<path d="M145.1,42.9c0.2-0.4,0-0.6-0.4-0.5C144.5,42.8,144.7,43,145.1,42.9z"/>
	<path d="M117.4,48.3c0.1-0.5,0.3-1,0.4-1.5c-0.3-0.1-0.5-0.2-0.8-0.2c-0.4,0.3-0.3,0.8,0.2,1c0,0.2,0,0.5,0,0.7
		c-0.1,0.1-0.4,0.2-0.5,0.3C117,48.6,117.2,48.4,117.4,48.3z"/>
	<path d="M165.3,51.2c0.2-0.4,0.4-0.7,0.6-1.1c-0.2,0-0.5,0.1-0.7,0.2c-0.1,0.5-0.2,1-0.3,1.5c0.6,0,1.3,0,1.9-0.1
		C166.4,51.3,165.9,51.2,165.3,51.2z"/>
	<path d="M167.2,51.1c0,0.1,0.1,0.4,0.1,0.6c0,0.6,0.2,1.1,0.8,1.2c-0.1-0.1-0.4-0.4-0.6-0.5c0.1-0.2,0.3-0.7,0.4-1
		c0.2,0.2,0.6,0.5,0.8,0.7c0.5,0,1.1-0.1,1.6-0.1c0-0.1,0.1-0.4,0.1-0.6c-0.4,0-0.7-0.1-1-0.1c-0.3-0.5-0.7-1-1.1-1.5
		c0,0.2,0.1,0.5,0.1,0.7c-0.1,0.1-0.3,0.3-0.4,0.5C167.9,51,167.4,51,167.2,51.1z"/>
	<path d="M167.7,53.3c-0.3,0.2-0.5,0.3-0.8,0.5c-0.2-0.1-0.6-0.4-0.8-0.6c0.2,0.3,0.3,0.7,0.5,1c0,0.2,0.1,0.8,0.1,1
		c0.2-0.5,0.5-1,0.9-1.3C167.6,53.7,167.7,53.4,167.7,53.3z"/>
	<path d="M88.1,63.5c0.4-0.3,0.3-1.4-0.4-1C87.4,62.7,87.8,64.2,88.1,63.5z"/>
	<path d="M192.2,66.8c0.5,0,1.1,0.1,1.3-0.5C192.9,66,192.5,66.4,192.2,66.8z"/>
	<path d="M190.8,97.1c1-0.1,2-0.1,3-0.2c0.1-0.1,0.2-0.3,0.3-0.4c-0.4,0-0.9,0-1.3,0C192.1,96.6,191.4,96.6,190.8,97.1z"/>
	<path d="M143,98.5c-0.2,0-0.7-0.1-0.9-0.1c-0.1,0.6,0.1,1.1,0.5,1.6c0.3,0.4,0.7,1.2,1.1,0.3c0.2,0.1,0.6,0.2,0.8,0.2l0-0.2
		c0-0.1-0.1-0.4-0.1-0.5c-0.6,0.3-1.3,0.4-1.9-0.1c0.4-0.2,0.7-0.5,1.1-0.7C143.4,98.8,143.1,98.6,143,98.5z"/>
	<path d="M97.8,102.4c-0.1-0.6-0.2-1.1-0.4-1.7l-0.3-0.1l-0.2-0.1c-0.1-0.1-0.4-0.2-0.6-0.2c-0.1,0.1-0.3,0.3-0.4,0.3
		c0.1,0.7,0.1,1.4,0,2.1c0.6-0.1,1.3-0.1,1.9,0c0.1,0.1,0.2,0.2,0.3,0.3c0.4-0.4,0.7-0.8,1-1.2C98.7,101.9,98.2,102.1,97.8,102.4z"
		/>
	<path d="M161.1,112.1c-1.5,0.9-2.6,2.4-4,3.4c0,0.1,0,0.3,0,0.4l0.1,0.1c0.9-0.8,1.8-1.7,2.9-2.4
		C160.5,113.1,160.8,112.6,161.1,112.1z"/>
	<path d="M118.3,43.7c0.7-0.1,0.4-1.2-0.2-0.9C117.5,42.9,117.7,43.8,118.3,43.7z"/>
	<path d="M121.5,43.9c0.4,0.8,0.3,1.7,0,2.5c0.4-0.5,1.3-0.3,1.6-1c-0.2,0-0.7,0-0.9,0c0-0.2-0.1-0.5-0.1-0.7
		c0.4-0.1,1.3-0.2,1.2-0.8c-0.2-0.5-0.5-0.8-0.8-1.2C122.1,43,121.8,43.5,121.5,43.9z"/>
	<path d="M136.1,43.6c0.2-0.5,0-0.7-0.5-0.5C135.4,43.6,135.6,43.7,136.1,43.6z"/>
	<path d="M148.3,43.6c0.2-0.5,0-0.7-0.5-0.5C147.6,43.6,147.8,43.8,148.3,43.6z"/>
	<path d="M116.9,44.3c0.6-0.1,0.5-1.2-0.2-1C116.2,43.4,116.3,44.5,116.9,44.3z"/>
	<path d="M141.5,97.7c-0.6,0.3-1.1,0.6-1.7,0.9l0,0c-0.5,0.5-0.4,1.2-0.1,1.8c0,0.2,0.1,0.7,0.1,0.9c0.5-0.6,1-1.1,1.7-1.5
		c-0.1-0.1-0.4-0.4-0.5-0.5c0-0.1,0.1-0.4,0.1-0.5C141.4,98.5,141.5,98.1,141.5,97.7z"/>
	<path d="M141,44.6c0.5,0,0.6-0.9,0.1-0.9C140.5,43.7,140.4,44.6,141,44.6z"/>
	<path d="M196.9,62.4c0.5-0.1,0.3-1-0.2-0.8C196.2,61.7,196.4,62.6,196.9,62.4z"/>
	<path d="M145.1,46.5c-0.5-0.5-1-1.8,0.2-1.8c0,0,0-0.1,0-0.2c-0.6,0.3-1.3,0.3-2,0.4c-0.3-0.3-0.6-0.6-0.7-1c-0.1,0-0.4,0-0.6,0
		C142.7,45.1,143.8,46.1,145.1,46.5z"/>
	<path d="M173.4,44.7c0.5-0.4-0.2-1.3-0.7-0.8C172.5,44.4,173,45.1,173.4,44.7z"/>
	<path d="M100.9,44.8c0.4-0.4-0.4-0.9-0.7-0.5C99.8,44.7,100.6,45.2,100.9,44.8z"/>
	<path d="M113.5,45.5c0.2,0,0.7,0,0.9,0c0.1-0.4,0.1-0.9,0.2-1.3C113.8,44.2,113.7,44.9,113.5,45.5z"/>
	<path d="M118.3,45.9c0.1-0.5-0.1-0.8-0.7-0.8c0.1-0.3,0.1-0.6,0.2-0.8c-0.6,0.2-0.7,0.8-0.9,1.2C117.3,45.8,117.8,46.2,118.3,45.9z
		"/>
	<path d="M150.8,44.6c-0.3,0-0.9-0.1-1.2-0.2c-0.3,0.5-0.1,0.9,0.2,1.3C150.1,45.4,150.4,45,150.8,44.6z"/>
	<path d="M170.2,44.6l-0.1,0.2C170.6,45.8,171.2,44.3,170.2,44.6z"/>
	<path d="M172.2,45.2c0.2-0.5,0-0.7-0.5-0.6C171.5,45.2,171.7,45.4,172.2,45.2z"/>
	<path d="M176.9,44.7c-0.2,0-0.5,0-0.6,0C175.8,45.4,177.1,45.5,176.9,44.7z"/>
	<path d="M180.9,44.6c-0.5,0.2-1.3,0.6-0.8,1.2C180.9,46,181.1,45.2,180.9,44.6z"/>
	<path d="M139.7,45.5c0.2-0.5,0-0.7-0.5-0.5C139,45.5,139.2,45.7,139.7,45.5z"/>
	<path d="M151.7,47.4c0.4-0.1,0.7-0.5,0.9-0.8c0-0.2-0.1-0.5-0.1-0.6c0.4-0.4,1-0.2,1.5-0.2c-0.3-0.3-0.6-0.5-0.8-0.8l0.2,0.5
		c-0.2,0-0.7,0.1-1,0.1c-0.2,0-0.5-0.1-0.6-0.2c-0.4,0.2-0.5,0.9-0.8,1.2C151.2,46.8,151.4,47.2,151.7,47.4z"/>
	<path d="M131.7,47.9c-0.1-0.3-0.1-0.6-0.2-0.9c0.5-0.4,0.5-0.9,0.4-1.5c-0.4,0.3-0.8,0.5-1.2,0.8C131,46.9,130.9,47.8,131.7,47.9z"
		/>
	<path d="M167.2,46.3c0.1-0.4-0.1-0.6-0.5-0.5C166.6,46.3,166.7,46.5,167.2,46.3z"/>
	<path d="M143.3,46.3c-0.1,0.5,0,0.6,0.5,0.5C143.9,46.3,143.7,46.2,143.3,46.3z"/>
	<path d="M186.6,47c0.4-0.3,0-1.1-0.4-0.7C185.8,46.5,186.1,47.4,186.6,47z"/>
	<path d="M97.2,46.8l0.2,0c0-0.2,0-0.6,0-0.8c-0.3,0-0.7,0-1,0c0,0.2,0,0.5,0,0.6c-0.1,0.5-0.1,1,0.2,1.5
		C97,47.8,97.2,47.3,97.2,46.8z"/>
	<path d="M132.5,46.9c-0.3,0.3-0.4,1,0.1,1.1C133.1,47.9,133.1,46.6,132.5,46.9z"/>
	<path d="M134.1,46.9c-0.4,0.5,0.4,1,0.7,0.5C135.2,46.9,134.4,46.4,134.1,46.9z"/>
	<path d="M184.7,47.4c0.2-0.5,0-0.7-0.5-0.5C184,47.4,184.2,47.5,184.7,47.4z"/>
	<path d="M181.7,48.4c0.3-0.2,0.2-1.2-0.3-0.7C181,47.9,181.2,48.8,181.7,48.4z"/>
	<path d="M139,49.6c-0.1-0.6-0.1-1.6-1-1.6c0,0.5,0,1.1,0.1,1.6C138.4,49.6,138.8,49.6,139,49.6z"/>
	<path d="M184.6,48.2c-0.2,0.5,0,0.7,0.5,0.6C185.3,48.2,185.1,48,184.6,48.2z"/>
	<path d="M191.6,48.9c0.3-0.3,0-0.9-0.4-0.7C190.9,48.5,191.2,49.3,191.6,48.9z"/>
	<path d="M115.8,48.5c-0.2,0.5,0,0.7,0.5,0.5C116.5,48.5,116.3,48.3,115.8,48.5z"/>
	<path d="M170.2,50.3c-0.1-0.1-0.2-0.3-0.2-0.4c0.2-0.4,0.4-0.8,0.5-1.2c-0.6,0.3-1.1,0.7-1.6,1.1c0.3,0.2,0.5,0.5,0.8,0.7
		C169.8,50.4,170.1,50.3,170.2,50.3z"/>
	<path d="M105.4,49c-0.3,0.5-0.5,1.1-0.6,1.7C106,51,105.5,49.7,105.4,49z"/>
	<path d="M122.5,49.2c-0.3,0.4-0.2,0.6,0.2,0.7C123,49.5,122.9,49.3,122.5,49.2z"/>
	<path d="M180.8,48.8c0,0.6,0,1.8,0.8,1.6C181.9,49.7,181.2,49.2,180.8,48.8z"/>
	<path d="M183.1,49.9c0.5-0.1,0.3-0.9-0.2-0.8C182.3,49.2,182.6,50.1,183.1,49.9z"/>
	<path d="M102.3,50.5c1.1,0.4,0.8-1.3-0.1-1.3C102,49.5,101.5,50.4,102.3,50.5z"/>
	<path d="M139.8,49.4c-0.4,0.1-0.7,0.8-0.2,0.9C140.2,50.4,140.6,49.2,139.8,49.4z"/>
	<path d="M171.2,49.7c-0.1-0.1-0.2-0.4-0.2-0.5c0,0.1-0.1,0.3-0.2,0.4l0.2,0.2L171.2,49.7z"/>
	<path d="M191.6,49.5c-0.2,0.5,0.2,1.3,0.8,0.8C193.1,49.9,192,48.8,191.6,49.5z"/>
	<path d="M149.9,49.8c-0.2,0-0.5-0.1-0.6-0.1C148.9,50.4,150.3,50.6,149.9,49.8z"/>
	<path d="M149.6,51.3c0.4,0,0.7-0.3,0.7-0.7C149.8,50.6,149.6,50.8,149.6,51.3z"/>
	<path d="M172.6,51.9c-0.7,0.3-1-0.5-1.5-0.9l-0.1,0.3c0.1,0.1,0.2,0.4,0.2,0.5c0.1,0.2,0.2,0.4,0.3,0.7c-0.2,0-0.5,0.1-0.6,0.1
		c0,0.2,0,0.5,0.1,0.6c0.3,0,0.7,0,1,0.1c0.1-0.1,0.3-0.3,0.5-0.4c0.1,0,0.3,0,0.4,0h0.2c0.1,0,0.4,0,0.5,0c0,0.7,0.6,1,1.1,0.4
		c0.2,0,0.5,0.1,0.6,0.1c-0.1-0.2-0.2-0.6-0.3-0.8c-0.2-0.1-0.4-0.3-0.6-0.4c0-0.4,0.1-0.8,0.1-1.2
		C173.8,51.2,173.3,51.7,172.6,51.9z"/>
	<path d="M175.5,53.2c0.3,0.2,0.6,0.3,0.9,0.5c0-0.2,0-0.7,0-1c0.4,0.3,0.7,0.7,0.9,1.1c0.1-0.2,0.3-0.3,0.4-0.5
		c-0.1-0.1-0.4-0.3-0.5-0.4c0.2-0.5,0.4-1.4-0.4-1.6C176.4,51.9,175.7,52.4,175.5,53.2z"/>
	<path d="M151.1,52.5c0.3-0.4-0.3-1-0.7-0.7C149.9,52.2,150.7,52.8,151.1,52.5z"/>
	<path d="M175.8,52.2c0.2-0.5,0-0.7-0.5-0.5C175.1,52.1,175.3,52.3,175.8,52.2z"/>
	<path d="M188.3,51.7c-0.2,0-0.5,0.1-0.6,0.1C187.4,52.6,188.7,52.4,188.3,51.7z"/>
	<path d="M109.4,52c-0.5,0.1-0.3,1,0.2,0.8C110.1,52.7,109.9,51.9,109.4,52z"/>
	<path d="M185.1,52.3c0.2,0.6,0.9,0.6,1.1,0C186,51.8,185.2,51.9,185.1,52.3z"/>
	<path d="M99.9,53c0.4-0.4-0.3-1-0.7-0.6C98.7,52.8,99.5,53.4,99.9,53z"/>
	<path d="M117.6,53.1c0.4-0.3-0.1-1.1-0.5-0.7C116.7,52.7,117.2,53.4,117.6,53.1z"/>
	<path d="M165.1,52.4c-0.4,0.5,0.6,0.8,0.8,0.4C166.3,52.3,165.3,52,165.1,52.4z"/>
	<path d="M104,52.7c-0.4,0.1-0.7,0.8-0.2,0.9C104.5,53.7,104.8,52.5,104,52.7z"/>
	<path d="M168.8,52.5c0.1,0.2,0.2,0.5,0.3,0.7c0.5-0.1,1,0,1.5,0.1C170.5,52.3,169.5,52.5,168.8,52.5z"/>
	<path d="M120.9,52.9c-0.2,0.5,0,0.7,0.5,0.5C121.6,52.9,121.5,52.7,120.9,52.9z"/>
	<path d="M100.8,53.3c-0.2,0.6,1.1,0.8,1.3,0.2C102,53.1,101.2,53.1,100.8,53.3z"/>
	<path d="M110.2,54.4c0.4-0.3,0-1.2-0.5-0.8C109.3,53.9,109.7,54.9,110.2,54.4z"/>
	<path d="M181.3,53.6c-0.2,0.5,0,0.7,0.5,0.5C182,53.6,181.8,53.4,181.3,53.6z"/>
	<path d="M174.4,55c0.2-0.4,0-0.6-0.4-0.4C173.8,55,174,55.1,174.4,55z"/>
	<path d="M111.2,55.8c0.2-0.5,0-0.7-0.5-0.6C110.5,55.7,110.7,55.9,111.2,55.8z"/>
	<path d="M173.7,55.5c-0.3,0.4,0.5,0.8,0.8,0.5C174.8,55.5,174,55.1,173.7,55.5z"/>
	<path d="M187,56.3c0.2-0.5,0-0.7-0.5-0.5C186.3,56.3,186.5,56.5,187,56.3z"/>
	<path d="M194.7,57.1c0.6-0.1,0.4-1.1-0.2-1C193.8,56.3,194,57.3,194.7,57.1z"/>
	<path d="M166.8,57.4c0.5,0,0.6-0.9,0.1-0.9C166.5,56.5,166.3,57.4,166.8,57.4z"/>
	<path d="M189.9,57.4c0.9,0.4,0.8-1.7,0.1-1C189.6,56.7,189.3,57.2,189.9,57.4z"/>
	<path d="M91.4,57.7c0.1-0.6-0.2-1.4-0.9-1C90.1,57.4,90.8,57.9,91.4,57.7z"/>
	<path d="M85.2,59.2c0.5,0.7,1.3,0,1.6-0.5c-0.2-0.5-0.5-1.1-1.2-1.1C84.9,57.7,84.6,58.7,85.2,59.2z"/>
	<path d="M90.8,58.9c0.4,0,0.5-0.8,0-0.8C90.4,58.1,90.4,58.9,90.8,58.9z"/>
	<path d="M92,59.2c0.3-0.4,0.2-0.6-0.2-0.7C91.5,58.9,91.6,59.1,92,59.2z"/>
	<path d="M194.5,58.5c-0.5,0.3-0.1,1.2,0.4,0.8C195.4,59,195,58.1,194.5,58.5z"/>
	<path d="M182.9,58.7c-0.2,0.5,0,0.7,0.5,0.5C183.6,58.7,183.4,58.5,182.9,58.7z"/>
	<path d="M189.7,58.7c-0.4,0.5,0.7,1.2,0.9,0.6C191,58.7,190.1,58.6,189.7,58.7z"/>
	<path d="M195.9,60.4c0.2-0.3-0.1-1.1-0.5-1C195,59.8,195.4,60.6,195.9,60.4z"/>
	<path d="M89.2,62.8c0.8-0.9,0.4-2.1-0.4-2.8c0.3,0,1,0,1.4,0.1c-0.3-0.1-0.5-0.2-0.8-0.3l-0.3,0c-0.4,0.5-0.8,0.9-1,1.4
		c0.1,0.5,0.4,0.9,0.6,1.4C88.7,62.6,89,62.8,89.2,62.8z"/>
	<path d="M99.3,60.2c0.2-0.5,0-0.7-0.5-0.5C98.7,60.2,98.8,60.4,99.3,60.2z"/>
	<path d="M84.4,61.2c0.4-0.5,0-1-0.3-1.5c-0.9-0.3-2,0.5-1.5,1.5C83,61.9,84.1,61.9,84.4,61.2z"/>
	<path d="M91.9,62.2c-0.4-0.2-0.8-0.4-1.3-0.7c-0.2,0.7,0.7,0.9,1.2,0.9c0.2,0.5,0.6,0.7,1.1,0.7c0.7,0.1,1.3-0.3,1.6-0.9
		c-0.4-0.7-0.7-1.4-1.3-1.9c-0.5-0.1-0.9-0.1-1.4-0.1C91.3,60.7,91.9,61.6,91.9,62.2z"/>
	<path d="M189.3,61.3c0.6,0,0.9-0.5,1.3-0.9c-0.2-0.1-0.5-0.4-0.7-0.5C189.6,60.3,189.4,60.8,189.3,61.3z"/>
	<path d="M191.9,61.3c-0.3,0.5,0.5,0.8,0.7,0.4C193,61.3,192.2,60.9,191.9,61.3z"/>
	<path d="M194.4,62.5c-0.2,0.3-0.1,1.2,0.5,0.9c0.2-0.5,0.3-1,0.4-1.6C195,62.1,194.7,62.3,194.4,62.5z"/>
	<path d="M90.9,64.9c-0.5-0.7,0.2-2-0.9-2.3c-0.1,0.1-0.3,0.4-0.4,0.5c-0.3,0.5-0.6,1-0.9,1.5c0.5-0.1,1.1-0.1,1.6,0.2
		c0.1,0,0.2,0,0.3,0L90.9,64.9z"/>
	<path d="M191.8,63c0.2-0.5,0-0.7-0.5-0.5C191.1,63,191.2,63.2,191.8,63z"/>
	<path d="M192.2,62.9c-0.2,0.7,0.5,1.1,0.9,1.5c0.5-0.5,1-1,1-1.7c-0.4,0.2-0.8,0.4-1.1,0.6C192.9,62.9,192.6,62.7,192.2,62.9z"/>
	<path d="M199.8,64.5c-0.3-0.5-0.6-1.1-0.8-1.7c-0.6,0.2-0.8,0.8-0.7,1.4C198.8,64.3,199.3,64.4,199.8,64.5z"/>
	<path d="M119.6,64.3c0.5,0,0.4-0.8,0-0.8C119.2,63.6,119.2,64.3,119.6,64.3z"/>
	<path d="M194.5,64.5c-0.6,0.1-0.4,1,0.2,0.8C195.3,65.2,195.1,64.2,194.5,64.5z"/>
	<path d="M200.8,64.3c-0.6,0.1-0.8,0.6-1,1c0.3,0.1,0.6,0.2,0.9,0.4C200.7,65.3,200.8,64.8,200.8,64.3z"/>
	<path d="M119.3,65.4c0.4-0.2,0.4-0.5,0-0.6C118.9,65,118.9,65.2,119.3,65.4z"/>
	<path d="M168.8,66c-0.2-0.7-0.7-1.1-1.3-1.3C167.6,65.3,168,66.1,168.8,66z"/>
	<path d="M83.2,65c-0.4,0.1-0.7,0.2-0.9,0.5c-0.3-0.1-0.5-0.1-0.8-0.2c-0.1,0.3-0.2,0.6-0.3,0.9C82,66,83.3,66.1,83.2,65z"/>
	<path d="M194,66c0.1-0.4-0.1-0.6-0.5-0.5C193.4,66,193.6,66.1,194,66z"/>
	<path d="M164.5,65.7c-0.2,0.3,0,1,0.4,0.8C165.2,66.3,164.9,65.5,164.5,65.7z"/>
	<path d="M169.4,66.3c0.5,0.3,1,0.2,1.4-0.2C170.3,65.6,169.6,65.6,169.4,66.3z"/>
	<path d="M204.3,66.3c0.1-0.5-0.1-0.7-0.6-0.5C203.6,66.3,203.8,66.5,204.3,66.3z"/>
	<path d="M141.7,66.1c-0.2,0.5,0,0.7,0.5,0.5C142.4,66.1,142.2,65.9,141.7,66.1z"/>
	<path d="M143.7,66.6c0.3-0.5-0.5-0.9-0.8-0.5C142.6,66.6,143.4,67.1,143.7,66.6z"/>
	<path d="M116.6,68.9c0.1,0.2,0.2,0.4,0.3,0.6c0-0.2,0-0.5-0.1-0.6c0.2,0,0.5,0.1,0.7,0.2c-0.1-0.5,0.2-1,0.5-1.4
		c0.1-0.5,0.1-0.9,0.2-1.4c-0.2,0.3-0.3,0.6-0.5,0.9c-0.2,0-0.7,0-0.9,0c0.1,0.5,0.3,0.9,0.2,1.4C116.9,68.6,116.7,68.8,116.6,68.9z
		"/>
	<path d="M191.5,67.6c0.4,0,0.6-0.8,0.1-0.8C191.2,66.8,191,67.5,191.5,67.6z"/>
	<path d="M201.9,67.4c0.5-0.3,0-1.1-0.4-0.7C201.1,67,201.5,67.8,201.9,67.4z"/>
	<path d="M110.5,68.2c0.2-0.5,0.3-0.9,0.5-1.4c-0.5,0.1-0.9,0.2-1.3,0.5C109.4,67.9,110.1,68.1,110.5,68.2z"/>
	<path d="M91.2,67.3c-0.2,0.5,0,0.7,0.5,0.5C91.9,67.3,91.7,67.1,91.2,67.3z"/>
	<path d="M89.9,68c-0.2,0.5,0,0.7,0.5,0.5C90.6,68,90.4,67.8,89.9,68z"/>
	<path d="M200.4,68.8c0.5,0.3,1.1,0.7,1.7,0.8c-0.2-0.3-0.4-0.5-0.6-0.7c0.1-0.3,0.1-0.6,0.2-0.9C201.1,67.9,200.7,68.3,200.4,68.8z
		"/>
	<path d="M88.3,68.5c-0.1,0.1-0.2,0.3-0.3,0.4C88.3,70,89.5,68.3,88.3,68.5z"/>
	<path d="M194.7,68.6c-0.2,0.5,0,0.7,0.5,0.6C195.4,68.6,195.2,68.5,194.7,68.6z"/>
	<path d="M200.7,69.8c-0.7-0.2-0.6-1.2-1.4-1c0,0.6,0,1.1-0.1,1.7c0.5,0,1-0.1,1.5-0.1C200.7,70.2,200.7,69.9,200.7,69.8z"/>
	<path d="M87.8,70.3c0.3-0.4-0.4-0.8-0.6-0.4C86.8,70.3,87.5,70.7,87.8,70.3z"/>
	<path d="M84.7,70.2c0.3,0.7,0.3,2.1,1.3,2C86.1,71.3,85.3,70.6,84.7,70.2z"/>
	<path d="M118.5,71.1c0.2-0.5,0-0.7-0.5-0.5C117.8,71.1,118,71.2,118.5,71.1z"/>
	<path d="M86.7,70.8c-0.6,0.2-0.3,1.1,0.2,1C87.6,71.7,87.3,70.6,86.7,70.8z"/>
	<path d="M181.2,71.7c0.4-0.3,0-1.2-0.5-0.8C180.3,71.3,180.7,72.1,181.2,71.7z"/>
	<path d="M108.1,71.2c-0.5,0.4-0.4,1.2,0.3,1.3C108.9,72.3,108.7,71.2,108.1,71.2z"/>
	<path d="M117.4,71.1c-0.6,0.2-0.2,1,0.3,0.9C118.2,71.9,117.9,70.9,117.4,71.1z"/>
	<path d="M110.3,73c0.5,0.1,1.5,0.5,1.6-0.2c-0.3-0.5-0.9-0.7-1.3-0.9C110.5,72.2,110.4,72.6,110.3,73z"/>
	<path d="M200.8,72.5c0.6-0.1,0.2-1-0.3-0.7C199.9,71.9,200.3,72.7,200.8,72.5z"/>
	<path d="M105.5,72.1c-0.5,0.1-0.1,0.8-0.2,1.2c0.4-0.1,0.8-0.2,1.2-0.3C106.4,72.6,106.1,71.7,105.5,72.1z"/>
	<path d="M205.6,72.5c0,0.1,0,0.4,0.1,0.5C206.5,73.6,206.4,71.9,205.6,72.5z"/>
	<path d="M207.5,72.8c-0.6,0.2,0.1,1.1,0.5,0.7C208.3,73.2,207.9,72.7,207.5,72.8z"/>
	<path d="M102.7,74c0.6,0.2,0.7-0.5,0.9-0.8c-0.2,0-0.7-0.1-0.9-0.1C102,73.1,102.2,74,102.7,74z"/>
	<path d="M94.1,73.7c-0.4,0-0.8,0.4-0.6,0.8C94,74.9,94.9,73.9,94.1,73.7z"/>
	<path d="M207.5,74.3c0.1-0.5,0-0.7-0.5-0.6C206.8,74.3,207,74.5,207.5,74.3z"/>
	<path d="M208.4,75c0.2-0.5,0-0.7-0.5-0.5C207.7,75,207.9,75.2,208.4,75z"/>
	<path d="M182,75c-0.4,0.4,0.3,1.1,0.7,0.7C183.2,75.3,182.5,74.5,182,75z"/>
	<path d="M184.9,75.5c-0.4,0-0.9,0-1.3,0c-0.9,0.9,0.3,1.7,1.1,2.1c-0.3,0.1-0.9,0.2-1.2,0.3l0.3,0.2c0.6,0.1,1.2,0.1,1.8,0
		c0.1,0,0.4-0.1,0.5-0.2c-0.3,0-0.9-0.1-1.2-0.2c0.3-0.2,0.5-0.4,0.8-0.6c0.4-0.1,0.7-0.3,1-0.5c-0.6,0-1.2,0-1.8,0
		C184.9,76.2,184.9,75.7,184.9,75.5z"/>
	<path d="M162.4,77.4c0.4-0.3,0-1.1-0.5-0.8C161.6,76.9,162,77.7,162.4,77.4z"/>
	<path d="M165.2,77.5c0.6-0.5-0.3-1.3-0.8-0.8C164.1,77.2,164.7,77.9,165.2,77.5z"/>
	<path d="M150.5,77.5c0.2-0.5,0-0.7-0.5-0.5C149.8,77.5,150,77.7,150.5,77.5z"/>
	<path d="M151.3,77.3c-0.5,0.3,0.1,1.1,0.5,0.7C152.3,77.7,151.7,77,151.3,77.3z"/>
	<path d="M186.8,77.2c-0.6,0.1-0.4,1.1,0.2,0.9C187.7,78,187.4,77,186.8,77.2z"/>
	<path d="M206.9,78.5c0.3-0.3,0.5-0.7,0.7-1.1c-0.4-0.1-0.8-0.3-1.1,0.1C206.6,77.9,206.8,78.2,206.9,78.5z"/>
	<path d="M200.8,78c-0.1,0.5,0,0.6,0.5,0.5C201.4,78,201.2,77.9,200.8,78z"/>
	<path d="M202.7,79.8c0.1-0.5,0.2-1.1,0.3-1.6C202,77.2,201.3,80.2,202.7,79.8z"/>
	<path d="M82.4,78.7c-0.3,0.3-0.6,0.7-0.8,1c0.5-0.1,1-0.2,1.6-0.3c0.1-0.1,0.4-0.4,0.5-0.5C83.2,78.8,82.8,78.4,82.4,78.7z"/>
	<path d="M204.2,79c0.2-0.5,0-0.7-0.5-0.5C203.5,79,203.7,79.2,204.2,79z"/>
	<path d="M208.8,78.4c-0.5,0.2-0.9,0.6-1.1,1c0.2,0.1,0.6,0.2,0.8,0.3C209,79.5,208.7,78.8,208.8,78.4z"/>
	<path d="M196.1,78.8c-0.4,0.3-0.7,0.8-0.6,1.2C196,80.2,196.6,79.1,196.1,78.8z"/>
	<path d="M199.5,79.3c0.1-0.4-0.1-0.6-0.5-0.4C198.9,79.3,199,79.5,199.5,79.3z"/>
	<path d="M206.3,78.9c-0.4,0.3,0,1.1,0.5,0.8C207.3,79.3,206.8,78.5,206.3,78.9z"/>
	<path d="M85.9,79.2L85.7,79C84.9,79.2,86,80,85.9,79.2z"/>
	<path d="M188.3,80c0.4-0.5-0.5-0.9-0.8-0.5C187.1,80,188,80.4,188.3,80z"/>
	<path d="M197.5,81.2c0.5-0.6,1.3-0.8,2.1-0.7c0.1,0.1,0.3,0.4,0.4,0.5c-0.1-0.5-0.5-0.8-1-0.7c0-0.1,0-0.3,0-0.4l-0.3-0.2
		c-0.6-0.6-1.1-0.1-1.9-0.1c0.2,0.1,0.5,0.3,0.7,0.4c-0.1,0.2-0.3,0.7-0.5,0.9C197.3,81,197.4,81.1,197.5,81.2z"/>
	<path d="M204.7,79.7c-0.3,0.4-0.9,0.7-1,1.3c0.5,0.5,1.1-0.3,1.6-0.4C205,80.3,204.9,80,204.7,79.7z"/>
	<path d="M99.7,80.2c-0.2,0-0.6,0-0.8,0c0,0.2-0.1,0.7-0.2,0.9C99.3,81.2,100.2,80.9,99.7,80.2z"/>
	<path d="M145.1,80.7c0.2-0.5,0-0.7-0.5-0.5C144.4,80.7,144.6,80.9,145.1,80.7z"/>
	<path d="M203,81.1c-0.2,0-0.7,0-0.9,0.1c-0.3-0.7-0.8-1.3-1.6-1.1c0.3,0.7,0.8,1.4,1.4,2C202.5,82.4,202.6,81.5,203,81.1z"/>
	<path d="M88,80.4c-0.5,0-0.6,0.9-0.1,0.9C88.4,81.4,88.5,80.5,88,80.4z"/>
	<path d="M172.1,81.4c-0.2-0.3-0.6-1-1.1-0.7c-0.1,0.4,0,0.8,0.3,1.1C171.6,82,172.4,82,172.1,81.4z"/>
	<path d="M86.9,82.9c0-0.2,0-0.7-0.1-0.9c-0.3-0.3-0.6-0.6-1-0.9c-0.5,0.4-0.9,0.9-1.3,1.4C85.4,82.4,86.1,82.6,86.9,82.9z"/>
	<path d="M130.6,81.8c-0.2-0.2-0.5-0.5-0.6-0.7c-0.4,0.2-1,0.7-0.4,1.1C130,82.6,130.4,82,130.6,81.8z"/>
	<path d="M164.4,81.1c-0.4,0.4,0.2,1.2,0.7,0.7C165.6,81.4,164.9,80.6,164.4,81.1z"/>
	<path d="M82.2,82.2c0.3,0.1,0.6,0.3,0.9,0.4c0.6-0.5,0.4-0.9-0.2-1.3C82.6,81.6,82.4,81.9,82.2,82.2z"/>
	<path d="M205.2,81.7c0.1,0.4,0.3,0.6,0.6,0.8c0.2-0.1,0.5-0.3,0.7-0.5c-0.1-0.2-0.2-0.6-0.3-0.8C205.8,81.3,205.5,81.5,205.2,81.7z
		"/>
	<path d="M99.7,82.2c0.4-0.5-0.5-0.9-0.8-0.5C98.5,82.2,99.4,82.6,99.7,82.2z"/>
	<path d="M200.5,82.1c-0.2,0.5,0,0.7,0.5,0.5C201.3,82.1,201.1,81.9,200.5,82.1z"/>
	<path d="M194.4,82.4c-0.2,0.5,0,0.7,0.6,0.5C195.1,82.4,194.9,82.2,194.4,82.4z"/>
	<path d="M146.3,83.4c0.4-0.3,0-1.1-0.4-0.7C145.4,83,145.8,83.8,146.3,83.4z"/>
	<path d="M87.9,83.5c0.2-0.5,0-0.7-0.5-0.5C87.2,83.5,87.3,83.7,87.9,83.5z"/>
	<path d="M101,84.8c0-0.7-0.8-0.4-1.2-0.2C99.9,85.2,100.7,85.6,101,84.8z"/>
	<path d="M204.4,85.2c0.5,0,0.5-0.9,0-0.9C203.9,84.4,203.8,85.2,204.4,85.2z"/>
	<path d="M96.8,85.1c0.4-0.5-0.5-0.9-0.8-0.5C95.5,85.1,96.5,85.5,96.8,85.1z"/>
	<path d="M182.2,85.9c0.8,0.4,1.1-0.4,1-1C182.7,85,181.8,85.2,182.2,85.9z"/>
	<path d="M81.5,86.7c0.4-0.3-0.1-1-0.5-0.7C80.6,86.2,81.1,87,81.5,86.7z"/>
	<path d="M176.8,99.6c0,0.3-0.1,0.9-0.1,1.2c0,0.1,0,0.3,0,0.4c-0.9,0-1.8-0.2-2.5-0.8c0,0.9-0.2,1.9-0.7,2.7
		c-1.8,0.8-3.8,1.2-5.4,2.4c-0.4-0.1-0.8-0.1-1.2-0.2c2.4-2.8,5-5.8,5.7-9.5c0.5-2.1-0.4-4.3-2-5.6c-1.2-1.1-3-1.2-4.5-0.7
		c-3.4,1.1-6.6,2.9-9.1,5.5c-0.1,0-0.3,0-0.4,0c-1-1.8-2.6-3.6-4.8-3.6c-2.2,1.4-3.6,3.7-5,5.8l-0.8,1.4c-0.3,0.4-0.5,0.9-0.8,1.3
		c-0.3,0.6-0.8,1.2-1.3,1.6c0,0.2-0.1,0.5-0.1,0.6c-0.2,0-0.7-0.1-1-0.1c-0.1-0.1-0.2-0.3-0.2-0.4c-0.2-0.3-0.5-0.7-0.7-1
		c-0.2,0.3-0.5,0.6-0.7,0.9c0.1,0.1,0.2,0.3,0.3,0.4c0.1,0,0.3,0.1,0.4,0.2c-0.3,0.3-0.5,0.5-0.8,0.8c-0.1-0.1-0.4-0.4-0.5-0.5
		c-0.3-0.5-0.7-1-1-1.5c-0.4-0.7-0.9-1.5-1.3-2.2c-0.1-0.5-0.2-1-0.6-1.4c-0.7-0.6-1-1.7-2-1.9l0.1,0.5c-0.1,0-0.3,0.1-0.4,0.2
		c0-0.7,0.1-1.3,0-2c-0.3-0.6-0.8-1.1-1.3-1.6c0-0.1,0-0.4,0-0.5c-0.3-0.2-0.7-0.3-1-0.5c0-0.2,0.1-0.5,0.2-0.7
		c-0.1-0.1-0.3-0.2-0.4-0.3c-0.1,0.4-0.3,0.7-0.8,0.7c-0.1,0.1-0.2,0.4-0.3,0.5c-1.1-0.4-2.1,0.2-2.8,1c-0.2,0-0.7-0.1-1-0.1
		c-0.1-0.1-0.3-0.3-0.4-0.4c-0.4,0.2-0.7,0.5-1.1,0.7c-0.4,0.2-0.7,0.3-1.1,0.2c-1-1.4-2.8-1.9-4.2-2.7c-2-1-4.3-1.6-6.4-1
		c-2.6,1-3.9,4.1-3.1,6.7c0.1,0.8,0.4,1.4,0.5,1.7c0.7,1.3,1.4,2.6,2.3,3.9c0.2,0,0.7-0.1,0.9-0.2c0.3,0.1,0.6,0.3,0.9,0.4
		c-0.3,0.1-0.8,0.2-1,0.3c0.9,1,2.6,0.3,3.3-0.6c0.1-0.2,0.2-0.5,0.2-0.6c0.5,0,0.9,0,1.4,0c0.1,0.2,0.2,0.5,0.2,0.7l-0.1,0.3
		c-0.6-0.1-0.9,0.5-1.2,0.9c-0.2,0.2-0.5,0.3-0.7,0.5c0.1,0.5,0.2,1,0.3,1.5c-0.2-0.1-0.5-0.2-0.6-0.3c-0.5-0.2-1-0.5-1.5-0.8
		c-0.2-0.1-0.5-0.3-0.6-0.3c-0.4,0.9,0.9,1.1,1.4,1.7c-1.6-0.1-3-1-4.4-1.5c-1.1,1.5-1.1,3.4-1.3,5.1c0.2-0.3,0.3-0.7,0.5-1
		c0.5,0.3,1,0.7,1.5,1l0.1,0.1c0.7,0.3,1.7,1.1,2.3,0.1c1-0.5,1.4-1.8,2.6-2.1c0,0.2,0.1,0.7,0.1,1c0.3-0.2,0.6-0.4,0.8-0.6
		c0.5,0.9,1.2,1.6,2.2,1.9c0,0.3,0,0.5,0.1,0.8l-0.3,0.2c-1.2,0.7-0.7,2.3-1,3.5c0.2-0.1,0.5-0.2,0.6-0.3l0.7-0.3
		c0.1,0.1,0.2,0.4,0.3,0.5c0.1-0.1,0.4-0.4,0.6-0.6c0.3,0.3,0.6,0.6,0.9,1c0,0.5,0,1,0,1.5c0.9,0,1.9-0.1,2.8-0.3
		c0.3-0.6,0.4-1.4,1.2-1.4c0-0.5,0-1.1,0-1.6l0.2-0.3c0.1-0.1,0.4-0.4,0.5-0.5c0.3,0,0.8,0.1,1,0.1c0.1-0.1,0.4-0.3,0.6-0.5
		c0.4,0.2,0.8,0.4,1.1,0.6l0,0.2c0.8,0.5,1.3,1.7,2.4,1.4c0.5,0.1,1,0.2,1.4,0.2l-0.1,0.3c0.1-0.2,0.4-0.5,0.5-0.6
		c0.2,0.4,0.4,0.8,0.5,1.2c-0.2,0.2-0.3,0.5-0.5,0.7c0.4-0.4,0.7-0.9,1.1-1.4c0.4-0.2,0.6,0.2,0.9,0.4c0.2,0.3,0.4,0.5,0.7,0.7
		c0,0.2-0.1,0.7-0.1,0.9c0.2,0,0.7-0.1,0.9-0.1l-0.1-0.3c0.3-0.3,0.7-0.6,1-0.9c0.5-0.9-1.1-0.7-0.5,0.1c-0.2,0-0.6,0-0.8,0
		c-0.1-0.9,0.5-1.8,0.5-2.7c0.1,0,0.2-0.1,0.3-0.2c0.1,1.3,1.4,1.9,2.5,2.2c-0.5,0.7-0.2,1.6-0.1,2.3c-0.1,0.2-0.2,0.5-0.4,0.7
		c0.4,0.9,0.7,1.8,1.2,2.7c0.1-0.3,0.1-0.6,0-0.9c-0.1-0.4-0.3-0.8-0.4-1.2c0.6,0,1.3,0,1.7-0.5c0-0.9-0.4-1.8,0.3-2.5
		c-0.5-0.8,0-1.7,0.6-2.3c0.5-0.2,1-0.4,1.5-0.6c0,1.1,0,2.1-0.1,3.2c0,0.5,0,1.1,0.1,1.6c0.6-0.4,0.9-1,1-1.7
		c0.4-0.4,1-0.8,1.2-1.4c-0.2-0.1-0.7-0.4-0.9-0.5c0-0.1,0.1-0.2,0.1-0.3c0.1-0.2,0.2-0.5,0.3-0.6c0.2,0,0.7,0,0.9,0
		c0.3-0.3,0.7-0.7,1-1c0.2,0.1,0.7,0.4,1,0.5c-0.4,0.2-0.7,0.5-1.1,0.5c0.2,0.2,0.5,0.4,0.8,0.6c0.2-0.4,0.4-0.7,0.6-1.1
		c-0.1-0.1-0.3-0.3-0.3-0.3l0-0.6c0.4-0.1,0.7-0.3,0.9-0.8c0.6,0.6,1.1,1.3,1.1,2.2c0,0.1-0.1,0.4-0.1,0.5c-0.3,0.3-0.5,0.5-0.7,0.8
		c-0.4,0.5-0.7,0.9-1.1,1.4c0.2,0.8,0.5,1.5,1.1,2c0.1,0.6,0.1,1.1,0.1,1.7c0.1-0.1,0.2-0.2,0.2-0.3c0.1-0.3,0.1-0.6,0.1-0.9
		c0.6,0,1.1-0.2,1.6-0.4c0,0.3,0,0.9,0.1,1.2c0.5,0,0.5,0.6,0.5,0.9c0.1,0,0.2-0.1,0.2-0.1c-0.4-1.2-0.2-2.4,0-3.7
		c0.3-0.2,0.7-0.3,1-0.5c0.3-0.1,0.6-0.3,0.8-0.4c0,0.1,0,0.2,0,0.3c0.9-1,2.4-1.1,3.2-2.2c-0.7,0.1-1.3,0.5-1.8,0.9
		c0.3-0.5,0.6-1.1,0.8-1.6c0.2-0.1,0.7-0.3,0.9-0.4c0.1,0.1,0.2,0.4,0.3,0.6c0.5-0.2,1-0.3,1.5-0.1c0.1-0.3,0.3-0.6,0.4-0.9
		c0.2,0,0.7,0.1,1,0.1c0.1-0.3,0.3-0.7,0.4-1c0.3,0,0.6,0.1,1,0.1c0.1-0.5-0.2-1-0.3-1.4c-0.1-0.5-0.1-1-0.1-1.6c0-0.3,0-0.7,0.1-1
		c0.1,0,0.4-0.1,0.6-0.2c-0.2,0.3-0.4,0.7-0.6,1.1c0.5,0,1,0,1.5,0c0,0.4,0.1,0.9-0.2,1.3c-0.2,0.1-0.5,0.3-0.7,0.4
		c-0.1,0.8-0.1,1.7,0.3,2.5c-0.5,0.2-0.9,0.5-1.4,0.7c0-0.2,0.1-0.5,0.1-0.6c-0.2,0.5-0.5,1-0.8,1.4c-0.8,0.8-1.5,1.7-2.3,2.5
		c-1.1,1.2-2.4,2.2-3.2,3.7c1-0.4,1.5-1.5,2.3-2.2c0.2,0.3,0.4,0.7,0.5,1.1l0.2,0.4c0.5-0.6,1.3-1.1,1.2-2c-0.4-0.1-0.8-0.1-1.2-0.2
		c0.2-0.2,0.5-0.5,0.7-0.7l0.3-0.3c0.1-0.1,0.4-0.2,0.5-0.3c0.5-0.6,0.9-1.2,1.5-1.6c0.1-0.1,0.2-0.2,0.3-0.2
		c0.2,0.2,0.5,0.5,0.7,0.7c0.9-0.1,0.3-1.1,0.4-1.7c0.1,0,0.4-0.1,0.5-0.2c0.3-0.1,1-0.2,1.3-0.2l-0.2,0.6c0,0.1-0.1,0.4-0.1,0.6
		c0.4,0.2,0.8,0.2,1.1-0.2l-0.1-0.2c-0.1-0.1-0.4-0.4-0.5-0.6c0.3-0.3,0.7-0.6,0.9-1c0.2-0.3,0.3-0.6,0.5-0.9c0.6,0.2,1.3,0.1,1.9,0
		c0,0.2,0.1,0.7,0.1,0.9c0.2,0,0.5,0.1,0.6,0.1c-0.2,0.4-0.5,0.9-0.7,1.3c1.3,0,2.5,0,3.8,0c0-0.4,0.1-0.8,0.2-1.2l0.4-0.3
		c0.2,0.3,0.5,0.6,0.7,0.9c0-0.6,0.2-1.2,0.6-1.8c0.1-0.2,0.3-0.5,0.4-0.6c0.1-0.2,0.4-0.5,0.5-0.7c0.8,0.1,1,1.1,1.5,1.6
		c0-0.9-0.4-1.7-0.2-2.6c0.6-0.1,0.9,0.6,1.3,0.9c0.2-0.4,0.3-0.7,0.5-1.1c0.3,0,0.6,0,0.9,0c0,0.2-0.1,0.6-0.1,0.8
		c0.2-0.1,0.5-0.3,0.6-0.4c-0.1,1.1,0.4,2.2,0.8,3.2l0.1,0.4c0.1,0.2,0.2,0.6,0.2,0.8c0.2,0,0.5,0.1,0.6,0.1c0-0.2,0-0.7,0.1-0.9
		c0.1-0.1,0.3-0.4,0.5-0.6c0.1,0.2,0.2,0.5,0.3,0.6c0.1-0.1,0.2-0.3,0.3-0.4c0-0.1,0.1-0.2,0.1-0.3c-0.3-0.7-0.5-1.4-0.7-2.2
		c-0.2-0.4-0.5-0.7-0.7-1.1c0.4-0.3,0.9-0.6,1.3-0.8c0.1,0,0.2,0.1,0.2,0.1l0.3,0.1c0.2-0.5,0.5-1.1,0.7-1.6l-0.4-0.1
		c0.2,0,0.5,0.1,0.7,0.1c0.2-0.1,0.5-0.2,0.7-0.3c0.1-0.2,0.2-0.7,0.2-1c0.7,0.4,1.4,0.7,2.1,1.1c0.2,0.1,0.5,0.2,0.7,0.4
		c-0.1-0.4-0.3-0.9-0.7-1.1c0.6,0,1.1,0,1.7,0c-0.3-0.5-0.6-0.9-1.1-1.2c-0.2-0.2-0.4-0.3-0.6-0.5c0.2-0.2,0.4-0.5,0.6-0.7
		c-0.2-0.3-0.5-0.6-0.7-0.9c0.1-0.1,0.3-0.4,0.4-0.6c0.2-0.2,0.3-0.4,0.5-0.5c0.3,0.1,1,0.2,1.3,0.3c0-0.2,0-0.7,0-0.9
		c0.1,0.5,0.2,1.1,0.3,1.6l0.2,0.2c0.6-0.2,1.4-0.8,1.7,0.1c0-0.2,0-0.4,0-0.5c-0.4,0-0.9,0-1.3-0.1c-0.3-0.4-0.3-1-0.3-1.5
		c0.8-0.1,1.6-0.1,2.3-0.6c-0.8,0-1.6,0.1-2.4,0.2c0.2-0.5,0.3-1,0.1-1.5l0,0c0.3,0,0.8-0.1,1.1-0.1c0-0.5,0-1,0.1-1.4
		c0,0.3,0,0.9,0,1.2c0.4,0,0.7,0,1.1-0.1c0.2-0.1,0.5-0.2,0.7-0.2c0.6,0,1.3-0.1,1.9-0.2c0.5,0.6,1.4,0.7,2,1.2
		c0.1-0.1,0.2-0.4,0.2-0.5c-0.2-1.3,0.6-2.7-0.1-3.8c-0.9-0.4-2.1-0.3-3.1-0.5c0.1-0.1,0.4-0.4,0.5-0.5c0.1,0,0.4-0.1,0.5-0.1
		c0.1,0,0.3-0.1,0.4-0.2c-0.2-0.3-0.4-0.5-0.7-0.8c0.1-0.1,0.2-0.4,0.2-0.6c-0.3-0.1-0.7-0.3-1-0.4c0.4-0.1,0.8-0.3,1.1-0.5
		c0.5-0.3,1.1-0.6,1.6-0.9c0.3,0.3,0.6,0.6,0.9,0.9c-0.2-0.4-0.2-0.8-0.1-1.2c0.1-0.4,0-0.7-0.5-0.8l-0.3-0.1
		c0.1-0.2,0.2-0.5,0.3-0.7c-0.2-0.2-0.4-0.4-0.5-0.5c-0.9,0.1-1.8,0.3-2.7,0.4c-0.2-0.5-0.4-1-0.6-1.5l0-0.2c0-0.2,0.1-0.7,0.1-1
		c-0.3-0.3-0.7-0.7-1-1l-0.2-0.2c0.2-0.1,0.7-0.3,0.9-0.4c0-0.2,0.1-0.7,0.1-0.9c-0.2-0.1-0.5-0.4-0.7-0.5c0-0.2-0.1-0.5-0.1-0.7
		c0.4-0.2,0.9-0.4,1.3-0.8c0.1-0.4,0.2-1.1,0.2-1.4c-0.2,0.2-0.6,0.6-0.8,0.8c0-0.2,0.1-0.6,0.1-0.8l0,0c0.2,0,0.6-0.1,0.8-0.1
		c0.2,0.2,0.5,0.5,0.7,0.7c-0.4,0.5-0.7,1-0.9,1.6c0.3,0,0.8,0,1,0c0-0.3-0.1-0.6-0.1-0.9c0.4-0.6,0.7-1.2,1-1.9
		c-0.3-0.2-0.5-0.3-0.8-0.4c0.9-0.8-0.3-1.8,0-2.8c0.1-0.1,0.3-0.4,0.4-0.6c1,0.1,2.2,0.4,3.2-0.1c0-0.9-0.9-1.2-1.5-1.6
		c-0.3-0.2-0.6-0.4-1-0.6l0-0.4c0.1-0.6-0.6-1.2-1-0.6c-0.2,0.2-0.4,0.4-0.6,0.6c-0.4,0-0.8,0-1.2-0.1l0.1-0.2
		c0.5-0.6-0.1-1.2-0.5-1.7c0.5-0.4,0.9-1.3,1.6-1.3c0.2,0.1,0.6,0.3,0.7,0.4c0,0.4,0.1,0.8,0.1,1.2c0.2,0,0.5,0.1,0.7,0.2
		c0.6-0.2,1.2-0.4,1.8-0.6c0-0.1,0-0.4,0-0.5l-0.6,0c0.2-0.4,0.3-0.7,0.5-1.1c-0.5-0.7-0.7,0.4-1.1,0.7c0.5,0.7-0.4,0.6-0.9,0.8
		c-0.1-0.2-0.3-0.7-0.4-0.9c-0.1-0.1-0.4-0.3-0.5-0.4c0.1-0.8,0.8-1.4,1.2-2.1c-0.5,0.6-1,1.3-1.5,1.9c-1.1,0-1.7,1.1-2.5,1.8
		c-0.3-1-1.3-0.2-0.2,0.1l-0.2,0.4c-0.2,0.1-0.6,0.2-0.8,0.2c-0.2-0.3-0.4-0.6-0.5-0.9c-0.5,0.3-0.9,0.5-1.4,0.8
		c-0.3-0.1-0.6-0.2-0.9-0.2c-0.4,0.2-0.7,0.4-1.1,0.6c0-0.1,0-0.4-0.1-0.5c0.2-0.1,0.5-0.2,0.6-0.3c0.1-0.1,0.3-0.2,0.4-0.3
		c0.9,0.3,1.4-0.4,1.7-1.2c-0.1-0.1-0.3-0.3-0.4-0.4c-0.1-0.1-0.3-0.3-0.5-0.4c-0.2,0-0.7,0-0.9,0c-0.3-0.2-0.5-0.5-0.7-0.7
		c0.1-0.3,0.3-0.6,0.4-0.9c-0.1-0.1-0.4-0.3-0.6-0.4c0-0.2-0.1-0.6-0.1-0.8c0.2,0,0.5,0,0.6,0.1c-0.2-0.3-0.3-0.6-0.5-0.9
		c0.3-0.1,0.8-0.2,1.1-0.3c0.4,0.2,0.8,0.4,1.3,0.5c0-0.2,0.1-0.6,0.1-0.8c-0.6-0.1-1.2-0.3-1.8-0.4c0-0.6-0.4-1.1-0.7-1.7
		c-0.6,0-1.3-0.1-1.9-0.1c-0.1-0.2-0.2-0.6-0.3-0.8c-0.3,0.1-0.6,0.2-0.8,0.3c-0.8,0.2-1.6,0.2-2.4,0.2c0.1-0.1,0.3-0.4,0.4-0.5
		c-0.2-0.2-0.5-0.6-0.6-0.8c0.3-0.4,0.7-0.7,1.1-1l0.6-0.3c0,0.3,0,0.9,0,1.2c0.5,0,1,0,1.6,0c0,0,0-0.1,0-0.2
		c-0.5-0.1-1.1,0-1.5-0.4c0.2-0.6,0.9-0.6,1.3-1.1c0.5-0.8,0.8-1.7,1.3-2.5c-0.5,0.5-1.1,1.1-1.8,1.5l-0.4,0.1c0.4-0.8-1-0.9-0.6,0
		c0,0.2,0.1,0.6,0.1,0.7c-0.3-0.1-0.9-0.2-1.2-0.2c0,0.3,0,0.8,0,1.1c-0.2,0-0.7,0-0.9,0.1l-0.2,0l-0.1-0.2c0.1-0.1,0.2-0.4,0.2-0.6
		c-0.1-0.3,0-0.6,0.2-0.9l0,0c-0.2-0.2-0.5-0.5-0.7-0.7c-0.1-0.4-0.3-0.8-0.4-1.2c0,0.2,0,0.7,0,0.9c-0.2,0.2-0.5,0.6-0.7,0.8
		c0,0.7,0,1.3,0.1,2c-0.1,0-0.4-0.1-0.5-0.1c0,0.2-0.1,0.5-0.1,0.7c0.2,0,0.5-0.1,0.7-0.2c-0.1,0.1-0.2,0.2-0.3,0.2
		c0,0.2,0.1,0.5,0.1,0.7c-0.6,0.1-1.2,0.3-1.7,0.5c-0.2-0.1-0.6-0.3-0.8-0.4c0.4-0.2,0.8-0.4,1.1-0.6c0.1-0.1,0.2-0.3,0.3-0.5
		c-0.3-0.1-0.8-0.2-1-0.2c0-0.2-0.1-0.5-0.1-0.7c0.6,0.3,1.1,0.6,1.7,0.9c-0.2-0.7-0.4-1.5-0.5-2.3c-0.1,0.2-0.3,0.5-0.4,0.6
		c-0.4,0.1-0.9,0.1-1.4,0.2c-0.5,0.3-0.9,0.6-1.4,0.9c-0.3-0.3-0.6-0.7-0.9-1c-0.1,0.5,0.1,0.9,0.4,1.3c-0.3-0.2-0.5-0.5-0.8-0.7
		l-0.1-0.1c-0.4,0.1-0.7,0.3-1,0.5c-0.1-0.1-0.4-0.4-0.5-0.6c-0.5,0-1.3,0.2-1.4-0.6c0.2,0,0.6,0.1,0.8,0.2
		c-0.2-0.3-0.4-0.5-0.7-0.8c0.2,0,0.6,0,0.9,0c0-0.5-0.1-1.1-0.1-1.6c-0.4,0.4-0.7,1-1.4,0.7l-0.3,0c-0.2,0.1-0.6,0.2-0.8,0.3
		l-0.2-0.2c0.1,0.7-0.1,1.3-0.5,1.9c-0.3,0.2-0.5,0.4-0.8,0.6c0.1,0.4,0.2,0.9,0.3,1.3c0.4,0.3,0.8,0.6,1.2,0.9
		c-0.1,0.5-0.2,1-0.2,1.5c-0.5,0.1-0.9,0.2-1.4,0.3c-0.2-0.5-0.4-1-0.8-1.4c0-0.1,0-0.3,0-0.3c0.1-0.5,0.2-1,0.3-1.4
		c-0.6,0.6-1.3,1.1-2.1,1.4l-0.2-0.3c0-0.6,0-1.1,0-1.6c0.3-0.2,0.5-0.4,0.8-0.7l0.2-0.5c-0.4,0.2-0.7,0.4-1.1,0.7
		c0.1-0.9,0-1.7,0.2-2.6c0.1-0.2,0.2-0.5,0.3-0.7c-0.2-0.1-0.5-0.2-0.6-0.2c-0.3-0.5-0.6-1.1-1.1-1.5c0,0.2-0.1,0.6-0.1,0.8
		c-0.1,0-0.3-0.1-0.4-0.1c0.2-0.4,0.4-0.9,0.6-1.3c-0.6-0.1-1.1-0.2-1.7-0.4l0.1-0.4c0.2-0.4,0.5-0.7,0.7-1c0.4,0.3,0.8,0.5,1.1,0.8
		c-0.3-0.4-0.6-0.8-0.9-1.2c0.6,0,1.2-0.1,1.8-0.2c-0.5-0.4-1-0.7-1.6-1c-0.1,0.2-0.3,0.5-0.4,0.7c-1.3-0.2-0.3-1.7-1.2-2.3
		c-0.3-0.3-0.8-0.4-1.2-0.5c0-0.4-0.1-0.8-0.1-1.2c-0.1,0.4-0.1,0.9-0.2,1.3c-0.3,0-0.6-0.1-0.9-0.1c-0.3,0.2-0.4,1.1-0.9,0.6
		c-0.1-0.2-0.4-0.5-0.6-0.6c-0.4,0.4-0.4,1-0.1,1.4c0.6,0.4,1.5,0.6,2.1,0.3c0-0.3,0-0.6,0-1c0.5-0.2,0.9-0.4,1.4-0.4
		c-0.2,0.3-0.5,0.5-0.7,0.8c-0.2,0.5-0.5,1-0.7,1.5c-0.5,0.5-1.2,0.4-1.8,0.6c0.1,0.3,0.4,0.8,0.5,1c0.2-0.3,0.5-0.7,0.7-1
		c-0.1,0.7-0.6,1.1-1.1,1.5c0.5,0.7-0.3,1.4-0.6,2c-0.2-0.2-0.3-0.5-0.4-0.8c0-0.6-0.1-1.2,0-1.8c0.3-0.4,0.6-0.8,0.9-1.2
		c0-0.4-0.1-0.9-0.1-1.3c-0.7-0.2-1.3-0.5-1.8-0.9c0.1-0.6,0.3-1.1,0.4-1.7c-0.2,0.5-0.5,0.9-1.1,0.9c0,0.4,0.1,0.8,0.1,1.2
		c0.2,0.6,0.3,1.2,0.5,1.8c0-0.5,0.1-1,0.1-1.5c0.7,0.3,0.6,1.2,0.7,1.8c-0.3,0.1-0.7,0.2-1,0.3c0,0.1-0.1,0.3-0.1,0.4
		c0.1,0.1,0.3,0.2,0.4,0.3c-0.4,0.7-0.7,1.5-1.2,2.2c-0.2,0.1-0.6,0.3-0.8,0.4c-0.1,0.1-0.3,0.2-0.5,0.3c0.1-0.6,0.1-1.2,0.1-1.8
		c-0.1,0-0.4,0-0.5,0l-0.6,0c0.2-0.4,0.3-0.8,0.5-1.2c-0.1-0.3-0.3-0.6-0.4-0.9c-0.2-0.1-0.4-0.3-0.6-0.4c0-0.2,0.1-0.5,0.1-0.6
		c-0.6-0.2-1.2-0.4-1.8-0.6c-0.2,0.3-0.4,0.6-0.6,1c0.3,0.3,0.5,0.5,0.8,0.8c0.1,0.1,0.3,0.3,0.5,0.4c0,0.2,0,0.4,0,0.6
		c-0.1,0.7-0.2,1.4-0.3,2.1c-0.2,0.6-0.1,1.5-1,1.7c0-0.4,0.1-1.1,0.1-1.4c-0.6,0-0.8,0.3-0.9,0.9c-0.2,0-0.5-0.1-0.7-0.2
		c0.2,0.4,0.4,0.8,0.5,1.2c-0.6-0.2-1.1-0.4-1.5-0.8c0.2-0.3,0.3-0.6,0.5-0.9c-0.1-0.7-0.2-1.4-0.2-2.1c-0.3,0.7,0,1.8-0.8,2.2
		c-0.1-1.9,0.4-3.7,0.5-5.5c0.1-0.4,0.2-0.7,0.3-1.1c0.2,0,0.5-0.1,0.7-0.1c-0.1-0.1-0.4-0.2-0.6-0.3c0-0.5-0.1-0.9-0.1-1.4
		c-0.3,0.4-0.6,0.9-0.9,1.3c-0.1-0.5-0.3-1.1-0.4-1.6c-0.6,0.2-1.2,0.5-1.7,0.8c0.4-0.2,0.8-0.3,1.2-0.5c-0.1,1-0.1,2.1-0.2,3.1
		c-0.2,1.5-0.5,3-0.5,4.6c0,0.8-0.2,1.6-0.4,2.3c-0.2-0.1-0.5-0.4-0.6-0.6c-0.3,0.1-0.9,0.3-1.2,0.4c0.2-0.7,0.7-1.2,1.5-1
		c0.1-0.5,0.1-1,0.1-1.5c-0.4,0.3-0.7,0.7-0.9,1.1c-0.2,0.1-0.5,0.3-0.7,0.4l-0.4-0.1l0.2-0.3c0.7-0.6-0.1-1.1-0.4-1.6
		c-0.7,0.1-1.4,0.2-1.7,0.9l0.1,0.4c-0.2,0.1-0.4,0.2-0.6,0.3c0.6,0,1.3,0,1.9,0.2c1.1,0.3,0.2,1.2-0.3,1.6c-0.6-0.4-1.3-0.9-2-1.2
		c0.2,0.6,0.9,0.9,1.4,1.3c-0.1,0.4-0.2,0.7-0.3,1.1c0.2,0.2,0.4,0.3,0.6,0.5c0.3-0.5,0.4-1.4,1.1-1.5c0.4,0.4,0.8,0.8,1.3,1.1
		c0.3-0.1,0.8-0.4,1-0.5c-0.2,0.7-0.5,1.3-1.2,1.6l0.1,0.3c0,0.1,0.1,0.4,0.1,0.6c-0.1,0-0.4-0.1-0.6-0.1c-0.5-1-1.7-1.2-2.7-1.3
		c-0.2-0.1-0.6-0.2-0.9-0.2c0.1-0.2,0.3-0.5,0.4-0.7c-0.5-0.2-1-0.4-1.2-1c0.2-0.6,0.5-1.2,0.2-1.9c-0.1,0.2-0.3,0.7-0.4,1l-0.3,0.1
		c-0.6,0.1-1,0.6-1.4,1c0-0.1-0.1-0.2-0.2-0.2c0.1-0.2,0.2-0.6,0.2-0.9c-0.3-0.5-0.5-1-0.5-1.6c0-0.1,0-0.3,0.1-0.5
		c0.2-1.4,0.2-2.9-0.7-4.1c-0.1,0.1-0.2,0.2-0.3,0.3c0,0.6,0,1.2,0,1.8c-0.1,0.7-0.3,1.3-0.4,2c-0.3,0.7-0.9,1.3-1.6,1.5l0-0.5
		c0.4-0.6,0.9-1.3,1.3-1.9c-0.2-0.3-0.4-0.7-0.5-1c-0.4-0.2-0.9-0.5-1.3-0.7c-1.6-0.3-2.9-1.5-4.5-1.4c0-0.2,0-0.6,0-0.8
		c0.5,0.1,0.7-0.1,0.7-0.6c0-0.2,0-0.5,0-0.7c-0.6-0.2-1.1-0.1-1.5,0.3c-0.5,0.5-1,1-1,1.7c0.2-0.2,0.5-0.3,0.7-0.5
		c0,0.2,0.1,0.6,0.1,0.7c-0.3,0.2-0.5,0.4-0.7,0.7c-0.1,0.1-0.2,0.4-0.2,0.6l-0.1-0.1l-0.3,0l-0.3,0c0.1,0.2,0.2,0.7,0.2,0.9
		c0.9,1,0.7,2.5,1.1,3.7c-0.1,0-0.4,0-0.5,0c0-0.4,0-0.9,0-1.3c-0.2,0.2-0.7,0.7-0.9,0.9c-0.1-0.4-0.2-0.8-0.3-1.2
		c0,0.2-0.1,0.6-0.2,0.8l-0.5,0.1c-0.6-0.7,0.1-1.7,0.1-2.6c0,0.3,0.1,0.9,0.1,1.2c0.4,0,0.9-0.1,1.2-0.4c-0.5-0.4-0.9-0.9-1.4-1.3
		c-0.5,0.1-0.9,0.2-1.3,0.4c-0.3-0.2-0.5-0.3-0.8-0.5c0,0.1,0.1,0.4,0.1,0.5c0.2,0.6,0.6,1.1,0.9,1.6c-0.1,0.1-0.4,0.2-0.6,0.2
		l-0.2-0.1c-0.8,0.3-0.3,1.7,0.3,0.8c0.1,0,0.4,0.1,0.5,0.1c-0.4,0.5-0.9,1-1.3,1.4c-0.4-0.2-0.8-0.4-1.2-0.5
		c-0.7-0.1-1.1,0.5-1.6,0.9c-0.2,0-0.4-0.1-0.6-0.1c-0.3-0.2-0.6-0.5-0.9-0.7c0.2-0.4,0.5-0.7,0.7-1.1c-0.1-0.4-0.3-0.9-0.4-1.3
		c0.6,0.1,1.1,0.3,1.7,0.3c-0.4-0.4-0.8-0.8-1.2-1.3c0-0.3,0-0.6-0.1-1c0.4-0.1,0.7-0.4,0.9-0.8c0.2,0.4,0.4,0.7,0.7,1
		c0.1,0,0.4,0.1,0.6,0.1c-0.1-0.1-0.3-0.4-0.5-0.5c0.1-0.9,0.3-1.7,0.6-2.5c0.3,0.1,0.9,0.2,1.2,0.3c0-0.3,0-0.6,0.1-0.8
		c-0.4-0.1-0.8-0.3-1.2-0.3c-0.5,0.5-0.6,1.3-0.8,1.9c-0.2-0.3-0.4-0.6-0.6-0.9c-0.2,0-0.5,0-0.7,0c-0.1,0-0.4,0-0.5,0
		c0.1,0.5,0.1,1,0.1,1.5c-1,0-2.1-0.1-3.1,0.4c-0.2,0.9,0.1,2,1,2.5c0.6,0.1,1.2,0,1.9,0c-0.1,0.1-0.3,0.4-0.3,0.5
		c0,0.2,0,0.7-0.1,0.9c-0.6,0.3-1.1,0.6-1.7,0.7c-0.6-0.1-1.1-0.4-1.7-0.7c0-0.3-0.1-0.8-0.2-1.1l-0.1-0.2c-0.1-0.2-0.2-0.5-0.2-0.7
		c0-0.2-0.1-0.7-0.1-0.9c0.2-0.2,0.3-0.4,0.5-0.6c-0.2,0.1-0.5,0.2-0.7,0.3c-0.7-1.3-0.5-2.8-1.1-4.1c0-0.1-0.1-0.2-0.2-0.3
		c-0.4,0-0.9,0-1.3-0.1c0.1,0.2,0.3,0.7,0.3,0.9c-0.3-0.1-0.6-0.2-0.9-0.3c0,0.3,0,0.8-0.1,1.1c-0.1,0-0.3,0.1-0.5,0.2
		c0.7,0.1,1.4,0.2,2.1,0.4c0.2,0.8,0.5,1.6,0.7,2.3c0.5,1.6,0.7,3.4,0.6,5.1c-0.2,0-0.7,0-0.9,0c-0.2-0.1-0.5-0.3-0.7-0.4
		c-0.1-0.8-0.1-1.9-1.1-2c0.1,0.5,0.3,1,0.4,1.5c-0.4,0.1-0.7,0.2-1.1,0.2c0.6-0.1,1.1,0,1.5,0.5c-0.6,0.2-1.1,0.5-1.4,1.1
		c0.2,0,0.5,0,0.7,0c0,0,0.1-0.1,0.2-0.1c0.2-0.2,0.5-0.5,0.6-0.6c0.2,0.2,0.5,0.5,0.6,0.6l0,0.2c0.1,0.7,0.1,1.4,0,2.1
		c0,0.1-0.1,0.4-0.2,0.5c-0.7-0.7-1.4-1.5-2.1-2.3l-0.2-0.2c-0.9-0.7-1.5-1.7-2.3-2.5c-0.2,0-0.7-0.1-0.9-0.1
		c-0.2-0.1-0.5-0.2-0.7-0.3c0.2,0.2,0.5,0.5,0.8,0.7c-0.1,0.5-0.2,1-0.2,1.5c0.2,0.1,0.3,0.1,0.5,0.2c0.2-0.4,0.3-0.7,0.5-1.1
		c0.5,0.8,1.2,1.5,1.8,2.2c0,0.2,0,0.7-0.1,1c-0.5,0-0.9,0-1.4,0.1l-0.2,0c-0.5,0.1-0.9,0.1-1.4,0.2c-0.5-0.9-1.1-1.9-1.9-2.6
		c-0.4-0.4-0.8-0.9-0.9-1.4c0.4-0.1,1.1-0.2,1.4-0.2c0,0.1,0.1,0.4,0.1,0.5c0.1-0.5,0.3-0.9,0.6-1.3c-0.2-0.4-0.3-0.7-0.5-1.1
		c-0.3,0.1-0.7,0.2-1,0.3c-0.7,0.5-1.3,1.1-1.8,1.9c0.3,0.1,0.8,0.2,1.1,0.2c-0.1,0.3-0.4,0.8-0.6,1.1c0,0-0.1-0.1-0.1-0.1
		c-0.5-0.6-1-1.6-1.9-1.4c-0.6,0-1.1,0.4-1.5,0.8c-0.1-0.2-0.2-0.5-0.3-0.7c0.1-0.3,0.2-0.6,0.3-0.8l-0.5,0c-0.2,0-0.6,0-0.8,0
		c0,0.2-0.1,0.5-0.2,0.6c-0.9,0.3-0.8,1.4-1,2.1c0.2,0,0.7-0.1,1-0.1c-0.1-0.3-0.2-0.8-0.3-1.1c0.2-0.2,0.5-0.5,0.6-0.7
		c0.3,0.4,0.6,0.7,0.8,1.1c-0.2,0.5-0.5,1-0.6,1.5c0.2,0.5,0.4,0.9,0.6,1.3c0.2,0.4,0.5,0.9,0.7,1.3c-0.1,0.1-0.3,0.4-0.4,0.5
		c-0.1-0.2-0.3-0.5-0.4-0.7c0,0.5-0.1,0.9-0.1,1.4c-0.3,0.2-0.6,0.5-0.9,0.7c-0.3,0-0.6,0.1-1,0.1c0-0.2-0.1-0.5-0.1-0.6
		c-0.1-0.5-0.2-0.9-0.3-1.4c-0.1,0-0.4,0-0.6,0l-0.1,0.2c0,0.1,0,0.4-0.1,0.6l0.1,0.5c-0.4,0.2-0.8,0.5-1.3,0.7L95.8,62
		c-0.2,0-0.5,0.1-0.7,0.2L95,62.4c-0.2,0.4-0.5,0.7-0.7,1.1c0.2,0.1,0.6,0.3,0.7,0.4l0.1,0.1c0,0.1,0,0.4,0,0.6c-0.2,0-0.6,0-0.8,0
		c-0.4,0.4-0.8,0.7-1.2,1c-0.4-0.3-0.8-0.6-1.2-0.9c0.1,0.9,0.3,1.8,0.9,2.6c0.1,0.5-0.1,1-0.6,1.3c-0.3-0.1-0.6-0.3-0.9-0.4
		c0,0.2-0.1,0.7-0.1,0.9c-0.3-0.1-0.5-0.2-0.8-0.2c0,0.2,0,0.6,0,0.8c-0.2,0.3-0.5,0.5-0.7,0.8c0,0.2,0,0.6,0,0.8
		c-0.1-0.1-0.4-0.2-0.5-0.2c-0.2,0.1-0.5,0.3-0.7,0.4c0.2,0.1,0.5,0.2,0.7,0.3c-0.1,0.4-0.3,0.7-0.4,1.1c-0.2-0.1-0.6-0.2-0.8-0.2
		c0,0.2,0.1,0.6,0.1,0.7c0.6,0,1.2,0,1.8,0l0.3,0c0.1,0.2,0.2,0.5,0.2,0.7c-0.1,0.2-0.3,0.3-0.4,0.5c-0.4-0.5-0.8-0.6-1.3-0.3
		c-0.1,0-0.3,0.1-0.3,0.1c0.1,0.3,0.3,0.6,0.4,1c-0.1,0.1-0.3,0.3-0.4,0.4c0.3,0.2,0.6,0.4,1,0.7c-0.4,0.3-0.8,0.6-1.1,1
		c0.5-0.4,1.1-0.7,1.7-1c-0.5,0-1.3-0.5-0.6-0.9c0.7-0.4,1.5-0.1,2.2,0c0.1,0.1,0.3,0.3,0.4,0.4c0.1,0.1,0.3,0.3,0.4,0.4l0.2-0.1
		L92,76c-0.3-0.3-0.6-0.5-0.9-0.8c0.4,0,0.8,0,1.1-0.1c0.1,0.1,0.3,0.3,0.5,0.4c0-0.1,0-0.4,0-0.5c-0.1-0.1-0.2-0.4-0.2-0.5
		c0-0.3,0.1-0.6,0.2-0.9c-0.1-0.1-0.3-0.3-0.4-0.4c0-0.7,0-1.4,0.1-2c0.5,0.1,0.8,0.4,1.1,0.8c0.2-0.1,0.5-0.2,0.7-0.3l0.2,0.1
		c0.5,0.4,1.1,0.8,1.4,1.4c-0.2,0.9-0.9,1.6-1.4,2.3c0,0,0.1,0.1,0.2,0.2c-0.3,0.2-0.7,0.5-1,0.7c-0.1-0.3-0.1-0.7-0.1-1l-0.1,0
		c-0.1,0.4-0.1,0.8-0.2,1.2c-0.4,0-0.7,0.1-1.1,0.1c-0.1,0.7-0.2,1.4-0.3,2.2L91.1,79c-0.2,0.1-0.5,0.1-0.7,0.2
		c-0.4,0.6,0.3,1,0.5,1.5c-0.1,0.3-0.3,0.5-0.4,0.8c-0.3-0.6-0.9-0.9-1.5-1.1c0,0.2,0,0.6-0.1,0.9c-0.5,0.2-1,0.5-1.6,0.7
		c0.3,0.3,0.7,0.7,1,1c-0.1,0.6,0.3,1.8-0.7,1.6c-0.1-0.2-0.4-0.5-0.5-0.7c-0.1,0.2-0.4,0.6-0.5,0.7c-1,0.1-2-0.4-3-0.2
		c-1.3,0.4-2.7,0.1-4.1,0.2c0,0.1,0,0.2,0,0.3c0.2,0,0.5,0,0.7,0.1c1.2,0.6,2.5,0.4,3.8,0.5c0,0.2,0,0.7,0,1c0.3-0.3,0.6-1,1.2-0.8
		c0.3,0.2,0.7,0.4,1,0.6c0.2-0.4,0.4-0.7,0.6-1.1c0.2,0.4,0.3,0.9,0.5,1.3c0.1-0.1,0.3-0.3,0.3-0.4c0.1-0.1,0.3-0.4,0.4-0.5
		c0.4,0,0.9,0,1.3,0c0.2,0.2,0.5,0.6,0.7,0.8c0.1-0.6,0.2-1.2,0.3-1.8c0.2,0.2,0.5,0.4,0.7,0.5c-0.1,0.1-0.3,0.4-0.4,0.6
		c0.1,0.1,0.4,0.4,0.6,0.5c-0.1,0.4-0.1,0.8-0.2,1.3c0.3,0.1,0.6,0.3,1,0.4c-0.1,0.1-0.4,0.4-0.5,0.6c0.2,0.4,0.7,0.8,0.4,1.4
		c-0.2,0.1-0.6,0.2-0.8,0.3c0,0.2-0.1,0.5-0.1,0.7c0,0.3-0.1,0.9-0.2,1.2c0.2-0.1,0.5-0.2,0.7-0.2c0.7-0.9,1.2-1.9,1.9-2.8
		c0.6,0.6,1.2,1.3,1.1,2.2c0,0.8-0.1,1.7,0.5,2.4c-0.3,0-0.8,0.1-1.1,0.1c0,0.4,0,0.8,0,1.2c0.6,0,1.1,0,1.7,0
		c0.1,0.5-0.1,0.9-0.5,1.1c0.6-0.2,1.2-0.3,1.6,0.4c0,0.2-0.1,0.5-0.1,0.7c-0.1,0.7-0.2,1.3-0.3,2c0.2,0.2,0.5,0.4,0.7,0.5
		c0.3,0.1,0.6,0.1,0.9,0.2c-0.2,0.4-0.2,0.8-0.3,1.2c0.7,0.1,1.5-0.1,2.1,0.3c0.3,0.4,0.7,0.7,0.8,1.1c0,0.6-0.3,1.1-0.5,1.6
		c-0.5,0-1,0-1.4,0.1c-0.1,0.7,0,1.5,0,2.2c0.8-0.5,1.3-1.4,1.9-2.1c0.8,0.6,1.8,0.7,2.8,0.6c0.1-0.1,0.3-0.3,0.3-0.4l0.3-0.4
		c0.2-0.7,0.4-1.5,0.6-2.2c-0.3,0.1-0.7,0.1-1,0.2c0.1-0.2,0.3-0.5,0.5-0.7c0.1-0.2,0.2-0.6,0.2-0.9c0-0.2,0.1-0.5,0.1-0.7
		c-0.4-0.3-0.7-0.5-1.1-0.7c-0.6-0.4-1.1-0.9-1.6-1.4c-0.4-0.3-0.8-0.6-1.2-0.9c-1.4-1.2-2.7-2.6-3.9-4c-0.2,0-0.7-0.1-0.9-0.1
		c0.1,0.3,0.2,1,0.2,1.4c-0.2,0-0.6,0.1-0.8,0.2c0-0.6-0.1-1.2-0.4-1.8c0.4-0.1,0.8-0.2,1.2-0.3c-0.2-0.6-0.5-1.1-0.7-1.7
		c-0.3-0.2-0.5-0.3-0.8-0.4c0.2-0.5,0.6-0.9,0.6-1.4c-0.5-0.7-0.9-1.4-1.1-2.2c0.2-0.3,0.4-0.6,0.6-0.8c0.1-0.1,0.2-0.3,0.3-0.3
		c-0.3,0-0.9,0-1.2,0c0-1.1,0-2.3,0.1-3.4c0.2,0,0.7-0.1,1-0.1c-0.2-0.2-0.5-0.7-0.7-0.9c0.5-1.6,1.4-3,2-4.5c0-0.2-0.1-0.5-0.1-0.7
		c0.3,0.1,0.5,0.1,0.8,0.2c0.2-0.4,0.4-0.7,0.5-1.1c-0.3,0-0.9,0-1.2,0c0.1-0.2,0.2-0.5,0.3-0.7c0.5,0.1,1,0.3,1.5,0.3
		c0.4-0.7,0.2-1.6,0.5-2.4c-0.2,0.1-0.7,0.2-0.9,0.3c0.3-0.2,0.5-0.3,0.8-0.5l-0.2-0.2c0.2-0.2,0.5-0.5,0.6-0.6
		c0.4-0.2,0.9-0.3,1.3-0.5c0.3,0.3,0.6,0.5,0.9,0.8c0.6,0.1,1.1-0.2,1.6-0.6c0.6,0.1,1.2,0.1,1.8,0c0.7-0.1,1.3-0.2,2-0.2
		c0-0.4-0.1-0.8-0.1-1.2c0.2-0.1,0.5-0.3,0.7-0.4c0-0.2,0-0.6,0-0.8c1.3-0.6,2.6-1.3,3.9-1.9c0.9-0.4,1.8-0.8,2.7-1.1
		c0.5-0.2,1-0.4,1.5-0.6c0.4,0.2,0.9,0.9,1.3,0.4c0.6-0.8,1.5-1.2,2.4-1.6c0.8-0.3,1.7-0.5,2.5-0.7c0.8-0.2,1.7-0.4,2.5-0.5
		c-0.2,0.2-0.6,0.6-0.8,0.8c0.3,0,1,0.1,1.3,0.1l-0.3,0.2l-0.3,0.2c-0.1,0.1-0.3,0.2-0.4,0.3l0-0.5c-0.4,0.1-0.8,0.3-1.1,0.6
		c-0.5,0.1-1.2-0.1-1.4,0.5c0,0.4,0,0.7,0,1.1c-0.2,0.2-0.5,0.4-0.7,0.6c-0.2,1.2-0.8,2.3-0.7,3.5c0.1,0.6,0.3,1.2,0.5,1.7
		c1,2.1,2.1,3.9,4.2,5c1.4,0.7,2.5,1.3,5.1,1.2c1.8-0.3,3.1-0.8,4-1.9c1.6-1.7,2.4-3.2,3.1-6.3c0.1-2.5,0-5.1,0.2-7.6
		c0.1-0.6,0.2-1.2,0.3-1.8c0.2,0.2,0.5,0.5,0.7,0.7c0.5,1,0.9,2.1,1.5,3.1c0.5,0.2,0.7-0.1,1.3,0l0.5-0.1c1.5-0.1,3,0.1,4.5,0.4
		c0.2-0.4,0.3-0.7,0.5-1.1c0.3-0.6,0.5-1.1,0.8-1.7c0.1-0.3,0.3-0.5,0.4-0.8c0.1,0,0.6-1.2,0.7-1.2l0,1c0,1.1-0.1,2.2,0.3,3.2
		c-0.1,0.9-0.1,1.7,0,2.6c0.2,1.4-0.2,2.9,0.3,4.3l0.4,0.4c0.1,0.5,0.1,0.9,0.2,1.4c0.5,0.4,0.9,0.9,1.3,1.4c0,0,0,0.1,0,0.1
		c0.6,1.6,1.7,1.8,3.1,2.5c1.2,0.5,2.8,0.8,4.4,0.4l0.5-0.2l0.3-0.1c1.7-0.7,3-1.9,4.4-2.9c1.2-1.5,1.6-3.4,1.3-5.3
		c0.6,0.1,1.1-1-0.1-0.3c-0.3-1.2-0.9-2.2-1.5-3.3c-0.3-0.4,0.1-0.8,0.3-1.1c0.2,0.2,0.6,0.6,0.8,0.8c0.6,0.7,1.5,0.9,2.3,1.1
		c0,0.2,0,0.6,0.1,0.8c0.5-0.4,0.7-1,0.6-1.7l0-0.4c0.9,0.1,1.8,0.3,2.7,0.7c1,0.6,2,1,3.1,1.3c0.2,0.6,0.5,1.1,0.9,1.6
		c0.1,0,0.2,0,0.3,0l0.2-0.6c0.8,0,1.5,0.2,2.2,0.5c2.1,1.1,4.1,2.2,6.1,3.5c0.2-0.1,0.5-0.2,0.7-0.2c0.2,0.7,0.7,1.2,1.2,1.5
		c-0.2,0.1-0.6,0.4-0.7,0.6c0,0.1,0,0.4-0.1,0.5c0.5-0.2,1-0.7,1.5-0.2c2.2,1.9,4.2,4.4,5,7.2c0.1,0.5,0.3,1.1,0.4,1.6
		c0.1,0.7,0.2,1.4,0.3,2.2c0.1,0,0.3,0,0.3,0.1c-0.5,0.7-1,1.5-0.9,2.4c-0.1,0.1-0.3,0.3-0.3,0.4c-0.4,0.3-0.8,0.6-1.2,0.9
		c-0.3-0.3-0.6-0.7-0.8-1c-0.3,0-0.6,0-0.9,0.1c-0.1,0.4-0.1,0.8-0.1,1.1c0.5,0,1-0.2,1.5-0.4c0.2,0.3,0.5,0.5,0.8,0.8
		c0.1,0.1,0.4,0.4,0.5,0.5c-0.2,0.4-0.4,0.9-0.5,1.4c-0.7,0.1-1,0.8-0.7,1.4c-0.3,0.4-0.7,0.8-1,1.2c-0.3,0.4-0.4,0.9-0.8,1.1
		c-0.6,0.1-1.2,0-1.7,0l0.2,0.4c0.2,0.2,0.4,0.5,0.6,0.7c-0.7,0.6-1.4,1.9-2.4,1.3c0,0.2,0.1,0.5,0.1,0.7c-0.2,0-0.6,0.1-0.8,0.1
		c-0.6,1-1.5,1.8-2.5,2.4l-0.4,0c-0.2-0.1-0.7-0.2-0.9-0.3c-0.5,0.1-1,0-1.5-0.1C177,99.3,176.6,99.2,176.8,99.6z M100.8,100.6
		c0.3-0.5,1.2,0,0.8,0.5C101.3,101.5,100.4,101.1,100.8,100.6z M181.9,65.6c0.5,0.1,1,0.3,1.4-0.2c-0.4-0.1-0.8-0.2-1.1-0.3
		c-0.1-0.2-0.2-0.6-0.2-0.8c0-0.1,0.1-0.4,0.1-0.6c0.1,0.2,0.2,0.5,0.3,0.6c0.3,0.1,0.6,0.3,0.9,0.4c0.1,0.1,0.2,0.4,0.3,0.5
		c0.2,0.3,0.4,0.7,0.6,1c-0.2,0-0.5,0-0.7-0.1c-0.1,0-0.3,0.1-0.4,0.2c-0.5-0.3-1-0.6-1.5-0.9C181.6,65.5,181.8,65.5,181.9,65.6z
		 M135.8,54.6c-0.4,0-0.8,0.1-1.2,0.1c-0.5,0.6-1,1.1-1.8,1.4c0,0.1,0.1,0.4,0.1,0.6l0,0c-0.6-0.1-1.3-0.4-1.7,0.1
		c-0.5,0.4-0.1,1.1-0.1,1.7c-0.4,0.2-0.7,0.4-1.1,0.6c-0.1-0.2-0.3-0.5-0.4-0.7c-0.1-0.1-0.2-0.4-0.2-0.5c0.4-0.7,0.8-1.4,1.4-1.9
		c-0.2-0.1-0.6-0.3-0.8-0.4c0.2-0.1,0.6-0.3,0.7-0.5c0.1,0,0.4-0.1,0.6-0.1c0.1,0.1,0.2,0.2,0.3,0.3c0.3,0.5,0.8,0.5,1.2,0.4
		c0-0.2-0.1-0.5-0.1-0.6c-0.1-0.1-0.4-0.4-0.5-0.5c0.1-0.2,0.3-0.6,0.4-0.9c0.4,0.1,0.9,0.2,1.3,0.4l0.1-0.2
		C134.7,54.1,135.3,54.3,135.8,54.6z M129.7,54.6c0.1,0.4,0.2,0.9,0.3,1.3c-0.2,0.1-0.5,0.2-0.7,0.2c-0.1-0.5-0.3-0.9-0.4-1.4
		C129,54.7,129.5,54.6,129.7,54.6z M88.9,72.5c0.6-0.7,1.5-0.2,2.1,0.2c0-0.3-0.1-0.9-0.1-1.3c0.5,0.3,0.6,0.9,1.3,0.8
		c-0.3,0.2-0.6,0.4-0.9,0.6C90.5,72.9,89.6,72.7,88.9,72.5z M133.2,100.4c-0.2-0.1-0.6-0.4-0.8-0.5c0-0.1,0.1-0.4,0.1-0.6
		C133.2,99.1,133.6,99.9,133.2,100.4z M137.9,109.4c0-0.4,0.1-0.8,0.2-1.1c0.3,0.3,0.6,0.7,0.7,1.1
		C138.6,109.4,138.1,109.4,137.9,109.4z M147.8,110.8c0.2-0.1,0.6-0.2,0.8-0.3C148.9,111.3,147.7,111.8,147.8,110.8z"/>
	<path d="M203.3,87.1c0.2-0.3,0.5-0.8,0.7-1.1c-0.6,0.4-1.3,0.6-1.5-0.2c0,0.3,0,0.8,0,1.1c-1,0-2.2-0.1-3.1,0.6
		c-0.8,0.5-1.2,1.8-0.5,2.6c0.7,0.7,1.7,1.2,2.7,0.8c1.5-0.2,2.4-1.5,3.3-2.5c-0.1-0.3-0.3-0.7-0.4-1
		C204.3,87.3,203.8,87.2,203.3,87.1z"/>
	<path d="M205.3,86.2c-0.1,0.1-0.2,0.2-0.3,0.3C205.2,87.6,206.4,86.1,205.3,86.2z"/>
	<path d="M138.2,87.3c0.4-0.4-0.3-1.1-0.7-0.7C137,87,137.8,87.8,138.2,87.3z"/>
	<path d="M207.6,87.1c0.2,0,0.4,0,0.6,0C208.5,86.2,207.1,86.3,207.6,87.1z"/>
	<path d="M87.7,88.8c-0.2-0.6-0.5-1.2-0.7-1.8c-0.4,0-0.8,0-1.2,0c0,0.2,0,0.5,0,0.7c0.2,0.1,0.5,0.2,0.6,0.3
		c0.1,0.4,0.3,0.8,0.5,1.2C87.1,89.1,87.5,88.9,87.7,88.8z"/>
	<path d="M98.5,87.5c-0.1,0.5,0,0.7,0.6,0.5C99.2,87.5,99,87.3,98.5,87.5z"/>
	<path d="M104.5,88.4c0.2,0,0.7,0,0.9,0c-0.1-0.2-0.2-0.6-0.3-0.8C104.6,87.7,104.4,87.9,104.5,88.4z"/>
	<path d="M97.6,91.5c0.6-0.3,0.8-1,0.7-1.6c-0.3,0-0.8,0-1,0.1c0-0.4,0.3-1-0.2-1.2c0,0.3,0.1,0.9,0.2,1.2c-0.2,0-0.6-0.1-0.8-0.1
		c0,0.2,0,0.5,0,0.6c0.2,0,0.7,0,1,0C97.3,90.9,97.4,91.2,97.6,91.5z"/>
	<path d="M187,89.1c-0.2,0.5,0,0.7,0.5,0.5C187.7,89.1,187.6,88.9,187,89.1z"/>
	<path d="M80.4,95.5l0,0.1l0.2,0.2c0.5,0.3,0.9,0.8,1.5,0.8c1.1-0.4,1.4-1.8,1.1-2.8c0-0.4-0.1-0.9-0.2-1.3c0.1-0.1,0.4-0.4,0.5-0.6
		c-0.1-0.1-0.4-0.2-0.6-0.3c0-0.5,0-0.9,0-1.4c-0.1-0.9-0.2-1.7-0.4-2.6c-0.6-0.6-1.1,0.5-1.3,1c0.2,0.1,0.7,0.4,0.9,0.6
		c-0.1,1.3-0.5,2.6-0.7,3.9C80.7,93.8,80.3,94.5,80.4,95.5z"/>
	<path d="M124.3,89.9c0.2-0.5,0-0.7-0.5-0.5C123.6,89.9,123.8,90.1,124.3,89.9z"/>
	<path d="M152.1,89.9c0.2-0.5,0-0.7-0.6-0.5C151.4,89.9,151.6,90,152.1,89.9z"/>
	<path d="M185.3,90.8c0.1-1.1-1.5-0.7-1.3,0.2c0.2,0,0.7,0.1,0.9,0.2c0.2,0.3,0.4,0.7,0.6,1c0.1,0,0.4-0.1,0.5-0.2
		c-0.4-0.3-0.8-0.6-1.1-1c0.4,0,1.1,0.1,1.4,0.1C186,90.9,185.7,90.9,185.3,90.8z"/>
	<path d="M135,90.4c-0.2,0.5,0,0.7,0.5,0.5C135.7,90.4,135.5,90.2,135,90.4z"/>
	<path d="M198.6,90.4c-0.5,0-0.6,0.9-0.1,0.9C199,91.3,199.2,90.4,198.6,90.4z"/>
	<path d="M85.8,91c-0.2,0.5,0,0.7,0.5,0.5C86.5,91,86.3,90.9,85.8,91z"/>
	<path d="M187.1,91c-0.2,0.5,0,0.7,0.5,0.6C187.8,91,187.6,90.9,187.1,91z"/>
	<path d="M126.4,91.3c-0.1,0.1-0.2,0.3-0.3,0.4C126.3,92.8,127.6,91.1,126.4,91.3z"/>
	<path d="M148.6,91.3c-0.2,0-0.7,0-0.9,0c0,0.2,0.1,0.7,0.1,0.9c0.2,0,0.6,0,0.9,0C148.6,92,148.6,91.5,148.6,91.3z"/>
	<path d="M203.1,91.4c-0.4,0.3,0.1,1,0.5,0.7C204,91.8,203.5,91,203.1,91.4z"/>
	<path d="M85.6,92.4c0.3-0.4-0.4-1-0.8-0.7C84.7,92.1,85.2,92.6,85.6,92.4z"/>
	<path d="M144.8,92.9c0.3-0.3,0.3-0.8,0.4-1.2c-0.3,0.1-0.6,0.2-0.9,0.4C144.2,92.4,144.1,93.2,144.8,92.9z"/>
	<path d="M166.7,118c-0.4-0.3-0.6,0.2-0.9,0.4c0.2,0.3,0.5,0.6,0.8,0.8C166.9,118.9,167.3,118.2,166.7,118z"/>
	<path d="M88.5,92.8c0.5-0.1,0.3-1-0.2-0.8C87.8,92.1,88,93,88.5,92.8z"/>
	<path d="M92.5,92c-0.5,0.1-0.3,0.8-0.1,1.1c0.4,0,0.7-0.1,1.1-0.1C93.5,92.4,93.2,91.7,92.5,92z"/>
	<path d="M186.6,92c-0.2,0.5,0,0.7,0.5,0.6C187.2,92,187.1,91.9,186.6,92z"/>
	<path d="M91.4,92.4c-0.5-0.6-1.2-0.1-1.8,0.1c0,0.2,0.1,0.7,0.2,1c-1.1,0.4-1.6,1.4-1.6,2.4c0.2,0.3,0.5,0.5,0.7,0.7
		c0.2-0.1,0.6-0.4,0.7-0.6c0-0.5,0.1-1,0.2-1.5c0.1-0.2,0.2-0.5,0.3-0.6l0.5,0.5C91,93.9,91.2,93.2,91.4,92.4z"/>
	<path d="M183.2,94.4c0.4,0.4,0.7,0.4,1-0.1c0.1-0.1,0.2-0.4,0.3-0.5c0.1-0.1,0.4-0.3,0.5-0.4c0-0.3-0.1-0.6-0.1-0.8
		c-0.4,0-0.8,0-1.2,0c-0.1,0.6,0.1,1.1,0.4,1.6c-0.4,0-0.9,0.1-1.3,0.2L183.2,94.4z"/>
	<path d="M98.6,93.4c0.4-0.3,0-1.1-0.4-0.7C97.8,93,98.2,93.8,98.6,93.4z"/>
	<path d="M85.9,92.9c-0.6-0.4-1.1,0.6-0.8,1C85.5,93.9,86.2,93.4,85.9,92.9z"/>
	<path d="M139.8,93.3c-0.4,0.1-0.7,0.5-0.5,0.9C139.7,94.6,140.5,93.4,139.8,93.3z"/>
	<path d="M84.1,93.6c-0.4,0.1-0.4,0.8,0,0.8C84.6,94.3,84.6,93.6,84.1,93.6z"/>
	<path d="M136.2,94.3c0.4-0.3,0.4-0.6,0.1-0.8C135.7,93.7,135.7,94,136.2,94.3z"/>
	<path d="M177.7,94.7c0.5-0.3-0.1-1.2-0.5-0.8C176.8,94.2,177.2,95,177.7,94.7z"/>
	<path d="M85.7,94.2c-0.6,0.2,0,1.2,0.5,1C86.4,94.9,86.2,94.2,85.7,94.2z"/>
	<path d="M92.3,95c0.5-0.1,0.2-0.9-0.2-0.8C91.6,94.4,91.8,95.2,92.3,95z"/>
	<path d="M142,95.1c-0.2,0.5,0,0.7,0.5,0.5C142.7,95.1,142.5,94.9,142,95.1z"/>
	<path d="M145.7,96.1c0.7,0.1,1.1-1.3,0.2-1C145.6,95.3,145.2,96,145.7,96.1z"/>
	<path d="M103.7,96.4c-0.3,0.2-0.2,0.9,0.2,0.9C104.5,97.2,104.3,96.1,103.7,96.4z"/>
	<path d="M82.6,99.3c0.3,0,0.8,0,1,0c0-0.2-0.1-0.7-0.1-0.9c0.2-0.3,0.5-0.6,0.7-0.8C83.1,97.2,83,98.6,82.6,99.3z"/>
	<path d="M180,98.2c0.4-0.3,0-1.2-0.5-0.8C179,97.7,179.5,98.6,180,98.2z"/>
	<path d="M85.1,98.1c-0.2,0.5,0,0.7,0.5,0.5C85.8,98.1,85.6,97.9,85.1,98.1z"/>
	<path d="M93.2,99.2c0.1,0.1,0.2,0.3,0.3,0.3c0.1,0.1,0.3,0.3,0.4,0.4c-0.2,0.1-0.8,0.2-1,0.2c0,0.1-0.1,0.3-0.1,0.4
		c0.6,0.2,1.1,0.5,1.6,0.9l-0.4,0.2c0,0.2,0.1,0.5,0.1,0.7c0.2,0,0.7-0.1,0.9-0.1c-0.2-0.3-0.3-0.6-0.5-0.9c0.1-0.1,0.4-0.2,0.5-0.3
		c0.1-0.1,0.2-0.3,0.2-0.4c-0.4-0.3-0.7-0.6-1.1-0.9c0.1-0.2,0.2-0.6,0.3-0.8c-0.1,0-0.4-0.1-0.5-0.1c0.1-0.2,0.2-0.5,0.2-0.6
		C93.8,98.6,93.5,98.9,93.2,99.2z"/>
	<path d="M91,101.1c0.1-0.1,0.4-0.4,0.5-0.6c-0.2-0.3-0.4-0.6-0.7-0.9c0.3,0.1,0.7,0.2,1,0.3c0.1-0.5,0-0.9-0.5-1.3
		c-0.8,0.4-1.1,1.2-1.2,2c0.1,0,0.4,0,0.5,0C90.8,100.8,91,101,91,101.1z"/>
	<path d="M106.8,99c-0.2,0-0.5-0.1-0.6-0.1C105.8,99.7,107.2,99.9,106.8,99z"/>
	<path d="M86.7,99.9c0.3,0.5,1.2-0.1,0.9-0.6C87.1,98.9,86.6,99.4,86.7,99.9z"/>
	<path d="M110.4,100.8c0.3,0.5,0.5,1.1,0.5,1.7c0.2-0.7,1.1-0.1,1.6-0.3c-0.4-0.3-0.8-0.5-1.3-0.8c0.1-0.8,0.3-1.5,0.4-2.3
		c-0.3,0.5-0.7,1-1,1.5c-0.4,0.1-1.1,0.1-1.1,0.7C109.7,101.3,110.2,101,110.4,100.8z"/>
	<path d="M192.9,100c-0.4,0.4,0.3,1.1,0.8,0.7C194.1,100.3,193.3,99.6,192.9,100z"/>
	<path d="M110.5,103.7c0.2,0,0.7-0.1,1-0.1c0.1-0.4-0.2-0.5-0.6-0.6c-1.4-0.5-2.7-1.3-4-2c-0.4-0.2-0.7-0.4-1.1-0.6
		c-0.1,0.2-0.3,0.8-0.4,1c0.2,0.4,0.5,0.7,0.7,1.1c-0.3,0.4-0.6,0.8-0.9,1.2c0.3,0,0.5-0.1,0.8-0.1c0,0.1-0.1,0.2-0.1,0.3
		c-0.4,0.5-0.7,1.1-0.6,1.8c0.1,0.5,0.2,0.9,0.3,1.4c0.1,0.6-0.1,1.2-0.4,1.7c-0.8,1.4-1.2,3-1.9,4.5c0.3-0.1,0.7-0.2,0.9-0.6
		c0.5-0.9,0.7-1.9,0.9-2.9c0.2,0,0.6,0.1,0.8,0.1c0-0.1,0-0.2,0-0.3c-0.2,0-0.6,0-0.8,0c0.3-0.6,0.6-1.3,1-1.8
		c0.7-0.5,1.8-0.7,2-1.7c0.1-0.7,0.1-1.3,0.1-2c1.1,0,2.3-0.1,3.3,0.7c0.3-0.3,0.6-0.7,0.8-1.1C111.7,103.9,111.1,104,110.5,103.7z"
		/>
	<path d="M80.3,100.9c0,0.2,0,0.5,0,0.6c-0.2,0.6,1,0.5,0.9,0C81.4,101,80.6,101.1,80.3,100.9z"/>
	<path d="M89,100.9c-0.3,0.4,0.4,0.9,0.7,0.5C90.1,101,89.3,100.5,89,100.9z"/>
	<path d="M195.2,101.3c0.1,0.3,0.1,0.7,0.2,1c0.1,0.1,0.4,0.3,0.5,0.4c0.2-0.6,0.3-1.2,0.4-1.8c-0.3,0-0.8,0-1,0L195.2,101.3z"/>
	<path d="M190,101.9c-0.2,0.5,0,0.7,0.5,0.5C190.7,101.9,190.5,101.8,190,101.9z"/>
	<path d="M82.2,102.6l-0.3,0c0.1,0.4,0.2,0.7,0.3,1.1c-0.1,0.1-0.2,0.4-0.3,0.6c0.5-0.1,1.1,0,1.6-0.2c0.4-0.4-0.1-0.6-0.3-0.8
		c0.2-0.4,0.4-0.8,0.5-1.2C83.2,102.4,82.7,102.5,82.2,102.6z"/>
	<path d="M91.7,103c0.4,0,0.7,0,1.1,0.1c0,1,0.9,0.5,1.3,0c-0.4-0.5-0.8-0.9-1.4-1.2c0,0.2,0,0.7-0.1,1c-0.4,0-0.7,0.1-1.1,0.1
		c0.1,0.2,0.2,0.5,0.3,0.7c-0.2,0-0.7-0.1-0.9-0.1l-0.2,0c0,0.2,0,0.6-0.1,0.8c0,0.2,0,0.6,0,0.8c0.1-0.4,0.2-0.8,0.3-1.2
		c0.6,0.1,1.1,0.3,1.6,0.5C92.4,104.2,91.7,103.6,91.7,103z"/>
	<path d="M191.3,102.5c0,0.2-0.1,0.7-0.1,0.9c0.2,0,0.7-0.1,1-0.1C192.3,102.8,191.8,102.4,191.3,102.5z"/>
	<path d="M100.3,103.4c0.1-0.5,0-0.7-0.6-0.6C99.6,103.3,99.8,103.5,100.3,103.4z"/>
	<path d="M95.1,106.2c0-0.6,0.1-1.4-0.6-1.5c-0.2,0.6-0.5,1.1-0.8,1.6c0.7,0.3,1.4,1.5,2.1,0.7C95.6,106.7,95.3,106.5,95.1,106.2z"
		/>
	<path d="M110.9,105.6c-0.4,0-0.6,0.2-0.6,0.6l0.3,0.2C111.1,106.6,111.6,105.8,110.9,105.6z"/>
	<path d="M100.3,109.2c0.4-0.7,0.7-1.4,1-2.2c-0.2,0-0.6,0-0.8,0C100.1,107.6,99,109.3,100.3,109.2z"/>
	<path d="M101.9,108.2c0.1,0.2,0.4,0.5,0.5,0.7c0.4-0.3,1.2-0.9,0.7-1.4C102.5,107.1,102.2,107.9,101.9,108.2z"/>
	<path d="M185.7,108.5c1.3,0,2.5,0.8,3.3,1.8c0.2-0.1,0.5-0.4,0.7-0.5c-1.3-1-2.6-2.1-4.2-2.6C185.6,107.6,185.7,108.1,185.7,108.5z
		"/>
	<path d="M108.9,107.4c-0.3,0.1-0.5,0.3-0.6,0.7C108.8,108.8,109.8,107.7,108.9,107.4z"/>
	<path d="M192,109.3c0.1,0.4-0.1,0.9,0.3,1.1c0.5,0.2,0.7-0.3,1-0.5C192.9,109.4,192.5,109.2,192,109.3z"/>
	<path d="M118.5,110.1c0.2-0.5,0-0.7-0.5-0.5C117.9,110.1,118,110.3,118.5,110.1z"/>
	<path d="M178,111.8l0.4,0.3c-0.1,0.1-0.3,0.4-0.4,0.5c-0.1,0-0.3,0.1-0.4,0.2c-0.4-0.6-0.3-1.3-0.3-1.9c0.3-0.3,0.5-0.5,0.8-0.8
		c-0.2,0-0.5,0-0.7-0.1c-0.1,0.5-0.3,0.9-0.7,1.2c-0.3-0.5-0.3-1.4-1-1.5c-0.1,0.5-0.1,1-0.1,1.6c0.3,0.9-0.3,1.4-1,1.8l0.6-0.2
		c-0.3,0.7-0.6,1.3-0.9,2c0.2,0,0.4,0,0.6,0l0.2-0.5c0.6-1,0.8-2.3,1.3-3.3c0.1,0.6,0.2,1.2,0.4,1.7c0.4,0.6,1.2,0.9,1.8,1.2
		c0-0.1,0-0.3,0-0.3c-0.2-0.1-0.6-0.2-0.8-0.2c0.5-0.3,1-0.7,1.4-1.2c-0.4-0.3-0.8-0.6-1.1-0.9C178,111.5,178,111.6,178,111.8z"/>
	<path d="M101.7,110.4l-0.1,0.3c0.1,0.1,0.3,0.3,0.4,0.4C102.5,111,102.3,110.1,101.7,110.4z"/>
	<path d="M179.8,110.5c-0.2,0.7,0,1.5,0.2,2.1c0.3,0.3,0.7,0.6,1,0.9c0-0.5,0-0.9,0.1-1.4C180.3,111.8,180.7,110.6,179.8,110.5z"/>
	<path d="M186,110.4l0,0.5c0,0.2,0,0.6,0,0.8C187.1,112,187,110.3,186,110.4z"/>
	<path d="M107.1,111.8c0.7,0,1.3-0.3,1.6-1c-0.3,0-0.9,0-1.2,0C107.3,111.1,107.2,111.4,107.1,111.8z"/>
	<path d="M112.6,110.9c-0.2,0.5,0,0.7,0.6,0.5C113.3,110.9,113.1,110.7,112.6,110.9z"/>
	<path d="M118.6,111.6c0.5,0,1.1,0.1,1.6,0.1c0-0.2,0-0.7-0.1-0.9C119.6,110.5,119.1,111.3,118.6,111.6z"/>
	<path d="M182.3,113.6c0.3-0.5,0.2-1.2,0.1-1.7c-0.2,0.3-0.5,0.4-0.8,0.4C181.5,112.8,181.8,113.3,182.3,113.6z"/>
	<path d="M166.7,112.4c-0.6,0.2-0.4,1,0.2,0.9C167.6,113.3,167.4,112.1,166.7,112.4z"/>
	<path d="M130.2,113c-0.3,0.3,0.1,1,0.5,0.8C131.1,113.5,130.7,112.7,130.2,113z"/>
	<path d="M172.4,113.1c-0.2,0.5,0,0.7,0.5,0.5C173.1,113.1,172.9,112.9,172.4,113.1z"/>
	<path d="M179.4,113.6c0.5,0.1,0.7-0.1,0.6-0.6C179.4,112.9,179.2,113.1,179.4,113.6z"/>
	<path d="M95.7,113.4c-0.3,0.5,0.5,0.9,0.8,0.5C96.9,113.4,96,113,95.7,113.4z"/>
	<path d="M169.9,113.9c-0.3,0.1-0.5,0.3-0.6,0.6C169.9,115.4,170.9,114.3,169.9,113.9z"/>
	<path d="M182.1,114.4l-0.5-0.4c-0.1,0-0.2,0.1-0.3,0.1c0.1,0.1,0.3,0.3,0.5,0.5c-0.2,0.4-0.4,0.7-0.7,1.1c0.5,0,0.9-0.2,1.1-0.8
		c0.2,0.3,0.3,0.7,0.5,1.1c0.1,0.2,0.3,0.5,0.4,0.7c0.1-0.4,0.1-0.9,0.2-1.3l-0.7,0c0.1-0.8,1.1-0.5,1.1-1.4
		C183.2,114,182.6,114.1,182.1,114.4z"/>
	<path d="M127.2,115.3c0.1,0.6,0.8,0.2,1-0.1c0-0.1-0.1-0.4-0.1-0.5C127.8,114.6,127.2,114.8,127.2,115.3z"/>
	<path d="M97,115.1c-0.8-0.1-0.6,1.3,0.2,1.2C98,116.1,97.7,115,97,115.1z"/>
	<path d="M121.6,116.2c0.3,0.2,0.7,0.5,1,0.7c0-0.7-0.2-1.4-0.5-2.1C121.8,115.2,121.7,115.8,121.6,116.2z"/>
	<path d="M147.7,115c-0.6,0.1-0.4,1.1,0.2,0.9C148.5,115.7,148.3,114.9,147.7,115z"/>
	<path d="M117.9,115.6c-0.5,0.7,0.6,0.6,1,0.6C119.1,115.5,118.3,114.7,117.9,115.6z"/>
	<path d="M140.2,115.3c-0.2,0.4,0.5,0.9,0.8,0.6C141.3,115.4,140.5,115,140.2,115.3z"/>
	<path d="M144.8,115.7c-0.5,0-0.8,1-0.2,1.1C145.2,116.9,145.3,115.9,144.8,115.7z"/>
	<path d="M146.8,116.5c0,0.2-0.1,0.7-0.1,1c0.2,0.1,0.7,0.4,0.9,0.5C147.9,117.2,147.3,116.8,146.8,116.5z"/>
	<path d="M124.8,117c-0.5,0.3,0,1.2,0.5,0.8C125.7,117.5,125.3,116.6,124.8,117z"/>
	<path d="M129.9,116.9c-0.4,0.5,0.4,1,0.8,0.5C131.1,117,130.2,116.5,129.9,116.9z"/>
	<path d="M119.9,119.7c-0.5,0-0.9,0.5-0.6,1C119.9,121,120.5,120.2,119.9,119.7z"/>
	<path d="M146.8,122c-0.5,0.1-0.4,1,0.2,0.9C147.6,122.7,147.4,121.7,146.8,122z"/>
</g>
</svg>
