<?xml version="1.0" encoding="utf-8"?>
<!-- Generator: Adobe Illustrator 26.0.3, SVG Export Plug-In . SVG Version: 6.00 Build 0)  -->
<svg version="1.1" id="Слой_19" xmlns="http://www.w3.org/2000/svg" xmlns:xlink="http://www.w3.org/1999/xlink" x="0px"
	 y="0px" viewBox="0 0 239.5 150.2" style="enable-background:new 0 0 239.5 150.2;" xml:space="preserve">
<style type="text/css">
	.st0{fill:#161616;}
</style>
<g>
	<path class="st0" d="M117,131.2c-0.8,0-1.6,0-2.4,0.3c0,1.4-0.1,2.8,0.1,4.2c2,0.2,4.1,0,6.1,0.1c2.1,0,4.3,0.1,6.4-0.1
		c0.1-1.5,0.1-2.9,0-4.4C123.8,131.1,120.4,131.3,117,131.2z M115.1,135.4c-0.2-1.2-0.2-2.5,0-3.8c0.2,0,0.7-0.1,1-0.1
		c-0.6,0.8-0.2,1.8-0.4,2.7c0.8,0.1,1.7-0.2,2.6,0.1c0.1,0.2,0.2,0.7,0.2,1C117.3,135.4,116.2,135.4,115.1,135.4z M126.9,135.3
		c-2.7,0.1-5.5,0.1-8.2,0c0-0.9,1-1.1,1.7-1.2c0.8-0.2,1.5,0.3,2.3,0.2c1.1-0.2,2.2,0,3.2,0.2c0.3-0.5,0.5-1,0.5-1.6
		c-1.2,0-2.5-0.1-3.7,0c-2.1,0.1-4.2-0.2-6.2,0.2c0.1-0.5,0.1-0.9,0.2-1.4c3.4-0.1,6.8-0.1,10.2,0
		C126.9,132.9,126.9,134.1,126.9,135.3z"/>
	<path class="st0" d="M176.9,37.9c-1.4,0.2-2.7,1-4.1,1.5c-1.6,0.7-3.3,1.2-4.9,2c0.5,0.1,1,0.2,1.5,0.3
		C172,40.8,174.8,39.9,176.9,37.9z"/>
	<path class="st0" d="M179.8,39c-0.2-0.2-0.4-0.4-0.6-0.5c-2.1,0.7-4,2-6.1,3c-2.4,1.2-5,1.8-7.7,2c0,0.2-0.1,0.5-0.2,0.7
		c1.1,0,2.1-0.1,3.2-0.1C172.6,43.3,176.1,40.8,179.8,39z"/>
	<path class="st0" d="M180.3,74.4c-0.6-0.6-0.7-1.4-1-2.1c-0.3-0.9-0.5-1.9-0.7-2.9c-0.2-0.8-0.4-1.6-0.7-2.3
		c-1,2.6,0.1,5.3,1.1,7.7c0.9,0.6,1.9,1,3,0.8c0.1-0.2,0.3-0.5,0.4-0.7c-0.2,0-0.7-0.1-0.9-0.1C181.2,74.7,180.7,74.6,180.3,74.4z"
		/>
	<path class="st0" d="M189.7,40.2c-1.7-0.2-3.3,0.2-5,0.4c-6.9,1.3-12.9,5.2-19.8,6.3c-1.9,0.4-3.9-0.2-5.7,0.7
		c-0.9,0.3-0.5,1.4-0.4,2.1c1.1,0.9,2.4,1.5,3.9,1.4c2.7-0.2,5.5-0.6,8.1-1.4c3.8-1.1,7.2-3,10.9-4.2c2.3-0.7,4.7-1.5,7.1-1.8
		c1-0.1,2-0.6,2.4-1.5C191.4,41.3,190.6,40.3,189.7,40.2z M190.3,42.1c-0.6,0.6-1.5,0.6-2.3,0.8c-1.7,0.3-3.3,0.9-5,1.3
		c-5.1,1.2-9.6,4.1-14.7,5.2c-2.3,0.7-4.8,0.7-7.2,0.6c-0.6,0-1.1-0.5-1.5-0.9c-0.2-0.5,0.4-0.7,0.7-0.9c1.5-0.2,3,0.1,4.5-0.1
		c4.9-0.9,9.4-2.9,14-4.7c2.5-1,5.2-1.5,7.9-2.1c1-0.1,1.9-0.2,2.9-0.1C190.1,41.3,190.5,41.7,190.3,42.1z"/>
	<path class="st0" d="M109.4,73.7c0-2.6,0-5.2,0.4-7.8c0.1-0.9,0.5-2-0.2-2.8c-0.1,0.1-0.3,0.4-0.4,0.5c-0.4,2.1-0.3,4.3-0.5,6.4
		c-0.1,1.2-0.1,2.4,0,3.6C108.8,73.6,109.2,73.7,109.4,73.7z"/>
	<path class="st0" d="M221.7,96.1c-0.3,0-0.8,0.1-1,0.1c-0.2,3.1-0.1,6.2,0.1,9.3c0.1,1.9-0.5,3.8,0.2,5.6c0.2,0,0.7-0.1,1-0.1
		c0.3-2.8,0.1-5.7-0.1-8.5C221.7,100.3,221.8,98.2,221.7,96.1z"/>
	<path class="st0" d="M106.7,74.2c0-0.1,0.1-0.4,0.1-0.6c0.2-1.3,0.1-2.7,0.2-4c0.1-1.7,0.4-3.4,0.6-5.1c-0.9,0-0.9,1.1-1.1,1.8
		c-0.3,2.4-0.6,4.9-0.3,7.3C106.3,73.8,106.6,74.1,106.7,74.2z"/>
	<path class="st0" d="M104.1,75v-0.3c0.2-2.3,0.2-4.7,0.5-7c0.1-0.7,0-1.3-0.3-1.9c-0.1,0.2-0.3,0.6-0.4,0.8c-0.3,3-0.8,6.1-0.5,9.1
		C103.6,75.5,103.8,75.2,104.1,75z"/>
	<path class="st0" d="M231.4,110c-0.6-0.6-1.2-1.2-1.9-1.8c-0.9-0.1-1.7,0.1-2.5,0.5c0-2,0.1-4-0.2-5.9c0.1-2.6,0-5.1,0-7.7
		c1.7-0.2,2.7-1.9,2.6-3.5c-0.7-0.5-1.5-0.4-2.3-0.3c-0.1-0.5-0.2-1-0.4-1.5c-0.6-0.2-1.2-0.4-1.7-0.5c0-0.9,0-1.8-0.2-2.6
		c-0.3-1.3-0.2-2.6-0.2-3.8c1.4-0.9,3-1.1,4.3-2.1c0.6-0.6,1.2-1.3,1.2-2.2c0.3-1.4-0.8-2.7-0.4-4.1c-0.7-1-1.8-0.8-2.8-0.7
		c-0.7-0.7-1.3-1.6-2.3-1.9c-0.9-0.1-1.8,0-2.7,0c0-2,0-3.9,0-5.9c0.1-2.5,0.4-5,0.3-7.6c0-0.4-0.1-0.7-0.3-1
		c-1.3-0.6-2.8-0.5-4.1-0.3c-0.7,0.2-1.3,0.9-2,0.5c-2.2-1.3-4.7-1.9-7-2.9c0.9-1.2,2.2-1.9,3.3-2.9c2-1.9,4-3.8,6.2-5.5
		c0.7-0.5,0.9-1.4,0.5-2.1c-1-0.6-2.1-0.8-3.2-1c-2.7-0.5-5.4-1.2-8.1-1.3c-1.5-0.2-2.9-0.6-4.4-0.7c0-2.1,0.4-4.2,1-6.2
		c0.6-2.1,1-4.4,1.5-6.6c0.5-3.2,1.5-6.4,1.6-9.7c0-0.5-0.3-1-0.6-1.4c-1.9,0.1-3.7,1-5.4,1.9c-2.7,1.5-5.4,2.9-8,4.6
		c-2.3,1.4-4.5,3-7,4c-0.5-1.2-0.7-2.5-1-3.8c-0.5-2.8-1.6-5.4-2.3-8.2c-0.7-3-1.9-5.9-2.3-8.9c-0.4-1.3-1.1-2.6-1.8-3.8
		c-0.5,0-1.1-0.1-1.6,0.1c-0.9,0.7-1.3,1.8-1.9,2.8c-1.6,2.2-2.1,5-3.4,7.4c-1,1.8-1.7,3.8-2.4,5.7c-0.7,2-1.4,3.9-1.9,5.9
		c-0.4-0.1-0.8-0.1-1.2-0.4c-2.1-1.4-4.3-2.7-6.4-4c-3.5-2.1-6.9-4.4-10.6-6.1c-1.1-0.5-2-1.5-3.3-1.4c-0.1,2.9,1.4,5.6,2.2,8.4
		c0.9,1.6,1.3,3.4,1.9,5.1c1.2,2.3,1.9,4.8,3,7.1c0.3,1.2,1,2.4,0.8,3.7c-0.9,0.7-2.1,0.6-3.1,1c-1.9,0.6-3.9,0.9-5.8,1.1
		c-1.6,0.5-3.3,0.3-5,0.5c-4,0.3-8,0.5-11.9,1c-0.1,1,0.9,1.5,1.5,2.1c2.3,2.2,5.2,3.6,7.8,5.4c4.1,2.9,8.6,5,12.9,7.6
		c0,0.1,0,0.4,0,0.6c-1.3,0.4-2.6,0.6-3.8,1.2c-1.9,0.9-4,1.4-5.9,2.3c-1.1,0.4-2.2,0.7-3.3,1.2c-0.1,0.3-0.3,0.6-0.4,0.9
		c0.9,0.8,2,1.2,3.1,1.5c3.2,1.2,6.1,3,8.9,4.9c1.5,0.8,2.6,2.1,3.9,3.2c-0.3,0.9-1.2,1.5-1.9,2.2c-1.7,1.4-3.4,2.9-5,4.4
		c-0.8,0.9-1.9,1.6-1.9,2.9c2.3,0.6,4.6-0.1,6.9,0.2c2,0.1,3.9,0,5.9,0.1c-0.5,4.5-1.4,9-0.7,13.6c0.2,0,0.5,0.1,0.7,0.1
		c0.9-1.2,1.8-2.4,3-3.3c1.2-0.9,2.4-1.9,3.9-2c0.2,2,0.4,4,0.9,5.9c0.7,0.1,1.4-0.1,1.8-0.8l0.2,0.1c0.5-0.5,0.9-1.1,1.5-1.5
		c0.5-0.4,1.1,0,1.6,0.2c0,0.3,0,0.6,0,0.9c-2,1.2-3.9,3-4.6,5.2c-0.1,1.6-0.1,3.1,0.1,4.7c-0.2,0.5-0.8,0.7-1.3,1
		c-1.1,0.7-2,1.6-2.9,2.5c-1,1-1.4,2.4-2,3.6c-0.6,1.2-0.9,2.5-1.2,3.8c-0.2,0-0.6-0.1-0.7-0.1c-0.6-0.6-0.8-1.5-1-2.3
		c-0.2-1-1.2-1.5-1.9-2.1c0-1.6-0.2-3.2-0.3-4.9c-0.3-1.2-0.6-2.8-2.1-3c-1.2-0.3-1.9,0.9-2.3,1.8c-0.4,2.3-0.2,4.6-0.3,6.9
		c-1.1,0.4-1.9,1.3-2.7,2.1c-0.6,0.6-1.2,1.3-1.1,2.2c-0.1,1.3,0.7,2.4,1.5,3.3c0.2,0.9-0.1,1.8,0.2,2.6c0.2,0.8,0.7,1.4,0.8,2.2
		c-0.6,1.2-1.6,2-2.2,3.1c-0.7,1.3-1.6,2.4-2.3,3.7c-0.1,0.3-0.6,0.5-0.8,0.2c-0.3-1.5-0.6-2.9-1.2-4.3c-0.4-2.5-1.2-4.9-2.2-7.2
		c-0.6-1.4-2-2.2-3.1-3.2c-0.4-1,0.1-2.2-0.7-3.1c-0.5-1.1-2-1.3-2.2-2.4c1.1-1.5,2.7-2.7,3.5-4.4c0.6-0.9,0.9-2.1,1.5-3
		c0.9-1.2,1.9-2.5,2.7-3.8c0.5-1.4,0.8-2.8,0.9-4.3c-0.2-2.4-0.9-4.7-1.9-7c-0.2-2.1,0.1-4.3-0.3-6.4c-0.1-2.6-0.7-5.1-1.2-7.7
		c-0.1-0.7-0.4-1.4-0.9-1.9l0.1-0.1c-1.4-4.3-4.2-8.2-8-10.6c-1.6-1.2-3.5-1.7-5.3-2.5c-4.7-1.2-9.7-0.9-14.4,0.2
		c-1.9,0.8-4,1.2-5.8,2.3c-3.4,1.7-6.3,4.4-8.7,7.4c-1.2,2.1-2.7,4-3.3,6.4c-1.1,2-1.2,4.3-1.8,6.5c-0.3,4.2-0.1,8.5,1,12.6
		c0.3,1.6,1.3,2.9,1.5,4.6c0.2,1.3,1.4,2.2,2.1,3.2c0.7,1,1.4,2,2.2,2.9c1.4,1.4,1.4,3.6,1.8,5.5c-0.8,0.7-1.7,1.4-1.9,2.5
		c-0.6,1.9,0,3.9,1.1,5.5c-0.5,2.7-2.2,5.1-3,7.7c-0.3,1.1-0.8,2.2-1.4,3.2c-0.6-1.1-1.2-2.3-1.2-3.7c0.1-0.8,0.7-1.4,0.9-2.3
		c0.4-1.5-0.4-3.1,0.2-4.5c0.3-0.8,0.3-1.6,0.2-2.4c-0.3-1.2-1.4-2-2.6-2.2c-0.9-0.1-1.3-1.1-2-1.4c-0.7-0.3-1.5-0.2-2.2-0.3
		c-0.5-2.2-1-4.5-2.6-6.3c-0.6-0.1-1.1-0.1-1.7-0.1c-0.5,0.5-1,1.1-1.1,1.8c0,1.9,0.9,3.7,0.9,5.5c-0.5,0.5-1.2,1-1.4,1.7
		c-0.4,0.8,0,1.7,0.2,2.5c-0.5,0.3-1.1,0.6-1.3,1.2c-0.1,0.8,0.1,1.7,0.4,2.5c1.1,1.7,3,2.6,4.3,4.1c1.1,2,1.3,4.4,1.8,6.6
		c0.4,2.2,1.3,4.3,1.7,6.5c0.9,2.5,1.7,5.1,2.8,7.5c0.3,1.4,1.2,2.8,2.6,3.2c2.6,0.5,4.9-1.8,5.6-4.1c0.8-1.8,1.4-3.7,2-5.5
		c0.1-0.1,0.4-0.2,0.5-0.2c0,1.7,0,3.5,0.2,5.2c0.3,0,0.7,0,1,0c0-1.7,0-3.3,0.1-5c0.4-4.1,1.2-8.1,2.4-12.1
		c0.3-1.1,0.7-2.2,0.7-3.4c-1.2,1-1.5,2.6-2,4c-1.1,3.3-1.5,6.7-2.2,10.1c-1.1,0-2.3,0-3.3-0.4c-0.3-0.1-0.7-0.2-1-0.3
		c-0.7-0.3-1.5-0.6-2-1.1c-0.5-0.8-0.6-1.7-0.9-2.5c-1.1-3.1,0.5-6.3,1.7-9.1c0.3-0.8,0.7-1.6,1-2.4c0.4-1.1,0.8-2.2,1.4-3.2
		c2.7,1.8,5.9,3.2,9.2,3.2c2.5-0.1,5-0.6,7.6-0.6c2.4,0,4.7,0.6,7,0.8c3.1,0.5,6.3,0,8.9-1.6c1.6-1,2.8-2.6,3.9-4.1
		c1,0.6,2,1.3,2.5,2.4c1.5,2.4,1.8,5.3,2.6,8c0.3,1.7,1,3.4,1,5.2c-0.7,1.6-2.2,2.9-3.9,3.4c-0.3,0.1-0.7,0.2-1,0.3
		c-0.8,0.2-1.7,0.2-2.6,0.3c-0.8-2.1-1.6-4.3-2-6.5c0-2.1-0.1-4.2-0.5-6.3c-0.7,0.8-0.5,1.9-0.5,2.9c0.1,3.5,0,6.9,0.1,10.4
		c0.3,2.5,0.1,4.9,0.3,7.4c0.2,0.1,0.6,0.2,0.8,0.3c0.1-3.1-0.3-6.3,0-9.4c0.2,0.3,0.5,0.6,0.7,0.9c0.3,0.4,0.4,1,1,1.1
		c0.7,0.1,1.5,0.1,2.3,0.1c0.7,2.5,1.7,5,3.6,6.9c1.4,1.2,3.7,0.6,4.9-0.7c0.9-1.1,1.9-2.2,2.4-3.5c1.2-3,3-5.8,4-9
		c0.6-1.9,1.4-3.7,2-5.5c0.5-1.5,1.6-2.6,2.8-3.5c-0.1,2.5-1,5-1.6,7.4c-0.4,1.4-0.5,2.9-1,4.3c-0.3,2.5-1.3,4.9-1.5,7.5
		c-0.3,0.6,0.1,1.2,0.7,1.1c0.6-1.8,1-3.7,1.2-5.6c0.1-1.5,1-2.8,1.1-4.3c0.2-1.6,0.7-3.1,1-4.6c0.1,0,0.4,0.1,0.6,0.1
		c0-0.1,0-0.3,0-0.4c-0.1-2.4,0.8-4.7,1.2-7c0.3-1.7,0.3-3.4,0.9-5.1c0.8-2.5,1.1-5.2,2.8-7.3c1.4-2.1,4-3.2,6.4-3.8
		c2.1-0.4,4.2,0.2,6.2,0.8c1.7,0.6,3.1,1.7,4.6,2.8c0.1-0.1,0.4-0.4,0.6-0.5c-0.8-1.1-1.8-2.1-3.1-2.7c-1.7-0.9-3.6-1.7-5.5-1.9
		c-1.5-0.2-2.9,0.2-4.4,0.5c-0.8-1.4-0.5-3,0.1-4.4c0.3-0.8,0.9-1.5,1.3-2.2c0.4-0.7,1-1.3,1.8-1.6c0.5,1,0.8,2,1.2,3.1
		c1.1,2.2,3.3,3.6,5.5,4.6c1.1,0.5,2.3,0.8,3.2,1.5c1.3,1.1,2.4,2.6,3.1,4.2c0.5,1.2,1.7,1.9,2.2,3.1c0.4,0.8,0.7,1.7,1,2.5
		c0.2,0,0.5,0,0.7,0c0.5-0.6,1-1.3,1.5-1.9c0.3,2.4,0.5,4.8,0.5,7.2c0,0.6,0,1.2,0.1,1.9l0.1,0.3c0.2,1.1,0.2,2.2,0.2,3.3
		c0.1,1,0.3,2,0.4,2.9c0.3-0.2,0.6-0.3,0.9-0.5c0-0.7,0-1.5,0-2.2c0.7,0.1,1.4,0.1,2.1,0.3c1-0.8,2-1.5,2.9-2.3
		c0.1-0.1,0.4-0.3,0.5-0.4c0.2-0.2,0.4-0.3,0.7-0.5c1.4,0.1,2.7,1.1,4.1,0.8c1.2-0.2,2.2-0.7,3.4-1.2c0.1,1.6,0.2,3.1,0.1,4.7
		c-0.1,1-0.7,1.8-1.2,2.7c-0.2-1.5-0.3-2.9-0.6-4.4c-0.2,0-0.5,0.1-0.7,0.1c-0.3,2.7,0.3,5.3,0.5,8c0.2,2.4-0.7,4.8-0.6,7.2
		c0,1.9,0,3.9-0.3,5.8c0.3,0,0.8-0.1,1-0.1c0.8-2,0.5-4.2,0.6-6.3c0-3.4,0.8-6.7,1.6-10c0.2-0.5,0.3-1.3,0.9-1.4
		c1.1,0.1,2.2,0.4,3.3,0.3c1.6-0.3,3.1-0.7,4.7-1c0.3,0,0.9-0.3,1,0.2c0.7,2.3,0.5,4.8,0.5,7.2c0,2.7-0.5,5.4-0.2,8.1
		c0.2-0.1,0.6-0.2,0.9-0.3c0.2-4.3,0.5-8.6,0.3-12.8c-0.2-1.2-0.5-2.4-1.1-3.5c-0.3-0.5,0-1.1,0.1-1.7c1.3,0,2.5-0.5,3.3-1.4
		c0.5-0.7,1.3-0.5,2-0.4c0.5,0.1,0.9-0.4,1.3-0.6l-0.1-0.2c2.4-1.8,4.8-3.7,6.9-5.9c1.3-0.8,2.4-1.8,3.3-3
		C232.3,112.7,232.1,111,231.4,110z M227,92.4c0.5-0.2,1-0.3,1.6-0.3c-0.3,0.7-0.6,1.3-0.9,2c-0.3-0.2-0.6-0.4-0.9-0.6
		C226.9,93.1,226.9,92.7,227,92.4z M95.4,140.2c0.2,0.6,0.3,1.1,0.5,1.7c0.2,0.1,0.6,0.3,0.8,0.3c-0.1-1.1-0.3-2.1-0.4-3.2
		c1.3,0.4,2.7,0.8,4,1.1c-0.6,2-1.1,4-2,5.9c-0.6,1.4-1.7,2.9-3.3,3.1c-1.4,0.2-2.4-1.1-3-2.2c-0.2-0.3-0.3-0.6-0.4-0.9
		c-1.7-4.1-3-8.3-4-12.6c-0.7-2.4-1.2-4.8-1.7-7.2c-1.4-1.7-3.5-2.8-4.9-4.6c-0.1-0.8,0-1.6,0.4-2.3c0.9,1.4,1.7,2.9,3.2,3.8
		c-0.7-2.1-2.3-3.7-2.6-6c-0.1-0.8,0.5-1.5,0.8-2.2c0.5,0.7,0.9,1.5,1.3,2.2c0.5-1.2-0.2-2.3-0.5-3.5c-0.7-2-1.1-4.2-0.7-6.3
		c0.6,0.1,1.1,0.3,1.5,0.9c0.9,1.4,1.3,2.9,1.8,4.4c0.6,1.3-0.2,2.7-0.2,4c0,0.1,0.1,0.3,0.1,0.4c0.5-1.1,0.8-2.3,1.8-3.1
		c0.6-0.2,1.2,0.2,1.7,0.6c-0.7,0.7-0.9,1.7-0.8,2.7c0.6-0.7,1-2,2.1-1.7c1.5,0.1,2.3,1.6,2,3c-0.5-0.2-0.9-0.5-1.4-0.8
		c0.1,0.5,0.2,1.1,0.3,1.6c0.5,1.7,1,3.9-0.2,5.5c-0.2,0.3-0.4,0.7-0.6,1c0.4,1,0.8,1.9,1.1,3C93.2,132.8,94.3,136.5,95.4,140.2z
		 M137.6,97.4c-0.1,2.4,0.1,4.8-1,7c-0.5-1-0.1-2.2,0-3.2c0.3-2.3,0.1-4.6,0.1-7c0.2-0.5,0.3-0.9,0.5-1.4
		C138.4,94.2,137.7,95.9,137.6,97.4z M128.2,112.8c-0.4,0.6-1.7,1.2-2,0.3c-0.2-1-0.1-1.9-0.2-2.9c-0.1-1.8-0.3-3.6-0.4-5.5
		c-0.1-3.5,0.6-7,1.2-10.5c0.5,0.3,1,0.5,1.5,0.8c0.2,3.2-0.1,6.5,0.2,9.7c0.1,1.6,0,3.1-0.1,4.7
		C128.3,110.5,128.5,111.7,128.2,112.8z M136.1,89.1c0.1,0,0.3,0.1,0.4,0.2c0,2.2-2.3,3.3-4.1,3.9c-1.4,0.1-2.9,0.1-4.1-0.7
		c-1.3-0.7-2.4-1.9-2.8-3.4C129,88.9,132.6,89,136.1,89.1z M125,88.1c0-2,0.6-4,1.2-6c0.2-0.3,0.4-0.6,0.6-0.9
		c0.1-0.2,0.2-0.5,0.3-0.7c0.1-0.1,0.2-0.4,0.3-0.6c2.3-0.2,4.8-0.6,6.8,0.9s2.5,4.1,3,6.4c-0.1,0.3-0.3,0.6-0.4,0.9
		C132.9,87.9,128.9,88,125,88.1z M127.7,93.5c1.7,0.3,3.5,1,5.2,0.5c1.6-0.5,2.9-1.6,4.2-2.6c-0.8,1.9-2.4,3.8-4.6,3.7
		C130.7,95.3,129.2,94.4,127.7,93.5z M135,70c1,1.1,1.3,2.6,1.4,4.1v0.3c0.1,0.9,0.1,1.9,0.2,2.8c0.2-0.6,0.4-1.3,0.6-1.9
		c0.7,1.7,0.5,3.6,0.8,5.4c-0.1,0.1-0.4,0.4-0.5,0.5c-0.4-1-1-1.8-1.8-2.4c-0.3-0.3-0.6-0.5-0.9-0.8C135.1,75.3,135.3,72.6,135,70z
		 M132.4,66.1c0.6,0.5,1.2,1.1,1.3,2c0.6,3.1,0.8,6.2,0.3,9.3c-0.6-0.2-1.1-0.5-1.7-0.7C132.9,73.2,132.6,69.7,132.4,66.1z
		 M122.5,60.3c1.1,5.4,1.2,11,1,16.5c0.3-0.1,0.5-0.1,0.8-0.2v-0.3c0-3.2,0-6.3-0.1-9.5c-0.1-2.2-0.6-4.3-0.8-6.4
		c0.7,0.1,1.6,0.3,1.8,1.1c1.3,4.3,1.1,8.8,1.1,13.3c0.3-0.2,0.8-0.4,0.7-0.8c0.2-2.6-0.2-5.2-0.2-7.8c0-1.7-0.5-3.2-0.9-4.9
		c0.8,0.2,1.8,0.4,2,1.3c1.1,3.2,1.3,6.6,1.3,9.9c0,0.8,0.1,1.6,0.6,2.3c0.2-1.9,0.1-3.9,0.1-5.8c0-2-0.7-4-0.9-6
		c0.7,0.6,1.7,1.1,1.9,2.1c1.1,3.8,1.4,7.8,0.7,11.7c-0.5,0-0.9,0-1.4,0c-0.1-0.4-0.3-0.8-0.4-1.1c-0.4,0.9-1,1.7-1.7,2.3
		c-0.5-0.5-1.1-1-1.8-1c0,0.2-0.1,0.7-0.1,0.9c-0.2,1.5-0.5,3-1.6,4.2c-0.1-0.9-0.1-1.9-0.6-2.8c-0.2,0.6-0.4,1.2-0.6,1.8
		c0.2,0.3,0.4,0.6,0.5,0.8c-0.3,1.9-0.1,3.8-0.2,5.6c0,0.5-0.4,0.8-0.8,1c-0.6-0.2-0.8-0.9-1.1-1.4c-0.2-7.1-0.2-14.2-0.3-21.3
		c0-1.9-0.5-3.7-0.5-5.6C121.2,59.7,121.9,60.3,122.5,60.3z M98.9,104.4c-0.4-1.4-0.3-2.8-0.3-4.3c0.2-5.6,0.2-11.2,0.4-16.8
		c0-0.4,0.1-0.8,0.1-1.1c0.1-1.9,0-3.8,0.1-5.7c0.1-2.2,0.6-4.4,0.6-6.6c-0.2,0-0.6,0-0.8,0.1c-0.1,0.4-0.2,0.9-0.2,1.3
		c-0.3,6.4-0.7,12.9-0.7,19.3c-0.1,2.9-0.3,5.9-0.1,8.8c0,1.1,0.2,2.5-0.7,3.3c0-0.5-0.4-1.2-0.7-1.8c-0.3,0.3-0.5,0.7-0.8,1
		c-0.7-0.7-1.1-1.7-1.2-2.6c-0.1-0.7-0.1-1.5-0.1-2.2c0.4-0.9,1.3-1.6,1.8-2.4c0.3-1.4-0.1-2.7-0.1-4.1c-0.1-5.9,0.7-11.8,1.5-17.7
		c-0.4,0.4-0.8,0.8-1.2,1.3c-0.1,0.4-0.2,0.8-0.3,1.1c0.1,5.1-1.4,10.1-0.8,15.2c0.1,1.2,0.3,2.5,0.1,3.7c-0.3,0.6-0.9,0.6-1.4,0.8
		c-0.7-4.5-0.9-9.1-0.6-13.7c-0.3,0.5-0.6,1.1-0.8,1.6v0.3c0,1.4,0,2.8,0,4.1c0,3,0.7,6,1.1,8.9c-1.5-1.5-1.3-3.8-1.8-5.7
		c-0.7-2.7-0.7-5.5-0.3-8.3c0-0.1,0-0.4,0-0.6c0.1-1.8,0.4-3.6,0.9-5.4c0.2-0.2,0.5-0.4,0.7-0.5c0,0.5,0,0.9,0,1.4
		c0.1,0,0.4-0.1,0.5-0.1c0.3-1,0.7-1.9,1-2.9c0.2-1.9,0.8-3.8,2.2-5.2c0.2,0.4,0.3,0.8,0.5,1.2c0.1,0,0.4,0,0.6,0
		c0-0.2,0.1-0.6,0.2-0.7c0.2-1.1,0.5-2.1,1.3-2.9c0.2,0.5,0.5,1.1,0.7,1.6c0.2-0.4,0.4-0.8,0.5-1.2c0.2-0.7,0.3-1.3,0.5-2
		c0.2,0,0.5-0.1,0.7-0.1c0.1,0.3,0.2,0.7,0.2,1c0.1,0,0.3,0,0.4,0c0.1-0.2,0.2-0.6,0.2-0.8c0.2-0.5,0.5-0.9,0.8-1.4
		c0.3,0.1,0.7,0.3,1,0.4c0.4-0.6,0.8-1.4,1.5-1.8c0.6-0.3,1.1,0.1,1.6,0.3c0.2-0.3,0.3-0.5,0.5-0.8c2.2-0.1,4-1.4,6.2-1.5
		c0.2,0,0.6-0.1,0.8-0.1c1.2,0,2.4,0.2,3.5,0c0.5-0.2,0.8,0.4,1.2,0.7c1,6.5,0.7,13,0.7,19.6c0,1.8,0.3,3.7-0.3,5.5
		c-0.3-1-0.6-2.1-0.9-3.1c-0.4-1.1-1-2.2-1.1-3.4C118,74.3,118,69.1,118,64c0-0.9-0.2-1.7-0.5-2.5c-0.2,0.8-0.3,1.7-0.3,2.5
		c0.3,5.1,0.2,10.1,0.4,15.2c-0.9-0.8-2.1-1.7-2.2-3c-0.2-3.1-0.2-6.2-0.2-9.3c0-1.7,0.2-3.3-0.3-5c-0.7,1.9-0.3,3.9-0.4,5.9
		c-0.1,2.9,0.1,5.9,0.1,8.8c-0.8-0.3-1.6-0.6-2.4-0.8c-0.2-1.9-0.2-3.8-0.1-5.7c0.2-2.6,0.2-5.2,0.6-7.7c-0.4,0.1-0.8,0.2-1.1,0.2
		c0.2,4.3-0.8,8.6-0.2,12.9c-0.6,0.1-1.2,0.3-1.8,0.2c-0.4-0.3-0.6-0.9-0.8-1.3c-0.2,1.1-0.8,2-2,2.2c-0.1-0.4-0.2-0.8-0.3-1.2
		c-0.5,1.1-0.9,2.2-1.9,3c-0.4-0.2-0.7-0.4-1.1-0.7c-0.2,1.3-0.4,2.7-1.4,3.6c-0.3-0.2-0.6-0.3-0.9-0.5c-0.1,0.3-0.3,0.5-0.4,0.8
		l-0.1,0.3c0,1.8,0.1,3.6,0.1,5.4c0.1,2.9-0.3,5.9-0.4,8.8c-0.2,3.3,0,6.6-0.1,9.9C99.8,105.6,99.1,105.2,98.9,104.4z M112.6,111.7
		c-0.4-0.9-0.7-1.8-0.9-2.8c-0.3-3.7-0.9-7.5-0.1-11.3c0.5,0,0.9,0,1.4,0c0,4.6-0.1,9.2,1.4,13.6c0.6,1.4,1.3,2.7,1.8,4.1
		c-0.6,0.1-1.3,0.3-1.8-0.2C113.6,114.1,113.1,112.9,112.6,111.7z M113.8,116.6c0,0.8-0.7,1.3-1.5,1.3c0-1.4-0.2-2.8-0.3-4.2
		c0.1-0.1,0.2-0.4,0.2-0.6C112.9,114.3,113.5,115.4,113.8,116.6z M111.3,110.3c0.2,0.7,0.3,1.3,0.3,1.9c-0.7-0.1-1.4-0.4-1.9-1
		c0-1.7-0.2-3.4-0.5-5.1c-0.3-2.8-0.1-5.7-0.1-8.6c0.4,0.1,0.9,0.1,1.3,0.2C110.4,101.9,110.1,106.2,111.3,110.3z M115.5,111.8
		c-0.4-0.2-0.6-0.7-0.7-1.1c-1.2-4.3-1.7-8.8-1.1-13.2c0.8-0.4,1.6-0.7,2.4-0.8c0.1,3.2-0.1,6.4,0.3,9.6c0.2,2,0.7,3.9,1,5.9
		c0.5,1.1,1.1,2.3,1.2,3.6c-0.4-0.1-0.9-0.1-1.3-0.2C116.6,114.3,115.8,113.1,115.5,111.8z M112.8,96.4c-4.1,0.9-8.7-1.5-10.1-5.6
		l-0.2,0.1c-0.2-1.4-0.6-2.8-0.5-4.3c0.2-3.5,1.9-7.1,5.1-8.9c0.2-0.1,0.5-0.2,0.7-0.2c2-1.6,4.8-0.9,6.9,0.1c0,0.2,0,0.5-0.1,0.7
		c-1.8,0.1-3.5,0.1-5.3,0.1c-0.6,0.1-1.2,0.3-1.8,0.3c-0.4,0.3-0.8,0.6-1.3,0.9c0.6,0,1.3,0,1.9,0c0.1,0,0.4,0,0.6,0
		c1.7-0.5,3.5-0.3,5.3-0.3c3.1,1.6,5.4,5,5.4,8.6c-0.6-0.1-1.2-0.1-1.8-0.3c-2.3-0.1-4.6-0.1-7,0c-1.8,0.2-3.7,0.3-5.5,0.2
		c-0.5,0-0.9,0-1.4,0c0.1-1.6,0.5-3.2,1.6-4.4c-0.1-0.1-0.2-0.4-0.3-0.5c-1.8,1.2-2.5,3.4-2.3,5.5c1.2,0.8,1.7,2.3,2.3,3.5
		c1.7,1.6,4,2.9,6.5,2.8c2.7,0.1,5.1-1.5,6.6-3.5c0.5-0.8,0.6-2.1,1.5-2.4c0.1,0.1,0.3,0.3,0.4,0.4c-0.2,0.9-0.7,1.8-1.3,2.5
		C117.7,94.1,115.4,95.9,112.8,96.4z M108.8,110.6c-0.3,0.1-0.7,0.3-1,0.5c-0.5-0.9-1-1.8-1-2.8c-0.2-3-0.4-6-0.4-9
		c0-0.9,0.2-1.7,0.4-2.6c0.5,0.2,1,0.5,1.5,0.7c0.2,2.8,0,5.6,0.2,8.5C108.6,107.5,108.7,109.1,108.8,110.6z M101.7,97.3
		c0-1.8-0.1-3.7,0.2-5.6c0.6,0.7,1.3,1.5,1.3,2.5c-0.2,3.3-0.1,6.6-0.2,9.8c-0.1,1.6,0.3,3.1,0.1,4.7c-0.9-0.6-1.6-1.5-1.5-2.6
		C101.5,103.2,101.5,100.2,101.7,97.3z M101.9,110.5c0.4,0.8,0.6,1.7,1,2.6c0.1-0.1,0.3-0.2,0.4-0.3c-0.1-0.6-0.1-1.2,0.1-1.8
		c1,1.7,1.7,3.7,1,5.6c-0.2,0-0.6-0.1-0.8-0.2c-0.2-1-0.2-2-0.3-3c-0.4,0.5-0.7,1.1-0.9,1.6c-0.6-0.4-0.4-1.2-0.5-1.9
		C101.9,112.2,101.5,111.3,101.9,110.5z M103.9,104.5c-0.3-3.2-0.2-6.4,0-9.6c0.6,0.3,1.2,0.8,1.8,1.3c-0.3,4.5,0.1,9,0.2,13.5
		c-0.5-0.3-1.1-0.6-1.6-0.9C103.9,107.4,104,105.9,103.9,104.5z M118.3,88.7c-0.4,1.7-1.5,3.3-3.1,4.1c-2.3,1.4-5.4,1.4-7.6-0.1
		c-1.3-0.8-2.2-2.1-2.8-3.5c0.1-0.1,0.2-0.3,0.3-0.4c3.2,0,6.4-0.5,9.6-0.3C115.9,88.4,117.1,88.4,118.3,88.7z M104.9,121.6
		c-0.3,0.5-1.1-0.1-1-0.6c0-0.6,0-1.1,0.1-1.7c-0.2,0-0.6-0.1-0.8-0.1c-0.2,0.6-0.4,1.3-0.6,1.9c-0.1-0.1-0.4-0.4-0.6-0.5
		c0-0.8,0-1.7-0.2-2.5c-0.6,0.5-0.6,1.5-0.9,2.2c-1.2-0.9-0.3-2.5-0.6-3.7c-0.9,0.4-0.6,1.5-0.8,2.3c-0.2-0.2-0.6-0.4-0.6-0.7
		c-0.1-1.1,0.3-2.1,0.2-3.2c-0.5,0.6-0.5,1.6-1.2,2.1c0.2-1.3,0.1-3.3,1.6-3.8c0,0.4,0,0.8,0,1.2c0.3,0,0.5-0.1,0.8-0.1
		c0.1,0.5,0.3,1.1,0.4,1.6c0.4,0.2,0.7,0.4,1.1,0.5c0.1,0.3,0.2,0.7,0.2,1c0.4,0.1,0.8,0.2,1.2,0.3c0.2,0.3,0.4,0.7,0.6,1
		c0.5,0,1-0.1,1.5-0.1C105.4,119.6,105.3,120.6,104.9,121.6z M105.3,116.6c0.2-1.9-0.1-3.7-0.9-5.4c1.6,0.1,2,1.9,2.3,3.2
		c0.4,1.1,0.2,2.3-0.2,3.4C105.8,117.9,105.1,117.4,105.3,116.6z M107.1,122.2c-0.4-0.1-0.8-0.1-1.2-0.2c0-0.9-0.4-2.1,0.5-2.8
		C107.9,119.2,107.3,121.3,107.1,122.2z M106.9,112.4c0.4,0,0.8,0.1,1.2,0.2c1.1,1.6,1,3.6,0.6,5.4c-0.4,0-0.7,0.1-1.1,0.1
		c0.1-0.9,0.2-1.8,0.2-2.8C107.7,114.3,107.2,113.4,106.9,112.4z M109.5,122.3c-0.5,0-1-0.1-1.6-0.1c-0.1-0.9-0.3-2.9,1.2-2.7
		C110,120,109.6,121.5,109.5,122.3z M109.2,113.1c0.5,0.1,1.1,0,1.4,0.5c1,1.2,0.8,2.8,1,4.3c-0.6,0.2-1.2,0.6-1.8,0.3
		C109.5,116.5,109.7,114.7,109.2,113.1z M112.3,122c-0.6,0-1.3,0-1.9,0c-0.1-0.8-0.2-1.6-0.2-2.5c0.6-0.1,1.2-0.2,1.8-0.2
		C112.4,120.1,112.4,121.1,112.3,122z M119.5,122c-0.2,0-0.7,0-0.9,0c-0.2-0.9,0.3-2.4-0.8-2.9c-0.1,0.8-0.1,1.7-0.1,2.5
		c-0.5,0-1,0-1.6,0c-0.1-0.7-0.1-1.4-0.2-2.1c-0.2,0-0.5,0-0.7,0c0,0.7-0.1,1.4-0.1,2.1c-0.7,0.1-1.5,0.1-2.2,0c0-0.9,0-1.8,0.1-2.7
		c1.1-0.1,2.1-0.3,3.1-0.8c0.7-0.4,1.4,0.1,2,0.3c-0.2-0.6-0.3-1.1-0.3-1.7c0.8,0.6,1.6,1.2,2.1,2.1
		C120.1,119.9,119.9,121,119.5,122z M121.7,122.2c-0.4,0-0.8,0-1.2,0c-0.1-1.3,0-2.5,0.1-3.8c0.5,0.1,1.1-0.1,1.4,0.4
		C122.7,119.9,122.1,121.2,121.7,122.2z M121.8,115c-0.3-1.1-0.6-2.3-1.1-3.3v-0.4c-0.2,0.3-0.5,0.6-0.4,1c0.2,1.1,0.6,2.1,0.6,3.2
		c-0.5-0.1-1.2,0.3-1.4-0.4c-0.5-1-0.8-2-1.3-2.9c-1.1-4.1-1.7-8.3-1.6-12.5c0-1.1-0.1-2.3,0.2-3.3c0.7-1,1.6-2.1,2.8-2.6
		c0.2-0.7,0.5-1.3,0.8-2c0.2-0.7,0.7-1.4,1-2c0.3,0.3,0.5,0.7,0.6,1.1c0.3,1.4,0.6,2.8,0.9,4.2c0.3,0.6,0.2,1.4-0.1,2
		c-0.6,1.6-0.7,3.3-0.7,5c0,3.1,0.9,6.2,0.8,9.4c0,1.1,0.3,2.3-0.1,3.4C122.5,114.8,122.2,114.9,121.8,115z M124.5,122.2
		c-0.5,0.2-1.3,0.6-1.7,0.1c0.2-1.3,0.4-2.5,0.5-3.8c1,0.1,1.1,1.2,1.2,2C124.7,121,124.8,121.7,124.5,122.2z M124,114.4
		c-0.2-1.2-0.2-2.3-0.1-3.5c-0.3-2.9-0.8-5.8-0.9-8.7c-0.1-1.7,0-3.7,1.5-4.9c0.8-0.7,0.8-1.8,0.3-2.7c-0.5-1.3-2.1-2-1.9-3.5
		c-0.1-0.5,0.2-1,0.4-1.5c0.8,1.1,1.6,2.2,2.3,3.3c0.5,2.2,0,4.4-0.4,6.6c0,1.5-0.3,3-0.2,4.5c0,2.3,0.5,4.6,0.3,6.9
		c0.1,1,0.2,2.1-0.1,3C125,114.4,124.4,114.3,124,114.4z M126,122.6c-0.2-0.1-0.5-0.2-0.6-0.2c-0.1-1.3,0-2.5-0.2-3.8
		c0.2,0,0.7,0,0.9,0C126.6,119.9,126.9,121.4,126,122.6z M126.6,117.2c-1-0.1-1.7-1.3-1.1-2.1c0.4,0.1,0.8,0.3,1.2,0.4
		c0.3-0.4,0.7-0.7,1-1.1c0.4,0.2,0.9,0.4,1.3,0.6c0.1-0.5,0.2-1.1,0.3-1.6c0.4,0.3,0.6,0.7,0.9,1.1c0.3-0.3,0.7-0.5,1-0.8
		c-0.3,0.9-1.1,1.6-1.7,2.3c-0.3,0-0.5,0-0.8,0c-0.3,0.3-0.5,0.5-0.8,0.7c-0.4-0.2-0.7-0.5-1-0.8
		C126.9,116.4,126.7,116.8,126.6,117.2z M127.4,122.6c-0.1-1.5-0.1-3-0.2-4.4C129.6,118.2,129.6,122.2,127.4,122.6z M130.4,121.5
		c-0.3,0-0.6,0.1-1,0.1c0.1-1.3,0-2.6-0.1-3.9c1-0.1,1.1,1,1.2,1.7C130.7,120.2,130.5,120.9,130.4,121.5z M131.5,120.6
		c-0.3-1.1-0.6-2.2-0.8-3.3c0.1-0.6,0.7-0.2,0.9,0.1C132.2,118.4,132.1,119.6,131.5,120.6z M131.5,110.9c0.4-2,0.6-4,0.7-6.1
		c0-0.1-0.1-0.4-0.1-0.5c-0.2-0.7-0.4-1.3-0.6-2c0.3,2.7-0.3,5.4-0.8,8.1c-0.1,0.9-0.9,1.3-1.6,1.8c0-1.5,0.1-3.1,0-4.6
		c0.2-3.9-0.2-7.9,0.2-11.8c0.1,0,0.4-0.1,0.6-0.2l0.3,0.1c0.5,0.1,1.1,0.2,1.7,0.3c0.1,0,0.4,0,0.6,0c1-0.1,2-0.4,2.9-1
		c0.2,0.1,0.5,0.2,0.7,0.3c0.1,3.3-0.3,6.6-0.7,9.9c-0.1,0.6-0.2,1.3-0.2,1.9c-0.5,0.4-0.8,0.7-1.1,1c0.2-2.4,0.7-4.8,0.4-7.3
		c-0.1-1.4-0.3-2.8-0.5-4.2c-0.1,0.4-0.2,0.7-0.3,1.1c0.2,3-0.1,6-0.3,8.9C133.4,108.3,132.7,109.8,131.5,110.9z M156.4,120.7
		c-0.6,1.5-2.2,2.2-3,3.6c-1.1,1.9-1.7,4-2.5,6c-1,2.7-2.1,5.4-3.4,7.9c-1,2.2-2,4.4-3.8,6c-0.7,0.7-1.8,0.8-2.7,0.5
		c-1.5-1-2.3-2.8-3-4.4c-0.3-0.8-0.7-1.5-0.8-2.4c1.4-0.4,2.6-1.1,3.8-2c-0.2,0.8-0.5,1.7-0.8,2.5c0.1,0.2,0.4,0.6,0.5,0.8
		c2.1-4.7,4.2-9.4,7.4-13.5c0.3-0.4,0.8-0.6,1.2-0.8c-0.4-1-0.9-2-1.1-3.1c-0.6-1.3-0.6-2.7-0.7-4.1c-0.3,0.2-0.6,0.3-0.9,0.5
		c-0.4-0.8-0.6-1.7-0.5-2.5c0.5-0.4,0.8-1.1,1.5-1.1c0.7-0.1,1.3,0.5,1.9,0.8c-0.1-0.8-0.7-1.4-1.2-1.9c1.1-0.9,2,0.4,3.1,0.7
		c0-0.8-0.7-1.3-1.1-1.9c-0.1-1.9,0-3.8,0-5.7c0-0.7,0.2-1.3,0.4-2c0.4,0,0.8-0.1,1.2-0.1c0,0.1,0.1,0.4,0.1,0.5
		c0.6,0.8,0.7,1.9,0.8,2.9c0,1.5,0.1,2.9,0,4.4c0.4,0.6,0.3,1.3,0.4,2c0.4-0.4,0.7-1,0.9-1.5c0.1,0,0.4,0.1,0.5,0.1
		c0,0.1,0,0.4,0,0.6c1.2,1.7,0.4,3.9,0.7,5.8c0.8-0.7,0.5-2.1,1.4-2.6C157,117.9,157,119.4,156.4,120.7z M225.1,93.3
		c0.2,0,0.5,0.1,0.7,0.2c0,0.4,0.1,0.7,0.1,1.1c-0.1,5.4,0,10.7,0.1,16.1c-0.3,0.1-0.6,0.2-0.9,0.2c-0.2-2.9-0.2-5.9-0.2-8.8
		C225,99.2,224.9,96.3,225.1,93.3z M228.1,76.7c1.1,0,0.9,1.3,0.8,2.1c-0.1,0.6-0.6,0.9-1.1,1.2c-1,0.6-2.1,1.1-3.2,1.4
		c-0.1-1-0.3-2.1-0.4-3.1C225.5,77.7,226.7,76.9,228.1,76.7z M223.6,72.4c0.5,0,1,0.1,1.4,0.5c-0.6,0.3-1.3,0.6-2,0.4
		C223.1,73,223.4,72.6,223.6,72.4z M212.2,80.1c-0.2-0.1-0.5-0.3-0.6-0.4c0.1-0.9,0.6-1.8,1.3-2.4C213.5,78.3,213.4,79.7,212.2,80.1
		z M214.3,80.4c0,1.1-1.6,1.2-1.8,2.3c-0.1,1.3,0,2.5-0.1,3.8c-0.3-0.3-0.7-0.5-0.6-1c0-1.3,0-2.5,0.1-3.7
		C212.5,81.1,213.3,80.3,214.3,80.4z M214.1,88.2c2.8,0.7,5.8,0.1,8.5-0.9c-0.8,1-2.2,1.3-3.3,1.8c-2.1,0.8-4.6,1-6.5-0.2
		c-1-0.6-2.6-1.1-2.5-2.6C211.6,86.8,212.7,87.8,214.1,88.2z M222.3,85.8c-2.5,1.5-5.6,1.9-8.4,1.3c-0.1-0.4-0.1-0.7-0.2-1.1
		c2.7,0.5,5.8,0.6,8.2-0.8c0.5-0.3,1-0.5,1.5-0.8C223.2,84.9,222.8,85.5,222.3,85.8z M221.2,84.7c-2.4,0.9-5.1,1.2-7.5,0.1
		c0-0.4,0.1-0.8,0.1-1.2c2.2,1,4.7,1,7,0.7c0.9-0.5,1.7-1.2,2.7-1.6C223,83.5,222.2,84.4,221.2,84.7z M214.4,82.5
		c0-0.7,0.8-0.9,1.3-1c1.2-0.1,2.4,0.3,3.7,0.3c1.3,0,2.5-0.7,3.8-1c-0.8,1.8-2.9,2.5-4.7,2.5C217.1,83.3,215.6,83.2,214.4,82.5z
		 M222.6,76.9c0.3,1.1,0.2,2.7-1,3.2c-1.4,0.6-3,0.8-4.5,0.4c-1-0.2-2.2-0.5-2.8-1.4c-0.4-0.9-0.2-1.9-0.2-2.9
		c1.3,0.7,2.5,1.5,4,1.6C219.7,77.7,221.2,77.4,222.6,76.9z M214.8,74.9c1.4,0.8,3,1.1,4.5,1.7c-1.1,0.7-2.4,0.2-3.4-0.3
		C215.4,76,215,75.5,214.8,74.9z M218.7,75.3c-1.6,0-3.8-0.7-3.7-2.6c0.2-0.1,0.5-0.3,0.7-0.4c0.1,1.6,1.8,2.5,3.3,2.3
		c1.2,0,2.1-0.8,2.9-1.4C221.7,74.8,220.1,75.4,218.7,75.3z M220.5,64.8c-0.1,2.7,0.1,5.4-0.3,8c-0.2,1.1-1.6,0.8-2.4,1v-0.2
		c-0.5-0.6-0.4-1.5-0.5-2.3c0-2.2,0-4.4,0-6.5c0.2,0,0.5,0.1,0.7,0.1v0.2C218.8,65,219.7,64.9,220.5,64.8z M216.9,58
		c1.2,0.7,2.5,1,3.8,0.6c0,1.5,0.2,3.1-0.1,4.6c-0.6,0.8-1.7,0.7-2.6,0.5c-0.4-0.1-1.2-0.2-1.1-0.8C216.8,61.3,216.8,59.7,216.9,58z
		 M216.4,66.2c-0.1,1.6,0.1,3.3-0.2,4.9c-0.8,0.4-1.5,1-2.2,1.5c-1.5-1.6-3.3-2.9-4.8-4.5c0.8-0.7,1.7-1.4,2.7-1.9
		c1.5-0.7,2.9-1.8,4.1-2.9C216.6,64.2,216.3,65.3,216.4,66.2z M162.2,88.8c-2,1.4-3.9,2.9-5.6,4.8c-0.5-3.9,0.4-7.7,0.9-11.6
		c0-0.5,0.3-1.5-0.5-1.5c-4,0-8-0.2-12.1,0c2.4-3.5,6.3-5.6,9-8.7v-0.3c-1.1-1-2.3-1.9-3.4-2.9c-2-1.5-4.1-2.7-6.1-4
		c-2-1.3-4.2-1.9-6.4-2.7c0.4-0.3,0.8-0.5,1.2-0.7c4.3-1.5,8.6-3.2,13-4.6c-0.4-0.5-0.7-1-1.1-1.5c-2.6-1.1-4.9-2.7-7.3-4
		c-2.2-1.2-4.4-2.6-6.5-4c-2.1-1.3-4.1-2.6-6.1-4.1c-0.6-0.4-1.1-1-1.5-1.6c4-0.6,8.2-0.3,12.2-1c3.7-0.1,7.3-1.1,10.9-2
		c0.7-0.2,1.5-0.5,2.2-0.8c0-1.1-0.2-2.1-0.6-3.1c-1.3-4.2-3.4-8.1-4.7-12.2c-0.9-2.7-2.3-5.3-2.6-8.2c5.6,3.2,11.1,6.6,16.6,9.9
		c1.4,0.8,2.6,1.9,4.2,2.3c0.3-0.7,0.5-1.5,0.8-2.2c2-6.4,4.4-12.7,7.9-18.4c0.1-0.1,0.2-0.3,0.2-0.4c0.3-0.6,0.8-1.1,1.3-1.5
		c0.3,0.6,0.6,1.2,0.9,1.9c0.5,1.4,0.8,2.8,1.3,4.2c1.4,4.3,2.5,8.7,3.7,13.1c0.4,1.3,0.7,2.5,0.9,3.8c0.2,0.7,0.4,1.3,0.6,2
		c0.7-0.2,1.3-0.4,1.9-0.8c3.5-2.1,6.9-4.4,10.4-6.3c2.7-1.4,5.2-3.4,8.2-3.9c0.1,1.8-0.3,3.6-0.8,5.4c-0.7,3.3-1.3,6.6-2.1,9.8
		c-0.6,2.5-0.8,5-1.3,7.5c0,0.3,0,0.7,0,1c0.4,0.1,0.8,0.2,1.2,0.3c4.4,0.6,8.8,1.4,13.2,2.3c0.4,0.1,0.9,0.3,1.3,0.4
		c-0.9,1.1-2,1.9-3,2.7c-2.3,2-4.5,4.1-6.9,6c-0.5,0.3-0.7,0.8-0.8,1.4c0.6,0.3,1.3,0.5,2,0.7c1.9,0.6,3.8,1.4,5.6,2.2
		c0.5,0.2,0.9,0.4,1.4,0.7c0.2,1.2,0.4,2.3,0.2,3.5c-0.3,0.8-1.1,1.1-1.8,1.6c-2,1.5-4.2,2.8-6.4,4c0.2,1.1,1.2,1.6,1.9,2.2
		c1.3,1,2.5,2.1,3.5,3.4c0.3,0.8,0.1,1.8,0.1,2.7c-0.6,0.4-1.2,0.8-1.7,1.3c-0.4,0.6-0.7,1.2-1.2,1.7c-0.9,0.4-1.9,0.3-2.9,0.2
		c-1.1,0-2.1-0.1-3.2-0.1c-0.1,0.1-0.3,0.4-0.4,0.6c1,1.8,2.3,3.5,2.9,5.5c-1.5-0.1-3.1-0.2-4.6-0.2c0.3-1.5,0.8-3,1.2-4.5
		c0.5-2.8,0.8-5.7,0.5-8.5c-0.1-1-0.2-2,0.3-2.8c1.5-2.5,0.9-5.9-1-8c-0.9-0.9-2.1-1.2-3.2-1.6c-0.5-2.1-0.8-4.2-1.2-6.3
		c-0.7-3.4-1.6-6.8-2.9-10c-0.7-1.7-1.6-3.2-2.4-4.9c-1.5-2-3.2-4-5.5-5.2c-4.2-2.4-9.2-3-13.9-2.1c-4.3,0.7-8.5,2.6-11.7,5.7
		c-2.4,2.5-4.2,5.6-5.1,9c-1.1,3.6-0.8,7.4-0.8,11.2c0.1,2.7,0.7,5.3,1.2,7.9c0.2,0.6-0.3,1.1-0.6,1.7c-1.5,2.2-1.9,5.1-0.7,7.5
		c0.5,1,1.6,1.6,2.3,2.4c0.3,0.6,0.4,1.3,0.7,2c0.6,2.2,1.6,4.2,2.5,6.2c0.6,0.8,1.2,1.6,1.7,2.4c0.4,0.6,0.7,1.1,1.1,1.7
		C163.8,88.6,163,88.8,162.2,88.8z M209.6,94.9c0.8,0.1,1.7,0.4,1.7,1.3C210.5,96.1,209.7,95.7,209.6,94.9z M209.9,97.1
		c-0.8,0.5-0.9-0.4-0.9-1C209.5,96.3,210.3,96.4,209.9,97.1z M210.1,82.7c-0.2,0.8-0.7,1.5-0.7,2.3c-0.1,2.7,0.1,5.5,0,8.2
		c0,0.8-0.8,1.3-1.1,2c-0.1,0.9,0,1.8-0.1,2.7c-0.6,1.1-1.6,2-3,2c-1.1,0-2.4,1-2.4,2.2c0.2,1.3,1.8,1.4,2.8,1.9
		c-1.1,0.5-2.2,1-3.4,1.1c-0.2-1.5,0.1-3,0-4.6c-0.3-1.1-0.6-2.1-1.2-3.1c-0.8-1.2-2.1-1.9-3.4-2.7c0.7-2.1,1.7-4.1,2.5-6.2
		c0.6-0.9,1-2,1.7-2.8c2.1-0.2,4.1,0.1,6.2,0.1c-0.3-2.3-2.1-3.9-2.9-6c1.7,0,3.4,0,5,0.2C210.1,80.9,210.2,81.8,210.1,82.7z
		 M206,103c-0.8,0-1.9-0.2-2-1.1c0-0.8,1-0.9,1.6-1.1C206.5,101.1,205.9,102.2,206,103z M200.6,104.1c-1.6,0.5-3.3,0.6-4.7,1.6
		c-0.8,0.4-1.6,1.3-2.5,0.9c0.8-1.2,2-2,3.2-2.7c1.3-0.8,2.3-2,2.9-3.3c0.3-0.6-0.1-1.3-0.3-1.9c-0.6-0.8-1.5-1.1-2.3-1.6
		c0.1-0.3,0.3-0.6,0.4-0.9c1.6,0.6,2.9,1.8,3.5,3.4c0.3,1.1,0.4,2.2,0.4,3.3C201.2,103.3,201.3,104,200.6,104.1z M201.2,106.2
		c-1,1-1.9,2.1-2.9,3.1c-1.7,1.5-0.6,4.1-2.1,5.7c-0.5,0.7-1.4,0.8-2.1,0.9c-1.4,0.2-2.7,1.2-4.1,1.1c0-1.6-0.4-3.2-0.1-4.8
		c0.6,0.6,1.3,1.3,2.2,1.2c0.4-1.1,0.3-2.3,0.8-3.4c1.8-2.2,4.5-3.5,7.3-4.1C200.4,105.9,200.8,106.1,201.2,106.2z M202.8,63.6
		c-0.6-0.7-1.6-0.6-2.3-0.8c-0.1-0.7-0.1-1.4-0.2-2.1c1.1-0.1,2,0.5,2.6,1.3c1.1,1.4,1.5,3.2,1.3,4.9c-0.1,0.2-0.4,0.5-0.5,0.7
		C203.3,66.3,203.3,64.9,202.8,63.6z M180.8,56.1c1.9-0.9,3.7-2,5.8-2.1c0.1,1,0.7,2.3,1.9,2c1.1-0.1,1.3-1.3,1.2-2.2
		c-0.1,0-0.3,0-0.5,0c0-0.1,0-0.4,0-0.6c1.9,0,3.7-0.5,5.6-0.3c0.9,2.4,0.6,5.5-1.2,7.4c-0.9,0.9-1.8,2.2-3.2,2c-2-0.1-4,0.1-6,0
		l0.2-0.2C182.4,61.1,180.6,58.6,180.8,56.1z M195.4,59.3c1-1.9,1.1-4.2,0.5-6.2c0.2-0.3,0.5-0.7,0.6-1.1c-0.6-2.2-2.4-4-4.4-4.8
		c-0.6-0.2-1.2-0.1-1.7-0.1c2,1.2,4.3,2.4,5,4.7c-1.1,0-2.1,0-3.2,0.1c-2.4,0.3-4.7,0.5-7,1.2c-1.4,0.3-2.6,1-4,1.5
		c-0.3,0.3-0.7,0.5-1.1,0.5c0-2.1,0.2-4.6,1.7-6.1c-0.3-0.1-0.6-0.5-0.9-0.1c-1.9,1.9-2,4.7-1.8,7.2c0.4,1,0.6,2.1,1,3.1
		c0.7,1.2,1.7,2.2,2.6,3.2c-0.5-0.2-0.9-0.4-1.4-0.6c-0.1,0.2-0.2,0.7-0.2,0.9c-1.1,0.1-2.2,0.4-3.3,0.5v-0.3
		c-0.1,0.1-0.2,0.3-0.2,0.5c-0.1-1-0.1-2-0.3-3c-0.6,0.9-0.6,2-0.8,3.1c-0.5,0.2-1,0.3-1.5,0.4c0.3-1.1,1-2,1.2-3.2
		c0.4-1.5,0.1-3.1,0.5-4.7c-0.6-1.4-1.4-2.7-2.3-3.9c-1.3-1-2.7-2.1-4.4-1.7c1,0.7,2.3,1.1,3.1,2.1c1,1.1,1.9,2.4,2.2,3.9
		c-0.8,0-1.7,0.1-2.5,0.1c-2.4,0.2-4.9,0.7-7.2,1.6c-1.5,0.5-2.9,1.4-4.4,2.1c-0.2,0.5-0.7,0.6-1.2,0.7c0-1.9-0.4-3.9,0.3-5.7
		c0.2-0.8,0.4-1.5,0.6-2.3c-0.1,0-0.4,0.1-0.6,0.2c-0.3,0.5-0.5,0.9-0.8,1.4c-0.8,2.2-0.6,4.6-0.5,6.9c0,1.1,1.4,0.9,1.7,1.8
		c1,1.7,2.6,2.8,4.4,3.5c0.4,0.1,0,0.6-0.3,0.6c-1.8,0.7-3.3,1.9-5,2.8c-1.4-4.3-2.4-8.7-2.8-13.2c-0.1-2.5-0.1-5,0-7.6
		c0.5-3.9,1.8-7.8,4.4-10.9c1.2-1.3,2.4-2.5,3.9-3.5c2.9-1.9,6.3-3.1,9.8-3.4c3.2-0.8,6.6-0.2,9.7,1c2.7,1.1,5.1,2.8,6.7,5.2
		c3.3,4.7,4.9,10.2,6,15.7c0.6,3,1.1,6,1.5,9c-2.1,0.1-4.2-0.2-6.3-0.4C193.9,61.2,194.9,60.4,195.4,59.3z M173.2,64.4
		c-1.2,0.6-2.5,0.8-3.7,1.3c-1,0.4-2.1,1.1-3.1,0.3c-2.2-0.5-4.1-2.2-4.9-4.3c1.4-0.9,2.8-1.8,4.4-2.4c0.6,0.4,0.9,1,1.5,1.4
		c0.7,0.1,1.2-0.3,1.8-0.7c0-0.6,0-1.2,0-1.7c2-0.8,4.2-0.5,6.3-0.5C175.8,60.2,175.2,62.8,173.2,64.4z M158.5,74.7
		c-1.8-0.8-1.8-3.1-1.7-4.7c0.1-1.2,0.3-2.7,1.4-3.5c0.4,1.5,1,2.9,1.3,4.4c-0.3,0.6-0.9,1-1.3,1.6
		C158.2,73.2,158.4,73.9,158.5,74.7z M165.7,94.7c-0.2-0.1-0.5-0.3-0.7-0.3c-0.3-1.8-0.7-3.7-0.3-5.5c1,1.2,2.1,2.4,3.2,3.5
		C167.2,93.1,166.5,93.9,165.7,94.7z M186.3,113.1c-0.3-0.5-0.7-1.1-0.9-1.6c-1.6-3-3.8-5.7-6.1-8.2c-3-3.4-6.1-6.7-9.2-10.1
		c-2-2.2-4.1-4.4-5.7-6.9c-2.4-3.7-4.2-7.7-4.9-12c-0.1-0.5-0.1-1,0-1.5c0.7-1.2,2.1-1.8,3.2-2.6c4.7-2.8,9.8-4.8,15.2-5.7
		c1-0.2,2.1-0.5,3.1-0.6c2-0.3,4.1-0.6,6.1-0.6c2.4-0.1,4.8,0.1,7.2,0.3c2.4,0.1,4.7,0.1,7.1,0.6c0.8,0.1,0.9,1,1,1.6
		c0.4,2,0.6,4.1,0.8,6.1c0.3,2.8-0.2,5.6-0.7,8.4c-0.5,2.7-1.5,5.2-2.8,7.5c-3.2,5.7-6.7,11.2-9.9,16.9
		C188.1,107.4,187.7,110.4,186.3,113.1z M188.7,109.7c0.7-2.4,1.8-4.7,3.2-6.7c0.9-1.2,1.1-3,2.6-3.8c-0.7,2.2-1.6,4.2-2.1,6.4
		c-0.6,2-0.8,4.2-1.3,6.2C190.1,111.3,189.4,110.5,188.7,109.7z M191.9,124.8c-0.9,0.1-1.7,0-2.5-0.3c-0.1-1.9,0-3.8,0.2-5.7
		c0.8,0.1,1.5,0.3,2.2,0.5C192,121.1,191.9,123,191.9,124.8z M191.3,118.4c0.2-0.3,0.2-0.8,0.7-0.8c1.4-0.5,2.9-1.2,4.4-1
		c-0.3,0.3-0.7,0.6-1.1,0.8C194,117.9,192.7,118.4,191.3,118.4z M198.1,121.2c-1.7,0.9-3.4,1.9-5.2,2.7c-0.2-1.5-0.2-3.1,0.2-4.6
		c0.4-0.5,1.2-0.5,1.8-0.8c1.1-0.3,2.1-1,3.3-0.9C198.2,118.8,198.2,120,198.1,121.2z M198.7,122.6c0.3-0.8,0.5-1.7,0.6-2.6
		c-0.3-1.4-0.1-2.8-0.2-4.1c-0.6-0.1-1.3-0.1-1.9-0.2c0.1-1.3,1.7-1.4,2.7-1.4l0.1,0.3c0.7,0.8,0.8,2,1.2,3c0.4,1.4,1.2,2.6,1.9,3.8
		C201.8,122.3,200.3,122.7,198.7,122.6z M212.9,126.2c-0.8,0.8-2,1.1-3.1,1.4c-1.3,0.2-2.8,0.7-4.1-0.1c-0.9-1-0.6-2.5-0.6-3.7
		c1.3,0.4,2.4,1.1,3.6,1.4c1.6-0.6,3-1.5,4.5-2.3C213.3,124,213.3,125.1,212.9,126.2z M212.8,121.4c-1.3,2.3-4.5,3.2-6.8,1.8
		c-1.5-1-2.4-2.6-3.2-4.1c-1.1-2.1-1.5-4.5-2.5-6.6c-0.7,0.5-1.4,0.8-2.3,1c0-1.4,0.4-3.1,1.7-3.9c1.8-0.5,3.2,1.1,4.8,1.7
		c-0.8-1.5-2.3-2.3-3.8-3.1c0.5-0.3,0.9-0.9,1.6-0.8c1.8-0.1,3.1,1.4,4.7,2.1c-0.5-0.9-1.2-1.7-2.1-2.2c-0.5-0.3-0.8-0.8-1-1.3
		c0.6-0.3,1.2-0.6,1.9-0.7c0.6-0.1,1.1,0.5,1.5,0.8c0.3,0.4,0.6,0.7,0.9,1c0.7,0,1.4,0,2.2,0c0.1-1.4-0.5-2.8-0.4-4.2
		c0-0.9,0.7-1.5,1.2-2.2c1.4,0.9,1.7,2.7,2,4.2c0.5,2.6,1,5.3,0.9,8C214.2,115.7,214.4,118.8,212.8,121.4z M212.5,99.4
		c0.4,0,0.7,0,1.1-0.1c0,0.7,0,1.5,0,2.2C213,101,211.9,100.3,212.5,99.4z M209.6,100.8c-0.9,0.8-1,2.1-1.2,3.2
		c0.1,0.6,0.4,1.2,0.6,1.8c-0.5-0.2-1-0.4-1.5-0.5c-0.1-1.4-0.9-2.9-0.3-4.3c0.8-2.1,3.1-2.9,4.7-4.3h0.3c0.8-0.2,1.6,0,2.3,0.4
		C212.8,98.3,211.1,99.4,209.6,100.8z M214.9,99.5c1.2-0.9,2.7-1.5,4.2-1.8c0.2,4.8,0,9.6,0.2,14.5c-1.2,1.2-2.6,2.2-4.1,3v0.3
		c-0.2-0.9-0.2-1.9-0.1-2.9c0.3,0,0.7-0.1,1-0.1c-0.4-0.3-0.8-0.6-1.1-1c-0.3-1.3-0.3-2.7-0.3-4.1C214.5,104.8,214.2,102,214.9,99.5
		z M215.1,120c-0.4-1-0.1-2.2,0.1-3.3c1.3-1.1,2.7-2.3,4.2-3.1c0.1,2.5,0.1,5,0.1,7.5C218,121,216.5,120.6,215.1,120z M218.8,95.5
		c-2,0.8-4.3,0.5-6.3-0.2c-0.7-0.3-1.4-0.7-2.1-1.1c-0.1-0.8,0-1.5,0.1-2.2c0-0.4-0.1-0.8-0.2-1.2c0-0.3-0.1-0.7-0.1-1
		c0-0.5,0.1-0.9,0.1-1.4c1.9,1,3.8,2.4,6.1,2.1c2.5-0.2,4.7-1.4,7-2.3c-0.5,0.7-1.1,1.3-1.9,1.7c0.3,0.1,0.7,0.3,1,0.4
		c0.2-0.1,0.5-0.2,0.7-0.4c0.1,0.2,0.2,0.6,0.2,0.9c-1.5,1.1-3.2,1.9-5,2.5c0.1,0.1,0.3,0.3,0.5,0.4c1.6-0.3,2.9-1.3,4.5-1.6
		C222.8,94,220.5,94.5,218.8,95.5z M230.4,112.8c-0.8,2-3,2.6-4.5,4c-1.7,1.5-3.5,2.8-5.3,4.1c-0.3-2-0.1-4.1-0.1-6.1
		c0-2.5-0.2-5-0.2-7.6c0.1-3.7-0.2-7.5-0.1-11.2c1.2-0.8,2.5-1.6,3.8-2.1c0.1,5,0,9.9,0,14.9c0,1.3,0.1,2.6,0.7,3.8
		c1.1-0.6,2.1-1.2,3.2-1.8c0.7-0.3,1.4-0.6,2.1-0.6C231,110.6,230.8,112,230.4,112.8z"/>
	<path class="st0" d="M102,77.3c0.1-0.3,0.1-0.7,0.2-1c-0.1-2.8,0.3-5.6,0.6-8.4c-0.2-0.1-0.5-0.2-0.7-0.2c-0.1,0.4-0.2,0.7-0.3,1.1
		c-0.1,3.1-0.7,6.1-0.5,9.1C101.4,77.7,101.7,77.5,102,77.3z"/>
	<path class="st0" d="M107.4,91c0.5-0.1,1,0.1,1.4-0.1c0.2-0.3,0.4-0.7,0.5-1.1c-0.5-0.1-1.1-0.2-1.6-0.2
		C107.5,90.1,107.4,90.5,107.4,91z"/>
	<path class="st0" d="M130.1,90.7c-0.1-0.3-0.2-0.7-0.4-1c-0.5,0-1,0-1.5,0.1c0,0.4-0.1,0.8-0.1,1.2
		C128.8,91.4,129.6,91.3,130.1,90.7z"/>
	<path class="st0" d="M222.5,110c0.3,0,0.8-0.1,1-0.1c0.2-3.6,0.1-7.1-0.1-10.7c-0.2-1.4,0.4-2.9-0.1-4.2c-0.2,0.1-0.7,0.3-0.9,0.3
		c-0.2,1.1-0.2,2.2-0.1,3.3C222.7,102.4,222.4,106.3,222.5,110z"/>
	<path class="st0" d="M229.1,111.2c-0.8,0.1-1.6,0.4-2.3,0.9c-0.5,0.9-0.2,2-0.1,3.1c0.9-0.6,1.7-1.2,2.5-1.9
		C229.8,112.7,230,111.5,229.1,111.2z"/>
	<path class="st0" d="M222.4,112.6c0,2,0,4,0,6c0.8,0.1,1.6-0.5,1.6-1.3c0-1.6,0.1-3.1-0.2-4.7C223.3,112.3,222.8,112.6,222.4,112.6
		z"/>
	<path class="st0" d="M182,128.2c-0.1-0.6-0.2-1.3-0.3-1.9c-0.3-1.4-0.3-2.8-0.1-4.3c0.4-3.3-0.1-6.7,1-9.9c-0.2-0.5-0.5-1-0.7-1.5
		c-0.6,0.4-1.1,0.9-1.6,1.4c0.2,1.7-0.1,3.3-0.2,4.9c0,1.3-0.2,2.6-0.3,3.8c-0.1,0.9,0.5,1.8,0.5,2.7c-0.1,0.9-0.2,1.7-0.3,2.6
		c0.1,0.1,0.2,0.3,0.3,0.4c0.6,0.8,0.3,1.8,0.3,2.7c-0.1,1.1,0.1,2.3,0.7,3.3c0.5,0.6,1.4,0.4,2.1,0.5c0-1.5-0.1-3-0.2-4.5
		C182.8,128.3,182.4,128.2,182,128.2z"/>
	<path class="st0" d="M166.3,128.4c-1.5,5.1-2.3,10.3-3.2,15.4c-0.1,0.7-0.2,1.4-0.2,2.2c0.2,0,0.5,0,0.7,0
		c1.4-4.5,1.7-9.3,3.2-13.8c0.3-2.8,1.4-5.4,1.2-8.2C166.7,125.2,166.8,127,166.3,128.4z"/>
</g>
</svg>
