<?xml version="1.0" encoding="utf-8"?>
<!-- Generator: Adobe Illustrator 26.0.3, SVG Export Plug-In . SVG Version: 6.00 Build 0)  -->
<svg version="1.0" id="Слой_1" xmlns="http://www.w3.org/2000/svg" xmlns:xlink="http://www.w3.org/1999/xlink" x="0px" y="0px"
	 viewBox="0 0 239.5 150.2" style="enable-background:new 0 0 239.5 150.2;" xml:space="preserve">
<g>
	<g>
		<path d="M80.1,55.6c0.4-0.3,0.8-0.1,1,0.3c0.6,1,0.9,2.1,1.8,2.8c0.4,0.4,1.1,0.9,1.8,0.5c2.3-0.8,4.8-0.6,7.1-0.2
			c0.6,0.1,1.3,0.3,1.9-0.2c0.9-0.7,1.2-1.9,1.9-2.8c0.2-0.3,0.6-0.6,1-0.4c0.7,0.6,1,1.8,1,2.7c0,0.5-0.6,0.5-1,0.6
			c-1,0.2-1.9,0.6-2.5,1.4c-0.6,0.9-0.2,2-0.5,3c-0.3,0.4-0.9,0.3-1.2,0.2C92,63.4,92,63.1,92,62.8c0-2.2-2.9-3.8-4.8-2.6
			c-0.7,0.4-1.3,1.2-1.2,2c0.1,0.7,0.7,1.2,1.3,1.6c2,1.1,4.3,1.4,6.2,2.7c0.9,0.6,1.7,1.4,1.8,2.5c0.3,1.7-0.3,3.4-1.5,4.5
			c-1.1,1.1-2.6,1.7-4.1,1.8c-2.6,0.3-5.2-0.2-7.5-1.4c-0.4-0.2-0.5-0.6-0.5-1.1c0.1-1.1-0.1-2.1,0.1-3.2c0.7-0.1,1.4-0.1,2.1,0
			c0,0.7-0.1,1.4,0.3,2.1c0.6,1.2,1.8,2.3,3.3,2.5c1.7,0.3,3.4-1.2,3.2-2.9c-0.1-0.9-0.7-1.6-1.5-2c-2.2-1.2-4.9-1.4-6.8-3
			c-1.3-1.1-1.4-3.2-0.7-4.6c0.2-0.4,0.6-0.8,0.7-1.3c0-0.5-0.4-1-0.7-1.3c-0.6-0.4-1.4-0.1-2-0.4c-0.5-0.3-0.4-0.9-0.4-1.3
			C79.3,56.9,79.5,56.1,80.1,55.6z M79.6,57.7c0,0.3,0.2,0.5,0.4,0.6c0.4-0.1,0.8-0.4,1-0.8c0.1-0.6-0.1-1.2-0.4-1.7
			C79.8,56.1,79.6,57,79.6,57.7z M96,56.1c-0.3,0.5-0.5,1.3,0,1.8c0.2,0.2,0.5,0.4,0.7,0.2c0.3-0.6,0.1-1.3-0.2-1.8
			C96.4,56.1,96.1,55.9,96,56.1z"/>
	</g>
	<path d="M125.6,61.8c0-0.2,0-0.4,0-0.6c2,0,4-0.1,6,0c0,0.2,0,0.4,0.1,0.5c-0.4,0.1-0.9,0.2-0.9,0.7c-0.1,1.3,0,2.6,0,4
		c0.9-0.9,1.8-1.8,2.7-2.6c0.2-0.2,0.3-0.5,0.4-0.7c-0.4-0.2-0.7-0.3-1.1-0.3c0-0.2,0-0.4,0-0.6c1.7,0,3.4,0,5.1,0
		c0,0.2-0.1,0.4-0.1,0.6c-0.4,0.1-0.7,0.1-1.1,0.3s-0.6,0.5-0.9,0.9c-0.7,0.9-1.5,1.8-2.3,2.7c0.9,1.6,1.9,3.3,2.8,4.9
		c0.6,1.1,1.4,2.5,2.8,2.8c-0.1,0.2,0,0.5-0.3,0.4c-1.7,0.1-3.4,0-5.1,0c-0.3,0.1-0.3-0.2-0.4-0.4c0.2-0.2,0.6-0.1,0.6-0.5
		c0.1-0.3-0.2-0.5-0.3-0.7c-1-1.4-2-2.8-2.9-4.3c0,1.1,0,2.1,0,3.2c0,0.3,0,0.6,0.2,0.8c0.2,0.1,0.4,0.2,0.6,0.3
		c0,0.2-0.1,0.3-0.1,0.5c-2,0-4,0.1-5.9,0c-0.1-0.2-0.1-0.3-0.1-0.5c0.4-0.1,1.2,0,1.2-0.7c0.1-3.1,0-6.2,0-9.3c0-0.4,0.1-0.8-0.3-1
		C126.3,61.8,126,61.8,125.6,61.8z"/>
	<path d="M94.7,61.4c0.6-0.1,1.3,0,1.9-0.1c1.4,0,2.7-0.1,4.1,0.1c0,0.2,0,0.4,0,0.6c-0.3,0.1-0.7,0.1-1,0.2c-0.1,0.3-0.2,0.6-0.1,1
		c0,1.3,0,2.6,0,3.8c1,0,2,0,3,0c-0.1-1,0.1-2-0.1-3c-0.1-0.5-0.7-0.5-1.1-0.7c0-0.2-0.1-0.4-0.1-0.5c2-0.1,4,0,6,0
		c0.1,0.1,0.1,0.3,0.2,0.4c-0.1,0.1-0.1,0.2-0.2,0.3c-0.3,0.1-0.6,0.1-0.8,0.3c-0.1,0.2-0.1,0.5-0.1,0.7c0,2.7,0,5.4,0,8.1
		c0,0.4,0,0.9,0.3,1.2c0.2,0.2,0.5,0.2,0.7,0.3c0,0.2-0.1,0.3-0.1,0.5c-1.9,0-3.8,0-5.7,0c-0.3,0.1-0.4-0.3-0.3-0.5
		c0.3-0.1,0.6-0.2,0.9-0.3c0.3-0.2,0.3-0.6,0.3-1c0-1.4,0-2.8,0.1-4.2c-1,0-2,0-3,0c0,1.2,0,2.3,0,3.5c0,0.4,0,0.7,0.2,1.1
		c0.2,0.3,0.6,0.2,1,0.3c0,0.1,0,0.4,0,0.5c-2,0.1-4,0.1-6,0c-0.3-0.5,0.4-0.5,0.7-0.8c0.3-0.4,0.3-1,0.3-1.5c0-2.7,0-5.3,0-8
		c0-0.4,0-0.9-0.3-1.2c-0.2-0.2-0.5-0.3-0.8-0.4C94.6,61.8,94.6,61.6,94.7,61.4z"/>
	<g>
		<path d="M106.7,61.3c2,0,4.1,0,6.1,0c0.9,0,1.9,0,2.7,0.5c0.6,0.4,0.7,1.1,0.8,1.8c0.1,0.9-0.1,1.9-0.7,2.7
			c-0.4,0.5-1.1,0.7-1.7,0.9c0.5,0.1,1,0.2,1.3,0.5c0.6,0.5,0.9,1.3,1.2,2c0.6,1.2,1.2,2.4,2.1,3.3c0.3,0.3,0.7,0.4,1.1,0.5
			c0.1,0.2,0.1,0.4-0.1,0.7c-0.9,0.1-1.8,0.1-2.7,0c-1.4-0.4-2.2-1.8-2.8-3c-0.5-1-0.8-2-1.3-2.9c-0.5,0-1.1,0-1.6,0
			c0,0.9,0,1.8,0,2.6c0,0.4,0.1,0.7,0.2,1c0.2,0.2,0.4,0.2,0.6,0.3c-0.1,0.2-0.1,0.4-0.1,0.6c-1.7,0-3.3,0-4.9,0
			c-0.3,0.1-0.3-0.4-0.4-0.6c0.3-0.1,0.7-0.1,1-0.3c0.2-0.3,0.2-0.7,0.2-1.1c0-2.5,0-5,0-7.5c0-0.4,0-0.7-0.2-1.1
			C107.3,61.9,106.7,62,106.7,61.3z M111.2,66.5c0.4,0,0.8,0,1.2-0.1c0.4-0.2,0.7-0.6,0.9-1.1c0.3-0.9,0.1-1.9-0.5-2.6
			c-0.4-0.4-1.1-0.4-1.6-0.4C111.2,63.7,111.2,65.1,111.2,66.5z"/>
	</g>
	<g>
		<path d="M118.1,63c1.1-0.9,2.6-1.1,4.1-1.1c1.1,0.1,2.1,0.3,2.9,1.1c0.7,0.7,1.2,1.7,1.3,2.6c0.1,0.5-0.2,1.1-0.7,1.1
			c-2,0.1-4,0.2-5.9,0.3c0.1,0.8,0.2,1.7,0.8,2.2c0.9,1.1,2.5,1.1,3.7,0.5c0.5-0.3,0.7-0.7,1.2-1.1c0.2-0.2,0.5,0,0.8,0.1
			c0,1.1-0.7,1.9-1.5,2.5c-1.9,1.3-4.8,1.4-6.6-0.1c-1.4-1.2-1.9-3.1-1.7-4.9C116.6,65,117.1,63.7,118.1,63z M120.3,63.6
			c-0.6,0.6-0.6,1.5-0.6,2.4c1.2-0.1,2.4-0.1,3.6-0.2c0.1-0.9-0.2-1.8-0.9-2.4C121.7,62.9,120.8,63,120.3,63.6z"/>
	</g>
</g>
<g>
	<g>
		<path d="M170.5,4c1-0.7,2.3-1.2,3.6-0.9c0.7,0.2,1.4,0.1,2.1,0.4c1.2,0.6,2.5,0.9,3.3,2c-0.2,0.1-0.4,0.2-0.7,0.2
			c0.6,0.3,1.1,0.5,1.6,1s0.9,1.1,1.2,1.8c-0.3,0-0.6,0-0.8,0.1c0.3,0.3,0.6,0.7,1.1,0.8c0.8,0.3,1.8,0.5,2.3,1.2
			c0.5,0.8,0.7,1.7,0.9,2.6c0.1,0.5,0.2,1.1,0,1.6s-0.7,0.9-1,1.4c0.3,0.1,0.6,0.3,0.9,0.4c-0.1,0.2-0.2,0.4-0.3,0.6
			c0.1,0,0.3,0,0.4,0c0,0.2-0.2,0.4-0.1,0.7c0.3,0.2,0.6,0.3,0.9,0.5c-0.4,0.2-0.7-0.3-1.1-0.3c-0.2,0-0.3-0.1-0.5-0.1
			c0.2-0.2,0.4-0.3,0.5-0.5c-0.2,0-0.5,0-0.6,0c0.1-0.2,0.3-0.4,0.4-0.6c-1-0.3-1.7-1.1-2.3-1.9c-2.1-0.1-4.2,0.5-6.2,1.4
			c0.2,0,0.4,0,0.6,0.1c0.1,0,0.2,0.1,0.3,0.2c0-0.1,0-0.3,0-0.4c0.4,0.3,0.6,0.7,0.8,1.2c-0.3-0.2-0.6-0.4-0.9-0.6
			c-0.5,0-1.1,0.1-1.6,0.2c-0.3,0.3-0.5,0.6-0.8,0.8c0.1-0.3,0.3-0.6,0.4-0.9c-0.4,0.3-0.9,0.4-1.2,0.8c-0.4,0.6-0.7,1.2-1.2,1.7
			c0.1,0,0.4-0.1,0.5-0.1c-0.3,0.3-0.5,0.6-0.8,0.9c0.3-0.1,0.6-0.3,0.8-0.4c-0.2,0.3-0.4,0.7-0.6,1c0.2-0.2,0.5-0.3,0.7-0.5
			c0,0.4,0,0.9,0.1,1.3c0.6-0.7,1.4-1.2,2.1-1.6c0.6-0.8,1.7-1.2,2.6-0.9c0.3-0.1,0.6-0.1,1-0.2c0,0.1-0.1,0.2-0.1,0.2
			c-0.3,0-0.5,0.1-0.8,0.2c0.3,0.1,0.7,0.2,0.9,0.5c0.1-0.2,0.1-0.3,0.2-0.5c0.1,0,0.2-0.1,0.3-0.1c-0.2-0.1-0.4-0.2-0.5-0.3
			c0.6,0.1,1.1-0.5,1.7-0.5c0.6-0.1,1.1,0.3,1.7,0.3c0.9,0.1,1.6,0.5,2.5,0.5c-0.2-0.2-0.5-0.4-0.7-0.6c0.2,0,0.3-0.1,0.5-0.1
			c0.2-0.1,0.4,0.1,0.6,0.2h-0.4c0.2,0.3,0.5,0.8,0.2,1.2v-0.3h-0.4c0.1,0.4,0.5,0.6,0.8,0.9c-0.2-0.1-0.5-0.2-0.7-0.4
			c-0.2,0.8-1,1.3-1.5,1.9c0.4,0.3,0.9,0.6,1.2,1c0.4,0.5,0.5,1.1,0.5,1.7c0.6-0.6,1.2-1.1,1.9-1.5c1.7-0.9,3.6-1.1,5.5-1.5
			c0.6-0.1,1.2-0.2,1.6-0.7c0.7-0.9,1.1-2,2.1-2.6c0.7-0.5,1.7-0.3,2.2,0.3c0.5,0.7,0.6,1.6,0.6,2.5c-0.1,2.6-1.6,5-3.7,6.5
			c-1.5,1-3.2,1.5-4.9,2c-1.8,0.5-3.8,1.3-4.8,3c0,1.2,0.2,2.3,0.1,3.5c2.1,0.5,2.7,2.8,4.2,4.1c-0.1,0.1-0.3,0.2-0.4,0.3
			c0.3,0.7,0.5,1.3,0.5,2.1h-0.3c0.1,0.6,0.2,1.2,0.1,1.8c-0.1-0.1-0.2-0.2-0.3-0.2c0,2-0.8,3.9-1.9,5.4c0.8,0.6,1.6,1.4,2,2.4
			c0-0.2,0.1-0.5,0.1-0.7c1,1.3,1,3,0.9,4.5s-0.4,3.1-0.6,4.6c0.4-0.1,0.7-0.1,1-0.4c0.7-0.6,1.3-1.3,1.8-2.1c0.6-1.3,0.9-2.8,1.9-4
			c0.3-0.4,0.9-0.7,1.4-0.4c1,0.6,1.6,1.6,2.2,2.6c0.4,0.9,0.9,1.8,0.7,2.8c-0.3,0.5-0.9,0.7-1.5,0.9c-1.1,0.3-2.3,0.2-3.4,0.8
			c-1.1,0.7-2,1.8-2.4,3c-0.1,0.2-0.2,0.5,0,0.8c0.8,1.4,1.8,2.7,2.1,4.2c0.4,1.9,0.7,3.7,1,5.6c0.5,0.4,0.9,0.8,1.2,1.3
			c1.8,0.6,3.4,1.7,5.1,2.5c0.4,0.2,0.8,0.4,1.2,0.1c1.2-0.8,2.1-1.9,3.2-2.6c0.3-0.2,0.7-0.2,0.9,0.1c0.5,0.5,0.3,1.3,0.4,1.9
			c0.1,0.8-0.1,1.5-0.3,2.2c2.7,0.9,5.1,2.6,6.8,4.9c1.2,1.7,2,3.7,2.7,5.7c1.2,3.6,2.1,7.3,3.2,11c0.7,2.4,1.5,4.7,2.2,7.1
			c0.8,2.8,1.5,5.7,1.8,8.6c0.2,2.4,0.1,5-1.1,7.1c-0.6,1.2-1.6,2-2.7,2.7c-1.5,1.1-3.2,1.8-5,2.1c-2.1,0.3-4.2,0.1-6.3-0.1
			c-0.2,2.7-1.1,5.2-2.3,7.6c-0.3,0.5-0.7,1.1-0.6,1.7c0.7,4.2,1.7,8.4,2.6,12.6c-0.2,0-0.5,0.1-0.7,0l-0.1-0.1
			c-0.8-4.2-1.7-8.3-2.3-12.5c-0.6,1-1.3,1.9-2,2.8c-1.6,2.5-3.8,4.7-6.3,6.4c-1.9,1.4-4.1,2.5-6.3,3.4c-0.4,0.1-0.8,0-1.2,0
			c4.4-1.6,8.5-4.1,11.7-7.6c-1.5,1.3-3,2.5-4.7,3.4c-4.5,2.6-9.8,3.8-15,4s-10.5-0.6-15.2-2.8c-5-2.3-9.4-6.1-12.3-10.8
			c0.6,2.5,2.2,4.6,4,6.4c3.6,3.6,8.3,5.9,13.1,7.4c-0.5,0.1-0.9,0.1-1.4,0c-4-1.3-7.9-3.3-11.1-6.1c-2-1.8-3.7-3.9-4.7-6.4
			c-0.4-1-0.4-2.2-1.1-3.2c-0.9,2.7-1.5,5.6-1.9,8.4c-0.3,2.4-0.6,4.9,0,7.4c-0.2,0-0.5,0-0.7,0c-0.5-2.7-0.1-5.5,0.3-8.2
			c0.4-2.4,0.9-4.8,1.7-7.1c0.1-0.4,0.4-0.8,0.2-1.3c-0.8-1.7-1.3-3.5-1.6-5.4c0-0.4,0-0.7-0.1-1.1c-0.2-0.4-0.5-0.7-0.7-1.1
			c-1.1-1.8-1.7-3.9-2.2-5.9c-0.3-1.5-0.9-3-1.3-4.5c-1.8-6.2-3-12.8-2.3-19.3c0.4-3.1,1.3-6.1,3-8.7c0.3-0.4,0.2-0.8,0.2-1.2
			c0-0.5,0.2-0.9,0.2-1.3c-0.1-0.6-0.4-1.2-0.3-1.8c0.1-0.7,0.1-1.4,0.5-2c0.4-0.8,1.1-1.3,1.8-1.9c1-0.7,2.2-0.9,3.3-1
			c1.4,0.1,2.9,0.6,4.2,1c1.5-0.6,2.9-1.5,4.2-2.5c0.4-0.3,0.8-0.8,1.1-1.2c-0.1-0.5,0.2-0.9,0.6-1c0.1-0.7,0.7-1.2,0.6-1.9
			c-0.1-1.6,0.1-3.2,0.4-4.8c-0.4-1.4-1.6-2.6-3.1-3c-1.6-0.3-3.1,0.5-4.7,0.2c-0.6-0.1-1-0.6-1.1-1.2c-0.3-1.1,0-2.3,0.4-3.4
			c0.3-0.8,0.7-1.6,1.5-2c0.6-0.3,1.3-0.1,1.8,0.3c1,0.8,1.5,2.1,2.4,3.1c0.8,0.7,1.7,1.1,2.7,1.4c0.1-0.8,0.4-1.6,0.5-2.4
			c-0.1-0.7-0.6-1.3-0.8-1.9c-0.7-1.3-1.3-2.8-0.9-4.3c0.2-0.9,0.8-1.6,1.6-2c0,0.1,0,0.3,0,0.4c0.4-0.3,0.8-0.7,1.2-0.8
			c0.7-0.2,1.4-0.7,2.2-0.7c0.9-0.1,1.8,0.4,2.4,1.1c0.4,0.4,0.6,0.8,0.9,1.2c0.2-0.1,0.4-0.2,0.5-0.4c-0.2-0.6-0.5-1.1-0.8-1.6
			c-1.3-2.1-2.9-3.9-3.7-6.2c-0.5-1.2-0.5-2.6-0.1-3.8c-0.2,0.1-0.4,0.2-0.6,0.3c0.1-0.6,0.3-1.3,0.7-1.8c-0.1-0.1-0.3-0.2-0.4-0.3
			c1-1.1,1.5-2.6,2.6-3.7c0.5-0.5,1.2-0.7,1.8-0.8c0-1.2-0.1-2.3,0-3.5c0.1-0.4-0.3-0.7-0.5-0.9c-2.1-2.2-4.9-3.5-7.2-5.5
			c-1.9-1.9-3.1-4.4-3.5-7c-0.2-1.3-0.3-2.8,0.4-3.9c0.4-0.7,1.3-0.7,1.9-0.2c1.7,1.4,2.3,3.8,4,5.1c2.4,1.5,5.1,2.7,6.8,5
			c0.2-0.8,0.7-1.6,1.3-2.2c0-0.3-0.4,0-0.5,0c0.1-0.1,0.1-0.3,0.2-0.4c-0.3-0.2-0.6-0.3-1-0.3c-1.9-0.2-3.9-0.4-5.4-1.6
			c-0.7-0.5-0.2-1.4,0.1-2c1.2-1.7,3.1-2.6,5-3.2c0.1-1.2,0.3-2.4,0.9-3.5c0.2-0.5,0.7-0.8,1.1-1c1-0.5,2.1-0.8,3.2-1
			c-0.1-0.4-0.2-0.8-0.3-1.2c-0.2,0.3-0.4,0.6-0.6,0.9c-0.6-0.4-1.3-0.8-2-0.9c-0.1-0.2-0.3-0.4-0.4-0.6c-0.3,0.3-0.6,0.6-0.9,0.8
			c-0.5-0.4-0.7-0.9-1-1.4c-0.1,0.2-0.3,0.4-0.4,0.6c-1-0.1-2,0.2-2.9,0.6c-0.1-0.1-0.2-0.2-0.2-0.2c-0.6,0.8-1,1.6-1.2,2.6
			c-0.2-0.5-0.3-1.1-0.4-1.6c-0.2,0.6-0.4,1.2-0.5,1.9c-0.6-1-0.5-2.2,0-3.2C167,5.9,168.7,4.7,170.5,4z M171.5,3.7
			c1.3-0.1,2.7,0.2,3.9,0.8c1.9,0.9,3.4,2.5,4.3,4.4c0.3,0,0.7,0,1,0.1c-0.3-0.2-0.7-0.3-1-0.5c0.4-0.3,0.9-0.3,1.3-0.4
			c-0.4-0.5-1-0.9-1.7-1c0.2,0,0.5-0.1,0.7-0.1c-0.5-0.7-1.4-1.1-2.2-1.3c0.4,0,0.7-0.3,0.9-0.5c-0.9-0.8-2.1-1.4-3.4-1.2
			c0.1-0.1,0.3-0.2,0.4-0.3c-0.6-0.3-1.3-0.2-1.9-0.1C173.2,3.2,172.3,3.5,171.5,3.7z M167.8,6.1c-1.1,1-1.9,2.4-1.8,3.9
			c0.2-0.5,0.3-1.1,0.5-1.5c0.3-0.6,0.4-1.2,0.9-1.7c-0.3,1-0.4,2-0.4,2.9c0.2-0.6,0.4-1.2,0.8-1.8c0.3-0.5,0.7-0.9,0.9-1.4
			c0.3-0.7,0.9-1.3,1.6-1.6c-0.9,0.7-1.3,1.7-1.6,2.8c0.8-0.3,1.6-0.4,2.4-0.5c0.6-0.6,0.6-1.4,0.8-2.1c0,1,0.2,2,0.8,2.8
			c0.2-0.2,0.4-0.5,0.6-0.7c-0.2-0.5-0.2-1.1,0-1.6c0,0.6,0.2,1.2,0.4,1.7c0.2-0.5,0.4-0.9,0.7-1.3c-0.3,0.6-0.4,1.2-0.3,1.8
			c0.7,0.1,1.3,0.4,1.8,0.9c0.3-0.6,0.8-1,1.2-1.5c-0.1,0.5-0.1,1,0,1.5c0.2-0.2,0.5-0.4,0.7-0.7c-0.2,0.4-0.4,0.8-0.4,1.3
			c0.7-0.1,1.4-0.1,2.1,0c-0.3-0.8-0.8-1.4-1.3-2.1c-1.5-1.7-3.5-3-5.8-3.2C170.7,4.1,169.1,4.9,167.8,6.1z M179.8,9.3
			c0.1,0.1,0.2,0.2,0.4,0.3c0.9,0.2,1.9,0.5,2.7,0.9c0.3,0.1,0.6,0.3,0.5,0.6c-0.1,0.5-0.5,0.9-0.9,1.2c-1,0.7-2.2,0.9-3.4,1.2v0.1
			c0.3,0.2,0.6,0,0.9-0.1c1.2-0.3,2.4-0.7,3.3-1.6c0.4-0.4,0.6-1.3-0.1-1.6C182.1,9.7,180.9,9.4,179.8,9.3z M176.1,10.1
			c-0.9,0.3-2,0.5-2.7,1.2c-0.7,1-0.8,2.3-0.8,3.4c1.9-0.6,3.9-1.1,5.9-1.6c1-0.3,2.1-0.5,3.1-0.8c-0.5-0.9-1.2-2-2.2-2.5
			C178.3,9.7,177.1,9.9,176.1,10.1z M180.2,9.9c0.7,0.7,1.3,1.4,1.8,2.2c0.4-0.3,0.9-0.6,1-1.1c0.1-0.2-0.3-0.3-0.4-0.4
			C181.9,10.3,181.1,10.1,180.2,9.9z M183,12.4c-1.2,1-2.7,1.3-4.2,1.6c0-0.2,0.1-0.4,0.2-0.6c-1.2,0.4-2.4,0.7-3.7,0.9
			c0.1,0.1,0.2,0.1,0.3,0.2c1-0.3,2.1-0.5,3.1-0.8c0,0.1-0.1,0.2-0.1,0.3c-1.3,0.2-2.6,0.6-3.9,0.9c-0.1-0.1-0.2-0.1-0.3-0.2
			c0.3-0.1,0.6-0.1,0.9-0.1c0-0.1,0-0.2,0.1-0.2c-0.7,0.2-1.4,0.4-2.1,0.6c0.1,0.1,0.2,0.1,0.3,0.2c0.2-0.1,0.4-0.2,0.7-0.3
			c0.1,0.1,0.2,0.1,0.3,0.2c-1.2,0.3-2.5,0.6-3.6,1.2c-0.1-0.1-0.2-0.1-0.2-0.2c0.9-0.2,1.7-0.7,2.6-0.8c-0.1-0.1-0.2-0.1-0.3-0.2
			c-1.8,0.6-3.6,1.2-5.1,2.4c0.8-0.6,1.7-1,2.6-1.4c0,0.1,0,0.2-0.1,0.3c-1.1,0.5-2.3,1-3,2.1c-0.3,0.5-0.6,1.2,0,1.6
			c1.5,1,3.4,1.4,5.2,1.3c0-0.2-0.1-0.3-0.1-0.5c-0.1,0.1-0.3,0.3-0.4,0.4c0-0.3,0-0.6,0-1c-0.1,0.1-0.3,0.3-0.5,0.4
			c0.1-0.4,0.2-0.9,0.5-1.2c-0.1,0-0.3,0-0.4,0c0.4-0.3,0.7-0.7,1-1.1c-0.1-0.1-0.2-0.3,0-0.4c1.4-1.5,3.3-2.4,5.3-3
			c1.7-0.5,3.6-0.7,5.3-0.1c-0.2,0-0.5,0-0.6,0c0.3,0.3,0.6,0.6,0.9,0.9c0.4-0.5,0.9-1.1,1-1.7c0-1-0.3-2-0.6-2.9
			C183.6,11.6,183.4,12.1,183,12.4z M159.6,15.2c-0.4,0.8-0.3,1.8-0.2,2.6c0.3,2.2,1.2,4.4,2.6,6.2c2.3,2.9,5.8,4.4,8.2,7.1
			c0-0.5,0.1-1,0.2-1.4c-2.1-2.3-4.9-4-6.9-6.3c-1.1-1.3-1.9-2.9-2.3-4.6c-0.2-0.8-0.3-1.7,0.2-2.4c0,0.1,0,0.3,0,0.5
			c0.9,0.8,1.5,1.9,2.2,2.9c0.4,0.5,0.8,1,1.3,1.5c-1.5-0.8-2.3-2.5-3.4-3.7c0.3,2.5,1.5,4.8,3.3,6.5c1.9,1.9,4.1,3.3,5.9,5.2
			c0.4-0.7,1-1.2,1.6-1.6c-1.4-1.9-3-3.6-4.8-5c1.8,1,3.3,2.6,4.6,4.2c-0.1-0.7,0.2-1.5-0.3-2c-0.5-0.6-1.1-1.1-1.8-1.6
			c-1.6-1.1-3.3-2.1-4.9-3.1c-1.3-0.9-1.9-2.4-2.7-3.6c-0.5-0.7-0.9-1.4-1.7-1.8C160.2,14.5,159.7,14.8,159.6,15.2z M196,18.6
			c-1,0.8-1.4,2.3-2.6,3c-1,0.5-2.1,0.6-3.1,0.9c-2,0.5-4.1,1.3-5.5,3c-0.1,0.7-0.3,1.4-0.4,2c0.9-1.1,2.2-1.9,3.5-2.4
			c-1,0.6-1.9,1.3-2.7,2.1c-0.4,0.5-0.9,0.9-1.1,1.6c0.2,0.2,0.3,0.4,0.5,0.7c2.2-2.1,5.3-2.9,7.9-4.4c1.5-0.8,2.6-2.3,2.9-4
			c-1.1,1.3-2.7,2-4.2,2.5c1.5-0.7,3.1-1.5,4-2.9c0.2-0.3,0.2-0.6,0.3-0.9c0.2,0.5,0.3,1.1,0.2,1.7c-0.3,1.7-1.5,3.1-2.9,3.9
			c-2.7,1.5-5.8,2.3-8.1,4.4c0.2,0.7,0.3,1.4,0.4,2c0.5-0.6,1.1-1.2,1.8-1.6c1.5-1,3.3-1.3,5-2c1.5-0.6,2.9-1.4,4-2.6
			c1.2-1.3,2-2.9,2.2-4.6c0.1-0.7,0.1-1.5-0.3-2.1C197.4,18.2,196.5,18.1,196,18.6z M179.8,18.5c-0.3,0.5-0.6,0.9-0.9,1.4
			c0.8,0.7,2,0.4,2.7-0.3c-0.2,0-0.5-0.1-0.6-0.1c0.3-0.1,0.8,0,0.9-0.4c-0.5,0-0.9,0.1-1.4,0.2c0.4-0.3,0.9-0.4,1.4-0.4
			c0-0.1-0.1-0.2-0.1-0.3c-0.4,0.1-0.8,0.2-1.1,0.3c0.3-0.2,0.6-0.3,0.9-0.5C181,18.3,180.3,18.2,179.8,18.5z M182,18.7
			c0,0.1,0.1,0.2,0.2,0.3c0.7,0.1,1.3,0.3,2,0.5c-0.1-0.2-0.2-0.4-0.4-0.5C183.2,18.7,182.6,18.6,182,18.7z M175.6,19.6
			c0.3,0.1,0.6,0.1,0.9,0.2c-0.1,0.1-0.2,0.3-0.3,0.4c0.3-0.1,0.5-0.1,0.8-0.2c-0.3,0.2-0.7,0.4-1,0.6c0.9,0.4,2.4,0.4,2.9-0.7
			c-0.4-0.3-0.9-0.5-1.3-0.9C176.9,18.9,176.2,19.2,175.6,19.6z M182.2,19.2c0,0.1-0.1,0.2-0.2,0.3c0.7,0.1,1.3,0.4,1.9,0.8
			c0.1-0.2,0.2-0.4,0.3-0.7C183.5,19.4,182.8,19.1,182.2,19.2z M175.5,20c0.2,0.1,0.7,0,0.7-0.3C176,19.8,175.5,19.8,175.5,20z
			 M181.3,20.5c-0.1,0.5-0.2,0.9-0.4,1.3c0.1,0,0.3,0,0.4,0c-0.4,0.4-0.8,0.8-1.2,1.3c0.4-0.3,0.8-0.5,1.3-0.5
			c0.6-0.9,1.6-1.5,2.3-2.4c-0.6-0.3-1.2-0.6-1.9-0.7C181.7,20,181.4,20.2,181.3,20.5z M173.3,21.6l0.1,0.2c0.5-0.3,0.8-0.7,1.2-1
			c0.3-0.2,0.7-0.4,0.8-0.7C174.6,20.4,173.8,20.9,173.3,21.6z M175.7,20.3c0.2,0.1,0.3,0,0.4-0.2C175.9,20.1,175.8,20.1,175.7,20.3
			z M175.2,20.6c-0.6,0.4-1.1,0.9-1.6,1.3c0.2,0.2,0.4,0.3,0.6,0.5c0.4-0.7,0.9-1.4,1.5-1.9C175.5,20.4,175.3,20.5,175.2,20.6z
			 M178.6,20.9c0.2,0,0.4,0,0.6,0V21c-0.4,0.1-0.9,0.1-1.3,0.1c0.8,0.4,1.9,0.2,2.5-0.3c-0.1,0-0.4,0-0.5,0s-0.3,0.1-0.4,0.1
			c0,0-0.1-0.1-0.1-0.2c-0.1-0.1-0.3-0.1-0.4-0.2C178.9,20.6,178.7,20.7,178.6,20.9z M180.1,21.4c-0.3,0.1-0.3,0.4-0.4,0.6
			c0.3-0.1,0.6-0.2,1-0.3c0.1-0.4,0.3-0.8,0.3-1.2C180.7,20.9,180.5,21.2,180.1,21.4z M174.3,22.4c0.5,0.3,1,0.4,1.6,0.5
			c-0.2-0.5-0.5-0.9-0.8-1.3c0.6,0.1,1.1,0.4,1.6,0.8c-0.1-0.3-0.2-0.6-0.4-0.9c0.2,0,0.5,0.1,0.7,0.1c-0.3-0.5-0.9-0.5-1.3-0.8
			C175.1,21.2,174.6,21.8,174.3,22.4z M177,21.3c0.3,0.3,0.7,0.4,1.1,0.7c0-0.1,0-0.3,0-0.4C177.8,21.5,177.4,21.2,177,21.3z
			 M177,21.8c-0.1,0-0.2,0.2-0.2,0.2c0.1,0.5,0.1,0.9,0.1,1.4c-0.3-0.6-0.7-1.1-1.2-1.4c0.2,0.4,0.4,0.8,0.6,1.2c-0.5,0-1,0-1.5,0
			c0.7,0.7,1.2,1.5,1.5,2.4c-0.3-0.5-0.9-0.7-1.5-0.8c0.6,0.7,1.1,1.6,1.5,2.5c0.2,0,0.5-0.1,0.7-0.1c0-0.8-0.2-1.6-0.4-2.3
			c0.5,0.6,0.7,1.4,0.8,2.2c0.8-0.4,1.6-0.7,2.5-0.7c0.3-0.5,0.6-0.9,0.8-1.4c-0.4,0.1-0.9,0.2-1.3,0.3c0.3-0.7,0.7-1.3,1.3-1.8
			c-0.5,0-1.1,0.1-1.4,0.6c0.3-0.7,0.7-1.4,1.2-2c-0.9,0.2-1.3,1.2-1.6,1.9c0.1-0.7,0.3-1.4,0.5-2.1c-0.2,0-0.4,0-0.6,0
			c-0.1,0.4-0.1,0.7-0.2,1.1c0-0.3-0.1-0.7-0.1-1c-0.1,0.3-0.2,0.5-0.3,0.8C178,22.3,177.5,22,177,21.8z M182.6,22
			c-0.3,0.3-0.6,0.6-0.8,0.9c0.3,0.2,0.6,0.5,0.7,0.8c0.2,0.5,0.7,1,0.6,1.6c-0.1,0.4-0.5,0.3-0.8,0.3c-0.3,0.5-0.9,0.2-1.3,0
			c-0.1,0.3-0.3,0.5-0.4,0.8c0.8-0.1,1.8-0.3,2.4,0.4c-0.7-0.1-1.6-0.4-2.1,0.1c-1.1-0.3-2.1,0.1-3.1,0.5c-0.5,0.2-1.1,0.2-1.6,0.5
			c0,0.1-0.1,0.4-0.1,0.5c0.4-0.2,0.7-0.3,1.1-0.5c-0.4,0.3-0.8,0.7-1,1.2c-0.1,0.2-0.1,0.4,0.1,0.6c0.4-0.6,0.8-1.2,1.5-1.5
			c-0.3,0.5-0.9,0.9-0.9,1.5c0.1,0.4,0.5,0.5,0.8,0.7c0.1-0.7,0.4-1.4,0.8-2c-0.2,0.6-0.5,1.3-0.3,2c0.2,0.1,0.4,0.1,0.6,0.1
			c0.1-0.6,0.2-1.2,0.5-1.7c-0.1,0.6-0.3,1.2,0,1.7c0.3,0.2,0.7-0.2,0.8-0.5c0.2-0.6,0.4-1.2,0.7-1.8c0.1-0.4-0.3-0.6-0.7-0.7
			c0.4,0,0.7,0.1,1,0.3c0.9-0.1,1.9,0.1,2.7,0.6c0.2-1.5,0.7-3,0.4-4.5C183.9,23,183.3,22.4,182.6,22z M172.5,27.5
			c1-0.3,2.2-0.3,3.2,0.1c0.1-0.1,0.3-0.3,0.2-0.4c-0.4-1-1.1-1.9-1.8-2.7c0.5-0.1,1,0,1.4,0.1c-0.4-0.5-0.9-1-1.4-1.4
			c0.1-0.1,0.2-0.2,0.3-0.2c-0.2-0.1-0.4-0.2-0.6-0.3C172.5,23.9,172.2,25.8,172.5,27.5z M180.8,23.1c0.2,0.1,0.3,0.2,0.5,0.3
			c-0.5,0.4-0.9,0.9-1.2,1.4c0.3,0,0.7-0.1,1-0.1c0,0.2-0.1,0.5-0.1,0.6c0.3,0.1,0.5,0.2,0.8,0.2c0-0.4-0.1-0.8-0.2-1.2
			c0.3,0.3,0.4,0.6,0.6,1c0.3,0.1,0.4,0,0.4-0.3c0.1-0.5-0.4-0.9-0.8-1.2h0.3C181.8,23.3,181.4,23,180.8,23.1z M170.9,30.4
			c-0.3,1.7-0.3,3.4-0.3,5.2c1,0,2,0.1,3,0.5c0.1,0,0.2,0.1,0.1,0.1c-1.4-0.2-2.9-0.2-4.2,0.4c-1.4,0.8-2.1,2.4-3.1,3.6
			c0.1,0,0.3,0.1,0.5,0.1c-0.3,0.4-0.6,0.8-0.9,1.3c0.2-0.1,0.5-0.3,0.7-0.4c-0.4,1.3-0.4,2.8,0,4.1c0.9,3,3.1,5.5,4.4,8.3
			c0.6-0.3,1.3-0.6,2-0.8c-1.1-1.5-1.7-3.2-2.2-5c-0.3-1.1-0.3-2.3-0.6-3.4c0-0.8-0.2-1.6,0.3-2.3c0.5-0.6,1.2-1.1,1.4-1.9
			c0.1-0.4,0.1-0.9,0.2-1.3c0.4-1.3,1.2-2.4,2.3-3.1c0.4-0.3,0.9-0.4,1.2-0.8c-1.4-0.1-3,0.7-4.2-0.2c-0.1-0.7,0.2-1.4,0.7-1.9
			c-0.1,0-0.2,0-0.3,0c0.3-0.6,0.9-1.1,1.6-1.2c0.9-0.1,1.8,0.5,2.1,1.4c-0.5-0.4-0.9-1-1.6-1.1c-0.7-0.1-1.2,0.3-1.8,0.6
			c0.1,0.1,0.2,0.1,0.2,0.2c0.7-0.4,1.6-0.3,2.3,0c0.6,0.3,1,0.9,1.3,1.5c0.2-0.7,0.3-1.3,0.3-2c0.3,0.9,0.1,1.9-0.3,2.7
			c2.7-0.7,5.9,1,6.6,3.8c0.1,0.9,0.3,1.7,0.8,2.5c0.3,0.6,1.2,0.4,1.5,1.1c0.4,1,0,2-0.1,3c-0.3,1.3-0.8,2.6-1.1,3.9
			c1-0.4,2.1-0.4,3.2-0.1c1.3-1.8,2.1-4,1.9-6.3c0.2,0.2,0.4,0.4,0.5,0.6c-0.1-0.7-0.4-1.4-0.7-2.1c0.3,0.1,0.5,0.3,0.8,0.5
			c-0.2-0.6-0.6-1.2-0.9-1.7c0.2,0,0.4-0.1,0.6-0.1c-0.7-0.5-1.2-1.2-1.7-1.9c-0.6-0.8-1.4-1.5-2.4-1.7s-2.1-0.2-3.1-0.2v-0.1
			c1-0.2,2.1-0.4,3.1-0.4c-0.1-1.8-0.2-3.7-0.7-5.4c-0.3-1.4-1.7-2.3-3.1-2.2c-0.1,0.2-0.2,0.4-0.3,0.6c0.2,0,0.5-0.1,0.7-0.1
			c-0.1,0.1-0.2,0.2-0.3,0.3c0.5-0.1,1.2-0.2,1.6,0.3c0.6,0.4,1.1,0.9,1.1,1.7c-0.4-0.3-0.7-0.7-1.1-1v0.3c-0.5-0.3-1-0.4-1.6-0.5
			c0-0.1,0.1-0.2,0.1-0.2c-0.3,0-0.7,0.1-1,0.1c-0.1,0.8-0.9,1.7-1.7,1.3c-0.4,0.1-0.9,0.2-1.2-0.2c-0.3-0.1-0.7-0.1-1-0.3
			c-0.4-0.3-1-0.4-1.2-1c-0.2-0.1-0.4-0.1-0.6-0.2l0.1,0.3c-0.3-0.1-0.7-0.1-1-0.2l0.1,0.2c-0.5,0-1.1,0.2-1.5,0.5l-0.1-0.2
			c-0.4,0.3-0.7,0.6-1.1,0.9c0.1-0.5,0.3-1,0.7-1.3c0.3-0.2,0.6-0.4,0.8-0.7c0.4-0.1,0.8-0.1,1.2,0l-0.1-0.3
			c0.4,0.1,0.9,0.2,1.3,0.4c0-0.1,0.1-0.2,0.1-0.2c0.1,0.1,0.3,0.2,0.4,0.4c0.1-0.3,0-0.6-0.1-0.9C173.7,27.5,171.3,28.4,170.9,30.4
			z M173.2,33.1L173.2,33.1c-0.7,0.2-1.3,0.9-1.5,1.6c0.3,0.3,0.7,0.3,1.1,0.4c-0.1-0.3-0.3-0.7-0.2-1.1c0.1-0.4,0.4-0.6,0.7-0.8
			l0.2,0.2c-0.7,0.1-0.9,1.2-0.3,1.6c0.5,0,0.9-0.1,1.4-0.2c0.1-0.3,0.2-0.6,0-0.9c0.1,0,0.2,0.1,0.3,0.1c0,0.2,0,0.5-0.1,0.7
			c0.3,0,0.6-0.1,0.9-0.1c-0.2-0.6-0.7-1.1-1.3-1.4l0,0C174,33.3,173.6,33.2,173.2,33.1z M172.2,40.9c0-0.1-0.1-0.3-0.1-0.4
			c-0.4,0.7-1.2,1.2-1.6,1.9c-0.3,1.1-0.1,2.2,0.2,3.3c0,1.3,0.6,2.4,1,3.6c0.8,2.1,2,4.2,4.2,5c0.1,0,0.2-0.1,0.3-0.1
			c0.1,0.2,0.3,0.3,0.4,0.5c0.2-0.2,0.4-0.4,0.5-0.6c0.1,0.3,0.2,0.6,0.3,0.9c0.2-0.3,0.4-0.6,0.6-0.9c0.1,0.2,0.2,0.4,0.2,0.6
			c0.1-0.2,0.2-0.4,0.3-0.6c0,0.1,0,0.3,0,0.4c1.3-0.2,2.6-1,3.3-2.1c0.2-0.7,0.2-1.5,0.6-2.2c0.1-0.3,0.5-0.5,0.7-0.8
			c0.3-0.9,0.6-1.8,1-2.6c0.5-1,0.7-2.1,0.6-3.2h0.2c0-0.5-0.1-1.1-0.4-1.4c-0.4-0.2-0.8-0.2-1.1-0.6c-0.4-0.3-0.3-0.9-0.7-1.3
			c-0.3-1.1-0.7-2.3-1.5-3.1c-1.2-1.3-3.1-1.8-4.8-1.5C174,36.1,172.1,38.5,172.2,40.9z M184.2,49.6c1.3,0.7,2.1,2,2.5,3.4
			c0.4,1.2,0.4,2.6-0.2,3.7c0.7-0.4,1.8-0.8,1.8-1.8c0-1.2-0.1-2.5-0.4-3.7c-0.1-0.5-0.3-1.1-0.8-1.4
			C186.2,49.3,185.1,49.4,184.2,49.6z M182.5,51.2c-0.2,1.2-0.1,2.4,0.3,3.6c0.2,0.4,0.5,1,1,0.9c-0.3-0.3-0.7-0.7-0.8-1.1
			c-0.3-1.1-0.4-2.3-0.2-3.4c0.1-0.5,0.5-1,1-0.9c0.6,0.2,0.9,0.7,1.2,1.2c0.7,1.4,1.1,3,0.9,4.5c0.1,0.1,0.2,0.3,0.3,0.4
			c0.6-1.6,0.2-3.4-0.7-4.9c-0.5-0.7-1.1-1.6-2-1.6C182.9,49.9,182.6,50.6,182.5,51.2z M183.5,50.8c-0.5,1.1-0.3,2.3-0.1,3.4
			c0.2,1.1,1.3,1.6,2.2,1.8c0.1-1.7-0.3-3.4-1.2-4.9C184.3,50.8,183.7,50.3,183.5,50.8z M188.3,50.9c0.4,1.5,0.6,3.1,0.5,4.7
			c-0.3,0.8-1.1,1.2-1.8,1.5c0.3,0.6,0.7,1.2,1,1.8c0.2,0.5,0.8,0.8,1.2,1c0.3-1.8,0.6-3.5,0.7-5.3c0-1,0-2-0.4-2.9
			c0,0.2-0.1,0.6-0.1,0.7C189.1,52,188.8,51.4,188.3,50.9z M164.6,53.7c-0.7,1.2-0.8,2.7-0.2,3.9c0.4-1.3,1.2-2.5,2.5-3.2
			c0.8-0.5,1.8-0.6,2.8-0.5c-0.6-0.8-1.4-1.6-2.4-1.7C166.2,52.1,165.1,52.8,164.6,53.7z M163,54.5c0.1-0.4,0.2-0.7,0.3-1.1
			c-0.7,0.9-1.1,2.2-0.8,3.4c0.3,1.3,1,2.6,1.5,3.9c0.4,1-0.2,2.1-0.3,3.1c0.3,0,0.7,0,1,0c0.6-1.6,0.6-3.3,1.4-4.8
			c-0.4,0-0.9,0-1.3-0.2c-0.7-0.6-1.1-1.6-1.1-2.5c-0.1-1.1,0.3-2.2,0.9-3.2C163.8,53.4,163.3,53.8,163,54.5z M170.4,54.7
			c0.4,1.2-0.2,2.6-1.1,3.4c-0.8,0.5-1.8,0.7-2.7,0.9c-0.8,1.5-0.9,3.2-1.7,4.7c-0.2,0.4-0.5,0.7-0.8,1c0.1-0.1,0.2-0.3,0.3-0.4
			c-1.3-0.1-2.6-0.5-3.7-1.2c-1.1-0.9-1.8-2.3-3-3.2c-0.3-0.2-0.6-0.4-1-0.3c-0.5,0.2-0.9,0.8-1.1,1.3c-0.4,0.8-0.7,1.8-0.6,2.7
			c0,0.6,0.4,1.2,0.9,1.3c1.4,0.4,2.9-0.1,4.4,0.1c1.3,0.3,2.5,1.1,3.1,2.4c0.1,0.2,0.2,0.2,0.4,0.3c-0.3,2.7-0.3,5.3-0.1,8
			s0.7,5.4,2,7.8c-1.4-1.9-1.9-4.3-2.4-6.5c-0.2,0.3-0.2,0.7-0.3,1.1c0.2,0.5,0.3,1,0.2,1.5c0.4,0.4,0.7,0.9,0.6,1.5
			c0.5,0.5,0.8,1.2,0.9,1.9c0.5,0.2,0.8,0.8,0.7,1.3c0.5,0.1,0.9,0.6,0.9,1.1c0.6,0.4,1,0.9,1,1.6c0.8,0.5,1.3,1.3,1.2,2.2
			c0.3,0.2,0.6,0.3,0.7,0.6c0.2,0.3,0,0.6,0,1c0.4,0.2,0.8,0.4,1,0.8s0,0.8-0.1,1.1c0.1,0.3,0.2,0.6,0.3,0.9
			c0.2,0.2,0.5,0.4,0.6,0.6c0.6,1.2,1.4,2.2,2.2,3.2c1.6,1.8,3.5,3.3,5.7,4.1c1.9,0.7,4.1,0.8,6,0.2c2.3-0.7,4.2-2.3,5.6-4.2
			c1.3-1.8,2.3-3.8,2.7-5.9c-0.2-0.9-0.1-1.8,0.4-2.6c-0.1-0.6,0.1-1.1,0.6-1.5c-0.1-0.6-0.2-1.3,0.2-1.8c-0.2-0.8,0-1.7,0.6-2.3
			c0-0.7,0.2-1.4,0.4-2.1c0.1-0.7,0-1.4,0-2.1c-0.1-0.5-0.4-0.9-0.6-1.4c-0.3,1.4-0.8,2.8-1.6,4.1c0.7-2.1,1.2-4.4,0.9-6.6
			c-0.2-1.8-0.5-3.6-0.8-5.4c-0.2-0.9-0.3-1.8-0.6-2.6c-0.6-1.4-1.5-2.7-2-4.2c0.1,0.2,0.3,0.3,0.4,0.5c0.3-1.5,1.4-2.6,2.6-3.4
			c1-0.7,2.4-0.6,3.6-1.1c0.4-0.1,0.9-0.4,0.9-0.9c0-0.8-0.4-1.6-0.8-2.3c-0.4-0.7-0.9-1.4-1.7-1.8c-0.4-0.2-0.8,0.1-1,0.4
			c-0.9,1.1-1.3,2.5-2,3.8c-0.6,0.9-1.4,1.7-2.3,2.2c-0.7,0.4-1.4-0.1-1.9-0.5l0.1,0.4c-0.3-0.3-0.5-0.6-0.7-0.9
			c-0.1,0.2-0.1,0.4-0.2,0.6c-0.1-0.3-0.3-0.7-0.5-1c-0.1,0-0.2,0.1-0.3,0.2c-0.5-0.6-1.3-0.9-2.1-1.1c0.1-0.1,0.2-0.2,0.3-0.3
			c-0.7,0-1.4,0.1-2.1,0.3c0-0.1,0.1-0.3,0.2-0.4c-0.8,0.5-1.6,0.9-2.5,1.2c0-0.1,0.1-0.3,0.1-0.4c-0.6,0.3-1.2,0.6-1.8,1
			c0.1-0.8,0.4-1.5,1-2.1c0.4-0.4,0.9-0.5,1.4-0.6c-0.1-0.1-0.2-0.2-0.3-0.2l0.2,0.1l0.1-0.3c0.4-0.4,0.9-0.5,1.4-0.7
			c0.1-0.1-0.2-0.3-0.2-0.4c-0.4-0.5-0.5-1.2-0.6-1.8c-0.1,0-0.3-0.1-0.4-0.2c-0.6,0.6-1.4,1.2-2.2,1.4c-0.3,0.1-0.7,0.1-1,0.3
			c-0.1-0.2-0.3-0.3-0.4-0.5c-0.2,0.5-0.5,0.9-0.9,1.2c0-0.4,0.1-0.8,0.1-1.3c-0.2,0.2-0.4,0.4-0.6,0.7c-0.3-0.4-0.8-0.4-1.2-0.6
			c-0.7-0.3-1.4-0.9-1.9-1.5C172.3,53.5,171.3,54,170.4,54.7z M167.8,54.5c-1.4,0.4-2.4,1.6-2.9,2.9c-0.1,0.3-0.2,0.8,0.3,0.9
			c1.1,0.1,2.2-0.1,3.3-0.5c0.9-0.2,1.4-1.1,1.6-1.9c0.2-0.5,0.1-1.2-0.4-1.4C169.1,54.3,168.4,54.4,167.8,54.5z M181.6,56.6
			c0.1,0.1,0.2,0.2,0.3,0.2c-0.1,0.2-0.1,0.4-0.2,0.7c0.4-0.6,1.1-0.8,1.6-1.3C182.6,56.2,182.1,56.5,181.6,56.6z M183.8,56.1
			c-0.1,0.2,0,0.3,0.2,0.3C184.1,56.2,184,56.1,183.8,56.1z M162.9,74.6c-0.1,0.2-0.2,0.5-0.2,0.7c-0.3,0.2-0.5,0.6-0.6,1
			c-0.4,0.4-0.7,1-0.4,1.6c-0.2,0.6-0.1,1.2,0.2,1.7c0.1,0.5,0.2,1,0.5,1.5c-0.6-0.1-0.9-0.8-0.9-1.4c-0.4-0.6-0.6-1.3-0.2-1.9
			c-0.1-0.1-0.1-0.3-0.2-0.4c-1.2,1.1-2.6,2-4,2.8c2.1,1.1,3.8,2.7,5.2,4.6c1.5,2,2.6,4.3,3.3,6.7c1.6,0.5,2.2,2.3,3.5,3.3
			c0-0.3,0.1-0.5,0.2-0.8c0.1,0.4,0.2,0.9,0.5,1.3c0.3,0.3,0.6,0.6,0.8,0.9c0.4,0.7,1,1.4,1.6,1.9c-0.1-0.7-0.6-1.2-1.1-1.6
			c-0.1-0.4-0.3-0.7-0.5-1.1c0-0.6,0-1.3-0.6-1.6c-0.1-0.4-0.3-0.7-0.5-1.1c0-0.4,0.2-0.8,0-1.2c-0.2-0.4-0.6-0.5-0.9-0.6
			c0.1-0.3,0.2-0.6,0.1-0.9c-0.1-0.3-0.4-0.5-0.7-0.7c0.1-1-0.5-1.8-1.2-2.4c-0.1-0.6-0.5-1.2-1-1.5c0-0.6-0.5-0.9-1-1
			c0-0.5-0.1-1.1-0.6-1.4c-0.2-0.9-0.6-1.8-1.4-2.3c0.1,0,0.3,0,0.4,0c0-0.5-0.3-0.9-0.7-1.1c0.1-0.6,0.1-1.2-0.2-1.7
			c0.3-0.5,0.4-1.1,0.4-1.6c0.1,0.1,0.3,0.2,0.4,0.3C163.1,76,163.1,75.3,162.9,74.6z M194.7,75c0.1,0.7,0.1,1.4,0.1,2.1
			c0.2,0.5,0.4,1,0.6,1.5c0.1-0.1,0.2-0.2,0.3-0.3c-0.4,1.2,0.3,2.5-0.2,3.6c-0.2,0.5-0.2,1.1-0.3,1.7c-0.5,0.6-0.7,1.4-0.4,2.2
			c-0.4,0.6-0.3,1.2-0.2,1.9c-0.2,0.3-0.4,0.5-0.5,0.7c-0.1,0.4,0,0.8-0.3,1.1c-0.4,0.6-0.4,1.3-0.2,2c-0.2,0.6-0.3,1.2-0.1,1.8
			c-0.7,1-0.9,2.2-0.6,3.4c-0.4,0.8-0.6,1.7-0.5,2.6c-0.5,1.1-0.9,2.1-1.1,3.3c0.7-0.6,1.3-1.2,2-1.8c0.6-0.5,0.3-1.3,0.3-1.9
			c0.3-0.9,0.5-1.8,0.4-2.7c0.3-0.8,0.5-1.8,0.4-2.7c0.6-0.6,0.8-1.5,0.8-2.4c0.3,0.9,0.2,1.9-0.3,2.6c0.1,0.8,0,1.7-0.5,2.4
			c0.1,0.9,0.1,1.9-0.4,2.7c0,0.4,0.1,0.7,0.1,1.1c1.3-1.5,2.1-3.4,3.3-5.1c0.3-0.4,0.8-0.7,1.2-0.9c0.6-2.6,1.4-5.2,2.3-7.8
			c0.8-2.1,1.6-4.3,2.7-6.3c0.5-0.9,1-1.8,1.8-2.3c-0.4,0.5-0.8,1-1.1,1.6c0.4,0.1,0.8,0.2,1.2,0.3c0.3-0.6,0.6-1.3,0.6-2
			c0-0.3,0-0.6-0.1-0.9c0-0.3-0.5-0.5-0.7-0.3c-1.2,0.7-2.1,1.8-3.4,2.4c-0.4,0.2-0.9,0-1.4-0.2c-1.4-0.6-2.7-1.4-4.1-2
			c0.1,0.4,0.1,0.7,0,1.1c0.1,0.1,0.2,0.3,0.3,0.4c0.2,0.4-0.2,0.8,0,1.2c0.3,0.7,0.1,1.4-0.4,2c0.2-0.7,0.2-1.5-0.1-2.1
			c0.2-0.5,0.1-1-0.3-1.3c0-0.4,0.1-0.8-0.2-1.1C195.4,76,195.2,75.4,194.7,75z M149.5,79.9c-0.3,0.1-0.6,0.5-0.3,0.7
			c0.8,0.5,1.9,0.6,2.7,1.1c-1.2-0.2-2.6-0.3-3.7-1c-0.6,0.5-1.1,1.3-0.9,2.1c0.4,0.6,1.2,0.5,1.9,0.7c-0.7,0.3-1.5,0.2-2.2,0
			c0,0.5-0.1,1,0,1.5c0.2,0.6-0.1,1.3,0,1.9c1.6-2,3.7-3.8,6.1-4.7c0.7-0.3,1.5-0.3,2.2-0.3c0.6,0.4,1.2,0.7,1.9,1
			c-0.3-0.3-0.6-0.6-0.9-0.9c-1.2-1-2.9-0.5-4.1-1.5c-0.6,0.1-1.3,0.1-1.8-0.2c0.6,0,1.2-0.1,1.8-0.2c1.3,0.9,3,0.6,4.3,1.5
			c0.9,0.5,1.4,1.4,2.1,2.1c1.1,0.9,2.2,1.7,3,2.9c0.8,1.3,1.6,2.7,2.3,4c0.4,0.1,0.7,0.3,1.1,0.4c-0.8-2.2-2-4.2-3.5-6.1
			s-3.3-3.5-5.6-4.4c-1.2-0.5-2.4-0.9-3.7-1.1C151.4,79.3,150.4,79.5,149.5,79.9z M202.1,84.4c-1.1,3.1-2.2,6.2-3,9.4
			c0.5-0.1,1.1-0.1,1.6-0.4s1.1-0.6,1.7-0.6c0.7,0,1.2,0.5,1.7,0.9c0.7,0.7,1.4,1.5,1.9,2.3c0.3,0.5,0.2,1.1,0.1,1.7
			c1.3,0.8,2.4,1.8,3.4,2.9c1.1,1.4,2.7,2.4,3.6,4c0.4,1.2-0.1,2.4-0.2,3.6c0.3,0.7,0.8,1.4,0.4,2.1c0.3,1.3-0.2,2.7-1,3.7
			c-0.4,0.5-1,1.1-1.7,1.1c-1.2,0-2.3-0.7-3-1.5c-0.5,0.4-1,0.8-1.6,1.1c-0.7,0.4-1,1.2-1.5,1.8c-0.5,0.7-1,1.3-1.8,1.7
			c-1.4,0.7-2.9,1.1-4.4,1.7c-2,0.7-4.2,1.4-5.9,2.7c0.1,0.9,0,1.9-0.1,2.8c4.3,0.8,8.5,1.5,12.8,2.2c2.7,0.3,5.5,0.7,8.3,0.4
			c2.2-0.2,4.3-1.2,6.1-2.6c1.2-0.9,2-2.3,2.4-3.8c0.6-2.2,0.4-4.4,0.1-6.6c-0.5-3.3-1.5-6.5-2.5-9.6c-1.9-5.4-2.9-11.1-5.1-16.5
			c-0.8-1.8-1.6-3.7-3-5.1c-2-2.1-4.6-3.6-7.4-4.2C203.2,81.2,202.7,82.8,202.1,84.4z M152.1,83.4c-2.5,1.5-4.6,3.6-6,6.2
			c-1.4,2.5-2.1,5.4-2.3,8.3c-0.4,6,0.6,11.9,2.3,17.6c0.5,1.7,1.1,3.4,1.5,5.1c0.5,2.2,1.3,4.4,2.6,6.3c1.4,1.9,3.5,3.3,5.8,3.8
			c2.9,0.6,6,0.4,8.9,0.1c8.4-0.9,16.7-3,24.9-5.1c0.6-0.2,1.2,0.1,1.8,0c0.4-0.5,0.3-1.2,0.4-1.8c-0.3-0.1-0.6-0.1-0.8-0.2
			c0.3,0,0.6-0.1,0.8-0.1c0-1.6-0.2-3.3-0.4-4.9c-0.2,0-0.4-0.1-0.6-0.1c0.2-0.1,0.3-0.2,0.5-0.3c0-0.2,0-0.4-0.3-0.4
			c0.1-0.1,0.2-0.3,0.3-0.3c-0.4,0-0.7,0-1.1,0c0.3-0.1,0.6-0.2,1-0.3c-0.3-1.9-0.7-3.8-1.2-5.6c-0.3,0-0.7,0-1,0
			c0.3-0.1,0.6-0.2,0.9-0.3c0-0.1-0.1-0.3-0.1-0.4c-0.2,0-0.4,0-0.7-0.1c0.2-0.1,0.4-0.2,0.6-0.3c-0.2-0.6-0.3-1.2-0.6-1.7
			c0.1-0.4-0.3-0.4-0.6-0.4c0.2-0.1,0.3-0.1,0.5-0.2c-0.2-0.6-0.4-1.2-0.7-1.7c-0.2-0.3-0.5-0.6-0.9-0.5c-0.5,0.2-0.8,0.7-1.4,0.8
			c-2.9,0.8-5.9,1.3-8.9,1.8c-2,0.3-4,0.6-6,0.4c-1.3-0.1-2.6-0.4-3.9-0.4c-0.9,0-1.8,0-2.5,0.5c-0.4,0.2-0.7,0.6-1,0.9
			c0.2-0.7,0.7-1.3,1.4-1.6c-0.9-0.4-1.9-0.9-2.3-1.9c-0.3-0.8,0-1.7,0.3-2.5c-1.2-0.9-2.9-0.8-4-1.9c-0.8-1-0.7-2.4-0.5-3.6
			c-0.2-0.5-0.5-1.1-0.6-1.7c-0.3-1.4,0.5-3,1.9-3.4c0.2-0.2,0.3-0.4,0.5-0.7c0.2-1.4,1.6-2.3,2.9-2.4c-0.7-1.5-1.6-2.9-2.5-4.2
			c-0.7-1-1.9-1.5-2.7-2.5c-0.3-0.3-0.7-0.4-1.1-0.5c-0.5-0.2-1-0.5-1.5-0.8C154.4,82.1,153.2,82.8,152.1,83.4z M161.3,92.8
			c0.4,0.1,0.7,0.3,1,0.5c0.3,0,0.5,0,0.8,0c0-0.9,0.7-1.6,0.7-2.4C162.7,90.7,161.5,91.6,161.3,92.8z M164.4,91
			c0,0.7-0.6,1.3-0.6,2.1c0.1,0.6,0.9,0.6,1.3,0.6c0.6,0,0.9-0.8,0.7-1.3C165.4,91.7,164.9,91.3,164.4,91z M166.3,92.3
			c0.1,0.8-0.5,1.6-1.3,1.7c0.8,0.6,1.4,1.4,1.9,2.3c0.6,0.2,1.3,0.5,1.7,1c0.3,0.4,0.3,0.8,0.6,1.2c0.8,1,1.8,1.9,2.9,2.5
			c-1.3-0.3-2.3-1.2-3.1-2.2c0,0-0.1,0.1-0.2,0.1c-0.2-1.2-1.2-1.9-2.3-2.3c-0.9-1.1-1.9-2.4-3.4-2.6c0.1,0.9-0.3,1.7-0.8,2.3
			c0.3,0.2,0.5,0.4,0.8,0.5c1.6,0.3,3,1.6,3.8,3c0.1,0.2,0.2,0.4,0.4,0.5c0.6,0.5,1.1,1,1.5,1.6s0.5,1.2,1,1.7
			c0.5,0.7,1.1,1.2,1.8,1.7c-1.3-0.4-2.3-1.4-2.8-2.6c-0.3-0.7-0.8-1.3-1.4-1.8c0,0.1-0.1,0.3-0.1,0.4c-0.2-0.7-0.7-1.3-1.1-1.8
			c-0.6-0.7-1.4-1.4-2.3-1.7c-0.1,0.7-0.2,1.5-0.7,2c-0.7,0.2-1.5,0.3-2.2,0c-0.5-0.9-0.4-2.1-0.3-3.1c-0.6,0.2-1.1,0.7-1.3,1.3
			c-0.4,1.1-0.3,2.5,0.5,3.5c1,1,2.5,1,3.6,1.9c0.4-0.6,0.9-1.1,1.6-1.3c0.5-0.2,1,0,1.5,0c0.6,0.1,0.9,0.6,1.5,0.8
			c1.1,0.5,1.9,1.7,2.2,2.9c0.1,0.4,0.4,0.6,0.6,0.9c0.4,0.5,0.6,1.2,0.7,1.8c1.4,0.1,2.8,0,4.1-0.2c2.7-0.3,5.5-0.8,8.2-1.4
			c-0.1-0.4-0.2-0.7-0.3-1.1c-2.8-1-5.2-2.8-7.6-4.5c-1.4-0.8-2.9-1.6-4-2.8c-0.5-0.4-0.8-1-1.3-1.4c-0.3-1-1.1-1.6-1.9-2.2
			C167.9,94.3,167.3,93.1,166.3,92.3z M160.5,95.4c0.1,0.3,0.1,0.7,0.4,0.9c0.2-0.1,0.4-0.3,0.6-0.4c0.2,0,0.4,0.1,0.7,0.2
			c0.4-0.5,0.8-1.1,0.8-1.8c-0.6-0.6-1.4-0.9-2.2-1C160.3,93.9,160.4,94.7,160.5,95.4z M200,94.1c-0.7,0.1-1.5,0.3-1.9,0.9
			c-0.9,1-1.6,2.2-2.3,3.3c-0.6,0.9-1.1,1.8-1.9,2.5c-1.8,1.8-3.7,3.5-4.9,5.8c1,2.1,1.5,4.4,2.1,6.7c0.7,2.9,1.2,5.9,1.5,8.9
			c2.8-2,6.3-2.8,9.4-4.2c1.2-0.6,2.2-1.4,3-2.5c0.5-0.7,1.3-1.1,2-1.8c0.7-0.6,1.2-1.4,1.5-2.3c0,0.1,0.1,0.3,0.1,0.4
			c0.8,0,1.7-0.4,2.3-1c-0.3,0.6-0.8,0.9-1.3,1.2c0.7,0.2,1.5,0.1,2.2,0c-0.5,0.3-1,0.5-1.5,0.5c-0.6,0-1.1-0.3-1.6-0.4
			c-0.1,0.4-0.3,0.8-0.5,1.1c0.7,0.7,1.6,1.1,2.5,1.1c0.4,0,0.8-0.2,1.1-0.5c0.7-0.8,1.3-1.8,1.4-2.9c-0.2,0.2-0.4,0.4-0.6,0.6
			c0.2-0.6,0.5-1.3,0.5-1.9c-0.2-0.7-0.6-1.3-0.9-2c-0.3-0.4-0.6-0.9-1.1-1.2c-0.7-0.2-1.4,0-2-0.2c-1.8-0.6-3.8-1.3-5.7-0.8
			c0.8-0.6,1.9-0.7,2.9-0.5c0-0.3-0.1-0.6-0.1-0.8c0.2,0.3,0.4,0.6,0.5,0.9c1,0.2,2,0.7,3,1c0.4-0.3,0.6-0.8,0.9-1.2
			c0,0.4-0.1,0.8-0.3,1.2c0.4,0,0.9-0.1,1.3,0c0.6,0.3,0.9,0.9,1.3,1.4c0.1-0.8,0.2-1.7,0-2.5c-0.5-0.8-1.1-1.5-1.8-2.1
			c-0.6-0.6-1.3-1.2-2.1-1.5c-1-0.3-1.9,0.3-2.9,0.5c-1.2,0-2.4-0.5-3.6-0.5c-1,0.1-1.9,0.6-2.7,1.2c0.7-0.9,1.6-1.5,2.7-1.8
			c1.2-0.1,2.4,0.6,3.6,0.6c0.9-0.2,1.8-0.7,2.8-0.8c-0.9-0.9-1.7-1.9-2.9-2.3c-1.4-0.3-2.7,0.5-4.1,0.7c-0.8,0.1-1.6-0.2-2.4-0.2
			c-0.8,0.1-1.5,0.5-2.2,0.9c-0.7,0.6-1.2,1.5-1.8,2.2c0.2-0.7,0.6-1.3,1-1.9c0.6-1,1.7-1.4,2.7-1.8s1.9,0.6,2.9,0.3
			c0.2-0.4,0.2-0.9,0.3-1.3c0.2,0.3,0.2,0.7,0.3,1.1c0.8-0.2,1-1,1.3-1.6c0,0.4-0.1,0.8-0.1,1.2c0.7-0.2,1.4-0.4,2.1-0.3
			c0-0.3,0.1-0.7-0.1-1c-0.6-0.8-1.2-1.6-1.9-2.3c-0.3-0.3-0.7-0.7-1.2-0.7C201.6,93.5,200.8,94,200,94.1z M159.1,97.5
			c0.3-0.5,0.7-0.9,1.2-1.1c-0.3-0.7-0.4-1.6-0.4-2.3C158.7,94.7,158.6,96.3,159.1,97.5z M170.8,95.1c0.2,0.4,0.5,0.8,0.5,1.3
			c0.7,0.4,1.3,1.2,1.3,2.1c1,0.9,2.2,1.6,3.4,2.2C173.9,99.3,172.2,97.3,170.8,95.1z M190.7,97.9c0,0.2,0,0.4,0.1,0.6
			c-0.1-0.1-0.2-0.2-0.3-0.3c-0.6,0.8-1.3,1.6-2.2,2.2c-0.3,0.2-0.6,0.4-0.8,0.7c-0.5-0.1-0.3,0.4-0.3,0.7c-0.1-0.2-0.3-0.3-0.4-0.5
			c0,0.2-0.1,0.5-0.1,0.7c-0.1-0.1-0.1-0.3-0.2-0.4c-1.2,0.6-2.4,1-3.7,1.1c0,0.1-0.1,0.3-0.1,0.4c0-0.1-0.1-0.4-0.1-0.5
			c-0.1,0.2-0.2,0.4-0.3,0.6h-0.1c0-0.1,0-0.3,0-0.4c-2,0.1-4-0.6-5.8-1.6c2.2,1.6,4.4,3.3,7,4.3c0-0.4-0.1-0.8,0-1.2
			c0.1-0.3,0.4-0.3,0.7-0.3c0.8,0.2,1.2,1.1,2.1,1.2c0.8,0.2,1.6,0.3,2.4,0.4c0.6-1,1.4-1.8,2.1-2.6c0.1-1.3,0.4-2.7,1.1-3.8
			c0-0.9,0.1-1.7,0.5-2.5c-0.1-0.5-0.1-1-0.1-1.4C191.9,96.2,191.3,97,190.7,97.9z M161.5,96.5c-0.4,0.5-0.3,1.3-0.4,1.9
			c0.1,0.3,0,0.8,0.3,1c0.5,0.1,1.2,0.2,1.7,0c0.3-0.5,0.4-1,0.4-1.6c-0.3-0.6-0.8-0.9-1.3-1.3C161.9,96.5,161.7,96.3,161.5,96.5z
			 M164.8,102.8c-0.6,0.5-1,1.3-1.2,2.1c-0.1,0.5-0.1,1,0.2,1.5c0.5,0.8,1.3,1.3,2.1,1.7c1.7-0.3,3.5,0.1,5.2,0.3
			c-0.2-0.5-0.3-1.2-0.9-1.5c-0.3-1.2-0.9-2.4-1.8-3.2c0.1,0.6,0.2,1.3-0.2,1.8c-0.4,0.4-1,0.3-1.4,0s-0.9-0.6-1-1.1
			c0-0.7,0.4-1.3,0.3-2C165.7,102.3,165.2,102.5,164.8,102.8z M166.2,104.5c0.2,0.4,0.6,0.6,1,0.8c0.2,0.1,0.6,0.2,0.7-0.1
			c0.2-0.5,0.1-1,0-1.5c-0.2-0.7-0.8-1.1-1.4-1.4C166.6,103.2,166.4,103.8,166.2,104.5z M184.1,104.9c-0.1,0.7,0.2,1.3,0.3,2
			c0.9-0.3,2-0.3,2.7-1.1c-0.7-0.2-1.5-0.2-2.1-0.8C184.8,104.8,184.3,104.4,184.1,104.9z M191.9,126.3c-0.7,0.2-1.4-0.4-2.2-0.1
			c-7.9,2.1-15.8,4.2-23.9,5.2c-3,0.4-6.2,0.7-9.2,0.2c-2.4-0.4-4.6-1.6-6.3-3.5c0.4,3.7,2.2,7.2,4.5,10.1c3,3.9,7,7,11.5,8.9
			c5,2.1,10.5,2.7,15.9,2.3c4.9-0.4,9.7-1.7,13.9-4.2c4-2.4,7.2-5.9,9.3-10.1c1-2.1,1.7-4.3,1.9-6.6c-1.9-0.2-3.7-0.6-5.6-0.9
			c-3.1-0.6-6.2-1.2-9.3-1.8C192.2,126,192.1,126.2,191.9,126.3z"/>
	</g>
	<path d="M179.7,15.7c0.4-0.3,0.9-0.6,1.4-0.7l-0.1,0.2c0.3,0,0.5,0,0.8,0c0,0.1,0,0.2,0,0.3c0.2,0.2,0.4,0.3,0.6,0.5
		c-0.4-0.2-0.7-0.4-1-0.6c-0.5,0.2-1,0.3-1.5,0.4c-0.2,0.3-0.5,0.6-0.7,0.9c-0.1-0.5,0.1-1,0.3-1.4
		C179.6,15.5,179.7,15.6,179.7,15.7z"/>
	<g>
		<path d="M179.7,17.1c0.4-0.4,1-0.7,1.5-0.7c0.5,0.1,1,0.3,1.5,0.3c-0.7,0.1-1.2,0.5-1.8,0.7c-0.4,0.1-0.8,0.3-1.2,0.5
			C179.3,17.7,179.5,17.3,179.7,17.1z M180.6,16.7c0,0.2,0.1,0.4,0.1,0.5c0.4-0.1,0.7-0.2,1.1-0.4C181.4,16.6,181,16.6,180.6,16.7z
			 M179.6,17.5c0.2,0,0.5-0.1,0.6-0.2c0-0.1,0-0.4-0.1-0.5C180,17,179.8,17.3,179.6,17.5z"/>
	</g>
	<g>
		<path d="M174.1,18.2c0.7-0.1,1.1-0.8,1.8-0.8c0.6-0.1,1.3,0.2,1.4,0.9c-0.7,0.1-1.4,0.1-2.1,0.1c0.2-0.2,0.5-0.2,0.8-0.2
			c0-0.2,0-0.3,0-0.5c-0.3,0.1-0.6,0.2-0.8,0.3c0,0.1,0,0.3,0,0.3C174.8,18.3,174.5,18.3,174.1,18.2z M176.4,17.6
			c0.1,0.2,0.1,0.4,0.2,0.6c0.1,0,0.4-0.1,0.6-0.1C176.9,17.9,176.6,17.7,176.4,17.6z"/>
	</g>
	<path d="M177.1,22.2l0.1-0.1c0.4,0.5,0.6,1.2,0.6,1.9C177.6,23.4,177.3,22.8,177.1,22.2z"/>
	<path d="M179.7,33.1c0.3-0.8,1.1-1.4,1.9-1.3c0.6,0,1.1,0.5,1.4,1c-0.5-0.3-0.9-0.7-1.5-0.7C180.7,32.1,180.2,32.6,179.7,33.1z"/>
	<g>
		<path d="M180.8,32.7c0.8-0.4,1.9-0.1,2.4,0.6c0.4,0.4,0.5,1,0.5,1.6c-1.4,0.9-3.1,0.5-4.6,0C179.4,33.9,180,33.1,180.8,32.7z
			 M179.5,34.7c0.4,0.1,0.7,0.2,1.1,0.3c-0.2-0.5-0.2-1.1,0.2-1.5c0.5-0.6,1.5-0.4,1.8,0.3c0.2,0.4,0,0.9-0.2,1.3
			c0.3-0.1,0.7-0.2,1-0.4c-0.1-1-0.9-1.8-1.9-1.8C180.6,33.1,179.9,33.9,179.5,34.7z M181.2,33.5c-0.6,0.3-0.7,1.1-0.2,1.5
			c0.3,0.1,0.6,0.1,0.9,0.1c0.5-0.2,0.7-0.8,0.5-1.2C182.2,33.5,181.6,33.3,181.2,33.5z"/>
	</g>
	<path d="M173.4,34.5c-0.2-0.4,0.2-0.6,0.5-0.7c0.1,0.3,0.2,0.5,0.3,0.7C173.9,34.7,173.5,34.9,173.4,34.5z"/>
	<path d="M181.2,34.2c0-0.3,0.3-0.3,0.5-0.3c0.1,0.2,0.2,0.5,0.3,0.7C181.7,34.9,181,34.7,181.2,34.2z"/>
	<path d="M174.3,38.6c-0.1,0.5-0.3,1.2,0.4,1.3c-0.2,0.1-0.3,0.2-0.5,0.4C174.1,39.7,173.9,39.1,174.3,38.6z"/>
	<path d="M181.1,38.8l0.1,0.1c0.3,0.5,0.1,1,0,1.5c-0.2-0.1-0.3-0.3-0.5-0.4C181.4,39.9,181.4,39.2,181.1,38.8z"/>
	<g>
		<path d="M184,43.8c0.1,0.7-0.1,1.4-0.4,2c-0.2,0.4-0.2,0.8-0.2,1.2c-0.2,2.1-1.3,4.1-3.1,5.2c-1.4,0.9-3.3,1-4.8,0.3
			c-1.2-0.5-2.1-1.5-2.6-2.6c-0.6-1.2-0.9-2.5-1.1-3.8c-0.2-0.7-0.5-1.3-0.5-2c0.4,0.7,0.6,1.8,1.5,2.2c1.6-0.1,3.1-0.6,4.7-0.7
			c1.7,0,3.4,0.7,5.1,0.7C183.4,45.6,183.7,44.6,184,43.8z M177.1,45.9c0.1,0.2,0.3,0.3,0.4,0.5c0.1-0.2,0.2-0.3,0.3-0.5
			C177.6,45.9,177.4,45.9,177.1,45.9z M175.4,46.3c-0.2,0.2-0.3,0.4-0.4,0.6c-0.1-0.1-0.2-0.2-0.4-0.4c-0.4,0.1-0.7,0.2-1.1,0.3
			c0.1,0.2,0.2,0.4,0.3,0.5c0.1-0.2,0.2-0.3,0.3-0.5c-0.1,0.6-0.2,1.4,0.3,1.9c0.1-0.5,0.2-1,0.4-1.5c0,0.6-0.2,1.2,0.1,1.8
			c0.7,0.3,1.5,0.4,2.2,0.3c0.4-0.4,0.3-1.1,0.5-1.6c0.1,0.5,0.1,1,0.1,1.5c0.7,0.2,1.4,0.1,2.1,0c0.1-0.1,0.4,0,0.4-0.2
			c0.2-0.6,0-1.2,0.1-1.8c0.2,0.4,0.3,0.9,0.4,1.4c0.5-0.4,0.5-1,0.5-1.6c0.1,0.1,0.2,0.2,0.2,0.3c0.1-0.2,0.2-0.4,0.4-0.6
			c-0.3-0.1-0.6-0.1-1-0.2c-0.2,0.1-0.4,0.2-0.5,0.3c-0.2-0.2-0.4-0.5-0.7-0.6c-0.4-0.1-0.9-0.2-1.3-0.3c-0.3,0.3-0.5,0.6-0.8,0.9
			c-0.3-0.3-0.5-0.6-0.8-0.9C176.3,46,175.8,46.1,175.4,46.3z M182.5,47.6c-0.5,1.4-1.4,2.8-2.7,3.6c-1.1,0.7-2.5,0.9-3.7,0.3
			c-1.5-0.7-2.5-2.1-3.2-3.5c-0.2-0.5-0.3-1-0.7-1.4c0.1,1.2,0.6,2.5,1.2,3.5c0.6,1,1.6,1.8,2.7,2.2c1.5,0.4,3.1,0.1,4.3-0.8
			c1.6-1.2,2.4-3.1,2.6-5.1C182.6,46.6,182.6,47.2,182.5,47.6z M172.9,46.8c0.1,0.9,0.7,1.8,1.3,2.5c0-0.1,0.1-0.2,0.1-0.3
			c-0.4-0.3-0.6-0.9-0.5-1.4C173.4,47.4,173.2,47.1,172.9,46.8z M181.5,47.8c0,0.5-0.2,1-0.6,1.3c0,0.1,0.1,0.3,0.1,0.4
			c0.7-0.8,1.2-1.8,1.3-2.8C182,47.1,181.9,47.5,181.5,47.8z M174.4,49.6c0.3,0.4,0.7,0.9,1.2,1.1c0.4,0.4,1,0.6,1.5,0.7
			c0.2-0.2,0.3-0.4,0.5-0.6c0.2,0.2,0.4,0.3,0.7,0.4c0.4-0.1,0.8-0.3,1.1-0.6c0.6-0.2,1.3-0.6,1.1-1.3c-0.2,0.2-0.3,0.5-0.5,0.7
			c0-0.1,0-0.3,0-0.5c-0.3,0.1-0.4,0.4-0.6,0.6c0-0.1,0-0.3,0-0.4c-0.6,0.1-1.2,0.1-1.8,0c0,0.1,0,0.3-0.1,0.4
			c0-0.1-0.1-0.3-0.1-0.4c-0.6,0.3-1.2,0.1-1.8,0c0,0.1-0.1,0.3-0.1,0.4c-0.1-0.2-0.1-0.4-0.2-0.5c-0.1,0-0.2,0-0.2-0.1
			c-0.3,0.3-0.4-0.3-0.6-0.4C174.6,49.3,174.5,49.5,174.4,49.6z M177.7,51.2c-0.1,0.2,0,0.3,0.2,0.2C178,51.2,177.9,51.2,177.7,51.2
			z"/>
	</g>
	<path d="M173.3,45.5c1.4-0.5,2.9-1.1,4.4-1.1c1.6,0.2,3.1,0.8,4.7,1.2c-1.5-0.2-3-0.6-4.5-0.7C176.3,44.8,174.8,45.4,173.3,45.5z"
		/>
	<g>
		<path d="M166.4,55.9c0.7-0.7,1.7-1.3,2.8-1.2c0.4,0,0.6,0.4,0.6,0.8c0,0.9-0.5,1.8-1.4,2.1c-1,0.3-2,0.6-3,0.4
			C165.3,57.2,165.8,56.5,166.4,55.9z M165.8,57.6c0.9,0,1.8-0.2,2.6-0.5c0.7-0.3,1-1.1,1-1.8c0-0.3-0.3-0.5-0.5-0.4
			C167.4,55.1,166.2,56.3,165.8,57.6z"/>
	</g>
	<path d="M194.7,57.3c0-0.8,0.2-1.7,0.7-2.4c-0.1,0.9-0.5,1.8-0.1,2.6c0.6,0.5,1.5,0.4,2.3,0.6c-0.8,0.2-1.7,0.3-2.5,0
		C194.7,58,194.7,57.6,194.7,57.3z"/>
	<path d="M168.2,59c1.4-0.3,2.9-0.3,4.4-0.4c-1.5,0.5-3.1,0.5-4.6,1.1c-0.3,0.1-0.6,0.4-0.9,0.6c0.2-0.1,0.3-0.1,0.5-0.2
		c0.1,0.1,0.3,0.3,0.4,0.5c0-0.2-0.1-0.5-0.1-0.7c0.6,0.1,1.3,0,1.9-0.3c0.3,0.4,0.7,0.6,1.2,0.7c-0.3-0.3-0.6-0.6-0.8-1
		c0.9,0.5,1.9,0.9,2.9,0.7c-0.3-0.1-0.6-0.2-0.8-0.3c0.8-0.1,1.5-0.3,2.3-0.2c-0.2-0.1-0.3-0.3-0.5-0.4c0.6,0,1.2,0.3,1.6,0.9
		c-0.7,0.8-1.8,1.1-2.9,1.1c0.1,0.1,0.4,0.2,0.5,0.2c-1.1,0.2-2.3,0.4-3.4,0.1c0,0-0.1,0.1-0.1,0.2v-0.1c0-0.2-0.2-0.3-0.4-0.3
		c0.1,0.1,0.2,0.3,0.2,0.3c-1.1,0.2-2.5,0.3-3.2,1.3c-0.1-0.1-0.2-0.2-0.3-0.3c-0.1,0.3-0.2,0.6-0.4,0.9c0.2-1.1,0.2-2.3,0.8-3.3
		C166.8,59.6,167.5,59.1,168.2,59z"/>
	<path d="M157,60.2c0.8,0.6,1.4,1.5,1.5,2.4c0.1,0.3-0.2,0.6-0.4,0.8c-0.7,0.4-1.5,0.6-2.3,0.7c0.7-0.3,1.5-0.6,2-1.2
		c0.2-0.1,0.1-0.4,0.1-0.6C157.7,61.6,157.4,60.8,157,60.2z"/>
	<path d="M181,63.2c0.3-1.1,1.4-2,2.6-2.1c0.8-0.1,1.6,0.2,2.3,0.7c-0.9-0.3-1.9-0.7-2.8-0.3C182.1,61.8,181.6,62.5,181,63.2z"/>
	<g>
		<path d="M182.1,62.4c0.7-0.5,1.6-0.6,2.4-0.6c1.1,0.1,2.2,1,2.5,2.1c-1.9,0.3-3.7,1-5.6,0.8c-0.2,0.1-0.3,0.1-0.5,0.2
			C181,64,181.3,63,182.1,62.4z M183.6,62.6c0.2,0,0.4,0.1,0.5,0.2c-0.2,0.2-0.3,0.3-0.5,0.5c-0.3,0-0.9-0.2-0.6-0.6
			c0.1,0,0.2-0.1,0.3-0.2c0-0.1,0.1-0.2,0.1-0.3c-0.3,0.2-1.2,0.1-1.1,0.7c0.1,0.8,1.2,1.1,1.8,0.7c0.5-0.2,0.7-0.9,0.3-1.3
			c-0.1-0.4-0.6-0.1-0.9-0.2C183.6,62.4,183.6,62.5,183.6,62.6z M184.7,62.2c0.1,0.4,0.3,0.7,0.1,1.1c-0.3,0.8-1.5,1.1-2.2,0.5
			c-0.3-0.2-0.4-0.6-0.6-0.9c-0.3,0.5-0.6,0.9-0.7,1.5c1.8,0.3,3.6-0.4,5.4-0.7C186.2,63,185.5,62.5,184.7,62.2z"/>
	</g>
	<path d="M169.1,64.1c0.9-1.3,2.8-1.3,4-0.3c-0.7-0.2-1.5-0.6-2.3-0.4C170.2,63.4,169.7,63.8,169.1,64.1z"/>
	<g>
		<path d="M169.4,64.3c0.7-0.4,1.5-0.5,2.2-0.5c1.3-0.1,2.3,1.1,2.6,2.2c-0.6-0.2-1.2,0-1.8,0.1c-1.5,0.3-3,0.7-4.4,0.5
			C168.4,65.7,168.7,64.9,169.4,64.3z M170,64.3c-0.2,0.7,0.4,1.3,1.1,1.3c0.7,0.1,1.5-0.6,1.2-1.4C171.6,64,170.8,64.2,170,64.3z
			 M172.6,64.3c0.1,0.7-0.3,1.4-1,1.5c0.1,0.1,0.2,0.1,0.3,0.2c0.6-0.2,1.3-0.3,2-0.4C173.5,65.1,173.1,64.6,172.6,64.3z
			 M168.4,66.4c1.1,0.1,2.2-0.2,3.3-0.4c-0.4-0.3-1.1-0.1-1.5-0.5c-0.3-0.2-0.4-0.6-0.5-1C169.2,65.1,168.8,65.7,168.4,66.4z"/>
	</g>
	<path d="M180,64.1c0.2,0.4,0.3,0.9,0.7,1.1s0.9,0.1,1.4,0.2c-0.5,0.1-1.1,0.3-1.6,0C180.1,65.1,180.1,64.5,180,64.1z"/>
	<path d="M170.6,64.6c0.2-0.4,0.8-0.3,1.1-0.1c-0.1,0.2-0.2,0.3-0.3,0.5C171.1,65,170.6,65,170.6,64.6z"/>
	<path d="M175.3,64.4c0.1,0.8-0.2,1.6-0.8,2c-0.4,0.3-0.9,0.4-1.4,0.5C174.2,66.5,175.1,65.6,175.3,64.4z"/>
	<path d="M176.3,66.6c1.3-0.4,2.7-0.9,4-0.4c1,0.7,2.3,0.2,3.3,0.8c0.8,0.5,1.3,1.5,1.2,2.5c1.4,0.6,3,0.5,4.3,1.5
		c0.6,0.4,0.9,1,1.1,1.7c-0.4-0.5-0.8-1-1.4-1.4c-1.3-0.8-2.9-0.8-4.1-1.6c-0.2,0.2-0.4,0.4-0.7,0.6c0.2-0.4,0.5-0.8,0.4-1.3
		c-0.1-0.9-0.8-1.8-1.8-2.1c-0.5-0.1-1.1-0.1-1.6-0.2c0.1,0.1,0.2,0.3,0.2,0.3C179.8,66,177.9,66.3,176.3,66.6L176.3,66.6z"/>
	<path d="M172.7,68.7c0.4-0.4,1-0.7,1.5-0.9c-0.6,0.4-1.3,0.8-1.5,1.5c-0.2,0.6-0.2,1.3-0.1,2c0.2,0.5,0.8,0.6,1.2,0.7
		c-0.6,0.1-1.3-0.1-1.7-0.5c-0.6,1.2-1.9,1.6-2.9,2.3c-0.6,0.4-1.1,1-1.3,1.7c-0.1-0.7,0.3-1.4,0.8-1.9c0.9-0.9,2.1-1.2,3-2.1
		c0.3-0.3,0.1-0.7,0.2-1.1C172.1,69.8,172.2,69.2,172.7,68.7z"/>
	<path d="M182.8,69.5c0.2-0.1,0.5-0.2,0.7,0.1c0.2,0.4-0.1,0.7-0.3,1c0-0.2,0.1-0.5,0.2-0.6c-0.5,0.2-1.1,0.3-1.6,0.6
		c-0.6,0.4-0.9,1-1.6,1.3c-0.8,0.4-1.8,0.6-2.7,0.5c-0.7-0.1-1.3-0.6-2-0.8c-0.5-0.1-1,0-1.5,0c-0.1,0.1-0.2,0.2-0.2,0.2
		c-0.1-0.4,0-0.8,0.5-0.8c1.2-0.1,2.2,1,3.5,0.9c0.9-0.1,1.9-0.2,2.7-0.6C181.2,70.6,181.9,69.9,182.8,69.5z"/>
	<g>
		<path d="M186.1,74.3c0.8-0.4,1.5-0.9,2.1-1.6c0.3-0.1,0.5,0.2,0.6,0.5c-0.1-0.1-0.3-0.2-0.4-0.2c-1.7,1.6-3.9,2.5-6.1,3.3
			c-1.1,0.4-2.3,0.7-3.4,1.2c-1.4,0.5-2.6,1.3-4,1.6c-0.9,0.2-1.8-0.2-2.6-0.7s-1.6-1.1-2.2-1.9c-0.2-0.3-0.6-0.2-0.9-0.2
			c0-0.2,0-0.5,0.3-0.6c1.4,0.5,2.9,1,4.4,1.5c1.2,0.4,2.5,0.3,3.8,0.2c0.6,0,1.2-0.4,1.8-0.6C181.6,76,184,75.4,186.1,74.3z
			 M170.7,76.6c0.5,0.6,1.2,1,1.9,1.4c-0.1-0.3-0.1-0.5-0.2-0.8C171.8,77,171.3,76.8,170.7,76.6z M172.7,77.3
			c0.1,0.3,0.1,0.6,0.2,0.8c0.4,0.2,0.7,0.3,1.1,0.4c0-0.3,0-0.5,0-0.8C173.6,77.7,173.2,77.5,172.7,77.3z M174.4,77.9
			c0,0.2,0,0.5,0,0.7c0.8-0.1,1.5-0.3,2.3-0.7C175.9,77.9,175.2,78,174.4,77.9z"/>
	</g>
	<path d="M181,73.5c0.5,0.3,0.7,0.9,0.6,1.4C181.4,74.5,181.2,74,181,73.5z"/>
	<path d="M177.5,74.1c0.1,0.5,0.1,1.1,0.1,1.6C177.1,75.3,177.3,74.6,177.5,74.1z"/>
	<path d="M172.3,79.2c1.1,0.5,2.4,0.5,3.5,0C174.9,80.2,173.2,80.3,172.3,79.2z"/>
	<path d="M196.5,83.3c0.7,0.7,0.6,1.9-0.2,2.6c0.2,0.5,0.2,1.2-0.1,1.7c-0.3,0.4-0.1,1-0.3,1.4c-0.1,0.3-0.4,0.5-0.7,0.7
		c0.3-0.6,0.5-1.3,0.3-1.9c0.5-0.6,0.6-1.3,0.2-2C196.5,85.2,196.6,84.2,196.5,83.3z"/>
	<path d="M163.6,84.1c1.1,1.2,2.7,2.3,2.9,4.1C165.7,86.7,164.3,85.6,163.6,84.1z"/>
	<path d="M186.5,89.1c1.9-1.3,3.4-3,4.9-4.7c-0.6,1.2-1.5,2.3-2.4,3.3c-1.1,1.1-2.2,2.3-3.7,2.7c-1.5,0.4-3.1,0.6-4.6,0.8
		c-1.5,0.1-3.1,0.3-4.7,0.2c-1.2,0-2.2-0.6-3.2-1.2c-1.4-0.9-2.8-1.9-3.8-3.2c1.3,1,2.8,1.9,4.3,2.7c0.6,0.3,1.3,0.6,2,0.8
		c0.7,0.2,1.5,0.1,2.3,0.1c2-0.1,4-0.3,6-0.6C184.6,89.9,185.7,89.7,186.5,89.1z"/>
	<path d="M176,85c1.5-0.4,3.1-0.4,4.7-0.3c-1.7,0.2-3.5,0.2-5.1,0.9c-0.8,0.3-1.5,1-1.7,2c-0.2-0.4-0.2-0.9,0.1-1.3
		C174.5,85.5,175.3,85.1,176,85z"/>
	<path d="M167.1,89.9c0.4,0.5,0.7,1,1.1,1.4c0,0.8,0.3,1.5,0.7,2.1c-0.7-0.4-1-1.2-1.1-2C167.5,90.9,167.2,90.4,167.1,89.9z"/>
</g>
</svg>
