<?xml version="1.0" encoding="utf-8"?>
<!-- Generator: Adobe Illustrator 24.0.2, SVG Export Plug-In . SVG Version: 6.00 Build 0)  -->
<svg version="1.1" id="Слой_1" xmlns="http://www.w3.org/2000/svg" xmlns:xlink="http://www.w3.org/1999/xlink" x="0px" y="0px"
	 viewBox="0 0 238.1 150.2" style="enable-background:new 0 0 238.1 150.2;" xml:space="preserve">
<g>
	<path d="M160,4.7c3.1,3.2,5.3,6.9,6.4,11.1c0.7,2.6,0.4,5.2-1.2,7.5c-0.7,1.1-1.3,2.2-1.9,3.3c-0.1,0.2-0.1,0.6,0,0.8
		c2.6,6.2,5.2,12.4,7.8,18.6c2.8,6.6,5.5,13.2,8.4,19.8c1.4,3.3,3.1,6.4,5.4,9.1c1.7,2,3.8,3.6,6.5,4.2c2.5,0.5,4.9,0.2,7.2-0.6
		c1.2-0.4,2.3-0.9,3.5-1.4c-1.5,3.1-2.2,6.4-2.2,9.8c0,3.4,0.8,6.6,2.1,9.8c-0.8-0.1-1.5-0.4-2.3-0.4c-1.8-0.1-3.4,0.7-5,1.5
		c-2.5,1.3-4.8,3.1-7,5c-4,3.3-8.5,5.7-13.4,7.4c-3.1,1.1-6.2,1.8-9.4,2.4c-0.1,0-0.3,0-0.6,0c1.3-0.4,2.6-0.8,3.8-1.2
		c3.7-1.3,7.3-2.9,10.3-5.5c4.2-3.7,5.6-8.3,4.3-13.6c-0.6-2.3-1.5-4.6-2.4-6.8c-3.2-8.2-6.5-16.5-9.7-24.7
		c-3.6-9.1-7.1-18.2-10.7-27.2c0-0.1-0.1-0.2-0.2-0.4c-0.3,0.7-0.5,1.3-0.8,1.9c-4.2,10.7-8.4,21.5-12.6,32.2
		c-2.9,7.5-5.9,14.9-8.8,22.4c-1.1,2.8-1.6,5.7-1,8.7c0.7,3.6,2.8,6.2,5.6,8.3c2.8,2.1,6,3.5,9.3,4.6c1.1,0.4,2.2,0.7,3.3,1.2
		c-0.9-0.2-1.7-0.3-2.6-0.5c-4.3-0.9-8.4-2.2-12.3-4.1c-3.3-1.6-6.2-3.7-9-6c-2.3-2-4.8-3.8-7.7-4.9c-1.4-0.6-2.9-0.9-4.4-0.5
		c-0.3,0.1-0.6,0.2-1.1,0.4c2.8-6.6,3.1-13.1,0-19.6c1.4,0.5,2.8,1.2,4.2,1.6c3.3,1,6.6,0.9,9.6-0.9c1.9-1.2,3.4-2.8,4.6-4.6
		c2.2-3,3.7-6.4,5.1-9.8c3.2-7.6,6.4-15.2,9.6-22.8c1.8-4.3,3.6-8.6,5.5-12.9c0.2-0.4,0.2-0.8-0.1-1.2c-0.7-1.1-1.2-2.2-1.9-3.3
		c-1.5-2.3-1.8-4.8-1.1-7.4c1.1-3.9,3-7.4,5.8-10.4c0.2-0.2,0.3-0.4,0.5-0.6C159.8,4.7,159.9,4.7,160,4.7z M159.9,21.7
		c1.2-1.1,2-2.4,2.8-3.8c0.7-1.2,0.7-2.5,0.3-3.8c-0.6-2-1.8-3.6-3.1-5.3c-1.3,1.6-2.4,3.3-3.1,5.2c-0.5,1.3-0.4,2.5,0.3,3.8
		C157.9,19.2,158.7,20.6,159.9,21.7z"/>
	<path d="M212.1,94.2c-0.3,2.5-1.5,4.7-2.8,6.8c-2.9,4.5-7.1,7.3-12.2,8.5c-0.2,0.1-0.4,0.1-0.6,0.2c0,0.1,0,0.1,0,0.2
		c0.2,0.1,0.5,0.1,0.7,0.2c0.3,0.1,0.5,0.1,0.8,0.1c-0.4,0.5-1,0.6-1.5,0.6c-1.4,0-2.8-0.1-4.2-0.1c-0.2,0-0.4,0-0.8,0
		c0.5,0.4,0.8,0.6,1.1,1c-0.8,0.2-1.6,0.2-2.4,0.5c-1.1,0.4-2.2,0.8-3.3,1.3c-0.2,0.1-0.3,0.2-0.5,0.3c-0.7,0.6-0.6,0.9,0.1,1.4
		c1,0.6,2,1.2,2.9,1.9c1,0.7,1.9,1.5,2.6,2.6c-0.3-0.2-0.6-0.4-0.8-0.6c-1.5-1.2-3.2-1.9-5.1-2.1c-0.6,0-1.2,0-1.8,0.2
		c-1.3,0.3-2.1,1.1-2.3,2.4c-0.2,1.1-0.1,2.2,0.4,3.2c0.5,1,1.5,1.3,2.5,0.9c-0.3-0.2-0.6-0.4-0.9-0.7c-0.7-0.7-0.7-1.3,0-2
		c1.4-1.4,3.1-1.5,4.8-0.7c3.7,1.7,6.5,4.3,8,8.1c0.1,0.3,0.2,0.6,0.3,0.9c0,0.1,0,0.1-0.1,0.3c-0.1-0.1-0.1-0.2-0.2-0.3
		c-1.8-2.2-4.1-3.4-6.9-3.6c-2.1-0.1-4.2-0.3-6.2-0.9c-1.4-0.5-2.7-1.2-3.3-2.6c-0.7,0.2-1.4,0.5-2.1,0.6c-0.5,0.1-1,0.2-1.4,0.2
		c-1.2,0-2.1-0.5-2.5-1.7c-0.2-0.7-0.3-1.6-0.4-2.4c0-0.5,0.3-1,0.8-1.2c0.6-0.2,1.3-0.4,1.9-0.5c0.9,0,1.3,0.6,1.3,1.6
		c0,0.8-0.5,1.2-1.3,1.3c-0.1,0-0.3,0-0.5,0c0.6,0.6,1.2,0.9,1.9,0.7c1.6-0.4,3-2.5,2.7-4.1c-0.1-0.6-0.3-1.1-0.9-1.4
		c-1-0.7-1.6-1.6-2-2.8c-0.3-1.1-0.1-2.1,0.5-3c0.1-0.1,0.2-0.3,0.4-0.3c1.8-0.4,3.4-1.2,5-2.2c0.1,0,0.1,0,0.3-0.1
		c0.1,1.2-0.3,2.2-1,3.1c-0.1,0.1-0.3,0.1-0.5,0.1c-1.1-0.5-1.9-0.2-2.7,1c-0.6,1-0.4,1.8,0.4,2.6c1,1.1,4,0.8,4.8-0.7
		c0.6-1,1.1-2.1,1.1-3.3c0-1.1,0.3-2.1,1.1-3c0.4-0.4,0.7-1,1-1.6c0.1,0.4,0.2,0.7,0.2,1.1c1.2-2.2,3.1-3.7,5.4-4.9
		c-0.2,0.5-0.3,0.8-0.5,1.2c0.2-0.1,0.3,0,0.4-0.1c1.5-1,3.3-1.5,5-2c1.8-0.6,3.6-1.1,5.3-1.8c2.7-1.2,4.2-3.2,4.4-6.2
		c0.1-1,0.1-2-0.2-2.9c-0.5-1.4-1.6-2-2.9-2.1c-1.2-0.2-2.4,1.2-2.1,2.2c0.5-0.1,1.1-0.3,1.6-0.3c0.9,0,1.6,0.6,1.8,1.4
		c0.2,1.1-0.2,1.9-1,2.3c-1.2,0.6-2.4,0.2-3.1-1c-1.1-1.8-0.4-4,1.5-5.2c1.6-1.1,3.2-0.7,4.7,0.2c1.8,1.1,2.7,2.8,3,4.8
		c0,0.2,0.1,0.4,0.1,0.6C212.1,93,212.1,93.6,212.1,94.2z M207.4,99.6C207.4,99.5,207.4,99.5,207.4,99.6c-0.2,0-0.2,0-0.3,0.1
		c-1.3,0.9-2.5,1.9-3.8,2.7c-2.4,1.5-5,2.5-7.6,3.4c-1.5,0.5-3,1.1-4.2,2.2c-0.3,0.3-0.5,0.7-0.8,1c0,0,0.1,0.1,0.1,0.1
		c0.3-0.2,0.6-0.4,0.9-0.5c2.4-1.4,4.9-2.4,7.6-3.3c2.6-0.8,4.8-2.2,6.7-4.1C206.5,100.6,207,100.1,207.4,99.6z"/>
	<path d="M154.4,95.8c1.9,0.7,3.4-0.3,3.5-2.2c0.2-3-1.2-5-4.2-6c-0.3-0.1-0.5-0.2-0.8-0.3c0.1-1.5,0.5-2.8,1.9-3.6
		c0.1-0.1,0.2-0.3,0.2-0.4c-0.6-1.9-1.2-3.7-2.6-5.3c-1.1-1.2-2.3-1.7-3.9-1.4c-0.1,0-0.2,0-0.3,0.1c0,0,0,0,0,0
		c1.4-2.8,3.6-3.7,6.6-2.8c-0.7-1.2-1-2.5-0.5-3.8c0.2-0.8,0.6-1.5,1.2-2.1c2.1-2.4,3.5-5.1,4.4-8.1c0-0.1,0.1-0.2,0.2-0.4
		c0.1,0.4,0.2,0.7,0.3,1c0.1,0.3,0.2,0.6,0.3,0.9c0.8,2.4,2,4.5,3.7,6.4c1.7,1.9,2,3.9,0.8,6.2c1.3-0.6,2.6-0.8,3.9-0.1
		c1.2,0.7,2,1.7,2.8,2.8c-0.6,0-1.1-0.1-1.7-0.1c-1.4,0.1-2.4,1-3.1,2.1c-1,1.3-1.8,3.3-2.1,5c1.5,0.7,2,2.1,2.1,3.5
		c-1.1,0.6-2.2,1-3.1,1.7c-1.8,1.3-2.2,3.6-1.8,5.4c0.3,1.3,1.6,2.1,3.3,1.5c-0.3-0.1-0.5-0.1-0.7-0.2c-1.5-0.4-2-1.3-1.7-2.8
		c0.3-1.4,1.5-2.1,3.1-1.8c1.7,0.3,2.6,1.4,2.7,3.3c0.1,1.9-0.5,3.7-1.4,5.4c-0.6,1.1-1.2,2.1-1.9,3.1c-2,2.9-3.8,5.9-5.3,9.1
		c0,0.1-0.1,0.2-0.2,0.4c-0.3-0.7-0.7-1.3-1-1.9c-1.4-2.9-3.2-5.6-5.1-8.3c-1.1-1.5-1.9-3.1-2.4-4.9c-0.4-1.2-0.4-2.5-0.2-3.8
		c0.4-2,2.9-3.1,4.7-2c0.9,0.6,1.4,2.3,0.9,3.2c-0.4,0.8-1.2,1-1.9,1.1C154.8,95.8,154.6,95.7,154.4,95.8z M155.5,84.9
		c1.7-0.7,3.2-0.4,4.5,0.8c1.3-1.2,2.8-1.5,4.5-0.8c-0.7-1.3-1.8-1-2.8-1.1c0.2-1.4,0.5-2.8,0.6-4.1c0.2-2,0.3-4-0.2-5.9
		c-0.3-1.3-0.9-2.6-2.2-3.3c-1,0.7-1.7,1.7-2,2.8c-0.7,2.5-0.5,5-0.2,7.6c0.1,1,0.3,2,0.5,3C156,83.9,155.9,84,155.5,84.9z
		 M159.9,96.8c-1.1,1.1-2.4,1.9-3.9,2.3c0.1,0.6,0.1,1.2,0.2,1.9c0.3,2.1,1.1,4,2.8,5.4c0.8,0.7,1,0.7,1.8,0c2.4-1.8,2.9-4.5,3-7.2
		C162.3,98.7,161,97.9,159.9,96.8z"/>
	<path d="M122,110.2c0.5-0.1,1-0.2,1.5-0.3c0-0.1,0-0.1,0-0.2c-0.4-0.1-0.7-0.2-1.1-0.3c-7.2-1.9-11.9-6.5-14.2-13.5
		c-0.8-2.5-0.6-4.9,0.9-7.2c0.9-1.4,2.3-2.4,3.9-2.7c1.8-0.3,3.1,0.6,4,1.9c0.9,1.2,0.8,2.5,0.1,3.8c-0.6,1.2-1.9,1.6-3,1.1
		c-1.1-0.5-1.5-1.6-1-2.7c0.5-1,1.7-1.4,2.7-0.8c0.1,0.1,0.3,0.2,0.5,0.3c0-0.3,0.1-0.5,0.1-0.7c-0.2-0.9-1.4-1.8-2.3-1.6
		c-1.7,0.4-2.9,1.3-3,3.1c-0.2,2.2,0.1,4.2,1.5,6c1.1,1.4,2.7,2.2,4.3,2.8c1.9,0.6,3.9,1.1,5.8,1.8c1,0.4,2,0.9,3,1.4
		c0.1,0,0.2,0.1,0.4,0.2c-0.2-0.4-0.3-0.7-0.5-1.2c2.2,1.2,4.2,2.6,5.3,4.8c0.1-0.4,0.2-0.7,0.3-1c0.5,0.7,1.1,1.4,1.4,2.1
		c0.3,0.7,0.6,1.4,0.6,2.2c0.1,1.3,0.4,2.5,1.1,3.5c1,1.5,3.4,1.9,4.7,0.8c1-0.8,1.2-1.8,0.4-2.9c-0.8-1.1-1.6-1.3-2.9-0.7
		c-0.7-1-1.2-2.1-1.2-3.4c0.9,0.5,1.7,0.9,2.6,1.3c0.7,0.3,1.3,0.6,2.1,0.7c1.2,0.2,1.5,1,1.6,2c0.3,1.8-0.6,3.2-2,4.3
		c-0.8,0.6-1.2,1.7-0.9,2.8c0.4,1.2,1.2,2.1,2.3,2.6c0.8,0.4,1.6,0.2,2.4-0.5c-0.3,0-0.5,0-0.8,0c-0.7-0.1-1-0.4-1.1-1.1
		c-0.1-0.9,0.2-1.6,0.8-1.7c1-0.2,1.9,0,2.7,0.5c0.6,0.5,0.7,1.2,0.6,1.9c-0.4,2.6-1.7,3.3-3.6,3.1c-0.7-0.1-1.3-0.3-2-0.5
		c-0.3-0.1-0.5-0.2-0.8-0.3c-1,2-2.8,2.6-4.8,3c-1.5,0.3-3.1,0.5-4.6,0.6c-3,0.2-5.4,1.4-7.2,3.7c0,0-0.1,0.1-0.1,0.1c0,0,0,0-0.2,0
		c0.4-1,0.8-2,1.3-2.9c1.6-2.9,4-4.9,7-6.3c1.1-0.6,2.4-0.8,3.6-0.4c0.6,0.2,1.2,0.6,1.7,1.1c0.6,0.6,0.5,1.2-0.1,1.8
		c-0.3,0.3-0.6,0.5-0.9,0.7c0.7,0.5,1.9,0.2,2.3-0.6c0.7-1.4,0.9-2.9,0.1-4.4c-0.6-1.3-1.9-1.5-3.2-1.6c-2.5-0.1-4.5,1-6.4,2.6
		c-0.1,0-0.1,0.1-0.2,0.1c0,0,0,0-0.2,0c0.4-0.5,0.8-1,1.2-1.4c1.3-1,2.6-1.9,4-2.9c0.1-0.1,0.2-0.1,0.4-0.2c0.9-0.5,1-1,0.1-1.5
		c-1-0.6-2.1-1-3.2-1.4c-0.9-0.3-1.8-0.4-2.8-0.6c0.3-0.3,0.7-0.5,1-0.8c-2.1-0.1-4.3,0.5-6.3-0.5C121.9,110.3,122,110.2,122,110.2z
		 M129.1,109.1c-0.2-0.8-0.7-1.2-1.2-1.6c-1.4-1-3.1-1.6-4.7-2.2c-2.9-1-5.7-2.2-8.2-4c-1-0.7-1.9-1.5-2.9-2.2
		c1.9,2.6,4.4,4.6,7.4,5.7C122.8,106.1,126.1,107.1,129.1,109.1z"/>
	<path d="M159.9,142.7c-0.8-2-2-3.7-3.2-5.3c-0.9-1.2-1.6-2.4-1.7-3.9c0-0.9,0.1-1.9,0.3-2.8c0.2-0.8,1-1.1,1.9-1
		c0.6,0.1,1.2,0.9,1.2,1.6c0,0.3-0.3,0.7-0.5,1c-0.2,0.2-0.6,0.3-0.9,0.5c0.8,0.1,1.5,0.1,2-0.6c0.5-0.7,0.4-1.5,0.1-2.3
		c0-0.1-0.2-0.2-0.3-0.2c-1.9-0.3-3.1-1.7-4.1-3.1c-0.7-1.1-1.3-2.3-1.8-3.5c-0.9-2.5-2.3-4.5-4.9-5.5c0.6-2.3-0.6-3.9-1.9-5.4
		c1.7,0.5,3.4,1,5.2,1.5c0.2,0.5-0.1,1.1-0.4,1.8c0.4,0.1,0.7,0.2,1,0.2c1.6,0.5,2.3,1.5,2.4,3.2c0,0.7,0,1.5,0.2,2.2
		c0.4,1.5,1.6,1.8,2.8,1.8c0.7,0,1.1-0.5,1.1-1.1c-0.1-0.7-0.2-1.5-0.5-2.1c-0.3-0.7-1-1-1.7-1.1c-0.3-0.1-0.5-0.1-0.8-0.1
		c0.1-2.1,1.7-3.6,4.1-3.7c2.9-0.1,4.2,1.1,4.8,3.7c-0.4,0.1-0.9,0.1-1.3,0.3c-1.2,0.4-2.1,2.5-1.6,3.7c0.2,0.5,0.8,0.7,1.4,0.6
		c1.8-0.3,2.6-1.2,2.7-3.2c0-0.5,0-1,0-1.5c0.2-1.3,1.2-2.3,2.7-2.6c0.2,0,0.4-0.1,0.5-0.1c-0.1-0.6-0.2-1.1-0.3-1.6
		c0-0.1,0.2-0.3,0.3-0.4c1.7-0.2,3.2-0.7,4.8-1.4c0,0,0.1,0,0.1,0c-1.3,1.6-2.5,3.1-1.9,5.4c-0.2,0.1-0.5,0.2-0.7,0.4
		c-2.3,1.2-3.5,3.2-4.3,5.5c-0.7,2.1-1.9,4-3.8,5.4c-0.5,0.4-1.2,0.6-1.8,0.9c-0.2,0.1-0.4,0.2-0.5,0.4c-0.1,0.2-0.2,0.5-0.2,0.8
		c-0.1,1.4,0.8,2.1,2.3,1.9c-0.2-0.1-0.4-0.2-0.6-0.3c-0.5-0.2-0.9-0.5-0.8-1.2c0-0.6,0.5-1.3,1.1-1.5c0.6-0.2,1.3-0.1,1.7,0.4
		c0.6,0.8,0.7,1.8,0.7,2.8c-0.1,1.7-0.8,3.1-1.8,4.4C161.9,139,160.7,140.7,159.9,142.7z M162.9,124.7c-1.4-0.1-2.3-0.9-3-2.1
		c-0.6,1.2-1.6,2-3,2.1c0.6,1.4,1.6,2.4,2.8,3.2c0.1,0.1,0.3,0,0.4,0C161.3,127,162.3,126.1,162.9,124.7z"/>
	<path d="M133.2,48.5c0.7,1.1,0.9,2.2,0.9,3.3c0,2.2-0.4,4.3-1,6.4c-0.5,1.8-1.1,3.5-2.2,5.1c-1.4,1.8-3.2,2.7-5.5,2.6
		c-1.1,0-1.5-0.6-1.1-1.7c0.1-0.4,0.4-0.8,0.5-1.1c-1,0.1-2.3,1.4-2.4,2.3c0,0.5,0.1,1,0.4,1.4c0.7,1.1,1.8,1.8,3.1,2.3
		c1.4,0.5,2.7,0.1,3.9-0.6c1.8-1.1,3.2-2.6,4.2-4.5c0.1-0.2,0.2-0.6,0.1-0.8c-0.3-1.8-0.1-3.5,0.4-5.3c0.2,0.2,0.4,0.4,0.6,0.7
		c0.4-1.7,0.4-3.4,1.4-4.9c0.2,0.3,0.4,0.6,0.6,1c0.3-0.6,0.6-1.2,0.9-1.7c1.3-2.7,2.9-5.2,5.1-7.2c1.1-0.9,2.2-1.7,3.6-2.1
		c0.1,0,0.2,0,0.2,0c-1,0.9-2.2,1.7-3.2,2.7c-1.2,1.2-2,2.7-2.3,4.4c-0.5,2.2-1,4.4-1.4,6.7c0,0.1,0,0.2,0,0.5
		c0.4-0.3,0.6-0.4,0.9-0.6c0.2,1.1-0.3,2.1-2.2,4.3c0.3,0,0.5,0.1,0.9,0.1c-0.9,0.7-1.7,1.5-2.5,2.1c-0.3,0.2-0.8,0.4-1.2,0.4
		c-0.5,0-0.8,0.3-0.9,0.7c-0.5,1-1,2-1.4,3c-0.5,1.4,0.1,2.6,1.3,3.4c0.2,0.1,0.3,0.2,0.6,0.4c-0.4,0.5-0.8,1-1.2,1.5
		c-0.3,0.3-0.6,0.3-0.8-0.1c-0.8-1-1.8-1.6-3.1-1.9c0.1,0.4,0.2,0.7,0.3,1.1c0.4,1.4-0.7,2.8-2.2,2.8c-0.7,0-1.1-0.4-1.4-1
		c-0.6-1-1.1-2.1-1.9-3c-1.2-1.6-2.9-1.6-4.6-0.7c-0.8,0.5-1.3,1.3-1.5,2.2c0.2-0.2,0.4-0.4,0.6-0.5c0.6-0.5,1.3-0.5,2,0
		c0.7,0.5,0.8,1,0.5,1.8c-0.4,1.1-1.2,1.7-2.3,1.6c-0.9-0.1-1.8-0.3-2.6-0.7c-1.1-0.5-1.4-1.6-1-2.9c0.6-1.9,1.8-3.8,5-4
		c0-0.7-0.1-1.5,0-2.2c0.3-1.7,1.4-3.1,2.6-4.3c1.1-1.1,2.3-2.1,3.5-3.2c2-1.9,3.7-4,4.8-6.5c0.4-0.8,0.6-1.7,0.9-2.6
		C133.1,48.9,133.2,48.8,133.2,48.5z M136.4,61.9c1-1.3,1.8-2.7,2.1-4.4c0.2-1.2,0.5-2.4,0.8-3.5c0.1-0.5,0.4-1,0.5-1.5
		c-0.1,0-0.1,0-0.2-0.1c-0.5,1-1,2-1.3,3.1C137.7,57.7,137.6,60,136.4,61.9z"/>
	<path d="M172.6,43.7c1.4,0.2,2.5,0.8,3.5,1.7c2,1.6,3.4,3.6,4.6,5.8c0.6,1.1,1.2,2.3,1.9,3.5c0.2-0.3,0.4-0.6,0.6-1
		c1,1.5,1,3.1,1.4,4.9c0.2-0.2,0.4-0.4,0.7-0.7c0.2,0.9,0.4,1.8,0.4,2.6c0,0.9-0.1,1.8-0.1,2.7c0,0.2,0,0.5,0.1,0.7
		c1.2,2.2,2.8,3.9,5,4.9c2,0.9,3.7,0.3,5.3-1c0.4-0.4,0.8-0.8,1.1-1.3c0.4-0.6,0.4-1.2,0-1.8c-0.5-0.8-1.2-1.4-2.2-1.8
		c0.2,0.5,0.4,0.9,0.6,1.4c0.3,0.9-0.1,1.5-1,1.5c-1.9,0.1-3.6-0.4-4.9-1.8c-1.3-1.3-2-3-2.5-4.7c-0.8-2.7-1.4-5.4-1.3-8.2
		c0-0.9,0.2-1.8,0.8-2.5c0.4,1.1,0.7,2.3,1.2,3.3c1.4,3,3.5,5.3,6,7.4c1.5,1.3,2.9,2.6,4,4.3c0.8,1.3,1.3,2.6,0.8,4.2
		c0.5,0.1,1,0.1,1.4,0.3c1.9,0.5,3.7,2.6,3.8,4.6c0,0.8-0.3,1.4-0.9,1.9c-1,0.7-2.1,1-3.2,0.9c-1.1-0.1-2.1-1.2-2.1-2.3
		c0-0.6,0.4-1.1,1.2-1.4c0.6-0.2,1.3-0.1,1.7,0.4c0.1,0.1,0.2,0.3,0.4,0.6c-0.4-1.5-1.1-2.4-2.4-2.8c-1.4-0.4-2.6-0.2-3.5,0.8
		c-0.7,0.9-1.3,1.9-1.9,2.9c-0.6,1.1-1.2,1.5-2.1,1.2c-1.3-0.4-1.9-1.4-1.6-2.5c0.1-0.4,0.2-0.8,0.4-1.4c-0.6,0.3-1.2,0.4-1.7,0.7
		c-0.6,0.4-1.1,0.9-1.6,1.4c-0.2,0.2-0.4,0.3-0.6,0.1c-0.4-0.4-0.7-0.9-1.1-1.3c-0.1-0.1,0.1-0.3,0.2-0.4c0.1-0.1,0.2-0.1,0.3-0.2
		c1-0.7,1.9-1.9,1.2-3.4c-0.4-1.1-1-2.2-1.5-3.2c-0.1-0.1-0.3-0.3-0.5-0.3c-0.9-0.1-1.6-0.5-2.2-1.1c-0.5-0.5-1.1-0.9-1.8-1.5
		c0.3,0,0.6-0.1,1-0.1c-1.3-1.2-2.3-2.5-2.4-4.5c0.3,0.2,0.6,0.4,1,0.7c-0.5-2.4-1-4.7-1.4-6.9c-0.3-1.6-1-3.1-2.1-4.3
		c-1-1-2.1-1.8-3.2-2.7C172.9,43.9,172.7,43.8,172.6,43.7z M183.2,61.7c-0.4-1-0.8-2.2-1.1-3.4c-0.2-0.7-0.2-1.5-0.4-2.2
		c-0.3-1.3-1.2-3.1-1.8-3.8c0.1,0.2,0.1,0.3,0.2,0.4c0.6,1.5,1.1,3.1,1.3,4.8C181.6,59.2,182.3,60.6,183.2,61.7z"/>
	<path d="M145.4,98.1c-0.5,2.5-0.8,4.9-2.8,6.9c-0.7-1-1.4-1.8-2-2.7c-0.1-0.1,0-0.4,0.1-0.5c0.9-1.6,1.7-3.2,1.9-5
		c0.2-1.4-0.1-2.8-0.6-4.1c1.6,0.5,5,4.4,6.3,7.1c1.3,2.7,2,7.2,1.5,9.5c-0.7-0.4-1.4-0.7-2.1-1c-0.1-0.1-0.2-0.4-0.1-0.5
		c0.2-2.6,0.1-5.1-1-7.5C146.3,99.4,145.8,98.8,145.4,98.1z"/>
	<path d="M170,109.1c-0.6-5.5,1.3-12.3,7.7-16.6c0,0.1,0,0.2,0,0.2c-1.1,2.7-0.6,5.2,0.7,7.7c0.1,0.2,0.2,0.5,0.4,0.7
		c0.7,0.7,0.5,1.3-0.1,2c-0.4,0.4-0.8,0.9-1.2,1.4c-0.3,0.3-0.4,0.3-0.7,0c-1.1-1.3-1.6-2.8-1.9-4.5c-0.1-0.6-0.2-1.3-0.3-2
		c-0.8,0.9-1.3,1.8-1.7,2.9c-0.7,2-0.9,4-0.7,6c0.1,1.2,0.1,1.3-1,1.8C170.7,108.9,170.4,109,170,109.1z"/>
	<path d="M171.6,82.4c2.2,0,3.9-1.2,5.5-2.7c0.3,1,0.7,1.9,1,2.9c0,0.1-0.2,0.4-0.4,0.5c-0.2,0.1-0.4,0.1-0.6,0.2
		c0.3,0.7,0.4,0.7,1.5,0.6c0.4,0.8,0.7,1.6,1.2,2.5c-0.9-0.1-1.7-0.2-2.5-0.3c-1.5-0.3-3-0.6-4.3-1.6
		C172.2,83.9,171.7,83.2,171.6,82.4z"/>
	<path d="M141.2,83.9c0.6,0,1.3,0.3,1.6-0.6c-0.2,0-0.4-0.1-0.6-0.1c-0.4-0.1-0.6-0.3-0.4-0.8c0.3-0.8,0.6-1.7,0.9-2.6
		c1.6,1.5,3.3,2.7,5.6,2.7c-0.3,1-0.9,1.7-1.8,2.3c-1.4,0.9-3.1,1.2-4.7,1.5c-0.5,0.1-1.1,0.1-1.8,0.2
		C140.5,85.5,140.8,84.7,141.2,83.9z"/>
</g>
</svg>
