<?xml version="1.0" encoding="UTF-8"?>
<!DOCTYPE svg PUBLIC "-//W3C//DTD SVG 1.0//EN" "http://www.w3.org/TR/2001/REC-SVG-20010904/DTD/svg10.dtd">
<!-- Creator: CorelDRAW -->
<svg xmlns="http://www.w3.org/2000/svg" xml:space="preserve" width="84mm" height="53mm" version="1.0" style="shape-rendering:geometricPrecision; text-rendering:geometricPrecision; image-rendering:optimizeQuality; fill-rule:evenodd; clip-rule:evenodd"
viewBox="0 0 8400 5300"
 xmlns:xlink="http://www.w3.org/1999/xlink"
 xmlns:xodm="http://www.corel.com/coreldraw/odm/2003">
 <defs>
  <style type="text/css">
   <![CDATA[
    .fil0 {fill:black;fill-rule:nonzero}
   ]]>
  </style>
 </defs>
 <g id="Слой_x0020_1">
  <metadata id="CorelCorpID_0Corel-Layer"/>
  <path class="fil0" d="M3354.98 1174.75c-33.87,10.21 -59.14,24.19 -77.96,47.31 -26.89,32.26 -27.96,37.1 -25.81,133.35 1.07,55.38 1.07,153.24 0,219.38 -1.08,118.29 -1.08,118.29 -23.12,111.3 -44.09,-15.06 -149.48,-8.07 -167.22,11.29 -15.06,16.13 -15.06,16.13 2.15,10.22 12.9,-3.77 17.2,-2.15 13.97,5.91 -2.15,6.99 -10.21,11.83 -16.13,10.22 -6.99,-1.08 -11.29,17.2 -11.29,50 0,29.04 -3.22,69.36 -5.91,88.18 -3.77,27.96 0,40.33 20.97,62.38 24.19,25.8 32.26,27.95 104.31,27.95 67.21,0 79.04,3.23 83.34,17.21 5.92,23.12 -1.07,1167.33 -6.99,1183.46 -3.23,9.14 -25.81,12.9 -69.36,12.9 -43.55,0 -75.28,5.92 -95.17,17.21 -30.11,18.28 -31.19,19.9 -32.26,98.4 -2.15,159.69 2.15,165.61 128.5,165.61l84.42 0 -3.22 192.49c-3.77,270.99 3.76,282.82 198.4,293.58 288.74,15.05 1133.99,20.97 1272.72,9.14 48.39,-3.76 91.4,-4.84 138.18,-3.76 65.06,1.07 81.19,0 93.02,-11.3 10.22,-8.06 13.98,-8.06 13.98,0 0,5.92 4.84,11.3 10.22,11.3 5.91,0 10.22,-9.14 10.22,-20.97 0,-11.3 -3.77,-17.21 -10.22,-13.98 -4.84,3.22 -10.22,1.07 -10.22,-4.84 0,-18.28 24.2,-5.92 34.95,18.28 10.22,22.04 12.91,22.04 235.51,22.04 124.21,0 294.66,3.23 379.07,5.92 227.45,9.14 583.94,-3.77 583.94,-22.05 0,-8.06 4.84,-13.98 11.29,-13.98 5.91,0 9.14,6.99 4.84,15.06 -3.77,12.9 6.99,15.05 72.05,15.05 41.94,1.08 273.68,2.15 515.64,3.23 240.89,1.07 434.99,-1.08 432.31,-5.91 -2.15,-3.77 3.22,-6.99 11.82,-6.99 10.22,0 12.91,4.83 9.15,11.82 -11.83,18.82 250.56,3.23 294.65,-18.81 73.13,-36.03 77.43,-51.08 77.97,-268.85 1.07,-107.54 3.76,-201.63 8.06,-210.78 3.77,-11.82 11.83,-13.97 27.96,-9.14 29.04,10.22 138.19,4.84 158.62,-5.91 12.9,-8.07 11.83,-9.14 -3.23,-10.22 -11.29,0 -17.2,-4.83 -13.98,-12.9 2.15,-5.91 9.14,-11.29 13.98,-10.22 12.91,3.23 23.12,-157.54 11.83,-177.44 -24.19,-43.01 -27.96,-45.16 -119.37,-50l-91.4 -4.84 -2.15 -604.9 -3.23 -603.83 89.26 0c82.27,0 89.26,-2.15 113.45,-27.96 20.97,-22.04 25.27,-33.87 20.97,-62.37 -3.23,-18.82 -5.91,-59.15 -5.91,-87.11 0,-33.87 -3.77,-52.15 -11.29,-50 -5.92,1.07 -13.98,-3.77 -16.13,-11.29 -3.23,-8.07 1.07,-10.22 13.98,-5.92 16.13,5.92 16.13,4.84 3.22,-9.14 -16.13,-17.2 -115.06,-25.27 -160.23,-12.9 -45.17,11.83 -48.93,1.07 -55.38,-179.59 -11.29,-279.06 -32.26,-318.85 -169.37,-315.09 -40.33,1.08 -77.97,-1.07 -84.42,-3.76 -10.76,-9.68 -181.21,-21.51 -267.24,-21.51 -33.33,1.08 -91.4,1.08 -130.12,1.08 -38.17,0 -236.58,2.15 -441.44,3.22 -203.78,1.08 -409.18,3.23 -456.5,4.84 -47.32,1.61 -105.39,3.77 -130.12,3.23 -389.29,-5.91 -711.9,-8.07 -729.11,-3.76 -12.9,3.22 -22.04,9.14 -19.89,12.9 1.07,3.76 -2.15,8.07 -8.07,9.14 -4.84,2.15 -10.22,-3.23 -10.22,-10.21 0,-9.15 -48.39,-11.83 -205.39,-11.83 -159.7,0 -204.33,3.22 -203.79,11.83 2.15,6.99 -3.76,12.9 -12.9,12.9 -8.07,0 -12.91,-3.76 -10.22,-9.14 11.83,-18.28 -53.23,-20.97 -510.27,-20.97 -253.79,0 -542.53,-2.15 -642,-3.77 -131.74,-3.22 -194.65,-0.53 -230.67,8.61l0 0zm2038.39 271.53c1372.72,2.15 1827.07,-1.08 1827.07,-9.14 0,-9.14 3.23,-8.07 8.06,0 3.77,6.99 30.12,13.98 57,15.05l50 3.23 1.08 50.01c2.15,80.11 15.05,890.41 13.98,907.62 -3.23,85.49 0,730.18 4.84,954.94 4.84,224.75 3.76,288.74 -5.92,294.65 -6.99,3.76 -45.16,5.91 -83.34,4.84 -74.2,-3.23 -345.2,-3.23 -1384.01,-2.15 -538.77,1.07 -608.67,3.23 -603.83,16.13 3.76,10.22 -1.08,15.06 -13.98,15.06 -12.9,0 -18.28,-4.84 -13.98,-15.06 4.84,-12.9 -58.07,-13.98 -504.35,-13.98 -279.6,1.08 -591.46,3.77 -693.09,6.99 -100.54,3.77 -182.27,3.77 -182.27,-1.07 0,-11.83 -34.95,-8.07 -48.4,4.84 -9.14,9.14 -15.05,10.21 -19.89,2.15 -3.77,-8.07 -52.16,-11.83 -131.2,-12.91 -68.28,-1.07 -128.51,-3.76 -132.27,-6.99 -4.84,-3.23 -9.14,-40.86 -9.14,-86.03 0,-67.21 -2.15,-79.04 -15.06,-74.2 -10.21,3.76 -15.05,-1.08 -15.05,-13.98 0,-12.91 4.84,-18.28 15.05,-13.98 12.91,4.84 15.06,-39.25 16.14,-358.1 3.76,-1199.59 3.76,-1185.61 -10.22,-1190.45 -8.07,-3.23 -10.22,-6.99 -3.23,-11.29 15.06,-9.14 17.21,-130.12 3.23,-174.75 -6.99,-19.9 -9.14,-41.94 -3.76,-48.93 3.76,-6.99 8.06,-63.45 10.21,-123.13 1.08,-61.3 2.15,-116.15 2.15,-124.21 1.08,-9.14 6.99,-11.29 18.82,-4.84 9.14,3.76 839.87,8.6 1845.35,9.68l0.01 0z"/>
  <path class="fil0" d="M6712.32 1688.99l-213.46 2.15 -39.26 38.18c-33.33,32.26 -40.32,45.17 -45.16,92.48 -11.29,95.17 -11.29,228.52 -2.15,441.45 4.84,113.45 8.06,223.68 5.91,245.72 -2.15,22.05 -3.76,206.47 -3.76,411.33l-1.08 371.01 24.2 39.25c12.9,20.97 38.17,44.09 55.92,52.16 40.33,17.21 443.06,20.97 496.29,4.84 48.93,-15.06 88.18,-65.06 94.09,-120.44 10.22,-97.33 5.92,-838.26 -4.84,-866.22l-11.29 -26.89 -137.64 0c-93.03,0 -141.42,3.76 -149.48,11.83 -8.07,8.07 -11.83,47.32 -11.83,108.08l0 96.24 30.11 17.21 30.11 18.28 1.08 112.38c0,62.37 0,162.38 -1.08,224.75 -1.07,67.21 3.23,119.37 10.22,130.12 8.06,12.91 9.14,25.81 1.07,45.17 -10.21,26.88 -11.29,26.88 -86.03,23.12 -85.49,-3.76 -101.08,-10.22 -85.49,-30.11 11.29,-13.98 16.13,-715.13 6.99,-1044.73l-4.84 -161.31 72.05 -3.76c107.54,-4.84 106.46,-5.92 106.46,66.13 0,34.95 4.84,67.21 11.83,74.2 9.15,9.15 9.15,11.83 0,11.83 -22.04,0 -12.9,27.96 11.3,33.34 36.02,6.99 177.43,1.08 187.65,-9.14 3.76,-4.84 10.22,-82.27 12.9,-172.6l3.77 -164.53 -27.96 -27.96c-24.2,-24.2 -45.17,-32.26 -112.38,-43.02 -6.45,-2.15 -108.07,-2.15 -224.21,-0.54l-0.01 0zm-2865.89 19.36c-9.14,9.14 -11.83,66.14 -9.14,205.4 3.23,224.75 2.15,207.55 13.98,188.73 8.07,-11.83 10.22,-9.14 10.22,11.83 0,13.98 -4.84,27.96 -11.83,30.11 -9.15,3.23 -11.83,46.24 -11.83,149.48 -1.08,125.28 -3.23,148.4 -18.29,163.45 -15.05,13.98 -18.28,36.03 -18.28,128.51 0,61.3 3.23,108.08 6.99,105.39 9.14,-9.14 43.02,22.04 43.02,40.33 0,6.99 -3.23,12.9 -6.99,12.9 -4.84,0 -9.14,137.65 -11.29,305.95 -1.08,168.29 2.15,305.94 5.91,305.94 4.84,0 13.98,11.29 19.9,25.27 11.29,24.2 15.05,25.27 111.3,25.27 148.4,0 140.34,18.29 137.65,-346.81 -2.15,-159.69 -3.77,-294.65 -5.92,-300.03 -11.29,-43.01 -5.91,-45.16 136.58,-45.16 154.31,0 212.38,-11.3 246.8,-47.32l23.12 -25.27 3.22 -434.99c2.15,-293.04 -1.07,-442.52 -8.06,-455.43 -25.27,-46.24 -52.16,-50 -358.1,-53.23 -211.85,-1.61 -291.43,0.54 -298.96,9.68zm395.74 240.35c1.08,10.21 1.08,117.22 2.15,238.73 0,121.52 3.23,212.39 4.84,202.71 8.06,-30.11 23.12,-18.28 23.12,18.82 0,29.04 -3.23,34.95 -16.13,30.11 -11.29,-3.76 -13.98,-1.07 -10.22,11.83 4.84,15.06 -1.07,17.21 -61.3,13.98 -38.17,-2.15 -72.05,-10.21 -80.11,-17.2 -16.13,-16.14 -17.21,-45.17 -2.15,-45.17 6.99,0 9.14,-70.44 4.84,-229.59 -2.15,-126.36 -2.15,-232.83 1.07,-235.51 3.77,-3.23 34.95,-5.92 70.44,-5.92 53.77,0.54 63.45,3.23 63.45,17.21l0 0zm462.41 -243.58c-17.2,19.9 -11.29,242.5 7,238.74 5.91,-1.08 11.83,4.84 11.83,12.9 0,8.07 -5.92,13.98 -11.83,11.83 -9.15,-1.07 -13.98,15.06 -16.14,51.08 -2.15,41.94 0,52.16 10.22,46.24 10.22,-5.91 10.22,-4.84 2.15,6.99 -16.13,20.97 -26.88,1157.11 -11.83,1224.32 9.14,36.03 19.9,55.39 45.17,73.13l33.33 25.81 262.93 -3.76c293.04,-3.77 314.02,-9.15 345.74,-70.44 22.04,-43.02 31.18,-381.22 25.81,-969.99 -2.15,-239.81 -3.77,-478.55 -3.77,-528.55 0,-58.07 -3.76,-95.17 -11.29,-100.55 -6.99,-3.23 -13.98,-1.08 -16.13,4.84 -4.84,17.2 -22.04,15.05 -22.04,-3.23 0,-11.83 -16.14,-15.05 -85.5,-15.05 -137.65,0 -127.43,-33.34 -126.36,429.07 1.08,213.47 3.77,448.44 7,520.49 4.83,95.17 3.22,133.35 -4.84,133.35 -18.28,0 -12.91,38.17 6.99,48.93 11.83,8.06 13.98,12.9 4.84,18.28 -6.99,5.91 -12.91,55.38 -15.06,145.18 -3.23,116.14 -5.91,140.33 -20.97,155.39 -17.21,17.21 -18.82,17.21 -31.19,0 -15.05,-18.82 -56.99,-22.05 -87.1,-5.91 -30.11,15.05 -61.3,-13.98 -53.23,-50.01 6.99,-30.11 11.83,-862.46 6.99,-1164.1l-3.77 -206.47 -43.01 -23.12c-29.04,-16.13 -50.01,-22.05 -62.38,-16.13 -18.81,8.06 -86.03,8.06 -115.06,-1.08 -9.14,0 -21.51,3.76 -28.5,11.83l0 -0.01zm893.65 -1.07c-11.3,15.05 -15.06,379.07 -3.77,428 4.84,18.82 4.84,66.14 2.15,105.39 -3.76,39.25 -3.23,75.27 2.15,82.26 12.91,16.13 0,53.23 -18.28,53.23 -8.07,0 -11.83,4.84 -9.14,10.22 3.23,5.91 -1.08,17.21 -9.14,25.81 -18.28,18.28 -23.12,158.62 -5.92,169.37 5.92,3.23 10.22,15.06 10.22,25.27 0,10.22 4.84,19.9 11.29,22.05 9.14,3.23 11.83,93.02 11.83,329.07 -1.07,188.73 3.23,330.68 9.14,338.2 4.84,5.92 4.84,13.98 1.08,16.13 -4.84,3.23 -6.99,24.2 -4.84,46.25l3.76 40.86 267.77 -3.23c398.97,-3.23 375.85,25.27 376.92,-468.33 0,-331.75 -1.07,-346.81 -19.89,-367.24 -60.22,-65.06 -67.21,-77.43 -51.08,-86.03 40.33,-22.04 50,-68.28 52.16,-218.84 1.07,-80.11 3.22,-225.83 4.83,-323.69 3.23,-168.29 2.15,-179.59 -18.28,-198.4 -31.18,-31.19 -77.96,-37.1 -350.03,-38.18 -189.81,0 -254.87,2.15 -262.93,11.83l0 0zm375.31 229.06c5.91,10.21 5.91,86.03 0,380.14 -1.08,73.13 -5.92,77.43 -81.2,65.06l-43.01 -5.91 -5.92 -87.11c-3.22,-48.39 -5.91,-94.09 -6.99,-102.16 0,-8.06 3.23,-70.44 6.99,-138.19l7 -122.59 58.06 0c31.73,-0.54 60.76,4.3 65.07,10.76zm-4.31 704.91c3.77,5.91 8.07,83.34 8.07,171.52 0,88.18 1.07,201.63 1.07,252.71 1.08,50.01 -1.07,96.25 -4.83,101.09 -8.07,12.9 -112.38,8.07 -129.59,-6.99 -11.29,-9.14 -12.9,-20.97 -6.99,-48.39 4.84,-19.9 9.14,-133.35 9.14,-252.72 0,-186.58 2.15,-217.76 16.13,-227.44 18.82,-13.98 96.25,-6.99 107,10.21l0 0.01z"/>
 </g>
</svg>
