<?xml version="1.0" encoding="utf-8"?>
<!-- Generator: Adobe Illustrator 26.0.3, SVG Export Plug-In . SVG Version: 6.00 Build 0)  -->
<svg version="1.0" id="Слой_1" xmlns="http://www.w3.org/2000/svg" xmlns:xlink="http://www.w3.org/1999/xlink" x="0px" y="0px"
	 viewBox="0 0 239.5 150.2" style="enable-background:new 0 0 239.5 150.2;" xml:space="preserve">
<g>
	<path d="M195.6,125.5c0.7-1.2,1.4-2.4,2.4-3.4c0.4-0.3,0.9-0.7,1.4-0.7c0.3,0,0.2,0,0.2,0.2c0.1,0.3,0,0.8,0,1.1
		c-0.1,0.8-0.2,1.7,0,2.5c0.3,1,1.2,1.4,2.2,1.4c1.6-0.1,2.9-1.5,3.8-2.6c0.8-1,1.6-2.2,2.8-2.7c0.2-0.1,0.4-0.1,0.6-0.1
		c0.6,0.1,0.1,0,0.1,0c0.1,0.1,0,0.3,0,0.5c0,0.4-0.1,0.7-0.2,1.1c-0.3,1.6,0.1,3.4,1.9,3.8c1.7,0.3,3.2-0.9,4.2-2.2
		c0.5-0.6,0.9-1.2,1.4-1.8c0.2-0.2,0.4-0.4,0.7-0.5c-0.2,0.1,0.3-0.1,0.2-0.1s-0.1,0,0.1,0c0.4,0.1-0.1-0.1,0.2,0.1
		c0.2,0.2,0.2,0.4,0.2,0.7c0.1,1-0.2,1.9,0.1,3c0.4,1.5,2.7,1,2.7-0.5c0-1.8,0.4-3.7-1-5.1c-1.2-1.2-3-1.2-4.4-0.3
		c-1.3,0.9-2,2.3-3.1,3.4c-0.1,0.1-0.5,0.4-0.5,0.4s-0.5,0.1-0.2,0.1c-0.4,0.1,0.2,0.1-0.2,0c0.1,0,0.3,0.2,0.1,0
		c0.1,0.1,0.2,0.3,0.1,0c0-0.2,0.1-0.4,0.1-0.6c0.3-1.6,0.3-3.2-1.3-4.1c-1.5-0.9-3.2-0.2-4.4,0.8s-1.9,2.2-2.9,3.3
		c-0.4,0.4-0.9,0.9-1.5,1.1c-0.1,0-0.3-0.1,0.1,0.1c0.1,0.1,0.1,0.2,0.1,0c0-0.4,0-0.8,0.1-1.2c0.1-1.2,0.1-2.5-0.9-3.3
		s-2.3-0.5-3.3,0c-1.9,1-2.9,3.1-3.8,4.9C193.4,125.8,195,126.6,195.6,125.5z"/>
	<path d="M194.1,135.8c1.1-1.3,1.8-2.9,3.2-3.9c0.1-0.1,0.3-0.1,0.4-0.2c0.1,0,0.2,0.1,0-0.1c0.1,0.1,0.1,0.3,0.2,0.4
		c0.1,0.6,0,1.2,0,1.8c0,1.6,1,3.1,2.8,2.9c1.9-0.2,3.1-2,4.3-3.2c0.6-0.6,1.1-1.3,1.8-1.9c0.2-0.2,0.5-0.3,0.7-0.4
		c-0.1,0-0.1,0,0.1,0c-0.1,0-0.1,0-0.1-0.1c0.1,0.1,0.1,0.1,0.1,0c0.2,0.3,0.2,0.3,0.3,0.5c0.1,0.3,0.1,0.2,0.1,0.6
		c0.1,0.9-0.1,1.7,0.3,2.5c0.9,1.8,3.2,1.2,4.4,0.1c0.6-0.5,1-1.1,1.4-1.7c0.3-0.4,0.8-1.1,1.1-1.3c0.3-0.3,0.6-0.4,0.9-0.5
		c0.1,0,0.2-0.1,0.3-0.1c-0.2,0.1,0.1,0,0.2,0c0.3,0.1-0.1-0.1,0.1,0.1c-0.2-0.1-0.1,0-0.1,0c0.1,0.3,0.2,0.6,0.2,0.9
		c0.1,0.7,0,1.5-0.1,2.2c0,0.8,0.8,1.3,1.4,1.3c0.8,0,1.3-0.7,1.3-1.4c0.1-1.7,0.2-3.8-1.2-5c-1.2-1-2.8-0.6-4,0.1
		c-1.2,0.7-1.8,2-2.7,3.1c-0.2,0.2-0.4,0.4-0.6,0.6c-0.1,0.1-0.3,0.2-0.4,0.3c0.1-0.1-0.3,0.1-0.1,0c-0.2,0-0.2,0,0,0.1
		s0.2,0.2,0.2,0.1c-0.1-0.4,0-0.8,0-1.2c0-1.3-0.6-2.8-1.9-3.4c-1.8-0.8-3.4,0.6-4.6,1.9c-0.6,0.6-1.2,1.3-1.8,2
		c-0.5,0.6-1.1,1.2-1.8,1.4c0.1,0.2,0-0.2,0-0.2c0.1,0.2,0-0.2,0-0.2c0-0.6,0-1.2,0-1.8c-0.1-0.9-0.5-1.8-1.3-2.4
		c-1-0.7-2.2-0.3-3.1,0.3c-1.6,1.1-3,3.2-3.5,5.1C192.3,135.9,193.5,136.6,194.1,135.8z"/>
</g>
<polygon points="182.2,23.9 177.7,23.4 177.5,18.5 174,21.8 170,19.3 170.6,23.7 166.2,24.5 169,27 167.4,29.5 141.1,43.1 
	141.3,40.1 138.8,41.8 136,40.7 136.9,43.5 135.3,45.5 114.3,52.9 114.1,48.1 110.6,51.4 106.6,48.9 107.2,53.3 102.8,54.1 
	105.6,56.6 103.7,59.7 107.4,59.3 108.2,63.2 109.5,61.8 108.2,69.9 106.6,68.7 106.6,70.8 104.8,72.1 102.3,72.4 102.4,72.4 
	100.8,71.7 100.5,70.1 99.4,71.4 97.7,71.2 98.6,72.6 97.9,74.2 99.5,73.8 98.3,86.4 97,85.7 97.2,87.4 95.9,88.5 97.6,88.8 
	98.2,90.4 98.9,89.1 111.2,107.6 108.5,107.4 110.6,110.2 109.3,113.5 112.6,112.4 115.3,114.6 115.4,111.2 118.2,109.3 
	115.1,108.2 114.8,107.2 118.8,101.3 119.2,102.8 120.5,101 122.7,101.1 122.3,100.5 133.7,104.3 132.2,105.3 134.3,105.9 
	134.9,108 136.1,106.2 136.9,106.3 140.8,110.8 139.1,111.1 140.6,112.6 140.3,114.8 142.1,113.7 142.7,114 147.3,126 142.9,125.1 
	145,129.1 141.2,131.3 144.6,132.7 143.8,136.2 147.2,134.6 149.2,138 150.7,134.6 154.3,136.8 153.9,133.1 157.6,130.8 
	153.8,129.6 156,125.3 151.6,126.3 149.7,121.8 147.5,126 143.1,114.2 144.1,114.8 143.7,112.6 145.3,111.1 143.1,110.7 
	142.1,108.8 141.3,110.7 141.1,110.8 137.2,106.3 138.4,106.3 137.1,104.5 137.8,102.5 135.8,103.2 134,101.9 134.1,104 134,104.1 
	122,100.1 121.5,99.3 122.2,97.3 120.2,98 118.4,96.7 118.4,98.8 116.6,100.1 118.7,100.7 118.7,100.9 114.7,106.9 114.1,104.9 
	112,107.6 111.6,107.6 99.1,88.9 100.8,88.7 99.6,87.5 100,85.9 98.6,86.5 99.7,74 100.8,74.9 100.9,73.2 101.7,72.8 105.3,72.3 
	106.8,72.7 107.4,74.8 108.7,73 110.9,73.1 109.6,71.3 110.3,69.3 108.5,70 109.8,61.4 110.7,60.5 113.4,63.8 114.2,60.2 118,59.3 
	127.8,63.1 126.6,63.9 128.7,64.5 129.3,66.7 130.5,64.9 132.7,64.9 131.9,63.8 149.3,63.7 147.6,66 151,65.8 153,68.8 154,65.4 
	157.4,64.4 154.6,62.3 154.6,59 151.9,61 148.6,59.9 149.7,63.2 149.5,63.4 131.7,63.5 131.5,63.2 132.2,61.2 130.2,61.8 
	128.4,60.5 128.4,62.7 128.1,62.9 118.5,59.2 118.5,59.2 115.3,56.8 118.8,53.5 114.8,53 135,45.8 135,45.9 138,45.9 139.6,48.4 
	140.6,45.6 143.4,44.9 141.3,43.3 167.2,29.9 167.1,30.1 170.8,29.7 171.6,33.6 174.1,30.9 176.8,34.2 177.6,30.6 181.9,29.6 
	178.7,27.2 "/>
</svg>
