<?xml version="1.0" encoding="utf-8"?>
<!-- Generator: Adobe Illustrator 26.0.3, SVG Export Plug-In . SVG Version: 6.00 Build 0)  -->
<svg version="1.0" id="Слой_1" xmlns="http://www.w3.org/2000/svg" xmlns:xlink="http://www.w3.org/1999/xlink" x="0px" y="0px"
	 viewBox="0 0 239.5 150.2" style="enable-background:new 0 0 239.5 150.2;" xml:space="preserve">
<g>
	<path d="M187.9,135.3c0.8-0.5,1.7-0.8,2.6-1.3c1.9-1,3.8-1.9,5.6-2.9c0.4-0.2,0.9-0.5,1.6-0.8c0.5,1.1,1.1,2.3,1.2,2.5
		c0,0.1,0.1,0.2,0.1,0.2v-0.1c0.6,2.2,4.1,1.3,3.5-0.9c-0.2-0.6-0.5-1.2-0.8-1.7s-0.6-1.1-0.9-1.6c4.6-2.5,11.1-6,15.3-8.2
		c-0.6,0.9-1.1,1.9-1.7,2.8c-1,1.7,1.7,3.3,2.7,1.6c1.6-2.8,3.3-5.5,4.9-8.3c0.6-1-0.2-2.4-1.4-2.4c-1.7,0-3.3,0.1-5,0.1
		c-1.1,0-2.2,0-3.3,0.1c-0.6,0.1-1.2,0.1-1.8,0.3c-1.2,0.5-1.2,2,0,2.4c0.6,0.2,1.1,0.2,1.7,0.2c0.7,0,1.5,0,2.2,0
		c-3.3,1.8-9.8,5.4-15.3,8.5c-0.3-0.5-0.6-1-1-1.5c-0.5-0.8-1-1.6-1.8-2.1c-0.9-0.6-2,0.4-1.8,1.3c0.2,0.8,0.6,1.5,0.9,2.3
		c0.2,0.5,0.5,1.1,0.7,1.6c-3.3,1.9-6,3.3-6.7,3.7c-1.1,0.7-2.3,1.3-3.3,2.2C185.3,134.3,186.7,136.1,187.9,135.3z"/>
	<path d="M199,133C199.1,133.3,199.1,133.2,199,133L199,133z"/>
</g>
<path d="M198.4,52.4h-1.7l-0.9-1.3l-0.5,1.5l-1.6,0.5l1.4,1v0.1l-9.6,6l-1.3-0.1l-0.4-4.6l-3.2,3.2l-3.8-2.2l0.7,4.2l-4,0.9l2.7,2.2
	l-0.3,0.6l-12.3,2.1l0.7-1h-1.7l-0.9-1.3l-0.3,0.9l-2.7-11l1.6,0.6l-0.7-1.8l1.2-1.6h-1.6l9.7-12.7l0.7,2.6l2-2.9l3.6,0.2l-2-2.9
	l1.2-3.2l-3.2,1l-2.8-2.2v3.5l-3,2l3.4,1l0.1,0.6l-9.9,13l-1.1-1.5l-0.5,1.8l-1.9,0.6l0.6,0.4l-11.8,1.1l0.8-1.1h-1.7l-0.9-1.3
	l-0.5,1.5l-0.3,0.1l-5.2-4.5l3.5-0.9l-3-2.2l3.1-3.2l-4.2-0.3l-0.4-4.6l-3.2,3.2l-0.2-0.1l-0.9-9.5l1.4,1.4l0.3-3.2l0.9-0.4
	l11.6,1.8l-1.1,1.5h1.9l1.1,1.6l0.5-1.9l1.9-0.5l-1.6-1.1v-2l-1.6,1.1l-1.8-0.6l0.6,1.6l-11.2-1.8l1.7-0.8l-2.9-1.3l-0.5-3.2
	l-2.2,2.3l-3.1-0.5l0.7,1.3l-10.5-5.5l-1.1-1.6l0.7-1.9l-1.9,0.6l-1.6-1.2v2l-1.7,1.2l1.9,0.6l0.5,2l1.2-1.7l1.6,0.1l11.1,5.8l0.6,1
	l-1.4,2.9l3.1-0.6l0.6,0.6l0.9,9.7l-3.4-1.9l0.7,4.2l-4,0.9l2.7,2.2l-1.6,3l3.5-0.5l0.8,3.6l0.2-0.2l-2.1,12.8l-0.5-0.7l-0.5,1.8
	h-0.1l-4.6-4.6l1.3-0.1l-1-1.1l0.3-1.5l-1.3,0.7l-1.4-0.7l0.2,1.5l-0.2,0.1L104.4,56l-0.6-0.9l1.2-3.2l-3.2,1L99,50.7v3.5l-3,2
	l2,0.6L84,65h-1.3l-1.1-1.5l-0.5,1.8l-1.9,0.6l1.6,1.1v2l1.1-0.9l0.2,3.5L82,71.4l-0.5,1.8l-1.9,0.6l1.6,1.1v2l1.5-1.2l1.2,0.4
	l13.9,16.1v1.2l-3,2l3.4,1l0.9,3.5l2-2.9l6.8,13.3v2.4l-3,2l3.4,1l0.9,3.5l2-2.9h0.4l9.4,12.1l-0.6-0.3l0.8,3.4l-3.1,1.4l3.1,1.7
	l-1.5,3.4l3.4-0.8l0.3,4l2.6-2.4l3.8,1.5l-1.1-3.6l4.4-0.7l-3.2-2.8l2.4-3.9l-4.5,0.7l-1.7-4l-1.9,3.8l-2.7-1.2l-9.5-12.3l2.9,0.1
	l-1.8-2.6l20.8-1.5l-1.3,3.2l3.4-1.1l2.8,2.3l0.2-3.5l2.8-1.9l-3.2-1.1l-1-3.4l-2.1,2.8l-3.6-0.2l2.1,2.7l-21,1.5l-0.1-0.1l1.2-3.2
	l-3.2,1l-2.8-2.2v0.5l-6.5-12.8l3.3,0.1l-2-2.9l1.2-3.2l-3.2,1l-2.8-2.2v1.9l-14-15.3l0.2,0.1l-0.7-1.8l1.2-1.6h-1.9l-0.7-1l-0.2-4
	l0.1-0.1l1.9,0.7l-0.7-1.8l1.2-1.6h-0.1L98.2,57l1,0.3l0.9,3.5l2-2.9l3.6,0.2l-1.2-1.7l16.1,3.6l-0.8,0.7l1.5,0.2l0.6,1.4l0.7-1.4
	l4.6,4.6l-1.5,0.5l1.6,1.1v2l1.5-1.2l1.9,0.7l-0.7-1.8l1.2-1.6h-1.1l11.6-10V56l1.3-1l1.6,0.6L144,54l0,0l12.3-1.2l0.7,0.5v2
	l1.5-1.2l2.8,11.5l-0.1,0.2l-1.6,0.5l1.4,1V69l0.9-0.7l-0.5,8.8l-0.3,0.3l-3.8-2.2l0.7,4.2l-4,0.9l2.7,2.2l-1.6,3l3.5-0.5l0.8,3.6
	l2.3-2.7l2.6,3l0.6-3.4l1.3-0.3l3.6,2.3l-1,0.3l1.4,1v1.7l1.3-1l1.6,0.6l-0.6-1.6l1-1.4h-1.7l-0.9-1.3l-0.5,1.5l-0.3,0.1l-3.6-2.3
	l2.3-0.6l-3-2.2l3.1-3.2l-4.2-0.3l-0.4-4.6l-2.6,2.6l0.5-8.7l0.2-0.1l1.6,0.6l-0.6-1.6l0.1-0.1l12.4-2.1l-1.2,2.1l3.5-0.5L179,70
	l2.3-2.7l2.6,3l0.6-3.4l3.9-1l-3-2.2l3.1-3.2l-2.5-0.2l9.2-5.7v1.3l1.3-1l1.6,0.6l-0.6-1.6L198.4,52.4z M129.8,65.2h-0.5l-0.4-0.6
	l2.2-13.5l1.8-2.1l2.6,3l0.6-3.4h0.1l5.2,4.5l-1.1,0.4l1.4,1v0.6L129.8,65.2z"/>
</svg>
