<?xml version="1.0" encoding="utf-8"?>
<!-- Generator: Adobe Illustrator 26.0.3, SVG Export Plug-In . SVG Version: 6.00 Build 0)  -->
<svg version="1.1" id="Слой_1" xmlns="http://www.w3.org/2000/svg" xmlns:xlink="http://www.w3.org/1999/xlink" x="0px" y="0px"
	 viewBox="0 0 239.5 150.2" style="enable-background:new 0 0 239.5 150.2;" xml:space="preserve">
<style type="text/css">
	.st0{fill:#25262C;}
</style>
<g>
	<path class="st0" d="M239.6,143.9c-0.1-1.1-0.1-2.3-0.2-3.4c-0.4-1.7-0.2-3.4-0.2-5.1c0-1.1,0-2.2,0.1-3.3c0.2,0.4,0.3,0.8,0.4,1.2
		v-9.4c-1.2-1.9-2.5-3.7-3.8-5.6c-0.5-0.9,0-2,0.2-2.9c-0.2-1-0.5-2-0.7-2.9c-0.1-0.7-0.2-1.3-0.3-2c-0.6-1.6-1.3-3.1-1.5-4.8
		c1.4,1.5,1.7,3.8,2.8,5.5c0.1,0.1,0.2,0.3,0.3,0.4c1.3,1.6,0.9,4.6,2.9,5.4v-2.4c-0.6-1.8-1.6-3.6-2.5-5.3
		c-1.1,0.5-2.1-1.8-0.8-1.6c-0.9-1.7-1.9-3.3-2.8-5c-0.6-0.4-1.1-0.9-1.5-1.5c-0.5-0.3-2-0.7-1.2-1.4c0.4-0.4,0.8-0.7,1.2-1.1
		c0-0.8,0.8-1.7,1.6-1.4c1.2-0.8,1.7-2.4,2.1-3.7c-0.2-2-0.4-4.2-1.7-5.8c-1.1-1.1-3.5-0.8-3.7-2.6c-1-3.6-2.1-7.2-2.5-10.9
		c-0.3-4.3-2-8.3-2.4-12.5c1.1-0.2,1,1.2,1.3,1.9c1.5,6.6,2.5,13.3,3.8,19.9c0.1,0.5,0.5,0.8,0.8,1.2c0.5-0.1,1.1,0,1.5-0.5
		c-0.5-2.5-1.4-4.9-1.8-7.5c-0.7-3-0.6-6.2-1.3-9.2c-1.7-3-1.5-6.7-2.8-9.8c-0.5,0.2-0.9,0.5-1.4,0.8c-0.2,0.5-0.3,1.1-0.5,1.6
		c-0.8,0.1-1.2-0.7-1.8-1.1c-1.3,2.8-2.1,5.9-2.8,8.9c-2.7-4.4-2.9-9.9-3-14.9c0-0.6-0.1-1.3,0-1.9c0-0.8,0.2-1.6,0.4-2.4
		c0.1-1.2,0-2.4,0.4-3.5c0-0.7,0-2,0-2.7c0.1-0.6,0.2-1.8,0.3-2.5c0-1,0.1-3.2,0.1-4.2c-0.3-1.9-0.1-2.4,0.7-1.6
		c0,0.7,0,2.1,0.1,2.8c0,1.2-0.3,2.4-0.5,3.5c-0.1,0.6-0.3,1.3-0.4,1.9c0,0.7,0,2,0,2.7c0.1,1.3,0,2.7-0.2,4
		c-0.1,0.8-0.1,1.5-0.1,2.3c0,1.2,0,2.3,0,3.5c0.2,0.1,0.5,0.4,0.7,0.5c1-0.2,1.3-1.1,0.8-2.5c0-1.7,0-3.5,0.3-5.2
		c0.2-3-0.1-6,0.6-9c1.6,3.5,3,7.2,3.8,11c0.5,0.2,1.1,0.4,1.7,0.5c0.2-0.5,0.3-1.1,0.4-1.6c-0.1-1.8-0.3-3.5,0.2-5.3
		c0.7-1.9,1.3-3.7,1.7-5.7h0.3c0.8,3,1.3,6,2,8.9c1.2,0.3,1.3-0.7,1.3-1.7c-0.3-1.1-0.4-2.2-0.6-3.3c-1-3.5-1.9-7.3-1.1-11
		c1.5-0.3,0.4,2.2,0.8,3c0.2,1.5,0.3,3,0.2,4.5c0.2,1.1,0.5,2.2,0.5,3.3c0.8,2.3,0.6,4.8,1,7.2c0.2,2.9,0.9,5.7,1.1,8.5
		c0.1,1.1,2.2,0.8,1.5,2.1c-1.3,3.3-1.7,6.8-2.2,10.3c0.1,1.3,0.1,2.6,0.2,3.9c0.4,1.6,0.1,3.3,0.1,4.9c0.4,1.8,0.3,3.7,1.3,5.3
		c0.5,0.5,1.1,1.1,1.6,1.6c0.9,0.2,1.9,0.4,2.8,0.5c0.2,0,0.3,0,0.5,0v-2.3c-0.8,0.2-1.7,0.1-2.4,0.2c-0.5-2.1-1.4-4.1-1.3-6.2
		c-1.3,0-0.1-2.6-0.4-3.5h0.4c0-0.8-0.1-1.6,0.1-2.3c0-0.7,0.8-1.5,1.4-1.5c0.1-0.2,0.4-0.6,0.5-0.8c-0.1-0.7,0.8-1.6,1.5-1.5
		c0,0,0.1,0,0.1-0.1v-2.2c-0.3,0.1-0.6,0.3-0.9,0.4c-0.7-0.7,0.2-1.2,0.9-1.7V58c-0.9,0-1.9-0.1-1.7-1c0.6,0.1,1.2,0.1,1.7-0.1v-1.5
		c-0.2,0.1-0.4,0.2-0.6,0.3c-1.5,0.4-2.2-1.9-1.7-3c0.6-3.3-0.1-6.9,1.8-9.9c0.2-0.3,0.4-0.7,0.5-1v-7.3c-0.5,0.9-1.1,1.7-1.4,2.7
		c-1.7,3.5-2.5,7.4-3.1,11.3c0.1,1.7,0.1,3.4,0.1,5.2c1.1,0.7,0.6,3.1,1.2,4.3c-0.2,0-0.6,0-0.7,0c-0.1-1.5-0.6-2.9-0.8-4.3
		c-0.2-0.6-0.6-1.2-0.3-1.8c-0.5-3.4-1.9-6.7-1.7-10.2h-0.4c0-0.7,0-2,0-2.7l-0.4-0.1c0-1.1,0-3.3,0-4.4c-0.9-0.2-0.5-1.9-0.2-2.6
		c-0.4-1.1-0.7-2.3-0.4-3.4c0.4-1.7-0.8-3.4-0.4-5c0.2-1.3,0.6-2.5,0.9-3.7c-0.1-1.5,1.1-2.7,2.8-1.8c1,0.3,2,0.3,3,0.5
		c0.3,0,0.8-0.1,1-0.2c0.3,0.1,0.7,0.3,1,0.5V-2.6c-3.5,5.1-5.2,11.2-7.3,17c-0.5,0-1.6,0-2.1-0.1c-0.6,0.1-1.4,0.1-1.4,0.9
		c-0.1,0.6-0.3,1.2-0.2,1.8c1,0.4,2.8,0.6,2.2,2c-0.5,1.2-0.4,2.6-1.3,3.6c-0.7-2.2-1.9-4.3-3.5-6c-0.6-0.1-1.1-0.2-1.7-0.4
		c0-0.5,0.4-0.9,0.7-1.3c0.4-0.9,1.2-1.3,2-1.7c1-1.9,2.9-3.7,2.1-6.1c-0.6-2-1.1-4.1-2.2-5.9c-1-0.3-1.6-1-2.1-1.9
		c-0.5-0.1-1.1-0.2-1.1-0.8c-0.6-0.2-1.3-0.4-1.9-0.5c-0.9,0.3-1.4-0.3-1.7-1.1h-2.2c0,1.4,0,2.8-0.1,4.2c-0.1,0.9,0.7,4.7-0.6,3.3
		c-0.7-1.9-1.1-4-2.6-5.5c-1,0.1-2,0.2-3,0.3c0.2-0.8,0.5-1.6,0.8-2.3h-1.9c-1.3,3.3-2,6.7-2.7,10.2c-0.2,1.2-0.3,2.4-0.5,3.5
		c-0.9,4.3-0.4,8.7,0.2,12.9c0.1,0.8,0.5,1.5,0.8,2.2c1,2.1-0.9,4.3-0.9,6.4c0,1.2-1.9-0.5-1.8,0.9c-0.6,3.3-0.7,6.6-1.5,9.9
		c-0.8-0.2-1.5-0.5-2.2-0.7c-0.8,0.6-0.1,1.7-0.2,2.6c-0.5,0-1,0-1.4,0c-0.5,0.1-1.1,0.2-1.6,0.4c0.2,1.3,1.1,2.3,2.5,1.7
		c0.6-0.1,1.3-0.3,1.9-0.4c-0.1,2-0.6,3.9-1,5.8c-0.2,0.4,0.1,1.6-0.6,1.5c-0.7,0.2-0.8-0.5-0.9-1c-0.5-0.4-0.7-1.1-1-1.7
		c-0.9,0-1.6-0.7-1.5-1.6c-0.1-0.2-0.3-0.5-0.5-0.7c-1.3-1.7-2.5-3.5-4.1-5c-0.7-1.7,0.9-2.7,1.3-4.1c0.3-1.6,1.5-2.7,2.1-4.1
		c0-1.1,0-2.2,0-3.3c-0.5-1.3-1.9-1.5-3-2.1c-0.3-0.8-0.8-1.5-1.3-2.2c-0.1-2-0.1-4.1,0-6.1c-0.1-1.5,0-3,0.2-4.5
		c0.4-2.9,0.9-5.7,1-8.6c0.5,0.9,0.5,2,0.6,3.1c0.4,0.5,0.8,1.1,1,1.7c0.3,0.7,0.4,1.5,0.5,2.3c0.2,2.2,1.4,4.1,1.7,6.3
		c0.2,0,0.7,0,1,0c0.3-1.4,0.4-3.1,1.2-4.3c0.8,4.9,0.1,10,1.3,14.9c0.9,0.3,1.3-0.2,1.2-1.1c0-1.2-0.1-2.4-0.1-3.5
		c-0.5-4.1-0.5-8.2-1-12.3c-0.1-2.9-0.7-6.4,0.9-8.9c-0.1,3.7,0.6,7.3,1,10.9c0.4,1.6,0.2,3.3,0.2,4.9c0.1,1.2,0.2,2.5,0.3,3.7
		c0.1,0.5,0.2,1,0.2,1.6c0,1.7,0.2,3.5,0.5,5.2c1.4-0.9,1.9-2.7,1.3-4.2c-0.4-1.6-0.4-3.2-0.6-4.8c-0.7-4.6-0.7-9.3-0.9-13.9
		c-0.5-1.3-0.2-2.7-0.2-4.1c-0.3-1.9-0.5-3.8-0.6-5.8c-0.2,0-0.5,0.1-0.6,0.1c-0.7,1.7-1.1,3.5-2,5.1c-0.1-1.2-0.1-2.3-0.2-3.5
		c-0.8-1.5,0.7-4.1-0.9-4.9c-0.5,0.9-0.9,1.9-1.2,2.9c-0.5,1.1-0.9,2.3-1.1,3.5c-0.1,0.7-0.3,1.4-0.6,2c0,0.9,0.5,3.6-0.6,2.3
		c-0.5-1.5-1.1-2.8-1.5-4.3c-0.4-1.4-0.7-2.9-1-4.3c-0.2-0.8-0.3-1.6-0.4-2.3h-2.2c-0.3,1.2-0.6,2.4-0.9,3.6
		c0.1,1.3-0.1,2.6-0.3,3.9c0,0.2-0.1,0.7-0.1,1c0,2.4-0.4,4.8-0.7,7.2c-0.1,0.9-0.2,1.8-0.3,2.8c0,1-0.1,3.2-0.1,4.2
		c-0.9,0.3-0.7-0.5-0.7-1.1c-0.5-1.5-0.9-3.1-0.9-4.7c0.2-0.5,0.5-0.9,0.8-1.3c0.5-1.9-2.3-0.9-2.4-2.5c-0.1-0.2-0.3-0.6-0.4-0.8
		c-0.4-0.9-0.6-1.8-0.9-2.7c-0.6-1.8-1-3.7-1.1-5.6c-1.8,0.1-1.6,2.8-2.6,3.4c-1-2.3-1.3-4.9-0.9-7.3h-3c-0.4,3.7-1.7,7.2-2.4,10.9
		c0,1.3,0.1,3.3-1.5,3.6c-0.1,2.2,0,4.4-0.1,6.6c-0.2,0-0.7-0.1-1-0.1c-0.9-2.7-3.8-4.2-6.3-5.1c0.1-1.1,1.3-1.9,1.9-2.7
		c0.1-0.1,0.3-0.3,0.4-0.4c0.3-0.4,0.6-0.8,0.9-1.2c0.1-2,0.6-4.1-0.2-6.1c-0.5-1-1.1-2.1-2.3-2.4c-0.8-0.1-1.2-0.7-1.2-1.5
		c-0.5-0.5-1.1-1.1-1.6-1.6h-1.7c-0.7,0.5-1.5,1.3-2.5,0.9c0,1.9-0.2,3.9-0.5,5.8c-0.3-0.3-0.5-0.5-0.7-0.9
		c-0.8-2.1-2.4-3.9-3.6-5.8h-3.4c-1.2,0.9-2.3,1.9-3.2,3.1c-1.2,3-1.5,6.2-1.3,9.4c0.1,0.5,0.1,0.9,0.2,1.4
		c1.1,4.3,1.7,8.7,3.3,12.9c0.4,0.7,0.8,1.4,1.3,2.1c0.9-0.2,1.7,0.6,1.5,1.5c1.1,1.1,2.2-1,3.2-1.2c0.8-0.5,1.4-1.3,1.9-2
		c0.4-1.6,1.7-2.9,1.8-4.6c1.2,2.4,0.9,5.3,1.9,7.8c0.3,0.6,1,0.2,1.5,0.2c0,0.3,0,0.8,0,1.1c0,0.5,0,1,0,1.6c0.5,0,1,0,1.5,0
		c0-0.6,0-1.2-0.1-1.9c-0.2-1.5-0.3-3-0.3-4.4c0-0.2-0.1-0.5-0.2-0.6c-0.7-2.3-0.1-4.9-0.2-7.2v-0.3c1.6,0.5,2.3,2.4,3.4,3.6
		c0.7,0.3,1.2,0.9,1.5,1.6c1.3,1.5,3.3,3.4,1.9,5.6c0.4,0.3,0.9,0.7,1.3,1c1,0.2,0.6-1,0.9-1.6c0.9,1.1,1.5,2.5,2.2,3.7
		c0.9-0.2,1.4-0.8,1.3-1.7c-1.2-0.6-1.4-2-2.3-2.8c-0.9-0.7-1.1-1.6-0.5-2.6c1.2,1.2,1.3,4.1,3.4,3.9c0-2.5-2-4.2-3-6.4
		c0-1.2,0.2-2.3,0.4-3.5c0.1-0.8,0.2-1.6,0.7-2.2c1-0.1,2-0.1,3,0c0.8-0.1,1.6-0.3,2.4-0.3h0.3c0.2,1.6,0.6,3.1,1.1,4.6
		c1.1,3.7,1.3,7.6,2.5,11.2c0.7,0.4,1.3,0.9,1.9,1.4c0.2-0.1,0.4-0.4,0.6-0.6c-1.3-3.2-1.2-6.7-2.3-10c-0.8-2.2-1.3-4.4-1.4-6.7
		c1.6-0.5,2,1,2.3,2.3c0.8,3.2,1.6,6.5,2.5,9.7c0.3,1.3,0.8,2.8,0.4,4.1c-0.3,0.8-0.7,1.6-1.2,2.2c1.3,1.3,0,3.5-0.1,5
		c0,2.4,0.2,4.8-0.3,7.2c0,0.3-0.1,0.9-0.2,1.2c0,0.5,0.1,1,0.1,1.5c-1.4-0.5-0.5-2.2-0.5-3.2c0.3-2.8,0.1-5.6-0.4-8.4
		c-0.3-1.2-0.7-2.3-1.1-3.4c-1.1-1.8-1.9-5.2-4.6-4.1c-0.5-0.3-1-0.8-1.5-1.1c-0.9,1.4-1.3,3-1.6,4.6c-1.3,6-2.2,12.2-1.7,18.3
		c0.1,0.4,0.1,0.8,0.1,1.2c0.4,2.3,0.8,4.8,2.1,6.7c0.8,0.9,1.7,1.7,3,1.7c-0.2,0.5-0.7,0.8-1,1.2c-0.2,0.6-0.1,1.4-0.9,1.5
		c-0.4,0.5-0.3,1.6-1.1,1.4c-0.7-2-1.4-4.2-3.3-5.3c-0.8-1.2-0.9-2.9-1.2-4.3c-0.2-0.9-0.2-1.9-0.2-2.8c-0.2-2.4-1-4.8-0.9-7.3
		c-0.7-1.8-0.1-3.8-0.1-5.7c-0.9-3.3-0.5-6.7-1.1-10c-0.1-0.5-0.1-1.1-0.1-1.6c-0.5-0.5-1.1-1-1.6-1.5c-1.8,0.3-1.5,2.7-2.2,4
		c-0.4,5-0.9,10-1,15c-0.2,0.1-0.4,0.4-0.6,0.5c-0.6-3-1.9-5.9-2.6-8.9c-0.3-0.9-0.5-1.8-0.7-2.7c-0.3-1-0.6-2.1-0.9-3.1
		c-0.7-1.8-0.4-4.1-1.9-5.5c-0.4,0-0.8,0.1-1.1,0.2c0,1.2-0.1,2.4-0.4,3.5c0,1.1,0,2.1,0,3.2c0,1.2,0,2.4,0,3.5c0,0.7,0,2,0,2.7
		c0,2.2,0.2,4.5-0.3,6.7c-0.3,4,0.1,8.1,0.2,12.1c0.1,0.5,0.3,1,0.4,1.5c0.5,0.3,1.1,0.5,1.6,0c0.1-2-0.3-3.9-0.4-5.9l-0.1-0.3
		c-0.5-4-0.4-8.2,0-12.3c0.1-0.7,0.2-1.3,0.2-2c-0.1-0.7-0.2-1.4-0.3-2.2c-0.1-0.5-0.2-1.5-0.2-2.1c-1.1-4,1-1.2,0.6-0.1
		c0.3,2.4,1.1,4.7,1.5,7c1,4,3.6,7.3,5.1,11.1c0.2,0.5,0.5,1.2,1.3,1.1c0.1-1.9,0-3.9,0.1-5.8c0-1.1,0-2.2,0.3-3.3
		c0.9-2.7,0.3-5.8,1.2-8.5c1.3,1.3,0.6,3.7,1.2,5.4c0.7,1.8,0.1,3.8,0.2,5.7c0.6,3.2,0.4,6.5,1.2,9.7c0.4,3.1-2.3,5.4-3,8.3
		c-0.1,0.4-0.2,0.7-0.4,1.1c-0.7,2.2-0.8,4.6-1.4,6.9c0,1.8,0.1,3.5,0,5.3c0,0.5-0.1,1-0.2,1.5c-1.1-2.7-1.5-5.6-2.4-8.3
		c-1.3-3.9-0.3-8.4-1.8-12.2c-0.1-0.9-1.8-1-1.7,0.2c-2.4,5.1-4.4,10.4-6.3,15.6c0,0.8-0.7-0.2-0.7-0.5c-1.1-4.9-2.9-9.7-3.6-14.8
		c-2.8-0.7-1.7,3-2.3,4.7c0,1.6,0.1,3.1,0.1,4.7c0,1.1-0.2,2.1-0.3,3.2c-0.2,1.5-0.4,3-0.6,4.5c0.1,1.4,0.1,2.7-0.2,4.1
		c-0.1,1.7-0.2,3.3-0.4,5c-0.1,0.8-0.1,1.5-0.2,2.3c0.1,1,1,1.5,1.9,1.8c0.2,0.9,0.5,2.3,1.7,2.2c0-1.8-0.4-3.6-0.5-5.4
		c-0.4-2-0.4-4,0-6c0-0.6,0.1-1.2,0.1-1.8c-1-0.6-0.7-2-0.1-2.8c0-1,0.1-2,0.1-3c0-1.1-0.3-4.1,0.6-2.1c0.8,2.8,2.2,5.3,3,8.1
		c0.5,1.3,1.3,2.4,2.2,3.4c0.7-0.1,0.9-0.9,1.1-1.4l0.1-0.4c0.1-0.6,0.4-1,0.6-1.5c1.1-3.2,0.7-7.2,2.4-10.1c0.1,1.8,0,3.6-0.1,5.4
		c0.1,2.4,0.1,4.8,0,7.2c0.1,0.6,0.2,1.9,0.2,2.5c0.5,1.2,0.2,2.5,0.1,3.7c0.2,0.7-0.1,1.7,0.6,2.2c1,0.2,1.9,0.3,2.9,0.4
		c2-1.5-0.1-4.5,0.4-6.4c-0.4-1-0.3-2.1-0.3-3.2c0-0.6,0-1.3,0-1.9c-0.7-1.9-0.4-4-0.4-6c1,1.6,0.7,3.8,1.5,5.6L164,78
		c1,3.2,1.6,6.5,2.8,9.7c0.4,0.7,1.9,0.3,1.1,1.3c-0.2,0.1-0.5,0.3-0.7,0.4c-0.3,0.9-1,1.6-2,1.6c-0.5,0.8,0.3,3.2-1.1,2.5
		c-0.3-0.7-0.4-1.4-0.9-1.9c-0.1,1.6,0.1,3.2,0.3,4.8c0.1,0.7,0.2,1.5,0.2,2.2c0.4,2.6,0.4,5.3,0,8c0,0.3-0.1,0.8-0.1,1.1
		c0,1.5-0.1,2.9-0.3,4.4c-0.2,2.1-0.7,4.1-0.9,6.2c1.2,0.3,2.2-0.3,2.1-1.6c0.4-1-0.5-3.2,0.7-3.4c-0.3,1.9,0.2,4.1-0.4,5.8
		c-0.8,0.7-1.8,1.2-1.4,2.6c-0.4,1.9-0.6,3.8-0.9,5.7c0,0.5-0.1,0.9-0.1,1.4c-0.7,0.9,1.3,4.6-0.7,4.3c-0.3,0-1,0-1.3,0
		c-0.7,1-0.5,2.3-0.7,3.5c0.6,0.3,1.2,0.3,1.9,0.2c0.1,1.2,0,2.5-0.1,3.7c0,0.7,0.1,2.1,0.1,2.7c0,1.7,0,3.5-0.1,5.2
		c-0.2-0.4-0.4-0.8-0.6-1.2c-0.6-1.4-1.2-2.9-1.6-4.4c-0.4-0.7-0.8-1.5-1.2-2.2c-1.1-1.5-2.3-3.1-3.5-4.6c-0.9-0.7-1.8-1.5-2.7-2.2
		c0.2-1.7,2-2.6,2-4.3c0.1-2,0.7-4.2-0.5-6c-0.3-0.4-0.5-0.9-0.8-1.3c-0.5-0.4-1.1-0.8-1.6-1.3c-1-0.6-2-0.8-3.1-0.4
		c-0.1-0.7,0.2-1.3,0.8-1.6c0-0.3,0-0.8,0-1c-1-1.4-1.3-3.1-1.5-4.8c1.6,1.9,1.4,5.5,4.3,6h0.4c0.3-0.4,0.6-0.7,0.8-1.2
		c-1.9-2.4-2.9-5.3-4.4-7.8c-0.7-1.7-1.6-3.3-2.2-5c-1.9-3.8-2.4-8.2-4-12.1c-0.6-1.8-0.7-3.7-1.2-5.5c-0.5-2-0.9-4-1.4-6
		c-0.5-1.4-1.1-2.7-0.8-4.2c2.1,0.6,2,3.4,2.9,5c0.2,0.5,0.2,1,0.2,1.6c0.8,2.1,0.9,5.6,3.5,6.3c0-0.6,0-1.3-0.1-1.9
		c-0.3-0.9-0.5-1.8-0.8-2.7c-0.5-1.2-0.9-2.4-1.2-3.6c-0.3-1-0.7-2-1-3.1c-0.3-0.9-0.8-1.7-0.8-2.7c0.5-0.2,1.1-0.4,1.6-0.6
		c-0.1-0.2-0.2-0.7-0.2-0.9c-1-1.2-3-1.1-3.4-2.9c-0.8-2.2-1.3-4.4-2.1-6.6c-0.4-1.2-0.7-2.3-1-3.5c-0.4-1.1-0.5-2.4-1.5-3.2
		c-0.2,0.5-0.4,1.1-0.6,1.6c-0.6-0.5-0.8-1.2-1.2-1.9c-1.1-0.5-1.4,0.8-1.7,1.6c-0.3,3.5-1.3,6.9-1.5,10.5c1.1,2.2-0.6,1.8-1.6,2
		c-0.9,0.2-1.3,0.7-1.4,1.4c-0.1-3.7-0.6-7.5-2.4-10.8c-0.9-0.7-2-1-3-1.4c1.3-1.1,3.1-1.8,4-3.3c0.1-0.8,0.7-1.3,1.5-1.6
		c0.8-0.8,1.4-1.8,2-2.8c0.4,1.6-0.1,3.3,0,4.9c0.2,1.1,1.4,1.4,2.2,0.7c-0.1-1-0.2-2.1-0.2-3.1c-0.2-0.6-0.4-1.3-0.3-1.9
		c0-0.3,0-0.9,0-1.2c-0.2-0.7-0.3-1.4-0.4-2.2c0.1-0.4,0.3-0.7,0.4-1.1c0.7-1.8,1.2-3.8,1.5-5.7c4.4,3.3,5.6,9,8.3,13.5
		c0.3,0,0.6,0,0.8,0s0.7,0,1,0c-0.3-1.7-0.6-3.3-0.4-5c0-2.5,0-4.9,0.1-7.4c0.4-1.2-0.2-3.1,0.8-4c-0.1,1-0.3,3.1-0.3,4.1
		c-0.1,2.4-0.1,4.9-0.1,7.3c0.1,0.6-0.3,1.9,0.8,1.6c1.6-1.6,0.5-4,0.9-6c0-1.4,0.3-2.7,0.3-4.1c0.2-0.6-0.4-1.9,0.3-2
		c1.3-0.1,2.6-0.4,3.9-0.4c0.1,4.7,1.9,9.1,2.6,13.8c0.1,1.1,1,2,2.3,1.6c0.8,0.8,1.2,3.9,2.6,2.4c-0.5-1.1-0.9-2.1-1.4-3.2
		c-1.3-2.9-1.7-6.1-2.5-9.2c-0.2-1.7-0.9-3.3-1-5c1.1-0.1,2,0.9,3,0.8c1.2-0.9-0.2-2-0.8-2.7c0.7-0.6,1.6-0.8,2.4-1.1
		c-0.4-1.1-2.1-1-3.1-1.2c-1,0.4-2.9,0.8-3.2-0.6c-1.2-4.5-2.8-8.8-3.5-13.4c-0.8-4.1,0.6-1.4,0.8-0.4c0.4,0.2,0.8,0.3,1.1,0.4
		c-0.1-2.7-1.3-5.2-2.3-7.7c-2-5.9-2.5-12.3-2.8-18.5h-1.1c-0.2,0.9,0.8,3.3-0.7,2.7c-0.5-0.8-0.5-1.8-0.5-2.7h-1.8
		c-0.6,3.9-0.6,7.9-1.3,11.8c-1.4-2.3-2.5-4.7-3.6-7.1c-0.4-1.3-0.5-2.6-0.6-3.9c0-0.2,0-0.6,0-0.8h-2.7c0,1.8,0,3.6,0.1,5.4
		c0.2,1.5,0.3,3,0.2,4.5c0,0.3,0.1,0.8,0.1,1.1s0.1,0.8,0.1,1c0.3,1,0.2,2.1,0.2,3.2c0.3,4.4,0.6,8.9,1.2,13.3c-0.2,0-0.5,0-0.7,0
		c0-0.1-0.1-0.3-0.1-0.4h-1.2l0,0c-1.2,0.3-2.1,0.9-3.1,1.6c-0.4-0.1-0.8-0.2-1.2-0.3c-0.2,1.7-0.5,3.3-0.7,5
		c-0.2,0-0.4-0.1-0.6-0.1c-0.6-3.8-2.2-7.3-2.5-11.2h0.3c0.7,0,2.1-0.1,2.8-0.1l0.1-0.3c-0.1-0.2-0.4-0.7-0.5-0.9
		c-0.4-1.3-1.9-1.3-3-1.7c-0.7-1.1-0.5-2.4-0.6-3.7c-0.6-2.2-0.2-4.6,0-6.8c0.1-0.6,0.1-1.2,0.2-1.7c0.3-2.3,0.2-4.5,0.6-6.8h-1.8
		c-3.7,5.2-5.4,11.5-7.6,17.5c-0.5,0-1.6,0-2.1-0.1c-0.6,0.1-1.4,0.1-1.4,0.9c-0.1,0.6-0.3,1.2-0.2,1.8c1,0.4,2.8,0.6,2.2,2
		c-0.5,1.2-0.4,2.6-1.3,3.6c-0.7-2.2-1.9-4.3-3.5-6c-0.6-0.1-1.1-0.2-1.7-0.4c0-0.5,0.4-0.9,0.7-1.3c0.4-0.9,1.2-1.3,2-1.7
		c1-1.9,2.9-3.7,2.1-6.1c-0.6-2-1.1-4.1-2.2-5.9c-1-0.3-1.6-1-2.1-1.9c-0.5-0.1-1.1-0.2-1.1-0.8c-0.6-0.2-1.3-0.4-1.9-0.5
		c-0.9,0.3-1.4-0.3-1.7-1.1h-2.2c0,1.4,0,2.8-0.1,4.2c-0.1,0.9,0.7,4.7-0.6,3.3c-0.7-1.9-1.1-4-2.6-5.5c-1,0.1-2,0.2-3,0.3
		c0.2-0.8,0.5-1.6,0.8-2.3H92c-1.3,3.3-2,6.7-2.7,10.2c-0.2,1.2-0.3,2.4-0.5,3.5C88,16,88.5,20.4,89,24.7c0.1,0.8,0.5,1.5,0.8,2.2
		c1,2.1-0.9,4.3-0.9,6.4c0,1.2-1.9-0.5-1.8,0.9c-0.6,3.3-0.7,6.6-1.5,9.9c-0.8-0.2-1.5-0.5-2.2-0.7c-0.8,0.6-0.1,1.7-0.2,2.6
		c-0.5,0-1,0-1.4,0c-0.5,0.1-1.1,0.2-1.6,0.4c0.2,1.3,1.1,2.3,2.5,1.7c0.6-0.1,1.3-0.3,1.9-0.4c-0.1,2-0.6,3.9-1,5.8
		c-0.2,0.4,0.1,1.6-0.6,1.5c-0.7,0.2-0.8-0.5-0.9-1c-0.5-0.4-0.7-1.1-1-1.7c-0.9,0-1.6-0.7-1.5-1.6c-0.1-0.2-0.3-0.5-0.5-0.7
		c-1.3-1.7-2.5-3.5-4.1-5c-0.7-1.7,0.9-2.7,1.3-4.1c0.3-1.6,1.5-2.7,2.1-4.1c0-1.1,0-2.2,0-3.3c-0.5-1.3-1.9-1.5-3-2.1
		c-0.3-0.8-0.8-1.5-1.3-2.2c-0.1-2-0.1-4.1,0-6.1c-0.1-1.5,0-3,0.2-4.5c0.4-2.9,0.9-5.7,1-8.6c0.5,0.9,0.5,2,0.6,3.1
		c0.4,0.5,0.8,1.1,1,1.7c0.3,0.7,0.4,1.5,0.5,2.3c0.2,2.2,1.4,4.1,1.7,6.3c0.2,0,0.7,0,1,0c0.3-1.4,0.4-3.1,1.2-4.3
		c0.8,4.9,0.1,10,1.3,14.9c0.9,0.3,1.3-0.2,1.2-1.1c0-1.2-0.1-2.4-0.1-3.5c-0.5-4.1-0.5-8.2-1-12.3c-0.1-2.9-0.7-6.4,0.9-8.9
		c-0.1,3.7,0.6,7.3,1,10.9c0.4,1.6,0.2,3.3,0.2,4.9c0.1,1.2,0.2,2.5,0.3,3.7c0.1,0.5,0.2,1,0.2,1.6c0,1.7,0.2,3.5,0.5,5.2
		c1.4-0.9,1.9-2.7,1.3-4.2c-0.4-1.6-0.4-3.2-0.6-4.8c-0.7-4.6-0.7-9.3-0.9-13.9c-0.5-1.3-0.2-2.7-0.2-4.1c-0.3-1.9-0.5-3.8-0.6-5.8
		c-0.2,0-0.5,0.1-0.6,0.1c-0.7,1.7-1.1,3.5-2,5.1c-0.1-1.2-0.1-2.3-0.2-3.5c-0.8-1.5,0.7-4.1-0.9-4.9c-0.5,0.9-0.9,1.9-1.2,2.9
		c-0.5,1.1-0.9,2.3-1.1,3.5c-0.1,0.7-0.3,1.4-0.6,2c0,0.9,0.5,3.6-0.6,2.3c-0.5-1.5-1.1-2.8-1.5-4.3c-0.4-1.4-0.7-2.9-1-4.3
		c-0.2-0.8-0.3-1.6-0.4-2.3h-2.2c-0.3,1.2-0.6,2.4-0.9,3.6c0.1,1.3-0.1,2.6-0.3,3.9c0,0.2-0.1,0.7-0.1,1c0,2.4-0.4,4.8-0.7,7.2
		c-0.1,0.9-0.2,1.8-0.3,2.8c0,1-0.1,3.2-0.1,4.2c-0.9,0.3-0.7-0.5-0.7-1.1c-0.5-1.5-0.9-3.1-0.9-4.7c0.2-0.5,0.5-0.9,0.8-1.3
		c0.5-1.9-2.3-0.9-2.4-2.5c-0.1-0.2-0.3-0.6-0.4-0.8c-0.4-0.9-0.6-1.8-0.9-2.7c-0.6-1.8-1-3.7-1.1-5.6c-1.8,0.1-1.6,2.8-2.6,3.4
		c-1-2.3-1.3-4.9-0.9-7.3h-3c-0.4,3.7-1.7,7.2-2.4,10.9c0,1.3,0.1,3.3-1.5,3.6c-0.1,2.2,0,4.4-0.1,6.6c-0.2,0-0.7-0.1-1-0.1
		c-0.9-2.7-3.8-4.2-6.3-5.1c0.1-1.1,1.3-1.9,1.9-2.7c0.1-0.1,0.3-0.3,0.4-0.4c0.3-0.4,0.6-0.8,0.9-1.2c0.1-2,0.6-4.1-0.2-6.1
		c-0.5-1-1.1-2.1-2.3-2.4c-0.8-0.1-1.2-0.7-1.2-1.5c-0.5-0.5-1.1-1.1-1.6-1.6h-1.7c-0.7,0.5-1.5,1.3-2.5,0.9c0,1.9-0.2,3.9-0.5,5.8
		c-0.3-0.3-0.5-0.5-0.7-0.9C38.4,1.8,36.8,0,35.7-2h-3.4c-1.2,0.9-2.3,1.9-3.2,3.1c-1.2,3-1.5,6.2-1.3,9.4c0.1,0.5,0.1,0.9,0.2,1.4
		c1.1,4.3,1.7,8.7,3.3,12.9c0.4,0.7,0.8,1.4,1.3,2.1c0.9-0.2,1.7,0.6,1.5,1.5c1.1,1.1,2.2-1,3.2-1.2c0.8-0.5,1.4-1.3,1.9-2
		c0.4-1.6,1.7-2.9,1.8-4.6c1.2,2.4,0.9,5.3,1.9,7.8c0.3,0.6,1,0.2,1.5,0.2c0,0.3,0,0.8,0,1.1c0,0.5,0,1,0,1.6c0.5,0,1,0,1.5,0
		c0-0.6,0-1.2-0.1-1.9c-0.2-1.5-0.3-3-0.3-4.4c0-0.2-0.1-0.5-0.2-0.6c-0.7-2.3-0.1-4.9-0.2-7.2v-0.3c1.6,0.5,2.3,2.4,3.4,3.6
		c0.7,0.3,1.2,0.9,1.5,1.6c1.3,1.5,3.3,3.4,1.9,5.6c0.4,0.3,0.9,0.7,1.3,1c1,0.2,0.6-1,0.9-1.6c0.9,1.1,1.5,2.5,2.2,3.7
		c0.9-0.2,1.4-0.8,1.3-1.7c-1.2-0.6-1.4-2-2.3-2.8c-0.9-0.7-1.1-1.6-0.5-2.6c1.2,1.2,1.3,4.1,3.4,3.9c0-2.5-2-4.2-3-6.4
		c0-1.2,0.2-2.3,0.4-3.5c0.1-0.8,0.2-1.6,0.7-2.2c1-0.1,2-0.1,3,0c0.8-0.1,1.6-0.3,2.4-0.3H62c0.2,1.6,0.6,3.1,1.1,4.6
		c1.1,3.7,1.3,7.6,2.5,11.2c0.7,0.4,1.3,0.9,1.9,1.4c0.2-0.1,0.4-0.4,0.6-0.6c-1.3-3.2-1.2-6.7-2.3-10c-0.8-2.2-1.3-4.4-1.4-6.7
		c1.6-0.5,2,1,2.3,2.3c0.8,3.2,1.6,6.5,2.5,9.7c0.3,1.3,0.8,2.8,0.4,4.1c-0.3,0.8-0.7,1.6-1.2,2.2c1.3,1.3,0,3.5-0.1,5
		c0,2.4,0.2,4.8-0.3,7.2c0,0.3-0.1,0.9-0.2,1.2c0,0.5,0.1,1,0.1,1.5c-1.4-0.5-0.5-2.2-0.5-3.2c0.3-2.8,0.1-5.6-0.4-8.4
		c-0.3-1.2-0.7-2.3-1.1-3.4c-1.1-1.8-1.9-5.2-4.6-4.1c-0.5-0.3-1-0.8-1.5-1.1c-0.9,1.4-1.3,3-1.6,4.6c-1.3,6-2.2,12.2-1.7,18.3
		c0.1,0.4,0.1,0.8,0.1,1.2c0.4,2.3,0.8,4.8,2.1,6.7c0.8,0.9,1.7,1.7,3,1.7c-0.2,0.5-0.7,0.8-1,1.2c-0.2,0.6-0.1,1.4-0.9,1.5
		c-0.4,0.5-0.3,1.6-1.1,1.4c-0.7-2-1.4-4.2-3.3-5.3c-0.8-1.2-0.9-2.9-1.2-4.3C54,54.2,54,53.2,54,52.3c-0.2-2.4-1-4.8-0.9-7.3
		c-0.7-1.8-0.1-3.8-0.1-5.7c-0.9-3.3-0.5-6.7-1.1-10c-0.1-0.5-0.1-1.1-0.1-1.6c-0.5-0.5-1.1-1-1.6-1.5c-1.8,0.3-1.5,2.7-2.2,4
		c-0.4,5-0.9,10-1,15c-0.2,0.1-0.4,0.4-0.6,0.5c-0.6-3-1.9-5.9-2.6-8.9c-0.3-0.9-0.5-1.8-0.7-2.7c-0.3-1-0.6-2.1-0.9-3.1
		c-0.7-1.8-0.4-4.1-1.9-5.5c-0.4,0-0.8,0.1-1.1,0.2c0,1.2-0.1,2.4-0.4,3.5c0,1.1,0,2.1,0,3.2c0,1.2,0,2.4,0,3.5c0,0.7,0,2,0,2.7
		c0,2.2,0.2,4.5-0.3,6.7c-0.3,4,0.1,8.1,0.2,12.1c0.1,0.5,0.3,1,0.4,1.5c0.5,0.3,1.1,0.5,1.6,0c0.1-2-0.3-3.9-0.4-5.9l-0.1-0.3
		c-0.5-4-0.4-8.2,0-12.3c0.1-0.7,0.2-1.3,0.2-2c-0.1-0.7-0.2-1.4-0.3-2.2c-0.1-0.5-0.2-1.5-0.2-2.1c-1.1-4,1-1.2,0.6-0.1
		c0.3,2.4,1.1,4.7,1.5,7c1,4,3.6,7.3,5.1,11.1c0.2,0.5,0.5,1.2,1.3,1.1c0.1-1.9,0-3.9,0.1-5.8c0-1.1,0-2.2,0.3-3.3
		c0.9-2.7,0.3-5.8,1.2-8.5c1.3,1.3,0.6,3.7,1.2,5.4c0.7,1.8,0.1,3.8,0.2,5.7c0.6,3.2,0.4,6.5,1.2,9.7c0.4,3.1-2.3,5.4-3,8.3
		c-0.1,0.4-0.2,0.7-0.4,1.1c-0.7,2.2-0.8,4.6-1.4,6.9c0,1.8,0.1,3.5,0,5.3c0,0.5-0.1,1-0.2,1.5c-1.1-2.7-1.5-5.6-2.4-8.3
		c-1.3-3.9-0.3-8.4-1.8-12.2c-0.1-0.9-1.8-1-1.7,0.2c-2.4,5.1-4.4,10.4-6.3,15.6c0,0.8-0.7-0.2-0.7-0.5c-1.1-4.9-2.9-9.7-3.6-14.8
		c-2.8-0.7-1.7,3-2.3,4.7c0,1.6,0.1,3.1,0.1,4.7c0,1.1-0.2,2.1-0.3,3.2c-0.2,1.5-0.4,3-0.6,4.5c0.1,1.4,0.1,2.7-0.2,4.1
		c-0.1,1.7-0.2,3.3-0.4,5c-0.1,0.8-0.1,1.5-0.2,2.3c0.1,1,1,1.5,1.9,1.8c0.2,0.9,0.5,2.3,1.7,2.2c0-1.8-0.4-3.6-0.5-5.4
		c-0.4-2-0.4-4,0-6c0-0.6,0.1-1.2,0.1-1.8c-1-0.6-0.7-2-0.1-2.8c0-1,0.1-2,0.1-3c0-1.1-0.3-4.1,0.6-2.1c0.8,2.8,2.2,5.3,3,8.1
		c0.5,1.3,1.3,2.4,2.2,3.4c0.7-0.1,0.9-0.9,1.1-1.4l0.1-0.4c0.1-0.6,0.4-1,0.6-1.5c1.1-3.2,0.7-7.2,2.4-10.1c0.1,1.8,0,3.6-0.1,5.4
		c0.1,2.4,0.1,4.8,0,7.2c0.1,0.6,0.2,1.9,0.2,2.5c0.5,1.2,0.2,2.5,0.1,3.7c0.2,0.7-0.1,1.7,0.6,2.2c1,0.2,1.9,0.3,2.9,0.4
		c2-1.5-0.1-4.5,0.4-6.4c-0.4-1-0.3-2.1-0.3-3.2c0-0.6,0-1.3,0-1.9c-0.7-1.9-0.4-4-0.4-6c1,1.6,0.7,3.8,1.5,5.6l0.1,0.3
		c1,3.2,1.6,6.5,2.8,9.7c0.4,0.7,1.9,0.3,1.1,1.3c-0.2,0.1-0.5,0.3-0.7,0.4c-0.3,0.9-1,1.6-2,1.6c-0.5,0.8,0.3,3.2-1.1,2.5
		c-0.3-0.7-0.4-1.4-0.9-1.9c-0.1,1.6,0.1,3.2,0.3,4.8c0.1,0.7,0.2,1.5,0.2,2.2c0.4,2.6,0.4,5.3,0,8c0,0.3-0.1,0.8-0.1,1.1
		c0,1.5-0.1,2.9-0.3,4.4c-0.2,2.1-0.7,4.1-0.9,6.2c1.2,0.3,2.2-0.3,2.1-1.6c0.4-1-0.5-3.2,0.7-3.4c-0.3,1.9,0.2,4.1-0.4,5.8
		c-0.8,0.7-1.8,1.2-1.4,2.6c-0.4,1.9-0.6,3.8-0.9,5.7c0,0.5-0.1,0.9-0.1,1.4c-0.7,0.9,1.3,4.6-0.7,4.3c-0.3,0-1,0-1.3,0
		c-0.7,1-0.5,2.3-0.7,3.5c0.6,0.3,1.2,0.3,1.9,0.2c0.1,1.2,0,2.5-0.1,3.7c0,0.7,0.1,2.1,0.1,2.7c0,1.7,0,3.5-0.1,5.2
		c-0.2-0.4-0.4-0.8-0.6-1.2c-0.6-1.4-1.2-2.9-1.6-4.4c-0.4-0.7-0.8-1.5-1.2-2.2c-1.1-1.5-2.3-3.1-3.5-4.6c-0.9-0.7-1.8-1.5-2.7-2.2
		c0.2-1.7,2-2.6,2-4.3c0.1-2,0.7-4.2-0.5-6c-0.3-0.4-0.5-0.9-0.8-1.3c-0.5-0.4-1.1-0.8-1.6-1.3c-1-0.6-2-0.8-3.1-0.4
		c-0.1-0.7,0.2-1.3,0.8-1.6c0-0.3,0-0.8,0-1c-1-1.4-1.3-3.1-1.5-4.8c1.6,1.9,1.4,5.5,4.3,6h0.4c0.3-0.4,0.6-0.7,0.8-1.2
		c-1.9-2.4-2.9-5.3-4.4-7.8c-0.7-1.7-1.6-3.3-2.2-5c-1.9-3.8-2.4-8.2-4-12.1c-0.6-1.8-0.7-3.7-1.2-5.5c-0.5-2-0.9-4-1.4-6
		c-0.5-1.4-1.1-2.7-0.8-4.2c2.1,0.6,2,3.4,2.9,5c0.2,0.5,0.2,1,0.2,1.6c0.8,2.1,0.9,5.6,3.5,6.3c0-0.6,0-1.3-0.1-1.9
		c-0.3-0.9-0.5-1.8-0.8-2.7c-0.5-1.2-0.9-2.4-1.2-3.6c-0.3-1-0.7-2-1-3.1c-0.3-0.9-0.8-1.7-0.8-2.7c0.5-0.2,1.1-0.4,1.6-0.6
		c-0.1-0.2-0.2-0.7-0.2-0.9c-1-1.2-3-1.1-3.4-2.9c-0.8-2.2-1.3-4.4-2.1-6.6c-0.4-1.2-0.7-2.3-1-3.5c-0.4-1.1-0.5-2.4-1.5-3.2
		c-0.2,0.5-0.4,1.1-0.6,1.6c-0.6-0.5-0.8-1.2-1.2-1.9c-1.1-0.5-1.4,0.8-1.7,1.6c-0.3,3.5-1.3,6.9-1.5,10.5c1.1,2.2-0.6,1.8-1.6,2
		c-1.5,0.3-1.6,1.6-1.6,3c0.7,0,2,0.1,2.7,0.1v0.4c0.1,3.2-0.5,6.3-0.5,9.5c-0.8-1.5-1.3-3.1-1.9-4.7c-1.3-2-2.7-4-5.1-4.8
		c-0.5-0.2-1-0.5-1.5-0.8c-0.2-0.9,0.9-1.1,1.4-1.6c1.2-0.7,1.9-1.9,2.6-3.1c1-1.6,0.3-3.5,0.3-5.2c-0.5-1-0.7-2.2-1.7-2.8
		C2.7,62,0.7,62.7-1,62.9v3.6c1.1-0.8,2.2-1.6,3.5-2c2.3,1.3,2.2,5.2-0.3,6.2c-0.7,1.2-1.8,1.8-3.2,1.6v5.8v12.7
		c1,0.6,1,2.8,3.2,1.6c-0.3-3.3-1.3-6.4-1.7-9.7C0.2,81.2,0,79.6-0.2,78v-0.4c-0.2-1.1,0.7-0.7,1.3-0.3c0.1,0.1,0.3,0.2,0.4,0.3
		c0.9,0.5,1.7,1,1.8,2.1c0.1,0.7,0.6,1.2,1.1,1.6C6,83.7,7,86.5,8.2,89.2c0.5,1,0.8,2.8,2.2,2.8c0.6-0.4,0.7-1.1,0.9-1.7
		c0.4-0.1,0.9-0.2,1.3-0.3c0.1-4.3,0.6-8.5,0.5-12.7c0-0.5,0-1.1,0-1.6c0.5,0,1,0,1.5,0c0,1.1-0.1,2.1-0.3,3.2
		c-0.1,0.6-0.1,1.2-0.2,1.8c0.2,3.3,0.1,6.6,0,9.9c0.1,0.5,0.5,0.8,0.9,1.1c0.1-2.6,0-5.3,0-7.9c0-1.4,0.2-2.8,0.4-4.2
		c0.3-1.4-1.1-4.5,1.9-3.1c1.9,3.6,2.1,7.8,3.2,11.7c0.9,1.9-0.2,4-0.6,5.9c-0.2,0.9-0.3,1.9-0.5,2.8c-0.3,1.9-0.6,3.9-0.6,5.9
		c-0.8-1.9-1.5-3.7-2.4-5.6c-0.4-0.8-0.9-1.6-1.5-2.3c-0.6-0.9-0.6-2.1-0.9-3.2c-0.5,0-1.1-0.1-1.4,0.4c-0.3,2.8,0.5,5.6,0.5,8.4
		c0.4,1,0.3,2.1,0.3,3.2c0,0.7,0,2.1,0,2.8c-0.4-0.3-0.8-0.5-1.2-0.8c-1.8-0.2-3.8-0.1-5.5-0.7c-0.8-2.2-0.9-4.7-1.2-7
		c-0.3-1-0.2-2.1-0.2-3.1c-0.9-1.6,0-4-1.5-5.2c-0.8,2-1.3,4.2-2,6.3c0,0.2-0.1,0.5-0.2,0.7c-0.9,2.9-1.1,5.9-2.1,8.7v11.9h0.3
		c1.2-2.9,0.9-6.3,1.9-9.1c0.8-0.4,1.7-0.5,2.8-0.3c0.3,0.2,0.6,0.5,0.8,0.8c0.9,2.6,0.9,5.5,2,8.1c0.7,1.8,1.4,3.8,0.4,5.6
		c-0.1,1.1-0.4,2.1-0.8,3.1c-0.2,0.9-0.4,1.8-0.8,2.7c-0.4,2-0.9,3.9-1,5.9c-1.3-1.7-1.2-4.1-2-6.1c-0.6-0.7-0.1-5.1-1.5-3.7
		l-0.1,0.3c-1-0.4-1.1-1.9-2.1-2.5v2.3c0.3,0.3,0.5,0.6,0.7,0.9c0.8,1.8,1.1,3.8,1.2,5.8c0,0.7,0.1,2.2,0.1,2.9
		c0.1,2.9,0,5.7-0.1,8.6c0.1,2.1,0.1,4.3,0.2,6.5c0.1,0.7,0.2,1.4,0.3,2.1h1.3c-0.3-1.7,0-3.5-0.1-5.2c-1-2.1-0.1-4.6-0.5-6.9
		c-0.4-1-0.2-2.2-0.2-3.3c-0.1-1.3-0.1-2.6,0-3.9c1.1,2.6,2.2,5.2,2.6,8c0,1.1,0.2,2.1,0.6,3.1c0.1,0.8,0.6,1.3,1.4,1.5
		c-0.2-0.9-0.1-1.8,0.3-2.7c0.4-1,0.4-2,0.5-3.1c0.1-2.5,1.1-4.8,1.3-7.3c0.5-0.3,1.2-0.9,0.9,0.2c0.7,3.9,1.7,7.8,2.5,11.7
		c0,0.1,0.1,0.3,0.1,0.4c0.5,2.5,1.2,5,1.7,7.5h2.3c-0.5-1.8-1.2-3.5-1.6-5.4c-0.7-2.2-1.2-4.4-1.7-6.7c-0.3-1.2-0.6-2.3-0.6-3.5
		c-1.3-3.1-1.7-6.5-1.6-9.8c-0.1-1.1-0.3-2.1-0.2-3.2c0.1-3.2-0.9-6.3-1.9-9.3c-0.3-0.9-0.5-1.8-0.7-2.8l-0.1-0.3
		c0.1-0.2-0.1-0.8-0.1-1.4c0.4,0.1,0.9,0.3,1.3,0.5c0.6,0.2,1.2,0.3,1.8,0.3c-1.1-2.2,0.7-1.7,1.6-1.9H13c0.4,1.8,0.6,3.6,0.6,5.4
		c0.6,0.8,0.6,1.7,0.2,2.8c0,0.2,0,0.5,0,0.7c-0.7,1.3,1.1,4.1,2.4,2.3c-0.3-4.2-1-8.3-0.8-12.5c0-0.6-0.1-1.2-0.2-1.8
		c-0.5-1.7-0.1-3.5-0.2-5.3c0.7,1.2,1,2.6,1.5,3.9c0.4,1.4,0.9,2.7,1.4,4.1c1.1,1.7,0.8,5.3,3.1,5.8c0.7-4.8,1.4-9.7,2.2-14.5
		c1,1.8,0.6,4,1,5.9c0.5,2,1.1,4,1.6,6c0.7,1.9,0.8,3.9,1.5,5.8c0.3,0.7,0.6,1.4,0.7,2.1c0,0.3,0.1,0.8,0.2,1.1
		c0.6,0.8,0.7,1.7,0.3,2.8c0.1,2.1-2.9,3.4-2.1,5.5l0.4-0.2c0.4-0.6,0.8-1.2,1.5-1.6c0.1-0.2,0.4-0.5,0.5-0.7
		c0.1,3.7,0.2,7.4-0.3,11.1c-0.1,0.7-0.1,1.5-0.1,2.2c0,1.9,0.1,3.9,0,5.8c-0.1,2-0.4,4-0.6,6c-0.1,0.4-0.2,0.7-0.3,1.1h4.2
		c-0.1-1.1-0.1-2.3-0.2-3.5c-0.2-1.5-0.3-3-0.2-4.5c-0.1-0.5-0.1-0.9-0.2-1.4c-0.6-1.8-0.2-3.8-0.3-5.6c0-0.2,0-0.5,0-0.7
		c1.4,0.7,2.3,1.9,3.2,3.1c0.1,0.1,0.2,0.3,0.3,0.4c2,3.4,3.1,7.2,4.8,10.8c0.2,0.4,0.4,0.9,0.7,1.3h2.3c-0.2-0.7-0.4-1.4-0.3-2.1
		c0.5,0.6,0.9,1.3,1.2,2.1h2.2c0-0.1,0-0.2,0-0.3c-0.4-1.2-0.2-2.4-0.3-3.6c0-0.6,0-1.2-0.1-1.8c-0.6-1.6-0.2-3.3-0.2-4.9
		c0.5-1.5-0.4-3.6,1-4.7c0.1,2.1,0.1,4.2,0,6.3c0,1.1,0.1,2.1,0.1,3.2c0,1.3-0.1,2.6-0.2,4v0.3c0.1,0.5,0.1,1.1,0.2,1.7h1.8
		c0.1-0.4,0.1-0.9,0.1-1.4c-1.1-1.5-0.1-3.7-0.3-5.4c-0.2-2-0.5-4-0.4-6c1.5-1,3.2-1.6,4.9-2.1c1.4,3.4,2,7.1,3.1,10.6
		c-0.1,1.4-0.5,2.8-0.3,4.2l0,0h0.7c0.3-0.6,1-0.2,1.5,0h0.8c-0.1-1.3-0.1-2.6-0.5-3.9c-0.1-0.4-0.2-0.8-0.2-1.2
		c1.1-3.3,2.3-6.7,2.5-10.3c0.2-1.5,0.4-3,0.3-4.6c0.1-0.6-0.3-1.5,0.5-1.8c0,0.5,0,1.5,0,2c-0.1,2.2,0,4.4-0.3,6.6
		c-0.3,2.6-0.7,5.2-1.2,7.8c-0.1,0.8-0.1,1.6-0.2,2.4c1.5,1.3,1.7-1.8,1.7-2.9c0-0.5,0-1.1,0.2-1.6c0.5-1.2,0.6-2.6,0.6-3.9
		c0-0.5,0-0.9,0.1-1.4c-0.1-1.6-0.1-3.3,0-4.9c0.3,0.5,0.6,1,0.6,1.6c0.1,1.9,0.7,3.7,0.9,5.6c0.3,1,0.6,2,0.9,3
		c0.6,0.1,1-0.4,1.3-0.9c0.7-3.5,1.4-7,1.4-10.5c-0.1-1.8,0.3-3.5,0.4-5.2c0.4-1,2.6-0.6,1.3,1.3c0.4,3.6,1.5,7.1,2.1,10.7
		c0.2,1.8,0.3,3.5,0.5,5.3c0.1,0.2,0.1,0.7,0.2,1c0.1,0.5,0.2,1,0.3,1.5c0.3,1.5,0.7,2.9,1.1,4.4h1.1c0-0.1-0.1-0.2-0.1-0.3
		c1.2,0.5,3,0,1.9-2c-1.1-2.8-1.9-5.6-2.4-8.6c-0.1-0.6-0.2-1.2-0.3-1.8c-1.7-4.4-2.4-9.2-3.6-13.8c-0.3-1.3-0.4-2.6-0.7-3.9
		c-0.3-0.8-0.6-1.6-0.8-2.5c-1.1,1.9-0.8,4.3-1.7,6.2c-0.2,2-0.9,4-1,6c-0.7-1.4-1.2-3-1.5-4.6c-0.9-1.8-1.2-4.3,0.7-5.3
		c0.6-3.4,1.4-6.8,1.4-10.3c-0.2-2-0.2-4,0.2-6c0-0.3,0.1-0.8,0.1-1.1l0.1-0.4c1,0.1,2.9,0.2,3.9,0.3c0.9,2.2,1,4.7,1.9,7
		c0.3,0.7,0.4,1.5,0.6,2.2c0.3,1.1,0.3,2.2,0.4,3.3c0.3,1.3,0.9,2.6,1.7,3.6c0.5,0,1,0,1.6-0.1c-0.1-1.4-0.3-2.8-0.5-4.2
		c-0.3-1.5-0.7-2.9-1.2-4.3c-0.6-1.9-1.1-3.9-1.6-5.8c-0.1-0.4-0.2-0.8-0.2-1.2c0.8,0,1.8-0.2,1.9,0.8c0.6,2.5,1.6,4.8,2.1,7.3
		c0.2,0.7,0.4,1.3,0.6,2c0.2,1.3-0.5,2.8,0,4c0.5-0.7,1.2-1,2-0.4c1.6-1-0.3-3.3,1-4.1c-1.2-0.8-0.5-2.2-0.3-3.4
		c0.6-2.5,0.6-5.1,0.9-7.7c0.2-1.3,0.5-2.7,0.6-4c0.1-1-0.2-2.2,0.8-2.7c0.2,1.3,0.3,2.6,0.6,3.9c0,0.2,0.1,0.6,0.2,0.8
		c0.6,2.4,0.2,5.5,2.3,7.1c1.1-2.7,1.5-5.8,3.1-8.3c1.1,5.5,1.4,11.2,2.4,16.7c-0.7,0.2-1.4,0.4-1.8,1c-0.2,1.7,0.3,3.4,0.2,5.1
		c-0.6-0.4-0.5-2.6-1.1-1.7c-0.1,1.2,0.5,2.7-0.3,3.7c-0.2,0.2-0.4,0.4-0.7,0.6c0.2,0.3,0.4,0.6,0.5,0.9c0.3,1.7,0.1,3.4,0,5.2
		c-0.8-2.6-1.7-5.1-3.1-7.5c-0.6-0.5-1.2-1.1-1.8-1.6c-1.1,0.1-1-1.2-1.3-1.9c-0.5,0-1-0.1-1.5-0.1c-3.2,1.5-3.5,5.5-4.7,8.4
		c-0.3,3.8-1.2,7.6-0.8,11.5c-0.1,3.7,0.7,7.5,2.8,10.6c0.5,0.6,1,1.2,1.9,1.3c0.5,0.1,1,0.2,1.6,0.3h0.6c2.4-1.2,4.1-3.7,4.6-6.3
		c0.6-1.9,0.2-4.3,1.5-6c0.1,1.3,0,2.6,0,4c0.4,0.9,0.3,1.9-0.2,2.8c-0.1,1.8-0.1,3.7-0.1,5.5h0.8c0,0,0,0,0.1-0.1
		c0.2-0.7,0.5-1.5,0.7-2.2c-0.1-3-0.1-6,0-9c0.2-1.3-1.2-4.6,1.1-4c0.1,2.2,0,4.4,0,6.6c0,1.8,0,3.6,0,5.4c0.5,0.1,1,0.1,1.5,0.1
		c0.9-2,0.2-4.2,0.3-6.2c-0.3-2-0.4-4-0.3-6h0.4c0.7,0.4,1.2,0.9,1.5,1.6c2.1,3.8,3.4,8,5.6,11.6c0.5,0.6,0.8,1.3,1.1,2h2.2
		c-0.1-0.2-0.2-0.4-0.3-0.6c-2.7-5.5-4.7-11.6-9-16.2c0.1-1.2,1.6-1.6,2-2.7c2.3-2.4,2.4-6,1.1-8.9c-0.7-1.2-1.7-2.3-3.1-2.3
		c-2.3,2-2.9-3.3-1.1-2.5c0.5,0,1.2,0.1,1.5-0.4c-0.2-2.1-0.4-4.1-0.3-6.2l0.3,0.1c0.5,2.9,0.7,5.9,2.1,8.6c0.1-0.6,0.2-1.8,0.3-2.4
		c0-8.2-3.4-16-3.3-24.1c-0.8-0.9,0-3.1-1.3-3.6c-0.5,0.8,0,2.8-1.2,2.7c-0.2-1.3-0.6-2.4-1.1-3.6c-0.3-1.9-0.4-3.7-0.7-5.6
		c-0.2-0.5-0.3-1.1-0.4-1.6c-0.3-1.1-0.6-2.2-0.7-3.4c0.2-1.1-1.6-4.8,0.9-4.1c1,0.6,1.4,1.5,1.1,2.7c0.2,1.6,0.5,3.2,0.9,4.7
		c0.2,0.6,0.3,1.1,0.3,1.7c0.4,1.9,0.6,3.8,1.2,5.6c1,0.9,1.1,2.4,1.4,3.6c0.2,0.4,0.4,0.8,0.6,1.2c0.7-0.3,1.4-0.9,2.2-0.9
		c-0.3-1.6-0.7-3.1-1.5-4.5c-1.8-3.2-2.4-6.9-3.1-10.5c-0.9-1.7,0.9-1.9,1.3-3.1c-0.1-0.2-0.2-0.5-0.2-0.7c-1-1.2,1.4-1.2,0.8-2.4
		c-0.1-1.1-1-0.9-1.8-0.7c-0.2,0.1-0.6,0.2-0.8,0.2c-0.1-2.9,0-5.7,0-8.6c0-1.8,0-3.7,0-5.5c-0.2,0-0.8,0.1-1,0.1
		c-1,1.8-2.2,3.6-2.6,5.7c-1.7,0.3,0-3.4-2.2-3.4c-2.2,2.6-2.9,6.1-3.8,9.3c-0.4,0.5-0.3,1.6-0.9,1.8c-1.1,0.1-3,0.3-2.6,1.9
		c-0.7,0.5-1.7,1-1.4,2.1c1.1,0,2.1-0.2,3.2-0.3c-0.1,2.8-1,5.4-1.5,8.1c0,1.2,0.3,3.1-0.9,1.7c-1.1-0.8-1.5-2.2-2.5-3.2
		c-0.6-1-1.6-1.7-1.8-2.8c-0.7-0.6-1.3-1.3-2-2c-1-0.4-1.4-1.5-1.8-2.4c0.8-2,1.3-4.2,2.5-6c1-2.8-1.3-5.2-2.2-7.6
		c-0.6-0.3-1.2-0.6-1.6-1.2c-0.3-0.5-0.8-1.1-0.4-1.6c0.6-1,0.9-2.1,1.5-3.1c0,0.3,0,0.9,0.1,1.2c0,0.7-0.1,2.1-0.1,2.8
		c0.1,0.2,0.2,0.5,0.2,0.7c2.2,1.3,1.7-0.4,1.9-1.4c0.4,0,0.8,0.1,1.2-0.1c0-0.7-0.1-2.1-0.1-2.8c0-1,0-2.1,0-3.1c0-2.1,0-4.2,0-6.3
		c0.9-0.3,1.5,0.3,1.5,1.2C72.7,48,73.5,49,74,50c1.7,2.8,2.9,5.8,4.8,8.5c0.6,0.1,1.4,0.1,1.8-0.4c-1.4-2.4-2.8-4.8-3.9-7.4
		c0.2,0,0.5,0.1,0.7,0.1c1.5,2.1,2.2,5,4.6,6.3c0.2,0.5,0.5,1.6,0.6,2.1c1.5-0.7,0.9-3.1,1.6-4.4c0.5-2.4,0.8-5,1.5-7.4
		c0.5-0.7,1.4-0.8,2.6-0.3c1,0,2,0,3.1,0c0.1,0.5,0.3,1,0.4,1.5c0.5,3.5,1.4,6.9,2.4,10.2c0.2,1.1,1.5,1.2,2.4,1.1
		c-0.7-4.4-2.7-8.5-3.1-12.9c0.2,0,0.6,0,0.7,0c0.9,0.3,1.3,1.5,1.2,2.4c-0.1,0.6,0,1.1,0.3,1.6c0.3,2.3,0.7,4.7,1.2,7
		c0.3,1.8-0.5,3.4-1,5.1c-0.3,1.3-0.6,2.6-0.8,3.9c-0.1,1.4-0.2,2.8-0.4,4.2c-0.3,2-0.5,4-0.7,6v0.3c0,0.3-0.1,0.8-0.1,1
		c0.1,1.4,0,2.7-0.3,4.1c0,1.4,0.1,2.8,0.4,4.2c0.2,0,0.5,0,0.6,0c1.3-5.1,1.3-10.4,2-15.6c0-0.9,0.4-3.2,1.5-2
		c1,2.7,2.3,5.4,2.8,8.3c0.2,0.8,1.3,0.8,1.8,0.4c0.1-3.8,0.7-7.6,1.6-11.3c0.2,0,0.5,0,0.7,0c0.7,4,1.9,8,2.4,12
		c0.2,2.5,0.9,4.9,1.5,7.4c-0.6,1.3-2.5,1.9-2.6,3.4c1.5-0.1,1.3,1.2,1.1,2.4c0.1,1.9,0.1,3.8-0.2,5.6c0,0.6-0.1,1.2-0.1,1.9
		c0,1.7,0,3.4,0,5.1s0,3.4,0,5.1c0,0.3,0.1,0.8,0.1,1.1c0.7,2.3,0.1,4.8,0.1,7.2c0.2,0.5,0.4,1,0.6,1.6c0.5-0.7,1-1.5,1.6-2.2
		c-0.2-2.7,0-5.3-0.2-8c-0.7-2.3-0.1-4.8-0.3-7.2c0.1,0.1,0.4,0.2,0.5,0.3c3.6,3.4,4.4,8.8,5.2,13.5c-0.5,1.3,0.6,1.7,1.2,2.3
		c0,1.4-1.1,3-0.3,4.2c1.3,2.8-0.1,6.4,0.3,9.5c0.1,0.5,0.2,0.9,0.2,1.4c0.1,0.6,0.2,1.8,0.2,2.4c0,0.6,0.1,1.3,0.1,1.9
		c0.6,1.6,0.1,3.5,0.3,5.2c0,1.7,0,3.4,0,5.1c-1-0.6-0.5-2.4-0.7-3.5c-0.6-2.4-1.5-4.8-1.5-7.3c0.2-0.1,0.5-0.4,0.7-0.6
		c0.1-0.6,0.2-1.3-0.1-1.8c-0.6-0.2-1.2-0.3-1.8-0.6c-1-2.2-1.8-4.5-2.6-6.8c-1.1-2.3-1.2-5.2-2.9-7.2l-0.4,0.1
		c-0.2,0.5-0.4,1-0.6,1.5c-0.6-0.7-0.7-1.8-1.9-1.6c-0.1,0.2-0.3,0.7-0.4,1c0,0.5-0.1,1-0.2,1.5c-0.1,0.9-0.3,1.7-0.6,2.6
		c0,0.5,0,1.1,0,1.7c0,1.1-0.2,2.1-0.3,3.1v0.3c0.6,2.2-0.6,3.5-2.8,2.7c-0.7,0.2-1.3,0.4-2,0.6c0.9,0.8,2.2,0.7,3.3,1
		c1.6-0.2,0,2.2,0.5,2.6c-0.6,3-1.4,6-1.8,9.1c0,1.2-0.3,2.6,0.9,3.2c1.6-0.5,0.9-2.6,1.3-3.8c0.3-2.1,0.7-4.3,1-6.4
		c0.3-1.4,0.7-2.8,0.8-4.3c0.5,0.1,1.4,0.1,1.9,0.2c1,0.1,2,0.3,3,0.7c0.9,3.9,1.6,7.9,3.1,11.7c0.5,1.2,0.7,2.6,1.1,3.8h2.1
		c-0.5-1.4-1.2-2.8-1.6-4.2c-0.3-0.9-0.4-1.9-0.6-2.8c-0.5-1.8-1.6-3.6-1.2-5.6c1,1.7,1.1,3.6,1.6,5.5c0.2,0.7,0.4,1.3,0.6,2
		s0.5,1.4,0.8,2.1c1.1,0,2.2,0.5,1.4,1.7c0,0.5-0.1,0.9-0.1,1.4h2.1c0-1.2-0.2-2.4-0.1-3.6c0-1.8,0-3.7,0.1-5.5
		c-0.2-1.9-0.1-3.8-0.1-5.7c0-1.1,0-3.2,0-4.3h0.4c0,1.1,0,3.2,0,4.3c0,3.7,0.6,7.3,0.3,11c0,0.2,0,0.6,0,0.7
		c0.1,0.5,0.2,1.1,0.5,1.5c0.7-0.4,1.2-1.1,1.1-1.9c-0.8-0.7-0.9-1.6-0.3-2.8c-0.1-1.1-0.1-2.3-0.2-3.4c-0.4-1.7-0.2-3.4-0.2-5.1
		c0-1.1,0-2.2,0.1-3.3c0.9,2.1,1.3,4.3,2.4,6.3c0.6,0.6,1.4,0.6,2.1,0c0.7-1.3,1-2.8,1.3-4.3c0.2-1.8,0.8-3.6,0.9-5.5
		c0.7,1.9,0.9,3.9,1.4,5.9c0.7,4.1,1.7,8.1,2.5,12.1c0.2,0.6,0.4,1.3,0.7,2c0.5,0.6,1,1.2,1.6,1.6h0.1c0.1-3.1-0.7-6.2-0.9-9.3
		c-0.3-1-0.5-1.9-0.7-2.9c-0.8-3.1-1.4-6.1-2.1-9.2c-0.1-0.5-0.2-1-0.4-1.5c-0.5-1.7-0.9-3.5-0.6-5.3c1.4,1.4,0.9,3.8,2,5.5
		c0.4,0.8,0.5,1.6,0.7,2.5c0.8,3,1.4,6.1,2.3,9c0.4,0,0.6-0.1,0.7-0.3c0.1,0.9,0.2,1.9,0.3,2.8c0.4,2.8,1.6,5.3,2.9,7.8
		c0,0.4,0.2,0.7,0.4,0.9h3.1c2.1-1.8,3.3-4.3,4.6-6.7c0.8-2.2,1.4-4.6,1.3-7c-0.2-1.4-0.5-2.8-0.6-4.2c-0.2-0.9-0.5-1.8-0.6-2.7
		c-0.8-2.3-1.6-4.6-2.9-6.7c-0.8-0.4-1.6-0.9-2.3-1.5c-1.2-0.4-0.8-2-1.2-2.9c-1.6,0.8-1.5,3.3-3,4.5c-0.5,0.8-1.1,1.6-1.7,2.4
		c-0.4,0.9-1,1.8-1,2.8c2.4,1.5,1.1,4.9,0.9,7.2c0,0.3-0.1,0.5-0.1,0.8c-0.3-1.3-0.5-2.6-0.7-3.9c-1-3.6-2-7.1-3.2-10.6
		c-0.4-1.3-0.9-2.7-1.5-3.9c-0.2,0.3-0.5,0.5-0.7,0.8c0,0.6,0,1.3,0,1.9c-1.8,0.1-0.4-2.9-1.6-3.9c-0.9,0.2-0.7,1.2-0.7,1.9
		c0.8,1.8,0.2,3.8,0,5.7c-0.1,2.1-0.4,4.1-0.5,6.2c-1.8-0.9-2.1-3.5-3.6-5c-1.3-2.5-3.1-4.8-4.6-7.1c-0.5-0.9,0-2,0.2-2.9
		c-0.2-1-0.5-2-0.7-2.9c-0.1-0.7-0.2-1.3-0.3-2c-0.6-1.6-1.3-3.1-1.5-4.8c1.4,1.5,1.7,3.8,2.8,5.5c0.1,0.1,0.2,0.3,0.3,0.4
		c1.3,1.7,0.8,4.9,3.2,5.5c0-0.5,0-1,0.1-1.6c-0.6-2.2-1.8-4.2-2.8-6.2c-1.1,0.5-2.1-1.8-0.8-1.6c-0.9-1.7-1.9-3.3-2.8-5
		c-0.6-0.4-1.1-0.9-1.5-1.5c-0.5-0.3-2-0.7-1.2-1.4c0.4-0.4,0.8-0.7,1.2-1.1c0-0.8,0.8-1.7,1.6-1.4c1.2-0.8,1.7-2.4,2.1-3.7
		c-0.2-2-0.4-4.2-1.7-5.8c-1.1-1.1-3.5-0.8-3.7-2.6c-1-3.6-2.1-7.2-2.5-10.9c-0.3-4.3-2-8.3-2.4-12.5c1.1-0.2,1,1.2,1.3,1.9
		c1.5,6.6,2.5,13.3,3.8,19.9c0.1,0.5,0.5,0.8,0.8,1.2c0.5-0.1,1.1,0,1.5-0.5c-0.5-2.5-1.4-4.9-1.8-7.5c-0.7-3-0.6-6.2-1.3-9.2
		c-1.7-3-1.5-6.7-2.8-9.8c-0.5,0.2-0.9,0.5-1.4,0.8c-0.2,0.5-0.3,1.1-0.5,1.6c-0.8,0.1-1.2-0.7-1.8-1.1c-1.3,2.8-2.1,5.9-2.8,8.9
		c-2.7-4.4-2.9-9.9-3-14.9c0-0.6-0.1-1.3,0-1.9c0-0.8,0.2-1.6,0.4-2.4c0.1-1.2,0-2.4,0.4-3.5c0-0.7,0-2,0-2.7
		c0.1-0.6,0.2-1.8,0.3-2.5c0-1,0.1-3.2,0.1-4.2c-0.3-1.9-0.1-2.4,0.7-1.6c0,0.7,0,2.1,0.1,2.8c0,1.2-0.3,2.4-0.5,3.5
		c-0.1,0.6-0.3,1.3-0.4,1.9c0,0.7,0,2,0,2.7c0.1,1.3,0,2.7-0.2,4c-0.1,0.8-0.1,1.5-0.1,2.3c0,1.2,0,2.3,0,3.5
		c0.2,0.1,0.5,0.4,0.7,0.5c1-0.2,1.3-1.1,0.8-2.5c0-1.7,0-3.5,0.3-5.2c0.2-3-0.1-6,0.6-9c1.6,3.5,3,7.2,3.8,11
		c0.5,0.2,1.1,0.4,1.7,0.5c0.2-0.5,0.3-1.1,0.4-1.6c-0.1-1.8-0.3-3.5,0.2-5.3c0.7-1.9,1.3-3.7,1.7-5.7h0.3c0.8,3,1.3,6,2,8.9
		c1.2,0.3,1.3-0.7,1.3-1.7c-0.3-1.1-0.4-2.2-0.6-3.3c-1-3.5-1.9-7.3-1.1-11c1.5-0.3,0.4,2.2,0.8,3c0.2,1.5,0.3,3,0.2,4.5
		c0.2,1.1,0.5,2.2,0.5,3.3c0.8,2.3,0.6,4.8,1,7.2c0.2,2.9,0.9,5.7,1.1,8.5c0.1,1.1,2.2,0.8,1.5,2.1c-1.3,3.3-1.7,6.8-2.2,10.3
		c0.1,1.3,0.1,2.6,0.2,3.9c0.4,1.6,0.1,3.3,0.1,4.9c0.4,1.8,0.3,3.7,1.3,5.3c0.5,0.5,1.1,1.1,1.6,1.6c0.9,0.2,1.9,0.4,2.8,0.5
		c0.5,0,0.9,0,1.4,0c0.2-0.3,0.5-0.6,0.8-0.9c0.1-0.8,0.7-1.6,1.6-1.5c1.3-1.5,1.3-3.7,2-5.5c0.5-1.5,1.6-2.9,1.2-4.6l0,0
		c0.7,0,1.9,0.1,2.5,0.1v0.4c0.1,3.2-0.5,6.3-0.5,9.4l0.4,2.7l0.2,2.2l0,0c0.1,0,0.2,0,0.4-0.1c-0.3,1-0.5,1.9-0.8,2.9
		c-1.2-0.1-1-2.1-1.6-3c-0.2-0.5-0.3-1-0.5-1.5l-0.8-0.1c-0.3,1.5-0.9,3-1.3,4.5c-0.8,2.9-0.8,6-1.3,9c-1.3-0.1-2.5-0.9-3.9-0.8
		c0.2,0.8,0.4,1.6,1,2.1c-0.7,0.7-1.6,1.2-1.9,2.2c1.1,0.3,2,0.1,2.9-0.5c1-1,2.2,0.2,1.3,1.3c-0.1,3.6-1,7-1.8,10.5
		c-0.1,0.6-0.3,1.9-0.4,2.6c0.1,0.5,0.3,0.9,0.5,1.3c1.3,0.4,1.9-1,2.1-2.1c0.6-3.7,1.2-7.4,1.4-11.1c0-0.7-0.1-2.1-0.1-2.8
		c1,0.6,4.5-1.3,4.3,0.8c0,1.1,0.3,2.3,0.3,3.4c0.1,1.2,0.3,2.4,0.6,3.6c0.2,0.5,0.2,1.1,0.2,1.6c0,0.9,0.2,1.7,0.4,2.5
		c0.3,1.5,1,3,2.7,3.3c0-0.2,0-0.5,0-0.7c0.3,0,0.7-0.1,1-0.5c-0.1-1.7-0.3-3.4-0.5-5c0.1,0.2,0.2,0.4,0.3,0.5V102
		c-0.3-1-0.6-1.9-0.9-2.9c0-0.3,0-0.6,0-0.9c0.7,1.2,1,2.6,1.5,3.9c0.4,1.4,0.9,2.7,1.4,4.1c1.1,1.7,0.8,5.3,3.1,5.8
		c0.7-4.8,1.4-9.7,2.2-14.5c1,1.8,0.6,4,1,5.9c0.5,2,1.1,4,1.6,6c0.7,1.9,0.8,3.9,1.5,5.8c0.3,0.7,0.6,1.4,0.7,2.1
		c0,0.3,0.1,0.8,0.2,1.1c0.6,0.8,0.7,1.7,0.3,2.8c0.1,2.1-2.9,3.4-2.1,5.5l0.4-0.2c0.4-0.6,0.8-1.2,1.5-1.6c0.1-0.2,0.4-0.5,0.5-0.7
		c0.1,3.7,0.2,7.4-0.3,11.1c-0.1,0.7-0.1,1.5-0.1,2.2c0,1.9,0.1,3.9,0,5.8c-0.1,2-0.4,4-0.6,6c-0.2,0.8-0.4,1.5-0.7,2.3h1.4
		c0-0.2,0.1-0.3,0.1-0.5c0.1-0.6,0.7-0.9,0.8-0.1c0.4,1.2,1.7,0.2,2.3-0.4c-0.1-1.2-0.1-2.5-0.2-3.7c-0.2-1.5-0.3-3-0.2-4.5
		c-0.1-0.5-0.1-0.9-0.2-1.4c-0.6-1.8-0.2-3.8-0.3-5.6c0-0.2,0-0.5,0-0.7c1.4,0.7,2.3,1.9,3.2,3.1c0.1,0.1,0.2,0.3,0.3,0.4
		c2,3.4,3.1,7.2,4.8,10.8c0.4,0.8,0.9,1.6,1.3,2.4h2.2c-0.5-1-0.8-2.1-0.8-3.2c0.8,0.9,1.2,2.1,1.5,3.2h2c0-0.5-0.1-1-0.1-1.5
		c-0.4-1.2-0.2-2.4-0.3-3.6c0-0.6,0-1.2-0.1-1.8c-0.6-1.6-0.2-3.3-0.2-4.9c0.5-1.5-0.4-3.6,1-4.7c0.1,2.1,0.1,4.2,0,6.3
		c0,1.1,0.1,2.1,0.1,3.2c0,1.3-0.1,2.6-0.2,4v0.3c0.1,0.9,0,2,1,2.6c1.2-0.2,1.2-1.3,1.2-2.3c-1.1-1.5-0.1-3.7-0.3-5.4
		c-0.2-2-0.5-4-0.4-6c1.5-1,3.2-1.6,4.9-2.1c1.4,3.4,2,7.1,3.1,10.6c-0.1,1.4-0.5,2.8-0.3,4.2c0.2,0.1,0.5,0.2,0.6,0.2
		c0.2-0.9,1.1-0.4,1.7-0.2c-0.1,0.4-0.2,0.8-0.3,1.1h1.1c-0.1-1.7-0.1-3.4-0.5-5c-0.1-0.4-0.2-0.8-0.2-1.2c1.1-3.3,2.3-6.7,2.5-10.3
		c0.2-1.5,0.4-3,0.3-4.6c0.1-0.6-0.3-1.5,0.5-1.8c0,0.5,0,1.5,0,2c-0.1,2.2,0,4.4-0.3,6.6c-0.3,2.6-0.7,5.2-1.2,7.8
		c-0.1,0.8-0.1,1.6-0.2,2.4c1.5,1.3,1.7-1.8,1.7-2.9c0-0.5,0-1.1,0.2-1.6c0.5-1.2,0.6-2.6,0.6-3.9c0-0.5,0-0.9,0.1-1.4
		c-0.1-1.6-0.1-3.3,0-4.9c0.3,0.5,0.6,1,0.6,1.6c0.1,1.9,0.7,3.7,0.9,5.6c0.3,1,0.6,2,0.9,3c0.6,0.1,1-0.4,1.3-0.9
		c0.7-3.5,1.4-7,1.4-10.5c-0.1-1.8,0.3-3.5,0.4-5.2c0.4-1,2.6-0.6,1.3,1.3c0.4,3.6,1.5,7.1,2.1,10.7c0.2,1.8,0.3,3.5,0.5,5.3
		c0.1,0.2,0.1,0.7,0.2,1c0.1,0.5,0.2,1,0.3,1.5c0.4,1.8,0.9,3.7,1.4,5.5h1.2c-0.2-0.5-0.3-1-0.4-1.5c1.2,0.5,3,0,1.9-2
		c-1.1-2.8-1.9-5.6-2.4-8.6c-0.1-0.6-0.2-1.2-0.3-1.8c-1.7-4.4-2.4-9.2-3.6-13.8c-0.3-1.3-0.4-2.6-0.7-3.9c-0.3-0.8-0.6-1.6-0.8-2.5
		c-1.1,1.9-0.8,4.3-1.7,6.2c-0.2,2-0.9,4-1,6c-0.7-1.4-1.2-3-1.5-4.6c-0.9-1.8-1.2-4.3,0.7-5.3c0.6-3.4,1.4-6.8,1.4-10.3
		c-0.2-2-0.2-4,0.2-6c0-0.3,0.1-0.8,0.1-1.1l0.1-0.4c1,0.1,2.9,0.2,3.9,0.3c0.9,2.2,1,4.7,1.9,7c0.3,0.7,0.4,1.5,0.6,2.2
		c0.3,1.1,0.3,2.2,0.4,3.3c0.3,1.3,0.9,2.6,1.7,3.6c0.5,0,1,0,1.6-0.1c-0.1-1.4-0.3-2.8-0.5-4.2c-0.3-1.5-0.7-2.9-1.2-4.3
		c-0.6-1.9-1.1-3.9-1.6-5.8c-0.1-0.4-0.2-0.8-0.2-1.2c0.8,0,1.8-0.2,1.9,0.8c0.6,2.5,1.6,4.8,2.1,7.3c0.2,0.7,0.4,1.3,0.6,2
		c0.2,1.3-0.5,2.8,0,4c0.5-0.7,1.2-1,2-0.4c1.6-1-0.3-3.3,1-4.1c-1.2-0.8-0.5-2.2-0.3-3.4c0.6-2.5,0.6-5.1,0.9-7.7
		c0.2-1.3,0.5-2.7,0.6-4c0.1-1-0.2-2.2,0.8-2.7c0.2,1.3,0.3,2.6,0.6,3.9c0,0.2,0.1,0.6,0.2,0.8c0.6,2.4,0.2,5.5,2.3,7.1
		c1.1-2.7,1.5-5.8,3.1-8.3c1.1,5.5,1.4,11.2,2.4,16.7c-0.7,0.2-1.4,0.4-1.8,1c-0.2,1.7,0.3,3.4,0.2,5.1c-0.6-0.4-0.5-2.6-1.1-1.7
		c-0.1,1.2,0.5,2.7-0.3,3.7c-0.2,0.2-0.4,0.4-0.7,0.6c0.2,0.3,0.4,0.6,0.5,0.9c0.3,1.7,0.1,3.4,0,5.2c-0.8-2.6-1.7-5.1-3.1-7.5
		c-0.6-0.5-1.2-1.1-1.8-1.6c-1.1,0.1-1-1.2-1.3-1.9c-0.5,0-1-0.1-1.5-0.1c-3.2,1.5-3.5,5.5-4.7,8.4c-0.3,3.8-1.2,7.6-0.8,11.5
		c-0.1,3.7,0.7,7.5,2.8,10.6c0.5,0.6,1,1.2,1.9,1.3c0.7,0.2,1.3,0.3,2,0.4c2.5-1.1,4.2-3.7,4.7-6.4c0.6-1.9,0.2-4.3,1.5-6
		c0.1,1.3,0,2.6,0,4c0.4,0.9,0.3,1.9-0.2,2.8c-0.1,2.1-0.1,4.2,0,6.3c0.3-0.3,0.6-0.6,0.9-0.9c0.2-0.7,0.5-1.5,0.7-2.2
		c-0.1-3-0.1-6,0-9c0.2-1.3-1.2-4.6,1.1-4c0.1,2.2,0,4.4,0,6.6c0,1.8,0,3.6,0,5.4c0.5,0.1,1,0.1,1.5,0.1c0.9-2,0.2-4.2,0.3-6.2
		c-0.3-2-0.4-4-0.3-6h0.4c0.7,0.4,1.2,0.9,1.5,1.6c2.1,3.8,3.4,8,5.6,11.6c0.7,0.8,1,1.8,1.3,2.7c0,0.2,0.1,0.3,0.1,0.5h2.3
		c-0.3-0.6-0.6-1.2-0.8-1.8c-2.7-5.5-4.7-11.6-9-16.2c0.1-1.2,1.6-1.6,2-2.7c2.3-2.4,2.4-6,1.1-8.9c-0.7-1.2-1.7-2.3-3.1-2.3
		c-2.3,2-2.9-3.3-1.1-2.5c0.5,0,1.2,0.1,1.5-0.4c-0.2-2.1-0.4-4.1-0.3-6.2l0.3,0.1c0.5,2.9,0.7,5.9,2.1,8.6c0.1-0.6,0.2-1.8,0.3-2.4
		c0-8.2-3.4-16-3.3-24.1c-0.8-0.9,0-3.1-1.3-3.6c-0.5,0.8,0,2.8-1.2,2.7c-0.2-1.3-0.6-2.4-1.1-3.6c-0.3-1.9-0.4-3.7-0.7-5.6
		c-0.2-0.5-0.3-1.1-0.4-1.6c-0.3-1.1-0.6-2.2-0.7-3.4c0.2-1.1-1.6-4.8,0.9-4.1c1,0.6,1.4,1.5,1.1,2.7c0.2,1.6,0.5,3.2,0.9,4.7
		c0.2,0.6,0.3,1.1,0.3,1.7c0.4,1.9,0.6,3.8,1.2,5.6c1,0.9,1.1,2.4,1.4,3.6c0.2,0.4,0.4,0.8,0.6,1.2c0.7-0.3,1.4-0.9,2.2-0.9
		c-0.3-1.6-0.7-3.1-1.5-4.5c-1.8-3.2-2.4-6.9-3.1-10.5c-0.9-1.7,0.9-1.9,1.3-3.1c-0.1-0.2-0.2-0.5-0.2-0.7c-1-1.2,1.4-1.2,0.8-2.4
		c-0.1-1.1-1-0.9-1.8-0.7c-0.2,0.1-0.6,0.2-0.8,0.2c-0.1-2.9,0-5.7,0-8.6c0-1.8,0-3.7,0-5.5c-0.2,0-0.8,0.1-1,0.1
		c-1,1.8-2.2,3.6-2.6,5.7c-1.7,0.3,0-3.4-2.2-3.4c-2.2,2.6-2.9,6.1-3.8,9.3c-0.4,0.5-0.3,1.6-0.9,1.8c-1.1,0.1-3,0.3-2.6,1.9
		c-0.7,0.5-1.7,1-1.4,2.1c1.1,0,2.1-0.2,3.2-0.3c-0.1,2.8-1,5.4-1.5,8.1c0,1.2,0.3,3.1-0.9,1.7c-1.1-0.8-1.5-2.2-2.5-3.2
		c-0.6-1-1.6-1.7-1.8-2.8c-0.7-0.6-1.3-1.3-2-2c-1-0.4-1.4-1.5-1.8-2.4c0.8-2,1.3-4.2,2.5-6c1-2.8-1.3-5.2-2.2-7.6
		c-0.6-0.3-1.2-0.6-1.6-1.2c-0.3-0.5-0.8-1.1-0.4-1.6c0.6-1,0.9-2.1,1.5-3.1c0,0.3,0,0.9,0.1,1.2c0,0.7-0.1,2.1-0.1,2.8
		c0.1,0.2,0.2,0.5,0.2,0.7c2.2,1.3,1.7-0.4,1.9-1.4c0.4,0,0.8,0.1,1.2-0.1c0-0.7-0.1-2.1-0.1-2.8c0-1,0-2.1,0-3.1c0-2.1,0-4.2,0-6.3
		c0.9-0.3,1.5,0.3,1.5,1.2c0.3,1.1,1.1,2.1,1.6,3.1c1.7,2.8,2.9,5.8,4.8,8.5c0.6,0.1,1.4,0.1,1.8-0.4c-1.4-2.4-2.8-4.8-3.9-7.4
		c0.2,0,0.5,0.1,0.7,0.1c1.5,2.1,2.2,5,4.6,6.3c0.2,0.5,0.5,1.6,0.6,2.1c1.5-0.7,0.9-3.1,1.6-4.4c0.5-2.4,0.8-5,1.5-7.4
		c0.5-0.7,1.4-0.8,2.6-0.3c1,0,2,0,3.1,0c0.1,0.5,0.3,1,0.4,1.5c0.5,3.5,1.4,6.9,2.4,10.2c0.2,1.1,1.5,1.2,2.4,1.1
		c-0.7-4.4-2.7-8.5-3.1-12.9c0.2,0,0.6,0,0.7,0c0.9,0.3,1.3,1.5,1.2,2.4c-0.1,0.6,0,1.1,0.3,1.6c0.3,2.3,0.7,4.7,1.2,7
		c0.3,1.8-0.5,3.4-1,5.1c-0.3,1.3-0.6,2.6-0.8,3.9c-0.1,1.4-0.2,2.8-0.4,4.2c-0.3,2-0.5,4-0.7,6v0.3c0,0.3-0.1,0.8-0.1,1
		c0.1,1.4,0,2.7-0.3,4.1c0,1.4,0.1,2.8,0.4,4.2c0.2,0,0.5,0,0.6,0c1.3-5.1,1.3-10.4,2-15.6c0-0.9,0.4-3.2,1.5-2
		c1,2.7,2.3,5.4,2.8,8.3c0.2,0.8,1.3,0.8,1.8,0.4c0.1-3.8,0.7-7.6,1.6-11.3c0.2,0,0.5,0,0.7,0c0.7,4,1.9,8,2.4,12
		c0.2,2.5,0.9,4.9,1.5,7.4c-0.6,1.3-2.5,1.9-2.6,3.4c1.5-0.1,1.3,1.2,1.1,2.4c0.1,1.9,0.1,3.8-0.2,5.6c0,0.6-0.1,1.2-0.1,1.9
		c0,1.7,0,3.4,0,5.1s0,3.4,0,5.1c0,0.3,0.1,0.8,0.1,1.1c0.7,2.3,0.1,4.8,0.1,7.2c0.2,0.5,0.4,1,0.6,1.6c0.5-0.7,1-1.5,1.6-2.2
		c-0.2-2.7,0-5.3-0.2-8c-0.7-2.3-0.1-4.8-0.3-7.2c0.1,0.1,0.4,0.2,0.5,0.3c3.6,3.4,4.4,8.8,5.2,13.5c-0.5,1.3,0.6,1.7,1.2,2.3
		c0,1.4-1.1,3-0.3,4.2c1.3,2.8-0.1,6.4,0.3,9.5c0.1,0.5,0.2,0.9,0.2,1.4c0.1,0.6,0.2,1.8,0.2,2.4c0,0.6,0.1,1.3,0.1,1.9
		c0.6,1.6,0.1,3.5,0.3,5.2c0,1.7,0,3.4,0,5.1c-1-0.6-0.5-2.4-0.7-3.5c-0.6-2.4-1.5-4.8-1.5-7.3c0.2-0.1,0.5-0.4,0.7-0.6
		c0.1-0.6,0.2-1.3-0.1-1.8c-0.6-0.2-1.2-0.3-1.8-0.6c-1-2.2-1.8-4.5-2.6-6.8c-1.1-2.3-1.2-5.2-2.9-7.2l-0.4,0.1
		c-0.2,0.5-0.4,1-0.6,1.5c-0.6-0.7-0.7-1.8-1.9-1.6c-0.1,0.2-0.3,0.7-0.4,1c0,0.5-0.1,1-0.2,1.5c-0.1,0.9-0.3,1.7-0.6,2.6
		c0,0.5,0,1.1,0,1.7c0,1.1-0.2,2.1-0.3,3.1v0.3c0.6,2.2-0.6,3.5-2.8,2.7c-0.7,0.2-1.3,0.4-2,0.6c0.9,0.8,2.2,0.7,3.3,1
		c1.6-0.2,0,2.2,0.5,2.6c-0.6,3-1.4,6-1.8,9.1c0,1.2-0.3,2.6,0.9,3.2c1.6-0.5,0.9-2.6,1.3-3.8c0.3-2.1,0.7-4.3,1-6.4
		c0.3-1.4,0.7-2.8,0.8-4.3c0.5,0.1,1.4,0.1,1.9,0.2c1,0.1,2,0.3,3,0.7c0.9,3.9,1.6,7.9,3.1,11.7c0.7,1.6,0.7,3.5,1.6,5h1.9
		c-0.5-1.8-1.4-3.6-1.9-5.4c-0.3-0.9-0.4-1.9-0.6-2.8c-0.5-1.8-1.6-3.6-1.2-5.6c1,1.7,1.1,3.6,1.6,5.5c0.2,0.7,0.4,1.3,0.6,2
		c0.2,0.7,0.5,1.4,0.8,2.1c1.1,0,2.2,0.5,1.4,1.7c0,0.9-0.1,1.7-0.2,2.6h2.2c0.1-1.6-0.2-3.2-0.1-4.8c0-1.8,0-3.7,0.1-5.5
		c-0.2-1.9-0.1-3.8-0.1-5.7c0-1.1,0-3.2,0-4.3h0.4c0,1.1,0,3.2,0,4.3c0,3.7,0.6,7.3,0.3,11c0,0.2,0,0.6,0,0.7
		c0.1,0.5,0.2,1.1,0.5,1.5c0.4-0.2,0.7-0.5,0.9-0.8v-1.4C239.1,145.8,239.1,144.9,239.6,143.9z M237.6,58.9c0.6,0.4,1.6,0.4,1.8,1
		c-0.9,0.3-1.7,1-2.7,0.9C236.8,60.1,237.2,59.5,237.6,58.9z M238.1,7.5l0.3-0.1c0.9,2.4,0.5,5,1.2,7.4c-1.2,0-2.4,0.1-3.5,0
		C236.6,12.3,237.3,9.9,238.1,7.5z M234.9,11.4l0.3-0.1c-0.2,1.1-0.3,2.6-1.2,3.2C234.1,13.4,234.5,12.4,234.9,11.4z M225,9.6
		c-0.3,1.2-1,2.2-2,2.9v0.3c-1.9,0.2,0-3.4-0.7-4.3h0.4c0-1.6,0-3.1,0-4.7C225.5,4.2,226.2,7.5,225,9.6z M227.1,8.3
		c0.6,0,0.6,2.2-0.5,2.3C226.6,9.8,226.9,9,227.1,8.3z M222.4-0.1c0.6-0.4,1.2-0.2,1.7,0.2c0.9,0.1,1.8,1.1,2,2c0,0.2,0,0.5,0.1,0.7
		c-1.9-0.3-4.8-1.3-4.7-3.5C222.1-0.9,222.4-0.6,222.4-0.1z M222.3,19.5c0.8,0.3,1.1,1.1,1.4,1.8c0.9,0.6,1.5,1.6,2.1,2.4
		c0.1,1.4,1.7,1.8,1.7,3.1c0.6,0.1,1.3,0,1.1,0.8c-1,0.2-2.9-0.5-1.4,1.9c0.3,3.1-1.4,6-1.7,9.1c0.2,1.6-0.3,3.1-0.5,4.6
		c-0.2,0-0.5,0-0.6,0c-0.2-2.4-1.7-4.6-1.6-7c-0.8,0.1-0.2-1.4-0.3-1.9c-0.7-0.6-0.4-1.6-0.4-2.4c-0.9,0.2,0.1-1.5-0.8-1.6
		c-0.5,0.1-0.6-1.6-0.1-1.1c0.9-2.8,0.3-5.8,0.5-8.7C219.6,17.8,222.4,18.5,222.3,19.5z M219.6,9.4c0-0.6,0-1.2,0.1-1.8
		c-0.1-1.3-0.2-2.7-0.1-4h0.4c0-0.4,0.2-0.7,0.7-0.8c0.7,1.8,0.5,3.8,0.4,5.7c0.1,1.7,0.2,3.4,0.1,5.1c-0.2,0-0.6,0.1-0.8,0.2
		c-0.3,1.3-1.8,0.1-1-0.8C219.6,12,218.7,9.8,219.6,9.4z M218.8,17.6c1.2-0.5,1.3,0.4,1.1,1.4c0.1,2,0.2,4,0.1,6c0,0.3,0,0.9,0,1.2
		c0,0.7,0,2,0,2.7c0.1,1.1,0.1,2.2-0.1,3.2c0,0.3,0.1,0.8,0.2,1.1c-1.7-1.7-1.7-4.5-1.1-6.8c0-0.3,0-0.8-0.1-1.1h-0.4
		c0.1-1.7-0.3-3.4,0.2-5C218.3,19.6,218,17.9,218.8,17.6z M199,4.3h0.3c-0.4,2.5,1.4,5.8-0.8,7.9C198.4,9.5,198.8,6.9,199,4.3z
		 M150.6-0.7c0.2-0.1,0.7-0.3,0.9-0.3c0.6,0,1.7-0.1,2.3-0.1c-0.3,0.8-1.3,1.1-1.8,1.7C151.8,1.8,148.7,1.3,150.6-0.7z M156.8,12.9
		h-0.4c-0.4,3.1,0.4,7-1.7,9.5c0.1,1.2-1.1,2.4-2.1,1.3c-0.4-1.5-1.5-2.9-1.3-4.6L151,19c0-0.7,0-2-0.1-2.6h-0.4c0-0.7,0-2,0-2.7
		l-0.4-0.1c0-1.1,0-3.2,0-4.3h0.4c0-0.3,0.1-0.9,0.2-1.2c-0.4-0.8-0.4-1.9,0-2.7c-0.3-0.8-0.5-2,0.5-2.3c0.2-0.5,0.4-0.7,0.8-0.7
		c1.1-0.5,2.4-0.8,3.4,0c0.3,0.6,0.7,1.2,0.9,1.8h0.4C156.8,7.2,156.9,10,156.8,12.9z M163.5,9.8c0-0.3,0-0.9,0-1.2h-0.4
		c-0.1-1.6-0.3-3.1-0.4-4.7l0.1-0.3c-0.6-0.5-0.5-1.3-0.5-2c0.5,0,1.1,0,1.6,0c0.2,0.1,0.5,0.2,0.6,0.2c0.9,0.3,0.5,1.8,1.2,2.1
		c0-0.3,0.1-0.9,0.1-1.3c-0.1-0.2-0.4-0.5-0.5-0.7c1.1-0.1,1.8,1,1.6,2l0.1,0.3c1.3,0.2,0.3,2.9-0.9,3.1c-0.2,0.5-0.6,0.8-1.1,0.8
		C164.6,8.8,164.1,9.4,163.5,9.8z M164.2,11.3c0.6-0.8,1.1-1.5,1.7-2.3C166.9,9.3,165.3,11.5,164.2,11.3z M172.1,21.5
		c-1,0.2-0.9-1.2-1.9-1.3c0-0.3-0.1-0.8-0.1-1.1C171.4,19.1,172.2,20.2,172.1,21.5z M179.4,9.9c0.2,1.1-1.7,0.8-2.3,0.5
		c-0.5,0.2-1.1,0.3-1.6,0.5c0.8-1.8,1.2-3.8,1.3-5.8l0.2,0.2c0.5-0.7,0.2-2.2,0.9-2.4C177.9,5.3,179.8,7.3,179.4,9.9z M182.2,10.5
		c0-0.5,0-1,0.1-1.4c0.1-1-0.6-2.9,0.3-3.2c0,0.2,0,0.6,0,0.8h0.3c0,1.4,0.8,2.5,0.9,3.9C183.2,10.6,182.7,10.6,182.2,10.5z
		 M167.8,32.4c0.1-1.2,0.3-2.4,0.4-3.5h0.4C168.1,29.9,169.3,31.9,167.8,32.4z M150.2,67.1c-1-0.2-0.8-1.3-0.8-2
		C150.4,65.3,150.2,66.3,150.2,67.1z M156,71.8c-0.1-1,0.5-1.8,0.9-2.6C157.7,69.2,157,71.6,156,71.8z M80.2,5.5h0.3
		c-0.4,2.5,1.4,5.8-0.8,7.9C79.6,10.7,80,8.1,80.2,5.5z M31.9,0.5c0.2-0.1,0.7-0.3,0.9-0.3C33.3,0.1,34.4,0,35,0
		c-0.3,0.8-1.3,1.1-1.8,1.7C33,3,30,2.4,31.9,0.5z M38.1,14h-0.4c-0.4,3.1,0.4,7-1.7,9.5c0.1,1.2-1.1,2.4-2.1,1.3
		c-0.4-1.5-1.5-2.9-1.3-4.6l-0.4-0.1c0-0.7,0-2-0.1-2.6h-0.4c0-0.7,0-2,0-2.7l-0.4-0.1c0-1.1,0-3.2,0-4.3h0.4c0-0.3,0.1-0.9,0.2-1.2
		c-0.4-0.8-0.4-1.9,0-2.7c-0.3-0.8-0.5-2,0.5-2.3c0.2-0.5,0.4-0.7,0.8-0.7c1.1-0.5,2.4-0.8,3.4,0c0.3,0.6,0.7,1.2,0.9,1.8h0.4
		C38.1,8.3,38.1,11.2,38.1,14z M44.7,11c0-0.3,0-0.9,0-1.2h-0.4C44.3,8.2,44,6.6,44,5V4.8c-0.6-0.5-0.5-1.3-0.5-2c0.5,0,1.1,0,1.6,0
		C45.3,2.9,45.6,3,45.7,3c0.9,0.3,0.5,1.8,1.2,2.1c0-0.3,0.1-0.9,0.1-1.3c-0.1-0.2-0.4-0.5-0.5-0.7c1.1-0.1,1.8,1,1.6,2l0.1,0.3
		c1.3,0.2,0.3,2.9-0.9,3.1c-0.2,0.5-0.6,0.8-1.1,0.8C45.9,10,45.4,10.6,44.7,11z M45.5,12.5c0.6-0.8,1.1-1.5,1.7-2.3
		C48.1,10.5,46.6,12.7,45.5,12.5z M53.3,22.6c-1,0.2-0.9-1.2-1.9-1.3c0-0.3-0.1-0.8-0.1-1.1C52.6,20.2,53.5,21.4,53.3,22.6z
		 M60.7,11c0.2,1.1-1.7,0.8-2.3,0.5c-0.5,0.2-1.1,0.3-1.6,0.5c0.8-1.8,1.2-3.8,1.3-5.8l0.2,0.2c0.5-0.7,0.2-2.2,0.9-2.4
		C59.1,6.4,61.1,8.5,60.7,11z M63.4,11.7c0-0.5,0-1,0.1-1.4c0.1-1-0.6-2.9,0.3-3.2c0,0.2,0,0.6,0,0.8h0.3c0,1.4,0.8,2.5,0.9,3.9
		C64.5,11.7,64,11.7,63.4,11.7z M49,33.6c0.1-1.2,0.3-2.4,0.4-3.5h0.4C49.4,31,50.5,33.1,49,33.6z M31.5,68.3c-1-0.2-0.8-1.3-0.8-2
		C31.6,66.5,31.5,67.5,31.5,68.3z M37.3,72.9c-0.1-1,0.5-1.8,0.9-2.6C38.9,70.3,38.3,72.7,37.3,72.9z M5.8,80.2
		c0-0.1-0.1-0.4-0.1-0.6c-0.5-0.2-0.5-0.9-0.8-1.3c-0.7,0.1-1.1-1.2-0.4-1.4c0.3,0.3,0.8,0.5,0.8,1c0.7,0.5,1.1,1.4,1.6,2
		C8.3,81.5,9,84,9.6,86.2C7.7,84.8,8.2,81.3,5.8,80.2z M14,72.5c-0.9-0.6-0.8-2.9-0.1-3c0.3-1-0.2-3.2,0.8-3.6c0,1.3,0.1,2.6,0,3.9
		C14.6,70.7,15.2,72.3,14,72.5z M15.5,72.2l0.1-0.3c0.2-0.9-0.8-3,0.6-2.8l-0.1,0.3C16.1,70.4,17.5,72.7,15.5,72.2z M19.8,72.9
		c-0.2,0-0.6,0-0.8,0c-0.6-2.3-1.4-4.6-1.6-7c1,0.2,0.9,1.6,1.2,2.4C18.8,69.9,19.9,71.3,19.8,72.9z M2.9,105.8
		c0.2,0.7-0.9,0.1-1-0.2c0-1.1,0.4-2.1,0.6-3.1c0.2-0.5-0.1-1.8,0.5-1.8c0-0.3,0.1-0.9,0.1-1.2C3,98.8,3.4,98,3.5,97.3
		c0.6,0.2,0.4,1.3,0.2,1.8c0.1,0.5,0.1,1.1,0.1,1.6h0.4c-0.2,1.3,0.1,2.6,0.4,3.9C4.8,105.5,3.7,105.8,2.9,105.8z M5.7,137.7
		c0.1-1.4,0.3-2.9,0.5-4.3c0.2,0,0.6,0,0.7,0C6.6,134.8,6.6,136.8,5.7,137.7z M21.9,96.8c-0.3,0.4,0.2,1.5-0.5,1.4
		c-0.6,1.1,0,3.4-1.2,3.9c0.4-1.1-0.6-2.9,0.4-3.9c-0.2-2.1,0.6-4,0.8-6c0.1-0.7,1.4-0.3,1.1,0.4C22.6,94.2,22.7,95.6,21.9,96.8z
		 M30.7,131.4c0-2.3-0.1-4.6,0-6.9c0.5,0,2.3-1.1,1.7,0c-0.3,0.7,1,0.1,0.7-0.5c0.9,0.6,1.8,1.5,1.4,2.7c0.3,1.4,0.1,2.7-1.3,3.3
		C32.9,130.7,31.7,131.5,30.7,131.4z M41.2,148.2c-0.9-2.7-2.4-5.2-3.5-7.8c-1.1-1.6-2.2-3.3-3.5-4.8c1.9,0.6,2.9,2.7,3.8,4.3
		c1.8,2.6,3,5.7,4,8.6C42.2,149.5,41.2,148.5,41.2,148.2z M71.6,142.8c0.1,1.5,0.6,2.9,0.8,4.3c0.3,0.7,0.5,1.5,0.4,2.3
		C72,149,72,147.8,72,147c-1.2-0.5-0.2-3.3-0.8-4.3L71.6,142.8z M75.9,143.5l-0.3-0.1c-0.2-1.7-0.8-3.4-0.3-5
		c-0.4-0.8-0.4-1.9,0-2.7c0.1-0.6,0.2-1.8,0.3-2.4c-0.2-0.8-0.2-1.8,0-2.6c0.6,0.5,0.3,1.8,0.2,2.5C76,136.7,75.9,140.1,75.9,143.5z
		 M77.2,122.9c1.3-0.4,0.3,1.2,0.2,1.8C76.2,126.1,77,123.5,77.2,122.9z M84.5,138.4h-0.3c-0.1,3-1.5,5.9-2.9,8.6
		c-0.2,0-0.5,0-0.7,0c-0.7,0.3-1.7,1.3-2.3,0.3c-1-0.7-0.4-2-0.5-3c0-1.2,0-2.4,0-3.6h-0.4c0-2.7,0-5.5,0-8.2h0.4
		c0.4-3.5,0.5-7.2,2-10.5c1,0.3,1.9,1.1,2.1,2.1c1.5,1.5,2.4,3.6,2.7,5.7l0.3-0.1C85,132.7,84.7,135.6,84.5,138.4z M88.8,134.5
		c-0.2,0-0.6,0-0.8,0c0-2.2-0.1-4.5,0.1-6.7c0.3-0.8-0.9-3.7,0.7-3.4c0.1,1.6,0,3.2-0.1,4.8C88.9,130.9,88.8,132.7,88.8,134.5z
		 M90.4,123.9c-0.3-1,1.9-0.9,2.2-0.4c0.7-0.1,1.4,0.5,1.3,1.3c0.7,0.3,0.7,2.3,0,2.6c0.1,0.5-0.1,0.9-0.5,1.2
		c-0.3,1.3-1.5,3-3.1,2.8c0-0.3,0-1,0-1.3c-0.1-1-0.1-2,0-2.9C90.3,126.1,90.3,125,90.4,123.9z M91.5,106.4h0.4
		c0.2,1.6,0.4,3.1,0.4,4.7C90.9,110.3,91.8,107.8,91.5,106.4z M90,93.6c1.2-0.4,0.7,1.1,0.6,1.8c-0.1,2.5,0.6,5,0.5,7.5
		c-1.2-1.1-0.6-3.9-0.8-5.5h-0.4C89.9,96.5,90,94.6,90,93.6z M86.6,64.9c0.5-0.8,0.4-2.1,1.4-2.5c0,1.3,0.1,2.6-0.1,3.9
		c0.1,1.7,0.2,3.4,0.1,5.1c-0.2-0.1-0.5-0.2-0.6-0.3C86.4,69.2,85.5,66.8,86.6,64.9z M58.4,46.4v-0.9c0-1.8,0-1.6,0.1-3.4V41
		c0.2-2.3,1.1-4.6,1.3-6.9c0.1-0.1,0.3-0.4,0.4-0.5c0-0.4,0.3-0.7,0.7-0.7c0.4-0.9,1.7-1.3,2.7-1.1c0.7,1.9,1.7,3.8,2,5.8
		c0.8,0.4,0.5,2,0.2,2.7c0.4,1.4,0.2,2.9,0.2,4.3c-0.1,0.6,0.5,2-0.3,2c-0.3,2.1-1.2,4.1-2.1,6c-0.2,1.1-0.8,2.6-2.2,2.7
		C58.5,53.1,58.3,49.4,58.4,46.4z M53.4,60.5c1.2-0.3,3.4,1.5,2.2,2.6c-1.2-0.6-2.4,0.1-3.5,0.5C52.4,62.5,53,61.5,53.4,60.5z
		 M51,76.9c0,0.3,0.4-0.3,0.4-0.5c0-3.8,0.4-7.9,2.4-11.3c1-0.3,1.9,0.4,2.3,1.2c0.8,3.3,0.8,6.7,1.2,10.1V77c0,1.1,0,2,0,3.1v0.7
		c0.1,0.5-0.1,0.8-0.5,1c-0.4,0.8-0.9,2-1.8,2.1c-0.5,0.7-1.9,0.9-2.6,0.2C50.9,82,50.9,79.3,51,76.9z M54.9,87.2
		c-1.2,0.4-2.4-0.6-2.4-1.8c0.7-0.1,1.4-0.1,1.3,0.8c0.4-0.5,0.8-1,1.5-1.2c0.5-0.8,1.2-1.4,2-1.9c-0.3,0.5-0.1,1.7-0.7,1.8
		c-0.1,0.2-0.2,0.7-0.2,0.9C56.7,86.5,55.6,87.6,54.9,87.2z M52.9,94.4c-0.5-0.1-1-0.3-1.6-0.5c0.1-0.7,0.9-0.8,1.5-0.7
		c0.6,0.2,0.4,1,1.2,0.5c1,1,0.8,2.5,0.8,3.8c-0.2,0-0.5,0-0.7,0C54.2,96.3,53.6,95.3,52.9,94.4z M48.2,79.9c1.6,2.7,2,5.9,3.4,8.7
		l-0.3,0.2C49.8,86,48.9,82.9,48.2,79.9z M50.7,90.2c0.9-0.3,2.2,0.2,2.6,1c-1.4,0.3-2.9,0.6-4.3,0.9C49,91.1,50,90.7,50.7,90.2z
		 M49,96.3c0-0.7,0-1.3,0-1.9c1.9,0.2,4.4,1.4,3.9,3.8c-0.1,0.1-0.3,0.3-0.5,0.3c-0.4,1.1-1.6,2.4-2.8,2.7l-0.3,0.2
		c0-0.7,0.1-2.1,0.1-2.8C48.7,98.1,49.1,97,49,96.3z M46.6,97.1c1.6,1.2,0.6,4,0.8,5.9H47C47.2,101,46.9,99,46.6,97.1z M45.9,133
		c0.2-4,0.8-7.9,1.7-11.8c-0.3-0.6-0.1-0.8,0.6-0.7c-0.1,0.7,0.5,2.2-0.3,2.3c-0.2,3.4-1.3,6.7-1.3,10.2C46.4,133,46.1,133,45.9,133
		z M47.1,136.9c0-0.5,0-1,0-1.6c0.6,0,1.8,0,2.3,0C49.5,136.5,48,136.9,47.1,136.9z M50.7,132.9c-1.1,0.1-2.1,0.1-3.2,0.1
		c0.1-0.4-0.4-1.7,0.4-1.5c0.3-2.2,0.7-4.4,1.2-6.6h0.3c0.3,2.1,0.8,4.2,1.3,6.3C51.1,130.7,51.2,133.2,50.7,132.9z M56.7,142.7
		c-0.2,0-0.5,0-0.6,0c-0.2-2.1-1.7-3.8-1.6-5.8c1.1,0.2,2,0.9,3.1,0.9C58,139.5,56.7,141,56.7,142.7z M61.5,127.5
		c-1.4,0.3-0.6-1.6-0.7-2.3C62.1,124.8,61.3,126.7,61.5,127.5z M62.2,117.3l-0.3,0.2c0,0.6,0,1.7,0,2.3c-1,0.3-0.6-1.2-1.5-0.4
		c0.1,2.3-0.8,4.6-0.9,6.9l-0.3,0.1c-0.1,0.6-0.3,1.7-0.4,2.3c-0.4,1.4,0.7,3.5-0.5,4.6c0.2,1.2,0.6,2.9-1,2.3
		c-0.6-0.6-0.4-1.5-0.8-2.1c-1.1,0.2-2.3-0.1-3.4-0.2c-1.2-5-2.1-10.1-4.3-14.8c0.8-2.2,0.6-4.6,0.8-6.9c-0.1-1.9-0.2-3.7-0.1-5.6
		h0.4c0.1-0.4-0.2-2.3,0.4-1.2c0.3,0.6,1.6,0.3,1.5,1.2c1.2,1.1,2.5,2.8,3.3,4.2c1.7,2.5,3.2,5.1,4.4,7.9c0.6,0.4,1.3,0.3,1.7-0.4
		c0.1-0.2,0.3-0.7,0.3-0.9c-0.4-0.7-0.9-1.5-0.8-2.3c0.5,0,0.9,0.1,1.2,0.5l0.4-0.1C62.2,115.6,62.2,116.7,62.2,117.3z M65.8,99.8
		c0.2-2.5,0.7-4.9,0.8-7.4c0.2,0,0.5,0,0.7,0c0.2,2.1,0.6,4.1,0.8,6.2C67.7,99.6,67.5,101,65.8,99.8z M70.4,98.3
		c-1-1.2,0-2.3,0.5-3.4l0.3-0.1c0.4,1.9,0.9,3.7,1.6,5.5C71.6,100.4,70.2,99.9,70.4,98.3z M78.2,105.3h-0.3c0.1,0.5,0,1.1-0.2,1.6
		c0.9,0.7-0.4,3-0.6,1.3c-0.2-1.3,0.3-2.5,0.5-3.7c-0.1-1.6,0.5-3,0.7-4.6l0.3-0.1C78.8,101.7,78.4,103.5,78.2,105.3z M86.9,93.2
		h0.3c-0.4,1.5,0.3,2.9,0.4,4.3c-0.6,1-0.9,2.6-1.9,3.2C85.7,98.1,86.8,95.7,86.9,93.2z M83,65.2c0.2,0,0.5,0,0.7,0
		c0.1,1.9-0.1,4.5-2,5.5C82,68.8,82.8,67,83,65.2z M68.6,77.1c0.3,0.4,1.2,0.4,1,1c0.2,0.9,1.4,1.4,1.6,2.2c0.9,1,1.6,2.2,2.3,3.4
		c1,0.7,1.7,1.8,2.1,2.9c1,0,1.4,1.6,2.7,1.2l0.1-2l0.3,0.1c0.2-4,0.9-7.9,2.1-11.8c0.3,0,0.8,0,1.1,0c0.6-0.5,1.3-0.4,2-0.4
		c0.1,0.1,0.3,0.3,0.4,0.4h0.4c0,0.6,0,1.7-0.1,2.3c-0.2,4.3,1.8,8.3,1.6,12.5c-1.1,2.4-1.3,5.2-1.6,7.8c-0.2,0-0.5,0-0.7,0
		c-0.2-3.9-1.2-7.7-2.2-11.4c-0.2-0.5-0.7-2.1-1.1-0.9c-1.4,0.4,0.1,2.7-1.1,3l0.1,0.2c-0.2,3.8-2.1,7.4-2,11.4h-0.4
		c0,1.1-0.3,2.1-0.6,3.2c-0.9,0.3-0.7-0.7-1-1.2c-0.2,0-0.6,0.1-0.8,0.1c-0.7-3.8-2.3-7.4-2.4-11.3c-0.9,0.1,0.2-2.3-1.1-1.2
		c-0.1,1.8-0.9,3.7-1.9,5.1c-0.8-2.2-0.5-5.6-3.2-6.6c-0.6-0.1-0.7,0.7-0.8,1.2c-0.8,4-1.1,8-1.6,12c-1.4,0.4-3.8,0.2-4.7,1.6
		c0.8,0.4,2.5-0.1,2.5,1.1l0.4,0.1c1.2-0.7,1.5,1.4,0.8,1.8c-0.2,2.4-0.5,4.8-0.9,7.2c-0.4-0.4-1.1-0.7-1.1-1.3
		c-0.6,0-1.5-0.8-1.4-1.5c-1.7,0.1-2-1.9-3.5-2.1c-0.2-1-1.7-1.1-1.7-2.2c-0.6-0.3-1-0.8-1.5-1.2c-0.9,0.4-1-0.3-0.8-1
		c1-0.6,1.8-1.6,3-1.8c0.5-0.3,0.5-0.8,0.7-1.3c2.2-2.2,1.7-5.9,0.2-8.4c-0.8,0.3-1.8-0.7-1.4-1.5l-0.1-0.3c0.2,0,0.5,0,0.7,0
		c0.5,0,1,0.1,1.5,0.2c0.3-0.6,0.6-1.3,1.4-1.4c0.8-1.3,1.5-2.7,1.5-4.2h0.3c0-1.3-0.1-2.6,0.1-3.9c-0.3-0.8-0.3-1.8,0-2.7
		c-0.1-2.1-0.2-4.2-0.1-6.3c0.9,0.9,0.9,2.9,0.7,4.2c-0.4,1.1,1,4.5-0.3,4.7c-0.1,2,0.2,4-0.1,5.9c0.4,0.8,0.3,1.9,0,2.7
		c0.4,1.2,1.5,1.4,2.5,0.7c0.2-2.3-0.2-4.6,0.2-6.8c-0.2-2.5-0.2-5-0.1-7.5c0.2,0.1,0.5,0.2,0.6,0.2c0.5,0.2,0.9,0.7,1.2,1.1
		c0.7-0.1,1.6,0.8,1.5,1.5c1.7,1.3,2.1,3.8,3.6,5.1c1.1,0.2,2.5,2.2,1.9,3.5c0.2,0.3,0.4,0.7,0.5,1c0.6,0,1,1,1,1.5
		c0.2,0.6,0.6,1.1,1,1.6c0.6-0.3,1.8-0.5,1.5-1.5c-1.2-2.9-3-5.4-4.3-8.2c-1-0.9-1.7-1.9-2.2-2.9c-0.9-0.2-1.2-1.2-1.6-2
		C68.1,75.9,68.2,76.7,68.6,77.1z M67.4,71.6c-0.2,0.6-0.3,1.6-1,1.8c0.3,0.7-1-0.2-1.4-0.2c0.4-0.6,0.7-1.5,1.5-1.6
		c0-0.9,0.8-1.2,1.6-1.1C67.9,70.9,67.9,71.7,67.4,71.6z M66.7,63.7c0.2,0,0.5-0.1,0.6-0.1c1.2,1.3,1,3.3,0.3,4.9
		c-1.9-0.1-1.9,2.6-3.7,2.6c-0.4,0.6-0.7,1.3-1.6,1.1c0.8-2.4-0.6-5.6,1.5-7.4C64.5,63.9,65.7,63.9,66.7,63.7z M63.9,59.8
		c0.7-0.1,2,0.5,1.8,1.4c-1,0.5-2,1.3-3.1,1.2C62.5,61.4,62.8,60.1,63.9,59.8z M66.6,52.6c0,2.5-1.9,4.6-3.7,6.2c-0.6,0-1.9,0-2.5,0
		c0-1-1.1-1.6-0.9-2.7c1,0.6,2,1,3.1,0.4c1.4-2,3.1-4.5,3.7-7.1c-0.4-0.6,0.1-0.9,0.6-1.1c0,1.1,0,3.3,0,4.3L66.6,52.6z M74.7,33.6
		c0.3,1,0.6,2,0.4,3c-0.3,1.2-1.4,2.8-2.8,2.7c-0.2,0.1-0.5,0.4-0.7,0.5c-0.1-2.1,0-4.2,0.4-6.3C72.7,33.5,74,33.6,74.7,33.6z
		 M71.7,22.1c-0.2-4.2,0.7-8.5,0.8-12.7c0.3-1-0.7-3.3,0.3-3.6C73,4.6,73.1,3.3,73.2,2h0.3c0.1,1.9,1.1,4.1,0,5.8
		c0,1.7,0.1,3.4,0,5.1h-0.4c0,0.7,0,1.4-0.2,2.1c0.3,1.9-0.3,3.7-0.4,5.6c0.1,1.7,0.2,3.4,0.1,5.2h-0.4c-0.1,0.7,0.4,1.9-0.8,1.6
		C71.6,25.6,71.5,23.9,71.7,22.1z M72.7,43.6c-0.5,0.3-1.3,0.1-1.4-0.6c1.2-0.5,2.1-1.3,3.1-2.1C74.1,41.9,73.8,43.2,72.7,43.6z
		 M105.8,129.9c0.1,1,0.3,2.5-0.6,3.1c0-1.8-0.1-3.7,0-5.5h0.4c0-0.8,0-2,0.8-2.4C106.3,126.7,106.5,128.5,105.8,129.9z
		 M108.7,124.8c0.3,1.1,0.9,2,0.7,3.2c-1.3-1.4-1.5-4-1.6-5.9C108.9,122.2,108.2,124.4,108.7,124.8z M108.2,133.3
		c-1.2,0.8-1.6-1.4-0.8-1.8c0.1-0.6-0.2-1.6,0.8-1.2c0.2,1,0.7,2,0.9,3.1C108.9,133.4,108.4,133.3,108.2,133.3z M109.5,128.3h0.4
		c0.4,1.8,1.1,3.6,1.6,5.5C110.2,132.5,109.4,130.2,109.5,128.3z M138.9,124v-0.4c0.7,0.5,1.9,0.9,1.9,1.9c-0.5,0.5-1.3,0.6-2,0.8
		c-0.4,0.3-0.7,0.7-1.1,0.9C137.8,126.1,138.1,124.7,138.9,124z M136.6,134.9h0.4c0.5-1.7,0.5-4.1,2.3-5.1c0.5,0,1,0,1.5,0
		c0.6,0.3,1.4,0.9,1.5,1.6c1.6,3.4,2,7.7-0.4,10.8c-0.2,0.8-0.5,1.8-1.2,2.3c-0.1,0.5-0.1,0.9-0.2,1.4c0.9-0.8,1.3-2.1,2.2-2.8
		c0.1-0.7,0.5-1.7,1.2-2c0.2,1.1-0.3,2-0.9,2.8c-0.4,1.6-1.5,3.3-2.9,4.2c0.2,0.6-1.6,0.6-1.2,0c0.1-0.7,0.8-1,1.2-1.5
		c-0.6,0.1-0.2-0.8-0.5-1.1c-0.7,0.8-2.1,0.3-2.3-0.5c-0.7-1.4-0.9-3.1-0.8-4.6c-0.1-0.5-0.1-1,0-1.6
		C136.6,137.6,136.5,136.3,136.6,134.9z M124.6,133.1c0.1,0.6,0.4,1.8-0.6,1.4c-0.5-1.4-1.7-2.7-1.6-4.2
		C123.5,130.6,123.2,132.8,124.6,133.1z M113,89.3l-0.2,0.3c1.7,1.2,2.9,4.2,1.4,6c-0.6,0.6-0.4,2.1-1.6,1.9c0-0.3,0-0.9,0-1.2h-0.4
		c0-0.7,0-2,0-2.7h-0.4C112.3,92.4,110.5,88.6,113,89.3z M109.5,89.3c0.2,0,0.6,0,0.8,0h0.4c0,1.8,0.2,3.7-0.1,5.6
		c0.2,0.6,0.2,1.3,0.2,1.9c0.6,0.3,0.6,2-0.1,2.2c0.4,1-0.5,0.9-1.2,0.8c-0.5,1.2-0.8-2.7,0-2.7c0-1.4,0-2.9,0-4.3
		c-1.3,0-0.1-2.6-0.4-3.5H109.5z M94.3,4.7C95,5,96,5.3,95.8,6.2c-0.6,0-1.8,0-2.4,0C93.4,5.6,93.9,5.2,94.3,4.7z M90.9,12.3
		c-0.1-2.3,1.4-5.4,4-5.2c1.9,0.5,1.8,2.9,1.6,4.5c0.1,1.4,0.2,2.7,0,4.1c0,1.2,0,2.5-0.7,3.5c0.3,1.2-0.5,2.3-0.8,3.3
		c-0.4,1.2-1,2.7-2.3,3.2c-2.3,0.4-2.2-3-2.3-4.6C90.2,18.2,90.3,15.2,90.9,12.3z M88.8,44c-0.1-1-0.1-2,0-3c0.2,0,0.5,0,0.7,0
		c0.2,1.2,0.7,2.4,1.2,3.5C90,44.5,89.4,44.3,88.8,44z M92.2,43c-0.8-2.3-1.6-4.5-2.6-6.7c0.1-0.7,0.3-1.3,0.5-1.9
		c0.2,0,0.5,0,0.6,0c0.9,3.6,1.9,7.1,3.2,10.5C92.9,44.8,91,45.3,92.2,43z M98.9,67.9c-0.9-0.3-1.2-1.5-1.2-2.4
		C99,65.3,98.7,67.1,98.9,67.9z M98.5,30.4c0.3,4.1-0.1,8.1-0.5,12.2c-0.4,1.1,0.2,2.6-0.7,3.5c0,1.1,0.2,3.4-0.6,3.8
		c-0.3-1.4-0.3-2.7-0.1-4.1c-1.5-0.5-1.8-2.2-1.8-3.5l-0.3-0.2c-1-3.8-3.2-7.2-2.8-11.2c0.5-0.2,1.3,0.1,1.7-0.3
		c2.3-3.2,4.3-6.8,4.7-10.7c-0.3-0.7,0-1.6,0.6-1.9c0,1.7,0.1,3.5-0.1,5.2c0,0.3,0.1,0.8,0.1,1.1c0.8,0.4,0.5,1.9,0.3,2.6
		C98.6,27.8,99.6,30.1,98.5,30.4z M106.2,10.8c-0.3,1.2-1,2.2-2,2.9V14c-1.9,0.2,0-3.4-0.7-4.3h0.4c0-1.6,0-3.1,0-4.7
		C106.7,5.4,107.4,8.7,106.2,10.8z M108.4,9.4c0.6,0,0.6,2.2-0.5,2.3C107.9,10.9,108.2,10.2,108.4,9.4z M103.7,1.1
		c0.6-0.4,1.2-0.2,1.7,0.2c0.9,0.1,1.8,1.1,2,2c0,0.2,0,0.5,0.1,0.7c-1.9-0.3-4.8-1.3-4.7-3.5C103.4,0.3,103.7,0.5,103.7,1.1z
		 M100.2,27.6c0-0.3,0-0.8-0.1-1.1h-0.4c0.1-1.7-0.3-3.4,0.2-5c-0.3-0.7-0.7-2.3,0.2-2.6c1.2-0.5,1.3,0.4,1.1,1.4c0.1,2,0.2,4,0.1,6
		c0,0.3,0,0.9,0,1.2c0,0.7,0,2,0,2.7c0.1,1.1,0.1,2.2-0.1,3.2c0,0.3,0.1,0.8,0.2,1.1C99.6,32.7,99.6,29.8,100.2,27.6z M101.6,15
		c-0.3,1.3-1.8,0.1-1-0.8c0.2-1-0.7-3.2,0.3-3.6c0-0.6,0-1.2,0.1-1.8c-0.1-1.3-0.2-2.7-0.1-4h0.4c0-0.4,0.2-0.7,0.7-0.8
		c0.7,1.8,0.5,3.8,0.4,5.7c0.1,1.7,0.2,3.4,0.1,5.1C102.2,14.8,101.8,14.9,101.6,15z M109.8,28.8c-1,0.2-2.9-0.5-1.4,1.9
		c0.3,3.1-1.4,6-1.7,9.1c0.2,1.6-0.3,3.1-0.5,4.6c-0.2,0-0.5,0-0.6,0c-0.2-2.4-1.7-4.6-1.6-7c-0.8,0.1-0.2-1.4-0.3-1.9
		c-0.7-0.6-0.4-1.6-0.4-2.4c-0.9,0.2,0.1-1.5-0.8-1.6c-0.5,0.1-0.6-1.6-0.1-1.1c0.9-2.8,0.3-5.8,0.5-8.7c-2-2.9,0.8-2.2,0.8-1.2
		c0.8,0.3,1.1,1.1,1.4,1.8c0.9,0.6,1.5,1.6,2.1,2.4c0.1,1.4,1.7,1.8,1.7,3.1C109.3,28.1,110.1,28,109.8,28.8z M123.9,67
		c-1.4-0.5-2.7-0.4-3.9,0.4c-1.1-1.1,1.4-1.5,1.6-2.6C123.6,63.6,123.9,65.8,123.9,67z M118,62c0-0.7,0.5-1.3,0.8-1.9
		c0.6,0.4,1.6,0.4,1.8,1C119.8,61.5,119,62.1,118,62z M126.4,55.3c0.1,0.7-0.8,1.6-1.5,1.5c-0.8,1.1-2.1,1.6-3.2,2.4
		c-0.5-0.1-2.9,0.3-2.6-1c2,0.4,3.6-0.8,5.1-1.9c0.2-1.3,1.2-2.9,2.7-2.4l-0.1,0.3C127.1,54.7,127,55.1,126.4,55.3z M129.2,35.2
		C129.3,35.2,129.3,35.2,129.2,35.2c0.6,0.8,1,1.8,1.3,2.7c-0.3,0.2-0.5,0.4-0.9,0.4C129.4,37.2,129.3,36.2,129.2,35.2z M130.1,45.4
		c-0.1-0.6-0.1-1.1-0.2-1.7c-1-2.4,0-2.1,1-1.5C130.8,43.3,130.6,44.4,130.1,45.4z M142.8,35.9c0.1-0.7-0.3-1.8,0.4-2.3
		c0.4-1.1-0.2-3.4,0.8-4c0.1,1.3-0.3,2.5-0.5,3.8C143.7,34.3,143.6,35.5,142.8,35.9z M144.8,40.6c0-0.2,0-0.6,0-0.7
		c0.9-0.1,1.8,0,2.8,0C147.1,41,145.7,40.5,144.8,40.6z M146.8,30.9c0.5,0,0.4,1.5,0.6,2.1c0,1.4,0.3,2.7,0.5,4
		c-1.2,0-2.4,0.1-3.5,0c0-0.5,0-1,0-1.5c0-0.3,0-0.9-0.1-1.2c0.2-0.4-0.3-1.7,0.3-1.4c0.4-1.7,0.2-3.9,1.2-5.2
		C145.8,28.9,146.5,29.8,146.8,30.9z M140.6,1.7l0.3-0.2c-0.4,1,0.8,3.1-0.7,3.6C140.7,4.3,139.3,2.3,140.6,1.7z M134.2,13.7h0.4
		c0-1.2,0-2.4,0-3.6c1.8,2.2,2.4,5.1,3.7,7.6c0.1,0.6,0.2,1.7,0.2,2.2c0.5-0.1,0.7-0.7,0.8-1.2c1.2-3.5,2-7.2,2.3-10.9
		c0.7-0.2,0.2,1.1,0.4,1.5l0.3,0.1c0.6,3.7,2.2,7.1,2.7,10.7c-1,2.3-1.9,4.7-2.7,7.1c-0.1,0.6,0.5,2.1-0.3,2
		c-0.1,2.7-0.6,5.4-0.9,8.2c-1.2,0.2-2.5,0.3-3.7,0.5c-0.1,0.5-0.4,0.8-0.9,0.8c0.4,0.4,0.5,0.9,0.2,1.4c1.3,0.8,3.1,0.3,4.5,0.1
		c0,1-0.1,3.1-0.1,4.1c0.1,2.5,0.2,5,0.1,7.5c-0.7-0.2-0.9-0.8-0.6-1.5c-1-2.7-2.4-5.3-4-7.6c-0.6,0-1.4-0.8-1.4-1.5
		c-0.5-0.1-1.1-0.6-1.1-1.1c-0.4,0-1-0.2-1.2-0.6c0-0.2,0-0.3,0-0.5v-0.1c0.4-0.2,0.7-0.6,1.1-1c0.1-1.1,1.7-1.4,2.2-2.4
		c0-0.7,0.5-1.2,0.7-1.8c-0.3-1.1,0.4-2.1,0.4-3.2h-0.4c0.4-1.8-0.8-3.2-1.6-4.7l-0.4,0.1c-0.1-1.5-0.1-3.1,0-4.6c0-0.2,0-0.6,0-0.9
		h-0.4C134.2,18.3,134.2,16,134.2,13.7z M129.2,29.2l0.3,0.1c0.4-1.9,3.1-2.8,4.4-1.3c1.3,0.9,1.3,2.4,1.1,3.8
		c0.2,1.2-0.3,2.4-1,3.4c-0.2,0.6-0.2,1.3-1,1c-0.3,0.2-0.6,0.4-0.8,0.5c-0.2-0.7-0.5-1.4-0.9-2.1c-0.9,0.1-1.6-0.7-1.5-1.6
		c-0.2-0.3-0.4-0.5-0.6-0.7C129.1,31.3,129.1,30.3,129.2,29.2z M127.2,35.5h0.4c0.2,1.8,0.5,3.6,0.4,5.4h-0.4
		C127.4,39.1,127.1,37.3,127.2,35.5z M125.7,35.9c0.1,0.7,0.2,1.8,0,2.1l0.2,3.6c0.9,2.3,1.9,4.7,2.6,7.1c-0.6,1.1-1.4,2.2-2.3,3.1
		c-0.2,1.6-1.8,2.4-2.8,3.5c-0.2,0-0.6,0-0.8,0c-0.7,0.6-1.5,1.2-2.3,1.6c-1.5,0.4-2.2-1.9-1.7-3c0.6-3.3-0.1-6.9,1.8-9.9
		C121.9,41.2,123.5,38.3,125.7,35.9z M121.2,38.6c0.6-1.2,1.2-2.5,1.6-3.8l0.3-0.1c-0.1,1.4-0.8,2.6-1.3,3.8
		C121.7,38.6,121.3,38.6,121.2,38.6z M119.3,8.6l0.3-0.1c0.9,2.4,0.5,5,1.2,7.4c-1.2,0-2.4,0.1-3.5,0
		C117.9,13.5,118.6,11.1,119.3,8.6z M116.2,12.6l0.3-0.1c-0.2,1.1-0.3,2.6-1.2,3.2C115.3,14.5,115.8,13.5,116.2,12.6z M116.1,54.9
		c-0.2-0.6-0.6-1.2-0.3-1.8c-0.5-3.4-1.9-6.7-1.7-10.2h-0.4c0-0.7,0-2,0-2.7l-0.4-0.1c0-1.1,0-3.3,0-4.4c-0.9-0.2-0.5-1.9-0.2-2.6
		c-0.4-1.1-0.7-2.3-0.4-3.4c0.4-1.7-0.8-3.4-0.4-5c0.2-1.3,0.6-2.5,0.9-3.7c-0.1-1.5,1.1-2.7,2.8-1.8c1,0.3,2,0.3,3,0.5
		c0.3,0,0.8-0.1,1-0.2c0.7,0.2,1.3,0.5,1.4,1.3c0.3,2.2,1,4.3,1.4,6.5h0.4c0.1,0.6,0.2,1.7,0.3,2.3c0.2,0.9,0.2,1.9-0.5,2.6
		c-0.8,2.3-2.6,4.1-3.4,6.4c-1.7,3.5-2.5,7.4-3.1,11.3c0.1,1.7,0.1,3.4,0.1,5.2c1.1,0.7,0.6,3.1,1.2,4.3c-0.2,0-0.6,0-0.7,0
		C116.8,57.8,116.3,56.4,116.1,54.9z M123.5,81.1c-0.6,0.9-1,2-1.3,3c-0.9,1-2.5,0.7-3.7,0.9c-0.5-2.1-1.4-4.1-1.3-6.2
		c-1.3,0-0.1-2.6-0.4-3.5h0.4c0-0.8-0.1-1.6,0.1-2.3c0-0.7,0.8-1.5,1.4-1.5c0.1-0.2,0.4-0.6,0.5-0.8c-0.1-0.7,0.8-1.6,1.5-1.5
		c0.6-0.4,1.4-0.8,2.1-0.4C126.2,72,125.5,77.4,123.5,81.1z M126.2,101c0-0.7,0-1.3,0-2c0.3-2.1,0.6-4.1,0.9-6.2
		c-0.2-0.6-0.3-1.3,0-1.8c0.4,0.1,0.8,0.9,0.6,1.4c-0.2,2.5,1.4,5.4-0.4,7.5C127.7,100.9,127.2,101.2,126.2,101z M137.4,67.1
		c0.1,1.6,1.3,3,1.2,4.7c-0.2,0-0.6,0-0.8,0c-0.6-2.3-1.4-4.6-1.6-7C137.2,65,137.1,66.4,137.4,67.1z M134.9,67.8l-0.1,0.3
		c0,1.1,1.4,3.4-0.6,2.8l0.1-0.3C134.5,69.8,133.5,67.7,134.9,67.8z M132.6,68.3c0.3-1-0.2-3.2,0.8-3.6c0,1.3,0.1,2.6,0,3.9
		c0,0.9,0.5,2.5-0.7,2.7C131.9,70.7,131.9,68.5,132.6,68.3z M132.3,105.3l-0.4,1.6C131,105.7,131.6,105.2,132.3,105.3L132.3,105.3z
		 M131.3,101.8c-1.2-0.4-0.2-3.3-0.7-4.2h-0.4c0.7-0.9-1.3-4.7,0.7-4.3c0.3,1.3,0.6,2.6,0.8,3.9c0.1,0.2,0.2,0.4,0.3,0.6
		c0,0.5,0.1,1.1,0.1,1.6c0.3,0.8,0.3,1.5,0.3,2.3C132.1,101.9,131.7,101.9,131.3,101.8z M138.2,95.6c-0.3,1.9-0.6,3.9-0.6,5.9
		c-0.8-1.9-1.5-3.7-2.4-5.6c-0.4-0.8-0.9-1.6-1.5-2.3c-0.6-0.9-0.6-2.1-0.9-3.2c-0.5,0-1.1-0.1-1.4,0.4c0,0.1,0,0.2,0,0.3
		c-0.1-0.4-0.2-0.7-0.4-1.1c-0.1-0.4-0.2-0.8-0.4-1.2c0.2,0,0.4-0.1,0.6-0.1c0.1-4.3,0.6-8.5,0.5-12.7c0-0.5,0-1.1,0-1.6
		c0.5,0,1,0,1.5,0c0,1.1-0.1,2.1-0.3,3.2c-0.1,0.6-0.1,1.2-0.2,1.8c0.2,3.3,0.1,6.6,0,9.9c0.1,0.5,0.5,0.8,0.9,1.1
		c0.1-2.6,0-5.3,0-7.9c0-1.4,0.2-2.8,0.4-4.2c0.3-1.4-1.1-4.5,1.9-3.1c1.9,3.6,2.1,7.8,3.2,11.7c0.9,1.9-0.2,4-0.6,5.9
		C138.5,93.8,138.4,94.7,138.2,95.6z M140.6,95.7c-0.3,0.4,0.2,1.5-0.5,1.4c-0.6,1.1,0,3.4-1.2,3.9c0.4-1.1-0.6-2.9,0.4-3.9
		c-0.2-2.1,0.6-4,0.8-6c0.1-0.7,1.4-0.3,1.1,0.4C141.4,93,141.4,94.4,140.6,95.7z M149.4,130.3c0-2.3-0.1-4.6,0-6.9
		c0.5,0,2.3-1.1,1.7,0c-0.3,0.7,1,0.1,0.7-0.5c0.9,0.6,1.8,1.5,1.4,2.7c0.3,1.4,0.1,2.7-1.3,3.3
		C151.6,129.6,150.4,130.3,149.4,130.3z M159.9,147c-0.9-2.7-2.4-5.2-3.5-7.8c-1.1-1.6-2.2-3.3-3.5-4.8c1.9,0.6,2.9,2.7,3.8,4.3
		c1.8,2.6,3,5.7,4,8.6C161,148.4,160,147.4,159.9,147z M190.3,141.6c0.1,1.5,0.6,2.9,0.8,4.3c0.3,0.7,0.5,1.5,0.4,2.3
		c-0.8-0.4-0.8-1.6-0.8-2.4c-1.2-0.5-0.2-3.3-0.8-4.3L190.3,141.6z M194.7,142.4l-0.3-0.1c-0.2-1.7-0.8-3.4-0.3-5
		c-0.4-0.8-0.4-1.9,0-2.7c0.1-0.6,0.2-1.8,0.3-2.4c-0.2-0.8-0.2-1.8,0-2.6c0.6,0.5,0.3,1.8,0.2,2.5
		C194.8,135.5,194.6,139,194.7,142.4z M195.9,121.7c1.3-0.4,0.3,1.2,0.2,1.8C194.9,124.9,195.7,122.4,195.9,121.7z M203.2,137.3
		h-0.3c-0.1,3-1.5,5.9-2.9,8.6c-0.2,0-0.5,0-0.7,0c-0.7,0.3-1.7,1.3-2.3,0.3c-1-0.7-0.4-2-0.5-3c0-1.2,0-2.4,0-3.6h-0.4
		c0-2.7,0-5.5,0-8.2h0.4c0.4-3.5,0.5-7.2,2-10.5c1,0.3,1.9,1.1,2.1,2.1c1.5,1.5,2.4,3.6,2.7,5.7l0.3-0.1
		C203.7,131.5,203.5,134.4,203.2,137.3z M207.5,133.4c-0.2,0-0.6,0-0.8,0c0-2.2-0.1-4.5,0.1-6.7c0.3-0.8-0.9-3.7,0.7-3.4
		c0.1,1.6,0,3.2-0.1,4.8C207.6,129.8,207.6,131.6,207.5,133.4z M209.1,122.7c-0.3-1,1.9-0.9,2.2-0.4c0.7-0.1,1.4,0.5,1.3,1.3
		c0.7,0.3,0.7,2.3,0,2.6c0.1,0.5-0.1,0.9-0.5,1.2c-0.3,1.3-1.5,3-3.1,2.8c0-0.3,0-1,0-1.3c-0.1-1-0.1-2,0-2.9
		C209.1,125,209,123.8,209.1,122.7z M210.3,105.3h0.4c0.2,1.6,0.4,3.1,0.4,4.7C209.6,109.1,210.6,106.7,210.3,105.3z M208.7,92.4
		c1.2-0.4,0.7,1.1,0.6,1.8c-0.1,2.5,0.6,5,0.5,7.5c-1.2-1.1-0.6-3.9-0.8-5.5h-0.4C208.7,95.4,208.7,93.4,208.7,92.4z M205.4,63.7
		c0.5-0.8,0.4-2.1,1.4-2.5c0,1.3,0.1,2.6-0.1,3.9c0.1,1.7,0.2,3.4,0.1,5.1c-0.2-0.1-0.5-0.2-0.6-0.3
		C205.1,68.1,204.3,65.7,205.4,63.7z M177.1,45.2v-0.9c0-1.8,0-1.6,0.1-3.4v-1.1c0.2-2.3,1.1-4.6,1.3-6.9c0.1-0.1,0.3-0.4,0.4-0.5
		c0-0.4,0.3-0.7,0.7-0.7c0.4-0.9,1.7-1.3,2.7-1.1c0.7,1.9,1.7,3.8,2,5.8c0.8,0.4,0.5,2,0.2,2.7c0.4,1.4,0.2,2.9,0.2,4.3
		c-0.1,0.6,0.5,2-0.3,2c-0.3,2.1-1.2,4.1-2.1,6c-0.2,1.1-0.8,2.6-2.2,2.7C177.3,51.9,177.1,48.2,177.1,45.2z M172.2,59.3
		c1.2-0.3,3.4,1.5,2.2,2.6c-1.2-0.6-2.4,0.1-3.5,0.5C171.1,61.3,171.7,60.4,172.2,59.3z M169.7,75.7c0,0.3,0.4-0.3,0.4-0.5
		c0-3.8,0.4-7.9,2.4-11.3c1-0.3,1.9,0.4,2.3,1.2c0.8,3.3,0.8,6.7,1.2,10.1v0.6c0,1.1,0,2,0,3.1v0.7c0.1,0.5-0.1,0.8-0.5,1
		c-0.4,0.8-0.9,2-1.8,2.1c-0.5,0.7-1.9,0.9-2.6,0.2C169.7,80.8,169.7,78.2,169.7,75.7z M173.6,86.1c-1.2,0.4-2.4-0.6-2.4-1.8
		c0.7-0.1,1.4-0.1,1.3,0.8c0.4-0.5,0.8-1,1.5-1.2c0.5-0.8,1.2-1.4,2-1.9c-0.3,0.5-0.1,1.7-0.7,1.8c-0.1,0.2-0.2,0.7-0.2,0.9
		C175.5,85.4,174.4,86.5,173.6,86.1z M171.7,93.2c-0.5-0.1-1-0.3-1.6-0.5c0.1-0.7,0.9-0.8,1.5-0.7c0.6,0.2,0.4,1,1.2,0.5
		c1,1,0.8,2.5,0.8,3.8c-0.2,0-0.5,0-0.7,0C173,95.1,172.3,94.2,171.7,93.2z M167,78.7c1.6,2.7,2,5.9,3.4,8.7l-0.3,0.2
		C168.5,84.9,167.7,81.7,167,78.7z M169.4,89c0.9-0.3,2.2,0.2,2.6,1c-1.4,0.3-2.9,0.6-4.3,0.9C167.8,89.9,168.8,89.5,169.4,89z
		 M167.8,95.1c-0.1-0.6-0.1-1.2,0-1.8c1.9,0.2,4.4,1.4,3.9,3.8c-0.1,0.1-0.3,0.3-0.5,0.3c-0.4,1.1-1.6,2.4-2.8,2.7l-0.3,0.2
		c0-0.7,0.1-2.1,0.1-2.8C167.5,96.9,167.8,95.9,167.8,95.1z M165.4,95.9c1.6,1.2,0.6,4,0.8,5.9h-0.4C166,99.8,165.6,97.9,165.4,95.9
		z M165.4,131.8c-0.2,0-0.5,0-0.7,0c0.2-4,0.8-7.9,1.7-11.8c-0.3-0.6-0.1-0.8,0.6-0.7c-0.1,0.7,0.5,2.2-0.3,2.3
		C166.5,125.1,165.3,128.4,165.4,131.8z M165.8,135.7c0-0.5,0-1,0-1.6c0.6,0,1.8,0,2.3,0C168.3,135.3,166.7,135.8,165.8,135.7z
		 M169.4,131.7c-1.1,0.1-2.1,0.1-3.2,0.1c0.1-0.4-0.4-1.7,0.4-1.5c0.3-2.2,0.7-4.4,1.2-6.6h0.3c0.3,2.1,0.8,4.2,1.3,6.3
		C169.9,129.6,169.9,132,169.4,131.7z M175.5,141.6c-0.2,0-0.5,0-0.6,0c-0.2-2.1-1.7-3.8-1.6-5.8c1.1,0.2,2,0.9,3.1,0.9
		C176.8,138.4,175.5,139.8,175.5,141.6z M180.2,126.4c-1.4,0.3-0.6-1.6-0.7-2.3C180.8,123.7,180.1,125.6,180.2,126.4z M180.9,116.1
		l-0.3,0.2c0,0.6,0,1.7,0,2.3c-1,0.3-0.6-1.2-1.5-0.4c0.1,2.3-0.8,4.6-0.9,6.9l-0.3,0.1c-0.1,0.6-0.3,1.7-0.4,2.3
		c-0.4,1.4,0.7,3.5-0.5,4.6c0.2,1.2,0.6,2.9-1,2.3c-0.6-0.6-0.4-1.5-0.8-2.1c-1.1,0.2-2.3-0.1-3.4-0.2c-1.2-5-2.1-10.1-4.3-14.8
		c0.8-2.2,0.6-4.6,0.8-6.9c-0.1-1.9-0.2-3.7-0.1-5.6h0.4c0.1-0.4-0.2-2.3,0.4-1.2c0.3,0.6,1.6,0.3,1.5,1.2c1.2,1.1,2.5,2.8,3.3,4.2
		c1.7,2.5,3.2,5.1,4.4,7.9c0.6,0.4,1.3,0.3,1.7-0.4c0.1-0.2,0.3-0.7,0.3-0.9c-0.4-0.7-0.9-1.5-0.8-2.3c0.5,0,0.9,0.1,1.2,0.5
		l0.4-0.1C181,114.4,181,115.5,180.9,116.1z M184.5,98.7c0.2-2.5,0.7-4.9,0.8-7.4c0.2,0,0.5,0,0.7,0c0.2,2.1,0.6,4.1,0.8,6.2
		C186.5,98.4,186.3,99.8,184.5,98.7z M189.2,97.1c-1-1.2,0-2.3,0.5-3.4l0.3-0.1c0.4,1.9,0.9,3.7,1.6,5.5
		C190.3,99.3,189,98.7,189.2,97.1z M197,104.1h-0.3c0.1,0.5,0,1.1-0.2,1.6c0.9,0.7-0.4,3-0.6,1.3c-0.2-1.3,0.3-2.5,0.5-3.7
		c-0.1-1.6,0.5-3,0.7-4.6l0.3-0.1C197.6,100.5,197.2,102.3,197,104.1z M205.6,92.1h0.3c-0.4,1.5,0.3,2.9,0.4,4.3
		c-0.6,1-0.9,2.6-1.9,3.2C204.5,97,205.5,94.6,205.6,92.1z M201.8,64c0.2,0,0.5,0,0.7,0c0.1,1.9-0.1,4.5-2,5.5
		C200.7,67.6,201.5,65.9,201.8,64z M187.3,76c0.3,0.4,1.2,0.4,1,1c0.2,0.9,1.4,1.4,1.6,2.2c0.9,1,1.6,2.2,2.3,3.4
		c1,0.7,1.7,1.8,2.1,2.9c1,0,1.4,1.6,2.7,1.2l0.1-2l0.3,0.1c0.2-4,0.9-7.9,2.1-11.8c0.3,0,0.8,0,1.1,0c0.6-0.5,1.3-0.4,2-0.4
		c0.1,0.1,0.3,0.3,0.4,0.4h0.4c0,0.6,0,1.7-0.1,2.3c-0.2,4.3,1.8,8.3,1.6,12.5c-1.1,2.4-1.3,5.2-1.6,7.8c-0.2,0-0.5,0-0.7,0
		c-0.2-3.9-1.2-7.7-2.2-11.4c-0.2-0.5-0.7-2.1-1.1-0.9c-1.4,0.4,0.1,2.7-1.1,3l0.1,0.2c-0.2,3.8-2.1,7.4-2,11.4l-0.3-0.1
		c0,1.1-0.3,2.1-0.6,3.2c-0.9,0.3-0.7-0.7-1-1.2c-0.2,0-0.6,0.1-0.8,0.1c-0.7-3.8-2.3-7.4-2.4-11.3c-0.9,0.1,0.2-2.3-1.1-1.2
		c-0.1,1.8-0.9,3.7-1.9,5.1c-0.8-2.2-0.5-5.6-3.2-6.6c-0.6-0.1-0.7,0.7-0.8,1.2c-0.8,4-1.1,8-1.6,12c-1.4,0.4-3.8,0.2-4.7,1.6
		c0.8,0.4,2.5-0.1,2.5,1.1l0.4,0.1c1.2-0.7,1.5,1.4,0.8,1.8c-0.2,2.4-0.5,4.8-0.9,7.2c-0.4-0.4-1.1-0.7-1.1-1.3
		c-0.6,0-1.5-0.8-1.4-1.5c-1.7,0.1-2-1.9-3.5-2.1c-0.2-1-1.7-1.1-1.7-2.2c-0.6-0.3-1-0.8-1.5-1.2c-0.9,0.4-1-0.3-0.8-1
		c1-0.6,1.8-1.6,3-1.8c0.5-0.3,0.5-0.8,0.7-1.3c2.2-2.2,1.7-5.9,0.2-8.4c-0.8,0.3-1.8-0.7-1.4-1.5l-0.1-0.3c0.2,0,0.5,0,0.7,0
		c0.5,0,1,0.1,1.5,0.2c0.3-0.6,0.6-1.3,1.4-1.4c0.8-1.3,1.5-2.7,1.5-4.2h0.3c0-1.3-0.1-2.6,0.1-3.9c-0.3-0.8-0.3-1.8,0-2.7
		c-0.1-2.1-0.2-4.2-0.1-6.3c0.9,0.9,0.9,2.9,0.7,4.2c-0.4,1.1,1,4.5-0.3,4.7c-0.1,2,0.2,4-0.1,5.9c0.4,0.8,0.3,1.9,0,2.7
		c0.4,1.2,1.5,1.4,2.5,0.7c0.2-2.3-0.2-4.6,0.2-6.8c-0.2-2.5-0.2-5-0.1-7.5c0.2,0.1,0.5,0.2,0.6,0.2c0.5,0.2,0.9,0.7,1.2,1.1
		c0.7-0.1,1.6,0.8,1.5,1.5c1.7,1.3,2.1,3.8,3.6,5.1c1.1,0.2,2.5,2.2,1.9,3.5c0.2,0.3,0.4,0.7,0.5,1c0.6,0,1,1,1,1.5
		c0.2,0.6,0.6,1.1,1,1.6c0.6-0.3,1.8-0.5,1.5-1.5c-1.2-2.9-3-5.4-4.3-8.2c-0.8-0.7-1.5-1.7-1.9-2.7c-0.9-0.2-1.2-1.2-1.6-2
		C186.8,74.7,187,75.5,187.3,76z M186.2,70.5c-0.2,0.6-0.3,1.6-1,1.8c0.3,0.7-1-0.2-1.4-0.2c0.4-0.6,0.7-1.5,1.5-1.6
		c0-0.9,0.8-1.2,1.6-1.1C186.6,69.7,186.7,70.5,186.2,70.5z M185.4,62.5c0.2,0,0.5-0.1,0.6-0.1c1.2,1.3,1,3.3,0.3,4.9
		c-1.9-0.1-1.9,2.6-3.7,2.6c-0.4,0.6-0.7,1.3-1.6,1.1c0.8-2.4-0.6-5.6,1.5-7.4C183.2,62.7,184.4,62.7,185.4,62.5z M182.7,58.6
		c0.7-0.1,2,0.5,1.8,1.4c-1,0.5-2,1.3-3.1,1.2C181.3,60.2,181.5,58.9,182.7,58.6z M185.3,51.5c0,2.5-1.9,4.6-3.7,6.2
		c-0.6,0-1.9,0-2.5,0c0-1-1.1-1.6-0.9-2.7c1,0.6,2,1,3.1,0.4c1.4-2,3.1-4.5,3.7-7.1c-0.4-0.6,0.1-0.9,0.6-1.1c0,1.1,0,3.3,0,4.3
		L185.3,51.5z M193.4,32.4c0.3,1,0.6,2,0.4,3c-0.3,1.2-1.4,2.8-2.8,2.7c-0.2,0.1-0.5,0.4-0.7,0.5c-0.1-2.1,0-4.2,0.4-6.3
		C191.5,32.4,192.8,32.4,193.4,32.4z M190.4,21c-0.2-4.2,0.7-8.5,0.8-12.7c0.3-1-0.7-3.3,0.3-3.6c0.2-1.3,0.3-2.6,0.4-3.9h0.3
		c0.1,1.9,1.1,4.1,0,5.8c0,1.7,0.1,3.4,0,5.1h-0.4c0,0.7,0,1.4-0.2,2.1c0.3,1.9-0.3,3.7-0.4,5.6c0.1,1.7,0.2,3.4,0.1,5.2h-0.4
		c-0.1,0.7,0.4,1.9-0.8,1.6C190.4,24.4,190.3,22.7,190.4,21z M191.4,42.4c-0.5,0.3-1.3,0.1-1.4-0.6c1.2-0.5,2.1-1.3,3.1-2.1
		C192.8,40.8,192.5,42.1,191.4,42.4z M213.1,3.6c0.7,0.3,1.7,0.6,1.5,1.5c-0.6,0-1.8,0-2.4,0C212.1,4.4,212.7,4,213.1,3.6z
		 M209.6,11.2c-0.1-2.3,1.4-5.4,4-5.2c1.9,0.5,1.8,2.9,1.6,4.5c0.1,1.4,0.2,2.7,0,4.1c0,1.2,0,2.5-0.7,3.5c0.3,1.2-0.5,2.3-0.8,3.3
		c-0.4,1.2-1,2.7-2.3,3.2c-2.3,0.4-2.2-3-2.3-4.6C208.9,17,209.1,14.1,209.6,11.2z M207.6,42.8c-0.1-1-0.1-2,0-3c0.2,0,0.5,0,0.7,0
		c0.2,1.2,0.7,2.4,1.2,3.5C208.8,43.3,208.2,43.1,207.6,42.8z M210.9,41.8c-0.8-2.3-1.6-4.5-2.6-6.7c0.1-0.7,0.3-1.3,0.5-1.9
		c0.2,0,0.5,0,0.6,0c0.9,3.6,1.9,7.1,3.2,10.5C211.6,43.6,209.8,44.2,210.9,41.8z M215.4,48.7c-0.3-1.4-0.3-2.7-0.1-4.1
		c-1.5-0.5-1.8-2.2-1.8-3.5l-0.3-0.2c-1-3.8-3.2-7.2-2.8-11.2c0.5-0.2,1.3,0.1,1.7-0.3c2.3-3.2,4.3-6.8,4.7-10.7
		c-0.3-0.7,0-1.6,0.6-1.9c0,1.7,0.1,3.5-0.1,5.2c0,0.3,0.1,0.8,0.1,1.1c0.8,0.4,0.5,1.9,0.3,2.6c-0.3,0.9,0.7,3.2-0.4,3.6
		c0.3,4.1-0.1,8.1-0.5,12.2c-0.4,1.1,0.2,2.6-0.7,3.5C216,46,216.3,48.3,215.4,48.7z M216.5,64.4c1.2-0.2,1,1.6,1.2,2.4
		C216.8,66.4,216.4,65.2,216.5,64.4z M229.4,97.9c0.4,1-0.5,0.9-1.2,0.8c-0.5,1.2-0.8-2.7,0-2.7c0-1.4,0-2.9,0-4.3
		c-1.3,0-0.1-2.6-0.4-3.5h0.4c0.2,0,0.6,0,0.8,0h0.4c0,1.8,0.2,3.7-0.1,5.6c0.2,0.6,0.2,1.3,0.2,1.9C230,95.9,230.1,97.6,229.4,97.9
		z M231.7,88.2l-0.2,0.3c1.7,1.2,2.9,4.2,1.4,6c-0.6,0.6-0.4,2.1-1.6,1.9c0-0.3,0-0.9,0-1.2h-0.4c0-0.7,0-2,0-2.7h-0.4
		C231.1,91.2,229.2,87.4,231.7,88.2z M224.6,128.8c0.1,1,0.3,2.5-0.6,3.1c0-1.8-0.1-3.7,0-5.5h0.4c0-0.8,0-2,0.8-2.4
		C225,125.6,225.3,127.3,224.6,128.8z M227.5,123.6c0.3,1.1,0.9,2,0.7,3.2c-1.3-1.4-1.5-4-1.6-5.9
		C227.7,121.1,226.9,123.2,227.5,123.6z M227,132.1c-1.2,0.8-1.6-1.4-0.8-1.8c0.1-0.6-0.2-1.6,0.8-1.2c0.2,1,0.7,2,0.9,3.1
		C227.6,132.2,227.2,132.2,227,132.1z M228.2,127.1h0.4c0.4,1.8,1.1,3.6,1.6,5.5C228.9,131.4,228.2,129,228.2,127.1z"/>
	<path class="st0" d="M233.6,57.8c-0.8-2.4-1.2-4.9-1.1-7.4c-0.4-0.7-0.5-1.8-1.5-1.6c0,1.3,0,2.6,0,3.9c0,0.5,0.1,1,0.1,1.5
		c0.5,1.1,0.2,2.2,0.2,3.3c0,0.6,0.1,1.7,0.2,2.2C233.7,60.7,233.8,59.3,233.6,57.8z"/>
	<path class="st0" d="M239.1,99c0.1,0.5,0.3,1.1,0.6,1.6V99C239.5,99,239.3,99,239.1,99z"/>
	<path class="st0" d="M218.1,83.5c-2.6,4.4-3.5,9.6-4.7,14.5c-0.1,2.6,0,5.2-0.2,7.8c0.1,3,0.9,5.9,2.5,8.4c0.2,0.1,0.5,0.3,0.6,0.4
		c2,1.7,5.3,1,7.1-0.8c0.9-1.7,2.1-3.4,2-5.4c0-1.7,0-3.4,0-5.1s0-3.4,0-5.1c-0.5-3.4-0.7-7.1-2.8-10c-1.2-0.7-1.8-2.3-3.3-2.7
		C219.6,84.3,219.5,83.1,218.1,83.5z M221.4,93.8c1.7,1.3,1.8,3.7,1.9,5.6c0.8,3.3,0,6.5-0.6,9.8l-0.3,0.1c0.2,0.7,0.1,1-0.3,1.1
		c0,1.3-1.1,1.9-1.3,3c-1.7,1-3.9,0.2-4.2-1.8h-0.4c0-1.1,0.1-3.3,0.1-4.4c-0.1-1.7-0.1-3.3-0.1-5h-0.4c0-2,0.1-3.9,0.4-5.8h0.3
		c0.2-0.9,0.5-1.8,0.9-2.7c0.6-0.5,1.4-0.8,1.6-1.6C220.2,91.6,221.1,92.7,221.4,93.8z"/>
	<path class="st0" d="M5.8,54.7c0.3-1.4,0.7-2.8,1.1-4.2c0-2.7-0.1-5.4,0.1-8.1c1.5,3.7,3.1,7.3,3.5,11.3c0.6,1.7,0.1,3.5,0.2,5.3
		c0.2,1.1,1.4,1.4,2.2,0.7c-0.1-1-0.2-2.1-0.2-3.1c-0.2-0.6-0.4-1.3-0.3-1.9c0-0.3,0-0.9,0-1.2c-0.6-2.8-0.8-5.8-1.1-8.6
		c-1.3-3.4,1-1.4,2-0.9c5,3.1,6.2,9.3,9,14c0.3,0,0.6,0,0.8,0c0.2,0,0.7,0,1,0c-0.3-1.7-0.6-3.3-0.4-5c0-2.5,0-4.9,0.1-7.4
		c0.4-1.2-0.2-3.1,0.8-4c-0.1,1-0.3,3.1-0.3,4.1C24,48.2,24.1,50.6,24,53c0.1,0.6-0.3,1.9,0.8,1.6c1.6-1.6,0.5-4,0.9-6
		c0-1.4,0.3-2.7,0.3-4.1c0.2-0.6-0.4-1.9,0.3-2c1.3-0.1,2.6-0.4,3.9-0.4c0.1,4.7,1.9,9.1,2.6,13.8c0.1,1.1,1,2,2.3,1.6
		c0.8,0.8,1.2,3.9,2.6,2.4c-0.5-1.1-0.9-2.1-1.4-3.2c-1.3-2.9-1.7-6.1-2.5-9.2c-0.2-1.7-0.9-3.3-1-5c1.1-0.1,2,0.9,3,0.8
		c1.2-0.9-0.2-2-0.8-2.7c0.7-0.6,1.6-0.8,2.4-1.1c-0.4-1.1-2.1-1-3.1-1.2c-1,0.4-2.9,0.8-3.2-0.6c-1.2-4.5-2.8-8.8-3.5-13.4
		c-0.8-4.1,0.6-1.4,0.8-0.4c0.4,0.2,0.8,0.3,1.1,0.4c-0.1-2.7-1.3-5.2-2.3-7.7c-2-5.9-2.5-12.3-2.8-18.5h-1.1
		C23.5-1,24.5,1.4,23,0.7C22.5-0.1,22.5-1,22.4-2h-1.8C20,2,20,5.9,19.3,9.8c-1.4-2.3-2.5-4.7-3.6-7.1c-0.4-1.3-0.5-2.6-0.6-3.9
		c0-0.2,0-0.6,0-0.8h-2.7c0,1.8,0,3.6,0.1,5.4c0.2,1.5,0.3,3,0.2,4.5c0,0.3,0.1,0.8,0.1,1.1s0.1,0.8,0.1,1c0.3,1,0.2,2.1,0.2,3.2
		c0.3,4.4,0.6,8.9,1.2,13.3c-0.2,0-0.5,0-0.7,0c-0.4-3.1-2-5.9-2.9-8.8c-0.8-2.7-2-5.2-2.6-7.9V9.4c1,0.1,3,0.2,4,0.3
		c0.1-0.2,0.3-0.5,0.4-0.7c-0.4-0.9-1.2-1.3-2.1-1.5c-1.1,0-2.1-0.1-3.2-0.1H6.9C6.2,4.8,5.6,2.3,4.4,0C4-0.6,3.7-1.3,3.3-2H1.1
		C0.3,0.5,0.3,3.2-0.5,5.7v7.8c0.5-1,0.7-2.1,0.9-3.2C2.1,9.2,4.2,9.9,6,9.8c1.3,2.9,2.1,6,3.3,8.9c0.8,2,0.7,4.3,1.6,6.3
		c0.8,0,1.4,0.3,1.5,1.1c-1.2,0.3-2.1,0.9-3.1,1.6c-0.4-0.1-0.8-0.2-1.2-0.3c-0.4,3.1-0.9,6.2-1.2,9.3c0.2,0.7,0.5,3.5-0.4,2.4
		c0-0.6,0.1-1.8,0.1-2.4c-0.3-2.2-0.8-4.3-1-6.5c-0.2-0.6-0.3-1.3-0.2-2c-0.4-0.9-1-1.7-1.7-2.4c-0.4-0.3-0.8-0.6-1.2-1.1
		c-1.3-0.1-1.6-1.9-3-1.8v5.2C0,28,0.5,27.8,1,27.7c0.7,3.1,0.7,6.2,1.2,9.3c0.3,1.8,0.5,3.6,0.4,5.4c0,0.5,0,1,0,1.6
		c-0.1,2.5,0.3,5.1-0.4,7.5c-0.1-0.1-0.3-0.3-0.4-0.4c-1.1-1-1.7-2.4-2.3-3.7v9.8c1,0.2,1.8,0.9,2.8,1.3C4.2,58.4,5.1,56.3,5.8,54.7
		z M0.6,7l0.3,0.1L1,6.7c0.4-2.2,1.5-4.1,1.7-6.3c0.6,0.4,0.7,1.5,0.9,2.3c0.6,1.5,1.4,3,1.3,4.7C5,7.5,5.2,7.7,5.3,7.8
		C4.1,7.2,0.6,9,0.6,7z M24,37.1c0.1-0.7-0.3-1.8,0.4-2.3c0.4-1.1-0.2-3.4,0.8-4c0.1,1.3-0.3,2.5-0.5,3.8
		C24.9,35.4,24.9,36.7,24,37.1z M26,41.7c0-0.2,0-0.6,0-0.7c0.9-0.1,1.8,0,2.8,0C28.4,42.2,26.9,41.6,26,41.7z M28,32.1
		c0.5,0,0.4,1.5,0.6,2.1c0,1.4,0.3,2.7,0.5,4c-1.2,0-2.4,0.1-3.5,0c0-0.5,0-1,0-1.5c0-0.3,0-0.9-0.1-1.2c0.2-0.4-0.3-1.7,0.3-1.4
		c0.4-1.7,0.2-3.9,1.2-5.2C27,30,27.7,31,28,32.1z M21.8,2.8l0.3-0.2c-0.4,1,0.8,3.1-0.7,3.6C22,5.5,20.6,3.5,21.8,2.8z M15.5,14.8
		h0.4c0-1.2,0-2.4,0-3.6c1.8,2.2,2.4,5.1,3.7,7.6c0.1,0.6,0.2,1.7,0.2,2.2c0.5-0.1,0.7-0.7,0.8-1.2c1.2-3.5,2-7.2,2.3-10.9
		c0.7-0.2,0.2,1.1,0.4,1.5l0.3,0.1c0.6,3.7,2.2,7.1,2.7,10.7c-1,2.3-1.9,4.7-2.7,7.1c-0.1,0.6,0.5,2.1-0.3,2
		c-0.1,2.7-0.6,5.4-0.9,8.2c-1.2,0.2-2.5,0.3-3.7,0.5c-0.1,0.5-0.4,0.8-0.9,0.8c0.4,0.4,0.5,0.9,0.2,1.4c1.3,0.8,3.1,0.3,4.5,0.1
		c0,1-0.1,3.1-0.1,4.1c0.1,2.5,0.2,5,0.1,7.5c-0.7-0.2-0.9-0.8-0.6-1.5c-1-2.7-2.4-5.3-4-7.6c-0.6,0-1.4-0.8-1.4-1.5
		c-0.5-0.1-1.1-0.6-1.1-1.1c-0.6,0-1.6-0.4-1.2-1.1c0.4-0.2,0.7-0.6,1.1-1c0.1-1.1,1.7-1.4,2.2-2.4c0-0.7,0.5-1.2,0.7-1.8
		c-0.3-1.1,0.4-2.1,0.4-3.2h-0.4c0.4-1.8-0.8-3.2-1.6-4.7l-0.4,0.1c-0.1-1.5-0.1-3.1,0-4.6c0-0.2,0-0.6,0-0.9h-0.4
		C15.5,19.5,15.4,17.2,15.5,14.8z M10.4,30.4l0.3,0.1c0.4-1.9,3.1-2.8,4.4-1.3c1.3,0.9,1.3,2.4,1.1,3.8c0.2,1.2-0.3,2.4-1,3.4
		c-0.2,0.6-0.2,1.3-1,1c-0.7,0.4-1.3,0.9-2,1.1c-0.4,0.4-0.7,1-1.4,0.9C10.3,36.4,10.3,33.4,10.4,30.4z M8.5,36.7h0.4
		c0.2,1.8,0.5,3.6,0.4,5.4H8.9C8.7,40.3,8.4,38.5,8.5,36.7z M3.4,30.4c0.8,0.2,0.9,1.1,0.6,1.8c1.2,0.3,0.6,2.3,1,3.3
		c1.3-0.2,0.1,2.4,0.2,3.2c0.2,0.7,0.1,1.5,0.1,2.2h0.4c0.1,2.3,0.1,4.7-0.5,7L5,48c0.4-1.6-0.7-3.4-0.3-5c-0.3-2-0.7-4-0.9-6
		c-0.8-0.4-0.5-1.9-0.2-2.6C3.3,33,3.4,31.7,3.4,30.4z M1,55c1,0.4,2.5-0.5,1.9,1.2C2.2,56.1,0.8,56,1,55z"/>
	<path class="st0" d="M112.6,60.8c2.3,1,2.5-0.4,2.2-1.8c-0.8-2.4-1.2-4.9-1.1-7.4c-0.4-0.7-0.5-1.8-1.5-1.6c0,1.3,0,2.6,0,3.9
		c0,0.5,0.1,1,0.1,1.5c0.5,1.1,0.2,2.2,0.2,3.3C112.5,59.2,112.6,60.3,112.6,60.8z"/>
	<path class="st0" d="M99.4,84.6c-2.6,4.4-3.5,9.6-4.7,14.5c-0.1,2.6,0,5.2-0.2,7.8c0.1,3,0.9,5.9,2.5,8.4c0.2,0.1,0.5,0.3,0.6,0.4
		c2,1.7,5.3,1,7.1-0.8c0.9-1.7,2.1-3.4,2-5.4c0-1.7,0-3.4,0-5.1s0-3.4,0-5.1c-0.5-3.4-0.7-7.1-2.8-10c-1.2-0.7-1.8-2.3-3.3-2.7
		C100.8,85.5,100.7,84.3,99.4,84.6z M102.6,95c1.7,1.3,1.8,3.7,1.9,5.6c0.8,3.3,0,6.5-0.6,9.8l-0.3,0.1c0.2,0.7,0.1,1-0.3,1.1
		c0,1.3-1.1,1.9-1.3,3c-1.7,1-3.9,0.2-4.2-1.8h-0.4c0-1.1,0.1-3.3,0.1-4.4c-0.1-1.7-0.1-3.3-0.1-5H97c0-2,0.1-3.9,0.4-5.8h0.3
		c0.2-0.9,0.5-1.8,0.9-2.7c0.6-0.5,1.4-0.8,1.6-1.6C101.5,92.7,102.4,93.9,102.6,95z"/>
	<path class="st0" d="M28,138.9c-0.2-1.4-0.5-2.8-0.6-4.2c-0.2-0.9-0.5-1.8-0.6-2.7c-0.8-2.3-1.6-4.6-2.9-6.7
		c-0.8-0.4-1.6-0.9-2.3-1.5c-1.2-0.4-0.8-2-1.2-2.9c-1.6,0.8-1.5,3.3-3,4.5c-0.5,0.8-1.1,1.6-1.7,2.4c-0.4,0.9-1,1.8-1,2.8
		c2.4,1.5,1.1,4.9,0.9,7.2c-0.4,2-0.1,4.1,0.1,6.1c0.3,2.7,1.6,5.1,2.8,7.5h4.8c1.4-1.6,2.4-3.6,3.4-5.5
		C27.5,143.6,28.2,141.3,28,138.9z M20.2,125.1v-0.4c0.7,0.5,1.9,0.9,1.9,1.9c-0.5,0.5-1.3,0.6-2,0.8c-0.4,0.3-0.7,0.7-1.1,0.9
		C19.1,127.2,19.3,125.8,20.2,125.1z M24.3,145.1c-0.4,1.6-1.5,3.3-2.9,4.2c0.2,0.6-1.6,0.6-1.2,0c0.1-0.7,0.8-1,1.2-1.5
		c-0.6,0.1-0.2-0.8-0.5-1.1c-0.7,0.8-2.1,0.3-2.3-0.5c-0.7-1.4-0.9-3.1-0.8-4.6c-0.1-0.5-0.1-1,0-1.6c-0.1-1.3-0.2-2.7-0.1-4h0.4
		c0.5-1.7,0.5-4.1,2.3-5.1c0.5,0,1,0,1.5,0c0.6,0.3,1.4,0.9,1.5,1.6c1.6,3.4,2,7.7-0.4,10.8c-0.2,0.8-0.5,1.8-1.2,2.3
		c-0.1,0.5-0.1,0.9-0.2,1.4c0.9-0.8,1.3-2.1,2.2-2.8c0.1-0.7,0.5-1.7,1.2-2C25.4,143.4,24.9,144.3,24.3,145.1z"/>
	<path class="st0" d="M-0.1,127.9h-0.4v23.4h0.3c0.2-0.1,0.3-0.1,0.4-0.1c0.2-5.2-0.1-10.4,0.2-15.6C0,133.1-0.2,130.5-0.1,127.9z"
		/>
</g>
<path class="st0" d="M154.8,85.7c-2.6,4.4-3.5,9.6-4.7,14.5c-0.1,2.6,0,5.2-0.2,7.8c0.1,3,0.9,5.9,2.5,8.4c0.2,0.1,0.5,0.3,0.6,0.4
	c2,1.7,5.3,1,7.1-0.8c0.9-1.7,2.1-3.4,2-5.4c0-1.7,0-3.4,0-5.1s0-3.4,0-5.1c-0.5-3.4-0.7-7.1-2.8-10c-1.2-0.7-1.8-2.3-3.3-2.7
	C156.3,86.5,156.2,85.3,154.8,85.7z M158.1,96c1.7,1.3,1.8,3.7,1.9,5.6c0.8,3.3,0,6.5-0.6,9.8l-0.3,0.1c0.2,0.7,0.1,1-0.3,1.1
	c0,1.3-1.1,1.9-1.3,3c-1.7,1-3.9,0.2-4.2-1.8h-0.4c0-1.1,0.1-3.3,0.1-4.4c-0.1-1.7-0.1-3.3-0.1-5h-0.4c0-2,0.1-3.9,0.4-5.8h0.3
	c0.2-0.9,0.5-1.8,0.9-2.7c0.6-0.5,1.4-0.8,1.6-1.6C156.9,93.8,157.8,94.9,158.1,96z"/>
<path class="st0" d="M36.1,87.3c-2.6,4.4-3.5,9.6-4.7,14.5c-0.1,2.6,0,5.2-0.2,7.8c0.1,3,0.9,5.9,2.5,8.4c0.2,0.1,0.5,0.3,0.6,0.4
	c2,1.7,5.3,1,7.1-0.8c0.9-1.7,2.1-3.4,2-5.4c0-1.7,0-3.4,0-5.1s0-3.4,0-5.1c-0.5-3.4-0.7-7.1-2.8-10c-1.2-0.7-1.8-2.3-3.3-2.7
	C37.6,88.1,37.5,86.9,36.1,87.3z M39.4,97.6c1.7,1.3,1.8,3.7,1.9,5.6c0.8,3.3,0,6.5-0.6,9.8l-0.3,0.1c0.2,0.7,0.1,1-0.3,1.1
	c0,1.3-1.1,1.9-1.3,3c-1.7,1-3.9,0.2-4.2-1.8h-0.4c0-1.1,0.1-3.3,0.1-4.4c-0.1-1.7-0.1-3.3-0.1-5h-0.4c0-2,0.1-3.9,0.4-5.8h0.3
	c0.2-0.9,0.5-1.8,0.9-2.7c0.6-0.5,1.4-0.8,1.6-1.6C38.2,95.4,39.1,96.5,39.4,97.6z"/>
</svg>
