<?xml version="1.0" encoding="utf-8"?>
<!-- Generator: Adobe Illustrator 26.0.3, SVG Export Plug-In . SVG Version: 6.00 Build 0)  -->
<svg version="1.1" id="Слой_1" xmlns="http://www.w3.org/2000/svg" xmlns:xlink="http://www.w3.org/1999/xlink" x="0px" y="0px"
	 viewBox="0 0 239.5 150.2" style="enable-background:new 0 0 239.5 150.2;" xml:space="preserve">
<g>
	<path d="M129.6,106.7c2.4-1.8,5.2-2.7,8.3-2.5c3.1,0,6.2,1.1,8.5,3.1c-0.9,1.1-1.6,2.2-2.4,3.3c-1.6-1.4-4-2.4-6.2-2.2
		c-2.2-0.2-4.5,0.7-6,2.5c-2.4,2.9-2,7.6,0.7,10.1c1.8,1.6,4.5,2.2,6.9,1.6c2-0.4,3.6-1.4,5.1-2.5c0.7,1.1,1.6,2.2,2.4,3.3
		c-1.4,1.3-3.1,2.4-5.1,2.9c-2.5,0.7-5.1,0.7-7.6,0.2c-2.7-0.5-5.2-2.2-6.9-4.5c-1.6-2.4-2.2-5.6-1.6-8.3
		C126.1,110.7,127.4,108.3,129.6,106.7z"/>
	<path d="M194.5,105.8c2.9-1.6,6.3-1.8,9.6-1.4c2.2,0.4,4.2,1.3,6,2.7c-0.7,1.1-1.6,2.2-2.4,3.3c-1.3-0.9-2.5-1.6-4-1.8
		c-2.2-0.4-4.3-0.4-6.3,0.5c-1.8,0.9-3.1,2.7-3.4,4.5c-0.4,2-0.2,4.2,0.9,5.8c1.1,1.6,2.9,2.9,4.9,3.1c2.5,0.4,5.2,0,7.4-1.6
		c0-0.9,0-1.8,0-2.9c-2.2,0-4.2,0-6.3,0c0-1.3,0-2.5,0-3.8c3.4,0,6.9,0,10.5,0c0,2.7,0,5.6,0,8.3c-2,1.8-4.5,3.3-7.2,3.6
		c-3.4,0.5-7.1,0.2-10-1.8c-2.2-1.4-3.8-3.6-4.5-6.2c-0.7-2.4-0.5-5.1,0.4-7.4C190.6,108.9,192.4,106.9,194.5,105.8z"/>
	<g>
		<path d="M-0.5,104.5c4.3,0,8.7,0,13,0c1.6,0,3.3,0.2,4.5,1.3c2.4,1.6,2.5,5.6,0.5,7.6c-0.4,0.4-0.7,0.5-1.1,0.7
			c1.6,0.4,3.1,1.8,3.6,3.4c0.7,2.4,0,5.2-2,7.1c-1.3,1.3-3.3,1.6-5.1,1.6c-4.5,0-9,0-13.4,0C-0.5,119-0.5,111.8-0.5,104.5z
			 M3.8,113c2.5,0,4.9,0,7.4,0c0.7,0,1.6,0,2.4-0.5c1.1-0.7,1.1-2.5,0-3.4c-0.5-0.4-1.3-0.5-1.8-0.5c-2.7,0-5.2,0-8,0
			C3.8,110.2,3.8,111.6,3.8,113z M3.8,122.3c2.9,0,5.8,0,8.9,0c0.7,0,1.4-0.2,2-0.5c1.3-0.9,1.3-3.1,0.2-4c-0.7-0.5-1.4-0.7-2.4-0.7
			c-2.9,0-5.8,0-8.7,0C3.8,118.7,3.8,120.5,3.8,122.3z"/>
	</g>
	<g>
		<path d="M34.2,104.5c1.4,0,2.9,0,4.3,0c3.4,7.2,7.1,14.3,10.5,21.5c-1.6,0-3.3,0-4.7,0c-0.7-1.4-1.4-3.1-2.2-4.7
			c-3.8,0-7.6,0-11.4,0c-0.7,1.4-1.4,3.1-2.2,4.7c-1.6,0-3.1,0-4.7,0C27.3,119,30.8,111.8,34.2,104.5z M36.4,109.2
			c-1.3,2.9-2.7,5.8-4,8.5c2.7,0,5.4,0,8,0C39.1,114.9,37.7,112,36.4,109.2z"/>
	</g>
	<path d="M53.9,104.5c1.4,0,2.9,0,4.3,0c0,5.8,0,11.8,0,17.6c3.4,0,6.9,0,10.3,0c0,1.3,0,2.7,0,4c-4.9,0-9.8,0-14.7,0
		C53.9,119,53.9,111.8,53.9,104.5z"/>
	<path d="M74.4,104.5c5.8,0,11.8,0,17.6,0c0,1.3,0,2.7,0,4c-4.5,0-8.9,0-13.4,0c0,1.4,0,2.9,0,4.3c3.4,0,6.9,0,10.5,0
		c0,1.3,0,2.5,0,3.8c-3.4,0-6.9,0-10.5,0c0,1.8,0,3.6,0,5.4c4.7,0,9.2,0,13.9,0c0,1.3,0,2.7,0,4c-6.2,0-12.1,0-18.3,0
		C74.4,119,74.4,111.8,74.4,104.5z"/>
	<path d="M99,104.5c1.4,0,2.7,0,4.2,0c0.9,1.1,1.8,2.4,2.9,3.4c3.1,3.8,6.2,7.8,9,11.8c-0.2-5.1-0.2-10.1-0.2-15.2
		c1.4,0,2.9,0,4.3,0c0,7.2,0,14.3,0,21.5c-1.4,0-2.9,0-4.2,0c-4-5.1-8.1-10-11.9-15c0.2,5.1,0.2,10.1,0.2,15.2c-1.4,0-2.9,0-4.3,0
		C99,119,99,111.8,99,104.5z"/>
	<path d="M152.2,104.5c1.4,0,2.9,0,4.3,0c0,7.2,0,14.3,0,21.5c-1.4,0-2.9,0-4.3,0C152.2,119,152.2,111.8,152.2,104.5z"/>
	<g>
		<path d="M171.7,104.5c1.4,0,2.9,0,4.3,0c3.4,7.2,7.1,14.3,10.5,21.5c-1.6,0-3.3,0-4.7,0c-0.7-1.4-1.4-3.1-2.2-4.7
			c-3.8,0-7.6,0-11.4,0c-0.7,1.4-1.4,3.1-2.2,4.7c-1.6,0-3.1,0-4.7,0C164.9,119,168.3,111.8,171.7,104.5z M173.9,109.2
			c-1.3,2.9-2.7,5.8-4,8.5c2.7,0,5.4,0,8,0C176.6,114.9,175.2,112,173.9,109.2z"/>
	</g>
	<g>
		<path d="M225.3,104.7c1.4,0,2.9,0,4.3,0c3.4,7.2,7.1,14.3,10.5,21.5c-1.6,0-3.3,0-4.7,0c-0.7-1.6-1.4-3.1-2.2-4.7
			c-3.8,0-7.6,0-11.4,0c-0.7,1.6-1.4,3.1-2.2,4.7c-1.6,0-3.1,0-4.7,0C218.4,119,221.9,111.8,225.3,104.7z M227.5,109.1
			c-1.3,2.9-2.7,5.8-4,8.7c2.7,0,5.4,0,8,0C230.2,114.9,228.7,112,227.5,109.1z"/>
	</g>
</g>
</svg>
