<?xml version="1.0" encoding="utf-8"?>
<!-- Generator: Adobe Illustrator 26.0.3, SVG Export Plug-In . SVG Version: 6.00 Build 0)  -->
<svg version="1.0" id="Слой_1" xmlns="http://www.w3.org/2000/svg" xmlns:xlink="http://www.w3.org/1999/xlink" x="0px" y="0px"
	 viewBox="0 0 239.5 150.2" style="enable-background:new 0 0 239.5 150.2;" xml:space="preserve">
<g>
	<g>
		<path d="M184.3,87.6c0.9-0.2,1.9-0.1,2.8-0.1c4.4,0,9-0.1,13.4,0.1c3.7,0.2,7.7,1.3,10.6,3.7c3.1,2.7,4.8,7,4.7,11.1
			c0.1,3.7-1.2,7.6-3.6,10.4c-2.2,2.4-5.4,4-8.6,4.3c-0.8,0.1-2.8,0.2-5,0.1c-6.4,0-12.9,0.1-19.3,0c-1.4-0.1-2.9-0.2-4.3-0.8
			c-3.4-1.2-6.2-3.6-7.7-6.9c-2.1-4.2-2.1-9.4-0.1-13.7c1.3-2.9,3.6-5.2,6.5-6.5c2.8-1.3,5.9-1.9,9.1-1.7c0,0.1,0,0.3,0,0.3
			c-1.3,0.3-2.7,0.5-3.8,1c-2.8,1.3-4.9,3.7-6.2,6.5c-1.6,3.6-1.9,7.8-0.8,11.6c0.7,2.8,2.2,5.6,4.7,7.2c2.6,1.6,5.8,1.5,8.8,1.6
			c0.9-0.1,2.1,0.1,2.7-0.8c0.3-1,0.2-2.3,0.3-3.4c0-7.2,0-14.4,0-21.6c0-0.7-0.3-1.4-0.9-1.6c-1-0.3-2.2-0.2-3.3-0.6
			C184,87.8,184.2,87.6,184.3,87.6z M195.6,88.5c-0.6,0.1-1.3,0.1-1.9,0.6c-0.5,0.3-0.3,1-0.3,1.5c0,7.8,0,15.5,0,23.3
			c0,0.7,0.1,1.7,0.9,2c1.4,0.3,2.8,0.2,4.2,0.2c2.3-0.1,4.9-0.3,6.9-1.7c1.6-1.3,2.9-2.9,3.7-4.8c1.3-3,1.6-6.3,1.3-9.5
			c-0.6-3.5-2.1-7.1-5-9.2C202.5,88.7,198.9,88,195.6,88.5z"/>
	</g>
	<g>
		<path d="M174.7,123.6c2,0,4.1,0,6,0c1.7,0,3.6,0.6,4.8,1.9c1.9,2.2,1.7,5.8-0.3,7.9c-0.9,0.9-2.2,1.3-3.5,1.3c-2.4,0-4.9,0-7.3,0
			c0,0,0-0.1,0-0.2c0.7,0,1.4,0,2.1-0.2c0.2-1.3,0-2.6,0.1-3.8c0-2.1,0.1-4.2,0-6.3c-0.5-0.3-1.2-0.3-1.7-0.3
			C174.7,123.9,174.7,123.6,174.7,123.6z M178.5,124c0,3.5,0,6.9,0,10.4c1.4,0,2.8,0.2,4.1-0.3c1.7-0.9,2.3-3,2.3-4.8
			c0-1.7-0.7-3.6-2.2-4.5C181.5,124,180,124,178.5,124z"/>
	</g>
	<path d="M189.6,124.8c0.5-0.1,1,0.1,1.2,0.6c0.2,0.7-0.6,1.4-1.3,1C188.9,126.1,188.9,125,189.6,124.8z"/>
	<g>
		<path d="M195,128.4c1-0.3,2.2-0.2,3.3,0.2c1.5,0.9,2,3.1,1,4.7c-1.2,1.7-3.8,2.1-5.5,0.8C191.9,132.6,192.6,129.2,195,128.4z
			 M195.3,128.7c-1.2,0.7-1.3,2.2-1,3.4c0.1,0.9,0.6,1.9,1.5,2.2c0.9,0.3,1.9-0.3,2.2-1.2c0.3-1.2,0.3-2.4-0.2-3.6
			C197.3,128.7,196.3,128.4,195.3,128.7z"/>
	</g>
	<path d="M203.5,129.9c0.5-0.7,1-1.6,2-1.5c0.8,0,0.9,1.2,0.2,1.5c-0.3-0.2-0.7-0.5-1-0.7c-0.6,0.5-1.3,1-1.3,1.9c0,1,0,2.1,0,3
		c0.2,0.3,0.8,0.2,1.2,0.3v0.1c-1.3,0-2.6,0-3.7,0v-0.1c0.3,0,1,0.1,1.2-0.5c0.1-1.5,0-3,0-4.5c-0.5,0-0.8,0-1.3,0
		c0.9-0.3,1.7-0.7,2.7-1C203.3,129,203.5,129.4,203.5,129.9z"/>
	<path d="M188.1,129.6c0.9-0.3,1.7-0.7,2.6-1c0.1,1.9,0,3.8,0,5.7c0.2,0.5,0.7,0.3,1,0.3v0.1c-1.2,0-2.3,0-3.6,0v-0.1
		c0.5,0,1,0,1-0.6c0-1.5,0-2.9,0-4.4C188.9,129.6,188.5,129.6,188.1,129.6z"/>
</g>
</svg>
