<?xml version="1.0" encoding="utf-8"?>
<!-- Generator: Adobe Illustrator 26.0.3, SVG Export Plug-In . SVG Version: 6.00 Build 0)  -->
<svg version="1.1" id="Слой_30" xmlns="http://www.w3.org/2000/svg" xmlns:xlink="http://www.w3.org/1999/xlink" x="0px"
	 y="0px" viewBox="0 0 239.5 150.2" style="enable-background:new 0 0 239.5 150.2;" xml:space="preserve">
<g>
	<path d="M200.7,105.5c0.7-0.7,1.4-1.4,2-2.2c6,6,11.9,12,17.8,18c1.6,0,3.3,0,4.9,0c-6.8-6.8-13.5-13.7-20.3-20.5
		c5.4-5.6,10.8-11.1,16.1-16.7c-1.6,0-3.2,0-4.8,0c-5.3,5.4-10.5,10.9-15.8,16.3c0-15.5,0-31,0-46.5c-1.3,0-2.5,0-3.8,0
		c0,22.5,0,44.9,0,67.4c1.3,0,2.5,0,3.8,0C200.7,116,200.7,110.8,200.7,105.5z"/>
	<path d="M192.2,116.6c-0.8-0.8-1.6-1.6-2.4-2.4c-1.5,1.2-3.1,2.1-4.8,2.8c-2,0.8-4.1,1.3-6.3,1.3c-1.6-0.1-3.3-0.5-4.8-1
		c-2.2-0.8-4.2-2.1-5.7-3.8c-0.8-1-1.5-2.1-2.1-3.2c-1.3-2.4-2-5-2-7.7c0-1.1,0.2-2.2,0.4-3.3c0.6-2.5,1.7-5,3.3-7
		c0.7-0.9,1.6-1.6,2.5-2.2c2.2-1.6,4.8-2.7,7.5-3c1.4-0.2,2.9,0,4.3,0.3c2.7,0.6,5.3,1.6,7.4,3.4c0.8-0.8,1.5-1.6,2.3-2.3
		c0-0.1,0-0.2-0.1-0.3c-0.3-0.3-0.7-0.5-1-0.8c-3.2-2.2-7.1-3.5-11-3.7c-1.2,0-2.3,0.1-3.4,0.3c-2.9,0.5-5.7,1.6-8.1,3.2
		c-1.2,0.8-2.3,1.8-3.2,2.9c-2.5,3.2-4.2,7.2-4.4,11.3c-0.1,1.5,0.1,3.1,0.4,4.6c0.3,1.6,0.8,3.1,1.4,4.6c0.9,2.1,2.1,4.1,3.8,5.7
		c1.7,1.5,3.6,2.8,5.7,3.7c2.4,1,5,1.6,7.6,1.6c2.5-0.1,5-0.7,7.3-1.6C188.7,119.1,190.6,118,192.2,116.6z"/>
	<path d="M167,125.7c1.1-0.1,2.3,0.3,3.2,1c0.2-0.2,0.4-0.4,0.6-0.6c-0.9-0.7-2.1-1.1-3.3-1.2c-0.8,0-1.7,0.2-2.4,0.6
		c-0.7,0.4-1.4,0.9-1.9,1.5c-0.7,0.9-1.1,2-1.1,3.2c0,1.2,0.5,2.4,1.2,3.4c0.6,0.8,1.5,1.4,2.4,1.7c0.8,0.3,1.7,0.4,2.5,0.3
		c1-0.2,1.9-0.6,2.7-1.2c-0.2-0.2-0.4-0.4-0.6-0.6c-1.2,0.9-2.9,1.3-4.3,0.7c-0.9-0.3-1.7-0.8-2.2-1.6c-0.5-0.8-0.8-1.7-0.9-2.7
		c0-1.2,0.5-2.3,1.2-3.2C164.8,126.3,165.9,125.9,167,125.7z"/>
	<path d="M205.3,125c-1.5,1.6-2.9,3.2-4.4,4.7c0-1.6,0-3.2,0-4.8c-0.3,0-0.5,0-0.8,0c0,3.5,0,7.1,0,10.6c0.3,0,0.5,0,0.8,0
		c0-1.5,0-3.1,0-4.6c0.2-0.3,0.5-0.5,0.8-0.8c1.3,1.8,2.5,3.6,3.8,5.4c0.3,0,0.7,0,1,0c-1.4-2-2.8-4-4.2-6c1.4-1.5,2.8-3,4.2-4.6
		C206,125,205.6,124.9,205.3,125z"/>
	<path d="M207.6,124.9c0,3.5,0,7.1,0,10.6c0.3,0,0.5,0,0.8,0c0-3.5,0-7.1,0-10.6C208.1,124.9,207.8,124.9,207.6,124.9z"/>
	<path d="M179.5,135.6c0.3,0,0.5,0,0.8,0c0-3.5,0-7.1,0-10.6c-0.3,0-0.5,0-0.8,0C179.5,128.5,179.5,132,179.5,135.6z"/>
	<path d="M188.8,125c-0.3,0.2-0.2,0.8,0.1,0.9c0.3,0.1,0.7-0.1,0.7-0.5C189.6,125,189.1,124.8,188.8,125z"/>
	<path d="M218,125c-0.3,0.2-0.3,0.8,0.1,0.9c0.3,0.1,0.6-0.2,0.6-0.5C218.8,125,218.3,124.8,218,125z"/>
	<path d="M177.3,130.1c-0.7-0.8-1.7-1.3-2.8-1.4c-0.9,0-1.7,0.4-2.3,0.9c-0.7,0.6-1,1.5-1.1,2.3c-0.1,1,0.3,1.9,1,2.6
		c0.6,0.7,1.6,1,2.5,1.1c1.1,0,2.1-0.6,2.8-1.4c0,0.4,0,0.8,0,1.2c0.3,0,0.5,0,0.8,0c0-2.2,0-4.4,0-6.6c-0.3,0-0.5,0-0.8,0
		C177.3,129.3,177.3,129.7,177.3,130.1z M176.8,133.7c-0.7,1.1-2.3,1.6-3.5,1c-1.2-0.6-1.8-2.1-1.4-3.3c0.2-0.6,0.6-1.1,1.1-1.4
		c0.4-0.2,0.8-0.4,1.3-0.4c0.7-0.1,1.5,0.2,2.1,0.7c0.5,0.4,0.8,1.1,0.9,1.7C177.3,132.6,177.1,133.2,176.8,133.7z"/>
	<path d="M193.8,128.8c-0.8-0.1-1.6,0.2-2.1,0.8c0-0.2,0-0.4,0-0.6c-0.3,0-0.5,0-0.8,0c0,2.2,0,4.4,0,6.6c0.3,0,0.5,0,0.8,0
		c0-1.4,0-2.8,0-4.1c0-0.5,0.2-1,0.5-1.4c0.3-0.3,0.6-0.4,1-0.5c0.8-0.2,1.7,0.3,2.1,1.1c0.2,0.4,0.2,0.9,0.2,1.3c0,1.2,0,2.4,0,3.6
		c0.3,0,0.5,0,0.8,0c0-1.4,0-2.8,0-4.2c0-0.6-0.3-1.3-0.7-1.8C195.1,129.1,194.4,128.8,193.8,128.8z"/>
	<path d="M215.5,129.6c-0.5-0.5-1.3-0.8-2-0.9c-0.8-0.1-1.5,0.1-2.2,0.5c-0.3,0.2-0.7,0.5-0.9,0.8c-0.5,0.7-0.7,1.5-0.7,2.3
		c0.1,1.2,0.7,2.3,1.7,2.9c0.7,0.4,1.5,0.5,2.2,0.4c1.1-0.2,2.1-0.9,2.6-1.9c-0.2-0.1-0.4-0.2-0.7-0.3c-0.5,0.9-1.5,1.5-2.5,1.5
		c-0.7,0-1.3-0.3-1.8-0.7c-0.6-0.5-0.9-1.2-0.9-2c2.1,0,4.1,0,6.2,0C216.6,131.3,216.2,130.3,215.5,129.6z M211.4,130.1
		c0.4-0.4,0.9-0.6,1.5-0.6c0.6-0.1,1.3,0.1,1.8,0.5c0.5,0.4,0.9,0.9,1.2,1.5c-1.8,0-3.5,0-5.3,0C210.7,131,211,130.5,211.4,130.1z"
		/>
	<path d="M224.5,129.3c-0.4-0.3-0.9-0.5-1.5-0.6c-0.8-0.1-1.6,0.2-2.1,0.8c0-0.2,0-0.4,0-0.6c-0.3,0-0.5,0-0.8,0c0,2.2,0,4.4,0,6.6
		c0.3,0,0.5,0,0.8,0c0-1.4,0-2.8,0-4.2c0-0.7,0.4-1.4,1-1.7c0.4-0.2,0.9-0.3,1.4-0.1c0.4,0.1,0.8,0.4,1,0.8c0.3,0.5,0.3,1,0.3,1.6
		c0,1.2,0,2.4,0,3.6c0.3,0,0.5,0,0.8,0c0-1.4,0-2.7,0-4.1C225.5,130.7,225.1,129.9,224.5,129.3z"/>
	<path d="M184.4,134.1c-0.2-0.2-0.2-0.5-0.4-0.7c-0.7-1.5-1.4-3-2-4.4c-0.3,0-0.6,0-0.9,0c1.1,2.3,2.2,4.7,3.3,7
		c1.1-2.3,2.1-4.7,3.2-7c-0.3,0-0.6,0-0.9,0C186,130.7,185.2,132.4,184.4,134.1z"/>
	<path d="M217.9,135.6c0.3,0,0.5,0,0.8,0c0-2.2,0-4.4,0-6.6c-0.3,0-0.5,0-0.8,0C217.9,131.2,217.9,133.4,217.9,135.6z"/>
	<path d="M188.7,135.6c0.3,0,0.5,0,0.8,0c0-2.2,0-4.4,0-6.6c-0.3,0-0.5,0-0.8,0C188.7,131.2,188.7,133.4,188.7,135.6z"/>
</g>
</svg>
