<?xml version="1.0" encoding="utf-8"?>
<!-- Generator: Adobe Illustrator 26.0.3, SVG Export Plug-In . SVG Version: 6.00 Build 0)  -->
<svg version="1.1" id="Слой_35" xmlns="http://www.w3.org/2000/svg" xmlns:xlink="http://www.w3.org/1999/xlink" x="0px"
	 y="0px" viewBox="0 0 239.5 150.2" style="enable-background:new 0 0 239.5 150.2;" xml:space="preserve">
<style type="text/css">
	.st0{fill:#010101;}
</style>
<g>
	<path class="st0" d="M125.8,124.9c4.9-2,9.4-4.8,13.5-8.1c1.6-1.4,3.3-2.7,4.7-4.4c2.2-2.3,4.2-4.7,5.9-7.3
		c1.7-2.7,3.5-5.5,4.7-8.5c0.8-1.5,1.4-3.1,1.9-4.6c0.7-1.5,0.9-3.1,1.4-4.6c0.9-3.7,1.4-7.5,1.7-11.3c0.2-2.7-0.1-5.3-0.3-8
		c-0.5-3.3-1-6.7-2-9.9c-0.9-3.3-2.3-6.5-3.8-9.6c-1.4-2.5-2.8-5-4.5-7.3c-2.2-2.9-4.6-5.7-7.3-8.2c-4.9-4.5-10.5-8.3-16.8-10.7
		c-2.7-1.2-5.6-2.2-8.5-2.8c-1-0.2-1.9-0.6-2.9-0.7c-2.9-0.5-5.8-0.8-8.7-0.7c-4.4-0.1-8.9,0.2-13.1,1.4c-2.5,0.6-5,1.3-7.4,2.2
		c-2.1,0.9-4.3,1.7-6.3,2.9c-10.5,5.7-19.1,14.8-24.2,25.6c-0.2,0.5-0.4,1.1-0.7,1.6c-0.8,1.5-1.2,3.1-1.9,4.7
		c-0.7,2.2-1.2,4.4-1.8,6.6c-0.8,4.9-1.1,10-0.7,15c0.2,1.9,0.4,3.9,0.7,5.8c0.4,1.9,0.9,3.9,1.5,5.8c2.4,7.6,6.5,14.6,11.7,20.6
		c3.1,3.7,6.8,6.8,10.8,9.5c4.2,2.9,8.8,5,13.7,6.6c10.7,3.5,22.4,3.5,33.2,0.3C122.2,126.3,124.1,125.7,125.8,124.9z M95.4,125.8
		c-2.3-0.3-4.4-0.9-6.6-1.6c-2-0.4-3.8-1.4-5.8-2.1c-3.8-1.7-7.4-3.9-10.8-6.4c-0.9-0.7-1.7-1.5-2.6-2.2c-4.2-3.9-8-8.3-10.9-13.3
		c-4.5-7.2-6.9-15.6-7.4-24.1C51,70.9,51.7,65.4,53,60.2c1.8-6.4,4.8-12.6,8.8-17.9c1.4-2,3.1-3.7,4.7-5.5
		c6.1-5.9,13.4-10.7,21.4-13.3c1.7-0.4,3.3-1.1,5.1-1.4c5.4-0.9,10.8-1.9,16.3-0.9c3,0.5,6,0.8,8.9,1.8c3.2,0.8,6.2,2.2,9.2,3.6
		c4.6,2.3,8.9,5.3,12.7,8.9c7.6,7.1,13.1,16.5,15.4,26.7c0.7,2.2,0.8,4.6,1.2,6.9c0.1,3.2,0.2,6.3,0,9.5c-0.3,1.5-0.3,3.1-0.6,4.6
		c-0.8,4-1.9,8.1-3.7,11.8c-2.3,5.1-5.4,9.9-9.2,14c-3.1,3.6-6.8,6.6-10.8,9.2c-4.2,2.7-8.8,5-13.6,6.2c-2,0.6-4.1,1.2-6.2,1.4
		C106.9,126.8,101.1,126.8,95.4,125.8z"/>
	<path class="st0" d="M54,74.4c-0.1,0-0.3,0-0.5,0c-0.1,1.1,0,2.3,0.1,3.4c0.1,0,0.4,0.1,0.6,0.1C54.1,76.7,54.3,75.5,54,74.4z"/>
	<path class="st0" d="M54.2,69.3c-0.2,0-0.4,0-0.6,0c-0.1,1.4-0.1,2.8,0,4.2l0.4-0.1C54,72.1,54.1,70.7,54.2,69.3z"/>
	<path class="st0" d="M54,65c-0.1,1.1-0.3,2.2-0.3,3.3c0.1,0.1,0.3,0.2,0.4,0.3c0.3-1.1,0.3-2.3,0.6-3.5C54.5,65,54.2,65,54,65z"/>
	<path class="st0" d="M54.4,78.9c-0.2,0-0.5,0-0.7,0c0.1,1.2,0.3,2.4,0.5,3.5c0.1,0,0.3,0,0.5,0C54.7,81.2,54.3,80.1,54.4,78.9z"/>
	<path class="st0" d="M55.7,60.7c-0.2,0-0.5,0-0.6,0c-0.3,1.1-0.6,2.1-0.7,3.2c0.1,0,0.4,0,0.6,0C55.2,62.9,55.4,61.8,55.7,60.7z"/>
	<path class="st0" d="M54.6,83.4c0.1,1.1,0.4,2.2,0.7,3.3c0.2,0,0.5,0,0.6,0c-0.3-1.1-0.6-2.2-0.8-3.3
		C54.9,83.4,54.7,83.4,54.6,83.4z"/>
	<path class="st0" d="M57,56.4c-0.1,0-0.4,0-0.6,0c-0.4,1.1-1,2.2-1,3.4c0.1-0.1,0.4-0.2,0.5-0.2C56.3,58.5,56.7,57.5,57,56.4z"/>
	<path class="st0" d="M55.6,87.7c0.3,1.1,0.6,2.3,1.1,3.3c0.2,0,0.5,0.1,0.6,0.2c-0.3-1.1-0.8-2.2-1.1-3.3
		C56,87.9,55.7,87.7,55.6,87.7z"/>
	<path class="st0" d="M55.8,76.8c0,0.4,0.3,0.7,0.6,0.9c0-1.1,0-2.3-0.3-3.4l-0.3-0.1C55.8,75,55.8,75.9,55.8,76.8z"/>
	<path class="st0" d="M55.8,73.2c0.1,0,0.3-0.1,0.4-0.2c0-1.2,0.3-2.4,0.2-3.6c-0.1,0.1-0.4,0.2-0.6,0.3
		C55.8,70.9,55.8,72.1,55.8,73.2z"/>
	<path class="st0" d="M57,81.7c0-1.1-0.3-2.1-0.4-3.2c-0.1,0-0.4-0.1-0.5-0.1c0,1.1,0.2,2.2,0.4,3.3C56.6,81.7,56.9,81.7,57,81.7z"
		/>
	<path class="st0" d="M56.4,65.4c-0.1,1-0.2,1.9-0.3,2.9c0.1,0.1,0.2,0.4,0.3,0.5c0.4-1.1,0.5-2.3,0.6-3.4
		C56.8,65.4,56.6,65.4,56.4,65.4z"/>
	<path class="st0" d="M57.9,85.9c-0.2-1-0.4-2-0.6-3c-0.1-0.3-0.3-0.4-0.6-0.1c0.2,1,0.4,2,0.7,3C57.5,85.8,57.8,85.9,57.9,85.9z"/>
	<path class="st0" d="M57.4,61.2c-0.3,1-0.5,2.1-0.8,3.2c0.2,0,0.5,0,0.6,0c0.2-1.1,0.5-2.1,0.7-3.2C57.8,61.2,57.5,61.2,57.4,61.2z
		"/>
	<path class="st0" d="M58.3,52.3c-0.5,1-1.2,1.9-1.4,3c0.1,0.1,0.3,0.2,0.4,0.2c0.5-0.8,0.8-1.7,1.3-2.5
		C58.8,52.8,58.8,52.1,58.3,52.3z"/>
	<path class="st0" d="M57,92.1c0.3,0.7,0.6,1.3,0.9,2c0.2,0.5,0.4,1.2,1,1.2c-0.3-1.1-0.9-2.1-1.3-3.2C57.5,92.1,57.2,92.1,57,92.1z
		"/>
	<path class="st0" d="M59.2,57.3c-0.2,0-0.4,0.1-0.7,0.1c-0.3,1-0.7,2-0.9,3c0.1,0,0.4,0,0.5,0C58.5,59.3,58.9,58.3,59.2,57.3z"/>
	<path class="st0" d="M57.8,86.7c0.1,1.2,0.5,2.3,0.9,3.3c0.1,0,0.4,0,0.5,0c-0.3-1.1-0.6-2.1-1-3.2C58.1,86.9,57.9,86.8,57.8,86.7z
		"/>
	<path class="st0" d="M58.9,96c0.5,1,1,2,1.6,3c0.1,0,0.4,0,0.6,0c-0.5-1-1.1-2-1.6-3C59.3,96,59.1,96,58.9,96z"/>
	<path class="st0" d="M60.3,48.3c-0.6,0.9-1.1,1.9-1.6,2.8c0.1,0.1,0.3,0.3,0.3,0.4c0.9-0.9,1.3-2.1,1.8-3.3
		C60.7,48.2,60.4,48.3,60.3,48.3z"/>
	<path class="st0" d="M60.9,53.3c-0.1,0-0.4,0-0.5,0c-0.5,1-1.2,2.1-1.1,3.3C60.1,55.7,60.4,54.4,60.9,53.3z"/>
	<path class="st0" d="M59.2,91c0.3,0.9,0.6,1.8,1.1,2.6c0.1,0.3,0.4,0.5,0.7,0.5c-0.3-1.1-0.7-2-1.2-3C59.6,91,59.3,91,59.2,91z"/>
	<path class="st0" d="M61.4,78.7c0,1.4,0.3,2.7,0.3,4c0.4,0,0.7,0,1.1,0c0.1-0.4,0.2-0.7,0.3-1.1c2.9-1.5,5.9-3.1,8.8-4.6
		c0-0.4,0-0.8,0-1.2c-3.1-0.7-6.2-1.4-9.3-2c-0.6,0-0.7-0.7-0.9-1.2c-0.3,0-0.6,0.1-0.9,0.1c0.1,1.3,0.3,2.6,0.3,3.9
		c0.4,0,0.8,0,1.2,0c0-0.3,0-0.7,0.1-1c2,0.2,4,0.6,6,0.9c-0.1,0.2-0.2,0.4-0.4,0.5c-1.7,0.9-3.4,1.8-5.1,2.6
		c-0.1-0.4-0.2-0.7-0.3-1C62.2,78.7,61.8,78.7,61.4,78.7z"/>
	<path class="st0" d="M63,97.8c-0.5-1-1.1-2-1.6-3c-0.1,0-0.4,0-0.6,0c0.4,1,1,2,1.6,2.9C62.6,97.8,62.9,97.8,63,97.8z"/>
	<path class="st0" d="M62.2,69.9c0.1-0.3,0.2-0.7,0.3-1c2.6,0.5,5.1,1.1,7.8,1.4c0,0.5-0.1,1-0.1,1.4c0.4,0,0.9,0,1.3,0
		c0.5-2.8,1-5.6,1.7-8.4c-1-0.1-2-0.3-3-0.6c-0.2,0.5-0.3,1-0.3,1.6c0.5,0.1,1,0.2,1.5,0.3c-0.1,1.3-0.5,2.5-0.7,3.7
		c-1.2,0-2.3-0.3-3.5-0.5c0-1.1,0.4-2.1,0.4-3.2c-0.4,0-0.9,0-1.3-0.1c-0.2,0.9-0.4,1.9-0.5,2.8c-1,0-1.9-0.3-2.8-0.5
		c0.1-1.2,0.5-2.4,0.6-3.6c0.5,0,1,0,1.5-0.1c0-0.5,0-0.9,0.1-1.4c-0.8-0.2-1.7-0.4-2.5-0.4c-0.6,2.8-1.1,5.5-1.7,8.3
		C61.4,69.8,61.8,69.8,62.2,69.9z"/>
	<path class="st0" d="M62.1,49.8c-0.5,0.8-1,1.7-1.3,2.7c0.1,0,0.4-0.1,0.6-0.1c0.4-1.1,1.2-1.9,1.5-3
		C62.6,49.4,62.3,49.5,62.1,49.8z"/>
	<path class="st0" d="M63.4,44.6c-0.2,0-0.5-0.1-0.7-0.1c-0.6,1.1-1.6,1.9-1.8,3.1c0.1,0,0.4,0,0.6,0C62,46.5,62.8,45.6,63.4,44.6z"
		/>
	<path class="st0" d="M61.7,99.9c-0.1,0-0.4,0-0.5,0c0,0.6,0.6,1.1,0.9,1.6c0.4,0.5,0.7,1.4,1.6,1.3
		C63.1,101.8,62.3,100.9,61.7,99.9z"/>
	<path class="st0" d="M67.7,94.8c0-0.4-0.1-0.8-0.1-1.1c2.4-1,4.6-2.2,7-3.2c0.5-0.1,0.7,0.5,1.1,0.7c0.3-0.1,0.6-0.2,0.8-0.4
		c-0.5-1.3-1.2-2.5-1.8-3.8c-0.3,0.1-0.7,0.2-1,0.3c0.1,0.5,0.3,0.9,0.4,1.4c-1.3,0.6-2.5,1.1-3.8,1.8c-0.7,0.3-1.4,0.7-2.1,0.8
		c0-0.1,0.1-0.4,0.1-0.5c1.5-2.3,3.1-4.4,4.6-6.7c0.5-0.6-0.2-1.2-0.4-1.7c-0.5-0.2-0.9,0.2-1.4,0.4c-2.2,1-4.4,2.2-6.7,3.2
		c-0.6,0.3-0.8-0.4-1.1-0.8c-0.4,0.1-0.7,0.2-1.1,0.4c0.5,1.2,1.3,2.4,1.8,3.6c0.4-0.1,0.7-0.2,1.1-0.2c-0.1-0.4-0.2-0.8-0.4-1.2
		c1.5-0.6,2.9-1.5,4.4-2c-0.1,0.7-0.7,1.2-1.1,1.8c-1.1,1.4-2,2.9-3.1,4.3c0.5,1,1,2.1,1.6,3.1C67,95,67.3,94.9,67.7,94.8z"/>
	<path class="st0" d="M64.5,45.9c-0.5,0.9-1.2,1.7-1.6,2.7c0.1,0,0.4,0,0.5,0c0.7-0.8,1.3-1.8,1.8-2.7
		C64.9,45.9,64.7,45.9,64.5,45.9z"/>
	<path class="st0" d="M63.8,100c0.4,0.6,0.6,1.4,1.4,1.5c-0.4-1.1-1.2-2.1-1.9-3.1C63,99,63.6,99.5,63.8,100z"/>
	<path class="st0" d="M64.3,43.6c0.6-0.8,1.3-1.6,1.9-2.5c-0.3,0-0.6-0.3-0.8,0.1c-0.7,0.8-1.4,1.7-1.9,2.7
		C63.7,43.7,64.1,43.8,64.3,43.6z"/>
	<path class="st0" d="M64,103.4c-0.3,0.6,0.3,1.1,0.6,1.5c0.5,0.6,0.9,1.4,1.7,1.6c0-0.6-0.4-1-0.8-1.4
		C65,104.5,64.6,103.9,64,103.4z"/>
	<path class="st0" d="M72.4,60.4c-0.1,0.4-0.2,0.8-0.3,1.2c0.4,0.2,0.7,0.4,1.1,0.6c0.9-1,1.3-2.3,2-3.3c0.5-0.7-0.4-0.9-0.9-1.1
		c-0.3,0.3-0.4,0.6-0.8,0.8c-1-0.3-1.9-1-2.9-1.5c0.2-0.7,0.6-1.4,1-2c0.3-0.4,0.6-0.8,1.2-0.8c1.3,0.5,2.3,1.6,3.6,1.9
		c0.6-0.8,1.1-1.7,1.5-2.5c-0.3-0.2-0.6-0.6-1.1-0.5c-0.3,0.2-0.5,0.6-0.8,0.7c-0.8-0.4-1.5-0.9-2.4-1.2c-0.6-0.1-1.2,0.1-1.8,0.3
		c0-0.7,0-1.5-0.6-2c-0.7-0.9-2-1-3-0.7c-1.2,0.6-1.8,2-2.5,3.2c-0.6,1.1-1.3,2.2-1.8,3.4c0.3,0.2,0.6,0.3,0.9,0.5
		c0.3-0.2,0.4-0.6,0.8-0.7c0.9,0.1,1.6,0.8,2.4,1.2C69.6,58.7,71,59.6,72.4,60.4z M68.7,56c-0.6-0.3-1.2-0.6-1.8-1
		c-0.1-0.1-0.2-0.2-0.2-0.3c0.4-0.9,0.9-1.9,1.7-2.6c0.7-0.2,1.6,0.3,1.9,0.9c0.4,1-0.3,2-0.8,2.8C69.4,56.1,69,56,68.7,56z"/>
	<path class="st0" d="M67,42.9c-0.7,0.7-1.4,1.4-1.8,2.4c0.2,0,0.5,0,0.6,0c0.6-0.9,1.6-1.7,1.9-2.8C67.5,42.6,67.2,42.6,67,42.9z"
		/>
	<path class="st0" d="M65.4,102.1c0.4,0.9,1.1,1.6,1.7,2.3c0.2,0.3,0.5,0.4,0.8,0.4c-0.4-1.1-1.3-1.8-2-2.7
		C65.8,102.1,65.6,102.1,65.4,102.1z"/>
	<path class="st0" d="M67.9,39.2c0.4-0.5,1.1-0.8,1.1-1.5c-0.1,0-0.4,0.1-0.6,0.1c-0.9,0.7-1.6,1.6-2.3,2.4
		C67,40.7,67.4,39.7,67.9,39.2z"/>
	<path class="st0" d="M68.4,108.4c-0.5-0.5-0.9-1.5-1.9-1.2c0.4,0.6,1,1.1,1.5,1.6c0.4,0.4,0.8,1,1.5,1
		C69.5,109,68.8,108.8,68.4,108.4z"/>
	<path class="st0" d="M68,41.6c0.1,0.1,0.3,0.3,0.4,0.4c0.7-0.6,1.3-1.2,1.9-1.9c0.2-0.2,0.3-0.5,0.3-0.7c-0.1,0-0.4,0.1-0.6,0.1
		C69.3,40.1,68.7,40.9,68,41.6z"/>
	<path class="st0" d="M68.2,105.4c0.3,0.9,1.1,1.5,1.7,2.2c0.2,0.3,0.6,0.5,1,0.4c-0.3-0.7-1-1.1-1.5-1.7
		C69.1,105.8,68.8,105.3,68.2,105.4z"/>
	<path class="st0" d="M70.2,37c0.7-0.7,1.8-1.3,2.2-2.2c-0.3,0-0.7-0.1-0.9,0.2c-0.8,0.6-1.6,1.3-2.2,2.1C69.6,37.1,70,37.3,70.2,37
		z"/>
	<path class="st0" d="M70.4,110.2c-0.2,0-0.5,0.1-0.7,0.1c0.7,0.9,1.7,1.5,2.6,2.3c0.2,0,0.5-0.1,0.7-0.1
		C72.1,111.8,71.3,110.9,70.4,110.2z"/>
	<path class="st0" d="M77,104.9c1.4,0,2.8-0.8,3.7-1.8c1.1-1.5,1.7-3.6,1.1-5.4c-0.6-2-2.4-3.7-4.4-4.2c-1.7-0.2-3.7-0.2-5.2,1
		c-1.4,1.6-2.4,3.8-1.7,5.8C71.4,103.1,74.2,105,77,104.9z M72.4,100.1c-0.2-1.1-0.1-2.4,0.5-3.3c0.6-0.7,1.2-1.3,2.1-1.5
		c3-1.1,6.3,2.5,5,5.4c-0.4,1-1.1,1.8-2.1,2.2C75.7,103.7,73.1,102.2,72.4,100.1z"/>
	<path class="st0" d="M73.1,36.7c-0.7,0.6-1.4,1.3-2.1,1.9c0.1,0.1,0.3,0.3,0.3,0.4c1-0.7,1.8-1.5,2.8-2.3
		C73.8,36.6,73.4,36.4,73.1,36.7z"/>
	<path class="st0" d="M72.9,109.5c-0.6-0.4-1-1.2-1.8-1c0.3,0.6,0.8,1,1.3,1.4c0.5,0.4,0.9,0.9,1.6,0.9
		C74,110.2,73.3,110,72.9,109.5z"/>
	<path class="st0" d="M79.8,50c-0.8,0.3-1.5-0.1-2.2-0.4c-0.6-0.2-0.9,0.5-1.3,0.8c0.8,0.8,1.6,1.7,2.5,2.5c0.4-0.3,0.7-0.6,1.1-0.9
		c-0.1-0.2-0.2-0.5-0.3-0.7c0.8-0.2,1.7-0.3,2.4-1c0.7-0.8,1.3-1.7,1.6-2.7c0.2-1-0.4-2.1-1.1-2.8c-0.3-0.3-0.6-0.7-1.1-0.7
		c-0.8,0-1.6-0.1-2.3,0.3c-1.1,0.7-2.2,1.5-3.5,1.9c-1.2,0.2-1.6-1.1-1.5-2c0.5-0.4,0.9-1,1.6-1.2c0.7-0.2,1.5,0,2.2,0.2
		c0.5-0.2,0.8-0.6,1.1-1c-0.6-0.7-1.3-1.4-2-1.9c-0.7,0.1-1.1,0.8-1.3,1.4c-1.5,0.5-2.9,1.7-3.2,3.3c-0.2,1.1,0.4,2,1.2,2.7
		c0.7,0.5,1.7,0.5,2.6,0.2c1.4-0.3,2.4-1.6,3.9-1.9c1,0,1.9,0.9,1.9,1.9C81.6,48.9,80.7,49.5,79.8,50z"/>
	<path class="st0" d="M75.7,31.9c-1,0.6-2,1.4-2.9,2.2c0.2,0.1,0.5,0.2,0.7,0.3c0.9-0.6,1.8-1.3,2.7-1.9
		C76.1,32.1,76,31.9,75.7,31.9z"/>
	<path class="st0" d="M75.4,114.3c-0.6-0.4-1.2-1-2-1.2c0,0.1,0,0.4,0,0.6c1.1,0.5,1.8,1.8,3.1,1.7
		C76.4,114.9,75.8,114.6,75.4,114.3z"/>
	<path class="st0" d="M75.6,112.5c0.6,0.4,1.1,0.9,1.8,1.1c0-0.1,0-0.4,0-0.5c-1-0.5-1.7-1.7-2.9-1.7
		C74.7,111.9,75.2,112.2,75.6,112.5z"/>
	<path class="st0" d="M76.6,34c-0.7,0.5-1.4,1-2.1,1.6c0,0.1,0,0.3-0.1,0.4c1.2-0.2,2.1-1.2,3-1.9C77.2,33.9,76.8,33.8,76.6,34z"/>
	<path class="st0" d="M128.7,56.2c-1.9,0.5-3.7,1.1-5.6,1.6c-2.7,0.9-5.5,1.4-8.1,2.3c-1.5,0.4-3.1,0.8-4.6,1.2
		c-0.6,0.2-1.3,0.5-1.9,0.5c-0.6-0.5-0.9-1.1-1.4-1.7c-3.4-4.4-6.8-8.8-10.2-13.2c-0.5-0.7-1-1.3-1.6-1.9c-0.2,4-0.1,8-0.1,12.1
		c0.1,1.1-0.2,2.1,0,3.2c-0.3,1.8,0,3.7-0.2,5.5c-1.7,0.7-3.5,1.1-5.2,1.9c-3.1,0.9-6.1,2-9.1,3.1c-1.9,0.5-3.7,1.1-5.5,1.9
		c5.1,1.9,10.3,3.8,15.5,5.6c1.4,0.6,2.9,1.1,4.3,1.5c0.3,1.3,0.1,2.7,0.2,4c0.1,1-0.2,2-0.2,3c0,4.2,0,8.3,0,12.5
		c0,0.6-0.1,1.1,0.3,1.6c1.4-1.9,3-3.7,4.5-5.6c2.7-3.3,5.3-6.7,7.9-10c0.2-0.3,0.4-0.7,0.9-0.7c5.6,1.7,11.1,3.5,16.7,5.2
		c1,0.3,2,0.7,3.1,0.8c-2-3.3-4.3-6.3-6.4-9.6c-1.7-2.6-3.4-5.1-5.1-7.6c-0.2-0.3,0-0.6,0.2-0.9c2.9-3.9,5.7-7.8,8.6-11.7
		C126.5,59.3,127.8,57.9,128.7,56.2z"/>
	<path class="st0" d="M79.2,29.7c-0.9,0.5-1.7,1.1-2.6,1.5c0,0.1,0,0.4,0,0.5c1.2-0.4,2.3-1.1,3.3-1.8
		C79.8,29.8,79.5,29.4,79.2,29.7z"/>
	<path class="st0" d="M77.5,115.7c-0.1,0.1-0.3,0.3-0.5,0.4c1.1,0.6,2.1,1.7,3.4,1.7c-0.1-0.1-0.2-0.4-0.3-0.5
		C79.3,116.7,78.3,116.3,77.5,115.7z"/>
	<path class="st0" d="M80.3,114.9c-0.7-0.4-1.4-1.1-2.3-1c0.8,0.9,2,1.6,3.2,1.9C81.2,115.3,80.6,115.2,80.3,114.9z"/>
	<path class="st0" d="M78.2,33.6c1-0.6,2.2-1,3-1.9c-0.2,0-0.5-0.1-0.7-0.1c-1,0.4-1.9,1-2.7,1.7C77.9,33.4,78.1,33.6,78.2,33.6z"/>
	<path class="st0" d="M81.3,109.7c0.6,0.4,0.9,1.1,1.5,1.6c1.7,1.5,4.3,1.8,6.4,0.8c1.7-0.6,2.7-2.4,2.9-4.1c0-1.2,0.2-2.5-0.5-3.7
		c-0.7-1.6-2.4-2.7-4.1-3.1c-0.9-0.1-1.8-0.1-2.7,0c-0.8,0.3-1.8,0.6-2,1.5c0.5,0.2,1,0.5,1.6,0.6c0.8-0.2,1.5-0.6,2.3-0.5
		c2.4,0,4.3,2.6,3.5,4.9c-0.1,1-0.7,2-1.6,2.6c-1.3,0.6-2.9,0.7-4.1,0c-1-0.6-1.9-1.6-1.9-2.9c0.1-0.8-0.8-1-1.4-1.3
		c-0.5,1-1.1,1.9-1.6,2.9C80.1,109.5,80.7,109.7,81.3,109.7z"/>
	<path class="st0" d="M85.4,45.4c-0.2,0.3-0.6,0.5-1,0.7c0.1,0.4,0.3,0.7,0.5,1.1c0.2,0,0.4,0,0.6-0.1c2.5-1.2,5-2.5,7.5-3.8
		c-0.3-0.9-0.7-1.7-1.3-2.5c-0.5-0.4-1.1,0.2-1.6,0.4c0.2,0.5,0.4,1,0.7,1.6c-1.1,0.6-2.2,1.2-3.4,1.7c-0.5-1.1-1.3-2.1-1.6-3.2
		c0.9-0.5,1.8-0.9,2.7-1.4c-0.2-0.4-0.4-0.8-0.7-1.2c-0.9,0.4-1.8,0.9-2.7,1.3c-0.5-0.8-1-1.6-1.3-2.5c1.2-0.5,2.2-1.3,3.4-1.7
		c0.3,0.4,0.4,0.8,0.7,1.1c0.5-0.1,0.9-0.4,1.3-0.7c-0.2-0.9-0.7-1.6-1.2-2.4c-2,0.9-3.9,2-5.8,2.9c-0.7,0.3-1.3,0.7-1.9,1.1
		c0.1,0.4,0.3,0.8,0.4,1.1c0.4-0.1,0.7-0.2,1.1-0.3c1,1.8,2,3.7,3,5.5C85.1,44.4,85.4,44.9,85.4,45.4z"/>
	<path class="st0" d="M84,27.9c-0.1-0.3-0.4-0.5-0.8-0.3c-1,0.4-1.9,0.9-2.8,1.4c-0.1,0.5,0.4,0.5,0.7,0.3
		C82.2,28.9,83.1,28.4,84,27.9z"/>
	<path class="st0" d="M83.2,118.8c-0.7-0.3-1.4-0.9-2.3-0.8c0.1,0.5,0.7,0.7,1.1,0.9c0.8,0.4,1.7,0.9,2.6,0.8
		C84.2,119.2,83.7,119.1,83.2,118.8z"/>
	<path class="st0" d="M81.7,31.5c1-0.3,2-0.9,3-1.3c0-0.2,0-0.5,0-0.7c-1.1,0.4-2,1-3.1,1.4C81.6,31.1,81.7,31.4,81.7,31.5z"/>
	<path class="st0" d="M82.6,116.9c0.8,0.3,1.5,0.8,2.4,0.8c-0.1-0.5-0.7-0.7-1.1-0.9c-0.7-0.3-1.3-0.7-2.1-0.7
		C82,116.4,82.3,116.7,82.6,116.9z"/>
	<path class="st0" d="M88.1,26.4c0-0.1,0-0.4,0-0.5c-1.2,0.1-2.4,0.6-3.4,1.2c-0.2,0.5,0.4,0.6,0.7,0.3C86.2,27,87.1,26.6,88.1,26.4
		z"/>
	<path class="st0" d="M88.7,121.1c-1.1-0.5-2.2-0.9-3.3-1.3c-0.1,0.1-0.3,0.3-0.4,0.4c0.9,0.5,1.8,0.8,2.8,1.2
		C88.1,121.5,88.5,121.4,88.7,121.1z"/>
	<path class="st0" d="M85.5,29.7c1.1-0.3,2.2-0.7,3.2-1.3c0-0.1,0-0.4,0-0.5c-1.1,0.4-2.1,0.7-3.2,1.1
		C85.5,29.2,85.5,29.6,85.5,29.7z"/>
	<path class="st0" d="M85.9,118.4c1,0.3,2,0.8,3.1,0.9c0-0.1-0.1-0.4-0.1-0.5c-1-0.2-1.9-0.6-2.8-0.9
		C85.7,117.6,85.5,118.3,85.9,118.4z"/>
	<path class="st0" d="M92.5,25c-0.1-0.1-0.3-0.3-0.5-0.4c-1.1,0.1-2.2,0.6-3.3,0.9c0,0.1,0,0.4,0,0.5C90,25.7,91.3,25.4,92.5,25z"/>
	<path class="st0" d="M92.7,122.2c-1.1-0.3-2.2-0.7-3.4-0.8c0,0.1,0.1,0.4,0.1,0.5c1.2,0.2,2.3,0.9,3.6,0.7
		C92.9,122.5,92.8,122.3,92.7,122.2z"/>
	<path class="st0" d="M89.6,28.1c1.1-0.1,2.2-0.6,3.3-0.8c0-0.1,0-0.4,0-0.6c-1.1,0.3-2.2,0.6-3.3,0.9C89.6,27.7,89.6,28,89.6,28.1z
		"/>
	<path class="st0" d="M92.9,120.6c0.1-0.1,0.2-0.3,0.2-0.5c-1.2-0.2-2.4-1-3.7-0.6C90.6,120.1,91.8,120.2,92.9,120.6z"/>
	<path class="st0" d="M96.7,24.2c0-0.1,0-0.4,0-0.6c-1.1,0.2-2.2,0.5-3.4,0.6c0,0.2-0.1,0.5-0.2,0.6C94.4,24.7,95.5,24.4,96.7,24.2z
		"/>
	<path class="st0" d="M93.7,122.5c0,0.1,0,0.4,0,0.5c1.1,0.1,2.2,0.4,3.4,0.5c0.1-0.1,0.3-0.3,0.4-0.4
		C96.3,122.7,95,122.5,93.7,122.5z"/>
	<path class="st0" d="M93.7,27c1-0.1,2-0.2,3-0.4c0.3,0,0.4-0.4,0.6-0.6c-1.2,0-2.4,0.4-3.6,0.5C93.7,26.6,93.7,26.8,93.7,27z"/>
	<path class="st0" d="M94.5,120.9c1,0.2,2,0.5,3,0.3c-0.2-0.2-0.5-0.4-0.8-0.4c-1-0.1-1.9-0.4-2.9-0.4
		C94,120.6,94.2,120.8,94.5,120.9z"/>
	<path class="st0" d="M101.2,23.8c0-0.2,0.1-0.4,0.1-0.6c-1.3,0-2.5,0.1-3.8,0.3c0,0.1,0,0.3,0.1,0.4C98.8,24,100,23.8,101.2,23.8z"
		/>
	<path class="st0" d="M97.7,26.1c1.3,0.3,2.6-0.1,3.9-0.2c-0.1-0.1-0.3-0.3-0.5-0.4C100,25.7,98.8,25.5,97.7,26.1z"/>
	<path class="st0" d="M101.9,123.5c-1.2-0.2-2.5-0.2-3.7-0.3c0,0.1,0.1,0.3,0.1,0.4c1,0.1,1.9,0.1,2.9,0.3
		C101.5,124,101.7,123.8,101.9,123.5z"/>
	<path class="st0" d="M101.5,121.7c0-0.1,0-0.3,0-0.5c-1.1,0-2.3-0.2-3.4-0.3c0,0.1,0.1,0.4,0.1,0.5
		C99.3,121.8,100.4,121.7,101.5,121.7z"/>
	<path class="st0" d="M102.2,25.5c0,0.1-0.1,0.3-0.1,0.4c1.2-0.1,2.4,0,3.6,0c0-0.1,0-0.3,0-0.4C104.6,25.5,103.4,25.5,102.2,25.5z"
		/>
	<path class="st0" d="M102.1,23.7c1.2,0,2.3,0.1,3.5,0c0.1-0.1,0.2-0.3,0.3-0.4c-1.3-0.2-2.5-0.1-3.8-0.1
		C102.1,23.3,102.1,23.6,102.1,23.7z"/>
	<path class="st0" d="M102.6,123.5c0,0.1,0,0.3,0.1,0.5c1.2,0,2.4,0,3.6,0c0-0.1,0-0.4,0-0.5C105.1,123.4,103.8,123.4,102.6,123.5z"
		/>
	<path class="st0" d="M105.5,121.8c0.3,0,0.5-0.2,0.7-0.4c-1.2-0.3-2.4-0.1-3.6-0.1c0,0.1,0,0.4,0,0.6
		C103.5,121.8,104.5,121.9,105.5,121.8z"/>
	<path class="st0" d="M115.6,116.7c0.8-0.4,1-1.4,0.8-2.2c-0.4-1-1.1-1.8-1.4-2.8c0.6,0.1,1.1,0.4,1.7,0.7c0-0.3,0.2-0.6,0-0.9
		c-0.7-1-1.8-1.8-2.2-3c0.7,0.1,1.5,0.7,2.2,0.4c0.3-0.4,0.4-1.1,0.2-1.6c-0.3-0.6-0.8-1.2-1.3-1.8c0.3-0.2,0.7-0.3,1-0.6
		c0.3-1-0.5-1.8-1-2.5c0.4-0.2,0.9-0.4,1-0.9c0.3-0.9-0.3-1.6-0.8-2.3c0.2-0.3,0.4-0.6,0.6-0.9c-0.2-0.5-0.3-1-0.3-1.6
		c0.4-0.1,0.7-0.2,1.1-0.2c-0.4-0.9-1.4-1.3-1.8-2.2c0.4-0.2,0.8-0.3,1.2-0.5c0.2-0.3,0.4-0.6,0.5-0.9c-0.4-0.9-0.8-1.8-1.3-2.6
		c-0.2-0.3-0.5-0.2-0.8-0.3c0.1,1.1,1.2,2,1.1,3.2c-0.1,0-0.4-0.1-0.5-0.1c-0.5-0.9-0.9-2.2-2.1-2.2c-0.6,0-0.6,0.8-0.9,1.2
		c-1-0.5-1.6-1.5-2.5-2.1c-1-0.8-2.3-1.4-3.6-1.1c-0.1,1.7,1.6,2.5,2.7,3.4c1.6,1,3.2,1.8,4.8,2.7c-0.1,0.1-0.2,0.2-0.2,0.3
		c-0.4,0-1-0.2-1.3,0.3c-0.2,0.8-0.1,1.8,0.5,2.4c0.8,1.1,2.2,1.5,2.9,2.7c0.1,0.4-0.4,0.8-0.7,0.6c-0.8-0.4-1.4-1.3-2.3-1.2
		c0.1,0.3,0.2,0.6,0.4,0.8c0.9,1,1.8,2.1,2.5,3.2c-0.1,0.1-0.4,0.2-0.5,0.3c-0.8-0.5-1.3-1.4-2.3-1.7c-0.5,0-0.5,0.5-0.3,0.8
		c1.1,1.2,2.1,2.5,3.1,3.7c0.3,0.3,0.2,0.7,0.3,1c-1.4-0.2-2.1-1.8-3.5-2c-0.1,0.7,0.2,1.3,0.4,1.9c-0.3-0.1-0.7-0.3-0.9-0.6
		c-0.9-1.2-2-2.2-3.1-3.3c-0.8-0.8-1.8-1.6-3-1.2c0,0.5-0.1,0.9,0.1,1.4c0.3,0.9,1.2,1.4,1.7,2.1c1.5,1.4,3.3,2.4,5,3.7
		c1.1,1.1,1.6,2.6,2.4,3.9c0.5,0.7,0.3,1.9-0.6,2.2c-0.8,0.4-1.7,0.1-2.4-0.3c-1-0.7-2-1.4-2.9-2.3c-0.6-0.6-1.2-1.3-1.1-2.2
		c0.8,0.4,1.7,0.8,2.6,0.6c0.7-0.1,0.5-1,0.5-1.4c-0.3-1.4-2-2.1-3.3-1.6c-0.6,0.3-0.7,1-0.9,1.6c0,1,0.5,1.8,0.8,2.7
		c1,1.6,2.5,2.8,4.2,3.5C113.3,117.2,114.5,117.3,115.6,116.7z M109.2,91.4c-0.8-0.4-1.4-1.1-1.9-1.7c0.1-0.1,0.3-0.2,0.4-0.3
		c1.5,0.6,2.6,1.9,3.9,2.9C110.7,92.7,110,91.8,109.2,91.4z M113.8,92.6c-0.1-0.3-0.1-0.7,0.3-0.7c0.5,0.3,0.9,1,0.4,1.4
		C114.1,93.4,113.9,92.9,113.8,92.6z M113.2,96.6c0.4-0.3,0.9-0.6,1.3-0.9c0.4,0.6,0.9,1.2,1,2c0.2,0.4-0.3,0.6-0.5,0.9
		C114.3,98.1,113.7,97.4,113.2,96.6z M108.8,106.2c-0.7-0.7-1.7-1.3-1.8-2.4c0.7,0.1,1.1,0.7,1.6,1.2c0.7,0.8,1.6,1.4,2,2.4
		C109.9,107.4,109.4,106.6,108.8,106.2z M108.1,110.7c0-0.5,0.2-1,0.6-1.3c0.8-0.1,2,0.5,1.6,1.4
		C109.6,110.8,108.8,110.7,108.1,110.7z"/>
	<path class="st0" d="M106.5,25.5c0,0.1,0.1,0.3,0.1,0.4c1.1,0.2,2.3,0.2,3.4,0.2c-0.2-0.2-0.3-0.5-0.7-0.5
		C108.4,25.7,107.5,25.5,106.5,25.5z"/>
	<path class="st0" d="M110.2,23.9c0-0.1,0-0.4,0-0.5c-1.2-0.2-2.4-0.2-3.5-0.3c0,0.1,0,0.4-0.1,0.5C107.8,23.7,109,24,110.2,23.9z"
		/>
	<path class="st0" d="M107,121.3c-0.1,0.1-0.3,0.3-0.4,0.4c1.1,0,2.3,0,3.4-0.2c0-0.1,0.1-0.3,0.1-0.4
		C109.2,121,108.1,121.2,107,121.3z"/>
	<path class="st0" d="M107.8,123.3c-0.3,0-0.5,0.2-0.7,0.4c1.2,0.1,2.3,0,3.5-0.1c0.1-0.2,0.2-0.4,0.2-0.6
		C109.7,123,108.8,123.3,107.8,123.3z"/>
	<path class="st0" d="M112.7,30.4c-0.3,0.6,0.3,1.2,0.5,1.8c-1.1,0.5-1.2,2-0.8,3.1c0.8,1.7,2.5,2.8,3.4,4.5
		c0.2,0.3,0.2,0.6,0.2,0.9c-0.4,0-0.7,0-1.1,0c-0.9-1.1-1.7-2.3-2.8-3.2c-0.9-0.8-2.1-1.7-3.3-1.3c-0.6,0.6-0.2,1.4,0.2,1.9
		c0.9,1.3,2.3,1.9,3.6,2.6c0.8,0.4,1.8,0.5,2.5,1.2c0.1,0.3,0.2,0.8-0.3,0.9c-0.5-0.3-1-0.7-1.5-0.9c0,0.2,0,0.5,0,0.7
		c0.8,0.7,1.6,1.4,2.4,2.1c0.4,0.3,0.4,0.8,0.4,1.3c-1.1,0.1-1.6-1-2.5-1.5c-0.3-0.1-0.7-0.1-0.7,0.4c1.1,1.3,2.5,2.3,3.4,3.7
		c0.1,0.3-0.1,0.6-0.4,0.8c-0.7-0.6-1.4-1.4-2.3-1.9c-0.5-0.1-1.1,0-1.2,0.6c-0.2,1.2-0.1,2.4,0.6,3.4c0.3,0.8,1.2,1.3,1.4,2.2
		c-1.5-0.6-2.7-1.7-4.1-2.5c-1-0.6-1.2-1.8-1.8-2.8c-0.2-0.3-0.8-0.3-0.7,0.2c0.1,1.1,0.9,2,1,3.2c0.1,1,0,2,0,3c0.2,0,0.7,0,0.9,0
		c0-0.9,0-1.9,0-2.8c0.9,0.3,1.6,1,2.5,1.4c0.8,0.6,1.8,0.9,2.5,1.6c0.3,1.1-1.5,0.7-1.6,1.5c0.3,1.2,1.7,1.8,2.8,1.8
		c0.6,0.1,1.3-0.4,1.3-1.1c0.1-1.1-0.8-1.8-1.5-2.6c0-0.3,0-0.6,0-0.9c0.3-0.1,0.6-0.2,0.9-0.3c0.2-1.1-0.1-2-0.6-3
		c0.3-0.1,0.7-0.2,1-0.3c0.6-1.1-0.3-2.1-0.5-3.1c0.2,0,0.6,0,0.8,0c0.6,0.6,1.1,1.2,1.8,1.7c0.5,0.4,1.3,0.4,1.9,0.2
		c0.3-0.6,0.2-1.4-0.2-1.9c-0.9-1-1.8-1.9-3-2.4c-1-0.5-2.1-1.4-1.9-2.7c0.5-0.3,1.3-0.6,1.2-1.3c-0.1-0.9-0.7-1.7-1.1-2.5
		c0.4-0.4,1-0.8,0.8-1.4c-0.4-1.3-1.8-1.9-2.4-3c0.8,0.2,1.4,0.9,2.1,1.3c0.1-0.1,0.2-0.2,0.3-0.3c-0.2-0.6-0.8-1-1.2-1.4
		c-0.8-0.7-1.5-1.4-2.2-2.3c0.3-0.2,0.5-0.4,0.8-0.6c-0.1-0.2-0.3-0.5-0.5-0.6C113.5,30.1,112.9,30,112.7,30.4z M110.6,38.7
		c-0.5-0.5-1.3-1-1.2-1.8c0.7,0.2,1.4,0.5,2,1c0.8,0.6,1.6,1.3,2,2.2C112.3,40,111.4,39.3,110.6,38.7z M115.7,57.6
		c-0.4-0.2-1.4-0.3-1.1-0.9c0.4-0.3,0.9-0.5,1.3-0.8C116.5,56.4,116.3,57.2,115.7,57.6z M115.6,51.2c0.3,0.5,0.3,1.1,0.2,1.7
		c-0.8,0.1-1.3-0.5-1.7-1c-0.6-0.8-1-1.8-1-2.8c0.2-0.1,0.5-0.3,0.7-0.4C114.5,49.3,115,50.3,115.6,51.2z M120.3,47.8
		c0.1,0.2,0.1,0.5,0.1,0.8c-0.8-0.1-1.2-0.7-1.7-1.2c-0.4-0.5-1.2-1-0.7-1.6C118.9,46.3,119.7,47,120.3,47.8z M115.8,36.4
		c0.3,0.4-0.1,0.7-0.3,1c-0.9-0.7-1.9-1.3-2.4-2.3c-0.1-0.3,0-0.6,0.3-0.7C114.3,35,115.1,35.7,115.8,36.4z"/>
	<path class="st0" d="M110.8,25.9c0,0.1,0,0.4,0,0.6c1.2,0.2,2.3,0.4,3.5,0.5c0-0.1-0.1-0.3-0.1-0.5C113,26.3,111.9,26.1,110.8,25.9
		z"/>
	<path class="st0" d="M114.4,120.3c-1.1,0.1-2.2,0.5-3.4,0.6c0,0.1-0.1,0.3-0.1,0.5c1.2,0.1,2.4-0.3,3.5-0.6
		C114.5,120.6,114.5,120.4,114.4,120.3z"/>
	<path class="st0" d="M114.7,24.9c0-0.2,0-0.4,0-0.6c-1.2-0.1-2.4-0.3-3.5-0.7c0,0.2-0.1,0.5-0.1,0.6
		C112.2,24.4,113.4,24.7,114.7,24.9z"/>
	<path class="st0" d="M111.7,122.9c0,0.1,0,0.4,0,0.5c1.2,0,2.4-0.3,3.5-0.5c0-0.1,0-0.4,0-0.5C114,122.4,112.8,122.7,111.7,122.9z"
		/>
	<path class="st0" d="M118.4,28.1c0-0.1-0.1-0.3-0.1-0.4c-1.1-0.3-2.2-0.8-3.3-0.9c0,0.1-0.1,0.3-0.1,0.4
		C116.1,27.5,117.2,28.1,118.4,28.1z"/>
	<path class="st0" d="M118.7,119.2c-1.1,0.2-2.2,0.4-3.3,0.8c0,0.1-0.1,0.3-0.1,0.4c1.1,0,2.2-0.4,3.3-0.7
		C118.6,119.5,118.6,119.3,118.7,119.2z"/>
	<path class="st0" d="M115.2,24.9c1.2,0.5,2.5,0.7,3.8,1.1c0-0.1,0-0.4,0-0.5c-0.9-0.4-1.9-0.7-2.9-0.9
		C115.8,24.5,115.5,24.6,115.2,24.9z"/>
	<path class="st0" d="M115.9,122.2c0.1,0.1,0.4,0.2,0.5,0.3c1-0.2,2.1-0.6,3.1-0.8c0-0.1,0-0.4,0-0.6
		C118.3,121.4,117,121.7,115.9,122.2z"/>
	<path class="st0" d="M119.6,28.7c0.9,0.3,1.8,0.8,2.8,0.9c0-0.1,0-0.3,0-0.5c-1.1-0.4-2.1-1.1-3.3-1.1
		C119.2,28.4,119.3,28.7,119.6,28.7z"/>
	<path class="st0" d="M119.3,119.2c1.2,0,2.2-0.6,3.4-1c0-0.1,0-0.4-0.1-0.5c-1.1,0.2-2.1,0.6-3.1,1
		C119.5,118.9,119.4,119.1,119.3,119.2z"/>
	<path class="st0" d="M123.3,27.6c0-0.1,0-0.4,0-0.5c-1.1-0.5-2.3-1.1-3.5-1.3c0,0.1,0,0.4,0,0.5C121.1,26.6,122.1,27.4,123.3,27.6z
		"/>
	<path class="st0" d="M120.3,120.8c0,0.1,0,0.4,0,0.5c1.2-0.3,2.4-0.8,3.6-1.4c-0.1-0.1-0.3-0.2-0.5-0.3
		C122.4,120,121.4,120.4,120.3,120.8z"/>
	<path class="st0" d="M127.3,97.8c-0.2-0.3-0.3-0.8-0.7-0.8c-0.5,0.2-0.9,0.6-1.3,0.9c-1.1,0.9-2.2,1.7-3.2,2.7
		c0.3,0.2,0.5,0.6,0.9,0.7c0.3-0.1,0.7-0.4,1-0.5c0.8,2.4,1.6,4.8,2.4,7.3c0.2,0.5-0.1,0.9-0.3,1.3c0.1,0.3,0.3,0.6,0.5,0.9
		c1.1-0.6,2.1-1.5,3.1-2.4c-0.2-0.3-0.4-0.6-0.7-0.9c-0.3,0.2-0.7,0.3-1,0.5c-0.3-0.7-0.8-1.4-0.7-2.1c0.9-0.7,1.7-1.6,2.8-2.1
		c0.7,0.2,1.3,0.6,1.9,1.1c-0.3,0.3-0.6,0.5-0.8,0.8c0.2,0.4,0.5,1.1,1,0.7c1-0.7,1.9-1.5,2.8-2.2c-0.1-0.3-0.2-0.5-0.3-0.8
		c-0.5,0-1,0.1-1.4,0.1c-2.3-1.3-4.6-2.8-6.8-4.3C126.7,98.3,127,98.1,127.3,97.8z M128.8,102.2c-0.7,0.7-1.4,1.3-2.2,1.8
		c-0.4-1.2-0.9-2.4-1.1-3.6C126.8,100.6,127.8,101.5,128.8,102.2z"/>
	<path class="st0" d="M122.8,73.9c-0.1,0-0.3,0-0.5,0c0,0.8,0,1.5,0,2.3c0.1,0,0.3,0.1,0.5,0.1c0-0.3,0-0.6,0.1-0.9
		c0.9,0,1.8,0,2.7,0c0-0.1,0-0.4,0-0.5c-0.9,0-1.8,0-2.7,0C122.9,74.5,122.9,74.2,122.8,73.9z"/>
	<path class="st0" d="M122.4,71.1c0.7,0.2,1.4,0.3,2,0.6c-0.6,0.4-1.3,0.5-2,0.6c0,0.3,0,0.6,0.1,0.9c1.1,0,2.2,0,3.2,0l-0.1-0.3
		c-0.7-0.1-1.4,0-2.2-0.2c0.6-0.5,1.5-0.5,2.3-0.8c0-0.1-0.1-0.4-0.1-0.5c-0.7-0.2-1.3-0.3-2-0.5c0-0.1-0.1-0.3-0.2-0.3
		c0.8,0,1.6,0.1,2.4,0c-0.1-0.1-0.2-0.2-0.3-0.3c-0.8-0.1-1.6,0-2.5,0C122.5,70.2,122.4,70.8,122.4,71.1z"/>
	<path class="st0" d="M127.6,43.4c0-0.3-0.1-0.6,0-0.9c0.8-1.1,1.8-2,2.7-3c-0.8-0.7-1.5-1.5-2.4-2.1c-0.3,0.3-0.5,0.6-0.8,0.8
		c0.2,0.3,0.5,0.6,0.7,0.9c-0.6,0.8-1.2,1.5-1.9,2.2c-0.2,0.6,0.1,1.3,0.3,1.8c-0.9,0-2-0.3-2.7,0.5c-1.1,0.9-1.1,2.7-0.2,3.6
		c1,1.1,2.2,2,3.3,3c0.7,0.4,1.1,1.3,2,1.2c0.1-0.3,0.2-0.6,0.3-0.8c-0.2-0.3-0.4-0.5-0.6-0.7c1.7-2,3.4-4,5.2-6
		c0.4,0.2,0.7,0.5,1.1,0.5c0.3-0.2,0.7-0.6,0.6-1c-1-1-2.1-1.8-3.1-2.7c-0.5-0.2-0.8,0.4-1.2,0.6c0.3,0.4,0.6,0.7,1,1
		c-0.8,0.9-1.5,1.8-2.3,2.7C129.1,44.7,128.3,44.2,127.6,43.4z M126.6,44.9c0.9,0.4,1.5,1.1,2.2,1.7c-0.7,0.7-1.3,1.5-2,2.2
		c-0.8-0.5-1.6-1-2.1-1.7C124.2,46,125.5,44.6,126.6,44.9z"/>
	<path class="st0" d="M126.3,31.5c0-0.1,0-0.4,0-0.5c-1.1-0.4-2.1-1.3-3.3-1.2c0.1,0.2,0.2,0.5,0.5,0.6
		C124.4,30.8,125.3,31.3,126.3,31.5z"/>
	<path class="st0" d="M126.6,115.9c-1.1,0.1-1.9,0.8-2.9,1.2c-0.3,0.1-0.4,0.3-0.5,0.5c0.8,0.1,1.5-0.4,2.2-0.7
		C125.9,116.7,126.4,116.5,126.6,115.9z"/>
	<path class="st0" d="M126.7,29.3c0.3,0.2,0.6,0,0.8-0.3c-1.1-0.6-2.3-1.2-3.5-1.5c0,0.1,0,0.4-0.1,0.6
		C124.9,28.4,125.8,28.9,126.7,29.3z"/>
	<path class="st0" d="M124.7,119.7c1-0.5,2.1-0.9,3.1-1.5c0-0.1,0.1-0.4,0.2-0.5c-1.3,0.1-2.3,1-3.5,1.4
		C124.5,119.3,124.6,119.5,124.7,119.7z"/>
	<path class="st0" d="M127.1,115.7c0.8,0.1,1.5-0.5,2.1-0.9c0.4-0.3,1-0.5,1.2-1.1c-0.8-0.1-1.3,0.6-2,0.9
		C127.9,115,127.2,115.1,127.1,115.7z"/>
	<path class="st0" d="M130,33.2c-0.9-0.5-1.7-1.2-2.7-1.5c-0.1,0.1-0.4,0.2-0.5,0.3c1,0.7,2,1.2,3.1,1.8
		C129.9,33.6,129.9,33.3,130,33.2z"/>
	<path class="st0" d="M131.2,31.7c0-0.1,0-0.3,0-0.4c-0.9-0.8-2-1.5-3.2-1.8c0,0.1,0,0.4,0,0.6C129.1,30.6,130.1,31.3,131.2,31.7z"
		/>
	<path class="st0" d="M128.4,117.6c0.7-0.1,1.4-0.5,2-0.9c0.5-0.3,1.2-0.6,1.4-1.2c-0.9-0.1-1.5,0.6-2.2,0.9
		C129.1,116.7,128.4,116.9,128.4,117.6z"/>
	<path class="st0" d="M131.4,93.6c0.2-0.4,0.5-0.8,0.7-1.2c-0.4-0.2-0.7-0.7-1.1-0.6c-0.9,1.1-1.7,2.2-2.5,3.4
		c0.1,0.4,0.5,0.5,0.8,0.7c0.4-0.1,0.7-0.5,1-0.8c2.1,1.4,4.1,3,6.3,4.4c-0.2,0.4-0.5,0.8-0.6,1.3c0.4,0.2,0.9,0.8,1.3,0.3
		c1.4-1.9,2.9-3.8,4.3-5.7c-0.6-0.7-1.5-1.3-2.3-1.7c-0.7-0.2-0.9,0.6-1.3,1c0.5,0.3,0.9,0.7,1.4,1c-0.5,0.7-0.9,1.5-1.5,2.1
		c-0.4,0.1-0.7-0.2-1-0.4C135.1,96.1,133.2,94.9,131.4,93.6z"/>
	<path class="st0" d="M137.4,46c-0.4-0.1-0.7,0.3-1,0.4c0.1,0.4,0.2,0.7,0.3,1.1c-1.7,2-3.3,4.2-5,6.3c-0.5,0.1-0.7-0.5-1-0.7
		c-0.2,0.2-0.5,0.3-0.7,0.5c0.3,0.9,0.9,1.7,1.5,2.5c0.5,0.7,1,1.5,1.5,2.3c0.4-0.1,0.7-0.2,1.1-0.4c-0.2-0.4-0.4-0.8-0.6-1.3
		c1.3-0.3,2.7-0.5,4-0.9c1.3-0.2,2.7-0.5,4-0.8c0.2,0.2,0.4,0.4,0.7,0.6c0.4-0.2,0.7-0.4,1.1-0.6c-0.8-1-1.4-2.1-2.1-3.2
		c-0.3,0.1-0.7,0.3-0.9,0.5c-0.1,0.4,0.2,0.9,0.3,1.3c-0.7,0.1-1.3,0.3-2,0.4c-0.9-0.9-1.4-2-2-3c0.4-0.5,0.8-1.1,1.2-1.6
		c0.5-0.1,0.6,0.4,0.9,0.7c0.3-0.2,0.7-0.4,1-0.7C138.8,48.2,138.1,47.1,137.4,46z M137,54.4c-1.3,0.3-2.7,0.8-4.1,0.7
		c0.8-1.1,1.6-2.1,2.6-3.1C136.1,52.7,136.6,53.5,137,54.4z"/>
	<path class="st0" d="M131.7,35.1c0.6,0.4,1.2,1,1.9,1c-0.1-0.7-0.9-0.9-1.4-1.3c-0.6-0.3-1.1-1-1.8-0.9
		C130.6,34.5,131.2,34.7,131.7,35.1z"/>
	<path class="st0" d="M130.8,113.5c0.8-0.1,1.4-0.8,2-1.2c0.4-0.3,1-0.6,1-1.2c-0.3,0-0.8,0-1,0.3c-0.6,0.6-1.3,1-2,1.5
		C130.9,113.1,130.8,113.4,130.8,113.5z"/>
	<path class="st0" d="M134.2,34c0.2,0.2,0.6,0.2,0.9,0.2c-0.1-0.8-1.1-1.1-1.6-1.6c-0.5-0.3-1.2-1.1-1.8-0.5
		C132.5,32.8,133.4,33.3,134.2,34z"/>
	<path class="st0" d="M132.4,114.6c0,0.1,0,0.4,0,0.6c0.7-0.1,1.2-0.6,1.7-0.9c0.5-0.4,1.2-0.7,1.5-1.4c-0.4,0-0.8-0.1-1.1,0.2
		C133.8,113.6,133.1,114.1,132.4,114.6z"/>
	<path class="st0" d="M136.4,88.6c1.9,0.8,3.8,1.6,5.7,2.4c-0.1,0.4-0.3,0.8-0.4,1.3c0.4,0.1,0.8,0.3,1.2,0.4c0.5-0.7,0.7-1.4,1-2.2
		c0.7-1.7,1.4-3.3,2.1-5c-1-0.3-1.9-0.8-2.9-1c-0.5,0.2-0.5,0.9-0.7,1.4c0.5,0.3,1,0.5,1.5,0.8c-0.3,0.8-0.7,1.6-1,2.4
		c-0.8,0.1-1.5-0.4-2.3-0.7c-1.7-0.6-3.3-1.3-5-2c0.1-0.5,0.3-1,0.4-1.4c-0.4-0.1-0.8-0.2-1.2-0.3c-0.5,1-0.9,2.1-1.3,3.2
		c-0.2,0.4-0.2,0.8-0.2,1.2c0.3,0,0.6,0.1,1,0.1c0.3-0.3,0.3-0.9,0.8-0.8C135.5,88.2,135.9,88.4,136.4,88.6z"/>
	<path class="st0" d="M145.9,63.2c-0.3-1.5-0.9-2.9-1.3-4.3c-0.4,0.1-0.8,0.2-1.1,0.3c0.1,0.5,0.2,0.9,0.3,1.4
		c-1.5,0.5-3,0.8-4.4,1.4c-1.1,0.2-2.1,0.8-3.2,0.7c-0.1-0.4-0.3-0.9-0.4-1.3c0.4-0.2,0.9-0.3,1.4-0.4c-0.1-0.5-0.3-1-0.4-1.6
		c-1,0-1.9,0.4-2.8,0.7c0.7,2.6,1.7,5.2,2.4,7.9c0.9-0.1,1.8-0.4,2.7-0.6c-0.1-0.5-0.2-1.1-0.3-1.6c-0.5,0.1-1,0.2-1.5,0.3
		c-0.3-0.5-0.4-1-0.4-1.6c2.5-0.5,4.9-1.5,7.3-2.1c0.2,0.4,0.4,0.8,0.6,1.3C145.1,63.4,145.5,63.3,145.9,63.2z"/>
	<path class="st0" d="M134.2,36.3c-0.1,0.1-0.2,0.3-0.3,0.4c0.8,0.6,1.4,1.3,2.2,1.9c0.3,0.3,0.7,0.2,1-0.1
		C136.1,37.9,135.3,36.9,134.2,36.3z"/>
	<path class="st0" d="M134.6,110.8c0.8-0.4,1.4-1.1,2.1-1.7c0.3-0.2,0.3-0.4,0.4-0.7c-0.3,0.1-0.7,0-0.9,0.2c-0.7,0.6-1.3,1.3-2,1.9
		C134.3,110.6,134.5,110.7,134.6,110.8z"/>
	<path class="st0" d="M135.4,34.9c0.7,0.6,1.5,1.1,2.1,1.8c0.3,0.4,0.7,0.4,1.1,0.3c-0.8-0.9-1.7-1.7-2.6-2.4
		C135.8,34.4,135.4,34.6,135.4,34.9z"/>
	<path class="st0" d="M135.8,112c0.1,0.5,0.7,0.4,1,0.1c0.6-0.7,1.4-1.2,2-1.8c0-0.1,0.1-0.4,0.1-0.5c-0.1,0-0.4,0.1-0.6,0.1
		C137.4,110.5,136.6,111.3,135.8,112z"/>
	<path class="st0" d="M141.6,70.4c-0.6,1.2-0.8,2.7-1.3,4c-0.3,0.5-0.7,1.2-1.4,1.2c-0.5-0.2-1-0.6-1.3-1.1c0-0.6-0.1-1.2,0.1-1.8
		c0.4-0.8,1.1-1.4,2-1.5c0-0.5,0-1.1,0-1.6c-1,0-2.1,0-3.1,0c-0.1,0.7,0.1,1.3,0.2,1.9c-0.4,1.2-0.8,2.6-0.2,3.9
		c0.5,1.9,3.3,2.3,4.6,1c1.3-1.3,0.9-3.5,2.1-4.9c0.5-0.4,1.1-0.5,1.7-0.5c1.3,0.5,1.2,2.1,0.8,3.2c-0.5,0.9-1.4,1.4-2.3,1.7
		c0,0.5,0,0.9,0,1.3c1.2,0,2.4,0,3.6,0c0-0.4,0-0.8,0-1.1c-0.2-0.1-0.4-0.3-0.7-0.4c1.1-1.3,1.2-3.3,0.6-4.9
		c-0.6-1.4-2.3-1.9-3.6-1.7C142.6,69.2,141.9,69.7,141.6,70.4z"/>
	<path class="st0" d="M137.8,39.4c-0.2-0.2-0.6-0.2-0.7,0.1c0.5,0.8,1.2,1.4,1.8,2c0.2,0.3,0.6,0.4,0.9,0.4c0-0.6-0.5-1-0.9-1.4
		C138.5,40.2,138.2,39.8,137.8,39.4z"/>
	<path class="st0" d="M137.3,107.9c0.2,0,0.4,0,0.6-0.1c0.8-0.7,1.5-1.4,2.2-2.2c-0.1-0.6-0.8-0.3-1,0
		C138.5,106.4,137.7,107,137.3,107.9z"/>
	<path class="st0" d="M138.7,37.9c0.7,0.9,1.6,1.6,2.3,2.5c0.2,0,0.5,0,0.6,0c-0.1-0.3-0.2-0.5-0.4-0.7c-0.7-0.7-1.3-1.4-2-2
		C139,37.5,138.8,37.6,138.7,37.9z"/>
	<path class="st0" d="M139.1,109.2c0.4,0,0.8,0.1,1-0.3c0.6-0.8,1.5-1.4,1.9-2.3c-0.2,0-0.5-0.1-0.7-0.1
		C140.6,107.5,139.7,108.2,139.1,109.2z"/>
	<path class="st0" d="M142.6,45.4c0-1-1-1.7-1.5-2.5c-0.2-0.4-0.7-0.4-1.1-0.4c0.1,0.7,0.8,1,1.1,1.6
		C141.5,44.6,141.9,45.3,142.6,45.4z"/>
	<path class="st0" d="M140.2,104.6c0.2,0,0.5,0,0.6,0.1c0.6-0.8,1.3-1.6,1.8-2.5c0-0.3-0.3-0.6-0.5-0.3c-0.4,0.4-0.7,0.9-1,1.3
		C140.9,103.7,140.3,104,140.2,104.6z"/>
	<path class="st0" d="M141.9,41.2c0.7,0.9,1.3,1.7,2,2.5c0.2,0,0.5,0,0.6-0.1c-0.4-1-1.2-1.7-1.8-2.5
		C142.6,40.8,141.7,40.5,141.9,41.2z"/>
	<path class="st0" d="M142.2,105.7c0,0.1,0.1,0.3,0.2,0.3c0.5,0.1,0.8-0.4,1.1-0.8c0.5-0.6,1-1.2,1.4-1.9c-0.1-0.3-0.4-0.4-0.7-0.3
		C143.5,103.9,142.9,104.8,142.2,105.7z"/>
	<path class="st0" d="M144.9,48.2c-0.5-0.8-1-1.5-1.6-2.3c-0.2,0-0.5,0-0.7,0c0.5,1.1,1.2,2,1.9,3C144.9,48.9,145.1,48.5,144.9,48.2
		z"/>
	<path class="st0" d="M142.8,101.2c0.3,0,0.7,0.2,0.9-0.1c0.6-0.9,1.3-1.7,1.6-2.7c-0.3,0.1-0.7-0.1-0.8,0.2
		C143.8,99.5,143.3,100.3,142.8,101.2z"/>
	<path class="st0" d="M146.6,47.6c0.1-0.1,0.4-0.2,0.6-0.3c-0.6-1-1.3-2-2-3c-0.2,0.1-0.4,0.2-0.6,0.2
		C145.2,45.6,146,46.5,146.6,47.6z"/>
	<path class="st0" d="M145,102.4c0.3-0.1,0.6,0,0.8-0.3c0.6-0.9,1.2-1.7,1.7-2.7c-0.2,0-0.5-0.1-0.6-0.2c-0.5,0.7-1,1.6-1.5,2.3
		C145.1,101.8,145.1,102.1,145,102.4z"/>
	<path class="st0" d="M147.2,52.5c-0.5-0.9-0.8-1.9-1.4-2.7c-0.2-0.3-0.5-0.2-0.8-0.3c0.5,1.1,0.9,2.2,1.6,3.1
		C146.8,52.6,147.1,52.5,147.2,52.5z"/>
	<path class="st0" d="M146.6,94.7c-0.4,1-1,1.9-1.4,2.9c0.2,0,0.5,0,0.7,0c0.5-1,1.1-1.9,1.4-3C147.1,94.7,146.8,94.7,146.6,94.7z"
		/>
	<path class="st0" d="M148.9,56.5c-0.2-1.1-0.8-2-1.2-3c-0.2,0-0.5,0-0.7,0c0.4,0.9,0.7,1.8,1.1,2.7
		C148.3,56.5,148.6,56.5,148.9,56.5z"/>
	<path class="st0" d="M149.2,50.8c-0.4-0.8-0.8-1.6-1.3-2.3c-0.1-0.3-0.5-0.2-0.8-0.3c0.4,1.2,1.1,2.3,1.9,3.3
		C149.1,51.3,149.4,51,149.2,50.8z"/>
	<path class="st0" d="M148,93.5c0.3-0.8,0.7-1.6,1-2.4c-0.1-0.1-0.3-0.3-0.3-0.5c-0.7,1-1.1,2.2-1.5,3.3
		C147.5,93.9,147.9,93.9,148,93.5z"/>
	<path class="st0" d="M148.1,98.6c0.6-1,1.1-2,1.5-3.1c-0.2,0-0.5,0-0.7,0c-0.5,1-1.1,2-1.6,3C147.6,98.5,147.8,98.5,148.1,98.6z"/>
	<path class="st0" d="M149.4,89.9c0.3-1.1,0.7-2.1,1-3.2c-0.2,0-0.5,0-0.7,0c-0.3,1.1-0.7,2.1-1,3.2C149,89.9,149.2,89.9,149.4,89.9
		z"/>
	<path class="st0" d="M148.7,57.3c0.3,1.1,0.7,2.1,1,3.2c0.1,0,0.4,0,0.6,0c-0.1-1.1-0.6-2.2-1-3.3
		C149.1,57.3,148.8,57.3,148.7,57.3z"/>
	<path class="st0" d="M151.1,55.5c-0.2-1.1-0.7-2.1-1.2-3c-0.1-0.4-0.5-0.3-0.8-0.4c0.3,1,0.8,1.8,1.2,2.8
		C150.4,55.3,150.8,55.5,151.1,55.5z"/>
	<path class="st0" d="M149.4,94.6c0.2,0,0.5,0.1,0.7,0.1c0.5-1.1,1-2.1,1.3-3.2c-0.3,0-0.5,0-0.8,0
		C150.4,92.5,149.8,93.6,149.4,94.6z"/>
	<path class="st0" d="M150.7,85.7c0.1-1.1,0.6-2.1,0.6-3.2c-0.2,0-0.5,0-0.6,0c-0.2,1.1-0.5,2.2-0.7,3.2
		C150.3,85.8,150.5,85.7,150.7,85.7z"/>
	<path class="st0" d="M150,61.4c0.2,1,0.4,2.1,0.7,3.1c0.2,0.1,0.4,0.1,0.6,0.2c-0.2-1.1-0.4-2.2-0.7-3.3
		C150.5,61.4,150.2,61.4,150,61.4z"/>
	<path class="st0" d="M151,81.6c0.4,0.1,0.7-0.2,0.7-0.6c0-0.9,0.2-1.9,0.3-2.8c-0.2,0-0.5,0-0.7,0C151.3,79.4,151.1,80.5,151,81.6z
		"/>
	<path class="st0" d="M151.1,65.4c-0.1,1.1,0.3,2.3,0.2,3.4c0.2,0,0.4-0.1,0.7-0.1c-0.2-0.8-0.3-1.5-0.3-2.3
		C151.7,65.9,151.4,65.6,151.1,65.4z"/>
	<path class="st0" d="M152,59.7c0.2,0,0.5-0.1,0.7-0.1c-0.3-1-0.7-2.1-1.1-3.1c-0.1-0.3-0.4-0.3-0.7-0.2
		C151.2,57.4,151.7,58.5,152,59.7z"/>
	<path class="st0" d="M151.2,90.5c0.3,0,0.7,0,0.8-0.4c0.3-1,0.8-2,0.8-3c-0.2,0-0.5,0-0.6,0C151.8,88.2,151.5,89.4,151.2,90.5z"/>
	<path class="st0" d="M151.5,69.7c0,1.1,0.1,2.1,0.1,3.2c0.2,0,0.4,0.1,0.7,0.1c0-1.1-0.1-2.1-0.1-3.2
		C151.9,69.8,151.7,69.8,151.5,69.7z"/>
	<path class="st0" d="M152.2,73.9c-0.1,0-0.4,0-0.5,0c-0.2,1.1-0.2,2.3-0.2,3.4c0.2,0,0.5-0.1,0.7-0.2
		C152.1,76.1,152.3,75,152.2,73.9z"/>
	<path class="st0" d="M153.6,64c-0.1-1.2-0.3-2.3-0.8-3.4c-0.1,0-0.4,0-0.5,0c0,1.2,0.6,2.3,0.7,3.4C153.2,63.9,153.5,63.9,153.6,64
		z"/>
	<path class="st0" d="M152.6,86.3c0.2-0.1,0.5-0.2,0.6-0.3c0-0.9,0.3-1.8,0.5-2.6c0.1-0.4-0.1-0.7-0.4-0.8
		C153,83.7,152.5,85,152.6,86.3z"/>
	<path class="st0" d="M153.5,81.7c0.1,0,0.4,0,0.5,0c0.2-1.2,0.4-2.3,0.5-3.5c-0.2,0-0.5,0-0.6,0C153.6,79.4,153.5,80.6,153.5,81.7z
		"/>
	<path class="st0" d="M154.3,68.3c0.1-1.1-0.1-2.3-0.4-3.4c-0.1,0-0.4-0.1-0.6-0.1c0.3,1.2,0.2,2.5,0.5,3.7
		C153.9,68.5,154.2,68.3,154.3,68.3z"/>
	<path class="st0" d="M154,77.3c0.1,0,0.4,0,0.5,0c0.2-1.2,0.1-2.5,0.1-3.7c-0.2,0.1-0.5,0.2-0.6,0.3C153.9,75.1,154,76.2,154,77.3z
		"/>
	<path class="st0" d="M154.7,72.8c0-1.2,0-2.3-0.2-3.4c-0.1,0-0.4-0.1-0.5-0.1c0.1,1.2,0,2.3,0.1,3.5
		C154.2,72.8,154.5,72.8,154.7,72.8z"/>
	<path class="st0" d="M218.7,65.4c-0.4-5,0.2-10-0.6-15c-0.8-5.3-2.6-10.4-4.5-15.4c-3-5.7-3.5-12.4-6.9-17.9c-0.6,0-1.2,0-1.8,0.1
		c-5.9,0.6-12,1.2-17.2,4.3c-1.2-0.5-2.5-1-3.8-0.7c-2.4,0.5-4.3,2.2-6.1,3.8c-0.3,0.3-0.8,0.3-1.2,0.4c-1.1,0.2-2.1,0.8-3.2,0.9
		c-0.7,0.1-1.5,0.1-2.2,0.3c-0.8,0.2-1.3,1-2.1,1.2c-0.9,0.3-2.2,0.3-2.3,1.5c0.4,0,0.7,0,1.1,0c-0.3,0.3-0.5,0.5-0.7,0.8
		c0.1,0.8,0.2,1.6,0.1,2.4c0.1,0,0.3-0.1,0.4-0.1l0.2-0.1c-0.1-1,0.1-1.9,0.7-2.6c0.7,0.6,1,1.4,1.8,1.9c0-0.4-0.2-1,0.2-1.2
		c-0.4-0.5-0.8-1-1.1-1.6c0.8,0,1.2,0.8,1.4,1.5c0.7,2,0.3,4.1,0.8,6.1c1.9,0,3.8,0.1,5.8-0.1c3.3,0,6.7-0.1,10,0
		c-0.9,0-1.8,0-2.7,0.1c-1.6,0.2-3.2,0.1-4.7,0.6c2.5,0.4,5-0.5,7.5-0.3c4.8,0.1,9.6,1.2,13.8,3.5c3.8,2,7,5,9.6,8.3
		c1.5,1.8,2.6,3.8,3.8,5.8c-1.1-3.2-3.1-6.1-5.3-8.7c-4.8-5.4-11.7-8.5-18.8-9.3c4.8,0.3,9.8,1.4,13.8,4.1c1.9,1.2,3.5,2.9,5,4.5
		c2.7,3.3,4.9,7.1,6.7,11c0.4,0.8,0.8,1.5,1.1,2.3c-0.9-0.6-1.3-1.6-1.8-2.5c0.5,1.4,1.4,2.6,1.8,4.1c-0.6-0.6-1.2-1.3-2-1.7
		c-0.1-0.8,0.1-1.7-0.3-2.4c-1.6-3.2-3.5-6.4-5.8-9.1c-2-2.3-4.3-4.3-6.9-5.9c-3.9-2.2-8.4-3.5-12.9-3.8c-1.3-0.2-2.6-0.2-3.9-0.2
		c-2.5,0.3-5.1,0.8-7.6,0.2c0.4-0.1,1-0.1,1.3-0.5c-1.2,0-2.4,0-3.5,0c-0.4,0-1.2-0.1-1,0.6c0.4-0.1,0.8-0.2,1.2-0.3
		c0,0.1-0.1,0.3-0.2,0.4c-1.1,0.6-2.4,0-3.6,0.3c-0.4,0.2-0.7,0.5-1.1,0.5c-0.1,1.1,0.1,2.2,0.2,3.2c-0.8-0.8-0.5-1.9-0.4-2.9
		c0-0.9,0.3-2-0.3-2.8c-0.7-1.1-1.7-1.8-2.4-2.9c-0.1,0-0.2,0-0.3,0c-0.2,0.3-0.4,0.6-0.5,0.9c0.2,0,0.6,0.1,0.8,0.1
		c0,0.3,0,0.6,0,0.9c0.8,0.4,2,0.6,2.2,1.6c0.1,1.6-0.1,3.1,0,4.7c0.2,0.8,0.5,1.5,1,2.1c0.9,0.8-0.3,2,0.2,3
		c0.3,0.1,0.6,0.1,0.9,0.2c0.1-0.4,0.2-0.8,0.2-1.2c0.1-0.1,0.4-0.1,0.5-0.2c0.7,0.9,1.3,1.9,1.3,3c0.7-0.4,1.4-0.7,2.1-1.1
		c0.4-0.2,0.2-0.8,0.3-1.1c-0.9-0.2-1.8-0.6-2.6-1c0.6,0,1.2,0,1.8-0.1c-0.6-0.4-1.4-0.3-1.8-1c-0.3,0.1-0.6,0.1-0.9,0.2
		c-0.1-0.2-0.2-0.5-0.2-0.7c-0.6,0.1-1.1,0-1.4-0.5c0.2,0,0.6-0.1,0.8-0.1c-0.9-0.5-1.2-1.5-1-2.5c0.5,0.8,0.8,1.9,1.6,2.5
		c0.7,0.7,1.8,0.7,2.7,0.6c-0.6-1-1.1-2.1-1-3.3c-0.1-1.1,0.8-2.2,2-2.2c0.7-0.1,1.2,0.4,1.7,0.7c0,1.2-0.4,2.6,0.5,3.6
		c0.4-0.6,0.7-1.3,1.2-1.9c1.3-1.4,3.2-2,5-2c1.3,1.2,0.4,3.5-1.2,3.9c-0.9,0.5-1.5-0.7-2.2-0.9c-0.3,1.5,0.2,3,0.3,4.5
		c2.3-0.1,4.6,0.4,6.9,0.5c-1.8-1.4-4.2-0.5-6.2-1.4c2-0.4,4,0.6,6,0.3c-1.5-0.9-3.4-0.2-4.9-1.2c1.8,0,3.6,0.5,5.4,0.6
		c0.3-1.6,0.2-3.4,1.2-4.8c0.6-0.8,1.7-1,2.6-1c0.3,0.5,0.9,0.9,0.8,1.5c0,1.3-1.2,2.1-1.6,3.2c-0.1,0.6,0,1.2,0,1.8
		c0.6,0.2,1.2,0.5,1.8,0.8c-0.5,0-1.1-0.1-1.6-0.2c0.6,0.9,1.7,0.9,2.6,1.2c-0.2-0.3-0.4-0.6-0.6-0.9c0.3,0,0.6,0.1,0.9,0.1
		c0.8-1.5,0.8-3.5,2.2-4.7c0.8-0.5,1.8-0.7,2.6-0.3c0.5,0.6,0.7,1.5,0.4,2.2c-0.6,1.3-2,2.1-2.4,3.5c0,0.3-0.3,0.7,0,0.9
		c0.9,0.7,1.6,1.6,2.7,2c0.8-1.5,1.2-3.3,2.6-4.3c1-0.7,3.1,0,2.6,1.4c-0.6,1.9-2.3,3.1-3.1,4.9c-0.3,1.3,1.2,1.9,1.7,3
		c-0.2,0-0.6,0-0.9,0c0.2,0.4,0.5,0.8,0.8,1.1c0.8-1.3,1.1-2.8,2-4c0.6-0.9,1.6-1.5,2.7-1.4c0.6,0.8,0.8,2,0.2,2.9
		c-0.7,1.1-1.5,2.2-2.6,3.1c-0.2,0.5-0.3,0.9-0.4,1.4c0.2,0.4,0.5,0.7,0.7,1c-0.3,0.1-0.5,0.3-0.7,0.4c0,0.5,0.1,0.9,0.1,1.4
		c0.2,0,0.5,0.1,0.7,0.1c-0.2-0.4-0.4-0.8-0.7-1.1c0.3-0.1,0.6-0.3,0.9-0.4c0.2,0.1,0.5,0.3,0.7,0.4c1.2-1.7,2.2-3.6,4.1-4.5
		c0.6,0.5,1,1.1,1.2,1.8c-0.1,1.3-1.3,2.1-2.1,3c-0.8,0.8-1.9,1.6-2,2.9c1,0.6,2.1,0.9,3.3,1c-0.7-0.8-2.1-0.5-2.7-1.5
		c1.5,0.6,3.1,1.1,4.8,0.9c-0.2-0.5-0.4-0.9-0.5-1.4c0.4,0.2,0.8,0.6,1.2,0.8c0.4,0,0.8,0,1.3,0c-0.1,0.4-0.1,0.8-0.1,1.2
		c-1.7,0.3-3.4,0.3-5,0.1c-1-0.1-1.8-0.6-2.7-1c-1.6,4-1.9,8.4-0.9,12.6c-0.7,0.4-1.5,0.8-2.3,0.8c0-2.1-0.3-4.2-0.3-6.3
		c0-0.5-0.5-0.6-0.8-0.8c-0.7-0.4-1.1-1.1-1.3-1.9c-0.3-1.1-0.5-2.2-0.9-3.2c0.3,0.2,0.6,0.4,0.9,0.5c-0.2-0.4-0.3-0.8-0.5-1.2
		c0.3-0.4,0.5-0.8,0.8-1.2c0.2,0.3,0.4,0.5,0.6,0.8c0-0.5,0-1.1,0-1.6c0.1-0.4,0.4-0.8,0.6-1.2c0-1,0-2,0-3c-1.4,0-2.1,1.4-2.4,2.6
		c0.1,0.8,0.7,1.5,0.9,2.3c-0.6-0.4-0.8-1.2-1.4-1.5c-1.1-0.2-0.9,1.3-1.1,1.9c-0.1,0-0.4,0-0.5,0c-0.5-0.7-0.9-1.5-1.1-2.4
		c0-1.2,1.4-1.9,1.4-3.1c-0.5-1.3,0.2-2.7-0.5-3.9c-1,0.3-1.6,1.4-1.6,2.4c-1.2,0.4-1.3,1.7-2.1,2.5c-0.9-0.3-2.1-0.8-2-1.9
		c0.6-1.2,1.6-2.2,2.1-3.5c0.1-0.5,0-1,0-1.6c-0.5,0-0.9-0.1-1.4-0.1c-0.6,1.6-0.9,3.4-1.5,5c-0.4,1.2-1.9,0.9-2.8,0.7
		c-0.1-2,1.3-3.9,0.8-6c-0.6-0.1-1.2,0-1.7-0.5c-0.5,0.7-1.3,0.5-2,0.7c0.1,0.6,0.2,1.2,0.4,1.8c0.4,0.4,0.8,0.8,1.2,1.3
		c-1.2,0.5-2.8,0.6-3.8-0.3c-0.3-0.8-0.3-1.8-1.1-2.3c-0.8,0-1.5,0-2.3,0.1c-0.1,1.3,0.2,2.7-0.3,4c1.4-0.2,2.8-0.3,4.1,0.1
		c1.9,0.4,3.6,1.3,5.4,1.8c0.9,0.3,1.9,0.2,2.9,0.2c0.8,0.1,1.3,0.7,1.7,1.2c-0.2,0-0.6,0-0.8,0c0.2,2.1,0,4.3-1.1,6.1
		c-1.3,2-3.6,3.2-6,3.1c-2.5,0.1-5.2-1-6.8-2.9c-1-1.2-1.6-2.8-1.7-4.3c-0.1-1.4,0.3-2.8,0.7-4.1c-0.1-0.2-0.3-0.3-0.4-0.5
		c0.4-0.1,0.7-0.1,1.1-0.2c-0.5-0.4-1.3-0.8-1.3-1.6c0.2-0.6,0.5-1.1,0.7-1.7c-0.8,0-1.6,0-2.5,0c-0.2-0.4-0.3-0.9-0.7-1.1
		c-0.9-0.1-1.9,0.1-2.7-0.3c-0.9-0.4-1.4-1.2-1.9-2c-0.6-0.3-1.3-0.4-2-0.7c-0.6-0.5-1.4-1-2.2-0.9c-0.5,0-1.1,0.5-1,1
		c0.4,0.4,1.1,0.3,1.6,0.3c0.4,0.6,0.9,1.2,1.1,1.9c-0.3-0.3-0.5-0.7-0.8-1c-0.2,0.5,0.1,0.9,0.3,1.3c-0.7,0.1-1.4,0.3-2.1,0.4
		c-0.2,0.8-0.5,1.6-0.7,2.5c-0.3,1.3,0.9,2.4,0.9,3.6c0.2,3-1.4,5.8-1.2,8.9c-0.2,0.2-0.7,0.3-0.7,0.7c-0.2,1.7-0.7,3.4-0.7,5.1
		c0,0.7,0.3,1.4,0.6,2.1c0-0.8-0.1-1.7,0.1-2.5c0.2-0.7,0.6-1.3,1-1.9c0.1,0.3,0.1,0.6,0.2,0.8c0.3,0,0.5,0,0.8,0.1
		c0.5,0.6,0.6,1.4,0.7,2.1c0.2,1.2-1,2.1-1.2,3.2c-0.2,0.9,0.9,1.2,1.4,1.7c0.2,1,0.1,2.1,0.8,2.8c0.6,0.6,1.5,0.6,2.2,0.6
		c0.1-0.6-0.1-1.1-0.2-1.7c0.2-0.3,0.5-0.6,0.6-1c-0.2-1.4-1.5-2.1-2.1-3.3c-0.5-1-1.1-2.1-1.1-3.3c0.4,1.3,0.7,2.7,1.8,3.5
		c-0.3-0.8-0.7-1.6-0.8-2.5c-0.3-1.3,0.2-2.6,0.1-3.8c-0.2,0.3-0.5,0.7-0.7,1c0-0.5,0.1-1,0.3-1.5c0.2,0,0.5-0.1,0.7-0.1
		c-0.3-0.8-0.3-1.6,0-2.4c0.2,0,0.6,0,0.7,0c-0.7-0.4-1.5-0.7-2.1-1.3c0.3-0.9,1.1-1.6,2-1.9c0.4,0.2,0.7,0.3,1.1,0.5
		c-0.1,0.6-0.3,1.1-0.5,1.6c-0.4-0.2-0.9-0.4-1.3-0.6c-0.1,1.1,1.4,1.2,2.2,0.8c0,0.3-0.1,0.6-0.1,0.9c5.6,2.5,11.2,5.1,16.3,8.6
		c1.6,1,3,2.2,4.3,3.6c-5.4-4.2-11.2-8-17.6-10.5c-0.8-0.3-1.7-0.7-2.6-0.9c6.9,3.6,14.3,6.7,20,12.1c-4.9-3.5-9.9-6.8-15.4-9.4
		c-1.7-0.9-3.5-1.5-5.2-2.4c-0.6,1.2-0.4,2.7-1.5,3.6c-0.1-1.3,1-2.4,0.8-3.7c-0.1,0-0.3,0.1-0.4,0.1c-0.7,1.5-1.1,3.2-1,4.9
		c0.3,1.5,1,3.3,2.6,3.8c-0.4-0.9-1.2-1.6-1.7-2.4c-0.3-0.5-0.5-1.3-0.1-1.8c-0.1,1.4,0.8,2.6,2.1,3.3c0.5-1.1-0.2-2.2,0.1-3.3
		c0.6-1.4,2.6-1.6,3.6-0.5c0.6,0.5,0.7,1.5,0.3,2.1c-0.6,1.1-1,2.4-1,3.7c1.1,0.8,2.3,1.1,3.3,2c-1.3-0.2-2.4-1.2-3.6-1.6
		c0.4,1.5,2.4,1.2,3.2,2.3c-1.2-0.2-2.1-1.2-3.3-1.3c-0.1,0.4-0.2,0.7-0.3,1.1c-0.5-0.2-1-0.3-1.4-0.5c0.5,1.2,1.9,1.8,3.2,1.6
		c0.6,0.1,1-0.5,1.6-0.5c0.3,0.2,0.7,0.4,1,0.6c0.3-1.6,0.7-3.2,0.1-4.8c0.2-0.8,1-1.6,1.9-1.6c1.2-0.1,2.2,1.1,2.2,2.2
		c0.1,1.3-0.9,2.3-1.3,3.4c-0.2,0.9-1,1.3-1.8,1.7c1.2-0.3,2.4,0.1,3.6,0.3c-0.3-0.3-0.7-0.6-1-1c1.2,0.3,2,1.6,3.3,1.4
		c0.3-1.1-0.6-2.6,0.5-3.5c1.1-0.9,3.1-0.6,3.5,0.9c0.4,1.1-0.8,1.8-1.1,2.7c2.3,0.3,4.6,1.1,6.9,0.7c-0.8-1.1-1.9-2-2.5-3.3
		c1.4,0.8,1.8,3,3.5,3.3c-0.3-0.8-1-1.3-1.4-2.1c0.8,0.5,1.3,1.4,1.7,2.3c1.4,0.1,2.8,0,4.1,0.2c2.1,0.2,4.2,0.6,6.4,0.5
		c0.1-0.5,0.2-1,0.5-1.5c0.2,0.6,0.3,1.4,1,1.7c0.4,0.1,0.8,0,1.2,0c-0.1-0.6-0.3-1.3-0.6-1.9c-0.9-2-1.4-4.3-0.8-6.5
		c-0.7-0.9-1.3-2.1-1.1-3.4c0,0.7,0.2,1.5,0.9,1.8c0.3-1.6,0.7-3.3,1.4-4.7c0.8-1.8,2.1-3.4,3.4-4.9c-0.8,0-1.6-0.1-2.4-0.3
		c0-0.1-0.1-0.3-0.1-0.3c1.8,0.1,3.5-0.3,5.3-0.6c0.1,1.8,0,3.7-0.1,5.5c-0.2,4.5-0.6,9-1,13.5c-0.2,2-0.2,4.1-1.2,5.9
		c-1.2,0.2-1.4-1.6-2.5-1.4c-1.3,0.3-2.6,0.3-3.9,0.2c-0.8,0-1.4-0.5-2.1-0.6c-2-0.4-4.1-0.7-6.2-0.8c0.1,0.4,0.3,0.8,0.4,1.1
		c-0.2,0.1-0.5,0.2-0.7,0.2c0.3,0.5,0.5,0.9,0.7,1.4c-0.9-0.3-0.7-1.5-1.5-1.9c0.2,0.9,0.7,1.8,1.1,2.7c1.2,3,2.4,6,3,9.2
		c0.2-0.2,0.3-0.3,0.5-0.5c0.1,0.7,0.3,1.4,0.4,2.2c-0.4,0-0.7-0.1-1.1-0.1c-0.2-1.1-0.2-2.2-0.5-3.2c-0.6-3.1-2.1-5.9-3.2-8.8
		c-0.2-0.5-0.3-1-0.7-1.4c-1.1-0.1-2.2-0.5-3.3-0.3c-1.1,1.7-1.9,3.7-1.3,5.8c-0.2-0.3-0.5-0.6-0.8-0.8c-0.1,0.9,0.8,1.6,0.9,2.5
		c-0.6-0.1-1.1-0.3-1.7-0.5c-0.2,0.3-0.3,0.6-0.4,0.9c-0.8-0.5-1.2-1.3-2-1.8c0.2,1.8,1.9,3.1,3.5,3.6c0.7-1,0.8-2.1,0.7-3.3
		c0.3,0.2,0.5,0.5,0.8,0.7c0.3-1.1,1-2.2,2.1-2.6c0.9-0.4,2.1,0.1,2.3,1.1c0.2,0.6,0.4,1.3-0.1,1.8c-1,0.9-2.1,1.7-2.8,2.9
		c-0.2,0.4-0.6,0.7-0.5,1.2c0.3,0.7,0.8,1.3,0.8,2c-0.5-0.2-1.1-0.5-1.6-0.7c-0.1,0.5-0.3,1-0.5,1.5c-0.7-1-0.8-2.3-1.5-3.3
		c-0.2-0.3-0.5-0.3-0.8-0.4c0.1,2.2,1.4,4.3,3.3,5.4c0.7-0.2,1.1-1.1,1.2-1.9c1.6,0,1.6-2.4,3.1-2.4c1.7,0.3,2.6,2.7,1.3,3.9
		c-0.6,0.7-1.9-0.1-2.3,0.9c-0.3,0.5-0.3,1-0.4,1.5c-0.3,0.2-1.1,0-0.9,0.6c0.4,0.3,1.2,0.3,1.2,1c-0.4,0-0.7-0.1-1.1-0.1
		c0.8,1.4,2.7,1.4,3.9,0.5c1.3,0.8,1.9,2.9,0.7,4c-0.8,0.7-1.8-0.2-2.6-0.5c-0.1,0.3-0.2,0.6-0.4,0.9c0.3,0.3,0.6,0.7,0.6,1.1
		c-0.6,0-1-0.3-1.4-0.7c0.2-0.2,0.5-0.4,0.7-0.6c-0.7-0.9-1.8-0.7-2.8-0.8c-0.1-0.3-0.3-0.6-0.5-1c-0.5,0.2-0.4,0.7-0.4,1.2
		c0.2,2.8,0.8,5.5,1.2,8.3c2.3,0.4,4.9,0.1,7,1.3c0.3,0.2,0.8,0.4,0.7,0.9c-0.5,3.3-1.9,6.4-3.1,9.5c-0.2,0.9-1.4,0.8-2,1.3
		c0.6,0.5,1.6,0.9,2.3,0.3c1.1-1,1.5-2.5,1.9-3.9c0.6-2.2,2-4.2,2-6.6c0-1,0.7-1.6,1-2.5c0.3-1.2,0.3-2.5,0.5-3.7
		c0.1-0.8,0.5-1.6,0.8-2.3c0.4-1.2,0.3-2.6,0.4-3.9c0-0.8,0.2-1.5,0.1-2.3c-0.2-2.1-0.1-4.3-0.3-6.4c-0.2-3.4-0.5-6.7-0.3-10.1
		c0.6,0,1.2-0.2,1.9-0.2c0.7,0.4,1,1.1,1.6,1.6c0.2,0.2,0.6,0.3,0.6,0.7c0.7,3.9,0.7,7.9,1.4,11.9c0.5,0,1,0,1.6,0c0-3-0.9-6-0.6-9
		c0-0.7,0.3-1.4,0.6-2.1c0.4,0.5,0.8,1,1,1.7c0.8,2.5,0.3,5.2,0.7,7.8c0.2,2.2,0.5,4.3,0.5,6.5c0,2-0.6,4-0.9,5.9
		c-0.2,1.7-0.5,3.4-0.9,5.1c-0.6,2.7-1.7,5.3-2,8c0,1.1-1.3,1.7-1,2.8c0.8-0.2,0.6-1.3,1.4-1.5c0.4,1.1,0.5,2.4,1,3.4
		c0.3,0.3,0.7,0.6,1,0.9c1.3-2.8,1.8-5.8,2.2-8.9c0.4-2.9,0.4-5.8,0.5-8.7c0.1-3-0.1-5.9-0.1-8.9c-0.1-3.5-0.3-6.9-0.6-10.4
		c-0.2-1.5-0.1-3.1-0.4-4.6c-0.4-1-1.3-1.9-1-3c0.9-5.7,1.5-11.3,1.9-17C218.6,69.8,218.7,67.6,218.7,65.4z M169.6,29.1
		c0.2,0.4-0.4,0.4-0.5,0.1C168.9,28.8,169.5,28.8,169.6,29.1z M215.9,59c0.1,0.5,0.3,1.3-0.1,1.7C215.7,60.1,215.8,59.5,215.9,59z
		 M215.3,59.7c-0.1,0.4-0.1,0.7-0.2,1c-0.1,0-0.4,0-0.5,0C214.8,60.3,214.8,59.7,215.3,59.7z M170.1,65.1c0.3,0.3-0.2,0.5-0.4,0.3
		C169.4,65.1,169.9,64.9,170.1,65.1z M167.1,65.9c0-0.5,0-1,0.1-1.5c0.4,0,0.8,0,1.2-0.1C168.4,65.1,167.8,65.6,167.1,65.9z
		 M173,63.2c-0.4-0.8,1.1-0.3,0.4,0.2C173.3,63.4,173.1,63.3,173,63.2z M203.9,77c-0.4,0.6-1.3,0.4-1.9,0.3c-1-0.6-1.1-2-0.5-2.9
		c0.7-0.5,1.6,0.1,2.4,0C204.3,75.2,204.6,76.3,203.9,77z M199.4,112c0.6-0.1,1.2,0.2,1.1,0.9C199.9,112.9,199.6,112.5,199.4,112z
		 M199.8,113.9c0-0.3-0.1-0.5-0.1-0.8c0.3,0,0.6,0.1,0.9,0.1c0.1,0.2,0.3,0.5,0.4,0.6C200.5,114,200.1,114,199.8,113.9z
		 M202.9,114.1c0.1,0.7-0.2,1.4-0.8,1.7C202.1,115.1,202.3,114.4,202.9,114.1z M205.9,117.7c-0.7-0.4-0.5-1.3-0.7-1.9
		C205.8,116.2,205.8,117.1,205.9,117.7z M204.9,110.8c0.6,0.7,1.3,1.2,1.8,1.9c-0.6-0.3-1-0.7-1.7-0.8c0.1,0.9,1,1.1,1.7,1.5
		c0,0.1,0.1,0.3,0.1,0.4c-0.5-0.2-1-0.4-1.5-0.6c-0.1,0.8,0.3,1.6,0,2.4c-0.4-0.7-0.4-1.6-0.5-2.4c-0.3,0.2-0.5,0.3-0.8,0.5
		c0-0.4-0.1-0.7-0.1-1.1c-0.2,0.3-0.4,0.6-0.5,0.9c0.2,0.2,0.4,0.4,0.7,0.7c-0.5,0.9-0.9,1.8-1.1,2.7c0.6,0.5,1.1,1.1,1.8,1.5
		c-0.2-1.2-0.4-2.5-0.5-3.7c1,1.5,0.9,3.4,1.1,5.1c-0.5-0.1-0.9-0.3-1.3-0.4c0-0.2,0-0.4,0-0.7c-0.5-0.7-1.1-1.4-1.9-1.8
		c0.4,0.7,0.9,1.4,1.4,2c-1.3-0.6-2.2-1.8-3-3c0.3,0.1,0.6,0.3,0.8,0.4c-0.2-0.4-0.4-0.9-0.6-1.3c-0.3,0.1-0.6,0.5-0.8,0.1
		c0-0.1-0.1-0.4-0.1-0.5c0.4,0,0.8-0.1,1.2-0.1c0.3,0.7,0.5,1.6,1.3,1.8c0.6-0.1,0.8-0.8,1-1.3c0.3-0.5-0.1-1-0.2-1.4
		c0.4-0.9,0.9-1.8,0.9-2.9C204.3,110.6,204.7,110.5,204.9,110.8z M204.9,108.6c-0.1,0-0.3-0.1-0.5-0.1c-0.1-1-0.1-2.1,0.1-3.1
		C205,106.4,204.8,107.5,204.9,108.6z M204.4,101c0,0.8,0.1,1.6,0.2,2.4c-0.5-0.4-0.4-1.1-0.6-1.6c-0.3,0.7-0.1,1.5,0,2.3
		c0.2-0.2,0.5-0.4,0.8-0.6c0.1,0.3,0.1,0.7,0.2,1c-0.3,0-0.7,0-1-0.1c0.1,0.9,0.2,1.9,0.2,2.9c-0.4-2.2-0.6-4.3-0.8-6.5
		C203.6,101.1,204,101,204.4,101z M203.2,95.7c-0.7-1.6-1.2-3.2-1.7-4.9C202.5,92.2,203,94,203.2,95.7z"/>
	<path class="st0" d="M171.2,35.2c0-0.6,0.1-1.2-0.4-1.7C170.9,34.1,170.5,34.9,171.2,35.2z"/>
	<path class="st0" d="M173.2,76.5c-0.2-0.5-0.8-0.5-1.2-0.6C172.3,76.2,172.7,76.5,173.2,76.5z"/>
	<path class="st0" d="M172.9,76.9c0.1,0.4,0.5,0.7,0.8,1c0-0.3,0-0.6,0-0.9C173.5,76.9,173.2,76.9,172.9,76.9z"/>
	<path class="st0" d="M175.3,72.4c0.2,0,0.5,0,0.8,0c0-0.2-0.1-0.5-0.1-0.7c-0.2,0-0.4,0-0.5,0C175.4,71.9,175.4,72.2,175.3,72.4z"
		/>
	<path class="st0" d="M182.6,83.8c-0.6-0.4-1.3-0.7-2.1-0.7c-0.4,0.1-0.5,0.5-0.7,0.9C180.7,84.1,181.9,84.6,182.6,83.8z"/>
	<path class="st0" d="M181.7,76c0.4,0.1,0.8,0.2,1.2,0.2c0-0.2,0-0.4-0.1-0.7c-0.4,0-0.8-0.1-1.2-0.1
		C181.7,75.6,181.7,75.9,181.7,76z"/>
	<path class="st0" d="M182.2,45.2c0,0.9,0,1.9,0.5,2.7c0.3,0.2,0.6,0.3,1,0.4c0.5-0.9,0.6-2,0.6-3.1
		C183.6,45.2,182.9,45.2,182.2,45.2z"/>
	<path class="st0" d="M184.6,84.6c-0.5,0.4-1,0.8-1.4,1.3c0,0.5,0.7,0.6,1.1,0.5c0.7,0,1.4-0.4,2-0.8
		C185.9,85.1,185.3,84.7,184.6,84.6z"/>
	<path class="st0" d="M185.9,55.4c-0.1,1,0,2-0.1,3c-0.8,0.3-1.7,0.5-2.4,1.1c0.9,0.3,2,0.4,2.7,1.2c0.1,1-0.2,2,0.2,2.9
		c0.7-0.8,0.9-2,1.8-2.6c0.3-0.1,0.5,0.1,0.8,0.2c0.6,0.3,1.3,0.5,2.1,0.4c-0.6-0.9-1.6-1.5-2-2.5c0.6-0.7,1.3-1.5,1.3-2.5
		c-0.8,0.4-1.6,0.8-2.4,1C187.1,56.9,186.7,56,185.9,55.4z"/>
	<path class="st0" d="M187.1,86.9c-0.2,1.1,0.2,2.3,0.9,3.1c0.6,0.7,1.6,0.6,2.4,0.6c0.2-0.6,0.5-1.1,0.5-1.7
		c0.1-0.5-0.4-0.8-0.7-1.1c-0.7-0.7-1.2-1.5-2.1-1.9c0.1,0.8,1,1.2,1.4,1.9c-0.4,0.2-0.9,0.4-1.3,0.6
		C187.9,87.8,187.6,87.2,187.1,86.9z"/>
	<path class="st0" d="M188.6,79.4c0,0.3,0,0.6,0.1,0.9c0.4,0.1,0.8,0.1,1.2,0.1c0-0.2-0.1-0.5-0.1-0.7
		C189.3,79.4,188.9,79.4,188.6,79.4z"/>
	<path class="st0" d="M189.8,85.9c-0.3-0.4-0.8-0.5-1.3-0.2c0.5,0.3,1.1,0.6,1.4,1.1c0.4,0.6,0.8,1.1,1.4,1.5
		C191.1,87.3,190.5,86.5,189.8,85.9z"/>
	<path class="st0" d="M190.1,85.5c0.5,0.7,0.8,1.5,1.6,1.9c0.2-0.5,0.4-1,0.6-1.4C191.5,85.8,190.8,85.3,190.1,85.5z"/>
	<path class="st0" d="M192.7,46.6c-0.5,0.3,0,0.8,0.1,1.2c0.3,0,0.5,0,0.8-0.1c0-0.2,0-0.5,0-0.7C193.3,46.9,193,46.8,192.7,46.6z"
		/>
	<path class="st0" d="M192.4,45.9c0.6,1.1,1.8,1.1,2.9,1.2C194.9,46,193.4,46.2,192.4,45.9z"/>
	<path class="st0" d="M195.9,106.2c-0.2-0.8-0.4-1.7-0.6-2.5c-0.1,0-0.3-0.1-0.5-0.1c0,0.9,0,1.7,0.4,2.5
		C195.5,106.2,195.7,106.2,195.9,106.2z"/>
	<path class="st0" d="M197.8,91.8c0,0.4,0.1,0.9,0.3,1.2c0.1,0,0.4,0,0.6,0C198.5,92.5,198.4,91.8,197.8,91.8z"/>
	<path class="st0" d="M200.4,50.9c-0.2-0.5-0.5-1-0.8-1.4c-0.5-0.4-1.1-0.7-1.7-0.9c0,0.5-0.1,1-0.1,1.6c0.5,0,1-0.3,1.4,0
		C199.6,50.4,200,50.7,200.4,50.9z"/>
	<path class="st0" d="M198.1,47.6c0.4,0.9,1.3,1.8,2.4,1.9C199.8,48.7,199.1,47.8,198.1,47.6z"/>
	<path class="st0" d="M199.1,41.6c-0.2,0.2-0.5,0.4-0.7,0.6c0.5,0.2,1,0.4,1.5,0.3C200.2,42,199.4,41.8,199.1,41.6z"/>
	<path class="st0" d="M200.5,99.6c-0.6,0.2-0.1,0.7-0.1,1.1c0.1,0,0.4,0.1,0.5,0.1C200.9,100.4,200.9,99.9,200.5,99.6z"/>
	<path class="st0" d="M201.8,76.1c0.5,0.3,1.1,0.3,1.6,0.1c0-0.4,0.1-0.8,0-1.2c-0.3,0-0.7,0-1,0.1C202,75.2,201.9,75.7,201.8,76.1z
		"/>
	<path class="st0" d="M204.9,56.4c-0.2-0.9-0.9-1.4-1.4-2.1c0.1-0.1,0.3-0.3,0.4-0.4c-0.3-0.2-0.6-0.4-0.8-0.5
		c0.2-0.2,0.4-0.3,0.6-0.5c-0.3-0.1-0.6-0.2-0.8-0.3c-0.5,0.8-0.7,1.7-0.6,2.7c0.5,0,1-0.3,1.4-0.1C204,55.5,204.4,56,204.9,56.4z"
		/>
	<path class="st0" d="M204.2,46.1c0,0.3,0,0.6,0,0.9c0.3,0,0.6,0,0.9,0c0-0.3,0-0.6,0-0.9C204.8,46.1,204.5,46.1,204.2,46.1z"/>
	<path class="st0" d="M208.9,52.5c0.1-0.3,0.3-0.7,0.4-1c-0.3-0.1-0.6-0.1-0.8-0.1C208.6,51.7,208.8,52.1,208.9,52.5z"/>
	<path class="st0" d="M210.7,17.2c0.5,0.3,1.2,0.6,1.5,1.2c1.9,2.6,2,6,3.5,8.9c1.9,4.4,5.2,8.1,6.5,12.8c0.6,2.2,1.1,4.5,1.3,6.9
		c0.1,0.9,0.6,1.8,1.5,2.3c0.1-0.3,0.2-0.5,0.2-0.8c0.4-3.8-0.8-7.5-2.6-10.8c-1.7-3.3-4.2-6.2-5.4-9.8c-0.8-2.4-1.5-4.8-2.4-7.2
		c-0.7-1.7-1.9-3.5-3.8-3.8C211,16.9,210.8,17.1,210.7,17.2z"/>
	<path class="st0" d="M218.7,26.2c0.7,1.2,1,2.6,1.6,3.8c1.3,2.6,2.9,5,4.6,7.2c0.9,1.3,1.6,2.7,2,4.2c1,3.7,1.7,7.5,2.2,11.3
		c0.4,2.5,0.3,5.1,0.5,7.6c0.2,5,0,10-0.5,15c-0.3,2.7-0.4,5.5-0.9,8.2c-0.3,1.7-1.8,3.2-1,5c0.7-1,0.6-2.3,1.5-3.2
		c0.3,1.3,1,2.7,2.3,3.1c0.9,0.3,1.6-0.3,2.3-0.7c0.3-0.7,0.2-1.5,0.4-2.2c0.5-3.2,0.7-6.5,0.8-9.8c0.1-0.9,0.1-1.9,0-2.8
		c-0.2-6.1-0.7-12.1-1.7-18.1c-0.7-4-1.6-8.1-3.3-11.8c-1-2.3-2-4.6-3.8-6.5c-1.3-1.4-2.5-3-3.3-4.8c-2.2-4.1-3.4-8.7-5.7-12.8
		c-0.2-0.4-0.7-0.4-1.1-0.5c0.1,0.4,0.3,0.8,0.5,1.2C217.3,21.7,217.5,24.2,218.7,26.2z"/>
	<path class="st0" d="M227.2,89.7c0-0.1,0-0.4,0-0.5c-0.1,0-0.4,0-0.5,0c0,0.1,0,0.4,0,0.5C226.9,89.7,227.1,89.7,227.2,89.7z"/>
</g>
</svg>
