<?xml version="1.0" encoding="UTF-8"?>
<!DOCTYPE svg PUBLIC "-//W3C//DTD SVG 1.0//EN" "http://www.w3.org/TR/2001/REC-SVG-20010904/DTD/svg10.dtd">
<!-- Creator: CorelDRAW -->
<svg xmlns="http://www.w3.org/2000/svg" xml:space="preserve" width="84mm" height="53mm" version="1.0" style="shape-rendering:geometricPrecision; text-rendering:geometricPrecision; image-rendering:optimizeQuality; fill-rule:evenodd; clip-rule:evenodd"
viewBox="0 0 8400 5300"
 xmlns:xlink="http://www.w3.org/1999/xlink"
 xmlns:xodm="http://www.corel.com/coreldraw/odm/2003">
 <defs>
  <style type="text/css">
   <![CDATA[
    .fil0 {fill:black;fill-rule:nonzero}
   ]]>
  </style>
 </defs>
 <g id="Слой_x0020_1">
  <metadata id="CorelCorpID_0Corel-Layer"/>
  <path class="fil0" d="M8205.51 5168.49c-2677.32,0 -5351.14,0 -8024.98,0 0,-1675.5 0,-3351.01 0,-5033.49 10.48,0 24.44,0 34.91,0 1326.45,0 2659.88,0 3986.3,0 52.36,0 111.71,-3.5 164.06,-3.5 55.84,0 118.68,0 174.53,0 1214.74,0 2425.99,0 3640.73,0 34.91,0 34.91,0 34.91,34.91 0,233.87 0,471.24 0,708.59 0,97.74 0,195.48 0,293.22 0,104.72 0,209.44 0,310.67 0,115.18 3.5,223.39 3.5,338.59 0,66.32 -3.5,136.14 -3.5,205.95 0,101.23 0,205.94 0,303.69 0,240.85 0,481.71 0,722.56 0,698.13 -3.5,1396.24 -3.5,2094.37 -6.96,6.98 -6.96,17.44 -6.96,24.44zm-5002.08 -2879.78c-52.36,-20.95 -45.39,-69.82 -24.43,-104.73 10.47,-13.95 24.43,-10.47 34.9,6.98 13.96,20.95 27.93,41.89 13.96,62.84 -6.98,13.97 -17.45,24.45 -24.43,34.91zm2017.57 97.75c-10.47,20.95 -24.43,38.39 -38.39,52.36 -6.98,10.48 -31.41,-3.5 -41.88,-20.95 -13.96,-24.43 0,-69.82 34.9,-83.78 27.92,0 41.88,17.46 45.37,52.37zm-1158.88 -118.69c-6.98,17.46 -13.96,38.39 -20.95,52.37 -10.48,17.45 -27.93,17.45 -38.39,6.98 -10.48,-13.96 -20.95,-31.42 -20.95,-45.39 0,-24.43 17.45,-45.38 41.89,-55.84 13.97,-13.96 38.4,3.48 38.4,41.88zm-314.15 289.72c-24.43,41.89 -41.89,83.78 -66.32,125.66 -27.93,41.89 -66.32,69.82 -115.19,80.28 -38.39,10.48 -83.78,-13.95 -111.7,-55.84 -27.93,-45.39 -41.89,-101.23 -41.89,-153.6 0,-13.95 -3.5,-27.92 -10.48,-41.88 -10.47,34.91 -24.43,69.81 -34.91,108.21 -13.95,52.36 -31.41,111.7 -59.34,157.07 -17.45,27.93 -34.91,52.36 -52.36,73.3 -24.43,24.43 -59.34,10.48 -66.32,-24.43 -6.98,-34.91 -10.48,-66.32 -17.46,-101.23 -3.49,-34.91 -10.47,-69.82 -13.96,-111.71 -3.49,10.48 -6.97,20.95 -10.47,31.42 -20.95,52.36 -41.89,108.2 -62.84,157.07 -10.47,17.46 -27.93,34.91 -45.38,41.89 -17.46,6.98 -38.39,-3.5 -45.39,-24.43 -20.95,-41.89 -34.9,-80.28 -34.9,-125.67 -3.5,-104.72 -13.96,-205.94 -20.96,-307.17 -13.95,31.41 -27.92,59.34 -41.88,94.25 -17.46,41.89 -31.42,83.78 -45.39,125.66 -10.47,27.93 -17.45,52.37 -31.41,76.8 -3.5,10.48 -17.45,17.46 -24.43,24.43 -6.98,-6.97 -13.96,-17.45 -17.46,-24.43 -6.98,-41.89 -13.96,-80.28 -13.96,-122.17 -6.97,-104.72 -10.47,-205.94 -13.95,-307.17 -3.5,-108.21 -3.5,-212.93 -6.98,-317.65 0,-10.47 -3.5,-20.95 -10.48,-27.93 -17.45,69.82 -34.91,139.63 -52.36,212.94 -20.95,76.8 -41.89,153.59 -66.32,230.39 -27.93,90.75 -59.34,181.51 -90.76,268.78 -38.39,101.23 -76.79,205.94 -118.68,303.69 -24.43,59.34 -48.87,118.68 -73.3,174.53 -38.39,83.77 -76.8,171.05 -118.68,254.82 -31.42,55.85 -59.35,115.19 -94.26,171.05 -3.49,6.98 -17.45,10.47 -24.43,17.45 -3.49,-10.47 -10.47,-24.43 -6.98,-31.41 17.46,-38.39 38.39,-76.8 52.37,-115.19 20.95,-41.89 41.88,-76.79 59.34,-118.68 27.93,-55.85 55.84,-118.69 83.77,-174.53 27.93,-55.85 48.87,-115.19 73.3,-171.05 27.93,-62.84 52.37,-125.66 76.8,-191.98 10.47,-27.93 20.95,-48.87 31.41,-76.8 24.44,-69.82 48.87,-143.12 73.3,-216.42 27.93,-80.28 45.39,-160.57 69.82,-244.34 13.96,-45.39 31.41,-94.26 41.89,-139.63 13.96,-55.84 27.93,-111.7 41.88,-167.55 13.96,-55.84 27.93,-115.18 34.91,-171.04 10.48,-62.84 17.46,-129.16 24.44,-198.97 6.98,-80.28 13.95,-164.05 20.95,-244.34 3.49,-34.91 13.96,-69.82 13.96,-104.73 -3.5,-62.84 13.95,-125.66 20.95,-185.01 6.97,-41.88 17.45,-87.27 24.43,-129.15 6.98,-38.4 10.47,-73.3 17.45,-111.71 3.5,-13.96 3.5,-27.93 20.95,-20.95 13.96,3.5 27.93,10.48 20.95,34.91 -6.97,27.93 -3.49,55.84 -6.97,87.27 -6.98,90.75 -13.96,178.03 -20.96,268.78 -6.97,73.3 -17.45,146.61 -24.43,219.91 -6.98,41.89 -13.96,83.78 -20.95,125.67 -6.98,52.36 -17.45,104.72 -24.43,157.07 -24.44,167.55 -13.96,335.1 -13.96,502.66 0,66.32 3.5,129.15 3.5,198.96 3.49,59.34 6.97,125.66 10.47,185 3.5,27.93 6.98,52.37 10.48,83.78 20.95,-45.38 41.88,-90.76 55.84,-132.64 27.93,-69.82 52.36,-143.12 80.28,-212.94 3.5,-10.47 17.46,-20.95 27.93,-20.95 17.46,0 17.46,17.46 17.46,31.41 0,111.71 3.49,219.92 6.97,331.61 3.5,59.34 6.98,125.66 13.96,185.01 3.5,27.92 17.46,31.41 38.39,13.95 38.4,-34.91 52.37,-76.79 66.32,-125.66 13.96,-48.87 24.44,-104.73 38.4,-153.59 6.98,-27.93 13.95,-52.37 17.45,-83.78 3.5,-13.96 10.48,-20.95 24.43,-17.45 6.98,3.49 17.46,13.96 17.46,20.95 3.49,108.21 3.49,216.42 3.49,324.62 0,13.96 3.5,24.44 3.5,38.4 3.5,6.98 6.98,20.95 13.96,20.95 10.47,0 24.43,-3.5 27.93,-10.48 13.96,-24.43 24.43,-45.38 34.91,-73.3 34.91,-94.25 69.81,-185 87.27,-282.74 10.47,-55.84 17.45,-115.19 20.95,-171.04 6.98,-69.82 13.96,-143.12 17.45,-212.94 3.5,-48.87 6.98,-104.72 13.96,-153.59 6.98,-48.87 13.96,-104.73 17.46,-153.59 3.49,-31.42 6.98,-62.84 10.47,-94.25 3.5,-27.93 6.98,-48.87 10.48,-76.8 3.49,-6.98 13.95,-13.96 20.95,-20.95 6.98,6.98 17.45,13.96 17.45,20.95 -3.49,27.93 -6.98,52.36 -10.47,80.28 0,3.49 -3.5,6.98 -3.5,10.47 0,27.93 0,52.37 0,76.8 -3.5,76.8 -10.48,157.08 -13.96,233.87 -3.49,59.34 -13.96,118.69 -20.95,174.53 -6.98,66.32 -6.98,129.16 -10.47,198.96 0,52.37 0,108.21 0,160.58 0,59.34 13.95,118.68 41.88,171.04 27.93,48.87 76.8,52.37 118.69,20.95 59.34,-52.36 90.75,-125.66 108.21,-205.94 10.47,-55.84 20.95,-115.19 24.43,-171.05 6.98,-76.79 6.98,-153.59 10.48,-230.38 3.49,-94.26 10.47,-191.99 17.45,-286.24 0,-10.47 13.96,-27.93 20.95,-27.93 13.96,0 17.45,13.96 17.45,31.41 0,45.39 0,97.74 0,143.12 -3.49,104.73 -10.47,209.44 -13.95,307.17 0,38.39 0,73.3 0,111.71 0,20.95 0,41.89 0,62.84 3.49,45.38 10.47,97.73 10.47,143.11 0,31.42 6.98,52.37 17.46,80.28 10.47,24.44 24.43,27.93 45.38,10.48 34.91,-24.44 45.38,-62.84 62.84,-97.74 24.43,-45.38 45.38,-97.73 69.81,-146.61 6.98,-10.47 20.96,-17.45 31.42,-27.93 6.98,10.48 13.96,24.43 17.45,34.91 6.98,45.38 10.48,97.73 24.43,143.12 10.48,45.38 66.31,73.3 111.7,52.36 6.98,-3.5 13.95,-10.47 17.45,-17.45 20.95,-87.28 24.43,-104.73 73.3,-153.6 13.96,17.46 24.43,10.48 38.39,-3.49 13.96,-17.46 31.42,-34.91 45.39,-41.89 13.97,-6.98 55.84,10.47 69.81,31.41 3.5,10.48 10.48,17.46 20.95,27.93 10.48,-17.45 17.46,-31.41 24.44,-41.89 6.98,-10.47 17.45,-17.45 27.93,-24.43 3.49,3.5 3.49,3.5 6.98,6.98 -3.5,34.91 -3.5,66.32 -6.98,101.23 0,38.39 17.45,52.36 45.38,48.87 3.5,0 10.48,-3.5 13.96,-6.98 41.89,-27.93 62.84,-66.32 83.77,-115.19 3.5,-10.48 10.48,-24.43 17.46,-34.91 3.5,-3.5 13.96,-10.47 17.45,-10.47 3.5,0 13.96,10.47 10.48,17.45 0,20.95 -3.5,38.39 -6.98,55.85 -6.98,41.88 -20.95,87.27 -24.43,132.64 -3.5,24.43 0,45.38 3.49,69.82 3.5,17.45 38.39,34.9 52.37,24.43 41.88,-24.43 76.79,-48.87 104.72,-94.25 20.95,-34.91 48.87,-62.84 90.76,-69.82 24.43,-3.5 48.86,-3.5 69.81,17.45 31.42,24.44 13.96,45.39 10.48,69.82 0,17.46 -6.98,38.39 -6.98,52.37 0,10.47 3.5,24.43 10.47,27.92 6.98,3.5 20.95,0 27.93,-6.97 34.91,-41.89 66.32,-80.28 97.74,-125.67 13.96,-20.95 20.95,-41.89 31.41,-62.84 3.5,-3.49 13.96,-10.47 17.45,-10.47 6.98,3.5 13.96,13.96 10.48,17.45 -3.5,27.93 -10.48,48.87 -17.46,73.3 -3.49,20.95 -3.49,41.89 -3.49,62.84 0,10.48 10.47,27.93 20.95,31.41 13.96,3.5 31.41,0 41.89,-10.47 34.91,-34.91 62.84,-66.32 90.75,-104.73 10.48,-10.47 17.46,-27.93 0,-41.88 -17.45,-13.96 -10.47,-34.91 -3.49,-45.39 6.97,-10.47 24.43,-27.93 38.39,-31.41 10.47,-3.5 34.91,0 41.88,10.47 6.98,17.46 6.98,38.4 3.5,52.37 27.93,31.41 62.84,-10.48 97.73,10.47 -10.47,13.96 -17.45,27.93 -27.93,41.89 -13.95,27.93 -31.41,48.87 -41.88,76.8 -10.48,20.95 -3.5,31.41 20.95,31.41 20.95,0 41.89,-6.98 59.34,-10.48 6.98,0 10.47,-10.47 13.96,-17.45 13.96,-34.91 24.43,-66.32 41.89,-101.23 13.95,-27.93 34.9,-45.38 52.36,-69.82 10.47,-13.96 20.95,-6.98 31.41,3.5 31.41,38.39 24.43,80.28 -6.98,111.7 -24.43,24.44 -48.87,41.89 -73.3,62.84 -6.98,3.5 -6.98,13.96 -13.96,20.95 38.39,3.5 66.32,-17.45 90.76,-38.39 34.91,-31.41 59.34,-62.84 90.75,-101.23 10.48,-10.47 13.96,-31.41 20.95,-41.89 6.98,-10.47 20.95,-17.45 34.91,-27.93 3.5,13.96 10.48,24.44 10.48,38.4 0,24.43 -6.98,45.38 -6.98,69.81 0,41.89 -17.46,73.3 -45.39,101.23 -13.95,10.48 -10.47,13.96 0,24.44 34.91,27.93 66.32,20.95 101.23,3.49 52.37,-24.43 101.23,-55.84 136.14,-101.23 3.5,-3.49 6.98,-3.49 10.48,-3.49 -13.96,38.39 -38.39,62.83 -66.32,90.75 -27.93,27.92 -69.82,41.89 -108.21,55.85 -38.39,13.95 -104.73,-6.98 -125.67,-41.89 -13.95,-20.95 -6.98,-38.39 17.46,-48.87 34.91,-17.45 45.38,-41.89 41.89,-76.79 -27.93,24.43 -48.87,48.86 -76.8,69.81 -34.91,24.44 -73.3,45.39 -111.71,66.32 -13.95,6.98 -31.41,3.5 -38.39,-13.95 -6.98,-13.96 -13.95,-17.46 -27.93,-10.48 -17.45,6.98 -38.39,10.48 -52.36,13.96 -20.95,3.49 -41.89,0 -52.36,-20.95 -6.98,-13.96 -6.98,-34.91 0,-48.87 10.47,-27.93 24.43,-48.87 38.39,-80.28 -31.41,0 -52.36,-6.98 -73.3,27.93 -34.91,55.85 -80.28,108.21 -143.12,136.14 -34.91,17.45 -69.82,-3.5 -76.79,-41.89 -3.5,-13.96 -6.98,-27.93 -10.48,-41.89 -13.96,17.46 -27.93,34.91 -41.89,45.39 -13.96,17.45 -27.93,31.41 -41.89,41.89 -27.92,24.43 -62.83,17.45 -83.77,-13.96 -3.5,-6.98 -6.98,-13.96 -13.96,-24.44 -10.47,6.98 -20.95,13.96 -27.93,24.44 -20.95,20.95 -45.38,27.93 -73.3,17.45 -10.47,-3.49 -17.45,-20.95 -24.43,-31.41 -3.5,-6.98 -6.98,-20.95 -10.48,-27.93 -27.93,20.95 -55.84,38.39 -83.77,59.34 -45.39,41.89 -108.21,-6.98 -111.71,-62.84 0,-34.9 0,-66.32 0,-104.72 -20.95,17.45 -41.89,34.91 -59.34,48.86 -38.39,27.93 -73.3,13.96 -87.27,-34.9 -6.98,-20.95 -10.48,-41.89 -17.46,-66.32 -6.97,17.45 -13.95,27.92 -17.45,41.88 -13.96,69.82 -52.36,125.67 -104.73,171.05 -41.88,34.91 -104.72,41.89 -129.15,-27.93 -6.98,-17.45 -17.46,-17.45 -31.42,-13.96 -38.38,6.98 -69.8,0 -101.21,-31.41 -27.93,-31.41 -34.91,-62.84 -45.39,-97.73 -3.49,-10.48 -6.98,-17.46 -13.96,-31.42 -13.95,24.44 -24.43,45.39 -34.9,66.32 -31.42,45.39 -52.37,97.74 -101.23,125.67 -24.44,13.96 -34.91,13.96 -52.37,-10.48 -27.93,-38.39 -41.88,-76.79 -41.88,-125.66 -21.01,3.54 -24.49,-6.94 -24.49,-13.92zm506.12 -34.91c-27.93,41.89 -45.38,87.27 -45.38,136.14 0,34.91 13.96,45.38 41.89,45.38 52.36,0 94.25,-38.39 108.2,-101.23 -27.93,17.46 -52.36,17.46 -69.81,-10.47 -13.95,-20.94 -20.93,-45.37 -34.9,-69.82zm659.74 48.88c-48.86,-6.98 -90.75,52.37 -80.28,108.21 3.5,20.95 17.46,24.43 38.39,13.96 38.4,-17.46 52.37,-55.85 69.82,-90.76 6.97,-17.45 -6.99,-31.41 -27.93,-31.41zm-541.05 -20.95c20.95,-38.39 10.47,-66.32 -13.96,-87.27 -13.96,-10.48 -31.42,0 -41.89,13.96 -13.96,20.95 -24.43,66.32 -10.48,80.28 24.44,24.44 48.87,-3.47 66.33,-6.97zm1218.23 -17.45c-17.45,31.41 -34.9,59.34 -48.86,90.75 38.39,-13.96 52.35,-41.89 48.86,-90.75zm1134.46 118.68c41.88,10.48 73.3,-13.96 97.73,-38.39 31.41,-31.41 59.34,-66.32 87.27,-101.23 24.43,-31.41 41.89,-59.34 66.32,-90.75 6.98,-6.98 17.46,-10.48 24.44,-13.96 3.49,10.47 13.95,24.43 10.47,31.41 -13.96,31.41 -31.41,59.34 -41.89,94.25 -3.49,6.98 -3.49,10.48 -6.98,17.45 3.5,3.5 6.98,3.5 6.98,6.98 20.95,-24.43 41.89,-48.86 62.84,-73.3 10.48,-13.95 20.95,-27.93 34.91,-38.39 6.98,-6.98 27.93,-3.49 31.41,0 6.98,13.96 13.96,31.41 10.48,41.89 0,27.93 -6.98,52.36 -10.48,80.28 3.5,3.5 6.98,3.5 10.48,6.98 24.43,-27.93 48.86,-52.36 73.3,-83.78 38.39,-45.38 73.3,-90.75 108.21,-136.14 41.88,-52.36 80.28,-111.7 122.16,-164.05 17.46,-24.43 31.42,-48.87 41.89,-73.3 17.46,-31.41 38.39,-55.85 52.36,-87.27 13.96,-27.93 27.93,-52.36 41.89,-76.8 6.98,-13.96 17.46,-27.93 24.44,-41.89 6.97,-13.95 17.45,-17.45 27.92,-6.97 10.48,6.97 13.96,17.45 6.98,31.41 -24.43,41.89 -41.88,80.28 -66.32,122.16 -27.93,45.39 -55.84,94.26 -87.27,139.63 -34.91,48.86 -62.84,104.72 -97.73,153.59 -6.98,10.47 -13.96,20.95 -20.95,31.41 20.95,6.98 38.39,10.48 48.86,17.46 24.44,13.95 34.91,34.9 24.44,55.84 -10.48,24.43 -24.44,45.38 -38.39,73.3 13.95,3.5 27.93,24.43 41.88,3.5 3.5,-3.5 6.98,-3.5 10.48,-3.5 48.87,0 104.72,-6.98 153.59,3.5 41.89,6.98 80.28,0 118.69,10.47 41.88,10.48 80.27,3.5 118.68,27.93 17.45,10.48 45.38,10.48 62.84,24.44 10.47,6.97 20.95,20.95 20.95,31.41 0,13.96 -10.48,34.91 -20.95,38.39 -41.89,20.95 -83.78,38.39 -125.67,45.38 -45.38,13.96 -97.73,24.44 -143.11,34.91 -52.37,13.96 -111.71,27.93 -164.06,38.39 -48.86,10.48 -97.73,17.46 -146.61,24.44 -48.88,6.98 -97.73,17.45 -146.61,27.93 -41.89,6.98 -90.76,13.95 -132.65,20.95 -80.28,10.47 -160.57,20.95 -240.85,31.41 -87.27,10.47 -178.02,13.96 -265.28,27.93 -24.44,3.5 -48.87,20.95 -66.32,38.39 -48.87,45.38 -94.25,101.23 -139.62,146.61 -52.37,48.87 -108.21,104.73 -164.06,146.62 -48.87,41.89 -104.73,76.79 -160.57,108.21 -66.32,34.91 -125.66,-10.48 -129.16,-90.76 -3.5,-62.84 13.96,-122.16 34.91,-181.51 10.47,-38.39 24.43,-73.3 38.39,-111.7 -45.38,3.49 -90.75,6.98 -136.14,10.47 -38.39,3.5 -73.3,10.48 -111.7,13.96 -87.28,10.48 -171.05,17.46 -258.31,27.93 -62.84,6.98 -125.66,20.95 -185,31.41 -31.42,3.5 -59.35,6.98 -87.28,10.48 -87.27,10.47 -171.04,20.95 -258.3,31.41 -55.85,6.98 -115.19,20.95 -171.05,31.41 -34.91,6.98 -69.82,6.98 -108.21,10.48 -24.43,3.5 -41.88,6.98 -66.32,10.47 -87.27,13.96 -178.02,27.93 -265.28,41.89 -66.32,10.48 -129.16,27.93 -198.95,38.39 -69.82,13.96 -139.62,24.44 -212.94,34.91 -34.91,6.98 -69.81,10.48 -104.72,17.46 -45.39,10.47 -90.76,20.95 -132.65,31.41 -38.39,6.98 -76.79,13.96 -115.18,20.95 -41.89,6.98 -90.76,17.45 -132.65,24.43 -41.88,6.98 -80.27,10.48 -122.16,20.95 -69.82,17.46 -139.62,34.91 -212.94,48.87 -55.84,13.96 -118.68,27.93 -178.02,41.89 -59.34,13.96 -125.67,27.93 -185.01,41.89 -41.89,10.47 -83.77,27.92 -125.66,38.39 -59.34,17.45 -118.69,34.91 -178.03,52.36 -38.39,13.96 -76.79,31.41 -115.19,41.89 -3.49,0 -6.97,6.98 -6.97,6.98 -34.91,0 -55.85,31.41 -83.78,41.88 -10.47,6.98 -13.96,20.95 -17.45,34.91 34.9,27.93 66.32,41.89 104.72,45.39 24.44,3.49 45.39,10.47 69.82,17.45 17.45,3.5 38.39,10.48 52.36,13.96 41.89,6.98 90.76,13.96 132.64,20.95 69.82,10.48 136.14,20.95 209.44,31.41 31.42,3.5 62.84,6.98 94.25,10.48 48.87,6.98 101.23,13.96 150.1,20.95l3.47 -0.04c52.36,3.49 108.21,6.98 160.57,10.47 52.36,3.5 104.73,13.96 157.08,20.95 52.35,7 108.21,6.98 160.57,10.48 52.36,3.5 108.21,13.96 160.57,20.95 10.48,0 20.95,0 31.41,0 69.82,6.98 143.12,10.47 212.94,17.45 24.43,0 41.89,3.5 66.32,3.5 66.32,3.5 132.64,6.98 202.46,10.48 52.35,3.49 104.71,6.97 157.06,10.47 76.8,6.98 150.1,13.96 226.89,20.95 6.98,0 13.96,0 24.44,0 73.3,3.5 143.11,0 216.41,13.96 45.39,6.98 94.26,3.5 139.63,6.98 94.25,6.98 185,13.96 279.25,20.95 41.89,3.49 83.78,6.98 125.66,10.47 90.76,10.48 178.03,20.94 268.79,31.4 27.92,3.5 55.84,6.98 83.77,10.48 20.95,3.49 41.89,10.47 66.32,20.95 -24.43,0 -45.38,0 -73.3,0 -38.39,-3.5 -76.79,-6.98 -115.19,-10.48 -83.77,-3.49 -171.04,-6.98 -254.82,-10.47 -55.84,-3.5 -111.7,-6.98 -167.55,-10.48 -90.75,-6.98 -181.51,-13.95 -268.78,-20.93 -45.38,-3.5 -94.25,-3.5 -139.62,-6.98 -62.84,-3.5 -125.66,-10.48 -188.5,-13.96 -13.96,0 -27.93,0 -41.89,0 -83.78,-6.98 -171.05,-13.96 -254.82,-20.95 -41.89,-3.5 -80.27,-3.5 -122.16,-6.98 -87.27,-3.5 -171.04,-10.48 -258.3,-17.46 -41.89,-3.49 -87.27,-6.97 -125.66,-10.47 -66.33,-6.98 -132.65,-13.96 -202.46,-20.95 -48.87,-3.5 -97.74,-6.98 -146.62,-10.48 -52.36,-6.98 -111.7,-13.95 -164.05,-20.95 -10.48,0 -17.46,0 -27.93,0 -69.82,-6.98 -139.62,-13.95 -212.94,-20.95 -38.39,-3.49 -76.79,-6.98 -115.18,-10.47 -41.89,-3.5 -80.28,-13.96 -118.69,-17.46 -31.41,-3.49 -59.34,-6.98 -90.75,-10.47 -80.28,-10.48 -160.57,-17.46 -237.37,-31.41 -69.82,-13.96 -136.14,-38.4 -205.94,-59.35 -24.44,-6.98 -45.39,-24.43 -59.35,-41.88 -20.95,-27.93 -6.97,-66.32 24.44,-83.78 45.38,-27.93 97.73,-52.36 143.12,-80.28 17.45,-6.98 34.9,-6.98 48.86,-13.96 17.46,-6.98 34.91,-17.45 48.87,-20.95 34.91,-10.47 66.32,-20.95 101.23,-31.41 27.93,-6.98 55.84,-17.45 83.77,-27.93 34.91,-10.47 66.32,-17.45 101.23,-27.93 34.91,-10.47 62.84,-20.95 94.25,-27.93 20.95,-6.98 41.89,-6.98 59.35,-13.96 13.95,-3.49 27.93,-6.98 41.88,-10.47 34.91,-6.98 66.33,-13.96 97.74,-20.95 34.91,-10.48 69.81,-20.95 104.72,-27.93 24.44,-6.98 45.39,-6.98 66.32,-13.96 31.42,-6.98 55.85,-13.96 87.28,-20.95 17.45,-3.5 34.9,-6.98 48.86,-10.48 24.44,-3.49 48.87,-6.97 73.3,-13.95 20.95,-3.5 41.89,-6.98 62.84,-10.48 62.84,-13.96 125.66,-27.93 195.48,-41.89 31.41,-6.98 55.85,-6.98 87.27,-10.47 41.89,-6.98 80.28,-17.46 122.17,-24.44 34.91,-6.97 69.82,-10.47 104.73,-17.45 27.93,-3.5 55.84,-13.96 83.77,-17.45 52.36,-10.48 104.73,-17.46 157.06,-24.44 17.46,-3.49 38.4,-6.98 52.37,-10.47 24.43,-3.5 45.38,-6.98 69.81,-10.48 17.46,-3.49 31.42,-6.98 45.39,-10.47 55.84,-10.48 115.19,-20.95 171.04,-31.42 41.89,-6.97 76.8,-10.47 118.69,-17.45 20.95,-3.5 41.89,0 59.34,0l3.5 -3.5c6.98,-3.49 17.45,-13.95 24.43,-13.95 83.78,-10.48 167.55,-20.95 251.33,-31.42 48.86,-6.98 101.23,-13.95 153.59,-20.95 59.34,-10.47 122.17,-20.95 185,-31.41l3.46 0.03c41.89,-3.5 83.78,-6.98 125.66,-10.48 38.4,-3.49 73.3,-13.96 111.71,-17.45 31.41,-3.5 59.34,-10.48 87.27,-10.48 41.89,-3.49 83.78,-6.98 125.66,-10.47 52.37,-3.5 104.73,-6.98 157.08,-13.96 13.96,0 27.93,-10.48 34.91,-31.41 27.93,-76.8 55.84,-153.6 90.75,-226.9 24.44,-55.84 45.39,-111.7 73.3,-167.55 27.92,-55.84 52.37,-111.7 83.78,-164.05 20.95,-41.89 41.89,-87.27 62.84,-125.67 27.93,-48.86 55.84,-101.22 83.77,-146.61 27.93,-41.89 48.87,-90.75 76.8,-132.64 41.89,-66.32 80.28,-129.16 125.66,-198.96 41.89,-62.84 83.78,-129.16 125.66,-195.48 31.42,-41.89 59.35,-83.78 90.76,-125.67 41.89,-55.84 80.28,-115.19 125.66,-171.04 34.91,-41.89 69.82,-83.78 104.73,-125.67 52.36,-69.82 115.19,-136.14 181.51,-198.96 31.41,-31.41 59.34,-59.34 97.73,-87.27 20.95,-17.46 45.38,-24.44 69.82,-34.91 24.43,-6.98 55.84,24.43 59.34,48.87 6.98,55.84 -17.45,108.2 -34.91,160.57 -24.43,69.81 -45.38,139.62 -76.8,212.93 -27.93,62.84 -55.84,125.67 -83.77,188.5 -24.43,45.39 -41.89,97.74 -66.32,143.12 -17.46,34.91 -38.39,66.32 -52.36,101.23 -20.96,41.89 -41.89,80.28 -62.84,122.17 -38.39,69.81 -76.8,139.62 -115.19,212.93 -31.41,55.85 -55.85,111.71 -87.27,167.55 -3.5,6.98 -3.5,10.48 -6.98,17.46 -10.48,13.96 -20.95,20.95 -34.91,10.47 -10.48,-10.47 -20.95,-24.43 -10.48,-38.39 27.93,-48.87 52.37,-97.73 80.28,-146.61 17.46,-34.91 34.91,-66.32 52.37,-101.23 38.39,-62.84 73.3,-129.16 108.21,-195.48 17.45,-34.91 34.9,-69.82 48.86,-104.73 10.48,-17.45 20.95,-34.91 31.41,-52.36 31.42,-62.84 55.85,-129.16 87.28,-198.96 24.43,-52.37 45.38,-108.21 69.81,-160.58 13.96,-31.41 24.44,-62.83 38.4,-97.73 17.45,-41.89 34.9,-76.8 41.88,-118.68 10.48,-31.42 34.91,-59.35 24.44,-94.25 0,-6.98 -3.5,-13.96 -6.98,-24.44 -6.98,3.5 -13.96,6.98 -17.46,10.48 -66.32,45.38 -125.66,108.21 -178.02,171.04 -52.37,59.35 -111.71,118.69 -160.57,178.03 -55.85,69.82 -111.71,139.62 -167.56,212.93 -41.88,55.85 -83.77,115.19 -125.66,174.53 -31.41,41.89 -59.34,90.76 -90.75,136.14 -41.89,59.34 -76.8,122.17 -115.19,181.51 -27.93,41.89 -48.87,87.27 -73.3,129.16 -45.39,83.78 -90.76,167.55 -136.14,254.82 -24.43,41.89 -41.89,87.28 -66.32,129.16 -24.43,48.87 -48.87,101.23 -73.3,153.6 -41.89,90.75 -76.8,185 -118.69,275.76 -6.97,17.45 -13.95,31.41 -20.95,45.38 -3.49,6.98 -3.49,17.45 0,20.95 3.5,3.5 13.96,3.5 20.95,0 13.96,-3.5 24.44,-6.98 38.4,-6.98 55.84,-6.98 115.18,-13.96 171.04,-20.95 3.5,0 3.5,0 6.98,0 52.37,-3.5 111.71,-6.98 164.06,-10.48 41.88,-3.49 69.81,-24.43 97.73,-55.84 31.41,-41.89 66.32,-76.8 97.73,-118.69 41.89,-48.86 80.28,-108.2 118.69,-160.57 31.41,-41.88 62.84,-87.27 90.75,-132.64 31.42,-48.87 59.34,-104.73 90.76,-153.59 6.98,-10.48 20.95,-20.95 34.91,-27.93 3.49,-3.5 17.45,3.49 17.45,6.98 3.5,13.96 6.98,27.93 0,38.39 -17.45,34.91 -38.39,66.32 -55.85,101.23 -38.39,52.36 -73.3,111.7 -108.2,164.05 -13.96,20.95 -31.42,41.89 -41.89,62.84 -10.46,6.97 -6.97,27.92 -10.46,52.35zm1117.01 -27.93c0,-3.49 0,-6.98 0,-6.98 -20.95,-6.98 -41.89,-10.47 -59.35,-17.45 -52.36,-10.48 -108.21,-27.93 -164.05,-20.95 0,0 0,0 -3.5,0 -55.84,0 -118.68,0 -174.53,3.49 -52.36,3.5 -108.21,10.48 -160.57,17.46 -20.95,0 -31.41,-6.98 -31.41,-31.41 -3.5,-41.89 17.45,-73.3 38.39,-104.73 3.5,-6.98 24.43,-6.98 31.41,-3.5 6.98,3.5 13.96,17.46 3.5,27.93 -10.48,13.96 -17.46,31.42 -24.43,41.89 3.49,0 3.49,3.5 6.97,3.5 31.42,-34.91 59.35,-59.34 69.82,-108.21 -41.89,-13.96 -69.82,-3.5 -97.73,24.43 -20.95,20.95 -38.39,45.39 -55.85,66.32 -27.93,31.42 -55.84,55.85 -90.75,83.78 -10.48,10.47 -34.91,10.47 -45.39,6.98 -10.47,-3.5 -13.95,-27.93 -17.45,-41.89 -3.5,-10.48 0,-24.43 0,-41.89 -34.91,31.41 -62.84,55.85 -94.25,83.78 -17.46,17.45 -31.41,13.96 -41.89,-3.5 -10.47,-10.47 -17.45,-13.96 -31.41,0 -10.48,13.96 -24.43,27.93 -38.39,38.39 -31.42,17.46 -55.85,34.91 -90.76,41.89 -38.39,10.48 -66.32,-3.5 -87.27,-41.89 -52.36,66.32 -104.72,125.67 -157.07,191.99 0,3.49 3.49,3.49 3.49,6.98 34.91,-3.5 69.82,-10.48 104.73,-13.96 52.36,-3.5 108.21,-6.98 160.57,-10.48 3.5,0 3.5,0 6.98,0 38.39,-6.98 69.82,-13.96 108.21,-20.95 41.89,-6.98 83.77,-6.98 125.66,-10.47l3.47 0.02c34.91,-6.98 66.32,-13.95 101.23,-20.95 6.98,0 13.96,0 24.43,0 31.42,-6.98 59.35,-13.95 94.25,-20.95 31.42,-3.49 59.35,-6.98 90.76,-10.47 3.49,0 6.98,-3.5 10.47,-3.5 20.95,-6.98 41.89,-13.96 59.35,-17.45 31.41,-6.98 55.84,-6.98 87.27,-10.48 17.45,-3.49 34.91,-6.98 48.86,-10.47 20.95,-6.98 38.4,-13.96 55.85,-17.46 20.95,-3.49 38.39,-6.98 55.85,-10.47 38.39,-10.48 73.3,-20.95 115.18,-31.42 17.46,7.02 38.4,0.04 59.35,-6.95zm-1452.12 293.22c0,-3.5 -3.49,-3.5 -3.49,-6.98 -24.44,0 -48.87,3.49 -73.3,3.49 -41.89,3.5 -87.27,6.98 -125.67,10.48 -59.34,6.98 -122.16,13.96 -185,20.95 -24.43,0 -34.91,10.47 -41.89,31.41 -17.45,66.32 -38.39,129.16 -48.86,198.96 -6.98,27.93 -3.5,59.35 -3.5,87.28 0,20.95 20.95,31.41 34.91,27.93 20.95,-3.5 38.39,-13.96 52.36,-24.44 52.36,-38.39 108.21,-73.3 157.08,-115.19 55.84,-48.86 115.18,-108.2 167.55,-160.57 27.93,-24.44 48.88,-48.89 69.81,-73.32zm-5773.51 -2551.66c6.98,122.17 -108.21,233.87 -223.39,230.39 0,-76.8 0,-150.1 0,-230.39 76.79,0 150.09,0 223.39,0zm7141.85 4583.2c20.95,-139.62 90.75,-219.91 230.39,-233.87 0,76.8 0,153.59 0,233.87 -76.8,0 -153.59,0 -230.39,0zm-7141.85 0c-76.79,0 -150.09,0 -226.89,0 0,-76.79 0,-157.07 0,-233.87 108.22,-6.98 233.89,97.73 226.89,233.87zm7368.74 -4590.18c0,83.78 0,160.57 0,240.85 -45.38,-3.49 -87.27,-17.45 -125.66,-41.88 -62.84,-41.89 -94.25,-108.21 -101.23,-181.51 0,-6.98 10.48,-17.46 13.96,-17.46 73.31,-3.49 143.12,0 212.93,0zm-7592.13 4272.54c0,-13.96 0,-24.44 0,-34.91 0,-568.96 0,-1137.94 0,-1706.91 0,-726.05 0,-1455.59 0,-2181.66 0,-20.95 3.49,-34.91 24.43,-41.89 6.98,-3.49 17.45,3.5 27.93,3.5 73.3,-17.45 132.64,-52.36 181.51,-115.19 41.89,-48.86 69.82,-111.7 76.79,-181.51 0,-6.97 10.48,-13.95 13.96,-13.95 6.98,-3.5 13.96,0 24.44,0 1183.33,0 2363.16,0 3546.48,0 1120.49,0 2241,-3.5 3361.49,-3.5 38.39,0 34.91,0 41.89,38.39 10.47,41.89 24.43,83.78 45.38,118.69 24.44,41.88 55.85,73.3 90.76,104.72 27.93,20.95 59.34,31.41 90.75,41.89 24.44,10.47 45.39,13.96 69.82,20.95 0,1312.48 0,2631.95 0,3944.41 -41.89,13.96 -83.78,24.43 -125.66,41.89 -97.74,48.86 -153.6,132.64 -181.51,240.85 0,6.98 0,10.47 0,17.45 0,13.96 -6.98,24.44 -24.44,24.44 -3.49,0 -10.47,0 -13.95,0 -2303.83,0 -4607.64,0 -6911.46,0 -6.98,0 -13.96,3.49 -20.95,0 -6.98,-3.5 -17.46,-10.48 -17.46,-17.46 -10.47,-129.16 -125.66,-261.8 -247.83,-293.21 -17.47,-0.02 -31.42,-3.51 -52.37,-6.99zm41.88 -3909.52c0,10.48 0,17.46 0,27.93 0,1270.59 0,2541.19 0,3811.77 0,6.98 -3.49,13.96 0,17.45 3.5,6.98 6.98,13.96 13.96,17.46 41.89,17.45 83.78,31.41 118.69,52.36 83.77,52.36 139.62,129.16 164.05,230.39 6.98,24.43 17.46,27.93 38.39,27.93 2279.39,0 4558.77,0 6841.64,0 3.5,0 6.98,0 13.96,0 13.96,3.49 17.46,-6.98 20.95,-17.46 41.89,-146.61 129.16,-244.34 272.28,-289.71 24.43,-6.98 27.93,-17.46 27.93,-38.4 0,-1270.57 0,-2537.68 0,-3808.27 0,-3.49 0,-6.98 0,-10.47 3.49,-17.46 -6.98,-20.95 -20.95,-27.93 -41.89,-17.46 -80.28,-27.93 -115.19,-48.87 -80.28,-52.36 -139.62,-129.16 -164.05,-226.89 -6.98,-24.43 -13.96,-31.41 -38.4,-31.41 -2279.39,0 -4562.25,0 -6841.64,0 -10.47,0 -17.45,0 -27.93,0 -38.4,167.52 -139.62,268.75 -303.69,314.12zm-198.96 4387.73c2638.93,0 5274.34,0 7909.78,0 0,-1637.1 0,-3270.72 0,-4907.82 -2635.42,0 -5270.85,0 -7909.78,0 0,1637.1 0,3270.72 0,4907.82z"/>
 </g>
</svg>
