<?xml version="1.0" encoding="UTF-8"?>
<!DOCTYPE svg PUBLIC "-//W3C//DTD SVG 1.0//EN" "http://www.w3.org/TR/2001/REC-SVG-20010904/DTD/svg10.dtd">
<!-- Creator: CorelDRAW -->
<svg xmlns="http://www.w3.org/2000/svg" xml:space="preserve" width="84mm" height="53mm" version="1.0" style="shape-rendering:geometricPrecision; text-rendering:geometricPrecision; image-rendering:optimizeQuality; fill-rule:evenodd; clip-rule:evenodd"
viewBox="0 0 8400 5300"
 xmlns:xlink="http://www.w3.org/1999/xlink"
 xmlns:xodm="http://www.corel.com/coreldraw/odm/2003">
 <defs>
  <style type="text/css">
   <![CDATA[
    .fil0 {fill:black;fill-rule:nonzero}
   ]]>
  </style>
 </defs>
 <g id="Слой_x0020_1">
  <metadata id="CorelCorpID_0Corel-Layer"/>
  <g id="_105553261373952">
   <g id="Layer_x0020_1">
    <g id="_105553145178560">
     <path class="fil0" d="M6409.46 913.26c-97.79,48.89 -192.3,97.78 -211.86,104.3 -19.57,6.52 -35.85,19.56 -35.85,19.56 0,0 22.81,19.56 52.14,35.85 35.85,22.81 52.15,35.85 48.9,39.11 -3.25,3.27 -19.56,32.6 -39.11,58.68 -32.6,48.89 -91.26,140.15 -202.08,309.63 -19.57,32.6 -55.41,88.01 -84.75,127.12 -22.81,35.85 -84.74,127.12 -133.63,205.34 -84.74,127.12 -117.34,176.02 -221.64,342.24 -22.82,39.11 -101.04,153.18 -166.23,254.23 -65.19,101.04 -136.9,211.86 -159.72,247.71 -97.78,149.93 -120.6,189.05 -140.15,221.64 -13.03,19.57 -22.81,32.6 -22.81,32.6 -3.27,0 -22.82,-29.33 -45.63,-65.19 -71.71,-107.56 -189.05,-290.09 -208.6,-322.68 -13.03,-16.3 -52.14,-81.49 -88,-136.9 -35.85,-55.41 -97.79,-143.42 -123.86,-192.3 -195.56,-306.38 -625.8,-961.52 -635.58,-961.52 0,0 -3.26,674.7 -3.26,1499.31l0 1499.31 104.3 -0.01 104.3 0 0 -1140.78c0,-642.1 3.27,-1140.78 3.27,-1140.78 3.26,0 29.33,32.6 52.14,74.96 29.34,39.11 81.49,120.6 117.34,179.26 35.85,55.42 91.26,140.16 120.6,189.05 29.33,45.63 74.96,120.6 104.31,166.23 29.33,45.63 65.19,101.04 84.74,127.12 16.3,29.33 52.15,81.49 81.49,120.6 104.3,159.72 127.12,202.08 169.48,260.76 22.82,35.84 65.19,101.04 97.79,149.93 29.33,45.63 55.41,84.74 55.41,88.01 3.26,13.03 6.52,6.51 19.56,-6.52 3.27,-6.52 32.6,-48.9 55.41,-88.01 29.33,-39.11 88.01,-136.9 140.15,-218.37 52.15,-81.48 107.56,-169.49 127.12,-202.08 19.57,-32.6 48.9,-74.96 65.19,-101.04 16.3,-22.82 52.15,-81.49 81.49,-123.86 29.34,-45.63 65.2,-97.78 74.96,-120.6 29.34,-39.11 97.79,-143.42 176.02,-273.79 22.81,-39.11 65.19,-97.78 84.74,-127.11 35.85,-58.68 88,-136.9 159.71,-244.46 22.82,-35.85 68.45,-107.56 104.31,-156.45 32.59,-52.15 81.49,-120.6 101.04,-156.45 22.81,-35.85 68.44,-107.56 104.3,-159.71l65.19 -101.04 22.82 16.29c13.03,6.52 39.11,22.82 55.41,39.12l32.59 22.81 3.27 -16.3c6.51,-22.81 35.84,-466.08 32.59,-466.08 -3.32,3.25 -84.8,42.36 -179.32,91.26l0 0z"/>
     <path class="fil0" d="M6165 2024.7c-22.81,35.85 -127.12,195.57 -169.48,257.49l-13.04 19.56 0 968.03 0 968.04 104.3 0 104.3 0 0 -1124.5c0,-619.28 0,-1124.48 0,-1124.48 -3.26,-6.51 -16.3,13.04 -26.08,35.86l0 0z"/>
     <path class="fil0" d="M4401.68 3445.78l0 769.22 55.41 0 55.41 0 0 -583.42c0,-322.68 0,-583.42 3.26,-583.42 3.26,0 32.6,39.11 65.19,91.25 32.6,52.15 84.74,133.64 117.34,179.27 32.6,48.89 81.49,123.85 107.56,169.48 81.49,127.12 140.15,218.38 208.59,325.93l65.19 101.04 55.41 -88c32.6,-48.9 74.96,-117.34 97.79,-149.93 22.82,-35.85 55.41,-88.01 74.96,-120.61 19.56,-32.59 48.89,-74.96 58.68,-97.78 13.03,-19.57 39.11,-58.68 55.41,-88.01 16.29,-29.33 48.89,-71.71 68.44,-104.3 19.56,-29.34 55.41,-88.01 84.74,-127.12 22.82,-39.12 52.15,-74.96 52.15,-84.74 3.26,-6.52 6.51,-13.04 13.03,-13.04 6.52,0 3.27,211.86 3.27,583.42l0 583.43 55.41 0.02 55.41 0 0 -762.69c0,-446.53 -3.27,-769.21 -3.27,-769.21 -3.26,0 -3.26,3.26 -6.52,6.52 -3.26,6.51 -35.84,58.67 -143.41,224.89 -29.33,45.63 -71.71,107.56 -91.26,143.42 -22.81,35.84 -71.71,107.55 -107.56,169.48 -39.11,58.67 -123.85,192.3 -192.29,296.6l-123.86 189.05 -13.03 -13.04c-3.27,-6.51 -13.03,-16.29 -16.3,-19.56 -32.6,-52.15 -91.26,-140.15 -136.9,-208.6 -32.59,-48.89 -91.26,-140.15 -133.63,-205.34 -45.63,-68.44 -104.31,-159.71 -136.9,-208.59 -123.86,-192.3 -166.24,-254.24 -205.35,-312.9 -22.81,-32.6 -39.11,-58.68 -45.63,-58.68 9.78,0.01 3.26,345.51 3.26,765.96l0 0z"/>
     <path class="fil0" d="M2292.87 4514.85c-3.27,29.34 -6.52,88.01 -13.04,133.64 -13.03,120.6 -16.29,149.93 -29.33,156.45 -6.51,3.26 0,3.26 22.82,3.26 22.81,0 32.59,0 22.81,-3.26 -6.52,-3.26 -6.52,-13.03 -6.52,-32.6 0,-22.81 13.04,-192.29 16.3,-211.86 0,-3.26 29.33,52.15 65.19,120.61 39.12,84.74 65.2,127.11 68.45,123.85 3.26,-3.26 32.59,-58.68 65.19,-127.12 32.6,-68.44 58.67,-123.85 58.67,-123.85 3.27,-3.27 6.52,45.63 13.04,101.04 3.26,55.41 6.51,114.07 13.03,120.6 3.27,13.03 0,19.56 -3.26,29.33 -6.52,6.52 -6.52,6.52 29.33,6.52 32.59,0 35.85,0 29.33,-6.52 -3.27,-3.26 -6.52,-16.3 -13.03,-22.81 -3.27,-16.3 -32.6,-299.87 -32.6,-309.64 0,-6.52 -13.03,16.3 -39.11,74.96 -16.3,32.6 -39.12,88.01 -58.68,127.12 -16.3,35.85 -35.85,71.71 -35.85,81.49 -3.26,13.03 -13.03,0 -81.48,-136.9 -39.12,-81.49 -71.71,-149.93 -74.97,-149.93 -9.78,-9.79 -13.03,13.03 -16.29,45.62l0 0z"/>
     <path class="fil0" d="M3687.88 4465.96c-88,13.03 -143.41,84.74 -136.9,185.78 3.27,91.26 52.15,143.42 136.9,159.72 39.11,6.51 74.96,3.26 114.07,-13.04 39.12,-19.56 58.68,-35.84 81.49,-68.44 48.9,-91.26 19.57,-205.34 -68.44,-244.46 -19.56,-13.03 -81.49,-22.81 -91.26,-22.81 -6.53,0 -19.56,0 -35.86,3.25l0 0 0 0zm97.78 26.08c22.81,13.03 32.59,19.56 52.14,45.63 22.82,35.85 29.33,58.67 29.33,114.07 0,39.11 -16.29,84.74 -35.84,107.56 -39.12,45.63 -120.61,55.41 -176.02,19.56 -45.63,-29.33 -68.44,-101.04 -58.67,-169.48 9.77,-68.45 29.33,-104.31 68.44,-123.86 29.36,-13.03 74.99,-13.03 120.62,6.52l0 0 0 0z"/>
     <path class="fil0" d="M3951.89 4625.68c0,156.45 0,166.23 -13.04,176.01l-13.03 13.03 35.85 0c32.6,0 32.6,0 22.81,-6.52 -9.78,-6.51 -6.51,-16.29 -13.03,-143.41 0,-74.96 -3.26,-136.9 0,-140.15 0,-3.27 39.11,39.11 104.3,114.07 16.3,19.56 29.34,35.85 32.6,35.85 0,0 32.6,35.84 65.19,71.7 32.6,39.12 65.19,68.45 65.19,68.45 3.27,0 3.27,-74.96 3.27,-166.23l0 -166.23 13.03 -3.27c6.52,-3.26 0,-3.26 -29.33,-3.26 -32.6,0 -39.11,0 -29.33,3.26 6.52,3.27 16.3,6.52 16.3,16.3 0,6.52 3.26,68.44 0,140.15l0 127.12 -123.86 -140.15c-68.44,-74.96 -127.12,-143.42 -133.63,-153.19 -3.29,-9.77 -3.29,-3.25 -3.29,156.47l0 0z"/>
     <path class="fil0" d="M5881.43 4465.96c0,13.03 -32.59,293.35 -35.85,309.64 0,6.51 -6.51,16.29 -13.03,19.56 -6.52,6.52 -3.26,6.52 22.82,6.52 29.33,0 32.59,0 22.81,-6.52 -3.26,-3.27 -6.52,-16.3 -6.52,-22.82 0,-19.56 16.3,-205.34 16.3,-218.37 0,-3.27 29.33,52.14 65.19,120.6l65.19 127.12 6.52 -13.04c3.27,-6.51 6.52,-16.29 6.52,-16.29 0,-3.27 13.03,-32.6 32.59,-68.45 16.3,-35.85 39.12,-88 55.41,-117.33 13.04,-29.34 22.82,-48.9 22.82,-45.63 0,6.51 22.81,228.15 22.81,237.94 0,0 -3.26,6.51 -6.51,13.03 -6.52,6.52 -3.27,6.52 29.33,6.52 35.85,0 35.85,0 29.33,-13.04 -13.03,-13.03 -13.03,-6.51 -32.6,-185.78 -6.51,-84.74 -16.29,-153.18 -16.29,-153.18 0,0 -6.52,13.03 -16.3,22.81 -6.52,16.3 -22.82,48.89 -35.85,71.71 -13.03,22.81 -35.85,81.49 -55.41,120.6 -19.56,39.11 -35.85,71.71 -35.85,71.71 0,0 -35.85,-65.19 -74.96,-143.42 -39.11,-81.49 -71.71,-149.93 -74.96,-149.93 -3.25,0 6.49,22.79 6.49,26.04l0 0z"/>
     <path class="fil0" d="M6533.31 4628.94c0,159.71 -3.26,169.48 -13.03,176.01 -6.52,6.52 -6.52,6.52 22.81,6.52l35.85 -0.01 -13.03 -13.04c-6.52,-6.51 -13.04,-16.29 -13.04,-149.93l0 -136.9 55.41 65.19c29.33,35.85 58.68,71.71 71.71,84.74 6.52,13.04 45.63,48.9 74.96,88.01 32.6,35.85 58.68,68.44 65.19,65.19 3.27,0 3.27,-71.71 3.27,-166.23 0,-136.9 0,-159.71 6.51,-169.48 6.52,-6.52 3.27,-6.52 -29.33,-6.52 -29.33,0 -32.59,0 -22.81,6.52 3.26,3.26 13.03,6.51 13.03,13.03 3.27,3.26 3.27,68.44 3.27,140.15l0 136.9 -19.57 -19.56c-13.03,-13.03 -35.84,-39.11 -52.14,-58.68 -19.56,-19.56 -65.19,-74.96 -104.31,-120.6 -39.11,-45.64 -74.96,-84.74 -81.48,-91.26l-13.04 -13.03 9.77 162.98 0 0 0 0z"/>
     <path class="fil0" d="M7361.19 4465.96c-13.03,3.27 -29.33,13.03 -35.85,19.56 -16.3,13.04 -16.3,19.57 -16.3,45.63 0,39.12 13.04,65.19 68.45,117.34 52.14,52.15 58.67,65.19 55.41,104.3 -3.27,19.57 -6.52,29.34 -19.57,39.12 -16.29,13.03 -19.56,16.29 -52.14,13.03 -35.85,-3.26 -48.89,-13.03 -58.68,-45.63l-6.51 -19.56 0 29.33c0,16.3 0,32.6 3.26,35.85 6.52,13.03 55.41,16.3 88.01,13.03 52.14,-6.52 74.96,-39.11 74.96,-88.01 0,-52.14 -13.03,-68.44 -88.01,-123.85 -65.19,-48.89 -58.67,-120.6 13.04,-120.6 29.33,0 58.67,16.3 58.67,32.59 0,3.27 0,6.52 3.27,6.52 3.26,0 3.26,-6.52 3.26,-19.56 0,-16.3 -3.26,-22.82 -6.52,-29.33 -9.78,-13.01 -61.94,-16.28 -84.75,-9.76l0 0z"/>
     <path class="fil0" d="M2739.4 4472.49c6.52,3.26 16.3,13.03 16.3,16.3 3.26,3.26 3.26,71.71 3.26,143.41 0,133.64 -3.26,159.72 -16.29,169.49 -3.27,3.26 13.03,3.26 35.84,3.26 22.82,0 39.12,0 35.85,-3.26 -19.56,-6.52 -19.56,-16.3 -19.56,-169.49 0,-149.93 0,-149.93 13.03,-156.45 13.04,-6.51 6.52,-6.51 -22.81,-6.51 -19.56,0 -39.11,0 -48.9,-3.27 -6.5,-0.01 -6.5,-0.01 3.28,6.52l0 0z"/>
     <path class="fil0" d="M3443.43 4475.74l16.29 13.04 0 149.93c0,143.42 0,153.18 -13.03,159.71l-13.03 13.04 39.1 0c35.85,0 39.11,0 29.33,-6.52 -6.52,-6.52 -13.03,-16.3 -13.03,-159.71 0,-149.94 0,-153.19 6.51,-159.72 13.04,-6.52 13.04,-6.52 -19.56,-6.52 -19.56,0 -39.11,0 -45.63,-3.26 -3.25,-9.77 -3.25,-9.77 13.05,0.01l0 0z"/>
     <path class="fil0" d="M4466.87 4479.01c-3.27,6.51 -29.33,74.96 -52.15,149.93 -55.41,153.19 -65.19,169.48 -74.96,176.01 -6.52,3.27 -6.52,3.27 6.52,6.52 13.03,0 29.33,3.26 35.85,3.26 16.29,3.27 16.29,3.27 6.51,-6.51 -6.51,-13.04 -6.51,-16.3 6.52,-68.45l16.3 -52.14 55.41 -0.03 55.41 0 22.81 55.41c16.3,35.85 19.56,58.68 19.56,68.45 -3.26,13.03 0,13.03 39.12,13.03 39.11,0 39.11,0 29.33,-6.52 -19.56,-6.51 -29.33,-16.29 -39.11,-48.89 -52.15,-136.9 -114.08,-286.82 -117.34,-290.09 0,-13.03 -6.52,-6.5 -9.78,0.02l0 0zm26.08 114.07c13.03,35.85 19.56,65.19 19.56,68.44 0,3.27 -84.74,3.27 -88.01,0 -3.26,-3.26 39.11,-133.63 45.63,-133.63 -3.26,0.01 9.77,29.34 22.82,65.19l0 0z"/>
     <path class="fil0" d="M4701.54 4475.74c6.52,3.27 16.3,13.04 19.56,16.3 0,6.52 0,195.56 0,273.79 0,16.3 -3.26,29.33 -6.51,35.85 -6.52,6.51 -3.27,6.51 35.85,6.51 35.84,0 39.11,0 32.59,-6.51 -3.26,-3.27 -13.03,-6.52 -13.03,-13.04 -3.27,-3.26 -3.27,-71.71 -3.27,-153.18 0,-149.94 0,-149.94 13.04,-156.45 13.03,-6.52 13.03,-6.52 -19.57,-6.52 -16.29,0 -39.11,0 -48.89,-3.26l-16.3 -3.27 6.53 9.78 0 0 0 0z"/>
     <path class="fil0" d="M5304.53 4472.49c-71.71,0 -81.49,3.26 -68.45,6.52l13.04 6.51 0 156.45c0,91.26 -3.27,159.72 -6.52,159.72 -3.27,0 -3.27,3.26 -3.27,3.26 0,3.27 159.72,3.27 166.24,-3.26 3.26,-3.27 3.26,-16.3 6.51,-29.33 3.27,-19.57 3.27,-19.57 -3.26,-6.52 -6.52,19.56 -35.85,29.33 -68.45,29.33 -22.81,0 -32.59,-3.26 -39.11,-13.03 -6.51,-6.52 -13.03,-16.3 -6.51,-81.49l0 -65.19 35.86 0c35.84,0 55.41,3.26 55.41,19.56 0,3.26 3.26,-3.27 6.51,-16.3 6.52,-29.33 6.52,-32.59 -3.26,-22.81 -3.27,3.26 -22.82,3.26 -52.15,3.26l-45.63 -0.01 0 -65.19 0 -65.19 22.82 -3.27c39.11,-3.26 65.19,0 74.96,19.56l6.51 16.3 0 -16.3c0,-6.51 0,-19.56 3.27,-29.33 3.26,-6.51 0,-13.03 -3.27,-13.03 -3.25,3.25 -45.62,3.25 -91.25,9.78l0 0z"/>
     <path class="fil0" d="M6324.71 4475.74c6.52,3.27 19.57,13.04 19.57,19.56 0,6.53 3.26,74.97 0,156.45 0,136.9 -3.27,143.42 -13.04,153.19 -6.51,6.52 -3.26,6.52 32.6,6.52 35.85,0 39.11,0 32.6,-6.52 -3.27,-3.26 -13.04,-6.52 -13.04,-13.03 -3.26,-3.27 -3.26,-71.71 -3.26,-153.19 0,-149.93 0,-149.93 13.03,-156.45 13.03,-6.52 13.03,-6.52 -19.56,-6.52 -16.3,0 -39.11,0 -48.9,-3.26l-16.29 -3.26 16.29 6.51 0 0 0 0z"/>
     <path class="fil0" d="M6976.58 4472.49c-48.89,3.26 -52.14,3.26 -39.11,6.52 13.03,6.51 13.03,6.51 13.03,159.71 0,123.86 0,153.19 -6.51,159.72 -6.52,6.52 -3.27,6.51 32.59,13.03 81.49,6.52 143.42,0 185.78,-19.56 29.33,-13.04 58.68,-39.12 81.49,-71.71 13.04,-19.56 13.04,-29.33 13.04,-81.49 0,-48.89 0,-55.41 -13.04,-81.49 -16.3,-32.6 -45.63,-55.41 -81.49,-71.71 -29.33,-13.03 -88,-22.81 -117.34,-22.81 -9.76,3.26 -42.36,3.26 -68.44,9.79l0 0 0 0zm143.42 26.07c58.67,22.81 91.26,68.44 97.78,140.15 3.27,71.71 -19.56,120.6 -74.96,149.93 -29.33,13.04 -35.84,16.3 -84.74,16.3 -45.63,0 -52.14,0 -58.67,-6.52 -6.52,-13.03 -13.04,-88 -13.04,-208.59 0,-81.49 0,-84.74 13.04,-91.26 13.03,-22.83 81.48,-16.31 120.59,-0.01l0 0 0 0z"/>
     <path class="fil0" d="M7517.64 4472.49c0,3.26 3.26,3.26 6.52,3.26 16.29,0 19.56,19.57 16.29,169.49 -3.26,97.79 -3.26,149.93 -6.51,156.45 -3.27,3.26 6.51,6.51 74.96,6.51 45.63,0 84.74,-3.26 84.74,-3.26 0,-3.26 3.26,-16.3 3.26,-29.33l3.27 -22.82 -6.52 16.3c-6.52,19.56 -29.33,29.33 -68.44,29.33 -48.9,0 -48.9,0 -48.9,-88l0 -74.96 32.59 0c35.85,0 55.41,3.26 55.41,19.56 0,19.56 3.26,6.52 6.51,-22.82 3.27,-22.81 3.27,-29.33 -3.26,-22.81 -3.26,3.26 -22.81,6.52 -52.15,6.52l-42.36 -0.02 0 -68.44c0,-74.96 -3.27,-68.44 48.89,-68.44 39.12,0 48.9,3.26 52.15,19.56 6.52,16.3 6.52,16.3 13.03,-16.3l3.27 -22.81 -88.01 -0.02c-52.15,6.52 -84.74,6.52 -84.74,13.05l0 0z"/>
     <path class="fil0" d="M7758.83 4479.01c0,6.51 -3.26,19.56 -3.26,29.33l-3.27 16.3 6.52 -13.04c16.3,-19.56 29.33,-22.81 74.96,-22.81l45.65 0 0 153.18 0 153.19 -13.03 6.52c-13.03,6.51 -13.03,6.51 35.85,6.51 29.33,0 45.63,0 39.11,-3.26 -22.82,-6.52 -29.33,-16.3 -29.33,-172.75l0 -143.42 45.63 0.03c45.63,0 45.63,0 58.67,16.3 6.52,6.51 16.3,16.29 16.3,16.29 0,0 3.26,-13.03 3.26,-22.81l-0.01 -26.08 -136.9 0 -140.15 0 0 6.52 0 0 0 0z"/>
     <path class="fil0" d="M2902.37 4475.74c6.52,3.27 13.03,6.52 16.3,16.3 0,6.52 3.26,74.96 0,153.19 0,127.11 -3.27,140.15 -13.04,153.18l-6.51 13.03 91.25 0.02c91.26,0 91.26,0 101.04,-13.04 3.27,-6.51 6.52,-19.56 6.52,-29.33l-3.26 -16.3 -3.27 13.04c-13.03,22.81 -22.81,32.59 -68.44,32.59 -55.41,0 -58.68,0 -58.68,-74.96 0,-32.59 0,-101.04 0,-149.93 3.27,-88.01 3.27,-88.01 16.3,-97.79 13.03,-3.26 6.52,-6.51 -32.59,-6.51 -45.62,3.26 -52.14,3.26 -45.62,6.51l0 0z"/>
     <path class="fil0" d="M3176.16 4479.01c13.03,6.51 13.03,13.03 6.51,159.71 0,143.42 -3.26,153.19 -13.03,159.72 -6.52,6.51 0,6.51 81.49,6.51 104.3,0 107.55,0 107.55,-35.85l0 -19.56 -13.03 16.3c-13.03,22.81 -22.81,29.33 -68.44,29.33 -65.19,0 -58.68,6.52 -58.68,-159.71 0,-74.96 3.27,-143.42 3.27,-149.94 3.26,-3.26 6.51,-6.51 16.29,-13.03 6.52,-3.26 3.27,-3.26 -32.59,-3.26 -35.86,3.26 -35.86,3.26 -29.34,9.78z"/>
     <path class="fil0" d="M4861.26 4475.74l13.03 3.27 0 153.18c0,97.79 -3.27,156.45 -3.27,166.23 -3.26,6.52 -3.26,6.52 29.34,6.52l35.86 0 -13.04 -13.03c-6.51,-6.52 -13.03,-19.57 -13.03,-68.45 0,-32.59 0,-58.67 3.26,-58.67 0,0 16.3,0 32.6,0l29.33 3.26 48.89 58.68c52.15,68.44 68.45,81.49 120.61,84.74l32.59 3.26 -29.33 -13.03c-29.33,-13.03 -32.59,-13.03 -101.04,-97.79l-39.11 -48.89 19.56 -19.56c22.82,-22.82 35.85,-52.15 35.85,-84.75 0,-35.84 -13.03,-55.41 -45.63,-71.7 -19.56,-6.52 -32.6,-13.04 -97.79,-13.04 -55.43,6.52 -65.2,6.52 -58.68,9.77l0 0zm127.1 16.3c29.33,13.03 39.11,35.85 39.11,74.96 0,55.41 -22.81,84.74 -71.7,84.74 -45.63,0 -45.63,3.27 -45.63,-84.74 0,-45.63 0,-81.49 3.26,-84.74 9.78,-3.25 55.41,0 74.96,9.78l0 0z"/>
    </g>
   </g>
  </g>
 </g>
</svg>
