<?xml version="1.0" encoding="UTF-8"?>
<!DOCTYPE svg PUBLIC "-//W3C//DTD SVG 1.0//EN" "http://www.w3.org/TR/2001/REC-SVG-20010904/DTD/svg10.dtd">
<!-- Creator: CorelDRAW -->
<svg xmlns="http://www.w3.org/2000/svg" xml:space="preserve" width="84mm" height="53mm" version="1.0" style="shape-rendering:geometricPrecision; text-rendering:geometricPrecision; image-rendering:optimizeQuality; fill-rule:evenodd; clip-rule:evenodd"
viewBox="0 0 8400 5300"
 xmlns:xlink="http://www.w3.org/1999/xlink"
 xmlns:xodm="http://www.corel.com/coreldraw/odm/2003">
 <defs>
  <style type="text/css">
   <![CDATA[
    .fil0 {fill:#373535}
   ]]>
  </style>
 </defs>
 <g id="Слой_x0020_1">
  <metadata id="CorelCorpID_0Corel-Layer"/>
  <g id="_105553261406496">
   <g id="Layer_x0020_1">
    <path class="fil0" d="M5414.34 4129.85c17.99,-3.6 7.19,3.6 21.59,-7.19l0 -35.96c0,-53.95 3.6,-111.49 68.32,-93.5 39.56,25.17 21.59,79.12 25.18,129.46l21.58 0c0,-86.31 21.59,-165.43 -82.71,-151.05l-28.77 21.59c-14.38,-28.78 3.6,-10.8 -21.58,-21.59l-3.61 158.24 0 0zm-2431.05 -183.41c28.78,3.6 43.16,-7.19 25.17,-32.36l-28.77 3.6c0.01,-3.6 3.6,28.76 3.6,28.76zm-2244.04 -3509.91c17.98,-17.98 7.19,-82.7 7.19,-107.89 0,-17.98 0,-35.96 0,-53.95 0,-57.53 0,-43.15 -10.79,-50.34 -7.18,18 -7.18,187.01 3.6,212.18zm161.84 0c7.19,-10.79 3.6,10.8 7.19,-21.58l0 -143.84c0,-25.18 7.19,-35.97 -7.19,-50.35 -14.38,14.38 -10.79,151.05 -7.19,190.6l7.19 25.17zm2812.24 3607.01c7.19,-28.77 21.59,-50.34 53.95,-46.76 28.77,3.61 43.15,17.99 46.75,46.76l-100.7 0zm122.27 61.14c-17.98,-39.56 -21.58,21.58 -79.11,14.38 -28.78,-3.6 -46.76,-21.59 -46.76,-53.95l122.27 -3.6c10.79,-35.97 -7.19,-43.16 -14.38,-68.33 -28.77,-10.79 -64.74,-25.17 -97.1,-3.6 -57.53,39.55 -39.55,140.26 28.78,147.45 53.93,7.2 57.53,-14.37 86.3,-32.35l0 0zm-3470.35 783.97c21.59,-28.77 75.52,-14.38 89.91,-53.95 -28.77,-39.55 -79.12,-25.17 -97.1,-61.13 32.37,-17.98 79.12,-21.59 97.1,-46.76 -17.98,-46.76 -82.7,-25.17 -93.5,-64.74 14.38,-14.38 25.18,-14.38 46.76,-21.58 28.78,-7.19 35.97,-7.19 43.16,-32.36 -21.59,-32.37 -61.14,-25.18 -93.5,-46.76 17.98,-46.76 86.31,-10.79 93.5,-75.52 -25.18,-14.38 -71.93,-21.58 -89.92,-43.15 14.38,-17.98 68.33,-32.37 93.5,-43.16 -10.79,-64.74 -71.92,-28.77 -93.5,-68.32 28.78,-28.78 82.71,-17.99 93.5,-61.14 -17.98,-32.36 -68.32,-21.59 -93.5,-46.76 10.8,-35.96 64.74,-17.98 93.5,-61.13 -10.79,-25.18 -10.79,-21.59 -43.15,-32.37 -21.58,-7.19 -39.55,-14.38 -50.35,-21.58 10.8,-35.97 71.93,-14.38 93.5,-61.14 -7.19,-21.58 -21.58,-25.17 -46.75,-32.36 -25.17,-7.19 -39.56,-10.79 -46.76,-28.77 32.36,-28.78 75.52,-14.39 93.5,-53.95 -14.38,-28.78 -43.15,-35.97 -75.52,-39.55 -10.79,-10.8 -14.38,-14.38 -28.77,-7.19 28.77,35.96 75.52,21.58 93.5,50.34 -10.79,17.98 -28.78,17.98 -46.76,25.17 -25.17,7.19 -35.96,10.79 -50.34,28.78 10.79,17.98 21.58,25.17 43.15,32.36 25.17,7.19 39.55,7.19 53.95,25.17 -25.17,35.97 -82.71,10.79 -93.5,61.14 32.36,39.55 71.93,21.58 97.1,50.34 -7.19,10.8 0,3.61 -10.79,10.8 -28.78,17.98 -50.35,7.19 -86.31,39.55 10.79,61.14 75.52,25.17 93.5,64.74 -21.59,28.77 -50.35,10.79 -93.5,46.75 7.19,53.95 71.93,32.37 93.5,68.33 -25.17,28.77 -75.52,10.79 -97.1,53.95 25.17,39.55 64.74,25.17 93.5,53.94 -7.19,17.99 10.79,7.19 -43.16,25.18 -21.58,7.19 -39.55,14.38 -50.34,25.17 7.19,43.15 28.77,32.36 71.93,50.34 28.77,10.8 17.98,3.61 21.58,21.59 -25.17,28.77 -71.93,10.79 -93.5,53.94 14.38,28.78 35.97,28.78 68.33,39.56 25.17,7.19 14.38,3.6 28.77,14.38 -21.58,39.55 -86.31,14.38 -97.1,64.74 35.97,28.77 68.33,21.58 97.1,46.75 -21.58,32.37 -68.33,17.98 -93.5,50.35l14.38 0.01 0 0zm3279.75 -3261.77c0,28.78 -43.15,100.69 -64.73,111.48 -7.19,28.78 -43.16,61.14 -79.12,75.52 -7.19,14.38 -50.35,25.17 -75.52,25.17 -32.36,-3.6 -53.95,-17.98 -64.74,-35.96 -32.36,-50.35 -28.77,-115.08 -25.17,-179.81l17.98 -75.52 25.17 -64.74c3.6,-25.17 21.59,-64.73 35.97,-75.51l57.53 -86.31c10.79,-28.78 43.16,-50.35 75.52,-64.74 169.02,-71.93 169.02,179.81 147.45,215.77 0.01,35.98 -28.77,133.08 -50.34,154.65zm-133.06 -377.6c-14.38,17.98 -39.55,35.97 -61.14,61.14l-46.76 61.14c0,0 -3.6,3.6 -3.6,3.6 0,0 -3.6,3.6 -3.6,3.6 -3.6,10.79 -7.19,17.98 -10.79,28.77 -3.6,3.61 -7.19,10.8 -10.79,14.38 -3.6,7.19 -3.6,7.19 -10.8,10.8 0,21.58 -3.6,25.17 -17.98,39.55 0,28.77 -21.58,82.71 -32.36,115.08 -10.79,50.35 -10.79,93.5 -7.19,147.45l25.17 75.52 35.97 35.96c140.25,35.97 197.79,-75.52 244.54,-133.07l7.19 -7.19 28.78 -57.53 35.96 -93.5 21.59 -125.86c3.6,-68.33 -3.6,-129.47 -43.16,-169.02 -43.14,-53.97 -89.89,-32.4 -151.03,-10.82zm-370.41 783.98l-3.6 25.17c-61.14,32.36 -97.1,7.19 -125.86,79.12l-21.59 46.75c0,17.99 -14.38,82.71 -25.17,97.11 0,64.73 -79.12,305.68 -64.74,359.61 14.38,57.54 68.33,25.17 71.93,68.33 -28.78,25.17 -125.86,7.19 -172.62,3.6 -46.76,0 -118.67,14.38 -161.83,3.6 0,-50.34 57.54,-14.38 97.11,-71.93 35.96,-46.75 104.29,-374.01 115.08,-388.39 0,-25.17 10.79,-10.79 -7.19,-17.98l-14.38 10.79c-7.19,28.78 -215.77,262.53 -255.33,305.69l-97.1 125.86c-28.77,39.55 -28.77,46.76 -61.14,50.34 -10.79,-68.32 0,-179.81 -7.19,-258.92 -3.6,-68.33 0,-201.4 -14.38,-255.33 -21.58,3.6 -10.79,-3.6 -25.17,21.58l-97.1 215.78c-17.98,39.55 -39.55,86.31 -53.95,133.06 -32.36,104.29 14.38,93.5 46.76,111.48l-3.6 21.59c-35.97,7.19 -244.55,10.79 -269.72,0 3.6,-25.17 10.79,-21.59 39.55,-28.78 14.38,-3.6 35.97,-14.38 46.76,-21.58 61.13,-39.55 125.86,-197.79 165.43,-273.31 32.36,-68.32 61.13,-125.86 97.1,-194.2 79.12,-165.43 -75.52,-86.31 -89.91,-154.64 28.77,-21.58 89.91,-10.79 129.46,-10.79 35.96,0 93.5,0 125.86,10.79 28.78,104.29 7.19,348.84 21.59,474.7 21.58,0 43.15,-32.36 53.94,-46.75 25.17,-25.17 32.37,-32.36 50.35,-57.54 17.98,-21.58 79.12,-107.89 97.1,-111.48 10.79,-28.77 53.95,-75.52 75.52,-104.29 14.38,-17.98 25.17,-28.77 39.55,-50.35 10.79,-14.38 25.17,-43.15 39.55,-50.34 17.98,-53.95 28.78,-61.14 93.5,-61.14 61.14,-0.02 115.08,-3.61 165.43,-7.21l0 0zm-859.49 676.09c17.98,-39.55 -28.78,-35.96 -53.95,-57.54 -7.19,-50.34 46.76,-158.23 64.74,-201.39 17.98,-39.55 64.74,-158.24 86.31,-179.81 32.36,53.95 -3.6,406.38 28.77,471.1 46.76,10.79 71.93,-32.36 111.49,-89.91l169.01 -208.58c28.78,-32.36 107.9,-125.86 125.86,-140.26 3.61,28.78 -50.34,208.59 -64.73,248.14 -14.38,46.75 -17.99,86.31 -57.54,100.69 -32.36,14.38 -107.89,28.77 -68.33,75.51 21.59,21.59 140.26,0 201.4,3.61 68.32,3.6 82.7,10.79 143.84,-3.61 35.96,-10.79 7.19,-3.6 35.96,7.19 61.14,3.61 115.09,-3.6 176.23,0 28.77,0 53.94,0 82.7,0 43.16,0 35.97,-3.6 57.54,-25.17 0,-46.75 -28.78,-50.34 -64.74,-61.13 3.6,-28.78 21.58,-53.95 39.55,-75.52l10.81 -3.58c14.38,-21.58 50.34,-75.51 71.93,-82.7l7.19 -3.61c35.96,-14.38 -32.37,7.19 10.79,-3.6 3.6,0 14.38,0 17.98,0 10.79,0 25.17,0 35.97,0 25.17,0 53.94,0 79.11,0l-3.6 32.37c-14.38,25.17 -10.79,75.51 -32.36,97.1 -3.6,28.77 -14.38,35.96 -43.15,46.75 -25.18,7.19 -43.16,14.38 -61.14,21.59 -3.6,21.58 0,7.19 -10.79,14.38 7.19,28.77 7.19,39.55 32.36,46.75l215.77 0c53.95,0 68.33,3.61 118.67,-7.19 32.37,-7.19 10.8,3.61 46.76,10.8 21.58,3.6 35.96,0 61.14,7.19l14.38 -3.61c7.19,0 10.79,-3.6 14.38,-3.6l100.69 0 111.48 3.6 0 -10.79 17.98 0c17.98,-61.13 -14.38,-53.94 -57.53,-75.52 -3.61,-25.17 17.98,-104.29 28.77,-122.27l7.19 -35.96 28.77 -79.12c17.99,14.38 17.99,21.58 28.78,46.75 10.79,21.59 17.98,28.78 25.17,50.35l17.98 28.77c7.19,14.38 10.8,21.59 17.99,35.97 10.79,21.58 28.77,53.94 35.96,75.51l-46.76 21.59c-3.6,10.79 -7.19,10.79 -7.19,39.55l3.61 10.79c10.79,3.61 14.38,7.19 25.17,10.8l165.43 0 578.99 3.6c28.77,0 68.33,3.6 93.5,0 39.55,-3.6 35.96,-25.17 57.53,-39.56 10.8,-39.55 93.5,-176.22 -7.19,-161.82 -7.19,10.79 -17.98,25.17 -28.77,39.55 -10.79,17.98 -10.79,25.17 -32.36,35.97 -21.59,61.13 -140.26,53.94 -201.4,50.34 -28.77,0 -21.58,3.6 -35.96,-14.38 -7.19,-25.17 14.38,-97.1 25.17,-118.67l7.19 -28.78 25.17 -89.91c32.37,-7.19 100.69,-7.19 133.07,0l10.79 75.52c10.79,7.19 25.17,17.98 43.16,7.19 21.58,-10.79 7.19,-7.19 21.58,-25.17 10.79,-43.16 25.17,-104.29 43.15,-147.45 3.61,-10.79 7.2,-7.19 7.2,-10.79l7.19 -25.17 -3.61 -32.37c-21.58,-14.38 -21.58,-10.79 -50.34,-3.6l-17.98 25.18c-10.8,14.38 -10.8,10.79 -21.59,21.58 -3.6,14.38 -3.6,14.38 -25.17,21.58 -21.58,7.19 -97.1,3.61 -118.67,3.61l21.58 -82.71c10.79,-21.59 14.38,-50.35 25.17,-75.52 28.78,-82.71 17.99,-75.52 115.09,-75.52 28.77,0 61.13,-3.6 68.33,10.8 14.38,14.38 14.38,35.96 17.98,57.53 0,10.79 3.6,21.58 7.19,28.77 7.19,17.99 3.6,10.8 14.38,17.99 50.34,25.17 50.34,-43.16 61.13,-82.71 43.16,-161.83 32.37,-111.48 -237.35,-111.48 -82.71,0 -172.62,-7.19 -251.74,0l-28.77 17.98c-35.97,-17.98 -10.8,-21.58 -68.33,-21.58l-251.74 3.6c-17.98,10.79 -35.96,14.38 -28.77,46.75 3.6,25.18 28.77,25.18 46.75,35.97 -7.19,17.98 -46.75,46.76 -64.74,61.14 -3.6,14.38 -21.58,25.17 -35.96,35.96 -21.58,17.98 -17.98,25.17 -43.15,35.96 -10.8,17.99 -79.12,82.71 -115.09,89.92l35.97 -115.09c32.36,-161.82 68.32,-79.12 129.46,-140.25l0 -35.97c-28.77,-21.58 -71.93,-14.38 -115.08,-10.79l-204.98 0c0,0 -7.19,7.19 -7.19,10.79 -7.19,7.19 -3.61,3.6 -7.19,7.19 -10.8,7.19 -3.61,-3.6 -10.8,10.79 -3.6,10.8 -3.6,3.61 -3.6,17.99 28.78,28.77 21.59,17.98 64.74,35.96 3.6,25.17 -28.77,136.65 -43.15,151.05 0,25.17 -10.8,57.53 -21.59,71.93 0,28.77 -21.58,82.71 -28.77,115.08l-14.38 35.97c3.6,25.17 -17.99,75.51 -21.59,71.92 0,0 0,3.61 -3.6,3.61l-25.17 71.93c-3.6,39.55 -43.16,25.17 -107.89,61.13 -43.16,-25.17 -93.5,-21.58 -82.71,-89.91 7.19,-32.36 17.98,-115.08 28.77,-140.25l7.19 -28.78 32.36 -169.02 32.37 -158.23 7.19 -35.97 0 -17.98c3.6,-32.36 0,-35.96 -17.98,-50.35 -28.78,-7.19 -43.16,14.39 -68.33,25.18 -10.79,17.98 -43.16,17.98 -68.33,25.17 -35.96,10.79 -17.98,25.17 -50.34,46.76 -3.61,17.98 -3.61,10.79 -10.8,14.38 -3.6,21.58 -64.73,89.91 -82.7,100.69 -3.6,17.98 -32.37,50.34 -50.35,68.32 0,0 -10.79,7.19 -10.79,10.8 -7.19,7.19 -3.6,3.6 -10.79,7.19 -3.6,17.98 3.6,7.19 -14.38,25.17 0,0 -7.19,7.19 -10.79,10.79 -7.19,7.19 0,3.6 -10.8,7.19 -3.6,17.98 -79.12,104.29 -100.69,118.67 -3.6,17.98 -3.6,17.98 -21.58,25.17 -3.6,10.8 -21.58,32.37 -32.36,46.76 -7.19,10.79 -14.38,14.38 -17.98,21.58 -14.39,14.38 -7.2,10.8 -25.18,21.59 -3.6,10.79 3.6,0 -7.19,14.38 -3.6,7.19 -7.19,7.19 -10.79,17.98 -21.58,10.79 -28.77,21.59 -57.53,35.97 -21.59,10.79 -104.3,43.15 -125.87,39.55 -10.79,-3.6 -46.75,-17.98 -53.94,-28.78 -21.59,-28.77 39.55,-266.11 43.15,-273.3l46.76 -187c7.19,-35.97 17.98,-79.12 50.34,-79.12 7.19,-7.19 -3.6,-3.6 17.99,-10.79 17.98,-7.19 0,0 17.98,0 14.38,-14.38 46.75,-25.18 53.94,-28.78l3.61 -14.38c3.6,-28.77 0,-10.79 -3.61,-17.98 -7.19,-35.97 -50.34,-25.17 -89.91,-25.17l-64.74 3.6c-25.17,0 -61.13,-3.6 -82.7,10.79 -21.59,14.38 -17.99,35.97 -43.16,53.95 -3.6,17.98 -10.79,28.77 -25.17,43.15 0,0 -3.6,3.6 -3.6,3.6l-10.79 10.8c-7.19,17.98 -111.49,151.04 -133.07,176.22 -35.96,43.15 -111.48,143.84 -151.05,169.01 -10.79,-122.27 -7.19,-258.92 -10.79,-381.2 -3.6,-97.1 -28.77,-82.71 -111.48,-86.31 -64.74,-3.6 -122.28,-10.79 -183.41,3.6 0,0 0,0 0,3.61 0,0 0,3.6 0,3.6 -10.79,21.58 -10.79,43.15 25.17,53.94 10.79,3.61 28.77,7.19 39.55,10.8 7.19,3.6 14.38,3.6 21.59,7.19l7.19 3.6c46.75,25.17 -64.74,201.39 -82.71,237.36 -39.55,82.7 -118.67,276.91 -187,312.87 -25.17,14.38 -115.08,25.17 -82.71,71.93 17.99,25.17 118.68,10.79 151.05,10.79 39.6,-0.15 122.32,17.83 140.3,-25.32l0 0zm1211.92 -244.55l-122.28 0c-21.58,10.79 -140.25,158.24 -129.46,190.6 25.17,32.37 57.53,14.38 64.74,53.95 -32.37,17.98 -97.1,7.19 -143.85,10.79l-118.67 3.6c-7.19,0 -10.79,0 -17.98,0l-17.98 -7.19c-17.99,-25.17 79.12,-46.75 122.27,-71.93 14.38,-10.79 28.77,-21.58 39.55,-35.96 7.19,-3.6 0,3.6 14.38,-7.19 3.61,-3.6 7.19,-7.19 10.8,-10.79 7.19,-10.79 10.79,-17.98 21.58,-25.17 21.58,-25.18 122.27,-147.45 140.26,-158.24 7.19,-21.59 28.77,-43.16 46.75,-61.14 10.79,-14.38 39.55,-50.34 53.95,-57.53 7.19,-21.59 75.52,-100.69 100.69,-133.07 61.14,-79.12 50.34,-89.91 133.06,-97.1 10.8,-14.38 53.95,-53.95 71.93,-32.36 3.6,25.17 0,57.53 -10.79,75.51 3.6,28.78 -14.38,129.47 -28.77,151.05 3.6,32.36 -7.19,93.5 -21.59,115.08 0,17.99 3.6,17.99 -7.19,32.37 3.6,39.55 -14.38,100.69 -25.17,140.25 -10.79,64.74 -21.58,79.12 3.6,133.07 14.38,3.6 61.14,14.38 64.74,39.55 -25.17,21.59 -172.62,7.19 -251.74,10.79 -14.38,0 -28.77,0 -39.55,0 -21.58,0 -25.17,3.61 -39.55,-7.19 -28.78,-32.36 71.93,-32.36 97.1,-71.93 21.58,-32.36 28.77,-107.89 43.15,-147.44l-3.6 -25.17c-0.04,-3.61 -50.38,-7.21 -50.38,-7.21zm-2589.28 1402.53c10.79,3.61 147.44,89.92 82.71,194.21 -21.59,35.96 -32.37,28.77 -53.95,61.13 50.34,-7.19 89.91,-32.36 140.26,0 32.36,21.59 46.75,68.33 53.94,118.68 25.17,-28.78 14.38,-97.11 82.71,-122.28 61.14,-21.58 115.08,14.38 158.24,28.78 -64.74,-46.76 -151.05,-129.47 -61.14,-215.78 14.38,-14.38 46.76,-43.15 68.33,-53.94 -50.35,17.98 -100.69,50.34 -161.83,21.58 -57.53,-28.77 -53.95,-75.52 -68.33,-151.05 -10.79,35.97 -7.19,115.09 -71.92,147.45 -61.13,28.76 -125.87,-14.4 -169.02,-28.78zm6491.17 942.2c97.11,-25.17 61.14,21.59 82.71,125.86 7.19,46.76 25.17,75.52 35.97,111.49 -75.52,-21.58 -118.68,-129.45 -118.68,-237.35l0 0zm230.16 244.55c28.77,-35.97 46.75,-43.16 71.93,-100.69 25.17,-57.54 14.38,-100.69 32.36,-147.45l115.08 0c3.6,118.68 -115.08,237.35 -219.37,248.14l0 0zm75.53 -10.79c35.96,-28.78 53.94,-28.78 104.29,-89.91 79.12,-97.11 -10.79,-172.62 154.64,-143.85 17.98,107.9 -151.05,222.98 -258.93,233.76zm-107.9 10.79c17.99,-39.55 28.78,-57.54 39.56,-107.89 25.17,-129.47 -17.98,-147.45 79.12,-136.66 7.2,61.14 -32.37,226.57 -118.68,244.55l0 0zm-115.07 -244.55l64.74 -3.6c14.38,39.55 -3.6,179.81 10.8,226.57l3.6 10.79c0,-46.76 -7.19,-201.4 3.6,-233.76 14.38,-7.19 43.15,-3.6 64.74,0 7.19,35.97 -3.6,107.9 -10.79,147.45 -7.19,39.55 -17.99,100.69 -57.54,100.69 -32.36,0 -35.96,-10.79 -46.76,-35.97 -7.19,-21.58 -14.38,-39.55 -21.58,-61.13 -3.61,-32.35 -18.01,-125.87 -10.81,-151.04l0 0zm-406.37 -7.19c61.14,10.79 57.54,-14.38 71.93,39.55 28.77,122.28 125.86,143.85 147.45,176.22 -57.55,-7.19 -222.98,-97.1 -219.38,-215.77l0 0zm748.01 215.77c21.58,-25.17 53.95,-28.77 100.69,-82.7 43.15,-46.76 35.96,-64.74 61.14,-129.47l57.53 -3.6c17.98,89.91 -147.43,212.19 -219.36,215.77zm-553.82 -208.58c32.36,0 86.31,-7.19 115.08,3.6 10.8,17.99 17.99,104.3 32.37,140.26 17.98,43.15 46.75,79.12 71.93,100.69 -97.11,-3.6 -233.76,-133.07 -219.38,-244.55l0 0zm-118.67 -3.59l100.69 10.8c14.38,39.55 3.6,61.13 50.34,133.06 39.56,57.54 57.54,50.35 100.69,93.5 -100.69,-10.79 -266.1,-129.48 -251.72,-237.36l0 0zm830.73 -14.39c-17.98,-61.14 -14.38,-75.52 -50.35,-118.67l-93.5 -82.71c86.31,17.98 208.59,111.48 204.99,204.98l-61.14 -3.6zm-334.46 3.6c-14.38,-115.08 0,-133.06 -46.76,-244.55 75.52,17.99 118.67,154.64 115.09,244.55l-68.33 0zm-248.14 0c3.61,-97.1 50.35,-230.15 118.68,-244.55 -3.61,17.99 -14.38,35.97 -21.59,53.95 -21.58,68.33 -21.58,125.86 -28.77,190.6l-68.32 0zm302.09 -240.94c10.79,14.38 64.74,17.98 89.91,28.77 25.17,10.79 61.13,32.36 82.7,46.76 39.56,25.17 93.5,86.31 97.11,165.43l-104.3 0c-10.79,-64.74 -17.98,-107.9 -53.94,-147.45 -93.5,-97.12 -43.16,-35.98 -111.48,-93.51zm-334.45 240.94l-97.1 0c0,-39.55 25.17,-111.48 39.55,-118.67 21.59,-61.14 136.66,-133.07 176.22,-118.67 -57.53,75.52 -86.31,86.31 -93.5,237.36l-25.17 -0.02 0 0zm363.22 0c-10.79,-79.12 -10.79,-169.02 -97.1,-240.94 75.52,0 212.17,100.69 215.77,244.54l-118.67 -3.6 0 0zm-248.14 0c-3.6,-43.15 7.2,-111.48 14.39,-151.05 43.15,-190.6 140.25,-75.51 133.06,151.05 -21.58,3.6 -50.34,7.19 -71.93,-3.6l0 -169.02c0,-21.58 3.6,-50.34 -7.19,-68.32l0 240.94 -68.33 0 0 0zm-97.1 -251.74l-46.75 14.38 -21.59 7.19 -53.94 14.38c-25.18,10.8 -39.56,17.99 -61.14,32.37 -10.79,7.19 -17.98,10.79 -28.77,17.98 -17.99,14.38 -14.39,0 -25.18,21.58l-17.98 3.61 -17.98 25.17c-43.16,53.94 -28.78,46.75 -50.35,75.52 3.61,82.7 -3.6,61.13 25.18,136.65 10.79,7.19 21.58,21.58 28.77,32.36 68.33,79.12 248.14,143.85 338.05,147.45 32.36,3.6 71.93,10.79 104.29,10.79 32.36,0 68.33,-10.79 100.69,-7.19l118.67 -21.58c14.38,-17.99 89.91,-35.97 115.08,-50.35 43.16,-21.58 71.93,-39.55 104.29,-68.33 122.28,-122.27 35.97,-251.73 -68.32,-316.46 -111.48,-68.33 -258.93,-97.1 -402.77,-93.5l-140.25 17.98 0 0zm-53.94 32.37c32.36,-3.61 46.75,-17.99 82.7,-17.99 -64.73,50.35 -111.48,61.14 -147.44,169.02l-10.79 32.36 0 35.97 -100.69 0c3.6,-43.16 14.38,-71.93 32.36,-97.1l17.98 -28.78c21.59,-10.79 32.36,-28.77 61.14,-46.75 14.39,-10.77 53.94,-32.34 64.74,-46.73l0 0zm-133.07 86.31c-43.15,39.55 -39.55,68.32 -64.74,133.06l-61.13 3.6c3.6,-79.12 61.13,-115.08 79.11,-140.25 28.78,-10.79 75.52,-57.54 129.47,-64.74l-21.59 17.98c-28.74,14.39 -50.33,25.17 -61.12,50.35l0 0zm-1060.88 -748.01c-7.19,25.17 0,7.19 -7.19,10.79 -10.79,10.79 -21.59,21.58 -28.78,32.36 -7.19,7.19 -21.58,14.38 -32.36,25.17 -3.6,3.61 -17.98,14.38 -25.17,17.99 -14.38,10.79 -10.79,3.6 -25.17,14.38 -25.18,10.79 -50.35,32.36 -75.52,39.55l-57.54 32.36c-28.77,25.17 -161.82,61.14 -194.2,86.31l-43.15 14.38 -165.43 53.95 -71.93 21.58 -147.45 35.97 -46.75 14.38 -161.83 32.36 -115.08 25.17 -197.79 35.97c-71.93,21.58 -194.21,25.17 -280.52,43.15 -46.75,7.19 -100.69,14.38 -147.44,17.98 -39.55,3.61 -104.29,7.19 -140.26,17.99 -384.79,25.17 -816.33,68.32 -1211.93,32.36l-287.7 -28.78c-147.45,-17.98 -370.41,-64.73 -485.49,-147.44 -28.78,-21.59 -61.14,-46.76 -68.33,-93.5 -3.6,-32.36 7.19,-64.74 25.17,-86.31 61.14,-79.12 111.48,-107.89 201.39,-158.24 68.33,-39.55 143.85,-68.33 219.38,-97.1 334.44,-133.07 899.06,-244.55 1287.45,-294.89 53.94,-7.19 251.74,-39.56 287.7,-28.78l10.79 -3.6c25.17,-7.19 25.17,-7.19 43.16,-3.6 28.77,-10.79 194.2,-25.17 226.56,-17.98 21.59,-7.19 68.33,-10.79 93.5,-7.19 21.59,-10.8 89.91,-14.38 115.08,-7.19 25.18,-7.19 68.33,-10.8 97.11,-3.61 35.96,-14.38 611.35,0 672.49,14.39l68.32 3.6 179.81 21.58 7.19 3.6c35.97,3.61 179.81,25.18 197.79,39.56l53.95 14.38c97.12,21.62 352.44,125.91 230.17,276.95zm-1686.62 -370.41l-64.74 3.6 -111.48 7.19 -46.76 3.6c-97.1,14.38 -230.15,28.78 -330.85,39.55 -172.62,17.99 -471.1,68.33 -640.13,104.3 -100.69,21.58 -208.59,53.94 -309.28,71.92l-327.25 100.69c-53.95,17.99 -107.89,39.56 -154.64,61.14 -32.36,14.38 -129.46,64.74 -151.04,68.33l-10.77 3.59c-32.36,25.17 -89.91,57.53 -118.67,82.7 -28.78,28.78 -82.71,75.52 -79.12,140.26 3.6,125.86 212.17,179.81 233.76,197.79l287.7 61.14c89.91,14.38 222.96,28.77 316.46,32.36 111.48,3.6 226.56,14.38 338.05,14.38 61.13,0 115.08,-3.6 169.01,-7.19 57.54,-3.6 118.67,0 176.22,0 215.78,-3.6 435.15,-28.77 650.92,-50.34 79.12,-7.19 593.38,-89.92 611.36,-86.31 7.19,-3.61 -3.6,0 14.38,-7.19 0,0 14.38,-3.61 14.38,-3.61 17.98,-3.6 17.98,-3.6 32.36,0 10.79,-10.79 7.19,-7.19 25.18,-10.79 7.19,-3.6 17.98,-3.6 28.77,-7.19 25.17,-7.19 46.76,-10.79 71.93,-14.38 0,0 32.36,-10.79 50.34,-7.19 0,0 3.61,-3.6 3.61,-3.6 0,0 3.6,-3.6 3.6,-3.6l82.7 -17.98c10.8,-10.8 7.19,-7.19 25.18,-10.8 10.79,-3.6 21.58,-3.6 32.36,-7.19 25.17,-7.19 39.55,-14.38 64.74,-10.79 17.98,-14.38 61.13,-25.17 89.91,-25.17 14.38,-10.79 86.31,-28.78 104.29,-32.36l17.98 -3.61c10.79,-10.79 71.93,-25.17 89.91,-28.77 10.8,-14.38 35.97,-17.98 53.95,-17.98l64.74 -21.59 28.77 -10.79c14.38,-10.79 64.74,-32.36 82.71,-35.96 7.19,-7.19 57.54,-32.37 71.93,-39.56l115.08 -68.32c57.54,-35.97 71.93,-71.93 100.69,-89.91 7.19,-17.99 17.99,-39.56 28.78,-61.14 0,-100.69 -28.78,-122.27 -86.31,-161.83 -21.59,-14.38 -50.35,-28.77 -75.52,-39.55 -14.38,-7.19 -75.52,-25.17 -82.71,-32.36 -28.77,-3.6 -53.94,-10.79 -82.7,-21.59 -21.59,-3.6 -50.35,-7.19 -75.52,-17.98l-97.1 -17.98 -190.6 -25.17 -258.93 -17.99c-43.16,7.19 -158.24,-3.6 -212.17,-3.6 -68.33,0 -140.26,0 -208.59,0l-115.08 3.6 -251.79 25.22 0 0zm3020.82 -212.17c0,-291.29 -7.19,-2981.27 7.19,-3020.83 53.95,-3.6 406.38,-10.79 431.55,3.6l7.19 28.78c0,10.79 0,25.17 0,35.96l0 1050.09c0,374.02 -3.6,748.01 0,1122.02 0,374.02 0,748.01 0,1122.03 0,93.49 0,186.99 0,280.51 0,158.24 -17.98,140.25 -125.86,294.89 -75.52,111.48 -50.35,97.1 -183.41,97.1 -46.76,0 -89.91,0 -136.66,0 0,-3.62 0,-1014.15 0,-1014.15zm-17.98 1021.31c43.16,0 233.76,7.19 262.53,0 21.58,-7.19 46.76,-50.34 61.14,-71.93 17.98,-25.17 39.55,-57.53 57.53,-75.51 14.38,-43.16 86.31,-104.29 93.5,-151.05 7.19,-64.74 3.6,-640.13 3.6,-726.44 -3.6,-970.98 0,-1949.15 0,-2920.13 0,-115.09 10.8,-104.29 -43.15,-104.29 -50.35,0 -97.1,0 -147.45,0 -93.5,0 -194.2,-3.61 -287.7,0l0 4049.35 0 0zm-2366.31 -409.96c25.17,14.38 35.96,3.6 28.77,-25.17 -10.79,-3.6 -21.58,-3.6 -35.96,0l7.19 25.17zm-388.39 -25.17c0,14.38 -7.19,21.58 7.19,28.77 14.38,10.8 21.58,-3.6 25.17,-3.6 10.79,-21.58 10.79,-14.38 -3.6,-28.77 -28.76,-3.59 -10.78,-3.59 -28.76,3.6l0 0zm-899.06 -2272.82c0,14.38 0,14.38 -10.79,28.78 -3.61,3.6 -7.19,10.79 -10.8,14.38 -7.19,7.19 -3.6,3.6 -10.79,10.79 -3.6,28.78 -75.51,100.69 -100.69,111.48 -21.58,39.56 -147.44,79.12 -212.17,86.31 -75.52,0 -125.86,-7.19 -176.22,-46.75 -32.36,-25.18 -82.71,-86.31 -82.71,-143.85 -25.17,-28.77 -17.98,-147.44 0,-183.41 7.19,-43.15 25.18,-93.5 46.76,-118.67 14.38,-28.78 32.36,-61.14 57.54,-75.52 7.19,-17.98 10.79,-17.98 25.17,-32.36 0,0 10.79,-10.79 10.79,-10.79 10.79,-7.19 3.6,-3.6 14.38,-7.19l21.58 -21.59c7.19,-3.6 17.99,-10.79 25.18,-17.98 14.38,-10.79 32.36,-21.58 53.94,-21.58 7.19,-7.19 -3.6,0 14.38,-10.8 32.37,-17.98 107.9,-25.17 143.85,-21.58 61.13,0 104.29,14.38 143.84,46.76 93.5,79.12 118.67,233.75 89.91,273.3 3.6,28.78 -3.6,50.35 -10.79,75.52 -10.78,28.79 -14.38,50.37 -32.36,64.75zm-381.2 -435.14c-10.8,10.79 -25.18,17.98 -39.56,25.17 -7.19,10.79 -46.75,39.55 -61.13,46.76 -3.6,10.79 -14.38,17.98 -25.18,28.77l-32.36 32.36 -57.53 100.69c0,17.98 -3.6,17.98 -7.19,35.97 -7.19,17.98 -3.6,21.58 -14.38,32.36 0,25.17 -14.38,93.5 -14.38,86.31 0,0 0,3.6 -3.61,3.6 7.19,32.36 7.19,64.74 14.39,93.5 7.19,32.36 17.98,50.34 25.17,79.12 17.98,14.38 21.58,39.55 61.13,75.52 7.19,7.19 7.19,3.6 10.8,10.79 0,0 3.6,3.6 3.6,3.6 0,0 3.6,3.6 3.6,3.6l3.6 3.6c43.16,14.38 57.54,28.78 115.09,35.97 35.96,0 64.73,0 100.69,-3.6 28.77,-3.61 53.94,-17.99 79.11,-17.99 10.8,-10.79 0,-3.6 14.38,-10.79 3.61,-3.6 10.8,-7.19 14.38,-7.19 14.39,-7.19 17.99,-7.19 28.78,-17.98l57.53 -35.97 100.69 -111.48c7.19,-25.17 21.59,-39.55 32.37,-64.74 7.19,-17.98 17.98,-50.34 25.17,-64.73l14.38 -89.92c3.6,-107.89 -14.38,-183.41 -75.52,-244.54 -32.36,-35.97 -35.96,-39.56 -89.91,-61.14 -50.34,-17.98 -86.31,-17.98 -140.26,-14.38 -57.54,14.39 -97.1,35.98 -143.85,46.76zm2287.19 240.96c17.98,-50.35 129.47,-140.26 122.28,-194.21 -17.99,-14.38 -10.8,-10.79 -35.97,-17.98 -25.17,-7.19 -17.98,0 -25.17,-21.58 10.79,-17.99 7.19,-17.99 61.14,-14.38 57.53,0 179.8,-10.8 201.39,3.6 -3.6,25.17 -21.59,25.17 -46.76,35.96 -143.84,57.54 -212.17,222.97 -287.7,266.12 -10.79,28.77 -32.36,32.36 -64.74,143.84 -14.38,46.76 -46.76,125.87 -35.96,176.22 25.17,25.18 64.74,17.99 68.32,46.76 -32.36,32.36 -115.08,7.19 -161.82,7.19 -43.16,0 -143.85,21.59 -176.22,0 7.19,-46.75 93.5,-10.79 133.06,-115.08 82.71,-212.17 57.54,-215.78 3.6,-402.77 -53.94,-187 -93.49,-89.92 -100.69,-151.05 25.18,-25.17 111.49,-7.19 151.05,-7.19 35.97,0 129.47,-10.79 158.24,3.6 -3.6,28.77 -14.38,25.17 -43.15,32.36 -28.78,7.19 -32.37,10.79 -50.35,25.17 0,35.97 39.55,226.57 57.54,251.74 35.96,-14.39 43.15,-50.36 71.91,-68.32l0 0zm-93.5 363.2c0,-43.15 39.56,-169.02 53.95,-212.17 28.77,-68.33 71.93,-104.29 111.48,-154.64l61.14 -68.32c53.94,-57.54 79.12,-89.91 147.44,-118.68 28.78,-10.79 82.71,-25.17 57.54,-68.32 -17.98,-28.78 -93.5,-7.19 -147.45,-7.19 -61.13,0 -100.69,-14.38 -143.84,14.38 -7.19,53.94 28.77,46.75 61.14,68.32 -7.2,35.97 -143.85,204.99 -165.43,215.78 -14.38,-21.59 -53.95,-190.6 -46.76,-208.59 17.98,-21.58 71.93,-21.58 86.31,-46.75 32.36,-50.35 -43.16,-50.35 -79.12,-50.35 -50.34,3.61 -233.75,-10.79 -255.33,14.38 -32.36,43.16 28.78,53.95 46.76,64.74 25.17,14.38 35.97,57.54 43.16,89.91 14.38,50.35 53.94,169.02 53.94,215.78 0,32.36 -46.75,169.01 -61.13,204.98 -14.38,35.96 -35.97,43.15 -79.12,57.53 -28.78,7.19 -82.71,35.97 -39.56,68.33 17.99,14.38 89.91,3.6 115.09,3.6 100.69,-10.79 233.75,28.78 244.54,-25.17 17.97,-35.96 -39.58,-46.76 -64.75,-57.55l0 0zm222.97 366.82c14.38,151.05 -165.43,194.2 -183.41,208.58 3.6,32.37 97.1,233.76 136.65,266.12 32.36,21.59 75.52,14.38 86.31,39.56 3.6,25.17 -50.35,25.17 -68.33,25.17 -172.62,7.19 -187,-35.97 -244.55,-212.17 -28.77,-82.71 -32.36,-104.29 -82.7,-100.69 -14.38,17.98 -21.59,43.15 -32.37,75.51 -3.6,14.38 -7.19,25.18 -14.38,39.56l-14.38 35.96c0,32.36 -21.58,50.35 -14.38,93.5 28.78,39.55 82.71,25.17 68.33,57.54 -7.19,7.19 -21.58,10.79 -32.36,10.79l-129.47 -3.6c-43.15,0 -129.46,14.38 -161.82,0 -3.6,-50.35 68.32,-10.8 111.48,-82.71 21.58,-39.55 32.36,-115.08 50.34,-151.05l57.54 -187c10.79,-53.94 53.95,-147.44 50.34,-197.79 -35.96,-35.96 -79.12,-3.6 -86.31,-50.34 17.99,-10.8 269.72,-14.38 312.88,-10.8 107.88,3.61 176.21,43.17 190.59,143.86zm-496.28 143.85c0,21.58 -10.79,61.13 -25.17,75.51 0,14.38 3.6,3.61 -3.6,21.59 -3.6,10.79 -3.6,7.19 -7.19,10.79 0,28.77 -35.96,143.84 -50.34,179.81 -32.37,82.71 -122.28,17.98 -122.28,111.48 17.98,7.19 10.79,10.79 28.78,14.38l176.22 -3.6c32.36,0 68.32,3.6 100.69,3.6 35.96,0 53.94,0 61.13,-35.96 0,-50.35 -50.34,-25.18 -68.32,-53.95 -10.8,-17.98 35.96,-161.83 50.34,-197.79 7.19,-21.59 3.6,-14.38 21.58,-25.17 21.59,7.19 17.99,14.38 28.78,39.55l53.95 147.44c35.96,89.92 50.34,97.11 133.06,125.87 107.89,7.19 187,17.98 176.22,-68.33 -89.91,-35.96 -97.1,-7.19 -143.84,-104.29 -17.99,-35.97 -71.93,-133.07 -75.52,-169.02 28.77,-14.38 68.33,-32.36 93.5,-50.34 107.89,-82.71 115.08,-222.97 21.58,-291.29 -64.74,-50.35 -143.84,-46.76 -237.35,-39.56 -50.35,3.61 -93.5,0 -143.85,0 -46.75,0 -97.1,-7.19 -93.5,50.35 25.18,28.77 43.16,21.58 86.31,35.96 3.55,32.37 -43.19,201.4 -61.18,222.97l0 0zm-607.76 -57.54c0,32.36 -32.36,129.47 -46.76,172.62 -7.19,17.98 -10.79,39.55 -21.58,53.95 0,7.19 3.6,0 0,17.98 -3.6,17.98 -7.19,10.79 -10.79,17.98 3.6,17.98 -10.8,64.74 -25.18,79.12 -3.6,32.36 -21.58,43.15 -57.53,50.34 -61.14,39.56 -154.64,-57.53 -172.62,-82.7 -17.98,-25.18 -100.69,-143.85 -104.29,-176.22 -10.79,-7.19 0,0 -10.79,-14.38l-17.99 -43.16 68.33 -57.53c10.79,-17.99 0,-10.8 21.58,-17.99 14.39,-28.77 28.78,-28.77 46.76,-46.75 10.79,-10.79 14.38,-14.38 25.17,-21.59 17.99,-14.38 3.61,-10.79 25.18,-14.38 10.79,-17.98 17.98,-21.58 39.55,-35.96 14.38,-10.79 28.77,-17.98 43.15,-25.17 28.78,-14.38 68.33,-32.37 104.29,-28.78l10.8 -7.19c25.17,-10.79 25.17,-3.6 53.94,-25.17 17.99,7.19 14.38,10.79 35.97,21.58 17.98,7.19 28.77,7.19 43.15,14.38 0,32.37 -32.36,151.04 -50.34,169.02l0 0zm-751.61 -219.37c25.17,-17.99 61.13,-14.38 97.1,-10.8 39.55,0 190.6,-10.79 215.77,7.19 -3.6,39.56 -50.34,25.18 -82.71,46.76 -25.17,14.38 -25.17,46.76 -35.96,64.74l-10.79 21.58c3.6,17.99 -10.79,64.74 -25.17,79.12l-17.99 89.91c46.76,-3.6 50.35,-17.98 79.12,-35.96 10.79,-7.19 0,0 10.79,-3.6 10.8,-21.59 75.52,-75.52 89.92,-82.71 32.36,-53.95 118.67,-86.31 122.27,-136.65 -28.78,-21.59 -46.76,-10.8 -53.95,-43.16 21.59,-14.38 284.1,-21.58 309.27,-7.19 -3.6,21.59 3.61,21.59 -57.53,32.36 -118.67,21.59 -118.67,57.54 -183.41,86.31 -3.6,14.38 -79.12,71.93 -89.91,82.71 -25.17,21.58 -68.33,68.33 -93.5,82.71l-7.19 10.79c-14.38,43.15 93.5,194.2 115.08,222.96 25.17,35.97 50.35,71.93 86.31,93.5 86.31,57.54 104.29,25.18 140.26,25.18 10.79,-14.39 25.17,-14.39 39.55,-32.37 10.79,-14.38 17.98,-28.77 21.58,-50.34 7.19,-21.59 25.18,-93.5 35.97,-107.9l53.95 -176.22 35.96 -107.89c7.19,-43.15 25.17,-64.74 17.98,-115.08 -21.58,-10.79 -61.14,-14.38 -68.33,-39.56 14.39,-21.58 50.35,-17.98 79.12,-14.38 28.78,0 57.54,3.61 86.31,3.61 57.54,0 111.48,0 169.02,0 39.55,0 122.27,-14.38 147.45,-10.8 3.6,3.61 0,-3.6 3.6,14.38 3.6,17.99 0,-7.19 0,10.8 0,7.19 -3.6,14.38 -3.6,21.58 -10.8,43.15 -21.59,107.89 -39.56,118.67 -17.98,-10.79 -14.38,-14.38 -21.58,-43.15 -10.79,-75.52 -17.98,-79.12 -89.91,-82.71 -154.64,-3.6 -100.69,28.77 -143.85,82.71 0,25.17 -17.98,100.69 -35.96,118.67 0,28.77 -14.38,50.34 -7.19,75.52 35.96,0 125.86,3.6 151.05,-10.8 43.15,-21.58 43.15,-64.73 86.31,-71.92 0,35.96 -21.59,75.51 -32.37,111.48 -21.58,68.32 -10.79,93.5 -46.75,97.1 -32.37,-75.52 43.15,-100.69 -169.02,-89.91l-10.79 7.19c-10.79,104.29 -129.47,273.31 -14.38,280.51 100.69,7.19 179.81,10.79 233.75,-68.33 17.99,-25.17 35.97,-64.74 57.54,-53.94 17.98,32.36 -32.36,143.84 -53.95,158.23 -17.98,10.8 -381.2,3.61 -435.15,3.61l-197.79 0c-14.38,0 3.6,0 -10.79,0 -14.38,-3.61 -7.19,0 -14.38,-3.61 -28.77,7.19 -187,7.19 -212.17,-3.6 0,-39.55 21.58,-28.77 53.95,-43.15 7.19,-53.95 -64.74,-125.86 -68.33,-169.02l-14.38 -17.98c-7.19,-14.38 -7.19,-14.38 -10.79,-28.78 -25.18,-21.58 -17.99,-61.13 -57.54,-68.32 -3.6,7.19 -7.19,21.58 -10.79,32.36 -3.6,17.98 -3.6,17.98 -14.38,28.77 0,14.38 3.6,7.19 0,21.59 -7.19,32.36 0,3.6 -10.79,17.98 3.6,28.77 -32.37,129.46 -39.56,140.26 7.19,32.36 0,39.55 25.18,50.34 28.77,14.38 43.15,3.6 46.75,39.55l-25.17 7.19 -172.62 -3.6c-39.55,7.19 -86.31,10.79 -122.27,3.6 3.6,-39.55 21.58,-28.77 61.14,-43.15 39.55,-14.38 32.36,-28.77 53.94,-43.16l28.78 -86.3 43.15 -136.66 25.17 -89.91 61.14 -204.98c-10.85,-50.33 -82.76,-7.18 -71.98,-53.93l0 0zm-7.19 -866.68c0,0 0,3.58 0,0 -14.38,25.17 -10.8,28.77 -7.19,46.75 43.15,32.36 68.32,17.98 111.48,39.55 7.19,39.56 -7.19,100.69 -32.36,122.28 0,25.17 -28.78,89.91 -39.56,122.27 -3.6,7.19 -7.19,17.98 -7.19,21.59l-7.19 14.38c0,0 -3.6,3.6 -3.6,3.6 0,17.98 -3.6,25.17 -14.38,35.96l-64.74 190.6c0,0 -3.6,3.61 -3.6,3.61 -10.79,64.73 -115.08,25.17 -107.89,107.89 10.79,-3.6 3.6,0 3.6,3.6 46.75,14.38 125.86,3.6 183.41,7.19 35.96,0 100.69,14.38 115.08,-21.58 17.98,-46.76 -39.55,-46.76 -61.13,-61.14 -32.37,-10.79 -28.78,-17.98 -21.59,-53.95 3.6,-17.98 7.19,-46.75 17.98,-57.53l28.78 -97.1c7.19,-43.16 21.58,-75.52 35.96,-118.67 7.19,-17.99 10.79,-35.97 17.98,-53.95 10.8,-32.36 7.19,-32.36 21.59,-50.35 21.58,21.59 165.43,366.82 183.41,420.76 7.19,7.19 17.98,35.96 25.17,50.34 14.38,28.78 14.38,21.59 35.97,43.16 57.53,10.79 129.46,0 179.8,-14.38 46.76,28.77 64.74,17.98 129.47,14.38 46.76,-3.6 93.5,0 140.25,0 50.35,0 269.72,10.79 302.09,-3.6 39.55,-14.38 118.67,-187 53.94,-201.4 -35.96,-7.19 -57.53,64.74 -107.89,104.29 -46.76,25.18 -154.64,32.37 -212.17,17.99 -3.6,-39.56 43.15,-208.59 61.14,-248.14l133.06 3.6c14.38,64.74 -7.19,89.91 64.74,82.71 17.98,-35.96 25.17,-79.12 35.96,-122.27 14.39,-43.16 35.97,-68.33 28.78,-111.49 -57.54,-25.17 -64.74,25.18 -93.5,50.35 -28.77,25.17 -97.1,21.58 -140.26,17.98 10.8,-53.95 35.97,-129.46 53.95,-179.81 14.38,-43.15 14.38,-53.94 64.74,-53.94 32.36,0 79.12,-3.61 107.89,3.6 28.78,35.96 3.6,71.93 39.56,111.48 57.53,3.6 50.34,-35.96 61.13,-89.91 10.79,-50.35 32.36,-75.52 0,-111.48 -28.77,-7.19 -107.89,7.19 -147.44,7.19l-269.72 -3.6c-35.97,-3.61 -61.14,-7.19 -79.12,10.79 -39.56,3.6 -35.97,-10.79 -82.71,-10.79 -28.77,0 -57.54,3.6 -86.31,7.19 -43.15,0 -147.45,-25.18 -165.43,10.79 -7.19,7.19 -7.19,-7.19 -14.38,17.98 -7.19,50.34 82.71,21.58 107.9,75.52 0,57.53 -25.18,140.25 -43.16,197.79 -10.79,43.15 -32.36,151.05 -57.53,169.01l-147.45 -316.46c-17.98,-39.55 -53.95,-140.25 -79.12,-154.63 -25.17,-14.38 -172.62,-14.38 -219.37,-10.8 -7.25,3.61 -28.83,10.8 -28.83,10.8zm827.12 17.98c75.52,-7.19 172.62,0 248.14,0 35.96,0 215.77,-10.79 230.15,-7.19 3.61,35.96 -7.19,53.94 -14.38,89.91 -3.6,14.38 -7.19,28.77 -10.79,43.15 -7.19,28.78 -3.6,25.18 -21.58,28.78 -35.97,-21.59 -3.6,-104.29 -57.54,-118.67 -28.77,-7.19 -133.06,-7.19 -154.63,7.19 -25.18,17.98 -82.71,215.77 -86.31,266.11 32.36,0 125.86,3.61 147.44,-7.19 46.76,-17.98 43.16,-68.32 86.31,-71.93 14.38,28.78 -17.98,79.12 -28.77,111.49 -17.98,61.13 -14.38,93.5 -46.76,97.1 -17.98,-57.54 7.19,-89.91 -64.74,-93.5 -46.75,0 -104.29,-10.79 -122.27,28.77 -17.98,43.16 -64.74,208.59 -53.95,251.74 39.56,21.58 172.62,21.58 215.78,0 82.7,-39.55 71.92,-111.48 122.27,-111.48 7.19,46.76 -28.78,125.86 -50.35,151.05 -28.77,32.36 -129.46,14.38 -176.22,14.38 -53.94,0 -359.61,7.19 -377.6,-3.61 3.61,-46.75 61.14,-17.98 93.5,-61.13 3.61,0 7.19,0 17.99,-17.98 14.38,-28.78 71.93,-215.78 82.7,-251.74 17.99,-57.54 82.71,-244.55 75.52,-294.89l-68.33 -28.78c7.23,-28.77 3.65,-14.39 14.42,-21.58l0 0zm-122.26 607.75l-10.79 0 -28.77 14.38c-43.16,14.38 -71.93,32.36 -89.91,28.78 -14.38,-39.56 -61.14,-43.16 -43.16,-107.9 3.6,-17.98 35.97,-111.48 39.56,-118.67l46.75 -136.65c7.19,-43.16 50.35,-172.62 68.33,-201.4 17.98,-25.17 50.34,-28.77 89.91,-39.55 28.77,-10.79 50.34,10.79 93.5,21.58 0,32.37 -46.76,197.8 -61.14,212.18 -7.19,68.32 -86.31,255.34 -104.28,327.25l0 0zm-140.25 46.76l3.6 17.98c-10.79,7.19 -3.6,3.6 -14.38,7.19 -53.95,3.6 -125.86,25.17 -154.64,-14.38 -17.98,-25.17 -46.75,-93.5 -57.53,-125.86 -17.98,-46.76 -104.29,-230.16 -104.29,-258.93 -32.36,-32.36 -39.56,-104.29 -71.93,-133.07 -10.79,7.19 0,0 -10.79,10.8 0,0 -7.19,10.79 -7.19,10.79l-107.9 334.44c0,61.14 -53.94,115.09 32.37,140.26 28.77,7.19 32.36,3.6 43.15,21.58 -17.98,32.37 -93.5,14.38 -129.46,14.38 -39.56,0 -107.9,7.19 -140.26,-3.6 3.6,-21.58 3.6,-21.58 25.17,-28.77 140.26,-53.95 86.31,-125.86 143.85,-215.78 28.77,-118.67 140.25,-330.85 97.1,-377.6 -32.36,-35.96 -97.1,-3.6 -104.29,-53.94 21.58,-14.38 204.98,-14.38 226.56,3.6 25.17,17.98 208.59,474.7 237.36,496.28 25.17,-17.98 25.17,-61.13 43.15,-93.49 14.38,-71.93 46.76,-154.64 64.74,-233.76 46.76,-197.79 -104.29,-100.69 -89.91,-169.02 35.97,-21.58 104.29,-3.6 147.45,-3.6 43.15,0 107.89,-17.98 140.25,3.6 -14.38,50.35 -68.32,-3.6 -111.48,75.52 -35.96,68.33 -115.08,381.2 -143.84,409.98 0,35.96 -21.59,61.13 -7.19,100.69 7.17,28.74 35.93,61.11 50.33,64.71l0 0zm974.57 499.87c3.6,-32.36 64.74,-240.95 75.52,-258.93 21.58,-28.77 57.53,-7.19 71.93,10.79 50.34,61.14 28.76,255.33 -147.45,248.14l0 0zm14.38 -122.27c0,46.75 -35.96,89.91 -32.36,140.25 57.54,21.59 104.29,-3.6 140.26,-32.36 46.75,-39.55 43.15,-50.34 68.32,-115.08 7.19,-75.52 -21.58,-158.24 -93.5,-154.64 -61.13,3.59 -53.94,118.67 -82.72,161.83zm-248.13 1769.34c68.32,-25.18 97.1,93.5 35.96,115.08 -75.52,25.17 -107.89,-86.31 -35.96,-115.08zm-21.59 -17.99c-7.19,10.8 -21.58,25.18 -32.36,35.97 0,32.36 -7.19,46.75 3.6,82.71 7.19,3.6 7.19,10.79 17.98,21.58 7.2,7.19 14.39,7.19 25.18,14.38 53.94,3.6 46.75,-7.19 75.51,-14.38 10.8,-28.77 35.97,-68.33 10.8,-111.48 -21.59,-32.36 -57.55,-39.57 -100.71,-28.78l0 0zm-2963.27 -2754.7l0 0c35.96,21.58 79.12,25.17 115.08,46.75 0,32.37 -10.79,61.14 -25.17,86.31 -10.79,28.78 -35.96,86.31 -57.54,104.3 0,17.98 3.61,7.19 -7.19,10.79 -3.6,25.17 -21.58,68.32 -39.55,82.71 -3.6,25.17 -64.74,143.84 -82.71,176.22 -14.38,21.58 -17.98,39.55 -39.55,50.34 -10.79,25.17 -39.55,32.36 -61.14,43.15 -46.75,14.39 -50.34,7.2 -61.13,53.95 50.34,35.97 71.93,14.38 172.62,14.38 57.53,0 136.65,17.98 136.65,-46.75 -14.38,-21.59 -32.36,-21.59 -57.53,-35.97 0,-28.77 7.19,-82.71 25.17,-104.29 7.19,-25.17 100.69,-262.53 133.06,-280.51l10.8 442.34c17.98,89.91 75.51,-3.61 93.5,-14.38l71.92 -100.69c0,0 3.61,0 3.61,-3.61 7.19,-14.38 7.19,-14.38 17.98,-28.77 3.6,-3.6 3.6,-3.6 7.19,-7.19 10.79,-7.19 0,-3.6 7.19,-7.19 10.79,-25.17 3.6,-10.79 21.58,-28.77 7.19,-10.8 10.79,-17.99 21.59,-25.18 7.19,-10.79 14.38,-14.38 21.58,-25.17l21.58 -21.58c10.8,-21.59 115.09,-136.66 125.87,-147.45 0,14.38 -35.97,169.02 -50.35,190.6 0,17.98 0,21.59 -7.19,43.16 0,3.6 -3.6,14.38 -7.19,17.98 -10.79,21.58 -3.6,10.79 -10.79,17.98 7.19,71.93 -64.74,89.91 -118.67,107.89 -7.19,68.33 25.17,61.14 89.91,53.95 50.34,-3.6 93.5,-7.19 147.45,-3.6l17.98 0 86.31 3.6c3.6,-3.6 7.19,-7.19 10.79,-10.79 7.19,-7.19 3.6,-3.6 10.79,-10.79 10.79,-10.8 7.19,-21.59 7.19,-35.97 -39.55,-28.77 -53.95,-14.38 -64.74,-39.55 -14.38,-35.97 7.19,-75.52 10.79,-107.89l14.38 -61.14 53.95 -219.38 10.79 -39.55c3.61,-25.17 10.8,-61.14 25.18,-71.93 10.79,-25.17 7.19,-25.17 35.96,-35.96 17.98,-7.19 32.36,-10.79 50.34,-10.79 10.8,-10.8 7.2,-7.19 17.99,-14.38 25.17,-21.59 25.17,-25.18 14.38,-57.54 -32.37,-10.79 -46.76,-10.79 -82.71,-7.19l-154.64 14.38c0,0 0,3.6 -3.6,3.6l-32.36 43.16c-3.6,21.58 -35.97,68.32 -53.95,75.51 -3.6,17.99 -28.77,39.56 -43.15,61.14 -14.38,17.98 -32.36,46.76 -50.35,57.54 -3.6,21.58 -7.19,17.98 -21.58,35.96 -14.38,17.98 -10.79,17.98 -28.78,32.36 -3.6,17.98 -7.19,14.38 -28.77,43.16l-93.5 104.29c-7.19,-7.19 -10.79,-3.6 -14.38,-39.55 -3.6,-50.35 -10.79,-230.16 -3.6,-255.33 -7.19,-14.38 -7.19,-28.77 -7.19,-50.34 0,-25.18 0,-68.33 -7.19,-93.5 -3.6,-10.8 -3.6,-7.19 -10.79,-14.38 0,0 -7.19,-7.19 -7.19,-7.19 0,0 -3.61,0 -3.61,-3.61 0,-3.6 -3.6,-3.6 -3.6,-3.6l-97.1 0 -147.44 0 0 0c-21.64,14.4 -28.83,21.59 -25.23,53.95zm733.63 625.75c-3.6,32.36 -3.6,25.17 -35.97,32.36 -46.75,0 -97.1,-7.19 -147.44,-7.19 -43.16,0 -118.68,21.58 -154.64,0 0,-25.17 7.19,-21.58 35.96,-32.36 93.5,-28.78 68.33,-75.52 93.5,-104.29l46.76 -169.02 21.58 -89.91 17.99 -79.12c-10.8,3.6 -14.38,3.6 -21.59,10.79 -7.19,21.58 -57.53,71.93 -75.51,97.1 -14.38,17.98 -25.18,28.78 -43.16,46.76 -17.98,21.58 -17.98,32.36 -43.15,46.76 -3.61,10.79 -107.9,140.25 -133.07,158.23 -3.6,10.8 -82.71,129.47 -100.69,133.07 -28.77,7.19 -14.38,-3.6 -17.98,-10.79 -10.79,-14.38 -10.79,-248.14 -7.19,-280.51 -25.17,-43.16 7.19,-179.81 -17.98,-226.57 -17.99,7.19 -10.8,7.19 -21.59,28.77l-53.94 100.69c0,32.37 -100.69,226.57 -104.3,284.1 -3.6,64.74 39.56,39.56 57.54,71.93 -17.98,32.37 -86.31,17.99 -125.86,17.99 -43.16,0 -115.09,17.98 -147.45,-3.61 3.6,-25.17 -7.19,-10.79 50.35,-32.36 111.48,-43.15 151.04,-212.17 233.75,-356.03 21.59,-57.53 61.14,-111.48 82.71,-169.01 35.96,-107.9 -100.69,-57.54 -107.89,-115.09 35.96,-21.58 147.44,-7.19 197.79,-7.19 25.17,0 39.55,0 61.13,10.79 17.99,64.74 17.99,384.79 21.59,474.7 46.75,-14.38 93.5,-107.89 125.86,-118.67 3.6,-14.38 136.65,-183.41 147.45,-187l50.34 -68.32c0,0 3.6,0 3.6,-3.61 7.19,-17.98 17.98,-28.77 28.78,-46.75 7.19,-10.79 17.98,-28.78 25.17,-35.97 21.58,-39.55 57.53,-25.17 107.89,-25.17 32.36,0 89.91,-14.38 118.67,3.6 0,25.18 -7.19,25.18 -35.96,32.37 -17.98,3.6 -32.36,7.19 -50.35,14.38 -43.15,21.58 -25.17,43.15 -53.94,75.51 0,25.18 -10.79,50.35 -17.98,75.52 -14.38,53.93 -14.38,61.12 -25.18,79.11 3.61,21.58 -7.19,61.13 -17.98,75.51 3.6,25.18 -3.6,32.37 -7.19,53.95 -3.6,21.58 -7.19,39.55 -14.38,50.34 7.19,89.92 -71.93,165.43 53.95,194.21l0 0zm917.04 2143.35c68.32,-28.78 97.1,97.1 35.96,118.67 -75.53,25.17 -104.3,-89.91 -35.96,-118.67zm-61.14 39.55c-3.6,75.52 10.79,68.33 46.76,104.29 39.55,-3.6 50.34,3.6 68.32,-25.17 35.97,14.38 -10.79,10.79 32.37,17.98 3.6,-32.36 0,-71.93 0,-107.89 0,-28.78 10.79,-93.5 -10.8,-111.48 -25.17,17.98 -7.19,32.36 -10.79,86.31 -25.17,-10.8 -39.55,-32.37 -79.12,-17.99 -25.17,7.19 -32.36,25.18 -46.74,53.95zm996.14 -64.74c-3.6,3.6 3.61,0 -10.79,7.19l-10.79 3.6c-21.58,7.19 -3.6,-7.19 -17.98,10.8 0,0 3.6,0 3.6,3.6 0,0 3.6,0 3.6,0l14.38 3.6c0,0 3.6,0 3.6,0 0,0 3.61,0 3.61,3.6l7.19 3.6c7.19,14.38 3.6,93.5 3.6,118.68 17.98,3.6 53.94,3.6 75.51,3.6l-3.6 -14.38 -46.75 -7.19c-3.61,-10.8 -10.8,-100.69 3.6,-104.29l28.77 -7.19c17.98,-3.61 7.19,3.6 21.59,-7.2 -10.8,-17.98 -3.61,-7.19 -57.54,-10.79 0,-32.36 10.79,-57.53 -17.98,-64.74 -14.38,17.99 -3.6,10.8 -7.19,43.16 3.57,21.56 7.18,7.16 3.57,14.35l0 0zm-172.61 104.29l-3.61 28.78c-17.98,7.19 -17.98,0 -46.75,7.19l-10.8 3.6c14.39,14.38 3.61,10.79 61.14,10.79 25.17,0 46.76,0 71.93,-3.6l-3.6 3.6 -3.6 -17.98 -46.76 -3.6 0 -79.12c0,-28.78 0,-32.36 -3.6,-50.35l-61.14 3.61c7.19,25.17 17.98,7.19 46.76,17.98l0.03 79.1 0 0zm-1316.21 -97.08c-14.38,-3.61 -46.76,-7.19 -64.74,3.6 7.19,7.19 -14.38,7.19 21.58,14.38 7.19,0 17.98,0 25.17,0 7.19,28.77 7.19,89.91 -3.6,111.48 -28.77,14.38 -39.55,-7.19 -50.34,17.98 3.6,3.6 115.08,17.98 129.46,-10.79l-53.95 -7.19c0,-39.57 7.19,-97.1 -3.58,-129.46zm-381.21 0c-21.58,0 -46.75,-3.61 -64.73,3.6 10.79,10.79 -28.78,7.19 43.15,14.38 7.19,32.36 3.6,82.71 0,115.08 -17.98,0 -39.55,0 -53.95,7.19 10.8,14.38 35.97,10.79 61.14,10.79 21.59,0 46.76,3.61 64.74,-3.6 -10.79,-25.17 -14.38,-7.19 -39.55,-14.38 -28.78,-10.8 3.59,-61.15 -10.8,-133.06zm-2488.58 -82.73c14.38,3.61 79.12,21.59 89.91,39.56 -25.17,32.36 -82.71,17.98 -93.5,61.13 17.98,28.78 50.34,25.18 93.5,43.16 -10.79,50.34 -79.12,14.38 -93.5,68.33 21.58,32.36 75.52,21.58 93.5,53.94 -14.38,17.98 -172.62,50.35 -46.76,89.91 53.95,17.99 39.55,7.19 46.76,25.18 -7.19,7.19 0,7.19 -25.17,17.98 -10.8,3.6 -17.99,3.6 -25.18,7.19 -25.17,10.79 -35.96,10.79 -43.15,35.96 28.77,32.37 75.52,25.18 97.1,53.95 -21.58,28.77 -93.5,17.98 -93.5,53.95 0,32.36 71.93,32.36 93.5,53.94 -7.19,17.99 3.6,10.8 -21.58,21.59 -21.59,7.19 -53.95,10.79 -71.93,32.36 7.19,53.95 75.51,25.17 93.5,68.33 -10.8,14.38 -3.61,7.19 -28.78,14.38 -43.15,14.38 -115.08,43.15 -21.58,68.32 39.55,10.8 35.96,3.61 50.34,21.59 -10.79,21.58 -7.19,14.38 -50.34,28.77 -25.17,7.19 -32.36,10.79 -43.16,32.36 17.99,32.37 35.97,25.18 71.93,39.56l21.59 14.38c-25.18,35.96 -71.93,14.38 -93.5,53.94 25.17,-7.19 57.53,-28.77 89.91,-28.77 53.95,-61.14 -64.74,-43.15 -79.12,-86.31 32.36,-21.58 75.52,-17.98 93.5,-46.76 -10.79,-50.34 -68.33,-21.58 -89.91,-61.13 17.98,-25.17 68.32,-32.36 89.91,-43.16 -3.6,-46.75 -17.98,-28.77 -93.5,-61.13 14.38,-50.35 89.91,-10.8 93.5,-75.52 -25.17,-17.98 -68.33,-17.98 -89.91,-43.16 14.38,-21.58 68.32,-28.77 93.5,-43.15 -7.19,-39.55 -28.78,-35.96 -93.5,-61.14 14.38,-46.75 86.31,-10.79 93.5,-75.51 -50.35,-21.59 -79.12,-21.59 -89.91,-46.76 21.58,-28.77 61.13,-14.38 93.5,-53.95 -28.78,-43.15 -61.14,-21.58 -93.5,-53.94 10.79,-39.56 71.92,-14.38 89.91,-61.14 -14.38,-35.97 -39.56,-25.17 -71.93,-39.55 -28.78,-10.8 -14.38,0 -21.59,-21.59 32.37,-21.58 79.12,-17.98 93.5,-50.34 -14.38,-28.78 -64.74,-39.56 -93.5,-50.35 -21.55,-3.59 -10.76,-14.38 -14.36,3.6zm3955.84 187.02c-28.77,-86.31 79.12,-118.67 100.69,-50.35 28.78,93.5 -82.71,111.47 -100.69,50.35zm97.1 -93.52c-25.17,-3.6 -46.75,-25.17 -82.7,-7.19 -28.78,14.38 -25.18,35.97 -43.16,57.54l0 35.96c14.38,21.59 14.38,43.16 46.76,57.54 35.96,14.38 61.13,0 75.51,-17.98 25.18,14.38 -21.58,-14.38 7.2,7.19 7.19,7.19 3.6,7.19 14.38,10.79l7.19 -7.19c0,-35.97 0,-75.52 0,-111.48l0 -79.12c0,-3.6 0,-3.6 0,-3.6l-3.61 -14.38c-17.98,7.19 -7.19,-3.61 -14.38,14.38l0 64.73c-10.79,3.61 -3.6,0.02 -7.19,-7.19l0 0zm-3747.26 -3765.23c-7.19,32.37 -7.19,187 0,212.17 61.14,14.39 46.76,-7.19 46.76,-140.25l0 -71.93c-21.59,-7.19 -28.78,-7.19 -46.76,0.01zm1938.36 3689.72c-21.59,7.19 -17.98,14.38 -14.38,43.15 0,197.79 -25.18,172.62 75.51,172.62 21.59,0 43.16,3.6 61.14,-3.6 -3.6,-10.79 7.19,-10.79 -17.98,-14.38 -3.6,0 -28.78,0 -32.36,0 -25.18,0 -43.16,3.6 -64.74,-7.19 0,0 -7.19,-190.6 -7.19,-190.6zm2265.62 201.39l14.38 14.38c32.36,0 97.1,10.79 118.67,-7.19l-3.6 -10.79 -43.15 -3.6 -7.19 -35.97c0,-28.77 3.6,-71.93 -3.6,-89.91 -14.38,-7.19 -32.37,-7.19 -53.95,-3.6 -10.79,7.19 -10.79,-10.79 -10.79,17.98l43.15 3.6c7.19,25.17 7.19,86.31 -3.6,111.48l-50.32 3.62 0 0zm-4236.34 -3678.94c14.38,-21.58 7.19,-125.86 7.19,-172.61 0,-25.18 7.19,-35.97 -10.79,-46.76 -10.79,3.6 -14.38,-14.38 -14.38,46.76l0 125.86c0,35.96 -7.21,46.75 17.98,46.75zm-140.26 0c32.37,7.2 21.59,-17.98 21.59,-104.29 0,-21.58 0,-43.15 0,-64.74 0,-64.73 -3.6,-46.75 -21.59,-46.75 -14.38,25.17 -7.19,75.52 -7.19,107.89l7.19 107.89zm287.69 0l17.98 3.61 3.61 -219.38 -21.59 0c-10.79,25.17 -3.6,115.09 -7.19,161.83l0 39.55c3.6,14.39 3.6,7.2 7.19,14.39zm-453.12 -122.27l0 122.27c35.97,0 25.18,-39.55 25.18,-118.67l0 -100.69c-35.97,3.59 -25.18,3.59 -25.18,97.09zm2963.29 2078.61c7.19,-25.17 46.76,-71.93 64.74,-93.5 17.98,-21.58 50.35,-71.93 75.52,-82.7l-39.55 176.22 -100.71 -0.02zm104.29 -176.2c-7.19,35.96 -136.65,161.82 -143.84,201.39l143.84 0c17.99,-28.78 17.99,-50.35 21.59,-61.14l10.79 -53.94 28.78 -147.45c-25.2,7.19 -25.2,39.55 -61.16,61.14zm3452.37 -1384.55c17.99,7.19 17.99,7.19 14.38,28.77 14.38,-3.6 3.61,3.6 14.38,-10.79 0,0 7.2,-17.98 10.8,-21.59l43.15 0c-21.58,-28.77 -21.58,-28.77 3.6,-64.73 -43.15,7.19 -43.15,7.19 -57.53,-32.37 -25.17,39.56 -3.6,35.97 -61.14,28.78 17.98,21.58 28.78,32.36 7.19,57.53 0,0 3.6,0 3.6,3.6 3.59,10.8 7.18,-7.19 21.57,10.8zm-3607.02 3096.34c0,-10.79 -3.6,-7.19 -7.19,-14.38l-25.17 3.6 0 28.77 28.78 0c3.58,-10.79 3.58,-3.6 3.58,-17.99zm866.7 201.39l133.06 -3.6c-14.38,-43.16 -39.55,-7.19 -107.89,-25.17l0 -71.93 97.1 -3.61 7.19 -17.98 -104.29 -3.6 0 -71.93 82.71 -3.6c17.98,-3.6 10.79,0 21.58,-14.38 -7.19,-3.6 -3.6,-3.6 -14.38,-7.19l-118.67 0 3.59 222.99zm-1129.21 -133.05c68.33,-17.98 25.17,89.91 43.15,133.06 28.78,-7.19 14.38,-28.77 14.38,-64.74l7.19 -64.73c46.76,-14.38 46.76,0 43.16,46.75 0,71.93 -7.19,75.52 14.38,82.71 21.58,-21.58 14.38,-125.86 -7.19,-147.45 -32.36,-14.38 -43.16,3.61 -64.74,10.8 -46.76,-32.37 -10.79,0 -82.71,-14.38 0,25.17 -7.19,133.06 7.19,151.04 39.57,-10.8 10.81,-71.94 25.19,-133.06zm-2592.88 -3560.27c7.19,-10.79 7.19,14.39 7.19,-50.34l0 -143.84c-3.6,-28.78 0,-14.38 -7.19,-21.59 -10.78,14.38 -14.38,194.2 0,215.77zm151.05 -129.46l0 100.69c0,28.77 -3.6,14.38 10.79,25.17 10.79,-25.17 3.6,-161.82 3.6,-212.17 -7.19,3.6 -10.79,-14.38 -10.79,32.36 -3.6,17.99 -0.01,35.97 -3.6,53.95zm291.29 129.46l43.15 0c7.19,-28.77 7.19,-186.99 0,-219.37l-46.75 0c0,43.15 -3.59,187.01 3.6,219.37zm-575.39 -143.84c0,172.62 -10.79,147.45 50.34,147.45l3.6 -215.78c-68.34,-7.2 -53.94,-7.2 -53.94,68.33zm3143.09 3826.37c14.38,17.98 50.35,7.19 68.33,10.79 -3.6,-21.58 17.98,-17.98 -50.34,-21.58l0 -115.09c32.36,0 39.55,3.6 57.53,-7.19 -10.79,-14.38 7.19,-10.79 -61.14,-10.79 0,-10.79 3.61,-35.96 0,-43.15 -3.6,-25.18 0,-17.99 -21.58,-21.59l-3.6 64.74c-25.17,3.6 -35.97,-3.6 -46.76,10.79 14.38,10.79 21.59,7.19 43.16,7.19 10.8,39.57 0.01,93.52 14.4,125.88zm-2977.66 -3894.7l-3.61 165.43c0,50.35 -3.6,50.35 50.35,46.76l0 -215.77c-21.57,-0.02 -32.36,-3.62 -46.74,3.58z"/>
   </g>
  </g>
 </g>
</svg>
