<?xml version="1.0" encoding="UTF-8"?>
<!DOCTYPE svg PUBLIC "-//W3C//DTD SVG 1.0//EN" "http://www.w3.org/TR/2001/REC-SVG-20010904/DTD/svg10.dtd">
<!-- Creator: CorelDRAW -->
<svg xmlns="http://www.w3.org/2000/svg" xml:space="preserve" width="84mm" height="53mm" version="1.0" style="shape-rendering:geometricPrecision; text-rendering:geometricPrecision; image-rendering:optimizeQuality; fill-rule:evenodd; clip-rule:evenodd"
viewBox="0 0 8400 5300"
 xmlns:xlink="http://www.w3.org/1999/xlink"
 xmlns:xodm="http://www.corel.com/coreldraw/odm/2003">
 <defs>
  <style type="text/css">
   <![CDATA[
    .fil0 {fill:#373435}
   ]]>
  </style>
 </defs>
 <g id="Слой_x0020_1">
  <metadata id="CorelCorpID_0Corel-Layer"/>
  <g id="_105553256302880">
   <g id="Слой_x0020_1_0">
    <g id="_2394566742512">
     <path class="fil0" d="M3492.8 5197.17c36.18,-61.5 -57.88,-104.91 -86.82,-57.88 -43.41,68.72 50.64,115.75 86.82,57.88z"/>
     <path class="fil0" d="M3684.53 4954.8c-54.27,-39.79 -104.91,-3.62 -79.59,43.41 18.09,47.02 94.05,32.55 79.59,-43.41z"/>
     <path class="fil0" d="M3984.77 1333.71l14.47 50.64 43.41 3.63 25.32 -18.09c0.01,-83.21 -39.79,-65.12 -83.2,-36.18z"/>
     <path class="fil0" d="M4578.04 1189c14.47,3.63 39.79,7.24 61.5,7.24 7.23,-21.72 14.46,-32.56 7.23,-61.5 -25.32,-18.09 -47.03,-14.47 -72.35,3.62 0.01,0 3.62,50.64 3.62,50.64z"/>
     <path class="fil0" d="M4209.06 4253c36.18,0 32.56,-3.62 50.65,-18.09l-3.63 -50.64c-61.49,-21.7 -101.28,21.71 -47.02,68.73z"/>
     <path class="fil0" d="M3434.92 2147.64c50.65,-3.63 54.27,-18.09 43.41,-65.12l-47.03 -7.24c-21.7,36.18 -25.32,39.8 3.62,72.36z"/>
     <path class="fil0" d="M5218.33 2328.51c10.85,-28.95 10.85,-21.71 0,-50.64 -79.57,-18.09 -79.57,72.35 0,50.64z"/>
     <path class="fil0" d="M4400.79 754.91c-3.62,7.23 -10.85,-14.47 -7.23,21.71 3.62,39.78 36.18,28.94 47.03,18.09 18.08,-21.72 3.61,-57.89 -39.8,-39.8z"/>
     <path class="fil0" d="M3821.99 4820.95l39.78 -7.24 -3.62 -47.03c-57.86,-14.46 -50.63,28.95 -36.16,54.27z"/>
     <path class="fil0" d="M5019.37 219.53l3.62 -32.56c0,0 -47.03,-28.94 -50.64,14.47 0,7.23 7.23,39.8 47.02,18.09z"/>
     <path class="fil0" d="M4979.58 2281.49c-3.62,36.18 -3.62,61.5 39.79,43.41 14.46,-25.32 10.85,-10.86 0,-36.18l-39.79 -7.23z"/>
     <path class="fil0" d="M3861.79 3815.29l0 0 -43.41 -3.62c-3.63,28.94 -7.23,43.41 18.09,47.03 28.93,3.61 21.69,-21.71 25.32,-43.41z"/>
     <path class="fil0" d="M4780.62 787.47c25.32,21.72 21.71,21.72 47.04,0l-3.63 -36.17 -32.55 0 -10.86 36.17z"/>
     <path class="fil0" d="M4433.35 4043.2l3.62 -39.79c-68.75,-7.25 -50.66,50.63 -3.62,39.79z"/>
     <path class="fil0" d="M4986.82 3272.67c0,0 10.85,14.46 25.32,0 21.71,-25.33 -3.63,-32.56 -3.63,-32.56 -28.93,7.23 -36.16,3.62 -21.69,32.56z"/>
     <path class="fil0" d="M4209.06 2314.04c72.35,47.02 14.47,-90.44 0,0z"/>
     <path class="fil0" d="M4010.11 3276.29c47.03,3.62 65.12,-28.95 3.62,-32.56l-3.62 32.56z"/>
    </g>
    <g id="_2394566737040">
     <path class="fil0" d="M3550.67 2502.15c14.47,21.71 3.63,10.85 28.95,25.32l112.14 50.64c18.09,-21.71 47.03,-43.41 39.79,-90.44 -3.63,-28.95 -25.33,-61.5 -50.65,-72.36 -68.73,-36.16 -122.98,21.73 -130.23,86.84z"/>
     <path class="fil0" d="M4321.21 2693.87c18.08,25.33 21.71,54.27 47.03,68.74 28.94,18.08 68.73,18.08 97.67,0 72.36,-39.79 32.56,-115.77 10.86,-159.18l-25.32 14.47c0,0 -14.47,10.85 -14.47,10.85l-36.17 21.71c-3.63,0 -3.63,3.63 -7.24,3.63 -3.62,0 -3.62,3.62 -7.23,3.62 -3.62,0 -3.62,0 -7.23,3.62 -32.58,18.08 -32.58,10.85 -57.9,32.54z"/>
     <path class="fil0" d="M3930.52 2675.79c28.94,25.32 50.64,25.32 86.82,36.17 32.55,10.86 61.5,28.95 94.05,21.71 18.09,-36.17 10.86,-36.17 14.46,-72.35 -10.85,-36.18 3.63,-3.62 -18.08,-32.55l-21.72 -25.32c0,-3.63 -3.62,-3.63 -7.23,-7.24 -14.46,39.79 -28.94,-21.71 -94.05,14.47 -36.16,18.09 -36.16,54.25 -54.25,65.11z"/>
     <path class="fil0" d="M3756.88 3070.1c18.09,32.55 7.23,14.46 36.18,39.78 3.62,3.63 14.46,18.09 18.09,18.09 18.08,18.09 0,3.62 25.32,18.09 195.33,-54.27 -28.95,-267.69 -79.59,-75.96z"/>
     <path class="fil0" d="M5391.97 2574.5c25.32,-21.71 14.46,-21.71 18.09,-28.94 10.85,-18.09 7.23,-14.47 14.46,-28.95 10.86,-18.09 21.71,-39.78 25.32,-68.73 -39.78,-25.32 -108.53,-47.03 -133.85,18.09 -25.31,68.73 25.33,90.44 75.98,108.53z"/>
     <path class="fil0" d="M4541.86 2541.95c32.56,25.32 79.59,54.26 123,14.46 43.41,-39.78 21.71,-75.96 7.23,-130.23 -21.71,10.86 0,-3.62 -21.71,10.86l-28.94 25.32c-54.27,36.18 47.03,-28.94 -18.09,10.86 -61.49,36.16 -54.25,43.39 -61.49,68.73l0 0z"/>
     <path class="fil0" d="M3677.29 2968.8c25.32,-36.18 43.41,-10.86 57.88,-86.82l-28.95 -28.95c-25.32,-14.46 -47.03,-14.46 -75.96,-14.46 -39.79,0 -68.73,-7.23 -94.05,10.85 32.55,32.56 3.62,-14.46 72.35,54.27 0,0 68.73,65.11 68.73,65.11z"/>
     <path class="fil0" d="M4773.39 3468.02c28.94,25.32 36.18,25.32 65.12,0l0 -43.41c-47.03,-14.47 -68.74,-10.86 -65.12,43.41z"/>
     <path class="fil0" d="M3427.69 4813.71l36.18 -3.62c0,0 3.62,0 7.23,0 3.62,-47.03 -3.62,-54.26 -47.03,-43.41l3.62 47.03 0 0z"/>
     <path class="fil0" d="M3239.57 2317.65c36.18,7.24 10.86,10.86 32.56,-3.62 -7.24,-47.02 -39.79,-39.79 -32.56,3.62z"/>
    </g>
    <g id="_2394566736624">
     <path class="fil0" d="M3084.02 3779.12c-65.12,28.94 -159.17,-159.18 50.65,-177.27 256.83,-18.08 173.63,83.2 195.35,177.27l7.23 10.85c43.41,-43.41 18.09,-177.26 -39.79,-202.58 -50.64,-21.71 -191.72,-18.09 -245.99,3.62 -123,50.64 -119.37,264.08 180.87,224.28l-141.08 -25.32c25.32,-47.03 18.08,-97.67 -18.09,-141.08 7.24,50.64 25.33,86.82 10.85,130.23l0 0z"/>
     <path class="fil0" d="M313.04 4665.4c7.23,-7.24 7.23,-7.24 14.46,-14.47 3.63,-7.23 7.24,-10.85 10.86,-18.09 79.59,-155.55 112.14,-253.22 224.28,-423.24l97.68 -144.69c-148.32,65.11 -311.1,455.79 -347.28,600.49l0 0z"/>
     <path class="fil0" d="M356.45 3663.35c10.85,-7.23 7.23,-3.62 14.46,-14.46l137.47 -209.82c83.19,-126.6 112.14,-130.23 184.49,-191.73 -166.39,18.09 -293.01,293.03 -336.42,416.01z"/>
     <path class="fil0" d="M1821.53 3609.1c-10.85,32.55 -28.94,54.27 -36.17,97.68 -10.86,61.49 7.23,72.35 14.46,112.14 7.24,-115.77 39.79,-191.73 141.09,-260.46 36.17,-25.32 68.73,-32.56 83.19,-50.64 -68.73,14.46 -133.85,43.41 -180.87,90.44l-14.46 10.85c-3.63,-3.63 -7.24,-0.01 -7.24,-0.01z"/>
     <path class="fil0" d="M776.08 3507.8c21.71,36.18 25.32,94.05 7.23,133.85 -79.58,155.55 57.88,115.77 39.79,-28.94 -7.23,-43.41 -28.93,-79.59 -47.02,-104.91z"/>
    </g>
    <g id="_2394568400000">
     <path class="fil0" d="M4357.38 3377.57c-10.85,28.95 -28.94,47.04 -28.94,94.05 57.87,170.02 267.69,3.63 148.32,-90.44 -47.04,-39.78 -90.45,-10.84 -119.38,-3.61z"/>
     <path class="fil0" d="M3749.65 2520.24c25.32,104.9 209.81,72.35 173.64,-50.65 -28.95,-104.9 -206.21,-72.35 -173.64,50.65z"/>
     <path class="fil0" d="M4639.54 2965.19c57.87,-36.18 50.64,-36.18 68.73,-112.14 -25.32,-25.32 -28.95,-54.27 -68.73,-65.12 -47.03,-10.86 -83.2,7.23 -101.29,36.17 -50.64,79.59 10.85,144.7 101.29,141.09z"/>
     <path class="fil0" d="M4592.51 2603.43c-47.04,14.47 -86.82,47.03 -65.13,112.14 10.86,39.79 61.5,75.97 119.38,54.27 108.54,-39.79 50.65,-202.57 -54.25,-166.41z"/>
     <path class="fil0" d="M3749.65 2140.41c25.32,97.67 202.58,72.35 173.64,-54.27 -21.72,-101.29 -209.82,-75.96 -173.64,54.27z"/>
     <path class="fil0" d="M4975.96 2603.43c-43.41,14.47 -83.2,43.41 -65.12,112.14 14.46,43.41 61.5,75.97 119.37,57.88 104.92,-36.17 61.51,-209.8 -54.25,-170.02z"/>
     <path class="fil0" d="M3999.25 1840.15c-115.76,47.03 -43.41,202.58 65.12,166.4 104.89,-36.17 54.25,-217.05 -65.12,-166.4z"/>
     <path class="fil0" d="M4201.82 3746.56c-119.37,36.18 -68.73,198.96 50.64,170.02 112.15,-25.32 65.12,-202.57 -50.64,-170.02z"/>
     <path class="fil0" d="M4639.54 3156.92c86.82,-47.04 83.19,-126.61 0,-177.27 -68.73,-3.62 -115.77,18.09 -119.38,83.2 0,72.35 50.65,97.67 119.38,94.07z"/>
     <path class="fil0" d="M4010.11 3938.29c-119.38,32.55 -75.97,202.58 47.03,170.01 108.52,-25.32 65.11,-202.58 -47.03,-170.01z"/>
     <path class="fil0" d="M4483.99 3193.09c-36.18,-21.71 -39.79,-21.71 -90.44,-21.71 -170.02,97.68 28.94,253.23 101.28,137.46 28.94,-43.41 7.25,-83.19 -10.84,-115.75z"/>
     <path class="fil0" d="M4332.05 3106.27c0,0 14.46,21.71 21.71,25.32 18.09,18.09 14.46,10.86 32.55,25.33 112.14,10.85 166.41,-79.59 101.29,-144.7 -65.11,-72.35 -170.02,-28.94 -155.55,94.05z"/>
     <path class="fil0" d="M4379.08 2802.41c-25.32,14.46 -32.55,7.23 -43.41,43.41 -28.94,86.81 57.88,155.55 130.23,112.14 90.44,-57.89 25.32,-213.44 -86.82,-155.55z"/>
     <path class="fil0" d="M4719.12 2845.82c-7.23,72.35 25.33,130.22 104.91,119.37 86.82,-14.47 68.73,-86.82 61.5,-148.32 -94.05,-43.41 -112.14,-43.41 -166.41,28.95z"/>
     <path class="fil0" d="M4136.71 1561.6c25.32,108.53 202.58,79.59 177.26,-43.41 -21.71,-104.89 -206.2,-79.57 -177.26,43.41z"/>
     <path class="fil0" d="M3557.92 2332.13c28.94,104.91 206.19,68.73 173.64,-50.64 -28.95,-101.3 -209.82,-79.59 -173.64,50.64z"/>
     <path class="fil0" d="M4769.77 2990.51c-108.53,50.64 -36.18,209.81 75.96,159.17 94.05,-39.8 39.8,-217.05 -75.96,-159.17z"/>
     <path class="fil0" d="M3749.65 2332.13c25.32,97.68 206.19,72.36 173.64,-50.64 -25.34,-104.91 -206.21,-75.98 -173.64,50.64z"/>
     <path class="fil0" d="M4784.23 2603.43c-130.23,43.41 -54.26,206.19 54.27,166.41 101.28,-32.56 57.87,-202.57 -54.27,-166.41z"/>
     <path class="fil0" d="M4541.86 3200.32c-47.03,94.06 18.09,180.88 112.14,137.47 72.36,-32.56 68.73,-133.86 -21.71,-170.02 -47.02,3.61 -65.11,14.47 -90.43,32.55l0 0z"/>
     <path class="fil0" d="M3941.36 1760.57c21.71,28.95 25.32,54.27 83.2,57.88 50.64,3.62 68.73,-25.32 90.44,-50.64 28.94,-162.8 -188.1,-177.26 -173.64,-7.24z"/>
     <path class="fil0" d="M4136.71 3670.6c18.09,25.32 25.32,47.03 61.5,57.87 39.79,10.86 79.59,-7.23 97.67,-25.32 28.95,-32.55 47.04,-159.17 -104.9,-144.69 -18.09,32.55 -57.89,7.23 -54.27,112.14z"/>
     <path class="fil0" d="M3807.52 1840.15c-119.37,50.64 -43.41,206.19 68.73,162.78 97.68,-39.79 39.79,-206.19 -68.73,-162.78z"/>
     <path class="fil0" d="M4393.55 3558.44c-115.77,36.18 -68.74,198.96 47.03,170.02 115.76,-28.93 68.73,-206.18 -47.03,-170.02z"/>
     <path class="fil0" d="M4198.21 3536.75c72.35,3.62 83.2,-10.86 115.76,-57.88 7.24,-97.67 -68.73,-148.32 -141.08,-101.28 -25.32,18.09 -39.79,47.03 -36.18,90.44 10.86,54.25 43.41,57.86 61.5,68.72z"/>
     <path class="fil0" d="M5153.22 2418.95c-108.53,57.88 -18.09,206.19 83.2,155.55 97.67,-50.64 25.32,-213.44 -83.2,-155.55z"/>
     <path class="fil0" d="M3944.98 2133.17c18.09,101.29 191.73,90.44 173.64,-36.17 -14.46,-104.91 -195.33,-86.82 -173.64,36.17z"/>
     <path class="fil0" d="M4494.84 1210.71c25.32,-86.82 7.24,-86.82 -36.17,-133.85 -90.45,-18.09 -155.55,32.56 -123,115.77 36.18,86.81 115.76,47.03 159.17,18.08l0 0z"/>
     <path class="fil0" d="M4914.46 2838.57c3.62,47.03 3.62,141.08 101.29,126.6 25.32,-3.62 7.23,0 28.94,-10.85l25.32 -14.47c21.71,-50.64 25.32,-104.9 -18.09,-133.85 -61.48,-39.77 -104.89,7.25 -137.46,32.57z"/>
     <path class="fil0" d="M3774.97 4480.9c32.55,7.23 68.73,21.71 108.53,3.63 65.12,-50.65 47.03,-151.95 -36.18,-159.18 -43.41,-3.62 -79.58,18.09 -90.44,43.41 -21.71,39.8 3.61,79.59 18.09,112.14z"/>
     <path class="fil0" d="M4136.71 1355.41c3.62,104.91 177.26,108.53 173.64,-10.86 0,-115.75 -177.26,-104.89 -173.64,10.86z"/>
     <path class="fil0" d="M3999.25 4137.25c-108.53,47.03 -39.79,198.96 65.12,159.17 101.29,-39.8 47.02,-209.81 -65.12,-159.17z"/>
     <path class="fil0" d="M4965.12 2418.95c-112.14,61.5 -21.71,198.96 75.96,151.94 97.68,-43.42 25.32,-209.83 -75.96,-151.94z"/>
     <path class="fil0" d="M4136.71 2892.83c25.32,86.82 126.61,101.29 170.02,28.95 21.71,-36.18 14.46,-72.36 -10.86,-101.29 -28.94,-32.55 -68.73,-28.94 -119.37,-25.32 18.09,25.32 10.85,21.71 -3.63,50.65 0,0 -14.46,21.71 -14.46,25.32 -18.08,21.69 -3.61,3.61 -21.7,21.69z"/>
     <path class="fil0" d="M3724.31 2140.41c43.41,-108.54 -130.23,-155.56 -162.78,-57.88 -36.18,115.75 123,162.78 162.78,57.88z"/>
     <path class="fil0" d="M4078.84 2567.27c18.08,-10.86 18.08,-25.32 36.17,-57.88l14.47 -21.71c-18.09,-14.46 -7.23,-7.23 -21.71,-25.32 -14.47,-18.09 -18.09,-43.41 -57.88,-50.64 -137.46,-25.34 -151.94,213.42 28.95,155.55z"/>
     <path class="fil0" d="M4596.13 3370.34c-126.61,28.94 -72.36,191.73 39.78,162.78 101.3,-25.32 65.13,-191.72 -39.78,-162.78z"/>
     <path class="fil0" d="M4133.09 3048.38c7.23,25.33 3.62,39.79 18.09,61.5l43.41 43.41c97.67,-18.09 57.87,-3.62 112.14,-50.64 14.46,-130.23 -86.82,-130.23 -126.61,-108.53 -21.71,10.85 -18.09,14.46 -36.18,39.79 0,3.62 -10.85,14.47 -10.85,14.47z"/>
     <path class="fil0" d="M3955.84 3786.35c-54.27,166.4 202.58,184.49 148.32,-3.63 0,0 -3.63,-3.62 -3.63,-3.62 0,3.62 -3.62,-3.62 -7.23,-7.23 -3.62,-3.62 -10.85,-7.23 -14.46,-10.86 -18.09,-10.85 -18.09,-10.85 -43.41,-14.46 -43.41,0.01 -61.5,25.33 -79.59,39.8z"/>
     <path class="fil0" d="M4143.94 1771.42c28.95,21.71 43.41,57.87 104.91,39.78 39.79,-10.85 65.12,-47.03 57.88,-94.05 -32.56,-112.14 -188.11,-94.05 -162.79,54.27z"/>
     <path class="fil0" d="M4777 2418.95c-104.91,36.18 -47.03,195.35 61.5,151.94 94.05,-36.19 50.64,-191.74 -61.5,-151.94z"/>
     <path class="fil0" d="M5167.69 2610.68c-108.53,43.41 -47.04,191.73 61.49,155.55 86.82,-32.57 47.04,-202.58 -61.49,-155.55z"/>
     <path class="fil0" d="M4205.44 3949.13c-115.76,39.79 -54.26,180.87 47.03,151.94 94.06,-28.94 54.26,-184.49 -47.03,-151.94z"/>
     <path class="fil0" d="M3973.93 1474.78l-3.63 3.62c-14.46,36.18 -32.55,83.2 3.63,119.38 25.32,25.32 75.96,32.55 112.14,7.23 57.87,-47.02 36.18,-170.02 -112.14,-130.23z"/>
     <path class="fil0" d="M3952.22 2321.28c14.46,90.44 173.63,79.58 155.55,-36.18 -14.47,-94.05 -173.64,-75.96 -155.55,36.18z"/>
     <path class="fil0" d="M4162.03 3200.32c-39.78,83.2 -10.85,144.7 90.44,137.47 21.72,-18.09 28.95,-14.47 43.41,-43.41 10.86,-28.95 10.86,-54.27 -3.62,-75.97 -36.18,-61.49 -86.82,-28.94 -130.23,-18.09l0 0z"/>
     <path class="fil0" d="M4780.62 3189.47c-101.28,39.79 -47.03,177.26 57.88,141.08 90.44,-28.94 39.8,-180.87 -57.88,-141.08z"/>
     <path class="fil0" d="M3803.9 4148.1c-97.68,47.04 -28.95,180.88 65.12,141.09 90.43,-39.8 28.93,-188.12 -65.12,-141.09z"/>
     <path class="fil0" d="M3395.12 2238.08c-36.17,75.96 -36.17,97.68 32.56,141.08 61.5,0 119.37,-28.94 97.67,-97.67 -18.09,-61.5 -75.96,-54.27 -130.23,-43.41z"/>
     <path class="fil0" d="M4592.51 704.26c-108.54,43.41 -50.65,170.02 47.03,144.7 94.05,-25.32 43.41,-184.48 -47.03,-144.7z"/>
     <path class="fil0" d="M4342.9 1362.64c14.47,90.44 166.41,79.59 155.55,-25.32 -14.46,-97.66 -173.64,-79.59 -155.55,25.32z"/>
     <path class="fil0" d="M3594.08 4857.12c119.38,14.47 68.73,-10.85 119.38,-21.71 18.09,-68.73 -3.63,-137.46 -86.82,-122.99 -90.43,18.08 -57.88,101.29 -32.56,144.7z"/>
     <path class="fil0" d="M4357.38 917.7c-25.32,75.97 0,130.23 90.44,115.77 32.56,-25.33 68.74,-57.88 32.56,-108.53 -36.18,-50.65 -90.44,-25.33 -123,-7.24z"/>
     <path class="fil0" d="M3887.11 4658.16c36.18,-83.19 28.94,-65.12 -18.09,-133.85 -61.5,3.63 -119.37,14.47 -101.28,90.44 14.46,65.11 72.34,50.65 119.37,43.41l0 0z"/>
     <path class="fil0" d="M3999.25 3008.6c-86.82,50.64 -18.09,162.78 68.73,122.99 75.96,-36.17 14.47,-173.63 -68.73,-122.99z"/>
     <path class="fil0" d="M4382.7 3775.49c-75.96,39.79 -21.71,155.55 65.12,119.38 79.58,-28.94 32.54,-170.02 -65.12,-119.38z"/>
     <path class="fil0" d="M3793.06 1793.13c65.12,3.62 90.44,14.46 112.14,-50.64 21.7,-115.77 -202.59,-115.77 -112.14,50.64z"/>
     <path class="fil0" d="M4578.04 910.46c-72.35,43.41 -18.09,155.55 68.73,115.76 72.35,-32.55 21.71,-166.41 -68.73,-115.76z"/>
     <path class="fil0" d="M3626.65 4531.54c-83.2,18.09 -57.87,155.55 36.18,130.23 83.19,-21.69 54.25,-151.92 -36.18,-130.23z"/>
     <path class="fil0" d="M4205.44 1861.86c-18.09,7.23 -25.32,0 -39.78,28.94 -25.33,43.41 10.85,119.38 86.81,94.05 75.97,-25.32 36.17,-155.55 -47.03,-122.99z"/>
     <path class="fil0" d="M4086.07 3685.06l10.85 -14.46c7.24,-50.64 -3.62,-57.88 -32.55,-90.44 -173.65,-25.33 -101.3,202.58 21.7,104.9z"/>
     <path class="fil0" d="M4983.19 3008.6c-94.05,32.55 -43.41,144.69 36.18,122.99 83.21,-25.32 47.03,-151.94 -36.18,-122.99z"/>
     <path class="fil0" d="M4180.12 1109.43c-3.62,25.32 -25.32,32.55 -14.46,68.73 7.23,21.71 25.32,36.18 50.64,39.79 79.58,7.23 57.87,-68.73 50.64,-104.91 -28.94,-10.86 -54.27,-14.47 -86.82,-3.61z"/>
     <path class="fil0" d="M4082.45 4444.73l3.62 -57.88c-47.03,-75.96 -108.53,-25.32 -112.14,7.23 -7.23,28.95 10.85,54.27 32.55,61.5 14.47,7.23 18.09,7.23 36.18,3.62l39.79 -14.47 0 0z"/>
     <path class="fil0" d="M4469.52 1561.6c36.18,-72.35 -72.35,-104.91 -97.67,-50.64 -36.18,75.98 65.11,115.76 97.67,50.64z"/>
     <path class="fil0" d="M3789.43 3981.7c-3.62,18.09 -14.46,50.64 3.63,75.96 14.46,18.09 50.64,25.32 75.96,10.86 39.79,-28.95 28.94,-104.91 -50.64,-94.05l-28.95 7.23z"/>
     <path class="fil0" d="M4592.51 3594.62c-68.74,28.95 -25.33,126.61 43.4,97.68 61.5,-25.32 21.72,-126.61 -43.4,-97.68z"/>
     <path class="fil0" d="M3594.08 1952.29c54.27,39.78 123,14.46 97.68,-50.64 -18.09,-50.65 -115.75,-50.65 -97.68,50.64z"/>
     <path class="fil0" d="M3398.75 5009.05c61.5,36.18 122.99,14.47 97.67,-50.64 -18.09,-47.02 -108.53,-54.27 -97.67,50.64z"/>
     <path class="fil0" d="M4773.39 631.92l61.5 3.63c86.82,-137.48 -141.09,-137.48 -61.5,-3.63z"/>
     <path class="fil0" d="M4834.89 440.2c50.64,-54.27 7.23,-115.77 -50.64,-94.06 -43.43,21.7 -50.66,108.52 50.64,94.06z"/>
     <path class="fil0" d="M5174.92 2834.96c-65.12,32.55 -10.86,119.37 47.03,83.2 47.03,-25.33 10.86,-112.15 -47.03,-83.2z"/>
     <path class="fil0" d="M4574.43 617.44c57.88,25.33 108.53,-10.85 75.96,-57.87 -25.32,-36.18 -97.67,-25.32 -75.96,57.87z"/>
     <path class="fil0" d="M3641.12 4444.73l36.17 -7.24 7.24 -43.41 -21.72 -28.94c-39.78,0 -28.94,0 -54.26,18.09 -10.84,50.65 -3.61,47.03 32.57,61.5z"/>
     <path class="fil0" d="M4194.59 2140.41c50.64,25.32 90.44,-7.24 65.12,-47.04 -14.48,-28.93 -90.45,-32.55 -65.12,47.04z"/>
     <path class="fil0" d="M5413.68 2339.36c21.71,-32.55 21.71,-32.55 0,-68.73 -90.44,-14.48 -90.44,83.2 0,68.73z"/>
     <path class="fil0" d="M3811.13 1525.44c7.23,47.03 3.62,43.41 50.64,28.94l-7.23 -32.55c-25.32,-7.25 -18.07,-10.87 -43.41,3.61z"/>
     <path class="fil0" d="M4393.55 1735.24c0,25.32 21.71,21.71 47.03,18.09l-3.62 -43.41c-50.65,-7.23 -28.94,-7.23 -43.41,25.32z"/>
    </g>
    <g id="_2394567805536">
     <path class="fil0" d="M6987.28 924.94c137.46,75.96 227.91,7.23 336.42,-47.04 115.77,-57.87 227.91,-65.12 361.75,-94.05 130.22,-28.94 231.51,-72.35 325.57,-130.23l267.69 -180.87c-213.42,86.82 -206.19,191.73 -618.59,267.69 -520.91,94.05 -340.04,209.82 -672.84,184.5z"/>
     <path class="fil0" d="M6918.55 534.25c28.95,-14.47 79.59,-68.73 195.35,-126.61 151.94,-75.96 495.6,-202.58 618.59,-303.86 18.09,-14.47 14.47,-10.86 25.32,-25.33 -36.17,14.47 -61.5,36.18 -101.28,57.88 -112.14,54.26 -231.52,94.05 -347.28,137.46 -141.1,54.27 -329.21,162.78 -390.7,260.46l0 0z"/>
     <path class="fil0" d="M6668.94 1861.86c94.05,0 155.55,-61.5 206.19,-108.53 43.41,-36.18 94.05,-115.77 97.67,-198.96 -50.64,90.44 -47.03,122.99 -130.23,173.64 -54.25,36.17 -166.4,61.49 -173.63,133.85z"/>
    </g>
    <g id="_2394567804416">
     <path class="fil0" d="M3181.7 3855.08c28.94,141.08 0,43.41 47.03,173.64l3.62 43.41c0,3.62 -3.62,3.62 -3.62,7.23 -10.85,32.55 -101.28,-3.62 -126.6,-57.88 32.55,18.09 43.41,28.95 79.58,39.79 -28.94,-36.18 -68.73,-72.35 -108.53,-90.44l57.88 -3.62c-65.12,-10.86 -65.12,-25.33 -94.06,-79.59l-18.08 -14.47c18.08,-25.32 -3.63,-10.85 28.94,-18.08 3.61,0.01 133.84,0.01 133.84,0.01zm-774.14 -394.3c173.64,50.64 170.01,-72.35 354.51,65.12 -54.27,32.56 -144.7,18.09 -209.82,18.09 -90.43,-7.24 -115.75,-14.48 -144.69,-83.21zm-119.38 -126.62c-18.08,25.32 -14.46,25.32 -54.26,36.18l32.55 -61.5c-28.94,94.05 -144.69,68.73 -159.17,25.32 36.18,-14.46 72.35,-25.32 108.53,-36.17l101.29 -36.18 -28.94 72.35zm274.93 -97.66c50.64,0 245.99,43.41 293.01,65.12 97.67,39.79 151.94,79.59 188.1,184.5 -57.87,0 -101.28,-10.86 -141.08,0 -18.09,7.23 -39.79,18.09 -61.5,14.46 0,0 -3.62,0 -3.62,0 0,0 -3.63,0 -7.24,-3.62l-54.26 -18.09c61.5,-25.32 83.2,-3.62 137.46,-54.26 -47.03,14.46 -86.82,28.94 -141.08,28.94 3.62,0 7.23,-7.23 7.23,-3.62 0,3.62 7.23,-3.63 14.46,-7.24l61.5 -21.71c25.32,-10.85 43.41,-28.94 54.27,-47.03 -25.32,43.41 -126.61,50.64 -191.73,50.64 28.95,-32.55 57.88,-43.41 75.96,-101.28 -32.55,28.94 -65.12,57.87 -119.37,79.58 -7.23,-10.85 0,0 0,-10.85 0,-50.64 14.47,18.09 0,-10.86 -32.55,43.41 -32.55,3.63 -90.44,28.95l0 -14.47c0,-50.64 21.71,18.09 0,-14.46l-65.08 7.23c-25.32,14.46 -21.71,18.09 -54.27,18.09 18.09,-14.47 47.04,-25.32 54.27,-43.41l14.46 -25.32c14.47,-18.09 0,3.62 14.47,-14.47l-90.44 50.64c-32.56,7.24 -14.47,7.24 -32.56,-7.23l39.79 -32.55c43.41,-54.27 65.12,-43.41 86.82,-79.59 0.01,-0.01 10.87,-18.09 10.87,-18.09zm-274.93 97.66c25.33,-39.78 25.33,-75.96 68.74,-86.82 28.94,-10.85 39.78,-25.32 61.49,-47.03 14.47,-14.46 7.24,-10.85 21.72,-18.09 -18.09,108.53 -61.5,130.23 -90.45,177.26 -10.85,18.09 -14.46,39.79 -25.32,61.5 -21.71,-7.23 -54.26,-25.32 -68.73,-43.41 10.84,-21.7 14.47,-21.7 32.55,-43.41zm542.62 -101.28c21.71,-28.95 54.26,-47.03 61.5,-104.91 -25.32,39.79 -50.65,101.29 -115.77,94.05 25.32,-25.32 50.65,-39.78 61.5,-86.82 -25.32,28.95 -54.26,79.59 -97.67,79.59l47.03 -50.64c-39.79,18.09 -36.18,39.78 -83.2,47.03 0,-3.62 3.63,-7.23 3.63,-7.23l43.41 -54.27c-32.56,14.47 -32.56,21.71 -61.5,43.41 -18.09,-7.23 -3.63,-7.23 -10.86,-14.46l-21.71 -10.86c21.71,-36.18 18.09,-36.18 57.87,-61.5 123,-72.35 101.29,-61.5 267.7,-21.71 260.45,61.5 213.42,-68.73 365.36,83.2 50.64,50.64 65.12,61.5 137.46,97.67 184.5,90.44 162.79,112.14 296.64,188.11 47.03,25.32 162.78,119.37 65.12,151.94 -10.86,3.62 -25.32,10.85 -43.41,14.46 18.09,-14.46 32.55,-28.94 50.64,-43.41 -32.55,-18.09 -61.5,25.32 -86.82,-18.09l-3.62 -7.23c-28.95,21.71 -83.2,-3.62 -119.37,-21.71l-39.79 -25.32c-3.62,-3.62 18.09,-14.47 -21.71,0 -25.32,7.23 -14.47,7.23 -36.18,18.09 0,0 0,-7.24 0,-3.63 0,0 0,-3.62 0,-3.62 0,0 0,-7.23 0,-7.23l-18.09 -18.09c0,0 0,0 -3.62,-3.62l-21.71 -14.47c0,0 -7.24,-3.62 -7.24,-3.62l-7.23 -18.09c0,0 0,-3.62 0,-3.62 0,0 -10.85,-10.86 0,-21.72l-43.41 10.86c18.09,-32.55 -7.23,-3.62 28.95,-28.94 -43.41,7.23 -43.41,10.85 -75.97,-10.86l43.41 -50.64c-57.87,10.85 -148.31,25.32 -213.42,-14.47l-7.23 -7.23c0,0 -3.63,-3.62 -3.63,-3.62l-25.32 -14.47c0,0 -3.62,-3.62 -3.62,-3.62 0,0 -7.23,-3.62 -7.23,-7.23 0,0 -3.63,-3.63 -3.63,-3.63l-57.87 -36.17c36.17,-28.95 39.78,-25.33 61.5,-68.74 -25.33,25.33 -43.41,50.65 -90.45,61.5 36.18,-28.94 47.04,-43.41 61.5,-90.44 -25.32,21.71 -25.32,28.94 -54.26,47.03l10.85 -65.12c-21.71,39.79 -28.94,75.97 -72.35,86.82l28.94 -65.12c-32.55,32.55 -28.94,54.27 -79.59,72.35l36.18 -61.49c-32.54,28.99 -50.63,68.78 -94.04,68.78l43.41 -65.12c-32.55,25.32 -43.41,57.87 -86.82,65.12 21.72,-32.55 57.88,-61.5 57.88,-115.76 -3.61,25.33 -54.25,108.53 -112.14,108.53l0 0zm72.35 -220.67c18.09,-39.79 32.56,-65.12 79.59,-75.97 -10.86,25.32 -14.47,25.32 -28.95,50.65 -21.69,28.94 -7.23,25.32 -50.64,25.32zm108.53 36.17c14.47,-25.32 18.09,-21.71 32.56,-50.64 -36.18,28.95 -18.09,36.18 -65.12,36.18 14.46,-32.55 50.64,-108.53 83.19,-123 249.6,-101.28 242.37,-151.94 448.56,21.71 39.79,32.56 68.73,65.13 104.91,104.91 39.79,39.79 72.36,65.12 108.53,101.29 43.41,39.78 195.35,151.94 253.23,177.26 -14.47,-14.47 -28.95,-28.95 -47.04,-43.41 -7.23,-3.62 -14.46,-10.86 -25.32,-18.09l-32.55 -28.94c50.64,25.32 112.14,75.96 162.78,108.53 155.55,108.53 3.63,217.05 -198.96,104.9 -94.05,-50.64 -57.87,-39.78 -104.9,-75.96l-36.18 -21.71 28.94 -25.32c-28.94,10.85 -14.46,14.46 -36.17,3.62 28.94,-18.09 32.55,-25.32 43.41,-61.5 -10.86,14.47 -3.63,7.24 -14.47,14.47 -21.71,18.09 3.62,3.62 -25.32,18.09l25.32 -61.5c-25.32,18.09 -43.41,54.26 -90.44,61.5 -75.97,10.85 -177.26,-79.59 -217.05,-133.85l-25.32 -28.95c0,0 -3.63,-3.62 -7.23,-3.62 25.32,-14.47 14.46,0 32.55,-28.95 -28.95,25.32 -36.18,18.09 -39.79,14.47l-43.41 -7.23c28.95,-14.47 43.41,-28.95 54.27,-61.5 -14.47,28.94 -39.79,47.03 -79.59,50.64 21.71,-21.71 43.41,-39.79 54.27,-72.35 -18.09,28.94 -21.71,36.17 -54.27,54.26 7.23,-54.26 18.09,-68.73 10.86,-130.23 -28.95,28.95 -28.95,83.2 -90.44,101.29 21.71,-39.79 50.64,-61.5 47.03,-123 -3.63,28.95 -28.95,57.88 -47.03,83.2 -21.72,28.94 -32.56,50.64 -79.59,57.87 25.32,-36.17 50.64,-54.26 54.26,-115.76 -32.55,47.03 -47.03,97.67 -101.28,115.76 28.94,-32.55 47.03,-47.03 57.87,-101.28 -39.78,47.03 -54.26,97.67 -108.53,94.05 28.95,-25.32 68.73,-68.73 68.73,-130.23 -10.84,47.06 -61.48,108.56 -101.27,123.02l0 0zm394.3 -633.05c-32.55,28.94 -61.5,32.55 -123,21.71 -108.53,-18.09 -21.71,50.64 -358.13,97.67 -94.05,14.47 -173.64,32.56 -264.08,47.04 -119.37,18.09 -155.55,-7.23 -264.08,-14.47 -318.33,-21.71 -560.7,278.55 -864.57,368.99 -94.05,28.95 -151.94,10.86 -256.84,54.27 -72.35,32.55 -133.85,72.35 -206.19,101.28 -198.96,86.82 -303.87,-28.94 -491.97,119.37 -217.05,166.41 -401.54,680.09 -477.51,734.35l-18.08 28.94 0 61.5c57.87,-50.64 141.08,-191.73 184.49,-278.55 54.27,-101.28 101.28,-209.81 159.17,-303.87 253.23,-390.68 397.92,-274.92 596.88,-267.69l-50.64 -32.55c72.35,-25.32 115.76,-61.5 173.64,-79.59 -39.79,28.95 -79.59,68.73 -97.68,119.38l65.13 -65.13c25.32,-21.71 39.78,-36.17 68.73,-50.64 170.01,-83.19 343.65,-28.94 564.32,-148.32 271.31,-148.31 387.06,-282.16 665.61,-296.63 -343.65,-79.59 -466.65,307.49 -1009.28,365.37 -57.87,7.23 -112.14,21.71 -162.78,25.32 155.55,-43.41 282.17,-47.04 430.47,-112.14 137.47,-65.12 224.28,-126.61 343.66,-191.73 484.74,-274.92 567.95,36.18 875.42,-112.14 -90.44,10.85 -130.23,18.09 -227.9,10.85 68.73,-18.08 184.49,-36.17 260.46,-50.64 83.19,-14.46 180.87,-54.26 249.6,-57.87 -50.64,21.71 -137.46,32.55 -184.5,65.12 94.06,-7.23 180.88,-47.03 278.55,-54.27 119.37,-7.23 188.11,36.18 271.31,39.79 -18.08,-10.86 -79.58,-47.03 -97.67,-57.88 54.27,10.86 119.37,54.27 173.64,79.59 57.87,25.32 122.99,50.64 184.49,72.36 65.12,25.32 115.77,54.26 177.26,79.58 57.88,21.71 137.47,39.79 170.02,83.2 -10.86,86.82 -170.02,108.53 -264.08,83.19 -36.18,-10.85 -104.91,-28.94 -115.76,-57.87l-3.63 -14.47c-3.62,-7.23 -47.03,-3.62 -28.94,-39.78l-43.41 21.71c10.85,-18.09 18.09,-21.71 28.94,-43.41 -72.35,47.03 -72.35,65.12 -202.58,50.64 -43.41,-7.23 -101.29,-25.32 -170.02,-28.94l10.86 -32.56c-21.71,21.72 -3.62,7.24 -28.94,21.72 14.46,-50.65 7.23,-43.41 0,-54.27 -18.09,47.03 -28.95,36.18 -75.97,65.12 -32.55,21.71 -39.78,39.79 -75.96,57.88 -39.79,18.08 -79.59,25.32 -108.53,28.94 -61.5,7.23 -10.86,-10.86 -50.64,7.23 -14.47,-21.71 -10.86,-7.23 -10.86,-43.41 -10.86,50.65 -18.09,39.79 -28.94,47.04l0 -83.2c-50.65,148.32 -198.96,245.99 -343.66,293.01 10.86,-130.23 -7.23,-115.76 -32.55,-217.05 -7.24,115.77 36.17,188.11 -43.41,285.78 21.71,-101.28 39.78,-148.31 21.71,-260.46 -14.47,141.09 -21.71,256.84 -104.91,343.66 28.95,-79.59 61.5,-141.09 61.5,-238.76 -43.41,97.67 -39.79,198.96 -119.37,282.17 21.71,-83.2 57.87,-123 61.5,-227.91 -47.04,112.14 -65.13,141.09 -188.11,184.5 -79.59,28.94 -231.51,36.18 -245.99,122.99 57.87,101.29 191.73,0 267.69,90.45 -61.5,-18.09 -115.76,-47.04 -173.64,-10.86 43.41,0 79.59,0 101.29,14.47l36.17 10.85c-14.46,10.86 -18.09,10.86 -28.94,21.71l36.17 3.63 -14.46 18.09c0,0 -3.62,3.62 -7.23,3.62 0,0 -3.63,3.62 -7.24,3.62 0,0 -3.62,3.63 -7.23,3.63 39.79,-14.47 43.41,-14.47 61.5,-3.63 -54.27,18.09 -83.2,47.04 -108.53,90.44 18.09,-18.08 108.53,-108.53 151.94,-90.44 -21.71,21.71 -141.09,61.5 -126.61,155.55 -14.46,-50.64 83.2,-141.08 170.02,-137.46 -57.88,28.95 -61.5,21.71 -101.29,72.35 -32.55,47.04 -28.94,86.82 -14.46,126.61 7.23,-79.59 50.64,-137.46 108.53,-162.78 72.35,-28.95 184.49,-14.47 264.08,-14.47 -14.46,21.71 -21.71,25.32 -36.18,54.27 126.61,-97.68 235.14,-83.2 332.82,-94.05l-115.77 -3.63c50.64,-14.56 463.03,-65.2 557.08,115.67 36.18,68.73 10.86,130.23 -36.18,162.78 -83.19,65.12 -293.01,28.95 -416,43.41 -65.13,7.24 -148.32,28.95 -184.5,-14.46 -39.78,-47.04 -50.64,-126.61 -32.55,-191.73l57.87 -21.71c-68.73,-7.23 -90.44,32.55 -86.82,104.91 7.24,83.19 39.79,90.44 65.13,133.85 -206.2,14.46 -282.17,61.5 -325.58,61.5 -83.2,72.35 -195.35,0 -271.32,-21.71 28.95,28.94 75.97,54.26 126.61,65.12 -86.82,3.62 -148.32,-43.41 -220.67,-68.73 32.55,28.94 97.67,75.96 151.94,75.96 -94.05,14.46 -173.64,-50.64 -246,-75.96 28.95,32.55 68.74,43.41 104.91,72.35 -83.19,-7.23 -144.69,-54.27 -184.49,-57.88 25.32,10.86 57.87,36.18 94.05,54.27 36.18,18.09 79.59,21.71 108.53,43.41 -123,21.71 -213.42,10.86 -303.87,-43.41 -3.62,3.62 -3.62,7.23 -3.62,7.23 0,0 -3.62,3.63 -3.62,3.63 -14.47,7.23 -7.24,-3.63 -21.71,-18.09 -10.86,-7.23 0,-3.63 -14.47,-7.23l7.23 21.71c10.86,18.09 -3.62,0 14.47,18.09 61.5,54.26 97.67,57.87 162.78,72.35 -101.28,10.85 -159.17,-50.64 -238.76,-75.96l97.68 68.73c-47.04,-3.63 -75.97,-21.72 -112.14,-36.18 14.46,14.46 39.78,28.94 54.26,50.64 -57.87,-7.23 -72.35,-32.55 -115.76,-50.64 10.85,10.86 21.71,21.71 39.78,32.55l36.18 28.95c-65.12,-7.24 -148.32,-79.59 -206.19,-108.53 21.71,21.71 50.64,39.78 75.96,61.49l79.59 68.74c-65.12,-10.86 -101.29,-47.04 -141.09,-79.59 -36.17,-28.95 -79.58,-54.27 -122.99,-75.96l162.78 141.08c0,0 3.62,3.62 3.62,7.23 -86.82,-36.17 -180.87,-141.08 -264.08,-170.01l36.18 36.17c10.86,7.24 18.09,14.47 32.55,21.72l206.2 137.46c-90.45,3.62 -321.96,-180.87 -419.64,-213.43 10.86,10.86 0,0 14.47,14.47l224.28 155.55c-162.78,-43.41 -282.17,-188.11 -463.04,-217.05 -57.87,-3.62 -112.14,0 -162.78,21.71 -173.64,36.18 -115.77,133.85 -336.42,130.23l83.19 18.09c-75.96,18.09 -68.73,14.46 -148.32,3.62 39.79,21.71 47.04,21.71 101.29,25.32 -57.88,25.32 -101.29,10.86 -159.17,0 54.26,43.41 83.19,39.79 162.78,28.95 -21.71,39.78 -94.05,119.37 -97.68,130.23l-43.41 90.44c-7.23,18.09 14.47,47.03 -83.19,65.12 28.94,0 47.03,-7.23 68.73,-14.47 -25.32,54.27 -57.88,43.41 -101.29,75.97l75.97 -21.71c-25.32,36.17 -57.88,39.78 -101.29,61.49 39.79,0 61.5,-14.46 94.06,-25.32 -10.86,54.27 -86.82,57.88 -151.95,72.36 43.41,10.85 94.06,-3.63 133.86,-18.09 -25.32,36.18 -104.91,57.87 -170.02,57.87l0 7.24c65.12,3.62 97.68,-7.24 155.55,-25.32 -18.09,50.64 -101.28,54.26 -155.55,57.87l3.62 126.61c21.72,-3.63 57.88,-7.24 72.36,-14.47 57.87,-25.32 184.49,-358.13 209.81,-416.01 65.13,-133.85 188.11,-314.72 340.05,-365.36 -141.09,83.19 -256.84,220.67 -336.42,397.92l-213.43 535.38c39.79,-32.56 65.12,-94.05 86.82,-137.46 144.7,-293.02 202.58,-622.2 517.29,-792.23 50.65,-28.95 115.77,-50.65 177.27,-28.95 -83.2,43.41 -151.95,83.2 -184.5,198.96 28.95,-32.55 50.64,-83.19 83.2,-119.37 32.55,-32.55 79.58,-65.12 151.94,-61.5 -61.5,43.41 -195.35,112.14 -220.67,249.6 32.55,-83.19 170.01,-260.45 264.08,-231.51 -68.73,57.87 -104.91,39.79 -191.73,173.64 -43.41,65.12 -97.67,177.26 -86.82,274.92 -10.85,-79.59 65.12,-202.58 104.91,-260.46 39.79,-57.87 115.76,-162.78 217.05,-159.17 -86.82,65.12 -130.23,68.73 -217.05,217.05 -50.64,86.82 -90.44,235.14 -83.2,350.9 28.95,-94.05 25.32,-198.96 94.05,-329.19 43.41,-79.59 126.61,-195.35 224.29,-213.42 -68.74,68.73 -112.14,61.49 -195.35,220.67 -50.65,94.05 -90.45,217.04 -86.82,340.04 21.71,-47.03 28.94,-119.37 47.03,-173.64 39.79,-115.76 184.49,-397.92 303.87,-365.36 -25.32,43.41 -79.59,36.17 -155.55,141.08 -159.18,220.67 -173.64,434.1 -177.27,712.64 43.41,-90.44 18.09,-296.63 104.91,-506.45 43.41,-101.28 184.5,-336.42 285.78,-311.1 -18.09,47.04 -209.81,72.36 -300.24,510.06 -25.32,115.77 -39.79,238.76 -50.65,358.14 -7.23,57.87 -10.85,115.76 -21.71,177.26 -10.85,61.5 -28.94,115.76 -36.17,162.78 115.76,-332.81 83.19,-835.64 340.04,-1103.33 32.55,-36.18 65.12,-94.05 112.14,-75.96 -159.17,155.55 -220.67,282.17 -271.31,524.54 -25.32,112.14 -39.79,227.9 -54.27,343.65 -18.09,119.37 -47.03,217.05 -75.96,325.58l32.62 -0.07c108.53,-358.13 97.68,-701.79 220.67,-947.78 39.79,-79.58 115.77,-198.96 173.64,-227.9 72.35,18.09 115.76,47.03 209.82,57.87 115.76,10.86 350.9,-14.46 455.8,-57.87 83.2,-36.18 72.36,-75.97 195.35,-86.82 293.02,-54.27 151.94,-36.18 383.46,-101.29 101.28,-28.94 405.15,-57.87 430.47,-43.41 50.64,25.33 86.82,296.64 285.78,227.91 18.09,-65.12 -25.32,-162.78 -36.18,-238.76 112.14,-3.62 191.73,-3.62 209.82,-104.91 50.64,-260.46 -314.72,-238.76 -350.9,-271.31 -39.79,-39.79 -10.86,-94.05 -90.44,-144.7 -21.72,-14.46 -36.18,-18.09 -50.65,-32.55 75.97,0 97.68,-28.94 159.18,0 36.17,18.09 79.58,54.26 122.99,75.96 50.65,25.32 126.61,32.56 151.94,47.04 32.56,21.71 162.79,195.35 361.75,227.9 155.55,25.32 220.67,-57.88 133.85,-162.78 68.73,10.85 122.99,32.55 195.35,3.62 57.87,-21.71 101.28,-79.59 43.41,-141.08l-264.08 -202.59c-25.32,-14.46 -7.24,-3.62 -25.32,-18.09 0,0 -10.86,-14.46 -18.09,-18.08 -28.95,-28.95 -18.09,-10.86 -36.18,-39.79 -36.18,-32.55 -54.26,-61.5 -83.2,-97.68l-68.73 -65.12c-65.12,-68.73 -36.17,-18.09 -72.35,-54.26 25.32,-18.09 54.27,-14.47 94.05,-10.86 28.95,0 50.64,0 75.97,14.47l43.41 28.94c7.23,72.35 68.73,104.91 137.46,68.73 90.44,-47.03 21.71,3.62 180.87,14.47 0,-3.63 3.62,-7.24 7.23,-3.63 10.86,18.09 21.71,-43.41 61.5,-68.73 21.71,-18.09 7.23,-3.62 21.71,-25.32 0,0 14.47,-21.71 14.47,-25.32 10.85,-25.32 21.71,-25.32 3.62,-50.64 -18.09,-32.56 0,-14.47 -32.56,-36.18 -28.94,-18.09 -21.71,-3.62 -32.55,-28.94 -32.55,10.85 -61.5,-10.86 -94.05,-21.71 -36.18,-10.86 -57.88,-10.86 -86.82,-36.18 -18.09,-47.03 -43.41,-83.2 -101.28,-75.96 -36.18,3.62 -28.95,18.08 -68.74,3.62 -21.71,-7.23 -47.03,-18.09 -65.12,-25.32l-112.14 -50.65c-28.94,-14.46 -14.46,-3.62 -28.94,-25.32 -18.12,-28.93 -14.49,-119.36 -137.49,-86.8l0 0z"/>
     <path class="fil0" d="M2038.58 3428.22c-90.44,-57.88 0,-123 28.95,-144.7 -94.05,18.09 -159.18,151.94 -3.63,162.78l-25.32 -18.08z"/>
    </g>
    <g id="_2394567813728">
     <path class="fil0" d="M6495.3 2549.18c25.32,-14.47 47.03,-28.94 86.82,-36.18 39.78,-7.23 83.19,0 112.14,18.09 -65.13,0 -108.53,7.23 -155.55,28.95 332.81,-50.65 325.58,191.72 126.6,177.26 -224.28,-14.47 -296.63,-271.32 -47.03,-260.46 -61.49,28.93 -83.18,10.84 -122.98,72.34zm-622.2 -108.53c-21.72,32.55 -32.56,36.18 -50.65,65.12 32.56,-21.71 25.33,-25.32 57.88,-43.41 -7.23,32.55 -21.71,47.03 -39.79,68.73l-57.87 57.88c57.87,-21.71 75.96,-50.65 112.14,-83.2 -14.47,72.35 -83.2,97.68 -126.61,144.69l94.05 -47.03c-14.46,25.32 -3.62,10.86 -25.32,36.18 -7.23,10.85 -18.09,18.09 -25.32,25.32 -14.46,14.47 -47.03,39.79 -65.12,43.41 68.73,-3.62 123,-79.59 159.17,-115.76 -18.08,57.87 -90.44,137.46 -133.85,162.78 47.03,-10.86 86.82,-57.88 115.77,-79.59 -28.95,65.12 -75.97,101.29 -119.38,144.7 50.64,-14.47 126.61,-83.2 141.09,-130.23 0,54.26 -97.68,148.32 -130.23,173.64 65.12,-21.72 83.19,-65.13 119.37,-83.2 -14.46,47.03 -21.71,39.79 -39.79,79.59 28.95,-14.47 61.5,-47.04 79.59,-72.36 -3.62,61.5 -54.26,115.77 -83.19,141.09 65.12,-14.47 75.96,-57.88 115.76,-104.91 0,57.87 -39.79,112.14 -68.73,130.23 61.5,-25.32 54.26,-39.79 83.19,-75.96 10.86,-10.86 7.24,-10.86 14.47,-18.09 -7.23,57.87 -25.32,68.73 -36.18,112.14 50.64,-47.04 36.18,-50.65 68.73,-112.14 3.63,43.41 -3.62,75.96 -18.09,108.53 25.33,-39.79 25.33,-21.71 47.04,-90.44 28.94,50.64 14.46,72.35 18.09,126.6l28.94 -79.59 18.09 151.94 14.46 -79.58c10.86,75.96 3.63,83.19 -7.23,144.69 28.95,-50.64 28.95,-57.87 28.95,-130.23 21.71,75.97 3.62,112.14 -36.18,170.02 28.94,-10.86 61.5,-47.03 61.5,-86.82 3.62,97.67 -57.88,104.91 -115.77,137.46 72.36,7.23 90.45,-10.85 123,-47.03 -61.5,213.42 -296.64,-123 -416.01,-177.26l79.59 -32.56c-104.91,-10.85 -119.37,-7.23 -137.46,-108.53 -21.71,-104.91 -47.04,-104.91 -72.36,-177.26 47.04,-61.5 101.29,-28.94 170.02,-206.19 0,0 0,-3.63 3.62,-7.23l3.62 -10.86c0,0 0,-3.62 0,-7.23 3.63,-21.71 -3.62,-10.86 14.47,-36.18 36.18,3.62 -7.23,-7.23 10.86,7.23 18.04,25.38 3.58,0.04 21.67,10.9l0 0zm672.84 -133.84l-83.2 28.93 115.77 -3.62 -28.95 25.32c-7.23,14.46 -47.03,14.46 -86.82,47.03l83.2 -21.71c-25.32,28.95 -43.41,7.23 -75.96,50.64 57.87,-21.71 61.49,-32.55 130.22,-25.32 -57.87,18.09 -101.28,14.47 -130.22,65.12 36.17,-18.09 57.87,-32.55 108.53,-28.94 -97.68,39.79 -90.45,39.79 -137.47,126.6 -36.17,-112.14 -155.55,-242.36 25.33,-274.92l-14.47 10.86c-32.57,28.94 -10.86,-3.61 94.04,0.01zm-354.51 -50.66c-54.27,10.86 -75.96,21.72 -133.85,0 32.55,39.79 90.44,39.79 144.69,36.18 -32.55,39.79 -90.44,28.95 -137.46,21.71 36.18,28.95 68.73,25.32 123,28.95 -39.79,39.78 -43.41,25.32 -112.14,28.94l83.19 18.09c-14.46,7.23 -28.94,7.23 -39.78,7.23l28.94 18.09c-61.5,39.79 21.71,0 -65.12,39.79 -47.03,21.71 -50.64,18.09 -148.32,-7.23 47.03,65.12 188.1,68.73 253.23,21.71 -25.33,61.5 -97.68,54.26 -166.41,57.87 72.35,28.95 119.37,14.47 180.87,-14.46 -25.32,57.87 -90.44,43.41 -141.08,68.73 79.58,3.62 86.82,-3.63 151.94,-28.95 -25.32,61.5 -65.12,36.18 -115.77,68.73 57.88,3.63 68.73,0 115.77,-18.08 -25.32,32.55 -61.5,39.78 -115.77,39.78 65.12,10.86 72.36,3.63 126.61,-14.46 -21.71,32.55 -28.95,32.55 -68.73,39.78l54.26 0c-21.71,14.47 -39.78,25.32 -68.73,28.95 21.71,0 32.56,0 50.65,10.85 -123,47.04 -65.13,47.04 -213.43,3.63 36.18,47.03 180.87,101.28 256.84,50.64 -32.56,50.64 -43.41,32.55 -97.68,54.26 61.5,7.24 75.96,-10.85 119.37,-32.55 -7.23,36.18 -47.03,54.27 -97.67,57.88 68.73,10.85 68.73,-14.47 122.99,-21.72 -14.46,28.95 -43.41,36.18 -75.96,54.27 50.64,0 57.88,-7.23 90.44,-25.32 -10.85,39.78 -36.17,39.78 -68.73,57.87 43.41,-3.62 61.5,-14.46 90.44,-32.55 -7.23,43.41 -18.08,43.41 -57.87,57.87 39.79,0 43.41,-10.85 72.35,-25.32 -18.08,28.95 -25.32,36.18 -47.03,50.65 14.47,-3.63 14.47,-7.24 25.32,-7.24 25.32,-3.62 10.86,-3.62 21.71,3.63 -21.71,25.32 -32.55,28.94 -47.03,47.03l54.27 -25.32c-21.72,28.94 -14.47,28.94 -47.04,43.41 47.04,25.32 -32.55,-3.63 32.56,7.23 0,0 3.62,0 3.62,0 -14.46,7.23 -50.64,32.55 -65.12,43.41l68.73 -21.71c-18.09,7.23 -50.64,54.26 -90.44,61.5 36.17,3.62 54.26,-14.47 83.19,-25.33 -18.08,32.56 -36.17,50.65 -90.44,47.04 -43.41,-108.53 -36.18,-159.18 -112.14,-249.6 -65.12,-75.97 -151.94,-115.77 -166.4,-206.2 -10.86,-57.87 -10.86,-101.28 -25.33,-159.17 -36.17,-137.46 -86.82,-137.46 14.47,-264.08 47.03,-61.5 54.26,-101.29 72.35,-119.37 151.94,72.35 14.47,25.32 188.11,68.73 -83.2,14.46 -86.82,3.62 -155.55,-14.47 32.59,54.24 86.86,65.1 141.11,68.7zm220.67 -43.4c28.94,-10.86 75.96,-14.47 112.14,-28.95l0 18.09c0,0 0,0 0,3.62l94.05 -36.17c-14.46,18.08 -21.71,21.71 -47.03,36.17 -21.71,10.86 -36.18,18.09 -61.5,25.32 39.79,0 75.97,-18.08 108.53,-28.94 -21.71,36.18 -7.23,28.94 -7.23,32.55 -61.5,43.41 -155.55,-3.62 -238.76,90.45l-18.09 -36.18 50.64 -25.32c-21.71,0 -32.55,-7.24 -3.62,-18.09 -14.46,0 -25.32,0 -39.79,-3.62l-36.17 -18.09c-21.71,-10.86 -10.86,0 -32.56,-18.09 101.29,-10.86 144.7,-21.71 227.91,-43.41l-108.52 50.66zm-412.4 -126.61c50.64,-90.44 130.23,-184.49 249.6,-170.02 137.47,14.47 209.82,65.13 365.37,39.79 -14.47,36.18 -72.35,104.91 -104.91,126.61l-7.23 -25.32c-28.95,28.94 -57.88,50.64 -97.68,68.73 25.33,-36.18 57.88,-57.88 83.2,-101.29 -54.27,36.18 -97.67,97.68 -177.26,126.61 47.03,-54.27 79.59,-57.88 119.37,-133.85 -39.78,39.78 -104.91,119.37 -191.73,133.85l115.77 -112.14c-47.03,21.71 -112.14,104.9 -184.5,104.9 54.27,-32.55 79.59,-54.26 119.38,-104.9 -54.27,21.71 -83.2,83.19 -170.02,94.05 36.18,-43.41 123,-68.73 162.78,-151.94 -10.85,25.32 -162.78,141.08 -220.67,133.85 72.36,-39.79 123,-90.44 166.41,-144.69 -25.32,28.94 -151.94,126.6 -206.19,137.46 47.03,-36.18 112.14,-79.59 133.85,-130.23 -25.31,32.57 -104.88,90.44 -155.54,108.53l0 0zm-766.89 -571.56c-14.47,79.59 -202.59,213.43 -271.32,238.76 -18.08,25.32 -264.08,115.77 -311.1,133.85 -10.85,14.47 -57.87,43.41 -75.96,61.5 -21.71,21.71 -39.79,47.03 -57.87,79.59 -39.79,83.19 -54.27,115.76 -104.91,177.26 -57.88,68.73 -260.46,224.28 -278.55,282.17l-14.46 21.71c-21.72,32.55 -18.09,43.41 -36.18,57.88l0 25.32c3.62,3.62 3.62,3.62 7.23,7.23l21.71 25.32c18.09,28.95 7.24,0 18.09,32.55 25.32,21.72 0,25.33 21.71,68.74 10.86,21.71 28.95,39.78 57.88,43.41 86.82,18.08 90.44,-36.18 119.37,-79.59 25.32,-21.71 25.32,-18.09 54.27,-28.95 3.62,0 3.62,0 7.23,-3.62 3.62,0 3.62,-3.62 7.23,-3.62 3.63,0 3.63,-3.63 7.23,-3.63l36.18 -21.71c0,0 14.47,-10.85 14.47,-10.85l25.32 -14.47c10.85,-7.23 57.87,-43.41 68.73,-65.12 7.23,-25.32 0,-32.55 57.87,-68.73 65.13,-39.79 -36.17,25.32 18.09,-10.86l28.95 -25.32c25.32,-14.46 0,-3.62 21.71,-10.85 43.41,-7.24 166.4,-104.91 195.35,-133.85 43.41,-43.41 14.46,-57.88 94.05,-68.74 213.43,-25.32 238.76,-141.08 332.81,-162.78 50.64,-14.46 97.68,10.86 144.7,14.47 54.26,3.62 94.05,-10.86 141.08,-14.47 -50.64,144.7 -68.73,220.67 -122.99,361.74 -10.86,25.33 -3.63,7.24 -7.24,21.72 -3.62,25.32 -18.09,50.64 -25.32,68.73 -7.23,14.46 -7.23,10.85 -14.46,28.94 -3.63,7.23 7.23,7.23 -18.09,28.95l10.85 75.96 -36.17 18.09c-14.47,18.09 -14.47,25.32 0,39.78 14.46,14.47 21.71,10.86 36.17,3.63 14.47,-7.24 3.63,-3.63 14.47,-14.47l18.09 -25.32c47.03,65.12 137.46,7.23 188.1,28.94 43.41,28.95 36.18,173.64 104.91,285.78l126.6 101.29c32.56,25.32 72.36,83.19 108.54,119.37 112.14,119.37 231.51,101.29 264.08,-43.41 119.37,-28.94 104.9,-21.71 162.78,-119.37 21.71,-206.19 -126.61,-238.76 -130.23,-387.07 -3.62,-151.94 -28.94,-162.78 -32.55,-220.67 0,-28.94 32.55,-184.49 43.41,-202.58 61.49,50.64 54.26,137.46 97.67,209.82 36.18,65.12 65.12,162.78 97.68,209.81 79.58,123 368.99,195.35 361.74,-50.64 -10.86,-21.71 -21.71,-57.88 -43.41,-75.96 -21.71,-18.09 -57.88,-25.33 -72.35,-54.27 -14.47,-25.32 -10.86,-72.35 -25.33,-101.28 -14.46,-39.79 -39.78,-47.04 -39.78,-94.06 0,-79.58 21.71,-43.41 10.85,-238.76 -7.23,-94.05 32.56,-133.85 119.38,-141.08 21.71,-25.32 97.67,-54.27 198.96,-162.78 14.46,-14.47 32.55,-50.65 47.03,-61.5 25.32,-79.59 54.26,-148.32 79.59,-235.14 21.71,-75.96 47.03,-151.94 68.73,-227.9 54.26,-180.87 101.28,-271.32 293.01,-318.33 170.01,-39.79 340.04,-54.27 488.36,-126.61 141.08,-68.73 285.78,-202.58 368.99,-242.37l0 -28.94c-50.64,21.71 -104.91,61.49 -148.32,90.44 -535.38,336.42 -549.86,170.01 -850.1,318.33 -133.86,65.12 -202.59,94.05 -361.75,61.5 14.47,18.09 18.09,7.23 36.18,36.18l-25.32 75.96c43.41,-50.64 10.86,-47.03 54.27,-65.12 0,39.78 -57.88,94.05 -61.5,180.87 28.94,-54.27 43.41,-115.76 90.44,-148.32 -36.18,79.59 -75.96,126.61 -72.35,238.76 39.78,-83.19 39.78,-220.67 137.46,-264.08 -32.56,54.27 -57.88,54.27 -90.44,162.78 -18.09,65.12 -32.56,141.09 -25.33,213.43 7.24,-126.61 86.82,-376.22 206.2,-401.54 -50.65,90.44 -90.45,133.85 -130.23,256.83 -79.59,249.6 -21.71,589.65 -513.69,643.91 -3.62,-3.62 3.63,-25.32 -28.94,-36.17 -7.23,21.71 3.62,18.08 -7.23,36.17 -57.88,3.63 -137.46,0 -177.26,-21.71l144.69 -32.55c0,-3.63 3.62,-3.63 7.23,0l-238.76 0c43.41,-39.79 72.36,-18.09 144.7,-18.09 137.46,-3.62 278.54,-36.18 387.06,-112.14 -104.91,28.94 -253.22,122.99 -444.95,75.96 50.64,-25.32 -14.47,-25.32 122.99,-25.32 209.82,3.62 307.5,-108.53 372.6,-119.37 -108.53,50.64 -256.83,108.53 -416,94.05l249.6 -54.27c-75.97,10.86 -115.77,25.32 -198.96,21.72 28.94,-18.09 36.17,-14.47 75.96,-21.72 28.95,-3.62 202.58,-39.78 209.82,-61.49 0,-3.63 3.62,-3.63 7.23,-3.63 -86.82,18.09 -148.32,50.64 -253.23,50.64 3.63,0 3.63,-3.62 7.24,-3.62 54.26,-28.94 61.49,-7.23 184.49,-47.03 61.5,-21.71 104.91,-54.27 148.32,-72.36 -50.64,21.72 -195.35,79.59 -256.84,79.59 -47.03,0 -21.71,3.62 -36.17,-10.85 39.78,-21.72 104.9,-28.95 148.31,-43.41 43.41,-14.47 90.45,-43.41 123,-50.65 -72.35,10.86 -151.94,54.27 -242.37,61.5 21.71,-43.41 47.03,-36.18 104.91,-54.26 36.18,-10.86 68.73,-32.56 101.28,-36.18l-170.01 36.18c14.46,-43.41 39.78,-86.82 57.87,-133.86 86.82,-267.69 25.32,-394.31 36.18,-488.36l43.41 39.79c10.86,-18.09 -3.62,-14.47 0,-28.95 25.32,14.47 47.03,32.56 83.2,32.56 -36.18,-10.86 -90.45,-47.03 -108.54,-75.97 -28.94,-47.03 7.24,-101.28 28.95,-141.08l-28.95 39.79c-10.85,18.09 -14.46,28.94 -25.32,47.03 -14.46,0 0,7.23 -18.08,-18.09 3.62,112.14 -10.86,-10.85 -14.47,54.27 0,10.85 7.23,39.78 10.86,61.49 -7.24,-25.32 -25.33,-39.78 -36.18,-57.87l28.94 104.91c-14.46,-21.71 -39.78,-54.27 -50.64,-75.97 14.47,39.79 54.27,104.91 54.27,155.55 0,-10.85 -7.24,-21.71 -14.47,-36.17l-28.94 -32.56c14.46,57.88 39.78,83.2 47.03,155.55 -25.32,-50.64 -57.88,-115.76 -86.82,-162.78 25.32,75.96 72.35,155.55 72.35,245.99 -28.94,-47.03 -14.46,-79.58 -90.44,-191.72 28.95,79.58 68.73,159.17 75.97,256.83 -10.86,-14.46 -3.63,3.62 -18.09,-28.94l-65.12 -173.64c10.85,86.82 72.35,191.72 57.87,300.24 -10.86,-104.91 -39.79,-137.46 -65.12,-220.67 7.23,101.29 57.87,151.94 39.79,285.78 -32.56,-50.64 -10.86,-191.73 -61.5,-264.08 10.85,101.28 50.64,227.9 10.85,325.58 -3.62,-39.79 -3.62,-75.97 -3.62,-119.38l-7.23 -72.35c0,-3.62 -3.63,-10.85 -3.63,-14.46 0,-3.63 0,-3.63 -3.62,-7.24 0,72.36 3.62,155.55 -7.23,231.52l-18.09 57.87c3.62,-68.73 25.32,-170.01 0,-231.51 -21.71,57.87 -14.47,188.1 -43.41,260.46 7.23,-72.36 21.71,-108.54 21.71,-195.35 -7.23,7.23 -7.23,7.23 -10.85,25.32 -28.95,79.58 7.23,86.82 -79.59,256.83 21.71,-83.19 47.03,-141.08 50.64,-245.99 -28.94,47.03 -43.41,206.19 -112.14,274.92 28.95,-101.28 83.2,-206.19 79.59,-325.58 -18.09,108.53 -101.29,336.42 -170.02,379.83 28.95,-112.14 83.2,-122.99 130.23,-332.81 36.18,-166.4 65.12,-231.51 -65.12,-329.19 21.71,43.41 57.88,72.36 68.73,141.09 -32.55,-54.27 -115.76,-166.41 -191.73,-162.78 65.13,39.78 155.55,173.63 148.32,303.86 -3.62,97.68 -72.35,256.84 -119.37,329.19 -133.85,217.05 -173.64,195.35 -307.49,365.37 -21.71,28.94 -68.73,122.99 -79.59,133.85 -28.94,-36.18 -32.55,-54.27 -79.59,-65.12 36.18,25.32 57.88,50.64 61.5,101.28 -28.94,-36.17 -43.41,-57.87 -79.58,-79.58 50.64,97.67 101.28,137.46 54.26,289.4 -28.94,94.05 -83.19,173.64 -191.73,180.87 75.97,-28.95 141.09,-57.88 151.94,-148.32 -7.23,28.95 -61.49,72.36 -94.05,86.82 -61.5,28.95 -90.44,18.09 -151.94,28.95l21.71 28.94c-39.78,-3.62 -47.03,-7.23 -65.12,-43.41 14.47,-97.68 126.61,-36.18 191.73,-65.12 -57.88,-21.71 -123,-28.95 -180.87,0 3.62,-43.41 0,-32.56 32.55,-39.79 -28.94,-10.85 -28.94,21.71 -14.46,-43.41 14.46,-57.87 65.12,-166.4 148.31,-137.46 21.72,7.23 32.56,25.32 43.41,39.79 14.47,18.09 3.63,7.23 14.47,18.09 -7.23,-123 -50.64,-86.82 -112.14,-112.14 47.03,-18.09 47.03,-18.09 94.05,0 -32.55,-50.65 -79.59,-36.18 -126.6,-10.86 7.23,-47.03 14.46,-39.79 28.94,-68.73l3.62 -14.47c21.71,-90.44 65.12,-206.19 166.41,-97.67 -14.47,-43.41 -54.27,-83.2 -108.53,-57.88 7.23,-61.49 32.55,-115.76 43.41,-195.35 10.85,-79.58 7.23,-133.85 28.94,-209.81 18.09,-65.12 39.79,-123 50.64,-195.35 7.24,-50.64 7.24,-159.18 -21.71,-206.19 -18.09,72.35 10.86,119.37 0,191.72 -7.23,50.64 -36.17,108.53 -47.03,162.79 -25.32,119.37 -7.23,267.69 -43.41,376.22l-68.73 0 43.41 28.94c-50.64,3.62 -65.12,-7.23 -101.29,-25.32 32.56,36.18 39.79,28.94 86.82,50.64 -86.82,14.47 -94.05,-25.32 -148.31,-50.64 18.08,14.46 54.26,43.41 72.35,61.5 -61.5,-10.86 -83.2,-32.56 -133.85,-47.04l25.32 25.33c10.85,10.85 18.09,14.46 25.32,21.71 -68.73,-14.47 -104.91,-57.88 -159.17,-83.2 14.46,25.32 14.46,18.09 36.17,39.79 18.09,18.09 21.72,21.71 36.18,32.55 -50.64,-18.09 -101.28,-50.64 -141.08,-75.96 21.71,21.71 32.55,25.32 47.03,54.26 -65.12,-28.94 -162.78,-104.9 -202.58,-151.94 7.23,43.41 61.49,101.29 90.44,123 -3.62,0 -3.62,3.62 -7.23,3.62 0,0 -3.63,3.63 -7.24,3.63l-10.85 3.62c0,0 -14.47,-3.62 -18.09,-3.62 32.55,14.46 68.73,39.78 101.28,57.87l-119.37 -32.55c3.62,0 144.69,57.87 144.69,57.87 -43.41,18.09 -137.46,-25.32 -180.87,-36.17 18.09,18.08 28.95,25.32 57.88,36.17l47.03 18.09c0,0 3.62,7.23 7.23,3.62 0,-3.62 3.63,3.63 7.24,3.63 -57.88,3.62 -137.47,-14.47 -173.64,-43.41 28.94,36.17 104.91,47.03 137.46,68.73 -68.73,3.62 -94.05,-10.86 -148.32,-28.95 43.41,32.56 94.05,36.18 133.85,61.5 -72.35,0 -83.19,-10.85 -141.08,-25.32 32.55,25.32 65.12,28.95 108.53,43.41 -86.82,14.47 -151.94,-36.18 -217.05,-57.87 28.95,25.32 83.2,61.49 123,68.73 -57.88,0 -148.32,-50.65 -191.73,-72.36l123 86.82 -148.32 -65.12c39.79,39.79 79.59,47.03 123,79.59 -50.65,-7.24 -86.82,-32.56 -130.23,-47.04 36.17,39.79 50.64,32.56 79.58,57.88 -47.03,-3.62 -112.14,-21.71 -144.69,-50.64 -3.62,-3.63 -14.47,-18.09 -18.09,-18.09 -14.46,-18.09 -3.62,-3.62 -10.85,-14.47l-18.09 -3.62c18.09,32.55 36.17,57.87 50.64,83.2l-68.73 -28.95c10.85,21.71 94.05,65.12 112.14,72.36 -54.27,-7.24 -94.05,-32.56 -137.46,-50.65 65.12,72.36 112.14,50.65 195.35,90.45 -72.36,10.85 -104.91,-10.86 -166.41,-28.95 39.79,39.79 112.14,36.18 148.32,54.27 -79.59,21.71 -126.61,-18.09 -195.35,-36.18 18.09,14.47 39.79,28.94 68.73,39.79 36.18,14.46 61.5,14.46 90.44,32.55 -90.44,14.47 -191.72,-36.18 -231.51,-75.96 54.26,75.96 83.19,61.49 170.01,104.9 -72.35,10.86 -126.6,-28.94 -177.26,-54.26 18.09,28.94 68.73,54.26 101.29,68.73 -72.36,0 -119.38,-47.03 -155.55,-75.96 28.94,54.26 54.26,54.26 101.28,97.67 -50.64,0 -97.67,-21.71 -115.76,-47.03 14.46,32.55 25.32,50.64 61.5,68.73 -14.47,10.86 -32.56,10.86 -50.65,10.86l57.88 21.71c3.62,0 7.23,3.62 7.23,3.62l-75.96 7.23 65.12 18.09c-43.41,14.47 -75.96,7.23 -123,0l94.05 32.55c-75.96,14.47 -86.81,3.63 -155.55,-3.62 39.79,3.62 65.13,21.71 144.7,21.71 -54.27,36.18 -126.61,10.86 -180.87,3.63 36.17,7.23 86.82,21.71 137.46,28.94l-14.47 7.23c-54.26,10.86 -108.53,-7.23 -162.78,-21.71 50.64,32.56 101.29,28.95 155.55,47.03 -79.59,3.63 -104.91,-14.46 -170.01,-21.71l141.08 39.79 -79.59 0c3.63,3.62 -10.85,21.71 36.18,14.46 -54.26,10.86 -94.05,-7.23 -141.08,-18.08l36.17 21.71c-278.54,-10.86 7.24,-238.76 75.97,-307.49 14.46,-14.47 21.71,-21.71 36.17,-36.18l28.95 -28.94c10.85,-10.86 3.62,-3.63 18.09,-14.47l25.32 39.79c-18.09,-90.45 32.55,-115.77 72.35,-159.18 39.79,-47.03 57.88,-90.44 104.91,-141.08 28.94,36.18 0,72.35 28.94,25.32 -32.55,-83.2 126.61,-144.69 195.35,-177.26 47.04,-21.71 94.06,-39.79 141.09,-61.5l94.05 -50.64c21.71,-7.23 -10.86,21.71 18.09,-3.62l90.44 -79.59c28.95,7.23 18.09,0 28.95,25.32 0,-43.41 3.62,-32.55 14.46,-43.41l10.86 32.55c-3.63,-32.55 0,-43.41 14.46,-68.73 21.71,28.95 0,32.56 25.32,68.73 -10.85,-43.41 -14.46,-39.78 -10.85,-94.05l14.46 36.18c3.63,14.46 3.63,18.09 10.86,32.55 10.85,25.32 25.32,39.79 39.79,50.64 -39.79,-61.49 -68.74,-108.53 -18.09,-180.87 180.87,-253.22 180.87,-466.65 535.38,-694.55 108.53,-68.73 231.51,-184.49 289.4,-198.96 -50.64,79.59 -242.37,198.96 -321.96,256.83 54.27,-3.62 227.91,-119.37 267.69,-151.94l112.14 -97.67c83.2,-72.36 57.88,-72.36 133.86,-79.59l-50.65 -14.46c54.27,-14.47 57.88,-21.71 123,-32.56l-90.44 7.24c39.79,-39.79 68.73,-32.56 130.23,-43.41l-101.29 7.23c50.65,-86.82 119.38,-65.12 159.18,-79.59l-101.29 7.23c25.32,-21.71 21.71,-14.46 43.41,-18.08l-14.46 -7.24c0,0 -3.63,-3.62 -3.63,-3.62 -25.32,-14.46 -3.62,7.23 -7.23,-3.62 54.27,-25.32 94.05,-14.47 155.55,-10.86 -47.03,-28.94 -90.44,-10.85 -141.08,-14.46 18.08,-21.72 39.78,-54.27 61.49,-75.97l224.28 -206.19 -50.64 0c-25.32,25.32 -57.87,47.03 -86.82,68.73 -90.44,72.36 -202.58,213.43 -231.51,224.28 198.96,-267.69 191.73,-198.96 260.46,-271.31l18.09 -21.71c-54.27,0 -47.04,-7.24 -83.2,21.71 -101.29,79.58 -137.46,119.37 -217.05,220.67 -72.35,90.44 -166.4,198.96 -245.99,271.31l-376.22 325.58c-28.95,21.71 -61.5,61.5 -86.82,83.2 -166.42,159.35 -343.68,535.56 -390.7,564.5l0 0z"/>
     <path class="fil0" d="M8314.89 223.15l0 -36.18 -7.23 0c-7.23,36.18 -47.03,50.64 -101.29,86.82 -372.59,224.28 -759.67,274.92 -911.6,405.15 39.79,-14.46 83.2,-39.78 126.61,-57.87 340.04,-141.09 513.68,-90.44 839.25,-350.9 25.32,-21.7 25.32,-32.56 54.26,-47.02l0 0z"/>
     <path class="fil0" d="M5963.54 1984.85c28.94,-10.85 173.64,-180.87 209.81,-220.67 47.04,-54.26 115.77,-206.19 108.54,-307.49 -21.73,173.66 -314.74,441.35 -318.35,528.16l0 0z"/>
     <path class="fil0" d="M5927.36 1901.65c39.79,-61.5 123,-340.05 -7.23,-336.43 -10.86,57.88 32.55,75.97 28.94,159.18 -0.01,65.1 -21.71,115.75 -21.71,177.25z"/>
     <path class="fil0" d="M5789.9 1279.44c0,-3.62 3.62,-7.23 3.62,-7.23 0,0 3.63,-3.62 3.63,-7.23 0,-3.62 3.62,-10.86 7.23,-14.47 32.55,-68.73 94.05,-115.76 180.87,-119.37 112.14,-3.62 159.17,68.73 202.58,133.85 -39.81,-202.59 -390.7,-213.45 -397.93,14.45z"/>
     <path class="fil0" d="M6632.76 1869.09c-7.23,-36.18 -10.86,-39.79 -39.79,-18.09 10.86,28.95 3.62,39.8 39.79,18.09z"/>
     <path class="fil0" d="M5934.59 2039.11c7.24,-36.18 10.86,-10.86 -7.23,-36.18 -43.41,10.86 -32.57,36.18 7.23,36.18z"/>
    </g>
    <path class="fil0" d="M6748.52 577.66c0,-25.32 3.62,-25.32 21.71,-54.27 90.45,-133.85 224.28,-188.1 379.83,-249.6 133.86,-54.26 434.1,-126.61 524.54,-198.96l-43.41 0c-119.37,50.64 -249.6,101.29 -383.45,141.09 -72.35,21.71 -141.09,65.12 -198.96,25.32 -28.94,-21.71 -39.79,-39.79 -72.35,-43.41l-18.09 -3.63c-25.32,-3.62 -3.63,-3.62 -21.71,-3.62 -3.63,0 -39.79,10.86 -47.04,14.47 43.41,18.08 68.73,54.26 108.53,75.96l-25.32 3.62c-36.17,10.86 14.47,18.09 -57.87,-14.46 18.09,25.32 3.62,10.85 32.55,25.32l-21.71 18.09c0,0 -3.62,0 0,3.62 -36.18,-18.09 -86.82,-50.64 -123,-61.5 3.63,3.63 3.63,3.63 7.24,7.23l101.28 72.36c-14.46,18.09 -47.03,36.18 -104.91,104.91 -25.32,28.94 -54.26,65.12 -61.5,101.28 -7.21,32.55 0.03,32.55 3.64,36.18l0 0z"/>
    <path class="fil0" d="M3630.26 4202.36c0,10.85 0,43.41 21.71,21.71 21.7,-21.71 -10.85,-21.71 -21.71,-21.71z"/>
    <path class="fil0" d="M4039.04 4582.2c-39.79,10.86 -32.56,21.71 7.23,28.94l-7.23 -28.94z"/>
   </g>
  </g>
 </g>
</svg>
