<?xml version="1.0" encoding="UTF-8"?>
<!DOCTYPE svg PUBLIC "-//W3C//DTD SVG 1.0//EN" "http://www.w3.org/TR/2001/REC-SVG-20010904/DTD/svg10.dtd">
<!-- Creator: CorelDRAW -->
<svg xmlns="http://www.w3.org/2000/svg" xml:space="preserve" width="84mm" height="53mm" version="1.0" style="shape-rendering:geometricPrecision; text-rendering:geometricPrecision; image-rendering:optimizeQuality; fill-rule:evenodd; clip-rule:evenodd"
viewBox="0 0 8400 5300"
 xmlns:xlink="http://www.w3.org/1999/xlink"
 xmlns:xodm="http://www.corel.com/coreldraw/odm/2003">
 <defs>
  <style type="text/css">
   <![CDATA[
    .fil0 {fill:black}
    .fil1 {fill:black;fill-rule:nonzero}
   ]]>
  </style>
 </defs>
 <g id="Слой_x0020_1">
  <metadata id="CorelCorpID_0Corel-Layer"/>
  <g id="_105553256176192">
   <path class="fil0" d="M3107.08 3755.71c-63.77,28.35 -155.88,-155.87 49.6,-173.59 251.53,-17.71 170.05,81.49 191.3,173.59l7.09 10.63c42.51,-42.51 17.71,-173.59 -38.97,-198.39 -49.6,-21.25 -187.76,-17.71 -240.9,3.54 -120.46,49.6 -116.91,258.62 177.13,219.65l-138.17 -24.8c24.8,-46.06 17.72,-95.65 -17.71,-138.17 7.09,49.61 24.8,85.03 10.63,127.54zm3588.72 -3135.26c0,-24.8 3.54,-24.8 21.26,-53.14 88.56,-131.08 219.64,-184.22 371.97,-244.44 131.08,-53.14 425.12,-123.99 513.69,-194.85l-42.51 0c-116.91,49.6 -244.45,99.2 -375.53,138.17 -70.85,21.25 -138.16,63.76 -194.84,24.8 -28.35,-21.26 -38.97,-38.97 -70.86,-42.52l-17.71 -3.54c-24.8,-3.54 -3.54,-3.54 -21.26,-3.54 -3.54,0 -38.97,10.63 -46.05,14.17 42.51,17.71 67.31,53.14 106.28,74.4l-24.8 3.54c-35.43,10.63 14.17,17.71 -56.69,-14.17 17.72,24.8 3.55,10.62 31.89,24.8l-21.26 17.71c0,0 -3.54,0 0,3.54 -35.43,-17.71 -85.02,-49.59 -120.45,-60.22 3.54,3.54 3.54,3.54 7.09,7.08l99.19 70.86c-14.17,17.71 -46.05,35.43 -102.74,102.74 -24.8,28.34 -53.14,63.76 -60.22,99.19 -7.08,31.88 0.01,31.88 3.55,35.42zm-938.81 687.28c0,-3.54 3.55,-7.08 3.55,-7.08 0,0 3.54,-3.55 3.54,-7.09 0,-3.54 3.54,-10.63 7.08,-14.17 31.89,-67.31 92.11,-113.37 177.14,-116.91 109.82,-3.54 155.88,67.31 198.39,131.08 -38.97,-198.39 -382.61,-209.02 -389.7,14.17zm134.63 609.34c38.96,-60.23 120.45,-333.01 -7.09,-329.47 -10.63,56.68 31.88,74.4 28.34,155.88 0,63.77 -21.25,113.36 -21.25,173.59zm35.42 81.48c28.34,-10.63 170.05,-177.13 205.48,-216.1 46.05,-53.14 113.36,-201.93 106.28,-301.13 -21.26,170.05 -308.22,432.21 -311.76,517.23zm2302.73 -1725.28l0 -35.43 -7.08 0.01c-7.09,35.42 -46.05,49.59 -99.2,85.02 -364.89,219.65 -743.96,269.25 -892.75,396.78 38.97,-14.17 81.48,-38.97 123.99,-56.68 333.01,-138.17 503.06,-88.57 821.9,-343.64 24.8,-21.26 24.8,-31.89 53.14,-46.06zm-1480.14 2387.19c-5.09,42.73 -53.72,80.9 -135.31,74.97 -46.47,-3 -86.25,-16.65 -117.82,-36.17l-18.9 3.03c98.15,70.98 262.52,90.98 294.37,-45.08l-22.34 3.25zm-963.97 163.63c-15.83,15.63 -30.17,28.23 -39.29,35.33 30.93,-10.31 51.02,-25.62 67.56,-40.68l-28.27 5.35zm64.02 -12.07c-7.19,12.96 -14.15,19.16 -25.38,43.85 21.02,-10.5 43.97,-30.74 61.66,-50.61 -12.07,2.24 -24.16,4.49 -36.28,6.76zm50.22 -9.35c-10.81,52.81 -53.6,98.17 -79.14,120.51 63.77,-14.17 74.4,-56.68 113.37,-102.73 0,56.68 -38.97,109.82 -67.31,127.53 60.22,-24.8 53.14,-38.96 81.48,-74.39 10.63,-10.63 7.08,-10.63 14.17,-17.72 -7.09,56.69 -24.8,67.31 -35.43,109.83 49.6,-46.06 35.43,-49.6 67.31,-109.83 3.54,42.52 -3.54,74.4 -17.71,106.28 24.8,-38.97 24.8,-21.25 46.05,-88.56 28.35,49.59 14.18,70.85 17.72,123.99l28.34 -77.94 17.71 148.8 14.18 -77.94c10.62,74.39 3.54,81.48 -7.09,141.7 28.34,-49.59 28.34,-56.68 28.34,-127.53 21.26,74.39 3.54,109.82 -35.43,166.5 28.34,-10.62 60.23,-46.05 60.23,-85.02 3.54,95.65 -56.69,102.74 -113.37,134.62 70.86,7.09 88.57,-10.63 120.45,-46.05 -60.22,209.01 -290.5,-120.46 -407.4,-173.59l77.93 -31.89c-102.73,-10.63 -116.9,-7.08 -134.62,-106.28 -1.45,-7.02 -2.92,-13.55 -4.41,-19.67l-34.15 6.61c10.69,40.63 25.23,83.78 49.19,122.88l124 99.2c31.88,24.8 70.85,81.48 106.28,116.91 109.82,116.9 226.73,99.19 258.61,-42.52 116.91,-28.34 102.74,-21.25 159.42,-116.9 16.04,-152.39 -62.73,-207.94 -103.88,-288.45 -60.75,10.43 -122.11,21.21 -184.05,32.31 46.85,10.81 96.95,10.3 132.06,-13.11 -31.89,49.59 -42.52,31.88 -95.66,53.14 60.23,7.08 74.4,-10.63 116.91,-31.88 -7.09,35.42 -46.05,53.14 -95.65,56.68 67.31,10.63 67.31,-14.17 120.45,-21.26 -14.17,28.34 -42.51,35.43 -74.4,53.14 49.6,0 56.69,-7.08 88.57,-24.8 -10.63,38.97 -35.43,38.97 -67.31,56.69 42.51,-3.54 60.22,-14.18 88.56,-31.89 -7.08,42.52 -17.71,42.52 -56.68,56.69 38.97,0 42.52,-10.63 70.86,-24.8 -17.72,28.34 -24.8,35.42 -46.06,49.59 14.17,-3.54 14.17,-7.08 24.8,-7.08 24.8,-3.54 10.63,-3.54 21.26,3.54 -21.26,24.8 -31.89,28.34 -46.06,46.05l53.14 -24.8c-21.25,28.35 -14.17,28.35 -46.05,42.52 46.05,24.8 -31.89,-3.54 31.88,7.08 0,0 3.54,0 3.54,0 -14.17,7.09 -49.59,31.89 -63.77,42.52l67.31 -21.26c-17.71,7.09 -49.59,53.14 -88.56,60.23 35.43,3.54 53.14,-14.18 81.48,-24.8 -17.71,31.88 -35.43,49.59 -88.56,46.05 -42.52,-106.28 -35.43,-155.88 -109.83,-244.44 -30.12,-35.14 -64.97,-62.38 -94.87,-90.66 -29.26,5.33 -58.64,10.73 -88.15,16.2zm-145.17 -247.65c9.87,-18.25 20.06,-40.39 30.61,-67.58 0,0 0,-3.54 3.54,-7.08l1.76 -5.29 0.01 -0.03 1.77 -11.17 0 -1.23c2.32,-13.93 0.08,-14.16 3.25,-19.65 15.05,-97.86 21.75,-152.87 63.11,-262.51 5.41,-14.37 38.35,-68.51 58.02,-98.03l61.09 -10.76c49.84,-79.55 123.58,-153.23 229.02,-140.45 122.52,12.9 192.23,55.13 318.6,43.93l99.18 -17.48c5.87,-10.29 156.73,-43.01 303.66,-202.67 56.84,-56.84 95.79,-221.74 118.17,-298.5 21.26,-74.39 46.06,-148.79 67.31,-223.19 53.15,-177.13 99.2,-265.7 286.96,-311.75 166.51,-38.97 333.01,-53.14 478.26,-124 138.17,-67.31 279.87,-198.38 361.35,-237.35l0 -28.34c-49.6,21.25 -102.74,60.22 -145.25,88.56 -524.31,329.47 -538.48,166.51 -832.52,311.76 -131.08,63.76 -198.39,92.11 -354.27,60.22 14.17,17.71 17.71,7.09 35.43,35.43l-24.8 74.39c42.51,-49.59 10.62,-46.05 53.14,-63.77 0,38.97 -56.69,92.11 -60.23,177.14 28.34,-53.14 42.52,-113.37 88.57,-145.25 -35.43,77.94 -74.4,123.99 -70.86,233.82 38.97,-81.49 38.97,-216.11 134.62,-258.62 -31.88,53.14 -56.68,53.14 -88.56,159.42 -17.71,63.77 -31.88,138.17 -24.8,209.02 7.09,-123.99 85.02,-368.44 201.93,-393.24 -49.6,88.57 -88.57,131.08 -127.54,251.53 -77.94,244.45 -21.25,577.46 -503.06,630.6 -17.26,0.55 -19.78,0.86 -35.42,0 -56.69,3.54 -134.62,0 -173.59,-21.26l141.7 -31.88c0,-3.54 3.55,-3.54 7.09,0l-233.82 0c42.52,-38.97 70.86,-17.71 141.71,-17.71 134.62,-3.54 272.79,-35.43 379.07,-109.83 -102.74,28.35 -247.99,120.46 -435.75,74.4 49.59,-24.8 -14.17,-24.8 120.45,-24.8 205.47,3.54 301.13,-106.28 364.89,-116.91 -106.27,49.6 -251.53,106.28 -407.4,92.11l244.44 -53.14c-74.39,10.63 -113.36,24.8 -194.84,21.26 28.34,-17.72 35.42,-14.17 74.39,-21.26 28.34,-3.54 198.39,-38.97 205.48,-60.22 0,-3.54 3.54,-3.54 7.08,-3.54 -85.02,17.71 -145.25,49.59 -247.98,49.59 3.54,0 3.54,-3.54 7.08,-3.54 53.14,-28.34 60.23,-7.08 180.68,-46.05 60.22,-21.26 102.74,-53.14 145.25,-70.86 -49.6,21.26 -191.31,77.94 -251.53,77.94 -46.06,0 -21.26,3.54 -35.43,-10.63 38.97,-21.25 102.74,-28.34 145.25,-42.51 42.51,-14.17 88.56,-42.51 120.45,-49.6 -70.86,10.63 -148.79,53.14 -237.36,60.23 21.26,-42.52 46.06,-35.43 102.74,-53.14 35.43,-10.63 67.31,-31.89 99.19,-35.43l-166.5 35.43c14.17,-42.52 38.97,-85.03 56.68,-131.08 85.02,-262.16 24.8,-386.15 35.43,-478.26l42.51 38.96c10.63,-17.71 -3.54,-14.17 0,-28.34 24.8,14.18 46.06,31.89 81.48,31.89 -35.42,-10.63 -88.56,-46.06 -106.28,-74.4 -28.34,-46.06 7.09,-99.2 28.35,-138.17l-28.35 38.97c-10.62,17.72 -14.17,28.34 -24.8,46.06 -14.17,0 0,7.08 -17.71,-17.72 3.54,109.83 -10.63,-10.62 -14.17,53.15 0,10.62 7.09,38.96 10.63,60.22 -7.09,-24.8 -24.8,-38.97 -35.43,-56.68l28.34 102.74c-14.17,-21.26 -38.97,-53.15 -49.6,-74.4 14.18,38.97 53.15,102.74 53.15,152.33 0,-10.62 -7.09,-21.25 -14.18,-35.42l-28.34 -31.89c14.17,56.69 38.97,81.49 46.06,152.34 -24.8,-49.6 -56.69,-113.37 -85.03,-159.42 24.8,74.39 70.86,152.33 70.86,240.9 -28.34,-46.06 -14.17,-77.94 -88.57,-187.76 28.34,77.94 67.31,155.88 74.4,251.53 -10.63,-14.17 -3.54,3.54 -17.72,-28.34l-63.76 -170.05c10.62,85.02 70.85,187.76 56.68,294.04 -10.63,-102.74 -38.97,-134.62 -63.77,-216.1 7.09,99.19 56.68,148.79 38.97,279.87 -31.88,-49.6 -10.63,-187.76 -60.23,-258.61 10.63,99.19 49.6,223.18 10.63,318.84 -3.54,-38.97 -3.54,-74.4 -3.54,-116.91l-7.09 -70.86c0,-3.54 -3.54,-10.62 -3.54,-14.17 0,-3.54 0,-3.54 -3.54,-7.08 0,70.85 3.54,152.33 -7.08,226.73l-17.72 56.68c3.54,-67.31 24.8,-166.51 0,-226.73 -21.25,56.68 -14.17,184.22 -42.51,255.07 7.08,-70.85 21.25,-106.28 21.25,-191.3 -7.08,7.08 -7.08,7.08 -10.62,24.8 -28.35,77.94 7.08,85.02 -77.94,251.53 21.25,-81.48 46.05,-138.17 49.59,-240.91 -28.34,46.06 -42.51,201.94 -109.82,269.25 28.34,-99.2 81.48,-201.93 77.94,-318.84 -17.71,106.28 -99.2,329.47 -166.51,371.98 28.34,-109.83 81.48,-120.45 127.54,-325.93 35.43,-162.96 63.77,-226.73 -63.77,-322.38 21.26,42.51 56.68,70.85 67.31,138.16 -31.88,-53.14 -113.36,-162.96 -187.76,-159.42 63.77,38.97 152.33,170.05 145.25,297.59 -3.54,95.65 -70.86,251.53 -116.91,322.38 -131.08,212.56 -170.05,191.3 -301.13,357.81 -21.25,28.34 -67.31,120.45 -77.93,131.08 -28.35,-35.43 -31.89,-53.14 -77.94,-63.77 35.43,24.8 56.68,49.6 60.22,99.2 -28.34,-35.43 -42.51,-56.69 -77.94,-77.94 49.6,95.65 99.2,134.62 53.15,283.41 -28.35,92.11 -81.49,170.05 -187.77,177.14 74.4,-28.35 138.17,-56.69 148.8,-145.25 -7.09,28.34 -60.23,70.85 -92.11,85.02 -60.23,28.34 -88.57,17.72 -148.8,28.34l21.26 28.34c-38.97,-3.54 -46.06,-7.08 -63.77,-42.51 14.17,-95.65 123.99,-35.43 187.76,-63.77 -56.68,-21.25 -120.45,-28.34 -177.13,0 0.44,-5.31 12.55,-58.24 17.71,-81.48 14.17,-56.68 63.77,-162.96 145.25,-134.62 21.25,7.09 31.88,24.8 42.51,38.97 14.17,17.71 3.54,7.08 14.17,17.71 -7.08,-120.45 -49.59,-85.02 -109.82,-109.82 46.05,-17.72 46.05,-17.72 92.11,0 -31.88,-49.6 -77.94,-35.43 -123.99,-10.63 7.08,-46.05 14.17,-38.97 28.34,-67.31l3.54 -14.17c21.25,-88.57 63.77,-201.93 162.96,-95.65 -14.17,-42.52 -53.14,-81.49 -106.28,-56.69 7.09,-60.22 31.88,-113.36 42.51,-191.3 10.63,-77.94 7.09,-131.08 28.35,-205.47 17.71,-63.77 38.97,-120.46 49.59,-191.31 7.09,-49.59 7.09,-155.88 -21.25,-201.93 -17.72,70.86 10.63,116.91 0,187.76 -7.09,49.6 -35.43,106.28 -46.06,159.42 -24.8,116.91 -7.08,262.16 -42.51,368.44l-67.31 0 42.51 28.34c-49.59,3.54 -63.77,-7.08 -99.19,-24.8 31.88,35.43 38.97,28.34 85.02,49.6 -85.02,14.17 -92.11,-24.8 -145.25,-49.6 17.72,14.17 53.14,42.52 70.86,60.23 -60.23,-10.63 -81.49,-31.89 -131.08,-46.06l24.8 24.8c10.62,10.63 17.71,14.17 24.8,21.26 -67.31,-14.18 -102.74,-56.69 -155.88,-81.49 14.17,24.8 14.17,17.72 35.43,38.97 17.71,17.72 21.25,21.26 35.42,31.89 -49.59,-17.72 -99.19,-49.6 -138.16,-74.4 21.25,21.25 31.88,24.8 46.05,53.14 -63.77,-28.34 -159.42,-102.74 -198.39,-148.79 7.09,42.51 60.23,99.19 88.57,120.45 -3.54,0 -3.54,3.54 -7.09,3.54 0,0 -3.54,3.54 -7.08,3.54l-10.63 3.54c0,0 -14.17,-3.54 -17.71,-3.54 31.88,14.17 67.31,38.97 99.19,56.68l-116.9 -31.88c3.54,0 141.7,56.68 141.7,56.68 -42.51,17.72 -134.62,-24.8 -177.13,-35.42 17.71,17.71 28.34,24.8 56.68,35.42l46.06 17.72c0,0 3.54,7.08 7.08,3.54 0,-3.54 3.54,3.54 7.09,3.54 -56.69,3.54 -134.62,-14.17 -170.05,-42.51 28.34,35.43 102.74,46.05 134.62,67.31 -67.31,3.54 -92.11,-10.63 -145.25,-28.34 42.52,31.88 92.11,35.42 131.08,60.22 -70.85,0 -81.48,-10.63 -138.16,-24.8 31.88,24.8 63.76,28.34 106.28,42.51 -85.03,14.18 -148.8,-35.42 -212.57,-56.68 28.34,24.8 81.49,60.23 120.46,67.31 -56.69,0 -145.25,-49.59 -187.77,-70.85l120.45 85.02 -145.24 -63.77c38.97,38.97 77.93,46.06 120.45,77.94 -49.6,-7.08 -85.03,-31.88 -127.54,-46.05 35.43,38.97 49.6,31.88 77.94,56.68 -46.06,-3.54 -109.83,-21.26 -141.71,-49.6 -3.54,-3.54 -14.17,-17.71 -17.71,-17.71 -14.17,-17.72 -3.54,-3.54 -10.63,-14.17l-17.71 -3.55c17.71,31.89 35.42,56.69 49.59,81.49l-67.31 -28.34c10.63,21.25 92.11,63.76 109.83,70.85 -53.14,-7.09 -92.11,-31.88 -134.62,-49.6 63.76,70.86 109.82,49.6 191.3,88.57 -70.86,10.63 -102.74,-10.63 -162.96,-28.34 32.41,32.41 86.86,35.41 124.66,45.7l94 -16.57c11.25,-19.54 13.58,-28.74 68.3,-36.2 209.01,-24.8 233.81,-138.17 325.92,-159.42 49.6,-14.18 95.66,10.62 141.71,14.17 53.14,3.54 92.11,-10.63 138.17,-14.17 -9.47,27.05 -18.68,54.32 -27.76,81.7l3.96 -0.7c-23.85,90.76 -40.87,180.52 -75.31,252.19 -75.36,156.88 -96.64,271.16 36.67,289.26l0.32 0.02c54.21,3.31 100.68,-9.82 143.26,-28.69 51.99,-31.52 91.26,-66.89 118.52,-108.17zm462.68 -525.55c8.01,-10.28 15.27,-21.68 21.38,-34.47 -2.97,6.95 -16.81,20.86 -36.42,37.12l15.04 -2.65zm-85.62 15.09c19.6,-19.24 37.27,-39.44 53.86,-60.18 -11.01,12.58 -41.58,38.44 -76.82,64.23l22.96 -4.05zm-68.88 12.14c22.52,-20.18 41.9,-41.93 51.89,-65.24 -15.05,19.35 -49.65,47.83 -85.63,71.19l33.74 -5.95zm-851.49 -518.7c-14.17,77.94 -198.39,209.02 -265.7,233.82 -17.71,24.8 -258.61,113.37 -304.67,131.08 -10.62,14.17 -56.68,42.51 -74.39,60.22 -21.26,21.26 -38.97,46.06 -56.68,77.94 -38.97,81.48 -53.15,113.37 -102.74,173.59 -32.37,38.44 -110.94,104.6 -175.7,164.84l43.29 -7.62c23.64,-22.27 44.88,-41.36 58.01,-54.5 14.17,-14.17 21.26,-21.25 35.43,-35.42l28.34 -28.34c10.63,-10.63 3.54,-3.55 17.71,-14.18l24.8 38.97c-17.71,-88.56 31.89,-113.36 70.86,-155.88 38.97,-46.05 56.68,-88.56 102.74,-138.16 28.34,35.43 0,70.85 28.34,24.8 -31.89,-81.48 123.99,-141.71 191.3,-173.59 46.06,-21.26 92.11,-38.97 138.17,-60.22l92.11 -49.6c21.25,-7.09 -10.63,21.25 17.71,-3.54l88.57 -77.94c28.34,7.09 17.71,0 28.34,24.8 0,-42.51 3.54,-31.88 14.17,-42.51l10.63 31.88c-3.55,-31.88 0,-42.52 14.17,-67.31 21.25,28.34 0,31.88 24.8,67.31 -10.63,-42.52 -14.17,-38.97 -10.63,-92.11l14.17 35.43c3.54,14.17 3.54,17.71 10.63,31.88 10.63,24.8 24.8,38.97 38.97,49.6 -38.97,-60.23 -67.31,-106.28 -17.71,-177.14 177.13,-247.98 177.13,-457 524.31,-680.19 106.28,-67.31 226.73,-180.68 283.42,-194.85 -49.6,77.94 -237.36,194.85 -315.3,251.53 53.14,-3.54 223.19,-116.91 262.16,-148.79l109.82 -95.65c81.48,-70.86 56.68,-70.86 131.08,-77.94l-49.6 -14.17c53.14,-14.17 56.69,-21.26 120.45,-31.89l-88.56 7.09c38.97,-38.97 67.31,-31.88 127.54,-42.51l-99.2 7.08c49.6,-85.02 116.91,-63.77 155.88,-77.93l-99.2 7.08c24.8,-21.25 21.26,-14.17 42.52,-17.71l-14.18 -7.09c0,0 -3.54,-3.54 -3.54,-3.54 -24.8,-14.17 -3.54,7.09 -7.08,-3.54 53.14,-24.8 92.11,-14.17 152.33,-10.63 -46.05,-28.34 -88.56,-10.63 -138.16,-14.17 17.71,-21.26 38.96,-53.14 60.22,-74.4l219.64 -201.93 -49.59 0c-24.8,24.8 -56.68,46.06 -85.03,67.31 -88.56,70.86 -198.39,209.02 -226.73,219.65 194.85,-262.16 187.77,-194.85 255.08,-265.7l17.71 -21.26c-53.14,0 -46.06,-7.08 -81.48,21.26 -99.2,77.93 -134.62,116.9 -212.56,216.1 -70.86,88.57 -162.97,194.85 -240.91,265.7l-368.43 318.84c-28.35,21.26 -60.23,60.22 -85.03,81.48 -162.97,155.9 -336.56,524.33 -382.62,552.67zm-1050.38 912.57c-13.73,16 -23.29,29.86 -26.59,40.41l-14.17 21.25c-64.69,97.03 2.16,156.73 88.91,175.82l-30.81 -60.34 -2.39 -24.43c-48.24,-21.74 -40.61,-63.72 -10.75,-109.73l-4.2 -42.98zm568.72 -158.89c-38.12,-7.88 -71.72,-27.07 -113.51,-38.07 17.72,14.17 38.97,28.34 67.31,38.97 4.62,1.85 9.06,3.45 13.35,4.89l32.85 -5.79zm-89.09 15.7c-40.96,-15.51 -75.71,-37.75 -95.27,-57.31 25.55,35.77 45.37,51.06 68.51,62.03l26.76 -4.72zm-65.98 11.63c-12.46,-6.68 -24.52,-13.42 -36.38,-19.35 4.81,7.7 11.97,15.12 20.48,22.15l15.9 -2.8zm-46.34 8.17c-16.22,-11.84 -30.39,-24.37 -43.17,-34.6 8.97,16.82 17.58,28.31 26.63,37.52l16.54 -2.92zm-2445.1 1084.9c-88.56,-56.69 0,-120.46 28.34,-141.71 -92.11,17.71 -155.88,148.79 -3.54,159.42l-24.8 -17.71zm1119.48 418.03c28.34,138.17 0,42.51 46.06,170.05l3.54 42.51c0,3.54 -3.54,3.54 -3.54,7.09 -10.63,31.88 -99.2,-3.54 -123.99,-56.68 31.88,17.71 42.51,28.34 77.93,38.96 -28.34,-35.42 -67.31,-70.85 -106.28,-88.56l56.69 -3.54c-63.77,-10.63 -63.77,-24.8 -92.11,-77.94l-17.72 -14.17c17.72,-24.8 -3.54,-10.63 28.34,-17.72 3.55,0 131.08,0 131.08,0zm-758.13 -386.15c170.05,49.6 166.51,-70.86 347.19,63.77 -53.15,31.88 -141.71,17.71 -205.48,17.71 -88.57,-7.08 -113.37,-14.17 -141.71,-81.48zm-116.9 -123.99c-17.72,24.8 -14.18,24.8 -53.14,35.42l31.88 -60.22c-28.34,92.11 -141.71,67.31 -155.88,24.8 35.43,-14.17 70.85,-24.8 106.28,-35.43l99.19 -35.43 -28.33 70.86zm269.24 -95.66c49.59,0 240.9,42.52 286.95,63.77 95.65,38.97 148.8,77.94 184.22,180.68 -56.68,0 -99.19,-10.63 -138.16,0 -17.72,7.08 -38.97,17.71 -60.23,14.17 0,0 -3.54,0 -3.54,0 0,0 -3.54,0 -7.08,-3.54l-53.15 -17.71c60.23,-24.8 81.49,-3.55 134.63,-53.15 -46.06,14.18 -85.03,28.35 -138.17,28.35 3.54,0 7.09,-7.09 7.09,-3.55 0,3.55 7.08,-3.54 14.17,-7.08l60.22 -21.26c24.8,-10.62 42.52,-28.34 53.14,-46.05 -24.8,42.51 -123.99,49.59 -187.76,49.59 28.34,-31.88 56.68,-42.51 74.4,-99.19 -31.88,28.34 -63.77,56.68 -116.91,77.94 -7.08,-10.63 0,0 0,-10.63 0,-49.6 14.17,17.71 0,-10.63 -31.88,42.51 -31.88,3.54 -88.56,28.34l0 -14.17c0,-49.6 21.25,17.71 0,-14.17l-63.77 7.09c-24.8,14.17 -21.26,17.71 -53.14,17.71 17.71,-14.17 46.05,-24.8 53.14,-42.51l14.17 -24.8c14.17,-17.72 0,3.54 14.17,-14.17l-88.56 49.59c-31.89,7.09 -14.18,7.09 -31.89,-7.08l38.97 -31.89c42.51,-53.14 63.77,-42.51 85.03,-77.93 -0.01,0 10.62,-17.72 10.62,-17.72zm-269.24 95.66c24.8,-38.97 24.8,-74.4 67.31,-85.03 28.34,-10.63 38.97,-24.8 60.22,-46.05 14.17,-14.17 7.09,-10.63 21.26,-17.72 -17.72,106.28 -60.23,127.54 -88.57,173.59 -10.63,17.72 -14.17,38.97 -24.8,60.23 -21.25,-7.09 -53.14,-24.8 -67.31,-42.52 10.63,-21.25 14.17,-21.25 31.89,-42.5zm531.4 -99.2c21.25,-28.34 53.14,-46.05 60.22,-102.74 -24.8,38.97 -49.6,99.2 -113.37,92.11 24.8,-24.8 49.6,-38.97 60.23,-85.02 -24.8,28.34 -53.14,77.94 -95.65,77.94l46.05 -49.6c-38.97,17.71 -35.43,38.97 -81.48,46.05 0,-3.54 3.54,-7.08 3.54,-7.08l42.51 -53.14c-31.88,14.17 -31.88,21.25 -60.22,42.51 -17.71,-7.08 -3.54,-7.08 -10.63,-14.17l-21.25 -10.63c21.25,-35.43 17.71,-35.43 56.68,-60.22 120.45,-70.86 99.2,-60.23 262.16,-21.26 255.07,60.23 209.02,-67.31 357.81,81.48 49.59,49.6 63.77,60.23 134.62,95.66 180.67,88.56 159.42,109.82 290.5,184.22 46.05,24.8 159.42,116.9 63.77,148.79 -10.63,3.54 -24.8,10.63 -42.52,14.17 17.72,-14.17 31.89,-28.34 49.6,-42.51 -31.88,-17.72 -60.22,24.8 -85.02,-17.72l-3.55 -7.08c-28.34,21.25 -81.48,-3.54 -116.9,-21.26l-38.97 -24.8c-3.54,-3.54 17.71,-14.17 -21.26,0 -24.8,7.09 -14.17,7.09 -35.42,17.72 0,0 0,-7.09 0,-3.55 0,0 0,-3.54 0,-3.54 0,0 0,-7.08 0,-7.08l-17.72 -17.72c0,0 0,0 -3.54,-3.54l-21.26 -14.17c0,0 -7.08,-3.54 -7.08,-3.54l-7.09 -17.72c0,0 0,-3.54 0,-3.54 0,0 -10.62,-10.62 0,-21.25l-42.51 10.63c17.71,-31.89 -7.09,-3.55 28.34,-28.35 -42.51,7.09 -42.51,10.63 -74.4,-10.62l42.52 -49.6c-56.68,10.63 -145.25,24.8 -209.02,-14.17l-7.09 -7.09c0,0 -3.54,-3.54 -3.54,-3.54l-24.8 -14.17c0,0 -3.54,-3.54 -3.54,-3.54 0,0 -7.08,-3.55 -7.08,-7.09 0,0 -3.55,-3.54 -3.55,-3.54l-56.68 -35.43c35.43,-28.34 38.97,-24.8 60.23,-67.31 -24.8,24.8 -42.52,49.6 -88.57,60.23 35.43,-28.35 46.06,-42.52 60.22,-88.57 -24.8,21.25 -24.8,28.34 -53.14,46.05l10.63 -63.76c-21.25,38.96 -28.34,74.39 -70.85,85.02l28.34 -63.77c-31.89,31.88 -28.34,53.14 -77.94,70.86l35.43 -60.23c-31.89,28.34 -49.6,67.31 -92.11,67.31l42.51 -63.77c-31.88,24.8 -42.51,56.68 -85.02,63.77 21.25,-31.89 56.68,-60.23 56.68,-113.37 -3.55,24.8 -53.14,106.28 -109.82,106.28zm70.85 -216.1c17.71,-38.97 31.88,-63.77 77.94,-74.4 -10.63,24.8 -14.18,24.8 -28.35,49.6 -21.25,28.34 -7.08,24.8 -49.59,24.8zm106.28 35.42c14.17,-24.8 17.71,-21.25 31.88,-49.59 -35.42,28.34 -17.71,35.43 -63.77,35.43 14.18,-31.89 49.6,-106.28 81.49,-120.46 244.44,-99.19 237.35,-148.79 439.29,21.26 38.97,31.88 67.31,63.77 102.74,102.74 38.96,38.97 70.85,63.77 106.28,99.19 42.51,38.97 191.3,148.8 247.98,173.59 -14.17,-14.17 -28.34,-28.34 -46.05,-42.51 -7.09,-3.54 -14.18,-10.63 -24.8,-17.71l-31.89 -28.35c49.6,24.8 109.83,74.4 159.42,106.28 152.34,106.28 3.55,212.56 -194.84,102.74 -92.11,-49.6 -56.69,-38.97 -102.74,-74.4l-35.43 -21.25 28.34 -24.8c-28.34,10.63 -14.17,14.17 -35.43,3.54 28.35,-17.71 31.89,-24.8 42.52,-60.22 -10.63,14.17 -3.54,7.08 -14.17,14.17 -21.26,17.71 3.54,3.54 -24.8,17.71l24.8 -60.22c-24.8,17.71 -42.52,53.14 -88.57,60.22 -74.4,10.63 -173.59,-77.94 -212.56,-131.08l-24.8 -28.34c0,0 -3.54,-3.54 -7.09,-3.54 24.8,-14.17 14.18,0 31.89,-28.34 -28.34,24.8 -35.43,17.71 -38.97,14.17l-42.52 -7.08c28.35,-14.18 42.52,-28.35 53.15,-60.23 -14.18,28.34 -38.97,46.06 -77.94,49.6 21.25,-21.26 42.51,-38.97 53.14,-70.86 -17.72,28.34 -21.26,35.43 -53.14,53.14 7.08,-53.14 17.71,-67.31 10.62,-127.53 -28.34,28.34 -28.34,81.48 -88.56,99.19 21.25,-38.97 49.6,-60.22 46.05,-120.45 -3.54,28.34 -28.34,56.68 -46.05,81.48 -21.26,28.35 -31.88,49.6 -77.94,56.69 24.8,-35.43 49.6,-53.14 53.14,-113.37 -31.88,46.06 -46.05,95.65 -99.19,113.37 28.34,-31.89 46.05,-46.06 56.68,-99.2 -38.97,46.06 -53.14,95.65 -106.28,92.11 28.34,-24.8 67.31,-67.31 67.31,-127.54 -10.62,46.06 -60.22,106.29 -99.19,120.45zm-85.03 -503.05c-92.11,14.17 -170.05,31.88 -258.61,46.05 -116.91,17.72 -152.34,-7.08 -258.61,-14.17 -311.76,-21.26 -549.12,272.79 -846.7,361.35 -92.11,28.34 -148.8,10.63 -251.53,53.14 -70.86,31.88 -131.08,70.86 -201.93,99.2 -194.85,85.02 -297.59,-28.34 -481.81,116.9 -212.56,162.97 -393.23,666.03 -467.63,719.17l-17.71 28.34 0 60.22c56.68,-49.6 138.16,-187.76 180.67,-272.78 53.14,-99.2 99.2,-205.48 155.88,-297.59 247.99,-382.61 389.69,-269.24 584.54,-262.16l-49.6 -31.88c70.86,-24.8 113.37,-60.22 170.05,-77.94 -38.97,28.34 -77.94,67.31 -95.65,116.91l63.77 -63.77c24.8,-21.26 38.97,-35.43 67.31,-49.6 166.51,-81.48 336.55,-28.34 552.66,-145.25 265.7,-145.24 379.06,-276.32 651.85,-290.49 -336.56,-77.94 -457.01,301.12 -988.41,357.81 -56.68,7.08 -109.82,21.25 -159.42,24.79 152.34,-42.51 276.33,-46.05 421.58,-109.82 134.62,-63.77 219.65,-123.99 336.55,-187.76 474.72,-269.24 556.2,35.43 857.33,-109.82 -88.56,10.62 -127.54,17.71 -223.19,10.62 67.31,-17.71 180.68,-35.42 255.07,-49.59 81.49,-14.18 177.14,-53.14 244.45,-56.69 -49.6,21.26 -134.62,31.89 -180.68,63.77 92.11,-7.08 177.14,-46.05 272.79,-53.14 116.91,-7.08 184.22,35.43 265.7,38.97 -17.72,-10.63 -77.94,-46.05 -95.65,-56.68 53.14,10.63 116.9,53.14 170.04,77.94 56.69,24.8 120.46,49.59 180.68,70.85 63.77,24.8 113.37,53.14 173.59,77.94 56.68,21.25 134.62,38.97 166.5,81.48 -10.62,85.03 -166.5,106.28 -258.61,81.48 -35.43,-10.62 -102.74,-28.34 -113.36,-56.68l-3.54 -14.17c-3.55,-7.09 -46.06,-3.54 -28.35,-38.97l-42.51 21.25c10.63,-17.71 17.71,-21.25 28.34,-42.51 -70.85,46.06 -70.85,63.77 -198.39,49.6 -42.51,-7.09 -99.19,-24.8 -166.5,-28.34l10.62 -31.89c-21.25,21.26 -3.54,7.09 -28.34,21.26 14.17,-49.6 7.09,-42.51 0,-53.14 -17.71,46.05 -28.34,35.43 -74.39,63.77 -31.89,21.25 -38.97,38.97 -74.4,56.68 -38.97,17.71 -77.94,24.8 -106.28,28.34 -60.22,7.09 -10.63,-10.63 -49.6,7.09 -14.17,-21.26 -10.62,-7.09 -10.62,-42.52 -10.63,49.6 -17.72,38.97 -28.35,46.06l0 -81.48c-49.59,145.24 -194.84,240.9 -336.55,286.95 10.63,-127.54 -7.09,-113.36 -31.88,-212.56 -7.09,113.36 35.43,184.22 -42.52,279.87 21.26,-99.19 38.97,-145.25 21.26,-255.07 -14.17,138.16 -21.26,251.53 -102.74,336.55 28.34,-77.93 60.23,-138.16 60.23,-233.81 -42.52,95.65 -38.97,194.84 -116.91,276.32 21.25,-81.48 56.68,-120.45 60.22,-223.18 -46.05,109.82 -63.77,138.16 -184.22,180.67 -77.93,28.34 -226.73,35.43 -240.9,120.45 56.68,99.2 187.76,0 262.16,88.57 -60.23,-17.72 -113.37,-46.06 -170.05,-10.63 42.51,0 77.94,0 99.2,14.17l35.42 10.63c-14.17,10.63 -17.71,10.63 -28.34,21.26l35.43 3.54 -14.17 17.71c0,0 -3.54,3.54 -7.09,3.54 0,0 -3.54,3.54 -7.08,3.54 0,0 -3.55,3.55 -7.09,3.55 38.97,-14.18 42.51,-14.18 60.22,-3.55 -53.14,17.72 -81.48,46.06 -106.28,88.57 17.72,-17.71 106.28,-106.28 148.8,-88.57 -21.26,21.26 -138.17,60.23 -124,152.34 -14.17,-49.6 81.49,-138.17 166.51,-134.62 -56.68,28.34 -60.22,21.25 -99.2,70.85 -31.88,46.06 -28.34,85.03 -14.17,124 7.09,-77.94 49.6,-134.63 106.28,-159.43 70.86,-28.34 180.68,-14.17 258.62,-14.17 -14.18,21.26 -21.26,24.8 -35.43,53.14 123.99,-95.65 230.27,-81.48 325.93,-92.11l-113.37 -3.54c49.6,-14.16 453.47,-63.75 545.58,113.38 35.42,67.31 10.62,127.54 -35.43,159.42 -81.48,63.77 -286.96,28.34 -407.41,42.51 -63.77,7.09 -145.25,28.34 -180.67,-14.17 -38.97,-46.05 -49.6,-123.99 -31.89,-187.76l56.69 -21.26c-67.31,-7.08 -88.57,31.89 -85.03,102.74 7.09,81.48 38.97,88.57 63.77,131.08 -201.93,14.17 -276.33,60.22 -318.84,60.22 -81.48,70.86 -191.3,0 -265.7,-21.25 28.34,28.34 74.4,53.14 123.99,63.77 -85.02,3.54 -145.24,-42.52 -216.1,-67.31 31.88,28.34 95.65,74.39 148.79,74.39 -92.11,14.18 -170.04,-49.59 -240.9,-74.39 28.34,31.88 67.31,42.51 102.74,70.85 -81.48,-7.08 -141.71,-53.14 -180.68,-56.68 24.8,10.63 56.69,35.43 92.11,53.14 35.43,17.71 77.94,21.26 106.28,42.51 -120.45,21.26 -209.01,10.63 -297.58,-42.51 -3.54,3.54 -3.54,7.09 -3.54,7.09 0,0 -3.55,3.54 -3.55,3.54 -14.17,7.08 -7.08,-3.54 -21.25,-17.72 -10.63,-7.08 0,-3.54 -14.17,-7.08l7.08 21.25c10.63,17.72 -3.54,0 14.18,17.72 60.22,53.14 95.65,56.68 159.42,70.85 -99.2,10.63 -155.88,-49.59 -233.82,-74.39l95.65 67.31c-46.05,-3.55 -74.4,-21.26 -109.82,-35.43 14.17,14.17 38.97,28.34 53.14,49.6 -56.68,-7.09 -70.86,-31.89 -113.37,-49.6 10.63,10.63 21.26,21.25 38.97,31.88l35.43 28.34c-63.77,-7.08 -145.25,-77.93 -201.93,-106.28 21.25,21.26 49.59,38.97 74.39,60.23l77.94 67.31c-63.77,-10.63 -99.19,-46.06 -138.16,-77.94 -35.43,-28.34 -77.94,-53.14 -120.45,-74.4l159.42 138.17c0,0 3.54,3.54 3.54,7.08 -85.03,-35.42 -177.14,-138.16 -258.62,-166.5l35.43 35.43c10.63,7.08 17.72,14.17 31.88,21.25l201.94 134.62c-88.57,3.54 -315.3,-177.13 -410.96,-209.01 10.63,10.62 0,0 14.18,14.17l219.64 152.33c-159.42,-42.51 -276.33,-184.22 -453.46,-212.56 -56.68,-3.54 -109.82,0 -159.42,21.26 -170.05,35.42 -113.37,131.07 -329.47,127.53l81.48 17.72c-74.39,17.71 -67.31,14.17 -145.24,3.54 38.96,21.25 46.05,21.25 99.19,24.8 -56.68,24.8 -99.19,10.63 -155.88,0 53.14,42.51 81.49,38.96 159.42,28.34 -21.25,38.97 -92.11,116.9 -95.65,127.53l-42.51 88.57c-7.09,17.71 14.17,46.05 -81.48,63.77 28.34,0 46.05,-7.09 67.31,-14.17 -24.8,53.14 -56.69,42.51 -99.2,74.39l74.4 -21.25c-24.8,35.42 -56.69,38.97 -99.2,60.22 38.97,0 60.22,-14.17 92.11,-24.8 -10.63,53.14 -85.02,56.68 -148.79,70.86 42.51,10.62 92.11,-3.55 131.08,-17.72 -24.8,35.43 -102.74,56.69 -166.51,56.69l0 7.08c63.77,3.54 95.65,-7.08 152.33,-24.8 -17.71,49.6 -99.19,53.14 -152.33,56.68l3.54 124c21.26,-3.54 56.68,-7.09 70.86,-14.17 56.68,-24.8 180.67,-350.73 205.47,-407.41 63.77,-131.08 184.22,-308.21 333.01,-357.81 -138.16,81.48 -251.53,216.1 -329.47,389.69l-209.01 524.32c38.97,-31.88 63.77,-92.11 85.02,-134.62 141.71,-286.96 198.39,-609.34 506.6,-775.84 49.6,-28.34 113.37,-49.6 173.59,-28.34 -81.48,42.51 -148.79,81.48 -180.67,194.84 28.34,-31.88 49.59,-81.48 81.48,-116.9 31.88,-31.89 77.94,-63.77 148.79,-60.23 -60.22,42.52 -191.3,109.83 -216.1,244.44 31.88,-81.48 166.51,-255.07 258.61,-226.72 -67.31,56.68 -102.74,38.96 -187.76,170.04 -42.51,63.77 -95.65,173.59 -85.02,269.24 -10.63,-77.93 63.77,-198.38 102.73,-255.07 38.97,-56.68 113.37,-159.41 212.57,-155.87 -85.03,63.77 -127.54,67.31 -212.57,212.56 -49.59,85.02 -88.56,230.27 -81.48,343.63 28.34,-92.11 24.8,-194.84 92.11,-322.38 42.52,-77.94 123.99,-191.3 219.65,-209.01 -67.31,67.31 -109.83,60.22 -191.31,216.1 -49.59,92.11 -88.56,212.56 -85.02,333.01 21.25,-46.06 28.34,-116.91 46.05,-170.05 38.97,-113.37 180.68,-389.69 297.59,-357.81 -24.8,42.52 -77.94,35.43 -152.33,138.16 -155.88,216.11 -170.05,425.12 -173.59,697.91 42.51,-88.57 17.71,-290.5 102.73,-495.98 42.52,-99.19 180.68,-329.46 279.88,-304.66 -17.72,46.05 -205.48,70.85 -294.05,499.51 -24.8,113.37 -38.96,233.82 -49.59,350.73 -7.09,56.68 -10.63,113.36 -21.26,173.59 -10.63,60.22 -28.34,113.36 -35.42,159.42 113.36,-325.93 81.48,-818.36 333,-1080.52 31.89,-35.42 63.77,-92.1 109.83,-74.39 -155.88,152.33 -216.1,276.32 -265.7,513.68 -24.8,109.83 -38.97,223.19 -53.14,336.56 -17.72,116.9 -46.06,212.56 -74.4,318.84l31.88 -0.01c106.28,-350.72 95.65,-687.28 216.1,-928.18 38.97,-77.93 113.37,-194.84 170.05,-223.18 70.86,17.71 113.37,46.05 205.48,56.68 113.36,10.63 343.64,-14.17 446.37,-56.68 81.49,-35.43 70.86,-74.4 191.31,-85.03 286.95,-53.14 148.79,-35.42 375.52,-99.19 99.2,-28.34 396.78,-56.68 421.58,-42.51 49.6,24.79 85.02,290.49 279.87,223.18 17.71,-63.76 -24.8,-159.42 -35.43,-233.81 109.83,-3.54 187.76,-3.54 205.48,-102.74 49.59,-255.07 -308.21,-233.82 -343.64,-265.7 -38.97,-38.97 -10.63,-92.11 -88.57,-141.71 -21.25,-14.17 -35.42,-17.71 -49.59,-31.88 74.39,0 95.65,-28.34 155.88,0 35.42,17.71 77.94,53.14 120.45,74.4 49.6,24.8 123.99,31.88 148.79,46.05 31.88,21.26 159.42,191.31 354.27,223.19 152.33,24.8 216.1,-56.68 131.08,-159.42 67.31,10.63 120.45,31.88 191.3,3.54 56.68,-21.25 99.19,-77.94 42.51,-138.16l-258.61 -198.39c-24.8,-14.17 -7.08,-3.54 -24.8,-17.72 0,0 -10.63,-14.17 -17.71,-17.71 -28.34,-28.34 -17.72,-10.63 -35.43,-38.97 -35.43,-31.88 -53.14,-60.22 -81.48,-95.65l-67.31 -63.77c-63.77,-67.31 -35.43,-17.71 -70.86,-53.14 24.8,-17.71 53.14,-14.17 92.11,-10.63 28.34,0 49.6,0 74.4,14.17 134.29,89.53 316.83,125.99 421.58,38.98 48.16,-40.15 67.56,-94.3 7.08,-134.63 -39.5,-24.69 -76.37,-33.72 -123.99,-49.59 -35.43,-10.63 -56.68,-10.63 -85.02,-35.43 -65.48,-33.1 -104.79,-48.41 -166.51,-70.86 -21.25,-7.08 -46.05,-17.71 -63.77,-24.8l-109.82 -49.59c-273.77,-133.07 -324.16,-59.04 -634.15,7.09zm3666.66 -658.94c92.11,0 152.34,-60.22 201.93,-106.28 42.52,-35.43 92.11,-113.36 95.65,-194.85 -49.59,88.57 -46.05,120.45 -127.53,170.05 -53.14,35.43 -162.96,60.23 -170.05,131.08zm244.45 -1300.16c28.34,-14.17 77.93,-67.31 191.3,-123.99 148.79,-74.4 485.34,-198.39 605.8,-297.59 17.71,-14.17 14.17,-10.62 24.8,-24.8 -35.43,14.18 -60.23,35.43 -99.2,56.69 -109.82,53.14 -226.73,92.11 -340.1,134.62 -138.16,53.14 -322.38,159.42 -382.6,255.07zm67.31 382.61c134.62,74.4 223.19,7.09 329.47,-46.06 113.36,-56.68 223.18,-63.76 354.26,-92.11 127.54,-28.34 226.73,-70.85 318.84,-127.53l262.16 -177.14c-209.01,85.03 -201.93,187.76 -605.79,262.16 -510.15,92.11 -333.02,205.48 -658.94,180.68zm-6082.76 2529.46c21.26,35.43 24.8,92.11 7.09,131.08 -77.94,152.34 56.68,113.37 38.97,-28.34 -7.09,-42.51 -28.35,-77.94 -46.06,-102.74zm1023.83 99.2c-10.63,31.88 -28.34,53.14 -35.43,95.65 -10.62,60.22 7.09,70.85 14.18,109.82 7.08,-113.36 38.96,-187.76 138.16,-255.07 35.43,-24.8 67.31,-31.88 81.48,-49.6 -67.31,14.18 -131.08,42.52 -177.13,88.57l-14.17 10.63c-3.55,-3.54 -7.09,0 -7.09,0zm-1434.78 53.14c10.63,-7.09 7.09,-3.54 14.17,-14.17l134.62 -205.48c81.49,-123.99 109.83,-127.54 180.68,-187.76 -162.96,17.72 -286.96,286.96 -329.47,407.41zm-42.51 981.31c7.09,-7.08 7.09,-7.08 14.17,-14.17 3.54,-7.08 7.09,-10.63 10.63,-17.71 77.94,-152.34 109.82,-247.99 219.64,-414.49l95.66 -141.71c-145.26,63.77 -304.67,446.38 -340.1,588.08z"/>
   <path class="fil1" d="M6648.16 1969.13l-11.97 -13.47 -35.35 6.12 -684.02 120.66c-3.57,5.34 -7.56,11.49 -11.75,18.06l707.74 -125.24 352.82 420.91 -959.01 175.1 -17.89 -19.55 832.09 -152.03c45.78,-8.48 70.22,-30.84 54.96,-50.66l-264.15 -317.72c-15,-17.18 -62.46,-25.85 -106.92,-17.5l-613.54 108.94c-12.37,20.16 -24.18,40.42 -29.77,51.86l107.19 -19.1 1.58 2.51 3.02 3.7 4.48 4.89 14.5 -1.42 1.33 -0.14 3.02 3.71 -9.11 2.22 -2.63 0.26 -35.36 6.12 -6.6 0.65 -7.91 0.77 -6.59 0.65 -38 6.38 -6.59 0.64 -7.92 0.78 -6.59 0.64 -11.74 2.48 -2.48 0.25c-1.64,4.46 -3.23,8.83 -4.77,13.12l15.88 20.41 -19.66 3.26 -3.9 -1.49c-1.03,3.08 -2.04,6.12 -3.01,9.13 0.77,-0.62 1.9,-1.28 3.47,-1.97 3.83,-1.71 9.1,-2.23 18.2,-4.45 9.11,-2.22 15.7,-2.87 19.79,-1.94 3.96,-0.38 6.72,0.68 9.49,1.74 1.45,1.19 4.35,3.57 7.37,7.27 3.03,3.69 4.61,6.2 4.74,7.52 0.13,1.32 -1.07,2.77 -4.9,4.48 -3.82,1.7 -9.1,2.22 -18.2,4.44 -9.11,2.22 -15.7,2.87 -19.79,1.94 -3.96,0.39 -6.72,-0.68 -9.49,-1.73 -1.45,-1.19 -4.34,-3.57 -7.37,-7.28 -2.38,-2.9 -3.86,-5.07 -4.45,-6.51 -1.22,3.8 -2.39,7.54 -3.52,11.22 1.45,1.72 2.69,3.09 3.48,3.74 4.21,2.25 11.07,4.24 19.11,4.78 6.72,0.68 14.51,-1.42 25.06,-2.45 10.42,-2.35 18.34,-3.13 23.36,-6.28l1.45 1.19 13.06 -2.61 20.98 -3.39 13.06 -2.61 -4.48 -4.89 -1.57 -2.51 5.27 -0.51 13.07 -2.61 -4.48 -4.89 -3.02 -3.7 3.96 -0.39 -4.48 -4.89 -3.02 -3.7 2.63 -0.26 9.11 -2.22 6.59 -0.65 -0.44 22.68 -0.54 8.05 18.33 -3.13 19.66 -3.26 10.42 -2.35 -0.13 -1.32 1.45 1.19 10.42 -2.35 13.07 -2.61 7.91 -0.78 5.28 -0.51 11.74 -2.48 6.6 -0.65 13.06 -2.61 9.1 -2.23 10.43 -2.35 15.7 -2.87 2.63 -0.25 10.43 -2.36 2.63 -0.26 39.32 -6.51 2.63 -0.26 10.43 -2.35 2.63 -0.26 18.34 -3.13 13.06 -2.61 13.07 -2.61 5.27 -0.51 7.79 -2.1 11.74 -2.48 9.11 -2.22 13.06 -2.61 -1.45 -1.2c0,0 0,0 0,0 6.72,0.68 14.51,-1.42 23.74,-2.32 2.64,-0.26 6.6,-0.65 10.43,-2.35 1.32,-0.13 1.32,-0.13 2.63,-0.26l7.79 -2.1 19.66 -3.25 10.42 -2.36 -0.13 -1.32 1.45 1.2 10.42 -2.36 20.98 -3.38 18.33 -3.13 -11.19 -5.56 -29.64 -17.08 10.42 -2.35c2.64,-0.26 5.28,-0.52 7.92,-0.78 5.27,-0.51 9.23,-0.9 13.06,-2.61 6.59,-0.64 10.42,-2.35 15.57,-4.18 5.15,-1.84 10.29,-3.67 11.35,-6.44 2.38,-2.9 0.81,-5.41 -0.9,-9.24 -1.58,-2.5 -4.48,-4.89 -8.56,-5.82l-3.02 -3.7 -4.48 -4.88 -3.15 -5.03 -11.87 1.17c-2.64,0.25 -6.6,0.64 -11.88,1.16 -3.95,0.39 -9.23,0.9 -13.06,2.61 -6.59,0.65 -11.74,2.48 -15.57,4.19 -1.32,0.13 -2.64,0.26 -2.51,1.58l-0.13 -1.32 -13.06 2.61 -37.99 6.38 -6.6 0.64 -7.91 0.78 -6.6 0.64 -44.46 8.35 -5.27 0.52 -7.92 0.77 -2.64 0.26 -28.76 5.48 -2.64 0.26 -7.91 0.77 -5.28 0.52 -11.74 2.48 -1.58 -2.51 -1.58 -2.5 -4.47 -4.9 -3.03 -3.7 -1.57 -2.5 378.24 -67.66c15.7,-2.86 31.79,-1.77 44.05,1.02l-10.17 4.99 24.13 1.63c0,0 1.45,1.19 1.45,1.19l3.03 3.71 -16.51 8.27 24.13 1.63 4.48 4.89 -16.5 8.27 24.13 1.64 4.47 4.89 -16.51 8.27 24.14 1.63 4.47 4.89 -16.5 8.28 24.13 1.63 4.47 4.89 -16.5 8.27 25.45 1.51 4.47 4.89 -16.5 8.27 25.45 1.5 4.47 4.89 -16.5 8.28 25.45 1.5 4.48 4.89 -16.51 8.27 25.45 1.5 4.48 4.9 -16.51 8.27 25.45 1.5 4.48 4.89 -16.51 8.27 25.45 1.51 4.48 4.89 -16.51 8.27 25.46 1.51 4.47 4.89 -16.5 8.27 25.45 1.5 4.47 4.89 -16.37 9.6 25.45 1.5 4.47 4.89 -16.37 9.59 25.45 1.51 4.47 4.89 -16.37 9.59 25.45 1.5 4.47 4.89 -16.37 9.6 25.45 1.5 4.47 4.89 -16.37 9.59 25.45 1.51 3.02 3.7c0.13,1.32 1.45,1.19 1.58,2.51l-16.37 9.59 16.08 1.09c-3.31,6.98 -14.66,13.42 -31.68,16.42l-837.66 163.24 -87.89 -95.27c-0.26,-2.64 -0.65,-6.6 -0.91,-9.24 -0.26,-2.63 -0.51,-5.28 -0.64,-6.59 -0.26,-2.64 -0.52,-5.28 -1.97,-6.47 -1.84,-5.15 -2.22,-9.1 -5.37,-14.12l-3.29 -6.33 -3.28 -6.34 -1.71 -3.83 -1.7 -3.83 -4.61 -6.2c-6.04,-8.52 -13.34,-16.91 -21.89,-25.19 -0.83,3.95 -1.62,7.9 -2.39,11.85 4.64,5.15 8.56,10.2 12.53,15.81l4.61 6.21 1.7 3.82 1.71 3.83 3.28 6.34 3.29 6.34c1.7,3.82 3.54,8.97 5.24,12.8 0.13,1.32 0.26,2.64 0.39,3.96l-36.37 -39.62c-1.91,10.75 -3.71,21.69 -5.51,33.07l187.73 204.02 16.91 172.8 -396.06 76.06 -19.69 -163.33c-8.98,2.75 -18.16,5.13 -27.57,7.07l0.88 8.98c-108.57,19.95 -215.96,38.45 -319.4,56.57 -149.21,26.59 -288.13,49.51 -405.94,70.36 -119.14,20.99 -218.74,37.39 -288.26,48.2 -69.53,10.79 -108.84,17.31 -108.84,17.31 0,0 40.63,-6.65 109.77,-21.4 69.26,-13.44 167.29,-32.36 286.29,-54.66 119.01,-22.3 257.54,-49.18 405.43,-75.64 80.17,-15.08 162.8,-29.6 246.54,-44.67 -22.65,-3.18 -40.8,-9.17 -54.93,-17.69l-1005.43 183.3 -233.79 -456.53 1018.62 -178.28 13.68 17.3 -891.45 157.84c-47.1,8.61 -76.95,30.17 -67.1,49.18l177.45 343.53c11.43,21.52 58.89,30.19 108.63,21.33l857.67 -156.31c-4.54,-5.59 -8.21,-11.75 -11.07,-18.42 -15.76,-0.07 -32.57,-0.57 -50.2,-1.77 -21.5,-1.89 -44.31,-3.65 -66.06,-8.18l-15.7 2.87c-17.4,-0.97 -37.83,-5.62 -58.26,-10.28 -15.03,-3.86 -30.06,-7.72 -43.89,-13.02 -6.86,-1.99 -13.84,-5.31 -20.69,-7.3 -4.09,-0.93 -6.98,-3.31 -9.75,-4.37 -2.77,-1.07 -6.99,-3.32 -9.76,-4.38 -12.51,-5.43 -25.16,-12.18 -36.49,-19.06 -2.89,-2.38 -5.66,-3.45 -8.56,-5.83l-4.21 -2.24 -4.21 -2.25c-2.9,-2.38 -5.67,-3.44 -7.24,-5.95 -2.9,-2.38 -4.35,-3.57 -7.25,-5.95 -2.89,-2.38 -4.34,-3.57 -7.24,-5.95 -2.89,-2.38 -4.34,-3.57 -7.24,-5.95 -4.34,-3.57 -8.81,-8.46 -11.84,-12.16l-6.06 -7.4 -4.6 -6.21 -3.02 -3.69 -1.71 -3.83 -4.6 -6.21c-4.86,-8.85 -9.72,-17.69 -11.95,-26.8 -1.71,-3.82 -2.22,-9.1 -3.93,-12.93 -0.25,-2.64 -0.38,-3.96 -0.64,-6.59 -0.26,-2.64 -0.39,-3.96 -0.65,-6.6 -0.26,-2.64 -0.39,-3.96 -0.64,-6.59 -0.26,-2.64 0.93,-4.09 0.67,-6.73l-0.39 -3.95 0.94 -4.09c-0.26,-2.64 0.93,-4.09 0.67,-6.72 1.73,-9.5 4.91,-17.8 8.1,-26.1 1.06,-2.77 2.25,-4.22 3.31,-6.98 1.06,-2.77 2.25,-4.22 3.31,-6.98 2.25,-4.22 4.51,-8.44 8.07,-12.78 5.83,-8.56 13.09,-15.93 20.36,-23.3 9.65,-10.27 22.07,-19.47 34.48,-28.68l9.11 -2.22c2.51,-1.58 6.21,-4.6 8.72,-6.18 8.72,-6.18 20.07,-12.62 30.11,-18.93 11.35,-6.44 22.84,-11.56 34.32,-16.68 22.97,-10.24 47.52,-17.97 73.38,-25.83l4.47 4.9c-24.67,6.41 -47.77,15.32 -69.55,24.12 -11.48,5.11 -22.97,10.23 -33,16.55 -10.04,6.3 -20.2,11.29 -28.92,17.47 -17.43,12.36 -33.42,25.91 -45.45,39.07 -24.06,26.33 -37.17,55.58 -37.23,82.22 -1.25,28.09 9.25,53.69 26.34,78.66 18.28,23.51 44.48,46.25 76.88,64.38 32.41,18.14 71.15,32.99 110.69,42.44 20.43,4.66 40.87,9.32 59.85,12.78 20.3,3.34 40.48,5.36 59.33,7.51 16.42,1.21 32.09,2.01 46.9,2.42 -0.54,-1.37 -1.05,-2.76 -1.53,-4.18l-0.27 0.01c-2.63,0.26 -3.95,0.39 -3.95,0.39 0,0 1.32,-0.13 3.95,-0.39l0.26 -0.03c-4.15,-12.31 -5.85,-26.22 -5.41,-41.56 -6.19,-0.56 -12.2,-1.21 -17.7,-1.46 -9.49,-1.73 -18.86,-2.15 -28.35,-3.88 -8.17,-1.86 -16.21,-2.41 -24.38,-4.27 -6.86,-1.99 -13.59,-2.66 -19.12,-4.79 -5.4,-0.8 -10.94,-2.92 -15.02,-3.85 -8.18,-1.87 -12.26,-2.8 -12.26,-2.8 0,0 5.4,0.8 14.77,1.22 9.36,0.42 21.49,1.89 37.71,4.3 13.44,1.34 30.85,2.3 48.25,3.26 -6.85,-1.98 -13.58,-2.66 -20.3,-3.33 -20.17,-2.02 -37.84,-5.62 -52.73,-8.16 -29.8,-5.07 -47.59,-9.99 -47.59,-9.99 0,0 5.4,0.8 14.9,2.54 9.49,1.73 21.62,3.21 37.84,5.62 8.04,0.54 16.21,2.4 25.57,2.82 9.37,0.42 18.86,2.15 28.22,2.57 9.37,0.41 20.18,2.02 30.85,2.31l0.73 0.02c0.47,-3.91 1.06,-7.9 1.76,-11.96 -46.49,-6.57 -97.49,-17.29 -124.79,-26.71l-8.27 -16.5c4.21,2.25 8.43,4.5 13.96,6.62 13.97,6.63 30.57,12.99 30.57,12.99 0,0 -12.64,-6.75 -24.1,-14.95 -7.24,-5.95 -14.35,-10.58 -18.7,-14.15 1.32,-0.13 1.32,-0.13 2.51,-1.58 2.51,-1.58 3.7,-3.03 4.89,-4.47 1.19,-1.45 1.06,-2.77 2.38,-2.9 -0.13,-1.32 1.19,-1.45 1.06,-2.77 -0.13,-1.32 -0.26,-2.63 -0.26,-2.63 0,0 -1.32,0.12 -2.51,1.57 -1.32,0.13 -1.19,1.45 -2.5,1.58 -1.32,0.13 -2.51,1.58 -3.7,3.03 -1.19,1.44 -3.83,1.7 -5.15,1.83 -1.32,0.13 -3.96,0.39 -5.28,0.52 0,0 -1.32,0.13 -1.32,0.13 0,0 -1.32,0.13 -1.32,0.13 0,0 0,0 -1.32,0.13l-2.63 0.26 -1.33 0.12c0,0 -1.32,0.13 -1.32,0.13 -1.32,0.13 -2.76,-1.06 -2.76,-1.06 -8.17,-1.86 -15.28,-6.49 -20.82,-8.61 -1.58,-2.51 -3.16,-5.02 -4.73,-7.53 10.01,7.01 30.98,3.63 34.68,0.6 0.13,1.32 -16.76,5.64 -21.33,-13.89 -0.13,-1.32 -1.58,-2.51 -1.71,-3.83 2.51,-1.57 5.02,-3.15 5.02,-3.15 0,0 6.91,-24.65 6.71,-53.93 -0.21,-29.27 -22.34,-37.76 -21.12,-52.53 1.34,-13.45 4.01,-27.03 63.52,-44.84l35.12 45.84c-2.64,0.26 -3.83,1.71 -5.15,1.84 -2.51,1.58 -3.83,1.7 -5.15,1.84 -1.32,0.12 -1.19,1.44 -1.19,1.44 0,0 1.32,-0.13 2.64,-0.25 1.32,-0.14 3.83,-1.71 6.46,-1.97 1.32,-0.13 2.51,-1.58 5.15,-1.84l6.18 8.72c-3.82,1.71 -6.46,1.97 -8.97,3.54 -2.51,1.58 -3.83,1.71 -5.02,3.16 -1.32,0.13 -2.51,1.58 -2.51,1.58 0,0 1.32,-0.14 2.64,-0.26 1.32,-0.13 3.82,-1.71 6.46,-1.97 2.64,-0.26 5.15,-1.84 9.11,-2.22l13.81 18.62c-2.64,0.26 -3.83,1.71 -5.15,1.84 -7.66,3.41 -12.68,6.57 -16.51,8.27 -3.69,3.03 -6.07,5.92 -5.95,7.24 -1.19,1.45 -1.06,2.77 -1.06,2.77 0,0 1.32,-0.13 5.15,-1.84 2.51,-1.58 7.66,-3.41 12.81,-5.25 5.14,-1.83 11.61,-3.8 18.07,-5.76 0,0 1.32,-0.13 1.32,-0.13l3.03 3.7c-2.51,1.57 -5.15,1.83 -7.66,3.41 -2.51,1.58 -5.02,3.15 -6.33,3.28 -1.19,1.45 -3.7,3.03 -5.02,3.15 -2.38,2.9 -3.57,4.35 -4.76,5.8 -1.2,1.45 -1.06,2.76 -1.06,2.76 0,0 1.31,-0.12 3.82,-1.7 2.51,-1.58 5.02,-3.15 8.85,-4.86 1.19,-1.45 3.83,-1.71 6.34,-3.29 2.5,-1.57 5.14,-1.83 6.33,-3.28 1.32,-0.13 2.64,-0.26 3.83,-1.71l3.02 3.7c-5.02,3.16 -10.03,6.31 -13.86,8.02 6.85,1.99 14.9,2.53 22.94,3.08l46.98 60c3.07,-8.03 6.37,-16.24 9.88,-24.6l-178.3 -228.59 270.04 -47.32c2.42,-9.66 4.89,-19.35 7.44,-29.04l-1339.19 236.21 -36.68 6.26 22.99 234.79 245.47 480.69c0,0 501.23,-103.66 1168.96,-234.27l444.35 -86.11c622.59,-115.54 999.74,-167.11 999.74,-167.11l-21.05 -215.01 -13.55 -15.98 -354.14 -420.79zm-893.18 670.72c11.87,-1.16 23.62,-3.64 34.17,-4.67 11.74,-2.49 23.61,-3.65 34.04,-6 11.74,-2.48 22.16,-4.83 34.03,-5.99 22.17,-4.84 41.82,-8.09 58.71,-12.41 33.91,-7.31 57.14,-14.91 57.14,-14.91 0,0 -23.87,1 -58.17,4.36 -17.15,1.68 -38.25,3.74 -59.23,7.13 -10.55,1.03 -22.42,2.19 -34.16,4.68 -11.87,1.16 -23.62,3.64 -34.17,4.67 -11.74,2.48 -23.61,3.65 -34.04,6 -11.74,2.48 -22.16,4.83 -34.03,5.99 -16.56,3.61 -31.71,6.34 -45.36,9.29 -6.64,4.91 -13.56,9.73 -20.74,14.47 2.73,-0.25 5.54,-0.52 8.42,-0.8 17.15,-1.68 38.25,-3.75 59.23,-7.13 11.87,-1.16 22.42,-2.2 34.16,-4.68zm282.43 -162.15c1.58,2.51 268.87,-42.29 264.26,-48.5 -1.57,-2.51 -268.73,43.62 -264.26,48.5zm-49.96 -7.09c6.05,7.4 342.88,-61.53 341.56,-61.4 -4.6,-6.21 -343.14,58.89 -341.56,61.4zm-876.92 143.1c-1.7,-3.83 -119.26,19.66 -117.81,20.85 1.71,3.83 118.07,-18.21 117.81,-20.85zm-500.39 84.93c3.28,6.34 303.83,-52.37 302.25,-54.88 -4.47,-4.89 -303.83,52.38 -302.25,54.88zm-51.55 -9.6c3.28,6.34 386.16,-68.43 386.03,-69.75 -3.03,-3.69 -389.18,64.73 -386.03,69.75zm-55.47 -22.53c3.28,6.33 477.84,-84.07 476.4,-85.26 -3.29,-6.33 -477.98,82.75 -476.4,85.26zm406.9 -87.78c-3.15,-5.01 -353.7,59.93 -351.99,63.76 3.03,3.7 353.57,-61.25 351.99,-63.76zm1438.79 -429.81l2.23 9.1 10.42 -2.35 -11.33 -6.88 -1.32 0.13zm-140.91 29.77c1.32,-0.13 2.64,-0.26 3.96,-0.39 1.32,-0.12 1.32,-0.12 1.19,-1.44 0,0 -0.13,-1.33 -1.45,-1.19 -0.13,-1.33 -1.45,-1.2 -1.45,-1.2 0,0 -1.32,0.13 -1.32,0.13 -1.32,0.13 -2.64,0.26 -3.95,0.39l-3.96 0.39 3.15 5.02 3.83 -1.71zm-201.97 31.76l0.9 9.23 10.43 -2.35 -11.33 -6.88zm-143.42 31.35c1.58,2.51 3.02,3.7 3.15,5.02 0.13,1.32 1.45,1.19 2.77,1.06 1.32,-0.13 2.63,-0.26 5.27,-0.52 2.64,-0.25 3.96,-0.38 3.83,-1.7 0,0 1.19,-1.45 -0.13,-1.32 -0.13,-1.32 -1.58,-2.51 -3.15,-5.02 -1.58,-2.51 -3.03,-3.7 -3.15,-5.02 -1.45,-1.19 -1.45,-1.19 -2.77,-1.06 -1.32,0.12 -2.64,0.26 -5.28,0.51 -2.64,0.26 -3.96,0.39 -3.83,1.71 0,0 -1.19,1.45 0.13,1.32 1.45,1.19 1.58,2.51 3.16,5.02zm360.37 -100.53l0.9 9.24 11.75 -2.49 -11.33 -6.88 -1.32 0.13zm-185.76 34.16c-1.44,-1.19 -1.44,-1.19 -2.76,-1.06 -1.32,0.13 -2.64,0.26 -5.28,0.52l-2.64 0.26 9.21 12.41 2.64 -0.26c2.63,-0.25 3.95,-0.38 5.15,-1.83 1.31,-0.13 1.19,-1.45 1.19,-1.45 -0.14,-1.32 -1.58,-2.51 -3.03,-3.7 -2.9,-2.38 -4.35,-3.57 -4.48,-4.89zm-1315.44 411.09c65.44,-11.74 106.25,-43.7 90.22,-71.42 -15.9,-26.41 -81.15,-40 -145.27,-28.4 -65.44,11.74 -106.25,43.7 -90.35,70.11 13.52,29.3 78.64,41.57 145.4,29.71zm37.38 -26.3c3.82,-1.71 6.2,-4.6 7.39,-6.05 1.19,-1.45 2.38,-2.9 3.57,-4.35 1.19,-1.45 1.07,-2.76 2.25,-4.21 -0.13,-1.32 1.07,-2.77 0.93,-4.09 -0.12,-1.32 -0.25,-2.64 -0.25,-2.64 -0.13,-1.32 -0.13,-1.32 -1.58,-2.51 -0.13,-1.32 -1.45,-1.19 -1.58,-2.5 -1.45,-1.19 -2.89,-2.38 -2.89,-2.38 -2.9,-2.38 -2.9,-2.38 -2.9,-2.38 0,0 0,0 0.13,1.31 0.13,1.33 0.13,1.33 -1.06,2.77 0,0 -1.19,1.45 -1.06,2.77 0.12,1.32 -1.2,1.45 -1.07,2.77 -1.19,1.44 -2.25,4.21 -4.76,5.79 -1.19,1.45 -2.5,1.58 -3.7,3.02 -3.15,-5.02 -6.57,-12.67 -8.14,-15.18 -1.71,-3.83 -8.56,-5.82 -15.15,-5.17 -6.6,0.64 -18.34,3.12 -18.34,3.12 0,0 6.21,-4.6 20.59,-7.34 15.7,-2.87 49.45,1.82 49.45,1.82 0,0 -4.86,-8.85 -32.28,-16.82 -27.41,-7.97 -39.15,-5.49 -42.85,-2.46 -5.02,3.15 4.47,4.89 -1.99,6.85 -6.6,0.65 -11.75,2.49 -13.2,1.29 -3.02,-3.69 0.55,-8.04 -12.64,-6.75 -13.06,2.61 -19.14,8.53 -15.19,8.15 3.96,-0.39 10.56,-1.04 12.13,1.47 0,0 0,0 0,0 0,0 0,0 0,0 1.58,2.51 -5.01,3.16 -11.61,3.8 -6.59,0.65 -1.71,-3.83 -8.43,-4.5 -6.85,-1.99 -18.59,0.49 -33,16.55 -14.54,14.74 -9.68,23.58 -9.68,23.58 0,0 23.9,-14.32 39.6,-17.19 15.7,-2.87 25.19,-1.14 25.19,-1.14 0,0 -11.74,2.49 -18.33,3.13 -6.6,0.65 -10.17,4.99 -7.14,8.69 1.58,2.51 6.31,10.04 8.27,16.5 -2.77,-1.06 -5.41,-0.8 -8.17,-1.86 -4.09,-0.93 -6.85,-1.99 -9.62,-3.05 -1.45,-1.19 -2.77,-1.06 -4.09,-0.93 -1.32,0.13 -1.45,-1.19 -2.77,-1.07 -1.45,-1.19 -2.89,-2.37 -4.21,-2.25 -1.32,0.13 -1.45,-1.19 -1.45,-1.19 0,0 0,0 0.13,1.32 0.13,1.32 0.13,1.32 0.26,2.64 0.12,1.32 0.12,1.32 0.25,2.64 0.13,1.32 1.45,1.19 1.58,2.51 0.13,1.32 1.45,1.19 2.9,2.37 1.45,1.2 2.89,2.38 4.21,2.26 1.45,1.19 2.9,2.37 5.67,3.44 2.76,1.06 4.21,2.24 6.85,1.99 4.09,0.93 8.17,1.86 12.26,2.79 -28.22,-2.56 -50.36,-11.05 -56.92,-23.73 -11.3,-20.2 19.61,-44.53 68.03,-53.26 48.42,-8.74 97.32,1.12 108.62,21.32 6.57,12.69 -4.01,27.04 -24.21,38.34zm-175.9 -14.75c-0.13,-1.32 -0.39,-3.95 0.8,-5.4 1.99,-6.85 7.94,-14.1 15.21,-21.47 8.72,-6.18 20.08,-12.61 34.2,-17.99 12.8,-5.25 28.5,-8.12 42.88,-10.86 15.83,-1.55 30.34,-2.97 43.79,-1.62 13.32,0.03 25.58,2.82 35.07,4.56 9.49,1.73 17.79,4.91 23.46,8.35 2.76,1.07 5.66,3.44 7.11,4.64 1.45,1.19 2.89,2.37 4.34,3.57 1.45,1.19 1.58,2.5 3.03,3.69 1.45,1.19 1.57,2.51 1.57,2.51 1.45,1.19 1.58,2.51 1.58,2.51 0,0 -0.13,-1.32 -1.58,-2.51 -0.13,-1.32 -1.44,-1.19 -2.89,-2.38 -1.45,-1.19 -2.9,-2.38 -4.34,-3.57 -1.45,-1.19 -2.9,-2.38 -5.67,-3.44 -2.77,-1.06 -4.22,-2.25 -8.43,-4.5 -5.54,-2.12 -13.84,-5.3 -23.33,-7.04 -9.49,-1.73 -20.3,-3.34 -33.62,-3.37 -12,-0.15 -26.64,-0.05 -39.7,2.56 -14.38,2.74 -27.45,5.35 -40.38,9.28 -12.93,3.93 -22.97,10.24 -30.37,16.29 -7.39,6.05 -13.34,13.29 -15.47,18.82 1.71,3.83 1.84,5.15 1.97,6.47 0.13,1.32 0.26,2.64 0.52,5.28 0.12,1.32 1.58,2.51 1.83,5.15 0.13,1.32 1.58,2.51 3.03,3.7 4.47,4.89 10.39,10.96 18.7,14.14 8.3,3.19 17.92,6.24 27.41,7.97 9.49,1.74 20.3,3.35 29.54,2.44 4.08,0.94 9.36,0.42 13.32,0.03 3.95,-0.39 7.91,-0.77 10.55,-1.03 3.96,-0.39 6.59,-0.65 9.23,-0.91 2.64,-0.25 5.28,-0.51 6.6,-0.64 3.96,-0.39 5.28,-0.52 5.28,-0.52 0,0 -1.32,0.13 -5.28,0.52 -1.32,0.13 -3.96,0.39 -6.6,0.64 -2.63,0.26 -5.27,0.52 -9.23,0.91 -3.96,0.38 -7.92,0.77 -11.87,1.16 -3.96,0.39 -9.24,0.9 -13.32,-0.03 -9.37,-0.42 -20.05,-0.7 -30.86,-2.31 -10.81,-1.6 -21.75,-4.52 -30.05,-7.71 -9.75,-4.37 -16.86,-9 -21.47,-15.21 -1.45,-1.19 -2.89,-2.38 -3.15,-5.02 -0.13,-1.32 -1.58,-2.51 -1.84,-5.15 -1.18,1.45 -2.76,-1.06 -1.57,-2.51zm141.93 48.7c74.54,-13.95 120.38,-49.07 102.64,-80.62 -17.61,-30.24 -92.35,-45.56 -165.58,-31.74 -74.66,12.64 -120.37,49.07 -103.95,80.76 17.61,30.23 92.35,45.56 166.89,31.6zm-59.78 -107.34c66.76,-11.86 134.52,0.15 150.68,29.2 16.03,27.73 -25.98,61.13 -94.05,73.13 -68.08,11.99 -135.97,-1.35 -152,-29.07 -14.84,-29.18 27.3,-61.27 95.37,-73.26zm2045.07 -126.93c49.74,-8.87 65.85,-21.1 55.33,-33.39 -10.53,-12.28 -38.87,-16.17 -88.61,-7.3 -49.73,8.86 -65.85,21.09 -55.32,33.38 10.52,12.28 38.86,16.17 88.6,7.31zm-28.93 -37.12c5.27,-0.52 14.76,1.22 25.29,13.5 9.2,12.42 5.63,16.76 0.49,18.6 -5.28,0.51 -14.77,-1.22 -25.3,-13.51 -9.2,-12.42 -5.63,-16.76 -0.48,-18.59zm-212.85 56.79c9.21,12.41 38.88,16.17 88.61,7.3 49.74,-8.86 65.86,-21.09 56.65,-33.51 -9.2,-12.42 -38.87,-16.17 -88.61,-7.3 -49.74,8.86 -65.72,22.41 -56.65,33.51zm61.13 -28.63c5.27,-0.51 14.76,1.22 23.97,13.64 9.2,12.41 5.63,16.76 0.48,18.59 -5.27,0.52 -14.76,-1.21 -23.97,-13.63 -10.52,-12.29 -7.08,-17.95 -0.48,-18.6zm-59.83 41.82c-4.48,-4.89 -23.02,-31.05 -23.02,-31.05l-41.82 8.09c0,0 -8.46,8.82 -33.26,13.91 0,0 23.74,-2.32 29.79,5.08 6.05,7.39 7.63,9.9 10.66,13.6 3.02,3.7 -14.67,13.42 -14.67,13.42l102.11 -17.98c-1.45,-1.19 -26.64,-0.05 -29.79,-5.07zm-3.85 -52.89l-9.21 -12.42 13.06 -2.61 1.33 -0.13 18.31 10.19 11.74 -2.48 -21.08 -11.26c2.51,-1.57 5.02,-3.15 4.89,-4.47 -0.13,-1.32 -0.39,-3.96 -1.96,-6.46 -1.58,-2.51 -3.03,-3.7 -5.8,-4.77 -1.45,-1.19 -4.21,-2.25 -8.17,-1.86 -3.96,0.39 -7.91,0.78 -13.19,1.29l-24.81 5.09 24.34 30.92 10.55 -1.03zm-9.56 -29.7c3.95,-0.39 5.27,-0.52 7.91,-0.77 1.32,-0.13 2.77,1.06 4.08,0.93 1.46,1.19 1.58,2.51 3.03,3.7 1.45,1.19 1.58,2.5 1.71,3.82 0.13,1.33 0.13,1.33 -1.06,2.77 -1.32,0.13 -3.83,1.71 -6.47,1.97l-11.74 2.48 -9.08 -11.1 11.62 -3.8zm-70.62 26.89c1.58,2.5 3.15,5.02 4.6,6.21 1.45,1.19 2.9,2.38 4.35,3.57 2.76,1.06 4.21,2.24 6.98,3.31 2.77,1.06 5.41,0.8 8.04,0.54 2.64,-0.26 6.6,-0.64 11.88,-1.16 6.59,-0.64 10.42,-2.35 12.93,-3.93 2.51,-1.58 3.7,-3.02 3.57,-4.34 -0.13,-1.32 -1.71,-3.83 -3.28,-6.34 -1.58,-2.51 -4.48,-4.89 -5.8,-4.76 -2.76,-1.06 -5.4,-0.8 -8.17,-1.86 -2.64,0.26 -6.6,0.64 -11.87,1.16 -3.96,0.39 -7.79,2.1 -9.11,2.22 -1.32,0.13 -2.51,1.58 -3.7,3.03 -3.02,-3.7 -4.6,-6.21 -4.73,-7.53 -0.13,-1.32 -0.26,-2.64 2.25,-4.22 1.19,-1.44 5.15,-1.83 10.42,-2.35 3.96,-0.38 9.24,-0.9 15.83,-1.55l-3.02 -3.7c-2.64,0.26 -5.28,0.52 -9.24,0.91 -2.63,0.26 -6.59,0.64 -7.91,0.77 -6.59,0.65 -11.74,2.48 -14.25,4.06 -2.51,1.58 -3.7,3.03 -3.44,5.66 0.13,1.32 0.26,2.64 1.71,3.83 -1.19,1.45 0.39,3.96 1.96,6.47zm15.7 -2.87c1.32,-0.13 3.83,-1.71 7.79,-2.09 3.95,-0.39 6.59,-0.65 7.91,-0.78 1.32,-0.13 2.64,-0.26 4.09,0.93 1.45,1.19 2.89,2.38 4.34,3.57 1.45,1.19 1.58,2.51 1.71,3.83 0.13,1.32 -1.19,1.45 -2.51,1.58 -1.32,0.13 -3.83,1.71 -6.46,1.97 -2.64,0.26 -5.28,0.51 -7.92,0.77 -1.32,0.13 -4.09,-0.93 -4.09,-0.93 -1.44,-1.19 -2.89,-2.38 -4.47,-4.89 -1.45,-1.19 -1.58,-2.51 -1.71,-3.83 -1.19,1.45 0,0 1.32,-0.13zm-38.12 5.06c2.51,-1.57 5.15,-1.83 6.34,-3.28 1.19,-1.45 1.05,-2.77 -1.84,-5.15 -1.58,-2.51 -3.03,-3.7 -5.8,-4.76 -2.76,-1.06 -5.4,-0.8 -9.49,-1.73 -3.96,0.39 -7.91,0.77 -13.19,1.29 -2.64,0.26 -5.28,0.52 -9.11,2.22 -2.63,0.26 -6.46,1.97 -7.78,2.1l3.02 3.7c5.15,-1.84 9.11,-2.23 15.7,-2.87 3.96,-0.39 6.6,-0.65 7.92,-0.78 2.64,-0.25 3.95,-0.39 5.4,0.81 1.45,1.19 2.77,1.06 4.35,3.57 1.58,2.51 1.71,3.83 0.39,3.95 -1.19,1.45 -2.51,1.58 -6.47,1.97l-10.42 2.35 3.02 3.7 10.42 -2.35c3.96,-0.39 6.6,-0.65 9.24,-0.91 2.77,1.07 4.22,2.25 5.66,3.45 1.45,1.19 1.58,2.5 1.71,3.82 0.13,1.32 -1.19,1.45 -2.51,1.58 -1.32,0.13 -3.82,1.71 -7.78,2.1 -5.28,0.51 -10.43,2.35 -17.02,3l3.02 3.69c2.64,-0.26 6.6,-0.64 9.24,-0.9 3.95,-0.39 6.59,-0.64 9.23,-0.9 6.6,-0.65 10.42,-2.36 12.93,-3.93 2.51,-1.58 3.71,-3.03 4.9,-4.48 -0.13,-1.32 -0.26,-2.63 -1.84,-5.15 -1.58,-2.5 -4.34,-3.56 -7.11,-4.63 -4.09,-0.93 -8.05,-0.54 -12.13,-1.48zm-60.01 -0.78l19.99 27.34 11.75 -2.48 -24.34 -30.91 -7.91 0.77 -11.36 6.44 3.03 3.7 8.84 -4.86zm-48.41 8.73c1.19,-1.45 5.14,-1.83 10.42,-2.35 3.95,-0.39 9.23,-0.9 15.83,-1.55l-3.03 -3.7c-2.64,0.26 -5.28,0.52 -9.23,0.9 -3.96,0.39 -6.6,0.65 -7.92,0.78 -6.59,0.64 -11.74,2.48 -14.25,4.06 -2.51,1.57 -3.7,3.02 -3.44,5.66 0.13,1.32 0.26,2.64 1.71,3.83 1.45,1.19 3.02,3.7 4.6,6.21 1.58,2.51 3.16,5.02 4.6,6.2 1.45,1.19 2.9,2.38 4.35,3.57 2.77,1.07 4.21,2.25 6.98,3.32 2.77,1.06 5.41,0.8 8.04,0.54 2.64,-0.26 6.6,-0.64 11.88,-1.16 6.59,-0.65 10.42,-2.35 12.93,-3.93 2.51,-1.58 3.7,-3.02 3.57,-4.34 -0.13,-1.32 -0.39,-3.96 -3.28,-6.34 -1.58,-2.51 -4.48,-4.89 -5.8,-4.76 -2.76,-1.06 -5.53,-2.12 -8.17,-1.86 -2.64,0.26 -6.59,0.64 -11.87,1.16 -3.96,0.39 -7.79,2.09 -9.11,2.22 -1.32,0.13 -2.5,1.58 -3.7,3.03 -3.02,-3.7 -4.6,-6.21 -4.73,-7.53 -1.57,-2.51 -1.7,-3.83 -0.38,-3.96zm9.2 12.42c1.32,-0.13 3.83,-1.71 7.79,-2.09 3.95,-0.39 6.59,-0.65 7.91,-0.78 1.32,-0.13 2.64,-0.26 4.09,0.93 1.45,1.19 2.89,2.38 4.34,3.57 1.45,1.19 1.58,2.51 1.71,3.83 0.13,1.32 -1.19,1.45 -2.51,1.58 -1.32,0.13 -3.83,1.71 -6.47,1.96 -2.63,0.26 -5.27,0.52 -7.91,0.78 -1.32,0.13 -2.77,-1.06 -4.08,-0.93 -1.46,-1.19 -2.9,-2.38 -4.48,-4.89 -1.45,-1.19 -1.58,-2.51 -1.71,-3.83 -1.32,0.13 0,0 1.32,-0.13zm-42.44 -11.83l-36.68 6.26 12.24 16.11c5.14,-1.83 10.42,-2.35 14.38,-2.74 3.95,-0.39 7.91,-0.77 9.23,-0.9 2.64,-0.26 3.95,-0.39 5.41,0.8 1.44,1.19 2.89,2.38 4.34,3.57 1.45,1.19 1.58,2.51 1.71,3.83 0.13,1.32 -1.19,1.45 -2.38,2.9 -1.32,0.12 -3.83,1.7 -7.79,2.09 -5.27,0.52 -10.42,2.35 -17.02,3l3.03 3.7c2.64,-0.26 6.59,-0.65 9.23,-0.91 3.96,-0.38 6.6,-0.64 9.24,-0.9 6.59,-0.64 10.42,-2.35 12.93,-3.93 2.51,-1.58 3.7,-3.02 4.89,-4.47 -0.13,-1.32 -0.39,-3.96 -1.96,-6.47 -1.58,-2.51 -3.03,-3.7 -5.8,-4.76 -1.45,-1.19 -4.22,-2.25 -8.17,-1.86 -2.64,0.26 -7.92,0.77 -13.19,1.29 -3.96,0.39 -7.79,2.09 -10.43,2.35l-6.18 -8.72 26.13 -5.21 -3.16 -5.03zm-42.24 17.45c-1.58,-2.51 -3.02,-3.7 -5.79,-4.76 -2.77,-1.06 -5.41,-0.8 -9.49,-1.73 -3.96,0.39 -7.92,0.77 -14.51,1.42 -5.28,0.52 -10.43,2.35 -13.06,2.61 -2.51,1.58 -5.15,1.84 -4.89,4.48 0.13,1.31 0.25,2.63 1.83,5.14 1.58,2.51 4.35,3.57 5.8,4.76 2.76,1.06 5.4,0.81 9.36,0.42 -2.64,0.26 -3.83,1.71 -5.15,1.84 -1.32,0.12 -1.19,1.45 -2.38,2.89 0.13,1.32 0.26,2.64 1.71,3.83 1.58,2.51 3.03,3.7 5.79,4.76 2.77,1.06 5.54,2.12 9.5,1.73 3.95,-0.38 9.23,-0.9 14.51,-1.42 6.59,-0.64 10.42,-2.35 12.93,-3.93 2.51,-1.57 5.02,-3.15 4.89,-4.47 -0.13,-1.32 -0.26,-2.63 -1.84,-5.15 -1.45,-1.19 -2.89,-2.38 -4.34,-3.57 -1.45,-1.19 -2.77,-1.06 -5.54,-2.12 -1.32,0.13 -4.08,-0.93 -6.72,-0.67 3.83,-1.71 5.15,-1.84 6.33,-3.29 2.77,1.06 2.51,-1.58 1.06,-2.77zm-31.01 9.7c-1.45,-1.19 -2.76,-1.06 -3.02,-3.7 -1.45,-1.19 -1.58,-2.51 -1.71,-3.83 -0.13,-1.32 1.19,-1.45 2.51,-1.57 1.32,-0.14 3.83,-1.71 6.46,-1.97 3.96,-0.39 6.6,-0.65 7.92,-0.78 1.32,-0.13 2.63,-0.25 4.08,0.94 1.45,1.19 2.77,1.06 3.03,3.7 1.45,1.19 1.58,2.5 1.71,3.82 0.12,1.32 -1.2,1.45 -2.51,1.58 -1.32,0.13 -3.83,1.71 -6.47,1.97 -2.63,0.26 -5.28,0.51 -7.91,0.77 -1.32,0.13 -2.77,-1.06 -4.09,-0.93zm26.9 2.69c1.45,1.19 2.76,1.06 3.02,3.7 1.45,1.19 1.58,2.51 1.71,3.83 0.13,1.32 -1.19,1.45 -2.51,1.58 -1.32,0.13 -3.83,1.71 -7.78,2.09 -3.96,0.39 -6.6,0.65 -7.92,0.78 -1.32,0.12 -3.96,0.38 -4.09,-0.94 -1.44,-1.19 -2.76,-1.06 -4.34,-3.57 -1.45,-1.19 -1.58,-2.51 -1.71,-3.82 -0.13,-1.32 1.19,-1.45 2.51,-1.58 1.32,-0.13 3.83,-1.71 7.79,-2.1 3.95,-0.38 6.59,-0.64 7.91,-0.77 2.64,-0.26 5.41,0.8 5.41,0.8zm-55.3 20.07c-1.19,1.44 -5.15,1.83 -10.43,2.35 -3.95,0.39 -9.23,0.9 -15.82,1.55l3.02 3.7c2.64,-0.26 5.28,-0.52 9.23,-0.91 3.96,-0.38 6.6,-0.64 9.24,-0.9 6.59,-0.65 11.74,-2.48 14.25,-4.06 2.51,-1.58 5.02,-3.15 4.76,-5.79 -0.13,-1.32 -0.26,-2.64 -1.84,-5.15 -1.45,-1.19 -3.02,-3.7 -4.73,-7.53 -1.58,-2.51 -3.15,-5.02 -4.6,-6.2 -1.45,-1.2 -2.89,-2.38 -4.35,-3.57 -1.44,-1.2 -4.21,-2.25 -5.53,-2.13 -2.64,0.26 -5.41,-0.8 -8.04,-0.54 -2.64,0.26 -6.6,0.64 -11.88,1.16 -6.59,0.65 -10.42,2.36 -12.93,3.93 -2.51,1.58 -3.7,3.02 -3.57,4.34 0.13,1.32 0.39,3.96 3.28,6.34 1.58,2.51 4.48,4.89 5.8,4.76 2.76,1.06 5.53,2.12 8.17,1.86 2.64,-0.25 6.6,-0.64 11.87,-1.16 3.96,-0.38 7.79,-2.09 9.11,-2.22 1.32,-0.13 2.51,-1.58 3.7,-3.03 3.02,3.7 4.6,6.21 4.73,7.53 -1.06,2.77 -2.25,4.22 -3.44,5.67zm-7.89 -12.55c-1.32,0.13 -3.83,1.71 -7.78,2.09 -3.96,0.39 -6.6,0.65 -7.92,0.78 -1.32,0.13 -2.63,0.26 -4.09,-0.93 -1.44,-1.19 -2.89,-2.38 -4.34,-3.57 -1.45,-1.19 -1.58,-2.51 -1.71,-3.83 -0.13,-1.32 1.19,-1.45 2.51,-1.58 1.32,-0.13 3.83,-1.71 6.47,-1.96 2.63,-0.26 5.27,-0.52 7.91,-0.78 1.32,-0.13 2.77,1.06 4.09,0.93 1.45,1.19 2.89,2.38 4.47,4.89 1.45,1.19 1.58,2.51 1.71,3.83 1.19,-1.45 -0.13,-1.32 -1.32,0.13zm-25.76 22.5l-3.03 -3.7 -30.08 5.61 11.8 -29.13 -1.71 -3.82 -41.82 8.08 1.71 3.83 30.08 -5.6 -13.12 29.25 3.02 3.69 43.15 -8.21zm-96.84 17.47l24.81 -5.1c7.91,-0.77 11.74,-2.48 14.12,-5.37 2.51,-1.58 2.25,-4.22 -0.65,-6.6 -1.57,-2.5 -4.34,-3.57 -7.11,-4.63 -2.76,-1.06 -6.72,-0.67 -10.68,-0.29 3.83,-1.7 6.47,-1.96 7.66,-3.41 1.19,-1.45 1.06,-2.76 -0.52,-5.28 -1.58,-2.5 -4.47,-4.88 -8.43,-4.5 -4.09,-0.93 -9.37,-0.41 -15.96,0.23l-24.8 5.09 21.56 29.86zm22.2 -18.16c2.76,1.07 4.21,2.25 5.66,3.44 1.45,1.2 1.58,2.51 1.71,3.83 0.13,1.32 -1.19,1.45 -2.51,1.58 -1.32,0.13 -3.83,1.71 -6.47,1.97l-11.74 2.48 -7.63 -9.91 11.75 -2.48c3.82,-1.71 6.46,-1.97 9.23,-0.91zm-19.89 -12.7c2.63,-0.26 5.27,-0.51 6.59,-0.64 1.32,-0.13 2.64,-0.26 4.09,0.93 1.45,1.19 1.45,1.19 2.89,2.38 1.45,1.19 1.71,3.82 0.39,3.96 -1.19,1.44 -3.83,1.7 -7.78,2.09l-11.75 2.48 -7.62 -9.91 13.19 -1.29zm-1487.89 132.32l-4.73 -7.52 7.91 -0.78 -1.7 -3.83 -7.92 0.78 -6.31 -10.04 -7.91 0.78 2.48 11.74 -17.02 3 8.36 -23.46 -11.87 1.16 -8.23 24.78 1.7 3.83 30.08 -5.61 3.42 7.65 11.74 -2.48zm-82.94 -3.86l-6.45 -11.36 26.26 -3.9 -1.71 -3.83 -37.99 6.39 17.74 31.55 10.55 -1.03 -6.7 -13.99 23.61 -3.65 -3.02 -3.7 -22.29 3.52zm444.66 -110.11l10.43 -2.36 -6.57 -12.67 13.06 -2.61 1.32 -0.13 16.99 10.32 11.74 -2.48 -18.44 -11.52c3.83,-1.7 5.02,-3.15 4.89,-4.47 -0.13,-1.32 -0.38,-3.96 -1.96,-6.46 -1.58,-2.51 -3.03,-3.7 -4.48,-4.89 -1.45,-1.19 -4.21,-2.25 -6.85,-2 -2.64,0.26 -7.91,0.78 -13.19,1.29l-24.81 5.1 17.87 32.88zm6.26 -31.25c3.96,-0.39 5.28,-0.51 7.92,-0.77 1.32,-0.13 2.77,1.06 4.09,0.93 1.44,1.19 1.57,2.51 3.02,3.7 1.45,1.19 1.58,2.51 1.71,3.83 0.13,1.32 -1.19,1.45 -2.38,2.89 -1.32,0.13 -3.83,1.71 -6.47,1.97l-11.74 2.48 -6.44 -11.36 10.29 -3.67zm-76.66 19.49c0.13,1.32 1.71,3.83 3.28,6.34 1.58,2.51 3.16,5.02 3.29,6.33 1.45,1.19 1.58,2.51 3.02,3.7 1.45,1.19 4.22,2.25 5.67,3.44 2.76,1.07 5.4,0.81 8.04,0.55 2.64,-0.26 6.6,-0.65 11.87,-1.16 6.6,-0.65 10.42,-2.36 12.94,-3.93 2.5,-1.58 3.69,-3.03 4.88,-4.48 -0.12,-1.31 -0.38,-3.95 -1.96,-6.46 -1.58,-2.51 -3.03,-3.7 -5.79,-4.76 -1.45,-1.19 -4.09,-0.94 -6.86,-1.99 -2.63,0.25 -6.59,0.64 -11.87,1.16 -3.96,0.39 -7.78,2.09 -9.1,2.22 -1.32,0.13 -2.51,1.58 -3.7,3.03 -1.71,-3.83 -3.29,-6.34 -3.41,-7.66 -0.13,-1.32 1.06,-2.76 2.25,-4.21 1.19,-1.45 5.15,-1.84 10.42,-2.36 3.96,-0.38 9.23,-0.9 15.83,-1.55l-1.71 -3.82c-2.64,0.25 -5.28,0.51 -9.24,0.9 -3.95,0.39 -6.59,0.64 -9.23,0.9 -6.59,0.65 -11.74,2.48 -15.57,4.19 -2.51,1.58 -5.02,3.15 -4.76,5.79 1.45,1.19 1.58,2.51 1.71,3.83zm19.12 4.79c1.31,-0.13 3.82,-1.71 7.78,-2.09 3.96,-0.39 6.59,-0.65 7.92,-0.78 1.31,-0.13 2.63,-0.26 4.08,0.94 1.45,1.19 1.58,2.5 3.02,3.69 1.46,1.19 1.58,2.51 1.71,3.83 0.13,1.32 -1.19,1.45 -2.51,1.58 -1.31,0.13 -3.82,1.71 -7.78,2.09 -2.64,0.26 -5.28,0.52 -7.91,0.78 -1.32,0.13 -2.77,-1.06 -4.09,-0.94 -1.45,-1.19 -2.9,-2.37 -3.16,-5.01 -1.44,-1.19 -1.57,-2.51 -1.7,-3.83 0.12,1.32 1.32,-0.13 2.64,-0.26zm-36.84 18.25c-1.32,0.13 -3.83,1.71 -7.78,2.1 -5.28,0.52 -10.43,2.35 -17.02,3l1.7 3.83c2.64,-0.26 6.6,-0.65 9.24,-0.91 3.96,-0.39 6.59,-0.64 9.23,-0.9 6.6,-0.65 10.43,-2.35 12.94,-3.93 2.5,-1.58 5.02,-3.16 4.89,-4.47 1.19,-1.46 -0.26,-2.64 -0.52,-5.28 -1.58,-2.51 -3.02,-3.7 -5.79,-4.76 -2.77,-1.07 -5.41,-0.81 -9.37,-0.42 3.96,-0.39 5.15,-1.84 6.34,-3.28 1.19,-1.45 1.06,-2.77 -0.52,-5.28 -1.57,-2.51 -3.02,-3.7 -4.47,-4.89 -2.77,-1.06 -5.41,-0.8 -8.17,-1.86 -3.96,0.39 -7.92,0.77 -13.19,1.29 -2.64,0.26 -6.6,0.64 -9.11,2.22 -2.64,0.26 -5.27,0.52 -7.91,0.78l1.7 3.83c5.15,-1.84 10.43,-2.36 15.7,-2.87 3.96,-0.39 6.6,-0.65 7.92,-0.78 1.32,-0.13 3.95,-0.39 5.4,0.8 1.45,1.2 2.77,1.07 3.03,3.71 1.58,2.5 1.7,3.82 0.39,3.95 -1.2,1.45 -3.83,1.71 -6.47,1.97l-10.55 1.03 1.7 3.83 10.43 -2.36c3.95,-0.38 6.59,-0.64 9.23,-0.9 1.45,1.19 2.9,2.38 4.34,3.57 1.45,1.19 1.58,2.51 0.39,3.96 -1.19,1.45 -1.06,2.76 -3.7,3.02zm-59.97 -14.1l15.9 26.41 10.42 -2.36 -17.61 -30.23 -7.91 0.77 -12.8 5.25 1.83 5.15 10.17 -4.99zm-48.55 7.41c1.19,-1.45 5.15,-1.83 10.42,-2.35 3.96,-0.39 9.24,-0.9 15.83,-1.55l-1.71 -3.83c-2.64,0.26 -5.27,0.52 -9.23,0.91 -3.96,0.38 -6.6,0.64 -9.24,0.9 -6.59,0.65 -11.74,2.48 -15.57,4.19 -2.51,1.58 -5.02,3.15 -4.76,5.79 0.13,1.32 0.26,2.64 0.39,3.96 0.13,1.32 1.71,3.83 3.28,6.34 1.58,2.5 3.16,5.01 3.28,6.33 1.45,1.19 1.58,2.51 3.03,3.7 1.45,1.19 4.21,2.25 5.67,3.44 2.76,1.06 5.4,0.81 8.04,0.55 2.63,-0.26 6.59,-0.65 11.87,-1.16 6.59,-0.65 10.42,-2.36 12.93,-3.94 2.51,-1.57 3.7,-3.02 4.89,-4.47 -0.13,-1.32 -0.38,-3.95 -1.96,-6.46 -1.58,-2.51 -3.03,-3.7 -5.8,-4.77 -1.45,-1.19 -4.08,-0.93 -6.85,-1.99 -2.64,0.26 -6.59,0.65 -11.87,1.17 -3.96,0.38 -7.79,2.09 -9.1,2.22 -1.33,0.13 -3.83,1.71 -3.71,3.02 -1.7,-3.82 -3.28,-6.33 -3.41,-7.65 1.2,-1.45 2.39,-2.9 3.58,-4.35zm6.57 12.68c1.32,-0.13 3.82,-1.71 7.78,-2.1 3.96,-0.38 6.6,-0.64 7.92,-0.77 1.32,-0.13 2.63,-0.26 4.08,0.93 1.45,1.19 1.58,2.51 3.03,3.7 1.45,1.19 1.58,2.51 1.7,3.83 0.13,1.32 -1.19,1.45 -2.5,1.58 -1.32,0.13 -3.83,1.71 -7.79,2.09 -2.63,0.26 -5.28,0.52 -7.91,0.78 -1.32,0.12 -2.77,-1.07 -4.09,-0.93 -1.45,-1.2 -2.89,-2.38 -3.15,-5.03 -0.13,-1.31 -1.58,-2.5 -1.71,-3.82 0.13,1.32 0.13,1.32 2.64,-0.26zm-52.38 9.12c3.96,-0.39 7.91,-0.77 9.23,-0.9 2.64,-0.26 3.96,-0.39 5.41,0.8 1.45,1.19 2.9,2.38 3.03,3.7 1.45,1.19 1.57,2.51 0.38,3.96 0.13,1.32 -1.19,1.45 -2.38,2.89 -1.31,0.13 -5.14,1.84 -7.78,2.1 -5.28,0.51 -10.42,2.35 -17.02,3l1.71 3.82c2.63,-0.25 6.59,-0.64 9.23,-0.9 3.96,-0.39 6.6,-0.65 9.24,-0.9 6.59,-0.65 10.42,-2.36 14.25,-4.06 2.51,-1.58 5.02,-3.16 4.89,-4.48 -0.13,-1.32 -0.39,-3.95 -1.97,-6.46 -1.58,-2.51 -3.02,-3.7 -4.47,-4.89 -1.45,-1.19 -4.22,-2.25 -6.86,-1.99 -2.63,0.26 -7.91,0.77 -13.19,1.29 -3.95,0.39 -7.78,2.09 -10.42,2.35l-5.12 -11.49 26.12 -5.22 -1.71 -3.82 -36.68 6.25 9.6 16.37c5.41,0.8 10.55,-1.03 14.51,-1.42zm-72.29 9.74c2.77,1.06 5.4,0.8 9.36,0.42 -2.64,0.25 -3.83,1.7 -5.15,1.83 -1.32,0.13 -2.5,1.58 -2.38,2.9 0.13,1.32 0.26,2.64 0.39,3.95 1.58,2.51 3.03,3.7 4.48,4.89 1.44,1.19 5.53,2.13 8.17,1.87 3.96,-0.39 9.23,-0.91 14.51,-1.42 6.59,-0.65 10.42,-2.36 14.25,-4.06 2.51,-1.58 5.02,-3.15 4.89,-4.47 1.19,-1.45 -0.26,-2.64 -0.52,-5.28 -1.45,-1.19 -1.58,-2.51 -3.02,-3.7 -1.45,-1.19 -2.77,-1.06 -4.22,-2.25 -1.32,0.13 -3.96,0.39 -6.72,-0.67 3.83,-1.71 5.15,-1.84 6.33,-3.29 1.19,-1.45 1.07,-2.76 -0.51,-5.27 -1.58,-2.51 -3.03,-3.71 -4.48,-4.9 -2.5,1.58 -5.27,0.52 -7.91,0.78 -3.96,0.39 -7.91,0.78 -14.51,1.42 -5.28,0.52 -10.42,2.35 -13.06,2.61 -2.51,1.58 -5.15,1.84 -6.34,3.28 -1.19,1.45 -1.06,2.77 0.52,5.28 1.7,3.83 3.15,5.02 5.92,6.08zm34.68 0.6c1.45,1.19 1.45,1.19 3.03,3.7 1.45,1.19 1.58,2.51 0.39,3.95 0.12,1.32 -1.2,1.46 -2.51,1.58 -1.32,0.13 -3.83,1.71 -7.79,2.1 -3.96,0.39 -6.59,0.64 -7.91,0.77 -1.32,0.13 -2.64,0.26 -4.09,-0.93 -1.45,-1.19 -2.76,-1.06 -3.02,-3.7 -1.45,-1.19 -1.58,-2.51 -0.39,-3.96 -0.13,-1.32 1.19,-1.45 2.51,-1.57 1.32,-0.13 3.83,-1.71 7.78,-2.1 3.96,-0.39 6.6,-0.64 7.92,-0.77 1.31,-0.13 2.63,-0.26 4.08,0.93zm-30.31 -10.35c-0.13,-1.32 1.19,-1.45 2.51,-1.58 1.32,-0.13 3.83,-1.71 7.79,-2.09 3.95,-0.39 6.59,-0.65 7.91,-0.78 1.32,-0.12 2.64,-0.26 4.09,0.93 1.45,1.2 1.45,1.2 3.02,3.71 1.45,1.19 1.58,2.5 0.39,3.95 -1.19,1.45 -1.32,0.13 -2.64,0.26 -1.32,0.13 -3.83,1.71 -6.46,1.97 -3.96,0.38 -5.28,0.51 -7.92,0.77 -1.32,0.13 -2.63,0.26 -4.09,-0.93 -1.44,-1.19 -1.44,-1.19 -3.02,-3.7 -1.32,0.13 -1.45,-1.19 -1.58,-2.51zm-61.76 22.03c1.45,1.19 4.08,0.93 6.85,1.99 2.64,-0.26 6.59,-0.65 11.87,-1.16 3.96,-0.39 7.79,-2.1 9.11,-2.23 1.31,-0.13 3.82,-1.71 3.69,-3.02 1.71,3.83 3.29,6.34 3.42,7.65 0.13,1.32 -1.07,2.77 -2.25,4.22 -2.51,1.58 -5.15,1.84 -10.43,2.35 -3.95,0.39 -9.23,0.91 -15.82,1.55l1.7 3.83c2.64,-0.26 5.28,-0.52 9.24,-0.9 3.95,-0.39 6.59,-0.65 9.23,-0.91 6.6,-0.64 11.75,-2.48 14.25,-4.06 2.51,-1.57 5.02,-3.15 6.08,-5.92 -0.13,-1.32 -0.26,-2.64 -0.39,-3.95 -0.13,-1.32 -1.71,-3.83 -3.28,-6.34 -1.58,-2.51 -3.15,-5.02 -3.28,-6.34 -1.45,-1.19 -2.9,-2.38 -3.03,-3.7 -1.44,-1.19 -2.89,-2.37 -5.53,-2.12 -2.64,0.26 -4.09,-0.93 -8.05,-0.54 -2.63,0.25 -6.59,0.64 -11.87,1.16 -6.59,0.65 -10.42,2.35 -12.93,3.93 -2.51,1.58 -3.7,3.02 -4.89,4.47 0.13,1.32 0.39,3.96 1.96,6.47 1.45,1.19 3.03,3.7 4.35,3.57zm4.24 -11.08c-0.13,-1.31 1.19,-1.44 2.51,-1.57 1.32,-0.13 3.83,-1.71 7.78,-2.1 2.64,-0.26 5.28,-0.51 7.92,-0.77 1.32,-0.13 2.76,1.06 4.08,0.93 1.45,1.19 2.9,2.38 3.16,5.02 0.13,1.32 1.58,2.51 0.39,3.96 0.12,1.32 -1.2,1.45 -2.51,1.58 -1.32,0.13 -3.83,1.7 -7.79,2.09 -3.96,0.39 -6.59,0.65 -7.91,0.77 -1.32,0.13 -2.64,0.26 -4.09,-0.93 -1.45,-1.19 -1.58,-2.51 -3.02,-3.7 -0.39,-3.95 -0.52,-5.28 -0.52,-5.28zm-8.23 24.78l-30.08 5.61 17.07 -29.64 -1.57 -2.51 -41.95 6.77 1.7 3.83 28.76 -5.48 -17.07 29.64 1.71 3.83 44.46 -8.35 -3.03 -3.7zm-54.75 12.02c2.5,-1.57 2.24,-4.21 0.67,-6.72 -1.58,-2.51 -3.03,-3.7 -5.8,-4.76 -2.76,-1.06 -6.72,-0.68 -10.67,-0.29 3.82,-1.7 6.46,-1.96 7.65,-3.41 1.19,-1.45 1.06,-2.77 0.8,-5.41 -1.57,-2.5 -4.47,-4.89 -7.11,-4.63 -5.53,-2.12 -9.49,-1.73 -17.41,-0.96l-26.12 5.22 16.42 31.69 24.81 -5.09c9.1,-2.22 14.25,-4.06 16.76,-5.64zm-43.22 -19.74l11.74 -2.48c2.64,-0.26 5.28,-0.52 6.6,-0.64 1.32,-0.13 2.63,-0.26 4.09,0.93 1.44,1.19 1.44,1.19 2.89,2.38 1.45,1.19 0.26,2.63 -0.93,4.08 -1.19,1.45 -3.83,1.71 -7.79,2.1l-11.74 2.48 -4.86 -8.85zm11.68 24.16l-4.99 -10.16 11.75 -2.49c3.95,-0.39 7.91,-0.77 9.23,-0.9 2.77,1.06 4.22,2.25 4.35,3.57 0.13,1.32 1.58,2.51 0.39,3.96 0.12,1.31 -1.2,1.45 -2.51,1.57 -1.32,0.13 -3.83,1.71 -6.47,1.97l-11.75 2.48zm1837.92 -202.54c6.05,7.4 12.23,16.12 24.88,22.87 20.94,9.93 57.75,5 82.3,-2.73 37.34,-12.98 9.83,-35.59 -0.96,-50.51 -12.09,-14.8 -20.5,-32.62 -37.75,-45.58 -17.25,-12.96 -47.97,-13.95 -80.44,-5.45 -35.09,8.77 -32.35,23.15 -23.15,35.57 12.11,14.79 23.02,31.03 35.12,45.83zm0.81 -73.32c24.55,-7.73 37.58,2.97 42.44,11.82 10.66,13.61 19.86,26.02 30.52,39.63 7.5,8.59 32.24,30.14 3.61,36.93 -33.78,8.64 -42.83,-15.78 -50.45,-25.69 -10.66,-13.6 -19.99,-27.34 -30.51,-39.62 -3.42,-7.66 -12.36,-17.44 4.39,-23.07zm-134.19 98.36c6.18,8.72 12.23,16.12 24.87,22.87 20.95,9.93 57.89,6.32 82.3,-2.73 37.35,-12.98 9.71,-36.91 -0.95,-50.51 -12.1,-14.8 -19.18,-32.75 -37.88,-46.89 -17.25,-12.96 -47.98,-13.95 -80.44,-5.45 -35.1,8.76 -32.36,23.14 -23.15,35.56 12.1,14.79 23.02,31.04 35.25,47.15zm2.13 -73.45c24.55,-7.73 37.58,2.98 42.44,11.82 9.33,13.74 19.86,26.03 30.51,39.63 7.5,8.59 32.25,30.14 3.62,36.94 -33.78,8.63 -42.83,-15.79 -50.46,-25.7 -10.65,-13.6 -19.99,-27.34 -30.51,-39.62 -3.54,-8.98 -12.49,-18.75 4.4,-23.07zm-109.25 26.67c12.35,17.44 26.04,34.74 38.4,52.17 7.62,9.91 13.81,18.63 21.43,28.54 1.58,2.5 4.99,10.16 10.4,10.96 2.64,-0.25 28.89,-4.16 31.4,-5.73 1.32,-0.13 -1.45,-1.19 -1.58,-2.51 -0.64,-6.6 -10.65,-13.61 -13.94,-19.94 -15.38,-21.14 -30.77,-42.27 -46.02,-62.08 -4.74,-7.53 -9.34,-13.74 -15.39,-21.14 0,0 -1.71,-3.82 -3.02,-3.7 -2.77,-1.06 -19.66,3.26 -23.62,3.65 -0.93,4.08 -5.82,8.56 -12.03,13.16 -5.02,3.16 -16.76,5.64 -20.46,8.66 -3.7,3.03 1.96,6.47 3.54,8.98 11.88,-1.17 26.13,-5.23 30.89,-11.02zm902.6 119.4l-15.13 -18.5c-3.05,9.63 -12.83,18.57 -28.01,26.72l43.14 -8.22zm-166.43 0.31c-1.32,0.13 -2.64,0.26 -3.96,0.39l-5.28 0.51 3.03 3.7 5.27 -0.51c1.32,-0.13 2.64,-0.26 3.83,-1.71 1.32,-0.13 1.19,-1.45 -0.13,-1.32 -1.32,0.13 -1.44,-1.19 -2.76,-1.06zm-59.39 19.13l5.28 -0.52 -5.67 -3.44 0.39 3.96zm-301.87 58.85c2.64,-0.26 5.15,-1.84 5.15,-1.84 1.19,-1.45 -0.26,-2.64 -1.84,-5.15 -1.57,-2.51 -3.02,-3.7 -5.66,-3.44 -1.45,-1.19 -4.09,-0.93 -8.04,-0.54l-5.28 0.51 7.76 11.23 7.91 -0.77zm-2111.33 -33.05c5.69,-9.88 18.11,-19.08 34.74,-26.04l-44.46 8.35 9.72 17.69zm252.52 389.45c-22.68,-0.45 -43.11,-5.11 -57.08,-11.73l9.99 20.33 47.09 -8.6zm2006.86 -394.86c-2.76,-1.07 -5.4,-0.81 -9.36,-0.42 -3.96,0.39 -5.15,1.84 -6.34,3.28 -1.19,1.45 -1.06,2.77 0.52,5.28 1.58,2.51 3.03,3.7 5.67,3.44 2.76,1.06 5.4,0.8 9.36,0.41 3.96,-0.38 5.15,-1.83 6.34,-3.28 1.19,-1.45 1.06,-2.76 -0.52,-5.28 -1.45,-1.19 -3.03,-3.69 -5.67,-3.43zm-62.8 11.47c-1.44,-1.19 -4.08,-0.94 -8.04,-0.55l-5.28 0.52 7.76 11.22 5.28 -0.51c2.64,-0.26 5.15,-1.84 5.15,-1.84 1.19,-1.45 -0.26,-2.64 -1.84,-5.15 1.19,-1.44 -1.57,-2.5 -3.03,-3.69zm123.7 -436.93l-41.95 6.77c21.36,0.57 41.67,3.91 55.5,9.22l-13.55 -15.99zm-1779.54 349.98c7.92,-0.78 15.45,-5.51 10.58,-14.36 -4.86,-8.84 -15.54,-9.13 -23.45,-8.35 -7.91,0.77 -15.44,5.5 -10.58,14.35 6.18,8.71 16.86,9 23.45,8.36zm1463.62 123.08c-0.13,-1.33 -1.45,-1.19 -2.77,-1.07 -1.32,0.13 -2.63,0.26 -3.95,0.39l-5.28 0.52 3.15 5.02 5.28 -0.52c1.32,-0.13 2.64,-0.26 3.83,-1.71 1.19,-1.45 1.19,-1.44 -0.26,-2.63zm-51.18 -373.2c7.92,-0.77 14.12,-5.38 7.95,-14.1 -6.18,-8.71 -16.87,-9 -24.78,-8.23 -7.91,0.78 -14.12,5.38 -7.95,14.1 6.18,8.72 16.87,9 24.78,8.23zm205.55 -36.1c7.91,-0.78 14.12,-5.38 7.94,-14.1 -6.18,-8.71 -16.86,-9 -24.78,-8.22 -7.91,0.77 -14.12,5.37 -7.94,14.09 7.37,7.27 18.18,8.87 24.78,8.23zm-1831.31 324.41c7.91,-0.77 15.44,-5.51 10.58,-14.36 -4.87,-8.84 -15.55,-9.13 -23.46,-8.35 -7.92,0.77 -15.44,5.51 -10.58,14.35 4.86,8.85 15.54,9.13 23.46,8.36zm1620.32 105.08c2.64,-0.26 5.15,-1.84 5.15,-1.84 1.19,-1.45 -0.26,-2.64 -1.84,-5.15 -1.57,-2.51 -3.02,-3.7 -5.66,-3.44 -1.45,-1.19 -4.09,-0.93 -8.04,-0.55l-5.28 0.52 7.75 11.23 7.92 -0.77zm-1268.7 194.76c-6.44,-11.35 -15,-17.17 -21.85,-19.17 31.53,-4.42 65.95,-6.45 74.1,8.73 8.14,15.18 -20.1,25.94 -51.5,31.67 3.69,-3.02 5.69,-9.87 -0.75,-21.23zm-47.1 8.61c6.44,11.35 15,17.17 21.85,19.17 -31.53,4.42 -65.95,6.45 -74.1,-8.73 -8.14,-15.18 20.23,-24.62 51.5,-31.67 -5.02,3.15 -5.69,9.87 0.75,21.23zm16.09 1.09c-1.45,-1.2 -1.45,-1.2 0,0 -9.47,-15.06 -3.39,-20.98 3.08,-22.95 1.32,-0.12 1.32,-0.12 2.64,-0.25 5.53,2.12 11.32,6.88 16.18,15.73 0.13,1.32 1.58,2.51 1.58,2.51l-23.48 4.96zm72.73 -32.43c-16.35,-3.72 -42.98,-3.78 -79.66,2.47 -58.84,11.09 -80.1,25.16 -71.96,40.34 0.13,1.32 1.58,2.51 1.58,2.51l-5.28 0.52c0,0 -0.13,-1.33 -0.13,-1.33 -3.28,-6.33 -11.71,-10.83 -25.29,-13.5 -16.35,-3.73 -42.98,-3.78 -79.66,2.47 -58.84,11.09 -80.11,25.15 -71.96,40.34 0.13,1.32 1.58,2.5 1.58,2.5l-5.28 0.52c-5.12,-11.48 -13.13,-25.35 -13.13,-25.35l-5.28 0.52c-0.13,-1.32 -1.58,-2.51 -1.58,-2.51l-49.74 8.87c0,0 -10.96,10.39 -42.36,16.13 0,0 5.27,-0.52 12,0.16 -1.32,0.12 -3.96,0.38 -6.6,0.64 0,0 9.24,-0.9 17.41,0.96 4.09,0.93 6.98,3.31 8.56,5.82 1.58,2.51 3.15,5.02 3.41,7.66l-51.99 13.08c-15.7,2.87 -30.46,1.65 -41.41,-1.28l19.02 -9.85 -37.58 -2.98 29.17 -14.84 -37.58 -2.98 29.18 -14.84 -37.58 -2.98 29.17 -14.84 -37.58 -2.98 29.18 -14.84 -37.59 -2.98 29.18 -14.84 -37.58 -2.98 25.75 -9.18 -37.58 -2.98 29.17 -14.84 -37.58 -2.98 29.18 -14.84 -37.58 -2.98 29.17 -14.84 -37.58 -2.98 27.86 -14.72 -37.45 -1.66 27.99 -13.39 -37.46 -1.66 27.99 -13.39 -36.12 -1.8 27.98 -13.39 -37.45 -1.66 27.99 -13.39 -35.07 -4.56 27.99 -13.39 -36.13 -1.8 27.99 -13.39 -36.27 -3.11 27.99 -13.39 -36.13 -1.79 27.98 -13.39 -24.39 -4.28c6.08,-5.92 17.57,-11.04 33.27,-13.91l714.79 -125.89c-11.23,7.75 -21.13,15.38 -30.91,24.33 -8.59,7.5 -15.73,16.19 -21.55,24.75 -7.14,8.69 -11.64,17.12 -16.14,25.55 -4.51,8.43 -7.56,18.05 -9.29,27.54 -1.74,9.49 -3.47,18.98 -2.57,28.22 0.26,2.64 0.52,5.28 0.65,6.59 0.25,2.64 0.51,5.28 0.64,6.6 1.84,5.15 2.23,9.1 4.06,14.25 2.22,9.1 7.09,17.95 11.95,26.79l4.6 6.21 1.71 3.83 3.02 3.7 4.6 6.21 5.93 6.07c3.02,3.7 8.81,8.46 11.84,12.16 2.9,2.38 4.34,3.57 7.24,5.95 2.9,2.38 4.34,3.57 7.24,5.95 10.14,8.33 21.46,15.21 32.79,22.09 12.65,6.76 25.29,13.51 37.94,20.26 26.48,12.06 58.11,22.28 89.48,29.86 17.8,4.92 35.46,8.52 54.31,10.66l-249.87 45.77c0,0 -0.13,-1.32 -0.13,-1.32 -4.6,-6.2 -13.03,-10.7 -26.48,-12.05zm-223.65 55.19c-6.44,-11.36 -15,-17.18 -21.86,-19.17 31.53,-4.42 65.96,-6.46 74.1,8.73 8.15,15.18 -21.41,26.06 -51.49,31.67 5.14,-1.83 5.82,-8.56 -0.75,-21.23zm-47.1 8.6c6.44,11.36 13.68,17.31 21.85,19.17 -31.53,4.42 -65.95,6.46 -74.1,-8.72 -8.14,-15.19 21.42,-26.07 51.5,-31.68 -3.7,3.03 -5.69,9.88 0.75,21.23zm16.09 1.09c0,0 -0.14,-1.31 0,0 -8.15,-15.18 -3.52,-22.29 3.08,-22.94 1.32,-0.13 1.32,-0.13 2.63,-0.26 5.54,2.12 11.33,6.88 16.19,15.73 0.13,1.32 1.58,2.51 1.58,2.51l-23.48 4.96zm-141.72 35.18l-8.27 -16.5c-1.71,-3.83 -7.24,-5.95 -14.1,-7.95 10.29,-3.67 16.63,-6.95 20.33,-9.98l36.68 -6.25c4.86,8.85 14.84,29.18 16.55,33.01 1.58,2.5 4.34,3.56 8.56,5.82l-64.12 11.6c3.7,-3.03 5.95,-7.24 4.37,-9.75zm-11.55 -403.71c69.39,-12.12 104.08,-11.52 108.94,-2.67 4.86,8.84 -23.38,19.6 -92.65,33.04 -70.71,12.25 -105.39,11.65 -108.94,2.67 -4.86,-8.85 23.25,-20.92 92.65,-33.04zm-100.98 43.18c1.71,3.83 33.37,0.73 33.37,0.73l-142.62 25.94c0,0 28.38,-9.43 26.8,-11.94 -1.58,-2.51 -1.84,-5.15 -4.99,-10.17 -3.16,-5.02 -34.81,-1.92 -34.81,-1.92 36.67,-6.25 51.86,-14.4 51.86,-14.4l58.84 -11.09c1.31,-0.12 9.85,19.02 11.55,22.85zm314.44 -80.05c69.39,-12.12 104.08,-11.53 108.94,-2.68 4.86,8.85 -22.07,19.48 -92.65,33.04 -69.39,12.12 -104.08,11.52 -108.94,2.68 -4.99,-10.17 23.26,-20.92 92.65,-33.04zm1542.5 -200.26l19.65 -3.26 4.48 4.89 -19.66 3.26 3.03 3.7 23.61 -3.65 4.47 4.89 -44.46 8.35 -18.15 -22.19 44.46 -8.35 4.47 4.89 -23.61 3.64 1.71 3.83zm50.8 -11.63c1.32,-0.13 1.32,-0.13 0,0 1.44,1.19 1.44,1.19 2.76,1.06 1.32,-0.13 1.32,-0.13 3.96,-0.39l9.23 -0.9c2.64,-0.26 5.28,-0.52 6.6,-0.65 2.63,-0.26 4.09,0.94 5.4,0.8 1.46,1.2 4.22,2.25 5.67,3.45 1.58,2.5 1.71,3.83 0.52,5.27 -1.2,1.45 -2.38,2.9 -6.34,3.29 -2.64,0.26 -6.47,1.96 -11.74,2.48 -3.96,0.39 -7.92,0.77 -11.74,2.48 -3.96,0.39 -7.92,0.77 -11.88,1.16l-4.47 -4.89c7.91,-0.77 13.19,-1.29 17.02,-3 2.64,-0.26 3.96,-0.38 5.28,-0.51 1.32,-0.13 1.32,-0.13 2.63,-0.26 0,0 0,0 0,0 0,0 0,0 -0.13,-1.32 0,0 -1.44,-1.19 -1.44,-1.19 0,0 -1.33,0.13 -2.64,0.26 -1.32,0.13 -2.64,0.25 -5.28,0.51l-10.55 1.04c-3.96,0.38 -6.6,0.64 -8.04,-0.55 -2.77,-1.06 -4.22,-2.25 -5.8,-4.76 -1.58,-2.51 -1.71,-3.83 -0.52,-5.28 1.19,-1.45 3.7,-3.02 6.34,-3.28 2.64,-0.26 7.79,-2.1 11.75,-2.48 3.95,-0.39 7.91,-0.78 11.74,-2.48 3.95,-0.39 6.59,-0.65 9.23,-0.91l4.48 4.89c-2.64,0.26 -5.28,0.52 -7.92,0.78 -3.96,0.38 -6.59,0.64 -9.23,0.9 -1.2,1.45 -3.7,3.03 -4.89,4.48 -0.13,-1.32 -0.13,-1.32 0,0zm-31.9 55.06l-19.66 3.25 -1.26 -26.51 28.76 -5.47 35.31 20.51 -20.98 3.39 -4.35 -3.57 -17.02 2.99 -0.8 5.41zm-34.14 -8.65c-2.51,1.58 -5.15,1.84 -7.66,3.42 0,0 0,0 -0.13,-1.33 0,0 0,0 -0.12,-1.32 0.12,1.33 2.76,1.07 7.91,-0.77zm-8.95 -9.77l4.47 4.89c-6.59,0.64 -10.55,1.03 -11.87,1.16 -3.95,0.38 -6.59,0.64 -7.78,2.09 -1.32,0.13 -1.19,1.45 -1.19,1.45 0.13,1.32 1.58,2.51 3.15,5.02 1.58,2.51 3.03,3.7 4.35,3.57 1.44,1.19 2.76,1.06 4.08,0.93 1.32,-0.13 3.96,-0.38 7.92,-0.77 3.95,-0.39 7.78,-2.1 11.74,-2.49l4.47 4.9c-1.32,0.13 -3.83,1.7 -7.78,2.09 -2.64,0.26 -6.6,0.65 -9.11,2.23 -7.91,0.77 -14.38,2.74 -18.46,1.8 -3.96,0.39 -8.05,-0.54 -9.5,-1.73 -2.76,-1.06 -4.34,-3.57 -7.37,-7.27 -3.02,-3.7 -3.28,-6.34 -3.41,-7.66 -0.13,-1.32 1.07,-2.76 4.89,-4.47 2.51,-1.58 9.11,-2.23 16.89,-4.32 2.64,-0.25 5.28,-0.51 9.24,-0.9 1.32,-0.14 3.95,-0.4 5.27,-0.52zm-34.22 31.31l-20.98 3.39 -18.28 -23.52 20.98 -3.38 18.28 23.51zm27.24 -34.63l-20.98 3.39 -13.68 -17.31 -14.38 2.75 -4.6 -6.21 49.74 -8.86 4.6 6.2 -14.38 2.74 13.68 17.3zm-34.04 6l-20.98 3.38 -4.34 -3.57 -17.02 3 0.39 3.96 -19.66 3.26 -1.26 -26.51 28.76 -5.48 34.11 21.96zm-61.09 15.3c5.28,-0.51 9.23,-0.9 13.19,-1.29 2.64,-0.26 5.41,0.8 6.85,1.99 1.45,1.19 2.9,2.38 4.48,4.89 1.45,1.19 1.7,3.83 1.83,5.15 0.13,1.32 -1.06,2.77 -3.7,3.02l15.29 6.5 -20.98 3.38 -12.64 -6.75 -3.96 0.39 6.05 7.4 -20.98 3.38 -18.28 -23.51 32.85 -4.55zm-108.77 45.27l-13.06 2.61 -18.44 -11.51 -1.32 0.13 9.34 13.73 -19.66 3.26 -16.96 -23.64 28.76 -5.48 15.54 9.13 1.32 -0.13 -1.16 -11.87 28.76 -5.48 16.96 23.64 -19.65 3.26 -9.34 -13.73 -1.32 0.12 0.23 15.96zm-90.37 15.51l-19.65 3.25 0.05 -26.64 28.76 -5.47 33.99 20.64 -20.98 3.39 -4.35 -3.57 -17.02 3 -0.8 5.4zm-34.6 -40.56l19.66 -3.26 4.47 4.89 -19.65 3.26 3.02 3.7 23.62 -3.65 4.6 6.21 -44.46 8.35 -16.96 -23.65 44.46 -8.35 4.6 6.21 -23.61 3.65 0.25 2.64zm101.79 -48.59l20.97 -3.38 10.79 14.92 -20.98 3.39 -4.47 -4.89 -11.75 2.48 4.48 4.89 -20.98 3.38 -10.79 -14.92 20.98 -3.39 4.48 4.9 11.74 -2.49 -4.47 -4.89zm36.75 21.71c0,0 0.13,1.32 0,0 1.44,1.19 1.44,1.19 2.76,1.06 1.32,-0.13 1.32,-0.13 3.96,-0.39l9.23 -0.9c2.64,-0.26 5.28,-0.52 6.6,-0.65 2.63,-0.25 4.09,0.94 5.4,0.81 1.46,1.19 4.22,2.25 5.67,3.44 1.58,2.51 1.71,3.83 0.52,5.27 -1.19,1.46 -2.38,2.9 -6.34,3.29 -2.64,0.26 -6.47,1.96 -11.74,2.48 -3.96,0.39 -7.92,0.78 -11.74,2.48 -3.96,0.39 -7.92,0.78 -11.88,1.16l-4.47 -4.89c7.91,-0.77 13.06,-2.61 17.02,-2.99 2.64,-0.26 3.96,-0.39 5.28,-0.52 1.32,-0.13 1.32,-0.13 2.63,-0.26 0,0 0,0 0,0 0,0 0,0 -0.13,-1.32 0,0 -1.44,-1.19 -1.44,-1.19 0,0 -1.33,0.13 -2.64,0.26 -1.32,0.13 -2.64,0.26 -5.28,0.52l-10.55 1.03c-3.96,0.39 -6.6,0.64 -8.04,-0.55 -2.77,-1.06 -4.22,-2.25 -5.8,-4.76 -1.58,-2.51 -1.71,-3.83 -0.52,-5.28 1.19,-1.44 3.71,-3.02 6.34,-3.28 2.64,-0.26 7.79,-2.09 11.74,-2.48 3.96,-0.39 7.92,-0.78 11.75,-2.48 3.96,-0.39 7.91,-0.78 9.23,-0.91l4.48 4.89c-2.64,0.26 -5.28,0.52 -9.24,0.91 -3.96,0.38 -6.59,0.64 -9.23,0.9 -1.07,2.77 -2.39,2.9 -3.57,4.35 -0.13,-1.32 -1.32,0.13 0,0zm-37.35 12.98c-3.03,-3.7 -6.06,-7.4 -8.82,-8.46 0,0 -1.45,-1.19 -1.45,-1.19l11.74 -2.48c0.13,1.32 0.39,3.95 1.84,5.14 1.57,2.51 4.34,3.57 5.92,6.08l3.15 5.02 3.03 3.7 -10.42 2.35c0,0 -0.13,-1.32 -0.13,-1.32 -0.26,-2.64 -1.84,-5.14 -4.86,-8.84zm-20.57 -5.98c1.45,1.19 4.35,3.57 7.37,7.27 3.03,3.7 4.61,6.21 4.74,7.53 0.13,1.31 -1.07,2.76 -4.9,4.47 -3.82,1.71 -10.42,2.35 -19.52,4.57l-22.3 3.52 -16.96 -23.65 22.29 -3.51c9.11,-2.22 15.71,-2.87 21.11,-2.07 2.77,1.07 6.73,0.68 8.17,1.87zm66.71 14.78l44.46 -8.35 4.6 6.21 -23.61 3.64 2.89 2.38 19.66 -3.26 4.47 4.89 -19.65 3.26 3.02 3.7 23.61 -3.65 4.61 6.21 -44.46 8.35 -19.6 -23.38zm71.51 -17.66l-20.97 3.39 -13.68 -17.3 -14.38 2.73 -4.61 -6.2 49.74 -8.87 4.6 6.21 -14.38 2.74 13.68 17.3zm-74.87 -16.64l-10.78 -14.92 44.46 -8.35 3.02 3.7 -23.61 3.64 1.58 2.51 19.65 -3.26 3.03 3.7 -19.66 3.26 1.58 2.51 23.61 -3.65 3.03 3.7 -45.91 7.16zm-5.45 -42.08c-6.18,-8.72 19.43,-19.21 87.5,-31.2 66.75,-11.86 101.44,-11.26 107.49,-3.87 6.18,8.72 -19.43,19.22 -86.18,31.08 -68.08,11.99 -102.63,12.71 -108.81,3.99zm27.67 10.61l-137.47 24.11c0,0 27.06,-9.31 25.48,-11.82 -1.58,-2.51 -3.03,-3.7 -7.63,-9.91 -3.15,-5.02 -34.81,-1.92 -34.81,-1.92 35.36,-6.12 49.22,-14.14 49.22,-14.14l57.65 -9.64c0,0 12.36,17.44 15.39,21.14 1.7,3.83 32.17,2.18 32.17,2.18zm-103.72 28.79l3.03 3.71 -14.39 2.74 7.76 11.22 -20.97 3.39 -7.76 -11.23 -14.38 2.74 -3.03 -3.7 49.74 -8.87zm-99.77 96.33l-20.97 3.39 -16.97 -23.65 43.15 -8.21 4.6 6.2 -22.3 3.52 3.03 3.7 19.66 -3.26 4.6 6.21 -19.66 3.26 4.86 8.84zm4.82 -32.43l-20.98 3.39 -12.36 -17.44 -14.38 2.74 -4.6 -6.2 51.06 -9 4.6 6.21 -14.38 2.74 11.04 17.56zm-43.14 8.22l-20.98 3.38 -16.97 -23.64 20.98 -3.39 16.97 23.65zm505.87 -178.7c66.75,-11.86 101.43,-11.26 107.49,-3.86 6.18,8.72 -18.11,19.09 -86.19,31.08 -66.75,11.86 -101.44,11.26 -108.81,3.99 -4.86,-8.85 20.75,-19.34 87.51,-31.21zm365.35 358.43c0,0 0,0 0,0 0.12,1.32 -1.19,1.45 -1.19,1.45l-13.07 2.61c-1.32,0.13 -1.32,0.13 -2.63,0.26 0,0 -1.33,0.13 -1.33,0.13l-11.06 -4.25 -2.64 0.26 3.15 5.02c0,0 0.13,1.32 0.13,1.32 0,0 -1.32,0.13 -3.83,1.71l-9.1 2.22c-1.32,0.13 -2.64,0.26 -3.96,0.39 -1.32,0.13 -1.45,-1.19 -2.76,-1.06l-13.68 -17.3c0,0 -0.13,-1.33 -0.13,-1.33 0,0 1.32,-0.12 3.83,-1.7l19.65 -3.26c7.79,-2.09 14.51,-1.42 18.47,-1.81 4.08,0.94 8.17,1.87 9.75,4.38 1.45,1.19 1.58,2.51 1.71,3.83 0.13,1.31 -2.38,2.89 -3.7,3.02l12.39 4.11c-0.14,-1.32 0,0 0,0zm-55.02 9.38c1.32,-0.13 1.32,-0.13 0,0 1.45,1.19 1.45,1.19 0.13,1.32l-14.38 2.74c-1.32,0.13 -2.64,0.26 -3.96,0.39l-4.21 -2.25 -14.38 2.74 0.26 2.64c0,0 -1.19,1.45 -2.51,1.57l-14.38 2.75c-1.32,0.12 -1.32,0.12 -2.64,0.25 0,0 0,0 -0.13,-1.32l4.53 -21.75c0,0 -0.13,-1.32 1.19,-1.45 0,0 1.32,-0.13 2.64,-0.26l9.1 -2.22c1.32,-0.13 2.64,-0.26 2.64,-0.26 1.32,-0.13 1.32,-0.13 2.77,1.06l33.33 14.05zm-164.34 8.1c0,0 -0.13,-1.32 -0.13,-1.32 0,0 1.32,-0.13 3.83,-1.71l9.1 -2.22c1.32,-0.13 2.64,-0.26 3.96,-0.39 1.32,-0.13 1.45,1.19 2.77,1.06l10.78 14.92 18.34 -3.12c1.32,-0.13 2.64,-0.26 3.95,-0.39 1.33,-0.13 1.46,1.19 1.46,1.19l1.44 1.19c0.13,1.32 0.13,1.32 0.13,1.32 0,0 -1.32,0.13 -2.51,1.58l-32.71 5.87c-1.32,0.12 -2.64,0.25 -3.96,0.38 -1.32,0.13 -1.45,-1.19 -2.77,-1.06l-13.68 -17.3zm-0.7 20.04c-3.7,3.03 -10.17,4.99 -19.27,7.21 -9.1,2.23 -17.15,1.68 -23.87,1.01 -6.72,-0.68 -10.94,-2.93 -13.97,-6.62 -3.02,-3.7 -1.97,-6.47 0.42,-9.37 3.7,-3.02 10.16,-4.99 19.27,-7.21 9.1,-2.22 17.15,-1.68 23.87,-1.01 6.72,0.68 10.94,2.93 13.97,6.63 3.02,3.7 1.96,6.46 -0.42,9.36zm49.12 -28.78c0,0 -0.13,-1.32 -0.13,-1.32 0,0 1.32,-0.13 3.83,-1.71l9.1 -2.22c1.33,-0.13 2.64,-0.25 3.96,-0.39 1.32,-0.12 1.45,1.19 2.77,1.07l10.78 14.92 18.34 -3.13c1.32,-0.13 2.63,-0.25 3.96,-0.38 1.32,-0.13 1.44,1.19 1.44,1.19l1.45 1.19c0.13,1.32 0.13,1.32 0.13,1.32 0,0 -1.32,0.13 -2.5,1.58l-32.73 5.86c-1.31,0.13 -2.63,0.26 -3.95,0.39 -1.32,0.13 -1.45,-1.19 -2.77,-1.06l-13.68 -17.31zm186.28 -28.88c0,0 1.45,1.19 1.45,1.19 1.32,-0.14 1.32,-0.14 2.63,-0.26 1.32,-0.13 2.64,-0.26 5.28,-0.52 3.96,-0.39 8.04,0.55 10.68,0.29 2.64,-0.26 5.41,0.8 6.73,0.67 1.44,1.19 2.76,1.07 4.21,2.25 1.58,2.51 0.39,3.96 -2.12,5.54 -2.51,1.58 -7.66,3.41 -14.25,4.05 -5.28,0.52 -9.24,0.91 -14.51,1.43 -3.96,0.38 -7.92,0.77 -12,-0.16 -1.32,0.12 -2.64,0.26 -2.77,-1.07 0,0 0,0 -0.13,-1.32l2.25 -4.21c0,0 1.32,-0.13 1.32,-0.13 0,0 1.32,-0.13 1.32,-0.13 2.64,-0.26 5.28,-0.52 7.92,-0.77 2.64,-0.26 5.27,-0.52 7.91,-0.78 2.64,-0.26 3.96,-0.39 3.83,-1.71 1.32,-0.12 1.19,-1.44 -0.13,-1.31 0,0 -1.45,-1.2 -2.77,-1.07 -1.32,0.13 -3.95,0.39 -6.72,-0.67 -6.59,0.64 -10.68,-0.29 -14.64,0.1 -4.08,-0.93 -6.85,-1.99 -8.3,-3.18 -1.58,-2.51 -1.71,-3.83 2.12,-5.54 2.51,-1.58 7.66,-3.41 14.25,-4.06 3.96,-0.38 9.24,-0.9 11.87,-1.16 3.96,-0.39 6.6,-0.64 9.37,0.42 1.32,-0.13 2.64,-0.26 2.76,1.06 0,0 0,0 0.13,1.32l-2.25 4.21c0,0 0,0 -1.32,0.13 0,0 -1.32,0.13 -1.32,0.13 -1.32,0.13 -2.63,0.26 -5.27,0.52 -1.32,0.13 -3.96,0.39 -5.28,0.52 0.26,2.64 -1.07,2.77 -2.25,4.22 0,0 0,0 0,0zm-299.52 69.26c-3.7,3.03 -10.16,4.99 -19.27,7.22l-18.33 3.12c-1.33,0.13 -2.64,0.26 -3.96,0.39 -1.32,0.13 -1.45,-1.19 -2.77,-1.06l-13.68 -17.3c0,0 -0.13,-1.33 -0.13,-1.33 0,0 1.32,-0.12 3.83,-1.7l18.34 -3.13c18.33,-3.13 30.46,-1.65 36.52,5.75 2.89,2.38 3.15,5.02 -0.55,8.04zm-214.52 39.65c0,0 0.13,1.32 0.13,1.32 0,0 -1.32,0.13 -3.83,1.71l-9.1 2.22c-1.32,0.13 -2.64,0.26 -3.96,0.39 -1.32,0.13 -1.45,-1.19 -1.45,-1.19l-13.81 -18.63c0,0 -0.13,-1.32 -0.13,-1.32 0,0 1.32,-0.13 3.83,-1.71l19.66 -3.25c7.78,-2.1 14.51,-1.42 18.46,-1.81 4.09,0.93 8.18,1.86 9.75,4.37 1.46,1.19 1.58,2.51 0.39,3.96 0.13,1.32 -2.38,2.9 -3.7,3.02l12.52 5.44c0,0 0,0 1.32,-0.13 0,0 0,0 0.13,1.32 0,0 -1.32,0.13 -1.32,0.13l-13.06 2.61c-1.32,0.13 -1.32,0.13 -2.64,0.26 0,0 -1.32,0.13 -1.32,0.13l-9.75 -4.38 -2.64 0.26 0.52 5.28zm21.68 -23.43c0,0 -0.13,-1.32 -0.13,-1.32 0,0 1.32,-0.13 3.83,-1.71l32.72 -5.87c1.32,-0.13 2.64,-0.25 3.95,-0.38 1.32,-0.13 1.45,1.19 1.45,1.19l1.45 1.19c0.13,1.32 0.13,1.32 0.13,1.32 0,0 -1.32,0.13 -2.51,1.58l-18.33 3.12 1.58 2.51 11.74 -2.48c1.32,-0.13 2.64,-0.26 3.95,-0.39 1.32,-0.13 1.45,1.19 1.45,1.19l1.45 1.19c0.13,1.32 0.13,1.32 0.13,1.32 0,0 -1.32,0.13 -2.51,1.58l-11.74 2.48 1.58 2.51 18.34 -3.13c1.32,-0.12 2.64,-0.25 3.95,-0.38 1.32,-0.13 1.45,1.19 1.45,1.19l1.45 1.19c0.13,1.32 0.13,1.32 0.13,1.32 0,0 -1.32,0.13 -2.51,1.58l-32.71 5.86c-1.33,0.13 -2.64,0.26 -3.96,0.39 -1.32,0.13 -1.45,-1.19 -2.77,-1.06l-13.56 -15.99zm49.73 -8.87c0,0 -0.12,-1.32 -0.12,-1.32 0,0 1.32,-0.13 3.82,-1.7l18.34 -3.13c18.34,-3.13 30.47,-1.65 36.52,5.75 3.02,3.69 1.96,6.46 -1.73,9.49 -3.7,3.02 -10.17,4.99 -19.27,7.21l-18.34 3.13c-1.32,0.13 -2.64,0.26 -3.96,0.39 -1.32,0.13 -1.45,-1.19 -2.77,-1.06l-12.49 -18.76zm-191.73 54.73c0,0 0.13,1.32 0.13,1.32 0,0 -1.32,0.13 -3.83,1.7l-9.1 2.23c-1.32,0.13 -2.64,0.26 -3.96,0.39 -1.32,0.12 -1.45,-1.19 -1.45,-1.19l-13.81 -18.63c0,0 -0.13,-1.32 -0.13,-1.32 0,0 1.32,-0.13 3.83,-1.71l7.91 -0.77c1.32,-0.13 2.64,-0.26 2.64,-0.26 1.32,-0.13 1.32,-0.13 2.64,-0.26l20.56 5.98 -6.05 -7.4c0,0 -0.13,-1.32 -0.13,-1.32 0,0 1.32,-0.13 3.83,-1.7l9.1 -2.23c1.32,-0.13 2.64,-0.26 3.96,-0.39 1.32,-0.12 1.45,1.19 1.45,1.19l13.81 18.63c0,0 0.13,1.32 0.13,1.32 0,0 -1.32,0.13 -3.83,1.71l-7.92 0.77c-1.32,0.13 -2.64,0.26 -2.64,0.26 -1.31,0.13 -1.31,0.13 -2.63,0.26l-20.56 -5.98 6.05 7.4zm28.14 -25.39c0,0 -0.13,-1.33 -0.13,-1.33 0,0 1.32,-0.13 3.83,-1.7l18.34 -3.13c19.65,-3.26 31.78,-1.78 36.52,5.75 3.02,3.7 1.96,6.46 -1.74,9.49 -3.69,3.03 -10.16,4.99 -19.27,7.21l-18.33 3.13c-1.32,0.13 -2.64,0.26 -3.96,0.39 -1.32,0.13 -1.45,-1.19 -1.45,-1.19l-13.81 -18.62zm-151.1 48.08c0,0 0.13,1.32 0.13,1.32 0,0 -1.32,0.12 -3.83,1.7l-9.11 2.23c-1.31,0.13 -2.63,0.26 -3.95,0.38 -1.32,0.13 -1.45,-1.19 -1.45,-1.19l-12.49 -18.75c0,0 -0.13,-1.32 -0.13,-1.32 0,0 1.32,-0.13 3.83,-1.71l9.1 -2.22c1.33,-0.13 2.64,-0.26 3.96,-0.39 1.32,-0.13 1.45,1.19 1.45,1.19l4.6 6.21 14.38 -2.74 -4.6 -6.21c0,0 -0.13,-1.32 -0.13,-1.32 0,0 1.32,-0.13 3.83,-1.71l9.1 -2.22c1.33,-0.13 2.64,-0.26 3.96,-0.39 1.32,-0.13 1.45,1.19 1.45,1.19l12.49 18.76c0,0 0.13,1.32 0.13,1.32 0,0 -1.32,0.13 -3.83,1.7l-9.11 2.23c-1.31,0.13 -2.63,0.26 -3.95,0.39 -1.32,0.13 -1.45,-1.2 -1.45,-1.2l-4.6 -6.2 -14.38 2.74 4.6 6.21zm29.33 -26.85c0,0 -0.13,-1.32 -0.13,-1.32 0,0 1.32,-0.12 3.83,-1.7l9.11 -2.23c1.32,-0.13 2.63,-0.26 3.95,-0.38 1.32,-0.13 1.45,1.19 1.45,1.19l9.21 12.41c0.13,1.32 1.45,1.19 4.22,2.25 1.31,-0.13 3.95,-0.38 5.27,-0.51 2.64,-0.26 3.96,-0.39 5.15,-1.84 1.32,-0.13 1.19,-1.45 -0.26,-2.64l-9.2 -12.41c0,0 -0.13,-1.33 -0.13,-1.33 0,0 1.32,-0.12 3.82,-1.7l9.11 -2.23c1.32,-0.12 2.64,-0.25 3.96,-0.38 1.32,-0.13 1.45,1.19 1.45,1.19l9.2 12.41c1.45,1.19 1.71,3.83 0.52,5.28 -1.19,1.45 -3.7,3.03 -7.53,4.73 -3.83,1.71 -7.78,2.1 -12.93,3.93 -5.28,0.52 -10.55,1.03 -14.51,1.42 -3.96,0.39 -8.05,-0.54 -10.81,-1.6 -2.77,-1.06 -5.54,-2.12 -6.98,-3.32l-7.77 -11.22zm-971.26 -18.12c3.03,3.7 1.97,6.46 -1.73,9.49 -1.58,-2.51 -4.6,-6.21 -6.18,-8.72 -52.57,-88.07 23.59,-180.75 172.57,-223.3l3.15 5.02c-7.78,2.09 -16.76,5.63 -24.54,7.73 -19.27,7.21 -35.91,14.16 -49.77,22.18 -13.86,8.02 -25.22,14.46 -33.93,20.64 -5.03,3.15 -7.4,6.05 -11.1,9.07 -3.7,3.03 -6.08,5.93 -8.59,7.5 -4.89,4.48 -8.46,8.82 -10.84,11.71 -2.38,2.9 -3.57,4.35 -3.57,4.35 0,0 1.19,-1.45 3.57,-4.35 1.19,-1.44 2.38,-2.89 4.89,-4.47 2.51,-1.57 4.89,-4.47 7.4,-6.05 2.38,-2.89 6.2,-4.6 9.9,-7.63 3.7,-3.02 7.4,-6.05 12.42,-9.2 2.51,-1.58 5.02,-3.16 7.53,-4.74 2.51,-1.57 5.02,-3.15 8.85,-4.86 2.5,-1.57 6.33,-3.28 8.84,-4.86 3.83,-1.7 6.34,-3.28 10.17,-4.99 13.99,-6.69 30.62,-13.65 48.57,-20.73 6.47,-1.97 14.25,-4.06 22.04,-6.15l21.3 27.21c-32.59,7.18 -62.15,18.07 -86.44,28.43 -59.8,28.5 -37.66,36.99 -63.01,50.12 -25.48,11.82 -13.5,25.29 -24.09,39.65 -8.2,11.45 -9,16.86 -10.09,32.95 0.11,14.63 -16.14,25.54 -7.32,34zm283.56 -69.04c-2.64,0.26 -4.09,-0.93 -6.73,-0.68 1.19,-1.44 2.51,-1.57 3.83,-1.7l2.9 2.38zm39.63 103.75c-8.87,-1.72 -17.44,-3.46 -26,-5.21 -9.49,-1.73 -17.8,-4.92 -25.97,-6.78 -2.77,-1.06 -5.66,-3.44 -8.43,-4.5 -2.76,-1.06 -4.34,-3.57 -5.79,-4.76 -7.37,-7.27 -11.85,-12.16 -17.64,-16.92 -2.89,-2.38 -4.34,-3.57 -5.79,-4.76 -1.45,-1.19 -2.77,-1.06 -2.77,-1.06 0,0 0.13,1.32 0.13,1.32 0.13,1.32 1.58,2.51 3.15,5.02 1.58,2.51 3.16,5.02 6.06,7.39 2.89,2.38 5.92,6.08 8.94,9.78 1.45,1.19 4.35,3.57 5.8,4.76 2.89,2.38 5.66,3.44 9.88,5.69 8.3,3.19 16.47,5.05 24.77,8.23 10.13,2.8 20.69,5.56 31.89,8.01 0.57,-2.06 1.16,-4.13 1.77,-6.21zm-2.72 9.75c-7.43,-1.43 -13.95,-2.79 -19.48,-3.35 -6.85,-1.99 -10.94,-2.92 -10.94,-2.92 0,0 2.77,1.06 9.62,3.05 5.08,1.94 12.38,3.68 19.96,6.41l0.84 -3.19zm617.38 122.09c27.57,-4.03 53.69,-9.25 78.63,-13.02 82.45,-14.73 151.98,-25.53 200.52,-32.95 48.55,-7.41 76.12,-11.45 76.12,-11.45 0,0 -27.44,5.36 -75.73,15.41 -48.29,10.05 -117.55,23.49 -199.88,39.54 -24.8,5.09 -52.25,10.44 -79.69,15.79l-1.29 -13.19 1.32 -0.13zm-1338.31 245.53c48.29,-10.06 117.56,-23.5 199.88,-39.54 82.33,-16.05 179.04,-34.84 283.66,-54.4 103.3,-19.44 214.52,-39.64 324.42,-59.72 26.12,-5.22 53.69,-9.25 79.82,-14.47l1.67 17.14c-26.12,5.22 -52.37,9.13 -78.49,14.35 -111.22,20.2 -221.25,38.97 -324.68,57.08 -103.43,18.11 -200.4,34.26 -284.18,49.12 -82.45,14.73 -151.97,25.53 -200.52,32.95 -48.55,7.42 -76.12,11.45 -76.12,11.45 0,0 26.25,-3.91 74.54,-13.96zm530.78 -46.63c48.29,-10.06 117.56,-23.49 199.89,-39.54 49.73,-8.87 104.62,-19.56 163.46,-30.65l1.29 13.19c-57.65,9.64 -112.67,19.02 -162.4,27.88 -82.46,14.73 -151.98,25.53 -200.53,32.95 -48.55,7.41 -76.12,11.45 -76.12,11.45 0,0 26.12,-5.23 74.41,-15.28zm811.92 -154.05c108.71,-18.63 218.6,-38.71 320.72,-56.7 103.43,-18.11 200.4,-34.26 284.17,-49.12 82.46,-14.73 151.98,-25.53 200.53,-32.95 48.55,-7.41 76.12,-11.44 76.12,-11.44 0,0 -27.44,5.35 -75.73,15.4 -48.29,10.06 -117.56,23.49 -199.88,39.54 -82.33,16.05 -179.04,34.84 -283.66,54.4 -101.99,19.31 -211.88,39.38 -321.78,59.46l-1.81 -18.46 1.32 -0.13zm844.16 -246.43c-69.27,13.44 -167.29,32.36 -286.3,54.66 -119,22.3 -257.53,49.18 -405.43,75.64 -52.37,9.12 -105.94,19.69 -160.95,29.07l-1.55 -15.83c53.69,-9.25 107.39,-18.5 159.63,-28.94 149.21,-26.59 288.14,-49.51 405.95,-70.36 119.13,-20.99 218.73,-37.39 288.26,-48.2 69.52,-10.8 108.84,-17.31 108.84,-17.31 0,0 -39.19,7.83 -108.45,21.27zm-2704.27 -36.26l115.58 228.39 -104.46 -182.87 198.44 394.73 -193.41 -343.29 195.68 393.68 -190.77 -343.55 192.91 392.62 -188.01 -342.5 173.21 354.59 -180.22 -344.58 -18.95 -207.22zm1087.78 487.46c-74.41,15.28 -147.63,29.1 -216.9,42.54 -69.26,13.44 -133.12,27.68 -193.28,38.9 -120.07,25.07 -219.29,45.43 -289.74,60.32 -70.46,14.89 -109.64,22.72 -109.64,22.72 0,0 39.05,-9.15 109.25,-26.68 35.1,-8.76 76.79,-18.17 124.95,-29.54 48.17,-11.37 102.92,-23.39 162.82,-37.25 60.03,-12.53 125.21,-26.9 192.9,-42.85 69.14,-14.76 140.78,-31.09 215.32,-45.05 74.42,-15.27 152.79,-30.93 231.16,-46.59 32.72,-5.87 66.62,-13.18 99.34,-19.05l1.68 17.15c-32.72,5.86 -65.43,11.73 -98.03,18.91 -77.05,15.54 -154.09,31.07 -229.83,46.47zm1648.07 -291.82c-35.36,6.12 -78.63,13.02 -127.18,20.44 -48.55,7.41 -104.88,16.92 -165.17,26.82 -60.29,9.89 -125.73,21.63 -195.25,32.43 -69.39,12.12 -141.43,24.49 -217.42,37.26 -53.69,9.25 -108.71,18.63 -165.04,28.14l-1.68 -17.15c55.02,-9.38 110.03,-18.76 163.72,-28.01 75.99,-12.77 148.16,-23.83 217.68,-34.63 69.52,-10.8 135.09,-21.21 195.51,-29.79 120.71,-18.47 222.02,-31.05 292.99,-40.66 70.97,-9.61 111.86,-13.61 111.86,-13.61 0,0 -40.37,9.28 -110.02,18.76z"/>
  </g>
 </g>
</svg>
