<?xml version="1.0" encoding="UTF-8"?>
<!DOCTYPE svg PUBLIC "-//W3C//DTD SVG 1.0//EN" "http://www.w3.org/TR/2001/REC-SVG-20010904/DTD/svg10.dtd">
<!-- Creator: CorelDRAW -->
<svg xmlns="http://www.w3.org/2000/svg" xml:space="preserve" width="84mm" height="53mm" version="1.0" style="shape-rendering:geometricPrecision; text-rendering:geometricPrecision; image-rendering:optimizeQuality; fill-rule:evenodd; clip-rule:evenodd"
viewBox="0 0 8400 5300"
 xmlns:xlink="http://www.w3.org/1999/xlink"
 xmlns:xodm="http://www.corel.com/coreldraw/odm/2003">
 <defs>
  <style type="text/css">
   <![CDATA[
    .fil0 {fill:black;fill-rule:nonzero}
   ]]>
  </style>
 </defs>
 <g id="Слой_x0020_1">
  <metadata id="CorelCorpID_0Corel-Layer"/>
  <g id="_105553255210048">
   <g>
    <path class="fil0" d="M4997.68 2577.96c0,-39.66 3.06,-76.26 0,-112.86 -3.05,-33.54 -27.44,-57.94 -54.9,-79.29 -3.05,-3.06 -12.2,-3.06 -21.35,-3.06 39.66,67.1 73.2,134.2 30.5,210.45 15.25,0 27.45,0 39.66,0 70.14,-3.06 137.24,3.05 204.34,21.34 18.31,3.06 36.6,12.2 54.91,21.35 12.19,6.1 21.34,15.25 12.19,30.5 -3.05,12.2 -3.05,21.35 -9.15,30.51 -12.2,39.65 -36.6,51.85 -73.2,39.65 0,-18.31 0,-36.6 0,-51.85 0,-21.35 -12.2,-33.54 -33.54,-27.45 -21.35,6.1 -39.66,15.25 -54.91,27.45 -64.04,48.79 -125.05,100.64 -182.99,152.49 -48.8,39.66 -70.15,91.51 -82.36,152.5 -12.19,57.95 -21.34,115.89 -48.79,170.8 -3.06,3.05 -3.06,9.15 -3.06,15.25 15.26,3.05 30.51,6.1 48.8,6.1 24.4,3.05 48.79,3.05 73.2,3.05 33.54,3.06 54.9,-12.19 64.04,-39.65 9.16,-21.35 12.2,-45.75 9.16,-64.05 -3.06,-30.5 -36.6,-39.65 -64.05,-42.69 -3.05,0 -6.1,0 -9.15,0 -42.7,0 -54.91,-12.2 -48.8,-54.91 9.16,-82.35 106.75,-170.8 195.19,-161.65 82.36,9.16 134.21,54.91 176.9,115.9 30.5,48.79 12.2,97.6 -15.25,140.3 -15.25,27.44 -39.65,51.85 -57.95,79.29 12.2,30.51 39.66,42.7 73.2,48.8 12.2,3.05 30.5,3.05 39.66,9.15 12.19,3.06 21.35,15.25 24.4,24.41 3.05,6.09 -12.2,18.3 -18.31,27.44 -3.05,3.06 -9.15,6.1 -12.19,9.15 18.3,27.45 70.14,48.8 97.6,42.7 18.31,-3.05 36.6,-6.1 54.9,-9.15 39.66,-3.06 64.05,3.05 73.2,61 3.06,21.35 3.06,39.66 0,61 0,6.1 -6.09,15.25 -12.19,18.31 -3.06,3.05 -15.25,-3.06 -21.35,-6.1 -12.2,-12.19 -18.31,-27.45 -30.5,-42.7 -9.16,30.51 21.35,73.2 -30.5,88.45 -21.35,-51.85 -70.15,-67.1 -118.95,-79.29 -21.35,-3.06 -42.7,-3.06 -64.05,0 -21.35,3.05 -30.5,21.35 -30.5,39.65 0,18.31 12.2,36.6 30.5,39.65 67.1,18.31 134.2,36.6 201.3,48.8 51.85,12.2 103.7,18.31 155.55,27.45 30.5,3.05 61,9.15 91.5,9.15 149.46,3.05 298.9,12.19 445.29,12.19 88.45,0 176.9,-12.19 265.35,-18.3 128.1,-9.15 253.14,-36.6 375.14,-70.14 12.2,-3.06 21.35,-6.1 30.51,-9.16 27.44,-12.19 39.65,-27.44 33.54,-51.85 -3.05,-21.35 -27.45,-39.65 -51.85,-39.65 -67.1,3.05 -128.1,21.35 -161.65,88.45 -30.5,-15.25 -39.65,-6.1 -21.35,-91.51 -21.34,-3.05 -18.3,15.26 -27.44,24.41 -9.14,9.15 -15.25,21.35 -24.41,30.5 -18.3,-12.2 -24.4,-24.4 -21.34,-45.75 3.05,-21.35 3.05,-39.66 9.15,-61.01 6.1,-21.34 21.35,-33.54 42.7,-33.54 21.34,3.06 48.79,3.06 70.14,3.06 42.7,3.05 76.25,-12.2 106.74,-39.66 -6.1,-6.1 -12.19,-12.19 -21.35,-18.3 -21.35,-15.25 -21.35,-30.51 3.06,-39.66 24.4,-9.15 48.79,-15.25 73.2,-18.3 27.44,-3.06 33.54,-30.5 54.9,-39.66 -3.05,-3.05 -3.05,-9.15 -6.1,-12.19 -30.5,-27.45 -54.9,-54.91 -70.14,-97.6 -21.35,-51.85 -21.35,-100.65 15.25,-143.35 42.7,-48.79 94.55,-82.35 158.59,-85.39 64.05,-3.06 115.9,30.5 152.5,79.3 21.35,30.5 39.65,61 36.6,100.64 -3.06,27.45 -9.16,30.5 -36.6,33.54 -30.5,3.06 -61.01,3.06 -82.35,33.55 -18.31,30.5 -9.16,64.04 6.09,91.5 15.25,24.41 42.7,33.55 70.15,30.5 36.6,-3.05 70.14,-9.15 106.74,-12.19 3.06,0 6.1,-3.06 12.2,-6.1 -45.76,-64.05 -42.7,-143.34 -64.05,-216.54 -18.3,-64.05 -54.9,-109.8 -103.7,-152.49 -57.95,-48.8 -115.89,-94.55 -176.9,-140.3 -12.19,-9.16 -30.5,-15.25 -42.69,-12.2 -21.35,3.06 -30.51,21.35 -27.45,48.8 3.05,12.19 3.05,21.34 3.05,33.54 -12.19,0 -30.5,3.05 -42.69,-3.05 -21.35,-6.1 -45.75,-67.11 -39.66,-91.51 3.06,-3.05 6.1,-9.15 12.2,-9.15 51.85,-21.35 103.7,-39.66 161.65,-39.66 45.75,-3.05 91.5,-3.05 140.3,-6.09 -51.85,-73.2 -3.06,-140.3 21.34,-207.4 -48.79,12.19 -70.14,54.9 -73.19,94.54 -3.06,30.51 0,64.05 0,97.61 -39.66,0 -73.2,0 -109.8,0 -54.91,3.05 -106.74,12.19 -158.59,39.65 -30.51,12.2 -33.55,27.45 -27.45,54.9 12.19,45.76 3.05,88.45 -6.1,131.15 -12.19,54.91 -24.4,57.95 -76.25,33.55 -3.06,-3.06 -9.15,-3.06 -18.31,-9.16 12.2,-12.19 21.35,-27.44 33.55,-39.65 -18.31,-6.1 -39.66,-6.1 -48.8,-18.31 -12.19,-12.19 -3.05,-36.6 18.31,-48.79 -21.35,-18.31 -18.31,-33.55 3.05,-48.8 15.25,-12.19 12.2,-30.5 3.06,-45.75 0,-3.05 -3.06,-3.05 -3.06,-3.05 -39.65,-45.76 -24.4,-57.95 21.35,-82.35 64.05,-39.66 134.2,-73.2 195.19,-109.8 21.35,-12.2 36.6,-33.55 51.85,-51.85 3.06,-3.06 3.06,-12.2 3.06,-21.35 -3.06,-3.05 -9.16,-3.05 -12.2,-6.1 -9.15,12.2 -18.3,21.35 -24.4,33.55 -21.35,36.6 -57.95,48.79 -97.6,48.79 -3.06,0 -15.25,-12.19 -15.25,-15.25 9.15,-54.9 15.25,-115.89 33.54,-167.74 15.25,-45.76 61,-61.01 106.74,-70.15 33.55,-6.1 64.05,-15.25 100.65,-21.35 3.05,0 6.1,-3.05 12.19,-9.15 -6.09,-3.05 -12.19,-9.15 -15.25,-9.15 -15.25,0 -33.54,3.05 -48.79,3.05 -6.1,0 -18.31,-3.05 -21.35,-6.1 -3.06,-6.09 0,-18.3 3.05,-21.34 30.51,-27.45 64.05,-45.76 106.75,-48.8 57.94,-6.1 118.95,-9.15 170.8,-42.7 21.35,-12.19 39.65,-36.6 61,-54.9 3.05,-3.06 3.05,-15.25 3.05,-21.35 -6.09,3.06 -15.25,3.06 -21.34,6.1 -9.16,6.1 -18.31,15.25 -27.45,24.4 -24.4,21.35 -51.85,39.66 -85.4,33.55 -12.19,-3.06 -24.4,3.05 -39.65,3.05 -18.3,6.1 -39.65,12.2 -51.85,-3.05 -12.19,-18.31 -12.19,-39.66 -3.05,-57.95 3.05,-6.1 6.09,-12.2 12.19,-15.25 3.06,0 3.06,0 6.1,3.05 12.2,9.16 24.4,30.5 42.7,18.31 21.35,-15.25 42.69,-36.6 64.04,-54.91 3.06,-3.05 -9.15,-21.34 -15.25,-21.34 -24.4,-3.06 -48.79,-9.16 -73.2,-3.06 -15.25,3.06 -30.5,21.35 -45.75,36.6 -21.35,-12.2 -36.6,-30.5 -33.54,-57.95 3.05,-12.19 -9.16,-30.5 -12.2,-45.75 -9.15,-24.4 -3.05,-36.6 21.35,-33.54 39.65,3.05 67.1,-12.2 94.55,-39.66 12.19,-12.19 33.54,-15.25 48.79,-21.35 21.35,-3.05 39.66,-3.05 57.95,-12.19 27.45,-9.16 39.65,-30.5 48.8,-54.91 27.44,45.75 3.05,88.45 -45.76,97.6 -30.5,3.06 -61,12.2 -91.5,21.35 -21.35,6.1 -33.54,21.35 -24.4,48.8 9.15,-3.06 18.3,0 27.44,-3.06 30.5,-18.3 61.01,-30.5 97.6,-39.65 48.8,-9.15 64.05,-24.4 85.4,-73.2 45.75,15.25 85.39,0 125.05,-21.35 3.05,24.41 -12.2,54.91 -42.7,76.26 -30.5,18.3 -54.9,39.65 -85.39,54.9 -3.06,3.05 -6.1,6.1 -9.16,12.2 0,3.05 3.06,3.05 3.06,6.09 18.3,-6.09 36.6,-12.19 54.9,-18.3 21.35,-6.1 39.66,-18.31 61,-24.4 21.35,-9.16 39.66,3.05 39.66,27.44 3.05,48.8 21.35,85.4 57.95,118.95 12.19,12.2 21.34,30.5 33.54,45.75 -12.2,3.06 -18.3,3.06 -21.35,9.16 -6.1,6.09 -18.3,21.35 -15.25,24.4 15.25,36.6 -3.05,73.2 -6.1,106.74 0,3.06 -3.05,3.06 -3.05,6.1 0,15.25 -3.06,30.5 0,45.75 9.15,21.35 27.45,0 39.65,3.06 3.06,3.05 12.2,0 15.25,0 15.25,3.05 21.35,15.25 12.2,24.4 -18.31,15.25 -39.65,27.45 -54.91,39.65 -9.15,6.1 -21.34,6.1 -36.59,12.2 30.5,48.8 15.25,97.6 -3.06,143.34 -21.35,-18.3 -21.35,-51.85 -54.9,-73.2 18.3,64.05 3.05,115.9 -33.55,161.65 -6.1,-30.5 -12.19,-61 -21.35,-91.5 -3.05,0 -6.09,0 -12.19,0 -18.31,61 -36.6,121.99 -54.91,186.05 -30.5,-30.5 -3.05,-76.25 -39.65,-106.74 -12.2,30.5 -12.2,54.9 -6.1,85.39 12.2,48.79 45.75,82.35 82.35,109.8 39.66,30.5 82.35,57.94 122,91.5 27.44,21.35 36.59,54.91 39.65,91.5 0,21.35 0,42.7 0,64.05 0,30.5 12.2,51.85 33.54,57.95 24.41,9.15 57.95,-3.06 76.26,-21.35 21.35,-27.45 18.3,-82.35 -6.1,-112.85 -24.4,-30.5 -57.95,-48.8 -94.55,-70.15 -54.9,-33.54 -97.6,-82.35 -115.89,-146.39 -12.2,-51.85 9.15,-97.6 45.75,-134.2 48.79,-48.8 97.6,-94.55 143.34,-143.35 3.05,-3.05 3.05,-3.05 6.1,-3.05 9.15,39.65 18.3,79.3 6.1,118.95 -9.16,30.5 -30.51,54.9 -54.91,73.2 -12.19,9.15 -21.35,15.25 -36.6,24.4 -51.85,30.5 -51.85,91.5 -9.15,125.05 36.6,30.5 76.25,57.95 115.9,85.39 30.5,21.35 64.04,39.66 73.19,82.35 3.06,21.35 0,45.76 -3.05,67.1 12.19,3.06 24.4,3.06 36.6,3.06 -12.2,18.3 -30.5,36.6 -36.6,54.9 -15.25,51.85 -82.35,64.05 -118.95,54.91 -18.31,-3.06 -33.55,-12.2 -51.85,-12.2 -9.15,-3.05 -21.35,0 -30.5,6.1 -3.06,3.06 0,18.31 3.05,27.45 15.25,24.4 30.5,48.79 48.8,76.25 106.74,-61 216.54,-121.99 323.29,-179.94 3.06,0 3.06,3.05 3.06,3.05 -9.16,21.35 -15.25,42.7 -24.41,64.05 -42.69,100.64 -85.39,201.3 -128.1,298.89 -9.15,21.35 -3.05,36.6 15.25,48.8 30.5,21.34 61,45.75 91.5,70.14 -82.35,39.65 -158.59,76.25 -237.9,112.85 -12.19,3.06 -21.34,12.2 -39.65,0 -12.2,-9.15 -24.4,0 -33.54,12.2 -9.16,12.19 -15.25,27.44 -24.41,42.69 -27.44,-24.4 -48.79,-15.25 -73.2,9.16 -12.19,12.19 -27.44,21.35 -42.69,3.05 -12.2,-15.25 -24.41,-9.15 -36.6,3.06 -6.1,6.1 -12.2,15.25 -18.31,24.4 -3.05,-6.1 -9.15,-12.2 -12.19,-18.3 -12.2,-15.26 -24.41,-24.41 -42.7,-3.06 -12.2,12.2 -24.4,6.1 -36.6,-3.05 -9.15,-9.16 -18.3,-15.26 -30.5,-3.06 -3.06,3.06 -18.31,3.06 -27.45,0 -21.35,-6.1 -30.5,-3.05 -30.5,21.35 6.1,42.7 12.2,88.45 24.4,131.15 18.31,54.9 0,82.35 -42.69,106.74 -143.34,88.45 -301.95,134.2 -460.54,167.74 -91.5,21.35 -183,30.5 -271.45,42.7 -91.5,9.15 -186.05,15.25 -280.59,18.31 -82.35,3.05 -161.65,3.05 -244,0 -70.15,-3.06 -140.3,-12.2 -207.4,-21.35 -82.35,-12.2 -167.75,-24.41 -247.04,-42.7 -137.25,-30.5 -271.45,-73.2 -402.59,-137.24 -24.41,-12.2 -48.8,-27.45 -67.1,-42.7 -27.45,-21.35 -27.45,-48.8 -21.35,-82.35 12.19,-42.7 21.35,-82.35 30.5,-125.05 6.1,-33.54 0,-39.65 -36.6,-30.5 -3.05,0 -3.05,3.05 -6.1,0 -21.35,-12.2 -45.75,-6.1 -64.04,6.1 -3.06,3.05 -12.2,-3.06 -18.31,-3.06 -6.1,-3.05 -9.15,-12.19 -12.2,-18.3 -12.19,15.25 -24.4,27.44 -36.59,39.65 -6.1,-9.15 -12.2,-15.25 -18.31,-24.4 -9.15,-12.2 -21.35,-18.31 -33.54,-3.06 -12.2,18.31 -27.45,12.2 -39.66,3.06 -3.05,-3.06 -3.05,-3.06 -3.05,-3.06 -33.55,-30.5 -33.55,-30.5 -70.15,-9.15 -6.09,-12.2 -12.19,-21.35 -18.3,-33.54 -12.2,-15.26 -21.35,-36.6 -45.75,-18.31 -6.1,3.05 -21.35,0 -30.5,-3.05 -79.3,-36.6 -158.6,-73.2 -237.91,-112.86 30.51,-21.35 57.95,-45.75 85.4,-67.1 30.5,-21.35 30.5,-24.4 15.25,-57.95 -42.7,-100.64 -82.35,-204.34 -125.05,-304.98 -6.1,-18.31 -15.25,-33.55 -24.4,-57.95 39.65,21.35 73.2,39.65 103.7,54.9 70.14,39.66 137.24,76.26 204.34,115.9 15.25,9.15 27.45,9.15 36.6,-9.15 12.2,-21.35 27.45,-42.7 39.66,-64.05 9.15,-15.25 3.05,-24.4 -12.2,-24.4 -15.25,0 -30.5,3.05 -45.75,12.19 -30.5,12.2 -57.95,9.15 -88.45,0 -27.45,-9.15 -42.7,-21.35 -51.85,-48.79 -9.15,-21.35 -27.45,-39.66 -39.66,-54.91 12.2,-3.05 27.45,-3.05 42.7,-6.1 -21.35,-79.29 15.25,-109.79 61,-143.34 45.76,-30.5 88.45,-64.04 131.15,-100.64 36.6,-30.5 33.55,-73.2 0,-106.75 -18.3,-18.3 -39.65,-30.5 -64.05,-45.75 -33.54,-18.3 -48.79,-70.14 -45.75,-106.74 3.06,-27.45 3.06,-54.9 6.1,-82.35 12.2,9.15 18.31,15.25 27.45,21.35 42.69,39.65 85.39,82.35 128.1,125.05 64.05,57.94 57.95,143.34 12.2,204.34 -33.55,48.8 -79.3,76.25 -128.11,106.74 -45.75,24.41 -73.19,82.35 -67.1,125.05 3.06,30.5 39.66,51.85 82.35,48.8 24.41,-3.06 42.7,-24.41 45.76,-54.91 0,-30.5 0,-57.95 3.05,-88.45 3.06,-51.85 39.65,-82.35 79.3,-106.74 39.65,-24.4 76.25,-48.79 109.79,-82.35 48.8,-42.7 67.1,-100.65 48.8,-167.75 -15.25,12.2 -18.31,30.51 -21.35,48.8 -3.05,21.35 -3.05,42.7 -21.35,57.95 -3.05,3.05 -3.05,3.05 -12.19,6.09 12.19,-73.19 -39.66,-125.04 -39.66,-195.19 -30.5,24.41 -24.4,57.95 -30.5,88.45 -33.54,-12.19 -48.79,-67.1 -45.75,-152.49 -9.15,12.19 -18.31,21.35 -24.4,30.5 -6.1,12.19 -12.2,24.4 -15.25,39.65 -27.45,-39.65 -39.66,-103.7 -12.2,-149.45 -12.2,-3.05 -27.45,-6.1 -39.65,-12.2 -18.31,-9.15 -39.66,-21.34 -54.91,-33.54 -12.19,-12.2 -6.1,-27.45 12.2,-30.5 12.19,-3.06 24.4,-3.06 39.65,0 21.35,3.05 27.45,-9.15 21.35,-27.45 -3.06,-24.4 -12.2,-48.79 -12.2,-73.2 -3.05,-18.3 -3.05,-36.59 3.06,-54.9 3.05,-18.31 3.05,-27.45 -15.25,-30.5 -3.06,-3.06 -12.2,-3.06 -21.35,-12.2 18.3,-21.35 30.5,-42.69 48.79,-61 21.35,-21.35 39.66,-45.75 39.66,-79.3 0,-42.69 21.35,-67.1 67.1,-45.75 30.5,15.25 61,27.45 91.5,39.66 3.06,-3.06 3.06,-3.06 3.06,-3.06 -3.06,-3.05 -3.06,-9.15 -6.1,-12.19 -21.35,-15.26 -45.75,-30.51 -67.1,-45.76 -36.6,-21.35 -54.91,-48.79 -67.1,-94.54 21.35,9.15 45.75,21.35 64.04,24.4 21.35,3.05 45.76,0 70.15,0 18.3,42.7 54.9,67.1 103.7,76.25 30.5,3.06 54.9,21.35 82.35,33.55 6.1,3.05 15.25,0 24.4,0 -3.05,-12.2 0,-27.45 -6.1,-30.5 -21.34,-12.2 -42.69,-18.31 -64.04,-21.35 -21.35,-3.06 -39.66,-3.06 -61,-12.2 -48.8,-12.19 -61.01,-73.2 -33.55,-100.64 3.06,6.09 6.1,15.25 12.2,21.35 15.25,30.5 39.65,45.75 73.2,45.75 39.65,0 73.19,12.19 100.64,42.69 12.2,12.2 30.5,15.26 48.8,21.35 9.15,3.06 21.34,0 30.5,0 15.25,0 21.35,9.16 18.3,21.35 -3.05,27.45 -9.15,54.91 -18.3,82.35 -3.06,12.2 -15.25,27.45 -30.5,36.6 -9.16,6.1 -21.35,3.06 -27.45,-12.19 -18.31,-33.55 -18.31,-33.55 -57.95,-30.51 -3.05,0 -3.05,0 -3.05,0 -18.31,0 -36.6,-3.05 -42.7,21.35 -9.15,21.35 12.2,27.45 24.4,39.66 6.1,6.1 15.25,12.19 24.41,18.3 12.19,9.16 24.4,9.16 39.65,-3.05 21.35,-18.31 33.54,-12.2 39.65,15.25 6.1,27.44 -3.05,51.85 -30.5,57.95 -6.1,3.05 -12.19,0 -21.35,0 -27.44,-3.06 -51.85,-9.16 -76.25,-12.2 -48.79,0 -70.14,-21.35 -91.5,-45.75 -15.25,-12.2 -21.35,-15.25 -30.5,-6.1 27.44,54.9 73.19,76.25 128.1,91.5 42.7,9.16 88.45,15.25 131.14,30.51 21.35,6.09 45.76,18.3 64.05,30.5 12.2,6.09 18.31,21.35 27.45,33.54 -30.5,15.25 -54.91,6.1 -91.51,6.1 6.1,6.1 12.2,15.25 18.31,15.25 33.54,9.15 70.14,18.3 106.74,27.45 27.45,6.09 54.91,12.19 76.25,36.6 30.51,30.5 33.55,64.04 39.66,100.64 3.05,30.5 6.1,61 12.19,91.5 3.06,18.31 -6.09,30.51 -21.34,24.41 -39.66,-12.2 -79.3,-18.31 -97.61,-64.05 -3.05,-6.1 -12.19,-9.15 -21.34,-12.19 -3.06,3.05 -3.06,3.05 -6.1,6.09 3.05,12.2 9.15,21.35 15.25,30.5 27.44,36.6 70.14,51.85 106.74,73.2 51.85,27.45 100.65,54.91 152.5,85.4 21.34,12.19 21.34,30.5 9.15,48.79 -3.06,3.06 -3.06,6.1 -9.15,12.2 -24.41,30.5 -27.45,33.54 3.05,61 18.31,18.31 3.06,27.45 -3.05,39.65 3.05,0 3.05,0 6.09,0 3.06,15.26 12.2,30.51 6.1,45.76 -6.1,24.4 -30.5,12.19 -51.85,18.3 9.15,9.15 15.25,18.31 24.4,24.41 12.2,12.19 15.26,21.34 0,30.5 -33.54,24.4 -79.29,21.34 -85.39,-39.66 -3.05,-30.5 -6.1,-64.04 -9.15,-97.6 0,-12.2 0,-21.35 3.05,-33.54 9.16,-18.31 3.06,-36.6 -12.19,-42.7 -33.55,-15.25 -67.1,-30.5 -103.7,-36.6 -54.91,-6.1 -106.75,-3.05 -164.7,-6.1 9.22,3.06 6.16,3.06 0.06,3.06zm2022.11 936.32c-689.28,210.45 -1375.52,216.55 -2064.8,0 3.05,24.41 6.1,45.76 9.15,64.05 3.05,61 -3.05,118.95 -18.31,176.9 -12.19,54.9 0,57.95 39.66,73.2 94.55,33.54 192.15,67.1 289.74,94.54 91.5,24.41 186.05,42.7 280.59,61.01 64.05,12.19 131.15,18.3 195.2,21.34 39.65,3.06 76.25,3.06 115.89,3.06 88.45,0 176.9,3.05 262.29,0 82.36,-3.06 167.75,-12.2 250.1,-21.35 82.35,-9.15 164.7,-24.4 247.04,-42.7 73.2,-15.25 143.34,-36.6 216.54,-57.94 61,-21.35 115.9,-45.76 176.9,-70.15 18.31,-6.1 21.35,-21.35 15.25,-39.65 -9.15,-54.91 -21.35,-109.8 -24.4,-167.75 -3.05,-27.45 6.11,-57.96 9.16,-94.56zm85.4 -243.99c0,3.05 0,3.05 0,6.09 15.25,12.2 30.5,21.35 45.75,33.55 30.5,24.4 48.79,64.04 21.35,100.64 -21.35,33.55 -45.76,70.15 -70.15,106.75 18.31,3.05 39.66,3.05 57.95,6.09 18.31,3.06 30.5,-3.05 39.65,-21.34 9.16,-21.35 27.45,-30.51 48.8,-30.51 18.3,0 36.6,3.06 54.9,0 30.51,-3.05 57.95,-12.19 79.3,-39.65 24.4,-36.6 27.45,-73.2 15.25,-115.89 -12.19,-48.8 -54.9,-82.36 -100.64,-76.26 -64.06,9.18 -128.12,21.39 -192.16,30.53zm-2235.6 6.09c-51.85,-12.19 -100.64,-18.3 -149.45,-30.5 -79.29,-15.25 -134.2,12.2 -146.4,82.35 -12.19,61.01 3.06,125.05 82.36,143.35 21.34,3.05 48.79,3.05 73.19,3.05 21.35,0 39.66,9.15 48.8,30.5 6.1,15.25 21.35,24.41 39.65,21.35 21.35,-3.05 39.66,-6.1 61.01,-12.2 -21.35,-24.4 -45.76,-45.75 -61.01,-70.14 -39.65,-64.04 -39.65,-106.74 27.45,-152.49 6.1,-3.06 15.25,-6.11 24.4,-15.27zm2046.5 173.86c3.06,3.05 3.06,3.05 3.06,3.05 21.35,-6.09 39.65,-12.19 61,-21.34 39.65,-18.31 79.3,-36.6 115.89,-54.91 15.26,-6.1 18.31,-21.35 0,-27.45 -12.19,-3.05 -21.34,-9.15 -30.5,-12.19 -42.69,-18.31 -88.45,-36.6 -134.2,-54.91 9.16,64.05 15.25,118.94 -15.25,167.75zm-1881.81 -158.6c-51.85,21.34 -106.74,42.69 -158.59,64.04 -18.3,6.1 -18.3,15.25 -3.05,27.45 54.9,36.6 115.89,54.9 176.89,73.2 -6.09,-27.45 -12.19,-54.91 -15.25,-79.3 -3.05,-30.49 0,-57.94 0,-85.39zm2641.24 -189.1c-3.05,-3.05 -3.05,-3.05 -3.05,-3.05 -45.75,21.35 -91.51,39.65 -134.2,64.04 -6.1,3.06 -9.16,15.25 -9.16,21.35 3.06,30.5 6.1,54.91 9.16,85.4 0,15.25 3.05,30.5 21.35,30.5 18.29,0 30.5,3.05 39.65,-18.31 12.2,-30.5 27.45,-57.95 39.65,-85.39 9.16,-33.54 21.35,-64.04 36.6,-94.54zm-3370.17 -3.04c-3.05,3.05 -3.05,3.05 -3.05,3.05 27.45,64.05 54.9,128.11 85.39,192.15 3.06,3.06 12.2,9.15 21.35,6.1 12.2,-3.06 30.5,-3.06 30.5,-24.4 3.06,-33.55 3.06,-67.1 3.06,-103.7 0,-3.06 -3.06,-12.2 -9.15,-15.25 -39.65,-18.31 -82.35,-39.66 -128.1,-57.95zm3315.28 314.14c-9.15,-27.45 -30.5,-39.65 -48.8,-45.75 -15.25,-3.06 -39.65,-12.2 -51.85,12.19 -12.19,27.45 -15.25,54.91 -12.19,91.51 36.59,-21.35 73.19,-39.66 112.84,-57.95zm-3263.43 -3.05c36.6,18.3 73.2,33.54 106.75,51.85 15.25,-30.51 3.05,-82.36 -21.35,-94.55 -24.4,-12.2 -61,3.05 -85.4,42.7zm2500.94 -106.75c-3.05,0 -6.09,0 -12.19,0 -15.25,18.31 -33.55,33.55 -48.8,51.85 -3.05,3.06 -3.05,12.2 -3.05,12.2 15.25,9.15 30.5,18.3 48.79,24.4 12.2,3.06 21.35,-3.05 21.35,-15.25 0,-24.4 -3.05,-48.81 -6.1,-73.2zm-1732.35 0c-3.06,0 -6.1,0 -9.16,3.06 -3.05,21.35 -3.05,45.75 -6.09,67.1 -3.06,21.35 9.15,21.35 24.4,18.3 15.25,-6.09 30.5,-15.25 48.8,-24.4 -21.35,-24.42 -39.66,-45.76 -57.95,-64.06z"/>
    <path class="fil0" d="M6336.6 1849.02c-51.85,-9.16 -103.7,-21.35 -155.55,-30.5 -21.34,-3.06 -42.69,-6.1 -64.04,-6.1 -73.2,0 -149.45,-3.06 -222.65,0 -76.25,3.05 -152.5,21.35 -228.75,30.5 -21.35,3.05 -33.54,-6.1 -39.65,-27.45 -18.31,-54.9 -51.85,-94.54 -109.8,-106.74 -9.15,-3.06 -15.25,-9.15 -24.4,-12.2 18.3,-30.5 45.75,-15.25 70.14,-15.25 3.05,-24.4 6.1,-48.79 12.2,-70.14 6.09,-42.7 36.59,-64.05 79.29,-54.91 9.15,3.06 15.25,0 30.5,3.06 -12.19,-18.31 -21.35,-33.55 -30.5,-48.8 30.5,-12.19 39.66,12.2 61,24.41 12.2,-15.25 6.1,-48.8 39.66,-51.85 3.05,12.19 3.05,24.4 6.1,39.65 12.19,-18.3 27.44,-36.6 39.65,-54.9 30.5,-42.7 51.85,-48.8 103.7,-30.5 12.2,3.05 21.35,6.09 33.54,6.09 -6.09,-9.15 -12.19,-21.34 -21.34,-30.5 -9.16,-9.15 -15.26,-18.3 -24.41,-30.5 30.5,-6.1 48.8,12.2 79.3,24.4 -12.2,-27.44 -21.35,-48.79 -30.5,-73.19 27.44,-12.2 39.65,3.05 48.79,21.34 18.31,-12.19 33.55,-21.34 48.8,-33.54 3.05,3.06 3.05,3.06 6.1,6.1 -9.16,24.4 -18.31,48.79 -30.51,76.25 15.25,-6.1 24.41,-12.19 36.6,-18.3 12.2,-3.06 24.41,-6.1 36.6,-9.16 0,3.06 3.06,3.06 3.06,3.06 -12.2,18.3 -27.45,36.6 -48.8,61 100.65,-45.75 146.4,3.06 179.94,88.45 3.06,-21.35 6.1,-36.6 9.16,-51.85 3.05,0 6.09,-3.05 9.15,-3.05 3.05,12.19 12.19,21.34 15.25,30.5 9.15,24.4 12.2,24.4 30.5,9.15 9.15,-6.1 21.35,-12.2 33.54,-18.31 3.06,3.06 3.06,3.06 3.06,3.06 -9.15,15.25 -15.25,30.5 -24.4,48.79 21.34,0 39.65,0 54.9,0 21.35,0 39.65,9.16 42.7,30.5 6.1,24.41 15.25,48.8 18.3,73.2 3.06,18.31 9.16,21.35 24.41,21.35 12.19,0 27.44,3.06 39.65,6.1 0,3.05 0,6.1 0,12.2 -9.15,3.05 -18.3,9.15 -27.45,12.19 -60.99,27.45 -97.59,73.19 -112.84,146.39zm-524.58 -149.44c-3.06,0 -6.1,-3.06 -9.15,-3.06 0,-6.1 -3.06,-12.19 -3.06,-18.3 3.06,-18.31 9.15,-33.55 12.2,-51.85 0,-6.1 -3.06,-15.25 -6.1,-24.41 -6.1,3.06 -15.25,6.1 -21.35,12.2 -3.05,3.05 -3.05,6.1 -3.05,12.2 -9.16,54.9 12.19,106.74 45.75,146.39 24.4,30.5 61,18.31 91.5,3.06 24.41,-12.2 42.7,-39.66 42.7,-67.1 -3.06,-33.55 -30.5,-48.8 -61,-39.66 -21.35,6.1 -18.31,21.35 -18.31,33.55 0,15.25 12.2,15.25 21.35,18.3 9.15,3.06 18.3,6.1 27.45,12.2 -15.25,24.4 -21.35,30.5 -39.66,24.4 -12.19,-3.05 -39.65,-30.5 -39.65,-48.79 -3.06,-54.91 36.6,-82.35 91.5,-73.2 9.15,3.05 21.35,0 24.41,-6.1 12.19,-12.2 6.09,-48.8 -6.1,-64.05 -15.25,-18.3 -27.45,3.06 -45.75,3.06 12.19,12.19 18.3,21.35 27.44,30.5 -18.3,12.2 -33.54,18.31 -48.79,3.05 -12.2,-12.19 -18.31,-30.5 -6.1,-48.79 9.15,-15.25 24.4,-27.45 36.6,-39.65 12.19,-9.16 12.19,-21.35 0,-30.51 -42.7,-21.34 -79.3,-30.5 -115.9,12.2 -27.44,30.5 -21.35,54.91 18.31,64.05 18.3,3.05 30.5,15.25 24.4,33.54 -12.19,42.72 -24.39,73.21 -39.64,106.77zm213.5 -103.7c3.05,-3.06 9.15,-6.1 12.19,-9.16 6.1,-6.09 21.35,-12.19 12.2,-24.4 -9.15,-12.19 -24.41,-12.19 -33.55,0 -6.09,12.2 -12.19,24.4 -12.19,39.65 -3.06,27.45 12.19,39.66 39.65,30.51 39.66,-9.16 67.1,6.09 79.3,48.79 9.15,39.66 -15.25,73.2 -51.85,76.25 -15.25,0 -21.35,-6.09 -24.41,-21.34 -3.05,-15.25 9.16,-15.25 21.35,-15.25 12.2,-3.06 24.41,-3.06 24.41,-21.35 3.05,-21.35 -9.16,-30.5 -27.45,-30.5 -24.4,-3.06 -42.7,9.15 -48.8,30.5 -3.05,30.5 9.16,61 36.6,73.19 39.66,18.31 73.2,18.31 97.61,-3.05 30.5,-30.5 39.65,-64.05 48.79,-103.7 6.1,-36.6 0,-51.85 -39.65,-70.14 3.05,36.6 6.09,67.1 12.19,103.7 -30.5,-21.35 -36.6,-51.85 -45.75,-79.3 -12.19,-33.54 0,-54.9 33.55,-57.95 18.3,-3.05 30.5,-12.19 24.4,-33.54 -3.06,-27.45 -33.55,-54.91 -61,-57.95 -33.55,-3.05 -64.05,0 -91.51,30.5 12.2,12.2 30.5,21.35 39.66,36.6 15.25,18.31 18.3,42.7 6.09,57.95 -9.14,18.29 -21.34,18.29 -51.83,-0.01zm213.48 125.05c-9.15,-27.45 6.1,-36.6 21.35,-48.8 12.2,-12.2 24.4,-21.35 36.6,-36.6 3.05,-3.05 3.05,-12.19 0,-18.3 -3.06,-3.06 -12.2,-6.1 -12.2,-3.06 -12.19,6.1 -30.5,12.2 -39.65,27.45 -24.4,33.54 -33.54,73.2 -30.5,115.89 3.05,30.5 24.4,51.85 54.9,42.7 85.4,-21.35 134.2,-125.05 106.75,-198.25 -12.2,-30.5 -39.66,-33.54 -64.05,-9.15 9.15,21.35 27.45,45.75 9.15,64.05 -24.39,27.47 -54.89,42.72 -82.35,64.07zm-579.48 -131.15c-39.65,-18.31 -64.04,3.05 -57.94,36.6 3.05,12.19 0,30.5 0,42.7 6.09,67.1 21.35,100.64 91.5,131.14 36.6,12.2 64.05,-3.05 61,-42.7 -3.05,-33.54 -12.19,-67.1 -21.35,-100.64 -3.05,-12.2 -21.34,-27.45 -33.54,-36.6 -3.05,-3.05 -18.31,3.06 -30.5,6.1 3.05,9.15 3.05,21.35 12.19,27.44 6.1,6.1 18.31,12.2 27.45,18.31 21.35,12.2 30.5,24.4 21.35,51.85 -24.4,-15.25 -48.8,-27.45 -73.2,-45.75 -9.15,-6.1 -12.19,-27.45 -12.19,-39.66 -0.02,-18.29 9.12,-33.54 15.23,-48.79z"/>
    <path class="fil0" d="M5464.32 2050.32c350.74,0 698.44,0 1049.18,0 0,9.15 0,18.3 0,27.44 0,280.6 0,558.14 0,841.79 0,73.19 -12.19,143.34 -51.85,207.39 -36.6,57.95 -91.5,94.55 -158.59,112.86 -70.14,21.35 -143.34,33.54 -207.4,73.2 -45.75,27.44 -79.3,64.04 -103.7,109.79 -18.31,-21.35 -30.5,-42.69 -48.79,-61 -51.85,-54.9 -115.9,-79.3 -189.1,-100.64 -48.79,-12.2 -94.55,-27.45 -140.3,-48.8 -64.04,-27.45 -106.74,-82.35 -128.1,-149.45 -18.31,-51.85 -24.4,-103.7 -24.4,-158.59 0,-274.5 0,-548.99 0,-826.53 3.05,-9.17 3.05,-18.31 3.05,-27.46zm24.4 33.54c0,6.1 -3.05,9.15 -3.05,12.2 3.05,289.74 3.05,582.53 3.05,875.32 0,54.91 21.35,106.75 57.95,152.5 42.7,54.9 103.7,73.2 167.75,91.5 103.7,27.45 204.34,57.95 265.34,152.5 21.35,-21.35 45.76,-45.76 67.1,-64.05 64.05,-51.85 146.4,-67.1 225.7,-91.5 51.85,-12.2 100.64,-36.6 137.24,-73.2 48.8,-54.91 64.05,-121.99 67.1,-195.19 3.06,-247.04 0,-494.1 0,-738.08 0,-39.66 0,-76.26 0,-115.9 -323.29,-6.1 -652.69,-6.1 -988.18,-6.1z"/>
    <path class="fil0" d="M5549.73 2001.52c-3.06,-12.19 -9.16,-24.4 -15.25,-39.65 -6.1,12.19 -12.2,24.4 -21.35,36.6 -12.2,21.35 -21.35,24.4 -39.66,6.1 -9.15,-9.16 -18.3,-18.31 -30.5,-21.35 -12.19,-3.06 -24.4,-6.1 -33.54,-3.06 -6.1,3.06 -12.2,18.31 -9.15,27.45 3.05,24.4 -3.06,39.65 -33.55,36.6 3.06,27.44 12.2,48.79 15.25,76.25 -51.85,-18.3 -48.79,-64.04 -54.9,-103.7 -15.25,15.25 -21.35,33.55 -15.25,51.85 12.19,21.35 24.4,45.75 42.69,64.05 27.45,27.44 30.5,39.65 21.35,73.2 -12.19,42.69 -39.65,82.35 -67.1,115.89 -3.05,6.1 -12.19,12.2 -21.35,21.35 -6.09,-79.3 -24.4,-149.45 -112.85,-186.05 15.25,-12.2 30.5,-21.35 42.7,-33.55 42.7,-39.65 45.75,-91.5 15.25,-140.29 -3.06,-3.06 -3.06,-6.1 -6.1,-9.16 -12.2,-24.4 -12.2,-30.5 18.31,-36.6 36.6,-3.05 67.1,-15.25 91.5,-42.69 9.15,-9.16 21.35,-15.25 36.6,-15.25 51.85,-3.06 103.7,-3.06 155.55,-3.06 30.5,0 64.04,18.31 64.04,42.7 9.16,30.52 0,70.17 -42.69,82.37z"/>
    <path class="fil0" d="M6684.3 2337.01c-39.65,-45.75 -73.2,-88.45 -88.45,-143.34 -6.1,-30.5 -3.05,-39.65 21.35,-57.95 30.5,-21.35 51.85,-51.85 45.75,-91.5 -3.05,-9.15 -6.1,-18.31 -12.19,-27.45 -15.25,33.55 -9.16,79.3 -54.91,100.65 3.06,-24.41 6.1,-48.8 12.2,-73.2 -21.35,-3.05 -30.5,-12.2 -30.5,-33.54 0,-12.2 -6.1,-30.51 -15.25,-33.55 -12.2,-3.05 -27.45,3.06 -39.66,12.2 -15.25,9.15 -27.44,21.35 -42.69,39.65 -12.2,-21.35 -24.41,-39.65 -39.66,-64.04 -3.05,12.19 -6.1,21.34 -12.19,33.54 -3.06,9.15 -6.1,12.2 -15.26,3.05 -21.34,-12.19 -33.54,-48.79 -30.5,-79.29 3.06,-27.45 27.45,-36.6 48.8,-39.66 33.54,-3.05 70.14,-3.05 103.7,0 27.44,0 54.9,3.06 79.29,3.06 12.2,3.05 21.35,9.15 30.51,18.3 18.3,27.45 45.75,30.51 73.19,39.66 12.2,3.05 21.35,9.15 30.51,12.19 -3.06,9.16 -6.1,21.35 -12.2,30.51 -30.5,45.75 -24.4,106.74 15.25,149.45 9.15,12.19 21.35,21.35 33.54,30.5 -73.18,27.41 -94.53,91.47 -100.63,170.76z"/>
    <path class="fil0" d="M6284.75 1971.02c-33.54,-3.05 -67.1,-6.1 -100.64,-12.19 -21.35,-3.06 -45.75,-6.1 -67.1,-6.1 -70.15,-3.06 -140.3,-6.1 -210.44,-3.06 -61.01,3.06 -125.05,15.25 -186.05,21.35 -15.26,3.06 -36.6,9.15 -39.66,-21.35 24.4,-3.05 48.8,-12.19 73.2,-12.19 91.5,-6.1 179.94,-15.25 271.44,-18.31 82.36,-3.05 167.75,12.2 250.1,30.5 6.1,3.06 12.2,12.2 18.31,15.25 -6.1,0 -9.16,3.05 -9.16,6.1z"/>
    <path class="fil0" d="M5049.53 1943.57c9.16,-3.05 21.35,-6.09 30.51,-9.15 36.59,-9.15 36.59,-12.19 21.34,-45.75 -12.19,-30.5 -12.19,-54.9 9.16,-73.2 30.5,-24.4 73.2,-12.19 79.29,27.45 9.16,45.75 -6.09,76.25 -51.85,91.5 -27.44,9.15 -54.9,12.2 -82.35,15.25 -6.1,-3.05 -6.1,-3.05 -6.1,-6.1z"/>
    <path class="fil0" d="M6922.19 1940.52c-33.54,12.2 -57.95,0 -82.35,-9.15 -48.8,-21.35 -54.91,-67.1 -42.7,-97.6 9.15,-21.35 33.55,-33.55 54.91,-27.45 27.44,9.15 39.65,30.5 30.5,54.9 -3.06,12.2 -6.1,21.35 -12.2,30.51 -9.15,18.3 -3.05,30.5 15.25,33.54 12.19,9.15 21.34,12.2 36.59,15.25z"/>
    <path class="fil0" d="M5668.67 1925.27c-9.16,-21.35 -15.26,-36.6 -21.35,-54.9 33.54,-6.1 64.04,-12.2 100.64,-21.35 12.2,-3.06 21.35,0 21.35,18.3 0,39.66 3.06,39.66 -39.65,48.8 -21.34,3.05 -42.69,3.05 -60.99,9.15z"/>
    <path class="fil0" d="M5946.21 1833.78l0 0c3.05,54.9 3.05,54.9 -61,61 -12.2,0 -24.41,0 -39.66,0 -3.05,-18.31 -3.05,-39.65 -6.1,-61 36.61,0 70.16,0 106.76,0z"/>
    <path class="fil0" d="M6129.2 1897.82c-33.54,-3.05 -67.1,-3.05 -100.64,-6.09 0,-18.31 0,-39.66 0,-54.91 33.54,0 67.1,0 100.64,0 0,21.35 0,39.65 0,61z"/>
    <path class="fil0" d="M6208.51 1852.07c39.66,9.15 73.2,15.25 112.85,24.4 -3.05,12.2 -9.15,27.45 -15.25,36.6 -3.05,6.1 -12.19,12.2 -21.34,12.2 -21.35,-3.06 -45.76,-6.1 -67.11,-12.2 -3.05,-3.05 -12.19,-12.19 -12.19,-15.25 -0.01,-18.3 -0.01,-33.55 3.04,-45.75z"/>
    <path class="fil0" d="M5988.92 1232.94c24.4,30.5 27.44,57.95 9.15,85.39 -6.1,9.16 -12.2,12.2 -18.31,0 -24.4,-24.4 -21.34,-54.9 9.16,-85.39z"/>
    <path class="fil0" d="M5696.12 1501.33c-9.15,-12.2 -18.3,-27.45 -24.4,-42.7 -3.05,-3.05 3.05,-12.19 6.1,-21.35 6.1,3.06 18.3,3.06 21.35,9.16 6.09,15.25 9.15,33.54 12.19,51.85 -6.1,-0.01 -12.19,-0.01 -15.24,3.04z"/>
    <path class="fil0" d="M5988.92 1833.78c27.44,30.5 27.44,30.5 -3.06,54.9 -30.5,-21.36 -30.5,-33.55 3.06,-54.9z"/>
    <path class="fil0" d="M5805.92 1900.87c-27.45,-18.31 -30.5,-27.45 -21.35,-42.7 6.1,-9.15 15.25,-18.31 30.5,-3.06 12.2,15.27 12.2,18.31 -9.15,45.76z"/>
    <path class="fil0" d="M6162.76 1900.87c-6.1,-9.16 -15.25,-21.35 -21.35,-30.5 12.2,-6.1 15.25,-30.51 36.6,-12.2 12.2,12.21 12.2,18.3 -15.25,42.7z"/>
    <path class="fil0" d="M6278.66 1498.28c-21.35,-21.35 -15.26,-39.66 0,-54.91 3.05,-3.05 12.19,-3.05 15.25,-3.05 3.05,0 3.05,9.15 3.05,12.19 -3.05,18.32 -12.21,30.51 -18.3,45.77z"/>
    <path class="fil0" d="M6098.71 3767.42c-18.3,30.51 -39.65,64.05 -54.9,91.51 0,3.05 3.05,3.05 3.05,6.1 12.2,-6.1 30.51,-9.16 39.66,-18.31 15.25,-15.25 30.5,-33.54 42.7,-51.85 18.3,-30.5 33.54,-39.65 73.19,-30.5 -12.19,15.25 -21.34,30.5 -30.5,48.79 -9.15,15.26 -18.3,30.51 -30.5,45.76 3.06,3.05 3.06,3.05 3.06,6.09 12.19,-3.05 21.34,-6.09 30.5,-12.19 21.35,-21.35 42.69,-45.75 61,-70.14 18.31,-21.35 36.6,-33.55 64.05,-27.45 0,3.05 0,12.19 3.05,18.3 27.45,-9.15 48.8,-36.6 79.3,-21.34 -3.06,12.19 -9.16,24.4 -12.2,36.59 21.35,9.16 30.5,9.16 39.65,-12.19 12.2,-30.5 39.66,-36.6 70.15,-21.35 -21.35,30.5 -39.66,57.95 -61,88.45 21.34,9.15 33.54,-3.06 45.75,-12.2 18.3,-18.3 33.54,-39.65 51.85,-57.94 15.25,-21.35 36.6,-30.51 67.1,-21.35 -18.31,30.5 -36.6,57.94 -51.85,88.45 3.05,3.05 3.05,3.05 3.05,3.05 30.5,-21.35 54.91,-39.65 85.4,-57.95l3.05 3.06c-6.1,6.1 -12.19,15.25 -21.35,21.35 -51.85,39.65 -106.74,79.29 -158.59,118.95 -48.79,39.65 -103.7,39.65 -161.65,27.44 -21.35,-3.05 -30.5,-18.3 -27.44,-39.65 3.05,-18.31 21.35,-33.55 45.75,-36.6 12.19,0 21.35,0 33.54,3.05 -15.25,9.16 -33.54,18.31 -30.5,39.66 3.06,18.3 9.15,24.4 27.45,27.44 30.5,3.06 54.9,-9.15 73.2,-30.5 15.25,-15.25 33.54,-33.54 48.79,-54.9 -9.15,0 -18.3,-3.06 -24.4,0 -36.6,6.1 -45.75,0 -45.75,-36.6 0,-3.05 0,-9.15 -3.06,-12.2 -33.54,12.2 -51.85,-3.05 -67.1,-36.6 -21.35,21.35 -45.75,42.7 -64.04,64.05 -12.2,18.31 -30.51,24.4 -54.91,24.4 -12.19,0 -30.5,0 -39.65,3.06 -30.5,12.19 -48.8,3.05 -64.05,-21.35 -67.1,36.6 -73.2,39.65 -100.64,3.05 -18.31,9.16 -36.6,18.31 -54.91,27.45 -21.35,9.15 -42.69,6.1 -61,-6.1 -12.2,-9.15 -21.35,-9.15 -33.54,-3.05 -30.51,15.25 -61.01,21.35 -91.51,-3.06 -3.05,-3.05 -12.19,0 -18.3,3.06 -9.16,3.05 -18.31,9.15 -27.45,12.19 -30.5,9.16 -39.65,6.1 -54.9,-21.34 -15.26,6.09 -30.51,12.19 -48.8,21.34 -30.5,12.2 -39.65,3.06 -57.95,-33.54 -24.4,24.4 -48.79,48.8 -73.2,70.14 -12.19,12.2 -30.5,18.31 -45.75,27.45 -3.05,3.05 -12.19,-3.05 -12.19,-9.15 -3.06,-57.95 -30.5,-54.91 -82.35,-48.8 -24.41,3.06 -48.8,6.1 -73.2,-9.15 6.1,-3.06 12.19,-3.06 18.3,-6.1 6.1,0 15.25,-3.05 21.35,0 82.35,12.2 115.9,-42.7 152.5,-97.6 3.05,-3.05 0,-12.2 -3.06,-18.31 -6.1,-6.09 -15.25,-12.19 -21.35,-18.3 3.06,-3.06 3.06,-3.06 3.06,-3.06 3.05,3.06 6.1,3.06 12.19,6.1 12.2,9.16 21.35,9.16 33.55,-3.05 24.4,-30.5 51.85,-54.91 91.5,-64.05 27.45,-3.05 54.91,-3.05 85.4,-3.05 21.34,0 27.44,15.25 30.5,30.5 3.05,18.3 -6.1,30.5 -24.41,36.6 -36.6,9.15 -73.2,15.25 -109.79,24.4 -12.2,3.06 -30.51,9.15 -39.66,21.35 -24.4,36.6 -54.9,64.05 -100.64,85.39 12.19,3.06 21.35,9.16 30.5,12.2 9.15,3.05 21.35,9.15 30.5,12.2 3.05,3.05 12.2,0 15.25,-3.06 39.65,-30.5 76.25,-64.04 112.85,-100.64 18.31,-18.31 36.6,-21.35 64.05,-15.25 -21.35,30.5 -39.66,61 -57.95,91.5 0,3.05 3.06,3.05 3.06,6.1 12.19,-3.06 24.4,-3.06 30.5,-12.2 15.25,-12.19 30.5,-30.5 42.69,-48.79 21.35,-33.55 39.66,-42.7 82.35,-30.5 -21.34,30.5 -42.69,61 -64.04,91.5 3.05,3.05 3.05,3.05 6.1,6.1 21.35,-12.2 39.65,-21.35 54.9,-33.55 27.45,-18.3 51.85,-39.65 79.3,-57.95 21.35,-15.25 48.79,-24.4 70.14,-3.05 15.25,12.2 27.45,3.05 39.66,-3.05 30.5,-12.2 48.79,-9.16 64.04,21.34 -12.2,6.1 -24.4,15.25 -39.65,21.35 -3.06,-3.05 -3.06,-3.05 -6.1,-3.05 3.05,-9.16 3.05,-18.31 6.1,-30.5 -9.16,3.05 -18.31,3.05 -21.35,6.09 -12.2,12.2 -27.45,27.45 -36.6,39.66 -3.06,6.1 -3.06,21.35 3.05,30.5 3.06,3.05 21.35,6.1 30.51,3.05 24.4,-15.25 48.79,-30.5 70.14,-48.79 3.05,-3.06 6.1,-9.15 12.19,-12.2 24.41,-45.75 33.56,-48.8 73.21,-42.71zm-564.23 -15.25c36.6,3.06 64.04,-3.05 91.5,-21.34 12.2,-12.2 24.4,-24.41 12.2,-39.66 -9.16,-12.19 -24.41,-12.19 -39.66,-6.1 -33.54,6.11 -48.79,33.56 -64.04,67.1zm250.09 115.91c21.35,12.2 42.7,6.1 61,-6.1 21.35,-12.19 39.66,-33.54 36.6,-61 -3.05,-18.3 -15.25,-15.25 -27.44,-12.2 -18.31,9.16 -36.6,21.35 -54.91,33.55 18.3,24.4 3.05,36.6 -15.25,45.75z"/>
    <path class="fil0" d="M5424.68 3724.73c-12.2,-9.16 -12.2,-21.35 -3.06,-36.6 12.2,-15.25 27.45,-18.31 45.76,-12.2 -12.2,3.06 -24.41,3.06 -30.51,12.2 -9.15,12.21 -9.15,24.4 -12.19,36.6z"/>
    <path class="fil0" d="M5760.17 2675.56c21.35,-79.3 45.75,-158.59 67.1,-237.9 3.05,-15.25 9.15,-33.55 12.2,-48.8 6.09,-36.6 6.09,-39.65 -30.51,-48.79 -3.05,-3.06 -9.15,-3.06 -15.25,-3.06 -3.05,-30.5 -3.05,-30.5 27.45,-30.5 67.1,0 134.2,0 201.3,0 85.4,-3.05 170.8,-6.1 256.2,-9.15 39.65,0 82.35,9.15 115.89,30.5 39.65,24.4 73.2,100.65 61,152.5 -9.15,42.69 -21.35,88.44 -64.04,109.79 -21.35,12.2 -45.75,15.25 -67.1,21.35 -27.45,3.06 -54.91,3.06 -82.35,6.1 -3.06,0 -12.2,6.1 -12.2,12.2 0,42.69 -3.05,88.44 0,131.14 3.06,30.5 18.31,39.66 48.8,39.66 3.05,0 12.19,0 18.3,0 0,6.09 3.06,9.15 3.06,12.19 0,3.04 0,6.1 0,12.2 -122,0 -240.95,0 -359.9,0 -3.05,-15.25 -3.05,-27.45 12.2,-30.5 18.3,-6.1 24.4,-21.35 24.4,-39.66 0,-118.95 0,-237.9 0,-356.84 0,-9.15 0,-21.35 -6.1,-27.44 -9.15,-12.2 -21.35,-24.41 -33.54,-30.51 -15.25,-6.09 -30.5,3.06 -36.6,21.35 -15.25,39.66 -30.5,76.26 -45.75,115.9 -33.55,115.89 -64.05,228.75 -100.65,341.59 -3.05,6.1 -12.19,15.25 -21.35,15.25 -9.15,-3.06 -21.34,-9.15 -24.4,-18.31 -18.3,-54.9 -33.54,-106.74 -51.85,-164.7 -30.5,-91.5 -57.95,-183 -88.45,-274.5 -6.1,-24.4 -24.4,-39.65 -48.79,-42.7 0,-9.15 0,-15.25 0,-24.4 64.04,0 128.1,0 192.15,0 3.05,15.25 3.05,24.4 -18.31,27.45 -36.6,6.1 -42.7,21.35 -30.5,61 27.45,85.39 51.85,170.8 79.3,256.19 3.05,9.16 6.09,15.25 12.19,24.41 3.04,-3.01 3.04,-3.01 6.1,-3.01zm378.19 -109.8l0 0c0,-64.04 3.05,-125.05 0,-189.09 0,-30.5 -21.35,-48.8 -48.8,-48.8 -27.44,3.06 -48.79,21.35 -48.79,51.85 0,125.05 0,253.14 0,375.15 0,15.25 6.09,27.44 24.4,30.5 12.2,3.05 24.4,3.05 36.6,3.05 24.4,0 36.6,-12.19 36.6,-36.6 3.04,-57.97 -0.01,-122.01 -0.01,-186.06zm128.1 -240.95c-12.2,3.05 -39.65,-6.1 -39.65,21.34 -3.06,67.1 -3.06,134.21 0,204.35 0,9.15 12.19,27.45 21.34,27.45 30.51,3.05 61.01,3.05 82.36,-24.41 39.65,-48.79 42.69,-103.7 21.34,-158.59 -12.19,-51.84 -36.6,-70.14 -85.39,-70.14z"/>
   </g>
  </g>
 </g>
</svg>
