<?xml version="1.0" encoding="UTF-8"?>
<!DOCTYPE svg PUBLIC "-//W3C//DTD SVG 1.1//EN" "http://www.w3.org/Graphics/SVG/1.1/DTD/svg11.dtd">
<!-- Creator: CorelDRAW -->
<svg xmlns="http://www.w3.org/2000/svg" xml:space="preserve" width="83.5939mm" height="31.4672mm" version="1.1" style="shape-rendering:geometricPrecision; text-rendering:geometricPrecision; image-rendering:optimizeQuality; fill-rule:evenodd; clip-rule:evenodd"
viewBox="0 0 8279.08 3116.49"
 xmlns:xlink="http://www.w3.org/1999/xlink"
 xmlns:xodm="http://www.corel.com/coreldraw/odm/2003">
 <defs>
  <style type="text/css">
   <![CDATA[
    .fil0 {fill:black;fill-rule:nonzero}
   ]]>
  </style>
 </defs>
 <g id="Слой_x0020_1">
  <metadata id="CorelCorpID_0Corel-Layer"/>
  <g id="_105553826133408">
   <polygon class="fil0" points="4633.92,2425.77 4745.09,2613.82 4756.93,2607.91 4652.85,2425.77 "/>
   <polygon class="fil0" points="5257.21,1772.91 5258.4,1767 5054.97,1726.78 5062.07,1737.43 "/>
   <path class="fil0" d="M4782.94 2497.92l-40.21 -60.31 18.92 0c7.1,0 11.84,-5.91 11.84,-11.84 0,-7.09 -5.92,-11.83 -11.84,-11.83l-73.33 0c-7.09,0 -11.83,5.91 -11.83,11.83 0,7.1 5.91,11.84 11.83,11.84l44.94 0 43.77 63.87 5.91 -3.56z"/>
   <polygon class="fil0" points="4198.68,2425.77 4221.15,2694.25 4228.24,2694.25 4209.32,2425.77 "/>
   <polygon class="fil0" points="3766.98,2425.77 3532.8,3006.5 3544.63,3012.41 3793.01,2425.77 "/>
   <path class="fil0" d="M3651.07 2428.14c1.19,5.91 5.91,10.65 11.84,10.65l48.48 0 -68.59 145.48 5.91 2.37 73.33 -149.02 15.38 0c7.09,0 11.83,-5.91 11.83,-11.84 0,-7.09 -5.91,-11.83 -11.83,-11.83l-73.33 0c-7.1,0 -11.84,5.91 -11.84,11.83l-17.73 0 -104.08 185.7 11.83 7.09 108.8 -190.42z"/>
   <polygon class="fil0" points="3821.39,2734.46 3834.39,2736.83 3919.55,2425.77 3900.63,2425.77 "/>
   <polygon class="fil0" points="4791.22,2425.77 5089.27,2808.98 5099.91,2800.7 4817.24,2425.77 "/>
   <path class="fil0" d="M5214.64 2002.36c-5.91,3.55 -8.28,10.65 -4.72,16.56l36.66 63.87c2.37,3.55 5.91,5.91 10.64,5.91 2.37,0 4.73,0 5.92,-1.19 5.91,-3.55 8.27,-10.64 4.72,-16.56l-24.84 -43.76 345.36 139.56 4.72 -11.83 -385.56 -163.22 7.09 10.65z"/>
   <polygon class="fil0" points="4484.89,2425.77 4734.45,3012.41 4746.28,3006.5 4510.92,2425.77 "/>
   <polygon class="fil0" points="3460.66,2425.77 3177.98,2800.7 3188.63,2808.98 3487.86,2425.77 "/>
   <polygon class="fil0" points="3882.88,584.27 3827.3,382.02 3814.29,385.57 3871.06,604.38 "/>
   <polygon class="fil0" points="4456.51,383.2 4444.68,380.85 4390.27,575.99 4402.11,596.1 "/>
   <path class="fil0" d="M4347.7 438.79l-7.09 37.85c-2.37,0 -3.56,0 -5.92,1.18 -5.91,3.56 -8.27,10.65 -4.72,16.56l36.66 63.87c2.37,3.55 5.91,5.91 10.65,5.91 2.36,0 4.72,0 5.91,-1.19 5.91,-3.55 8.28,-10.64 4.72,-16.55l-36.66 -63.87c-1.18,-2.37 -2.36,-3.56 -4.72,-4.73l7.1 -39.03 -5.92 0z"/>
   <path class="fil0" d="M3015.95 2425.77c0,-7.09 -5.92,-11.83 -11.84,-11.83l-73.33 0c-7.09,0 -11.83,5.91 -11.83,11.83 0,7.1 5.91,11.84 11.83,11.84l50.86 0 -92.26 72.15 8.28 10.64 109.99 -82.79c2.37,-1.19 3.56,-2.37 4.73,-3.56l9.46 -7.09 -5.9 0 0 -1.19z"/>
   <path class="fil0" d="M2856.28 2412.77l-15.37 0 8.27 -13c3.56,-5.92 1.19,-13.01 -4.72,-16.56 -5.91,-3.56 -13.01,-1.19 -16.56,4.72l-29.57 49.68 57.96 0c7.1,0 11.83,-5.91 11.83,-11.84 1.19,-7.09 -4.73,-13 -11.83,-13z"/>
   <path class="fil0" d="M3816.66 674.16c-3.56,5.91 -1.19,13 4.72,16.55 2.37,1.19 3.56,1.19 5.91,1.19 4.73,0 8.28,-2.37 10.65,-5.91l36.66 -63.87c3.55,-5.91 1.19,-13 -4.72,-16.56 -5.92,-3.55 -13.01,-1.18 -16.56,4.73l-26.03 44.94 -61.49 -172.68 -5.91 2.37 61.49 180.95 -4.72 8.29z"/>
   <path class="fil0" d="M2917.79 2256.65c-5.91,-3.56 -13.01,-1.19 -16.56,4.72l-36.66 63.87c-3.55,5.91 -1.19,13 4.73,16.56 2.36,1.18 3.55,1.18 5.91,1.18 4.72,0 8.28,-2.36 10.64,-5.91l36.66 -63.87c3.56,-5.91 1.19,-14.19 -4.72,-16.55z"/>
   <path class="fil0" d="M3963.31 419.87c-3.55,5.92 -1.18,13.01 4.73,16.56 2.36,1.19 3.55,1.19 5.91,1.19 4.72,0 8.28,-2.37 10.65,-5.91l36.65 -63.87c3.56,-5.91 1.19,-13.01 -4.72,-16.56 -5.91,-3.55 -13,-1.19 -16.56,4.73l-8.28 13 -52.04 -369.01 -13.01 1.19 48.49 395.03 -11.83 23.65z"/>
   <path class="fil0" d="M2942.63 2214.06c2.36,1.19 3.55,1.19 5.91,1.19 4.72,0 8.28,-2.37 10.64,-5.91l36.66 -63.87c3.56,-5.91 1.19,-13 -4.72,-16.56 0,0 0,0 0,0l0 0 0 0c-5.91,-3.55 -13.01,-1.18 -16.56,4.73l-3.55 5.91 -146.66 74.51 2.36 5.92 136.02 -66.24 -24.84 43.77c-3.55,5.9 -1.19,13 4.73,16.55z"/>
   <path class="fil0" d="M3011.22 2069.77c-3.55,5.91 -1.19,13.01 4.73,16.56 2.36,1.19 3.55,1.19 5.91,1.19 4.72,0 8.28,-2.37 10.64,-5.91l36.66 -63.87c3.56,-5.91 1.19,-13.01 -4.72,-16.56 0,0 0,0 0,0l7.09 -11.83 -385.56 164.4 4.72 11.83 345.36 -139.56 -24.84 43.76z"/>
   <path class="fil0" d="M3889.99 547.61c-3.56,5.91 -1.19,13 4.72,16.56 2.37,1.18 3.56,1.18 5.91,1.18 4.73,0 8.28,-2.37 10.65,-5.91l36.66 -63.87c3.55,-5.91 1.19,-13 -4.72,-16.56 -5.92,-3.55 -13.01,-1.18 -16.56,4.73l-2.37 3.55 -79.24 -366.64 -5.91 1.19 75.69 382.01 -24.83 43.77z"/>
   <path class="fil0" d="M4041.38 309.88c2.36,1.18 3.55,1.18 5.91,1.18 4.72,0 8.28,-2.37 10.64,-5.91l36.66 -63.87c3.56,-5.91 1.19,-13 -4.72,-16.56 -5.91,-3.55 -13.01,-1.18 -16.56,4.73l-36.66 63.87c-3.55,5.9 -1.18,13 4.73,16.56z"/>
   <path class="fil0" d="M4114.71 183.32c5.91,3.56 13,1.19 16.55,-4.72l8.28 -13.01 8.28 13.01c2.37,3.55 5.91,5.91 10.65,5.91 2.37,0 4.72,0 5.91,-1.19 5.91,-3.55 8.28,-10.64 4.73,-16.55l-29.57 -49.68 -29.57 49.68c-3.54,5.91 -1.18,13 4.74,16.55z"/>
   <path class="fil0" d="M4424.58 610.29c-3.56,-5.91 -10.65,-8.28 -16.56,-4.72 -5.91,3.55 -8.28,10.64 -4.73,16.55l36.66 63.87c2.37,3.56 5.91,5.91 10.65,5.91 2.37,0 4.73,0 5.91,-1.18 5.91,-3.56 8.28,-10.65 4.73,-16.56l-13.01 -22.47 157.3 -486.1 -5.91 -2.36 -160.85 470.72 -14.19 -23.66z"/>
   <path class="fil0" d="M4219.96 305.15c2.37,3.55 5.91,5.91 10.65,5.91 2.36,0 4.72,0 5.91,-1.19 5.91,-3.55 8.28,-10.65 4.72,-16.56l-21.28 -36.66 8.27 -164.4 -5.91 0 -10.64 150.2 -8.28 -13c-3.56,-5.91 -10.65,-8.28 -16.56,-4.73 -5.91,3.56 -8.28,10.65 -4.73,16.56l37.85 63.87z"/>
   <path class="fil0" d="M4916.6 1511.53l36.66 63.87c2.36,3.55 5.91,5.91 10.64,5.91 2.37,0 4.73,0 5.91,-1.19 4.73,-2.36 7.1,-8.28 5.91,-13l380.85 -4.73 0 -13 -391.48 -2.37 -23.66 -41.39 334.71 -28.38 0 -5.92 -344.17 22.47c-2.37,-1.18 -4.73,0 -7.1,0l-2.37 0 0 0c-7.09,4.72 -9.46,11.83 -5.9,17.74z"/>
   <path class="fil0" d="M4293.29 432.88c2.37,3.55 5.91,5.91 10.65,5.91 2.36,0 4.72,0 5.91,-1.19 5.91,-3.55 8.28,-10.64 4.72,-16.55l-13 -22.47 48.49 -395.04 -13 -1.18 -52.05 369.01 -8.28 -13.01c-3.55,-5.91 -10.64,-8.28 -16.56,-4.72 -5.91,3.55 -8.28,10.64 -4.72,16.56l37.84 62.68z"/>
   <path class="fil0" d="M5330.54 2215.25c2.37,0 4.73,0 5.92,-1.19 5.91,-3.55 8.27,-10.65 4.72,-16.56l-36.66 -63.87c-3.55,-5.91 -10.65,-8.28 -16.56,-4.72 -5.91,3.55 -8.28,10.64 -4.72,16.56l36.66 63.87c2.37,3.55 5.91,5.91 10.64,5.91z"/>
   <path class="fil0" d="M5414.52 2324.06l-36.66 -63.86c-3.55,-5.92 -10.65,-8.28 -16.56,-4.73 -5.91,3.55 -8.28,10.65 -4.72,16.56l36.66 63.87c2.36,3.55 5.91,5.91 10.64,5.91 2.37,0 4.73,0 5.92,-1.19 5.91,-3.55 7.09,-10.64 4.72,-16.56z"/>
   <path class="fil0" d="M5433.44 2383.19c-5.91,3.56 -8.28,10.65 -4.72,16.56l8.27 13.01 -15.37 0c-7.1,0 -11.83,5.91 -11.83,11.83 0,7.1 5.91,11.84 11.83,11.84l57.96 -0.01 -29.57 -49.68c-2.37,-4.72 -10.65,-7.09 -16.56,-3.55z"/>
   <path class="fil0" d="M4469.52 2437.6c7.09,0 11.83,-5.91 11.83,-11.84 0,-7.09 -5.91,-11.83 -11.83,-11.83l-73.33 0c-7.1,0 -11.84,5.91 -11.84,11.83l-18.92 0 86.34 309.88 13 -3.56 -78.06 -299.23c2.37,3.55 5.91,5.91 9.47,5.91l46.12 0 70.96 196.34 5.91 -2.37 -66.23 -195.15 16.56 0z"/>
   <path class="fil0" d="M3882.88 2437.6c7.1,0 11.84,-5.91 11.84,-11.84 0,-7.09 -5.91,-11.83 -11.84,-11.83l-73.32 0c-7.1,0 -11.84,5.91 -11.84,11.83 0,7.1 5.91,11.84 11.84,11.84l29.56 0 -165.58 514.49 5.91 2.36 176.23 -515.67 27.2 0 0 -1.18z"/>
   <path class="fil0" d="M3222.93 2412.77c-7.1,0 -11.83,5.91 -11.83,11.83 0,7.1 5.91,11.84 11.83,11.84l73.33 -0.01c7.1,0 11.84,-5.91 11.84,-11.83 0,-7.1 -5.92,-11.83 -11.84,-11.83l-73.33 0z"/>
   <path class="fil0" d="M3149.6 2412.77l-73.33 0c-7.1,0 -11.83,5.91 -11.83,11.83 0,7.1 5.91,11.84 11.83,11.84l67.42 -0.01 -104.08 94.62 3.55 4.72 127.74 -111.17 -8.28 0c0,-5.91 -5.91,-11.83 -13.01,-11.83z"/>
   <path class="fil0" d="M4921.32 2425.77c0,-7.09 -5.91,-11.83 -11.83,-11.83l-73.33 0c-7.1,0 -11.83,5.91 -11.83,11.83 0,7.1 5.91,11.84 11.83,11.84l73.33 0c1.18,0 2.37,0 3.55,-1.19l199.88 222.35 4.73 -3.55 -197.51 -225.9c0,-1.19 1.18,-2.37 1.18,-3.56z"/>
   <path class="fil0" d="M4029.54 2412.77l-73.33 0c-7.09,0 -11.83,5.91 -11.83,11.83 0,7.1 5.91,11.84 11.83,11.84l11.84 -0.01 -43.77 238.91 5.91 1.19 47.31 -240.09 33.12 -0.01 -82.8 676.52 13.01 1.19 95.8 -681.25c3.55,-2.37 4.72,-5.91 4.72,-9.46 0.01,-4.73 -4.72,-10.65 -11.83,-10.65z"/>
   <path class="fil0" d="M3589.57 2437.6c7.1,0 11.83,-5.91 11.83,-11.84 0,-7.09 -5.91,-11.83 -11.83,-11.83l-73.33 0c-7.1,0 -11.83,5.91 -11.83,11.83 0,7.1 5.91,11.84 11.83,11.84l35.49 0 -223.54 346.54 4.73 3.55 234.18 -348.91 22.47 0 0 -1.18z"/>
   <path class="fil0" d="M5201.62 2412.77l-73.32 0c-7.1,0 -11.84,5.91 -11.84,11.83 0,7.1 5.91,11.84 11.84,11.84l73.32 -0.01c7.1,0 11.84,-5.91 11.84,-11.83 1.18,-5.91 -4.73,-11.83 -11.84,-11.83z"/>
   <path class="fil0" d="M3369.58 2412.77c-7.09,0 -11.83,5.91 -11.83,11.83 0,7.1 5.91,11.84 11.83,11.84l73.33 -0.01c7.1,0 11.84,-5.91 11.84,-11.83 0,-7.1 -5.92,-11.83 -11.84,-11.83l-73.33 0z"/>
   <path class="fil0" d="M5348.29 2437.6c7.1,0 11.83,-5.91 11.83,-11.84 0,-7.09 -5.91,-11.83 -11.83,-11.83l-73.33 0c-7.1,0 -11.83,5.91 -11.83,11.83l-7.1 0 9.46 7.1c1.19,1.19 3.56,3.56 4.73,3.56l109.99 82.79 8.28 -10.65 -92.26 -72.14 52.05 -0.01 0 1.19z"/>
   <path class="fil0" d="M4334.69 2425.77c0,-7.09 -5.91,-11.83 -11.83,-11.83l-73.33 0c-7.1,0 -11.84,5.91 -11.84,11.83 0,3.56 2.37,7.1 4.73,9.47l95.8 681.25 13 -1.19 -82.79 -676.52 44.94 0 120.64 560.62 5.91 -1.19 -109.99 -560.61c2.37,-3.56 4.73,-7.1 4.73,-11.84z"/>
   <path class="fil0" d="M4614.99 2437.6c7.1,0 11.84,-5.91 11.84,-11.84 0,-7.09 -5.92,-11.83 -11.84,-11.83l-72.14 0c-7.1,0 -11.83,5.91 -11.83,11.83 0,7.1 5.91,11.84 11.83,11.84l29.56 0 222.35 435.24 5.91 -2.36 -212.88 -432.88 27.2 0z"/>
   <path class="fil0" d="M4176.21 2412.77l-73.34 0c-7.09,0 -11.83,5.91 -11.83,11.83l-10.65 0 -30.74 599.64 5.91 0 40.21 -590.18c2.37,1.18 4.73,2.37 7.1,2.37l29.56 -0.01 3.55 338.26 13.01 0 1.18 -338.26 24.84 0c7.1,0 11.83,-5.91 11.83,-11.83 1.19,-5.91 -4.72,-11.83 -10.64,-11.83z"/>
   <path class="fil0" d="M4981.65 2412.77c-7.1,0 -11.84,5.91 -11.84,11.83 0,7.1 5.91,11.84 11.84,11.84l73.33 -0.01c7.09,0 11.83,-5.91 11.83,-11.83 0,-7.1 -5.91,-11.83 -11.83,-11.83l-73.33 0z"/>
   <path class="fil0" d="M2911.87 2367.82l2455.33 0 -1227.66 -2126.54 -1227.67 2126.54zm34.3 -20.1l1193.37 -2066.23 1193.37 2066.23 -2386.75 0z"/>
   <path class="fil0" d="M3795.36 1544.65c3.56,-3.55 -1.18,-7.1 -4.72,-4.73 -57.96,53.22 -113.54,109.99 -173.86,162.04 0,0 0,0 0,0 66.23,-43.77 121.82,-100.53 178.59,-157.3z"/>
   <path class="fil0" d="M3817.84 1518.63c-1.18,0 -2.36,1.18 -3.55,1.18 -1.19,1.19 -2.37,2.37 -3.55,2.37 -2.37,2.37 -4.73,4.72 -5.91,7.1 -1.19,2.36 1.18,3.55 3.55,3.55 5.91,-1.19 10.65,-4.72 15.38,-9.46 1.18,-1.19 -2.37,-5.92 -5.92,-4.73z"/>
   <path class="fil0" d="M3833.22 1516.26c40.21,-22.47 82.79,-42.58 125.36,-60.32 3.56,-1.18 1.19,-5.91 -2.37,-5.91 -43.76,10.65 -92.26,29.57 -124.19,63.87 -1.18,1.18 0,2.37 1.19,2.37z"/>
   <path class="fil0" d="M3718.49 1597.87c3.56,-4.73 -2.37,-11.84 -7.1,-7.1 -20.1,20.1 -39.02,40.21 -60.31,59.14 -23.66,22.47 -46.13,47.31 -70.96,68.59 0,0 0,1.19 1.18,1.19 24.84,-18.93 47.31,-40.21 72.15,-59.14 23.65,-20.1 46.13,-37.85 65.05,-62.68z"/>
   <path class="fil0" d="M3875.79 1455.94c-49.68,27.21 -96.99,65.05 -131.29,108.81 0,0 0,1.19 1.19,1.19 42.58,-37.85 89.88,-68.6 134.83,-102.9 2.36,-3.55 -1.19,-9.46 -4.73,-7.1z"/>
   <path class="fil0" d="M3626.23 1660.55c21.29,-17.74 41.4,-37.85 60.32,-57.96 2.36,-3.55 -1.19,-7.1 -4.73,-4.72 -36.66,35.49 -72.15,74.51 -111.17,107.63 0,0 0,1.18 1.18,1.18 18.93,-13 35.49,-30.75 54.4,-46.12z"/>
   <path class="fil0" d="M3855.69 1437.01c-29.57,15.38 -55.59,35.49 -79.24,57.96 -26.02,24.84 -46.13,52.05 -68.6,79.24 0,0 0,1.19 1.19,1.19 23.66,-18.93 43.77,-43.77 66.24,-63.87 26.02,-24.84 55.58,-44.94 85.15,-66.24 3.55,-3.55 0,-10.64 -4.73,-8.28z"/>
   <path class="fil0" d="M3587.2 1673.56c27.21,-26.02 56.78,-50.86 82.8,-78.06 27.2,-28.38 53.22,-57.95 80.43,-86.33 2.36,-2.37 -1.19,-7.1 -3.56,-3.56 -28.38,23.66 -50.86,54.41 -76.87,81.61 -27.21,29.57 -56.77,55.59 -85.15,83.98 -1.19,1.19 1.18,3.56 2.36,2.37z"/>
   <path class="fil0" d="M3638.06 1612.06c35.49,-36.66 60.32,-81.61 93.44,-119.46 1.18,-1.18 0,-2.36 -1.19,-1.18 -37.85,33.11 -66.24,76.87 -99.35,114.73 -3.55,3.55 2.37,10.64 7.09,5.91z"/>
   <path class="fil0" d="M3622.69 1615.61c-4.72,4.73 -8.28,10.65 -13,15.38 -4.73,4.72 -10.65,8.28 -15.38,13 0,0 0,1.19 1.19,1.19 4.72,-4.73 10.64,-7.1 16.56,-11.83 4.72,-4.73 10.64,-8.28 15.37,-13.01 2.37,-3.56 -2.37,-7.1 -4.73,-4.73z"/>
   <path class="fil0" d="M4081.59 1428.73c-1.19,0 -1.19,2.37 0,2.37 34.3,2.37 69.78,-3.55 104.08,-2.37 35.49,1.19 70.96,8.28 105.26,17.75 28.38,8.28 57.96,13 83.98,27.2 14.19,8.28 33.11,22.47 50.86,18.93 15.38,-2.37 8.28,-26.02 -5.91,-22.47 2.36,0 -4.73,-2.37 -7.1,-2.37 -4.73,-1.18 -9.47,-3.55 -14.19,-5.91 -8.28,-3.55 -15.38,-8.28 -23.66,-11.83 -30.74,-11.84 -63.87,-17.75 -96.98,-23.66 -30.75,-5.91 -61.5,-8.28 -93.43,-8.28 -34.3,-1.17 -68.59,7.1 -102.89,10.65z"/>
   <path class="fil0" d="M4460.07 1516.26c18.92,0 18.92,-28.38 0,-28.38 -18.93,0 -18.93,28.38 0,28.38z"/>
   <path class="fil0" d="M4555.86 1539.91c-10.64,-8.28 -22.47,-16.56 -35.48,-22.47 -10.65,-4.73 -22.47,-16.56 -34.31,-14.19 -9.46,1.19 -16.55,14.19 -5.91,20.1 21.29,9.47 42.58,16.56 61.5,29.57 22.47,15.37 47.31,27.2 66.24,46.12 1.18,1.19 3.55,0 2.36,-2.36 -14.18,-23.66 -31.93,-40.22 -54.4,-56.78z"/>
   <path class="fil0" d="M4444.68 1919.57c-47.31,17.74 -94.62,34.3 -144.29,37.84 -55.59,4.73 -112.36,2.37 -167.95,-2.37 -55.59,-3.55 -111.18,-11.83 -165.58,-26.02 -53.22,-13 -104.08,-35.49 -157.3,-47.31 -1.19,0 -2.37,2.37 -1.19,2.37 53.22,15.38 102.9,40.22 154.94,57.96 55.59,17.74 111.18,30.75 169.13,37.85 107.63,13 225.9,16.55 322.89,-36.66 10.66,-5.92 3.56,-29.57 -10.64,-23.66z"/>
   <path class="fil0" d="M4531.03 1912.47c28.38,-18.92 57.95,-40.21 81.61,-66.23 11.83,-11.84 20.1,-26.03 30.74,-39.03 9.47,-13.01 18.93,-26.02 24.84,-41.4 2.37,-4.72 -5.91,-8.28 -8.28,-3.55 -7.1,13 -18.92,23.66 -29.56,34.3 -11.84,10.65 -21.29,22.47 -34.31,33.12 -24.83,21.29 -53.21,39.03 -79.24,59.14 -13,10.65 -1.18,33.12 14.2,23.65z"/>
   <path class="fil0" d="M4496.73 1903.01c-7.1,-2.37 -16.56,0 -21.29,7.1 -2.37,3.55 -2.37,8.27 -1.19,13 1.19,5.91 5.91,10.65 11.83,11.83 3.56,1.19 5.92,1.19 10.65,0 2.37,-1.18 5.91,-2.37 7.1,-4.72 3.55,-3.56 4.72,-7.1 4.72,-11.84 0,-3.55 -1.18,-5.91 -2.36,-8.27 -1.19,-3.56 -5.92,-5.92 -9.46,-7.1z"/>
   <path class="fil0" d="M4534.57 1767c-13.01,3.55 -24.84,13 -36.66,18.92 -13.01,7.1 -26.03,14.19 -39.03,21.29 -4.73,3.55 -1.19,10.65 4.72,8.28 13.01,-7.1 27.21,-11.83 41.4,-17.75 13,-5.91 27.2,-10.64 35.49,-22.47 3.55,-3.54 -2.37,-9.46 -5.91,-8.27z"/>
   <path class="fil0" d="M4630.37 1705.5c-4.73,0 -8.28,3.55 -13,7.1 -7.1,3.55 -14.19,7.09 -21.29,11.83 -9.47,4.72 -17.75,11.83 -26.03,18.92 -7.09,4.73 -13,8.28 -17.74,16.56 -2.37,3.56 1.19,8.28 5.91,7.1 17.75,-4.73 31.94,-23.66 47.31,-33.12 8.28,-4.72 27.2,-14.19 27.2,-24.83 0.01,-2.38 -1.18,-3.56 -2.36,-3.56z"/>
   <path class="fil0" d="M3856.87 1670.01c4.73,13 8.28,23.66 17.75,33.12 0,0 1.18,0 1.18,-1.19 -5.91,-10.65 -5.91,-23.66 -8.28,-35.49 -2.37,-5.9 -13.01,-2.36 -10.65,3.56z"/>
   <path class="fil0" d="M4380.81 1716.14c-8.27,10.64 -13,24.83 -18.92,36.66 0,1.18 0,1.18 1.18,1.18 10.65,-8.28 22.47,-20.1 26.03,-34.3 -0.01,-4.73 -5.92,-7.1 -8.29,-3.55z"/>
   <path class="fil0" d="M4391.46 1686.57c-4.72,1.19 -7.1,7.1 -4.72,11.84 1.18,1.18 2.36,3.55 4.72,3.55 0,0 0,0 0,0 0,0 0,0 0,0 1.19,0 3.55,0 4.73,0 0,0 1.18,0 1.18,0 0,0 0,0 0,0 2.37,-1.19 3.56,-4.73 3.56,-7.1 0,-5.91 -4.73,-9.46 -9.47,-8.28z"/>
   <path class="fil0" d="M4395.01 1622.7c-1.18,14.19 0,29.57 0,43.77 0,3.55 3.56,3.55 5.92,2.37 5.91,-4.73 7.09,-14.19 8.28,-20.1 1.18,-9.47 2.36,-18.93 -1.19,-27.21 -2.37,-7.1 -11.83,-5.91 -13.01,1.18z"/>
   <path class="fil0" d="M3891.16 1724.41c1.19,-8.27 -10.64,-7.09 -9.46,0 1.18,7.1 4.72,11.84 10.65,15.38 1.18,0 1.18,0 1.18,-1.19 -1.18,-3.55 -2.37,-9.46 -2.37,-14.19z"/>
   <path class="fil0" d="M4717.89 1668.83c-13,-4.73 -26.02,-4.73 -40.21,-5.91 -4.73,-3.56 -8.28,-7.1 -13.01,-9.47 -14.19,-10.64 -28.38,-20.1 -42.58,-29.56 -13,-8.28 -24.84,-16.56 -37.84,-24.84 -37.85,-24.84 -75.7,-48.49 -115.92,-69.78 -78.06,-41.39 -160.85,-73.33 -249.55,-86.34 -86.34,-13 -172.67,-4.72 -254.28,22.47 -80.43,27.21 -153.76,75.7 -216.44,133.65 -33.12,29.57 -65.05,60.31 -99.35,88.7 -33.12,27.21 -68.6,49.68 -101.71,76.88 -20.11,16.56 -36.66,41.39 -10.65,60.31 9.46,7.1 24.84,11.84 36.66,11.84 9.46,0 57.96,-3.56 61.5,-3.56 3.55,0 7.09,0 10.64,-1.18 8.28,-1.19 16.56,-1.19 23.66,-1.19 35.49,-1.19 73.33,-2.37 108.81,2.37 46.12,5.91 88.7,21.29 132.46,35.49 40.22,13 81.61,17.74 123.01,22.47 47.31,4.72 93.43,8.27 140.74,8.27 83.98,0 172.67,-11.83 251.92,-40.21 22.47,-8.28 44.94,-18.92 65.05,-31.93 10.65,-5.92 21.29,-13.01 31.94,-18.93 9.46,-5.91 18.92,-10.65 26.02,-18.93 1.19,-2.36 4.73,-8.27 0,-8.27 -2.37,0 -10.65,7.09 -13,8.27 -11.84,7.1 -23.66,14.2 -35.49,20.11 -23.66,13 -47.31,24.83 -73.33,34.3 -81.61,29.57 -172.67,40.21 -259.02,40.21 -88.71,0 -180.95,-8.28 -266.12,-34.3 -82.79,-24.84 -169.12,-39.03 -255.46,-27.2 0,-1.19 -57.96,9.46 -83.98,2.36 -10.64,-2.36 -17.74,-5.91 -26.02,-11.83 -16.56,-13 1.18,-35.49 11.83,-43.77 36.66,-26.02 74.52,-50.86 108.81,-79.24 74.51,-60.31 143.11,-125.36 227.09,-170.31 11.83,-5.91 24.83,-11.84 36.66,-17.75 -54.41,27.21 -101.72,66.24 -146.66,106.45 -3.56,2.37 -7.1,4.73 -9.47,7.1 -21.29,17.75 -40.21,37.85 -61.5,55.59 -3.55,3.55 -8.28,5.91 -11.83,9.46 -2.37,1.19 -3.55,3.56 -5.91,4.73 -11.83,8.28 -23.66,16.55 -34.3,24.83 0,0 -1.19,1.19 -1.19,1.19 -17.74,11.83 -37.84,22.47 -56.77,31.93 -16.56,8.28 -35.49,17.75 -46.12,34.31 -22.47,31.93 28.38,42.58 48.49,42.58 49.68,0 94.62,-20.1 145.48,-15.38 0,0 2.36,0 4.72,0 41.4,7.1 83.98,13.01 125.37,21.29 88.7,16.56 176.22,35.49 266.11,39.03 87.52,3.55 173.86,-14.19 256.65,-41.4 57.96,-18.92 112.36,-48.49 159.67,-87.52 20.1,-14.19 40.21,-28.38 59.14,-43.77 13,3.56 27.21,4.73 40.21,5.92 20.11,1.18 41.4,2.36 60.32,-4.73 17.73,-2.37 17.73,-20.11 4.72,-24.84zm-158.48 34.3c-17.75,14.19 -36.66,27.21 -54.41,40.21 -14.19,10.65 -29.56,21.29 -44.93,29.57 -39.03,17.75 -80.43,30.75 -121.83,40.21 -1.18,0 -1.18,0 -2.36,0 7.09,-9.46 11.83,-21.28 14.19,-33.11 0,-2.37 -2.37,-3.55 -3.56,-1.19 -8.28,15.38 -20.1,27.21 -31.93,40.22 -15.38,3.55 -30.75,7.09 -46.13,9.46 10.65,-7.1 21.29,-14.19 30.75,-23.65 16.56,-15.38 29.57,-34.31 39.03,-55.59 9.46,-11.83 16.56,-26.02 23.65,-40.21 3.56,-7.1 7.1,-15.38 10.65,-22.47 9.47,-23.66 11.83,-49.68 13.01,-74.52 0,-11.83 2.36,-23.65 2.36,-36.66 0,-2.37 0,-4.72 -1.18,-5.91 0,1.19 1.18,2.37 1.18,2.37 3.56,8.28 5.91,18.92 11.84,27.2 1.18,1.19 2.36,0 2.36,0 3.56,-5.91 4.73,-13 4.73,-21.28 2.37,2.36 5.91,3.55 8.28,5.91 1.18,7.09 3.55,14.19 4.72,20.1 2.37,13 2.37,26.02 2.37,40.21 0,1.19 2.37,1.19 2.37,0 4.72,-13 9.46,-30.75 9.46,-47.3 3.56,2.36 8.28,5.91 11.84,8.27 0,2.37 0,4.73 0,7.1 0,7.1 0,14.19 -1.19,21.29 -1.19,4.72 4.73,7.1 7.1,3.55 2.36,-5.91 4.72,-13 5.91,-20.1 0,-1.18 0,-1.18 0,-2.37 10.65,7.1 20.1,14.19 30.75,20.11 29.56,18.92 62.68,34.3 95.8,47.3 -5.91,9.46 -18.92,17.74 -24.83,21.28zm-558.25 95.8c-1.18,-1.19 -3.55,-2.37 -4.72,-3.55 1.18,-1.19 2.37,-2.37 3.55,-4.73 8.28,5.91 17.75,11.83 27.21,17.75 0,1.18 -1.19,1.18 -1.19,2.36 -8.28,-2.36 -16.56,-7.09 -24.84,-11.83zm-66.23 -75.7c1.19,-1.18 2.37,-1.18 3.55,-2.36 4.73,9.46 9.47,17.74 15.38,24.83 -1.18,1.19 -3.55,3.56 -4.72,4.73 -5.92,-8.28 -10.66,-17.75 -14.2,-27.21zm9.46 -31.93c-1.18,-2.37 -1.18,-4.73 -2.37,-7.1 2.37,0 4.73,0 5.92,0 2.36,5.91 4.72,10.65 7.09,15.38 -2.36,1.18 -4.72,2.36 -7.09,3.55 -1.19,-3.55 -2.37,-7.1 -3.56,-11.83zm347.73 -76.88c-1.19,0 -2.37,0 -3.56,0 0,-4.72 -1.18,-9.46 -1.18,-13 0,-1.19 0,-2.37 -1.19,-3.55 1.19,0 3.56,-1.19 4.73,-1.19 0,5.91 1.19,11.83 1.19,17.74zm-29.57 -2.36c0,-2.37 -1.18,-5.91 -1.18,-8.28 1.18,0 3.55,-1.19 4.72,-1.19 1.19,0 2.37,0 2.37,-1.18 1.18,3.55 1.18,7.09 2.37,10.64 -2.37,0.01 -4.72,0.01 -8.28,0.01zm-182.14 141.92c-1.18,-1.18 -3.55,-1.18 -4.72,-2.37 0,0 0,0 0,0 2.37,1.19 4.72,2.37 8.28,2.37 0,0 0,1.19 0,1.19 -1.18,-0.01 -2.37,-0.01 -3.56,-1.19zm-57.95 -39.03c4.73,4.73 9.47,9.47 14.19,14.19 -1.18,1.19 -1.18,2.37 -2.37,3.56 -7.09,-3.56 -13,-7.1 -17.74,-11.83 1.18,-3.56 3.55,-4.73 5.91,-5.92zm-53.22 -53.22c-3.55,-11.83 -4.72,-24.84 -5.91,-37.84 2.37,0 4.73,1.18 5.91,1.18 3.56,10.65 7.1,22.47 9.47,33.12 -2.37,1.18 -5.91,1.18 -8.28,2.37 1.18,1.18 -0.01,1.18 -1.19,1.18zm16.56 -54.4c1.19,-3.56 1.19,-8.28 2.37,-11.84 1.18,0 3.55,1.19 4.72,1.19 -1.18,3.55 -1.18,7.1 -2.36,10.65 -1.19,0 -2.37,0 -4.73,0zm85.15 93.43c0,0 -1.18,0 -1.18,0 -1.19,0 -2.37,0 -2.37,-1.18 0,0 -1.19,0 -1.19,-1.19 -1.18,0 -1.18,-1.18 -2.36,-1.18 0,0 -1.19,-1.19 -1.19,-1.19 -3.55,-2.37 -5.91,-4.73 -7.1,-8.28 -1.18,-1.19 -1.18,-2.37 -1.18,-3.55 0,0 0,-1.19 0,-1.19 0,-2.37 -1.19,-3.55 -1.19,-5.91 0,-1.19 0,-3.55 0,-4.73 0,0 0,-1.18 0,-1.18 0,0 0,-1.19 0,-1.19 0,-1.18 0,-1.18 1.19,-2.37 0,0 0,0 0,-1.18 1.18,-1.19 1.18,-3.56 2.36,-4.73 0,0 0,0 0,-1.18 0,0 0,0 0,-1.19 1.19,-1.19 2.37,-2.37 3.56,-3.55 0,0 0,0 1.18,0 1.19,-1.19 3.56,-2.37 5.92,-2.37 0,0 0,0 0,0 0,0 1.18,0 1.18,0 2.37,0 3.56,-1.19 5.91,-1.19 0,0 1.19,0 1.19,0 13,0 24.84,10.65 24.84,24.84 0,1.19 0,2.37 0,3.55 0,1.19 0,1.19 0,2.37 0,1.19 0,1.19 0,2.37 0,1.18 0,1.18 -1.19,2.37 0,0 0,1.18 -1.19,1.18 -1.18,1.19 -2.36,3.56 -2.36,4.73 0,0 0,1.18 -1.19,1.18 -1.19,1.19 -2.37,2.37 -4.73,3.56 0,0 -1.18,0 -1.18,1.18 -1.19,1.19 -2.37,1.19 -3.56,2.37 -1.18,0 -1.18,0 -2.36,1.19 0,0 0,0 0,0 -2.37,0 -3.56,1.18 -5.91,1.18 -2.37,-2.36 -4.72,-3.54 -5.91,-3.54zm-105.26 -101.71c0,2.37 0,4.72 1.19,8.28 0,0 -1.19,0 -1.19,0 -1.19,-3.55 -1.19,-5.91 0,-8.28zm80.42 95.8c2.37,2.37 5.91,4.73 8.28,7.1 -3.55,3.55 -5.91,8.28 -9.46,13 -3.56,-3.55 -7.1,-7.09 -10.65,-10.64 4.73,-3.56 8.28,-5.92 11.83,-9.47zm24.84 23.65c-1.18,3.56 -2.36,7.1 -3.55,10.65 -1.19,-1.19 -2.37,-1.19 -3.55,-2.37 1.18,-3.55 3.55,-5.91 7.09,-8.28zm14.19 14.19c1.19,-3.55 3.56,-7.09 4.73,-11.83 0,0 1.19,0 1.19,0 -1.19,3.55 -2.37,7.1 -2.37,10.65 -1.19,0 -2.37,1.18 -3.56,1.18zm23.65 -5.91c2.37,0 4.73,1.19 5.92,1.19 3.55,1.18 5.91,1.18 9.46,1.18 -5.91,0 -11.83,1.19 -16.56,1.19 0,-1.19 0,-2.37 1.18,-3.56zm-121.82 -99.35c1.19,0 2.37,0 3.56,0 0,9.46 1.18,18.92 2.36,28.38 -2.36,0 -3.55,1.19 -5.91,1.19 1.19,-9.47 0,-20.11 0,-29.57zm20.1 4.73c2.37,5.91 4.73,10.65 7.1,15.38 0,0 0,1.18 1.19,1.18 -2.37,0 -3.56,1.19 -5.91,1.19 -1.19,-5.92 -2.38,-11.84 -2.38,-17.75zm16.56 49.67c-1.18,1.19 -1.18,1.19 -2.37,2.37 0,0 0,-1.19 0,-1.19 1.19,0.01 2.37,-1.18 2.37,-1.18zm27.21 56.77c2.37,1.19 4.73,3.56 7.1,4.73 -2.37,-1.18 -4.73,-2.37 -7.1,-4.73 0,1.19 0,0 0,0zm53.22 2.37c26.02,-1.18 54.4,-8.28 74.52,-23.65 1.18,-1.19 0,-1.19 0,-2.37 7.09,-4.73 13,-9.47 18.92,-14.19 -3.55,3.55 -7.1,7.1 -10.65,10.65 0,0 0,0 0,0 17.75,-10.65 31.94,-18.93 42.59,-36.66 5.91,-11.84 9.46,-26.03 10.64,-40.22 -2.37,1.19 -3.55,2.37 -5.91,3.56 -1.19,1.18 -3.55,1.18 -4.72,2.36 -1.19,1.19 -2.37,1.19 -4.73,1.19 -2.37,1.19 -4.73,1.19 -5.91,2.37 -1.19,0 -3.56,1.18 -4.73,1.18 -1.18,0 -3.55,0 -4.72,0 -2.37,0 -3.56,0 -5.91,0 -1.19,0 -2.37,0 -3.56,0 -5.91,-1.18 -11.83,-2.36 -16.56,-4.72 -7.09,-1.19 -13,-4.73 -17.74,-10.65 0,0 0,0 0,-1.18 -3.55,-2.37 -7.1,-5.92 -9.46,-9.47 -5.92,-7.1 -11.84,-16.56 -10.65,-26.02 0,-5.91 3.55,-8.28 7.1,-9.47 0,-8.28 2.36,-15.37 5.91,-23.65 0,-1.19 1.18,-1.19 1.18,-2.37 1.19,-2.37 3.56,-5.91 4.73,-8.28 1.19,-1.19 1.19,-1.19 2.37,-2.37 2.36,-2.37 4.72,-4.72 7.09,-5.91 1.19,-1.19 1.19,-2.37 2.37,-2.37 2.37,-1.18 4.73,-3.55 7.1,-4.72 0,0 1.19,0 1.19,0 2.36,-1.19 3.55,-1.19 5.91,-2.37 2.36,0 3.55,-1.19 5.91,-1.19 2.37,0 4.72,0 7.1,0 1.18,0 2.36,0 3.55,0 2.37,0 4.72,1.19 5.91,1.19 1.19,0 2.37,0 3.55,1.19 0,0 1.19,0 1.19,0 2.37,1.18 4.73,2.36 8.28,3.55 1.19,0 2.37,1.19 2.37,1.19 2.36,1.18 5.91,3.55 8.28,4.72 4.72,3.56 9.46,7.1 13,11.83 1.19,1.19 2.37,3.56 3.55,4.73 0,0 1.19,1.19 1.19,1.19 1.19,2.36 2.37,4.72 3.55,7.09 1.19,2.37 1.19,3.56 2.37,5.91 1.19,2.37 2.37,4.73 3.56,7.1 -1.19,0 -1.19,0 -2.37,0 1.18,4.73 0,9.47 -1.19,14.19 0,0 0,0 0,1.19 0,5.91 -1.18,10.64 -2.37,15.37 -1.18,2.37 -2.36,4.73 -3.55,7.1 -1.19,1.19 -1.19,2.37 -2.37,3.56 -1.18,2.36 -2.36,3.55 -4.72,5.91 0,0 1.18,0 1.18,0 -1.18,27.2 -11.83,54.4 -31.93,74.51 -28.38,27.21 -69.78,47.31 -109.99,39.03 -2.39,1.17 -2.39,-0.02 -2.39,-0.02zm177.41 -164.4c0,-4.73 1.19,-9.47 1.19,-14.19 1.18,4.72 3.55,8.28 4.72,13 -2.37,0.01 -4.73,0.01 -5.91,1.19zm-363.1 21.29c0,1.18 0,1.18 0,2.36 0,0 0,0 0,0 0,0 0,-1.18 0,-2.36zm75.7 76.87c1.19,0 2.37,-1.19 3.55,-1.19 0,1.19 1.19,2.37 1.19,3.56 -1.19,0 -2.37,1.18 -3.55,1.18 -2.37,1.19 -3.56,2.37 -5.92,3.56 -1.18,-1.19 -2.36,-3.56 -3.55,-4.73 3.55,-1.19 5.91,-2.37 8.28,-2.37zm4.73 18.93c2.36,-1.19 4.72,-2.37 7.09,-3.56 1.19,2.37 2.37,3.56 3.56,5.91 -2.37,2.37 -4.73,3.56 -7.1,5.91 -2.37,-2.36 -3.55,-4.72 -3.55,-8.27 -1.19,0 -1.19,0 0,0zm28.38 47.3c-1.19,1.19 -1.19,1.19 -1.19,2.37 0,0 0,0 -1.19,1.19 -5.91,-4.73 -10.64,-9.47 -15.37,-14.19 4.73,4.72 10.65,8.27 17.75,10.64zm14.19 7.1c4.72,2.37 9.46,4.73 14.19,7.1 -1.19,2.36 -2.37,4.72 -3.56,7.09 -4.72,-2.36 -10.64,-5.91 -15.37,-9.46 2.37,-1.19 3.56,-2.37 4.73,-4.73zm29.56 13c2.37,1.19 3.56,1.19 5.91,2.37 2.37,1.19 3.56,1.19 4.73,2.37 0,2.37 -1.19,4.72 -1.19,8.28 -4.72,-1.19 -9.46,-2.37 -14.19,-4.73 2.38,-2.36 3.56,-4.72 4.73,-8.28zm23.65 16.56c1.19,-2.37 1.19,-4.72 2.37,-8.28 10.65,1.19 21.29,1.19 33.12,2.37 2.37,0 2.37,-2.37 0,-3.55 -10.65,-3.56 -20.1,-5.91 -30.75,-8.28 0,0 0,-1.19 0,-1.19 46.12,9.47 94.62,-14.19 127.73,-44.94 23.66,-22.47 35.49,-54.4 36.66,-85.15 3.56,0 7.1,0 10.65,0 0,1.19 0,2.37 0,4.73 0,8.28 -3.55,17.74 -2.37,26.02 0,1.19 1.19,1.19 2.37,1.19 10.65,-3.56 14.19,-18.93 15.38,-33.12 1.18,0 2.36,0 3.55,-1.19 -2.37,36.66 -16.56,72.15 -43.77,98.17 -41.39,36.66 -99.35,63.87 -154.94,53.22 0,0 0,0 0,0zm-179.77 -130.1c0,-5.91 -1.19,-13 -1.19,-18.92 0,-3.56 1.19,-8.28 1.19,-11.84 0,0 1.19,0 1.19,0 -1.19,18.93 1.18,36.66 4.72,55.59 0,0 -1.19,0 -1.19,0 0,-9.46 -2.36,-17.74 -4.72,-24.84zm18.92 -27.2c0,1.18 0,1.18 0,2.36 2.37,14.19 4.73,29.57 8.28,43.77 -1.18,0 -3.55,0 -4.72,1.19 -2.37,-15.38 -3.56,-30.76 -3.56,-47.31zm31.94 73.33c0,-1.19 -1.19,-2.37 -1.19,-4.73 0,2.37 1.19,3.55 1.19,4.73 0,1.18 0,1.18 0,0 0,1.18 0,1.18 0,0zm9.46 -14.19c0,0 0,0 0,0 1.19,2.36 2.37,4.72 4.73,8.27 0,0 0,0 -1.19,0 -1.18,-2.36 -2.36,-5.91 -3.55,-8.27zm10.65 20.1c2.37,3.55 4.73,7.09 7.1,10.64 0,0 0,0 -1.19,0 -2.37,-2.36 -4.73,-7.09 -5.91,-10.64 0,0 0,0 0,0zm8.28 37.84c0,0 0,0 0,0 7.1,5.91 14.19,11.84 21.29,17.75 -1.19,1.18 -1.19,2.36 -2.37,2.36 -5.91,-3.55 -11.83,-8.27 -16.56,-14.19 -1.18,-2.36 -3.55,-3.55 -4.72,-5.91 -0.01,1.18 1.17,0 2.36,0zm33.12 26.02c5.91,3.56 13,8.28 18.92,10.65 0,1.18 -1.18,2.37 -1.18,2.37 -4.73,-2.37 -9.47,-4.73 -14.19,-8.28 -2.37,-1.19 -3.56,-2.37 -5.92,-3.56 0.01,0.01 1.19,0.01 2.38,-1.18zm31.93 17.75c5.91,2.36 11.83,4.72 18.93,5.91 0,1.18 -1.19,3.55 -1.19,4.72 -7.1,-2.37 -13,-4.72 -18.93,-8.28 0,0 1.19,-1.18 1.19,-2.36zm14.19 26.02c0,1.19 -1.18,2.37 -1.18,3.55 -8.28,-2.36 -17.75,-5.91 -24.84,-9.46 0,-1.19 1.18,-1.19 1.18,-2.37 8.28,3.55 16.56,5.91 24.84,8.28zm11.83 1.19c8.28,1.18 17.75,0 26.03,-1.19 1.18,0 1.18,-2.37 0,-2.37 -8.28,-2.37 -15.38,-4.72 -22.47,-7.1 0,-2.36 1.18,-4.72 1.18,-5.91 60.32,13.01 124.19,-16.56 166.76,-57.96 29.57,-27.2 44.94,-65.05 47.31,-104.07 -1.19,28.38 -7.1,63.87 -20.1,87.52 0,1.18 1.19,1.18 1.19,1.18 21.28,-23.65 31.93,-53.21 35.48,-85.15 -2.36,43.77 -20.1,87.52 -52.04,118.27 -47.31,44.94 -118.27,78.06 -185.69,62.68 1.18,-2.37 2.36,-3.55 2.36,-5.9zm-158.48 -107.64c-1.18,-4.72 -2.37,-9.46 -3.55,-14.19 1.18,0 1.18,0 2.37,0 1.18,3.56 2.36,7.1 3.55,11.84 1.19,4.72 3.55,10.64 5.91,15.37 -1.19,1.19 -2.37,1.19 -3.55,2.37 -2.37,-7.1 -3.56,-10.65 -4.73,-15.38zm27.21 14.19c3.55,-1.18 5.91,-2.36 9.46,-4.72 1.19,2.37 3.56,4.72 4.73,5.91 1.18,1.19 2.36,0 1.18,-1.19 -1.18,-2.36 -2.36,-4.72 -2.36,-7.09 1.18,-1.19 3.55,-1.19 4.72,-2.37 3.55,4.72 5.91,10.65 9.47,15.38 -2.37,2.36 -3.56,3.55 -5.92,5.91 -1.18,0 -1.18,-1.19 -2.36,-1.19 -5.91,-2.37 -9.47,4.73 -7.1,9.47 0,0 0,0 0,0 -3.55,-5.92 -8.28,-13.01 -11.83,-20.11zm24.83 34.3c7.1,7.1 15.38,14.19 23.66,21.29 0,1.19 -1.19,1.19 -1.19,2.37 -8.28,-7.1 -15.37,-14.19 -22.47,-22.47 0,-1.19 0,-1.19 0,-1.19zm34.31 28.38c7.09,4.73 15.37,10.65 22.47,14.19 0,1.19 -1.19,1.19 -1.19,2.37 -8.28,-4.73 -16.56,-9.46 -23.66,-15.38 1.19,0.01 1.19,0.01 2.38,-1.18zm24.83 37.85c9.47,4.72 20.1,8.28 29.57,11.83 0,0 0,0 0,0 -9.47,-3.55 -20.1,-7.1 -29.57,-11.83 0,0 0,0 0,0zm39.03 13.01c1.19,0 2.37,1.18 3.56,1.18 -1.19,0 -2.37,-1.18 -3.56,-1.18 0,0 0,0 0,0zm39.03 7.09c-7.1,-1.19 -14.19,-1.19 -21.29,-2.37 -2.36,0 -4.72,-1.18 -7.09,-1.18 69.77,11.83 143.11,-22.47 192.78,-69.78 11.83,-10.65 21.29,-23.66 29.57,-37.85 -7.1,18.93 -16.56,36.66 -29.57,53.22 -39.02,49.68 -102.89,56.77 -164.4,57.96zm-157.3 -69.78c0,-1.18 0,-1.18 0,0 0,-1.18 0,-1.18 0,0 2.37,-2.36 3.56,-3.55 5.91,-4.72 8.28,9.46 16.56,17.74 26.03,24.84 -1.19,2.36 -2.37,3.55 -3.56,5.91 -7.09,-4.73 -13,-9.47 -20.1,-15.38 -2.37,-3.55 -5.91,-7.1 -8.28,-10.65zm589.01 -166.76c23.65,15.37 47.3,31.93 69.77,47.3 -15.38,-5.91 -31.93,-13 -46.12,-22.46 -41.4,-24.84 -80.43,-53.22 -124.19,-75.7 -18.93,-9.47 -39.03,-18.93 -60.32,-26.02 -13,-8.28 -26.02,-15.38 -40.21,-22.47 -9.47,-4.73 -18.93,-9.47 -28.38,-14.19 29.56,9.46 59.14,21.28 88.7,34.3 48.5,23.65 94.62,50.86 140.75,79.24zm-855.11 202.25c-5.91,0 -10.65,1.18 -16.56,1.18 0,-1.18 -1.19,-2.36 -2.37,-2.36 -9.46,-2.37 -18.92,-3.56 -27.2,-5.92 -2.37,-1.18 -3.56,2.37 -1.19,3.56 5.91,3.55 13.01,5.91 20.1,8.28 -11.83,2.37 -23.65,5.91 -34.3,7.09 -17.74,2.37 -40.21,3.56 -59.14,-3.55 -1.18,-1.18 -3.55,-1.18 -4.72,-2.37 -1.19,-1.18 -2.37,-3.55 -3.56,-4.72 -2.36,-5.91 -4.72,-13.01 0,-17.75 3.56,-3.55 9.47,-5.91 14.19,-8.27 8.28,-3.56 16.56,-7.1 24.84,-10.65 1.19,0 1.19,-1.19 2.37,-1.19 1.18,8.28 4.72,15.38 11.83,20.1 1.19,1.19 2.37,0 1.19,-1.18 -4.73,-7.1 -4.73,-14.19 -4.73,-22.47 1.19,-1.19 3.56,-1.19 4.73,-2.37 2.36,11.83 9.46,23.66 17.74,29.57 2.37,2.37 7.1,0 4.73,-3.56 -3.56,-5.91 -5.91,-11.83 -7.1,-18.92 -1.19,-4.73 0,-8.28 0,-11.83 1.19,0 2.37,-1.19 4.72,-2.37 0,1.18 0,2.37 1.19,4.72 1.19,3.56 4.73,14.19 5.91,16.56 16.56,20.1 40.22,27.21 66.24,30.75 -7.1,-2.37 -13.01,-2.37 -18.93,-2.37zm75.7 -3.56c-21.29,-2.36 -43.77,-7.09 -65.06,-10.64 -10.64,-2.37 -20.1,-3.56 -29.56,-7.1 -2.37,-1.19 -7.1,-2.37 -10.65,-4.73 -4.72,-10.64 -7.1,-20.1 -5.91,-30.74 42.58,-13.01 82.79,-39.03 119.45,-62.69 10.65,-7.09 21.29,-14.19 31.94,-21.28 0,0 0,0 0,0 0,0 0,0 1.19,0 2.36,16.55 10.64,28.38 22.46,41.39 1.19,2.37 4.73,0 3.56,-2.37 -3.56,-14.19 -7.1,-27.2 -8.28,-41.39 0,-3.56 0,-7.1 0,-10.65 2.37,-2.37 5.91,-3.55 8.28,-5.91 2.37,10.65 4.72,21.29 9.46,31.93 0,1.19 2.37,1.19 2.37,0 -1.19,-11.83 -2.37,-24.83 -2.37,-37.84 3.56,-2.37 8.28,-5.91 11.84,-8.28 -1.19,4.72 -1.19,10.65 -1.19,15.38 0,5.91 8.28,5.91 8.28,0 0,-8.28 2.37,-15.38 2.37,-22.47 4.72,-2.37 8.28,-5.92 13,-8.28 -1.19,7.09 -1.19,14.19 -1.19,21.29 -1.18,22.46 4.73,53.21 17.75,75.69 3.55,9.47 7.1,18.93 11.83,27.21 1.19,2.36 2.37,4.72 4.73,5.91 8.28,17.74 18.92,33.11 31.93,48.49 14.19,17.75 33.12,35.49 55.59,48.49 -36.66,-5.91 -73.33,-13 -108.81,-20.1 -41.39,-8.28 -82.79,-15.37 -123,-21.29z"/>
   <path class="fil0" d="M4548.76 1819.03c-29.57,17.75 -55.59,36.66 -86.34,50.86 -16.56,8.28 -35.49,14.19 -52.05,20.1 -15.37,5.92 -33.11,5.92 -48.49,13.01 -1.19,0 0,2.37 1.19,1.18 16.55,-4.72 34.3,-2.36 50.86,-5.91 18.92,-4.72 37.84,-8.28 55.58,-15.37 33.12,-10.65 65.05,-29.57 89.89,-52.05 5.92,-5.91 -2.36,-16.55 -10.64,-11.83z"/>
   <path class="fil0" d="M4579.52 1808.4c-3.55,3.55 1.19,8.27 4.73,4.72 5.91,-5.91 13,-11.83 20.1,-16.56 3.55,-3.55 -1.19,-8.28 -5.91,-5.91 -5.92,5.91 -13.01,11.83 -18.93,17.75z"/>
   <path class="fil0" d="M4706.07 1720.87c3.55,-4.72 1.18,-10.65 -4.73,-10.65 -18.92,-1.18 -37.84,17.75 -52.04,28.38 -11.84,9.47 -29.57,20.11 -33.12,35.49 0,2.37 2.37,3.56 3.55,2.37 10.65,-11.83 26.03,-17.74 39.03,-26.02 7.1,-4.73 14.19,-9.47 22.47,-14.19 9.46,-4.73 18.93,-7.1 24.84,-15.38z"/>
   <path class="fil0" d="M3983.42 1452.39c18.93,-8.28 40.22,-10.65 60.32,-14.19 3.55,0 2.37,-7.1 -1.19,-5.91 -21.29,2.37 -41.39,7.09 -60.31,17.74 -1.19,1.18 0,2.37 1.18,2.37z"/>
   <path class="fil0" d="M4109.97 1407.45c-27.2,-1.19 -56.77,-1.19 -81.61,13 -2.37,1.19 -1.18,5.92 2.37,4.73 24.84,-9.47 53.22,-8.28 79.24,-10.65 4.73,0 4.73,-7.09 0,-7.09z"/>
   <path class="fil0" d="M4597.25 1538.73c-1.19,-1.19 -2.37,1.18 -2.37,2.37 9.47,17.74 22.47,33.11 35.49,48.49 13,15.37 28.38,29.56 37.85,47.3 9.46,18.93 39.02,-1.18 24.83,-18.92 -11.83,-14.19 -28.38,-26.02 -42.58,-39.03 -17.74,-14.19 -34.3,-28.38 -53.22,-40.21z"/>
   <path class="fil0" d="M4254.26 1696.03c8.28,-1.18 14.19,-9.46 16.56,-16.55 1.19,-4.73 -3.55,-7.1 -7.1,-3.56 -2.36,2.37 -4.72,4.73 -7.09,8.28 -1.19,1.19 -2.37,3.55 -2.37,4.73 -1.19,1.18 -1.19,2.36 -2.37,3.55 -1.18,1.19 0,3.55 2.37,3.55z"/>
   <path class="fil0" d="M4219.96 1735.06c2.37,-1.19 5.91,-2.37 8.28,-3.55 3.55,-2.37 5.91,-5.91 9.46,-8.28 3.56,-3.56 5.92,-5.91 9.47,-9.47 2.37,-2.36 5.91,-4.72 7.1,-8.28 0,-2.36 -1.19,-4.72 -2.37,-4.72 -8.28,-1.19 -14.19,7.1 -18.93,11.83 -2.36,3.56 -4.72,7.1 -7.09,10.65 -2.38,3.55 -3.56,7.1 -5.92,11.83 0,-1.18 0,0 0,0z"/>
   <path class="fil0" d="M4240.07 1765.81c14.19,-9.46 29.57,-18.92 39.03,-33.11 2.37,-2.37 -2.37,-5.91 -4.73,-3.56 -11.83,11.84 -23.65,22.47 -36.66,33.12 -1.18,2.37 1.19,4.73 2.37,3.55z"/>
   <path class="fil0" d="M4134.81 1809.58c33.11,-1.19 56.77,-15.38 83.97,-33.12 1.19,0 0,-2.37 0,-1.19 -14.19,5.92 -27.2,10.65 -41.39,15.38 -14.19,4.73 -29.57,3.55 -43.77,10.65 -4.72,2.37 -3.55,9.46 1.19,8.28z"/>
   <path class="fil0" d="M4150.18 1767c15.38,-4.73 29.57,-11.84 42.59,-22.47 1.18,0 0,-1.19 -1.19,-1.19 -13,8.28 -28.38,13 -43.77,17.74 -3.55,1.19 -1.18,7.1 2.37,5.92z"/>
   <path class="fil0" d="M3888.81 1897.1c3.55,1.18 4.72,-3.56 1.18,-4.73 -24.83,-8.28 -47.3,-21.29 -72.15,-30.75 -22.47,-8.28 -44.93,-9.46 -67.41,-4.72 -4.73,1.18 -4.73,9.46 0,9.46 23.65,4.73 46.12,3.56 68.59,11.84 22.47,9.46 46.12,13 69.78,18.92z"/>
   <path class="fil0" d="M3595.48 1620.34c15.38,-10.65 29.57,-23.66 40.22,-39.03 15.37,-20.1 33.11,-35.49 48.49,-55.59 3.55,-4.72 -2.37,-10.64 -5.91,-5.91 -14.19,14.19 -29.57,27.21 -41.4,42.58 -14.19,18.93 -26.02,39.03 -42.58,55.59 -1.18,2.37 0,3.55 1.18,2.37z"/>
   <path class="fil0" d="M3623.87 1558.84c13.01,-10.65 23.66,-23.66 35.49,-34.3 14.19,-14.19 28.38,-27.21 43.77,-40.22 4.72,-3.55 -2.37,-9.46 -5.91,-5.91 -14.19,11.84 -27.21,23.66 -40.22,36.66 -13,13.01 -22.46,29.57 -35.48,42.58 -1.19,0 1.18,2.37 2.36,1.19z"/>
   <path class="fil0" d="M4572.42 1904.19c-20.1,18.93 -42.58,37.85 -66.23,52.05 -23.66,15.38 -49.68,26.02 -73.33,41.4 -1.19,1.18 0,2.36 1.18,2.36 27.21,-9.46 54.41,-15.37 80.43,-29.56 26.02,-14.19 50.86,-31.94 72.15,-53.22 8.27,-8.28 -4.73,-21.28 -14.2,-13.01z"/>
   <path class="fil0" d="M4685.96 1789.46c-16.56,15.38 -24.84,37.85 -39.03,55.59 -13.01,15.38 -35.49,27.21 -42.58,46.13 -2.37,5.91 4.72,11.83 9.46,9.46 17.75,-7.1 30.75,-28.38 41.4,-42.58 14.19,-20.1 22.47,-44.94 33.11,-67.42 0,-1.19 -1.18,-2.37 -2.36,-1.19z"/>
   <path class="fil0" d="M4600.8 1761.08c-7.09,3.56 -14.19,8.28 -21.28,13.01 -5.92,4.72 -14.2,9.46 -17.75,15.37 -2.37,3.56 1.19,8.28 4.73,8.28 8.28,1.19 14.19,-7.09 17.74,-13 4.73,-8.28 10.65,-15.38 16.56,-22.47 2.37,-1.19 1.19,-2.37 0,-1.19z"/>
   <path class="fil0" d="M4649.3 1714.95c-13.01,4.73 -22.47,16.56 -30.75,28.38 -1.19,1.19 1.18,2.37 2.36,2.37 10.65,-7.1 24.84,-11.83 34.31,-21.29 2.36,-4.72 -1.19,-10.64 -5.91,-9.46z"/>
   <polygon class="fil0" points="4339.42,1914.84 4339.42,1914.84 "/>
   <path class="fil0" d="M4339.42 1914.84c0,0 -1.18,0 -2.36,0 1.18,0 2.36,0 2.36,0 0,0 0,0 0,0 0,0 0,0 0,0 3.56,-1.19 4.73,-3.55 3.56,-7.1 0,-1.18 -1.19,-2.36 -2.37,-3.55 -2.37,-1.19 -4.72,-2.37 -7.1,-1.19 -2.36,1.19 -4.72,2.37 -4.72,4.73 -1.19,2.37 0,4.72 2.37,7.1 2.36,1.19 5.91,1.19 8.27,0z"/>
   <path class="fil0" d="M3797.73 1422.82c-28.38,21.29 -54.4,44.94 -79.24,69.78 0,0 0,0 0,0 72.15,-46.13 143.11,-95.8 223.53,-127.74 78.06,-30.74 160.85,-36.65 243.65,-34.3 42.58,1.19 86.34,2.37 128.92,10.65 43.76,9.46 80.42,20.1 121.82,36.66 53.22,21.29 88.71,50.86 107.63,67.42 28.38,24.83 53.22,52.04 75.7,81.61 3.55,4.72 8.28,10.64 11.83,16.55 1.19,2.37 3.56,4.73 4.73,7.1 1.18,2.37 2.36,4.73 3.55,5.91 2.37,2.37 4.73,5.91 7.1,8.28 2.37,1.19 3.55,2.37 5.91,3.56 2.37,1.18 4.72,2.36 7.1,3.55 7.09,2.37 14.19,-1.19 17.74,-7.1 1.19,-2.37 2.37,-4.72 2.37,-7.1 1.18,-5.91 -1.19,-11.83 -4.73,-15.37 -46.12,-59.14 -99.35,-121.82 -164.4,-160.85 -36.66,-21.29 -72.15,-35.49 -112.36,-49.68 -41.39,-14.19 -85.15,-21.29 -128.92,-27.2 -40.21,-4.73 -82.79,-3.56 -123,-3.56 -41.4,1.19 -81.61,4.73 -121.83,14.19 -82.8,17.75 -159.67,59.15 -227.09,107.64z"/>
   <path class="fil0" d="M4280.29 1415.73c23.65,7.1 48.49,9.46 72.14,14.19 28.38,5.91 54.41,15.38 80.43,28.38 44.94,23.66 92.26,44.94 133.65,74.52 2.36,1.18 4.72,-1.19 2.36,-3.56 -35.49,-37.84 -82.79,-61.49 -128.92,-85.15 -49.68,-26.02 -104.07,-37.85 -159.66,-39.03 -4.73,1.18 -5.92,9.46 0,10.65z"/>
   <path class="fil0" d="M4255.45 1405.08c4.72,0 4.72,-7.09 0,-7.09 -10.65,0 -21.29,0 -31.94,2.36 -2.36,0 -2.36,4.73 1.19,4.73 9.46,-1.18 20.1,0 30.75,0z"/>
   <path class="fil0" d="M4571.24 1484.32c-10.65,-8.28 -22.47,-16.55 -34.31,-24.83 -24.83,-16.56 -50.86,-31.94 -76.87,-44.94 -50.86,-24.84 -104.08,-37.85 -160.85,-34.3 -1.18,0 -1.18,2.36 0,2.36 55.59,4.73 108.81,22.47 157.3,48.5 23.66,13 44.94,27.2 66.24,42.58 11.83,8.28 23.65,17.74 35.49,27.2 8.28,7.1 16.55,15.38 28.38,16.56 4.72,0 8.28,-4.73 7.09,-9.47 -2.37,-10.64 -13.01,-16.55 -22.47,-23.65z"/>
   <path class="fil0" d="M4424.58 1821.4c-9.47,3.55 -18.93,8.28 -28.38,13 -9.47,3.56 -17.75,7.1 -24.84,14.19 -1.19,1.19 0,2.37 1.19,2.37 18.92,-2.37 42.58,-5.91 57.95,-17.74 4.72,-4.72 2.37,-15.37 -5.91,-11.83z"/>
   <path class="fil0" d="M4676.5 1524.54c2.37,3.55 8.28,1.18 5.91,-2.37 -24.84,-62.68 -78.06,-111.18 -130.1,-151.39 -5.91,-4.72 -14.19,2.37 -8.28,8.28 47.31,46.12 94.62,91.07 132.47,145.48z"/>
   <path class="fil0" d="M4501.45 1356.59c1.19,0 3.55,0 4.73,1.19 2.36,1.18 5.91,2.36 8.27,3.55 0,0 0,0 0,0 -1.18,-3.55 -2.36,-7.1 -4.72,-10.65 -1.19,-1.18 -2.37,-3.55 -4.73,-4.72 -2.36,-1.19 -4.72,-1.19 -7.09,0 -4.73,1.18 -3.56,5.91 -1.19,8.28 2.37,-0.01 3.55,1.17 4.73,2.36z"/>
   <path class="fil0" d="M4383.18 1305.73c16.56,3.55 33.12,8.28 48.49,14.19 14.19,5.91 26.03,17.74 40.22,22.47 7.1,2.37 15.37,-3.55 13,-10.65 -4.72,-13 -21.29,-20.1 -35.49,-26.02 -17.74,-7.1 -35.48,-11.83 -54.4,-14.19 -15.38,-2.37 -78.06,-16.56 -86.34,3.55 9.47,3.56 22.47,2.37 33.12,3.56 13.01,2.36 27.21,4.72 41.4,7.09z"/>
   <path class="fil0" d="M3764.62 1878.17c-3.56,0 -4.73,4.73 -1.19,5.91 9.47,2.37 20.1,5.91 27.2,11.84 1.19,1.18 2.37,0 2.37,-1.19 -5.9,-10.65 -16.56,-15.37 -28.37,-16.56z"/>
   <path class="fil0" d="M3667.63 1861.61c-8.28,1.19 -8.28,13.01 0,13.01 15.38,-1.19 31.94,-8.28 47.31,-3.56 1.18,0 3.55,-2.36 1.18,-3.55 -14.19,-10.64 -30.74,-8.27 -48.49,-5.91z"/>
   <path class="fil0" d="M3620.32 1866.35c-11.83,-1.19 -22.47,-2.37 -34.3,-4.73 -7.1,-1.18 -10.65,9.47 -3.56,11.84 11.84,2.36 24.84,2.36 36.66,0 5.92,-1.19 5.92,-7.1 1.19,-7.1z"/>
   <path class="fil0" d="M3940.84 1963.32c-5.91,-3.55 -11.83,-5.91 -17.74,-8.28 -7.1,-2.36 -13.01,-3.55 -20.1,-3.55 -4.73,0 -7.1,7.1 -2.37,9.47 5.91,2.36 10.65,4.72 16.56,5.91 7.09,1.18 13,2.36 20.1,4.72 5.91,1.19 8.28,-5.91 3.55,-8.28z"/>
   <path class="fil0" d="M3841.5 1913.66c-8.28,-2.37 -13,-8.28 -20.1,-13.01 -2.37,-2.36 -5.91,-2.36 -9.47,0 -2.36,2.37 -2.36,7.1 0,9.47 8.28,7.1 16.56,13 27.21,14.19 5.91,0 7.09,-9.47 2.37,-10.65z"/>
   <path class="fil0" d="M4703.7 1738.6c-5.91,2.37 -7.1,9.47 -9.47,15.38 -1.18,4.73 -3.55,10.65 -5.91,14.19 -4.72,9.47 8.28,16.56 14.19,8.28 3.56,-4.72 4.73,-9.46 7.1,-14.19 2.37,-5.91 7.1,-9.46 7.1,-15.38 -0.01,-8.28 -7.1,-10.64 -13.01,-8.28z"/>
   <path class="fil0" d="M4694.23 1597.87c0,0 1.19,0 1.19,0 0,0 1.19,0 1.19,0 1.18,0 2.36,-1.19 3.55,-3.56 0,0 0,-1.18 0,-1.18 1.19,-2.37 0,-4.73 0,-7.1 0,-4.73 -4.72,-8.28 -8.28,-9.47 -5.91,-1.18 -13,2.37 -14.19,8.28 -1.19,5.91 2.37,13.01 8.28,14.19 2.36,0.01 4.72,0.01 8.27,-1.17z"/>
   <path class="fil0" d="M4702.51 1542.28c21.29,23.65 24.84,61.49 34.31,91.07 0,1.19 2.36,1.19 2.36,0 5.91,-20.1 -1.18,-41.39 -3.55,-62.68 -2.37,-16.56 -5.91,-39.03 -22.47,-46.13 -10.65,-3.55 -17.74,10.65 -10.65,17.75z"/>
   <path class="fil0" d="M4682.41 1497.34c0,7.1 5.91,11.83 11.83,11.83 7.1,0 11.84,-5.91 11.84,-11.83 0,-7.1 -5.91,-11.83 -11.84,-11.83 -5.91,-1.19 -11.83,4.73 -11.83,11.83z"/>
   <path class="fil0" d="M4639.83 1431.11c5.91,8.27 10.65,15.37 16.56,23.65 5.91,8.28 9.46,20.1 17.74,26.02 5.91,4.73 14.19,1.19 14.19,-5.91 1.19,-18.92 -22.47,-36.66 -34.3,-48.49 -16.56,-18.93 -34.3,-31.93 -56.77,-44.94 -1.19,-1.18 -2.37,1.19 -1.19,1.19 15.38,15.37 31.94,29.56 43.77,48.49z"/>
   <path class="fil0" d="M4733.27 1700.76c-18.92,0 -18.92,28.38 0,28.38 17.75,0 17.75,-28.38 0,-28.38z"/>
   <path class="fil0" d="M4740.37 1672.38c18.92,0 18.92,-28.38 0,-28.38 -17.74,0 -17.74,28.38 0,28.38z"/>
   <path class="fil0" d="M4390.27 2004.72c-10.64,-1.19 -22.46,2.37 -33.11,4.72 -14.19,3.56 -28.38,5.91 -42.58,8.28 -2.37,0 -2.37,4.73 0,4.73 13,2.37 26.02,1.18 39.03,0 13,-1.19 26.02,-1.19 39.02,-3.56 9.47,0.01 5.91,-13 -2.37,-14.18z"/>
   <path class="fil0" d="M1907.73 850.38c50.86,22.47 85.16,83.98 119.46,147.85 -3.56,-68.6 -73.33,-154.94 -119.46,-147.85z"/>
   <path class="fil0" d="M1693.66 2341.8c36.66,-23.66 55.59,-83.98 105.27,-95.8 14.19,-3.55 28.38,8.28 46.12,-1.19 -1.19,-37.84 -56.77,-21.28 -86.34,1.19 -29.56,21.28 -72.14,79.24 -65.05,95.8z"/>
   <path class="fil0" d="M2882.3 1950.32c8.28,1.19 16.56,2.37 24.84,2.37 56.77,13 143.11,21.28 177.41,-20.11l8.28 -2.36 -8.28 14.19c-3.55,5.91 -1.19,13 4.72,16.56 2.37,1.18 3.56,1.18 5.92,1.18 4.72,0 8.27,-2.37 10.64,-5.91l36.66 -63.87c3.56,-5.91 1.19,-13 -4.72,-16.56 -5.91,-3.55 -13.01,-1.18 -16.56,4.73l-23.66 40.21 -7.09 2.37c3.55,-5.91 4.72,-11.83 7.09,-17.74 4.73,-20.11 0,-37.85 -10.64,-52.05l74.51 -20.1c0,0 0,0 0,0 2.37,1.18 3.56,1.18 5.91,1.18 4.73,0 8.28,-2.36 10.65,-5.91l36.66 -63.87c3.55,-5.91 1.19,-13 -4.72,-16.55 0,0 0,0 0,0l3.55 -7.1 -228.27 48.49c-8.28,-2.37 -17.75,-5.91 -26.03,-8.28 -11.83,-5.91 -27.2,-11.83 -37.84,-20.1 -13.01,-10.65 -26.03,-20.1 -37.85,-29.57l344.17 -42.58c-2.36,5.91 0,11.83 4.73,15.38 2.37,1.18 3.55,1.18 5.91,1.18 4.73,0 8.28,-2.36 10.65,-5.91l36.66 -63.87c3.55,-5.91 1.18,-13 -4.73,-16.55 0,0 0,0 0,0l2.37 -3.56 -282.67 23.66 0 5.91 261.38 -17.75 -20.1 34.31 -382.02 53.21c-8.28,-4.72 -17.74,-9.46 -27.2,-13 -21.29,-7.1 -46.13,-4.72 -59.14,-10.65 -5.91,-69.77 24.83,-134.83 22.47,-197.51 0,-4.72 -1.19,-9.46 -1.19,-13l529.86 35.49 -18.93 31.93 -387.93 4.73 0 13 380.84 2.37c1.19,3.55 2.37,5.91 5.91,8.28 2.37,1.19 3.56,1.19 5.91,1.19 4.73,0 8.28,-2.37 10.65,-5.92l36.66 -63.87c3.55,-5.91 1.19,-13 -4.72,-16.55 -5.92,-3.56 -13.01,-1.19 -16.56,4.72l-2.37 3.56 -540.51 -27.21c-5.91,-36.66 -23.66,-66.24 -46.13,-91.07l619.76 86.34 10.64 -18.93c2.37,1.19 3.56,1.19 5.91,1.19 4.73,0 8.28,-2.37 10.65,-5.92l36.66 -63.86c3.55,-5.92 1.19,-13.01 -4.73,-16.56l0 -0.01 3.56 -5.91 -470.72 -120.64 -3.56 13.01 450.62 123 -20.1 34.31 -370.19 -66.24 -1.19 5.91 365.46 72.15 -7.1 13c-1.19,3.56 -2.37,5.91 -1.19,9.47l-642.22 -79.24c-26.02,-24.84 -54.4,-44.94 -78.06,-63.87 -81.61,-66.24 -184.5,-143.11 -261.38,-210.53 28.38,-9.47 59.14,-13 87.52,-21.29 39.03,-11.83 79.24,-23.65 117.09,-37.84 34.3,-14.19 68.59,-37.85 104.08,-60.32l756.94 320.52 -9.46 16.56c-2.37,3.55 -2.37,8.28 0,11.83l-700.16 -224.71 -2.37 5.92 702.54 240.09 8.28 -13.01c0,0 0,0 0,0 2.36,1.19 3.55,1.19 5.91,1.19 4.72,0 8.28,-2.37 10.64,-5.91l36.66 -63.87c3.56,-5.91 1.19,-13.01 -4.72,-16.56 -3.56,-2.37 -8.28,-2.37 -11.83,0l-378.48 -178.59 -2.37 5.91 372.57 183.32 -10.65 17.74 -754.58 -306.33c34.3,-20.1 69.77,-36.66 107.63,-36.66 15.38,4.73 30.75,9.47 44.94,11.84 75.69,13 170.31,-10.65 260.2,-36.66l399.76 268.48 -7.1 13c-2.37,3.56 -2.37,8.28 0,11.83l-437.61 -246 -7.1 11.84 438.78 256.65 9.47 -17.75c0,0 0,0 0,0 2.37,1.19 3.55,1.19 5.91,1.19 4.73,0 8.28,-2.37 10.65,-5.91l36.66 -63.87c3.55,-5.91 1.18,-13 -4.73,-16.56l0 0 1.19 -2.37 -299.23 -227.09c24.84,3.56 52.05,5.92 79.24,7.1l231.82 202.25 7.09 -11.83 -225.9 -190.42c26.03,0 53.22,-1.18 81.61,-3.55l153.76 154.94 -7.1 11.83c-3.55,5.91 -1.19,13 4.73,16.56 2.36,1.18 3.55,1.18 5.91,1.18 4.72,0 8.28,-2.37 10.64,-5.91l36.66 -63.87c3.56,-5.91 1.19,-13 -4.72,-16.56 -2.37,-1.18 -5.91,-2.36 -8.28,-1.18l-105.26 -115.91c15.37,-4.73 29.56,-10.65 44.93,-16.56l82.8 109.99 10.65 -17.75c2.36,1.19 3.55,1.19 5.91,1.19 4.72,0 8.28,-2.37 10.64,-5.91l36.66 -63.87c3.56,-5.91 1.19,-13 -4.72,-16.56l10.64 -17.74 -40.21 -68.6c10.65,-11.83 20.1,-24.83 26.02,-36.66l28.39 57.96 -3.56 5.91c-3.55,5.91 -1.18,13.01 4.73,16.56 2.36,1.19 3.55,1.19 5.91,1.19 4.72,0 8.28,-2.37 10.64,-5.91l36.66 -63.87c3.56,-5.91 1.19,-13.01 -4.72,-16.56l7.1 -13.01 -14.19 -33.11c3.55,-8.28 4.72,-17.75 2.36,-29.57 -1.18,-5.91 -4.72,-8.28 -10.64,-8.28 -2.37,0 -4.73,0 -7.1,0l-230.63 -542.87 -11.83 4.73 217.62 538.14c-20.1,0 -40.22,-1.19 -60.32,-1.19l-205.79 -402.12 -5.91 2.36 196.34 399.76c-18.93,-1.18 -39.03,-2.37 -57.96,-2.37l-82.8 -140.73 -11.83 7.09 75.7 133.65c-26.02,-1.19 -53.22,-1.19 -79.24,0l-17.75 -26.02 -4.72 3.55 15.38 22.47c-22.47,-3.55 -44.94,-5.91 -67.42,-7.1l-254.28 -326.43 -10.65 8.28 238.91 316.98c-34.3,-1.19 -67.42,-5.92 -100.53,-9.47l-150.2 -166.76 -4.73 3.55 140.74 160.85c-26.02,-2.37 -50.86,-4.72 -75.7,-3.55 -47.3,1.18 -83.97,5.91 -130.1,1.18 -52.05,-4.72 -121.82,-7.09 -183.32,-11.83l-15.37 -11.83 -8.28 9.46c-10.65,-1.18 -22.47,-2.36 -31.94,-3.55 -35.49,-4.72 -69.77,-16.56 -98.16,-14.19 -39.03,3.55 -82.8,30.75 -123.01,44.94 -170.32,61.5 -430.51,89.89 -574.81,117.09 -76.87,-56.78 -154.93,-87.52 -272.02,-33.12 -14.19,7.1 -29.57,20.1 -47.31,24.84 -14.19,3.55 -35.49,-1.19 -55.58,0 -85.16,4.72 -189.23,61.49 -290.96,96.98 -106.45,36.66 -199.88,59.14 -287.4,75.7 -27.2,4.72 -56.77,10.65 -83.98,14.19 -57.95,8.28 -114.73,21.29 -171.5,33.12 -105.26,21.28 -205.79,35.48 -302.77,43.76 -17.74,3.56 -34.3,7.1 -52.05,9.47 -3.55,-2.37 -8.28,-3.56 -13,-1.19 -3.55,1.19 -7.1,3.56 -10.65,4.73 -99.35,14.19 -202.25,14.19 -302.77,11.83 -56.77,-1.19 -113.54,0 -170.32,2.37l0 5.91 0 2.37 0 24.83c149.03,4.73 298.05,8.28 335.9,5.92 24.84,-2.37 52.04,-1.19 78.06,-4.73 -164.4,61.51 -305.14,196.35 -333.52,365.47 -17.75,107.63 16.55,214.07 73.33,303.95 30.74,47.31 69.77,89.89 109.99,127.74 7.09,7.1 15.37,13 22.46,18.92 -17.74,-3.55 -35.48,-5.91 -53.21,-8.28 -40.22,-10.64 -93.43,-16.55 -132.47,-26.02 -34.3,-8.28 -69.78,-15.37 -104.08,-21.29l0 24.84c23.66,3.55 48.49,8.28 72.15,13.01 27.2,5.91 141.92,22.46 203.43,33.11 28.38,10.65 55.58,22.47 83.97,34.3 9.47,2.37 18.93,4.73 28.39,7.1 126.54,34.3 263.74,75.7 406.85,23.66 14.19,-5.92 33.12,-16.56 44.94,-18.93 24.84,-3.55 68.59,30.75 95.8,41.4 34.3,14.19 65.05,33.11 93.43,44.93 47.31,18.93 105.26,28.39 160.85,37.85 169.13,30.75 353.63,2.37 538.14,-10.65 -39.03,62.69 -101.71,145.48 -100.53,233 0,29.57 14.19,66.24 34.3,92.26 -21.29,47.31 -24.83,117.09 33.12,125.37 10.65,1.18 18.92,-9.47 23.65,-16.56 10.65,-18.93 20.11,-37.85 33.12,-55.59 7.1,-9.46 13,-20.1 20.1,-29.56 20.1,-18.93 37.85,-53.22 53.22,-75.7 20.1,-27.21 43.77,-72.15 68.59,-86.34 17.75,-9.46 47.31,-14.19 72.15,-21.29 63.87,-18.92 160.85,-26.02 221.17,-68.59 24.83,-16.56 40.21,-52.05 55.58,-75.7 20.1,-29.57 44.94,-50.86 57.96,-75.7 17.74,-1.18 37.85,-9.46 54.4,-8.27 -23.65,89.88 -158.48,167.94 -176.22,269.65 -8.28,46.13 5.91,93.43 33.11,128.92 -15.37,26.03 -21.28,56.77 -3.55,83.98 11.83,18.92 34.3,36.66 47.31,16.56 9.46,-14.19 22.47,-30.75 37.84,-47.31 1.19,0 1.19,0 2.37,0 62.68,-80.43 157.3,-144.29 246,-217.62 29.57,-24.84 66.24,-44.94 89.89,-72.15 47.31,-53.22 26.02,-123.01 61.5,-182.14 53.23,13.01 128.93,9.47 189.24,-27.2zm68.59 -136.01c31.94,43.76 20.11,104.07 -46.12,120.64 31.93,-33.12 59.14,-68.6 46.12,-120.64zm4.73 123c40.22,-24.84 59.14,-78.06 30.75,-127.73 36.66,11.83 72.15,26.02 89.89,67.41 20.1,46.13 -55.59,56.78 -120.64,60.32zm233 -176.23l-31.93 54.41c0,0 0,0 0,0l-80.43 22.47c-17.74,-17.75 -42.58,-31.94 -68.59,-42.58l180.95 -34.31zm-410.41 -43.76c81.61,2.37 183.32,81.61 137.2,172.67 -34.3,67.42 -153.76,68.6 -214.07,70.97 20.1,-82.8 70.96,-153.76 76.87,-243.65zm-405.67 -646.95c8.28,-1.18 16.56,-1.18 26.03,-3.55 -7.1,2.37 -14.19,4.73 -21.29,7.1 -2.37,-0.01 -3.55,-1.19 -4.73,-3.56zm267.3 -79.24c-42.58,22.47 -86.34,36.66 -132.47,50.86 -10.64,3.56 -22.47,5.92 -33.11,8.28 57.95,-17.74 119.45,-42.58 171.5,-67.42 8.28,-4.72 24.83,-11.83 41.39,-20.1l-1.18 2.37 1.18 0c-16.56,8.28 -31.94,17.74 -47.31,26.02zm60.32 -35.48c4.72,-2.37 9.46,-4.73 14.19,-7.1 -4.73,2.37 -9.47,4.72 -13.01,7.1l-1.18 0zm69.77 -31.94c3.56,-1.18 7.1,-2.37 8.28,-3.55 1.19,0 2.37,0 4.73,0 -3.55,0 -8.28,1.18 -13.01,3.55zm785.33 204.62l-14.19 24.84 -396.22 -256.66c21.29,-5.91 41.4,-11.83 60.32,-17.74 9.46,0 18.93,-1.19 28.38,-1.19 0,0 1.19,0 1.19,0l320.51 250.75zm74.52 -130.1l-14.2 24.83 -141.92 -139.56c15.38,-2.37 31.94,-5.91 47.31,-10.65l108.81 125.37zm41.39 -70.97l-66.23 -85.15c5.91,-3.55 13,-5.91 18.92,-9.46 3.56,-1.19 5.92,-3.56 9.47,-5.91l50.86 76.87 -13.01 23.65zm49.68 -68.59c-4.73,-1.19 -10.65,1.19 -13.01,5.91l-16.56 27.21 -49.68 -70.96c11.84,-9.47 26.03,-20.1 37.85,-33.12l41.4 70.96zm59.14 -120.64l-23.66 40.22 -27.2 -54.41c17.74,-3.55 31.93,-9.46 43.77,-17.74l10.64 27.2c-1.18,1.19 -2.37,2.38 -3.55,4.73zm-10.65 -69.78c-7.1,15.38 -23.65,26.03 -43.77,34.31 -2.36,-17.75 -9.46,-29.57 -18.92,-35.49 21.29,-1.18 41.39,0 62.68,1.18zm-282.67 7.1c24.84,0 62.68,0 102.9,3.56 41.39,4.72 89.88,-1.19 112.35,20.1 -1.18,4.72 -2.36,8.28 -4.72,11.83 -23.66,5.91 -49.68,9.47 -73.33,11.83 -157.3,-2.37 -154.94,-26.02 -137.2,-47.31zm-1193.37 62.68c73.33,-18.92 229.45,-31.93 306.33,-59.13 43.77,-15.38 87.52,-47.31 134.83,-61.5 26.02,-8.28 69.78,1.18 104.08,5.91 29.56,3.55 57.96,5.91 83.97,8.28l2.37 1.19c1.19,0 3.56,-1.19 4.73,-1.19 3.55,0 8.28,1.19 11.83,1.19 68.59,7.09 179.78,21.28 243.64,14.19 10.65,-1.19 21.29,-5.92 29.57,-5.92 21.29,-1.18 42.58,9.47 65.05,10.65 53.22,3.55 111.18,7.1 165.58,11.83 0,1.19 -1.19,1.19 -1.19,2.37 -1.18,13.01 -2.36,22.47 2.37,34.3 4.73,11.84 14.19,22.47 27.21,26.03 2.36,1.18 3.55,-2.37 1.18,-3.56 -10.64,-5.91 -15.37,-15.37 -18.92,-26.02 -3.56,-10.65 0,-18.93 1.18,-28.38 0,-1.19 0,-2.37 -1.18,-3.55 7.09,0 14.19,1.18 21.28,1.18 -28.38,16.56 2.37,46.13 21.29,57.96 24.84,15.38 102.9,11.83 144.29,7.1 15.38,0 31.94,-1.19 47.31,-2.37 -72.15,126.55 -303.96,144.29 -438.79,134.83 -1.18,-1.19 -2.36,-2.37 -4.72,-2.37 -44.94,-8.28 -96.99,2.37 -139.57,21.29 -80.42,15.38 -167.94,39.03 -231.81,29.57 -33.11,-4.73 -61.5,-22.47 -89.89,-15.38 -27.2,7.1 -61.49,27.2 -87.52,41.4 -162.03,88.7 -240.09,86.33 -341.8,118.26 -98.17,-83.97 -193.97,-173.85 -279.12,-290.95 69.77,-3.56 143.1,-8.29 216.43,-27.22zm-583.08 1720.87c-3.55,5.91 -7.1,13.01 -10.65,20.1 -13,29.57 -28.38,11.84 -30.75,-15.37 -1.18,-10.65 0,-20.11 2.37,-29.57 1.19,-8.28 3.56,-16.56 5.91,-23.66 16.56,14.19 34.31,22.47 54.41,21.29 -7.1,8.29 -14.19,16.56 -21.29,27.21zm615.02 -481.37c14.19,-22.47 33.11,-42.58 52.04,-62.68 -8.28,18.93 -9.46,41.4 -18.92,60.32 -11.84,3.55 -21.29,-1.19 -33.12,2.36zm-85.16 512.12c-5.91,4.73 -20.1,-16.55 -21.28,-18.92 -7.1,-17.75 -3.56,-36.66 4.72,-54.41 14.19,15.38 31.94,26.03 50.86,31.94 -17.74,22.46 -33.11,40.21 -34.3,41.39zm374.92 -351.27c-21.28,28.38 -60.31,53.22 -92.25,78.06 -89.89,73.33 -171.51,126.55 -231.82,211.71 -20.1,-5.91 -37.84,-18.92 -53.21,-35.49 13,-17.74 28.38,-33.11 39.02,-46.12 1.19,-1.19 1.19,-3.55 0,-4.73 29.57,-24.83 55.59,-59.14 107.64,-74.51 18.92,-1.19 30.74,11.83 49.67,8.28 -13,-59.14 -91.07,-28.38 -130.1,7.09 -8.28,7.1 -16.56,17.75 -24.83,28.39 -14.19,15.37 -26.03,31.93 -36.66,50.86 -5.92,4.72 -10.65,10.64 -16.56,15.37 -18.93,-28.38 -29.57,-63.87 -24.84,-95.8 10.65,-75.69 104.08,-139.56 152.57,-204.61 28.38,-39.03 30.75,-85.16 44.94,-131.29 4.73,-16.56 14.19,-31.94 20.1,-48.49 5.91,-17.75 4.73,-37.85 9.47,-53.22 5.91,-17.75 21.28,-29.57 27.2,-46.13 15.38,-39.02 14.19,-75.69 10.65,-120.64 0,-31.93 27.2,-79.24 15.37,-111.17 -10.64,-27.21 -54.4,-50.86 -81.6,-70.96 -30.75,-22.47 -62.69,-46.13 -88.71,-53.22 -47.31,-66.24 -117.09,-132.47 -159.67,-218.81 -22.47,-46.12 -36.66,-105.26 -76.87,-130.1 8.28,124.19 81.61,222.35 147.84,301.59 31.94,37.85 67.42,80.43 102.9,117.09 33.12,34.3 82.8,83.97 99.35,127.73 24.84,68.6 1.19,150.2 -30.75,198.7 -31.93,47.3 -72.14,88.7 -113.54,145.47 -15.37,21.29 -34.3,47.31 -53.22,74.52 -17.74,24.84 -34.3,63.87 -52.04,76.87 -70.96,49.68 -166.76,43.77 -250.74,80.43 37.84,-34.3 67.41,-65.05 83.97,-106.45 20.1,-53.22 31.94,-121.82 54.41,-184.5 8.27,-23.66 21.28,-56.78 35.48,-89.89 13.01,-29.57 39.03,-72.15 35.49,-89.89 -2.37,-14.19 -21.29,-39.03 -33.11,-59.14 -35.49,-63.87 -79.24,-102.9 -111.18,-151.39 -47.31,-72.15 -98.17,-169.13 -131.29,-247.19 -13,-30.74 -15.37,-88.7 -50.86,-102.89 -16.55,33.11 7.1,87.52 27.21,127.73 49.68,101.71 111.17,212.89 171.5,296.86 13,17.75 30.75,30.75 40.21,47.31 21.29,37.85 28.38,102.9 23.66,140.74 -5.91,52.04 -30.75,107.63 -49.68,167.94 -16.56,55.59 -22.47,130.11 -42.58,165.58 -21.29,37.85 -62.68,70.97 -100.53,107.64 -2.37,-8.28 -8.28,-15.38 -14.19,-20.11 -15.38,-14.19 -34.3,-13 -53.22,-7.09 -1.18,0 -1.18,2.36 0,2.36 17.75,3.56 34.3,4.73 46.13,18.93 3.55,4.73 8.28,11.83 5.91,17.74 0,1.19 0,1.19 0,2.37 -1.19,1.19 -2.37,2.37 -3.56,3.56 -1.18,-2.37 -2.36,-5.92 -3.55,-8.28 -2.37,-5.91 -10.65,-3.56 -9.47,2.36 1.19,5.92 2.37,11.84 2.37,18.93 -1.18,1.19 -1.18,2.37 -2.37,2.37 -18.92,22.47 -34.3,39.02 -56.77,66.23 -15.37,18.93 -35.48,62.69 -59.14,67.42 -13,2.37 -29.56,-5.91 -43.76,-18.92 2.36,-7.1 4.72,-14.19 7.09,-22.47 1.19,-5.91 -4.72,-13.01 -9.46,-7.1 -3.55,3.55 -8.28,9.46 -11.83,14.19 -7.1,-9.46 -13.01,-18.93 -16.56,-28.38 -14.19,-44.94 7.1,-111.18 24.84,-149.02 23.65,-49.68 61.49,-83.98 82.79,-136.01 24.84,-57.96 24.84,-140.74 39.03,-206.98 13,-57.96 21.29,-89.89 -34.3,-131.29 -44.94,-33.11 -89.89,-66.23 -127.74,-92.26 -86.34,-57.95 -157.3,-152.57 -210.53,-272.02 -21.28,46.12 9.47,107.63 43.77,156.12 -26.02,-10.64 -50.86,-21.28 -74.51,-36.66 -42.59,-26.02 -70.97,-66.23 -112.36,-93.43 -1.19,-1.18 -3.56,1.19 -2.37,2.37 35.49,35.49 62.68,75.7 100.53,109.99 33.12,29.57 70.96,50.86 112.36,66.24 -106.45,-7.1 -189.23,-76.88 -266.12,-144.3 -16.56,-14.19 -35.49,-37.84 -60.31,-33.11 50.86,89.89 130.1,133.64 197.51,173.86 -31.94,0 -65.05,3.55 -94.62,10.64 -44.94,9.47 -80.43,36.66 -120.64,56.77 -2.37,1.19 -1.19,3.56 1.19,3.56 41.39,-1.19 81.6,-29.57 121.82,-39.03 13,-3.55 27.2,-4.72 40.21,-5.91 -160.85,55.59 -303.96,157.3 -455.35,159.67 -69.77,1.18 -130.1,-28.38 -196.34,-11.83 121.83,79.24 300.42,47.3 470.72,-30.75 -39.02,30.75 -78.05,62.68 -119.45,88.7 -3.55,2.37 0,8.28 3.55,7.1 48.5,-22.47 87.52,-44.94 130.11,-76.87 13,-9.47 27.2,-18.93 41.39,-27.21 -59.14,50.86 -112.36,104.08 -177.41,149.02 -13.01,8.28 -35.49,13.01 -39.03,30.75 43.77,2.37 79.24,-30.75 111.18,-54.4 93.43,-69.78 177.41,-166.76 286.21,-220 50.86,-24.83 78.06,-16.55 112.36,-14.19 15.38,1.19 29.57,-4.72 44.94,0 0,21.29 1.18,41.4 -1.19,62.69 -2.37,28.38 -16.56,48.49 -26.02,74.51 -1.19,3.56 3.55,4.73 4.72,2.37 13.01,-22.47 24.84,-40.21 30.75,-66.24 3.56,-17.74 4.73,-37.84 4.73,-57.95 23.65,49.67 -10.65,95.8 0,136.01 31.93,-18.93 36.66,-66.24 37.84,-105.27 68.6,48.5 140.74,91.08 205.8,146.66 -24.84,88.71 -27.21,185.69 -48.5,275.58 -147.84,-27.2 -307.51,16.56 -456.53,2.37 -150.2,-14.19 -283.85,-55.59 -403.31,-120.64 15.38,-8.28 44.94,-11.83 40.21,-28.38 -54.4,0 -112.35,33.11 -169.12,40.21 -67.42,9.47 -121.83,14.19 -179.78,7.1 -28.38,-3.55 -59.14,-3.55 -85.16,-8.28 -44.93,-8.28 -86.33,-28.38 -128.92,-42.58 -144.29,-105.26 -254.28,-283.86 -231.81,-461.27 13.01,-104.08 78.06,-184.51 157.3,-248.37 40.22,-33.12 85.16,-62.69 132.47,-82.8 48.49,-21.29 102.9,-26.02 149.02,-53.22 0,0 0,0 0,0 4.73,0 9.47,0 13.01,-1.18 118.27,-13.01 241.27,-37.85 367.82,-70.96 167.95,-43.77 339.45,-60.32 503.84,-120.65 61.5,-22.46 124.19,-62.68 190.42,-78.05 49.68,-11.84 113.54,-10.65 152.57,-2.37 20.1,4.72 44.94,26.02 69.78,14.19 -17.75,-29.57 -56.78,-33.12 -75.7,-43.77 40.21,-9.46 87.52,-29.57 126.55,-29.57 93.43,1.19 160.85,87.52 218.8,164.41 50.86,67.42 120.64,125.36 182.14,173.86 15.38,11.83 31.93,22.47 49.68,33.11 1.19,3.56 4.72,5.91 9.46,5.91 14.19,8.28 28.38,17.75 41.4,27.21 31.93,22.47 62.68,53.22 93.43,80.42 29.57,26.03 62.68,49.68 95.8,76.88 59.14,49.68 152.57,111.17 176.23,188.06 13,44.94 -4.73,86.34 -13.01,124.19 -5.91,28.38 -7.1,55.58 -9.46,82.79 -3.56,53.22 -13.01,101.71 -36.66,157.3 -18.93,44.94 -41.4,98.17 -57.96,149.02 -16.55,53.24 -15.36,114.75 -43.76,153.77zm-162.03 -497.92c-33.12,-48.49 -61.5,-107.63 -100.53,-144.29 15.38,14.19 89.89,49.68 102.9,81.61 9.46,22.46 -7.1,37.84 -2.37,62.68zm-348.91 94.61c9.47,14.19 3.55,22.47 1.19,30.75 -4.73,-3.55 -8.29,-24.84 -1.19,-30.75z"/>
   <path class="fil0" d="M607.92 1933.76c-52.05,-7.1 -98.17,-27.21 -147.85,-42.58 -53.21,-16.56 -92.26,-40.22 -136.01,-73.33 -10.65,-7.1 -20.1,7.09 -11.83,15.37 37.84,36.66 78.06,60.32 128.92,73.33 54.4,14.19 109.99,34.3 166.76,30.75 2.37,0 2.37,-3.55 0,-3.55z"/>
   <path class="fil0" d="M285.04 1777.64c-7.1,3.56 -10.65,11.83 -8.28,18.93 3.55,7.1 11.83,10.64 18.93,8.28 7.09,-3.56 10.64,-11.84 8.27,-18.93 -2.36,-8.28 -10.64,-11.83 -18.92,-8.28z"/>
   <path class="fil0" d="M275.58 1749.25c-29.57,-35.49 -50.86,-69.77 -72.15,-109.99 -33.12,-61.49 -39.03,-120.64 -31.93,-188.06 0,-2.36 -3.56,-3.55 -3.56,0 -14.19,65.05 -11.83,119.46 9.47,183.32 14.19,43.77 40.21,113.55 87.52,131.29 8.28,2.37 17.74,-8.28 10.65,-16.56z"/>
   <path class="fil0" d="M625.66 1927.85c37.84,17.74 106.45,-7.1 145.48,-16.56 59.14,-14.19 124.19,-31.93 175.04,-66.24 9.46,-7.09 0,-23.65 -10.65,-18.92 -98.17,44.94 -202.25,78.06 -308.7,95.8 -3.55,1.18 -4.72,4.72 -1.18,5.91z"/>
   <path class="fil0" d="M1826.13 1802.48c-13,42.58 -4.72,78.06 -13,121.83 -3.55,22.47 -9.46,46.12 -14.19,68.59 -5.91,22.47 -18.93,53.22 -24.84,74.52 -1.18,3.55 3.56,5.91 5.91,3.55 14.19,-15.38 18.93,-33.12 26.03,-53.22 7.09,-21.29 52.04,-167.95 36.66,-215.25 -2.37,-7.1 -14.2,-7.1 -16.57,-0.01z"/>
   <path class="fil0" d="M1836.77 1761.08c3.56,-3.55 2.37,-11.83 0,-15.37 -2.37,-3.56 -8.28,-3.56 -10.65,0 -3.55,4.72 -2.36,8.28 1.19,13 2.36,3.56 7.09,5.92 9.46,2.37z"/>
   <path class="fil0" d="M1584.86 1531.63c-5.91,-5.91 -14.19,1.19 -9.47,7.1 26.03,41.39 61.5,68.59 104.08,93.43 44.94,27.2 79.24,67.42 128.92,89.89 4.73,2.36 9.47,-5.91 4.73,-8.28 -41.4,-24.84 -72.15,-59.14 -109.99,-88.71 -41.4,-31.93 -81.61,-56.77 -118.27,-93.43z"/>
   <path class="fil0" d="M1759.9 2115.89c5.91,-7.09 -4.73,-17.74 -11.83,-11.83 -28.39,22.47 -47.31,55.59 -61.5,88.71 -14.19,34.3 -36.66,73.33 -28.38,111.17 0,2.37 3.55,3.56 4.72,0 9.47,-34.3 21.29,-63.87 37.85,-95.8 15.37,-34.3 35.48,-62.68 59.14,-92.26z"/>
   <path class="fil0" d="M1654.63 978.12c28.38,17.74 44.94,48.49 68.6,70.96 3.55,3.55 9.46,-1.19 7.1,-5.91 -17.75,-35.49 -48.5,-67.42 -85.16,-85.16 -41.39,-20.1 -80.42,-8.28 -118.27,10.65 -2.36,1.19 -1.18,4.73 1.19,3.55 43.76,-15.37 86.33,-18.92 126.54,5.92z"/>
   <path class="fil0" d="M1626.24 934.36c33.12,7.1 59.14,31.94 81.61,56.77 4.73,4.73 11.83,-1.18 8.28,-5.91 -21.29,-28.38 -53.22,-53.22 -89.89,-55.58 -2.36,-0.01 -3.55,4.72 0,4.72z"/>
   <path class="fil0" d="M1032.51 1683.02c-75.69,13 -140.73,31.93 -218.8,23.65 -1.19,0 -1.19,1.19 0,2.37 69.77,18.93 160.85,26.03 224.72,-14.19 3.55,-3.55 0,-13.01 -5.92,-11.83z"/>
   <path class="fil0" d="M1085.74 1645.17c-5.91,0 -9.46,4.73 -13,8.28 -8.28,7.1 1.18,20.1 10.64,14.19 2.37,-1.18 2.37,-1.18 1.19,-1.18 3.55,1.18 5.91,-1.19 9.47,-3.56 7.09,-5.9 1.18,-18.92 -8.29,-17.74z"/>
   <path class="fil0" d="M2711.99 1434.65c-16.56,1.18 -28.39,13 -42.59,20.1 -2.36,1.18 -1.18,4.72 1.19,3.55 15.38,-2.37 28.38,-8.28 43.77,-15.38 5.91,-1.18 3.55,-9.46 -2.37,-8.27z"/>
   <path class="fil0" d="M2703.71 1470.13c14.19,-1.18 28.38,-8.28 39.02,-18.92 2.37,-2.37 -1.18,-7.1 -4.72,-5.91 -13.01,5.91 -21.29,17.74 -35.49,21.28 -1.18,1.19 0,4.72 1.19,3.55z"/>
   <path class="fil0" d="M2717.91 1496.16c-8.28,3.55 -17.75,5.91 -27.21,7.09 -3.55,1.19 -3.55,5.92 0,5.92 10.65,0 20.1,-1.19 30.75,-5.92 4.73,-1.18 2.37,-9.47 -3.55,-7.09z"/>
   <path class="fil0" d="M1782.37 799.52c7.09,1.19 9.46,-9.46 3.55,-11.83 -42.58,-20.1 -96.98,-9.47 -139.57,7.1 0,0 0,0 0,0 44.94,-9.47 91.08,-5.92 136.02,4.72z"/>
   <path class="fil0" d="M2049.67 1588.4c21.28,40.22 57.95,70.96 86.34,106.45 1.18,2.37 4.72,0 3.55,-2.37 -23.66,-39.02 -52.05,-74.51 -80.43,-109.99 -4.73,-3.55 -13.01,1.19 -9.46,5.91z"/>
   <path class="fil0" d="M2163.21 1731.51c-4.73,-11.83 -23.66,-4.72 -18.93,8.28 5.91,11.83 24.84,3.55 18.93,-8.28z"/>
   <path class="fil0" d="M1305.73 1548.19c9.46,1.18 11.83,-14.19 2.36,-15.38 -20.1,-2.37 -40.21,-5.91 -59.14,-9.46 -2.36,0 -2.36,2.36 -1.18,3.55 15.37,13.01 36.66,18.93 57.96,21.29z"/>
   <path class="fil0" d="M931.99 1936.13c44.94,16.56 80.43,47.3 127.73,61.5 42.58,13 88.71,30.74 133.65,34.3 7.1,0 11.83,-10.65 3.55,-13.01 -44.94,-11.83 -88.7,-23.65 -133.64,-34.3 -46.13,-11.83 -83.98,-40.21 -130.1,-50.86 -2.38,-1.19 -3.56,1.18 -1.19,2.37z"/>
   <path class="fil0" d="M1212.29 2034.3c5.92,14.19 28.39,4.72 22.47,-9.47 -7.09,-14.19 -28.38,-4.73 -22.47,9.47z"/>
   <path class="fil0" d="M1370.78 2030.74c-35.49,-1.18 -72.15,-5.91 -108.81,-4.72 -4.73,0 -5.91,8.28 -1.19,9.46 35.49,9.47 73.33,9.47 109.99,8.28 33.12,0 78.06,1.19 107.63,-14.19 1.19,-1.19 1.19,-3.55 -1.18,-3.55 -29.56,8.28 -74.51,7.09 -106.44,4.72z"/>
   <path class="fil0" d="M2353.63 2241.27c-2.37,1.19 -1.19,4.72 1.18,3.55 27.21,-3.55 61.5,-15.37 80.43,10.65 4.73,5.91 13,-1.19 9.46,-7.1 -21.29,-27.2 -62.68,-18.92 -91.07,-7.09z"/>
   <path class="fil0" d="M1507.97 2035.47c9.47,0 17.75,-2.37 26.03,-3.55 10.64,-1.19 21.29,-1.19 31.93,-1.19 2.37,0 2.37,-2.37 0,-3.55 -17.74,-2.37 -42.58,-8.28 -59.14,-1.19 -4.73,1.19 -4.73,9.47 1.18,9.47z"/>
   <path class="fil0" d="M1091.65 1850.97c48.5,-29.57 95.8,-54.41 128.92,-101.71 3.56,-4.73 -2.36,-10.65 -7.09,-7.1 -22.47,16.56 -40.22,36.66 -60.32,55.58 -20.1,18.93 -42.58,33.12 -63.87,52.05 0.01,0 1.19,1.19 2.37,1.19z"/>
   <path class="fil0" d="M1261.97 1705.5c23.65,-21.29 49.68,-41.4 75.7,-60.32 30.74,-22.47 69.77,-29.56 106.45,-39.02 7.09,-2.37 3.55,-11.84 -3.56,-11.84 -73.33,4.73 -140.74,49.68 -182.14,107.63 -2.36,2.37 1.19,5.92 3.56,3.56z"/>
   <path class="fil0" d="M1239.5 1730.33c7.1,1.18 10.65,-4.73 11.83,-10.65 1.19,-9.47 -10.64,-16.56 -17.74,-8.28 -1.19,2.37 -2.37,4.73 -2.37,7.1 -1.18,5.9 3.55,10.64 8.28,11.83z"/>
   <path class="fil0" d="M1834.41 1784.74l0 0c2.37,0 4.73,0 5.92,-2.37l0 0c10.64,-18.93 -26.03,-3.55 -5.92,2.37z"/>
   <path class="fil0" d="M2154.93 1767c-14.19,18.92 -28.38,39.02 -40.21,59.13 -14.19,27.21 -21.29,59.14 -29.57,88.71 -1.19,5.91 5.91,8.28 8.28,3.55 11.83,-26.02 20.1,-53.21 31.93,-78.05 10.65,-23.66 35.49,-40.22 42.59,-65.06 2.36,-8.27 -8.28,-16.55 -13.01,-8.27z"/>
   <path class="fil0" d="M2031.92 1551.74c-1.18,0 -4.72,-3.55 -3.55,-1.18 0,0 0,0 0,0 -4.73,-5.92 -14.19,-1.19 -10.65,5.91 2.37,3.55 4.73,5.91 9.47,7.09 2.37,0 3.55,0 5.91,-1.18 1.19,0 2.37,-2.37 2.37,-4.73 -1.19,-2.36 -2.37,-4.72 -3.56,-5.91z"/>
   <path class="fil0" d="M2380.82 2096.98c8.28,-11.83 -7.1,-22.47 -16.56,-13.01 -54.4,56.78 -138.38,126.55 -141.92,212.89 0,2.37 3.55,4.72 4.72,1.19 13.01,-37.85 42.59,-81.61 67.42,-113.55 26.03,-30.75 61.5,-54.41 86.34,-87.52z"/>
   <path class="fil0" d="M2392.65 2068.59c2.37,0 4.73,-2.37 5.92,-2.37 3.55,-3.55 4.72,-10.65 0,-14.19 0,0 -1.19,0 -1.19,-1.19 -3.55,-2.36 -9.47,-1.18 -11.83,3.56 0,0 0,1.18 0,1.18 -1.19,2.37 -1.19,4.73 0,7.1 0,3.55 3.55,5.91 7.09,5.91z"/>
   <path class="fil0" d="M2418.68 1466.58c-39.03,-24.84 -72.15,-56.77 -109.99,-82.79 -7.1,-4.73 -16.56,3.55 -10.65,10.64 55.59,60.32 127.73,95.8 201.06,130.1 0,0 1.19,0 0,-1.18 -18.93,-24.84 -54.4,-40.21 -80.42,-56.77z"/>
   <path class="fil0" d="M2409.21 1738.6c4.73,-3.55 0,-11.83 -4.72,-9.46 -18.93,8.28 -54.41,23.66 -72.15,7.1 -1.19,-1.19 -2.37,0 -2.37,1.18 8.28,30.75 61.5,11.83 79.24,1.18z"/>
   <path class="fil0" d="M2366.63 1696.03c14.19,-1.18 28.38,-1.18 42.58,1.19 3.56,0 4.73,-5.91 1.19,-5.91 -14.19,-1.19 -29.57,-1.19 -43.77,0 -4.72,0 -3.55,4.72 0,4.72z"/>
   <path class="fil0" d="M2417.49 2021.28c3.55,-39.03 15.38,-79.24 23.66,-118.27 0,-1.18 -2.37,-2.37 -2.37,-1.18 -10.65,22.47 -16.56,46.12 -23.66,69.77 -4.72,15.38 -15.37,34.3 -8.28,50.86 2.37,5.91 10.65,4.73 10.65,-1.18z"/>
   <path class="fil0" d="M3237.12 722.65c1.19,-14.19 5.91,-27.21 5.91,-40.22 0,-7.09 -9.46,-9.46 -11.83,-1.18 -2.37,14.19 -4.73,28.38 0,42.58 1.18,1.19 5.91,1.19 5.91,-1.18z"/>
   <path class="fil0" d="M3308.08 851.57c18.93,5.91 37.85,5.91 56.77,7.1 21.29,1.18 44.94,2.36 65.05,-7.1 5.92,-2.37 3.56,-13.01 -3.55,-11.84 -39.03,4.73 -79.24,8.28 -119.45,8.28 0,0 -1.19,2.37 1.18,3.56z"/>
   <path class="fil0" d="M3654.62 769.95c5.91,-4.72 0,-15.37 -7.1,-11.83 -60.31,29.57 -123,66.24 -189.23,80.43 -1.18,0 -1.18,1.18 0,1.18 65.06,0 144.3,-33.11 196.34,-69.78z"/>
   <path class="fil0" d="M2837.36 895.32c83.98,22.47 177.41,7.1 257.84,-23.66 0,0 0,-1.18 0,-1.18 -81.61,16.56 -172.68,27.2 -254.28,7.1 -13.01,-2.37 -14.2,15.37 -3.56,17.74z"/>
   <path class="fil0" d="M2799.51 883.5c3.55,0 4.73,-1.19 7.1,-3.56 3.55,-3.55 0,-10.64 -4.73,-11.83 -3.55,0 -5.91,0 -8.28,2.37 -4.73,4.73 -2.37,13.01 5.91,13.01z"/>
   <path class="fil0" d="M2756.94 713.18c-3.55,-20.1 0,-42.58 1.18,-62.68 0,-5.91 -7.09,-8.28 -9.46,-2.37 -9.47,21.29 -9.47,46.13 2.37,67.42 2.37,2.37 7.09,1.19 5.91,-2.37z"/>
   <path class="fil0" d="M1952.68 1769.36c29.57,1.19 56.77,-4.72 81.61,-21.28 3.55,-2.37 0,-9.47 -4.72,-7.1 -24.84,13 -49.68,22.47 -76.88,24.83 -2.37,-1.17 -2.37,2.38 0,3.56z"/>
   <path class="fil0" d="M1988.16 1687.75c10.64,-3.55 21.28,-4.72 33.11,-4.72 4.73,0 3.56,-7.1 -1.18,-7.1 -11.84,0 -23.66,2.37 -34.31,7.1 -3.54,1.18 -1.17,5.91 2.38,4.72z"/>
   <path class="fil0" d="M1990.53 1727.97c2.37,-2.37 5.91,-3.56 8.28,-5.91 3.55,-1.19 2.36,-5.91 -1.19,-7.1 -5.91,-1.19 -9.46,0 -14.19,3.55 -5.91,4.73 1.19,14.19 7.1,9.47z"/>
   <path class="fil0" d="M1504.43 973.39c-16.56,4.73 -30.75,11.83 -46.12,17.74 -3.56,1.19 -1.19,5.92 2.36,4.73 15.38,-5.91 31.94,-9.47 47.31,-14.19 5.92,-2.37 2.37,-9.47 -3.55,-8.28z"/>
   <path class="fil0" d="M1897.1 881.13c-1.19,0 -2.37,1.19 -1.19,2.37 18.93,10.64 29.57,31.93 43.77,47.3 3.55,4.73 11.83,-1.18 7.1,-5.91 -13.01,-15.37 -27.21,-42.57 -49.68,-43.76z"/>
   <path class="fil0" d="M179.78 1858.07c5.91,1.19 9.46,-9.47 3.55,-10.65 -30.74,-9.46 -61.49,-18.92 -92.26,-28.38 -28.38,-8.28 -50.86,-5.91 -80.42,-7.1 -1.19,0 -1.19,1.19 0,1.19 27.2,9.47 56.77,11.83 85.15,21.29 27.21,9.46 54.4,18.92 83.98,23.65z"/>
   <path class="fil0" d="M243.64 1873.45c4.73,0 7.1,-5.92 3.56,-8.28 -3.56,-3.56 -5.91,-5.91 -10.65,-7.1 -4.72,-2.37 -9.46,-4.73 -14.19,-5.91 -4.72,-1.19 -8.28,4.72 -4.72,7.1 3.55,3.55 8.27,7.09 11.83,9.46 4.72,2.37 8.27,3.55 14.18,4.73z"/>
   <path class="fil0" d="M6251.88 998.23c33.12,-63.87 68.6,-125.37 119.46,-147.85 -46.12,-7.09 -115.91,79.24 -119.46,147.85z"/>
   <path class="fil0" d="M6434.03 2244.81c17.74,9.47 31.94,-2.36 46.13,1.19 50.86,11.83 68.59,72.15 105.26,95.8 5.91,-17.75 -35.49,-74.52 -65.05,-95.8 -29.57,-22.47 -85.15,-39.03 -86.34,-1.19z"/>
   <path class="fil0" d="M7669.98 1938.5c56.77,2.36 112.36,-16.56 166.76,-30.75 50.86,-13.01 91.08,-37.85 128.92,-73.33 8.28,-8.28 -1.19,-22.47 -11.83,-15.38 -43.77,33.12 -82.8,56.77 -136.01,73.33 -49.68,15.38 -95.8,35.49 -147.85,42.58 -2.37,-1.18 -2.37,2.37 0,3.56z"/>
   <path class="fil0" d="M7982.22 1804.84c7.1,3.56 16.56,-1.18 18.92,-8.28 3.56,-7.1 -1.18,-16.56 -8.27,-18.92 -7.1,-3.56 -16.56,1.18 -18.93,8.28 -3.55,7.09 0,15.37 8.28,18.92z"/>
   <path class="fil0" d="M8014.15 1764.63c46.13,-17.75 73.33,-87.52 87.52,-131.29 21.29,-63.87 23.66,-118.27 9.47,-183.32 0,-2.37 -4.73,-2.37 -3.56,0 7.1,68.6 2.37,127.74 -31.93,188.06 -22.47,40.21 -42.58,74.52 -72.15,109.99 -8.28,9.46 2.37,20.1 10.65,16.56z"/>
   <path class="fil0" d="M7652.24 1923.11c-106.45,-17.74 -210.53,-52.05 -308.7,-95.8 -10.65,-4.72 -21.29,11.83 -10.65,18.93 50.87,34.3 115.92,52.04 175.04,66.23 39.03,9.47 107.64,34.31 145.48,16.56 2.37,-2.37 2.37,-5.91 -1.18,-5.91z"/>
   <path class="fil0" d="M6451.76 1802.48c-2.36,-7.09 -14.19,-7.09 -16.55,0 -15.38,46.13 29.56,193.97 36.66,215.26 7.09,20.1 11.83,36.66 26.02,53.21 2.37,2.37 7.1,0 5.91,-3.55 -7.1,-21.29 -18.92,-53.22 -24.84,-74.51 -5.91,-21.29 -10.64,-46.13 -14.19,-68.6 -8.28,-43.76 0,-80.42 -13.01,-121.82z"/>
   <path class="fil0" d="M6450.59 1758.72c2.37,-4.73 3.55,-8.28 1.18,-13.01 -2.36,-3.55 -8.27,-3.55 -10.64,0 -2.37,3.56 -3.56,10.65 0,15.38 3.55,3.55 8.28,1.18 9.46,-2.37z"/>
   <path class="fil0" d="M6694.23 1531.63c-37.85,36.66 -76.88,62.68 -118.27,94.62 -36.66,29.56 -68.6,63.87 -109.99,88.7 -4.73,2.37 0,10.65 4.72,8.28 48.5,-22.47 82.8,-62.68 128.92,-89.88 41.4,-24.84 76.88,-52.05 104.08,-93.44 4.73,-8.28 -4.73,-14.19 -9.46,-8.28z"/>
   <path class="fil0" d="M6579.51 2208.15c15.37,31.94 27.2,61.5 36.66,95.8 1.18,2.37 3.55,1.19 4.72,0 8.28,-37.84 -14.19,-76.87 -28.38,-111.17 -14.19,-33.12 -33.11,-65.05 -61.49,-88.71 -7.1,-5.91 -17.75,4.73 -11.84,11.83 22.47,29.57 42.58,57.96 60.32,92.26z"/>
   <path class="fil0" d="M6632.73 958.01c-35.49,17.75 -66.24,49.68 -85.16,85.16 -2.36,3.55 3.56,8.27 7.1,5.91 23.66,-22.47 40.21,-53.22 68.6,-70.96 41.39,-24.84 82.79,-21.29 126.54,-5.92 2.37,1.19 3.56,-2.36 1.19,-3.55 -37.85,-18.93 -78.06,-31.93 -118.27,-10.65z"/>
   <path class="fil0" d="M6561.76 985.21c-3.55,5.91 3.56,11.84 8.28,5.91 22.47,-24.83 48.5,-48.49 81.61,-56.77 3.56,-1.18 2.37,-5.91 -1.18,-4.72 -35.48,2.36 -67.42,26.02 -88.71,55.58z"/>
   <path class="fil0" d="M7465.36 1706.67c-78.06,8.28 -144.29,-10.65 -218.8,-23.66 -5.91,-1.18 -9.47,8.28 -4.73,11.84 63.87,40.21 154.94,33.11 224.72,14.19 0,-1.18 0,-2.37 -1.19,-2.37z"/>
   <path class="fil0" d="M7192.15 1645.17c-9.46,-1.18 -15.37,11.84 -7.09,17.75 2.36,2.37 5.91,3.55 9.46,3.55 -1.19,0 -1.19,0 1.19,1.19 9.46,5.91 18.92,-5.91 10.64,-14.19 -4.72,-3.56 -8.28,-8.29 -14.19,-8.29z"/>
   <path class="fil0" d="M5565.91 1434.65c-4.73,0 -7.1,7.09 -2.37,9.46 14.19,5.91 27.21,13 43.77,15.38 2.37,0 2.37,-2.37 1.19,-3.56 -14.2,-9.46 -24.85,-20.1 -42.59,-21.28z"/>
   <path class="fil0" d="M5575.37 1466.58c-14.19,-3.55 -22.46,-15.38 -35.48,-21.29 -3.56,-1.18 -7.1,2.37 -4.73,5.91 9.47,10.65 23.66,17.75 39.03,18.93 2.37,1.18 3.55,-2.36 1.18,-3.55z"/>
   <path class="fil0" d="M5587.2 1503.25c-9.47,-1.19 -18.93,-4.73 -27.21,-7.1 -4.72,-2.37 -8.28,5.91 -3.55,8.28 10.65,4.73 18.92,5.91 30.75,5.91 3.55,-1.18 3.55,-5.9 0,-7.09z"/>
   <path class="fil0" d="M6496.71 799.52c44.94,-10.65 91.08,-14.19 136.02,-3.55 0,0 0,0 0,0 -42.59,-16.56 -96.99,-28.38 -139.57,-7.1 -5.91,2.37 -3.55,13.01 3.55,10.65z"/>
   <path class="fil0" d="M6219.95 1583.68c-28.38,35.48 -56.77,70.96 -80.42,109.99 -1.19,2.36 1.18,4.72 3.55,2.36 28.38,-35.48 65.05,-66.23 86.34,-106.45 2.36,-5.9 -5.92,-10.64 -9.47,-5.9z"/>
   <path class="fil0" d="M6133.61 1739.79c4.73,-11.83 -14.19,-20.1 -18.92,-8.28 -4.73,11.83 14.19,20.1 18.92,8.28z"/>
   <path class="fil0" d="M7030.12 1523.35c-20.1,4.73 -39.03,7.1 -59.14,9.47 -9.47,1.18 -8.28,16.55 2.37,15.37 21.28,-2.36 42.58,-8.28 57.95,-22.47 1.18,-1.18 1.18,-3.55 -1.18,-2.37z"/>
   <path class="fil0" d="M7345.91 1932.57c-46.13,11.84 -83.98,39.03 -130.1,50.86 -44.94,10.65 -88.71,22.47 -133.65,34.31 -8.28,2.36 -3.55,14.19 3.56,13 44.94,-3.55 91.07,-21.29 133.64,-34.3 46.13,-14.19 82.8,-44.94 127.74,-61.5 1.18,0 1.18,-2.37 -1.19,-2.37z"/>
   <path class="fil0" d="M7044.32 2024.83c-5.91,14.19 16.56,23.66 22.47,9.47 5.91,-14.2 -16.56,-23.66 -22.47,-9.47z"/>
   <path class="fil0" d="M7015.93 2026.02c-35.49,-1.19 -72.15,3.55 -108.81,4.72 -30.75,1.19 -75.7,3.56 -106.45,-4.72 -2.37,0 -2.37,2.36 -1.19,3.55 29.57,15.38 74.52,14.19 107.63,14.19 36.66,0 74.52,1.19 109.99,-8.28 4.74,-1.18 3.57,-9.46 -1.17,-9.46z"/>
   <path class="fil0" d="M5842.66 2256.65c18.93,-26.03 53.22,-15.38 80.43,-10.65 2.37,0 3.55,-3.55 1.19,-3.55 -28.38,-11.84 -68.6,-18.93 -89.89,8.27 -4.73,4.73 4.72,11.84 8.27,5.92z"/>
   <path class="fil0" d="M6772.29 2026.02c-16.56,-7.1 -41.39,-1.19 -59.14,1.18 -2.36,0 -2.36,3.56 0,3.56 10.65,0 21.29,0 31.94,1.18 8.28,1.19 17.74,3.56 26.02,3.56 4.73,-0.01 4.73,-8.29 1.18,-9.47z"/>
   <path class="fil0" d="M7186.24 1850.97c1.19,1.18 2.37,-1.19 1.19,-2.37 -20.1,-17.75 -43.77,-33.12 -63.87,-52.05 -20.1,-17.74 -37.85,-39.03 -60.32,-55.58 -4.72,-3.56 -10.64,2.36 -7.09,7.09 34.3,48.49 82.79,73.33 130.1,102.9z"/>
   <path class="fil0" d="M6837.33 1593.14c-5.91,0 -9.46,9.46 -3.55,11.83 35.49,10.65 74.51,16.56 106.45,39.03 26.02,18.92 50.86,40.21 75.7,60.31 2.36,2.37 5.91,-1.18 3.55,-3.55 -41.39,-57.95 -108.81,-102.89 -182.14,-107.63z"/>
   <path class="fil0" d="M7046.67 1718.5c0,-2.36 -1.18,-4.72 -2.36,-7.09 -5.91,-8.28 -18.93,-1.19 -17.75,8.27 0,5.92 4.73,11.84 11.84,10.65 4.73,-1.18 9.46,-5.91 8.27,-11.83z"/>
   <path class="fil0" d="M6437.57 1782.37c1.19,1.19 3.56,2.37 4.73,2.37l0 0c22.47,-5.91 -15.37,-21.29 -4.73,-2.37l0 0z"/>
   <path class="fil0" d="M6109.96 1775.27c7.1,24.84 31.93,41.4 42.58,65.06 11.83,26.02 21.29,52.04 31.94,78.05 2.36,5.92 9.46,2.37 8.27,-3.55 -9.46,-29.57 -15.37,-61.5 -29.56,-88.71 -10.65,-20.1 -26.03,-40.21 -40.22,-59.13 -4.72,-8.28 -14.18,0 -13,8.27z"/>
   <path class="fil0" d="M6249.53 1550.56c0,0 0,0 0,0 2.36,-2.37 -2.37,1.18 -3.56,1.18 -2.37,1.19 -2.37,3.56 -2.37,4.73 -1.18,1.18 0,3.55 2.37,4.72 1.19,1.19 3.56,2.37 5.91,1.19 4.73,-1.19 7.1,-2.37 9.47,-7.1 2.37,-5.91 -7.09,-10.64 -11.83,-4.72z"/>
   <path class="fil0" d="M5984.6 2185.68c24.84,30.75 54.4,74.52 67.42,113.55 1.18,3.55 4.72,1.18 4.72,-1.19 -3.55,-85.15 -86.34,-156.12 -141.92,-212.88 -9.47,-9.47 -26.03,1.18 -16.56,13 24.84,31.93 60.31,55.59 86.34,87.52z"/>
   <path class="fil0" d="M5885.25 2068.59c3.55,0 7.09,-2.37 7.09,-5.91 1.19,-2.37 1.19,-4.73 0,-7.1 0,0 0,-1.19 0,-1.19 -2.36,-4.72 -7.09,-5.91 -11.83,-3.55 0,0 -1.19,0 -1.19,1.18 -4.72,3.56 -3.55,10.65 0,14.2 1.19,0 3.55,2.37 5.92,2.37z"/>
   <path class="fil0" d="M5970.4 1383.8c-37.85,26.02 -70.96,57.95 -109.99,82.79 -26.02,16.56 -61.5,31.93 -80.43,56.77 0,0 0,1.19 0,1.19 72.15,-34.3 144.29,-69.78 201.06,-130.1 5.92,-7.1 -3.55,-15.38 -10.64,-10.65z"/>
   <path class="fil0" d="M5946.74 1737.43c-18.92,15.38 -53.22,0 -72.15,-7.09 -5.91,-2.37 -10.64,5.91 -4.72,9.46 17.74,10.65 70.96,29.57 79.24,0 0,-2.37 -1.18,-3.55 -2.37,-2.37z"/>
   <path class="fil0" d="M5869.87 1697.22c14.19,-1.19 28.38,-2.37 42.58,-1.19 3.55,0 4.73,-4.72 1.19,-5.91 -14.19,-1.18 -29.57,-1.18 -43.77,0 -4.73,1.19 -3.55,7.1 0,7.1z"/>
   <path class="fil0" d="M5872.24 2022.46c7.09,-16.56 -4.73,-34.3 -8.28,-50.86 -7.1,-23.65 -13.01,-47.3 -23.66,-69.77 0,-1.19 -2.37,-1.19 -2.37,1.18 8.28,39.03 18.93,78.06 23.66,118.27 0,5.91 8.28,7.09 10.65,1.18z"/>
   <path class="fil0" d="M5034.86 682.43c0,14.2 5.92,27.21 5.92,40.22 0,2.37 3.55,2.37 4.72,0 4.73,-14.19 2.37,-28.38 0,-42.58 0,-7.1 -10.65,-4.73 -10.65,2.36z"/>
   <path class="fil0" d="M4969.81 848.01c-39.02,0 -80.42,-2.36 -119.45,-8.28 -7.1,-1.18 -9.47,9.47 -3.56,11.84 20.11,9.46 43.77,8.28 65.06,7.1 20.1,-1.19 39.02,-1.19 56.77,-7.1 3.55,-1.19 3.55,-3.56 1.18,-3.56z"/>
   <path class="fil0" d="M4631.55 756.95c-7.1,-3.55 -13,7.1 -7.1,11.83 52.05,37.85 131.29,69.78 196.34,69.78 1.19,0 1.19,-1.19 0,-1.19 -66.23,-13 -130.1,-50.85 -189.23,-80.42z"/>
   <path class="fil0" d="M5439.36 878.77c-82.79,20.1 -172.67,9.47 -254.28,-7.1 -1.18,0 -1.18,1.19 0,1.19 80.43,29.57 172.67,44.94 257.84,23.66 9.46,-3.56 7.09,-21.29 -3.56,-17.75z"/>
   <path class="fil0" d="M5479.58 883.5c7.09,0 10.64,-8.28 4.72,-13.01 -2.37,-2.36 -4.72,-2.36 -8.28,-2.36 -4.72,0 -8.28,7.09 -4.72,11.83 2.36,1.18 4.72,3.55 8.28,3.55z"/>
   <path class="fil0" d="M5520.96 713.18c-1.19,3.56 4.73,4.73 5.91,1.19 11.83,-21.29 11.83,-46.13 2.37,-67.42 -2.37,-5.91 -10.65,-2.37 -9.47,2.37 1.19,21.28 5.92,43.77 1.19,63.86z"/>
   <path class="fil0" d="M6325.22 1764.63c-27.21,-2.37 -53.22,-11.83 -76.88,-24.84 -4.72,-2.37 -8.27,4.73 -4.72,7.1 24.84,16.56 52.05,22.47 81.61,21.29 2.37,-0.01 2.37,-3.56 0,-3.56z"/>
   <path class="fil0" d="M6257.8 1683.02c10.65,1.19 22.47,1.19 33.12,4.72 3.55,1.19 5.91,-3.55 2.37,-4.72 -10.65,-4.73 -22.47,-7.1 -34.3,-7.1 -5.91,0 -5.91,7.1 -1.19,7.1z"/>
   <path class="fil0" d="M6280.27 1714.95c-3.55,1.19 -4.72,5.92 -1.18,7.1 3.55,1.19 5.91,3.55 8.28,5.91 5.91,4.73 13,-4.72 7.09,-8.28 -4.72,-4.73 -8.27,-5.91 -14.19,-4.73z"/>
   <path class="fil0" d="M6773.47 973.39c-4.73,-1.19 -8.28,5.91 -3.56,8.28 15.38,5.91 31.94,8.28 47.31,14.19 3.55,1.19 5.91,-3.55 2.37,-4.73 -15.37,-5.91 -29.56,-13 -46.12,-17.74z"/>
   <path class="fil0" d="M6381.99 881.13c-22.47,1.19 -37.85,28.38 -50.86,43.77 -3.55,4.72 3.55,10.64 7.1,5.91 14.19,-15.38 24.83,-36.66 43.76,-47.31 1.18,0 1.18,-2.37 0,-2.37z"/>
   <path class="fil0" d="M8279.08 1040.8l0 0 0 -5.91c-56.77,-1.19 -113.54,-3.56 -170.31,-2.37 -101.71,2.37 -203.43,2.37 -302.78,-11.83 -3.55,-1.19 -7.09,-3.56 -10.64,-4.73 -4.73,-2.37 -9.47,-1.19 -13.01,1.19 -17.74,-2.37 -35.49,-5.91 -52.04,-9.47 -96.99,-8.28 -197.51,-22.47 -302.78,-43.77 -56.77,-11.83 -113.54,-24.83 -171.5,-33.11 -27.2,-3.56 -56.77,-9.47 -83.97,-14.19 -87.52,-16.56 -182.14,-39.03 -287.41,-75.7 -101.71,-35.49 -205.79,-92.26 -290.95,-96.98 -20.1,-1.19 -40.21,4.72 -55.59,0 -17.74,-4.73 -33.11,-18.93 -47.3,-24.84 -117.09,-54.4 -193.97,-23.66 -272.03,33.12 -144.29,-28.39 -404.5,-55.59 -574.8,-117.09 -41.4,-15.38 -83.98,-41.4 -123.01,-44.94 -29.57,-2.37 -63.87,10.65 -98.17,14.19 -62.68,7.1 -151.39,9.46 -218.8,15.38l37.84 -34.31 -3.55 -4.72 -44.94 39.03c-2.37,0 -5.91,0 -8.28,1.18 -44.94,3.56 -82.79,0 -130.1,-1.18 -59.14,-1.19 -124.19,11.83 -190.42,14.19l238.91 -316.98 -10.64 -8.28 -254.29 326.43c-23.65,1.19 -47.3,4.73 -70.96,8.28 0,0 -1.18,0 -1.18,0 -3.56,0 -8.28,0 -11.84,0l199.89 -308.69 -4.73 -3.56 -209.34 311.06c-21.29,0 -41.4,0 -62.68,1.18l76.87 -137.2 -11.83 -7.09 -83.98 144.29c-23.66,1.18 -47.31,2.36 -72.15,3.55l53.22 -113.54 -5.91 -2.37 -56.77 115.91c-15.38,0 -29.57,1.19 -44.94,1.19l214.06 -536.96 -11.83 -4.73 -230.63 542.87c-2.37,0 -4.73,0 -7.1,0 -5.91,0 -9.46,2.37 -10.65,8.28 -2.36,11.83 -2.36,21.29 2.37,29.57l-14.19 33.12 7.1 13c-5.91,3.55 -8.28,10.65 -4.73,16.56l36.66 63.87c2.37,3.55 5.91,5.91 10.65,5.91 2.37,0 4.73,0 5.91,-1.19 5.91,-3.55 8.28,-10.64 4.73,-16.56l-13.01 -23.65 24.84 -54.41c2.37,1.19 4.72,1.19 8.28,1.19 4.72,13 14.19,28.38 27.2,43.77l-40.21 68.59 11.83 20.1 41.4 -73.33c9.46,9.47 18.92,18.93 28.38,27.21l-44.94 66.24 -7.1 -11.84c-3.55,-5.91 -10.64,-8.28 -16.56,-4.72 -5.91,3.55 -8.28,10.64 -4.72,16.56l36.66 63.86c2.37,3.56 5.91,5.92 10.64,5.92 2.37,0 4.73,0 5.92,-1.19l10.64 17.74 82.8 -109.99c10.64,4.73 21.29,8.28 33.11,13.01l-102.89 118.27 2.36 3.55c0,0 0,0 0,0 -5.91,3.55 -8.27,10.65 -4.72,16.56l36.66 63.87c2.37,3.55 5.91,5.91 10.65,5.91 2.36,0 4.72,0 5.91,-1.19l8.28 14.19 215.25 -193.97c35.49,0 69.78,-3.55 100.53,-7.09l-301.59 227.08 1.18 2.37 0 0c-5.91,3.55 -8.28,10.65 -4.72,16.56l36.66 63.87c2.36,3.55 5.91,5.91 10.64,5.91 2.37,0 4.73,0 5.92,-1.19l7.09 13.01 437.61 -259.02 -7.1 -11.84 -431.68 243.65c0,-2.37 0,-3.56 -1.19,-5.91l-14.19 -24.84 341.8 -236.55 -3.55 -4.73 -344.17 230.63 -10.65 -17.74 320.52 -249.56c0,0 1.18,0 1.18,0 9.47,0 18.93,1.19 28.39,1.19 92.26,26.02 199.88,62.68 289.76,61.5l-593.72 290.95 4.72 8.28c-5.91,3.55 -8.28,10.65 -4.72,16.56l36.66 63.87c2.36,3.55 5.91,5.91 10.64,5.91 2.37,0 4.73,0 5.91,-1.19 0,0 0,0 0,0l0 1.19 391.48 -140.74 -2.36 -5.91 -384.39 131.29c0,-1.19 0,-1.19 -1.19,-2.37l-9.46 -16.56 756.94 -320.52c35.49,22.47 69.78,46.13 104.08,60.32 37.85,15.37 78.06,26.02 117.09,37.84 28.38,8.28 59.14,11.84 87.52,21.29 -76.87,67.42 -178.59,144.29 -261.38,210.53 -23.66,18.93 -52.05,39.03 -78.06,63.87l-642.22 79.24c1.19,-3.55 0,-5.91 -1.19,-9.47l-13 -21.28 689.53 -147.85 -1.19 -5.91 -697.81 137.2 -14.19 -24.84 450.62 -126.55 -3.55 -13 -470.72 123.01 5.91 10.65c0,0 0,0 0,0 -5.91,3.55 -8.28,10.64 -4.73,16.55l36.66 63.87c2.37,3.56 5.92,5.91 10.65,5.91 2.37,0 4.73,0 5.91,-1.18 0,0 0,0 0,0l10.65 18.92 619.75 -86.34c-27.2,30.75 -47.31,66.24 -48.49,113.55 -1.19,43.76 13,89.89 20.1,138.38l-516.86 -34.3 9.47 16.55 507.39 26.03c2.37,16.55 2.37,34.3 1.19,52.04 -14.19,5.91 -37.85,3.56 -59.14,10.65 -9.47,2.37 -17.75,7.1 -27.21,13l-382.01 -53.21 -22.47 -37.85c-3.56,-5.91 -10.65,-8.28 -16.56,-4.72 -5.91,3.55 -8.28,10.64 -4.72,16.55l36.65 63.87c2.37,3.56 5.92,5.91 10.65,5.91 2.37,0 4.73,0 5.91,-1.18 5.91,-3.56 7.1,-9.47 4.73,-15.38l344.17 42.58c-11.83,9.47 -24.84,18.93 -37.84,29.57 -10.65,8.28 -26.03,14.19 -37.85,20.1 -36.66,9.47 -80.43,26.02 -108.81,52.05l-91.07 -24.84 -31.94 -55.59c-3.55,-5.91 -10.64,-8.27 -16.55,-4.72 -5.92,3.55 -8.28,10.65 -4.73,16.56l36.66 63.87c2.37,3.55 5.91,5.91 10.65,5.91 2.36,0 4.72,0 5.91,-1.19 2.37,-1.18 3.55,-3.55 4.72,-5.91l74.52 18.93c-11.83,14.19 -17.75,31.93 -15.38,52.04l-15.37 -4.72 -8.28 -13.01c-3.56,-5.91 -10.65,-8.28 -16.56,-4.72 -5.91,3.55 -8.28,10.64 -4.73,16.56l36.66 63.86c2.37,3.56 5.91,5.92 10.65,5.92 2.37,0 4.73,0 5.91,-1.19 5.91,-3.55 8.28,-10.65 4.73,-16.56l-18.93 -34.3 8.28 2.37c17.74,50.86 86.34,55.58 146.66,47.3l202.25 65.05 2.37 -5.91 -183.32 -62.68c7.09,-1.19 14.19,-2.37 21.28,-4.73 8.28,0 16.56,0 24.84,-2.36 60.32,36.66 137.2,40.21 192.79,33.11 35.48,59.14 13,127.74 61.49,182.14 23.66,26.02 59.14,47.31 89.89,72.15 89.89,73.33 183.32,137.2 246,217.62 1.19,0 1.19,0 2.37,0 14.19,16.56 28.38,33.12 37.85,47.31 13,20.1 35.48,2.36 47.3,-16.56 16.56,-26.03 11.84,-56.77 -3.55,-83.98 26.02,-35.49 40.21,-82.79 33.11,-128.92 -17.74,-101.71 -152.57,-179.78 -176.22,-269.66 16.56,-1.18 36.66,5.92 54.4,8.28 13.01,24.84 37.85,46.13 57.96,75.7 16.56,23.66 31.93,57.96 55.59,75.7 60.31,41.39 157.3,49.68 221.16,68.59 24.84,7.1 55.59,11.84 72.15,21.29 24.84,14.19 48.49,59.14 68.59,86.34 16.56,22.47 34.3,56.77 53.22,75.7 5.91,9.46 13,20.1 20.1,29.56 13.01,17.75 21.29,36.66 33.12,55.59 4.72,8.28 11.83,18.92 23.65,16.56 57.96,-8.28 54.41,-78.06 33.12,-125.37 20.1,-27.2 34.3,-62.68 34.3,-92.26 1.19,-87.52 -61.49,-170.31 -100.53,-233 184.51,13.01 369.01,41.4 538.14,10.65 55.59,-10.65 113.55,-18.93 160.85,-37.85 29.57,-11.83 59.14,-30.74 93.43,-44.94 27.21,-10.64 70.96,-44.93 95.8,-41.39 11.83,1.19 29.57,13 44.94,18.93 143.11,52.04 280.3,10.64 406.86,-23.66 9.46,-2.37 18.92,-4.73 28.38,-7.1 28.38,-11.83 55.58,-23.65 83.97,-34.3 61.5,-10.65 176.23,-27.2 203.43,-33.12 23.66,-4.72 48.5,-9.46 72.15,-13l0 -24.84c-35.49,5.91 -69.77,13.01 -104.08,21.29 -40.21,9.47 -93.43,15.38 -132.46,26.02 -17.75,2.37 -35.49,4.73 -53.22,8.28 7.1,-5.91 15.37,-11.83 22.47,-18.92 41.39,-39.03 80.42,-80.43 109.99,-127.74 56.77,-89.88 91.07,-196.33 73.33,-303.96 -28.38,-167.94 -169.13,-303.96 -329.99,-364.28 26.03,2.37 53.22,2.37 78.06,4.72 37.85,3.56 186.88,0 335.9,-5.91l0.02 -39.04 1.18 0zm-3486.67 -365.46c17.74,21.29 18.92,46.13 -138.38,47.31 -23.66,-2.37 -49.68,-5.91 -73.33,-11.83 -1.19,-3.56 -3.56,-8.28 -4.73,-11.84 22.47,-21.29 70.96,-15.37 112.36,-20.1 40.21,-4.72 79.23,-4.72 104.08,-3.55zm-221.17 -9.46c-9.47,7.09 -16.56,17.74 -18.93,35.48 -20.1,-8.27 -35.49,-18.92 -43.77,-34.3 21.29,0 41.4,-1.18 62.69,-1.18zm-56.77 100.53l-16.56 -28.39c-1.18,-1.18 -2.37,-2.36 -3.55,-3.55l10.64 -27.2c8.28,5.91 20.11,10.64 31.94,14.19l-22.47 44.94zm93.43 160.84l-18.93 -33.11 47.31 -73.33c7.1,4.72 13.01,9.46 18.93,11.83 5.91,3.56 13,7.1 18.92,9.47l-66.23 85.14zm31.93 59.14l99.35 -118.26c20.1,5.91 39.03,10.64 59.14,14.19l-137.19 137.19 -16.56 -28.38c-1.19,-2.37 -3.55,-3.55 -4.73,-4.73zm42.58 78.06c1.19,-3.55 0,-5.91 -1.18,-9.46l-9.47 -16.56 147.85 -151.39c20.1,2.37 40.21,4.73 60.31,4.73l-197.51 172.67zm721.46 -151.39c-63.87,9.47 -151.39,-14.19 -231.81,-29.56 -42.58,-18.93 -94.62,-28.38 -139.56,-21.29 -2.37,0 -3.56,1.19 -4.73,2.37 -134.83,10.64 -366.64,-7.1 -438.79,-134.83 16.56,1.18 31.94,2.36 47.31,2.36 42.58,5.92 120.64,8.28 144.29,-7.09 18.93,-11.84 49.68,-41.4 21.29,-57.96 7.1,0 14.19,-1.19 21.29,-1.19 -1.19,1.19 -1.19,2.37 -1.19,3.56 1.19,10.64 4.73,18.92 1.19,28.38 -3.56,10.64 -8.28,20.1 -18.93,26.02 -2.36,1.19 -1.18,4.73 1.19,3.55 13,-3.55 21.29,-14.19 27.2,-26.02 4.73,-11.83 4.73,-22.47 2.37,-34.3 0,-1.19 0,-2.37 -1.18,-2.37 54.4,-4.72 112.35,-8.28 165.57,-11.83 23.66,-1.19 44.94,-11.83 65.06,-10.65 8.27,0 18.92,4.73 29.56,5.91 63.87,7.1 175.04,-7.09 243.65,-14.19 30.74,-3.55 66.23,-4.72 102.89,-9.46 33.12,-4.73 78.06,-14.19 104.08,-5.91 46.13,14.19 91.07,46.12 134.83,61.49 76.87,26.03 233,39.03 306.33,59.14 73.33,18.93 145.48,22.47 217.62,28.38 -85.15,117.09 -180.95,205.8 -279.12,290.96 -101.71,-31.94 -179.78,-29.57 -341.81,-118.27 -26.02,-14.19 -59.14,-34.3 -87.52,-41.39 -14.19,-3.56 -27.2,-1.19 -42.58,2.36l-1.19 -2.36 -11.83 5.91c-11.83,2.37 -23.65,5.92 -35.49,8.28zm175.05 42.59l-1.19 0c-4.72,-2.37 -9.46,-4.73 -13,-7.1 3.55,2.37 9.46,4.73 14.19,7.1zm-70.96 -31.94c-4.73,-1.18 -8.28,-2.37 -13.01,-3.55 1.19,0 3.56,0 4.73,0 2.36,0 4.72,1.18 8.28,3.55zm-703.73 345.36l-13 -23.66c0,-1.18 -1.19,-1.18 -1.19,-2.36l592.55 -302.78c9.46,0 17.74,-1.18 26.02,-2.36 14.19,-2.37 29.57,-7.1 44.94,-11.84 37.84,0 73.33,16.56 107.63,36.66l-756.95 306.33zm966.3 -227.09c-46.13,-13 -89.89,-28.38 -132.47,-50.86 -15.38,-8.28 -30.75,-17.74 -46.13,-27.2l1.19 0 -1.19 -2.37c17.75,8.28 33.12,16.56 41.4,20.1 52.04,24.84 112.35,50.86 171.5,67.42 -11.83,-1.18 -23.66,-4.73 -34.3,-7.1zm109.99 26.02c9.46,1.19 17.74,2.37 26.02,3.56 -1.19,1.18 -3.56,2.36 -4.73,4.72 -7.09,-3.55 -14.19,-5.91 -21.28,-8.28zm-507.39 866.94c-66.24,-16.56 -78.06,-76.87 -46.13,-120.64 -11.83,52.05 14.19,87.53 46.13,120.64zm-170.32 -57.96c17.74,-41.39 53.22,-55.58 89.89,-67.41 -28.38,49.68 -9.47,102.89 30.75,127.73 -65.05,-3.55 -140.74,-14.19 -120.64,-60.32zm159.67 13.01c-46.13,-89.88 55.58,-170.31 137.2,-172.67 5.91,88.71 56.77,159.67 76.87,243.65 -59.14,-1.19 -179.78,-3.56 -214.07,-70.97zm697.81 580.72c-1.19,2.37 -15.38,23.66 -21.29,18.93 -2.37,-1.19 -16.56,-20.1 -34.3,-40.21 18.92,-5.92 35.48,-17.75 50.86,-31.94 8.28,17.75 11.83,35.49 4.73,53.22zm-140.74 -495.55c-8.28,-18.93 -10.65,-40.22 -18.93,-60.32 18.93,20.1 39.03,40.21 52.05,62.68 -11.84,-3.55 -20.11,1.19 -33.12,-2.36zm689.53 487.27c-3.56,27.21 -17.75,44.94 -30.75,15.38 -3.56,-7.1 -5.91,-13 -10.65,-20.1 -7.1,-9.47 -13,-18.93 -21.29,-28.38 20.1,1.18 37.85,-7.1 54.41,-21.29 2.36,7.1 4.72,15.38 5.91,23.66 2.37,10.64 3.55,21.28 2.37,30.74zm1390.88 -1271.43c79.24,63.87 144.29,144.29 157.3,248.37 22.47,177.42 -87.52,357.19 -231.81,461.27 -42.58,13.01 -83.97,33.12 -128.92,42.59 -26.02,4.72 -55.58,4.72 -85.15,8.28 -57.96,7.09 -112.36,2.36 -179.78,-7.1 -56.77,-8.28 -114.73,-40.22 -169.13,-40.22 -4.72,16.56 24.84,20.11 40.22,28.38 -119.46,65.06 -253.1,106.45 -403.32,120.65 -149.02,14.19 -308.69,-29.57 -456.53,-2.37 -22.47,-89.89 -24.83,-186.87 -48.49,-275.58 65.05,-56.77 137.2,-98.17 205.79,-146.66 1.19,39.03 5.91,86.34 37.85,105.26 9.46,-40.21 -23.66,-86.33 0,-136.01 0,18.93 0,39.03 4.72,57.96 5.92,26.02 17.75,43.77 30.75,66.24 1.19,2.36 5.91,1.18 4.73,-2.37 -9.47,-26.03 -22.47,-46.13 -26.02,-74.52 -2.37,-21.29 -1.19,-41.39 -1.19,-62.68 14.19,-4.73 29.57,1.19 44.94,0 35.49,-1.19 62.68,-10.65 112.35,14.19 108.81,53.22 192.79,150.2 286.22,219.99 31.93,23.66 67.42,56.77 111.18,54.41 -4.73,-17.75 -27.21,-22.47 -39.03,-30.75 -63.87,-44.94 -118.27,-99.35 -177.41,-149.02 14.19,8.28 28.38,17.74 41.39,27.2 42.58,31.94 82.8,54.41 130.1,76.88 3.56,2.36 8.28,-4.73 3.56,-7.1 -42.59,-26.03 -80.43,-57.96 -119.46,-88.71 170.32,76.88 348.91,109.99 470.72,30.75 -66.23,-16.56 -126.55,13 -196.34,11.83 -151.38,-2.36 -294.49,-104.08 -455.34,-159.67 14.19,1.19 27.2,2.37 40.21,5.92 41.39,9.46 80.43,37.84 121.82,39.02 2.37,0 3.56,-2.36 1.19,-3.55 -40.22,-20.1 -75.7,-47.31 -120.64,-56.77 -29.57,-5.91 -62.69,-10.65 -94.62,-10.65 66.24,-40.21 146.66,-83.97 197.51,-173.86 -24.84,-4.72 -43.77,18.93 -60.32,33.12 -78.06,68.59 -159.66,137.2 -266.11,144.29 41.4,-15.38 79.24,-36.66 112.36,-66.24 39.02,-34.3 65.05,-73.33 100.53,-109.98 1.18,-1.19 -1.19,-2.37 -2.37,-2.37 -40.22,27.2 -69.78,67.42 -112.36,93.43 -23.65,15.38 -49.68,26.02 -74.51,36.66 34.3,-48.49 65.05,-109.99 43.76,-156.13 -54.4,120.64 -124.19,214.08 -210.53,272.03 -37.84,26.02 -82.79,59.14 -127.73,92.26 -54.4,40.21 -46.12,73.33 -34.3,131.29 14.19,66.23 15.38,149.02 39.03,206.97 21.28,52.05 59.14,86.34 82.79,136.01 18.93,39.03 40.21,104.08 24.84,149.02 -3.56,9.47 -8.28,18.93 -16.56,28.39 -3.55,-5.92 -7.1,-10.65 -11.83,-14.2 -4.73,-4.72 -11.84,2.37 -9.47,7.1 2.37,7.1 4.73,14.19 7.1,22.47 -14.19,13.01 -31.93,21.29 -43.77,18.93 -23.65,-4.73 -43.76,-48.5 -59.14,-67.42 -22.47,-28.38 -37.84,-44.94 -56.77,-66.24 -1.18,-1.18 -1.18,-2.37 -2.37,-2.37 0,-5.91 1.19,-11.83 2.37,-18.92 1.19,-5.91 -8.28,-8.28 -9.46,-2.37 -1.19,3.56 -2.37,5.91 -3.56,8.28 -1.18,-1.19 -2.36,-2.37 -3.55,-3.55 0,-1.19 0,-1.19 0,-2.37 -2.37,-5.91 2.37,-13.01 5.91,-17.74 11.83,-15.38 28.38,-16.56 46.13,-18.93 1.18,0 1.18,-2.37 0,-2.37 -18.93,-4.72 -39.03,-5.91 -53.22,7.1 -5.91,4.72 -11.84,11.83 -14.19,20.1 -37.85,-36.66 -80.43,-69.77 -100.53,-107.63 -18.93,-35.49 -24.84,-108.81 -42.58,-165.58 -18.93,-61.5 -42.58,-115.91 -49.68,-167.95 -4.73,-39.02 2.37,-102.89 23.65,-140.73 9.47,-16.56 27.21,-29.57 40.22,-47.31 60.31,-85.15 121.82,-195.15 171.5,-296.86 20.1,-40.22 42.58,-94.62 27.2,-127.74 -36.66,15.38 -39.02,73.33 -50.86,102.9 -31.93,78.06 -83.97,175.04 -131.28,247.19 -31.94,48.49 -75.7,87.52 -111.18,151.39 -11.83,20.1 -30.75,43.76 -33.12,59.14 -3.55,17.74 22.47,60.31 35.49,89.88 14.19,33.12 27.21,66.24 35.49,89.89 22.47,62.68 34.3,131.29 54.4,184.51 16.56,42.58 46.13,72.14 83.98,106.45 -83.98,-36.66 -179.78,-30.75 -250.74,-80.43 -18.93,-13.01 -35.49,-52.05 -52.05,-76.87 -18.92,-27.21 -37.84,-53.22 -53.22,-74.52 -42.58,-56.77 -81.6,-98.17 -113.54,-145.48 -31.93,-47.3 -56.77,-128.92 -30.75,-198.69 15.38,-42.58 65.05,-93.43 99.36,-127.74 35.48,-36.66 72.14,-79.24 102.89,-117.08 66.24,-79.24 139.57,-177.42 147.85,-301.6 -40.22,24.84 -54.41,83.98 -76.88,130.11 -42.58,86.33 -112.35,152.57 -159.66,218.8 -26.03,7.1 -57.96,30.75 -88.71,53.22 -27.2,20.1 -70.96,43.77 -81.61,70.96 -13,30.75 15.38,79.24 15.38,111.18 -2.37,44.94 -3.56,80.43 10.64,120.64 5.92,16.56 21.29,28.38 27.21,46.12 5.91,15.38 3.55,35.49 9.46,53.22 5.92,16.56 15.38,31.94 20.11,48.49 14.19,46.13 15.37,92.26 44.94,131.29 48.49,65.05 143.11,128.92 152.57,204.62 4.72,31.93 -5.92,67.42 -24.84,95.8 -4.73,-5.91 -10.65,-10.65 -16.56,-15.38 -10.65,-17.74 -22.47,-35.49 -36.66,-50.86 -8.28,-10.65 -16.56,-21.29 -24.84,-28.38 -39.02,-35.49 -117.08,-67.42 -130.1,-7.1 18.93,3.56 31.94,-9.46 49.68,-8.28 52.05,16.56 78.06,49.68 107.63,74.52 -1.18,1.19 -1.18,2.37 0,4.72 10.65,13.01 26.03,28.39 39.03,46.13 -14.19,16.56 -33.12,29.57 -53.22,35.49 -60.31,-85.15 -141.92,-138.38 -231.81,-211.71 -31.93,-24.84 -70.96,-49.68 -92.26,-78.06 -28.38,-39.03 -26.02,-100.53 -43.77,-153.76 -15.37,-49.68 -39.02,-104.08 -57.95,-149.02 -23.66,-55.59 -33.12,-104.08 -36.66,-157.3 -2.37,-27.2 -3.56,-54.4 -9.47,-82.79 -7.1,-37.85 -26.02,-79.25 -13,-124.19 23.65,-76.88 117.08,-138.38 176.22,-188.06 31.94,-27.21 65.05,-50.86 95.8,-76.88 30.75,-27.2 61.5,-56.77 93.43,-80.42 13.01,-9.47 27.21,-17.75 41.4,-27.21 3.55,0 7.1,-2.37 9.46,-5.91 16.56,-10.65 34.31,-21.29 49.68,-33.12 61.5,-48.49 131.29,-106.45 182.14,-173.85 57.96,-76.88 125.37,-164.41 218.81,-164.41 40.21,0 86.34,20.1 126.54,29.57 -18.92,10.65 -57.95,14.19 -75.69,43.77 24.83,10.64 49.68,-10.65 69.77,-14.19 40.22,-8.28 102.9,-9.47 152.57,2.36 66.24,15.38 128.92,55.59 190.42,78.06 164.4,60.32 335.89,76.88 503.84,120.64 126.55,33.12 249.56,56.78 367.83,70.97 4.72,0 9.46,1.18 13,1.18 0,0 0,0 0,0 44.94,27.21 100.53,33.12 149.02,53.22 48.5,20.1 92.26,49.66 132.47,82.78zm-1826.13 574.8c-2.37,-9.46 -8.28,-17.74 1.18,-30.74 5.91,5.9 3.55,27.2 -1.18,30.74zm-352.45 -188.05c13,-33.12 88.7,-67.42 102.89,-81.61 -37.84,36.66 -66.23,95.8 -100.53,144.29 7.1,-24.84 -10.64,-40.22 -2.36,-62.68z"/>
   <path class="fil0" d="M8095.76 1847.42c-5.91,2.37 -3.55,11.84 3.56,10.65 29.56,-4.73 56.77,-14.19 85.15,-24.84 28.38,-9.46 56.77,-11.83 85.15,-21.29 1.19,0 0,-1.18 0,-1.18 -29.57,2.37 -50.86,-1.19 -80.43,7.1 -31.93,9.46 -62.68,20.1 -93.43,29.56z"/>
   <path class="fil0" d="M8056.73 1850.97c-4.72,1.18 -9.46,3.55 -14.19,5.91 -3.55,2.37 -7.09,4.72 -10.64,7.1 -3.56,3.55 -1.19,9.46 3.55,8.27 4.73,0 9.47,-1.18 13.01,-4.72 4.72,-3.55 8.27,-5.91 11.83,-9.47 4.72,-3.55 1.18,-9.47 -3.56,-7.09z"/>
  </g>
 </g>
</svg>
