<?xml version="1.0" encoding="utf-8"?>
<!-- Generator: Adobe Illustrator 24.0.2, SVG Export Plug-In . SVG Version: 6.00 Build 0)  -->
<svg version="1.1"
	 id="Слой_1" shape-rendering="geometricPrecision" image-rendering="optimizeQuality" text-rendering="geometricPrecision" xmlns:xodm="http://www.corel.com/coreldraw/odm/2003"
	 xmlns="http://www.w3.org/2000/svg" xmlns:xlink="http://www.w3.org/1999/xlink" x="0px" y="0px" viewBox="0 0 238.1 150.2"
	 style="enable-background:new 0 0 238.1 150.2;" xml:space="preserve">
<style type="text/css">
	.st0{fill-rule:evenodd;clip-rule:evenodd;fill:#1A1A1A;}
</style>
<g id="Layer_x0020_1">
	<g>
		<path class="st0" d="M77.9,122.8c-0.4-0.2-2.2-2.2-2.8-2.7c-0.3-0.3-0.4-0.5-0.7-0.7c-1-0.6-0.1-0.7,0.5-1.3
			c0.7-0.7,0.9-1.1,1.9-2.1l4-4c0.5-0.5,0.9-0.9,1.4-1.3c1-1,1.5-1.7,2.6-2.8c0.3-0.3,0.5-0.4,0.7-0.7c0.6-0.7,1.2-1.1,1.2-1.6
			c0-0.6-2.5-2.6-3.2-3.5c-1.2-1.4-1-0.5-1.4-1.4c-0.5,0.6-0.4,0.3-0.9,0.8l-6.4,6.4c-0.4,0.5-0.6,0.3-1,0.7c-0.3,0.3-0.3,0.5-0.7,1
			l-7.2,7.2c-0.3,0.5-0.2,0.5-0.7,0.9c-1.3,1.3-2.1,1.7-1.2,2.7c1,1.2,3.9,3.5,4.7,4.9c0.3,0.5,1.1,1.2,1.5,1.6
			c1.1,1.1,2.1,2.1,3.2,3.2c0.4,0.5,0.4,0.4,0.9,0.7c0.3,0.2,0.5,0.5,0.8,0.7c0.4,0.4,1.3,1.2,1.6,1.6c0.7,1.1,0.6,0.8,1.5,1.8
			l4.7,4.8c0.8,0.8,1,0.9,1.6,1.7l3.1,3.2c1.3,1.3,2.4,3.3,3.5,2.2c0.3-0.3,0.4-0.5,0.8-0.9l3.9-3.9c-0.3-1.1-1-1.5-1.6-2.2
			l-5.6-5.6c-0.4-0.4-0.6-0.5-0.9-1c-0.4-0.6-1.3-1.3-1.8-1.9c-0.3-0.4-0.6-0.6-0.9-1c-4.6-4.6-3.9-3.5-2.7-5c1.5-2,1.2-1.4,3-3.2
			l3.2-3.2c1.4-1.2,1-1.6-0.3-2.9c-1.7-1.7-1.5-2.2-3.2-0.5c-1.3,1.3-0.9,1.3-2.7,3.1c-0.3,0.3-0.4,0.4-0.7,0.7l-2.1,2.2
			C79,121.9,78.6,122.6,77.9,122.8L77.9,122.8z M62.7,33.8c0.5-0.3,0.6-0.9,0.9-1.4c0.2-0.3,0.7-0.8,1-1.1c0.7-0.7,1.4-1.4,2.1-2.1
			c0.7-0.7,1.4-1.4,2.1-2.1c2.2-2.2,2.1-2.7,3.4-1.3c0.3,0.4,0.7,0.5,1,0.9c0.4,0.4,0.7,0.5,1.1,0.9c1.2,1.2,1,1.2-0.2,2.4
			c-1.7,1.7-1.2,1-1.8,1.6c-1.1,1-0.8,1.2-1.6,1.8c-1,0.8-5.4,5.5-6.8,6.8c-0.4,0.4-0.6,0.8-1,1.2c-0.5,0.6-0.6,0.7,0,1.3l2.3,2.3
			c1.3,1.6,1.8,2,2.8,1.2l0.4-0.3c0.8-0.8,1.2-1.4,1.6-1.8c0.8-0.8,1.5-1.5,2.3-2.3c0.6-0.6,0.7-0.2,1.2-1.1
			c0.3-0.5,2.8-2.9,3.3-3.4l4.5-4.5c0.5-0.7,0.5-0.7,1.1-1.3c4-4,3.9-3,1.6-5.3c-0.3-0.3-0.6-0.6-0.9-0.9c-0.6-0.6-0.4-0.6-0.7-0.9
			c-0.5-0.5-1.2-1.1-1.7-1.7c-1.4-1.4-4.8-4.6-5.8-6.1c-0.7-1-2.4-2.2-2.6-2.4L67,9.1c-0.3-0.3-0.4-0.6-0.8-1
			c-1.2-1.2-3.3-3.1-4.2-4.3c-0.8-1.1-2.1-2.1-3.1-3l-0.4-0.4l-0.3,0.3c-0.4,0.4-0.3,0.2-0.8,0.8c-0.5,0.7-1.4,1.4-2,2
			c-2.6,2.6-2.8,2.3-0.7,4.4C55,8,55.3,8.2,55.4,8.3c0.2,0.3,0.2,0.4,0.4,0.6c0.2,0.3,0.7,0.6,1.1,0.9l7.7,8.1
			c3.8,3.8,3.8,3,1.6,5.2c-0.4,0.4-0.6,0.6-1,1c-0.4,0.4-0.5,0.7-0.8,1.1c-0.6,0.7-1.3,1.3-2,2c-1.5,1.5-2.9,2.3-2.3,3.3
			c0.1,0.2,0.8,0.8,1,1c1.3,1.3,0.8,0.7,1.6,2.1C62.6,33.7,62.6,33.7,62.7,33.8C62.6,33.7,62.7,33.8,62.7,33.8L62.7,33.8z
			 M46.9,30.4c-0.4-0.2-2.2-2.2-2.8-2.7c-0.3-0.3-0.4-0.5-0.7-0.7c-1-0.6-0.1-0.7,0.5-1.3c0.7-0.7,0.9-1.1,1.9-2.1l4-4
			c0.5-0.5,0.9-0.9,1.4-1.3c1-1,1.5-1.7,2.6-2.8c0.3-0.3,0.5-0.4,0.7-0.7c0.6-0.7,1.2-1.1,1.2-1.6c0-0.6-2.5-2.6-3.2-3.5
			c-1.2-1.4-1-0.5-1.4-1.4c-0.5,0.6-0.4,0.3-0.9,0.8l-6.4,6.4c-0.4,0.5-0.6,0.3-1,0.7c-0.3,0.3-0.3,0.5-0.7,1l-7.2,7.2
			c-0.3,0.5-0.2,0.5-0.7,0.9c-1.3,1.3-2.1,1.7-1.2,2.7c1,1.2,3.9,3.5,4.7,4.9c0.3,0.5,1.1,1.2,1.5,1.6c1.1,1.1,2.1,2.1,3.2,3.2
			c0.4,0.5,0.4,0.4,0.9,0.7c0.3,0.2,0.5,0.5,0.8,0.7c0.4,0.4,1.3,1.2,1.6,1.6c0.7,1.1,0.6,0.8,1.5,1.8l4.7,4.8
			c0.8,0.8,1,0.9,1.6,1.7l3.1,3.2c1.3,1.3,2.4,3.3,3.5,2.2c0.3-0.3,0.4-0.5,0.8-0.9l3.9-3.9c-0.3-1.1-1-1.5-1.6-2.2l-5.6-5.6
			c-0.4-0.4-0.6-0.5-0.9-1c-0.4-0.6-1.3-1.3-1.8-1.9c-0.3-0.4-0.6-0.6-0.9-1c-4.6-4.6-3.9-3.5-2.7-5c1.5-2,1.2-1.4,3-3.2l3.2-3.2
			c1.4-1.2,1-1.6-0.3-2.9c-1.7-1.7-1.5-2.2-3.2-0.5c-1.3,1.3-0.9,1.3-2.7,3.1c-0.3,0.3-0.4,0.4-0.7,0.7l-2.1,2.2
			C48,29.6,47.5,30.2,46.9,30.4z M33,65.8c0.5-0.3,0.6-0.9,0.9-1.4c0.2-0.3,0.7-0.8,1-1.1c0.7-0.7,1.4-1.4,2.1-2.1
			c0.7-0.7,1.4-1.4,2.1-2.1c2.2-2.2,2.1-2.7,3.4-1.3c0.3,0.4,0.7,0.5,1,0.9c0.4,0.4,0.7,0.5,1.1,0.9c1.2,1.2,1,1.2-0.2,2.4
			c-1.7,1.7-1.2,1-1.8,1.6c-1.1,1-0.8,1.2-1.6,1.8c-1,0.8-5.4,5.5-6.8,6.8c-0.4,0.4-0.6,0.8-1,1.2c-0.5,0.6-0.6,0.7,0,1.3l2.3,2.3
			c1.3,1.6,1.8,2,2.8,1.2l0.4-0.3c0.8-0.8,1.2-1.4,1.6-1.8c0.8-0.8,1.5-1.5,2.3-2.3c0.6-0.6,0.7-0.2,1.2-1.1
			c0.3-0.5,2.8-2.9,3.3-3.4l4.5-4.5c0.5-0.7,0.5-0.7,1.1-1.3c4-4,3.9-3,1.6-5.3c-0.3-0.3-0.6-0.6-0.9-0.9c-0.6-0.6-0.4-0.6-0.7-0.9
			c-0.5-0.5-1.2-1.1-1.7-1.7c-1.4-1.4-4.8-4.6-5.8-6.1c-0.7-1-2.4-2.2-2.6-2.4l-5.2-5.2c-0.3-0.3-0.4-0.6-0.8-1
			c-1.2-1.2-3.3-3.1-4.2-4.3c-0.8-1.1-2.1-2.1-3.1-3l-0.4-0.4l-0.3,0.3c-0.4,0.4-0.3,0.2-0.8,0.8c-0.5,0.7-1.4,1.4-2,2
			c-2.6,2.6-2.8,2.3-0.7,4.4c0.2,0.2,0.4,0.4,0.5,0.5c0.2,0.3,0.2,0.4,0.4,0.6c0.2,0.3,0.7,0.6,1.1,0.9l7.7,8.1
			c3.8,3.8,3.8,3,1.6,5.2c-0.4,0.4-0.6,0.6-1,1c-0.4,0.4-0.5,0.7-0.8,1.1c-0.6,0.7-1.3,1.3-2,2c-1.5,1.5-2.9,2.3-2.3,3.3
			c0.1,0.2,0.8,0.8,1,1c1.3,1.3,0.8,0.7,1.6,2.1C32.9,65.7,32.9,65.8,33,65.8C32.9,65.7,33,65.8,33,65.8z M17.2,62.4
			c-0.4-0.2-2.2-2.2-2.8-2.7c-0.3-0.3-0.4-0.5-0.7-0.7c-1-0.6-0.1-0.7,0.5-1.3c0.7-0.7,0.9-1.1,1.9-2.1l4-4c0.5-0.5,0.9-0.9,1.4-1.3
			c1-1,1.5-1.7,2.6-2.8c0.3-0.3,0.5-0.4,0.7-0.7c0.6-0.7,1.2-1.1,1.2-1.6c0-0.6-2.5-2.6-3.2-3.5c-1.2-1.4-1-0.5-1.4-1.4
			c-0.5,0.6-0.4,0.3-0.9,0.8L14,47.6c-0.4,0.5-0.6,0.3-1,0.7c-0.3,0.3-0.3,0.5-0.7,1l-7.2,7.2c-0.3,0.5-0.2,0.5-0.7,0.9
			C3.1,58.5,2.4,59,3.2,60c1,1.2,3.9,3.5,4.7,4.9c0.3,0.5,1.1,1.2,1.5,1.6c1.1,1.1,2.1,2.1,3.2,3.2c0.4,0.5,0.4,0.4,0.9,0.7
			c0.3,0.2,0.5,0.5,0.8,0.7c0.4,0.4,1.3,1.2,1.6,1.6c0.7,1.1,0.6,0.8,1.5,1.8l4.7,4.8c0.8,0.8,1,0.9,1.6,1.7l3.1,3.2
			c1.3,1.3,2.4,3.3,3.5,2.2c0.3-0.3,0.4-0.5,0.8-0.9l3.9-3.9c-0.3-1.1-1-1.5-1.6-2.2L28,73.8c-0.4-0.4-0.6-0.5-0.9-1
			c-0.4-0.6-1.3-1.3-1.8-1.9c-0.3-0.4-0.6-0.6-0.9-1c-4.6-4.6-3.9-3.5-2.7-5c1.5-2,1.2-1.4,3-3.2l3.2-3.2c1.4-1.2,1-1.6-0.3-2.9
			c-1.7-1.7-1.5-2.2-3.2-0.5c-1.3,1.3-0.9,1.3-2.7,3.1c-0.3,0.3-0.4,0.4-0.7,0.7l-2.1,2.2C18.3,61.6,17.8,62.2,17.2,62.4z
			 M63.4,96.2c0.5-0.3,0.6-0.9,0.9-1.4c0.2-0.3,0.7-0.8,1-1.1c0.7-0.7,1.4-1.4,2.1-2.1c0.7-0.7,1.4-1.4,2.1-2.1
			c2.2-2.2,2.1-2.7,3.4-1.3c0.3,0.4,0.7,0.5,1,0.9c0.4,0.4,0.7,0.5,1.1,0.9c1.2,1.2,1,1.2-0.2,2.4c-1.7,1.7-1.2,1-1.8,1.6
			c-1.1,1-0.8,1.2-1.6,1.8c-1,0.8-5.4,5.5-6.8,6.8c-0.4,0.4-0.6,0.8-1,1.2c-0.5,0.6-0.6,0.7,0,1.3l2.3,2.3c1.3,1.6,1.8,2,2.8,1.2
			l0.4-0.3c0.8-0.8,1.2-1.4,1.6-1.8c0.8-0.8,1.5-1.5,2.3-2.3c0.6-0.6,0.7-0.2,1.2-1.1c0.3-0.5,2.8-2.9,3.3-3.4l4.5-4.5
			c0.5-0.7,0.5-0.7,1.1-1.3c4-4,3.9-3,1.6-5.3c-0.3-0.3-0.6-0.6-0.9-0.9c-0.6-0.6-0.4-0.6-0.7-0.9c-0.5-0.5-1.2-1.1-1.7-1.7
			c-1.4-1.4-4.8-4.6-5.8-6.1c-0.7-1-2.4-2.2-2.6-2.4l-5.2-5.2c-0.3-0.3-0.4-0.6-0.8-1c-1.2-1.2-3.3-3.1-4.2-4.3
			c-0.8-1.1-2.1-2.1-3.1-3l-0.4-0.4L59,63c-0.4,0.4-0.3,0.2-0.8,0.8c-0.5,0.7-1.4,1.4-2,2c-2.6,2.6-2.8,2.3-0.7,4.4
			c0.2,0.2,0.4,0.4,0.5,0.5c0.2,0.3,0.2,0.4,0.4,0.6c0.2,0.3,0.7,0.6,1.1,0.9l7.7,8.1c3.8,3.8,3.8,3,1.6,5.2c-0.4,0.4-0.6,0.6-1,1
			c-0.4,0.4-0.5,0.7-0.8,1.1c-0.6,0.7-1.3,1.3-2,2c-1.5,1.5-2.9,2.3-2.3,3.3c0.1,0.2,0.8,0.8,1,1c1.3,1.3,0.8,0.7,1.6,2.1
			C63.3,96,63.3,96.1,63.4,96.2C63.3,96.1,63.3,96.1,63.4,96.2L63.4,96.2z M47.5,92.8c-0.4-0.2-2.2-2.2-2.8-2.7
			c-0.3-0.3-0.4-0.5-0.7-0.7c-1-0.6-0.1-0.7,0.5-1.3c0.7-0.7,0.9-1.1,1.9-2.1l4-4c0.5-0.5,0.9-0.9,1.4-1.3c1-1,1.5-1.7,2.6-2.8
			c0.3-0.3,0.5-0.4,0.7-0.7c0.6-0.7,1.2-1.1,1.2-1.6c0-0.6-2.5-2.6-3.2-3.5c-1.2-1.4-1-0.5-1.4-1.4c-0.5,0.6-0.4,0.3-0.9,0.8
			l-6.4,6.4c-0.4,0.5-0.6,0.3-1,0.7c-0.3,0.3-0.3,0.5-0.7,1l-7.2,7.2c-0.3,0.5-0.2,0.5-0.7,0.9c-1.3,1.3-2.1,1.7-1.2,2.7
			c1,1.2,3.9,3.5,4.7,4.9c0.3,0.5,1.1,1.2,1.5,1.6c1.1,1.1,2.1,2.1,3.2,3.2c0.4,0.5,0.4,0.4,0.9,0.7c0.3,0.2,0.5,0.5,0.8,0.7
			c0.4,0.4,1.3,1.2,1.6,1.6c0.7,1.1,0.6,0.8,1.5,1.8l4.7,4.8c0.8,0.8,1,0.9,1.6,1.7l3.1,3.2c1.3,1.3,2.4,3.3,3.5,2.2
			c0.3-0.3,0.4-0.5,0.8-0.9l3.9-3.9c-0.3-1.1-1-1.5-1.6-2.2l-5.6-5.6c-0.4-0.4-0.6-0.5-0.9-1c-0.4-0.6-1.3-1.3-1.8-1.9
			c-0.3-0.4-0.6-0.6-0.9-1c-4.6-4.6-3.9-3.5-2.7-5c1.5-2,1.2-1.4,3-3.2l3.2-3.2c1.4-1.2,1-1.6-0.3-2.9c-1.7-1.7-1.5-2.2-3.2-0.5
			c-1.3,1.3-0.9,1.3-2.7,3.1c-0.3,0.3-0.4,0.4-0.7,0.7l-2.1,2.2C48.7,91.9,48.2,92.6,47.5,92.8z M215.9,0.3h-2.6
			c0.1,0.4,0.9,1.2,1.3,1.4C215.5,1.9,216,1.1,215.9,0.3z M155.4,0.3h-2.6c0.1,0.4,0.9,1.2,1.3,1.4C155,2,155.4,1.1,155.4,0.3z
			 M94.8,0.3h-2.6c0.1,0.4,0.9,1.2,1.3,1.4C94.5,2,94.9,1.1,94.8,0.3z M34.3,0.3h-2.6c0.1,0.4,0.9,1.2,1.3,1.4c0.5,0.1,0.8,0,1-0.3
			C34.3,1,34.3,0.8,34.3,0.3z M237.3,127.6C237.3,127.6,237.2,127.6,237.3,127.6c-1.1-0.1-1.8,1.4-1.8,1.7c0,0.5,1.5,1.7,1.8,1.8
			L237.3,127.6z M237.3,69.4l0-3.7c-0.8-0.1-1.9,1.2-1.8,1.8c0.1,0.3,0.6,0.7,0.9,1C236.8,69,236.6,69.2,237.3,69.4z M236,4.5
			c0,0.8-1,0.9-0.1,1.7c0.6,0.5,0.9,0.9,1.5,1.3v-4l-1.1,0.6c0,0,0,0-0.1,0.1C236.1,4.3,236,4.5,236,4.5z M233.3,149.9h4
			c0-0.3,0-0.3,0.1-0.5l0.1-0.3c0-0.2-0.1,0-0.1-1c0-0.8,0-1.6,0-2.3c-0.8,0.3-1.5,1.1-2.2,1.9l-1.4,1.3c-0.2,0.3-0.1,0.3-0.2,0.6
			L233.3,149.9L233.3,149.9z M0.5,53.5c0.4-0.2,0.4-0.3,0.7-0.5c0.3-0.4,0.2-0.4,0.5-0.7c0.7-0.9,3.3-2.9,3.1-3.5
			c-0.1-0.4-3.1-3.1-3.6-3.7c-0.3-0.4-0.2-0.5-0.6-0.6C0.6,45.5,0.6,52.7,0.5,53.5z M112.3,149.9h6.4c0.5-1.5,1.2-1.3-0.2-2.7
			c-0.4-0.4-1.6-1.5-1.9-2c-0.9,0.2-1.9,1.5-2.5,2.1C113.2,148.3,112.3,149,112.3,149.9z M51.8,149.9h6.4c0.4-1.5,1.2-1.3-0.2-2.7
			c-0.5-0.5-1.4-1.6-2.1-2c-1,0.6-1.5,1.3-2.3,2.1C52.7,148.3,51.7,149,51.8,149.9z M172.9,149.9h6.4c0.4-1.5,1.2-1.3-0.2-2.7
			c-0.5-0.5-1.4-1.6-2.1-2c-1,0.6-1.6,1.4-2.4,2.1C173.7,148.4,172.8,149,172.9,149.9z M235,133.7c-0.2-0.5-0.2-0.7-0.6-0.9
			c-0.1-0.4-1-1.2-1.3-1.2c-0.4,0.2-1.1,0.9-1.4,1.3c-0.2,0.2-0.4,0.5-0.6,0.8l-5.3,5.3c-0.3,0.3-0.2,0.4-0.6,0.7
			c-1,0.8-1.5,1.7-1.9,2.1c-0.2,0.2-0.4,0.4-0.7,0.6l-5.6,5.4c-1.2,1.1-1.3,1.1-1.5,2.2h9.8c0.1-0.3,0.1-0.2,0.2-0.6
			c0.5-0.4,1.4-1.3,1.8-1.8l5.6-5.6c0.2-0.2,0.7-1,1.8-2c1.1-1.1,1-0.9,2.4-2.3c0.5-0.5,0.5-1.6-0.1-2.1
			C236.6,135.1,235.4,133.8,235,133.7L235,133.7z M0.5,115.2c0.6-0.3,1.9-1.7,2.4-2.1c0.4-0.4,2-1.8,2-2.3c-0.1-0.6-0.8-0.9-1-1.2
			c-0.2-0.2-0.2-0.4-0.4-0.6c-0.3-0.4-2.2-2.3-2.8-2.6L0.5,115.2z M124.4,119.1c-0.2,0-0.1-0.3-0.3,0.3c-0.1,0.2-0.1,0.2,0,0.4
			l4.3,4.4c1.3,1.1,0.5,0.7,1.1,1.3l3.7,3.7c0.5,0.2,1.9,1.8,2.3,2.2c0.4,0.4,0.7,0.7,1.1,1.1c1,0.9,0.5,0.7,1,1.2
			c1.3,1.5,7,6.6,7.4,7.3c0.2,0.4,0.2,0.4,0.4,0.6c0.4,0.4,0.7,0.7,1.1,1.1l1.7,1.7c0.7,0.8,1.8,2.1,2.8,2.7l3.8-3.8
			c0.4-0.5,1-0.9,1.2-1.3c0.4-1-1.5-2.5-1.9-2.9c-0.9-0.9-1.7-1.6-2.5-2.5c-0.9-0.9-1.6-1.7-2.5-2.5c-1.3-1.2-0.7-0.9-1.2-1.4
			l-3.8-3.7c-2.4-2.4-2.9-2.3-1.8-3.5c0.3-0.3,0.2-0.3,0.5-0.7c0.2-0.3,0.9-0.9,1.2-1.2l3.7-3.7c0.7-0.6,1.6-1.2,1.8-1.9
			c0.4-1.2-1-2-1.3-2.2c-1.1-0.9-1.2-2.1-2.8-0.6c-0.5,0.5-0.7,0.8-1.1,1.3c-0.3,0.3-0.3,0.4-0.5,0.8l-4.3,4.3
			c-1.6,1.6-1,1.6-4.3-1.7c-0.7-0.7-1.4-0.8-0.2-1.9c0.3-0.3,0.7-0.4,0.9-0.8c1.3-2,1.1-1.4,2.3-2.6c0.3-0.3,0.5-0.5,0.8-0.8
			c0.4-0.6,1.1-1.1,1.6-1.5c0.7-0.6,1-1.1,1.6-1.7c0.4-0.4,0.6-0.5,0.9-0.7c0.4-0.3,0.4-0.6,0.6-1c0.7-0.9,3.2-2.6,3.1-3.4
			c-0.1-0.4-3.7-3.8-4.3-4.5c-0.3-0.3,0.2,0-0.3-0.3c-0.6,0.2,0-0.1-0.5,0.4l-7.5,7.5c-0.4,0.5-0.4,0.8-1,1.2
			c-0.8,0.5-6.4,6.1-7,6.8c-0.2,0.3-0.2,0.4-0.5,0.7C125.6,117.9,124.7,118.5,124.4,119.1L124.4,119.1z M175.3,66.6
			c-1,0.9,0.4,1.5,0.8,2.2c0.7,1.2,4.4,4.2,6.2,6.3c1.1,1.3,0.8,0.5,1.8,1.9l1.4,1.5c0.9,0.8,3,3.4,3.9,3.9c-0.2,1.1-0.5,1-1.1,1.5
			c-0.9,0.8-0.7,0.9-1.1,1.4l-4.5,4.4c-1.4,1.2-1.7,1.8-0.5,2.9c1,1,1.8,2.6,2.8,1.8c1.6-1.2,0.9-1.2,1.8-2l3.8-3.7
			c1.4-1.4,1.3-1.8,2.5-2.4c0.4,0.2,1.6,1.5,2,1.9c2.1,2.1,2.7,1.4,0.3,3.7c-1.1,1.1-0.9,1.2-1.5,1.8c-0.3,0.3-0.5,0.6-0.8,0.8
			c-0.5,0.3-0.5,0.2-1,0.7c-0.5,0.6-1,1-1.6,1.6c-0.6,0.6-1.1,1-1.6,1.7c-0.6,0.7-1,1-1.6,1.6c-1,1-0.4,0.7-1.5,1.8
			c-2.4,2.4-1.7,1.4,1.9,5.4c1.5,1.7,1.4,1.3,3.8-1.2c0.2-0.2,0.4-0.4,0.6-0.6c0.4-0.5,0.1-0.3,0.6-0.5c0.7-0.4,2.8-2.7,3.5-3.4
			c0.4-0.4,0.1-0.3,1.1-1.2c1.8-1.8,4.8-4.6,6.3-6.4c0.2-0.3,0.4-0.3,0.6-0.6c0.4-0.5,3.2-3.4,3.2-3.6c-0.3-1.1-3.1-3.3-3.9-4.2
			c-0.2-0.3-0.2-0.4-0.4-0.6l-7.5-7.5c-0.3-0.3-0.6-0.8-0.9-1.1c-0.3-0.4-0.6-0.6-1-1l-3.3-2.8c-0.5-0.4-0.5-0.5-0.9-1.1
			c-0.7-0.8-1.1-0.6-2-2c-1.3-1.9-2.1-2.5-3.8-4.1c-0.7-0.7-1.3-1.3-2.1-2.1c-0.9-0.8-1.1-1.5-2.2-0.3L175.3,66.6L175.3,66.6z
			 M143.4,4.6c-0.2-0.7-1-1.5-1.3-1.9c0.1-0.5,0.3-0.7,0.7-1c0.1-0.1,0.3-0.3,0.4-0.4c0.4-0.4,0.2,0,0.3-0.5c0.2-0.2,0.1,0,0.1-0.5
			h-15.1c0.2,0.6,2.1,2.3,2.6,2.8c1.2,1.2,0.5,0.5,1.2,1.5c0.5,0.6,0.9,0.8,1.5,1.3l4.2,4.2c0.5,0.5,1,0.9,1.4,1.4
			c0.3,0.3,0.4,0.4,0.6,0.7c0.3,0.3,0.3,0.5,0.6,0.8l4.3,4.1c0.4,0.3,3.1,3,3.4,3.5c0.2,0.4,1.8,1.9,2.2,2.1
			c0.3,0.5,0.4,0.5,0.7,0.9c0.8-0.2,2.1-1.7,2.5-2.2c0.8-0.8,0.2-0.7,2.2-2.5c1.1-1,0-1.6-1-2.6c-0.8-0.8-1.5-1.5-2.3-2.3
			c-1.7-1.7-0.9-1.1-1.6-1.8l-4-4c-0.4-0.4-0.8-0.6-1.3-1.1C145.2,6.5,143.7,4.8,143.4,4.6L143.4,4.6z M66.6,61.2
			c1.4,1.7,1.7,1.7,3,2.9c0.5,0.5,1.6,1.9,2.2,2.3c0.3,0.3,0.5,0.4,0.8,0.7c0.6,0.8,1.5,1.6,2.2,2.3l6.7,6.7
			c0.4,0.4,0.2,0.5,1.3,1.6c0.5,0.5,1,1,1.5,1.5l5.2,5.2c0.3,0.4,0.2,0.5,0.6,0.9c0.6,0.2,0.8-0.1,1.1-0.6c0.2-0.4,3.7-3.6,4.2-4.2
			c1-1.2-1.2-1.9-2.6-4c-0.3-0.4-6.2-6.1-7.7-7.8c-0.2-0.2,0,0-0.2-0.2c-0.1-0.6-3.1-2.9-3.5-3.6c-0.4-0.8,1.1-1.5,2.2-2.9
			c0.4-0.4,0.7-0.5,0.9-0.9c0.5-0.9,0.1-0.2,0.8-1c1.1-1.2,1.6-1.6,2.8-2.7c1.3-1.3,0.9-2.5-0.6-3.4c-0.8-0.5-0.3-0.4-0.9-1
			c-1,0-0.9,0.2-1.3,0.8l-3.5,3.4c-0.8,0.8-1.5,1.5-2.3,2.3c-0.3,0.3-0.9,0.9-1.1,1.1c-0.2,0.3-0.4,1.2-1,0.3c0,0,0-0.1,0-0.1
			l-0.1-0.1c-0.2-0.4-0.1-0.2-0.4-0.5c-0.2-0.2-0.3-0.3-0.5-0.5c-1-1-1-1.1-2.2-2.1c-0.8-0.7-0.2-0.7,0-0.9l2.9-2.8
			c2.5-3,5.5-5.5,8-8.2c2-2.3,1.9-1.6-2-5.5c-1.6-1.6-0.8-1.8-5.4,2.8c-0.4,0.4-0.6,0.6-1,1c-0.5,0.5-0.4,0.7-0.9,1.1
			c-0.4,0.4-0.6,0.6-1,1c-0.9,0.9-0.6,0.4-1.1,0.9c-0.6,0.5-1.3,1.3-1.9,1.9l-3.4,3.5c-0.5,0.8-1.7,2.1-2.5,2.6
			c-0.4,0.8-0.3,4.2-0.2,5.4C66.3,60.5,66.2,60.7,66.6,61.2L66.6,61.2z M192.8,66.2c0.4,0.4,0.8,0.8,1.2,1.2
			c1.8,1.8,1.1,1.2,1.7,1.9c0.2,0.2,0.4,0.4,0.6,0.6l6.6,6.6c0.8,1,0.2,0.4,1.7,1.9c0.8,0.8,1.6,1.6,2.4,2.4l3.6,3.6
			c0.5,0.6,0.3,1.1,1.4,1c0.1-0.1,0.2-0.2,0.3-0.2l0.1,0l0-0.1c0.1-0.1,0.1-0.2,0.3-0.5l2.1-2.1c0.3-0.3,2.2-2.1,2.3-2.5
			c0-0.3-0.1-0.3-0.2-0.4c-0.1-0.7-1.9-1.8-2.5-2.9c-0.6-1.1-6.6-6.6-7.5-7.7c-0.3-0.4-0.2-0.5-0.6-0.8c-0.2-0.2-0.4-0.4-0.5-0.5v0
			l-0.1,0c-0.1-0.1-0.2-0.2-0.3-0.3c-0.3-0.3-0.6-0.6-0.9-0.9c-2.3-2.3-2.4-1.5,1-4.9c0.5-0.5,0.8-1,1.3-1.5l3.5-3.6
			c0.2-0.3,0.4-0.6,0.2-1c-0.2-0.7-1-1-1.4-1.4l-1.3-1.6c0,0,0-0.1,0-0.1l-7.9,8c-0.4,0.4-0.1,0.4-0.4,0.7c-0.8-0.1-0.1-0.1-1-0.9
			c-0.4-0.4-2.9-2.9-2.9-3.1c0-0.3,2.7-2.7,3.3-3.4c0.6-0.7,0.7-0.5,1-1.4c0.2,0,0.1,0,0.3-0.1l0.8-0.8c0.4-0.4,0.7-0.7,1.1-1.1
			c0.9-0.9,6.2-5.8,6-6.7c-0.3-0.6-0.5-0.5-0.9-1l-2.9-3c-1-1.1-1.7,0-2.3,0.6l-3.9,3.9c-0.4,0.4-0.4,0.6-0.9,1.1l-2.9,2.9
			c-1,1-0.5,0.7-1.6,1.4l-2.5,2.4c-0.4,0.4-0.4,0.6-0.8,1.1L186,56c-1.9,1.9-1.9,1.6,0.8,4.3c0.5,0.4,0.5,0.7,0.9,1.1l4.4,4.4
			C192.4,66,192.5,65.9,192.8,66.2L192.8,66.2z M52.6,0.3H42.5c-0.2,1.1-2.8,2.8-3.5,4c-0.3,0.5-3.1,3.2-3.7,3.7
			c-3.3,3.4-2.9,1.9-0.8,4.7c0.1,0.1,0.2,0.2,0.3,0.3l1.6,1.6c1.2,1.1,1,1.4,2.1,0.4c0.4-0.4,0.3-0.2,0.6-0.7
			c0.4-0.5,0.7-0.8,1.2-1.3c0.5-0.5,0.6-0.9,1.1-1.4L44,9.2c0.5-0.5,0.9-0.6,1.4-1.1c0.6-0.6,3.4-3.3,3.7-3.8
			C49.8,3.2,52.5,1,52.6,0.3z M113.1,0.3H103c-0.2,1.1-2.8,2.8-3.5,4c-0.3,0.5-0.8,0.9-1.2,1.3c-0.6,0.6-4.8,4.7-4.9,5.1
			c0,0.4,0.9,1.2,1.6,2.1l1.8,1.9c0.5,0.4,0.9,1.1,1.4,0.9c0.4-0.1,1-0.8,1.3-1.2c0.4-0.5,0.7-0.8,1.2-1.3c0.5-0.5,0.6-0.9,1.1-1.4
			c1.2-1.2,0.7-0.9,2-1.8l5.6-5.7c0.4-0.6,0.7-0.9,1.2-1.4c0.4-0.4,0.8-0.8,1.2-1.3C112.4,1.3,113.1,0.8,113.1,0.3z M173.7,0.3h-9.9
			c-0.2,0.8-0.6,1-1.2,1.3c-0.4,0.3-0.9,0.9-1.3,1.2c-0.4,0.5-0.9,0.8-1.2,1.3c-0.5,0.9-3.8,3.9-4.9,5.1c-2,2-1.4,1.2,0.4,3.5
			c0.1,0.1,0.2,0.2,0.3,0.3l1.6,1.6c0.5,0.4,0.9,1.1,1.4,0.9c0.4-0.1,1-0.8,1.3-1.2c0.4-0.5,0.7-0.8,1.2-1.3c0.5-0.5,0.6-1,1.1-1.4
			c0.8-0.6,0.1,0.1,1.4-1.2c0.7-0.7,5.8-5.7,6.2-6.3C170.9,3.2,173.6,1,173.7,0.3z M233.1,1.8c0.3-0.2,0.1,0,0.3-0.2l0.5-0.5
			c0.4-0.4,0.3-0.2,0.3-0.7h-9.9c-0.2,1.3-3.1,2.9-3.6,3.8c-0.4,0.7-3.4,3.6-4.2,4.4c-2.8,2.8-2.3,1.6,0.3,4.8
			c0.5,0.6,1.9,2.1,2.5,2.3c0.7-0.3,0.4-0.3,0.9-0.7c0.6-0.4,0.4-0.5,0.8-0.9c0.3-0.3,0.6-0.6,0.9-0.8c0.7-0.4,0.4-0.2,0.9-0.9
			l3.4-3.5c1.2-1.2,2.3-2.3,3.5-3.5C230.7,4.4,232.2,2.3,233.1,1.8L233.1,1.8z M154.9,149.9h9.9c0.2-0.9,1.4-1.8,2-2.4l4.5-4.5
			c0.4-0.4,0.7-0.7,1.1-1.1c0.4-0.4,0.6-0.8,1-1.2c0.7-0.7,1.5-1.6,2.2-2.2c2.5-2.2,1.7-2.1,0.2-3.7c-0.4-0.4-0.8-0.7-1.1-1.1
			c-0.4-0.4-1.5-2.3-2.3-2c-0.5,0.2-1.3,1.3-1.6,1.8l-2.7,2.8c-1.5,1.5-2.9,3.1-4.5,4.5c-0.7,0.7-0.1-0.1-0.9,0.9l-4.7,4.7
			c-0.4,0.4-0.8,0.7-1.1,1.1C155.8,148.3,154.8,149,154.9,149.9L154.9,149.9z M94.3,149.9h9.9c0.2-0.9,1.4-1.8,2-2.4l4.5-4.5
			c1.7-1.7,2.4-2.9,4.3-4.5c2.7-2.3,1.5-2.3,0.4-3.6l-1.1-1.1c-0.3-0.3-0.3-0.4-0.5-0.7c-0.2-0.2-0.3-0.4-0.5-0.5
			c-1.2-1.3-1.1-1.2-2.4,0c-0.5,0.4-0.6,0.8-1,1.2c-0.8,0.8-1.5,1.5-2.2,2.2c-0.8,0.8-1.5,1.5-2.2,2.2c-1.5,1.5-0.5,0.6-1.8,1.5
			l-1.1,1.1c-0.7,0.9,0.1,0.1-1.5,1.8c-1,1-6,6.1-6.7,6.5L94.3,149.9L94.3,149.9z M33.8,149.9h9.6c0.2-0.7,0.5-1,1-1.4
			c1.7-1.2,5.1-4.9,6.8-6.6c0.5-0.4,0.6-0.8,1-1.2c0.7-0.7,1.5-1.5,2.2-2.2c0.4-0.4,2.2-1.6,1.5-2.6l-2.3-2.2
			c-0.2-0.2-1.5-2.3-2.3-2.1c-0.5,0.1-1.4,1.3-1.7,1.8l-2.7,2.8c-1.1,1.1-1.1,1.3-2.3,2.1c-1.2,0.8-2.8,3-3.2,3.5l-6.7,6.7
			C34.2,148.9,33.7,149.1,33.8,149.9z M206.1,68.3c-0.1,0.2,0.2,0.1-0.3,0.2c-0.2-0.7,0.2,0.5-0.1-0.2c-0.1-0.3-0.1,0-0.1-0.5
			L206.1,68.3L206.1,68.3z M203.9,0.3h-15c0.3,0.9,3.7,3.8,3.8,3.9l1.7,1.8c1,1,1.8,1.9,2.8,2.8c0.8,0.7,1.6,1.8,2.8,2.9
			c0.6,0.6,0.8,1,1.3,1.5c1.1,1,6.7,6.5,7,7.1c0.4,0.6,2.3,2.5,2.8,3c0.8,0.6,1.2-0.2,1.6-0.6c0.2-0.3,0.5-0.4,0.7-0.7
			c1.4-1.4,1.2-1.5,2-2.2l1.4-1.4c0.4-0.8-1.4-2.1-2.3-3.1c-0.8-0.8-2.2-2-2.8-3l-7-7.1c-1.5-1.3-0.5-0.8-1.3-1.5
			C201.2,1.6,204.2,2.4,203.9,0.3L203.9,0.3z M82.9,0.3h-15c0.3,0.8,2.8,2.9,3.4,3.6c0.2,0.3,0.3,0.5,0.6,0.8L74,6.8
			c0.3,0.3,0.5,0.3,0.8,0.6c0.5,0.5,0.9,0.9,1.4,1.4c0.8,0.7,1.6,1.8,2.8,2.9c0.6,0.6,0.8,1,1.3,1.5c1.1,1,6.7,6.5,7,7.1
			c0.4,0.6,2.3,2.5,2.8,3c0.7,0.6,1.2-0.2,1.6-0.6c0.5-0.6,1.7-1.4,2.1-2.2l1.3-1.5c1.3-1.3,1.2-1-1.6-3.8c-0.8-0.8-2.2-2-2.8-3
			l-7-7.1c-0.3-0.3-0.5-0.3-0.7-0.7c-0.3-0.5-0.2-0.4-0.6-0.8C80.1,1.6,83.1,2.4,82.9,0.3z M7.4,0.5c0.4,0.6,3.2,3,3.5,3.6
			c0.8,1.2,2.4,2.6,3.5,3.7c0.9,1,0.8,0.4,2.2,2.1c0.2,0.3,0.5,0.5,0.7,0.7c0.5,0.5,1.1,1,1.5,1.5c0.6,0.7-0.2,0,1.3,1.5l6.4,6.4
			c0.4,0.4,0.3,0.6,0.6,0.9c0.4,0.5,2.4,2.5,3,2.8c0.6-0.3,2.4-2.1,2.8-2.7c0.4-0.5,0.8-1.1,1.2-1.5c2.1-1.8,0.4-2.6-3-6
			c-1.2-1.2-0.8-1.1-1.3-1.5c-0.5-0.5-0.9-0.9-1.4-1.3c-0.3-0.3-0.4-0.4-0.7-0.7c-0.3-0.3-0.4-0.5-0.7-0.7l-4.2-4.1
			c-0.5-0.5-0.8-1.2-1.3-1.5c-0.6-0.5-1-0.9-0.3-1.6c0.6-0.6,1.2-0.5,1-1.7H7.7c-0.3,0-0.3,0-0.3,0h0C7.4,0.3,7.4,0.4,7.4,0.5z
			 M4.3,148.1c-0.1,0.4,0.1,0-0.3,0.4c0,0-0.2,0.2-0.2,0.2c-0.2,0.2-0.6,0.5-0.7,0.8c0,0.1,0,0.3,0,0.5h6.5c0.1-0.8,0.2-0.7,0.7-1.1
			c0.4-0.3,0.5-0.7,1-1c0.5,0.3,1.3,1.3,1.6,2h11c0.1-1.3-0.6-1-1.2-1.8c-0.5-0.7-0.8-0.9-1.4-1.5c-1-1-2-2-3-3
			c-0.5-0.5-1-1-1.5-1.5c-0.7-0.6-0.6-1.1-1.3-1.6c-1.1-0.8-0.4-0.2-1.6-1.4c-0.5-0.5-1-0.9-1.5-1.4l-2.9-3
			c-0.6-0.6-0.8-0.7-1.4-1.6c-0.3-0.5-3.5-3.4-4.5-4.5l-1.5-1.5c-0.6-0.6-1-1.2-1.6-1.4l0,9.9c0,1.9,0,1.3,1,2.3
			c0.6,0.6,2.9,2.8,3.3,3.3c0.5,0.8,1,1.2,1.6,1.7c0.3,0.3,1.3,1.2,1.5,1.6C7.7,144.9,4.6,147.8,4.3,148.1z M124.3,149.9h6.4
			c0.1-0.7,1.1-1.7,1.6-2c0.5,0.3,0.5,0.6,1,0.9c0.5,0.4,0.6,0.5,0.9,1.1H145c0.1-1.3,0.1-0.2-1.5-2.3c-0.5-0.6-1.3-1.4-1.9-1.9
			c-1.3-1.3-2.6-2.6-3.9-3.9c-0.4-0.4-0.5-0.7-0.9-1.1c-0.4-0.4-0.6-0.6-1-1c-0.6-0.6-1.2-1.3-2-1.9c-0.5-0.4-0.7-0.4-1.1-0.9
			c-1.6-1.6-2.3-2.1-3.8-4L126,130c-0.3-0.3-0.7-0.6-1-1c-0.8-0.9-3.3-3-3.8-3.9c-0.9-1.7-2.2-1.8-3,0.1c-0.2,0.5-2.3,2.5-2.9,2.9
			c-0.4,0.3-0.6,0.5-0.8,1.1c0.4,1.2,2.8,2.8,3.6,3.9c0.2,0.2,0.2,0.4,0.4,0.6l6.9,6.9c0.5,0.5,0.4,0.5,0.8,1.1
			c0.2,0.3,0.6,0.7,0.9,0.9c0.4,0.4,1.6,1.5,1.8,1.9c0,0.9-0.6,0.9-1.1,1.4l-2.5,2.6C124.5,149.2,124.2,148.8,124.3,149.9
			L124.3,149.9z M63.8,149.9h6.4c0.1-0.8,0.2-0.7,0.7-1.1c0.4-0.3,0.6-0.7,1-1c0.6,0.4,1.3,1.3,1.6,2h11.1c0.1-0.9,0-0.7-0.6-1.2
			c-0.3-0.3-0.6-0.7-0.9-1.1c-0.7-0.7-1.3-1.3-1.9-1.9c-1.3-1.3-2.5-2.6-3.9-3.9c-0.5-0.4-0.5-0.7-0.9-1.1c-0.3-0.4-0.7-0.6-1-1
			c-0.2-0.2-0.3-0.3-0.5-0.5c-0.3-0.3-0.2-0.2-0.6-0.4l-2.9-2.9c-1.3-1.3-1.7-1.6-2.8-3.1l-4.9-4.9c-0.6-0.6-1.3-1.4-1.9-1.9
			c-1.4-1.1-2-3.3-3.3-2c-0.5,0.5-0.4,0.3-0.8,1.1c-0.6,1.3-3.8,3.2-3.7,4.1c0.1,0.6,3,3,3.6,3.8c0.4,0.6,0.3,0.5,0.8,1.1
			c0.3,0.3,0.6,0.6,0.9,0.9l5.5,5.5c0.5,0.5,0.5,0.6,0.8,1.1c0.4,0.5,2.6,2.4,2.7,2.7c0,0.9-0.6,0.9-1.1,1.4l-2.4,2.5
			C63.8,149.5,63.7,148.7,63.8,149.9z M184.9,149.9h6.3c0.2-0.8,0.4-0.8,0.8-1.2c0.7-0.7,0.3-0.1,1.1-0.9c0.5,0.4,1.3,1.4,1.6,2.1
			h10.8c0.1-0.9,0-0.7-0.6-1.2c-0.3-0.3-0.6-0.7-0.9-1.1c-0.7-0.7-1.3-1.3-1.9-1.9c-1.3-1.3-2.5-2.6-3.9-3.9
			c-0.5-0.4-0.5-0.7-0.9-1.1c-0.3-0.4-0.7-0.6-1-1c-0.7-0.7-1.3-1.3-1.9-1.9c-1.1-1.1-0.9-1-2-1.8c-0.6-0.4-1.4-1.4-1.9-1.9
			c-0.5-0.5-0.5-0.6-0.9-1.1l-6.8-6.8c-1.1-1-0.5-0.7-1.9-2.1c-0.9-0.9-1.9,0.4-2.2,1.2c-0.6,1.3-3.8,3.2-3.7,4.1
			c0.1,0.6,3.1,3.1,3.6,3.8c0.4,0.6,0.3,0.5,0.8,1.1l6.5,6.4c0.5,0.5,0.5,0.6,0.8,1.1c0.4,0.5,2.6,2.4,2.7,2.7
			c0,0.9-0.6,0.9-1.1,1.4l-2.4,2.5C184.8,149.5,184.8,148.7,184.9,149.9L184.9,149.9z M229,91.7c-0.5-0.2-1.7-1.6-2.2-2.1
			c-0.4-0.4-0.7-0.7-1.1-1c-0.5-0.5-0.6-0.6,0-1.2c0.7-0.7,1.5-1.4,2.1-2.1c1.2-1.4,0.8-0.9,2.1-2.2c1.4-1.4,4.1-4,5.3-5.4
			c0.2-0.2,0.3-0.4,0.5-0.5l0.9-1.2c0.6-0.8,0.8-0.4,0.6-2.4c-1-0.5-2.1-1.8-2.9-2.7c-1.5-1.6-1.3-1.2-3.1,0.6c-1,1-1.8,1.8-2.8,2.8
			c-0.5,0.5-0.9,0.9-1.4,1.4c-1.2,1.2-0.8,1-1.2,1.5l-3.6,3.5c-1,0.7-2.6,2.5-3.6,3.4c-0.3,0.3-0.5,0.4-0.7,0.7
			c-0.8,1.2-2.1,2.1-3.4,3.6c0.2,0.8,2.1,2.4,2.7,3.1c1.2,1.2,1.6,1.8,2.8,3c1.5,1.5,1.8,1.6,3,2.8c0.7,0.7,3.1,3,3.6,3.7
			c0.4,0.6,1.5,1.7,2,2.2l6.1,6.2c0.1,0.1,0.2,0.3,0.3,0.4c0.3,0.3,1.9,2,2.2,2.1l-0.1-11.7c-0.9-0.5-1.7-1.4-2.5-2.2l-2.3-2.4
			c0.2-0.6,1.6-1.6,2-2.2c0.4-0.5,0.3-0.7,0.9-1.3c0.5-0.4,0.5-0.4,1.1-0.9c0.5-0.6,0.8-0.2,0.9-1.2l0-4.1c0-0.7,0.3-3.3-1.2-1.1
			c-0.9,1.3-1.9,2.1-3,3.1C232.5,88.4,229.6,91.6,229,91.7L229,91.7z M237.3,50l0-11.5c-0.6-0.3-0.9-0.6-1.3-1
			c-0.7-0.7-0.4-0.7-1.1-1.4c-0.4-0.4-2.1-2.1-2.4-2.5c0.2-0.5,1.5-1.5,1.9-2.1c0.6-0.9,1.3-1.2,2.1-2c0.9-1,0.9,0.4,0.9-3.2
			c0-0.4,0.2-3.7-0.1-4c-0.4-0.4-1.2,0.9-2,1.6L231,28c-0.1,0.1-1.4,2.1-2,2.1c-0.5,0-1.7-1.8-1.9-2c-0.3-0.4-1.8-1.6-1.8-2
			c0-0.5,3.2-3.3,3.9-3.9c0.7-0.6,1.7-1.9,1.8-2.1l5.3-5.3c1-1.2,1-1,1-1.9c0-0.9,0.1-0.9-0.5-1.5c-0.7-0.7-1.3-1.2-2-1.9
			c-0.3-0.3-0.6-0.6-0.9-0.9c-1.1-1.1-1.2-0.3-3.2,1.7c-1.4,1.4-1.2,1-2.3,2.5c-0.2,0.2-0.3,0.3-0.5,0.5c-1.9,1.9-3.9,4.2-6,5.7
			c-1,0.7-1.5,1.7-1.8,2.1c-1.6,1.6-3.4,3.5-4.9,4.9c-1.1,1-0.1,1,0.9,2.2c0.2,0.3,0.1,0.3,0.4,0.6l5.4,5.4c0.5,0.4,0.6,0.4,1,0.8
			l1.8,2c1.5,1.6,5.1,5.2,6.8,6.9c0.4,0.4,0.5,0.6,0.9,1.1c0.4,0.4,0.6,0.7,1,1l3.4,3.4C237,49.7,237,49.8,237.3,50z M3,77.7
			c0.6,0.6,4.6,4.5,4.8,4.9c-0.2,0.5-0.2,0.4-0.6,0.7c-0.3,0.2-0.4,0.3-0.6,0.6c-0.2,0.2-0.4,0.4-0.6,0.6c-0.5,0.5,0.1,0.2-1.7,1.9
			L2,88.8c-1.1,1.1-1.8,1.4-1.4,3.4c0.1,0.5,0.7,1.1,1,1.4C1.9,94,2.2,94.8,3,94.5c0.7-0.2,1.8-1.9,1.8-1.9c0.4-0.4,0.8-0.6,1.7-1.8
			c0.3-0.4,4.4-4.5,4.7-4.7c0.8,0.6,1.3,1.5,2.1,2.1c0.5,0.5,2.1,1.3,1.4,2.2c-0.6,0.8-1.5,1.4-2.1,2.2c-0.2,0.2-0.2,0.4-0.4,0.6
			l-6.8,6.8c-0.7,0.5-0.4,0.6-0.9,1.2c-2.4,2.6-2.9,1.7,0.9,5.3c1.9,1.8,1.5,2.1,3.1,0.6c2-1.9,3.4-3.5,5.7-5.8
			c0.8-0.8-0.1-0.3,1.1-1.1l9.6-9.8c1.4-1.3,0.4-1.4-0.8-2.6c-0.6-0.6-0.9-1.1-1.5-1.7c-0.3-0.3-0.6-0.5-0.8-0.8
			c-0.3-0.4-0.3-0.6-0.6-0.9l-5.6-5.5c-0.4-0.3-0.5-0.3-0.9-0.6c-0.5-0.5-1-0.9-1.5-1.7c-0.4-0.6-2.5-2.5-3.1-3.2
			c-1-1-4-3.8-4.7-4.8c-0.3-0.4-1.2-1.2-1.6-1.6c-0.6-0.6-2.6-2.7-3.3-3.1l0,9.9c0,2.7,0.8,1.4,1.7,3.1C2.5,77.3,2.6,77.4,3,77.7z
			 M0.3,8c0.4,0,0.1,4.1,0.2,4.8c0,1,0.6,1,1.1,1.5c0.5,0.4,0.9,0.9,1.3,1.3l3.2,3.2c2.2,2.1,2.5,1.6,0,4c-0.2,0.2-0.2,0.2-0.4,0.4
			c-1.1,0.9-0.3,0.4-1.5,1.4c-0.4,0.3-0.4,0.6-0.8,0.9c-0.2,0.2-0.4,0.2-0.6,0.4c-0.2,0.2-0.2,0.3-0.4,0.5l-1.6,1.6
			c-0.2,0.1-0.1,0-0.3,0.2c-0.2,0.6-0.3,2.2,0.1,2.7c0.2,0.3,0.5,0.4,0.8,0.7c0.2,0.2,0.5,0.7,0.7,0.8c0.5,0.4,0.9,0.1,1.2-0.1
			c1.1-0.9,2.5-2.4,3.5-3.6c0.3-0.3,0.3-0.5,0.6-0.8c0.6-0.7,3.4-3.5,3.8-3.6c0.7,0.5,1.2,1.3,1.9,2c0.5,0.5,1.7,1.2,1.9,2.1
			c0,0.9-6.6,6.5-7.8,8.2c-0.8,1.1-4.7,4.3-4.6,5c0,0.5,2.3,2.3,2.8,3l0.6,0.8c1.3,1.4,1.3,1.4,2.5,0.2l5.8-6
			c0.2-0.2,0.5-0.6,0.6-0.8c0.2-0.2,1.2-0.6,2.3-2.1c0.9-1.3,6.3-6.2,7.9-8.1c1-1.3,0.6-1.4-0.6-2.7c-0.5-0.5-0.9-0.9-1.5-1.5
			c-1-1-1.9-1.9-2.9-2.9c-1.3-1.3-0.8-1-1.3-1.6c-0.4-0.5-1-1-1.5-1.5c-0.5-0.5-0.9-1-1.5-1.5c-0.8-0.7-0.2,0.1-1.6-1.4
			c-0.5-0.5-0.9-0.9-1.5-1.5c-0.4-0.4-1.1-1-1.5-1.4c-0.7-0.8,0-0.3-1.3-1.6L2.6,3.6C2.1,3.5,2,3.2,1.5,2.8C1,2.3,0.9,2,0.3,2
			C0.3,2,0.3,8,0.3,8z M172,95.5c0.2-0.7,0.6-1,1.3-1.6c0.2-0.2,0.3-0.2,0.5-0.4c0.4-0.5,0.2-0.6,0.8-1.1l4.7-4.7
			c0.9-1.1,1.1-0.8-0.2-2c-0.6-0.6-0.4-0.6-0.8-1.1c-1.2-1.3-1.6-1.7-3,0.5c-0.3,0.5-1.4,1.4-1.8,1.8c-1.3,1.3-2.5,2.5-3.8,3.8
			c-0.9,0.9-1,1.6-2,0.4c-0.6-0.7-1-1.3-1.8-1.9c-2-1.5-1.1-1.3,1.2-3.8c0.4-0.4,0.4-0.7,0.8-1.1l2.8-2.8c1.3-1.3,2.5-2.5,3.8-3.8
			c1.1-1.1,0.9-1.1,1.8-2c1.1-1.1,1.3-1.3,0.3-2.2c-4.4-3.9-3.1-4.9-5.9-2.1l-3.7,3.7c-1.4,1.4-2.3,2.7-3.6,3.9
			c-0.5,0.4-0.6,0.3-1.1,0.8l-2.8,2.8c-0.6,0.6-1.3,1.2-1.9,1.9c-0.4,0.4-0.4,0.6-0.8,1.1c-0.4,0.4-2.7,2.6-2.7,2.8
			c-0.1,0.5,2.8,3.2,3.3,3.7c0.6,0.6,0.9,1.2,1.6,1.8l3.5,3.4c0.4,0.4,0.6,0.3,1,0.8l2.5,2.5c1.2,1.6,0.6,0.7,1.6,1.8
			c1.4,1.5,3.6,3.6,5.2,5.2c0.3,0.3,0.6,0.6,0.9,0.9c0.4,0.4,0.4,0.6,0.7,0.9c0.5,0.5,1.2,1.2,1.7,1.7c1.3,1.3,4,4.2,5.1,5.1
			c1.8-1.2,2.3-2.6,3.8-3.8c2.2-1.8,1.3-2.1,0.6-2.8c-0.4-0.4-0.3-0.4-0.5-0.8l-6.9-6.9c-1-1-0.6-0.8-1.1-1.4
			c-0.3-0.4-0.9-0.9-1.3-1.3C174.9,98.6,172.3,96.2,172,95.5z M181.3,54.4c1.1-0.4,1.9-2.4,3.9-4.1c0.5-0.5,1.9-1.3,0.9-2.2
			c-0.7-0.6-1.3-1.3-2-2c-1-1-1.7-1.9-1.8-2.1c-0.7-0.7-1.3-1.3-2-2c-0.6-0.6-4.9-4.8-5.3-5.5c-0.2-0.4-0.1-0.3-0.5-0.6
			c-0.6-0.6-1.4-1.3-2-2c-0.9-1,0.4-1.5,2-3.1c0.4-0.4,0.6-0.6,1-1c0.3-0.3,0.6-0.6,0.9-0.9c0.2-0.2,0.8-1.3,1.8-2.1l1.1-0.9
			c1.3-1.2,0.7-1.6,0-2.5c-0.4-0.4-0.7-0.5-1.1-0.9c-1.3-1.1-0.1-2.1-5.3,3c-0.7,0.7-1.3,1.3-2.1,2c-0.1,0.1-1.5,2.1-2,2.2
			c-0.9,0-1.6-1.2-2-1.9c-0.5-0.8-1.6-1.2-1.9-2c0-0.6,4.7-4.7,5.3-5.6c0.4-0.7,2.6-2.7,3.2-3.3l3.2-3.2c1.7-1.7,0.3-1.7-2.6-4.8
			c-0.4-0.4-0.7-0.8-1-1.2c-0.7,0.1-1.2,0.9-1.6,1.3l-2.9,2.9c-0.4,0.4-0.2,0.5-1.3,1.6l-3.6,3.6c-0.3,0.3-0.5,0.3-0.8,0.6
			c-0.9,0.8-2.1,2-2.8,3l-4.3,4.4c-0.3,0.3-1.3,1.1-1.3,1.5c-0.1,0.6,1,1.1,1.3,1.6c1,1.4,1.7,2,2.8,3.1c1,1,1.9,1.9,2.9,2.9
			c0.5,0.5,0.9,1,1.4,1.4c0.4,0.3,0.5,0.3,0.8,0.6c0.4,0.3,0.4,0.5,0.7,0.9l5.7,5.8c0.5,0.5,1,0.9,1.4,1.4c0.5,0.5,0,0.2,1.3,1.6
			c1,1,1.9,1.9,2.9,2.9l2.8,2.9c1.3,1.3,0.9,1.1,1.3,1.6C179.9,53.6,180.6,54.3,181.3,54.4L181.3,54.4z M156.1,110.3
			c0.4,0.4,0.6,0.6,1,1c2.3,2.2,2.8,2.2,1.7,3.2c-0.4,0.4-0.6,0.6-1,1c-1.4,1.4-0.8,0.9-1.8,2.1c-1.2,1.4-2.7,2.6-4,3.9
			c-1.5,1.4,0.1,1.7,1,2.8c0.2,0.2,0.3,0.3,0.4,0.5c0.2,0.3,0.6,2,1.8,0.2l5.3-5.4c2.9-2.9,2-2.9,4.8-0.1c1.9,1.8,1.9,1.5,0.4,3
			l-2.2,2.2c-0.3,0.4-0.1,0.4-0.5,0.7c-1,0.8-0.3,0.2-1.2,1.1l-6.7,6.7c-1.1,1.5-1.5,1.4,0.3,3.1l2.2,2.2c1.2,1.3,1.3,1,2.9-0.6
			c0.5-0.5,0.9-0.8,1.3-1.5c0.4-0.6,2.1-1.6,3-2.8c0.6-0.8,0.7-0.9,1.4-1.6c0.5-0.5,0.9-0.9,1.4-1.4l4.3-4.3c1.4-1.4,1-1.4,2.8-3
			l1.5-1.3c2.3-2.2-0.5-2.2-2-4.6c-0.4-0.6-6.3-6.6-7.1-7.3c-0.6-0.5-0.8-1-1.3-1.6c-0.6-0.6-2.3-2.4-2.9-2.8
			c-0.6-0.3-3.9-3.7-4.3-4.2c-0.3-0.3-0.3-0.5-0.6-0.8l-2.1-2.1c-0.5-0.5-0.9-0.9-1.5-1.5c-0.5-0.5-0.8-1-1.3-1.5l-2.9-2.8l-0.3,0.3
			c0,0,0,0-0.1,0.1l-3.7,3.7c-0.7,0.7-1.8,1.1-0.7,2.4c0.3,0.4,0.7,0.7,1,1c0.5,0.5,0.4,0.5,0.8,1l2,1.9c0.7,0.7,1.3,1.3,2,2l3.8,4
			c0.2,0.2,0.3,0.3,0.5,0.6C155.8,110,155.9,110.1,156.1,110.3L156.1,110.3z M98.8,51.7c-0.4,1.2-5.5,6-6.9,7.3
			c-1,1-1.9,1.5-0.5,2.5l2.1,2.2c0.9-0.1,1.9-1.4,2.4-1.9c0.4-0.4,0.6-0.5,1-1.1c0.4-0.6,3.8-3.9,4.7-4.8c0.6-0.6,0.7-0.7,1.7,0.4
			c0.4,0.4,0.7,0.5,1.1,0.8c0.2,0.2,1.8,1.7,1.9,1.9c0.1,0.5-0.6,0.8-1.3,1.9c-0.5,0.8-1.4,1.2-1.8,1.5l-5.7,5.7
			c-0.4,0.4-0.3,0.5-0.7,0.9c-0.7,0.8-2.9,2.6-3.2,3.4c0,0.5,3,3.2,3.5,3.8c0.4,0.4,0.3,0.5,0.6,0.9c0.3,0.3,0.5,0.4,0.9,0.2
			c0.5-0.3,0.4-0.5,0.7-0.9c0.2-0.2,1.1-0.9,1.5-1.4c0.5-0.7,0.8-0.9,1.4-1.5c0.4-0.4,1.1-1.2,1.5-1.4c1.2-0.8,2.8-2.5,3.6-3.7
			c0.5-0.6,6.2-6,7.3-7.3c0.2-0.2,0.1-0.2,0.3-0.4c0.2-0.3,0.1-0.2,0.4-0.4c2.1-1.8,1.4-1.8,0-3.3c-1-1-3.5-3.3-4.3-4.5
			c-0.3-0.4-1.1-1.1-1.5-1.5l-5.1-5.2c-0.4-0.4-0.5-0.3-0.9-0.6c-0.4-0.3-0.2-0.4-0.6-0.8l-6.7-6.7c-1-1-1.5-1.9-2.8-3.2
			c-3-2.9-3.4-4.3-4.7-2.7c-0.7,0.8-4.2,3.9-4.2,4.6c0,0.8,2.2,2.7,2.8,3.2c0.5,0.5,0.9,1,1.4,1.5l2.9,2.9c0.4,0.4,0.4,0.5,0.7,0.9
			C93.1,46,98.6,51.3,98.8,51.7L98.8,51.7z M33,119.4c-0.7,0.7-1.3,1.3-2,2c-0.3,0.3-0.9,0.6-0.7,1.2l1.5,1.6
			c1.5,1.4,0.2,0.8,1.4,1.5c0.9-0.4,0.6-0.5,1.1-1.1c0.3-0.4,0.7-0.7,1.1-1.1l4.2-4.2c2.5-2.5,1.7-2.6,4.2-0.1
			c0.6,0.6,1.9,1.5,2,1.9c-0.2,0.6-0.5,0.9-1.1,1.2c-0.5,0.3-1.9,1.7-2.4,2.2c-0.4,0.4-0.2,0.3-0.5,0.7l-7.4,7.4
			c-0.4,0.4-0.6,0.8-1.1,1.3c-0.5,0.6-0.4,0.8,0.1,1.3l3.5,3.4c0.5,0.5,0.7,0.8,1.3,0.3c0.6-0.5,2-1.9,2.3-2.3
			c0.6-0.8,1.5-1.6,2.2-2.3c0.5-0.5,0.6-0.6,1.1-1.3c0.4-0.6,0.7-0.5,1.2-1l6.8-6.9c0.5-0.8,1.5-1.7,2.2-2.4
			c0.5-0.5,2.1-1.8,2.2-2.4c-0.7-0.4-2.1-1.8-2.7-2.5c-0.1-0.1-0.2-0.2-0.4-0.4c-0.2-0.2-0.1-0.3-0.3-0.5c-0.9-1.1-6.5-6.1-7.6-7.9
			c-0.3-0.5-0.5-0.4-0.9-0.7l-5.2-5.2c-0.6-0.6-1.2-1.1-1.7-1.7c-0.3-0.3-0.4-0.6-0.8-1c-1.3-1.3-2.1-2-3.3-3.5
			c-1-1.1-2.8-2.8-3.9-3.8l-0.4-0.4l-4,4.1c-0.7,0.7-1.8,1.1-0.9,2.3c0.3,0.3,0.7,0.7,1,1l1.9,2.1c0.4,0.4,0.7,0.6,1.1,0.9l5.8,6
			c0.4,0.6,1.4,1.5,1.9,2.1c1.9,1.9,2.8,2.2,1.9,3.2c-1.2,1.4-1.3,1.1-2.8,3C34.5,118,33.5,118.9,33,119.4z M199,122.8
			c-0.7-0.4-2.1-2-2.8-2.7c-0.4-0.3-1.2-0.8-0.8-1.5c0.4-0.5,7.4-7.6,8.6-8.8c0.3-0.4,0.4-0.3,0.6-0.7c0.4-0.6,1.4-1.4,2-2
			c0.8-0.9,1.2-1,1.1-1.6c-0.1-0.5-2.8-2.9-3.3-3.4c-0.2-0.3-0.3-0.5-0.6-0.7c-0.6-0.4-0.4,0-0.7-0.6c0,0,0,0.1-0.1,0.1l-0.2,0.3
			c-2.2,1.8-4.8,4.6-6.8,6.7c-1.3,1.3-1,1.2-2.2,2.4c-1.3,1.3-1.5,1.2-1.9,1.6c-1.1,1.1-4.5,4.3-5.2,5.4c-0.5,0.8-1.9,1.5-2.1,2.5
			c0.3,0.8,2.7,2.9,3.4,3.6c0.4,0.4,1.4,1.3,1.7,1.7c0.3,0.5,1.9,2.2,2.5,2.7c1.6,1.3,2.8,2.6,4.3,4.1c0.6,0.6,1.2,1.1,1.7,1.7
			c0.4,0.5,1.3,1.3,1.8,1.8l3.4,3.4c0.3,0.3,0.5,0.6,0.8,0.9c1.2,1.2,1.6,1.8,2.4,2.6l5.2,5l3.8-3.7c0.3-0.3,0.3-0.4,0.6-0.6
			c0.2-0.1,0.4-0.4,0.6-0.6c0.6-1-1.4-2.5-1.8-2.9c-1.2-1.2-5.4-5.2-6.1-6.3l-3.7-3.8c-3.4-3.4-2.9-2.4-1.7-3.9
			c0.3-0.3,0.3-0.5,0.5-0.7l5.6-5.6c1.3-1.1,0.6-2.1-0.3-3c-1.4-1.4-1.4-2.1-2.8-0.7l-4.8,5.2C201.1,121,199.7,122.5,199,122.8
			L199,122.8z M34,143.4c0.6-0.6,1.7-1.1,0.9-2.4c-0.4-0.6-7-6.9-7.6-7.8c-0.3-0.6-1.3-1.4-1.8-1.9c-1.3-1.3-2.6-2.7-3.9-3.9
			c-1.3-1.2-0.5-1.2,0.3-2.2c0.8-1,0.9-1.1,1.8-2c0.6-0.6,4.3-4.2,4.8-4.9c0.9-1.2-1.1-2.5-1.8-3.3c-0.4-0.4-0.6-0.7-1.3-0.3
			c-1.1,0.6-2.3,2.6-2.7,3l-4.8,4.8c-0.5,0.4-0.7,0.1-1.1-0.2c-0.4-0.4-0.6-0.6-1-1c-0.4-0.4-0.6-0.5-1.1-0.8c-0.4-0.3-0.6-0.7-1-1
			c-0.9-0.9,0.1-0.9,1-2.1c0.6-0.8,0.3-0.2,0.9-0.9c1.3-1.3,2.6-2.6,3.9-3.9c1.1-1.1,4.8-4.8,5.7-5.8c1-1.2,1.3-0.8,0-2.1l-2.8-2.9
			c-0.6-0.6-0.7-0.4-1-0.9l-0.3,0.3c-0.2,0.1-0.2,0.1-0.4,0.2c-0.2,0.2-0.1,0-0.3,0.3c-1.5,1.4-2.5,2.6-3.8,3.9
			c-1.2,1.2-1.8,1.5-2.5,2.2c-0.3,0.3-0.9,0.9-1.2,1.2c-0.9,1.3-5.3,5.5-6.9,7.1c-0.5,0.5-0.6,0.6-1.1,1.3c-0.3,0.5-1.5,1.5-1.9,2
			l-0.1,0.1c-0.5,0.7,1.4,1.8,2.4,3c1,1.2,2.2,2,2.6,2.5c0.4,0.5-0.1,0.1,0.7,1c0.3,0.3,0.4,0.6,0.7,0.9l5.2,5.2
			c0.8,0.7,1,0.4,1.7,1.7l6.8,6.9c0.7,0.7,1,1.3,1.6,1.9l5.2,5L34,143.4L34,143.4z M93.7,126.2c0.5-0.3,0.6-0.9,0.9-1.4
			c0.2-0.3,0.7-0.8,1-1.1c0.7-0.7,1.4-1.4,2.1-2.1c0.7-0.7,1.4-1.4,2.1-2.1c2.2-2.2,2.1-2.7,3.4-1.3c0.3,0.4,0.7,0.5,1,0.9
			c0.4,0.4,0.7,0.5,1.1,0.9c1.2,1.2,1,1.2-0.2,2.4c-1.7,1.7-1.2,1-1.8,1.6c-1.1,1-0.8,1.2-1.6,1.8c-1,0.8-5.4,5.5-6.8,6.8
			c-0.4,0.4-0.6,0.8-1,1.2c-0.5,0.6-0.6,0.7,0,1.3l2.3,2.3c1.3,1.6,1.8,2,2.8,1.2l0.4-0.3c0.8-0.8,1.2-1.4,1.6-1.8
			c0.8-0.8,1.5-1.5,2.3-2.3c0.6-0.6,0.7-0.2,1.2-1.1c0.3-0.5,2.8-2.9,3.3-3.4l4.5-4.5c0.5-0.7,0.5-0.7,1.1-1.3c4-4,3.9-3,1.6-5.3
			c-0.3-0.3-0.6-0.6-0.9-0.9c-0.6-0.6-0.4-0.6-0.7-0.9c-0.5-0.5-1.2-1.1-1.7-1.7c-1.4-1.4-4.8-4.6-5.8-6.1c-0.7-1-2.4-2.2-2.6-2.4
			l-5.2-5.2c-0.3-0.3-0.4-0.6-0.8-1c-1.2-1.2-3.3-3.1-4.2-4.3c-0.8-1.1-2.1-2.1-3.1-3l-0.4-0.4L89.4,93c-0.4,0.4-0.3,0.2-0.8,0.8
			c-0.5,0.7-1.4,1.4-2,2c-2.6,2.6-2.8,2.3-0.7,4.4c0.2,0.2,0.4,0.4,0.5,0.5c0.2,0.3,0.2,0.4,0.4,0.6c0.2,0.3,0.7,0.6,1.1,0.9
			l7.7,8.1c3.8,3.8,3.8,3,1.6,5.2c-0.4,0.4-0.6,0.6-1,1c-0.4,0.4-0.5,0.7-0.8,1.1c-0.6,0.7-1.3,1.3-2,2c-1.5,1.5-2.9,2.3-2.3,3.3
			c0.1,0.2,0.8,0.8,1,1c1.3,1.3,0.8,0.7,1.6,2.1C93.6,126,93.7,126.1,93.7,126.2C93.7,126.1,93.7,126.2,93.7,126.2L93.7,126.2z
			 M93.6,26.6c0.2,0.6,1.2,1.7,1.9,2.4c1.3,1.4,7.2,7.1,7.5,7.5c0.3,0.5,0.3,0.6,0.8,0.9c0.6,0.4,6.7,6.5,7.1,7
			c0.6,0.9,1,1.2,1.7,1.9l6.1,6.2c0.4,0.6,0.3,0.5,0.8,1c1.5,1.5,1.3,1.2,2.8-0.4c0.3-0.3,0.5-0.7,0.8-1c0.5-0.6,1.2-1.2,1.8-1.8
			c1.8-1.7,1.6-1.2-0.8-3.7c-0.5-0.5-1.2-1.1-1.7-1.8c-0.9-1.4-7-6.7-7.8-8c-0.3-0.5-0.5-0.6-0.8-0.9c-0.5-0.5-1.3-1.2-1.7-1.8
			c-0.7-0.8,0.6-1.6,1-1.9c0.7-0.5,3.2-3,3.5-3.6c0.2-0.4,2.1-2.2,2.6-2.7c0.3-0.3,0.1-0.2,0.5-0.4l0.6-0.4
			c-0.4-0.7-1.5-1.4-2.1-2.2c-0.2-0.3-0.5-0.7-0.7-0.9c-0.8-0.6-1.5,0.3-1.8,0.7c-1.6,1.8-4.4,4-5.6,5.8c-0.2,0.3-1.2,1.3-1.6,1.4
			c-0.9-0.1-1.4-1.2-1.9-2c-0.5-0.7-1.6-1-1.8-2.1c0.9-1.4,3.9-3.8,5.4-5.8l3.4-3.4c0.8-0.8,1.5-1.5,2.2-2.2
			c0.7-0.7,2.1-1.5,0.9-2.7l-3.3-3.3c-1-1.1-1.4-0.2-3.6,2.1c-0.4,0.4-0.7,0.7-1.1,1.1c-0.5,0.5-0.6,0.8-1,1.2l-2.8,2.8
			c-0.7,0.6-0.2-0.1-1.9,1.6c-0.8,0.8-1.5,1.5-2.2,2.2c-0.2,0.2-0.4,0.3-0.5,0.5c-0.8,1,0,0.2-1.6,1.8
			C97.4,22.7,93.8,26.2,93.6,26.6z M223.6,55.5c0.4,0.2,3.7,3.4,3.7,3.7c-0.1,0.5-0.3,0.6-0.7,0.9c-0.5,0.5-0.3,0.4-0.7,0.9
			c-0.5,0.7-3.3,3.4-4.1,3.9l-2.4,2.4c-1.2,1.2-0.6,0.6-1.5,1.8c-0.5,0.6-3,2.8-3.2,3.3c-0.2,0.5,0.7,1.2,1.2,1.7l2.4,2.4
			c0.2,0.3,0.3,0.7,0.8,0.9c0.8,0.4,1.1-0.8,1.7-1.3c0.4-0.4,0.4-0.5,0.7-0.8c0.4-0.4,0.5-0.4,0.9-0.7l4.9-4.9c1-1,0.7-1,1.5-1.7
			l5.7-5.6c0.5-0.4,1.7-2.1,2.4-2.5c0.5-0.4,0.5-0.3,0.5-1.2c0-0.9,0-0.8-0.5-1.2l-4.5-4.4c-0.3-0.3-0.1-0.2-0.3-0.5l-7.2-7.3
			c-0.4-0.4-0.6-1-2.3-2.6c-0.5-0.4-0.4-0.2-1.7-1.5l-4.1-4c-0.3-0.3-0.3-0.6-0.7-0.9c-0.5-0.6-1-1-1.6-1.6l-1.6-1.7
			c-2.5-2.5-1.8-2.4-4.4,0.1c-0.8,0.8-1.7,1.9-2.5,2.4c-0.8,0.6-0.7,1.3,0,2l4.9,4.9c0.6,0.6,1.1,1.1,1.6,1.6
			c0.4,0.3,0.8,1.1,1.5,1.8c1.1,1.1,2.1,2.1,3.2,3.2c3.4,3.4,4,1.8-2.5,8.4c-0.9,0.9-2,1.6-2.5,2.3c-1.1,1.5,1.1,2.6,2.2,3.7
			c0.8,0.8,1.1,0.1,2.7-1.6c1-1,1-1.2,1.5-1.7C219.3,59.3,222.8,55.7,223.6,55.5L223.6,55.5z M154.4,63.9c0.7-0.6,2.6-2.5,3-3.1
			l4.5-4.6c0.7-0.6,0.9-1.2,1.8-0.2c0.5,0.5,1,1.2,1.5,1.6c2.5,2,1.3,1.9,0.5,2.9c-0.5,0.6,0.1,0.1-1,1.2c-0.4,0.4-0.7,0.7-1.1,1.1
			c-0.2,0.2-0.3,0.4-0.5,0.5c-0.1,0.1-0.2,0.1-0.4,0.2c-0.8,0.5-3.9,3.8-4.8,4.7c-0.4,0.4-0.5,0.8-1,1.2c-0.4,0.4-0.7,0.7-1.1,1.1
			c-2.5,2.5-2.5,1.4,1.8,5.8c0.5,0.5,0.3,0.7,1.1,1.2c0.9-0.2,0.7-0.7,1.2-1.1c0.4-0.4,0.8-0.7,1.2-1.1c0.5-0.4,0.6-0.8,1.1-1.3
			c0.5-0.5,0.9-0.6,1.3-1c0.8-0.8,1.5-1.5,2.3-2.4c0.4-0.4,0.8-0.8,1.2-1.2c0.5-0.4,0.6-0.9,1-1.3l7-7c0.3-0.3,0.2-0.4,0.5-0.6
			c0.3-0.2,0.4-0.3,0.6-0.6c1.5-1.7,1.5-0.9-2.7-5.1c-0.6-0.6-1.3-1.2-1.8-1.8c-0.2-0.3-0.1-0.3-0.4-0.6l-5.1-5.1
			c-1.5-1.5-1.4-1.3-2.6-2.9c-0.4-0.5-0.5-0.4-1.1-0.8l-5.5-5.4c-1.1-1.1-1.5-1.8-1.8-2l-1.7-1.9c-0.7-0.7-1.2-1.2-1.9-1.9
			c-0.5-0.5-1.3-1.7-2.2-1l-3.6,3.7c-1.7,1.5-1.3,1.5,1.3,4.1c1.8,1.8,3.9,3.7,5.5,5.7l5.5,5.5c1.3,1,1.1,1.4,0.7,2.1
			c-0.5,0.9-6.3,6.6-7.3,7.4c-0.9,0.7,0.5,1.7,0.9,2.1C153,62.7,153.7,63.4,154.4,63.9L154.4,63.9z M126,110.8
			c-0.2-0.3-0.3-0.5-0.5-0.7c-1.3-1.1-0.5-0.7-1.1-1.3c-1.2-1.4-6.7-6.4-7.6-7.6c-0.3-0.4-0.1-0.3-0.5-0.7l-4.1-4.1
			c-1.7-1.7-0.1-1.5,1.2-3.1c0.2-0.3,0.2-0.5,0.4-0.7l3.5-3.4c0.8-0.8,2.2-1.5,2.1-2.6c-0.1-0.6-0.7-1-1-1.4
			c-1.1-1.3-0.5-0.5-1.1-1.2c-0.4-0.4-0.7-0.9-1.4-0.3c-0.5,0.5-0.7,0.6-1.1,1.2c-0.3,0.5-3.9,4-4.6,4.7c-0.4,0.4-1.9,2.2-2.5,2
			c-0.5-0.2-1.7-1.9-2.2-2.3c-1.8-1.4-1.9-1,0.8-3.7c0.5-0.4,0.6-0.9,1-1.3l7-7c0.4-0.4,0.6-0.9,1.1-1.3c1.7-1.6,1.4-1.5,0.2-2.7
			c-0.4-0.4-0.7-0.8-1.2-1.2c-0.4-0.4-0.7-0.8-1.1-1.3c-2-2.3-2.8,0.1-3.8,1.1l-4.6,4.8c-0.3,0.5-0.7,0.9-1.2,1.2
			c-0.4,0.3-6.7,6.5-7,6.9c-0.8,1.2-2.3,2.3-3.4,3.6c0.3,0.9,1.3,1.6,1.9,2.3c0.5,0.5,1.7,1.5,2,2.1c0.8,1.1,5.6,5.9,6.1,6.2
			c0.7,0.4,0.7,0.5,1.1,1c0.7,0.6,0.4,0.3,0.9,1.1c0.3,0.5,1.6,1.6,2,2.1c0.7,0.7,1.3,1.3,2,2l3.1,3.1c0.9,0.9,0.4,0.4,0.9,1.1
			c0.3,0.4,0.7,0.7,1.1,1.1c0.4,0.4,0.6,0.7,0.9,1.1c0.7,0.7,1.3,1.3,2.1,2c3.1,3.1,2.7,3.3,4.3,1.3
			C122.9,113.8,125.4,111.7,126,110.8L126,110.8z M225.5,119.2c2.5,2.4,2.6,1.3-1.4,5.3c-0.4,0.4-0.3,0.5-0.7,1
			c-1.2,1.2-1.3,1.1-1.8,1.5l-4,4c-1.1,1.1-1.5,1.4-2.4,2.6c-0.7,0.9-1.3,0.6,0.4,2.3c0.4,0.4,0.8,0.8,1.2,1.2
			c0.4,0.4,2.1,2.1,2.4,2.3c0.7-0.3,1.2-0.8,1.6-1.4c0.6-0.8,0.9-0.9,1.5-1.3l2.9-2.9c0.3-0.3,0.4-0.6,0.6-0.9l4.9-4.9
			c0.3-0.3,0.6-0.4,0.8-0.7c0.3-0.3,0.3-0.5,0.6-0.8c0.5-0.5,1-0.8,1.3-1.5c0.5-0.9,0.4-0.3,1.3-1.5c1.5-1.9,2.6-1.2,2.4-3.3
			c-0.1-0.6-0.2-0.5-0.6-0.8c-0.3-0.2-0.5-0.4-0.7-0.7c-0.4-0.4-1-0.9-1.3-1.5c-0.4-0.6-3.6-3.7-4.2-4.3c-1-1-1.8-1.9-2.8-2.8
			c-0.6-0.6-0.7-1-1.3-1.6c-1-0.9-3.6-3.7-4.3-4.2c-0.6-0.4-2.4-2.2-2.9-2.8c-0.3-0.3-0.3-0.5-0.6-0.8l-3.6-3.6
			c-0.3-0.3-0.4-0.5-0.6-0.8c-0.2-0.3-0.4-0.5-0.7-0.7c-0.5-0.5-0.9-0.9-1.4-1.4l-1.3-1.2c-0.1-0.1,0.1,0-0.2-0.2l-3,3
			c-0.3,0.3-0.6,0.7-1,1c-0.7,0.7-1.8,1-0.8,2.2c0.6,0.8,1.2,1.1,1.8,2c0.3,0.5,0.7,0.7,1,1l6.8,7c0.5,0.8,1.3,1.4,1.9,2.1
			c0.7,0.7,1.3,1.3,2,2c0.8,0.8-0.1,1.2-1,2.2c-0.4,0.4-0.6,0.6-1.1,0.9c-0.7,0.5-0.4,0.5-0.8,1.1c-1.1,1.7-5,3.9-4.7,5.2
			c0.2,1,1.4,1.6,2,2.1c0.1,0.1,0.6,0.8,0.8,1.1c1-0.1,0.8-0.5,1.3-1c0.3-0.4,0.7-0.7,1.1-1.1l6.7-6.3
			C224.3,117.7,225,118.8,225.5,119.2L225.5,119.2z M120.5,0.3H119c-0.2,0.7-4.7,4.3-4.6,5.4c0.1,0.5,4.3,4.5,4.9,5.1
			c0.4,0.4,0.8,0.8,1.2,1.2c0.6,0.6,0.2,0.5,1.1,1.4c0.9,0.8,1.7,1.7,2.5,2.5c1.3,1.4,4.2,3.5,4.8,5.2c-0.5,0.6-0.9,0.8-1.3,1.2
			L124,26c-0.3,0.2-0.4,0.3-0.7,0.5c-0.2,0.2-0.4,0.4-0.6,0.7c-0.3,0.3-2.4,1.6-1.8,2.8c0.3,0.8,0.7,0.8,1.2,1.3
			c0.9,0.8,1.3,1.7,2.1,1.2l0.3-0.2c0,0,0,0,0.1-0.1l3.4-3.4c0.8-1.1,0-0.4,1.7-2.1c0.5-0.5,2-2.2,2.5-2.4l2.2,1.8
			c2.5,2.5,2.3,2-0.1,4.3c-1.2,1.2-0.9,0.7-2.1,1.9l-3.9,3.9c-1.1,1.5-2.5,2.7-3.8,4c-1,1-1.4,1.1-0.2,2.2c0.4,0.3,1.8,1.7,2,2
			c0.3,0.5,1.4,1.9,1.9,1.9c0.6,0,1.2-0.9,1.6-1.3c0.3-0.3,0.2-0.2,0.5-0.6c0.3-0.5,1.5-1.5,1.9-1.9c0.2-0.2,0.7-0.9,1-1
			c0.3-0.2,0.3-0.1,0.6-0.4l4.4-4.5c0.6-0.8,5.6-5.6,6.9-7c0.1-0.1,0.3-0.3,0.4-0.5c0.5-0.5,0.3-0.1,0.8-0.9
			c0.4-0.6,0.5-0.2,0.5-0.8c0-0.6-2.3-2.7-2.8-3.1l-2.9-2.9c-0.5-0.5-0.6-0.3-1-1c-0.4-0.7-1.4-1.5-1.9-2.1l-3.9-3.9
			c-0.5-0.5-0.6-0.5-1.1-0.9c-0.5-0.5-1-1.4-1.8-2.2c-0.4-0.4-0.6-0.6-1-1c-0.7-0.7-1.3-1.3-2-2l-3.9-3.9c-0.7-0.9-0.5-0.9-1.9-2.1
			C121.9,2.2,120.7,0.8,120.5,0.3L120.5,0.3z M142.3,84.5l-6.9-6.8c-0.8-0.8-0.7-1.4-2-2.2c-0.5-0.3-4.5-4.4-5.3-5.2
			c-0.4-0.4-0.7-0.7-1.1-1c-0.4-0.4-0.5-0.7-0.9-1.2c-1.5-1.4-2.8-2.8-4.2-4.2c-0.4-0.4-0.7-0.7-1.1-1c-0.3-0.3-0.6-0.9-1.2-0.8
			c-0.7,0.1-2.6,2.9-4.3,4.1c-0.3,0.2-0.9,0.7-0.8,1.3l1.9,2.3l6.4,6.3c0.5,0.5,0.5,0.7,0.9,1.2c0.6,0.7,1.4,1.4,2.1,2.1
			c3.4,3.4,3.8,3.1,2.1,4.4c-0.4,0.3-0.8,0.6-1,1.1c-0.3,0.6-2.5,2.6-3,3.2l-1.6,1.5c-1.9,1.7-1.5,1.9-0.5,3.1
			c0.4,0.5,1.5,1.9,2.2,1.9c0.6,0,0.8-0.6,1.2-0.9c1.1-1,0.2-0.5,1-1.1c1-0.9,6.1-6.2,6.3-6.2c0.3,0,3.7,3.3,4,3.7
			c-0.2,0.4-1.3,1.4-1.6,1.7c-1.5,1.5-0.7,1.1-1.6,1.7l-6.6,6.5c-0.8,0.8-0.7,0.8-1.6,1.7c-1.8,1.7-1.8,1.8-0.7,2.7
			c4,3.6,3.2,4.6,5.3,2.7l3.6-3.6c0.8-0.5,2.1-1.8,2.6-2.5c0.4-0.7,1.8-1.9,2.4-2.5l8.5-8.8c0-0.8-1.1-1.5-1.9-2.4
			c-0.5-0.5-1.7-1.6-2.1-2.1C142.5,84.9,142.5,84.8,142.3,84.5L142.3,84.5z M181.1,0.3h-1.5c-0.2,0.6-1.8,1.8-2.4,2.6
			c-0.2,0.3-0.3,0.4-0.5,0.7c-0.2,0.2-1.7,1.4-1.6,2.2c0.3,0.7,4.8,5.1,5.7,5.9c1.2,1.2,0.7,1,1.3,1.5l4.4,4.4
			c0.4,0.4,2.7,2.6,2.9,2.9c0.6,1.1-0.9,1.8-2.3,3.2l-4.3,4.3c-0.4,0.4-0.2,0.5-0.6,0.8c-1,1.2-1,0.8,0.6,2.4c0.6,0.6,1,1.3,1.5,1.4
			c0.8,0.2,1.4-0.7,1.7-1.1c2.1-1.9,5-6.1,7.1-7.2l3.2,3c1.4,1.2,0.1,1.9-1.7,3.6c-0.8,0.8-1.3,1.4-2.2,2l-3.1,3.1
			c-0.4,0.4-0.5,0.8-0.9,1.2c-0.4,0.4-0.7,0.6-1.1,1c-0.7,0.7-3.1,2.8-3,3.4c0,0.5,2.3,2.3,2.8,3c0.3,0.5,1.4,1.7,1.8,1.8
			c0.5,0.1,1.5-1.1,1.9-1.5l1.6-1.9c0.4-0.3,0.5-0.2,1.3-1c0.7-0.6,4.8-4.8,5.1-5.3c0.5-0.8,7.5-7.4,8.1-8.3
			c0.2-0.3,0.3-0.4,0.4-0.8c0-0.7-5.4-5.6-6.5-6.8c-0.6-0.7-0.1-0.4-1.5-1.8l-5-5c-0.3-0.3-0.5-0.5-0.8-0.8
			c-0.2-0.2-0.6-0.7-0.8-0.9c-0.2-0.2-0.1,0-0.5-0.4L185,4.8c-0.4-0.4-0.4-0.7-0.7-1c-0.8-0.8-1.6-1.4-2.5-2.5
			C181.5,1,181.2,0.8,181.1,0.3L181.1,0.3z M151,85.6c0.6-0.2,0.7-0.7,0.8-0.9l3.6-3.6c0.3-0.4,0.8-0.6,0.9-1
			c0.2-0.8-1.5-2.2-2.3-2.9c-0.4-0.4-0.4-0.7-0.8-1c-1.3-1.4-6.6-6.5-7.2-7.2c-1-1.2-0.4-0.6-1.7-1.9c-2.9-2.9-2.9-2.3-1.3-3.8
			c1.6-1.6,1.2-1,2.6-2.8c1-1.2,4.5-4.1,4.3-4.8c-0.3-0.5-1-1.1-1.4-1.4c-1.6-1.5-0.7-2.6-4.5,1.2c-0.9,0.9-2,1.9-2.8,2.8
			c-0.5,0.6-2.2,2.7-2.8,2.9c-0.4-0.2-0.7-0.8-0.9-1c-3.3-3.7-3.7-2.2-0.8-5.1c0.6-0.6,1.2-1.3,2-2c0.4-0.4,0-0.2,0.9-1
			c1.9-1.8,5.2-5.1,6.9-7c1.4-1.6,0.4-1.8-0.2-2.4c-0.6-0.7-1.3-1.3-2-2c-0.5-0.5-1.4-1.9-2.3-1.3l-2,2c-0.7,0.7-1.3,1.3-2,2
			c-1.5,1.5-0.7,0.7-1.3,1.6l-2.9,2.9c-0.5,0.5-0.1-0.2-1.7,1.4l-3,3c-0.4,0.5,0.1,0.2-0.9,1.1c-5.3,5.2-4.9,3.9-1.5,7.2
			c0.4,0.4,0.5,0.7,0.9,1.1l2.9,2.9c1.2,1.3,1.4,1.8,3,3c0.7,0.5,1,1,1.4,1.5c0.2,0.3,0.3,0.3,0.5,0.6l6.9,6.9
			c0.4,0.5-0.1,0,0.9,1.1c1.3,1.4,2.6,2.6,3.9,3.9c1,1,2.6,2.4,3.3,3.6C150.6,85.4,150.8,85.5,151,85.6L151,85.6z"/>
	</g>
</g>
</svg>
