<?xml version="1.0" encoding="utf-8"?>
<!-- Generator: Adobe Illustrator 24.0.2, SVG Export Plug-In . SVG Version: 6.00 Build 0)  -->
<svg version="1.1" id="Слой_1" xmlns="http://www.w3.org/2000/svg" xmlns:xlink="http://www.w3.org/1999/xlink" x="0px" y="0px"
	 viewBox="0 0 238.1 150.2" style="enable-background:new 0 0 238.1 150.2;" xml:space="preserve">
<g>
	<path d="M97,35.6H55.3c-1.3,7.2,5.7,10.1,5.7,10.1h44.6L97,35.6z"/>
	<path d="M109.2,50.1H67.4c-1.3,7.2,5.7,10.1,5.7,10.1h44.6L109.2,50.1z"/>
	<path d="M228.8,35.6h-41.8l-8.4,10.1h44.6C223.2,45.7,230.2,42.8,228.8,35.6z"/>
	<path d="M174.9,50.1l-8.4,10.1h44.6c0,0,7-2.8,5.7-10.1L174.9,50.1L174.9,50.1z"/>
	<path d="M162.7,64.7l-3.7,4.5c-0.9-0.9-2.8-2.8-3.9-4.5h-28.6c-0.2,1.9-0.5,3.7-0.8,5.2l-4.4-5.2H79.6c-1.3,7.2,5.7,10.1,5.7,10.1
		h113.6c0,0,7-2.8,5.7-10.1H162.7z"/>
	<path d="M153.3,60.2l-3.4-10.1h-23c0.1,1.6,0.1,3,0.1,4.5c0,1.8,0,3.7-0.1,5.5L153.3,60.2L153.3,60.2z"/>
	<path d="M162.2,43.3c0,0-1-6.2-8.1-8.4H130c-2.4,3.9-3,7.8-3.2,11.5H152C152.3,43.9,152.6,43.3,162.2,43.3z"/>
	<path d="M149.1,89.9h2.5l-1.2-3L149.1,89.9z"/>
	<path d="M127.1,83.1c-3.4,0-6.4,2.4-7.8,6.8h14.4C133.4,85.5,131.9,83.1,127.1,83.1z"/>
	<path d="M92.2,78.8v3.6c0,4.2,3.4,7.6,7.6,7.6h15.4c2-5.9,6.9-8,11.3-8c0.9,0,1.9,0.2,2.7,0.4c5.4,1,5.7-0.3,5.7-0.6l0,0l0,0v2.5
		V90h12.7l3.8-9.6l3.8,9.6h29.1c4.2,0,7.6-3.4,7.6-7.6v-3.6H92.2z"/>
	<path d="M118.5,96.4c0,3.6,0.5,6.3,1.2,8.3h12.5v-4.8H130v-0.9h8.4v0.9H136v4.8h5.5l4.5-11.2h-23.4h-4.1
		C118.6,94.4,118.5,95.3,118.5,96.4z"/>
	<path d="M144.8,100.7h11.1l-2.9-7.2h-5.2L144.8,100.7z"/>
	<path d="M143.2,104.6h14.2l-1.2-2.9h-11.9L143.2,104.6z"/>
	<path d="M174.3,93.5h-6.5h-6.4h-4.8l4.5,11.2h5.3h1.4h6.5c3.1-1.5,5.4-4.7,5.4-8.4v-2.8h-0.4H174.3z"/>
	<path d="M114.4,93.5h-4.6h-4.9h-0.4v2.8c0,3.7,2.2,6.9,5.4,8.4h6.4c-1.2-2.2-2-4.9-2-8.3C114.2,95.3,114.3,94.4,114.4,93.5z"/>
	<path d="M130.8,108h-8.7c1.4,1.1,3.1,1.6,5,1.6C128.6,109.7,129.9,109.1,130.8,108z"/>
	<path d="M162.5,108l0.6,1.3h2.8v0.9h-10v-0.9h3.6l-0.6-1.3h-16.4h-0.6l-0.6,1.3h2.4v0.9h-6.4v-0.9h2.4l0.6-1.3h-4.1v2.8
		c0,0-1.1-3.1-5.3-1.1c-1.2,0.9-2.7,1.3-4.4,1.3c-2.4,0-5.1-0.9-7.5-2.9h-2.6c0,0.4-0.1,0.8-0.1,1.1c0,4.4,2.5,8.2,6,10.1h19.4h0.7
		h19.4c3.5-1.9,6-5.7,6-10.1c0-0.4,0-0.8-0.1-1.1C167.6,108,162.5,108,162.5,108z"/>
</g>
</svg>
