<?xml version="1.0" encoding="utf-8"?>
<!-- Generator: Adobe Illustrator 24.0.2, SVG Export Plug-In . SVG Version: 6.00 Build 0)  -->
<svg version="1.1" id="Слой_1" xmlns="http://www.w3.org/2000/svg" xmlns:xlink="http://www.w3.org/1999/xlink" x="0px" y="0px"
	 viewBox="0 0 238.1 150.2" style="enable-background:new 0 0 238.1 150.2;" xml:space="preserve">
<g>
	<path d="M34,144.8v-4.4h4.2v4.4h2.2v-10.1h-2.2v4H34v-4h-2.2v10.1H34z"/>
	<path d="M59.8,134.7v5.5c0,1.7,0,3.2-2.2,3.2c-2.1,0-2.2-1.5-2.2-3.2v-5.5h-2.3v6.3c0,2.7,2,4,4.5,4s4.5-1.3,4.5-4v-6.3H59.8z"/>
	<path d="M81.7,141.1v2c-0.6,0.2-1.1,0.3-1.9,0.3c-2.1,0-3-1.4-3-3.7c0-2.3,0.8-3.7,2.8-3.7c1.3,0,2.1,0.8,2.1,1.7h2.2
		c0-2-1.8-3.3-4.4-3.3c-2.1,0-5,1.2-5,5.3c0,4,2.7,5.3,5.2,5.3c2.1,0,3.5-0.4,4.2-0.8v-4.8h-4.2v1.7H81.7L81.7,141.1z"/>
	<path d="M184,137.5c0-2-2-3.2-3.9-3.2s-4,1.1-4,3.2c0,1.4,1,2.2,2.5,2.6c0.4,0.1,1.2,0.4,1.6,0.5c1.4,0.4,1.9,0.8,1.9,1.6
		c0,1.1-1.1,1.5-1.7,1.5c-1.7,0-2.2-1-2.2-2.1H176c0,2.2,1.7,3.5,4.4,3.5c2.1,0,4.1-1.2,4.1-3.2c0-1.6-1.2-2.5-2.8-2.9
		c-0.5-0.2-1.1-0.3-1.6-0.5c-1.2-0.4-1.7-0.7-1.7-1.5c0-0.7,0.5-1.3,1.7-1.3s1.8,0.8,1.8,1.8H184z"/>
	<path d="M205.7,137.5c0-2-2-3.2-3.9-3.2s-4,1.1-4,3.2c0,1.4,1,2.2,2.5,2.6c0.5,0.1,1.2,0.4,1.6,0.5c1.4,0.4,1.9,0.8,1.9,1.6
		c0,1.1-1.1,1.5-1.7,1.5c-1.7,0-2.2-1-2.2-2.1h-2.2c0,2.2,1.7,3.5,4.4,3.5c2.1,0,4.1-1.2,4.1-3.2c0-1.6-1.2-2.5-2.8-2.9
		c-0.5-0.2-1.1-0.3-1.6-0.5c-1.2-0.4-1.7-0.7-1.7-1.5c0-0.7,0.5-1.3,1.7-1.3s1.8,0.8,1.8,1.8H205.7z"/>
	<path d="M101.4,145.1c3.5,0,5-2.3,5-5.4c0-3-1.6-5.4-5-5.4c-3.5,0-5,2.3-5,5.4C96.4,142.8,97.9,145.1,101.4,145.1z M101.4,136
		c2.2,0,2.6,2,2.6,3.8s-0.4,3.8-2.6,3.8s-2.6-2-2.6-3.8C98.7,138,99.2,136,101.4,136z"/>
	<path d="M136.2,144.9c2.1,0,3.9-1,3.9-2.8c0-1.5-1.2-2.4-2.4-2.5c0.8-0.1,2-1,2-2.3c0-1.8-1.4-2.7-3.6-2.7h-4.4v10.3H136.2z
		 M133.8,143.3v-3h2c1,0,1.8,0.3,1.8,1.5c0,1.1-0.9,1.5-1.8,1.5H133.8z M133.9,138.8v-2.6h2c0.9,0,1.4,0.6,1.4,1.3
		c0,0.8-0.7,1.3-1.5,1.3C135.8,138.8,133.9,138.8,133.9,138.8z"/>
	<path d="M158,145.2c3.5,0,5.1-2.4,5.1-5.4c0-3.1-1.6-5.4-5.1-5.4s-5.1,2.4-5.1,5.4C152.9,142.8,154.5,145.2,158,145.2z M158,135.9
		c2.3,0,2.7,2,2.7,3.8s-0.4,3.8-2.7,3.8s-2.7-2-2.7-3.8S155.7,135.9,158,135.9z"/>
	<path d="M167.2,111.1c0.5,5.2-1.8,14.9-16.6,15.5c-6.5,0.3-14.7-1.8-17.9-3.3v-12.5h1.6c0.3,1.5,3.4,13.1,14.2,13.6
		c6.2,0.3,11-2.3,11.1-7.5c0.1-6-6.5-8.1-12.5-10.5c-6.8-2.7-13.4-5.4-14.3-12.8c-1.1-8.6,6.9-14.4,15.9-14c5,0.2,10,1.4,13.9,3
		v10.5H161c-0.9-5.7-4.4-11.1-12.2-11.6c-4.6-0.3-8.7,1.4-8.7,6.4c0,4.9,8.3,7,14.3,9.4C160.6,99.7,166.5,103.1,167.2,111.1z"/>
	<path d="M208.4,111.1c0.5,5.2-1.8,14.9-16.6,15.5c-6.5,0.3-14.7-1.8-17.9-3.3v-12.5h1.6c0.3,1.5,3.4,13.1,14.2,13.6
		c6.2,0.3,11-2.3,11.1-7.5c0.1-6-6.5-8.1-12.5-10.5c-6.8-2.7-13.4-5.4-14.3-12.8c-1.1-8.6,6.9-14.4,15.9-14c5,0.2,10,1.4,13.9,3
		v10.5h-1.6c-0.9-5.7-4.4-11.1-12.2-11.6c-4.6-0.3-8.7,1.4-8.7,6.4c0,4.9,8.3,7,14.3,9.4C201.7,99.7,207.7,103.1,208.4,111.1z"/>
	<path d="M77.9,103.2c0-13.2,10.7-23.9,24-23.9c13.2,0,24,10.7,24,23.9s-10.7,23.9-24,23.9C88.6,127.2,77.9,116.4,77.9,103.2z
		 M101.8,125.2c9.4-0.1,12.6-12.1,12.6-22s-4.1-22.1-12.6-22.1c-9,0-12.7,12.1-12.6,22.1C89.2,113.1,92.4,125.3,101.8,125.2z"/>
	<path d="M33.7,122.2c0,1.3-1.5,2-3,2h-1.1v1.7H54c8.6,0,17.8-4,17.9-12.8C72,103,61.7,101.2,58.4,101c5.1-0.8,11.1-5.1,10.8-11.1
		c-0.3-6.5-7.2-9.5-13.6-9.5H29.9v1.7h1.3c1,0,2.5,0.3,2.5,1.7L33.7,122.2L33.7,122.2z M44.1,124v-21.9h6c6.8,0,10.3,4.8,10.6,10.3
		C61,119,56.2,124,50.1,124H44.1z M44.1,100.4V82.1h5.1c5,0,9,3.1,9.3,8.8c0.2,5.4-3.9,9.5-9,9.5H44.1z"/>
</g>
</svg>
