<?xml version="1.0" encoding="utf-8"?>
<!-- Generator: Adobe Illustrator 24.0.2, SVG Export Plug-In . SVG Version: 6.00 Build 0)  -->
<svg version="1.1"
	 id="Слой_1" image-rendering="optimizeQuality" shape-rendering="geometricPrecision" text-rendering="geometricPrecision" xmlns:xodm="http://www.corel.com/coreldraw/odm/2003"
	 xmlns="http://www.w3.org/2000/svg" xmlns:xlink="http://www.w3.org/1999/xlink" x="0px" y="0px" viewBox="0 0 238.1 150.2"
	 style="enable-background:new 0 0 238.1 150.2;" xml:space="preserve">
<style type="text/css">
	.st0{fill-rule:evenodd;clip-rule:evenodd;fill:#373535;}
</style>
<g id="Layer_x0020_1">
	<path class="st0" d="M208.5,141.3c-0.8-0.5-1-1.7-1.4-2.5c-1-2-0.2-1,0-2.6c-0.8-0.1-1.5,0-2.3,0c-0.3,0-0.8,0-1.1,0l-0.9,0.3
		c-0.3,0.9,0.6,0.6,1.2,1.2c0.4,0.3,0.7,1.1,1,1.7c1.1,2.6,3.1,4.1,1.3,7.9c-1.2,2.6-2.7,0.8-3,2.3c0.9,0.4,10.1,0.3,11.8,0.1
		c0.5-0.7,1.5-2.5,1.7-3.6c-1.7,0.2-1.1,2.1-3.2,2.7c-0.8,0.2-4.7,0.1-5.8,0.1l0.6-1.8c1,0.7-0.1,1.2,2.4,1.1c1-2.1,2.8-6.8,4.1-9.6
		c1.1-2.4,1.8-1,1.9-2.5c-0.9-0.2-2.8-0.3-3.6,0c0,0.8,0.3,0.7,1,0.9c-0.2,2.1-2.9,6.5-3.5,9c-0.7-0.4-1.1-1.3-1-2.2l1.6-4.5
		c0.7-1.1,1.5-0.3,1.6-1.5c-0.8-0.3-3.6-0.3-4.3,0c-0.1,0.8,0,0.5,0.6,1.1L208.5,141.3L208.5,141.3z M169.7,135.9
		c-1.4,0-1.3-0.1-1.8,0.3c0.3,1.1,0,0.3,1.1,0.9c-0.1,0.9-2.1,5.4-2.7,6.8c-0.3,0.6-0.5,1.7-1,2.1c-1.4-2.1-0.6-2.5,0.1-4.6
		c0.2-0.6,0.5-1.7,0.8-2.2c0.7-1.1,1.4,0,1.6-1.3c-0.9-0.3-3.4-0.3-4.4,0c0,1.3,1,0.4,0,2.8c-0.1,0.1-0.1,0.3-0.2,0.4
		c-0.2,0.3-0.1,0.2-0.2,0.3c-0.5-0.6-0.9-1.8-1.3-2.6c-0.9-2-0.2-0.7,0-2.5c-1.2,0-3.3-0.3-4.2,0.2c0,1.5,0.6,0.3,1.4,1.4
		c0.3,0.4,0.6,1.3,0.8,1.9c1.1,2.5,3,4.1,1.1,7.8c-1.3,2.5-2.8,0.5-2.8,2.2c0.7,0.3,10.6,0.2,11.7,0c0.5-0.6,1.6-2.6,1.7-3.6
		c-1.7,0.4-1.3,2.1-3.2,2.7c-0.9,0.3-4.5,0.1-5.8,0.1c0.1-0.7,0.4-1.3,0.7-1.8c0.9,0.8,0.2,1.3,2.3,1l4.1-9.4c1-2.4,1.5-1.1,2-2.4
		C171,135.8,170.4,135.9,169.7,135.9L169.7,135.9z M167.9,0.5c0.1,0.9,0.2,0.6,1,1c0,0.4-3.2,8.5-3.8,9c-1.3-2-0.6-2.5,0.1-4.4
		c0.2-0.6,0.5-1.7,0.8-2.3c0.6-1.3,1.4-0.2,1.7-1.4c-0.2-0.1-0.1-0.1-0.4-0.2c-0.8-0.2-3.4-0.1-4,0.2c0.1,1.1,0.7,0.5,0.4,1.6
		c-0.1,0.6-0.4,1.4-0.8,1.7c-0.3-0.4-1.1-2.2-1.4-2.8c-0.9-2,1.8-2.2-1.5-2.2c-0.7,0-2-0.2-2.4,0.2c-0.6,0.6,0.4,0.7,0.9,1.1
		c0.5,0.3,0.7,0.9,1.1,1.7c1.4,2.9,3,4.7,1.4,8c-1.2,2.6-2.6,1.1-3,2.3c0.6,0.5,7.9,0.3,9.8,0.3l2.1,0c0.4-0.6,1.5-2.8,1.5-3.6
		c-1.6,0.1-0.6,0.9-2.3,2.3c-1,0.8-2.9,0.5-4.3,0.5l-2.2,0l0.5-1.8c0.6,0.3,0.2,0.2,0.6,0.8c0.3,0.3,0.4,0.3,0.9,0.4
		c1.1,0,1.1-0.5,1.4-1.3l4.1-9.5c0.8-1.1,1.4-0.1,1.4-1.4C171,0.4,168.4,0.3,167.9,0.5L167.9,0.5z M157.4,46.4
		c0.6,0.6,0.9,0.3,1.3,1l1.7,2.9c0.5,1,1.2,2,1.4,3.3c0.1,1.3-0.6,4.3-2.2,4.7c-0.8,0.2-1.5,0-1.4,0.9c0.8,0.2,10.7,0.2,11.6,0
		c0.6-0.5,1.7-2.6,1.8-3.6c-1.8,0.1-1.2,2.4-3.2,2.7c-1.5,0.2-4.2,0.1-5.8,0.1l0.6-1.8c0.9,0.7,0.2,1.3,2.4,1.1l4-9.5
		c1.3-2.8,2-1.1,2-2.5c-0.8-0.4-3-0.4-3.6,0.1c0.2,0.9,0.2,0.4,1,0.9c-0.1,1-2.1,5.2-2.7,6.7l-0.7,1.7c0,0-0.1,0.2-0.1,0.2
		c-0.2,0.3,0,0.1-0.3,0.3c-1.4-1.7-0.5-2.7,0.1-4.4c0.2-0.7,0.5-1.7,0.8-2.3c0.7-1.3,1.5-0.1,1.6-1.4c-1-0.4-3.4-0.1-4.4,0.1
		c0.1,0.4,1.1,1-0.1,3c0,0-0.1,0.1-0.1,0.1l-0.2,0.2c-0.5-0.6-0.8-1.6-1.2-2.4c-1-2.2-0.1-1,0-2.6l-4.1,0L157.4,46.4L157.4,46.4z
		 M73.2,148c2.2,0.5,1.9-0.5,2.7-2.2l3-6.9c1.1-2.7,2-1.3,2-2.9l-3.5,0.1c-0.1,1,0.1,0.5,0.9,1.1c0,0.7-3.2,8.3-3.6,8.9
		c-1.6-1.4-0.6-2.9,0-4.5c0.2-0.6,0.5-1.8,0.8-2.2c0.7-1.1,1.4-0.1,1.7-1.5c-0.9-0.1-3.5-0.2-4.3,0c-0.2,0.6,1,1.2-0.4,3.5
		c-0.4-0.3-0.9-1.5-1-1.9c-0.3-0.7-0.6-1.3-0.9-1.9c0.4-0.6,0.7-0.2,0.5-1.1c-0.5-0.2-3.6-0.4-4.2,0c0.1,1.9,0.6-0.8,2.3,3.1
		c1,2.3,3.1,4.3,1.2,7.9c-1.3,2.3-2.8,0.6-2.9,2.4l11.8-0.1c0.4-0.5,1.5-2.7,1.7-3.5c-1.5,0.1-1.3,2.2-3.3,2.7
		c-0.8,0.2-4.7,0.1-5.7,0.1l0.5-1.3c0.2-0.3,0.1-0.2,0.2-0.4L73.2,148L73.2,148z M214.3,46.7c-0.1,0.9-3.2,8.1-3.7,9
		c-1.3-1.3-0.7-2.8-0.1-4.4c0.3-0.7,0.5-1.7,0.8-2.3c0.7-1.5,1.5-0.3,1.7-1.6c-1-0.4-3.8-0.3-4.6,0.4c0.3,0.5-0.1,0,0.6,0.5l0.2,0.2
		c-0.1,0.6-0.2,0.8-0.4,1.3c-0.3,0.7-0.2,0.8-0.6,1.1c-0.6-0.8-1.4-2.9-1.8-3.8c0.3-0.3,0.6-0.4,0.6-1.1c-0.7-0.3-3.5-0.3-4.2,0
		c-0.1,1.6,0.7-0.5,2.2,3.1c0.5,1.2,1.4,2.4,1.7,3.5c0.7,2-0.4,5-1.6,5.7c-1,0.5-1.6-0.2-1.8,0.9c0.6,0.3,10.9,0.3,11.8,0.1
		c0.3-0.2,0.8-1.2,0.9-1.6c0.2-0.5,0.7-1.4,0.7-1.8c-1.4-0.4-1.1,1.8-3.1,2.5c-0.9,0.3-4.7,0.1-5.9,0.2l0.6-1.8l0.7,1l1.7,0.1l4-9.5
		c0.2-0.6,0.5-1.1,0.9-1.5c0.7-0.6,1.1-0.1,1.1-1.1c-0.8-0.2-2.8-0.2-3.6,0C213.3,46.5,213.7,46.5,214.3,46.7L214.3,46.7z
		 M117.7,141.3c-0.4-0.3-0.5-0.8-0.7-1.3c-0.2-0.4-0.4-0.8-0.6-1.2c-1-2-0.1-1,0-2.5l-4.3,0.1c0.1,1.4,0.6,0.4,1.4,1.3l2.6,5.3
		c0.5,1.6,0.1,3.1-0.6,4.4c-1.3,2.7-2.7,0.3-2.9,2.3c1.8,0,11.1,0.1,11.6-0.1c0.6-0.2,1.7-2.7,1.8-3.5c-0.8-0.1-0.9,0.2-1.2,0.8
		c-1.3,2.6-3.7,1.9-7.7,1.8l0.7-1.7c0.7,0.5,0.1,1.2,1.6,1.1c1-0.1,1-0.7,1.3-1.5c0.5-1.2,3.7-8.9,4.1-9.4c0.9-0.9,1.5,0.1,1.2-1.4
		l-3.5,0.1c-0.1,1.2,0.2,0.5,0.9,1.1c-0.1,0.9-3.3,8.4-3.7,8.8c-1.5-1.4-0.5-3.1,0.1-4.6c0.2-0.6,0.5-1.8,0.8-2.3
		c0.7-1,1.4,0,1.6-1.3c-0.8-0.4-3.5-0.2-4.3,0c0,1.4,0.7,0.5,0.3,1.9C118.2,140.3,118,140.9,117.7,141.3L117.7,141.3z M115.1,12.4
		c-0.2,0.5-0.3,0.7-1.1,0.8c-0.9,0.2-1-0.1-1.3,0.7c0.6,0.5,10.6,0.3,11.9,0.2l0.5-0.7c0.3-1,1.1-2,1-2.8c-1.5,0-1.2,2.3-3.1,2.6
		c-0.8,0.1-5.7,0.6-5.7-0.3l0.7-1.1c0.2,0.3,0.9,1.4,2,0.7c0.5-0.4,0.5-0.7,0.8-1.4l3.2-7.6c0.6-1.4,0.7-1.9,2.2-2.3l0-0.7
		c-0.9,0-2.6-0.1-3.8,0c0.2,1.1,0.1,0.4,1,1.1c0,0.7-3.2,8.3-3.7,8.8c-1.4-1.2-0.4-3.2,0.1-4.5c0.2-0.7,0.5-1.7,0.8-2.2
		c0.6-1,1-0.3,1.7-1.3l-0.3-0.1c-0.1,0-2.5-0.4-3.7,0c-0.5,0.2-0.1-0.1-0.4,0.2c-0.3,0.4,1.2,1.4-0.4,3.3c-0.4-0.4-1-1.9-1.3-2.5
		c-0.9-2-0.4-0.8,0.1-2.6l-4.3,0.1c0,0.9,0.3,0.6,1,1.1c0.9,0.6,1.4,2.5,2.3,4C116.9,8.6,116.4,11.6,115.1,12.4z M213.2,0.6
		c0.1,0.8,0.3,0.7,1,0.8c-0.2,1.9-3,6.8-3.6,9.1c-1.8-1.4-0.4-3.8-0.1-4.6c0.2-0.6,0.5-1.7,0.8-2.3c0.7-1.2,1.4-0.1,1.7-1.4
		c-0.8-0.1-2.9-0.2-3.7-0.1c-1.5,0.3-0.1,0.7-0.3,1.9c-0.1,0.6-0.4,1.4-0.8,1.7c-0.3-0.5-0.8-1.7-1.2-2.4c-0.8-1.7-0.5-1.1,0-2.6
		l-3.8,0c-1.2,0.2,0.9-0.3-0.3,0.1L202.8,1c0.4,1.6,0.7-0.5,2.2,2.9c1.4,3,3,4.3,1.3,7.8c-1.4,2.9-2.5,0.8-3,2.3l0.3,0.2
		c0.9,0.3,10.9,0.1,11.6,0c0.4-0.7,1.5-2.8,1.5-3.6c-1.7,0.1-1,2-3.1,2.7c-0.7,0.2-4.7,0.1-5.7,0.1c-0.1-0.5,0-0.4,0.2-0.9
		c0,0,0.2-0.4,0.2-0.4c0.2-0.4,0-0.2,0.4-0.4c0.3,1.1,0.7,1.2,2,1.1c1.4-2.1,4-10,5-10.9c0.7-0.7,1-0.1,1.2-1.1
		C216.4,0.5,213.5,0.3,213.2,0.6L213.2,0.6z M80.7,11.4l0.1-0.8c-1.4-0.3-1.2,2.3-3.1,2.6c-1.4,0.2-4.2,0.1-5.7,0
		c0-0.5,0.3-1.3,0.6-1.7c0.9,0.9,0.2,1.1,2.2,1c0.5-0.7,3.4-7.8,4.1-9.5c1.2-2.9,1.7-0.9,2-2.6l-3.6,0.1l-0.1,0.6l1.1,0.4
		c-0.1,0.8-3.3,8.4-3.7,8.9c-1.4-1.2-0.5-3,0-4.5c0.2-0.6,0.5-1.8,0.8-2.3c0.7-1.2,1.4-0.1,1.7-1.5l-4.3-0.1
		c-0.3,1.4,0.6,0.5,0.2,1.9c-0.1,0.3-0.5,1.4-0.7,1.7c-0.6-0.4-0.9-1.6-1.2-2.3c-1-2.1-0.4-1,0-2.7c-1,0-3.7-0.3-4.4,0.3
		C67,2.6,67.4,0.1,69,3.8c1.1,2.7,3.1,4.3,1.3,7.9c-1.1,2.3-2.2,1.1-3.1,2.2c0.7,0.5,5.1,0.3,5.9,0.3c1.8,0,4.4,0.1,6.1-0.1
		C79.5,13.7,80.4,11.6,80.7,11.4z M31.8,136c0.5,1.1,0,0.5,1.2,1.1c-0.1,0.8-3.1,8-3.7,8.9c-0.4-0.2-0.1,0.2-0.4-0.5
		c-1-1.5-0.1-2.6,0.4-4.1c0.3-0.7,0.4-1.8,0.9-2.4c0.7-0.9,1.5-0.1,1.6-1.3c-0.9-0.1-3.5-0.2-4.2,0.1c-0.4,1,0.5,0.4,0.3,1.7
		c-0.1,0.5-0.4,1.2-0.6,1.8c-0.7-0.4-1-1.6-1.4-2.4c-1.1-2.2-0.2-1.2-0.1-2.7c-1.1,0-3.3-0.2-4.2,0.1c0.1,1.1,0.7,0.6,1.4,1.4
		l2.6,5.3c0.5,1.6,0.1,3-0.6,4.3c-1.3,2.5-2.7,0.6-2.9,2.4l11.8-0.1c0.6-0.6,1.5-2.5,1.7-3.6c-1.7,0.4-1,2.1-3.2,2.7
		c-0.9,0.3-4.5,0.1-5.7,0.1l0.5-1.8c1.2,0.6,0,1.2,2.5,1l4-9.4c1.3-3.1,1.8-1,2-2.5C35,135.7,32.7,135.9,31.8,136L31.8,136z
		 M24.8,102.4c-1.5,2.4-2.4,0.4-2.8,1.9c0.8,0.5,11.3,0.2,11.9,0.2c0.2-0.8,1.5-2.6,1.5-3.5c-1.6-0.2-1,2.2-3,2.6
		c-1.1,0.2-4.7,0.2-5.9,0.1c0.1-0.5,0.3-1.3,0.7-1.6c0.7,1,0.3,1.2,2.1,1c0.6-0.8,3.4-7.5,4.1-9.4c1.3-3.2,1.8-1,2-2.7
		c-0.7-0.3-2.9-0.4-3.6,0c0,1.1,0.1,0.3,0.9,1.1c-0.1,1.3-3,7.1-3.6,8.8c0,0-0.1-0.1-0.1-0.1c0,0-0.1-0.1-0.1-0.1l-0.4-0.7
		c-0.7-1.4-0.2-1.7,0.5-3.7c0.2-0.6,0.6-1.8,0.8-2.2c0.6-1.2,1.5-0.2,1.7-1.5c-0.9-0.2-3.5-0.2-4.3,0c-0.1,0.4,0,0.4,0.2,0.8
		c0.2,0.6,0.3,0.2,0.1,1c-0.2,0.6-0.5,1.4-0.8,1.7c-2.3-5.1-1.5-2.9-1.2-5.1c-0.7,0-1.5,0-2.2,0l-1.6,0.1c-0.4,0.1-0.2,0.1-0.5,0.2
		c0.3,1,1.2,0.6,1.9,2.1C25.4,97.8,26.6,98.6,24.8,102.4L24.8,102.4z M77.2,45.9c0.2,0.8,0.2,0.4,1,0.9c0,0.8-3.1,8.2-3.6,8.9
		c0,0-0.1-0.1-0.1-0.1l-0.2-0.3c-1.1-1.7-0.1-2.8,0.3-3.9c0.3-0.7,0.5-1.7,0.8-2.3c0.8-1.4,1.5-0.2,1.7-1.6
		c-0.8-0.2-3.6-0.3-4.4,0.1c0,0.9,1.2,0.7-0.2,3.4l-1.9-3.8c0.4-0.6,0.8-0.4,0.5-1.1c-0.6-0.2-3.5-0.3-4.1,0
		c-0.1,1.3,0.5,0.3,1.3,1.2c0.2,0.3,0.7,1.3,0.9,1.8c0.3,0.6,0.5,1.2,0.8,1.7c1,2,1.9,3.2,0.5,6.1c-1.2,2.5-2.5,0.9-2.9,2.3
		c0.6,0.2,10.9,0.3,11.8,0.1c0.5-0.2,0.6-0.8,1-1.6c0.3-0.6,0.7-1.1,0.8-1.9c-1.8-0.2-0.9,1.9-3.1,2.6c-0.7,0.2-4.9,0.2-5.8,0.1
		c0.1-0.4,0.1-0.4,0.2-0.8l0.5-0.9l0.6,0.8c0.3,0.2,0.6,0.3,1.1,0.3c1-0.1,0.9-0.7,1.3-1.5c0.6-1.4,3.4-8.5,4.1-9.2
		c0.7-0.7,1.2-0.5,1.2-1.4l-3.2,0C77.1,45.8,77.5,45.7,77.2,45.9z M69.9,96.2c1.1,0.5,1.9,4.6-0.2,6.8c-0.8,0.8-1.3,0.5-2.3,0.8
		c0,0.7-0.1,0.3,0.2,0.6c2.8,0,5.7,0,8.5,0c1.2,0,3,0.4,3.6-0.6c0.3-0.5,1.2-2.5,1.2-3c-1.6-0.1-1,1.9-3.1,2.6
		c-0.6,0.2-4.8,0.1-5.7,0c0-0.5,0.2-1.3,0.6-1.7c0.7,0.7,0.1,1,1.5,1.1c1.2,0,0.9-0.3,1.4-1.3l4.1-9.4c0.8-1,1.2,0,1.4-1.4
		c-0.8-0.1-2.9-0.2-3.6,0.1c0.1,0.9,0.3,0.5,1,1.1c-0.1,0.8-3.3,8.3-3.7,8.8c-1.4-1.2-0.6-2.9,0-4.3c0.3-0.7,0.5-1.6,0.8-2.3
		c0.6-1.3,1.3-0.4,1.8-1.5c-0.5-0.3-2.5-0.3-3.3-0.2c-2.5,0.1,0.3,0.7-1.4,3.6c-0.6-0.4-0.9-1.6-1.2-2.3c-1.1-2.2-0.4-1-0.1-2.7
		l-4.3,0c0.1,1.4,1.1,0.7,1.8,2.2C69,94.2,69.5,95.3,69.9,96.2L69.9,96.2z M112.6,104l0.2,0.5l11.7-0.1c0.4-0.6,1.6-2.6,1.6-3.5
		c-1.6,0-1.1,2.2-3,2.6c-1.4,0.3-4.3,0.1-5.9,0.1l0.7-1.7c0.2,0.1,0.1,0.1,0.2,0.3c0.2,0.3,0.3,0.5,0.6,0.7c1,0.5,1.5,0,1.9-0.9
		l1.2-2.8l2.8-6.5c0.9-1.3,1.5-0.5,1.6-1.7c-0.7-0.3-3-0.3-3.6,0c0,1,0.2,0.4,1,1c0,0.7-3.2,8.4-3.7,8.9c-1.4-1.6-0.5-2.8,0-4.4
		c0.3-0.7,0.4-1.6,0.8-2.3c0.7-1.2,1.3-0.4,1.7-1.4c-0.2-0.2,0-0.1-0.4-0.2c-0.4-0.1-3.6-0.2-3.9,0.2c-0.4,0.8,0.5,0.4,0.3,1.6
		c0,0.4-0.5,1.5-0.7,1.8c-0.5-0.5-0.9-1.6-1.2-2.3c-0.9-2.1-0.5-1,0-2.7l-4.3,0c0,1.7,0.8-0.1,2.1,2.9c0.5,1.2,1.3,2.4,1.8,3.5
		c0.5,1.3,0.4,3-0.2,4.3C114.7,104.1,114.4,103.1,112.6,104z M160.1,95.4c0.5,0.5,1,1.4,1.3,2.2c0.7,1.7,0.1,4.3-1.1,5.5
		c-1,1.1-2.2,0.2-2.3,1.3c0.8,0.3,11.2,0.3,11.8,0c0.4-0.3,0.2-0.2,0.5-0.8c0.3-0.7,1.1-2,1.1-2.7c-1.5,0.1-1.2,2-3,2.7
		c-0.7,0.2-4.7,0.1-5.7,0.1c-0.1-0.6,0.2-1.2,0.4-1.7c0.8,0.4,0.2,1,1.4,1.1c2.2,0.3,1.3-2.5,2.8-4c0.2-0.7,2.3-6.5,3.2-7
		c0.4-0.3,1.3-0.3,1-0.9c-0.3-0.6-3.1-0.3-3.6-0.1c0.1,0.9,0.3,0.6,1,1c0,0.8-2.1,5.5-2.7,6.8c-0.3,0.7-0.7,1.8-1.1,2.2
		c-1.1-2.4-0.8-2,0.1-4.5c0.3-0.7,0.5-1.7,0.8-2.3c0.7-1.3,1.3-0.2,1.7-1.4c-0.3-0.2,0.2,0-0.5-0.2l-3.8,0.1c0,0.1-0.4-0.1,0.2,0.9
		c0.2,0.5,0.4-0.1,0.1,0.8c-0.1,0.6-0.4,1.4-0.8,1.7l-1.7-3.6c-0.1-0.8,0.3-0.5,0.4-1.5c-1.1,0-3.3-0.2-4.3,0.2
		c0,1.2,0.9,0.5,1.6,1.7C159.5,93.6,159.9,94.6,160.1,95.4L160.1,95.4z M21.9,14.2l11.8,0c0.5-0.5,1.7-2.7,1.6-3.6
		c-1.9,0.3-0.8,2.4-3.2,2.7c-1.5,0.2-4,0.1-5.5,0c-0.1-0.6,0.2-1.4,0.7-1.7c0.5,1.1,0.6,1.2,2.1,1c0.5-0.8,3.4-7.5,4.1-9.4
		c0.9-2.2,0.9-1.1,2-2.2c-0.2-0.6,0.2-0.2-0.3-0.6c-1,0-2.7-0.2-3.3,0.2c0.1,1,0.3,0.3,1,1c-0.2,1.4-2.9,7.1-3.6,8.8
		c-1.7-1.3-0.4-3.7-0.1-4.5c0.2-0.6,0.5-1.7,0.8-2.3c0.6-1.3,1.5-0.1,1.7-1.4c-0.6-0.1-3.8-0.4-4.2,0.1c-0.4,0.7,0.5,0.4,0.2,1.7
		c-0.1,0.6-0.4,1.4-0.8,1.7c-0.3-0.8-0.7-1.6-1.1-2.5c-0.2-0.5-0.5-0.9-0.5-1.3c0-0.6,0.5-0.7,0.3-1.3c-0.6-0.2-3.3-0.2-4.1,0
		c-0.3,2,0.5-0.8,2.1,3.1c1.1,2.7,3.1,4.1,1.3,7.8C23.5,14.8,22.5,12.1,21.9,14.2z M125.1,58.4l1.2-2.7c-1.7,0.3-1.4,2-3.3,2.7
		c-0.7,0.2-5,0.2-5.8,0l0.6-1.7c0.4,0.3,0.1,0.1,0.3,0.4c0.3,0.5-0.1,0.1,0.3,0.4c0.3,0.2,0.6,0.3,1.1,0.3c0.9-0.1,1-0.7,1.3-1.4
		c0.5-1.2,1-2.4,1.6-3.7c0.5-1.2,1-2.4,1.5-3.5c0.7-1.6,0.6-2.4,2.3-2.9l0.2-0.8c-1.2,0.1-3.1-0.1-3.8,0.3c0.2,1,0.2,0.4,1.1,0.9
		c-0.1,1-1.3,3.4-1.8,4.5c-0.3,0.7-0.6,1.4-0.9,2.1l-0.7,1.6c-0.2,0.4,0,0.2-0.4,0.6c-1.5-1.6-0.6-2.8,0-4.5
		c0.3-0.7,0.5-1.7,0.8-2.2c0.7-1.1,1.4-0.3,1.7-1.4l-4.4,0.1c0,0.9,0.7,0.2,0.4,1.6c-0.1,0.6-0.4,1.3-0.7,1.7l-1.2-2.4
		c-1.1-2.2-0.2-1,0-2.7c-0.5,0-3.9-0.2-4.2,0.2c-0.3,0.7,0.5,0.8,1,1.2c0.5,0.4,0.7,1,1,1.7c0.3,0.6,0.5,1.2,0.9,1.8
		c1.2,2,1.8,3.6,0.5,6.2c-1.4,2.8-2.9,0.6-2.9,2.4c1.6,0.2,7.5,0,9.9,0C124.2,59.4,124.3,59.7,125.1,58.4L125.1,58.4z M213.2,90.9
		c0.1,1.1,0.2,0.4,1,1.1c-0.1,1.4-2.9,7.1-3.6,8.8c-1.8-1.3-0.4-3.6-0.1-4.4c0.2-0.7,0.5-1.7,0.8-2.3c0.6-1.3,1.3-0.2,1.7-1.4
		c-0.2-0.1-0.1-0.1-0.5-0.2c-0.9-0.2-3.2-0.1-3.9,0.2c0.1,1.2,0.8,0.2,0.4,1.6c-0.2,0.6-0.4,1.4-0.8,1.7c-0.4-0.7-0.8-1.7-1.2-2.6
		c-0.9-2-0.4-0.9,0.1-2.5c-1,0-3.5-0.2-4.3,0.1c0,1.4,0.8-0.3,2.1,2.9c0.6,1.3,1.4,2.5,1.8,3.6c0.7,2.2-0.4,5.2-1.6,5.8
		c-0.9,0.4-1.5,0-1.8,0.8c0.7,0.5,11.8,0.2,11.9,0.1c0.4-0.5,1.6-2.8,1.5-3.5c-1.9,0.1-0.9,2.3-3.1,2.7c-1.4,0.3-4.3,0.1-5.8,0.1
		l0.6-1.7c0.4,0.2,0.3,0,0.6,0.9c2.5,0.3,1.8-0.1,4.2-5.7c0.5-1.2,1-2.3,1.5-3.6c0.3-0.6,0.5-1.3,0.9-1.7c0.6-0.5,1.3-0.2,1.2-1.1
		C215.3,90.7,214.8,90.8,213.2,90.9L213.2,90.9z M233.4,75.3c-2,1.4-2.9-1.6-0.5-1.5C233.3,74.3,233.5,74.5,233.4,75.3z M230.7,73.1
		c-1.1-0.2-2.9-0.2-2.8,1.8c0,1.5,1.2,2,2.9,1.6c-0.1,0.9-0.4,1.3,0.2,2.1c0.3,0.4,0.8,0.8,1.5,0.8c1.8,0,1.7-1.2,1.8-2.8
		c1.5,0.2,2.9-0.1,2.8-1.8c-0.1-1.6-1.3-1.9-2.8-1.6c0.1-1.6,0-2.8-1.8-2.9C230.3,70.2,230.7,72.4,230.7,73.1L230.7,73.1z
		 M140.8,119.6c1.3-1.1,2.5-0.3,1.5,1.3C141.2,121,140.8,120.7,140.8,119.6z M140.1,118.2c-4.1-0.2-2.9,2.7-2.1,3.3
		c0.7,0.5,1.2,0.2,2,0.3c-0.1,1.4,0.1,2.7,1.7,2.7c1.7,0.1,1.9-1.3,1.8-2.8c0.5,0,2.8,0.4,2.8-1.8c0-1.7-1.3-2-2.9-1.7
		c0.1-0.8,0.5-2.8-1.6-2.9c-0.7,0-1.3,0.4-1.6,0.8C139.7,116.9,140,117.4,140.1,118.2L140.1,118.2z M233.3,30.2
		c-2.4,1.8-2.5-2.9,0.1-1.1L233.3,30.2z M234.2,31.4c0.9,0.1,1.4,0.4,2.1-0.2c1.1-0.8,0.9-2.3-0.1-3c-0.7-0.5-1.2-0.3-2-0.2
		c0.4-3.9-2.6-3.1-3.3-2.1c-0.4,0.7-0.3,1.2-0.2,2.1c-1.6-0.3-2.9,0-2.8,1.7c0,1.7,1.3,1.9,2.9,1.7c-0.6,3.6,2.4,3.3,3.3,2
		C234.5,32.7,234.3,32.1,234.2,31.4L234.2,31.4z M6.3,28.8c1.1,1.4-0.3,2.2-1.1,1.7C4.6,30.1,4.3,28.3,6.3,28.8z M4.1,27.9
		c-1.6-0.3-2.9,0-2.9,1.7c0,1.7,1.3,1.9,2.9,1.7c-0.2,1.6,0,2.7,1.6,2.8c0.8,0.1,1.3-0.4,1.6-0.8c0.6-0.7,0.3-1.2,0.2-2.1
		c0.8,0.1,1.3,0.3,2-0.2c1.4-1,1.3-3.8-2-3.3c0.2-1.5-0.1-2.8-1.7-2.9C4.2,25,3.8,26.4,4.1,27.9z M95.9,30.5l-0.3-0.3
		c-0.1-0.7,0-1,0.3-1.4l1.1-0.1C97.8,29.8,97.4,30.8,95.9,30.5z M94.7,27.9c-3.2-0.6-3.4,2.1-2.1,3.2c0.7,0.6,1.2,0.4,2.1,0.3
		c-0.2,0.9-0.4,1.4,0.2,2.1c0.9,1.2,3.8,1.4,3.2-2.1c1.6,0.2,2.9,0,2.9-1.7c0-1.7-1.2-1.9-2.9-1.7c0.4-3.8-2.4-3.2-3.2-2.1
		C94.4,26.5,94.6,27.1,94.7,27.9z M95.6,74.1c1.5-0.7,2.6,0.6,1.4,1.6c-0.7,0.2-0.9,0.1-1.4-0.3L95.6,74.1z M94.7,73.1
		c-1.5-0.2-2.9,0.1-2.8,1.8c0.1,1.6,1.3,1.9,2.8,1.6c-0.4,3.8,2.4,3.2,3.2,2.1c0.6-0.8,0.3-1.2,0.2-2.1c1.6,0.4,2.9-0.1,2.9-1.6
		c0-0.7-0.5-1.3-0.9-1.6c-0.6-0.5-1.2-0.3-2-0.2c0.1-1.5-0.1-2.7-1.7-2.8C94.8,70.1,94.5,71.4,94.7,73.1z M50.3,120.7
		c-0.6-1.7,0.7-2.2,1.5-1.5C52.6,120,52,121.3,50.3,120.7z M49.4,118.3c-0.8-0.1-1.6-0.2-2.2,0.2c-1.2,0.9-1.4,3.8,2.2,3.2
		c-0.3,1.4-0.1,2.7,1.5,2.9c0.8,0.1,1.4-0.4,1.7-0.8c0.6-0.7,0.4-1.3,0.2-2.1c1.6,0.2,2.8,0,2.9-1.7c0-1.7-1.3-1.9-2.9-1.7
		c0.2-1.6,0-2.9-1.7-2.9C49.4,115.4,49.2,116.7,49.4,118.3L49.4,118.3z M5.2,120.9c-1.6-2.7,2.7-2.4,1.1,0L5.2,120.9z M4.1,118.2
		c-1.5-0.2-2.9,0-2.9,1.8c0,1.8,1.6,1.9,2.9,1.7c-0.2,1.5-0.1,2.8,1.6,2.9c1.7,0.1,2.1-1.3,1.9-2.8c0.9,0.1,1.4,0.3,2.1-0.3
		c1.3-1.1,1.1-3.7-2.1-3.2c0.2-1.5-0.1-2.8-1.7-2.8C4.1,115.4,3.9,116.6,4.1,118.2L4.1,118.2z M140.9,75.5l-0.1-1.4
		c0.8-0.3,0.8-0.3,1.6-0.1C143.1,75.4,142.4,76,140.9,75.5z M140.1,73.1c-0.8-0.1-2.8-0.4-2.9,1.6c-0.1,2.2,2.1,1.9,2.9,1.8
		c-0.2,4.2,2.7,2.9,3.3,2c0.5-0.7,0.2-1.1,0.2-1.9c0.7,0.1,1.2,0.3,1.9-0.1c1.3-0.8,1.2-2.5,0.1-3.2c-0.7-0.5-1.3-0.3-2-0.2
		c0.1-0.7,0.5-2.8-1.6-2.9C139.6,70.2,140,72.5,140.1,73.1L140.1,73.1z M142.6,30.2c-0.7,1-2.4,0.1-1.7-1.1
		C141.6,28.1,143.4,29.1,142.6,30.2z M140,27.9c-3.1-0.6-3.5,2-2.1,3.2c0.7,0.6,1.2,0.4,2.1,0.3c-0.1,0.8-0.2,1.5,0.2,2.1
		c0.3,0.4,0.9,0.8,1.6,0.8c1.6-0.1,1.8-1.4,1.6-2.8c0.8,0.1,2.8,0.4,2.9-1.7c0-1.8-1.4-1.9-2.9-1.7c0.1-0.7,0.5-2.8-1.6-2.8
		C140.1,25,140,26.4,140,27.9L140,27.9z M186.2,119.4c1.2-0.7,2.3-0.1,1.7,1C187.6,121.2,185.9,121.4,186.2,119.4z M185.4,118.2
		c-1.5-0.1-2.9,0-2.8,1.8c0,1.7,1.2,1.8,2.8,1.8c-0.1,1.4,0,2.7,1.6,2.8c1.7,0.1,2-1.3,1.8-2.8c0.2,0,2.9,0.5,2.9-1.8
		c0-0.7-0.5-1.3-0.9-1.5c-0.7-0.6-1.2-0.3-2-0.3c0.1-0.8,0.3-1.3-0.1-1.9C188,115.2,185,114.3,185.4,118.2L185.4,118.2z M188,75.5
		c-1.2,0.4-2.4-0.2-1.7-1.3C186.8,73.5,188.4,73.6,188,75.5z M185.3,73c-1.5-0.1-2.7,0.1-2.8,1.7c0,0.8,0.4,1.3,0.9,1.6
		c0.7,0.5,1.2,0.3,1.9,0.2c0,1.5,0,2.6,1.5,2.8c1.9,0.2,2.1-1.2,2-2.8c1.5,0.2,2.9,0,2.9-1.6c0-1.8-1.3-1.9-2.9-1.8
		c0.2-1.6,0.1-2.7-1.5-2.8C185.5,70.1,185.3,71.5,185.3,73z M186.6,30.5c-0.6-0.8-0.5-0.9,0-1.8c0.9-0.1,1.5-0.1,1.5,0.9
		C188.1,30.6,187.5,30.6,186.6,30.5z M185.4,27.9c-0.9,0-1.4-0.3-2.1,0.2c-0.5,0.4-2.4,3.3,2.1,3.3c-0.4,3.5,2.6,3.3,3.4,1.8
		c0.4-0.7,0.2-1.2,0-1.9c1.5,0.2,2.9-0.1,2.9-1.7c0-1.7-1.4-1.8-2.9-1.7c0.1-0.8,0.3-1.4-0.2-2C187.7,24.6,184.9,24.5,185.4,27.9z
		 M96.2,119.1c1.2-0.6,1.7,1.3,0.9,1.7c-0.6,0.3-1.3,0-1.5-0.4C95.1,119.3,96.1,119.1,96.2,119.1z M94.6,118.2
		c-1.5-0.1-2.7,0.2-2.7,1.8c0,1.6,1.3,1.9,2.8,1.7c-0.1,1.1-0.2,3,1.9,2.9c1.6-0.1,1.8-1.4,1.6-2.9c1.6,0.3,2.9-0.1,2.9-1.7
		c0-2-1.9-1.9-2.9-1.8c0.1-0.7,0.2-1.5-0.1-2C97.8,115.7,94.9,113.7,94.6,118.2L94.6,118.2z M232.2,119.1c1.3-0.4,1.7,1.5,0.6,1.8
		c-0.7,0.2-1.2-0.1-1.3-0.6C231.3,119.4,231.7,119.2,232.2,119.1L232.2,119.1z M230.6,118.1c-1.6,0-2.7,0.2-2.7,1.8
		c0,1.6,1.3,2,2.9,1.7c-0.5,3.6,2.3,3.3,3.2,2.1c0.5-0.6,0.3-1.3,0.2-2.1c4,0.6,3.8-4.1,0-3.5c0.1-0.8,0.4-2.9-1.7-2.9
		C231,115.4,230.7,116.7,230.6,118.1L230.6,118.1z M50.3,30.4c-0.6-1.7,0.8-2.2,1.5-1.5C52.7,29.8,51.9,30.9,50.3,30.4z M49.4,27.9
		c-1.6-0.2-2.9,0-2.9,1.7c0,1.6,1.3,1.8,2.8,1.8c-0.2,1.4,0,2.7,1.6,2.8c0.8,0.1,1.4-0.4,1.7-0.7c0.6-0.7,0.3-1.3,0.2-2.1
		c4,0.7,3.9-4.1,0-3.4C53.4,23.9,48.7,24.1,49.4,27.9z M85,107.7c0.4,0.3,0.5,0.3,0.6,0.9c-0.3,0.4-0.3,0.5-0.8,0.7
		c-0.4-0.3-0.3-0.2-0.5-0.4C84.4,108.2,84.6,108,85,107.7z M79.9,109.1c0.9,0.1,0.5,0.3,1.6,0.7c0.8,0.3,1.4,0.2,2.2,0.3
		c-0.1,0.8-0.2,1.6,0.3,2.2c0.2,0.8,0.5,1,0.8,1.6c1.2-0.5,1.6-2.3,1.5-3.8c1.6,0,2.8-0.3,3.8-1.2c-0.2-0.6-0.5-0.7-1.4-1.1
		c-0.9-0.4-1.3-0.4-2.4-0.3c0-1.8-0.3-2.9-1.3-3.9c-1.1,0.7-1.1,2.4-1.4,3.9c-1,0-1.6,0-2.4,0.4c-0.2,0.1-0.7,0.3-0.9,0.5
		C79.8,108.6,79.8,108.3,79.9,109.1z M221.1,130.7c0.6,0.1,0.7,0.1,1,0.7c-0.3,0.4-0.4,0.5-1,0.6l-0.6-0.7L221.1,130.7L221.1,130.7z
		 M216,131.3c0.8,1,2.2,1.4,3.9,1.3c0,1.8,0.3,2.9,1.3,3.9c1.1-0.6,1.4-2.4,1.4-3.9c1.5,0.1,3.3-0.3,3.8-1.5
		c-1.4-0.8-1.8-1.3-3.9-1.1c0.1-1.6-0.3-3.2-1.3-3.8c-1,0.7-1.4,2.3-1.2,3.8c-0.8,0-1.6,0-2.3,0.3c-0.3,0.1-0.7,0.3-0.8,0.4
		L216,131.3L216,131.3z M129.7,63.5c0.2-0.6,0.1-0.4,0.6-0.7c0.5,0.2,0.6,0.2,1,0.7l-0.9,0.7C129.7,63.8,129.9,64.1,129.7,63.5
		L129.7,63.5z M128.7,64.8c0.4,0.4,0.2-0.2,0.3,1.1c0.1,0.9,0.5,2.3,1.3,2.8c1-0.6,1.4-2.4,1.3-3.8c0.9,0,1.4,0.1,2.3-0.3
		c1-0.4,1.3-0.6,1.5-1c-0.6-1-2.3-1.3-3.8-1.4c0-1.5-0.2-2-0.7-3.2l-0.7-0.7c-1.1,0.8-1.2,2.3-1.4,3.8c-1.6,0-3,0.2-3.8,1.3
		c0.4,0.6-0.1,0.1,0.6,0.5C126.7,64.7,127.6,64.9,128.7,64.8L128.7,64.8z M17,130.4c0.6,0.3,0.8,0.7,0.7,1.4
		c-0.7,0.3-0.9,0.1-1.3-0.5L17,130.4z M16.1,127.4c-0.4,1-0.5,1.3-0.4,2.6l-1.1,0c-1,0.1-2.2,0.6-2.8,1.3c0.8,1,2.1,1.3,3.8,1.3
		c0,1.4-0.1,1.8,0.7,3.1l0.6,0.8c1.2-0.9,1.3-2.3,1.4-3.9c1.3,0.1,1.9-0.2,2.9-0.6c0.5-0.3,0.6-0.3,0.9-0.7c-0.5-1-2.5-1.3-3.8-1.4
		c-0.1-1.6-0.3-3.1-1.4-3.7C16.6,126.6,16.5,126.9,16.1,127.4L16.1,127.4z M220.9,62.8c0.6,0.2,0.5,0.2,0.9,0.7l-0.6,0.9
		c-0.6-0.2-0.6-0.3-0.8-0.9L220.9,62.8z M219.7,62.2c-2.2-0.3-2.4,0.5-3.8,1c0.4,1.3,2.6,1.6,3.8,1.6c0.2,1.6,0.3,2.9,1.3,3.8
		c1.2-0.7,1.4-2.2,1.4-3.8c1.7,0.1,3-0.3,3.8-1.3c-0.6-1-2.2-1.4-3.7-1.3c-0.2-1.6-0.3-3.4-1.5-3.9
		C219.9,60.2,219.9,59.6,219.7,62.2L219.7,62.2z M221.1,40.1c0.5,0.3,0.5,0.4,0.7,0.9c-0.3,0.4-0.1,0.3-0.7,0.6
		c-0.6-0.3-0.3-0.1-0.7-0.6C220.4,41,221.1,40.1,221.1,40.1z M219.8,39.7c-1.7-0.1-3.1,0.3-3.8,1.3c0.8,1,2.1,1.4,3.8,1.3
		c0,1.6,0.3,3.1,1.3,3.8c1.1-0.6,1.3-2.4,1.4-3.8c1.6,0.1,3-0.3,3.8-1.3c-0.3-0.5-0.8-0.7-1.5-1c-0.8-0.3-1.5-0.4-2.4-0.3
		c0.1-1.8-0.3-2.8-1.2-3.9C220,36.4,219.9,38.2,219.8,39.7z M175.9,107.7c0.2,0.4,0.4,0.6,0.5,1.1l-0.7,0.5
		c-0.4-0.3-0.4-0.2-0.6-0.7C175.2,108.1,175.3,108,175.9,107.7L175.9,107.7z M177,110c1.9,0.2,2.7-0.4,3.9-1.1
		c-0.4-1.1-2.5-1.6-3.9-1.5c-0.1-1.6-0.3-3.2-1.4-3.8c-1,0.9-1.3,2-1.3,3.8c-1.8-0.1-2.8,0.3-3.8,1.2c0.7,1.1,2.4,1.4,3.9,1.4
		c-0.1,1.3,0.2,2.9,1.2,3.8C176.8,113.4,177.1,111.1,177,110L177,110z M198.4,108c0.9,0.5,0.9,1,0,1.6
		C197.6,109.1,197.4,108.5,198.4,108z M196.4,107.4c-1.3,0-2.5,0.6-3.1,1.3c0.5,1.2,2.4,1.4,3.9,1.4c-0.2,2.7,0.8,2.7,1,3.8
		c0.8,0.1,1-0.8,1.3-1.4c0.3-0.8,0.3-1.5,0.3-2.4c1.2,0.1,3.2-0.1,3.8-1.3c-1.1-1.1-1.9-1.2-3.8-1.3c0-0.8,0-1.5-0.3-2.3l-0.9-1.4
		c0,0-0.1-0.1-0.1-0.1c-1,0.8-1.4,2.1-1.3,3.8L196.4,107.4L196.4,107.4z M18,41c-0.4,0.4-0.5,0.5-1,0.7C15.3,40.4,17,39.6,18,41z
		 M16.2,36.7c-0.1,0.6-0.3,0.7-0.4,1.3c-0.1,0.6-0.1,1-0.2,1.6c-1.2,0-3.1,0.2-3.7,1.4c0.9,1,2,1.3,3.8,1.3c0,1.6,0.3,3,1.3,3.8
		c1.1-0.9,1.3-2.1,1.4-3.9c1.8,0.1,2.9-0.3,3.8-1.3c-0.8-1-2.2-1.4-3.9-1.3c0.2-2-0.3-1.9-0.5-3.2c-0.5-0.4-0.3-0.4-0.8-0.7
		C17,35.8,16.2,36.7,16.2,36.7z M61.8,18.5c0.1-0.8,0.2-0.9,0.8-1.1l0.6,0.9c-0.4,0.5-0.3,0.5-0.8,0.7C61.8,18.6,62.1,19,61.8,18.5z
		 M61.1,20l0.1,1.7c0.3,0.5,0.7,1.4,1.1,1.8c1.1-0.6,1.5-2.4,1.4-3.9c2,0.1,2.6-0.3,3.9-1.1c-0.5-1.2-2.4-1.7-3.9-1.5
		c0-1.7-0.2-2.7-1.2-3.8c-1.2,0.4-1.5,2.4-1.4,3.8c-1.6-0.1-2.9,0.3-3.8,1.2c0.7,1.4,3.4,1.4,3.4,1.4C61.1,19.9,60.9,19.5,61.1,20z
		 M40.5,131.1c-0.1,0.6-0.3,0.8-0.5,1.2c-0.6-0.2-0.6-0.3-0.8-0.9c0.3-0.5,0.2-0.3,0.6-0.6C40.2,130.8,40.2,130.9,40.5,131.1
		L40.5,131.1z M34.7,131c0.1,0.6-0.1,0.8,1.5,1.4c0.7,0.3,1.5,0.3,2.3,0.3c0.1,0.9,0,1.5,0.3,2.4c0.4,1.2,0.6,1.3,1.2,1.5
		c1-1.7,0.8-1.6,1.2-3.8c1.6,0,3.2-0.3,3.8-1.6c-1.5-0.7-1.7-1.3-3.9-1.1c0.1-1.3,0-1.5-0.3-2.6c-0.4-0.5-0.5-0.9-1.1-1.3
		c-0.8,0.8-1.3,2.3-1.2,3.8c-0.9,0-1.3-0.1-2.2,0.3C35.8,130.4,35.1,131,34.7,131L34.7,131z M152.4,18.5c0.2-0.4,0.3-0.6,0.8-0.8
		c0.5,0.3,0.5,0.2,0.7,0.8c-0.4,0.4-0.5,0.5-1.1,0.6C152.7,18.9,152.6,18.7,152.4,18.5z M151.7,17.1c-1.6-0.2-3.3,0.3-3.9,1.4
		c1.8,1.2,1.4,1,3.9,1.3c-0.1,1.7,0.3,3,1.3,3.8c1-1,1.4-2.1,1.3-3.9c1.4,0.1,3.2-0.3,3.8-1.4c-1-1-2-1.3-3.8-1.3
		c0-0.8,0-1.5-0.3-2.3c-0.1-0.3-0.3-0.6-0.4-0.8c-0.3-0.5-0.3-0.5-0.8-0.7C152.2,14.9,151.6,14.5,151.7,17.1z M152.4,63.5
		c0.2-0.8,0.3-0.7,0.7-1c0.4,0.3,0.1-0.2,0.4,0.4c0.1,0.1,0.2,0.4,0.3,0.6c-0.4,0.4-0.2,0.3-0.7,0.6C152.5,63.9,152.7,64,152.4,63.5
		z M158.1,63.2c-0.6-0.1-1-0.5-1.6-0.8c-0.8-0.3-1.3-0.2-2.2-0.3c0.1-2.4-0.6-2.3-0.8-3.6l-0.6-0.3c-0.9,1.5-1.3,1.7-1.2,3.9
		c-1.6,0-3.1,0.4-3.8,1.3c0.8,1.2,2.3,1.1,3.8,1.4c0.2,1.7,0.3,2.9,1.4,3.7c1.1-0.8,1.3-2,1.3-3.8c0.8-0.1,1.4,0,2.2-0.3
		c0.3-0.1,0.6-0.3,0.8-0.4C158.3,63.7,158.1,64,158.1,63.2L158.1,63.2z M17,109.6c-1.4-1.2,0-2.4,0.7-0.8
		C17.5,109.3,17.6,109.2,17,109.6z M15.7,107.4c-1.3,0-1.9,0-3.1,0.7c-0.5,0.3-0.5,0.3-0.7,0.8c1.2,1.1,2,1.1,3.8,1.3
		c0,1.5,0.3,3.3,1.5,3.8c0.7-1.1,1.3-2.1,1.1-3.9c1.5,0.1,3.4-0.3,3.9-1.4c-0.8-0.8-2.2-1.3-3.8-1.2c0-1.1-0.3-3.2-1.4-3.9
		C16.1,104.4,15.6,105.7,15.7,107.4z M107,18.5c0.2-0.5,0.2-0.5,0.7-0.8l0.7,0.6c-0.2,0.6-0.1,0.6-0.7,1
		C107.2,18.9,107.3,18.9,107,18.5z M106.4,17.1c-1.5-0.2-3.3,0.3-3.9,1.4c1.2,0.6,2.1,1.3,3.9,1.1c-0.1,1.5-0.1,1.8,0.7,3.1
		c0.4,0.7,0.2,0.5,0.7,0.7c1-0.9,1.4-2.3,1.2-3.9c1.8,0.1,2.7-0.3,3.8-1.2c-0.1-0.4,0.1-0.3-0.6-0.7c-0.3-0.2-0.5-0.3-0.8-0.4
		c-0.9-0.4-1.3-0.4-2.4-0.3c0-1.5-0.2-3.4-1.4-3.8C106.7,14.3,106.3,15.5,106.4,17.1z M108.7,40.8c-0.3,0.5-0.4,0.6-0.8,0.9
		c-0.7-0.2-0.7-0.2-0.9-0.9l0.5-0.5C108.2,40.4,108.3,40.6,108.7,40.8z M104.1,42.1c1,0.2,1.2,0.3,2.3,0.2c0,1.4,0.2,3.3,1.4,3.8
		c0.9-0.8,1.3-2.2,1.2-3.8l1.8,0c0.6-0.4,1.4-0.4,2-1.2c-0.8-1.2-2.6-1.4-3.9-1.4c0.1-1.5-0.3-3-1.2-3.8c-1.1,0.6-1.4,2.3-1.3,3.8
		c-1.3-0.1-3.1,0.2-3.9,1.3C103.1,41.7,103.6,41.6,104.1,42.1z M197.7,18.3c0.4-0.5,0.1-0.4,0.8-0.6l0.6,0.7
		c-0.3,0.5-0.2,0.5-0.7,0.8C197.7,18.7,198,18.7,197.7,18.3z M197.1,17.1c-1.9-0.1-2.8,0.2-3.9,1.2c0.7,1.2,2.3,1.4,3.9,1.4
		c-0.1,1.6,0.3,3.3,1.5,3.8c0.7-1.4,1.2-1.7,1.1-3.9c1.6,0,3.2-0.2,3.8-1.4c-0.8-1-2.3-1.3-3.8-1.3c0.1-1.2-0.2-3.1-1.3-3.8
		C197.4,13.9,197,15.4,197.1,17.1L197.1,17.1z M108.7,131.3c-0.2,0.4-0.4,0.5-1,0.7c-0.5-0.4-0.3-0.1-0.6-0.7
		C107.5,130.3,108.2,130.6,108.7,131.3z M102.6,131.2c0.2,0.3,0.1,0.6,1.5,1.2c0.8,0.4,1.4,0.3,2.3,0.3c0,1.7,0.2,2.8,1.2,3.9
		c1.3-0.6,1.4-2.7,1.4-3.8c1.3,0.1,3.4-0.2,3.8-1.5c-1.6-0.6-1.3-1.2-3.9-1.1c0.1-1.6-0.4-3-1.2-3.8c-1.1,0.6-1.4,2.3-1.4,3.9
		C104.6,129.9,103.7,130.3,102.6,131.2L102.6,131.2z M16.5,64c-0.3-0.8,0.1-1,0.5-1.5c0.4,0.3,0.5,0.4,0.7,1
		C17.3,64.1,17.3,64.2,16.5,64z M11.9,63.2c0,0.6-0.1,0.6,1.4,1.3c0.9,0.4,1.4,0.3,2.4,0.3c0,1.6,0.3,2.9,1.3,3.9
		c1.1-0.7,1.3-2.3,1.4-3.9c1.5,0.1,2.4-0.2,3.4-0.9c0.1-0.5,0.1-0.5-0.2-0.9c-1.1-0.6-1.8-0.9-3.3-0.7c0.1-1.6-0.3-3.2-1.3-3.9
		c-1.1,0.8-1.3,2.3-1.3,3.9C12.8,62.1,13.3,62.9,11.9,63.2z M175.7,17.6l1,0.6c-0.5,0.8-0.8,0.9-1.6,0.5
		C175.1,17.9,175.1,18,175.7,17.6z M174.4,17.1c-0.9-0.1-1.4-0.1-2.3,0.2c-0.6,0.2-1.3,0.6-1.5,1.2c1,0.9,2.2,1.2,3.8,1.2
		c-0.1,1.6,0.3,3.3,1.5,3.9c0.5-1.6,1.3-1.3,1.1-3.9c1.8,0.1,2.8-0.4,3.9-1.1c-0.5-1.1-2.5-1.6-3.9-1.4c0-1.5-0.2-3.2-1.4-3.9
		C174.7,14.1,174.3,15.4,174.4,17.1L174.4,17.1z M220.5,18.9c-0.1-0.3-0.1,0.3-0.2-0.4c0-0.4,0.2-0.7,0.6-1.1
		C222.1,17.9,221.8,19.4,220.5,18.9z M219.7,17.1c-1.5-0.1-3.4,0.2-3.9,1.5c1.6,0.8,1.5,1.1,3.9,1.1c-0.1,1.5,0.3,3.4,1.5,3.9
		c0.7-1.2,1.3-1.9,1.1-3.9c2,0.1,2.6-0.5,3.9-1.1c-0.5-1.2-2.4-1.6-3.9-1.5c0.1-1.4-0.2-3.4-1.4-3.8C220,14.2,219.7,15.4,219.7,17.1
		L219.7,17.1z M61.7,85.9c0.5-0.9,1.3-0.2,1.7,0.1C63,87,61.9,87.3,61.7,85.9z M61.1,84.9c-1.4-0.2-3.4,0.3-3.9,1.5
		c1.6,0.7,1.5,1.2,3.9,1.1c-0.1,2,0.5,2.7,1.1,3.9c0.6-0.2,0.4,0,1.1-1.6c0.3-0.8,0.3-1.4,0.4-2.3c2.3-0.1,2.3-0.3,3.8-1.2
		c-0.5-1.2-2.4-1.6-3.9-1.5c0-1.8-0.1-2.7-1.2-3.8C61.3,81.5,61,83.4,61.1,84.9L61.1,84.9z M17,19l-0.6-0.5c0.2-0.5,0.2-0.5,0.4-0.8
		c0.7,0,0.8,0.1,1.2,0.6C17.7,18.8,17.7,18.9,17,19z M16.9,23.6c0.8-0.3,0.5-0.4,1.1-1.1c0.3-1.2,0.5-1.4,0.4-2.8
		c1.5,0.1,3.4-0.3,3.9-1.4c-0.9-0.9-2.2-1.4-3.8-1.2c0.1-1.3-0.2-1.8-0.5-2.9c-0.3-0.1,0,0-0.3-0.4L17,13.2
		c-0.9,0.9-1.4,2.1-1.3,3.8c-1.7,0.1-2.8,0.2-3.8,1.2c0.6,1.2,2.3,1.4,3.8,1.4C15.6,22,16.2,22,16.9,23.6z M175.8,62.8
		c0.6,0.3,0.6,0.2,0.8,1l-1,0.4l-0.7-0.7L175.8,62.8z M170.5,63.8c1.6,0.6,1.4,1.2,3.9,1.1c0,1.7,0.3,2.9,1.3,3.8
		c1.2-0.8,1.1-2.3,1.5-3.8c1.9,0,2.8-0.5,3.8-1.3c-0.8-1-2.4-1.3-3.9-1.4c-0.1-1.6-0.2-3-1.4-3.7l-1,1.6c-0.3,0.8-0.2,1.4-0.3,2.2
		C173,62.1,171,62.4,170.5,63.8L170.5,63.8z M62.3,130.7c0.7,0.1,0.8,0.2,1.1,0.7c-0.4,0.5-0.4,0.4-0.8,0.6l-0.7-0.4
		C61.9,131,61.9,131,62.3,130.7z M61.3,128.1c-0.4,0.7-0.2,1.1-0.3,1.9c-1.3-0.1-3,0.2-3.7,1.3c0.8,0.9,2.2,1.4,3.8,1.3
		c0,1.3,0.1,3.2,1.4,3.9c0.9-0.9,1.2-2.2,1.2-3.9c1.6,0.1,3-0.3,3.8-1.3c-0.8-1.5-2.6-1-3.8-1.4l0-1.1c-0.2-1.1-0.6-2.3-1.4-2.7
		C61.8,126.7,61.5,127.2,61.3,128.1L61.3,128.1z M107.8,62.6c0.5,0.4,0.7,0.6,0.5,1.4c-0.7,0.2-0.8,0-1.2-0.5
		C107.2,62.9,107.2,62.9,107.8,62.6z M106.4,62.3c-1.6-0.1-3.3,0.3-3.9,1.3c0.8,0.9,2.2,1.4,3.8,1.3c0.1,0.8,0,1.5,0.3,2.2
		c0.2,0.6,0.6,1.3,1.1,1.6c1.1-1,1.3-2.5,1.3-3.8c1.6,0.1,3.1-0.3,3.8-1.3c-0.6-1-2.1-1.4-3.7-1.4c-0.4-1.7-0.1-2.7-1.4-3.8
		C106.7,59.1,106.4,60.6,106.4,62.3z M221.1,107.7c0.4,0.4,0.5,0.5,0.6,1.1c-0.4,0.5-0.3,0.5-1.2,0.6
		C220.2,108.8,220.3,108.1,221.1,107.7z M219.7,107.4c-1.5-0.1-3.4,0.2-3.8,1.4c1.1,0.8,2.2,1.3,3.9,1.2c-0.1,1.5,0.3,3.4,1.4,3.9
		c0.7-1.1,1.3-2,1.1-3.9c0.9,0.1,1.4,0.1,2.3-0.2c0.6-0.2,1.4-0.6,1.6-1.1c-0.9-0.9-2.2-1.3-3.8-1.3c-0.1-1.5-0.3-3.4-1.5-3.7
		C220,104.5,219.8,105.7,219.7,107.4L219.7,107.4z M152.8,107.7c0.5,0.3,0.6,0.4,0.9,0.7c-0.2,0.6-0.3,0.7-0.9,0.9l-0.4-0.3
		C152.4,108.4,152.6,108.2,152.8,107.7z M151.7,107.4c-1.7-0.1-3.2,0.3-3.8,1.3c1.3,1.3,1.9,1,3.8,1.3c-0.1,1.7,0.3,2.9,1.3,3.7
		c1-1,1.4-2.1,1.3-3.9c1.4,0.1,3.3-0.3,3.8-1.3c-0.9-1-2.1-1.3-3.8-1.3c0.1-1.3-0.2-3.4-1.5-3.8C152.1,105.2,151.7,105,151.7,107.4
		L151.7,107.4z M129.7,108.6c0.4-0.4,0.2-0.3,0.7-0.6l0.7,0.6c0,0.1-0.1,0.4-0.2,0.5c-0.3,0.4-0.2,0.3-0.5,0.5
		c-0.4-0.2-0.1,0.2-0.4-0.4C129.8,109.1,129.7,108.6,129.7,108.6L129.7,108.6z M129.1,105.6l-0.1,1.7c-1.7,0.1-3,0.3-3.8,1.3
		c0.6,1,2.4,1.4,3.9,1.3c-0.1,1.2,0,1.4,0.2,2.5c0.4,0.4,0.5,0.9,1.1,1.4c1-0.8,1.4-2.3,1.3-3.9c1.5,0.1,3.2-0.2,3.8-1.3
		c-0.9-1.1-2.1-1.1-3.8-1.3c0-1.6-0.4-3-1.3-3.7C129.8,104,129.4,104.7,129.1,105.6L129.1,105.6z M84.3,63.5
		c0.2-0.5,0.2-0.4,0.7-0.7c0.5,0.2,0.7,0.3,0.9,0.7C85.6,64,85.6,64,85,64.2C84.5,63.9,84.6,64,84.3,63.5z M83.7,62.2
		c-1.8,0-2.8,0.4-3.8,1.2c0.6,1.2,2.4,1.4,3.8,1.5c0,1.5,0.2,3.1,1.3,3.8c1.1-0.9,1.3-2.5,1.3-3.8c1.3,0,2.1,0,3.1-0.7l0.6-0.5
		c0,0,0.1-0.1,0.1-0.1c-0.8-1-2.3-1.4-3.8-1.3c-0.3-1.8,0-2.7-1.3-3.7C83.8,59.2,83.8,60.6,83.7,62.2z M198.4,64.2l-0.7-0.6
		c0.3-0.5,0.3-0.5,0.8-0.8l0.8,0.7C199,64,199,64,198.4,64.2z M193.6,63.9c1.6,0.8,1.3,1,3.5,0.9c0.1,1.9,0.2,2.8,1.3,3.8
		c1-0.6,1.4-2.4,1.3-3.8c1.7-0.2,1.5-0.1,2.9-0.6c0.6-0.4,0.6-0.3,0.9-0.8c-0.7-1.1-2.3-1.2-3.8-1.4c0-1.7-0.3-2.9-1.3-3.7
		c-1.2,1.2-1.2,1.9-1.3,3.8c-1.9-0.2-2.5,0.3-3.8,1.1C193.3,63.8,193.2,63.6,193.6,63.9L193.6,63.9z M107.8,107.7
		c0.4,0.3,0.4,0.4,0.6,0.9c-0.2,0.5-0.2,0.4-0.6,0.7c-0.5-0.2-0.4-0.1-0.7-0.4C107.1,108.2,107.3,108,107.8,107.7z M106.4,107.4
		c-1.4-0.1-3.4,0.3-3.9,1.5c1.5,0.7,1.6,1.3,3.9,1.1c-0.1,2.1,0.3,2.4,1.1,3.8c1.2-0.5,1.6-2.3,1.5-3.9c1.2,0.1,3.2-0.2,3.8-1.4
		c-1.1-1-2-1.3-3.8-1.3c0-1.6-0.3-3.3-1.5-3.8C106.7,105.2,106.4,105,106.4,107.4z M62.1,40.3c0.6,0.1,0.7,0.2,1,0.7
		c-0.2,0.6-0.1,0.4-0.6,0.9C61.7,41.6,61.3,40.8,62.1,40.3z M63.7,38.3l-0.1-0.8c-0.7-0.7-0.6-1.3-1.3-1.6c-0.9,0.7-1.3,2.3-1.2,3.8
		c-1.2-0.1-3.2,0.2-3.9,1.3c1,0.9,2.1,1.4,3.9,1.3c0,1.6,0.3,2.9,1.3,3.8c1.2-0.5,1.3-2.4,1.4-3.8c1.7,0.2,3-0.4,3.8-1.3
		c-1-1.5-2.5-1-3.8-1.4C63.7,39.6,63.7,38.3,63.7,38.3z M17,87.1c-0.6-0.4-0.8-1.1-0.2-1.6c0.7,0.1,0.7,0.2,1,0.8L17,87.1z
		 M14.3,84.8c-1.1,0.4-1.6,0.5-2.4,1.3c0.6,1,2.3,1.4,3.7,1.4c0.4,2.2-0.1,2.2,1.4,3.9c1.1-0.8,1.4-2.5,1.3-3.9
		c1.8,0.1,2.8-0.4,3.9-1.1c-0.2-0.6-0.4-0.4-0.5-0.7c-1.2-0.4-1.7-0.9-3.3-0.7c0.1-2.2-0.3-2.4-1.1-3.9c-1.6,0.7-1.2,2.9-1.7,3.9
		L14.3,84.8L14.3,84.8z M107.8,87.1c-1.5-0.7-0.7-2.7,0.7-0.9L107.8,87.1z M106.4,84.9c-1.5-0.2-3.4,0.3-3.9,1.5
		c1.4,0.7,1.8,1.3,3.9,1.1c-0.1,1.8,0.2,2.8,1.1,3.9c1.1-0.4,1.5-2.3,1.5-3.8c1.7,0,2.7-0.3,3.8-1.2c-0.1-0.4,0-0.3-0.6-0.7
		c-1-0.7-2-0.8-3.2-0.7c0.1-1.8-0.3-2.8-1.3-3.8C106.6,81.7,106.4,83.4,106.4,84.9z M39.1,85.9c0.7-1,1.5-0.1,1.7,0.4
		c-0.5,0.3-0.5,0.5-1.3,0.5C39,86.2,39.3,86.6,39.1,85.9z M38.5,88.6c0.1,1.6,0.8,1.7,1,2.6c1.3-0.1,1.6-2.3,1.6-3.8
		c1.2,0,3.2-0.2,3.9-1.4c-0.9-0.9-2.3-1.4-3.9-1.2c0.1-2.2-0.3-2.4-1.1-3.9c-0.7,0.3-0.8,0.4-1.2,1.5c-0.4,0.9-0.4,1.3-0.3,2.4
		c-1.7-0.1-2.8,0.2-3.8,1.2c0.6,1.1,2.4,1.4,3.9,1.4L38.5,88.6z M85.3,85.2c0.3,0.4,0.5,0.6,0.5,1.3c-0.4,0.2-0.5,0.4-1.2,0.4
		C84.3,86.1,84.5,85.5,85.3,85.2z M83.8,84.9c-1.6-0.2-3,0.3-3.9,1.2c0.5,1.2,2.7,1.4,3.9,1.4c-0.1,1.2,0.2,3.3,1.4,3.9
		c0.8-1,1.4-2.3,1.2-3.9c2.3,0.1,2.4-0.4,3.9-1.1c-0.5-1.3-2.6-1.6-3.8-1.5c0-1.8-0.2-2.6-1.2-3.8C84.1,81.5,83.8,83.4,83.8,84.9z
		 M85,17.4c0.6,0.5,1.1,1,0.2,1.7c-0.6-0.2-0.7-0.3-1-0.9C84.3,18.2,85,17.4,85,17.4z M83.7,17c-2.2,0.1-2.5,0.3-3.9,1.2
		c0.5,1.1,2.4,1.5,3.9,1.4c-0.1,1.6,0.3,3.3,1.3,3.8c0.9-1,1.4-2,1.2-3.8c1.6,0,3.2-0.3,3.9-1.4c-0.9-0.9-2.1-1.4-3.9-1.3
		c0.1-1.6-0.3-3.1-1.3-3.8c-0.5,0.2-0.6,0.4-1,1.5C83.6,15.5,83.7,16.1,83.7,17z M129.8,86.1l0.7-0.6c0.6,0.2,0.7,0.2,0.9,0.8
		C130.7,87,130.1,87,129.8,86.1L129.8,86.1z M129.2,84.9c-1.4-0.1-3.4,0.3-3.9,1.4c1.2,0.8,2,1.3,3.9,1.2c-0.1,1.7,0.2,3.1,1.3,3.8
		c0.9-0.8,1.4-2.2,1.2-3.8c1.5,0,3.2-0.3,3.9-1.4c-0.9-0.9-2.1-1.4-3.9-1.3c0-1.7-0.3-2.9-1.3-3.8C129.4,81.7,129.1,83.4,129.2,84.9
		z M153.5,130.7c0.5,0.8-0.1,1.2-0.7,1.6c-0.2-0.6-0.4-0.5-0.5-1.2C153,130.6,152.7,130.5,153.5,130.7L153.5,130.7z M151.5,132.6
		c0.4,0.4,0.1,0,0.2,0.5c0,0,0,0.6,0.1,0.7c0,0.4,0.1,0.8,0.3,1.1l0.7,1.3c0.3,0.3-0.1,0,0.3,0.3c0.2-0.1,0.1-0.1,0.3-0.3
		c0,0,0.2-0.3,0.2-0.3c0.5-0.7,0.7-1.2,0.8-2.1l0-1.1c1.6,0,3.1-0.2,3.8-1.3c-0.6-1-2.3-1.3-3.7-1.4c-0.2-1.5-0.3-3-1.4-3.8
		c-1.1,0.8-1.3,2.2-1.3,3.8c-1.6,0-3.2,0.4-3.8,1.3C148.6,132.2,150.1,132.7,151.5,132.6L151.5,132.6z M130.5,130.4
		c0.5,0.4,0.8,0.8,0.6,1.5c-0.8,0.2-0.8,0.1-1.3-0.3C129.8,130.9,129.9,130.7,130.5,130.4z M131.8,132.8c0.2-0.3,1.7-0.2,2.1-0.4
		c0.7-0.3,1.3-0.6,1.7-1.1c-0.7-1.1-2.4-1.4-3.8-1.4l0.1-1.7c-0.5-0.6-0.8-1.7-1.3-2.1c-1.1,0.5-1.5,2.3-1.4,3.9
		c-1.7-0.1-2.8,0.4-3.8,1.2c0.6,1.3,2.3,1.4,3.9,1.5c0,0.8,0,1.6,0.3,2.3c0.2,0.5,0.6,1.2,1.1,1.5c0.3-0.3,0.3-0.3,0.6-0.7
		C131.8,134.6,131.8,134,131.8,132.8L131.8,132.8z M197.9,86.8c-0.3-0.7-0.1-0.9,0.5-1.3l1,0.6C199,86.7,198.6,87,197.9,86.8z
		 M197.1,84.8c-1.3-0.1-2.3,0-3.4,0.9c-0.3,0.3-0.2,0.1-0.4,0.4c0.8,1.2,2.2,1.3,3.8,1.4c-0.1,1.6,0.3,3.3,1.5,3.8
		c0.7-1.2,1.3-1.9,1.1-3.8c1.6-0.1,3.4-0.2,3.9-1.5c-1.5-1.2-1.8-0.9-3.8-1.3c-0.1-1.5-0.3-3.1-1.4-3.7
		C197.4,81.8,197,83.2,197.1,84.8z M220.5,86.3c0.8-2,2.4-0.1,0.7,0.8C220.7,86.8,220.7,86.6,220.5,86.3z M219.8,84.8
		c-1.1-0.1-3.4,0.2-3.8,1.4c1,0.9,2.2,1.2,3.8,1.2c-0.1,1.6,0.2,3.3,1.5,3.9c0.5-1.6,1.3-1.4,1.1-3.9c1.6,0.1,3.3-0.3,3.9-1.3
		c-1.2-1.3-2.1-1-3.8-1.4c-0.1-1.6-0.3-3.1-1.4-3.7C220.2,81.7,219.8,83.3,219.8,84.8L219.8,84.8z M84.4,41c0.2-0.6,0.2-0.7,0.8-0.9
		C86.5,41.4,85.4,42.4,84.4,41z M83.8,38.1l0,1.4C82,40.1,81.4,39.4,80,41c0.8,0.9,2.2,1.4,3.8,1.3c0.1,1.6,0.2,2.8,1.2,3.8
		c1.3-0.4,1.4-2.7,1.4-3.8l1.6-0.1c1-0.3,1.7-0.7,2.2-1.2c-0.3-0.5-0.9-0.8-1.6-1.1c-0.9-0.3-1.2-0.3-2.2-0.3c0-1.2-0.2-3.2-1.4-3.7
		C84.4,36.4,84.2,37.2,83.8,38.1z M198.4,130.4c1,0.5,0.9,1.5,0,1.6C197,132.1,197.9,130.8,198.4,130.4z M193.2,131.3
		c0.8,1,2.2,1.3,3.8,1.3c0,1.8,0.2,2.9,1.3,3.8c1.1-0.6,1.3-2.6,1.3-3.8c1.8,0,2.9-0.2,3.8-1.3c-0.7-1.2-2.4-1.2-3.8-1.4
		c0-1.5-0.2-3-1.3-3.7c0,0-0.1,0.1-0.1,0.1c0,0-0.1,0.1-0.1,0.1c-0.9,0.9-1.1,2.2-1.1,3.6C195.9,130,194,130.1,193.2,131.3
		L193.2,131.3z M176.3,130.7c0.4,0.8,0,1.1-0.5,1.6c-0.4-0.3-0.6-0.5-0.7-1.1C175.4,130.7,175.5,130.5,176.3,130.7z M170.7,131
		c0.1,0.8-0.2,0.5,0.7,1c1.2,0.7,1.8,0.6,3.1,0.7c0,1.4,0,2.3,1,3.5c0.2,0.2,0.1,0.1,0.3,0.3c0.5-0.3,0.6-0.5,1-1.6
		c0.3-0.8,0.3-1.3,0.3-2.2c1.5-0.2,3.2-0.3,3.8-1.4c-0.7-1-2.2-1.3-3.8-1.3c-0.2-1.7-0.3-1.7-0.6-3.1c-0.4-0.3-0.1-0.3-0.7-0.7
		c-1.1,0.6-1.2,2.3-1.4,3.8C171.9,130,171.8,130.9,170.7,131L170.7,131z M152.4,86.1c0.5-0.6,0.7-0.9,1.4-0.4c0,0.8-0.1,1-0.7,1.4
		C152.4,86.7,152.6,86.8,152.4,86.1z M151.7,84.8c-2,0.3-2.5,0.2-3.9,1.3c0.7,1.1,2.2,1.5,3.9,1.4c-0.1,1.4,0.1,2.6,1,3.6
		c0,0,0.1,0.1,0.1,0.1l0.2,0.2c0.9-0.8,1.4-2.2,1.3-3.8c1.6-0.1,3-0.1,3.8-1.4c-1.3-1.2-1.9-1-3.8-1.3c-0.1-1.6-0.3-3.2-1.6-3.7
		C152.1,82.5,151.7,82.4,151.7,84.8L151.7,84.8z M38.9,108.6c0.4-1.1,1.2-0.5,1.7,0C40.3,109.2,39.5,109.9,38.9,108.6z M38.4,107.4
		c-1.8-0.2-2.7,0.3-3.8,1.2c0.6,1.1,2.2,1.4,3.8,1.3c-0.1,2.2,0.3,2.5,1.1,3.9c1.1-0.5,1.6-2.4,1.5-3.8c1.9,0,2.7-0.3,3.8-1.2
		c-0.5-1.2-2.3-1.5-3.8-1.4c0.1-0.9,0.1-1.5-0.2-2.3c-0.3-0.7-0.6-1.3-1.2-1.5C38.5,104.7,38.4,105.7,38.4,107.4z M175.8,86.8
		c-1.6-0.9-0.4-2.1,0.9-0.8C176.5,86.6,176.4,86.6,175.8,86.8z M174.5,84.8c-2.1,0.4-2.1-0.1-3.7,1.3c0.6,1.2,2.1,1.3,3.6,1.4
		c0.4,2,0,2.4,1.4,3.8c1-0.8,1.4-2.2,1.3-3.9c1.6,0.1,3.2-0.3,3.8-1.3c-1-1-2.2-1.2-3.8-1.3c0.1-1.7-0.4-3-1.3-3.8
		c-0.4,0.3-0.3,0.2-0.6,0.7C174.4,82.8,174.5,83.5,174.5,84.8L174.5,84.8z M84.7,130.6c0.8,0,0.7,0,1.1,0.5
		c-0.1,0.7-0.1,0.8-0.7,1.1C84.4,131.7,84.3,131.2,84.7,130.6z M80,131.3c0.9,0.9,2.2,1.4,3.9,1.3c0.1,1.6,0.3,3.2,1.4,3.9
		c1-1.3,1.3-2,1.3-3.9c1.6,0.1,3.1-0.3,3.8-1.3c-0.7-1.1-2.4-1.4-3.9-1.3c0.1-1.6-0.3-3.4-1.4-3.9c-0.8,1.2-1.3,1.9-1.2,3.9
		c-1.3-0.1-2.2,0-3.2,0.7L80,131.3L80,131.3z M131.3,18.5c-0.5,0.5-0.5,0.5-1.1,0.5c-0.2-0.2-0.3-0.4-0.4-0.7
		c0.4-0.7,0.1-0.3,0.7-0.6C130.9,17.8,131,17.9,131.3,18.5L131.3,18.5z M131.6,21.5l0.1-1.8c2-0.1,2.5-0.2,3.9-1.2
		c-0.6-1.2-2.3-1.3-3.8-1.5c0-2.5-0.5-2.3-1.2-3.8c-1.3,0.8-1.2,2.2-1.5,3.9c-1.5,0-3,0.1-3.7,1.4c1.5,1.2,1.7,1,3.8,1.3
		c-0.1,1.8,0.3,2.9,1.3,3.8C131.2,22.8,131.1,22.1,131.6,21.5L131.6,21.5z M61.9,109.2c-0.3-0.7-0.1-1.2,0.7-1.5
		c0.3,0.4,0.5,0.5,0.5,1.3C62.4,109.4,62.4,109.5,61.9,109.2z M61,107.4c-1.6-0.1-2.9,0.3-3.8,1.2c0.3,0.5,1,0.9,1.5,1.1
		c0.7,0.3,1.5,0.4,2.4,0.3c-0.1,1.2,0.1,3.5,1.4,3.9c0.7-1.2,1.2-1.9,1.1-3.9c1.7,0.1,2.8-0.3,3.9-1.2c-0.4-1.1-2.4-1.6-3.8-1.4
		c0-1.7-0.3-2.8-1.2-3.8C61.3,104.1,61,105.9,61,107.4z M152.4,41.6c-0.2-0.8-0.1-1.1,0.6-1.6c0.6,0.5,0.6,0.6,0.7,1
		C153.4,41.6,153.3,41.8,152.4,41.6z M151.5,42.3c0.6,0.6,0-0.3,0.2,0.4c0.1,0.2,0.1,0.4,0.1,0.7l0.6,2c0,0.1,0.2,0.4,0.3,0.5
		c0.3,0.4,0,0.1,0.4,0.4c0.1-0.1,0.1-0.1,0.3-0.3c0.9-1.2,1-2,1-3.5l1.8-0.1c0.4-0.3,1.1-0.3,1.8-0.9c0.2-0.2,0.1-0.1,0.3-0.3
		c-0.8-1.1-2.2-1.3-3.8-1.4c-0.1-0.8-0.1-2.9-1.4-3.8c-1.1,0.8-1.4,2.3-1.3,3.8c-1.6-0.1-3.2,0.3-3.9,1.3
		C148.7,41.9,150,42.4,151.5,42.3L151.5,42.3z M130.3,41.9c-0.2-0.5-0.8-1-0.3-1.5c0.5-0.5,1.1,0.2,1.2,0.4
		C131.1,41.6,130.9,41.7,130.3,41.9L130.3,41.9z M129.6,45.1l0.2,0.2c0.6,0.6,0.2,0.5,0.7,0.8c0.6-0.4,0.4-0.6,1-1.1
		c0-0.9,0.3-1.4,0.3-2.7c0.8,0,1.5,0,2.3-0.3l1.2-0.6c0.4-0.3,0.2-0.1,0.4-0.4c-0.9-1.2-2.3-1.4-3.9-1.4c0.1-1.2-0.2-3.2-1.3-3.8
		c-1,0.9-1.4,2.1-1.2,3.8c-1.7-0.1-3.1,0.3-3.9,1.3c0.8,1,2.3,1.3,3.9,1.3C129.1,43.8,129.5,44.2,129.6,45.1z M175.5,40.3
		c0.8,0,0.8,0.1,1.1,0.7l-0.8,0.9c-0.3-0.2,0,0.1-0.4-0.3c-0.1-0.1-0.3-0.4-0.3-0.5C175,40.6,175.2,40.6,175.5,40.3z M174.5,39.7
		c-1.7,0-3,0.3-3.8,1.3c0.9,1.1,2.3,1.2,3.8,1.3c0,1.3,0.1,2.9,1.3,3.8c1.1-0.7,1.4-2.6,1.3-3.8c1.6-0.1,2.9-0.3,3.8-1.3
		c-0.7-1.1-2.3-1.3-3.9-1.4c0.2-1.4-0.3-3.2-1.3-3.8C174.7,36.7,174.6,38,174.5,39.7z M197.8,40.4c0.9-0.3,0.7-0.2,1.3,0.4
		c-0.1,0.7-0.3,0.9-0.7,1.2C197.6,41.3,197.6,41,197.8,40.4z M197.1,39.6c-1.6,0-3,0.2-3.9,1.4c0.2,0.2,0.1,0.1,0.3,0.3
		c0,0,0.4,0.3,0.4,0.3c1.1,0.7,1.7,0.7,3.1,0.7c0,1.5,0.3,3.2,1.3,3.8c1-0.6,1.4-2.4,1.3-3.8c1.3,0.1,3.1-0.2,3.9-1.3
		c-0.8-1-2.2-1.3-3.8-1.4c-0.1-1.6-0.3-3.1-1.4-3.8C197.4,36.5,197,38.3,197.1,39.6z M40,41.9c-0.4-0.1-0.5-0.1-0.8-0.6
		c-0.5-0.9,0.3-1.9,1.3-0.3L40,41.9z M38.4,39.7c-1.3-0.1-2,0-3.1,0.7L34.7,41c0.9,0.9,2.1,1.4,3.8,1.3c0,1.8,0.2,2.7,1.2,3.8
		c1.2-0.8,1.4-2.2,1.4-3.8c1.6,0.1,3-0.3,3.8-1.3c-0.8-1.1-2.1-1.4-3.8-1.3c0.1-1.7-0.2-2.9-1.3-3.8c-0.3,0.2-0.1,0-0.3,0.3
		C38.5,37.4,38.5,38.5,38.4,39.7z M40.6,18.3c-1,1.5-2.6,0.2-1.1-0.6C40.2,17.8,40.2,17.9,40.6,18.3z M35.7,17.4
		c-0.4,0.4-0.7,0.4-1.1,0.9c0.6,1,2.2,1.4,3.8,1.4c0,2.1,0.3,2.5,1.1,3.9c0.8-0.3,0.9-1.2,1.3-1.8l0.1-2.1c1.4,0.1,3.3-0.3,3.9-1.4
		c-0.9-1-2.2-1.3-3.8-1.2c-0.1-1.6-0.3-3.4-1.5-3.8c-0.7,1-1.1,2.2-1.1,3.9C37.1,16.9,36.8,17.1,35.7,17.4z M62.5,62.8
		c0.4,0.2,0.6,0.4,0.8,0.7c-0.8,0.8-0.9,0.8-1.6,0.2C61.9,63.2,62,63.1,62.5,62.8z M58.1,62.8l-0.4,0.7l0.4,0.8
		c1.1,0.3,1.4,0.6,2.9,0.5c0.2,1.7,0.2,2.9,1.4,3.8c1.1-1.4,1.2-1.7,1.2-3.8c1.8,0.1,2.8-0.3,3.8-1.3c-0.5-1.1-2.3-1.4-3.8-1.3
		c0.1-1.6-0.3-3.3-1.4-3.9c-1,1.3-1.1,1.9-1.2,3.9C59.7,62.1,59.1,62.3,58.1,62.8z M4.8,97.9c0.6-2,3-0.6,1.1,0.5
		C5.1,98.3,5.3,98.3,4.8,97.9z M4.6,96.4c-1.7,0-3.2,0.2-3.9,1.3c2.8,1.8,3.6,0.5,3.8,1.7l0.1,0.7c0,0.4,0.1,0.7,0.3,1.1
		c0.4,1,0.6,1.2,1.1,1.5c0.8-1.4,1.2-1.6,1.1-3.8c1.8-0.1,2.8,0,3.7-1.3c-0.7-1-2.3-1.2-3.7-1.1c-0.1-2.4,0-2.2-1.1-3.9
		C4.8,93.2,4.3,95,4.6,96.4z M187.2,98.4c-1.9-0.6-0.5-2.6,0.8-0.8C187.8,98.1,187.7,98.2,187.2,98.4z M185.9,96.5
		c-1.5-0.1-3.3,0.1-3.7,1.4c1.3,0.9,1.8,1,3.7,1.1c-0.1,1.4,0.2,3.2,1.4,3.8c0.8-1.6,1.2-1.5,1.1-3.9c1.3,0.2,1.9,0.1,3.1-0.6
		l0.6-0.5c0,0,0.1-0.1,0.1-0.1c-1.2-1-1.9-1.3-3.8-1.1c0-0.6,0.1-3-1.3-3.9C186.1,93.7,185.7,94.6,185.9,96.5L185.9,96.5z M4.8,7.5
		C5,6.4,6.4,6.2,6.5,7.1C6.6,7.8,5.6,8.6,4.8,7.5z M4.6,6.1C3.5,6.1,2.5,6,1.3,6.8C0.6,7.2,0.9,6.9,0.7,7.6c1.6,0.6,1.6,1.2,3.9,0.9
		c-0.3,1.8,0.1,2.6,1,3.8C6.8,11.8,7,9.9,6.9,8.5c1.3,0,3-0.1,3.8-1.3c-1-1-2-1.3-3.8-1.2c-0.1-1.8,0-2.9-1.3-3.8
		C4.7,3.5,4.3,4.2,4.6,6.1z M140.8,7c0.4-0.3,0.4-0.4,1.2-0.5C143.6,8.4,141.1,8.7,140.8,7z M140.6,6.1c-1.4-0.1-1.8-0.1-3,0.6
		l-0.8,0.6c0.8,1.2,2.3,1.2,3.8,1.3c-0.2,1.5,0.2,2.9,1.1,3.8c1-0.7,1.4-2.2,1.2-3.8c1.6,0.1,3.2-0.3,3.8-1.2c-1-1-2-1.3-3.8-1.1
		c-0.1-1.5,0-3-1.3-3.8C140.6,3.3,140.4,4.7,140.6,6.1z M72.9,74.8c0.4-0.3,0.5-0.4,1.1-0.4C75.8,76.1,73.2,76.6,72.9,74.8z
		 M72.7,73.9c-0.9-0.1-1.4-0.1-2.2,0.2l-1.6,1c0.7,1.2,2.4,1.3,3.8,1.3c-0.2,1.8,0.2,2.7,1.1,3.8c1.1-0.9,1.4-2.5,1.2-3.9
		c1.5,0.2,3.3-0.2,3.8-1.2c-0.8-1-2.3-1.3-3.7-1.1c-0.3-1.8,0.1-2.6-1.3-3.8C72.9,70.9,72.5,72.4,72.7,73.9z M208.9,30
		c0.4-0.7,1.6-1.4,1.8-0.2c0.1,0.6-0.2,0.9-0.8,0.9C209.4,30.7,209.1,30.3,208.9,30z M208.7,28.8c-1.6-0.2-3.1,0.2-3.8,1.2
		c1.1,1,2,1.3,3.7,1.2c0.2,1.7,0.1,3,1.3,3.9c0.9-0.8,1.2-2.3,1.2-3.8c1.7,0.1,2.8-0.2,3.7-1.2c-0.3-0.5-1-0.8-1.5-1.1
		c-0.9-0.4-1.3-0.2-2.3-0.2c0.1-1.5-0.2-2.9-1.1-3.8c-0.3,0.2-0.1,0-0.3,0.3C208.7,26.2,208.6,27.4,208.7,28.8z M232.5,8.3
		c-1.1-0.4-1.2-1.8-0.2-1.7C233.3,6.5,233.6,7.7,232.5,8.3z M231.2,6.1c-1.6,0-3,0.2-3.8,1.2c0.6,1.1,2.6,1.4,3.8,1.3
		c-0.2,1.5,0.2,3.3,1.3,3.8c0.7-1.2,1.2-1.8,1.1-3.7c0.9,0,1.4,0.1,2.3-0.2c0.5-0.2,1.2-0.6,1.6-1c-1.2-1.2-2-1.1-3.8-1.2
		c0.2-1.6-0.2-3.1-1.3-3.8C231.6,3.4,231,4.3,231.2,6.1z M4.8,142.7c0.5-0.5,0.7-0.7,1.7-0.5c0.2,0.7,0.2,1.2-0.5,1.4
		C5.1,143.8,4.9,143,4.8,142.7z M4.6,141.6c-2.7-0.2-2.2,0.4-3.9,1c0.3,0.6,0.4,0.7,1.5,1.2c1.1,0.4,1.3,0.3,2.4,0.3
		c-0.2,2.2,0.3,2.3,1,3.7c1.4-0.7,1.3-2.2,1.4-3.8c2,0.1,2.7-0.2,3.8-1.2c-1.1-0.9-2-1.3-3.9-1.2c0.1-1.4-0.2-3.2-1.3-3.8
		C4.7,138.9,4.4,140,4.6,141.6z M52,97.6c-0.4,0.8-1.1,1.2-1.8,0.4C50.4,96.6,51.5,96.7,52,97.6z M49.8,96.5
		c-1.4-0.2-2.9,0.1-3.7,1.1c0.7,1.1,2.1,1.2,3.7,1.3c0.1,1.9,0.1,2.7,1.3,3.7c1-0.8,1.3-2.3,1.2-3.8c0.9,0.1,1.4,0.2,2.2-0.1
		c0.5-0.2,1.3-0.6,1.6-1.1c-1.1-1.1-1.9-1.2-3.8-1.2c0-1.8-0.1-2.7-1.1-3.8C50,93.3,49.9,94.9,49.8,96.5z M28,30.7
		c-0.2-0.6-0.3-1,0.1-1.5c0.9,0,1,0.1,1.4,0.8C29.1,30.6,28.8,30.8,28,30.7z M27.4,28.8c-1.7-0.2-3.1,0.2-3.9,1.2
		c0.8,1,2.3,1.3,3.9,1.2c-0.2,1.6,0.2,3,1.2,3.8c0.9-0.7,1.2-2.4,1.2-3.8c2-0.1,2.6-0.2,3.8-1.2c-0.9-1.2-2.1-1.1-3.9-1.3
		c0.1-1.5-0.2-2.9-1.2-3.7C27.3,25.7,27.2,27.6,27.4,28.8z M188,142.7c-0.2,0.7-0.4,0.9-1.2,0.9c-0.4-0.4-0.8-0.7-0.3-1.4
		C187.3,141.9,187.7,142.3,188,142.7z M185.9,141.6c-2.8-0.1-2.1,0.4-3.9,1c0.6,1.4,2.6,1.5,3.8,1.4c0.1,1.9,0.1,2.7,1.2,3.8
		c1-0.8,1.4-2.2,1.2-3.8c1.4,0.1,3.3-0.2,3.8-1.4c-1.6-0.7-1.4-1.2-3.9-1c0.1-1.4-0.2-3.2-1.3-3.8
		C186.1,138.7,185.7,140.1,185.9,141.6z M165.5,75.3c-0.4,0.5-0.3,0.5-1,0.6c-0.7-0.4-0.8-0.6-0.6-1.4
		C164.6,74,165.3,74.7,165.5,75.3L165.5,75.3z M164.5,70.1c-0.8,1.3-1.4,1.9-1.1,3.8c-1.3,0-3.3,0.1-3.9,1.5c1.6,0.6,1.5,1.2,3.9,1
		c-0.1,1.6,0.2,3.2,1.2,3.7c0.9-0.9,1.3-2.3,1.1-3.8c1.2,0.1,3.1,0,3.9-1.2c-1.1-1-2-1.3-3.8-1.1C165.7,72.2,165.6,70.9,164.5,70.1z
		 M95.9,96.9c0.9-0.1,1.2,0.1,1.5,0.7c-0.3,0.6-0.6,0.9-1.4,0.8C95.5,97.9,95.6,97.5,95.9,96.9z M95.1,96.4
		c-1.7,0.2-2.6,0.1-3.7,1.3l0.6,0.6c1.3,0.8,1.8,0.8,3.2,0.6c-0.2,1.9,0.2,2.8,1.2,3.9L97,102c0.1-0.2,0.3-0.6,0.4-0.9
		c0.3-0.8,0.2-1.4,0.4-2.2c2-0.2,2.5-0.2,3.7-1.3c-1-0.9-2.2-1.2-3.9-1.2c0-1.7-0.2-3.1-1.3-3.8C95.4,93.7,95.3,94.7,95.1,96.4z
		 M51.3,6.4c0.2,0.3,0.4,0.5,0.5,1.1C50.4,9.3,49.4,6.7,51.3,6.4z M52.2,6c0.2-1.6-0.2-2.9-1.2-3.7c-1.3,1-1.1,2-1.3,3.8
		c-1.9-0.2-2.5,0.1-3.8,1.1l0.7,0.6c1.1,0.7,1.8,0.8,3.2,0.6c-0.1,1.4-0.1,2,0.6,3.2l0.6,0.7c0.9-1.1,1.3-2,1.2-3.8
		c1.6,0.1,3.1-0.2,3.7-1.2C55.2,6.1,53.9,6.2,52.2,6z M119.1,121.3c-1.5-1-0.4-2.5,0.8-1.4C120,120.7,119.8,121,119.1,121.3z
		 M115.8,121.3c0.8,0.3,1.3,0.2,2.2,0.2c-0.2,1.9,0.2,2.5,1.1,3.8c1.1-0.6,1.3-2.3,1.3-3.9c1.5,0.2,3.3-0.1,3.9-1.4
		c-1.6-0.6-1.5-1.3-3.9-0.9c0.1-1.2-0.1-3.3-1.2-3.8c-1,0.9-1.2,2.3-1.1,3.9c-1.3-0.2-2-0.1-3.2,0.6c-0.1,0.1-0.2,0.2-0.3,0.2
		c-0.3,0.3,0-0.1-0.3,0.3L115.8,121.3L115.8,121.3z M140.8,143.1c0.2-0.9,0.8-1.2,1.6-1c0.1,0.6,0.1,1.1-0.4,1.3
		C141.5,143.7,141.1,143.3,140.8,143.1L140.8,143.1z M140.6,141.6c-1.6,0.1-3.1,0.2-3.8,1.3c0.9,1,2.3,1.1,3.8,1.2
		c0,1.8,0.2,2.7,1.2,3.8c1.2-0.8,1.2-2.3,1.3-3.8c1.7,0,2.8-0.3,3.7-1.2c-0.5-1-2.2-1.4-3.7-1.2c0.1-1.3,0.1-2-0.7-3.1l-0.6-0.7
		C140.8,138.8,140.3,139.9,140.6,141.6z M97.2,7.3C97,8,96.9,8,96.4,8.3C94.8,7.5,96,5.3,97.2,7.3z M95.3,6.1
		c-1.6-0.1-2.9,0.2-3.9,1.1c0.6,1,2.3,1.4,3.9,1.2c-0.2,1.8,0.2,2.8,1.2,3.9c0.2-0.2,0.1-0.1,0.3-0.3l0.7-1.3
		c0.3-0.7,0.2-1.4,0.3-2.2c1.7-0.1,2.8-0.3,3.7-1.3c-0.8-0.9-2.3-1.4-3.8-1.1c-0.2-1.6,0-2.8-1.2-3.8C95.4,3.1,95,4.5,95.3,6.1z
		 M74.4,30.7c-1.8,0.3-1.7-1-0.6-1.7c0.4,0.2,0.6,0.4,0.7,0.8C74.8,30.4,74.4,30.5,74.4,30.7z M75.2,31.3c2-0.3,2.4-0.1,3.7-1.3
		c-0.6-1-2.2-1.4-3.8-1.2c0.1-1.5-0.1-2.7-1.2-3.9l-0.2,0.2c-0.9,1.1-0.9,2.4-1.1,3.6c-1.5,0-2.9,0.2-3.7,1.3c0,0,0.1,0.1,0.1,0.1
		l1.5,0.9c0.8,0.3,1.4,0.2,2.2,0.2c-0.1,1.6,0.1,3.2,1.3,3.7C75,33.8,75.1,32.9,75.2,31.3z M209.7,76.1c-1.2-1-0.7-2.3,0.9-1.5
		C210.8,75.5,210.5,75.9,209.7,76.1z M204.9,75.1c0.7,1.1,2.5,1.4,3.8,1.2c0,1.8,0.1,2.9,1.3,3.8c0.9-0.9,1.4-2.1,1.1-3.7
		c1.5-0.1,3-0.1,3.8-1.3c-0.9-1-2.2-1.3-3.8-1.2c0.1-1.7-0.2-2.9-1.1-3.8c-1.1,0.7-1.4,2.3-1.2,3.8
		C207.1,73.9,205.8,74.1,204.9,75.1z M118.5,75.9c-0.5-2.2,1.3-1.8,1.6-0.6C119.7,75.9,119.4,76,118.5,75.9z M118,74
		c-1.9-0.2-2.8,0.2-3.9,1.2c1,1,2,1.2,3.9,1.3c-0.1,1.6,0.3,2.8,1.1,3.8c1.2-0.6,1.4-2.6,1.3-3.8c1.3,0.1,2.4,0,3.5-0.9l0.4-0.4
		c-1.1-1-2-1.3-3.9-1.1c0.1-1.3,0-3.1-1.2-3.8C118.2,71.1,117.9,72.3,118,74L118,74z M188,52.4c-0.3,1.1-1.7,1.3-1.8,0.2
		C186.2,51.2,187.6,51.7,188,52.4z M182.1,52.5c1.1,1,1.9,1.3,3.8,1.2c0,1.5,0.1,3.1,1.3,3.7c1.1-1,1.1-2.2,1.1-3.7
		c1.8,0.1,2.6-0.2,3.8-1.1c-0.3-0.5-0.9-0.8-1.5-1.1c-0.9-0.4-1.3-0.3-2.3-0.2c0.1-1.4-0.1-3.3-1.3-3.8c-0.9,1-1.2,2.2-1.1,3.8
		C184.4,51.1,182.8,51.5,182.1,52.5L182.1,52.5z M95.7,142.2c1.7-0.9,2,1.3,0.5,1.6C95.7,143.3,95.5,143.1,95.7,142.2z M95.2,141.7
		c-1.2-0.1-3.2,0.1-3.9,1.2c1,0.9,2.2,1.3,3.9,1.1c-0.1,0.9-0.1,1.4,0.2,2.2l0.8,1.4c0,0,0.1,0.1,0.1,0.1c0,0,0.1,0.1,0.1,0.1
		c0.2-0.2,0.1-0.1,0.3-0.3c1.2-1.4,0.9-2.3,1-3.5c1.7,0.2,2.8-0.4,3.8-1.1c-0.7-1.1-2.2-1.4-3.8-1.3c0.1-1.9-0.1-2.7-1.2-3.8
		C95.3,138.6,95.1,140.4,95.2,141.7z M50.9,141.8c1.3,0.4,1,1.6,0.1,1.8c-0.6,0.1-0.9-0.3-0.8-0.8C50.4,142.3,50.7,142.1,50.9,141.8
		z M52.3,141.6c0.1-1.5-0.2-2.8-1.1-3.8c-1.2,0.7-1.3,2.7-1.2,3.9c-0.9-0.1-1.6-0.1-2.4,0.2c-0.3,0.1-0.5,0.2-0.8,0.4l-0.7,0.6
		c0.9,0.9,2.3,1.3,3.8,1.2c0,0.9-0.1,1.5,0.2,2.4c0.3,0.8,0.5,1.1,1,1.4c1-0.8,1.3-2.1,1.2-3.7c1.7-0.2,3,0,3.7-1.4
		C54.2,141.6,54.8,141.7,52.3,141.6L52.3,141.6z M118.6,30.7c-0.2-0.6-0.2-0.8-0.1-1.5c0.9-0.1,1.4,0.1,1.6,0.8
		C119.9,30.6,119.5,30.8,118.6,30.7z M118,28.8c-1.4-0.2-2.7,0.1-3.7,1.1c0,0-0.1,0.1-0.1,0.1c0.1,0.1,0.1,0.1,0.3,0.3
		c1.1,0.9,2.1,1,3.5,0.9c0.2,2.4,0,2.2,1.2,3.8c1-0.7,1.4-2.2,1.2-3.8c1.3,0,3.2-0.1,3.9-1.4c-1.6-0.6-1.4-1.3-3.9-1
		c0.2-1.5-0.1-3.3-1.2-3.8C118.3,25.8,118,27.1,118,28.8z M163.6,29.8c0.5-0.4,0.7-0.6,1.7-0.5l-0.1,1.2
		C164.4,30.9,163.8,30.8,163.6,29.8L163.6,29.8z M163.3,28.7c-2.8,0-2,0.5-3.8,1c0.2,0.5,0.1,0.4,0.7,0.8c1.2,0.8,2,0.7,3.2,0.7
		c-0.2,1.7,0.4,2.8,1.1,3.8c1.1-0.6,1.4-2.3,1.3-3.9c1.9,0.2,2.8-0.2,3.9-1.2c-1.3-1-1.8-1.3-3.9-1.2c0.1-1.3-0.1-3.2-1.4-3.8
		C163.7,26.2,163.1,26.8,163.3,28.7z M5,53.2c-0.1-0.8,0-1.3,0.8-1.6C7,52.2,6.9,53.7,5,53.2z M1,52.8c0.9,0.9,2.4,1,3.5,0.9
		c-0.3,1.7,0.4,2.8,1.1,3.9c1-0.7,1.4-2.3,1.3-3.9c1.5,0,3.3-0.1,3.8-1.4c-1.6-0.8-1.6-1.1-3.8-1c0.3-2.6-0.4-2.2-1-3.9
		c-1.2,0.6-1.6,2.4-1.4,3.9c-3.2-0.1-2.2,0.4-3.9,1C0.7,52.3,1,52.8,1,52.8z M140.8,97.6c0.5-0.8,1.8-1.3,1.7,0
		C142.5,98.6,141.2,98.7,140.8,97.6z M140.6,96.5c-1.6-0.2-3,0.2-3.9,1.1c0.8,0.9,2.2,1.4,3.8,1.2c-0.1,1.6,0.2,2.9,1.2,3.8
		c1-0.6,1.4-2.3,1.2-3.8c1.9,0.2,2.6-0.4,3.8-1c-0.6-1.2-2.3-1.5-3.8-1.4c-0.2-1.7,0-2.9-1.3-3.8C140.8,93.5,140.4,94.9,140.6,96.5z
		 M231.7,97c1.8-0.6,1.9,0.9,0.8,1.6C231.7,98.3,231.5,97.8,231.7,97z M227.4,97.6c0.6,1.1,2.7,1.3,3.8,1.3c0,0.9-0.1,1.5,0.2,2.3
		c0.4,1.1,0.6,1.3,1.1,1.5c0.6-1.2,1.2-2,1-3.9c1.2,0.1,3.1,0,3.8-1.2c-1-1.1-2.1-1.2-3.7-1.2c-0.2-1.7-0.2-3.1-1.4-3.8
		c-0.9,1.1-1.1,2-1.2,3.6C229.9,96.8,228.8,96.1,227.4,97.6L227.4,97.6z M95.8,53.2c-0.4-0.8-0.2-1.3,0.6-1.7c0.6,0.3,0.6,0.3,0.8,1
		C96.8,53.2,96.7,53.3,95.8,53.2z M95.2,51.3c-1.5-0.2-3.3,0.3-3.8,1.2c0.9,1,2.3,1.3,3.9,1.1c-0.1,0.9-0.2,1.4,0.1,2.2
		c0.1,0.3,0.2,0.5,0.4,0.8l0.6,0.8c1.2-1,1.2-2.7,1.3-3.8c1.9,0.2,2.7-0.4,3.8-1.1c-0.7-1-2.2-1.5-3.9-1.2c0.1-1.7-0.2-2.9-1.2-3.9
		c-0.2,0.2-0.1,0-0.3,0.3L95.4,49C95,49.9,95.1,50.3,95.2,51.3z M187.2,8.3c-1.3-0.4-1.3-2.3,0.6-1.6C188,7.6,187.8,7.9,187.2,8.3z
		 M188.3,8.6c1.3,0,2.5,0,3.5-1c0.2-0.2,0.1,0,0.3-0.3c-1-1-2.1-1.3-3.9-1.2c0.2-1.7-0.1-2.6-1-3.7c-1.2,0.5-1.4,2.2-1.3,3.7
		c-1.5-0.1-3.2,0.2-3.7,1.4c1.1,0.9,2,1.1,3.7,1.1c-0.1,1.5,0.2,3.2,1.4,3.8C188,10.9,188.5,10.7,188.3,8.6z M140.8,52.4
		c0.5-0.9,1.8-0.8,1.7,0.4C142.5,53.8,141.1,53.4,140.8,52.4z M136.7,52.5c1,0.9,2.1,1.3,3.8,1.1c-0.1,1.5,0.1,2.7,1.2,3.8
		c1.1-0.9,1.3-2.2,1.3-3.8c1.6,0.1,2.8-0.3,3.7-1.1c-0.5-1.2-2.6-1.4-3.8-1.2c0.1-1.7-0.2-3.1-1.2-3.8c-1,0.9-1.2,2.1-1.2,3.8
		C139,51.1,137.5,51.5,136.7,52.5L136.7,52.5z M27.9,119.6c0.7-0.4,1.3,0.3,1.6,0.8C28.7,121.7,27.3,121.3,27.9,119.6z M27.3,119.1
		c-1.6-0.2-3.1,0.2-3.8,1.2c0.8,1,2.3,1.2,3.8,1.2c-0.1,1.7,0.2,2.9,1.2,3.7c0.4-0.3,0.2-0.1,0.6-0.7c0.8-1.3,0.6-1.8,0.6-3.1
		c1.6,0.2,2.8-0.2,3.8-1.1c-0.8-1-2.1-1.5-3.9-1.2c0.1-1.6-0.1-3.2-1.4-3.9C27.7,116.9,27.1,116.7,27.3,119.1L27.3,119.1z
		 M210.8,120.6c-1.8,1.2-2.4-0.2-1.3-1.1C210.3,119.5,210.7,119.8,210.8,120.6z M204.9,120.3c0.7,1,2.3,1.3,3.8,1.2
		c-0.2,1.5,0.2,3.2,1.2,3.8c1-1,1.2-2.2,1.2-3.8c1.6-0.1,3-0.1,3.7-1.4c-1-0.8-2.1-1.3-3.7-1c0-2.2-0.2-2.4-1.1-3.9
		c-1.3,0.7-1.1,2.5-1.5,3.6C208.3,119.2,206.1,118.8,204.9,120.3L204.9,120.3z M233.4,142.6c-0.2,0.7,0.1,0.2-0.4,0.7
		C231.3,145,230.8,140.5,233.4,142.6z M232.5,137.8c-1.3,0.7-1.4,2.6-1.2,3.8c-1.2-0.1-3.2,0-3.9,1.2c0.9,0.9,2.3,1.3,3.8,1.1
		c0.1,1.7,0.1,2.9,1.3,3.8c1-1,1.3-2,1.2-3.8c1.9,0.2,2.7-0.2,3.8-1.2c-1-1-2.1-1.3-3.9-1.2C233.7,140,233.4,138.9,232.5,137.8
		L232.5,137.8z M233.4,52.5c-0.6,0.9-2,1.2-1.8-0.2C231.7,51.3,232.9,51.6,233.4,52.5z M227.4,52.5c0.9,1,2.3,1.2,3.8,1.2
		c-0.2,1.7,0.4,2.8,1.1,3.8c1-0.7,1.4-2.3,1.3-3.9c1.1,0.1,3.3-0.1,3.8-1.3c-1-0.9-2.2-1.2-3.8-1.1c0.2-1.6-0.1-3.2-1.4-3.9
		c-0.5,1.7-1.2,1.4-1,3.9C230,51.2,228,51.4,227.4,52.5L227.4,52.5z M72.9,120.6c0.2-1.2,1.5-1.4,1.7-0.5
		C75.1,121.6,73.4,120.9,72.9,120.6z M72.6,119.1c-1.5-0.2-3,0.2-3.8,1.2c0.9,1,2.1,1.3,3.8,1.1c-0.2,1.6,0.2,2.9,1.2,3.9
		c1.1-1,1.2-2.1,1.2-3.9c1.6,0.1,2.8-0.2,3.8-1.1c-0.6-1.1-2.4-1.4-3.8-1.2c0.1-1.6-0.2-3-1.2-3.8C72.8,116,72.6,117.6,72.6,119.1
		L72.6,119.1z M163.8,121l-0.1-1.1c0.8-0.5,1.2-0.4,1.8,0.3C165.3,121,164.8,121.3,163.8,121z M163.4,119.1c-1,0-1.3-0.2-2.3,0.2
		l-1.5,1c1.1,1,2,1.3,3.9,1.1c-0.3,1.8,0.4,2.7,1,3.9c1.1-0.7,1.5-2.4,1.3-3.9c1.1,0,3.3,0,3.8-1.3c-1.1-0.9-2.2-1.2-3.8-1
		c0.2-2-0.1-2.6-1.1-3.8C163.5,116,163.3,117.4,163.4,119.1L163.4,119.1z M6.3,74.1c1.1,1.4-0.3,2.2-1.1,1.7
		C4.6,75.4,4.3,73.6,6.3,74.1z M4.1,73.3c-1.6-0.3-2.9,0-2.9,1.7c0,1.7,1.3,1.9,2.9,1.7c-0.2,1.6,0,2.7,1.6,2.8
		c0.8,0.1,1.3-0.4,1.6-0.8c0.6-0.7,0.3-1.2,0.2-2.1c0.8,0.1,1.3,0.3,2-0.2c1.4-1,1.3-3.8-2-3.3c0.2-1.5-0.1-2.8-1.7-2.9
		C4.2,70.3,3.8,71.7,4.1,73.3z"/>
</g>
</svg>
