<?xml version="1.0" encoding="utf-8"?>
<!-- Generator: Adobe Illustrator 26.0.3, SVG Export Plug-In . SVG Version: 6.00 Build 0)  -->
<svg version="1.0" id="Слой_1" xmlns="http://www.w3.org/2000/svg" xmlns:xlink="http://www.w3.org/1999/xlink" x="0px" y="0px"
	 viewBox="0 0 239.5 150.2" style="enable-background:new 0 0 239.5 150.2;" xml:space="preserve">
<path d="M116.2,119.1c0,0.4-0.1,0.6-0.5,0.6h-2.9v-2.6h2.9c0.3,0,0.5,0.2,0.5,0.5V119.1z M119,124.5c-0.4-0.4-0.5-0.7-0.7-1.1
	l-1-2.6c0.9-0.1,1.3-0.6,1.3-1.4v-1.8c0-0.9-0.5-1.6-1.6-1.6h-6.8c0.1,0.3,0.2,0.6,0.2,1.1v6.3c0,0.5-0.1,0.8-0.2,1.1h2.8
	c-0.1-0.3-0.2-0.6-0.2-1.1v-2.7h1.9l1.5,3.8C116.2,124.5,119,124.5,119,124.5z M120.3,124.5c0.1-0.3,0.2-0.6,0.2-1.1v-6.3
	c0-0.5-0.1-0.8-0.2-1.1h2.8c-0.1,0.3-0.2,0.6-0.2,1.1v6.3c0,0.5,0.1,0.8,0.2,1.1H120.3z M131.4,124.5h-5c-1.1,0-1.7-0.6-1.7-1.7
	v-5.2c0-1,0.5-1.7,1.7-1.7h5l0.2,1.3c-0.3-0.1-0.7-0.2-1.2-0.2h-2.7c-0.3,0-0.5,0.1-0.5,0.5v5.4c0,0.3,0.2,0.5,0.5,0.5h2.7
	c0.5,0,0.9-0.1,1.2-0.2L131.4,124.5z M139,124.5c0.1-0.3,0.2-0.6,0.2-1.1v-2.7h-3.4v2.7c0,0.5,0.1,0.8,0.2,1.1h-2.8
	c0.1-0.3,0.2-0.6,0.2-1.1v-6.3c0-0.5-0.1-0.8-0.2-1.1h2.8c-0.1,0.3-0.2,0.6-0.2,1.1v2.6h3.4v-2.6c0-0.5-0.1-0.8-0.2-1.1h2.8
	c-0.1,0.3-0.2,0.6-0.2,1.1v6.3c0,0.5,0.1,0.8,0.2,1.1H139z M148.8,121H146l1.4-3.2L148.8,121z M153.2,124.5
	c-0.2-0.2-0.5-0.7-0.7-1.1l-3.4-7.4h-2.8l0.4,0.6l-3.1,6.9c-0.1,0.3-0.4,0.7-0.7,1.1h1.6c0-0.4,0.1-0.8,0.2-1.1l0.6-1.3h3.9l0.6,1.3
	c0.1,0.3,0.2,0.7,0.2,0.9c0,0.1,0,0.1,0,0.2L153.2,124.5L153.2,124.5z M160.5,119.1c0,0.4-0.1,0.6-0.5,0.6h-2.9v-2.6h2.9
	c0.3,0,0.5,0.2,0.5,0.5V119.1z M163.3,124.5c-0.4-0.4-0.5-0.7-0.7-1.1l-1-2.6c0.9-0.1,1.3-0.6,1.3-1.4v-1.8c0-0.9-0.5-1.6-1.6-1.6
	h-6.8c0.1,0.3,0.2,0.6,0.2,1.1v6.3c0,0.5-0.1,0.8-0.2,1.1h2.8c-0.1-0.3-0.2-0.6-0.2-1.1v-2.7h1.9l1.5,3.8
	C160.5,124.5,163.3,124.5,163.3,124.5z M170.7,123c0,0.3-0.2,0.5-0.5,0.5h-3v-6.3h3c0.3,0,0.5,0.1,0.5,0.5V123z M173.2,122.8v-5.2
	c0-1-0.5-1.7-1.7-1.7h-6.9c0.1,0.3,0.2,0.5,0.2,1.1v6.4c0,0.5-0.1,0.8-0.2,1.1h6.9C172.6,124.5,173.2,123.9,173.2,122.8L173.2,122.8
	z M186.8,124.4c0.1-0.3,0.2-0.6,0.2-1.1v-6.2l0,0l-2.9,7.3h-1.7l-2.9-7.3l0,0v6.2c0,0.5,0.1,0.8,0.2,1.1h-1.5
	c0.1-0.3,0.2-0.6,0.2-1.1V117c0-0.5-0.1-0.8-0.2-1.1h3.4l2.4,6.2l2.5-6.2h3.2c-0.1,0.3-0.2,0.6-0.2,1.1v6.3c0,0.5,0.1,0.8,0.2,1.1
	H186.8z M191.5,124.4c0.1-0.3,0.2-0.6,0.2-1.1V117c0-0.5-0.1-0.8-0.2-1.1h2.8c-0.1,0.3-0.2,0.6-0.2,1.1v6.3c0,0.5,0.1,0.8,0.2,1.1
	H191.5z M203.3,124.4h-7c0.1-0.3,0.2-0.6,0.2-1.1V117c0-0.5-0.1-0.8-0.2-1.1h2.8c-0.1,0.3-0.2,0.6-0.2,1.1v6.3h3.3
	c0.6,0,0.9-0.1,1.2-0.2L203.3,124.4z M211.7,124.4h-7c0.1-0.3,0.2-0.6,0.2-1.1V117c0-0.5-0.1-0.8-0.2-1.1h2.8
	c-0.1,0.3-0.2,0.6-0.2,1.1v6.3h3.3c0.6,0,0.9-0.1,1.2-0.2L211.7,124.4z M220.1,124.4h-7c0.1-0.3,0.2-0.6,0.2-1.1V117
	c0-0.5-0.1-0.8-0.2-1.1h7l0.2,1.3c-0.3-0.1-0.7-0.2-1.2-0.2h-3.3v2.6h2.9c0.5,0,0.9-0.1,1.2-0.2v1.5c-0.3-0.1-0.7-0.2-1.2-0.2h-2.9
	v2.7h3.3c0.6,0,0.9-0.1,1.2-0.2L220.1,124.4z"/>
</svg>
