<?xml version="1.0" encoding="utf-8"?>
<!-- Generator: Adobe Illustrator 26.0.3, SVG Export Plug-In . SVG Version: 6.00 Build 0)  -->
<svg version="1.0" id="Слой_1" xmlns="http://www.w3.org/2000/svg" xmlns:xlink="http://www.w3.org/1999/xlink" x="0px" y="0px"
	 viewBox="0 0 239.5 150.2" style="enable-background:new 0 0 239.5 150.2;" xml:space="preserve">
<g>
	<path d="M177.3,114.7c-0.1,0.4-0.4,0.8-0.6,1.2c-0.6,1.4-1.1,2.8-1,4.4c0.1,1.5,1.1,2.9,2.4,3.5c0.8,0.4,1.8,0.5,2.7,0.4
		c1.4,0,2.8-0.4,4.2-0.8c9.8-2.6,19.5-5.2,29.3-7.8c1-0.2,1.9-0.6,2.9-0.7c-10.6,4.6-21.2,9.1-31.8,13.6c-2.5,1-4.9,2.2-7.6,2.5
		c-1.6,0.2-3.4,0.2-4.8-0.7c-1.4-0.8-2.2-2.3-2.2-3.9c-0.1-1.2,0.2-2.3,0.6-3.4c0.9-2.5,2.7-4.6,4.4-6.7
		C176.2,115.9,176.8,115.3,177.3,114.7z"/>
</g>
</svg>
