<?xml version="1.0" encoding="utf-8"?>
<!-- Generator: Adobe Illustrator 26.0.3, SVG Export Plug-In . SVG Version: 6.00 Build 0)  -->
<svg version="1.1" id="Слой_1" xmlns="http://www.w3.org/2000/svg" xmlns:xlink="http://www.w3.org/1999/xlink" x="0px" y="0px"
	 viewBox="0 0 239.5 150.2" style="enable-background:new 0 0 239.5 150.2;" xml:space="preserve">
<style type="text/css">
	.st0{fill:url(#SVGID_1_);}
</style>
<linearGradient id="SVGID_1_" gradientUnits="userSpaceOnUse" x1="28.632" y1="-803.9244" x2="59.832" y2="-803.9244" gradientTransform="matrix(1 0 0 -1 0 -738.7244)">
	<stop  offset="0" style="stop-color:#E3C654"/>
	<stop  offset="1" style="stop-color:#DBB55B"/>
</linearGradient>
<path class="st0" d="M57,76.5H31.5c-1.6,0-2.9-1.3-2.9-2.8v-17c0-1.6,1.3-2.8,2.9-2.8H57c1.6,0,2.8,1.3,2.8,2.8v17
	C59.8,75.3,58.6,76.5,57,76.5z"/>
<g>
	<path d="M147.3,34.2c0.2,1-0.3,2.1-0.2,3.1c0.2,1.3,2.4,1.3,2.7,0.1c0.9-5.3-0.8-10.6-0.7-15.9c1.9,1.8,2.7,4.4,3.8,6.7
		c1.2,2.5,2.1,5.2,3.6,7.6c0.6,0.9,0.8,2,1.1,3c0.4,1,2.2,0.8,2.4-0.3c0.1-1.5-0.6-2.9-1.3-4.2c-1.1-2-1.9-4.3-2.9-6.4
		c-1-2-1.9-4-3-6c1.4,0,3,0,4.3-0.7c1.4-0.7,2.3-2.3,2.2-3.8c-0.2-2.5-2-4.6-4.1-5.6c-1.8-1-3.9-1-5.9-0.9c-1.1,0-2.6,0.4-2.9,1.6
		c-0.2,1.2,0.2,2.4,0.2,3.7C146.7,22.2,146.7,28.2,147.3,34.2z M155.6,15.3c0.7,0.7,1.3,1.7,1,2.7c-0.2,0.8-1.1,1.2-1.9,1.3
		c-1.9,0.1-3.7,0.1-5.5-0.3c0-1.8,0.1-3.7-0.3-5.5C151.2,13,153.9,13.5,155.6,15.3z"/>
	<path d="M201.4,13.6c-1.3-0.7-2.8-1.4-4.3-1c-1.1,0.3-1.8,1.5-1.5,2.6c0.2,1.2,0.5,2.5,0.5,3.8c0,3.4,0,6.8-0.5,10.2
		c-0.1,1.7-0.6,3.3-0.5,5c0.1,0.6,0.3,1.4,1,1.4c0.8-0.3,1.4-0.8,2.2-1.1c1.7-0.6,3.7-0.6,5.3-1.6c1.9-1.1,3.9-2.4,4.8-4.5
		c0.8-2.2,0.4-4.7-0.4-6.9C206.5,18.3,204.5,15.2,201.4,13.6z M204.4,29.5c-1.9,1.6-4.4,1.7-6.7,2.5c0.4-2.8,0.8-5.5,0.8-8.4
		c0-2.7,0.3-5.5-0.3-8.2c0.5-0.2,1-0.2,1.5,0.1c3.2,1.6,5.2,4.9,6.1,8.2C206.3,25.7,206,28.1,204.4,29.5z"/>
	<path d="M162,21.4c0.2,4.7,1.1,9.3,1.1,14c0,0.4-0.1,0.9,0.3,1.3c0.6,0.8,2.3,0.5,2.3-0.6c0.1-4-0.8-8-0.9-12.1
		c-0.1-3.3,0.2-6.8-1.1-9.8c-0.3-0.8-1.2-1.2-2-0.8c-0.5,0.2-0.8,0.8-0.6,1.4C162,16.8,161.7,19.2,162,21.4z"/>
	<path d="M226.2,19.3c-0.3-1.9-1.6-3.4-3-4.5c-1.6-1.1-3.4-2.1-5.4-1.9c-1.4,0.1-2.5,1.4-2.8,2.7c-0.4,1.7,0.1,3.5,0.2,5.2
		c0.3,4.5,0.1,8.9,0,13.4c0,0.5,0,1.1,0.4,1.4c0.7,0.7,2.2,0.2,2.1-0.8c0-3.3,0-6.6,0-10c2.4,0.3,5.1-0.3,6.9-2
		C225.7,22,226.4,20.7,226.2,19.3z M222.3,22c-1.5,0.6-3.2,0.5-4.8,0.3c-0.1-1.8-0.3-3.6-0.1-5.5c0-0.7,0.8-0.8,1.3-0.8
		c1.2,0.2,2.6,0.4,3.6,1.2c0.9,0.7,1.4,1.8,1.5,3C223.7,21.1,223,21.7,222.3,22z"/>
	<path d="M179.8,35.3c0.8-0.1,1.1-0.9,1.4-1.6c0.4-1.6,0.4-3.2,0.5-4.8c0.2-3.3-0.4-6.7,0.5-10c2.5,2.6,2.7,6.4,3.9,9.5
		c0.9,2.3,1.5,5,3.6,6.7c0.7,0.7,2.2,0.4,2.2-0.7c0.5-3.6,0.1-7.3,0.1-10.9c0-3.1-0.7-6.2-0.7-9.3c-0.1-1.3-2.4-1.3-2.5,0
		c-0.2,5.5,1.1,10.9,0.9,16.3c-0.8-2.2-1.8-4.4-2.4-6.7c-0.7-2.7-1.8-5.4-4-7.2c-0.8-0.6-2.1-1.1-2.8-0.1c-1.6,2.6-1.1,5.7-1.3,8.6
		c-0.2,2.9-0.2,5.8-0.8,8.7C178.2,34.7,179,35.5,179.8,35.3z"/>
	<path d="M211.3,13.5c-0.6,0.1-0.9,0.8-0.9,1.4c-0.1,5.3,0.3,10.6,0.3,15.8c0,0.7,0,1.5,0.1,2.2c0.4,1.1,2.4,0.9,2.4-0.3
		c0-6-0.4-12-0.3-18C213,13.8,212,13.2,211.3,13.5z"/>
	<path d="M168.1,37c0.1,1.2,2.3,1.2,2.4,0c0.1-3.9-0.2-7.8-0.2-11.7c2-0.1,4.2-0.3,5.7-1.7c1-0.9,1-2.4,0.6-3.6
		c-0.5-1.7-1.4-3.4-2.9-4.4c-1.9-1.2-4.8-0.1-5.5,2c-0.5,1.6-0.4,3.2-0.4,4.9C168.1,27.3,167.9,32.1,168.1,37z M171.1,18.3
		c0.5-0.8,1.6-0.4,2,0.2c0.7,0.9,1.3,2.4,0.4,3.4c-0.8,0.8-2.1,0.7-3.1,0.8C170.6,21.3,170.5,19.7,171.1,18.3z"/>
	<path d="M202.8,133.2c-2.1-0.8-4.6-0.3-6.1,1.3c-0.2-0.2-0.4-0.4-0.5-0.7c-0.5-1.5-0.4-3.1-0.8-4.7c-0.6-2.9-1.4-5.8-2.3-8.7
		c-1.2-3.8-2.4-7.6-4.6-10.9c-1.5-2.2-3.5-4.1-4.4-6.7c-0.9-2.7-0.6-5.6-0.1-8.3c0.5-2.7,1.2-5.3,1.5-8.1c0.6-5.2,1.3-10.3,1.2-15.5
		c0-2.2-0.3-4.3,0-6.5c1.1-7.3,2.4-14.5,3.6-21.7c0.2-1.1,0.3-2.3-0.3-3.4c-0.5-0.9-1.5-1.3-2.4-1.4c-2-0.1-3.9,0.5-5.7,1.2
		c-4.2,1.7-7.9,4.3-11,7.6c-0.5,0.5-0.9,1-1.6,1.2c-0.5,0.1-1-0.2-1.4-0.5c-2.3-1.8-5-2.9-7.7-3.9c-3.6-1.2-7.2-2.5-10.9-3.1
		c-4.1-0.7-8.3-0.5-12.2,0.8c-0.7,0.3-1.4,0.6-2.1,0.8c-1.3-2.9-2.5-5.8-3.8-8.7c-0.8-1.9-1.6-3.8-2.9-5.4c-1.3-1.6-3.4-2.5-5.4-2
		c-1.2,0.3-2.1,1.2-2.7,2.2c-0.9,1.3-1.4,2.9-2.1,4.3c-1.6,3.7-3.3,7.3-4.3,11.2c-0.6,2.4-1.3,4.8-2.3,7.1
		c-1.4,3.5-3.6,6.7-4.9,10.3c-1.2,3.3-2.6,6.6-3.9,9.9c-2.7,6.8-3.9,14.1-5.7,21.2c-0.7,2.7-1.5,5.3-2.4,8
		c-1.4,4.5-2.8,9.1-3.7,13.7c-0.7,3.3-1.2,6.6-1.6,10c-1.1,8.8-2.4,17.5-2.1,26.4H90c0.1-6.7,1.3-13.4,1.8-20.1
		c0.4-4.8,0.9-9.5,1.8-14.2c1.3-7,4-13.6,6-20.4c1.4-4.8,2.4-9.7,3.6-14.6c1.5-6.2,3.3-12.4,6.1-18.1c1.8-3.9,3.9-7.6,5.5-11.6
		c2.5-6.3,3.9-13.2,7.3-19.1c0.4-0.7,0.8-1.5,1.4-2.1c0.4-0.4,1-0.1,1.3,0.2c1.3,1.1,2,2.6,2.7,4.1c1.2,2.8,2.5,5.5,3.5,8.4
		c0.3,0.8,0.3,1.8,1.1,2.3c0.9,0.6,2.1,0.2,3.1-0.1c2.7-1,5.5-1.6,8.3-1.8c2.6-0.3,5.2,0.2,7.8,0.7c6,1.3,11.6,4.1,16.5,7.6
		c1.5,1.1,2.9,2.5,4.5,3.6c0.4,0.3,1.2,0.3,1.2-0.3c-0.1-1-0.8-1.7-1.4-2.5c-0.5-0.7-1.4-1.2-1.5-2.1c0.1-0.3,0.5-0.6,0.7-0.8
		c1.8-1.5,3.8-2.8,5.8-4.1c2.4-1.6,5-2.9,7.7-3.9c0.4-0.1,0.8-0.2,1.1,0.2c0.4,0.5,0.4,1.2,0.5,1.7c0,1.6-0.3,3.2-0.6,4.9
		c-0.6,4.3-1.6,8.5-2.2,12.8c-0.4,3.3-1.1,6.5-0.9,9.8c0.1,4.1,0.2,8.2-0.3,12.2c-0.5,3.6-1.1,7.2-1.8,10.8
		c-0.5,2.6-1.4,5.2-1.1,7.9c0.2,1.3,0.9,2.5,1.4,3.7c0.9,1.9,2.3,3.4,3.4,5.2c3.3,5,5.4,10.6,6.9,16.4c0.6,2.2,1.1,4.5,1.3,6.8
		c0.4,5.5,0.5,11.1,0.5,16.6h3.7c0-1.8,0-3.6-0.1-5.4c-0.1-1.7-0.3-3.4-0.3-5.2c0-1,0.8-1.7,1.6-2.2c1.1-0.6,2.3-1,3.5-0.6
		c0.8,0.2,1.2,1.1,1.4,1.8c0.4,1.9,0,3.9-0.5,5.8c-0.6,1.9-1.2,3.8-1.8,5.7h3.9c0.8-2.2,1.5-4.4,1.9-6.6c0.4-2.3,0.5-4.8-0.4-7.1
		C205.5,134.9,204.3,133.7,202.8,133.2z"/>
	<path d="M125.2,45c-0.2-0.2-0.4-0.2-0.7-0.2c-1.1,0-2.2,0.1-3.3,0c0-0.1-0.1-0.2-0.1-0.3c0.3-1.7,0.8-3.3,1.2-5
		c0.4-1.5,0.7-3.1,1.5-4.4c0.1-0.3,0.4-0.5,0.6-0.7c0.3,0.7,0.3,1.4,0.5,2.2c0.3,1.5,0.8,2.8,1.4,4.2c0.5,1.3,0.7,2.8,0.1,4.1
		c0.1,0.6,0.8,0.3,1-0.1c1-1.4,0.4-3.1-0.2-4.5c-0.9-1.8-0.9-4-1.8-5.8c-0.2-0.5-0.6-1.1-1.2-1.1c-0.7,0-1.2,0.7-1.4,1.3
		c-1.1,2.7-1.9,5.5-2.4,8.4c-0.2,1.1-0.7,2.2-0.5,3.3c0.1,0.2,0.4,0.2,0.6,0c1.3-0.8,2.9-0.8,4.3-0.9
		C124.9,45.4,125.3,45.3,125.2,45z"/>
	<path d="M177.4,48.8c1.8-1.4,3.8-2.4,5.9-2.9c0.5-0.1,0.8-0.7,0.4-1c-0.8-0.3-1.8-0.1-2.5,0.3c-1.5,0.7-2.9,1.4-4.3,2.3
		c-1.4,0.9-2.5,2.4-2.5,4.1c0,0.9,0.6,1.7,1.2,2.3c1,1.1,2.2,2,3.6,2.5c0.9,0.4,2.1,0.5,3-0.1c0.6-0.4,0.8-1.3,0.9-2
		c0.2-1.8,0.2-3.6,0.5-5.3c0.1-0.7,0.5-1.6-0.1-2.2c-0.3,0.2-0.7,0.5-0.7,0.9c-0.6,1.9-0.7,3.8-0.8,5.8c0,0.6,0,1.2-0.4,1.8
		c-0.4,0.6-1.1,0-1.6-0.1c-1.7-1-3.9-1.9-4.6-4C175.9,50.3,176.6,49.5,177.4,48.8z"/>
	<path d="M142.1,66.3c-0.4-1.4-1.3-2.6-2.3-3.5c-0.5-0.4-0.9-1-1.5-1.3c-1.5-0.8-3.2-1-4.8-1.2c-1.7-0.2-3.5-0.2-5.2,0.1
		c-0.9,0.2-1.7,0.4-2.5,0.7c-0.5,0.2-0.4,0.7-0.3,1.1c0.1,1.6,0.7,3.4,2.1,4.4c1.6,1.2,3.5,2.1,5.5,2.6c2,0.5,4.1-0.2,6.1,0.3
		c0.7,0.2,1.5,0.6,1.6,1.4c0.1,0.9-0.3,1.8,0.2,2.6c0.5,0.6,1.4,0.6,2.1,0.6c0.4,0,0.6-0.4,0.7-0.8c0.3-1-0.3-2.1-1.1-2.8
		c-0.3-0.3-0.8-0.5-1-0.9C141.7,68.5,142.4,67.5,142.1,66.3z M131.9,66.5c-1.3-0.8-2.6-1.7-3.2-3.2c1.3-0.2,2.7-0.7,4.1-0.4
		C132.2,64,131.9,65.2,131.9,66.5z M134.8,67.2c0.4-1.1,0.8-2.3,0.8-3.5c1.7,0.5,3.1,2,3.6,3.7C137.7,67.5,136.2,67.5,134.8,67.2z"
		/>
	<path d="M151.7,75.6c0.1,0.5,0.4,1.2,1,1.2c0.8-0.1,1.5-0.9,1.5-1.7c0.1-0.8-0.3-1.7,0.2-2.4c0.6-0.5,1.4-0.9,2.2-1.2
		c0.7-0.3,1.3,0.3,1.8,0.6c4.1,1.9,9,1.5,12.9-0.7c0.8-0.5,1.7-1,2.1-1.9c0.2-0.4,0.1-0.9-0.2-1.3c-0.9-1.1-2.1-2.1-3.4-2.6
		c-2.3-1.1-4.9-1.3-7.4-1c-2.4,0.3-5,1.2-6.7,3c-0.5,0.5-0.8,1.1-1.2,1.6c-0.5,0.4-1.3,0.5-1.7,1c-0.9,0.8-1.1,2.1-1.1,3.3
		C151.7,74.1,151.6,74.8,151.7,75.6z M165.5,67.8c0-0.2,0.3-0.5,0.5-0.3c0.9,0.4,1.9,0.8,2.8,1.2c0.2,0.1,0.7,0.2,0.5,0.5
		c-1,0.5-2,0.9-3,1.3c-0.4,0.2-0.8,0.3-1.2,0.3C165.2,69.8,165.4,68.8,165.5,67.8z M162.2,67.4c0.1,1-0.1,2.1,0,3.1
		c-0.9,0.1-1.7-0.5-2.5-0.7c-0.4-0.2-1.1-0.2-1.3-0.7C159.6,68.5,160.9,67.9,162.2,67.4z"/>
	<path d="M163.7,87.4c-0.3-1.9-2.2-3.6-4.2-3.4c-0.6,0.2-0.2,0.7,0.2,0.9c1.3,0.8,2.1,2.5,1.5,4c-0.4,0.9-1.3,1.2-2.2,1.3
		c-3.3,0.4-6.8,0.7-9.9-0.6c-0.7-0.3-1.6-0.8-1.7-1.6c0-1.1,0.8-1.9,1.4-2.7c0.7-0.9,1.5-1.8,2.5-2.3c1-0.5,2.1-1.1,2.5-2.2
		c0.2-0.7,0.3-1.6-0.4-2.1c-2.1-1.5-4.7-2-7.2-2.4c-1.2-0.2-2.3-0.3-3.5,0c-0.7,0.1-1,0.8-1,1.4c-0.2,1.9,1.3,3.4,1.9,5.1
		c0.3,1,1,1.7,1.3,2.7c0.2,0.8-0.3,1.5-0.9,2c-1.2,0.9-2.8,1-4.2,0.7c-1.2-0.3-2.3-0.8-3.5-1c-1.4-0.3-2.8-1-3.5-2.3
		c-0.4-0.6-0.2-1.4-0.6-2c-0.6-0.5-1.7-0.5-2.1,0.3c-0.4,0.7-0.2,1.5,0,2.2c0.4,1.4,1.6,2.4,2.9,3c1.9,1,3.9,1.7,5.9,2.2
		c1.2,0.2,2.5,0.5,3.8,0.3c1-0.1,2-0.9,3.1-0.6c1.4,0.2,2.2,1.7,3.6,2.1c2,0.6,4.1,1.1,6.2,1.2c2.2,0.1,4.6-0.2,6.4-1.6
		C163.3,90.8,164.1,89,163.7,87.4z M145.6,82.3c-0.5-1-0.9-2-1.3-3c-0.2-0.4,0.1-0.8,0.5-0.8c1.8,0.2,3.5,0.5,5.2,1
		c0.3,0.1,0.9,0.2,1,0.7c0,0.4-0.4,0.7-0.6,0.9c-0.8,0.6-1.7,1.1-2.5,1.8c-0.4,0.3-0.8,0.5-1.3,0.7
		C146.2,83.2,145.8,82.8,145.6,82.3z"/>
	<path d="M134.9,81.8c-0.6,0.3-0.7,1.3,0,1.7c0.6,0.4,1.5-0.1,1.5-0.9C136.3,81.9,135.5,81.4,134.9,81.8z"/>
	<path d="M137.6,83.7c-0.6,0.2-0.8,1.1-0.4,1.6c0.4,0.5,1.4,0.3,1.6-0.3C139.2,84.2,138.3,83.4,137.6,83.7z"/>
	<path d="M156.8,85.7c-0.7,0.3-0.7,1.4-0.1,1.7c0.6,0.4,1.5-0.1,1.5-0.9C158.2,85.8,157.4,85.3,156.8,85.7z"/>
	<path d="M152.2,86.9c-0.6,0.3-0.7,1.2-0.2,1.6c0.5,0.5,1.5,0.2,1.6-0.5C153.8,87.2,152.9,86.5,152.2,86.9z"/>
	<path d="M138.9,97.8c0.6,0,0.8,0.7,1.3,0.8c0.6,0.1,1.1,0,1.7,0.1c0.7,0.1,1,0.8,1.6,0.9c0.5,0,1.1-0.4,1.6-0.2
		c0.4,0.1,0.9,0.3,1.4,0.1c0.6-0.1,1-0.6,1.4-0.9c0.4-0.4,1,0.2,1.4-0.1c0.6-0.4,1-1.2,1.7-1.6c0.3-0.2,0.9-0.4,0.9-0.8
		c-0.1-0.4-0.5-0.6-0.8-0.9c-0.5-0.4-1.1,0.1-1.5,0.4c-1.2,0.9-2.7,1.4-4.1,1.3c-2,0-4-0.9-5.6-2c-0.8-0.5-1.4-1.2-2.2-1.7
		c-0.2-0.1-0.6-0.2-0.8,0c-0.4,0.4-0.4,0.9-0.4,1.4c0.1,1,0.4,2,0.9,2.9C137.8,98,138.4,97.8,138.9,97.8z"/>
	<path d="M161,122.1c-1.2-0.4-2.6-0.2-3.7,0.6c-0.8,0.6-1.6,1.4-2.3,2.1c-1.3,1.4-2.6,2.8-3.8,4.3c-0.7-0.6-1.2-1.4-2.1-1.7
		c-1.3-0.5-2.8,0.3-3.6,1.4c-0.5,0.5-0.7,1.3-1.4,1.6c-0.5,0-0.9-0.3-1.3-0.4c-1.1-0.2-2.4,0-3.1,1c-1.4,1.8-1.8,4.2-3.2,6
		c-1.1,1.4-2,3-3.3,4.3c-1.9,1.9-4,3.6-6.2,5.2c-0.9,0.6-1.8,1.3-2.8,1.8c-1.2,0.6-2.4,1.1-3.5,1.7h4.9c1.5-0.9,3-1.9,4.4-2.9
		c2.7-1.9,5.1-4.2,7.4-6.7c1.6-1.7,3-3.8,3.3-6.2c0.1-0.8,0.1-1.7,0.6-2.4c0.5-0.8,1.8-0.7,2.4,0c0.1,0.4,0,0.8,0,1.2
		c0.3-0.1,0.6-0.2,0.9-0.4c0.9-0.8,1.7-1.8,2.6-2.5c0.5-0.4,1.2-0.8,1.9-0.6c0.7,0.3,0.8,1.2,1,1.8c0.1,0.4,0.7,0.4,1,0.2
		c0.7-0.4,1.3-0.9,1.8-1.4c1.5-1.5,2.9-3,4.3-4.5c0.7-0.7,1.2-1.5,2.2-1.7c0.6-0.1,1.3,0.1,1.4,0.8c0,0.9-0.6,1.6-1.1,2.3
		c-1.4,1.7-2.9,3.2-4.5,4.7c-0.4,0.3-0.7,0.7-0.9,1.2c0.4-0.1,0.8-0.3,1.2-0.4c0.6,0,1.1,0.5,1.1,1c-0.1,0.4-0.3,0.8-0.4,1.3
		c0.3,0.1,0.7,0.1,1.1,0.3c0.4,0.2,0.5,0.8,0.4,1.2c0,1.6-0.8,3.1-1.7,4.4c-1.6,2.2-3.6,4.2-5.9,5.7c-1.6,0.9-2.6,2.5-3.9,3.8h3.3
		c0.8-0.6,1.6-1.1,2.3-1.7c1.4-1.1,2.7-2.3,4-3.6c1.1-1.1,2-2.4,2.6-3.8c0.6-1.6,1.4-3.1,1.4-4.9c0-0.7-0.1-1.5-0.4-2.2
		c-0.2-0.4-0.8-0.4-1.2-0.6c0.2-0.7-0.3-1.4-0.8-1.9c0.6-0.6,1.2-1.3,1.8-1.9c0.9-0.9,1.6-1.9,2.4-3c0.7-0.9,1.1-2,0.8-3.1
		C162.1,122.9,161.6,122.3,161,122.1z"/>
	<path d="M180.3,148.7c-0.4-0.2-0.8-0.2-1.2-0.4c-0.6-0.6-0.7-1.6-1.3-2.2c-0.4-0.4-1-0.4-1.5-0.5c0.3-2.5,0.9-5,0.8-7.6
		c-0.1-1.3-0.3-2.6-1.3-3.6c-0.8-0.8-2.1-1.1-3.1-0.5c-0.8,0.5-1.1,1.4-1.3,2.2c-0.3,1.3-0.5,2.5-0.8,3.8c-0.2,1.2-0.6,2.4-0.6,3.6
		c-0.1,0.8-0.1,1.6-0.6,2.2c-0.4,0.3-1,0.3-1.5,0.6c-0.4,0.3-0.7,0.8-1.1,1.1c-0.5,0.2-1.1,0.1-1.6,0.4c-0.9,0.5-1.2,1.5-1.6,2.4
		h3.1c0.3,0,0.6,0,0.8-0.1c0.3-0.8,0.8-1.7,1.7-1.8c0.5,0.1,0.9,0.3,1.4,0.4c0.9-3.2,1.2-6.5,1.6-9.8c0.1-0.9,0.2-1.7,0.6-2.6
		c0.2-0.5,0.6-0.9,1.2-0.9c0.8,0.2,1.1,1,1.1,1.8c0.2,3.2-0.3,6.4-0.6,9.6c0,0.6,0,1.3,0.5,1.8c0.5,0.2,1.1,0.1,1.6,0.5
		c0.4,0.3,0.6,0.7,0.9,1.1h4.1C181.2,149.6,180.8,149,180.3,148.7z"/>
	<path d="M116.2,137.9c-0.1-0.7-0.6-1.5-1.5-1.5c-1.1,0.2-1.4,1.4-1.5,2.3c-0.3,3.8,1,7.6,0.4,11.4h2.9c-0.3-2.5-0.1-4.9-0.2-7.4
		C116.2,141.1,116.5,139.5,116.2,137.9z"/>
</g>
</svg>
