<?xml version="1.0" encoding="utf-8"?>
<!-- Generator: Adobe Illustrator 26.0.3, SVG Export Plug-In . SVG Version: 6.00 Build 0)  -->
<svg version="1.1" id="Слой_1" xmlns="http://www.w3.org/2000/svg" xmlns:xlink="http://www.w3.org/1999/xlink" x="0px" y="0px"
	 viewBox="0 0 239.5 150.2" style="enable-background:new 0 0 239.5 150.2;" xml:space="preserve">
<g>
	<g>
		<g>
			<path d="M172.7,83.2h0.2c0.6,0.1,1.2,0.6,1.1,1.3c0,0.5-0.4,1-0.9,1.2c0.5,4.3,1,8.6,1.4,12.9c1-3.9,1.9-7.8,2.9-11.7
				c-0.5-0.2-0.9-0.7-0.8-1.3c0.1-0.6,0.7-1.2,1.4-1.1c0.6,0,1.2,0.7,1.1,1.3c0,0.6-0.5,1.1-1.1,1.2c-0.3,4-0.6,8-0.9,12
				c1.4-3,2.8-6,4.2-9c-0.5-0.3-0.7-1-0.4-1.6s1-0.9,1.6-0.6c0.6,0.2,0.9,1,0.7,1.6c-0.2,0.5-0.8,0.9-1.3,0.8
				c-1.2,4.1-2.4,8.3-3.6,12.4c-0.1,0.5-0.5,0.9-0.9,1.2c-0.9,0.6-1.9,0.9-2.9,1c-1.5,0.2-3,0.1-4.5-0.3c-0.7-0.2-1.4-0.6-1.8-1.2
				c-0.2-0.3-0.3-0.7-0.4-1c-1.3-3.9-2.6-7.8-3.9-11.7c-0.6,0.1-1.3-0.2-1.4-0.8c-0.2-0.6,0.1-1.4,0.8-1.6c0.6-0.2,1.3,0.1,1.6,0.7
				c0.2,0.5,0,1.1-0.4,1.4c1.6,2.9,3.2,5.8,4.8,8.6c-0.5-4-1-7.9-1.4-11.9c-0.6,0-1.1-0.4-1.3-1c-0.2-0.7,0.3-1.4,0.9-1.5
				c0.6-0.2,1.3,0.3,1.5,0.9c0.1,0.5-0.1,1.1-0.6,1.4c1.1,3.8,2.2,7.6,3.3,11.4c0.4-4.2,0.8-8.4,1.1-12.6c-0.6-0.1-1-0.6-1-1.2
				C171.5,83.9,172.1,83.3,172.7,83.2z M172.4,101.5c-0.8,0-1.7,0.1-2.5,0.4c-0.3,0.1-0.6,0.3-0.8,0.6c-0.1,0.3,0.1,0.6,0.3,0.8
				c0.5,0.4,1,0.5,1.6,0.6c1.1,0.2,2.2,0.2,3.2,0.1c0.6-0.1,1.3-0.3,1.8-0.7c0.3-0.2,0.5-0.6,0.3-0.9c-0.2-0.4-0.7-0.5-1-0.6
				C174.4,101.5,173.4,101.4,172.4,101.5z"/>
		</g>
	</g>
	<g>
		<g>
			<path d="M156.3,109.5c1.5-0.1,3,0.2,4.3,1s2.4,2.1,2.8,3.6c0.3,1,0.3,2.2,0.1,3.2c-0.2,1.3-0.8,2.6-1.9,3.5
				c-1,0.9-2.4,1.4-3.8,1.6c-1.5,0.2-3.1,0-4.5-0.6c-1.1-0.5-2.1-1.3-2.7-2.4c-0.7-1.1-0.9-2.5-0.9-3.8c0.1-1.8,1.1-3.5,2.5-4.6
				C153.4,110.1,154.8,109.6,156.3,109.5z M156,111.2c-0.8,0.1-1.6,0.6-2,1.3c-0.7,1.1-0.9,2.5-0.8,3.9c0.1,1.3,0.3,2.7,1.3,3.7
				c1.2,1.3,3.4,1.3,4.6,0c0.8-0.8,1.1-1.9,1.2-3c0.1-1.1,0.1-2.2-0.2-3.3c-0.2-0.8-0.7-1.7-1.4-2.1
				C157.8,111.1,156.9,111,156,111.2z"/>
		</g>
		<g>
			<path d="M133.9,109.9c3.1,0,6.1,0,9.2,0c1,0,2.2,0.3,2.9,1.1c0.9,1,0.9,2.7,0,3.7c-0.6,0.7-1.5,1-2.3,1.3
				c0.4,0.2,0.8,0.5,1.1,0.9s0.5,0.9,0.6,1.4c0.1,0.6,0,1.2,0.1,1.8c0.1,0.2,0.2,0.4,0.4,0.5c0.3,0.1,0.7-0.1,0.8-0.4
				c0.2-0.4,0.2-0.9,0.2-1.3c0.3,0,0.7,0,1,0c0,0.7,0,1.4-0.1,2.2c-0.1,0.5-0.3,1-0.7,1.3s-0.9,0.4-1.4,0.5h-0.3
				c-0.6-0.1-1.3-0.2-1.9-0.6c-0.5-0.4-0.8-0.9-0.8-1.5c-0.1-0.7-0.1-1.4-0.2-2.1c-0.1-0.7-0.5-1.4-1.1-1.7
				c-0.8-0.4-1.7-0.2-2.5-0.3c0,1.2,0,2.4,0,3.6c0,0.3,0.1,0.7,0.4,0.8c0.5,0.2,1,0,1.6,0.1c0,0.4,0,0.9,0,1.3c-2.3,0-4.7,0-7,0V121
				c0.4,0,0.9,0,1.3,0c0.3,0,0.5,0,0.7-0.2s0.2-0.4,0.2-0.6c0-2.7,0-5.3,0-8c0-0.2,0-0.5-0.2-0.7s-0.4-0.2-0.7-0.2
				c-0.5,0-0.9,0-1.4,0L133.9,109.9L133.9,109.9z M138.9,111.3c0,1.2,0,2.4,0,3.7c0.7,0,1.5,0,2.3,0c0.5,0,1.1-0.1,1.6-0.4
				c0.4-0.2,0.6-0.7,0.6-1.1c0.1-0.6,0-1.2-0.5-1.6s-1.1-0.5-1.7-0.5C140.4,111.3,139.7,111.3,138.9,111.3z"/>
		</g>
		<path d="M165.5,109.9c2.3,0,4.6,0,6.9,0c0,0.5,0,0.9,0,1.4c-0.4,0-0.8,0-1.2,0c-0.2,0-0.5,0-0.7,0.2s-0.2,0.4-0.2,0.7
			c0,2.9,0,5.8,0,8.8c1,0,2,0,3.1,0c0.6,0,1.2-0.1,1.6-0.5c0.4-0.3,0.6-0.8,0.7-1.3c0.2-0.8,0.2-1.6,0.2-2.3c0.4,0,0.9,0,1.3,0
			c0,1.8,0,3.6,0,5.4c-3.9,0-7.8,0-11.7,0c0-0.4,0-0.9,0-1.3c0.5,0,1,0.1,1.5-0.1c0.3-0.1,0.5-0.4,0.4-0.7c0-2.7,0-5.4,0-8.1
			c0-0.3-0.1-0.7-0.4-0.8c-0.5-0.2-1,0-1.6-0.1C165.5,110.8,165.5,110.4,165.5,109.9z"/>
		<path d="M178.8,109.9c4.2,0,8.4,0,12.5,0c0,1.6,0,3.2,0,4.9c-0.4,0-0.8,0-1.2,0c-0.1-0.9-0.2-1.8-0.7-2.6
			c-0.5-0.6-1.3-0.9-2.1-0.9c-1.2,0-2.3,0-3.5,0c0,1.3,0,2.5,0,3.8c0.7,0,1.6,0.1,2.1-0.5c0.4-0.4,0.4-1.1,0.4-1.6
			c0.5,0,0.9,0,1.4,0c0,2,0,3.9,0,5.9c-0.5,0-0.9,0-1.4,0c0-0.6,0.1-1.2-0.3-1.7c-0.6-0.6-1.4-0.5-2.1-0.5c0,1.4,0,2.8,0,4.3
			c1.2,0,2.4,0,3.6,0c0.6,0,1.1-0.2,1.5-0.5c0.5-0.4,0.8-0.9,0.9-1.5c0.2-0.6,0.2-1.3,0.2-1.9c0.4,0,0.8,0,1.2,0c0,1.8,0,3.5,0,5.3
			c-4.2,0-8.4,0-12.5,0c0-0.4,0-0.9,0-1.3c0.4,0,0.8,0,1.3,0c0.3,0,0.5,0,0.8-0.2c0.2-0.2,0.2-0.4,0.2-0.7c0-2.6,0-5.1,0-7.7
			c0-0.3,0-0.6-0.1-0.9c-0.1-0.2-0.4-0.3-0.6-0.3c-0.5,0-1,0-1.5,0C178.8,110.8,178.8,110.3,178.8,109.9z"/>
		<path d="M194.5,109.9c2.4,0,4.8,0,7.2,0c0,0.5,0,0.9,0,1.4c-0.3,0-0.6,0-0.9,0c-0.4,0.2-0.3,0.7,0,1c0.5,0.6,0.9,1.1,1.4,1.7
			c0.6-0.7,1.2-1.4,1.8-2.1c0.2-0.2,0.1-0.5-0.2-0.6c-0.3,0-0.6,0-0.9,0c0-0.5,0-0.9,0-1.4c2.1,0,4.2,0,6.3,0v1.4
			c-0.5,0-1.1,0-1.6,0s-0.9,0.4-1.3,0.7c-1.1,1.1-2.1,2.2-3.1,3.3c1.2,1.5,2.5,2.9,3.8,4.4c0.3,0.4,0.6,0.7,1,1s0.8,0.2,1.2,0.2v1.3
			c-2.4,0-4.7,0-7.1,0c0-0.4,0-0.9,0-1.3c0.4,0,0.9,0,1.3,0c0.3,0,0.6-0.3,0.6-0.6c0-0.2-0.1-0.3-0.2-0.4c-0.8-0.9-1.5-1.8-2.3-2.7
			c-0.8,0.9-1.6,1.8-2.4,2.7c-0.2,0.2-0.4,0.4-0.3,0.7c0,0.2,0.2,0.4,0.5,0.4c0.5,0,1,0,1.6,0c0,0.4,0,0.9,0,1.3c-2.1,0-4.2,0-6.3,0
			c-0.1-0.4,0-0.9,0-1.3c0.4,0,0.7,0,1.1-0.1c0.3-0.2,0.6-0.5,0.8-0.8c1.3-1.4,2.6-2.8,3.9-4.1c-1.1-1.3-2.1-2.6-3.2-3.9
			c-0.7-0.7-1.7-0.7-2.6-0.8C194.5,110.8,194.5,110.4,194.5,109.9z"/>
	</g>
</g>
</svg>
