<?xml version="1.0" encoding="utf-8"?>
<!-- Generator: Adobe Illustrator 26.0.3, SVG Export Plug-In . SVG Version: 6.00 Build 0)  -->
<svg version="1.1" id="Слой_1" xmlns="http://www.w3.org/2000/svg" xmlns:xlink="http://www.w3.org/1999/xlink" x="0px" y="0px"
	 viewBox="0 0 239.5 150.2" style="enable-background:new 0 0 239.5 150.2;" xml:space="preserve">
<style type="text/css">
	.st0{fill:url(#SVGID_1_);}
</style>
<linearGradient id="SVGID_1_" gradientUnits="userSpaceOnUse" x1="25.54" y1="-803.9244" x2="56.74" y2="-803.9244" gradientTransform="matrix(1 0 0 -1 0 -738.7244)">
	<stop  offset="0" style="stop-color:#E3C654"/>
	<stop  offset="1" style="stop-color:#DBB55B"/>
</linearGradient>
<path class="st0" d="M53.9,76.5H28.4c-1.6,0-2.9-1.3-2.9-2.8v-17c0-1.6,1.3-2.8,2.9-2.8h25.5c1.6,0,2.8,1.3,2.8,2.8v17
	C56.7,75.3,55.5,76.5,53.9,76.5z"/>
<g>
	<path d="M92,68.9c-1.3-1.4-3-2.2-4.6-2.9c-0.7-0.3-1.5-0.7-2.2-1.1c-0.5-0.3-1.8-1.1-1.6-2.3c0.1-0.9,0.6-1.8,1.5-2.4
		c0.9-0.7,2.1-1,3.1-0.8c1.2,0.2,2.3,1,3,2.2l0.4,0.6l0.5-0.5c0.5-0.6,1.1-1.3,1.6-1.9c0.6-0.8,1.3-1.5,1.9-2.3l0.2-0.3L95.6,57
		c-0.8-1.2-2.2-2-3.3-2.5c-2.8-1.3-5.8-1.5-8.4-0.6c-5,1.7-8.3,7-7.6,12.2c0.3,1.9,1.7,3.7,3.7,4.8c0.8,0.5,1.7,0.9,2.6,1.3
		c0.8,0.3,1.5,0.6,2.2,1c1,0.6,1.6,1.4,1.6,2.3c0.1,1.8-0.9,3.7-2.5,4.5c-1.1,0.6-2.5,0.5-3.6-0.1c-1.2-0.6-2-2-2.4-3.6l-0.2-0.8
		l-0.6,0.5c-0.7,0.6-1.4,1.2-2.1,1.8c-0.8,0.7-1.6,1.4-2.4,2L72.3,80l0.1,0.3c1,2.5,2.8,4.5,4.9,5.5c1.2,0.6,2.6,0.9,4.2,0.9
		c0.7,0,1.5-0.1,2.3-0.2c2.8-0.5,5.4-2,7.1-4.2c1.7-2.2,2.8-5,3-8C94.1,72.2,93.4,70.2,92,68.9z M92.9,74.3
		c-0.2,2.8-1.1,5.4-2.8,7.4c-1.6,2-4,3.4-6.5,3.8c-1.6,0.3-3.8,0.4-5.9-0.6c-1.8-0.8-3.3-2.5-4.3-4.6c0.7-0.6,1.4-1.2,2.1-1.8
		c0.5-0.4,1-0.8,1.5-1.3c0.4,1.1,1.1,2.6,2.7,3.5c1.4,0.8,3.2,0.9,4.6,0.1c1.9-1,3.2-3.2,3.1-5.5c-0.1-1.2-0.9-2.4-2.1-3.1
		c-0.7-0.4-1.5-0.8-2.3-1.1c-0.9-0.4-1.7-0.7-2.5-1.2c-1.8-1-3-2.5-3.2-4.1c-0.7-4.7,2.4-9.5,6.9-11.1l0,0c2.3-0.8,5.1-0.6,7.6,0.6
		c0.9,0.4,1.9,1,2.6,1.9c-0.6,0.7-1.1,1.3-1.7,2c-0.4,0.5-0.8,0.9-1.1,1.4c-0.9-1.2-2-2-3.3-2.1c-1.3-0.3-2.7,0.1-3.9,0.9
		c-1.1,0.8-1.7,1.9-1.9,3.1c-0.2,1.3,0.6,2.5,2.1,3.3c0.7,0.4,1.5,0.8,2.2,1.1c1.6,0.7,3.1,1.4,4.3,2.7C92.5,70.7,93,72.4,92.9,74.3
		z"/>
	<path d="M133.4,66.7c-1.3-1.5-3.3-2.5-5.3-2.5c-2-0.1-4.1,0.5-5.7,1.7l0.2-1l-3,0c-1.1,0-2.2,0-3.3,0l-0.4,0l-1.1,7.2
		c-1.3,7.9-2.5,16-3.8,24l-0.1,0.6l0.6,0c1.1,0,2.2,0,3.3,0l2.9,0l0.1-0.4c0.5-3.3,1-6.6,1.5-9.9l0.2-1.5c1.2,1.2,3,1.9,5,1.8
		c2.9-0.1,5.9-1.6,7.9-4c2.1-2.5,3.3-5.6,3.4-8.9C135.7,70.9,134.9,68.5,133.4,66.7z M131.5,81.9c-1.8,2.2-4.5,3.6-7.2,3.7
		c-1.6,0.1-3.8-0.5-4.9-2.3l-0.7-1.3l-0.6,4.1c-0.5,3.2-1,6.3-1.5,9.5l-2,0c-0.9,0-1.8,0-2.7,0c1.2-7.8,2.5-15.8,3.7-23.4l1-6.3
		c1,0,1.9,0,2.9,0l1.8,0l0,0c-0.1,0.4-0.1,0.8-0.2,1.2l-0.3,1.6l1.2-1.1c1.6-1.6,3.8-2.4,6-2.3c1.8,0.1,3.5,0.9,4.6,2.2
		c1.4,1.6,2.1,3.8,2,6.2C134.6,76.6,133.4,79.5,131.5,81.9z"/>
	<path d="M127.6,69.9c-0.9-0.6-2.2-0.8-3.4-0.5l0,0c-1.8,0.5-3.4,1.9-4.3,3.9c-0.9,1.9-0.9,4-0.1,5.7c0.6,1.2,1.7,2.1,2.9,2.3
		c0.3,0.1,0.6,0.1,0.9,0.1c1.3,0,2.6-0.5,3.7-1.6c1.8-1.7,2.7-4.1,2.4-6.3C129.5,72,128.7,70.6,127.6,69.9z M126.6,79.1
		c-1.1,1-2.5,1.5-3.7,1.2c-0.9-0.2-1.7-0.8-2.2-1.8c-0.7-1.5-0.7-3.2,0.1-4.9c0.7-1.7,2.1-2.9,3.6-3.3c1-0.2,1.9-0.1,2.6,0.3
		c0.9,0.6,1.5,1.6,1.6,3C128.9,75.6,128.1,77.7,126.6,79.1z"/>
	<path d="M163.3,72.7c0-1.6-0.5-2.9-1.4-3.7c-1.1-1-2.9-1.1-4.3-0.3c-1.3,0.7-2.2,2-2.9,3.8l-0.2,0.7l8.7,0L163.3,72.7z M156,72.2
		c0.4-0.9,1.1-2,2.1-2.5l0,0c0.9-0.5,2.3-0.6,3.1,0.1c0.7,0.7,1,1.7,1,2.4L156,72.2z"/>
	<path d="M198.3,67.9c-0.3-1.3-1.1-2.4-2.2-2.9c-1.2-0.7-2.8-0.9-4.7-0.7c-1.7,0.3-3.4,1.2-4.9,2.6c-0.9-1.5-2.6-2.5-4.3-2.6
		c-2-0.3-4.1,0.3-5.6,1.5c0-0.1,0-0.3,0.1-0.4l0.1-0.6l-0.6,0c-0.9,0-1.8,0-2.6,0c-1,0-2.1,0-3.1,0l-0.4,0l-0.1,0.4
		c-0.5,3.3-1.1,6.7-1.6,10c0.4-2.6,0.1-4.9-0.8-6.8c-0.9-2-2.8-3.5-5-4c-3.2-0.7-6.5-0.1-9,1.6c-1.3,0.8-2.4,2-3.3,3.4
		c0.2-0.6,0.3-1.2,0.5-1.8c0.2-0.8,0.4-1.5,0.6-2.3l0.1-0.4l-0.4-0.2c-1-0.4-2-0.6-3-0.5c-1.5,0.1-3,0.7-4.2,1.8
		c0-0.2,0.1-0.4,0.1-0.6l0.1-0.6h-6.8l-0.1,0.4c-0.5,3-1,6.1-1.4,9.1c-0.6,3.6-1.2,7.3-1.7,10.9l-0.1,0.6l0.6,0c1,0,1.9,0,2.9,0
		s1.9,0,2.9,0l0.4,0l0.1-0.4c0.2-1.6,0.5-3.2,0.8-4.8c0.2-1.4,0.4-2.7,0.6-4.1c0.2-1.2,0.4-2.5,1-3.7c0.4-1,1.1-1.7,1.9-2.1
		c1.3-0.7,2.9-0.6,4.1,0.1l0.2,0.1c-0.3,0.7-0.6,1.5-0.9,2.3c-0.9,3-0.9,5.7-0.1,8c0.7,2,2.2,3.6,4.1,4.4c1.3,0.6,2.8,0.9,4.3,0.9
		c1.1,0,2.3-0.2,3.4-0.5c3.1-0.9,5.9-3.2,7.3-6.1l0.2-0.3c0,0.1,0,0.2,0,0.3l-0.9,6l2.2,0c1.4,0,2.8,0,4.2,0l0.4,0l0.1-0.4
		c0.3-1.9,0.6-3.9,0.9-5.8c0.2-1.5,0.5-3,0.7-4.5c0.2-1.4,0.5-2.7,1.1-3.9c0.4-0.8,1.1-1.3,1.8-1.4c0.6-0.1,1.4,0,1.7,0.5
		c0.5,0.8,0.4,1.9,0.3,3c-0.4,2.6-0.8,5.2-1.2,7.8l-0.7,4.7l0.6,0c1.9,0,3.9,0,5.8,0l0.4,0l0.1-0.4c0.3-2,0.6-4,0.9-6
		c0.2-1.3,0.4-2.7,0.6-4c0.3-1.6,0.5-3.1,1.3-4.3c0.4-0.7,1.1-1.2,1.8-1.3c0.6-0.1,1.4,0,1.7,0.6c0.5,1,0.3,2.2,0.2,3.3l0,0.2
		c-0.6,3.7-1.2,7.5-1.8,11.2l0,0.7l0.6,0c1,0,2,0,3,0c0.9,0,1.8,0,2.7,0l0.4,0l0.1-0.4c0.4-2.5,0.8-5,1.1-7.5
		c0.3-1.8,0.6-3.7,0.9-5.5C198.6,71.2,198.8,69.5,198.3,67.9z M149.2,69.7c-1.4-0.6-3.1-0.6-4.5,0.1c-1.2,0.6-1.9,1.7-2.3,2.6
		c-0.6,1.3-0.9,2.7-1.1,4c-0.2,1.4-0.4,2.7-0.6,4.1c-0.2,1.5-0.5,2.9-0.7,4.4c-1.6,0-3.2,0-4.8,0c0.6-3.5,1.1-6.9,1.6-10.4
		c0.5-2.9,0.9-5.8,1.4-8.7h4.7c-0.1,0.5-0.1,1-0.2,1.5l-0.2,1.7l1-1.3c1.2-1.5,2.9-2.4,4.6-2.5c0.7-0.1,1.4,0,2.1,0.3
		c-0.2,0.6-0.3,1.2-0.5,1.8C149.7,68.1,149.5,68.9,149.2,69.7z M160,85.1c-2.5,0.7-4.9,0.6-7-0.3c-1.6-0.7-2.9-2.1-3.5-3.8
		c-0.8-2.1-0.7-4.6,0.1-7.4c0.8-2.9,2.5-5.3,4.6-6.7l0,0c1.6-1.1,3.7-1.7,5.8-1.7c0.8,0,1.6,0.1,2.4,0.3c1.9,0.4,3.6,1.7,4.3,3.4
		c0.9,1.9,1,4.2,0.6,7l-1.7,0c-3.7,0-7.3,0-11,0l-0.4,0l-0.1,0.4c-0.3,1.9-0.1,3.3,0.7,4.5c0.8,1.2,2.2,1.5,3.2,1.4
		c1.6-0.1,3.1-1.1,4.1-2.7c1,0.1,1.9,0.3,2.8,0.4c0.5,0.1,0.9,0.2,1.4,0.2C165,82.5,162.6,84.4,160,85.1z M167.2,79.2
		c-0.7-0.1-1.4-0.2-2-0.3c-1.1-0.2-2.1-0.4-3.2-0.5l-0.3,0l-0.2,0.3c-0.8,1.4-2.2,2.4-3.5,2.4c-0.7,0.1-1.8-0.1-2.3-0.9
		c-0.5-0.8-0.7-1.9-0.6-3.4c3.5,0,7,0,10.5,0l2.6,0l0.1-0.4c0.1-0.4,0.1-0.7,0.2-1.1c-0.2,1.3-0.4,2.7-0.6,4L167.2,79.2z
		 M197.5,72.3c-0.3,1.8-0.6,3.6-0.9,5.5c-0.4,2.3-0.7,4.7-1.1,7.1c-1.6,0-3.2,0-4.8,0c0.6-3.6,1.2-7.2,1.7-10.8l0-0.2
		c0.2-1.2,0.3-2.6-0.3-3.9c-0.6-1.1-1.9-1.3-2.9-1.1c-1,0.2-1.8,0.9-2.4,1.8c-0.8,1.4-1.2,3-1.4,4.7c-0.2,1.3-0.4,2.7-0.6,4
		c-0.3,1.9-0.6,3.7-0.9,5.6c-1.6,0-3.2,0-4.8,0l0.6-3.6c0.4-2.6,0.8-5.2,1.2-7.9c0.1-1.1,0.3-2.5-0.4-3.6c-0.6-1.1-1.9-1.2-2.8-1
		c-1,0.2-1.9,0.9-2.5,1.9c-0.7,1.3-1,2.7-1.3,4.2c-0.2,1.5-0.5,3-0.7,4.5c-0.3,1.8-0.6,3.6-0.8,5.4c-1.3,0-2.5,0-3.8,0l-1,0l0.8-4.8
		c0.7-4.7,1.5-9.5,2.3-14.2c0.9,0,1.8,0,2.7,0c0.7,0,1.4,0,2.1,0c-0.1,0.4-0.1,0.8-0.2,1.3l-0.3,1.8l1.2-1.4
		c1.4-1.7,3.7-2.5,5.9-2.2c1.6,0.1,3.1,1.2,3.8,2.7l0.3,0.7l0.5-0.5c1-1.1,2.7-2.4,4.8-2.8c1.7-0.2,3,0,4.1,0.5
		c0.8,0.5,1.4,1.3,1.7,2.3C197.7,69.6,197.6,71.1,197.5,72.3z"/>
	<path d="M212.2,69.1c-1.2-1.2-3.1-1-4.3-0.4c-1.3,0.7-2.3,1.9-2.9,3.8l-0.2,0.7l0.7,0c1.2,0,2.4,0,3.6,0c0.8,0,1.7,0,2.5,0l1.9,0
		l0-0.5C213.5,71.1,213.1,69.9,212.2,69.1z M211.6,72.2c-1.8,0-3.6,0-5.4,0c0.6-1.2,1.3-2.1,2.2-2.6l0,0c0.9-0.5,2.3-0.6,3.1,0.2
		c0.7,0.6,0.9,1.5,1,2.4L211.6,72.2z"/>
	<path d="M218.4,70.2c-0.5-2.1-1.7-3.9-3.3-4.9c-1.4-0.9-3.2-1.3-5.3-1.2c-3,0-5.9,1.3-7.9,3.5c-2,2.2-3.3,5.2-3.7,8.6
		c-0.3,2.9,0.3,5.4,1.7,7.2c1.3,1.7,3.5,2.9,6,3.1c0.4,0,0.8,0.1,1.3,0.1c2.9,0,5.8-1.1,7.9-3c1-1,2.1-2.2,2.7-3.7l0.2-0.6l-0.6-0.1
		c-0.7-0.1-1.3-0.2-2-0.3c-1-0.2-2.1-0.4-3.1-0.5l-0.2,0l-0.2,0.2c-0.2,0.2-0.4,0.4-0.5,0.6c-0.1,0.2-0.3,0.4-0.5,0.5
		c-0.9,1-2.1,1.5-3.2,1.4c-0.8,0-1.5-0.5-1.9-1.2c-0.4-0.8-0.6-1.8-0.4-3.1l5.5,0c2.4,0,4.8,0,7.2,0l0.4,0l0.1-0.4
		C218.8,74,218.8,72,218.4,70.2z M217.5,75.8c-2.3,0-4.5,0-6.8,0l-6.4,0l-0.1,0.4c-0.2,1.7-0.1,3.1,0.5,4.2c0.5,1,1.6,1.7,2.7,1.7
		c1.4,0.1,3-0.5,4-1.7c0.2-0.2,0.4-0.4,0.6-0.7c0.1-0.1,0.2-0.2,0.3-0.3c0.9,0.1,1.9,0.3,2.8,0.4c0.5,0.1,0.9,0.2,1.4,0.2
		c-0.5,1.1-1.4,2-2.2,2.7c-2.2,2-5.3,3-8.4,2.7c-2.2-0.2-4.1-1.2-5.3-2.7c-1.2-1.6-1.8-3.9-1.5-6.5c0.4-3.2,1.6-6,3.4-8l0,0
		c1.8-2,4.5-3.1,7.2-3.2c0.2,0,0.3,0,0.5,0c1.7,0,3.1,0.3,4.3,1c1.4,0.8,2.5,2.3,2.9,4.2C217.8,72,217.8,73.7,217.5,75.8z"/>
	<path d="M113,75.6c0.1-0.5,0.1-0.9,0.2-1.4c0.2-1.1,0.4-2.3,0.5-3.4c0.3-1.8,0.6-3.6,0.9-5.5l0.1-0.6l-0.6,0l-2,0
		c-1.2,0-2.5,0-3.7,0l-0.4,0l-0.1,0.4c-0.4,2.2-0.7,4.3-1,6.5c-0.2,1.4-0.4,2.8-0.7,4.3c-0.2,1.2-0.5,2.5-1.2,3.5
		c-0.5,0.7-1.4,1.2-2.3,1.1c-0.6,0-1.4-0.1-1.8-0.8c-0.5-1-0.4-2.3-0.2-3.4l0.8-4.9c0.3-2.1,0.7-4.1,1-6.2l0.1-0.6l-6.8,0l-2,12.5
		c-0.2,1.6-0.4,3.9,0.7,5.9c0.8,1.4,2.3,2.5,4.2,3c1.1,0.2,2.1,0.4,3.2,0.4c1.3,0,2.7-0.2,4-0.5c2.4-0.7,4.5-2.5,5.6-4.7
		C112.4,79.5,112.7,77.5,113,75.6z M105.6,85c-2.2,0.6-4.5,0.7-6.7,0.2c-1.6-0.4-2.9-1.3-3.5-2.5c-0.7-1.3-0.9-3-0.6-5.3l1.8-11.6
		l4.8,0c-0.3,1.9-0.6,3.8-0.9,5.6l-0.8,4.9c-0.2,1.2-0.4,2.7,0.3,4c0.5,0.9,1.6,1.4,2.7,1.3c1.2,0,2.4-0.6,3.1-1.6
		c0.9-1.2,1.2-2.7,1.4-4c0.2-1.4,0.5-2.9,0.7-4.3c0.3-2,0.6-4.1,1-6.1c1.1,0,2.2,0,3.3,0l1.4,0c-0.2,1.6-0.5,3.3-0.8,4.9
		c-0.2,1.1-0.4,2.3-0.5,3.4c-0.1,0.5-0.2,1-0.2,1.4c-0.3,1.8-0.6,3.7-1.4,5.4C109.6,82.9,107.8,84.4,105.6,85z"/>
</g>
</svg>
