<?xml version="1.0" encoding="utf-8"?>
<!-- Generator: Adobe Illustrator 26.0.3, SVG Export Plug-In . SVG Version: 6.00 Build 0)  -->
<svg version="1.0" id="Слой_1" xmlns="http://www.w3.org/2000/svg" xmlns:xlink="http://www.w3.org/1999/xlink" x="0px" y="0px"
	 viewBox="0 0 239.5 150.2" style="enable-background:new 0 0 239.5 150.2;" xml:space="preserve">
<g>
	<g>
		<path d="M181.1,98.1c2-0.2,4.2,0.3,5.7,1.7c1.4,1.2,2.1,3.1,2.3,5c0.1,1.9,0,4-1,5.7c-1,1.8-3,3-5.1,3.2c-1.9,0.3-4-0.1-5.6-1.3
			c-1.6-1.1-2.4-3-2.7-4.9c-0.2-2.2,0-4.6,1.3-6.6C177,99.2,179.1,98.2,181.1,98.1z M180.8,100.9c-0.9,0.2-1.7,0.8-2.2,1.5
			c-0.9,1.4-1.1,3.2-0.8,4.8c0.2,1.3,0.8,2.7,2,3.5c1.1,0.6,2.6,0.6,3.8,0.1c1.1-0.6,1.8-1.7,2.1-2.9c0.5-1.8,0.2-3.8-0.6-5.6
			C184.4,100.9,182.4,100.6,180.8,100.9z"/>
	</g>
	<path d="M163.1,98.5c4.1,0,8.2,0,12.4,0c0,0.9,0,1.8,0,2.6c-1.5,0-3.1,0-4.6,0c0,4.1,0,8.2,0,12.2c-1.1,0-2.1,0-3.2,0
		c0-4.1,0-8.2,0-12.2c-1.5,0-3,0-4.6,0C163.1,100.3,163.1,99.4,163.1,98.5z"/>
	<path d="M189.6,98.5c1.6,0,3.1,0,4.7,0c0.9,3.9,1.8,7.8,2.7,11.7c0.9-3.9,1.9-7.8,2.7-11.7c1.5,0,3.1,0,4.6,0c0,5,0,9.9,0,14.9
		c-1,0-2,0-3,0c0-3.7,0-7.5,0-11.2c0-0.4-0.1-0.9-0.1-1.3c-0.2,1.5-0.7,3-1,4.5c-0.6,2.6-1.2,5.3-1.8,7.9c-1.1,0-2.1,0-3.1,0
		c-0.7-3.3-1.5-6.6-2.2-9.9c-0.2-0.9-0.4-1.7-0.6-2.6c0,1.5,0,3,0,4.6c0,2.6,0,5.3,0,7.9c-1,0-2,0-3,0
		C189.6,108.4,189.6,103.5,189.6,98.5z"/>
	<g>
		<path d="M180,114c2.1-0.5,4.4-0.2,6.2,0.9s2.8,3.2,3,5.3c0.3,2.1,0,4.4-1.2,6.3c-1,1.5-2.6,2.5-4.3,2.9c-2.3,0.5-4.8,0-6.6-1.5
			c-1.4-1.1-2.1-2.9-2.4-4.6c-0.1-1.9,0-3.8,0.7-5.5C176.2,115.8,178,114.4,180,114z M181,116.6c-1,0.2-1.9,0.9-2.4,1.8
			c-1,1.8-0.9,3.9-0.3,5.8c0.3,0.8,0.8,1.7,1.6,2.1c0.9,0.6,2.1,0.6,3.2,0.4c1.3-0.3,2.3-1.5,2.7-2.7c0.7-2,0.3-4.2-0.6-6.1
			C184.3,116.6,182.4,116.3,181,116.6z"/>
	</g>
	<path d="M164.4,114.2c3.6,0,7.2,0,10.8,0c0,0.9,0,1.8,0,2.7c-2.5,0-5.1,0-7.6,0c0,1.1,0,2.2,0,3.3c2.2,0,4.5,0,6.7,0
		c0,0.9,0,1.8,0,2.6c-2.2,0-4.5,0-6.7,0c0,2.1,0,4.2,0,6.3c-1.1,0-2.1,0-3.2,0C164.4,124.2,164.4,119.2,164.4,114.2z"/>
	<g>
		<path d="M189.6,114.2c2.6,0,5.2,0,7.8,0c1.3,0,2.6,0.4,3.5,1.3c1.5,1.5,1.5,4.1,0.1,5.6c-0.4,0.4-0.8,0.6-1.3,0.9
			c0.8,0.2,1.5,0.8,1.7,1.6c0.5,1.4-0.1,2.9,0.3,4.4c0.1,0.3,0.3,0.5,0.6,0.7c0-4.9,0-9.7,0-14.6c2.2,0,4.5,0,6.7,0
			c1.3,0,2.7,0.3,3.8,1.1c1.5,1.1,2.1,3,2.3,4.7c0.1,2-0.1,4.2-1,6c-0.7,1.3-1.9,2.4-3.4,2.8c-0.7,0.2-1.3,0.2-2,0.2
			c-3.3,0-6.6,0-10,0c-0.4-1.2-0.3-2.6-0.4-3.8c0-0.5-0.1-1-0.3-1.4c-0.4-0.5-1.1-0.6-1.7-0.6c-1.2,0-2.5,0-3.7,0c0,1.9,0,3.9,0,5.8
			c-1,0-2.1,0-3.1,0C189.6,124.2,189.5,119.2,189.6,114.2z M192.7,120.8c1.4,0,2.8,0,4.2,0c0.6,0,1.3-0.2,1.6-0.7
			c0.5-0.8,0.5-1.9-0.1-2.7c-0.4-0.5-1.1-0.6-1.7-0.6c-1.3,0-2.7,0-4,0C192.6,118.1,192.7,119.5,192.7,120.8z M205.4,116.8
			c0,3.2,0,6.5,0,9.7c1.1,0,2.2,0,3.3,0c0.9,0,1.8-0.5,2.3-1.3c0.9-1.4,1-3.2,0.9-4.9c-0.1-0.9-0.3-2-1-2.7
			c-0.5-0.6-1.4-0.9-2.2-0.9C207.6,116.8,206.5,116.8,205.4,116.8z"/>
	</g>
</g>
</svg>
