<?xml version="1.0" encoding="utf-8"?>
<!-- Generator: Adobe Illustrator 24.0.2, SVG Export Plug-In . SVG Version: 6.00 Build 0)  -->
<svg version="1.1" id="Слой_1" xmlns="http://www.w3.org/2000/svg" xmlns:xlink="http://www.w3.org/1999/xlink" x="0px" y="0px"
	 viewBox="0 0 238.1 150.2" style="enable-background:new 0 0 238.1 150.2;" xml:space="preserve">
<g>
	<path d="M95,63.7c0-0.2,0.1-0.3,0.1-0.5c0.3-4.4,1.1-8.7,2.4-12.8c3.5-11.1,9.9-20.2,19-27.4c6.5-5.2,13.8-8.7,21.9-10.5
		c4.9-1.1,9.8-1.5,14.8-1.3c13.4,0.6,25.1,5.5,35,14.6c9.2,8.5,14.8,18.9,17,31.3c0.4,2.1,0.6,4.2,0.7,6.4c0.1,1.9,0.2,3.8,0.1,5.7
		c-0.3,4.7-1.1,9.4-2.6,14c-2.1,6.3-5.1,12.2-9.2,17.4c-5.1,6.5-11.3,11.6-18.6,15.4c-5.6,2.9-11.6,4.8-17.8,5.6
		c-12.2,1.5-23.8-0.5-34.5-6.6c-9.9-5.6-17.5-13.7-22.5-23.9c-3.2-6.5-5-13.3-5.6-20.5c0-0.4-0.1-0.9-0.2-1.3
		C95,67.5,95,65.6,95,63.7z M150.4,121.1c0.3,0,0.7,0,1,0c3.3-0.1,6.6-0.4,9.9-1.1c11.3-2.4,21-7.8,28.8-16.2
		c9.5-10.1,14.4-22.2,14.9-36.1c0.1-3.7-0.2-7.3-0.9-10.9c-1.4-7.6-4.3-14.6-8.7-21c-6-8.7-13.8-15.2-23.6-19.4
		c-9.5-4-19.3-5.2-29.4-3.7c-12.2,1.9-22.4,7.5-31,16.3c-3.9,4-7.1,8.6-9.6,13.7c-3.5,7.2-5.4,14.7-5.6,22.7
		c-0.1,4.1,0.3,8.2,1.1,12.2c2.4,11.1,7.7,20.7,15.9,28.6c7.4,7.1,16.1,11.6,26.1,13.8C142.9,120.7,146.6,121.1,150.4,121.1z"/>
	<path d="M132,136.1c0,1.9,0,3.7,0,5.5c-0.9,0-1.7,0-2.5,0c0-4.2,0-8.4,0-12.6h0.1c2,0,4.1,0,6.2,0.1c0.8,0,1.6,0.3,2.3,0.6
		c2.3,0.9,2.2,3.9,0.8,5.1c-0.6,0.5-1.2,0.8-1.9,1.2c1.1,1.8,2.3,3.7,3.5,5.7c-0.9,0-1.6,0-2.4,0c-0.1,0-0.3-0.2-0.4-0.3
		c-1-1.6-2-3.2-2.9-4.8c-0.2-0.3-0.4-0.4-0.7-0.4C133.4,136.1,132.7,136.1,132,136.1z M132,135.5c0.7,0.1,2.4,0.1,3-0.1
		c0.5-0.2,0.9-0.4,1.3-0.7c1.6-1.4,1.2-3.8-0.7-4.6c-1.2-0.5-2.4-0.3-3.6-0.3C132,131.6,132,133.5,132,135.5z"/>
	<path d="M154.8,130.2c-0.5,0.4-0.9,0.7-1.3,1.1c-0.2-0.2-0.4-0.4-0.7-0.6c-1.3-1.1-3.2-1.3-4.5-0.3c-1,0.7-1.1,2-0.2,2.8
		c0.8,0.7,1.8,1,2.7,1.2s1.9,0.4,2.8,0.8c1.2,0.4,2,1.2,2.1,2.5c0.1,1.7-0.8,3.1-2.3,3.8c-1.1,0.5-2.2,0.6-3.4,0.6
		c-1.6-0.1-3.1-0.3-4.4-1.3c-0.1-0.1-0.3-0.2-0.4-0.3c0.5-0.4,1-0.7,1.5-1.1c0.6,0.7,1.2,1.3,2.1,1.6c1.1,0.4,2.3,0.5,3.4,0
		c1.6-0.7,1.8-2.5,0.4-3.6c-0.7-0.5-1.5-0.7-2.3-1c-1-0.3-2.1-0.5-3.1-0.9c-1.2-0.5-1.7-1.6-1.7-2.9c0.1-1.3,0.8-2.3,2-2.9
		C149.9,128.3,152.4,128.5,154.8,130.2z"/>
	<path d="M159.2,141.7c0.3-0.7,0.6-1.2,0.8-1.8c1.6-3.5,3.2-7,4.8-10.5c0.1-0.3,0.3-0.4,0.6-0.4c0.5,0,1,0,1.6,0
		c0.2,0,0.4,0.1,0.5,0.3c1.7,4,3.4,8,5.1,12.1c0,0.1,0,0.2,0.1,0.3c-0.7,0-1.4,0-2.1,0c-0.1,0-0.3-0.2-0.4-0.3
		c-0.5-1.2-1-2.5-1.5-3.7c-0.1-0.3-0.3-0.4-0.6-0.4c-1.8,0-3.6,0-5.4,0c-0.3,0-0.4,0.1-0.6,0.3c-0.6,1.2-1.1,2.4-1.7,3.6
		c-0.2,0.4-0.4,0.5-0.8,0.5C159.6,141.6,159.5,141.7,159.2,141.7z M165.7,130.2c-1,2.2-2,4.2-3,6.3c1.9,0,3.7,0,5.6,0
		C167.4,134.4,166.6,132.3,165.7,130.2z"/>
	<path d="M186.4,138.9c0.6,0,1.1,0,1.7,0c0,1.1-0.6,1.9-1.5,2.3c-0.7,0.3-1.4,0.5-2.1,0.6c-1.3,0.2-2.7,0.2-4-0.1
		c-2-0.5-3.3-1.7-3.8-3.7c-0.5-1.7-0.5-3.5,0-5.2c0.5-2,1.8-3.3,3.8-3.7c1.8-0.4,3.6-0.4,5.4,0.2c1.5,0.5,2.3,1.6,2.3,3
		c-0.7,0-1.4,0-2.1,0c-0.1-0.3-0.1-0.6-0.2-0.8c-0.5-1.7-2-2.6-3.8-2.2c-1.2,0.2-1.9,1-2.4,2c-0.6,1.4-0.7,2.9-0.7,4.3
		c0,1,0.1,2.1,0.4,3.1c0.7,2.5,2.9,3,4.8,2.6C185.4,141.1,186.2,140.2,186.4,138.9z"/>
	<path d="M202,129c0,0.2,0,0.5,0,0.7c-0.2,0-0.3,0-0.5,0c-1.7,0-3.4,0-5,0c-0.2,0-0.4-0.1-0.4,0.3c0,1.6,0,3.2,0,4.8
		c1.6,0,3.2,0,4.7,0c0,0.3,0,0.5,0,0.7c-1.6,0-3.1,0-4.7,0c0,1.8,0,3.5,0,5.3c2,0,3.9,0,5.9,0c0,0.2,0,0.3,0,0.4
		c0,0.3-0.1,0.4-0.4,0.4c-1.4,0-2.9,0-4.3,0c-1.1,0-2.1,0-3.2,0c-0.2,0-0.3,0-0.5,0c0-4.2,0-8.4,0-12.6C196.4,129,199.1,129,202,129
		z"/>
	<path d="M124.2,140.9c0,0.2,0,0.3,0,0.5c0,0.3-0.1,0.4-0.3,0.4c-2.6,0-5.1,0-7.7,0c-0.3,0-0.4-0.1-0.4-0.3c0-4,0-8.1,0-12.1
		c0-0.1,0-0.1,0-0.2c2.8,0,5.5,0,8.3,0c0,0.2,0,0.5,0,0.7c-1.9,0-3.9,0-5.8,0c0,1.7,0,3.4,0,5.1c1.6,0,3.1,0,4.7,0
		c0,0.3,0,0.5,0,0.7c-1.5,0-3.1,0-4.7,0c0,1.8,0,3.5,0,5.3C120.2,140.9,122.2,140.9,124.2,140.9z"/>
	<path d="M110.6,129c-0.5,1.3-1,2.6-1.4,3.8c-1,2.8-2.1,5.6-3.1,8.4c-0.1,0.4-0.3,0.5-0.7,0.4c-0.5,0-1,0-1.6,0
		c-0.1,0-0.3-0.1-0.4-0.2c-1.5-4.1-2.9-8.2-4.4-12.3c0,0,0,0,0-0.1c0.8,0,1.6,0,2.3,0c0.1,0,0.2,0.2,0.3,0.3c1,3,1.9,5.9,2.9,8.9
		c0.2,0.7,0.4,1.3,0.8,2c0.2-0.6,0.4-1.2,0.6-1.7c1.1-3,2.1-6,3.2-9c0.1-0.4,0.3-0.6,0.7-0.5C110.1,129,110.3,129,110.6,129z"/>
	<path d="M174.7,26.8c1-1.7,2.1-3.4,3.2-5.2c1.3,0.9,2.6,1.7,3.8,2.6s2.4,1.9,3.5,2.8c0.3,0.3,0.3,0.4,0.1,0.7
		c-0.7,0.7-1.4,1.5-2,2.3c-0.2,0.3-0.4,0.3-0.7,0c-0.9-0.8-1.8-1.5-2.7-2.2c-0.3-0.2-0.4-0.2-0.6,0.1c-0.3,0.4-0.6,0.8-1,1.3
		c1.6,1.4,3.2,2.8,4.9,4.3c1.4-1.4,2.8-2.9,4.2-4.4c0.9,1,1.7,1.7,2.4,2.6c1.3,1.6,2.6,3.3,3.9,4.9c0.2,0.3,0.2,0.5-0.1,0.7
		c-0.7,0.5-1.4,0.9-2.1,1.4c-0.2,0.1-0.3,0.2-0.5,0.3c0.8,0.5,1.6,1,2.5,1.5c0.1,0.1,0.3,0,0.4-0.1c0.5-0.3,1.1-0.6,1.7-1
		c0.4,0.7,0.9,1.4,1.3,2.1c0.6,1.2,1.2,2.4,1.8,3.5c0.5,0.9,1,1.8,1.5,2.7c0.4,0.7,0.4,1.5,0.5,2.2c0,0.2,0.1,0.4,0.2,0.6
		c1,1.6,1.7,3.2,2.1,5c0.2,0.9,0.3,1.9,0.5,2.8c0.1,0.6,0.3,1.2,0.4,1.9c0,0.2,0,0.4-0.1,0.5s-0.3,0-0.5,0c-0.1,0-0.2-0.1-0.4-0.3
		c0.1,0.7,0.1,1.3,0.2,2.1c-1.3,0.1-2.5,0.1-3.7,0.2c-0.1,0-0.2-0.2-0.2-0.3c-0.1-0.6-0.1-1.2-0.2-1.8c-0.8,0.2-1.5,0.2-2.3-0.3
		c0.1,0.8,0.2,1.4,0.2,2.1c0.1,1.3,0.2,2.5,0.2,3.8c0,0.4,0.1,0.5,0.6,0.5c1.7,0,3.3,0,5,0c0.6,0,0.6,0,0.6,0.6
		c-0.1,3.3-0.5,6.5-1.1,9.7c0,0.1,0,0.1-0.1,0.2c-0.9-0.2-1.9-0.4-2.8-0.5c-0.2,0-0.5-0.1-0.7-0.1c-0.4,0-0.4-0.3-0.4-0.6
		c0.2-1.3,0.4-2.7,0.7-4c0-0.1,0-0.2,0-0.3c-0.6-0.1-1.2-0.1-1.8-0.2c-0.1,0-0.2,0.2-0.3,0.3c-0.4,2-0.8,4-1.2,6
		c-0.2,0.9-0.2,0.9,0.7,1.1c1.6,0.4,3.1,0.9,4.7,1.3c0.3,0.1,0.3,0.2,0.2,0.5c-1,3-2,6.1-3.5,8.9c-0.2,0.4-0.3,0.4-0.7,0.2
		c-0.8-0.5-1.7-0.9-2.6-1.3c-0.1-0.1-0.3-0.1-0.5-0.2c0.6-1.4,1.2-2.8,1.8-4.3c-0.6-0.2-1.2-0.5-1.7-0.6c-0.1,0-0.3,0.1-0.4,0.2
		c-0.9,2-1.9,3.9-2.8,5.9c0,0,0,0.1-0.1,0.2c1.7,1,3.5,1.9,5.3,3c-0.7,1.1-1.3,2.2-2,3.2c-1.2,1.7-2.6,3.4-3.9,5.1
		c-0.2,0.3-0.4,0.3-0.6,0c-0.8-0.8-1.7-1.5-2.6-2.3c1-1.3,2-2.6,3-4c-0.6-0.4-1.1-0.8-1.6-1.2c-1.5,1.8-3.1,3.7-4.6,5.5
		c1.4,1.4,2.9,2.8,4.4,4.2c-0.3,0.4-0.6,0.6-0.8,0.9c-2.1,2.2-4.5,4-6.9,5.8c-0.2,0.2-0.4,0.1-0.5-0.1c-0.6-0.9-1.2-1.7-1.8-2.6
		c-0.2-0.3-0.2-0.5,0.1-0.7c1.1-0.8,2.2-1.7,3.2-2.5c0.3-0.2,0.3-0.4,0.1-0.6c-0.4-0.4-0.7-0.8-1.1-1.2c-1.8,1.4-3.7,2.8-5.5,4.1
		c1,1.7,2.1,3.4,3.2,5.2c-2.8,1.6-5.6,3.2-8.6,4.4c-0.3-0.7-0.6-1.5-0.9-2.2c-0.1-0.3-0.2-0.7-0.4-1.1s-0.1-0.5,0.3-0.7
		c1.1-0.5,2.2-1,3.3-1.5c0.4-0.2,0.4-0.4,0.2-0.7c-0.3-0.4-0.5-0.9-0.7-1.3c-2,0.8-3.9,1.7-5.8,2.5c0.6,1.9,1.3,3.8,1.9,5.8
		c-2.9,0.9-5.8,1.7-8.8,2.2c-0.2-1.3-0.4-2.5-0.7-3.9c0.4-0.1,0.8-0.2,1.2-0.3c0.8-0.2,1.7-0.4,2.5-0.5c0.4-0.1,0.5-0.3,0.4-0.7
		c-0.2-0.5-0.2-0.9-0.3-1.5c-0.3,0-0.5,0.1-0.8,0.1c-1.6,0.3-3.3,0.6-4.9,0.9c-0.3,0.1-0.5,0.1-0.4,0.5c0.2,1.8,0.4,3.5,0.6,5.3
		c0,0.3,0,0.5-0.3,0.5c-2.6,0.2-5.3,0.3-7.9,0.1c-0.3,0-0.5,0-0.9-0.1c0.1-1.3,0.2-2.6,0.3-3.9c0.5,0,1,0,1.4,0c0.8,0,1.7,0,2.5,0
		c0.3,0,0.4-0.1,0.4-0.4c0-0.5,0-1,0-1.5c0-0.1-0.2-0.3-0.3-0.3c-1.8-0.1-3.6-0.1-5.4-0.2c-0.3,0-0.3,0.2-0.3,0.4
		c-0.2,1.4-0.3,2.8-0.5,4.2c0,0.4-0.1,0.8-0.1,1.2c0,0.2-0.1,0.3-0.4,0.3c-3-0.4-5.9-0.9-8.8-1.8c0.4-1.2,0.7-2.5,1.1-3.7
		c0.4,0.1,0.8,0.2,1.1,0.3c1,0.2,1.9,0.4,2.9,0.6c0.3,0.1,0.5,0,0.6-0.4s0.2-0.9,0.2-1.3c0-0.1-0.1-0.3-0.2-0.4
		c-1.9-0.5-3.9-1-5.9-1.5c-0.6,1.9-1.2,3.8-1.9,5.7c-3.1-0.9-6-2.3-8.8-3.8c0.6-1.2,1.3-2.3,1.9-3.5c0.6,0.3,1.2,0.6,1.8,0.9
		c0.7,0.3,1.3,0.6,2,0.9c0.3,0.1,0.4,0.1,0.5-0.2c0.2-0.5,0.4-1,0.7-1.6c-1.8-0.9-3.6-1.9-5.5-2.8c-1,1.7-2.1,3.4-3.2,5.2
		c-0.9-0.6-1.8-1.1-2.6-1.7c-1.6-1.2-3.2-2.5-4.8-3.7c-0.3-0.2-0.3-0.4-0.1-0.6c0.7-0.8,1.4-1.6,2.1-2.4c0.2-0.3,0.4-0.2,0.7,0
		c0.9,0.8,1.8,1.5,2.7,2.2c0.3,0.2,0.4,0.2,0.6-0.1c0.3-0.4,0.6-0.9,1-1.3c-1.6-1.4-3.2-2.8-4.9-4.3c-1.4,1.4-2.9,2.8-4.3,4.3
		c-0.9-1-1.9-1.9-2.7-2.9c-1.2-1.4-2.3-2.9-3.5-4.4c-0.3-0.3-0.2-0.5,0.1-0.7c0.9-0.6,1.9-1.3,2.9-1.9c0.4,0.5,0.8,1,1.2,1.5
		c0.5,0.6,1,1.3,1.5,1.9c0.2,0.3,0.4,0.2,0.7,0c0.4-0.4,0.8-0.7,1.2-1.1c-0.5-0.7-1.1-1.4-1.6-2c-0.8-1.1-1.5-2.2-2.3-3.3
		c-0.2-0.3-0.3-0.3-0.6-0.1c-1.5,0.9-3.1,1.8-4.7,2.8c-0.1,0-0.1,0.1-0.2,0.1c-1.9-2.9-3.3-5.9-4.4-9.3c1.2-0.4,2.4-0.9,3.6-1.3
		c0.2,0.6,0.4,1.1,0.6,1.6c0.4,0.8,0.8,1.7,1.1,2.5c0.1,0.3,0.3,0.4,0.6,0.3c0.5-0.2,1-0.5,1.5-0.7c-0.9-2.3-1.7-4.4-2.6-6.7
		c-1.9,0.6-3.8,1.1-5.7,1.7c-1.2-3.6-1.8-7.3-2.1-11.1c1.2-0.1,2.4-0.1,3.6-0.2c0.3,0,0.3,0.2,0.3,0.4c0.1,1.2,0.3,2.5,0.5,3.7
		c0,0.2,0.1,0.4,0.1,0.6c0.2,0.7,0.2,0.7,0.8,0.5c0.5-0.1,0.9-0.2,1.4-0.3c-0.1-0.9-0.2-1.7-0.3-2.5c-0.2-1.5-0.3-3-0.4-4.4
		c0-0.5-0.1-1.1-0.1-1.6c0-0.3-0.1-0.4-0.4-0.4c-1.6,0-3.2,0-4.8,0c-0.1,0-0.3,0-0.4,0c-0.3,0-0.5-0.2-0.5-0.5c0.2-2,0.3-4,0.5-6
		c0-0.1,0-0.2,0-0.3c-0.2-0.1-0.4-0.1-0.5-0.2c-0.5-0.4-0.5-0.7-0.2-1.2c0.1-0.2,0.2-0.3,0.3-0.5c0.3-0.4,0.5-0.7,0.2-1.2
		c-0.2-0.3-0.2-0.8,0-1.2c0.1-0.3,0.1-0.7,0.2-1c0.4-1.3,0.9-2.5,1.7-3.6c0.8-1.1,1.1-2.3,1.6-3.5s1.1-2.5,1.6-3.7
		c0.1-0.3,0.3-0.3,0.6-0.2c0.7,0.4,1.4,0.7,2,1c0.2,0.1,0.4,0.1,0.6,0c0.6-0.3,1.2-0.6,1.7-1c0.2-0.1,0.3-0.3,0.5-0.5
		c-1.3-0.8-2.6-1.5-4-2.2c0.6-1,1.1-2,1.8-2.9c1.3-1.8,2.7-3.6,4.1-5.3c0.2-0.3,0.3-0.3,0.6-0.1c0.7,0.6,1.4,1.2,2.1,1.9
		c0.1,0.1,0.3,0.3,0.5,0.4c-1,1.3-2,2.7-3,4c0.2,0.3,0.4,0.4,0.7,0.1c1.2-1,2.4-1.9,3.8-2.6c0.2-0.1,0.4-0.3,0.5-0.5
		c0.4-0.4,0.8-0.9,1.2-1.4c-1.5-1.4-2.9-2.8-4.4-4.3c1.2-1.1,2.2-2.1,3.3-3c1.4-1.2,3-2.3,4.5-3.5c0.3-0.2,0.4-0.2,0.6,0.1
		c0.6,0.9,1.1,1.7,1.7,2.5c0.2,0.3,0.2,0.5-0.2,0.8c-1.1,0.8-2.1,1.6-3.1,2.5c-0.3,0.2-0.3,0.4-0.1,0.7c0.4,0.4,0.7,0.8,1.1,1.2
		c1.8-1.4,3.7-2.8,5.5-4.1c-1-1.7-2.1-3.4-3.1-5.1c0.7-0.7,7.2-4,8.6-4.4c0.4,0.9,0.7,1.8,1.1,2.7c0.4,1,0.4,1-0.6,1.5
		c-1,0.4-1.9,0.9-2.9,1.3c-0.3,0.1-0.3,0.3-0.2,0.5c0.2,0.4,0.5,0.8,0.7,1.3c0.1,0.3,0.3,0.1,0.5,0c1.6-0.7,3.2-1.4,4.8-2.1
		c0.2-0.1,0.4-0.2,0.7-0.3c-0.6-1.9-1.3-3.9-1.9-5.8c2.9-0.9,5.8-1.7,8.8-2.2c0.2,1.3,0.4,2.5,0.7,3.9c-0.3,0.1-0.7,0.2-1.1,0.2
		c-0.9,0.2-1.8,0.4-2.7,0.6c-0.3,0.1-0.4,0.3-0.3,0.6c0.1,0.5,0.2,1,0.4,1.5c0.3,0,0.5-0.1,0.7-0.1c1.6-0.3,3.3-0.6,4.9-0.9
		c0.4-0.1,0.5-0.2,0.5-0.6c-0.2-1.7-0.3-3.5-0.5-5.2c-0.1-0.4,0.1-0.5,0.5-0.6c2.7-0.2,5.4-0.3,8.1-0.1c0.4,0,0.5,0.1,0.5,0.5
		c-0.1,1.1-0.1,2.3-0.2,3.5c-1.4,0-2.8,0-4.3,0c0,0.7,0,1.3,0,1.9c0,0.1,0.3,0.2,0.4,0.2c1.3,0.1,2.5,0.1,3.8,0.1c0.1,0,0.1,0,0.2,0
		c0.2,0,0.4-0.1,0.4-0.3c0-0.2,0-0.5,0.1-0.7c0.1-0.6,0.5-0.8,1-0.4c0.1,0,0.1,0.1,0.2,0.2c0.1-1.1,0.2-2.2,0.3-3.2
		c0-0.4,0.1-0.8,0.2-1.2c0-0.1,0.2-0.3,0.3-0.3c3,0.4,5.9,0.8,8.8,1.8c-0.4,1.2-0.7,2.4-1.1,3.7c-0.3-0.1-0.7-0.1-1-0.2
		c-1-0.2-2.1-0.4-3.1-0.7c-0.3-0.1-0.4,0-0.5,0.3c-0.1,0.6-0.2,1.1-0.3,1.7c2.1,0.5,4.1,1.1,6.2,1.6c0.6-1.9,1.2-3.8,1.9-5.8
		c3.1,0.9,6,2.3,8.8,3.8c-0.6,1.2-1.3,2.3-1.9,3.5c-1.1-0.5-2.1-1.1-3.2-1.6c-1.2-0.5-0.9-0.5-1.4,0.5c-0.1,0.3-0.3,0.6-0.4,1
		C171,24.9,172.8,25.8,174.7,26.8z M136.9,63.4c0.3-0.1,0.4-0.1,0.6-0.1c0.8-0.3,1.6-0.2,2.4-0.1c2.1,0.3,4.2,0.7,6.3-0.2
		c0.1,0,0.2,0,0.3,0.1s0.1,0.2,0,0.3c-0.1,0.5-0.6,0.6-0.9,0.7c-0.9,0.3-1.9,0.4-2.9,0.3c-1.4-0.1-2.8-0.3-4.2-0.3
		c-1.9-0.1-3.3,0.9-4.3,2.4c-0.2,0.3-0.4,0.7-0.5,1l0.1,0.1c0.3-0.1,0.7-0.3,1-0.5c0.8-0.5,1.5-1.1,2.2-1.5c1.4-0.8,2.8-1.1,4.4-0.6
		c0.2,0.1,0.3,0.2,0.4,0.3c0.1,0.2,0.1,0.4,0.1,0.6c-0.2,0-0.4,0-0.5,0c-1.2-0.5-2.3-0.5-3.4,0.1c-0.9,0.5-1.7,1-2.5,1.6
		c-0.2,0.1-0.3,0.2-0.5,0.4c0,0,0,0.1,0.1,0.1s0.3-0.1,0.4-0.1c0.7-0.3,1.3-0.6,2-0.9c2.7-1.1,5.3-0.7,7.6,1.2
		c0.3,0.2,0.6,0.6,0.6,0.9c0,0.5-0.5,0.6-0.9,0.7c-0.9,0.3-1.8,0.6-2.6,0.9c-1,0.3-2.1,0.6-3.2,0.4c-1.3-0.2-2.5-0.6-3.5-1.6
		c-0.2-0.2-0.4-0.5-0.7-0.8c-0.2,0-0.5,0.1-0.5-0.3c0,0-0.1-0.1-0.2-0.1c-0.2,0-0.5,0-0.7-0.1c-0.5-0.1-0.7-0.4-0.5-0.9
		c0.1-0.4,0.4-0.7,0.6-1.1c0.2-0.4,0.5-0.8,0.7-1.2c-0.5,0-0.8,0.2-1.1,0.4c-0.6,0.6-1.3,1.2-2.1,1.5c-0.1,0-0.2,0.2-0.3,0.4
		c0,0.6-0.1,1.2,0,1.7c0.2,1.7,0.3,3.4,0.6,5.1c0.6,3.5,1.9,6.8,3.5,10c0.6,1.2,1.1,2.5,2.2,3.4c0.8,0.7,1.6,1.5,2.5,2.2
		c1.6,1.3,3.3,2.5,4.7,4.1c0.4,0.4,0.8,0.8,1.3,1.2c0.4,0.3,0.8,0.5,1.3,0.5c1.4,0.1,2.8,0.1,4.2,0c2-0.2,3.8-0.8,5.2-2.3
		c1.1-1.1,2.4-2.1,3.5-3.2c1-0.9,2-1.8,3-2.8c1.6-1.7,2.7-3.7,3.9-5.7c0.4-0.8,0.8-1.6,1-2.5c0.7-2.6,1.4-5.2,1.6-7.9
		c0.2-2.2,0.3-4.3,0.2-6.5c0-0.6-0.1-1.3-0.2-1.9c0,0-0.1,0-0.1,0.1c-0.2-0.2-0.4-0.4-0.6-0.6c-0.3-0.6-0.5-1.2-0.9-1.8
		c-1.3-2-3-3.4-5.1-4.3c-2.3-0.9-4.7-1.4-7.1-1.7c-1.8-0.2-3.6-0.3-5.4-0.5c-1.1-0.1-2.2-0.1-3.1-0.9c-0.1-0.1-0.3,0-0.4,0.1
		c-0.9,1-1.9,1.7-3,2.4c-0.3,0.2-0.6,0.4-0.6,0.9c0,0.1-0.1,0.3-0.1,0.4c-0.7,1-1.5,2-2.7,2.5c-1.5,0.7-2.5,1.9-3.1,3.3
		C137,62.9,137,63.1,136.9,63.4z M100.7,80.4c0.1,0,0.2,0,0.3,0c1.7-0.5,3.5-0.9,5.2-1.4c0.5-0.1,0.6-0.1,0.7,0.4
		c0.3,0.9,0.5,1.8,0.8,2.6c0.7,1.6,1.4,3.3,2.2,4.9c0.1,0.3,0.1,0.4-0.2,0.6c-1,0.5-2,1-2.9,1.5c-0.3,0.1-0.4,0.1-0.5-0.2
		c-0.3-0.6-0.5-1.1-0.8-1.7c-0.4-0.9-0.8-1.7-1.2-2.6c-0.6,0.2-1.2,0.5-1.9,0.7c0,0.2,0.1,0.3,0.1,0.5c0.8,2.3,1.9,4.4,3.2,6.5
		c0.1,0.2,0.3,0.2,0.5,0.1c0.7-0.4,1.3-0.8,2-1.1c1-0.6,2-1.1,2.9-1.6c1.7,2.4,3.4,4.8,5.1,7.2c-0.9,0.8-1.9,1.7-3,2.6
		c-1-1.3-2-2.6-3.1-3.9c-0.6,0.4-1.1,0.7-1.6,1.1c0,0.1,0.1,0.2,0.1,0.2c1.3,2.1,2.9,4,4.6,5.7c0.2,0.2,0.4,0.2,0.6,0
		c0.5-0.5,1.1-1.1,1.6-1.6c0.8-0.8,1.7-1.6,2.4-2.4c2.1,1.8,4.2,3.5,6.2,5.3c-0.7,1-1.5,2.1-2.3,3.3c-1.2-0.9-2.4-1.8-3.7-2.8
		c-0.4,0.4-0.7,0.9-1.1,1.3c-0.2,0.2-0.2,0.4,0.1,0.5c1.8,1.3,3.5,2.6,5.3,3.9c0.2,0.2,0.4,0.2,0.6-0.1c0.9-1.5,1.9-3,2.8-4.5
		c0.2-0.3,0.3-0.4,0.7-0.2c0.3,0.2,0.6,0.4,0.9,0.5c0-0.2,0-0.2,0-0.3c-0.6-0.8-1.1-1.7-1.3-2.7c0-0.1-0.2-0.2-0.3-0.3
		c-2.3-1.6-4.4-3.4-6.4-5.4c-3.5-3.5-6.3-7.5-8.3-12c-2.5-5.6-4-11.5-4.1-17.8c0-0.7,0-1.5,0-2.2c0.4,0,0.7,0,0.9,0
		c-0.1,15.1,5.9,27.1,17.8,36.3c0.1-0.2,0.1-0.2,0.1-0.2c0-2,0.4-3.8,0.7-5.8c0.1-0.5,0-1,0-1.5s-0.3-0.8-0.7-1.1
		c-1.1-0.6-1.9-1.5-2.2-2.7c-0.2-1.1-0.1-2.1,0.5-3c0.1-0.1,0.1-0.4,0-0.5c-0.7-0.9-1-1.9-1.2-3c-0.1-0.3-0.2-0.4-0.4-0.5
		c-0.3-0.1-0.7-0.3-0.9-0.6c-0.5-0.6-0.9-1.2-1.4-1.8c0-0.1-0.1-0.1-0.1-0.2c-0.7-1.3-0.9-2.7-0.1-4.1c-0.2-0.1-0.3-0.2-0.5-0.3
		c-0.7-0.3-1.1-0.8-1.4-1.4c-0.1-0.3-0.3-0.6-0.6-0.7c-1.2-1-2-2.2-2.5-3.7c-0.1-0.2-0.1-0.3-0.2-0.5c-0.4,0.1-0.8,0.1-1.2,0.2
		c-1.2,0.1-2.2-0.5-3.1-1.2c-1.1-0.8-1.7-1.8-1.9-3.1c-0.1-0.7-0.3-1-0.8-1.3c-1-0.5-1.6-1.4-1.8-2.5c-0.1-0.3,0-0.6-0.1-1
		c-0.4,0.1-0.7,0.2-0.7,0.7c0,0.3-0.1,0.6-0.1,0.9c0,0.3-0.1,0.4-0.4,0.4c-1.2-0.1-2.4-0.2-3.7-0.3c0.2-1.4,0.3-2.7,0.5-4
		c-0.7,0.3-1.4,0.5-2.1,0.8c-0.1,0-0.2,0.2-0.2,0.3c-0.1,0.5-0.2,1-0.2,1.5c-0.1,1.3-0.2,2.6-0.2,3.8c0,0.3,0.1,0.4,0.4,0.4
		c1,0,1.9,0.1,2.9,0.1c0.9,0,1.8,0.1,2.7,0.1c0,0.1,0,0.2,0,0.3c0,3.4,0.3,6.8,1.1,10.1c0.1,0.3-0.1,0.3-0.3,0.4
		c-1.1,0.2-2.2,0.4-3.3,0.7c-0.1,0-0.2,0-0.4,0c-0.3-1.8-0.6-3.7-0.9-5.5c-0.6,0.1-1.1,0.2-1.7,0.2c-0.3,0-0.4,0.2-0.3,0.5
		c0.3,1.8,0.6,3.6,0.9,5.3C100.2,78.5,100.4,79.5,100.7,80.4z M178.8,78.8C178.8,78.9,178.8,78.9,178.8,78.8c0,0.2,0.1,0.3,0.1,0.4
		c0.3,1,0.3,2-0.2,2.8c-0.3,0.6-0.4,1.3-0.5,1.9c0,0.1-0.1,0.2-0.1,0.3c-0.2,0.5-0.3,2.2-0.3,2.7c0.3,1.6,0,3.2-1,4.5
		c-0.3,0.5-0.6,1-0.9,1.6c-0.3,0.6-0.5,1.3-0.6,2c-0.1,1.3,0,2.7-0.1,4.1c0,0.7-0.2,1.4-0.3,2.2c6.3-4.6,11.1-10.3,14.2-17.2
		c3.4-7.6,4.6-15.6,3.4-23.9c-0.7,0.2-1.1-0.1-1.5-0.6c-0.1-0.1-0.2-0.3-0.4-0.4c-0.3-0.2-0.6-0.3-0.9-0.1c-0.3,0.2-0.3,0.4-0.3,0.7
		c-0.1,1.1-0.1,2.1-1.1,2.8c-0.1,0.1-0.1,0.2-0.2,0.3c-0.1,0.4-0.2,0.8-0.4,1.1c-0.6,0.9-1.3,1.7-2.5,1.7c-0.1,0-0.1,0.1-0.2,0.1
		c0.1,0.2,0.2,0.3,0.2,0.5c0.6,1.6,0.4,3.3-0.1,4.9c-0.5,1.5-1.1,3-1.8,4.5c-0.4,1.1,0.1,1.8,0.7,2.6c0.1,0.2,0.3,0.3,0.1,0.5
		c-0.1,0.1-0.3,0.2-0.5,0.2c-0.5,0-1-0.2-1.4-0.2c-0.1,0-0.2,0-0.3,0c-0.4,0.1-0.9,0.2-1.3,0.2C180.1,78.9,179.5,78.8,178.8,78.8z
		 M194.6,58.4c-0.3,0.5-0.7,0.9-1,1.3c-0.1,0.1-0.1,0.3,0,0.4c0.2,1.8,0.5,3.5,0.5,5.3c0.1,5-0.7,10-2.3,14.8
		c-1.7,4.9-4,9.4-7.2,13.4c-2.7,3.5-6,6.5-9.7,9c-0.2,0.1-0.3,0.2-0.4,0.4c-0.3,0.6-0.5,1.2-0.8,1.9c-0.2,0.4-0.4,0.7-0.6,1.1
		c-0.3,0.4-0.7,0.8-1.1,1.3c0.5,1,1.1,2.1,1.6,3.2c-0.2,0.1-0.3,0.2-0.5,0.2c-1.1,0.5-2.2,1.1-3.3,1.6c-0.3,0.1-0.4,0.3-0.3,0.6
		c0.2,0.4,0.4,0.8,0.5,1.3c0.1,0.3,0.3,0.3,0.5,0.2c1.2-0.6,2.4-1.1,3.5-1.7c0.9-0.4,1.7-1,2.7-1.5c-1.1-1.8-2.1-3.5-3.2-5.3
		c2.4-1.7,4.9-3.2,7-5.2c0.9,1,1.8,2,2.7,3c-0.5,0.4-0.9,0.9-1.4,1.3c-0.8,0.6-1.5,1.2-2.3,1.8c-0.1,0.1-0.3,0.2-0.1,0.5
		c0.3,0.5,0.7,0.9,1,1.4c2.4-1.5,4.4-3.3,6.3-5.4c-1.5-1.4-2.9-2.8-4.4-4.2c0.1-0.1,0.1-0.2,0.1-0.2c1.9-2.1,3.7-4.2,5.3-6.5
		c0.2-0.3,0.3-0.2,0.5-0.1c0.7,0.4,1.4,0.9,2,1.3c1,0.7,1,0.7,0.3,1.7c-0.8,1-1.6,2.1-2.3,3.1c0.1,0.1,0.1,0.2,0.2,0.3
		c0.3,0.3,0.7,0.6,1,0.8c0.2,0.2,0.4,0.2,0.6-0.1c1.6-1.9,3.1-3.9,4.3-6.1c0.1-0.1,0.1-0.2,0.1-0.3c-0.2-0.1-0.3-0.2-0.5-0.3
		c-1.4-0.8-2.8-1.7-4.3-2.5c-0.4-0.2-0.4-0.3-0.2-0.8c0.5-0.9,1.1-1.9,1.5-2.8c0.7-1.4,1.2-2.8,1.8-4.2c0.1-0.3,0.3-0.4,0.6-0.2
		c0.4,0.2,0.9,0.3,1.3,0.5c0.7,0.2,1.4,0.5,2.1,0.7c-0.1,0.2-0.1,0.3-0.2,0.5c-0.5,1.2-1,2.4-1.5,3.6c-0.1,0.3-0.1,0.5,0.2,0.6
		c0.4,0.2,0.8,0.4,1.2,0.5c0.2,0.1,0.4,0,0.5-0.2c0.5-1.3,1.1-2.5,1.6-3.8c0.4-1.1,0.8-2.2,1.1-3.4c-2-0.6-3.9-1.2-5.9-1.8
		c0-0.1,0-0.2,0.1-0.3c0.7-2.7,1.3-5.4,1.5-8.2c0-0.3,0.2-0.4,0.4-0.3c0.8,0.1,1.6,0.1,2.4,0.2c0.4,0,0.8,0.1,1.3,0.1
		c-0.2,1.7-0.5,3.3-0.7,4.9c0.6,0.1,1.3,0.2,1.9,0.4c0.1-0.3,0.2-0.5,0.2-0.7c0.2-0.9,0.4-1.8,0.5-2.7c0.1-1.5,0.2-3,0.3-4.5
		c0-0.3-0.1-0.4-0.4-0.4c-0.9,0-1.7-0.1-2.6-0.1c-1,0-2,0-3,0c0-0.3,0-0.4,0-0.6c0-2.3-0.2-4.7-0.5-7
		C195.5,59.3,195,58.9,194.6,58.4z M99.2,55.8c0.1-0.1,0.1-0.2,0.2-0.2c0.8-1,1.6-2,2.5-3c1.3-1.4,2.8-2.5,4.4-3.5
		c1.8-1.1,3.5-2.3,5.7-2.6c0.1,0,0.2-0.1,0.3-0.1c0.8-0.1,1.7-0.2,2.5-0.1c1,0.1,1.9,0.4,2.9,0.7c0.5,0.1,0.9,0.1,1.4-0.2
		c0.4-0.3,0.9-0.6,1.3-0.7c0.8-0.2,1.6-0.7,2.3-1.1c0.7-0.4,1.4-0.5,2.2-0.5c0.2,0,0.4,0.1,0.4,0.4c0,0.3,0,0.4-0.4,0.5
		c-1.9,0.3-3.5,1.2-4.8,2.6c-1.2,1.3-2,2.9-2.5,4.6c0,0.1,0.1,0.4,0.2,0.4c0.4,0.2,0.9,0.5,1.4,0.6c1.6,0.5,3.2,0.4,4.7-0.6
		c1.1-0.8,2.2-1.5,3.3-2.3c1.1-0.8,2.2-1.4,3.5-1.7c2.1-0.5,4.1-0.3,6,0.8c1.1,0.6,2.3,1.2,3.5,1.8s2.5,0.7,3.8,0.3
		c0.4-0.1,0.9-0.3,1.3-0.5c1.5-0.6,2.6-1.7,3.2-3.2c0.4-0.8,0.6-1.7,0.9-2.5c0.1-0.3,0-0.4-0.2-0.5c-0.6-0.3-1.2-0.3-1.7,0
		s-1,0.7-1.5,1.1c-0.9,0.8-1.7,1.7-2.5,2.5c-1.2,1.2-2.7,1.2-4.2,0.7s-2.9-1.2-4.3-1.7c-0.6-0.2-1.2-0.5-1.9-0.7
		c-0.5-0.1-0.7-0.3-0.8-0.8c0-0.1-0.2-0.3-0.3-0.3c-0.6-0.3-1.2-0.5-1.7-0.7c-1.3-0.6-2.6-1-4-0.4c-0.1,0.1-0.4,0-0.5-0.2
		c-0.1-0.1-0.1-0.4-0.1-0.5s0.1-0.3,0.3-0.4c0.7-0.7,1.4-1.5,2.2-2.2c0.9-0.7,1.9-1.3,3.1-1.2c1.6,0.1,3-0.5,4.6-0.5
		c-0.1-0.3-0.3-0.6-0.4-0.8c-0.5-1.4-1.3-2.5-2.5-3.5c-0.9-0.7-1.9-1-3.1-0.9c-0.4,0-0.6,0.2-0.9,0.5c-0.3,0.3-0.5,0.6-0.9,0.9
		c0,0.1,0.1,0.2,0.2,0.4c0.1,0.3,0.3,0.7,0.4,1c0.1,0.8,0,1.6-0.3,2.4c-0.6,1.4-1.5,2.6-2.9,3.3c-2.4,1.1-4.9,1.5-7.5,1.3
		c-2-0.2-4-0.3-6.1-0.4c-1.2-0.1-2.4,0-3.5,0.6c-0.9,0.5-1.7,1-2.6,1.6c-2.5,1.7-4.4,3.8-5.8,6.5C99.6,53.7,99.2,54.7,99.2,55.8z
		 M128,56.7c-2.6,1-5,1.1-7.3-0.1c-2.4,0.8-4.1,0-5.2-2.3c-0.1,0.3-0.2,0.5-0.3,0.7c-0.2,0.9,0.2,1.5,0.6,2.2
		c0.6,0.9,1.2,1.8,1.7,2.8c0.4,0.8,0.6,1.7,0.6,2.6c0,2.1-0.5,3.9-1.8,5.6c-0.4,0.5-0.5,1-0.4,1.6c0.4,1.5,1.3,2.7,2.5,3.7
		c0.2,0.2,0.4,0.3,0.5,0.5c0.5,0.9,1.2,1.4,2.2,1.5c1.2,0.2,2.1-0.6,2-1.7H123c-1.6,0.1-2.8-0.7-3.3-2.2c-0.2-0.6-0.1-1.1,0.3-1.5
		c0.5-0.4,0.9-0.7,1.6-0.4c0.6,0.2,0.9,0.7,1.1,1.3c0.1,0.4,0.3,0.8,0.4,1.2c0.4,0.9,1,1.2,1.8,0.8c0.2-0.1,0.4-0.2,0.6-0.4
		c0.4-0.5,0.8-1.1,1.1-1.7c0.4-0.7,0.6-1.6,0.9-2.3c0.1-0.2,0.2-0.4,0.3-0.6c-0.2,0-0.3-0.1-0.4-0.1c-0.8-0.2-1.5-0.6-1.9-1.3
		c-0.3-0.5-0.2-1.1-0.2-1.7c0-1.5,1-2.9,2.4-3.3c0.4-0.1,0.4-0.3,0.3-0.6c-0.3-1.1-0.4-2.2-0.1-3.3C127.9,57.5,127.9,57.1,128,56.7z
		 M126.3,112.2c0.3,0.2,0.5,0.4,0.7,0.5c1.8,0.8,3.6,1.6,5.5,2.4c0.4,0.2,0.5,0.1,0.6-0.3c0.6-1.7,1.2-3.3,1.8-5
		c0.1-0.3,0.3-0.4,0.6-0.3c2.3,0.8,4.6,1.5,7.1,1.8c0.3,0,0.4,0.2,0.3,0.4c-0.1,0.8-0.3,1.7-0.4,2.5c-0.1,0.4-0.1,0.8-0.2,1.3
		c-1.5-0.3-3-0.6-4.5-0.9c-0.2,0.7-0.4,1.3-0.5,2c2.3,0.7,4.6,1.1,7,1.3c0.3-2.1,0.5-4.1,0.8-6c2.6,0.1,5.1,0.1,7.7,0.2
		c0.1,1.3,0.1,2.6,0.2,4c-0.3,0-0.5,0.1-0.7,0.1c-0.8,0-1.6,0-2.5,0c-0.5,0-0.9,0-1.4,0.1c-0.1,0.5-0.1,1-0.1,1.5v0.1
		c0,0.3,0.1,0.4,0.5,0.5c2,0.1,4,0.1,6-0.1c0.6-0.1,0.6-0.1,0.5-0.6c-0.2-1.7-0.3-3.4-0.5-5.1c0-0.5,0.1-0.5,0.5-0.6
		c1.3-0.2,2.6-0.4,3.9-0.6c1.1-0.2,2.2-0.5,3.3-0.7c0.1,0.2,0.1,0.3,0.2,0.4c0.3,1,0.6,2.1,0.9,3.1c0.1,0.4,0,0.5-0.3,0.6
		c-1.1,0.2-2.3,0.5-3.4,0.7c-0.3,0.1-0.4,0.2-0.3,0.5c0.1,0.4,0.2,0.8,0.3,1.2c0.1,0.3,0.2,0.5,0.5,0.4c1.8-0.5,3.7-0.9,5.5-1.4
		c0.7-0.2,0.7-0.2,0.5-0.9c-0.5-1.5-1-3.1-1.4-4.6c-0.2-0.6-0.3-0.5,0.4-0.8s1.4-0.5,2.1-0.8c0.1,0,0.2-0.1,0.4-0.2
		c-0.2,0-0.3-0.1-0.4-0.1c-1-0.1-2-0.2-2.9-0.3c-0.5-0.1-1,0-1.5,0.1c-3.9,1.2-7.9,1.7-11.9,1.7c-4.4,0-8.7-0.6-12.9-1.8
		c-0.2,0-0.4-0.1-0.5,0c-1.2,0.5-2.5,0.6-3.8,0.5c-0.3,0-0.5,0.1-0.6,0.4c-0.3,0.8-0.6,1.5-0.9,2.3c-0.1,0.3-0.3,0.6-0.5,1
		c-1.5-0.7-2.9-1.4-4.3-2C126.9,111.1,126.6,111.6,126.3,112.2z M127.7,35.1c0-0.1,0.1-0.1,0.1-0.2c0.5-0.8,1.2-1.3,2.1-1.4
		c1.5-0.2,2.8,0.2,4,1.2c1.6,1.3,2.5,3,2.9,4.9c0.1,0.3,0.2,0.5,0.5,0.6c0.9,0.5,1.8,1,2.7,1.6c0.3,0.2,0.6,0.5,0.9,0.6
		c0.5,0.2,1,0.3,1.5,0.5c0.3,0.1,0.5,0.1,0.7-0.1c1-1.3,2.4-1.8,3.9-1.8c1.9,0,3.2,1,3.4,2.9c0.1,0.9,0.3,1.6,1,2.3
		c1.2,1.2,2.4,2.3,4.2,2.6c0.5,0.1,0.6,0,0.5-0.5c0-0.1-0.2-0.2-0.3-0.2c-1-0.3-2-0.6-2.6-1.5c-0.4-0.6-0.8-1.3-1.1-2
		c-0.7-1.5-0.9-3.2-0.8-4.8c0-0.7,0.1-1.4,0.2-2.1c-0.4,0-0.8,0-1.1-0.1c-1.1,0-1.7-0.7-2.1-1.5c-0.2-0.4-0.5-0.7-0.8-0.9
		s-0.4-0.1-0.6,0.1c-0.6,0.4-1.2,1-1.8,1.2c-1.3,0.4-2.4,0-3.3-0.9c-0.5-0.5-0.9-0.8-1.5-1.1c-1.3-0.6-2.2-1.6-2.4-3.1
		c0-0.1-0.1-0.3-0.2-0.4c-1-0.5-2-0.9-3-1.4c-1.3-0.6-2.7-1.1-3.4-2.5c0-0.1-0.3-0.1-0.3-0.1c-0.4,0.3-0.8,0.6-1.1,1
		c-0.7,0.9-0.9,2-0.6,3.1c0.1,0.5,0,0.8-0.4,0.9c-0.9,0.2-1.7,0.7-2.4,1.3c-0.2,0.2-0.4,0.4-0.6,0.6
		C126.2,34.4,126.9,34.8,127.7,35.1z M156.9,15.2c-0.2,1.7-0.4,3.3-0.7,4.9c-0.1,0.7,0.1,1,0.6,1.3c0.2,0.2,0.5,0.3,0.8,0.4
		c0.8,0.3,1.5,0.5,2.3,0.7c0.8,0.3,1.5,0.7,2,1.4c0.2,0.3,0.4,0.3,0.7,0.3s0.7-0.1,1-0.1c2.1,0.1,3.8,1.1,5.3,2.5
		c0.5,0.4,1,0.8,1.5,1.2c1.1,0.7,2.1,1.3,3.2,1.9c0.2,0.1,0.3,0.2,0.5,0.2c1.5,0.1,2.9,0.6,4,1.7s2.1,2.3,3.4,3.1
		c0.7,0.4,1.3,1,2,1.4c0.4,0.3,0.8,0.5,1.3,0.5c0.3,0,0.5-0.4,0.8-0.6c0.3-0.2,0.5-0.4,0.7-0.7c0.5-0.4,1-0.9,1.5-1.3
		c0.1,0.1,0.2,0.2,0.2,0.3c0.9,1.1,1.7,2.2,2.6,3.3c0.1,0.1,0.3,0.2,0.4,0.2c0.5-0.3,1.1-0.7,1.6-1c-1.4-2.2-3-4.1-4.7-5.9
		c-0.2-0.2-0.4-0.2-0.6,0c-0.5,0.4-0.9,0.9-1.4,1.3c-0.9,0.9-1.8,1.8-2.7,2.6c-2.1-1.8-4.2-3.6-6.2-5.3c0.7-1.1,1.5-2.1,2.3-3.3
		c1.2,0.9,2.4,1.8,3.7,2.8c0.4-0.4,0.7-0.9,1.1-1.3c0.2-0.2,0.2-0.4-0.1-0.5c-1.8-1.3-3.5-2.6-5.3-3.9c-0.3-0.2-0.4-0.1-0.6,0.1
		c-0.9,1.5-1.9,3-2.8,4.5c-0.2,0.3-0.3,0.4-0.7,0.2c-1.5-0.9-3-1.7-4.6-2.5c-0.6-0.3-1.3-0.6-2-0.9c0.5-1.3,1-2.5,1.5-3.8
		c1.5,0.7,2.9,1.4,4.3,2c0.3-0.5,0.5-1,0.8-1.5c0.1-0.2,0.1-0.4-0.1-0.5c-0.1-0.1-0.2-0.2-0.4-0.2c-1.9-0.8-3.7-1.6-5.6-2.5
		c-0.4-0.2-0.5,0-0.6,0.3c-0.6,1.6-1.2,3.3-1.7,4.9c-0.1,0.4-0.3,0.5-0.7,0.3c-2.2-0.7-4.5-1.4-6.8-1.7c-0.2,0-0.4-0.1-0.6-0.1
		c0.2-1.4,0.5-2.7,0.7-4.1c1.5,0.3,3,0.6,4.5,0.9c0.2-0.6,0.3-1.2,0.5-1.7c0-0.1-0.1-0.3-0.2-0.3c-0.6-0.2-1.2-0.4-1.8-0.5
		C160.2,15.8,158.6,15.5,156.9,15.2z M202.4,58.4c0-0.1,0.1-0.2,0.1-0.3c-0.1-0.8-0.1-1.5-0.2-2.3c-0.4-2-1.1-3.8-2.5-5.3
		c-0.1-0.1-0.2-0.2-0.2-0.3c-0.2-0.7-0.8-1.2-1.3-1.6c-1.5-1.4-2.9-2.7-4.5-4c-1.2-1-2.5-1.8-3.9-2.4c-1.8-0.7-3.7-1.3-5.7-1.4
		c-2.3-0.2-4.6-0.5-6.8-0.8c-2-0.2-3.9-0.8-5.6-2.1c-0.5-0.4-1.1-0.8-1.6-1.2c-0.2-0.2-0.3-0.1-0.5,0c-1.5,0.8-3,1-4.6,0.5
		c-0.6-0.2-1.3-0.3-2-0.2c-0.9,0.1-1.7,0.4-2.5,0.7c-1,0.4-1.9,0.9-2.8,1.3c-1,0.5-2,0.8-3.1,0.8c-0.3,0-0.5,0-0.9,0
		c0.2,0.2,0.3,0.3,0.5,0.4c1,0.7,2.1,0.9,3.2,0.9c1.4,0,2.8-0.1,4.2-0.2c0.9,0,1.8,0,2.6,0.5c0.6,0.4,1.1,0.3,1.7,0.1
		c0.9-0.3,1.9-0.6,2.8-1c1.8-0.6,3.6-0.8,5.5-0.3c1.7,0.5,3.5,0.5,5.2,0.5s3.3,0.3,4.8,0.9c0.5,0.2,0.9,0.5,1.4,0.6
		c1.1,0.2,2,0.5,3,1c1.7,0.9,2.8,2.4,4,3.8c0.3,0.3,0.6,0.6,0.9,0.9c0.4,0.6,0.7,1.2,1.1,1.8c0.4,0.7,0.9,1.5,1.4,2.2
		c0.2,0.3,0.5,0.6,0.7,0.9c0.8,1.4,2,2.5,3.3,3.5c0.2,0.1,0.4,0.2,0.6,0.4c0.2,0.2,0.5,0.4,0.7,0.6c0.3,0.3,0.6,0.5,1,0.8
		C202.2,58.3,202.3,58.4,202.4,58.4z M167.2,83.2c-0.1,0.1-0.2,0.1-0.2,0.2c-0.2,0.3-0.3,0.6-0.5,0.8c-1.3,2.3-3,4.3-5,6
		c-1.6,1.4-3.1,2.9-4.6,4.4c-0.4,0.4-0.8,0.8-1.3,1c-0.9,0.4-1.7,0.7-2.6,1c-1.6,0.5-3.3,0.4-5,0.4s-2.9-0.7-4-1.8
		c-1.4-1.5-3-2.8-4.6-4c-1.1-0.8-2.2-1.7-3.1-2.8c-1.5-1.7-2.4-3.8-3.4-5.8c0-0.1,0-0.2-0.1-0.2l-0.1,0.1c0,0.4,0,0.8,0,1.2
		c0,0.4-0.1,0.9,0.1,1.3c0.6,2,1.3,3.9,2.4,5.6c1,1.5,2.1,3,3.3,4.3c1.1,1.3,2.4,2.6,3.9,3.5c0.7,0.4,1.3,0.8,2.1,0.4
		c0.1,0,0.2-0.1,0.3-0.1c1.4-0.3,2.8-0.4,4.1,0.5c0.1,0.1,0.2,0.1,0.3,0c1-0.4,1.9-0.2,2.8,0.1c0.2,0.1,0.4,0,0.6,0
		c1-0.5,2-0.9,3-0.9c1-0.1,1.8-0.6,2.6-1.1c1.2-0.9,2.3-1.9,3.3-3c0.8-0.9,1.7-1.8,2.5-2.7c1.5-1.7,2.8-3.4,4-5.3
		c0.2-0.3,0.2-0.5,0.1-0.9C167.8,84.6,167.5,83.9,167.2,83.2z M118.7,48.3c-0.8-0.2-1.6-0.4-2.5-0.6c-0.5-0.1-1.1-0.2-1.6-0.3
		c-1.4-0.1-2.8,0.2-4,0.7s-2.4,1.2-3.5,1.8c-3.2,1.9-5.7,4.4-7.6,7.6c-0.1,0.2-0.2,0.3-0.3,0.5c0.1,0,0.2,0,0.3,0
		c1-0.4,2-0.8,2.8-1.6c0.9-1,1.7-2.1,2.6-3.1c0.7-0.9,1.5-1.6,2.5-2.2c0.7-0.4,1.3-0.9,2-1.3c0.6-0.3,1.2-0.6,1.8-0.9
		c0.2-0.1,0.6-0.1,0.8,0c0.2,0.1,0.3,0.4,0.4,0.6c0,0.1-0.2,0.4-0.4,0.4c-0.4,0.2-0.8,0.2-1.2,0.4c-1,0.4-2.1,1.6-1.7,2.9
		c0.2,0.6,0.6,1.3,1.1,1.8c0.7,0.8,1.7,1.1,2.6,1.6c0.7,0.4,1.2,1,1.5,1.8c0.5,1.4,0.3,2.8-0.3,4.2c-0.6,1.4-2.5,2.8-4.1,2.4
		c0,0-0.1,0-0.2,0c0.1,0.8,0.2,1.5,0.8,2.1c0.4,0.4,0.9,0.8,1.4,1.1c1.2,0.7,2.7,0.5,3.4-0.7c0.4-0.6,0.8-1.3,1.1-1.9
		c1.4-3,0.5-5.3-1.4-7.7c-0.9-1.1-1.3-2.4-0.8-3.8c0.1-0.4,0.3-0.7,0.8-0.7c0.7,0,1.3,0.1,1.6,0.9c0.4,1.1,1.3,1.3,2.3,1.4
		c0.1,0,0.3,0,0.5-0.1c-0.6-0.6-1-1.2-1.8-1.5c-0.3-0.1-0.6-0.3-0.8-0.5c-0.1-0.2-0.2-0.5-0.2-0.7c0.1-0.6,0.3-1.1,0.5-1.6
		C117.7,50.3,118.2,49.3,118.7,48.3z M166.1,42.7c0.2,0.3,0.5,0.6,0.7,0.9c1.1,1.1,1.8,2.4,2.2,3.9c0.2,0.7,0.3,1.5,0.7,2.1
		c0.5,0.9,0.7,1.9,0.8,3c0,0.4,0.2,0.6,0.5,0.7c1.1,0.5,2.2,0.5,3.3,0.3c0.3,0,0.7-0.2,1-0.5c0.6-0.6,1.2-0.5,1.6-0.1
		c0.6,0.4,1.1,0.9,1.7,1.3c0.2,0.1,0.4,0.2,0.6,0.2c1.1-0.1,1.9,0.3,2.6,1.2c0.2,0.3,0.5,0.6,0.7,0.9c0.5,0.6,1.8,1,2.5,0.8
		c0.2,0,0.3-0.1,0.5-0.2c-1.2-1.7-0.9-4.8,0.6-6.7c-0.3-1.1-1.3-1.5-2.2-2s-1.9-0.6-2.9-0.6c-0.5,0-1.1,0-1.6,0.2
		c-0.6,0.2-1.1,0.3-1.7,0.3c-0.6,0-1.2-0.1-1.7-0.2c-1.8-0.3-3.6-0.8-5-2c-1.1-0.9-2.2-2-3.2-3C167.1,43,166.6,42.8,166.1,42.7z
		 M139.1,28.2c0.2,0.4,0.6,0.5,1,0.5c1.9,0.2,3.3,1.1,4,3c0.3,0.9,0.9,1.4,2,1.4c0.9,0,1.7,0.4,2.2,1.3c0.2,0.4,0.5,0.9,0.8,1.3
		c0.7,1,2.6,1,3.1-0.2c0.2-0.6,0.5-1.3,0.7-1.9c0.6-1.8,0.6-3.6,0.1-5.4c-0.1-0.2-0.1-0.3-0.4-0.3c-1.9-0.1-3-2.2-2.1-3.9
		c0.1-0.2,0.1-0.3,0.2-0.5c-1.6-0.4-3.1-0.4-4.5,0.2c-1.1,0.5-2.2,1-3.2,1.7C141.7,26.3,140.5,27.2,139.1,28.2z M188.6,46.8
		c-0.7-0.8-1.3-1.5-2-2.2c-0.2-0.2-0.3-0.5-0.6-0.7c-1.2-1.1-2.6-1.9-4.2-2.1c-1.3-0.2-2.5-0.2-3.8-0.2c-1.3-0.1-2.6-0.2-3.9-0.5
		c-1.2-0.3-2.4-0.5-3.6-0.2c-1.1,0.3-2.2,0.6-3.4,0.9c0.4,0.2,0.7,0.4,0.9,0.6c0.8,0.7,1.5,1.5,2.2,2.2c0.9,0.9,1.9,1.7,3.1,2.2
		c0.9,0.3,1.9,0.5,2.8,0.7c0.9,0.1,1.8,0.3,2.7,0c1.1-0.3,2.2-0.4,3.3-0.1c1.4,0.3,2.7,0.6,4.2,0.5C187.2,47.7,188,47.4,188.6,46.8z
		 M155,101.4c0,0,0,0.1-0.1,0.1c0.1,0.1,0.2,0.2,0.3,0.2c1.3,0.7,2.6,1.4,3.7,2.5c1,1,2.2,1.8,3.5,2.3c1.1,0.4,2.2,0.6,3.4,0.8
		c1.2,0.2,2.5,0.2,3.7-0.3c2.4-0.9,3.5-2.8,4.2-5.1c0.5-1.6,0.6-3.3,0.7-5c0-0.7-0.1-1.4-0.1-2.2c0.1-1.1,0.5-2.1,1.1-3
		c0.7-1,1.3-2,1.4-3.2c0.1-0.5,0-1.1,0-1.7c-0.1,0-0.1,0-0.1,0c-0.4,0.4-0.8,0.8-1.3,1.1c-0.6,0.5-1,1.1-1.2,1.8
		c-0.2,0.6-0.4,1.2-0.6,1.8c-0.6,1.2-1,2.3-1.1,3.7c0,0.5,0,0.9-0.1,1.4c-0.1,1.5-0.1,3-0.7,4.4c-0.3,0.7-0.7,1.4-1.1,2.1
		c0,0.1-0.1,0.1-0.2,0.1c-0.6,0.1-1.3,0.4-1.9,0.4c-1.2-0.1-2.2-0.6-3.3-1.1c-1.8-0.9-3.7-1.8-5.5-2.7c-2-0.9-4.1-0.9-6.1,0
		c-0.1,0-0.2,0.1-0.3,0.2c0.2,0.3,0.4,0.5,0.8,0.4c0.2-0.1,0.4-0.1,0.6-0.1c1.8-0.1,3.3,0.6,4.7,1.7s2.9,2.2,4.7,2.8
		c1.8,0.6,3.7,1,5.6,0.5c0.1,0,0.3,0,0.4,0c-0.1,0.6-0.9,1.3-1.5,1.3c-0.8,0-1.7,0-2.5-0.1c-2.9-0.4-5.2-2-7.5-3.7
		C157.5,102,156.3,101.5,155,101.4z M131.3,25.4c0.3,0.5,0.5,0.9,0.7,1.3c0.1,0.3,0.3,0.3,0.6,0.2c3.4-1.5,6.9-2.7,10.5-3.3
		c0.9-0.1,1.7-0.4,2.6-0.8c1.9-0.9,3.9-1.1,5.9-0.3c0.1,0,0.2,0.1,0.3,0.1c0.8-0.2,1.3-0.7,1.7-1.5c-1.8,0-3.4,0-5.2,0
		c-0.1-1.4-0.1-2.7-0.2-4.1c1.6,0,3.1,0,4.7,0c0-0.6,0-1.2,0-1.8c0-0.1-0.2-0.3-0.3-0.3c-2-0.1-4.1-0.1-6.1,0.1
		c-0.4,0-0.6,0.2-0.5,0.6c0.2,1.7,0.3,3.4,0.5,5.1c0,0.4-0.1,0.6-0.5,0.6c-0.3,0-0.6,0-0.8,0.1c-2,0.4-4,0.7-6,1.1
		c-0.3,0.1-0.4,0-0.5-0.3c-0.2-0.9-0.5-1.8-0.8-2.7c-0.3-0.9-0.3-0.9,0.6-1.1c0.1,0,0.2,0,0.3-0.1c1-0.2,2-0.5,3.1-0.7
		c-0.2-0.7-0.3-1.3-0.5-2c-0.2,0-0.4,0-0.5,0.1c-1.9,0.5-3.7,1-5.6,1.4c-0.4,0.1-0.5,0.3-0.4,0.7c0.2,0.7,0.5,1.5,0.7,2.2
		c0.3,1,0.6,2.1,1,3.1C134.9,24,133.1,24.7,131.3,25.4z M148.7,101.1c0-0.5-0.1-0.8-0.1-1.2c0-0.1-0.1-0.1-0.1-0.2
		c-0.5-0.2-1.1-0.4-1.6-0.5c-1-0.1-2,0.1-2.9,0.5c-1.6,0.7-3.2,1.4-4.8,2.3c-1.7,1-3.5,1.9-5.3,2.7c-0.9,0.4-1.9,0.7-2.9,0.3
		c-0.3-0.1-0.6-0.3-0.8-0.5c-0.7-0.7-0.9-1.7-1-2.7c-0.1-1.3-0.1-2.7,0.1-4.1c0.1-1.2,0.1-2.4-0.1-3.6c-0.2-1.4-0.8-2.4-2-3.1
		c-1-0.5-1.9-1.2-2.3-2.3c0,0,0,0-0.1-0.1c0,0.1-0.1,0.3-0.1,0.4c-0.1,1.3,0.5,2.1,1.6,2.7c0.6,0.3,1.2,0.7,1.7,1.1
		c0.5,0.4,0.7,1,0.8,1.6c0,0.2-0.1,0.4-0.3,0.5c-0.1,0.1-0.3-0.1-0.5-0.1c-0.1,0-0.2-0.1-0.3-0.2c-0.2,0.9-0.3,1.6-0.4,2.4
		c-0.2,1.5-0.6,3-0.4,4.6c0.1,1.7,1,3,2.1,4.2c1,1,2.2,1.6,3.6,1.8c2.2,0.4,4.2,0,6.1-1.2c1.2-0.7,2.4-1.5,3.7-2.1
		c0.9-0.5,1.9-0.8,2.8-1.1c0.1,0,0.3-0.2,0.3-0.3c0.1-0.4,0.1-0.8,0.1-1.2c-0.3,0.1-0.7,0.2-1,0.4c-1.3,0.7-2.5,1.4-3.8,2
		c-1,0.5-2.1,1-3.1,1.5c-0.9,0.5-1.8,0.6-2.8,0.7c-0.3,0-0.5-0.1-0.8-0.2c-0.1,0-0.2-0.2-0.2-0.2c0-0.1,0.1-0.2,0.2-0.3
		c0.4-0.1,0.9-0.2,1.3-0.4c0.7-0.2,1.4-0.3,2-0.7c2.1-1.1,4.2-2.2,6.4-3.3c1.2-0.6,2.4-1,3.8-0.6
		C147.9,101.1,148.3,101.1,148.7,101.1z M177.2,65.6c0.3-0.5,0.7-0.9,0.9-1.4c0.4-0.7,1.8-1.4,2.7-1.3c0.8,0.1,1.5,0.4,2.2,0.9
		c0.7,0.4,1.4,0.7,2.2,0.8s1.5-0.3,1.8-1.1c-0.3,0-0.6,0.1-0.9,0c-1,0-2-0.3-2.6-1.2c-0.5-0.6-0.8-1.4-1.2-2.1
		c-0.5-0.8-0.6-1.7-0.7-2.6c0-0.2-0.1-0.4-0.2-0.6c-0.1-0.2-0.3-0.4-0.4-0.6c-0.4-0.5-0.9-0.8-1.5-0.7c0.1,0.4,0.2,0.8,0.3,1.2
		c0.3,1.1,0,2-0.6,2.8c-0.1,0.1-0.3,0.2-0.5,0.3c-0.1-0.1-0.2-0.3-0.3-0.4c-0.1-0.1-0.1-0.3-0.2-0.4c-0.3-1-0.8-1.8-1.6-2.5
		c-0.2-0.2-0.4-0.2-0.7,0.1c-0.6,0.7-1.4,1.2-2.3,1.2c-1.3,0.1-2.4-0.1-3.6-0.8c-0.4,0.9,0,1.7,0,2.4c0.1,1.8,0.4,3.6,0.7,5.5
		c0.3-0.3,0.5-0.5,0.7-0.6c0.5-0.3,1-0.8,1.5-0.9c1.4-0.1,2.6,0.4,3.7,1.3C176.8,65.2,177,65.4,177.2,65.6z M152,39.5
		c0,0.1,0,0.3-0.1,0.4c-0.2,1.8,0.3,3.5,1.1,5.1c0.6,1.3,1.7,2.1,3.1,2.3c1.1,0.2,2.2,0.2,3.2,0c1-0.1,2-0.4,3-0.4
		c1.7,0,3.3,0.3,4.8,1.1c0.3,0.2,0.6,0.3,1,0.5c-0.3-1.5-0.8-2.8-1.7-3.8c-0.3-0.4-0.7-0.8-1-1.2c-1-1.1-2.1-1.8-3.6-1.8
		c-1.6,0-3.3,0.1-4.9,0.2c-1.3,0.1-2.5-0.2-3.5-1C153,40.5,152.5,40,152,39.5z M168.5,59.8c0.1,0,0.1-0.1,0.2-0.1
		c0-0.1,0.1-0.3,0.1-0.4c-0.1-0.6-0.2-1.1-0.2-1.7c-0.2-1.7-1.1-2.9-2.3-3.9c-0.8-0.7-1.9-1.2-3-1.3c-1.4-0.2-2.8-0.5-4.2-0.8
		c-0.9-0.2-1.8-0.4-2.4-1.1c-0.4-0.5-0.9-0.5-1.5-0.6c-1.9-0.3-3.4-1.3-4.6-2.9c-0.1-0.1-0.3-0.2-0.5-0.4c-0.1,0.2-0.1,0.3-0.2,0.4
		c-0.5,1.8-1.3,3.4-2.2,4.9c-0.2,0.4-0.2,0.6,0.2,0.8c0.2,0.1,0.3,0.2,0.5,0.2c1,0.1,2.1,0.3,3.1,0.4c3.1,0.2,6.2,0.6,9.2,1.4
		c2.9,0.8,5.5,2.2,7.3,4.7C168.3,59.5,168.4,59.7,168.5,59.8z M120.5,24.8c-2.4,1.5-4.4,3.3-6.4,5.4c1.5,1.4,2.9,2.8,4.4,4.2
		c-0.2,0.3-0.4,0.4-0.5,0.6c0.2,0,0.3,0,0.5,0c1-0.3,2.1-0.6,3.1-0.9c0.1,0,0.3-0.1,0.4-0.2c1.8-1.6,3.7-3,5.7-4.2
		c0.1-0.1,0.3-0.2,0.3-0.3c0.4-1,0.7-2,1.4-2.7c-0.7-1.3-1.3-2.5-2-3.8c1.1-0.5,2.1-1,3.1-1.4c1.3-0.6,1.3-0.7,0.6-2
		c0-0.1-0.1-0.1-0.1-0.2c-0.1-0.3-0.3-0.3-0.6-0.2c-1.2,0.6-2.5,1.1-3.7,1.7c-0.8,0.4-1.6,0.9-2.5,1.4c1.1,1.8,2.1,3.5,3.2,5.3
		c-2.4,1.7-4.9,3.2-7,5.2c-0.9-1-1.8-2-2.7-3c0.4-0.4,0.8-0.8,1.2-1.1c0.8-0.7,1.7-1.3,2.5-2c0.1-0.1,0.4-0.2,0.2-0.5
		C121.2,25.7,120.8,25.3,120.5,24.8z M173.8,87.2C173.8,87.2,173.8,87.1,173.8,87.2c-0.9,1-1.6,2.1-2.4,3.1
		c-0.6,0.8-1.3,1.7-1.9,2.5c-0.2,0.3-0.5,0.6-0.7,0.9c-0.2,0.2-0.5,0.2-0.7,0s-0.1-0.4,0-0.6c0.9-1.1,1.7-2.2,2.6-3.2
		c1.1-1.2,1.8-2.6,2.5-4c0.1-0.2,0.1-0.4,0.2-0.6c0,0-0.1,0-0.1-0.1c-0.1,0.2-0.3,0.3-0.4,0.5c-0.3,0.4-0.6,0.9-1,1.3
		c-0.1,0.1-0.3,0.1-0.5,0.1c0-0.2,0-0.3,0-0.5c0.4-0.8,0.9-1.5,1.3-2.3c0.1-0.2,0.2-0.4,0-0.6c-0.5-0.5-0.9-1.1-1.5-1.7
		c-0.8,1.5-1.6,3.1-2.5,4.5c-0.9,1.5-1.9,2.9-3,4.2c-1.1,1.3-2.3,2.6-3.5,3.8c-1.2,1.2-2.5,2.4-3.8,3.6c0.6,0.2,1.2,0.4,1.8,0.5
		c0.1,0,0.3-0.1,0.5-0.2c1-0.8,1.9-1.6,2.9-2.5c0.3-0.3,0.6-0.6,0.9-0.9c0.1-0.1,0.3-0.1,0.4,0c0.1,0.1,0.1,0.3,0.1,0.4
		c-0.1,0.2-0.2,0.4-0.4,0.6c-1,0.9-2,1.9-3,2.8c-0.3,0.3-0.3,0.4,0,0.6c0.3,0.1,0.5,0.3,0.8,0.4c0.2,0,0.5,0,0.6-0.1
		c0.7-0.5,1.3-1.1,2-1.6c1.4-1.4,2.8-2.7,4.1-4.2c0.8-0.9,1.5-1.9,2.2-2.9c0.8-1.1,1.6-2.2,2.3-3.3
		C173.7,87.6,173.7,87.4,173.8,87.2z M138.9,107.6c7.6,2.1,15.3,2.1,22.9,0.1c-1.8-0.6-3.1-2.1-4.5-3.2c-0.2,0.2-0.3,0.5-0.5,0.6
		c-0.5,0.5-1,1.1-1.7,1.1c-0.8,0-1.6-0.1-2.3-0.4c-0.5-0.1-0.8-0.2-1.2,0.1c-1.2,0.9-4.3,1-5.4-1.1c-0.3-0.5-0.6-0.5-1-0.4
		c-1.1,0.3-2.2,0.7-3.2,1.3c-0.9,0.5-1.7,1-2.5,1.6C139.3,107.4,139.1,107.5,138.9,107.6z M172.2,30.2C172.1,30,172,30,172,30
		c-0.1-0.1-0.2-0.2-0.4-0.2c-1.6-0.8-2.9-1.9-4.2-3.1c-0.8-0.7-1.7-1.2-2.7-1.5c-1.5-0.5-3.4,0.3-4,1.7c-0.3,0.8-0.6,1.6-0.8,2.4
		c-0.3,1.5-0.4,3-0.6,4.5c0,0.3-0.1,0.7-0.1,1c0,0,0.1,0,0.1,0.1c0.2-0.2,0.4-0.4,0.7-0.5c0.9-0.7,1.7-1.5,2.7-2.1
		c0.9-0.6,1.9-0.9,2.9-0.7c1.3,0.2,2.6,0.2,3.8-0.2C170.3,31,171.2,30.6,172.2,30.2z M110.3,42.7c0,0.1,0.1,0.1,0.1,0.2
		c0.2,0,0.3,0,0.5,0c2,0.1,4.1,0.1,6.1,0.2c2.5,0.2,5,0.2,7.4-0.7c1.5-0.6,2.5-1.6,3.3-2.9c0.1-0.2,0.1-0.3-0.2-0.4
		c-1.1-0.3-2.1-0.8-3.2-0.9c-2.6-0.4-5.1-0.1-7.6,0.8c-1.4,0.5-2.8,1.2-4.1,1.9C111.8,41.3,111.1,42.1,110.3,42.7z M129.4,88.1
		c-0.5,0.5-0.6,0.6-0.4,1.2c0.1,0.2,0.2,0.4,0.2,0.6c0.5,1.9,1.4,3.6,2.4,5.1c1.1,1.7,2.5,3.2,4,4.6c0.6,0.6,1.3,1.1,2,1.6
		c0.3,0.2,0.5,0.2,0.8-0.1c-0.7-0.7-1.4-1.3-2.1-2c-0.2-0.2-0.4-0.5-0.6-0.8c-0.1-0.1-0.1-0.3,0-0.4s0.2-0.1,0.4-0.1
		s0.5,0.1,0.6,0.2c0.7,0.6,1.5,1.2,2.2,1.8c0.5,0.5,1,0.7,1.7,0.2c0.4-0.3,0.9-0.5,1.4-0.7c-4.7-3.6-8.3-8-10.2-13.8
		c-0.4,0.4-0.8,0.7-1.2,1.1c-0.3,0.2-0.3,0.4-0.2,0.7c0.5,1.2,0.9,2.4,1.3,3.6c0.2,0.5,0.4,0.9,0.5,1.4c0,0.1-0.1,0.4-0.2,0.5
		c-0.1,0.1-0.3-0.1-0.5-0.2s-0.3-0.3-0.4-0.5C130.6,90.9,130,89.5,129.4,88.1z M171,36.3l-0.1,0.1c0.1,0.2,0.3,0.4,0.4,0.5
		c1.1,1,2.4,1.8,3.8,2c2.2,0.4,4.5,0.6,6.7,0.9c1.7,0.2,3.3,0.5,5,0.8c2.5,0.5,4.8,1.8,6.9,3.1c0.2,0.1,0.3,0.2,0.5,0.4
		c1.6,1.5,3.3,3,4.9,4.5c0.2,0.2,0.4,0.3,0.6,0.5l0.1-0.1c-0.2-0.4-0.4-0.8-0.6-1.3c-0.6-1.3-1.5-2.4-2.4-3.4
		c-0.7-0.8-1.5-1.5-2.3-2.1c-1-0.8-2-1.6-3.1-2.2c-1.4-0.7-2.9-1.3-4.4-1.9c-1.3-0.5-2.7-0.5-4.1-0.7c-0.5-0.1-1,0.1-1.5,0.1
		c-2.2,0.1-4.3,0.1-6.5,0.1c-1.3,0-2.6-0.2-3.6-1.1C171.3,36.4,171.1,36.3,171,36.3z M187.9,48.2c0,0.1,0,0.1,0.1,0.1
		s0.2,0.1,0.2,0.1c1.4,0.6,2.5,1.6,3.3,2.9c1,1.7,2,3.5,3,5.2c0.7,1.2,1.7,2.2,2.9,2.9c0.4,0.3,0.8,0.3,1.3,0.1
		c0.2-0.1,0.4,0,0.6,0.1c0.5,0.2,1,0.4,1.6,0.5c0.4,0.1,0.8-0.1,1-0.5s-0.1-0.6-0.4-0.8c-0.8-0.6-1.6-1.2-2.4-1.9
		c-2-1.7-3.5-3.8-4.9-6c-1.1-1.7-2.1-3.5-3.5-5c-1-1-2-2-3.3-2.6c-0.3-0.1-0.6-0.2-0.9-0.4l-0.1,0.1c0.6,0.8,1.3,1.5,2,2.2
		c0.4,0.4,0.9,0.6,1.3,0.8c0.1,0.1,0.3,0.2,0.3,0.2c0,0.1-0.1,0.3-0.2,0.4C189.2,47.3,188.6,47.7,187.9,48.2z M178.2,32.8
		c-0.8-1.4-2.6-2-3.9-2l0,0c-1,0.3-2,0.5-2.9,0.9c-1.6,0.6-3.3,1.2-5.1,0.8c-1.3-0.3-2.6,0-3.7,0.8c-0.6,0.4-1.2,0.9-1.7,1.4
		c-1,1-2,2-3.1,3.2c0.3-0.1,0.5-0.1,0.7-0.2c0.8-0.3,1.6-0.7,2.5-1c1.3-0.4,2.6-0.8,4-0.3c1.7,0.5,3.2,0.3,4.7-0.7
		c0.7-0.5,0.7-0.5,0.3-1.3c-0.2-0.3,0-0.5,0.3-0.6c0.9-0.1,1.7-0.3,2.6-0.5c1.6-0.3,3.1-0.7,4.8-0.5C177.8,32.8,178,32.8,178.2,32.8
		z M177.3,69.2c0.2,0.1,0.4,0.1,0.5,0.2c1.5,0.4,2.7,1.5,3,3c0.1,0.6,0.2,1.3,0.2,1.9c0.1,1.1,0.1,2.1,0.9,3
		c0.1,0.1,0.2,0.2,0.3,0.3c0-0.5-0.1-0.9,0-1.2c0.3-1.5,0.8-2.9,1.5-4.3c0.5-1,0.8-2,0.9-3.1c0.1-0.8,0.1-1.7-0.3-2.5
		c-0.2-0.4-0.5-0.8-0.9-1.1c-0.3-0.3-0.6-0.4-1-0.6c-0.5-0.2-0.9-0.5-1.4-0.7c-1.2-0.4-2.6,0.7-2.6,1.9c0,1-0.1,1.8-0.8,2.6
		C177.6,68.7,177.5,68.9,177.3,69.2z M138.7,52.4L138.7,52.4c-0.1-0.2-0.2-0.2-0.3-0.3c-0.7-0.4-1.5-0.8-2.2-1.2
		c-0.8-0.5-1.7-0.8-2.7-0.9c-1.9-0.2-3.7,0.2-5.3,1.4c-0.8,0.6-1.6,1.2-2.5,1.8c-1.5,1.2-3.2,2-5.1,1.9c-0.1,0-0.2,0-0.4,0.1
		c0.3,0.2,0.5,0.5,0.8,0.6c0.9,0.4,1.8,0.6,2.7,0.7c1.7,0.1,3.3-0.5,4.8-1.3c0.6-0.3,1.1-0.7,1.7-1.1c0.7-0.5,1.5-1,2.5-1.1
		c1.3-0.2,2.7-0.3,4-0.4C137.4,52.4,138,52.4,138.7,52.4z M174.9,86.8C175,86.8,175,86.8,174.9,86.8c0.2,0,0.2-0.1,0.3-0.1
		c0.7-0.4,1-1.1,1.4-1.7c0.8-0.9,0.9-2,0.5-3.1c-0.3-0.9-0.8-1.6-1.5-2.3c-1.1-1.1-2.2-2.3-3.3-3.4c-0.9-0.9-1.3-1.9-1.5-3.1
		c-0.1-0.4-0.2-0.9-0.3-1.4c-0.3,1.7-0.7,3.3-0.9,4.9c-0.1,0.3-0.1,0.6,0,0.9c0.2,1.1,0.8,2.1,1.5,3s1.5,1.8,2.3,2.7
		c0.6,0.7,1.1,1.5,1.3,2.4C174.7,86,174.8,86.4,174.9,86.8z M125.7,88.1h0.1c0.1-0.1,0.1-0.3,0.2-0.4c0.3-0.7,0.6-1.5,1-2.1
		c0.8-1.3,1.9-2.4,3.2-3.2c0.3-0.2,0.5-0.3,0.8-0.5c0.8-0.6,1-1.5,0.8-2.4s-0.5-1.8-0.7-2.6c0-0.1-0.1-0.3-0.2-0.4
		c-0.3,0.2-0.5,0.5-0.8,0.7c-0.6,0.4-1.3,0.7-2,1c-1.2,0.5-2.1,1.2-2.9,2.1c-1,1.1-1.4,2.4-1.1,3.9c0.1,0.7,0.3,1.4,0.9,1.9
		c0.3,0.3,0.4,0.5,0.5,0.9C125.5,87.3,125.6,87.7,125.7,88.1z M149,43.6c-0.1-0.7-0.6-1.2-1.2-1.3c-1.8-0.3-3.3,0.2-4.4,1.7
		c-0.1,0.2-0.2,0.3-0.4,0.5c-0.2,0.3-0.5,0.2-0.7,0s-0.3-0.4-0.5-0.5c-1.5-0.6-3-0.9-4.5,0c-0.9,0.6-1.8,1.4-2.7,2.2
		c0.5,0.2,0.8,0.4,1.1,0.6c1.4,0.7,2.9,1.3,4.5,1.6c0.9,0.2,1.8,0.1,2.6-0.5c0.6-0.5,1.2-1.1,1.7-1.7c0.3-0.3,0.5-0.6,0.8-0.9
		C146.3,44.3,147.4,43.6,149,43.6z M154,27.9c0.1,0.2,0.1,0.4,0.1,0.5c0.3,1.2,0.4,2.4,0.3,3.6c-0.3,1.9-0.9,3.6-2,5.2
		c-0.2,0.3-0.1,0.9,0.2,1.1c1.1,0.8,2.6,0.7,3.5-0.2c0.2-0.2,0.3-0.3,0.5-0.5s0.3-0.4,0.4-0.6c0.2-0.3,0.3-0.6,0.4-0.9
		c0.1-0.3,0.3-0.6,0.4-1c0.2-1.2,0.4-2.3,0.5-3.5c0-0.4,0-0.8-0.2-1.2c-0.8-1.3-2-2.2-3.4-2.6C154.6,27.9,154.3,27.9,154,27.9z
		 M156.8,48.6c0.1,0.9,0.6,1.4,1.5,1.7c1.3,0.3,2.6,0.6,3.9,0.9c1.5,0.3,3,0.7,4.3,1.5c0.3,0.2,0.6,0.4,0.9,0.7
		c0.6,0.6,1.1,1.3,1.6,2c0.1,0,0.1,0,0.1-0.1s0.1-0.1,0.1-0.2c0.4-0.9,0.4-1.8,0.3-2.8c-0.1-1.5-0.9-2.5-2.2-3.1
		c-0.6-0.3-1.3-0.6-1.9-0.9c-0.2-0.1-0.4-0.1-0.5-0.2c-1.4-0.3-2.7-0.3-4.1,0C159.5,48.4,158.1,48.4,156.8,48.6z M155,21.1
		c-0.1,0.3-0.2,0.5-0.3,0.7c-0.5,0.9-1.3,1.4-2.1,1.9c-0.7,0.4-1.1,0.9-1.2,1.7c-0.1,0.5,0.2,1,0.7,1.2s1,0.2,1.5,0.3
		c0.4,0.1,0.9,0,1.3,0.1c1.1,0.3,2.1,0.8,3,1.6c0.2,0.2,0.4,0.4,0.7,0.6c0.1-0.3,0.2-0.5,0.3-0.7c0.4-1.3,0.8-2.7,2-3.6
		c0.1-0.1,0.1-0.4,0-0.4c-0.3-0.3-0.6-0.7-1-0.9c-0.6-0.3-1.2-0.5-1.9-0.6c-1.1-0.3-2.1-0.7-2.8-1.7C155.2,21.2,155.1,21.1,155,21.1
		z M182.5,58.2c0.1,0.4,0,0.7,0.1,1c0.4,0.8,0.8,1.5,1.2,2.2c0.4,0.6,1,0.9,1.7,1.1c1.1,0.3,3.1-0.8,3.1-2.4c0-0.3,0-0.6,0-1
		c0-0.6,0.4-1.2,1.1-1.4c0.6-0.2,1.1-0.1,1.5,0.5c0.2,0.2,0.4,0.4,0.6,0.6c0.1,0.1,0.3,0.2,0.4,0.2c0.6,0,1.3-0.7,1.3-1.2
		c0.1-1-0.5-1.8-1-2.5c0,0,0,0-0.1,0c-0.7-0.3-1.4-0.5-2.1,0c-1,0.7-2,1.4-3.1,2.1c-0.7,0.4-1.4,0.8-2.1,1.1
		c-0.5,0.3-1.1,0.2-1.7,0.1C183.3,58.4,182.9,58.4,182.5,58.2z M171.9,92.2c0,0-0.1,0-0.1-0.1c-2.3,3.1-5,5.9-8.1,8.4
		c0.8,0.4,1.4,0.8,2.1,1.2c1,0.5,2,0.9,3.2,0.8c0.6,0,1-0.3,1.2-0.8c0.2-0.4,0.4-0.9,0.5-1.3c0.3-1.3,0.4-2.6,0.5-4
		c0-1.3,0.1-2.6,0.6-3.9C171.9,92.5,171.9,92.3,171.9,92.2z M130.2,94.8c0,0.2,0,0.4,0,0.6c0,1.7,0,3.3,0,5c0,0.8,0,1.5,0.1,2.3
		c0.1,1.1,1.2,1.7,2,1.5c0.4-0.1,0.7-0.2,1.1-0.4c1.1-0.5,2.1-0.9,3.2-1.4c0.2-0.1,0.3-0.2,0.5-0.4c-1.5-0.9-2.6-2.1-3.7-3.3
		C132.3,97.5,131.3,96.2,130.2,94.8z M173.6,69.4c0.5,0.4,0.9,0.7,1.4,1c0.4,0.2,0.9,0.4,1.3,0.5c0.3,0.1,0.4-0.1,0.4-0.4
		c-0.1-0.3-0.2-0.6-0.2-1c-0.1-0.4-0.1-0.8,0.2-1.2c0.3-0.3,0.4-0.6,0.6-1c0-0.1,0-0.2,0-0.2c-0.7-1.3-1.7-2.1-3.1-2.4
		c-0.6-0.1-1.2-0.2-1.7,0.2c-0.6,0.4-0.9,0.9-1.2,1.6c0,0,0,0.1,0,0.2c0.6,1.1,0.5,2.3,0.5,3.4c0,1-0.1,2,0.2,3
		c0.1,0.2,0.2,0.5,0.3,0.7C172.4,72.3,172.5,70.8,173.6,69.4z M173.7,71c0.1,0.3,0.2,0.4,0.2,0.6c-0.2,1,0.3,1.8,0.9,2.5
		c0.5,0.5,1.1,1,1.6,1.4c0.6,0.5,1.2,1,1.5,1.8c0.1,0.1,0.2,0.3,0.3,0.3c0.9,0.3,1.8,0.4,2.7,0.3c0-0.1,0-0.2-0.1-0.2
		c-0.8-1-1-2.2-1-3.4c0-0.7-0.1-1.4-0.3-2.1c-0.2-1-1-1.6-1.9-2c0,0.5-0.1,0.9-0.1,1.3c0,0.3-0.2,0.5-0.5,0.5
		c-0.9,0-1.9-0.1-2.7-0.7C174.3,71.2,174,71.2,173.7,71z M128.5,58.9h0.1c0.1-0.2,0.2-0.4,0.4-0.5c0.4-0.6,0.7-1.2,1.1-1.8
		c0.4-0.6,1.1-1.1,1.8-1.3c1.8-0.5,3.6-0.3,5.3,0.2c1,0.3,2,0.4,3,0.3c2-0.3,3.6-1.4,5.1-2.8c0.1-0.1,0.2-0.3,0.3-0.4
		c-0.1,0-0.2,0-0.2,0c-1.2,0.5-2.5,0.8-3.9,0.6c-0.1,0-0.2,0-0.3,0c-0.5,0.1-0.9,0.2-1.4,0.2c-1.6,0.1-3.1,0.1-4.7,0.3
		c-1.7,0.1-3.4,0.4-4.8,1.6c-0.8,0.7-1.3,1.5-1.6,2.5C128.6,58.2,128.6,58.5,128.5,58.9z M191.8,53.9c-0.4-0.8-0.7-1.6-1.2-2.2
		c-0.8-1.2-1.2-1.5-2.6-1.1c-0.2,0-0.3,0.1-0.5,0.1c-0.9,0.3-1.7,0.9-1.9,1.9c-0.4,1.5-0.3,2.9,0.5,4.4c0.5-0.4,1.1-0.8,1.6-1.1
		C188.9,55,190,53.9,191.8,53.9z M138.6,42.3c-1.1-0.6-2-1.4-3.3-1.3c-0.5,0-1,0.1-1.5,0.2c-0.6,0.1-1.2,0.3-1.8,0.2
		c-1.1-0.1-2,0.2-2.9,0.8c-0.4,0.3-0.7,0.6-1.1,0.9c0.2,0.1,0.4,0.1,0.5,0.1c1.2,0.5,2.5,0.9,3.7,1.4c0.7,0.3,1.4,0.3,2.2,0.2
		c0.1,0,0.3-0.1,0.4-0.2C135.8,43.6,137,42.7,138.6,42.3z M110.3,56.7C110.3,56.7,110.2,56.7,110.3,56.7c0.5,1.2,0.6,2.3-0.2,3.3
		c-0.8,1-1.8,1.5-3,1.4c-0.1,0.5,0.1,0.9,0.5,1.3c0.3,0.2,0.6,0.4,0.8,0.6c0.9,0.7,2.5,0.7,3.5,0.1c1.2-0.8,1.7-2,1.7-3.4
		c0-0.8-0.2-1.5-0.9-2C111.9,57.5,111.1,57.1,110.3,56.7z M171.1,34.6c0.1,0.2,0.1,0.3,0.2,0.4c0.6,1,1.6,1.4,2.7,1.5
		c0.7,0.1,1.4,0,2,0c1.8,0,3.6,0,5.5-0.1c0.2,0,0.4,0,0.7-0.1c0-0.1,0.1-0.1,0.1-0.2c-0.2-0.1-0.3-0.2-0.5-0.3c-0.7-0.5-1.3-1-2-1.4
		c-0.5-0.3-1.1-0.6-1.8-0.7c-1.5-0.4-3.1-0.1-4.6,0.2C172.7,34.2,171.9,34.4,171.1,34.6z M141.8,56.7c-1.2,0.3-2.4,0.2-3.5,0.2
		c-0.1,0-0.1,0-0.2,0c-1.2,0.5-2.4,1-3,2.2c-0.2,0.5-0.4,1-0.6,1.5c-0.3,0.9-0.5,1.9-0.4,2.9c0,0.4,0.2,0.6,0.5,0.4
		c0.4-0.2,0.8-0.3,1-0.8c0.4-0.8,0.9-1.7,1.4-2.4c0.4-0.5,0.9-1,1.4-1.4c0.6-0.4,1.3-0.7,2-1.1C141,57.9,141.4,57.3,141.8,56.7z
		 M110.5,39.8c-0.2-0.2-0.4-0.3-0.6-0.4c-0.4-0.2-0.4-0.4-0.1-0.7c0.9-1.1,1.7-2.3,2.5-3.4c0.2-0.3,0.2-0.5-0.1-0.7
		c-0.3-0.3-0.7-0.5-1-0.8c-0.2-0.2-0.4-0.1-0.6,0.1c-1.4,1.7-2.8,3.5-3.9,5.5c-0.2,0.3-0.3,0.6-0.5,0.9c1.1,0.6,2.1,1.2,3.2,1.9
		C109.2,41.1,109.8,40.5,110.5,39.8z M112.2,39.6L112.2,39.6l0.2,0.1c0.1,0,0.2-0.1,0.2-0.1c1.5-0.8,3-1.6,4.7-2
		c2.2-0.6,4.5-0.8,6.7-0.5c1,0.1,2,0.5,3.1,0.7c0.2,0,0.3,0,0.5,0.1c-0.1-0.2-0.1-0.3-0.2-0.4c-0.4-0.8-0.8-1.6-1.8-1.9
		c-1.4-0.4-2.8-0.5-4.2-0.3c-1.8,0.2-3.5,1-5.1,1.7c-1.3,0.6-2.6,1.3-3.7,2.3C112.6,39.4,112.4,39.5,112.2,39.6z M121.8,80.4
		c0.2,0.5,0.3,0.9,0.5,1.3c0.1,0.1,0.3,0.2,0.5,0.3c0.1,0,0.2-0.2,0.2-0.3c0.3-0.7,0.4-1.4,0.9-2c0.8-1,1.8-1.8,3-2.3
		c0.5-0.2,1.1-0.4,1.6-0.7c0.5-0.3,1-0.6,1.4-1.1c0.6-0.6,0.4-2.1-0.2-2.7c-0.2-0.2-0.4-0.2-0.5,0.1c-0.3,0.4-0.6,0.8-0.9,1.1
		c-1.2,1.4-2.7,2.3-4.1,3.4c-0.6,0.5-1.2,1.1-1.7,1.7C122.2,79.6,122.1,80,121.8,80.4z M146.1,34.4c-0.3,0-0.5,0-0.7,0
		s-0.5,0-0.7-0.2c-0.6-0.5-1.2-1-1.5-1.8c-0.4-1.2-1.1-2-2.4-2.3c-0.6-0.1-1.3,0-1.9-0.5c0,0-0.3,0.1-0.3,0.2
		c-0.1,0.8,0,1.6,0.5,2.3c0.4,0.7,1.1,1.1,1.9,1.4c0.3,0.1,0.8,0.3,0.9,0.6c0.5,0.9,1.3,1.2,2.1,1.4C144.6,35.6,145.7,35,146.1,34.4
		z M136.2,56.4c-1-0.3-1.9-0.2-2.8-0.2c-1.1,0-2.1,0.5-2.7,1.5c-0.6,0.9-1,1.9-1.4,2.8c-0.1,0.2-0.1,0.4-0.1,0.7
		c0,0.5,0.2,0.7,0.7,0.5c0.2-0.1,0.5-0.2,0.7-0.3s0.4-0.1,0.5-0.3c0.7-0.7,1.3-1.4,1.9-2.1c0.3-0.3,0.6-0.6,1-0.8
		C134.7,57.6,135.4,57,136.2,56.4z M156.3,103.6c-0.7-0.4-1.5-0.7-2.1-1.2c-0.7-0.5-1.2-1.1-1.8-1.6s-1.3-0.8-2.1-0.8
		c-0.6,0-0.7,0.2-0.5,0.8c0.5,2.2,2.3,3.8,4.5,4.1C155.4,105.1,156,104.7,156.3,103.6z M170.4,54.3c-0.1,0.5-0.3,0.9-0.4,1.3
		c0,0.1,0.1,0.2,0.1,0.3c0.7,0.7,1.6,1.1,2.6,1.2c1.3,0.1,2.3-0.4,2.8-1.6c0-0.1,0.1-0.2,0.1-0.3c0.2-0.3,0.5-0.3,0.7,0
		c0.1,0.1,0.2,0.3,0.4,0.4c0.7,0.5,1.3,1.1,1.7,1.8c0.1,0.1,0.2,0.2,0.2,0.3c0,0,0.1,0,0.1-0.1c-0.1-0.4-0.1-0.8-0.2-1.2
		c-0.5-1-1.3-1.8-2.3-2.4c-0.1-0.1-0.2-0.1-0.3-0.1c-0.2,0.1-0.5,0.2-0.7,0.4c-0.5,0.5-1.1,0.6-1.8,0.6
		C172.5,54.9,171.4,54.7,170.4,54.3z M142.8,67.8c-1.6-0.6-3.2-0.6-4.7,0.2c-0.9,0.4-0.9,0.4-0.7,1.4c0,0.1,0,0.1,0,0.2
		c-0.1,0.3,0.1,0.4,0.3,0.5c1.5,0.6,2.9,0.7,4.4,0.1c0.7-0.2,0.9-0.7,0.8-1.3C142.8,68.4,142.8,68.1,142.8,67.8z M108.6,54.7
		c-0.4,0.1-0.8,0.1-1.1,0.3c-0.4,0.2-0.9,0.4-1.2,0.7c-0.2,0.2-0.5,0.5-0.5,0.9c-0.1,0.5,0,1,0,1.6c0,0.9,0.7,1.7,1.6,1.9
		c0.8,0.1,1.8-0.5,2.2-1.4c0.2-0.4,0.1-0.9-0.2-1.1c-0.3-0.1-0.8,0.1-1,0.4c-0.1,0.2-0.4,0.3-0.5,0.3c-0.2,0-0.4-0.3-0.4-0.4
		c-0.2-0.7,0.4-1.5,1.3-1.6c0.4-0.1,0.7,0,1.1,0C109.3,55.8,109,55.3,108.6,54.7z M120.9,79.6c0.1-0.1,0.1-0.2,0.2-0.2
		c0.6-1,1.4-1.8,2.3-2.6c1.4-1.1,2.9-2,4.2-3.4c0.7-0.7,1-1.5,0.9-2.5c0-0.2-0.1-0.5-0.2-0.7c-0.3,0.4-0.4,0.8-0.6,1.1
		c-0.6,1.4-1.4,2.6-3.1,2.7c-0.1,0-0.2,0.1-0.3,0.2c-0.2,0.4-0.3,0.8-0.5,1.1c-0.3,0.7-0.9,1-1.7,1c-0.3,0-0.6,0-0.8,0
		c-0.1,0-0.3,0.1-0.4,0.2c-0.4,0.8-0.6,1.6-0.3,2.5C120.7,79.3,120.8,79.4,120.9,79.6z M130,62.9c-0.5-0.1-0.9-0.2-1.3-0.2
		c-0.3,0-0.7,0-1,0.1c-0.7,0.4-1.3,0.9-1.5,1.8c-0.1,0.3-0.1,0.7,0,1c0.2,0.7,2,1.2,2.5,0.7c0.5-0.4,0.9-0.8,0.9-1.5
		c0-0.4,0.2-0.7,0.3-1.1C129.9,63.4,130,63.2,130,62.9z M133.2,27.7c0,0.1,0,0.1,0,0.2c0.4,0.1,0.7,0.3,1.1,0.4
		c1.2,0.2,2.4,0,3.5-0.6c1.4-0.8,2.8-1.8,4.2-2.7v-0.1C139,25.4,136,26.4,133.2,27.7z M151.1,104.8c0-0.1-0.1-0.1-0.1-0.1
		c-0.7-0.6-1.3-1.3-1.7-2.1c0-0.1-0.1-0.2-0.2-0.2c-0.8-0.1-1.6-0.2-2.4,0.2c-0.3,0.1-0.4,0.3-0.3,0.7c0.4,1,1,1.8,2.1,2
		C149.5,105.3,150.3,105.3,151.1,104.8z M177.8,81h0.1c0-0.2,0.1-0.4,0.1-0.5c0-1.2-0.5-2.3-1.3-3.2c-1-1.1-2.2-2.1-3.3-3.2
		c0,0.3,0,0.6,0.1,0.8c0.3,0.7,0.4,1.4,0.8,1.9C175.5,78.2,177,79.4,177.8,81z M133.5,60.3l-0.1-0.1c-0.2,0.2-0.5,0.4-0.7,0.6
		c-0.8,0.9-1.4,2-1.9,3.1c-0.4,0.8,0.2,1.4,0.2,2.1c0.9-0.3,1.5-1,2-1.7c0.1-0.1,0.1-0.3,0.1-0.5c-0.2-1,0-2,0.3-3
		C133.4,60.7,133.4,60.5,133.5,60.3z M131.5,82.8c-0.2,0.1-0.3,0.1-0.5,0.2c-1.2,0.8-2.2,1.8-3,3c-0.7,1-1,2-1,3.2
		c0,0.1,0.1,0.3,0.2,0.4c0.1-0.1,0.2-0.2,0.2-0.3c0.3-1.3,1.1-2.3,2-3.1c0.5-0.4,1-0.9,1.4-1.3C131.5,84.4,131.6,83.7,131.5,82.8z
		 M169,79.2c-1.2,1.9-1.1,4.2,0.1,5.1c0.4-1,0.9-1.9,1.3-2.8c0-0.1,0-0.2,0-0.2C169.9,80.6,169.4,79.9,169,79.2z M186.2,36.8
		c0.5,0.7,1.3,0.7,2,1s1.3,0.6,2,0.8c-0.1-0.4-0.3-0.6-0.5-0.9c-0.5-0.7-1.1-1.3-1.6-2c-0.1-0.2-0.3-0.2-0.5,0
		C187.1,36,186.7,36.4,186.2,36.8z M104.7,59.8c-0.6-1.3-0.5-2.6-0.1-4.1c-0.6,0.7-1.1,1.3-1.6,1.9c0,0-0.1,0.1,0,0.2
		c0.1,0.4,0.1,0.9,0.2,1.3C103.4,59.8,103.8,60,104.7,59.8z M102.7,47.2C102.7,47.2,102.8,47.2,102.7,47.2c0.9-0.6,1.7-1.2,2.5-1.9
		c-0.3-0.2-0.6-0.3-0.9-0.4c-0.3-0.2-0.6-0.1-0.7,0.3c-0.1,0.4-0.3,0.7-0.5,1C103,46.5,102.9,46.9,102.7,47.2z M102.5,60L102.5,60
		c-0.1,0.5-0.2,0.9-0.2,1.4c0,0.1,0.1,0.2,0.2,0.2c0.6,0.1,1.2,0.2,1.8,0.2c0-0.3,0.1-0.5,0.1-0.7C103.4,61.1,102.8,60.7,102.5,60z
		 M129.7,71.8h0.1l0.1-0.1c-0.1-1.1-0.1-2.1-0.2-3.2c0-0.1-0.1-0.2-0.1-0.2c-0.2,0.1-0.4,0.1-0.6,0.2c-0.2,0.1-0.2,0.4-0.1,0.6
		c0.4,0.7,0.7,1.4,0.7,2.3C129.6,71.6,129.7,71.7,129.7,71.8z M188.4,49.4c-0.9-0.5-1.8-0.8-2.9-0.7c0.3,0.2,0.6,0.4,0.8,0.5
		c0.2,0.2,0.4,0.4,0.5,0.6C187.3,49.8,187.8,49.6,188.4,49.4z M127.8,30.9l-0.1-0.1c-1.5,0.9-3,1.9-4.4,3.2c0.4,0,0.6,0,0.9,0
		c0.1,0,0.2-0.1,0.3-0.2c0.5-0.8,1.2-1.4,1.9-2C126.8,31.5,127.3,31.2,127.8,30.9z M108,53.3c0-0.4,0-0.8-0.1-1.3
		c-0.7,0.7-1.3,1.3-2,1.9L106,54C106.7,53.8,107.4,53.6,108,53.3z M122,72.6c-0.1-0.3-0.1-0.5-0.2-0.8s-0.1-0.5-0.2-0.8
		c-0.1-0.2-0.3-0.3-0.4-0.4c-0.2,0.2-0.4,0.4-0.5,0.6C120.6,71.6,121.5,72.5,122,72.6z M196.3,42.7
		C196.4,42.7,196.4,42.6,196.3,42.7c-0.2-0.5-0.4-1-0.7-1.4c-0.4-0.6-0.4-0.6-1-0.1C195.2,41.7,195.8,42.2,196.3,42.7z M200,61.7
		c0.6-0.1,1.2-0.2,1.8-0.3c0.1,0,0.2-0.1,0.2-0.2c-0.1,0-0.2-0.1-0.3-0.1c-0.5,0.2-1.1,0.1-1.6-0.1c-0.1,0-0.1,0-0.2,0
		C199.9,61.2,199.9,61.4,200,61.7z M145,69.1c-0.5-0.4-0.9-0.7-1.3-1c0.1,0.5,0.1,0.9,0.1,1.3C144.2,69.4,144.5,69.2,145,69.1z
		 M136.6,29.3c0,0.1,0,0.1,0,0.2c0.3,0.1,0.6,0.2,0.9,0.2c0-0.2,0.1-0.5,0.1-0.8C137.2,29.1,136.9,29.2,136.6,29.3z M135.8,68.7
		L135.8,68.7c0.2,0.2,0.3,0.3,0.5,0.4c0.1-0.2,0.1-0.4,0-0.5C136.2,68.6,136,68.7,135.8,68.7z"/>
	<path d="M162.4,66.4c-0.2-0.2-0.4-0.3-0.5-0.4c-2-1.1-3.9-1-5.8,0.1c-0.3,0.2-0.6,0.4-0.9,0.6c-0.1,0.1-0.3,0.1-0.4,0
		c-0.1-0.1-0.1-0.3-0.1-0.4s0.2-0.3,0.3-0.4c1-1,2.3-1.3,3.7-1.5c1.4-0.1,2.6,0,3.8,0.8c0.5,0.3,1,0.6,1.6,0.9
		c1.2,0.6,2.3,0.2,3-0.9c0.1-0.2,0.2-0.3,0.4-0.4c0.1-0.1,0.3-0.1,0.4-0.1c0.1,0.1,0.2,0.2,0.2,0.4c0,0.1-0.1,0.3-0.1,0.4
		c-0.7,1.1-1.6,1.9-3,1.8c-0.1,0-0.2,0-0.3,0c0,0,0,0-0.1,0c0.7,0.6,0.7,0.7-0.1,1.3c-1.4,1-2.9,1.8-4.6,1.9c-0.4,0-0.9,0-1.3-0.1
		c-1.2-0.3-2.3-0.6-3.5-0.9c-0.5-0.1-0.6-0.6-0.5-1c0.6-1.9,2.2-2.3,3.9-2.6c1.2-0.2,2.4,0.1,3.5,0.4
		C162.1,66.3,162.3,66.4,162.4,66.4C162.2,66.5,162.2,66.5,162.4,66.4z M156.5,67.3c0.1,0.3,0.1,0.6,0.1,0.8c0,0.8,0.3,1.3,1.1,1.4
		c1.5,0.3,2.9,0.3,4.3-0.4c0.6-0.3,0.6-0.3,0.6-1c0-0.3-0.1-0.5-0.4-0.6c-0.4-0.1-0.7-0.4-1.1-0.5C159.5,66.6,157.9,66.6,156.5,67.3
		z M154.9,68.5c0,0.1,0.1,0.1,0.1,0.2c0.3,0.1,0.5,0.2,0.8,0.3c0-0.4-0.1-0.7-0.1-1.1l-0.1-0.1C155.3,68.1,155.1,68.3,154.9,68.5z"
		/>
	<path d="M156.3,86.2c0-0.1-0.1-0.2-0.1-0.3c-0.1-0.4,0.1-0.6,0.5-0.5c0.7,0.2,1.1,0.8,1.4,1.4c0,0.1,0,0.3-0.1,0.3
		c-0.1,0.1-0.3,0.1-0.4,0c-0.3-0.2-0.5-0.1-0.8,0c-0.9,0.2-1.8,0.4-2.7,0.5c-0.5,0-1.1-0.2-1.6-0.4c-0.7-0.3-1.2-0.4-1.9,0.1
		c-0.5,0.4-1.1,0.5-1.7,0.1c-0.8-0.5-1.6-0.5-2.4-0.2c-0.5,0.2-1.1,0.4-1.6,0.5c-0.7,0.2-1.4,0.2-2.1-0.2c-0.3-0.2-0.5-0.1-0.7,0.1
		c-0.2,0.3-0.4,0.2-0.6,0.1c-0.2-0.2-0.2-0.4-0.1-0.7c0.2-0.3,0.5-0.6,0.8-0.9c0.4-0.4,0.7-0.3,0.9,0.3c0,0.1,0.2,0.2,0.4,0.2
		c0.7,0,1.4-0.1,2-0.1c0.3,0,0.6-0.1,0.9-0.2c1-0.3,1.9-0.2,2.8,0.2c0.3,0.2,0.6,0.2,0.9,0c0.8-0.5,1.6-0.5,2.4-0.2
		c1.2,0.4,2.3,0.6,3.5,0.1C156.1,86.3,156.2,86.2,156.3,86.2z"/>
	<path d="M147.3,65.9c0.6-0.4,0.8-0.4,0.9,0.4c0.1,0.4,0.1,0.9,0,1.3c0,1.3-0.1,2.6-0.2,3.9c0,0.8,0.1,1.6,0.1,2.4
		c0,0.7-0.2,1.4-0.4,2c-0.2,0.9-0.4,1.8-0.1,2.8c0.3,1,0.8,1.4,1.8,1.4c0.3,0,0.6,0,1,0c0.2,0,0.4,0.1,0.4,0.3
		c0,0.2-0.1,0.4-0.3,0.5c-1.2,0.5-3,0.1-3.6-1.5c-0.4-1.1-0.4-2.3-0.1-3.4c0.4-1.5,0.5-2.9,0.3-4.4c-0.1-0.6,0.1-1.3,0.1-2
		C147.3,68.4,147.3,67.1,147.3,65.9z"/>
	<path d="M153.3,65.2c0.1-0.1,0.2-0.2,0.2-0.2c0.8-0.3,1.4-1,2-1.5c0.5-0.5,1-1,1.8-1.2c0.5-0.1,0.9-0.3,1.4-0.4
		c0.7-0.1,1.5-0.1,2.2,0.2c1.2,0.5,2.3,0.9,3.5,1.3c0.9,0.3,1.8,0.3,2.7,0.1c0.2,0,0.4,0,0.7,0.1c-0.2,0.1-0.3,0.3-0.5,0.4
		c-1.1,0.5-2.1,0.2-3.2,0c-0.9-0.2-1.7-0.6-2.5-0.9c-0.9-0.3-1.9-0.7-2.9-0.4s-2.1,0.6-2.9,1.5c-0.4,0.4-0.8,0.8-1.3,1.2
		C154.3,65.6,153.7,65.5,153.3,65.2z"/>
	<path d="M151.1,89.8c-0.8-0.1-1.6-0.2-2.4-0.2c-0.4,0-0.9,0-1.3,0.1c-0.9,0.2-1.9,0.2-2.8-0.2c-0.2-0.1-0.4-0.2-0.6-0.4
		c-0.1-0.1-0.1-0.4-0.2-0.6c0.2,0,0.4-0.1,0.6,0c0.3,0.1,0.5,0.3,0.8,0.3c0.7,0,1.5,0,2.2,0c0.8,0,1.5-0.1,2.3,0.1
		c1.7,0.3,3.2,0,4.8-0.5c0.3-0.1,0.6-0.1,0.6,0.2c0,0.1-0.2,0.5-0.3,0.5C153.6,89.4,152.4,89.7,151.1,89.8z"/>
	<path d="M153.3,85.3c-0.4-0.1-0.8-0.3-1.3-0.5c-0.6-0.3-1.2-0.4-1.9,0c-0.2,0.1-0.7,0-1-0.1c-0.5-0.2-0.9-0.1-1.4,0.1
		c-0.4,0.2-0.9,0.4-1.4,0.5c-0.3,0.1-0.7,0-1.1-0.1c-0.1,0-0.2-0.2-0.3-0.3c0.1-0.1,0.2-0.3,0.3-0.3c1,0.2,1.7-0.4,2.5-0.7
		c0.6-0.2,1.1-0.3,1.7,0c0.2,0.1,0.4,0,0.6-0.1c0.7-0.4,1.4-0.3,2,0.1c0.5,0.3,1,0.7,1.7,0.7c0.1,0,0.2,0.2,0.2,0.3
		c0,0.1-0.1,0.2-0.2,0.3C153.7,85.2,153.6,85.2,153.3,85.3z"/>
	<path d="M143.1,80.4c0,0,0-0.1,0-0.2c0.1-0.1,0.2-0.2,0.4-0.3c0,0,0.2,0.2,0.2,0.3c0.1,0.6,0.3,0.8,0.9,0.7
		c0.6-0.1,1.2-0.3,1.8-0.3c0.7-0.1,1.3,0.2,1.8,0.7c0.1,0.1,0.1,0.3,0.1,0.4c-0.1,0-0.3,0.1-0.4,0.1c-0.8-0.4-1.6-0.3-2.4-0.1
		c-0.4,0.1-0.8,0.2-1.1,0.2C143.8,81.8,143.2,81.1,143.1,80.4z"/>
	<path d="M155.4,79.6c0,0.8-0.4,1.3-1.3,1.5c-0.5,0.1-1.1,0.1-1.7,0.2c-0.4,0-0.7,0.1-1.1,0.1c-0.1,0-0.3-0.1-0.4-0.2
		c0.1-0.1,0.2-0.3,0.3-0.4c0.4-0.1,0.9-0.2,1.3-0.2c0.4-0.1,0.9-0.1,1.3-0.2c0.4-0.1,0.8-0.4,0.8-0.9c0-0.1,0-0.2,0.1-0.2
		c0.1-0.1,0.3-0.2,0.4-0.3c0.1,0,0.2,0.2,0.2,0.4C155.5,79.4,155.4,79.5,155.4,79.6z"/>
	<path d="M154.7,71.9c-0.2-0.1-0.4-0.3-0.5-0.4c-0.7-0.9-1.2-2-1.3-3.1c0-0.1,0.1-0.3,0.1-0.4c0.1,0.1,0.3,0.1,0.4,0.2
		c0.1,0.1,0.1,0.3,0.2,0.5c0.3,0.8,0.7,1.5,1,2.3C154.7,71.2,154.8,71.5,154.7,71.9C154.8,71.8,154.7,71.9,154.7,71.9z"/>
	<path d="M151.1,82.6c0.1,0.4-0.2,0.7-0.5,0.7c-0.4,0-0.9-0.1-1.3-0.2l-0.1-0.2c0.1-0.1,0.2-0.1,0.3-0.1c0.3,0,0.5,0.1,0.8,0
		C150.5,82.8,150.8,82.7,151.1,82.6z"/>
</g>
</svg>
