<?xml version="1.0" encoding="utf-8"?>
<!-- Generator: Adobe Illustrator 26.0.3, SVG Export Plug-In . SVG Version: 6.00 Build 0)  -->
<svg version="1.0" id="Слой_1" xmlns="http://www.w3.org/2000/svg" xmlns:xlink="http://www.w3.org/1999/xlink" x="0px" y="0px"
	 viewBox="0 0 239.5 150.2" style="enable-background:new 0 0 239.5 150.2;" xml:space="preserve">
<style type="text/css">
	.st0{fill-rule:evenodd;clip-rule:evenodd;}
</style>
<path class="st0" d="M181.6,121.1c0-0.4,0-0.7,0-1.1c0.4-0.7,0.4-1.9,0.7-2.8c2.2,2.1,4.6,3.9,9.3,3.5c0.7-4,1.4-8,2-12.2
	c-0.4-0.4-0.8-0.7-1.3-0.9c-0.2,1.2-0.2,2.9-0.2,4c-1.2,0-2.4,0-3.6,0c1-1.4,1.1-3.6,1.3-5.7c-1.6-1.4-3.6-2.4-4.4-4.4
	c-1.6-3.9,1.7-7,3.7-8.7c-0.8-2.4-1.9-5.4-2.8-8.2c-0.5-1.4-0.6-2.8-1.8-3.3c1.3,0,2.6,0,3.9,0c1.1,3.4,2,6.9,3.1,10.4
	c1.5-0.4,3-0.8,5-0.7c2.1-3.2,4.2-6.4,6.1-9.7c1,0,2,0,3,0c0,0.1,0,0.2,0,0.3h-0.1c-2.2,3.3-4.7,6.2-6.7,9.6c1.5,0.3,3,0.6,4.2,1.2
	c-0.1,1-0.4,2.7-0.9,3.6c-1.2-1.4-2.7-2.5-4.6-3.2c-1.4,1.7-2.6,3.6-3.9,5.4c-0.1,1.9-0.4,3.6-0.8,5.4c0.4,0.4,0.9,0.7,1.4,1
	c0.2-1.1,0.3-2.5,0.7-3.5c1,0.1,2.2-0.1,3,0.1c-0.2,1.8-0.6,3.4-0.9,5.2c1.8,1.7,3.8,3.2,4.1,6.1c0.5,5.2-3.4,8.2-6.8,9.8
	c-0.5,2.3-0.9,5.3-1.1,7.6c2.7,0.4,7.8-0.2,11.4-1.2c-0.2,0.9-0.6,1.7-0.8,2.7c-4.9,0-9.8,0-14.7,0c1.1-2.4,1.7-5.7,1.9-8.6
	C187.2,123.4,184.1,122.4,181.6,121.1z M192,93.6c0.4,1.1,0.5,2.3,1.1,3.3c0.8-1.4,1.7-2.6,2.4-3.9C194.3,92.8,192.9,93.2,192,93.6z
	 M190.4,102c0.5-2.7,0.3-5.2-0.9-7C187.2,96.7,188,101,190.4,102z M194.7,120c4-0.9,5.1-7.1,1.6-9.3
	C195.8,113.7,195.3,116.9,194.7,120z"/>
</svg>
