<?xml version="1.0" encoding="utf-8"?>
<!-- Generator: Adobe Illustrator 26.0.3, SVG Export Plug-In . SVG Version: 6.00 Build 0)  -->
<svg version="1.1" id="Слой_27" xmlns="http://www.w3.org/2000/svg" xmlns:xlink="http://www.w3.org/1999/xlink" x="0px"
	 y="0px" viewBox="0 0 239.5 150.2" style="enable-background:new 0 0 239.5 150.2;" xml:space="preserve">
<style type="text/css">
	.st0{fill:#010101;}
</style>
<g>
	<path class="st0" d="M224.5,17.2c-0.3,0.3-0.6,0.7-1,1c-0.5,0.4-0.9,0.9-1.3,1.3c-0.3,0.3-0.6,0.5-0.9,0.8
		c-0.7,0.8-1.5,1.4-2.2,2.1c-6.7,6.4-13.4,12.8-20.1,19.1c-0.3,0.4-0.7,0.7-1.1,1.1c-0.8,0.6-1.4,1.4-2.1,2c-0.4,0.3-0.7,0.7-1,1
		c-0.8,0.7-1.5,1.4-2.3,2.2c-2.1,2-4.3,4.1-6.4,6.1c-0.7,0.6-1.3,1.3-2,1.9c-0.1,0.1-0.3,0.2-0.3,0.4c-0.1,0.5-0.2,1-0.3,1.5
		c0.6-0.5,1.2-1,1.8-1.5c3.3-2.8,6.6-5.6,9.9-8.5c0.5-0.5,1.1-0.9,1.5-1.4c0.4-0.4,0.8-0.6,1.1-1c0.6-0.4,1.1-0.9,1.7-1.4
		c0.4-0.4,0.9-0.7,1.3-1.1c0.5-0.4,1-0.8,1.5-1.3c3.2-2.7,6.4-5.5,9.7-8.2c0.5-0.5,1.1-0.8,1.5-1.4c1.7-2.1,3.5-4.1,5.2-6.2
		c1-1.2,2-2.3,3-3.6c0.3-0.3,0.5-0.6,0.7-0.9c0.5-0.5,0.9-1.1,1.4-1.6c0.2-0.4,0.6-0.6,0.8-1c0.3-0.5,0.7-0.8,1.1-1.3
		c2.1-2.5,4.2-4.9,6.3-7.4C229.5,12.4,227,14.8,224.5,17.2z"/>
	<path class="st0" d="M172.8,40.3c-0.9,0.7-1.8,1.3-2.6,2c1.8,0,3.6,0,5.4,0c0.2,0,0.3-0.1,0.4-0.2c0.6-0.5,1.2-0.9,1.7-1.4
		c0.6-0.4,1.2-1,1.9-1.4c9.2-7.2,18.3-14.4,27.5-21.6c2-1.6,4-3.1,5.9-4.7c-1.7,1.1-3.4,2.3-5,3.4c-10.4,7-20.8,14-31.2,21
		C175.5,38.5,174.1,39.3,172.8,40.3z"/>
	<path class="st0" d="M197.4,38.3c-4.7,3.9-9.4,7.8-14.2,11.7c-0.3,2-0.5,4-1,5.9c2.4-2.2,4.7-4.4,7.1-6.7
		c10.1-9.5,20.2-19,30.3-28.6c0.8-0.7,1.5-1.5,2.4-2.2c1-0.9,2-1.8,3-2.8c0.4-0.4,0.8-0.7,1.2-1.1c-0.8,0.7-1.6,1.3-2.4,2
		c-0.7,0.5-1.3,1.1-2,1.7c-0.9,0.8-1.9,1.5-2.8,2.2C211.7,26.4,204.6,32.4,197.4,38.3z"/>
	<path class="st0" d="M204.9,15.6c-0.9,0.4-1.8,0.9-2.6,1.3c0,0.1,0.1,0.2,0.2,0.2C203.3,16.7,204.1,16.1,204.9,15.6z"/>
	<path class="st0" d="M193.9,36.7c-4.8,3.9-9.6,7.7-14.3,11.6c-1,0.8-2.1,1.6-3.1,2.5c1.3,1.7,2.6,3.4,3.9,5.1
		c0.3-1.7,0.6-3.3,0.9-5c0.1-0.4,0-0.8,0.3-1.1c11.9-10.6,23.9-21.3,35.8-31.9c0.5-0.5,1.1-1,1.6-1.5c-7.3,5.8-14.5,11.7-21.8,17.5
		C196.2,34.9,195.1,35.8,193.9,36.7z"/>
	<path class="st0" d="M201.5,44.2c-0.5,0.3-0.9,0.8-1.4,1.1c-0.6,0.4-1.2,0.9-1.7,1.4c-0.3,0.3-0.6,0.4-0.9,0.7
		c-7.2,5.7-14.3,11.4-21.5,17.1c-0.6,0.5-1.3,1-1.9,1.6c-0.8,0.6-1.5,1.2-2.3,1.8c-0.7,0.5-1.3,1.1-2,1.6c-0.4,0.3-0.9,0.7-1.3,1
		c-2.8,1.9-6.5,2.5-9.8,1.6c-2.5-0.7-4.8-2.2-6.4-4.2c-1-1.3-1.9-2.6-2.8-3.9c-2-2.8-2.7-6.6-1.8-9.9c0.8-3.1,2.9-5.8,5.6-7.4
		c5.4-2.9,10.9-5.8,16.3-8.8c8.1-5.1,16.2-10.2,24.3-15.3c2.2-1.4,4.3-2.7,6.5-4.1c0.7-0.4,1.4-0.9,2.2-1.3
		c-0.1-0.3-0.4-0.2-0.6-0.1c-0.9,0.4-1.7,0.9-2.6,1.3c-3.4,1.7-6.8,3.4-10.2,5.1c-11.2,5.6-22.4,11.2-33.6,16.8
		c-1.3,0.7-2.6,1.2-3.8,1.9c-0.4,0.2-0.8,0.3-1.2,0.6c-0.6,0.3-1.3,0.6-1.9,1c-0.4,0.3-0.8,0.5-1.2,0.8c-0.6,0.5-1.2,1-1.8,1.6
		c-2.8,2.9-4.3,7.2-3.8,11.2c0.3,2.4,1.1,4.7,2.5,6.6c2.1,2.8,4.1,5.6,6.2,8.4c1.9,2.6,4.7,4.5,7.8,5.3c2.1,0.6,4.3,0.6,6.4,0.2
		c2.1-0.4,4.1-1.3,5.8-2.6c4.1-3.1,8.3-6.1,12.4-9.2c1.9-1.4,3.8-2.8,5.6-4.3c1.8-1.5,3.4-3.2,5-4.9c7.7-8.2,15.4-16.3,23.1-24.5
		c0.5-0.5,1-1,1.4-1.5c-4.6,3.6-9.2,7.3-13.7,11C203.3,42.6,202.4,43.4,201.5,44.2z"/>
	<path class="st0" d="M174.5,46.8c0.4,0.4,0.8,0.8,1.2,1.1c0.3,0.3,0.6,0.6,0.9,0.8c3.5-3.1,6.9-6.2,10.4-9.2
		c5.9-5.3,11.9-10.6,17.8-15.9c1.1-1,2.2-1.9,3.2-2.9c-10.3,7.5-20.7,15-31,22.5c-0.4,0.3-0.9,0.1-1.4,0.2c-1.5,0.1-3,0.2-4.5,0.4
		c0.5,0.6,1.1,1.1,1.7,1.6C173.5,45.8,174,46.3,174.5,46.8z"/>
	<path class="st0" d="M161.8,43.6c-3.5,0.3-6.9,2.1-9.1,4.8c-1.8,2.1-2.8,4.7-3.1,7.5c-0.2,1.6,0,3.3,0.5,4.9c0.4,1.5,1.2,3,2.1,4.3
		c0.2,0.2,0.3,0.5,0.5,0.7c1.9,2.2,4.4,3.8,7.3,4.4c1,0.2,2.1,0.3,3.1,0.4c0.1,0,0.2,0,0.3,0c3.2-0.1,6.4-1.4,8.8-3.6
		c2-1.9,3.4-4.4,4-7.1c0.2-0.8,0.2-1.7,0.3-2.5c0-0.2,0-0.5,0-0.7c-0.1-2.5-0.9-4.9-2.3-6.9c-1.3-1.9-3.1-3.5-5.2-4.6
		C166.8,43.9,164.3,43.4,161.8,43.6z M151.9,55.9c-0.5-0.2-0.7-0.9-0.4-1.3c0.1-0.2,0.3-0.3,0.5-0.4c0.3,0,0.6-0.1,0.8,0.1
		c0.2,0.2,0.5,0.4,0.4,0.8C153.4,55.7,152.5,56.3,151.9,55.9z M160.1,51.6c-0.5,1.6-2.3,2.7-3.9,2.4c-0.8-0.1-1.4-0.6-1.8-1.3
		c-0.4-0.7-0.4-1.7-0.1-2.4c0.4-1.2,1.6-2.1,2.9-2.2c0.4,0,0.9,0,1.3,0.1c0.6,0.2,1.1,0.6,1.4,1.1C160.2,49.9,160.4,50.8,160.1,51.6
		z M162.7,46.2c-0.1,0.7-1,1-1.5,0.5c-0.6-0.4-0.4-1.4,0.2-1.6C162.1,44.8,162.9,45.5,162.7,46.2z M163.6,67.2
		c-0.5-0.3-0.6-1-0.3-1.4c0.1-0.2,0.3-0.3,0.5-0.3c0.6-0.1,1.2,0.4,1.1,1C165,67.1,164.1,67.6,163.6,67.2z M165.2,52.8
		c-0.1,0.6-1,0.9-1.4,0.5c-0.5-0.4-0.3-1.4,0.4-1.5C164.8,51.6,165.4,52.2,165.2,52.8z M170.6,63.3c-0.2,0-0.5,0-0.7-0.1
		c-0.4-0.2-0.6-0.7-0.3-1.1c0.1-0.2,0.3-0.4,0.5-0.5c0.4-0.1,0.9,0.1,1.1,0.5C171.4,62.5,171.1,63.2,170.6,63.3z M171.7,51.3
		c0.8-0.1,1.6,0.1,2.2,0.5c0.6,0.4,1,1.1,1,1.8c0.1,0.7-0.1,1.4-0.4,2c-0.5,0.9-1.4,1.5-2.4,1.7c-0.3,0-0.7,0-1,0
		c-1.1-0.1-2.1-1.1-2.3-2.2c0-0.5-0.1-1,0.1-1.4C169.3,52.4,170.4,51.5,171.7,51.3z"/>
</g>
</svg>
