<?xml version="1.0" encoding="utf-8"?>
<!-- Generator: Adobe Illustrator 26.0.3, SVG Export Plug-In . SVG Version: 6.00 Build 0)  -->
<svg version="1.0" id="Слой_1" xmlns="http://www.w3.org/2000/svg" xmlns:xlink="http://www.w3.org/1999/xlink" x="0px" y="0px"
	 viewBox="0 0 239.5 150.2" style="enable-background:new 0 0 239.5 150.2;" xml:space="preserve">
<style type="text/css">
	.st0{fill:#313230;}
	.st1{fill:#363738;}
	.st2{fill:#060809;}
	.st3{fill:#020303;}
</style>
<g>
	<g>
		<g>
			<path d="M180.6,7.5c0.3,0,0.4,0,0.6,0c0.1,0.5,0,0.9,0.1,1.4c0.9,0.3,1.7,0.9,2.3,1.5c1.8,2,3.2,4.3,4.5,6.8
				c0.6,1.1,0.9,2.4,1.1,3.6c0.1,1,0.4,2,0.5,3.1c0.1,1.7,0.1,3.3,0.3,5c0,0.1,0.1,0.3,0.3,0.3c0.1,0,0.1-0.3,0.1-0.3
				c0.4-1.1,0.8-2.2,1.1-3.3c0.1-0.4,0.5-1,1-0.8c0.6,0.4,0.8,1.3,1.1,1.9c0.8,1.8,1.7,3.4,2.4,5.2c0.1,0.6,0.1,1.3,0.1,1.9
				c0.1,0.9,0.1,1.7,0.1,2.5c0.3,4.6,0.5,9.2,0.9,13.8c0,0.9,0,1.8,0.1,2.7c0,1,0.1,2,0.1,3.1c0.1,0.8,0,1.7,0.1,2.4
				c0,0.5,0,0.9,0,1.4c0.5,0.5,1,0.9,1.4,1.4c0.6,0.8,1.4,1.3,2,2c1.4,1.4,2.8,2.8,4.3,4.1c0.8,0.6,1.3,1.5,1.7,2.4
				c0.3,1.4,0.5,2.9,0.8,4.3c0,0.1,0.1,0.4-0.1,0.5c-2.3,0.1-4.6,0.3-7,0.4c-0.6,0.1-1.4,0-2,0.1c-0.4,1.1-0.1,2.3-0.1,3.4
				c0,0.4,0.5,0.8,0.3,1.1c-0.3,0.5-0.1,1-0.1,1.5c0,0.4,0.4,0.8,0.4,1.1c0,0.4-0.1,0.8,0,1.1c0,0.3,0.1,0.5,0.1,0.8
				c-0.1,0.3-0.3,0.6-0.3,0.9c0.5,1.1,1,2.3,1.5,3.4c0,0.1-0.1,0.3-0.1,0.3c0.3,0.5,0.4,1.1,0.5,1.7c0.4,1.8-0.5,3.4-0.5,5.1
				c0,0.3,0,0.6-0.3,0.8c-0.3,0-0.5-0.3-0.6-0.5c0,1.4-0.8,2.5-1,3.8c-0.1,0.6-0.3,1.3-0.4,2c-0.1,1.1,0.1,2.3,0.1,3.3
				c-0.4-1.1-0.6-2.2-0.9-3.3c-0.3,0.6-0.4,1.4-0.4,2.2c-0.1,3.2,0,6.4-0.1,9.7c0,0.5,0,1,0,1.5c-0.3-0.8-0.3-1.5-0.4-2.3
				c-0.5-2.5-0.9-5.1-1.5-7.6c-0.3-1.1-0.5-2.3-0.9-3.3c-0.1,0.3-0.3,0.9-0.8,0.8c-0.1-0.6-0.1-1.1-0.3-1.8
				c-0.1-0.4-0.4-0.8-0.5-1.1c-0.1-0.5-0.1-1-0.1-1.4c-0.1,0.1-0.4,0.3-0.5,0.4c-0.1-0.5-0.4-1.1-0.5-1.7c-0.1-0.8,0-1.7-0.1-2.4
				c-0.1,0-0.3,0-0.4,0c-0.4-0.8-0.6-1.7-0.5-2.5s0.3-1.8,0.6-2.5c0-0.3,0.3-0.1,0.4-0.1c-0.1,0.6-0.4,1.3-0.5,1.9
				c-0.3,0.9-0.1,1.9,0.3,2.8c0.1,0,0.3,0,0.4,0c0.3,0.4,0.1,0.9,0.1,1.4c-0.1,0.9,0.1,1.8,0.4,2.5c0.3-0.3,0.5-0.4,0.8-0.6
				c-0.1,1-0.3,2,0.3,2.9c0.3,0.5,0.4,1,0.4,1.7c0.1-0.3,0.3-0.6,0.5-1c0.1,0.4,0.3,0.8,0.5,1.1c0.8,2.3,1.1,4.7,1.7,7
				c0.1,0.6,0.1,1.3,0.4,1.9c0.1-0.6,0-1.3,0-1.9c0-1.8,0-3.6,0-5.4c0.1-1,0.1-2.3,1-2.9c0,0.3,0.1,0.5,0.1,0.6
				c0.1-0.6,0.1-1.3,0.3-1.9c0.3-1.3,1-2.4,1-3.7c0-0.9-0.4-1.7-0.5-2.4c0.5,0.8,0.8,1.7,1.4,2.4c0-0.3,0-0.6,0-0.9
				c0-0.8,0.3-1.5,0.4-2.2c0.3-1.3,0.1-2.7-0.5-3.8c-0.1-0.1-0.3-0.4-0.4-0.5c-0.5-0.4-1.1-0.5-1.8-0.6c-1.4-0.3-2.8-0.3-4.2,0
				c-0.8,0.3-1.5,0.5-2,1.1c-0.1,0.1-0.4,0.4-0.5,0.1c0.3-1,0.6-2.2,0.9-3.2c0.1-0.4-0.1-0.6-0.1-0.9c-0.1-0.4,0-0.8,0-1.1
				c0-0.5-0.1-0.9-0.1-1.3c0-0.4,0.3-0.8,0.3-1.1c0-0.3,0-0.6-0.1-0.9c0-0.4-0.3-0.6-0.4-0.9c0.1-0.3,0.3-0.4,0.4-0.6
				c-1.1-0.3-2.2-0.4-3.3-0.6c-0.5,0-1-0.3-1.5-0.1c-0.6,0.1-1.4,0.3-2.2,0.3c-1.3,0-2.7,0.1-4-0.1c-1.3-0.1-2.5-0.5-3.6-1.3
				c-0.8-0.6-1.4-1.5-1.5-2.4c0-0.3,0-0.5,0-0.8c0,0.4,0,0.8,0,1.1c0.1,0.3,0.3,0.5,0.4,0.8c-0.1,0.3-0.3,0.6-0.3,0.9
				c0,0.3,0,0.6,0,0.9c0,0.4,0.3,0.8,0.4,1c0,0.4,0,0.8-0.1,1.1c0,0.4,0.1,0.8,0.1,1.1c-0.1,0.4-0.3,0.6-0.4,0.9
				c0.5,1.3,1,2.5,1.5,3.7c-0.1,0-0.3,0.1-0.4,0c-1.1-0.9-2.5-1.3-4-1.4c-1.5-0.1-3.1,0.1-4.3,0.8c0,0.1,0,0.3-0.1,0.4
				c-0.5,0.8-0.6,1.8-0.6,2.7c0,1,0.4,2,0.5,3.1c0.1,0.4,0,0.9,0.1,1.4c0.6-0.6,0.9-1.7,1.4-2.4c-0.1,0.5-0.3,1-0.4,1.7
				c0,0.5,0,1,0,1.5c0.3,1.1,0.9,2.3,1.1,3.4c0.1,0.5,0.1,1,0.3,1.4c0.1-0.1,0-0.5,0.3-0.6c0.4,0.4,0.6,0.8,0.8,1.3
				c0.3,1.1,0.3,2.4,0.3,3.7c0.1,1.1,0,2.3,0.1,3.4c0,0.5,0,1.1,0.1,1.7c0.4-2,0.6-4.2,1.1-6.2c0.3-1.4,0.6-2.7,1.3-4
				c0.1,0.3,0.3,0.6,0.5,0.9c0.1-0.5,0.1-1,0.3-1.4c0.1-0.4,0.4-0.8,0.4-1.3c0-0.6,0-1.3-0.1-1.9c0.3,0.1,0.5,0.4,0.8,0.5
				c0.3-1,0.4-2,0.3-2.9c-0.1-0.4,0-0.6,0.1-1c0.1,0,0.3,0,0.4,0.1c0.1-0.4,0.3-0.9,0.3-1.3c0.1-1.1-0.3-2.3-0.6-3.4
				c0.1,0,0.3,0,0.4,0c0.3,0.8,0.5,1.7,0.6,2.4c0.1,1-0.1,1.9-0.5,2.8c-0.1,0-0.3-0.1-0.4-0.1c0,0.3,0,0.5,0,0.9
				c0.1,1.1-0.1,2.3-0.5,3.3c-0.1-0.1-0.3-0.3-0.5-0.4c0,0.8,0,1.5-0.4,2.2c-0.3,0.6-0.4,1.3-0.4,1.9c0,0.1,0,0.5-0.3,0.4
				c-0.3-0.1-0.4-0.5-0.5-0.8c-0.6,1.7-0.9,3.6-1.3,5.4c-0.4,2.2-0.8,4.3-1.1,6.5c-0.1,0.5-0.1,1-0.3,1.5c0-3.2-0.1-6.4-0.3-9.4
				c0-1.3,0-2.5-0.4-3.7c0,0-0.1,0-0.1-0.1c-0.3,1-0.5,2.2-0.8,3.2c0-1.1,0.3-2.3,0.1-3.4c-0.1-1.1-0.4-2.2-0.8-3.2
				c-0.4-0.8-0.5-1.5-0.6-2.4c-0.3,0.3-0.5,0.6-0.8,0.4c-0.1-0.3,0-0.6-0.1-0.9c-0.1-1-0.4-2.2-0.5-3.2c-0.1-1,0-2,0.4-2.9
				c-0.1,0-0.1-0.1-0.3-0.1c0.4-1.1,0.8-2.3,1-3.6c-0.1-0.4-0.3-0.6-0.3-1c0-0.4,0.1-0.8,0.1-1.1c0-0.4-0.1-0.8-0.1-1.1
				c0-0.4,0.3-0.8,0.4-1.1c0-0.4,0-0.6-0.1-1c-0.1-0.3-0.3-0.5-0.4-0.9c0.1-0.4,0.4-0.5,0.4-0.9c0-1.1-0.1-2.3-0.3-3.4
				c-0.3-0.5-0.5-1-0.5-1.5c0-0.3,0.3-0.5,0.4-0.8c0-0.3,0-0.5,0-0.8c-0.8-0.4-1.7-0.8-2.4-1.1c-0.1-0.1-0.4-0.1-0.4-0.4
				c0-0.4,0.1-0.6,0.1-1c0.3-1.3,0.6-2.5,1-3.7c0.1-0.4,0.4-0.8,0.5-1.1c0.3-0.4,0.5-0.6,0.9-0.9c0-0.8,0-1.4,0-2.2
				c-0.1-1.7,0-3.3-0.1-5c0-1.5,0-3.1-0.1-4.6c-0.1-1.4,0-2.8-0.1-4.2c0-1,0-1.9,0-2.9c0-1.4-0.1-2.7-0.1-4.1c0-1.3-0.1-2.4-0.1-3.7
				c0-1.7-0.1-3.3-0.1-5c0-0.3,0.1-0.6,0.1-0.9c0.4-1,0.8-2.2,1.1-3.2c0.4-0.9,0.6-1.7,0.9-2.5c0.1-0.4,0.3-0.9,0.6-1.3
				c0.1-0.1,0.4-0.3,0.5-0.1c0.5,0.1,0.6,0.6,0.9,1c0.4,1.1,0.9,2,1.3,3.2c0.1,0.3,0.1,0.5,0.4,0.6c0-0.9,0-1.9,0-2.8
				c0.1-1.4,0.3-2.8,0.6-4.1c1-2.4,1.9-4.7,3.4-6.9c0.6-0.9,1.4-1.9,2.5-2.3c0-0.5-0.1-0.9-0.1-1.4c0.1,0,0.4,0,0.5-0.1
				c0-0.5,0-1,0-1.5c0-0.1,0.3-0.1,0.3,0C180.6,6.5,180.6,7,180.6,7.5z M180.1,7.9c0,0.3,0,0.5,0,0.8c0.3,0,0.5,0,0.8,0
				c0-0.3,0-0.5,0-0.8C180.6,7.9,180.3,7.9,180.1,7.9z M181.5,9.3c-0.5-0.1-0.9-0.1-1.4,0c0.1,0.1,0.1,0.4,0.1,0.6
				c-0.3,2.3-0.4,4.5-0.5,6.8c0,0.6,0,1.1,0,1.8c3.1-0.5,6.2,0.3,8.9,1.7c0.1,0,0.3,0.1,0.3,0.1c-0.3-0.8-0.4-1.5-0.6-2.2
				c-0.4-0.9-0.9-1.8-1.4-2.7c-0.9-1.5-1.8-3.1-3.1-4.3C183,10.3,182.2,9.7,181.5,9.3z M177.9,11.2c-0.5,0.8-1,1.5-1.5,2.4
				c-0.6,1.3-1.3,2.4-1.8,3.7c-0.5,1.1-0.9,2.4-1,3.8c1.5-1.4,3.6-2.3,5.6-2.5c0-1,0.1-2,0.1-3.2c0.1-2,0.3-4,0.5-6
				C179.2,9.7,178.4,10.5,177.9,11.2z M179.5,18.6c0,1.3,0,2.5,0.1,3.8c0.8-0.1,1.5-0.1,2.3-0.1c0.9,0,1.8,0,2.8,0.3
				c1.5,0.3,3.2,0.6,4.6,1.4c-0.1-1.1-0.3-2.3-0.5-3.3C186,18.9,182.7,18.2,179.5,18.6z M173.9,21.2c-0.4,0.3-0.3,0.8-0.4,1.3
				c0,0.9-0.1,1.7-0.1,2.5c0.5-0.5,1.1-0.8,1.8-1.1c1.3-0.6,2.7-1,4.2-1.3c0-1.3-0.1-2.5-0.1-3.8C177.4,19,175.5,19.8,173.9,21.2z
				 M170.6,20.7c-0.3,0-0.4,0.3-0.5,0.4c-0.6,1.9-1.4,3.8-2.2,5.7c1.7-0.6,3.7-0.9,5.4,0c-0.5-1.1-1-2.2-1.5-3.3
				c-0.3-0.6-0.5-1.3-0.8-1.9C171,21.2,170.9,20.8,170.6,20.7z M183.5,22.6c0.1,0.9,0.1,1.8,0.3,2.5c0.1-0.1,0.3-0.3,0.4-0.5
				c0-0.8-0.1-1.4-0.1-2.2C183.7,22.6,183.6,22.6,183.5,22.6z M183,22.6c0.1,1.1,0.1,2.4,0.4,3.6c0.1-0.4,0.4-0.6,0.3-1
				c-0.1-0.6-0.1-1.4-0.1-2c0-0.1,0-0.4,0-0.5C183.2,22.6,183.1,22.6,183,22.6z M182.3,22.6c0.1,1.7,0.3,3.3,0.4,5
				c0.1-0.5,0.5-1,0.4-1.5c0-1.1-0.3-2.3-0.3-3.4C182.6,22.6,182.5,22.6,182.3,22.6z M181.7,22.6c0.1,1.8,0.3,3.6,0.4,5.4
				c0,0.5,0.1,0.9,0,1.4c-0.1-0.6-0.1-1.3-0.1-1.9c-0.1-0.8-0.1-1.7-0.1-2.4C181.8,24.2,181.7,23.3,181.7,22.6c-0.1,0-0.4,0-0.5,0
				c0.1,2.8,0.4,5.5,0.5,8.3V31h-0.1c-0.1-2.8-0.4-5.6-0.5-8.4c-0.1,0-0.4,0-0.5,0c0.3,3.1,0.4,6.1,0.6,9.2c0,0.9,0.1,1.8,0.1,2.7
				c-0.3-0.4-0.1-0.8-0.1-1.3c-0.1-2-0.3-4.1-0.4-6c0-1.5-0.1-3.1-0.3-4.6c-0.3,0-0.4,0-0.6,0c0,1.9,0.1,4,0.3,5.9
				c0,0,0,0.1-0.1,0.1h-0.1c0-1.3-0.1-2.5-0.1-3.8c-0.1,0-0.1,0-0.3,0c0,0.6,0,1.1,0.1,1.8c0.1,1.5,0.1,2.9,0.3,4.5
				c0,1.3,0.1,2.7,0.3,4h0.1c0-0.6,0-1.4-0.1-2c0-1.4-0.1-2.7-0.1-4.1h0.1l0,0c0.1,2,0.3,4.1,0.4,6c0.3,0,0.5,0,0.8-0.1
				c0-0.1,0-0.3,0-0.4c0.1,0.1,0.1,0.1,0.3,0.3c0.1-0.6,0.3-1.3,0.4-1.9c0-0.5-0.1-1,0-1.7l0,0c0,0,0,0,0.1,0c0,0.4,0,0.6,0,1
				c0.3-0.6,0.3-1.4,0.5-2c0.1-0.3,0-0.4-0.1-0.6c0,0,0.1,0,0.3,0c0.1-0.5,0.3-1.1,0.4-1.7c-0.1-1.8-0.4-3.6-0.4-5.4
				C182,22.6,181.8,22.6,181.7,22.6z M184,22.6c0,0.6,0.1,1.3,0.1,1.9c0.1-0.1,0.3-0.4,0.5-0.5c-0.1-0.4-0.1-0.9-0.1-1.3
				C184.4,22.7,184.3,22.7,184,22.6z M179.2,22.7c0,0.6,0.1,1.3,0.1,2c0.1-0.1,0.3-0.4,0.1-0.5c0-0.5,0-1,0-1.5
				C179.4,22.7,179.3,22.7,179.2,22.7z M184.6,22.7c0,0.4,0.1,0.8,0.1,1.1c0.1-0.1,0.3-0.3,0.4-0.3c0-0.3,0-0.5,0-0.8
				C185,22.8,184.8,22.7,184.6,22.7z M178.7,22.8c0.1,2,0.3,4.2,0.4,6.2c0,1.7,0.3,3.3,0.3,5c0,0.3,0,0.6,0,0.9
				c0.1,0,0.4-0.1,0.5-0.1c0-0.5-0.1-0.9-0.1-1.4c-0.1-0.6,0-1.4-0.1-2c0-1-0.1-2-0.1-3.1c-0.1-0.9-0.1-1.8-0.3-2.5
				c0-1-0.1-2-0.1-3.1C178.9,22.7,178.8,22.8,178.7,22.8z M185.3,22.8c0,0.3,0,0.5,0,0.8c0.1,0,0.4,0,0.5,0c0-0.3,0-0.4-0.1-0.6
				C185.7,23,185.4,22.8,185.3,22.8z M178.1,23c0,0.5,0,1,0,1.4H178c-0.3-0.4,0-0.9-0.1-1.4c-0.1,0-0.4,0.1-0.5,0.1
				c0.1,0.4,0,0.8,0.1,1.1c0.3,3.7,0.4,7.4,0.6,11c0,0,0.1,0,0.3,0c0.1,0,0.3,0,0.4,0s0.3-0.1,0.5-0.1c-0.1-1-0.1-2-0.3-3.2
				c-0.1-0.5,0-1-0.1-1.7c-0.1-2.4-0.3-5-0.4-7.4C178.4,22.8,178.3,22.8,178.1,23z M186.6,23.1c0,0.3,0,0.5,0,0.8
				c0.1,0.1,0.3,0.3,0.5,0.5c0-0.4,0-0.8,0-1C186.8,23.2,186.7,23.2,186.6,23.1z M185.9,23c0,0.3,0.1,0.4,0.1,0.6
				c0.1,0.1,0.4,0.1,0.5,0.3c0-0.3,0-0.5,0-0.8C186.2,23.1,186,23,185.9,23z M176.9,23.3c0.3,2.8,0.3,5.6,0.5,8.4
				c0,1.1,0.1,2.4,0.1,3.6c0.3,0,0.4,0,0.5-0.1c-0.3-4.1-0.5-8-0.6-12.1C177.1,23.2,177,23.2,176.9,23.3z M187.1,23.3
				c0,0.4,0,0.6,0,1c0.1,0.4,0.4,0.5,0.5,0.8c0-0.6-0.1-1.1-0.1-1.8C187.3,23.3,187.2,23.3,187.1,23.3z M176.2,23.5
				c0.1,1.1,0.1,2.3,0.3,3.4c0.1,0.6,0,1.3,0.1,1.9c0.1,0.6,0,1.4,0.1,2c0,0.9,0.1,1.9,0.1,2.8c0-0.1-0.1-0.3-0.1-0.4
				c0-0.4,0-0.9-0.1-1.3c0-0.9-0.1-1.8-0.1-2.7c-0.1-0.5-0.1-1-0.1-1.5c0-0.6-0.1-1.1-0.1-1.8c0-0.5,0-1-0.1-1.5
				C176.2,24.4,176.1,24,176.2,23.5c-0.3,0.1-0.4,0.1-0.5,0.3c0.1,1,0.1,2,0.3,3.1c0.1,2.9,0.4,5.9,0.5,8.9c0.1,0,0.3-0.1,0.4-0.1
				c0-0.4-0.1-0.9-0.1-1.3c0,0.3,0.1,0.6,0.3,0.9v-0.1c0,0.1,0,0.4,0,0.5c0.1,0,0.3-0.1,0.5-0.1c-0.1-1-0.1-2-0.3-3.1
				c0-1-0.1-2.2-0.1-3.2c-0.1-1.9-0.3-3.8-0.3-5.9C176.6,23.3,176.4,23.5,176.2,23.5z M187.6,23.5c0.1,0.6,0.1,1.3,0.3,1.9
				c0.1,0.3,0.3,0.5,0.5,0.8c-0.1-0.9-0.1-1.7-0.3-2.5C187.8,23.6,187.7,23.5,187.6,23.5z M188.1,23.6c0.3,0.6,0.1,1.4,0.3,2
				c0,0.5,0.1,1.1,0.4,1.7c-0.1-1.1-0.3-2.3-0.3-3.6C188.3,23.7,188.2,23.7,188.1,23.6z M175.2,24c0,0.4,0.1,0.8,0,1.3
				c0.1,1.7,0.3,3.2,0.3,4.8c0.1,1.3,0.1,2.5,0.3,3.8c0.1,0.6,0.1,1.3,0.1,1.9c0.1,0,0.3-0.1,0.5-0.1c-0.1-2.2-0.3-4.5-0.4-6.6
				c-0.1-1.8-0.1-3.6-0.4-5.4C175.5,23.8,175.3,24,175.2,24z M188.6,23.8c0,0.4,0.1,0.9,0.1,1.3c0.1,0.8,0.1,1.7,0.1,2.4
				c0,0.3,0.1,0.4,0.3,0.5l0,0c0.1,0.1,0.3,0.3,0.4,0.4c0-0.5,0-1.1-0.1-1.7c0-0.9,0-1.7-0.1-2.5c0,0-0.1,0-0.3-0.1
				c0.1,1.1,0.1,2.3,0.3,3.4c0,0.1,0,0.3,0,0.4h-0.1c0-0.8-0.1-1.5-0.1-2.3c0-0.5-0.1-1-0.1-1.7C188.8,24,188.7,23.8,188.6,23.8z
				 M174.7,24.2c0.1,0.9,0.1,1.8,0.1,2.7c0.1,0.6,0,1.3,0.1,1.8c0.1,0.6,0,1.3,0.1,1.9c0.1,0.5,0.1,1,0.1,1.5
				c0.1,1.3,0.1,2.5,0.3,3.8c0.1,0,0.3-0.1,0.4-0.1c0-1.1-0.1-2.4-0.3-3.6c-0.1-0.9,0-1.8-0.1-2.7c0-1.9-0.3-3.7-0.3-5.6
				C175,24.1,174.8,24.2,174.7,24.2z M185.4,24.1c-0.4,0-0.6,0.4-0.9,0.8c0.6,0,1.4,0,2,0C186.3,24.5,185.9,24.1,185.4,24.1z
				 M174.3,24.5c0,0.3,0,0.5,0,0.8c0.1,0.8,0,1.5,0.1,2.2c0.1,2.2,0.3,4.5,0.4,6.6c0-0.1-0.1-0.1-0.1-0.3c0-0.3,0-0.6,0-0.9
				c-0.1-0.9,0-1.8-0.1-2.5C174.4,28.4,174.2,26.5,174.3,24.5c-0.3,0.1-0.4,0.3-0.4,0.3c0,0.1,0,0.3,0,0.4c0.1,0.6,0,1.4,0.3,2
				c0.3,0.6,0.1,1.3,0.3,2c0,2.4,0.3,4.8,0.3,7.3c0.1,0,0.3-0.1,0.3-0.1l0.1-0.1c0.1,0,0.3,0,0.3-0.1c0-0.9-0.1-1.8-0.1-2.7
				c-0.1-3.1-0.4-6.1-0.5-9.2C174.4,24.4,174.4,24.5,174.3,24.5z M192,25.2c-0.3,0.4-0.3,0.8-0.5,1.1c-0.4,0.9-0.6,1.9-1,2.8
				c0,0.1-0.1,0.3,0,0.4c0.4,0.4,0.8,0.9,1,1.4c0.5,1.3,0.8,2.7,1,4.1c0.6,0,1.1,0,1.8,0.1c0.5,0.1,1,0.4,1.5,0.6
				c-0.1-1-0.1-2.2-0.3-3.2c0-0.5-0.3-1-0.5-1.4c-0.1-0.4-0.6-0.5-1-0.6c-0.9-0.4-1.9-0.3-2.9-0.1c0-0.1,0-0.3,0.1-0.3
				c1.1-0.3,2.4-0.1,3.4,0.4c-0.6-1.1-1.1-2.4-1.8-3.7c-0.3-0.5-0.4-1.1-0.8-1.7C192.4,25.1,192.2,25,192,25.2z M173.6,25.1
				c0,0.5,0,1.1,0.4,1.7c0-0.6,0-1.3-0.1-1.9C173.7,25,173.6,25.1,173.6,25.1z M183.9,25.8c-0.1,0.4-0.4,0.6-0.5,1
				c1.1-0.4,2.3-0.6,3.4-0.4c0.4,0,0.8,0.1,1.3,0.3c-0.1-0.3-0.3-0.5-0.4-0.8C186.4,25.5,185.2,25.5,183.9,25.8z M170.5,26.4
				c-0.9,0.1-1.8,0.3-2.5,0.6c-0.1,0.4-0.4,0.8-0.4,1.3c0,1.1,0,2.3,0,3.4c0.5-0.4,1.1-0.6,1.8-0.8c0.9-0.3,1.8-0.4,2.7-0.1
				c0.6,0.1,1.3,0.4,1.9,0.8c-0.1-1.1-0.1-2.4-0.1-3.6c0-0.4-0.1-0.6-0.3-0.9C172.7,26.5,171.5,26.3,170.5,26.4z M184.8,26.7
				c-0.5,0.1-1,0.1-1.4,0.5c-0.1,0.3-0.3,0.6-0.3,1c-0.4,1.8-0.9,3.4-1.3,5.2c-0.1,0.4-0.1,0.8,0,1.1c0,0.6-0.1,1.4-0.3,2
				c-0.1,0.6-0.3,1.3-0.1,1.8c0.1,0.5,0,1,0,1.4c0,0.1-0.1,0.3-0.1,0.5c0,0,0-0.1,0-0.3l0,0c-0.3,1.4-0.5,2.8-0.8,4.2
				c-0.5,2.8-0.9,5.6-1.5,8.4c-0.3,0.8-0.8,1.4-1.3,1.9c-3.1,2.2-6.1,4.2-9.2,6.4c-0.4,0.3-0.9,0.5-1,1c-0.3,0.6-0.5,1.3-0.8,1.8
				c4.2,0.9,8.5,1.8,12.7,2.7c0.8,0.1,1.5,0.3,2.3,0.5c0.4-2,0.4-4.2,0.4-6.2c0.1-0.5,0-1,0.1-1.4c0-1.3,0-2.4,0-3.7
				c0.1,1.9,0,3.8,0.1,5.6c0,1,0.1,2.2,0,3.2c0,0.6-0.1,1.1-0.3,1.8c-0.1,0.6-0.4,1.4-0.5,2c-0.1,1-0.3,2-0.4,3.1
				c0,0.4,0,0.9-0.1,1.3c0,0.1-0.1,0.3-0.1,0.3c0-0.9,0.1-1.7,0.1-2.5c0-0.3,0-0.4,0.1-0.6c-2.7-0.6-5.2-1.4-7.9-2
				c-0.1,0.6-0.3,1.4-0.5,2c1.1,0.5,2.3,0.9,3.4,1.4c1.4,0.6,2.9,1.1,4.3,1.7c0.4,1.1,0.9,2.4,1.3,3.6c0,0.1,0.1,0.1,0.3,0.1
				c0.5,0.1,1,0.3,1.5,0.4c-0.4-0.3-0.8-0.6-0.8-1.1c0-0.3,0.1-0.6,0.3-0.9c0.1-0.5,0.1-1.1,0.3-1.7c0.3-0.5,0.5-1,0.9-1.5
				c0.5-0.4,1.1-0.3,1.8-0.3c0.5,0.5,1.1,1.1,1.3,1.9c0.1,0.8,0.3,1.4,0.3,2.2c0,0.9-0.8,1.4-1.5,1.7c-0.1,0-0.3-0.1-0.4-0.1
				c0.6-0.1,1.3-0.4,1.5-1c0.1-0.3,0.1-0.8,0-1c-0.3-0.5-0.9-0.9-1.4-1c-0.8-0.1-1.7,0.1-2.3,0.6c-0.4,0.4-0.5,0.9-0.4,1.4
				c0.3,0.5,0.6,0.9,1.3,1c0.4,0.1,0.9,0.1,1.3,0c0,0.1,0,0.1,0,0.3c0.3,0,0.6,0.3,0.9,0c0.4-0.3,1-0.4,1.1-0.8
				c0.3-0.9,0.1-1.8,0.1-2.5c0.1,0,0.4,0.1,0.5,0.1c-0.1,0.9-0.3,1.8-0.4,2.8c0,0.1,0,0.4,0.1,0.5c0,0.1,0.3,0.3,0,0.4
				c-0.3,0-0.6-0.1-0.9-0.1c0.5,0.1,1.1,0.3,1.7,0.4c-0.4-0.4-0.8-0.9-0.6-1.4c0.3-0.9,0.1-1.8,0.5-2.7c-0.5-0.3-1.1-0.6-1.1-1.3
				c0-0.6,0-1.3,0-2c0-0.6,0.3-1.3,0.6-1.8c0.1-0.3,0.3-0.5,0.5-0.5c0.4-0.1,0.9-0.3,1.4-0.3c0.3,0.3,0.6,0.5,0.9,0.9
				c0.1,0,0.3-0.3,0.4-0.3c1-0.5,2.2-1,3.2-1.5c0-0.4,0-0.8,0-1.1c-1.7,0-3.3,0.1-5,0.1c0-0.3,0-0.4,0.1-0.6c1.7-0.1,3.2,0,4.8-0.1
				c-0.1-0.6,0-1.3-0.1-1.9c-1.4-0.9-2.8-1.9-4.3-2.8c0.1-0.1,0.3-0.3,0.3-0.5c-0.1-0.1-0.4-0.3-0.5-0.4c-0.3,0.5-0.5,1-0.8,1.4
				c0,0.1-0.1,0.1-0.3,0.3c0.4,1.8,0.6,3.6,0.6,5.4c0,0.3,0.1,0.5-0.1,0.8c-0.5,0.3-1.1,0.4-1.5,0.8c-0.5,1-0.6,2-0.8,3.2
				c-0.1,0-0.3-0.1-0.4-0.3c-0.5-0.4-1-0.6-1.7-0.4c-0.6,0.1-1.3,0.6-1.5,1.3c-0.1,0.4-0.4,0.5-0.8,0.6c-0.5-0.1-0.9-0.1-1.4-0.3
				c0.5-0.9,0.9-1.7,1.4-2.4c-0.3-0.3-0.1-0.8-0.3-1.1c-0.1-0.9-0.1-1.8-0.3-2.5c0-0.8,0-1.5,0.1-2.2c0-0.8,0.1-1.7,0.5-2.4
				c0.4-0.6,1.1-1,1.8-1.3c0.5-0.3,1.1-0.3,1.7-0.4c0.6,0,1.1,0.1,1.7,0.3c0.3,0.1,0.3,0.5,0.5,0.6c0.3-0.5,0.5-1,0.8-1.5
				c0.1-0.3,0.4-0.1,0.5,0c1.1,0.8,2.3,1.5,3.4,2.2c0-0.1,0-0.3-0.1-0.5c-0.8-1-1.9-1.8-3.2-1.9c-1.1-0.1-2.4-0.1-3.6-0.1
				c-0.8,0-1.5,0.3-2.2,0.6c-0.3,0.3-0.4,0.5-0.6,0.8c-0.1-1-0.1-2-0.1-3.1c-0.1-0.9-0.1-1.9-0.1-2.8c0-0.1,0.1-0.3,0.1-0.3v0.3
				c0.3-0.3,0.5-0.6,0.9-0.8c0.9-0.5,2-0.6,3.2-0.6c0.5,0,1.1,0,1.7,0c-0.1-2.3-0.1-4.7-0.3-7c-1.4,0-2.8-0.1-4.1,0.3
				c-0.6,0.1-1.3,0.5-1.7,1.1c0,0-0.1,0.1-0.1,0.3H183c0-0.9,0-1.8-0.1-2.7c0-0.8,0-1.5-0.1-2.2c-0.1-2.2-0.3-4.5-0.4-6.6
				c-0.1-0.8,0-1.7-0.1-2.4c0-0.3,0.1-0.4,0.3-0.4c0.6-0.5,1.4-0.9,2.3-1.1c1.4-0.4,2.9-0.1,4.3,0c1,0.3,1.9,0.9,2.7,1.5
				c-0.3-1-0.5-2-0.9-2.9c-0.4-1-1.4-1.7-2-2.4c-0.5-0.4-0.6-1.1-1-1.7C187.1,26.5,185.9,26.4,184.8,26.7z M171.9,31.1
				c-0.9-0.1-1.9,0-2.8,0.3c-0.5,0.1-1,0.4-1.4,0.6c0.1,1.8,0.1,3.7,0.1,5.6c1-0.5,2.2-0.8,3.2-0.8c1.1,0,2.2,0.4,3.1,0.9
				c0.1,0,0.1-0.3,0.1-0.3c0-1.8-0.1-3.4-0.1-5.2c0-0.1,0-0.4-0.1-0.4C173.3,31.5,172.5,31.2,171.9,31.1z M186.4,32.4
				c-1.3,0-2.7,0.5-3.6,1.4c-0.1,0.1-0.1,0.3-0.1,0.4c0,0.8,0.1,1.7,0.1,2.4c0.1,1.4,0.1,2.7,0.3,4.1c0.5-1,1.7-1.3,2.7-1.4
				c1-0.1,2-0.1,3.1,0c0-0.5,0-1-0.1-1.5c0-0.9,0-1.7,0-2.5c-0.1-0.9-0.1-1.7-0.1-2.5C188,32.4,187.2,32.4,186.4,32.4z M188.8,32.4
				c0,0.8,0,1.5,0,2.2c0.1,1.1,0,2.2,0.1,3.3c0,0.4,0,0.8,0,1.1c1.3,0,2.5,0.6,3.4,1.5c-0.1-0.8-0.1-1.7-0.1-2.4
				c-0.1-0.9,0-1.8-0.1-2.5c0-0.5,0-0.9-0.1-1.4C191.1,33.4,190.1,32.5,188.8,32.4z M180.2,35.1c0.1,1,0.1,2,0.3,3.1
				c0.1-1,0.4-2,0.5-3.2C180.8,34.9,180.6,34.9,180.2,35.1z M176.5,35.8c-0.6,0.3-1.3,0.5-1.9,0.9c-0.1,0.1,0,0.4,0,0.5
				c0,0.6,0,1.3,0.1,2c0.1,1.1,0,2.3,0.1,3.4c0,0.9,0,1.8,0.1,2.7c0.1,1,0,2.2,0.1,3.2c0,0.6,0,1.4,0,2c1-0.3,2-0.5,3.1-0.6
				c0.4-1.5,0.6-3.1,1-4.6c0.4-1.9,0.8-4,1.1-5.9c0.1-0.5,0-1,0-1.7c-0.1-0.9,0-1.9-0.1-2.8C178.9,35.2,177.6,35.4,176.5,35.8z
				 M192.7,35.2c0.1,1.8,0.1,3.7,0.4,5.5c1.1-0.1,2.3,0.1,3.3,0.8c-0.1-1.1-0.1-2.2-0.3-3.3c0-0.8-0.1-1.5-0.1-2.3
				C195,35.3,193.8,35.1,192.7,35.2z M170.6,37c-1,0.1-2,0.3-2.9,0.9c0,1.1,0,2.3,0,3.4c0.1,0.9,0.1,1.9,0.1,2.8
				c0.9-0.6,2-0.9,3.1-0.9c1.3-0.1,2.4,0.4,3.4,0.9c-0.1-1.4-0.1-2.8-0.1-4.2c0-0.6,0-1.4,0-2c-0.1,0-0.1,0-0.3,0
				C173,37.2,171.9,36.8,170.6,37z M186,39.4c-0.8,0-1.5,0.3-2,0.6c-0.4,0.3-0.6,0.6-0.9,0.9c0.1,2.2,0.3,4.2,0.4,6.4
				c0.6-0.8,1.7-1,2.7-1.1c1-0.1,2-0.1,3.2,0c0-1.1-0.1-2.2-0.1-3.3c0-1.1-0.1-2.3-0.1-3.4C188,39.3,186.9,39.3,186,39.4z
				 M189.1,39.3c0,1,0,2,0.1,2.9c0,1.3,0.1,2.5,0.1,3.8c1.4,0,2.5,0.8,3.6,1.8c-0.1-1-0.1-2-0.1-3.1c-0.1-0.8,0-1.7-0.1-2.4
				c0-0.5,0-0.9,0-1.4C191.7,39.9,190.4,39.4,189.1,39.3z M192.9,40.9c0,1.4,0.1,2.7,0.3,4.1c0,0.6,0,1.1,0.1,1.8
				c0.5,0,0.9,0,1.4,0.1c0.6,0.1,1.4,0.5,1.9,0.8c-0.3-2-0.3-4-0.4-6c-0.4-0.1-0.8-0.4-1.3-0.5C194.3,40.9,193.7,40.9,192.9,40.9z
				 M171.1,43.3c-1.1,0.1-2.3,0.3-3.2,1c0.1,1.8,0.1,3.7,0.1,5.5c1.1-0.6,2.4-0.9,3.6-0.9c0.8,0.1,1.4,0.3,2,0.5
				c0.4,0.1,0.6,0.3,0.9,0.6c-0.3,0-0.5-0.1-0.8-0.3c-0.8-0.4-1.7-0.6-2.4-0.6c-1.1,0-2.4,0.3-3.4,0.9c0,1.9,0.1,4,0.1,5.9
				c1.5-0.9,3.3-1.1,5-0.8c0.3,0,0.5,0.3,0.8,0.3c0.4-0.3,0.6-0.5,0.9-0.8c0-0.6,0-1.1,0-1.8c-0.1-1,0-2-0.1-3.1
				c-0.1-1.1,0-2.3-0.1-3.6c-0.1-0.8,0-1.4-0.1-2.2C173.4,43.7,172.3,43.3,171.1,43.3z M189.4,46.3c0,1.3,0.1,2.4,0.1,3.7
				c0,1.1,0.1,2.2,0.1,3.3c1.4,0,2.7,0.6,3.6,1.5c0-0.6,0-1.3-0.1-1.9c0-1.5-0.1-3.2-0.3-4.7c-0.4-0.6-1-1.1-1.7-1.4
				C190.6,46.4,190,46.3,189.4,46.3z M193.3,46.9c0,0.6,0,1.4,0.1,2c0.1,1.3,0,2.5,0.5,3.7c0.6,0,1.4,0.1,2,0.4
				c0.4,0.1,0.8,0.4,1.1,0.6c-0.3-1.9-0.3-3.8-0.4-5.7C195.7,47.2,194.5,46.9,193.3,46.9z M175.1,50.7c0.1,1.3,0.1,2.4,0.1,3.7
				c0.5-0.4,0.9-0.8,1.3-1c0.3-0.3,0.6-0.5,0.9-1c0.3-0.8,0.5-1.5,0.6-2.3C177,50.2,176,50.5,175.1,50.7z M193.9,52.9
				c0.3,1,0.5,2,0.9,2.9c0.3,0.5,0.5,1.1,0.9,1.5c0.5,0.6,1.1,1.1,1.7,1.8c-0.1-1.8-0.3-3.6-0.4-5.4C196.1,53.3,195,52.8,193.9,52.9
				z M193.6,53c0.1,2.5,0.3,5.1,0.4,7.6c0,0.4,0.1,0.8,0,1.1c0.6,0.4,1.3,0.9,1.9,1.3c0.1,0.1,0.1,0.3,0.1,0.4c0,0.5,0,1,0,1.5
				c0.1,0.1,0.1,0.1,0.1,0.3c0.4,1.4,0.8,2.7,0.8,4.1c3.3,0.5,6.6,0.9,10.1,1.4c-0.1-0.4-0.1-0.9-0.3-1.4c-0.4-0.8-0.9-1.5-1.5-2.2
				c-2.7-2.5-5.4-5.1-7.9-7.8c-0.6-0.6-1.3-1.4-1.9-2c-0.6-0.8-0.9-1.8-1.1-2.7C193.8,54.2,193.7,53.7,193.6,53z M186.7,53.4
				c-0.9,0.1-1.8,0.3-2.3,0.9c-0.3,0.3-0.4,0.4-0.5,0.6c0.1,0.9,0,1.9,0.1,2.8c0,0.8,0,1.5,0.1,2.3c0.6-0.6,1.4-1,2.3-1
				c1.1-0.3,2.2,0,3.3,0c0-1.9-0.1-3.8-0.3-5.7C188.5,53.3,187.6,53.4,186.7,53.4z M189.6,53.4c0,0.5,0,1,0.1,1.5
				c0,0.8,0,1.5,0.1,2.3c0,0.6,0.1,1.1,0.1,1.8c1.4,0.1,2.8,0.8,3.7,1.9c-0.1-1.4-0.1-2.7-0.3-4.1c0-0.6,0-1.1-0.1-1.8
				C192.3,54.1,191,53.4,189.6,53.4z M171.4,55.3c-1,0.1-2,0.3-2.8,0.8c-0.1,0.1-0.3,0.1-0.3,0.3c0,1.1,0,2.2,0,3.3
				c1.8-1.4,3.7-2.5,5.4-4C172.9,55.3,172.2,55.2,171.4,55.3z M185.9,60.4c-0.8,0.1-1.5,0.5-2.2,1c-0.5,0.4-0.6,1-0.8,1.5
				c-0.4,2.3-0.1,4.7,0.1,7c0.3-0.5,0.8-0.9,0.6-1.5c0-0.4,0-0.9,0-1.3c0.6-0.6,1.5-0.8,2.3-0.9c1.3,0,2.4,0.4,3.4,1.1
				c0-1-0.1-2.2-0.3-3.2c-0.1-0.9-0.3-1.9-0.4-2.8c-0.1-0.3-0.1-0.6-0.4-0.8C187.6,60.2,186.7,60.3,185.9,60.4z M166,65.6
				c-0.1,0.4-0.3,0.6-0.3,1c2.2,1.1,4.3,2,6.6,2.9c0.1-0.6,0.1-1.4,0.3-2c-1.5-0.4-3.1-0.9-4.6-1.3C167.3,66,166.7,65.8,166,65.6z
				 M168.6,68.5c0,0.3,0,0.5,0,0.8c-0.1,0.1-0.3,0.3-0.4,0.5c0,0.4,0,0.8,0.1,1c0.1,0.3,0.4,0.6,0.4,1c1-0.6,2.3-0.9,3.4-0.9
				c0.9,0,1.8,0.4,2.7,0.8c0.1,0.1,0.3,0.1,0.3,0.3H175c-0.8-0.4-1.5-0.8-2.4-0.9c-1.3,0-2.5,0.3-3.7,0.8c0,0.4,0,0.9,0.1,1.3
				c1-0.6,2.3-0.9,3.4-0.9c1,0,2,0.4,2.9,0.9c0-0.6,0-1.3,0.3-1.9C173.2,70.4,170.9,69.5,168.6,68.5z M192,69.1
				c-0.3,0-0.5,0.1-0.8,0.1c0.5,0.9,0.8,2,0.9,3.1c0,0.4-0.3,0.6-0.4,1c0.1,0.3,0.3,0.5,0.4,0.8c0.1,0.3,0.1,0.5,0.3,0.8
				c0.3-0.8,0.6-1.5,1-2.3c0-0.1-0.1-0.4,0-0.5c0-0.5,0-1,0.1-1.7C192.9,70,192.5,69.5,192,69.1z M188.1,71.8
				c-0.3,0.3-0.3,0.6-0.3,0.9c0.1,0.6,0.6,1,1.3,1.1c0.8,0.1,1.5,0.1,2.2-0.3c0.4-0.3,0.8-0.8,0.8-1.3c-0.1-0.8-0.9-1.1-1.5-1.3
				C189.6,70.9,188.6,71.1,188.1,71.8z M176,71.5c0,0.9,0.1,1.8,0.1,2.5c0.1,0.1,0.4,0.1,0.5,0.1c1.4,0.3,2.8,0.4,4.2,0.5
				c-0.1-0.5-0.4-1-0.5-1.5C178.9,72.7,177.4,72,176,71.5z M196.7,71.6c-0.1,0.4-0.3,0.9-0.4,1.3c-0.9,0-1.8-0.1-2.7-0.1
				c-0.4,0.8-0.6,1.4-1,2.2c2.5-0.1,5-0.3,7.5-0.5c0-0.8,0-1.4,0-2.2c-1.1-0.1-2.3-0.3-3.4-0.4C196.7,71.9,196.7,71.8,196.7,71.6z
				 M171.9,72.4c-1,0.1-2.2,0.3-2.9,1c0,0.3,0.1,0.6,0.1,0.9c1-0.6,2.2-0.8,3.3-0.9c1,0,2,0.4,3.1,0.9c0-0.3,0-0.6,0-0.9
				C174.2,72.7,173,72.3,171.9,72.4z M201,72.5c0,0.6,0.1,1.3,0.1,1.9c0.9-0.1,1.8-0.1,2.7-0.1c0.5,0,1.1,0,1.7-0.1
				c0.6-0.1,1.4,0,2-0.1c-0.1-0.4-0.1-0.8-0.3-1.1c-1.4-0.1-2.7-0.1-4.1-0.3C202.4,72.7,201.7,72.5,201,72.5z M172.2,73.7
				c-1,0.1-2.2,0.3-3.1,0.9c-0.3,0.1-0.1,0.5-0.1,0.6c-0.1,0.3-0.3,0.4-0.4,0.6c0.1,0.3,0.3,0.5,0.4,0.8c0.8-0.5,1.5-0.8,2.4-0.9
				c1.4-0.3,2.8,0,4,0.8c0.1-0.3,0.1-0.5,0.3-0.8c0-0.1-0.1-0.4-0.1-0.5c-0.1-0.3-0.1-0.5-0.1-0.6C174.3,73.9,173.3,73.6,172.2,73.7
				z M176.1,74.3c0.1,1.4,1.3,2.4,2.4,2.9c1.8,0.8,3.6,0.8,5.5,0.8c0.6-0.1,1.4-0.1,2-0.1c-0.4-0.1-0.8-0.1-1.1-0.3
				c-1.1-0.3-2.2-0.4-3.3-0.6c-0.3-0.6-0.4-1.4-0.8-2c-1.3-0.1-2.4-0.1-3.7-0.4C176.9,74.4,176.5,74.3,176.1,74.3z M195.7,75.2
				c0.9,0.1,1.7,0.4,2.3,0.8c0-0.4,0.1-0.6,0.3-1C197.4,75.1,196.6,75.1,195.7,75.2z M192.3,75.1c0.1,0.3,0.1,0.5,0.1,0.8
				c0-0.3,0-0.5,0-0.9C192.4,75.1,192.4,75.1,192.3,75.1z M192.9,75.3c0,0-0.1,0.1-0.1,0.3c0.4,0,0.9-0.1,1.3-0.4
				C193.7,75.2,193.3,75.2,192.9,75.3z M189.1,75.7c-0.5,0.4-0.6,1-0.4,1.5c0.3,0.6,0.9,0.9,1.5,1c0.9,0.1,1.9-0.3,2.2-1.1
				c0,0.1,0.1,0.3,0.1,0.4c-0.1,0.1-0.4,0.4-0.6,0.5c-0.3,0.3-0.8,0.4-1,0.5c0.3,0,0.5,0.1,0.9,0.1c0.4-0.4,1-0.9,0.9-1.5
				c-0.1,0-0.1,0-0.3,0c0.3-0.5,0-1-0.3-1.3C191.3,75,189.9,75,189.1,75.7z M195.5,75.3c-0.9,0-1.8,0.1-2.5,0.5
				c0.1,0.6,0.3,1.4-0.1,2c1.3-0.5,2.8-0.8,4.1-0.3c0.5,0.1,0.9,0.4,1.4,0.6c0-0.6,0-1.3-0.1-1.9C197.4,75.7,196.4,75.5,195.5,75.3z
				 M172.7,75.8c-1.1,0-2.4,0.3-3.4,0.8c-0.3,0.1-0.3,0.3-0.3,0.5c1.1-0.8,2.5-1,3.8-1c0.9,0,1.8,0.4,2.5,0.8c0-0.1,0-0.3-0.1-0.3
				C174.6,76.2,173.7,75.8,172.7,75.8z M172.7,76.4c-1.1,0-2.4,0.3-3.4,0.9c-0.1,0.1-0.1,0.3-0.1,0.4c0,0.4-0.3,0.8-0.3,1.1
				c0.1,0.5,0.3,1.1,0.1,1.7c-0.1,0.4,0,0.8,0.1,1.1c0.9-0.8,2.2-0.9,3.2-1c0.8-0.1,1.4,0,2.2,0.1c0.4,0.1,0.8,0.3,1.1,0.4
				c0.3-0.4,0.3-0.9,0.1-1.3c-0.9-0.5-1.8-0.8-2.8-0.8s-2,0.1-2.9,0.5c-0.3,0.1-0.5,0.4-0.9,0.5c0-0.1,0.1-0.3,0.3-0.4
				c0.8-0.5,1.7-0.6,2.5-0.8c1.3-0.3,2.7,0,3.8,0.6c0-0.1,0-0.3-0.1-0.3c-1.1-0.5-2.4-0.9-3.6-0.6c-0.9,0.1-1.8,0.3-2.5,0.8
				c-0.1,0.1-0.3,0.3-0.5,0.1c0.3-0.4,0.8-0.6,1.3-0.8c1.5-0.5,3.2-0.6,4.7,0c0.3,0.1,0.5,0.3,0.8,0.3c0-0.3,0.1-0.5,0-0.8
				c-0.1-0.4-0.3-0.8-0.3-1.1C174.6,76.9,173.7,76.5,172.7,76.4z M193.9,77.8c-0.8,0.1-1.7,0.4-2,1.1c0.4-0.1,0.6-0.5,1.1-0.5
				c1.1-0.4,2.5-0.6,3.7-0.3c0.5,0.1,1,0.5,1.5,0.8c0-0.5-0.5-0.5-0.9-0.8C196.4,77.5,195.1,77.5,193.9,77.8z M195.5,78.1
				c-1.3,0-2.5,0.3-3.4,1.1c-0.1,0.1-0.3,0.3-0.4,0.4c0.3,0.5,0.5,1,0.4,1.5c0.8-0.5,1.7-0.8,2.5-0.9c1.3-0.3,2.5,0,3.7,0.6
				c-0.1-0.6,0.1-1.1,0.3-1.7C197.6,78.6,196.6,78.1,195.5,78.1z M194.8,80.4c-0.9,0.1-1.8,0.3-2.5,0.8c-0.1,0.1-0.1,0.3-0.3,0.5
				c1-0.8,2.4-1,3.7-1c0.9,0,1.8,0.3,2.5,0.6c0-0.1,0-0.3,0-0.3C197.3,80.6,196,80.3,194.8,80.4z M172.7,80.8
				c-1.1,0.1-2.5,0.3-3.4,1c-0.1,0.1-0.1,0.3-0.1,0.4c0.4-0.1,0.8-0.5,1.1-0.5c1.3-0.4,2.7-0.5,4-0.3c0.4,0.1,0.8,0.3,1.3,0.5
				c0-0.1,0-0.3-0.1-0.4C174.4,80.9,173.6,80.8,172.7,80.8z M195.6,80.9c-1.1,0-2.4,0.3-3.4,0.9c-0.1,0-0.1,0.1-0.3,0.1
				c-0.3,0.6,0.1,1.3,0,1.9c1-0.9,2.3-1,3.6-1.1c0.8,0,1.5,0.1,2.3,0.5c0.3,0.1,0.5,0.3,0.8,0.4c0.1-0.1,0-0.3,0-0.4
				c-0.4-0.1-0.8-0.4-1.3-0.5c-1.4-0.5-2.9-0.3-4.2,0.3c-0.4,0.1-0.6,0.4-1,0.5c0.1-0.1,0.1-0.3,0.3-0.4c0.8-0.5,1.7-0.6,2.5-0.8
				c1.3-0.3,2.7,0.1,3.8,0.8c0-0.5,0.1-1-0.3-1.4C197.6,81.2,196.6,80.9,195.6,80.9z M172.5,81.3c-1.1,0.1-2.3,0.3-3.2,0.9
				c-0.1,0.1-0.3,0.3-0.4,0.4c-0.3,0.6-0.4,1.3-0.6,1.9c1.1-0.8,2.5-1,3.8-1c1.4,0,2.9,0.3,4.2,1c0.1,0,0.3,0.1,0.4,0.1
				c-0.4-0.9-0.8-1.7-1.1-2.5C174.6,81.6,173.6,81.2,172.5,81.3z M195.7,83c-1.3,0-2.7,0.3-3.8,1.1c-0.1,0.5,0,0.9,0.3,1.3
				c0.4-0.4,0.9-0.5,1.4-0.6c1.1-0.3,2.3-0.5,3.4-0.1c0.5,0.1,0.9,0.4,1.4,0.5c0.1-0.4,0.4-0.8,0.4-1.1c-0.5-0.1-0.9-0.4-1.3-0.5
				C196.9,83.1,196.4,83.1,195.7,83z M194.8,84.8c-0.9,0.1-1.9,0.4-2.7,1c-0.3,0.9-0.5,1.7-0.6,2.5c0.8-0.5,1.7-0.8,2.5-0.9
				c1.9-0.4,4,0,5.6,0.9c-0.4-0.8-0.8-1.7-1.1-2.4c0-0.1-0.1-0.3-0.3-0.3C197.4,84.8,196.1,84.5,194.8,84.8z"/>
		</g>
		<path d="M188.6,28.7c-0.6-0.4-1.4-0.5-2.2-0.4c-0.8,0.3-1.4,0.6-2,1.1c0,0.4-0.1,0.6,0,1c0.5,0,1-0.4,1.4-0.6
			c0.1-0.1,0.1-0.3,0.3-0.4c0.1-0.3,0.4-0.4,0.6-0.4c0.6-0.1,1.1-0.1,1.8,0c0.4,0,0.6,0.3,1,0.3C189.2,28.9,189,28.8,188.6,28.7z"/>
		<path d="M188.3,31.1c-0.4,0-0.8-0.1-1-0.1c0,0.3,0,0.6,0,0.9c0.4,0,0.8,0,1.1,0C188.5,31.6,188.5,31.4,188.3,31.1z"/>
		<path d="M189.9,31.2c-0.4,0-0.8,0-1-0.1c0,0.3,0,0.6,0.1,0.9c0.4,0.1,0.6,0.1,1,0.1C190,31.7,189.9,31.5,189.9,31.2z"/>
		<path d="M201.6,67.1c-1.3-0.3-2.4-0.5-3.7-0.8c0,0.8,0.1,1.5,0.1,2.3c1.3,0.3,2.4,0.5,3.7,0.8C201.7,68.6,201.6,67.8,201.6,67.1z"
			/>
		<path d="M176,85.9c-0.1-0.3-0.3-0.6-0.6-0.6c0,0.4,0.3,0.6,0.4,1c0.3,0.9-0.4,1.7-0.5,2.5c-0.1-0.1-0.3-0.5-0.5-0.4
			c-0.1,0.1,0,0.4,0,0.5c0.1,0.5-0.3,1-0.5,1.4c-0.3,0.4-0.4,0.9-0.5,1.3c-0.1-0.1-0.1-0.5-0.5-0.5c-0.4,0.5-0.5,1.3-0.5,1.8
			c0,0.5-0.1,1-0.3,1.5c-0.4-0.9-0.5-1.9-0.8-2.9c0-0.1,0-0.5-0.3-0.4c-0.1,0.1-0.3,0.1-0.4,0.3c-0.1-0.3-0.1-0.6-0.3-0.9
			c-0.1-0.3,0-0.6,0-0.9c-0.1-0.3-0.4-0.1-0.5-0.1c-0.1-0.5,0-1.1,0-1.7c-0.1-0.1-0.4-0.1-0.4-0.4c-0.1-0.6,0.3-1.3,0.5-1.8
			c0.1-0.3-0.1-0.4-0.3-0.3c-0.4,0.8-0.8,1.5-0.5,2.4c0,0.3,0.1,0.3,0.3,0.4c-0.1,0.6-0.1,1.3,0.1,1.8c0.1,0,0.3,0,0.3,0.1
			c0,0.4,0,0.6,0.1,1c0.3,0.4,0,0.9,0.3,1.1c0.1-0.1,0.4-0.3,0.5-0.4c0.1,0.4,0.1,0.6,0.1,1c0.1,0.9,0.4,1.7,0.6,2.4
			c0,0.1,0.1,0.3,0.3,0.4c0,0,0.1-0.1,0.1-0.3c0.4-1.1,0.3-2.4,0.6-3.6c0.3,0.1,0.3,0.6,0.6,0.9l0.1-0.1c0-0.4,0-0.9,0.1-1.3
			c0.1-0.6,0.8-1.1,0.8-1.9c0.1,0,0.5,0.1,0.5-0.1c0.1-0.4,0.1-0.8,0.3-1C176.1,87.4,176.2,86.7,176,85.9z"/>
		<path d="M198,89.2c0-0.1-0.3-0.1-0.4-0.1c0,0.1,0,0.3,0.1,0.5c0.3,0.5,0.5,1.1,0.4,1.8c-0.1,0.1-0.3,0.1-0.4,0.3
			c-0.1,0.5,0.1,0.9,0.1,1.3c0,0.1,0,0.4-0.1,0.4c-0.1,0-0.3,0-0.4,0c-0.1,0.4,0.3,0.6,0,1c-0.1,0.3-0.3,0.6-0.3,0.9
			c-0.1-0.1-0.4-0.3-0.5-0.4c-0.1,0.4-0.1,0.9-0.3,1.4c-0.1,0.6-0.3,1.1-0.4,1.8c0,0.1-0.1,0.1-0.1,0.3c0-0.3,0-0.5,0-0.8
			c-0.1-0.9-0.1-1.8-0.6-2.5c-0.3-0.3-0.4,0.3-0.6,0.4c-0.1-0.6-0.4-1.1-0.6-1.7c-0.3-0.4-0.3-1-0.3-1.5c0,0-0.1-0.1-0.3-0.1
			c-0.1,0.1-0.3,0.3-0.4,0.5c0-0.8-0.6-1.5-0.5-2.4c0-0.4,0.3-0.6,0.4-1c-0.1,0-0.3-0.1-0.3-0.1c-0.5,0.5-0.5,1.3-0.4,1.9
			c0.1,0.4,0.3,0.9,0.4,1.3c0,0.3,0.1,0.5,0.1,0.8c0.1,0.3,0.3,0,0.5,0c0.1,0.8,0.8,1.3,0.9,1.9c0.1,0.4,0.1,0.8,0.1,1.1
			c0,0.3,0.3,0.1,0.4,0c0.1-0.3,0.3-0.5,0.4-0.8c0.4,1.1,0.4,2.5,0.8,3.7c0,0.3,0.4,0.1,0.4-0.1c0.4-1.1,0.8-2.4,0.8-3.6
			c0.3,0.1,0.4,0.4,0.6,0.3c0.1-0.4,0-0.8,0.1-1.1c0.1-0.3,0.1-0.5,0.1-0.9c0.4-0.1,0.4-0.5,0.5-0.8c0.1-0.4,0-0.8-0.1-1.1
			c0.5-0.4,0.4-0.9,0.4-1.4C198.5,90,198.3,89.6,198,89.2z"/>
	</g>
	<g>
		<path class="st0" d="M178.3,24.6C178.1,24.5,178.1,24.5,178.3,24.6l-0.1-0.1c0,0.6,0,1.4,0.1,2c0.1,2.8,0.3,5.7,0.5,8.5
			c-0.1,0-0.3,0-0.3,0.1c0.1,0,0.3,0,0.4,0C178.7,31.6,178.4,28.1,178.3,24.6z"/>
	</g>
	<path d="M189.5,28.4c0-0.5,0-1.1-0.1-1.7c0,0.3,0,0.5-0.1,0.9c0,0.1,0,0.3,0,0.4l-0.1,0.1l0,0C189.2,28.2,189.4,28.3,189.5,28.4z"
		/>
	<path d="M173.8,110.3L173.8,110.3c0,1.1-0.1,2.2,0,3.3c0,0.8,0.1,1.7,0.1,2.4c0,0.6,0,1.3,0.1,1.8c0.1-1.5-0.1-2.9-0.1-4.5
		C173.8,112.4,173.7,111.4,173.8,110.3z"/>
	<path d="M180.9,122.6c-0.3-0.4-0.6-0.9-1-1C180.3,122,180.6,122.4,180.9,122.6z"/>
	<path d="M181.5,125.5c0.3-0.8,0.4-1.7-0.1-2.3c0,0.4,0.1,0.8,0.3,1.1c0,0.4-0.1,0.8-0.3,1.1c-0.8-0.1-1.5-0.1-2.3-0.3
		c-0.1,0-0.3,0.1-0.4,0.3c0.5-0.1,1.1-0.3,1.7-0.1c0.8,0.1,1.7,0.3,2.4,0.8c0.8,0.5,1.4,1.1,1.7,2c0.3,0.8,0.4,1.8,0.1,2.5
		c-0.3,1-0.9,1.9-1.8,2.5c0.4,0.3,0.8,0.5,0.8,1c0.3,0.8-0.1,1.5-0.8,1.9c0.8,0.3,1.4,0.9,1.7,1.5c0.4,0.8,0.4,1.5,0.3,2.3
		c-0.3,0.8-0.6,1.5-1.3,2c-0.6,0.5-1.5,0.8-2.3,0.8c-0.3,0-0.6-0.1-0.9,0c0.4,0.1,0.9,0.3,1.4,0.1c0.6-0.1,1.3-0.3,1.8-0.6
		c0.8-0.5,1.4-1.4,1.7-2.4c0.1-0.9,0-1.8-0.4-2.5c-0.4-0.5-0.8-1-1.3-1.4c0.4-0.4,0.6-1,0.5-1.7c0-0.5-0.4-0.8-0.6-1.3
		c0.6-0.4,1.1-1,1.4-1.8c0.8-1.7,0.3-3.7-1.1-5C183,126.1,182.2,125.7,181.5,125.5z"/>
	<path d="M164.2,128c0.1-0.4,0-0.9-0.3-1.3c0,0.4,0.1,0.9,0.1,1.3s-0.3,0.8-0.4,1.1C164,128.9,164.1,128.5,164.2,128z"/>
	<path d="M169.1,131.3c0-0.5,0.1-0.9,0.1-1.4c-0.1,1-0.3,2-0.4,3.1c-0.3,0.6-0.1,1.3-0.1,1.8C168.8,133.6,169,132.4,169.1,131.3z"/>
	<path d="M199.9,128.5c0-0.5-0.1-0.9-0.1-1.4c0.1,1,0.3,2,0.4,3.1c0.3,0.6,0.1,1.3,0.1,1.8C200.2,130.8,200.1,129.6,199.9,128.5z"/>
	<path d="M205.9,134.1c-0.4-0.3-1-0.4-1.5-0.4c-0.8,0-1.7-0.1-2.4,0.1c-0.4,0.1-0.9,0.3-1.3,0.5c0.4-0.1,0.9-0.3,1.3-0.4
		c0.8-0.1,1.5-0.1,2.2-0.1C204.8,133.7,205.3,134,205.9,134.1z"/>
	<g>
		<path class="st1" d="M176.9,33.9c0-0.1-0.1-0.3-0.1-0.4c0,0.3,0,0.5,0,0.8c0,0.3,0.1,0.6,0.3,0.9v-0.1
			C176.9,34.6,176.9,34.2,176.9,33.9z"/>
		<path class="st1" d="M174.8,34.2c0-0.1-0.1-0.1-0.1-0.3c0,0.9,0.1,1.7,0.1,2.5l0.1-0.1C175,35.6,175,34.8,174.8,34.2z"/>
		<path class="st1" d="M181.5,39.9c0,0.1-0.1,0.3-0.1,0.5c0,0.8,0,1.5,0.1,2.3c0-0.6,0-1.4,0-2c0.1,0.8,0.3,1.5,0,2.2
			c0,0.3,0,0.6,0,0.9c0-0.3,0-0.6,0-0.9c0,0.3,0.1,0.5,0.1,0.8C181.6,42.3,181.6,41.1,181.5,39.9z"/>
	</g>
	<g>
		<path class="st2" d="M181.5,42.7c0.3-0.8,0.1-1.5,0-2.2c-0.1,0.6,0,1.4,0,2V42.7z"/>
		<path class="st2" d="M183.4,47.9L183.4,47.9c-0.3,0-0.1,0.3-0.1,0.5c0,1.3,0.1,2.5,0.1,3.8c0.1,0.9,0,1.7,0.1,2.5
			c0-0.1,0.1-0.3,0.1-0.3c0-1.3-0.1-2.5-0.1-3.8C183.5,49.8,183.5,48.8,183.4,47.9z"/>
	</g>
	<g>
		<path class="st3" d="M181.7,43.6c0-0.3-0.1-0.5-0.1-0.8c0,0.3,0,0.6,0,0.9c0,0.9,0.1,1.7,0.1,2.5c0,0.5,0.1,1,0.1,1.5
			c0,1.4,0.1,2.7,0.1,4.1c0.1,1,0.1,1.9,0.1,2.9c0.1,2,0,4,0.1,6c0.1-0.5,0-1,0.1-1.4c0-1.3,0-2.4,0-3.7c-0.1-1,0-2.2-0.1-3.2
			c0-0.6,0-1.4-0.1-2c-0.1-1,0-2.2-0.1-3.2C181.8,46,181.7,44.9,181.7,43.6z"/>
	</g>
	<g>
		<g>
			<path d="M168.6,107.6c-0.5,4.8-0.9,9.7-1.4,14.5c-0.3,2.4-0.5,4.7-0.6,7.1c-0.1,0-0.3,0-0.4,0c0-0.3,0-0.5,0.1-0.8
				c0.1-1.3,0.3-2.4,0.4-3.7c0-1.8,0.4-3.7,0.5-5.5c-0.1-0.3-0.4-0.4-0.5-0.5c-0.3-0.6-0.5-1.1-1-1.5c0.1,0,0.3,0.1,0.4,0.1
				c-0.1-0.5-0.1-1,0-1.4c-0.4-1-1-2-2-2.7c-1-0.8-2.3-1.1-3.6-1.3c-1,0-1.9,0.1-2.9,0.4c-0.9,0.3-1.7,0.8-2.4,1.4
				c-1.4,1.3-2,3.3-1.7,5.2c0,0-0.1,0-0.3,0c0-0.5-0.1-0.9-0.1-1.4c0.1-1,0.4-2.2,1-3.1c0.4-0.5,0.8-0.9,1.1-1.3
				c1.3-1.1,3.1-1.7,4.7-1.7c1.7,0.1,3.3,0.5,4.5,1.7c0.8,0.5,1.1,1.3,1.7,2c0.4-0.8,1-1.3,1.7-1.8c0-0.9,0.1-1.8,0.3-2.7
				c0-0.6,0.1-1.1,0.1-1.7c0.1-0.5,0-1.1,0.1-1.7c0-1.3,0.3-2.4,0.4-3.7c0-0.5,0.1-1,0.1-1.5c0.1-0.6,0-1.3,0.1-1.9
				c0.4-1.8,0.3-3.7,0.6-5.6c0.1,0.4,0.3,0.9,0.1,1.3C169.3,100.1,169,103.9,168.6,107.6z M166,116c-0.4,1,0,2.4,0.9,3.1
				c0.1-1.5,0.4-3.1,0.4-4.7C166.8,114.7,166.3,115.2,166,116z"/>
		</g>
		<path d="M195.5,111.8c-0.1,0.3-0.1,0.5-0.1,0.8c0,0.8-0.3,1.4-0.1,2.2C195.3,113.7,195.3,112.7,195.5,111.8z"/>
	</g>
	<g>
		<path d="M200.3,105.5c0.1,1.5,0.3,3.1,0.5,4.6c0,0.9,0.1,1.9,0.3,2.8c0.1,1.3,0.3,2.5,0.4,3.8c0,0.4,0,0.8,0.3,1
			c0.4,0.4,0.6,0.8,0.9,1.1c0.3,0.5,0.4,1.1,0.4,1.8c0.9,0.1,1.9,0.3,2.7,0.8c0.9,0.4,1.7,1,2.2,1.8c0.6,0.8,1,1.8,1.3,2.8
			c0.6,0.1,1.4,0.3,1.9,0.6c-0.5-0.3-1-0.5-1.5-0.5c-0.5-0.1-1,0.1-1.4,0.1c0.3-0.1,0.5-0.1,0.8-0.3c-0.4-2.5-2.7-4.7-5.1-5.1
			c-0.6-0.1-1.3,0-1.8,0c0.3,3.1,0.6,6.1,0.9,9.2c-0.1,0-0.3,0-0.4,0c-0.1-1.7-0.3-3.3-0.5-5c-0.1-1.5-0.3-3.2-0.5-4.7
			c-0.1-0.9,0-1.8-0.3-2.7c-0.3-3.6-0.8-7.3-1-10.8c-0.3-2.4-0.4-4.8-0.8-7.3c0-0.9-0.4-1.8,0.1-2.5
			C199.8,100.1,200.1,102.7,200.3,105.5z M201.6,118.2c0,0.9,0.1,1.8,0.3,2.8c0.3,0,0.5,0,0.8,0
			C202.6,119.9,202.4,118.8,201.6,118.2z"/>
	</g>
	<path d="M174.8,98.9c0.1,1.7,0.3,3.2,0.4,4.8c0.3,2.9,0.5,5.9,0.9,8.8c0.3,2.4,0.5,4.8,0.6,7.4c0.4,3.3,0.6,6.8,1,10.1
		c0.1,0,0.3,0,0.4,0c0-0.4,0-0.8-0.1-1c-0.1-2.7-0.5-5.2-0.6-7.9c0.8,0,1.5,0.1,2.3,0.5c-0.1-0.3-0.4-0.3-0.6-0.4
		c-0.5-0.1-1.1-0.3-1.7-0.3c-0.3-3.3-0.6-6.6-0.9-9.8c0.1-0.1,0.4-0.1,0.6-0.1c0.6,0,1.1,0,1.8,0c0.4,0,0.8,0.1,1.1,0.3
		c1.3,0.1,2.4,0.9,3.3,1.8c0.5,0.5,1,1.3,1.3,2c0.1,0.5,0.1,1,0.3,1.7c0.4-0.4,0.1-1,0.1-1.4c-0.3-0.9-0.8-1.8-1.4-2.5
		c-0.8-0.8-1.8-1.4-2.8-1.7c-0.1-0.1-0.4,0-0.6-0.1c0,0,0,0-0.1-0.1c0.4-0.4,0.8-0.8,1.3-1c0.8-0.3,1.5-0.4,2.3,0
		c0.3,0.1,0.4,0.3,0.5,0.4c0.1-0.6,0.5-1,1-1.5c1.5-1.4,3.8-1.7,5.9-1.1c0.8,0.1,1.3,0.6,1.9,1c0.1,0.6-0.1,1.3-0.1,1.9
		c-0.1,1-0.3,2-0.4,3.1c0,0.8-0.1,1.4-0.3,2.2c-0.1,1.1-0.1,2.2-0.4,3.3c-0.1,0.8-0.1,1.5-0.1,2.2c-0.1,0.6-0.3,1.3-0.3,2
		c0,1.1-0.1,2.2-0.3,3.3c-0.1,1-0.1,2-0.3,3.2c0.1,0,0.3,0,0.4,0c0.5-5.1,1-10.2,1.5-15.3c0.4-3.8,0.8-7.5,1.1-11.3
		c-0.1,0-0.3,0.1-0.4,0.1c-0.1,1-0.1,1.9-0.3,2.9c-0.1,0.6-0.1,1.3-0.3,1.9c0,0.1-0.1,0.3-0.1,0.3c-0.5-0.8-1.4-0.9-2.2-1.1
		c-1.1-0.3-2.3-0.3-3.4,0.1c-1.4,0.4-2.5,1.3-3.3,2.5c-0.4-0.1-0.8-0.4-1.1-0.4c-0.9-0.1-1.8,0.1-2.4,0.8c-0.3,0.3-0.4,0.5-0.6,0.8
		c-1.1-0.1-2.2-0.3-3.3,0c-0.1-1.1-0.1-2.3-0.4-3.3c-0.1-1.4-0.3-2.7-0.4-4.1c-0.1-1.3-0.3-2.5-0.4-3.8
		C175.1,99.2,175,99,174.8,98.9z"/>
	<path d="M174.1,120.7c-0.1-0.9,0-1.7-0.1-2.5c-0.1,0.6,0,1.4,0,2c0,0.9,0.1,1.7,0.1,2.5c-0.1,1.1,0.1,2.2,0.1,3.3
		c0,1.3,0.1,2.5,0.1,3.8c0,0.8,0.1,1.4,0.1,2c0,0.8,0,1.7,0.1,2.4c0-1.1-0.1-2.2-0.1-3.3c0-1-0.1-1.9-0.1-2.9
		C174.2,125.8,174.2,123.3,174.1,120.7z"/>
	<path d="M194.7,118.8c0-0.9,0.3-1.7,0.3-2.5c-0.1,0.6-0.1,1.3-0.3,2c-0.1,0.9,0,1.7-0.1,2.5c-0.1,1.1-0.1,2.2-0.3,3.3
		c-0.1,1.3-0.1,2.5-0.3,3.8c-0.1,0.6,0,1.4-0.1,2c-0.1,0.8-0.1,1.7-0.1,2.4c0.1-1,0.1-2.2,0.3-3.3c0.1-1,0.1-1.9,0.3-2.9
		C194.3,123.8,194.6,121.2,194.7,118.8z"/>
	<g>
		<path d="M162.1,125c-0.4-0.1-0.6-0.3-1-0.3c-0.8,0-1.5,0.4-2.2,0.8c0,0.3,0,0.5,0,0.6c-0.8,0-1.7,0.1-2.3,0.6
			c0.4-0.1,0.9-0.4,1.4-0.5c0.5-0.1,0.9,0,1.4,0c-0.1,0-0.3-0.1-0.4-0.1c0-0.3-0.1-0.5,0-0.8c0.5-0.4,1.1-0.6,1.9-0.6
			C161.2,124.9,161.7,125,162.1,125z"/>
		<path d="M237.1,149c-0.1,0.6-0.5,1.1-0.9,1.3c0.4-0.4,0.5-0.8,0.6-1.1c0.1-0.5,0-1.1-0.3-1.7c-0.8-1.3-2.7-1.9-4.1-1.3
			c-0.1-0.9-1.1-1.3-1.9-1c-0.1,0.6-0.3,1.3-0.6,1.8c0.1-0.8,0.6-1.5,0.4-2.4c-0.6-1.7-2.5-2.5-4.2-2.2c-0.8,0.1-1.4,0.4-1.9,0.9
			c-0.4,0.4-0.6,0.8-0.9,1.3c0-0.6,0.5-1.1,0.9-1.5c1.4-1.1,3.6-1.3,5.1-0.3c0.8,0.5,1.3,1.3,1.4,2.2c0.5-0.4,1.3-0.5,1.7-1
			c0.8-0.8,1.1-2,0.8-3.2c-0.3-1-1-1.9-2-2.2c0.4-1.1,0.4-2.3,0-3.4c-0.3-0.8-0.8-1.7-1.4-2.2c-0.4-0.4-0.9-0.8-1.4-1
			c-1.1-0.8-2.7-1-4.1-1c-1.1,0.1-2.4,0.4-3.3,1c-0.6-0.8-1.5-1-2.4-1.1c0.1,1.4-0.3,2.9-1.4,3.8c0.6,0.1,1.3,0.4,1.7,0.8
			c0.6,0.6,0.6,1.8,0.1,2.5c-0.5,0.6-1.3,1-2,1c0,0-0.1-0.1-0.1-0.3c0.6-0.1,1.3-0.3,1.8-0.8c0.5-0.5,0.8-1.4,0.4-2.2
			c-0.3-0.4-0.5-0.6-0.9-0.8c-0.4-0.3-1-0.1-1.4-0.4c0.3-0.3,0.6-0.4,0.9-0.8c0.8-0.9,1-2,0.9-3.2c-0.3-1.3-1.3-2.4-2.4-3.1
			c-1.1-0.4-2.4-0.6-3.7-0.3c0.3,0.5,0.3,1.1,0.4,1.8h-0.1c0-0.9-0.3-1.7-0.8-2.3c0.3,0,0.5,0.1,0.8,0c1.3-0.3,2.7-0.3,3.8,0.5
			c1.1,0.6,2.2,1.7,2.3,3.1c0.6,0,1.3,0,1.8,0.4c0.4,0.1,0.6,0.4,0.9,0.6c0.5-0.1,1-0.5,1.7-0.6c2-0.6,4.5-0.4,6.2,0.9
			c1.5,0.9,2.8,2.5,2.9,4.3c0.1,0.8,0,1.5-0.1,2.2c0.9,0.5,1.5,1.3,1.9,2.2c0.5,1.3,0,2.7-0.9,3.6c-0.3,0.3-0.6,0.5-1,0.6
			c0.3,0.1,0.4,0.1,0.6,0.3c0.3,0.1,0.4,0.5,0.5,0.8c1.5-0.6,3.6,0.1,4.2,1.7C236.9,147.5,237.3,148.1,237.1,149z"/>
	</g>
	<g>
		<path d="M192.5,136.6c-0.3-0.1-0.6-0.3-0.9-0.1c-0.6,0.1-1.3,0.1-1.8,0.6c0.5-0.1,1-0.4,1.5-0.4
			C191.7,136.6,192,136.6,192.5,136.6z"/>
	</g>
	<g>
		<path d="M195.5,137.3c-1,0.4-1.4,1.7-1.1,2.5c0.1-0.5,0-1.1,0.3-1.7C194.8,137.8,195.2,137.7,195.5,137.3z"/>
	</g>
</g>
</svg>
