<?xml version="1.0" encoding="UTF-8"?>
<!DOCTYPE svg PUBLIC "-//W3C//DTD SVG 1.0//EN" "http://www.w3.org/TR/2001/REC-SVG-20010904/DTD/svg10.dtd">
<!-- Creator: CorelDRAW -->
<svg xmlns="http://www.w3.org/2000/svg" xml:space="preserve" width="84mm" height="53mm" version="1.0" style="shape-rendering:geometricPrecision; text-rendering:geometricPrecision; image-rendering:optimizeQuality; fill-rule:evenodd; clip-rule:evenodd"
viewBox="0 0 84000 53000"
 xmlns:xlink="http://www.w3.org/1999/xlink"
 xmlns:xodm="http://www.corel.com/coreldraw/odm/2003">
 <defs>
  <style type="text/css">
   <![CDATA[
    .fil0 {fill:#373535;fill-rule:nonzero}
   ]]>
  </style>
 </defs>
 <g id="Слой_x0020_1">
  <metadata id="CorelCorpID_0Corel-Layer"/>
  <path id="kalimantan" class="fil0" d="M69061.7 27685.6l-204.6 738.8 -1110 360.1 -332.1 -374.5 -161.4 42.5 301.3 1116.7 450.9 48.4 601.4 218.9 0 218.6 275.5 -48.3 401.4 -533.6 0 -436.8 225.8 -436.7 250.7 48.5 -301 -606.8 -46.1 -390.7 -351.8 34.9zm-23467.8 -7984.9l144.4 4.2 60.3 86.1 210.1 0 139.8 -49.3 47 54.4 -93 117.3 -410.2 13.6 -74.5 -94.4 -78.8 -45.2 54.9 -86.7zm554.6 -1778.1l-14.2 302.1 274.6 -80.7 125.9 -81 -37.3 -131.1 -130.2 -99.5 -218.8 90.2zm-1444.8 672.5l-9.6 113.2 410 198.2 195.7 72.4 -102.7 103.9 -228.6 22.2 -32.8 99.6 78.9 171 256 131.2 111.7 9.3 14.1 -293.7 167.4 -194 -457.1 -519.3 60.2 -176.2 107.3 -4.3 162.8 126.1 102.9 -49.5 32.7 -176.1 480.2 4.1 18.6 -270.5 -200.4 135.3 -587 -13.7 -382 189.8 -198.3 321zm373 -816.3l-298.6 94.4 14.2 243.4 70 86 354.2 -158.2 -139.8 -265.6zm-611.3 149l0 392.3 117 212 84.2 -9.5 144.4 -252.6 -84.3 -113.4 -32.6 -279.9 -111.7 -99.7 -117 150.8zm657.3 -627.3l14.3 423.8 148.6 297.8 559.1 9.4 251.4 -171 247.2 -94.5 -60.2 -270.7 56 -144.9 -125.9 -62.9 -172.8 13.7 -135.5 131.1 -568.6 4.2 -213.6 -136zm-521.6 -668.3l-181.8 131.1 -88.7 0 -60 180.4 214.3 239.3 14.2 189.7 -30.3 41.2 145 195.6 5.1 103.8 104.3 97.1 340 -99.6 -28.2 -464.8 -433.9 -613.8zm-57.5 1081.7l-4 -79.6 -117 -157.8 -189.2 257.1 37.2 108.2 154.1 27.3 118.9 -155.2zm644.7 -1672.4l-23.1 126 -512.9 410.4 428.8 604.4 274.5 184.5 494.3 0 163.1 -131.1 218.8 -27.2 163 94.4 288.7 -315.7 -55.8 -158.3 -293.3 -72.3 -200.1 -9.4 9.8 -270.7 -265.8 -401.7 -690 -33.3zm759.1 9.4l274.6 405.9 -23 230 98.4 4.1 233 -378.6 -280.1 -333.8 -158.4 -63 -144.5 135.4zm-459 -1239.4l-256.8 138.8 63.8 262.3 -237.5 480.9 1.9 212 111.6 68 715.8 34 200.1 -159.2 214.5 68.9 307.4 394.1 -225.1 388.1 267.6 75 349.7 -387.4 200.4 35 186 124.3 -163.9 207.6 221.6 332.1 235.5 0 121.3 -221.3 249.8 -48.6 7.3 -179.7 -464.2 -68.9 14.1 -193.1 450.1 0 485.4 -373.7 214.3 -179.6 35.4 -567 -956.8 -82.4 -392.2 -532 -271.2 -89.4 -328.5 13.7 -148.1 351.5 -673.2 8.4 -218.8 -96.9 -317.3 -15.5zm-2033.7 4879l-148 29 5.3 157.5 132.9 42.5 59.4 -47.7 -49.6 -181.3zm-15.2 -634l-128.3 -66.6 -438.6 66.6 15.2 113.9 394.3 190.6 59.2 62.2 103.7 14.5 -5.5 -381.2zm-1786.7 -2216.4l-54.7 133.5 14.9 145.5 211.7 237.6 333.2 -11.1 735.1 820.5 458.9 127.7 271.1 245.8 64.7 561.1 145.2 -81.8 125.8 -305.6 -31 -219.6 215.1 -18.7 31.2 -124.3 -606.9 -279.2 -575.7 -543.8 -229.5 -325.2 -55.9 -309 293.2 -67.2 -75.2 -203.5 -179.9 -145.6 -154.9 -6.7 -216.2 57.1 -203.7 274 -123.2 78.4 -190.3 -112.4 -203 72.5zm1995.9 166.6l-32.8 52 594.4 588.9 217.9 -308.1 -7.9 -121.6 -190.6 -222.3 -581 11.1zm72.6 -321.7l-312.7 247.7 -317.1 0 -38.1 214.5 145.3 36.7 72.6 -103.9 114.2 96.1 91.3 306.6 626.2 280.7 62.1 -68.1 -635.1 -629.6 64.5 -115.2 603.4 -22.2 61 -184.6 -393.2 11.1 -144.4 -69.8zm-72.6 -269.7l-224.9 129.3 -420.2 88.5 84.4 233.3 294.1 3.3 271 -217.8 -4.4 -236.6zm171.8 -203.6l-102.8 154.9 8.1 236.7 163.7 80.8 504.2 14.5 702.4 -568.4 3.7 -126.2 -76.3 -36.5 -507.5 221.2 -695.5 23zm-1427 44.3l-57.8 114.9 49.8 81.8 206.4 -41 175.4 0 190.3 155 404.9 -70.7 297.7 -170.2 76.1 -115 -11.6 -148.1 -267.4 -192.3 -358.8 3.5 -30.1 195.6 -377.4 177.3 -297.5 9.2zm1347.3 -254.4l61 51.9 8.2 88.5 675.8 -14.5 499.6 -206.9 -8 -210.2 -95.7 40.9 -137.2 -70.6 -84.1 -3.5 -221.6 85.2 -301.2 -69.8 -396.8 309zm-656.4 -192.4l263.1 0 129.3 0 209.9 143.8 388.9 -310.5 -377.4 -258.9 -373.7 -173.7 -256 44.2 -347.3 214.6 363.2 340.5zm-1374.8 383.9l-386.4 394.9 8 40.1 158.7 -47.8 142.6 190.7 240.9 -81.7 166.6 124.2 68.2 -37.4 205.5 -310 -52.4 -47.5 -202.9 -5.2 -98.2 -193.1 -250.6 -27.2zm2265.9 -3337.5l-186.7 142.3 93.9 208.5 165.4 -155 -72.6 -195.8zm-1510.4 806l-82.4 -3.4 -108 95.4 13.2 149 256.1 6.7 13.4 -168.6 -92.3 -79.1zm-413.5 -692.8l-367.7 390.7 -13.4 254.5 167.5 419.7 262.2 -47.8 -32.7 -343 180.7 -194 -3.6 -152.5 -127.6 -317.5 -65.4 -10.1zm-498.9 1394.2l316.3 -49.4 0 -214.5 264.9 -41.6 145.3 140.4 153.2 16.2 239.2 -99.7 213.3 57.9 188 156.8 25.6 586.4 188 239.9 -247.3 33.2 -410.2 247.7 34.6 82.5 366.7 330.3 -25.5 165.2 -341.2 165.1 -316.3 8.5 -77 156.5 -162.1 0.3 -77.1 -165.3 -281.8 -66.4 -8.8 -272.4 -239.2 -156.6 25.6 -198.3 -162 -214.5 42.6 -280.8 221.3 -99.8 -76.1 -527.6zm-844.2 735.4l-56.7 136.3 609.5 386.3 175.5 40 6.1 -183 -153.3 -165.1 -93.9 0 -128.4 -140.3 -358.8 -74.2zm751.2 -702.2l-401.2 189.8 85 74.2 8.9 189.8 -85.1 -16.3 -94 -140.4 -224.1 341.3 344.7 68.9 128.4 130.2 68.1 1.8 45.3 -294.6 217 -87.6 -93 -457.1zm-858.3 887.8l-195.8 46 -391.6 409.4 -117.8 7.7 -156.8 -106.5 -101.8 23 -78 234.8 -572.4 15.4 16.1 121.9 391.7 250 454.3 349.1 -7.9 417.1 -242.8 409.3 525.4 242.6 533 15.3 164.9 -182 336.6 7.7 94 83.3 336.6 -22.9 172.7 -212.8 -219.7 -250.4 -15.9 -159 47 -174.6 -109.8 -151.6 -188 52.9 -23.8 -136.3 415.4 -439.9 0 -265.6 -274.5 -151.5 -140.9 -23 -650.2 -409.4zm1543.9 2405.4l-172.6 166.9 -16 151.4 140.8 83.5 55.2 -7.6 30.7 -220.7 -38.1 -173.5zm-23.8 546.6l-234.8 113.8 30.9 440.2 187.9 30.6 140.9 -129.4 0 -417.1 -124.9 -38.1zm-1458.1 325.8l-140.7 45.9 30.7 121.9 204 0 85.9 -91.2 -179.9 -76.6zm-2672.6 -508.1l-55 736.3 -156.8 136 16.1 83.5 109.8 174.5 -70.9 212.9 117.9 38.1 274.5 -30.5 -15.9 -212.8 179.9 -986.6 -39 -136.1 -360.6 -15.3zm1544 -531.1l-1128.6 0 -227.7 -98.9 -109.8 7.9 -132.9 265.5 46.9 273.2 431.5 38.2 54.9 174.6 -187.8 1017.1 7.9 182.2 305.6 159.2 352.5 22.9 705.3 -166.7 344.7 -417.3 7.8 -424.6 611.3 -531.1 30.9 -234.9 -556.3 -7.7 -556.2 -259.6zm5589.7 -2574.1l75.2 132.8 17.8 141.5 -62.1 136.9 -141.7 262.2 -119.6 52 -155 -64.8 -93 4.1 -225.8 81.9 -257 -73.2 -416.4 -283.4 -407.4 -210.2 -163.9 -240.2 -31.1 -565.9 319 -266.5 416.4 -132.8 155 -17 -62 120.1 39.8 46.8 700.8 12.8 150.5 -4.3 248.1 365.2 -62 149.9 26.6 176.2 47.8 175.9zm-70.9 -720.8l133 210.1 -53.2 167.8 8.8 132.7 48.7 159.3 274.7 -149.9 340.9 8.6 239.2 94.4 606.9 0 177.1 -407.8 106.3 -154 0 -103 -380.8 -514.8 -336.7 -128.7 -274.7 -29.7 -239.2 73.3 8.8 231.5 -331.9 403.3 -327.9 6.9zm13.2 -986.6l-190.5 -4.2 -261.3 240.2 -221.3 0 13.2 300.4 -132.9 235.6 478.6 4.2 137.2 -16.7 137.2 159.1 314.5 -12.9 301.2 -368.5 -17.7 -218.8 -558.2 -318.4zm-372 -253.6l-133 -12.9 -239 275.1 0 128.4 79.8 29.8 155 4.4 256.7 -201.7 35.6 -69.1 -155.1 -154zm13.4 -347.3l-137.4 -4.1 -79.6 77.3 57.6 81.8 137.2 8.4 70.9 -98.6 -48.7 -64.8zm1001.8 317.5l-606.7 -94.5 13.1 326.1 562.7 330.2 230.2 -64.6 -13.2 -248.5 -186.1 -248.7zm-999.4 -2930.5l183.5 77.4 113.3 204.3 -113.3 141.2 -568.6 597.5 -97.4 315.1 130.2 456.2 438.4 314.9 584.8 -267.3 471.3 -62.9 438.4 -676.7 -325.1 -739.7 -309.2 -708.1 48.7 -456.3 -194.9 -31.6 -50.5 -332.8 -262.2 -411.1 -290.5 193.4 -114.3 448.6 -308.3 -178 -428.7 -100.4 -95.8 107.1 164.9 143 300.2 -5 241.9 375.5 43.2 595.7zm-803.3 -1052.2l173.6 154.1 325.1 0 178.9 330.3 48.8 566 -438.5 298.8 0 298.9 -309.2 409.2 -178.9 15.3 -243.6 393.2 15.9 378.1 422.6 298.8 -32.8 172.8 -162.1 235.7 -243.6 204.3 15.9 676.7 -373.8 125.9 -130.3 267.4 -178.7 -0.1 -97.5 -471.5 -406.7 -599.4 334 -537 23.1 -1327.1 230.4 -121.7 55.6 -759.2 656.5 -903.1 315.3 -106.4zm-5156.5 5274.7l-80.5 510.7 -715 252.1 -227.5 0 -162.1 -109.9 0 -94.4 357.8 -220.5 -97.5 -188.8 16 -267.4 309.2 15.3 141.8 -320.1 -18.8 284.3 240 183 236.6 -44.3zm-96.5 -432.3l-292.4 31.6 -15.9 251.8 194.9 126 210.9 -46.7 81.5 -141.4 -179 -221.3zm682 -1054.5l-162.1 235.7 64.6 94.6 373.9 -0.2 0 157.5 -97.5 125.9 64.7 330.4 210.8 393.2 162.2 361.8 259.5 94.4 113.4 189.1 -15.9 172.8 -162.1 94.4 -15.9 78.2 113.4 63.1 -97.5 126.1 -227.7 94.4 -438.5 -46.9 -682.9 298.8 -227.7 -109.7 650.3 -361.9 -81.5 -46.8 -341.1 -31.5 210.8 -298.7 32.8 -252 276.5 -31.5 -48.9 -487.7 -325 -15.4 -97.4 -109.7 16 -361.8 -195 15.4 195 -629.1 357.8 -252 115 109.1zm6142.5 -3995.6l179.1 -125.8 -16.1 -141.3 -113.4 -63.1 15.9 -172.8 97.5 0 0 -94.4 -422.5 -109.9 -633.4 63 -64.7 267.3 -146.2 -46.8 -97.3 -157.5 -309.2 15.3 -32.9 298.9 -146.1 62.9 -81.5 -157.5 -650.1 503.1 130.1 141.2 -243.6 109.9 -552.7 1053.7 -194.9 126 15.9 94.5 194.9 94.5 -48.8 204.2 -325 -16.2 -97.5 -109.8 -210.8 235.8 -130.3 94.5 -32.7 220.5 -113.3 62.9 -292.4 63.2 -146.2 440.8 97.5 723.6 113.3 330.2 130.3 126 292.2 -15.4 422.7 -393.3 161.9 -267.2 49 393.3 276.3 -471.6 15.8 -1321.9 225.1 -136.2 67.3 -729.5 682.2 -943.9 325 -109.8 146.2 -172.9 487.1 110.1 243.7 141.1 81.5 -393.2 406.6 -235.8 244.5 409.3zm2458.2 10869.6l109 75.8 -337.6 307.2 -161.1 -5 -119.6 -81 15.9 -150.6 244.5 -15.4 248.9 -131zm186.9 699.7l-140 428 181.6 513.3 208.4 -749.9 0 -160.8 -250 -30.6zm78.1 -478.3l5.2 165.8 -72.7 252 249.9 20.4 15.8 -357.5 -198.2 -80.7zm239 710l-217.8 730 -9.8 111.6 342.8 0 383.6 -325.1 9.7 -123.5 -156.8 -154.1 280.9 -223.7 -40.8 -207.9 -76.9 17.1 -234 160.8 -280.9 14.8zm1365.2 -1340.7l-138.3 656.1 -572.2 457.9 36.4 216.3 558.8 36.6 890.4 696.2 497.8 -13.6 13.3 -160.7 182.5 -188.3 255.2 138.7 33.6 -30.5 -493.5 -630.7 -234 -13.6 -310.8 -384 62 -282.6 94.7 -11.8 32.8 -125.1 -423.4 -428.2 -485.3 67.3zm-1562.6 348.9l-31.1 216.3 249.8 100.2 -10.6 599.2 249.7 -5.1 249.9 -181.2 93.9 -15.4 567 -433.3 114.2 -628.9 -1133.1 110.7 -119.5 251.9 -230.2 -14.4zm3306.8 2052l621 831.7 200.2 153.4 89.4 372.6 955.8 72.5 108.2 54.4 -107.2 459.8 -628.2 355.7 -918.4 267.1 -490 459.8 -581.8 -326 -352.7 296.2 -491 -770.4 -336.5 -148.2 -122.3 -177.7 0 -385.7 -1225 -1423.1 -46.1 -252.1 352.5 0.1 429 -355.7 14.9 -178 -122.2 -118.2 245.2 -192.6 521 30.1 888.5 711.3 524.4 -22.9 33.7 124.3 437.6 161.6zm-63 -516.5l-199.3 -103.8 -138 133.5 15 267.2 321.5 118.4 0.8 -415.3zm827.5 1008.5l-46 341.3 136.2 99.8 124.1 -11.1 46 -429.9 -107 -74.1 -153.3 74zm122.2 504l77.1 296.1 873.3 74.1 61.3 -607.7 168.2 -88.5 46.1 -222.1 -275.6 74 -306.4 445.2 -644 28.9zm387.2 1353.3l654.6 -362.5 116 -532 -143.5 -79.1 59.5 -570.3 124.8 -69.9 133.7 201.7 796.4 400.1 0 222.3 -964.7 1364.3 -443.8 14.4 -333 -589zm-2337.8 714.1l127.4 364.5 0 355.7 306.7 267.4 2159.6 -845.4 20.4 -232.2 -346.4 -597.7 -869 266.5 -498.8 471.5 -578.5 -328.4 -321.4 278.1zm-1177.3 -6812.6l-197.6 200.7 -726.3 -20.3 -436.1 -251.2 -425.1 -10.3 -488 332.1 -457.2 20.6 -41.6 250.9 -519 0 -207.4 181.4 0 100.5 125.1 100.3 0 110.7 -52.3 131.1 52.3 110.6 166.5 -79.9 166.5 171.1 -41.8 120.8 -61.8 80.9 93 100.3 457.1 90.3 321.6 -131.1 0 -190.7 155.8 29.8 374 211.3 404.7 -60.5 176.2 -161 114.3 40.1 0 181.4 155.8 -0.2 134.8 -251.1 1183.4 -120.8 516.4 -60.5 -136.4 -172 -2.5 -232.4 103.5 -119 -377.3 -291.1 20.3 -251.2 -207.2 0.1 -343.7 -161.7zm970 745.5l-108.1 108 10.7 171.3 134.7 181.3 477.4 502.2 -72.6 200.7 -83.3 0 -41.7 201 270.1 331.9 249 20.4 498.8 663.2 279.9 20.3 217.9 150.7 10.7 301.4 862 482.5 321.4 0 197.4 -160.8 249 -10.3 145.3 321.7 931 124.4 27.5 -328.6 308.3 -107.2 14.2 -117.6 -245.4 -321.6 -546.6 -422.3 287.1 -250.9 -20.4 -110.8 -359.6 -53.7 -152.5 -1166 -17.6 -268.1 -975.4 -358.3 -432.4 93.5 -241.7 285.1 -214.3 -13.6 -62.1 50.4 -477.5 -29.9 -602.4 -422.3 -224.2 -235.7 -102.6 23.9 -185.2 203.5 -326.8 -59.7zm155.9 -870.7l-89.5 146.3 417.2 526.1 145.3 -45.1 239.2 240.9 103.8 -422.2 259.5 40 -10.6 -120.7 -427.1 -359.3 -81.5 211.1 -556.3 -217.1zm-149.8 184.7l425.2 532.9 -124.8 140.4 -301.2 -50.3 -373.8 -321.7 20.3 -211 354.3 -90.3zm-1263.1 -487.7l289.6 363.5 361.4 160 222.3 -0.9 381.9 -99.6 95.7 -143.8 -1129.4 -406.1 -221.5 126.9zm16795.6 8536.5l105.4 159 19.4 182.2 277.3 29 336.7 -431.5 317 -85.9 168.4 -441.1 -78.8 -709.8 -326.9 -431.5 -344.6 -264.7 -438.5 -723.5 314.5 -505.6 -450 -496.3 -360.5 -15.2 -324.5 167.5 96.8 400.9 432.2 73.4 116.1 308.9 -152.3 95.3 9.5 76.7 1014.4 953.2 40 280 -61 885.2 -710.6 493.8zm-849.6 -3534.3l-214.4 104.7 -177.9 499 297.6 364.2 -49.7 402.5 49.7 19.8 495 -230.8 664.5 713.4 -16 449.5 144.4 74.8 357 -278.5 -29.1 -220.4 -1030.2 -940.5 9.6 -143.7 128.4 -86 -89.4 -240.1 -426.1 -67.3 -113.4 -420.6zm443.8 3110.4l362.4 371.9 674.1 -480.2 59.3 -757.5 -348.1 230.7 -180.7 -97 -245.4 -31.6 -137.4 -92.7 -66.3 3.5 -179.8 283.3 29.1 131.1 182.5 98 -22.1 266.3 -127.6 74.2zm-688.3 1360.1l178 383.7 39.8 498.9 238.4 355 575.1 335.3 217.7 19.6 -39.7 -345.5 -188.8 -441 -276.3 -564.1 -23.1 98.5 -333.1 -14.4 -239.3 -330.2 -148.7 4.2zm-237.4 -3828.5l287.1 354.9 0 431.5 99.1 47.6 456.3 -211.1 89.5 29 544.7 604.3 -19.5 413 -178 -29 -158.5 -96.2 -118.7 9.3 -208.2 335.3 39.8 182.2 168.4 86 -9.9 201.6 -118.5 58 -406.8 -269.1 0 -240 -168.2 -9.3 -69 105.5 -35.4 1074.3 263 461.2 466 431.6 -19.5 124.9 -248.1 -9.2 -227.7 -325.9 -238.3 0 -297.7 -230.7 -89.4 -239.9 128.4 -201.8 44.3 -182.1 140.1 -238.4 -6.4 -548 -341.9 -475.2 -14.2 -57.7 110.7 -107.3 -25.5 -377.2 -455.4 -554 53.1 -319.2 564.3 -228.9zm-52.2 2824.1l-245.4 -377.9 177.9 -240.1 -168.3 -297 -158.5 -29.1 -30 -498.6 -237.4 -441.7 -69.2 105.4 -158.6 258.8 -198.4 29 -99.1 -125.1 -49.8 -336.2 -148.7 -269.1 -606 -549 148.9 -94.4 27.5 -397.5 221.3 -357.6 95.6 -889.4 320.9 -210.3 10.7 -324.4 192.1 61.4 302.9 421.3 -224.9 463 151.5 363.4 374.8 141.5 68 395.8 503.3 74.8 -139.3 230.6 -634.1 240.1 -69.1 393.2 465.8 575.5 19.6 307.2 -108.9 105.5 9.7 96.3 347.3 489.3 9.7 508.3 -101.8 177zm-3000.4 -4301.7l-116.1 201.6 301.1 550 9 428.8 54.9 115 353.5 5.9 200.2 -184.7 145.4 84.3 29.2 261.2 115.8 -69.7 7.3 -333.7 -97.4 -11 -61.1 -283.6 -246.4 -8.5 -61.2 -157.4 150.6 -193.3 2.7 -95.3 -437.5 0 -350 -309.6zm-15 -428.3l137.2 180.6 464.1 3.4 -46.7 -247 -554.6 63zm-2144.7 -469.8l40.9 363.4 715.6 311.6 1147.2 81.7 -43.4 -266.4 -766.3 -202.5 -650 -372.1 -444 84.3zm-18.7 5996.5l405.8 -190.6 240.9 -837.7 -10.6 -1028.2 1380.2 -1431.7 0 -339.5 284.3 -106.4 -10.6 -392.3 -306.6 -572.9 175.5 -307.2 383.6 339.6 492.5 21.2 0 190.8 -153.2 159.2 32.7 85.1 263 10.1 55.1 285.8 77.1 0 197.6 -339.6 98.2 -890.2 328.7 -223.1 10.7 -307.2 -131.1 -244.3 -208.3 -10.3 -814.9 517.6 51.3 332.8 -572.2 -1.6 -202 -237.6 -109.8 13.6 37.1 330.3 -1237.5 -85.1 -767.1 -328.6 -40.8 -404.4 -511 -304.8 -6.2 -627.2 -350.8 -385.6 -806.3 74 87.9 337.2 395 307.4 -683 1343.1 -457.1 33.1 -75.3 161.8 449.9 400.1 -22 404.2 -459.9 -6.8 -49.6 200.8 381.8 -16.1 10.7 159 -273.6 138 175.4 318.3 339.1 106.5 208.3 -148.2 98.2 -264.7 120.6 -52.8 142.6 138 -43.5 339.5 -98.3 159.2 22.3 275.7 1455.2 2902.7zm-4238.7 -5376.9l230.4 328.5 -22.2 169.7 -306.5 116.5 -22 275.6 350.7 0 120.4 -95.2 667.9 0 602.4 508.9 77 -244.3 449.3 0 10.6 -307.1 -459.9 -424.1 98.5 -233.1 471.3 -31.6 635.1 -1272.4 -350.8 -264.7 -131.1 -445.2 853.9 -74.1 -504 -689.4 -268.4 -69.8 -109.9 127.6 -82.4 6 -503.9 307.3 164.7 265.5 -186 190.8 -230.4 816.1 -569.6 349.9 -77.1 382.2 -908 306.4zm-798.2 -1939.8l141 1060.5 350.8 74.2 32.9 190.5 -251.7 201.8 468.6 363.5 910.6 -315 72.7 -372.6 573.1 -344.1 219.7 -796.6 164 -169.4 -170.2 -284.2 554.6 -329.5 -70.9 -95.3 -256 15.3 -23.1 226.5 -343.7 -3.5 -6.1 -302.2 -110.9 -126.8 -185.9 162.6 5.3 148.9 -280.7 102.3 -518.2 -31.6 -673.4 677.6 -602.5 -52.9zm2010.1 -2369.7l-27.5 215.4 22.3 132.7 770.5 248.6 -676.7 262.2 -77.2 -61.2 -146.1 90.1 7.1 49.3 78 34.2 474.8 11.9 241.1 -69.9 309 -374.4 387.1 64.7 466.9 -621.4 -1249 -163.6 -172.7 402.7 -217.9 -224.6 -189.7 3.3zm-586.5 1075.1l364.2 -434.1 137.2 0 47.8 97 -168.3 117.5 0 97.1 110.8 76.5 532.4 30.8 173.7 -71.6 78.9 15.2 53 163.4 316.3 30.7 158.6 321.9 -47.9 96.9 -62.9 5.2 -63 -122.6 -137.2 -10.4 -237.5 30.9 -15.9 214.4 -237.4 -15.5 10.7 -270.5 -173.7 -163.6 -263.9 209.6 5.4 137.7 -232.3 76.7 -137.2 0.1 10.6 -475.1 -222.4 -158.2zm-112.4 614.5l272.8 13.5 0 -448.4 -258.6 -144.8 435.8 -527.7 177.2 0 177 198.5 463.4 -171.2 -640.4 -211 -24.8 -127.7 -152.4 35.6 -149.7 250.3 -645.8 -20.3 -473.9 -644.5 -832.7 79.3 -396.8 -378.1 -549.1 -89.3 -398.6 155.7 231 739 2.6 248.4 168.4 3.4 206.4 -377.8 549.3 6.7 81.4 290.4 1177.3 750.5 455.3 100.6 124.9 268.9zm-3106.7 -976.3l-54.9 223.8 -367.7 0 0 303.2 395 250.2 -122.2 343 0 158.3 164 26.4 217.9 -276.6 490.8 -105.5 1048.8 382.1 13.4 276.8 585.4 52.7 653.8 -659.7 -81.4 -211.1 -435.9 -92 -1226.1 -765.2 -54.7 -276.8 -463.4 0 -204.8 369.6 -204.5 0 -353.5 0.8zm-1520 -1614.6l363.3 -149 405.5 -13.6 28.5 595.8 -237.6 0 -181.5 284.4 237.5 378.7 349.9 189.7 31.8 217.2 128.5 -40.9 118.5 -135.4 195.9 41 98.4 189.7 251.7 0 0 -243.5 -154.2 -433.1 -70.1 -351.7 447.3 -189.7 601.5 94.4 377.4 365.2 853 -80.8 475.8 649.5 558.9 27.2 154.2 -243.4 195.7 -41 28.4 -270.6 293.2 -13.6 154 176.2 154.1 -351.6 1328 176.2 223.4 -284.2 -377.4 -446.8 503 -1055.5 405.7 27.1 280 -649.3 -558.9 -54.5 -321.6 -297.9 -885.8 98.7 -1141 -1059.8 -402.3 343.1 -1219.7 -532 -1496.1 704 -41.9 500.4 350.1 392.4 -682.3 370.4 -884.7 -18.9 -185.2 -261.3 -693.7 -36.5 -657.1 406 -14.3 554.8 612.2 472.5zm18748.7 815.4l547.4 428.8 93.1 415.5 -18.5 223 -267.6 289.6 -230.4 11.8 -261.2 -542.2 -99.2 -258.8 105.5 -78.4 -24.8 -107.9 -130.3 -56.2 286 -325.2zm-891 -334.4l162.9 65.5 49.7 548 323.3 17.9 304.7 -343 -105.4 -90.4 12.4 -367.5 279.8 -325.3 -142.6 -246.7 93 -102 51.4 -255.6 -162.1 -70.5 -138 67.1 -171.1 498.8 -276.4 -22.9 -319.8 362.6 38.2 264zm-9255.4 -2051.5l515.7 -657.2 619.2 275 420.7 108 515.6 -454.4 -350 -247.8 230.4 -312.3 687.3 233.2 238.3 375.4 430.6 11.1 225.1 -161 463.2 -17.7 100.8 165.1 770 37.5 487.2 -477.5 674 68 -38.9 650.3 295 64.6 362.3 -158.3 383.6 182.2 -8.9 92 -278.1 7.6 -289.7 583.9 -225 21.4 -875.2 1098.9 -893.8 378.6 -558.9 41.6 -464.2 -287.6 -593.5 304.8 -584.7 -174.5 -165.6 -407.8 -1107.4 -74.8 -566.9 -923.7 -275.6 -16.9 -142.6 -327.7zm-301.2 -8.4l-306.4 740.4 -422.7 -21.2 -445.5 937.2 378.1 463 -779.4 1034.1 -400.3 -64.7 -267.6 323.5 66.5 194.1 311.8 21.1 155.9 344.8 311.8 64.8 957.7 1185.7 0 603.3 467.7 280.1 512 -85.8 645.6 365.9 779.6 215.3 378.3 -43.3 423.4 -43.3 890.3 -560.1 289.7 43.3 110.6 252.7 245.4 70.7 334.1 474.1 -222.3 474.1 133.6 323.5 378.3 129.4 66.5 388.2 445.6 43.3 66.3 -194.1 645.8 -323.5 400.5 21.3 467.6 495.4 311.9 -129.4 200.2 21.4 89.5 237.3 155.8 21.4 222.3 -301.3 890.4 -323.5 801.6 -927 267.6 -883.5 -22.1 -582.1 -334.1 -64.8 200.3 -215.3 -44.4 -344.8 -845.9 -818.8 0 -409.4 244.6 -301.3 244.5 -108.1 22.1 -237.5 -623.7 0 -111.7 323.5 -289.5 -64.7 -356.1 -365.9 222.3 -560.2 311.8 -323.4 289.6 21.2 -44.4 495.3 156 129.6 378.4 -366.1 133.6 -21.2 -44.3 -280 356.1 -409.4 267.7 21.2 155.8 -474.1 182.6 -92.8 18.5 -295.3 -177.2 -178.7 -15.1 -466.6 341.1 -21.2 -22.2 -1202.7 -239.1 137.8 -89.4 308.2 -399.7 -0.9 -1157.7 -625.5 -836.3 -968.7 -848.6 -8.6 -216 180.4 274.4 604.4 -95.7 566.9 -341.8 136.3 -192.2 -14.5 -14.3 560.8 200.4 43.5 356 -150.7 467.6 215.4 0 215.4 -333.9 21.1 -267.5 560.1 -244.6 21.3 -868 1099 -912.4 388.1 -623.8 43.4 -422.4 -280.2 -601.6 302.2 -645.6 -194.1 -156.1 -409.3 -1090.4 -64.8 -578.5 -904.8 -244.3 0.1 -196.6 -419.6 -234 -17.8zm13072.3 -8268.4l156 517.5 311.8 85.9 311.8 -474 -178 -323.3 66.3 -280.2 467.9 0 -111.6 215.4 44.2 776.2 -667.9 1595.1 66.5 344.9 -22.3 582 1246.4 1745.7 244.6 64.8 22 -1422.3 244.6 -215.2 -267.5 -560.2 222.4 -237.4 -489.9 -624.9 -267.4 21.4 -88.8 -1034.2 690 -172.8 44.4 -302.2 356 -85.9 200.4 172.6 244.5 -948.1 422.7 -689.5 333.8 -172.9 289.7 21.5 0 -323.6 -467.7 -86 -645.8 -517.4 311.8 -344.8 -267.6 -582.2 222.4 -215.3 267.7 344.6 667.9 237.6 734.3 64.7 89.5 -301.1 -378.3 -366.2 422.5 -560 -957.5 -323.7 -244.6 474.4 -311.8 -388.2 -1758.4 -582.2 -1669.8 280 -244.5 129.3 0 129.3 356.2 172.8 -44.4 409.6 -645.9 -258.8 -1424.4 538.8 -244.4 -495.4 -979.8 0 -445.5 452.8 -1580.4 -344.7 -1446.7 280 -178 430.7 222.4 64.8 -22.2 323.4 -1402.3 150.6 89.5 430.8 -1291.6 -215.4 311.8 -560.1 -1313.7 -64.7 111.6 582.2 -422.5 194.2 -356.1 -323.7 -1446.4 237.6 -556.5 495.3 -22 301.4 -356.3 21.2 -44.2 -344.7 1135.7 -948.1 0 -647.1 -734.5 -193.9 -957.5 301.2 -400.4 -388 -178.1 0 -222.3 430.6 178 194.2 -1269.4 668.1 -1090.4 797.6 -668 883.5 0 365.9 712.3 280.2 -356.2 258.8 -756.5 -258.8 -311.8 258.8 -467.7 -517.6 -89.4 194 512.1 1551.7 133.6 43.3 356.1 -172.5 178.1 129.2 0 280.2 -334 -129.4 -200.3 150.6 133.9 280 -111.6 732.9 -690.1 64.8 -44.3 -237.6 400.4 -237.5 89.5 -647 -445.8 -560 -155.8 -969.4 -712.3 -108.1 -66.4 344.8 133.9 172.8 -289.7 237.4 111.6 646.8 422.4 172.9 89.6 474 -423.5 -258.8 -1090.5 -193.9 -133.6 344.7 -868.2 301.2 -133.8 -215.3 -1135.7 603.5 -22 409.5 -445.6 64.4 133.7 -301.1 0 -301.3 -445.6 -150.7 -289.7 108.2 244.5 452.6 178.1 301.4 0 237.6 -334.1 -64.8 -66.3 -64.5 -334.1 344.4 178.2 301.5 -756.5 -21.3 244.7 302.2 -66.6 129.4 -400.3 0 -289.9 -194.1 -66.3 -538.8 -467.8 -172.9 0 -215.3 979.7 194.2 534.2 43.3 222.5 -323.4 -200.3 -344.8 -1424.4 -538.8 -491.7 117.6 -168.2 138.7 52.1 319.2 209.3 34.8 -49 502.2 645 1455.5 -466 709.9 -31.8 159.9 236.5 160.1 -213.6 135.4 -141.7 2.5 26.7 625.6 195.7 266.3 2.6 258.9 250.8 22.1 383.6 140.5 405.7 536.2 4.3 141.3 -131.8 217.1 302.9 -16.3 295 81.8 398.6 542.1 981.4 86.1 -42.3 645.1 -338.5 278.4 70 108.9 -333.9 344.8 -88.6 323.3 200.2 280.1 645.8 215.4 267.3 -150.7 1714.2 624.8 66.4 -173 -356.1 -323.3 0 -409.3 -222.4 -64.8 44.4 -344.7 356 -409.4 -638.5 -459.7 44.2 -639.2 683.1 -431.4 801.6 43.3 133.7 237.5 823.9 43.4 601.4 -323.5 -311.9 -323.3 66.5 -603.6 1558.2 -733 1198.6 519.3 400.3 -344.5 1180 1077.4 890.4 -85.9 311.7 301.3 846.1 86 556.3 -733.1 712.2 302.3 378.3 64.8 378.1 -323.5 -333.9 -215.3 289.6 -430.6 824 258.5 178 344.8 356.1 21.2 222.3 -150.6 601.5 -21.3 66.4 150.7 690 43.4 467.9 -474.1 957.5 108.1 289.6 -108.1 88.8 -517.5 -289.9 -624.7 289.9 -237.5 912.3 0.1 868.1 991.5 1112.6 603.5 334 0 44.2 -258.7 400.6 -237.5 44.3 1401 -356.1 21.4 0 344.5 200.1 237.6 -37.2 308.3 148 58.5 89.5 -215.3 133.6 43.4 88.6 85.9 400.4 -85.9 400.4 -1121 44.3 -1401 -512 -1121 -645.9 -754.2 -311.7 43.5 0 237.4 -756.4 -280 289.5 -603.5 244.6 -1595 1024 -301.4 489.8 -301.3 534.3 0.1 -133.8 172.7 133.6 215.3 467.8 -474.1 267.6 21.3 -44.4 -280 -423.4 -86 289.8 -1013 381.6 -347.2zm-54338.3 17829.6l-4.4 310.6 74.3 0 253.5 -454.4 -171.9 0 -151.5 143.8zm9715.8 13316.7l553.7 -1023.2 20.4 -859.8 1032.9 -639.9 578.4 0 454.6 -739.8 82.3 -1419.7 -185.9 -379.8 1094.8 -960 41.6 -1059.8 -1487.2 -699.6 -1796.5 -539.6 -847 -80 227.6 -459.6 -61.8 -699.8 -185.3 -58.7 -273.6 522.5 -143.6 173 -368.5 -156.7 -1239.3 419.6 -412.7 -499.7 66.3 -521.7 -389.7 381.2 -430.5 -223.1 -43.5 59 0.9 181.3 371.1 191.6 -557.1 564.1 -351.7 -3.3 -356.2 -348.1 -403 11.9 -49.7 413.6 231.4 269.9 -272.9 839.9 -318.8 24 -507.8 308.1 -123.7 605.2 440.1 452.9 80.6 -87.7 309.1 -80 264 427.3 755.7 -311.5 293.1 16.1 202.2 686.9 1078 328.6 186 548 458.9 52.8 218.8 523.5 -148 465.7 193.2 243.4 -28.5 362.7 517.3 -47 473.9 575.3 -36.9 404.4 280.5 228.3 -673.2 979.7 1185.2 637.6zm-4602.7 3088.8l-114.2 165.9 57.5 288.5 114.3 11.1 57.6 -365.9 -115.2 -99.6zm1887.7 3191l-284.2 302.3 -34.7 354.8 -550.2 -299.5 -584.6 -809.6 -171.8 -288.4 241.1 -299.7 -23.1 -377.1 -274.8 -110.6 -217.9 -154.9 46 -211.1 286.3 -77.6 57.5 -1219.6 -446.4 -244.3 -291.4 -6348.9 75.2 -126.1 570.5 1264.1 182.4 3.4 59.4 201.7 -242.7 282.7 -279.1 1521 397 1171.1 -183.5 887 646.7 2607.9 68.2 1525.4 463.3 515.1 490.8 -69.1zm472.2 524.4l23 487.7 389.7 -33.3 332.3 -210.9 -561.6 -110.8 -183.4 -132.7zm-343.7 -399.2l-378.4 798.4 653 66.3 11.4 -531.9 -286 -332.8zm1809.8 -8162.7l171.8 154.7 -652.9 932.2 -229.4 244.3 79.6 1064.8 504.1 588.1 -423.4 709.9 -320.6 132.9 -366.7 0 102.7 554 -573.1 189.1 137.2 465.3 -343.7 1053.8 424.4 333 -229.5 543 -389.8 588.1 206.4 410.3 -503.9 77.5 -413 -487.8 -69.1 -1519.4 -641.3 -2580.6 194.1 -902.3 -412.9 -1153.5 274.6 -1497.2 252.5 -288.5 -61.9 -218.7 324.2 -284.3 722.7 47.6 403.9 414.7 466.9 7.6 478.5 280.8 -140.8 316.7 33.6 320 677.6 -30.7 317.2 -465.4zm-452.8 1168.6l-181.5 186.3 75.3 1002.7 570.5 159.2 725.4 -698.9 -1189.7 -649.3zm-761.8 -2759.6l194.8 204.3 -22.9 432.4 561.6 -33.2 424.4 521.8 -34.7 465.7 -274.4 399.2 -561.9 22.2 -22.9 -222.4 160.5 -366 -550.2 -332.7 -458 0 -343.7 -355.1 249.8 -685.9 677.6 -50.3zm-2927.6 -2274.3l729 -305.6 240.9 22.1 160.4 643.5 1111 355 183.2 543.8 457.9 55.5 194.9 465.6 -137.2 421.3 -745.1 55.4 -274.6 676.5 -584.6 -11 -183.4 -33.2 -337.5 315 -166.5 -15.3 -573.1 -1276.1 158.4 -227.9 56 -902.4 -141.8 -537 -147.9 -245.2zm-2983.5 -1980.7l-171.9 166.9 11.5 266.3 1500.7 2628.4 1558.1 965.4 240.8 -388.2 57.8 -853.8 -125.9 -531.9 -424.4 -687.7 -252.4 77.4 -114.1 121.7 -504.1 -555 125.6 -654.4 584.7 -366.1 -45.9 -343.8 -595.5 -22.2 -309 -498.7 -172 -55.4 11.6 299.5 -767.1 875.9 -573.4 -132.7 -35.1 -311.6zm457.8 -1163.7l-418.9 250.4 -30 371.2 -84.4 121.6 264 243.5 -114.2 120 26.7 306.4 472.1 108.1 714.8 -812.7 -1.7 -283.6 -342.9 -21.2 -485.5 -403.7zm6371.9 -1195.7l518.4 310.6 -271.1 517.7 -98.5 118.9 -287.8 -159.1 7.8 -557.4 131.2 -230.7zm-797.1 -56.1l180.7 159.1 279.9 -166.8 255.1 7.7 -32.7 95.3 -107.2 214.5 -17 533.6 -509.2 199.1 24.9 -342.1 -328.9 -294.5 16.9 -151.5 237.5 -254.4zm-715.9 -596.8l639.6 556.8 -254.2 282.5 -20.4 167.5 334 331.2 -8 318.3 -581.1 213 -348.3 -452.1 74.5 -543 -148.9 -404.4 312.8 -469.8zm-3064.2 -698.8l39.2 220.5 287.9 87.6 65.5 -405.9 303.8 -302.2 303.7 342.1 699.2 183 591.7 -119.2 403 477.6 303.8 183 -333 487.7 111.6 369.4 -190.5 226.5 -197.4 159.1 -427.8 -206.7 -98.5 95.2 0 294.6 312.7 142.8 -230.2 239.4 -230.4 239.2 -303.9 -23.9 -305.5 -322.7 -64.7 -1213.8 -1043.6 -342.1 -189.6 -533.6 193 -277.6zm289.8 -522.6l-182.6 -17.9 -1206.4 955.8 -127.5 336.3 -164.9 17.9 73.6 743 -420.7 991.6 457.1 371.9 585.4 35.9 402.2 566.8 584.7 17.9 -18.6 424.7 218.9 0 237.3 -778.7 -219.7 -265.6 54.9 -495.4 457.2 -35.8 -55.1 -1150.9 -1024 -318.2 -237.4 -619.5 585.6 -779.8zm-2935.6 836.7l-129.3 388.2 426.8 106.3 264.9 50.3 45.1 -300.5 284.5 -137.8 252.3 125 99.3 152.4 120.6 -13.7 94.7 -276.6 -315.3 -125.2 -239.3 -125 -239.2 156.6 -284.2 137.9 -290.7 -112.4 -90.2 -25.5zm-284.5 -394.2l123.1 231.7 100.1 127.6 -134.5 383.9 -256.9 -173.6 -420 -369.6 0 -244.2 588.2 44.2zm32 -1095.4l194 37.5 6.1 382.2 -226 619.7 -608.5 -57.9 -135.3 -298.7 180.6 -362.7 342.8 -306.4 246.3 -13.7zm-1425.4 354.1l416.3 199.3 -6.1 -316 -213.5 -125 -196.7 241.7zm522.7 -637.5l818.5 -29.6 242.7 277.3 -151.5 -33.3 -291.4 11.9 -380.9 344 -162.9 348 -107.3 -54.5 -0.8 -381.3 -235.7 -151.5 269.3 -331zm-1122.4 233.4l525.3 369.3 529.7 -632.3 -90.3 -131.2 -180.8 -6.2 0 -370 -135.5 -79.3 -410.1 117.5 156.9 347.2 -395.2 385zm-4910.2 -12220.5l-135.6 51.1 248.9 277.4 60.3 328.7 248.9 255.3 210.9 -36.7 0 -335.3 -256 -153.3 -377.4 -387.2zm-497.9 -1663.2l-150.7 277.5 52.5 196.7 98.2 58.6 -23 80.1 -105.3 28.9 30.1 292.1 113.3 109.6 90.4 -94.4 -113.5 -284.4 67.4 -226.3 165.6 -211.9 -120.5 -196.6 -104.5 -29.9zm1322.6 2547.5l-88.6 342.2 -309.1 -192.3 -154.1 0 -88.7 363.5 -1081.7 2328.8 287.2 2029.2 353.3 171 66.6 555.8 728.2 0 706.1 512.5 1389.7 128.4 154.2 683.5 220.4 149.9 309.3 -298.8 242.7 106.4 220.5 982.3 374.8 234.9 309.1 -555.8 948.8 -662.2 617.4 277.4 529.8 42.6 22 -320 1103 21.3 220.5 235 44.3 533.6 -132.1 298.8 154.2 512.3 331.4 0 331.3 -491.1 -132 -234.9 -132 -512.4 198.5 -577.2 904.4 -747.3 683.9 -192.3 -88.5 -619.7 948.6 -983 948.8 -149.8 -154.3 -511.6 926.7 -512.5 0 -683.4 -88.6 -42.5 -331.4 106.2 -44.2 419 -1101.2 12.6 -862.8 550.7 -1354.4 425.6 -216.1 -254.4 614.7 -893.6 -303.8 -278.6 -206.4 -377.9 -427.9 -330.2 -465 -37.5 -878.8 -576.2 -6248.7 -988.3zm838 -9335.5l176.2 256 88.6 342.3 441.2 106.3 309.1 -320 264.9 128.4 750.4 64 529.7 -213.7 88.6 704.8 309.1 0 0 -298.8 309.2 21.4 772.5 875.7 507.6 298.8 -264.9 406.2 110.7 106.2 991.4 192.5 22 427.2 264.8 42.6 66.4 -640.8 419.1 -106.5 309.2 448.6 661.8 298.7 331.1 64 220.7 -256.2 22 -406 396.8 -235.2 132.1 342.2 -353.4 598.5 44.3 298.7 198.4 -298.7 396.8 -342.2 22.1 -448.5 -220.5 -342.3 66.4 -277.6 529.8 -256.2 242.7 171.2 44.4 1495.6 374.6 -320.1 220.5 128.6 -309.2 512.2 397 85.2 574 -854.5 485.4 491.2 -198.3 875.7 -485.6 256.2 -463.3 -213.6 -837.9 171.1 88.4 277.5 -220.5 342.1 -683.8 149.9 -772.5 577.1 -683.9 875.8 -88.5 277.5 463.2 171.1 176.3 427.3 639.5 619.7 1015.2 427.2 -220.5 982.3 -22.2 277.5 265 171.1 353.2 -448.7 44.4 -854.6 552.1 -21.2 264.7 -491.2 44.3 -747.3 706 -1324.3 882.2 298.8 463.6 619.6 -198.6 619.6 353.4 192.5 860.2 -555.8 242.7 1516.6 794.6 918.6 22.2 469.9 -882.3 213.6 -419.2 427.3 -882.2 -192.4 -441 -21.3 -772.5 577.1 463.2 -106.4 574.1 -106.4 110.6 128.5 -154.2 469.8 22.4 427.2 264.7 171.2 264.9 -63.8 132.9 -192.5 176.4 0 -287 512.6 -551.8 21.1 -242.8 342.2 -309.2 0 -88.6 -256.1 441.3 -427.4 -529.8 171.1 -24 -726.1 -152.2 -85.1 -463.5 192.4 -44 363.4 -1059.6 0 -904.5 598.4 -1213.7 384.7 -131.9 -171 611.2 -876.7 -347.1 -321 -220.7 -406.8 -449.2 -329.5 -481.9 -38.1 -863.7 -581.5 -6263.7 -989.1 -103.7 -407.7 -574 -512.4 0 -427.2 88.5 -384.8 -44.3 -213.7 -220.5 -213.6 -44.3 -342.2 574.2 -384.7 -353.6 -1836.7 -485.5 -21.2 -441.1 -556 2423.7 -3957zm14111.5 10417.5l-936.4 861.4 93.9 204 1146.5 408 163.6 -271.7 -93.9 -452.8 -374.7 45.1 -210.7 -226.4 350.7 -339.5 -139 -228.1zm-4563.1 -5890.1l-374.6 452.7 -23.1 498.7 327.7 -181.2 397.9 0 280.8 249.4 257.8 -204.2 -866.5 -815.4zm1750.6 -5233.9l0 171 -432.3 95.4 117.7 189.7 490.8 189.8 550.3 57.1 392.1 266.5 392.5 -209.5 -274.5 -266.4 353.3 0 216.4 -228.1 530.6 -75.9 0 -113.9 -295 -189.8 38.9 -209.5 824.7 132.9 1218.1 -456.2 -451.9 -132.9 117.9 -152.2 942.5 0 156.7 -152.4 -1905.3 -646.9 -451.9 -152.4 -490.6 342.1 -550.2 -437.4 -295 -18.8 -59.4 361.8 -373.1 -323.4 -432 132.7 78.7 209.5 648.6 132.6 -39 304 353.3 209.4 864.6 -209.4 19.5 285.1 -707 323.4 -432.2 -323.4 -392.5 38.3 392.5 532.9 -196.8 95.4 -295 -246.8 -216 132.7 196.5 360.9 334.2 -0.2 -78.8 342.3 -274.7 -38.3 -353.3 -361.8 -233.9 40.1zm627.9 2149.1l-156.7 152.5 137.3 209.3 648.5 75.8 -412.9 -418.8 -216.2 -18.8zm-884 -342.2l-432.3 -38.1 -510.3 189.6 -274.5 361 78.8 989.1 844.3 38.3 805.2 380.4 569.6 627.5 432.3 -18.9 -117.9 589 -392.4 627.3 -432.3 189.9 -314.4 -57.1 -156.9 -132.8 -235.5 303.8 98.3 303.9 334 18.8 412.8 -189.8 353.4 875 884.1 551.6 608.5 -741.4 -510.2 -798.3 295 -323.6 412.8 665.7 745.8 -627.2 -137.2 -285.2 -510.4 152.2 -353.3 -932 334.1 -531.8 -668.1 -684.6 -372.8 247.1 -353.6 -741.6 -745.8 95.5 -196.6 -893.7 -608.8 399 -59.3 494.7 -333.9 0 38.9 -437.5 468.6 -665.8zm-1236.6 -1978.1l-235.6 75.8 38.8 303.9 392.5 246.7 19.6 189.8 -117.9 114.2 59.3 380.5 1512.2 475 412.8 132.7 412.9 -342.2 -490.8 -380.4 -451.9 113.9 -627.9 -56.9 -235.8 -228.2 -59.3 -627.3 -392.3 -189.8 -236.6 -207.7zm-746.9 132.7l-432.2 57.2 -255.2 228 471.3 18.8 -137.2 342.2 98.3 152.3 137.2 -18.6 334.1 -513.4 -216.3 -266.5zm255.3 722.8l-98.3 189.8 432.2 152.3 117.9 -171.1 -451.8 -171zm39.7 628.2l-412.8 323.3 98.5 399.3 255.1 0 117.7 -209.4 177.3 171.1 177.1 -18.9 471.4 -380.3 -884.3 -285.1zm-1256.8 171.1l-255.2 -114.2 -137.4 171.1 274.7 419 19.6 399.1 589 -342.1 0 -494.7 216.1 -209.3 -216.1 -152.2 -353.5 0 -137.2 323.3zm-2396.3 -836.8l-745.9 189.7 -432.2 361.9 38.9 399.2 785.7 228.1 -177.2 380.5 -569.5 -342.2 -156.7 285.1 372.8 247 -19.4 399.1 569.5 152.3 687.5 -38.1 117.8 -209.6 510.2 551.7 353.5 -114.2 59.2 -380.4 255.3 171.1 38.9 -380.5 -314.4 -189.8 19.5 -1197.4 -274.8 -209.6 -294 380.6 -824.7 -684.5zm4576.2 -2149.2l19.5 303.8 530.7 0 137.3 114.2 -19.6 132.7 -471.2 57.1 334 437.6 451.7 75.7 628.1 -266.4 -903.6 -1312.7 -274.6 171.3 19.5 228.1 -314.4 -114.2 -137.4 172.8zm-569.5 437.6l156.7 171 -137.2 228 98.3 246.9 432.2 -228 0 -171.1 -255 -285.1 -295 38.3zm-1001.9 -380.6l-39 132.8 -98.4 132.8 0 189.9 372.9 -57.1 392.6 323.5 137.2 0 0 -323.5 -392.4 -418.8 -372.9 20.4zm-1316.4 -323.5l-274.6 95.4 19.4 132.9 608.6 -38.5 -19.4 -132.7 -334 -57.1zm-294.2 323.5l-59.2 189.9 372.8 171.1 274.7 -152.6 -19.5 -113.8 -568.8 -94.6zm-805.1 589.9l-608.5 246.8 0 189.8 785.7 285.2 -177.2 189.9 117.9 246.7 490.8 -209.3 412.7 0 196.5 303.8 334.1 -323.3 -78.9 -304.8 -274.6 95.3 -38.9 -380.5 137.3 -228 -137.3 0 -216.1 132.7 -98.4 75.7 59.3 266.5 -156.7 114.1 -235.8 -18.9 -59.2 -342.1 -452.7 -339.6zm-1335.9 -532.8l-156.7 266.4 766.2 266.4 274.6 -399.2 117.7 266.4 196.9 0 372.8 -399.3 -451.8 -113.9 -177.2 -132.8 -235.6 228 -706.9 18zm-922.9 1007.7l19.5 342.1 -707 704 177.1 570.4 510.4 -132.8 294.9 -418.8 745.9 -266.5 608.6 -38.3 -471.4 -494.5 -235.6 171.2 -177.2 -57.3 -98.2 -209.2 -216.3 -209.5 -450.7 39.2zm-776.3 25730.2l-54.8 234.1 -101.8 98.7 69.9 121 179.8 -68.3 86 -143.7 -54.9 -151.6 -124.2 -90.2zm-9022.9 -24964.1l-743.4 169.3 153.4 804.4 808.7 212 43.4 169.4 -1202.1 360 -677.6 1079.3 239.9 1143.2 393.4 253.5 306.5 -274.7 87.8 169.2 -372.3 423.1 -1443 635 -918.6 212 -22 317.4 2120.6 -592.5 874.4 -233.3 808.7 -952.2 896.5 -571.3 -458.8 740.5 503 63.8 853 -360.1 153.4 592.5 589.9 126.8 612.2 571.3 43.5 422.9 -87.7 105.5 108.8 401.8 153.4 0.1 22 -677.5 174.5 0 43.5 1671.5 437.6 -359.8 -306.5 -1735.6 -458.8 0 -503.3 -613.7 2470.8 -4021.9 -2448.5 -1841 -2732.8 508.2 -109 804.4 589.8 338.7 -218.7 550.6 -785.6 -612.8zm65447.6 25062.9l-369.4 39.9 -237.3 166.9 98.3 190.8 402.1 71.4 0 71.5 -254.1 198.4 123 412.6 123.3 7.7 106 -405.1 196.9 -0.1 82.4 396.8 959.3 762.6 24.8 595.8 327.8 341.4 148 -7.8 32.7 -2103.9 -557.2 -372.9 -525.3 341.4 -188.8 111.4 -311.7 -190.7 -7.8 -603.5 -173 -24.6zm-52530.5 -5085.8l-308.2 74.8 0 82.6 179.9 99.8 188.6 0 119.6 -133 -179.9 -124.2zm445.7 -1990l-137.3 -33.3 -25.5 -165.9 -145.4 -49.3 93.9 -91.1 171 57.8 128.4 74.8 -85.1 207zm256.9 522.5l-265.8 -108 -51.4 -257 102.9 -41.7 102.5 199 103 75.1 8.8 132.6zm77.1 198.4l-163.1 -8.5 17 99.7 119.5 165.9 102.9 -108.1 -76.3 -149zm-497.2 -149.1l-154.1 82.6 145.5 199.3 76.9 -99.6 -68.3 -182.3zm-222.2 -323.4l-111.5 -33.2 -9 206.8 137.3 132.9 94 -132.9 -110.8 -173.6zm-1661.7 663.1l0 108.1 471.3 8.5 222.2 -124.2 34.6 91.1 462.5 108 410.8 356.7 -93.8 124.2 16.8 141.4 342.9 82.6 342.6 -149 154.3 -149 -222.4 -108.2 -1147.1 -646.7 -402.1 -41.7 -592.6 198.2zm40721.3 3500.9l22.1 231.6 22 168.6 -130.2 21.2 65.5 378.6 195.7 105.6 304.1 -168.5 -86.9 -399.1 22.1 -147.3 -282.5 -252.1 -131.9 61.4zm13831.6 -25900.3l-258.9 -76.7 -297.6 105.6 -148.8 211.9 188.6 240.9 497.1 -212 99.1 -105.6 -79.5 -164.1zm-7989.8 1663.9l-308 -76.6 -178 183 -79.8 250.4 417.3 -38.5 317.9 -153.9 -169.4 -164.4zm40.2 -1125.1l158.4 288.4 616.7 -67.2 169.1 -211.9 -40 -183 -169.1 -67.3 -158.6 115.8 -457.1 96.1 -119.4 29.1zm-636.1 230.5l238.3 192.4 169.1 -67.2 49.6 -269.8 -347.1 -230.6 -228.6 144.7 -556.5 48.5 0 240.9 -586.2 9.3 0 394.1 685.6 490.3 179 -125.2 -40 -346.4 437.7 -105.7 -89.5 -163.3 -158.7 -154.1 247.3 -57.9zm-8369.5 662.3l107.1 413.6 167.5 383.9 183.3 -309.7 350.9 -74.2 0 -221.1 -228.6 -162.7 -580.2 -29.8zm-442.9 -162.5l-107.1 221.2 -213.5 -14.4 -335.8 236.6 -91.4 295.4 213.6 0 122.2 -192.4 289.7 206.9 274.6 -118.4 198.4 -162.6 -76.1 -251.1 -107.2 -177.2 -167.4 -44zm-472.2 -44.3l-198.4 -118.3 -228.6 0 -46 132.8 -243.7 132.9 -183.2 58.6 -30.2 177.1 427 29.8 503.1 -412.9zm-6437.3 5035.5l411.7 44.3 137.4 458 350.9 354 -122.5 236.7 -213.3 0 -198.4 -221.3 -442 -14.6 -183.5 -236.5 0 -162.6 274.6 -74.1 -14.9 -383.9zm1967.3 -2156.1l-46 206.9 -350.9 295.4 -747.5 162.6 -610.5 974.5 -107.1 281 610.5 148.1 91 -354.1 183.5 -546.5 473 -236.6 396.9 -295.4 289.7 -118.3 152.4 0 0 -398.3 -335 -119.3zm-930.1 -1565.3l-167.4 -29.7 -152.4 148.2 76.3 132.7 45.9 206.7 198.6 -147.1 45.9 -162.6 -46.9 -148.2zm-869 295.4l107 221.4 213.6 14.4 152.4 -58.7 -76.1 -206.9 -198.5 -44.2 -198.4 74zm-869.8 -15.3l0 177 152.3 118.2 213.5 -14.4 183.3 -162.5 0 -118.3 -167.3 0 -137.3 44.4 -107.2 -118.3 -137.3 73.9zm-579.4 162.6l152.3 58.9 -107.1 176.8 0 251.2 -228.5 132.8 -243.7 0 -137.2 -162.6 15 -177.1 107.2 -132.7 213.5 0.1 228.5 -147.4zm-4503.6 1726.2l-209.1 182.1 -177.2 131.1 83.3 141.4 167.4 50 271.9 -121.6 125.8 -151.5 -115.1 -182.2 -147 -49.3zm-595.4 -1041.9l-261.1 232.4 156.7 232.5 281.7 0 115.1 151.4 344.6 171.9 396.8 -222.3 272 -222 -94 -182.2 -271.9 -151.3 -198.4 171.7 -135.6 -161.6 -104.5 10.2 -135.7 283.4 -198.1 -192.3 -21.4 -131.2 -146.2 9.4zm-177 606.9l-146.2 -141.3 -324.4 151.5 -595 0 -94 333.7 333.8 283.4 146.3 -20.5 209.1 -343.8 177.2 121.9 -125.9 242.5 -62.9 354.1 146.1 222.1 313.6 -505.6 407.6 -475.6 -156.7 -131.1 -228.6 -91.3zm-7255 5392.2l-173.7 -94.4 -234 142.1 -201 178.7 5.3 99.6 260.4 31.5 -15.9 178.8 -92.1 89.3 22.1 58 260.5 16 0 289.4 374.7 63.1 222.4 120.9 249.7 10.2 428.7 -205.2 331.4 -420.4 5.2 -284.3 -201 -163.4 -168.3 -137 -76.2 52.6 -114.3 142.3 -130.2 -16.3 -130 -137 -168.5 15.3 -244.5 195 -147 152.3 -81.4 -68.1 -5.4 -168.6 81.5 -52.6 -58.4 -87.8zm-8485.5 33157.6l-77.2 237.5 -219.6 187.3 13.2 62 374.7 -138 155 -187.3 -246.1 -161.5zm-232.2 112.2l-233 -24.6 -232 149.9 168.2 175.1 296.8 -300.4zm-5057.3 -19815.3l0.8 0.1 0.1 -0.1 312.7 28.2 278.5 100 24.5 8 468.6 294.6 -30.2 151.4 -257.7 -52.7 -296.8 75.6 -51 56.8 -50.8 57.4 -78.9 -145.6 -80.2 -2.5 -1.2 7.6 -354.1 -18.6 -1.2 -0.1 -63 91.1 -108.9 -7.7 -0.2 -0.9 -0.6 0 -38.1 -195.6 374.5 -31.5 -2.3 -20.8 -22.3 -182.5 -87.6 -34.7 -81.6 -32 0.2 -0.2 -1.2 -0.5 148 -144.8zm1788.7 483.5l-234 -75.8 -187.8 113.2 93.8 105.6 319.9 45.1 8.1 -188.1zm991.1 2018.9l-93.9 83.6 -101.8 15.2 0 120.9 187.7 166 78 -120.9 46.8 -136.3 -15.7 -113.1 -101.1 -15.4zm-147.9 -295.3l-101.8 98 39 60.3 124.9 0 39 -98.7 -101.1 -59.6zm132.9 -294.4l-109.1 75.7 86 151.5 141 -75.7 -117.9 -151.5zm-8 -325.2l-62.8 128.6 101.8 105.5 132.9 -68 -171.9 -166.1zm8 -340.6l-93.9 83.4 69.9 136.3 132.9 -37.4 -108.9 -182.3zm-265.8 -438.2l-77.9 159.1 93.9 121 116.9 -98.1 -132.9 -182zm-218.9 -128.7l-132.9 52.9 47 113.2 156 -98 -31 -30.6 -39.1 -37.5zm-21510.9 10318.9l-240.8 151.4 180.6 209.6 156.8 -35 84.2 -104.6 -180.8 -221.4zm-577.4 -163.4l-168.3 -11.9 -12.4 151.5 131.9 81.7 156.8 -92.7 -108 -128.6zm-482 -12174.3l-84.2 465.5 84.2 174.4 276.4 -81.6 144.5 -233.2 -301.2 -268.1 -119.7 -57zm-240.2 -360.9l-144.2 186.4 47.9 116.5 204.5 -92.6 -108.2 -210.3zm-337.3 -279.3l-168.4 116.7 144.4 174.5 168.3 -139.7 -144.3 -151.5zm-468.6 -291.8l-12.4 198.1 180.7 116.7 107.9 -92.7 -276.2 -222.1zm33619.4 4011.5l-140.9 80.9 151.5 194.9 119.6 -60.4 -130.2 -215.4zm240 -263l-109.8 93.6 78 138.8 187.7 -80.9 -155.9 -151.5zm-413.5 -187.3l-168.5 92.8 120.5 92.8 144.4 -69.8 -96.4 -115.8zm1490 -3256.6l-120.6 116.7 168.3 139.3 95.7 -209.1 -143.4 -46.9zm456.9 139.7l-192.2 46.8 95.7 139.4 144.5 0 -48 -186.2zm538.6 -16.2l-154.9 86 71.6 69.8 83.3 -155.8zm-659 -1473.4l-95.7 116.6 95.7 116.6 144.5 -69.8 -144.5 -163.4zm-1826.5 -1023.1l-48 116.6 71.9 69.7 192 -116.6 -215.9 -69.7zm-576.9 -372l-71.6 186.5 95.6 116.6 120.5 -92.9 -144.5 -210.2zm-95.5 -326l-144.5 92.8 120.5 92.7 192.1 -46.8 -168.1 -138.7zm-649.4 69.9l-120.4 116.5 216.2 116.5 23.9 -162.6 -119.7 -70.4zm25352.8 9835.2l-94.8 91.1 108 90.9 134.8 -90.9 -148 -91.1zm-27.4 -535.4l-13.4 274.2 108 51.9 94.9 -183.1 -189.5 -143zm-188.8 -469.8l26.7 222.1 147.9 52 26.6 -195.7 -201.2 -78.4zm-3964.9 2872.7l-108.2 117.5 80.7 117.4 148 26.3 13.1 -248.4 -133.6 -12.8zm-67.4 -457.1l-162.1 104.6 121.3 183 162.2 0 -121.4 -287.6zm-755.6 783l-54 104.8 147.9 117.3 108 -117.3 -201.9 -104.8zm-1928.6 1358.5l67.4 143.9 108.2 0 54 -183 -229.6 39.1zm-255.9 -261.4l40.9 130.4 175.1 26.2 67.5 -169.3 -283.5 12.7zm1294.1 144.1l-188.5 430.6 -323.4 548.2 -566.2 39.1 -242.7 274.1 40.8 835.9 -350.7 391.4 40.8 665.7 296.7 325.9 350.8 -39 351 -248.6 -80.8 -391.5 808.7 -1345 -162 -169.4 162 -325.9 175.5 52.1 53.9 -130.5 -162 -665.4 -94.8 -274.3 -109.1 26.6zm1336 2506.7l-202 12.6 -13.4 169.5 134.7 26.4 202 -91.1 -121.3 -117.4zm498.7 -287.8l-134.7 169.4 26.7 182.9 283.3 -222.1 -175.3 -130.2zm863.7 8565.3l-13.2 365.3 526 117.4 121.5 -300.5 -188.8 51.9 -242.5 52 -67.5 -274 -135.5 -12.1zm-55036.5 -34039.3l147.2 99.7 -44.3 114.1 -102.9 0 0 -213.8zm956.8 1012.2l-117.9 -156.8 -117.7 42.6 0 213.7 132.8 85 102.8 -184.5zm868 228l-250.6 -99.6 -88.6 156.8 162.1 156.4 177.1 -213.6zm559.9 13.6l-264.9 -57.1 -44.3 114.2 29.2 213.7 280 -270.8zm1590 -241.6l-382.7 185.5 59.6 199.1 147 -114 294 -128.7 -117.9 -141.9zm294.1 -114.2l-15 256.1 191.5 -42.4 0 -114 -176.5 -99.7zm2554 -9102.4l-344.6 300.5 103.7 222.1 184.2 -122.5 103.8 111.6 343.5 -122 -11.5 -188.8 -379.1 -200.9zm-6849.4 4394.5l1241.1 133.8 207.1 412 988.9 -556.8 1654.6 -222.2 115.2 -823 827.3 -289.4 540.4 -489.4 0 667.1 551.9 723.5 1148.9 -700.2 -551.9 -601 -689 -1791 -828.3 -913.3 -586.5 -44.1 -23 489.2 -482.8 234.1 -149.7 -289.3 287 -589.8 -4239.7 11.1 -11.5 4638.7zm78151.7 -3184.2l-373.8 644.5 715.8 434.7 801.5 -645.9 487.3 780.5 -508.4 100.5 -201.2 500.5 1126 1465.7 677.6 108.1 977.2 184.7 120.5 -340.4 340.9 126 64.6 1425.5 -631.6 1010.3 304.8 64 795.5 -1610.5 241.9 -1205.1 -490.8 -220.6 -78.8 -1617.3 378.2 70.7 -3.6 972.9 412.9 346.5 240.9 -845.4 -193 -502.1 582.8 268.1 61.1 -2978.1 -6711 11.8 -386.4 285.2 52.4 576.3 1189.5 156.6 913.4 -200.1 -327.6 589 -578.6 43.4zm-72127.9 3048.1l306.4 550.8 196.8 -42.6 0 -190.6 -503.2 -317.6zm71940.9 -1273.3l-208.9 131 -49.7 166.8 98.3 107.3 221.6 -71.5 221.3 71.5 123.3 35.8 -12.5 -393.3 -393.4 -47.6zm3653.4 4454.2l-123.3 190.6 12.4 190.7 171.9 -71.6 -61 -309.7zm-258.8 357.5l-184.2 214.4 196.7 71.5 -12.5 -285.9zm-1045.4 821.3l-208.9 262.2 48.6 119.3 258.8 -155.1 24.9 -155 -123.4 -71.4zm-1266.6 834.1l147.9 262.2 110.9 -119.1 0 -178.7 -258.8 35.6zm-1857.6 -297.8l110.7 190.6 184.3 -11.8 37.2 -131.1 -332.2 -47.7zm-1439.6 -535.5l25.8 139.7 262.1 74 25.9 -98.6 -313.8 -115.1zm-329.4 -98.6l-169.3 16.1 101.8 139.6 211.8 139.5 59.5 -65.5 -203.8 -229.7zm-4777.5 1631.7l-7.9 525.2 685.6 1017.1 245.6 885.2 432.2 787.4 169.1 57 144.4 -115 67.3 -188.9 -618.3 -647.8 17 -336.2 135.3 -57 33.8 -196.7 -1211 -1647.6 -93.1 -82.7zm3464.7 1304l0 360.8 118.7 41 84.9 -131.2 0 -278.3 -203.6 7.7zm202.8 -500.5l-109.9 131.1 8.9 205.1 101.9 -8.6 169.2 -286.8 -170.1 -40.8zm-499.6 1951.8l-85 221.2 8.7 147.3 144.6 -90.3 135.4 -262.2 0 -97.9 -203.7 81.9zm-313.5 467.2l-237.6 320 16.9 155.8 118.8 -49.4 278.9 -336.2 -177 -90.2zm-1278.4 254.5l-135.5 114.9 68.2 246 118.8 114.9 -9.1 377.2 -152.2 57 -118.8 254.4 347.1 458.9 228.6 -74.2 42.7 -114.9 -245.4 -212.8 152.3 -188.9 161.3 24.6 126.7 131.1 8.8 -270.8 347.2 -270.6 195 -49.4 -161.3 -262.1 -76.1 -114.9 -126.7 81.8 -109.9 131.1 -237.4 -49.5 -245.3 -155.6 -179 -228.2zm-729 3706l-432.4 475.8 76.1 114.9 211.9 24.7 397.6 -295.4 280.2 -49.3 254.1 286.7 194.9 -65.4 76.1 -279.2 364.2 -8.5 356.1 -410.3 -186.1 -681 -85 -360.9 185.9 -147.2 -423.4 -614.6 -109.7 8.5 -228.6 246.1 0 205 101.9 115 33.6 541.3 -262.1 311.7 -152.4 -90.3 -118.8 254.4 -25.6 237.6 92.9 139.6 -59.2 106.3 -195 -155.8 -135.5 0.1 -118.7 65.5 -93 24.7zm339.2 525.2l-245.2 221.3 -9.1 254.5 59.3 74 330.6 -270.7 -25.8 -270.7 -109.8 -8.4zm-779.4 278.3l-144.6 139.7 59.5 196.4 126.8 8.6 84.9 426.5 101.9 106.4 178.2 -155.7 75.9 -279.3 -220.4 -302.9 -262.2 -139.7zm-1397.2 2714.4l-313.6 229.9 -16.6 442.6 271 302.9 67.4 -57 -8.2 -918.4zm-2447.6 1860.7l-211.6 57 -152.3 180.5 126.5 237.5 186.2 16.1 211.6 -180.4 50.7 -237.5 -211.1 -73.2zm2913.7 1705.8l67.3 229.7 118.7 74.1 85 -106.4 -135.3 -180.3 -135.7 -17.1zm-118.8 -1467.5l-228.6 155.8 -25.6 492.1 356 663.8 118.8 90.2 152.5 -98.7 262.1 41 50.6 221.2 194.8 16.2 92.9 -122.5 -118.5 -155.9 -144.4 -131 -304.7 -32.3 -161.5 -254.7 186.3 -270.6 16.8 -237.6 -126.8 -302.9 -320.7 -74.1zm1380.3 2500.8l33.6 245.9 -296.8 229.8 -245.4 24.8 -262.3 270.6 8.9 123.4 245.4 -74.1 169.3 -106.4 144.4 352.5 254.2 171.9 101.8 -33.2 93.2 -106.4 -202.8 -196.7 118.4 -90.1 135.6 106.3 93 -147.2 -93 -180.4 -16.9 -401.8 -280.6 -188.9zm-313.7 -771.1l161.4 205 75.9 196.7 144.5 0 -25.8 -336.4 -161 -106.3 -195 41zm-101 328.4l-8.8 377.1 93.1 147.2 161.1 -180.4 -42.5 -327.7 -202.9 -16.2zm-458 -164.2l-8.7 426.5 161.1 155.6 59.3 303 161.3 33.3 76.1 -188.9 -126.6 -90.4 -33.7 -532.7 -288.8 -106.4zm-685.5 196.6l-76.3 139.6 -42.6 171.9 -423.3 516.7 25.7 106.4 178 -24.8 550.1 -590.6 -211.6 -319.2zm14106.9 9768l-109.8 141.4 -8.9 159.1 127.7 124.2 -9 -424.7zm-2229.6 177.1l-54.9 80.1 82.3 88.5 137.5 -44.2 -164.9 -124.4zm-173.6 -1026.4l8.9 114.7 118.7 35.9 82.3 -44.4 -82.3 -124.3 -127.6 18.1zm-55.1 -433.3l-109.7 141.1 46.1 159.2 54.9 35.9 100 -124.3 -91.3 -211.9zm-1581.1 -1121.1l-155 69 135.6 181.3 115.9 -63.1 -96.5 -187.2zm329.5 -374.5l-45.1 75 148.9 188 103.6 6 -64.7 -244.3 -142.7 -24.7zm-141.8 -588.2l51.6 263.2 123.1 162.4 103.5 -205.9 -278.2 -219.7zm-452.6 -319.2l90.5 212.9 174.4 200 96.5 -149.7 -129.3 -213 -232.1 -50.2zm-252.4 112.4l-103.7 106.4 109.9 194.1 129.3 37.3 -6.1 -131 -129.4 -206.8zm-155 -481.7l13.2 194.1 123.2 112.2 116.2 -68.9 -103.9 -206.8 -148.7 -30.6zm-536 -437.4l109.8 293.3 194.1 181.5 58.4 -50.3 -19.5 -194 -219.7 -256.1 -123.1 25.6zm-574.9 -381.5l-84.2 18.6 -51.4 219 -161.2 100.2 -484.6 81.8 19.5 175.4 510.3 -24.7 323.4 -194 -19.6 -338.1 -52.2 -38.2zm-213.4 -513.2l-78.1 106.2 426.1 362.8 58.5 212.8 116.1 -12.8 13.3 -218.7 -129.4 -112.4 -406.5 -337.9zm-6585.5 1653l-452.5 362.7 43.4 92.5 191.2 -34 226 -202.5 443.8 -58.7 -86.9 -143.1 -365 -16.9zm-1280 -59.6l-52.2 101.3 391.5 58.7 304.8 -168.5 -173.6 -50.2 -278.1 75.8 -104.6 -84.3 -87.8 67.2zm-69.1 278.2l-243.6 34 217.9 177.2 173.8 0 -148.1 -211.2zm-479.2 -421.2l34.4 160.1 200.4 50.1 78 -92.6 -86.8 -126.9 -226 9.3zm-330.5 75.7l-191.3 101.2 113.4 118.4 278.2 -101.3 -200.3 -118.3zm-2533.5 -732.9l-243.5 160 52.2 134.6 775 168.3 391.6 67.5 165.7 168.5 443.9 34 209 168.6 191.3 -42.6 174.6 -151.6 -322.4 -142.8 -278.3 -227.3 -722.9 -168.6 -836.2 -168.6zm5919.3 -1095.4l-357 75.8 -104.5 109.9 86.6 142.9 234.7 -84.3 148.1 -84.3 217.9 168.6 95.8 -75.8 -173.7 -202.4 -147.9 -50.4zm-513.9 -1272.5l-165.6 387.3 261.4 328.6 86.8 -0.1 113.3 -218.8 61.2 -75.6 -113.3 -118.5 -165.8 -58.7 -78 -244.2zm-2184.2 1583.9l200 236 -130.3 354.1 0 67.2 296 0 104.4 -885.3 95.7 25.5 173.8 808.6 165.6 42.6 156.8 -345.6 -156.8 -522.6 -130.2 -227.2 409.2 -286.9 -95.7 -126.7 -391.5 244.2 -104.6 0 -191.3 -269.8 61.2 -118.3 322.3 -151.6 487.2 143 148 -8.5 365.7 -328.5 -147.7 -143.1 -339.4 252.8 -217.9 0 -330.4 -151.5 -234.8 8.5 -261.3 404.3 -165.6 699.7 -88.4 279.1zm-864.9 -2541.5l-255 297.1 209.2 63 117.8 -158.3 -72 -201.8zm-1384.4 1163.6l267.5 297 1025.7 -341.2 202.9 -752.4 457.1 -31.6 418.1 -291 -542.2 -379.6 -123.8 -208.6 -267.7 474 98.5 272.4 -163 227.3 -307.4 -75.8 -745.1 525.2 19.5 303.9 -340.1 -19.6zm-3690.4 -1306.7l-24.9 194.2 601.4 971.3 175.4 0 1253.4 2014.6 501.5 48.5 250.7 -704 -401.2 -242.5 -75.4 -388.2 -2280.9 -1893.9zm16313.6 8758.8l-30.9 152.3 408.1 547.1 219.9 91.3 30.9 -212.9 -628 -577.8zm-377.4 7424.8l251.6 456.3 -691.9 639.1 -62.8 334.5 -471.3 60.4 -785.7 699.7 -722.9 -334.5 -62.9 -243.5 1319.8 -547.2 1226.1 -1064.8zm942.6 -2191l93.8 1004.5 -125.8 456.1 -471.3 334.5 31.1 395.9 0 425.5 125.7 152.3 1289 -1064.8 0 -243.4 -314.5 0 -440.2 -1430.1 -187.8 -30.5zm-7731.6 1217.2l-156.9 608.6 31.1 425.6 471.3 -30.8 534.1 -790.5 -879.6 -212.9zm-5719.9 -5811.8l-31.1 2160.2 -345.4 243.4 -31.1 212.8 471.4 303.9 1163.1 -212.8 597 0 219.7 -304.8 1320 -243.3 942.4 274 -62.9 365.3 125.8 365.1 723 -121.8 30.9 182.2 -471.3 334.4 156.7 121.7 345.6 -121.7 -94 1004.5 659.9 486.8 377.5 -121.6 188.7 182.1 1100.3 -152.4 1037.2 -1612.8 377.3 -91.3 753.9 -1338.8 188.7 -1155.9 -471.3 -578 188.8 -121.7 -377.6 -1126.1 -408.1 -274 62.8 -1521.2 -377.3 -274.2 -93.9 -851.9 -188.7 0.1 -629 2007.9 -345.4 30.6 -785.8 -760.9 440.3 -1125.9 -816.8 -152.7 -911.5 243.6 -251.6 699.6 -408.5 91.1 -30.9 -486.8 -1665.4 973.7 31 365.2 -251.6 334.5 -628.9 0 -1351.7 547.2 -472.2 1220.7zm-38254.3 10151.2l-191.4 72.2 -48.7 173.7 165.7 58 278.3 -184 -203.9 -119.9zm-87.7 845l1.8 303.1 181.6 7.7 147 -224.7 -330.4 -86.1zm-420.7 -394.1l-265 48.7 50.5 196.5 322.5 -11.2 -108 -234zm-356.1 334.7l-220.7 42.5 -48.6 217 421.6 -59.5 -152.3 -200zm-2110.2 4285.5l-301.2 253.6 263.9 72.5 339.5 72.3 339.2 -217.1 -339.2 -72.3 -302.2 -109zm792.1 -1630l-377.5 72.4 226.1 398.4 263.9 108.9 -113.5 217.1 0 144.6 -716.7 181.5 75.4 217.1 301.3 108.8 339.2 -253.7 301.2 72.3 -188.7 289.5 113.4 72.4 339.2 -144.6 264 -470.9 -827.3 -1013.8zm-4825.2 2354.4l452.7 -72.5 188.6 144.8 -75.3 181.3 -38.1 216.9 -264 109.1 -188.7 -217 -753.8 0 0 -144.6 339.3 -72.5 339.3 -145.5zm867.2 652l1206.6 -326.1 75.1 -325.9 1281.8 -289.4 753.9 181.1 1658.4 -651.8 -38.1 -687.8 -489.9 -724.4 113.4 -181.4 -188.6 -470.5 0 -507.4 301.2 0 -188.8 -362.5 1357.1 -1122.7 -38.1 507.3 -263.9 72.4 -264 434.8 264 109 -264 362.6 -301.2 -72.3 -150.6 326 38 434.9 452.6 -36.6 301.1 398.4 113.5 507.3 603.5 724.3 37.8 905.7 -225.9 109 188.8 470.5 -113.5 181.5 -6220.2 34zm11383.9 0l339.5 -434.8 1318.9 -652.2 225.7 -470.6 565.2 -108.9 528 -652.2 527.9 -36.6 113.4 -507.2 452.7 -326.1 377.5 109 1092.9 -326 264.1 253.8 489.8 36.5 452.8 -216.9 2714.2 -36.7 979.7 253.6 1243.7 -253.6 414.5 36.7 113.5 -362.7 414.5 0 565.3 579.6 1055.8 -652.1 1168.5 -325.9 414.6 253.6 38.1 -507.3 603.3 -72.2 640.3 289.3 0 289.5 1621.2 651.8 452.7 -36.4 188.7 216.9 -528 579.7 0 398.3 489.8 253.7 113.5 -253.7 2224.2 -833.2 1621.1 -144.8 339.4 181.3 1282 181.3 301 109 414.5 -217 603.4 -36.7 565 398.5 38.1 434.9 1282 -253.7 188.5 72.4 75.4 398.4 1168.4 362.6 377.3 -253.8 38 326.1 414.8 36.6 565.1 434.9 528 -217 452.8 36.6 339 -0.1 226 -36.6 38.1 579.6 753.9 434.9 -33288.3 35.9zm1979.9 -45733.7l409.3 115.9 -24 324.2 -433.1 -208.5 -96.6 -115.7 144.4 -115.9zm-6021.8 578.8l144.3 208.8 -72.6 254.4 -144.4 0 -193.3 -208.5 47.8 -161.8 218.2 -92.9zm-1927.7 -3610.6l-120.5 184.6 217.1 208.5 -96.6 208.7 313.5 393.3 385.3 -115.8 505.8 -46.1 578.5 601.9 385.3 995.1 -312.7 624.7 433.3 -70 241 139 23.7 301.3 -529.6 22.8 288.7 277.6 361.4 69.8 -794.7 1017.9 -96.4 624.9 168.4 509.1 -120.6 301.1 216.9 647.7 409.4 440.2 120.5 -23.1 264.9 -69.7 23.9 370.2 168.3 231.6 312.6 -23 241 -856.4 722.9 -856.2 1084.3 -416.2 674.1 -810.3 312.7 138.8 650.2 0 529.8 -509 650.1 -254.5 72.7 -393.2 -409.3 -347.5 -361.2 -115.5 -193.2 -486.1 457.9 -254.6 722.8 370.2 241.1 -254.4 -385.4 -208.6 819.4 -1064.7 -144.5 -463 -385.3 -22.9 144.4 -416.3 481.9 -208.7 987.8 -833.2 -288.9 -300.4 -1108.2 92.8 -578.3 555.8 337.4 -717.6 -385.3 -92.8 -217 370.3 -312.7 -254.6 -867.2 92.8 240.9 -370.2 1420.8 -46 -361.4 -463.1 -1541.2 -277.3 -626.4 92.7 23.9 301.2 -650.1 -208.4 23.8 -208.6 -457.9 92.9 -96.7 231.4 481.9 161.8 -505.8 347.2 -361.5 -393.1 -505.8 -138.8 -72.6 370.1 -505.9 0 -192.9 -393.4 -794.6 -115.4 -433.3 208.4 -23.8 277.5 -553.6 -69.8 -337.6 138.6 23.9 324.4 0 161.7 -626.3 115.8 -288.8 -184.7 -193 300.6 288.6 301.2 602.4 -69.8 47.9 185.5 -458 208.5 -408.3 -187.2zm18871 30094.1l-699.9 621.2 -166.5 384.1 -554.4 -66.5 -461.6 394.1 -306.6 -28.9 24.8 -544.8 -108.8 -36.6 -76.1 1114.3 -543.9 -5.2 -164 -185.6 -240 -2.4 218.8 603.4 390.6 355 -279.1 312.3 180.9 391.6 418 153.2 333 -272.4 954.1 5.1 68.2 -81.8 423.6 -71.4 1432.2 -1370.4 -5.2 -431.5 -153.3 190.7 -229.3 0 -279.2 -224.7 141.7 -338.8 243.6 -47.7 -22.1 -696.4 -539.5 -119.9zm-335.8 1574.6l133.8 -5 217 226.5 -6.2 261.9 -254.1 123.5 -16.1 86.8 -387.8 4.4 -121.4 -281.1 110.6 -205.8 324.2 -211.2zm-262.2 277.5l270.2 -199.9 127.6 5.1 154.2 184.7 -16.1 184.7 -259.5 91.9 0 71.6 -286 -15.3 -69.2 -200.1 78.8 -122.7zm1192.3 -969.4l-222.2 35.7 -95.8 251.2 170.3 148.8 206.3 0 174.5 -240.9 -233.1 -194.8zm-2866.5 -235.8l190.5 56.2 -26.6 523.5 195.8 25.5 450.1 -389.8 540.3 56.1 143.5 -348.9 684 -600.1 -821.3 -908.2 -10.6 -148.9 -90.4 -25.5 -248.9 220.3 -646.7 15.3 -90.3 774.5 -254.4 56.4 -15 693.6zm-1059.3 913.3l296.7 20.4 174.4 169.3 413.7 5.2 101.1 -1128.5 0 -738.8 264.8 -51.1 100.9 -774.7 673.4 -20.4 238.2 -189.8 -403 -15.3 -545.7 71.5 -588.2 -205.2 -1652.9 0 42.4 451.3 551 779.5 -95.6 400 5.3 210.3 423.5 1016.3zm2489.9 -2524.6l794.6 862.3 609.6 149.1 408.3 -615.5 -31.9 -815.4 -662.7 -328.7 -248.8 108.3 -371.3 543.8 -513.8 -5.1 16 101.2zm1462.6 1785.8l238.4 189.9 561.5 -328.8 90.3 -487.7 0 -805.1 901.1 -708.1 154 5.1 545.7 -503.1 -85 -1036.7 -1446.5 175.3 42.3 313.3 249.2 184.6 58.2 564.3 -487.2 457.2 -117 -256.3 21.3 -338.7 -280.6 -292.8 -689.3 308.1 641.3 313.3 21.4 913.2 -424.3 605.2 5.2 727.8zm530.6 -2883.8l275.4 276.7 -5.3 354 53.1 149 366 -379.6 -42.6 -482.7 -195.7 -143.8 -94.7 -459.2 1493.3 -175.7 -348 -647 -18.5 -619.5 112.5 -296.2 -1472.3 -888.9 -461.6 73.3 -160.3 114 -14.2 259.6 -103.5 360.1 -108.2 123.5 -155 13.5 296.8 988.3 484.4 218.7 334.1 9.3 11 78.4 -272.4 -9.3 137.5 610.3 -111.8 473.2zm-5185.8 -1931.3l302.1 1083.5 -6.9 342.1 -442.1 456.4 -66.4 741.4 1700.7 14.5 552.9 192.3 456.1 -57 -265.7 -320.2 0.8 -913.9 522.6 -21.4 0 -356.7 -424.4 -17 -85.1 -844.3 -178.8 2.6 -96.4 -83.4 -105.6 4.9 -139.8 260.6 -538.6 0 -125.1 -121 37.4 -171 -147 -206.8 -950.7 14.4zm2297.1 2382.5l280.9 374.5 434.7 25.6 154.3 81.6 455.2 5.2 392.6 -528.6 1096.6 -471.7 95.7 -415.3 -127.5 -594.9 -572.3 -313.3 -381.8 25.6 -190.5 405.2 5.4 184.6 449.9 210.3 26.6 457.1 -387 20.3 -95.7 -154 -1075.6 -440.8 -31.7 338.6 -508.5 15.4 -21.3 774.6zm3213.7 -4952.2l235.8 441.8 -282.6 569.5 -37.2 172.6 1411.2 838.6 437.5 -660.5 -221.5 -172.9 -4.3 -869.8 277.2 -291.2 -441.9 141.3 -334.1 4.2 -522.7 -423.9 -164.7 -67.9 -305.5 27.1 -54.2 86.8 7 204.3zm-1109.8 1069.9l268.4 241.8 168.3 -103 455.3 -71.4 78.1 7.4 29.1 -165.8 256.8 -519.3 -216 -432.4 -700.8 4.3 -4.4 177.7 93.8 87 -14.1 177.8 -414.5 595.9zm-185.2 606.1l378.3 -7.7 -98.4 318.4 -95.8 80 -116.8 0 -83.2 -215.4 15.9 -175.3zm142.6 -537.1l248.9 220.5 -10.5 235.7 -386.3 7.6 0 -260.4 147.9 -203.4zm-4291 1345.7l913.5 -15.4 185 252.7 -7.1 186.5 68.2 59.7 453.6 0 130 -246.2 185.3 0 75.4 73.3 254.2 -6.6 75.3 857.7 439.3 13.8 0 66.4 1180.8 511.5 54.9 99.6 247.2 0 -27.4 -359.2 -446.5 -206 27.4 -272.2 192.3 -432.5 439.4 -13.6 -377.4 -1203.6 7 -511.4 597.1 -897.3 7.1 -126 -89.4 -46.8 3.6 -243.5 -109.1 -9.3 -109.8 -134.4 -1802.6 -78.5 -330.5 309 -541.3 -342.1 -190.5 112.4 -138.2 1117.6 -341.9 253.7 -102.7 224.6 18.6 332.9 -616.6 484.2 -163.9 -71.3 22.2 92.6 -182.5 167.7zm-250.6 -211.2l153.9 192.5 199.5 -181.4 -58.5 -188 -49.6 -3.5 -245.3 180.4zm394.1 -1762.6l-5.3 123.2 423.4 10.3 15.1 1056.3 -387.2 -10.1 -224.1 -167.7 -173.5 93.6 -8 46.7 89.4 41.9 25.8 216.9 -239.4 197.4 51.5 104.1 264.8 -197.6 127.6 0 40.8 118.3 168.4 68.9 540.4 -439.2 -10.7 -320.9 112.6 -261.3 346.1 -246.7 93.2 -835.1 -246.3 0.7 -285.3 375.4 -719.3 24.9zm-886.6 14.3l-5.5 118.5 402.2 19.5 -5.4 -133.5 -391.3 -4.5zm478.3 -5l-10.7 212 -499.5 -10.3 -305.8 567.8 718.5 755.1 178 -143.2 -5.4 -148.2 -122.1 -54.3 0 -103.9 275.5 -167.5 244.5 177.9 270.1 5 -5.3 -892.9 -427.8 -19.5 -5.4 -187.3 -304.6 9.3zm-846 -444.3l-40.8 167.5 122.3 64 117 -84.3 -40.7 -172.8 -157.8 25.6zm-335.8 518.4l153.1 -24.8 51.6 93.7 -76.1 79.2 -76.3 -10.2 -52.3 -137.9zm-204.5 310.7l101.9 -49.5 76.1 59.6 -76.1 113.2 -92.2 -34.9 -9.7 -88.4zm2207.5 -1115.1l412.7 428.9 163.1 -202.5 259.4 10.2 55.9 -197.4 255.2 -153.4 529.7 350.8 305.6 -291.1 1186 50.4 -1100.1 -1091.4 148.1 -88.6 20.4 -192.3 -250 -113.2 -366.7 0 -590.9 562.6 -20.3 231.6 -468.7 -14.4 -15.1 98.7 -305.6 -29.8 -275.5 502.9 56.8 138zm8531.4 -1702.3l387.3 -143.1 137.3 79.2 -15.1 330.2 -357.1 977.2 -1932 1988.4 -224.2 -148 -15.1 -839.4 290.6 -320.9 616.5 -183 904.6 -917.8 236.4 -202.4 66.5 -296.2 -95.7 -324.2zm677.8 -374.5l188.6 202.5 255.1 -148.1 92.2 -29.8 -116.9 -108.9 -224.1 63.8 -194.9 20.5zm-2115.5 458.7l361.6 236.6 107.1 -5 897.2 -296.3 102.1 315.8 -72 266.5 -193.8 148 -484.5 -29.7 -693.7 -409.4 -24 -226.5zm-2325.2 572.1l644.8 -1379.1 640.5 3.5 567.9 474.1 -40.1 390.8 440.4 0 45.1 234.9 712.2 409.2 439.5 21.4 -835.3 862.1 -1147.3 339.7 -284.4 0 -506.6 -415.3 -200.2 -80.9 -388 -549 -256 3.3 -30.2 -251.9 197.7 -62.8zm1947.8 -869.9l-50.3 285.9 350.7 -5.1 5.3 -420.5 -128.4 -75.7 -177.3 215.4zm-1308.4 -582.3l-21.9 -501.3 350.6 -393.4 94.9 69.8 172.7 555.1 829.1 593.3 -150.6 178 -606.7 -501.5 -668.1 0zm-6988.3 2517.7l285.2 252 -20.4 389.8 1564.4 -34.9 127.6 -137.8 -448.3 -464 -66.4 -167.6 285.3 -513.4 -194 -340.3 -162.8 -84.3 0 -172.7 188.4 -118.5 10.8 -537.8 -149.7 -16.2 -2.6 282.5 -657.4 1178.8 -402.1 19.7 -275.5 182.1 -82.5 282.6zm6571.3 -4568.2l-326.9 316.7 -2285.6 -19.5 24.8 559.1 -217.9 -5.9 -16 1006.9 -330.4 273.3 -13.3 420.3 238.5 452.2 261.2 148.1 -4 35.1 356 -175.1 271.7 208.3 499.6 27.7 288.4 -232.2 255.8 117 287.8 -404.2 24.4 -133.9 219.3 -40.3 34.1 380.5 219.5 354.3 531.8 -1099.2 0 -668 386.3 -437.5 -705.1 -1083.7zm-258.4 3381.7l-260.8 -420.7 -27.3 -306.2 -62.7 11.5 -16.8 94.4 -341.8 479.6 -272.7 -125.1 -272 219 -562.6 -31.1 -249 -191.2 -357.3 175.7 -13.4 117.1 -109.1 63 1091.5 1079.2 594.4 32.4 86.7 126.9 850.5 14.4 7 -182.9 72.7 -127 283.5 -34.8 -353.4 -492.7 -260.4 0 -66.4 -350 208.8 -88.5 30.6 -63zm-4986.8 -1220.5l11.6 -251.1 419.8 -392.4 112.4 -963.5 -279.9 -514.1 195.9 -96.2 1895.6 949 -11.5 931.1 -334 273.2 0 480.1 218.9 406.9 -386.2 0.1 -639.7 607.6 -16.7 183.8 -472.3 -5.8 -6.1 83.4 -269.2 -33.9 -184.3 -334.7 -138.3 -65.5 17.9 -102.1 173.4 -127.7 0 -597.6 -240 -35.6 -289.6 -206.9 222.3 -188.1zm2581.1 -4506.1l236.7 5.9 460.6 122.5 218.9 6.1 271 -218.1 126.7 0 230.4 122.6 291.4 0 52.1 -3.4 184.4 509.1 52.3 164.3 48.7 245.8 -86.8 61.4 -149.7 -72.3 -172.7 -541.4 -155.9 -10.9 -11.6 183.7 103.7 318.4 830 987.3 17.7 423.9 -241.9 268.1 -2271.2 -24.6 -34.8 -2548.4zm-3709.6 422.9l138.1 -22.1 40.8 -306.3 69.1 0 282.5 -446 697.3 194.9 190.4 284.2 685.7 301.3 357 -144.7 -34.6 -144.6 -156 -144.8 17.8 -100.4 253.5 -206.1 501.2 0 190.6 245.2 402.9 56.2 52.3 3140.1 -299.4 -11.1 -1808.9 -904.1 -195.7 106.5 -743.2 -178.7 -202.1 -256.3 -294 -39.2 -149.7 -256.2 4.4 -1167.8zm-455.4 -1761.8l489.8 -189.8 161.4 100.4 6.1 122.6 -75.4 94.4 11.5 167.7 75.4 39 0 301.6 -86.9 139.4 11.5 89.4 328.7 111.5 -264.8 395.7 -103.6 -5.8 -17.7 318.3 -115.2 17 -98.4 -83.4 23.1 -323.5 -322.5 -301.3 -40.9 -262.2 156 -117.3 -138.1 -613.7zm-1181.8 7834.2l347.5 16 418.8 448.7 203.9 53.5 159.4 -74.8 242.6 -32.3 82.5 -325 330.3 -208.7 357.9 -16.1 655.6 -1158.5 -10.7 -261.4 -302.9 -223.8 -606 256.2 -810.4 -11.1 -386.3 -234.9 -275.5 58.7 -143.5 240 -10.7 677.6 -231.1 315.1 -21.4 480.8zm-253.3 10.2l187.9 0 10.7 -512.4 237.3 -331.2 -10.6 -576.2 -215.3 -5 -369.4 277.3 154.2 282.7 5.2 864.8zm-309 149.8l237.4 -133.7 -5.5 -880.9 -154 -240 -99.4 79.9 21.5 1174.7zm-963.9 -357.6l99.2 223.9 258.6 390 143.7 -5.2 391.4 -213.8 -27.3 -1216.1 -303.2 -85.2 -424.1 11.1 -138.3 895.3zm1466 -1281l225.9 -5 203.8 -293.7 341.9 -58.8 364 213.7 777.1 21.2 600.5 -234.9 226.1 -186.3 16.6 -245.2 419 -406 110.8 -896.4 -275.6 -554.9 -705.1 -165.2 -1631.6 1222.4 -231.3 -21.3 -99.4 848.5 -832.6 80.1 489.9 681.8zm-912.5 -657l322.6 -24.8 528.8 718.4 -490.6 355.9 -355.3 -87.8 -477.4 6.1 -77.3 268.9 -400.3 18.7 -109.8 -143.6 141.7 -437.7 917.6 -674.1zm-2757.6 132.8l272.9 -179.5 1516.7 -8.6 -351 -2344.1 400.5 -11.1 1937.5 1420.5 260.2 35.7 -98.3 790 -1218 106.5 -939.9 673.9 -170.8 461.3 -652.9 26.5 -166.5 -460.5 -500.7 34.1 19.6 -150.7 -309.3 -394zm1117.1 2631l379.3 -258 471.1 -79.2 481 99.7 -245.2 -356.6 -71.9 -218 71.9 -644.4 -429.7 19.7 -195 -178.7 -409.2 10.1 -194.9 29.9 20.4 435.7 -102.7 40.1 -123.1 217.9 317 356.6 31 525.2zm-1054.1 -643.7l972.7 624.8 -23 -473.3 -294.1 -332.7 -287 -244.3 -368.6 425.5zm-552.6 -515.6l500.3 464.5 356.9 -416.1 -223.1 -336.1 -307.3 29.8 -326.8 257.9zm-311.2 -441.8l269.3 398.4 351 -292.8 359.6 -15.3 299.3 382 254.2 161.1 95.8 -178.9 85.1 -45.9 -6.1 -393.2 -169.3 -466.6 -519.3 55.4 -642.2 -49.3 -3.5 158.2 -373.9 286.9zm-161.1 -290.3l124 235.9 348.3 -287.9 3.4 -88.5 -410.3 -56.9 -65.4 197.4zm-160.5 -366.8l109.9 256.2 61.3 -158.3 745 74.9 -322.6 -159.2 -593.6 -13.6zm9 -160.1l-11.5 94.5 612.9 -8.5 31 -87.7 -13.2 -88.4 -176.3 68.9 -442.9 21.2zm286.2 -682.6l-349.3 243.4 -79.5 136.2 -24.8 136.3 128.4 88.4 428.7 -5.8 275.6 -71.6 31 130.1 -24.8 171.9 263 124.5 54.9 59.5 349 11.9 12.4 -148.1 -318.8 -367.9 -355.3 -462 -220.6 -88.5 -169.9 41.7zm-462.5 -1162.8l193.2 242.6 -39.8 1048.7 280.7 -194 200.3 -39.2 280.5 97 320.9 427.2 301.2 -193.9 1464.2 -19.6 -361.4 -2350.2 388.1 -1.6 -722.8 -532.1 0.8 345.6 -915 0.8 -4.4 659.8 -263.2 -1 -33.6 487 -1089.7 22.9zm3843.8 -3777.4l-1023.3 0 -200.2 427.3 -461.4 213.7 -381 990.7 -742.3 427.3 -1042.6 1650.5 1023 -19.6 40 -485.3 260.3 0 0 -660.5 902.9 0 20.1 -854.6 863 -193.9 361.3 -563.5 561.7 -19.7 -181.5 -912.4zm2266.8 -407.9l-361.4 -116.5 -1504.2 271.6 -327.7 239.1 200.2 993.4 -597.9 22.9 -359.8 555.8 -856.5 197.4 2.6 404.4 2821.4 2072.5 481 39.3 1604.4 -1204.5 -160.3 -194 -301.4 -39 -180.7 -291.4 0 -1204.4 -120.3 -116.6 20.3 -310.6 -320.7 -310.7 -40 -330.3 140.1 -96.9 -60.2 -349.9 -78.9 -231.6zm3887.9 -7135.3l-496.1 -16.9 -314.5 184.6 -4.4 137 203.7 184.7 633.4 103 -22.1 -592.4zm-33686.8 6960.1l427.8 1294.6 -199.3 107.3 22.3 257.1 376.4 278.4 0 514.8 465.1 429 -199.3 -1264.7 -265.8 -836.8 66.4 -578.8 221.7 21.3 88.4 193.2 -88.4 492.7 1151.4 2165.3 0 772.2 930.1 1050.4 1018.8 450.3 420.8 -235.8 597.9 471.4 354.2 -343 -154.9 -386.4 509.3 -149.9 155.1 86 155 -149.8 243.6 0.1 443.1 -750.7 -221.7 -193.1 -863.6 193.1 -199.4 557.4 -509.3 86 -597.9 -235.6 -265.8 -814.7 201.1 -1027.4 -411 -245.9 -195.9 -986.5 -163.9 -67.2 -299.4 291.8 -343.6 -176.1 -134.8 -658 -1361.5 -137 -703.3 -508.2 -669.7 33.2zm63361.7 10457.7l-33 2080 312 -16 410.2 -460.7 344.5 16.4 221.4 190.6 73.6 587.2 705.2 357.5 180.7 -63.8 0 -214.5 -566 -452.9 -279.2 -619.5 221.6 -103.1 -164 -341.2 -327.7 -7.7 -82.3 -365.2 -869.1 -563.4 -147.9 -23.7z"/>
 </g>
</svg>
