<?xml version="1.0" encoding="utf-8"?>
<!-- Generator: Adobe Illustrator 26.0.3, SVG Export Plug-In . SVG Version: 6.00 Build 0)  -->
<svg version="1.0" id="Слой_1" xmlns="http://www.w3.org/2000/svg" xmlns:xlink="http://www.w3.org/1999/xlink" x="0px" y="0px"
	 viewBox="0 0 239.5 150.2" style="enable-background:new 0 0 239.5 150.2;" xml:space="preserve">
<style type="text/css">
	.st0{fill:#3D3D3D;}
</style>
<g>
	<path class="st0" d="M197.4,100.1v-0.7v-0.7c0-0.4-0.2-0.9-0.2-1.5c0-0.4-0.2-0.9-0.2-1.5c0-0.4-0.2-0.9-0.4-1.3
		c-0.2-0.4-0.2-0.9-0.4-1.3c-0.2-0.4-0.4-0.9-0.7-1.3c-0.2-0.4-0.4-0.9-0.7-1.3c-0.4-0.9-1.1-1.5-1.7-2.2c-0.2-0.4-0.7-0.7-1.1-0.9
		c-0.4-0.2-0.7-0.7-1.1-0.9c-0.4-0.2-0.7-0.4-1.1-0.7c-0.4-0.2-0.9-0.4-1.1-0.4c-0.4-0.2-0.9-0.2-1.3-0.4c-0.4,0-0.9-0.2-1.3-0.2
		l0,0h-2.8h-0.2v0.2l0.2,1.1c0,0.4,0.2,0.7,0.2,1.1s0.2,0.7,0.2,1.1c1.3,6.7,1.3,13.9,1.3,14.5l0,0h11.5c0-9.8-6.5-17.1-10.4-16.3
		v-1.1c0.4,0,0.7,0.2,1.1,0.2c0.4,0.2,0.9,0.2,1.1,0.4c0.9,0.4,1.5,0.7,2.2,1.3c1.3,1.1,2.6,2.4,3.5,3.9c0.4,0.9,0.9,1.5,1.3,2.4
		c0.2,0.4,0.4,0.9,0.4,1.3c0.2,0.4,0.2,0.9,0.4,1.3c0,0.2,0.2,0.4,0.2,0.7c0,0.2,0.2,0.4,0.2,0.7c0,0.4,0.2,0.9,0.2,1.3l0.2,0.7
		L197.4,100.1c0,0.4,0,0.9,0,1.5V101V100.1z M183.7,86.2V86l-0.2-0.9h2.6v1.1H183.7z M188.7,91.7C188.7,91.7,188.9,91.7,188.7,91.7
		c0.2-0.2,0.2-0.2,0.4-0.2c0.2,0,0.2,0,0.4,0h0.2l0,0c0,0,0,0-0.2,0c0,0-0.2,0-0.2,0.2c0,0,0,0-0.2,0.2
		C188.9,91.7,188.9,91.7,188.7,91.7c0,0.2,0,0.4-0.2,0.4c0,0.2,0,0.4,0,0.4c0,0.2,0,0.4,0.2,0.4c0,0,0,0.2,0.2,0.2l0.2,0.2
		c0.2,0,0.4,0.2,0.4,0.2c0.2,0,0.4,0,0.4,0s0,0,0.2,0c0,0,0,0,0.2,0c0,0,0.2,0,0.2-0.2c0.2-0.2,0.2-0.2,0.2-0.4c0.2-0.2,0-0.7,0-0.7
		v-0.2l0,0l0,0c0,0,0,0,0,0.2c0,0.2,0.2,0.4,0,0.9c0,0.2-0.2,0.2-0.2,0.4l-0.2,0.2c0,0,0,0-0.2,0c0,0,0,0-0.2,0s-0.4,0.2-0.7,0.2
		s-0.4,0-0.7-0.2l-0.2-0.2l-0.2-0.2c-0.2-0.2-0.2-0.4-0.2-0.7c0-0.2,0-0.4,0.2-0.7C188.5,91.9,188.7,91.9,188.7,91.7z M187.2,92.7
		c0.2-0.2,0.2-0.2,0.4-0.4c0.2-0.2,0.4-0.2,0.4-0.4c0.2,0,0.2-0.2,0.2-0.2s0,0-0.2,0.2c-0.2,0.2-0.2,0.2-0.4,0.4
		C187.4,92.5,187.4,92.7,187.2,92.7C187,93,187,93,187.2,92.7C187,93,187,93,187.2,92.7z"/>
	<path class="st0" d="M190.7,102.7h-3c-0.9,0-2,0-2.8,0c0-1.3,0-2.6,0-3.7c0-0.4,0-0.7,0-1.1s0-0.7,0-1.1v-1.1v-1.1
		c0-0.4,0-0.7,0-1.1c0-0.4,0-0.7,0-1.1s0-0.7-0.2-1.1l-0.2-1.1c0-0.4,0-0.7-0.2-1.1v-0.4v-0.4c0-0.2-0.2-0.7-0.2-0.9l-0.2-0.9
		l0.2,0.9c0,0.2,0,0.7,0.2,0.9v0.4v0.4c0,0.4,0,0.7,0.2,1.1v1.1v1.1c0,0.4,0,0.7,0,1.1c0,0.4,0,0.7,0,1.1v1.1v1.1c0,0.4,0,0.7,0,1.1
		s0,0.7,0,1.1c0,0.7,0,1.3,0,2c0,0.7,0,1.3,0,2v0.2h0.2c1.1,0,2,0,3,0h3c1.1,0,2,0,3,0c1.1,0,2,0,3,0c-1.1,0-2,0-3,0
		C192.6,102.7,191.5,102.7,190.7,102.7z"/>
	<path class="st0" d="M203.2,121.8c0.2-0.2,0.4-0.4,0.4-0.9v-17.4c0-6.1-2.4-11.7-6.7-16.1c-4.3-4.3-10-6.7-16.1-6.7
		c-2,0-4.1,0.2-6.1,0.9V75l30.4-27.1l-30.4,22.3v-6.7c0-2-0.7-5.6-1.3-8.2c-1.5-5.9-2.4-6.3-2.6-6.5c-0.7-0.4-1.1-0.4-1.3-0.4l0,0
		l0,0c-0.2,0-0.7,0-1.3,0.4c-0.2,0.2-1.3,0.9-2.6,6.5c-0.2,1.1-0.7,2.6-0.9,3.9v-5c0-2.6-1.7-7.6-3.5-11.7c-1.1-2.4-2-4.3-3-5.9
		c-1.3-2-2.2-3-3.3-3.5c-1.1-0.4-2-0.4-2.2-0.4l0,0l0,0c-0.2,0-1.1,0-2.2,0.4c-0.9,0.4-2,1.5-3.3,3.5c-0.9,1.5-2,3.7-3,5.9
		c-1.7,3.9-3.5,9.1-3.5,11.7v4.6c-0.2-1.3-0.4-2.4-0.9-3.5c-1.5-5.9-2.4-6.3-2.6-6.5c-0.7-0.4-1.1-0.4-1.3-0.4l0,0l0,0
		c-0.2,0-0.7,0-1.3,0.4c-0.2,0.2-1.3,0.9-2.6,6.5c-0.7,2.6-1.3,6.1-1.3,8.2v6.3l-29.7-21.9L131,74.5v2.4c-1.1,0-2.4,0.2-3.9,0.4
		c-3.7,0.9-7.8,2.4-11.9,4.8l-6.7-5.4c0-0.2,0-0.2,0-0.4c0-0.7-0.4-1.1-1.1-1.1c-0.7,0-1.1,0.4-1.1,1.1c0,0.4,0.4,0.9,0.9,1.1
		l1.7,8.5c-3.9,2.6-7.4,5.6-9.5,8.5c-3,3.7-4.1,6.9-2.8,9.1c1.1,1.7,3.7,2.6,7.4,2.6c0.9,0,1.7,0,2.6-0.2c1.3-0.2,2.6-0.4,3.9-0.7
		c-0.2,1.7-0.9,3.3-1.5,4.6c-3.7,6.9-3,13-3,13h13.7h11.1h2.6h2.8h0.7h5.9H164h5.2h0.7h3.9c0.7,0,1.3,0,2,0c1.7,0,3.3,0,5,0
		s3.5,0,5,0c0.9,0,1.7,0,2.4,0c0.9,0,1.5,0,2.4,0c3.3,0,6.1-0.2,8.7-0.4c1.3,0,2.4-0.2,3.5-0.2L203.2,121.8z M170.5,49.8L170.5,49.8
		c0.2,0.2,0.4,0.4,0.4,0.7c0.2,0.4,0.7,1.3,0.9,2.2c0.4,0.9,0.7,2.2,1.1,3.5c0.4,1.3,0.7,2.8,1.1,4.6c0.2,0.9,0.2,1.7,0.4,2.6
		c0,0.4,0,0.9,0,1.5c0,0.4,0,0.9,0,1.5c0,2,0,4.1,0,6.3c0,4.3,0,8.9,0,13.4s0,9.1,0,13.4c0,0.7,0,1.3,0,2.2
		c-0.2-0.2-0.2-0.2-0.4-0.4c0-0.7,0-1.1,0-1.7c0-4.3,0-8.9,0-13.4s0-9.1,0-13.4c0-2.2,0-4.1,0-6.3c0-0.4,0-1.1,0-1.5s0-0.9,0-1.3
		c0-0.9-0.2-1.7-0.2-2.6c-0.2-1.7-0.7-3.3-0.9-4.6c-0.2-1.3-0.7-2.6-0.9-3.5c-0.2-0.9-0.7-1.7-0.9-2.2
		C170.7,50.2,170.7,50,170.5,49.8L170.5,49.8C170.5,49.8,170.3,49.8,170.5,49.8C170.3,49.8,170.5,49.8,170.5,49.8z M173.1,104.2
		c4.3,2.8,6.7,4.3,7.6,4.8c0.7,2.2,0.7,4.1,0.7,4.1s-3.7,0.4-8.5,1.1l7.6-1.3l-10.8,0.7c0-3.7,0-7.2-0.4-10c0,0.2,0.2,0.7,0.2,0.9
		c0,0.4,0.2,0.7,0.2,1.1s0,0.7,0.2,1.1c0,0.7,0.2,1.5,0.2,2.2c0,0.7,0.2,1.3,0.2,2c0,1.1,0.2,1.7,0.2,1.7s0-0.7,0-1.7
		c0-0.7,0-1.3,0-2c0-0.7,0-1.5,0-2.2c0-0.4,0-0.7,0-1.1s0-0.7,0-1.1s0-0.7,0-1.1c0-0.2,0-0.7,0-0.9l0,0
		C170.7,102.7,171.8,103.4,173.1,104.2z M193.1,106.6c-0.4,0-1.1,0-2,0s-1.7,0-2.8,0s-2.2,0-3.3,0c-1.1,0-2.2,0-3.3,0
		c-0.4,0-0.7,0-1.1,0c0,0,0,0,0-0.2c0.4,0,0.7,0,1.1,0c1.1,0,2.2,0,3.3,0c1.1,0,2.2,0,3.3,0s2,0,2.8,0
		C191.8,106.6,192.4,106.6,193.1,106.6c0.4,0,0.7,0,0.7,0S193.5,106.6,193.1,106.6z M194.8,109c0.2,0,0.2,0,0.4,0l0.2-2l0.2,2
		c0.7,0,1.1,0,1.5,0c0.7,0,0.9,0,0.9,0s-0.4,0-0.9,0C196.5,109.2,195.9,109.2,194.8,109c-1.1,0.2-2.2,0.2-3.5,0.2
		c-1.3,0-2.6,0-3.9,0c-1.3,0-2.6,0-3.9,0c-0.9,0-1.5,0-2.2,0c0,0,0,0,0-0.2c0.7,0,1.5,0,2.2,0l0.2-2l0.2,2c1.1,0,2.4,0,3.5,0l0.2-2
		l0.2,2c1.1,0,2.4,0,3.5,0l0.2-2l0.2,2C192.8,109,193.9,109,194.8,109z M174.2,115.7c0,1.3,0.2,2.6,0.4,3.5c0.2,1.1,0.4,1.7,0.7,2.2
		s0.2,0.9,0.2,0.9s-0.2-0.2-0.2-0.9c-0.2-0.4-0.4-1.3-0.7-2.2C174.4,118.3,174.2,117,174.2,115.7c-0.2-0.2-0.2-0.4-0.2-0.4
		c0-0.2,0-0.2,0-0.4h0.2c0,0.2,0,0.2,0,0.4C174.2,115.3,174.2,115.5,174.2,115.7z M172.7,120.9l-7.4,0.4l7.6,0.4c0,0.2,0,0.4,0,0.4
		l0,0h-3.3h-5.9c0,0,1.1-2.4,1.5-6.5c0.2,0,0.4,0,0.7,0c0,1.1-0.2,2.2-0.4,3c-0.2,0.9-0.4,1.7-0.7,2.2c-0.2,0.4-0.2,0.7-0.2,0.7
		s0.2-0.2,0.4-0.7c0.2-0.4,0.4-1.3,0.7-2.2s0.4-2,0.4-3.3c2-0.2,3.9-0.4,5.9-0.7c0,0.2,0,0.2,0,0.4l-5.4,0.7l5.4,0.7
		C172.2,118.3,172.4,119.9,172.7,120.9z M152.1,119v-1.5l0,0v-5c0-0.2,0-0.2,0-0.4c0-0.4,0-0.7,0-0.7v-3.9c-0.4,0-0.9,0-1.3,0
		c-0.2,0-0.7,0-0.9,0c0.2,0.9,0.7,2.8,0.7,3.9c0,1.3-0.2,2.2-0.4,2.8c0-0.2,0.2-0.4,0.2-0.7c0-0.2,0-0.4,0-0.7c0-0.2,0-0.4,0-0.7
		c0-0.9-0.2-2-0.2-2.6c-0.2-0.7-0.2-1.1-0.2-1.1s0.2,0.4,0.2,1.1c0,0.7,0.2,1.5,0,2.6c0,0.2,0,0.4,0,0.7c0,0.2,0,0.4-0.2,0.7
		c0,0.4-0.2,0.9-0.4,1.1c0,0,0,0.2-0.2,0.2c0,0,0,0.2-0.2,0.2c0,0.2-0.2,0.2-0.2,0.2l0,0c0,0,0,0-0.2,0c-0.2,0-0.4,0-0.7,0
		c-0.2,0-0.4,0-0.7,0s-0.4,0-0.7,0c-0.2,0-0.4,0-0.7,0c-0.2,0-0.4,0-0.7,0s-0.4,0-0.7,0s-0.4,0-0.4,0c-0.2,0-0.2,0-0.4,0
		c-0.2,0-0.4,0-0.4,0s0.2,0,0.2,0.2c0,0,0.2,0,0.4,0.2c0.2,0,0.2,0.2,0.4,0.2c0.2,0,0.4,0.2,0.7,0.2c0.2,0,0.4,0,0.7,0.2
		c0.2,0,0.4,0,0.7,0.2c0.2,0,0.4,0,0.7,0s0.4,0,0.9,0c0.2,0,0.4,0,0.7,0h0.2c0,0.2-0.2,0.4-0.2,0.9l0,0c0,0-0.2,0-0.4,0
		c-0.2,0-0.2,0-0.4,0c-0.2,0-0.2,0-0.4,0c-0.2,0-0.2,0-0.4,0c-0.7,0-1.3,0-1.7,0c-0.4,0-0.9,0-0.9,0s0.2,0,0.7,0.2
		c0.4,0,1.1,0.2,1.7,0.2c0.2,0,0.2,0,0.4,0c0.2,0,0.2,0,0.4,0c0.2,0,0.2,0,0.4,0c0.2,0,0.2,0,0.2,0c-0.2,1.1-0.9,2-1.3,2.4l-0.2-1.5
		l-0.4,2c0,0-0.2,0-0.4,0l0,0c0-0.2-0.2-0.4-0.2-0.9c-0.2-0.7-0.2-1.3-0.2-1.3s0,0.7-0.2,1.3c0,0.2,0,0.4,0,0.7h-0.2v-0.2
		c0-0.2-0.2-0.4-0.2-0.9c-0.2-0.7-0.4-1.3-0.4-1.3s0,0.7,0,1.3c0,0.2,0,0.4,0,0.4c-0.4-0.2-0.7-1.3-0.9-2.8l0,0
		c-0.7,0-1.1-1.1-1.3-2.2c0-0.2,0-0.4,0-0.7c0-0.4,0-0.9,0-1.3c0-0.2,0-0.4,0-0.9c0-0.2,0-0.4,0-0.9c0-0.2,0-0.4,0-0.9
		c0-0.2,0-0.4,0-0.9c0-0.2,0-0.4,0-0.7c0-0.2,0-0.4,0-0.7c0-0.2,0-0.4,0-0.4c0-0.2,0-0.2,0-0.4c0,0,0-0.2,0.2-0.2l0,0l0,0
		c0,0-0.2,0-0.2,0.2c0,0-0.2,0.2-0.2,0.4s-0.2,0.4-0.2,0.4c0,0.2,0,0.4-0.2,0.7c0,0.2,0,0.4-0.2,0.7c0,0.2,0,0.4,0,0.9
		c0,0.2,0,0.4,0,0.9c0,0.2,0,0.4,0,0.9c0,0.2,0,0.4,0,0.9c0,0.2,0,0.7,0,0.9l-12.4-0.7l6.5,1.1c-6.3-0.7-11.7-1.3-11.7-1.3
		s0-1.7,0.7-4.1c0.7-0.4,3-2,7.6-4.8c4.1-2.6,7.4-4.8,7.4-4.8c1.1-0.9,2.4-1.7,3-3.3l0.2,9.1l0.4-10.6c0-0.2,0-0.4,0.2-0.4
		c0,0.4,0,0.9,0,1.1c0,2,0,3.9,0,5.4s0,2.8,0,3.9c0,0.4,0,0.9,0,1.1c0,0.2,0,0.4,0,0.4s0-0.2,0-0.4c0-0.2,0-0.7,0-1.1
		c0-0.9,0-2.2,0-3.9c0-0.9,0-1.7,0-2.8c0.2,0,0.2,0,0.4,0c0.4,0,1.1,0,2,0s1.7,0,2.8,0c0.4,0,1.1,0,1.5,0c0.7,0,1.1,0,1.7,0
		c1.1,0,2.2,0,3.3,0.2c0.2,0,0.4,0,0.9,0c0,3.9-0.2,7.4-0.2,8.5h-3.9h-4.3h-2.2c-0.4,0-0.7,0-1.1,0s-0.7,0-1.1,0c0.4,0,0.7,0,1.1,0
		s0.7,0,1.1,0h1.7c0.2,0,0.7,0,0.9,0c0.4,0,0.9,0,1.3,0c0.4,0,0.9,0,1.5,0c0.4,0,0.9,0,1.5,0c0.4,0,0.9,0,1.3,0c0.9,0,1.7,0,2.4,0
		c1.5,0,2.4,0.2,2.4,0.2s-0.9,0-2.4,0.2h-0.2c0.2,2.4,1.1,5,1.7,7.2c0-0.2-0.2-0.4-0.2-0.9c-0.2-0.4-0.2-0.7-0.4-1.1
		c-0.4-1.5-0.9-3-0.9-3s0.2,1.5,0.7,3c0,0.4,0.2,0.7,0.2,1.1s0.2,0.7,0.2,0.9c0,0.2,0,0.2,0.2,0.4v0.2h-0.2c-0.7,0-1.5,0-2,0
		l-1.7-8.2c-0.4,0-0.9,0-1.3,0c-0.2,0,1.2,0.5,1,0.5c0,1.3,0.1,3.6,0.1,4.2c0,2.8,0.7,8.4,0.7,9.7l-2.9-2.5
		C152.3,119.4,152.1,119.2,152.1,119z M127.3,102.5c0-1.1,0-2.2,0-2.8c0-0.4,0-0.7,0-0.9c0-0.2,0-0.2,0-0.2s0,0.4,0,1.1
		C127.3,100.6,127.3,101.4,127.3,102.5c0.2,0.7,0.2,1.1,0.2,1.7c0,0,0,0,0,0.2c0,0,0,0-0.2,0.2C127.3,104,127.3,103.2,127.3,102.5z
		 M128.6,95.8c0.9-0.9,1.7-1.7,2.6-2.6v8.7l0,0c-1.1,0.9-2,1.5-2.6,2.2C128,101.2,128.2,98.2,128.6,95.8z M139.9,95.3
		c0.4-0.4,0.7-0.7,0.7-0.7s0,0-0.2,0.2C140.3,95.1,140.1,95.3,139.9,95.3c0,0.2-0.2,0.7-0.4,0.9c-0.2,0.2-0.4,0.7-0.9,0.9
		c-0.2,0.2-0.2,0.4-0.4,0.4c-0.2,0.2-0.4,0.4-0.4,0.7c-0.2,0.2-0.4,0.4-0.7,0.7c-0.2,0.2-0.4,0.4-0.7,0.7c-0.4,0.4-0.9,0.9-1.3,1.1
		c-0.4,0.4-0.9,0.7-1.3,1.1c-0.4,0.4-0.9,0.7-1.5,1.1c-0.4,0.4-0.9,0.7-1.5,1.1c-0.9,0.7-1.7,1.3-2.6,1.7c-0.7,0.4-1.3,0.9-1.7,1.3
		l-0.2,0.2l-0.2,0.2c0,0.2-0.2,0.2-0.2,0.2s0,0,0-0.2c0,0,0-0.2,0.2-0.2l0.2-0.2c0.2-0.2,0.4-0.4,0.7-0.7c0.2-0.2,0.7-0.4,0.9-0.9
		c0.4-0.2,0.7-0.7,1.1-0.9c0.4-0.2,0.9-0.7,1.3-1.1c0.4-0.4,0.9-0.7,1.3-1.1c0.4-0.4,0.9-0.7,1.5-1.1c0.4-0.4,0.9-0.7,1.3-1.1
		c0.4-0.4,0.9-0.7,1.3-1.1c0.2-0.2,0.4-0.4,0.7-0.4c0.2-0.2,0.4-0.4,0.7-0.4c0.4-0.4,0.7-0.7,1.1-1.1c0.2-0.2,0.7-0.7,0.9-0.9
		C139.5,95.8,139.7,95.6,139.9,95.3z M142.1,91.9c0-0.2,0-0.2,0-0.4s0-0.4,0-0.7c0-0.7,0.2-1.5,0.2-2.6s0.2-2.4,0.4-3.7
		c0-0.7,0.2-1.3,0.2-2.2c0-0.7,0.2-1.5,0.2-2.2s0.2-1.5,0.2-2.2c0-0.7,0.2-1.5,0.2-2.2c0.2-1.3,0.4-2.6,0.4-3.7
		c0.2-1.1,0.2-2,0.4-2.6c0-0.7,0.2-1.1,0.2-1.1s0,0.4,0,1.1c0,0.7-0.2,1.5-0.2,2.6c-0.2,1.1-0.2,2.4-0.4,3.7c0,0.7-0.2,1.3-0.2,2.2
		c0,0.7-0.2,1.5-0.2,2.2s-0.2,1.5-0.2,2.2c0,0.7-0.2,1.5-0.2,2.2c-0.2,1.3-0.4,2.6-0.4,3.7c-0.2,1.1-0.2,2-0.4,2.6
		C142.1,91.4,142.1,91.9,142.1,91.9c0,0.4-0.2,1.1-0.4,1.5C141.9,92.7,141.9,92.3,142.1,91.9z M157.7,57c0.2,0.7,0.7,1.3,0.9,2
		c0.2,0.2,0.2,0.7,0.4,0.9c-0.2,0-0.2,0-0.4-0.2c-0.2,0-0.4-0.2-0.7-0.2c-0.2,0-0.4-0.2-0.9-0.2c-0.2,0-0.7,0-0.9-0.2
		c-0.2,0-0.2,0-0.4,0l-1.1-2.2l0.4,2.2c-0.2,0-0.2,0-0.4,0c-0.2,0-0.4,0-0.4,0c-0.4,0-0.7,0-1.1,0c-0.2,0-0.4,0-0.4,0
		c-0.2,0-0.4,0-0.4,0h-0.2c0,0,0,0-0.2,0l0.4-2.4l-1.3,2.6c-0.2,0-0.4,0-0.7,0.2c-0.2,0-0.2,0-0.4,0.2c-0.2,0-0.2,0-0.2,0.2
		c-0.2,0-0.4,0.2-0.4,0.2c-0.2,0.2-0.4,0.2-0.4,0.2s0.2,0,0.4-0.2c0.2,0,0.2-0.2,0.4-0.2h0.2c0.2,0,0.2,0,0.4,0c0.2,0,0.4,0,0.9-0.2
		c0.2,0,0.2,0,0.4,0h0.2h0.2c0.2,0,0.2,0,0.4,0c0.2,0,0.4,0,0.4,0c0.4,0,0.7,0,1.1,0c0.2,0,0.4,0,0.4,0c0.2,0,0.4,0,0.4,0
		c0.4,0,0.7,0,1.1,0.2c0.2,0,0.7,0.2,0.9,0.2c0.2,0,0.7,0.2,0.9,0.2c0.2,0,0.4,0.2,0.7,0.2s0.4,0.2,0.4,0.2c0.2,0,0.4,0.2,0.4,0.2
		l0,0c0.2,0.4,0.2,0.7,0.2,1.1c0.4,1.7,0.9,3.7,1.3,5.6c0.2,0.7,0.2,1.5,0.4,2.2c-0.2,0-0.2,0-0.4,0c-0.2,0-0.4,0-0.4,0
		c-0.2-0.7-0.2-1.5-0.4-2c-0.2-1.1-0.4-1.7-0.4-1.7s0.2,0.7,0.4,1.7c0,0.4,0.2,1.1,0.2,2c-0.2,0-0.7,0-0.9,0c-0.7,0-1.5,0-2.4,0
		c-0.9,0-1.7,0-2.8,0c-0.4,0-0.9,0-1.3,0c-0.4,0-0.9,0-1.3,0c-0.9,0-1.7,0-2.4,0.2c-1.3,0.2-2.4,0.2-2.4,0.2s0.9,0,2.4-0.2
		c0.7,0,1.5,0,2.4,0c0.4,0,0.9,0,1.3,0c0.4,0,0.9,0,1.3,0c0.9,0,1.7,0,2.6,0s1.7,0,2.4,0.2c0.4,0,0.7,0,1.1,0c0,0.7,0.2,1.3,0.2,2.2
		s0,2,0,3c0,1.1,0,2.2,0,3.5c0,0,0,0,0,0.2c-0.2,0-0.7,0-0.9,0l-0.2-7.8c0,0,0,2.2-0.2,5.6c0,0.7,0,1.3,0,2.2c-0.7,0-1.5,0-2.4,0
		c-0.9,0-2,0-2.8,0c-0.4,0-0.9,0-1.5,0c-0.4,0-0.9,0-1.3,0c-0.9,0-1.7,0-2.4,0.2c-0.7,0-1.3,0.2-1.7,0.2c-0.4,0-0.7,0-0.7,0
		s0.2,0,0.7,0c0.4,0,1.1,0,1.7,0c0.7,0,1.5,0,2.4,0c0.4,0,0.9,0,1.3,0c0.4,0,0.9,0,1.5,0c0.9,0,2,0,2.8,0.2c0.9,0,1.7,0.2,2.4,0.2
		l0,0l0,0c0,0.9,0,2,0,3c0,2,0,3.9-0.2,5.9c-0.2,0-0.4,0-0.7,0v-3.5c0,0,0,1.3,0,3.5l0,0c-0.4,0-0.9,0-1.3,0c-0.9,0-2,0-3,0
		c-0.4,0-1.1,0-1.5,0c-0.4,0-1.1,0-1.5,0c-0.9,0-2,0.2-2.6,0.2c-0.9,0-1.3,0.2-2,0.2c-0.4,0-0.7,0-0.7,0s0.2,0,0.7,0
		c0.4,0,1.1,0,2,0s1.7,0,2.6,0c0.4,0,1.1,0,1.5,0c0.4,0,1.1,0,1.5,0c1.1,0,2,0,3,0.2c0.4,0,0.9,0,1.3,0c0,0.9,0,2,0,3
		c0,1.3,0,2.6,0,4.1c0,0.7,0,1.1,0,1.7c-0.2,0-0.4,0-0.9,0c-1.1,0-2.2,0-3.3,0c-0.7,0-1.1,0-1.7,0c-0.7,0-1.1,0-1.5,0
		c-1.1,0-2,0.2-2.8,0.2c-0.9,0-1.5,0.2-2,0.2c-0.2,0-0.2,0-0.4,0c0-0.9,0-1.7,0-2.6c0-1.1,0-2,0-3s0-2.2,0-3.3s0-2.2,0-3.3
		c0-1.1,0-2.2,0-3c0-1.1,0-2,0-2.8c0-0.9,0-1.7,0-2.6c0-1.5,0-2.8,0-3.9c0-0.4,0-0.9,0-1.1c0-0.2,0-0.4,0-0.4c0-1.1,0-2.2,0-2.8
		c0.7-4.6,2-9.3,3.7-12.6l0,0C148.4,57,152.1,55.2,157.7,57z M157.5,54.6h0.9c0,0.2,0,0.4,0,0.4c0,0.2,0,0.7,0,1.1
		C158.1,55.7,157.7,55,157.5,54.6z M163.6,85.4c0-0.9,0-1.3,0-1.3S163.6,84.5,163.6,85.4c0,0.4,0.2,0.9,0.2,1.5c0,0.7,0,1.3,0,2
		c0,0.7,0,1.5,0,2.2c0,0.9,0,1.7,0,2.6c0,0.9,0,1.7,0,2.8c0,0.9,0,2,0,2.8c0,0.4,0,0.9,0,1.3s0,0.9,0,1.3c0,0.9,0,1.7-0.2,2.6
		c0,0.9-0.2,1.7-0.2,2.6c0,0.4,0,0.9,0,1.1c0,0.4,0,0.7,0,1.1c0,0.7,0.2,1.3,0.2,2c0,0.7,0,1.1,0,1.5s0,0.7-0.2,0.9
		c0,0.2,0,0.4,0,0.4s0-0.2,0-0.4c0-0.2,0-0.4,0-0.9c0-0.4,0-0.9,0-1.5c0-0.7-0.2-1.3-0.2-2c0-0.4,0-0.7,0-1.1s0-0.9,0-1.1
		c0-0.9,0.2-1.7,0.2-2.6c0-0.9,0-1.7,0.2-2.6c0-0.4,0-0.9,0-1.3s0-0.9,0-1.3c0-0.9,0-2,0-2.8c0-0.9,0-1.7,0-2.6c0-0.9,0-1.7,0-2.6
		c0-0.9,0-1.5,0-2.2c0-0.7,0-1.3,0-2C163.6,86.2,163.6,85.8,163.6,85.4z M159.7,116.2L159.7,116.2c0.2,0.4,0.2,0.7,0.2,0.9h-0.2
		c-0.2,0-0.2,0-0.4,0c-0.2,0-0.2,0-0.4,0c-0.7,0-1.3,0-1.7,0c-0.4,0-0.9,0-0.9,0s0.2,0,0.7,0.2c0.4,0,1.1,0.2,1.7,0.2
		c0.2,0,0.2,0,0.4,0c0.2,0,0.2,0,0.4,0h0.2c0,1.1-0.4,2-0.9,2.4l-0.2-1.3l0,2c0,0-0.2,0-0.4,0c0-0.2-0.2-0.4-0.2-0.9
		c-0.2-0.7-0.2-1.3-0.2-1.3s0,0.7-0.2,1.3c0,0.2,0,0.4,0,0.7c0,0-0.2,0-0.2-0.2l0,0c0-0.2-0.2-0.4-0.2-0.9c-0.2-0.7-0.4-1.3-0.4-1.3
		s0,0.7,0,1.3c0,0.2,0,0.2,0,0.4c-0.2-0.4-0.7-1.3-0.7-2.6l1.1-1.5c0.7,0,1.3,0.2,2,0.2C159,116.2,159.4,116.2,159.7,116.2z
		 M158.1,97.5l-0.2-8.9c0.2,0,0.4,0,0.7,0v0.2C158.4,91.9,158.4,94.9,158.1,97.5L158.1,97.5z M158.4,98.2c0,1.7,0,3,0,4.3V98.2
		C158.1,98.2,158.1,98.2,158.4,98.2z M159,79.3c0.4,0,0.7,0,0.9,0c0,2.2-0.2,4.6-0.2,6.7c0,0.7,0,1.3,0,2c-0.2,0-0.2,0-0.4,0
		L159,79.3z M159.2,88.8c0.2,0,0.2,0,0.4,0c0,2.8-0.2,5.4-0.2,8L159.2,88.8z M161.2,88.8L161.2,88.8l0.2,0.9v4.1
		C161.2,92.3,161.2,90.6,161.2,88.8z M161.4,85.6v2.6h-0.2c0-0.7,0-1.3,0-2c0-2.4-0.2-4.6-0.2-6.7c0.2,0,0.4,0,0.4,0v1.7L161.4,85.6
		z M161.4,78.9c-0.2,0-0.4,0-0.7,0v-0.2c0-1.3,0-2.4-0.2-3.5c0-1.1-0.2-2.2-0.2-3c0-0.7-0.2-1.5-0.2-2.2c0.2,0,0.2,0,0.4,0
		c0.4,0,0.7,0,0.7,0c0.2,0.9,0.2,1.7,0.2,2.8L161.4,78.9z M167.2,55.2L167.2,55.2c0-0.2,0.2-0.4,0.2-0.7c0.2-0.4,0.2-0.9,0.4-1.3
		c0.2-0.9,0.7-1.7,0.9-2.4c0.2-0.7,0.4-1.1,0.4-1.1s-0.2,0.4-0.2,1.1c-0.2,0.7-0.2,1.5-0.4,2.4c0,0.4-0.2,0.9-0.2,1.3
		c0,0.2,0,0.4,0,0.7v0.2c0.4,0,0.9-0.2,1.5-0.2s1.1,0,1.5,0.2c0.2,2.2,0.4,4.8,0.7,6.7l-5.2,0.7l5.2,0.7c0,0.2,0,0.4,0,0.4
		c0,2.2,0,12.8,0,23.6l-5.2,0.2L172,88c0,3.9,0,7.6,0,11.1c-2.2-1.7-4.1-3.5-5.6-5.2c0-0.7,0-1.3,0-2c0-2.2,0-4.6,0-6.7
		c0-2.2,0-4.6,0-6.7s0-4.3,0-6.5c0-2.2,0-4.1,0-6.1c0-0.4,0-0.9,0-1.5c0-0.4,0-0.9,0-1.3c0-0.9,0-1.7,0.2-2.6
		c0.2-1.7,0.4-3.3,0.7-4.6C167,55.9,167.2,55.4,167.2,55.2z M166.6,55.9L166.6,55.9c0,0,0,0,0.2,0v0.2c-0.2,1.3-0.7,2.8-0.9,4.6
		c-0.2,0.9-0.2,1.7-0.2,2.6c0,0.4,0,0.9,0,1.3s0,0.9,0,1.5c0,2,0,3.9,0,6.1c0,2.2,0,4.3,0,6.5c0,2.2,0,4.6,0,6.7c0,2.2,0,4.6,0,6.7
		c0,0.2,0,0.7,0,0.9c-0.2-0.2-0.2-0.4-0.4-0.9c0-13,0-26.5,0-28.6C165.3,62.2,165.7,58.9,166.6,55.9z M154.7,34.4
		C154.7,34.4,154.9,34.4,154.7,34.4c0.2,0.2,0.4,0.2,0.7,0.4c0.4,0.4,0.9,0.9,1.5,1.7c0.7,0.9,1.3,2,2,3c0.7,1.3,1.3,2.6,2,4.3
		c0.7,1.5,1.3,3.3,2,5.2c0.2,0.9,0.7,2,0.9,3c0.2,0.4,0.2,1.1,0.2,1.5c0,0.2,0,0.2,0,0.4s0,0.2,0,0.4c0,0.2,0,0.4,0,0.9
		c0,2.2,0,4.3,0,6.7c0,2.2,0,4.6,0,6.9s0,4.6,0,6.9c0,2.2,0,4.6,0,6.7c0,0.2,0,0.4,0,0.7c-0.2-2-0.4-3.7-0.7-5.6c0-0.7,0-1.1,0-1.7
		c0-2.2,0-4.6,0-6.9s0-4.6,0-6.9c0-2.2,0-4.6,0-6.7c0-0.2,0-0.4,0-0.9c0-0.2,0-0.2,0-0.4s0-0.2,0-0.4c0-0.4-0.2-1.1-0.2-1.5
		c-0.2-1.1-0.4-2-0.7-2.8c-0.7-2-1.1-3.7-1.7-5.2c-0.7-1.5-1.3-3-2-4.3c-0.7-1.3-1.1-2.4-1.7-3.3s-1.1-1.5-1.5-1.7
		C155.1,34.8,154.9,34.6,154.7,34.4C154.9,34.4,154.7,34.4,154.7,34.4L154.7,34.4L154.7,34.4z M147.7,40.7c0-0.2,0.2-0.4,0.4-0.7
		c0.2-0.2,0.2-0.4,0.4-0.7c0.2-0.2,0.2-0.4,0.4-0.7c0.7-1.1,1.1-2,1.5-2.6c0.4-0.7,0.9-1.1,0.9-1.1s-0.2,0.4-0.7,1.3
		c-0.4,0.9-0.9,1.7-1.3,2.8c0,0.2-0.2,0.4-0.2,0.9c0,0.2-0.2,0.4-0.2,0.9c0,0.2,0,0.2,0,0.4c1.1,0,2.6-0.2,4.3-0.2
		c0.9,0,1.7,0,2.4,0c1.3,3.7,2.6,8.2,2.8,12.4l-2.4,0.2c-0.9-0.7-2-1.1-2.8-1.1c-1.3,0-2.4,0.4-3.5,1.5l-5.2,0.4l4.6,0.2
		c-1.1,1.1-2,2.8-2.6,5c-1.3,3.7-2.4,8.7-3,13.7c0,0.7-0.2,1.5-0.2,2.2c0-2.2,0-4.1,0-6.3c0-4.6,0-9.1,0-13.4c0-0.2,0-0.4,0-0.9
		c0-0.2,0-0.4,0-0.9c0-0.4,0.2-1.1,0.2-1.5c0.2-1.1,0.4-2,0.9-2.8c0.7-2,1.3-3.7,2-5.2C146.6,42.9,147.1,41.8,147.7,40.7
		C147.5,40.9,147.5,40.7,147.7,40.7z M146.6,40.9c0.2,0,0.4,0,0.7,0c-0.4,0.9-0.9,2-1.5,3c-0.7,1.5-1.3,3.3-2,5.2
		c-0.2,0.9-0.7,2-0.9,2.8c-0.2,0.4-0.2,1.1-0.2,1.5c0,0.2,0,0.4,0,0.9c0,0.2,0,0.4,0,0.9c0,4.3,0,8.9,0,13.4c0,3.7,0,7.2,0,10.8
		c-0.2,1.3-0.4,2.6-0.4,3.9c0-12.4,0-26,0-28.6C142.1,52,144.3,45.7,146.6,40.9z M137.3,49.8L137.3,49.8c0.2,0.2,0.4,0.4,0.4,0.7
		c0.2,0.4,0.7,1.3,0.9,2.2c0.4,0.9,0.7,2.2,1.1,3.5c0.4,1.3,0.7,2.8,1.1,4.6c0.2,0.9,0.2,1.7,0.4,2.6c0,0.4,0,0.9,0,1.5
		c0,0.4,0,0.9,0,1.5c0,2,0,4.1,0,6.3c0,4.3,0,8.9,0,13.4c0,1.7,0,3.5,0,5.2c0,0.2,0,0.4,0,0.7c0,0.4-0.2,0.9-0.4,1.3
		c0-2.4,0-4.8,0-7.2c0-4.6,0-9.1,0-13.4c0-2.2,0-4.1,0-6.3c0-0.4,0-1.1,0-1.5s0-0.9,0-1.3c0-0.9-0.2-1.7-0.2-2.6
		c-0.2-1.7-0.7-3.3-0.9-4.6c-0.2-1.3-0.7-2.6-0.9-3.5c-0.2-0.9-0.7-1.7-0.9-2.2C137.5,50.2,137.5,50,137.3,49.8L137.3,49.8
		L137.3,49.8L137.3,49.8z M134.1,55.2L134.1,55.2c0-0.2,0.2-0.4,0.2-0.7c0.2-0.4,0.2-0.9,0.4-1.3c0.2-0.9,0.7-1.7,0.9-2.4
		c0.2-0.7,0.4-1.1,0.4-1.1s-0.2,0.4-0.2,1.1c-0.2,0.7-0.2,1.5-0.4,2.4c0,0.4-0.2,0.9-0.2,1.3c0,0.2,0,0.4,0,0.7v0.2
		c0.4,0,0.9-0.2,1.5-0.2c0.7,0,1.1,0,1.5,0.2c0.2,2.2,0.4,4.8,0.7,6.7l-5.2,0.7l5.2,0.7c0,0.2,0,0.4,0,0.4c0,2.2,0,12.8,0,23.6
		l-5.2,0.2l5.2,0.2c0,2.4,0,4.8,0,7.2c-1.5,1.5-3.7,3.3-5.6,4.8c0-0.4,0-0.9,0-1.3c0-2.2,0-4.3,0-6.5c0-2.2,0-4.6,0-6.7s0-4.6,0-6.7
		c0-2.2,0-4.3,0-6.5c0-2.2,0-4.1,0-6.1c0-0.4,0-0.9,0-1.5c0-0.4,0-0.9,0-1.3c0-0.9,0-1.7,0.2-2.6c0.2-1.7,0.4-3.3,0.7-4.6
		C133.8,55.9,134.1,55.4,134.1,55.2z M132.1,63.9c0-1.7,0.7-5,1.3-7.8c0,0,0,0,0.2,0v0.2c-0.2,1.3-0.7,2.8-0.9,4.6
		c-0.2,0.9-0.2,1.7-0.2,2.6c0,0.4,0,0.9,0,1.3s0,0.9,0,1.5c0,2,0,3.9,0,6.1s0,4.3,0,6.5s0,4.6,0,6.7c0,2.2,0,4.6,0,6.7
		c0,2.2,0,4.3,0,6.5c0,0.7,0,1.3,0,2c-0.2,0.2-0.2,0.2-0.4,0.4C132.1,86,132.1,66.3,132.1,63.9z M131,87.8c-0.7,0.4-1.1,1.1-1.7,1.5
		c0.4-0.4,1.1-1.1,1.5-1.5l0.2-0.2V87.8z M131,79.9v6.9c-0.2,0.2-0.4,0.4-0.4,0.7c-0.4,0.7-1.1,1.1-1.5,1.7l-0.4,0.4l-0.4,0.4
		c-0.2,0.2-0.7,0.4-0.9,0.7c-0.2,0.2-0.7,0.4-0.9,0.7c-0.2,0.2-0.4,0.4-0.7,0.7c-0.2,0.2-0.4,0.4-0.7,0.4l-1.1-0.9l0.2-0.2
		c0.2-0.2,0.4-0.4,0.7-0.9c0.2-0.2,0.4-0.4,0.7-0.9c0.4-0.7,0.9-1.1,1.3-1.7c0.4-0.7,0.9-1.1,1.1-1.7c0.2-0.2,0.4-0.7,0.4-0.9
		c0.2-0.2,0.4-0.7,0.4-0.9c0.2-0.2,0.2-0.7,0.4-0.9c0.2-0.2,0.2-0.7,0.4-0.9c0.2-0.2,0.2-0.7,0.4-0.9c0-0.2,0.2-0.4,0.2-0.9
		C130.8,81,131,80.4,131,79.9L131,79.9z M120,94c0-0.4,0-0.7,0.2-1.1c0-0.2,0-0.4,0-0.7c0-0.2,0-0.4,0-0.7c0-0.4,0-0.9,0-1.3
		c0-0.4,0-0.9,0-1.3l1.3,1.3c0,0.4-0.2,0.9-0.2,1.1c-0.2,0.9-0.4,1.5-0.7,2.2c-0.4,1.1-0.9,2-1.1,2.6C119.7,95.8,120,94.9,120,94z
		 M119.5,96.2c0-0.4-0.2-1.1-0.2-2c0-0.2,0-0.7-0.2-1.1c0-0.4-0.2-0.9-0.2-1.1c0-0.4-0.2-0.9-0.2-1.3c0-0.4-0.2-0.9-0.4-1.3
		c-0.2-0.4-0.2-0.9-0.4-1.3c-0.2-0.4-0.2-0.9-0.4-1.3c-0.2-0.4-0.2-0.9-0.4-1.1l0,0l3,2.8v0.2c0,0.4,0,0.9,0,1.5c0,0.4,0,0.9,0,1.3
		c0,0.2,0,0.4,0,0.7c0,0.2,0,0.4,0,0.7c0,0.2,0,0.7,0,0.9C119.7,94.9,119.7,95.8,119.5,96.2z M120.4,87.5l1.7,1.3
		c0,0.2,0,0.4-0.2,0.7l-1.5-1.5C120.4,88,120.4,87.8,120.4,87.5z M120.6,94L120.6,94c0.4-1.1,0.9-2.4,1.3-3.7l0.9,0.9
		c-0.4,0.9-0.9,1.5-1.3,2.2c-0.7,1.1-1.3,2.2-1.7,2.6C120,95.6,120.4,94.9,120.6,94z M121.3,94L121.3,94c0.7-0.9,1.1-1.7,1.7-2.8
		l0.7,0.7c-0.2,0.2-0.4,0.4-0.7,0.7c-0.2,0.2-0.4,0.4-0.7,0.7c-1.1,1.1-2,2-2.4,2.6l0,0C120.4,95.6,120.8,94.9,121.3,94z
		 M121.9,94.3C121.9,94,122.1,94,121.9,94.3c0.4-0.4,0.9-0.9,1.3-1.3c0.2-0.2,0.4-0.4,0.7-0.7l0.9,0.9c-1.3,0.9-2.8,2-4.3,2.8
		C120.8,95.3,121.5,94.9,121.9,94.3z M126.9,81.7c0-0.2,0-0.4,0.2-0.7c0-0.2,0-0.4,0-0.7c0-0.4,0-0.7,0-1.1c0-0.2,0-0.4,0-0.7h0.2
		c1.3-0.2,2.4-0.4,3.5-0.4c0,0.2,0,0.2,0,0.4c0,0.2-0.2,0.7-0.2,1.1c0,0.4-0.2,0.9-0.4,1.3c0,0.2-0.2,0.4-0.2,0.7
		c0,0.2-0.2,0.4-0.2,0.9c-0.2,0.2-0.2,0.7-0.4,0.9c-0.2,0.2-0.2,0.7-0.4,0.9c-0.2,0.2-0.2,0.7-0.4,0.9c-0.2,0.2-0.4,0.7-0.4,0.9
		c-0.4,0.7-0.7,1.1-1.1,1.7c-0.4,0.7-0.9,1.1-1.1,1.7c-0.2,0.2-0.4,0.7-0.7,0.9c-0.2,0.2-0.4,0.4-0.7,0.9l-0.2,0.2l-0.9-0.9
		c0.4-0.9,0.9-1.7,1.3-2.6c0.2-0.7,0.4-1.1,0.7-1.7c0.2-0.2,0.2-0.7,0.4-0.9c0-0.2,0.2-0.7,0.2-0.9c0-0.2,0.2-0.7,0.2-0.9
		c0-0.2,0.2-0.4,0.2-0.9c0-0.2,0.2-0.4,0.2-0.7C126.7,82.1,126.9,81.9,126.9,81.7z M123.4,81.2V81v-0.2c0-0.2,0-0.2,0-0.4
		c0-0.2,0-0.2,0-0.4c1.1-0.4,2.2-0.7,3.3-1.1c0,0,0,0.2,0,0.4c0,0.2,0,0.7,0,0.9s0,0.4,0,0.7c0,0.2,0,0.4,0,0.7c0,0.2,0,0.4-0.2,0.7
		c0,0.2-0.2,0.4-0.2,0.7c0,0.2-0.2,0.4-0.2,0.9c0,0.2-0.2,0.4-0.2,0.9c0,0.2-0.2,0.7-0.2,0.9c0,0.2-0.2,0.7-0.2,0.9
		c-0.2,0.7-0.4,1.1-0.7,1.7c-0.4,0.9-0.9,1.7-1.3,2.6l-0.9-0.9c0-0.2,0-0.2,0.2-0.4l0.2,0.2c0.2,0,0.7-0.2,0.7-0.7
		c0-0.4,0-0.7-0.4-0.9H123c0-0.4,0.2-0.9,0.2-1.3s0.2-1.1,0.2-1.5s0.2-1.1,0.2-1.5s0-0.9,0-1.3c0-0.2,0-0.4,0-0.7
		C123.4,81.7,123.4,81.5,123.4,81.2z M121.9,80.6c0.2,0,0.4-0.2,0.9-0.2v0.2c0,0.2,0,0.2,0,0.4v0.2v0.2c0,0.2,0,0.4,0,0.4
		c0,0.2,0,0.4,0,0.7c0,0.4,0,0.9,0,1.3c0,0.4,0,0.9-0.2,1.5c0,0.4-0.2,1.1-0.2,1.5s-0.2,0.9-0.2,1.5l-2-1.5c0-0.2,0-0.4,0-0.4
		c0-0.2,0-0.4,0-0.7c0-0.2,0-0.4,0-0.7c0-0.4-0.2-0.9-0.2-1.1c0-0.4-0.2-0.7-0.2-0.9c0-0.2,0-0.2,0-0.4s0-0.2,0-0.2
		C120.4,81.5,121.3,81,121.9,80.6z M119.1,82.3L119.1,82.3c0,0.2,0.2,0.4,0.2,0.4c0,0.2,0.2,0.7,0.2,0.9c0,0.4,0.2,0.7,0.2,1.1
		c0,0.2,0,0.4,0,0.7c0,0.2,0,0.4,0,0.7c0,0,0,0,0,0.2l-3-2.4C117.6,83.2,118.2,82.8,119.1,82.3z M116.3,84.1l3.7,3
		c0,0.2,0,0.2,0,0.4v0.2l-3.7-3.3C116.3,84.3,116.3,84.3,116.3,84.1L116.3,84.1L116.3,84.1z M115.6,84.5l0.4,0.4c0,0,0,0.2,0.2,0.2
		c0,0.2,0.2,0.2,0.2,0.4c0,0.2,0.2,0.2,0.2,0.4c0.2,0.4,0.2,0.7,0.4,1.1c0.2,0.4,0.2,0.9,0.4,1.1c0.2,0.4,0.2,0.9,0.4,1.3
		c0.2,0.4,0.2,0.9,0.4,1.3c0.2,0.4,0.2,0.9,0.4,1.3c0,0.4,0.2,0.9,0.2,1.1c0,0.2,0.2,0.7,0.2,0.9c0.2,1.1,0.2,1.7,0.4,2.2L113.9,86
		C114.3,85.6,115,85.2,115.6,84.5z M115.6,97.7c-0.2,0-0.7,0.2-1.1,0.2c-0.2,0-0.7,0.2-0.9,0.2l-0.2-1.1c1.1,0,2.2-0.2,3-0.2
		c0,0,0,0,0.2,0c1.1,0,1.7-0.2,2.4-0.2l0,0C118.2,96.9,117.1,97.3,115.6,97.7z M118.4,96.9c-1.5,0.9-3,1.7-4.6,2.6l-0.2-1.1
		c0.2,0,0.7-0.2,0.9-0.2c0.7-0.2,1.1-0.2,1.5-0.4h0.2C117.4,97.3,118,97.1,118.4,96.9z M108.7,101.6c-0.7,0.2-1.5,0.4-2.2,0.7
		c-0.4,0-0.7,0.2-1.1,0.2c-0.4,0-0.7,0.2-1.1,0.2s-0.7,0-1.1,0.2l0,0c-0.2-0.9-0.2-2,0.2-3.3c0,0,0,0,0.2,0s0.7,0,0.9,0
		c0.4,0,0.7,0,1.1,0s0.7,0,1.1,0c0.7,0,1.3-0.2,2.2-0.2c0.7,0,1.3-0.2,2-0.4c0.4,0,0.7-0.2,1.1-0.2s0.7-0.2,0.9-0.2h0.2l0.4,1.3
		c-0.2,0-0.4,0.2-0.7,0.2l0,0c-0.2,0.2-0.7,0.2-1.1,0.4c-0.4,0.2-0.7,0.2-1.1,0.4c-0.4,0.2-0.7,0.2-1.1,0.4c-0.2,0-0.4,0.2-0.4,0.2
		L108.7,101.6z M109.1,101.9c-2,0.9-3.9,1.5-5.4,2c0-0.2,0-0.2-0.2-0.4l0,0c0.4,0,0.7-0.2,1.1-0.2c0.4,0,0.7-0.2,1.1-0.2
		s0.7-0.2,1.1-0.2c0.7-0.2,1.5-0.4,2.2-0.7L109.1,101.9z M109.8,89.7l0.4,2.4l0,0c-0.2-0.2-0.4-0.2-0.4-0.4
		c-0.2-0.2-0.4-0.2-0.4-0.4c-0.2,0-0.2-0.2-0.4-0.2C109.1,90.6,109.5,90.1,109.8,89.7z M109.8,86.5L109.8,86.5L109.8,86.5
		C110,86.7,110,86.7,109.8,86.5L109.8,86.5z M108.9,91.7c0.2,0.2,0.4,0.2,0.4,0.4c0.2,0.2,0.4,0.2,0.7,0.4c0.2,0,0.2,0.2,0.4,0.2
		l0.4,2.4c-0.4-0.2-0.9-0.2-1.3-0.4c-0.4-0.2-1.1-0.4-1.5-0.4c-0.4-0.2-0.9-0.4-1.3-0.7l0,0c0.7-0.9,1.1-1.5,1.7-2.2
		C108.7,91.4,108.7,91.4,108.9,91.7z M110.6,89.1l1.1,3.9c0,0-0.2,0-0.2-0.2l-0.2-0.2L110.6,89.1C110.4,89.1,110.4,89.1,110.6,89.1z
		 M110.4,86.2c0,0,0.2,0,0.2-0.2c0.7-0.4,1.1-0.7,1.3-0.9c0.2-0.2,0.4-0.2,0.4-0.2s-0.2,0-0.4,0.2c-0.2,0-0.4,0.2-0.7,0.4
		c-0.2,0.2-0.4,0.2-0.7,0.4C110.6,86.2,110.6,86.2,110.4,86.2L110.4,86.2z M111.7,93.4l0.7,2c-0.2,0-0.2,0-0.4,0l-0.2-0.2l-0.4-2.2
		C111.3,93.2,111.5,93.2,111.7,93.4z M108,94.5c0.4,0.2,1.1,0.2,1.5,0.4c0.4,0.2,0.9,0.2,1.3,0.4c0,0,0,0,0,0.2
		c0,0.2,0.2,0.7,0.7,0.7c0.4,0,0.7,0,0.9-0.4v-0.2h0.2l0.4,1.3c-0.9,0-2,0-2.8,0c-0.7,0-1.3,0-1.7-0.2c-0.2,0-0.7,0-0.9-0.2
		c-0.2,0-0.7,0-0.9-0.2c-0.2,0-0.7,0-0.9-0.2c-0.2,0-0.2,0-0.4,0c0.2-0.4,0.4-0.9,0.9-1.3c0.2-0.2,0.4-0.7,0.7-0.9l0,0
		C106.9,94.3,107.4,94.5,108,94.5z M105.4,96.6c0.2,0,0.7,0,0.9,0.2c0.2,0,0.7,0,0.9,0.2c0.2,0,0.7,0,0.9,0c0.7,0,1.3,0,1.7,0
		c1.1,0,2,0,3,0l0.2,1.1h-0.2c-0.2,0-0.7,0.2-0.9,0.2c-0.4,0-0.7,0.2-1.1,0.2c-0.7,0-1.3,0.2-2,0.2c-0.7,0-1.3,0.2-2,0.2
		c-0.4,0-0.7,0-1.1,0s-0.7,0-1.1,0c-0.2,0-0.7,0-0.9,0l0,0c0.2-0.9,0.7-1.5,1.1-2.6C105,96.6,105.2,96.6,105.4,96.6z M116.1,96.9
		c-0.9,0-1.7,0-2.6,0l-0.2-1.1c1.3,0.2,2.8,0.4,3.9,0.4l0,0c0.9,0,1.7,0.2,2.2,0.2C118.4,96.6,117.4,96.6,116.1,96.9z M116.5,96.2
		c-0.7,0-1.5-0.2-2.4-0.4c-0.4,0-0.9-0.2-1.1-0.2l-0.4-1.7c0.4,0.2,0.9,0.4,1.3,0.7c0.4,0.2,0.9,0.4,1.3,0.7c0.2,0,0.4,0.2,0.7,0.2
		s0.4,0.2,0.7,0.2c0.4,0.2,0.7,0.2,1.1,0.4c0.9,0.2,1.5,0.4,2,0.7C118.7,96.4,117.8,96.2,116.5,96.2z M117.1,95.6
		c-0.2,0-0.7-0.2-0.9-0.4c-0.2,0-0.4-0.2-0.7-0.2s-0.4-0.2-0.7-0.2c-0.4-0.2-0.9-0.4-1.3-0.7c-0.4-0.2-0.9-0.4-1.3-0.7
		c0,0-0.2,0-0.2-0.2l-1.1-3.9l0,0c0.2,0.2,0.4,0.7,0.9,0.9c0.2,0.2,0.7,0.7,0.9,0.9c0.2,0.2,0.7,0.7,0.9,0.9
		c0.4,0.2,0.7,0.7,1.1,0.9c0.4,0.2,0.7,0.7,1.1,0.9c0.2,0.2,0.7,0.4,0.9,0.7c0.2,0.2,0.7,0.4,0.9,0.7c0.7,0.4,1.3,0.9,1.5,1.1
		C118.9,96.2,118,96,117.1,95.6z M117.6,95.1c-0.2-0.2-0.4-0.4-0.7-0.4c-0.2-0.2-0.7-0.4-0.9-0.9c-0.2-0.2-0.7-0.7-0.9-0.9
		c-0.2-0.2-0.7-0.7-0.9-0.9c-0.2-0.2-0.7-0.7-0.9-0.9c-0.2-0.2-0.7-0.7-0.9-0.9c-0.2-0.2-0.4-0.7-0.7-0.9c-0.2-0.2-0.2-0.2-0.4-0.4
		l-0.2-0.2c0.7-0.7,1.3-1.3,2-2l6.3,9.8C119.1,96.2,118.4,95.6,117.6,95.1z M107.4,77.3L107.4,77.3c-0.2,0-0.2,0-0.4,0l-0.2-0.2
		v-0.2v-0.2v-0.2v-0.2c0-0.2,0.2-0.2,0.2-0.2h0.2l0,0l0,0l0,0h-0.2l-0.2,0.2c0,0,0,0,0,0.2c0,0,0,0,0,0.2v0.2v0.2l0.2,0.2
		C107.2,77.3,107.4,77.3,107.4,77.3L107.4,77.3C107.4,77.3,107.6,77.3,107.4,77.3C107.6,77.3,107.6,77.3,107.4,77.3z M107.6,77.1
		c-0.2,0-0.4-0.2-0.4-0.4c0-0.2,0.2-0.4,0.4-0.4c0.2,0,0.4,0.2,0.4,0.4C107.8,76.9,107.8,77.1,107.6,77.1z M108,77.8l5.9,5.4
		c-0.7,0.4-1.3,0.7-2,1.1c-0.7,0.4-1.3,0.9-2,1.1L108,77.8z M103.5,104.5c-0.7,0.2-1.5,0.4-2.4,0.4c-0.4,0-0.9,0-1.1,0
		c-0.4,0-0.9,0-1.3-0.2c-0.2,0-0.4-0.2-0.7-0.2c-0.2,0-0.4-0.2-0.7-0.4c-0.2-0.2-0.4-0.2-0.4-0.4c0,0,0,0,0-0.2l0,0l0,0l0,0l0,0
		l-0.2-0.2c0,0,0-0.2-0.2-0.2c0,0,0,0,0-0.2v-0.2v-0.2v-0.2v-0.2v-0.2v-0.2v-0.2c0.2-0.9,0.4-1.5,0.9-2.2c0.4-0.7,0.9-1.3,1.3-2
		c0.4-0.7,0.9-1.3,1.3-1.7c0.9-1.1,2-2.2,3-3s2-1.7,2.8-2.4c0.9-0.7,1.7-1.3,2.6-2c0.2-0.2,0.4-0.2,0.7-0.4v0.2
		c-0.2,0.2-0.4,0.2-0.7,0.4c-0.9,0.7-1.5,1.3-2.6,2c-0.9,0.7-2,1.5-2.8,2.4c-0.9,0.9-2,2-2.8,3c-0.4,0.7-0.9,1.1-1.3,1.7
		c-0.4,0.7-0.9,1.3-1.1,2c-0.4,0.7-0.7,1.3-0.9,2.2v0.2v0.2v0.2v0.2v0.2v0.2v0.2c0,0,0,0,0,0.2v0.2l0.2,0.2l0,0l0,0l0,0l0,0l0,0
		c0,0.2,0.2,0.2,0.4,0.4c0.2,0,0.2,0.2,0.4,0.2c0.2,0,0.4,0.2,0.4,0.2c0.7,0.2,1.5,0.2,2.2,0.2c1.5-0.2,3-0.4,4.3-0.9
		c1.3-0.4,2.6-0.9,3.9-1.5c1.3-0.4,2.4-1.1,3.5-1.5c2.2-1.1,3.9-2,5-2.6c0.7-0.4,1.1-0.7,1.3-0.9c0.2-0.2,0.4-0.2,0.4-0.2
		s-0.2,0-0.4,0.2c-0.2,0.2-0.9,0.4-1.3,0.9c-0.7,0.4-1.3,0.9-2.2,1.3s-1.7,1.1-2.8,1.5c-1.1,0.4-2.2,1.1-3.5,1.7
		c-1.3,0.7-2.6,1.1-3.9,1.5C105,104,104.1,104.2,103.5,104.5z M110.2,105.1c-0.4,0-0.9,0.2-1.3,0.2c-0.4,0-0.7,0.2-1.1,0.2
		s-0.7,0-0.9,0.2c-0.2,0-0.4,0-0.7,0c-0.2,0-0.4,0-0.7,0c-0.2,0-0.4,0-0.4,0s0.2,0,0.4,0c0.2,0,0.4,0,0.7,0c0.2,0,0.4,0,0.7,0
		c0.2,0,0.7,0,0.9-0.2c0.4,0,0.7-0.2,1.1-0.2c0.7-0.2,1.5-0.4,2.6-0.7c0.9-0.2,2-0.7,2.8-1.1c1.1-0.4,2.2-0.9,3.3-1.3
		s2.2-1.1,3.3-1.7c1.1-0.7,2.2-1.3,3.3-2c2.2-1.5,4.1-3,5.6-4.8c0.4-0.4,1.1-1.1,1.5-1.5v0.2c-0.4,0.4-0.9,0.9-1.3,1.5
		c-1.7,1.7-3.7,3.5-5.6,5c-1.1,0.7-2.2,1.5-3.3,2c-1.1,0.7-2.2,1.3-3.3,1.7c-1.1,0.4-2.2,0.9-3.3,1.3c-1.1,0.4-2,0.7-3,0.9
		C111.1,104.9,110.6,104.9,110.2,105.1z M116.5,122.2h-9.8c0,0-0.7-5.2,2.6-11.3c1.5-2.8,1.3-4.3,1.3-4.3c0.9,2.2-0.2,4.6,0.2,7.2
		l-2,0.2h1.1l-1.5,0.2l2.6,0.2c0,0.4,0.2,0.7,0.4,1.1c1.1,2.2,4.1,4.6,5.9,5.6l-9.8,0.4L116.5,122.2z M116.7,103.4
		c2-0.9,3.7-1.7,5.4-2.8c0.7-0.4,1.1-0.7,1.7-1.1c-0.9,3.3-2.4,6.1-4.3,6.1C118.4,105.5,117.4,104.7,116.7,103.4z M123.6,103.6
		c0,0.2-0.2,0.2-0.2,0.4c0,0.2-0.2,0.2-0.2,0.4c-0.2,0.2-0.4,0.4-0.4,0.7c0,0.2-0.2,0.2-0.2,0.2l-0.2,0.2c-0.2,0.2-0.4,0.2-0.7,0.4
		c-0.2,0.2-0.4,0.2-0.7,0.2s-0.4,0.2-0.7,0.2c-0.2,0-0.2,0-0.4,0c-0.2,0-0.4,0-0.4,0l0,0h0.2c0.2,0,0.2,0,0.4-0.2
		c0.2,0,0.2-0.2,0.4-0.2c0.2,0,0.4-0.2,0.4-0.4c0.2-0.2,0.4-0.2,0.4-0.4l0.2-0.2l0.2-0.2c0.2-0.2,0.4-0.4,0.4-0.7l0.2-0.2
		c0,0,0.2-0.2,0.2-0.4c0-0.2,0.2-0.2,0.2-0.4c0,0,0-0.2,0.2-0.4c0-0.2,0-0.2,0.2-0.2c0,0,0-0.2,0.2-0.2c0-0.2,0.2-0.4,0.2-0.7
		c0-0.2,0.2-0.4,0.2-0.4c0-0.2,0-0.2,0.2-0.4c0-0.2,0.2-0.4,0.2-0.4s0,0.2,0,0.4c0,0.2,0,0.2,0,0.4c0,0.2,0,0.4,0,0.7
		c0,0.2,0,0.4-0.2,0.7c0,0.2,0,0.2,0,0.4c0,0.2,0,0.2-0.2,0.4c0,0.2,0,0.2-0.2,0.4C123.9,103.4,123.6,103.4,123.6,103.6z
		 M139.7,122.2h-3.3h-5.9c0,0,1.3-2.8,1.5-7.6c0.2,0,0.4,0,0.7,0c0,0.2,0,0.2,0,0.4c0,1.3-0.2,2.6-0.4,3.5c-0.2,0.9-0.4,1.7-0.7,2.2
		c-0.2,0.4-0.2,0.7-0.2,0.7s0.2-0.2,0.4-0.7c0.2-0.4,0.4-1.3,0.7-2.2c0.2-0.9,0.4-2.2,0.4-3.5c0-0.2,0-0.2,0-0.4
		c1.7,0.2,3.7,0.4,5.4,0.7l-5,0.7l5.4,0.7c0.2,1.7,0.4,3.3,0.7,4.3l-7.4,0.4l7.6,0.4C139.7,122,139.7,122,139.7,122.2L139.7,122.2z
		 M142.1,121.6c-0.2-0.4-0.4-1.3-0.7-2.2c-0.2-1.1-0.4-2.2-0.4-3.7l0,0h0.2c0,1.3,0.2,2.6,0.4,3.5
		C141.7,120.3,141.9,120.9,142.1,121.6c0.2,0.4,0.2,0.9,0.2,0.9S142.3,122,142.1,121.6z M202.6,120.9h-11.1l0,0h-15.6
		c0-0.2-0.2-0.4-0.2-0.7h1.1c-0.4-0.2-0.9-0.2-1.1-0.4c0-0.4-0.2-0.7-0.2-1.1h27.1L202.6,120.9L202.6,120.9z M202.6,118.6h-27.3
		c-0.2-0.9-0.2-1.7-0.4-2.8h27.5v2.8H202.6z M202.6,115.3h-27.5c0-0.2,0-0.4,0-0.9c3.7-0.4,6.3-0.7,6.3-0.7c0.4,0,0.9-0.4,0.9-0.9
		c0,0,0-0.2,0-0.4h20.4L202.6,115.3L202.6,115.3z M202.6,112.3H182c0-0.7-0.2-1.7-0.4-2.8h21V112.3z M202.6,109.2h-3.5v-2.8h3.5
		V109.2z M202.6,106.2h-22.3c-0.4-0.4-0.9-0.9-1.3-1.3l6.3-0.2l-6.7-0.2c-0.2-0.2-0.2-0.2-0.4-0.4l22.8-0.4l-23.6-0.4
		c-0.7-0.4-1.3-1.1-2-1.5l0,0v-1.5l6.5-0.2l-6.5-0.2v-2.8l6.3-0.2l-6.3-0.2v-2.8l6.3-0.2l-6.3-0.2v-2.8l5.9-0.2l-5.9-0.2v-2.8
		l5.4-0.2l-5.4-0.2v-2.8h0.2l4.6-0.2l-3.7-0.2c2.8-1.3,5-1.7,5-1.7c-1.7,0-3.3,0.2-4.8,0.4c0,0-0.2,0-0.4,0.2
		c-0.2,0-0.4,0.2-0.9,0.2l0,0c0.2,0,0.7-0.2,0.9-0.2c0.4,0,0.4-0.2,0.4-0.2l0,0c1.5-0.4,3-0.4,4.8-0.4l0,0c3.3,0,6.5,0.7,9.3,2.2
		c-0.4-0.2-0.7-0.2-1.1-0.4c-0.2,0-0.4-0.2-0.7-0.2s-0.4-0.2-0.7-0.2c-0.4,0-0.9-0.2-1.1-0.2s-0.4,0-0.7-0.2c-0.2,0-0.4,0-0.4,0
		c-0.4,0-0.7,0-1.1-0.2c-0.2,0-0.7,0-0.9,0c-0.2,0-0.4,0-0.7,0s-0.2,0-0.2,0h-0.2c-0.2,0-0.2,0-0.4,0c-0.2,0-0.4,0-0.4,0
		s0.2,0,0.4,0c0.2,0,0.7,0,1.1,0c0.2,0,0.4,0,0.7,0s0.7,0,0.9,0.2c0.7,0.2,1.3,0.2,2,0.4c0.4,0,0.7,0.2,1.1,0.4
		c0.4,0.2,0.9,0.2,1.1,0.4c0.4,0.2,0.9,0.2,1.3,0.4c0.2,0,0.4,0.2,0.7,0.2c0.2,0,0.4,0.2,0.7,0.2c0.9,0.4,1.7,0.9,2.4,1.5l0.2,0.2
		l0.2,0.2c0.2,0.2,0.4,0.2,0.7,0.4c0.4,0.4,0.7,0.7,1.1,1.1l0.2,0.2l0,0l0,0l0,0l0,0l0.2,0.2c0.2,0.2,0.4,0.4,0.4,0.7
		c0.2,0.2,0.2,0.4,0.4,0.7c0.2,0.2,0.2,0.4,0.4,0.7l0.2,0.2l0.2,0.2c0.2,0.2,0.2,0.4,0.4,0.7c0.2,0.2,0.2,0.4,0.4,0.7
		c0.2,0.2,0.2,0.4,0.4,0.7c0.2,0.4,0.4,0.9,0.7,1.3c0.2,0.4,0.4,0.9,0.4,1.3c0,0.2,0.2,0.4,0.2,0.7c0,0.2,0.2,0.4,0.2,0.7
		c0.2,0.4,0.2,0.9,0.2,1.1c0,0.4,0.2,0.7,0.2,1.1c0,0.4,0.2,0.7,0.2,0.9c0,0.7,0.2,1.1,0.2,1.5c0,0.4,0,0.9,0,1.1c0,0.2,0,0.4,0,0.4
		s0-0.2,0-0.4c0-0.2,0-0.7,0-1.1c0-0.4,0-1.1,0-1.5c0-0.2,0-0.7-0.2-1.1c0-0.4-0.2-0.7-0.2-1.1s-0.2-0.9-0.2-1.1
		c0-0.2-0.2-0.4-0.2-0.7c0-0.2-0.2-0.4-0.2-0.7c0,0,0,0,0-0.2c0.9,2.4,1.5,5,1.5,7.8v3.3H202.6z"/>
	<path class="st0" d="M112.2,130c0-0.7-0.2-0.9-0.9-1.1l0,0c0.2-0.2,0.4-0.2,0.7-0.7c0.2-0.2,0.2-0.7,0.2-0.9c0-0.4,0-0.7-0.2-0.9
		c-0.2-0.2-0.2-0.4-0.4-0.7c-0.2-0.2-0.4-0.2-0.7-0.2c-0.2,0-0.7,0-1.1,0h-4.1v1.3h0.4v3.7h-0.4v1.3h3.7v-1.3h-0.7v-1.3
		c0.2,0,0.4,0,0.4,0c0.2,0,0.2,0,0.4,0.2l0.2,0.2c0,0,0,0.2,0,0.4v2h2.8v-1.3h-0.4V130z M109.8,127.9c0,0.2,0,0.4-0.2,0.4
		c0,0-0.2,0.2-0.4,0.2h-0.4V127h0.4c0.2,0,0.2,0,0.4,0.2c0,0,0.2,0.2,0.2,0.4V127.9z"/>
	<polygon class="st0" points="119.1,127 119.5,127 119.5,130.7 119.1,130.7 119.1,132 125.2,132 125.2,129.4 123.2,129.4 
		123.2,130.7 122.1,130.7 122.1,129.2 123,129.2 123,128.3 122.1,128.3 122.1,127 123.2,127 123.2,128.1 125.2,128.1 125.2,125.5 
		119.1,125.5 	"/>
	<path class="st0" d="M136.9,128.5c-0.2-0.2-0.4-0.2-0.9-0.4c-0.2-0.2-0.7-0.2-1.1-0.4c-0.2,0-0.2,0-0.4-0.2l-0.2-0.2
		c0-0.2,0-0.2,0.2-0.2c0,0,0.2,0,0.4,0c0.2,0,0.2,0,0.4,0c0,0,0.2,0.2,0.2,0.4h2v-1.5c-0.2-0.2-0.7-0.2-1.1-0.4
		c-0.4,0-0.9-0.2-1.5-0.2s-1.1,0-1.5,0.2c-0.4,0-0.7,0.2-0.9,0.4c-0.2,0.2-0.4,0.4-0.4,0.7c0,0.2-0.2,0.4-0.2,0.9
		c0,0.4,0,0.7,0.2,0.9c0,0.2,0.2,0.4,0.4,0.7c0.2,0.2,0.4,0.4,0.9,0.4c0.4,0.2,0.7,0.2,1.1,0.4c0.2,0,0.4,0.2,0.4,0.2v0.2
		c0,0.2,0,0.2-0.2,0.2s-0.2,0-0.4,0c-0.2,0-0.4,0-0.4-0.2c0,0,0-0.2,0-0.4h-2v1.7c0.2,0.2,0.7,0.2,1.3,0.2c0.4,0,1.1,0.2,1.5,0.2
		c0.9,0,1.7-0.2,2.2-0.4c0.4-0.4,0.7-0.9,0.7-1.5c0-0.4,0-0.7-0.2-0.9C137.3,129,137.1,128.7,136.9,128.5z"/>
	<polygon class="st0" points="144,127 144.5,127 144.5,130.7 144,130.7 144,132 150.1,132 150.1,129.4 148.2,129.4 148.2,130.7 
		147.1,130.7 147.1,129.2 147.7,129.2 147.7,128.3 147.1,128.3 147.1,127 148.2,127 148.2,128.1 150.1,128.1 150.1,125.5 144,125.5 
			"/>
	<path class="st0" d="M161.8,125.5h-3.3l-1.5,5.2h-0.4v1.3h3v-1.3h-0.4l0.2-0.7h1.3l0.2,0.7h-0.4v1.3h3.5v-1.3h-0.4L161.8,125.5z
		 M159.4,129.2l0.4-1.7l0,0l0.4,1.7H159.4z"/>
	<path class="st0" d="M176.6,130c0-0.7-0.2-0.9-0.9-1.1l0,0c0.2-0.2,0.4-0.2,0.7-0.7c0.2-0.2,0.2-0.7,0.2-0.9c0-0.4,0-0.7-0.2-0.9
		c-0.2-0.2-0.2-0.4-0.4-0.7c-0.2-0.2-0.4-0.2-0.7-0.2c-0.2,0-0.7,0-1.1,0h-4.1v1.3h0.4v3.7h-0.4v1.3h3.7v-1.3h-0.7v-1.3
		c0.2,0,0.4,0,0.4,0c0.2,0,0.2,0,0.4,0.2l0.2,0.2c0,0,0,0.2,0,0.4v2h2.8v-1.3h-0.4L176.6,130L176.6,130z M174,127.9
		c0,0.2,0,0.4-0.2,0.4c0,0-0.2,0.2-0.4,0.2h-0.4V127h0.4c0.2,0,0.2,0,0.4,0.2c0,0,0.2,0.2,0.2,0.4V127.9z"/>
	<path class="st0" d="M188.1,125.7c-0.2,0-0.4,0-0.7-0.2c-0.2,0-0.7,0-0.9,0c-0.4,0-1.1,0-1.5,0.2c-0.4,0.2-0.9,0.2-1.1,0.7
		c-0.2,0.2-0.4,0.7-0.7,1.1c-0.2,0.4-0.2,0.9-0.2,1.5c0,0.7,0,1.1,0.2,1.5c0.2,0.4,0.4,0.9,0.7,1.1c0.2,0.2,0.7,0.4,1.1,0.7
		c0.4,0.2,0.9,0.2,1.5,0.2c0.4,0,0.7,0,0.9,0c0.2,0,0.4,0,0.9-0.2c0.2,0,0.4-0.2,0.7-0.2c0.2,0,0.2-0.2,0.4-0.2v-2.2h-2.2v0.7
		c0,0.2,0,0.4-0.2,0.4c0,0-0.2,0.2-0.4,0.2c-0.2,0-0.4,0-0.4-0.2c0,0-0.2-0.2-0.2-0.4v-2.6c0-0.2,0-0.4,0.2-0.4c0,0,0.2-0.2,0.4-0.2
		c0.2,0,0.4,0,0.4,0.2c0,0,0.2,0.2,0.2,0.4v0.7h2.2v-2.2c-0.2,0-0.2-0.2-0.4-0.2C188.5,125.7,188.3,125.7,188.1,125.7z"/>
	<polygon class="st0" points="199.8,127 200.2,127 200.2,128.3 198.9,128.3 198.9,127 199.3,127 199.3,125.5 195.7,125.5 195.7,127 
		196.3,127 196.3,130.7 195.7,130.7 195.7,132 199.3,132 199.3,130.7 198.9,130.7 198.9,129.4 200.2,129.4 200.2,130.7 199.8,130.7 
		199.8,132 203.2,132 203.2,130.7 202.6,130.7 202.6,127 203.2,127 203.2,125.5 199.8,125.5 	"/>
	<path class="st0" d="M111.7,40.7c0.4,0.4,0.9,0.7,1.1,0.9c0.4,0.2,0.9,0.2,1.3,0.2c0.4,0,0.9-0.2,1.5-0.4c0.7-0.2,1.1-0.4,2-0.9
		c0.4-0.2,0.7-0.2,0.7-0.2c0.2,0,0.2,0,0.4,0.2c0.2,0.2,0.2,0.2,0.2,0.4s-0.2,0.4-0.4,0.7c-0.2,0.2-0.4,0.4-0.7,0.4
		c-0.2,0-0.4-0.2-0.7-0.2l-2.2,2.4l2,2c0.4-0.2,1.1-0.7,1.7-1.1c0.7-0.4,1.3-1.1,2-1.7c1.1-1.1,1.7-2.2,2-3.3c0.2-1.1-0.2-2-1.1-2.8
		c-0.4-0.4-0.9-0.7-1.3-0.9c-0.4-0.2-0.9-0.2-1.3,0c-0.4,0-0.9,0.2-1.5,0.4c-0.4,0.2-1.1,0.4-1.5,0.9c-0.2,0.2-0.4,0.2-0.7,0.2
		c-0.2,0-0.2,0-0.4,0c-0.2-0.2-0.2-0.2-0.2-0.4s0.2-0.4,0.4-0.7c0.2-0.2,0.4-0.2,0.4-0.2c0.2,0,0.4,0,0.7,0.2l2.2-2.2l-1.7-1.7
		c-0.4,0.2-1.1,0.4-1.7,0.9c-0.7,0.4-1.3,0.9-2,1.5c-0.7,0.7-1.1,1.3-1.5,2s-0.7,1.1-0.7,1.5s0,0.9,0.2,1.3
		C111.3,40,111.5,40.5,111.7,40.7z"/>
	<path class="st0" d="M128,26.4l2.4,5.6l-0.9,0.4l0.9,2.2l5.9-2.6l-0.9-2.2l-1.3,0.7l-0.9-1.7l1.5-0.7c0.7-0.2,1.1-0.4,1.5-0.9
		c0.4-0.2,0.7-0.7,0.9-1.1c0.2-0.4,0.2-0.9,0.4-1.3c0-0.4,0-0.9-0.4-1.5c-0.2-0.7-0.4-0.9-0.9-1.3c-0.4-0.2-0.7-0.4-1.1-0.7
		c-0.4,0-0.9-0.2-1.3,0c-0.4,0-1.1,0.2-1.5,0.4l-6.1,2.6l0.9,2.2L128,26.4z M132.3,24.6c0.2-0.2,0.4-0.2,0.7,0
		c0.2,0,0.4,0.2,0.4,0.4l0.2,0.4c0.2,0.2,0.2,0.4,0,0.7c0,0.2-0.2,0.4-0.4,0.4l-0.4,0.2l-0.9-2.2L132.3,24.6z"/>
	<path class="st0" d="M151.2,29.2V27h-0.9l0.2-1.1h2l0.2,1.1h-0.9v2.2l5.9-0.2v-2.2H157l-2.6-8.5H149l-2.4,8.5H146V29L151.2,29.2z
		 M151.2,21.6L151.2,21.6l0.9,2.8h-1.3L151.2,21.6z"/>
	<path class="st0" d="M167.7,31.6c0.7,0.4,1.3,0.9,2.2,1.1c0.4,0.2,1.1,0.4,1.5,0.4c0.4,0.2,0.9,0.2,1.3,0.2c0.4,0,0.7,0,1.1,0
		c0.2,0,0.7,0,0.9,0l1.3-3.3l-3.3-1.3l-0.4,1.1c-0.2,0.4-0.2,0.4-0.4,0.7c-0.2,0-0.4,0-0.9,0c-0.2-0.2-0.4-0.2-0.7-0.4
		c0-0.2,0-0.4,0-0.9l1.5-3.9c0.2-0.4,0.2-0.4,0.4-0.7c0.2,0,0.4,0,0.9,0c0.2,0.2,0.4,0.2,0.7,0.4c0,0.2,0,0.4,0,0.9l-0.4,0.9
		l3.3,1.3l1.3-3.3c-0.2-0.2-0.4-0.4-0.7-0.7c-0.2-0.2-0.4-0.4-0.9-0.7c-0.2-0.2-0.7-0.4-1.1-0.7c-0.4-0.2-0.9-0.4-1.5-0.7
		c-0.9-0.2-1.5-0.4-2.4-0.7c-0.7,0-1.3,0-2,0.2c-0.7,0.2-1.1,0.7-1.7,1.1c-0.4,0.7-0.9,1.3-1.3,2.2c-0.4,0.9-0.7,1.7-0.7,2.6
		c0,0.7,0.2,1.5,0.4,2C166.8,30.5,167.2,31.1,167.7,31.6z"/>
	<polygon class="st0" points="191.1,42.9 188.9,40.5 187.2,42 186.1,40.7 187.8,39 188.7,40 189.8,39 188.9,37.9 190.5,36.4 
		191.8,37.7 190.5,39 192.6,41.3 195.7,38.5 188.5,31.1 187,32.9 187.6,33.5 183.1,37.9 182.4,37.2 180.9,38.7 188.1,45.9 	"/>
	<path class="st0" d="M133,120.7c0,0,0-0.2,0.2-0.7c0.2-0.4,0.2-0.9,0.2-1.3c0-0.2,0-0.4,0-0.7c0-0.2,0-0.4,0-0.7c0-0.4,0-0.7,0-0.7
		s0,0.2-0.2,0.7c0,0.2-0.2,0.4-0.2,0.7c0,0.2,0,0.4-0.2,0.7c0,0.4-0.2,0.9-0.2,1.3C133,120.5,133,120.7,133,120.7z"/>
	<path class="st0" d="M136.7,120.7c0,0,0-0.2,0.2-0.7c0-0.4,0-0.9,0-1.3c0-0.2,0-0.4,0-0.7c0-0.2,0-0.4,0-0.7c0-0.4-0.2-0.7-0.2-0.7
		s0,0.2-0.2,0.7c0,0.2,0,0.4,0,0.7c0,0.2,0,0.4,0,0.7c0,0.4,0,1.1,0,1.3C136.4,120.5,136.7,120.7,136.7,120.7z"/>
	<path class="st0" d="M134.9,120.7c0,0,0-0.2,0.2-0.7c0-0.4,0.2-0.9,0.2-1.3c0-0.2,0-0.4,0-0.7c0-0.2,0-0.4,0-0.7c0-0.4,0-0.7,0-0.7
		s0,0.2-0.2,0.7c0,0.2,0,0.4,0,0.7c0,0.2,0,0.4,0,0.7c0,0.4,0,1.1,0,1.3C134.9,120.5,134.9,120.7,134.9,120.7z"/>
	<path class="st0" d="M138,120.1c0,0.4,0.2,0.7,0.2,0.7s0-0.2,0-0.7c0-0.4,0-0.9,0-1.3c0-0.2,0-0.4,0-0.7c0-0.2,0-0.4,0-0.7
		c0-0.4-0.2-0.7-0.2-0.7s0,0.2,0,0.7c0,0.2,0,0.4,0,0.7c0,0.2,0,0.4,0,0.7C138,119.2,138,119.6,138,120.1z"/>
	<path class="st0" d="M166.4,120.1c0.2-0.4,0.2-0.9,0.2-1.3c0-0.2,0-0.4,0-0.7c0-0.2,0-0.4,0-0.7c0-0.4,0-0.7,0-0.7s0,0.2-0.2,0.7
		c0,0.2-0.2,0.4-0.2,0.7c0,0.2,0,0.4-0.2,0.7c0,0.4-0.2,0.9-0.2,1.3s0,0.7,0,0.7S166.4,120.5,166.4,120.1z"/>
	<path class="st0" d="M169.6,120.7c0,0,0-0.2,0.2-0.7c0-0.4,0-0.9,0-1.3c0-0.2,0-0.4,0-0.7c0-0.2,0-0.4,0-0.7c0-0.4-0.2-0.7-0.2-0.7
		s0,0.2-0.2,0.7c0,0.2,0,0.4,0,0.7c0,0.2,0,0.4,0,0.7c0,0.4,0,1.1,0,1.3C169.6,120.5,169.6,120.7,169.6,120.7z"/>
	<path class="st0" d="M168.1,120.7c0,0,0-0.2,0.2-0.7c0-0.4,0.2-0.9,0.2-1.3c0-0.2,0-0.4,0-0.7c0-0.2,0-0.4,0-0.7c0-0.4,0-0.7,0-0.7
		s0,0.2-0.2,0.7c0,0.2,0,0.4,0,0.7c0,0.2,0,0.4,0,0.7c0,0.4,0,1.1,0,1.3C168.1,120.5,168.1,120.7,168.1,120.7z"/>
	<path class="st0" d="M170.9,118.1c0,0.2,0,0.4,0,0.7c0,0.4,0,1.1,0.2,1.3c0,0.4,0.2,0.7,0.2,0.7s0-0.2,0-0.7c0-0.4,0-0.9,0-1.3
		c0-0.2,0-0.4,0-0.7c0-0.2,0-0.4,0-0.7c0-0.4-0.2-0.7-0.2-0.7s0,0.2,0,0.7C170.9,117.7,170.9,117.9,170.9,118.1z"/>
	<path class="st0" d="M157.3,63.5c1.3,0.4,1.7,0.9,1.7,0.9s0.2-0.9-1.3-1.7C157.5,62.8,157.3,63.2,157.3,63.5L157.3,63.5z"/>
	<path class="st0" d="M149.5,62.8c0,0.2,0.2,0.2,0.2,0.4c0,0,0,0,0,0.2h0.2c0,0,0,0,0-0.2l-0.2-0.2c0-0.2-0.2-0.2-0.2-0.4l-0.2-0.2
		H149l0,0C149.2,62.6,149.2,62.6,149.5,62.8z"/>
	<path class="st0" d="M147.1,64.3c0,0,0.4-0.4,1.7-0.9l0,0c0,0,0-0.2,0-0.4c0-0.2,0-0.2-0.2-0.4c0,0,0,0,0-0.2l0,0
		C146.9,63.5,147.1,64.3,147.1,64.3z"/>
	<path class="st0" d="M149.9,62.6l0.2,0.2l0.2,0.2c0.7-0.2,1.7-0.2,2.8-0.2c1.7,0,2.8,0.2,3.7,0.4l0,0c0.2-0.2,0.4-0.7,0.7-0.9
		c-1.7-0.9-4.3-0.9-4.3-0.9s-2,0-3.7,0.7c0,0,0,0,0.2,0.2C149.7,62.4,149.7,62.6,149.9,62.6z"/>
	<path class="st0" d="M138.4,103.8c-0.2,0.2-0.4,0.4-0.7,0.7c-0.2,0.2-0.4,0.4-0.7,0.7c-0.2,0.2-0.4,0.4-0.7,0.9
		c-0.2,0.2-0.4,0.7-0.7,0.9c-0.2,0.2-0.4,0.7-0.7,0.9c-0.2,0.2-0.4,0.7-0.7,0.9c-0.4,0.4-0.9,1.1-1.1,1.5c-0.7,0.9-1.1,1.5-1.1,1.5
		s0.4-0.4,1.3-1.3c0.4-0.4,0.9-0.9,1.3-1.3c0.2-0.2,0.4-0.4,0.7-0.9c0.2-0.2,0.4-0.7,0.7-0.9c0.2-0.2,0.4-0.7,0.7-0.9
		c0.2-0.2,0.4-0.7,0.7-0.9s0.4-0.4,0.7-0.9c0.2-0.2,0.4-0.4,0.4-0.7c0.7-0.9,1.1-1.5,1.1-1.5S139,102.9,138.4,103.8z"/>
	<path class="st0" d="M133.4,109c0.2-0.2,0.4-0.7,0.9-0.9c0.2-0.2,0.2-0.4,0.4-0.4c0.2-0.2,0.2-0.4,0.4-0.4c0.2-0.2,0.2-0.4,0.4-0.7
		c0.2-0.2,0.2-0.4,0.4-0.4c0.2-0.4,0.4-0.7,0.7-0.9c0.4-0.7,0.7-0.9,0.7-0.9s-0.4,0.2-0.9,0.9c-0.2,0.2-0.4,0.7-0.9,0.9
		c-0.2,0.2-0.2,0.4-0.4,0.4c-0.2,0.2-0.2,0.4-0.4,0.4c-0.2,0.2-0.2,0.4-0.4,0.7c-0.2,0.2-0.2,0.4-0.4,0.4
		C133.6,108.4,133.4,108.6,133.4,109c-0.7,0.4-0.9,0.9-0.9,0.9S133,109.4,133.4,109z"/>
	<path class="st0" d="M151.8,68.5c-0.2,0-0.7,0-0.9,0c-0.2,0-0.7,0-0.9,0c-0.2,0-0.7,0-0.9,0c-0.2,0-0.7,0-0.9,0
		c-0.2,0-0.7,0-0.9,0.2c-0.2,0-0.4,0.2-0.9,0.2c-0.4,0.2-0.9,0.2-1.1,0.4c-0.2,0.2-0.4,0.2-0.4,0.2l0,0h0.2c0.2,0,0.7-0.2,1.1-0.2
		c0.2,0,0.4,0,0.7-0.2c0.2,0,0.7,0,0.9,0c0.2,0,0.7,0,0.9,0c0.2,0,0.7,0,0.9,0c0.7,0,1.3,0,2,0c0.7,0,1.1,0,1.7,0c0.9,0,1.5,0,1.5,0
		s-0.7,0-1.5-0.2C153.1,68.5,152.5,68.5,151.8,68.5z"/>
</g>
</svg>
