<?xml version="1.0" encoding="utf-8"?>
<!-- Generator: Adobe Illustrator 24.0.2, SVG Export Plug-In . SVG Version: 6.00 Build 0)  -->
<svg version="1.1" id="Слой_1" xmlns="http://www.w3.org/2000/svg" xmlns:xlink="http://www.w3.org/1999/xlink" x="0px" y="0px"
	 viewBox="0 0 238.1 150.2" style="enable-background:new 0 0 238.1 150.2;" xml:space="preserve">
<g>
	<path d="M110.1,42.2c-0.7,1,0.1,2-0.3,3c-1.7,0.2-3-0.6-3.9-1.9c-1.2-1.7-1.6-3.7-1.6-5.8c1.1-0.1,2.2-0.2,3.3-0.3
		c0-0.1,0-0.2,0-0.3c-2.4,0.6-4.4-0.1-6.2-1.5c1.1-1.1,1.2-1.3,2.7-0.8c0.8,0.3,1.8,0.3,2.6,0.4c0.4,0.1,0.8,0.1,1.2,0.1
		c1.6,0.2,2.1,1.1,1.5,2.7c-0.4,1.2-1,2.3-1.5,3.5c-0.3,0.7-0.6,1.4-0.3,2.3c0.2-0.2,0.3-0.3,0.3-0.3c0-1.5,0.9-2.5,1.4-3.8
		c0.2-0.7,0.5-1.3,0.7-2c0.4-1.3-0.4-2.6-1.8-2.7c-1.3-0.1-2.5-0.3-3.8-0.4c-0.4-0.1-0.8-0.3-1.3-0.5c0.6-0.5,1.2-1,1.7-1.5
		c0.8-0.7,0.9-0.7,0-1.4c1.5-0.7,2.9-1.4,4.6-1.5c1.4,0,2.8-0.1,4.2-0.1c0.6,0,1.2-0.1,1.3-0.7c0.3-2.2,2-2.8,3.7-3.3
		c1.6-0.5,3.3-1,4.9-1.5c0.6-0.2,1.1-0.2,1.5,0.4c0.4,0.6,1.1,0.9,1.8,0.9c0.5,0,0.6-0.3,0.3-0.6c-0.4-0.4-0.8-0.7-1.2-1.1
		c2.1-0.8,4.6-0.7,6.4,0.9c1.7,1.5,2.9,3.2,3.6,5.3c0.3,1,0.8,2,0.4,3.1c-0.2,0.5-0.4,0.9-1,0.8c-0.6-0.1-0.9-0.5-1-1
		c-0.1-0.2,0-0.5,0-0.8c-0.7,0.6-0.9,1.5-0.6,2.1c0.3,0.6,1,1,1.7,1.5c-0.5,1-1.1,2.2-1.7,3.4c-1.4,2.7-3.1,5.2-5,7.5
		c-2,2.3-4.1,4.6-6.7,6.2s-6.1,1.5-8.7-0.4c-1.7-1.3-2.6-3.1-2.8-5.2C110.5,45.4,110.3,43.9,110.1,42.2z M128.2,34.3
		c-0.2,0.2-0.3,0.2-0.4,0.3c-0.5,0.9-1.3,1.4-2.3,1.5c-1.2,0.2-2.4,0.4-3.2,1.5c-0.1,0.1-0.4,0.1-0.6,0.1c-0.3,0-0.7-0.1-0.9,0
		c-0.6,0.2-1.3,0.5-1.8,0.9c-0.5,0.4-0.9,1.1-1.3,1.6c-0.2,0.3-0.3,0.6-0.5,0.8c-1.6,1.3-1.9,3.2-1.5,5.3c0.2-0.9,0.2-1.8,0.3-2.7
		c0.1-1,0.8-1.7,1.6-2.3c0.1,0.1,0.1,0.2,0.2,0.3c0.2,1.1,0.9,1.7,1.9,1.6c1.5-0.1,2.6-0.8,3.4-2c0.8-1.1,0.7-1.7-0.2-2.7
		c-0.3-0.3-0.5-0.7,0.1-1c0.3-0.2,0.7-0.4,1.1-0.5c0.9-0.3,1.8-0.5,2.7-0.7C127.5,36,128.2,35.1,128.2,34.3z M127.1,33.5
		c0-0.1,0-0.1,0-0.2c-0.2,0-0.5-0.2-0.7-0.1c-1.6,0.2-3,0.8-4.3,1.8c-1.5,1.3-3.2,2.3-5.1,2.7c-2.4,0.5-3.6,2.1-4.4,4.2
		c0,0.1,0.1,0.2,0.1,0.5c0.2-0.4,0.4-0.6,0.5-0.9c0.5-1.4,1.4-2.5,2.8-3c0.7-0.3,1.4-0.5,2.1-0.6c1.5-0.4,2.7-1.3,3.9-2.3
		c1.3-1.1,2.8-2,4.6-2C126.8,33.6,127,33.5,127.1,33.5z M110.7,34c0,0,0.1,0.1,0.1,0.1c0.1,0,0.1,0,0.2,0c2.5-1.2,5.1-2.1,7.8-2.9
		c1.9-0.6,3.2-1.9,3.5-3.9c0-0.2-0.1-0.5-0.1-0.7c-0.1,0-0.2,0-0.2,0c-0.1,0.2-0.2,0.5-0.3,0.7c-0.1,1.4-0.9,2.4-2.1,3
		c-1,0.5-2.1,0.9-3.1,1.2c-1.8,0.5-3.6,1-5.2,2C111,33.7,110.9,33.9,110.7,34z M108.5,30.4c0,0.1,0,0.1,0,0.2c0.2,0,0.3,0.1,0.5,0.1
		c1.6-0.2,3.1-0.4,4.7-0.5c2-0.2,3.6-1,4.9-2.5c0.3-0.3,0.5-0.8,0.8-1.1c-0.1-0.1-0.3-0.3-0.4-0.4c-0.1,0.3-0.2,0.6-0.4,0.9
		c-1.1,1.4-2.4,2.3-4.2,2.6c-0.7,0.1-1.5,0-2.2,0.1c-0.8,0.1-1.5,0.2-2.3,0.4C109.4,30.1,109,30.3,108.5,30.4z M130.3,24.3
		c1.1,1,2.3,1.8,3.1,2.9c0.9,1.1,1.4,2.5,2.1,3.7C135.8,29,132.7,24.8,130.3,24.3z M129.8,30.2c1-0.4,0.6,0.8,1.3,0.9
		c-0.2-0.9-0.4-1.8-0.5-2.5c-0.5-0.2-0.9-0.4-1.2-0.6c-0.4-0.2-0.7-0.5-1-0.8c-0.1,0.9-0.1,0.9,0.7,1.3
		C129.7,28.9,130,29.4,129.8,30.2z M129.7,26.6c0.1,0.2,0.3,0.5,0.5,0.6c1.3,0.7,2,1.9,2.5,3.2c0.1,0.2,0.2,0.4,0.4,0.7
		C133.2,29.5,131.3,27,129.7,26.6z"/>
	<path d="M189.4,107.9c0.6-0.4,0.3-0.9,0.3-1.3c0-0.5-0.1-1-0.1-1.5c1.3-0.2,2.3,0.2,3.2,0.9c1.3,1,1.8,2.5,2.1,4
		c0.2,0.9,0.3,1.8,0.4,2.8c-1.2,0.1-2.3,0.2-3.4,0.3c0,0.1,0,0.1,0,0.2c1.1,0.1,2.2-0.1,3.2,0.2c1,0.3,2,0.9,3,1.4
		c-1.1,1.3-1.4,1.4-2.6,1c-0.8-0.3-1.7-0.3-2.6-0.5c-0.5-0.1-1.1-0.1-1.6-0.2c-1.3-0.3-1.8-1.1-1.4-2.3c0.4-1.3,1-2.5,1.6-3.7
		c0.3-0.7,0.6-1.4,0.3-2.3c-0.1,0.1-0.3,0.2-0.3,0.2c0,1.5-0.9,2.6-1.4,3.9c-0.2,0.7-0.5,1.3-0.7,2c-0.4,1.3,0.3,2.5,1.6,2.7
		c1,0.2,2.1,0.2,3.1,0.3c0.7,0.1,1.3,0.3,2.1,0.6c-0.7,0.6-1.3,1.1-1.8,1.6c-0.8,0.6-0.8,0.7,0,1.3c-0.9,0.7-3.2,1.5-4.4,1.5
		c-1.5,0-2.9,0.1-4.4,0.1c-0.6,0-1.2,0.2-1.3,0.8c-0.3,2.1-1.9,2.7-3.6,3.3c-1.6,0.5-3.3,1-4.9,1.5c-0.6,0.2-1.1,0.2-1.6-0.4
		c-0.7-0.9-1.6-1.1-2.4-0.6c0.6,0.5,1.1,0.9,1.6,1.4c-3.4,1-5.3,0.5-7.7-2.2c-1.3-1.5-2.3-3.2-2.6-5.2c-0.1-0.6-0.1-1.3,0-1.9
		c0.1-0.5,0.3-0.9,0.9-0.9c0.7,0,1,0.5,1.1,1.1c0,0.2,0,0.4,0,0.8c0.7-0.7,0.9-1.5,0.6-2.1c-0.3-0.6-1.1-0.9-1.8-1.5
		c0.7-1.4,1.4-3.1,2.4-4.6c1.3-2.1,2.7-4.2,4.2-6.1c2-2.5,4.1-4.8,6.9-6.4c2.6-1.6,6.1-1.4,8.6,0.5c1.7,1.3,2.5,3.1,2.8,5.2
		C189,104.9,189.2,106.4,189.4,107.9z M171.4,115.9c0.2-0.1,0.3-0.2,0.4-0.4c0.5-0.7,1.1-1.2,2-1.4c0.9-0.2,1.8-0.4,2.6-0.8
		c0.7-0.4,1.2-0.7,2.1-0.8c1.4-0.1,2.7-0.9,3.3-2.4c0.2-0.4,0.4-0.8,0.8-1.1c1.3-1.1,2-3.6,1.3-5.2c-0.1,0.9-0.1,1.8-0.3,2.7
		c-0.1,1-0.8,1.7-1.6,2.3c-0.1-0.2-0.1-0.2-0.1-0.3c-0.2-1-0.8-1.6-1.8-1.6c-1.6,0-3.4,1.3-3.9,2.8c-0.2,0.6-0.2,1.3,0.4,1.8
		c0.8,0.8,0.7,0.9-0.2,1.4c-0.1,0.1-0.3,0.1-0.4,0.1c-1,0.3-2,0.5-2.9,0.8C172,114.2,171.3,115.2,171.4,115.9z M172.5,116.7
		c0,0.1,0,0.2,0,0.3c0.2,0.1,0.5,0.2,0.7,0.1c1.6-0.1,3.1-0.7,4.3-1.8c1.5-1.4,3.2-2.3,5.2-2.8c1.2-0.3,2.3-0.7,3-1.7
		c0.5-0.8,1-1.7,1.4-2.6c0-0.1-0.1-0.2-0.2-0.4c-0.2,0.3-0.4,0.5-0.4,0.8c-0.7,1.9-2.1,3-4,3.5c-1.6,0.4-3.1,1-4.4,2.1
		c-1.1,1-2.4,1.9-3.9,2.2C173.6,116.6,173,116.6,172.5,116.7z M177.3,123.5c0.1,0,0.2,0,0.3,0c0.1-0.2,0.2-0.4,0.3-0.7
		c0.1-1.4,0.9-2.4,2.1-3c1-0.5,2.1-0.8,3.1-1.2c1.8-0.5,3.6-1,5.2-2c0.2-0.1,0.4-0.3,0.7-0.6c-0.3,0-0.4,0-0.4,0
		c-2.5,1.2-5.1,2.1-7.7,2.8c-2,0.6-3.2,1.8-3.6,3.9C177.2,123,177.3,123.3,177.3,123.5z M180.2,123.7c0.1,0.1,0.2,0.2,0.4,0.3
		c0.1-0.3,0.2-0.6,0.4-0.8c1.4-1.8,3.2-2.7,5.5-2.7c0.3,0,0.6,0.1,0.9,0.1c0.8-0.1,1.5-0.2,2.3-0.4c0.4-0.1,0.9-0.3,1.3-0.4
		c0-0.1,0-0.2-0.1-0.3c-0.2,0-0.4-0.1-0.5,0c-1.1,0.1-2.3,0.3-3.4,0.4c-2,0.1-3.8,0.6-5.3,1.8C181.1,122.3,180.4,122.8,180.2,123.7z
		 M164,119.3c-0.3,2.1,3.1,6.4,5.3,6.7c-1.1-1-2.3-1.8-3.2-2.9C165.3,121.9,164.7,120.6,164,119.3z M169,121.6
		c0.9,0.5,1.6,1,2.3,1.4c0.2-0.7-0.1-0.9-0.6-1.2c-0.8-0.4-1-0.9-0.9-1.7c-0.9,0.4-0.6-0.8-1.2-0.9
		C168.7,120.1,168.8,120.9,169,121.6z M169.7,123.8c0.1,0,0.1-0.1,0.1-0.1c-0.1-0.2-0.2-0.5-0.4-0.6c-1.3-0.8-2.1-1.9-2.6-3.3
		c-0.1-0.2-0.2-0.3-0.4-0.6C166.4,120.8,168.3,123.3,169.7,123.8z"/>
	<path d="M174.8,95.1c1.8-0.4,3.6-0.8,5.5-1.3c0,0.1,0,0.1,0.1,0.1c-1.4,0.6-2.8,1.2-4.1,1.8c0,0.1,0.1,0.2,0.1,0.3
		c0.8-0.3,1.7-0.6,2.5-0.9c-0.8,0.9-1.9,1.1-3,1.3c-1.8,0.4-3.5,0.9-5.3,1.2c-1.6,0.3-3.3,0.2-4.5-1.1c-1.1-1.1-1.3-2.3-0.1-3.4
		c0.6-0.7,0.9-1.5,0.4-2.5c-0.1-0.2-0.2-0.3-0.2-0.5c-0.6-1.1-0.3-1.8,0.9-2.2c0.4-0.2,0.9-0.5,1.2-0.9c0.5-0.6,0.5-1.2,0.4-1.9
		c-0.1-0.4-0.1-1,0.1-1.4c0.3-0.6,0.9-0.7,1.5-0.6c2.3,0.5,2,0.6,2.6-1.7c0.3-1.2,0.4-1.5,1.8-1.4c1.2,0,1.6-0.3,2-1.5
		c0.2-0.5,0.4-0.9,0.5-1.4c0.2-0.6,0.7-0.9,1.3-0.8c0.5,0,1,0.1,1.4,0.1c0.8,0,1.4-0.3,1.9-0.9c0.6-0.6,1.1-0.6,1.8-0.2
		c0.8,0.5,1.5,0.7,2.4,0.4c1.3-0.3,2.4,0.2,3.1,1.3c0.8,1.3,1.2,2.7,1.2,4.2c0.1,2.8-0.2,5.6-1.3,8.2c-0.1,0.2-0.1,0.3-0.2,0.5
		c-0.1,0.2-0.2,0.3-0.4,0.6c0.2-1.3,0.4-2.3,0.6-3.4c-0.1,0-0.2-0.1-0.3-0.1c-0.2,0.6-0.4,1.3-0.6,2.1c0-2.1,0.1-4-0.7-5.8
		c-0.1,0-0.1,0-0.2,0c0.1,0.4,0.1,0.8,0.2,1.3c0.6,2.3,0.3,4.5-0.2,6.7c0,0.1-0.1,0.2-0.3,0.4c0.4-2.1,0.3-4.1-0.3-5.9
		c0.1,1.5,0.1,3,0.2,4.5c-0.1,0-0.1,0-0.2,0c-0.2-0.9-0.3-1.8-0.5-2.8s-0.4-1.8-0.7-2.7c-0.3-0.9-0.7-1.8-1-2.6
		c-0.1,0-0.2,0.1-0.3,0.1c1,2.6,1.9,5.3,2,8.2c-0.4-0.9-0.9-1.8-1.3-2.8c-0.6-1.3-1.5-2.4-2.8-3.2c-0.3-0.2-0.6-0.2-1-0.3
		c1,1,2,1.8,2.8,2.7c0.7,1,1.2,2.1,1.7,3.3c-1.1-0.9-2-2.1-3.3-2.6c0,0.1-0.1,0.1-0.1,0.1c1.2,1.1,2.3,2.2,3.5,3.2
		c-0.1,0.1-0.2,0.2-0.3,0.3c-1.9-2.2-4.3-3.7-6.9-4.9c-0.1,0.1-0.1,0.1-0.1,0.2c0.1,0.1,0.3,0.3,0.5,0.4c2.3,0.8,4.1,2.3,5.6,4.2
		c-1.1-0.8-2.1-1.5-3.2-2.3c-0.1,0.1-0.1,0.1-0.1,0.2c0.3,0.6,1,1,1.5,1.5c-2.1-0.9-4.3-1.7-6.6-2.2c3.1,1.1,6.2,2.2,8.9,4.1
		c0,0.1-0.1,0.1-0.1,0.2c-1.3-0.5-2.6-0.9-3.8-1.4c-0.6-0.2-1.1-0.4-1.7-0.6c-0.3-0.1-0.5-0.1-0.8-0.1c0,0.1,0,0.2-0.1,0.3
		c1,0.4,2.1,0.8,3.1,1.1c-1.9-0.2-3.8-0.2-5.6,0.2c0,0.1,0,0.2,0,0.3c1.8,0,3.6,0,5.5,0.1c0,0.1,0,0.1,0,0.2
		c-1.3,0.2-2.5,0.1-3.7,0.5c0,0.1,0,0.2,0,0.3c0.4,0,0.8,0,1.4-0.1c-1.4,0.4-2.6,0.8-3.8,1.1C174.7,94.9,174.8,95,174.8,95.1z
		 M187.3,77.6c0.1,0.2,0.1,0.4,0.2,0.6c0.4,0.8,0.8,1.5,1.1,2.3c0.5,1.5,0.4,3.1,0.4,4.6c0,0.3,0.1,0.5,0.1,0.8
		C190.1,83.9,189.1,79,187.3,77.6z M182.9,82.9c0.1-0.1,0.2-0.1,0.3-0.2c0-0.2-0.1-0.3-0.1-0.5c-0.8-1.4-1.7-2.8-2.5-4.2
		c-0.1-0.1-0.3-0.2-0.5-0.3c0,0.1-0.1,0.1-0.1,0.2C180.9,79.6,181.9,81.3,182.9,82.9z M177.3,80.8c-0.1,0.1-0.2,0.1-0.3,0.1
		c0,0.1,0,0.2,0,0.3c0.8,1.5,1.7,2.9,2.6,4.4c0.1,0.1,0.3,0.1,0.4,0.2c0-0.1,0.1-0.1,0.1-0.2C179.2,84,178.2,82.3,177.3,80.8z
		 M167.7,94.2c2-0.2,4-0.3,6.1-0.5C172.7,93.1,168.4,93.5,167.7,94.2z M176.3,87.3c0,0,0.1-0.1,0.1-0.1c-0.1-0.2-0.2-0.4-0.4-0.5
		c-1.1-0.7-2.3-1.5-3.4-2.2c-0.1-0.1-0.4,0.1-0.7,0.2C173.5,85.6,174.9,86.5,176.3,87.3z M185.2,82.3c0.1,0,0.2-0.1,0.3-0.1
		c-0.6-1.8-1.5-3.4-2.5-5c-0.1,0.1-0.2,0.1-0.3,0.2C183.5,79,184.3,80.7,185.2,82.3z M173,90c0-0.1,0.1-0.2,0.1-0.4
		c-0.9-0.4-1.8-0.8-2.6-1.3c0,0,0,0.1-0.1,0.1c0.1,0.1,0.2,0.2,0.4,0.3c-0.5,0-1,0.1-1.4,0.1c0,0.1,0,0.2,0,0.3
		C170.6,89.5,171.8,89.8,173,90z M187.3,82.6c0.1,0,0.1-0.1,0.2-0.1c0-0.8-1.8-4.6-2.4-4.8C185.9,79.4,186.6,81,187.3,82.6z
		 M178.9,78.8c-0.1,0-0.1,0.1-0.2,0.1c0,0.7,2.1,4.5,2.9,4.8C180.7,82.1,179.8,80.5,178.9,78.8z M169.9,86.4c0.4,0.5,4.2,2.1,4.6,2
		C174,87.8,170.6,86.4,169.9,86.4z M178,85.9c0.1-0.1,0.1-0.1,0.2-0.2c-1.1-1.1-2.1-2.2-3.2-3.3c-0.1-0.1-0.4-0.1-0.5-0.1
		c0,0.1,0,0.1-0.1,0.2C175.7,83.5,176.6,85,178,85.9z M173.5,91.3C173.5,91.4,173.5,91.3,173.5,91.3c-1-0.3-1.9-0.7-2.9-0.8
		c-0.6-0.1-1.3,0-1.9,0.5C170.4,91.1,171.9,91.2,173.5,91.3z M169,96c0.8,0.5,4.1,0.3,4.6-0.4C172,95.7,170.6,95.8,169,96z
		 M174.3,90.9c1.2,0.2,2.2,0.4,3.3,0.1C176.8,90.3,175.3,90.3,174.3,90.9z"/>
	<path d="M118.8,65.6c-2.4-1.2-3.6-3.3-4.5-5.8c1.1,1,2,2.2,3.3,2.7c0,0,0.1-0.1,0.1-0.1c-1.1-1.1-2.3-2.2-3.4-3.3
		c0.1-0.1,0.1-0.1,0.2-0.2c1.9,2.2,4.3,3.7,6.9,4.9c0.1-0.1,0.1-0.1,0.2-0.2c-0.2-0.1-0.3-0.3-0.4-0.4c-2.3-0.8-4.1-2.3-5.6-4.2
		c0.5,0.4,1.1,0.7,1.6,1.1c0.5,0.4,1.1,0.8,1.6,1.2c0.1-0.1,0.1-0.2,0.2-0.2c-0.5-0.5-1-1-1.7-1.5c2.3,1,4.4,1.8,6.7,2.4
		c0-0.1,0.1-0.2,0.1-0.3c-1-0.3-2-0.6-3-1c-1-0.4-2.1-0.8-3.1-1.3c-1-0.5-1.9-1.1-2.8-1.6c0-0.1,0.1-0.2,0.1-0.2
		c0.9,0.3,1.8,0.6,2.7,1c0.9,0.3,1.9,0.7,2.8,1c0.3,0.1,0.5,0.1,0.8,0.1c0-0.1,0-0.2,0.1-0.3c-1-0.4-2.1-0.8-3.1-1.1
		c1.9,0.2,3.8,0.2,5.6-0.2c0-0.1,0-0.2,0-0.3c-0.9,0-1.8,0-2.8-0.1c-0.9,0-1.8,0-2.7-0.2c1.2-0.2,2.5-0.3,3.7-0.5c0-0.1,0-0.3,0-0.4
		c-0.4,0-0.8,0-1.2,0.1c0,0,0,0,0,0c1.2-0.4,2.4-0.7,3.6-1.1c0-0.1-0.1-0.2-0.1-0.3c-1.8,0.4-3.6,0.8-5.4,1.3c0,0,0-0.1-0.1-0.1
		c1.4-0.6,2.8-1.2,4.1-1.8c0-0.1-0.1-0.2-0.1-0.3c-0.8,0.3-1.7,0.6-2.5,0.9c0-0.1-0.1-0.1-0.1-0.2c0.6-0.3,1.3-0.7,1.9-0.8
		c2.2-0.6,4.4-1.2,6.6-1.5c1.6-0.2,3.2-0.2,4.4,1.1c1,1,1.2,2.2,0.1,3.4c-0.7,0.7-0.9,1.6-0.4,2.5c0.1,0.2,0.2,0.4,0.3,0.5
		c0.5,1.1,0.2,1.6-0.8,2.1c-0.5,0.3-1.1,0.6-1.3,1.1c-0.3,0.5-0.3,1.2-0.3,1.8c0.2,1.4-0.5,2.3-1.9,2c-1.6-0.4-1.8-0.8-2.3,1.3
		c0,0.1-0.1,0.3-0.1,0.4c-0.4,1.2-0.4,1.5-1.8,1.4c-1.3,0-1.6,0.3-2,1.5c-0.2,0.5-0.3,0.9-0.5,1.3c-0.2,0.7-0.7,0.9-1.4,0.9
		c-0.7,0-1.3-0.1-2,0c-0.5,0.1-0.9,0.4-1.3,0.7c-0.7,0.6-1.1,0.7-1.9,0.2c-0.7-0.4-1.5-0.6-2.3-0.4c-1.3,0.3-2.4-0.2-3.1-1.3
		c-0.8-1.3-1.2-2.7-1.3-4.2c-0.1-2.8,0.2-5.6,1.2-8.2c0.1-0.2,0.1-0.3,0.2-0.5c0.1-0.2,0.2-0.3,0.4-0.6c-0.2,1.2-0.4,2.3-0.6,3.4
		c0.1,0,0.2,0,0.3,0.1c0.2-0.6,0.4-1.3,0.7-2.1c0,2.1,0,4,0.7,5.8c0.1,0,0.1,0,0.2,0c0-0.2,0.1-0.4,0-0.7c-0.6-2.4-0.6-4.8,0.1-7.2
		c0-0.1,0.1-0.1,0.1-0.2c0-0.1,0.1-0.1,0.2-0.2c-0.3,2-0.2,4,0.2,5.9c0.1,0,0.2,0,0.3,0c-0.1-0.8-0.3-1.5-0.3-2.3
		c0-0.8,0.1-1.5,0.1-2.3c0.5,3.3,1.7,7.3,2.6,8c-0.9-2.7-1.8-5.3-1.9-8.2c1.1,2.3,1.9,4.8,4.3,6.1c0.2,0.1,0.4,0.1,0.7,0.1
		C118.7,65.8,118.8,65.7,118.8,65.6z M112.4,72.8c-0.1-0.3-0.2-0.5-0.3-0.7c-0.3-0.7-0.8-1.3-1-2.1c-0.6-1.5-0.4-3.2-0.4-4.8
		c0-0.3-0.1-0.5-0.1-1C109.4,66.3,110.6,71.5,112.4,72.8z M116.5,67.5c0.1,1.2,2.4,4.9,3.1,4.9C118.6,70.6,117.7,68.9,116.5,67.5z
		 M119.5,64.6c0.6,1.6,2.5,4.6,3,4.8C122.4,68.4,120.2,64.7,119.5,64.6z M131.9,56c-2,0.2-4,0.3-6.2,0.5
		C127,57.2,131.1,56.7,131.9,56z M127.6,65.5c-1.6-0.9-2.9-1.8-4.3-2.6c0,0.2,0,0.4,0.1,0.5c1.2,0.8,2.3,1.6,3.6,2.3
		C127.1,65.8,127.3,65.6,127.6,65.5z M116.6,73.1c0.1-0.1,0.2-0.1,0.3-0.2c-0.8-1.7-1.7-3.3-2.5-5c-0.1,0.1-0.2,0.1-0.3,0.1
		C114.7,69.8,115.6,71.4,116.6,73.1z M130.2,61.3c0-0.1,0-0.2,0.1-0.3c-1.2-0.3-2.5-0.5-3.7-0.8c0,0.1-0.1,0.2-0.1,0.3
		c0.9,0.4,1.8,0.8,2.7,1.3c0,0,0-0.1,0.1-0.1c-0.1-0.1-0.2-0.2-0.5-0.4C129.3,61.3,129.7,61.3,130.2,61.3z M112.2,67.7
		c-0.1,0-0.2,0.1-0.3,0.1c0.6,1.7,1.4,3.3,2.2,4.9c0.1-0.1,0.2-0.1,0.3-0.1C113.7,70.9,113,69.3,112.2,67.7z M118.3,66.4
		c-0.1,0.1-0.2,0.1-0.3,0.2c0.9,1.6,1.8,3.3,2.7,4.9c0.1-0.1,0.2-0.1,0.3-0.2C120.2,69.6,119.3,68,118.3,66.4z M129.8,63.6
		c-1.5-0.7-3.1-1.3-4.6-2c0,0.1-0.1,0.1-0.1,0.2C125.6,62.4,128.9,63.9,129.8,63.6z M121.6,64.4c-0.1,0.1-0.1,0.1-0.2,0.2
		c1.1,1.1,2.1,2.2,3.2,3.3c0.1,0.1,0.4,0.1,0.5,0.1c0-0.1,0-0.1,0.1-0.2C123.9,66.7,123,65.3,121.6,64.4z M130.7,59.3
		c-1.6-0.1-3.1-0.3-4.6-0.4C126.3,59.7,129.9,60,130.7,59.3z M130.6,54.3c-0.9-0.5-4.2-0.2-4.6,0.4C127.5,54.5,129,54.4,130.6,54.3z
		 M122.1,59.1c0,0.1,0,0.2,0,0.3c1,0.6,2.4,0.6,3.2-0.1C124.1,59.2,123.1,59.2,122.1,59.1z"/>
	<path d="M168.5,47c0.1,0.1,0.3,0.2,0.5,0.4c-1.8,0.4-3.4,0.8-5,1.2c0,0.1,0,0.2,0,0.2c0.3,0,0.6,0.1,0.9,0c2-0.5,4-1,5.9-1.5
		c0.4-0.1,0.8-0.2,1.2-0.2c0,0,0.1,0.1,0.1,0.2c-0.7,0.5-1.4,1.1-2.1,1.6c-0.1,0.1-0.4-0.1-0.6-0.1c0-0.1,0-0.1,0-0.2
		c-0.1,0-0.2,0-0.2,0.1c-0.4,1.3-1.6,1.7-2.6,2.3c-2.9,1.7-6,2.9-9.2,3.9c-2.5,0.7-4.9,0.7-7.2-0.6c0.3-0.2,0.6-0.4,0.9-0.6
		c0.8-0.6,1.1-1.4,0.9-2.4c-0.1-1-0.3-1.9-0.3-2.9c-0.1-1.1,0.4-1.9,1.5-2.4c0.7-0.3,1.4-0.6,2.1-1c1.2-0.6,1.7-1.8,1.4-3.1
		c-0.4-1.8,0.3-2.6,2.1-2.6c0.9,0,1.9,0,2.9,0c1.1,0,2-0.4,2.5-1.4c0.6-1.3,1.6-1.6,2.9-1.7c0.9-0.1,1.9-0.2,2.8-0.5
		c0.9-0.2,1.5-0.9,1.7-1.8c0.1-0.6,0.4-0.6,0.8-0.5c0.6,0.2,1.2,0.4,1.9,0.6c-0.2,0.1-0.3,0.2-0.5,0.3c0.2,0.1,0.4,0.3,0.7,0.5
		c-0.6,0.1-1,0.1-1.5,0.2c-0.5,0-0.9,0.1-1.4,0.2c0,0.1-0.1,0.1-0.1,0.2c0.5,0.2,1,0.4,1.5,0.6c-1,0.3-1.9,0.6-2.8,0.9
		c0.1,0.2,0.2,0.3,0.4,0.4c-1.2,0.2-2.3,0.4-3.5,0.6c0,0.1,0,0.2,0.1,0.3c1.6-0.2,3.3-0.4,4.9-0.5c0,0,0,0.1,0,0.1
		c-2.1,0.7-4.1,1.5-6.1,2.2c0,0.1,0.1,0.2,0.1,0.3c0.3,0,0.6,0,0.8-0.1c1.5-0.5,3-1,4.4-1.5c0.3-0.1,0.7-0.2,1-0.2
		c0,0.1,0.1,0.2,0.1,0.3c-2.5,0.9-4.9,1.8-7.4,2.7c0,0.1,0,0.2,0.1,0.2c0.2,0,0.5,0,0.7-0.1c2.1-0.7,4.3-1.3,6.5-1.5
		c0.1,0,0.3,0.1,0.4,0.1c-0.1,0.1-0.2,0.2-0.3,0.2c-1.1,0.2-2.3,0.4-3.5,0.6c0.3,0.2,0.4,0.3,0.6,0.4c-2.4,0.9-4.9,1.5-7.2,2.7
		c0,0.1,0.1,0.2,0.1,0.2c0.4-0.1,0.8-0.2,1.3-0.3c2.7-1,5.4-1.9,8.2-2.9c0.1,0,0.3-0.1,0.4-0.1c0.6,0.1,1.2,0.2,1.7,0.3
		c-2.5,1.3-5.3,2-8.3,2.3c0,0.1,0.1,0.2,0.1,0.3c0.5,0,0.9,0,1.4,0c0,0,0.1,0.1,0.1,0.1c-0.2,0.1-0.3,0.3-0.5,0.4
		c-0.2,0.1-0.5,0.2-0.7,0.4c2.6-0.4,5.1-1.4,7.7-1.9c-2,1-4,2-6.1,3c-2.1,1-4.4,1.1-6.7,1.2c0,0.1,0,0.2,0,0.3
		c0.4,0,0.9,0.2,1.3,0.1c2.6-0.2,5.1-0.9,7.5-2c1.1-0.5,2.4-1,3.5-1.4c0,0.1,0.1,0.1,0.1,0.2c-0.5,0.3-1,0.7-1.5,0.9
		c-1.4,0.5-2.7,0.9-4.1,1.4c-0.3,0.1-0.5,0.2-0.7,0.4c0.9,0.2,1.8-0.4,2.7-0.5C169.3,46.5,168.9,46.8,168.5,47z M154.2,53.1
		c1.4,1,5.6,0,6.3-1.5c-1,0.5-1.9,1-2.9,1.2C156.5,53.1,155.4,53,154.2,53.1z M153.5,51.7c0,0.1,0,0.1,0,0.2c0.1,0,0.2,0.2,0.4,0.2
		c1,0,2,0,3-0.2c0.6-0.1,1.1-0.4,1.7-0.7c0.2-0.1,0.3-0.3,0.4-0.5c-0.1-0.1-0.1-0.2-0.1-0.2C157.3,51.8,155.4,51.6,153.5,51.7z
		 M153.6,49.3c0,0.1,0,0.2,0,0.2c0.6,0.3,4.8-0.2,5.3-0.8C157,48.9,155.3,49.1,153.6,49.3z M158.3,41.1c1.7-0.1,3.3-0.3,5.1-0.4
		C162.5,40.1,159,40.4,158.3,41.1z M158.7,47c-0.3-0.2-0.4-0.4-0.5-0.3c-1.3,0.3-2.7,0.7-4,1c0,0.1,0.1,0.2,0.1,0.3
		C155.8,47.8,157.1,47.3,158.7,47z M161.1,42.5c0-0.1,0-0.2,0-0.2c-1.1,0.1-2.1,0.2-3.2,0.3C158.5,43.1,160.7,42.9,161.1,42.5z
		 M160.3,45.2c0,0.1,0.1,0.2,0.1,0.4c1.1,0,1.9-0.6,2.8-1c0-0.1-0.1-0.2-0.1-0.3C162.2,44.6,161.3,44.9,160.3,45.2z M156.4,45
		c0,0.1,0.1,0.2,0.1,0.4c1.1-0.3,2.2-0.6,3.3-1c0-0.1-0.1-0.2-0.1-0.4C158.6,44.4,157.5,44.7,156.4,45z M162.1,51.1
		c0.7,0.3,2.9-0.7,3.2-1.4C164.2,50.2,163.2,50.6,162.1,51.1z M159.9,49.3c0,0.1,0.1,0.2,0.1,0.3c0.8-0.2,1.6-0.3,2.3-0.8
		c0-0.1-0.1-0.2-0.1-0.3C161.4,48.7,160.7,49,159.9,49.3z"/>
	<path d="M126.1,107.6c2-1,4.1-2,6.1-2.9c2.1-1,4.3-1.1,6.6-1.2c0-0.1,0-0.2,0-0.3c-0.4-0.1-0.8-0.2-1.3-0.1c-2.6,0.2-5.1,0.9-7.5,2
		c-1.1,0.5-2.4,1-3.5,1.4c0-0.1-0.1-0.1-0.1-0.2c0.5-0.3,1-0.7,1.5-0.9c1.3-0.5,2.7-0.9,4.1-1.4c0.3-0.1,0.5-0.2,0.7-0.4
		c-0.9-0.2-1.8,0.4-2.7,0.4c0.4-0.3,0.7-0.5,1.1-0.8c-0.1-0.1-0.3-0.2-0.5-0.4c1.8-0.4,3.4-0.8,5-1.2c0-0.1,0-0.2,0-0.2
		c-0.3,0-0.6-0.1-0.9,0c-2,0.5-4,1-5.9,1.5c-0.4,0.1-0.8,0.2-1.2,0.2c0-0.1-0.1-0.1-0.1-0.2c0.7-0.5,1.4-1.1,2.1-1.6
		c0.1-0.1,0.4,0.1,0.6,0.1c0,0.1,0,0.1,0,0.2c0.1,0,0.2,0,0.2-0.1c0.4-1.3,1.6-1.7,2.6-2.3c2.9-1.7,6-2.9,9.2-3.9
		c1.9-0.6,3.8-0.7,5.7,0c0.6,0.2,0.8,1,0.3,1.5c-0.6,0.6-0.8,1.3-0.7,2.2c0.2,0.9,0.3,1.9,0.3,2.9c0.1,1.1-0.4,1.9-1.5,2.4
		c-0.7,0.3-1.4,0.6-2.1,1c-1.2,0.6-1.7,1.8-1.4,3.1c0.4,1.8-0.3,2.6-2.1,2.6c-0.9,0-1.9,0-2.8,0c-1.1,0-2,0.4-2.5,1.4
		c-0.6,1.3-1.6,1.6-2.9,1.7c-0.9,0.1-1.9,0.2-2.8,0.4c-0.9,0.2-1.5,0.9-1.7,1.8c-0.1,0.6-0.4,0.6-0.8,0.5c-0.6-0.2-1.2-0.4-1.9-0.6
		c0.2-0.1,0.3-0.2,0.5-0.3c-0.2-0.1-0.4-0.3-0.7-0.5c1-0.1,2-0.2,3-0.3c0-0.1,0.1-0.1,0.1-0.2c-0.5-0.2-1-0.4-1.5-0.6
		c1-0.3,1.9-0.6,2.8-0.9c-0.1-0.2-0.2-0.3-0.4-0.4c1.2-0.2,2.3-0.4,3.5-0.6c0-0.1,0-0.2-0.1-0.3c-1.6,0.2-3.3,0.4-4.9,0.6
		c0,0,0-0.1,0-0.1c2.1-0.7,4.1-1.5,6.2-2.2c0-0.1-0.1-0.2-0.1-0.3c-0.3,0-0.6,0.1-0.8,0.1c-1.5,0.5-3,1-4.4,1.5
		c-0.3,0.1-0.7,0.2-1,0.2c0-0.1-0.1-0.2-0.1-0.3c2.5-0.9,4.9-1.8,7.4-2.7c0-0.1,0-0.2-0.1-0.2c-0.2,0-0.5,0-0.7,0.1
		c-2.1,0.7-4.3,1.3-6.5,1.5c-0.1,0-0.3-0.1-0.4-0.1c0.1-0.1,0.2-0.2,0.3-0.2c1.1-0.2,2.3-0.4,3.5-0.6c-0.3-0.2-0.4-0.3-0.6-0.4
		c2.4-0.9,4.9-1.5,7.2-2.7c0-0.1-0.1-0.2-0.1-0.2c-0.4,0.1-0.8,0.2-1.3,0.3c-2.7,0.9-5.4,1.9-8.2,2.9c-0.1,0-0.3,0.1-0.4,0.1
		c-0.6-0.1-1.2-0.2-1.9-0.3c1.4-0.5,2.8-1.1,4.2-1.5c1.4-0.4,2.8-0.6,4.2-0.9c0-0.1,0-0.1,0-0.2c-0.5,0-0.9,0-1.4,0
		c0,0-0.1-0.1-0.1-0.1c0.2-0.1,0.3-0.3,0.5-0.4c0.2-0.1,0.5-0.2,0.7-0.4C131.1,106,128.6,107.1,126.1,107.6z M139.1,98.7
		c1-0.4,2-1,3-1.2c1-0.2,2.1-0.2,3.3-0.3C143.8,96.3,139.7,97.2,139.1,98.7z M140.6,99.7c0,0.1,0.1,0.1,0.1,0.2
		c1.6-1.3,3.5-1.2,5.4-1.3c-0.2-0.2-0.2-0.3-0.3-0.3c-1.7-0.1-3.4,0-4.9,0.9C140.7,99.3,140.7,99.5,140.6,99.7z M146,101
		c0-0.1,0-0.2,0-0.2c-0.7-0.3-4.8,0.2-5.3,0.8C142.5,101.3,144.2,101.1,146,101z M136.3,109.6c0.9,0.6,4.4,0.3,5.1-0.4
		C139.7,109.3,138,109.4,136.3,109.6z M141,103.2c0,0.1,0,0.2,0.1,0.3c1.4-0.1,2.8-0.6,4.2-1.1C143.8,102.4,142.4,102.9,141,103.2z
		 M138.4,107.8c0,0.1,0,0.1,0.1,0.2c1.1-0.1,2.1-0.2,3.2-0.3C141.1,107.2,138.9,107.3,138.4,107.8z M136.3,105.8
		c0,0.1,0.1,0.2,0.1,0.2c0.9-0.3,1.9-0.7,2.9-1C138.8,104.6,137.3,105.1,136.3,105.8z M139.8,105.8c0,0.1,0.1,0.2,0.1,0.3
		c1.2-0.1,2.2-0.5,3.3-0.9c0-0.1-0.1-0.2-0.1-0.3C142,105.2,140.9,105.5,139.8,105.8z M137.4,99.2c-0.7-0.3-2.9,0.7-3.2,1.4
		C135.4,100.1,136.4,99.6,137.4,99.2z M139.7,101c0-0.1-0.1-0.2-0.1-0.4c-0.8,0.3-1.6,0.6-2.3,0.8c0,0.1,0.1,0.2,0.1,0.3
		C138.1,101.5,138.9,101.3,139.7,101z"/>
	<path d="M156.9,15.6c0.9,0.1,1.8,0.1,2.6,0.3c2,0.3,4,0.7,6,1.1c0.9,0.2,1.8,0.3,2.7,0.5c0.1,0,0.2,0.1,0.3,0.2c-1,0-1.9,0.1-2.8,0
		c-1.6-0.2-3.2-0.5-4.8-0.8c-0.2,0-0.5,0-0.7,0.1c0,0.1,0,0.2,0,0.3c2.1,0.6,4.2,1.1,6.3,1.7c0,0.1,0,0.1,0,0.2
		c-1.2-0.2-2.4-0.2-3.6-0.5c-1.7-0.4-3.4-1-5.1-1.4c-0.3-0.1-0.6-0.1-0.9-0.1c0,0.1,0,0.2-0.1,0.3c1,0.3,2,0.7,3,1
		c1.9,0.5,3.7,1.2,5.4,2.2c0.2,0.1,0.4,0.3,0.6,0.5c-0.1,0.1-0.1,0.2-0.1,0.3c-2.9-0.8-5.8-1.6-8.8-2.4c0,0.1-0.1,0.1-0.1,0.2
		c0.4,0.2,0.7,0.5,1.1,0.6c2.4,0.7,4.8,1.3,7.2,2c0.4,0.1,0.8,0.3,1.1,0.4c0.1,0,0.1,0.2,0.2,0.4c-0.6-0.1-1.2-0.1-1.8-0.2
		c0,0.1-0.1,0.1-0.1,0.2c0.3,0.2,0.5,0.5,0.9,0.8c-1.8-0.3-3.4-0.6-5.1-1c0,0.1-0.1,0.2-0.1,0.3c0.4,0.1,0.8,0.3,1.2,0.4
		c2,0.4,4,0.7,6,1.3c1.6,0.5,3.1,1.2,4.6,1.8c0.6,0.3,1.3,0.5,1.9,0.8c-3.4-0.9-6.6-2.6-10.2-3.2c1.6,1.1,3.5,1.5,5.3,2.3
		c0,0.1,0,0.1,0,0.2c-0.9-0.1-1.7-0.2-2.6-0.4c-0.9-0.2-1.7-0.5-2.6-0.8c-0.8-0.3-1.7-0.6-2.5-0.9c0,0.1-0.1,0.2-0.1,0.3
		c0.2,0.1,0.5,0.3,0.7,0.4c1.4,0.6,2.8,1.1,4.1,1.7c0.9,0.4,1.6,1,2.4,1.6c-0.7-0.4-1.3-0.7-2-1.1c-0.1,0.1-0.1,0.2-0.2,0.3
		c0.4,0.3,0.9,0.7,1.3,1c0,0,0,0-0.1,0.1c-2.1-0.7-4.1-1.4-6.2-2.1c0,0.1-0.1,0.1-0.1,0.2c1.9,1.3,3.9,2.2,6.1,3.1
		c2.1,0.8,4.2,1.5,6.3,2.2c-0.6,0.2-1.3-0.7-1.9,0.2c-3.1-1.2-6.2-2.5-9.3-3.7c0,0.1-0.1,0.1-0.1,0.2c1.9,1.1,4,2,6.1,2.8
		c2.1,0.7,4.3,1.4,6.4,2.2c-0.6,0-1.2,0.1-1.7,0c-0.9-0.2-1.8-0.6-2.7-0.8c-1.1-0.2-2.2-0.4-3.3-0.6c-1.1-0.1-2.2,0-3.2-0.2
		c-0.5-0.1-1.1-0.4-1.5-0.8c-1-0.9-2.1-1.2-3.3-1.3c-1.3-0.1-2.6-0.2-3.9-0.3c-0.8-0.1-1.1-0.6-0.8-1.4c0.4-1.1,0.5-2.3,0.2-3.5
		c-0.3-1.4-0.7-1.2-1.7-1.5c-0.5-0.1-1-0.2-1.5-0.3c-0.8-0.2-1-0.8-0.6-1.5c0.2-0.4,0.5-0.8,0.7-1.2c0.3-0.7,0.2-1-0.5-1.3
		c-0.6-0.3-1.3-0.5-1.9-0.7c-1.1-0.4-2.1-0.9-3.1-1.4c-0.9-0.4-1.3-1.3-1.7-2.1c0-0.1,0.1-0.1,0.1-0.2c2.2,0.3,4.4,0.5,6.6,0.7
		c1.7,0.2,3.4,0.4,5,0.6C156.6,15.4,156.7,15.5,156.9,15.6c-1.7-0.1-3.5-0.4-5.4-0.1c0.2,0.2,0.2,0.2,0.3,0.2
		c1.5,0.1,3.1,0.1,4.6,0.2C156.6,16,156.8,15.7,156.9,15.6z M149.2,16.7c1.4,0.4,5.1,0.7,5.4,0.5C153.8,16.5,149.9,16.1,149.2,16.7z
		 M145.3,14.8c0.4,0.8,3.6,1.2,4.4,0.5C148.2,15.1,146.8,14.9,145.3,14.8z M156.1,18.7c-1.1-0.5-3.6,0-3.9,0.8
		C153.5,19.2,154.8,18.9,156.1,18.7z M153.9,21.3c1.3,0.1,2.4-0.1,3.6-0.6C156.2,20.8,155,20.8,153.9,21.3z M156.8,27.8
		c0.5,0.4,2.9,0.4,3.4-0.1C158.9,27.7,157.8,27.6,156.8,27.8z M159,26c0-0.1,0-0.2,0-0.3c-1,0-2,0-2.9,0c0,0.1,0,0.2,0,0.3
		C157.1,26,158.1,26,159,26z M155.9,23.1c0.6,0.5,2.4,0.4,2.9-0.2C157.8,23,156.9,23,155.9,23.1z"/>
	<path d="M142.6,134.6c-0.9-0.1-1.8-0.1-2.6-0.3c-2-0.3-4-0.7-6-1.1c-0.9-0.2-1.8-0.3-2.7-0.4c-0.1,0-0.2-0.1-0.3-0.2
		c1,0,1.9-0.1,2.8,0c1.6,0.2,3.2,0.5,4.8,0.8c0.2,0,0.5,0,0.7-0.1c0-0.1,0-0.2,0-0.3c-2.1-0.6-4.2-1.1-6.5-1.7
		c2.2-0.1,4.1,0.4,6.1,1c0.9,0.3,1.9,0.6,2.8,0.9c0.3,0.1,0.6,0.1,0.9,0.1c0-0.1,0-0.2,0-0.2c-1-0.3-2-0.7-3-1
		c-1.9-0.5-3.7-1.2-5.4-2.2c-0.2-0.1-0.4-0.3-0.6-0.5c0.1-0.1,0.1-0.2,0.1-0.3c2.9,0.8,5.8,1.6,8.8,2.4c0-0.1,0.1-0.1,0.1-0.2
		c-0.4-0.2-0.7-0.5-1.1-0.6c-2.4-0.7-4.8-1.3-7.2-2c-0.4-0.1-0.8-0.3-1.1-0.4c-0.1,0-0.1-0.2-0.2-0.4c0.6,0.1,1.2,0.1,1.8,0.2
		c0-0.1,0.1-0.1,0.1-0.2c-0.3-0.2-0.5-0.4-0.9-0.8c1.8,0.3,3.4,0.7,5.1,1c0-0.1,0.1-0.2,0.1-0.3c-0.4-0.1-0.8-0.3-1.2-0.4
		c-2-0.4-4-0.7-6-1.3c-1.6-0.5-3.1-1.2-4.6-1.8c-0.6-0.3-1.3-0.5-1.9-0.8c3.4,0.9,6.6,2.6,10.2,3.2c-1.6-1.1-3.5-1.5-5.3-2.3
		c0-0.1,0-0.1,0-0.2c0.8,0.1,1.7,0.2,2.6,0.4c0.9,0.2,1.7,0.5,2.6,0.8c0.8,0.3,1.7,0.6,2.5,0.9c0-0.1,0.1-0.2,0.1-0.3
		c-0.2-0.1-0.5-0.3-0.7-0.4c-1.4-0.6-2.8-1.1-4.2-1.7c-0.9-0.4-1.6-1-2.4-1.6c0.7,0.4,1.3,0.7,2,1.1c0.1-0.1,0.1-0.2,0.2-0.3
		c-0.4-0.3-0.8-0.7-1.3-1c0,0,0-0.1,0.1-0.1c2.1,0.7,4.1,1.4,6.2,2.1c0-0.1,0.1-0.2,0.1-0.2c-3.9-2.3-8-4.2-12.5-5.1
		c0-0.1,0-0.1,0-0.2c0.3,0.1,0.6,0.1,0.9,0.2c0.4,0.1,0.7,0.2,1.1-0.2c0.1-0.1,0.4,0,0.5,0.1c2.7,1.1,5.4,2.2,8.1,3.2
		c0.3,0.1,0.5,0.2,0.9,0.1c-3.8-2.4-8.2-3.6-12.5-4.8c0-0.1,0-0.1,0.1-0.2c0.6,0,1.2-0.1,1.7,0c0.9,0.2,1.8,0.6,2.7,0.8
		c1.1,0.2,2.2,0.4,3.3,0.6c1.1,0.1,2.2,0,3.2,0.2c0.5,0.1,1.1,0.4,1.5,0.8c1,0.8,2.1,1.2,3.3,1.3c1.3,0.1,2.6,0.2,3.8,0.3
		c0.8,0.1,1.1,0.6,0.8,1.4c-0.4,1.1-0.5,2.3-0.2,3.4c0.3,1.4,0.7,1.2,1.7,1.5c0.5,0.1,1,0.2,1.5,0.3c0.8,0.2,1,0.8,0.6,1.5
		c-0.2,0.4-0.5,0.8-0.7,1.2c-0.3,0.7-0.2,1,0.5,1.3c0.6,0.3,1.3,0.4,1.9,0.7c1.1,0.4,2.1,0.9,3.1,1.4c0.9,0.4,1.3,1.2,1.7,2.3
		c-2.4-0.3-4.6-0.5-6.8-0.8c-1.7-0.2-3.4-0.4-5-0.6C143,134.8,142.8,134.7,142.6,134.6c1.7,0.1,3.5,0.4,5.4,0.1
		c-0.2-0.2-0.2-0.2-0.3-0.2c-1.5-0.1-3.1-0.1-4.6-0.2C143,134.3,142.8,134.5,142.6,134.6z M150.4,133.6c-1.3-0.4-5-0.7-5.4-0.5
		C145.8,133.7,149.6,134.1,150.4,133.6z M154.3,135.5c-0.3-0.8-3.5-1.2-4.4-0.5C151.4,135.2,152.8,135.3,154.3,135.5z M147.4,131
		c0-0.1,0-0.1-0.1-0.2c-1.3,0.3-2.6,0.5-4.1,0.8C144.4,132.1,146.8,131.6,147.4,131z M145.8,129.1c0-0.1,0-0.2-0.1-0.3
		c-1.2-0.1-3.3,0.3-3.6,0.8C143.4,129.5,144.6,129.3,145.8,129.1z M143,122.5c-0.7-0.4-3-0.4-3.4,0
		C140.6,122.6,141.7,122.6,143,122.5z M140.4,124.3c0.7,0.5,2.6,0.5,3.2,0C142.5,124.3,141.5,124.3,140.4,124.3z M140.8,127.1
		c1,0.3,1.9,0.1,2.8-0.1C142.7,126.6,141.7,126.9,140.8,127.1z"/>
	<path d="M200,116.8c0.6-0.3,1.3-0.6,1.9-0.9c0-0.1-0.1-0.2-0.1-0.2c-0.6,0.2-1.1,0.3-1.7,0.5c2-1,4-1.9,6.3-2.2
		c-1.6-0.7-2.8,0.3-4.4,0.8c1-0.9,2.3-1.1,3-2c-0.1-0.1-0.1-0.2-0.2-0.3c-2.6,1.4-5.3,2.9-7.9,4.3c0,0,0-0.1-0.1-0.1
		c2.9-2.2,5.9-4.4,8.9-6.6c-0.1-0.1-0.1-0.2-0.2-0.3c-1.7,1-3.2,2.5-5,3.5c0.2-0.2,0.3-0.3,0.5-0.5c1.4-1.5,2.8-3,4.2-4.5
		c0.5-0.5,1.6-0.8,2.3-0.5c0.6,0.2,1.1,0.5,1.6,0.8c0.7,0.4,1.4,0.8,1.3,1.8c0,0.2,0.3,0.6,0.6,0.8c0.3,0.2,0.7,0.2,1,0.5
		c0.2,0.2,0.4,0.6,0.4,0.9c0,0.9-0.1,1.7,0,2.6c0.1,0.8-0.1,1.5-0.8,1.8c-1.7,0.8-2.3,2.3-2.4,3.9c-0.1,1.5-0.8,2.2-2,2.8
		c-1.1,0.6-2.1,1.2-3.1,1.8c-0.8,0.5-1.5,1-2.3,1.4c-0.8,0.4-1.6,0.2-2.2-0.5c-0.7-0.9-1.4-1.8-2.1-2.7c0-0.1-0.1-0.1-0.1-0.2
		c0.3-0.8-0.1-1.4-0.6-2.2c1.3,1,2.1,2.4,3.5,2.9c-1.3-1.4-2.6-2.8-3.8-4.2c0,0,0-0.1,0.1-0.1c1.4,1,2.8,2,4.2,3
		c0.1-0.1,0.1-0.2,0.2-0.3c-0.8-0.6-1.5-1.2-2.4-1.9c0.6,0.2,1.1,0.3,1.5,0.5c0-0.1,0.1-0.2,0.1-0.2c-0.9-0.5-1.8-0.9-2.7-1.4
		c0,0,0-0.1,0-0.1c1.7,0.3,3.4,0.7,5.1,1.1c0-0.1,0.1-0.2,0.1-0.3c-1.1-0.3-2.3-0.6-3.4-0.9c0,0,0-0.1,0-0.1
		c1.7,0.1,3.4,0.2,5.1,0.3c0-0.1,0-0.3,0-0.4c-0.8-0.1-1.7-0.2-2.4-0.3c-0.3-0.2-0.4-0.4-0.5-0.4c-1,0.1-2,0.2-3,0.2
		c-0.6,0-1.1,0.1-1.7,0c2.9-1,6-1,9-1.9c-0.3-0.1-0.6-0.2-0.9-0.2c-0.4-0.1-0.8-0.1-1.2-0.1c-0.3,0-0.6,0-0.9,0.2
		C202,116.9,201,116.7,200,116.8z M211.4,112.3c0-0.1,0-0.2,0-0.3c-0.2-0.1-0.5-0.3-0.6-0.2c-0.8,0.4-1.7,1-2.5,1.5
		c-0.1,0-0.1,0.2-0.1,0.3c0.1,0,0.3,0.2,0.3,0.1C209.5,113.3,210.4,112.8,211.4,112.3z M203.8,121.2c-0.1,0.1-0.2,0.3-0.3,0.4
		c0.2,0.1,0.4,0.1,0.5,0.2c0.7,0.4,1.4,0.8,2.1,1.2c0.2,0.1,0.6,0.1,0.8,0.1c0-0.1,0-0.2,0.1-0.3C206,122.3,204.9,121.7,203.8,121.2
		z M206.1,111.7c0.1,0.1,0.3,0.2,0.4,0.3c0-0.2,0.1-0.3,0.1-0.5c0.4-1,1.2-1.5,2.1-1.9c0.2-0.1,0.3-0.3,0.4-0.4
		c-0.2,0-0.4-0.1-0.6-0.1c-1,0.4-1.7,1.1-2.3,1.9C206.1,111.2,206.1,111.4,206.1,111.7z M211.7,114c-0.6-0.5-2.9,0.1-3.4,1
		C209.5,114.7,210.6,114.3,211.7,114z M211.2,115.6c0-0.1,0-0.2-0.1-0.2c-1.1,0.3-2.3,0.5-3.4,0.8
		C208.5,116.6,210.7,116.1,211.2,115.6z M209.9,111.2c-0.8-0.6-1.3-0.3-1.7,0.1c-0.6,0.4-1,0.9-0.9,1.7
		C207.9,112.1,208.5,111.3,209.9,111.2z M199.4,124.4c0,0.1-0.1,0.1-0.1,0.2c0.4,0.8,1.9,1.7,2.6,1.3
		C201,125.4,200.2,124.9,199.4,124.4z M209.7,117.5c-0.6-0.5-2.3-0.4-2.7,0.1C207.9,117.8,208.8,117.8,209.7,117.5z M205.7,119.4
		c-0.1,0.1-0.1,0.2-0.2,0.3c0.7,0.3,1.3,0.7,2,0.9c0.1,0.1,0.4-0.2,0.5-0.3c0-0.1,0-0.1,0-0.2C207.2,120,206.5,119.7,205.7,119.4z
		 M202.8,122.2c0.3,0.9,1.9,1.8,2.5,1.5C204.4,123.2,203.6,122.7,202.8,122.2z M207,114.9c0-0.1,0-0.2-0.1-0.2
		c-0.8,0.3-1.6,0.5-2.5,0.8C205.1,115.9,206.3,115.5,207,114.9z M205.1,120.7c0.9,0.6,1.7,1.2,2.7,1.8
		C207.5,121.7,206,120.6,205.1,120.7z M202.9,125.2c-0.1-0.9-1.4-1.8-1.9-1.4C201.5,124.3,202.2,124.7,202.9,125.2z"/>
	<path d="M93.7,34c0.8,0.1,1.7,0.3,2.5,0.2c0.5,0,1-0.4,1.5-0.6c0.6-0.2,1.3-0.2,1.9-0.1c-0.7,0.3-1.3,0.6-2,0.9
		c0,0.1,0.1,0.2,0.1,0.2c0.6-0.2,1.1-0.3,1.7-0.5c-2,1-4,2-6.3,2.2c0.6,0.4,1.2,0.5,2.1,0.2c0.7-0.2,1.3-0.5,2-0.8
		c-0.8,0.8-2.1,1-2.8,1.9c0.1,0.1,0.1,0.2,0.2,0.3c2.6-1.4,5.3-2.9,7.9-4.3c0,0,0.1,0.1,0.1,0.1c-2.9,2.2-5.9,4.4-8.8,6.6
		c0.1,0.1,0.1,0.2,0.2,0.3c1.7-1,3.2-2.5,5-3.5c-0.7,0.7-1.4,1.3-2.1,2C96,40,95.1,41,94.3,42c-0.5,0.6-1.6,0.9-2.4,0.6
		c-0.6-0.2-1.2-0.5-1.7-0.8C89.5,41.4,89,41,89,40.1c0-0.3-0.3-0.6-0.6-0.8c-0.3-0.2-0.6-0.3-0.9-0.4c-0.4-0.2-0.5-0.5-0.4-0.9
		c0.1-0.8,0.1-1.7,0-2.6c-0.1-0.8,0.1-1.4,0.8-1.8c1.7-0.8,2.3-2.3,2.3-4c0.1-1.4,0.8-2.1,1.9-2.7c1.1-0.6,2.1-1.2,3.2-1.8
		c0.7-0.4,1.4-0.9,2.2-1.3c0.8-0.5,1.7-0.2,2.3,0.5c0.7,0.9,1.4,1.8,2.1,2.7c0.1,0.1,0.2,0.2,0.1,0.2c-0.4,0.8,0.2,1.3,0.4,2
		c-0.5-0.5-1-1.1-1.6-1.5c-0.5-0.4-0.9-1.2-1.7-1.2c1.3,1.4,2.6,2.8,3.8,4.2c0,0,0,0,0,0.1c-1.4-1-2.8-2-4.2-3
		c-0.1,0.1-0.1,0.2-0.2,0.3c0.8,0.6,1.5,1.2,2.3,1.9c-0.6-0.2-1.1-0.3-1.5-0.5c0,0.1-0.1,0.2-0.1,0.3c0.9,0.5,1.8,0.9,2.7,1.3
		c0,0,0,0.1,0,0.1c-1.7-0.4-3.4-0.7-5.1-1c0,0.1-0.1,0.2-0.1,0.3c1.1,0.3,2.3,0.6,3.4,0.9c0,0,0,0.1,0,0.1c-1.7-0.1-3.4-0.2-5.1-0.3
		c0,0.1,0,0.3,0,0.4c0.8,0.1,1.7,0.2,2.6,0.3c0,0.1,0,0.2,0,0.4c1.7-0.1,3.4-0.3,5-0.4c0,0.1,0,0.1,0,0.2c-2.9,0.9-6,0.9-9,1.6
		C93.7,33.8,93.7,33.9,93.7,34z M88.2,37.9c0,0.1,0,0.2,0,0.3c0.2,0,0.5,0.2,0.7,0.1c0.8-0.4,1.6-0.9,2.3-1.4
		c0.1-0.1,0.1-0.2,0.2-0.3c-0.1,0-0.3-0.1-0.3-0.1C90.1,37,89.1,37.4,88.2,37.9z M92.6,27.1c0,0.1,0,0.2,0,0.3
		c1.1,0.5,2.1,1.2,3.3,1.5c0-0.2-0.1-0.3-0.2-0.4c-0.8-0.5-1.6-0.9-2.4-1.4C93.1,27,92.8,27.1,92.6,27.1z M93.4,38.4
		C92.9,39,92.5,39.6,92,40c-0.5,0.4-1.1,0.6-1.8,1C91.6,41.3,93.6,39.7,93.4,38.4z M91.2,35.2c-1.2,0.4-2.3,0.7-3.4,1
		C88.5,36.8,90.7,36.1,91.2,35.2z M88.3,34.5c0,0.1,0,0.2,0.1,0.3c1.1-0.2,2.3-0.5,3.4-0.7c0-0.1,0-0.2-0.1-0.3
		C90.6,33.8,89.4,34,88.3,34.5z M92.3,37.3c-0.6,0.9-1.3,1.7-2.6,1.8c0.6,0.5,1.1,0.3,1.5,0C91.9,38.7,92.3,38.1,92.3,37.3z
		 M97.6,24.3c0.9,0.6,1.8,1.1,2.6,1.5C99.9,24.9,98.4,24,97.6,24.3z M89.9,32.8c0.5,0.5,2.2,0.5,2.7,0
		C91.6,32.5,90.8,32.5,89.9,32.8z M93.9,30.8c-0.1-0.5-1.5-1.4-1.9-1.3c-0.2,0-0.3,0.2-0.6,0.4C92.3,30.3,93.1,30.6,93.9,30.8z
		 M94.3,26.5c0.8,0.5,1.7,1,2.5,1.6C96.6,27.2,95.1,26.3,94.3,26.5z M95,34.8c-0.7-0.5-2,0-2.4,0.7C93.4,35.3,94.2,35.1,95,34.8z
		 M94.4,29.5c-0.9-0.6-1.7-1.1-2.5-1.6C92.1,28.6,93.7,29.6,94.4,29.5z M98.7,26.5c-0.7-0.5-1.3-0.9-2-1.5
		C96.8,26,98.1,26.8,98.7,26.5z"/>
	<path d="M85,61.5c0.2-0.2,0.4-0.4,0.7-0.6c0-0.1-0.1-0.1-0.1-0.2c-0.5,0.2-1,0.4-1.5,0.6c0,0-0.1-0.1-0.1-0.1
		c0.4-0.4,0.8-0.8,1.2-1.1c1-0.8,1.5-2.2,1.2-3.5c-0.1-0.5-0.2-1.1-0.3-1.6c-0.1-1.1,0.3-2,1.4-2.5c1.4-0.6,2.3-1.5,2.9-2.8
		c0.3-0.6,0.7-1.1,1-1.4c0.4,0,0.6,0.2,0.8,0.1c1.8-0.7,3.5-1.5,5.2-2.2c0.3-0.1,0.5-0.2,0.8-0.3c0,0,0.1,0.1,0.1,0.2
		c-2.3,1.1-4.6,2.2-6.8,3.3c0.1,0.1,0.1,0.2,0.2,0.3c0.9-0.4,1.8-0.8,2.6-1.2c0.9-0.4,1.8-0.8,2.8-1.2c-1.6,1.6-3.9,1.8-5.7,3.1
		c0,0.1,0.1,0.2,0.1,0.3c0.6-0.2,1.2-0.5,1.8-0.7c0.6-0.3,1.3-0.6,1.9-0.8s1.2-0.6,1.8-0.8c0,0,0.1,0.1,0.1,0.2
		c-2.3,1.4-4.7,2.8-7,4.1c0.1,0.1,0.1,0.2,0.2,0.3c1.8-1,3.7-2,5.5-3.1c0,0.1,0.1,0.1,0.1,0.2c-0.5,0.4-1,0.8-1.6,1.1
		c-1.6,1-3.3,1.9-4.9,2.8c-0.2,0.1-0.4,0.4-0.7,0.5c0.1,0.1,0.1,0.2,0.2,0.2c1.8-1,3.7-2.1,5.5-3.2c0,0.1,0.1,0.1,0.1,0.2
		c-1.9,1.3-3.8,2.5-5.7,3.8c0.1,0.1,0.1,0.2,0.2,0.3c1.6-0.7,2.8-1.9,4.3-2.7c0.1,0,0.1,0.1,0.2,0.2c-0.3,0.3-0.7,0.7-1,0.9
		c-1.3,0.8-2.7,1.6-4.1,2.5c-0.2,0.1-0.3,0.3-0.5,0.5c0.1,0.1,0.1,0.2,0.2,0.2c1.4-0.9,2.8-1.7,4.2-2.6c0.1,0.1,0.1,0.1,0.2,0.2
		c-0.5,0.4-0.8,0.9-1.3,1.2c-1,0.7-2.2,1.3-3.2,2c-0.3,0.2-0.6,0.5-0.9,0.8c0,0.1,0.1,0.1,0.1,0.2c1.4-0.8,2.8-1.7,4.2-2.5
		c0,0,0.1,0.1,0.1,0.1c-0.3,0.3-0.7,0.5-1,0.8c-1.1,0.8-2.3,1.6-3.4,2.3c-0.2,0.2-0.4,0.4-0.5,0.6c0.1,0.1,0.1,0.1,0.2,0.2
		c1.3-0.9,2.5-1.9,3.8-2.8c0,0.1,0.1,0.1,0.1,0.2c-0.8,0.6-1.6,1.3-2.5,1.9c-0.4,0.3-0.8,0.5-1.1,0.9c-0.2,0.4-0.3,0.9-0.4,1.3
		c0,0.2,0.1,0.4,0,0.6c-0.5,0.9-0.5,0.9-0.4,1.9c0.2-0.1,0.3-0.1,0.5-0.2c-0.5,0.7-0.9,1.3-1.4,1.9c0.1,0.1,0.1,0.1,0.2,0.2
		c0.3-0.3,0.6-0.5,1-0.7c0.1,0.1,0.1,0.1,0.2,0.1c-0.6,0.7-1.1,1.4-1.7,2.1c0.1,0.1,0.2,0.2,0.3,0.3c0.3-0.5,0.7-1,1-1.5
		c0.1,0.1,0.1,0.1,0.2,0.2c-0.5,0.8-1.1,1.5-1.6,2.3c0.1,0.1,0.2,0.1,0.2,0.2c0.8-1,1.7-1.9,2.5-2.9c0.1,0.1,0.2,0.2,0.3,0.3
		c-1.1,1.2-2.2,2.5-3.2,3.7c0.1,0.1,0.2,0.2,0.3,0.2c1-1.1,2-2.1,3-3.2c-0.4,1.8-2.3,2.3-3.1,3.8c0,0.1,0.1,0.1,0.1,0.1
		c0.8-0.7,1.7-1.4,2.5-2.1c-0.6,1.1-1.9,1.8-2.4,3c1.1-0.5,1.7-1.5,2.5-2.3c0.1,0.1,0.1,0.1,0.2,0.2c-0.9,1.1-1.9,2.1-2.8,3.1
		c0.1,0.1,0.1,0.2,0.2,0.2c0.8-0.7,1.5-1.3,2.3-1.9c0,0,0.1,0.1,0.1,0.1c-0.9,1-1.9,2-2.8,3c0.1,0.1,0.2,0.2,0.2,0.2
		c0.8-0.8,1.5-1.6,2.3-2.3c0.1,0,0.1,0.1,0.2,0.1c-0.2,0.3-0.3,0.6-0.5,0.9c-1.1,1.5-2.3,2.9-3.4,4.4c-0.1,0.1-0.1,0.3-0.2,0.4
		c0,0.1,0.1,0.1,0.2,0.1c0.2-0.2,0.4-0.3,0.5-0.5c0.9-1.2,1.8-2.4,2.7-3.6c0.1-0.2,0.3-0.3,0.5-0.4c0.1,0,0.1,0.1,0.2,0.1
		c-0.8,1.2-1.7,2.4-2.5,3.6c0.1,0.1,0.2,0.1,0.3,0.2c0.7-0.8,1.3-1.6,2-2.4c0,0,0.1,0.1,0.2,0.1c-0.8,1.2-1.6,2.3-2.4,3.5
		c0.1,0.1,0.2,0.1,0.2,0.2c0.7-0.8,1.5-1.6,2.2-2.4c0,0,0.1,0.1,0.1,0.1c-0.5,1.1-1.1,2.3-1.7,3.4c0.1,0.1,0.2,0.1,0.3,0.2
		c0.4-0.8,0.9-1.6,1.3-2.4c0.1,0,0.2,0.1,0.2,0.1c-0.5,1.1-1,2.3-1.6,3.4c0.1,0.1,0.2,0.1,0.3,0.1c0.4-0.7,0.8-1.5,1.2-2.2
		c0.1,0,0.1,0,0.1,0.1c-0.3,0.6-0.5,1.1-0.8,1.7c-0.1,0.3-0.7,0.6,0,0.9c0.1,0-0.1,0.4,0,0.7c0.3-0.3,0.5-0.7,0.8-1
		c0.2,1-0.6,1.3-1.2,1.9c0-0.3-0.1-0.5-0.1-0.7c-0.1,0.1-0.2,0.1-0.3,0.2c0-0.3,0.1-0.6,0.1-0.9c-0.2,0.2-0.4,0.3-0.5,0.4
		c0-0.3,0.1-0.6,0.1-0.9c-0.2,0-0.4-0.1-0.6-0.1c0.1-0.3,0.2-0.6,0.3-1c-0.3,0.1-0.5,0.2-0.7,0.2c-0.3-0.9-1.3-1.7-0.2-2.7
		c-0.6,0.1-1,0.4-1.3,0.3c-0.4-0.2-0.6-0.6-0.9-1c0.4-0.4,0.8-0.7,1.1-1.1c0.2-0.3,0.3-0.6,0.5-0.9c-0.3,0.2-0.6,0.3-0.8,0.6
		c-0.3,0.4-1,0.8-0.8,1.5c-0.3-0.7-0.7-1.4-0.8-2.1c-0.2-1.3-0.2-2.6-0.3-3.8c0-0.3,0.1-0.5,0.4-0.7c0.8-0.5,1.4-1.1,2-1.8
		c-1.1,0-1.5,1-2.4,1.5c0.4-1.1,0.7-2.1,1.3-3c0.5-0.9,1.2-1.6,1.8-2.5c-0.4,0.2-0.8,0.4-1.3,0.6c0-1.2,0-2.4,0-3.6
		c0,0.2,0,0.3,0.1,0.7c0.8-0.7,1.4-1.2,2.2-1.9C85.4,61.5,85.2,61.5,85,61.5z M84.7,72.3c-1,0.5-2.4,2.3-2.4,2.9
		C83.3,74.3,84.1,73.4,84.7,72.3z M85,67c-0.9,0-2,1.1-1.8,2c0.4-0.2,0.8-0.3,1.4-0.5c-0.3-0.1-0.5-0.2-0.7-0.3
		C84.2,67.7,84.5,67.4,85,67z M82.5,76.9c0.7-0.9,1.4-1.8,2.1-2.7C83.9,74.4,82.4,76.2,82.5,76.9z M84.2,71.2
		c-0.9,0-2.3,1.6-1.9,2.2C82.9,72.6,83.6,71.9,84.2,71.2z"/>
	<path d="M216.7,72.2c0.3,0.7,0.7,1.4,0.8,2.1c0.2,1.3,0.2,2.6,0.2,3.9c0,0.2-0.2,0.4-0.4,0.6c-0.7,0.6-1.4,1.2-2,1.9
		c1,0,1.4-0.9,2.2-1.3c-0.6,2-1.2,3.8-3.1,5c0.1,0.1,0.1,0.1,0.2,0.2c0.4-0.2,0.8-0.4,1.3-0.6c0.1,1,0.1,2,0.2,3
		c0,0.2-0.1,0.4-0.2,0.6c0-0.2,0-0.4,0-0.8c-0.8,0.7-1.5,1.3-2.3,1.9c0.4,0,0.6,0,0.8,0.1c-0.2,0.2-0.4,0.4-0.6,0.6
		c0,0.1,0.1,0.1,0.1,0.2c0.5-0.2,1-0.4,1.5-0.6c0,0,0.1,0.1,0.1,0.1c-0.4,0.4-0.8,0.8-1.2,1.1c-1,0.8-1.5,2.2-1.2,3.5
		c0.1,0.5,0.2,1.1,0.3,1.6c0.1,1.1-0.3,2-1.4,2.5c-1.4,0.6-2.3,1.5-2.9,2.8c-0.3,0.6-0.7,1.1-1,1.4c-0.4-0.1-0.6-0.2-0.8-0.1
		c-1.8,0.7-3.5,1.5-5.2,2.2c-0.3,0.1-0.5,0.2-0.9,0.2c0.1-0.1,0.3-0.2,0.5-0.3c1.9-0.9,3.8-1.8,5.6-2.7c0.3-0.1,0.5-0.3,0.7-0.5
		c-0.1-0.1-0.1-0.2-0.1-0.3c-1.8,0.8-3.6,1.6-5.4,2.4c0-0.1-0.1-0.1-0.1-0.2c0.6-0.4,1.2-0.8,1.8-1.1c0.7-0.3,1.4-0.6,2.1-0.9
		c0.6-0.3,1.3-0.6,1.9-1c-2,0.4-3.7,1.5-5.7,2.1c2.3-1.4,4.7-2.8,7-4.2c-0.1-0.1-0.1-0.2-0.2-0.3c-1.8,1-3.6,2-5.5,3.1
		c0-0.1-0.1-0.1-0.1-0.2c0.5-0.4,1-0.8,1.6-1.1c1.6-1,3.3-1.9,4.9-2.8c0.2-0.1,0.4-0.4,0.7-0.5c-0.1-0.1-0.1-0.2-0.2-0.2
		c-1.8,1.1-3.6,2.1-5.5,3.2c0-0.1-0.1-0.1-0.1-0.2c1.9-1.3,3.8-2.5,5.7-3.8c-0.1-0.1-0.1-0.2-0.2-0.3c-1.6,0.7-2.8,1.9-4.3,2.7
		c-0.1-0.1-0.1-0.1-0.1-0.2c0.4-0.3,0.7-0.7,1.1-0.9c1.3-0.8,2.7-1.6,4.1-2.4c0.2-0.1,0.3-0.3,0.5-0.5c-0.1-0.1-0.1-0.1-0.2-0.2
		c-1.4,0.9-2.8,1.7-4.2,2.6c-0.1-0.1-0.1-0.1-0.2-0.2c0.4-0.4,0.9-0.9,1.3-1.2c1.1-0.7,2.1-1.3,3.2-2c0.3-0.2,0.6-0.5,0.9-0.8
		c-0.1-0.1-0.1-0.1-0.1-0.2c-1.4,0.8-2.8,1.7-4.2,2.5c0,0-0.1-0.1-0.1-0.1c0.3-0.3,0.6-0.6,1-0.8c1.1-0.8,2.3-1.6,3.4-2.3
		c0.2-0.2,0.4-0.4,0.5-0.6c-0.1-0.1-0.1-0.1-0.2-0.2c-1.3,0.9-2.6,1.9-3.8,2.8c0-0.1-0.1-0.1-0.1-0.2c0.6-0.5,1.3-1,1.9-1.6
		c0.5-0.4,1.1-0.8,1.6-1.2c0.4-0.4,0.5-0.9,0.4-1.4c0-0.2-0.1-0.5,0-0.6c0.7-0.6,0.5-1.2,0.4-1.9c-0.1,0-0.3,0.1-0.5,0.2
		c0.5-0.7,0.9-1.3,1.4-1.9c-0.1-0.1-0.1-0.1-0.2-0.2c-0.3,0.3-0.6,0.5-1,0.7c-0.1-0.1-0.1-0.1-0.2-0.1c0.6-0.7,1.1-1.4,1.7-2.1
		c-0.1-0.1-0.2-0.2-0.3-0.3c-0.3,0.5-0.6,1-1,1.5c-0.1-0.1-0.1-0.1-0.2-0.2c0.6-0.8,1.1-1.5,1.6-2.3c-0.1-0.1-0.2-0.1-0.2-0.2
		c-0.8,1-1.7,1.9-2.5,2.9c-0.1-0.1-0.2-0.2-0.3-0.3c1.1-1.2,2.2-2.5,3.2-3.7c-0.1-0.1-0.2-0.2-0.3-0.2c-1,1.1-2,2.1-3,3.2
		c0.4-1.8,2.3-2.3,3.1-3.8c0-0.1-0.1-0.1-0.1-0.1c-0.8,0.7-1.7,1.4-2.5,2.1c0.6-1.1,1.8-1.8,2.4-3c-1.1,0.5-1.7,1.5-2.5,2.3
		c-0.1-0.1-0.1-0.1-0.2-0.2c0.9-1.1,1.9-2.1,2.8-3.1c-0.1-0.1-0.1-0.2-0.2-0.2c-0.8,0.7-1.5,1.3-2.3,1.9c0,0-0.1-0.1-0.1-0.1
		c0.9-1,1.9-2,2.8-3c-0.1-0.1-0.2-0.2-0.2-0.2c-0.8,0.8-1.6,1.6-2.3,2.3c-0.1,0-0.1-0.1-0.2-0.1c0.2-0.3,0.3-0.6,0.5-0.9
		c1.1-1.5,2.3-2.9,3.4-4.4c0.1-0.1,0.1-0.3,0.2-0.4c-0.1-0.1-0.1-0.1-0.2-0.1c-0.2,0.2-0.4,0.3-0.5,0.5c-0.9,1.2-1.8,2.4-2.7,3.6
		c-0.1,0.2-0.3,0.3-0.5,0.4c-0.1,0-0.1-0.1-0.1-0.1c0.8-1.2,1.6-2.4,2.5-3.6c-0.1-0.1-0.2-0.1-0.3-0.2c-0.6,0.8-1.3,1.6-1.9,2.4
		c-0.1,0-0.1-0.1-0.2-0.1c0.8-1.2,1.6-2.3,2.4-3.5c-0.1-0.1-0.2-0.1-0.2-0.2c-0.7,0.8-1.5,1.6-2.2,2.4c0,0-0.1-0.1-0.1-0.1
		c0.6-1.1,1.1-2.3,1.6-3.4c-0.1-0.1-0.2-0.1-0.3-0.2c-0.4,0.8-0.9,1.6-1.3,2.4c-0.1,0-0.1-0.1-0.2-0.1c0.5-1.1,1-2.3,1.6-3.4
		c-0.1-0.1-0.2-0.1-0.3-0.1c-0.4,0.7-0.8,1.5-1.2,2.2c-0.1,0-0.1,0-0.1-0.1c0.3-0.6,0.5-1.1,0.8-1.7c0.1-0.3,0.7-0.6,0-0.9
		c-0.1,0,0.1-0.4,0-0.7c-0.3,0.3-0.5,0.7-0.8,1c-0.2-1,0.6-1.3,1.2-1.9c0,0.3,0.1,0.5,0.1,0.7c0.1-0.1,0.2-0.1,0.3-0.2
		c0,0.3-0.1,0.6-0.1,0.9c0.2-0.2,0.4-0.3,0.5-0.4c0,0.3-0.1,0.6-0.1,0.9c0.2,0,0.4,0.1,0.6,0.1c-0.1,0.3-0.2,0.6-0.3,1
		c0.3-0.1,0.5-0.2,0.7-0.2c0.3,0.9,1.3,1.7,0.1,2.8c0.6-0.2,1.1-0.4,1.4-0.3C216.2,71.4,216.5,71.9,216.7,72.2
		c-0.3,0.4-0.7,0.8-1.1,1.2c-0.2,0.3-0.3,0.6-0.5,0.9c0.3-0.2,0.6-0.3,0.8-0.6C216.3,73.2,216.9,72.9,216.7,72.2z M214.8,78
		c0.9-0.4,2.5-2.3,2.4-2.9C216.3,76,215.4,76.8,214.8,78z M215.4,79.1c0,0.1,0.1,0.1,0.1,0.2c0.2,0,0.4,0,0.5-0.1
		c0.6-0.6,1.1-1.2,1.6-1.8c0.1-0.1,0-0.3,0-0.3c-0.1,0-0.3-0.1-0.4,0c-0.3,0.3-0.5,0.6-0.8,0.9C216,78.3,215.7,78.7,215.4,79.1z
		 M214.9,76.1c0.9-0.1,2.4-2.1,2.3-2.8C216.3,74.2,215.6,75.1,214.9,76.1z M214.5,83.1c0.1,0.1,0.1,0.2,0.2,0.2c0.8,0,1.8-1.1,1.7-2
		c-0.4,0.2-0.9,0.3-1.4,0.5c0.3,0.1,0.5,0.2,0.8,0.3C215.4,82.5,215,82.8,214.5,83.1z"/>
	<path d="M191.7,54.9c0.1,0.1,0.2,0.3,0.4,0.5c-1.5-0.6-2.9-1.2-4.3-1.7c-0.1,0.1-0.1,0.2-0.2,0.3c3.3,1.2,6.5,2.7,9.2,4.9
		c0,0.1-0.1,0.1-0.1,0.2c-0.7-0.4-1.4-0.7-2.1-1.1c-2.1-1.1-4.1-2.4-6.4-3c-0.6-0.1-1.1-0.3-1.7-0.3c-0.3,0-0.5,0-0.8,0.2
		c3.2,0.4,6,1.7,8.7,3.5c-2.8-0.8-5.5-1.8-8.5-1.8c3.1,0.7,6.3,1.3,9.1,2.9c-3.3-0.8-6.5-1.8-9.9-1.9c0,0.1,0,0.2-0.1,0.3
		c0.9,0.2,1.9,0.4,2.9,0.6c-2.7,0-5.4-0.2-8,1c0-1.2,0-2.4,0-3.5c0-0.5,0.4-0.8,0.9-1c0.3-0.1,0.5-0.1,0.8-0.2
		c0.7-0.2,1.1-0.6,1.1-1.3c0-0.7,0.3-1,1-0.9s1.3-0.1,2-0.5c0.5-0.3,1.1-0.4,1.6-0.5c0.9-0.1,1.8-0.3,2.7-0.3c1.6,0,3,0.6,4.2,1.7
		c0.6,0.5,1.2,1.1,1.8,1.7c-0.1,0.1-0.1,0.1-0.1,0.2c-0.4-0.3-0.9-0.6-1.3-0.9c-0.2,0.7,1.4,1.9,2.2,1.7c0.5,0.7,1,1.5,1.4,2.2
		c0,0-0.1,0.1-0.1,0.1c-0.6-0.5-1.2-1.2-1.9-1.6c-1.3-0.9-2.6-1.7-3.9-2.5c-0.2-0.2-0.6-0.2-0.5-0.6c0-0.1,0-0.2-0.1-0.3
		c-0.6-0.4-1.2-0.8-1.8-1.3c-0.1,0-0.2,0-0.4,0c0.7,0.6,1.3,1.2,1.9,1.7c-0.2,0-0.3,0.1-0.6,0.2c2.9,1.3,5.4,2.8,7,5.4
		c-1.2-0.8-2.4-1.6-3.6-2.4c-0.1,0-0.1-0.2-0.1-0.4c0-0.1,0-0.2,0-0.2c-0.8-0.5-1.5-1.1-2.4-1.3C191.8,54.8,191.7,54.9,191.7,54.9z
		 M180.9,56.7c1.4-0.1,2.7-0.2,4.1-0.3c-0.5-0.6-1.3-0.5-1.9-0.5C182.4,55.9,181.5,56,180.9,56.7z M181.2,57.8
		c0,0.1,0.1,0.2,0.1,0.3c0.1,0,0.2,0,0.3,0c1.1-0.2,2.1-0.4,3.2-0.6c0.1,0,0.2-0.1,0.2-0.2c-0.1-0.1-0.2-0.2-0.3-0.2
		c-0.5,0-1-0.1-1.5,0C182.5,57.3,181.8,57.6,181.2,57.8z M193.8,54.3c-0.1-0.9-2.3-2.5-3-2.3C191.8,52.8,192.7,53.5,193.8,54.3z
		 M184.9,55.3c-0.6-0.5-2.5-0.5-2.8,0C183,55.3,184,55.3,184.9,55.3z M184.3,53.3c0.8,0.3,1.5,0.6,2.3,0.8
		C186.5,53.4,185,52.8,184.3,53.3z M183.1,53.9c0.8,0.3,1.6,0.5,2.4,0.8C185.2,53.9,183.6,53.4,183.1,53.9z M188.7,51.9
		c-0.1,0.1-0.1,0.2-0.2,0.3c0.7,0.5,1.3,0.9,2,1.4c0.1-0.1,0.1-0.2,0.2-0.3C190,52.9,189.4,52.4,188.7,51.9z M187.1,52.3
		c1.1,0.9,1.8,1.2,2.3,1C188.7,52.9,188,52.4,187.1,52.3z"/>
	<path d="M101.8,91.2c1.2,0.8,2.4,1.6,3.6,2.4c0.1,0.1,0,0.2,0.1,0.4c0,0.1,0,0.2,0,0.2c0.8,0.4,1.5,0.8,2.3,1.2c0,0,0.1,0,0.2-0.1
		c-0.1-0.2-0.2-0.3-0.4-0.6c1.5,0.6,2.9,1.1,4.2,1.7c0.1-0.1,0.1-0.2,0.2-0.3c-3.3-1.2-6.5-2.7-9.2-4.9c0-0.1,0.1-0.1,0.1-0.2
		c0.7,0.4,1.4,0.7,2.1,1.1c2.3,1.2,4.4,2.6,7,3.1c0.6,0.1,1.2,0.2,1.8,0.2c0-0.1,0-0.1,0-0.2c-1.5-0.4-3-0.7-4.5-1.3
		c-1.4-0.6-2.8-1.4-4.2-2.2c2.8,0.8,5.6,1.8,8.6,1.8c-3.1-0.7-6.3-1.3-9.1-2.9c3.3,0.9,6.5,1.7,9.9,2c0-0.1,0.1-0.3,0.1-0.4
		c-1-0.2-1.9-0.4-2.9-0.6c2.7,0.3,5.4,0.1,8.1-0.9c-0.1,1.3-0.1,2.4-0.2,3.6c0,0.3-0.3,0.5-0.6,0.7c-0.2,0.2-0.5,0.2-0.8,0.3
		c-0.9,0.1-1.3,0.6-1.3,1.5c0,0.6-0.3,0.9-0.9,0.8c-0.7-0.1-1.3,0.2-1.9,0.5c-0.4,0.3-1,0.4-1.6,0.4c-0.9,0.1-1.8,0.3-2.7,0.3
		c-1.6,0.1-3-0.6-4.2-1.7c-0.6-0.6-1.2-1.1-1.8-1.7c0.1-0.1,0.1-0.1,0.2-0.2c0.4,0.3,0.8,0.6,1.4,1c0-0.2,0.1-0.4,0-0.5
		c-0.5-0.5-1.1-1.2-1.7-1.3c-1.4-0.2-1.3-1.5-2-2.2c0.8,0.7,1.6,1.5,2.5,2.1c1,0.7,2.2,1.3,3.3,2c0.3,0.2,0.6,0.2,0.5,0.6
		c0,0.1,0,0.2,0.1,0.2c0.6,0.4,1.2,0.8,1.7,1.2c0.1,0.1,0.2,0,0.5,0c-0.7-0.6-1.3-1.2-1.9-1.7c0.2-0.1,0.3-0.1,0.6-0.2
		C105.9,95.3,103.4,93.8,101.8,91.2z M114.5,93.8c0.6,0.9,3.6,0.7,4.1-0.3C117.3,93.6,115.9,93.7,114.5,93.8z M118.5,92.1
		c-1.4,0.3-2.7,0.5-3.9,0.7C115,93.5,117.9,93.1,118.5,92.1z M108.9,98.3c-1.1-0.8-2-1.6-3.1-2.4C105.8,96.7,108,98.4,108.9,98.3z
		 M114.7,94.9c0,0.1,0,0.1,0,0.2c0.6,0.4,2.5,0.4,3.1-0.2C116.6,94.9,115.7,94.9,114.7,94.9z M114,95.5c0.6,0.9,2,1.4,2.6,0.9
		C115.7,96.1,114.9,95.8,114,95.5z M113,96.1c0.2,0.8,1.6,1.4,2.3,0.9C114.5,96.7,113.8,96.4,113,96.1z M110.9,98.3
		c0-0.1,0.1-0.1,0.1-0.2c-0.3-0.6-1.6-1.4-2.3-1.3C109.5,97.4,110.2,97.8,110.9,98.3z M110.3,96.7c0,0.1-0.1,0.2-0.1,0.3
		c0.7,0.4,1.4,0.9,2.2,1.1c0-0.1,0.1-0.2,0.1-0.2C111.8,97.4,111,97.1,110.3,96.7z"/>
	<path d="M178.7,26.9c1,0.2,2.1,0.5,3.2,0.7c-0.6-1.3-1.9-1.3-2.9-1.9c1.9,0.4,3.6,0.7,5.3,1c0-0.1,0.1-0.2,0.1-0.3
		c-0.9-0.4-1.8-0.8-2.7-1.2c0-0.1,0-0.1,0.1-0.2c0.4,0.1,0.8,0.2,1.3,0.3c0.2-1.3-1-1.1-1.6-1.5c0.8-0.2,1.5,0,2.5,0.8
		c0.7,0.5,1.3,1,2,1.5c0.6,0.4,0.6,0.9-0.1,1.2c-1.7,0.9-2.5,2.3-2.6,4.1c0,0.3-0.1,0.6-0.3,0.8c-1.6,1.7-2.2,3.7-2.2,6
		c0,0.4,0,0.8,0,1.1c0.2,1.1-0.5,1.8-1,2.5c-0.2,0.3-0.6,0.4-1,0.7c-0.1-0.7-0.5-0.7-1-0.5c-0.5,0.3-1,0.5-1.5,0.7
		c0.9-1,2.1-1.7,2.3-3.1c-0.3,0-0.5,0.1-0.9,0.2c0.3-0.3,0.5-0.4,0.8-0.7c-0.4,0-0.6,0-1.1,0.1c0.5-0.5,0.9-1,1.4-1.4
		c0,0,0-0.1-0.1-0.2c-1.4,0.5-2.8,1-4.3,1.6c1.1-1.1,2.3-1.5,3.6-1.5c0.1-0.5,0.1-1,0.2-1.4c-1,0.1-2,0.2-2.9,0.2c0-0.1,0-0.2,0-0.2
		c1.3-0.1,2.7-0.2,4-0.3c0-0.1,0-0.1,0.1-0.2c-0.2-0.1-0.5-0.2-0.7-0.3c0.1-0.2,0.1-0.4,0.2-0.7c0.4-0.1,0.9-0.2,1.4-0.3
		c0-0.1,0-0.2,0-0.2c-0.6,0-1.1-0.1-1.7-0.1c0,0,0-0.1,0-0.1c0.5-0.2,0.9-0.4,1.4-0.6c0-0.1,0-0.1,0-0.2c-1.4-0.3-2.8-0.6-4.1-0.8
		c0,0,0-0.1,0-0.1c1.4,0.1,2.9,0.1,4.3,0.2c0-0.1,0-0.2,0.1-0.3c-0.7-0.2-1.4-0.5-2.1-0.7c0,0,0-0.1,0-0.1c0.5,0,1.1,0.1,1.6,0.1
		c0-0.1,0-0.1,0-0.2c-0.4-0.2-0.8-0.3-1.4-0.6c0.7,0,1.3,0,1.9,0c-0.2-0.4-0.4-0.6-0.6-1c0.6-0.1,1.1-0.2,1.7-0.4
		c-0.5-0.4-1.1-0.7-1.6-1.1c0.3-0.1,0.6-0.2,1.1-0.3C179.9,27.5,179.3,27.2,178.7,26.9C178.7,26.9,178.7,26.9,178.7,26.9z"/>
	<path d="M118.3,121c0.6,0.4,1.1,0.7,1.7,1.1c-0.3,0.1-0.6,0.2-1.1,0.3c0.8,0.4,1.4,0.7,2,0.9c0,0,0,0,0,0.1c-1-0.2-2.1-0.5-3.2-0.7
		c0.6,1.3,1.9,1.3,2.9,1.9c-1.8-0.4-3.6-0.7-5.3-1c0,0.1-0.1,0.2-0.1,0.3c0.9,0.4,1.8,0.8,2.7,1.2c0,0.1,0,0.1-0.1,0.2
		c-0.4-0.1-0.8-0.2-1.3-0.3c-0.2,1.3,1,1.1,1.6,1.5c-0.8,0.2-1.4,0-2.5-0.8c-0.7-0.5-1.3-1-2-1.5c-0.6-0.4-0.6-0.9,0.1-1.2
		c1.7-0.8,2.4-2.2,2.6-4c0-0.3,0.1-0.7,0.3-0.9c1.6-1.7,2.2-3.7,2.2-6c0-0.4,0-0.8,0-1.2c-0.2-1.1,0.6-1.8,1.2-2.6
		c0.2-0.2,0.5-0.3,0.9-0.5c0.1,0.8,0.5,0.7,1,0.4c0.5-0.3,1-0.5,1.5-0.7c-0.9,0.9-2,1.7-2.4,3.1c0.3-0.1,0.5-0.1,0.9-0.2
		c-0.3,0.3-0.5,0.4-0.7,0.7c0.3,0,0.6,0,1,0c-0.5,0.5-0.9,1-1.3,1.4c0,0.1,0,0.1,0.1,0.2c1.4-0.5,2.8-1,4.3-1.6
		c-1.1,1.1-2.3,1.5-3.6,1.5c-0.1,0.5-0.1,0.9-0.2,1.4c1-0.1,2-0.2,2.9-0.2c0,0.1,0,0.2,0,0.2c-1.3,0.1-2.7,0.2-4,0.3
		c0,0.1,0,0.1-0.1,0.2c0.3,0.1,0.5,0.2,0.8,0.3c-0.2,0.2-0.6,0.4-0.1,0.7c-0.6,0.1-1.1,0.3-1.6,0.4c0,0.1,0,0.2,0,0.2
		c0.6,0,1.2,0.1,1.7,0.1c0,0,0,0.1,0,0.1c-0.5,0.2-0.9,0.4-1.4,0.6c0,0.1,0,0.1,0,0.2c1.4,0.3,2.7,0.6,4.1,0.8c0,0,0,0.1,0,0.1
		c-1.4-0.1-2.9-0.1-4.3-0.2c0,0.1,0,0.2-0.1,0.3c0.7,0.2,1.4,0.4,2.1,0.7c0,0,0,0.1,0,0.1c-0.5-0.1-1.1-0.1-1.6-0.2
		c0,0.1,0,0.2,0,0.2c0.4,0.2,0.8,0.3,1.4,0.6c-0.7,0-1.2,0-1.9,0c0.2,0.3,0.4,0.6,0.6,1C119.4,120.8,118.9,120.9,118.3,121z"/>
	<path d="M121.5,53.3c-1.1,1.8-2.6,2.7-4.6,2.7c-2.8,0.1-5.1-0.8-7-2.9c-1.7-1.8-1.9-4.3-0.7-6.3c0.1-0.2,0.2-0.4,0.3-0.7
		c-0.9,0.4-1.5,1.9-1.6,3.9c-1.8-0.9-3.4-3.7-2.5-6.3c0.5,0.4,1,0.8,1.6,1.1c0.8,0.4,1.6,0.7,2.4,0.9c0.4,0.1,0.6,0.2,0.7,0.6
		c0.3,1.8,0.9,3.4,2.1,4.9c1.3,1.6,3,2.5,5.1,2.8C118.7,54.2,120.1,53.8,121.5,53.3z"/>
	<path d="M190.3,104.1c1.1-1.1,1.3-2.5,1.4-4c1.8,1,3.3,3.6,2.5,6.3c-0.5-0.4-1-0.8-1.6-1.1c-0.8-0.4-1.6-0.7-2.4-0.9
		c-0.4-0.1-0.6-0.2-0.7-0.6c-0.3-1.8-0.9-3.4-2.1-4.8c-1.3-1.6-3-2.5-5.1-2.8c-1.5-0.2-2.9,0.2-4.4,0.8c1-1.7,2.3-2.6,4-2.8
		c2.2-0.2,4.3,0.1,6.1,1.4c1.3,0.9,2.3,1.9,2.8,3.4c0.4,1.4,0.3,2.8-0.5,4.2c-0.1,0.2-0.2,0.5-0.4,0.7
		C190.1,104,190.2,104.1,190.3,104.1z"/>
	<path d="M111.6,105.8c0.4-0.3,0.7-0.5,1-0.8c0-0.1-0.1-0.1-0.1-0.2c-0.9,0.3-1.9,0.6-2.8,0.9c0-0.1-0.1-0.1-0.1-0.2
		c0.5-0.3,1-0.6,1.5-0.8c0-0.1-0.1-0.2-0.1-0.2c-1,0.3-2.1,0.6-3.1,0.9c0-0.1-0.1-0.1-0.1-0.2c0.4-0.3,0.9-0.5,1.3-0.8
		c0-0.1-0.1-0.1-0.1-0.2c-0.4,0.1-0.9,0.2-1.3,0.3c-0.5,0.1-0.9,0.1-1.4,0.1c0-0.1,0-0.1,0-0.2c0.7-0.3,1.4-0.5,2.1-0.8
		c0-0.1-0.1-0.2-0.1-0.2c-1.5-0.1-2.9,1.4-4.6,0.1c0.7,0,1.3,0,1.8,0c0-0.1,0-0.2,0-0.3c-1.4-0.2-2.7-0.4-4.2-0.6
		c0.5-1,1.4-0.4,2.1-0.7c-1.3-0.8-2.7-0.5-4-0.7c0.2-0.1,0.5-0.1,0.7-0.2c0-0.1,0-0.1,0-0.2c-0.7-0.2-1.4-0.3-2.2-0.5
		c0-0.1,0-0.2,0.1-0.3c0.9,0.2,1.8,0.4,2.7,0.6c0-0.1,0.1-0.2,0.1-0.3c-1.3-0.8-2.7-1.1-4.2-1.3c0-0.1,0.1-0.1,0.1-0.2
		c0.4,0.1,0.8,0.2,1.4,0.3c-0.1-0.3-0.2-0.4-0.3-0.6c0.5,0.1,0.9,0.1,1.4,0.2c0-0.1,0-0.1,0.1-0.2c-1.3-0.7-2.8-0.6-4.2-1.2
		c0.7-0.1,1.4,0.2,1.8-0.6c-0.7-0.5-1.4-1-2.1-1.5c0,0,0.1-0.1,0.1-0.1c0.4,0.1,0.8,0.2,1.1,0.3c0.1-0.1,0.1-0.2,0.2-0.3
		c-0.2-0.2-0.4-0.3-0.6-0.4c0-0.3,0-0.5,0-0.8c0.9,0.8,1.8,1.6,2.7,2.4c-0.3,0.2-0.4,0.2-0.6,0.3c0,0.1,0.1,0.1,0.1,0.1
		c1.5,0.2,2.1,1.6,3.2,2.5c0.1,0,0,0.2,0,0.3c0,0.1,0.1,0.3,0.1,0.3c1.3,0.1,2.1,1.1,3.1,1.7c1.8,0.9,3.7,1.6,5.7,1.8
		c0.1,0,0.2,0.1,0.4,0.1c-0.3,0.2-0.6,0.4-0.9,0.7c0.2,0.1,0.3,0.1,0.4,0.1c0.7-0.5,1.5-0.1,2.3-0.2c0.2,0,0.3,0.2,0.5,0.3
		c0.4,0.4,1,0.2,1.2-0.2c0.5,0.2,1,0.3,1.5,0.5c-0.4,0.3-0.8,0.6-1.4,0.9c0.1-0.3,0.2-0.5,0.3-0.9
		C113.2,105.3,112.6,106.1,111.6,105.8z"/>
	<path d="M201.4,50.2c-0.9-0.2-1.8-0.4-2.7-0.7c0.4,0.9,1.3,0.8,2,1.1c0.7,0.3,1.4,0.3,2.1,0.5c0,0.1,0,0.1,0,0.2
		c-0.4-0.1-0.9-0.2-1.4-0.3c0.1,0.3,0.2,0.4,0.3,0.6c-0.5-0.1-0.9-0.1-1.4-0.2c0,0.1,0,0.1-0.1,0.2c1.3,0.7,2.8,0.6,4.3,1.2
		c-0.8,0-1.6-0.2-1.9,0.6c0.6,0.5,1.3,1,2,1.5c0,0-0.1,0.1-0.1,0.1c-0.4-0.1-0.8-0.2-1.1-0.3c-0.1,0.1-0.1,0.2-0.2,0.3
		c0.2,0.1,0.4,0.3,0.6,0.4c0,0.3,0,0.6,0,0.9c-0.9-0.8-1.8-1.6-2.7-2.5c0.3-0.2,0.4-0.3,0.7-0.4c-1.7-0.2-2.3-1.6-3.4-2.5
		c-0.1,0,0-0.2,0-0.3c0-0.1-0.1-0.3-0.1-0.3c-0.9,0.1-1.5-0.7-2.1-1.1c-2.1-1.3-4.3-2.1-6.7-2.4c-0.1,0-0.2-0.1-0.3-0.2
		c0.2-0.1,0.4-0.2,0.5-0.3c0.1-0.1,0.3-0.2,0.4-0.2c0,0-0.1-0.1-0.1-0.2c-0.1,0-0.3-0.1-0.3,0c-0.7,0.6-1.5,0-2.2,0.2
		c-0.1,0-0.3-0.2-0.5-0.3c-0.4-0.3-1-0.2-1.1,0.3c-0.5-0.2-1-0.3-1.6-0.5c0.4-0.3,0.9-0.6,1.4-0.9c-0.1,0.3-0.1,0.5-0.3,0.9
		c0.8-0.7,1.4-1.4,2.5-1.2c-0.3,0.3-0.7,0.5-1,0.8c0,0.1,0.1,0.1,0.1,0.2c0.9-0.3,1.9-0.6,2.8-0.8c0,0.1,0,0.1,0.1,0.2
		c-0.5,0.3-1,0.5-1.5,0.8c0,0.1,0.1,0.1,0.1,0.2c1-0.3,2.1-0.6,3.1-0.9c0,0.1,0,0.1,0.1,0.2c-0.4,0.3-0.9,0.5-1.3,0.8
		c0,0.1,0.1,0.1,0.1,0.2c0.9,0,1.8-0.7,2.8-0.2c-0.7,0.3-1.4,0.5-2.1,0.8c0,0.1,0.1,0.2,0.1,0.3c0.3,0,0.5-0.1,0.8-0.1
		c0.5-0.1,1-0.3,1.5-0.4c0.8-0.3,1.5-0.2,2.2,0.4c-0.7,0-1.2,0-1.8,0.1c0,0.1,0,0.2,0,0.3c1.4,0.2,2.8,0.4,4.2,0.6
		c-0.5,1-1.4,0.4-2.2,0.7c1.3,0.7,2.7,0.5,4,0.7c-0.2,0-0.4,0.1-0.6,0.1c0,0,0,0.1,0,0.2c0.7,0.2,1.4,0.4,2.2,0.5
		C201.5,50,201.5,50.1,201.4,50.2z"/>
	<path d="M201.8,98.4c-0.8-0.1-1.6-0.2-2.4-0.2c-0.4,0-0.7,0.1-1.1,0.1c-0.4,0-0.8,0-1.2-0.2c-0.8-0.3-1.4-0.8-2.2-1.2
		c-0.1-0.1-0.3-0.2-0.4-0.3c-0.4-0.9-0.7-1.7-1-2.6C196.3,92.7,200.7,94.7,201.8,98.4z"/>
	<path d="M97.8,51.9c1.3,0,2.6,0,3.9,0c0.2,0,0.3,0,0.4,0.1c0.8,0.4,1.7,0.9,2.5,1.3c0.1,0.1,0.2,0.2,0.3,0.3c0.3,0.8,0.7,1.6,1,2.5
		C103.5,57.6,98.8,55.7,97.8,51.9z"/>
	<path d="M194.7,90.1c2.8-0.9,7.2,0.5,8.4,4.3c-0.3,0-0.6,0.1-0.8,0.1c-0.1,0-0.3,0-0.5,0.1c-1.1,0.4-2.1,0.4-3-0.5
		c-0.3-0.3-0.8-0.4-1.2-0.5c-0.8-0.1-1.2-0.6-1.6-1.2C195.7,91.6,195.2,90.8,194.7,90.1z"/>
	<path d="M104.9,60.2c-2.6,1-7.3-0.5-8.4-4.3c0.2,0,0.5-0.1,0.7-0.1c0.4-0.1,0.9-0.1,1.3-0.2c0.7-0.2,1.2-0.2,1.8,0.3
		c0.5,0.4,1.2,0.7,1.8,0.9c0.6,0.2,1,0.5,1.4,1.1C103.8,58.6,104.3,59.3,104.9,60.2z"/>
	<path d="M212.7,46.6c0-0.2,0.1-0.3,0.1-0.5c0.2,0,0.3,0,0.4,0.1c0.4-0.6-0.3-3.8-1.1-4.5c0.1-0.1,0.2-0.2,0.4-0.4
		c0.1,0,0.2,0,0.3,0c0.5,2.1,1,4.2,1.5,6.3c0.1,0,0.1,0,0.2,0c0.1-0.5,0.1-1,0.1-1.5c0.1,0,0.1,0,0.2,0c0.2,1.4,0.4,2.8,0.6,4.3
		c-0.1,0-0.1,0-0.2,0c-0.2-0.7-0.4-1.4-0.5-2.1c-0.1,0-0.2,0-0.3,0c-0.3,1.3-0.6,2.6-0.8,4c-0.2-1.4-0.4-2.8-0.5-4.1
		c-0.1,0-0.3,0-0.4,0c0.2,2,0.3,4,0.5,5.9c-0.1,0-0.1,0-0.2,0c-0.4-1.5-0.8-2.9-1.2-4.4c-0.1,0-0.2,0-0.3,0.1
		c0.1,0.4,0.1,0.8,0.2,1.2c0.4,1.6,0.8,3.2,1.2,4.8c0,0.1,0,0.3-0.1,0.4c-0.4-1.4-0.7-2.8-1.1-4.2c-0.1-0.5-0.3-0.9-0.4-1.4
		c-0.1-0.3-0.2-0.7-0.7-0.6c-0.1,0-0.2-0.1-0.2-0.2c-0.5-1-0.9-2-0.6-3.2c0.6,0.8,0.4,1.9,1.4,2.5c0-0.2-0.1-0.4-0.1-0.6
		c-0.4-1-0.7-2.1-1.1-3.2c-0.3-0.8,0.2-1.6,1-1.8c0.1,0,0.4,0.2,0.4,0.3c0.3,0.5,0.5,1.1,0.7,1.7c0.2,0.3,0.4,0.6,0.6,1
		C212.6,46.6,212.6,46.6,212.7,46.6z M211.5,48.2c-0.5-1.3-0.9-2.5-1.4-4C209.7,45,210.7,47.7,211.5,48.2z M211,44.2
		c-0.1,0-0.1,0-0.2,0.1c-0.2,0.7,0.8,3.2,1.5,3.6C211.8,46.6,211.4,45.4,211,44.2z"/>
	<path d="M193.8,84.4c5-1.2,7.9,2.9,7.5,6.5c-0.3-0.2-0.6-0.4-1-0.5c-0.9-0.3-1.8-0.6-2.6-0.9c-0.3-0.1-0.6-0.3-0.7-0.6
		c-0.6-1.8-1.6-3.2-3.1-4.3C193.9,84.5,193.8,84.5,193.8,84.4z"/>
	<path d="M98.3,59.5c1,0.4,2.1,0.9,3.2,1.2c0.8,0.2,1.2,0.5,1.4,1.3c0.5,1.5,1.4,2.7,2.7,3.6c0.1,0.1,0.2,0.2,0.3,0.3
		C101.2,67.1,97.9,63.3,98.3,59.5z"/>
	<path d="M207.4,91.1c-1.7-0.4-3.4-0.4-5,0.3c-0.5,0.2-0.6-0.1-0.6-0.5c-0.1-0.8,0-1.6-0.2-2.4c-0.3-1-0.8-1.9-1.3-2.8
		c1.4-0.7,3.1-0.2,4.1,0.9c0.7,0.8,1.5,1.4,1.7,2.5c0,0.1,0.1,0.2,0.2,0.3c0.4,0.5,0.8,1,1.2,1.4C207.5,91,207.5,91.1,207.4,91.1z"
		/>
	<path d="M92.2,59.1c1.7,0.4,3.4,0.4,5.1-0.3c0.5-0.2,0.5,0.1,0.6,0.5c0.1,0.8,0,1.7,0.2,2.5c0.3,1,0.8,1.9,1.2,2.8
		c-1.6,0.6-3.1,0.2-4.3-1.1c-0.6-0.7-1.3-1.3-1.5-2.3c0-0.1-0.2-0.3-0.3-0.4c-0.4-0.5-0.8-1-1.2-1.4C92,59.3,92.1,59.2,92.2,59.1z"
		/>
	<path d="M87,94c0.4,1.4,0.7,2.8,1.1,4.2c0.1,0.4,0.3,0.9,0.4,1.3c0.1,0.3,0.2,0.8,0.7,0.7c0.1,0,0.2,0.1,0.2,0.2
		c0.5,1,0.9,2.1,0.6,3.3c-0.4-0.9-0.7-1.8-1-2.7c-0.1,0-0.2,0.1-0.3,0.1c0,0.2,0,0.4,0.1,0.5c0.3,1.1,0.7,2.1,1.1,3.2
		c0.3,0.9-0.1,1.7-1,1.8c-0.1,0-0.4-0.2-0.4-0.3c-0.3-0.6-0.5-1.1-0.7-1.7c-0.2-0.3-0.4-0.6-0.7-1.1c-0.1,0.4-0.1,0.5-0.2,0.7
		c-0.2-0.1-0.3-0.1-0.6-0.2c0,0.6-0.1,1.2,0,1.7c0.3,1,0.7,2,1,3c0,0-0.1,0.1-0.2,0.3c-0.8-2.2-1.5-4.3-1.6-6.6
		c-0.8,0.4-0.3,1.1-0.6,1.7c-0.2-1.5-0.4-2.8-0.6-4.1c0,0,0.1,0,0.1,0c0.2,0.7,0.4,1.3,0.6,2c0.1,0,0.2,0,0.3,0
		c0.3-1.3,0.5-2.7,0.8-4.1c0.2,1.4,0.4,2.8,0.5,4.2c0.1,0,0.3,0,0.4,0c-0.2-2-0.3-3.9-0.5-5.9c0.1,0,0.1,0,0.2-0.1
		c0.4,1.5,0.8,2.9,1.2,4.4c0.1,0,0.2,0,0.3-0.1c0-0.4,0-0.8-0.1-1.1c-0.4-1.6-0.8-3.3-1.2-4.9c0-0.1,0-0.2,0-0.3
		C86.9,94,86.9,94,87,94z M89.5,106c0.4-0.7-0.7-3.6-1.5-4.1C88.5,103.3,89,104.6,89.5,106z M87.3,102.3c0.5,1.4,0.9,2.6,1.3,3.7
		C89,105.3,88.1,102.8,87.3,102.3z"/>
	<path d="M199.7,110.9c-1.1-1.2-2.5-1.8-4-2.2c-0.9-0.2-1.3-0.9-1.1-2.1c0.1-1,0.3-2.1,0.4-3.2c0.9-0.1,1.7,0.3,2.5,0.9
		c0.3,0.3,0.6,0.6,0.9,0.9c0.6,0.6,0.5,1-0.2,1.4c-0.4,0.3-0.9,0.5-0.9,1.4c0.6-0.4,1.2-0.7,1.6-1c0.6-0.4,0.7-0.4,0.9,0.3
		C200.2,108.5,200.3,109.7,199.7,110.9z"/>
	<path d="M102.2,42.3c-0.5,0.3-1,0.6-1.5,0.9c-0.6,0.4-0.7,0.3-0.9-0.3c-0.4-1.2-0.5-2.3,0.1-3.6c1.2,1.3,2.7,1.8,4.2,2.3
		c0.7,0.2,1,0.9,0.9,2c-0.1,1-0.3,2.1-0.4,3.2c-0.9,0.1-1.7-0.3-2.5-0.9c-0.3-0.3-0.6-0.6-0.9-0.9c-0.5-0.6-0.4-0.9,0.2-1.3
		c0.4-0.3,0.8-0.6,1.1-1C102.4,42.5,102.3,42.4,102.2,42.3z"/>
	<path d="M104.5,60.8c1-0.1,1.7,0.2,2.5,0.7c0.6,0.4,1.3,0.6,1.9,0.8c0.4,0.2,0.7,0.4,0.6,0.8c-0.2,1-0.4,2-0.7,3
		c0,0.1-0.4,0.3-0.6,0.3c-2.3-0.8-4-2.4-4.9-4.7c-0.3-0.7-0.2-0.9,0.6-1C104.1,60.8,104.4,60.8,104.5,60.8z"/>
	<path d="M195.1,89.5c-1,0.1-1.8-0.2-2.5-0.8c-0.6-0.4-1.2-0.6-1.9-0.8c-0.4-0.2-0.7-0.4-0.6-0.8c0.2-1,0.4-2,0.7-3
		c0-0.1,0.4-0.3,0.6-0.3c2.3,0.8,3.9,2.3,4.9,4.6c0.3,0.8,0.2,1-0.7,1.1C195.4,89.5,195.1,89.5,195.1,89.5z"/>
	<path d="M196,93c-1,0.2-1.9,0.4-2.7,0.6c-0.1,0-0.2,0-0.3,0c-0.8-0.3-1.7-0.6-2.3-1.1c-0.6-0.5-1.3-1.2-1.5-2
		c-0.1-0.7,0.4-1.5,0.7-2.3c0-0.1,0.3-0.1,0.4-0.1C192.9,88.9,194.7,90.6,196,93z"/>
	<path d="M103.6,57.2c1-0.2,1.8-0.5,2.6-0.6c0.3,0,0.6,0.2,0.9,0.3c0.5,0.2,0.9,0.3,1.4,0.6c0.4,0.2,0.8,0.5,1.1,0.8
		c0.3,0.3,0.6,0.7,0.8,1.1c0.1,0.2,0.2,0.5,0.1,0.8c0,0.3-0.2,0.6-0.3,0.8c-0.5,1.2-0.5,1.3-1.7,0.8
		C106.3,60.9,104.7,59.4,103.6,57.2z"/>
	<path d="M104.7,52.7c-2.9-0.3-4.8-4.9-3.8-7.2c0.6,0.4,1.3,0.8,1.9,1.2c0.4,0.2,1,0.4,1.4,0.4c0.7,0.1,1.4,0.8,1.1,1.5
		c-0.6,1.3-0.7,2.6-0.7,3.9C104.7,52.6,104.7,52.6,104.7,52.7z"/>
	<path d="M198.7,104.7c-0.9-0.5-1.8-1-2.7-1.5c-0.2-0.1-0.4-0.1-0.6-0.1c-1,0-1.4-0.7-1.2-1.7c0.4-1.2,0.5-2.5,0.8-3.8
		C197.7,97.7,199.7,102.3,198.7,104.7z"/>
	<path d="M105.8,48.8c1.1,1.1,2.4,1.8,2.9,3.3c0.1,0.3,0.1,0.7,0.1,1.1c0,1.3,0,2.6,0,3.9c-1.5-0.2-2.4-1.1-3-2.4
		C105,52.8,104.9,50.9,105.8,48.8z"/>
	<path d="M190.8,93.1c1.5,0.2,2.4,1.2,3,2.4c0.8,1.9,0.9,3.8,0.1,5.8c-1.1-1-2.4-1.8-2.9-3.3c-0.1-0.3-0.1-0.6-0.1-0.9
		C190.8,95.9,190.8,94.5,190.8,93.1z"/>
	<path d="M208.6,85c-0.5,0.1-1,0.2-1.5,0.3c-0.3,0.1-0.6,0.1-0.9,0.3c-0.6,0.4-1.3,0.7-2,0.2c-0.6-0.4-1.2-0.8-1.6-1.3
		c-0.5-0.6-0.9-1.3-1.4-2C203.6,80.9,207.2,82.7,208.6,85z"/>
	<path d="M98.3,67.8c-2.7,1.5-6.1-0.5-7.4-2.6c0.5-0.1,0.9-0.2,1.4-0.3c0.3-0.1,0.7-0.1,1-0.3c0.7-0.4,1.3-0.7,2-0.2
		c0.6,0.4,1.2,0.8,1.6,1.3C97.5,66.4,97.9,67.1,98.3,67.8z"/>
	<path d="M101.8,51.5c-1.1,0-2.2,0.1-3.1,0c-0.7-0.1-1.3-0.5-1.8-0.9c-0.2-0.1-0.3-0.6-0.1-0.8c1.2-1.8,2.4-3.5,3.7-5.3
		c0.1,0,0.2,0,0.2,0c0,0.4,0,0.9-0.1,1.3c-0.4,1.9,0,3.6,1,5.2C101.6,51,101.6,51.2,101.8,51.5z"/>
	<path d="M197.9,98.8c1.5-0.3,2.9-0.4,4.3,0.4c0.3,0.1,0.6,0.3,0.7,0.5s0.2,0.7,0.1,0.8c-1.2,1.7-2.4,3.4-3.6,5.2c0,0-0.1,0-0.3,0.1
		c0.1-0.5,0.1-0.9,0.1-1.4c0.4-1.9,0-3.6-1.1-5.2C198,99.2,197.9,99.1,197.9,98.8z"/>
	<path d="M199.7,106.5c1.4-1,2.9-1.8,4.6-2.2c0.8-0.2,1.5-0.2,2.1,0.5c0.3,0.4,0.4,0.8,0.1,1.2c-0.6,0.7-1.1,1.4-1.7,2.2
		c-0.3,0.4-0.6,0.4-1,0.1c-0.8-0.7-1.8-1-2.9-1.2c-0.4-0.1-0.9-0.3-1.3-0.4C199.7,106.6,199.7,106.6,199.7,106.5z"/>
	<path d="M99.9,43.8c-1.4,1-2.9,1.8-4.6,2.2c-0.8,0.2-1.5,0.2-2.1-0.5c-0.3-0.4-0.4-0.8-0.1-1.2c0.5-0.7,1.1-1.5,1.7-2.2
		c0.3-0.4,0.6-0.4,1-0.1c0.8,0.7,1.8,1,2.9,1.2c0.4,0.1,0.8,0.3,1.3,0.4C99.9,43.6,99.9,43.7,99.9,43.8z"/>
	<path d="M103.7,41c-1.5-0.1-3.9-2-4.2-3.5c-0.1-0.2,0.1-0.4,0.1-0.6c0,0,0.1-0.1,0.1-0.1c1.1-1.2,1.1-1.2,2.6-0.5
		c0.9,0.4,1.7,0.8,1.8,2c0,0.7,0.1,1.4,0.2,2.1C104.4,41,104.2,41.1,103.7,41z"/>
	<path d="M198.6,114.5c-0.9,0-3-1.5-3.1-2.2c-0.1-0.7-0.1-1.4-0.2-2.1c0-0.1,0-0.2-0.1-0.3c-0.1-0.6,0-0.8,0.6-0.7
		c1.2,0.3,2.3,0.9,3.1,1.8c0.4,0.4,0.6,0.9,0.9,1.4c0.3,0.4,0.2,0.8-0.2,1.1c-0.3,0.2-0.5,0.5-0.8,0.8
		C198.9,114.4,198.7,114.5,198.6,114.5z"/>
	<path d="M197.6,36.1c-0.2,0.4-0.4,0.7-0.5,1c-0.7,1.3-1,1.3-2.4,1c-0.3-0.1-0.6-0.2-0.9-0.2c-0.8-0.2-1.1-0.4-1-1.2
		c0.1-1,0.3-2.1,0.9-3c0.4-0.6,0.7-0.7,1.2-0.2C195.9,34.4,196.7,35.3,197.6,36.1z"/>
	<path d="M101.9,114.1c0.2-0.4,0.4-0.7,0.6-1.1c0.7-1.3,1.1-1.2,2.3-1c0.3,0.1,0.6,0.2,0.9,0.2c0.9,0.2,1.1,0.5,1,1.4
		c-0.1,1-0.3,1.9-0.9,2.8c-0.3,0.5-0.7,0.6-1.2,0.2C103.7,115.8,102.9,115,101.9,114.1z"/>
	<path d="M93.3,54.7c1.3,0.6,2.7,0.8,3.3,2.3c0.5,1.4,0.6,1.2-0.7,1.7c-1.4,0.5-2.7,0.1-4-0.3c-0.4-0.1-0.5-0.4-0.3-0.8
		c0.4-0.8,0.8-1.7,1.3-2.5C92.9,54.9,93.1,54.8,93.3,54.7z"/>
	<path d="M206.3,95.5c-1.3-0.6-2.7-0.8-3.3-2.3c-0.5-1.4-0.6-1.2,0.8-1.7c1.4-0.5,2.7-0.1,4,0.3c0.2,0.1,0.4,0.5,0.3,0.7
		c-0.4,0.9-0.8,1.7-1.3,2.6C206.7,95.3,206.4,95.4,206.3,95.5z"/>
	<path d="M189.1,30.9c0.4,1.1,0.9,2.1,1.1,3.1c0.2,0.9-0.6,1.5-1.2,2.1c-0.6,0.5-1.4,1-2,1.5C185.7,36.4,186.9,31.7,189.1,30.9z"/>
	<path d="M110.5,119.4c-0.3-0.7-0.5-1.5-0.8-2.2c-0.4-1.2-0.1-2.2,0.9-2.9c0.3-0.3,0.7-0.5,1.1-0.8c0.3-0.3,0.7-0.6,1-0.8
		C113.9,114,112.6,118.7,110.5,119.4z"/>
	<path d="M98.7,54.9c-1,0.5-2,0.4-3,0.3c-0.7-0.1-1.3-0.4-1.9-0.7c-0.4-0.2-0.5-0.5-0.3-0.8c0.6-0.9,1.3-1.8,2-2.7
		c0.3-0.5,0.7-0.4,1,0c0.2,0.3,0.4,0.5,0.6,0.7C97.7,52.8,98.2,53.8,98.7,54.9z"/>
	<path d="M200.8,95.4c1-0.6,2-0.4,3-0.3c0.6,0.1,1.3,0.4,1.9,0.7c0.4,0.1,0.5,0.5,0.3,0.8c-0.6,0.9-1.3,1.8-2,2.7
		c-0.3,0.4-0.7,0.5-1,0c-0.4-0.6-0.8-1.2-1.1-1.8C201.5,96.8,201.2,96.1,200.8,95.4z"/>
	<path d="M102.6,66.7c1.1-0.2,2.1-0.4,3.2-0.4c0.8,0,1.5,0.4,2.2,0.7c0.1,0,0.1,0.4,0,0.5c-0.6,0.9-1.2,1.8-1.8,2.6
		c-0.3,0.4-0.5,0.4-0.9,0.2C104.2,69.6,103,68,102.6,66.7z"/>
	<path d="M197.1,83.6c-1.2,0.2-2.2,0.4-3.3,0.4c-0.7,0-1.4-0.4-2.1-0.7c-0.1,0-0.1-0.4,0-0.5c0.6-0.9,1.2-1.8,1.8-2.8
		c0.2-0.3,0.5-0.3,0.8-0.1C195.6,80.8,196.3,82.2,197.1,83.6z"/>
	<path d="M94.1,63.6c-1.4,1-3,0.7-4.5,0.9c-0.3-1,0.5-3.7,1.2-4.1c0.1-0.5,0.1-1,0.2-1.5c0-0.1,0.2-0.2,0.3-0.3
		c0.1,0.1,0.3,0.3,0.3,0.4c-0.2,0.9,0.4,1.5,0.9,2.1C93,61.9,93.5,62.8,94.1,63.6z"/>
	<path d="M205.5,86.6c1.4-1,3-0.7,4.7-0.9c-0.4,1.5-0.4,3-1.4,4.2c0,0.4-0.1,0.9-0.1,1.4c0,0.1-0.2,0.2-0.4,0.3
		c-0.1-0.1-0.3-0.3-0.3-0.3c0.2-1-0.4-1.5-0.9-2.2C206.5,88.3,206,87.4,205.5,86.6z"/>
	<path d="M115.5,115.1c0.8,2.9,0.3,6.3-1.9,7.2c0-0.3,0-0.6,0-0.9c0.1-1.2-0.2-2.4-0.6-3.6c-0.3-0.9-0.2-1.1,0.6-1.6
		C114.3,115.9,114.9,115.5,115.5,115.1z"/>
	<path d="M184,35.2c-0.8-2.9-0.3-6.5,1.8-7.1c0.1,1.1,0.3,2.3,0.4,3.4c0.1,0.7,0.5,1.4,0.3,2c-0.2,0.5-1,0.8-1.6,1.2
		C184.7,34.7,184.4,34.9,184,35.2z"/>
	<path d="M188.8,91c1.5,1.7,1.9,3.7,1.6,5.9c-0.6-0.4-1.2-0.8-1.7-1.2c-1-0.6-2.1-1.1-3.1-1.7c-0.1-0.1-0.3-0.2-0.4-0.3
		c0.1-0.1,0.2-0.2,0.3-0.2C187.3,93.6,188,92.3,188.8,91z"/>
	<path d="M110.8,59.2c-1.3-1.3-2-3.4-1.7-5.9c0.6,0.4,1.2,0.8,1.8,1.2c1,0.6,2.1,1.1,3.1,1.7c0.1,0.1,0.2,0.2,0.3,0.3
		c-0.1,0.1-0.2,0.3-0.3,0.2c-1.6-0.1-2.3,1-3,2.1C110.9,59,110.9,59.1,110.8,59.2z"/>
	<path d="M202.3,84.8c-3.3,1.3-5.1-0.9-5.8-3.4C198.9,80.7,201.5,82.8,202.3,84.8z"/>
	<path d="M97.2,65.4c1.3-0.2,2.4-0.7,3.7,0.2c1.2,0.8,1.7,2.1,2.3,3.3C100.7,69.5,98.3,67.7,97.2,65.4z"/>
	<path d="M90.7,73.3c0.9-0.4,1.8-0.9,2.8-1.3c0.8-0.3,1.6,0.1,2.1,0.9c0.4,0.7,0.8,1.3,1.1,2C95.2,75.8,92.2,75.3,90.7,73.3z"/>
	<path d="M208.9,77c-0.9,0.4-1.8,0.9-2.7,1.3c-0.7,0.3-1.5,0.1-2-0.6c-0.5-0.7-0.9-1.5-1.3-2.2C204.1,74.5,207.3,74.8,208.9,77z"/>
	<path d="M206.5,78.7c1.4-1,2.9-1.4,4.5-1c0.4,0.1,0.5,0.4,0.5,0.8c-0.1,0.7-0.2,1.4-0.3,2.2c0,0.4-0.3,0.6-0.6,0.5
		c-0.1,0-0.1-0.1-0.2-0.1C208.5,81.3,207.7,79.8,206.5,78.7z"/>
	<path d="M93.1,71.6c-1.4,0.9-2.9,1.4-4.5,1c-0.5-0.1-0.6-0.4-0.5-0.8c0.1-0.7,0.2-1.4,0.2-2.1c0-0.5,0.3-0.6,0.7-0.6
		c0,0,0.1,0.1,0.1,0.1C91.1,68.9,91.9,70.5,93.1,71.6z"/>
	<path d="M187.5,43.7c0.2-0.4,0.3-0.7,0.6-1c1.1-1.2,2.5-1.9,4.2-1.7c0.3,0,0.8,0.2,0.9,0.4c0.1,0.3-0.1,0.8-0.3,1.1
		c-0.5,0.6-1,1.1-1.6,1.7c-0.1,0.1-0.4,0.2-0.6,0.2C189.7,44.2,188.6,44,187.5,43.7z"/>
	<path d="M112.1,106.5c-0.2,0.4-0.3,0.7-0.5,0.9c-1.1,1.3-2.5,1.9-4.3,1.8c-0.9-0.1-1.2-0.7-0.7-1.4c0.5-0.6,1.1-1.2,1.7-1.8
		c0.1-0.1,0.4-0.2,0.6-0.1C109.9,106.1,110.9,106.3,112.1,106.5z"/>
	<path d="M113.4,115.9c-0.1-1,0-2.1-0.3-3c-0.3-0.9-0.1-1.4,0.7-1.8c0.6-0.4,1.2-0.8,1.7-1.2C116.7,111.6,115.4,115.7,113.4,115.9z"
		/>
	<path d="M186,34.4c0.2,1.3,0.4,2.5,0.6,3.8c0,0.2-0.1,0.4-0.3,0.6c-0.8,0.6-1.5,1.1-2.3,1.7C182.9,38.1,184,35,186,34.4z"/>
	<path d="M198.4,78.2c1.3-0.4,2.5,0.1,3.5,1c0.5,0.5,0.9,1.1,1.3,1.7c0.2,0.3,0.1,0.5-0.2,0.6c-0.6,0.2-1.3,0.4-1.9,0.6
		c-0.4,0.1-1.4-0.6-1.6-1.2C199.1,80,198.7,79.1,198.4,78.2z"/>
	<path d="M101.2,72.1c-1.3,0.4-2.5-0.1-3.5-1c-0.5-0.5-0.9-1.1-1.3-1.7c-0.2-0.3-0.1-0.5,0.2-0.6c0.6-0.2,1.3-0.4,1.9-0.5
		c0.4-0.1,1.4,0.6,1.6,1.2C100.5,70.3,100.8,71.1,101.2,72.1z"/>
	<path d="M181.4,39.7c-0.9-1.5,0.3-5.9,1.8-6.9c0.1,0.6,0.3,1.2,0.3,1.7c0.1,0.9,0.1,1.8,0,2.7C183.4,38.5,183.1,38.7,181.4,39.7z"
		/>
	<path d="M116.4,117.4c-0.1-0.6-0.3-1.2-0.3-1.7c-0.1-0.9-0.1-1.8,0-2.7c0.1-1.2,1-1.9,2.1-2.4C119.2,111.7,118,116.4,116.4,117.4z"
		/>
	<path d="M207.9,80.9c-3.3,1.8-4.1,0.7-5.7-2.1C203.9,77.8,206.9,79,207.9,80.9z"/>
	<path d="M99.4,78.5c-1.7,0.9-4.9-0.9-5.2-2.6c1-0.2,2-0.4,3-0.6c0.6-0.1,1,0.2,1.3,0.8C98.7,76.8,99,77.7,99.4,78.5z"/>
	<path d="M205.4,74.4c-0.9,0.2-1.9,0.4-2.9,0.6c-0.6,0.1-1.1-0.2-1.3-0.8c-0.3-0.8-0.7-1.6-1-2.4C201.9,70.8,205.2,72.8,205.4,74.4z
		"/>
	<path d="M91.7,69.4c3.3-1.8,4.2-0.4,5.7,2.1C95.6,72.4,92.6,71.2,91.7,69.4z"/>
	<path d="M104,73.4c-1.5-0.9-3.4-2.6-3.5-4c0.9,0,1.8-0.1,2.7,0c0.4,0,0.8,0.3,1.1,0.5c0.4,0.3,0.8,0.7,1.2,1.1
		C105,71.8,104.5,72.7,104,73.4z"/>
	<path d="M199.1,80.8c-0.8,0-1.4,0-2.1,0c-0.7,0-1.3-0.1-1.8-0.7c-0.3-0.3-0.7-0.7-1.1-1c0.5-0.8,1-1.5,1.5-2.4
		C197.1,77.9,198.7,78.9,199.1,80.8z"/>
	<path d="M200.6,112.8c-0.5-0.7-0.6-1.3-0.4-2.1c0.2-0.8,0.2-1.6,0.3-2.4c0.1-0.4,0.1-0.7,0.7-0.6c0.9,0.1,1.6,0.5,2.4,1
		c0.3,0.2,0.4,0.5,0.1,0.8C202.7,110.5,201.7,111.6,200.6,112.8z"/>
	<path d="M98.9,37.5c0.5,0.7,0.6,1.3,0.4,2.1c-0.2,0.8-0.3,1.6-0.3,2.4c0,0.5-0.1,0.8-0.8,0.7c-0.9-0.1-1.7-0.5-2.3-1
		c-0.2-0.1-0.2-0.6-0.1-0.7C96.8,39.7,97.9,38.7,98.9,37.5z"/>
	<path d="M202.6,45.6c-0.2,0-0.3,0-0.5,0c-1.1,0-1.3-0.2-1-1.2c0.2-0.8,0.7-1.6,1.1-2.4c0.4-0.6,0.8-0.5,1.3,0
		c0.5,0.5,1,1.1,1.4,1.7c0.1,0.1,0.1,0.4,0,0.5c-0.3,0.4-0.6,0.8-0.9,1.1s-0.9,0.3-1.4,0.4C202.6,45.7,202.6,45.7,202.6,45.6z"/>
	<path d="M96.8,104.6c1.8,0,2,0.2,1.5,1.8c-0.2,0.7-0.6,1.3-1,1.8c-0.3,0.5-0.8,0.5-1.2,0c-0.5-0.6-1-1.2-1.5-1.8
		c-0.1-0.1-0.1-0.4,0-0.5C95.2,105.3,95.7,104.2,96.8,104.6z"/>
	<path d="M103.6,74.3c-0.2,0.6-0.5,1.3-0.8,1.9c-0.1,0.2-0.6,0.3-0.7,0.2c-1.4-0.7-2.2-1.8-2.6-3.3c-0.1-0.4,0.3-0.7,0.8-0.6
		c0.2,0,0.4,0.1,0.6,0.1c1-0.2,2.3,0.4,2.7,1.3C103.6,74,103.6,74.1,103.6,74.3z"/>
	<path d="M200.1,77.4c-0.2,0.1-0.5,0.2-0.8,0.3c-0.2,0-0.4-0.1-0.5-0.1c-1.3,0.5-1.9-0.6-2.7-1.2c-0.1-0.1-0.1-0.2-0.1-0.3
		c0.3-0.8,0.6-1.5,0.9-2.3c0-0.1,0.3-0.2,0.5-0.1C198.2,73.9,200.1,76.3,200.1,77.4z"/>
	<path d="M110.3,113.7c-0.3-2.3-0.4-4.6,1.7-6.2C113.7,108.7,112.6,113,110.3,113.7z"/>
	<path d="M187.5,42.7c-1.6-1.3-0.4-5.4,1.8-6.2C189.6,38.9,189.6,41.1,187.5,42.7z"/>
	<path d="M193.1,33.8c-0.5,1.2-0.9,2.4-0.8,3.7c0,0.1-0.2,0.4-0.3,0.5c-0.7,0.3-1.4,0.5-2.1,0.8C189,36.2,190.7,33.5,193.1,33.8z"/>
	<path d="M106.5,116.4c0.5-1.2,0.9-2.4,0.8-3.7c0-0.2,0.2-0.4,0.4-0.5c0.7-0.3,1.3-0.5,2-0.7C110.6,113.9,108.9,116.8,106.5,116.4z"
		/>
	<path d="M103.4,106.1c0.6-0.1,0.7,0.3,0.7,0.7c-0.2,1.7-1.1,2.9-2.8,3.3c-0.3,0.1-0.6,0-0.6-0.6c0.1-0.5-0.1-1.1-0.2-1.7
		c-0.2-0.9,0.2-1.3,1.1-1.4C102.2,106.3,102.8,106.2,103.4,106.1z"/>
	<path d="M196.3,44.1c-0.7,0.1-0.8-0.3-0.8-0.8c0.1-1.6,1.2-2.8,2.7-3.1c0.5-0.1,0.7-0.1,0.6,0.6c-0.1,0.5,0.1,1.1,0.2,1.7
		c0.1,0.8-0.2,1.3-1,1.4C197.5,43.9,196.9,44,196.3,44.1z"/>
	<path d="M186.8,32.2c-0.6-1.8-0.9-3.5-0.1-5.3c0.9,0.7,1.7,1.3,2.4,1.9c0.6,0.5,0.6,0.9,0,1.5C188.5,30.9,187.7,31.5,186.8,32.2z"
		/>
	<path d="M112.7,118.1c0.6,1.8,0.9,3.4,0.1,5.3c-0.9-0.7-1.7-1.4-2.5-2c-0.5-0.5-0.5-0.9,0-1.3C111,119.4,111.9,118.8,112.7,118.1z"
		/>
	<path d="M206,82.1c1.5-0.8,2.8-1,4.3-0.6c0.4,0.1,0.7,0.4,0.6,0.8c-0.1,0.8-0.3,1.6-0.4,2.3c0,0.1-0.3,0.3-0.4,0.3
		c-0.6-0.2-1.2-0.4-1.5-1.1c-0.1-0.3-0.4-0.5-0.7-0.7C207.3,82.8,206.7,82.5,206,82.1z"/>
	<path d="M93.5,68.1c-1.5,0.8-2.9,1.1-4.3,0.6c-0.3-0.1-0.5-0.5-0.5-0.8c0-0.8,0.2-1.5,0.4-2.3c0-0.2,0.4-0.4,0.4-0.3
		c0.6,0.3,1.2,0.4,1.5,1.1c0.1,0.2,0.3,0.5,0.5,0.6C92.1,67.4,92.8,67.7,93.5,68.1z"/>
	<path d="M206.5,48.9c-0.8-0.2-1.5-0.4-2.1-0.6c-0.2-0.1-0.5-0.5-0.4-0.7c0.2-0.8,0.4-1.7,0.8-2.5c0.3-0.6,0.8-0.6,1.2-0.1
		c0.7,0.9,1.3,1.8,1.9,2.7c0.1,0.1,0.1,0.3,0,0.4C207.4,48.4,206.9,48.7,206.5,48.9z"/>
	<path d="M95.8,102.7c-0.4,0.9-0.7,1.8-1.1,2.6c-0.2,0.4-0.6,0.5-0.9,0c-0.7-0.9-1.3-1.9-2-2.8c-0.1-0.1-0.1-0.3,0-0.4
		c0.1-0.3,1.3-0.7,1.6-0.7c0.5,0.2,1.1,0.3,1.6,0.5C95.3,102.1,95.5,102.4,95.8,102.7z"/>
	<path d="M112.5,106.9c0.8-0.5,1.5-0.2,2.2-0.3c0.4,0,0.8,0.1,1.2,0.1c0.5,0,0.6,0.3,0.5,0.6c-0.7,1.6-1.6,2.9-3.3,3.8
		C113.4,109.6,113.2,108.2,112.5,106.9z"/>
	<path d="M186.5,39.1c-0.1,0.5-0.2,0.8-0.1,1.1c0.1,0.9,0.3,1.8,0.6,2.7c0.1,0.5,0,0.7-0.4,0.7c-1,0-2-0.1-3-0.2
		c-0.1,0-0.4-0.4-0.3-0.5C183.8,41.4,184.8,40.1,186.5,39.1z"/>
	<path d="M101.1,102.8c-0.7,0.9-1.7,1.3-2.7,1.4c-0.6,0.1-1.3,0-2,0c-0.2,0-0.4-0.2-0.4-0.4c-0.1-0.3,0-0.6,0-0.9
		c0-0.7,0.3-0.9,1-0.9c0.4,0,0.8-0.3,1.2-0.3c0.3-0.1,0.7-0.2,1-0.1C99.8,101.9,100.4,102.3,101.1,102.8z"/>
	<path d="M198.5,47.5c0.7-0.9,1.6-1.2,2.6-1.4c0.6-0.1,1.3,0,2,0c0.1,0,0.4,0.2,0.4,0.4c0.1,0.3,0.1,0.5,0.1,0.8c0,0.9-0.2,0.9-1,1
		c-0.4,0-0.8,0.3-1.1,0.4c-0.3,0.1-0.8,0.2-1,0C199.8,48.3,199.2,47.9,198.5,47.5z"/>
	<path d="M179.7,43.5c0.4-2,1.6-3.4,3.4-4.5c0.3,1,0.8,2,0,2.9c-0.1,0.2-0.1,0.5-0.3,0.7c-0.3,0.3-0.6,0.7-0.9,0.8
		C181.2,43.6,180.5,43.5,179.7,43.5z"/>
	<path d="M119.8,106.7c-0.4,2-1.6,3.4-3.4,4.4c-0.3-1-0.8-2,0-3c0.1-0.2,0.1-0.5,0.2-0.6c0.3-0.3,0.6-0.7,0.9-0.8
		C118.3,106.6,119.1,106.7,119.8,106.7z"/>
	<path d="M194,33.1c-1,0.2-2.1,0.5-3.1,0.7c-0.1,0-0.4-0.2-0.5-0.4c-0.3-0.7-0.6-1.4-0.7-2.1c-0.1-0.6,0.2-1.1,0.4-2
		c1.4,1.2,2.6,2.3,3.9,3.4C194,32.9,194,33,194,33.1z"/>
	<path d="M105.6,117.1c1-0.2,2.1-0.5,3.1-0.7c0.1,0,0.4,0.2,0.5,0.4c0.3,0.7,0.6,1.4,0.7,2.1c0.1,0.6-0.2,1.2-0.4,2
		c-1.4-1.2-2.7-2.3-3.9-3.4C105.6,117.3,105.6,117.2,105.6,117.1z"/>
	<path d="M195,38.6c-0.5,0.7-0.9,1.2-1.4,1.8c-0.1,0.2-0.4,0.2-0.7,0.3c-1.2,0.1-2.3,0.2-3.5,0.3c-0.1-0.9,0.5-1.6,1.3-2.1
		C192,38.1,193.5,38,195,38.6z"/>
	<path d="M110.1,109.1c0.3,2.3-3.1,3.6-5.5,2.6c0.5-0.7,1-1.3,1.6-1.9c0.1-0.1,0.2-0.1,0.3-0.1C107.7,109.7,108.9,109.6,110.1,109.1
		z"/>
	<path d="M98.2,101.1c-1.5,0.7-2.9,0.6-4.4,0.1c-0.5-0.2-0.7-0.4-0.4-0.9c0.3-0.6,0.2-1.3,1-1.6c0.5-0.2,1-0.2,1.4,0.2
		C96.6,99.6,97.4,100.3,98.2,101.1z"/>
	<path d="M201.3,49.2c1.6-0.8,3.1-0.7,4.6,0c0.1,0,0.2,0.2,0.3,0.3c0.1,0.5-0.6,1.9-1.1,2.2c-0.5,0.2-0.9,0.2-1.3-0.2
		C203,50.7,202.2,50,201.3,49.2z"/>
	<path d="M92.3,78.7c-1.1,0.9-2.3,1.2-3.6,1.1c-0.2,0-0.4-0.3-0.5-0.6c-0.1-0.6-0.2-1.2-0.2-1.8c0-0.3,0.2-0.9,0.3-0.9
		c0.5,0,1,0,1.3,0.2c0.4,0.2,0.7,0.6,1.1,0.9C91.3,78,91.8,78.3,92.3,78.7z"/>
	<path d="M207.2,71.5c1.1-0.9,2.4-1.2,3.7-1.1c0.2,0,0.4,0.4,0.4,0.6c0.1,0.6,0.1,1.2,0.1,1.8c0,0.3-0.1,1-0.3,1
		c-0.5,0-1-0.1-1.4-0.3c-0.4-0.2-0.8-0.7-1.2-1C208.2,72.2,207.8,71.9,207.2,71.5z"/>
	<path d="M95.1,78.1C93,78.7,91.4,78,90,76.3c0.4-0.3,0.8-0.5,1.3-0.8c0.9-0.6,1.9-0.4,2.5,0.5C94.2,76.7,94.6,77.4,95.1,78.1z"/>
	<path d="M204.5,72.2c1.8-0.7,4.2,0.3,5.1,1.8c-0.4,0.3-0.8,0.5-1.2,0.8c-0.9,0.7-1.7,0.3-2.3-0.4C205.4,73.7,205,72.9,204.5,72.2z"
		/>
	<path d="M199.4,74.6c1.3,0,2.3,0.5,3.2,1.3c0.4,0.4,0.8,1,1.1,1.5c0.2,0.4,0.1,0.7-0.4,0.7c-0.5,0-0.9,0.1-1.4,0.2
		c-0.7,0.1-1.1-0.1-1.4-0.8C200.1,76.5,199.8,75.6,199.4,74.6z"/>
	<path d="M100.2,75.7c-1.3,0-2.3-0.5-3.2-1.3c-0.4-0.4-0.8-1-1.1-1.5c-0.2-0.4-0.1-0.7,0.4-0.7c0.5,0,1-0.1,1.5-0.2
		c0.6-0.1,1,0.1,1.3,0.8C99.4,73.7,99.8,74.7,100.2,75.7z"/>
	<path d="M89,80.3c0.5,0.1,1,0,1.4,0.2c0.6,0.3,1.1,0.8,1.6,1.2c0.1,0.1,0.1,0.5,0,0.6c-0.9,0.5-1.8,1-2.7,1.5
		c-0.1,0-0.4-0.3-0.5-0.4c-0.2-0.8-0.3-1.6-0.4-2.4C88.3,80.5,88.5,80.3,89,80.3z"/>
	<path d="M210.7,69.9c-0.4,0-0.9,0.1-1.2,0c-0.7-0.3-1.3-0.8-1.9-1.3c-0.1-0.1,0-0.6,0.1-0.6c0.8-0.5,1.7-1,2.5-1.4
		c0.1-0.1,0.5,0.2,0.6,0.4c0.2,0.8,0.3,1.7,0.4,2.5c0,0.2-0.2,0.4-0.4,0.6C210.8,70,210.7,69.9,210.7,69.9z"/>
	<path d="M209,66.3c-0.7,0.7-1.3,1.3-2,1.9c-0.3,0.3-0.5,0.3-0.9,0c-0.6-0.7-1.2-1.3-1.8-1.9C204.8,65.1,207.3,65,209,66.3z"/>
	<path d="M90.6,84c0.7-0.7,1.4-1.3,2.1-2c0.1-0.1,0.5-0.1,0.7,0.1c0.7,0.6,1.3,1.3,1.9,1.9C94.7,85.2,92.2,85.2,90.6,84z"/>
	<path d="M206.4,65.1c-0.6-0.6-1.3-1.1-1.9-1.7c-0.1-0.1-0.1-0.4,0-0.6c0.3-0.5,0.7-1,1.1-1.4c0.2-0.2,0.8-0.4,0.9-0.3
		c0.5,0.3,0.9,0.8,1.3,1.2c0,0,0,0.2-0.1,0.3C207.3,63.5,206.9,64.2,206.4,65.1z"/>
	<path d="M93.2,85.2c0.6,0.6,1.3,1.1,1.8,1.7c0.1,0.1,0.1,0.4,0,0.6c-0.3,0.5-0.7,1-1.1,1.4c-0.2,0.2-0.8,0.4-0.9,0.3
		c-0.5-0.3-0.9-0.8-1.3-1.2c0,0,0-0.2,0.1-0.3C92.2,86.8,92.7,86,93.2,85.2z"/>
	<path d="M200.7,74.1c-1.3,0.3-2.3-0.2-3.4-0.8c-0.1-0.1-0.3-0.4-0.2-0.6c0.1-0.6,0.3-1.1,0.5-1.7c0.1-0.4,0.4-0.5,0.8-0.3
		C199.6,71.6,200.4,72.7,200.7,74.1z"/>
	<path d="M98.9,76.2c1.3-0.2,2.3,0.2,3.3,0.8c0.2,0.1,0.3,0.4,0.3,0.6c-0.1,0.5-0.3,1-0.5,1.6c-0.2,0.5-0.4,0.6-0.9,0.3
		C99.9,78.7,99.2,77.6,98.9,76.2z"/>
	<path d="M204.2,69.2c1-0.9,3.7-0.5,4.6,0.9c-0.6,0.4-1.3,0.8-2,1.3c-0.4,0.3-0.8,0.1-1.1-0.2C205.1,70.5,204.7,69.8,204.2,69.2z"/>
	<path d="M95.4,81c-1,0.9-3.7,0.5-4.5-0.9c0.7-0.4,1.3-0.8,2-1.3c0.4-0.3,0.8-0.1,1,0.2C94.4,79.7,94.9,80.4,95.4,81z"/>
	<path d="M205.2,71.4c-1.4,0.8-3.5,0.1-4.4-2.2C202,68.4,204.8,69.7,205.2,71.4z"/>
	<path d="M98.7,81.1c-0.7,0.5-1.5,0.3-2.1,0c-0.8-0.4-1.4-1-2.1-1.6c-0.4-0.4-0.3-0.7,0.4-0.8C96.7,78.3,98.1,79.2,98.7,81.1z"/>
	<path d="M202.7,41.2c-0.6,0.3-1.1,0.5-1.6,0.8c-0.5,0.2-1,0.4-1.5,0.7c-0.2-1.1-0.4-2.2,0-3.3c0.1-0.3,0.3-0.6,0.6-0.7
		c0.1,0,0.5,0.3,0.6,0.5C201.4,39.8,201.9,40.5,202.7,41.2z"/>
	<path d="M100,107.4c0,1.3,0,2.3,0,3.4c0,0.3-0.4,0.5-0.6,0.8c-0.2-0.2-0.4-0.3-0.7-0.6c-0.6-0.6-1.2-1.2-1.8-1.9
		C97.7,108.1,99.1,108.3,100,107.4z"/>
	<path d="M89.8,99c0.6-0.5,1.2-0.7,1.9-0.4c0.4,0.2,0.8,0.2,1.2,0.3c0.2,0.1,0.4,0.3,0.4,0.4c-0.2,0.8-0.4,1.5-1.1,2
		c-0.5,0.4-0.9,0.3-1.2-0.2C90.6,100.5,90.3,99.8,89.8,99z"/>
	<path d="M209.7,51.2c-0.6,0.5-1.2,0.7-1.9,0.4c-0.4-0.2-0.8-0.2-1.3-0.3c-0.4-0.1-0.4-0.3-0.3-0.6c0.2-0.8,0.5-1.4,1.1-1.9
		c0.4-0.3,0.8-0.3,1.1,0.2C208.9,49.7,209.3,50.5,209.7,51.2z"/>
	<path d="M91.5,74.9c-0.8,0.8-1.8,1-2.8,1.1c-0.2,0-0.5-0.3-0.5-0.6c-0.1-0.6-0.1-1.3,0-1.9c0-0.2,0.3-0.4,0.5-0.4
		c1,0.1,1.9,0.3,2.4,1.3C91.1,74.5,91.3,74.6,91.5,74.9z"/>
	<path d="M208.1,75.4c0.8-0.8,1.8-1,2.8-1.1c0.2,0,0.5,0.3,0.6,0.5c0.1,0.6,0.1,1.3,0,1.9c0,0.2-0.4,0.4-0.5,0.4
		c-1-0.1-1.9-0.4-2.4-1.3C208.4,75.7,208.3,75.6,208.1,75.4z"/>
	<path d="M204.5,52.2c1.2-0.3,2.1-0.4,3.1-0.1c0.1,0,0.3,0,0.3,0.1c0.1,0.5,0.2,1,0.1,1.4c-0.1,0.5-0.1,1.2-0.9,1.4
		c-0.1,0-0.4,0-0.5-0.1C205.9,54,205.2,53.1,204.5,52.2z"/>
	<path d="M95.1,98.1c-1.2,0.3-2.1,0.4-3,0.1c-0.1,0-0.2,0-0.3-0.1c-0.5-0.4,0-2.6,0.6-2.8c0.2-0.1,0.6,0,0.7,0.2
		C93.7,96.3,94.3,97.2,95.1,98.1z"/>
	<path d="M202.3,66.1c-0.6,0-1.2,0-1.7,0c-0.3,0-0.5-0.2-0.8-0.3c-1.1-0.5-1.5-1.4-1.1-2.6c0-0.1,0.3-0.3,0.4-0.3
		C200.6,63.5,201.6,64.5,202.3,66.1z"/>
	<path d="M97.4,84.1c0.5,0,1,0,1.5,0.1c0.4,0.1,0.7,0.3,1.1,0.5c0.7,0.2,0.9,0.7,0.8,1.4c-0.1,1.6-0.1,1.7-1.4,0.8
		C98.5,86.3,97.8,85.4,97.4,84.1z"/>
	<path d="M91.5,92.2c-0.9-0.1-1.8-0.2-2.8-0.4c-0.6-0.1-0.8-0.3-0.4-0.9c0.3-0.4,0.4-1,0.7-1.4c0.2-0.2,0.5-0.4,0.7-0.4
		c0.2,0,0.5,0.2,0.7,0.4c0.4,0.8,0.8,1.7,1.2,2.5C91.5,92.1,91.5,92.1,91.5,92.2z"/>
	<path d="M208.1,58c1,0.1,1.9,0.3,2.9,0.4c0.4,0.1,0.7,0.4,0.4,0.8c-0.3,0.5-0.4,1-0.8,1.5c-0.2,0.2-0.5,0.4-0.8,0.5
		c-0.2,0-0.5-0.2-0.6-0.4c-0.4-0.8-0.8-1.7-1.2-2.5C208,58.2,208.1,58.1,208.1,58z"/>
	<path d="M207.9,54.8c0.5-1,0.8-1.9,1.4-2.7c0.4-0.6,0.6-0.5,0.9,0.1c0.3,0.5,0.5,1,0.6,1.6c0.1,0.3,0,0.8-0.1,1.1
		c-0.2,0.5-0.7,0.6-1.2,0.4C209,55.2,208.5,55,207.9,54.8z"/>
	<path d="M91.7,95.4c-0.5,1-0.9,1.9-1.4,2.7c-0.3,0.4-0.6,0.4-0.9-0.1c-0.2-0.5-0.5-1.1-0.7-1.6c-0.1-0.3-0.1-0.8,0.1-1.1
		c0.2-0.4,0.7-0.6,1.2-0.4C90.5,95.1,91,95.2,91.7,95.4z"/>
	<path d="M199.3,62.4c0.9-1.4,3.5-1.3,4.6-0.1c0.4,0.4,0.2,0.8-0.2,0.8C202.2,63.2,200.6,63.8,199.3,62.4z"/>
	<path d="M100.2,87.9c-1,1.4-3.6,1.3-4.6,0.1c-0.3-0.3-0.2-0.8,0.2-0.8C97.4,87.1,99,86.5,100.2,87.9z"/>
	<path d="M195,43.3c0.3,0.7,0.2,1.2-0.4,1.7c-0.2,0.2-0.5,0.3-0.8,0.3c-0.6-0.1-1.2-0.4-1.8-0.6c-0.4-0.2-0.4-0.5-0.2-0.8
		c0.4-0.7,2-1.5,2.8-1.3c0.2,0.1,0.4,0.4,0.5,0.7C195.2,43.3,195.1,43.3,195,43.3z"/>
	<path d="M106,108.3c0,1.4-1.5,3.1-2.7,3.2c-0.1,0-0.3-0.1-0.3-0.2c0-0.5-0.3-0.9,0.1-1.4c0.3-0.3,0.4-0.7,0.6-1
		c0.3-0.6,1.2-1.1,1.8-0.9C105.7,108,105.9,108.3,106,108.3z"/>
	<path d="M193.6,41.9c0-1.4,1.4-3,2.7-3.2c0.1,0,0.4,0.1,0.4,0.2c0,0.5,0.3,1-0.1,1.4c-0.3,0.3-0.4,0.7-0.7,1.1
		c-0.3,0.6-1.2,1-1.8,0.8C193.8,42.2,193.6,42,193.6,41.9z"/>
	<path d="M104.5,106.9c-0.3-0.7-0.2-1.2,0.4-1.7c0.2-0.2,0.5-0.4,0.7-0.3c0.6,0.1,1.2,0.4,1.8,0.6c0.4,0.2,0.4,0.5,0.2,0.8
		c-0.4,0.7-2,1.5-2.8,1.3c-0.2-0.1-0.4-0.4-0.6-0.7C104.4,107,104.5,106.9,104.5,106.9z"/>
	<path d="M201.3,63.7c1.7-0.5,3-0.1,4.2,1.2c-0.6,0.4-1.1,0.7-1.6,1c-0.6,0.3-1.1,0.2-1.5-0.4C202,64.9,201.7,64.3,201.3,63.7z"/>
	<path d="M98.3,86.6c-1.7,0.5-3.1,0.1-4.3-1.2c0.7-0.4,1.3-0.8,1.9-1c0.3-0.1,0.8,0,0.9,0.2C97.4,85.1,97.8,85.8,98.3,86.6z"/>
	<path d="M100.9,84.4c-1.2,0.3-2.5-0.8-3.2-2.6c0.8-0.2,1.4-0.4,2.3,0C101.2,82.4,101.4,83.2,100.9,84.4z"/>
	<path d="M201.9,68.4c-0.8,0.2-1.5,0.6-2.2-0.1c-0.4-0.4-1.2-0.2-1.2-0.9c0-0.5,0.1-1,0.1-1.5C199.7,65.4,201.2,66.6,201.9,68.4z"/>
	<path d="M198.3,44.3c0,0.8,0,1.7,0,2.5c0,0.1-0.5,0.3-0.7,0.2c-0.9-0.4-1.8-0.9-2.8-1.3C195.4,44.8,195.8,44.6,198.3,44.3z"/>
	<path d="M104.8,104.7c-1,1.2-2.2,1.2-3.6,1.3c0-0.8,0-1.6,0-2.5c0-0.1,0.5-0.3,0.7-0.2C102.9,103.7,103.9,104.2,104.8,104.7z"/>
	<path d="M196.3,54.6c1.4-0.4,2.6,0,3.7,0.5c0.1,1.2-0.5,1.9-1.6,1.9c-0.1,0-0.3-0.1-0.4-0.2C197.5,56.1,196.9,55.4,196.3,54.6z"/>
	<path d="M103.2,95.7c-1,0.4-1.9,0.1-2.9-0.2c-0.3-0.1-0.7-0.3-0.8-0.6c-0.1-0.5,0.1-1,0.6-1.3c0.7-0.4,1.3-0.3,1.8,0.4
		c0.4,0.5,0.8,1,1.1,1.5C103.1,95.5,103.1,95.6,103.2,95.7z"/>
	<path d="M92.6,85.6c-0.4,0.5-0.7,1-1,1.4c-0.1,0.1-0.3,0.1-0.4,0.1c-1-0.5-1.8-1.2-2.1-2.4c-0.1-0.4,0.5-0.8,0.9-0.6
		c0.7,0.3,1.5,0.7,2.2,1C92.3,85.2,92.4,85.4,92.6,85.6z"/>
	<path d="M209.9,66.3c-1-0.5-1.8-0.9-2.7-1.3c-0.1,0-0.2-0.3-0.1-0.3c0.3-0.5,0.6-1,0.9-1.4c0.1-0.1,0.3-0.1,0.4,0
		c1,0.5,1.8,1.2,2.1,2.4C210.5,65.8,210.1,66.1,209.9,66.3z"/>
	<path d="M102.7,110.3c-0.2,0.9-0.2,1.7-0.4,2.5c-0.2,0.8-0.6,0.9-1.2,0.4c-0.2-0.2-0.4-0.3-0.6-0.5c-0.8-1-0.5-1.9,0.7-2.2
		C101.6,110.4,102.1,110.4,102.7,110.3z"/>
	<path d="M196.9,40c0.1-0.9,0.2-1.8,0.4-2.5c0.2-0.8,0.6-0.9,1.2-0.4c0.2,0.2,0.4,0.3,0.6,0.5c0.8,0.9,0.5,1.9-0.7,2.2
		C198,39.8,197.5,39.9,196.9,40z"/>
	<path d="M201.3,71c-1.4,0.8-2.3-0.1-3.3-0.8c-0.1-0.1-0.1-0.6-0.1-0.8c0.1-1.1,0.3-1.2,1.3-0.6C200.3,69.3,200.9,70,201.3,71z"/>
	<path d="M98.2,79.2c0.4-0.1,0.7-0.2,0.9-0.2c1.1-0.2,1.7,0.8,2.5,1.2c-0.1,0.6-0.2,1.1-0.4,1.6c0,0.1-0.6,0-0.9-0.1
		C99.4,81.2,98.7,80.3,98.2,79.2z"/>
	<path d="M205.5,68c-1.6,1.4-3.4,0.9-3.8-0.9c0-0.1,0.3-0.5,0.6-0.6c0.8-0.1,1.6,0,2.3,0.6C204.9,67.4,205.2,67.7,205.5,68z"/>
	<path d="M94,82c0.9-0.2,1.5-0.8,2.5-0.5c0.9,0.3,1,1.1,1.4,1.7c-0.3,0.2-0.5,0.5-0.8,0.5C95.8,83.9,94.9,83.2,94,82z"/>
	<path d="M140.7,40.8c-1,0.1-1.5-0.2-1.7-1.1c-0.3-1.2-0.7-2.3-0.9-3.5c-0.2-1-0.9-1.4-1.8-1.6c-0.4-0.1-0.8-0.2-1.2-0.3
		c-0.5-0.1-0.7-0.5-0.7-0.8c0.8,0.2,1.5,0.5,2.3,0.5c1.6,0,1.9,0.8,2,2c0.1,0.5,0,0.9,0,1.4c-0.1,1.3,0.5,2.2,1.5,3
		c0.1,0.1,0.3,0.2,0.4,0.3C140.7,40.7,140.7,40.8,140.7,40.8z"/>
	<path d="M100.9,103.6c0.3,2.2-0.6,3.5-2.5,4.1c0.2-1,0.3-2.1,0.7-2.9C99.4,104.3,100.2,104,100.9,103.6z"/>
	<path d="M158.9,109.4c0.9-0.1,1.5,0.2,1.7,1c0.4,1.2,0.7,2.4,0.9,3.6c0.2,1.1,0.9,1.4,1.8,1.6c0.4,0.1,0.8,0.2,1.2,0.3
		c0.5,0.1,0.7,0.5,0.7,0.8c-0.8-0.2-1.5-0.5-2.3-0.5c-1.5,0-1.9-0.8-2-2c-0.1-0.7,0.1-1.3,0-2c-0.1-1.1-0.8-1.8-1.6-2.4
		c-0.1-0.1-0.2-0.1-0.3-0.2C158.9,109.5,158.9,109.5,158.9,109.4z"/>
	<path d="M198.7,46.7c-0.4-2.1,0.9-3.7,2.4-4.1c-0.2,1-0.2,2-0.6,2.8C200.2,46,199.4,46.2,198.7,46.7z"/>
	<path d="M175.3,21.5c-0.2,0-0.4-0.1-0.7-0.1c0.1,0.2,0.1,0.3,0.1,0.4c-3.2-1.3-6.4-2.6-9.4-3.8c0.5-0.1,2.2,0.1,3.3,0.6
		c0.4,0.2,0.9,0.3,1.3,0.5c0.2,0.1,0.3,0.3,0.5,0.4c0.3,0.2,0.6,0.3,0.9,0.4C172.7,20.4,174.1,20.9,175.3,21.5
		C175.4,21.4,175.3,21.4,175.3,21.5z"/>
	<path d="M124.2,128.8c0.2,0,0.4,0.1,0.7,0.1c-0.1-0.2-0.1-0.3-0.1-0.4c3.2,1.3,6.4,2.6,9.4,3.8c-0.5,0.1-2.2-0.1-3.3-0.6
		c-0.4-0.2-0.9-0.3-1.3-0.5c-0.2-0.1-0.3-0.3-0.5-0.4c-0.3-0.2-0.6-0.3-0.9-0.4C126.9,129.9,125.5,129.4,124.2,128.8
		C124.2,128.8,124.2,128.8,124.2,128.8z"/>
	<path d="M96.8,89.3c-0.6,0.8-1.1,1.5-2,1.5c-0.7,0-1.2-0.5-1.4-1.2c0.5-0.4,1.1-0.8,1.7-1.2c0.1-0.1,0.3,0,0.5,0.1
		C95.9,88.8,96.3,89,96.8,89.3z"/>
	<path d="M202.8,60.9c0.6-0.8,1.1-1.5,2-1.5c0.7,0,1.2,0.5,1.4,1.2c-0.5,0.4-1.1,0.8-1.7,1.2c-0.1,0.1-0.4,0-0.5-0.1
		C203.6,61.5,203.2,61.2,202.8,60.9z"/>
	<path d="M211.3,55.2c0.3,1,0.6,1.9,0.9,2.8c0.1,0.4-0.1,0.5-0.4,0.4c-0.5-0.2-0.9-0.3-1.4-0.5c-0.8-0.3-0.9-0.3-0.5-1.1
		C210.2,56.2,210.5,55.5,211.3,55.2z"/>
	<path d="M88.2,95.1c-0.3-1-0.6-1.9-0.9-2.8c-0.1-0.4,0.1-0.5,0.4-0.4c0.5,0.2,0.9,0.3,1.4,0.5c0.8,0.3,0.9,0.3,0.5,1.1
		C89.4,94.1,89.1,94.7,88.2,95.1z"/>
	<path d="M100.7,98.6c-0.7-0.8-1.4-1.6-2-2.3c-0.1-0.1-0.2-0.4-0.1-0.4c0.2-0.2,0.5-0.4,0.7-0.3c0.6,0.2,1.2,0.4,1.8,0.7
		c0.5,0.2,0.6,0.9,0.2,1.6C101.2,97.9,101,98.2,100.7,98.6z"/>
	<path d="M198.7,51.8c0.7,0.8,1.4,1.5,2.1,2.2c0.1,0.1,0.2,0.4,0.1,0.4c-0.2,0.2-0.5,0.4-0.7,0.3c-0.6-0.2-1.2-0.4-1.8-0.7
		c-0.4-0.2-0.5-0.9-0.2-1.5C198.4,52.3,198.5,52.1,198.7,51.8z"/>
	<path d="M188.1,121.8c-1,1.2-2.3,1.6-3.8,1.7c0-1.2,0.5-1.8,1.6-1.9c0.7,0,1.4,0,2.1,0C188.1,121.6,188.1,121.7,188.1,121.8z"/>
	<path d="M111.5,28.6c0.6-1.1,2.5-1.9,3.8-1.7c-0.3,1.6-0.8,1.9-1.8,1.8c-0.2,0-0.4,0-0.6,0C112.4,28.7,111.9,28.6,111.5,28.6z"/>
	<path d="M209.7,55.8c-0.1,0.6-0.2,1-0.4,1.5c-0.2,0.5-1.5,0.6-1.7,0.1c-0.3-0.5-0.5-0.9-0.6-1.4c-0.1-0.4-0.1-0.6,0.5-0.5
		C208.2,55.6,208.9,55.7,209.7,55.8z"/>
	<path d="M89.8,94.5c0.2-0.6,0.2-1.1,0.4-1.5c0.2-0.4,1.5-0.4,1.7,0c0.3,0.4,0.5,0.9,0.6,1.4c0.1,0.3,0.1,0.6-0.4,0.4
		C91.4,94.7,90.7,94.6,89.8,94.5z"/>
	<path d="M96.7,90.7c0.1-0.9,0.5-1.3,1.2-1.4c0.4-0.1,0.8-0.1,1.2-0.1c0.2,0,0.3,0.1,0.4,0.2c0.1,0.2,0.2,0.5,0.3,0.8
		c0.2,0.6,0.1,0.8-0.5,0.8C98.4,90.9,97.6,90.8,96.7,90.7z"/>
	<path d="M202.9,59.5c-0.1,0.8-0.4,1.3-1.1,1.4c-0.4,0.1-0.9,0.2-1.3,0.1c-0.2,0-0.5-0.4-0.6-0.6c-0.4-1-0.3-1.2,0.8-1.1
		C201.4,59.3,202.1,59.5,202.9,59.5z"/>
	<path d="M198.4,57.6c0.7-0.5,2.4-0.5,3,0c0.1,0.1,0.2,0.4,0.1,0.5c-0.2,0.3-0.4,0.7-0.7,0.8c-0.4,0.2-0.8,0.2-1.2,0.2
		c-0.2,0-0.4-0.1-0.6-0.3C198.9,58.3,198.7,57.9,198.4,57.6z"/>
	<path d="M101.2,92.7c-1.1,0.5-2,0.4-3,0c-0.1,0-0.2-0.3-0.2-0.4c0.1-0.4,0.1-0.8,0.7-0.9c0.4,0,0.8-0.1,1.2-0.1
		c0.2,0,0.4,0.1,0.5,0.3C100.7,91.9,100.9,92.3,101.2,92.7z"/>
	<path d="M194.9,51.7c0.7,0.1,1.4,0.2,2,0.3c0.5,0.1,1,0.4,0.9,1c-0.1,0.3-0.1,0.7-0.3,0.9c-0.4,0.3-1.4,0-1.6-0.4
		C195.5,53,195.2,52.4,194.9,51.7z"/>
	<path d="M87.1,91.5c-0.2-0.8-0.4-1.5-0.7-2.3c-0.1-0.4,0.2-0.7,0.5-0.7c0.5,0,1,0.2,1.5,0.4c0.1,0,0.1,0.4,0.1,0.6
		c-0.4,0.7-0.8,1.3-1.3,2C87.2,91.5,87.1,91.5,87.1,91.5z"/>
	<path d="M212.5,58.8c0.2,0.8,0.5,1.5,0.6,2.3c0,0.2-0.3,0.7-0.4,0.7c-0.5,0-1.1-0.2-1.6-0.4c-0.1,0-0.1-0.4,0-0.6
		c0.4-0.7,0.8-1.3,1.3-2C212.4,58.7,212.4,58.8,212.5,58.8z"/>
	<path d="M104.7,98.5c-0.7-0.1-1.3-0.2-1.9-0.3c-0.5-0.1-1-0.4-0.9-1.1c0.1-0.3,0.2-0.7,0.4-0.8c0.5-0.3,1.4,0.1,1.6,0.5
		C104.1,97.3,104.4,97.9,104.7,98.5z"/>
	<path d="M125.5,23.8c-0.3-0.9-0.7-1.8-0.9-2.8c-0.5-2-1.8-2.5-3.6-2.2c-0.8,0.1-1.7,0.1-2.6,0.1c-0.1,0-0.2-0.1-0.3-0.2
		c1.2-0.1,2.3-0.3,3.5-0.3c1.6-0.1,2.8,0.8,3.2,2.3c0.1,0.5,0.3,1,0.4,1.5c0.1,0.5,0.3,1,0.4,1.5C125.7,23.7,125.6,23.8,125.5,23.8z
		"/>
	<path d="M181.4,131.5c-1.2,0.1-2.4,0.2-3.5,0.4c-1.6,0.1-2.8-0.8-3.3-2.3c-0.3-1-0.6-2-0.9-3c0.1,0,0.2-0.1,0.2-0.1
		c0.3,0.8,0.5,1.6,0.8,2.4c0.2,0.6,0.4,1.2,0.7,1.7c0.7,1,1.8,0.9,2.9,0.9c0.9-0.1,1.7-0.1,2.6-0.1
		C181.2,131.4,181.3,131.4,181.4,131.5z"/>
	<path d="M94.9,91.5c1.1-0.7,2-0.7,2.9,0.2c-0.2,0.3-0.3,0.6-0.5,0.9c-0.5,0.6-1.1,0.6-1.6,0C95.4,92.1,95.1,91.8,94.9,91.5z"/>
	<path d="M204.7,58.8c-1.1,0.7-2,0.7-2.9-0.2c0.2-0.3,0.3-0.6,0.5-0.8c0.5-0.6,1.2-0.8,1.7,0C204.2,58.2,204.4,58.5,204.7,58.8z"/>
	<path d="M97.8,93.2C97.8,93.2,97.8,93.2,97.8,93.2c0.5,0.2,1.3,0.3,1.3,0.5c0,0.5-0.2,1-0.5,1.5c-0.1,0.1-0.5,0.2-0.6,0.1
		c-0.5-0.4-0.9-0.9-1.3-1.4c-0.1-0.1,0.1-0.4,0.2-0.5C97.2,93.2,97.5,93.2,97.8,93.2C97.8,93.2,97.8,93.2,97.8,93.2z"/>
	<path d="M202.1,57.1c-0.4-0.1-0.7-0.2-1-0.2c-0.7-0.2-0.8-0.4-0.5-1.1c0.6-1.3,0.9-1.3,1.7-0.2c0.1,0.1,0.2,0.3,0.3,0.4
		c0.1,0.2,0.4,0.6,0.3,0.7C202.6,56.9,202.3,57,202.1,57.1z"/>
	<path d="M207.2,105.2c-0.5-0.5-0.9-0.9-1.3-1.4c2.1-0.6,3.2-2.3,4.1-4c0.1,0.1,0.1,0.1,0.2,0.1
		C209.2,101.6,208.3,103.3,207.2,105.2z"/>
	<path d="M89.4,50.4c1-1.7,1.9-3.4,3-5.3c0.5,0.5,0.8,0.9,1.3,1.4c-2.2,0.6-3.2,2.2-4,4C89.5,50.4,89.4,50.4,89.4,50.4z"/>
	<path d="M90.1,88.7c-0.8-0.2-1.4-0.3-2-0.5c-0.2-0.1-0.3-0.4-0.3-0.6c0.1-0.4,0.3-0.8,0.6-1.2c0.3-0.4,0.6-0.4,0.8,0.1
		C89.5,87.2,89.7,87.9,90.1,88.7z"/>
	<path d="M209.5,61.6c0.8,0.2,1.4,0.3,2.1,0.5c0.1,0,0.3,0.2,0.3,0.2c-0.3,0.6-0.6,1.2-1,1.8c0,0-0.4-0.1-0.5-0.3
		C210.1,63.1,209.8,62.4,209.5,61.6z"/>
	<path d="M195.7,49.4c-0.2,0.6-0.3,1.1-0.4,1.6c-0.1,0.4-0.4,0.5-0.7,0.1c-0.3-0.5-0.6-1-0.9-1.5c-0.1-0.2,0-0.6,0.1-0.7
		c0.1-0.1,0.5-0.2,0.7-0.1C194.9,48.9,195.2,49.2,195.7,49.4z"/>
	<path d="M103.9,100.9c0.2-0.6,0.3-1.1,0.5-1.6c0.1-0.4,0.4-0.4,0.6-0.1c0.3,0.5,0.6,0.9,0.9,1.5c0.1,0.2,0.1,0.6-0.1,0.7
		c-0.1,0.2-0.5,0.2-0.7,0.1C104.7,101.3,104.3,101.1,103.9,100.9z"/>
	<path d="M195.5,51c0-0.2,0.1-0.3,0.1-0.5c0.3-0.8,0.5-0.8,1.1-0.3c0.5,0.4,1,0.8,1.5,1.2C197.9,52.1,196.3,51.8,195.5,51z"/>
	<path d="M101.2,98.6c0.3-0.1,0.6-0.3,0.9-0.2c0.5,0.1,0.9,0.2,1.3,0.4c0.2,0.1,0.6,0.4,0.5,0.5c-0.1,0.4-0.3,0.7-0.6,1
		c0,0-0.5-0.2-0.7-0.3c-0.5-0.4-1-0.8-1.5-1.2C101.2,98.8,101.2,98.7,101.2,98.6z"/>
	<path d="M85,83.4c1.1,0.9,2.1,1.7,3,2.4c-0.5,0.3-1.7,0.3-2.2-0.1C85.3,85.2,85.1,84.4,85,83.4z"/>
	<path d="M211.4,64.4c0.7-0.1,1.5-0.4,2.3,0.2c0.6,0.5,0.8,1.3,0.8,2.2C213.4,65.9,212.4,65.2,211.4,64.4z"/>
	<path d="M120.2,107.4c0.1-0.7,0.4-1.1,1.1-1.4c1.3-0.6,2.6-1.3,3.8-2c0.4-0.2,0.8-0.3,1.3-0.6C124.3,104.8,122.3,106.1,120.2,107.4
		z"/>
	<path d="M179.4,42.9c0,0.6-0.3,1-0.8,1.3c-1.4,0.7-2.7,1.4-4.1,2.1c-0.4,0.2-0.8,0.3-1.4,0.6C175.3,45.5,177.3,44.2,179.4,42.9z"/>
	<path d="M206.9,58.1c-0.4,0-0.9-0.1-1.3-0.1c0,0.1-0.1,0.1-0.1,0.2c0.6,0.5,1.1,1,1.7,1.5c-0.9,0-1.5-0.6-2-1.2
		c-0.4-0.5-0.8-1-1.2-1.6C205.2,56.6,205.9,57.7,206.9,58.1z"/>
	<path d="M95.6,93.5c-1.2,0.2-2-0.9-2.9-1.3c0.4,0,0.9,0.1,1.3,0.1c0-0.1,0.1-0.1,0.1-0.2c-0.6-0.5-1.1-0.9-1.7-1.4
		c0.9,0.1,1.2,0.3,1.9,1.1C94.8,92.3,95.2,92.9,95.6,93.5z"/>
	<path d="M172.5,23.5c-1.7-0.3-3.4-0.7-5.1-1.3C169.4,21.7,170.9,22.6,172.5,23.5z"/>
	<path d="M127,126.7c1.8,0.4,3.6,0.8,5.2,1.4C130.7,128.5,128.3,127.8,127,126.7z"/>
	<path d="M129.6,103.8c-1.9,0.8-3.7,1.6-5.6,2.4c0-0.1-0.1-0.2-0.1-0.2C125.6,104.7,127.5,104,129.6,103.8z"/>
	<path d="M175.5,44.1c-0.7,1.1-4,2.5-5.5,2.4C171.8,45.7,173.7,44.9,175.5,44.1z"/>
	<path d="M166.7,23c2.3,0.2,4.2,1.1,5.9,2.6c-0.9-0.3-1.8-0.6-2.5-1.1C169.1,23.8,167.9,23.3,166.7,23z"/>
	<path d="M126.9,124.7c0.9,0.4,1.8,0.6,2.6,1.1c1,0.7,2.1,1.2,3.3,1.4c-2.3-0.2-4.2-1.1-6-2.4C126.9,124.8,126.9,124.7,126.9,124.7z
		"/>
	<path d="M85.6,86.3c0.8,0.1,1.4,0.2,2.1,0.3c-0.2,0.8-0.7,1.4-1.5,1.8C86,87.6,85.8,87,85.6,86.3z"/>
	<path d="M213.4,62c0.2,0.6,0.4,1.2,0.6,1.9c-0.8-0.1-1.4-0.2-2.4-0.3c0.6-0.7,1-1.2,1.5-1.8C213.2,62,213.3,62,213.4,62z"/>
	<path d="M132,121.6c-2.3-0.7-4.6-1.4-7-2.1c0.4-0.2,5.8,1.2,6.9,1.7c0.1,0.1,0.2,0.2,0.2,0.3C132.1,121.5,132.1,121.6,132,121.6z"
		/>
	<path d="M167.4,28.6c2.4,0.7,4.7,1.4,7,2.1c0,0.1-0.1,0.2-0.1,0.3c-2.3-0.7-4.5-1.3-6.8-2C167.5,29,167.5,28.8,167.4,28.6z"/>
	<path d="M85.2,100.6c-0.6-2.4,0.4-4.8,1.1-7.2C85.9,95.8,85.5,98.3,85.2,100.6z"/>
	<path d="M213.3,56.9c0.4-2.5,0.7-4.9,1.1-7.2C215,52.1,214,54.5,213.3,56.9z"/>
	<path d="M175.9,20.3c-2.4-0.7-4.6-1.4-6.9-2.1C169.5,17.9,175,19.5,175.9,20.3z"/>
	<path d="M130.5,132.3c-2.3-0.6-4.5-1.3-6.7-2.1c0-0.1,0-0.1,0.1-0.2c2.2,0.7,4.5,1.3,6.7,2C130.5,132.1,130.5,132.2,130.5,132.3z"
		/>
	<path d="M96.4,46.3c-1.4,0.6-2.9,1.2-4.3,1.7C93.2,46.7,94.9,46.7,96.4,46.3z"/>
	<path d="M203.1,104c1.5-0.6,2.9-1.2,4.4-1.8C206.3,103.5,204.7,103.6,203.1,104z"/>
	<path d="M214.8,53c-0.3,2.1-0.6,4.2-1.1,6.3c-0.1,0-0.2,0-0.2,0C213.9,57.2,214.4,55.1,214.8,53z"/>
	<path d="M86.1,91.1c-0.5,2.1-0.9,4.1-1.4,6.2c0.3-2.1,0.6-4.2,1.1-6.3C85.9,91,86,91,86.1,91.1z"/>
	<path d="M174,24.3c1,0.4,2.1,0.9,3.1,1.3c-1.2-0.2-2.3-0.3-3.2-1.1C173.9,24.4,173.9,24.4,174,24.3z"/>
	<path d="M125.7,126c-1.1-0.4-2.1-0.9-3.2-1.4C123.5,124.6,125.2,125.2,125.7,126z"/>
	<path d="M175.4,21.4c1.3,0.6,2.7,1.3,4,2c0,0.1-0.1,0.1-0.1,0.2C178,22.9,176.6,22.2,175.4,21.4C175.3,21.4,175.4,21.4,175.4,21.4z
		"/>
	<path d="M124.2,128.9c-1.3-0.6-2.7-1.3-4-2c0-0.1,0.1-0.1,0.1-0.2C121.6,127.4,122.9,128.1,124.2,128.9
		C124.2,128.8,124.2,128.8,124.2,128.9z"/>
	<path d="M210.2,50.3c0.4,1.1,0.8,2.2,1.2,3.2c-0.1,0-0.1,0-0.2,0.1c-0.4-1.1-0.8-2.2-1.1-3.2C210.1,50.3,210.2,50.3,210.2,50.3z"/>
	<path d="M208.5,61.1c-0.6,0.2-1,0.2-1.3-0.3c-0.1-0.3-0.5-0.4-0.8-0.6C206.8,60,207.6,60.4,208.5,61.1z"/>
	<path d="M93.1,90.3c-0.6-0.3-1.3-0.7-1.9-1c0-0.1,0-0.2,0-0.2c0.3,0,0.7-0.1,0.9,0.1c0.3,0.3,0.5,0.8,0.8,1.2
		C92.9,90.3,93,90.3,93.1,90.3z"/>
	<path d="M89.3,99.9c-0.4-1.1-0.8-2.2-1.2-3.2c0.1,0,0.2-0.1,0.2-0.1c0.4,1.1,0.8,2.2,1.1,3.2C89.5,99.9,89.4,99.9,89.3,99.9z"/>
	<path d="M176.2,20.9c0.7,0.1,1.4,0.3,2.1,0.5c0,0.1,0,0.1-0.1,0.2C177.5,21.6,176.8,21.3,176.2,20.9
		C176.2,20.9,176.2,20.9,176.2,20.9z"/>
	<path d="M123.4,129.4c-0.7-0.1-1.4-0.3-2.1-0.5c0-0.1,0-0.1,0.1-0.2C122.1,128.7,122.8,129,123.4,129.4
		C123.4,129.4,123.4,129.4,123.4,129.4z"/>
	<path d="M211.6,43c0.3,0.7,0.6,1.5,0.9,2.2c-0.1,0-0.1,0-0.2,0.1c-0.3-0.7-0.6-1.4-0.9-2.2C211.5,43.1,211.6,43.1,211.6,43z"/>
	<path d="M176.2,20.9c-0.8-0.1-1.6-0.3-2.4-0.4c0-0.1,0.1-0.2,0.1-0.3C174.7,20.4,175.4,20.6,176.2,20.9
		C176.2,20.9,176.2,20.9,176.2,20.9z"/>
	<path d="M123.4,129.4c0.8,0.1,1.6,0.3,2.4,0.4c0,0.1-0.1,0.2-0.1,0.3C124.9,129.9,124.1,129.6,123.4,129.4
		C123.4,129.4,123.4,129.4,123.4,129.4z"/>
	<path d="M117.9,40.9c0-1,1.1-2.2,2.3-2.6c1.2-0.4,2,0.1,2.8,1.2c0.2,0.2,0.1,0.7,0,1c-0.6,1.4-1.7,2.2-3.1,2.5
		C118.9,43,117.9,42,117.9,40.9z"/>
	<path d="M178.6,112.1c-0.7,0-1.8-0.7-2.1-1.4c-0.3-0.7,0.2-1.3,0.6-1.8c0.6-0.8,1.6-1.4,2.6-1.5c1.3-0.1,2.2,1.2,1.8,2.5
		C181.3,111,179.7,112.1,178.6,112.1z"/>
</g>
</svg>
