<?xml version="1.0" encoding="UTF-8"?>
<!DOCTYPE svg PUBLIC "-//W3C//DTD SVG 1.0//EN" "http://www.w3.org/TR/2001/REC-SVG-20010904/DTD/svg10.dtd">
<!-- Creator: CorelDRAW 2018 (64-Bit) -->
<svg xmlns="http://www.w3.org/2000/svg" xml:space="preserve" width="84mm" height="53mm" version="1.0" style="shape-rendering:geometricPrecision; text-rendering:geometricPrecision; image-rendering:optimizeQuality; fill-rule:evenodd; clip-rule:evenodd"
viewBox="0 0 8400 5300"
 xmlns:xlink="http://www.w3.org/1999/xlink"
 xmlns:xodm="http://www.corel.com/coreldraw/odm/2003">
 <defs>
  <style type="text/css">
   <![CDATA[
    .fil0 {fill:#373535}
   ]]>
  </style>
 </defs>
 <g id="Слой_x0020_1">
  <metadata id="CorelCorpID_0Corel-Layer"/>
  <path class="fil0" d="M4876.56 411.28c-10.58,6.05 -64.23,8.17 -83.17,10.77l-97.43 14.42 -41.82 8.19c-21.17,3.42 -42.37,8.68 -62.68,14.06 -15.5,4.11 -48.26,14 -62.62,13.78 -8.41,9.07 -72.57,25.72 -88.56,32.01 -13.67,5.37 -28.88,10.38 -42.74,16.16 -14.73,6.14 -28.17,13.62 -42.72,18.63 -9.6,7.04 -69.46,38.17 -77.28,39.19 -6.49,9.69 -3.25,4.66 -13.38,11.35 -74.03,45.46 -133.92,98.05 -181.59,159.45 -43.96,56.61 -92.58,140.24 -107.68,231.12 -1.77,18.46 -0.11,19.52 -18.44,23.09 -17.71,3.91 -35.26,11.57 -53.28,12.92l-74.47 28.13c-10.31,7.53 -36.76,17.09 -50.05,24.02 -13.18,6.89 -39.54,23.32 -50.83,24.35 -5.25,7.86 -1.08,4.28 -9.52,7.11l-93.19 60.63c-3.97,5.52 -4.19,6.51 -10.8,11.28 -4.26,3.09 -7.84,5.08 -12.21,6.47l-139.01 132.83c-6.51,11.3 -13.27,18.41 -23.36,27.18 -3.11,7.18 -57.54,75.99 -72.48,100.55 -21.59,35.48 -42.97,73.1 -62.37,111.19 -34.07,66.72 -74.01,177.6 -84.98,261.19 -1.37,11.06 -2.34,27.62 -7.46,34.82l-3.42 74.47 -0.84 82.31c2.47,24.29 2.76,44.16 6.51,68.69 2.89,18.86 10.66,53.3 9.43,69.59l21.97 71.47c20.09,50.38 42.92,101.63 71.03,144.59 28.28,43.25 64.93,93.72 106.42,116.88 -14.42,-28.88 -46.7,-58.84 -75.35,-121.32 -50.6,-110.31 -68.42,-189.33 -76.66,-311.73 -4.75,-70.48 2.91,-117.22 8.72,-184.29 2.01,-10.42 2.67,-23.62 7.93,-30.12l0.95 -12.41c1.7,-19.43 9.34,-66.06 19.43,-78.93 -1.21,-16.96 28.15,-110.88 37.31,-123.88l16.8 -41.57 23.89 -44.05 29.94 -51.31c10.13,-26.98 52,-79.02 74.49,-105.76 3.89,-4.61 7.9,-11.46 12.43,-17.09l135.67 -138.54c14.31,-10.11 23.47,-23.14 41.73,-31.24 1.32,-4.77 0.64,-2.27 6.8,-7.22l28.19 -19.12c20.97,-13.42 112.27,-60.76 129.18,-60.54l5.65 -4.33c0.53,-0.33 1.44,-0.82 1.94,-1.08 1.94,-1.08 3.49,-1.39 5.94,-2.3 25.55,-8.3 113.44,-42.06 137.22,-39.21 7.48,-5.3 11.46,-2.87 19.69,-7.44 10.44,-5.78 50.69,-60.87 97.46,-72.55 11.06,-11.61 67.64,-24.71 90.38,-27.53 36.61,-4.55 72.13,3.22 98.49,17.8 22.19,9.91 39.85,24.66 49.41,44.42 14.66,14.99 27.33,53.28 28.11,79.62 0.88,30.14 -8.46,62.02 -18.81,85.8 -8.26,18.92 -62.17,128.7 -71.14,137.57 -4.53,14.77 -10.82,39.52 -21.97,49.28l-1.15 15.92 -6.95 15.48c2.8,15.9 -13.18,78.73 0.31,134.24 18.13,74.49 42.72,88.36 46.3,102.51 7.22,4.81 14.97,13.34 21.81,20.36 3.93,4.02 6.45,6.4 10.2,10.27 6.25,6.42 6.01,5.85 9.98,11.97 7.07,1.7 0.66,-0.99 9.01,4.35 2.98,1.92 5.54,4.06 8.54,6.16 6.62,4.64 12.72,8.37 19.8,12.74 9.45,5.83 32.39,17.33 37.56,21.62 8.83,2.83 2.52,-0.2 10.29,3.69 0.86,0.44 3.36,1.85 4.13,2.36 3.6,2.34 3.14,2.32 5.32,4.44 3.25,0 78.82,24.6 85.27,28.04 17.57,3.22 33.25,7.24 50.85,10.8 14.33,2.89 39.5,4.5 49.5,10.84 5.63,-1.41 135.7,10.33 155.04,11.88 94.47,7.51 178.55,29.94 258.85,75.33 32.26,18.24 77.43,51.69 90.59,79.57 -13.67,-3.69 -44.62,-22.43 -63.63,-30 -11.44,-4.55 -60.3,-22.12 -65.42,-25.7 -13.45,-2.3 -29.21,-5.45 -38.39,-12.63 -17.93,2.3 -93.66,-22.94 -122.56,-25.46 -6.34,-1.17 -11.41,-2.21 -17.71,-3.42 -1.24,-0.24 -8.99,-1.81 -9.91,-2.08l-7.37 -2.85c-0.64,-0.26 -1.68,-0.71 -2.45,-1.17l-118.56 -13.14c-14.55,-0.97 -27.84,-2.54 -41.55,-3.29 -11.08,-0.6 -34.88,1.06 -43.98,-4.48 -17.4,3.33 -61.67,-0.91 -82.46,-1.46 -28.46,-0.73 -57.25,0.02 -85.31,0.84 -41.02,1.19 -136.69,10.2 -171.42,3.36 -10.58,6.47 -200.77,5.67 -208.59,-0.44 -30.14,3.62 -117.17,-4.28 -148.13,-9.74l-8.85 -1.52c-14.59,-1.41 -43.14,-3.14 -52.13,-12.1 -17.53,0.44 -49.9,-13.07 -64.73,-20.73 -16.74,-8.63 -35.83,-23.73 -35.7,-49.06 -18.06,-23.62 -7.22,-137.82 -9.63,-175.77 -4.64,-26.21 -6.38,-39.65 -16.12,-63.54 -5.85,-14.35 -26.54,-45.77 -27.44,-53.34 -9.91,-7.57 -16.78,-21.02 -21.53,-33.03 -9.54,-5.96 -29.56,-51.24 -33.14,-69.19 -5.87,-29.5 0.42,-62.84 15.72,-80.74 -0.02,-12.43 0.93,-6.34 -2.83,-8.19 -24.95,21.44 -38.44,24.64 -58.38,52.9 -14.35,20.36 -29.94,48.77 -34.88,78.42 -7.11,35.94 -4.86,50.16 -0.77,85.56 3.97,9.54 5.32,30.03 8.06,41.95 3.18,13.84 8.92,27.89 13.76,41.91 7.26,21.06 28.5,63.76 29.32,82.73 9.67,9.23 12.25,35.66 13.87,50.85 1.79,16.63 5.34,46.37 -4.66,58.27 0,29.54 -42.44,69.08 -56.81,80.79 -12.54,10.2 -70.41,48.44 -86.55,50.89 -6.27,6.73 -4.11,4.39 -13.51,7.64 -8.46,10.18 -80.41,34.24 -112.01,99.75 -50.25,104.23 -33.82,256.49 10.84,364.67 13.4,32.43 58.31,124.66 80.04,137.86 -8.61,-57.56 -17.73,-29.87 -20.49,-141.39 -0.73,-29.48 13.89,-116.18 28.81,-132.27 9.69,-37.11 74.01,-139.8 105.91,-159.08 14.24,-16.34 55.42,-49.37 82.55,-59.02 4.37,-7.07 53.96,-27.05 65.68,-27.49 6.31,-7 15.68,-8.54 26.96,-10.71 78.22,-40.23 398.28,-48.11 509.85,-42.94 29.01,1.35 59.99,3.09 89.66,0.93 22.45,-1.63 67.34,-9.83 85.89,-6.67 3,-1.85 -1.21,-0.71 7,-2.98 2.91,-0.79 6.6,-1.15 9.67,-1.55l29.43 -0.93c11.17,-8.08 137.53,-11.04 160.6,-10.33 30.58,0.95 136.09,1.79 155.37,16.1 26.69,-3.2 121.01,24.02 153.29,30.45 10.16,2.34 36.54,7.75 44.16,13.56 13.36,-0.84 137.48,38.02 150.97,46.1 -0.84,0.42 -127.55,22.41 -139.03,23.93 -136.4,18.13 -192.7,-3.2 -314.89,-0.38 -56.79,1.32 -96.35,14.7 -147.22,22.14 -5.32,3.51 -20.58,7.6 -31,11.3 -12.12,4.33 -20.6,9.89 -32.72,13.98 -0.2,0.26 -30.16,21 -33.03,23.03 -15.68,11.04 -17.62,21.66 -29.34,30.16l-26.34 -11.35c-8.5,-2.54 -19.85,-5.81 -24.79,-11.57 -14.42,-0.46 -65.07,-21.66 -84.52,-27.44 -29.32,-8.74 -61.4,-15.5 -90.96,-22.83 -13.05,-1.5 -25.14,-4.55 -38.76,-6.31 -5.98,-0.77 -11.97,-1.41 -17.97,-2.23 -10.18,-1.41 -12.78,-0.82 -19.43,-5.08 -13.47,2.91 -109.8,-4.24 -135.3,-4.08 -25.35,0.15 -116.91,12.54 -128.63,10.11 -0.71,0.4 -1.85,-0.04 -2.27,0.91l-88.58 19.72c11.13,-21.5 48.88,-54.84 81.27,-64.65 22.39,-13.51 98.87,-28.35 105.47,-31.66 -30.16,-29.1 -174.31,16.67 -188.77,16.45l-37.45 16.36c-80.74,37.53 -88.78,40.27 -146.18,96.86 -36.78,36.25 -74.18,90.96 -90.96,155.41 -8.92,25.66 -15.3,76.94 -17.69,106.75l-0.53 46.74c9.52,-13.95 12.47,-50.1 22.98,-71.65 5.67,-11.68 11.37,-18.79 18.5,-28.55 4.17,-5.7 6.89,-9.96 9.96,-13.67l12.43 -11.75c0.4,-0.33 1.17,-1.02 1.79,-1.5 0.09,-9.71 -1.04,-5.03 3.29,-5.21 6.16,-13.38 44.64,-44.09 57.05,-54 16.25,-12.98 47.12,-36.96 68.05,-44.05 6.49,-12.72 139.23,-60.78 173.08,-54.6l25.61 -4.64 62.95 -3.86 94.06 1.46 5.87 0.64 87.59 9.96c0.84,0.22 1.68,0.51 2.43,0.71l4.44 1.7c18.79,-2.27 79.52,14.51 100.58,19.36 25.9,6.87 51.58,13.67 76.86,22.19 12.58,4.24 25.88,8.17 37.58,12.47 10.66,3.93 29.56,9.21 36.3,17.16 23.51,0.88 89.44,39.52 108.72,52.41 16.54,11.04 32.54,21.77 46.5,32.99 9.23,7.42 37.27,30.76 40.91,39.76 9.41,4.35 2.85,0.2 9.83,6.6 5.5,5.03 4.92,5.23 7.93,10.18 11.77,6.95 52.48,63.06 63.39,82.97 11.06,20.2 45.95,75.35 46.01,99.88l15.94 45.15c8.81,25.48 23.32,92.42 19.23,120.48 5.32,6.51 3.47,8.28 4.79,18.7 9.45,160.09 -18.99,286.01 -124.99,393.84l-136.82 121.83c-24.11,18.33 -97.52,106.26 -110.99,150.38 19.39,-6.01 30.16,-19.52 47.73,-24.46 6.76,-6.8 16.49,-11.59 27.84,-15.39 11.17,-7.22 55.9,-29.39 67.63,-30.42 6.8,-8.04 8.59,-6.45 19.5,-10.8 7.42,-2.94 15.5,-6.36 23.51,-9.12 20.11,-7.26 83.06,-33.41 100.61,-33.18l73.5 -24.04c11.55,-2.3 10.24,11.02 14.7,23.14 3.31,9.03 8.01,19.23 11.94,29.17 7.46,18.79 20.4,40.54 26.03,56.9l29.98 54.91 32.5 46.59c4.88,8.59 2.45,2.52 3.93,9.45 10.09,6.4 8.41,6.05 16.1,17.46 4.99,7.42 10.6,12.01 15.12,20.47 8.99,10.2 15.28,18.26 24.75,27.86 4.17,4.24 22.85,25.43 25.13,30.53 7.53,6.38 21.57,18.79 26.21,26.98l54.14 53.01c12.96,5.39 11.26,7.64 22.23,17.38 9.85,8.74 14.06,5.59 19.54,19.63 8.24,1.97 15.34,9.41 22.72,14.66 11.26,8.01 14.4,8.41 20.73,18.61 11.81,3.93 26.56,16.89 38.06,25.48 10.73,7.99 24.29,18.81 37.4,24.42 -7.42,-18.04 -21.59,-26.47 -26.45,-43.1 -9.05,-4.39 -55.42,-74.58 -62.77,-90.68 -4.77,-6.91 -4.95,-5.56 -7.88,-14.51 -9.05,-6.03 -54.38,-86.53 -55.13,-100.59 -17.4,-18.24 -35.61,-85.67 -42.68,-108.19 -20.14,-105.45 -26.74,-146.34 -17.86,-260.9 3.49,-45.13 2.98,-90.39 5.45,-135.89 2.41,-43.96 7.55,-88.25 9.36,-131.68 2.47,-105.45 16.78,-174.42 14.24,-298.88 -0.2,-9.63 -3.75,-33.87 1.19,-41.95 12.89,9.87 62.79,67.49 69.88,82.29 6.07,2.8 26.38,30.38 31.59,37.6l8.9 16.49c8.48,4.92 23.65,27.6 27.89,37.34 21.11,23.73 43.1,64.78 61.71,94.43 20.11,32.08 37.14,65.57 56.34,99.73 11.39,18.79 28.86,55.31 38.31,76.19 11.61,25.68 25.55,52.13 35.37,79.92 14.53,26.05 87.85,216.79 86.31,241.5 7.07,7.93 10.84,26.05 13.29,37.73 8.28,12.41 47.43,186.43 45.66,203.06 8.92,13.14 10.07,46.21 12.5,64.45 4.15,19.94 11.28,57.74 8.04,76.83 4.9,7.48 3.78,18.92 5.06,30.45 1.13,15.79 2.83,32.68 3.86,48.88 0.84,13.18 0.75,42.04 7.15,50.34 10.18,-41.55 27.11,-85.25 34.2,-132.56 1.85,-14.28 5.12,-28.77 7.42,-43.87 1.17,-7.68 2.56,-14.33 3.55,-22.76l5.06 -23.23c-2.63,-15.68 7.24,-100.66 8.65,-125.12 1.61,-27.89 -4.37,-120.73 0.22,-137.18l-6.73 -49.9c-3.58,-42.72 -14.17,-78.45 -19.01,-118.65l-40.38 -165.86c-4.72,-29.01 -18.59,-67.96 -27.05,-97.3 -9.78,-33.87 -24.09,-62.73 -32.81,-95.29 -2.96,-4.99 -21.66,-51.31 -24.49,-61.84 -4.77,-5.96 -17.53,-36.12 -22.1,-45.55l-70.59 -146.89c15.21,-3.4 46.61,3.89 61.82,6.98l48.33 11.53c46.5,13.89 89.22,28.81 127.79,49.19 22.79,12.03 103.11,50.21 111.1,63.3 13.31,4.46 103.06,61.71 116.29,80.54 10.58,1.61 25.68,16.47 34.4,23.4 11.06,8.81 28.79,20.4 31.73,28.42 11.39,4.04 18.21,12.17 25.46,20.42l79.53 70.34c6.05,6.45 7.79,4.77 8.74,11.72 9.8,5.06 5.3,2.34 8.21,7.71l65.46 62.57c20.36,25.13 41.2,43.65 62.22,70.1 5.01,6.31 9.94,10.16 15.43,16.89l43.21 53.85c49.77,61.93 123.18,164.22 161.66,232.2 16.87,29.81 86.55,147.2 89.09,175.15 9.74,7.73 48.55,107.57 48.13,121.32l2.58 4.06c0.82,1.59 2.41,4.72 3.05,6.38 2.1,5.59 2.83,9.83 4.08,15.57 4.46,13.11 10.71,28.9 10.2,42.81 14.13,9.07 3.62,2.25 7.75,-0.26l-4.5 -123.44c-3.11,-12.47 -11.24,-87.3 -20.53,-128.52 -5.19,-22.96 -30.58,-112.2 -30.45,-124.7 -3.42,-3.93 -0.33,1.15 -3.47,-6.05l-16.82 -50.89c-6.31,-18.08 -13.03,-42.74 -21.35,-59.08l-25.37 -67.8c-14.04,-36.87 -27.73,-66.19 -43.32,-100.35 -7.53,-16.51 -14.33,-30.98 -22.63,-47.95 -6.91,-14.15 -20.14,-37.45 -23.89,-50.67l-27.2 -49.5c-6.12,-9.1 -14.73,-23.91 -20.51,-34.66 -10.95,-21.68 -32.43,-48.48 -40.47,-68.6 -6.45,-5.45 -32.41,-45.48 -39.87,-56.21 -39.1,-56.19 -93.26,-110.92 -136.89,-163.05l-67.67 -79.2c-23.12,-30.16 -100.22,-122.93 -108.58,-140.95 -11.48,-13.4 -24.71,-29.78 -31.37,-46.76 -7.6,-3.29 -29.89,-38.77 -32.9,-48.6 -9.65,-10.09 -16.89,-22.59 -20.64,-35.81 -24.77,-23.16 -70.52,-143.4 -59.26,-207.8 1.17,0.71 80.01,106.57 100.3,126.82 7.66,7.64 8.74,10.86 17.6,20.6l54.89 56.81c18.68,20.84 58.64,56.21 80.01,72.79 7.29,5.63 13.2,11.13 21.15,17.07l14.79 11.72c0.49,0.46 1.13,1.08 1.59,1.55l4.7 5.06c4.79,1.83 6.56,2.85 10.84,5.63 0.57,0.38 4.79,3.49 4.86,3.55 4.24,3.62 2.25,1.63 3.64,3.86 13.53,6.47 23.89,14.9 35.41,22.08 12.12,7.55 22.65,13.51 36.45,22.52 26.76,12.47 52.02,27.42 78.8,38.62 27.93,11.66 56.01,23.51 86.31,33.23 -8.21,-18.86 -77.25,-83.68 -79.35,-100.72 -5.08,-2.98 -2.85,1.3 -7.22,-8.52 -14.68,-5.61 -104.65,-162.04 -104.72,-179.35 -5.56,-4.9 -3.95,-2.69 -8.1,-10.77 -2.63,-5.1 -4,-9.56 -5.98,-14.55 -4.57,-11.48 -8.1,-17.91 -10.62,-30.05 -7.44,-12.17 -35.17,-92.77 -34.22,-109.36 -5.28,-6.98 -1.77,-0.93 -4.59,-11.19 -1.02,-3.67 -2.34,-10.38 -3.25,-14.04 -2.3,-9.41 -4.06,-18.35 -5.54,-27.51 -11.68,-44.93 -26.89,-240.13 -12.05,-276.96 2.19,-0.73 -1.63,-1.26 5.9,-0.35 45.26,5.41 158.15,80.52 161.2,142.87 7.22,6.71 2.43,5.59 6.6,8.96 8.37,6.73 1.81,6.31 6.12,-0.93 -3.8,-7.55 -8.28,-60.98 -11.26,-76.3 -3.47,-17.86 -16.89,-65.93 -16.51,-77.32 -6.51,-6.71 -7.62,-15.08 -10.31,-25.66 -4.04,-4.11 -13.98,-35.9 -18.72,-45.59 -8.15,-16.56 -13.93,-29.56 -22.41,-45.22 -9.23,-17.07 -41.42,-77.98 -53.06,-82.64 -9.98,-24.04 -27.31,-31.68 -34.4,-51.86 -7.75,-4.08 -37.22,-36.32 -41.33,-45.44 -15.57,-11.7 -27.71,-31.82 -45.86,-38l1.55 11.83 -5.85 64.14c-2.96,25.35 -8.81,50.98 -15.83,59.37 1.28,27.82 -37.38,86.86 -49.79,104.94 -18.35,26.74 -50.78,62.22 -77.78,77.74l-12.1 8.83c-23.71,18.19 -80.72,49.48 -118.08,56.96l-50.32 13.31c-28.37,4.46 -61.47,9.91 -90.7,10.29 -39.41,0.51 -65.22,-2.34 -102.4,-4.39 -9.98,-1.08 -7.44,-2.08 -10.31,-3.86 -21.09,4.17 -75.16,-11.79 -96.09,-18.5 -10.62,-2.78 -19.5,-5.03 -26.21,-11.24 -21.37,-0.31 -56.3,-23.07 -77.85,-29.59 8.35,13.76 42.59,41.11 57.03,54.23 28.92,26.27 47.56,51.49 70.63,76.24 17.04,18.28 63.74,84.16 78.64,106.53 9.27,13.93 51.05,81.14 52.46,93.44 7.02,5.56 7.22,7.09 11.61,16.1 13.14,26.91 59.39,109 56.37,126.62l-12.14 -5.12c-16.74,1.68 -90.17,-24.66 -172.32,-19.69 -29.3,1.77 -56.72,6.27 -84.32,12.25 -20.27,4.37 -66.3,17.11 -83.66,15.79 -7.26,5.67 -20.25,6.47 -31.55,7.88 -19.12,2.45 -42.19,9.36 -61.42,4.15 -8.3,5.5 -19.63,4.37 -29.96,4.11l-97.01 -3.8 -4.24 6.29c56.26,15.04 92.31,58.2 125.69,101.94 14.26,18.66 70.32,93.13 87.21,109.84 9.6,9.49 9.63,4.26 12.25,17.33 -50.6,-16.21 -92.05,-46.78 -130.75,-72.59 -11.79,-7 -26.38,-18.79 -37.18,-27.2 -11.75,-9.18 -25.48,-18.97 -36.85,-28.11 -10.18,-8.7 -23.98,-18.04 -35.26,-26.21 -10.95,-7.93 -23.65,-17.62 -36.63,-25.08 -24.57,-14.2 -51.93,-33.89 -84.69,-40.34l-40.67 -8.92 -6.95 -1.7c2.8,11.66 -2.78,0.99 6.98,11.41 7.75,8.26 4.33,1.5 10.91,13.18 9.94,1.41 25.7,33.23 31.15,41.99 6.58,10.55 25.06,41.84 26.23,51.86 2.94,2.69 1.97,1.48 4.59,5.41l9.85 19.78c4.22,8.79 7.71,17.33 11.35,26.6 12.63,38.55 34.8,89.02 37.51,130.84l-44.31 -65.13c-7.62,-10.51 -45.95,-52.26 -48.57,-61.95 -9.94,-6.45 -15.08,-12.58 -22.37,-22.98 -7.51,-0.38 -9.03,-5.61 -16.34,-12.81 -5.81,-5.74 -10.73,-9.25 -17.16,-15.37 -7.68,-7.33 -29.36,-25.06 -32.52,-30.87 -11.57,-4.68 -15.04,-8.83 -21.5,-18.92 -7.26,-1.19 -8.5,-2.12 -15.19,-7.29 -38.99,-30.12 -65.82,-44.89 -111.63,-67.21 3.29,-16.85 35.06,-36.43 46.74,-37.53 2.63,-2.87 1.39,-2.01 5.34,-4.66 9.67,-6.45 39.54,-14.68 50.85,-17.8 43.19,-8.39 88.47,-17.6 134.44,-13.03 46.01,4.57 85.11,10.66 132.94,13.6l38.2 0.64c44.91,-5.81 71.65,-4.66 114.99,-17.73 19.67,-5.94 93.19,-30.16 110.59,-26.1 10.86,-6.93 17.11,-5.1 33.01,-5.5 23.16,-0.57 103.55,-2.61 116.42,5.9 14.02,-1.52 11.72,0.95 23.98,1.81 -4.77,-28.04 -54.38,-91.83 -57.85,-101.03 -8.01,-6.58 -7.13,-4.99 -10.95,-15.74 -11.79,-5.92 -14.44,-14.93 -24.53,-24.31 -9.54,-8.85 -17.44,-15.04 -24.77,-25.35 -6.8,-5.03 -20.62,-18.99 -25.08,-25.37 -10.29,-4.04 -31.59,-22.85 -42.13,-30.67 -13.11,-9.74 -31.15,-20.89 -46.74,-29.59 -25.43,-14.2 -69.26,-36.47 -104.23,-43.05 -14.31,-4.88 -39.74,-6.23 -49.61,-14.77l-210.06 -31.26 -85.31 -15.81c-28.97,-5.39 -78.87,-18.94 -101.69,-30.49 -17.69,-5.63 -45.95,-16.03 -55.82,-28.48 -12.34,-0.99 -21.77,-9.63 -33.8,-18.74 -13.23,-10.02 -25.59,-16.45 -26.12,-23.89l-11.88 -11.72c-7.44,-0.35 -8.1,-4.97 -13.76,-12.56 -4.11,-5.52 -8.46,-10.95 -12.54,-16.85 -7.44,-10.77 -15.74,-21.39 -21.33,-37l-14.59 -36.69c-13.73,-37.11 -8.39,-87.21 5.72,-122.23 1.59,-5.23 3.29,-10.58 4.9,-14.44l6.93 -11.79c0.33,-0.44 0.99,-1.28 1.57,-1.85 -0.2,-14.48 25.92,-60.08 33.78,-71.01l33.71 -67.43c-0.09,-8.54 64.67,-160.18 -15.46,-243.04 -4.61,-4.77 -19.5,-17.27 -21.57,-20.82 -9.58,-2.8 -24.09,-8.63 -30.78,-15.65l-42.92 -4.81c20,-33.52 134.15,-70.19 186.57,-75.33 14.57,-1.44 16.96,-4.88 29.56,-6.69l-12.14 -3.67 -61.29 -4.19c-18.19,-0.13 -39.15,2.56 -56.17,-2.01 -8.28,5.45 -11.7,3.89 -23.58,4.37 -8.3,0.33 -16.67,0.91 -24.97,1.52 -16.93,1.28 -33.12,3.02 -49.92,4.66 -68.31,7.71 -158.56,32.74 -216.78,69.17 -8.9,5.56 -13.36,10.84 -22.92,15.23 8.39,-22.48 48,-91.45 61.78,-102.49 9.89,-23.16 89.87,-104.48 112.81,-111.96 14.06,-18.66 77.76,-47.62 106.88,-59.72 22.41,-9.32 102.75,-43.43 124.77,-42.17 9.63,-9.27 33.96,-13.31 48.9,-15.76 8.52,-4.57 45.95,-14.24 57.12,-13.62 8.21,-6.98 24.4,-8.54 37.07,-11.13 99.46,-22.3 199.94,-33.89 303.78,-44.71 112.71,-11.77 227.7,-4.68 340.81,-4.39l26.41 4.08c29.32,-4.86 165.35,11.99 196.5,19.83 11.75,0.57 29.45,1.13 37.07,6.98 10.84,-0.62 70.96,8.08 77.56,13.49l63.17 15.32c23.78,-2.72 209.28,55.84 236.64,67.45 8.81,1.68 4.66,-0.26 13.49,3.71 7.48,3.38 4.81,2.67 8.17,5.45 10.4,-0.42 33.98,7.75 44.16,13.31 8.48,1.99 31.33,9.8 38.33,15.92 15.43,1.13 91.69,35.15 112.91,43.94 19.08,7.93 36.54,15.87 55.4,23.93 17.35,7.44 34.88,17.88 52.24,24.29 7.42,3.4 14.44,7.02 21.97,10.18 3.09,1.3 7.22,2.65 10.38,4.24 8.96,4.55 5.28,1.55 10.88,8.43 10.05,0.31 45.46,25.08 55.24,31.42l104.32 69.06 181.02 142.34c15.15,13.07 43.87,34.42 53.72,50.58 9.69,4.42 11.06,6.84 15.92,16.18 10.6,4.24 36.89,29.23 45.22,38.9 8.72,10.16 14.17,13.38 20.29,20.73 4.7,5.65 3.22,5.63 9.12,11.55 37.6,37.8 130.55,144.02 160.11,192.55 16.12,26.45 52.86,75.53 62.88,102.98 7.62,5.59 71.12,117.04 72.48,128.14 9.32,7.02 18.06,25.81 21.88,38.11 6.91,3.51 40.82,72.68 48.4,86.53 8.39,15.34 47.05,82.95 47.43,92.42 2.45,2.43 2.32,1.24 4.7,5.39 2.32,4.02 1.28,2.65 2.76,6.76 7.71,11.88 41.99,74.47 42.41,84.94 7.04,6.03 11.79,16.36 15.61,24.07 4.37,8.81 8.92,17.91 12.52,26.72 20.09,33.12 41.27,78.31 59.57,115.58 24.73,50.34 184.18,331.71 189.68,345.4l-92.18 -85.22c-8.79,-5.32 -19.96,-11.46 -24.07,-22.5 -11.22,-2.38 -12.43,-4.37 -18.63,-14.26 -8.88,-1.79 -58.73,-43.45 -59.9,-45.84 -11.44,-4 -10.18,-3.14 -16.47,-12.94 -7.75,-1.24 -83.44,-51.33 -97.57,-60.1 -15.9,-9.87 -33.38,-18.79 -51.18,-28.06 -16.32,-8.5 -41,-18.68 -53.74,-27.97l-9.56 -5.74c-7.82,-0.95 -6.03,-2.78 -6.03,4.84 7.22,4.26 3.09,1.37 5.78,8.88 7.48,4.46 35.88,51.73 37.4,62.39 5.94,5.3 2.65,1.59 7.18,8.9 1.77,2.87 4.33,8.46 5.94,11.68 4.13,8.28 8.72,15.85 11.66,23.69 11.88,21.5 86.28,172.9 86.88,188.64 12.63,12.28 23.56,49.43 31.15,67.23 7.66,18.39 33.74,70.17 33.74,87.52 2.3,2.3 2.38,1.37 4.72,5.41 2.45,4.22 1.28,2.58 2.85,6.84l43.74 109.31 26.14 66.17c5.45,9.27 19.3,43.67 19.23,54.49 8.81,7.66 13.8,25.13 16.76,37.93 6.84,14.13 37.03,89.22 36.45,99.02 8.41,9.36 27,62.55 26.89,69.88 -8.61,-6.38 -51.71,-43.23 -58.51,-53.06 -5.63,-1.35 0.02,1.26 -5.45,-2.23 -6.95,-4.44 -37.42,-28.97 -38.46,-34.66 -13.98,-6.93 -14.99,-6.01 -23.07,-18.97 -11.88,-1.3 -2.87,1.48 -13.27,-6.34 -48.2,-36.28 -73.19,-58.33 -130.68,-98.56 -6.29,-4.42 -44.42,-28.53 -47.56,-34.84 -11.86,-4.99 -25.02,-11.41 -31.82,-22.01 -14.2,-1.28 -34.97,-19.69 -47.89,-27.62 -63.34,-38.97 -90.13,-50.54 -153.49,-82.22 -10.4,-2.45 -29.08,-10.95 -38.39,-6.29 5.17,15.3 17.51,16.67 24.71,37.18 9.58,4.17 31.53,35.37 33.45,46.37 9.91,5.54 30.23,39.98 34.53,51.64 12.54,2.83 136.58,239.42 144.51,260.37l34.91 72.44c11.83,24.2 83.35,177.73 83.83,192.53l10.69 20.6c3.53,9.52 6.42,13.89 8.48,23.49 6.03,7.79 29.85,64.47 30.27,75.58 9.67,8.88 15.63,31.86 18.94,45.75 6.91,8.79 42.35,103.44 47.93,121.76l-86.08 -70.96c-7.71,-4.26 -12.98,-9.65 -18.9,-14.15 -7.79,-5.94 -13.64,-9.36 -20.56,-14.93 -9.32,-5.41 -15.65,-10.35 -24.24,-16.65 -5.74,-4.19 -7.4,-5.34 -12.17,-8.63l-9.3 -7.75 -35.04 -21.09 -110.48 -60.03c-1.94,-0.95 -6.29,-3.07 -7.77,-4 -0.6,-0.38 -1.3,-0.79 -1.88,-1.19 -0.6,-0.4 -1.28,-0.93 -1.85,-1.35 -3.36,-2.56 -3.09,-2.41 -5.28,-4.81 -7.51,-0.51 -77.34,-33.71 -92.89,-40.85 -29.41,-13.49 -66.61,-24.75 -98.49,-37.03 -13.87,-4.37 -27.66,-9.47 -41.82,-13.67 -13.03,-3.86 -33.14,-6.58 -42.06,-14.48 -16.56,0 -63.87,-15.74 -84.47,-20.71 -20.78,-5.01 -69.64,-11.72 -86.84,-18.3l-94.74 -12.14 10.88 12.01c21.57,-0.18 86.59,35.66 108.45,45.22 10.69,4.61 47.29,21.86 54.8,31.77 7.9,1.32 7.18,1.3 16.23,6.25 6.58,3.6 8.28,4.48 13.91,8.61 11.19,8.04 24.93,14.33 37.47,22.21 12.87,8.1 22.28,15.04 35.88,22.61l200.92 146.29 248.76 230.26 79.77 93.86c32.65,41.31 151.88,204.21 156.76,236.21 10.49,6.56 18.33,23.36 22.34,35.44 20.78,26.47 142.56,284.62 142.32,317.6 8.81,7.22 12.52,25.24 15.46,37.31 8.43,12.65 60.47,178.09 58.57,193.45 2.8,3.36 1.39,-0.11 4.97,7.97 1.28,2.87 1.7,5.12 2.54,8.48 4.39,31.09 37.71,130 33.74,150.82l7.44 18.5c1.9,18.63 8.01,34.51 6.98,53.43 7.35,9.47 1.85,14.86 6.84,24.75 10.66,-13.29 2.14,-20.91 10.2,-29.52 -0.07,-12.5 7.84,-50.67 11.15,-65.33 4.13,-18.17 7.33,-47.14 9.45,-67.63 5.01,-48.46 8.65,-95.8 9.67,-145.12l0 -60.32c0.11,-77.43 -4.88,-145.83 -11.64,-221.34 -2.65,-29.74 -28.55,-196.17 -25.3,-207.76 -1.99,-3 -0.84,1.59 -3.51,-7.33 -1.48,-4.88 -1.17,-4.99 -1.59,-9.98l-10.95 -70.35c-7.88,-30.58 -9.94,-66.59 -18.02,-97.76 -4.88,-18.86 -20.82,-82.35 -18.61,-97.79 -1.94,-2.72 -0.71,0.4 -3.47,-6.12l-5.52 -21.66c-2.16,-9.3 -5.41,-21.55 -7.13,-32.28 -4.84,-19.78 -25.7,-88.4 -25.02,-101.05 -5.85,-8.04 -10.84,-33.65 -16.51,-47.91l-23.32 -77.76c-7.2,-27.62 -17.33,-49.61 -25.81,-74.89 -8.52,-25.37 -17.55,-49.06 -27.07,-74.47l-5.48 -14.77c-6.56,-11.88 -13.49,-29.32 -19.74,-43.69 -6.51,-15.01 -12.61,-30.16 -19.32,-45.33l-44.51 -90.21 81.89 55.68c6.91,4.84 75.82,48.02 78.47,56.72 9.05,4.15 5.74,2.49 8.94,7.22 10.09,1.48 18.63,10.35 30.05,18.55l29.7 23.25c19.65,16.47 37.51,29.43 56.26,46.5l54.23 48.73c9.3,9.16 16.23,14.62 25.7,24.29 6.87,7 18.02,21.09 27.8,26.6l-8.08 -24 -24.44 -65.18c-5.63,-5.43 -25.74,-58.11 -25.59,-67.91 -8.3,-8.39 -11.72,-25.04 -16.74,-37.14 -7.46,-18.97 -36.3,-82.44 -36.12,-95.49 -9.27,-8.59 -18.39,-38.24 -21.79,-52.26 -6.03,-6.8 -28.17,-61.05 -28.61,-69.9l-12.34 -21.42c-3.89,-9.45 -6.45,-15.96 -8.92,-26.25 -3.38,-3.09 -40.54,-87.14 -46.5,-100.41 -9.34,-20.82 -44.67,-88.82 -46.3,-103.35 -6.05,-5.45 -8.04,-7.97 -9.03,-16.93l-7.57 -10.77 -14.57 -32.08c-6.49,-7.99 -17.16,-26.43 -20.67,-38.59 -9.38,-12.19 -21.48,-33.27 -26.43,-50.58 -2.98,-1.52 -2.54,-1.63 -6.18,-7.73l-106.55 -190.96c12.23,-0.09 1.97,-1.04 25.26,16.27 46.3,34.42 83.08,64.27 133.27,98.96 9.52,6.58 18.3,11.99 27.75,19.23 14.17,10.86 23.07,13.14 24,19.67l109.89 69.75c6.05,4.28 3.53,1.72 8.59,7.64 8.28,2.14 33.6,19.83 43.03,26.07 14.33,9.52 28.46,17.27 43.69,26.76 9.32,5.81 86.99,50.05 88.73,52.57 8.04,2.49 8.92,4.02 15.04,6.23 10.91,3.93 5.63,4.55 8.01,-0.46l-23.45 -56.87c-4.7,-6.25 -7.82,-13.31 -7.64,-21.33 -4.97,-3.16 -2.36,5.08 -4.75,-6.45 -10.84,-17.18 -20.75,-46.52 -30.73,-65.95 -11.72,-22.83 -20.93,-44.64 -32.12,-67.65 -8.48,-17.38 -60.83,-122.82 -62.09,-133.36 -2.3,-2.74 -0.77,-0.42 -4.35,-5.74l-22.56 -48.24c-6.05,-3.71 -30.14,-53.96 -31.02,-62.26 -3.6,-3.07 -1.5,-0.82 -4.59,-5.01 -1.68,-2.27 -3.4,-5.32 -4.55,-7.46 -2.98,-5.5 -5.19,-9.91 -7.57,-15.85 -9.45,-14.44 -16.74,-32.26 -24.33,-46.19 -8.37,-15.34 -22.14,-32.94 -23.43,-49.46l-5.06 -4.15 -36.98 -68.91c-1.79,-3.31 -4.24,-7.97 -6.07,-11.61 -4.79,-9.56 -4.04,-5.81 -4.95,-14.62 -7.31,-5.08 -4.61,-2.45 -9.78,-11.94 -2.23,-4.08 -4.24,-8.37 -7.02,-13.42 -5.23,-9.47 -11.04,-18.1 -14.02,-27.58 -7.37,-11.75 -18.15,-25.19 -19.1,-38.26 -9.63,-5.76 -10.58,-12.78 -16.21,-23.05 -5.65,-10.31 -11.17,-17.6 -14.81,-29.36 -6.05,-3.44 -48.73,-82.68 -57.49,-98.05 -5.9,-10.35 -56.72,-97.08 -60.32,-99.4l-4.31 -14.31c-14.99,-11.68 -89.82,-143.31 -92.29,-149.8 -7.51,-6.09 -19.83,-25.83 -22.03,-35.66 -7.79,-5.1 -4.39,-2.12 -10.16,-11.59 -2.89,-4.75 -4.04,-6.67 -7.86,-12.74 -6.29,-9.98 -11.79,-17.44 -16.56,-28.86 -6.73,-6.84 -43.41,-60.58 -45.57,-72.22 -2.25,-2.12 -2.87,-1.9 -4.92,-5.06 -3.69,-5.61 -2.05,-2.47 -4.35,-9.36 -7.11,-4.13 -53.34,-75.27 -62.35,-88.62 -10.66,-15.81 -20.07,-27.71 -31.71,-44.78 -10.11,-14.88 -24.42,-32.08 -32.65,-46.72 -8.06,-6.93 -28.44,-33.07 -31.79,-43.16 -9.16,-5.76 -28.99,-30.53 -34.66,-40.07 -3.09,-5.21 -0.77,-0.22 -2.36,-5.61 -11.22,-6.38 -33.8,-34.4 -38.77,-45.68 -11,-3.29 -13.95,-12.72 -21.81,-21.2 -8.41,-9.1 -17.42,-12.89 -18.9,-24.11 -11.59,-7.22 -24.68,-20.82 -34.09,-31.64 -11.26,-12.94 -21.59,-21.42 -28.77,-34.22 -7.93,-2.41 -5.94,-2.41 -12.85,-9.34 -5.56,-5.61 -6.45,-6.31 -12.43,-11.26 -8.72,-7.22 -16.65,-15.06 -22.56,-23.6 -9.54,-6.03 -15.39,-14.17 -22.96,-20.2l-87.39 -75.84c-8.99,-7.51 -6.18,-0.49 -11.79,-12.72 -12.25,-2.45 -8.68,-4.35 -18.86,-12.56 -7.33,-5.94 -11.15,-7.64 -18.59,-13.78 -11.04,-9.12 -22.5,-16.76 -33.67,-26.78 -4.99,-2.87 -6.91,-4.15 -11.37,-7.51 -1.35,-1.02 -3.67,-2.89 -5.01,-4.08 -5.19,-4.57 -1.63,-1.37 -5.01,-4.81 -11.37,-3.71 -34.2,-21.57 -45.46,-29.74 -14.7,-10.66 -30.49,-20.36 -46.08,-30.42 -31.75,-20.51 -61.31,-35.22 -92.64,-56.46l-41.62 -24.97c-8.39,-0.84 -4.95,-0.13 -14.46,-4.99 -3.97,-2.01 -7.37,-4.02 -11.53,-6.16 -8.61,-4.42 -16.38,-7.88 -23.91,-13.47l-16.98 -8.3c-12.76,-3.18 -47.31,-20.75 -60.16,-27 -19.23,-9.34 -39.41,-17.35 -59.68,-25.59l-122.54 -47.25 -46.9 -15.83c-6.38,-3.25 -3.05,-1.48 -6.14,-3.82 -12.58,0.68 -96.44,-26.83 -118.85,-32.5 -32.99,-8.35 -93.04,-24.77 -124.46,-28.15 -13.84,-2.47 -4.64,-1.08 -8.32,-4.33l-150.8 -24.2c-14.77,-1.77 -49.7,-4.13 -59.46,-10.69 -15.34,4.57 -128.37,-9.87 -154.55,-11.97 -102.2,-8.21 -219.88,-11.08 -322.44,-3.33l-154.55 9.18 0.03 -0.02zm-981.46 909.25c-3.67,58.18 16.8,122.25 56.65,155.28 45.17,37.45 88.78,49.57 165.28,48.55l-6.62 -11.24c-8.37,-0.57 -95.45,-41.91 -97.46,-57.23 -10.07,-6.16 -9.05,-4.31 -13.82,-14.13 -12.98,-4.44 -40.74,-50.8 -38.35,-70.12 -7.9,-10.27 -13.36,-41.27 -15.7,-63.9 -3.91,-40.07 -11.35,-75.69 -11.37,-117.46 -5.32,2.38 -5.34,2.21 -10.88,13.62 -19.69,40.58 -24.42,69.64 -27.73,116.6l0 0.03zm1272.43 -63.3c41.02,-10.51 47.34,48.11 14.86,54.67 -39.81,8.04 -51.07,-45.37 -14.86,-54.67zm313.87 -59.3c12.08,10.62 19.63,50.32 21.2,69.66 3.91,21.68 4.59,70.85 -2.01,91.14 -0.77,6.2 -1.7,14.79 -3.38,20.4 -0.04,0.15 -2.52,6.34 -2.54,6.38 -4.59,9.36 -0.24,1.59 -4.04,6.16l-2.1 8.32c-31.71,-1.15 -76.39,-26.91 -76.48,-26.94 -12.34,-3 -4.59,-8.19 -8.83,3.27 5.85,4.02 34.13,46.63 38.68,56.63l-70.08 -26.07c0.93,16.47 13.67,19.94 15.41,37.73 10.75,9.12 18.86,30.42 23.54,43.41 -15.08,19.21 -56.87,34.22 -86.84,42.06 -17.97,4.39 -39.76,9.49 -59.55,6.76 -14.04,9.56 -57.25,-0.33 -75.2,-4.86 -11.33,-2.87 -13.78,-3.07 -21.11,-9.67 -26.52,-0.11 -86.35,-57.21 -89.82,-81.8 -7.53,-6.36 -10.02,-12.76 -12.43,-23.36l23.09 -17.07c13.47,-10.69 7,-1.17 11.55,-12.21 -12.96,-0.99 -31.75,1.06 -40.62,-6.09l13.38 -10.31c4.95,-14.84 7.2,-2.72 13.07,-19.32l-47.09 -2.69c-8.94,-37.75 -10.6,-54.29 -11.44,-96.55 7.71,-4.35 71.45,-12.78 72.48,-12.83 -20.05,71.12 -0.22,77.78 -0.95,113.48 12.1,13.4 13.67,40.18 32.12,56.3 21.73,17.95 36.85,35.15 75.82,42.02 20.56,3.62 31.13,3.4 51.29,0.38 14.81,-2.23 37.73,-9.14 48.42,-9.98l7.33 -5.3c19.76,-13.87 28.17,-18.63 43.83,-35.24 17.95,-19.01 16.43,-26.23 30.98,-45.97 9.56,-37.69 12.7,-57.67 3.44,-98.16 -10,-43.74 -33.67,-55.15 -35.44,-68.4 28.26,-3.67 94.5,-7.33 121.74,-2.83l2.47 11.57 0.11 -0.02zm-499.88 -175.57l-88.05 22.34c-51.75,24.2 -99.53,26.96 -139.47,102.56 -7.86,14.88 -18.48,37.49 -23.23,56.41 -3.49,26.36 -4.37,45.75 -2.61,72.73 10.4,28.57 1.39,40.69 31.42,73.59l2.36 -3.69c9.6,-16.47 22.61,-52.68 32.23,-62.84l5.81 -11.19c39.61,-71.01 46.85,-14.48 58.82,31.35 17.99,68.8 29.63,142.5 73.68,202.68 68.53,93.64 122.74,105.12 235.69,129.49l22.5 1.1 -8.48 -7.64c-0.4,-0.33 -1.15,-0.93 -1.7,-1.41 -14.9,-1.55 -48.26,-20.07 -50.56,-24.66 -45.77,-13.67 -99.29,-68.6 -122.51,-116.11 -20.09,-41.11 -49.01,-147.75 -22.98,-192.35 2.74,74.69 29.96,173.21 81.05,222.49 45.81,44.2 18.88,17.2 49.61,41.66 0.55,0.44 1.24,0.99 1.77,1.46 6.56,5.52 1.46,0.91 5.28,4.95 8.39,0.79 32.39,13.49 48.11,17.82 19.74,5.41 36.56,8.39 58.2,10.16 36.89,2.23 60.83,-1.74 95.45,-4.95 18.63,-5.61 36.94,-8.24 56.01,-14.75 17.42,-5.94 36.56,-17.77 53.61,-23.56 4.88,-7.15 9.43,-8.7 17.13,-11.94 6.38,-8.15 27.84,-21.68 52.08,-53.34 5.14,-6.71 8.17,-15.48 14.7,-20.86l8.24 -18.41c4.61,-13.47 10.69,-24.77 15.65,-39.83 5.32,-16.07 6.58,-30.38 10.38,-45.81 4.57,-27.25 3.09,-64.29 1.41,-92.18 -3.62,-28.9 -14.77,-57.6 -17.51,-80.52l75.58 12.3 70.96 19.36c15.63,0.42 72.24,24.2 90.19,30.25l6.69 4.59c-2.34,-8.52 -2.08,-5.14 -5.59,-13.84 -9.45,-4.11 -20.14,-16.12 -29.1,-25.13 -50.78,-50.98 -179.88,-118.92 -252.09,-115.67 -1.57,-0.38 -7.24,-2.12 -8.99,-2.78 -0.62,-0.24 -1.74,-0.22 -2.19,-1.26 -0.42,-0.95 -1.28,-0.91 -1.92,-1.35l-111.14 0.13c-16.45,1.28 -54.42,8.61 -66.77,5.63 -3.51,5.01 4.57,1.44 -4.77,4.15 -44.2,4.57 -188.35,46.63 -221.94,37.03 -3.73,1.97 -0.73,0.93 -6.8,2.25 -14.26,3.14 -36.54,1.32 -50.52,0.42 -13.03,-0.84 -43.47,-1.06 -54.53,-8.83 -13.38,0.38 -26.67,-3.49 -38.44,-8.37 7.75,-22.19 62.88,-58.35 91.52,-72.55 54.25,-26.89 117.9,-32.28 125.43,-35.66 -29.48,-15.72 -123.42,6.62 -159.72,4.61l0.05 -0.03z"/>
 </g>
</svg>
