<?xml version="1.0" encoding="utf-8"?>
<!-- Generator: Adobe Illustrator 24.0.2, SVG Export Plug-In . SVG Version: 6.00 Build 0)  -->
<svg version="1.1" id="Слой_1" xmlns="http://www.w3.org/2000/svg" xmlns:xlink="http://www.w3.org/1999/xlink" x="0px" y="0px"
	 viewBox="0 0 238.1 150.2" style="enable-background:new 0 0 238.1 150.2;" xml:space="preserve">
<g>
	<path d="M193.7,50.4c-0.3,0-0.7,0.1-1.3,0.1c0.8,0.8,1.5,1.5,2.1,2.1c0,0.1-0.1,0.1-0.1,0.2c-1.5-0.6-3.1-1.1-4.6-1.7
		c-1.3-0.5-2.5-1-3.8-1.4c-0.1-0.1-0.4,0.1-0.6,0.2c-0.3,0.2-0.6,0.4-1,0.6c0.1-0.3,0.2-0.5,0.3-1c-0.5,0.2-0.9,0.2-1.2,0.5
		c-0.1,0.1,0,0.6,0.1,0.9c1,1.8,2.3,3.2,4.2,3.9c0.1,0,0.3,0.1,0.4,0.1s0.1,0,0.2,0c-0.7-0.6-1.4-1.2-2.1-1.8
		c1.6,0.6,3.3,0.7,4.5,2.1c0.4,0.5,0.5,1,0.6,1.5c0.4,1.6,1.7,2.6,2.7,3.9c0.6,0.8,1.4,1.5,2,2.3c0.3,0.3,0.4,0.8,0.6,1.2
		c-0.1,0.1-0.1,0.1-0.2,0.2c-0.9-0.9-1.8-1.9-2.6-2.8c-0.1,0.1-0.2,0.1-0.2,0.2c0.3,0.9,0.5,1.9,0.8,2.8c0.4,1.4,0.8,2.7,1.3,4.1
		c0.2,0.6,0.7,1.1,1.2,1.8c-0.7-0.3-1.3-0.3-1.5-1.1c-0.1-0.6-0.4-1.2-0.6-1.8c-0.6-2-1-4-1.7-6c-0.5-1.4-1.5-2.5-2.8-3.4
		c-0.9-0.7-1.8-0.3-2.4,0.6c-0.3,0.4-0.5,0.8-0.9,1.2c1,0.3,1.8,0.5,2.9,0.8c-0.4,0.1-0.5,0.2-0.7,0.2c0.3,0.2,0.6,0.3,0.9,0.4
		c0,0.1-0.1,0.3-0.1,0.4c0.4,0.5,0.9,1,1.3,1.6c0.2,0.3,0.8,0.5,0.3,1c0,0,0.2,0.4,0.3,0.6c0.4,0.8,0.7,1.7,1,2.3
		c0.2,0.1,0.5,0.2,0.6,0.3c0.4,1.1,0.9,2.2,1.1,3.4c0.2,1.2,0.8,2.1,1.3,3.1c0.2,0.4,0.5,0.8,0.7,1.1c0.4,0.6,0.8,1.2,1.2,1.9
		c0.1,0.2,0.2,0.5,0.1,0.9c-0.7-0.6-1.3-1.2-2-1.7c-0.4-0.3-0.7-0.7-1.2-0.9c-0.7-0.3-1-0.8-1.2-1.5c-0.1-0.5-0.2-0.9-0.4-1.6
		c0.4,0.2,0.7,0.4,1.1,0.6c-0.2-0.8-0.3-1.5-1-2c-0.5-0.4-0.6-1.2-0.9-1.9c-0.4-1.1-0.8-2.2-1.2-3.4c-0.2-0.5-0.2-1.1-0.4-1.5
		c-0.6-0.9-1.3-1.7-1.9-2.6c-0.7,0.5-1.8,0-1.9,1c0.3,0.5,0.5,0.9,0.8,1.2c0.2,0.3,0.6,0.5,0.8,0.7c0.1,0.1,0.3,0.3,0.4,0.4
		c0,0.1-0.1,0.1-0.1,0.2c-0.1-0.1-0.2-0.1-0.4-0.2c0,0.1-0.1,0.1,0,0.2c0.3,0.4,0,0.8,0,1.3c0,0.8,0.1,1.6,0.1,2.4
		c0,0.4,0,0.7,0,1.1c0,0.2,0.1,0.4,0.1,0.6c0.2-0.2,0.3-0.4,0.6-0.6c-0.3,2.3-1.3,4.6-0.6,7c0-0.1,0.1-0.2,0.1-0.6
		c0.4,1.4,0.8,2.6,2,3.3c-0.5-0.1-0.9-0.2-1.5-0.4c0.9,2.4,3.2,3.3,4.5,5.3c-0.3-0.1-0.5-0.2-0.8-0.4c0.3,0.6,0.5,1,0.7,1.5
		c-0.5-0.3-1-0.7-1.5-1.1c0.1,0.5,0.2,0.9,0.4,1.3c-3.2-2.6-7.2-3-10.7-4.7c-0.1,0.1-0.1,0.1-0.2,0.2c0.1,0.2,0.2,0.4,0.4,0.5
		c0.6,0.3,1.2,0.5,1.8,0.8c0.4,0.2,0.7,0.5,1.1,0.7c0.4,0.2,0.8,0.3,1.2,0.5c0.3,0.1,0.5,0.4,0.7,0.7c-1.1-0.1-2.2-0.9-3.1,0.5
		c0.3,0.2,0.6,0.4,0.9,0.6c0.4,0.2,0.3,0.1,0.3,0.6c-0.1,0.3,0.2,0.6,0.3,1c-1-0.7-1.9-1.9-3.2-0.7c0.4,1.5,1.8,2,2.9,2.5
		c-0.2,0.1-0.4,0.3-0.6,0.5c0,0-0.1,0.1-0.1,0c-2.9-0.1-5.7-0.7-8.4-2.1c2.3,0.1,4.5,0.2,6.6,0.8c-0.3-0.5-0.7-1.1-1.2-1.8
		c-0.3,0-0.8-0.3-1.1-0.1c-1.2,0.5-2.1-0.3-3.2-0.3c-0.4,0-0.8,0.2-1.2,0.5c1,0.2,2,0.4,3.1,0.6c0,0.1,0,0.2,0,0.3
		c-1.4-0.1-2.7-0.2-4.1-0.3c0,0.1,0,0.2,0,0.3c1.2,0.5,2.4,0.9,3.6,1.4c0,0.1,0,0.2-0.1,0.2c-1.3-0.3-2.5-0.5-3.8-0.8
		c0,0.2-0.1,0.4-0.1,0.7c1.2,0.2,2.5,0.7,3.6,0.6c2-0.2,3.6,0.7,5.3,1.2c0.1,0,0.2,0.1,0.4,0.3c-0.9-0.1-1.7-0.1-2.5-0.2
		c0,0.1,0,0.1,0,0.2c0.6,0.1,1.1,0.2,1.7,0.3c1.1,0.1,1.8,0.9,1.6,2c0,0.1,0,0.2,0,0.3c-0.6-0.1-1.1-0.3-1.8-0.4
		c1.7,3.9,3.9,7.6,2.9,12.2c0,0-0.1,0-0.3,0.1c-0.5-1.4-2.1-1.7-2.7-2.9c0.2-0.1,0.5-0.2,0.7-0.3c-0.1-0.3-0.2-0.6-0.4-0.8
		c-0.3-0.3-0.6-0.6-1-0.9c0.3-0.6,0-1.1-1.2-1.8c-0.2,0.4,0,1.2-0.8,0.8c0,0.3-0.1,0.6-0.1,0.9s0,0.6,0,1c-0.3-0.2-0.4-0.3-0.5-0.4
		c-0.1,0-0.1,0.1-0.2,0.1c0.5,1.1,1,2.3,1.5,3.4c0.1,0,0.1,0,0.2,0c0-0.3,0.1-0.6,0.2-1.2c0.3,0.4,0.5,0.6,0.6,0.8
		c1.1,2.2,1.6,4.7,2.2,7c0.1,0.3,0.2,0.5,0.3,1c0.1-0.9,0.1-1.7,0.1-2.4c0.1,0,0.3,0,0.5,0c0.1,0,0.3,0.2,0.3,0.3
		c0,1.2,1,1.9,1.2,2.9c0.2,1.3,0.6,2.6,0.9,3.9c-0.1,0-0.2,0.1-0.3,0.1c-0.2-0.3-0.4-0.6-0.5-1c-0.2-0.5,0-1.2-0.7-1.5
		c-0.1,0,0-0.3,0-0.5c0-0.3,0.1-0.5,0.1-0.8c-0.8,1.7-1.2,6.2-0.6,7.3c0.8-0.4,1.6-0.8,2.5-1.2c-0.2-0.4-0.4-0.6-0.6-0.9
		c0.6,0.4,1.1,0.7,1.4-0.2c0.1-0.3,0.1-0.6,0.2-0.9c0-0.2,0-0.4,0-0.6c0.1-0.3,0.3-0.5,0.5-0.7c0.1,0,0.2,0.1,0.3,0.1
		c0.1-1,0.2-2.1,0.3-3.1c-0.1,0-0.2,0-0.2-0.1c-0.1,0.1-0.1,0.2-0.3,0.4c-0.1-0.4-0.3-0.7-0.2-0.9c0.4-0.9-0.7-2,0.2-2.8
		c0.3,0.7,0.5,1.4,0.8,2.1h0.1c0.1-0.6,0.1-1.3,0.2-1.8c0.2-0.2,0.5-0.3,0.5-0.4c-0.1-1-0.2-2-0.3-3.1c0-0.3-0.1-0.6,0-1
		c0.2,1.5,1.6,2.9,0.4,4.6c0.1,0,0.2,0,0.3,0c0-0.1,0.1-0.3,0.2-0.6c0.6,1.5-0.9,2.7-0.3,4.1c1.3-0.9,2.4-1.8,2.3-3.6
		c-0.1-1.1,0.1-2.1,0.1-3.2l0,0c0.2,0.2,0.4,0.3,0.6,0.5c0.1-0.8,0.2-1.6,0.4-2.5c0.3-1.4,0.6-2.8,0.9-4.2c0.1-0.3,0.2-0.7,0.1-1
		c-0.4-1.1,0.2-1.9,0.5-2.8c0.2-0.6,0.3-1.2,0.4-1.9c0.2-1.6,0.4-3.2,0.6-4.7c0.1,0,0.1,0,0.2,0c-0.2,1.4-0.4,2.9-0.5,4.3
		c-0.1,0.5-0.2,1,0,1.4c0.4,0.9,0.3,1.9,0.2,2.8c-0.2,2.6,0.7,4.9,1.9,7.1c1.1,1.9,2.3,3.7,3.3,5.7c0.4,0.8,0.5,1.7,0.6,2.7
		c-0.4-1-0.9-2-1.4-3.1c-0.7,0.8-0.2,1.6-0.6,2.5c-1-3.1-1.9-6-2.8-9c-0.1,0-0.2,0-0.3,0.1c0,0.5,0.1,1,0.1,1.5c-0.1,0-0.1,0-0.2,0
		c-0.2-1-0.3-1.9-0.5-2.9c-0.1,0-0.2,0-0.3,0c-0.7,1.5-0.2,3.1-0.7,4.8c0.4-0.2,0.6-0.2,0.9-0.4c-0.3,0.6-0.5,1.1-0.7,1.7
		c-0.5,1.2-1,2.4-1.6,3.6c-0.3,0.5-0.8,0.9-1.2,1.2c-1.6,1.1-2.4,2.8-3,4.5c-0.4,1.1-0.6,2.2-0.8,3.4c-0.1,0.3-0.9,0.4-0.2,0.9
		c-0.1,0-0.2,0-0.4-0.1c0.3,0.8,0.5,1.5,0.8,2.2c-0.1,0-0.2,0.1-0.2,0.1c-0.3-0.7-0.5-1.3-0.8-2.1c-0.2,0.3-0.4,0.6-0.5,0.7
		c-0.1-1.1-0.3-2.3-0.5-3.7c-0.5,0.3-0.9,0.5-1.3,0.7s-0.8,0.6-1.4,0.4c-0.1,0-0.5,0.2-0.6,0.4c-0.1,0.2-0.1,0.5-0.1,0.7
		c0,1.3,0,2.5,0,3.6c-0.2-0.8-0.5-1.9-0.8-3c-0.3-0.9-0.3-0.9-1-0.3c-0.1,0.1-0.3,0-0.4,0c0,1.4,0,2.7,0,4c-0.4-1.3,0.2-2.8-0.5-4.1
		c-0.5,0.2-0.8,0.4-1.3,0.7c0,0.4,0,0.8,0,1.3c-0.2-0.4-0.4-0.8-0.6-1.1c-0.1-0.1-0.4-0.1-0.6-0.1c0,0.2-0.1,0.4-0.1,0.5
		c0.3,0.7,0,1.6,0.9,2c0.1,0,0.1,0.4,0,0.5c-0.3,0.6-0.7,1.1-1.2,1.7c0.1-0.5,0.1-1,0.2-1.5c0.2-1-0.1-2-0.8-2.3
		c-0.8-0.3-2,0.2-2.7,0.8c-1.5,1.5-2.3,3.4-3.5,5.1c0-0.9,0-1.7,0-2.6c-0.1,0-0.2-0.1-0.2,0c-1.1,0.7-2.2,1.4-3.3,2.2
		c-0.9,0.7-1.7,1.5-2.6,2.2c-0.2,0.2-0.5,0.2-0.8,0.3c0-0.3-0.1-0.6-0.1-0.9c0.2-1.5,0.4-3,0.5-4.5c0-0.2-0.2-0.5-0.5-0.7
		c0.2-0.9,0.4-1.8,0-2.8c-0.1,0.1-0.1,0.2-0.2,0.4c-0.1-0.4-0.2-0.8-0.3-1.2c0.6-0.9,1.3-1.8,2.1-3c0,0.5,0,0.7,0,1
		c0.1,0,0.2-0.1,0.2-0.1c-0.1-1.4,0.6-2.3,1.5-3.2c0.4-0.4,0.5-1,0.7-1.4c0,0,0,0.2,0.1,0.5c0.3-0.2,0.6-0.4,1-0.6
		c-0.5,1.2-1.1,2.3-1.6,3.4c0.1,0.1,0.2,0.1,0.3,0.2c0.2-0.2,0.4-0.5,0.5-0.7c0.3-0.2,0.6-0.9,0.6-1.8c0.2,0.3,0.5,0.5,0.7,0.8
		c-0.1,0.3-0.3,0.6-0.5,1c0-0.2-0.1-0.3-0.1-0.6c-0.2,0.4-0.4,0.7-0.3,0.8c0.5,0.8-0.1,1.3-0.4,1.9c-0.3,0.6-0.6,1.2-0.9,1.9
		c0.1,0,0.2,0.1,0.3,0.1c0.5-1,1-1.9,1.4-2.8c0.1,0.2,0.1,0.5,0.3,1c0.1-0.8,0.2-1.4,0.3-2c0.2-0.1,0.4-0.3,0.5-0.4
		c0.2,1.3-0.5,3.3-1.6,4.8c-0.1-0.2-0.2-0.4-0.5-0.7c-0.1,1-0.8,1.7-0.3,2.6c1.4-0.1,1.7-1.3,2.4-2c0,0.3-0.1,0.6-0.1,0.9
		c0.4-0.2,0.6-0.4,0.9-0.6c0.1,0.1,0.1,0.2,0.2,0.4c0.8-1,2.5-0.8,2.7-2.4c-1.4,0.3-3,0.1-3.8,1.7c-0.5-0.9-0.3-1.7,0.1-2.6
		c0-0.1,0.2-0.1,0.3-0.2c0.1-0.5,0.1-1.1,0.2-1.7c0.1-0.5,0.1-1.1,0.1-1.6c0.1,0,0.2,0,0.3,0c0.1,0.1,0.2,0.2,0.3,0.3
		c0,0,0.1-0.1,0-0.1c-0.3-1,0.4-1.7,0.6-2.6c0.5-1.8,0.8-3.6-0.4-5.2c-0.4-0.6-1.2-1-1.8-1.5c-0.1-0.1-0.2-0.2-0.4-0.3
		c0.4-1-0.3-1.2-0.9-1.5c-2.1-1-4-0.3-5,2c1.1,0.4,2.1,0.7,3.2,1.1v0.1c-1.1-0.2-2.2-0.4-3.3-0.7c-0.4,1.2-0.3,1.7,0.1,1.7
		c0.3,0.7,0.6,1.3,0.8,1.9c0.1,0.4,0.5,0.8,0.1,1.4c-0.2,0.3-0.3,0.7-0.6,1.1c0-0.5,0-1,0-1.5c-0.1,0-0.2,0-0.2,0
		c-0.1,0.9-0.4,1.8-0.2,2.7c0.3,1.4,0.3,2.8,0.3,4.2c0,0.3-0.1,0.6-0.4,0.9c-0.2-0.9-0.5-1.8-0.7-2.6c-0.2,1.9,0.3,3.9-0.4,5.8
		c0.1-0.3,0.3-0.7,0.4-1h0.1c0,0.2,0.1,0.4,0,0.5c-0.3,0.8-0.7,1.5-1,2.2c-0.1,0.4-0.1,0.8-0.1,1.3c0,1.4,0,2.8,0,4.2
		c0,1.2-0.5,3-1.4,4.3c-0.3-0.7-0.6-1.4-0.8-2c-0.3-0.8-0.6-1.7-0.9-2.6c-0.1-0.3-0.4-0.6-0.6-1.1c-2.7,2.7-4.7,5.7-5.9,9.2
		c-0.9-0.8-0.9-1.8-1.2-2.7c-0.5-1.9-0.9-3.9-1.4-5.8c-0.1-0.3-0.4-0.5-0.6-0.8c-0.2,0.2-0.6,0.4-0.7,0.7c-0.3,0.5-0.5,1.1-0.7,1.8
		c-0.9-0.5-0.9-1.4-1-2.1c-0.2-1.5-0.3-3.1-0.5-4.6c-0.1-1-0.4-2-0.6-3.1c-0.1-0.1-0.2-0.1-0.3-0.2c-0.6,0.5-1.3,0.9-1.9,1.4
		c-0.3,0.2-0.3,0.9-1,0.7c0,0-0.3,0.5-0.2,0.8c0.2,0.8,0,1.4-0.3,2.1c-0.2,0.6-0.3,1.2-0.4,1.8c-0.2,1.9-0.3,3.9,0,5.8
		c0.1,0.7,0.2,1.4,0.2,2.2c-0.6-1.5-1.3-3-1.8-4.5c-0.7-1.8-1.2-3.7-1.8-5.6c-0.1-0.3,0.1-0.7,0.2-1.1c0.1-0.6,0.2-1.2,0.3-1.9
		c-0.3,0.2-0.5,0.4-0.8,0.5c0,0,0,0-0.1-0.1c0.6-0.6,1.2-1.2,1.9-1.9c0,0,0.1,0.1,0.2,0.1c1.6-1.6,3.1-3.3,4.7-4.9
		c0.1,0.1,0.2,0.1,0.3,0.2c-0.4,0.7-0.8,1.5-1.3,2c-0.4,0.4-0.7,0.8-0.4,1.5c0.6-0.3,1.5-0.5,1.8-1c0.3-0.4,0.1-1.3,0.1-1.9
		c0.1,0.1,0.2,0.3,0.4,0.7c0.3-0.9-0.8-1.7,0.5-2.2c-0.1,0.5-0.2,0.9-0.2,1.4c0,0.3,0.2,0.5,0.3,0.8c0.3-0.2,0.7-0.4,0.8-0.7
		c0.3-0.4,0.4-1,0.6-1.6c-0.1-0.2-0.1-0.8-0.4-1.1c-0.7-0.9,0.3-1.3,0.4-1.9c0,0,0.3,0,0.7,0c0.3-1,0.6-2.1,1-3.5
		c-0.5,0.1-0.8,0.2-1,0.3c0.2-0.5,0.8-0.8,0.8-1.4c-0.1,0-0.1-0.1-0.2-0.1c-0.3,0.5-0.6,1-0.9,1.5c-0.1,0-0.3,0.1-0.5,0.2
		c0.2-0.3,0.3-0.5,0.4-0.7c-0.1,0-0.2-0.1-0.2-0.1c-0.9,1.1-2.2,1.9-2.4,3.5c0,0.2-0.2,0.3-0.3,0.5c-0.1,0.3-0.3,0.6-0.3,0.9
		c0,0.6,0,1.2,0,1.8c0,0.3,0,0.6,0.1,0.9c-0.1,0-0.1,0-0.2,0c0-0.6,0-1.1-0.1-1.7c0-0.2-0.1-0.3-0.1-0.5c-0.2,0.1-0.4,0.1-0.5,0.2
		c-1,1.2-2,2.5-2.9,3.6c0,0-0.1-0.2-0.1-0.4c-0.1-0.1-0.2-0.2-0.3-0.3c-0.5,0.6-0.9,1.1-1.5,1.8c0.1-0.4,0.1-0.7,0.2-1
		c-0.6,0.7-1.9,0.7-1.9,2c0,0.2-0.5,0.4-0.7,0.6c0.6,0.2,0.8,0.1,2.1-1c-0.5,1.1-1,2-1.4,3c-0.1,0-0.1-0.1-0.2-0.1
		c0.1-0.4,0.1-0.8,0.2-1.1c-0.4,0.1-0.8,0.3-1.2,0.4c-0.1,0-0.2,0.2-0.2,0.4c-0.1,0.8-0.2,1.6-0.3,2.4c-0.6-1-0.7,0.5-1.3,0
		c0.2-0.6,0.3-1.4,0.7-2.1c0.3-0.6,0.9-1.2,1.3-1.7c-0.1,0-0.4,0.1-0.7,0.2c0.3-0.6,1.5-0.5,1.3-1.5c-0.8-0.3-1,0.4-1.4,0.9
		s-0.8,1-1.3,1.6c-0.3-1,0-2.1,1-3c0.7-0.7,1.6-1.2,2.5-1.9c-0.1,0.3-0.1,0.5-0.1,0.7c0.1,0,0.1,0,0.1,0c1.1-1.2,2.4-2.4,3.4-3.7
		c0.6-0.8,0.7-2,1-3c0.2-0.6,0.5-1.2,0.8-1.7c-0.1-0.1-0.2-0.1-0.3-0.2c-0.3,0.4-0.6,0.8-0.9,1.3c0,0.1-0.2,0-0.2,0.1
		c-0.1,0.1-0.3,0.3-0.3,0.4c0.1,1.7-0.6,2.9-2.3,3.5c0.1-1.7-0.2-3.3,1.1-4.7c0.4-0.4,0.7-1.1,1-1.7c0.5-1,1.4-1.6,2.4-2.1
		c0.2-0.1,0.4,0,0.5,0c0.6-1,1.3-2.1,1.9-3.1c0-0.1,0-0.1-0.1-0.2c-0.6,0.1-1.2,0.2-2,0.4c0.2,0.1,0.3,0.2,0.6,0.4
		c-2.2,1.2-4.3,2.6-5.6,4.7c0.4,0.3,0.5,0.6-0.1,1c-0.4,0.3-0.6,0.8-0.9,1.3c-0.4,0.7-0.7,1.4-1.2,2.1c0-0.2,0.1-0.3,0.1-0.5
		c0,0-0.1,0-0.1-0.1c-0.3,0.7-0.6,1.3-0.9,2c-0.4,0.8-0.9,1.5-1.2,2.3c-0.3,0.6-0.4,1.3-0.5,1.9c-0.1,0.5-0.2,1.1-0.3,1.6
		c0,0.1-0.1,0.2,0,0.2c0.2,0.9-0.3,1.7-0.2,2.6c0,0.6,0.5,1.2,0.7,1.9c-0.3,0-0.6,0-0.9,0.1c0.3,2.6,0.6,5.2,0.9,7.8
		c0,0-0.1,0-0.1,0.1c-0.3-0.5-0.6-0.9-0.8-1.4c-0.7-1.9-1.4-3.9-2.1-5.8c-0.1-0.2-0.3-0.4-0.4-0.7c-0.1-0.1-0.1-0.3-0.1-0.5
		c0.2-1,0.5-2.1,0.7-3.1c0-0.2,0-0.3,0-0.7c-0.3,0.5-0.5,0.9-0.7,1.2c-0.7-0.4-0.1-0.8-0.1-1.2c-0.2,0.2-0.4,0.4-0.5,0.6
		c-0.8,1.2-1.3,2.6-1.2,4.1c0,0.4-0.1,0.9-0.4,1.1c-0.8,0.7-1.2,1.4-1,2.6c-0.9-0.4-1.7-0.8-1.9-1.7c-0.2-1-0.4-2-0.7-3
		c-0.1-0.5-0.2-1-0.5-1.4c-0.5-0.9-1.1-1.8-1.6-2.6c-0.2,0.2-0.4,0.3-0.6,0.5c0.1-0.4,0.5-0.9,0.4-1.2c-0.7-1.5-1.5-3-2.3-4.5
		c-0.1,0-0.1,0-0.2,0.1c0.2,0.7,0.3,1.5,0.5,2.3c-0.4-0.5-0.8-1-1.2-1.5c-0.5,0.9-0.6,1.8-0.1,2.3c0.5,0.6,0.5,1.2,0.8,1.8
		c0.2,0.3,0.3,0.7,0.6,0.9c0.1,0.1,0.4,0.2,0.7,0.2c0,0,0.1,0.2,0.2,0.5c-0.3,1.3,0,2.6,0.5,2.6c0,0.8,0,1.5,0,2.3
		c0,0.8,0,1.5,0,2.5c-0.3-0.4-0.6-0.7-0.8-1c-0.9-1.5-1.6-2.9-1.8-4.7c-0.2-1.7-0.8-3.4-1.2-5.1c0-0.2,0.1-0.4,0.1-0.6
		c0-0.1,0.1-0.3,0-0.3c-0.7-0.7-0.4-1.6-0.4-2.4c0-0.4-0.1-0.9-0.2-1.4c-0.2,0.2-0.3,0.4-0.4,0.5c0-0.1-0.1-0.1-0.1-0.1
		c0.3-0.9,0.4-1.8,0-2.8c-0.1-0.1,0.2-0.4,0.2-0.5c-0.1-0.6-0.3-1.2-0.5-1.9c-0.1-0.5-0.3-1-0.3-1.6c0-0.5,0.3-0.9,0.4-1.4
		c0.1-0.6,0.1-1.3,0.2-1.9c-1.2,0.6-0.9,1.8-1,2.9c-0.6-0.7-0.1-3.3,0.6-3.9c0.1,0.2,0.1,0.4,0.2,0.8c0.2-0.5,0.3-0.9,0.5-1.3
		c0.1,0,0.1,0,0.2,0c0.1,0.4,0.2,0.8,0.2,1.3c0,0.4-0.1,0.9-0.2,1.3c0.1,0,0.1,0,0.2,0.1c0.1-0.3,0.3-0.6,0.3-0.8
		c-0.1-1.1,0.3-1.9,1-2.6s1-1.5,1.1-2.5s0.4-1.9,0.6-2.9c0.8,0.6,0.7-0.6,1.2-0.6c-0.2,0.8-0.5,1.6-0.7,2.4
		c-0.1,0.4-0.2,0.8-0.3,1.2c-0.2,0.6,0.4,1,0.6,1.4c0,0.1,0.4,0,0.5,0c0.2-0.1,0.5-0.2,0.7-0.3c0,0.1,0,0.1,0,0.1
		c-1.3,0.8-1.2,2.2-1.3,3.5c0,0.2-0.1,0.5-0.2,0.7c-0.1,0-0.1,0-0.2-0.1c0.1-0.3,0.2-0.6,0.3-1c-0.1,0-0.1-0.1-0.2-0.1
		c-0.3,0.7-0.5,1.5-0.8,2.2c-0.1,0.3-0.3,0.7-0.5,1c-0.1-0.1-0.2-0.2-0.3-0.5c-0.1,0.7-0.2,1.3-0.3,2c1.1-0.3,0.8-0.9,0.6-1.6
		c0.2,0.2,0.4,0.5,0.6,0.7c0.9-1.2,1.9-2.4,2.8-3.6c-0.2,0.1-0.5,0.2-0.9,0.4c0.2-1,0.6-1.7,1.3-2.3c0.5-0.4,0.7-1.1,1.1-1.6
		c0.2-0.3,0.4-0.5,0.7-0.7c-0.2-0.2-0.4-0.5,0.2-0.7c-0.2,0-0.3,0.1-0.5,0.1c0-0.7-0.1-1.4-0.1-2c0.1,0,0.2,0,0.2-0.1
		c-0.2-0.1-0.4-0.1-0.6-0.2c-0.6,0.6-0.8,1.5-1.6,1.8c-0.4-0.5,0.9-0.8-0.2-1.3c0.5-0.2,0.8-0.3,1.2-0.4c-0.1-0.1-0.2-0.1-0.3-0.2
		c0.2-0.1,0.4-0.1,0.7-0.2c-0.3-0.5-0.8-1.1,0.1-1.4c0.2,0.3,0.4,0.6,0.6,0.9c0.1,0,0.2,0,0.3,0c0.1-0.5,0.2-0.9,0.3-1.4
		c0.2-1.1,0.3-2.2,0.5-3.3c0.1-0.4,0.3-0.8,0.4-1.2c0.1-0.4,0.1-0.7,0.2-1.1c0.2-0.5,0.4-1,0.6-1.4c0.3-0.4,0.6-0.7,0.9-1.1
		c0.1,0.1,0.1,0.1,0.2,0.2c-0.3,0.7-0.6,1.4-0.9,2.2l0.1,0.1c0.2-0.3,0.5-0.5,0.8-1c-0.2,0.5-0.3,0.8-0.3,1.1
		c-0.1,0.3-0.1,0.6,0.1,0.9c0.2-0.5,1-0.8,0.5-1.5c-0.1-0.1,0.2-0.6,0.4-0.8c0.6-0.6,1.4-1,2-1.6c0.4-0.4,0.8-0.9,1.2-1.5
		c-0.6,0-1,0-1.4-0.1c0.1-0.1,0.1-0.2,0.3-0.4c-0.3,0.1-0.5,0.1-0.7,0.2c-0.4,0.3-0.7,0.6-1.1,0.9c-0.3,0.2-0.8,0.2-0.7,0.8
		c0,0.2-0.6,0.4-0.9,0.6c-0.1-0.5-0.3-1,0.4-1.4c0.8-0.5,1.4-1.3,2.2-1.9c0.3-0.3,0.4-1.1,1.2-0.6c0.1-0.2,0.4-0.4,0.4-0.6
		c0.1-1,0.6-1.8,1.6-2.2c0.3-0.1,0.5-0.4,0.8-0.6c0.2,0.1,0.6,0.2,0.8,0.5c0.7,0.7,1.3,0.2,1.9,0c0.1-0.1,0.3-0.3,0.3-0.4
		c-0.1-0.7-0.2-1.5-0.4-2.1c-0.1-0.2-0.7-0.2-1.1-0.4c0,0.1-0.1,0.1-0.1,0.2c0.1,0.1,0.3,0.2,0.4,0.4c-1.1,0.4-2.3,0.9-3.4,1.3
		s-2.3,0.6-3.4,1.2c-1.1,0.5-2.1,1.3-3.2,2c-0.6,0.4-1.3,0.9-1.9,1.4c-0.5,0.5-0.9,1.1-1.3,1.7c-0.5,0.6-0.9,1.1-1.5,1.6
		c0.2-0.3,0.3-0.6,0.5-0.9l-0.1-0.1c-0.2,0.1-0.4,0.3-0.7,0.4l-0.1-0.1c1-1,2-2,2.9-3c0.5-0.5,0.9-1.1,1.4-1.7
		c0.1-0.1,0.3-0.3,0.5-0.3c1,0,1.5-0.6,2.1-1.3c0.2-0.3,0.8-0.4,1.2-0.6c0.2-0.1,0.3-0.3,0.5-0.4c-0.1,0-0.2-0.1-0.4-0.2
		c0.8-0.4,1.5-0.6,2.1-1.1c0.7-0.6,1.4-0.4,2.2-0.5c0.7-0.1,1.4-0.3,2.2-0.5c-0.6-0.8-1.2-1.1-2.1-1c-0.8,0-1.6-0.3-2.5-0.5
		c-0.5-0.1-1.1-0.1-1.6-0.2c-0.1,0-0.3-0.1-0.4-0.2c0.1-0.1,0.1-0.2,0.2-0.3c0.4-0.2,0.7-0.3,1.2-0.5c-0.4-0.1-0.6-0.1-0.9-0.1
		c0.5-0.2,0.9-0.4,1.4-0.6c-0.1,0.2-0.1,0.2-0.2,0.4c0.2,0,0.4,0.1,0.5,0.1c0.5-0.1,0.8,0,1.2,0.3c0.6,0.3,1.4,0.3,2.3,0.5
		c-0.2-0.5-0.3-0.9-0.5-1.1c-0.3-0.4-0.7-0.8-1.4-0.6c-0.6,0.2-1.3,0-1.9,0c-1.4,0.1-2.8,0.3-4.2,0.4c-0.1,0-0.3,0-0.6,0
		c0.8-0.5,1.5-1,2.2-1.5c-0.1,0-0.2,0-0.3,0c0-0.1,0-0.1-0.1-0.2c0.5-0.2,1-0.4,1.5-0.6c0,0.1,0.1,0.1,0.1,0.2
		c-0.2,0.1-0.4,0.3-0.6,0.4c0,0.1,0.1,0.2,0.1,0.2c0.3-0.1,0.6-0.2,1-0.3c0.2-0.1,0.4-0.2,0.5-0.1c1.3,0.4,2.2-0.4,3.3-0.8
		c0-0.1,0-0.2,0-0.3c-1-0.4-2.1-0.8-3.1-1.2c-0.8-0.3-1.5-0.5-2.3-0.8c-1.6-0.5-3,0-4.5,0.4c-0.5,0.1-1,0.3-1.5,0.4
		c-0.4,0.1-0.8-0.1-1.2,0c-0.7,0.2-1.3,0.5-2,0.7c-0.2,0.1-0.4,0.1-0.7,0.1c1-1.1,2.5-1.4,3.4-2.7c0.6-0.1,1.4-0.4,2.3-0.4
		c1.2,0,2.6,0,3.7,0.5c1.3,0.6,2.6,1.1,3.9,1.5c0.5,0.2,1.1,0.2,1.6,0.3c0.1-0.1,0.1-0.1,0.2-0.2c-0.6-1.1-1.2-2.2-1.8-3.3
		c0.3,0,0.2,0,0.4,0.3c0.5,0.8,1,1.7,1.6,2.5c0.1,0,0.1,0,0.2-0.1c0-0.3,0.1-0.5,0.1-0.8c0.1,1.1,0.3,2.1,1.3,2.8
		c0.4,0.3,0.4,1,0.7,1.5c-0.3-0.1-0.7-0.3-1-0.5c-0.3,1.8,0.5,3.8,1.5,3.8c-0.1-0.3-0.1-0.6-0.2-0.9h0.1c0.3,0.6,0.6,1.2,1,1.9
		c0-0.5,0.1-0.9,0.1-1.2h-0.1c0.2,0.9,0.3,1.9,0.7,2.7c0.4,0.8,1.2,1.4,1.8,2.1c0.1,0,0.2-0.1,0.2-0.1c-0.1-0.5-0.2-1-0.4-1.4
		c-0.4-1-0.9-2.1-1.4-3.1c-0.1-0.1-0.3-0.2-0.4-0.4c-0.2-0.3-0.5-0.6-0.6-0.9c-0.5-1.4-0.8-2.8-1.3-4.1c-0.2-0.7-0.6-1.4-0.9-2.1
		c-0.1,0.1-0.2,0.2-0.3,0.3c-0.1,0-0.1,0-0.1-0.1c-0.2-0.3-0.1-0.9-0.7-0.9c-0.1,0-0.3-0.7-0.3-1c-0.1-0.3,0-0.7-0.1-1
		c-0.2-1.5-0.5-1.6-2-0.9c0.1,0.3,0.3,0.7,0.4,1c-0.4-0.3-0.7-0.7-1-0.8c-0.3,0-0.6,0.4-1,0.7c-0.4-0.4-0.6-0.4-2.6,0.4
		c0.9,0.3,1.9,0.5,2.8,0.8v0.1c-0.7-0.1-1.4-0.2-2.1-0.4c-1.5-0.4-1.5-0.4-2.1,0.1c-0.1-0.1-0.2-0.2-0.3-0.4
		c0.2-0.1,0.4-0.3,0.7-0.6c-0.7,0-1.3,0-1.9,0c0-0.1,0-0.1,0-0.2c0.5,0,1,0.1,1.6,0c1.3-0.2,2.5-0.9,3.5-1.6
		c0.5-0.4,0.3-1.1,0.1-1.7c-0.1-0.2,0-0.5-0.1-0.8c-2.1-0.9-6.3-0.4-9.6,1.8c0.3-0.5,0.5-0.9,0.8-1.3c-0.3-0.1-0.5-0.1-0.5-0.1
		c0.6-0.6,1.2-1.2,1.9-1.8c0.2-0.2,0.5-0.3,0.8-0.3c0.5-0.1,0.6-0.4,0.3-1c-0.5,0.4-0.9,0.7-1.4,1.1c0-0.3,0-0.5,0-0.8
		c-0.4,0.1-0.8,0.2-1.4,0.3c2-2.2,4.1-3.9,6.2-5.6c2-1.7,4.2-3.2,6.3-4.7c-1.3-0.2-2.4,0.4-3.3,1.2c-0.5,0.4-1,0.7-1.5,1.1
		c-0.8,0.5-1.6,1.1-2.5,1.3c-1.2,0.3-2.5,0.5-3.8,0.5c-1.5,0-2.8,0.6-3.8,1.6c-0.6,0.5-1.2,0.9-1.6,1.7c-0.3,0.6-1.1,1-1.6,1.5
		c-0.1,0.2-0.1,0.5-0.1,1c-0.7,0.9-1.7,1.9-2.4,3.1c-0.6,1-1.2,2.2-1.3,3.4c-0.1,1.4-1.2,1.9-1.8,2.8c0-0.3,0.1-0.7,0.1-1
		c-0.1,0-0.2,0-0.2,0c-0.9,1.4-2.5,1.1-3.8,1.4c-0.9,0.2-1.9,0.4-2.9,0.7c-0.2-0.1-0.5-0.1-0.6-0.2c1.9-0.9,3.9-1.9,5.8-2.9
		c-0.2,0.2-0.5,0.7-0.9,1.2c1.2-0.3,2.3-0.1,3-1.2c0.5-0.9,1.1-1.9,1.6-2.8c-0.1,0-0.1-0.1-0.2-0.1c-0.5,0.4-0.9,0.8-1.4,1.2
		c-0.1-0.1-0.1-0.1-0.2-0.2c0.5-0.5,0.9-1.1,1.4-1.6c0.1,0,0.2,0.1,0.3,0.2c0.2-0.3,0.5-0.7,0.7-1c0-0.1-0.2-0.4-0.4-0.6
		c-1-1.3-2.2-0.6-3.3-0.2c-0.4,0.1-0.8,0.4-1.3,0.6c0.7-0.8,2.1-1.6,3-1.7c1.3-0.1,1.8-0.6,2.4-1.9c0.2-0.4,0.4-0.8,0.6-1.1
		c0,0,0,0.3,0.1,0.6c0.3-0.3,0.6-0.5,0.9-0.7s0.6-0.4,0.9-0.6c-0.1,0.2-0.3,0.3-0.4,0.5c0.8,0,1.9-1.1,2.2-2.1c-0.4,0-0.8,0-1.3-0.1
		c0.4-0.2,0.7-0.4,0.9-0.4c1,0.1,1.6-0.5,2-1.3c0.1-0.2,0.4-0.3,0.6-0.4c0.5-0.3,1.1-0.6,1.8-0.9c-0.3-0.1-0.5-0.2-0.6-0.3
		c1.4,0.1,2.5-0.3,3.5-1.5c0,0.4-0.1,0.6-0.1,0.9c2.3,0,3.7-1.3,4.4-3.1c0.3,0,0.6,0,0.8-0.1c1.5-0.6,2.7-1.6,3.9-2.7
		c0.5-0.5,1.1-1,1.8-1.7c-0.5-0.2-0.8-0.5-1.2-0.6c-0.3-0.1-0.7,0-1,0c-0.5-0.1-1.1,0.3-1.6-0.3c-0.1-0.1-0.7,0.1-1,0.3
		c-0.9,0.6-1.7,1.3-2.5,1.9c-0.9,0.6-1.9,1.1-3,1.7c0.7-1.1,1.6-1.6,2.5-2.1c0.5-0.3,1-0.7,1.5-1c0.2-0.1,0.2-0.4,0.3-0.7
		c-0.2-0.1-0.4-0.2-0.6-0.2c-0.3,0-0.6,0-0.9-0.1c0.3-0.1,0.6-0.1,0.9-0.2c0-0.1,0-0.2,0-0.3c-0.5,0-0.9-0.1-1.6-0.1
		c0.4-0.1,0.5-0.2,0.7-0.2c0.7,0,1.5,0.1,2.2,0.1c1.7,0.1,3.4,0.2,5.1,0.1c1,0,2-0.4,2.9-0.8c0.3-0.1,0.6-0.6,1-1
		c-0.9-0.3-1.6-0.6-2.4-0.8c-0.6-0.1-1.3-0.1-1.9-0.2c-0.3,0-0.6-0.2-0.9-0.3c-0.4-0.1-0.8-0.2-1.2-0.1c-1.9,0.1-3.7,0.1-5.6,0.3
		c-0.7,0.1-1.3,0.3-1.7,1c-0.3,0.5-1.2,0.6-1.7,1c-0.9,0.6-1.7,1.3-2.6,1.8c-0.8,0.4-1.8,0.9-2.6,0.8c-1.4-0.2-1.5,1-2.3,1.7
		c0-0.3,0-0.6,0.1-0.8c0.2-0.7,0.5-1.5,0.8-2.2c0.1-0.2-0.1-0.4-0.1-0.6c0-0.1,0.1-0.2,0.2-0.3c0.5-0.2,0.6-0.6,0.3-0.9
		c-0.5-0.6-1-1.2-1.5-1.8c-0.1-0.1-0.4-0.1-0.6-0.1c-0.8,0-1.5,0.1-2.3,0.1c0-0.1,0-0.2,0-0.3c0.7,0,1.5,0,2.2,0
		c0.2,0,0.7-0.3,0.7-0.4c0-0.4,0.2-1-0.4-1.3c0.1,0,0.2-0.1,0.4-0.1c0-0.1,0-0.2,0.1-0.3c-0.9-0.3-1.8-0.5-2.8-0.8
		c0.6-0.2,1.1-0.4,1.6-0.6c1-0.2,1.6-0.8,1.7-1.8c0-0.2-0.1-0.7,0.4-0.3c0,0,0.1-0.1,0.2-0.2c0.2-1.1,0.5-2.2,0.7-3.3
		c0-0.3-0.3-0.8-0.2-0.9c0.4-0.3,0.1-0.4-0.1-0.7c-0.6-0.6-1.1-1.2-1.6-1.7c1.8,0.1,3.6,0.2,5.5,0.3c0.8,0.1,1.5,0.3,2.3,0.4
		c0.5,0,0.9-0.1,1.4-0.1c0,0.4,0,0.8,0.5,0.9c0.6,0.1,1.2,0.2,1.8,0.4c1,0.3,1.9,0.7,2.8,1.1c0.1-0.1,0.1-0.2,0.2-0.3
		c-0.4-0.4-0.9-0.7-1.4-1.1c-0.4-0.3-0.8-0.6-1.3-0.6c-0.8-0.1-1.6-0.1-2.3-0.2c-0.1,0-0.3-0.1-0.4-0.2c0-0.1,0-0.2,0-0.3
		c0.5,0.1,1.1,0.1,1.6,0.2c0.6,0.1,1.3,0.1,2,0.1c0.3,0,0.7,0,1.2,0c-0.3-0.2-0.5-0.4-0.8-0.6c0.6,0,1,0,1.4,0s0.7-0.2,1.1-0.2
		c0.2,0,0.5,0.1,0.8,0.2c-1.1,0.4-2,0.7-2.9,1c0,0.1,0,0.2,0,0.3c1.6,0.7,3.4,0.6,5.2,1c-0.1-0.2-0.2-0.4-0.4-0.6
		c0.1,0,0.2,0,0.3,0.1c0.3,0.3,0.6,0.7,0.9,1c0.2,0.2,0.6,0.4,0.9,0.3c0.6-0.2,0.8,0.2,1.1,0.5c0.1,0.1,0.2,0.1,0.3,0.2
		c0.2-2.6-1.3-6.7-4.7-7.9c-0.2-0.3-0.3-0.7-0.6-0.9c-0.7-0.5-1.4-1-2.1-1.4c0-0.1,0.1-0.1,0.1-0.2c0.6,0.4,1.2,0.8,1.9,1.1
		c0.6,0.4,1.2,0.7,1.9,1.1c0.1,0,0.5-0.2,0.5-0.3c-0.7-1.9-1-4-2.7-5.4c-0.2-0.2-0.3-0.4-0.5-0.5c0.1-0.1,0.2-0.2,0.3-0.3
		c0.3,0.4,0.6,0.9,1,1.2c1.5,1.2,2.1,3,3,4.6c0.2,0.3,0.3,0.6,0.5,0.8c1,0.9,1.2,2.3,2.4,3.2c-0.9,0-0.3,0.5-0.3,0.8
		c-0.1,0-0.1,0-0.2-0.1c-0.1,0.2-0.3,0.5-0.3,0.7c0,1,0,2.1,0.2,3.1c0.2,1.2,0.9,2.1,2.1,2.6c0.1,0,0.2,0.1,0.3,0.2
		c0.4,0.4,0.8,0.9,1.4,1c0.4,0.1,0.8,0.7,1.1,1.1c0.1,0.1,0.3,0.2,0.5,0.4c-0.2,0.1-0.3,0.1-0.5,0.2c0.4,0.7,0.7,1.5,1.1,2.2
		c0.3,0.5,1.9,0.5,2.3,0c0.1-0.1,0.3-0.5,0.2-0.6c-0.3-0.4-0.7-0.8-1.2-1.3c0-0.7-0.2-1.6-0.8-2.4c-0.8-1.2-1.5-2.5-2.2-3.7
		c-0.4-0.7-1-1.3-1.4-2c-0.1-0.2-0.2-0.5-0.3-0.7c-0.3-0.1-0.6-0.2-0.9-0.3v-0.1c0.4,0,0.8,0.1,1.4,0.1c-0.2-0.7-0.4-1.4-0.7-2.1
		c-0.1,0-0.1,0-0.2,0c0,0.2,0,0.5-0.1,0.9c-0.3-1.4-0.6-2.7-0.9-3.9h0.1c1,2,2.1,4,3.1,6h0.1c0-0.2,0-0.5,0-0.7
		c0.3,2,1.4,3.5,2.8,4.9c-0.2,0-0.5-0.1-0.9-0.1c0.5,1,1,1.9,1.5,2.7c0.1,0,0.2,0,0.3-0.1c0.1-0.3,0.1-0.6,0.2-1
		c0.2,0.3,0.4,0.9,0.9,0.2c-0.4-0.3-0.7-0.6-1-0.8c-0.3-0.3-0.7-0.6-1-0.9c0.9,0.2,1.7,0.5,2.6,0.6c0.4,0.1,0.9-0.2,1.5-0.3
		c-1.6-3.8-3-7.4-6.4-9.7c-0.1,0-0.2,0.1-0.3,0.1c0.3,0.7,0.5,1.3,0.8,2c-0.1,0.1-0.2,0.2-0.4,0.2c0-0.2,0-0.4-0.1-0.8
		c-0.2,0.2-0.3,0.4-0.4,0.5c-0.6-0.7-1.2-1.4-1.8-2.2c-0.4-0.6-0.6-1.4-1-1.9c-0.6-0.8-1-1.6-1.5-2.5c-0.3-0.5-0.7-1.2-1.2-1.4
		c-1.3-0.6-1.9-2.1-3.3-2.5c-0.5-0.2-0.9-0.7-1.2-1c0.4,0.1,0.9,0.2,1.5,0.4c-0.1-0.3-0.2-0.5-0.3-0.7c0.8,0.5,1.2,1.5,2.3,1.4
		c-0.1-0.4-0.1-0.8-0.2-1.2c0.5,1.2,1.9,0.9,2.9,1.8c-0.9-0.2-1.5-0.4-2.2-0.6c0,0.1-0.1,0.2-0.1,0.2c0.7,0.4,1.4,0.8,2.1,1.2
		c1.2,0.6,2.4,1.2,2.8,2.7c0.2,0.6,0.6,1.2,1,1.8c0.1,0.2,0.2,0.5,0.3,0.8c-0.7-0.3-0.4-1.3-1.4-1.4c0.5,0.9,0.9,1.5,1.2,2.1
		c0.3,0.1,0.5,0,0.6,0.1c0.2,0.1,0.3,0.3,0.4,0.5c0.4,0.9,1.1,1.5,1.9,2c-0.3-0.8-0.6-1.6-1-2.4h0.1c1.9,3,3.7,5.9,5.6,8.9
		c0.1,0,0.1-0.1,0.2-0.1c-0.1,0.2-0.2,0.3-0.4,0.5c0.5,0.5,0.7,1.5,1.9,1c0,0.1,0,0.1,0,0.2c-0.3,0.2-0.6,0.4-1.1,0.7
		c0.1,0.8,0.2,1.7,0.4,2.5c0.1,0.5,0.5,1,1,0.7c0.5-0.2,1-0.7,1.1-1.1c0.2-0.5-0.1-1.2-0.1-1.7c0.2-0.1,0.6-0.2,0.6-0.3
		c0-0.4-0.1-0.7-0.2-1.1c-0.1,0-0.2,0-0.2,0c0.1-0.1,0.3-0.2,0.4-0.2c0-0.1,0-0.1,0-0.2c-0.2,0-0.4,0-0.8,0
		c-0.1-0.4-0.2-0.9-0.3-1.4c-0.2-1-0.1-2.1-0.6-2.8c-0.6-0.9-0.9-1.9-1.2-2.9c0-0.1-0.1-0.2-0.1-0.3c0.8-1.8-0.3-3.6,0-5.5
		c0.1-0.7-0.1-1.5-0.1-2.3l0,0c0.2,0.4,0.3,0.7,0.5,1.2c-0.1-2.1-0.8-4.1,0.1-6.1c0.1,0,0.2,0,0.2,0c0.2,1.3,0.1,2.6,0.6,3.7
		c0.5,1.2,0.9,2.4,1.4,3.7c0-0.2,0.1-0.4,0.2-0.8c0,1.6,0,3.1,0,4.6c0.1,0,0.1,0,0.2,0.1c0.2-0.3,0.5-0.7,0.7-1h0.1
		c-0.2,0.5-0.3,1-0.5,1.6c-0.4,1.2,0.7,3,1.9,3.3c0.1,0,0.2,0,0.3,0c0.5-0.4,1.2-0.7,1.5-1.3c0.3-0.7,0.2-1.5,0.1-2.2
		c-0.3-1.1-0.7-2.2-1.1-3.4c-0.1-0.2,0-0.5-0.1-0.7c-0.1-0.1-0.3-0.2-0.4-0.3c0,0.1-0.1,0.1-0.1,0.2c0-0.3,0-0.6,0-1h-0.1
		c-0.2,0.7-0.5,1.4-0.7,2.1h-0.1c0.1-1,0.3-2,0.2-3c0-0.5-0.5-1-0.8-1.5c0,0-0.4,0.1-0.6,0.2c0.1-0.7,0.3-0.8,1-0.4
		c0.2-0.5,0.4-1.1,0.6-1.7c0.2-0.5,0.5-1,0.8-1.5c-0.3,1.6-1.1,3.1-0.2,4.7c0.8-1.4,1.1-2.8,0.8-4.4c-0.3-1.6-0.3-2,0.2-3.1
		c1.1,1.4,0.4,3.2,1.1,4.5c0.1-0.4,0.3-0.8,0.5-1.5c0.2,0.4,0.2,0.5,0.3,0.8c0.1-0.7,0.3-1.3,0.4-2h0.1c-0.1,1.8-0.2,3.5-0.4,5.3
		c0.1,0,0.2,0.1,0.3,0.1c0.2-0.3,0.5-0.7,0.7-1.1c0,0.2,0.1,0.4,0.2,0.8c0.7-0.5,1.3-0.9,1.9-1.4l0.1,0.1c-0.2,0.5-0.4,0.9-0.6,1.4
		c0.1,0.1,0.2,0.1,0.3,0.2c0.5-1.9,2.1-2.9,3.4-4.3c-0.7,1.6-1.4,3.3-2.1,4.9c0,0,0.1,0,0.1,0.1c1-1.1,1.9-2.2,2.9-3.4l0,0
		c0,0.2,0,0.4,0,0.7c0.5-0.4,0.9-0.8,1.3-1.1c1.1-0.9,2.2-1.8,3.5-2.6c0.5-0.3,1.2-0.1,1.9-0.2c-0.4,0.7-0.8,1.3-1.2,2
		c0.5-0.2,0.8-0.2,1.1-0.3c-0.7,0.5-1.6,0.6-2,1.6c0.3-0.1,0.5,0,0.7-0.1c0.7-0.3,1.5-0.5,1.9-1.1c0.4-0.5,0.8-0.7,1.3-1
		c0.9-0.6,1.9-1.1,2.9-1.6c-0.8,1.2-2.1,1.8-3.3,2.6c0.4,0.2,0.7,0.4,1.1,0.6c-0.3,0.4-0.7,0.8-0.9,1.1c1.4-0.3,3-0.7,4.7-1
		c-0.7,0.5-1.3,0.9-2,1.3c-0.6,0.4-1,1-1.7,1.3c-1.4,0.6-2.5,1.6-3.3,2.9c-0.3,0.5-1.7,1-2.3,0.8c-0.1-0.1-0.2-0.2-0.3-0.3
		c0.6-0.3,1.1-0.6,1.7-0.9c-0.1-0.1-0.2-0.2-0.3-0.3c-1.1,0.1-1.1,0.4-1.7,1.3c-0.6,1-0.3,2.2-1,3.1c-0.1,0.1-0.1,0.2-0.1,0.3
		c-0.1,0.6,0.2,1.4-0.5,1.9c-0.1,0.1-0.1,0.4-0.1,0.7c0.9,0.2,1.5-0.3,1.9-0.9c1.1-1.6,1.3-1.9,3.3-2.8c-0.5,0.6-0.9,1.1-1.3,1.6
		c-0.3,0.5-0.4,1-0.5,1.6c-0.1,0.3-0.2,0.7-0.4,1.1c0.5-0.3,0.9-0.5,1.3-0.7c-0.5,0.8-0.9,1.6-1.8,1.9c-0.1,0-0.2,0.2-0.2,0.2
		c0,0.9-0.8,1.1-1.6,1.5c0.3-0.7,0.6-1.1,0.8-1.6c-2.6,0.7-5,3.1-4.8,5.2c1-0.5,2-1,3-1.4c1.2-0.4,1.5-1.7,2.6-2.1
		c0,0.1,0,0.3,0,0.4c0.7,0,2-0.8,2-1.4s0.3-0.6,0.7-0.4c0.6,0.3,0.9-0.1,1.2-0.5c0.3-0.3,0.6-0.7,0.9-1.1c0.1,0.1,0.1,0.1,0.2,0.2
		c-0.2,0.3-0.5,0.6-0.8,1.1c2.7-1.3,4.9-3.4,7.9-3.3c-1.2,0.3-2.5,0.4-3.4,1.5c-0.6,0.8-1.5,1.1-2.2,1.6c-1.8,1.1-3.6,2.1-5.1,3.6
		c-0.4,0.4-0.7,0.7-1,1.1c-0.2,0.2-0.1,0.5-0.2,0.8c0.2,0,0.5,0.1,0.7,0c0.6-0.3,1.2-0.7,1.9-0.9c-0.5,0.4-1,0.7-1.5,1
		c0,0.1,0,0.2,0,0.2c1.1,1.9,0.6,1.9,2.5,0.6c0.7-0.5,1.4-1.1,2.1-1.7c-0.3-0.1-0.6-0.2-0.8-0.3c4.6-0.5,8.9-2,12.7-4.6
		c0,0.1,0,0.2,0,0.2c0.5-0.1,0.9-0.2,1.4-0.3c-0.4-1.2-1.7-1.6-2.7-1.1c-0.5,0.3-1.1,0.3-1.6,0.5c-1.6,0.6-3.1,1.3-4.7,2.1
		c0.3-0.4,0.6-0.7,0.9-1.1c-0.1,0-0.2-0.1-0.3-0.1c0.2-0.1,0.4-0.3,0.5-0.4c0-0.1,0-0.2,0-0.3c-0.6-0.1-1.2-0.2-1.9-0.3v-0.1
		c1-0.1,2-0.3,3-0.4c0.9-0.1,1.2-0.2,1.3-0.9c0.5-0.1,1.1-0.1,1.6-0.2c0.2,0,0.4-0.2,0.4-0.2c0-0.2-0.2-0.4-0.3-0.5
		s-0.2-0.1-0.3-0.2c-0.9-0.4-1.7-0.7-2.6-1.1c0.1-0.4,0.1-0.6,0.2-0.9c0.6,0.1,1.3,0.3,2,0.4c0-0.1,0-0.1,0-0.2
		c-0.2-0.1-0.4-0.2-0.7-0.3c0-0.1,0-0.1,0.1-0.2c0.3,0.1,0.5,0.2,0.8,0.2c1,0,2.1,0,3.1-0.2c1.5-0.3,2.9,0.2,4.2,0.7
		c0.6,0.2,1.2,0.7,1.7,1.1c-0.3-0.1-0.6-0.2-0.8-0.3c0.7,0.8,2,0.5,2.6,1.4c0,0.1-0.1,0.1-0.1,0.2c-0.6-0.2-1.2-0.3-1.8-0.5
		c0,0.1-0.1,0.2-0.1,0.2c1.1,0.5,2.3,1,3.4,1.4c0,0.1,0,0.1-0.1,0.2c-1.1-0.1-2.1,0.4-3.2-0.1c0,0.1,0,0.2-0.1,0.3
		c0.6,0.3,1.3,0.6,2,0.9c0.1-0.2,0.1-0.4,0.2-0.6c0.1,0,0.1,0,0.2,0c0,0.2,0,0.3-0.1,0.4c0.3,0.2,0.6,0.4,0.9,0.7
		c-0.6,0.6-0.2,0.9,0.2,1.2c-0.3-0.2-0.7-0.3-1-0.5c-0.1-0.1-0.4-0.1-0.5,0c-0.2,0.3-0.4,0.6-0.4,0.9s0.3,0.7,0.4,1
		c0.3,1.1,1.3,1.6,2,2.3c0.1,0.1,0.2,0.1,0.4,0.1c-0.1-0.2-0.3-0.4-0.4-0.6c0-0.1,0-0.1,0-0.2c2.1,0.8,4.1,1.6,6.4,2.5
		c-1.1,0.1-2,0.3-3.2,0.4c0.8,0.6,1.4,1.1,2.1,1.6c0.2,0.2,0.5,0.4,0.7,0.6c0.5,0.7,1,1.4,1.5,2.1c-0.4,0.6-1.8-0.3-1.6,1.2
		c-0.3-0.1-0.5-0.1-0.8-0.2c0-0.2,0.1-0.3,0.1-0.4c-0.5,0.1-0.9,0.2-1.5,0.3c0,0.1-0.1,0.3,0,0.5c0.1,0.1,0.3,0.2,0.5,0.3
		c0.2-0.3,0.4-0.7,0.8-0.3s0.7,0.8,1.1,1.3c0.1,0.2,0.3,0.4,0.4,0.6c-0.4,0.4,0.2,4.6,1.2,5.6c-0.8-0.3-1.4-0.5-2.1-0.8
		c0,0.4,0.1,0.7,0.1,1.1c-0.1-0.1-0.3-0.1-0.5-0.3c-0.2,0.6-0.5,1.3-0.7,1.9c0.3,0.1,0.6,0.2,1,0.4c0,0.1,0,0.1,0,0.2
		c-0.5,0-0.9-0.1-1.3-0.1c0.6,1.4,1.2,2.8,1.7,4.1c-0.3-0.1-0.6-0.1-1-0.2c0.3,0.5,0.5,0.9,0.7,1.3c0.1,0.3,0.4,0.7-0.2,1
		c-0.1,0.1,0,0.7,0,1.1c0,1.1,0.1,2.1,1.1,2.7c-0.7,0.4-0.7,1-0.2,1.7s1.1,1.5,1.2,2.3c0,0.6,0.3,1.2,0,1.9c-0.4-0.4-0.7-0.9-1-1.3
		c-0.7,0.9,0.2,3.2,2,4.6c0-1,0-1.8,0-2.7c0.1,0,0.2,0,0.3,0c0,1.1,0,2.1,0,3.2c0.1,0,0.1,0,0.2,0c0-0.2,0.1-0.3,0.1-0.5h0.1
		c0.1,0.5,0.1,1.1,0.4,1.6c0.3,0.6,0.7,1.2,1.1,1.8c-0.1,0-0.1,0.1-0.2,0.1c-0.2-0.3-0.4-0.6-0.6-0.9s-0.4-0.8-0.7-1
		c-0.2-0.2-0.7-0.2-1-0.2c0,0.1-0.1,0.2-0.1,0.2c0.7,1,1.3,2,2,3l-0.1,0.1c-0.2-0.1-0.3-0.2-0.4-0.3c-0.6-0.7-1.3-1.4-1.9-2.1
		c-0.2-0.2-0.2-0.5-0.3-0.8c-0.2-0.5-0.3-1-0.6-1.3c-0.5-0.6-0.4-1.6-1.2-2c-0.1-0.1-0.3-0.2-0.4-0.2c-0.3-0.2-0.6-0.4-0.8-0.5
		c0.2-0.3,0.4-0.5,0.4-0.6c-0.1-1.1-0.3-2.2-0.5-3.3c-0.3-1.1-0.7-2.3-1.6-3.1c-0.1-0.1-0.1-0.4-0.2-0.7s-0.1-0.6-0.2-1
		c0.4,0.3,0.8,0.6,1.2,0.9c-0.1-1.6-1.2-2.5-2.2-3.5c-0.5-0.5-0.8-1-1.3-1.5c-0.8-0.9-1.7-1.7-3-1.9
		C193.9,50.6,193.8,50.5,193.7,50.4c0.9,0.1,1.7,0.3,2.6,0.4c0-0.6-0.3-1-1-0.8C194.8,50.1,194.2,50.3,193.7,50.4z M151.2,114
		c-0.7,0.2-0.9,0.8-1,1.4c0,0.2,0.2,0.4,0.4,0.6c0.2-0.2,0.4-0.3,0.7-0.5c0.1,0.7,0.1,1.2,0.2,1.8h0.1c0-0.2,0.1-0.5,0.1-0.8
		c0.3,0.2,0.5,0.3,0.8,0.4c0.1,0,0.1-0.1,0.2-0.1c-0.1-0.5-0.2-1.1-0.3-1.6c0.1,0,0.2-0.1,0.4-0.2
		C152.3,114.6,151.7,114.3,151.2,114c0.2,0,0.5,0,0.9,0c-0.6-1.1-1.2-2.1-1.8-3.3c-0.7,1.9-0.4,2.6,1.2,3.2
		C151.4,113.9,151.3,113.9,151.2,114z M175.4,118.3c-0.9,0.9-1.9,1.8-2.9,2.8c0.5-0.2,0.9-0.3,1.3-0.4c0,0.2,0.1,0.4,0.1,0.8
		c0.4-0.6,0.6-1.1,0.9-1.6c0.5-0.4,1.1-0.7,1.5-1.2c0.4-0.6,0.7-1.4,1-2c0.5-0.9,0.9-1.9,1.6-2.6c0.8-0.9,0.6-2.5,2-3
		c0.1,0,0.1-0.3,0-0.5c-0.2-0.5-0.4-1-0.5-1.5s0-1,0-1.5c0-0.3-0.2-0.5-0.2-0.8c0.1-0.8-0.1-1.3-1.1-1.5c0,0.7-0.1,1.4-0.1,2l0,0
		c-0.2,1.1-0.3,2.2-0.6,3.3c-0.1,0.4-0.4,0.7-0.7,1c-0.1,0.2-0.4,0.4-0.4,0.5c0.1,0.4,0.3,0.8,0.5,1.3c0.3-0.5,0.5-1,0.8-1.5
		c0.2,0.8-0.1,1.5-0.6,2.1c-0.2,0.3-0.6,0.4-0.8,0.7C176.6,116,176,117.1,175.4,118.3z M162.6,23.8c0.7-1.4,1.4-2.8,2.1-4.2
		c-1.4,0.1-2.4,0.9-3,1.9c-0.7,1.3-0.3,2.7-0.4,4.1C161.7,25,162.2,24.4,162.6,23.8c-0.1,0.3-0.2,0.7-0.4,1c-0.7,1-1.4,2-1.2,3.4
		c0,0.3-0.1,0.6-0.2,0.9c-0.2-0.1-0.3-0.1-0.5-0.2c0,0.3,0,0.5-0.1,0.7c-0.2,0.5-0.2,1,0.4,1.2c0.6,0.3,2,0.2,2.2-0.3
		c0.4-0.8,0.7-1.7,1.1-2.6c-0.3,0-0.5,0-0.6,0c0.2-0.1,0.5-0.3,0.7-0.5c0.1-0.1-0.1-0.4-0.1-0.6c-0.3,0.3-0.4,0.5-0.6,0.6
		c0.4-0.9,0.9-1.8,1.4-2.7c0.1-0.2,0.2-0.4,0.3-0.5c1.4-1.4,2-3.1,1.9-5.1c-1,0.3-1.6,0.7-1.6,1.8c-0.1-0.1-0.2-0.2-0.4-0.5
		c-0.6,1.1-1.2,2.2-1.7,3.2C163,23.7,162.8,23.8,162.6,23.8z M175.7,71.1c0,0.4,0,0.7,0,1.3c0.3-0.1,0.7-0.1,0.8-0.3
		c0.2-0.4,0.2-0.9,0.3-1.5c0.8-0.5,1.6-1.2,2-2.4c0.2-0.8,0.8-1.5,1-2.3c0.4-1,0.6-2.1,0.9-3.2c-1.3,0.4-1.7,1-2.3,2.2
		C177.4,66.9,177.3,69.3,175.7,71.1c0.4-1.2,0.8-2.4,1.1-3.7c0.3-1.1,1.3-2.1,0.4-3.3V64c0.1,0,0.1,0.1,0.2,0.1
		c0.2-0.2,0.5-0.4,0.6-0.6c0.2-0.6,0.4-1.3,0.5-1.9h0.1c0,0.7-0.1,1.4-0.1,2.2c0.8-0.7,1.4-1.2,2-1.7c0.1-0.1,0.2-0.2,0.3-0.3
		c0.1-0.2,0.1-0.5,0-0.6c-0.5-0.7-1.2-1.3-2.1-1.4c-0.1,0-0.2,0.1-0.3,0.2c-0.3-0.9-0.8-1.5-1.7-1.7c0,0.1,0.1,0.2,0,0.2
		c-0.1,0.1-0.1,0.1-0.2,0.2c-1.5,1.3-2.1,3.2-2.4,5c-0.2,1.6-0.1,3.2,0,4.8c0,1,0.3,1.9,1.1,2.7C175.4,71.5,175.6,71.3,175.7,71.1z
		 M195.2,46.7c-0.3-0.4-0.6-0.8-0.9-1.1c-0.9-1.1-1.7-2.1-2.6-3.2c-0.5-0.5-1-1-1.6-1.5c-0.5-0.4-1-0.7-1.5-1
		c-1-0.5-2.3-0.6-3.1-1.6c-0.1-0.1-0.4-0.2-0.5-0.1c-0.7,0.3-1.4,0.6-2.2,0.9c0,0.1,0,0.1,0,0.2c0.7,0.1,1.4,0.3,2.1,0.4
		c-0.3,0.2-0.6,0.5-0.9,0.5c-1,0.1-2.1,0.1-3.1,0.2c-0.4,0.1-0.7,0.4-1.1,0.6c0.4,0.9,1,1.2,1.8,1.3c0.9,0,1.9-0.1,2.8-0.1
		c0.8,0,1.6,0.2,2.4,0.3c-0.6,0.4-1.1,0.8-1.7,0.8c-1.4,0-1.4-0.1-2.4,0.5c0.1,0.1,0.2,0.2,0.3,0.3c1.3,0.6,2.4,1.5,3.8,1.8
		c0.7,0.2,1.4,0.5,2.1,0.7c0.1,0,0.2,0,0.3,0c0.2,0,0.5,0,0.7,0.1c0.7,0.6,1.3,1.5,2.1,1.8c1.2,0.5,2.5,0.5,3.9,0.8
		C195.8,48.3,195.5,47.5,195.2,46.7c0.4,0.5,0.7,1.1,1.1,1.6c0.1,0.1,0.3,0.3,0.5,0.3c0.1,0,0.3-0.3,0.3-0.5c0-0.3-0.1-0.6-0.1-0.9
		l0.1-0.1c0.1,0.2,0.2,0.4,0.3,0.7c0.1-0.1,0.1-0.1,0.2-0.2c-0.3-1.5-1.4-2.5-3.2-2.7c0.2,0.3,0.3,0.6,0.4,0.9
		C194.9,46,195.1,46.3,195.2,46.7z M126.5,117.2c-0.3,1-0.5,2.1-0.8,3.1c-0.1,0.4-0.1,0.8,0,1.1c0,0.1,0.6,0.1,0.9,0.1
		c0.1,0,0.2,0,0.3,0v0.1c-0.3,0.1-0.7,0.2-1.1,0.4c0.1,0.3,0.3,0.5,0.5,0.8c0.6-0.5,1-0.9,1.4-1.3c0,0.1,0,0.4,0,0.8
		c0.6-0.4,1-0.7,1.5-1c0.8-0.6,1.6-1.1,1.7-2.2c0-0.1,0.2-0.2,0.4-0.3c0.3-0.2,0.6-0.3,0.9-0.5c0.3-0.3,0.6-0.6,0.4-1
		c-0.3,0.4-0.6,1-0.9,1.1c-0.7,0.1-0.9,0.7-1.3,1.1c-0.1,0.1-0.1,0.4-0.1,0.5c-0.1-0.1-0.2-0.2-0.3-0.3c0-0.2,0.1-0.4,0.1-0.6
		c-0.1,0-0.1-0.1-0.2-0.1c-0.2,0.3-0.4,0.7-0.7,1.1c-0.1-0.1-0.3-0.2-0.5-0.3c-0.5,0.5-0.9,0.9-1.3,1.3c-0.1-0.1-0.2-0.2-0.3-0.2
		c0.5-0.7,0.9-1.6,1.5-2.1c1.2-1,2.5-1.9,3.8-2.8c0.2-0.1,0.5-0.1,0.7-0.1c0.1,0.1,0.1,0.1,0.2,0.2c0.3-0.8,0.5-1.7,0.8-2.6
		c0.1,0.3,0.1,0.6,0.1,0.9c0.6-0.7,1.1-1.2,1.5-1.8c0.7-1.1,1.5-2.2,2.1-3.5c0.6-1.4,1.7-2.2,3-2.7c0.6-0.3,1-0.9,1.5-1.3
		c-0.1-0.1-0.1-0.2-0.2-0.3c-0.9,0.4-1.7,0.9-2.6,1.1c-0.8,0.3-1.7,0.4-2,1.4c0,0.1-0.2,0.1-0.2,0.2c-0.6,0.3-1.1,0.6-1.7,0.9
		l-0.1-0.1c0.5-0.6,1-1.1,1.5-1.7c0-0.1-0.1-0.1-0.1-0.2c-1,0.4-2,0.8-3,1.2c-0.2,0.1-0.3,0.5-0.3,0.7c0,0.9,0,1.8,0,2.7
		c-0.1,0-0.2,0-0.3,0c-0.1-0.8-0.2-1.6-0.4-2.4c-0.1,0-0.2,0-0.2-0.1c-0.1,0.4-0.2,0.8-0.4,1.3c-1,0-1,0.9-1,1.4
		c-0.3,0.1-0.5,0.2-0.6,0.3c-0.5,0.5-0.9,1-1.3,1.5c-0.6,0.7-1.1,1.4-0.8,2.5c1.1-1,1.1-1,1.6-0.8c0.9-1.2,1.9-2.3,2.8-3.5
		c0.1,0,0.1,0.1,0.2,0.1c-0.6,0.9-1.2,1.8-1.9,2.8c0.5-0.2,0.8-0.3,1.2-0.4c-0.1,0.5,0,1-0.3,1.2c-0.5,0.6-1,1.1-1.6,1.5
		s-0.9,1-1.4,1.4c-0.8,0.7-1.5,1.7-2,2.6c-0.3,0.6-0.6,0.8-1.2,0.5c0.2-0.7,0.5-1.3,0.7-2c0.1,0,0.1,0,0.2,0.1c0,0.3,0,0.6-0.1,0.9
		c0.1,0,0.2,0,0.3,0c-0.1-0.9-0.2-1.7-0.3-2.6C126.6,117.1,126.5,117.2,126.5,117.2c0-1,0-1.9,0-2.9c0-0.4,0.2-0.8,0.5-1.1
		c0.4-0.4,0.8-0.7,1.4-0.9c1.1-0.4,1.8-1.4,2.2-2.6c0.5-1.3,0.8-2.8,2-3.7c0.8-0.6,1.1-1.8,2.4-2c0.1,0,0.2-0.2,0.3-0.3
		c0.1,0.1,0.1,0.1,0.2,0.2c-0.2,0.2-0.4,0.4-0.6,0.6c-0.3,0.4-0.7,0.8-1,1.2c2.3-0.4,4.4-1.1,6.4-1.6c-0.7-0.3-1.4-0.6-2-0.9
		c1.1,0,2.2,0.1,3.3,0.1c2.5,0.1,2.6-1,3.1-2.8c-0.2,0.1-0.4,0.1-0.7,0.2c0.2-0.6,1.3-0.5,0.8-1.5c-0.3,0.1-0.6,0.3-0.9,0.4
		c0.1-0.3,0.3-0.7,0.4-1s0.1-0.6,0.2-0.8c0.4-0.8,0.4-1-0.2-1.2c-0.3-0.6-0.5-1.3-0.8-1.4c-0.8-0.3-1.1,0.6-1.8,1.1
		c0.4-0.1,0.6-0.2,1-0.3c-0.6,0.5-1,0.9-1.5,1.5c0.2-0.4,0.3-0.6,0.4-0.9l-0.1-0.1c-0.4,0.4-0.9,0.9-1.3,1.3c0.7,0.4,1.3,0.7,2,1.1
		c-0.4,0-0.6,0.1-0.8,0.1c-0.3,0.7-0.6,1.3-0.9,1.9c-0.1,0-0.2-0.1-0.2-0.1c0.2-0.7,0.5-1.3,0.7-2c-1.1-0.2-1.5,0-2.3,1
		c0-0.1-0.1-0.2-0.2-0.6c-0.2,0.6-0.4,1-0.6,1.4c0.7,0.2,1.3,0.4,1.9,0.6c0,0.1,0,0.1,0,0.2c-0.6,0-1.3-0.2-1.7,0.1
		c-0.3,0.2-0.3,1-0.5,1.5l-0.1,0.1c0-0.3,0-0.5,0-0.7c0-0.6,0-0.9-0.8-0.8c-1.2,0.2-2.5,0.2-3.7,0.3c0.1,0.1,0.1,0.2,0.2,0.3
		c-0.2,0.3-0.5,0.7-0.7,0.9c-0.3-0.3-0.5-0.7-0.6-0.7c-0.7,0.3-1.1,0.8-1.1,1.7c0.3-0.3,0.6-0.5,1-0.9c-0.1,0.3-0.1,0.5-0.2,0.6
		c-0.6,0.5-1.1,1.2-1.4,1.9c-0.1,0.1-0.4,0.2-0.8,0.3c-0.2,0.4-0.4,0.9-0.7,1.4c-0.1,0-0.1,0-0.2-0.1c0.2-0.6,0.3-1.2,0.5-1.8
		c-0.9,0.6-1.6,2.1-1.7,3.4c0.2-0.4,0.4-0.6,0.5-0.9c0,0.3-0.1,0.5-0.2,0.8c-0.8,1.7-1.5,3.4-1.5,5.3c0,0.8,0.1,1.5,0.1,2.3
		c0,1-0.1,2-0.2,3C125.8,118.7,126.2,117.9,126.5,117.2z M161.1,104.6c0.1,0.1,0.4,0.2,0.4,0.3c0,0.3,0,0.7,0,1c0.1,0,0.1,0,0.2,0
		c0.1-0.5,0.2-1.1,0.3-1.6c0.1,0,0.1,0,0.2,0c0,0.8,0.1,1.6,0.1,2.4c0.8-0.9,0.1-2.1,0.7-3.1c0.2,0.7,0.5,1.4,0.7,2.1
		c1.3-0.4,0.4-1.8,1.1-2.5c0.1,0.2,0.2,0.3,0.3,0.4c0-0.7-0.1-1.3,0.7-1.4c0.3,0.5,0.5,0.9,0.8,1.4c0.1,0,0.1-0.1,0.2-0.1
		c-0.2-0.5-0.4-1-0.6-1.5c0.4-0.3,0.9-0.5,1.3-0.8c0,0.1,0.2,0.2,0.3,0.3c-0.1-0.7-0.2-1.3-0.2-2c0.1,0,0.2,0,0.2-0.1
		c0.4,0.3,0.8,0.7,1.2,1c-0.4-0.7-0.8-1.4-1.3-2c-0.7-0.7-1.5-1.3-2.2-2c-0.1-0.1-0.3-0.2-0.4-0.2c-0.9-0.1-1.8-0.2-2.7-0.4
		c-0.8-0.1-1.7-0.3-2.5-0.4c0,0,0,0.1-0.1,0.1c0.4,0.2,0.7,0.4,1,0.5c-0.4,0.3-0.7,0.6-1.2,0.9c-0.3-0.2-0.9-0.5-1.5-0.1
		c-0.1,0.1-0.3-0.1-0.4-0.1c-0.2,0-0.4-0.1-0.6-0.1c0,0.2,0,0.3-0.1,0.6c-0.7-0.2-1.4-0.4-2.2-0.6c0.1-0.2,0.2-0.4,0.2-0.4
		c-0.6,0-1.1,0-1.6,0c-0.1,0-0.2,0-0.3,0c-2,0.2-3.8,0.9-5.5,2c-0.5,0.3-0.5,0.8-0.5,1.3c0.1,0.9,0.3,1.8-0.1,2.6
		c-0.1,0.1,0,0.4,0,0.5c0.2,0.1,0.4,0.1,0.6,0c0.6-0.2,1.1-0.4,1.7-0.6c0,0,0,0.1,0.1,0.1c-0.2,0.3-0.4,0.5-0.7,0.8c0,0,0,0,0.1,0.1
		c0.6-0.4,1.1-0.7,1.7-1.1c0.1,0.1,0.2,0.2,0.3,0.3c-0.4,0.8-0.9,1.6-1.3,2.4l0.1,0.1c0.7-0.7,1.4-1.3,2-2c0.1,0.1,0.2,0.1,0.3,0.2
		c-0.3,1.2-0.7,2.4-1,3.6h0.1c0.3-0.5,0.6-1,0.9-1.5c0,0,0.1,0,0.1,0.1c-0.1,0.2-0.1,0.5-0.2,0.7c0.3-0.5,0.5-1,0.7-1.5
		c0.2-0.5,0.4-1,0.6-1.5c0.1,0,0.2,0.1,0.3,0.1c0,0.7,0,1.5,0,2.2h0.1c0.1-0.7,0.2-1.3,0.3-2h0.1c0.2,1.1,0.4,2.2,0.6,3.5
		c0.6-1,0.7-1.8,0.3-2.1c0,0.2-0.1,0.3-0.1,0.5h-0.1c0.1-0.6,0.2-1.3,0.2-1.9c0.1,0,0.1-0.1,0.2-0.1c0.4,0.9,0.8,1.8,1.2,2.6
		c0,0,0,0,0.1,0c-0.1-0.4-0.2-0.8-0.3-1.2c0.1,0,0.1,0,0.2-0.1c0.3,0.6,0.5,1.1,0.9,1.8c0-1.6,0-3,0-4.3h0.1
		c0.2,0.4,0.4,0.8,0.6,1.3c0.1-0.6,0.1-1.2,0.1-1.7c0-0.7,0-1.4,0-2.1s0-1.4,0-2l0,0c0.2,2.8,0.4,5.7,0.6,8.5h0.1
		c0.1-0.2,0.2-0.4,0.3-0.7c0.1,0,0.1,0,0.2,0c0,0.4,0,0.8,0.1,1.2h0.1c0.2-0.4,0.3-0.9,0.5-1.4c0.2,0.2,0.3,0.3,0.5,0.5
		c0.2-0.3,0.3-0.4,0.4-0.7c0.1,0.2,0.2,0.4,0.3,0.6c0.1,0,0.1,0,0.2,0C161.1,105.1,161.1,104.8,161.1,104.6L161.1,104.6z
		 M169.1,53.6c-0.2,0.4-0.4,0.9-0.6,1.3c0.1,0.1,0.1,0.1,0.2,0.2c0.7-0.2,1.4-0.4,1.9-0.5c0.2-0.4,0.4-0.6,0.5-0.9
		c-0.4-0.2-0.8-0.5-1.4-0.2C169.6,53.6,169.3,53.6,169.1,53.6c0.2-0.3,0.5-0.6,0.8-1c-0.2-0.1-0.4-0.1-0.5-0.2c0-0.5,0-0.9,0-1.3
		c0-0.5-0.2-1.2,0-1.4c0.8-0.7,0.2-1.3,0.2-1.9c0-0.2-0.1-0.4-0.1-0.6c0.7,0.5,0.1,1.7,1.1,1.9c0,0.3,0,0.5-0.1,0.8
		c0.1,0,0.2,0.1,0.3,0.1c0.4-0.8,0.9-1.6,1.2-2.3c0.2,0.2,0.4,0.5,0.7,0.7c0.4-0.4,0.8-0.7,1.1-1c0.1,0.1,0.1,0.1,0.2,0.2
		c-0.3,0.3-0.5,0.6-0.8,0.8c-0.9,0.6-1.3,1.4-1.7,2.3c-0.3,0.8,0,1.3,0.8,1.7c0.8,0.3,1.5,0.7,2.3,1.1c0.3,0.1,0.5,0.4,0.9,0.6
		c0,0.2-0.1,0.6-0.1,1c0.6-0.2,0.8,0.1,1.1,0.6c0.4,0.7,0.5,1.7,1.8,1.8c-0.3,0.1-0.5,0.2-0.6,0.2c0.5,1,1.1,1.6,2,1.9
		c1.2,0.4,2,0.1,2.1-0.9c0-0.8-0.2-1.7,0.9-2.4c-0.5,0-0.7,0-1.2-0.1c0.7-0.1,1.2-0.2,1.8-0.2c0-0.1,0-0.2,0-0.3
		c-0.3-0.2-0.6-0.4-0.9-0.6c0.2-0.1,0.5-0.2,0.8-0.4c-0.9-0.6-1.3-1.5-2.4-1.5c0.1,0.3,0.2,0.5,0.2,0.6c-0.7-0.5-1.5-1-2.2-1.6
		c-0.1-0.1-0.2-0.1-0.2-0.2c-0.4-0.6-0.8-1.3-1.2-1.9c-0.1,0,0.1,0,0.2-0.1c-0.2-0.2-0.4-0.4-0.6-0.5c-0.8-0.1-1.6-0.1-2.2-0.2
		c0.2-0.1,0.5-0.2,0.9-0.3c1-0.4,1.2-1,0.5-1.8c-0.5-0.6-0.7-1.4-1.5-1.8c-0.4-0.2-0.5-1.1-0.7-1.7c-0.1-0.2-0.2-0.4-0.4-0.7
		c-0.1,0.3-0.1,0.5-0.1,0.8c-0.4-0.3-0.6-0.5-0.9-0.7c-1.7,0.1-3.1,1.2-4.1,2.9c0.1-0.7,0.1-1.3,0.3-1.9c0.2-0.6,0.7-1.2,0.9-1.8
		c0.3-0.9,1.1-1.3,1.6-2c0.5-0.8,0.6-0.8,0.9-0.8c-0.6,1.1-1.2,2.1-1.8,3.3c1.8,0.1,2.1-0.1,2-1.5c-0.2,0.1-0.3,0.1-0.5,0.2
		l-0.1-0.1c0.3-0.2,0.5-0.4,0.8-0.7c-0.1-0.3-0.2-0.5-0.3-0.9c0.7,0.4,1.2,0.7,1.8,1c-0.2,0.1-0.4,0.2-0.6,0.3
		c0.2,0.1,0.3,0.2,0.5,0.4c0.6,0.5,1,0.3,1.1-0.4c0.1-0.3,0.1-0.7,0-1c-0.1-0.2-0.4-0.5-0.6-0.6c-0.2-0.1-0.5,0.1-0.7,0.3
		c-0.2,0.1-0.2,0.2-0.3,0s-0.2-0.3-0.4-0.5c0.2,0,0.4-0.1,0.6-0.2c-1-0.2-1.9,0-2.8,0.6c-0.4-0.9-1.2-0.1-1.7-0.2
		c-0.8-0.1-1.3,0.1-1.8,0.9c-0.2-0.8-0.5-0.7-0.8-0.3c-0.2,0.3-0.3,0.7-0.4,1.1c-0.1,0.3,0,0.7-0.1,1c-0.1,0.4-0.2,0.8-0.3,1.1
		c-0.2,0.2-0.6,0.4-0.7,0.7c-0.2,0.3-0.2,0.7-0.2,1.1c0,0.3,0.2,0.5,0.4,0.9c-0.9-0.2-1.2,0.1-1.4,0.7c-0.5,1.5-0.6,3.1-0.1,4.6
		c-0.3-0.1-0.5-0.2-0.6-0.2c0,0.1-0.1,0.2-0.1,0.2c0.4,0.2,0.8,0.5,1.2,0.6s0.6,0.3,0.6,0.7c-0.3-0.2-0.7-0.4-1.1-0.6
		c0,0.1-0.2,0.4-0.1,0.6c0.4,0.8,0.8,1.5,1.8,1.8c-0.2-0.7-0.4-1.3-0.5-1.8c0.7,0.5,1.5,0.9,1.7,2c1-1,1-1,0.7-1.9
		c-0.2-0.8-0.4-1.6-0.8-2.3c-0.7-1.3-1.3-2.5-1.1-4c0.2,0,0.6,0.1,1,0.1c0,0.1,0,0.2,0,0.2c0.7,0.2,1.3,0.3,2,0.5
		c-0.2,0.3-0.4,0.5-0.4,0.6c-0.3-0.1-0.6-0.3-0.9-0.4c-0.1,0-0.4,0-0.4,0c0,0.2-0.1,0.4,0,0.5c0.3,0.5,0.8,0.9,1,1.5
		c0.2,0.7,0.4,0.6,0.9,0.3c0.2,0.8,0.4,1.6,0.6,2.5c-0.2,0-0.3,0-0.4,0c0,0.3,0.1,0.5,0.1,0.7C168.6,53.7,168.8,53.7,169.1,53.6z
		 M172.7,82.3L172.7,82.3c0.2-0.2,0.4-0.3,0.5-0.5c0.3-0.7-0.4-2.4-1.3-2.8c0.1,0.6,0.2,1,0.3,1.5c-0.1,0.1-0.1,0.1-0.2,0.2
		c-0.3-0.2-0.7-0.4-0.8-0.7c-0.2-0.7-0.2-1.5-0.3-2.3c-0.1-0.6-0.2-1.3-0.3-1.9c0.1,0,0.1,0,0.2-0.1c0.2,0.2,0.3,0.4,0.6,0.8
		c-0.1-0.9-0.2-1.7-0.3-2.5c0.1,0,0.2,0,0.3-0.1c0.2,1,0.5,2,0.7,3c0.1,0.6,0.3,1.2,0.4,1.9c0.1,0,0.2,0,0.4,0
		c0.1-0.8,0.1-1.6,0.2-2.4c0.2,0.3,0.4,0.7,0.6,1.2c0.1,0,0.2,0,0.2,0.1c0.3-0.8,0.5-1.7,0.8-2.5c0.3-0.8-0.2-1.5-1-1.7
		c-0.3-0.1-0.6-0.1-0.9-0.2c0.2-0.1,0.4-0.1,0.6-0.1c0.1,0,0.3,0,0.3,0c0-0.1,0.1-0.4,0-0.4c-1-0.7-0.6-1.9-0.9-2.8
		c-0.2,0-0.4-0.1-0.6-0.2c0.5-0.6,0.4-0.9-0.5-1.4c0.2,1.1,0.4,2,0.6,2.8c0.1,0.4,0.2,0.8,0.2,1.2c0,0.5-0.1,0.9-0.2,1.4l0,0
		c-0.1-0.1-0.2-0.1-0.2-0.2c-0.4-1.8-0.7-3.6-1.9-5.1c-0.7-0.9-1.2-1.8-1.6-2.9c0-0.1,0.1-0.3,0.2-0.5c-0.2-0.1-0.3-0.2-0.5-0.4
		c0,0,0-0.1,0.1-0.1c0.5,0.2,1,0.5,1.5,0.8c-0.1,0.7,0.7,2,1.5,2.4c0.2-0.8,0.4-1.5,0.6-2.4c-0.4,0.3-0.6,0.4-0.8,0.5
		c1.1-1,1.4-2.2,1.5-3.8c-0.4-0.1-1-0.2-1.5-0.3c-0.1,0.3-0.2,0.6-0.3,1c-0.1-0.4-0.2-0.7-0.3-0.9c-0.1,0.1-0.3,0.2-0.4,0.2
		c0.2,0.8-0.3,1.2-0.9,1.5c-0.7,0.3-1.3,0.6-2,0.9c-0.1,0.1-0.1,0.3-0.2,0.6c-0.3,0-0.3,0.3-0.2,0.7c0.2,0.7,0.8,1.2,0.4,2
		c0,0.1,0.1,0.3,0.2,0.3c0.6-0.1,0.5,0.4,0.5,0.6c0.1,0.4,0.4,0.9,0.6,1.2c0.5,0.8,0.7,1.6,0.6,2.5c0,0.3,0,0.6,0.1,0.8
		c0.2,0.4,0.1,1.5-0.3,1.9c0-1,0.1-2-0.7-2.8c-0.7,0.8-0.4,1.6,0.1,2.4c-1-0.4-1.5-1.2-1-2c0.7-1.4,0-2.4-0.7-3.4c0,0-0.1,0-0.2,0
		c0,0.2,0.1,0.4,0.2,0.8c-1.4-1.2-1.8-3.2-3.6-3.8c0.1-0.1,0.1-0.2,0.2-0.4c0.5,0.3,1,0.6,1.5,0.9c0.2-0.9,0.3-1.8-0.7-2.4
		c0.1-0.1,0.2-0.2,0.4-0.3c-0.4-0.1-0.6-0.1-0.8-0.2c0.2,0,0.4-0.1,0.6-0.1c-0.2-1.2-0.4-2.3-0.6-3.5c-0.1,0-0.2,0-0.3,0
		c-0.1,1.1-0.2,2.1-0.4,3.2c-0.1,0-0.2,0-0.3,0c0-0.6,0-1.2,0-1.8s0-1.2,0-1.9c0-0.3-0.2-0.6-0.2-0.8c0-0.8,0.1-1.5,0.1-2.3
		c0-1.3-0.4-1.7-1.5-1.9c0,0-0.1-0.1-0.1-0.2c0.6-0.1,0.7-0.4,0.3-0.9c-0.1-0.1-0.1-0.4-0.2-0.6c0.2,0,0.5-0.1,0.7-0.1
		c0.2-1.9,0.4-3.9,0.6-6c-1,1-1.8,1.8-2.6,2.7c-0.5,0.6-1,1.3-1.5,2c-0.2,0.2-0.1,0.6-0.1,1c0.1,0,0.3,0,0.5,0
		c-0.1,0.5-0.2,0.9-0.3,1.3c0.1,0,0.1,0.1,0.2,0.1c0.3-0.3,0.6-0.6,0.8-0.9c0.1,0.5,0.1,1,0.2,1.2c-0.2,0.1-0.6,0.1-0.6,0.2
		c-0.2,0.6-0.5,1.2-0.5,1.7c-0.1,1.1,0,2.2,0,3.3c0,1,0,2-0.2,3c-0.1,0.5,0.2,1,0,1.5c-0.2,0.6-0.3,1.3-0.3,2
		c0.1,1.7,0.2,3.5,0.3,5.2c0,0.3,0.1,0.6,0.1,1.1c0.4,0.2,1,0.6,1.5,0.9c0.1,0.1,0.2,0.2,0.2,0.3c-0.1,0.7,0.5,0.9,0.9,1.1
		c0.7,0.3,1.4,0.6,2,0.9c-1.2,0.5-2.4,0.4-3.6,0.1c-0.4-0.1-0.9-0.1-1.3,0.1c-0.2,0.1-0.1,0.7-0.1,1.1c0,0.2-0.1,0.3-0.1,0.5
		c0,0.6,0,1.3,0,2c0.8-0.1,1.4-0.2,2.1-0.4c0.1,0.2,0.1,0.2,2.5,0.2c0.9,0,1.9-0.1,2.8-0.2c-0.1,0.1-0.2,0.3-0.4,0.6
		c1.1-0.8,2-1.5,3.2-2.3c-0.4,1.1-0.8,2-1.1,2.9c-0.2,0.7-0.5,1.2-1.1,1.6c-0.3,0.2-0.6,0.5-0.9,0.7c-1,0.7-1.8,1.6-3,2
		c-0.4,0.2-0.9,0.5-1.1,0.8c-0.7,1-1.4,2.1-2.1,3.2c-0.2,0.3-0.5,0.6-0.6,0.9c-0.2,0.8,0.2,1.3,0.9,1.8c2.7,1.9,5.7,2.7,9,2.4
		c1-0.1,1.9-0.7,2.9-0.1c-0.2-0.1-0.3-0.3-0.5-0.4c0,0,0-0.1,0.1-0.1c0.3,0.1,0.6,0.3,0.8,0.4c0-0.3-0.1-0.6,0-0.8
		c0.1-0.2,0.4-0.2,0.6-0.3c-0.2-0.2-0.4-0.4-0.7-0.6c0-0.1,0-0.2,0-0.3c0.5-0.1,1-0.2,1.5-0.3c-0.2,0-0.3-0.1-0.6-0.1
		c0.4-0.1,0.6-0.2,0.8-0.2c0.4-0.1,0.6-0.8,0.5-1.1c-0.1-0.3-0.2-0.6-0.2-0.9c0.1-0.4,0.3-0.7,0.5-1.1c-1.3-0.1-0.6-1.1-0.9-1.8
		c-0.1,0-0.3,0-0.4,0c-1,0.3-2.1,0.6-3.1,0.8c-0.9,0.2-1.8,0.3-2.7,0.3c-1.5,0.1-3,0.2-4.5-0.7c0.5,0,0.8,0,1.1,0c1.4,0,2.8,0,4.2,0
		c0.6,0,1.1-0.1,1.7-0.3c0.3-0.1,0.6-0.5,0.9-0.5c0.7,0,1-0.5,1.4-0.9c0.2,0.1,0.5,0.3,0.8,0.4c0.2,0,0.6-0.1,0.7-0.3
		c0.1-0.7,0.2-1.4,0.2-2C173.2,82.6,172.9,82.4,172.7,82.3z M141.1,71L141.1,71c0.1-0.3,0.3-0.5,0.4-0.8c0.1-0.5,0.7-0.9,0.3-1.5
		c-0.4-0.8-0.6-1.6-0.3-2.5c0,0-0.3-0.2-0.4-0.2c0-0.3,0.1-0.6,0.1-0.9c0.1-0.3,0.3-0.5,0.3-0.8c0-0.5-0.3-0.9-0.3-1.4
		c-0.1-0.6-0.4-0.8-1-0.6c0.4-0.6,0.4-1.1-0.4-1.5c0,0.6-0.1,1.2-0.1,1.7c-0.1,0-0.2,0-0.3,0c-0.1-0.5-0.2-1-0.3-1.5
		c-0.1-1-0.4-1.3-1.4-1.2c-0.1,0.4-0.1,0.8-0.2,1.2c-0.2-1.8-0.2-1.8,0-2c0.4,0.1,0.8,0.3,1.1,0.2c0.3-0.1,0.4-0.5,0.6-0.8
		c0-0.1-0.1-0.1-0.1-0.2c-0.3,0-0.6,0.1-0.9,0.1c-0.1-1.3,0.5-2.3,1.2-3.2c0.2-0.4,0.9-0.5,1.3-0.7c0.8-0.2,1.7-0.3,2.5-0.5
		c0.2-0.1,0.4-0.4,0.6-0.6c-0.1-0.1-0.1-0.1-0.2-0.2c-0.9,0.2-1.9,0.3-3,0.6c1-1.6,2.5-2.3,4-3c0-0.2,0-0.5,0.1-0.7c0.3,1,0.7,2,1,3
		c-0.4,0.2-1.2-0.4-1.4,0.6c1.1,0,2.1,0.1,2.7,1.1c0-0.5,0.4-1.1-0.3-1.2c0.1-0.9,0.1-1.8,0.2-2.7c0-0.2,0.1-0.4,0.2-0.5
		c0.6-0.3,0.5-0.9,0.7-1.3c0.1-0.2,0.2-0.5,0.3-0.7c0,0,0.1,0,0.1,0.1c0,0.6,0,1.1,0,1.7c0.1,0,0.1,0,0.2,0c0.2-0.3,0.4-0.6,0.7-1
		c0.3,1.2,0.3,1.2-0.3,1.9c-0.1,0.1-0.2,0.3-0.2,0.4c-0.2,1.2-0.3,2.4-0.5,3.5c0.1,0.1,0.1,0.1,0.2,0.2c1.4-0.9,2.9-1.7,4.4-2.7
		c0-0.1,0.1-0.5,0.3-0.6c0.7-0.4,0.8-1,0.7-1.9c-0.5,0.3-0.9,0.6-1.3,0.8c-0.2-1.6-0.4-3.1-0.6-4.5c0.1-0.2,0.3-0.3,0.3-0.4
		c-0.5-1-0.9-2.1-1.4-3.1c0.4,0.2,0.9,0.4,1,0.8c0.4,1,0.7,2.1,1.1,3.2c0.1,0.1,0.3,0.2,0.5,0.2c0.5,0.3,1,0.6,1.6,0.8
		c0.2,0.1,0.6,0.1,0.8-0.1c0.3-0.3,0.5-0.7,0.8-1.1c0.5-0.8,0.2-1.7,0.2-2.5c0-1.3-0.6-2.3-1.3-3.2c-0.8-1.1-1.8-2-2.8-3
		c-0.1-0.1-0.2-0.4-0.3-0.6c-0.5,1.1-1.8,1-1.5,2.3c-0.1,0-0.2-0.1-0.2-0.1c0-0.2-0.1-0.4-0.1-0.6c-0.5,0.3-1,0.5-1.5,0.8
		c0.9,0.9,1.5,1.9,1.3,2.6c-0.3-0.4-0.5-0.7-0.8-1c-0.3-0.3-0.7-0.7-1.1-0.8c-0.7-0.2-1.5-0.2-2.2-0.4c-1.3-0.5-2.4-0.1-3.3,0.7
		c-0.7,0.6-1.1,0-1.6-0.2c0.2,0.9,0.5,1.7,0.6,2.3c-0.4,0.5-0.7,0.9-1.1,1.3c0.8,0.9,1.8,1.1,2.9,1.1c-1.1,0.5-2.4,0.6-3.4,0.3
		c-0.9-0.2-1.2,0-1.5,0.8c-0.1,0.3-0.2,0.7-0.4,1.1c-0.2,0-0.5-0.1-0.7-0.1c-0.3,0.7-0.3,1.2,0.6,1.2c-1,0.2-1.1,0.4-0.7,2.3
		c-0.2,0.2-0.4,0.3-0.6,0.5c0.1,0.1,0.1,0.2,0.2,0.3c0.6-0.4,1.2-0.7,1.7-1.2c0.5-0.4,0.8-0.6,1,0.2c0.2-0.3,0.4-0.5,0.7-0.7
		c0.1,0.1,0.2,0.1,0.2,0.2c-0.2,0.3-0.3,0.7-0.6,0.9c-0.9,0.8-1.6,1.7-2.1,2.8c-0.1,0.2-0.4,0.6-0.9,0.4c-0.1-0.1-0.4,0-0.5,0.1
		c-0.3,0.3-0.6,0.7-0.8,1c-0.1,0.1-0.1,0.4,0,0.6c0.1,0.5,0.3,1.1,0.3,1.6c0.3,1.9,0.5,3.8,0.7,5.7c0,0.1,0.1,0.2,0,0.3
		c-0.1,0.6,0.2,1.1,0.9,1.2c-0.2-0.8-0.3-1.5-0.5-2.3c0.1,0,0.2-0.1,0.3-0.1c0.3,0.9,0.5,1.8,0.8,2.6c0.5-0.5,1-1,1.3-1.3
		c0.1-0.4,0.1-0.6,0.2-0.9c0.3,0.4,0.5,0.6,0.6,0.8c-0.4,0.3-0.9,0.6-1.3,1c-0.2,0.2-0.3,0.7-0.2,1c0.3,0.9,0.7,1.7,1,2.6
		c0.2,0.5,0.5,1-0.1,1.4c-0.7-2.4-2.1-4.4-4.1-6.1c-0.1,0.4-0.1,0.7-0.2,1.2c0.3-0.2,0.5-0.3,0.6-0.4c0,0,0.1,0.1,0.2,0.1
		c-0.1,0.2-0.3,0.4-0.3,0.6c-0.1,0.4-0.1,0.8,0,1.2c0,0.2,0.3,0.3,0.3,0.4c-0.1,1.3,0.1,2.5,0.9,3.6c0.2-0.3,0.4-0.6,0.7-0.9
		c0.2,0.4,0.3,0.8,0.4,1.1c0,0.1-0.1,0.1-0.1,0.2c-0.6-0.6-0.8,0-0.8,0.2c0.3,1.2,0.5,2.5,1,3.6c0.5,1.2,1.5,2.2,2.1,3.3
		c1,1.7,2,3.3,2.3,5.3c1.8,0.3,4.4,0.1,4.7-0.4c0.3,0.7,0.9,1.1,1.7,1.2c0.2,0,0.4,0.3,0.4,0.5c0,0.1-0.2,0.4-0.3,0.4
		c-0.6,0-1.1-0.1-1.7-0.2c-1.6-0.4-3.2-0.8-4.8-1.2c0,0.6-0.1,1.2-0.1,1.8c0.1,0.1,0.4,0.3,0.6,0.4l0,0c-0.1,0.2-0.3,0.4-0.4,0.6
		c-0.1,0.5-0.1,1-0.1,1.4c0.6,0.5,0.5,1.2,0.8,1.7c-0.2,0.3-0.5,0.6-0.5,0.8c0.2,0.9,0.5,1.8,0.8,2.5c0.5,0.1,0.9,0.1,1.2,0.1
		c-0.1,0.3-0.3,0.6-0.5,1.1c0.2,0.2,0.4,0.6,0.8,0.7c0.3,0,0.6-0.4,1-0.6c0.1-0.1,0.3,0,0.6,0c-0.4,0.4-0.7,0.7-0.9,1
		c0.3,0,0.4-0.1,0.6-0.3c0.4-0.4,0.7-0.7,1.4-0.3c0.5,0.3,1.2,0.4,1.7,0.4c2.3-0.2,4.3-1.1,6-2.8c0.2-0.2,0.6-0.2,0.8-0.4
		c0.3-0.2,0.8-0.4,0.8-0.6c0.1-0.9,0.2-1.7-0.5-2.5c-0.2-0.2-0.3-0.5-0.5-0.8c-1.1-1.6-2.3-3.2-4.2-3.8c-2.4-0.8-4.4-3.4-4.6-6.2
		c1.1,0.9,2.2,1.8,3.1,2.6c0-0.3,0-0.6,0-0.9c0.9,0.3,1.7-0.2,2.6,0c1.2,0.3,2.5,0.2,3.7,0.2c0.2,0,0.7-0.3,0.7-0.6
		c0.1-0.6,0.2-1.2,0.2-1.9c0-0.6-0.1-0.9-0.8-0.7c-0.3,0.1-0.6-0.1-0.9-0.2c-0.7-0.1-1.3-0.4-2,0.2c0.5-0.8-0.1-1.3-0.7-1.9
		c0.6,0,1-0.1,1.5-0.1c0.2,0,0.3-0.1,0.4-0.1c0.8-0.2,1.1-0.8,1.4-1.5c0.1-0.5,0.1-1,0.3-1.4c0.4-0.9,0.2-2-0.6-2.5
		c0.2-1.6,0.6-3,0.6-4.5c0-1.9-0.1-3.8-0.3-5.7c-0.1-1.2-0.1-2.5-1.2-3.3c0.4-1.1,1.5-1.9,1-3.2c-0.4,0.3-0.9,0.6-1.2,0.9
		c-0.4,0.5-0.8,1-1.2,1.5c-0.1,0.1-0.1,0.3-0.1,0.4c0.1,0.6,0,0.8-0.5,0.9c-0.7,0.1-1.5,1.4-1.2,2c0.3,0.6,0.2,1.1,0,1.7
		c-0.4,1.2-0.8,2.5-1.3,3.7c-0.3,0.8,0,1.2,0.3,1.5c-0.2,0.3-0.5,0.6-0.6,0.9c-0.2,0.8-0.7,1.4-1,2.2c-0.6,1.4-1.5,2.7-1.8,4.2
		c-0.7-0.2-0.8,0.3-0.9,0.7c-0.2,0.5-0.4,1-0.6,1.5l0,0c0-1.4,0.5-2.8,1.2-3.9c0.9-1.5,1.1-3.1,1-4.8c-0.1-1.2-0.5-2.4-0.8-3.5
		c0-0.1-0.2-0.2-0.3-0.3c-0.2-0.1-0.4-0.2-0.5-0.3c-0.4-0.4-0.6-1-1-1.1c-1.4-0.4-2.6-1.1-3.6-2c-0.3-0.2-0.6-0.3-1-0.5
		c-0.1,0.1-0.2,0.1-0.3,0.2c0.2,0.5,0.3,1.1,0.7,1.5c0.5,0.5,1.1,0.9,1.7,1.3c0.8,0.4,1.6,0.8,2.3,1.2c0,0.1,0,0.1,0,0.2
		c-0.7,0-1.4,0-2.3,0c0.3,0.9,0.9,1.6,0.8,2.3c-0.1,1.1,1,0.9,1.2,1.5c0.2-0.1,0.4-0.2,0.6-0.2c0.6,0.4,1,0.8,1.6,1.2
		c0,0-0.1,0.1-0.3,0.1c-1,0.4-1.7,1.1-2,2.2c-0.2,1-0.4,2-0.7,2.9c-0.2,1-0.4,2.1-0.6,3.1c0,0,0,0.1,0,0.2c0.6,0.4,0,0.9,0.1,1.4
		c-0.2-0.1-0.3-0.2-0.5-0.3c-0.1,0.4-0.3,0.8-0.4,1.2c-0.1,0.3-0.1,0.7-0.2,1c-0.1,0-0.2,0-0.3-0.1c0-0.2,0.1-0.4,0.1-0.6
		c0.2-0.9,0.3-1.8,0.5-2.7c0.1-0.7,0.1-1.4,0.1-2.1c0.1-0.8,0.2-1.5,0.2-2.3c0-0.2-0.2-0.5-0.3-0.7c-0.1,0-0.1,0-0.2,0.1
		c-0.1,0.8-0.2,1.6-0.3,2.5c-0.1,0-0.2,0-0.3-0.1c0-0.1,0.1-0.1,0.1-0.2c0.1-0.1,0.1-0.2,0.2-0.3c-0.1,0-0.1,0-0.2,0
		c-0.1-0.3-0.2-0.6-0.3-1c0-0.6-0.3-0.8-0.9-0.5C141.4,70.9,141.3,70.9,141.1,71z M123.6,35.9c0.1-0.3,0.1-0.5,0.2-0.8
		c-2.3,0-4.5,0-6.8,0c0,0.1-0.1,0.1-0.1,0.2c0.4,0.1,0.9,0.3,1.3,0.4c-0.4,0-0.7,0.1-1.1,0c-0.8-0.1-1.3,0.2-1.6,0.9
		c-0.5,1.3,0,2.9,1.2,3.8c0.7-1.3,1.3-2.7,2.8-3.3c0.2,1-0.8,1.4-1.4,2.1c-0.5,0.5-0.8,1-0.7,1.7c0.2,0,0.4-0.1,0.6-0.1
		c-0.5,0.7-0.9,1.5-1.4,2.2c0.1,0.1,0.1,0.2,0.2,0.3c0.6-0.1,1.2-0.1,1.8-0.2c0.4-0.1,0.9-0.3,1.2-0.6c0.1,0,0-0.3,0-0.6
		c0.4-0.3,0.9-0.8,1.5-1.2c1-0.7,2-1.4,3-2c0.5-0.3,1.1-0.9,1.5-0.8c1.7,0.4,3.3-0.5,4.9-0.4c-0.2-0.2-0.3-0.3-0.5-0.4
		c-0.2-0.1-0.4-0.2-0.5-0.4c0-0.1,0.1-0.1,0.2-0.2c3,1.7,6.1,2.9,9.8,2.6C134.3,34.4,128.4,33.5,123.6,35.9z M117.9,31.8
		c1.8,0,3.6,0,5.3,0c0,0.1,0,0.1,0,0.2c-0.4,0.1-0.8,0.2-1.2,0.3c-0.1-0.1-0.1-0.4-0.2-0.4c-1.4,0-2.8,0.1-4.3,0.1
		c0.5,1.5,0.7,1.7,1.5,1.5c0.2,0.3,0.2,0.6,0.4,0.6c0.5,0.2,1,0.3,1.5,0.4c2.8,0.2,5.5-0.3,8-1.5c0.2-0.1,0.5-0.1,0.7-0.1
		c-0.1-0.1-0.3-0.2-0.4-0.3c0.4,0,0.8-0.1,1.2,0c1.7,0.5,3.3,1,4.8,2.2c1.8,1.5,4.2,2.2,6.7,1.7c-0.9-3.1-10.5-7.7-14.2-6.8
		c0.3,0.3,0.5,0.6,0.8,0.9c-0.3,0-0.6-0.1-0.8-0.2c-0.6-0.2-1.3-0.8-1.9-0.6c-1.4,0.3-2.6,0.3-3.7-0.6c-0.1-0.1-0.4-0.2-0.6-0.1
		c-0.9,0.3-1.9,0.5-2.7,1C118.3,30.4,117.9,31,117.9,31.8z M126.1,100.7c0.1,0.1,0.2,0.1,0.2,0.2c0.4-0.4,0.8-0.9,1.3-1.1
		c0.9-0.4,1.4-1.1,1.9-1.9c0.1-0.1,0.3-0.3,0.4-0.3c0.2-0.1,0.6-0.1,0.6-0.3c0.4-0.8,0.8-1.6,1.2-2.4c-0.1-0.1,0,0.1,0.1,0
		c0.1,0,0.7,0,0.7,0c0.2,0.4,0.5,0.4,0.8,0.2c0.6-0.4,1.2-0.9,1.7-1.4c0.3,0.6,0.6,0.6,1.1-0.2c-0.3,0-0.6,0-0.9-0.1
		c1.6-0.1,3-0.2,4.5-0.2c0.1-0.2,0.2-0.4,0.3-0.6c-0.9,0-1.7-0.1-2.5-0.1c0-0.1,0-0.1,0-0.2c1.2-0.3,2.3-0.5,3.6-0.8
		c-0.7,1.2-1.3,2.2-2,3.3c-0.1,0-0.1-0.1-0.2-0.1c0-0.2,0.1-0.3,0.2-0.6c-0.7,0.2-1.3,0.2-1.9,0.4c-0.5,0.2-1.1,0.5-1.6,0.8
		c0,0.1,0.1,0.4,0.1,0.6c-0.3,0-0.5,0-0.7,0.1c-0.8,0.4-1.6,0.7-2.4,1.2s-1.4,1.1-1.5,2.2c0,0.5,0.4,0.9-0.1,1.4
		c-0.2,0.2-0.2,0.6-0.2,1c0.4-0.1,0.7-0.2,1-0.2c0.4-0.9,0.9-1.8,1.5-2.6c0.7-0.9,1.6,0,2.4-0.3c0.3-0.1,0.7,0.1,1.1,0.2
		c0.2-0.2,0.6-0.6,1-1c0.3-0.4,0.6-0.8,0.9-1.2c0.3-0.6,0.5-1.3,0.9-1.8c0.8-0.7,1.7-1.2,2.6-1.7c0.6-0.3,0.9-0.8,0.7-1.4
		c-0.1-0.6-0.3-1.1-0.5-1.6c-1,0.2-1.9,0.4-2.8,0.6c-0.7,0.2-1.6,0.1-2.1,0.5c-0.7,0.6-1.4,0.5-2.1,0.5c-0.3,0-0.7,0-1,0.1
		c-0.6,0.3-1.1,0.7-1.7,1c-0.9,0.4-1.7,0.8-2.5,1.1c0.2-0.3,0.4-0.8,0.7-1.3c0,0-0.1,0-0.1-0.1c-0.2,0.3-0.5,0.5-0.7,0.8l-0.1-0.1
		c0.1-0.1,0.2-0.3,0.2-0.4c-0.1,0-0.1-0.1-0.2-0.1c-0.3,0.4-0.7,0.7-1,1.1c-0.4,0.6-0.6,1.3-1,1.8c-0.4,0.7-1,1.3-1.4,2
		c0.1,0.1,0.1,0.1,0.2,0.2c0.1-0.1,0.2-0.2,0.4-0.4C127,98.9,126.5,99.8,126.1,100.7z M160.2,120.3c0-0.8-0.1-1.5-0.2-2.5
		c0.6,1.3,0,2.6,0.9,3.7c0.1-0.2,0.1-0.4,0.2-0.8c0.2,0.8,0.3,1.3,0.4,1.9c1.1-0.9,1.1-1.9,0.1-3.4c0.3-0.2,0.7-0.5,1-0.7
		c-0.2-0.5-0.4-1-0.6-1.4c0.1-0.2,0.2-0.4,0.4-0.7c0.1,0.3,0.1,0.5,0.1,0.7c0,0.3,0.2,0.5,0.3,0.8c0.4-2.5,0.1-3.6-1.8-7
		c-0.2,0.7-0.4,1.3-0.6,1.9c-0.1,0.6-0.2,1.2-0.3,1.9c-0.3-0.2-0.5-0.4-0.7-0.5c-0.2,0.4-0.4,0.7-0.5,1.1s-0.1,0.8-0.2,1.4
		c-0.2-0.7-0.4-1.2-0.6-1.7c-1.3,0.5-2.1,3.4-1.2,3.8c-0.2,0.1-0.4,0.2-0.6,0.2c0,0.2,0.1,0.4,0.1,0.6c-0.3-0.1-0.6-0.4-0.6-0.6
		c0-1.3-0.1-2.6,0.9-3.6c0.5-0.5,0.8-1.3,1.4-1.4c1-0.2,0.9-0.8,0.6-1.3s-0.8-0.9-1.2-1.4c-0.1-0.1-0.3-0.1-0.5-0.1
		c0.9-0.5,1.3,0.2,1.6,0.8c0-0.8,0.3-1.5-0.2-2.3c-0.1,0.3-0.2,0.4-0.3,0.6c-0.5-0.7-0.9-1.3-1.4-2c-1,0.3-0.8,1.4-1.1,2.2
		c0.1-0.1,0.2-0.2,0.3-0.4c-0.2,0.8-0.4,1.5-0.7,2.3c-0.2,0.4-0.4,0.8-0.7,1.1c-0.1,0.2-0.4,0.4-0.4,0.6c0.1,1.4,0.2,2.9,0.3,4.3
		c-0.1,0-0.2,0-0.5-0.1c0.9,1.1,1.6,2.1,1.7,3.5c0.2-0.3,0.7-0.5,0.3-1c-0.3-0.3-0.4-0.8-0.6-1.1l0.1-0.1c0.4,0.3,0.8,0.6,1.3,1
		c-0.1-0.6-0.1-1-0.2-1.4c0.2,0.1,0.2,0.1,0.3,0.1c0.3-0.9,0.6-1.9,0.9-2.9c0.3,0.7,0.6,1.3,1,1.9c0.2-0.1,0.3-0.2,0.4-0.3
		C158.7,119.1,159.6,119.6,160.2,120.3z M190.5,34.2c0.4-0.6-0.1-1.8-1.2-2c-0.3-0.1-0.7-0.1-1-0.2c-1.1-0.4-2,0.1-2.9,0.4
		c-0.1,0-0.2,0.3-0.3,0.4c-0.2,1.1-0.4,2.2-0.6,3.4c0,0.2,0,0.5,0.1,0.5c0.9,0.6,1.9,1.4,2.9,1.8c0.8,0.3,1.2,0.8,1.8,1.3
		c0.4,0.3,0.8,0.4,1.3,0.7c-0.1-0.6-0.2-0.9-0.3-1.4c1.1,1.1,1.6,2.6,3.2,3c0-0.6,0-1.2,0-2c0.2,0.4,0.3,0.5,0.3,0.6
		c0.1,0,0.1-0.1,0.2-0.1c-0.4-0.9,0.8-2.4-1-2.7c0.1-0.5,0.3-1,0.2-1.3c-0.3-0.8-1-1.3-1.9-1.4c0,0.4-0.1,0.7-0.1,1.2
		C190.9,35.6,190.7,35,190.5,34.2z M190.4,31.2c0.2,0.2,0.3,0.3,0.4,0.4c0.1,0.3,1.1,0.5,0.2,1c0,0,0,0.1,0.1,0.1
		c0.3,0.5,0.6,1,0.9,1.4c0.4,0.6,1,0.9,1.7,0.5c-0.1-0.2-0.2-0.5-0.4-0.8c0.5,0.3,0.8,0.4,1.1,0.6c0.1-1.2,0.2-2.3,0.3-3.4
		c0.1,0.9,0.1,1.8,0.1,2.7c0,1,0.5,1.4,1.4,1.4c0.4,0,0.8,0,1.3,0c0,0.2,0,0.4,0,0.6c0.6,0.1,1.1,0.3,1.7,0.4
		c0.2-1.4-0.5-2.4-1.4-3.2c-1.1-0.9-2.3-1.8-3.4-2.7c-1.2-1-2.2-2.3-4-2.5c-1.1-0.1-2.1-0.3-3.2-0.2c-0.9,0.1-1.8,0.1-2.3,1
		c1,0.6,2,1.1,3,1.7c0.2,0.1,0.5,0.1,0.7,0.1c1-0.3,2,0,2.9,0.5C191.1,31,190.8,31.1,190.4,31.2z M185.3,77.8
		c-0.1,0.1-0.1,0.1-0.2,0.2c0.1,0.4,0.1,0.8,0.3,1.1c0.5,0.9,1,1.9,1.6,2.7c0.9,1.1,2.2,1.4,3.1,1.2c-0.3-0.4-0.6-0.8-0.9-1.2
		c0.3-0.1,0.5-0.1,0.7-0.2c-0.3-0.8-0.6-1.6-0.8-2.4c-0.4-1.9-0.4-1.9-0.9-2.1c-0.1,0.3-0.2,0.6-0.3,1c-0.1-0.7-0.1-1.2-0.2-1.7
		c0-0.3,0.1-0.6,0.1-0.9s0-0.6,0.1-0.9c0-0.6,0-1.2,0-1.9c-0.1,0-0.2,0-0.3,0c-0.1,1-0.2,1.9-0.3,3c-0.2-0.1-0.5-0.2-0.5-0.3
		c0-1.4-0.1-2.8,0.2-4.2c0.3-1.1,1-2.1,0.4-3.3c-0.1-0.1,0-0.4,0.1-0.6c0.1,0,0.1,0,0.2,0c0.1,0.3,0.2,0.5,0.2,0.8
		c0,0.4,0,0.8,0,1.2c0,0.2,0.2,0.4,0.3,0.7c0.1-0.2,0.2-0.5,0.3-0.7c0.2-1.3-0.5-2.1-1.2-3c-0.1,0.2-0.2,0.5-0.2,0.7
		c0.2-1.1,0-2-1-2.6c-1.1,1.1-1.4,3.1-0.5,4.8c0.1-0.5,0.2-0.8,0.3-1.2c0.1,0,0.1,0,0.2,0c-0.1,2.9-0.2,5.7-0.3,8.6
		c-1.4-0.1-2.7,0.3-4,1.2C183,78,184.2,77.2,185.3,77.8z M153.1,132.4c0.3-0.1,0.6-0.1,0.8-0.2c1.7-0.9,2.4-2.6,2.8-4.4
		c0.1-0.2,0-0.5-0.2-0.7c-0.5-1-1.1-2-1.7-3c-0.2-0.4-0.4-0.8-1.1-0.4c0.6-1.4,0-2.4-0.6-3.4c-0.8,2.6-1.5,5.2-2.3,7.8
		c0.3,0.5,0.8,1.2,1.2,1.9C152.4,130.8,152.7,131.6,153.1,132.4z M184.9,30.8c-0.9-0.1-1.6-0.2-2.3-0.3c-0.2,0-0.5,0-0.7,0.1
		c-1.6,0.3-3.1,0.8-4.4,1.8c-0.1,0.1-0.4,0-0.5,0.1c0-0.1,0-0.1,0-0.2c0.5-0.3,1-0.7,1.5-1v-0.1c-0.4,0-0.8,0.1-1.1,0.1
		c0.4-0.3,0.8-0.6,1.3-1c-2.4-0.3-5.1,1.8-6,3.9c0.1,0.2,0.2,0.3,0.3,0.4c0.5,1.1,0.8,1.2,1.9,0.8c0.2-0.1,0.4,0,0.5-0.1
		c0.3-0.1,0.7-0.2,0.7-0.4c0.1-0.8,0.9-0.6,1.3-0.9c0.3-0.2,0.6-0.3,1-0.4h0.1c-0.1,0.2-0.2,0.3-0.3,0.7c2.5-1.4,5.5-1.1,7.5-3.1
		c0,0.3-0.1,0.5-0.1,0.7c0.4-0.2,0.8-0.3,1.2-0.5s0.7-0.3,1.1-0.5c-1.3-1.3-4-1.4-4.4-0.6C183.7,30.5,184.4,29.8,184.9,30.8z
		 M184.5,67c-1,1.2-1.9,2.2-2.8,3.2c-0.8,0.9-1.8,1.6-2.1,2.8c0,0.1-0.2,0.2-0.2,0.3c-0.5,0.5-0.6,1.2-0.7,2c0.5-0.6,0.9-1,1.3-1.4
		c-1.8,1.9-3.1,7.1-3.4,8.9c0.8-0.7,1.5-1.4,2.4-2.2c-0.5,0-0.9-0.1-1.2-0.1c0-0.1-0.1-0.1-0.1-0.2c1.7-0.6,2.7-1.9,3.7-3.3
		c-0.8,0.3-1.6,0.5-2.4,0.8l-0.1-0.1c0.5-0.6,1-1.2,1.4-1.7c0.1,0.1,0.3,0.3,0.5,0.3c0.3,0,1.2-1.3,1.1-1.7c0-0.1,0.1-0.3,0.1-0.4
		h0.1c0,0.5,0,1,0.1,1.5c0.2-0.1,0.2-0.2,0.3-0.2c1.1-1.7,1.1-3.8,2-5.5C185,69.3,184.5,68.1,184.5,67z M156.2,32.6
		c-0.4,0.1-0.8,0-0.9,0.2c-0.3,0.5-0.5,1-0.7,1.5c-0.1,0.3-0.2,0.6-0.3,0.8s-0.3,0.4-0.3,0.5c0.1,0.9,0.3,1.8,0.5,2.8
		c0.1,0.9,0.7,1.2,1.6,1.1c-0.1-1-0.1-1.9-0.2-2.8c0.1,0,0.2,0,0.2,0c0,0.2,0.1,0.4,0.1,0.6c0.2,0.9,0.3,1.9,0.5,2.8
		c0,0.2,0.3,0.5,0.5,0.6c1,0.4,1.8-0.2,1.8-1.5c0.1-1.1-0.1-2.2,0-3.3c0.1-0.9-0.5-1.1-1.1-1.2c-0.2-0.1-0.5,0-0.9-0.1
		c0-0.7,0-1.4,0-1.9C156.6,32.6,156.3,32.6,156.2,32.6z M166.7,37.2c-0.7,0-1.3,0.3-2,0.7c-1.2,0.7-2.3,1.6-3,2.8
		c-0.4,0.8-1,1.3-1.6,1.9c0.1,0.7,0.1,1.4,0.2,2.1c-0.1,0-0.3,0-0.4,0.1c-0.1-0.5-0.2-1-0.3-1.5c-0.9,1.3-1.3,2.6-0.3,4.1
		c-0.3-0.2-0.5-0.3-0.7-0.4c-0.1,0.3-0.3,0.5-0.5,0.9c0.6-0.1,1.1-0.1,1.5-0.2c1-0.4,2.1-0.8,2.5-2c0.1-0.4,0.5-1,0.7-1
		c0.4,0,0.5-0.2,0.6-0.4c0.4-1,0.7-2.1,1.2-3.1c0.3-0.6,0.2-1.3,0.8-1.8C166.1,38.7,166.3,37.9,166.7,37.2z M177.5,101.9
		c-0.1,0.1-0.2,0.3-0.3,0.5c-0.1,0-0.1-0.1-0.2-0.1c0.2-0.3,0.4-0.5,0.6-0.8c0.3,0.4,0.6,0.6,0.9,1c-0.2-1.7-0.8-2.8-2.5-3.1
		c-1.2-0.2-2.4-0.6-3.6-0.8c-0.2,0-0.4,0.1-0.7,0.2c0.6,0.7,0.5,1.9,1.8,1.8l0.1,0.1c0.4,0.3,0.7,0.7,1.1,1c0,0,0,0.1,0,0.2
		c-0.2,0.1-0.4,0.1-0.6,0.2c1.3,0.3,0.7,1.8,1.4,2.5c0.3-0.9,0.6-1.6,0.8-2.3c0.1,0.1,0.1,0.3,0.1,0.4c-0.2,0.6-0.1,1.2,0.3,1.8
		c0.3,0.5,0.2,1.4,0.1,2.1c-0.2,0.7-0.9,1.2-1,2c0,0.1-0.1,0.2-0.2,0.4c0-0.3,0-0.5-0.1-1c-0.4,1.2-1.5,2-1,3.2
		c0.5-0.3,1.1-0.5,1.3-1.2l0.1-0.1c0.6-0.1,0.7-0.6,0.8-1.1c0.1-0.2,0.2-0.4,0.4-0.6c0.9-0.7,1-1.8,1-2.8c0-0.2-0.2-0.4-0.3-0.6
		c-0.2-0.3-0.4-0.5-0.7-0.7c0.1-0.1,0.2-0.2,0.3-0.3c0.2,0.3,0.3,0.6,0.5,1.1c0.2-0.4,0.3-0.6,0.5-0.9c0.2,0.1,0.4,0.3,0.8,0.5
		c-0.3-0.7-0.5-1.2-0.6-1.6C178.2,102.4,177.9,102.2,177.5,101.9z M183.5,34.8c0.1-0.2,0.2-0.6,0.3-1c0-0.1-0.3-0.4-0.5-0.5
		c-0.5,0-1,0-1.5,0.1c-2.6,0.5-4.8,1.7-7,3.2c-0.2,0.1-0.3,0.5-0.2,0.7c0.4,1.1,1.1,1.6,2.2,1.5c1.4,0,2.7-0.4,4-1
		c0.4-0.2,0.9-0.4,1.3-0.4c0.9,0.1,0.9,0.2,1.2-0.6c-1.2-1-2.7-0.6-4.1-0.6c0.3-0.3,0.6-0.6,0.9-0.8c0.8-0.3,1.6-0.5,2.4-0.7
		C182.8,34.6,183.1,34.7,183.5,34.8z M181.4,95.2c0.2-0.3,0.5-0.5,0.4-0.6c-0.1-0.4-0.1-0.9-0.4-1.2c-0.3-0.4-0.8-0.8-1.3-1.1
		c-0.7-0.4-1.4-0.6-2.2-0.9c-1.2-0.5-2.4-0.9-3.6-1.4c-0.2,1.2-0.2,1.2,0.9,1.6c1.9,0.6,3.8,1.3,5.8,1.9c-0.2,0.4-0.4,0.8-0.6,1.2
		c-1.8-1.5-3.7-2.4-5.9-3c0.5,0.3,1.1,0.5,1.7,0.7c1.1,0.5,1.1,0.6,0.7,1.7c1,0.5,0,1.4,0.3,2.1c0.3,0,0.5,0,0.7,0
		c0.1-0.4,0.2-0.8,0.4-1.2c0.1,0.5,0,1,0,1.4c0,0.1,0.1,0.4,0.2,0.4c0.7,0.1,0.9,0.3,0.8,0.9c0,0.2-0.1,0.4-0.2,0.9
		c1.4-0.6,2.6-1.2,3.8-1.8c0-0.2,0.1-0.4,0.1-0.7c0-0.6-0.5-1.4-0.8-1.1c0,0.2,0.1,0.3,0.2,0.7C181.9,95.5,181.7,95.4,181.4,95.2z
		 M150.3,123.8h-0.1c-0.1-0.8-0.2-1.5-0.2-2.3c0-0.5,0.3-1,0.3-1.5c-0.1-0.6-0.4-1.1-0.7-1.7c-0.1-0.1-0.2-0.3-0.3-0.3
		s-0.3,0.2-0.4,0.3c-0.3,0.7-0.6,1.4-0.7,2.2c-0.5,2.3-1,4.5-0.4,6.8c0.2,0.5,0.4,1,0.6,1.6c1-1.9,2.1-3.6,2.1-5.6
		C150.4,123.5,150.3,123.6,150.3,123.8z M184.3,46.5c-0.2-1.1-1-1.4-1.6-1.7c-0.7-0.3-1.5-0.4-2.2-0.7c-0.8-0.4-1.4-0.9-2.1-1.4
		c-0.9-0.5-1.8-1-2.7-1.5c-0.1,0-0.2,0.1-0.3,0.1c0.1,0.5,0,1,0.2,1.4c0.4,0.7,1.1,1.2,1.6,1.8c0.5,0.7,1.1,1.1,1.9,1.2
		c1,0.1,2,0.2,3,0.3c0.4,0,0.9-0.1,1.4-0.1c0-0.1,0-0.1,0-0.2C183.6,46.1,183.9,46.3,184.3,46.5z M129.2,54.7
		c0.3,0.1,0.4,0.2,0.5,0.2c1.3-0.3,2.5-0.6,3.8-0.9c0.3-0.1,0.6-0.1,0.8-0.3c0.4-0.4,0.8-0.8,1.2-1.2c0.3-0.3,0.7-0.5,1-0.8
		c0.1-0.1,0-0.4,0-0.7c0-0.1,0.2-0.4,0.2-0.4c-0.1-0.2-0.3-0.4-0.5-0.4c-1.5-0.2-2.7,0.3-3.7,1.4c-0.2,0.2-0.3,0.6-0.5,0.8
		C131.1,53.1,130.2,53.9,129.2,54.7z M122.1,119.4c0.1,0,0.3-0.1,0.4-0.1c-0.2-1-0.3-2.1-0.5-3.1c-0.1,0-0.2,0-0.2,0
		c-0.1,0.3-0.2,0.6-0.3,0.8c-0.7-2.4-0.2-4.8,0.2-7.2c-0.1,0-0.1,0-0.2,0c0,0.2-0.1,0.4-0.1,0.7c-0.1,0-0.1,0-0.2,0
		c0-0.3,0-0.7,0-1.2c-0.5,0.3-0.9,0.4-1.2,0.7c-1,0.9-1.1,2.1-0.8,3.4C119.7,115.7,120.8,117.6,122.1,119.4z M160.1,35.4
		c-0.2,1.2-0.5,2.4-0.6,3.5c0,0.3,0.1,0.6,0.3,0.8c0.1,0.1,0.5,0,0.8-0.1c0.3-0.1,0.7-0.3,0.8-0.5c0.4-0.6,0.8-1.2,0.9-1.9
		c0.2-0.8,0-1.6,0.1-2.4c0-0.5,0.2-1,0.2-1.5c0-1-0.3-1.2-1.2-0.8c-0.1,0.1-0.3,0.2-0.4,0.3c-0.2,0.2-0.3,0.5-0.5,0.6
		c-0.6,0.3-0.8,0.4-0.3,1c0.4,0.5,0.9,1,1.3,1.4C161,35.7,160.5,35.5,160.1,35.4z M168.9,30.4c-0.1-0.1-0.1-0.1-0.2-0.2
		c-0.2,0-0.3,0.1-0.5,0.1c-2.6,0.5-4.2,1.9-4.8,4.5c-0.2,0.9,0.1,1.2,1,0.9c0.3-0.1,0.6-0.4,0.9-0.6c0.3-0.2,0.5-0.7,0.9-0.8
		c0.7-0.2,1.2-0.6,1.5-1.2C168.1,32.3,168.4,31.3,168.9,30.4z M174,83.9c0.1,0,0.2,0,0.2,0c0.5-1.5,1-2.9,1.6-4.4
		c0.5-1.3,0.9-2.6,1.5-3.8c0.4-0.8,0.5-1.5,0.4-2.3c-0.8,0.6-1.6,1.2-2.1,2c-0.3,0.5-0.3,1.2-0.6,1.7c-0.7,1.5-1.3,2.9-1.1,4.6
		c0.1,0.4,0,0.9,0,1.3C173.9,83.4,173.9,83.6,174,83.9z M194.8,38.7c-0.1,0.4-0.2,0.9-0.4,1.2c-0.6,1.2-0.2,2.2,0.4,3.2
		c0.2,0.3,0.7,0.6,1,0.5c1-0.4,2-0.9,3.1-1.3c-0.5-0.5-0.9-0.8-1.1-1.2C197.3,39.7,196.1,39.3,194.8,38.7z M171.1,104.4
		c0,0.1,1.3,0.5,1.5,0.3c0.3-0.2-0.2-0.7,0.3-0.8c-0.2-0.3-0.4-0.7-0.6-1.1c0.3,0.1,0.5,0.1,0.7,0.2c0.2-0.4,0.5-0.7,0.7-1.1
		c-0.6-0.4-1.1-0.8-1.8-1.2c0.1-0.2,0.2-0.3,0.3-0.5c-0.4-0.3-0.8-0.7-1.2-1c-0.1,0.1-0.1,0.1-0.2,0.2c0.2,0.4-0.2,1,0.5,1.2
		c0,0.1-0.1,0.2-0.1,0.3c0,0.1-0.2,0.1-0.2,0.2c-0.1,0.6-0.1,1.1-0.1,1.5c-0.4-0.1-0.9-0.3-1.2-0.2c-0.5,0.3-0.9,0.8-1.3,1.2
		c-0.1,0.1,0,0.7,0.1,0.7C169.3,104.5,170.1,104.4,171.1,104.4z M161.6,130.3c0.1,0,0.2-0.1,0.2-0.1c-0.5-3.3-1.5-6.5-2.8-9.6
		c-0.4,1.1-0.7,2.2-1,3.2c-0.2,0.4-0.1,0.7,0.2,1c0.5,0.6,1,1.2,1.4,1.8C160.3,127.8,161,129.1,161.6,130.3z M123.5,105.6
		c0.2,0,0.6,0.1,0.8,0c0.7-0.4,1.5-0.8,2.1-1.3c1.2-1,2.3-2,3.3-3c0.3-0.3,0.4-1,0.7-1.6c-1.6,0.4-1.6,2.1-2.6,2.6
		c-0.4-0.7,0.5-1.4,0-2.2c-1.2,0.7-1.8,1.7-2.1,3c-0.2-0.2-0.2-0.4-0.3-0.5c-0.9,0.5-0.6,2-1.8,2
		C123.6,104.9,123.5,105.2,123.5,105.6z M130.3,92.4l0.1,0.1c0.2-0.3,0.5-0.5,0.7-0.8c0.9-1.1,1.7-2.3,2.9-3.1
		c0.5-0.3,1.1-0.9,1.1-1.4c0-1.6,0.3-3.1,0.9-4.5c0-0.1-0.2-0.3-0.4-0.7c-0.4,0.9-0.7,1.6-1,2.2c0,0-0.1,0-0.1,0.1
		c-0.5,0.4-1.1,0.9-1.6,1.3c-0.3,0.3-0.7,0.5-1,0.8c0.1,0.1,0.1,0.2,0.2,0.2c0.2,0,0.3-0.1,0.5-0.1c0,0,0,0.1,0.1,0.1
		c-0.5,0.3-1,0.7-1.5,1c0.6-0.1,1.3-0.1,1.7-0.8c0.5-0.8,1.3-1.4,1.9-2.1c0,0.2,0.2,0.6,0.1,0.8c-0.7,1.5-1.7,2.9-2.9,4
		c-0.1-0.1-0.2-0.2-0.2-0.2c-0.4,0.5-0.8,0.9-1.2,1.4c-0.4,0.4-0.9,0.7-1.3,1c0,0,0.1,0.1,0.1,0.2c0.4-0.2,0.8-0.4,1.3-0.6
		C130.6,91.8,130.5,92.1,130.3,92.4z M133.9,56.3c-1,0.1-1.9,0.3-2.7,0.4c0-0.1,0.1-0.2,0.2-0.3c-2.1-0.1-4.3,0.6-5.4,1.8
		c1,0,1.8,0.1,2.7,0.1c1.5,0,3,0,4.5-0.1c0.2,0,0.6-0.1,0.6-0.2C133.8,57.5,133.8,56.9,133.9,56.3z M143.5,113.5
		c0.2-0.2,0.4-0.3,0.5-0.4c0.5-1.1,0.9-2.3,1.3-3.5c0.2-0.4,0.1-1.1,0.8-1.1c0.1,0,0.2-0.3,0.3-0.4c0.1-0.2,0.2-0.5,0.3-0.7
		c0.1,0,0.1,0,0.2,0.1c-0.2,0.6-0.4,1.2-0.6,1.9c0.7-0.6,1.3-1.1,1.9-1.6c0.2-0.2,0.5-0.4,0.6-0.6s0.1-0.5,0.1-0.7
		c-0.2,0-0.4,0-0.6,0c-0.2,0.1-0.5,0.3-0.7,0.3c-1.5,0-2.4,0.9-3.2,1.9C143.3,110,143.2,111.6,143.5,113.5z M168.5,63.4
		c0-0.1,0-0.2-0.1-0.3c0.3-0.2,0.5-0.4,0.8-0.6c0.1-0.1,0.3-0.2,0.3-0.3c0.1-0.8,0.8-1,1.4-1.3c0.8-0.4,1.7-0.9,2.5-1.4
		c0.6-0.4,1.2-1,1.8-1.5c0-0.1-0.1-0.2-0.1-0.2c-0.3,0-0.7-0.2-1,0c-1.1,0.5-2.2,1-3.3,1.5c-0.9,0.5-1.9,1-2.1,2.2h-0.1
		c-0.1-0.2-0.3-0.3-0.5-0.7c0.1,0.8-0.8,1.2-0.1,1.9c0,0.2-0.1,0.5-0.2,0.8h0.1c0.1-0.2,0.2-0.3,0.3-0.5
		C168.4,63.3,168.4,63.4,168.5,63.4z M184.4,65.2c0,0,0-0.2-0.1-0.3c-0.2-0.3-0.4-0.7-0.8-0.8c-0.5-0.2-0.9,0.1-1.1,0.5
		c-0.4,0.8-0.9,1.5-1.2,2.3c-0.4,0.9-0.7,1.8-1.1,2.6c-0.2,0.4-0.3,0.8-0.5,1.2c0.1,0,0.1,0.1,0.2,0.1c0.6-0.4,1.3-0.7,1.2-1.5
		c0.4-0.2,0.7-0.3,0.9-0.5c0.6-0.7,1.1-1.5,1.6-2.2C183.8,66.2,184,65.8,184.4,65.2z M181.1,119.5c0.2-0.8,0.3-1.5,0.5-2.1
		c0.3-0.8,0.3-1.4-0.3-1.8c-0.4,0.3-0.8,0.5-1.1,0.8c-0.3,0.3-0.6,1-0.5,1.2c0.4,0.7-0.1,1.1-0.2,1.6c-0.1,0.4-0.4,0.8-0.6,1.2
		c-0.2,0.5-0.1,1,0.5,1.1c0.8,0.2,1.4-0.1,1.9-0.7c0.4-0.5,0.6-1.1,0.1-1.8C181.4,119.2,181.3,119.3,181.1,119.5z M166.7,55.8
		c-0.1,0-0.2,0.1-0.3,0.1c-0.3,1.7-1.1,3.3-0.5,5c-0.2-0.1-0.5-0.3-0.9-0.6c-0.1,0.8-0.2,1.5-0.2,2.1c0.1,0.6,0.3,1.2,0.5,1.7
		c0.6-0.4,1.2-0.8,1.2-1.7c0-0.3-0.3-0.9-0.2-1c0.8-0.5,0.5-1.4,0.6-2c0.2-1,0.2-2,0.3-3C167.2,56.2,166.9,56,166.7,55.8z M189,57.1
		c-2-0.3-3.8-0.6-5.6-0.9c0,0.9,0,1.7,0,2.5c0,0.1,0.2,0.3,0.4,0.3c0.6,0,1.3,0,1.9-0.2s1.3-0.4,1.6-0.9c0.5-0.6,1.2-0.1,1.6-0.6
		C188.8,57.4,188.8,57.3,189,57.1z M150.3,58.7c-0.3-0.8-0.5-1.5-0.8-2.2c-0.2,0.1-0.4,0.1-0.5,0.2c0-0.2-0.1-0.4-0.1-0.6
		c-0.2,0.1-0.2,0.1-0.3,0.2c-0.1,0.1-0.2,0.1-0.3,0.2c0.4,2.1,0.5,4.2,1.5,6.1c0.3-0.5,0.4-1.1,0.5-1.6c0.1-0.4,0.3-0.7,0.5-1
		c0.1-0.1,0.4-0.2,0.4-0.3c0-0.5,0-1,0-1.6C150.8,58.2,150.7,58.4,150.3,58.7z M127.8,59.3c0,0.1,0,0.2,0,0.3
		c1.5,0.4,2.7,1.8,4.4,0.6c0,0.2-0.1,0.4-0.1,0.6c0.4,0,0.8,0.1,1.2,0c0.6-0.2,0.8-0.8,0.7-1.4c-0.1-0.5-0.4-0.7-0.9-0.6
		C131.4,58.9,129.6,59.1,127.8,59.3z M140.9,83.7c0,0,0.1,0,0.1-0.1c-0.2-0.5-0.2-1-0.5-1.4c-0.7-0.8-1.4-1.6-2.2-2.3
		c0,0-0.2,0-0.3,0c0,0.6,0,1.1,0,1.8c0,0,0.2,0.1,0.3,0.2c-0.1,0-0.1,0-0.2,0c0.1,0.4,0.1,0.8,0.2,1.3c0.3-0.1,0.5-0.2,0.7-0.4
		c-0.5,1.2,0.8,1.2,1.1,1.8c-0.2,0.2-0.4,0.4-0.5,0.6c-0.5-0.3-0.7-1-1.5-0.7c1,0.1,1.1,1.5,2.2,1.5c0.1-0.6,0.2-1.1,0.3-1.6
		c-0.1-0.3-0.2-0.7-0.3-1.1h0.1C140.7,83.5,140.8,83.6,140.9,83.7z M167.8,35.7c0.4,1.1,1.2,1.7,2.1,1.7c0.8,0,1.5-0.5,2.3-0.8
		c-0.2,0.2-0.4,0.3-0.6,0.5c0.9-0.1,1.1-0.4,0.8-1.2c-0.4-1-0.6-1.1-1.6-0.8c-0.2,0-0.4,0.1-0.5,0.1
		C169.5,35.4,168.6,35.6,167.8,35.7z M132.1,48c1.6,0.6,3.6,0.2,4.4-1c0.3-0.4,0.1-1.1,0.1-1.7c-0.5,0.1-1.2,0.1-1.6,0.4
		c-0.8,0.5-1.4,1.1-2.1,1.7C132.6,47.5,132.4,47.7,132.1,48z M157.5,85.4c0-1.4,0-2.7,0-4.1c0-0.1-0.3-0.4-0.5-0.4
		c-0.8,0-1.6,0-2.5,0c0.2,0.3,0.3,0.4,0.4,0.6c0.4,0.7,1,1.2,1.1,2.1C156.1,84.2,156.3,85.1,157.5,85.4z M172.9,118
		c-0.1,0-0.1,0-0.2,0c-0.1,0.5-0.3,1.1-0.4,1.6c0.5-0.3,0.8-0.7,1.2-1.1c0.6-0.7,1.1-1.4,1.7-2c0.6-0.7,1.3-1.4,1.9-2.2
		c0.2-0.3,0.3-0.7,0.5-1.1c-0.2,0.1-0.3,0.2-0.5,0.2c0.1-0.4,0.1-0.7,0.2-1h-0.1c-0.6,1.2-1.2,2.3-1.7,3.5c-0.1,0-0.1,0-0.2-0.1
		c0-0.3-0.1-0.6,0.1-0.7c0.7-0.5,0.5-1.3,0.9-1.9c0.5-0.7,0.5-1.7,1.6-1.9c-0.2-0.2-0.4-0.4-0.6-0.6c-1.4,1.3-2.4,3.5-2.2,5.3
		c0,0.1,0,0.2-0.1,0.3c-0.5,0.7-1.1,1.4-1.6,2.1C173.1,118.3,173,118.1,172.9,118z M154.7,30.7c0-0.7-0.1-1.5-0.1-2.2
		c-0.1-0.8-0.1-1.5-0.3-2.2c-0.1-0.3-0.4-0.5-0.7-0.8c-0.2,0.3-0.5,0.5-0.5,0.8c-0.1,0.9-0.1,1.9,0,2.8
		C153.2,30.5,153.3,30.5,154.7,30.7z M157.9,80.8c0,1.4,0,2.7,0,4c0.5-0.4,1-0.7,1.4-1l0.1-0.2c-0.1-0.7,0.3-1.2,0.7-1.6
		c0.5-0.6,0.2-0.9-0.3-1C159.2,80.9,158.6,80.9,157.9,80.8z M151,15.7c-0.1,0-0.2,0-0.3,0c0.1,2.1,0.2,4.2,0.3,6.3
		c0,0.3,0.5,0.6,0.7,1c0.1,0,0.1-0.1,0.2-0.1c0-1.2,0.1-2.4,0-3.6C151.8,18,151.7,16.8,151,15.7z M147.4,36.4c0.2,0,0.4,0,0.5-0.1
		c0.4-0.3,1.2-0.2,1-1c-0.1-0.5-0.4-0.9-0.8-1.3c-0.5-0.6-1.5-0.7-1.9-0.3c-0.3,0.3-0.1,1.3,0.4,1.8c0.1,0.1,0.3,0.3,0.3,0.3
		C146.6,36.6,147.2,36.3,147.4,36.4z M137.5,44.2c1.2,0,2.1-0.6,2.3-1.6c0.1-0.3-0.1-0.8-0.3-1.1c-0.1-0.1-0.6,0-0.8,0.1
		c-0.5,0.4-1,1-1.5,1.5c-0.1,0.1-0.1,0.2-0.2,0.2c-0.3,0.2-0.4,0.3-0.1,0.5C137.1,44.1,137.4,44.1,137.5,44.2z M174.2,104.1
		c0.1-0.1,0.3-0.2,0.3-0.3c0-0.3,0-0.5-0.1-0.8c0-0.1-0.4-0.2-0.4-0.2c-0.1,0.2-0.3,0.4-0.3,0.6c-0.1,0.3-0.1,0.7-0.2,1.1
		c1-0.2,1.2,0.2,1,1.3c-0.2,0-0.3,0-0.5,0c0.3,0.9,0.6,1.7,0.9,2.6c0-0.4,0-0.6,0-0.9c0.3,0,0.5-0.1,0.5-0.1
		c0.2-0.4,0.4-0.6,0.4-0.9s-0.1-0.7-0.3-0.9c-0.4-0.5,0-1.7-1.2-1.5C174.3,104.2,174.3,104.1,174.2,104.1z M141.7,88
		c0-0.1-0.1-0.1-0.1-0.2c-2.1,1.2-4.2,2.3-6.2,3.5c1,0.2,1.8-0.1,2.5-0.8c0.3-0.3,0.6-0.5,1-0.7c0.7-0.4,1.4-0.8,2.2-0.6
		c0.2,0.5,0,0.7-0.5,0.8c-0.7,0-1.3,0.2-1.9,0.3c0,0.1,0,0.2,0,0.2c1.3-0.2,2.6-0.4,3.9-0.6v-0.1c-0.4,0-0.8,0-1.2,0
		c-0.4-0.9,0.6-0.7,1-1.3c-0.7,0.1-1.3,0.2-1.8,0.3c0,0,0-0.1-0.1-0.1C140.8,88.5,141.3,88.3,141.7,88z M172.9,93.7
		c0.6,0.5,1.2,1,1.8,1.4c0.5,0.2,1.1,0.2,1.7,0.4c0.9,0.3,0.8-0.4,0.5-0.6c-0.4-0.4-0.9-0.8-1.4-1c-0.4-0.2-1.1,0-1.3-0.2
		C173.7,93.1,173.5,93.1,172.9,93.7z M169.6,56.2c-0.1,0.1-0.2,0.1-0.4,0.2c-0.2,0.8-0.4,1.7-0.6,2.4c0.7-0.2,1.4-0.5,2.1-0.6
		c0.8-0.1,1.1-0.6,1.4-1.1c-0.7-0.5-1.3-1.2-1.9,0.1C170.1,56.8,169.9,56.5,169.6,56.2z M173.2,68.5c0.2-0.9,0.5-1.6,0.6-2.4
		c0.1-0.6,0-1.2,0-1.7c0-0.1-0.2-0.3-0.2-0.4c-0.1,0.1-0.3,0.2-0.4,0.3c-0.3,0.6-0.7,1.3-0.8,1.9C172.3,67,172.2,68,173.2,68.5z
		 M155.6,27.2c-0.2,0.6-0.3,1-0.4,1.5c-0.1,0.6-0.3,1.1-0.3,1.7c0,0.5,0.2,0.6,0.7,0.4c1.1-0.7,1.2-1.1,0.9-2.4
		C156.3,27.8,156.2,27.3,155.6,27.2z M119.9,29.1c0-0.1,0-0.3,0-0.4c-0.9-0.4-1.9-0.8-2.8-1.2c-0.1,0-0.1,0.1-0.2,0.1
		c0.4,0.8-0.3,1.8,0.5,2.3C118.3,29.6,119.1,29.4,119.9,29.1z M146.6,56.4c-1.2,0.2-2.1,0.3-3.1,0.5c-0.2,0.4,0.3,0.8,0.8,1
		c0.8,0.4,1.9,0.4,2.2-0.1C146.7,57.4,146.6,56.9,146.6,56.4z M173.5,96c0,0-0.1,0-0.1,0.1c0.5,0.6,0.9,1.3,1.4,1.9
		c0.6,0.8,1.4,0.2,2,0.3c-0.3-1.5-1.6-1.9-2.6-2.5c0.3,0.4,0.7,0.8,1,1.3c0,0.1-0.1,0.1-0.1,0.2C174.5,96.8,174,96.4,173.5,96z
		 M150.7,110.2c0,0.1-0.1,0.2-0.1,0.3c0.9,0.2,1.3,0.8,1.5,1.6c0.1,0.8,0.9,0.3,1.3,0.6c-0.1-0.2-0.4-0.4-0.5-0.6
		c-0.2-0.2-0.2-0.4-0.4-0.6c0,0,0.1-0.1,0.2-0.1c0.3,0.2,0.6,0.5,1,0.8c-0.6-1-1.2-1.9-1.7-2.8c0,0.2-0.1,0.5-0.1,0.8
		C151.5,110.2,151.1,110.2,150.7,110.2z M190.8,26c0,1.2,1,1,1.4,1.5c0.4-0.5,1.2-0.4,1.7,0.2c-0.1,0.2-0.2,0.3-0.3,0.5
		c0.2,0.1,0.4,0.1,0.7,0.2c-0.2-0.7-0.4-1.3-0.6-2C192.7,26.3,191.8,26.1,190.8,26z M171.3,14.7c-0.1-0.3-0.1-0.6-0.1-0.8
		c0.2,0.1,0.4,0.2,0.5,0.2c0.2,0,0.6-0.1,0.7-0.3c0.2-0.4,0.2-0.9,0.3-1.5c-1,0.9-1.8,1.6-2.6,2.3c0,0.1,0.1,0.1,0.1,0.2
		C170.5,14.7,170.9,14.7,171.3,14.7z M200.8,48.8c-0.4,0-0.7,0-1,0c-0.3,1,0.6,1.2,1,1.7C201.1,49.9,201.1,49.9,200.8,48.8z
		 M201.6,46c-0.1-0.1-0.2-0.2-0.3-0.2c-0.3,0.3-0.7,0.6-0.8,0.9c-0.1,0.5-0.2,1.1,0.6,1.4C201.3,47.4,201.5,46.7,201.6,46z
		 M127.9,116.6c0.1,0,0.1,0,0.2,0c0.1-0.5,0.1-0.9,0.2-1.6c-0.4,0.3-0.6,0.4-0.8,0.6c0.1-0.8,0.1-1.5,0.2-2.4
		c-0.6,0.8-0.7,2.2-0.2,2.9c0.1-0.1,0.2-0.2,0.3-0.4C127.9,116.1,127.9,116.4,127.9,116.6z M163.9,55.5c0.4,0.5,0.6,0.8,0.9,1.2
		c0.2-0.5,0.5-0.9,0.7-1.3c0-0.1-0.1-0.1-0.1-0.2C164.9,55.3,164.5,55.4,163.9,55.5z M181.1,98.7c0.7,0.3,1.3,0,1.5-0.6
		c0.1-0.2-0.3-0.5-0.4-0.7c-0.1,0-0.2,0.1-0.2,0.1c0,0.2,0.1,0.5,0.1,0.7C181.8,98.2,181.2,97.9,181.1,98.7z M155.4,123
		c0.1,0,0.2,0,0.3-0.1c-0.1-0.7-0.3-1.5-0.4-2.2C154.8,121.1,154.8,122,155.4,123z M166.5,122.7c-1,0.9-1.1,1.4-0.7,2.2
		c0.2-0.4,0.3-0.8,0.4-1.1C166.3,123.4,166.4,123.1,166.5,122.7z M135.3,99.1c-1.6,1-1.8,1.2-1.8,2
		C134,100.3,135.1,100.2,135.3,99.1z M151.6,118.7c-0.1-0.2-0.2-0.4-0.3-0.7c-0.6,1-0.7,1.2-0.2,1.9
		C151.2,119.5,151.4,119.2,151.6,118.7z M150.3,116.8c-0.2,0-0.4,0-0.8,0.1c0.4,0.5,0.7,0.9,1,1.4c0.1-0.3,0.3-0.5,0.3-0.6
		C150.6,117.2,150.4,117,150.3,116.8z M176.2,119.9c-0.5,0.5-0.8,0.9-1.2,1.3C175.9,121.4,176.2,121.1,176.2,119.9z M147.2,104.8
		c-0.3-0.1-0.6-0.2-0.8-0.3c-0.2,0.3-0.9,0.5-0.3,1.1C146.4,105.4,146.7,105.1,147.2,104.8z M194.8,27.3c0.1-0.9,0.1-0.9-0.9-1
		C194.1,26.8,194.1,27.4,194.8,27.3z M158.8,109.5c0.1-1-0.2-1.2-1.1-1.1C158,108.8,158.4,109.1,158.8,109.5z M189.6,21.8
		c-0.6-0.7-1.3-0.9-2.2-0.5C188.2,21.5,188.8,21.6,189.6,21.8z"/>
	<path d="M109.9,93.3c-0.1,0.2-0.2,0.3-0.4,0.6c0.1-0.5,0.2-0.9,0.3-1.4c-2.5,1.8-3.5,4-2.6,6c0.5-0.9,1-1.8,1.4-2.7
		c0,0,0.1,0,0.1,0.1c-0.3,0.7-0.6,1.5-1,2.2c-0.5,0.7-0.6,1.3-0.1,2.2c-1.6-0.8-1.6-2.1-1.7-3.4c-0.1-1.1-0.1-2.4,0.6-3.4
		c0.5-0.8,1-1.5,1.6-2.3c0.3-0.5,0.7-0.9,1-1.4c0.1-0.2,0-0.4,0-0.8c-0.3,0.3-0.4,0.4-0.6,0.5c0,0-0.1,0-0.1-0.1
		c0.1-0.3,0.3-0.5,0.5-0.8c0,0,0.4,0.2,0.6,0.3c0.3-0.5,0.7-1,1.1-1.5c-0.1-0.1-0.1-0.1-0.2-0.2c-0.2,0.1-0.4,0.2-0.8,0.4
		c0.3-0.6,0.5-1,0.8-1.4c0.6-1.1,1.2-2.2,1.8-3.3c0.2-0.4,0.8-0.7,1.1-0.4c0.7-0.9,1.4-1.7,2.1-2.7c-0.6,2.4-2.2,4.5-2.7,6.9
		c0.1,0,0.2,0.1,0.2,0.1c0.3-0.7,0.6-1.4,1-2.2c0.3,1.5-0.7,2.1-1.3,3c0.1,0.1,0.3,0.1,0.4,0.2c-0.3,1.1-0.7,2.2-1,3.3
		c-0.1,0-0.2,0-0.3-0.1c0.2-1,0.5-2.1,0.7-3.1c-0.9,0.6-0.9,1.6-1,2.5c-0.1,0.5-0.2,1-0.3,1.5c-0.2,1.4-0.4,2.7-0.5,4.1
		c0.1,0,0.2,0.1,0.3,0.1c0.2-0.2,0.4-0.4,0.5-0.6c0.1,0.1,0.2,0.2,0.2,0.3c0.1-0.1,0.4-0.2,0.4-0.4c0.1-0.5,0.1-0.9,0.2-1.4
		c0-0.2,0.1-0.4,0.1-0.6c0.1,0,0.2,0,0.3,0c0,0.7,0,1.5,0,2.2c0.1,0,0.2,0,0.2,0c0.4-0.3,0.7-0.7,1.2-1.1c-0.3,0-0.4,0.1-0.5,0.1
		c0-1.8,0.4-2.6,1.5-2.9c0.1,0,0.2,0.2,0.4,0.3c-0.4,0.3-0.8,0.5-1.2,0.7c0,0.1,0.1,0.1,0.1,0.2c0.3-0.1,0.6-0.3,0.9-0.4l0.1,0.1
		c-0.4,0.5-0.8,1-1.2,1.4l0.1,0.1c1.4-1.5,2.7-2.9,4.2-4.5c0,0.4,0,0.5,0.1,0.7c0.3-0.2,0.6-0.4,0.9-0.5c0,0,0,0,0.1,0.1
		c-0.4,0.4-0.8,0.9-1.2,1.3c-1.5,1.5-2,3.5-2.7,5.4c-0.3,0.8-0.7,1.5-1,2.3c0,0,0.2,0,0.5-0.1c-0.1,0.4-0.1,0.9-0.4,1.2
		c-0.6,0.8-0.7,1.7-0.6,2.7c-0.2-0.5-0.3-1.1-0.5-1.7c-0.4,0.9,0,1.6,0.1,2.5c0.3-0.2,0.6-0.4,0.8-0.5c0.8,0.5,0.8,1.2-0.2,2.2
		c0.1-0.6,0.1-1.1,0.2-1.5h-0.1c-0.1,0.3-0.2,0.7-0.3,1c-0.2-0.4-0.3-0.7-0.5-1c-0.1,0-0.2,0-0.3,0c0,0.3-0.1,0.6,0,0.9
		c0.1,0.6,0.3,1.2,0.5,1.8c0.2,0.6,0.4,1.2,0.6,1.8c-0.1,0-0.1,0-0.2,0c-0.1,0.3-0.4,0.7-0.3,1c0.2,1,0.4,2,0.7,2.8
		c-0.4-0.2-0.9-0.5-1.4-0.8c-0.4-1.6-0.6-3.4-1.3-4.9c-0.9-1.8-1.1-3.7-1.5-5.6c-0.2-0.6-0.3-1.2-0.1-1.8c0-0.2,0-0.5-0.2-0.6
		c-0.7-0.4-0.3-0.8-0.1-1.3c0.2-0.4,0.3-0.8,0.3-1.3c0.1-0.8,0-1.6,0-2.3C110.1,93.3,110,93.3,109.9,93.3z"/>
	<path d="M191.6,78.2c-0.2-0.1-0.5-0.2-0.6-0.3c-0.3-1-0.7-1.9-0.8-2.9c-0.1-1.1,0-2.3,0-3.5c0-2,0.1-3.9-0.5-5.9
		c0.5,0.6,1,1.2,1.4,1.9c0.5,0.8,0.7,1.8,1.1,2.6c0.6,1.3,0.9,2.7,1.1,4.1c0.3,1.9,1.6,3.3,2.8,4.7c0.4,0.5,1.2,0.7,1.7,1.1
		c0.3,0.2,0.7,0.5,0.9,0.8c0.6,0.6,1.4,1,0.6,2c0,0-0.2,0-0.5,0c0.7,1.4,1.3,2.6,1.9,3.8c0.2,0.4,0.7,1-0.1,1.3
		c0.1,0.4,0.2,0.8,0.3,1.2c0.1,1.1,1.1,1.7,1.7,2.4c0.3,0.3,0.6,0.6,0.8,1c0.1,0.2,0.1,0.4,0.2,0.9c1.4,1.1,2,2.8,1.9,4.7
		c-0.1-0.1-0.3-0.2-0.5-0.3c0,0.4,0,0.8,0,1.3c-0.2-0.2-0.3-0.4-0.4-0.7c-0.7,1.6-0.9,3.2-0.8,4.9c0.1,1.4,0.1,2.8,0.1,4.1
		c0,0.3-0.2,0.6-0.5,0.8c-0.1-0.7-0.2-1.5-0.3-2.2s-0.1-1.4-0.2-2c0-0.2-0.3-0.4-0.4-0.7c-0.1,0.2-0.3,0.5-0.3,0.7
		c0,0.4,0.1,0.9,0.1,1.3c-0.1,0-0.1,0-0.2,0c-0.4-2.3-0.8-4.5-1.2-6.8c-0.1,0-0.1-0.1-0.2-0.1c-0.6,1.1-1.3,2.2-2,3.3h-0.1
		c0.2-0.6,0.5-1.2,0.7-1.9c0.1-0.4,0.3-0.7,0.3-1.1c-0.1-1.6-0.2-3.2-0.4-4.9c0.2,0.1,0.4,0.1,0.6,0.1c-0.1-0.6-0.3-1.1-0.4-1.7
		c-0.1-1-0.1-2-0.2-3c0-0.4-0.1-0.8-0.1-1.2c-0.1-0.7-0.2-1.5-0.3-2.2c-0.1-0.4-0.3-0.7-0.4-1.1c-0.3-0.7-0.4-1.5-0.8-2.1
		c-0.6-0.9-1.3-1.7-2-2.3c-0.2-0.2-0.9,0-1.4,0.1c0.3,0.6,0.5,1.2,0.8,1.7c-0.1,0-0.1,0.1-0.2,0.1c-0.3-0.6-0.7-1.3-1-1.9
		c-0.2-0.3-0.2-0.8-0.8-0.5c-0.1,0.1-0.5-0.2-0.6-0.4C192,79.2,191.8,78.7,191.6,78.2c0-0.4,0.1-0.8,0.2-1.4
		c0.1,0.3,0.1,0.4,0.2,0.6c-0.2-2.3-0.3-4.7-1.2-6.9c-0.1,0-0.2,0-0.2,0c0.2,1.9,0.4,3.8,0.6,5.9c0.2-0.3,0.3-0.5,0.5-0.8
		c-0.1,0.6-0.2,0.9-0.2,1.2C191.5,77.3,191.6,77.8,191.6,78.2z M203.5,98.8c0.8-0.7,0.7-1.4,0.3-2.2c-0.3-0.6-0.4-1.2-0.6-1.9
		c-0.1-0.3,0-0.7-0.2-1c-0.5-0.8-1-1.6-1.5-2.4c-0.2-0.3-0.5-0.4-0.8-0.6c-0.1,0.1-0.2,0.1-0.3,0.2c0.3,0.8,0.4,1.7,0.9,2.3
		c0.6,0.7,0.7,1.5,0.8,2.3c0.1,0.5,0.1,1.1-0.1,1.5c-0.3,0.7-0.7,1.4-0.5,2.2c0.1,0.6,0.2,1.1,0.3,1.7c1-0.8,1-2,1.4-3.1
		C203.3,98.3,203.4,98.6,203.5,98.8z M200.2,94.6c-0.1,0.4-0.1,0.7-0.1,1c0,0.5,0.1,1.1-0.1,1.6c-0.2,0.6,0,0.9,0.4,1.2
		C201.2,97.3,201.2,96.1,200.2,94.6z"/>
	<path d="M185.8,16.5c1.4,0.4,2.9,0.9,4.3,1.3c0,0.1,0,0.1,0,0.2c-0.6-0.1-1.3,0-1.9-0.2c-1.7-0.4-3.3,0.2-4.9,0.7
		c-0.7,0.2-1.4,0.5-2.1,0.9c0.2-0.3,0.4-0.5,0.6-0.8c-0.8-0.1-1.6-0.1-2.4-0.2c0.2-0.4,0.3-0.6,0.5-0.8c-0.1-0.1-0.1-0.1-0.2-0.2
		c-1.4,0.7-3,1.1-3.9,2.9c0.2-0.1,0.3-0.2,0.4-0.3c0,0,0.1,0.1,0.1,0.2c-0.7,0.5-1.4,1.1-2.1,1.6c0.5-1.1,1.8-1.8,1.9-3.2
		c-1.5-0.1-2.6,0.5-3.6,1.5c0-0.1-0.1-0.1-0.1-0.2c1.1-1.1,2.2-2.3,3.3-3.5c-0.7,0.2-1.3,0.3-1.9,0.4c0-0.1,0-0.1,0-0.2
		c-0.1,0.2-0.2,0.4-0.3,0.6c-0.1,0-0.1,0-0.2-0.1c0-0.3,0.1-0.6,0.1-0.9c-0.1-0.1-0.1-0.7,0.3-0.2c0,0.1,0.5-0.2,0.8-0.3
		c1.6-0.6,3.3-1.2,4.9-1.6c0.7-0.2,1.5-0.1,2.3-0.1c1.2,0.1,2.4,0.2,3.5,0.3c0.5,0,0.9,0.2,0.7,0.8c0.6,0.2,1.1,0.4,1.7,0.7
		c-0.7,0.2-1.4,0.3-2.1,0.5l0,0C185.7,16.4,185.8,16.5,185.8,16.5c-1.1,0-2.1-0.1-3.2,0.1c-0.9,0.1-1.8,0.5-2.7,0.7
		c0,0.1,0,0.2,0.1,0.2c0.2,0.1,0.5,0.3,0.7,0.3c1.7-0.3,3.4-0.7,5.2-1.1C185.9,16.8,185.8,16.6,185.8,16.5z"/>
	<path d="M100.4,84.7c1.2-0.9,2.5-1.8,3.6-2.8c1.2-1.1,2.3-2.2,3.5-3.4c0.1-0.1,0-0.4-0.1-0.8c2.1-2.2,3.3-5.5,5.8-7.9
		c-0.6,1.6-1,3.1-1.5,4.4c0,0.1,0-0.1-0.1-0.4c-1,2.1-2.8,3.5-3.2,5.8c-0.1,0.8,0,1.2,0.9,1.5c-0.5,0.7-0.9,1.4-1.4,2.1l0.1,0.1
		c0.5-0.2,1.1-0.4,1.6-0.6c-2.7,1.6-4.1,4-4.5,7.2c0.2-0.2,0.3-0.3,0.4-0.3c0.1-0.1,0.1-0.1,0.1-0.2c-0.8,1.5-1.6,3.1-2.4,4.8
		c-0.1-1.2-0.2-2.2-0.1-3.2c0-0.5,0.7-0.9,0.9-1.4c0.4-0.7,0.8-1.4,1-2.2c0.1-0.6-0.4-0.9-1-0.6c-0.8,0.4-1.6,0.9-2.4,1.3
		c0-0.1-0.1-0.1-0.1-0.2c1.1-1,2.3-2,3.4-3c0.2,0,0.5,0,0.7-0.2c1-0.8,1.5-1.8,1.7-3c0.2-0.7,0.1-1.5,0-2.3
		c-0.9,1.3-2.1,2.2-3.3,3.1c-1.2,0.8-2.4,1.7-3.5,2.6C100.5,84.9,100.5,84.8,100.4,84.7z"/>
	<path d="M199.6,72.7c0.6,0.9,1,2,1.7,2.8c1,1.1,2.2,2.1,3.3,3.2c0.7,0.7,1.4,1.4,2,2.1c0.7,0.8,0.5,1.9,0.8,2.8
		c0.1,0.2,0.1,0.4,0.3,0.5c-1.3-1.4-2.6-2.9-3.9-4.3c-0.1-0.1-0.1-0.2-0.2-0.2c-0.3-0.2-0.7-0.4-1-0.6c-0.1,0.4-0.3,0.7-0.4,1.1
		c-0.9-2.3-1.8-4.7-2.7-7.1C199.4,72.8,199.5,72.7,199.6,72.7z"/>
	<path d="M117.5,77.3c0.7-0.5,1.3-0.9,1.9-1.5c0.3-0.3,0.5-0.7,0.8-1.1c0.1-0.1,0.2-0.3,0.3-0.4c1.1-0.7,2.2-1.3,3.3-1.9
		c0.1-0.1,0.1-0.3,0.2-0.4c0.2-0.2,0.3-0.5,0.5-0.6c0.7-0.2,1.4-0.4,2.1-0.5c0.7-0.2,1.3-0.4,2-0.5c0.9,0,1.8,0.1,2.7,0.2
		c0.1,0,0.2,0.3,0.4,0.5c0,0.1-0.1,0.1-0.1,0.2c-0.2-0.1-0.4-0.1-0.5-0.2c-0.5-0.3-1-0.3-1.6-0.1c-0.5,0.2-0.9,0.2-1.3,0.6
		c-0.3,0.2-0.7,0.2-1.1,0.3c-0.4,0.1-0.8,0.1-1.2,0.3c-2,0.9-3.6,2.3-5.2,3.8c-0.2,0.2-0.5,0.4-0.7,0.7
		C119.2,77.2,118.5,77.6,117.5,77.3z"/>
	<path d="M207.6,95.2c-1-1.6-1.8-3.1-2.7-4.5c-0.1,0-0.2,0-0.5,0.1c0.1,0.4,0.3,0.9,0.4,1.3c-0.1,0-0.2,0.1-0.3,0.1
		c-0.2-0.6-0.4-1.3-0.6-1.9c0.1,0,0.2-0.1,0.2-0.1c0.2,0.1,0.3,0.2,0.5,0.3c-0.3-1.2-0.6-2.4-0.8-3.5c0.1,0,0.1,0,0.2-0.1
		c0.6,1,1.1,2,1.7,3h0.1c0-0.5,0-1,0-1.7c0.3,1.3,0.5,2.5,1,3.5s1.4,1.8,2.1,2.6c-0.3-0.1-0.7-0.1-1.2-0.2
		C207.7,94.4,207.7,94.7,207.6,95.2z"/>
	<path d="M144.5,17.9c-0.9-3.2-2.2-5.9-3.5-8.8c0.2,0.1,0.4,0.1,0.4,0.1c0.7,1.1,1.4,2.2,2.1,3.3c0.3,0.5,0.7,1.1,1.1,1.6
		c0.1,0.2,0.4,0.3,0.4,0.5c0.2,1.4,0.4,2.7,0.4,4.1c-0.2-0.5-0.5-1-0.7-1.5C144.6,17.6,144.5,17.8,144.5,17.9z"/>
	<path d="M193.2,106.9c-0.2,0.1-0.3,0.3-0.5,0.4c-0.2-0.3-0.5-0.7-0.6-1.1c-0.1-0.6,0-1.2-0.1-1.8c-0.1-1.3-0.2-2.5-0.3-3.8
		c0-0.7,0-1.4,0-2.1c0.8,0.6,0.9,1.4,0.3,1.7c0.1,0.5,0.1,0.9,0.2,1.4c0,0,0.1,0,0.3-0.1c-0.1,0.3-0.1,0.7-0.2,1h0.1
		c0.1-0.2,0.2-0.4,0.3-0.7c0.1,0.3,0.2,0.5,0.3,0.9c0.2-0.5,0.4-0.9,0.6-1.3c0.1-0.4,0.1-0.8,0.2-1.2c0,0.9,0,1.9,0,2.8
		c0,0.1,0,0.3-0.1,0.4c-0.9,0.5-0.4,1.3-0.5,2C193.3,106,193.2,106.5,193.2,106.9L193.2,106.9z"/>
	<path d="M147.2,13.4c-0.3-0.4-0.5-0.8-0.8-1.2c0.7,2.2,1.4,4.3,2.1,6.5c-0.1,0-0.2,0.1-0.2,0.1c-0.7-1.5-1.4-3.1-2.1-4.6
		c0,0-0.1,0.1,0,0.1c-0.5-1.2-1-2.5-1.5-4c1,0.7,1.8,1.3,2.7,2c0.1,0,0.1-0.1,0.2-0.1C147.4,12.6,147.3,13,147.2,13.4
		C147.2,13.5,147.2,13.4,147.2,13.4z"/>
	<path d="M148.2,22.1c0.5,1.2,0.9,2.5,1.5,3.6c0.6,1.2,0.7,2.5,1,3.7c-0.2,0.1-0.3,0.2-0.5,0.3c-0.8-2.3-1.6-4.7-2.4-7.1
		c0-0.1,0.1-0.3,0.2-0.5C148,22.2,148.1,22.2,148.2,22.1z"/>
	<path d="M186.7,110.1c0.1-0.4,0.1-0.8,0.2-1.2c0.1-1,0.3-2,0.4-2.9c0.1-0.7,0-1.4,0-2.1s0.1-1.3,0.3-2c0.6,1.8,0.8,3.6,0.5,5.5v0.1
		c-1.1,0.6-0.9,1.8-1.2,2.8C186.9,110.1,186.8,110.1,186.7,110.1z"/>
	<path d="M189.5,18.8c-1.4,0.2-2.8,0.5-4.2,0.7c0-0.1,0-0.1,0-0.2c-0.3,0-0.8-0.1-0.8-0.1c-0.3,0.8-1.2,0.2-1.7,0.8
		c0.1-0.4,0-0.6,0.1-0.6c0.5-0.2,1.1-0.4,1.6-0.4c0.9-0.1,1.8-0.1,2.7-0.2c0.7-0.1,1.4-0.1,2.2-0.2
		C189.5,18.7,189.5,18.7,189.5,18.8z"/>
	<path d="M122.8,47.3c-1.4,0.4-2.8,0.8-4.3,1.2c1.1-1.6,2.6-1.5,4.2-1.4C122.7,47.1,122.8,47.2,122.8,47.3z"/>
	<path d="M164,123.2c0.2,0.7,0.6,1.2,0.2,1.8c-0.2,0.3-0.1,0.7-0.2,1.3c-0.2,0-0.6,0-0.7-0.1c-0.1-0.2-0.1-0.5,0-0.8
		C163.4,124.7,163.7,124,164,123.2z"/>
	<path d="M147.2,13.5c0.2-0.1,0.3-0.2,0.6-0.5c0.2,1,0.3,1.8,0.4,2.6c-0.1,0-0.2,0-0.2,0.1C147.7,14.9,147.5,14.2,147.2,13.5
		C147.2,13.4,147.2,13.5,147.2,13.5z"/>
	<path d="M199.7,29c-0.6-0.3-1.1-0.6-1.7-0.9V28c1.4,0.5,2.8,1.1,4.2,1.6c0,0,0,0,0,0.1c-0.9-0.2-1.7-0.4-2.6-0.6
		C199.6,29.1,199.7,29.1,199.7,29z"/>
	<path d="M129.6,18.8c-1.1-0.2-2.3-0.4-3.4-0.6c0-0.1,0-0.2,0.1-0.3c1.1,0.2,2.3,0.5,3.4,0.7C129.6,18.7,129.6,18.8,129.6,18.8z"/>
	<path d="M188.7,92.3c-0.5-0.8-1.1-1.6-1.6-2.4c0.1,0,0.1-0.1,0.2-0.1c0.5,0.8,1.1,1.6,1.6,2.4C188.9,92.2,188.8,92.3,188.7,92.3z"
		/>
	<path d="M149.9,14.9c-0.1,0.5-0.1,1-0.2,1.5c-0.1,0-0.2,0-0.2,0c0-0.7-0.1-1.5-0.1-2.2c0.1,0,0.1,0,0.2,0
		C149.6,14.4,149.8,14.6,149.9,14.9C150,14.8,149.9,14.9,149.9,14.9z"/>
	<path d="M178.7,21.9c0.7-0.7,1.4-1.4,2.1-2l0,0C180.1,20.6,179.4,21.2,178.7,21.9L178.7,21.9z"/>
	<path d="M165.7,12.4c0.5-0.6,0.9-1.2,1.4-1.8c0.1,0.1,0.2,0.2,0.3,0.3C166.9,11.4,166.3,11.9,165.7,12.4L165.7,12.4z"/>
	<path d="M146.3,73.9c-0.3,1.8-0.9,3.4-2,4.8C144.7,77.1,145.4,75.4,146.3,73.9L146.3,73.9z"/>
	<path d="M144.4,74.1c0.2-0.4,0.3-0.8,0.5-1.1c0.2-0.3,0.4-0.7,0.4-0.8c0.2,0.1,0.5,0.2,0.7,0.4C145.6,73.1,145,73.7,144.4,74.1
		C144.5,74.2,144.5,74.2,144.4,74.1z"/>
	<path d="M137.4,55.5c-0.2,0.5-0.3,1.1-0.5,1.6c-0.3-0.3-0.6-0.5-0.9-0.8c0.4-0.3,0.8-0.6,1.3-1C137.3,55.4,137.4,55.5,137.4,55.5z"
		/>
	<path d="M155.4,77.3c1.5-0.1,1.5-0.1,1.8,0.4C156.3,78.2,155.8,78.1,155.4,77.3z"/>
	<path d="M148.5,73.5c0.5-0.5,1-0.9,1.5-1.4C149.7,73.1,149.1,73.7,148.5,73.5z"/>
	<path d="M143.3,85.4c0.3,0.1,0.7,0.1,1,0.2c0.2,0.1,0.5,0.3,0.5,0.4s-0.2,0.4-0.3,0.4c-0.2-0.3-0.4-0.5-0.6-0.7
		C143.7,85.7,143.5,85.6,143.3,85.4L143.3,85.4z"/>
	<path d="M141.1,71c0,0.6,0.1,1.2,0.1,1.8c-0.1,0-0.1,0-0.2,0c-0.2-0.2-0.3-0.4-0.4-0.6C140.8,71.8,141,71.4,141.1,71L141.1,71z"/>
	<path d="M172.7,82.3c-0.1,0.7-0.6,1-1.2,1.2c-1.5,0.3-2.9,0.8-4.3,1.1c-0.4,0.1-0.8-0.3-1.2-0.5c0-0.1,0-0.2,0-0.3
		c0.5-0.2,1-0.3,1.5-0.5c0.8-0.3,0.9-0.9,0.9-1.6c0,0,0-0.1,0,0c0.4-0.2,0.8-0.3,1.1-0.5c0,0,0.2,0.2,0.4,0.4
		c-0.3,0.1-0.6,0.3-1,0.4c-0.3,1,0.8,1.1,1.3,1.5C170.8,82.4,171.7,82.3,172.7,82.3C172.8,82.3,172.7,82.3,172.7,82.3z"/>
	<path d="M172.3,73.7c0.2,0.2,0.4,0.3,0.5,0.5c0.2,0.4,0.2,0.8,0.3,1.1c-0.1,0-0.3,0.1-0.4,0.1C172.6,74.9,172.5,74.3,172.3,73.7
		L172.3,73.7z"/>
	<path d="M161.1,104.6c-0.2-1-0.4-2-0.6-3.1C161.7,102.4,161.4,103.5,161.1,104.6L161.1,104.6z"/>
	<path d="M165.3,97.1c-0.6-0.2-1.1-0.5-1.7-0.7c0-0.1,0.1-0.1,0.1-0.2c0.6,0.2,1.2,0.4,1.7,0.6C165.4,96.9,165.3,97,165.3,97.1z"/>
	<path d="M187.8,43.2c-0.8-0.9-1.6-1.7-2.3-2.6c0.1-0.1,0.1-0.1,0.2-0.2C186.6,41.1,187.4,42,187.8,43.2z"/>
	<path d="M156.1,112.1c0.1,0.5,0.2,0.9,0.3,1.3c0,0.1,0.1,0.2,0,0.3c-0.6,1.4-1.1,2.7-1.6,3.9c-0.1-0.6-0.4-1.4,0.3-2.1
		c0.1-0.1,0-0.2,0-0.4C154.8,113.9,155.4,113,156.1,112.1z"/>
	<path d="M161.8,116.8c-0.6-0.6-1.1-1.1-1.6-1.6c0.1,0,0.1-0.1,0.2-0.1C160.8,115.6,162.1,115.5,161.8,116.8z"/>
	<path d="M162.8,41.2c-0.1,0.4-0.2,0.8-0.4,1.1c-0.5,0.6-1.1,1-1.7,1.6c0.1-1.3,1.5-1.7,1.8-2.8C162.6,41,162.7,41.1,162.8,41.2z"/>
	<path d="M174.8,119.9c-0.1,0-0.2,0-0.3,0c0.3-0.5,0.6-1.1,1-1.6c0.3-0.3,0.5-0.6,0.8-0.9c0.1,0.1,0.1,0.1,0.2,0.2
		C175.9,118.3,175.3,119.1,174.8,119.9z"/>
	<path d="M179,107.4c0.2-0.3,0.4-0.6,0.7-0.9c0.1,0,0.1,0.1,0.2,0.1c-0.2,0.6-0.3,1.1-0.5,1.6C179.2,108,179.1,107.7,179,107.4
		L179,107.4z"/>
</g>
</svg>
