<?xml version="1.0" encoding="utf-8"?>
<!-- Generator: Adobe Illustrator 24.0.2, SVG Export Plug-In . SVG Version: 6.00 Build 0)  -->
<svg version="1.1"
	 id="Слой_1" image-rendering="optimizeQuality" shape-rendering="geometricPrecision" text-rendering="geometricPrecision" xmlns:xodm="http://www.corel.com/coreldraw/odm/2003"
	 xmlns="http://www.w3.org/2000/svg" xmlns:xlink="http://www.w3.org/1999/xlink" x="0px" y="0px" viewBox="0 0 238.1 150.2"
	 style="enable-background:new 0 0 238.1 150.2;" xml:space="preserve">
<style type="text/css">
	.st0{fill-rule:evenodd;clip-rule:evenodd;fill:#373535;}
</style>
<g id="Layer_x0020_1">
	<path class="st0" d="M200.2,5.8c-0.6,1-0.8,1.6-1.4,2.5c-0.3,0.6-0.3,0.7-0.5,1.3c-0.3,0.9-1.7,2.2-2.4,3l-3.7,5.7
		c-0.2,0.3-0.3,0.4-0.3,0.6c-0.2,1.5-0.1,0.5,0.2,1c2.4-1-0.2-0.1,3.1-1l9.4-2.7c2.9-0.9,3.8-0.4,6.7,0.3c1.8,0.4,5.1,1.3,6.9,1.3
		c0,0,0.1,0.2,0.6,0.6c-1.4,0.6-4.6,4.2-6.2,5.6c-0.7,0.7-1.6,1.1-1.8,2.3c-1.9-0.1-4.6,0.6-6.6,1c-2.5,0.6-1.6,0.2-2.2,1
		c1.1,0.4,1.6,0.7,2.6,1.3c1.9,1,16.7,9,18,9.3c-0.3-1.3-1-1.6-2.5-3l-7.7-7.8l-0.1-0.1c1-0.2,10.7-6.5,12.2-7.5l0.8-0.4
		c0.9-0.6,0.6,0.6,0.7-1.4c-0.4-0.3-0.5-1.1-0.7-1.7l-3.2-9.8c-0.5-1.5-1-3-1.3-4.3l-4.9,1c-0.1,0-0.1,0-0.2,0s-0.1,0-0.2,0L211.3,5
		c0.8-0.3,2.4-3,2.6-3.8h-11C201.6,1.9,201,4.1,200.2,5.8z M144.9,84.3c-0.1-0.2,0-0.2-0.2-0.4c-0.3-0.3,0,0-0.5-0.3
		c-0.5-0.3-0.6-0.4-1-0.7c-5.3-4.1-8.1-4.6-14.6-7.6c-0.4-0.2-0.7-0.3-1.3-0.5c-0.7-0.4-0.1-0.3-1.1-0.6l-0.3-7.1l4.1,6.3
		c0.9-0.4,1.3-1,2-2.1c0.2-0.4,0.5-0.7,0.8-1.1c0.3-0.5,0.4-0.7,0.9-1c-0.1-1.4-0.3-1.1-0.4-1.9l2.9-0.7c0.8-0.2,0.4,0,0.8-0.5
		c-1.7-0.7-8.1-2.7-10-2.8c1.3-0.7,4.5-0.6,6.3-1l5.2-0.9c1-0.3,0.5-0.1,1-0.5l-10.3-2.9l5.5-2.7l0.1-0.1l0.3-0.1
		c0.2-0.1,0.3-0.2,0.4-0.2h0.1h0.1c0.1,0,0.1,0,0.2,0c-1.4,0.5-2.1,1.9-3.3,2.5c0.7,0.6-1.1,0.4,2.8,0.2c1.5,0,8-0.1,9-0.5
		c-0.7-0.7-4.3-1.7-5.3-2l-1.6-0.5c-0.4-0.2-0.3-0.2-0.5-0.3c0.8-0.6,7.5-0.5,8.9-0.6c0.5,0,0.9,0,1.5,0c2.1,0,0.9-0.1,1.5-0.6
		c-1.9-0.3-3.7-1.8-5.4-2.1c1.3-1.1,4.6-2.4,6.6-3.8c1.6-1,3.9-2.4,4-4.1c-0.9,0-2.8,0.8-3.9,1.1c-1.9,0.5-2.1,0.9-4.1,1.1l-1.9,2.8
		c-2,3.3-1.7,2.6-6.6,2.6c-0.7,0-1.6,0-2.4,0.1c-0.8,0.1-1.4,0.3-2,0.5c-0.2,0.1-0.5,0.2-0.8,0.3l-11.6,3.3
		c-3.1,0.9-1.8,0.4-2.3,1.4l9.6,1.6c0,0.2-0.1,0.3-0.1,0.4c-0.3-0.1,0-0.1-0.5-0.2c-1.3-0.2-8,1.9-9.8,2l0.1-3.8l10.3-5.5
		c0.9-0.7,0.2,0,0.7-0.9c-3,0.1-6.1,1.8-8.3,2.6l-7.6,3.1c-1.1,0.6-1.1,2-1.6,3.7c-0.6,2.2-0.3,2.5,0.5,4.1c0.8,1.6,1.7,4.2,2.4,5.6
		c0.3,0.6,0.5,1.1,0.7,2h3.6c-0.4-1.3-0.4-1.3-1.8-2.7c-0.1,0-0.2-0.2-0.2-0.2l-0.2-0.2c-0.3-0.3-0.3-0.3-0.5-0.6l-4.3-5.5l-0.1-0.1
		c-0.2-0.4-0.1-0.1-0.2-0.5l6.1-0.5l2.7,6.3c1.3-0.4,1.7-1,2.3-2.1c0.5-0.7,1.3-2.1,1.8-2.5l2,0.5c0.3,0.9-0.1,2.1-0.4,3.1
		c-0.3,1.3-0.1,0.6-1.5,1.4c-0.9,0.5-5.3,2.9-5.6,3.6l0.6,9.4c0,1.1,0.3,2.2,0.4,3.3l5.3,1.7c0.7-0.5,0.9-0.9,1.8-1.5
		c-0.3-1.6-1.1-3.1-1.7-4.7c-0.7-1.9-2.5-3.4-3.9-5.2c-0.3-0.5-1.9-2.3-2.3-2.5l4.9,2.5c2.2,1.4,1.8,1.1,2.5,3.2l0.3,0.8
		c0.5,0.9,0.5,0.4,0.6,0.6c0.1,0.3,0.1,0,0.7,0.2l7,3.9c1.8,1.1,2.3,1.1,4.6,1.5C140.4,83.8,144.3,84.3,144.9,84.3L144.9,84.3z
		 M200.9,39.9L189.7,45c0.8,0.7,8.3,1.1,9.2,1.1L189,49c-0.1,0.1-0.1,0.1-0.2,0.1c-0.1,0.1-0.1,0.1-0.2,0.1
		c-0.2,0.1-0.5,0.2-0.5,0.2c-0.1,0-0.5,0.1-0.8,0.2l-1.9,0.7c1.1,1,6.2,1.7,7.9,2.1c2.6,0.6,5.6,1,8.1,1.6l0.6,16.5
		c0.1,1.6-0.3,0.5,0.5,1.4c0.5-1.7,3.8-7,4.7-9.2c0.7-1.8,2.1-2.9,1-4.8c-0.6-1.3-2.1-3.2-2.5-4.5l3.2-2.8c0.1,0,0.5-0.3,0.5-0.3
		c0.5-0.5,0.3-0.1,0.5-1c-5.2,0-5-1-9.4-2.7c-0.9-0.4-0.3-0.2-1.4-0.3l1.8-6.2c2.6-0.2,8.6,2.1,10,1.6c0.6-0.3,2.8-2.5,4.3-3
		l8.5,8.4c0.6,0.7,0.4,0.8,1.4,1c0-0.7-1-4.4-1.5-5.3c-0.6-1.4-5.2-2.7-6.9-3.8c-1.4-0.8-11.4-4-13.2-4.5c-6.6-1.9-4.1-2.6-11.2-0.2
		c-0.4,0.1-0.9,0.3-1.4,0.4c-1.4,0.3-3.2,0.6-4.2,1.5c0.5,0.5,0.8,0.5,1.7,0.7C188.7,36.8,200.6,40,200.9,39.9z M236,84.3V68.6
		c-0.3,0.1-1.7,1-2,1.4c-1.1,1-2.5,2.9-3.3,3.9c-0.5,0.6-1.3,1-1.9,2c0.3,0.8,0.9,1.7,1.5,2.5l2.8,4.8c0.4,0.8,1.3,1.8,1.3,2.6
		c-1,0.5-1.9,0.2-3.9,0.4c-1.5,0.1-6.8,0.2-7.5,0.5c-0.4,0.1-3.9,4.2-4.1,5.1c-0.2,0.9-0.2,3-0.3,4.2c-0.2,2.8-0.2,5.7-0.6,8.5
		c1.5-0.4,0.6-0.1,1.5-1.3c0.6-0.7,0.6-0.2,1.3-1.1c1.6-2.2,1.4-1.4,2.2-2.5l8.3-9.3c0.2-0.3,0.3-0.4,0.5-0.7c0.5-0.7,0.6-0.5,1.1-1
		c0.4-0.5,0.6-1,1-1.5c0.4-0.4,0.2-0.1,0.6-0.5c0.5-0.5,0.2-0.2,0.5-0.7C235.2,85.2,235.8,84.7,236,84.3L236,84.3z M178.8,132.4
		c0.8-1.5,4.9-8.6,4.9-9.2c-0.5,0.4-1.3,0.5-2.3,2c-1.3,1.8-1.3,0.9-3.1,3.1c-1,1.1-2.5,2.1-4.8,4.6l-4.1,3.8
		c-0.7,0.8-0.8,0.9-1.6,1.6c-0.7,0.7-2.7,2.4-3.2,3c-1.5,1.9-5.7,5-6.3,6.5h12.2C171.5,146.6,177.2,135.4,178.8,132.4z M171.7,56.4
		c-1.1-0.2-2.2-0.4-3.4-0.6l-3.2-0.4c-1.6-0.3-1.7,0.2-2.8,0.8c-0.8,0.5-1.8,0.9-2.6,1.5l-5.2,2.8c0.4,1.1,0.4,0.5,1.1,1.5
		c0.5,0.7,0.3,0.5,1,1.3c1,0.9,5.2,1.8,6.9,2.3c1.8,0.5,2.2,0,3.8-0.6c5.3-2,7.2-2,10.8-6.3c0.7-0.8,0.3,0.2,0.6-1
		C178.6,57.5,171.8,56.4,171.7,56.4z M229.2,103.9c-1.4,0.4,0-0.1-1.8,1.5L202,125c-0.4,0.3-0.6,0.5-1,0.8c-0.9,0.7-1.5,0.8-2,1.8
		l19.6-7.4c4.6-1.8,3-0.4,6.3-7c1.3-2.7,2.3-5.2,3.8-7.8C229.1,104.5,228.9,104.7,229.2,103.9L229.2,103.9z M190.1,73.4l7.2,3
		c-0.3-1.1,0-0.6-1.4-1.9l-7.1-7.7c-1-1.4-2.6-2.5-3.3-3.9c-1.6,0.1-6.3,1.1-7.7,1.6l-6.6,1.3c0,0-0.4,0.2-0.5,0.2
		c-0.3,0.1-0.3,0.1-0.5,0.3l0.4,0.2c0.1,0.1,0.1,0.1,0.2,0.1c2.4,0.7,7.3,2.7,8.6,2.7l1.1-2.9c1.5,0.8,4.7,4.4,6.1,5.3
		C187.5,72.3,189.1,72.9,190.1,73.4L190.1,73.4z M122.1,109.2c3.9-0.5,3-1.9,6.1,0.1c0.5,0.3,0.2,0.2,0.7,0.5
		c0.1,0.1,0.4,0.3,0.5,0.3l0.4,0.2c0,0,0.1,0.1,0.2,0.1l-1.4-7.2c-0.5-1.5,0-0.5-0.8-1.1c-0.5,1.3-0.5,3.8-1.4,5.1
		c-0.4-2.9-0.3-7-1.1-10c0-0.3-0.1-0.3-0.1-0.6v-0.1v-0.1v-0.2c0.4,0.8,0.9,1.8,1.4,2.6c0.9,2,0.6,2.4,2,2.8l0.6-9.6
		c0.1-0.9,0.3-2.4,0.3-3.1c-0.3-0.5-0.5-0.6-1.6-0.8c-0.1,0-0.6-0.1-0.7-0.1c-0.1,0-0.3,0-0.4,0l-0.6,0.1l-3.4,12.1
		c-0.2,1.1-0.1,1.9-0.2,2.9C122.4,104.9,122.1,107.4,122.1,109.2L122.1,109.2z M173.7,103.5c-0.6,0.4-1.1,0.5-1.7,1.5l10.6-2.9
		c-0.4,0.7-0.6,0.8-1,1.5l-7.3,10.1c-0.6,0.8-0.2-0.3-0.5,1.1l16.1-9.5c0.5-0.4,0.1,0,0.5-0.5c-0.6-0.6-6.6-2.5-7.6-2.7l4.2-7.3
		C185.4,95.3,175.9,102.1,173.7,103.5z M212.5,86.2L193,99.1c1,1,0.8,0.5,1.9,0.1l16.4-5.2c2.2-0.7,1.7-0.3,2.5-2.6
		c0.2-0.4,0.4-1.1,0.6-1.8l0.6-1.8c0.5-1.4,1-2.6,1.4-4C215.3,84.3,213.6,85.5,212.5,86.2z M161.8,70.7c-2.7,0-5.2-0.2-7.5-0.6
		c-1.1-0.1-5.7-0.9-6.9-0.2l-0.5,0.3c0.9,0.8,5.7,1.5,7,1.7l14,2.6c1.6,0.3,2.1,0.3,3.3-0.6c0.4-0.3,0.6-0.5,1.1-0.8
		c0.5-0.4,0.8-0.5,1.1-1.1c-2.5-0.1-4.9-0.3-7.4-0.5c-0.6,0-1.6,0-2-0.1l-1.3-0.6c-0.3-0.3-1.3-1.8-1.6-2.4c-1-1.6-3.6-1-6.9-1.1
		c-2.6,0-5.3-0.2-7.9-0.3c0.3,1.7,1.1,1.5,3,1.8c1.5,0.3,2.8,0.5,4.2,0.8C154.9,69.5,161.4,70.8,161.8,70.7L161.8,70.7z M144.3,33.6
		c1.5,0.2,1.3-0.1,2.3-0.6c0.7-0.4,1.4-0.6,2-0.9c0.6-0.3,1.1-0.6,1.9-1l2.4-1.3l0.1-0.1l0.1-0.1l0.1-0.1l1.9-1l0.1-0.1l0.3-0.2
		c0-0.1-0.1-0.2,0.6-0.3l7.6-1.3c1-0.2,9.2-6.4,10.7-7.3c-0.9-0.9,0.3-0.1-0.6-0.4c-0.5-0.1-10.3,2.4-12.3,2.8l-1.4,0.3l-2.6,2.6
		c-3.6,3.8-3.1,3-7.7,4.9c-1.5,0.6-2.7,1-4.2,1.7c-0.8,0.3-1.1,0.5-2,0.8c-0.5,0.2-0.6,0.2-1.1,0.4c-1.3,0.5-0.8,0-0.8,0.8
		C142.3,33.5,143.4,33.5,144.3,33.6z M182,34.7c-0.2-0.1-0.5-0.3-0.8-0.5l-4.5-3.1c-1.4-0.8-6-2.4-7.9-2.4c-0.7,0.3-0.2,1.3-2,2
		l-1.7,1c-0.3,0.2-0.2,0.1-0.4,0.3l-1.3,0.6c-1.3,0.7-0.4-0.2-0.8,1l15.3,3.1c0.9,0,4.1-1.1,4.7-1.6C182.5,35.3,182,34.6,182,34.7z
		 M182.7,1.2l-0.8,0.5c-1.1,1.1-2.3,3.8-2.4,5.5l0.7,6.3c0.2,1.8,0.1,1.4,0.8,2l6-9.9l0.1-0.1l0.2-0.3l0.1-0.1
		c0.3-0.4,0-0.1,0.3-0.3l0.2,1.4c0.8-0.1,0.8-0.2,0.8-0.2c0.1,0,0.1-0.1,0.2-0.1l2.5-3.1c0.7-0.8,0.6-0.3,0.8-1.5H182.7L182.7,1.2z
		 M195.5,138.5c-1.5,0.3-6.8,3.4-8.7,4.5c-0.9,0.5-8.3,4.1-8.7,4.8h15.5C194.2,146.1,195.7,139.8,195.5,138.5z M136.5,137
		c-1.1,0.5-7.5,6.7-9.1,7.9l-2.7,2.8h13.5C138.4,145.3,136.7,139.9,136.5,137z M190.7,104.7c1.4,0.5,10.9,4.2,11.7,4.3
		c0.8-1.1,3.2-8.5,4.1-10.9C206.5,98.1,190.7,104.7,190.7,104.7z M119.6,97.9c0-1.3,0.1-2.8,0.2-4.4c0-0.7,0.1-1.5,0.2-2.3
		c0.3-3.2,0-2-0.6-2.5l-3.2,4.9c-0.6,1-0.2,1-0.4,2.4c-0.3,2-1.9,7.5-1.8,9.3c0.9,0.5,2.1,0.4,2.9,0.7c1.4,0.5,0.4,1.1,2.5,1.5
		C119.4,104.3,119.5,101.2,119.6,97.9L119.6,97.9z M191.1,29.7c-0.9,0.7-0.8,0.3-1.3,1.6c1.6-0.2,4.3-1.1,6-1.6c1-0.3,2-0.5,3-0.8
		l2.2-0.5c0.8-0.2,0.3,0,0.8-0.4l-5.3-2.6c-2.1-1.3-3.3-1.4-6.2-2c-1.3-0.2-2.1-0.6-3.1-0.7c-2.3-0.2-6.7,2.4-9.4,2.9
		c0.4,0.4,0.3,0.8,2.3,0.6c0.8-0.1,1-0.2,2-0.2c4.7-0.1,8.5-0.6,13.3-0.6C195.3,25.3,191.3,29.8,191.1,29.7z M135.6,135.6
		c0.1,0.3,0.1,0.3,0.3,0.6l0.4,0.6c0.5-0.5,0.6-1.1,0.9-2l5.1-14.1c-1.3,0.4-9.7,6.5-10.1,7.1C132.8,129.3,134.8,133.5,135.6,135.6z
		 M229.4,61.7c0.3-2.4,0.4-2.6,0.4-5.1c0-1.1-2.2-2.1-3.9-3.3l-4.2-3c-0.5-0.4-0.9-0.6-1.5-1c-1.4-1.1-0.6-0.7-1.9-0.9l9.6,16.3
		c0.7,1.3,0.1,0.7,1.1,0.8C229.3,64.2,229.2,62.7,229.4,61.7z M148,105.9c0.2-0.1,0.2-0.1,0.4-0.3c-0.3-0.9,0-0.2-0.9-1.5l-3-4.1
		c-0.3-0.4-0.4-0.5-0.7-0.9l-5.7-7.7c-0.4-0.3-0.1-0.2-0.9-0.4c0.4,1.5,0,0.2,0.2,0.7l2.5,8.4c0.8,3.1,3.2,4.5,4.5,7.1
		C144.3,107.1,147.9,106,148,105.9z M138.3,44.1c-0.7,3.4-2,1.8-3.6,3.2l4.1-5C138.5,43,138.5,43.5,138.3,44.1z M146.7,42.4
		c-1.6,0.2-5.6,2.2-7,2.9c0.7-0.9,1.3-1.6,1.9-2.4c1-1.3,1.7-1.1,1.9-2.8c-0.1,0.1-0.2,0-0.3,0.1l-2,0.6c-0.8,0.2-1.5,0.3-2.3,0.7
		c-0.7,0.3-1.3,0.9-2.3,1.8l-5.4,4.4c-1.8,1.3-1.3,0.5-1.6,1.8c2.3-0.1,1.3-0.7,4.4-1.3c1.5-0.2,2.6-0.6,4.1-0.9
		c2.2-0.5,6.4-1.4,8.1-2.3C146.1,45,146.5,42.5,146.7,42.4z M154,96c-1.7-0.8-3-1.3-5-2.1c-2.3-0.9-3.8-1.1-6.5-1.1
		c0.4,1.3,0,0.4,0.7,1.1c0,0,0.6,0.4,0.7,0.5l9.2,7.3c1,0.8,0.7,0.8,2.1,1.3L154,96z M163.7,80.4l-15.8-5c-0.5-0.2-1.1-0.4-1.6-0.5
		c-0.2-0.1-0.8-0.2-1-0.2c-1,0.2-0.5-0.1-1,0.7c2.9,0.7,22.3,9.2,23.9,9.4C167.2,80.7,166.1,81,163.7,80.4z M156.5,2.4
		c-0.3,0.6-0.6,1.4-0.7,1.6c-0.4,0.7-0.7,0.7-0.7,1.7c0,0.8,0.2,1.3,0.5,1.9l1.9,4.8c0.3,0.7,0.3,0.9,0.5,1.8l0.6-0.4
		c0.5-0.5,0.3-0.8,0.7-2.7l1.6-6.6c0.2-1.1,0.6-2.1,0.6-3.2h-4.2C157,1.7,156.8,1.9,156.5,2.4z M235.9,12.5c-0.9-0.1-0.9,0-1.6,0.5
		l-3.4,2.6c-0.9,0.7-4.1,3-4.5,3.9c1.4,0.5,3.6,0.4,5.1,0.6c1,0.1,3.8,0.6,4.5-0.7C236,19.4,236,12.4,235.9,12.5z M162.1,85.2
		l-2.7-1.4c0,0-0.3-0.2-0.4-0.2c0,0-0.3-0.1-0.4-0.2l-5.3-2.8l-0.1-0.1l-2-0.8c0.4,3.2,3.3,4.7,5.7,6.6c0.7,0.5,2.7,2.3,3.7,2.3
		l3.8-0.7c1.1-0.3,0.9-0.4,1.4-0.8C164.8,86.4,163.1,85.6,162.1,85.2z M164.8,108c1.3-0.4,0.1,0,1.1-0.4l5.5-2.5l0.4-11l-0.6,0.3
		c-0.4,0.3-1.1,2.3-1.5,2.8l-4.6,9.3C164.7,107.6,165,106.3,164.8,108z M202.8,80.5c-0.2,0.3-3.9,8.5-4.2,9.3
		c1.7-0.4,1.1-1.3,3.6-3.1c0.3-0.2,0.6-0.5,0.8-0.7c0.4-0.5,0.3-0.5,0.7-1c0.4-0.4,1.4-0.9,1.9-1.5c1.5-1.1,0.8-0.8,1.6-1.6l3.6-3.1
		c0.3-0.3,0.2-0.2,0.3-0.4c0.8-0.9,0.2,0.1,1.4-1.5C211.5,77,203.2,80.1,202.8,80.5z M233.4,33.9c-0.4-0.7-0.6-1.4-0.9-2.2
		c-0.4-0.9-1.5-3.7-2-4.2c-0.2,0-6.6,2.6-7.3,3.9c1.1,0.2,4.3,1.7,5.5,2.3c0.9,0.4,1.7,0.7,2.6,1.1c0.4,0.2,0.9,0.4,1.4,0.6
		c1.3,0.6,0.1,0.5,1.5,0.7C234.1,35,234,35.5,233.4,33.9z M139.8,131.4c0.1,0,0.2-0.2,0.3-0.1l12.1-8.3c1-0.7,3.3-2.3,4.4-2.6
		c-0.4-0.4,0.8-0.9-1.3-0.3l-4.2,1.3c-1.5,0.4-4.2,1-5.4,1.6c-0.8,0.3-1.1,1-1.6,1.8l-1.5,2.2C141.8,128.1,140.2,130.1,139.8,131.4
		L139.8,131.4z M190.4,15.6c3.8-0.7,3-0.3,4.3-9.2c0-0.5,0.2-0.8,0.2-1.1c0.2-1.6,0.2-0.6-0.2-1l-8.8,12.3
		C187,16.4,189.1,15.8,190.4,15.6z M151.9,31.9c-0.6,0.2-1.6,0.3-2.1,0.6c-0.6,0.4-1.6,2.6-1.5,3.8c0.1,0.7,0.1,1.8,0.4,2.5l11.3-8
		c1.1-1,0.2,0,0.7-1.1C160.8,29.6,151.9,31.8,151.9,31.9z M155.8,49.2c-2.3,0-2.9,1.3-5.4,2.9l-1,1.3c1.4,0,4.3,0.1,5.4-0.1l5.9-1.8
		c0.3-0.1,0.7-0.2,1-0.3c0.4-0.2,0.5-0.3,0.9-0.4l2.9-0.8c1.3-0.6,0.4-0.2,1-0.9C166.6,48.9,155.8,48.9,155.8,49.2z M118.7,80.3
		l-1.9-7c-0.7,0.3-0.4,0.1-0.8,0.6c-0.1,0.1-0.4,0.7-0.4,0.7c-0.1,0.4-0.5,1-0.7,1.5c-0.5,1.3,0.5,7.7,0.7,8.3l1.3,2
		c0.8,1-0.2,0.3,1,0.7C119.2,83.9,119.3,83,118.7,80.3z M179.6,87.3c0.9,0.1,7.8-1,8.7-1.4c-0.5-0.9-6-4-7.3-4.8
		c-0.8-0.5-2.1-1.5-2.8-1.6L179.6,87.3z M156.8,106.7c-1,0.4-2,0.7-3,1c-4.3,1.6-2.6,0.4-4.2,7.3c1.5-0.6,1.3-0.8,2.6-1.9l7.5-6
		c1.6-1.4,2.3-1.5,2.9-2.6L156.8,106.7z M138.4,105.6l-0.1-0.1l-0.1-0.1l-0.1-0.1l-0.1-0.1l-2-3.2c-1.5,0.2-0.8,0.1-2.4,1.7
		c-1.4,1.4-1.5,1.1-1.9,2.4c4.5,3,3.3,3.8,9.1,4C140.1,108.2,139.2,107.2,138.4,105.6z M167.3,43.7c0.6-0.2,1.7-2.3,1.8-3.4
		c-2.8,0-4.6-0.4-7.4-0.4l-0.8,1.8c-0.3,0.5,0,0.3-0.3,0.5l0.2,0.3c0.1,0.1-0.5-0.9-0.6-1.3c-0.5-1.3,0.2-0.9-1.4-1.1
		c-0.5,1.5,0.6,2,1.6,4.1C160.3,44.1,167.3,44,167.3,43.7z M150.8,60l-2.8-2c-0.4-0.2-0.9-0.5-1.4-0.8c-0.3-0.2-0.5-0.4-0.6-0.4
		l-1.5-0.2c-0.6,0.9-3.8,2.6-4.9,3.3c0.7,0.9-0.2,0.1,0.6,0.5c0.6,0.4,4.5,0.8,5.3,0.8c0.9,0.1,1.9,0.5,2.9,0.3
		c0.4-0.1,0.7-0.3,1-0.5C149.6,61.1,150.7,60.1,150.8,60z M234.4,44.1c-0.7-0.6-0.8-1.3-1.5-1.9c-0.3-0.4-0.4-0.3-0.8-0.7
		c-0.7-0.7-0.9-1.8-2.4-2.6c0.1,0.8,1.8,3.9,2.4,5c1.1,2.1-0.4,3.8-0.5,6.2l4.4,1v-5.3C234.9,44.2,235.5,45,234.4,44.1z M171.9,37.7
		l-10.2-1.6c-1.6,0-1.4,0.3-2.8,0.9l-1.5,0.7c-0.8,0.4-1.4,0.7-2.2,1c0.7,0.8-0.9,0.7,1.3,0.5c0.2,0,0.9-0.2,1.1-0.3
		c0.7-0.3,1.4-0.2,2.3-0.6c2.5-1.1,1.6-0.2,4.5-0.1c1.1,0,1.4,0.1,2.3,0.3l5.3,0.6c0.8,0,1.6-0.4,2.4-0.6
		C173.8,37.8,175,38.2,171.9,37.7z M216.1,57.5c0.4-2.1,0.6-2-0.7-3.1c-0.9-0.8-4.3-4-5.3-4.4c0.3,1.9,1.7,3.9,2.5,5.6
		c0.4,0.9,2.3,5,2.7,5.5C215.9,60.5,215.9,58.4,216.1,57.5z M133.9,89.2c-2,0.1-1.7,0.6-3.3,0.9c0.2,1.7,2.7,6.9,3.4,8.8l1,2.4
		c0.4,0.5,0,0.1,0.5,0.4C135.8,100.1,133.9,92.7,133.9,89.2z M174.4,2.9c-0.6,1.1-2.3,4-2.5,5.2c1.3,0,0.8,0,1.7-0.5
		c1.5-1,1.7-0.6,2.7-1.9l0.9-1l0.1-0.1l0.2-0.2c0.5-0.5,0.4-0.5,0.8-1c1.4-1.4,1.4-0.8,1.7-2.1h-4.7C175.1,1.8,174.8,2.2,174.4,2.9z
		 M163,55.1c-0.7-0.3-7.1-1.8-7.8-1.8c-1.5,0-5.7,2.4-6.3,3.3c1.4,0.1,5.7-0.4,7.3-0.6l6.1-0.6c0.1-0.1,0.1-0.1,0.2-0.1
		C162.4,55.3,163,54.9,163,55.1z M169.1,77.5l-6.2-1.7c-2.7-0.8-5.5-1.7-8.1-2.4c0.7,0.9,10.1,5.4,11.1,5.4c1.6,0,3.4-0.3,5.1-0.4
		C170.7,78,171.1,78,169.1,77.5z M145,77.5l-7.2-4.2c-0.8-0.4-2-0.5-3-0.1c-1.5,0.5-0.4-0.2-1,0.8c1.4,0.4,2,0.7,3.1,1.3l8.5,3.7
		c1,0.2,0.2,0.2,0.9-0.2C146,78.1,146.1,78.1,145,77.5z M167.5,49.5l5.7,1c1.5,0.2,1.5-0.2,2.1-1.3c0.4-0.7,1-1.5,1.3-2.3
		c-1.9-0.8-3-0.3-4.9,0.4l-4.6,1.8c0.1,0,0.2,0,0.2,0.1C167.4,49.3,167.5,49.3,167.5,49.5z M146.9,87.2c0.7,0.8,1.8,1.9,2.2,2.8
		l5.6-0.3c-0.4-0.9-0.8-1-2.3-1.8l-6-3.2c-0.7-0.4-0.8-0.5-1.6-0.4C145.2,85.3,146.3,86.2,146.9,87.2z M140,35.3
		c-0.7,1.3-1,1.5-1.3,2.9c0.4,0.2,2.2,0.9,2.4,1c0.6,0.1,2.2,0.1,3.2,0.2c0-1.8,0.2-3.7,0.5-5.3c-1.1,0.7-1.8,2.2-2.3,3.6
		c-0.5,1.4,0,0.8-1,0.8c0.7-0.9,0.3-4.3,0-5.3C140.5,33.2,140.8,33.5,140,35.3z M164.8,45.8c0,0-0.2,0.1-0.3,0.1l-1.3,0.3
		c-0.9,0.4-0.7,0.5-0.7,1.8c1.4-0.1,2.3-0.5,3.3-0.8l6-1.9c3.1-1,1.8,0.1,3-1.5C171.3,43.5,168.3,44.7,164.8,45.8z M153.5,114.8
		c-1.5,0.5-1.5,0.5-1.8,2.1c-0.2,0.9-0.7,2.4-0.7,3.1c1.4-0.6,5.2-5.4,6.9-6.6c0.7-0.5,0.7-0.3,0.9-1.1
		C157.2,112.8,155.2,114,153.5,114.8z M166.5,17.9c1-1.4,3.4-3.9,3.8-5.4l-4.5,1.4l-1.1,5.6C166,19.3,164.9,20.1,166.5,17.9z
		 M169.8,4.7c0.1,1.1,0.3,4.3,0.8,4.9c0.4-0.5,2.2-7.5,2.2-8.5h-1.1C169.8,2.2,169.3,2.1,169.8,4.7z M163.9,9.1l0.7-3.3
		c0.2-0.7,0.2-1.6,0.4-2.3c0.1-0.3,0.3-0.9,0.3-1c0.1-1.9,0.2-0.5-0.5-1.3c-2.5,3.9-3.3,3.2-2.1,8l0.5,1.1
		C163.8,9.8,163.8,9.8,163.9,9.1z M162.6,13.5c-0.4-1.7-0.8-2.7-1.1-4.5c-0.8,0.6-0.5,0.1-0.7,1.1c0,0,0,0.8,0,0.9v5.5
		c1.7,0.4,1,1.5,3.1,1.8C163.8,17.2,163,14.8,162.6,13.5z M142.3,69.6c-0.3,0-0.7-0.1-1.1-0.1c-0.8-0.1-1.6-0.2-2.4-0.3
		c-1.7-0.3-3.3-0.6-4.9-0.8l0.3,0.4c0.5,0.5,3.2,1.5,4.3,2c2.2,0.9,1.9,0.5,3.7-0.2l1.1-0.5c0.1,0,0.2-0.1,0.2-0.1L142.3,69.6z
		 M173.9,22c-0.6,0.8-0.2,0-0.5,1.1c1.4-0.1,0.6,0,1.5-0.6l3.3-2.3l-0.2-3.1c-0.1-0.1-0.1-0.2-0.2-0.2L173.9,22z M166.1,1.8
		c-0.3,0.8-0.3,0.8-0.4,1.9c1.5-0.2,1.5-0.5,2.7-0.7c1.4-0.3,1.6-0.3,1.8-1.8h-3.8C166.2,1.5,166.4,1.1,166.1,1.8z M162.4,47.6
		l0.1-0.8c-0.8-0.1-2.1-0.2-2.9-0.2c-0.5,0-0.6,0-1.1,0.2L158,47c-0.5,0.4-0.2,0.1-0.6,0.7C159.3,47.7,161.7,48.1,162.4,47.6z
		 M138.8,42.5l-4.1,5c1.6-1.5,2.8,0.1,3.6-3.2C138.5,43.5,138.5,43,138.8,42.5z M159.3,18.2c-0.6-1-0.1-0.9-1.5-1.4
		c-0.3,0.7-0.3,0.5-0.4,1.6c1.3,0.8,1,0.9,1.7,1.3c0.7,0.3,0.1,0,1,0.3C159.9,18.3,160.1,19.5,159.3,18.2z M173.5,11.9
		c-0.2-0.8-0.2-1.5-0.6-2.1l-0.1,0.1l-0.1,0.1c-0.9,2.2,0.3,2.8,0.4,3c0.1,0.2,0.3,0.7,0.4,0.9C174.3,13.1,174.4,15.4,173.5,11.9z"
		/>
</g>
</svg>
