<?xml version="1.0" encoding="UTF-8"?>
<!DOCTYPE svg PUBLIC "-//W3C//DTD SVG 1.0//EN" "http://www.w3.org/TR/2001/REC-SVG-20010904/DTD/svg10.dtd">
<!-- Creator: CorelDRAW -->
<svg xmlns="http://www.w3.org/2000/svg" xml:space="preserve" width="84mm" height="53mm" version="1.0" style="shape-rendering:geometricPrecision; text-rendering:geometricPrecision; image-rendering:optimizeQuality; fill-rule:evenodd; clip-rule:evenodd"
viewBox="0 0 84000 53000"
 xmlns:xlink="http://www.w3.org/1999/xlink"
 xmlns:xodm="http://www.corel.com/coreldraw/odm/2003">
 <defs>
  <style type="text/css">
   <![CDATA[
    .fil0 {fill:black}
   ]]>
  </style>
 </defs>
 <g id="Слой_x0020_1">
  <metadata id="CorelCorpID_0Corel-Layer"/>
  <path class="fil0" d="M45973.7 19603l-296 269.9c-116.7,96.9 -205.2,172.9 -318.8,259.9 -217.5,166.7 -417.7,335.1 -620.3,504.9 -406.4,340.4 -826.9,679.4 -1243.2,1008l-2162 1757.3c-139.9,113.3 -125.7,255 -148.6,456.7 206,-110.6 400.6,-295 581.9,-432.4 177.2,-134.4 367.8,-296.6 544.4,-419.7 277.1,-145.3 607.1,-464.4 871.7,-652.5 345.9,-245.5 2380.5,-1864.1 2578.3,-1967.5 -58.6,94.2 -53.4,68.4 -139.4,146.9l-747.2 649.3c-133.2,119.5 -196.8,163 -310.3,268.6 -97.7,90.4 -174,157.8 -287.5,256.4l-2728.4 2354.2c-354.8,309.9 -492.9,355.8 -427.4,633.3 173.2,-67.6 467.4,-336.4 628,-468.3l3078.2 -2546c173.9,-145.3 1123.6,-961.9 1249.3,-995.9l-2409.8 2118.6c-66.4,53.7 -91.9,91.5 -158.3,148.8 -109.6,94.7 -2403.5,2084.3 -2559.9,2146.4 -168.9,67.3 -52.9,27.8 -104.3,-2.3 -210.5,-261.4 683.6,-4693.5 497.9,-5151.3 -405.7,-87.7 -806,206.7 -1078.2,375.2 -751.4,465.2 -1542.3,1012.1 -2228.9,1556.8 -151.6,120.2 -295,251.2 -468.6,342.4 51.7,-101.7 -1.7,-12 48.7,-75.8l154.5 -156.7c82,-82.8 141.6,-139 222.4,-221.4 329,-335.5 1055,-1000.9 1423.5,-1234.3 -257.6,-138.9 -442.3,20.4 -819.7,235.3l-780.3 424.7c72.6,-133.2 431.9,-407.5 581,-521.5 181.3,-138.9 458.7,-360.6 689.6,-431.4l-107.2 -341.2c-247.9,-123.4 -188.8,-347.6 -1028.9,291.7 -163.1,124.3 -293.7,229.9 -461.2,358.1 -601,460.7 -1632.3,1457.1 -2087.5,2037.5 -1321.4,1685 -2054.1,4035.6 -2245.5,4315.2l-65.1 190.5 -33.3 140.5c139.2,-331.7 1801,-2285.3 2202.8,-2741.3 180.6,-205 334.7,-317.8 528.1,-495.4 223.8,-205.5 468.3,-940 770.3,-1249 -65.1,191.9 -191.6,382.2 -277,583.2 -311.4,733.8 -453.1,1098.3 -676.1,1916.4 -199.1,730 -515.4,2182.4 -505.2,2967.1 407.5,-1246.1 1493.4,-3102.3 2233.8,-4172.3 842.9,-1218.1 1289.4,-1695.4 2333,-2473.4 231.8,-172.9 724.6,-491.2 1029.9,-591.1 158.1,-8 88.5,139.3 61.1,414l-153.8 1387.5c-37.5,291.7 -84.9,612.5 -122.2,901l-142.4 888.4c-223.6,-411 15.2,-766.1 -679.4,-652.8l-29.8 542.2 -60.9 792.7 243 65.5c106.2,76.1 762.9,325.6 923.4,351.4 164.5,26.6 509.4,-304.9 650.5,-434.1 74.1,-67.8 31.1,-6 87,-97.6l1522.8 -1328.4c176.4,-146.4 321.2,-300.5 497.2,-456.3l1515 -1350.3c150.1,-126.9 347.9,-366 501.2,-429.6l555.4 -525.8c107.1,-88.5 171.7,-174.5 281.5,-263.2 188.8,-152 179.1,-196.3 312.3,-256.4 38.2,-87 158.8,-155.5 228.1,-225.4 118.3,-119.8 153.8,-151.3 267.4,-244.5 147.1,-120.8 395.5,-401 537.7,-461.9 55.4,-107.6 20.9,-58.9 119,-143.2l844.8 -756.6c264.6,-222.9 735.8,-731.6 981,-871.7l69 -113.5c203.3,-109.8 1063,-1031.5 1329.2,-1286.9 -152.3,46.7 -1129.7,966.4 -1379.9,1158.2l-1048.9 896c-136.1,112.3 -206.7,191.1 -354.8,299.2 61.6,-153.3 614.2,-628 856.3,-994.7 193,-292.5 631.1,-695.3 888.7,-950.7 166.3,-165 519.2,-445.2 611.1,-629.9 -257.9,124.7 -3037.9,2265.5 -3175.9,2428.2l226.9 542.5c-315.4,-49.3 -480.1,-171.7 -738.7,-262.4 -137.4,-8.2 -740,620 -946.7,696.7l0.6 -0.7zm2022.9 184.1c-15.4,150.6 105.3,120.8 159.3,285.5 76.5,-82 48,35.6 53.1,-104.3l-93.7 -241.3 -119 60.1 0.3 0zm-667.2 -1522.7c137.7,-84.2 150.7,-116 -157.3,-447.3 10.9,114.8 83,350.6 157.3,447.3zm-2659 28683.2l-666.7 94.4c7.9,93.2 54.4,208.5 80,296.4 46.2,155.8 24.1,202.8 172,196.5l1112.7 -62.9c-91.5,-101.1 -179.4,-221.3 -271.6,-328.7 -136.7,-159.7 -157.8,-227.1 -426.7,-195.6l0.3 -0.1zm14459.3 -31074.9l20.6 31.6c-227.3,73 -545.2,491.2 -711.3,671.4 -271.9,294.7 -442.6,331.3 -979.3,379.9l-1 -399.6 -13.4 -441.3c-49.7,323.1 -141.9,631.2 -177.2,968.2 -34.5,329.7 -86.4,732.5 -89.9,1062.2 290.7,100.4 606.6,258.5 891.3,381.5 170.7,73.8 736.7,345.9 884.8,361 78.8,80 621.5,272.1 748,322.1 168.2,66.1 263.6,115 401.2,-14 76.8,-71.8 163.8,-194.6 230.2,-315.8 165,-301.7 437.8,-1367.2 456.7,-1714.5 -471.9,1115.2 -303,2135.7 -2067.7,1351.5 -207,-92.2 -766.6,-360.3 -890.6,-469.7 294.2,22.2 569.5,120.8 864,154.1 451.7,50.9 537.4,-138.4 848,-107.5 397.1,39.5 492.3,-73.1 590.4,-401.3 87.1,-290.3 118.9,-567 162.3,-873.2l3.7 -252.4c1.7,-439.4 -1.7,-438.6 -351.1,-571.8 -230.5,-87.7 -383.8,-163.7 -640.6,-198 -23.8,16.4 15.2,4.2 -73.8,43.7 -55.4,24.9 -33.3,11.2 -105.3,32.1l0 -0.2zm-6688.7 3412c-71.5,297.4 -348.8,41.3 -520.5,386.6 -217.9,438.6 -365.6,571.5 -1101.1,34.1 -232.8,-170.2 -246.5,-203.8 -414.5,-371.3 -57.5,-57.4 -16.2,-25.8 -80.8,-72.1 131.7,719.9 734.3,1696.7 1337.6,1812.7 -344.3,-250 -714.4,-563.5 -888,-1018.2 194.8,111.8 636.3,663.9 943.4,602.8 80.5,-139.9 -5.7,-153.6 127.5,-209.8 139.6,-58.8 182.6,27.4 302.4,-76.3 54.1,-151 -1,-344.1 -4.5,-519.5 436.4,522 232.6,746.9 24.2,1292.3 178.1,-48 517.6,-247.5 581.9,-409 68.1,-170.2 181.9,-658.5 193.6,-849.6 -35,106.9 -289,500.2 -356.4,571.1 22.4,-350.7 114.1,-340.7 17.9,-730.8 -32.8,-133.2 31.5,-536.7 0.7,-793.4 -65.6,115.1 -82.4,276.9 -163,350.1l-0.4 0.3zm2742 -13771.5l-215.9 104.9c-147.9,98.9 -383.2,173.7 -512.9,291.3l193 455.2c347.2,-50.2 745.4,-169.7 1070.5,-250.8 564.1,-140.1 672.9,-126.7 1055.6,130.7 344.9,-106.5 705.5,-258.4 1082.9,-377.4 790.5,-249 3016.6,-810.5 3675.4,-796.9 -890.9,129 -2116.4,517.4 -2934.1,822.3 -466.2,173.6 -2311.2,952.6 -2559,1228.2 192.8,42.7 1003.6,-371.7 1235.7,-471.3 1187.3,-510.1 2712.9,-977.8 3988.7,-1227 2145.6,-419.2 4160.6,-436.3 6147.2,249 2575.2,887.8 4284,3053.4 4969.2,5497.9 130.9,468.1 229.1,942.5 295.4,1444.7 78.5,593.7 65.8,1085.2 91.9,1685.5 218.9,-454.4 101.1,-2186.6 26.4,-2762.8 -56.9,-440.1 -130,-850.6 -217.5,-1281 -86.2,-424.2 -218.4,-841.6 -293.4,-1242.9l35.8 33.5c25.8,30.8 11.4,6 44.9,58.1 265.2,415.3 727.1,1754.8 855.3,2213.8 1850.9,6613.6 -3435.3,10798.1 -8403.5,13746.6 -2737,1624.3 -5559.8,3122.1 -8369.9,4688.1 -2537.7,1414.3 -3763.7,1889.7 -5524.5,4260 -320.8,431.9 -1061.1,1513.5 -1213.9,2079.1 7,-6.7 16.6,-26.6 19.6,-20.6 3,5.7 15,-15.7 18.9,-20.7 28.3,-34.5 18.1,-18.6 48.9,-63 29.4,-42.7 42.6,-71.9 63.7,-106.6 50.6,-82.7 89.6,-137.9 134.1,-206 95,-145.9 188.9,-289.3 292.5,-421.7 156.5,-200 499.9,-682.8 659.8,-784.4 -51.5,167.5 -200.1,404.5 -286,578 -293.5,591.4 -545.4,1232.4 -729.3,1863.1 -299.9,1028.6 -367,1905.4 -142.2,3021.6 374.5,1857.9 1206.7,3456.7 2118.6,4802.2 195.8,289.3 526,729.4 756.9,948 144.6,136.6 276.3,285.5 420.1,432.3 554.3,566.1 1808,1611.2 2473.7,1891 744,312.6 1799.3,738 2588.7,853.5 764.8,111.9 2490.3,56.6 3104,-225.7 -484,-14.6 -1102.8,187.9 -1708.5,92.5 -231.9,-36.5 -241.6,-129 -484.1,-161.8 -2415.9,-328.2 -4143.4,-1405.4 -5762.1,-3138.3 -1165.9,-1248.1 -2493.5,-2982.3 -2994.2,-4607.7l-250.5 -1045.1c-428.6,-2002.2 485.3,-4310.7 1744.1,-5668.4 1327.1,-1431.2 2713.2,-2156.1 4469.7,-3166.9 967.6,-556.8 1928.7,-1042.4 2897.6,-1569.2l309.6 -167.5c7.2,-4.4 15.4,-9.2 22.3,-13.9l87.8 -71.1c186.3,-44 1732.6,-894.1 2029.3,-1048.9 1957.1,-1021.3 3569.5,-2010.8 5415.9,-3142.4 138.4,-84.9 340,-246.7 476.1,-289l526.8 -379.2c196.5,-121.8 367.5,-280.8 575,-375.2 37.2,-85.2 359.8,-303.1 457.2,-323 49.2,-90.4 19.9,-51.8 99.9,-111.4 69.8,-52.1 65.5,-47.7 144.6,-81.7 48.4,-79.5 101.1,-130.4 208.5,-157.8 39.5,-59.4 5.2,-20.6 52.9,-67.3 7.4,-7.3 31.8,-26.8 40,-33.1 15.6,-12.1 67.1,-42.9 93.7,-60.1l75.8 -77c11.4,-9.2 42.2,-31.1 57.6,-39.8 76.6,-43.9 -26.1,-5.1 61.1,-26.8 5.5,-7.6 13.1,-17.4 17.4,-22.3l215.9 -205.2c125.6,-106.8 113.1,-136.7 266.2,-195.5 12.7,-21.9 -12.7,-5.8 50.6,-69.6 88.5,-89.5 38.5,-41.3 90.3,-64.6 63.8,-108.4 423.1,-420 511.8,-468.4l91.5 -90.7 428.4 -500.9c19.6,-19.6 49.9,-48 71.8,-66.4l63.9 -50.2c3.5,-12.1 14.9,-11.4 22.6,-16.9 12,-83.5 -1.7,-41.7 44.5,-53.6 33.7,-122.3 6,-83 128.2,-140.5 15.6,-54.7 -13,-18.8 25.3,-67.6 38.1,-48.4 18.7,-19.7 46.2,-33.8l320.6 -402.3c64.3,-163.7 395.3,-546.9 526.2,-751.6 1240.2,-1939.4 2391.4,-4429.7 2313.5,-6837.3 -106.2,-3262.3 -1838.3,-5613 -3563.8,-6884.9 -968.8,-714.5 -2081.3,-1337.1 -3434.3,-1780.7 -4002.8,-1312.7 -8239.2,-726.8 -12036.3,896.8 -325,138.9 -606.3,292.5 -912.5,417.7l0.6 -1.2zm4996.8 29819c253.4,-177.9 1411.4,-492.9 1814.9,-608 619.4,-176.7 1307.5,-316.8 1972.7,-417.5 851.8,-129 3810.2,-354.5 4443.3,-31 -1881,17.1 -2455.3,46.9 -4324.1,325.8 -672.8,100.1 -1313.2,218.4 -1976.9,341.7l-1929.9 389.1 0 -0.1zm-2928.6 737c-81.1,96.7 -618,348.6 -729.5,391.1 -412.1,283.3 -1213.1,661.3 -1851.8,1097.6 -366,250 -1558.2,1055.1 -1697.9,1319.5 0.6,213.4 -5.2,458.7 66.8,649 108.7,-84 244.6,-213 358.6,-309.9l758 -605.3c134.7,-103.9 249.6,-212.2 404.5,-289.7 -118.6,175.9 -654.1,634.1 -835.2,847.7 -664.5,784.2 -647.6,590.9 -503.7,1010.3 78.5,180.7 272.8,480.6 408,595.9l1398 -986.3c163.7,-94.7 346.9,-235.5 520.3,-300.4 -122.2,151.3 -282.3,243.8 -428.9,391.4 -140.4,141.1 -287.2,245.7 -430.9,389.1 -153.5,153.1 -731,708.7 -759.6,839.9 124,10.2 213.2,-206.5 478.6,-437.9 828.6,-722.1 1919.5,-1366.9 2906.5,-1865.8 280.1,-141.4 1039.7,-547.6 1313.8,-610.5 -119.3,114.2 -845.6,551.3 -1075,710.4 -330.3,228.8 -771.3,520.5 -980.7,793.9 194,-25.1 510.3,-154.3 706.7,-214 223.2,-67.8 462.7,-139.6 707.9,-213.4 486.1,-146.3 972,-273.8 1446.1,-428.6 703.5,-229.9 2220.2,-683.6 2555.6,-1162.5l-2477.3 796.5c461.9,-276.3 1013.3,-393.6 1663.3,-858.8 922.1,-660 1323.7,-654 1667.4,-876.7 -55.4,-44.4 10.2,-57.4 -261.7,31.1l-895.7 272.2c116.7,-119 294.1,-178.7 452.7,-271.2 587.6,-342.7 689.6,-505.6 1444.9,-735.5 3104.8,-945 3119,406.3 4372.6,762.6 369.2,104.9 777.2,210.5 1125.4,342.4 755.5,286.2 702.4,399.1 970.5,517.6 -62.9,-440.6 -236.8,-773.3 -388.6,-1135.8 201,166.7 405,483 544.4,750.4 232.8,446.8 199.6,526 243,1089.4 36.3,473.8 -4.5,684.6 -189.1,1075.7 -97.7,206.7 -390.4,722.6 -533.3,766.3 61.4,102.6 -12.1,69.6 90.7,23.8 57.6,-25.8 975.1,-928.1 1052.5,-1078.6 575.8,-795.9 720.2,-813.3 726.6,-1876 7.2,-1172.9 -225.4,-1301.6 -529.5,-2066.2 256.7,265.4 437.6,392.6 627,850 173.6,418.8 216.6,792.2 216.2,1288.2 218.4,-320.8 373.5,-1231.3 336.4,-1706.6 -66.8,-856 -642.1,-1041.4 -766.1,-1248.9 -71.2,-13.7 -27.3,-0.5 -98.1,-32.8 -26.1,-12 -56,-30.3 -87.2,-48.4 -952.7,-557.6 -2248.3,-753.9 -3339.4,-807.3 -1384.5,-67.8 -2794.9,71.8 -4095.4,324.5 -1212.1,235.6 -2369.3,556.4 -3476.8,953.2 -547.4,196.1 -1083.1,394.4 -1598.2,616.5 -229.6,99.2 -1431.5,663 -1533.3,670.9l-0.1 0zm-12633.7 -22470.1c254.4,-29 288.7,14 313.1,302.7 15.9,187.9 28.3,440.3 -46.2,594.6 -19.9,-175.2 1.5,-417.2 -145.9,-511.9 -5.4,6.7 -12.6,9.5 -14.3,22.2l-76.8 226.8c-310.3,61.7 -209.9,2.8 -345.1,242.6l12.7 -398.4c-80,259.4 -100.4,402.3 -134.4,695.8 -85.3,-246.1 -66.4,-571.1 13.9,-815.6 101.1,-307.4 215.6,-362.5 442,-508.7 43.8,56.9 31.1,-20.9 14.7,79.5 -4.8,29.1 -17.4,57.9 -33.8,70.4l0.1 0zm4743.1 -2160.8l-97.2 120.3c-497.3,441.7 -329.5,259.6 -735.8,559.5 -118.5,87.8 -181.9,119.3 -278,232.9l269.1 -70.1c-97.2,191.1 -942.5,1007.1 -1172.9,1144 -403.5,240.1 -1547.6,-33.7 -2169.2,157.8 -5.5,31.5 -6.5,80.8 -11.2,106.3 -23.6,128.2 26.3,-84 -11.7,56.4 -2.5,9.2 -6.3,19.4 -8.7,27.6 -2.7,8.2 -8.2,20.6 -10.7,27.1 -2.2,6.7 -6.4,18.4 -11.4,26.8 -50.7,-378 -156.1,-662.7 -339.2,-892.3 -194.1,7.2 -345,212.4 -440.1,359.3 54.9,-191.6 224.6,-516.1 394.9,-605.1 238,26.8 277,243.3 385.1,471.6l99.1 -308.6c315.8,175.2 482.4,330.4 995.2,262.3 365.3,-48.2 712.7,-229.8 908,-417.2 -519.3,153.9 -957.4,499.8 -1551,147.6 -564.3,-334.7 -433.8,-848.8 -321.8,-1519.7 -165.7,98.1 -229.1,217.4 -484.8,307.5 -201.3,70.9 -509.7,117.1 -743,72.6 -272.8,-51.9 -269.4,-195.8 -602.8,-90.7 -203.5,64.2 -398.1,175.5 -582.9,215.9 65.5,-131.6 740.7,-1004.8 910.9,-1322.7 -196.8,158.8 -1217.5,1524.3 -1426.3,1818.2 -805.1,1132.8 -938,1778.9 -1165,2116.1l74.6 -382.9c-211.8,170 -808.9,1348.8 -636.4,1751.6 298.2,697 1587.3,-308.7 1652.4,-337 28.6,-73.1 -4,-42.3 57,-108.1 -446.1,4.5 -1864.9,1118.7 -1075.5,-518.9 410.5,-851.2 605.1,-300.7 1293.2,-1060.5 199.7,-220.3 344.4,-441.3 536.4,-643.5 -131.7,391.4 -548.4,1195.5 -523.7,1626.3 38.5,-233.6 170.4,-532 310.8,-691.5 238.1,-34.3 365.3,131.7 625.2,111.6 205.5,-15.9 377.7,-183.9 500.7,-262.7 -46.2,206.7 -137.1,440.3 -193.3,672.2 -116.6,482 -28.6,419.4 230.1,605 45.2,10.2 83.3,15.7 129.2,30.1 11.4,3.5 45.8,15.2 56.4,19.7 78.8,31.5 42.2,16.2 78,39.5 257.6,-50.9 353.3,60.6 669.6,-74.3 173,-73.8 331.7,-165 513.6,-237.3 825.7,-327.8 927.1,120.8 2186.9,-813.3 218.9,-162.5 663.7,-540 796.6,-708.5 -589.1,1018.1 -1306.8,1347.3 -2110.3,1925 913.2,-176.8 1956.5,-1164.1 2568.5,-1870.3 128.2,-147.8 224.2,-256.9 342.7,-407.5 105.6,-133.7 244.3,-344.1 348.6,-422 -43.8,151.4 -154.5,301.2 -164.3,400.6 125,-92.9 649,-394.8 809.3,-450.5 660.5,-343.1 1370.7,-686.8 2041.3,-961.2 665.7,-272.2 909.7,-382.4 1391.2,-857.7 138,-136.2 231.4,-271.6 375,-397.1 -136.4,415.9 -1268.1,1610.7 -1646.7,1920.2 -165,135.2 -547.5,417.2 -634.9,567.8 613.4,-192 2494,-2035.8 3103.3,-2734.1 78.2,-89.4 115.3,-148.8 210.7,-216.2 -116,241.3 -326.8,435.4 -414.2,661.5 110,-68.6 276.3,-265.2 380.6,-371.5 234.1,-239 85.8,-206.7 502,-190.1 485,19.4 956.9,-35 1376.6,-164.3 167.2,-142.1 235.5,-116.7 324,-376.7 171.4,-504.7 -159.3,-1168.4 -562.8,-1482.7 436,95.4 776,235 940.2,571.8 251.5,516 77.8,1125.6 129.2,1290.3l44.2 -167.7c85.5,-444 158.8,-1104.7 -77.5,-1523.4l-135.5 -156.8c-192.3,-246.7 -719.8,-484.3 -1119.9,-601.8 -515.3,-151.6 -863.5,-223.9 -1428.5,-279.8 -1092.9,-35.6 -1547.8,610.7 -2230.2,1251.8l-1669 1740.9c-196.6,196.3 -367,365.7 -561.9,562.1 -101.1,102.1 -481,502.1 -598.3,553.3 122.7,-227.6 736,-838.1 862,-1037.4 -393.4,225.1 -825.5,534.2 -1130.1,879.6 -63.6,72.2 -98.9,108.8 -165,175.9 -80.1,81.4 -81.8,93.7 -181.4,145.9l0.7 1.2zm12413.2 13051.9c-529.5,-118.9 -2380.3,-496.7 -2819.4,-486.8 -281.7,6.4 -474.3,58.1 -607.3,219.6 -217.4,263.9 16.5,337.5 -393.6,459.5 -275.3,82 -891.3,507.4 -991.7,656 -236.8,132.2 -406.3,480.3 -580.2,704.2l-1151.7 1370.7c-294.5,324.5 -429.2,485.2 -770.1,491 -420.4,822.5 -1036.9,1673.5 -1604.7,2382.4 -82.7,103.4 -576,664 -616.5,763.1 -266.9,213.7 -588.9,721.4 -1039.7,753 -241.7,574.2 -1158.1,2124.3 -1282,2575.2 126.3,-104.1 353.6,-408 471.9,-556.1 583.9,-732 919.9,-996.2 1506.8,-1629.3l542.2 -480.5c876.4,-673.4 726.6,-621.3 1848,-1289.1 855.5,-509.7 1757.3,-1042.9 2644.3,-1514.5 909.7,-483.6 1753.3,-992.4 2679.9,-1479 1152.4,-605 4122.3,-2277.3 5274.3,-3044.4 883.6,-588.5 1579.6,-1013.3 2424.9,-1734.4l820.7 -714.5c184.2,-170.1 1224.1,-1225 1291.4,-1371.3l-2074.8 1713.2c-1234.7,1026.8 -3116.5,2254.3 -4588.5,3048.4 -560.1,302.1 -1997.1,1108 -2500.8,1307.5 -65.6,-31.8 90.2,-91.9 263.2,-201.8l1056.6 -681.8c230.5,-160.5 455.9,-307.6 696.7,-464.5 121.2,-79 222.6,-156.3 344.1,-236 58.9,-38.7 108.6,-73.1 161.2,-110.6l169.8 -149.1c-271.6,-91.9 -866.2,-276.6 -1174.6,-299.9l-0.4 -0.2zm10018.1 9436.9c348.4,161.2 748.9,621.7 941.8,1023.7 229.3,477.4 293.7,1050.2 204.2,1643.3 -291.7,1933.2 -1716.3,3393.5 -3190.5,4450.6 -331,237.2 -2031.2,1349.2 -2416.6,1395.7 -104,123.8 -336.4,203.5 -499.9,252.8 -70.3,68.3 -140.9,92.9 -230.8,94.1 -28.1,27.6 -22.3,23.6 -65.6,51.5 -29.6,19.1 -33,20.9 -68.8,37.2 -88.1,40.1 -96.4,38.3 -180.3,62.1 -52.5,53.7 -155.8,85 -236.3,86.8 -6.7,5.9 -16.5,13.4 -21.4,17.1l-389.8 166.7c-150.1,138.7 -2390.9,863.5 -2778.4,938.3 -1126.8,217.4 -2286,230.6 -3427.6,52.2 -2187.9,-342.2 -3775.4,-1166.4 -5372,-2131.7l-93.7 -80.1c-40,-29 -78.5,-54.1 -121.7,-80.7 -79.1,-48.5 -160.3,-97 -254.5,-143.2 190.9,344.4 984.2,1166.1 1269.8,1415.9 572,500.2 715.6,684 1431.2,1225.1 460.4,348.1 1058.3,766 1606.7,1054.3 387.9,203.8 1545.8,642.8 2105.3,567.5 -97.1,-52.1 -1123.6,-401.3 -1621.6,-642.5l-374.2 -205.8c-68.1,-48.2 -74.5,-57.9 -113.5,-99.9 195.5,26.1 945,272.2 1748.5,374.3 679.9,86.4 1333.6,108.1 2040.3,107.5 1586.6,-1.5 2306.7,-240.7 3622,-672.8 2376.2,-781 5355.1,-2043.1 7030.8,-3709.2 514.4,-511.3 935.8,-1224.7 1303,-1902.9 141.6,-261.4 201.3,-506.2 465.5,-627.1 495,-226.7 964.6,1184.8 430.1,2205.5 -119.2,227.6 -278.5,470.3 -425.4,663.7 -322,424.4 -653,811.8 -987.9,1161.9 -472.9,494.4 -1150,1070.2 -1694.2,1509.3 -174.9,141.1 -478.1,332.7 -611.5,489.5 224.6,-77.2 692.8,-441.6 913.5,-594.6 1011.8,-701.2 2455,-1920.8 3017.8,-3016.8 359.8,-700.5 573.3,-1604.5 574.8,-2427.4 0.5,-389.6 3.2,-852.1 -87,-1242.7 -30.1,-131 2.9,-74.3 -63.6,-149.1 20.6,-488.3 -582,-1583.8 -972.1,-2020.7 -115.3,-129.4 -396.6,-400.3 -564.6,-475 176.2,893 365.3,1922 -79.5,2870.2 46.4,-844.6 253.4,-1799 -217.9,-2726.6 -264.9,-521.4 -362.8,-598.4 -771,-798.7 -256,-125.5 -874.5,-392.3 -1157.7,-425.1l344.3 212.2c70.6,62.6 18.7,15.2 40.1,43.7l-0.1 -0.1zm-23068.9 -23089.1l415.2 -802.3c302.1,-543 648.6,-1019.4 1036.2,-1486l426.7 -493.2c40.4,-38 53.7,-53.1 87,-83.9 6.9,-6.5 26.8,-25.4 33.5,-31.1 48,-39.5 11.1,-17.5 52.7,-36.3 87.2,-168.2 239.5,-255.2 373.2,-393.6 107.6,-111.6 291.5,-263.9 443.3,-339 28.1,-68.6 95.2,-91.9 170.5,-137.9 174.6,-106.8 564.6,-362.1 729,-151.1 202.5,260.2 -67.3,886.6 -59.6,1187.3 0,-7.9 322.5,-964.4 434.8,-1091.8 282.1,-319.3 427.9,-3.5 261,-833.2 359.6,146.9 615.9,530.8 713.1,1021.3 103.7,-35 211.8,-76.3 337,-101.1 62.4,-12.2 126.2,-15.9 179.4,-25.8 186.4,-34.4 135.4,16.6 163,-108.4 -34.3,-65.1 -357.8,-1001.2 -358.7,-1021.3 -78,-69.3 -125.5,-191.3 -189.6,-301.4 -65.4,-112.8 -126,-178.7 -160,-301.7 -66.4,-35.5 -158.6,-165 -225.8,-233.3 -300.5,-306.2 -605.1,-387.7 -1076,-257.2 -1109,306.8 -2268.1,980.2 -3116.4,1721.7 -78.8,68.6 -182.5,173.7 -251.8,225.9 -88.7,66.5 -125,33 -276.3,168.2 -89.4,79.8 -152.9,157 -244.5,232.3l-506.9 448.1c-445.1,387.3 -777.8,779.2 -1152.7,1301 -314.5,438.1 -1291.3,1861.7 -1319.2,2542.5 55.9,-190.1 346.6,-697.2 445.8,-825.4 189.8,-245.5 480.1,-358.4 878.6,-414 777.7,-108.1 977.5,-4.8 1682.7,-910.3 98.4,-126.2 193.1,-221.6 299.6,-347.1l303.4 -344.7c379.4,-438.5 1706.9,-1530.9 2202,-1685.7 -274,284.5 -807.6,586.9 -1283.2,1172.1 -130.9,161.2 -257.9,292.9 -386.9,466.4 -323.7,435.6 -960.6,1595 -1060.3,2268.9l0.2 1.1zm-3403.1 23035.6c-357.3,-250.7 -1174.3,-224.8 -1639.4,-148.1 -252.2,41.6 -218.5,113.8 -324.6,327 -276.6,556.8 -641.3,1195.5 -868.7,1755.5 -478.8,1179.1 -857.8,3056.3 -759.1,4504.3 236.6,-181.9 148.6,-1119.9 552.7,-1744.1 127.4,-197.1 210.9,-233.3 461.9,-322.8 456.5,-162.2 583.2,-360.5 803.8,-730.3 384.5,-643.3 299.2,-768.3 471.4,-1070.2 -35.6,591.8 -146.4,1123.9 -96.7,1757.5 22.6,-46.7 280.5,-1397.5 284,-1485 184.7,-103.8 166,-126.4 430.6,-125.2 185.1,1 318.6,34.3 510.9,36.3 394.6,4 660.5,-8.7 818.2,-274.4 287.5,-484 182.5,-1339.8 168.5,-1953 -191.8,-154.6 -531.5,-438.8 -813.6,-527.8l0.1 0.3zm-169.9 -2701c-78.8,168.8 -212.4,304.6 -327.7,458.7l-289.3 368.3c-4.5,4.4 -17.6,25.3 -20.9,19.1 -3.5,-6.3 -14,13.4 -21.6,19.1 -22.6,96.9 -238.8,359.6 -318.6,476.6 -91.5,134.5 -275.1,359.6 -317.9,530.3 241.1,6 443.3,-28.6 681.1,-22.9 284.3,7 422.2,85.8 659,112.3l1822.1 -2090c-76.3,175.8 -196.2,359.1 -302.1,536 -168.5,282.1 -911.9,1520.8 -932,1648.5 -103.7,60.8 -81.1,56.1 -120.3,159.5 147.9,112.6 75.6,93.5 408.3,-305.9 123,-147.6 265.8,-368.5 407.3,-487.7 263.3,69.5 499.9,256.3 818.5,292.4 258.1,29.1 274.3,-101.6 492.2,-29.3 209.2,69.4 127.2,128.2 433.6,119.6 279.1,-319 636.2,-1083.9 609.6,-1704.4 -15.2,-353.6 -369.8,-881.8 -574,-1161.9 -45.2,-61.9 -84.3,-114.8 -130.7,-179.6 -20.9,-29.3 -26.8,-40 -57.2,-76.6 -6.4,-7.7 -25.5,-29.5 -32.1,-36.5 -30.1,-32.5 -25.1,-27.9 -54.1,-53.4 -120,-190.6 -70,-13.7 -261.7,-416.5 -121.2,-254.2 -253.7,-321.8 -761.5,-276.3 -231.4,20.9 -271.6,176.7 -552.7,531l-1167.9 1493.1c-77,94.5 -22.1,63.4 -89.4,76.6l0 -0.1zm1587.1 -7953c17.1,650 1019.7,1411.4 -210,4900.2l-551.1 1403.9 399.3 -464.5c100.9,-132.2 229.6,-438.1 325.6,-592.4 578,-930.6 846.1,-874.7 1236.5,-1528.1 336.9,-564.6 810.8,-1286.5 825.2,-1954.3l-1228.6 82.4 1151.7 -377.2c-117.5,-373.2 -569.5,-363.3 -732,-1005.8 -100.6,-985.4 -70.3,-1337.8 -530.7,-2289.3 -360.6,20.1 -541.8,96.4 -849.1,169l686.6 -445.8c-27.1,-161.5 -132.2,-280.4 -193.9,-414.3 -153,68.6 -126.7,153.9 -272.1,196.3 -51.9,103.9 -24.1,64.6 -113.8,146.6 -36,33 -67.4,56.9 -110.6,93.7 -161.3,137.4 -572,502.7 -648.6,622.5 117.6,210.5 264.2,369.5 357.6,605.1 84.5,75.3 262,486.5 325.3,631.1 99.6,228.1 62.1,168 132.2,220.7l0.5 0.2zm-2413.1 17555.2c-404.7,19.6 -719.6,277 -1024.5,446.7 -554.3,308.7 -787.4,-90.9 -981.8,-218.1 -167.5,99.6 -191,69.3 -129.7,318 309.1,1252.4 805.7,3302.6 1212.4,4417.1 174.6,478.6 399.3,602.6 990.5,529.5 437.5,-54 338.6,-72.3 346.3,-163 -7.4,-4.5 -18.7,-8.3 -24.1,-9.7l-78.5 -18.7c-14.2,-1.2 -69.4,1.3 -87.1,2.3 -71.8,4.4 -141.8,13.6 -217.1,16.1 -124,4.2 -306.6,9.7 -425.7,-14.2 -230.8,-46.2 -284.5,-322.3 -359,-556.3 -99.5,-311.9 -348.6,-1159 -366.3,-1456.9 283.5,139.2 419,159.7 718.1,-30.8 195.8,-124.8 388.1,-277.1 376.1,-605.8l499 1073.4 -95.4 -757.1c-28.6,-569.1 895,-565.7 1074.7,-586.4 445.2,-50.9 592.4,-579 605.5,-1050.3 18.4,-665.7 -179.1,-784.4 -661.3,-988 -370.2,-156.3 -910.2,-322.5 -1372.3,-348.4l0.2 0.6zm14587.5 -18179.1c-50,57.9 -546.9,820.7 -565.3,871.5 554.5,201.5 2988.2,647 3596.2,579.7 107.1,49.5 831.7,136.9 1048.1,192.3 611.1,156.1 420.4,251.2 868.2,-95.7 611.2,-473.8 1571.9,-1271.5 1699.1,-2084.2 138.7,-885.6 -709,-875 -85.9,-1928.2 108.8,-184.4 468.1,-625.7 466.1,-776.3 -850.8,-19.4 -1631.8,-5.4 -2437.1,99.6 -487.1,63.6 -1827.6,235.3 -2141.2,419.2 -152.3,89.4 -196.5,183.1 -340.9,270.6 -154.6,93.7 -301.2,108.4 -474.8,172.7 -821,304.6 -586.2,362.8 -1162.7,1428.7l-469.9 850.3 0.1 -0.2zm-4529.1 -2367.8l-133 1328.7c290.5,29.5 299.5,-33.1 431.9,-180.9 195.8,-218.9 718,-734.8 851.2,-962.9 -38.7,167.3 -214.2,504.9 -293.7,668l-361.5 648c149.5,103.6 459.4,216.7 634.3,306.9 1278.7,660.4 1249.9,882.3 1706.6,1166.3 -106.1,-257.6 -544,-688.7 -793.9,-886.1 -113.3,-89.4 -218.4,-139.9 -328.1,-234.3 447.1,-13.1 957.2,244.8 1362,218.9 399.6,275.3 1024.5,-659.5 1199.4,-937.3l306.4 -459.2c-91.5,357.1 -911.7,1781.9 -1207.9,2181.9 -74.1,99.9 -175.5,193.1 -187.1,300.4 378,35.6 575.5,-431.4 743,-697.5 390.4,-619.2 1424.6,-2388.6 1543.4,-2977.4l-1754.6 -636.1c-174.2,-57.9 -865.2,-15.4 -1124.6,-8.5 -379.9,10.2 -636.6,272.1 -721.6,305.6 -89.2,35.3 -32.5,58.2 -96.1,-5.7l68.1 -350.8 -360.8 681.8 -2.5 -153.6 -1020.3 109.1c118.5,-214.7 256.9,-435.6 377.7,-632.4 -175.9,-19.7 -219.4,85.8 -295.5,179.9 -364.4,452.2 -512.1,472.6 -542.9,1027.3l0.1 -0.1zm6315 -885.6c448,274.8 2358,-25.5 2873.4,-155.2 429.2,-108.1 880.7,-210 1316.7,-286.8 470.6,-82.7 1002.9,-90 1456.9,-177.4 97.4,-353.6 195.8,-615 -20.6,-953.5 -473.9,-741.5 -2171.5,-644.6 -3004.5,-570.2 -996.4,88.9 -1650.6,709.6 -2209.2,1364.9 -62.6,73.8 -221.9,230.3 -261.7,317.9 -51.4,113.8 -123.4,349.8 -150.8,460.4l-0.2 -0.1zm-11319.7 9147.9c110.3,34.6 189.9,137.4 307.9,224.6 104.3,77.3 207.5,142.9 330.7,215.9 251.5,149.4 519.8,254.5 786.7,90.7 349.8,-214.7 222.6,-316.1 750.6,-348.6 429.7,-26.3 1036.7,-625.7 1262.6,-947.2 262.9,-374.2 -59.4,-482 -225.4,-690.6 -177.7,-223.1 -131.7,-547.4 -273.8,-814 -84.2,-158 -556.1,-344.4 -742.7,-398.3l-575.5 -200.6 -186.4 -34.3c-544.6,-203.8 -654.3,-78.5 -858.7,129.5l-490.3 430.1c-15.9,14.4 -71.1,71.6 -86.2,83 -109.1,81.7 -24.6,33.5 -107.8,50.2 -38.6,62.1 -16.2,48 -81.8,103.9 -57.9,49.5 -29.6,25.4 -99.6,58.2l-571.5 482.3c-67.1,127.9 -245.5,262.4 -356.3,373.2 -105.4,105.2 -248.5,302.2 -369.3,367.6 -27.6,147.5 -22.6,32 -184.6,238 -135.2,171.7 -542.5,639.1 -594.2,766.9 88.7,7 1095.6,-7.3 1109.5,-13l1998 -1580.8c114.3,-79.1 7,-22.2 120.3,-70.1 -139.4,271.6 -1256.9,1650.7 -1401.7,1937l539.2 -454 0.3 0.4zm3376.9 -3680.2c322.3,1.7 811.8,456.9 1353.7,186.1 198.7,-99.5 336,-252.5 483.5,-369.8 211.2,-167.7 398.1,-122.7 659,-226.1 308.1,-121.8 927.3,-496.4 776.5,-902 -132.2,-355.6 -694.5,-696.5 -846.4,-882.4l1033 435.6c-363.8,-224.1 -350.4,-313.8 -951,-563.1 -297.4,-123.4 -849,-344.3 -1183.5,-364.3 -148.1,508.2 -960.6,942.8 -1532.6,973.1 -728.5,38.5 -256.4,-376 -1416.9,1036.2 -190.3,231.8 -591.6,699.7 -718,1009.8l988.6 84 236.9 27.3c42.9,-73.3 1217.5,-1143.5 1395.7,-1254.6 -80.2,206.7 -300.9,487.1 -427.1,686.5 -122.7,193.9 -348.8,496.7 -418.4,671.9 84.7,-118.5 434,-438.1 566.8,-548.1l0.2 -0.1zm-6060.2 21122l-304.9 0.5c-250.8,-2.7 -860.5,-101.4 -988,2.3 83.5,186.1 110.1,177.7 555.1,249.9 232.8,37.8 541.9,40.1 793.7,43.3 534.5,6.7 1099.2,-18.2 1636.5,-28.1 821,-15.3 2370.5,23.2 3000.7,-288.7 23.6,-466.2 -901.5,-1817.9 -1128.6,-2189.4 -141.8,-231.9 -1145.5,-1794.3 -1330.9,-1982.6l1022.5 1814.2c178.7,321.2 913.2,1620.6 844.6,1998.7 -524.3,369.3 -3255.4,397.6 -4100.2,380l-0.5 -0.1zm-6455.9 -28092.5c150.1,55.1 789.2,478.6 1102,640.8 1317,683.3 2004.1,1051.6 3227.6,1934.5 273.8,-147.9 1054.3,-870 1245.4,-935.3 9.5,-29.5 6.7,-51.7 13.4,-97.3 -265.8,-156.8 -524.7,-311.1 -932.6,-222.4 -393.3,85.2 -512.3,242.3 -500.1,694.5 -237.9,-81.3 -3084.4,-1540.6 -3187.9,-1635 -108.1,-36.8 -196.5,-82.7 -293.7,-132.5l-234.8 -154.3c-167.9,-7.9 -407.3,-163 -576.2,-223.4 28.9,27.6 35.3,30.1 71.1,62.6 68.1,61.7 42.5,23.9 65.9,67.6l-0.1 0.2zm12645.5 8017.3c154.6,160.8 439.4,353.3 615.7,509.7 1278.5,1132 905.3,1511 2806.7,-1115.5 172.9,-239 853.3,-1152.9 926.1,-1387.3l-215.5 -153.8c-141.6,149.6 -301.1,433.4 -418.2,606.1l-1271.9 1829.5c-488.3,663.3 -594.4,887.6 -1199.7,547.2 -470.3,-264.6 -650.3,-615.7 -1243.2,-835.9zm8320 -10699.2c-13.4,210.5 -14.4,267.1 -168.8,356.8 -193.3,134.4 -1241.1,-356.4 -1495.1,-441 -536,-178.2 -1121.7,-257.2 -1730.7,-317.1 -130.1,-192.3 -187.8,-708.2 -317,-935.8 -18.2,93.7 -27.6,176.5 -22.4,272.8l150.8 747c184.9,215.6 746.3,168.7 1075,230.8 379.7,72.1 647.1,228.6 986.3,334l771.7 350.6c282.1,75 472.2,299.2 810.3,233.6 178.9,-248.7 131.7,-551.4 130.4,-896.7l-19.9 -333.5 -148.1 -1525.7c-80.8,639.4 -30.3,1285.2 -22.3,1924l-0.2 0.2zm-21670.7 8300.4l-350.7 82.3 -36 -119.8 45.8 -681.8c-26.1,29.8 -20.4,10.9 -45.5,77.8l-144.4 642c-115.5,527.5 -475.6,1972 -429.1,2326 244.7,35.3 628.3,-353 655,-396.3 60.6,-98.8 523,-2531.5 526.8,-2732.3l-221.9 802.3 0 -0.2zm4842.9 -7586.5l-325 -31.8c-392.9,-46.5 -715.1,-208.5 -1072.7,-329.1 -126,-42.5 -239.1,-96.1 -308.9,-43.2 126.3,47.7 235.6,253.7 880.7,429.6 349.1,95.2 883.9,132.7 1194.7,-26.1l-368.5 0.7 -0.3 -0.1zm-4240.1 2578.7l2047.7 1127.4c341.5,193.6 670,370.8 1014.3,554.3l1003.2 602.3 125.9 -123.7c-381.1,-443.8 -2389.1,-1490.2 -3078.9,-1869.6l-1050.3 -636.9c-383.2,-70.5 -1591.8,-1216.8 -1922.8,-1640.4 -412.7,-528.5 -1140.8,-1895.4 -1061.7,-2504l-84 -402c-270.8,-1619.1 516.6,-3850.8 1720.5,-4843.5 648.1,-534.5 1208.4,-877.3 2280.8,-1062.3 724.4,-125.2 1492.2,-150.3 2199.4,75.6 250.2,80.1 410.5,209.8 604.5,274.4 31.8,-83.3 55.1,-101.4 85.8,-183.2 -514.2,-479.1 -2003.3,-454 -2559.7,-506.6 272.6,-155.1 1261.8,-147.6 1641.8,-158 305.6,-8.7 477.3,-108.4 732.9,-137.4 213,-24.4 430.6,157.3 671.2,196.8 55,-126 117,-159 197.5,-242.6 -95.4,-118 -358,-204.4 -497.2,-257.2 -1347.3,-510.1 -3268.1,-366.9 -4436.4,296.7 -517.9,294.2 -910.4,590.4 -1309.3,974.6 -140.9,135.9 -231.5,269.9 -368.2,414.9 -403.1,428 -902.5,1236.3 -1173.9,1930 -658.7,1684.3 -590.8,3466.4 189.1,5018.2 374.7,745.2 813.6,1305.8 1288.4,1778.9 259.7,258.4 495.5,475.6 827,707.9l912.7 615.5 -0.3 -0.1zm13080.9 1471.5c-139.9,688.4 -425.4,1678 -1114.5,1736.4 -12.9,-79 -24.8,94.2 26.4,-43.7 38.7,-104.6 60.4,32 7.9,-64.3 -491.9,41.9 -1244.4,-144.9 -1841,-137.2 -1013.3,13.2 -805.1,460.2 -1207.6,761.9 -28.3,157.5 -210.5,383.8 -579.3,337.7 27.1,563.8 631.2,711.9 989.5,395.5 81.7,-72.2 105.6,-130.7 195.8,-212.4 196.8,-177.4 564.1,-345.9 804.4,-454.5 -214.7,-162.2 -629.4,-8.2 -879.1,26.4 311.6,-363.1 909.7,-393.6 1415.6,-187.9 676,274.8 1295.6,819.3 2092.5,230.2 128.7,-95.2 146.3,-106.4 240.7,-236.6 262.1,-360.8 387.9,-1446.2 469.4,-1917.3 193.8,-1120.5 354.8,-2104.7 675.4,-3143.5 299.8,-972.6 586.9,-1947.4 916.1,-2882l8.6 746.9c205.8,-192.6 884.4,-1929.4 1038.5,-2344.1 107.5,-289.4 155.8,-310.1 153.5,-657.5 -3.2,-468.7 -76.2,-1097.3 -720.5,-931.9 -198.4,51 -453.2,143.9 -600.1,238.8 871.2,-11.1 808.6,780.6 646.3,1408l-160.5 495.7c-33.8,57.9 -21.6,38.7 -54.1,74 12.7,-340.2 130.4,-1179 -113.6,-1364.7 -221.2,-168.2 -983,135.7 -1135.5,249.3 764.6,265.4 929.3,264.2 466.4,1663.3 -221.4,669 -404.2,1375.9 -591.8,2066.2l-856 3134.8c-92.5,315.4 -178,734 -293,1012.8l-0.4 -0.3zm-9930.9 -10689.4l174.2 -449.3 -1224.7 1986.6c-204.3,370.1 -225.2,385.2 -83.3,798.9 95.1,-225.2 -193.6,-567 416.9,-674.2 140.5,-24.5 153.3,-12.1 235.1,54.2 257.4,208 -211.8,-68.4 59.1,53.1 126.9,-82.4 662,-907.4 793.7,-1094l764 -1083.7 -336.4 760.6c24.1,-32.3 57.9,-85.7 82.7,-122 903,-1313.5 914.2,-1842.7 2425.7,-2962.5 160,-118.5 365.1,-212.4 497,-350.8 -562.8,-62.1 -1031.5,-59.8 -1443.5,225.4 -156.3,108.1 -349.6,270.9 -468.9,382.9 -170.7,160.3 -260.4,297.2 -425.1,464.5 -235.1,238.2 -1328.4,1692.1 -1466.8,2010.2l0.3 0.1zm7074.1 9291.8l-84.7 372.7c119,152.3 1200.4,1259.4 1495.4,727.5 82.3,-148.1 -26.6,-155 170.2,-239 121,-51.7 96.7,-17.2 195.8,-112.6l77.3 -77.8c7.4,-106.8 78.5,-225.4 110.1,-347.4 81.7,-317.9 -56.2,-255.2 259.7,-1206.7 77.8,-234.3 160.5,-471.1 242.9,-711.3 39.1,-114.1 81.1,-239.5 121.3,-356.4 20.6,-60.1 49.9,-133.2 61.9,-182.1 93.4,-384.2 -305.2,-375.8 -705.2,357.7 -169.5,310.7 -304.2,556.4 -463.2,866.5l-880.2 1745.6 669.4 -2032.1c-265.1,150.4 -470.3,388.9 -638.4,595.9 -217.4,268.3 -266.4,191.6 -384.6,225.6 -178,51.2 -168.8,219.7 -247.8,374l0.1 -0.1zm-2278.1 1650.9c-46.5,-18.1 -4.7,0.5 -56.6,-32.1 -7.3,-4.4 -35.9,-23.3 -43.6,-28.3l-48.4 -32.5c73.5,360.6 269.1,756.1 486.1,1034.4 45.7,58.9 58.9,76.3 109.1,130.4l114.8 136.5c146.8,60.8 184.4,131.6 370.2,172.4 -150.8,-149.4 -562.6,-376 -697,-811.5 196.1,105.1 462.4,491.2 752.2,478.3l72.5 -167.7 296.4 -45.2 4.5 -424.5c87.5,77 126.5,152.6 163.8,265.9 38.2,116.6 43.7,231.1 20.1,352.1 763.8,-177.7 938.2,-38.3 1658.1,39.5 -223.9,-269.1 -663.2,-511 -968.1,-1203.9 -77,-175.2 -125,-397.1 -199.3,-549.2l-214.4 743c-13.7,-308.4 65.8,-689.5 76.3,-1025.2 11.7,-379.2 -6.3,-757.1 -18.9,-1126.3l-42.5 -87.2c-35.8,56.6 -10.5,18.7 -50.5,64.1 -6.7,7.7 -28.6,28.6 -35.3,36 -267.6,294.5 182.2,1943.9 -270,2115.1 -285.3,108.4 -220,-6.9 -359.6,288.3 -76.3,161.3 -136.4,270.9 -362.1,202 -228.1,-69.6 -649.5,-328.2 -757.1,-524l-0.7 -0.4zm937.7 -9125c-32.7,205.4 -214.4,381.2 -253.1,576.7l347.1 -252.4c10.2,-7.3 48,-32.1 59.4,-38.1 81.3,-42.3 -38.7,-3 64.2,-24.8 97.9,-130 183.4,-166.3 323.3,-272.6 123,-93.2 197.5,-157.3 328.5,-251.7 690.8,-498 1425,-1876.1 1240.1,-2262.3 -90.4,-131.4 -262.6,-152.8 -403.1,-72.8 -164.7,93.7 -685.5,834.7 -808.3,1034 -139.6,227.1 -792.6,1475 -898,1563.7l-0.1 0.3zm-3156.9 36282.5c73.5,28.9 84.5,85.9 151.4,156.1 60.3,63.6 118.9,105.6 176.8,164.4 376.5,382.7 636.6,581.3 1062.3,905.7 -119.5,-144.9 -783.5,-884.6 -660.7,-1247.1 946.9,-49.2 2161.5,49.2 3125.2,101.1 1567.2,84 1381,-73.8 2497.3,695.3 668.4,460.7 1269,962.9 2094.2,1113 850.3,154.5 2043.8,277 2931.6,295.4l-199.3 -64.9c-831.2,-166.5 -1884.5,-444 -2656.6,-719.8 -1184.7,-423.2 -1238.2,-483.6 -2302.4,-1276.4 -176.9,-131.7 -356.8,-249.7 -533,-386.4 -229.3,-178 -363.8,-68.1 -706.7,-44.2 -1587.6,110 -3524.7,-285.3 -5169.7,-190.4 -45.5,196.5 122,363.5 190.1,498.2l-0.5 0zm8125.9 -4508.6c-96.1,-54.6 -571.3,-618.4 -663.9,-736 -1696.4,-2151.6 -1288.4,-4298.3 -348.9,-6701.1 326.3,-833.9 576.5,-1368.6 1014.6,-2121.5 100.4,-172.7 349.7,-517.1 399.1,-659.5 -184.7,145.6 -710,815.8 -871.9,1038.4 -815.6,1121.5 -1567.7,2447.4 -1795.8,3935 -278.3,1813.9 266.4,3066.8 1274,4325.8 172.6,215.7 762.3,806.4 993.2,918.9l-0.4 0zm-1406.5 -29788.1c37.3,66.4 279.8,328.7 426.4,558.1 133,208.2 239.1,393.3 369.5,620 238.6,414.7 476.1,897 674.4,1341.8 124,-185.1 804.4,-2422.7 822.5,-2726.2 17.2,-284.5 -205,-371 -454.7,-440.8 -308.8,-86.2 -421.4,-137.6 -675.9,2.3 -189.8,104.3 -369.5,194 -576.2,313.5 -187.3,108.1 -403.8,245.8 -586,331.5l0 -0.2zm7806.4 1688.4c36.5,-83 112.6,-212.1 185.6,-279.5 17.6,-193.6 143.9,-349.4 191.8,-554.6 60.7,-258.9 33.1,-444 -2.5,-700.2 -1966.7,-26.8 -1478.9,482.6 -1639,968.6 -93.2,283 -290,254 -480.5,407.5 288.7,59.2 566.3,117.8 854,175.7 710,142.9 483.1,87.2 890.3,-17.6l0.3 0.1zm-95.7 -2990.7c-1337,-388.4 -1071.2,397.1 -1846.7,860.2 -356.5,213 -1063.5,530.7 -1496.4,754.6 -175.9,90.9 -356.1,140.9 -411.2,325.3 310.1,-116.6 640.1,-304.9 948.2,-435.9 335.7,-142.4 648.6,-271.1 994.2,-402.8 1384.4,-526.6 1479,-240.5 2445.9,-346.2l-911 -1530.1 276.9 775.2 0.1 -0.3zm-16311.4 27751.6c854.5,61.1 1722.5,386.7 2457.8,658 415.7,153.3 1967.5,762.4 2361.6,694.5 401.5,-162.3 41.2,-3092.2 -38.8,-3267.5 -19.1,584.7 126.5,2114.1 17.6,2556.8 -45.7,186.4 -151.1,185.7 -354.1,169.2 -312.9,-25.5 -603.1,-100.1 -906.5,-177.4 -597.4,-152 -3056.1,-881.1 -3537.9,-633.1l0.3 -0.5zm4861.4 -10474.1c82.2,48.7 485.2,492.8 617.4,610.3 456.7,406.5 847.8,853.8 1418.1,1138.6 443.3,221.2 563.8,140.6 868.2,-147.3 403.8,-381.7 766.6,-902.8 1122.7,-1432.8 193,-287.5 863.5,-1349 977.3,-1629.3l-38.8 37.8c-3.7,4.2 -13.4,13.9 -18.1,19.1l-1739.4 2284.9c-657.7,681.3 -684.8,934.8 -1857.9,122.7 -275,-190.6 -1176.1,-996.7 -1349.7,-1003.9l0.2 -0.1zm-456.3 6073.2c225.9,1.3 319,-42 496,-91.6 21.4,-55.2 1675.8,-2878.5 1763.8,-3183.1l-1746.4 2604.8c-537.4,745 -820.2,156.8 -2077.3,-485.3 -145.9,-74.5 -627.6,-325.8 -760.6,-322 335.5,186.6 858.3,558.6 1096.3,804.5 286.5,296 681.1,552.9 1228.3,672.5l-0.1 0.2zm-1057 -19526.3l-343.7 -5.2c320.8,217.2 1031.9,137.7 1416.9,56.4 913.2,-193.1 1484.2,-645.5 2067.1,-1275 203.8,-219.9 620.4,-652.1 754.6,-937l-1642.7 1378.6c-615.9,467.7 -1216.8,785.2 -2252.2,782.2zm7959.9 2915.7c203.8,40.5 738,-155.2 938.1,-221.9 416.9,-138.9 556.1,-117 716.1,-506.2 -859.8,420.7 -652.1,192.6 -1379.6,420.5 -15.2,-152.6 307.4,-1297.1 383.7,-1628.1 22.6,-98.6 40.4,-182.6 63.8,-277 7,-28.1 31.3,-118.6 33.1,-140.6l-21.4 -123.3c-161.2,302.9 -753.9,2119.5 -733.8,2476.6zm-7027.1 -2302c215.6,215 548.1,455.3 650.5,735.1 132.9,-39.8 641.6,-479.6 750.9,-598.6 -54.1,-163.3 -421.6,-396.6 -633.9,-403.6 -51.7,-1.9 -721.1,234.1 -767.5,267.1zm-3834.4 -6778.4l247 -342.1c702.7,-995.2 1136.4,-1445.4 2102.4,-2159.3 1657.2,-1224.3 3035,-969.1 3195.3,-1031.8l337.7 -300.1c-1536.2,-26.1 -2686.4,476.3 -3686.8,1178.6 -630.2,442.3 -1403.9,1168.1 -1773.4,1840.3 -108.4,197.2 -366,623.5 -422.2,814.3l0 0.1zm2928.1 9430.8c-313.8,-715.7 -864.9,-1308.2 -387.6,-1820.1 284.5,-304.9 308.8,-238.8 135.9,-539.2 70.3,448 -280.8,523.3 -462.7,758.6 -168.5,217.9 170.2,743.4 239.8,959.4 -377.2,-387.9 -785,-1354.5 -1015.3,-1661.7 61.1,314.6 321.5,711.9 429.2,1006.7l-483.1 -691.1c-95.9,-123 -149.1,-216.6 -310.8,-265.4 -146.9,-44.2 -114.6,9.9 -221,-89.9 -138.6,-129.7 -2.5,-105.9 -171.1,-142.2 176.4,552.7 1464.3,2313.2 2246.7,2484.6l0 0.3zm-1346.4 3562.9c-32.5,-30.1 -23.3,-19.6 -57.2,-61.1 -156.8,-191.6 -103.6,-277.8 -293.2,-354.8 -15.6,90.2 -57.4,77.5 -124,157.3 1333.6,1715.8 1253.4,3922.1 627.7,5970.8 -72.1,236 -218.4,602.1 -256,811.8 839.4,-2137.2 1403.9,-3602.5 436.3,-5820.3 -64.8,-148.8 -321.2,-608.2 -333.4,-703.7l-0.2 0zm-3806 -5332.9c89.9,81.5 125.2,167.9 193.5,265.6 75.8,108.6 147.9,197.1 188.4,305.6l583.1 457.7c225.2,155.2 457.3,256.9 667.7,391.3 -89.4,-450.7 -791.7,-932.3 -569.2,-1586.5 68.1,-142.4 105.3,-173.7 88.4,-351.9 -6.7,-9.2 -41,-35.1 -51.9,-47.2 -30.8,118.5 -18.8,126.2 -146.8,234.1 -49,180.9 -160.8,140.6 -175.8,401.8 -10.4,180.2 54.7,337.7 73.6,498.2 -51.8,-90.9 -311.4,-343.4 -349.9,-523.6 -28.6,-26.6 -27.6,-24.1 -57.6,-59.4l-107.1 -168.9c-65.4,-113.1 -86,-121.1 -120.3,-244.3 -101.6,-66.3 -137.9,-201 -238,-283.3 -73.6,-60.6 -97.4,-59.6 -173,-103.8 -533.8,-312.2 163.8,588.8 195.3,815l-0.4 -0.4zm7015.3 3125.7c232.4,-83.9 217.2,-287.7 242.9,-540.9 25.8,-255.9 32,-535 32.7,-792.4l-45.7 44.8c-6,6.9 -13.7,14.9 -19.6,22.6 -120.6,153.8 -90.3,370 -119.3,598.1 -26.6,208.9 -92.5,462.9 -90.7,667.7l-0.3 0.1zm-495.9 1753.5c79,26.4 127.4,75.3 242,68.1 44.5,-103.6 81.7,-130 105.3,-232.4 -234.3,6 -215.2,-25.1 -284.3,-29.3 -90.6,-5 1.5,-17.4 -72.2,23.6l9.2 170.2 0 -0.2zm10204 -11936.6c-77.8,125.3 -97.2,56.4 -153,164.8 -54.5,105.3 41.5,288.7 -420,507.4l1086.1 -451c-108.1,-183.7 -1022.8,-740.8 -1214.8,-797.1l701.7 575.7 0 0.2z"/>
 </g>
</svg>
