<?xml version="1.0" encoding="UTF-8"?>
<!DOCTYPE svg PUBLIC "-//W3C//DTD SVG 1.1//EN" "http://www.w3.org/Graphics/SVG/1.1/DTD/svg11.dtd">
<!-- Creator: CorelDRAW -->
<svg xmlns="http://www.w3.org/2000/svg" xml:space="preserve" width="84mm" height="53mm" version="1.1" style="shape-rendering:geometricPrecision; text-rendering:geometricPrecision; image-rendering:optimizeQuality; fill-rule:evenodd; clip-rule:evenodd"
viewBox="0 0 8400 5300"
 xmlns:xlink="http://www.w3.org/1999/xlink"
 xmlns:xodm="http://www.corel.com/coreldraw/odm/2003">
 <defs>
  <style type="text/css">
   <![CDATA[
    .fil0 {fill:black}
   ]]>
  </style>
 </defs>
 <g id="Слой_x0020_1">
  <metadata id="CorelCorpID_0Corel-Layer"/>
  <path class="fil0" d="M6255.93 3859.42l92.33 -142.78c7.1,-13.01 14.72,-24.37 21.13,-36.73l60.69 -115.63c22.57,-38.82 142.25,-284.97 143.15,-325.22 -22.84,12.08 -223.44,179.16 -271.2,216.46l-272.18 218.21c-12.83,10.54 -23.42,20.5 -37.95,28.18 10.21,-43.8 37.08,-112.59 52,-157.38l144.65 -436.67c3.99,-11.96 11.77,-30.68 12.74,-42.36l-166.48 205.45c-5.47,6.98 -10.41,12.81 -16.19,19.64l-63.7 74.04c-20.83,26.93 -55.43,63.63 -79.47,88.58l-49.49 55.21c-15.62,15.8 -116.41,123.12 -142.63,130.13 32.75,-48.9 59.23,-102.38 89.71,-152.73 31.2,-51.5 58.06,-105.11 87.49,-157.72 15.01,-26.79 45.96,-88.46 45.96,-119.35 -46.42,31.09 -108.23,112.79 -153.86,149.2l-115.45 110.47c-9.53,9.57 -33.31,29.01 -39.25,37.89 -4.61,-3.28 -1.64,-4.54 -0.38,-8.65 9.33,-30.84 36.19,-234.37 36.19,-261.35l-253.88 302.65c-26.42,33.11 -79.78,83.28 -111.8,114.11 -17.48,16.82 -41.97,38.63 -61.36,51.61l24.8 -60.62c25.39,-63.99 43.51,-131.72 63.04,-198.69 13.28,-45.52 24.49,-89.25 37.73,-135.83 6.72,-23.64 11.99,-44.89 17.69,-67.72 2.99,-11.93 5.41,-22.78 8.83,-35.25 3.04,-11.04 7.71,-21.11 7.71,-36.38l-79.25 83.31c-5.83,6.29 -6.5,8.92 -12.33,15.21 -30.78,33.29 -149.35,157.37 -176.83,178.58l-43.33 39.32c-5.79,4.62 -8.56,8.45 -14.01,13.53 -33.18,30.87 -70.3,59.97 -109,83.87l-15.63 3.65 10.34 -22.72c4.92,-11.42 7.85,-19.69 11.96,-32.12l41.21 -135.13c29.77,-105.62 56.01,-209.64 79.46,-317.27 2.97,-13.66 7.1,-22.01 7.1,-36.96l-194.02 235.77c-21.09,27.24 -45.35,51.8 -69.78,76.24 -24.05,24.04 -46.79,48.84 -73.45,69.81 -9.63,7.56 -19.02,15.03 -29.18,20.41 2.97,-12.73 13.22,-27.12 19.81,-38.05 91.49,-151.54 211.08,-324.53 287.85,-478.07 13.88,-27.75 26.28,-51.48 33.98,-84.48 -6.25,4.58 -34.64,48.5 -44.8,59.89l-365.71 369.9c-16.33,-34.04 9.4,-59.44 28.35,-84.61l176.16 -226.08c5.28,-5.89 8.27,-10.28 13.75,-16.55 4.82,-5.51 9,-11.1 13.52,-16.79 9.78,-12.26 17.93,-22.82 28.06,-35.31 51.68,-63.66 98.09,-134.05 127.47,-211.4 2.25,-5.91 2.25,-6.88 4.19,-12.34l5.23 -11.31c0,33.82 8.33,70.97 -7.29,102.91 -4.66,9.52 -15.41,26.99 -17.51,34.84 9.72,-2.58 4.8,-1.55 11.99,-7.3 65.87,-52.68 81.69,-127.76 81.69,-215.85 28.41,32.69 38.06,129.09 28.22,171.49 -3.14,13.55 -10.76,26.6 -11.68,37.89 21.49,-24.75 36.64,-53.76 45.22,-87.01 14.46,-56 3.21,-126.92 -27.94,-175.48 -3.3,-5.14 -1.09,-1.96 -3.51,-4.76 3.93,-5.5 4.98,0.62 8.92,4.87 17.49,18.86 33.49,34.83 47.06,57.61 44.49,74.66 32.31,154.27 9.18,234.13 -9.59,33.11 -18.78,67 -34.86,97.38 13.49,-3.6 25.63,-27.29 33.09,-38.55 32.12,-48.38 49.88,-99.38 59.09,-161.32 6.76,-45.54 2.86,-90.38 -8.5,-129.01 -9.41,-31.98 -32.73,-74.23 -56.13,-89.9l2.3 -3.21c0.91,0 1.73,0.9 1.95,1.71l11.14 8.15c30.96,20.59 60.87,40.81 87.26,67.04 53.43,53.13 55.26,106.22 65.41,113.66l2.76 -41.33c0,-55.83 -34.26,-118.68 -66.77,-153.63l-69.26 -57.48c-6.61,-4.99 -0.26,-0.11 -4.49,-3.78 32.38,2.69 64.69,9.1 91.51,15.94 21.05,5.35 65.98,24.04 82.07,25.38 -30.78,-58.17 -187.89,-95.2 -254.51,-117.42 -69.87,-23.31 -139.66,-43.78 -204.71,-76.32l-55.04 -27.61c-0.52,-0.3 -1.23,-0.75 -1.7,-1.05 -5.14,-3.3 -1.96,-1.09 -4.76,-3.51 16.36,3.81 33.47,10.4 50.76,15.36 51.96,14.93 113.72,36.98 169.65,36.98 -2.15,-1.88 -1.21,-1.39 -4.88,-3.38l-86.42 -37.56c-55.37,-22.42 -121.31,-58.44 -172.1,-92.38 -33.44,-22.36 -69.19,-55.33 -75.47,-59.53l17.65 7.14c35.76,21.21 83.6,37.74 122.85,53.46 33.01,13.23 121.48,48.86 154.29,49.6l-22.08 -13.73c-19.35,-12.81 -44.89,-33.09 -57.82,-52.39 52.71,4.39 96.21,27.76 177.36,3.79 16.46,-4.87 28.19,-9.91 40.65,-19.96 5.07,-4.08 6.66,-8.63 13.42,-8.63l135 0c32.1,0 43.12,8.58 63.36,19.28 -3.57,-13.4 -14.75,-21.93 -24.01,-31.08 -26.59,-26.32 -89.44,-2.08 -141.28,-29.52 2.07,-24.88 5.64,-23.6 -15.8,-44.83 -33.86,-33.52 -53.58,-26.22 -99.63,-40.87 -45.13,-14.37 -89.55,-40.02 -116.42,-73.69 -7.81,-9.78 -13.92,-15.74 -21.26,-25.57 -20.05,-26.85 -37.48,-57.23 -53.66,-86.85 -15.98,-29.26 -33.56,-67.22 -36.57,-103.96 -1.47,-17.95 8.89,-20.27 23.74,-23.73 16.1,15.27 26.43,41.07 39.73,59.46 27.86,38.51 58.66,73.01 91.81,106.56 11.43,11.55 26.62,26.67 42.46,32.42 4.48,1.62 6.36,2.22 9.51,1.1 31.42,-11.03 -54.47,-76.8 -69.39,-96 -13.92,-17.93 -23.88,-27.11 -34.31,-48.33 -9.07,-18.43 -18.99,-57.25 -13.69,-80l47.56 43.36c20.53,20.29 15.98,35.89 30.48,63.2 9.5,17.9 27.61,36.1 42.73,48.19 56.35,45.04 155.59,46.97 211.02,8.97 38.65,-26.5 70.46,-64.92 70.46,-116.88 0,-23.78 -12.03,-62.29 -24.8,-71.63 2.8,-3.94 1.81,-3.31 5.47,0.04 27.76,25.34 60.66,75.05 60.66,112.92 0,39.86 -43.6,65.36 -57.09,99.96 -5.86,15.03 -7.93,24.16 -20.06,32.28 -14.48,-9.7 -27.44,-22.95 -49.59,-24.79 0.41,18.6 8.26,13.29 8.26,30.3 0,16.26 -39.98,22.04 -57.85,22.04 -19.7,0 -36.53,-2.88 -54.38,-6.23 -12.83,-2.43 -36.19,-9.99 -50.31,-10.3 0,26.37 16.04,52.34 44.07,52.34 10.53,0 1.01,0.85 8.27,-2.75 -2.12,-19.37 -3.13,2.69 -8.27,-16.53 83.78,0 144.54,27.55 228.68,27.55l0 -5.51c-16.84,-1.39 -58.07,-26.1 -30.99,-42.01 47.55,-27.93 89.11,64.29 119.15,72.31 -10.6,-45.49 -80.89,-98.51 -110.2,-132.23l15.83 -22.75c13.29,-16.3 42.97,-46.05 59.59,-56.12 32.67,-19.75 96.22,-0.38 128.14,10.31 69.04,23.12 109.6,57.58 176.69,57.61l77.09 -2.84c76.11,0 142.37,40.84 207.5,28.43l18.42 -6.39c-12.16,-2.83 -25.8,-2.98 -38.41,-5.66 -12.56,-2.67 -24.47,-5.59 -37.05,-9.8 -45.73,-15.25 -92.76,-36 -140.91,-43.67 -101.28,-16.13 -75.77,7.32 -191.77,-39.65 -14.08,-5.71 -18.45,-9.4 -30.83,-16 -29.62,-15.81 -61.03,-32.14 -85.26,-55.27 -29.8,-28.45 -31.29,-41.73 -74.54,-63.21 -60.31,-29.96 -130.39,-68.26 -195.9,-85.12 -15.74,-4.05 -22.39,-2.59 -39.36,-4.72 -57.17,-7.17 -111.45,-15.91 -171.58,-15.77 -94.74,0.22 -127.79,-11.54 -231.83,-0.41 -27.02,2.89 -40.38,3.2 -66.07,11.09 -38.9,11.93 -75.95,32.65 -118.12,36.16 35.66,-53.24 151.73,-101.22 214.19,-113.67 28.92,-5.76 65.5,-13.06 97.14,-13.06 -15.03,-20.51 -86.09,-27.55 -121.22,-27.55 -66.44,0 -162.41,20.9 -201.13,46.83 11.47,-42.94 119.95,-110.02 160.19,-126.34 17.43,-7.09 31.67,-14.1 50.35,-21.28 69.68,-26.74 138.63,-36.97 216.5,-36.97 22.52,0 35.95,5.51 55.1,5.51 -18.8,-16.35 -46.07,-25.3 -69.2,-32.74 -69.18,-22.28 -164.58,-17.13 -234.11,-3.33 -24.37,4.83 -72.37,13.51 -90.66,22.29 3.79,-16.26 25.17,-48.3 35.01,-61.41 16.11,-21.53 28.51,-33.59 46.94,-52.24 16.59,-16.78 35.57,-30.85 55.26,-43.93l61.16 -38.03c5.25,3.76 0.01,5.11 -3.98,9.81 -3.19,3.77 -4.7,5.68 -7.41,9.12 -31.22,39.75 -74.48,86.63 -101.57,127.09 82.32,0 152.99,-23.92 224.87,-47.87 68.3,-22.76 133.73,-51.19 201.79,-73.72 46.7,-15.46 97.95,-34.31 149.15,-35.45 -4.93,6.73 -10.05,8.05 -16.93,13.37l-90.88 74.43c-9.5,7.58 -29.64,21.99 -35.46,30.68l58.93 -18.23c20.4,-6.84 40,-12.03 60.09,-17.04 179.6,-44.85 449.17,-91.72 636.95,-29.18l56.79 23.12c-64.89,0 -122.39,5.33 -181.95,24.67 -7.62,2.48 -5.49,0.92 -10.91,5.64 80.91,18.84 163.96,44.39 242.8,68.51l142.58 47.51c29.66,9.91 60.17,21.96 90.07,33.92 45.44,18.17 88.82,35.76 132.51,57.61 29,14.49 100.56,51.53 116.62,73.46 -71.6,-16.68 -163.39,1.32 -228.67,16.53 6.06,9.03 125.72,81.05 138.87,89.81 58.01,38.68 109.85,78.07 164.98,118.79l46.75 38.67c34.51,32.08 71.11,62.94 103.34,97.77l26.09 31.77c9.4,11.43 16.18,21.78 24.15,33.7 -24.85,-5.79 -55.24,-22.83 -87.6,-30.87 -10.12,-2.5 -149.51,-37.88 -154.85,3.31 -2.61,20.2 73.27,58.29 89.33,67.73 63.61,37.39 136.94,76.92 189.66,129.92 14.89,14.95 24.94,24.95 38.51,41.39l22.3 35.56c1.23,2.58 2.15,4.82 3.49,7.53 0.38,0.75 1.54,3.01 1.86,3.65l-11.13 -2.64c-66.62,-45.39 -220.27,-65.55 -243.1,-76.5 0,38.71 72.89,124.28 95.8,152.16l82.64 104.7c60.22,73.18 188.65,237.13 211.56,333.96 0.11,0.48 1.54,6.22 1.66,6.6l2.33 5.95c-4.2,5.86 -7.43,-3.37 -14.44,-10.37 -4.75,-4.74 -7.6,-8.01 -12.71,-12.09 -9.92,-7.94 -17.24,-14.52 -27.53,-22.06 -66.99,-49.14 -141.82,-73.96 -234.61,-73.96 -15.3,0 -16.33,2.77 -30.31,2.77l97.28 150.66c5.62,10.11 9.18,16.42 14.82,26.51 49.01,87.61 121.48,221.44 99.43,323.63 -2.05,9.44 -5.68,16.94 -7.65,25.42l-5.51 0c-2.89,-34.78 -63.42,-106.1 -87.48,-130.18 -22.38,-22.42 -83.27,-73.84 -120.34,-72.59 -13.17,0.43 -4.32,4.14 -4.32,15.42 0,166.81 -3.12,341.39 -94.22,478.83 -8.12,12.24 -21.34,31.64 -32.51,39.12 35.86,-153.95 10.74,-368.53 -14.96,-522.28 -2.33,-13.91 -6.81,-32.6 -7.08,-45.27 -9.66,7.07 -30.91,66.43 -36.73,78.99 -12.21,26.35 -23.17,52.84 -38.2,77.52 -7.69,12.62 -12.45,24.3 -20.34,37.52 -49.23,82.45 -81.18,134.19 -142.49,207.41 -24.51,29.27 -60.95,62.37 -91.25,85.06 -23.64,17.71 -46.98,31.35 -73.25,45.24 3.07,-13.15 36.74,-99.57 49.6,-151.52 13.29,-53.67 26.63,-110.24 36.19,-167.71l39 -264.05c3.42,-27.38 10.22,-62.22 10.22,-91.73 -13.26,3.54 -70.78,60.6 -86.23,73.59l-140.38 121.33c-39.47,36.7 -83.27,69.38 -123.9,104.78 -58.83,51.26 -160.42,134.43 -219.79,174.19l37.52 -94.72c22.63,-67.88 41.93,-139.47 53.77,-210.73 6.11,-36.88 10.64,-77.84 18.9,-113.32 -6.29,2.27 -3.97,1.68 -7.92,5.84 -2.73,2.86 -3.75,4.79 -5.87,7.9l-34.19 48.45c-53.86,74.9 -157.82,214.81 -218.61,282.83 -35.08,39.25 -67.13,81.45 -104.64,118.52 -10.05,9.95 -20.67,18.3 -28.25,29.62l-3.22 -2.31c0,-0.91 1.73,-2.19 1.92,-1.74l27.03 -41.87c25.91,-51.14 46.64,-96.24 63.39,-154.25 36.71,-127.09 43.36,-262.46 32.11,-397.69l-2.55 2.96c-23.5,30.36 -64.8,105.22 -90.57,143.62 -56.04,83.49 -110.82,169.06 -174.77,246.75l-114.26 128.19c-4.43,3.71 -29.38,26.9 -31.12,29.49l5.47 -13.82c37.85,-64.58 63.41,-161.78 63.41,-236.89 0,-29.36 2.3,-59.3 -6.43,-87.23 -3.83,-12.22 0.79,-6 -7.34,-11.95 0,23.59 -5.66,55.9 -9.86,78.31 -4.81,25.7 -9.47,48.33 -15.46,72.7 -11.19,45.47 -27,94.18 -43.57,135.52 -8.45,21.12 -16.35,41.11 -26.63,61.54 -19.75,39.28 -39.05,76.94 -63.17,113.14 -8.57,12.84 -33.73,41.99 -36.93,53.99 28.28,-18.93 53.49,-37.23 79.9,-57.86 12.84,-10.01 25.27,-19.86 37.95,-30.92l74.32 -66.19c22.82,-23.02 50.01,-45.32 69.57,-70.95l97.22 -114.91c20.89,-28.01 39,-52.23 58.71,-81.8 19.64,-29.48 35.96,-56.34 53.59,-86.92 7.99,-13.85 17.45,-29.62 24.68,-44.2l20.2 -40.41c3.31,-5.52 1.39,-2.79 4.58,-6.45 0,72.55 -3.82,127.57 -21.46,196.21 -28.55,111.11 -76.3,208.38 -126.4,308.89 -12.36,24.79 -24.67,45.37 -37.65,69.79l-40.42 69.8c8.14,-2.17 11.31,-6.69 18.13,-12.18 7.03,-5.64 9.13,-7.99 16.53,-13.78 11.45,-8.95 21.21,-18.94 32.29,-28.32l189.97 -176.45c11.41,-11.35 17.72,-20.64 28.91,-31.7l57.87 -63.37c10.34,-10.84 17.8,-21.71 27.64,-32.97 28.34,-32.52 53.9,-68.1 77.77,-104.06 7.8,-11.72 15.37,-27.77 24.77,-38.6 -8.62,37.04 -20.68,74.36 -32.71,107.8 -6.18,17.19 -13.13,34.45 -20.02,51.61 -6.72,16.69 -13.38,33.21 -20.9,50.74 -14.43,33.71 -27.62,64.38 -42.98,97.52 -7.71,16.61 -14.73,32.27 -22.97,48.67 -6.32,12.54 -20.17,36.65 -22.97,48.66 10.98,-2.92 70.7,-52.56 80.27,-60.23l452.29 -365.98c4.78,-4.04 4.59,-3.12 9.37,-7.16 4.26,-3.6 5.65,-5.76 9.92,-9.37 20.63,-17.45 57.31,-54.23 76.32,-66.95 0,62.86 -11.13,125.54 -22.23,178.9 -31.01,148.98 -74.32,293.85 -122.08,437.2 -3.49,10.45 -12.01,30.8 -12.73,39.62 40.19,-9.38 81.56,-36.13 116.59,-56.97l132.09 -99.35c71.93,-72.31 127.39,-139.74 172.88,-232.11 5.94,-12.07 12.29,-26.58 17.7,-40.17 5.79,-14.62 11.77,-27.26 15.32,-42.53l13.04 66.87c9.29,71.13 0.32,149.26 0.77,219.7 0.26,40.89 -11.03,162.46 -14.01,200.87 -2.5,31.97 -8.23,68.3 -10.82,99.4 29.3,-7.82 118.93,-144.67 131.75,-165.8 6.34,-10.48 11.77,-20.72 17.91,-31.68 18.1,-32.35 32.7,-68.91 45.55,-103.23 8.92,-23.82 16.96,-49.31 23.58,-75.61 16.14,-64.14 23.66,-139.75 23.66,-213.27 0,-16.77 -2.75,-20.1 -2.75,-35.82 12.69,6.73 17.38,8.4 29.19,17.65 30.52,23.93 64.11,78.16 81.96,113.64l41.31 82.67c3.64,7.73 5.34,8.94 7.33,17.46 10.64,-2.83 15.72,-18.29 21.17,-28.41 63.06,-117.01 21.78,-265.89 -33.1,-375.66 -16.16,-32.29 -32.41,-60.05 -50.89,-89.62 -10.45,-16.7 -52.43,-73.83 -55.65,-87.62 32.29,0 68.8,10.32 96.86,21.6 60.54,24.35 112.49,67.06 155.96,114.05 12.73,13.77 27.51,39.24 41.98,48.94 0,-78.77 -23.42,-140.88 -56.93,-207.57 -43.38,-86.35 -97.23,-165.15 -154.82,-241.9l-176.72 -220.02c61.72,1.38 158.1,41.15 203.18,83.34 7.69,7.19 14.39,13.01 22.73,18.61l-0.15 -38.36c-1.02,-10.57 -5.11,-26.28 -8.47,-35.68 -7.39,-20.63 -17.94,-40.52 -30.71,-57.46 -28.7,-38.14 -50.11,-59.86 -87.04,-89.28 -17.02,-13.57 -32.25,-24.57 -51.04,-37.12 -26.75,-17.88 -56.35,-31.73 -83.79,-48.46 -10.47,-6.38 -17.32,-9.31 -29.67,-14.4 -14.93,-6.17 -49.35,-19.06 -53.51,-34.65 38.72,0 54.95,0.16 85.44,8.22 24.5,6.49 48.64,16.02 71.25,25.19 18.33,7.44 44.53,20.84 62.17,31.49 11.07,6.7 18.36,11.36 28.6,18.24l28.05 21.55c-1.87,-22.34 -25.43,-67.04 -35.81,-82.67 -4.18,-6.28 -7.08,-12.01 -11.78,-18.52l-141.77 -158.54c-25.5,-24.55 -53.86,-44.98 -81.27,-67.49 -44.4,-36.48 -94.27,-68.3 -142.08,-100.38 -12.34,-8.3 -24.18,-15.64 -37.23,-23.37 -10.83,-6.43 -31.79,-13.79 -34.95,-25.67 10.74,0 16.04,-1.6 27.05,-3.24l55.59 -5.24c32.84,0 111.22,12.17 132.25,22.27 -0.98,-11.87 -2.99,-10.63 -10.57,-19.75 -103.85,-124.87 -408.3,-235.11 -578.45,-278.38 -10.43,-2.66 -93.77,-21.57 -99.76,-29.74 52.43,0 98.5,-0.13 147.64,6.65 15.54,2.15 31.77,6.01 45.22,7.14 -19.17,-28.65 -119.17,-78.94 -160.37,-90.35 -142.47,-39.48 -302.75,-35.98 -446.16,-12 -35.25,5.89 -68.5,10.76 -102.61,18.6 -34.27,7.9 -65.69,15.59 -98.1,23.13 16.21,-22.12 89.7,-66.48 118.47,-68.88l0 -5.5c-17.78,0 -39.03,-8.27 -90.91,-8.27 -64.63,0 -139.05,30.75 -196.65,51.31 -21.86,7.8 -41.13,15.87 -62.01,23.4 -61.24,22.07 -122.19,46.03 -185.98,61.98 -24.26,6.06 -46.82,9.3 -70.57,14.83 5.13,-9.68 9.35,-13.85 16.16,-22.39l70.41 -86.65c9.61,-12.37 27.52,-33.08 41.26,-38.64l29.21 -12.11c5.63,4.03 -2.43,5.2 -11.04,16.51l-64.89 81.13c-9.25,12.28 -19.16,21.67 -26,34.61 21.31,-1.77 56.83,-19.77 77.46,-27.23 159.92,-57.96 316.32,-115.89 486.49,-144.43 30.85,-5.17 65.03,-4.67 102.77,-4.67l-12.53 6.74c-18.72,7.88 -88.04,40.72 -97.67,53.88l99.59 -10.63c11.51,-1.29 103.55,-2.83 108.58,-2.06 16.71,2.61 35.51,1.68 53.57,1.67 51.38,-0.04 105.77,5.2 156.22,11.82 108.88,14.3 208.31,39.94 303.89,87.34l26.42 14.91c2.2,1.41 2.92,1.87 4.9,3.37 6.55,4.94 0.34,0.18 4.48,3.77 -23.86,0 -47.67,8.27 -74.39,8.27l0 5.52c47.45,11.04 237.96,110.94 281.03,132.23 38.71,19.15 77.38,42.26 114.51,64.57 25.92,15.58 47.72,29.88 72.28,46.19l100.45 78.62c9.2,9.24 19.82,23.88 29.59,31.03l-8.85 0.59c-0.73,-0.13 -1.54,-0.29 -2.37,-0.39l-38.34 -2.99c-33.9,-0.29 -63.16,-5 -99.32,-5.37 -16.96,-0.16 -28.93,-2.86 -49.49,-2.86 12.63,18.87 57.37,46.35 77.66,60.1 68.93,46.68 233.98,169.87 289.49,225.7 6.58,6.62 11.03,11.99 18.15,17.67 14.15,11.29 22.76,20.57 35.53,33.35l48.7 53.24c30.55,39.33 62.73,76.24 85.16,121.48 2.27,4.59 3.07,6.4 5.44,11.08l0.57 10.45 -13.13 -11.66c-30.49,-28.23 -67.31,-51.54 -101.8,-74.53 -10.53,-7.03 -33.06,-24.25 -46.28,-25.35 0.58,26.49 43.22,102.48 58.76,131.33l40.46 75.26c17.75,34.1 34.2,67.17 53.19,101.1 18.77,33.52 33.72,69.28 51.46,102.81 -41.46,-3.44 -151.78,-102.89 -195.6,-132.23 2.71,11.62 14.01,33.59 19.27,44.08 26.52,52.87 81.35,163.4 109.68,209.91 26.04,42.78 64.06,121.02 87.78,168.45 52.49,104.99 79.27,169.84 105.6,282.86l-44.88 -43.28c-40.52,-33.93 -80.73,-66.06 -124.28,-96.12 -10.61,-7.33 -15.04,-11.61 -26.44,-17.64 0.27,12.46 9.03,37.52 12.82,50.55 5.21,17.93 9.94,35.42 14.15,51.96 45.43,178.55 90.73,352.33 117.12,535.84 15.13,105.25 35.64,246.14 9.52,358.31 -2.41,10.36 -4.8,24.9 -13.11,30.99 0,-186.92 -80.51,-434.83 -145.69,-614.71 -3.95,-10.88 -7.82,-28.88 -16.85,-35.5 0,15.31 -5.34,36.37 -8.04,49.83l-31.62 141.95c-32.72,131.65 -110.09,382.47 -235.86,466.69l49.24 -129.84c14.88,-44.62 29.45,-91.04 41.71,-137.38 11.24,-42.53 66.09,-251.97 66.09,-294.82 -2.05,2.97 -0.52,0.29 -2.98,5.28l-9.84 23.23c-13.54,28.24 -30.92,53.31 -47.78,78.93 -49.15,74.68 -116.64,135.32 -179.72,197.75 -56.09,55.49 -196.98,163.13 -256.75,206.1 -56.85,40.86 -114.68,81.85 -176.01,116.03 -7.97,4.42 -22.42,11.53 -26.7,17.38l-3.22 -2.3zm-1969.42 -2218.31c-21.93,-32.74 -105.75,-118.46 -146.03,-118.46 2.35,28.21 39.56,58.06 61.11,71.13 14.44,8.76 29.22,14.44 43.47,22.65l41.45 24.68zm-135.01 -187.35c0,17.07 18.54,27.64 30.28,35.84 4.89,3.41 8.98,6.69 14.21,10.6 39.2,29.33 90.11,82.19 138.87,89.82 18.95,2.97 23.51,5.24 37.05,-1.26 -2.12,-25.49 -53,-69.14 -72.12,-82.16 -16.51,-11.22 -56.34,-34.65 -76.79,-38.93 -16.66,-3.49 -22.23,0.72 -30.17,-11.16 8.95,-13.34 33.61,-13.77 49.6,-13.77 -11.16,-15.21 -90.93,-19.05 -90.93,11.02zm978.06 220.41l0 16.54c0,34.65 29.28,60.61 71.63,60.61 33.73,0 60.62,-28.96 60.62,-71.63 0,-54.27 -73.23,-80.61 -112.39,-43.51 -7.49,7.11 -19.86,24.9 -19.86,37.99zm270 545.51c-28.73,19.97 -176.34,6.13 -203.42,2.3l-78.19 -15.49c-10.92,-2.87 -15.06,-5.83 -26.97,-6.1 15.23,20.77 95.13,46.22 122.39,53.94 30.17,8.56 122.73,25.96 153.13,25.96l-77.9 10.27c-14.11,1.91 -27.91,-0.24 -42.16,1.91 -27.64,4.18 -78.78,-0.24 -108.57,-1.77 5.28,5.24 -2.93,-1.08 4.4,4.44 3.74,2.82 3.32,2.6 6.66,4.36 4.29,2.27 10.12,4.29 15.61,6.43 34.79,13.46 66.03,18.21 103.59,23.14l75.57 7.08c100.14,13.09 226.89,11.13 309.35,70.85 8.27,5.99 16.02,13.46 24.77,19.31 -3.54,-42.63 -81.23,-87.87 -115.66,-104.73 -11.62,-5.69 -25.69,-11.74 -38.22,-16.89l-99.29 -38.47c-10,-3.48 -13.47,-2.4 -19.59,-10.72 68.21,0 111.82,8.83 171.82,26.55 9.61,2.85 15.34,5.07 24.85,8.21 9.96,3.3 18.03,7.35 26.51,9.32 -5.62,-24.07 -33.13,-39.9 -54.15,-50.55l-69.84 -37.62c81.83,0 209,46.65 282.85,83.58 9.32,4.65 29.22,16.36 36.74,18.36 -14.51,-21.67 -86.09,-67.64 -112,-80.85 -77.08,-39.34 -185.12,-62.95 -276.47,-62.4 -20.08,0.12 -29.91,-2.67 -46.72,-2.88 -56.67,-0.69 -85.86,0.41 -140.42,-5.6 -15.04,-1.64 -28.1,-6.94 -41.53,-8.06 16.86,25.16 155.86,66.12 192.86,66.12zm-308.58 -22.04l-0.82 0.82c0.06,-0.06 1.11,-0.55 0.82,-0.82zm878.88 -236.94c32.89,7.66 137.34,72.27 168.62,93.12 70.13,46.79 74.9,50.25 132.86,95.8 7.52,5.92 11.52,10.55 18.12,14.96 -6.5,-77.96 -215.25,-180.77 -234.2,-206.64 9.85,-8.22 86.11,8.27 123.99,8.27 -4.16,-3.62 -6.87,-6.18 -12.96,-9.08 -167.92,-79.77 -336.12,-17.21 -538.99,-119.46l-65.2 -34c10.97,20.7 30.75,35.93 50.12,49.06l54.03 34.14c0.47,0.34 1.15,0.84 1.58,1.17 6.55,4.96 0.33,0.18 4.48,3.79 -18.85,4.38 -34.5,11.02 -57.86,11.02l3.73 1.77c13.96,5.34 -10.39,-3.18 3.99,1.52 27.61,9.01 31.25,5.08 71.3,25.15 12.64,6.32 22.17,11.14 34.85,17.47l174.89 97.89c70.78,43.07 190.17,93.72 271.69,108.5 16.33,2.97 33.99,3.31 48.42,6.68 -2.68,-6.66 -5.44,-6.43 -18.48,-11.83l-67.87 -28.56c-14.91,-7.22 -29.2,-13.21 -43.13,-20.23l-84.25 -42.48c-23.18,-13.85 -101.29,-59.58 -114.12,-78.75 28.51,0.64 102.87,40.43 126.74,52.35l112.96 66.13c-18,-26.87 -88.56,-84.07 -120.12,-105.81l-45.19 -31.95zm-154.29 597.85l0.83 0.83c-0.05,-0.05 -1.1,-0.56 -0.83,-0.83zm319.6 -575.8c5.12,6.99 18.77,14.19 27.04,19.79 38.11,25.84 69.19,58.82 101.76,91.09 9.74,9.65 14.28,16.59 23.42,26.18 58.31,61.18 111.06,163.45 142.97,242.74 7.58,18.85 19.51,51.07 24.39,72.03 -29.61,-19.83 -57.43,-43.98 -87.03,-64.49 -46.28,-32.07 -94.31,-59.94 -142.8,-88.63 -137.07,-81.07 -344.88,-173.5 -498.3,-195.98 -45.77,-6.7 -93.81,-9.06 -145.23,-9.06l14.74 7.29c86.35,30.16 152.44,58.64 217.4,124.25 46,46.47 83.89,99.64 115.89,156.85 6.59,11.8 26.84,50.47 29.42,61.5 -43.34,-22.93 -54.73,-34.93 -108.48,-54.07 -71.24,-25.37 -137.78,-43.92 -213.87,-61.64 3.08,4.58 59.74,49.65 81.99,75.05l26.11 29c23.06,28.08 67.33,97.19 70.98,141.15 -10.65,-7.14 -36.86,-34.83 -57.41,-50.03 -45.45,-33.61 -97.59,-50.85 -153.56,-61.34 -28.58,-5.35 -65.76,-9.85 -97.59,-9.85 8.18,7.11 49.51,15.08 60.98,18.91 114.58,38.3 215.2,110.92 283.81,209.35l26.36 45.27c4.13,4.89 -0.29,2.35 6.29,4.73l-16.75 -96.21c-12.18,-58.6 -33.2,-118.91 -60.36,-171.07 -6.49,-12.49 -41.65,-62.38 -44.1,-71.59 45.64,3.8 151.9,76.69 191.31,106.23 32.28,24.19 85.21,70.95 112.01,102.9 4.89,5.83 1.94,6.17 10.74,8.52 -11.14,-23.25 -30.22,-89.46 -51.39,-133.2 -10.49,-21.66 -18.78,-40.18 -29.42,-61.5 -11.03,-22.12 -21.48,-39.19 -33.07,-60.59 -5.56,-10.27 -10.47,-17 -16.76,-27.32 -6.28,-10.3 -12.04,-18.49 -18.65,-28.2 -12.85,-18.95 -26.19,-35.7 -40.38,-53.29 -21.12,-26.12 -45.31,-47.59 -71.39,-69.11 -9.07,-7.48 -18,-13.23 -28.21,-18.62 4.79,-6.72 20.39,3.5 29.72,6.09 168.86,46.76 404.12,201.4 544.99,295.31 15.42,10.28 163.62,117.55 174.67,120.13 -3.04,-6.35 -4.81,-27.08 -6.67,-37.42 -8.92,-49.37 -20.62,-99.94 -38.57,-146.02 -41.33,-106.05 -76.85,-178.81 -151.18,-267.59 -13.53,-16.16 -35.19,-31.46 -46.03,-47.65 65.53,5.46 189.65,82.34 243.63,122.79l58.72 45.98c43.24,38.56 99.41,82.66 134.12,127.61l43.3 47.62c7.49,7.31 -2.42,2.17 7.89,5.9 -4.67,-9.74 -8.2,-37.31 -12.17,-51.2 -16.75,-58.64 -34.89,-112.96 -57.86,-168.07l-31.9 -67.28c-7.33,-14.79 -15.67,-27.23 -23.87,-42.25 -25.93,-47.5 -71.07,-112.38 -109.06,-149.92 -44.73,-44.23 -88.32,-85.49 -141.46,-120.28 -8.94,-5.85 -33.6,-21.29 -42.46,-23.66l110.2 121.23c48.16,61.97 74.78,93.49 119.01,162.02 6.46,10.01 11.85,18.1 17.8,29.02 38.14,70.02 33.29,68.27 57.92,126.68 0.18,0.41 0.52,1.28 0.89,1.87 -4.28,5.99 -7.77,-3.73 -13.05,-8.99l-38.48 -35.92c-63.41,-53.63 -133.15,-99.81 -210.99,-130.63 -70.58,-27.95 -198.4,-70.78 -271.97,-72.41zm-614.39 -526.24c19.42,0 108.56,-6.26 118.47,-11.01 -8.82,-13.16 -61.59,-46.93 -79.35,-58.4 -22.85,-14.72 -67.06,-40.6 -91.47,-46.3l90.92 -38.56c-2.99,-11.22 -11.03,-12.85 -26.44,-23.16l-67.18 -37.51c-5.92,-2.64 -10.89,-5.42 -16.96,-7.85 -4.57,-1.82 -5.09,-1.74 -9.87,-3.88l-9.03 -4.75c16.32,0 45.68,3.46 61.05,5.08 22.46,2.36 39.34,3.19 60.01,6.1l115.87 19.13c-6.09,8.32 -68.33,27.51 -79.89,33.05l0 16.54c41.98,9.78 98.73,33.97 118.46,38.58l0 5.5c-14.52,0 -31.01,5.43 -42.17,10.17 -12.39,5.26 -25.92,9.62 -29.46,22.89 16.48,3.84 62,32.46 80.42,43.56l27.02 17.05c-18.03,0 -51.44,-4.16 -71.62,5.52l91.37 88.62 -27.66 -11.82c-10.38,-3.44 -18.96,-7.3 -30.28,-11.05l-180.48 -56.46c-0.38,-0.19 -1.18,-0.64 -1.73,-1.04zm217.65 -63.36l0.82 0.83c-0.04,-0.06 -1.09,-0.55 -0.82,-0.83zm-622.64 -168.06c71.48,0 213.63,15.54 277.94,36.14 18.14,5.81 62.71,20.14 71.95,32.74 -141.06,0 -266.75,22.65 -400.66,48.43 -3.84,0.74 -7.72,1.29 -11.55,2.22l-12.07 4.45c95.08,0 183.77,-0.4 267.1,11.17 72.86,10.11 141.27,27.41 207.66,54.06l12.88 6.4c-24.57,0 -112.79,-10.57 -138.16,-13.37 -48.45,-5.34 -197.66,-8.95 -246.42,-2.03l-67.25 12.65c11.78,7.48 93.35,13.52 108.29,15.68 37.16,5.41 72.47,10.3 106.87,17.12 102.71,20.39 199.83,42.64 296.94,75 75.62,25.2 152.57,52.34 224.46,86.85l43.17 20.2c164.53,81.04 313.13,178.07 448.39,298.26l81.27 72.99c6.2,6.23 10.32,10.4 16.5,16.58 10.65,10.65 20.39,22.96 32.38,30.99 -7.13,-30.54 -36.41,-71.68 -53.9,-94.87 -22.16,-29.4 -45.2,-52.43 -70.78,-78.01 -12.88,-12.89 -23.85,-25.79 -37.88,-36.51 -26.79,-20.45 -53.53,-47.35 -80.26,-68.51 -6.94,-5.51 -12.58,-10.18 -19.78,-16.04l-194.77 -141.36c-21.16,-15.04 -172.36,-109.31 -179.06,-118.48 100.18,23.35 406.73,202.05 487.64,256.23 -1.05,-12.73 -12.04,-25.5 -20.09,-35 -88.43,-104.36 -247.75,-185.7 -372.04,-247.86l-150.61 -75.3c87.26,0 317.74,104.71 410.49,151.54 17.9,9.05 37.84,20.12 57.87,24.78 -19.24,-28.72 -89.2,-72.9 -117.92,-91.46 -43.62,-28.14 -88.24,-50.19 -135.55,-73.84 -46.99,-23.49 -95.51,-45.6 -145.69,-63.69 -44.17,-15.91 -89.88,-32.5 -136.5,-45.33l-20.87 -6.69c16.1,0 24.09,-0.95 36.24,-2.37 24.65,-2.9 90.37,7.07 111.37,11.8 23.1,5.17 43.03,10.16 64.5,15.4 22.17,5.41 46.42,8.5 68.91,13.73 -3.23,-8.93 -15.37,-11.82 -24.79,-16.52 -67,-33.37 -136.68,-62.03 -209.96,-82.1 -175.28,-47.97 -391.14,-57.34 -572.03,-11.11l-14.23 5.04zm278.25 914.7l0.83 -0.83c-0.05,0.05 -1.1,0.54 -0.83,0.83zm-349.89 71.62l0.82 -0.82c-0.06,0.06 -1.09,0.55 -0.82,0.82zm-44.08 586.83l0.82 0.84c-0.05,-0.06 -0.54,-1.11 -0.82,-0.84zm68.87 245.22l-0.81 -0.83c0.05,0.05 0.54,1.1 0.81,0.83zm300.31 126.73l-0.81 -0.83c0.05,0.05 0.54,1.1 0.81,0.83zm-1088.71 526.67l35.51 -75.6c3.24,-6.76 4.29,-6.88 8.12,-13.92 24.91,-45.92 34.83,-65.72 64.77,-111.56l154.45 -198.19c13.43,-14.36 14.71,-20.2 24.14,-22.71 0,18.19 4.57,40.35 5.51,57.84 1.12,20.72 -0.01,45.02 -0.01,66.13 12.65,-8.47 195.59,-190.1 201.12,-198.35l-79.88 154.3c-4.44,8.99 -8.06,13.95 -12.88,22.92l-46.79 88.22c-9.5,18.74 -44.57,77.9 -47.8,89.95 16.82,-3.91 164.41,-89.42 173.58,-101.93l-22.01 41.36c-51.47,77.48 -107.05,152.45 -172.91,218.31 -10.85,10.83 -21.69,24.3 -33.76,32.36 9.17,-39.32 24.81,-50.25 24.81,-129.48 0,-46.21 -7.82,-79.38 -30.31,-112.97 -81.11,6.76 -146.77,86.21 -193.59,134.28 -6.15,6.34 -6.9,8.78 -12.43,15.12l-39.64 43.92zm1438.6 -223.61l-28.66 53.98 -135.47 195.14c-12.28,16.96 -23.34,31.06 -34.78,47.88l-52.58 71.39c-6.63,8.81 -13.17,14.53 -15.74,25.58 83.6,-44.24 165.56,-93.06 241.26,-149.96 40.6,-30.49 106.98,-80.72 143.79,-117.94 11.45,-11.6 21.19,-22.85 33.72,-32.41 15.12,-11.54 19.4,-20.92 32.33,-33.78 38.46,-38.28 75.42,-79.96 107.02,-124.42 5.45,-7.68 7.79,-13.33 14.93,-18.11 -1.41,16.89 -58.9,176.11 -68.87,201.12 -26.14,65.56 -47.36,133.66 -72.81,199.94 -12,31.26 -41,101.56 -48.42,133.42 13.82,-7.31 24.54,-18.62 37.4,-28.72l93.65 -77.18c7.23,-5.64 13.2,-10.18 19.78,-16.03l226.6 -186.66c26.69,-20.8 218.17,-175.74 225.94,-187.33l-224.09 398.56c-27.51,54.24 -89.19,156.69 -123.91,217.72 -4.28,7.52 -9.45,14.37 -10.16,22.9 7.33,-4.9 14.75,-11.36 22.04,-16.52 70.34,-49.73 144.64,-94.55 217.12,-141.05l331.53 -224.99c45.2,-33.75 88.81,-71.68 128.41,-111.28 7.08,-7.08 12.33,-12.15 19.34,-19.24 7.51,-7.6 11.36,-15.67 19.92,-21.41 -1.45,17.36 -12.62,44.64 -18.24,61.67 -28.96,87.69 -100.43,249.36 -143.35,338.77 -8.34,17.36 -21.5,38.59 -25.76,56.91 46.05,-1.02 136.76,-64.92 172.02,-92.47 26.35,-20.58 45.12,-40.68 68.41,-63.85 16.74,-16.64 30.35,-35.47 45.28,-53.9 59.6,-73.62 117.93,-193.01 144.08,-288.46 8.23,-30.03 26.87,-76.42 27.56,-107.44l5.5 0c1.28,15.34 6.24,25.59 9.44,40.16 42.24,192.38 58.79,388.31 85.08,584.41 3.65,27.24 10.18,65.5 10.18,94.51l56.83 -122.26c87.58,-264.94 96.58,-519.91 41.66,-794.49 -13.33,-66.71 -44.42,-199.19 -72.68,-266.21l-3.77 -7.24c5.35,-7.49 11.1,9.1 19.94,18.63 6.62,7.15 12.9,12 19.3,19.28 20.32,23.07 98.32,112.54 112.29,121.88 0,-120.77 -27.17,-269.81 -65.05,-378.51 -18.51,-53.11 -45.55,-102.64 -72.84,-150.32 -6.63,-11.58 -76.14,-131.21 -85.28,-137.89 3.54,-4.96 2.85,-1.73 6.31,1.97 2.74,2.94 1.81,1.98 4.25,4.01l104.51 91.1c8.08,8.07 29.69,29.85 39.22,32.4 0,-125.06 -96.53,-285.05 -159.27,-388.98 -8.19,-13.57 -60.82,-104.14 -72.16,-112.43 4.55,-6.37 6.24,4.59 22.86,18.47 22.65,18.92 45.4,39.28 63.72,63.01l84.24 86.58c-0.35,-15.6 -7.82,-42.29 -11.23,-57.66 -8.14,-36.92 -21.06,-71.19 -34.81,-105.69l-33.89 -70.81c-4.46,-8.59 -7.13,-14.35 -12.54,-23.27l-88.51 -126.38 -66.29 -74.24c-78.35,-78.35 -140.62,-122.14 -228.79,-187.23 -3.16,-2.32 -3.8,-2.94 -6.09,-4.93 23.86,1.98 60.14,14.93 83,21.72 13.59,4.03 27.72,7.86 40.97,11.36 13.54,3.59 28.42,7.99 41.34,11 -4.26,-15.96 -43.98,-54.56 -56.25,-70.47 -24.07,-31.16 -94.02,-96.08 -129.5,-123.97 -12.71,-9.97 -22.69,-18.53 -35.01,-28.36 -12.83,-10.23 -23.94,-18.58 -37.43,-28.7 -24.8,-18.62 -49.65,-34.65 -75.14,-51.59l-60.65 -35.77c-56.6,-29.21 -114.73,-60.58 -175.96,-80.27 -9.02,-2.9 -17.15,-3.51 -22.39,-10.66 36.72,0 64.98,-5.52 99.17,-5.52 -9.91,-13.52 -92.84,-50.08 -110.24,-57.81 -188.99,-84.05 -366.46,-146.06 -592.31,-146.06l12.07 -7.22c5.46,-2.22 8.68,-3.01 14.41,-4.87l92 -23.72 -14.05 -5.23c-7.4,-1.2 -13.87,-1.87 -19.51,-2.55 -151.05,-18.11 -298.62,-6.34 -444.67,25.46 -72.57,15.82 -139.16,39.04 -208.13,61.87 -5.43,1.8 -8.83,2.75 -14.32,4.96 -3.08,1.24 -3.2,1.26 -5.78,2.5l-7.11 3.9c-3.9,-2.78 -3.62,-1.77 0.41,-5.1 20.87,-17.25 42.65,-38.92 57.44,-61.02 -37.51,0 -125.24,15.6 -159.11,22.72 -72.04,15.18 -139.29,41.29 -206.14,69.36 -11.16,4.69 -19.75,8.69 -30.72,13.38l-156.04 72.63c-0.37,0.2 -1.2,0.61 -1.76,0.99l-3.22 -2.3c0,-0.91 1.53,-2.4 1.71,-1.96 0.01,0.02 5.87,-10.37 40.85,-36.3l11.23 -8.05c4.95,-3.79 1.91,-1.45 4.54,-3.74l-35.82 -2.75c-36.5,0 -77.44,11.58 -102.9,23.84 -36.67,17.67 -85.45,50.77 -111.19,81.66 -6.51,7.83 -7.72,10.38 -15.24,17.82 -26.28,25.92 -47.5,66.4 -85.37,77.18l-104.65 24.84c-98.02,24.93 -193.14,64.69 -280.46,108 -55.67,27.61 -107.48,62.42 -155.83,100.39 -45.69,35.9 -94.68,83.58 -127.38,131.61l-25.34 38.02c-60.2,90.47 -107.45,237.05 -107.45,347.14 0,73.23 47.12,217.18 99.84,269.34 9.65,9.53 15.67,21.31 32.41,22.7 11.06,-47.52 -5.52,-100.06 -5.52,-148.77 0,-51.86 4.31,-96.7 29.4,-141.42 6.07,-10.8 11.93,-18.97 17.45,-29.39 24.34,16.3 37.28,20.92 68.5,30.66 103.08,32.17 368.93,37.72 488.43,24.85l63.4 -5.56c10.65,-0.26 20.39,8.92 28.75,14.52l299.44 204.74c18.33,13.76 33.68,25.76 51.2,39.72 8.41,6.69 16.31,12.37 24.45,19.63 5.45,4.86 6.83,5.64 12.14,9.9 48.4,38.86 110.06,104.22 143.43,154.11 12.87,19.24 23.54,34.85 34.33,56.6 20.42,41.15 44.99,90.51 44.99,139.59 0,20.34 -46.85,97.43 -63.86,123.49 -28.63,43.84 -63.36,83.75 -96.74,123.66 -53.09,63.47 -152.69,148.82 -203.73,206.77l-118.52 132.21c-137.02,153.89 -316.12,427.01 -316.12,631.62 0,28.13 0.68,108.33 22.03,123.98 0,-73.85 71.35,-197.82 112.54,-253.9 40.73,-55.44 99.43,-122.25 154.7,-164.87 8.92,-6.88 15.16,-15.98 27.57,-19.29 5.3,19.86 11.02,24.82 11.02,49.59 0,72.14 -33.26,148.74 -59.81,210.2 -8,18.52 -23.91,43.46 -28.36,62.56 16.67,-4.46 68.28,-48.93 80.61,-59.91l74.36 -68.9c6.47,-6.45 11.84,-11.26 17.95,-17.87 86.73,-93.77 163.28,-196.44 234.29,-302.95 29.04,-43.57 80.15,-132.29 124.53,-162 -19.99,85.74 -51.18,169.29 -83.45,249.93l-65.31 144.07c-9.44,19.02 -40.28,66.2 -44.11,82.63 31.56,-2.63 81.32,-36.11 108.59,-53.97 12.34,-8.06 20.83,-14.7 32.47,-22.63l168.17 -134.87c30.41,-27.03 169.75,-153.07 183.93,-174.25l-0.23 8.04c-14.79,29.58 -147.4,441.13 -148.54,454.81 6.24,-2.98 10.53,-3.61 17.45,-7.34l49.23 -30.67c54.28,-36.09 112.75,-85.74 161.34,-130.7l27.39 -24.95c5.34,-4.46 8.95,-8.68 13.9,-13.65l81.29 -78.5c10.13,-10.03 14.81,-17.75 24.76,-27.6l76.47 -86.07c-15.96,68.55 -61.69,171.31 -96.42,236.94 30.4,0 55.06,-24.38 76.51,-41.95 18.61,-15.26 176.74,-156.16 187.97,-172.94zm-967.03 300.3c-0.27,0.27 0.82,0.43 0.83,0.81l-0.83 -0.81zm1272.85 -388.47l0.83 0.82c-0.06,-0.06 -1.11,-0.55 -0.83,-0.82zm-1162.64 -1148.87l0.82 0.82c-0.06,-0.05 -1.09,-0.54 -0.82,-0.82zm-99.19 -68.88l0.83 0.82c-0.05,-0.04 -1.1,-0.55 -0.83,-0.82zm-159.79 -118.46c11.34,16.93 152.15,111.79 157.04,118.46l-77.14 -16.52c5.05,18.93 84.04,83.01 109.07,100.31 63.2,43.67 138.87,81.89 212.2,107.37l24.13 8.95c0.37,0.21 1.18,0.63 1.74,1.01 -24.8,0 -47.66,-2.85 -70.49,-6.65 -24.79,-4.12 -43.26,-10.43 -64.51,-15.39 13.61,20.34 79.67,70.37 126.75,165.28 8.54,17.23 25.67,49.26 27.54,71.66 -35.06,-40.33 -80.34,-108.76 -124.64,-156.38 -36.38,-39.1 -118.33,-128.19 -155.72,-161.12 -7.8,-6.87 -11.48,-8.56 -19.27,-16.55 -42.87,-43.86 -144.15,-119.15 -197.46,-157.95l-80.95 -51.28c-2.73,-1.96 -4.3,-3.46 -6.04,-4.97 72.98,-17.02 212.64,-5.52 282.76,17.53 19.03,6.25 32.54,9.84 49.84,19.04 0.46,0.24 1.39,0.79 1.76,0.99 0.38,0.21 1.2,0.62 1.76,1 -13.87,-1.15 -29.22,-7.02 -45.24,-9.86 -44.37,-7.88 -106.59,-14.93 -153.13,-14.93zm-294.8 -44.08l-184.58 -16.55c-55.45,0.22 -152.37,1.46 -199.13,-4.74 -10.62,-1.41 -20.13,-0.81 -30.74,-2.32 -10.22,-1.44 -21.81,-2.48 -29.63,-3.43l-60.1 -8.79c17.02,-25.4 95.05,-63.61 131.78,-57.61 53.79,8.78 110.06,24.87 172.99,15.24 35.02,-5.37 21.53,-12.81 83.7,-12.72 16.55,0.01 33.14,0.12 49.69,0.09 18.01,-0.03 26.54,-2.97 46.72,-2.87l148.9 0.13c16.75,-0.2 26.71,-2.95 46.72,-2.87 38.66,0.13 57.66,-3.22 90.34,6.11 123.75,35.31 163.41,8.38 324.52,69.45 24.29,9.19 45.79,19.76 68.21,30.97 52.26,26.14 93.97,53.27 158.88,53.27 26.72,0 40.11,-6.25 60.61,-11.02 0,0.02 29.12,43.57 -12.05,59.57 -52.5,20.41 -133.72,4.24 -183.99,-4.06 -112.32,-18.51 -189.55,-99.35 -258.73,-121.45 -17.45,-5.57 -39.18,-1.78 -60.44,-2.92 -29.1,-1.57 -89.6,-7.36 -113.56,-13.18 -18.9,-4.57 -30.42,-10.76 -46.93,-16.55 -9.28,-3.25 -11.21,-1.48 -21.6,1.75l-127.02 32.93c-14.21,3.52 -40.02,11.57 -54.56,11.57zm-600.6 -55.11c0.31,-14.24 10.38,-34.9 17.23,-43.37 8.87,-10.97 24.86,-20.11 38.21,-25.16 58.88,-22.33 162.81,-24.25 219.07,-4.85 24.97,8.61 68.15,29.3 97.42,29.3l-20.19 3.36c-118.68,-6.39 -214.07,-44.08 -318.56,18.8 -11.52,6.95 -21.47,15.72 -33.18,21.92zm1496 -115.72c-77.65,0 -146.02,-63.76 -146.02,-129.48 0,-43.2 6.31,-69.59 43.26,-97.24 13.63,-10.19 20.14,-17.89 43.24,-14.2 35.43,5.65 110.73,1.79 165.95,16.03 10.43,2.7 12.22,6.04 17.3,13.01 5.25,7.24 7.3,10.59 11.38,18.92 16.46,33.62 13.37,77.7 -2.79,110.39 -7.46,15.09 -18.54,30.85 -30.39,41.23 -12.77,11.2 -25.62,21.01 -43.2,28.43 -13.2,5.57 -41.6,12.91 -58.73,12.91zm-1322.44 -223.16c0,39.49 95.61,67.23 130.54,78.86 32.26,10.76 144.98,40.63 144.98,67.16 0,13.41 -25.83,15.42 -41.33,38.58 10.37,19.59 31.05,18.25 64.92,23.22 54.38,8 133.67,13.05 181.19,39.23 12.84,7.07 17.33,10.57 23.88,22.96 -17.02,0 -37.12,-3.84 -54.24,-6.36 -46.46,-6.87 -81.55,-6.11 -128.79,2.41 -11.77,2.11 -21.67,4.16 -31.9,6.67 -5.52,1.35 -29.54,8.3 -33.02,8.3 -39.51,0 -90.85,-17.89 -122.94,-28.6 -62.46,-20.82 -75.49,-32.02 -144.31,-32.02 -61.18,0 -160.17,26.25 -188.3,78.95 -16.86,31.59 -12.83,62.89 -16.13,83.05 -2.41,14.71 -21.86,33.62 -28.62,70.56 -1.9,10.42 -2.88,19.5 -3.86,29.19 -0.71,7.01 -0.9,10.53 -1.79,14.75 -2.9,13.79 2.36,6.31 -6.5,12.79 -8.65,-37.14 -13.73,-59.01 -18.56,-97.15 -4.71,-37.16 -3.22,-70.51 1.85,-106.91 5.27,-37.76 18.78,-88.48 35.05,-121.99 4.81,-9.91 7.64,-17.26 11.97,-26.61 18.7,-40.33 64.5,-105.22 93.25,-140.92 6.31,-7.82 11.99,-11.54 18.54,-20.03 13.49,-17.46 42.19,-40.27 59.73,-55.99l68.72 -49.75c28.29,-18.99 92.33,-54.24 126.22,-69.39 9.79,-4.38 19.99,-10.28 25.97,-9.03 4.17,0.89 40.12,21.35 40.12,39.3 0,27.67 -79.51,60.43 -103.78,72.55 -19.59,9.81 -102.86,47.55 -102.86,76.22zm845.82 -162.54l-3.12 2.38c-17.31,11.39 -33.56,14.69 -66.89,37.82 -15.79,10.95 -51.94,38.31 -56.72,56.23 -15.49,-4.14 -44.45,-33.81 -57.87,-44.08 -26.27,-20.12 -78.59,-79.32 -95.52,-111.1 -10.76,-20.17 -25.69,-50 -25.69,-79 0,-13.53 36.76,-64.4 46.4,-77.58 16.96,-23.21 29.94,-34.53 39,-46.4 18.19,-23.88 65.85,-53.73 68.87,-57.87l-3.31 10.46c-10.42,15.57 -32.5,59.58 -32.5,74.95 0,10.38 1.81,5.22 2.75,16.53 39.49,-20.89 69.81,-40.41 115.72,-63.36l121.23 -60.62c6.85,4.89 1.41,1.96 -10.26,11.8l-55.86 62.59c-31.64,40.5 -75.83,100.48 -77.15,159.79 28.32,-18.95 20.1,-26.08 78.14,-45.82 24.36,-8.28 71.66,-23.59 98.19,-25.8l-39.74 18.12c-74.48,30.86 -159.61,99 -181.27,182.4 -3.09,11.86 -7.33,37.8 -7.67,52.95 7.26,-1.94 30.51,-25.08 65.19,-42.26 13.69,-6.78 23.38,-11.02 37.69,-17.42 14.85,-6.63 25.94,-9.11 40.39,-14.71zm2.75 -2.76c2.93,-2.93 10.45,4.37 3.07,1.44 -0.06,-0.03 -7.69,3.17 -3.07,-1.44zm-666.72 -33.06c10.06,-0.83 23.7,-8.63 34.21,-12.62 75.51,-28.62 150.23,-51.09 229.1,-68.44 15.11,-3.34 25.17,-7.1 42.5,-7.1 5.04,21.67 56.2,100.96 68.3,119.05l41.19 52.47c9.36,9.19 12.94,15.69 22.01,24.83 9.18,9.25 15.68,13.25 24.85,21.99 49.85,47.52 91.01,50.98 134.08,75.29 36.96,20.87 40.73,6.22 109.08,59 29.55,22.81 65.21,67.57 87.03,100.31 48.11,72.16 21.67,60.86 41.04,99.47l30.05 41.57c44.23,59.57 129.39,90.97 197.77,108.05 19.89,4.97 31.04,1.95 38.06,11.54 -25.76,2.14 -15.65,5.5 -60.6,5.5 -43.95,0 -110.35,-31.74 -142.36,-47.76 -70.68,-35.33 -170.54,-70.11 -251.98,-84.12 -12.48,-2.15 -33.01,-1.68 -41.62,-7.98 -14.41,-10.57 -13.63,-19.55 -52.86,-43.57 -14.75,-9.03 -48.34,-27.09 -67.73,-28.71 12.35,18.42 51.18,32.83 57.87,57.86 -37.43,-17.96 -120.36,-33.07 -176.33,-33.07 -7.75,0 -5.09,1.2 -8.27,5.52 13.75,0.31 51.69,11.73 64.01,18.66 3.55,2 2.76,1.54 4.87,3.38l-44.07 2.75c-18.32,0 -23.86,-2.75 -41.33,-2.75 -7.47,-15.56 -3.47,-14.5 -17.12,-26.97 -34.49,-31.51 -125.81,-41.19 -172.5,-47.91 -27.23,-3.91 -49.72,-7.42 -74.87,-13.28 11.05,-16.51 95.18,-44.23 -17.55,-84.38 -43.69,-15.56 -216.64,-63.4 -216.64,-94.7 0,-22.88 41.81,-43.66 59.02,-53.94 69.65,-41.59 202.42,-76.32 118.15,-137 -7.98,-5.75 -12.4,-6.16 -17.36,-12.94zm482.12 416.02l-0.81 0.82c0.05,-0.06 1.1,-0.55 0.81,-0.82z"/>
 </g>
</svg>
