<?xml version="1.0" encoding="UTF-8"?>
<!DOCTYPE svg PUBLIC "-//W3C//DTD SVG 1.0//EN" "http://www.w3.org/TR/2001/REC-SVG-20010904/DTD/svg10.dtd">
<!-- Creator: CorelDRAW -->
<svg xmlns="http://www.w3.org/2000/svg" xml:space="preserve" width="84mm" height="53mm" version="1.0" style="shape-rendering:geometricPrecision; text-rendering:geometricPrecision; image-rendering:optimizeQuality; fill-rule:evenodd; clip-rule:evenodd"
viewBox="0 0 8400 5300"
 xmlns:xlink="http://www.w3.org/1999/xlink"
 xmlns:xodm="http://www.corel.com/coreldraw/odm/2003">
 <defs>
  <style type="text/css">
   <![CDATA[
    .fil0 {fill:black}
   ]]>
  </style>
 </defs>
 <g id="Слой_x0020_1">
  <metadata id="CorelCorpID_0Corel-Layer"/>
  <path class="fil0" d="M5904.19 3072.56c-36.75,135.16 -359.71,120.03 -336.39,-44.79 16.99,-120.11 384.72,-132.85 336.39,44.79zm406.66 -1219.95c127.06,195.61 1.54,56.4 194.01,159.59l15.43 -55.49c-180.63,-60.35 -123.43,-105.54 -209.44,-104.1zm-270.31 528.56c61.87,52.9 184.39,33.97 248.96,-60.79 -140.74,-32.8 -147.97,-16.61 -248.96,60.79zm-838.14 -56.67c45.59,95.49 163.84,86.77 243.78,65.28 -18.72,-45.18 -147,-126.81 -243.78,-65.28zm577.78 1856.08c110.22,-11 285.72,-174.42 318.92,-310.17 -210.44,20.53 -50.79,50.22 -245.34,243.56l-73.58 66.61zm-283.1 -288.37l-115.26 -21.18c7.31,111.41 188.77,284.95 303.25,305.58l-35.37 -37.98c-81.71,-78.43 -124.34,-131.77 -152.62,-246.42zm504.69 -584.24c-49.54,9.48 -72.33,43.8 -124.84,50.27 -63.8,7.89 -91.23,-27.3 -145.09,-23.81 -38.26,2.48 -82.75,32.62 -132.68,24.59 -37.26,-5.97 -79.84,-38.64 -120.1,-54.54 1.15,88.57 1.08,124.92 77.41,156.45 142.91,59.03 226.6,61.45 367.84,-2.72 66.89,-30.39 76.44,-65.39 77.46,-150.24zm-259.51 436.59c-30.84,-0.57 -39.85,23.57 -91.31,24.76 -47.4,1.08 -57.23,-16.47 -95.5,-29.17 3.8,148.45 52.64,308.1 188.18,373.6 213.69,-214.95 134.82,-137.69 181.1,-372.97 -36.33,9.34 -51.46,27.16 -92.69,28.24 -62.5,1.63 -53,-23.79 -89.78,-24.46zm454.47 -300.18l-66.37 130.64c-24.62,48.05 -49.86,89.3 -65.91,137.1 179.73,-60.17 415.72,-298.32 488.57,-474.86 36.22,-87.75 70.1,-120.55 133.2,-171 -40.06,37.67 -72.53,107.51 -86.13,176.91 -23.24,118.54 -57.17,115.42 -87.81,190.57 55.46,-44.41 89.92,-102.57 116.07,-200.33 26.39,-98.61 75.14,-130.2 121.87,-195.22 118.35,-164.7 2.84,-354.69 -20.46,-520.02 72.49,99.38 59.35,154.5 104.14,194.47 -10.61,-83.98 -64.95,-182.81 -66.27,-221.7l83.83 28.96c-34.7,-162.16 -95.29,-316.24 -257.42,-389.54l-47.41 -34.86 -115.32 -74.59c-18.88,-7.33 -54.42,-15.75 -68.11,-23.2 -44.48,-24.21 -35.44,-44.92 -105.46,-143.9 -71.67,-101.32 -133.94,-67.3 11.91,-292.88 38.33,-59.29 78.17,-129.06 140.72,-147.69 35.64,33.04 55.78,92.06 70.83,157.63 -79.63,-31.68 -7.68,-45.12 -91.31,-48.55l-40.04 76.77c2.57,1.75 6.95,2.68 8.76,3.14l15.76 4.05c22.13,2.33 17.41,-5.48 20.19,-7.19 18.32,50.19 -3.25,67.14 0.85,141.88 31.49,16 53.94,38.18 84.43,51.04 -17.16,36.4 -25.37,10.29 -32.64,41.84 50.95,22.18 85.58,68.66 138.63,81.83 28.1,-145.47 46.95,-193.44 -6.02,-348.55 -15.93,-46.63 -92.3,-258.06 -124.1,-301.25 -62.3,26.44 -184.1,130.16 -236.72,175.91 -98.85,85.94 -115.21,119.6 -182.65,227.21 -56.24,-8.4 -123.33,-48.86 -168.58,-25.21 115.46,66.04 276.17,182.66 310.91,302.11 -37.14,-22.17 -0.22,3.08 -25.43,-19.26 -30.08,-26.68 -22.66,-32.35 -55.57,-43.04 28.18,38.7 97.72,130.23 74.68,185 -24.67,-24.35 -17.42,-25.29 -33.82,-63.1 -16.21,-37.4 -18.88,-39.33 -47.87,-55.32 17.24,57.31 29.7,51.58 35.24,124.86 -54.01,-21.76 -2.88,-14.08 -40.61,-41.18 -9.04,68.57 7.12,38.29 -39.86,72.95 -76.55,56.46 -15.05,43.09 -60.83,55.24 -17.24,-54.5 -14.39,-54.64 -0.19,-103.97 -43.16,7.36 -76.55,90.19 -81.48,132.86 -7.89,68.23 17.25,129.06 47.07,174.66 51.86,-17.93 136.94,-93.38 201.11,-119.81 89.87,-37.02 150.15,38.26 214.72,86.41 -46.1,101.02 -98.74,136.37 -250.22,133.77 -188.77,-3.24 -178.71,16.9 -171.67,212.51 -60.63,-32.95 -173.42,-234.25 -206.06,-317.55 -37.06,85.95 -123.58,263.14 -200.17,313.75 -13.62,-170.24 36.81,-212.77 -158.61,-209.32 -68.31,1.2 -127.39,13.06 -175.21,-22.68 -38.12,-28.5 -72.5,-68.66 -88.96,-106.85 194.85,-209.25 270.03,-26.49 411.36,27.14 97.52,-134.55 34.43,-281.3 -28.58,-298.76l-0.05 104.7 -49.86 -49.72c-31.64,-29.27 -26.77,-9.3 -45.58,-45.92 -12.18,-23.73 -0.87,-23.22 -18.21,-47.79 -2.78,49.22 -8.6,32.77 -33.9,47.71 9.12,-63.64 18.24,-87.37 44.42,-127.31 -46.73,8.58 -61.99,85.58 -83.6,124.23 -5.52,-9.22 -17.18,-12.82 -6.22,-54.7l73.77 -132.81c-24.42,15.28 -86.77,74.86 -95.31,107.52 9.19,-137.21 218.29,-281.22 324.46,-345.69 -20.65,-10.53 -37.42,-10.27 -77.85,1.15 -32.1,9.07 -50.62,18.27 -82.83,24.69 -105.03,-139.01 -122.45,-189.85 -297.37,-317.78 -22.11,-16.19 -34.63,-23.94 -59,-43.53 -34.43,-27.68 -33.1,-35.95 -74.35,-38.84 -43.26,81.86 -82.2,196.99 -113.03,284.52 -48.1,136.62 -49.77,199.41 -14.39,346.95 76.54,-1.31 129.29,-88.79 179.34,-90.34 -48.17,-2.33 -21.08,14.46 -65.64,-6.11 26.14,-38.64 51.6,-42 90.9,-70.56l-17.2 -118.51c86.97,14.69 16.52,14.3 64.71,31.05 8.38,-22.97 -54.64,-141.15 -79.35,-151.05 -10.27,38.75 -29.97,65.96 -56.66,84.81 -26.97,-43.37 43.59,-151.32 68,-171.74 71.01,33.51 4.7,17.08 66.9,64.94 37.41,28.8 35.3,46.22 58.7,79.08 147.95,207.71 91.03,203.53 57.28,251.35l-75.45 104.57c-79.82,138.43 -51.86,68.26 -182.35,139.09l-66.43 41.62c-11.49,8.61 -23.03,17.17 -32.94,29.63 -150.32,70.8 -258.98,239.56 -268.98,398.22l82.77 -23.27c-20.55,83.74 -68.17,140.65 -70.21,240.47 28.36,-44.44 81.89,-175.19 107.82,-226.18 -11.76,133.35 -118.34,297.63 -48.89,481.78 46.44,123.08 102.22,67.89 158.43,284.26 12.97,49.94 20.54,71.16 58.97,97.33 -10.19,-35.66 -19.86,-46.78 -28.45,-74.35 -8.6,-27.6 -11.38,-53.71 -17.58,-79.25 -18.86,-77.58 -35.29,-74.88 -61.46,-133.78 101.41,67.03 94.79,178.49 247.15,354.47 47.37,54.72 91.2,98.17 147.01,147.44 27.45,24.27 146.79,102.91 201.47,117.66 -8.21,-31.54 -104.14,-235.97 -121.09,-257.81 -7.57,-69.04 -59.91,-389.28 -78.37,-430.32 -68.06,-151.34 -188.4,-254.03 -214.61,-310.45 126.87,-2.49 209.45,150.17 270.06,198.44l-40.87 -85.02c52.89,27.81 47.33,43.49 92.49,62.03 18.45,-22.48 86.53,-100.62 107.92,-112.44 -13.17,110.98 -123.86,158.38 -112.97,341.19 11.53,-20.48 11.3,-55.4 40.48,-87.07 2.19,60.69 2.85,186.36 45.89,214.77l-22.28 -122.23 37.63 38.74c150.34,207.86 286.71,103.34 340.36,109.55 40.66,4.7 49.08,28.27 113.73,22.63 43.89,-3.84 81.09,-22.32 106.95,-39.4 73.07,-48.24 82.79,-74.4 127.68,-148.87l15.54 75.65c1.99,-6.59 9.64,-48.89 10.38,-56.46 4.91,-50.2 -4.43,-90.01 -3.69,-132.29l48.25 133.53c8.97,-180.04 -97.61,-236 -111.23,-343.99 59.65,32.81 67.63,77.67 113.43,104.54 49.27,-37.57 34.46,-51.39 90.36,-70.33 -15.54,36.23 -34.59,50.27 -42.86,92.08 44.31,-41.73 57.32,-78.62 111.96,-122.04 40.11,-31.88 91.85,-77.89 164.48,-75.51 -78.86,94.82 -153.39,171.72 -215.9,295.9 -37.23,73.93 -35.96,125.41 -46.19,210.75 -7.74,64.52 -39.79,193.08 -37.47,234.59zm38.88 -2226.21c26.76,-31.4 31.78,-64.41 41.11,-106.38 11.91,-53.51 8.13,-66.04 42.97,-101.62 112.27,12.93 259.13,327.42 288.34,412.16 112.21,325.45 22.49,439.56 146.86,568.98 113.72,118.37 205.75,254.37 280.8,434.48 71.6,171.81 -21.26,153.38 32.18,270.98 32.6,71.72 45.4,157.07 35.32,239.14 -1.37,11.13 -4.74,30.18 -7.91,38.85 -12.86,35.04 -6.45,18.51 -19.61,35.36 -9.97,-40.89 -16.93,-64.19 -32.59,-104.94l-31.31 -71.81c-17.92,-27.28 -4.19,-10.38 -22.44,-25.31 14.57,88.45 41.58,178.12 22.5,275.54 -55.41,-19.85 -62.17,-70.03 -113.46,-92.6 17.68,79.82 58.72,154.36 20.47,238.71 -32.72,-16.76 -43.83,-66 -117.2,-97.12 23.85,140.01 71.67,183.87 28.12,349.02 -27.55,104.47 -268.33,332.26 -357.13,412.15 -48.84,43.93 -171.99,142.69 -232.79,163.45 41.93,-48.05 153.33,-140.71 169.29,-224.54l-110.88 121.12c20.05,-53.49 67.19,-87.06 79.46,-160.04 -24.73,14.26 -106.71,111.21 -136.36,141.47 -99.5,101.61 -428.85,347.39 -498.75,344.54 -65.52,-2.68 -292.57,-174.79 -348.35,-214.14 -63.03,-44.45 -104.28,-77.52 -151.51,-131.05l-140.77 -152.21c21.01,91.83 61.79,109.8 88.55,175.3 -40.17,-21.04 -101.05,-97.79 -125.43,-131.96 18.94,97.34 139.69,181.8 161.18,216.69 -113.63,-20.58 -332.15,-258.33 -420.03,-351.93 -44.14,-47 -137.49,-146.47 -153.84,-230.36 -18.24,-93.61 -8.19,-267.46 40.6,-323.85 -62.46,-2.49 -80.88,58.83 -118.81,95.05 -57.7,-79.01 2.22,-157.43 12.98,-240.12 -31.1,17.27 -27.77,19.88 -56.36,49.88 -22.42,23.53 -27.53,34.06 -56.9,41.41 -16.51,-124.49 17.28,-171.69 20.06,-271.26 -46.57,47.64 -62.43,148.7 -91.56,214.37 -97.54,-173.3 72.65,-347.53 23.82,-415.85l-25.39 -24.54c136.01,-531.94 374.06,-519.09 402.85,-770.57 21.46,-187.47 27.66,-311.62 103.16,-472 45.68,-97.05 102.04,-199.66 170.69,-271.73 58.3,-61.19 42.97,-54.89 93.9,-68.03 25.42,68.14 40.74,156.93 62.07,214.13 17.25,-42.41 -14.46,-58.95 9.41,-106.29 40.4,77.59 26.77,100.87 56.68,180.5l23.04 -56.52c23.45,57.8 49.55,134.6 69.48,197.95l14.47 -45.92c0.87,-2.6 2.43,-6.74 3.15,-8.86 0.71,-2.12 1.51,-6.19 3.21,-8.82 85.86,53.82 153.99,134.01 328.69,134.05 173.14,0.04 237.15,-64.82 328.7,-131.95 3.08,6.56 3.79,2.94 4.94,20.44 0.32,4.86 -1.12,30.84 -1.33,37.98 42,-25.34 50.89,-111.84 65.57,-161.1 36.89,10.39 1.15,-6.26 24.33,21.54 40.54,48.61 -20.03,7.14 10.18,16.93 15.02,-63.45 25.89,-151.72 66.32,-201.5 13.71,25.73 -2.78,75.14 -4.74,112.75zm-103.48 2904.17c62.28,11.01 87.8,31.08 150.2,0.09 81.35,-40.41 217.94,-153.85 280.02,-206.43 211.46,-179.13 605.19,-705.58 614.88,-1001.65 5.92,-180.5 -36,-197.05 -48.24,-265.29 -8.6,-47.96 24.32,-61.06 11.83,-137.03 -15.35,-93.51 -103.02,-261.67 -149.71,-337.19 -163.7,-264.75 -223.53,-201.26 -240.07,-405.73 -23.77,-293.76 -167.33,-734.66 -431.35,-863.29 -100.06,77.95 -175.23,212.39 -236.08,321.38 -58.97,105.6 -173.18,209.01 -341.99,202.95 -355.94,-12.81 -387.71,-375 -566.7,-532.19 -47.88,12.2 -159.97,122.75 -192.89,168.68 -115.6,161.17 -185.65,307.1 -224.28,501.05 -17.56,88.13 -14.25,230.32 -42.59,308.17 -19.83,54.43 -118.15,155.7 -156.54,206.82 -57.12,76.06 -89.1,122.6 -139.38,222.76 -168.33,335.34 -41.54,299.69 -81.72,417.55 -17.97,52.7 -32.21,70.76 -31.81,134.22l0.07 11.34c1.41,231.32 148.6,454.79 265.04,638.31 98.72,155.59 539.45,668.73 721.3,622.26 76.07,-19.43 77.92,13.23 142.31,55.25 245.41,160.15 264.73,224.43 437.83,118.32 64.17,-39.33 223.44,-138.15 259.87,-180.35zm176.24 -1611.45l-18.39 33.95c-0.91,1.71 -2.63,5.53 -4.29,8.09 -37.01,-1.1 -121.36,-12.22 -162.14,-31.73 51.11,-42.78 129.48,-3.67 196.06,-72.43l19.95 -23.98c2.19,-3.16 12.49,-21.86 15.61,-27.68 58.96,8.42 106.24,19.33 126.8,63.4 -58.85,36.9 -92.18,55.73 -173.6,50.38zm-1310.98 -61.72c168.85,-127.6 119.22,25.53 239.9,51.94l122.63 2.45c-48.62,73.4 -67.67,33.25 -124.6,43.06 -30.27,5.21 -27.7,6.41 -64.74,5.69l17.69 -39.72c-51.79,-2.5 -152.81,-0.35 -190.88,-63.42z"/>
 </g>
</svg>
