<?xml version="1.0" encoding="UTF-8"?>
<!DOCTYPE svg PUBLIC "-//W3C//DTD SVG 1.1//EN" "http://www.w3.org/Graphics/SVG/1.1/DTD/svg11.dtd">
<!-- Creator: CorelDRAW -->
<svg xmlns="http://www.w3.org/2000/svg" xml:space="preserve" width="84mm" height="53mm" version="1.1" style="shape-rendering:geometricPrecision; text-rendering:geometricPrecision; image-rendering:optimizeQuality; fill-rule:evenodd; clip-rule:evenodd"
viewBox="0 0 8400 5300"
 xmlns:xlink="http://www.w3.org/1999/xlink"
 xmlns:xodm="http://www.corel.com/coreldraw/odm/2003">
 <defs>
  <style type="text/css">
   <![CDATA[
    .fil0 {fill:black}
   ]]>
  </style>
 </defs>
 <g id="Слой_x0020_1">
  <metadata id="CorelCorpID_0Corel-Layer"/>
  <path class="fil0" d="M4942.83 3380.33c3.15,-31.43 4.54,-31.59 37.42,-34.91l-4.54 39.91c11.88,-4.89 5.98,-8.27 20.3,-14.58 8.45,33.04 -33.38,34.2 -38.39,27.46 -1.87,30.38 0.77,19.72 -15.85,37.44 -21.8,2.96 -23.7,1.57 -38.47,-7.74 -7.45,-28.85 -3.04,-35.56 17.75,-48.08 -12.64,-16.69 -18.83,-9.57 -9.94,-28.02 12.78,1.09 25.47,20.47 31.72,28.52zm1383.93 -1325.64c-22.13,-21.33 -37.64,-34.61 -58.69,-59.24 -18.4,-21.51 -34.77,-45.66 -52.09,-70.01 -86.1,-120.99 -112.77,-197.49 -255.45,-232.89 -32.89,-8.17 -64.34,-15.46 -89.76,-32.81 -8.26,-5.63 -53.91,-58.01 -77.18,-37.7 -18.33,16 18.4,72.91 26.39,84.96 59.07,89.11 79.8,23.37 247.99,118.6 24.77,14.01 52.42,36.11 69.31,52.61 29.27,28.58 105.92,158.13 189.48,176.48zm-690.48 472.85c82.33,-27.52 175.77,-74.27 245.2,-114.75 66.42,-38.74 129.22,-83.47 178.83,-139.33 7.5,-8.44 12.65,-16.51 20.88,-24.72 67.47,123.61 -53.78,277.23 -129.47,356.34 -15.05,15.73 -27.35,26.48 -44.44,40.66 -15.52,12.89 -29.66,28.14 -45.87,41.39 65.57,-13.62 239.11,-134.82 301.74,-185.18 96.3,-77.43 115.99,-152.81 142.47,-183.06 31.32,-35.79 73.05,-38.61 117.69,-8.52 61.77,41.63 104.2,104.75 142.94,185.01 1.2,-82.16 -53.09,-202.06 -139.01,-248.43 -46.94,-25.32 -101.37,-35.7 -152.53,-10.8 -26.14,12.73 -38.66,23.11 -53.32,42.9 -24.96,33.63 -23.18,38.8 -38.25,61.25 -1.61,-63.97 5.13,-118.18 -4.05,-185.66 -6.61,-48.54 -26.31,-121.98 -61.25,-130.93 -4.76,49.29 -21.94,94.99 -42.87,131.1 -17.89,30.83 -58.07,76.67 -90.11,91.6 16.86,-53.86 29.37,-75.64 17.14,-140.23 -19.38,-102.45 -98.72,-198.88 -174.63,-265.91 -11.8,-10.42 -9.18,-13.47 -23.64,-19.33 25.38,69.45 49.02,85.49 58.37,191 6.74,75.91 -5.18,150.32 -27.76,216.66 -27.52,80.93 -66.74,138.4 -111.3,199.66 -19.07,26.23 -80.16,88.43 -86.76,99.28zm1272.04 -77.65c52.69,-4.26 22.24,-35.2 -15.5,-94.94 -42.76,-67.71 -38.23,-51.92 -70.52,-94.68 31.47,10.36 84.46,60.06 103.11,84.33 86.13,112.09 34.15,102.41 153.96,153.38 111.99,47.64 147.54,71.12 234.25,139.4 14.05,11.08 59.61,41.29 65.45,57.87 -9.69,16.28 -15.74,11.32 -32.65,20.23 -11.36,5.96 -20.11,13.92 -31.51,20.52 -23.42,13.55 -44.64,20.18 -74.41,25.61 -122.99,22.4 -214.08,9.47 -310.25,-70.21 -22.97,-19.02 -79.27,-69.82 -81.74,-118.46 17.5,0.55 17.51,6.3 24.4,16.55 17.62,26.22 54.71,39.07 84.72,33.06 25.72,-5.16 21.37,-29.6 53.13,-26.4 12.71,1.28 20.5,6.67 25.76,14.74 0.87,1.36 4.66,9.85 6.13,12.4 26.77,45.97 53.04,-20.11 81.98,-12.35 19.18,5.14 12.54,15.74 26.38,26.6 14.21,11.15 22.1,2.19 19.6,28.93 -24.31,8.74 -68,3.79 -64.37,33.82 25.39,14.8 65.97,0.04 90.3,-8.63 25.97,-9.24 55.42,-16.17 53.79,-50.26 -18.65,-13.63 -52.99,-19.64 -78.47,-36.38 -119.02,-78.16 -158.6,-45.16 -246.56,-93.84 -78.72,-43.56 -133.31,-95.9 -164.67,-179.22 -15.11,-40.1 -25.8,-45.46 -41.84,-70.26 43.78,15.89 128.7,87.93 157.58,128.2 16.23,22.62 18.43,34.36 31.95,59.99zm-2297.89 -665.41c11.74,-57.85 27.91,-79.34 46.95,-122.07 10.05,9.48 16.3,36.54 26.89,59 9.37,19.86 20.57,35.61 28.22,51.3 -39.49,-2.02 -67.03,3.66 -102.06,11.77zm147.38 -0.63c-18.23,-7.32 -36.39,-53.81 -42.23,-78.54 -8.56,-36.24 -7.09,-75.07 -6.83,-112.83 0.25,-38.6 -5.97,-72.26 -6.11,-110.98 -1.42,-357.09 112.09,-276.23 175.9,-293.86 77.1,-21.33 169.83,-89.79 284.7,-26.37 53.11,29.31 81.61,66.67 109.07,127.59 43.34,96.13 45.12,193.62 10.8,296.07 -8.3,24.84 -29.88,65.29 -33.5,84.14 19.24,-8.16 47.05,-39.69 60.63,-57.02 59.15,-75.41 79.79,-177.35 76,-276.69 23.8,14.75 37.74,31.96 58.62,47.48 11.97,8.89 16.18,15.34 27.33,24.34 40.58,32.82 95.29,85.74 130.21,125.35l48.86 54.55c33.06,36.35 61.53,77.82 85.51,121.65 7.64,13.98 25.22,60.87 30.61,67.31 8.43,-22.51 -1.69,-71.5 -10.74,-94.14 -12.99,-32.49 -39.43,-39.2 2.41,-72.34 19.71,-15.63 53.62,-27.35 86.65,-24.67 33.39,2.7 47.63,22.85 75.12,36.16 51.41,24.88 109.7,31.14 162.44,59.6 47.05,25.36 90.04,62.28 129.48,92.59 52.61,40.41 103.77,84.07 150.64,130.53l83.79 82.72c35.05,36.38 66.54,84.36 90.57,131.43 28.24,55.35 37.68,104.72 54.77,166.6l-34.58 -31.54c-41.18,-41.27 -114.75,-96.56 -173.8,-106.24l72.97 66.69c32,32.56 64.78,73.7 93.3,110.18 30.51,39.02 53.92,76.54 77.57,122.24 29.69,57.41 58.36,128.07 71.56,198.65 25.76,137.61 21.74,96.4 65.03,207.67l-95.37 -92.37c-29.89,-29.29 -67.29,-56.56 -105.98,-75.28 -93.47,-45.22 -149.01,-96.76 -204.94,-154.64 8.13,23.63 32.44,60.76 45.27,81.04 37.44,59.18 85.51,79.54 117.61,141.64 31.3,60.54 43.93,143.79 24.98,210.26 -11.69,40.97 -25.12,52.14 -44.42,81.42 -46.59,70.7 -42.52,112.32 -53.44,201.49 -13.63,-25.69 -23.99,-56.69 -36.82,-83.52 -24.49,-51.2 -55.64,-108.59 -94.83,-149.64 -10.16,-10.63 -19.46,-17.69 -30.44,-28.76 -65.82,-66.37 -168.8,-256.17 -237.23,-303.65l77.88 126.2c74.41,132.95 121.31,294.84 102.01,449.84 -1.57,12.64 -3.09,29.76 -9.3,40.48 -3.48,-68.19 -20.93,-130.06 -43.53,-187.67 -12.5,-31.89 -57.8,-136.99 -74.38,-154.86 -4.46,71.69 -12.21,114.18 -40.39,171.38 -20.67,41.95 -45.36,73.9 -74.8,106.16l-15.82 12.87c5.8,-32.79 21.62,-74.58 29.93,-109.54 24.86,-104.75 66.18,-245.68 28.17,-348.74 -6.61,27.81 -7.55,57.74 -15.23,87.99 -12.91,50.71 -36.72,100.13 -66.44,140.54 -73.35,99.79 -185.3,172.47 -310.6,196.63 1.7,-12.09 30.12,-75.31 37.46,-96.08 27.21,-77.07 77.45,-269.88 46.67,-338.2 -22.72,84.01 -39.35,146.65 -74.81,221.41 -25.12,52.94 -75.85,138.16 -126.41,166.22 1.16,-45.38 7.91,-92.46 8.96,-140.2 2.28,-104.07 -15.08,-291.76 -74.21,-369.5 1.05,34.01 9.56,72.46 10.84,110.39 5.46,161.95 -44.42,331.7 -150.44,449.52 -36.31,40.35 -77.74,86.37 -128.33,110.49 10.71,-69.57 23.17,-148.96 -0.62,-214.36 -5.77,17.12 -5.95,38.74 -9.09,57.27 -14.56,85.59 -42.93,180.71 -86.2,255.31 -15.72,27.09 -42.34,60.3 -61.06,73.77 4.32,-28.56 18.08,-69.98 24.76,-102.88 7.45,-36.67 12.45,-77.46 16.04,-112.31 8.46,-82.29 8.68,-165.84 0.08,-248.45 -11.41,-109.7 -36.42,-210.03 -77.36,-310.58 -11.97,-29.42 -30.45,-60.87 -39.18,-88.36 20.3,10.46 32.21,32.19 48.26,49.37 6.43,6.85 14.24,17.91 21.33,26.89 31.27,39.63 69.85,92.7 77.22,149.44 2.52,-41.82 -15.94,-123.4 -29.04,-160.21 -27.03,-75.98 -40.59,-81.12 -63.37,-132.15l15.69 13.12c83.68,98.83 150.03,204.66 183.25,334.32 14.64,57.12 14.61,98.28 22.32,156 30.67,-156.73 -30.17,-360.38 -85.85,-484.35 -59.89,-133.31 -143.85,-238.84 -239.79,-341.23 -23.45,-25.03 -47.14,-52.36 -73.88,-74.19 -26.43,-21.59 -48.84,-44.18 -78.68,-65.71 -79.06,-57.11 -195.28,-51.79 -191.07,-97.95 2.69,-29.39 43.87,-77.35 57.8,-89.55 54.01,-47.25 124.02,-83.53 202.97,-84.61 23.49,-0.32 44.27,1.69 66.44,6.6 15.99,3.52 39.99,14.28 53.38,12.24 12.69,-37.13 -55.71,-44.1 -72.11,-61.41 78.01,-69.5 78,-122.32 92.79,-146.84 27.82,49.02 50.9,111.91 50.25,173.56 -0.2,20.52 -9.55,51.31 -1.2,65.69 4.95,8.53 25.28,28.03 34.47,39.61 21.89,27.51 38.93,58.17 59.35,88.54 20.82,30.99 8.08,27.78 14.16,59.97 41.35,-11.38 32.32,-316.18 25.97,-359.34 -13.93,-94.69 -138.25,-315.76 -254.04,-341.28 -42.62,-9.38 -135.22,18.13 -137.58,58.09 -2.46,41.65 55.8,309.14 5.22,354.33zm413.03 -692.77c-26.17,2.21 -65.45,-4.34 -83.51,-16.99 -91.86,-64.32 -85.12,9.08 -123.53,28.84 -12.27,6.31 -29.21,5.61 -31.56,-10.28 -3.11,-21.11 30.85,-74.7 58.61,-92.32 24.3,-15.44 51.4,-19.98 84.6,-14.14 58.77,10.33 102.41,61.88 95.39,104.89zm-287.21 13.18c-71.26,-47.54 -30.87,-142.62 91.58,-120.87 -27.19,22.08 -32.83,20.7 -53.42,51.53l-38.16 69.34zm-503.32 2472.62c62.42,-9.94 205.65,-63.91 266.87,-89.24 44.39,-18.34 79.47,-35.51 119.84,-57.81 48.23,-26.66 88.24,-67.15 109.72,-61.46 6.77,27.35 -35.17,110.97 -49.99,136.11 -47.9,81.18 -98.96,150.18 -171.31,205.9 -18.73,14.42 -34.61,26.66 -53.49,42.86 -15.53,13.32 -37.44,30.02 -49.68,42.69 -18.02,18.64 -32.18,29.93 -49.51,46.76 -90.52,87.87 -244.34,284.75 -270.44,392.6 9.95,-12.07 58.04,-91.1 90.09,-132.62 39.88,-51.67 109.89,-131.69 157.46,-175.56 19.38,-17.86 38.01,-32.69 60.06,-51.01 38.17,-31.69 80.85,-61.44 129.19,-89.04 123.38,-70.4 289.15,-74.19 543.49,-229.96 23.73,-14.53 47.13,-39.57 65.76,-24.99 1.15,18.44 -13.46,31.87 -24.22,44.31l-51.99 55.24c-6.44,6.18 -11.61,8.76 -18.56,14.85 -14.84,13.02 -25.01,20.52 -39.04,31.15 -102.16,77.49 -249.68,135.07 -358.51,203.85 -41.24,26.07 -143.98,94.44 -153.6,125.74 16.96,-15.53 46.56,-34.66 69.37,-50.63 242.19,-169.69 597.94,-219.2 885.71,-450.06l66.5 -55.69c15.86,-12.26 18.09,-17.56 32.11,-30.88l89.59 -91.64c9.97,-10.25 41.89,-64.81 58.04,-51.98 5.06,4 5.9,10.62 5.48,18.07 -3.26,59.05 -74.29,185.09 -105.97,220.71 -38.93,43.76 -140.04,140.12 -157.1,185.98 15.41,-4.92 116.49,-100.18 138.1,-119.59 42.84,-38.44 91.95,-77.06 142.73,-112.7 53.28,-37.38 86.72,-79.06 128.6,-126.6l57.27 -72.48c13.93,-17.29 35.59,-63 58.21,-65.57 28.73,23.9 29.71,142.75 24.85,186.65 -6.86,62.08 -21.24,117.02 -42.42,171.29 -21.03,53.87 -42.94,97.32 -71,143.7l-84.53 124.49c16.58,-16.42 35.05,-32.74 50.85,-51.01 7.96,-9.19 15.89,-19.84 24,-27.81 12.26,-12.04 12.94,-11.91 23.17,-25l46.94 -52.88c14.28,-18.36 30.09,-37.95 44.72,-55.22 54.97,-64.95 100.9,-136.89 147.35,-207.9 3.7,-5.67 7.43,-11.14 12.49,-12.86 46.7,-15.95 -21.62,164.92 -27.3,179.55 -42.24,108.42 -74.76,111.22 -121,152.46 -35.37,31.54 -164.89,162.88 -175.39,208.16 32.19,-14.95 73.08,-75.16 104.69,-100.86 224.68,-182.72 388.97,-167.19 564.37,-457.08 38.6,-63.79 69.35,-145.38 86.21,-220.9 7.62,-34.14 8.9,-118.88 50.25,-59.91 15.46,22.05 60.23,66.01 80.36,82.4 40.83,33.19 71.52,70.92 109.23,109.04 52.37,52.91 189.96,161.62 267.36,171.65 -11.31,-27.67 -84.91,-76.46 -109.78,-107.13 -63.44,-78.25 -138.25,-184 -133.43,-293.62 2.2,-49.7 16.74,-89.42 1.74,-144.5 -6.02,-22.05 -9.65,-18.84 0.3,-35.01 62.12,-7.21 84.4,10.31 147.07,-20.33 41.6,-20.34 76.7,-29.91 121.42,-44.98 51.22,-17.29 68.12,-26.01 103.08,-63.67 21.46,-23.13 32.2,-14.4 55.2,-29.79 20.87,-13.97 24.17,-33.77 1.08,-49.37 -20.23,-13.67 -107.57,-102.79 -127.45,-124.28 -41.7,-45.01 -88.78,-71.84 -142.51,-105.42 -72.07,-45.03 -86.75,-91.29 -179.34,-149.99 -65.33,-41.41 -147.19,-79.55 -210.67,-122.42 -41.17,-27.79 -48.69,-43.41 -76.19,-90.15 -20.87,-35.43 -43.19,-69.57 -66.58,-99.91 -42.43,-54.97 -88.21,-106.55 -139.44,-152.95l-67.34 -54.82c-175.86,-142.34 -402.01,-237.49 -622.59,-291.41 -86.22,-21.07 -55.9,-4.07 -110.22,-56.33 -90.21,-86.8 -280.15,-166.03 -300.79,-195.03l-76.47 -90.13c-66.01,-65.17 -27.54,-47.82 -61.58,-104.94 -57.2,-95.97 -159.94,-65.24 -237.04,-84.9 -94.89,-24.2 -157.55,45.59 -212,108.67 -38.96,45.13 -27.21,68.18 -29.39,134.68 -96.43,71.26 -71.07,274.88 -64.14,391.95 2.29,38.87 -16.25,7.53 -37.32,38.35 -10.56,15.47 -20.21,30.72 -29.39,48.26 -19.65,37.52 -30.4,74.84 -39.43,119.44 -6.44,31.75 -51.92,28.9 -79.82,75.95 -25.38,42.79 -65.59,196.05 -56.84,252.81 30.42,-38.83 25.91,-126.75 74.27,-144.55 -2.39,19.99 -13.07,44.05 -17.88,64.92 -23.58,102.34 14.75,125.68 62.6,171.52 54.11,51.87 103.86,108.29 156.2,169.4 102.68,119.82 210.22,274.23 210.98,438.57 0.47,101.58 -20.38,184.25 -56.24,267.69 -39.85,92.75 -99.24,168.68 -164.67,242.45 -72.72,81.99 -175.9,159.64 -272.33,216.04 -16.36,9.57 -36.19,17.21 -49.05,29.66z"/>
 </g>
</svg>
