<?xml version="1.0" encoding="utf-8"?>
<!-- Generator: Adobe Illustrator 26.0.3, SVG Export Plug-In . SVG Version: 6.00 Build 0)  -->
<svg version="1.0" id="Слой_1" xmlns="http://www.w3.org/2000/svg" xmlns:xlink="http://www.w3.org/1999/xlink" x="0px" y="0px"
	 viewBox="0 0 238.1 150.2" style="enable-background:new 0 0 238.1 150.2;" xml:space="preserve">
<g>
	<path d="M152.6,32.3c-0.1,0.1-0.4,0.4-0.5,0.5c1.9,2,2.9,4.6,4.5,6.7c1.2,2,2.9,3.6,4.9,5.1c0.2,0.2,0.7,0.4,1,0.5
		c0-1.1-0.5-2.1-0.7-3.1c0.9,1.5,1.5,3.2,2,4.9c0.2,0.9,0.9,1.7,1.1,2.5v0.1c0.1,0.1,0.1,0.5,0.1,0.7c-0.5,1.1-0.9,2.5-0.7,3.9
		c0.1,1-0.5,1.9-1.1,2.7c-0.1,0.1-0.4,0.4-0.5,0.4c-1.1,1.1-2.2,2.2-3.6,3.1c1.1-0.1,1.9-1,2.6-1.7c0.2-0.2,0.6-0.5,0.9-0.7
		l-0.1-0.1c0.6-0.4,1-0.9,1.5-1.4c1.4-0.4,2-1.6,2.2-2.7c0.5-0.9,0.1-2.1,0-3c-0.7-1.5-1.5-2.9-2-4.4c-0.7-2.2-2.1-4.4-2.5-6.7
		c-0.2,0.2-0.5,0.4-0.5,0.7c-0.2,1.4,0.6,2.7,1,4.1c-1.2-0.6-2.1-1.7-3.1-2.6C156.5,38.8,154.7,35.3,152.6,32.3z"/>
	<path d="M161.2,54.3c0.1,0.4,0.2,0.6,0.4,1c-1,0.9-2.1,1.5-3.4,2h0.1c0.4,0,0.6,0.1,1,0.1c1.1-0.6,2.2-1.1,3.2-1.9
		c0.4-0.2,0.2-0.6,0.4-1c0.1-1.5,0.5-2.9,0.6-4.5c-0.2-2.1-2.2-3.7-4.2-4.7c-0.1-0.1-0.4-0.4-0.5-0.4c0,0.1,0,0.1-0.1,0.2
		c0.9,0.6,1.6,1.2,2.4,1.9c0.4,0.6,1.1,1.4,0.6,2c-1.5,0.5-2.9-0.4-4.5-0.5v-0.1c-0.4-0.1-0.7-0.1-1-0.4c0.2,0.5,1,0.6,1.5,0.6
		c1.7,0.9,4,1.2,4.7,2.9c0,0.2-0.1,0.5-0.2,0.7c-0.6,0.4-1.5,0.7-2.1,0.9c-1.1,0.1-2.2-0.1-3.4,0.2c0-0.1-1,0-1-0.1
		c0,0.1,1,0.1,1,0.2C158,53.8,159.6,53.9,161.2,54.3z"/>
	<path d="M162.3,46.6c-1.4-2.1-4-3.6-5.5-5.6h-0.1c-0.6-0.9-1.4-1.7-2-2.7c-0.9-1.4-1.4-2.7-2.1-4.1c-0.1-0.1-0.1-0.2-0.2-0.4
		c-0.5-0.9-1.4-2.2-2.1-3c0.7,0.5,1.4,1,1.6,1.7c0-0.1,0.4-0.4,0.4-0.4c-1.9-2.4-9.9-7.1-12.6-8.6c-0.1,0.4,4.5,3.1,4.9,3.7
		c2.7,1.5,5.4,4,7.2,6.4c1.5,2.2,2.1,4.9,4,6.9c-0.1,0-0.2,0.1-0.2,0.1c-1-0.9-2.1-1.6-3.4-2.1c-0.4-0.6-1.1-0.9-1.7-1.1
		c-4.4-2.5-9.1-4.4-14.1-6c-0.6-0.2-1.5-0.1-1.5-0.9c0.2-0.2,0.4-0.5,0.5-0.7c0-0.6,0-1.1,0.1-1.7c0-0.7-0.2-1.4-0.5-2.1
		c-0.1-0.6-0.4-1.2-0.6-1.9c0.6,1.1,0.4,2.5,0.2,3.7c-0.2,0.2-0.5,0.6-0.7,0.7c-0.9-1.4-0.7-3-0.9-4.4c0-0.5-0.2-1-0.4-1.5l0.2-0.1
		c0.4,0.2,0.7,0.6,1.1,0.9c-0.4-0.6-0.9-1.1-1.5-1.6c-0.6,0-0.6-0.6-0.9-0.9c-0.9-1.6-2.2-3.1-4.2-4c-1.9-0.6-3.2-2-5.1-2.5
		c-0.1,0-0.5,0-0.7,0c-0.6,0-1.4,0.2-1.7-0.2c-0.1,0-0.2,0.1-0.2,0.1l-0.1-0.1c-0.7-0.4-1.6-0.6-2.5-0.9c-1.2-0.1-2.5,0.1-3.7,0.6
		c-0.7-0.2-1.5-0.4-2.2-0.5c-0.5,0-1,0.1-1.5,0.1c-0.4,0.2-0.7,0.5-1.1,0.6c0,0.2-0.1,0.5-0.4,0.7c0,0,0,0.1,0.1,0.1
		c-0.2,0.9-0.1,2,0.4,2.7c0.9,2.1,2.5,3.9,4.1,5.6l0.2,0.2c0.5,0.5,0.4,0.4,0.9,0.9c1,1,1.7,2,2.9,2.9c0.4,0.4,0.7,0.9,1.1,1.2
		c-1.5,0-3,0.1-4.5,0.2c-0.7,0-1.5,0-2.1,0.1c-0.7,0-1.5,0.1-2.2,0.2c-3.4,0.4-6.9,0.9-10.2,1.6L98.1,31c-3.1,0.9-5.9,1.4-8.9,2.6
		c-2.4,0.9-4.6,1.9-6.7,3.1V37c0.6,0.9,0.9-0.4,1.5-0.5c0.2,0.2,0.5,0.4,0.7,0.5c0.4,0.1,0.6,0.1,1,0.1c-0.1,0.5-0.2,0.9-0.2,1.4
		c-0.1,0-0.4,0.2-0.5,0.2c-0.7-0.5-1.5-0.7-1.9-1.6c-0.2,0.1-0.5,0.2-0.7,0.4c0-0.2,0-0.6-0.1-0.9c-0.6,0.4-1.4,0.7-2,1.2
		c-0.4,0.2-0.6,0.4-1,0.5c-0.6,0.5-1.2,0.9-1.9,1.1v0.1c-2.1,1.5-4.1,3.2-5.9,5.1c0.1,0.1,0.2,0.4,0.4,0.5c-0.2,0.4-0.4,0.9-0.1,1.4
		c-0.2,0-0.9,0-1.1-0.1c0.2-0.6,1.1-1.1,0.9-1.9c-0.9,1-1.9,2.1-2.7,3.2c0.4,0.5,0.6,1,0.9,1.6c-1.1,0.4-1-0.9-0.7-1.4
		c-0.7,0.4-1.1,1.2-1.6,1.7c-0.6-0.2-1.1-0.5-1.9-0.6c-0.6-0.2-1.2-0.2-1.7-0.4c-0.1,0-0.5,0-0.7,0c-0.7,0-1.4,0.1-2,0.2
		c-1.1,0.1-1.9,0.9-2.7,1.2c-1.1,0.1-2.1,0.5-3,1c-0.5,0.2-1.1,0.6-1.4,1.2h-0.1c-0.7,0.9-2,1.5-2.6,2.5c-0.4,0.4-0.4,1-0.5,1.5
		c0.1,1.2-0.5,1.9-0.7,2.6c-0.4,1-0.5,1.2-0.6,2c0,0-0.2,0.4-0.2,0.7c0,0.4,0,0.5,0,0.7c-0.2,0.5-0.4,1-0.4,1.5c1,1.5,3.2,1.2,4.9,1
		c3-0.9,5.9-2.1,8.6-3.4l0.2,0.1c-0.1,0.4-0.4,0.7-0.5,1.1c-0.1,0.6-0.5,1.2-0.7,2c-0.1,0.5-0.4,1-0.5,1.4c-0.1,0.5-0.2,0.9-0.4,1.2
		c-0.1,0.5-0.2,0.7-0.4,1.2c-0.5,1.7-0.7,3.5-1.1,5.2c0,0.4-0.1,0.9-0.2,1.2c-0.2,1.1-0.1,2.1-0.2,3c-0.1,2-0.1,4.2-0.1,6.4
		c0,0.7,0,1.6,0.1,2.4c0,1.5,0.2,3,0.2,4.5h0.5c-0.2-2-0.2-4-0.5-6.1c0.2-3.2,0.1-6.6,1-9.9c0.2,1.7,0,3.5,0.2,5.2
		c0.2,3.1,0.9,6.4,1.4,9.4c0.1,1,0.4,2,0.6,3c0.6,2.2,1.2,4.5,2,6.7c-0.9,0.5-1.9,1-2.9,1.1c-0.1-0.1-0.4-0.5-0.5-0.6
		c-0.5,0.6,0,1.4,0.1,2.1c0.4,1.1,0.5,2.5,1.6,3.2c0.2-0.4,0.6-0.7,1-1.1c0.4-0.9,0.7-1.7,1.2-2.5c0.7-0.5,1.5-0.7,2.1-1.2
		c0.2-0.4,0.6-0.7,0.9-1c0.9-1.2,1.1-2.7,1.4-4.1c0.9-0.4,1.9-0.5,2.7-1c0.4-0.4,0.7-0.6,1.1-1c0.4-0.4,0.5-0.6,0.9-1
		c0.7-0.6,1.5-1.4,2.6-1.5c1.2-0.2,2.2-0.6,3.1-1.1c0.2-0.2,0.4-0.4,0.6-0.6c0.4-0.4,0.7-0.6,1.1-1.1c0.6-0.2,1.1-0.5,1.7-0.4
		c0.7-0.1,1.5-0.5,2.2-0.7c0.2-0.2,0.6-0.5,0.7-0.7c0.9-0.9,2-1.4,3.4-1.2c2-0.2,3.2-1.7,5.1-2.4c0.6,0.1,1.4,0,2,0
		c2.1-0.4,4.2-1.4,6.5-1.6c1.2,0,2.5-0.2,3.7-0.4c1.2-0.2,2.4-0.2,3.4-0.7c-0.6-0.7-1.7-0.1-2.5,0c-0.4,0-0.6,0-0.9,0
		c-0.5,0-0.9,0.1-1.2,0.1c-0.2,0.1-0.5,0.1-0.7,0.1c-0.4,0-0.7,0-1.1,0c-1.6,0.1-3.4,0-5-0.1c-0.9,0-1.9-0.1-2.7-0.2
		c-0.5,0-1-0.1-1.5-0.2c-0.9-0.1-1.7-0.2-2.5-0.4h-0.1c-0.4-0.1-0.9-0.2-1.2-0.2c-0.9-0.2-1.5-0.4-2.2-0.6c-0.7-0.2-1.5-0.5-2.2-0.6
		c-2.6-0.9-5.4-2-7.6-3.5c-1.1-0.6-2-1.4-2.9-2.1c-0.5-0.5-0.9-0.9-1.4-1.4c-1.7-2.1-3-4.7-2.6-7.4c0.4-3,1.9-5.7,4-8
		c1.1-1.2,2.6-2.2,4-3.1c0.9-0.5,1.6-0.9,2.6-1.2c-0.4,0-0.7,0-1.1-0.1c-0.5-0.5-0.4-1.6,0.2-1.9c0.2,0.4,0.7,0.5,1.1,0.7
		c0,0.4-0.1,0.7-0.2,1.1c3.2-1.2,6.9-1.5,10.2-1.1c2.2,0.4,4.5,1,6.6,1.7c3.7,1.6,7.4,3.2,11.2,4.6c0.6,0.2,1.1,0.4,1.9,0.6l0.5,0.1
		c-0.9-0.9-2-1.9-1.7-3.1c-0.2-0.1-0.4-0.1-0.7-0.2c-0.1,1,0.9,1.7,1.1,2.7c-0.7-0.2-1.5-0.5-2.1-1c0.4-0.4,0.9-0.6,1-1.1
		c-0.7,0.1-1.1,0.6-1.4,1.2c-0.6-0.2-1.4-0.5-1.9-1c-0.4-0.6,0.1-1.4,0.5-2c0.5-0.1,1.1-0.4,1.6-0.6c0.2,0.7,0.5,1.4,1,2.1
		c0.1-1-1-2-0.4-3.1c0.4-0.9,1.4-1.4,2.2-1.9c0.1,0.9,0.7,1.6,1.2,2.2c-1,0.5-1.9,1-2.5,1.7c0.1,0,0.4,0.1,0.6,0.2
		c0.4-0.7,1.1-1.2,1.9-1.6c0.2,0.4,0.5,1,0.6,1.4c-1.4,1.1-1.2,2.7-0.7,4.2l-0.6,0.2c0.2,0.1,0.5,0.1,0.7,0.1l0.5-0.2l0.1-0.1
		c0.1-0.1,0.2-0.1,0.5-0.2c-0.2,0-0.6,0-0.9,0.1c0.7-2.1,3.4-3.9,6-3.4c1.9,0.4,3.4,1.7,4,3.4l0.4-0.1c-0.6-1.2-1.4-2.6-3-3.2
		c0.4-0.4,0.7-0.7,1.4-1.1c-0.1,1.4,1,2.4,2.1,3.2c-0.1,0.5-0.1,1.1-0.6,1.6c0,0.1,0.1,0.4,0.2,0.4c0.4,0.7,1.2,1.2,2.1,1.9
		c-1.1-0.2-2.4-0.4-3.2-1.1c-1.4-1.1-1.9-2.6-2.9-3.6c-0.6-0.2-1.1-0.2-1.6,0.1c-1,0.4-1.9,1-2.9,1.5c0.7-0.4,1.4-0.6,2.1-0.9
		c0.1,0.2,0.2,0.5,0.4,0.7c-2.9,3.5-5.7,7-9.1,10.1c-0.5,0.5-1,1-1.6,1.4c-1.1,0.5-2.9,0.7-3.7-0.4c-0.6-1.1-0.9-2.6-0.6-4
		c0.5-0.5,1-0.9,1.6-1.1c2.6-1.6,5.4-3.1,8.1-4.6v-0.1c0-0.1-0.1-0.1-0.1-0.1c-0.2,0.1-0.5,0.1-0.6,0.1c-2.2,1.2-4.5,2.5-6.6,3.7
		c-1.1,0.7-2.4,1.4-3.4,2.4c-0.2,0.2-0.5,0.2-0.7,0.5c-0.4,0.4-0.6,0.5-1,0.7c-1.1,1.1-2.5,2.7-1.9,4.2c0.4,1,1.7,1.4,2.7,1.4
		c0.9,0,2,0,2.6,0.7c0.6,0.2,1.4,0.5,2,0.7c0.5,0,0.9,0,1.4,0c0.4,0,0.7,0,1-0.1c0.5-0.1,1.1-0.2,1.6-0.2c0,0.1,0.2,0.2,0.4,0.2
		c0.4,0.1,0.7,0.1,1.1,0.1l0.1,0.1c1.1-0.1,2.4-0.1,3.5-0.6c0.9-0.4,1.9-0.4,2.7-0.5c1.5-0.5,3-1,4.1-2c-1.1,0.7-2.4,1.4-3.6,1.7
		l-0.1-0.4c0.6-0.5,1.4-1.1,1.7-1.9c1.9-2.5,2.6-5.5,4.4-8c0.1,0,0.4,0.1,0.5,0.1c0.1,0.2,0.2,0.4,0.4,0.7c0,0.2,0,0.5-0.1,0.7
		c-0.1,0.5-0.1,1-0.1,1.6c-0.1,0.5-0.2,1-0.5,1.5c-0.2,0.9-0.6,1.7-1.1,2.6c0.2-0.1,0.5-0.2,0.7-0.4c1-1.7,1.7-3.6,3-5.4
		c0.1,0,0.4,0,0.5,0c0.9,0.9,0.6,2,0,3c0.6-0.7,1.1-1.5,1.5-2.4c0.4-0.5,0.4-1.1,0.4-1.7c0.4-0.4,0.1-0.9,0.1-1.4
		c0.1,0,0.4-0.1,0.5-0.1c0.6,0.1,1.4,0.1,2,0.2c0.4,0,0.7,0,1.1,0.1c0-0.2-0.1-0.5-0.1-0.7c-0.4,0.2-0.7,0.4-1.1,0.6
		c0-0.4,0.1-0.2,0-0.5c-0.1-0.1-0.6-1-0.7-1.1c0.1,0.1,0.2,0,0.4,0.2h0.2c0.1-1.5,1.5-2.2,2.9-3.1c0,0.9-0.2,1.9,0,2.7
		c-0.4,0.2-0.7,0.4-1,0.5c0.1,0,0.4,0.1,0.6,0.2c1.6-0.5,3-1.4,4.7-1.6c1.5-0.4,3-0.7,4.4-1.4c-0.7,0.2-1.5,0.5-2.2,0.6
		c-0.2-0.2-0.4-0.6-0.7-0.9c-0.1-0.1-0.4-0.5-0.4-0.7V55c-0.1,0-0.1-0.1-0.1-0.1c0-0.2,0-0.6,0-0.7c0-1,0.4-2,1.5-2.6
		c0.1-0.1,0.4-0.4,0.6-0.4c0.2-0.1,0.7-0.2,1-0.4c0.5,1.2,1,2.5,1.7,3.6v0.2c0,0.2,0,0.6,0,1c0.1-0.1,0.4-0.2,0.5-0.4
		c0.1,0,0.4-0.2,0.5-0.2c1.4-1.4,2.5-3,3.1-4.7c0.4-0.9,0.6-1.6,0.9-2.4c0.2-1.1,0.1-2.1,0-3.2c-0.1-0.9-0.7-1.6-1.2-2.2
		c0,0.2,0,0.6,0,0.7c0.1,0.5,0.5,1,0.4,1.4c-0.6,0.6-1.4,1.1-2,1.7c0,0.1-0.4,0.4-0.5,0.5c-0.6-1.1-1.7-2.4-1.1-3.6
		c0.2-0.6,0.5-1.1,0.9-1.5c0-0.1,0.2-0.2,0.4-0.4c-0.1,0.1-0.2,0.1-0.4,0.1c-0.5,0.7-1.1,1.7-2.5,2c-1-1.1-2.1-2.4-1.9-3.9
		c0.1-0.4,0.2-0.6,0.4-0.9c0-0.1,0.1-0.4,0.1-0.5c0.4-0.4,0.6-0.5,1-0.7c1.2,1.1,2.9,2,3.9,3.4l0,0h0.1c0.1,0,0.4,0.2,0.4,0.2
		c0.1,0.1,0.4,0.2,0.5,0.4c-1.9-2.4-4.6-4-6.7-6c-1-0.9-1.1-2.1-1.6-3.1l0.5,0.1c1.5,3.1,4.9,5.1,8.1,6.9c-0.6-1-1.7-1.5-2.7-2.1
		c-1.6-1.1-3.4-2.4-4.1-4.1c4.4,1.4,8.4,3.5,12.2,5.9c1.4,0.9,2.6,1.7,3.9,2.6c2.6,2.2,5.5,4.5,7.1,7.4c0.6,1.1,0.1,2.4-0.1,3.6
		c-0.2,1.1,0,2.2-0.6,3.2c-0.9,1.2-2.4,2-3.9,2.5c-1.7,0.9-3.7,1.2-5.7,1.7c-5.6,1-11.6,1.1-17.3,0.7H136c-0.1,0-0.2,0.2-0.4,0.4
		c1.4,0,3,0.1,4.4,0.1c0.9,0,1.6,0,2.5,0c0.9,0,1.7,0,2.5-0.1c0.6,0,1.1,0,1.6-0.1c0.5,0,0.7-0.1,1.2-0.1c1.2,0,2.5-0.2,3.9-0.4
		c-1.5,1-3.6,1.6-5,3c-0.4,0.2-0.6,0.4-1,0.6c-0.9,0.5-3.1,1.7-4.1,2.1c0.1,0,1.6-0.6,1.9-0.6c1.2-0.2,2.6-0.6,3.6-1.2
		c2.9-2,6-4.1,9.6-4.9c1-0.4,2.2-0.6,3.1-1.1c0.5-0.2,1.2-0.5,1.7-0.9c0.6-0.5,1.6-1.1,1.9-2c0.2-0.7,0.1-1.6,0.2-2.5
		c0.2-0.7,0.5-1.6,0.5-2.4c0.1-0.4,0.1-0.5,0.1-0.7C164,48.4,163.2,47.4,162.3,46.6z M108.2,70.5c-0.6-0.5-0.9-1.1-0.9-1.9
		c0.7-1.4,2.4-2.2,3.5-3.4c2.2-2.2,4.4-4.5,6.6-6.6c0.5-0.2,0.7-0.6,1.2-0.9c0.1,0.4,0.2,0.7,0.2,1.1c-0.2,0.5-0.4,1-0.5,1.4
		c-0.9,2.1-2.4,4-3.4,6.1c-0.5,0.6-1,1.4-1.6,2.1c-0.4,0.4-0.5,0.6-0.9,0.9C111.7,71,109.7,71,108.2,70.5z M121.7,62.5
		c-0.9,2.7-1.7,5.5-3.9,7.7c-1,1.1-2.7,1.5-4.2,1.6c-0.7-0.2-1.2-0.6-1.5-1.2c0.4-0.4,0.7-0.6,1.1-1c0.4-0.4,0.6-0.9,1-1.2
		c2-2.2,3.2-5.1,5.2-7.4c0.6-0.5,1.1-1.2,1.9-1.4c0.2,0.4,0.4,0.6,0.6,1.1C121.8,61.2,121.7,61.9,121.7,62.5z M134.3,31.1
		c0.6,0.1,1.4,0.4,2,0.6c-0.4,0.1-0.7,0.4-1.1,0.5c-0.4,0.9-1.6,1-2.2,1.6c-0.6,0.5-0.7,1.1-1.1,1.7c-0.7-0.6-1.4-1.5-1.1-2.5
		c0.5-1.1,1.6-1.6,2.9-1.7C133.7,31.2,133.9,31.2,134.3,31.1z M134.7,34c0.1,1.4,1.4,2.2,2.5,3.1c-1.1,0.7-1.6,2.1-3,2.5
		c-1.1-0.9-1.9-2.1-2.1-3.5c0-1.2,1.4-2.1,2.5-2.7C134.5,33.3,134.5,33.7,134.7,34z M137.5,53.1c-0.7,0.4-1.5,0.7-2.2,1.2
		c-0.2,0.4-0.6,0.9-1,1.1c-1.1-1-0.7-2.5,0-3.5c0.5-0.7,1.4-1.6,2.5-2C136.5,50.9,136.9,52.1,137.5,53.1z M136,49.7
		c-0.5,0.4-1,0.9-1.5,1.2l-0.2,0.1c-0.2,0.4-0.5,0.9-0.9,1.4c-0.5-0.5-0.9-0.9-1.2-1.2c-0.1-0.4-0.2-0.7-0.4-1.1h0.1
		c0.1-1.5,1.4-2.9,3.1-3.4c0.4,1,0.7,2,1.6,2.7C136.5,49.6,136.3,49.6,136,49.7z M126.8,45.6c0.4,0.4,0.9,0.7,1.2,1.1
		c-1,0.6-1.7,1.4-2.4,2.4c-0.2-0.2-0.6-0.6-0.9-0.9c-0.1-0.4-0.4-0.6-0.5-0.9c-0.1-0.2-0.2-0.5-0.5-0.9c0.1-0.5,0.4-1,1-1.2
		c0.1,0.1,0.6,0.4,0.9,0.5c-0.1,0-0.1,0.1-0.2,0.2C125.8,45.7,126.2,45.4,126.8,45.6z M124.4,41.1c-1.1,0.1-2-0.6-3-1.1
		c0.2-0.2,0.4-0.4,0.6-0.5c0.5-0.2,1.1-1.2,1.7-0.7C123.9,39.5,124,40.3,124.4,41.1z M117.7,35.8c-0.4,0-0.7,0.1-1.1,0.1
		c0.4-0.5,0.6-1,1.1-1.5c0.1-0.1,0.2-0.2,0.4-0.4c0.5,0.5,0.7,1.7,1.6,1.1c-0.5-0.7-0.7-1.4-1.1-2.2c0.1-0.5,0.2-1.1,1-1.1
		c-0.1-0.6-0.4-1.2-0.6-1.7h0.5c0.9,1,1.9,2,2.9,2.9c0.5,0.5,1,1,1.7,1.2c1.1-0.5,2.1-1.2,3.1-2c1.1-0.7,2.7-1.1,4.4-1.1
		c-1.4,0.6-2.5,1.4-3.5,2.4c-1.1,1.1-2.7,1.9-4.5,1.5c-1.6-0.2-2.5-1.5-3.7-2.2c0.4,0.6,0.9,1.4,1.5,1.9c-0.1,0.4-0.4,0.7-0.6,1
		c-0.5,0.1-1.1,0.5-1.6,0.6l0.1,0.1c-0.4,0.6-0.7,1.4-1.2,2c-0.1-0.1-0.5-0.5-0.6-0.6c-0.1-0.5-0.2-1-0.4-1.6c0.5,0.2,0.9,0.6,1.1,1
		C118.1,36.6,117.9,36.1,117.7,35.8z M116.8,33c0,0.1,0.1,0.2,0.2,0.4c0.1,0.2,0.2,0.4,0.4,0.6c-0.5,0.6-1.2,1.1-1.7,1.7
		c-0.2-0.4-0.6-0.6-1.1-1l-0.1-0.1c-0.9-1.4-0.2-3.4,1.4-4c0,0.5,0.1,1,0.1,1.6C116.4,32.3,116.6,32.6,116.8,33z M115.2,35.8
		c-0.4,0.2-0.6,0.5-0.9,0.9c-0.4,1-1.6,0.5-2.4,0.1c-0.1-0.4-0.1-0.6-0.2-1c0.1-0.4,0.1-0.5,0.1-0.9c0.2-0.6,0.6-1.1,1.1-1.6
		c0.2-0.1,0.5-0.2,0.6-0.4c0.2,0.4,0.4,0.9,0.6,1.2c0,0,0,0.1,0.1,0.1C114.7,35,114.8,35.3,115.2,35.8z M115.8,36
		c0.2,0.6,0.5,1.1,0.9,1.6c0.2,0.2,0.5,0.5,0.6,0.7c-0.6,0-1-0.2-1.5-0.5c-0.4-0.2-1-0.1-1.1-0.5C114.8,36.7,115.3,36.3,115.8,36z
		 M131.2,36c-1.6,0.7-2.5,2.4-2.6,3.9c-1.7-1.1-2.2-3.5-1-5c0.6-0.6,1.4-1.2,2.4-1.4C129.7,34.5,130.4,35.2,131.2,36z M131.5,36.1
		c0.6,1.2,1,2.7,2.4,3.6c-0.7,0.7-1.6,1.7-1.9,2.7c-0.5,0.1-1.2,0.2-1.6-0.1c-1.2-1.1-1.9-2.7-1-4.2C130,37.2,130.8,36.7,131.5,36.1
		z M126.7,35.7c-1,0.5-1.9,1-2.4,1.9c0-0.1-0.2-0.2-0.4-0.2c0-0.6-0.1-1.4,0.5-1.9c0.5-0.2,1.4-0.5,1.9-0.6
		C126.4,35.1,126.5,35.3,126.7,35.7z M119.4,36.3c0.2-0.1,0.5-0.2,0.9-0.5c0.2,0.5,0.4,1,0.6,1.5c0.4,0.5,0.7,1,1,1.5
		c-0.4,0.4-0.6,0.5-1,0.9l-2.5-1.2C118.6,37.7,119.1,37.1,119.4,36.3z M122.3,38.5c-0.4-0.2-0.7-0.5-1-0.9c-0.5-1-0.6-2.1-0.1-3.1
		c0.9,0.2,1.7,0.6,2.7,0.7c-0.5,0.6-0.6,1.4-0.4,2.1C123.7,38.1,122.9,38.3,122.3,38.5z M124.3,38.6l0.2-0.1c0-0.1,0.1-0.5,0.2-0.7
		l0.1-0.1c0.2-0.6,0.9-1,1.4-1.5c0.1,1.4,0.4,2.7,1.5,3.7c-0.1,0-0.4,0.2-0.4,0.4c-0.4,0.4-0.7,0.7-1,1.1c-0.1,0.1-0.4,0.4-0.5,0.5
		c-0.1-0.1-0.5-0.5-0.6-0.6C124.7,40.5,124.3,39.6,124.3,38.6z M127.4,45.6c-0.1-0.1-0.4-0.6-0.5-0.7c0.5-0.5,1.1-1,1-1.6
		c-0.1-0.5-0.9-0.7-1.2-1.1c0-0.2,0-0.5-0.1-0.6c0.6-0.5,1.1-1,1.7-1.4c0.5,1.1,1.1,2.2,2.1,3c-1.1,1-1.5,2.2-1.7,3.5
		C128.4,46.2,127.8,45.8,127.4,45.6z M132,42.8c0,0.2,0,0.6,0.1,0.9c0,0.1,0.1,0.1,0.1,0.2c0.5,1,1.4,1.7,2.1,2.5
		c-1.1,0.5-2.1,1.1-2.7,2c-0.1,0.2-0.1,0.4-0.2,0.6c-0.2-0.1-0.5-0.2-0.7-0.4C128.5,46.9,129.5,43.7,132,42.8z M136.4,44.3
		c0.2-0.1,0.7-0.2,1-0.4c0.5,1.1,1.1,2.2,2.2,3c-1.1,0.5-2.1,1.4-2.6,2.4C135.5,47.9,135,45.8,136.4,44.3z M135.9,44.4
		c-0.6,0.4-0.7,1.1-1,1.7c-0.7-0.6-1.5-1.2-2-2l-0.1-0.5c-0.5-1.6,0.7-3.2,2.4-4.1c0.1,1.2,0.7,2.4,1.6,3.4c0.1,0,0.5,0.2,0.6,0.4
		C136.9,43.7,136.4,44.1,135.9,44.4z M137.3,42.8c-1-0.6-1.5-1.7-1.7-2.7c-0.1-1.1,0.9-2.1,2-2.7c0.1,0.4,0.4,0.6,0.6,1
		c0.1,0,0.4,0.2,0.4,0.4c0,0.1,0.1,0.2,0.1,0.4c-0.4,0.4-0.5,1.1-0.7,1.7c-0.1,0.4-0.2,0.6-0.2,0.9
		C137.4,42.1,137.4,42.4,137.3,42.8z M131,20c1.5,2,0.7,4.5,0.6,6.7l-1.2,2.1c-1.1-2.7-0.5-5.7-1.5-8.6c-0.2-1-0.7-1.7-1.1-2.6
		C129.2,17.9,129.9,19.2,131,20z M123,16.4c0-0.1,0.5-0.2,0.9-0.4c0.2,0.1,0.6,0.1,0.9,0.2c0.9,0.4,1.7,0.9,2.5,1.2c0.6,1,1,2,1.5,3
		c0.4,2.4,0.5,4.9,0.1,7.4c-0.1,0.5-0.2,0.9-0.4,1.4l-1.2,0.4c-1.2-2-1.6-4.2-2.4-6.5c-0.1-0.5-0.2-1-0.4-1.5
		c-0.2-1.6-1.2-3.1-2-4.6C122.5,16.9,122.8,16.5,123,16.4z M118.7,16c1-0.5,2.4,0.2,3.2,0.6c0.9,1.4,1.4,2.7,2,4.1
		c-0.1,0.5,0.1,0.9,0.2,1.4c0.4,1.9,0.7,3.9,1,5.9c0,0.4,0,0.9-0.1,1.4c0,0.2-0.1,0.5-0.1,0.9c-0.2,0.1-0.5,0.1-0.6,0.4
		c-0.1-0.1-0.4-0.5-0.4-0.6c-2.4-3.6-3.6-7.7-6.2-11.2C117.2,17.6,117.6,16.4,118.7,16z M112.9,23c-0.5-0.9-1.5-1.7-1.6-2.7
		c0.5-1,0.9-1.9,1.5-2.9c0.2-0.2,0.6-0.4,0.9-0.6c0.4,0,0.7-0.1,1.1-0.1c0.6,0.2,1,0.4,1.6,0.5c2.1,2.4,3.1,5.4,4.5,8.1
		c0.7,2.1,1.7,4.2,2.4,6.5c-0.5,0-0.9,0.4-1.4,0c-1-0.6-1.6-1.5-2.5-2.1C117.1,27.5,114.9,25.2,112.9,23z M117.4,29.3
		c0.4,0,0.9-0.1,1.1-0.1c0.1,0.6,0.2,1.4,0.5,2c-0.4,0.5-0.6,1.1-0.9,1.7c-0.2,0-0.6,0-0.7,0c-0.5-0.7-1.1-1.5-1-2.5
		C116.8,30.1,117.1,29.6,117.4,29.3z M113.3,30.6c0-0.1,0.2-0.5,0.4-0.6c0.5-0.1,0.9-0.4,1.4-0.5c0.5,0,0.9-0.1,1.4-0.1
		c0,0.1,0.1,0.4,0.2,0.4c-0.2,0.2-0.5,0.4-0.9,0.6c-1.2,0.2-1.6,1.2-2.2,2.1c-0.1-0.2-0.4-0.7-0.5-1
		C113.2,31.1,113.2,30.8,113.3,30.6z M112.6,30.8c0.2,0.6,0.6,1.2,1,1.9c-0.4,0.2-0.7,0.5-1,0.7c-0.7,0.5-1.1,1.2-1.4,1.9
		c-0.2-0.2-0.6-0.6-1-0.9C109.7,33,110.8,31.5,112.6,30.8z M92.1,36.2c0.5-0.1,1.1-0.1,1.6-0.2c3.7-0.2,7.5-0.1,11.2,0.2
		c5.9,0.7,12,2.2,17.2,5c1.6,0.9,3.4,1.7,4.1,3.2c-1.9,0.4-3-1.1-4.5-1.9c-3.5-1.9-7.7-2.6-11.9-2.5c-4.4-0.4-8.9,0-13.1-0.7
		c-1-0.1-1.7-0.6-2.1-1.4c-1.1-0.4-2.1-1-3.1-1.4C91.9,36.3,92,36.2,92.1,36.2z M115.4,48.3c-0.1-0.5-0.4-1-0.4-1.6
		c0-1.1,0.7-2.5,2.1-2.9c0.2,0,0.6,0.1,0.9,0.2c0.6-0.4,1.5-0.2,2.2,0.1c0,0.1,0.1,0.4,0,0.5c-0.5,0.5-0.9,1-1.2,1.6
		c0-0.1-0.1-0.4-0.2-0.5c-0.1,0.1-0.5,0.4-0.6,0.5c0,0.1,0.2,0.4,0.2,0.4h0.4c0.4,1,0.7,1.9,1.5,2.6c-0.9,0.4-1.6,0.9-2.1,1.5
		c-0.5,0.1-1,0.4-1.5,0.5c-0.2-0.6-0.6-1.2-0.5-1.9c0-1,0.7-1.9,1.6-2.5l0.1-0.5C116.7,46.8,116.1,47.7,115.4,48.3z M98.3,44.4
		c-0.5-0.5-1-1-1.4-1.4c0.9,0,1.9-0.1,3-0.2C99.3,43.3,98.8,43.9,98.3,44.4z M99.1,46.8c0.1,0.1-0.1,0.4-0.2,0.5
		c-0.1,0-0.4,0.2-0.5,0.2c-0.6,0.4-1.1,1-1.5,1.5c-0.2-0.6-0.7-1-0.9-1.7c0-0.5,0.2-1,0.4-1.5c0-0.1,0.1-0.2,0.1-0.4
		c0.1,0,0.4-0.2,0.5-0.2c0.4-0.2,0.7-0.5,1.1-0.6C98.2,45.4,98.6,46.1,99.1,46.8z M99,44.8c-0.1-0.6,0.5-1.2,1.2-1.5
		c0.2,0,0.6,0.1,0.9,0c0.2,0.4,0.5,0.9,0.9,1.4c-0.7,0.6-1.4,1.4-1.9,2.1C99.5,46.3,98.7,45.7,99,44.8z M101.5,43.2
		c0.6-0.2,1.4-0.1,2.1-0.2c-0.4,0.4-0.7,1-1.1,1.4C102.2,43.9,101.7,43.6,101.5,43.2z M100.5,48.1c0.1-0.1,0-0.6,0-0.7
		c0.1-0.9,0.7-1.6,1.5-2.1c0.4,0.7,0.6,1.4,1,2c-0.6,0.4-1.5,0.7-2.1,0.4c0,0.2,0,0.5,0,0.7c0.2-0.1,0.7-0.2,0.9-0.4v0.2
		c-0.2,0.2-0.5,0.6-0.7,1c-0.2-0.2-0.5-0.7-0.7-1L100.5,48.1z M100.8,49.8c0.5-0.5,0.9-1,1.2-1.4c0.4-0.4,1-0.6,1.5-0.9
		c0.4,0.7,0.7,1.5,1.1,2.1c-1,0.9-2.1,1.4-3.6,1.6C101,50.7,101,50.2,100.8,49.8z M103.5,47.1c-0.2-0.6-0.9-1.1-0.9-1.7
		c0.1-0.9,0.9-1.6,1.5-2.2h0.2c0.4,0.6,0.7,1.4,1.2,2C104.8,45.6,104.1,46.3,103.5,47.1z M105,43.1c0.7,0,1.5,0.1,2.2,0.2
		c-0.2,0.2-0.4,0.6-0.6,0.9c-0.1,0.1-0.2,0.4-0.5,0.5C105.6,44.2,105.2,43.7,105,43.1z M104.3,47.1c0.2-0.2,0.5-0.5,0.6-0.9
		c0.1-0.4,0.6-0.5,1-0.5l0.1,0.1c0.4,0.7,0.6,1.4,1.1,2c-0.1,0.1-0.4,0.4-0.5,0.5c-0.5,0.5-0.9,1-1.2,1.6c-0.6-0.9-1.2-1.7-1.4-2.7
		L104.3,47.1z M106.6,45.8c-0.1-0.6,0.2-1.2,0.4-1.9c0-0.1,0.2-0.2,0.4-0.4c0.4-0.4,0.6-0.5,1.1-0.5c-0.1,0.2-0.2,0.6-0.4,0.9
		c0.2,1,0.7,1.7,1.2,2.5c-0.6,0.4-1.2,0.9-1.9,1.1C107.2,47.1,106.6,46.6,106.6,45.8z M108.8,43.2c0.5,0,1-0.1,1.5,0
		c0.5,0,1,0.1,1.5,0.2c-1.1,0.6-1.6,1.7-2.2,2.7C108.9,45.4,108.7,44.3,108.8,43.2z M108.1,41.8c1.2-0.5,2.7-0.1,4.1,0.1
		c1.2,0.2,2.9,0.2,3.9,1c-0.9,0.2-1.6-0.1-2.4-0.2C111.9,42.2,110.1,42.1,108.1,41.8z M114.1,43.3c0.6,0.2,1.1,0.5,1.9,0.5
		c-0.4,0.6-0.9,1.2-1.4,1.7c-0.4-0.6-0.9-1.2-1.1-1.9C113.6,43.6,113.8,43.4,114.1,43.3z M119.4,47.1c0.1-0.2,0.2-0.6,0.4-1
		c0-0.1,0-0.2,0.1-0.4c0-0.1,0.1-0.2,0.1-0.4c0.5-0.2,0.9-0.5,1.5-0.7c0.1,0,0.5,0.1,0.6,0.1c0.2,0.6,0.7,1.2,1.1,1.9
		c-0.5,0.2-1.2,0.6-1.7,0.9v0.1c-0.2,0.4-0.5,0.9-0.7,1.2C120.1,48.4,119.8,47.7,119.4,47.1z M94.6,39c0.9-0.2,1.6,0.4,2.4,0.5
		c2.4,0.4,4.6,0.4,7,0.5c0.6,0,1.2,0,1.9,0c3.6,0.1,7.4,0.2,10.9,1.1c1.4,0.5,3,0.9,4.1,1.9c-0.2,0.1-0.5,0.1-0.9,0.2
		c-0.4-0.2-0.9-0.5-1.6-0.6c-3.1-1-6.4-1.4-9.5-1.4c-1.1-0.1-2.2,0.1-3.2-0.1c-4.6-0.2-9.4,0.4-13.8-0.7c-0.5-0.5-1.4-0.6-1.7-1.2
		C91.5,39.1,93.1,39.2,94.6,39z M92.6,43.7c0.5,0.5,1,0.9,1.2,1.4c-0.1,0-0.2,0.2-0.4,0.4c0.4,0.2,0.5,0.4,0.9,0.5
		c-0.4,0.4-0.6,0.7-0.9,1c-0.4-0.2-0.9-0.6-1.2-0.9C92,45.3,92.1,44.4,92.6,43.7z M91.4,45.4c-0.6-0.4-1.1-0.9-1.5-1.4
		c0.7-0.4,1.5-0.7,2.4-1c0,0.1,0.1,0.4,0,0.5C91.7,44.2,91.5,44.8,91.4,45.4z M92.9,43.1c1.1-0.1,2.2-0.5,3.2-0.2
		c-0.7,0.5-1.5,1.1-2,1.7C93.7,44.1,93.2,43.6,92.9,43.1z M84.5,39.1c0.4,0.2,0.7,0.2,1,0.5c-0.1,0.5-0.4,0.9-0.5,1.2
		c0.1,0,0.4-0.1,0.5-0.1c0-0.5,0.2-1.1,0.6-1.4c0.1,0.6,0.7,1,1.4,1.4c-0.2,0.1-0.7,0.2-1,0.4c0,0.2,0,0.6-0.1,0.9
		c-0.5-0.2-1-0.6-1.5-0.9l0.1,0.5l-0.6,0.2l0,0l0,0h-0.1l0,0c-0.7,0.1-1.5,0-2.1,0.4c0.2-0.5,0.5-1,0.7-1.5c0.2,0.2,0.5,0.4,0.7,0.6
		c-0.4-0.2-0.5-0.7-0.7-1.1c0-0.6,0-1.1,0.2-1.7C84,38.2,84.1,38.8,84.5,39.1z M81.4,38.8c0.4-0.4,0.9-0.9,1.5-1
		c0.4,1-0.2,2-0.1,3.1c-0.5-0.2-0.9-0.5-1.2-0.6C81.5,39.8,81.4,39.3,81.4,38.8z M80.9,38.7c0.1,0.5,0.1,0.9,0.1,1.4
		c-0.5,0.1-0.9-0.2-1.5-0.4C80,39.2,80.5,39,80.9,38.7z M79.4,39.8l0.6,0.5h0.1c0.2,0,0.6,0,0.9,0c-0.1,0.5-0.2,1.1-0.2,1.6
		c-0.1,0-0.4,0-0.6,0C78.6,41.8,79,40.6,79.4,39.8z M80.4,42.2c-0.1,0.5-0.4,1-0.6,1.4c-0.4-0.1-1.2,0.2-1.4-0.4
		c0-0.5,0.2-1,0.4-1.5C79.3,41.9,79.9,42.3,80.4,42.2z M78.6,40.5c0.4,0.2,0,0.7-0.4,0.7C77.9,41,78.3,40.5,78.6,40.5z M76.6,42.1
		c0.2-0.6,1.1-1,1.9-0.5c-0.1,0.4-0.2,0.6-0.4,1c0.1,0.1,0.1,0.5,0.1,0.6C77.4,43.4,76.6,42.8,76.6,42.1z M76.5,43.2
		c0.5,0.1,1.1,0.4,1.7,0.4c0,0.2,0,0.7,0,1c-0.5,0.4-1,1-1.5,1.4c-0.1-0.1-0.1-0.5-0.1-0.6c0.1-0.2,0.4-0.4,0.5-0.6
		C76.8,44.2,76.5,43.7,76.5,43.2z M74.9,43.2c0.5-0.1,0.9-0.1,1.4-0.1c-0.1,0.5,0,1.1,0.2,1.6c-0.4,0-0.7,0-1.1,0
		C74.6,44.3,74.6,43.8,74.9,43.2z M74.6,43.9c0,0.7,0.7,1,1.5,1c0.1,0.2,0.1,0.6,0.2,0.9c-1.1,0.2-2.1-0.4-2.6-1.2
		C74,44.4,74.4,44.2,74.6,43.9z M73.6,44.6c0.1,0.4,0.4,0.7,0.5,1h-0.5c0.1,0.1,0.2,0.6,0.4,0.7c0.2-0.2,0.4-0.4,0.7-0.5
		c0.5,0.2,0.9,0.2,1.2,0.5c-0.5,0.5-1,1-1.5,1.4c-0.4-0.5-0.5-1-0.2-1.4l-0.5,0.1c-0.1-0.1-0.1-0.4-0.2-0.5h0.1
		C72.9,45.6,73.1,45.1,73.6,44.6z M78.5,50.4c-1.1,0-2.2-0.6-2.1-1.6c0.5-0.6,1.6-0.1,2.2,0.1C78.4,49.6,78.3,49.9,78.5,50.4z
		 M74.8,49.4c0-0.1,0-0.2,0-0.2c1.1-0.7,2-2.1,3.6-2.4C77.3,47.8,76.1,48.8,74.8,49.4z M75.3,49.9c0.1-0.4,0.2-0.5,0.6-0.4
		C76.9,49.9,75.6,50.4,75.3,49.9z M76.4,50.3c-0.1,0.4-0.2,0.6-0.2,0.9c0,0.2,0.1,0.6,0.2,1c-0.4-0.1-0.9-0.2-1.4-0.4
		c-0.2-0.4-0.4-0.9-0.5-1.4C74.9,49.8,75.6,50.7,76.4,50.3z M74.1,48.9c0-0.4,0.1-0.5,0.5-0.1C74.8,49.2,74.5,49.3,74.1,48.9z
		 M73.5,45.9c0,0.6,0.1,1.1,0.4,1.6c-0.7,0-1.1-0.4-1.4-0.9C72.6,46.2,73,45.9,73.5,45.9z M71,47.6c0.6,0.1,1.4,0.1,2,0.2
		c0.2,0.1,0.6,0.1,1,0.2c-0.1,0.5-0.1,1,0.1,1.4c-1.1,0.5-1.1-1.1-1.6-1.6c-0.1,0.4-0.1,0.7,0,1.1c-0.4-0.1-0.7,0-1.1-0.1
		C71.1,48.4,70.9,48.1,71,47.6z M73,51.9c-0.4-0.4-0.7-0.9-1-1.4c0.9,0.2,2.2,0.1,2.5,1.1C74.1,52.1,73.5,51.8,73,51.9z M74.3,52.2
		c0.1,0.5,0.1,1,0,1.4c-0.7-0.2-1.5-0.6-1.6-1.2C73.1,52.2,73.8,52.2,74.3,52.2z M72,49.3c0.1,0,0.5,0,0.5-0.1
		c0.5,0.4,1.1,0.7,1.5,1.1c-0.5,0.1-1,0.1-1.6-0.1C72.4,49.9,72.3,49.7,72,49.3z M71.3,49.1c0.1,0.1,0.4,0.4,0.5,0.4
		c0.1,0.1,0.1,0.6,0.2,0.9c-0.7,0.1-1.5-0.4-1.9-1C70.5,49.3,71,49.1,71.3,49.1z M71.3,53.3c0.2,0.2,0.6,0.2,1,0.1
		c0.2,0.4,0.2,0.9,0.5,1.4c-1,0.2-1.7-0.2-2.1-1C70.9,53.7,71.1,53.4,71.3,53.3z M68.7,51.6c0.4,0.1,1,0.2,1.5,0.4
		c0.2,0.4,0.2,0.9,0.5,1.2C69.5,53.4,68.4,52.7,68.7,51.6z M71.4,53.2c-0.2-0.4-0.6-0.7-0.9-1.2c0.6-0.1,1.2,0.1,1.9,0.1
		c0.1,0.4,0.2,0.9,0.4,1.2C72.1,53.2,71.6,53.2,71.4,53.2z M70.8,50.9c-0.5-0.6,0.6-0.5,1.1-0.5c0.2,0.4,0.2,0.9,0.5,1.4
		C71.8,51.7,70.9,51.7,70.8,50.9z M63,50.2c0.6,0.1,1.2,0.2,2,0.4c0.1,0.1,0.2,0.5,0.4,0.6c-0.5,0-0.9,0.1-1.2,0
		c-1.4-0.2-2.9-0.1-4.2-0.5C60.8,50.7,61.9,49.9,63,50.2z M58.7,51.4c1.9,0,3.7,0.5,5.6,1c0.6,0.2,1.1,0.6,1.5,1.1
		c-2.4,0.2-4.9-0.5-7.1-0.4c-1.2-0.1-2.2,0.2-3.4,0.5l-0.2-0.4C56.1,52.4,57.2,51.8,58.7,51.4z M57.9,53.3c2.2,0.1,4.4,0.5,6.5,1
		c0.5,0.4,0.9,0.7,1.2,1.1c-3.7,1.1-7.9,0.1-11.6,1.1c-0.7,0.2-1.5,0.5-2.2,0.6C52.6,54.8,55.2,53.3,57.9,53.3z M53.2,64.9
		c-1.2,0.2-2.7,0.4-3.6-0.5c-0.4-1.2,0.4-2.5,1.6-3c2.5-1.2,5.4-1.6,8.1-2.1c2-0.4,3.9-0.5,5.9-0.7c0.7,0,1.4,0,2,0.1
		c-1,1.1-2.6,1.7-4,2.4C59.9,62.4,56.8,63.9,53.2,64.9z M67.9,95.2c-0.1,0.2-0.1,0.4-0.2,0.6c-0.7,1.5-1.2,3.2-3.2,4
		c-1-3-1.9-6-2.5-9.1c-0.7-2.2-0.7-4.6-1.1-7c0-2.4-0.4-4.6-0.4-6.9c0-0.6,0.1-1.4,0.7-1.7c0.6,1.2,0.5,2.6,0.7,4
		c0.2,2.1,0.7,4.2,1.5,6.4c1.1,3,2.4,5.9,4.2,8.5C67.9,94.4,67.9,94.8,67.9,95.2z M68.2,94.2c-1.6-2.7-3.1-5.5-4.1-8.5
		c-0.9-2-1.1-4.2-1.5-6.4c0-1.5-0.2-3.1,0.5-4.5c0.7,1.5,0.9,3.1,1.5,4.6c0.5,1.4,1.2,2.6,2,3.7c1.6,2.9,4.1,5.2,6.9,7.2
		C72.8,92.7,70.3,93.6,68.2,94.2z M78.5,88.1c-1.1,1.2-3,1.9-4.9,2.1c-1-1-2.2-1.6-3.2-2.6c-1.4-1.4-2.6-2.9-3.6-4.5
		c-0.9-1.9-2-3.7-2.4-5.9c0.1-0.2,0.2-0.6,0.4-0.9c0.5,0.5,0.7,0.9,1.2,1.2c1.1,1.4,2.4,2.6,3.6,3.9c2.5,2.5,6,4.1,9.4,5.7
		C78.9,87.5,78.6,88,78.5,88.1z M79.5,87c-1.9-0.5-3.6-1.6-5.4-2.5c-1.9-1-3.2-2.5-4.7-3.9c-1.5-1.7-3.1-3.9-2.9-6.1
		c0.1,0,0.4,0,0.5,0c1.1,1.4,2.1,2.7,3.5,3.9c2.1,2.1,5,3.5,7.9,4.7c0.2,0.1,0.6,0.2,0.7,0.4c1,0.5,2.2,0.7,3.4,1
		c0.1,0.1,0.2,0.4,0.5,0.5C82.5,86.2,81,86.9,79.5,87z M82.4,84.1l-0.2,0.1L82,84.1c-2.4-0.6-4.6-1.5-6.7-2.6
		c-0.4-0.2-0.6-0.4-0.9-0.5c-2.6-1.9-5.2-4-6.5-6.9c0-0.2,0.1-0.5,0.1-0.7c1.5,1.5,2.9,3.1,4.6,4.4c0.1,0,0.4,0.2,0.5,0.4
		c3.4,2.1,7.2,3.4,11.2,4.1c1.2,0.2,2.5,0.4,3.7,0.7C86.7,84.2,84.2,84.6,82.4,84.1z M79.4,78.4c2.2,0.7,4.5,1.4,6.7,1.7
		c0.7,0.1,1.5,0.2,2.2,0.5c0.7,0,1.5,0.1,2.1,0.4c0.9,0.2,1.9,0,2.6,0.5l0.1,0.1c-1.2,0.7-2.9,0.7-4.4,0.9c-5.4-0.7-10.9-2.1-15.3-5
		c-1.7-1.1-3.5-2.4-4.2-4.1c0.1,0,0.4,0,0.5-0.1c0.9,0.6,1.9,1.1,2.6,1.7C74.6,76.4,76.9,77.5,79.4,78.4z M67.8,54.7
		c-0.1-0.4-0.4-0.7-0.6-1c0.4-0.1,0.9-0.2,1.2-0.2c0.1,0.2,0.4,0.6,0.5,0.9C68.5,54.4,68.2,54.6,67.8,54.7z M68.3,53.1
		c-0.2,0.1-0.6,0.1-0.9,0.2c0-0.7,0.5-1.6,0.7-2.2c0.2-0.2,0.5-0.5,0.7-0.6c0.4,0.1,0.9,0.2,1.2,0.2c0.1,0.4,0.1,0.6,0.2,1
		c-0.7,0.1-1.5-0.4-2-0.7c-0.1,0.7-0.1,1.5,0.2,2.1L68.3,53.1z M68.8,53.3c0.5,0,0.9,0.2,1.4,0.2c0.2,0.4,0.4,0.9,0.6,1.2
		C69.8,54.9,68.8,54.3,68.8,53.3z M69.3,54.9c0.6,0.1,1.6-0.1,1.7,0.7c-0.1,0.1-0.5,0.5-0.6,0.6c-0.1,0-0.5-0.4-0.7-0.5
		C69.5,55.7,69.4,55.2,69.3,54.9z M70.1,57c-0.4-0.4,0.4-0.9,0.6-0.4C71.3,57,70.5,57.5,70.1,57z M71.3,57c0.2-0.2,0.9-0.1,1.1,0.1
		C72.4,57.7,71.1,57.5,71.3,57z M72.3,56.9c-0.9-0.1-1.7-1.7-0.5-1.9C72.5,55.3,72.1,56.3,72.3,56.9z M73,57.8
		c-0.2-0.4-0.1-0.5,0.4-0.6C73.6,57.4,73.6,57.7,73,57.8z M73.5,56.9c-0.1,0-0.5-0.1-0.7-0.2c-0.1-0.5-0.5-1,0-1.6
		c0.4,0.1,0.7,0.2,1.1,0.4C74,55.9,74.1,56.5,73.5,56.9z M74.4,55.9c-0.1-0.2-0.1-0.4,0.4-0.5C75,55.8,74.9,55.9,74.4,55.9z
		 M75,55.3c-0.1,0-0.6-0.2-0.7-0.2c-1.1,0.4-1.5-0.6-1.7-1.4c0.6-0.2,1.1-0.1,1.7,0.1c-0.2,0.2-0.2,0.6,0,0.9c0.4-0.2,0-0.7,0.6-0.9
		c0.1,0.1,0.2,0.4,0.2,0.6l0.4-0.2c0,0.1,0.1,0.4,0.2,0.4C75.5,54.9,75.3,55,75,55.3z M74.6,52.3c0.5,0.1,1,0.2,1.6,0.1
		c-0.1,0.5-0.2,1-0.5,1.6C74.9,54.1,74.6,52.8,74.6,52.3z M76.1,53.9c0.1-0.5,0.2-0.9,0.4-1.4c0.5,0.1,1.1,0.2,1.6,0.5
		C77.5,53.4,77,53.8,76.1,53.9z M76.8,52.2c-0.2-0.5-0.2-1-0.1-1.5c0.5-0.2,1.1,0,1.6,0.1c-0.2,0.6-0.2,1.2,0.1,1.9
		C77.8,52.6,77.1,52.6,76.8,52.2z M78.8,52.6c-0.4-0.5-0.5-1.2-0.1-1.7c0.5,0.1,1.1,0.4,1.6,0.5C79.9,51.8,79.4,52.4,78.8,52.6z
		 M80.3,50.9c-0.4-0.1-0.9-0.2-1.4-0.4c0-0.2-0.1-0.6-0.2-0.9c0.1-0.4,0.1-0.6,0.2-0.9c0.5-0.1,0.9,0.2,1.5,0.2
		C80.3,49.8,80.1,50.4,80.3,50.9z M82.3,49.6c-0.6-0.2-1.4-0.5-1.6-1c0-0.1-0.2-0.2-0.2-0.2l0.1,0.6c-0.5,0-1-0.1-1.5-0.2
		c-0.1-0.4-0.2-0.6-0.5-1c0,0.4,0.1,0.7,0.1,1.1c-0.4-0.1-0.9-0.2-1.4-0.4c0.4-0.4,0.9-0.6,1.1-1v-0.1c0.2-0.5,0.5-1,0.7-1.4
		c-1.7,0.5-3.4,1.5-4.6,2.6c0-0.1-0.1-0.4-0.1-0.5c1.4-0.9,2.4-1.9,3.6-2.6c1.7-0.9,4-0.7,5.7-1.6c-1.5-0.1-3,0.5-4.5,0.7
		c-0.1-0.1-0.6-0.2-0.9-0.4c1.2-0.4,2.5-0.5,3.7-0.9c-0.5,0-1-0.1-1.5-0.1c-0.1-0.1-0.2-0.4-0.1-0.6c0.2,0,0.7,0.1,1,0.1
		c0-0.2,0-0.4,0.1-0.5L81,42.3c0-0.7,0.1-1.4,0.1-2.1c0.5,0.2,0.7,0.4,1.2,0.6c-0.1,0.5-0.2,1.1-0.1,1.6c-0.2,0.1-0.5,0.2-0.7,0.4
		c0.7,0.5,1.7,0.2,2.6,0.1c1.7-0.1,3.2-0.2,5.1-0.2c0.6,0,1.4,0,1.7-0.2c-0.9-0.2-1.7-0.1-2.6-0.1c-1.7,0-3.5,0.4-5.2,0.4
		c-0.1-0.1-0.4-0.4-0.6-0.5c1.2-0.2,2.5-0.2,3.7-0.2c1.4-0.1,2.6,0.1,3.9,0c1.6,0,3.2-0.2,4.9,0.4c-1.1,0.2-2.5,0.1-3.6,0.2
		c0,0.1,0,0.2,0.1,0.4c-2.2,0.7-4.7,0.4-7.1,0.6c0,0.1-0.2,0.5-0.2,0.6c-1,0.7-2.2,1.2-3.6,1.5l-0.4,0.1c0.2,0.4,0.5,0.9,0.9,1.4
		c-0.5,0-1-0.1-1.5-0.1c0.5,0.2,0.9,0.5,1.4,0.6c0.1,0,0.2,0,0.4,0.1c0.1,0,0.2,0,0.2,0c0.4,0.1,0.9,0,1.1,0
		C82.4,48.3,82.3,48.9,82.3,49.6z M85,47.1l-0.4-0.1c0,0.1,0.1,0.4,0,0.6c0.4,0.1,0.6,0.4,0.9,0.6c-0.7,0.2-1.4,0.1-2-0.2
		c0-0.4,0-0.7,0-1.2c-0.2,0.1-0.5,0.2-0.5,0.2c0,0.2,0,0.6,0.1,0.7c-0.5,0-1.2,0-1.6-0.4c-0.2-0.2-0.4-0.6-0.7-1
		c0.9-0.5,2-0.9,3-1.2c0.1,0.2,0.2,0.5,0.4,0.7l0.1,0.1c0-0.6,0-1.1,0.2-1.7c0.2-0.1,0.5-0.1,0.6-0.1c0.4,0.2,0.6,0.6,1,1
		c-0.1,0.5-0.4,1.1-0.6,1.7h-0.1C86,47.2,85,47.6,85,47.1z M85.7,46.6c0.4-0.5,0.6-1,1.1-1.4c0.2,0.2,0.4,0.6,0.6,0.9h0.2
		c0.1,0,0.4,0.2,0.5,0.4c-0.4,0.4-0.7,0.6-1,1.1c-0.1,0.4,0.2,1.1-0.5,1.1c-0.4-0.2-0.7-0.7-1.1-1.2C85.7,47.2,85.7,46.8,85.7,46.6z
		 M88.1,46.1c-0.2-0.4-0.6-0.7-1-1.1c-0.6-0.1-1.2-0.5-1.9-0.7c0.5,0,1-0.1,1.5-0.2c0.1,0.2,0.4,0.7,0.5,1c0.1-0.4,0.2-0.7,0.2-1.1
		c0.6,0.1,1.4,0.1,2,0.2c-0.2,0.5-0.4,1-0.5,1.6c0,0.1-0.1,0.4-0.1,0.5C88.6,46.1,88.2,46.1,88.1,46.1z M83.5,50.6
		c-0.2,0.1-0.6,0.1-0.9,0.2c0-0.2-0.1-0.5,0-0.6c0.2,0,0.7-0.1,1.1-0.1c-0.9-0.2-0.7-1-0.7-1.7c0.6-0.2,1.1,0,1.7,0.2
		c0.1,0.5,0.4,1,0.7,1.5C84.9,50.2,83.4,49.8,83.5,50.6z M85.5,49.8c-0.4-0.6-0.6-1.5,0.2-1.9c0.5,0.9,1.7,1.1,2.5,1.6
		C87.4,49.8,86.4,49.8,85.5,49.8z M87.6,48.7c0-0.6,0.2-1.1,0.6-1.6c0.1-0.1,0.4-0.4,0.5-0.5c0.4,0.4,0.7,0.9,1.1,1.2
		c-0.2,0.4-0.5,0.7-0.9,1.2c0.1,0.2,0.4,0.7,0.4,0.9C88.6,49.7,87.9,49.3,87.6,48.7z M90.7,49.8c-0.4-0.1-0.9-0.2-1.1-0.4
		c0-0.5,0.2-1.1,0.6-1.5C90.5,48.4,91.2,49.1,90.7,49.8z M90.4,46.9c-0.6,0.4-1-0.2-1.1-0.6c0-0.2-0.1-0.6-0.2-1
		c0.2-0.2,0.5-0.6,0.9-0.9c0.4,0.4,0.6,0.6,1,1.1c-0.1,0.4-0.5,0.7-0.5,1.1V46.9z M90.5,46.9c0,0,0.1-0.2,0.1-0.4
		c0.4-0.1,0.9-0.2,1.1-0.4c0.4,0.2,0.7,0.6,1.1,0.9c-0.4,0.4-0.6,0.9-1,1.2c-0.2,0.1-0.9,0.2-1,0.4C90.7,48.2,90.4,47.6,90.5,46.9z
		 M91.2,49.8c0-0.1-0.1-0.4-0.1-0.5c0.1-0.1,0.5-0.5,0.6-0.6c0.4,0.5,0.7,0.9,1.1,1.4C92.4,49.9,91.9,49.8,91.2,49.8z M92.4,48.7
		c0.2-0.5,0.5-1,0.7-1.5c0,1.1,1,2,1.7,2.9C93.7,50.4,92.9,49.6,92.4,48.7z M95.1,50.1c-0.5-0.5-0.1-1.2-0.1-1.9
		c-0.2,0.2-0.6,0.5-0.9,0.7c-0.4-0.7-0.5-1.5-0.1-2.2c0.1,0.1,0.6,0.5,0.9,0.6c-0.1-0.5-0.4-1.1-0.5-1.6c0.5-1.1,1.1-2,2.4-2.5
		c0.2,0.4,0.5,0.9,0.9,1.4c-0.4,0.4-0.6,0.5-0.9,0.9l-0.2,0.1c-0.5,0.5-0.7,1.1-0.9,1.9c-0.2,0.1-0.5,0.2-0.6,0.4
		c0.6,0.6,1.4,1.4,2.1,2.1c0.1,0.5,0.4,1,0.6,1.5C96.7,50.8,95.7,50.7,95.1,50.1z M98.6,51.6c-0.9-0.5-1.4-1.5-1.2-2.5
		c0.5-0.5,0.9-1.2,1.5-1.5c0.2,0.1,0.6,0.2,0.9,0.4c0.2,0.4,0.4,0.9,0.6,1.4C99.6,49.9,98.2,50.6,98.6,51.6z M99,51.6
		c-0.1-0.9,0.9-1.4,1.5-2c0,0.9,0.2,1.9,0.4,2.7C100.2,52.2,99.5,51.9,99,51.6z M101.2,52.4c0-0.2,0.1-0.5,0.1-0.7
		c0.1-0.1,0.4-0.4,0.5-0.5c0.2-0.1,0.9-0.2,1.1-0.1c-0.2,0.7-0.6,1.5,0,2.2C102.2,53.2,101.7,52.8,101.2,52.4z M103.1,53.2
		c0-0.2-0.1-0.5-0.2-1c0.4-1,1.1-2.4,2.5-2.2c0,0.2,0,0.6,0.1,0.9c0.2,0.4,0.2,0.9,0.5,1.2c-0.7,0.2-1.4,0.5-2.1,0.7
		c0.1,0.1,0.1,0.6,0.2,0.9C103.7,53.6,103.3,53.3,103.1,53.2z M106.6,54.8c-0.9-0.2-1.6-0.6-2.2-1.1c0-0.2,0-0.5,0-0.7
		c0.5-0.1,1-0.4,1.5-0.6c0.2,0.1,0.6,0.2,0.9,0.4C106.5,53.4,106.1,54.2,106.6,54.8z M106.6,52.7c-0.6-1.1-1.2-2.4-0.2-3.5
		c0-0.1,0.1-0.2,0.1-0.4c0.2-0.1,0.5-0.2,0.7-0.4c0.1,0.5,0.1,0.9,0.1,1.4c0,0.9,0.7,1.6,1.2,2.1C108,52.2,107.2,52.3,106.6,52.7z
		 M109.8,49.8c-0.2,0.5-0.4,1-0.6,1.4c-0.1,0-0.5,0-0.5,0.1c-0.5-0.6-0.9-1.2-1-2l0.1-0.2c0.4-1,1.1-1.9,2.2-2.4
		c0.4,0.7,0.9,1.6,1.6,2.1C110.8,49.1,110.3,49.4,109.8,49.8z M111.6,48.7c-0.1-0.1-0.4-0.5-0.4-0.6c-0.5-0.5-0.7-1.1-0.9-1.7
		c0.1-0.9,0.7-1.6,1.4-2.2l0.2-0.2c0.4-0.2,0.7-0.4,1.1-0.6c0,0.9,0.4,1.9,1,2.6c-0.2,0.1-0.6,0.4-1,0.5c-0.1,0.1-0.5,0.2-0.6,0.4
		C112.2,47.3,111.9,48.1,111.6,48.7z M112.6,50.1c-0.7-1-0.5-2.1,0.4-3.1c0.5,0,0.9-0.1,1.5-0.2c0.5,1,1.1,1.7,1.1,2.9
		c0,0.6,0.4,1.2,0.6,1.7c-0.6,0.7-1,1.6-2,1.9c-0.5-1-1-1.9-0.5-2.9c0.2-0.7,1-1.1,1.5-1.7c-0.1,0-0.2-0.1-0.4-0.2
		c-0.9,0.2-1.2,1-1.6,1.7C112.9,50.3,112.7,50.2,112.6,50.1z M114.8,54.4c-0.6,0.6-1.2,1.2-1.9,2c0-0.5-0.1-0.9,0-1.2
		c0.4-0.7,0.9-1.5,1.9-1.7C114.8,53.7,114.8,53.9,114.8,54.4z M118.2,53.2c-1,0.1-2,0.5-2.9,1c-0.1-1.5,1-2.6,2.5-3
		C117.7,51.8,117.8,52.6,118.2,53.2z M120.2,53.3c-0.6-0.2-1.2-0.2-1.9-0.5c0-0.5-0.1-1-0.1-1.5c0.4-0.6,1.2-1.4,2.1-1.6
		c0.2,1,0.7,1.7,1.4,2.5C121.1,52.4,120.6,52.8,120.2,53.3z M120.9,50.1c-0.1-0.5,0.2-1.1,0.5-1.7c0.1,0,0.4-0.2,0.5-0.2
		c0.5-0.2,1-0.6,1.6-0.7c0.1,0.1,0.4,0.6,0.5,0.7c0.2,0.4,0.6,0.7,1,1.1c-1.4,0.5-2.4,1.6-3,2.9C121.7,51.3,121.1,50.8,120.9,50.1z
		 M124,55.3c-0.6-0.7-1.6-1.6-1.5-2.7c0.1-1.5,1.5-2.6,3-3.4c-0.1,1.2,0.1,2.5,0.9,3.6c0.2-0.2,0.5-0.4,0.2-0.6
		c-0.2-0.6-0.5-1.1-0.6-1.7c0-1.6,1.2-3.1,3-3.7c0.4,0.7,0.7,1.4,1.2,2.1c-0.9,0.5-1.6,1.1-2.2,1.7c1-0.1,1.5-1,2.5-1.2
		c0.4-0.1,0.9,0.2,0.9,0.6c0.2,1,0.7,1.7,1.4,2.5c-0.4,0.1-0.9,0.2-1.2,0.5c-0.2,0.1-0.5,0.2-0.9,0.5c-0.4,0.2-0.6,0.4-0.9,0.5
		c-0.5-0.9-1.2-1.9-0.7-2.9c-0.2,0.2-0.4,0.4-0.5,0.6c0.4,0.9,0.6,1.6,1.2,2.5l-0.2,0.1v0.2c-0.1,0.4-0.5,0.7-0.6,1.1
		c-0.6-0.7-1.1-1.5-1.2-2.5c-0.1-0.1-0.2-0.4-0.5-0.5C126,53.6,124.9,54.3,124,55.3z M127.2,59.7l-0.4-0.1c-1-0.4-2.1-0.9-2.4-1.7
		c-0.2-1.7,0.6-3.6,2.6-4.1c0.5,1,0.9,1.9,1.6,2.5C127.4,56.8,126.5,58.3,127.2,59.7z M130.8,59.7v0.2c-0.1,0-0.4,0.1-0.5,0.1
		c-0.7-0.1-1.4-0.2-2.1-0.2c-0.2-0.5-0.7-1-0.5-1.7c0.1-0.6,0.7-1.1,1.2-1.6c0.2,0.6,0.7,1.2,1.1,1.9
		C130.2,58.8,130.4,59.3,130.8,59.7z M130.4,58.4c-0.7-1-1.2-2.1-0.7-3.4l0.1-0.4c0.7,0.7,1.4,1.5,1.5,2.5
		C131.3,57.7,130.8,58,130.4,58.4z M131.9,56.8c-0.6-0.7-1.4-1.4-1.7-2.2c0.6-1,1.9-1.6,3.1-1.9c0,0.9-0.4,2,0.6,2.7
		C133.2,55.9,132.5,56.4,131.9,56.8z M139.9,56.8L140,57c-1.4,0.4-2.7,0.5-3.9,0.9l-0.2,0.1c-0.4,0.1-0.9,0.2-1.2,0.4
		c-0.7-1.5-0.2-3.1,1.2-4.1c0.4-0.4,1-0.7,1.5-1c0.5,0,0.9,0.2,1,0.6c0,0.2,0,0.6,0.1,0.7C138.9,55.5,139.4,56.2,139.9,56.8z
		 M140.8,50.7c-1.2,0.5-2,1.6-2.5,2.6c-0.5-0.9-1.1-1.7-1.1-2.6c0-0.9,0.5-1.9,1.2-2.5c0.4-0.4,0.6-0.5,1-0.7
		c0.2-0.1,0.5-0.2,0.5-0.4c0.5,1.1,0.9,2.4,1.7,3.2C141.4,50.3,141.1,50.6,140.8,50.7z M146.6,51.1c0-0.1,0.2-0.2,0.4-0.4
		c-0.4-0.9-0.9-1.7-1-2.6c0.2-1.4,1.2-2.5,2.6-3.1c0.5,1.7-0.1,3.6-0.9,5.2c-0.1,0.6-0.9,1-1.4,1.4c-0.7,0.5-1.5,1-2.1,1.6
		c0,0.1,0.1,0.4,0,0.5c-1-0.7-1.2-2-1.5-3c0.2-1.5,1.5-2.6,2.9-3.2c0,0.6,0.1,1.1,0.2,1.6C146,49.8,146.3,50.4,146.6,51.1z
		 M143.8,43.4c0,0.6,0.4,1.4,0.6,2.1c0.4,0.6,0.6,1.1,0.9,1.7c-0.5,0.1-1,0.4-1.4,0.5v0.2l-0.2,0.1c-0.5,0.6-1.1,1.2-1.5,2
		c-1-1-1.7-2.2-1.4-3.6C141,44.9,142.3,43.8,143.8,43.4z M142.3,43.3c-1.2,0.9-1.9,2.1-2.2,3.4c-1.1-0.7-2-1.7-2.2-3
		c0.1-0.9,0.5-1.7,0.9-2.5l0.4,0.2c0.1-0.4,0.4-0.6,0.5-1c0,0,0-0.1,0.1-0.2c0.2-0.1,0.5-0.2,0.7-0.5
		C140.4,41,141.1,42.3,142.3,43.3z M141.6,37.1c0,0.1-0.1,0.4-0.4,0.5c-0.2,0.2-0.5,0.5-0.6,0.9c-0.1,0.4-0.4,0.7-0.6,1
		c-0.5-0.2-0.9-0.5-1.2-0.7l-0.1-0.2c-0.6-1.1-1.4-2.7,0-3.9c0.4,0,0.6,0.1,0.9,0.1C140,35.8,140.9,36.3,141.6,37.1z M138.5,32.6
		c0.1,0.4,0,0.7,0,1.1c-0.6,0.9-1.2,1.9-1,3c-1.4-0.6-2.1-1.7-2.5-3c0-0.1,0-0.2-0.1-0.4c0.2-1,1.2-1.4,2.2-1.6
		C137.6,32.1,138.3,32.2,138.5,32.6z"/>
	<path d="M156.7,42.9c0-0.1,0.1-0.2,0.1-0.4c-1.4-1.2-3.1-2.2-5-2.6c-0.6-0.1-1.2-0.1-1.9-0.1c0.1,0.1,0.2,0.6,0.4,0.7
		c-0.4,0.1-0.9,0.2-1.4,0.5c0.4,0,0.7,0,1-0.1c2,0.6,4.1,1.2,5.7,2.6c0.2,0.1,0.5,0.2,0.7,0.2c-0.1-0.1-0.4-0.4-0.6-0.5
		c-0.1-0.1-0.1-0.5-0.2-0.7c0.2-0.1,0.5-0.1,0.7-0.2C156.5,42.4,156.6,42.8,156.7,42.9z"/>
	<path d="M160.7,52.1l0.1,0.2c0.1,0,0.1-0.1,0.2-0.2c-0.2-0.1-0.6-0.2-0.9-0.2l-0.1-0.1c-2.6-1-5.4-1.5-8.1-2.2
		c-0.2,0.1-0.4,0.1-0.6,0.2c2.7,0.7,5.5,1.5,8.1,2.2C160,52.1,160.2,52.2,160.7,52.1z"/>
	<path d="M135.4,67.4c-0.7,0.1-1.6,0.1-2.5,0.2c-0.2,0-0.5,0-0.7,0.1c0,0.1,0.1,0.4,0.2,0.4c2.4-0.1,6.7-0.4,8.9-1.9
		c-0.4-0.1-2.7,0.9-3.2,0.9C137.1,67.3,136.3,67.3,135.4,67.4z"/>
	<path d="M149.5,43.8c0,0.1,0,0.2,0,0.2c0.1,1.1,0.2,2.2,0.2,3.4c0.1,0.1,0.4,0.4,0.5,0.5c0-0.9,0.2-1.7,0.2-2.7
		c0-0.2-0.1-0.4,0-0.6l-0.1-0.4c-0.1-0.5-0.2-1-0.2-1.4c-0.1-0.5-0.5-1.1-1.2-1.2c0.2,0.4,0.4,1,0.5,1.4
		C149.4,43.3,149.5,43.4,149.5,43.8z"/>
	<path d="M148.9,59.8c1.4,0,2.9-0.2,4-0.9c-0.1-0.1-0.1-0.5-0.1-0.6c0.5-0.2,0.9-0.4,1-0.9c-2.6,0.4-5.2,0.9-8,0.4
		c0,0.1-0.1,0.2-0.1,0.2c0.5,0.2,0.9,0.5,0.7,0.9c-0.5,0-0.9,0-1.4,0C146.1,59.9,147.6,60,148.9,59.8z"/>
	<path d="M149,51.7v-0.4c-0.1,0-0.4,0.2-0.4,0.4c-0.6,1-0.9,2.2-2,3.1c-0.5,0.4-0.7,0.9-0.9,1.5c0.5-0.1,1-0.5,1.5-0.7
		c0.2-0.2,0.5-0.6,0.7-1C148.5,53.7,148.9,52.7,149,51.7z"/>
</g>
<g>
	<path d="M122,117.4c0.1-0.1,0.4-0.4,0.5-0.5c-2-2-3-4.6-4.6-6.7c-1.4-2-3-3.6-5-5.1c-0.2-0.2-0.7-0.4-1-0.5c0,1.1,0.5,2.1,0.9,3.1
		c-0.9-1.5-1.6-3.2-2-4.9c-0.4-0.9-0.9-1.7-1.1-2.5v-0.1c-0.1-0.1-0.1-0.5-0.1-0.7c0.5-1.1,0.9-2.5,0.7-3.9c-0.1-1,0.5-1.9,1.1-2.7
		c0.1-0.1,0.4-0.4,0.5-0.4c1.1-1.1,2.2-2.2,3.6-3.1c-1.1,0.1-2,1-2.6,1.7c-0.2,0.2-0.6,0.5-0.9,0.7l0.1,0.1c-0.6,0.4-1,0.9-1.5,1.4
		c-1.4,0.4-2.1,1.6-2.2,2.7c-0.5,0.9-0.2,2.1,0,3c0.7,1.5,1.5,2.9,2,4.4c0.7,2.2,2.1,4.4,2.5,6.7c0.2-0.2,0.5-0.4,0.6-0.7
		c0.2-1.4-0.6-2.7-1-4.1c1.2,0.6,2.1,1.7,3.2,2.6C118.1,110.9,119.8,114.4,122,117.4z"/>
	<path d="M113.2,95.5c-0.1-0.4-0.2-0.6-0.4-1c1-0.9,2.1-1.5,3.5-2h-0.1c-0.4,0-0.6-0.1-1-0.1c-1.1,0.6-2.4,1.1-3.2,1.9
		c-0.4,0.2-0.2,0.6-0.4,1c-0.1,1.5-0.5,2.9-0.6,4.5c0.4,2.1,2.2,3.7,4.4,4.7c0.2,0.1,0.4,0.4,0.5,0.4c0-0.1,0-0.1,0.1-0.2
		c-0.9-0.6-1.6-1.2-2.5-1.9c-0.4-0.6-1.1-1.4-0.6-2c1.5-0.5,3,0.4,4.5,0.5v0.1c0.4,0.1,0.7,0.1,1,0.4c-0.2-0.5-1-0.6-1.5-0.6
		c-1.7-0.9-4.1-1.2-4.9-2.9c0-0.2,0.1-0.5,0.2-0.7c0.6-0.4,1.5-0.7,2.2-0.9c1.1-0.1,2.4,0.1,3.5-0.2c0,0.1,1,0,1.1,0.1
		c0-0.1-1-0.1-1-0.2C116.6,96,114.8,95.8,113.2,95.5z"/>
	<path d="M112.1,103.2c1.4,2.1,4,3.6,5.6,5.6h0.1c0.6,0.9,1.4,1.7,2,2.7c0.9,1.4,1.4,2.7,2.2,4.1c0.1,0.1,0.1,0.2,0.2,0.4
		c0.6,0.9,1.4,2.2,2.1,3c-0.7-0.5-1.4-1-1.6-1.7c0,0.1-0.4,0.4-0.4,0.4c1.9,2.4,10.1,7.1,12.9,8.6c0.1-0.4-4.5-3.1-5-3.7
		c-2.9-1.5-5.5-4-7.4-6.4c-1.5-2.2-2.1-4.9-4.1-6.9c0.1,0,0.4-0.1,0.4-0.1c1,0.9,2.1,1.6,3.5,2.1c0.4,0.6,1.1,0.9,1.7,1.1
		c4.5,2.5,9.4,4.4,14.5,6c0.6,0.2,1.5,0.1,1.5,0.9c-0.2,0.2-0.4,0.5-0.6,0.7c0,0.6,0,1.1-0.1,1.7c0,0.7,0.2,1.4,0.5,2.1
		c0.1,0.6,0.4,1.2,0.7,1.9c-0.6-1.1-0.4-2.5-0.2-3.7c0.2-0.2,0.5-0.6,0.9-0.7c0.9,1.4,0.7,3,1,4.4c0,0.5,0.2,1,0.4,1.5l-0.4,0.1
		c-0.4-0.2-0.7-0.6-1.1-0.9c0.4,0.6,1,1.1,1.5,1.6c0.6,0,0.6,0.6,0.9,0.9c0.9,1.6,2.2,3.1,4.4,4c1.9,0.6,3.2,2,5.2,2.5
		c0.1,0,0.5,0,0.7,0c0.6,0,1.4-0.2,1.9,0.2c0.1,0,0.2-0.1,0.4-0.1l0.1,0.1c0.7,0.4,1.6,0.6,2.6,0.9c1.2,0.1,2.6-0.1,3.7-0.6
		c0.7,0.2,1.5,0.4,2.2,0.5c0.5,0,1-0.1,1.5-0.1c0.4-0.2,0.7-0.5,1.1-0.6c0-0.2,0.1-0.5,0.4-0.7c0,0,0-0.1-0.1-0.1
		c0.2-0.9,0.1-2-0.4-2.7c-0.9-2.1-2.6-3.9-4.2-5.6l-0.2-0.2c-0.5-0.5-0.4-0.4-0.9-0.9c-1-1-1.9-2-3-2.9c-0.4-0.4-0.7-0.9-1.2-1.2
		c1.5,0,3-0.1,4.6-0.2c0.7,0,1.5,0,2.2-0.1c0.7,0,1.5-0.1,2.2-0.2c3.5-0.4,7-0.9,10.4-1.6l0.4-0.1c3.1-0.9,6-1.4,9-2.6
		c2.4-0.9,4.7-1.9,6.9-3.1v-0.2c-0.6-0.9-0.9,0.4-1.6,0.5c-0.2-0.2-0.5-0.4-0.7-0.5c-0.4-0.1-0.6-0.1-1-0.1c0.1-0.5,0.2-0.9,0.2-1.4
		c0.1,0,0.4-0.2,0.6-0.2c0.7,0.5,1.6,0.7,1.9,1.6c0.2-0.1,0.6-0.2,0.7-0.4c0,0.2,0,0.6,0.1,0.9c0.6-0.4,1.4-0.7,2.1-1.2
		c0.4-0.2,0.6-0.4,1-0.5c0.6-0.5,1.2-0.9,2-1.1v-0.1c2.1-1.5,4.2-3.2,6-5.1c-0.1-0.1-0.4-0.4-0.4-0.5c0.2-0.4,0.4-0.9,0.1-1.4
		c0.2,0,0.9,0,1.1,0.1c-0.2,0.6-1.1,1.1-0.9,1.9c1-1,1.9-2.1,2.7-3.2c-0.4-0.5-0.6-1-0.9-1.6c1.1-0.4,1,0.9,0.7,1.4
		c0.7-0.4,1.1-1.2,1.6-1.7c0.6,0.2,1.1,0.5,1.9,0.6c0.6,0.2,1.2,0.2,1.7,0.4c0.1,0,0.5,0,0.7,0c0.7,0,1.4-0.1,2.1-0.2
		c1.1-0.1,1.9-0.9,2.7-1.2c1.1-0.1,2.2-0.5,3.1-1c0.6-0.2,1.1-0.6,1.5-1.2h0.1c0.7-0.9,2-1.5,2.6-2.5c0.4-0.4,0.4-1,0.5-1.5
		c-0.1-1.2,0.5-1.9,0.7-2.6c0.4-1,0.5-1.2,0.6-2c0,0,0.2-0.4,0.2-0.7c0-0.4,0-0.5,0-0.7c0.2-0.5,0.4-1,0.4-1.5
		c-1.1-1.5-3.2-1.2-4.9-1c-3.1,0.9-6,2.1-8.9,3.4l-0.2-0.1c0.1-0.4,0.4-0.7,0.5-1.1c0.1-0.6,0.5-1.2,0.7-2c0.1-0.5,0.4-1,0.5-1.4
		c0.1-0.5,0.2-0.9,0.4-1.2c0.1-0.5,0.2-0.7,0.4-1.2c0.5-1.7,0.9-3.5,1.1-5.2c0-0.4,0.1-0.9,0.2-1.2c0.2-1.1,0.2-2.1,0.2-3
		c0.1-2,0.1-4.2,0.1-6.4c0-0.7,0-1.6-0.1-2.4c0-1.5-0.2-3-0.2-4.5h-0.5c0.2,2,0.2,4,0.5,6.1c-0.2,3.2-0.1,6.6-1,9.9
		c-0.2-1.7,0-3.5-0.2-5.2c-0.4-3.1-0.9-6.4-1.5-9.4c-0.1-1-0.4-2-0.6-3c-0.6-2.2-1.2-4.5-2-6.7c1-0.5,2-1,3-1.1
		c0.1,0.1,0.4,0.5,0.5,0.6c0.5-0.6,0-1.4-0.1-2.1c-0.4-1.1-0.5-2.5-1.7-3.2c-0.2,0.4-0.6,0.7-1,1.1c-0.4,0.9-0.7,1.7-1.4,2.5
		c-0.7,0.5-1.6,0.7-2.1,1.2c-0.2,0.4-0.6,0.7-1,1c-0.9,1.2-1.1,2.7-1.4,4.1c-0.9,0.4-1.9,0.5-2.7,1c-0.4,0.4-0.7,0.6-1.2,1
		c-0.4,0.4-0.5,0.6-0.9,1c-0.7,0.6-1.5,1.4-2.6,1.5c-1.2,0.2-2.2,0.6-3.1,1.1c-0.2,0.2-0.4,0.4-0.6,0.6c-0.4,0.4-0.7,0.6-1.1,1.1
		c-0.6,0.2-1.2,0.5-1.9,0.4c-0.7,0.1-1.5,0.5-2.2,0.7c-0.2,0.2-0.6,0.5-0.9,0.7c-0.9,0.9-2.1,1.4-3.5,1.2c-2,0.2-3.4,1.7-5.2,2.4
		c-0.6-0.1-1.4,0-2,0c-2.2,0.4-4.4,1.4-6.7,1.6c-1.2,0-2.5,0.2-3.7,0.4c-1.2,0.2-2.4,0.2-3.5,0.7c0.6,0.7,1.7,0.1,2.5,0
		c0.4,0,0.6,0,1,0c0.5,0,0.9-0.1,1.2-0.1c0.2-0.1,0.5-0.1,0.7-0.1c0.4,0,0.7,0,1.2,0c1.6-0.1,3.5,0,5.1,0.1c1,0,1.9,0.1,2.7,0.2
		c0.5,0,1,0.1,1.6,0.2c0.9,0.1,1.9,0.2,2.6,0.4h0.1c0.4,0.1,1,0.2,1.4,0.2c0.9,0.2,1.5,0.4,2.4,0.6c0.7,0.2,1.5,0.5,2.2,0.6
		c2.7,0.9,5.4,2,7.7,3.5c1.1,0.6,2,1.4,3,2.1c0.5,0.5,0.9,0.9,1.4,1.4c1.7,2.1,3,4.7,2.7,7.4c-0.4,3-1.9,5.7-4.1,8
		c-1.2,1.2-2.6,2.2-4.1,3.1c-0.9,0.5-1.7,0.9-2.6,1.2c0.4,0,0.7,0,1.1,0.1c0.5,0.5,0.4,1.6-0.4,1.9c-0.2-0.4-0.7-0.5-1.1-0.7
		c0-0.4,0.2-0.7,0.2-1.1c-3.2,1.2-7,1.5-10.4,1.1c-2.4-0.4-4.6-1-6.7-1.7c-3.7-1.6-7.5-3.2-11.5-4.6c-0.6-0.2-1.1-0.4-1.9-0.6
		l-0.5-0.1c0.9,0.9,2,1.9,1.7,3.1c0.2,0.1,0.4,0.1,0.7,0.2c0.1-1-1-1.7-1.2-2.7c0.7,0.2,1.5,0.5,2.1,1c-0.4,0.4-0.9,0.6-1,1.1
		c0.7-0.1,1.1-0.6,1.5-1.2c0.6,0.2,1.4,0.5,2,1c0.4,0.6-0.1,1.4-0.5,2c-0.5,0.1-1.1,0.4-1.6,0.6c-0.2-0.7-0.6-1.4-1-2.1
		c-0.1,1,1,2,0.4,3.1c-0.4,0.9-1.4,1.4-2.4,1.9c-0.1-0.9-0.7-1.6-1.2-2.2c1-0.5,1.9-1,2.5-1.7c-0.1,0-0.4-0.1-0.6-0.2
		c-0.4,0.7-1.1,1.2-1.9,1.6c-0.2-0.4-0.5-1-0.6-1.4c1.4-1.1,1.2-2.7,0.7-4.2l0.6-0.2c-0.2-0.1-0.5-0.1-0.7-0.1l-0.5,0.2l-0.1,0.1
		c-0.1,0.1-0.2,0.1-0.5,0.2c0.2,0,0.7,0,0.9-0.1c-0.7,2.1-3.4,3.9-6.1,3.4c-2-0.4-3.4-1.7-4-3.4l-0.4,0.1c0.6,1.2,1.4,2.6,3,3.2
		c-0.4,0.4-0.9,0.7-1.4,1.1c0.1-1.4-1-2.4-2.1-3.2c0.1-0.5,0.1-1.1,0.6-1.6c0-0.1-0.1-0.4-0.2-0.4c-0.4-0.7-1.4-1.2-2.1-1.9
		c1.1,0.2,2.4,0.4,3.4,1.1c1.4,1.1,1.9,2.6,3,3.6c0.6,0.2,1.1,0.2,1.6-0.1c1-0.4,2-1,2.9-1.5c-0.7,0.4-1.5,0.6-2.2,0.9
		c-0.1-0.2-0.2-0.5-0.4-0.7c2.9-3.5,5.9-7,9.2-10.1c0.5-0.5,1-1,1.6-1.4c1.2-0.5,2.9-0.7,3.7,0.4c0.7,1.1,0.9,2.6,0.6,4
		c-0.5,0.5-1,0.9-1.6,1.1c-2.7,1.6-5.5,3.1-8.2,4.6v0.1c0,0.1,0.1,0.1,0.2,0.1c0.2-0.1,0.5-0.1,0.6-0.1c2.2-1.2,4.6-2.5,6.7-3.7
		c1.1-0.7,2.5-1.4,3.4-2.4c0.2-0.2,0.6-0.2,0.7-0.5c0.4-0.4,0.6-0.5,1-0.7c1.1-1.1,2.5-2.7,1.9-4.2c-0.4-1-1.7-1.4-2.9-1.4
		c-1,0-2,0-2.6-0.7c-0.6-0.2-1.4-0.5-2-0.7c-0.5,0-1,0-1.4,0c-0.4,0-0.7,0-1,0.1c-0.5,0.1-1.1,0.2-1.6,0.2c0-0.1-0.2-0.2-0.4-0.2
		c-0.4-0.1-0.7-0.1-1.1-0.1l-0.1-0.1c-1.1,0.1-2.5,0.1-3.6,0.6c-0.9,0.4-1.9,0.4-2.7,0.5c-1.5,0.5-3.1,1-4.2,2
		c1.1-0.7,2.4-1.4,3.7-1.7l0.1,0.4c-0.7,0.5-1.4,1.1-1.7,1.9c-1.9,2.5-2.6,5.5-4.4,8c-0.1,0-0.4-0.1-0.5-0.1
		c-0.1-0.2-0.2-0.4-0.4-0.7c0-0.2,0-0.5,0.1-0.7c0.1-0.5,0.1-1,0.2-1.6c0.1-0.5,0.2-1,0.5-1.5c0.2-0.9,0.6-1.7,1.1-2.6
		c-0.2,0.1-0.5,0.2-0.7,0.4c-1.1,1.7-1.7,3.6-3,5.4c-0.1,0-0.4,0-0.5,0c-0.9-0.9-0.6-2,0-3c-0.6,0.7-1.1,1.5-1.5,2.4
		c-0.4,0.5-0.4,1.1-0.4,1.7c-0.4,0.4-0.1,0.9-0.1,1.4c-0.1,0-0.4,0.1-0.5,0.1c-0.6-0.1-1.4-0.1-2-0.2c-0.4,0-0.7,0-1.1-0.1
		c0,0.2,0.1,0.5,0.1,0.7c0.4-0.2,0.7-0.4,1.1-0.6c0,0.4-0.1,0.2,0,0.5c0.1,0.1,0.7,1,0.7,1.1c-0.2-0.1-0.2,0-0.4-0.2h-0.2
		c-0.1,1.5-1.5,2.2-2.9,3.1c0-0.9,0.2-1.9,0-2.7c0.4-0.2,0.7-0.4,1-0.5c-0.1,0-0.4-0.1-0.6-0.2c-1.7,0.5-3.1,1.4-4.9,1.6
		c-1.5,0.4-3.1,0.7-4.5,1.4c0.7-0.2,1.5-0.5,2.4-0.6c0.2,0.2,0.4,0.6,0.7,0.9c0.1,0.1,0.4,0.5,0.4,0.7v0.1c0.1,0,0.1,0.1,0.1,0.1
		c0,0.2,0,0.6,0,0.7c0,1-0.4,2-1.5,2.6c-0.1,0.1-0.4,0.4-0.6,0.4c-0.4,0.1-0.7,0.2-1,0.4c-0.5-1.2-1.1-2.5-1.7-3.6v-0.2
		c0-0.2,0-0.6,0-1c-0.1,0.1-0.4,0.2-0.5,0.4c-0.1,0-0.4,0.2-0.5,0.2c-1.4,1.4-2.5,3-3.2,4.7c-0.4,0.9-0.6,1.6-0.9,2.4
		c-0.2,1.1-0.1,2.1,0,3.2c0.1,0.9,0.7,1.6,1.2,2.2c0-0.2,0-0.6,0-0.7c-0.1-0.5-0.5-1-0.4-1.4c0.6-0.6,1.4-1.1,2-1.7
		c0-0.1,0.4-0.4,0.5-0.5c0.6,1.1,1.7,2.4,1.1,3.6c-0.2,0.6-0.5,1.1-1,1.5c0,0.1-0.2,0.2-0.4,0.4c0.1-0.1,0.2-0.1,0.4-0.1
		c0.6-0.7,1.2-1.7,2.5-2c1,1.1,2.1,2.4,1.9,3.9c-0.1,0.4-0.2,0.6-0.4,0.9c0,0.1-0.1,0.4-0.1,0.5c-0.4,0.4-0.6,0.5-1,0.7
		c-1.2-1.1-2.9-2-4-3.4l0,0h-0.1c-0.1,0-0.4-0.2-0.4-0.2c-0.2-0.1-0.4-0.2-0.5-0.4c1.9,2.4,4.7,4,6.9,6c1,0.9,1.1,2.1,1.7,3.1
		l-0.5-0.1c-1.5-3.1-5-5.1-8.2-6.9c0.6,1,1.7,1.5,2.7,2.1c1.6,1.1,3.5,2.4,4.1,4.1c-4.4-1.4-8.6-3.5-12.5-5.9
		c-1.4-0.9-2.6-1.7-4-2.6c-2.6-2.2-5.5-4.5-7.2-7.4c-0.7-1.1-0.1-2.4,0.1-3.6c0.2-1.1,0-2.2,0.6-3.2c0.9-1.2,2.4-2,3.9-2.5
		c1.9-0.9,3.9-1.2,5.9-1.7c5.7-1,11.9-1.1,17.7-0.7h0.1c0.1,0,0.2-0.2,0.4-0.4c-1.5,0-3-0.1-4.5-0.1c-0.9,0-1.7,0-2.5,0
		s-1.7,0-2.6,0.1c-0.6,0-1.1,0-1.6,0.1c-0.5,0-0.7,0.1-1.2,0.1c-1.2,0-2.5,0.2-3.9,0.4c1.5-1,3.6-1.6,5.1-3c0.4-0.2,0.6-0.4,1-0.6
		c1-0.5,3.1-1.7,4.1-2.1c-0.1,0-1.7,0.6-1.9,0.6c-1.4,0.2-2.7,0.6-3.7,1.2c-3,2-6.1,4.1-9.7,4.9c-1,0.4-2.2,0.6-3.1,1.1
		c-0.6,0.2-1.2,0.5-1.9,0.9c-0.7,0.5-1.6,1.1-1.9,2c-0.2,0.7-0.1,1.6-0.2,2.5c-0.2,0.7-0.5,1.6-0.5,2.4c-0.1,0.4-0.1,0.5-0.1,0.7
		C110.3,101.3,111.2,102.3,112.1,103.2z M167.2,79.3c0.6,0.5,0.9,1.1,0.9,1.9c-0.7,1.4-2.4,2.2-3.5,3.4c-2.2,2.2-4.5,4.5-6.7,6.6
		c-0.5,0.2-0.7,0.6-1.2,0.9c-0.1-0.4-0.2-0.7-0.2-1.1c0.2-0.5,0.4-1,0.5-1.4c0.9-2.1,2.4-4,3.4-6.1c0.5-0.6,1-1.4,1.6-2.1
		c0.4-0.4,0.5-0.6,0.9-0.9C163.6,78.8,165.7,78.8,167.2,79.3z M153.6,87.2c0.9-2.7,1.7-5.5,4-7.7c1-1.1,2.7-1.5,4.4-1.6
		c0.7,0.2,1.2,0.6,1.5,1.2c-0.4,0.4-0.7,0.6-1.1,1c-0.4,0.4-0.6,0.9-1,1.2c-2,2.2-3.4,5.1-5.4,7.4c-0.6,0.5-1.1,1.2-2,1.4
		c-0.2-0.4-0.4-0.6-0.6-1.1C153.4,88.6,153.5,87.9,153.6,87.2z M140.8,118.7c-0.6-0.1-1.4-0.4-2-0.6c0.4-0.1,0.7-0.4,1.2-0.5
		c0.4-0.9,1.6-1,2.4-1.6c0.6-0.5,0.7-1.1,1.2-1.7c0.7,0.6,1.5,1.5,1.1,2.5c-0.5,1.1-1.6,1.6-2.9,1.7
		C141.4,118.6,141,118.6,140.8,118.7z M140.3,115.9c-0.1-1.4-1.4-2.2-2.6-3.1c1.2-0.7,1.6-2.1,3-2.5c1.1,0.9,1.9,2.1,2.1,3.5
		c0,1.2-1.4,2.1-2.5,2.7C140.4,116.4,140.4,116.1,140.3,115.9z M137.4,96.7c0.7-0.4,1.6-0.7,2.2-1.2c0.2-0.4,0.6-0.9,1-1.1
		c1.2,1,0.7,2.5,0,3.5c-0.6,0.7-1.4,1.6-2.5,2C138.4,98.8,138,97.7,137.4,96.7z M138.9,100.1c0.5-0.4,1-0.9,1.6-1.2l0.2-0.1
		c0.2-0.4,0.5-0.9,0.9-1.4c0.5,0.5,0.9,0.9,1.4,1.2c0.1,0.4,0.2,0.7,0.4,1.1h-0.1c-0.1,1.5-1.4,2.9-3.2,3.4c-0.4-1-0.7-2-1.7-2.7
		C138.4,100.2,138.6,100.2,138.9,100.1z M148.4,104.2c-0.4-0.4-0.9-0.7-1.2-1.1c1-0.6,1.9-1.4,2.4-2.4c0.2,0.2,0.6,0.6,0.9,0.9
		c0.1,0.4,0.4,0.6,0.6,0.9c0.1,0.2,0.2,0.5,0.5,0.9c-0.1,0.5-0.4,1-1,1.2c-0.2-0.1-0.6-0.4-0.9-0.5c0.1,0,0.1-0.1,0.2-0.2
		C149.4,104.1,148.9,104.3,148.4,104.2z M150.7,108.7c1.1-0.1,2.1,0.6,3,1.1c-0.2,0.2-0.4,0.4-0.7,0.5c-0.5,0.2-1.1,1.2-1.9,0.7
		C151.2,110.3,151.1,109.4,150.7,108.7z M157.6,114.1c0.4,0,0.7-0.1,1.1-0.1c-0.4,0.5-0.6,1-1.1,1.5c-0.1,0.1-0.2,0.2-0.4,0.4
		c-0.5-0.5-0.7-1.7-1.6-1.1c0.5,0.7,0.9,1.4,1.2,2.2c-0.1,0.5-0.2,1.1-1,1.1c0.2,0.6,0.4,1.2,0.6,1.7H156c-0.9-1-1.9-2-3-2.9
		c-0.5-0.5-1-1-1.7-1.2c-1.2,0.5-2.1,1.2-3.2,2s-2.9,1.1-4.4,1.1c1.4-0.6,2.6-1.4,3.6-2.4c1.1-1.1,2.9-1.9,4.5-1.5
		c1.6,0.2,2.5,1.5,3.9,2.2c-0.4-0.6-0.9-1.4-1.5-1.9c0.1-0.4,0.4-0.7,0.6-1c0.5-0.1,1.1-0.5,1.6-0.6l-0.2-0.1c0.4-0.6,0.7-1.4,1.2-2
		c0.2,0.1,0.5,0.5,0.6,0.6c0.1,0.5,0.2,1,0.4,1.6c-0.5-0.2-0.9-0.6-1.2-1C157.2,113.2,157.4,113.7,157.6,114.1z M158.5,116.8
		c0-0.1-0.1-0.2-0.2-0.4c-0.1-0.2-0.4-0.4-0.4-0.6c0.5-0.6,1.2-1.1,1.7-1.7c0.4,0.4,0.7,0.6,1.1,1l0.1,0.1c0.9,1.4,0.2,3.4-1.4,4
		c0-0.5-0.1-1-0.1-1.6C158.9,117.4,158.7,117.2,158.5,116.8z M160.1,113.9c0.4-0.2,0.6-0.5,0.9-0.9c0.4-1,1.7-0.5,2.4-0.1
		c0.1,0.4,0.2,0.6,0.2,1c-0.1,0.4-0.1,0.5-0.1,0.9c-0.2,0.6-0.6,1.1-1.1,1.6c-0.2,0.1-0.5,0.2-0.6,0.4c-0.2-0.4-0.4-0.9-0.6-1.2
		c0,0,0-0.1-0.1-0.1C160.7,114.8,160.5,114.4,160.1,113.9z M159.5,113.8c-0.2-0.6-0.5-1.1-0.9-1.6c-0.2-0.2-0.5-0.5-0.6-0.7
		c0.6,0,1.1,0.2,1.5,0.5c0.4,0.2,1,0.1,1.2,0.5C160.6,113.1,160.1,113.4,159.5,113.8z M143.9,113.8c1.6-0.7,2.6-2.4,2.7-3.9
		c1.7,1.1,2.2,3.5,1,5c-0.6,0.6-1.5,1.2-2.5,1.4C145.4,115.3,144.6,114.6,143.9,113.8z M143.4,113.7c-0.6-1.2-1-2.7-2.5-3.6
		c0.9-0.7,1.7-1.7,1.9-2.7c0.5-0.1,1.2-0.2,1.6,0.1c1.2,1.1,1.9,2.7,1,4.2C145,112.6,144.3,113.1,143.4,113.7z M148.5,114.1
		c1-0.5,2-1,2.4-1.9c0,0.1,0.2,0.2,0.4,0.2c0,0.6,0.1,1.4-0.5,1.9c-0.6,0.2-1.4,0.5-2,0.6C148.6,114.7,148.6,114.4,148.5,114.1z
		 M155.9,113.4c-0.4,0.1-0.6,0.2-0.9,0.5c-0.2-0.5-0.4-1-0.6-1.5c-0.4-0.5-0.7-1-1.1-1.5c0.4-0.4,0.7-0.5,1-0.9l2.5,1.2
		C156.7,112.1,156.2,112.7,155.9,113.4z M152.9,111.3c0.4,0.2,0.7,0.5,1,0.9c0.5,1,0.6,2.1,0.1,3.1c-0.9-0.2-1.7-0.6-2.7-0.7
		c0.5-0.6,0.6-1.4,0.4-2.1C151.5,111.7,152.2,111.4,152.9,111.3z M150.9,111.2l-0.2,0.1c0,0.1-0.1,0.5-0.2,0.7l-0.1,0.1
		c-0.2,0.6-1,1-1.5,1.5c-0.1-1.4-0.4-2.7-1.6-3.7c0.1,0,0.4-0.2,0.4-0.4c0.4-0.4,0.7-0.7,1-1.1c0.1-0.1,0.4-0.4,0.5-0.5
		c0.2,0.1,0.5,0.5,0.6,0.6C150.5,109.3,150.7,110.3,150.9,111.2z M147.6,104.3c0.1,0.1,0.4,0.6,0.5,0.7c-0.5,0.5-1.1,1-1,1.6
		c0.1,0.5,0.9,0.7,1.2,1.1c0,0.2,0,0.5,0.1,0.6c-0.6,0.5-1.2,1-1.9,1.4c-0.5-1.1-1.1-2.2-2.1-3c1.1-1,1.5-2.2,1.7-3.5
		C146.8,103.6,147.3,104,147.6,104.3z M143,107c0-0.2,0-0.6-0.1-0.9c0-0.1-0.1-0.1-0.1-0.2c-0.5-1-1.4-1.7-2.1-2.5
		c1.1-0.5,2.1-1.1,2.7-2c0.1-0.2,0.1-0.4,0.2-0.6c0.2,0.1,0.5,0.2,0.7,0.4C146.5,102.8,145.5,106.1,143,107z M138.5,105.5
		c-0.4,0.1-0.7,0.2-1,0.4c-0.5-1.1-1.2-2.2-2.2-3c1.2-0.5,2.1-1.4,2.7-2.4C139.4,101.8,139.9,104,138.5,105.5z M139,105.3
		c0.6-0.4,0.7-1.1,1-1.7c0.7,0.6,1.5,1.2,2.1,2l0.1,0.5c0.5,1.6-0.7,3.2-2.4,4.1c-0.1-1.2-0.7-2.4-1.6-3.4c-0.1,0-0.5-0.2-0.6-0.4
		C138,106.1,138.5,105.7,139,105.3z M137.6,107c1,0.6,1.5,1.7,1.7,2.7c0.1,1.1-0.9,2.1-2,2.7c-0.1-0.4-0.4-0.6-0.6-1
		c-0.1,0-0.4-0.2-0.4-0.4c0-0.1-0.1-0.2-0.1-0.4c0.4-0.4,0.5-1.1,0.7-1.7c0.1-0.4,0.2-0.6,0.2-0.9
		C137.4,107.8,137.5,107.3,137.6,107z M144,129.8c-1.6-2-0.7-4.5-0.6-6.7l1.2-2.1c1.2,2.7,0.5,5.7,1.5,8.6c0.2,1,0.7,1.7,1.1,2.6
		C145.9,131.9,145.1,130.5,144,129.8z M152.2,133.4c0,0.1-0.6,0.2-0.9,0.4c-0.2-0.1-0.6-0.1-1-0.2c-0.9-0.4-1.7-0.9-2.5-1.2
		c-0.6-1-1-2-1.5-3c-0.4-2.4-0.5-4.9-0.2-7.4c0.1-0.5,0.2-0.9,0.4-1.4l1.2-0.4c1.4,2,1.7,4.2,2.4,6.5c0.1,0.5,0.2,1,0.4,1.5
		c0.2,1.6,1.2,3.1,2,4.6C152.6,133,152.4,133.3,152.2,133.4z M156.6,133.8c-1,0.5-2.4-0.2-3.4-0.6c-0.9-1.4-1.4-2.7-2-4.1
		c0.1-0.5-0.1-0.9-0.2-1.4c-0.4-1.9-0.7-3.9-1-5.9c0-0.4,0-0.9,0.1-1.4c0-0.2,0.1-0.5,0.1-0.9c0.2-0.1,0.5-0.1,0.6-0.4
		c0.1,0.1,0.4,0.5,0.4,0.6c2.5,3.6,3.7,7.7,6.4,11.2C158.1,132.2,157.7,133.4,156.6,133.8z M162.5,126.9c0.6,0.9,1.5,1.7,1.7,2.7
		c-0.5,1-0.9,1.9-1.5,2.9c-0.2,0.2-0.6,0.4-0.9,0.6c-0.4,0-0.7,0.1-1.1,0.1c-0.6-0.2-1-0.4-1.6-0.5c-2.1-2.4-3.2-5.4-4.5-8.1
		c-0.7-2.1-1.7-4.2-2.4-6.5c0.5,0,0.9-0.4,1.5,0c1,0.6,1.6,1.5,2.5,2.1C158.2,122.3,160.4,124.5,162.5,126.9z M157.9,120.4
		c-0.4,0-0.9,0.1-1.1,0.1c-0.1-0.6-0.2-1.4-0.5-2c0.4-0.5,0.6-1.1,0.9-1.7c0.2,0,0.6,0,0.7,0c0.5,0.7,1.1,1.5,1,2.5
		C158.5,119.7,158.2,120.2,157.9,120.4z M162.1,119.2c0,0.1-0.2,0.5-0.4,0.6c-0.5,0.1-0.9,0.4-1.5,0.5c-0.5,0-0.9,0.1-1.4,0.1
		c0-0.1-0.1-0.4-0.4-0.4c0.2-0.2,0.5-0.4,0.9-0.6c1.2-0.2,1.6-1.2,2.2-2.1c0.1,0.2,0.4,0.7,0.5,1
		C162.2,118.7,162.2,118.9,162.1,119.2z M162.8,118.9c-0.2-0.6-0.6-1.2-1-1.9c0.4-0.2,0.7-0.5,1.1-0.7c0.7-0.5,1.1-1.2,1.4-1.9
		c0.2,0.2,0.6,0.6,1,0.9C165.7,116.8,164.6,118.3,162.8,118.9z M183.7,113.7c-0.5,0.1-1.1,0.1-1.6,0.2c-3.9,0.2-7.6,0.1-11.5-0.2
		c-6-0.7-12.2-2.2-17.6-5c-1.6-0.9-3.4-1.7-4.2-3.2c1.9-0.4,3.1,1.1,4.5,1.9c3.6,1.9,7.9,2.6,12.1,2.5c4.4,0.4,9,0,13.3,0.7
		c1,0.1,1.7,0.6,2.2,1.4c1.1,0.4,2.1,1,3.2,1.4C183.9,113.4,183.8,113.6,183.7,113.7z M159.9,101.5c0.1,0.5,0.4,1,0.4,1.6
		c0,1.1-0.7,2.5-2.1,2.9c-0.2,0-0.6-0.1-1-0.2c-0.6,0.4-1.6,0.2-2.2-0.1c0-0.1-0.1-0.4,0-0.5c0.5-0.5,0.9-1,1.2-1.6
		c0,0.1,0.1,0.4,0.2,0.5c0.1-0.1,0.5-0.4,0.7-0.5c0-0.1-0.2-0.4-0.4-0.4h-0.4c-0.4-1-0.7-1.9-1.5-2.6c0.9-0.4,1.6-0.9,2.1-1.5
		c0.5-0.1,1-0.4,1.5-0.5c0.2,0.6,0.6,1.2,0.6,1.9c0,1-0.7,1.9-1.6,2.5l-0.1,0.5C158.6,103,159.2,102.1,159.9,101.5z M177.3,105.3
		c0.5,0.5,1,1,1.4,1.4c-1,0-2,0.1-3,0.2C176.3,106.5,176.8,105.8,177.3,105.3z M176.6,103c-0.1-0.1,0.1-0.4,0.2-0.5
		c0.1,0,0.4-0.2,0.6-0.2c0.6-0.4,1.1-1,1.5-1.5c0.2,0.6,0.7,1,1,1.7c0,0.5-0.2,1-0.4,1.5c0,0.1-0.1,0.2-0.1,0.4
		c-0.1,0-0.4,0.2-0.6,0.2c-0.4,0.2-0.7,0.5-1.1,0.6C177.4,104.3,177.1,103.7,176.6,103z M176.7,105c0.1,0.6-0.5,1.2-1.2,1.5
		c-0.2,0-0.6-0.1-0.9,0c-0.4-0.4-0.6-0.9-0.9-1.4c0.7-0.6,1.4-1.4,2-2.1C176.1,103.5,176.9,104.1,176.7,105z M174.2,106.6
		c-0.6,0.2-1.4,0.1-2.1,0.2c0.4-0.4,0.7-1,1.1-1.4C173.5,105.8,173.8,106.2,174.2,106.6z M175.2,101.7c-0.1,0.1,0,0.6,0,0.7
		c-0.1,0.9-0.7,1.6-1.5,2.1c-0.4-0.7-0.6-1.4-1-2c0.6-0.4,1.5-0.7,2.2-0.4c0-0.2,0-0.5,0-0.7c-0.2,0.1-0.7,0.2-0.9,0.4v-0.2
		c0.2-0.2,0.5-0.6,0.7-1c0.2,0.2,0.5,0.7,0.7,1L175.2,101.7z M174.8,100c-0.5,0.5-0.9,1-1.2,1.4c-0.4,0.4-1,0.6-1.5,0.9
		c-0.4-0.7-0.7-1.5-1.1-2.1c1-0.9,2.2-1.4,3.7-1.6C174.7,99.1,174.7,99.6,174.8,100z M172.1,102.8c0.2,0.6,0.9,1.1,0.9,1.7
		c-0.1,0.9-0.9,1.6-1.5,2.2h-0.2c-0.4-0.6-0.7-1.4-1.2-2C170.7,104.2,171.5,103.5,172.1,102.8z M170.6,106.7c-0.7,0-1.5-0.1-2.2-0.2
		c0.2-0.2,0.4-0.6,0.6-0.9c0.1-0.1,0.2-0.4,0.5-0.5C170,105.6,170.3,106.1,170.6,106.7z M171.2,102.7c-0.2,0.2-0.5,0.5-0.6,0.9
		c-0.1,0.4-0.6,0.5-1,0.5l-0.1-0.1c-0.4-0.7-0.6-1.4-1.1-2c0.1-0.1,0.4-0.4,0.5-0.5c0.5-0.5,1-1,1.2-1.6c0.6,0.9,1.2,1.7,1.5,2.7
		L171.2,102.7z M169,104c0.1,0.6-0.2,1.2-0.4,1.9c0,0.1-0.2,0.2-0.4,0.4c-0.4,0.4-0.7,0.5-1.2,0.5c0.1-0.2,0.2-0.6,0.4-0.9
		c-0.2-1-0.7-1.7-1.4-2.5c0.6-0.4,1.2-0.9,1.9-1.1C168.2,102.7,168.8,103.2,169,104z M166.7,106.6c-0.5,0-1,0.1-1.5,0
		c-0.5,0-1-0.1-1.6-0.2c1.1-0.6,1.6-1.7,2.2-2.7C166.5,104.3,166.7,105.5,166.7,106.6z M167.3,107.9c-1.2,0.5-2.9,0.1-4.2-0.1
		c-1.4-0.2-2.9-0.2-4-1c0.9-0.2,1.6,0.1,2.4,0.2C163.5,107.6,165.5,107.7,167.3,107.9z M161.3,106.5c-0.6-0.2-1.2-0.5-2-0.5
		c0.4-0.6,0.9-1.2,1.4-1.7c0.4,0.6,0.9,1.2,1.1,1.9C161.8,106.2,161.6,106.3,161.3,106.5z M155.9,102.8c-0.1,0.2-0.2,0.6-0.4,1
		c0,0.1,0,0.2-0.1,0.4c0,0.1-0.1,0.2-0.1,0.4c-0.5,0.2-1,0.5-1.5,0.7c-0.1,0-0.5-0.1-0.6-0.1c-0.2-0.6-0.7-1.2-1.1-1.9
		c0.6-0.2,1.2-0.6,1.9-0.9v-0.1c0.2-0.4,0.5-0.9,0.9-1.2C155.1,101.3,155.5,102.1,155.9,102.8z M181.1,110.8
		c-0.9,0.2-1.6-0.4-2.4-0.5c-2.4-0.4-4.7-0.4-7.1-0.5c-0.6,0-1.2,0-2,0c-3.6-0.1-7.5-0.2-11-1.1c-1.5-0.5-3.1-0.9-4.1-1.9
		c0.4-0.1,0.5-0.1,0.9-0.2c0.4,0.2,1,0.5,1.6,0.6c3.1,1,6.5,1.4,9.7,1.4c1.1,0.1,2.2-0.1,3.2,0.1c4.6,0.2,9.6-0.4,14.1,0.7
		c0.5,0.5,1.4,0.6,1.9,1.2C184.3,110.7,182.7,110.6,181.1,110.8z M183.2,106.1c-0.5-0.5-1-0.9-1.2-1.4c0.1,0,0.2-0.2,0.4-0.4
		c-0.4-0.2-0.5-0.4-0.9-0.5c0.4-0.4,0.6-0.7,1-1c0.4,0.2,0.9,0.6,1.2,0.9C183.8,104.5,183.7,105.3,183.2,106.1z M184.4,104.3
		c0.6,0.4,1.1,0.9,1.5,1.4c-0.7,0.4-1.6,0.7-2.4,1c0-0.1-0.1-0.4,0-0.5C184.1,105.7,184.3,105,184.4,104.3z M182.8,106.7
		c-1.1,0.1-2.2,0.5-3.4,0.2c0.7-0.5,1.5-1.1,2-1.7C182.1,105.7,182.6,106.2,182.8,106.7z M191.4,110.7c-0.4-0.2-0.7-0.2-1-0.5
		c0.1-0.5,0.4-0.9,0.5-1.2c-0.1,0-0.4,0.1-0.5,0.1c0,0.5-0.2,1.1-0.6,1.4c-0.1-0.6-0.7-1-1.4-1.4c0.4-0.1,0.7-0.2,1-0.4
		c0-0.2,0-0.6,0.1-0.9c0.5,0.2,1,0.6,1.5,0.9l-0.1-0.5l0.6-0.2l0,0l0,0h0.1l0,0c0.7-0.1,1.5,0,2.1-0.4c-0.2,0.5-0.5,1-0.7,1.5
		c-0.2-0.2-0.5-0.4-0.7-0.6c0.4,0.2,0.5,0.7,0.7,1.1c0,0.6,0,1.1-0.2,1.7C191.9,111.6,191.8,110.9,191.4,110.7z M194.7,110.9
		c-0.4,0.4-0.9,0.9-1.6,1c-0.4-1,0.2-2,0.1-3.1c0.5,0.2,0.9,0.5,1.2,0.6C194.5,110.1,194.7,110.4,194.7,110.9z M195.2,111.1
		c-0.1-0.5-0.1-0.9-0.1-1.4c0.5-0.1,1,0.2,1.5,0.4C196,110.6,195.5,110.8,195.2,111.1z M196.7,109.9l-0.6-0.5h-0.1
		c-0.2,0-0.6,0-0.9,0c0.1-0.5,0.2-1.1,0.2-1.6c0.1,0,0.4,0,0.6,0C197.4,107.9,197,109.2,196.7,109.9z M195.7,107.6
		c0.1-0.5,0.4-1,0.6-1.4c0.4,0.1,1.2-0.2,1.4,0.4c0,0.5-0.2,1-0.4,1.5C196.8,107.8,196.2,107.5,195.7,107.6z M197.4,109.3
		c-0.4-0.2,0-0.7,0.4-0.7C198.2,108.8,197.9,109.3,197.4,109.3z M199.4,107.7c-0.2,0.6-1.1,1-1.9,0.5c0.1-0.4,0.2-0.6,0.4-1
		c-0.1-0.1-0.1-0.5-0.2-0.6C198.7,106.3,199.4,107,199.4,107.7z M199.7,106.6c-0.5-0.1-1.1-0.4-1.7-0.4c0-0.2,0-0.7,0-1
		c0.5-0.4,1-1,1.5-1.4c0.1,0.1,0.1,0.5,0.1,0.6c-0.1,0.2-0.4,0.4-0.5,0.6C199.4,105.6,199.7,106.1,199.7,106.6z M201.3,106.6
		c-0.5,0.1-0.9,0.1-1.4,0.1c0.1-0.5,0-1.1-0.2-1.6c0.4,0,0.7,0,1.2,0C201.5,105.5,201.5,106,201.3,106.6z M201.5,105.8
		c0-0.7-0.7-1-1.6-1c-0.1-0.2-0.2-0.6-0.4-0.9c1.1-0.2,2.2,0.4,2.6,1.2C202.1,105.3,201.6,105.7,201.5,105.8z M202.5,105.2
		c-0.1-0.4-0.4-0.7-0.5-1h0.5c-0.1-0.1-0.2-0.6-0.4-0.7c-0.2,0.2-0.4,0.4-0.7,0.5c-0.5-0.2-0.9-0.2-1.2-0.5c0.5-0.5,1-1,1.5-1.4
		c0.4,0.5,0.5,1,0.2,1.4l0.5-0.1c0.1,0.1,0.2,0.4,0.2,0.5h-0.1C203.3,104.2,203,104.7,202.5,105.2z M197.5,99.3
		c1.1,0,2.4,0.6,2.2,1.6c-0.5,0.6-1.6,0.1-2.4-0.1C197.7,100.2,197.8,99.8,197.5,99.3z M201.4,100.3c0,0.1,0,0.2,0,0.2
		c-1.2,0.7-2,2.1-3.6,2.4C198.8,102,200,101,201.4,100.3z M200.8,99.8c-0.1,0.4-0.2,0.5-0.6,0.4C199.3,100,200.5,99.3,200.8,99.8z
		 M199.8,99.5c0.1-0.4,0.2-0.6,0.2-0.9c0-0.2-0.2-0.6-0.2-1c0.4,0.1,1,0.2,1.4,0.4c0.4,0.4,0.4,0.9,0.5,1.4
		C201.1,100,200.4,99.1,199.8,99.5z M202,100.8c0,0.4-0.1,0.5-0.5,0.1C201.4,100.6,201.6,100.5,202,100.8z M202.6,103.8
		c0-0.6-0.2-1.1-0.4-1.6c0.7,0,1.1,0.4,1.4,0.9C203.6,103.6,203.1,103.8,202.6,103.8z M205.1,102.2c-0.6-0.1-1.4-0.1-2.1-0.2
		c-0.2-0.1-0.6-0.1-1-0.2c0.1-0.5,0.1-1-0.1-1.4c1.2-0.5,1.1,1.1,1.6,1.6c0.1-0.4,0.1-0.7,0-1.1c0.4,0.1,0.7,0,1.1,0.1
		C205,101.3,205.4,101.7,205.1,102.2z M203.1,97.8c0.4,0.4,0.7,0.9,1,1.4c-1-0.2-2.4-0.1-2.5-1.1C202,97.7,202.6,98,203.1,97.8z
		 M201.9,97.6c-0.1-0.5-0.1-1,0-1.4c0.7,0.2,1.5,0.6,1.6,1.2C203,97.6,202.4,97.6,201.9,97.6z M204.1,100.5c-0.1,0-0.5,0-0.5,0.1
		c-0.5-0.4-1.1-0.7-1.5-1.1c0.5-0.1,1-0.1,1.6,0.1C203.8,99.8,203.9,100.1,204.1,100.5z M204.9,100.7c-0.2-0.1-0.4-0.4-0.5-0.4
		c-0.1-0.1-0.2-0.6-0.2-0.9c0.7-0.1,1.5,0.4,1.9,1C205.8,100.6,205.1,100.7,204.9,100.7z M204.9,96.5c-0.2-0.2-0.6-0.2-1-0.1
		c-0.2-0.4-0.4-0.9-0.5-1.4c1.1-0.2,1.9,0.2,2.1,1C205.4,96.1,205.1,96.3,204.9,96.5z M207.5,98.2c-0.4-0.1-1-0.2-1.5-0.4
		c-0.2-0.4-0.2-0.9-0.5-1.2C206.6,96.3,207.9,97.1,207.5,98.2z M204.9,96.6c0.4,0.4,0.6,0.7,1,1.2c-0.6,0.1-1.2-0.1-1.9-0.1
		c-0.1-0.4-0.2-0.9-0.4-1.2C204,96.6,204.5,96.6,204.9,96.6z M205.5,98.8c0.5,0.6-0.6,0.5-1.1,0.5c-0.2-0.4-0.4-0.9-0.5-1.4
		C204.4,98.1,205.3,98.1,205.5,98.8z M213.4,99.6c-0.6-0.1-1.4-0.2-2-0.4c-0.1-0.1-0.2-0.5-0.4-0.6c0.5,0,0.9-0.1,1.2,0
		c1.4,0.2,3,0.1,4.4,0.5C215.6,99.2,214.5,99.8,213.4,99.6z M217.7,98.5c-2,0-3.9-0.5-5.7-1c-0.6-0.2-1.1-0.6-1.5-1.1
		c2.4-0.2,4.9,0.5,7.4,0.4c1.2,0.1,2.2-0.2,3.5-0.5l0.2,0.4C220.5,97.3,219.2,98,217.7,98.5z M218.5,96.5c-2.2-0.1-4.5-0.5-6.6-1
		c-0.5-0.4-0.9-0.7-1.2-1.1c3.7-1.1,8-0.1,11.9-1.1c0.7-0.2,1.5-0.5,2.4-0.6C224,95,221.4,96.5,218.5,96.5z M223.4,84.9
		c1.2-0.2,2.9-0.4,3.7,0.5c0.4,1.2-0.4,2.5-1.6,3c-2.5,1.2-5.5,1.6-8.4,2.1c-2,0.4-4,0.5-6,0.7c-0.7,0-1.4,0-2.1-0.1
		c1-1.1,2.6-1.7,4.1-2.4C216.5,87.4,219.7,85.9,223.4,84.9z M208.4,54.6c0.1-0.2,0.1-0.4,0.2-0.6c0.7-1.5,1.2-3.2,3.2-4
		c1,3,1.9,6,2.5,9.1c0.7,2.2,0.7,4.6,1.2,7c0,2.4,0.4,4.6,0.4,6.9c0,0.6-0.1,1.4-0.7,1.7c-0.6-1.2-0.5-2.6-0.7-4
		c-0.2-2.1-0.7-4.2-1.5-6.4c-1.1-3-2.5-5.9-4.4-8.5C208.4,55.5,208.4,54.9,208.4,54.6z M208.1,55.5c1.7,2.7,3.1,5.5,4.2,8.5
		c0.9,2,1.2,4.2,1.5,6.4c0,1.5,0.4,3.1-0.5,4.5c-0.7-1.5-0.9-3.1-1.5-4.6c-0.5-1.4-1.2-2.6-2-3.7c-1.6-2.9-4.2-5.2-7-7.2
		C203.4,57,205.9,56.2,208.1,55.5z M197.5,61.7c1.1-1.2,3.1-1.9,5-2.1c1,1,2.4,1.6,3.4,2.6c1.4,1.4,2.7,2.9,3.7,4.5
		c0.9,1.9,2,3.7,2.4,5.9c-0.1,0.2-0.2,0.6-0.4,0.9c-0.5-0.5-0.7-0.9-1.2-1.2c-1.1-1.4-2.4-2.6-3.7-3.9c-2.6-2.5-6.1-4.1-9.5-5.7
		C197.2,62.3,197.5,61.8,197.5,61.7z M196.5,62.8c2,0.5,3.6,1.6,5.4,2.5c1.9,1,3.4,2.5,4.9,3.9c1.6,1.7,3.2,3.9,3,6.1
		c-0.1,0-0.4,0-0.5,0c-1.1-1.4-2.2-2.7-3.6-3.9c-2.2-2.1-5.1-3.5-8.1-4.7c-0.2-0.1-0.6-0.2-0.7-0.4c-1-0.5-2.2-0.7-3.4-1
		c-0.1-0.1-0.4-0.4-0.5-0.5C193.5,63.7,195,62.9,196.5,62.8z M193.5,65.7l0.2-0.1l0.1,0.1c2.5,0.6,4.7,1.5,6.9,2.6
		c0.4,0.2,0.6,0.4,0.9,0.5c2.7,1.9,5.4,4,6.6,6.9c0,0.2-0.1,0.5-0.1,0.7c-1.5-1.5-2.9-3.1-4.7-4.4c-0.1,0-0.4-0.2-0.5-0.4
		c-3.4-2.1-7.5-3.4-11.4-4.1c-1.2-0.2-2.6-0.4-3.9-0.7C189.2,65.5,191.7,65.2,193.5,65.7z M196.8,71.4c-2.2-0.7-4.6-1.4-6.9-1.7
		c-0.7-0.1-1.6-0.2-2.2-0.5c-0.7,0-1.5-0.1-2.2-0.4c-1-0.2-2,0-2.6-0.5l-0.1-0.1c1.4-0.7,2.9-0.7,4.5-0.9c5.5,0.7,11.1,2.1,15.6,5
		c1.7,1.1,3.6,2.4,4.4,4.1c-0.1,0-0.4,0-0.5,0.1c-0.9-0.6-1.9-1.1-2.7-1.7C201.5,73.4,199.2,72.3,196.8,71.4z M208.5,95.1
		c0.1,0.4,0.4,0.7,0.6,1c-0.4,0.1-0.9,0.2-1.2,0.2c-0.1-0.2-0.4-0.6-0.6-0.9C207.8,95.3,208.1,95.2,208.5,95.1z M208,96.7
		c0.2-0.1,0.6-0.1,0.9-0.2c0,0.7-0.5,1.6-0.9,2.2c-0.2,0.2-0.5,0.5-0.7,0.6c-0.4-0.1-1-0.2-1.4-0.2c-0.1-0.4-0.2-0.6-0.2-1
		c0.7-0.1,1.5,0.4,2,0.7c0.1-0.7,0.1-1.5-0.2-2.1L208,96.7z M207.5,96.5c-0.5,0-1-0.2-1.4-0.2c-0.2-0.4-0.4-0.9-0.6-1.2
		C206.4,94.8,207.5,95.5,207.5,96.5z M207,94.8c-0.6-0.1-1.6,0.1-1.7-0.7c0.1-0.1,0.5-0.5,0.6-0.6c0.1,0,0.5,0.4,0.7,0.5
		C206.6,94.1,206.9,94.6,207,94.8z M206.1,92.7c0.4,0.4-0.4,0.9-0.6,0.4C204.9,92.7,205.8,92.2,206.1,92.7z M204.9,92.7
		c-0.2,0.2-0.9,0.1-1.1-0.1C203.8,92.1,205,92.2,204.9,92.7z M203.9,92.9c0.9,0.1,1.9,1.7,0.6,1.9C203.8,94.5,204.1,93.5,203.9,92.9
		z M203.1,92c0.4,0.4,0.1,0.5-0.4,0.6C202.5,92.4,202.5,92.1,203.1,92z M202.6,92.9c0.1,0,0.5,0.1,0.7,0.2c0.1,0.5,0.5,1,0,1.6
		c-0.4-0.1-0.7-0.2-1.1-0.4C202,93.9,202,93.4,202.6,92.9z M201.8,93.9c0.1,0.2,0.1,0.4-0.4,0.5C201.1,94,201.3,93.9,201.8,93.9z
		 M201,94.5c0.1,0,0.6,0.2,0.7,0.2c1.1-0.4,1.5,0.6,1.7,1.4c-0.6,0.2-1.1,0.1-1.7-0.1c0.2-0.2,0.2-0.6,0-0.9c-0.4,0.2,0,0.7-0.6,0.9
		c-0.1-0.1-0.2-0.4-0.2-0.6l-0.4,0.2c0-0.1-0.1-0.4-0.2-0.4C200.5,95,200.9,94.7,201,94.5z M201.5,97.6c-0.5-0.1-1.1-0.2-1.6-0.1
		c0.1-0.5,0.2-1,0.5-1.6C201.3,95.7,201.4,97,201.5,97.6z M199.9,95.8c-0.1,0.5-0.2,0.9-0.4,1.4c-0.5-0.1-1.1-0.2-1.6-0.5
		C198.7,96.3,199.2,96,199.9,95.8z M199.4,97.6c0.2,0.5,0.2,1,0.1,1.5c-0.6,0.2-1.1,0-1.6-0.1c0.2-0.6,0.2-1.2-0.1-1.9
		C198.3,97.2,198.9,97.3,199.4,97.6z M197.4,97.2c0.4,0.5,0.5,1.2,0.1,1.7c-0.5-0.1-1.1-0.4-1.6-0.5C196.2,98,196.7,97.3,197.4,97.2
		z M195.8,98.8c0.4,0.1,0.9,0.2,1.4,0.4c0,0.2,0.2,0.6,0.2,0.9c-0.1,0.4-0.1,0.6-0.2,0.9c-0.5,0.1-1-0.2-1.5-0.2
		C195.8,100,195.9,99.3,195.8,98.8z M193.8,100.2c0.6,0.2,1.4,0.5,1.7,1c0,0.1,0.2,0.2,0.2,0.2l-0.2-0.6c0.5,0,1,0.1,1.6,0.2
		c0.1,0.4,0.4,0.6,0.5,1c0-0.4-0.1-0.7-0.1-1.1c0.4,0.1,1,0.2,1.4,0.4c-0.4,0.4-0.9,0.6-1.1,1v0.1c-0.2,0.5-0.5,1-0.7,1.4
		c1.7-0.5,3.5-1.5,4.7-2.6c0,0.1,0.1,0.4,0.1,0.5c-1.4,0.9-2.5,1.9-3.6,2.6c-1.7,0.9-4.1,0.7-5.9,1.6c1.6,0.1,3.1-0.5,4.6-0.7
		c0.2,0.1,0.6,0.2,0.9,0.4c-1.2,0.4-2.5,0.5-3.7,0.9c0.5,0,1,0.1,1.5,0.1c0.1,0.1,0.2,0.4,0.2,0.6c-0.2,0-0.7-0.1-1-0.1
		c0,0.2,0,0.4-0.1,0.5l0.6-0.1c0,0.7-0.1,1.4-0.2,2.1c-0.5-0.2-0.9-0.4-1.2-0.6c0.1-0.5,0.2-1.1,0.1-1.6c0.4-0.1,0.5-0.2,0.7-0.4
		c-0.7-0.5-1.9-0.2-2.7-0.1c-1.7,0.1-3.4,0.2-5.1,0.2c-0.6,0-1.4,0-1.9,0.2c0.9,0.2,1.7,0.1,2.7,0.1c1.7,0,3.6-0.4,5.4-0.4
		c0.2,0.1,0.4,0.4,0.6,0.5c-1.4,0.2-2.5,0.2-3.9,0.2c-1.4,0.1-2.7-0.1-4,0c-1.7,0-3.4,0.2-5-0.4c1.1-0.2,2.6-0.1,3.7-0.2
		c0-0.1,0-0.2-0.1-0.4c2.2-0.7,4.9-0.4,7.2-0.6c0-0.1,0.2-0.5,0.2-0.6c1.1-0.7,2.2-1.2,3.7-1.5l0.4-0.1c-0.2-0.4-0.6-0.9-0.9-1.4
		c0.5,0,1,0.1,1.5,0.1c-0.5-0.2-1-0.5-1.4-0.6c-0.1,0-0.2,0-0.4-0.1c-0.1,0-0.2,0-0.2,0c-0.4-0.1-0.9,0-1.2,0
		C193.7,101.5,193.8,100.8,193.8,100.2z M190.9,102.8l0.4,0.1c0-0.1-0.1-0.4,0-0.6c-0.4-0.1-0.6-0.4-0.9-0.6
		c0.7-0.2,1.4-0.1,2.1,0.2c0,0.4,0,0.7,0,1.2c0.2-0.1,0.5-0.2,0.6-0.2c0-0.2,0-0.6-0.1-0.7c0.5,0,1.2,0,1.6,0.4
		c0.2,0.2,0.4,0.6,0.7,1c-1,0.5-2,0.9-3,1.2c-0.1-0.2-0.2-0.5-0.4-0.7l-0.1-0.2c0,0.6,0,1.1-0.2,1.7c-0.2,0.1-0.5,0.1-0.6,0.1
		c-0.4-0.2-0.7-0.6-1-1c0.1-0.5,0.4-1.1,0.6-1.7h0.1C189.9,102.6,190.9,102.2,190.9,102.8z M190.2,103.2c-0.4,0.5-0.6,1-1.1,1.4
		c-0.2-0.2-0.4-0.6-0.6-0.9h-0.2c-0.1,0-0.4-0.2-0.5-0.4c0.4-0.4,0.7-0.6,1-1.1c0.1-0.4-0.2-1.1,0.5-1.1c0.4,0.2,0.7,0.7,1.2,1.2
		C190.3,102.6,190.2,103,190.2,103.2z M187.8,103.7c0.4,0.4,0.6,0.7,1,1.1c0.6,0.1,1.2,0.5,1.9,0.7c-0.5,0-1,0.1-1.5,0.2
		c-0.1-0.2-0.4-0.7-0.5-1c-0.1,0.4-0.2,0.7-0.2,1.1c-0.6-0.1-1.4-0.1-2-0.2c0.2-0.5,0.4-1,0.5-1.6c0-0.1,0.1-0.4,0.1-0.5
		C187.3,103.7,187.7,103.7,187.8,103.7z M192.4,99.2c0.2-0.1,0.6-0.1,0.9-0.2c0,0.2,0.1,0.5,0,0.6c-0.2,0-0.7,0.1-1.1,0.1
		c0.9,0.2,0.7,1,0.7,1.7c-0.6,0.2-1.2,0-1.7-0.2c-0.1-0.5-0.4-1-0.7-1.5C191,99.6,192.5,100,192.4,99.2z M190.4,100
		c0.4,0.6,0.6,1.5-0.4,1.9c-0.5-0.9-1.7-1.1-2.5-1.6C188.5,100,189.5,100,190.4,100z M188.3,101.1c0,0.6-0.2,1.1-0.6,1.6
		c-0.1,0.1-0.4,0.4-0.5,0.5c-0.4-0.4-0.7-0.9-1.2-1.2c0.2-0.4,0.6-0.7,0.9-1.2c-0.1-0.2-0.4-0.7-0.4-0.9
		C187.2,100.1,188,100.6,188.3,101.1z M185.2,100c0.4,0.1,0.9,0.2,1.1,0.4c0,0.5-0.2,1.1-0.6,1.5C185.3,101.3,184.7,100.7,185.2,100
		z M185.6,102.8c0.6-0.4,1.1,0.2,1.1,0.6c0,0.2,0.2,0.6,0.2,1c-0.2,0.2-0.5,0.6-0.9,0.9c-0.4-0.4-0.7-0.6-1-1.1
		c0.1-0.4,0.5-0.7,0.5-1.1L185.6,102.8z M185.3,102.8c0,0-0.1,0.2-0.1,0.4c-0.4,0.1-0.9,0.2-1.1,0.4c-0.4-0.2-0.7-0.6-1.1-0.9
		c0.4-0.4,0.6-0.9,1-1.2c0.4-0.1,0.9-0.2,1-0.4C185.1,101.6,185.4,102.2,185.3,102.8z M184.6,100c0,0.1,0.1,0.4,0.1,0.5
		c-0.1,0.1-0.5,0.5-0.6,0.6c-0.4-0.5-0.7-0.9-1.1-1.4C183.4,99.8,183.9,100,184.6,100z M183.4,101.1c-0.2,0.5-0.5,1-0.7,1.5
		c0-1.1-1-2-1.7-2.9C182.1,99.3,182.9,100.2,183.4,101.1z M180.7,99.7c0.5,0.5,0.1,1.2,0.1,1.9c0.2-0.2,0.6-0.5,0.9-0.7
		c0.4,0.7,0.5,1.5,0.1,2.2c-0.2-0.1-0.6-0.5-0.9-0.6c0.1,0.5,0.4,1.1,0.5,1.6c-0.5,1.1-1.1,2-2.4,2.5c-0.4-0.4-0.6-0.9-0.9-1.4
		c0.4-0.4,0.6-0.5,0.9-0.9l0.4-0.1c0.5-0.5,0.7-1.1,0.9-1.9c0.2-0.1,0.5-0.2,0.6-0.4c-0.7-0.6-1.4-1.4-2.1-2.1
		c-0.1-0.5-0.4-1-0.6-1.5C178.9,99,180.1,99.1,180.7,99.7z M177.1,98.2c1,0.5,1.4,1.5,1.4,2.5c-0.5,0.5-0.9,1.2-1.6,1.5
		c-0.2-0.1-0.6-0.2-0.9-0.4c-0.2-0.4-0.4-0.9-0.6-1.4C176.1,99.8,177.4,99.2,177.1,98.2z M176.7,98.2c0.1,0.9-0.9,1.4-1.6,2
		c0-0.9-0.2-1.9-0.4-2.7C175.4,97.6,176.2,97.8,176.7,98.2z M174.4,97.3c0,0.2-0.1,0.5-0.1,0.7c-0.1,0.1-0.4,0.4-0.5,0.5
		c-0.4,0.1-0.9,0.2-1.1,0.1c0.2-0.7,0.6-1.5,0-2.2C173.5,96.6,174,97,174.4,97.3z M172.6,96.6c0,0.2,0.1,0.5,0.2,1
		c-0.4,1-1.1,2.4-2.5,2.2c0-0.2,0-0.6-0.1-0.9c-0.2-0.4-0.2-0.9-0.5-1.2c0.7-0.2,1.5-0.5,2.1-0.7c-0.1-0.1-0.2-0.6-0.2-0.9
		C172,96.2,172.2,96.5,172.6,96.6z M169,95c0.9,0.2,1.6,0.6,2.4,1.1c0,0.2,0,0.5,0,0.7c-0.5,0.1-1,0.4-1.5,0.6
		c-0.2-0.1-0.6-0.2-0.9-0.4C169.1,96.3,169.5,95.6,169,95z M169,97.2c0.6,1.1,1.2,2.4,0.2,3.5c0,0.1-0.1,0.2-0.1,0.4
		c-0.2,0.1-0.6,0.2-0.7,0.4c-0.1-0.5-0.1-0.9-0.1-1.4c0-0.9-0.7-1.6-1.2-2.1C167.6,97.7,168.2,97.5,169,97.2z M165.6,100
		c0.2-0.5,0.4-1,0.6-1.4c0.1,0,0.5,0,0.5-0.1c0.5,0.6,0.9,1.2,1.1,2l-0.1,0.2c-0.4,1-1.1,1.9-2.4,2.4c-0.4-0.7-0.9-1.6-1.6-2.1
		C164.6,100.7,165.1,100.5,165.6,100z M163.8,101.2c0.1,0.1,0.4,0.5,0.4,0.6c0.5,0.5,0.7,1.1,0.9,1.7c-0.1,0.9-0.7,1.6-1.5,2.2
		l-0.2,0.2c-0.4,0.2-0.7,0.4-1.1,0.6c0-0.9-0.4-1.9-1-2.6c0.4-0.1,0.6-0.4,1-0.5c0.1-0.1,0.5-0.2,0.6-0.4
		C163.2,102.5,163.5,101.7,163.8,101.2z M162.8,99.7c0.7,1,0.5,2.1-0.4,3.1c-0.5,0-0.9,0.1-1.5,0.2c-0.5-1-1.1-1.7-1.1-2.9
		c0-0.6-0.4-1.2-0.6-1.7c0.6-0.7,1-1.6,2.1-1.9c0.5,1,1,1.9,0.5,2.9c-0.2,0.7-1,1.1-1.6,1.7c0.1,0,0.2,0.1,0.4,0.2
		c0.9-0.2,1.2-1,1.7-1.7C162.5,99.5,162.7,99.6,162.8,99.7z M160.5,95.5c0.6-0.6,1.4-1.2,1.9-2c0,0.5,0.1,0.9,0,1.2
		c-0.4,0.7-1,1.5-1.9,1.7C160.5,96.1,160.5,95.8,160.5,95.5z M157.1,96.6c1-0.1,2-0.5,2.9-1c0.1,1.5-1,2.6-2.5,3
		C157.6,98,157.5,97.2,157.1,96.6z M155.1,96.5c0.6,0.2,1.2,0.2,1.9,0.5c0,0.5,0.1,1,0.1,1.5c-0.4,0.6-1.2,1.4-2.2,1.6
		c-0.2-1-0.7-1.7-1.4-2.5C154.1,97.3,154.7,97,155.1,96.5z M154.2,99.8c0.1,0.5-0.2,1.1-0.5,1.7c-0.1,0-0.4,0.2-0.6,0.2
		c-0.6,0.2-1,0.6-1.6,0.7c-0.1-0.1-0.4-0.6-0.5-0.7c-0.4-0.4-0.6-0.7-1-1.1c1.5-0.5,2.5-1.6,3-2.9C153.5,98.5,154.1,99,154.2,99.8z
		 M151.1,94.5c0.6,0.7,1.6,1.6,1.5,2.7c-0.1,1.5-1.6,2.6-3,3.4c0.1-1.2-0.1-2.5-0.9-3.6c-0.2,0.2-0.5,0.4-0.2,0.6
		c0.2,0.6,0.5,1.1,0.6,1.7c0,1.6-1.2,3.1-3.1,3.7c-0.4-0.7-0.9-1.4-1.2-2.1c0.9-0.5,1.6-1.1,2.2-1.7c-1,0.1-1.6,1-2.5,1.2
		c-0.4,0.1-0.9-0.2-0.9-0.6c-0.2-1-0.7-1.7-1.4-2.5c0.4-0.1,0.9-0.2,1.2-0.5c0.4-0.1,0.6-0.2,0.9-0.5c0.2-0.2,0.6-0.4,1-0.5
		c0.5,0.9,1.2,1.9,0.7,2.9c0.2-0.2,0.4-0.4,0.5-0.6c-0.4-0.9-0.7-1.6-1.2-2.5l0.2-0.1v-0.2c0.1-0.4,0.5-0.7,0.6-1.1
		c0.6,0.7,1.2,1.5,1.4,2.5c0.1,0.1,0.4,0.4,0.5,0.5C149,96.2,150.2,95.5,151.1,94.5z M147.9,90.1l0.4,0.1c1,0.4,2.1,0.9,2.4,1.7
		c0.2,1.7-0.6,3.6-2.6,4.1c-0.5-1-0.9-1.9-1.7-2.5C147.6,93,148.5,91.5,147.9,90.1z M144.3,90.1v-0.2c0.1,0,0.4-0.1,0.5-0.1
		c0.7,0.1,1.4,0.2,2.1,0.2c0.2,0.5,0.7,1,0.5,1.7c-0.1,0.6-0.7,1.1-1.2,1.6c-0.2-0.6-0.7-1.2-1.1-1.9
		C144.8,91,144.5,90.5,144.3,90.1z M144.6,91.4c0.7,1,1.2,2.1,0.7,3.4l-0.1,0.4c-0.7-0.7-1.4-1.5-1.6-2.5
		C143.8,92.1,144.1,91.7,144.6,91.4z M143.1,93c0.6,0.7,1.4,1.4,1.7,2.2c-0.6,1-1.9,1.6-3.1,1.9c0-0.9,0.4-2-0.6-2.7
		C141.9,93.9,142.5,93.4,143.1,93z M134.9,93l-0.1-0.2c1.4-0.4,2.7-0.5,3.9-0.9l0.4-0.1c0.4-0.1,0.9-0.2,1.2-0.4
		c0.7,1.5,0.2,3.1-1.2,4.1c-0.4,0.4-1,0.7-1.6,1c-0.5,0-0.9-0.2-1-0.6c0-0.2,0-0.6-0.1-0.7C135.9,94.2,135.5,93.6,134.9,93z
		 M134.2,99.1c1.2-0.5,2-1.6,2.5-2.6c0.5,0.9,1.2,1.7,1.1,2.6c0,0.9-0.6,1.9-1.4,2.5c-0.4,0.4-0.7,0.5-1.1,0.7
		c-0.2,0.1-0.5,0.2-0.5,0.4c-0.5-1.1-0.9-2.4-1.7-3.2C133.4,99.5,133.7,99.2,134.2,99.1z M128.2,98.7c0,0.1-0.2,0.2-0.4,0.4
		c0.4,0.9,1,1.7,1,2.6c-0.2,1.4-1.4,2.5-2.7,3.1c-0.5-1.7,0.1-3.6,0.9-5.2c0.1-0.6,0.9-1,1.5-1.4c0.7-0.5,1.5-1,2.2-1.6
		c0-0.1-0.1-0.4,0-0.5c1,0.7,1.4,2,1.6,3c-0.2,1.5-1.5,2.6-3,3.2c0-0.6-0.2-1.1-0.2-1.6C128.8,100.1,128.4,99.3,128.2,98.7z
		 M131,106.3c0-0.6-0.4-1.4-0.6-2.1c-0.4-0.6-0.6-1.1-1-1.7c0.5-0.1,1-0.4,1.5-0.5v-0.2l0.2-0.1c0.5-0.6,1.1-1.2,1.6-2
		c1,1,1.9,2.2,1.4,3.6C133.8,104.8,132.5,106,131,106.3z M132.5,106.6c1.2-0.9,1.9-2.1,2.4-3.4c1.1,0.7,2,1.7,2.2,3
		c-0.1,0.9-0.5,1.7-0.9,2.5l-0.4-0.2c-0.1,0.4-0.4,0.6-0.5,1c0,0,0,0.1-0.1,0.2c-0.2,0.1-0.6,0.2-0.7,0.5
		C134.4,108.8,133.7,107.5,132.5,106.6z M133.2,112.7c0-0.1,0.1-0.4,0.4-0.5c0.2-0.2,0.5-0.5,0.6-0.9c0.1-0.4,0.4-0.7,0.6-1
		c0.5,0.2,0.9,0.5,1.4,0.7l0.1,0.2c0.7,1.1,1.4,2.7,0,3.9c-0.4,0-0.6-0.1-0.9-0.1C134.8,114.1,133.9,113.4,133.2,112.7z
		 M136.4,117.2c-0.1-0.4,0-0.7,0-1.1c0.6-0.9,1.2-1.9,1.1-3c1.4,0.6,2.2,1.7,2.5,3c0,0.1,0,0.2,0.1,0.4c-0.2,1-1.2,1.4-2.4,1.6
		C137.3,117.7,136.6,117.6,136.4,117.2z"/>
	<path d="M117.8,106.8c0,0.1-0.1,0.2-0.1,0.4c1.5,1.2,3.1,2.2,5.1,2.6c0.6,0.1,1.2,0.1,1.9,0.1c-0.1-0.1-0.2-0.6-0.4-0.7
		c0.4-0.1,0.9-0.2,1.4-0.5c-0.4,0-0.7,0-1,0.1c-2.1-0.6-4.2-1.2-5.9-2.6c-0.2-0.1-0.5-0.2-0.7-0.2c0.2,0.1,0.4,0.4,0.6,0.5
		c0.1,0.1,0.1,0.5,0.2,0.7c-0.2,0.1-0.5,0.1-0.7,0.2C118.1,107.3,117.9,107,117.8,106.8z"/>
	<path d="M113.7,97.7l-0.1-0.2c-0.1,0-0.1,0.1-0.2,0.2c0.2,0.1,0.6,0.2,1,0.2l0.1,0.1c2.6,1,5.5,1.5,8.2,2.2
		c0.2-0.1,0.4-0.1,0.6-0.2c-2.7-0.7-5.6-1.5-8.2-2.2C114.4,97.7,114.2,97.6,113.7,97.7z"/>
	<path d="M139.5,82.4c0.7-0.1,1.7-0.1,2.5-0.2c0.2,0,0.5,0,0.7-0.1c0-0.1-0.1-0.4-0.2-0.4c-2.4,0.1-6.9,0.4-9.1,1.9
		c0.4,0.1,2.9-0.9,3.2-0.9C137.8,82.5,138.6,82.5,139.5,82.4z"/>
	<path d="M125.2,106.1c0-0.1,0-0.2,0-0.2c-0.2-1.1-0.2-2.2-0.2-3.4c-0.2-0.1-0.4-0.4-0.5-0.5c0,0.9-0.2,1.7-0.2,2.7
		c0,0.2,0.1,0.4,0,0.6l0.1,0.4c0.1,0.5,0.2,1,0.2,1.4c0.1,0.5,0.5,1.1,1.2,1.2c-0.2-0.4-0.4-1-0.6-1.4
		C125.3,106.5,125.2,106.3,125.2,106.1z"/>
	<path d="M125.8,90c-1.5,0-2.9,0.2-4,0.9c0.1,0.1,0.1,0.5,0.1,0.6c-0.5,0.2-0.9,0.4-1,0.9c2.7-0.4,5.4-0.9,8.1-0.4
		c0-0.1,0.1-0.2,0.1-0.2c-0.5-0.2-1-0.5-0.9-0.9c0.5,0,1,0,1.5,0C128.5,89.9,127,89.7,125.8,90z"/>
	<path d="M125.5,98.1v0.4c0.1,0,0.4-0.2,0.4-0.4c0.7-1,1-2.2,2-3.1c0.5-0.4,0.7-0.9,0.9-1.5c-0.5,0.1-1,0.5-1.5,0.7
		c-0.2,0.2-0.5,0.6-0.7,1C126.2,96.1,125.8,97.1,125.5,98.1z"/>
</g>
</svg>
