<?xml version="1.0" encoding="utf-8"?>
<!-- Generator: Adobe Illustrator 26.0.3, SVG Export Plug-In . SVG Version: 6.00 Build 0)  -->
<svg version="1.1" id="Слой_1" xmlns="http://www.w3.org/2000/svg" xmlns:xlink="http://www.w3.org/1999/xlink" x="0px" y="0px"
	 viewBox="0 0 238.1 150.2" style="enable-background:new 0 0 238.1 150.2;" xml:space="preserve">
<style type="text/css">
	.st0{fill:#040404;}
</style>
<g>
	<path class="st0" d="M234.8,73.6c0.1-0.1,0.4-0.4,0.5-0.6c0.5-0.7,1.3-0.8,1.9-1.3c-0.5-0.4-1.3-0.6-1.5-1.2
		c0.4-0.9,1.5-1.1,2.5-1.3v-0.9c-0.4,0.1-0.6,0.1-0.9,0.1c0.2-0.5,0.6-0.8,0.9-1.2v-18c-1.5-1.8-2.7-3.7-3.9-5.6
		c-0.9-1.5-1.7-3.2-2.2-4.9c-0.1,0-0.2,0-0.3-0.1c0-0.1,0-0.3,0-0.4c-0.1-2.1-1.7-3.7-2.4-5.6c-1.2-3-2.4-6.2-4-9
		c-1.8-3-2.8-6.4-5.6-8.5c-1.8-1.5-3.4-3.3-4.6-5.3c-0.5-0.9-1.2-1.7-1.9-2.4c-0.7-0.7-1.5-1.3-2.5-1.7H210
		c-1.1,0.2-2.1,0.7-2.4,1.7c-0.6,0.7-1.2,1.5-1.4,2.4c-0.4,0.9-0.9,1.7-1.3,2.6c-1,2.4-2.1,3.7-2.9,5.9c0,0,0,0,0,0
		c-0.5,1.1-0.6,2.2-0.8,3.3c-0.4,1.3-0.7,2.6-0.8,3.9c-0.1,1.8-0.5,3.4-0.6,5.2c-0.1,0.8,0,1.7-0.2,2.5c-0.7,0.4-1.5,0.5-2.4,0.7
		c-2.6,0.8-5.3,0.9-7.9,1.8c-3,0.8-5.4,2.6-7.9,4.4c-2.8,2.1-5.2,4.9-8.4,6.6c-0.6,0.4-1.4,0.1-2.1,0.1c-1.2-0.1-2.3-0.1-3.4-0.5
		c-2.3-1.1-5-0.6-7.2-1.8c-1.7-0.9-3.4-1.5-5.1-2.4c-2.2-1.1-4.6-1.8-7.1-2.2c-1.1-0.1-2.1-0.4-3.2,0c-0.8,0.2-1.5,0.8-2.2,1.7
		c-0.6,0.7-0.6,1.7-0.7,2.6v2c0.2,3.9,1.5,7.6,3.4,10.9c0.8,1.3,1.8,2.6,2.6,4c0.9,1.4,1.8,3,2.7,4.4c1.7,2.6,3,5.4,4,8.3
		c0.8,2.1,1.9,4.3,3.4,6c0-0.2,0-0.4,0-0.6c0,0,0.1,0,0.1-0.1c1.1,1.2,2.5,1.9,3.7,2.9c0.4,1.2,0.2,2.6,0.6,3.9
		c0.7,0.8,1.2,1.7,2.1,2.2c-0.1,0.4-0.2,0.7-0.2,1.2c0.2,0.2,0.7,0.2,0.9,0.6c0.4,0.9,1.4,1.1,2,1.7c-0.4,0.2-0.8,0.4-1.2,0.5
		c0.7,0.6,1.8,0.9,2.7,1.2c-1.5,1.2-3,2.5-4.4,3.8c-0.2,0.2-0.4,0.5-0.5,0.8c1.7-0.8,3-2.1,4.5-3.1c0.6,0,1.2,0.1,1.8,0.2
		c0.1,1.1-0.8,1.5-1.5,2c-2,1.4-4,3-5.8,4.7c0,0,0,0.2,0,0.4c2.2-1.7,4.6-3.3,7-5c0.4-0.1,0.6-0.4,0.9-0.5c0.7,0.1,1.3,0.4,2,0.6
		c0.4,0.1,0.2,0.5,0.2,0.7c-0.1,0.6-0.6,0.9-0.9,1.3c-1.4,1.3-3.1,2.6-4.4,4.1c-0.9,1.2-1.8,2.5-1.8,4c0.4-0.6,0.6-1.3,1.1-1.9
		c0.8-1.2,1.7-2.4,2.8-3.3c1.2-1.2,2.6-2,4-3.1c0.6-0.5,1.4-0.1,2,0c-0.2,0.4-0.6,0.5-0.9,0.6c0,0.1,0,0.2,0,0.2
		c0.1,0,0.5,0.1,0.6,0.1c-0.6,0.7-1.2,1.3-1.8,1.9c-1.3,1.4-2.4,3.1-3.3,4.7c-0.7,1.4-1.4,3.1-0.9,4.7c0.8-4.3,3.4-7.9,6.6-10.8
		c0.6-0.6,1.5-0.4,2.2,0c-0.4,0.2-0.6,0.4-0.9,0.5c-0.1,0.2-0.1,0.5-0.1,0.7c0.2,0.1,0.5,0.2,0.7,0.4c-1.3,1.9-2.6,3.7-3.5,5.7
		c-0.4,0.8-0.8,1.7-1.1,2.5c0.5-0.4,0.7-0.9,1.1-1.5c0.4-0.7,0.8-1.2,1.3-1.9c0.8-1.4,1.8-2.8,3-4.1c0.2-0.4,0.8-0.1,1.2-0.1
		c0.9,0.1,2.1,0.2,3.1-0.1c0.9-0.4,1.9-0.5,2.8-0.5c-0.7,0.7-1.9,0.8-2.7,1.4c0.4,0.1,0.7,0.4,1.1,0.4c1.1,0.2,2.2,0.4,3.3,0.5
		c-0.4,0.2-0.8,0.5-1.2,0.7c0.8,0.6,2,0.6,3,0.8c-0.2,0.4-0.7,0.7-1.1,1.1c1.4,0.5,2.7-0.1,4.1-0.2c-0.5,0.9-1.3,1.5-1.8,2.5
		c0.4,0.1,0.6,0.1,0.9,0.1c0.1,0.2,0.1,0.6,0.2,0.8c0.6-0.1,0.9-0.5,1.4-0.8c0.5,0.1,0.9,0.5,1.4,0.2c0.5-0.5,0.7-1.1,1.1-1.5
		c0.1,1.3,0,2.7,0.4,4c0.4,1.2,1.1,2.2,2,3.1c0.4-0.2,0.6-0.5,0.9-0.7c0.2,0.6,0.5,1.1,0.5,1.7c0.1,1.7,0.4,3.3,1.3,4.6
		c0.1,0.2,0.5,0.4,0.8,0.6c0-0.4,0-0.7,0.1-1.1c0.5,0.5,0.7,1.1,1.1,1.7c0.4,0.7,1.1,1.2,1.7,1.7c0-0.2,0.1-0.6,0.1-0.9
		c0.5,1.1,0.9,2.4,2,3.1c0.4-0.1,0.6-0.4,0.9-0.5c0.1,0.7,0.1,1.4,0.4,2c0.6,1.5,1.2,3.1,2,4.4c0.2-0.2,0.5-0.6,0.7-0.9
		c0.4,0.8,1.1,1.5,1.7,2.2c0.4-0.2,0.7-0.5,1.1-0.5c0.4,0.6,0.5,1.3,0.8,1.9c0.4,0.1,0.6,0,0.8-0.1c0.4,0.9,0.4,2.1,1.3,2.6
		c0.8,0.5,0.9,1.9,2,2c0.1-0.4,0.1-0.8,0.2-1.2c0.5,0.6,0.8,1.3,1.3,1.9c0.5,0,0.9,0.2,1.3,0.6c1.2,1.2,2.4,2.2,3.8,3.1
		c0.7,0.5,1.4,0.5,2.1,0.8c1.2,0.5,2.4,0.9,3.7,1.1h1.1c1.7-0.2,3.5-0.4,4.6-1.8c1.1-1.2,1.4-2.8,1.3-4.4c0,0,0,0,0,0
		c0-0.8-0.2-1.5-0.5-2.1c0-0.4,0.1-0.7,0.2-0.9c0.6-1.2,0.5-2.6,0.5-3.9c0-1.2-0.7-2.2-0.4-3.3c0.4-0.9,0.2-1.9,0.2-2.8
		c0-1.7-0.6-3.2-1.5-4.4c-0.5-0.4-1.1-0.8-1.4-1.4c-0.4-0.6-0.8-1.2-1.5-1.2c-1.1-0.1-2.1-0.1-3.1,0.4c-1.8,0.9-3.4,2-4.9,3.4
		c-0.9,0.7-1.7,1.7-2.2,2.6c0,0,0,0,0,0c-0.8,1.3-1.6,2.5-2.2,3.9c-0.2,0.5,0.1,1.1,0.1,1.5c-0.1,0-0.4,0-0.6,0
		c-0.6-0.6-0.2-1.4,0-2c-0.4-0.1-0.7,0-1.1-0.1c-0.2-0.2-0.5-0.5-0.7-0.7c0.4-0.4,0.7-0.8,0.8-1.3c-0.5,0-0.8,0-1.3,0
		c0.5-0.5,1.2-0.7,1.7-1.3c-1.3,0-2.5,0.9-3.9,0.8c0.2-0.4,0.6-0.7,0.9-1.1c-0.9,0-1.8,0.5-2.6,0.6c0.4-0.4,0.6-0.7,0.9-1.1
		c-0.2,0-0.6-0.1-0.8-0.1c0-0.1-0.1-0.2-0.1-0.4c-0.1-0.1-0.4-0.2-0.5-0.5c0.4-0.6,0.9-0.9,1.3-1.4c-0.7,0.1-1.4,0.2-2.1,0.1
		c-0.1-0.4-0.2-0.7-0.4-1.1c0.2-0.4,0.4-0.7,0.5-1.1c0.5-0.5,0.9-0.7,1.2-1.3c-0.6,0-1.2,0.1-1.8,0.1c-0.5-0.5-0.6-1.1-0.7-1.7
		c-0.4,0-0.6,0-0.9,0c-0.2-0.9-0.7-1.9-0.7-3c0.4-0.6,1.1-0.4,1.5-0.7c0.4-0.4,0.2-0.8,0.4-1.3c0.5,0.2,0.9,0.2,1.3,0.6
		c0.5,0.5,0.9,0.9,1.5,0.9c-0.1-0.6-0.2-1.2-0.4-1.7c-0.1-0.4-0.1-0.7,0.2-0.8c0.8,0.2,1.5,0.8,2.2,1.2c1.4,0.8,3,1.2,4.5,1.7
		c0.6,0.2,1.3,0.4,1.8,0c-0.2-0.7-0.9-1.2-1.5-1.7c1.4-0.4,3-0.4,4.5-0.7c0.9-0.2,2-0.5,2.8-1.1c-1.9-0.1-3.8,0-5.6-0.4
		c-0.2,0-0.4-0.1-0.5-0.2c0.7-0.6,1.7-0.8,2.2-1.4c-1.8,0.2-3.7,0.5-5.4,0.8c-0.1-0.4-0.1-0.6-0.2-0.9c-0.4-0.1-0.8-0.1-1.3-0.1
		c0.1-0.5,0.2-0.8,0-1.2c-0.5-0.5-1.2,0.2-1.8,0c-0.4-0.1-0.8,0-1.2,0c-0.5-0.2-0.9-0.5-1.4-0.6c-0.1-1.2-0.1-2.5,0.5-3.5
		c0.1,0.2,0.4,0.5,0.5,0.7c0.2,0,0.4-0.2,0.5-0.5c0.5-0.8,0.6-1.9,1.1-2.7c0.5,0.2,0.8,0.5,1.2,0.7c0.2-0.8,0-1.8,0.1-2.7
		c0.5,0.2,0.9,0.7,1.4,1.1c0-0.7,0-1.4-0.2-2c0.5-0.1,0.8-0.5,1.3-0.7c0.7,0.1,1.4,0.4,2.1,0.5c-0.1-0.4-0.2-0.7-0.4-1.1
		c1.1-0.1,1.9,0.1,2.8,0.5c-0.1-0.8-0.5-1.5-0.8-2.2c0.9-0.1,1.7,0.4,2.5,0.6c-0.1-0.8-0.6-1.5-0.9-2.2c0.6-0.4,1.3-0.1,2-0.2
		c-0.4-0.5-0.8-0.8-1.2-1.3c0.8,0,1.7,0.2,2.5,0c-0.6-0.5-1.3-0.7-2-0.9c1.2-0.4,2.5-0.2,3.7-0.5c-0.2-0.7-1.2-0.8-1.4-1.5
		c0.7-0.1,1.5-0.1,2.2-0.4c-0.6-0.6-1.4-0.8-2.1-1.3c0.7,0.1,1.5,0.2,2.2,0.2c0-0.5-0.1-0.9,0-1.4c0.4-0.2,0.8-0.4,1.2-0.7
		c-0.1-0.4-0.4-0.7-0.5-1.2c0.5-0.5,0.9-0.7,1.4-1.1c-0.1-0.2-0.4-0.5-0.6-0.7c0.8-0.7,1.2-1.7,1.7-2.6c0.2-0.5,0.8-0.6,1.3-0.8
		c-0.1-0.6-0.9-0.6-1.1-1.2c0.4-0.4,0.8-0.6,1.2-0.9c-0.2-0.2-0.5-0.6-0.7-0.8c0.9,0.2,1.9,0.5,2.8,0.8v-1.9
		C237,74.3,235.9,74,234.8,73.6z M223,132.9c0.1-0.5,0.2-0.8,0.2-1.2c0-0.5-0.5-0.6-0.7-0.8c0.4-0.2,0.6-0.5,0.8-0.8
		c0-0.5-0.2-1.1,0.1-1.4c0.7-0.8,0.7-2,1.3-3c0.1,0.2,0.4,0.5,0.5,0.7c-0.1,0.5-0.2,0.9-0.2,1.4c0.2,0.1,0.4,0.1,0.6,0.2
		c0.1,0.4,0,1.1,0.6,0.8c0.4-0.6,0.6-1.2,0.9-1.7c0.1-0.2,0.4-0.5,0.1-0.7c-0.2-0.2-0.6-0.2-0.9-0.2h0c0.5-0.6,0.8-1.4,1-2.2
		c0.1-0.5,0.6-0.7,0.8-0.9c0.6-0.6,1.2-1.2,2-1.7c0.8-0.5,2-0.7,3-0.5c0.5,0,0.7,0.5,0.6,0.9c-0.2,0.2-0.5,0.4-0.8,0.5
		c-1.8,0.5-3.2,1.5-4.6,2.6c0.2,0.6,0.5,1.3,0.7,1.9c0.4-0.1,0.5-0.6,0.6-0.8c0.4-0.7,0.6-1.5,1.2-2c0.9-0.8,2.1-1.1,3.2-1.2
		c0.9-0.1,1.3,0.8,1.7,1.5c0.5,1.4,0.9,3.1,0.2,4.5c-0.2,0.5-0.8,0.4-1.3,0.5c-1.5,0.2-2.8,1.1-4.3,1.8c-0.6,0.4-1.2-0.2-1.7-0.4
		c0.2,0.9,0.4,2,0.4,3c0.1,0,0.2,0,0.4,0c0.2-0.5,0.4-0.9,0.8-1.2c0.7-0.5,1.5-0.9,2.2-1.4c0.5-0.4,0.9-0.6,1.5-0.6
		c0.7-0.2,1.3,0.4,1.8,0.8c0.4,1.1,0.4,2.1,0.2,3.2c-0.1,0.7-0.4,1.7-1.2,1.9c-1.7,0.4-3.3,0.6-5,0.8c-0.5,0.1-0.7-0.5-0.9-0.7
		c0-0.1-0.1-0.1-0.2-0.1c-0.2,1.1-0.1,2.1,0.1,3.1c0.5,0.1,0.5-0.5,0.7-0.7c0.2-0.5,0.8-0.2,1.2-0.2c1.2,0.1,2.2-0.6,3.4-0.8
		c0.9,0,1.5,0.8,1.7,1.5c0.1,1.1-0.2,1.9-0.8,2.8c-0.4,0.5-1.1,0.8-1.8,0.8c-0.9,0-1.9,0.2-2.8,0.1c-0.5-0.2-0.9-0.5-1.3-0.8
		c-0.4-0.7-0.7-1.4-0.7-2.2c-0.9,0.2-0.9,1.3-1.4,1.9c-0.1-0.1-0.4-0.1-0.5-0.1c0.1-0.6,0.2-1.2,0.2-1.8c-0.4,0-0.7,0-1.1,0
		c0.1-0.9,0.5-2,1.1-2.8c-0.1-0.5-0.1-1.1,0-1.7c-0.1-0.1-0.2-0.2-0.4-0.4c0-0.6,0.4-1.1,0.1-1.7c-0.4-0.1-0.6-0.1-0.8-0.2
		c0.4-0.8,0.6-1.8,0.6-2.7c-0.5-0.2-0.7-0.7-0.9-1.2c-0.4-0.1-0.8,0-0.9,0.5c-0.1,0.6-0.4,1.1-0.6,1.7c-0.1,0.5,0.5,0.5,0.7,0.7
		c-0.2,0.5-0.6,0.9-0.7,1.5c0.4,0.1,0.6,0.1,0.9,0.2c0,0.6-0.1,1.3-0.5,1.8c-0.4,0.5-0.9,0.5-1.4,0.7c-0.1-0.2-0.4-0.5-0.5-0.7
		c0.4-0.7,0.5-1.5,0.9-2.1C223.2,133.2,223.1,133.1,223,132.9z M233.1,70.8c0.6-0.8,1.7-0.9,2.5-0.5C234.8,70.5,234,70.6,233.1,70.8
		z M225.3,60.2c-0.9,0-1.9,0.2-3,0.2c0.7-0.9,2-1.3,2.6-2.4c0.5-0.9,0.4-2.1,0.5-3.2c0.4,0.6,0.5,1.4,0.7,2c0.1,0.4,0.5,0.5,0.7,0.6
		c-0.2,0.5-0.5,0.9-0.5,1.5c0.7,0,1.3-0.2,2-0.5c0.4,0,0.8-0.1,1.1,0.4c0.2,0.5,0,1.1,0.1,1.5c0.2,0.2,0.6,0.4,0.9,0.5
		c-0.1,0.4-0.4,0.6-0.4,0.9c0.7,0.8,2.1,1.2,2.4,2.4c-1.3-0.5-2.4-1.8-3.9-2c-1.9-0.4-3.9,0.1-5.8,0c0.7-0.7,1.8-0.8,2.6-1.5
		C225.4,60.6,225.3,60.3,225.3,60.2z M221.5,58.5c-1.5,2-4,3-6,4.1c0.6,0.1,1.2,0.2,1.7,0.5c-1.2,0.7-2.6,0.9-3.9,0.4
		c-0.9-0.5-2-0.7-3.1-1.2c1.3-0.6,2.7-0.9,3.9-1.8c1.2-0.7,2.1-1.8,2.6-3.1c0.7-1.8,1.2-3.5,1.5-5.3c0.2-0.7,1.1-1.1,1.7-1.4
		c1.2-0.6,2.4,0,3.3,0.5c-0.6,0.5-1.3,0.9-1.8,1.5c-0.2,0.1,0,0.5,0,0.7c0.6,0.1,1.3,0.1,1.9,0.2c0.4,0.2-0.1,0.7-0.2,1.1
		c-0.7,1.5-1.9,2.5-2.8,3.8C220.7,58.5,221.1,58.5,221.5,58.5z M206.3,75.3c-0.7-0.6-1.4-1.4-1.5-2.4c-0.1-0.4,0.2-0.6,0.6-0.7
		c0.7-0.2,1.7-0.2,2.2,0.2c-0.7,0.1-1.5-0.1-2.1,0.4C205.3,73.7,206,74.4,206.3,75.3z M202,71.1c-0.8,0.9-2.2,0.4-3.3,0.8
		c-0.6,0.2-0.9,0.8-1.4,1.3c0.1-1.1,0.9-1.8,1.8-2.1c0.9-0.5,2-0.4,2.7-1.1c0.8-0.7,1.5-1.9,2.6-1.7c0.8-0.1,1.5,0.2,2.1,0.7
		c-0.8,0-1.7-0.2-2.5,0.1C203.2,69.6,202.6,70.4,202,71.1z M202.2,77.7c-0.5-0.7-0.6-1.5-0.9-2.2c-0.6-0.2-1.1,0.5-1.4,0.8
		c-0.4,0.5-1.1,0.6-1.5,0.4c0.5-0.8,1.3-1.5,2.2-1.9c0.5-0.2,0.9,0.1,1.2,0.5C202.1,76,202.5,76.9,202.2,77.7z M205.3,78.9
		c-0.6-0.6-1.2-1.3-1.4-2.1C204.6,77.4,205.1,78.1,205.3,78.9z M206.4,54.8c-0.6,0.9-0.7,2.1-1.1,3.2c-0.2,0-0.4-0.4-0.5-0.6
		c-0.2-0.8-0.1-1.7,0-2.5c0.5-1.9,2.1-3.4,4-4c3.1-0.8,6.5,1.5,7,4.9c0.2,1.2-0.6,2.4-1.5,3.1c0-0.6,0.2-1.2,0.2-1.9
		c0-1.3-0.7-2.5-1.8-3.1c-0.8-0.6-1.3,0.7-2,0.5c-0.4-0.5-0.7-0.9-0.9-1.4C208.4,52.9,207.1,53.6,206.4,54.8z M211.5,49.8
		c1.3-0.2,2.6,0.5,3.7,1.2c0.8,0.7,1.2,1.9,1.2,3c-0.6-0.9-1.1-2-1.9-2.7C213.6,50.5,212.5,50.2,211.5,49.8z M227.9,45.4
		c0.1,0,0.1,0,0.2,0c-0.3,0-0.7,0.1-1,0.1c0.3-0.3,0.5-0.5,0.7-0.8C227.9,45,227.9,45.2,227.9,45.4z M227.3,50.1
		c-0.7,0.1-1.4,0.2-2,0c-1.1-0.4-2-0.7-3.1-0.9c-0.7-0.2-1.4-0.1-2.1-0.1c0.8-0.6,1.9-0.9,3-0.6c0.8,0.1,1.7,0.2,2.4,0.6
		C226,49.3,226.7,49.6,227.3,50.1z M230.9,54.8c-0.1-0.2-0.5-0.4-0.7-0.5c0.2-0.4,0.5-0.8,0.8-0.9c0.6-0.1,1.2-0.1,1.7-0.2
		c0.4,0.8-0.2,1.7-0.7,2.2c-0.4,0.2-0.7,0.4-1.1,0.6C230.9,55.6,231,55.1,230.9,54.8z M232.3,60.3c0-0.2,0.1-0.5,0.2-0.7
		c0-0.2-0.1-0.5-0.2-0.7c0.7,0.1,0.9-0.5,1.3-0.9c0.4,0,0.7,0.2,1.1,0.6c0,0.5-0.5,0.9-0.6,1.5c0,0.7,0.8,0.8,1.1,1.3
		c0.1,0.5-0.4,0.8-0.4,1.3c-0.1,0.6,0,1.2,0,1.8c-0.6-0.1-1.2-0.4-1.5-0.8c0.2-0.5,0.7-0.9,0.6-1.5
		C233.7,61.2,232.7,61.1,232.3,60.3z M233.5,48.5c0.4,0.4-0.2,0.7-0.5,0.9c0.4,0.2,0.7,0.5,0.9,0.7c0.4,0.4,0.2,0.9,0.6,1.3
		c1.1,0.8,1.5,2.1,1.8,3.4c-0.7-0.4-1.3-1.1-2-1.4c-0.9-0.5-2-0.5-3-1.1c0.4-0.2,0.8-0.6,1.2-0.8c0-0.1,0-0.2,0-0.4
		c-0.7-0.1-1.5-0.2-2.2-0.5c0-0.1,0-0.2,0-0.4c0.4-0.2,1.1-0.1,0.9-0.6c-0.9-0.4-1.9-0.6-2.7-1.2c0.7,0,1.5,0.1,2.2-0.1
		C231.7,48.2,232.8,48.2,233.5,48.5z M205.7,15.5c0.5-1.4,1.1-2.8,1.9-4.1c0.7-0.9,1.3-2.1,2.5-2.5c0.5-0.1,0.9-0.4,1.4-0.1
		c0.7,0.4,1.4,0.8,2,1.4c0.8,0.7,1.3,1.9,2,2.7c1.1,1.4,2.7,2.6,3.8,4.1c1.9,2.7,3.5,5.6,5,8.4c1.4,3,2.6,5.9,3.7,9
		c0.4,1.1,1.4,1.9,1.8,3.1c0.4,1.3,0.7,2.6,1.2,3.8c0.1-0.1,0.2-0.2,0.2-0.3c0.2,0.4,0.3,0.7,0.5,1.1c0.4,0.8-0.1,1.9-0.8,2.4
		c-0.7,0.5-1.5,0.8-2.3,0.9c0,0,0,0,0.1-0.1c0.9-1.1,0.9-2.8,0.2-4c-0.4-0.7-0.7-1.3-1.1-2c-0.5-1.1-1.3-1.8-2.1-2.5
		c-0.2-0.9-0.1-2-0.1-3c0.1-1.8-0.5-3.5-1.1-5.2c-1.1-2.6-2.4-5.1-3.5-7.6c-0.1-0.5-0.6-0.5-0.9-0.5c-1.2-1.4-1.8-3.3-2.8-4.9
		c-0.2,0.4-0.5,0.7-0.7,1.1c-1.4-1.4-2.1-3.4-3.4-5c-0.4-0.4-0.7-0.8-1.2-1.1c-0.8,0.5-1.3,1.4-1.8,2.2c-0.7,1.3-1.7,2.7-2.2,4
		c-0.5,1.4-0.6,2.7-0.7,4.1c0,0.5-0.1,0.9,0,1.4c0.4-0.6,0.5-1.3,0.7-1.9c0.5-1.5,1.2-3.2,2-4.6c0.1-0.1,0.2-0.2,0.4-0.4
		c0,0.4,0,0.7-0.1,1.1c-0.1,0.8,0,1.5,0,2.4c0,0.1,0.1,0.2,0.1,0.2c0.6-1.4,0.8-3,1.4-4.4c0.1,0,0.2,0,0.4,0
		c0.5,1.3,0.8,2.5,0.9,3.8c0.2,1.3,0.1,2.6,0.2,3.9c0.1-0.2,0.1-0.4,0.2-0.5c0.6-1.4,0.6-3,1.2-4.4c0.1,0.4,0.2,0.7,0.2,1.1
		c0,1.2,0.1,2.4,0.2,3.5c0.2-0.5,0.4-0.9,0.6-1.4c0.5,0.7,0.7,1.5,0.9,2.4c0.1,1.4-0.1,2.8-0.1,4.3c0.4-0.6,0.6-1.1,0.8-1.7
		c0.2,0.6,0.1,1.3,0,2c-0.1,0.7-0.2,1.5-0.2,2.2c0.2-0.1,0.4-0.5,0.5-0.7c0.7-1.3,1.4-2.6,2.1-3.9c0,1.9-0.5,3.8-1.1,5.6
		c-0.2,0.5-0.7,0.8-0.9,1.3c-0.5,1.1-1.1,2-1.4,3.1c1.4-0.7,2.6-2,4.1-2.6c-0.4,1.4-1.5,2.6-2,4.1c1.1-0.7,1.9-1.4,2.8-2.1
		c0.2-0.2,0.5-0.2,0.7-0.4c-0.2,0.8-0.9,1.5-1.3,2.4c-0.4,0.8-1.1,1.7-1.2,2.6c0.4-0.4,0.7-0.8,1.1-1.2c0.4-0.5,0.9-0.9,1.4-1.4
		c0.4-0.4,0.7-0.7,1.1-1.1c-0.1,1.2-0.6,2.4-0.5,3.7c0,1.1,0,2.1,0,3.2c0.7-0.7,1.2-1.7,1.9-2.5c0.1-0.2,0.5-0.2,0.6,0
		c0.1,0.6,0.2,1.3,0.2,1.9c0.1,0.1,0.4,0.2,0.5,0.4c0.4-0.2,0.5-1.1,0.9-0.9c0.4,0.6,0.2,1.3,0.5,1.9c0.2,0.2,0.6,0,0.8,0
		c0,0.3,0,0.7,0,1.1c-1,0.1-2.1,0.2-3,0.6c-0.6,0.2-1.1,0.1-1.7,0.1c0.2-0.2,0.5-0.6,0.7-0.8c-1.7,0-3.3,0-4.9-0.7
		c0.2,0,0.5-0.1,0.7-0.1c-0.7-0.5-1.3-1.1-2.1-1.3c-0.8-0.2-1.5-0.4-2.2-0.7c0.4-0.1,0.7-0.1,1.1-0.2c-1.7-0.8-3.5-1.2-5.3-1.3
		c0.5-0.2,0.9-0.5,1.4-0.8c-1.5-0.4-3.2-0.6-4.7-1.1c0.5-0.5,1.1-0.9,1.5-1.5c-0.8,0.2-1.7,0.6-2.5,0.6c0.4-0.2,0.8-0.6,1.2-0.8
		c-0.9-0.2-1.9-0.2-2.7-0.6c-0.4-0.1-0.6-0.5-0.4-0.8c0.5-0.9,1.1-1.9,0.9-3c-0.5,0.6-0.8,1.3-1.3,1.9c-0.1-0.8,0-1.8,0-2.6
		c0-0.9,0.2-1.9-0.1-2.7c-0.1,0-0.4,0.1-0.5,0.1c-0.4,1.7-0.6,3.3-0.9,5c-0.1,0.5-0.5,0.8-0.7,1.2c-0.2-0.5-0.5-1.1-0.4-1.7
		c0.4-1.5,0.4-3.1,0.5-4.6c0.2-3.2,0.4-6.5,1.1-9.6C204.2,17.5,205.2,17.1,205.7,15.5z M191.7,43.4c0-0.8-0.2-1.7-0.5-2.4
		c0.1-0.2,0.2-0.5,0.4-0.7c0.7,0.1,1.3-0.2,1.9-0.4c0.1-0.2,0.2-0.5,0.4-0.7c0.6,0.5,1.2,1.1,1.3,2c-0.4,0-0.7,0-1.1,0
		c0,0.4,0,0.6,0,0.9c-0.7,0.6-0.2,1.7-0.4,2.5c-0.4-0.1-0.7-0.2-1.1-0.4c0,0.6,0.2,1.3,0.2,1.9c-0.8-0.6-1.4-1.4-2-2.2
		C190.8,43.4,191.2,43.3,191.7,43.4z M181.9,46.6c0-0.4,0-0.6,0-0.9c0.7-0.6,0.5-1.7,1.3-2.1c0.2,0.7,0.4,1.3,0.6,2
		c0.4-0.1,0.6-0.2,0.8-0.4c0.4,0.8,0.6,1.7,0.9,2.5c0.4-0.2,0.4-0.8,0.8-0.8c0.4,0.8,0.7,1.7,0.7,2.6c-0.7-0.5-1.3-1.1-2-1.4
		c-0.2,0.2-0.2,0.8-0.6,0.7c-0.6-0.5-0.8-1.2-1.2-1.8c-0.1,0-0.2,0-0.2,0c-0.4,0.7-0.9,1.4-1.8,1.4c-0.2-0.7-0.4-1.4-0.5-2.2
		C181.2,46.3,181.5,46.5,181.9,46.6z M174.6,62.7c0.6-0.6,1.3-1.1,1.9-1.7c0-0.2-0.1-0.4-0.2-0.6c0.5,0,1.1,0,1.5,0
		c-0.5-0.5-1.2-0.6-1.8-1.1c0.4-0.1,0.8,0,1.3-0.1c-0.8-0.5-1.7-0.6-2.5-0.9c0-0.1,0-0.2,0-0.4c0.6,0,1.3-0.1,2-0.2
		c-0.7-0.5-1.4-0.7-2.1-1.3c0.9-0.1,1.9,0.5,2.8,0.7c1.7,0.5,3.3,1.1,5.1,1.1c0.1-0.4,0.2-0.7,0.6-0.9c-0.5-1.2-1.2-2.4-1.7-3.5
		c-0.4-0.9-0.8-1.9-1.1-3c0.4,0.2,0.7,0.4,1.1,0.5c0.6-0.4,0.2-1.1,0.4-1.7c0.5,0.8,0.7,1.9,1.1,2.8c0.4-0.1,0.4-0.7,0.6-1.1
		c0.4,0.6,0.5,1.3,0.7,1.9c0.2-0.2,0.5-0.6,0.6-0.9c0.5,0.4,0.7,0.9,0.9,1.4c0.2-0.2,0.2-0.7,0.6-0.5c0.1,0.5,0.2,0.9,0.4,1.4
		c0.1-0.4,0.1-0.8,0.2-1.3c0.2,0,0.6-0.1,0.7,0.2c0.4,0.9,0.2,2,0.6,3c0.7,0.1,0.8-0.7,1.3-0.9c0.4,0.8,0.6,1.8,0.9,2.6
		c0.2,0.4,0.6,0.6,0.9,0.8c0.1-0.6,0.2-1.1,0.2-1.5c0.4,0.6,0.6,1.2,1.1,1.7c0.2-0.1,0.5-0.4,0.7-0.5c0.4,0.1,0.8,0.4,1.2,0.4
		c0-0.4,0-0.6,0-0.9c0.2-0.1,0.5-0.4,0.7-0.5c0-0.1,0-0.4,0-0.5c0.1,0,0.2-0.1,0.4-0.1c0-0.1,0-0.4,0-0.5c0.4,0,0.6,0.1,0.8,0.1
		c-0.4-1.2-0.8-2.1-1.3-3.2c0.2,0,0.6,0.1,0.8,0.1c-0.6-0.8-1.5-1.5-1.8-2.6c0.2-0.1,0.6-0.1,0.9-0.2c0-0.5-0.1-1.1-0.1-1.7
		c0.4,0.1,0.6,0.2,0.9,0.5c0.2,0,0.5-0.1,0.7-0.2c0-0.7-0.4-1.4-0.6-2.1c0.2,0.1,0.5,0.2,0.7,0.4c-0.2-0.7-0.7-1.3-0.9-2
		c0.4,0.1,0.7,0.4,1.1,0.6c-0.2-0.6-0.7-1.2-0.9-1.8c0.4,0.1,0.6,0.2,0.8,0.4c-0.1-0.2-0.1-0.5-0.2-0.7c0.6,0,0.4-0.8,0.5-1.2
		c1.5,1.5,2.1,3.8,3,5.8c0.1,0.4,0.4,0.9,0.8,0.7c0.1-0.6,0.2-1.3,0.2-1.9c0.5,0.4,0.9,0.8,1.5,1.2c0-0.6,0-1.2,0-1.8
		c0.1-1.8,0.8-3.3,1.3-5c0.1-0.4,0.1-0.7,0.5-0.8c0.2,0.2,0.4,0.6,0.5,0.8c0.7-0.4,1.4-0.9,2.1-1.8c-0.2,1.1-0.8,2-1.2,3.1
		c0.7-0.2,1.2-0.8,2-0.7c0.1,0.1,0.2,0.2,0.2,0.2c-0.2,0.4-0.6,0.7-0.8,1.1c0.9-0.1,1.7-0.8,2.6-0.9c-0.2,0.4-0.7,0.7-1.1,1.1
		c0.8-0.1,1.8-0.4,2.6-0.5c0.5-0.1,0.9,0.2,1.4,0.4c0,0.1,0,0.4,0,0.5c1.1,0.1,2.2-0.2,3.2,0.4c-0.2,0.1-0.6,0.1-0.8,0.2
		c0,0.2-0.1,0.4-0.1,0.5c-0.8,0.5-1.7,1.1-2.4,1.7c-0.1-0.2-0.4-0.6-0.5-0.8c-1.3,0.4-2.4,0.9-3.5,1.5c-3,1.5-4.9,4.5-5.3,7.7
		c-0.1,1.4-0.1,3.1,0.6,4.5c0.5,1.2,1.5,2,2.1,3.1c-0.4,0-0.8,0.2-1.1,0c-1.2-0.8-2.2-1.8-3.3-2.7c0.1-0.4,0.2-0.6,0.2-0.8
		c-0.2-0.4-0.7-0.7-1.1-1.1c-0.4-0.4-0.5-0.8-0.7-1.3c0.4-0.1,0.8-0.1,0.8-0.5c0.1-0.4,0-0.6-0.1-0.8c-0.6-0.9-1.3-1.9-1.5-3
		c-0.4-0.7-0.7-1.3-1.2-1.9c-0.1,0.2-0.1,0.6-0.2,0.8c-0.1,0-0.5,0-0.6,0c0.1,0.5,0.2,0.9,0,1.4c0.7,1.3,0.6,2.8,1.3,4.1
		c0,0.2,0,0.5,0,0.7c0.2,0.4,0.5,0.6,0.6,0.8c0.2,0.4,0.1,0.8,0.4,1.2c0.4,0.6,0.7,1.1,1.1,1.5c0.1,0,0.1,0.1,0.1,0.2
		c-0.5-0.1-1.1-0.4-1.5-0.5c0.1,0.5,0.2,0.8,0.2,1.3c-0.8,0-1.5-0.6-2.4-0.5c-0.2,0.9-0.4,2-0.5,3c-0.1,1.1-0.7,2-1.4,2.8
		c-0.2-2-0.6-4-1.8-5.6c-0.1,0.1-0.2,0.4-0.4,0.5c-0.6-0.8-1.2-1.8-1.7-2.6c-0.1-0.2-0.4-0.2-0.6-0.4c-0.8-0.2-1.1-1.1-1.8-1.4
		c-0.4-0.1-0.6-0.2-0.9-0.4c0.1,0.1,0.2,0.4,0.4,0.5c0,0.2,0,0.4,0,0.6c0.8,0.9,0.9,2.2,1.5,3.2c0.2,0.2,0.7-0.1,0.9-0.1
		c0.6,1.2,1.3,2.2,1.5,3.5c0.1,0.5,0.7,0.5,0.9,0.8c0,0.5,0,1.1,0,1.7c-0.6,0.7-0.7,1.5-0.9,2.2c-0.7-0.7-0.8-1.5-1.4-2.2
		c-0.6-0.7-1.3-1.3-1.9-2.1c-0.5-0.7-1.3-1.1-2-1.5c-1.5-0.8-3.3-0.9-5-0.8c-2.2,0.1-4.3,1.1-6.5,1.4c-0.1,0.1-0.2,0.1-0.4,0.2
		c0.1,0,0.5,0.1,0.6,0.1c0.1,0.1,0.1,0.4,0.2,0.5c-1.2,1.1-1.4,2.7-2.4,3.9c-0.4,0.4-0.9,0.7-1.4,0.8c-0.1-0.2-0.2-0.6-0.1-0.9
		c0.2-1.2,0.7-2.2,1.1-3.3c-0.2-0.2-0.4-0.4-0.5-0.6c0.1-0.6,0.5-1.1,0.7-1.5C174,63.8,174.1,63.2,174.6,62.7z M186.5,78.2
		c-0.5-0.1-0.8,0.1-1.2,0.4c-0.8,0.5-1.8,0.9-2.7,0.9c-1.7,0-3.3-0.1-5-0.1c-0.7,0-1.3-0.2-1.9-0.6c-0.1-0.2-0.2-0.6-0.4-0.8
		c-0.8-0.4-1.7-0.1-2.5-0.1c0.4-0.6,0.4-1.4,0.8-2c0.6-0.7,0.9-1.5,1.7-1.9c0.6-0.1,0.7,0.7,1.2,0.9c0.9,0.6,1.8,1.3,2.7,1.8
		c2.4,0.8,5.1,0.4,7.1-0.9c0.8-0.6,1.7-1.3,2.6-1.7c0.5,0.6,0.6,1.2,0.7,1.9c0.2,0.8-0.2,1.8-0.8,2.2c-0.6,0.6-1.4,1.1-2.2,1.4
		C186.8,79.2,187.1,78.4,186.5,78.2z M182,74.3c0.5,0.6,1.2,0.9,1.9,1.4c-1.1,0.4-2.5,0.2-3.3-0.6c-1.7-2-2-5.1-0.6-7.3
		c0.8-1.3,2.2-2.2,3.5-2.1c0.8-0.1,1.4,0.5,2,0.8c0.6,0.4,1.3,0.9,1.2,1.7c-0.2,0.5-0.9,0.5-1.4,0.4c-0.5-0.4-0.5-1.1-0.6-1.5
		c-0.8,0.1-1.7,0.2-2.4,0.8c-0.9,0.8-1.5,2.2-1.5,3.5C180.8,72.4,181.4,73.5,182,74.3z M179.3,74.9c-1.1-0.6-1.5-1.8-1.7-2.8
		c0-0.6,0.1-1.3,0.4-1.9C178,71.8,178.8,73.4,179.3,74.9z M168.6,89.1c-0.6-1.1-0.7-2.2-0.8-3.4c-0.4,0-0.8,0.1-1.2,0.1
		c0-0.4,0-0.8,0-1.3c-0.2-0.2-0.6-0.2-0.9-0.5c0.1-0.8,0.5-1.5,0.7-2.4c-0.1-0.1-0.2-0.2-0.4-0.4c0.6-1.3,1.5-2.4,2.7-3.2
		c0.1,0,0.2,0,0.2-0.1c-0.4,1.1-0.8,2.1-1.3,3.2c-0.4,0.8-0.1,1.8-0.1,2.6c0.5,0,0.9-0.1,1.4-0.2c-0.4,0.7-0.8,1.4-0.9,2.2
		c0.6,0,1.1-0.1,1.7-0.2C169.4,86.7,169,87.9,168.6,89.1z M170.9,64.1c-0.2,0.4-0.6,0.8-0.9,1.2c-0.2,0.4-0.4,0.7-0.6,1.1
		c-0.4,0.4-0.7,0.7-0.9,1.1c0.7,0,1.3-0.1,1.9-0.1c-0.7,1.1-1.8,1.7-2.5,2.6c0.6,0.1,1.3-0.1,1.9-0.2c-0.6,0.8-1.5,1.4-2.2,2.2
		c0.6,0,1.1-0.1,1.5-0.1c-0.7,0.8-1.5,1.3-2.2,2c0.8,0,1.5-0.2,2.4-0.4c-0.7,1.7-2.5,2.8-4.3,2.7c0.7-0.5,1.5-0.7,2.4-1.1
		c-1.4-0.1-3-0.1-4.4-0.8c0.8-0.2,1.8-0.5,2.6-1.1c-0.5-0.2-0.9-0.2-1.2-0.7c-0.5-0.7-1.2-1.3-1.8-1.9c0.7,0.1,1.5,0.4,2.2,0.5
		c-0.2-0.6-0.4-1.1-0.7-1.5c-0.5-0.6-1.1-1.1-1.7-1.5c0.1-0.2,0.4-0.4,0.6-0.4c1.2-0.1,2.4-0.1,3.4-0.5c-0.9-0.7-2.2-0.9-3.4-1.2
		c0,0,0-0.1,0-0.2c1.3,0,2.5-0.1,3.7-0.2c-0.4-0.4-0.8-0.6-1.3-0.7c-1.2-0.4-2.4-0.7-3.7-0.9c-0.7-0.1-1.4-0.1-2.1-0.4
		c2.4-0.8,4.9-0.9,7.3-1.2c-1.3-0.9-2.8-1.5-4.3-2.1c-1.1-0.5-2.2-0.8-3.4-0.8c-0.6,0-1.1-0.1-1.5-0.5c-0.9-0.6-2-0.8-3.1-1.2
		c0.6-0.2,1.3-0.4,1.7-0.9c-1.1-0.5-2.1-0.7-3.1-1.3c0.6-0.2,1.3-0.4,1.9-0.6c-0.5-0.6-1.2-0.7-1.9-1.1c-0.8-0.4-1.7-0.8-2.4-1.3
		c0.4-0.1,0.6-0.2,0.8-0.4c-0.4-1.1-1.3-1.7-2-2.5c-0.9-0.8-1.8-1.9-3-2.4c-0.1,1.1,0.2,1.9,0.6,2.8c0.7,1.7,1.5,3.3,2.4,5
		c1.8,3.7,3.8,7.3,6.3,10.6c1.2,1.4,3.2,1.9,4.9,2.6c0.1,0.1,0.2,0.2,0.4,0.4c-0.4,0.6-0.9,0.9-1.4,1.5c-0.4,0.5,0.2,0.9,0.5,1.3
		c-0.4,0-0.6-0.1-0.9-0.1c1.1,0.9,2.4,1.7,3.7,2.2c-0.9,0.1-1.9-0.2-2.8-0.2c0.4,0.5,0.8,0.9,1.3,1.3c0.8,0.7,1.8,1.4,2.7,1.9
		c0.5,0.4,1.1,0.5,1.5,0.8c-0.5,1.1-1.9,0.6-2.8,0.8c0.7,0.4,1.5,0.6,2.2,1.1c-0.4,0.1-0.8,0.2-1.2,0.1c-1.7-0.2-3.1-1.4-4.3-2.5
		c-0.1,0.1-0.3,0.2-0.4,0.3c-0.4-0.4-0.8-0.9-1.1-1.3c-0.6-0.9-0.8-2.1-1.3-3.1c-0.5-0.8-0.9-1.7-1.4-2.5c-1.2-1.9-2.1-3.9-3.4-5.8
		c-0.6-0.8-1.1-1.9-1.7-2.7c-2.2-3.5-4.3-7.3-5.6-11.4c-0.5-1.7-0.8-3.3-0.8-5.1c0.1-0.7,0.1-1.4,0.6-1.9c0.6-0.6,1.4-0.7,2.1-0.8
		c3-0.4,6,0.4,8.5,1.9c3.2,2.3,7.4,2.4,11.3,3.5c1.7,0.5,3.3,1.1,5,1.5c0.4,0.1,0.9,0.1,1.1,0.6c-0.1,0.6-0.5,1.2-1.1,1.2
		c-0.7,0-1.4-0.4-2.1-0.5c-1.3-0.2-2.6-0.8-4-0.9c1.3,0.8,2.8,1.4,4.1,2.2c-0.1,0.1-0.1,0.4-0.2,0.5c0.5,0.4,1.1,0.6,1.7,0.9
		c-0.8,0.1-1.7,0-2.5,0.1c0.8,0.9,2.1,1.1,3.3,1.2c-0.2,0.2-0.4,0.4-0.6,0.6c0.7,0.6,1.5,0.9,2.1,1.7c-0.4,0.1-0.7,0.2-1.1,0.5
		c-0.1,0.5,0.2,0.7,0.5,0.9c-0.4,0.2-0.7,0.4-1.1,0.5c0.2,0.4,0.5,0.7,0.7,0.9c-0.2,0.2-0.6,0.5-0.8,0.7c0.2,0.2,0.6,0.5,0.9,0.7
		c-0.6,0.5-1.3,0.5-2,0.7c0.4,0.2,0.8,0.5,1.2,0.7c-0.6,0.5-1.4,0.6-1.8,1.2C169.9,64.1,170.4,64.1,170.9,64.1z M171.6,89.6
		c0.2-0.8,0.8-1.7,1.3-2.5c0.2-0.4,0.9-0.5,0.8-0.1c0.4,1.1,0.5,2.1,0.5,3.2c0.2,0,0.6,0,0.8,0c-0.4,0.8-1.2,1.1-1.9,1.5
		C172.6,91.1,171.6,90.5,171.6,89.6z M174.6,94.4c-0.5-0.5-0.7-1.2-0.8-1.8c0.7-0.7,1.7-1.1,2.5-1.3c-0.1,0.4-0.2,0.7-0.2,1.1
		c0.5-0.1,0.9-0.2,1.5-0.4c0.2,0.7-0.5,0.9-0.9,1.2C175.9,93.6,175.3,94.1,174.6,94.4z M176,94.8c0.4-0.2,0.8-0.6,1.4-0.8
		c0.6,0.5,1.2,1.2,1.4,1.9C177.8,95.6,176.8,95.2,176,94.8z M178,89.1c-0.4,0.1-0.6,0.4-0.8,0.2c-0.5-0.1-1.1-0.2-1.5-0.4
		c0.5-0.5,1.1-0.8,1.5-1.2c0.4-0.4,0.2-0.9-0.1-1.2c-0.4-0.4-0.9-0.5-1.4-0.8c0.4-0.1,0.7-0.4,0.9-0.6c0-0.6-0.6-0.9-0.8-1.3
		c0.2-0.1,0.4-0.1,0.6-0.2c-0.4-0.4-0.9-0.6-1.2-1.2c1.2-0.5,2.4-0.5,3.4-0.2c0.2,0.1,0.7,0.1,0.6,0.5c-0.4,0.4-0.8,0.7-1.2,1.1
		c0.5,0,1.1,0,1.7,0c0.1,0.1,0.2,0.5,0.6,0.4c1.5-0.1,3.1-0.4,4.6-0.2c-0.6,0.6-1.3,0.7-2,1.1c-0.7,0.2-1.4,0.8-1.8,1.5
		c-0.2,0.5-0.5,1.1-0.9,1.5C179.5,88.6,178.7,88.7,178,89.1z M179.8,96.7c0.6-0.1,1.3-0.1,1.9-0.1c-0.5,0.4-0.9,0.8-1.4,1.2
		C179.8,98.1,179.2,96.9,179.8,96.7z M182.6,98.8c-0.7,0-1.4-0.4-2-0.6c0.7-0.6,1.4-1.3,2.2-1.8c0.6-0.1,1.2-0.1,1.8,0
		C184,97.3,183.3,98.1,182.6,98.8z M231.4,77.3c-0.4,0.8-1.1,1.3-1.7,1.8c-0.5,0.4-1.1,0.6-1.8,0.7c-0.4-0.2-0.6-0.4-0.8-0.6
		c-0.6,1.4-0.8,3-1.8,4.1c-1.1,1.5-2.7,2.6-4.1,3.9c-1.4,1.1-2.8,2.2-3.9,3.7c-1.2,1.7-3.1,2.7-5,3.3c-0.4,0.1-0.7,0.2-1.1,0.5
		c0.5,0.5,1.2,0.1,1.8,0c2.1-0.7,4.3-1.9,5.7-3.7c0.6-0.8,1.4-1.7,2.5-1.9c1.3-0.2,2.6-0.6,3.9-0.9c0.4-0.1,0.8-0.1,1.2,0
		c0.1,0,0.2,0.1,0.2,0.1c-2,0.2-3.9,1.2-5.7,2.1c0.6,0.1,1.2,0.1,1.7,0.5c-1.1,0.5-2.2,0.5-3.2,1.1c0.4,0.2,0.7,0.5,1.1,0.7
		c0,0,0,0.1,0,0.2c-0.7,0.2-1.4,0.2-2.1,0.6c0.5,0.2,0.9,0.5,1.3,0.8c-0.7,0-1.4-0.1-2.1,0c0.5,0.4,1.2,0.6,1.8,0.9
		c-1.1-0.1-2.1-0.1-3.1,0c0.1,0.1,0.1,0.4,0.2,0.5c-0.5,0.1-0.8,0.2-1.3,0.4c0.2,0.6,0.5,1.1,0.6,1.5c-0.8,0-1.7-0.4-2.5-0.4
		c0.1,0.5,0.2,1.1,0.2,1.5c-0.4-0.2-0.7-0.5-1.1-0.6c-0.1,0.6,0,1.1,0.2,1.7c-0.5,0.2-0.9-0.2-1.3-0.5c0.1,0.7,0.4,1.3,0.5,2
		c-0.8-0.5-1.4-1.2-2-1.9c-0.4,0.1-0.2,0.6-0.2,0.8c0.1,0.5,0.2,0.9,0.1,1.4c-0.6,0-1.1-0.6-1.7-0.8c-0.1,0.8,0,1.5-0.1,2.2
		c-0.7-0.7-0.9-1.7-1.7-2.4c-0.2,0.8-0.4,1.7-0.7,2.4c-0.2-0.2-0.5-0.5-0.7-0.7c-0.6,0.2-1.1,0.7-1.7,0.8c-0.2-0.4-0.4-0.6-0.5-0.9
		c-0.5,0.5-0.9,1.1-1.4,1.5c-0.1-0.7,0.1-1.5-0.5-2c-1.1,0.7-2,1.5-3,2.4c-0.1-0.2-0.1-0.5-0.2-0.7c-0.4,0.1-0.8,0.2-1.2,0.4
		c0.1-0.6,0.2-1.2,0.2-1.8c-0.8,0.1-1.5,0.7-2.2,1.1c0.4-0.6,0.8-1.1,1.1-1.7c-1.1,0.4-1.9,1.4-3.2,1.5c-0.6,0.1-1.2,0.4-1.8,0.5
		c1.1-0.8,2-1.5,2.7-2.6c-0.9,0.1-1.8,0.8-2.7,1.1c0.4-0.5,0.7-0.8,1.1-1.3c0,0,0-0.2,0-0.4c-0.6,0.2-1.1,0.6-1.7,0.7
		c0.2-0.5,0.5-0.9,0.7-1.4c-0.6-0.4-1.3-0.6-2-0.6c-1.5,0-3-0.1-4.4-0.1c0.2-0.7,0.8-1.1,1.2-1.7c0.5-0.5,1.1-1.1,1.8-1.3
		c0.4,0.2,0.6,0.4,0.9,0.5c0.5,0,0.8-0.2,1.3-0.4c0.8-0.2,1.7-0.4,2.5-0.5c-0.2-0.2-0.5-0.4-0.7-0.5c-1.1-0.4-2.1-0.7-3.2-1.1
		c0.5-0.9,1.4-1.8,1.7-2.8c-0.8,0.4-1.4,1.2-2,1.8c-0.4,0.4-0.8,0.2-1.3,0.1c-0.1-0.8,0.7-1.4,1.2-2c-0.8,0.5-1.8,1.1-2.6,1.5
		c-0.7,0.5-1.4,0.6-2.2,0.7c0-0.6,0.2-1.4,0.7-1.9c1.3-0.7,2.7-1.2,4-1.8c0.7-0.4,1.5-0.6,2.4-0.9c-2,0.1-3.9,0.6-5.8,1.3
		c0.2-0.7,0.5-1.5,1.1-2.1c1.4-0.6,3-0.8,4.3-1.4c-1.3-0.2-2.5,0.2-3.8,0.4c1.1-1.4,2.1-3.1,3.9-3.5c0.1,0.7,0.6,1.4,1.2,1.8
		c0.2-0.1,0.6-0.1,0.7-0.5c0-0.4-0.1-0.7-0.1-1.1c0.2-0.1,0.5-0.2,0.7-0.2c0.2,0.1,0.5,0.2,0.7,0.4c0.2-0.1,0.4-0.2,0.5-0.5
		c-0.1-0.4-0.4-0.7-0.4-1.1c0.5,0,0.9,0,1.3,0.5c0.2,0.4,0.8,0.4,0.9-0.1c0.1-0.4-0.1-0.6-0.2-0.9c0.5,0,0.8,0,1.3,0
		c0-0.4,0.1-0.7-0.2-0.9s-0.8,0.1-1.2,0.1c-0.5-0.2-1.1-0.5-0.8-0.9c0.5-1.1,1.3-2,1.7-3.2c0.2-0.5,0.2-1.2,0.7-1.7
		c0,0.6-0.4,1.2,0,1.8c0.1,0.2,0.5,0.4,0.7,0.5c1.7,0.7,3.3,1.4,5.1,1.7c1.1,0.2,2.1,0.5,3.1,1.1c0.7,0.4,1.3,1.1,1.3,1.8
		c0,0.7,0,1.4-0.2,2.1c-0.6,1.1-1.3,2-2,3.1c-0.7,1.1-1.8,2.1-3.1,2.4c-0.4,0.1-0.9,0.1-1.1,0.6c0,0.6,0.6,0.6,1.1,0.6
		c0.9,0.1,1.9-0.2,2.6-0.7c0.7-0.5,1.2-1.4,1.8-2c1.1-1.3,2.2-2.4,3.8-3.1c2.2-1.1,4.9-1.1,7.3-1.7c0.9-0.5,1.7-2.1,0.7-3
		c-0.2,0-0.5,0-0.7,0c-0.6,0.6-1.1,1.2-1.9,1.4c-1.1,0.2-2.1,0.2-3.2,0.4c-0.6,0-1.3,0.1-1.9,0c-1.3-0.2-2.4-1.4-2.4-2.7
		c0-1.9,0.7-3.8,0.8-5.8c0.1-0.7,1.1-1.2,1.2-2c0-0.4-0.1-0.7-0.2-1.1c-0.1-0.6-0.7-0.9-0.9-1.5c0.5,0.1,0.8,0.5,1.3,0.6
		c0.7,0.1,1.7,0.2,2.1,0.9c0.4,0.5,0.7,0.9,1.3,0.9c0.8-0.1,1.7,0.2,2.5,0.1c0.6-0.4,0.7-1.1,1.1-1.7c0.5,0.2,1.1,0.6,1.7,0.4
		c0.1-0.4,0.1-0.8,0.1-1.3c0.5,0.1,0.8,0.4,1.2,0.7c0.4,0.2,0.5-0.2,0.7-0.5c0.2-0.1,0.6-0.1,0.8-0.2c0-0.1,0-0.4,0-0.6
		c-1.1-0.1-2-0.8-3.1-1.1c0.6-0.2,1.2-0.5,1.8-0.6c0.9-0.1,1.9-0.1,3.2-0.2c0.6,0,1.3-0.1,1.9,0.2c0.5,0.4,1.1,0.4,1.5,0.4
		c-0.2,0.4-0.5,0.7-0.7,1.1c1.3,0.4,2.8-0.1,3.9,0.8c0,0.1,0,0.2,0,0.2c-0.6,0.6-1.3,0.9-1.9,1.5c0.9,0,1.8-0.8,2.7-0.9
		c0.1,0.4,0.2,0.8,0.1,1.2c-0.1,0.5-0.2,1.2-0.8,1.3c-1.7,0.6-3.3,1.1-5,1.7c0,0.1,0,0.2,0,0.4c1.5-0.2,3.1-0.7,4.7-0.9
		c-0.2,0.5-0.5,0.9-0.8,1.4c-1.7,0.2-3.4,0.5-5,1.1c0.4,0,0.8,0.1,1.3,0c0.9-0.2,2-0.4,3.1-0.4c-0.6,0.9-1.5,1.5-2,2.6
		c1.3-0.6,2.2-1.8,3.4-2.6c1.1,0,2,0.1,3,0.2c0.4,0,0.6-0.2,0.8-0.4C232.4,75.8,231.7,76.4,231.4,77.3z M233.5,73.8
		c-0.2,0.2-0.4,0.6-0.7,0.8c-1.1-0.1-2.2-0.4-3.3-0.4c0.5-0.7,1.1-1.3,1.7-1.9c0.2-0.4,0.7-0.4,1.1-0.5c1.1-0.2,2.1-0.5,3.1-0.6
		C234.8,72.2,234.1,73,233.5,73.8z"/>
	<path class="st0" d="M157,48.4c-2.1-1.1-4.1-2.4-6.5-2.8c-0.7-0.1-1.5-0.4-2,0.4c0.7,0.1,1.5,0.1,2.1,0.4c2,0.8,3.9,2,5.8,3.1
		c1.2,0.6,2.2,1.2,3.4,1.8c1.3,0.7,2.7,1.3,4.1,1.5c-0.4-0.4-0.7-0.6-1.2-0.8C160.9,50.7,159,49.5,157,48.4z"/>
	<path class="st0" d="M221.3,70.9c-0.4,0-0.7,0.5-1.2,0.5c-0.2,0-0.6,0-0.9,0c-0.2,0.2-0.5,0.6-0.7,0.8c-0.4-0.1-0.8-0.4-1.2-0.1
		c-0.2,0.1-0.4,0.5-0.5,0.7c-0.2-0.1-0.5-0.1-0.8-0.1c-0.2,0.5-0.1,0.9,0,1.4c0.6,0.2,1.1-0.4,1.8-0.5c0.5,0,0.8-0.2,0.9-0.7
		c0.5,0,0.9,0.1,1.3-0.2c0.5-0.5,1.2-0.6,1.8-0.8C221.8,71.5,221.8,71,221.3,70.9z"/>
	<path class="st0" d="M193.2,86.4c0.4-0.1,0.8,0,1.2-0.1c0.1-0.4,0.1-0.8,0.4-1.2c0.4-0.1,0.7-0.1,1.1-0.2c0.1-0.5,0.1-1.3-0.5-1.4
		c-0.6-0.2-0.8,0.5-1.2,0.8c-0.2,0-0.6,0-0.8,0c-0.2,0.4-0.2,0.8-0.6,1.1c-0.4,0.1-0.8,0.1-1.2,0.2c-0.1,0.4-0.1,0.7-0.2,1.1
		c-0.4,0.4-0.9,0.4-1.1,0.8c0,0.2,0.1,0.5,0.2,0.7c0.2,0.1,0.5,0.1,0.7,0.1c0.1-0.1,0.4-0.4,0.5-0.6c0.4-0.1,0.7,0,1.1-0.2
		C192.9,87.1,192.9,86.6,193.2,86.4z"/>
	<path class="st0" d="M221.6,73.1c0,0.5,0.6,0.7,1.1,0.6c0-0.2,0-0.6,0-0.8C222.3,72.8,221.5,72.6,221.6,73.1z"/>
	<path class="st0" d="M220.2,75.4c0.5,0.1,0.6-0.4,0.7-0.7c-0.4-0.1-0.8-0.1-1.2-0.1C219.7,74.9,219.7,75.4,220.2,75.4z"/>
	<path class="st0" d="M189.6,89.9c-0.4,0.1-0.2,0.8,0.2,0.8c0.4,0.1,0.9-0.1,0.8-0.6C190.4,89.9,189.9,89.6,189.6,89.9z"/>
	<path class="st0" d="M202.2,97.6c-1.1,0.6-2.2,1.1-3.3,1.7c0-0.2,0.1-0.5,0.1-0.7c-0.8,0.2-1.4,0.6-2.2,0.8c-0.6,0.1,0-0.5,0.1-0.6
		c0-0.2,0-0.4,0-0.5c-0.4-0.2-0.8-0.5-1.3-0.4c-0.6,0-1.4,0.5-1.9-0.2c-0.8,0.4-1.7,0.9-2.4,1.5c1.1,0.1,2-0.1,3-0.4
		c-0.4,0.6-0.5,1.3-0.7,2c0.8-0.2,1.5-0.6,2.4-0.8c0.4,0,0.2,0.6,0.6,0.5c1.1-0.1,2-0.5,3-0.9c-0.1,0.2-0.1,0.5-0.2,0.7
		c1.1-0.5,2.1-0.9,3.1-1.4c1.2-0.6,2.4-1.3,3.3-2.2c-0.7,0.1-1.4,0.4-2.1,0.6C203.1,97.3,202.7,97.3,202.2,97.6z"/>
</g>
</svg>
