<?xml version="1.0" encoding="utf-8"?>
<!-- Generator: Adobe Illustrator 26.0.3, SVG Export Plug-In . SVG Version: 6.00 Build 0)  -->
<svg version="1.0" id="Слой_1" xmlns="http://www.w3.org/2000/svg" xmlns:xlink="http://www.w3.org/1999/xlink" x="0px" y="0px"
	 viewBox="0 0 238.1 150.2" style="enable-background:new 0 0 238.1 150.2;" xml:space="preserve">
<style type="text/css">
	.st0{fill:none;stroke:#000000;stroke-width:0.5;stroke-miterlimit:10;}
</style>
<g>
	<g>
		<path class="st0" d="M207.8,19.6c1.7,1.3,2.1,3.6,2,5.6c0.1,1.3-0.4,2.6-1,3.8c0.5,1,0.9,2,1.4,3c0.3,0.6,0.4,1.2,0.4,1.8
			c-0.5-0.2-1-0.3-1.5-0.5c0.3-0.2,0.7-0.4,1-0.6c-0.4-0.1-0.8-0.6-1.2-0.3c-0.6,0.4-0.7,1.2-0.8,1.8c0.7,0.1,1.8-0.4,2.3,0.2
			l-0.1,0.2c-0.5,0.1-1.1,0.1-1.6,0.1c0.2,0.3,0.3,0.7,0.6,0.8c0.5,0,0.7-0.6,1.1-0.7c0.3,0.5,0.1,1,0.1,1.6c-0.2,1.3,0.2,2.7,0.1,4
			c0,1.3-0.7,2.5-0.6,3.8c0.1,3.2,0.4,6.4,0.8,9.6c0.1,1.4,0.9,2.6,1.5,3.9c0.9,1.9,2.2,3.7,3.3,5.6c0.6,1.2,1.7,2,2.3,3.2
			c1,1.9,1.6,4.1,1.6,6.3c0.1,1-0.2,2.1,0.1,3.1c0.4,1.6,0.7,3.3,0.7,5c-0.1,1.2,0.2,2.5,0,3.7c-0.5,1.7-1.8,3.3-1.4,5.1
			c0.2,1.6-0.1,3.2-0.7,4.7c-0.6,1.2-0.5,2.7-1.4,3.7c-0.5,0.9-1.5,1.2-2.2,1.8c-1.5,2.2-2.7,4.5-3.8,6.9c-0.5,1-0.1,2.1-0.3,3.1
			c-0.1,0.9-0.9,1.5-1.4,2.1c-0.2,1.6,0.2,3.3,0.1,5c-0.2,1-1.1,1.8-2,2.3s-2,0.3-3,0.2c-0.8,1-1.3,2.4-2.5,3.2
			c-1,0.9-2.6,0.9-3.6,0.1c-1-0.9-1.5-2.3-1.3-3.6c0.2-1.4,1.1-2.5,2.1-3.4c0.2-0.2,0.7-0.5,0.5-0.9c-0.7-4.1-1.1-8.1-2.1-12.1
			c-0.3-1.6-0.8-3.2-1.1-4.8c-0.1-1.3,1.4-1.7,2-2.6c-0.1-0.6-0.6-1-1-1.3c-0.8-0.7-1.9-0.5-2.8-0.7c-0.8-0.1-1.5-0.5-2.3-0.8
			c-0.8,0.6-0.7,1.6-0.7,2.5c0,2.5,0,5,0,7.5c0,1,0.5,2,1.2,2.7c1.1,1,0.6,2.7,0.8,4c0.3,2.4-0.2,4.9,0.6,7.2
			c0.4,1.3,0.6,2.8,1.5,3.8c0.8,0.9,1.3,2.2,1.1,3.4c-0.1,1-0.4,2.1,0.3,2.9c0.9,1,1.9,1.8,2.3,3.1c0.4,1.2,1.2,2.2,1.3,3.5
			c-1.6,0.3-3.7,0.2-4.5,1.9c-0.8,0-1.9,0.2-2.3-0.8c-0.4-1.4,0.3-2.9-0.4-4.2c-0.1-1.4,0.6-3-0.3-4.3c-1-0.7-2-1.8-1.8-3.1
			c0.5-2.5,0.5-5.3-1-7.5c-0.7-1.3-1.9-2.3-1.9-3.9c0-2.1-1.3-4-0.7-6.1c-0.6-2.1-1.8-4-3.1-5.8c-1-1.4-1.3-3.1-1.2-4.7
			c-0.1-3.3-2.5-5.9-3.5-8.9c-1.2-2.9-1.9-6-2.2-9.1c-0.1-0.6-0.1-1.2-0.4-1.7c-0.7,0.9-1.2,1.9-1.9,2.9c-0.3,0.5-0.9,0.6-1.4,0.8
			c-0.4,1.3-1.7,2.2-1.5,3.7c0.3,1.4,1,2.6,1.5,4c0.7,1.8,0.7,3.7,0.5,5.6c-0.1,1.1-0.5,2.2-0.5,3.3c0,1.1,0.1,2.2,0.2,3.2
			c0.1,0.8,0.9,1.3,0.9,2.2c0.2,1.1,0.2,2.1,0.4,3.2c0.2,1.3-0.5,2.5-0.4,3.7c0.2,2.2,0.5,4.3,1.2,6.4c0.3,1,0.9,2,1.1,3
			c0.2,1.1-0.5,2.1-0.6,3.2c0.4,0.9,1.1,1.5,1.5,2.4c0.2,0.6,0,1.2,0.2,1.7c0.3,1.1,1,2.2,1.2,3.3c-1.4,0-2.8-0.3-4.1,0
			c-1.2,0.2-2.2,0.8-3.4,0.9c0.1-1.4,0.5-2.8,0.7-4.2c-0.1-0.5-0.4-0.9-0.4-1.4c0.3-0.8,0.7-1.5,0.8-2.3c-0.2-0.9-1-1.4-1.3-2.3
			c-0.6-1.7,0.9-3.3,0.2-5c-0.8-0.4-1.8-0.8-2.2-1.7c-0.2-1.4,0.2-2.9,1.1-4c-0.2-0.4-0.4-0.8-0.7-1.1c-0.5-0.4-1.2-0.5-1.6-1.1
			c-0.4-0.9-0.2-1.9-0.4-2.8c-1.1-1.9-2.6-3.5-4.2-4.9c-1.1-0.9-1.7-2.4-1.3-3.7c0.5-2.2,0.7-4.6,0.1-6.9c-0.7,0-1.6-0.4-2.2,0.2
			c-0.6,0.6-1.6,0.8-1.8,1.8c0.1,0.9,0.3,1.9,0.5,2.8c0.4,0.9,1.1,1.6,1.3,2.6c0.3,1.5,0.2,3,0.6,4.5c0.6,0.9,1.6,1.5,1.8,2.6
			c0.2,1,1.1,1.8,1.1,2.8c-0.1,1.3,0.9,2.4,1.1,3.7c0.8-0.2,1.7-0.6,2.5-0.2c1.2,1.8,1.4,4.1,1.3,6.2c-0.3,2-3.2,2.9-4.6,1.5
			c-0.9-0.8-0.8-2.1-1.2-3.1c-0.2-0.9-0.8-1.7-1.4-2.4c0.2-0.3,0.4-0.7,0.7-1c-0.2-0.5-0.4-1-0.8-1.5c-0.6-0.5-1.4-0.7-1.9-1.3
			c-0.5-0.7-0.6-1.5-1-2.2c-0.3-0.5-0.8-0.9-1-1.4c-0.4-0.8,0.1-1.8-0.4-2.6c-0.4-0.8-0.9-1.6-1.6-2.2c-0.6-0.7-1.6-0.9-2-1.7
			c-0.3-0.7-0.6-1.5-0.9-2.3c-1.8,1.1,0,3.6-1.3,5c-0.6,0.6-0.2,1.4-0.1,2.1c0.7,0.2,1.5,0.3,1.9,0.9c0.5,0.7,1.1,1.3,1.5,2.1
			c-0.2,1.4-0.2,3.1-1.4,4c-0.7,0.6-2,1-2.8,0.4c-0.6-0.8-0.7-1.9-1.3-2.8c-0.4-0.6-1.3-0.9-1.3-1.7c0.1-1.4,0.6-2.8,0.1-4.2
			c-0.2-0.4-0.6-0.7-0.8-1.1c0-0.9,0-1.8,0-2.7c0.6-1.6,2-2.9,2.3-4.7c-0.6-2-2-3.7-3.8-4.8c-1.1-0.7-2-1.7-2.9-2.6
			c-1,1.2-2.6,1.7-3.6,2.8c0.2,0.6,0.4,1.1,0.6,1.7c-1,0.1-1.9-0.2-2.8-0.7c-0.6,1.9-1.2,3.9-2.3,5.5c-0.6,1.1-1.5,1.9-2.1,2.9
			c-0.2,1-0.2,2-0.7,2.8c-0.6,1-0.7,2.1-1.2,3.1c-0.4,0.9-1.1,1.6-1.6,2.5c-1.1,1.9-1.9,4-2.3,6.2c-0.3,1.6-0.5,3.3-0.8,4.9
			c-0.2,0.8-1.1,1-1.7,1.3c-0.5,2.1-0.6,4.2-0.4,6.3c0.1,1-1.1,1.1-1.7,1.6c-0.7,0.6-1.9,0.9-2.6,0.2c-0.7-0.5-1.9-0.5-2.4-1.3
			c0.4-1.3,0.6-2.8,1.6-3.7c0-0.3-0.1-0.6,0.1-0.8c0.6-1.1,1.8-1.8,2.5-2.9c0.3-1.2-0.2-2.6,0.6-3.7c1.4-1.7,2.6-3.5,3.3-5.6
			c0.3-1.4,0.6-2.9,0.8-4.4c0.2-0.9,0-1.9,0.2-2.8c0.2-0.6,0.7-1.1,1-1.7c0.1-0.7,0-1.4,0.1-2c0.3-0.8,0.8-1.4,1-2.3
			c0.4-1.9-0.1-3.9,0.3-5.8c0.2-1.9,1.3-3.7,0.6-5.6c-0.3-1.3-2.3-1.5-3-0.4c-1,1.2-1.2,2.8-1,4.3c0.2,1.9,2.1,3,2.5,4.8
			c0.1,0.9-0.7,1.6-1.2,2.2c-1.9,2.2-3.8,4.5-5.6,6.7c-0.9,1.4-1.9,3-1.8,4.8c0,1.2-0.8,2.3-1.5,3.2c-0.8,1.2,0,2.6,0.7,3.7
			c0,1,0.2,2,0.2,3.1c-0.6,2.2-3.4,2.6-5.3,2c-0.7-0.4-0.4-1.2-0.3-1.9c0.2-0.9,0.3-1.9,0.2-2.8c0.4-1.4,1.1-2.6,1.4-4
			c-0.2-1-0.9-1.9-0.7-3c0.2-1.3,1.4-2.1,2-3.1c1.3-1.9,2.5-3.8,3.7-5.7c1-1.4,1.3-3.2,1-4.9c-0.5-1.6-2.3-2-3.3-3.2
			c-0.7-0.7-1-1.6-1.5-2.4c-0.4-0.2-0.9,0.1-1.3,0.1c-2.3,0.7-4.8,1-7.2,0.8c-0.7-0.1-1.7,0-1.9,0.8c-0.5,1.7-0.9,3.4-1.4,5.1
			c-0.4,1,0.5,1.8,0.5,2.8c0,0.6-0.4,1.2-0.4,1.8c0.5,0.7,1.6,0.8,2,1.6c1.4,1.9,1,4.9-1,6.1c-0.6,0.3-1.4,0.9-1.9,0.3
			c-0.8-1.1-1.4-2.4-2.1-3.6c-0.5-0.9,0-2-0.2-3c-0.4-0.9-1.4-1.7-0.9-2.8c1-2.5,1.7-5.2,1.7-7.9c0-0.7,0.2-1.7-0.5-2.2
			c-1.1-0.1-2.3-0.1-3.4-0.4c-1.4,2.6-2.6,5.3-4.3,7.7C93,94,91.9,95,91.1,96.1c-0.8,1.3-0.6,2.9-1.1,4.3c-0.4,1.1-1.2,2-1.8,3.1
			c-0.5,1.2-0.4,2.6-0.3,3.8c0.2,1.7,0.2,3.4,0.2,5.1c0,0.8-0.9,1.3-0.8,2.1c0.1,0.7,0.1,1.6,0.7,2.1c1.2,0.9,1.2,2.7,1.1,4.1
			c-0.5,2.1-3,3.4-5.1,2.9c-0.4-0.3-0.4-0.9-0.5-1.3c-0.1-1.1-0.1-2.2-0.1-3.2c0-1.1,0.7-2.1,0.8-3.2c0-1.1,0-2.3-0.5-3.3
			c-0.4-0.8-0.1-1.7,0.3-2.5c0.9-1.9,1.1-3.9,1.3-6c0.1-1.3,0.2-2.6-0.1-3.8c-0.2-0.8,0.2-1.6,0.2-2.5c0.1-0.6,0-1.2,0.2-1.7
			c0.5-0.8,1.6-1.2,1.8-2.1c0.7-2.3,1.4-4.6,1.5-7c0.1-2.3,0.5-4.6,1.4-6.7c0.3-0.6,0.6-1.3,0.8-1.9c-0.2-0.8-0.7-1.5-0.9-2.3
			c-0.4-1.7,0.2-3.4,0.2-5c-1.4,0.5-2.9,0.4-4.3,0.1c-0.6-0.7-1.3-1.2-1.8-2c-0.2-1.2-0.8-2.3-0.7-3.5c0.3-0.2,0.6-0.3,0.9-0.2
			c-0.2-0.5,0.1-1,0.1-1.5c0-1.2,0-2.3,0.1-3.5c0.1-1.5-0.5-3-0.8-4.5c-0.3-1.3-1.5-2-1.8-3.3c0.4-0.8,0.7-1.7,0.9-2.6
			c0.6-1,0.2-2.1,0.6-3.1c0.1-0.4,0.5-0.9,0.2-1.3c-0.6-0.9-1.2-1.9-1.5-3c-0.4-1.4-0.4-3.2,0.8-4.2c0.6,0.9,0.8,1.9,1.3,2.8
			c0.6,0.7,1.2,1.5,2.1,1.7c-0.4-1.1-1.8-1.8-1.7-3.1c0.3-1.5,1.3-2.7,2.4-3.7c1.2,0.4,2.5,0,3.6-0.4c-0.6,0.9-2,1.5-2.1,2.7
			c1,0.1,2.1-0.1,2.3-1.2c0.4,0.3,0.9,0.6,1.3,0.2c0.8-0.7,1.6-1.3,2.5-1.9c0.5-0.3,0.8-0.8,1-1.3c1.2,0.2,2.3,1,3.5,1.2
			c0.7,0.1,1.3,0.5,1.8,1c0.7,0.7,1.9,0.7,2.5,1.5c1,1.1,1.7,2.3,2.7,3.3c0.5,0.1,1,0,1.5,0c-0.3,0.8-1,1.2-1.8,1.5
			c0.3,0.2,0.7,0.4,1,0.6c0.9-0.1,1.9-0.2,2.8,0c-1.2,0.7-2.4,1.3-3.8,1.6c0.2,0.4,0.3,0.7,0.5,1.1c-1.3,0.1-2.6,0.9-3.9,0.3
			c-0.9-0.3-1.4-1.1-2-1.7c-0.9-1-2-1.8-3.2-2.5c-1.1-0.7-2.5-0.9-3.8-1.1c-0.3-0.6-0.4-1.3-1.1-1.7c0.2,0.8,0.5,1.5,0.4,2.3
			c0,0.9-0.4,1.8-0.6,2.7c0.6-0.4,0.9-1.1,1.2-1.7c0.4,0.8,0.6,1.8,0.3,2.7c0.2,0,0.5,0,0.7,0c0,0.1,0.1,0.4,0.1,0.5
			c-0.1-1-0.3-2.1-0.2-3.1c2.6,0.5,5.1,1.8,6.9,3.9c0.7,0.8,1.8,0.8,2.8,1c0.7,0,1.2,0.6,1.9,0.8c0.6,0,1.1,0,1.7,0
			c-0.2-0.4-0.3-0.8-0.5-1.2c0.5,0.4,1,0.9,1.6,1.2c-0.2-1-1.2-1.6-1.9-2.3c0.4,0,0.8,0,1.2,0c-0.3-0.3-0.6-0.5-0.8-0.8
			c1.2,0.2,2.2,0.7,3.2,1.4c0.8,0.7,1.8,0.1,2.7-0.1c-0.1,0.6-0.1,1.3-0.6,1.8c-0.6,0.7-1.4,0.9-2.1,1.4c1,0.7,2.2,0.2,3.2-0.1
			c-0.3,0.6-0.7,1.3-1.4,1.6c-0.7,0.3-1.5,0.3-2.2,0.6c1.1,0.6,2.4,0.8,3.4,1.6c0.6,0.4,1.1,1,1.8,1c1.2-0.3,2.2-1.2,3.5-1.1
			c1.4,0,2.9-0.1,4.2,0.3c1.7,0.4,3.4,0.6,5.2,0.8c1.2-0.4,0.3-1.9,1-2.7c0.3-0.6,0.9-0.6,1.5-0.8c0.8-0.1,1.1-0.9,1.8-1.3
			c1-0.2,2.1-0.2,3,0.5c0.8,0.7,1.9-0.3,2.8,0.2c1.8,0.8,3.2,2.3,4.4,3.8c0.6,0.7,1,1.7,1.7,2.3c1.1-0.7,2.3-1.2,3.5-1.5
			c1.2-1-0.9-2.2,0.1-3.2c1.5-2,2-4.7,1.8-7.2c0-1.3-1.1-2.3-1.3-3.6c-0.1-0.8,0.4-1.5,0.8-2.1c0.8-1.4,1.6-2.8,2.3-4.2
			c-0.7-1.3-1.6-2.5-1.9-3.9c-0.3-1.4-0.2-3,0.6-4.2c0.5,0.6,1.1,1.1,1.6,1.7c0.7,0.7,1.1,1.7,1.6,2.5c1.1,0.3,0.2-1.3,0.8-1.7
			c1.2-1.2,2.6-2.1,4-3c-0.2,0.9-0.4,1.7-0.7,2.6c1.5,0,2.4-1.4,3.6-2.1c0.3,0.7,0.5,1.5,0.9,2.2c0.7,0.3,1.4,0,2.1,0.3
			c1.3,0.5,2.8,1.3,3.5,2.6c-1.2-0.5-2.5-0.5-3.6,0.3c0.6,0.9,1.8,1.1,2.5,1.9c0.8,0.7,0.9,1.9,1.6,2.7c0.7,0.7,1.6,0.9,2.5,1.2
			c-0.7,1.3-1.9,2.1-3.2,2.5c1,1.5,2.8,2.1,4.3,3c1.1,0.6,1.8,1.7,2.3,2.8c0.5,1,0.3,2.2,0.4,3.3c1.7-1.1,2.9-2.8,4.7-3.9
			c0.5-0.1,1,0,1.6,0c1.8,2.6,3.3,5.3,4.9,7.9c0.7,1.1,1.1,2.5,2.3,3.3c1.4,0,3.1,0.5,4.2-0.5c-1.3-0.4-2.6-0.7-3.6-1.7
			c-0.9-0.7-1.3-1.7-1.5-2.8c0.9,0.5,1.6,1.3,2.4,1.9c0.5,0.4,1.2,0.2,1.8,0.2c0-0.7-0.8-0.6-1.2-0.8c-0.5-0.2-0.8-0.6-1.1-1
			c0.9,0,2.3,0.5,2.7-0.7c0.3-2.8-0.6-5.6,0.3-8.3c0.9-2.7,3.3-4.4,4.9-6.7c-0.3-0.7-0.7-1.4-0.7-2.2c0.8-0.1,1.7-0.3,2.6-0.3
			c-0.4-0.9-1-1.8-2.2-1.5c0,0.4-0.1,0.8-0.1,1.3c-0.8-0.3-0.4-1.2-0.5-1.8c-1,0.4-2,0.8-3.2,0.8c-0.9-0.1-1.9-0.3-2.8-0.6
			c0.9-0.9,2.2-0.3,3.4-0.5c-0.3-0.4-0.8-0.7-1.3-0.9c0.8-0.4,1.7-0.8,2.6-1c0.5-0.1,0.9-0.4,1.2-0.8c-0.3,0-0.9-0.1-1.2-0.2
			c0.4-0.9,1.6-1.1,2.1-1.9c-0.6-1.4-1-2.9-1-4.4c-0.5-0.2-1.1-0.4-1.6-0.8c0.6-0.1,1.2-0.2,1.8-0.3c0.2-0.3,0.4-0.8,0.8-1
			c0.5-0.1,1-0.1,1.5-0.1c0.2,0.3,0.4,0.6,0.5,0.9c1,0,1.8,0.4,2.7,0.8c0.7,0,1.6-0.2,2.2,0.3c0.8,0.7,1,1.8,1.2,2.9
			c0.1,0,0.3,0,0.5,0.1C206.5,23.2,207.4,21.4,207.8,19.6z M207.9,21.3c-0.1,0.5-0.1,0.9-0.3,1.4c-0.9,1.9-0.5,4,0.1,6
			c0.1,0,0.4-0.1,0.6-0.1c0.2-1.4,0.2-2.9,0-4.3c-0.1-1,0.2-2,0.2-3C208.4,21.2,208.1,21.3,207.9,21.3z M202.6,22.1
			c0.5,0.6,0.9,1.9,1.9,1.5C204.2,22.9,203.6,21.9,202.6,22.1z M199.9,22.4c0.2,1,1,1.8,2.1,1.6C202,22.9,200.9,22.1,199.9,22.4z
			 M150.7,27.4c-0.2,1.4,1.6,1.9,1.8,3.2c0.2,1.1,0,2.2,0.5,3.2c0.6-0.9,0.3-2,0.3-3C153,29.3,151.9,28.2,150.7,27.4z M161.7,30.8
			c-0.8,1.3-1.4,2.6-1.8,4c-0.8,0.4-1.5-0.6-2.2-0.9c0.1,0.6,0.5,1.2,1,1.5c1.6,0.9,3.7,0.6,5.1,1.8c1.7,1.2,1.7,3.9,3.6,4.9
			c-0.3-1.1-1.1-1.9-1.4-3c-0.3-1.1-0.7-2.2-1.7-2.9c-1.1-0.7-2.5-0.9-3.7-1.2c-0.2-1.5,1.5-2.4,1.7-3.8c0-1.1,0-2.4-0.7-3.3
			C160.9,28.7,161.8,29.7,161.7,30.8z M201.2,28.6c-0.7,0.5-1.9,0.6-2.2,1.5c1.1,0,2-0.7,2.9-1.2c-0.8,1.3-2,2.3-2.3,3.9
			c0.8-0.3,1.2-1.3,1.8-1.8c0.8-0.7,1.7-1.6,1.6-2.8C202.5,27.7,201.8,28.4,201.2,28.6z M203.9,28c0.1,0.6,0,1.2,0.4,1.6
			c0.7,0.9,1.7,1.3,2.5,2.1c0.3,0.5,0.5,1,0.9,1.3c0.3-1.6-1.5-2.1-2.1-3.4c0.9,0.4,1.7,1,2.7,1.1c-0.2-1-1.2-1.3-2-1.7
			C205.5,28.7,204.8,28,203.9,28z M155.8,29.9c-1.3,0.9,0.1,3.1,1.5,2.9c-0.4-0.7-1.1-1.2-1.2-2c0.5-0.9,1.8-1.5,1.5-2.7
			C157.1,28.8,156.5,29.4,155.8,29.9z M159.4,29.2c-1,1.2-1.3,3-0.5,4.4c0.2,0,0.5,0,0.6,0c-0.1-0.9-0.5-1.8-0.1-2.7
			c0.3-0.8,0.9-1.3,1.4-2C160.5,28.1,159.7,28.7,159.4,29.2z M155.3,36.3c0.8,0.9,1.1,2.3,2.3,3c0.1-0.1,0.4-0.2,0.5-0.3
			c-0.4-0.5-0.9-1-1.2-1.7c1.8,0.7,3.8-0.1,5.6,0.7c0.9,0.3,1.1,1.4,1.9,1.7c-0.3-1.2-1.1-2.1-2.2-2.6c-1.8-0.6-3.9-0.2-5.7-1
			c-0.9-0.4-0.6-1.5-1-2.2C154.9,34.6,154.6,35.6,155.3,36.3z M197,34.4c0.1,0.2,0.2,0.6,0.2,0.8c0.4,0,0.9,0.1,1.1-0.4
			C198,34.4,197.4,34.5,197,34.4z M204.3,37.8c-0.3,1.1,0.4,2.1,0.7,3c-0.5,0-1,0-1.4,0.3c0.9,0.5,2.2,0.7,2.3,2
			c0.3,1-0.5,1.7-0.9,2.5c1.4-0.1,2-1.6,1.6-2.8c-0.5-1.4-1.2-2.7-1.5-4.1c-0.3-1.2,0.9-2.1,0.9-3.2
			C205.1,36.1,204.6,36.9,204.3,37.8z M199.4,36c0.1,1,0.8,1.8,0.7,2.8c-0.2,0.7-0.7,1.2-0.9,1.8c0.3,0,0.8,0.1,1-0.3
			C201.3,39.2,201,36.6,199.4,36z M208.6,36.8c-0.5,0.8-0.9,1.7-1,2.7c0.2,0,0.5,0,0.7,0c0.2-0.9,0.6-1.8,0.7-2.8
			C208.9,36.7,208.7,36.7,208.6,36.8z M97.4,41.1c0.5-0.2,1.1-0.4,1.2-1.1c0.1-0.9,0.3-1.8,0.5-2.7C97.7,38.2,98.3,40,97.4,41.1z
			 M87.5,37.9c0,0.6-0.1,1.1,0,1.7c0.2,0.8,0.8,1.6,0.8,2.4c0,0.8-0.3,1.6-0.5,2.4c0.8-0.3,1.3-1.1,1.8-1.7c0.2,0,0.5,0,0.7,0
			c0.4,0.6,0.7,1.3,1.4,1.6c-0.4-1.4-0.9-2.7-1-4.1c-0.3,0.6-0.6,1.4-1.4,1.6c-0.3-0.8-0.7-1.5-1.1-2.3C88,38.9,88.1,38.2,87.5,37.9
			z M195.3,42.5c-0.2,0.9-0.7,2,0.1,2.8c0.3-1,0.3-2,0.7-3c0.4-0.9,1.1-1.5,1.7-2.2c0.4,1.6-0.2,3.2,0.4,4.7
			c0.3,0.7,1.1,1.4,1.9,0.9c-0.4-0.4-1-0.7-1.1-1.3c-0.1-0.7-0.1-1.4,0.1-2c0.4-0.5,1.2-0.6,1.4-1.3c-0.6,0.1-1.3,0.3-1.8,0.5
			c-0.2-0.8,0.1-2.2-0.9-2.6C196.4,39.6,195.7,41.2,195.3,42.5z M159.1,39.3c0,1-1.3,1.3-1.3,2.3c-0.2,0.4-0.2,1.2,0.4,1.1
			c0.3-0.7,0.4-1.6,1-2.1c-0.1,0.3-0.2,0.7-0.3,1c0.3,0.1,0.6,0.3,0.9,0.4c-0.5,0.3-0.9,0.6-1.3,0.9c0.2,0.1,0.7,0.3,0.9,0.4
			c0.5-0.3,0.9-0.8,1.2-1.2c-0.2-0.3-0.3-0.6-0.5-0.9c0.3,0,0.6-0.1,1-0.1c0-0.3,0.1-0.7,0.1-1C160.7,39.4,159.9,39.3,159.1,39.3z
			 M84.1,42.8c0.5,0.8,0.6,1.7,0.7,2.6c1,0.3,0.6-0.9,0.5-1.5c-0.4-1.5-1.5-2.7-2.2-4.1C82.8,40.9,83.6,41.9,84.1,42.8z M99.4,41.5
			c1.5-0.2,3-0.2,4.5,0c-0.3-0.7-1.1-0.9-1.7-1.1C101.2,40.2,99.7,40.2,99.4,41.5z M207.5,43.9c0.2,1.2-0.6,2.2-1,3.3
			c-0.3,0.8-0.7,1.9-1.7,2.1c-1.2,0.1-2.5,0.2-3.7,0c-1-0.4-1-1.7-1.9-2.2c-0.3,1.5,1.4,2.3,1.5,3.8c0.9,3.8,0.1,7.9,1.2,11.7
			c0.1,0,0.4,0.1,0.5,0.1c-0.2-2.8-0.7-5.5-0.7-8.2c0-1.4-0.4-2.8-0.5-4.2c1.4,0.2,2.9,0.5,4.2-0.1c1.1-0.4,1.2-1.7,1.7-2.6
			c0.4-1.1,1.5-1.8,2.1-2.8c0.2-0.6-0.5-0.5-0.9-0.6c-0.1-1.1,0.3-2.1,0.5-3.1C207.6,41.4,207.4,42.9,207.5,43.9z M199.9,42
			c0.7,0.9,0.7,2,1,3c0.1-0.1,0.4-0.3,0.5-0.4c-0.1-0.8,0.1-1.7-0.3-2.4C200.9,41.8,200.3,42,199.9,42z M203.3,44.6
			c0.2,0,0.5,0.1,0.6,0.1c0.1-0.8,0.2-1.6,0.5-2.3c-0.1-0.1-0.4-0.2-0.5-0.2C203.3,42.8,203.2,43.7,203.3,44.6z M154.2,46.8
			c-0.5,1.1-0.8,2.4-0.5,3.7c0.7,0.9,1.6,1.6,2,2.7c0.1-0.3,0.4-0.7,0.3-1.1c-0.3-0.5-0.8-0.9-1.2-1.4c-0.5-0.6-0.5-1.4-0.3-2.1
			c0.6-2,1.6-4,1.7-6.1C155,43.7,154.8,45.4,154.2,46.8z M165.6,43.4c0.2,0.7,1,0.8,1.5,1.2c-0.7,0.1-1.5,0.2-2.2,0.4
			c0.5,1.3,1.8,1.7,2.8,2.4c-0.8,0.3-1.6,0.3-2.4,0.3c0.5,0.8,1.6,1.1,2.5,0.7c0.5-0.3,1.1-0.8,0.8-1.4c-0.8-0.4-1.7-0.7-2.4-1.3
			c1.1-0.2,2.1-0.7,3.2-0.6c0.8,0.2,1.5,0.6,2.3,1c-0.3-0.9-1-1.4-1.7-1.9C168.7,43.6,167.1,44,165.6,43.4z M162.2,43.9
			c0,2.2,0.1,4.6-0.7,6.7c-0.3,0.9-1.2,1.3-1.8,2.1c1.3,0.3,2.4-0.9,2.7-2.1c0.4-2.1,0.5-4.2,0.2-6.3
			C162.5,44.2,162.3,44,162.2,43.9z M201.1,46.2c-0.1,0.9,0.6,1.7,1.5,1.6c0.9,0,1.5-0.9,1.2-1.7c-0.4,0.3-0.8,0.7-1.2,1
			C202.1,46.8,201.7,46.5,201.1,46.2z M195.5,49.7c-0.5,1-1.4,1.7-1.9,2.7c0.8,0.1,1.5-0.5,2.1-0.9c-0.3,2.2-1.2,4.4-2.4,6.2
			c-1,1.4-2.5,2.5-3.1,4.2c0.7-0.3,1.2-1,1.7-1.5c0.8-0.9,1.8-1.6,2.4-2.7c1.7-2.8,3-5.9,3.1-9.1c0-0.7,0.2-1.6-0.4-2.2
			C196.5,47.5,196.1,48.6,195.5,49.7z M87,47.2c-0.5,0.6-0.8,1.5-1.5,2c-0.5,0.6-1.4,1.4-0.9,2.1c0.9-1.2,2-2.3,2.5-3.7
			c0.6,0.8,0.8,1.8,1.1,2.7c0.4,0.6,1,1.2,1.8,1.3c-0.5-1.1-1.3-2.1-1.9-3.2C87.9,48.1,87.7,47.3,87,47.2z M93.7,48.3
			c-0.7,0.9-0.6,2.1-0.5,3.2c-0.6,0.3-1.3,0.5-1.9,0.9c-0.4,0.4-0.5,1-0.5,1.6c0.4-0.3,0.5-0.9,1.1-1c0.6,0,1.1-0.4,1.6-0.8
			c0.6-0.6,0.2-1.5,0.2-2.2c0.2-0.6,0.3-1.1,0.4-1.7C94,48.2,93.8,48.3,93.7,48.3z M171,48.4c0.1,0.6,0.5,1.2,0.8,1.7
			c0.5,0.8,0.8,1.7,1.2,2.5c0.5-0.6,0.9-1.2,1.2-1.9C173.7,49.4,172.4,48.5,171,48.4z M178.9,48.9c-1.6,1.4-2.8,3.1-3.6,5
			c-0.9,2.2-1.9,4.3-3.1,6.3c-0.2,0.3-0.5,0.6-0.9,0.5c-1.1-0.4-1.2-2.1-2.5-2.3c0.4,1.5,1.4,2.7,2,4.1c0.5,0.9,0.9,1.9,1.6,2.7
			c0.5-0.1,1.2,0.1,1.6-0.4c2.9-2.5,3.7-6.5,5.2-9.8c0.3-1.3,1.2-2.2,2.1-3.2c-1-0.2-1.8,0.6-2.2,1.4c-1.7,3.6-2.8,7.6-5.6,10.5
			c-0.4,0.4-1.2,0.3-1.3-0.3c0.5-0.7,1.1-1.3,1.3-2.1c0.7-2,1.3-4.1,1.9-6.2c0.8-2.2,2.4-4,4-5.6c0.3-0.3,0.5-0.7,0.6-1
			C179.6,48.5,179.2,48.6,178.9,48.9z M95.8,49.4c0.1,1.3,1.1,2.2,1.2,3.5c0.3,2.2,0.1,4.5-0.6,6.6c-0.5,1.3-1.8,2-3,2.6
			C92.7,62.9,92.5,64,92,65c-0.6,0.9,0.4,1.9,0.1,2.8c-0.2,0.7-0.6,1.4-0.6,2.1c0.7-0.3,1.3-1,1.5-1.8c0.2-0.9-0.4-1.7-0.4-2.6
			c0.4-0.9,0.9-1.8,1.1-2.8c1.2-0.7,2.4,0.3,3.1,1.2c0.9,1.4,1.6,2.9,2.3,4.4c0.1,0.4,0.4,0.6,0.8,0.8c-0.1-2.9-1.3-6-3.9-7.6
			c1-0.8,1.8-1.9,2.4-3.1c0-1.8,0-3.5,0.3-5.3c0.1-0.7-0.2-1.4-0.4-2.1c-0.1,0.3-0.3,0.7-0.4,1C97.3,51,96.8,50,95.8,49.4z
			 M166,49.6c0.2,2.1,0.5,4.6,2.4,5.9c0.4,0.2,1.3,0.1,1.3-0.5c-0.8-0.5-1.8-1-2-2.1C167,51.9,166.9,50.4,166,49.6z M168,50.4
			c0.1,1,0.7,1.8,1.2,2.5c0.8,0.9,2.1,1.8,3.3,1.1c0-0.3,0-0.6-0.1-0.8C171.4,51.7,169.8,50.5,168,50.4z M207.5,50.5
			c0,1.7,0.3,3.5-0.3,5.1c-1,2.7-1.8,5.5-2.1,8.4c0.2,0,0.5,0,0.7,0c0.2-2.5,1-5,1.8-7.4c0.8-2,1-4.3,0.3-6.4
			C207.9,50.2,207.6,50.4,207.5,50.5z M131.7,53.9c0.2-0.5,0.5-1,0.7-1.5c0.4-0.7,1.2-1,1.5-1.7C132.6,50.9,130.9,52.4,131.7,53.9z
			 M198.3,52.2c-0.2,4.3-0.3,8.7-1.4,12.9c-0.2,0.9-0.2,1.9-0.3,2.8c0.8-0.3,0.7-1.2,0.9-1.9c0.3-1.6,1.2-3,1.2-4.7
			c0-3.5,0.1-7,0-10.5C198.2,51.1,198.4,51.8,198.3,52.2z M133.5,53.6c1-0.2,1.9-0.7,2.9-0.7c1.4,0,2.7,0.9,3.9,1.4
			c0-0.4-0.1-0.8-0.4-1c-0.9-0.9-2.1-1.7-3.5-1.6C135.2,51.9,134,52.6,133.5,53.6z M151.7,52.2c0.2,1.1,1.6,0.3,2.1,1
			c0.7,0.6,0.3,1.6,0.4,2.4c0.2-0.1,0.5-0.3,0.7-0.4c0.3-1.2-0.2-2.5-1.3-3.2C153,51.7,152.3,52,151.7,52.2z M91.8,54.5
			c0.9,0.4,1.6-0.4,1.7-1.2C92.9,53.6,92.3,54,91.8,54.5z M156.8,55.8c-0.4,0.9-1,1.7-1.9,2.2c-1,0.4-2.1,0.3-3.1,0.4
			c0.1,0.8,1.1,0.6,1.6,0.6c2.8,0.1,5.3-3.2,4-5.8C157,54.1,157.2,55,156.8,55.8z M151.8,53.8c0.1,1,0.9,1.7,1.5,2.5
			C154.1,55.2,152.5,54.4,151.8,53.8z M87.8,56.8c-0.1,1-0.2,2-0.2,3c1.1-0.8,0.3-2.4,0.9-3.5c0.4-0.6,0.9-1.2,1-2
			C88.8,55,87.9,55.7,87.8,56.8z M131.7,54.7c0,0.1,0,0.4,0,0.6c2.2,0,4.4,0.8,5.8,2.5c0.9,0.9,1.4,2.2,2.5,2.9
			c-0.7-2.2-2-4.3-4.1-5.4C134.7,54.6,133.1,54.5,131.7,54.7z M162,56.5c-0.3,4.7-0.6,9.3-1.4,13.9c-0.2,1-0.7,2-0.5,3.1
			c1.2-0.9,1.4-2.4,1.6-3.8c0.7-4.6,1-9.3,0.7-14C162.2,55.9,162,56.1,162,56.5z M90.2,57.4c-0.5,1.2-0.7,2.5-1.1,3.8
			c-0.5,0.2-0.9,0.4-1.4,0.6c0,1-0.1,2,0.3,2.9c0.5,0.6,1.3,0.9,1.9,1.4c-0.1-0.9-0.8-1.4-1.6-1.8c-0.1-0.7-0.1-1.3-0.2-2
			c0.5-0.2,1.1-0.4,1.3-0.9c0.5-1,0.7-2.1,1-3.2c0.2-0.7,0.7-1.3,1-2C90.9,56.3,90.4,56.8,90.2,57.4z M149.5,56.5c0,0.5,0,0.9,0,1.4
			c-2,1.8-3.2,4.4-3.5,7c-0.2,1.7-0.6,3.5-0.1,5.2c0.3-0.3,0.5-0.7,0.5-1.1c0.1-2.4,0.5-4.9,1.3-7.2c0.4-1.4,1.4-2.6,2.3-3.7
			C150.5,57.5,149.8,56.9,149.5,56.5z M100.1,59c-0.2,0-0.7,0-0.9,0c0.3,0.6,0.7,1.2,0.9,1.8c0.5,1.3,0.4,2.7,0.5,4
			c0.1,0.7-0.2,1.6,0.4,2.2c0.3-1.3,0.2-2.7,0.2-4.1c-0.1-1.2,0-2.4-0.7-3.4c0.8-0.5,1-1.4,1.3-2.3C101.2,57.8,100.6,58.4,100.1,59z
			 M184.2,57.4c-1.8,0.9-3.3,2.4-4.1,4.3c-1.3,3-2.2,6.1-2.6,9.3c0.2,0,0.5-0.1,0.7-0.2c0.7-2.9,1.6-5.8,2.8-8.5
			c0.7-1.4,1.8-2.7,3.1-3.6c0.5-0.3,0.9-0.7,1.3-1.2C185.1,57.3,184.6,57.1,184.2,57.4z M145.2,60.9c-3.7,3.9-4.8,9.7-3.9,14.9
			c0.4,2.9,1.8,5.6,3.9,7.7c1.2,1.3,1.7,3.6,3.7,4c-0.3-0.4-0.6-0.7-1-1.1c-0.9-0.8-1.1-2-1.8-3c-0.5-0.9-1.4-1.5-1.9-2.4
			c-2.2-4.3-2.9-9.4-1.7-14.1c0.5-1.5,1.3-3,2.5-4.2c1-1.1,2-2.4,2.1-3.9C146.1,59.2,145.9,60.2,145.2,60.9z M210.4,59.4
			c-0.5,1.6-0.8,3.3-1.7,4.8c-1,1.8-2,3.9-1.6,6c0.8-0.7,0.9-1.9,1.5-2.9c0.8-1.9,2.3-3.6,2.4-5.7C211,60.9,211.1,60,210.4,59.4z
			 M130.5,61c-0.6,1.1-0.5,2.4-0.6,3.6c-0.2,3,0.6,6.2-0.4,9.1c-1,3.9-3.8,7.3-7.3,9.3c-0.8,0.4-1.6,0.7-2.4,1.2
			c0.5,0.2,1.1,0.1,1.6-0.1c5.4-1.8,9.5-6.9,10.2-12.6c0.2-2.9-0.4-5.7-0.6-8.6c-0.1-0.9,0.4-2.5,1.6-2c0.4,0.6,0.4,1.3,0.5,1.9
			c0.3,3,0.1,6.1-0.7,9c-0.2,0.7-0.6,1.4-0.2,2.1c1.6-4,2.3-8.4,1.7-12.7C133.6,59.9,131.3,59.7,130.5,61z M90.4,64.1
			c0.9-0.5,1.2-1.5,1.6-2.3C90.9,62,90.2,63,90.4,64.1z M152.5,62.1c-0.1,2.7,1.6,5,2.9,7.3c0.8,1.2,1.1,2.6,1.3,4
			c0.1,0,0.4,0,0.5,0c-0.2-1.5-0.4-3-1.1-4.4c-0.7-1.7-2-3.2-2.6-4.9C153.2,63.4,153.2,62.5,152.5,62.1z M192.8,63.9
			c-0.7,0.8-1.4,1.8-1.5,2.9c-0.1,1.3-0.6,2.6-1.3,3.8c-0.9,1.6-0.8,3.6,0,5.2c0.2,0.4,0.4,0.6,0.9,0.6c-0.2-0.9-0.6-1.7-0.6-2.7
			c0-1.2,0.8-2.3,1-3.5c0.4-1.2,0.3-2.6,0.7-3.8c0.5-1.5,1.9-2.7,2-4.3C193.3,62.4,193.3,63.3,192.8,63.9z M117.2,62.9
			c0.1,2.4,1.3,4.5,1.7,6.8c0.2,1.5-0.2,3-0.5,4.4c-0.2,1.1-0.8,2.1-1,3.2c1-0.2,1.6-1.1,2.1-2c1.4-2.5,1.5-5.7,0.3-8.3
			C119,65.6,118.4,64,117.2,62.9z M183.7,63.4c-1.3,2.3-2,4.9-2.4,7.5c-0.2,2.4-0.1,4.8,0,7.2c0.2,0.1,0.6,0.1,0.8,0.2
			c0-3.3-0.3-6.7,0.6-9.9c0.4-1.9,1.4-3.6,1.9-5.5C184.2,62.9,183.9,63.1,183.7,63.4z M140.1,65.4c-0.9,1.8-1.5,3.6-2,5.5
			c-0.2,0.6-0.3,1.2-0.6,1.8c-0.5,0.6-1.3,1-1.8,1.7c0.4,0,0.9,0.1,1.3,0.1c1-0.4,1.5-1.4,1.7-2.4c0.3-1.9,0.8-3.9,1.6-5.7
			c0.7-1,1.4-2.1,1.6-3.3C140.9,63.5,140.5,64.5,140.1,65.4z M176.8,64c-0.8,1.6-1.1,3.4-2,5c-0.7,0.7-1.7,1.1-2.7,0.9
			c-0.9-0.1-1.3-1.2-2.3-1.3c0,0.4,0,0.9,0.2,1.3c0.7,1.8,1.2,3.8,2.5,5.2c0.5,0.6,1.6,0.5,2.1-0.1c0.9-1.1,1.5-2.6,1.2-4
			c-0.7,0.8-1,1.9-1.7,2.7c-0.4,0.5-1.3,0.3-1.6-0.2c-0.6-0.9-1.1-1.9-1.5-2.9c1.1,0.7,2.7,1.1,3.8,0.1c0.6-0.5,1-1.2,1.2-2
			c0.4-1.6,1.1-3.2,1.3-4.9C177.2,63.8,176.9,63.9,176.8,64z M88,66.1c0.3,0.4,0.8,0.8,1,1.3c0.2,0.7,0.1,1.4,0.2,2
			c0.1,0,0.4,0,0.6,0c0-1,0.2-2.2-0.6-3C88.9,66,88.4,66,88,66.1z M105.6,68.5c-1.2,0.8-2.6,1.2-3.7,2.2c-1.2,1-1.9,2.3-2.6,3.6
			c-0.7-0.5-1.4-1-2.2-1.1c-1-0.1-1.8-0.8-2.7-1.2c0.8,1.5,2.6,2.1,4.2,2.6c0.3,1.2,0.2,2.4,0.2,3.5c-1.1,0.2-2.3,0-3.4-0.3
			c0.3,0.8,1.2,1,2,1.1c1,0.1,1.7,0.9,2.6,1.4c0-1.8-0.2-3.7,0.1-5.5c0.4-1,1.2-1.7,2-2.4c1-0.9,2.2-1.4,3.4-2
			c1.2-0.6,2-1.7,2.6-2.8c0.3-0.4,0.2-0.8,0.2-1.2C107.2,67,106.5,67.9,105.6,68.5z M88.1,67.1c-0.3,0.7-0.5,1.3-0.6,2
			c0,0.6,0.6,1,1.1,0.9c-0.1-0.4-0.3-0.8-0.4-1.2c0.1-0.6,0.3-1.2,0.4-1.8C88.4,67.1,88.2,67.1,88.1,67.1z M211.4,72.3
			c-1,0.7-2.1-0.3-3.1,0.1c-0.6,0.2-1,0.7-1.5,1.1c-0.1-0.5-0.2-1-0.3-1.5c-0.4,0.4-0.6,0.9-0.9,1.4c-1.1-0.4-2-1.2-3.2-1.6
			c-0.8-0.2-1.6-0.6-2.2-1.2c-0.1,0.1-0.2,0.3-0.2,0.4c0.7,0.9,1.5,1.9,2.7,2.1c1.1,0.1,2.2,0.5,3,1.2c0,0.8,0,1.5,0,2.3
			c-1.8,0.6-3.6,1.5-4.8,3c-0.9,1.1-1.1,2.6-0.8,3.9c0.8-0.6,0.8-1.6,1.2-2.4c0.4-0.9,0.8-1.8,1.7-2.3s1.8-1,2.8-1.3
			c0.2,1.1,0.2,2.1-0.1,3.2c-0.1,0.7-0.5,1.4-0.4,2.1c0.3,0.7,0.8,1.2,1.2,1.8c0.5,0.9,0.6,1.8,0.8,2.8c0.1,0,0.4,0,0.5-0.1
			c-0.1-1.9-0.9-3.7-1.9-5.2c1.3-2.2,0.7-4.8,0.6-7.3c0.6-0.9,1.8-0.7,2.7-0.7c1.6,0.2,3.1-0.9,3.5-2.5c0.4-1.3,1-2.5,0.8-3.9
			C212.7,69.2,212.7,71.2,211.4,72.3z M165.5,73.4c-1.2,1.7-2.5,3.4-4.2,4.7c-1,0.5-2,1.2-3,1.6c-1.3-0.4-2.5-0.9-3.8-1.3
			s-1.8-1.8-2.7-2.6c0,1.2,1,2.2,1.9,3c1.3,1.2,3.3,1.2,4.5,2.5c0.4,0.6,0.4,1.4,0.5,2.1c-0.6,0.3-1.3,0.5-1.7,1
			c-0.2,0.3-0.6,0.7-0.1,0.9c0.7-0.2,1.4-0.6,2.2-0.7c0.3,0.5,0.7,0.9,1,1.3c0.1-0.6,0.1-1.2,0.2-1.8c1.2-0.1,2.2,0.6,3.4,0.6
			c-0.7-1.3-2.1-1.9-3.6-1.6c-0.1-0.9-0.2-1.7-0.4-2.6c0.7-0.5,1.4-1,2.2-1.3c1-0.4,1.8-1.1,2.5-1.9c0.1,0.1,0.2,0.3,0.3,0.5
			c0-0.3-0.1-0.7,0.1-1c0.5-0.9,1-1.9,1.5-2.8c0.4-0.8,1.2-1.2,1.8-1.9C167,72,166.1,72.6,165.5,73.4z M108.8,74.3
			c-1.5,1-2.6,2.5-3.8,3.8c-0.9,0.7-2.3,0.9-3.1,1.7c-0.6,0.9-0.6,2-0.8,3c-0.1,0.6-0.5,1.4,0.2,1.8c0.2-1.2,0.6-2.4,1-3.5
			c0.3-0.8,1.2-0.7,1.9-1c1.4-0.5,2-2,3-2.9c1-1,1.9-2.2,3.3-2.6c0.6-0.2,1.6,0.1,1.8-0.7C111.1,73.7,109.8,73.7,108.8,74.3z
			 M137.2,77.9c-0.9,0.8-2.5,0.8-2.9,2.1c1.4,0.3,2.6-0.5,3.5-1.5c0.5-0.7,0.7-1.5,1.1-2.3c0.2,1.3,0.3,2.6-0.4,3.8
			c-0.7,1.3-2.1,2-3.2,3c-1,0.8-0.8,2.7,0.5,3.1c0-0.9-0.3-2,0.4-2.8c0.8-0.5,1.8-0.8,2.5-1.5c0.6-0.8,0.7-1.9,0.9-2.9
			c0.7,1.2,0.9,2.6,0.7,3.9c-0.4,0.6-0.9,1-1.1,1.7c0.9,0,1.7-0.6,2-1.4c0.5-1.7-0.6-3.2-1.1-4.8c-0.7-1.5-0.4-3.2-0.5-4.8
			C138.5,74.8,138.5,76.8,137.2,77.9z M144.4,77.8c-0.1,1.8,1,3.5,2.2,4.7c0.6,0.6,0.8,1.7,1.8,1.6c-0.3-2.1-2.5-3-3-5
			c-0.3-1-0.1-2.1-0.1-3.2C144.3,75.9,144.5,77.1,144.4,77.8z M208.8,77.2c0.7,0.3,1.6,0.4,2.1,1c1,1.3,1,3.1,1.9,4.5
			c0.4-1.2,0.1-2.4-0.2-3.6c-0.2-0.9-0.7-1.9-1.6-2.3C210.3,76.6,209.2,76.3,208.8,77.2z M111.6,79.6c-1.3,0.1-2.7-0.1-4,0
			c-0.7,0.1-1.4,0.5-1.7,1.2c1.1-0.1,2.2-0.6,3.3-0.5c1.2-0.1,2.3,0.3,3.5,0.3c0.6-0.8,1.5-1.5,1.9-2.5
			C113.3,77.8,112.9,79.6,111.6,79.6z M188.1,78.1c-0.1,1.8,0.6,3.5,0.7,5.3c0,2.2,2.1,3.4,2.8,5.4c-1.3-0.3-2.7-0.6-3.8-1.5
			c-1-0.8-1.8-1.7-2.7-2.7s-1.6-2.1-2.6-2.9c-0.3,0.8,0.2,1.5,0.5,2.1c1,1.9,2.4,3.5,4.2,4.7c1.7,1.1,3.6,1.6,5.5,2.1
			c0.2-0.5,0.5-1.2,0.1-1.7c-0.8-1.3-1.8-2.4-2.6-3.6c-0.8-1.6-0.2-3.4-0.8-5.1C189,79.4,188.8,78.5,188.1,78.1z M92.1,78.6
			c0,0.1,0.1,0.4,0.1,0.6c1.3,0.6,2.8,1.3,3.5,2.6c0.6,0.7,0.7,1.8,1.6,2.2c-0.2-1.3-0.7-2.6-1.4-3.8C95,79.1,93.5,78.5,92.1,78.6z
			 M114.3,82.9c-0.8,0.6-1.9,0.8-2.9,0.4c-1.3-0.4-2.5-1.5-4-1c-1.2,0.6-1.2,2.2-1.1,3.4c0.9-0.5,0.7-1.5,0.9-2.4
			c2.1,0.2,4,1.7,6.2,1.3c1.7-0.7,2-2.8,2.1-4.5C114.7,80.8,114.9,82,114.3,82.9z M167.7,80.7c-0.6,1-0.6,2.2-1.1,3.2
			c-0.4,1-1.2,1.9-1.7,2.8c0.2,0.9,0.7,1.7,1,2.6c0.1,0.4,0.4,0.6,0.8,0.8c-0.2-1.1-0.6-2.1-0.9-3.1c0.6-1,1.3-2,1.6-3.1
			c0.3-0.9,0.2-2,0.9-2.8c0.4,0.2,0.7,0.4,1.1,0.6c0.3-0.2,0.7-0.3,1-0.5C169.7,80.5,168.5,80.3,167.7,80.7z M213,85.5
			c-0.7,0.4-1.5,0.3-2.2,0.8c-0.8,0.8-0.9,2.2-0.4,3.2c0.4-0.8,0.5-1.8,1.2-2.4c0.8-0.8,2.2-0.4,3.1-1.2c0.8-0.8,1.2-1.8,1.9-2.7
			c0.4,0.3,0.8,0.5,1.3,0.7c0.1-0.8-0.4-1.5-1-2C215.2,82.6,214.5,84.5,213,85.5z M194.9,83.4c-0.5,1-1.1,2-1.3,3.2
			c0.8-0.3,0.9-1.3,1.4-1.9c-0.1,0-0.2-0.1-0.2-0.2c0.3-0.4,0.5-1.2,1.1-1.3c0.9,0.5,1.4,1.4,2.1,2c1.2,1.2,2.9,1.9,4,3.3
			c0.7,0.8,0,2.2,1.1,2.7c0-1.4,0.4-3.1-0.6-4.2c-1.2-0.9-2.7-1.3-4-2.2c-0.8-0.6-1.4-1.6-2.2-2.1C195.7,82.4,195.1,82.9,194.9,83.4
			z M150.9,87.2c-0.1,1.4,0.5,3,1.8,3.7c-0.3-0.8-0.8-1.6-1.2-2.4c-0.2-1.1,0.2-2.2,0.8-3.1c1.2,0,2.3,0.7,3.1,1.5
			c0.6,0.6,1.2,1.2,2,1.3c-0.8-0.8-1.7-1.4-2.2-2.4s-1.7-1.1-2.5-1.6C151.8,84.8,150.8,85.9,150.9,87.2z M167.7,89.7
			c0,0.8,0.1,1.6,0.3,2.3c0.7,1.6,1.9,3,2.6,4.6c0.4,0.8,0.2,1.9,1,2.5c0.2-2.5-0.9-4.8-2.4-6.7C168.5,91.6,168.3,90.5,167.7,89.7z
			 M194.3,89.8c0.7,2.3,2.9,3.6,4.9,4.5c-0.1-0.4,0-1-0.4-1.3c-1-0.8-2.2-1.1-3.1-2C195.3,90.7,195,90,194.3,89.8z M201,89.8
			c-0.1,0.7-0.1,1.5,0.4,2.1c0.8,0.9,2,1.2,2.6,2.2c0.5,0.6,0.5,1.4,0.7,2.1c0.1,0,0.3,0.1,0.4,0.1c0.3-0.8,0-1.7-0.4-2.4
			c-0.5-1.1-1.8-1.6-2.7-2.4C201.5,91,201.8,90,201,89.8z M204.8,90.5c0,0.2,0,0.5,0,0.6c0.9,0.6,1.9,0,2.9,0.1
			c0.7,0.1,1.3-0.4,1.8-0.9c-0.6-0.2-1.2-0.4-1.8-0.7C206.8,90.1,205.8,90.5,204.8,90.5z M209.5,93.8c-0.7,1.4-1.8,2.5-3.1,3.4
			c-0.6,0.4-1.1,0.9-1.2,1.6c-0.4,2.7-0.1,5.5,0.9,8.1c0.2,0,0.4,0,0.6,0c1.8-2.5,3.3-5.2,3.9-8.1c0.2-0.8-0.2-1.6-0.1-2.4
			c0.2-1.2,0.7-2.4,1.4-3.3c0.2-0.4,0.8-0.8,0.4-1.3C210.9,91.3,210.1,92.8,209.5,93.8z M158.6,93.1c0.2,1.2,0.2,2.5,0.2,3.7
			c0.1,0.8,0.2,1.8,1.1,2c-0.1-1.2-0.5-2.3-0.6-3.4c-0.1-1-0.2-1.9-0.5-2.9C158.8,92.6,158.6,92.9,158.6,93.1z M167.4,96.2
			c0.6,1,1.3,1.9,2,2.9c0.2,0.4,0.7,0.3,1.1,0.2c-0.3-1.7-1.4-3.2-2.4-4.5C167.4,94.5,167.1,95.7,167.4,96.2z M198.7,97.6
			c0.1,1.4,0.9,2.8,2.3,3.2c-0.2-0.9-1-1.4-1.4-2.3c-0.2-0.6-0.3-1.2-0.5-1.8C198.8,96.9,198.6,97.2,198.7,97.6z M102.6,101.6
			c0,0.1,0,0.4,0,0.6c1.4,0,3-0.9,3.1-2.5C104.7,100.4,103.9,101.3,102.6,101.6z M151.8,102.9c-0.4,0.9-1.3,1.4-2.1,2
			c0.8,0.9,1.8-0.1,2.4-0.8c0.4-0.6,1-1.5,0.5-2.2C152.2,102,152.1,102.6,151.8,102.9z M170,104.6c0,1,0.8,1.8,1.2,2.7
			c0.7,1,0.5,2.3,0.7,3.4c0.2-0.1,0.6-0.4,0.8-0.5c-0.2-1.2-0.1-2.6-0.9-3.6c-0.4-0.6-0.8-1.2-1-1.9c-0.2-1,0-1.9-0.2-2.9
			c-0.1-0.1-0.4-0.2-0.5-0.2C169.8,102.6,169.9,103.6,170,104.6z M201.9,111.1c0,0.4,0.2,1.1,0.8,0.8c0.3-2.1,0.3-4.2-0.1-6.2
			c-0.2-1-0.2-2-0.8-2.8C200.6,105.5,201.6,108.4,201.9,111.1z M165.7,109c0.5,1.1,1.7,1.8,2.2,2.9c0.1,0,0.4,0,0.5,0.1
			C168.3,110.5,167.1,109.3,165.7,109z M205.7,112c-0.6,0.1-1.1,0-1.7,0.1c0.7,1.5,3.3,0.5,3.1-1C206.7,111.4,206.2,111.7,205.7,112
			z M114.7,113.3c-0.3-0.1-1.2-0.2-0.7,0.4c1.2,0.9,3,0.3,3.6-0.9C116.7,113,115.8,113.5,114.7,113.3z M202.2,115.7
			c0,0.8,0.7,1.2,1.4,1.4c1.1,0.4,2.2,0.1,3.3-0.2c0.5-0.2,0.7-0.7,0.8-1.2c-0.9,0.3-1.7,0.9-2.6,0.9
			C204,116.7,203.1,116,202.2,115.7z M200.5,121.9c-0.5-0.9-1.9-1.1-1.9-2.3c-0.2-1,0.6-1.8,0.8-2.7
			C196.8,117.8,197.7,122.3,200.5,121.9z M86,119.1c-0.6,0.3-1.4,0.1-2,0.2c0.1,0.4,0.3,1,0.8,1c1.4,0.2,2.6-0.7,3.4-1.7
			c-0.1-0.2-0.2-0.5-0.3-0.6C87.2,118.2,86.7,118.7,86,119.1z M119.9,119.8c0,1.1,1.3,1.4,2.2,1.3c0.5,0.1,1.5-0.2,1.1-0.9
			C122.1,120.2,121,120,119.9,119.8z M173.4,123.9c1.3-0.5,2.7-0.4,4-0.2c0-1-1.2-1.2-1.9-1.2C174.6,122.5,173.4,122.8,173.4,123.9z
			 M194.1,130c1.1-0.4,2.2-0.7,3.3-0.7c-0.1-0.2-0.3-0.5-0.4-0.7C196,128.5,194.3,128.7,194.1,130z"/>
	</g>
</g>
</svg>
