<?xml version="1.0" encoding="utf-8"?>
<!-- Generator: Adobe Illustrator 26.0.3, SVG Export Plug-In . SVG Version: 6.00 Build 0)  -->
<svg version="1.1" id="Слой_12" xmlns="http://www.w3.org/2000/svg" xmlns:xlink="http://www.w3.org/1999/xlink" x="0px"
	 y="0px" viewBox="0 0 239.5 150.2" style="enable-background:new 0 0 239.5 150.2;" xml:space="preserve">
<style type="text/css">
	.st0{fill:#0B0B0B;}
</style>
<g>
	<path class="st0" d="M188.8,21.2l0-0.3c-0.2-0.6-0.8-0.9-1.2-1.3c-0.9-0.8-2-1.4-3-2c-2.3-1.5-5.1-2.3-7.7-3.1
		c-1.9-0.3-3.7-1.1-5.7-0.9c-2.3-0.8-4.7-1.2-7-2.2c-0.7-0.1-1.4-0.5-2-0.9c0.2-0.2,0.4-0.3,0.6-0.5c-1.8-0.1-3.5-0.8-5.3-1
		c0.2,0.9,0.6,1.9,1.4,2.5c1.8,1.3,3.9,2.2,6.1,2.7c3.4,1,7,2.1,9.9,4.4c0.9,0.8,1.4,1.8,1.9,2.9c0.3,1.2,0.3,2.7-0.7,3.6
		c-0.6,0.5-1.3,1.1-2.2,1c0.7-0.3,1.3-1,1.5-1.8c0.3-1.6-0.8-2.9-1.6-4.1c-1.5-1.5-3.4-2.5-5.3-3.3c-1.7-0.8-3.6-1.1-5.3-1.9
		c-1.5-0.7-3.1-1.2-4.6-2.1c-3.3-2.3-6.2-5.4-7.9-9.1c2.1,1.7,4.5,2.9,6.9,4.2c2,1.1,4.3,1.7,6.5,2.4c-0.3,0-0.8,0-1.1,0
		c-0.2,0.1-0.4,0.3-0.6,0.4c0.9,0.3,1.8,0.6,2.7,0.9c2,0.4,4.1,0.7,6.1,1c6.5,0.6,13.2,3.1,17.6,8.2c0.3,0.3,0.1,0.7,0.2,1.1
		C189,21.6,188.8,21.4,188.8,21.2z"/>
	<path class="st0" d="M176.7,16.3c-0.3-0.5-0.9-0.7-1.4-1c-0.9-0.4-1.8-0.8-2.7-1c0,0,0-0.1,0-0.2c1.6,0.6,3.4,0.9,4.8,2
		c0.7,0.6,1.4,1.6,0.8,2.6c-0.3,0.6-1,0.5-1.5,0.5c0.3-0.2,0.7-0.4,1-0.7c0.2-0.9-0.2-1.7-0.8-2.4C176.8,16.1,176.8,16.2,176.7,16.3
		z"/>
	<path class="st0" d="M189.2,30.1c-1.3,0.4-2.5,0.9-3.9,0.8c-1.3,0-2.7-0.3-3.9-0.8c-1.6-0.6-2.6-2.2-2.7-3.9c1,0.1,1.9,0.7,3,0.7
		c1.2,0,2.5,0.1,3.5-0.6c1.3-1,2.4-2.7,1.9-4.4c-0.4-1.3-1.4-2.3-2.3-3.2c-0.1-0.1-0.2-0.4-0.3-0.5c0.9,0.4,1.6,1,2.3,1.6
		c1.1,1.3,2.4,2.7,2.1,4.5c-0.2,2.2-2,3.6-3.8,4.5c-0.7,0.4-1.6,0.6-2.2,1.1c1.2,0.2,2.4,0.2,3.6-0.2c0.9-0.3,1.6-0.9,2.5-1.1
		c1,0.4,2,1,3,1.4C191,30.1,190.1,29.9,189.2,30.1z"/>
	<path class="st0" d="M142,34.1c-2.1-1.3-3.9-2.9-6.2-3.9c-0.5-0.2-1-0.3-1.5-0.3c0.7,1.4,1.9,2.5,2.8,3.8c0.4,0.9,1,1.7,1.6,2.4
		c-0.4-0.3-0.9-0.6-1.1-1.1c-0.9-1.4-1.8-2.9-3-4.1c-1.9-1.5-3.7-3-5.7-4.3c-0.3-0.1-0.4-0.4-0.4-0.7c2.5-0.1,4.9,0.6,7,1.9
		c1.6,1.2,3.3,2.4,4.7,3.9c2,1.8,4.6,3.4,7.4,3.4c0,0.1,0,0.2,0,0.2C145.7,35.5,143.8,34.9,142,34.1z"/>
	<path class="st0" d="M161.8,29c2.3-1.9,5.5-1.5,8.3-1.7c0.5-0.2,1.1-0.4,1.6-0.1c-0.3,0.1-0.7,0.1-1,0.1c-1.1,0.3-2.2,0.2-3.3,0.3
		c-1.1,0.3-2.3,0.5-3.4,1.2c-1.4,0.8-1.8,2.5-2.9,3.5c-0.9,0.8-2.1,0.8-3.2,1c-1.3,0.2-2.6,0.2-4,0.1c-0.4-0.2-0.9-0.3-1.3-0.4
		c2.2-0.1,4.4-0.5,6.4-1.4C160.2,31,160.9,29.9,161.8,29z"/>
	<path class="st0" d="M179.4,31.4c-3-2.2-6.9-1.8-10.3-2.6l-0.3-0.3c1.8,0,3.4-0.9,5.1-0.9c2.7-0.2,5.3,1.5,6.9,3.6
		c1.1,1.5,2.4,3,4.2,3.8c0,0,0,0.1,0,0.2C182.6,34.7,181.3,32.5,179.4,31.4z"/>
	<path class="st0" d="M183.9,32.5c1.8,0.2,3.7-0.2,5.3-1c0.7-0.3,1.1-0.9,1.8-1.2c-0.2,1.3-1.2,2.3-2.2,3c-1.8,0.7-3.9,0.1-5.6-0.8
		c0-0.1,0-0.2,0-0.2C183.4,32.3,183.7,32.4,183.9,32.5z"/>
	<path class="st0" d="M171.1,34.4c0,1.2-1.3,2-2.5,1.9c-1.5,0.1-2.7-1-4.2-0.9c-1.1,0-2.1,0.5-3.2,0.6l0,0.2
		c-0.5,0.1-1.1,0.2-1.6,0.3c-0.2,0.1-0.4,0.2-0.7,0.3c0,0,0-0.1,0-0.2c0.7-0.2,1.5-0.4,2.2-0.7c1.7-0.7,2.6-2.5,3.8-3.8
		c1.5-0.2,3-0.5,4.5-0.3c0.6,0.2,1.1,0.5,1.6,0.8c0.9,0,1.7-0.2,2.6-0.4c0.2-0.2,0.4-0.3,0.5-0.5c0,0.2-0.1,0.5-0.1,0.6
		c-1,0.5-2.2,1.2-3.4,1c-1-0.2-2.1-0.4-3.2-0.2c-0.8,0.3-1.4,1-1.8,1.7C167.4,35.6,169.5,35.3,171.1,34.4z"/>
	<path class="st0" d="M150,34.2c-1.2,0.9-1.4,2.5-1.7,3.8c0.1,0,0.3,0.1,0.4,0.1c-0.9,0-0.9,1.3-1.3,1.9c-0.8,0.1-1.5-0.2-2.2-0.5
		c-0.9,0.1-1.5,0.7-1.9,1.5c0.2-0.8,0.6-1.5,1.1-2.2c0.7,0,1.4-0.1,2-0.5c1.8-1.2,2.3-3.5,3.6-5.1c0.7,0,1.4,0,2,0.1
		C151.2,33.5,150.6,33.8,150,34.2z"/>
	<path class="st0" d="M195.8,45.3c-0.9-0.5-1.7-1.2-2.7-1.6c-1.8-1-4-1.4-6-2c-2.3-0.8-4.3-2.5-5.3-4.7c-0.7-1-0.8-2.2-1.1-3.3
		c2.1,2.4,5.1,3.7,7.7,5.5c2.3,1.3,4.4,2.9,6.3,4.8c1,1.1,2.4,1.9,3.1,3.2C197.1,46.6,196.6,45.7,195.8,45.3z"/>
	<path class="st0" d="M157.6,42.1c-1,0.7-0.2,2.2-0.9,3c-0.4,0.4-0.9,0.7-1.3,1c0.3-0.4,0.7-0.9,0.6-1.4c-0.3-1.9-2.1-3.1-2.6-4.9
		c1.1-1.5,1.5-4,0.1-5.4c0-0.1,0-0.4,0-0.5c0.5,0.7,1,1.5,1.1,2.5c0.1,1-0.1,2.1,0,3.1C155,40.7,156.3,41.6,157.6,42.1z"/>
	<path class="st0" d="M177.8,36.6c1.2,0.6,1.9,2,1.7,3.4c-0.3-0.3-0.6-0.6-0.9-0.9c-0.5-0.7-1.2-1.2-1.8-1.8c-0.8-0.9-1.6-1.8-2-2.9
		C175.7,35.3,176.7,36.1,177.8,36.6z"/>
	<path class="st0" d="M152.4,43.7c-0.9,0.4-2,0.2-2.8-0.3c-0.6-0.5-0.8-1.3-0.9-2c0.3-1.5,1.8-2.2,2.4-3.5c0.5-0.8,0.5-1.7,0.5-2.6
		l0.2,0c0.4,0.9,0.6,2,0.3,3c-0.4,1.4-1.2,2.7-1,4.2C151.2,43.2,151.9,43.4,152.4,43.7z"/>
	<path class="st0" d="M164.1,37.6c-0.2,0.1-0.5,0.2-0.6,0.3c-0.5,0.9-1.3,1.6-2.2,2.2c-1.2,0.2-2.5,0.1-3.7-0.1
		c0.2-0.5,0.9-0.4,1.3-0.6c2-0.5,3.3-2.3,5.1-3.1c1.3-0.3,2.6,0.3,3.7,0.7c-0.7,0.1-1.4,0.2-1.9,0.7c0.6,1,1.7,1.5,2.5,2.3
		c0.4,0.1,0.8,0.3,1.2,0.4c-0.1,0.1-0.2,0.2-0.2,0.3C167.6,39.8,166.2,38,164.1,37.6z"/>
	<path class="st0" d="M183.4,44.6c-0.2,0-0.7,0-0.9,0c-0.2,0.4-0.5,0.7-0.4,1.2c0.2,0.5,0.8,0.7,1.2,0.9c-2,1.8-4.4,3.3-7.1,3.6
		c-1.8,0.3-3.6-0.3-5.4-0.7c-2-0.6-4.1-0.8-6.1-0.7c-1.2,0.1-2.4,0.4-3.7,0.3c1.9-0.4,3.7-1.4,5.6-1.9c2.7-0.8,5.2,1.2,7.9,1.3
		c2.5-0.4,4.8-1.9,6.1-4c0.7-1.1,0.7-2.4,0.5-3.6c-0.1-1.1-0.9-1.9-0.9-3c-0.1,0-0.3,0-0.4-0.1c0.3-0.2,0.5-0.4,0.8-0.5
		c-0.3,1,0.4,1.9,0.9,2.8C182.2,41.7,183.3,42.9,183.4,44.6z"/>
	<path class="st0" d="M179.9,41.5c0.1,0.4-0.4,0.6-0.7,0.9c-0.5-1.3-1.5-2.2-2.6-3c0,0,0-0.1,0-0.1C177.7,39.9,179,40.5,179.9,41.5z
		"/>
	<path class="st0" d="M147.5,42.9c0.4,1.2,0.7,2.7,0,3.9c-0.1-0.6,0-1.3-0.5-1.8c-0.9-1.4-2.8-1.8-3.2-3.6
		C144.9,42.2,146.1,43.1,147.5,42.9z"/>
	<path class="st0" d="M146.9,47.4c0,0.4-0.1,0.8-0.1,1.2c-0.1-0.8-0.3-1.7-1.1-2.2c-0.1,0.6-0.3,1.1-0.6,1.6c-0.1-1.2,0-2.6-0.7-3.6
		c-0.5-1-1.6-1.6-1.6-2.8c0.5,0.7,0.9,1.5,1.5,2.1C145.2,44.9,146.6,45.8,146.9,47.4z"/>
	<path class="st0" d="M191.1,45.2c1,1.3,1.9,2.6,3,3.8c1.9,1.7,3.8,3.3,5.6,5c2.2,1.8,4.2,3.8,5.8,6c1.7,2.7,3.4,5.7,3,8.9
		c-0.2,0.9-0.7,2.1-1.7,2.1c0.2-0.9,0.1-1.8,0-2.8c-0.3-2.1-1.2-4-2.2-5.9c-2-3.9-4.9-7.2-7.7-10.5c-1.4-1.5-3-2.7-4.3-4.3
		c-0.7-0.8-1.2-1.7-1.9-2.6c-0.4-0.7-0.7-1.4-1.1-2.1C190.4,43.6,190.6,44.5,191.1,45.2z"/>
	<path class="st0" d="M210.5,86.9c-0.6,1.4-1.1,2.9-2.2,4c1.2-2.4,1.6-5.1,1.6-7.8c-0.2-2.4-0.4-4.8-0.7-7.2c0-1.7,0.1-3.5,0.8-5
		c0.1,1-0.2,2.2,0.3,3.1c0.1,0.1,0.3,0.2,0.5,0.3c0.5-0.5,0.7-1.1,0.7-1.8c0.1-2.4-0.8-4.7-1.8-6.8c-1.6-3.7-3.6-7.1-6.5-10
		c-1.8-1.9-3.7-3.7-5.7-5.4c-2.2-1.5-4-3.6-5.6-5.7c0.8,0.4,1.1,1.3,1.7,1.9c0.9,0.9,1.9,1.8,2.8,2.7c0.4,0.3,0.9,0.6,1.3,0.9
		c0.7,0.6,1.3,1.2,2,1.8c3.2,2.2,6.1,4.7,8.5,7.7c1.3,1.9,2.5,3.9,3.6,5.9c1.1,2.6,1.6,5.7,0.7,8.5
		C211.2,78.2,212.2,82.8,210.5,86.9z"/>
	<path class="st0" d="M152.7,47.7c0.5,0,1-0.2,1.5-0.4c1.7-0.7,3.5-0.5,5.3-0.5c1.8-0.1,3.5,0.5,5.3,0.1c0.9-0.1,1.6-0.6,2.5-0.7
		c-1.8,0.8-3.5,1.7-5.4,2.1c-2.4,0.5-4.9-0.3-7.1,0.9c-2.1,1.1-4.9,1.8-7,0.4c-0.3,0-0.7-0.1-1-0.2c0-0.1,0.1-0.2,0.1-0.3
		c0.6,0.2,1.2,0.5,1.8,0.4c1-0.3,1.8-1,2.5-1.7c0.8-0.9,2-1.5,3.2-1.6C153.7,46.7,153.2,47.1,152.7,47.7z"/>
	<path class="st0" d="M158.8,50.2c-1-0.3-2.1-0.5-3.1-0.8c0.9,0.1,1.8,0.3,2.8,0.4c3.3,0.7,6,2.9,9.1,4c1.6,0.4,3.4,0.7,4.9-0.1
		c0.1,0.1,0.3,0.3,0.4,0.4c-0.9,0.7-2,1.3-3.2,1.3c-2,0-3.9-0.7-5.5-1.9C162.5,52.3,160.7,51.2,158.8,50.2z"/>
	<path class="st0" d="M198.4,66c-0.1,0-0.2,0.1-0.3,0.1c-0.1-0.3-0.3-0.7-0.5-1c-1.8-2.3-4.4-3.6-6.9-4.9c-0.4,0.3-1.1,0.3-0.8-0.5
		c-2.1-0.4-4.2-1-6.3-1.3c-3.2-1.1-6.1-3-8.9-4.8c-1.9-1.2-3.9-1.9-5.9-2.9c-0.6-0.1-1.2-0.1-1.8-0.1c0-0.1,0-0.3,0-0.4
		c2.7,0.3,5.3,0.8,7.7,2.1c2.3,1.3,4.6,2.7,6.9,4c2.7,1.2,5.5,2.1,8.2,3.2C193.1,61.3,196.6,62.8,198.4,66z"/>
	<path class="st0" d="M160.6,61.3c-1.2,1.8-1.9,3.8-2.6,5.8c-0.8,1.6-1.4,3.4-2.6,4.8c-0.7,0.9-1.7,1.6-2.6,2.3
		c-0.8,0.5-1.7,1-2.7,1c2.5-0.6,4.6-2.4,5.9-4.6c1.6-3.1,1.2-6.8,2.6-9.9c-1.6,0.3-3.3,0.3-4.8-0.2c0-0.1,0.1-0.2,0.1-0.3
		c1.5,0.7,3.2,0,4.6-0.8c1.6-0.9,2.8-2.3,4.5-3.1c0.9-0.5,1.9-0.3,2.8-0.3C163.9,57.6,162.1,59.3,160.6,61.3z"/>
	<path class="st0" d="M176.2,62.8c-2.6-1.5-4.5-4-7.1-5.5c0.5-0.4,1,0.3,1.4,0.5c3.2,2.3,6.7,4.6,10.6,5.6c1.1,0.3,2.2,0.5,3.3,0.9
		c1.3,0.4,2.6,0.7,3.9,1c3.4,1.3,7.1,2.7,9.4,5.6c-2-1.9-4.7-3.2-7.5-3.5c-3.1-0.6-6.4,0-9.2-1.6c0.9,0.2,1.9,0.5,2.8,0.1
		c0-0.1,0-0.4,0-0.5C181.2,64.7,178.6,64,176.2,62.8z"/>
	<path class="st0" d="M171.2,66.9c-0.5-0.6-1-1.3-1.5-2c-0.6-1-0.5-2.2-0.5-3.3c-0.1-1.2-0.4-2.3-1-3.3c0.7,0.7,1.1,1.6,1.7,2.4
		c1.4,2,3,3.7,5,5.2l-0.1,0.5c0.4-0.5,0.8,0,1.2,0.2c-0.2-0.1-0.5-0.2-0.7-0.3c-0.3,0.1-0.6,0.2-0.9,0.2c0.2-0.2,0.3-0.4,0.5-0.5
		c-0.8-0.8-1.9-1.1-3-1.2c-0.4,1.5,0.9,2.6,2,3.4c1.7,1.4,4,2.2,5.5,3.9c-0.9-0.7-1.8-1.3-2.8-1.6c-2.7-0.8-5.9-1.1-8.3,0.5
		c0.2-0.7,0.8-1,1.4-1.4c1.4-0.7,3-0.4,4.4-0.5C173.2,68.3,171.9,67.9,171.2,66.9z"/>
	<path class="st0" d="M155.3,59.8c-0.8-0.3-1.7-0.6-2.2-1.3c0.1,0.1,0.3,0.2,0.4,0.2c1.4,0.2,2.9,0.2,4.3,0c0.1-0.1,0.3-0.2,0.4-0.2
		C157.5,59.4,156.3,59.6,155.3,59.8z"/>
	<path class="st0" d="M198.9,66.3c0.1,0,0.3,0,0.4,0c0,4.2,2,7.9,3.6,11.7c1.1,2.7,2.2,5.6,2,8.6c-0.1,1.3,0.1,2.9-0.9,3.9
		c0.2-0.9,0.6-1.8,0.6-2.8c-0.2-4.7-2.7-8.8-4.3-13.1C199.3,72,198.7,69.1,198.9,66.3z"/>
	<path class="st0" d="M164.3,68.1c-2.2,1.5-4.1,3.4-6.1,5c-2.7,2.2-5.1,4.7-8,6.5c-2.1,1.2-4.3,2.4-6.8,2.4c-1.8,0.4-3.8,0-5.4-1
		c-0.3-0.7-0.4-1.4-0.3-2.1c0.7-1.2,1.7-2.2,2.8-2.9c-0.4,0.8-0.4,2,0.4,2.7c1.6,1.1,3.8,1.3,5.6,0.6c3-1,5.7-2.7,8.1-4.6
		c3.8-3.2,7.7-6.4,12.5-7.8c0.6,0.1,1.2-0.2,1.7-0.3c-1,0.2-1.9,0.9-3,0.9C165.3,67.7,164.8,67.9,164.3,68.1z"/>
	<path class="st0" d="M131.7,73.9c0.5,0,0.9,0,1.4,0c0,0,0,0.1,0,0.2c-1.3,0.1-2.5-0.4-3.7-1c-1.1-0.5-2.2-1.3-3.5-0.8
		c-1.4,0.3-2.5,1.7-3.9,1.2c-0.3-0.4-0.8-0.8-0.5-1.2c0.4-1.4,1.5-2.9,3-2.9c1.6,0.1,3.4,0.4,4.6,1.6C130,72,130.7,73.1,131.7,73.9z
		"/>
	<path class="st0" d="M118.8,74.6c0.5,0.4,0.9,1.2,1.7,0.9c0.2,0.1,0.4,0.2,0.6,0.4c0,0.1,0,0.2,0,0.2c-0.2-0.1-0.5-0.4-0.7-0.5
		l0.1,0.7c-0.1-0.2-0.3-0.4-0.4-0.6c-1-0.2-1.9-0.5-2.8-0.9c-0.1-0.3-0.3-0.6-0.4-0.9c0.3-0.5,0.5-1.1,1-1.4
		c1.4-0.8,2.9-1.5,4.1-2.5C120.9,71.6,118.7,72.5,118.8,74.6z"/>
	<path class="st0" d="M185.4,73.1c-1.3-0.2-3-0.5-3.6-1.8c2.3,1,4.8,0.6,7.3,0.5c2.1-0.1,4.5,0.4,5.9,2.1c0.8,0.9,0.6,2.3,0.2,3.4
		c-0.5,1.5-1,3.1-1.2,4.7c-0.2,1.7,0.5,3.2,1.1,4.8c0.5,1.6,2,2.7,2,4.4c0.1,1.2-0.5,2.3-1.2,3.2c-0.9,0.8-1.8,1.5-2.7,2.3
		c-0.4,0.7-0.8,1.4-0.7,2.2c-0.1,0-0.3,0-0.4,0c-0.5-1.1-0.3-2.4,0.1-3.4c0.5-1.3,0.9-2.6,1.3-3.9c0.6-2.8-1-5.5-1.1-8.3
		c-0.1-1.2,0.7-2.2,1-3.4c0.3-1.3,0.3-2.6,0.1-3.9c-0.7,0.9-1.1,2.2-2.4,2.5c0.7-1.4-0.2-2.9-1.1-4
		C188.7,73.2,186.9,73.3,185.4,73.1z"/>
	<path class="st0" d="M116,75.6c0.6,1.1,1.9,0.8,2.9,0.8c-0.3,0.1-0.6,0.1-0.9,0.2c-0.4,0.2-0.7,0.4-1.1,0.6c-2.1,1.3-4.5,1.8-7,1.9
		c-2,0.1-4.1,1.3-4.8,3.2c0-0.3-0.1-0.6,0.1-0.8c0.9-1.6,2.5-2.8,4.1-3.7c1.2-0.8,2.6-1.2,3.7-2.1c1.6-1.1,2.8-2.7,4.3-3.9
		C116.9,73,115.6,74.2,116,75.6z"/>
	<path class="st0" d="M166.9,84.5c0.3-1.5,1.4-2.8,2.7-3.6c2-1.2,4.3-2.1,5.9-3.8c1-0.8,1.4-2.1,2.5-2.8c0.9-0.6,1.9-1.1,3-1.2
		c-2.1,0.6-3.9,2.1-4.8,4.1c-0.9,2-0.9,4.3-2.1,6.1c-1.1,1.3-2.7,2-4.2,2.7c0.2-0.2,0.5-0.4,0.7-0.5c1.4-0.9,2.2-2.6,2.5-4.2
		c-2.7-0.2-5.5,1.8-5.9,4.5C167,85.3,166.7,84.9,166.9,84.5z"/>
	<path class="st0" d="M122,74.8c1.5-0.3,2.7-1.4,4.2-1.5c1.3,0.2,2.3,1,3.5,1.5c0,0,0,0.1,0,0.1c-2.5-1.2-4.9,1.1-7.4,0.6
		c-0.7-0.1-1.4-0.3-1.9-0.7C120.9,74.8,121.4,74.8,122,74.8z"/>
	<path class="st0" d="M145.4,75.6c-1.4,0.5-3.2,0.8-3.5,2.5c-0.1,0-0.3-0.1-0.4-0.1c-0.1-0.2-0.2-0.5-0.3-0.7c0.2-1,1-1.8,2-2
		c2.2-0.5,4.7-0.1,6.7-1.4C148.6,74.8,147,75.3,145.4,75.6z"/>
	<path class="st0" d="M216.8,93.8c-1.9,1.7-3.7,3.5-6,4.7c-2.2,1.4-5.1,1.3-6.8,3.4c0,0.2-0.1,0.7-0.1,0.9c-0.1-0.3-0.3-0.6-0.4-0.9
		c0.4-0.4,0.4-1.1,0.9-1.5c1.2-1.4,2.9-2,4.4-2.9c3.3-1.8,6.3-4.8,7.4-8.5c0.3-1.6,0.2-3.2-0.3-4.8c-0.4-1.4-0.8-2.7-1.8-3.8
		c-0.8,1.6-1.1,3.4-2.1,4.9c0-0.3,0-0.6,0.1-0.8c1.1-3.1-0.1-6.4,1.2-9.5c0.3-0.7,1.3-1.3,2-0.6c0.4,0.7,0.9,1.5,0.8,2.4
		c-0.1-0.2-0.2-0.5-0.3-0.7c-0.5-0.1-1.2-0.1-1.5,0.5c-0.2,0.7-0.2,1.5,0,2.2c0.8,1.4,1.9,2.5,2.4,4c0.6,1.3,0.6,2.7,1.2,4
		c0.3,0.5,0.6,1.1,1,1.6c0.3,0.4,1.1,0.5,0.9,1.2C219.2,91.3,217.8,92.4,216.8,93.8z"/>
	<path class="st0" d="M159.5,78.9c-1.7,1.4-2.8,3.3-4.3,4.9c-1.5,1.5-2.8,3.2-4.8,4.2c-0.6,0.3-1.2,0.6-1.9,0.8
		c1.7-0.8,3.2-2.1,4.4-3.5c1.9-2.4,3.6-5,5.7-7.2c1.1-1.2,2.1-2.5,3.5-3.5c0.4-0.2,1-0.5,1.3,0c0.5,1.1,0.2,2.3,0.1,3.5
		c-0.2,2.1-1.2,4.1-2.6,5.5c0.5-1.6,1.2-3.2,0.8-4.8C161.1,78,160.1,78.4,159.5,78.9z"/>
	<path class="st0" d="M185.8,79.2c0.7,0.7,1.8,0.7,2.7,0.9c-1,0.2-2.4,0.2-2.9,1.4c-0.5,3.3,2.2,5.8,2.4,9c0.2,1.2,0.4,2.5,0,3.6
		c-0.1-0.8,0-1.7-0.1-2.5c-0.5-1.4-0.9-2.8-1.7-4c-0.8-1.6-2.2-3.1-2.5-4.9c-0.4-1.9,0.1-4-0.7-5.8c0.1,0,0.3,0.1,0.4,0.1
		C184.2,77.7,185,78.4,185.8,79.2z"/>
	<path class="st0" d="M100.1,86.9c1-3,4.4-4.6,5.1-7.7c0.1,0,0.3,0,0.4,0c-0.3,0.7-0.6,1.4-1,2.1c-1.5,2.5-2.3,5.3-3.1,8.1
		c-0.8,3.8,0.9,7.5,2.9,10.5c0.9,1.2,1.9,2.5,3.2,3.4c0.1-0.1,0.2-0.3,0.2-0.4c0,0.2,0,0.5,0,0.7c0.3,0.1,0.6,0.3,1,0.4
		c0.4,0.1,0.8,0.2,1.1,0.3c-1.1,0-2.2-0.4-3.3-0.6c-3-1.4-4.8-4.5-6-7.4C99.9,93.2,98.9,89.9,100.1,86.9z"/>
	<path class="st0" d="M107.3,101.3c-0.2-1,0.3-1.9,1.1-2.5c0.6-0.3,1.1-0.7,1.8-0.6c-0.3,0.1-0.5,0.2-0.8,0.2
		c-0.4,0.8-0.8,1.5-0.7,2.4c2,1.8,5.3,2,7.5,0.6c3-1.8,4.5-5.2,5.5-8.4c0.3-1.4,0.9-2.6,1.6-3.9c0.6-1.3,1.9-2,2.6-3.3
		c0.2,0.2,0.4,0.4,0.6,0.6c1.1-1.6,2.3-3.1,4-4.2c1.6-1.4,3.7-1.8,5.5-2.9c0.2,0,0.5,0,0.7-0.1c-1.6,0.8-3.1,1.9-4.5,3
		c-1.5,1.3-3,2.5-3.9,4.3c-0.3,0.4-0.2,1-0.3,1.5c0.8-0.1,1.5-0.3,2.2-0.4c-1.5,0.8-3.2,1-4.6,2c-0.9-1,0.4-2.1,0.8-3.1
		c-0.6-0.3-1,0.4-1.3,0.7c-1.3,1.5-2,3.4-2.5,5.3c-0.6,2.4-0.7,5-2,7.2c-0.9,2.1-2.8,3.8-5,4.2c-1.9,0.4-3.8,0-5.6-0.6
		C108.8,103.1,108,102.2,107.3,101.3z"/>
	<path class="st0" d="M167,91.6c-0.1-0.8,0.4-1.7,1.3-1.7c0,0.7-0.7,1.1-1,1.7c0,1.1-0.1,2.2,0.7,3.1c1.1,1.7,3.1,2.6,5,2.9
		c1.1,0.1,2.2,0.3,3.2-0.4c2.1-2.5,2.8-5.8,3.3-9c0.4-2.7,1.7-5.2,3.5-7.2c0,0.2-0.1,0.3-0.2,0.5c-2.7,3-2.3,7.2-3.1,10.9
		c-0.2,1.6-1.2,2.9-2.1,4.2c1.9-1.1,3.1-3.1,3.7-5.2c0.1,0,0.4,0.1,0.5,0.1c0.1,0.5,0.1,0.9,0.1,1.4c-0.5,2.2-1.7,4.1-3.2,5.7
		c-1.5,1.3-3.5,2.6-5.6,2c-1.8-0.3-3.2-1.6-5-1.8c0.5-0.5,1.1-0.8,1.6-1.2C168.5,95.7,166.8,93.9,167,91.6z"/>
	<path class="st0" d="M163,84.9c0.4-1.6,0.8-3.1,1.4-4.6c-0.1,1.6-0.3,3.3-0.1,4.9c0,3,1.1,5.9,2.4,8.7c-1.1-1.4-1.4-3.2-2.3-4.7
		C163.6,87.8,163.2,86.3,163,84.9z"/>
	<path class="st0" d="M139,83.1c-1.3,0.5-2.7,1-3.6,2.1c-1.9,1.8-3.3,4-4.2,6.4c-0.6,1.6-0.4,3.2-0.4,4.9c-1.5-3.2-0.2-7,2-9.4
		C134.3,85,136.5,83.5,139,83.1z"/>
	<path class="st0" d="M188.2,96.1c0.6,1,1.4,2.5,0.4,3.6c-0.2-0.7-0.4-1.5-0.8-2.2c-1.3-1.8-3.5-2.8-4.6-4.7
		c-0.4-0.6-0.6-1.3-0.8-2.1c-0.1-1.3,0.6-2.4,1-3.6c0.2-0.4,0.1-1,0.6-1.2c0.1,1.7-0.3,3.4,0.5,5C185.2,93,187.2,94.2,188.2,96.1z"
		/>
	<path class="st0" d="M200.4,96.7c-2.2,0.2-4.3,0.5-6.5,1c-0.4,0.1-0.3,0.6-0.6,0.8c-0.3-0.3,0-0.7,0.2-0.9c0.6-0.5,1-1.2,1.7-1.6
		c1.1-0.6,2.3-1,3.5-1.5c2.5-1.5,4.3-4.1,4.7-7c0.1,0,0.3,0,0.4,0c-0.1,0.4-0.3,0.8-0.4,1.2c-0.5,1.5-1.3,2.9-1.9,4.3
		c-0.3,0.8-1.1,1.3-1.5,2.1c2.5-1.2,5-2.3,7.1-4.1c0.2-0.2,0.4-0.4,0.6-0.6c0,0.1-0.1,0.3-0.2,0.4C206,93.6,203.6,96.1,200.4,96.7z"
		/>
	<path class="st0" d="M130.4,111.1c0.4,0.3,0.8,0.6,1.2,0.8c0.3-0.6,0.4-1.3,0.4-2c0.7,1.4,0.2,3,0.8,4.3c0.8,0.5,2,0.3,2.3-0.6
		c0.7-1.6,0.5-3.4,0.8-5c0.5,2.6,0.6,5.5-0.2,8c-0.2,0.4-0.3,0.9-0.8,1c-1.2,0.3-2.5-0.5-3.1-1.5c-3.5-5.2-5.7-11.6-4.5-17.9
		c0.4-2.1,1.1-4.5,0.2-6.6c-0.7,0.1-1.5,0.2-2.2,0.6c-0.5,0.4-0.8,0.9-1.2,1.4c0.7-1.4,1.9-2.8,3.4-3.2c0-0.1,0-0.2,0.1-0.3
		c0.5,0.8,1,1.7,1.1,2.7c0.7,3.7-0.1,7.5,0.3,11.2C129.1,106.5,129.4,108.9,130.4,111.1z"/>
	<path class="st0" d="M217,104.9c0-2.7,0.2-5.5-0.9-8c-1.2,0-2.2,0.7-3.1,1.3c-0.5,0.5-0.1,1.2,0.6,1.1c-0.7,0.2-1.5,0.3-2.2,0.3
		c0.3-1.1,1.5-1.6,2.4-2.3c1.8-1,3.3-2.4,4.6-4c0.1,0,0.4,0.1,0.6,0.2c0.6,1.5,1,3.2,0.7,4.8c-0.2,2.8-1.1,5.5-0.9,8.3
		c-0.1,2.1,0.6,4.1,1.2,6C217.2,111,217.3,107.7,217,104.9z"/>
	<path class="st0" d="M180.1,100.2c-0.6-0.6-0.4-1.6,0.4-1.9c1.2-0.5,2.4-0.8,3.3-1.8c0,0.1,0.1,0.2,0.2,0.2c0.1,2.1,1.2,4,2.5,5.6
		c0.7,0.9,1.8,1.4,2.7,2c-1-0.2-1.8-0.8-2.8-1C184.2,102.7,181.7,102.1,180.1,100.2z"/>
	<path class="st0" d="M133.3,123.2c-0.9-0.4-1.8-0.6-2.6-1.2c0.9,0.2,1.7,0.6,2.6,1c1.9,0.5,3.9,0.6,5.8,0.1c-0.9-0.6-2-0.9-3-1.4
		c0.1-0.1,0.2-0.2,0.3-0.3l0,0.3c1.3,0,2.6,0.2,3.8-0.2c1.8-0.4,3.2-1.8,4.3-3.2c1.8-2.8,3-5.9,4.4-8.9c1.2-3.1,3.1-5.8,5.3-8.1
		c1.4-1.2,2.9-2.3,4.2-3.6c0.7-0.3,1.2-1,2-0.9c-0.5,0.7-1.4,0.9-2,1.4c-0.1,0-0.3,0-0.4,0c-2.9,2.9-5,6.6-6.4,10.5
		c-0.6,2.3-1.6,4.6-1.7,7c-0.1,1.1,0.4,2.3-0.1,3.4c-0.9,2.5-3.3,4.2-5.7,5c-3.2,1.2-6.9,0.8-9.9-0.7
		C133.8,123.4,133.6,123.3,133.3,123.2z"/>
	<path class="st0" d="M155,98.9c-0.8,0.8-1.5,1.9-2.4,2.7c-2.8,2.9-6.3,5.3-10.3,6.2c-5.1,0.8-9.9-4.1-9.4-9.2
		c0.4-0.2,1.4,0.4,0.4,0.3c-0.2,1.1,0.6,1.9,1.1,2.8c1.1,1.7,2.8,3.3,4.9,3.6c-0.1-0.7-0.4-1.4-0.5-2.2c0.6,0.7,1.3,1.4,2.2,1.7
		c2,0.8,4.2,0.1,6.1-0.7c1.2-0.5,2.3-1.1,3.3-1.9c1.8-1.2,3.5-2.6,4.8-4.4C155.4,98.3,155.3,98.7,155,98.9z"/>
	<path class="st0" d="M197.2,100.9c1.2,1.5,2.6,2.8,4.3,3.6c2.3,1.2,5,1.5,7.2,2.8c1.7,1,2.7,2.9,3,4.9c-0.6-1.2-1-2.5-2.1-3.3
		c-2.3-2.1-5.5-1.5-8.3-2.2c-1.8-0.4-3-2-3.9-3.5c-0.4-0.8-0.4-1.8-0.8-2.7c-0.3-0.4-0.8-0.7-0.9-1.2
		C196.3,99.6,196.7,100.4,197.2,100.9z"/>
	<path class="st0" d="M186.3,114.5c-0.9-0.1-1.8-0.1-2.6-0.4c0-0.1,0.1-0.3,0.2-0.5c1.5-1.2,2.6-2.9,3.3-4.7c-1,0.5-1.4,1.5-2,2.3
		c-0.2,0-0.5,0.1-0.7,0.1c1.3-2.2,2.6-4.7,5-5.9c0.2,2.9-1.7,5.2-3.1,7.5c1.3,0.1,2.6-0.3,3.3-1.5c1.2-2,1-4.3,0.8-6.5
		c0.9-0.5,1.9-0.8,2.4-1.8c0.6-1.3,0.4-2.7,0.4-4.1l0.2,0.1c0.4,0.1,0.4,0.6,0.6,0.9c0.5,0.8,1,1.5,1.8,2c0,0.4,0,0.8,0,1.1
		c-0.9,1.1-1.9,2.1-3.1,2.8c0.1,0.2,0.2,0.5,0.3,0.6c-0.4,0.8-0.8,1.6-0.9,2.5c-0.4,1.3,0.6,2.9-0.5,4
		C190,114,188.2,114.8,186.3,114.5z"/>
	<path class="st0" d="M178,102.2c0.2-0.7-0.1-1.3,0-2c1.1,2.2,0.7,4.7,1.2,7c0.7,2.2,1.8,4.5,3.6,6c-1.6-0.9-2.7-2.4-4-3.7
		c-0.8-1.2-1.9-2.3-2.2-3.7C176.4,104.4,177.9,103.5,178,102.2z"/>
	<path class="st0" d="M158.5,106c3.4-0.5,6.4-2.3,9.7-3.2c0,0.1,0,0.2,0,0.2c-1.3,0.5-2.7,1.1-3.4,2.5c-0.3,0.9,0.6,1.5,1.3,1.8
		c2,0.7,4.2,0.4,6.2-0.1c1-0.2,2.1-0.8,3.1-0.4c1,0.6,1.4,1.7,2.1,2.5c-2.4-0.4-4.6,0.8-6.9,1.1c-1.3,0.1-2.7,0.1-4-0.1
		c-1.8-0.5-3.5-1.2-5.2-1.9c-2.6-0.7-5.1-1.8-7.8-2c0-0.1,0-0.2,0-0.3C155.2,106.2,156.9,106.2,158.5,106z"/>
	<path class="st0" d="M122.4,113.9c0.9-0.5,1.8-1.1,2.6-1.7c1.5-1.4,1.7-3.5,1.6-5.4c0.3,0.5,0.3,1.1,0.3,1.7c0.3,1.2,0.3,2.6,1,3.7
		c-0.2,0.4-0.5,0.8-0.9,1.2c-1.2,0.6-2.5,0.8-3.8,0.9c-0.8,1.1,0.1,2.4,0.3,3.5c0.7,2.6,1.2,5.3,1.1,8c-0.3,1.6-0.9,3.1-2,4.3
		c-0.9,1-2.1,2-2.1,3.4c-0.7-0.7-0.8-1.8-0.8-2.7c0.7-1.4,2.1-2.2,3-3.5c0.5-0.7,0.9-1.5,1-2.4c0.2-2.1,0-4.2-0.4-6.2
		C123.1,117.2,122,115.6,122.4,113.9z"/>
	<path class="st0" d="M209.4,111.9c0.7,1.5,0.9,3.2,1.8,4.6c1.2,1.6,3.3,2,5.1,2.5c-0.3,0.2-0.7,0.3-1,0.5c0,0.4-0.1,0.8,0.2,1.1
		c0.6,1,1.5,2,2,3.1c0.2,1.3,0.5,2.6,0.4,3.9c-0.1,0-0.2,0-0.3,0c0-0.5,0-1.1-0.1-1.6c-0.7-2-1.8-3.9-3.6-5
		c-1.5-0.5-3.5-0.1-4.5-1.5c-1.4-1.9-0.8-4.4-0.9-6.5c0.1-1.8-1.2-3.3-2.5-4.5C207.6,108.8,208.9,110.2,209.4,111.9z"/>
	<path class="st0" d="M167.2,114c1.5,0.8,3.2,1.2,4.3,2.6c0.7,0.5,0.7,1.4,0.6,2.1c-0.5,0.6-1.2,0.7-1.9,0.9c0-0.6,0.1-1.3-0.3-1.8
		c-1.5-2.2-4-3.5-6.3-4.7c0,0.2,0.1,0.5,0.1,0.6c1.4,0.9,2.4,2.3,3.4,3.6c0.5,1,1,2.1,1.1,3.2c0.1,1-0.6,1.7-1.2,2.3
		c-1.4,1-3.1,1.4-4.8,1c-0.9-0.3-2-0.8-2.3-1.8c0.8,0.2,1.5,0.4,2.3,0.1c1.5-0.3,2.5-2,2.2-3.5c-0.1-1.4-0.5-2.8-1.4-4
		c-1.1-1.7-3-2.7-4.7-3.7c-1.2-0.7-2.5-1.3-3.7-1.8c2.2,0.8,4.3,2,6.7,2.6C163.2,112.5,165.2,113.2,167.2,114z"/>
	<path class="st0" d="M216.8,119.3c0.3-0.1,0.6-0.2,0.9-0.3c1.7-1.6,3.1-3.9,3-6.4c0,0,0.1,0,0.1,0c0.4,1.7,1,3.6,0.1,5.3
		C220,119.2,218.3,119.3,216.8,119.3z"/>
	<path class="st0" d="M177.5,120.3c1.1-0.8,1.7-2,2.4-3.2c0.6-1.2,1.2-2.4,1.3-3.7c0.6,0,0.6,0.7,1,1.1c0.5,0.4,1,0.7,1.6,1.1
		c-0.6,0.5-1.2,0.9-1.8,1.4c0.1,0.1,0.3,0.4,0.4,0.5c-1.3,2.4-3.5,4.3-6.1,5.2c-2.2,0.6-4.5-0.1-6.8,0.3c0.4-0.1,0.8-0.3,1.2-0.4
		C172.9,121.9,175.5,121.8,177.5,120.3z"/>
	<path class="st0" d="M127,121.5c-0.4-2.3-0.6-4.9,0.6-7.1c0.3-0.5,0.8-0.5,1.2-0.4c1,1.2,2.1,2.4,2.6,3.9c0,0-0.1,0-0.2,0
		c-0.6-0.9-1.2-1.9-2.2-2.3c-0.7-0.1-1,0.7-1.3,1.2c-0.6,1.6-0.5,3.3-0.5,5C127.1,121.7,127,121.6,127,121.5z"/>
	<path class="st0" d="M125.6,137c-0.2,0.4-0.7,0.4-1.1,0.6c-1.3-0.2-2.8-1.1-2.6-2.6c0.2-2.8,2.3-4.9,3-7.6c1-3.2,1.1-6.7,0.5-10
		c-0.2-0.8-0.7-1.5-0.8-2.3c0.7,1.1,1.1,2.4,1.2,3.7c0.3,1,0.1,2.2,0.3,3.3c-0.1,3-0.4,5.9-1.5,8.7c-0.5,1.4-1.1,3-0.6,4.5
		C124.2,136.2,125,136.6,125.6,137z"/>
	<path class="st0" d="M229.8,131.4c-1.2-0.6-1.4-2-1.9-3c-0.5-1-1.3-1.9-2.2-2.5c-1.3-0.9-2.3-2.1-3-3.6c-0.2-0.7-0.5-1.4-0.9-2
		l0.1,0c0.1,0,0.3-0.1,0.4-0.1c-0.1,0.9,0.4,1.7,0.9,2.4c1.2,1.7,2.9,2.9,4.7,3.9c0.4-0.7,0.3-1.5-0.2-2.1c-1.5-1.9-3.6-3.1-4.6-5.4
		c-0.5-0.9-0.9-1.8-0.8-2.8c0.1,0.3,0.3,0.6,0.4,1c1,1.6,2.1,3.4,3.8,4.3c1.1,0.5,2.2,0.9,3.1,1.7c0.1,1.7-0.6,3.4-0.3,5.1
		C229.2,129.5,229.9,130.4,229.8,131.4z"/>
	<path class="st0" d="M212.9,122.2c-0.1,0-0.4-0.1-0.5-0.1c0.6,0.5,1.2,1.1,1.4,1.9c0.5,2.5-0.2,5.3,1.3,7.5c1.1,1.7,3,3.2,5.1,3
		c1.4-0.1,2.9-0.3,3.9-1.3c1.3-1.2,1.9-3.1,1.4-4.8c-0.8,1.6-2.3,2.7-4,3.2c-1.9,0.4-4.2-0.3-5.1-2.2c-0.1,0.2-0.1,1.4-0.7,1.1
		c-0.9-1-0.4-2.5-0.6-3.7C215.2,124.9,214.1,123.4,212.9,122.2z M217.2,131.8c1,0.5,2,0.8,3,1.2c0,0,0.1,0.1,0.1,0.2
		c-0.8,0.2-1.6,0.1-2.3-0.3c-0.2-0.3-0.4-0.5-0.6-0.8C217.4,132.1,217.3,131.9,217.2,131.8z"/>
	<path class="st0" d="M134.2,134.8c-0.5,0.7-0.9,1.5-1.8,1.8c-1.2,0.4-2.5,1.1-3.8,0.8c0.7-0.3,1.5-0.4,2.3-0.5
		c0.8-0.2,1.1-0.9,1.6-1.5c-0.9-0.6-1.6-1.4-2-2.4c0,0-0.1,0-0.2,0c-0.3-1.4-1-2.6-0.9-4c0-1.2,0-2.4-0.1-3.7
		c-0.1-0.9-0.5-1.8-0.5-2.8c0.7,1,0.9,2.2,1.1,3.4c0.1,0,0.2,0.1,0.3,0.2c0.4-0.6,0.6-1.4,1.4-1.7c0.8-0.3,1.7,0.1,2.5,0.4
		c-0.7,0.4-1.2,0.9-1.6,1.6c-0.4,1.1-0.9,2.2-1.1,3.4c-0.2,0.9,0.2,1.7,0.5,2.5C132.2,133.4,133.5,133.8,134.2,134.8z"/>
	<path class="st0" d="M169.5,133.4c1.2,0.9,2.6,1.9,4.1,1.9c-0.8,0.7-1.6,1.6-1.7,2.7c-0.2-0.9-0.1-2-0.9-2.7
		c-1.5-1.3-3.3-2.4-4.1-4.3c-0.7-1.1-1-2.3-1.2-3.5c0.1-1.4,1-2.5,1-3.8c0.1,0,0.3,0,0.3,0c-0.3,1.8-0.6,3.7-0.1,5.5
		C167.6,130.8,168.3,132.3,169.5,133.4z"/>
	<path class="st0" d="M166.1,133.1c0.2,1.2,0.1,2.5,0.8,3.6c0.7,1.4,2.3,2.3,3.9,2.2c-0.2,0.1-0.4,0.2-0.5,0.4
		c-1.7,0.4-3.6-0.6-4.3-2.3c-0.5-1.4-0.2-3-0.6-4.4c-0.6-2.9-2.1-5.8-4.8-7.3c-0.2-0.1-0.5-0.2-0.7-0.2c0-0.1,0.1-0.2,0.1-0.3
		C163.3,126.4,165.2,129.7,166.1,133.1z"/>
	<path class="st0" d="M175.8,136.7c-0.5,0.2-0.7,0.5-0.8,1c1.7-0.2,3.5-0.6,4.9-1.7c0-0.4,0.3-0.9,0-1.2c-1.2-1-2.6-1.5-4-2
		c-1.3-0.5-2.4-1.5-3.2-2.6c-0.9-1.5-0.8-3.3-0.5-4.9c0.2,2.7,1.3,5.5,3.7,7c1.8,1.3,4.4,0.8,6.1,2.3c0.5,0.4,0.9,1.3,0.4,1.8
		c-2.2,2-5.7,3.1-8.4,1.6C174.4,137.3,175.1,136.7,175.8,136.7z"/>
	<path class="st0" d="M231.1,134.5c-0.8-0.4-1.5-0.9-2.2-1.4c1.1,0,2-0.6,2.9-1.1c0.8,0.2,1.1,0.9,1.5,1.5c0.8,1.1,0.9,2.5,1.3,3.8
		v2.3c-0.1,0-0.3,0-0.4,0C234.3,137.5,233,135.5,231.1,134.5z"/>
	<path class="st0" d="M218.4,142.2c2.1,1.1,4.6,1.8,7,1.2c1.3-0.3,2.8-0.8,3.4-2.1c0.7-2.1,0.2-4.6-1.2-6.4c-0.3-0.3-0.5-0.7-0.8-1
		c1.4-0.4,2.5,0.7,3.5,1.5c0.9,0.9,1.1,2.2,1.5,3.4c0.3,1.2,0.9,2.3,1.5,3.4c-0.1,0.2-0.2,0.5-0.2,0.7c-2.2,1.6-4.8,3.3-7.6,3
		c-2,0-3.8-1-5.5-1.8c-1.4-0.7-2.4-2-3.3-3.3C217.3,141.1,217.7,141.9,218.4,142.2z"/>
	<path class="st0" d="M127.8,145c1.1-0.5,2.1-1.2,2.7-2.3c0.9-1.5,0.2-3.3,0.5-4.9c0.4-0.2,0.7-0.5,1.1-0.7c0.3,1.8,1,3.5,2.1,5
		c0.2,0.4,0.7,0.8,0.5,1.3c-0.8,1.1-2.2,1.6-3.5,2.1c-0.8,0.4-1.7,0.3-2.6,0.5c-0.7,0-1.4-0.1-2.1-0.1
		C126.8,145.3,127.4,145.3,127.8,145z"/>
	<path class="st0" d="M176.4,145.5c2.9,0.3,5.8,1.4,8.6,0.5c1.4-0.3,2.4-1.3,3.5-2.2c0-0.1,0-0.4,0-0.5c-1.9-0.6-3.4-2-4.5-3.7
		c-0.4-0.6-0.8-1.4-1.5-1.7c-1-0.3-1.9,0.5-2.8,0.9c-0.7,0.4-1.5,0.3-2.2,0.4c0.8,0.3,1.7,0.5,2.3,1.1c1,1,2.1,2,2.5,3.4
		c0.2,0.6-0.2,1.4-0.9,1.3C179.7,145,178,144.8,176.4,145.5z M184.3,143.7c-1.2-1.1-1.9-2.6-2.5-4.1c0.3,0.1,0.7,0.2,0.9,0.5
		C183.4,141.2,184.1,142.4,184.3,143.7z"/>
	<path class="st0" d="M121.4,137.7c1.6,0.1,2.9,1.1,4.6,0.9c-0.8,1.4-3,0.2-4,1.4c-0.6,1.1-1,2.3-1.6,3.4c-0.2,0.7,0.5,1,1.1,1.1
		c-0.6,0.1-1.3-0.1-1.8-0.4c0.7-1.8,0.8-3.7,0.9-5.6C120.8,138.3,121,137.9,121.4,137.7z"/>
	<path class="st0" d="M127.1,138.2c-0.2,1.9,1,3.7,0.7,5.6c-0.4,0.7-1.1,1.2-1.9,1.5c0.1-1.8,0.5-3.6,0.6-5.4
		C126.5,139.2,126.4,138.4,127.1,138.2z"/>
	<path class="st0" d="M170.4,141.4c-0.1-0.4-0.4-0.7-0.6-1c0.6,0.2,1.4,0.3,1.7,0.9c-0.1,1.2-1.1,2.3-0.8,3.6c1,0.7,2.1,0.9,3.3,1.1
		c-0.2,0.1-0.5,0.3-0.7,0.4c-0.2-0.2-0.3-0.3-0.5-0.5c-1.2-0.4-3.2,0.1-3.6-1.4C169.5,143.5,170.4,142.6,170.4,141.4z"/>
</g>
</svg>
