<?xml version="1.0" encoding="utf-8"?>
<!-- Generator: Adobe Illustrator 24.0.2, SVG Export Plug-In . SVG Version: 6.00 Build 0)  -->
<svg version="1.1" id="Слой_1" xmlns="http://www.w3.org/2000/svg" xmlns:xlink="http://www.w3.org/1999/xlink" x="0px" y="0px"
	 viewBox="0 0 238.1 150.2" style="enable-background:new 0 0 238.1 150.2;" xml:space="preserve">
<g>
	<path d="M5.4,142.9c0-45.3,0-90.6,0-135.9c75.7,0,151.3,0,227,0c0,45.3,0,90.5,0,135.9C156.8,142.9,81.1,142.9,5.4,142.9z M7.3,8.6
		c0,0.4,0,0.7,0,1c0,2,0,3.9,0,5.9c0,2.5-0.1,4.9-0.1,7.4c0,20.9,0,41.9,0,62.8c0,3.4,0.1,6.9,0.1,10.3c0,2.1-0.1,4.1-0.1,6.2
		c0,2.9,0,5.8,0,8.7c0,6.4,0.1,12.8,0.1,19.2c0,3.5,0,7-0.1,10.6c0,0.7,0.1,0.9,0.8,0.9c5.7-0.1,11.5-0.1,17.2-0.1
		c8.8,0,17.6,0.1,26.5,0.1c15.7,0,31.4,0,47.1,0c30.7,0,61.5-0.1,92.2-0.1c2.2,0,4.5,0,6.7,0c6.8,0,13.6,0,20.4,0
		c3.9,0,7.8,0.1,11.6,0.1c0.5,0,0.7-0.1,0.7-0.7c0-8.1-0.1-16.2-0.1-24.2c0-5.3,0-10.5,0-15.8c0-12.7,0-25.4,0-38
		c0-13.8,0-27.7,0-41.5c0-3.9,0-7.9,0-11.8c0-0.7-0.2-0.8-0.7-0.8c-1,0-1.9,0-2.9,0c-9.6,0-19.2,0-28.8,0c-15.1,0-30.3,0-45.4,0
		c-4,0-8.1,0.1-12.1,0.1c-12.7,0-25.3-0.1-38-0.1c-7.3,0-14.6,0-21.8,0c-11.7,0-23.3,0-35,0c-10.6,0-21.2,0-31.8,0
		C11.8,8.6,9.6,8.6,7.3,8.6z"/>
	<path d="M214.7,137.5c-63.8,0-127.5,0-191.3,0c0.2-3.1-1-5.5-3.4-7.4c-2.3-1.8-5-2.5-8.1-2.4c0-0.3,0-0.6,0-0.8
		c0-34.6,0-69.3,0-103.9c0-1.1,0.1-1.1,1.1-1.2c3.7-0.1,6.8-1.4,9-4.6c0.8-1.2,1.4-2.5,1.3-3.9c0-0.7,0.2-0.9,0.9-0.9
		c15.9,0,31.8,0,47.7,0c8.4,0,16.8,0,25.2,0c5.5,0,11,0,16.5,0c10.5,0,20.9-0.1,31.4-0.1c23,0,46.1,0.1,69.1,0.1c0.2,0,0.3,0,0.5,0
		c0.2,4.5,2.7,7.2,6.8,8.8c0-0.3,0-0.5,0-0.7c0.4,1.2,1.4,1,2.3,1.1c0.7,0.1,1.4,0.2,2.1,0.2c0,2.1,0,4.1,0,6.2
		c0,10.2,0,20.3,0,30.5c0,5.5,0.1,11,0.1,16.5c0,7,0,13.9,0,20.9c0,10.3-0.1,20.6-0.1,30.9c0,0.7-0.2,0.9-0.9,0.9
		c-3.6,0.1-6.7,1.5-8.9,4.5c-1,1.4-1.5,2.9-1.5,4.6C214.8,137.1,214.7,137.3,214.7,137.5z M115.5,25.8c-0.5-0.7-1.4-1-2.1-0.8
		c0.4,0.5,0.7,0.9,1,1.3C114.9,26.1,115.2,26,115.5,25.8c0.2,0.6,0.5,1.1,1.2,1.2c0.6,0.1,1,0.4,1.3,0.9c0.2,0.3,0.2,0.6-0.3,0.7
		c-0.6,0.1-1.1,0.2-1.7,0.5c-0.6,0.3-1,0.1-1.5-0.2c-0.2-0.1-0.5-0.1-0.6-0.1c0.2,0.5,0.5,0.9,0.4,1.2c-0.2,0.7-0.7,1.4-1,2.1
		c0,0.1-0.2,0.1-0.5,0.1c0.1,0.3,0.2,0.5,0.3,0.8c0,0.1,0.1,0.4,0,0.5c-0.3,0.4-0.4,0.8-0.2,1.2c0.1,0.4-0.1,0.7-0.5,0.6
		c-0.6-0.1-0.9-0.8-0.6-1.4c0.1-0.3,0.3-0.6,0.2-0.8c-0.2-0.4-0.5-0.7-0.8-1c-0.6-0.6-1-0.6-1.4-0.1c0.2,0.3,0.5,0.7,0.5,1
		c-0.1,0.9-0.2,2-0.7,2.7c-0.5,0.8-1.5,1.5-2.6,1.5c-0.2,0-0.6-0.2-0.6-0.3c0.2-0.8-0.6-1.1-0.7-1.7c-0.8-0.2-1.7,0.4-2.2-0.6
		c-0.2,0.3-0.3,0.4-0.4,0.6c-0.5,1.4-1.1,1.5-2.3,0.6c-0.1-0.1-0.3-0.2-0.5-0.2c-0.7,0-1.5,0.1-2.2,0.1c0.1,0.4,0.4,0.9,0.3,1.3
		c-0.2,0.4-0.8,0.6-1.2,0.8c0.4,0.1,0.8,0.2,1.4,0.4c-0.3,0.2-0.5,0.3-0.7,0.4c-0.9,0.4-1.9,0.8-2.8,1.3c-1,0.5-2,0.9-2.6,1.9
		c-0.3,0.5-0.8,0.6-1.5,0.5c-0.7-0.1-1.4-0.3-2,0.4c-0.2,0.2-0.6,0.3-1,0.3c-0.6,0-1,0.2-1.4,0.6c-0.1,0.1-0.3,0.2-0.5,0.3
		c0-0.1,0-0.2,0-0.2c-0.2-0.1-0.4-0.2-0.6-0.2c-0.3,0-0.6,0.1-0.8,0.1c-0.1,0-0.2-0.1-0.3-0.1c0,0,0-0.2,0.1-0.2
		c0.5-0.2,0.4-0.7,0.5-1.1c0.1-0.2,0.4-0.4,0.6-0.4c0.9-0.2,1.8-0.3,2.7-0.4c0.1,0,0.3,0,0.4,0c0.7,0.4,1.3,0.5,2.1,0.5
		c0.4,0,0.7,0,1-0.3c1.3-1.4,2.8-2.6,4.7-3.3c0.2-0.1,0.2-0.3,0.4-0.4c-0.2-0.1-0.3-0.3-0.5-0.3c-0.4-0.1-0.8-0.1-1.4-0.1
		c0.5-0.6,0.8-1,1.2-1.4c0-0.1-0.1-0.2-0.1-0.2c-0.4,0-0.8,0-1.2,0.1c-0.5,0.1-0.8,0-0.8-0.4c0-1-0.7-1.4-1.3-1.9
		c-0.1-0.1-0.2-0.2-0.2-0.3c-0.2-0.6-0.7-0.5-1.2-0.5c-0.2,0-0.4,0.1-0.6,0.1c-1.2,0.3-1.7-0.1-1.6-1.2c0.4,0.1,0.9,0.1,1.4,0.2
		c0-0.1,0.1-0.3,0.1-0.4c1.3,0.3,1.7-0.1,1.4-1.4c0-0.2,0-0.3,0-0.5c0-0.4,0.1-0.6,0.5-0.5c1.1,0.2,2.2,0.5,3.3,0.7
		c0.1,0,0.2,0.4,0.2,0.7c0,0.2-0.1,0.3-0.2,0.5c0.6,0.1,1.2,0.2,1.7,0.2c0.2,0,0.5-0.3,0.5-0.5c0.2-0.5,0.3-1.1,0.5-1.6
		c0.1,0,0.2,0,0.3,0c0.2,0.4,0.4,0.8,0.6,1.3c0.7-0.2,0.6,0.7,1,1c0.1-0.1,0.3-0.2,0.3-0.3c0-0.9,1-2-0.4-2.7
		c-0.1,0-0.1-0.2-0.2-0.2c0.6-1,0.6-1-0.2-1.8c-0.1-0.1-0.3-0.4-0.3-0.6c0.2-0.8-0.1-1-0.8-0.7c-0.1,0.1-0.3,0-0.5,0
		c0,0.1,0.1,0.1,0.1,0.2c-0.4,0.4-0.8,0.8-1.3,1c-0.2,0.1-0.6-0.2-0.9-0.4c0.1-0.2,0.3-0.4,0.4-0.6c0.1-0.1,0.1-0.1,0.2-0.2
		c-0.4-0.3-0.8-0.5-1.1-0.7c0.1-0.2,0.1-0.3,0.2-0.4c0.2-0.2,0.5-0.3,0.7-0.5c0.2-0.2,0.4-0.4,0.4-0.6c0.2-0.8,0.7-1.1,1.5-1
		c0.2,0,0.4,0,0.6,0.1c0-0.3-0.1-0.5-0.1-0.7c0-0.2,0.1-0.4,0.2-0.5c0.2,0,0.5,0,0.7,0.1c0.2,0.1,0.3,0.4,0.3,0.6
		c-0.1,0.7-0.2,1.4-0.3,2c0.7-0.3,1.3-0.6,1.8-0.8c-0.1-0.3-0.3-0.8-0.6-1.3c-1-0.2-1.4-1.4-1-3.1c0.4,0.1,0.9,0.2,1,0.4
		c0.3,0.6,0.5,1.3,0.8,1.9c0.1,0.2,0.1,0.4,0.2,0.5c0.1,0,0.2-0.1,0.2-0.1c0-0.3,0-0.6,0-1c0-0.6-0.4-1.4,0.6-1.7
		c0.1,0,0.1-0.4,0.2-0.6c0.1-0.4,0.1-0.9,0.1-1.4c0.7,0.2,1.1,0.6,0.9,1.3c-0.1,0.5,0,1.1-0.2,1.5c-0.3,0.3-0.9,0.4-1.4,0.6
		c0,0.1,0,0.2,0.1,0.2c0.7,0,1.5,0,2.2,0c0.5-1,1.5,0.1,2.1-0.5c-0.4-1.5-0.3-3.4-2.2-4.2c-0.2-0.1-0.4-0.3-0.5-0.5
		c-0.3-0.6-0.7-0.7-1.4-0.7c-25.8,0-51.5,0-77.3,0c-0.4,0-0.9,0-1.3,0c-0.5,4.4-4.4,8.8-11.4,9.4c0,34.5,0,69,0,103.5
		c2.9,0.2,5.4,1,7.6,2.7c2.2,1.8,3.6,4,3.9,6.9c62.8,0,125.6,0,188.5,0c0.2-2.8,1.5-5.1,3.7-6.8c2.2-1.8,4.7-2.6,7.5-2.9
		c0-34.5,0-69,0-103.5c-0.5-0.1-1-0.1-1.5-0.2c1,1.7,1,1.7,0.9,2.2c-0.3-0.5-0.7-1-1-1.6c-0.3-0.6-0.8-0.9-1.4-1.1
		c-4-1.1-7.5-4.2-8.1-8.8c-35.2,0-70.5,0-105.7,0c-0.1,1.1-0.4,2.2-0.4,3.2c0.1,0.9,0.2,1.9,1.2,2.4c0.6,0.3,0.5,0.7,0,1
		c-0.1,0.1-0.2,0.1-0.3,0.2c-0.1,0.2-0.2,0.5-0.2,0.7c0,0.1,0.3,0.2,0.4,0.2c0.2-0.1,0.4-0.2,0.6-0.4c0.1-0.1,0.2-0.4,0.3-0.4
		c0.8-0.1,0.9-0.5,0.4-1.2c0.9-0.6,1.3,0.5,2.1,0.5c0.1-0.9,0.2-1.7,0.3-2.7c0.2,0.1,0.6,0.1,0.9,0.3c0.1,0.1,0.1,0.4,0.2,0.6
		c-0.2-0.1-0.4-0.1-0.6-0.2c0,0.3,0,0.5,0,0.7c0.1,0,0.4,0,0.4,0.1c0.1,0.4,0.4,0.5,0.7,0.3c0.2-0.2,0.1-0.6,0-0.9
		c-0.1-0.3-0.2-0.6-0.4-1c0.5,0,0.8-0.1,1.2-0.1c0,0.2,0,0.3,0,0.5c0,0.2,0,0.3,0,0.5c0.8,0.2,1,0.5,0.5,1.1
		c-0.3,0.4-0.8,0.6-1.3,0.9c0.3,0.6,0.3,1.3-0.5,1.6c0.3,0.3,0.7,0.6,0.8,1c0.1,0.5,0.3,0.6,0.8,0.6c0.2,0,0.5,0,0.7,0.1
		c0.4-0.4,0.7-0.9,1.1-1.3c0.5-0.5,0.9-0.3,1.2,0.1c0.2,0.2,0.1,0.6,0.1,0.9c-0.1,0-0.2,0.1-0.3,0.1c0.2,0.2,0.5,0.4,0.7,0.6
		c0.1,0.2,0.2,0.6,0.1,0.6c-0.7,0.3-0.4,0.7-0.1,1.1c-0.3,0.2-0.5,0.5-0.7,0.6C117.2,25.6,116.3,26,115.5,25.8z M106.3,32.5
		c1.3,0.1,1.2,1,1.1,1.7c0.5,0.1,0.9,0.1,1.4,0.2c0.2-0.6,0.6-1.1,0.6-1.7c0-0.5-0.2-0.9,0-1.4c0-0.1-0.2-0.3-0.3-0.4
		C108.1,31.4,107.3,31.9,106.3,32.5z M106.1,27.3c0.1,0.3,0,0.6,0.1,0.7c0.3,0.4,0.7,0.8,1.1,1.1c0.5,0.6,1.2,0.3,1.8,0.3
		c0.1,0,0.2-0.2,0.3-0.3c0.1-0.6-0.3-0.8-0.8-0.8c-0.7,0-1.4,0.2-1.8-0.7C106.7,27.5,106.5,27.4,106.1,27.3z M96,30.9
		c-0.6,0.2-1.1,0.4-1.7,0.6c-0.3,0.1-0.7,0.3-0.5,0.7c0.1,0.2,0.5,0.5,0.8,0.5c0.6-0.1,1.2-0.4,1.7-0.6C96.2,31.6,96.1,31.3,96,30.9
		z M107,13.7c-0.2,0-0.3,0-0.4,0c-0.6,0-1.3,0-2.1,0c0.3,0.3,0.4,0.6,0.6,0.8c0.6,0.4,1.1,0.6,1.8,1C107,14.9,107,14.4,107,13.7z
		 M96.5,35.9c0.7,0.2,1.4,0,1.6-0.5c0.2-0.4,0-0.9-0.1-1.4c0-0.1-0.3-0.2-0.4-0.3c-0.1,0.2-0.1,0.3-0.2,0.5
		c-0.1,0.4-0.2,0.8-0.3,1.2C96.9,35.6,96.7,35.7,96.5,35.9z M103.7,33c-1.1,0.5-1.5,1.8-0.8,2.4C103.6,34.6,103.8,34.2,103.7,33z
		 M105,30.2c-0.1,0-0.2,0-0.3-0.1c-0.3,0.4-0.7,0.7-1,1.1c-0.1,0.1,0.1,0.3,0.2,0.5c0.4-0.2,0.9-0.3,1.2-0.6
		C105.2,31,105,30.5,105,30.2z M111.9,27.8c-0.3-1-0.8-1.2-1.5-0.7c0.2,0.4,0.4,0.7,0.5,1.1C111.3,28.1,111.6,28,111.9,27.8z
		 M99.5,33.9c0,0.1,0.1,0.2,0.1,0.3c0.4,0,0.8,0,1.1,0c0.1,0,0.2-0.5,0.1-0.6c-0.2-0.2-0.6-0.5-0.7-0.4
		C99.9,33.3,99.7,33.7,99.5,33.9z M112.4,29.7c0.1,0,0.2,0.1,0.2,0.1c0.1-0.2,0.2-0.3,0.3-0.5c0-0.1-0.1-0.3,0-0.4
		c0.5-0.7-0.1-0.7-0.5-1C112.4,28.5,112.4,29.1,112.4,29.7z M104,22.4c-0.2,0.3-0.3,0.6-0.5,0.8c0.3,0.1,0.5,0.2,0.8,0.4
		c0-0.1,0.1-0.1,0.1-0.2C104.3,23.1,104.2,22.9,104,22.4z M104.6,29.5c0.7,0.1,0.8,0,0.6-0.9C104.6,28.7,104.5,29.1,104.6,29.5z"/>
	<path d="M224.5,129.7c0,2.2,0,4.4,0,6.6c-1.3,0-2.6,0-3.8,0c-1.2,0-2.4,0-3.7,0c-0.1,0-0.4-0.3-0.4-0.5c0.2-2.4,2.3-4.9,4.6-5.6
		c0.7-0.2,1.4-0.4,2.1-0.6C223.7,129.6,224,129.7,224.5,129.7z"/>
	<path d="M216.6,13.9c2.6,0,5.2,0,7.8,0c0,2.2,0,4.3,0,6.4C221.8,20.8,216.7,18.3,216.6,13.9z"/>
	<path d="M21.2,136.2c-2.6,0-5.2,0-7.7,0c0-2.2,0-4.3,0-6.4C17.1,129.4,21.5,132.6,21.2,136.2z"/>
	<path d="M13.5,20.3c0-2.1,0-4.2,0-6.4c2.6,0,5.1,0,7.7,0C21.4,17.4,17.1,20.7,13.5,20.3z"/>
	<path d="M198.6,124.8c0.4,0.1,0.8,0.2,1.2,0.2c0.5,0.1,1.1,0,1.6,0c0.3,0,0.7,0.2,1,0.3c0.2-0.1,0.5-0.3,0.7-0.3c1,0,2,0.1,3,0.2
		c0.3,0,0.7,0.2,1,0.3c-0.2,0.2-0.3,0.5-0.5,0.9c0.6,0,1.1,0,1.9,0c-0.3-0.3-0.5-0.5-0.7-0.8c0.5,0,0.9-0.1,1.4-0.1
		c-0.3,1.4-0.3,1.4,0.6,1.8c-0.4,0.1-0.7,0.2-1.1,0.3c-0.2-0.3-0.3-0.5-0.5-0.8c-0.1,0-0.1,0.1-0.2,0.1c0.1,0.2,0.1,0.5,0.2,0.8
		c-0.6-0.2-1.2,0.5-1.6-0.3c-0.3,0.7-0.9,0.5-1.3,0.3c-0.4-0.1-0.8-0.4-0.9-0.9c-0.5-0.4-1-0.8-1.6-1.2c-0.4,0.3-0.4,0.2-0.1,0.6
		c0.6,0.5,1.1,1,1.6,1.5c0,0.1-0.1,0.2-0.1,0.2c-2-0.1-4-0.3-6.1-0.4c-0.2,0-0.3-0.3-0.5-0.6c0.9,0.4,1.8,0.6,2.7-0.2
		c-0.6,0-1.1,0.1-1.6,0.1c-0.1,0-0.3-0.1-0.4-0.2c-0.2-0.3-0.5-0.5-0.8-0.2c-0.2,0.2-0.4,0.5-0.6,0.8c-0.4-0.1-0.9-0.1-1.5-0.2
		c0,0.1,0,0.1,0.1,0.2c-0.3,0.1-0.6,0.2-0.9,0.3c0-0.1-0.1-0.1-0.1-0.2c0.1-0.1,0.2-0.2,0.3-0.3c-0.5-0.1-0.9-0.3-1.3-0.3
		c-0.4,0-0.7,0.3-1.2,0.5c-0.1-1.6-1,0-1.4-0.6c0.1-0.1,0.2-0.1,0.4-0.4c-1.1,0.1-2,0.1-2.9,0.1c0,0.1,0.1,0.1,0.1,0.2
		c-0.4,0.2-0.8,0.4-1.1,0.5c-0.5-0.4-1-0.7-1.4-1.1c0,0.1-0.1,0.1-0.1,0.1c0.2,0.3,0.4,0.6,0.7,1c-0.7-0.5-1.3-0.8-1.8-1.1
		c0-0.1,0-0.2,0-0.3c0.8-0.1,1.6-0.2,2.4-0.2c0.6,0,1.2,0.2,1.8,0.3c0.5,0,1-0.1,1.5-0.2c0.6-0.1,1.2-0.4,1.8-0.7
		c-0.2,0-0.5-0.1-0.7-0.1c0-0.1,0-0.1,0.1-0.2c-0.3-0.1-0.6-0.3-0.9-0.3c-2.3-0.1-4.6-0.2-6.9-0.3c-2-0.1-4-0.1-6.1-0.1
		c-0.4,0-0.9-0.2-1.1,0.5c0,0-0.1,0.1-0.2,0.1c-0.6,0-1.4,0.1-1.8-0.2c-0.5-0.4-1-0.3-1.5-0.4c-0.4,0-0.8-0.1-1.1,0.4
		c-0.3,0.4-1.2,0.4-1.8,0.5c-0.7,0-1.5-0.1-2.2-0.2c-0.4-0.1-0.7-0.2-1-0.7c-0.2-0.5-0.8-0.1-1.1,0c-0.4,0.2-0.6,0.5-1,0.7
		c-0.2,0.1-0.4,0.2-0.6,0.3c-1.1,0.2-2.3,0.4-3.4,0.6c-0.7,0.1-1.4,0.1-2.1,0.1c-0.1,0-0.2-0.1-0.2-0.1c-0.9,1-2.1,0.3-3.1,0.7
		c-0.4,0.2-1,0.2-1.5,0.2c0,0.1,0,0.1,0,0.2c0.9,0.1,1.8,0.2,2.7,0.2c1,0.1,1.9,0.1,3.1,0.2c-0.2,0.3-0.4,0.5-0.7,0.8
		c0,0,0.1,0.1,0.2,0.3c-0.2-0.1-0.3-0.1-0.4-0.1c-0.5-0.5-1.1-0.3-1.6-0.5c-0.2-0.1-0.5-0.2-0.7-0.3c-0.2,0-0.4,0-0.6,0
		c0.2,0.4,0.3,0.7,0.4,1c0.6-0.8,1.1,0,1.7,0.2c-0.6,0-1.2,0-1.7,0c0,0.1,0,0.1,0,0.2c0.9,0.2,2-0.2,2.9,0.8c-0.6,0-1,0-1.4,0.1
		c-0.4,0.1-0.7,0.2-1.1,0.4c0,0.1,0,0.2,0.1,0.3c0.4,0,0.7-0.1,1.1-0.1c0,0.1,0,0.1,0,0.2c-0.5,0.1-1,0.2-1.7,0.3
		c0.3,0.2,0.5,0.4,0.9,0.6c-0.9,0.7-1.9,0.4-2.7,0.8c0.3-0.3,0.5-0.6,0.7-0.8c-0.3,0-0.7,0-1,0c-0.2,0-0.3,0.1-0.5,0.2
		c0.2,0.1,0.4,0.2,0.7,0.3c-0.8,0.2-1.5,0.4-2.1,0.5c-0.6,0.1-0.9-0.3-1.1-0.9c-0.3,0.1-0.6,0.1-1,0.2c0.1-0.2,0.1-0.3,0.2-0.5
		c-0.5-0.1-0.9-0.2-1.3-0.2c-2.8,0-5.5,0-8.3,0.1c-0.8,0-0.9-0.6-1.4-0.9c0.6-0.2,1-0.3,1.5-0.5c0.1,0.4,0.1,0.8,0.2,1.3
		c0.4-0.4,0.7-0.8,1.1-1.1c0.3-0.2,0.6-0.3,0.9-0.4c0.3-0.1,0.7-0.1,1-0.2c0-0.1,0-0.2,0-0.2c-0.4-0.1-0.7-0.2-1.1-0.4
		c0.2-0.1,0.3-0.2,0.5-0.3c0-0.1-0.1-0.2-0.1-0.2c-0.7,0.2-1.4,0.5-2.1,0.7c0.2-0.3,0.5-0.6,0.5-0.9c0.1-0.4,0-0.7-0.6-0.5
		c-0.3,0.1-0.6,0-1.1,0c0.3-0.2,0.5-0.3,0.7-0.4c-0.1-0.1-0.2-0.1-0.3-0.1c-0.9-0.1-0.8,0.6-1,1.1c0.3,0.2,0.5,0.3,0.7,0.5
		c-0.9,0.5-1.9-0.1-2.1-1.1c0,0.4,0,0.7,0,1.2c-1.1-0.1-2.1-0.1-3.3-0.2c0.2-0.2,0.4-0.3,0.7-0.5c-0.2,0-0.4-0.1-0.5-0.1
		c0,0,0-0.1,0-0.1c1-0.2,2-0.3,3-0.5c0-0.1,0-0.2,0-0.3c-0.5-0.2-1.1-0.6-1.6-0.5c-0.8,0.2-1.5-0.2-2.3-0.2c-0.9,0-1.9-0.2-2.8-0.4
		c-0.2,0-0.3-0.1-0.5-0.2c0-0.2,0-0.4,0-0.7c-1.6,0.3-3.1,0.6-4.7,1c-0.5,0.1-0.7,0.5-0.7,1c0,0.5,0.4,0.7,0.9,0.7
		c0.2,0,0.5,0.1,0.5,0.2c0.1,0.7,0.7,0.7,1.2,0.6c-0.6,0.6-1.1-0.2-1.9-0.1c0.3,0.3,0.6,0.5,0.7,0.6c-0.7-0.1-1.5-0.2-2.3-0.3
		c0,0.1-0.1,0.2-0.1,0.2c0.2,0.1,0.3,0.2,0.5,0.3c-1.1,0.4-1.9-0.4-2.9-0.6c-0.2,0-0.4,0-0.6,0.1c0,0.1,0,0.1,0,0.2
		c0.3,0.1,0.6,0.1,0.9,0.2c0,0.1,0,0.2,0,0.2c-0.7-0.1-1.4-0.2-2.1-0.3c0,0,0-0.1,0-0.1c0.2,0,0.5-0.1,0.7-0.1c0-0.1,0-0.2,0-0.2
		c-0.3,0-0.6,0-1.1-0.1c-0.1-0.3-0.3-0.8-0.5-1.3c-0.1-0.2-0.3-0.2-0.5-0.4c-0.3-0.2-0.6-0.5-0.8-0.7c-0.2-0.2-0.4-0.4-0.6-0.6
		c0.5-0.1,1-0.4,1.5-0.3c1.4,0.1,2.2-1.2,3.4-1.2c1,0,2.1,0,3.1,0c0.4,0,0.7-0.1,1.1-0.1c0-0.1,0-0.2,0-0.4c-0.7-0.1-1.3-0.3-2-0.2
		c-0.7,0.1-1.3,0-2-0.1c-1.2-0.2-2.5-0.1-3.7-0.2c-0.1,0-0.3,0.1-0.4,0c-0.7-0.7-1.5-0.4-2.2-0.2c-1.3,0.3-2.5,0.1-3.6-0.3
		c-0.1-0.1-0.3,0-0.5-0.1c0.2-0.1,0.3-0.2,0.4-0.2c1.7,0.1,3.3-0.7,5-0.4c2,0.4,4.2,0.3,6.3,0.3c0.8,0,1.7,0.1,2.4,0.6
		c0.1,0.1,0.3,0,0.5,0c1.2,0.1,2.4,0.7,3.7,0.6c1.3-0.1,2.6-0.1,4,0c2.6,0.1,5.2,0.2,7.8,0.3c1.1,0,2.2-0.2,3.3-0.3
		c0.3,0,0.7,0.1,1,0c0.8-0.2,1.6-0.5,2.4-0.7c0.3-0.1,0.5-0.1,0.8-0.2c0.4-0.1,0.7-0.3,1.1-0.4c0.4-0.2,0.9-0.4,1.3-0.4
		c1.8-0.1,3.5-0.5,5.1-1.4c0.2-0.1,0.4-0.1,0.7-0.2c1.3-0.3,2.6-0.7,4-1c-0.1-1-0.3-2.1-0.2-3.1c0.1-1.1-1.1-1.9-0.7-3
		c0.2,0,0.4,0,0.7,0.1c-0.1-1,0.3-2-0.7-2.9c-0.6-0.5-0.9-1.2-1.8-1.2c-0.2,0-0.4-0.3-0.7-0.6c1.6,0.1,2.9-0.3,4.2-0.9
		c1,0.7,2.4,1.1,4,1c-1,1-2.1,0.3-3.2,0.8c0.6,0.2,1.1,0.3,1.6,0.4c0,0.1,0,0.2,0.1,0.3c-0.3,0.1-0.6,0.2-0.9,0.3
		c-0.3,0.1-0.7,0.1-0.5,0.7c0.2,0.8,0.3,1.6,0.4,2.5c0.9,0,2,0,3.1,0c0-0.3,0.1-0.7,0.1-1.1c0.1-1.2,0.1-2.3,0.1-3.5
		c0.1-1.6,0.1-3.3,0.1-4.9c0-2.8-0.1-5.5-0.1-8.3c0-0.7-0.1-1.4-0.1-2.1c0-0.4-0.1-0.6-0.6-0.6c-2.1,0.2-4.1-0.2-6-0.8
		c-0.7-0.2-1.4-0.2-2.1-0.2c-0.4,0-0.6-0.1-0.7-0.6c-0.1-0.8-0.4-1.7-0.6-2.5c0-0.2,0.1-0.5,0.1-0.7c0.2,0,0.4,0.1,0.6,0.1
		c1.1,0.2,2.3,0.5,3.4,0.7c0.6,0.1,1.3,0.2,1.9,0.3c1,0.1,1.9-0.3,2.8-0.7c0.4-0.2,0.8-0.3,1.3-0.5c0-0.4,0.1-0.8,0-1.3
		c-0.1-0.3-0.3-0.7-0.4-1c-0.1-0.4-0.2-0.8-0.3-1.1c-1.8-0.1-3.7-0.2-5.5-0.4c-1.1-0.1-2.1-0.5-3.1-0.9c-0.3-0.1-0.5-0.6-0.7-1
		c-0.2-0.6-0.2-1.2-0.5-1.7c-0.1-0.3-0.5-0.5-0.8-0.7c-0.6-0.2-1.3-0.4-1.9-0.6c-0.7-0.2-1.3-1.1-1.2-1.7c0.1-0.3,0.4-0.5,0.7-0.9
		c-0.9-0.2-1.6-0.7-2.6-0.6c-0.6,0.1-1.2-0.1-1.9-0.2c0.9-1.1,1.9-1.9,2.5-3.1c-1.3-0.7-2.4-1.3-3.5-2c-0.1-0.1-0.3-0.2-0.3-0.4
		c-0.2-0.6-0.4-1.2-0.6-1.8c-0.8,0.1-1.5,0.2-2.2,0.3c0-0.1-0.1-0.1-0.1-0.2c0.2-0.1,0.3-0.3,0.5-0.3c0.5-0.2,1.1-0.5,1.6-0.7
		c0.7-0.3,1.2,0,1.2,0.8c0,0.6,0.3,0.8,0.8,1c1.6,0.9,3.4,1.3,5.1,1.8c1.1,0.3,2.1,0.8,3.1,1.1c1,0.3,2.1,0.6,3.1,0.8
		c0.8,0.2,1.5,0.4,2.3,0.5c0.7,0.1,1.5,0.1,2.3,0.1c0.4,0,0.8,0.1,1.2,0.2c1,0.2,1.9,0.3,2.9,0.5c0.7,0.1,1.5,0.2,2.2,0.3
		c0.4,0,0.8-0.1,1.2-0.2c0.2,0,0.3,0.1,0.5,0.1c0.3,0.2,0.6,0.5,1,0.5c2.6,0,5.2,0,7.8,0c0.9,0,1.7,0.1,2.6,0.1
		c0.2,0,0.5-0.1,0.7-0.1c1.5-0.1,2.9-0.2,4.4-0.3c1.5-0.1,3.1-0.3,4.6-0.5c1.4-0.2,2.8-0.4,4.2-0.6c2.9-0.4,5.7-1.1,8.4-2.1
		c2.3-0.8,4.6-1.7,7-2.5c1.7-0.6,3.3-1.3,5-1.9c0.3-0.1,0.6-0.1,1-0.1c-0.8,1.3-1.5,2.4-2.9,3c-0.8,0.3-0.7,0.5-0.3,1.2
		c0.4,0.6,0.6,1.3,0.8,1.9c0.2,0.7-0.4,0.8-0.8,0.9c-0.9,0.2-1.8,0.4-2.7,0.6c-1,0.2-1.1,0.3-1.1,1.2c0,1.5,0,1.5-1.5,1.8
		c-0.2,0-0.5,0-0.7,0.1c-0.7,0.1-1.1,0.2-1.3,1.1c-0.1,1.2-0.4,2.3-0.7,3.5c0,0.2-0.2,0.3-0.4,0.4c-2.4,0.5-4.8,1.4-7.4,1.3
		c-0.5,0-0.6,0.3-0.7,0.7c-0.1,0.2-0.2,0.5-0.3,0.7c-0.1,0.2-0.4,0.4-0.4,0.6c0.1,0.3,0.3,0.6,0.6,0.7c0.5,0.2,1.1,0.2,1.7,0.3
		c0.1,0,0.3,0.1,0.3,0.2c0,0.6,0.4,0.5,0.8,0.4c1.2-0.2,2.4-0.3,3.5-0.5c0.3,0,0.5,0,1,0c-0.3,1.1-0.6,2.1-0.9,3.1
		c0,0.1-0.3,0.2-0.5,0.3c-0.9,0.2-1.9,0.4-2.8,0.5c-1.1,0.2-2.1,0.4-3.3,0.6c0,5.3,0,10.7,0,16.3c0.6-0.2,1.1-0.4,1.6-0.6
		c0.4-0.1,0.9-0.2,1.3-0.1c0.4,0.1,0.8,0.4,1.2,0.6c0.3,0.1,0.6,0.1,0.9,0.2c0.1,0.6,0,0.8-0.7,0.7c-0.5,0-1,0-1.4-0.2
		c-0.9-0.3-1.8-0.2-2.6-0.2c-0.2,0-0.4,0.4-0.4,0.6c0,1.1,0,2.2,0,3.4c0.5,0,0.9,0,1.3-0.1c0.2,0,0.5-0.4,0.5-0.5
		c0-0.6-0.2-1.1-0.3-1.7c-0.1-0.4-0.3-0.7-0.5-1.3c1.2,0.1,2.2,0.1,3.1,0.2c0.4,0,0.4,0.3,0.2,0.6c-0.9,1.1-0.9,1.6-0.1,2.8
		c0.4,0.6,0.1,1.2-0.1,1.6c-0.5,1-0.2,1.9-0.4,2.9c-0.1,0.4,0,0.9,0,1.3c0,0.6,0.3,0.7,0.8,0.6c0.8-0.1,1.7-0.1,2.5-0.1
		c0.1,0,0.2,0.1,0.2,0.1c0.3,0.6,0.6,1.1,0.9,1.8c-1,0-1.8,0-2.6,0c0.5,0.5,1.2,0.5,1.3,1.3c0,0,0.2,0.1,0.3,0.1
		c0.9,0,1.9-0.1,2.8-0.1c0.6-0.1,1.3-0.2,1.9-0.3c0.2,0,0.5,0,0.7,0c0,0.1,0.1,0.2,0.1,0.2c-0.4,0.2-0.8,0.6-1.2,0.7
		c-0.6,0.1-1.2,0.1-1.8,0.1c-0.3,0-0.7,0-1,0c-1.5,0.2-2.9,0.4-4.4,0.6c-1.4,0.1-2.8,0.2-4.2,0.3c-0.5,0-1,0.2-1.5,0.3
		C198.6,124.6,198.6,124.7,198.6,124.8z M194,109.6c0.1,0.8-0.5,0.9-1,1.2c-0.2,0.1-0.4,0.3-0.5,0.5c-0.1,0.5-0.1,1-0.1,1.5
		c0,0.1,0.2,0.3,0.3,0.3c0.8,0,1.7,0,2.6,0c0-0.6,0-1,0-1.5c0.1-1.2,0.2-2.5,0.3-3.7c0.1-1.8,0-3.5,0.2-5.3c0.1-0.9,0-1.8,0-2.6
		c0-1.2,0.1-2.5,0.2-3.7c0.1-0.9,0.1-1.7,0.2-2.6c0-0.2-0.2-0.5-0.3-0.5c-1,0-1.9-0.1-2.9,0c-2.2,0.2-4.3,0.5-6.5,0.7
		c-2.1,0.1-4.2,0.2-6.4,0.2c-2.4,0-4.7-0.2-7.1-0.3c-0.3,0-0.8,0.4-0.8,0.6c-0.1,0.8,0,1.6,0,2.3c0,3.5,0,7,0,10.5
		c0,1.2,0.6,1.6,1.7,1.1c0.5-0.2,1-0.5,1.6-0.6c0.4-0.1,1-0.1,1.3,0.1c0.7,0.5,1.4,0.8,2.4,0.7c0,0.5-0.2,0.7-0.7,0.7
		c-1.2-0.1-2.5-0.1-3.7-0.2c-0.8,0-1.6-0.1-2.4-0.2c0.1,1.4,0.1,3,0.2,4.6c0.9,0,1.8,0,2.8,0c0-0.9,0-1.7,0-2.5
		c0-0.2-0.3-0.4-0.5-0.6c-0.2-0.2-0.4-0.3-0.7-0.5c0-0.1,0.1-0.2,0.1-0.4c1.1,0.1,2.2,0.1,3.5,0.2c-1,1.3-0.1,2.5-0.4,3.7
		c0.8-0.1,0.9,0.3,0.7,0.9c-0.2,0.5-0.5,1-0.5,1.5c0,1,0.1,2,0.2,3.1c1.8-0.1,3.6-0.3,5.4-0.4c1.4-0.1,2.7,0,4.1,0.1
		c1.2,0.1,2.3,0.3,3.5,0.4c0-0.8-0.1-1.6,0-2.2c0.2-1-0.1-1.7-0.5-2.5c-0.2-0.3-0.2-0.7-0.3-1.1c0.4-0.1,0.7-0.1,1-0.2
		c-0.5-1,0.2-2.3-0.9-3c0.4-0.2,0.7-0.3,1.1-0.5c-0.8-0.3-1.7,0.5-2.1-0.3c0.7-0.3,1.4-0.6,2-1c0.7-0.6,1.3-0.5,1.9,0
		c0.6,0.4,1.2,1.1,2.1,0.4C195.1,109.5,194.5,109.4,194,109.6z M187.2,85.7c-0.5,1.6-0.9,3.1-1.4,4.7c2.4,0,4.7-0.1,6.9-0.5
		c-0.4-0.6-0.2-0.9,0.5-1.1c0.6-0.2,1.3-0.5,1.9-0.7c1.4-0.7,1.4-0.8,0.5-2c0,0,0,0,0-0.1c-0.2-0.7-0.8-0.7-1.4-0.6
		c-1,0.1-2,0.2-3,0.2C189.9,85.7,188.6,85.7,187.2,85.7z M179.8,90.4c0-0.1,0-0.2,0-0.3c-0.3-1.4-0.6-2.7-1-4.1
		c-0.1-0.3-0.2-0.5-0.6-0.5c-1.5-0.1-3-0.2-4.4-0.3c-0.8,0-1.7-0.3-1.8,1c0,0.1-0.1,0.1-0.2,0.2c-0.4,0.4-0.3,1.7,0.1,2
		c0.5,0.3,1,0.6,1.5,1c0.4,0.3,1,0.2,1.1,0.9c0,0.1,0.2,0.1,0.4,0.1C176.5,90.4,178.1,90.4,179.8,90.4z M192.6,118.7
		c0.7,0,1.5,0,2.2,0c0.5,0,0.7-0.1,0.6-0.6c-0.1-0.6-0.1-1.3-0.1-2c0-1.2,0-1.2-1.2-1.4c-0.3,0-0.6-0.2-0.8-0.1
		c-0.2,0.1-0.6,0.3-0.6,0.5C192.5,116.3,192.6,117.6,192.6,118.7z M164.7,119.2c0.4,0,0.9,0,1.4,0c1.2-0.1,1.5-0.3,1.5-1.5
		c0-0.5,0-1,0-1.6c0-0.5-0.1-0.6-0.6-0.5c-0.4,0.1-0.9,0.1-1.3,0c-1-0.2-1.2-0.1-1.1,1C164.7,117.4,164.7,118.2,164.7,119.2z
		 M191.7,77.6c0,0,0,0.1,0,0.1c0.2,0,0.4,0,0.6,0c1.3-0.1,2.5-0.3,3.8-0.4c1.7-0.2,3.4-0.5,5.1-0.7c0.8-0.1,1.6-0.2,2.3-0.3
		s1.6-0.2,2.3-0.4c2-0.7,3.9-1.5,5.9-2.3c0.1,0,0.2-0.1,0.3-0.2c-0.6,0.1-1.1,0.3-1.6,0.4c-1.3,0.4-2.6,0.6-3.9,1
		c-1.6,0.5-3.2,1-4.9,1.3c-2.3,0.3-4.6,0.7-7,1.1C193.6,77.3,192.7,77.4,191.7,77.6z M171.1,106.2
		C171.1,106.2,171.1,106.2,171.1,106.2c-0.1,0.6-0.2,1.1-0.2,1.7c-0.1,2.3-0.2,4.7-0.3,7c0,1.6,0,3.3,0,4.9c0,1.4-0.1,2.7-0.1,4
		c0,0.2,0.2,0.5,0.3,0.7c0.2-0.1,0.5-0.1,0.6-0.3c0.1-0.2,0.1-0.5,0-0.8c-0.1-1.3-0.2-2.6-0.3-3.9c0-0.5,0.1-1,0.1-1.5
		c0-2.1-0.1-4.1-0.1-6.2C171.1,110,171.1,108.1,171.1,106.2z M172.6,117.3c0,1.4,0,1.4,1.4,1.5c0.2,0,0.5,0.1,0.6,0
		c0.2-0.1,0.4-0.3,0.4-0.5c0-0.7,0-1.3,0-2c0-0.6-0.3-0.8-0.8-0.7c-0.2,0-0.3,0.1-0.5,0.1c-1.1,0.1-1.1,0.1-1.1,1.3
		C172.6,117.1,172.6,117.2,172.6,117.3z M201.7,119.4c0-1.5,0-3,0-4.5c-0.3,0-0.5,0-0.8,0c-0.6,0.1-1,0.3-0.9,1
		c0.1,1.1,0.2,2.3,0.3,3.5C200.7,119.4,201.1,119.4,201.7,119.4z M177.5,122c0,0.1,0,0.3,0,0.4c2,0.3,4,0.3,6.2,0.1
		c-1.2-1.2-2.5-0.4-3.6-0.7C179.3,121.6,178.4,121.9,177.5,122z M152.1,125.1c-0.9-0.1-1.5-0.1-2.2-0.2c-0.5-0.1-0.9-0.5-1.4-0.5
		c-0.8,0-1.6,0.3-2.3,0.4c0,0.1,0,0.2,0,0.3c0.3,0.1,0.5,0.2,0.8,0.2c0.6,0,1.1,0,1.7,0c0.9,0,1.8,0.1,2.7,0.1
		C151.5,125.4,151.7,125.2,152.1,125.1z M175.7,78c0,0.1,0,0.2,0,0.2c2.6,0,5.3,0,7.9,0c0-0.1,0-0.2,0-0.2C181,78,178.3,78,175.7,78
		z M164.9,76.7c0.8,0.6,8.3,1.5,8.7,1.2C170.7,77.5,167.8,77.1,164.9,76.7z M198.6,92.1c0.1,0,0.1,0,0.2-0.1c0-1.7,0-3.4,0-5.2
		c0-0.6-0.1-0.7-0.8-0.3C199,88.3,198.3,90.2,198.6,92.1z M173.1,80.7c-2.3-0.2-4.6-0.5-6.9-0.7c0,0.1,0,0.1,0,0.2
		C168.5,80.7,170.8,80.8,173.1,80.7z M170.7,94.1c0.1,0,0.3,0,0.4,0c0.1-1.4,0-2.8-0.4-4.1C170.7,91.3,170.7,92.7,170.7,94.1z
		 M198.6,104.5c-0.1,1-0.2,2.1-0.2,3.1c0,0.4-0.2,0.9,0.3,1.3C199,107.4,198.9,104.8,198.6,104.5z M198.7,96.4
		c-0.1,1.1-0.3,2.1-0.3,3c0,0.9,0.1,1.8,0.1,2.8c0.1,0,0.1,0,0.2,0C198.7,100.3,198.7,98.4,198.7,96.4z M174,80.6c0,0.1,0,0.1,0,0.2
		c1.5,0.1,3,0.2,4.4,0.3c0-0.1,0-0.2,0-0.3C177,80.4,175.5,80.9,174,80.6z M194.5,89.4c0,0.1,0,0.2,0,0.3c0.5-0.1,1.1-0.2,1.6-0.3
		c0.1,0,0-0.5,0-0.8C195.5,88.8,195,89.1,194.5,89.4z M212.3,73.1c1.1,0.3,1.8,0.1,2.2-0.8C213.6,72.6,213,72.8,212.3,73.1z
		 M146,125.4c-0.4,0.6-0.5,0.6,0.4,1c0.2,0.1,0.4,0,0.6,0c-0.1-0.2-0.1-0.4-0.3-0.5C146.5,125.7,146.3,125.6,146,125.4z
		 M200.5,126.6c-0.6-0.2-1.2-0.4-1.9-0.6C199.1,126.8,199.7,126.9,200.5,126.6z M198.6,123.4c0.1,0,0.3,0,0.4,0c0-0.5-0.1-1-0.1-1.5
		c-0.1,0-0.1,0-0.2,0C198.6,122.3,198.6,122.9,198.6,123.4z M197.9,85.2c0,0.1,0,0.2,0,0.3c0.5,0,1.1-0.1,1.6-0.1c0-0.1,0-0.1,0-0.2
		C199,85.2,198.5,85.2,197.9,85.2z M150,126c-0.2-0.2-0.4-0.4-0.5-0.3c-0.2,0.1-0.3,0.3-0.5,0.5c0.1,0.1,0.3,0.4,0.4,0.3
		C149.6,126.5,149.7,126.3,150,126z M145.3,130.1c0.5,0.3,0.9,0.5,1.3,0.8c0-0.1,0.1-0.1,0.1-0.2
		C146.4,130.3,146.1,129.8,145.3,130.1z M138.4,128.7c0-0.1,0-0.2,0-0.3c-0.4-0.3-0.9-0.2-1.4-0.1c0,0.1,0,0.1,0,0.2
		C137.5,128.6,138,128.6,138.4,128.7z M187.3,126c-0.1,0.1-0.2,0.2-0.2,0.3c0.3,0.2,0.7,0.5,1,0.7c0.1-0.1,0.1-0.2,0.2-0.2
		C187.9,126.5,187.6,126.3,187.3,126z"/>
	<path d="M99.4,45.8c0.3-0.3,0.6-0.6,0.9-0.9c-0.1-0.3-0.2-0.6-0.2-1c0.3,0.1,0.5,0.1,0.8,0.2c0.6,0.2,0.9-0.4,1.2-0.7
		c0.1-0.1-0.2-0.5-0.3-0.8c-0.4,0.1-0.6,0.2-0.9,0.3c0.3-0.3,0.6-0.5,0.7-0.7c0.5,0,0.8,0,1-0.1c0.3-0.1,0.5-0.3,1-0.5
		c-0.1-0.2-0.3-0.6-0.5-1c0-0.1,0-0.1,0.1-0.2c0.4,0.2,0.9,0.4,1.3,0.6c-0.1,0.3-0.3,0.5-0.5,0.8c0.2,0.2,0.5,0.5,0.7,0.9
		c0.1,0.3,0.2,0.7,0.2,1c-0.1,0.2-0.5,0.3-0.9,0.5c0.3,0.2,0.5,0.5,0.8,0.6c0.7,0.2,1.3,0.2,2,0.3c0-0.1,0.1-0.3,0-0.4
		c-0.7-0.6-0.2-1.2,0.1-1.8c0.1-0.2,0.1-0.4,0.1-0.5c-0.1-0.5,0.1-0.7,0.5-0.8c0.5,0.5,1,1.1,1.5,1.5c0.4,0.4,0.4,0.8,0.3,1.3
		c0,0.2-0.1,0.5,0,0.6c0.6,0.4,0.4,1,0.6,1.5c0.1,0.2-0.1,0.6-0.2,0.9c0.5,0.3,1,0.8,1.6,1.1c0.5,0.3,0.5,0.5,0.3,0.9
		c-1.1-0.1-2.2,0.7-2.1,1.6c1.1,0.2,5.5-2.3,6.4-3.5c-0.3-0.5-0.7-1-0.7-1.4c0.1-0.5,0.6-0.8,1-1.4c0-0.4-0.2-0.9-1.1-0.9
		c-0.6,0.1-0.9-0.4-0.8-1.2c-0.3,0.1-0.5,0.2-0.9,0.3c-0.1-0.3-0.3-0.6-0.2-0.9c0-0.1,0.4-0.2,0.7-0.3c0.2-0.1,0.3-0.1,0.5-0.2
		c0,0,0-0.3-0.1-0.3c-0.2,0-0.3,0-0.5,0c-0.4,0-0.7,0-1.1,0.1c-0.5-1-0.9-2-1.4-2.9c-0.3,0.2-0.7,0.5-1.2,0.7
		c-0.1-0.1-0.1-0.1-0.1-0.2c0.1-0.1,0.1-0.2,0.2-0.3c1.8-1.3,3.6-2.6,5.8-3.3c0.5-0.2,1.2,0.1,1.8,0.2c0.9,0.1,1.7,0.1,2.7,0.2
		c-0.3-0.6-0.6-1.1-0.9-1.7c0.8-0.2,1.3,0.1,1.6,0.5c0.1,0.1,0.1,0.4,0.1,0.5c0,0.2-0.2,0.3-0.3,0.5c0.2,0.1,0.5,0.3,0.7,0.2
		c1.3-0.6,2.6-0.5,3.9-0.8c0.3-0.1,0.6-0.4,0.8-0.6c0-0.1-0.2-0.4-0.4-0.6c-0.4-0.4-0.7-0.8-0.8-1.4c0-0.4-0.5-0.7-0.8-1.1
		c-0.7-1.1-1.8-1.7-2.9-2.2c-1.1-0.5-2.1-1.2-3.2-1.8c0.6-0.4,1,0,1.4,0.2c0.4,0.2,0.6,0.2,1.1,0.1c0.5-0.1,1.1,0.3,1.6,0.6
		c0.7,0.4,1.2,1,1.8,1.5c0.1,0,0.1,0.2,0.1,0.2c1.4,0,1.9,1.4,3,1.9c0.5,0.3,0.9,0.9,1.3,1.4c0.5,0.8,0.8,0.9,1.8,0.5
		c-0.3,0.4-0.4,0.6-0.6,0.8c0.4,1.5,1.7,1.1,2.7,1.2c0.6,0.1,1.3,0,1.9,0c0.7,0.1,1.5,0.1,2.2,0.3c0.9,0.2,1.8,0.2,2.6-0.2
		c1.2-0.5,2.3-1.2,3.5-1.7c0.6-0.3,1.3-0.4,1.9-0.6c0.4-0.1,0.7-0.4,1.1-0.6c0-0.1,0-0.2,0-0.3c-0.9-0.4-1.9-0.8-2.7-1.3
		c-0.9-0.5-1.7-1-2.5-1.5c0-0.1,0.1-0.1,0.1-0.2c0.2,0.1,0.3,0.1,0.5,0.2c1.7,0.9,3.4,1.8,5.1,2.7c0.7,0.4,1.2-0.3,1.8-0.5
		c0.3-0.1,0.6-0.3,0.8-0.5c-0.6-0.6-1.1-1.1-1.7-1.6c-0.1-0.1-0.4-0.2-0.5-0.2c-0.4,0-0.9,0-1.3,0c-0.3-0.1-0.5-0.3-0.7-0.5
		c0.7,0.3,1.2,0.3,1.7-0.3c1.4,1.1,3,1.5,4.6,1.9c1.3,0.3,2.7,0.4,4,0.6c0.2,0,0.4,0,0.6,0.1c0.9,0.4,1.8,0.5,2.8,0.1
		c-0.4-0.3-0.9-0.6-1.4-0.9c1.2-0.3,1.8,0,1.9,0.9c0.7,0.1,0.8,0,0.6-0.6c-0.2-0.5-0.6-0.8-1-1.4c0.2-0.3,0.5-0.7,0.8-1.1
		c0.1-0.1,0.5-0.1,0.7-0.1c0.1,0.1,0.3,0.3,0.3,0.5c0,0.7,0,1.2,0.8,1.5c0.3,0.2,0.5,0.7,1.2,0.5c-0.1-0.6,0.2-1.3-0.5-1.8
		c-0.3-0.2-0.5-0.7-0.3-1.2c0.3-0.8,0.2-1-0.6-1.2c-0.7-0.3-1.4-0.6-1.6-1.5c-0.1-0.5-0.4-0.8-1-0.5c-0.2,0.1-0.5,0.2-0.8,0.2
		c0-0.3-0.1-0.7-0.1-1.2c1,0.6,1.8,0.7,2.7,0.3c1.1-0.4,0.9-1.2,0.9-1.9c-0.4-0.2-0.7-0.3-1-0.4c-0.2-0.1-0.4-0.1-0.6-0.1
		c-1.2,0-2.3,0-3.5,0c-1.1,0-2.2,0.2-3.3,0.3c-0.4,0-0.8-0.1-1.2-0.3c0.2-0.1,0.5-0.2,0.7-0.2c1.5-0.2,3-0.4,4.5-0.1
		c1.2,0.2,2.5,0.2,3.7,0.1c0.4-0.1,1.1-0.3,1.3-1v0c0.5,0.2,1,0.4,1.5,0.6c0.2,0.1,0.4,0.1,0.5,0.3c0.3,0.8,1,0.4,1.5,0.4
		c0.1,0,0.2-0.2,0.4-0.4c-0.1-0.1-0.2-0.3-0.4-0.3c-0.6-0.1-1-0.7-1-1.4c0.4-0.1,1,0.7,1.3-0.2c0.1-0.5,0.2-1,0.2-1.4
		c1.8,0.1,2.1,0.3,2,1.6c-0.4,0.3-0.8,0.5-1.1,0.8c-0.1,0.1-0.1,0.5-0.1,0.7c0,0.1,0.4,0.1,0.5,0.1c1.3-0.2,2.6-0.5,3.9-0.7
		c-0.7-0.9-1.4-1.9-2.1-2.8c0.1-0.1,0.2-0.1,0.3-0.2c0.4,0.5,0.8,1.1,1.2,1.6c0.4,0.5,0.9,1,1.4,1.5c0.5,0.4,1.2,0.7,1.8,1
		c0,0.2-0.1,0.5,0,0.5c0.2,0.1,0.5,0.1,0.7,0.1c1.2-0.5,2,0.1,1.9,1.4c-0.1,0.5-1,0.9-1.4,0.7c-0.3-0.2-0.6-0.3-0.9-0.5
		c-0.1-0.1-0.3,0-0.5,0c0.1,0.1,0.1,0.3,0.2,0.4c0.7,1.1,1.8,1.6,3.1,1.6c0.1,0,0.2,0.1,0.4,0.2c-0.5,0.4-0.7,0.8-0.4,1.4
		c0.1,0.1-0.2,0.5-0.4,0.6c-0.6,0.3-1,0.7-1.2,1.3c-0.1,0.5-0.5,0.4-0.9,0.5c-0.2,0-0.4,0.2-0.7,0.3c0.2,0.2,0.5,0.5,0.8,0.5
		c1.1,0,2.3-0.1,3.4-0.1c0.4,0,1.1,0.3,1.1,0.5c0,0.7-0.7,0.5-1.1,0.6c-0.7,0.1-1.5,0.2-2.2,0.4c0,0.1,0,0.1,0,0.2
		c0.5,0,0.9,0,1.3,0c0.5,0,1,0.1,1.5,0.5c0.4,0.3,1.1,0.4,1.7,0.6c1.2,0.5,2.3,0.9,3.5,1.4c0.6,0.2,1.2,0.4,1.8,0.6
		c-0.1-0.6-0.2-1-0.3-1.4c-0.4-0.1-0.9-0.2-1.3-0.4c-0.8-0.3-0.9-0.5-0.6-1.1c-0.6-0.2-1.1-0.4-1.7-0.6c-0.4-0.1-0.7,0-1.1,0
		c-0.3,0-0.5,0.1-1,0.2c0.2-0.5,0.4-0.9,0.6-1.2c0,0,0.4,0.2,0.8,0.3c0,0,0.2-0.1,0.5-0.2c-0.1-0.2-0.2-0.4-0.3-0.7
		c0.2-0.1,0.4-0.2,0.7-0.4c-0.2-0.2-0.5-0.4-0.7-0.6c0.2-0.4,0.5-0.8,0.8-1.3c-0.2-0.1-0.3-0.2-0.4-0.2c-0.3-0.2-0.4-0.5,0.1-0.6
		c0.8-0.2,1.5-0.3,2.3-0.4c0.2,0,0.4,0.2,0.6,0.3c0.4,0.5,0.7,1,1,1.4c-0.2,1-1.1,0.9-1.8,1.1c0.3,0.5,1.2,0.8,1.7,0.6
		c1.1-0.3,1.8-1.1,2.4-1.9c0.5,0.1,0.9,0.2,1.4,0.4c0,0.2,0.1,0.4,0.1,0.7c0.8-0.1,1-0.5,0.8-1.3c0.7-0.2,1.4-0.3,2.1-0.5
		c0.2-1.2,0.2-1.2,1.5-1.5c0.2,0,0.4-0.3,0.6-0.6c0.6,0,0.9,0.2,1.2,1c0.4,1.1-0.2,1.5-0.9,2c-0.3,0.2-0.5,0.5-0.7,0.9
		c0.5,0,1-0.1,1.3,0c0.4,0.1,0.8,0.4,1.1,0.8c0.4,0.5,1,0.5,1.4,0c0.2-0.2,0.3-0.4,0.4-0.6c0.2-0.5,0.6-0.6,1-0.3
		c0.4-0.6,0.3-1-0.5-1.8c-0.1,0.3-0.2,0.5-0.3,0.7c-0.2,0.3-0.6,0.9-0.7,0.9c-0.5-0.2-0.9-0.6-1.2-1c-0.2-0.2-0.1-0.6-0.1-1
		c0-0.3-0.1-0.6-0.1-0.9c0.2-0.1,0.3-0.3,0.6-0.5c-0.3-0.2-0.5-0.4-0.7-0.6c0.3-0.3,0.8-0.6,0.8-0.9c0-0.3-0.5-0.6-0.7-1
		c-0.3-0.5-0.6-0.7-1.2-0.5c-0.2,0.1-0.6,0.2-0.7,0.4c-0.1,0.2,0.2,0.5,0.3,0.8c-0.4,0.5-0.7,0.5-2.4-0.1c-0.5-0.2-0.8-0.5-0.6-1.1
		c0.6,0,1.3,0.1,1.9,0.1c0.1-0.3,0.2-0.6,0.3-0.8c0.2-0.3,0.7-0.7,0.6-0.8c-0.3-0.5-0.7-1.1-1.1-1.2c-1-0.3-1.7-1-2.5-1.5
		c-0.9-0.5-1.6-1.3-2.3-2c1,0.5,1.9,1,2.9,1.5c0.1-0.1,0.1-0.1,0.2-0.2c-0.4-0.7-0.7-1.5-1.1-2.3c0.1,0,0.1-0.1,0.2-0.1
		c0.4,0.6,1,1.1,1.3,1.7c0.4,1.1,1.3,1.9,2,2.7c0.8,1,1.7,1.8,2.6,2.7c0.7,0.6,0.8,0.4,1.6-0.1c0.7-0.5,0.5-1.2,0.8-1.8
		c0.1-0.2,0.3-0.4,0.4-0.7c0.2,0.2,0.5,0.3,0.5,0.6c0.3,0.8,0.7,1.3,1.6,1.2c0.7-0.1,0.8,0.2,0.7,0.9c0,0.2,0,0.4,0,0.6
		c1.2-0.1,0.8-1.1,1.2-1.7c0.1,0.2,0.1,0.5,0.2,0.7c0.1,0.4,0.2,0.9,0.4,1.3c0.2,0.3,0.6,0.4,0.9,0c0.2-0.2,0.1-0.5,0.2-0.8
		c-0.1-0.1-0.2-0.1-0.2-0.2c0.4-0.1,0.8-0.4,1.1-0.2c0.4,0.2,0.8,0.5,0.8,1.1c-0.1,0.6,0.3,0.7,0.9,0.5c0.2-0.1,0.5-0.1,0.7,0
		c0.2,0.2,0.4,0.6,0.3,0.7c-0.2,0.3-0.5,0.6-0.9,0.3c-0.5-0.2-1-0.4-1.6-0.6c0,0.4,0,0.7,0,0.9c1.2,0.2,1.4,0.3,1.6,1.5
		c0.1,0.3-0.2,0.6-0.2,0.9c-0.1,0-0.1,0-0.2-0.1c0-0.1,0.1-0.3,0.1-0.4c-0.6-0.4-1.2-0.7-1.8-1c-0.3,0.4-0.6,0.8-0.9,1.2
		c0.1,0.1,0.4,0.2,0.6,0.3c0.3,0.3,0.6,0.6,0.9,0.9c-0.3,0.2-0.7,0.4-1,0.7c0.5,0.5,0.2,0.9-0.4,1.2c-0.7,0.4-0.1,0.8-0.1,1.3
		c-0.4,0.3-0.8,0.5-1.2,0.8c-0.4-0.4-0.8-0.7-1.3-1.1c0.3-0.3-0.3-1.1,0.6-1.1c0-0.2,0-0.5,0-0.8c-0.3,0-0.5,0-0.8,0
		c-0.2,0-0.4,0.2-0.4,0.3c0.2,0.7-0.4,0.8-0.7,1.1c0-0.4,0-0.8,0-1.1c0-0.6-0.4-0.6-0.7-0.6c-0.3-0.1-0.6-0.1-0.7,0.4
		c-0.1,0.4-0.2,0.7-0.4,1.2c1.4,1.4,5.9,3.5,7,3.2c-0.5-0.7-0.9-1.5-1.4-2.2c0.7,0.2,1.4,0.5,1.7,1.3c0.3,0.7,0.9,1.2,1.6,1.6
		c1,0.7,1.9,1.5,2.9,2.2c0.2,0.1,0.4,0.2,0.8,0.5c0.2-1.4,0.5-2.7,0.7-4c0,0,0.1,0,0.1,0c0.1,0.5,0.2,1.1,0.3,1.6
		c0.1,0.6,0.6,1,1.2,1.1c0.2,0,0.5,0.2,0.7,0.3c0.4,0.2,1,0.4,1.3,0.8c0.3,0.3,0.6,0.9,0.5,1.3c-0.3,1.1,0.2,2,0.5,2.9
		c0.6,1.4,1.1,2.8,1.7,4.1c0.1,0.3,0.3,0.5,0.5,0.7c1.3,1,2.7,2,4.1,3.1c0.4-1.3,0.7-2.5,1-3.5c-0.8-0.6-1.3-1-1.9-1.5
		c0.1-0.1,0.1-0.2,0.2-0.3c0.8,0.6,1.6,1.1,2.4,1.7c0,5.2,0,10.4,0,15.6c0,0-0.1,0-0.1,0.1c-0.2-0.5-0.5-1.1-0.8-1.6
		c-0.2-0.3-0.4-0.6-0.6-0.8c-1.8-0.8-3.1-2.1-4.6-3.4c-1.4-1.1-2.7-2.4-4-3.6c-0.6-0.6-1.2-0.4-1.8-0.4c-0.7,0.1-1.5,0.2-2.2,0.2
		c-0.3,0-0.7-0.1-1-0.1c-0.1,0.2-0.1,0.4-0.1,0.6c0-0.1-0.1-0.2-0.2-0.4c0.1,0.6,0.2,1.1-0.5,1.1c0-0.5-0.8-1.7-1.3-1.8
		c-0.2,0-0.4,0-0.5,0.1c-0.6,0.6-1.2,1-2.1,0.6c-0.1-0.1-0.3,0-0.5,0c0.1,0.5,1.1,0.7,0.5,1.3c-1-0.2-1.8-1.6-1.4-2.4
		c0.1-0.2,0.5-0.4,0.8-0.5c0.8-0.2,0.9-0.4,0.5-1.1c-0.1-0.3-0.1-0.6-0.2-0.9c-0.1-0.2-0.3-0.5-0.6-0.5c-0.5-0.1-1,0-1.4-0.2
		c-0.8-0.4-1.5-1-2.2-1.6c-1.3-1.1-2.6-2.3-3.9-3.5c-0.1-0.1-0.2-0.3-0.2-0.4c-0.1-0.2-0.2-0.5-0.4-0.7c-0.1,0-0.2,0.1-0.2,0.1
		c0.1,0.3,0.2,0.6,0.3,1.1c-0.4,0-0.8,0.1-1.2,0.1c-0.4,0-0.9,0.1-1.3,0.1c0,0.2,0.1,0.4,0.1,0.7c-0.6-0.1-1.1-0.3-1.7-0.3
		c-0.2,0-0.4,0.1-0.6,0.2c0,0.1,0,0.2,0,0.3c0.4,0.1,0.8,0.1,1.2,0.2c0,0.1,0.1,0.3,0.1,0.5c0,0.3-0.2,0.6-0.2,0.8
		c-0.4-0.1-0.7-0.2-1.1-0.3c-0.3-0.1-0.5-0.2-0.8-0.2c-0.5-0.2-1.1,0-1.4-0.8c-0.3-0.8-0.7-0.9-1.5-0.7c-0.3,0.1-0.7,0.1-1,0
		c-0.4-0.2-0.5-0.1-0.9,0.1c-0.6,0.5-1.3,0.7-2,1c-0.1,0-0.5-0.5-0.6-0.7c-0.5,0-1,0-1.5,0c-0.7-0.1-1.2-1.1-0.9-1.7
		c0.1-0.1,0.3-0.1,0.5-0.1c0.1,0,0.2,0.1,0.3,0.1c0.4,0.1,0.8,0.2,1.3,0.4c0-0.6-0.1-1-0.1-1.5c-0.1,0-0.1,0-0.2,0
		c-0.1,0.3-0.1,0.5-0.2,0.9c-0.2-0.1-0.5-0.3-0.7-0.3c-0.9-0.2-1.1-0.2-1.2,0.8c0,0.5-0.3,0.7-0.6,0.9c-0.1,0.1-0.3,0.2-0.4,0.3
		c0.7,1.3,0.7,1.3,1.7,1.6c-0.5,0.5-1.5,0.6-2,0.1c-0.3-0.3-0.6-0.5-0.9-0.8c-0.5-0.4-0.9-0.5-1.5-0.2c-0.2,0.1-0.7-0.2-1-0.2
		c-0.6,0.1-0.6-0.5-0.7-0.7c-0.1-0.1-0.1-0.3-0.1-0.5c0.6-0.3,0.7-0.7,0.3-1.3c-0.3-0.4-0.6-0.9-0.1-1.4c0.1-0.2,0.1-0.5,0.2-0.7
		c-0.5-0.5-1.7-0.2-1.8-1.4c0.6-0.1,0.6-0.4,0.5-0.9c-0.1-0.2,0.1-0.6,0.2-0.9c-0.6-0.1-2.8,1.1-3.1,1.7c0.2,0.3,0.4,0.6,0.6,0.9
		c0.1,0.3,0.2,0.6,0.4,0.9c0,0-0.1,0.1-0.2,0.2c0.1,0.2,0.3,0.4,0.4,0.6c-1.3,0.8-2.4,0.7-3.4-0.2c0.5-0.3,1-0.7,1.4-1
		c0-0.1-0.1-0.1-0.1-0.2c-0.7-0.1-1.4,0.1-2,0.4c-1.4,0.6-2.9,1.2-4.3,1.9c-0.5,0.2-0.9,0.5-1.3,0.8c-1,0.7-2,1.3-3.1,1.8
		c-1,0.4-1.8,1.2-2.7,1.9c-0.7,0.6-1.4,1.2-2.1,1.9c-0.9,1-1.8,2.1-2.7,3.1c-0.3,0.4-0.5,1-0.9,1.2c-0.9,0.5-1.4,1.3-2,2
		c-0.9,1.1-1.7,2.3-1.7,3.8c0,1-0.7,1.6-1.3,2.2c-0.6,0.7-0.6,0.7-1.3,0.7c0.7-0.9,1.4-1.7,2.1-2.6c-0.1-0.1-0.1-0.1-0.2-0.2
		c-1.3,0-2.5,0-3.8,0c0,0,0,0,0,0c0.7-0.1,1.4-0.1,2-0.3c0.8-0.1,1.6-0.1,2.1-1c0.1-0.2,0.1-0.4,0.2-0.6c0.5-1.4,1.2-2.6,2.3-3.5
		c0.7-0.7,1.4-1.4,1.7-2.4c0.4-1.3,1.4-2.1,2.2-3.1c0.2-0.3,0.4-0.7,0.5-1c-1.5-0.5-2.7-0.1-3.7,0.9c-0.3,0.3-0.6,0.4-1,0.6
		c0-0.1-0.1-0.1-0.1-0.1c0.5-0.4,1-0.8,1.5-1.2c0.4-0.3,0.8-0.5,1.2-0.8c0.2-0.1,0.3-0.2,0.5-0.2c0.9,0,1.7,0,2.5,0
		c0.2,0,0.4-0.1,0.5-0.2c0.9-0.7,1.8-1.5,2.6-2.2c0.7-0.6,1.3-1.1,2.1-1.8c-1-0.7-1.8-1.1-3-1.1c-0.9,0-1.7-0.2-2.6-0.4
		c-1.4-0.3-2.6,0.5-2.8,2c-0.1,0.5-0.4,1.1-0.7,1.6c-0.3,0.6-0.6,1.2-1,1.9c0.6-1.6,1.1-3.1,1.7-4.6c-0.2,0-0.3-0.1-0.3-0.1
		c-1.5,0.5-3,1-4.4,1.5c-0.9,0.3-1.7,0.8-2.5,1.1c-0.5,0.2-0.4,0.4-0.1,0.7c0.7,0.8,0.6,1.1-0.4,1.5c-0.1-0.3-0.3-0.6-0.4-0.9
		c-0.2,0.2-0.4,0.4-0.7,0.6c-0.3,0.2-0.5,0.4-0.4,0.8c0.1,0.4,0.3,0.6,0.8,0.6c0.6-0.1,1,0.7,0.7,1.2c-0.2,0.3-0.5,0.6-0.8,0.8
		c-0.5,0.4-0.8,0.2-0.9-0.4c0-0.1,0-0.3,0-0.3c-0.5,0-0.9,0-1.4,0c-0.2,0-0.4,0.3-0.4,0.3c0.4,1-0.5,1.5-1,2.2
		c0.1-0.2,0.1-0.3,0.2-0.6c-0.9,0.2-1.1-0.2-1.1-1c-0.1,0.2-0.3,0.3-0.4,0.5c-0.1,0.2-0.1,0.4-0.2,0.5c-0.2,0.3-0.4,0.9-1,0.7
		c-0.4-0.2-0.4-0.6-0.2-1c0.3-0.5,0.4-1.1,0.7-1.7c0.1-0.2,0.5-0.3,0.7-0.2c0.5,0.2,0.7-0.1,0.8-0.5c0.2-0.3,0.3-0.7,0.4-1
		c-0.6-0.7-0.7-0.7-1.3,0.1c-0.4,0.5-1,0.9-1.5,1.3c-0.3,0.2-0.6,0.4-1,0.6c-0.7-0.1-0.7-0.2-0.2-0.9c0.2-0.3,0.4-0.6,0.1-0.9
		c-0.2-0.2-0.6-0.2-0.9-0.3c-0.4-0.1-0.7-0.1-1.1-0.1c0-0.7,0.6-0.9,1.1-1.2c0.1-0.1,0.5,0.2,0.8,0.3c0.2,0.1,0.4,0.2,0.6,0.2
		c0.9-0.1,0.9-0.1,1.1,1.1c0.3-0.3,0.6-0.5,0.8-0.7c0.1-0.1,0.3-0.4,0.4-0.3c0.9,0.2,0.6-0.5,0.9-1c-0.4,0-0.7-0.1-1-0.1
		c-0.1-0.6,0.4-0.6,0.7-0.7c0.5-0.1,0.6-0.5,0.3-0.7c-0.6-0.5-0.4-1-0.5-1.6c-0.6-0.5-1.1,0-1.6,0.3c-0.3-0.5-0.5-0.9-0.8-1.3
		c0.8-0.9,1.7-1,2.7-0.4c0.1,0,0.1,0.1,0.2,0.1c1.2-0.4,1.8,0.5,2.6,1.1c-0.1-0.2-0.1-0.3-0.2-0.5c-0.2-0.5-0.5-0.9-0.7-1.4
		c-0.1-0.2,0.1-0.4,0.1-0.6c0.2,0,0.4,0.1,0.6,0.1c0.1,0,0.2,0.1,0.5,0.1c-0.3-0.7-0.8-0.8-1.3-0.7c-0.2,0-0.3,0.1-0.5,0.1
		c-0.3-0.1-0.5-0.2-1-0.3c-1.1,0.9-2.7,1-4.2,1.5c-1.3,0.5-2.6,1.1-3.9,1.6c-0.7,0.3-1.5,0.5-2.2,0.8c-1.3,0.4-2.6,0.8-3.8,1.2
		c-0.2,0.1-0.3,0.3-0.5,0.5c0.2,0.1,0.3,0.2,0.4,0.3c-0.7,0.8,0.1,1.3,0.5,1.8c0.2,0.2,0.4,0.4,0.6,0.6c0.3,0.3,0.5,0.6,0.3,1.1
		c-0.1,0.2,0.1,0.6,0.1,0.9c0.1,0,0.1,0,0.2,0c0.1-0.6,0.3-1.1,0.3-1.7c0-0.3-0.2-0.7-0.4-1c-0.7-1-0.9-1.3-0.6-2.5
		c0.6,0.3,1.4,0.5,1.7,1c0.3,0.5,0.4,1.3-0.6,1.7c1.2,0.4,1.6,1.8,2.9,2.1c0.4,0.1,0.8,0.9,0.7,1.3c-0.1,0.4-0.3,0.7-0.8,0.6
		c-0.1,0-0.2,0-0.3-0.1c-0.3-0.7-0.9-0.3-1.4-0.4c-0.4-0.1-0.7-0.3-1.1-0.5c0,0.7-0.7,0.3-1.1,0.5c-0.2,0.1-0.5-0.2-0.7-0.4
		c-0.4-0.5-0.6-0.5-1,0c-0.1,0.1-0.2,0.2-0.2,0.3c0.4,0.2,0.8,0.5,1.2,0.8c0.2,0.1,0.2,0.4,0.3,0.6c-0.2,0.1-0.4,0.2-0.6,0.3
		c-0.4,0.2-0.9-0.3-1.2,0.4c0,0-0.7-0.1-1.1-0.2c0-0.1,0-0.2,0-0.3c0.3,0,0.6,0,1,0c0-0.1,0.1-0.1,0.1-0.2c-0.3-0.3-0.5-0.7-0.9-0.7
		c-1.3-0.3-2.1,0.1-2.9,1.3c-0.3-0.1-0.5-0.2-0.9-0.3c0.2-0.7,0.4-1.4,0.6-1.9c-0.4-0.3-0.8-0.6-1.2-0.9c-0.4-0.3-0.9-0.5-1.4-0.8
		c-0.4,1.1-1.3,1.7-2.1,2.3c-0.2,0.2-0.4,0.4-0.4,0.7c-0.2,0.7-0.4,1.4-0.6,2.1c-0.1,0.3-0.2,0.6-0.1,0.9c0.3,1.1,0.7,2.2,1.1,3.2
		c0.4,0.9,0.6,1.7,0.6,2.6c0,0.7,0.1,1.3,0.1,2l0,0c-0.2-0.9-0.3-1.7-0.6-2.5c-0.2-0.6-0.5-1.2-0.8-1.8c-0.5-1.1-1.3-2.1-1.1-3.4
		c0.1-0.9,0.4-1.7,0.6-2.6c0-0.1,0-0.2,0.1-0.5c-1.4,0.6-2.7,1.2-3.9,1.7c0,0.1,0,0.2,0,0.3c0.3,0.2,0.6,0.3,0.9,0.6
		c-0.2,0.3-0.4,0.6-0.6,0.9c0.1,0,0.1,0,0.1,0c-0.1,0.3-0.1,0.9-0.3,1c-0.6,0.4-1.3,0.5-2.1,0.1c0.7-0.5,0.6-1.3,0.2-1.7
		c-0.3-0.5-1-0.7-1.5-1c0,0.1-0.1,0.1-0.1,0.2c0.1,0.2,0.2,0.4,0.2,0.5c0,0.3-0.1,0.7,0.4,0.8c0.1,0,0.2,0.5,0.1,0.8
		c-0.1,0.3-0.4,0.6-0.6,0.9c0-0.2,0-0.4,0-0.6c-0.2,0.1-0.3,0.2-0.6,0.5c0.3-1.4-1-1.8-1.3-2.5c-0.5,0.3-0.8,0.6-1.2,0.7
		c-1.2,0.3-2.4,0.5-3.6,0.6c0.8-0.3,1.6-0.7,2.4-1.1l0,0c0.6-0.1,1.1-0.3,1.8-0.4c-0.2-0.3-0.3-0.4-0.4-0.5
		c-0.2-0.2-0.3-0.4-0.5-0.6c-0.2-0.3-0.3-0.6-0.5-0.9c-0.1-0.2-0.1-0.5-0.1-0.7c0.1-0.4,0.3-0.7-0.2-0.9c-0.1,0-0.2-0.3-0.2-0.5
		c0.1-0.7-0.1-1.1-1-1.3c0,0.2,0,0.4,0.1,0.5c0.2,0.5-0.1,1.1-0.6,1.2c-0.1,0-0.3,0-0.4-0.1c-0.3-0.3-0.7-0.6-0.9-1
		c-0.3-0.4-0.4-0.9-0.6-1.3c0-0.1,0.2-0.3,0.3-0.4c0.2-0.1,0.5-0.1,0.7-0.1c-0.2,0.1-0.5,0.2-0.8,0.4c0.8,0.3,1.4,0.7,2.2,0.3
		c0.3-0.2,0.7-0.1,1.1-0.2c0.2-0.1,0.4-0.2,0.6-0.3c-0.2-0.3-0.3-0.6-0.6-0.7c-0.1-0.1-0.4,0.1-0.6,0.2c-0.3,0.1-0.6,0.3-0.9,0.4
		C100.1,45.8,99.7,45.8,99.4,45.8z M171.4,33.8c-0.3-0.2-0.4-0.2-0.5-0.3c-0.7-0.3-1.4-0.7-1.4-1.7c0.1-0.6-0.5-0.6-0.9-0.6
		c-0.3,0-0.5,0-0.8,0c-0.2,0-0.4,0.1-0.6,0.2c0.1,0.2,0.2,0.4,0.4,0.5c0.3,0.1,0.7,0.1,1,0.2c0.2,0.1,0.4,0.4,0.3,0.5
		c-0.3,0.4-0.5,1-0.9,1.1c-0.4,0.1-0.8-0.4-1.2-0.7c-0.2-0.1-0.3-0.3-0.5-0.3c-0.2,0-0.3,0.2-0.5,0.4c-0.1,0.2-0.2,0.4-0.3,0.6
		c-0.6,0.6-1.1,0.2-1.6,0c-0.3,0.2-0.6,0.6-0.7,0.5c-0.8-0.2-1.5-0.2-2.2,0.2c0,0.2,0,0.4,0.1,0.7c0.2,0,0.3,0.1,0.6,0.1
		c-1,0.9-1.7,0.9-1.9,0c0.1-0.3,0.2-0.5,0.2-0.7c0-0.6,0.1-1.4-1-1.1c0,0,0,0-0.1,0c-0.5-0.6-1.1-0.3-1.7-0.1
		c0.3,0.2,0.5,0.4,0.8,0.6c-0.5,0.2-0.9,0.4-1.2,0.6c-0.5,0.3-0.6-0.1-0.6-0.4c0-0.2,0.1-0.5,0.1-0.8c-0.5,0.1-0.9,0.1-1.2,0.2
		c-0.4,0.1-0.7,0.2-1.1,0.2c-0.9,0.2-1.5-0.1-1.8-0.9c-0.1-0.1-0.3-0.3-0.4-0.3c-1.5-0.2-2.8,0.2-4.1,1c0.9,0.4,1.6,0.8,2.4,1.1
		c0.6,0.3,1.1,0.6,1.5,1.3c0.5,1.1,1.6,1.4,2.6,1.5c2.2,0.1,4.4,0.1,6.5,0.1c0.1,0,0.2,0,0.3,0.1c0.7,0.3,1.4,0.2,2.1-0.1
		c0.6-0.2,1-0.6,1.6-0.9c1.2-0.6,2.4-1.1,3.5-1.6c0.1-0.1,0.2-0.1,0.3-0.1C169.4,34.4,170.3,34.2,171.4,33.8z M112.8,37.6
		c0,0.1,0.1,0.2,0.1,0.3c0.3-0.1,0.6-0.2,0.9-0.3c0.7,0,0.9,0.4,0.3,1.3c0.8,0.1,1.5,0.3,2.2,0.4c0.1,0,0.3-0.1,0.4-0.2
		c1.1-0.5,1-0.9,2,0.1c0.1,0.1,0.1,0.2,0.2,0.2c0.8,0.4,0.6,1.1,0.6,1.7c0,0.3,0.1,0.6,0.3,0.8c0.3,0.2,0.7,0.3,0.9,0.4
		c0.2-0.4,0.3-0.7,0.6-0.8c0.7-0.3,2,0.2,2.3,1c0.2,0.4,0.3,0.4,0.7,0.2c0.9-0.4,1.9-0.7,2.9-1c0.9-0.2,1.7-0.5,2.4-1.1
		c0.3-0.3,0.7-0.5,1.1-0.7c0.9-0.5,1.8-1,2.7-1.5c0.2-0.1,0.3-0.3,0.6-0.6c-0.6,0-0.9,0.1-1.2,0c-0.2-0.1-0.6-0.2-0.7-0.4
		c-0.1-0.4-0.2-0.7-0.7-0.6c-0.3,0-0.7,0-1.2-0.1c0.6,0.8,1.3,1.5,0.3,2.3c-0.5-0.1-1-0.2-1.5-0.3c-0.2,0-0.5,0.1-0.6,0.3
		c-0.1,0.1,0,0.4,0.1,0.5c0.1,0.3,0.2,0.6,0.3,1c-0.4,0-0.7,0-0.9-0.1c-0.5-0.6-1.3-0.7-2-0.8c-0.2,0-0.5-0.3-0.4-0.4
		c0.2-0.7-0.1-0.8-0.6-0.8c-0.6-0.1-1.2-0.2-1.3-0.9c-0.1-0.2-0.1-0.5-0.3-0.7c-0.1-0.2-0.4-0.4-0.6-0.4c-0.9,0-1.8,0-2.6,0.1
		c-1.6,0.2-3.1,0-4.6-0.5c-0.1,0-0.3-0.1-0.4,0C114.4,36.6,113.6,37.1,112.8,37.6z M197.3,40.5c0,0,0,0.1,0,0.1
		c0.9,0.8,1.8,1.6,2.7,2.3c0.4,0.4,0.9,0.9,1.4,0.9c0.9,0.1,1.8,0.2,2.7,0.5c1.2,0.4,2.5,0.7,3.7,1c0.9,0.2,1.9,0.6,2.9,0.6
		c0.9,0,1.8-0.4,2.8-0.7c0.1,0,0.3-0.2,0.3-0.3c-0.2-0.7,0-1.6-0.7-2.2c-0.9-0.6-1.7-1.4-2.5-2c-0.2-0.2-0.5-0.3-0.8-0.2
		c-1.3,0.1-2.7,0.2-4,0.3c-1.5,0-2.9-0.1-4.4-0.1c-0.2,0-0.3,0-0.5,0c-0.3,0-0.6,0-0.9,0.1c-0.6,0.3-1.2,0.3-1.8-0.1
		C197.9,40.6,197.6,40.6,197.3,40.5z M141,36.1c0,0.1,0,0.2,0.1,0.3c3,0.6,6,0.7,9.1-0.5c-0.3-0.3-0.6-0.7-1-1
		c-0.7-0.4-1.5-0.7-2.2-1.1c-0.2-0.1-0.4-0.1-0.6,0C144.6,34.6,142.8,35.3,141,36.1z M151.3,39.5c0-0.1,0-0.2,0-0.3
		c-1.7-0.1-3.3-0.2-5-0.3c-0.6,0-0.9,0.1-0.6,0.7c0.1,0.2,0.1,0.6,0,0.8c-0.2,0.3-0.5,0.6-0.8,0.6c-0.1,0-0.6-0.4-0.6-0.7
		c0-0.5,0.2-1,0.3-1.5c-0.8,0.2-1.7-0.5-2.5,0.4c-0.1,0.1-0.2,0.3-0.3,0.5c0.2,0.1,0.3,0.2,0.5,0.3c0.3,0.1,0.6,0.2,0.8,0.4
		c0.2,0.1,0.3,0.3,0.5,0.5c0,0.6,0,1.3,0,1.9C146.4,41.6,148.8,40.5,151.3,39.5z M207.8,52c0.2,0.1,0.4,0.2,0.6,0.3
		c0.1-0.2,0.1-0.4,0.2-0.6c0.1-0.2,0.2-0.5,0.4-0.5c0.6-0.2,1.3-0.4,2-0.4c1.4,0,2.8-0.7,4.3-0.2c0.2,0.1,0.4-0.1,0.7-0.1
		c-0.1-0.3-0.2-0.6-0.3-0.9c-0.1-0.1-0.3-0.2-0.5-0.2c-0.9-0.2-1.8-0.3-2.7-0.4c-0.6-0.1-1.1-0.3-1.7-0.4c-0.5-0.2-0.6,0-0.6,0.5
		c0,1.1-0.4,1.5-1.5,1.7c-0.2,0-0.4,0.2-0.5,0.4C207.9,51.4,207.9,51.7,207.8,52z M115.1,42.4c0.8-0.1,1.5-0.2,2.1-0.3
		c-0.1-0.3-0.1-0.6-0.1-0.9c0.3,0,0.5,0,0.8,0.1c-0.1,0.3-0.2,0.6-0.3,0.8c0.2,0.3,0.5,0.6,0.6,0.9c0.1,0.3,0.2,0.6,0.1,0.9
		c0,0.1-0.5,0.1-0.7,0.2c-0.2,0.4-0.3,0.9-0.5,1.4c0.2,0.2,0.5,0.4,0.8,0.7c0.3-0.3,0.5-0.6,0.6-0.9c0.2-0.3,0.4-0.7,0.7-0.9
		c0.8-0.5,0.8-1,0.1-1.6c-0.2-0.2-0.6-0.5-0.6-0.8c0-0.9-0.7-0.9-1.2-1.1c-0.3-0.1-0.6,0-1,0c-0.2,0.7-0.7,0.9-1.6,0.8
		C115,42.1,115.1,42.3,115.1,42.4z M178.5,36.3c0-0.2,0-0.4,0-0.4c-0.2-0.3-0.4-0.6-0.9-0.4c-0.8,0.2-1.6,0.3-2.4,0.5
		c-0.1,0-0.3,0.4-0.3,0.6c0.2,0.6,0.4,1.2,0.7,1.8c0.1,0.3,0.2,0.8,0.7,0.6c0.5-0.2,0.9-0.5,1.4-0.8c-0.3-0.4-0.6-0.6-0.8-0.9
		c-0.1-0.2-0.1-0.6,0-0.9C177.3,35.6,177.9,36,178.5,36.3z M169,21.5c-0.7,0.1-1.5,0.1-2.4,0.2c0.6,1.7,0.6,1.7,1.5,1.9
		c0.7-1,0.7-1,2,0.6c1.1-0.4,1.1-0.9,0.2-1.8c-0.2,0.1-0.6,0.2-0.7,0.1C169.5,22.3,169.3,22,169,21.5z M183.1,40.4
		c0.1-0.5,0.2-0.8,0.3-1.1c0.3-0.6,0.2-1-0.2-1.4c-0.6-0.4-0.9,0-1,0.3c-0.7,0-1.3-0.1-1.9,0c-0.2,0-0.2,0.5-0.4,0.7
		c0.2,0.1,0.4,0.2,0.5,0.2C181.4,39.3,182.4,39.3,183.1,40.4z M105.4,51.8c0-0.1,0.1-0.1,0.1-0.2c-0.1-0.3-0.3-0.5-0.4-0.8
		c-0.2-0.4-0.5-0.7-0.6-1.1c-0.2-0.5-0.3-1-0.5-1.4c-0.1-0.1-0.4-0.2-0.6-0.2c-0.1,0.2-0.2,0.3-0.2,0.5c0,0.7,0.2,1.3,0.2,2
		c-0.1,0.5,0.1,0.8,0.5,0.9C104.3,51.6,104.9,51.7,105.4,51.8z M202.2,36.4c-0.4-0.2-0.7-0.3-1-0.4c-0.2-0.1-0.6-0.3-0.6-0.4
		c0.2-0.8-0.6-0.6-0.9-1.1c-0.2,0.8-0.4,1.4-0.5,2.1C200.2,36.7,201.2,37.7,202.2,36.4z M164.2,24.5c-0.2,0-0.4,0-0.5-0.1
		c-1,0-1,0-0.9-1c0-0.2-0.2-0.4-0.4-0.7c-0.1,0.6-0.1,1.1-0.3,1.3c-0.5,0.5-0.2,1-0.1,1.5c0.4-0.1,0.8-0.3,1.1-0.2
		C163.9,25.7,164,25.2,164.2,24.5z M174.2,32.2c-0.6-0.2-0.9-0.3-1.3-0.3c-0.4,0-0.9-0.1-1,0.6c-0.1,0.4-0.2,0.8-0.3,1.3
		C172.6,33.8,173.2,32.9,174.2,32.2z M206.5,50.9c-0.1-0.6-0.2-1-0.1-1.4c0.1-0.4,0.4-0.7,0.6-1c-0.5,0-1,0-1.4,0
		c-0.6,0.8-0.2,1.5,0.2,2.2c0.1,0.1,0.1,0.3,0.2,0.3C206.2,51,206.4,50.9,206.5,50.9z M171.6,28.7c0.2,0,0.5,0.1,0.6,0.1
		c0.2,0,0.7-0.1,0.7-0.1c0-0.3-0.1-0.7-0.2-1c0-0.1-0.3-0.2-0.3-0.3c0-0.9-0.6-0.8-1.2-0.8C171.2,27.3,172.4,27.8,171.6,28.7z
		 M220.2,54.3c0.9,0.6,1.7,1.1,2.5,1.6c0,0,0.1-0.1,0.1-0.1c-0.6-0.7-1.2-1.4-1.7-2.1C220.7,53.9,220.5,54.1,220.2,54.3z M161.5,26
		c0.1,0.6,0.1,0.9,0.2,1.2c0,0.1,0.2,0.2,0.3,0.3c0.8,0.1,0.6-0.5,0.8-1C162.4,26.3,162,26.2,161.5,26z M128.1,37.4
		c-0.1-0.6-0.6-0.6-1-0.7c-0.1,0-0.3,0-0.4,0c0,0.2-0.1,0.4,0,0.5C127,37.7,127.4,37.8,128.1,37.4z M188.2,33.6
		c0.1-0.3,0.3-0.6,0.3-0.9c0-0.1-0.1-0.4-0.3-0.4c-0.2,0-0.5,0.1-0.5,0.2C187.8,32.8,187.6,33.3,188.2,33.6z M203.8,29.8
		c-0.3-1.1-0.6-1.3-1.7-1C202.8,29.1,203.2,29.4,203.8,29.8z M174.3,27.5c-0.2-0.5-0.3-0.9-0.5-1.3c-0.1,0.1-0.3,0.2-0.3,0.3
		C173.4,27,173.5,27.4,174.3,27.5z M167.5,27.7c0.2-0.5,0.4-0.9,0.6-1.4C167.2,26.5,167,26.8,167.5,27.7z M190.7,32.7
		c0.1,0,0.1,0,0.2,0c0-0.2,0-0.5-0.1-0.5c-0.3-0.2-0.7-0.7-1.2-0.2C190,32.2,190.3,32.5,190.7,32.7z M182.5,43.9c0.1,0,0.2,0,0.2,0
		c0.1-0.3,0.2-0.5,0.4-1c-0.3,0.1-0.7,0.1-0.7,0.2C182.3,43.4,182.4,43.7,182.5,43.9z M163.5,31.6c0-0.1,0.1-0.3,0.1-0.4
		c-0.3,0-0.6-0.1-0.9-0.1c-0.1,0-0.1,0.2-0.2,0.3C162.8,31.5,163.1,31.5,163.5,31.6z M203.3,48.1c0-0.1,0.1-0.1,0.1-0.2
		c-0.4-0.4-0.9-0.6-1.5-0.6C202.4,47.6,202.9,47.8,203.3,48.1z"/>
	<path d="M42.4,93.3c1,0.1,1.2-0.8,1.5-1.4c0.4-0.8,1.3-1.4,1.9-1.2c0.4,0.1,0.8,0.3,1.2,0.4c1.1,0.5,2.1,0,3.1-0.4
		c1.4-0.6,1.4-0.6,2.5,0.4c1.1,1,2.2,2,3.4,2.8c0.8,0.6,1.7,0.9,2.6,1.3c0.2,0.1,0.5,0.3,0.6,0.4c0.7,0.6,1.5,0.8,2.3,0.3
		c0.9-0.6,1.7,0,2.5,0.4c0.5,0.2,1,0.6,1.4,1c0.9,0.7,1.2,1.7,1.2,2.8c0,0.8,0.2,1,1,1c0.4,0,0.8,0.1,1.2,0.2c1.1,0.5,2.1,1,3.2,1.5
		c0.1,0.1,0.2,0.1,0.3,0.1c1.3-0.1,2.7-0.2,4-0.3c1.8-0.2,3.4-0.7,5.1-1.3c0.1-0.1,0.4-0.1,0.5,0c0.6,0.6,1.2,1.1,1.7,1.8
		c0.5,0.8,1.1,1.4,1.9,2c1.3,0.9,2.5,1.9,3.7,2.9c1,0.8,2,1.5,3.1,2.2c0.7,0.5,1.5,0.9,2.1,1.4c0.8,0.6,1.6,1,2.7,0.9
		c0.9-0.1,1.9,0.1,2.8,0.2c0,0,0,0,0.1,0c1.9-0.6,2.6,1.2,3.9,1.8c1.5,0.7,3,1.7,4.5,2.5c1.3,0.7,2.7,1.4,4,2.1
		c0.6,0.3,1.2,0.8,1.8,1.2c0.2,0.2,0.3,0.5,0.5,0.8c0.2,0.2,0.4,0.4,0.8,0.7c-4.5-0.5-8-2.9-11.7-5c0,1.7,1.2,2.9,1.5,4.6
		c-0.5-0.1-0.9-0.1-1.3-0.3c-1.3-0.7-2.7-1.4-4-2.2c-0.4,0.4-0.3,0.8,0.2,1c0.9,0.5,1.8,1,2.7,1.4c1.1,0.5,2.1,1.1,3.2,1.6
		c0.3,0.1,0.7,0.1,1.1,0.1c1,0,2-0.1,3-0.1c0.2,0,0.4-0.1,0.5-0.1c0.3,0,0.6,0,0.9,0c0,0.1,0,0.2,0,0.2c-0.3,0-0.6,0-0.9,0
		c-1.3-0.1-2.7,0.1-4,0.4c-0.6,0.1-1.3,0-2,0c-0.1,0.5,0.2,0.6,2,0.7c-2.2,0.5-4.4,0.6-6.7,0.4c0.3,0.5,0.6,1,0.8,1.4
		c0,0.1-0.1,0.1-0.1,0.2c-0.2-0.1-0.4-0.1-0.6-0.2c-0.8-0.7-1.6-1.4-2.5-2.1c-1-0.8-1.7-1.9-3-2.4c-0.7-0.3-1.2-1.1-1.7-1.8
		c-0.3-0.3-0.5-0.8-0.8-0.1c-0.2,0.4-0.6,0.3-0.9,0c-0.8-1.1-1.3-2.4-1.1-4c-0.7,0.2-1.2,0.4-1.8,0.5c-0.5,0.1-0.9,0.3-1.4,0.3
		c-0.6,0.1-1.3-0.1-1.9,0.4c-0.1,0.1-0.4,0.1-0.6,0.1c-0.4,0.1-0.9,0.3-1.3,0.3c-0.5,0.1-1.1,0.2-1.7,0.2c-0.5,0-1-0.2-1.5-0.1
		c-1.2,0.1-2.2-0.3-3.3-0.7c-1-0.4-2-0.7-3-1.2c-1.3-0.6-2.7-1.2-3.9-2c-1.7-1-3.3-2.2-4.8-3.4c-0.4-0.3-0.6-0.8-1-1.1
		c-0.5-0.4-1.2-0.7-1.7-1.2c-0.5-0.4-1-0.9-1.6-1.3c-0.5-0.4-0.9-0.7-1.4-1c0,0-0.1-0.1-0.1-0.1c-0.4-0.8-1.1-1.4-1.9-1.8
		c-0.3-0.1-0.4-0.6-0.7-0.9c-0.6-0.8-1.3-1.7-2-2.7c-0.1,0.4-0.2,0.5-0.2,0.6c0.8,1.4,0.4,2.7-0.3,4c-0.1,0.2-0.4,0.3-0.6,0.4
		c-0.5,0.1-0.7,0.7-0.3,1c0.5,0.3,0.2,0.6,0.1,1c-0.3,0.8-0.5,1.6-0.7,2.4c-0.1,0.3,0.2,0.7,0.1,1c-0.1,0.7-0.1,1.5-0.3,2.2
		c-0.5,1.3-1.1,2.5-1.6,3.8c-0.1-0.1-0.1-0.1-0.2-0.2c-0.4,0.1-0.8,0.2-1.1,0.4c-0.4,0.2-0.7,0.5-0.9,0.7c-0.9-0.3-0.9-0.9-0.6-1.5
		c0.2-0.4,0.2-0.9,0.2-1.4c0-0.2-0.1-0.4-0.2-0.4c-0.1-0.1-0.4,0-0.5,0.1c-1.1,0.7-2.2,1.5-3.3,2.2c-0.6,0.4-1.4,0.7-2.1,0.9
		c-0.2,0.1-0.5,0-0.8,0c0-0.1-0.1-0.2-0.1-0.2c0.5-0.5,1.1-0.9,1.6-1.3c0.5-0.4,1-0.6,1-1.4c0-0.1,0.1-0.2,0.2-0.2
		c0.5-0.2,0.9-0.5,0.6-1.3c1,0.6,1-0.6,1.6-0.7c0-0.7,0.8-0.5,1.1-0.9c0.2-0.2,0.3-0.4,0.4-0.6c0.3,0,0.5,0.1,0.5-0.4
		c0-0.1,0.1-0.3,0.2-0.4c0.5-0.4,1-0.8,1.5-1.2c0-0.1-0.1-0.1-0.1-0.2c-0.2,0-0.4,0-0.6-0.1c0-0.1,0-0.1,0-0.2
		c0.4-0.1,0.9-0.3,1.3-0.4c0,0,0-0.1,0-0.1c-0.7-0.1-1.4-0.2-2.1-0.3c0.4-0.2,0.8-0.5,1.4-0.8c-0.3-0.2-0.5-0.3-0.6-0.4
		c0.5-0.5,1.1-0.9,1.1-1.8c0.3,0,0.6-0.1,0.9-0.1c0,0,0-0.1,0-0.1c-0.1,0-0.2-0.1-0.5-0.1c0.3-0.1,0.6-0.2,0.8-0.3
		c0.2-0.1,0.5-0.1,0.9-0.3c-0.9-0.6-1.7-0.8-2.6-0.4c-0.3,0.1-0.6,0.1-0.9-0.1c-0.5-0.3-1.2-0.2-1.8-0.1c-0.7,0.1-1.5,0.5-2.2,0.7
		c0.1,0.6,0.2,1.2-0.6,1.4c0,0.2,0,0.4,0,0.6c-0.2,0.5-0.3,0.9-0.6,1.3c-0.4,0.6-0.4,1.2,0.4,1.6c-0.3,0-0.5,0-0.7,0
		c-0.2,0.9-1-0.2-1.3,0.4c0.3,0.1,0.5,0.1,0.8,0.2c0,0,0,0.1,0,0.1c-0.2,0-0.3,0-0.5,0.1c-0.4,0.1-0.8,0.1-0.7,0.7
		c0,0.1-0.3,0.4-0.5,0.5s-0.4,0.1-0.7,0.2c-1,0.2-1.2,0.7-0.7,1.4c-0.5,0.1-1,0.2-1.4,0.3c-0.1,0.4-0.1,0.6-0.1,0.8
		c-0.1,0.2-0.2,0.5-0.3,0.7c-0.1-0.1-0.3-0.2-0.4-0.3c-0.6,0.1-0.9,1.1-1.7,0.5c-0.1,0.2-0.1,0.4-0.1,0.7c-0.3-0.3-0.4-0.5-0.6-0.7
		c-0.4,0.2-1.4,0.2-0.2,1.1c-1.3,0-2.3,0-3.5,0c0,0-0.2-0.2-0.4-0.6c0.4-0.4,0.8-0.8,1.3-1.2c0.5-0.3,0.8-0.6,0.8-1
		c-0.7-0.3-1.3-0.6-2.1-1c0.9-0.6,1.6-1,2.4-1.6c-0.7-0.4-1.3-0.2-1.8,0c-0.6,0.3-1.1,0.7-1.7,1c-0.9,0.4-1.9,0.6-2.8,0.9
		c-2,0.8-4,0.9-6.1,1c0,0-0.1-0.1-0.1-0.1c0.7-0.2,1.3-0.4,2-0.6c0-0.2,0-0.4-0.1-0.6c0.8-0.1,1.6-0.2,2.6-0.4
		c-0.5-0.3-0.8-0.5-1.1-0.7c0-0.1,0.1-0.1,0.1-0.2c0.3,0.1,0.7,0.1,1.1,0.1c0-0.2,0-0.3-0.1-0.5c1.8-0.1,1.8-0.1,1.6-1.1
		c0.3-0.2,1-0.2,0.7-0.9c0.3,0,0.5-0.1,0.8-0.1c0,0,0-0.1,0-0.1c-0.3,0-0.7,0-0.9-0.1c-0.3-0.2-0.4-0.6-0.6-1
		c1.3-1.4,2.6-2.9,3.9-4.3c-0.1,0-0.2-0.1-0.2-0.1c0.3-0.3,0.6-0.4,0.7-0.6c0.8-0.9,1.5-1.8,2.4-2.7c0.7-0.7,1.5-1.3,2.2-1.9
		c0.1-0.1,0.2-0.2,0.3-0.2c1.2,0,1.5-0.9,1.9-1.7c0.2-0.3,0.7-0.6,1-0.6c0.7,0,1.1-0.3,1.5-0.7C41.5,93.9,42,93.6,42.4,93.3
		L42.4,93.3z M102.7,123.8c-0.1,0.2-0.2,0.3-0.4,0.5c0.6,0,1.2,0,1.9,0C103.7,123.8,103.3,123.5,102.7,123.8
		c-0.1-0.1-0.2-0.3-0.3-0.3c-0.5,0.1-1-0.2-1.6,0.2c-0.3,0.2-0.9,0-1.4,0c0.2,0.2,0.3,0.4,0.5,0.7
		C100.9,124.3,101.8,124.1,102.7,123.8z M50.5,101.7c-1-1.1-1.9-2-2.8-2.8c-0.4-0.4-0.9-0.8-1.4-1.1c-0.2-0.2-0.5-0.3-0.7-0.6
		c-0.7-1.1-0.9-2.3-0.6-3.6c0.1-0.2,0-0.5,0-0.8c-0.1,0-0.2,0-0.2,0c-2,2.6-2.7,5.8-3.4,8.8c-1.1,0-1.5-0.7-1.2-1.7
		c0.2-1.1,0.5-2.2,0.6-3.3c0-0.2-0.3-0.6-0.5-0.8c-0.4-0.3-0.5,0.1-0.6,0.4c-0.1,0.3-0.3,0.6-0.4,0.9c-0.3,0.6-0.7,1.2-1,1.9
		c-0.5,1-0.8,2.1-1.3,3.1c-0.9,1.8-1.9,3.6-2.8,5.4c-0.4,0.9-0.8,1-1.7,0.5c-0.2,0.3-0.3,0.6-0.6,1.1c1-0.2,1.8-0.3,2.4-0.6
		c1.8-0.9,3.6-1.9,5.4-2.8c0.9-0.5,1.7-1,2.5-1.4c0.5-0.2,1.2-0.3,1.5-0.9c0.1-0.1,0.4-0.2,0.6-0.2c0.6,0.1,1-0.1,1.5-0.5
		c0.3-0.2,0.6-0.3,1-0.4c0.9-0.1,1.8-0.2,2.6-0.3C49.8,101.9,50.1,101.8,50.5,101.7z M78.7,102.9c-0.1,0-0.3-0.1-0.4,0
		c-1.3,0.6-2.8,0.1-4.2,0.6c-1.7,0.6-3.4,0.9-5.2,1.3c-0.5,0.1-1.1,0.1-1.7,0.1c-1.3-0.1-2.5-0.3-3.8,0.1c-0.2,0.1-0.7,0.4-1-0.1
		c0-0.1-0.3-0.1-0.6-0.1c0.1,0.2,0.2,0.4,0.2,0.4c0.7,0.5,1.5,1,2.2,1.4c2,1.2,4,2.4,6,3.6c1.2,0.7,2.3,1.6,3.4,2.3
		c0.1-0.1,0.1-0.1,0.1-0.1c-1.3-1.2-2.8-2.3-3.7-3.8c1-1,2.1-1.6,3.4-2.2C75.5,105.6,77.4,104.7,78.7,102.9z M89.4,114.5
		c-1-1.2-2-2.3-2.9-3.5c-0.5-0.6-0.9-1.2-1.3-1.9c-0.4-0.6-0.8-1.3-1.2-2c-0.1-0.2-0.2-0.5-0.3-0.7c-0.4-0.7-0.8-1.3-1.3-2
		c-0.4-0.5-0.8-1-1.2-1.5c-0.1-0.1-0.3-0.1-0.6-0.2c0.1,0.2,0.2,0.4,0.2,0.5c0,1.5,0,3-0.1,4.6c0,0.5,0,0.9,0.7,0.7
		c-0.1,0.3-0.2,0.7-0.1,0.9c0.4,0.8,0.9,1.7,1.5,2.3c0.7,0.8,1.7,1.3,2.5,2c0.1,0.1,0.2,0.1,0.3,0.1c0.6,0.4,1.3,0.8,1.9,1.1
		c0.3,0.1,0.7,0.1,1.1,0.1C88.9,115,89.1,114.7,89.4,114.5z M87.3,109.9c1,2.3,3.3,2.5,4.9,3.6c-0.3,0.1-0.6,0.2-0.9,0.3
		c0.1,0.1,0.2,0.1,0.3,0.1c0.5,0,1-0.1,1.5-0.1c0.5,0.1,1,0.3,1.6,0.5c1.7,0.6,3.1,0,4.6-0.7c0.2-0.1,0.2-0.3,0.4-0.4
		c-0.3-0.1-0.6-0.3-0.7-0.2c-1.1,0.6-2.2,0.1-3.1-0.2c-1-0.4-2-1-2.9-1.7c-1.4-1-3-1.5-4.8-1.6C88,109.6,87.7,109.8,87.3,109.9z
		 M93.8,118.2c-0.1,0.1-0.2,0.2-0.3,0.3c0.4,0.6,0.7,1.3,1.2,1.8c0.7,0.7,1.6,1.3,2.3,2.1c1,1,2.2,1.4,3.6,1.1
		c0.4-0.1,0.7-0.1,1.1-0.1c0.8,0,1.6,0,2.5,0c-2.9-1.5-5.8-2.6-8.1-4.8c-0.2,0.3-0.4,0.5-0.5,0.7C94.9,118.8,94.4,118.5,93.8,118.2z
		 M63.5,108c0,0.1-0.1,0.2-0.1,0.2c1.2,0.9,2.5,1.7,3.7,2.6c0.4-0.4,0.4-0.7,0-1.1c-0.4-0.4-0.8-0.9-1.3-1.1
		C65,108.3,64.2,108.2,63.5,108z M65.2,101.4c0.1-0.1,0.2-0.2,0.3-0.2c-0.5-0.6-0.9-1.3-1.4-1.9C64,99.1,63.7,99,63.7,99
		c-0.2,0.1-0.3,0.3-0.4,0.5c0,0.1,0.2,0.3,0.3,0.4c0.2,0.2,0.4,0.4,0.7,0.5C64.6,100.8,64.9,101.1,65.2,101.4z M50.1,95.5
		c0.1-0.1,0.1-0.2,0.2-0.3c-1.2-0.4-2.5-0.6-2.3-2.3c-0.5,0.5-0.7,1.4-0.5,1.8c0.1,0.1,0.2,0.1,0.3,0.2c0.4,0.1,0.8,0.1,1.2,0.2
		C49.4,95.2,49.7,95.4,50.1,95.5z M53,103.4c0.9,0.2,0.7-0.9,1.3-1c0,0-0.1-0.3-0.1-0.5c-0.4,0.5-0.7,0.8-1.1,1.2
		c0.1,0,0.2,0.1,0.3,0.1C53.3,103.1,53.2,103.3,53,103.4z M79.9,104c-0.9,0.2-1.1,0.5-1,1.1C79.8,105.4,79.4,104.5,79.9,104z"/>
	<path d="M42.5,93.3c-0.3,0.1-0.6,0.2-0.9,0.3c-0.4,0.1-0.9,0.2-1.3,0.3c-1.7,0.4-3.2,0-4.6-0.8c-0.9-0.5-1.9-1-2.6-1.9
		c-0.1-0.1-0.2-0.2-0.3-0.2c-0.1,0.9,0.3,1.5,1,1.8c0.7,0.3,0.9,1,1.3,1.8c0.5,0,1.2,0,1.9,0c0,0.1,0,0.1,0,0.1
		c-0.5,0.2-1,0.4-1.5,0.6c0.1,0.2,0.1,0.3,0.2,0.6c-0.5-0.5-1-0.6-1.1,0c-1.2-0.6-2.3,0.3-3.4,0.3c-0.2,0.4-0.3,0.8-0.5,1.1
		c0.1,0.1,0.1,0.1,0.2,0.1c-0.3,0-0.5-0.1-0.8-0.1c0,0.1,0,0.2,0,0.4c-0.2-0.1-0.3-0.2-0.3-0.2c-0.1,0.3-0.1,0.6-0.2,0.9
		c0.4,0,0.7,0.1,1.2,0.1c-0.2,0.4-0.4,0.6-0.8,0.4c-0.3-0.2-0.6-0.1-1-0.2c-0.1,0.6-0.1,1.1-0.2,1.6c-0.3,0.7-1.4,0.7-1.6,1.7
		c0,0.2-0.1,0.4-0.2,0.6c-0.2,0.4-0.1,1-0.8,1c-0.2,0-0.3,0.6-0.5,0.9c-0.2,0.5-0.4,0.9-0.5,1.4c-0.1,0.2-0.1,0.5-0.1,0.8
		c-0.4,0-0.6,0.2-0.4,0.5c-0.3,0.2-0.5,0.4-0.7,0.5c0,0,0.1,0.2,0.2,0.4c0,0.1-0.1,0.3-0.2,0.5c-0.9-0.2-1.2,0.7-1.8,1.5
		c0.7,0,1.1,0,1.6,0c0-0.1-0.1-0.3-0.2-0.6c0.5,0.2,0.9,0.3,1.3,0.5c-0.3,0.1-0.7,0.3-1.1,0.4c-0.4,0.1-0.9,0.2-1.3,0
		c-0.3-0.1-0.8,0.1-1.2,0.3c0.2,0.1,0.4,0.1,0.6,0.2c-0.1,0.4-0.9-0.4-0.6,0.5c-0.3,0-0.7,0.1-1,0.1c0,0.1,0.1,0.2,0.1,0.3
		c-0.1,0-0.1,0.1-0.2,0.1c-0.8-0.4-1.2,0.3-1.8,0.6c-0.3,0.1-0.5,0.2-0.8,0.3c-1.3,0.4-2.6,0.9-4,1.3c0.4-0.6,0.9-1.1,1.3-1.6
		c0-0.1-0.1-0.2,0-0.4c0.1-0.3,0.2-0.6,0.3-0.8c0.6-0.9,0.2-1.8,0.3-2.7c0.1-0.9,0.2-1.9,0.5-2.8c0.5-2,1.1-3.9,1.7-5.8
		c0.1-0.3,0-0.7,0-1c0-1.3,0.1-2.6,0.1-3.9c0-0.3-0.2-0.5-0.2-0.8c-0.2,0.1-0.4,0.2-0.6,0.3c-0.2,0.1-0.5,0.2-0.8,0.2
		c0-0.2-0.1-0.4-0.1-0.7c-0.3,0.1-0.6,0.2-1.2,0.4c0.2-0.5,0.2-0.8,0.4-1c0.8-1,1.6-1.9,2.4-2.8c1.2-1.4,2.5-2.7,4-3.6
		c0.7-0.4,1.2-0.7,1.2-1.5c0-0.4,0-0.8,0-1.1c0-1-0.2-2.1-0.1-3c0.1-0.7,0.6-1.4,1-2c0.1-0.1,0.6,0,0.8,0.2c0.4,0.3,0.7,0.4,1,0.1
		c-0.1-0.6,0-1.3-0.2-1.8c-0.4-1.2-0.1-2.3,0.2-3.4c0.1-0.3,0.4-0.6,0.6-0.9c0.2-0.3,0.5-0.6,0.4-0.8c-0.2-0.4-0.4-1-1-1
		c-0.9,0.1-1.8,0.2-2.7,0.3c-0.2,0-0.5,0-0.7,0c-0.3,0-0.7,0.1-1,0.2c-0.3,0-0.6,0.1-0.9,0c-0.7-0.2-1.4-0.3-2.1,0
		c-0.2,0.1-0.5-0.1-0.7-0.1c-0.5,0-1-0.1-1.6-0.1c-0.3-0.6,0.1-1.5,1-1.6c1.1-0.1,2.3-0.1,3.4-0.2c0.3,0,0.6-0.1,0.6,0.4
		c0,0.1,0.2,0.2,0.3,0.3c0.1,0.1,0.3,0.1,0.3,0.1c0.2,0.3,0.3,0.9,0.9,0.6c0.7-0.2,1.3-0.6,1.9-0.9c0.3-0.1,0.6-0.3,1-0.5
		c-0.3-0.9-0.9-2-1.7-2.3c-0.1-0.5,0-1.1-0.2-1.2c-0.4-0.2-0.9-0.5-1.4-0.1s-0.9-0.1-1.4-0.2c-0.1,0-0.3-0.2-0.4-0.2
		c-0.9,0.2-1.4-0.6-2.2-0.8c-0.1,0-0.1-0.2-0.2-0.4c0.1-0.1,0.3-0.2,0.4-0.1c0.9,0.1,1.8,0.3,2.8,0.5c0.7,0.1,1.4,0,2.1,0
		c0-0.1,0-0.1,0-0.2c-1-0.6-1.9-1.2-2.9-1.8c0-0.1,0.1-0.2,0.1-0.3c0.6,0.1,1.1,0.1,1.7,0.2c0.5,0.1,1.1,0,1.4,0.7
		c0.1,0.2,0.8,0.1,1.4,0.2c-0.1-0.4-0.2-0.7-0.4-1.1c1.1,0.2,2.1,0.3,3,0.6c0.6,0.2,0.9,0,1.2-0.3c0.1-0.1,0.2-0.2,0.4-0.4
		c0,0.4-0.2,0.7,0,0.9c0.1,0.2,0.5,0.2,0.9,0.4c-0.1,0.3-0.1,0.7-0.2,1.1c-0.3,0-0.7,0-1,0c-0.1,0.7,0.2,0.9,0.9,0.9
		c1.5-0.1,2.9,0.3,4.3,0.6c-0.2,1.1-1,1.1-1.8,1.1c-0.5,0-0.9,0.2-1.4,0.2c-0.3,0-0.6,0.1-0.8,0c-0.9-0.5-1.8-0.1-2.7,0.1
		c-0.3,0.1-0.5-0.1-0.7-0.4c-0.5-0.8,0.1-1.3,0.4-1.9c0.1-0.1,0.1-0.2,0.2-0.4c-0.2-0.2-0.3-0.3-0.5-0.4c-0.2-0.1-0.4-0.2-0.6-0.2
		c-0.1,0.1-0.2,0.3-0.2,0.5c-0.1,0.6-0.2,1.2-0.3,1.8c0,0.3-0.1,0.6,0,0.9c0.2,0.9,0.5,1.8,0.8,2.7c0.1,0.4,0.4,0.7,0.7,1
		c0.6,0.4,0.7,1.1,0.1,1.6c-0.4,0.3-0.5,0.6-0.5,1.1c-0.2,1.6,0.6,3.1,0.8,4.7c0,0.1,0.1,0.3,0.2,0.3c1,0.6,1.6,1.6,2.3,2.5
		c0.8,1.1,1.8,2,2.7,3c0.5,0.5,1.1,0.2,1.4-0.4c0.4-0.7,0.8-1.4,1.3-2c0.5-0.6,1.1,0,1.6,0.1c0.7,0.2,1.2,0.6,2,1
		c0.5-1.6,1.8-1.8,3-2.2c0-0.1,0-0.2,0-0.2c-0.5-0.1-1-0.2-1.5-0.3c-0.6-0.1-1,0-1.4,0.5c-0.3,0.5-0.8,0.7-1.4,0.4
		c-0.4-0.2-0.8-0.3-1.3-0.4c-0.6-0.2-1.1-0.6-1.1-1.4c0.4,0.2,0.8,0.3,1.3,0.5c-0.1-0.3-0.1-0.5-0.1-0.6c-0.1-0.4,0-0.7,0.5-0.7
		c0.2,0,0.5,0,0.6,0.1c0.5,0.3,0.9,0.2,1.5-0.2c0.3-0.2,0.9-0.1,1.3,0c0.7,0.2,1.4,0.4,2,0.6c0.4,0.1,0.8,0.2,1.2,0.2
		c0.3,0,0.6,0.1,0.9,0.1c0,0.3-0.1,0.5-0.1,0.9c0.4,0.2,1.5,0.2,1.7-0.1c0.1-0.2,0.1-0.6,0-0.9c-0.2-0.7-0.5-1.5-0.8-2.2
		c0.1,0,0.1-0.1,0.2-0.1c-0.2,0-0.4,0-0.6,0c-0.1,0.3-0.2,0.6-0.3,1.1c-0.6-0.5-1.1-0.8-1.6-1.3c-0.6-0.5-0.8-0.5-1.2,0.1
		c-0.3,0.5-0.9,0.4-1.3,0.3c-0.8-0.3-1.6-0.7-2.4-1c0,0-0.1,0.1-0.1,0.1c-0.3,0.7-0.5,0.8-1.2,0.4c-0.3-0.2-0.6-0.4-0.9-0.6
		c-0.5-0.3-0.2-0.7-0.1-1c0.1-0.2,0.4-0.3,0.7-0.3c0.2,0,0.5,0.1,0.7,0.2c0.9,0.6,1.7,0.3,2.5-0.1c0.4-0.2,0.8-0.3,1.2-0.5
		c0.1,0,0.3,0,0.5,0c0.8,0.2,1.6,0.3,2.4,0.5c0.6,0.2,0.7-0.1,0.6-0.6c0-0.6,0.2-0.7,0.7-0.6c0.4,0.1,0.9,0.5,1.2-0.1
		c0-0.1,0.5,0.1,0.8,0.1c0.3,0,0.6,0.1,0.9,0.1c0.2,0,0.5,0,0.7,0c0.7,0,1.5,0.1,2.1-0.1c1.3-0.3,2.5,0.3,3.7,0.5c0,0,0,0.1,0.1,0.2
		c-0.2,0-0.4,0-0.6,0.1c-0.2,0.1-0.4,0.2-0.5,0.4c-0.2,0.3-0.2,0.7-0.7,0.4c-0.2-0.1-0.6,0-0.8,0.1c-0.1,0.1-0.1,0.5-0.1,0.6
		c0.1,0.1,0.4,0.1,0.6,0.2c0.8,0.2,1.6,0.3,2.5,0.5c0.3,0.1,0.7-0.1,1,0c0.3,0,0.5,0.1,0.8,0.2c-0.1,0.2-0.1,0.4-0.2,0.6
		c-0.3,0.9-0.9,0.6-1.5,0.5c-1.1-0.2-2.1-0.7-3.2-0.3c-0.6,0.2-1.2,0.4-1.8,0.5c-0.8,0.2-2-0.2-2.3-1.4c-0.5,0.3-1,0.4-1.3,0.8
		c-0.4,0.4-0.2,0.9,0.2,1.4c0.3,0.3,0.4,0.7,0.6,1.2c1,0.3,2,0.7,3,0.9c1,0.1,2.1-0.1,3.2-0.2c-0.2,1.5,1,1.1,1.6,1.5
		c0.3,0.2,0.6,0.4,0.5,0.9c-0.2,0.4-0.4,0.6-0.9,0.5c-0.1,0-0.2,0-0.2-0.1c-0.5-0.6-1-0.5-1.7-0.3c-0.6,0.1-1.2,0.2-1.7,0.4
		c-0.2,0.1-0.4,0.3-0.5,0.6C50,86,49.7,86.3,49,86.3c-1.2,0-2.4,0-3.5-0.9c0.2-0.5,0.3-0.9,0.5-1.5c-0.3,0-0.5-0.1-0.6,0
		c-1,0.8-2,0.2-3,0c-0.2-0.1-0.4-0.3-0.6-0.3c-0.5-0.2-1-0.6-1.5-0.5c-0.6,0.1-1,0.8-1,1.6c-1.1-0.1-2.2-0.2-3.2-0.3
		c-0.7,1.1-1.4,2-2.7,2.3c-0.1,0-0.1,0.1-0.2,0.1c-0.4,0.3-0.8,0.6-1.2,0.9c0.3,0.2,0.7,0.5,1,0.7c1,0.5,2,0.8,3,1.4
		c1.4,0.8,2.7,1.7,4,2.6c0.6,0.4,1.1,1,1.9,0.7C42.2,93,42.4,93.3,42.5,93.3C42.4,93.3,42.5,93.3,42.5,93.3z M26,96.1
		c-0.7,1.4-0.7,1.4-1.9,1.3c-0.1-0.4-0.2-0.8-0.2-1.1c0-1.1,0.1-2.2,0.1-3.2c0-1.5-0.1-3.1-0.1-4.7c0-0.2-0.1-0.5-0.2-0.5
		c-0.1-0.1-0.4,0.1-0.5,0.2c-0.6,0.6-1.2,1.2-0.9,2.2c-0.1,0-0.2-0.1-0.3-0.1c0-0.2,0-0.3,0.1-0.5c-1.1-0.2-2,0.6-1.9,1.7
		c-0.4,0.3-1,0.6-0.9,0.7c0.2,0.5-0.6,1.1,0.3,1.4c-0.4,0.6-0.2,1.2,0.4,1.4c0.5,0.2,0.8,0.4,1,0.9c0.1,0.2,0.4,0.3,0.7,0.5
		c0.1-0.1,0.1-0.1,0.2-0.2c-0.2-0.2-0.5-0.5-0.4-0.6c0.2-0.7,0-1.4,0-2c0-0.8,0.2-1.6,0.3-2.5c0.8,0.3,0.5,0.9,0.6,1.2
		c0.2,1.5,0.3,3.1,0.6,4.6c0.4,1.8,0.7,3.6,0.7,5.5c0,0.2,0,0.4,0.1,0.6c0.2,0.6,0,1-0.3,1.6c-0.5,0.9-0.8,1.8-1.2,2.9
		c0.5-0.2,0.8-0.3,1.1-0.4c0,0.4,0,0.6,0,0.9c1.4-0.6,1.7-1.9,1.9-3.1c0.3-1.5,0.5-3,1.3-4.3c0.6-1,1.3-2,1.9-2.9
		c-0.3-0.4-0.5-0.6-0.7-0.8c-0.3,0.3-0.5,0.5-0.7,0.8C26.5,96.9,26.2,96.5,26,96.1z M30.6,95.7c0.1-0.1,0.2-0.1,0.2-0.2
		c0-0.1,0-0.2,0-0.3c-0.1-1.5-1.2-2.7-0.9-4.3c0,0,0,0,0-0.1c-0.5-0.7-0.9-1.4-1.4-2.1c-0.3-0.6-0.7-1.2-0.8-1.8
		c-0.1-0.7-0.3-1-1.2-1c0.1,0.6,0.2,1.1,0.2,1.7c-0.1,0.9,0.2,1.7,0.7,2.5c0.8,1.4,1.6,2.8,2.4,4.3C30,94.8,30.3,95.3,30.6,95.7z
		 M30.1,84.3c0-0.1,0.1-0.1,0.1-0.1c-1.1-1.1-2.1-2.2-3.2-3.4c-0.1,0-0.3,0-0.6,0C27,82.6,28.4,83.6,30.1,84.3z M44.9,83.6
		c0-0.3,0-0.7,0-1c-0.1-0.6-0.3-0.6-0.8-0.4c-0.3,0.1-0.8,0.1-1.2,0.1c-0.4,0-0.8-0.1-1.3-0.2C42.5,83.5,43.6,83.9,44.9,83.6z
		 M23.5,65.6c0.1,0.6,0.2,1,0.3,1.4c0.2,0.5,0.9,0.6,1,0.3c0.1-0.5,0-1-0.2-1.5C24.5,65.6,23.9,65.6,23.5,65.6z M26.1,84.8
		c-0.3-1.1-0.5-2.2-0.8-3.3c-0.1,0-0.1,0-0.1,0c0.1,1.1,0.2,2.2,0.2,3.4C25.7,84.9,25.9,84.8,26.1,84.8z M26.6,102
		c0.6-1.1,1.1-2,1.6-2.9c-0.1,0-0.1-0.1-0.2-0.1C27.2,99.5,26.4,100.9,26.6,102z M19.9,101.9c-0.1,0-0.2,0-0.3,0
		c-0.2,0.9-0.3,1.8-0.5,2.8c0.1,0,0.1,0,0.2,0C19.9,103.8,20.2,102.9,19.9,101.9z M47.7,82.1c-0.7-0.5-1.5-0.4-1.8,0
		C46.8,82.5,46.8,82.5,47.7,82.1z M47.9,76.5c-0.2-0.1-0.3-0.3-0.5-0.3c-0.2,0-0.5,0-0.7,0c-0.1,0-0.1,0.3-0.1,0.5
		c0.2,0,0.4,0,0.6,0C47.4,76.7,47.6,76.6,47.9,76.5z"/>
	<path d="M201.8,51.2c-0.1,0.4-0.1,0.6-0.7,0.8c-1.1,0.4-2.3,0-3.3,0.5c-0.6,0.3-1.2,0.9-1.7,1.3c-1.2,1-2,2.4-2.7,3.8
		c-1,1.9-2.6,2.2-4.6,1.9c-0.8-0.1-1.7-0.4-2.5-0.6c1.4,0,2.7,0,4.1,0c1,0,1.7-0.5,2-1.5c0.1-0.2,0.2-0.5,0.4-0.8
		c-1.3,0.3-2.5,0.8-3.8,1c-1.2,0.2-2.3,1.1-3.8,0.4c0.2,0.4,0.2,0.5,0.3,0.7c-0.6,0.2-1.3,0.3-1.9,0.6c-0.7,0.4-1.4,1-1.9,1.7
		c-1,1.2-1.8,2.6-2.7,3.9c-1.1,1.6-2.8,2.4-4.3,3.4c-0.4,0.3-0.9,0.6-1.3,0.9c-0.2,0.1-0.5,0.2-0.8,0.3c-0.1-0.1-0.1-0.1-0.2-0.2
		c0.4-0.4,0.7-0.8,1.1-1.1c1.5-1.1,3-2.2,4.4-3.4c0.5-0.5,0.9-1.2,1.3-1.7c0.9-1.1,1.9-2.3,2.8-3.4c0.3-0.4,0.8-0.7,1.4-1.1
		c-0.3-0.1-0.5-0.1-0.6-0.1c-1.6-0.1-3.1-0.3-4.7-0.4c-0.2,0-0.5,0.2-0.7,0.3c-0.3,0.3-0.6,0.6-1,1.1c0.5,0.4,1.1,0.8,1.6,1.3
		c0.1,0.1,0.3,0.3,0.2,0.5c0,0.1-0.2,0.3-0.3,0.4c-0.5,0-1.1,0-1.7,0c0,0.3,0,0.5,0,0.8c0,0.3,0.1,0.8-0.4,0.7
		c-0.3,0-0.5-0.4-0.7-0.6c-0.2-0.3-0.4-0.6-0.7-0.8c-0.6-0.3-0.9-0.1-1,0.5c-0.1,0.4-0.3,0.7-0.4,1.1c-0.7-0.2-0.8-0.6-0.7-1
		c0-0.4,0-0.7-0.4-0.9c-0.5-0.3-0.4-0.6,0.1-1c0.4-0.3,0.5-0.4,0-1c-0.4,0.4-0.7,0.8-1.1,1.2c-0.2,0.2-0.5,0.3-0.8,0.3
		c-0.5-0.1-0.9-0.3-1.4-0.4c-0.2-0.1-0.6,0-0.8,0.1c-0.2,0.1-0.3,0.4-0.5,0.7c0.2,0.1,0.5,0.3,0.7,0.3c0.7-0.3,1,0.3,1.4,0.7
		c0.3,0.3,0.6,0.5,0.9,0.8c0.2,0.1,0.4,0.2,0.5,0.4c0.2,0.3,0.1,0.6-0.3,0.5c-0.3-0.1-0.7-0.2-1-0.3c-0.2-0.1-0.4-0.1-0.7-0.2
		c0.3,0.8,0.1,1.2-0.9,1.7c-0.1-0.2-0.2-0.4-0.3-0.7c0.2-0.2,0.5-0.3,0.7-0.6c0.1-0.1,0.1-0.2,0.2-0.4c-0.1-0.1-0.3-0.2-0.4-0.2
		c-0.4,0.2-0.5,0-0.8-0.3c-0.2-0.3-0.6-0.4-0.9-0.6c-0.4-0.2-0.7-0.5-1.1-0.7c0.3-0.3,0.5-0.4,0.7-0.6c-0.1-0.1-0.2-0.2-0.2-0.2
		c-0.8,0.3-1.5,0.7-2.3,1.1c-0.7,0.4-1.5,0.8-2.3,1.1c-1.3,0.5-2.7,1-4,1.5c-0.1,0-0.3,0-0.5,0c0.5-0.2,0.9-0.4,1.4-0.5
		c-0.1,0-0.1-0.1-0.2-0.1c0.1-0.4,0.2-0.9,0.3-1.3c0.4,0.3,0.8,0.6,1.3,0.9c1.5-0.8,3.3-1.8,5-2.7c0-0.1,0-0.2,0-0.2
		c-0.5-0.1-0.9-0.3-1.4-0.4c0-0.1,0-0.1,0-0.2c0.9-0.2,1.7-0.3,2.6-0.5c0.4-0.1,1-0.2,1.2-0.5c0.5-0.6,0.2-1.8-0.2-2.3
		c-0.3-0.4-0.6-0.8-0.9-1.3c0.1-0.1,0.1-0.1,0.2-0.2c0.2,0.1,0.5,0.1,0.7,0.2c0.7,0.6,1.4,0.3,2.2,0.2c0.2,0,0.5,0.1,0.8,0.1
		c0.3,0.1,0.6,0.2,0.9,0.3c0-0.1,0.1-0.1,0.1-0.2c-0.1-0.2-0.1-0.4-0.2-0.6c-0.3-0.7-0.1-1.1,0.7-1.2c0.8-0.1,1.7,0.6,1.7,1.4
		c0,0.1,0,0.2,0,0.1c0.8,0.3,1.5,0.6,2.2,0.9c0.2,0.1,0.2,0.3,0.4,0.4c0.1,0.1,0.2,0.3,0.3,0.4c0.2-0.2,0.5-0.3,0.5-0.5
		c0-0.5,0.1-1.1-0.1-1.5c-0.4-1.2,0-1.9,1.3-2.3c0.6-0.2,0.8,0.1,1,0.7c0.2,0.8,0.2,1.6-0.2,2.4c-0.1,0.3-0.2,0.6-0.4,0.8
		c-0.3,0.6-0.2,0.9,0.4,0.9c0.9,0.1,1.9,0.1,2.8,0.1c0.4,0,0.7,0,1.1,0c0-0.1,0-0.2,0-0.3c-1-0.3-2.1-0.7-3.1-1c0,0,0,0,0,0
		c1,0.1,2,0.3,3.1,0.4c0.1-0.3,0.1-0.6,0.2-0.9c-0.5,0.1-0.9,0.2-1.3,0.3c-0.1,0-0.3-0.1-0.4-0.1c0.1-0.1,0.1-0.3,0.2-0.3
		c0.4-0.3,0.8-0.6,1.2-0.7c0.2,0,0.6,0.4,0.8,0.6c0.1,0.1,0,0.5-0.1,0.6c-0.4,0.3-0.4,0.4-0.1,0.6c0.3,0.2,0.7,0.4,1.1,0.4
		c0.8,0.1,1.6,0.1,2.4,0c1.8-0.1,3.5-0.3,5.2-0.9c0.3-0.1,0.7-0.2,1-0.3c1.1-0.3,1.6-1.3,2.3-2c0.5-0.5,1.1-1,1.6-1.5
		c0.1-0.1,0.2-0.1,0.3-0.2c0.6-1.1,1.7-0.8,2.5-1c0.6-0.1,1.2,0.1,1.8,0.1C201.2,51.5,201.5,51.3,201.8,51.2z M172.4,56.7
		c-0.3,0.1-0.7,0.2-1.1,0.3c-0.1,0-0.4,0-0.4,0.1c-0.3,0.7-0.7,0.5-1.3,0.4c-0.5-0.1-0.8,0.2-0.5,0.7c0.2,0.4,0.5,0.7,1,0.5
		c0.5-0.2,1.1-0.3,1.6-0.5c0.5-0.2,0.9-0.2,1.3,0.2c0.4,0.3,0.8,0.4,1.1,0.1C173.6,57.8,173,57.3,172.4,56.7z"/>
	<path d="M131.4,20.6c1.1-0.7,1.6-0.4,1.8,0.5c0.1,0.2,0.2,0.4,0.4,0.5c1.2,0.4,2.3,0.7,3.5,1c0.7,0.2,0.8-0.1,0.6-0.8
		c-0.2-0.7-0.6-1.3-0.7-1.9c-0.2-0.9-0.2-1.8-0.2-2.7c0.1,0,0.2-0.1,0.3-0.1c0.1,0.3,0.4,0.7,0.3,1c-0.1,1.3,0.2,2.5,0.9,3.6
		c0.2,0.3,0.2,0.9,0.2,1.4c0.1-0.1,0.2-0.2,0.4-0.3c0.6,1.1,1.1-0.2,1.9-0.1c-0.1,0.6,0,1.3-0.3,1.8c-0.4,0.6-1.1,0.3-1.7,0
		c0,0.1,0,0.2-0.1,0.3c0.2,0.1,0.3,0.3,0.5,0.4c1.6,0.5,2.9,1.4,4,2.7c0.1,0.1,0.1,0.4,0.2,0.6c-0.2-0.1-0.4-0.1-0.6-0.2
		c-0.8-0.6-1.5-1.3-2.3-1.9c-0.2-0.1-0.5-0.2-0.6-0.3c-0.1,0.5-0.3,1-0.4,1.4c-0.8,0-1.6,0-2.3,0c-0.2,0.5-0.4,1-0.5,1.4
		c-1,0-2-0.1-2.9-0.1c-0.2,0-0.4-0.1-0.6-0.2c0.1-0.1,0.2-0.3,0.3-0.5c-0.2-0.1-0.3-0.1-0.5-0.2c0.3-1.1,0.7-2.2,1.1-3.3
		c0.1,0,0.2,0.1,0.3,0.1c0,0.2-0.1,0.5-0.1,0.8c0.6-0.1,1.2-0.2,1.7-0.3c0.2,0.4,0.3,0.7,0.5,1.1c0.3,0,0.5,0,0.8,0
		c0.2-0.6,0.3-1.1,0.5-1.7c-0.3-0.3-1.2-0.5-0.7-1.4c-1.1-0.4-2.2-0.8-3.3-1.2c-0.5-0.2-1.1,0.2-1.1,0.8c0,0.2-0.1,0.5-0.2,0.7
		c0,0.2-0.1,0.4-0.1,0.5c0.6,0.9,0.1,1.8-0.3,2.7c0.2,0,0.4,0,0.5-0.1c0,0,0.1,0.1,0.1,0.1c-0.2,0.2-0.4,0.4-0.6,0.5
		c-0.5,0.2-0.9,0.4-0.9,1.1c0,0.4-0.4,0.6-0.8,0.5c-0.3-0.1-0.6-0.4-0.9-0.6c0.6-0.8,1.9-0.2,2.1-1.4c-0.9-0.2-2.7,0.3-3.4,1
		c-0.3,0.3-0.7,0.4-1.1,0.5c0.1-1.3,1.2-1.2,2.2-1.6c-0.3-0.3-0.5-0.7-0.8-0.7c-0.2,0-0.5,0.4-0.9,0.8c0.2-0.8,0.3-1.5,0.4-2.1
		c0.1-0.5,0.1-0.9,0.1-1.4c0-0.2-0.3-0.3-0.4-0.5c-0.1,0-0.2,0-0.3,0c0,0.4-0.1,0.8-0.1,1.1c0.1,0.7,0,1.2-0.6,1.5
		c-0.5,0.3-1,0.6-1.5,0.9c-0.2,0.1-0.3,0.4-0.3,0.6c0.2,0.4,0,0.5-0.4,0.6c-0.3,0-0.6,0.1-0.8,0.2c-0.4,0.1-0.6,0.1-0.8-0.3
		c-0.1-0.2-0.4-0.3-0.6-0.5c-0.2-0.1-0.5-0.2-0.7-0.3c-0.7-0.5-0.6-1.1,0.1-1.5c0.3-0.2,0.6-0.2,0.4-0.7c-0.1-0.2,0.2-0.6,0.3-1
		c-0.2,0.1-0.4,0.2-0.5,0.4c-0.5,0.5-1,0.5-1.5,0c-0.1-0.2-0.3-0.3-0.4-0.5c-0.2-0.3-0.4-0.6-0.3-0.8c0.2-0.4,0.6-0.9,0.8-0.9
		c0.5,0.2,0.9,0.6,1.3,1c0.1,0.1,0.1,0.4,0.2,0.7c0.8-0.4,1.6-0.7,2.5-0.2c0.1,0.1,0.4-0.2,0.5-0.3c0.1-0.1,0-0.4-0.1-0.5
		c-0.1-0.1-0.3-0.1-0.5-0.1c-0.5,0-1.1,0.2-1.6,0.1c-0.5-0.1-0.9-0.5-1.2-0.9c-0.4-0.6,0-1.1,0.7-1.2c0.3,0,0.6-0.3,0.8-0.5
		c1.2-1.1,1.6-1,2,0.5c0.2,0.6,0.4,0.7,0.9,0.5c0.2-0.1,0.6-0.2,0.8-0.1c0.8,0.3,1-0.1,1.2-0.7c0.3-0.8,0.9-1.3,1.7-1.3
		c0.9,0,1.6,0.6,1.6,1.5C131.3,20,131.3,20.3,131.4,20.6z M130.3,22.3c0-0.1,0-0.2,0-0.3c-0.3-0.1-0.6-0.1-0.8-0.2
		c0,0.2,0,0.3-0.1,0.5C129.8,22.3,130.1,22.3,130.3,22.3z"/>
	<path d="M82.8,118.3c-1.4,0.6-2.7,1.3-4,1.9c-1.1,0.5-2.2,0.9-3.3,1.4c-0.2,0.1-0.4,0.2-0.7,0.2c-0.7,0.1-1.5,0.1-2.2,0.1
		c-0.3,0-0.5-0.3-0.7-0.5c-0.3-0.2-0.6-0.6-0.9-0.7c-0.4-0.2-0.8-0.1-0.9,0.6c-0.2-0.1-0.4-0.2-0.5-0.3c-0.1-0.1-0.2-0.1-0.3-0.2
		c-0.1,0-0.2,0-0.3,0.1c-0.5,0.3-0.9,0.6-1.6,1c-0.6-0.6-1.3-1.3-2-2c-0.2-0.2-0.5-0.4-0.9-0.5c-0.6-0.2-1.1-0.8-1.6-1.3
		c-0.4-0.4-0.7-1-1.2-1.3c-0.1-0.1-0.1-0.4-0.1-0.6c1.7,0.2,1.1-1.2,1.5-1.9c0,0-0.1-0.1-0.1-0.1c-0.8-1.1-2.1-1.9-2.6-3.3
		c-0.4-1.1-1.2-1.6-2.3-2.2c-0.3,1.9,0.1,3.5,0.8,5.1c-0.1-0.1-0.3-0.1-0.3-0.2c-0.5-1.5-1.1-3-1-4.6c0-0.7-0.1-1.3-0.6-1.8
		c-0.3-0.3-0.5-0.9-0.6-1.4c-0.2-0.7-0.4-1.5-0.5-2.3c1.3,2.5,3.1,4.4,5,6.5c0.1-0.4,0.2-0.8,0.3-1.2c0.1,0,0.1,0,0.2-0.1
		c0.5,0.9,1,1.8,1.5,2.6c0.7,1,1.4,2,2.1,3c0.1,0.1,0.2,0.2,0.3,0.2c0.9-0.5,1.1,0.4,1.4,0.8c0.5,0.6,1,1,1.7,1.2
		c1.5,0.3,3,0.7,4.4,1.1c1.1,0.3,2,1,3.1,1.3c0.6,0.2,1.2,0.1,1.8,0.1c0.8-0.1,1.7-0.1,2.5-0.3c0.8-0.1,1.7-0.3,2.5-0.4
		C82.7,118.2,82.7,118.2,82.8,118.3z"/>
	<path d="M134.3,64c0.1-0.7,0.1-1.3,0.2-2.2c-0.7,0.5-1.4,0.8-1.9,1.2c-0.9,0.7-1.6,1.5-2.5,2.1c-0.7,0.5-0.9,0.9-0.5,1.6
		c-1.3,0.9-2,0.7-2.2-0.9c-0.5,0.1-1,0.2-1.4,0.2c-0.2,0-0.6,0-0.7-0.1c-0.3-0.6-0.9-0.7-1.4-0.9c-0.6-0.2-1.1-0.7-1.8-1
		c0.6-0.6,1-0.8,1.6-0.5c0.5,0.3,0.8,0.1,0.7-0.6c-0.7,0.1-0.9-0.3-0.8-0.9c0-0.1,0-0.3-0.1-0.4c-0.6-0.4-0.5-0.9-0.2-1.3
		c0.3-0.4,0.8-0.1,1.2,0.2c0.1,0.1,0.1,0.1,0.2,0.1c0.5-0.4,0.5-0.9,0.1-1.6c-0.2-0.4-0.3-0.8-0.5-1.4c0.9,0.1,1.5,0.2,2.1,0.4
		c0-0.1,0.1-0.1,0.1-0.2c0.2,0.3,0.4,0.5,0.6,0.8c0.4,0.6,0.8,0.6,1.2,0.1c0.1-0.1,0.1-0.2,0.2-0.2c0.2-0.2,0.5-0.3,0.7-0.5
		c0.2,0.4,0.6,0.8,0.6,1.2c0,0.4-0.1,0.7,0.3,1c0.1,0.1,0,0.5,0,0.7c-0.1,0-0.1,0-0.2,0c0.1,0.2,0.1,0.3,0.2,0.5
		c0.1,0.2,0.2,0.3,0.3,0.5c-0.6,0.3-0.8,1.1-1.7,0.8c-0.4-0.1-0.7,0.7-0.7,1.5c0.3-0.4,0.6-0.7,1-1.1c0.4,0.2,0.7,0.4,1.2,0.7
		c0.7-0.5,1.4-1.1,2.1-1.7c0.9-0.8,1.8-1.6,2.7-2.3c0.5-0.4,1.1-0.6,1.7-0.8c0.1-0.1,0.3,0,0.4,0c-0.1,0.1-0.1,0.3-0.3,0.4
		c-0.1,0.1-0.2,0.1-0.3,0.1c-1.1,0.4-1.2,1.4-1.4,2.3c-0.1,0.6-0.4,1.2-0.6,1.8C134.5,64,134.4,64,134.3,64z"/>
	<path d="M160.2,57.6c0.8-1,0.7-1.6-0.3-1.8c0-0.2-0.1-0.4,0-0.5c0.1-0.2,0.3-0.5,0.5-0.6c0.2-0.1,0.5,0,0.7,0.2
		c0.3,0.4,0.6,0.7,1.1,0.6c0.4,0,0.9,0.8,0.7,1.2c-0.3,0.6-0.8,1.2-1,1.9c-0.5,1.1-1.2,1.5-2.4,1.3c-0.4-0.1-0.8,0.2-1.3,0.3
		c-0.2-0.3-0.4-0.7-0.7-1c-0.2-0.2-0.5-0.3-0.7-0.3c-0.5,0-1.1,0.2-1.6,0.2c-0.4,0-0.9-0.2-1.1-0.5c-0.1-0.1,0.2-0.7,0.3-1.1
		c-0.2-0.3-0.3-0.8-0.6-1.2c-0.5-0.8-1.4-0.8-2.2-1c-0.3-0.1-0.6-0.2-0.9-0.3c0-0.1,0-0.2,0-0.3c0.2,0,0.5,0,0.7,0
		c0.1,0,0.3,0,0.4,0c0.5-0.5,1.1-0.3,1.6-0.1c1,0.5,2,0.1,3,0.1c0.5,0,1.1-0.2,1.2,0.7c0,0.1,0.3,0.2,0.4,0.3c0.5,0.4,1,0.9,1.5,1.3
		C159.8,57.3,160,57.5,160.2,57.6z"/>
	<path d="M92.1,43.3c-1.3,1.5-2.5,2.8-3.7,4.2c-0.1,0.1-0.2,0.2-0.2,0.3c-0.7,1.9-1.4,3.9-2.1,5.8c-0.3,0.7-0.6,1.3-1.4,1.7
		c0.6-1.4,1.1-2.6,1.7-4.1c-1.2,0.1-1.9,0.5-2.7,1c-0.1,0,0,0.3,0,0.5c0,0.3,0,0.6,0,0.8c-1.1,0-2.1,0-3.1,0c0,0-0.1-0.1-0.1-0.1
		c0.2-0.1,0.4-0.2,0.6-0.3c0,0-0.1-0.1-0.1-0.1c-0.5,0-1.1,0-1.7,0c0.2,0.6,0.7,0.9,0.3,1.5c-0.3,0.3-0.5,0.4-0.8,0.1
		c-0.2-0.1-0.5-0.3-0.6-0.5c-0.5-0.6-1-0.5-1.6-0.2c-1.6,0.6-3.2,1.2-4.8,1.8c-0.1,0-0.1,0-0.4,0c0.9-0.5,1.7-1,2.6-1.4
		c1.3-0.6,2.5-1.2,3.8-1.7c0.7-0.3,1.5-0.5,2.3-0.7c0.3-0.1,0.7,0.1,1,0.1c1.3,0,2.6-0.1,3.8-0.8c1-0.6,1.7-1.2,2.2-2.3
		c0.6-1.3,1.8-2.2,2.7-3.3c0.4-0.4,0.6-1,1-1.4C90.9,43.8,91.2,43.1,92.1,43.3z"/>
	<path d="M86.4,38.2c-0.5-0.4-1-0.7-1.5-1.1c0.9,0.5,1.6,0,2.3-0.5c0.3-0.2,0.7-0.1,1,0.2c0.2,0.3,0.5,0.5,0.8,0.7
		c1-0.5,2-0.6,2.9,0.1c0.2,0.1,0.3,0.4,0.2,0.6c0,0.3-0.2,0.6-0.3,1c-0.3,0-0.7,0.1-1,0c-0.6-0.2-1.1,0.2-1.6,0.4
		c-0.8,0.3-1.5,0.7-2.3,1c-0.1,0.1-0.3,0.1-0.4,0c-0.7-0.9-1.8-0.6-2.7-1c-0.3-1.1,0.1-1.4,1.2-1.2c0.3,0.1,0.6,0.1,0.9,0.1
		C86.2,38.4,86.3,38.3,86.4,38.2z"/>
	<path d="M131.7,68.7c0.8-1,2.2-1.5,2.6-2.9c0.7,0,1,0.2,0.9,0.7c-0.1,0.4-0.5,0.8-0.8,1.2c1,0.2,1.2,1.1,1.7,1.8
		c0.1,0.2,0.1,0.7,0,0.8c-0.2,0.2-0.6,0.1-0.9,0.2c-0.4,0-0.7-0.1-1.1-0.1c-0.1,0-0.3,0.3-0.3,0.4c0.1,0.6-0.2,0.8-0.8,0.9
		c-1,0.2-1.1,0.2-1.6-0.6c-0.1-0.1,0-0.5,0.1-0.6C132.1,69.9,132.2,69.5,131.7,68.7z"/>
	<path d="M123.8,75c-0.5-0.3-0.9-0.7-1.4-1c-0.6-0.3-1.3-0.4-1.9-0.5c0.1-0.7-0.3-1.4,0.6-1.9c0.4,0.2,0.9,0.4,1.4,0.6
		c0.2,0.1,0.5,0,0.7-0.1c0.4-0.3,0.9-0.6,1.2-1.1c0.4-0.7,0.9-0.3,1.3-0.1c0.3,0.2,0.6,0.6,0.6,1c0,1-0.7,1.7-1.7,1.9
		c0,0.2,0.1,0.4,0.1,0.7C124.3,74.7,124.1,74.8,123.8,75z"/>
	<path d="M23.3,60.3c0-0.1,0.1-0.3,0.1-0.6c0.4,0.6,0.4,1.5,1.3,1.5c0-0.2,0-0.4,0-0.7c0.4,0.5,0.7,0.5,1.1,0.2
		c0.2-0.2,0.6-0.2,0.9-0.2c0.3,0,0.7,0,1.1,0c0,0.4,0,0.8-0.1,1.2c0,0.1-0.3,0.3-0.5,0.3c-0.4,0-0.9,0-1.3,0c-0.2,0-0.5,0.1-0.7,0.2
		c0,0.1,0,0.2,0,0.3c-0.7-0.1-1.5,0-2.2-0.2c-0.4-0.1-0.8-0.5-1-0.9c-0.5-0.8-0.9-0.9-1.6-0.3c-0.2,0.1-0.3,0.3-0.5,0.4
		c-0.2,0.1-0.3,0.2-0.6,0.3c-0.6-0.3-0.6-0.8-0.2-1.2c0,0.1,0.1,0.1,0.1,0.2c0.5-0.1,1-0.3,1.5-0.3C21.7,60.5,22.5,60.4,23.3,60.3z"
		/>
	<path d="M223.9,33c0,1.4,0,2.9,0,4.2c-0.5,0.1-0.9,0.2-1.2,0.4c-0.7,0.4-2.4,0.1-2.7-0.6c-0.4-0.6-0.2-1,0.6-1c0.3,0,0.6,0,0.8,0.1
		c0.3,0.1,0.5,0.2,0.8,0.2c0.1-0.1,0.1-0.1,0.2-0.2c-0.2-0.2-0.3-0.5-0.5-0.5c-0.5-0.2-0.8-0.5-0.6-1.1c0.7-0.1,1.2,0.1,1.4,0.9
		c0.7-0.2,0.9-0.5,0.9-1.3C223.4,33.6,223.2,33.1,223.9,33z"/>
	<path d="M219.8,39c0.2,0.1,0.6,0.2,0.7,0.4c0.4,0.9,1.1,0.7,1.8,0.6c-0.3-1.4-0.3-1.4,0.9-1.4c0-0.2,0.1-0.4,0.1-0.8
		c0.2,0.1,0.5,0.2,0.5,0.3c0,0.9,0,1.9,0,2.8c-0.1,0-0.1,0-0.2,0c0-0.3-0.1-0.5-0.1-0.8c-0.3-0.1-0.7-0.2-1-0.3
		c0.7,0.9,0.3,1.6-0.4,2.3c0.2,0.1,0.4,0.2,0.4,0.3c0.2,0.2,0.3,0.5,0.4,0.8c0,0-0.3,0.2-0.4,0.2c-0.3-0.1-0.6-0.2-0.8-0.5
		c-0.2-0.2-0.3-0.6-0.4-0.9c-0.3-1-1.3-1.3-1.7-2.2c-0.1-0.2-0.1-0.5-0.2-0.7C219.7,39.1,219.7,39.1,219.8,39z"/>
	<path d="M80.7,62.3c0.3-0.7,1.1-1.2,0.5-2c-0.1-0.1,0.2-0.5,0.4-0.8c0.6,0.6,1.3,1.2,1.9,1.8c0.1,0,0.1-0.1,0.2-0.1
		c0-0.2,0.1-0.4,0.1-0.6c0,0,0.1,0,0.1,0c0.2,0.1,0.5,0.2,0.7,0.4c0.2,0.1,0.3,0.4,0.4,0.6c-0.2,0.1-0.4,0.2-0.7,0.3
		c-0.2,0.5-0.3,1.2-0.6,1.7c-0.2,0.3-0.9,0.3-1.3,0.4c-0.1-0.1-0.1-0.2-0.1-0.2c0.4-1.1,0.4-1.1-0.7-1.2
		C81.2,62.4,81,62.3,80.7,62.3z"/>
	<path d="M20.7,55.5c0-1,0.4-1.2,1.3-0.7c0.9,0.5,0.9,0.5,1,1c0.4,0,0.8,0.1,1.2,0c1-0.2,1-0.2,1,0.9c-0.6,0.2-1.3,0.4-1.8,0.6
		c-0.3-0.3-0.7-0.7-1.1-1c-0.1,0.1-0.1,0.1-0.2,0.2c0.1,0.2,0.2,0.5,0.3,0.8c-0.2-0.2-0.4-0.3-0.5-0.5c-0.3-0.3-0.5-0.5-1-0.3
		c-0.2,0.1-0.4,0.2-0.6,0.1c-0.2-0.1-0.4-0.3-0.6-0.5c0.2-0.2,0.4-0.3,0.6-0.5C20.4,55.6,20.5,55.6,20.7,55.5z"/>
	<path d="M118.3,53.6c-0.8-0.5-1.5-1-2.3-1.6c-0.2-0.1-0.3-0.5-0.2-0.8c0.1-0.2,0.4-0.5,0.6-0.5c1.1,0.1,2.2,0.3,2.9,1.2
		c0.5,0.5,0.4,0.8-0.2,1.1C118.8,53.2,118.6,53.4,118.3,53.6z"/>
	<path d="M119.1,81.6c0.3-0.5,0.5-1,0.8-1.5c0-0.1-0.1-0.1-0.1-0.2c-0.4,0.1-0.8,0.3-1.4,0.4c0.4-0.8-0.3-1.7,0.3-2.4
		c0.4-0.5,0.7-0.6,1.2-0.2c0.5,0.5,1,0.9,1.5,1.4c-0.1,0.1-0.1,0.2-0.1,0.2c-0.7,0.3-1.6,0.5-1.3,1.7c0,0.2-0.5,0.5-0.8,0.7
		C119.3,81.7,119.2,81.6,119.1,81.6z"/>
	<path d="M124.9,68.1c0.4,0.2,0.8,0.3,1.1,0.6c0.2,0.2,0.3,0.7,0.3,1c0,0.2-0.5,0.3-0.8,0.4c-0.5,0-0.9,0-1.4-0.1
		c0.1-0.1,0.3-0.2,0.4-0.3c0-0.1-0.1-0.1-0.1-0.2c-0.6-0.2-1.2-0.5-0.8-1.4c0.1-0.1-0.1-0.3-0.1-0.3c0.4-0.3,0.8-0.6,1.2-0.8
		c0.4-0.2,0.9-0.6,1.2,0.3C125.7,67.6,125.3,67.8,124.9,68.1z"/>
	<path d="M105.9,55.7c-0.3,1.2-1,2.2-1.9,2.9c-1,0.8-2,1.7-3,2.5c-0.7,0.6-1.5,1.2-2.3,1.8c-0.2,0.2-0.4,0.4-0.6,0.6
		c0.3-1.2,1.2-1.8,2-2.5c1.3-1.1,2.7-2,3.8-3.3c0.3-0.4,0.8-0.7,1.2-1.1C105.4,56.4,105.6,56.1,105.9,55.7z"/>
	<path d="M124,78.2c0.5-1.2,0.8-2.2,1.3-3.4c0.2,0.4,0.3,0.7,0.4,1c0.5-0.2,1-0.5,1.4,0.1c0.4,0.5,0.2,1.1-0.5,1.3
		c-0.6,0.2-1.2,0.5-1.8,0.8C124.6,78,124.4,78.1,124,78.2z"/>
	<path d="M187.9,25.7c0.6,0.1,1.2,0.1,1.6,0.3c0.3,0.1,0.5,0.5,0.6,0.8c0,0.1-0.3,0.4-0.5,0.6c-0.6,0.4-1.8,0.5-2.3-0.1
		c-0.3-0.3-0.5-0.8-0.4-1.2C187,26,187.6,25.8,187.9,25.7z"/>
	<path d="M106.6,38.1c-0.4,0.2-0.7,0.4-1.1,0.6c0.3,0.5,1,0.9,0.7,1.5c-0.2,0.4-0.8,0.6-1.4,1c0-0.5-0.1-0.7,0-0.9
		c0.3-1.2,0.7-2.4-0.8-3.1C104.6,36.6,106.1,37.1,106.6,38.1z"/>
	<path d="M121.1,32.4c0.8,0,1.4,0,2,0.1c0.4,0,0.9,0.1,1,0.4c0.3,0.4-0.1,0.8-0.5,1c-0.4,0.2-0.8,0.5-1.2,0.7
		c-0.3-0.4-0.7-0.8-1-1.1C120.9,33,120.8,32.6,121.1,32.4z"/>
	<path d="M185.4,44.9c0.8-0.5,1.5-0.1,2.2,0.1c0.4,0.1,0.4,0.4,0.3,0.7c-0.1,0.3-0.2,0.6-0.4,1C186.1,47.1,185.3,46.4,185.4,44.9z"
		/>
	<path d="M106.8,59.9c0.9-0.8-0.6-1.5-0.2-2.2c0.5,0,0.9,0.1,1.3,0.1c0.4,0,1.2,0.7,1.2,1.1c0,0.1,0,0.3-0.1,0.4
		c-0.4,0.3-0.8,0.6-1.3,0.8c-0.2,0.1-0.5,0-0.8,0.1C106.9,60,106.9,60,106.8,59.9z"/>
	<path d="M183.7,24.8c-0.1-0.8-0.2-1.5-0.3-2.2c-0.2-0.1-0.5-0.3-0.7-0.4c0-0.1,0.1-0.2,0.1-0.2c0.5,0.2,1,0.4,1.5,0.7
		c0.3-0.3,0.6-0.6,0.9-1c0.3,0.3,0.2,0.3-0.1,1.8C184.9,24.3,184.2,24.4,183.7,24.8z"/>
	<path d="M180.5,24c1.2-0.2,1.2-0.2,1.7,0.2c-0.6,0.9-2.4,1.3-3.1,0.6c0.5-0.3,0.8-0.7,0.5-1.3c-0.1-0.2,0.3-0.5,0.4-0.7
		c0.2,0.2,0.4,0.4,0.6,0.6C180.6,23.5,180.5,23.8,180.5,24z"/>
	<path d="M180.5,46.5c0.6-0.4,1-0.6,1.5-0.9c0.3-0.2,0.8,0.3,0.9,0.8c0,0.2,0,0.4,0,0.7c0.4-0.4,0.6-0.7,0.9-1
		c0.3,0.2,0.5,0.4,0.8,0.6c0.1,0.1,0.1,0.3,0.1,0.4c-0.1,0.1-0.3,0.3-0.5,0.3c-0.7-0.1-1.4-0.2-2-0.3c-0.3-0.1-0.7-0.1-1-0.2
		C181,46.8,180.8,46.7,180.5,46.5z"/>
	<path d="M182.5,130.2c0.4-0.1,0.8-0.1,1.2-0.2c0.7-0.2,1.4-0.4,2.1-0.4c0.3,0,0.6,0.2,1,0.2c0.6,0,1.2-0.1,1.8,0.1
		c0.2,0.1,0.3,0.2,0.5,0.2c0.3,0,0.5-0.1,0.8-0.1c0,0.1,0,0.1,0,0.2c0.2-0.1,0.5-0.3,0.7-0.4c0,0.1,0.1,0.1,0.1,0.2
		c-0.3,0.4-0.5,0.6-1.1,0.5c-1.1-0.1-2.2,0-3.3,0C185,130.3,183.7,130.3,182.5,130.2L182.5,130.2z"/>
	<path d="M177.3,27c0.1-0.7,0.2-1.3,0.3-1.9c-0.2-0.2-0.5-0.5-0.7-0.8c0.8-0.2,1.6,0.4,1.8,1.4c-0.8,0.2-0.8,0.2-0.2,0.8
		c0.4,0.5,0.8,0.9,1.2,1.4C178.6,28,177.9,27.5,177.3,27z"/>
	<path d="M222.3,32.1c0.4-0.5,0.7-1.2,1.6-1.3c0,0.2,0,0.3,0,0.4c0,1.2-0.6,1.6-1.8,1.2c-0.1-0.1-0.3,0-0.4-0.1
		c-0.3-0.2-0.6-0.4-0.7-0.7c-0.1-0.3,0.1-0.6,0.1-1c0,0,0.4,0,0.4,0C221.9,31.2,222.1,31.7,222.3,32.1z"/>
	<path d="M133.1,31.6c0.3,0,0.6,0,1,0c0.5-0.6,1.3-0.6,1.9,0.1c0.3,0.3,0.1,0.8-0.3,1c-1.2,0.6-1.2,0.6-2.1-0.4
		c-0.2-0.2-0.3-0.3-0.5-0.5C133.1,31.7,133.1,31.6,133.1,31.6z"/>
	<path d="M154.5,50.6c-0.7-0.3-0.8-0.8-0.5-1.5c0.2,0,0.5,0,0.8,0c0,0.4-0.1,0.7,0,1.1c0,0.2,0.2,0.4,0.4,0.5c0.3,0.2,0.6,0.2,1,0.4
		c-0.1,0.3-0.1,0.6-0.3,0.7c-0.3,0.2-0.8,0.3-1.2,0.2C154,51.8,153.9,51.3,154.5,50.6z"/>
	<path d="M145.3,46.7c-0.7,0.1-0.9-0.5-0.9-1c-0.1-0.4,0.1-1.1,0.4-1.2c0.9-0.3,1,0.7,1.5,1.1c0.4,0.3,0.1,0.7-0.2,0.9
		C145.9,46.6,145.6,46.6,145.3,46.7z"/>
	<path d="M75.6,63.9c1.3-1.9,3.1-3.1,5-4.3c-1.4,1.1-2.6,2.5-3.7,3.9c-0.2,0.3-0.7,0.4-1.1,0.6C75.7,64,75.6,64,75.6,63.9z"/>
	<path d="M125.1,18.3c0.3-0.4,0.5-0.9,0.7-0.9c0.3,0,0.8,0.3,0.9,0.6c0.1,0.5,0.1,1.1,0,1.6c-0.1,0.5-0.5,0.5-0.8,0.1
		C125.6,19.4,125.4,18.9,125.1,18.3z"/>
	<path d="M190.7,47.6c0-0.1,0-0.3,0-0.4c0-0.5,0.2-0.8,0.7-0.5c0.5,0.3,0.9,0.7,1.3,1.1c0.1,0.1,0,0.4-0.1,0.5
		c-0.4,0.4-1,0.6-1.5,0.3c-0.2-0.1-0.3-0.6-0.4-1C190.7,47.6,190.7,47.6,190.7,47.6z"/>
	<path d="M120.6,63.4c0,0.6-0.1,1-0.8,0.7c-0.7-0.3-1.4-0.7-2.1-1.1c-0.1-0.1-0.2-0.5-0.1-0.5c0.2-0.1,0.5-0.2,0.6-0.1
		C119.1,62.6,119.9,63,120.6,63.4z"/>
	<path d="M101.8,52.8c-0.3-0.9-1.2-0.8-1.7-1.4c-0.1-0.2-0.3-0.4-0.3-0.6c0-0.5,0.3-0.7,0.8-0.6c0.3,0.1,0.7,0.2,1,0.4
		c-0.1,0.5-0.1,0.9-0.1,1.4c0.4-0.1,0.7-0.2,1.1-0.3c0,0,0.1,0.1,0.1,0.1C102.3,52.2,102.1,52.5,101.8,52.8
		C101.8,52.9,101.8,52.8,101.8,52.8z"/>
	<path d="M182.5,130.2C182.5,130.2,182.5,130.3,182.5,130.2c-1.4,0.1-2.7,0.2-4.1,0.2c0,0-0.1-0.1-0.2-0.3c0.9-0.2,1.7-0.4,2.5-0.7
		c-0.2-0.5,0.1-0.7,1.1-0.4c-0.3,0.1-0.5,0.1-1,0.2C181.5,129.7,182,129.9,182.5,130.2C182.5,130.2,182.5,130.2,182.5,130.2z"/>
	<path d="M161.4,20.6c-0.3,0.2-0.6,0.3-0.7,0.4c-0.4-0.1-0.7-0.3-1-0.4c-0.5-0.1-1-0.9-0.9-1.6c1-0.1,1.7,0.4,2.2,1.3
		C161,20.4,161.2,20.5,161.4,20.6C161.4,20.6,161.4,20.6,161.4,20.6z"/>
	<path d="M116.3,77.4c0-1.1,0.5-1.5,1.4-1.4c0.6,0.1,1.2,0,1.4,1C118.1,77.1,117.2,77.2,116.3,77.4z"/>
	<path d="M159.3,46.4c0-0.6,0-1.1,0-1.7c0.6,0,1.1,0,1.6,0.1c0.2,0,0.4,0.4,0.4,0.5c-0.1,0.3-0.3,0.6-0.5,0.7
		C160.3,46.2,159.8,46.3,159.3,46.4z"/>
	<path d="M112.9,44.2c-0.6,0.4-1,1.1-1.8,0.9c-0.3-0.1-0.5-0.4-0.9-0.6c0.8-0.5,1.3-0.8,1.9-1.1c0.1,0,0.3,0.1,0.4,0.2
		C112.7,43.7,112.8,43.9,112.9,44.2z"/>
	<path d="M202.5,53.1c0.3,0.5,0.5,1,0.7,1.4c-0.3,0.3-0.5,0.6-0.7,0.9c-0.2,0.1-0.4,0.2-0.6,0.2c-0.1,0-0.2-0.3-0.2-0.5
		C201.6,54.3,201.6,53.6,202.5,53.1z"/>
	<path d="M136.7,72.6c-0.1,0.2-0.2,0.5-0.3,0.5c-0.5-0.1-1-0.1-1.4-0.3c-0.2-0.1-0.4-0.6-0.4-1c0-0.3,0.7-0.6,1.1-0.4
		C136.2,71.8,136.4,72.3,136.7,72.6z"/>
	<path d="M203.6,22.1c-0.5-0.6,0-1.1,0.1-1.8c0.2,0.2,0.4,0.3,0.5,0.4c0.3,0.5,0.7,0.7,1.3,0.4c0.1-0.1,0.3,0,0.4,0.1
		c-0.1,0.2-0.1,0.5-0.2,0.5c-0.5,0.2-0.9,0.7-1.5,0.3C204,21.9,203.8,22,203.6,22.1z"/>
	<path d="M159.7,48.8c-0.2,0.1-0.3,0.3-0.5,0.3c-0.2-0.1-0.4-0.2-0.5-0.4c-0.2-0.3-0.5-0.7-0.7-1.1c-0.1-0.3-0.1-0.6-0.2-0.8
		c0.2,0,0.5-0.1,0.7-0.1c0.2,0,0.4,0.1,0.6,0.2c0.1,0.1,0.3,0.5,0.2,0.6C158.8,48.1,159.2,48.4,159.7,48.8z"/>
	<path d="M116.4,80.2c0.1-0.3,0-0.9,0.6-0.9c0.6,0,1.3,0.5,1.1,0.9c-0.1,0.3-0.3,0.8-0.9,0.7C116.5,80.9,116.4,80.9,116.4,80.2z"/>
	<path d="M83.7,58.7c-0.2,0.2-0.5,0.4-0.7,0.6c0.5-0.9-0.1-2.1,1.1-2.9c-0.1,0.5-0.2,0.9-0.3,1.3c0.4,0.5,1.3,0.6,1.3,1.7
		c-0.5-0.2-0.9-0.3-1.3-0.4C83.7,58.9,83.7,58.8,83.7,58.7z"/>
	<path d="M112.1,48c-0.5-0.6-1.1-1.1-1.6-1.7c-0.1-0.2-0.1-0.5-0.2-0.7c0.2,0,0.5,0,0.7,0.1c0.5,0.3,0.9,0.6,1.3,1
		c0.2,0.2,0.2,0.7,0.2,1C112.4,47.9,112.2,48,112.1,48z"/>
	<path d="M88,52.2c0.8,0.2,1.6,0.4,1.6,1.2c0,0.4-0.5,0.8-0.8,1.3c-0.1,0-0.2-0.1-0.2-0.1c-0.1-0.4-0.2-0.7-0.3-1.1
		C88.2,53.1,88.1,52.7,88,52.2z"/>
	<path d="M85.1,47.3c0.5-0.6,1-1.3,1.5-1.9c0.1-0.1,0.4-0.1,0.5-0.1c0.2,0.2,0.5,0.5,0.4,0.7C87.3,46.9,85.8,47.6,85.1,47.3z"/>
	<path d="M182,48.9c0.7,0.4,1.3,0.7,2.1,1c-0.4,0.4-0.6,0.7-0.8,1C182.4,50.6,181.8,50.1,182,48.9z"/>
	<path d="M160,48.2c1,0,1.7,0.3,2.2,1c-0.3,0.6-0.9,0.7-1.4,0.6C160,49.5,160.4,48.7,160,48.2z"/>
	<path d="M138.7,69.5c-0.6,0-1.1,0-1.6,0c-0.2,0-0.4-0.2-0.5-0.3c-0.1-0.1,0.1-0.4,0.2-0.5c0.2-0.2,0.4-0.3,0.6-0.3
		c0.4-0.1,0.9-0.2,1.1,0C138.7,68.5,138.6,69.1,138.7,69.5z"/>
	<path d="M208.2,27.9c0.3,0.1,0.7,0.1,0.8,0.3c0.2,0.3,0.3,0.8,0.1,1.1c-0.2,0.5-0.6,0.1-0.9,0c-0.1-0.1-0.3-0.2-0.4-0.3
		c-0.2-0.2-0.4-0.4-0.6-0.6C207.6,28.3,207.9,28.1,208.2,27.9z"/>
	<path d="M90,34.9c0.1-0.4,0.1-0.7,0.1-1c0.6-0.2,1.2-0.5,1.7,0.1c0.1,0.1,0.2,0.3,0.3,0.4c0,0.1-0.2,0.2-0.4,0.2
		C91.2,34.8,90.7,34.8,90,34.9z"/>
	<path d="M156.5,29.7c-1,0.1-1.6-0.4-2.2-1.3c0.4-0.1,0.8-0.3,1-0.1C155.8,28.5,156.7,28.7,156.5,29.7z"/>
	<path d="M178,58.4c0.6,0.3,1.2,0.5,1.8,0.7c0.1,0,0.2,0.3,0.1,0.4c-0.1,0.2-0.3,0.3-0.4,0.4C178.6,60.2,177.9,59.6,178,58.4z"/>
	<path d="M174.3,51.4c0,0,0.2-0.1,0.3-0.2c0.2,0.2,0.3,0.3,0.5,0.5c-0.2,0.3-0.3,0.6-0.5,0.8c-0.1,0.1-0.2,0.2-0.3,0.3
		c-0.1-0.2-0.3-0.5-0.4-0.7c-0.1,0.1-0.4,0.3-0.6,0.5c-0.1,0-0.1-0.1-0.2-0.1c0-0.4,0-0.9,0-1.3C173.5,51.3,173.8,51.4,174.3,51.4z"
		/>
	<path d="M141.1,24.6c0.1-0.8,0.7-1.8,1.5-2.2C143.2,23.7,142.9,23.8,141.1,24.6z"/>
	<path d="M122.2,76.2c0.4-0.5,0.7-1,1-1.1c0.5-0.1,0.7,0.5,0.8,0.9c0.1,0.4-0.5,0.8-1,0.7C122.8,76.7,122.6,76.4,122.2,76.2z"/>
	<path d="M184.3,129.3c1.1-1.5,2.5-0.6,3.8-0.9c0,0.6-1.5-0.3-0.6,1C186.4,128.5,185.4,129.4,184.3,129.3z"/>
	<path d="M131,53.2c0-0.1-0.1-0.2-0.2-0.3c1.7-0.4,3.3-0.9,5-1.3c0,0.1,0.1,0.2,0.1,0.2c-0.8,0.3-1.6,0.6-2.4,0.8
		C132.7,52.9,131.9,53,131,53.2C131,53.2,131,53.2,131,53.2z"/>
	<path d="M80.3,66.1C79.4,67.4,79.2,69,78,70c-0.1,0-0.2-0.1-0.2-0.1c0.7-1.3,1.5-2.7,2.2-4C80.1,66,80.2,66,80.3,66.1z"/>
	<path d="M210.7,127.4c0.1-0.3,0.2-0.6,0.3-0.9c0.1-0.2,0.3-0.3,0.5-0.3c0.4,0,0.8,0.1,1.3,0.2c0,0.6-0.1,0.9-0.8,0.9
		C211.6,127.2,211.1,127.4,210.7,127.4z"/>
	<path d="M212.6,54.8c-1.3-0.2-1.7-0.7-1.6-1.8C212.1,53.3,212.4,53.7,212.6,54.8z"/>
	<path d="M122.4,58.8c-0.5,0.6-1,0.7-1.4,0.3c-0.2-0.3-1-0.6-0.5-1.1c0.4-0.4,0.8,0.1,1.2,0.3C122,58.5,122.2,58.7,122.4,58.8z"/>
	<path d="M158.7,50.3c-0.5,0.1-0.9,0.3-1.4,0.3c-0.2,0-0.5-0.4-0.5-0.6c-0.1-0.3,0.2-0.6,0.6-0.5c0.5,0.1,0.9,0.3,1.4,0.5
		C158.8,50.1,158.8,50.2,158.7,50.3z"/>
	<path d="M85.6,60.4c0.8,0.3,1.1,0.9,1,1.7c-0.6,0.4-0.8-0.3-1.1-0.6C85.2,61.2,85.2,60.8,85.6,60.4z"/>
	<path d="M175.2,53.8c0.1,0.8-0.2,1.4-0.7,1.4c-0.2,0-0.6-0.2-0.7-0.4C173.6,54.5,174.4,53.9,175.2,53.8z"/>
	<path d="M135.1,53.9c-0.2,0.9-2.2,2.5-2.9,2.3C133.2,55.4,134.1,54.7,135.1,53.9z"/>
	<path d="M95.6,44c0.5-0.5,1.8-0.2,2.4,0.5C97.1,44.5,96.2,45.1,95.6,44z"/>
	<path d="M187.1,49.2c-0.4,0.2-0.7,0.4-1,0.5c-0.2,0-0.7-0.1-0.8-0.3c-0.1-0.3,0.1-0.6,0.2-0.9c0-0.1,0.5,0,0.7,0.1
		C186.5,48.7,186.7,48.9,187.1,49.2z"/>
	<path d="M171.7,65.9c-0.3,0.4-0.5,0.7-0.7,0.9c-0.2,0.1-1.2-0.5-1.1-0.7c0.1-0.2,0.3-0.5,0.5-0.5C170.7,65.6,171.1,65.7,171.7,65.9
		z"/>
	<path d="M136.3,65.3c0.3,0.3,0.5,0.4,0.6,0.6c0.1,0.2,0.2,0.5,0.3,0.7c0.1,0.2,0.2,0.3,0.3,0.5c-0.3,0-0.6,0-0.8-0.1
		C136.2,66.7,136.2,66.1,136.3,65.3z"/>
	<path d="M178.6,47.8c-0.4-0.2-0.8-0.2-1.1-0.5c-0.1-0.1,0-0.5,0-0.8c0.2,0,0.4,0,0.6,0C178.7,46.7,178.7,47.1,178.6,47.8z"/>
	<path d="M127,66.7c0.2,0.3,0.5,0.9,0.4,1c-0.3,0.3-0.8,0.4-1.2,0.6c-0.1-0.1-0.2-0.2-0.2-0.2c0.2-0.4,0.5-0.9,0.7-1.3
		C126.8,66.8,126.9,66.7,127,66.7z"/>
	<path d="M133.4,19.7c-0.2-0.8-0.7-1.3-0.2-1.9c0.6,0.1,0.9,0.5,0.9,1C134,19.1,133.7,19.4,133.4,19.7z"/>
	<path d="M110.2,42.5c0.7-0.4,1.2-0.7,1.8-1.1C112.1,42.7,111.5,43,110.2,42.5z"/>
	<path d="M88,56.9c-0.4-0.1-0.9-0.1-1.1-0.3c-0.1-0.1,0.1-0.6,0.1-1C88.3,56.1,88.1,56,88,56.9z"/>
	<path d="M97.5,27.2c0.9,0.2,1.8,0.4,2.7,0.6c0,0.1,0,0.2-0.1,0.3c-0.9-0.2-1.9,0.2-2.7-0.6C97.4,27.3,97.4,27.3,97.5,27.2z"/>
	<path d="M123.9,66.4c-0.4,0.2-0.8,0.4-1.2,0.5c-0.1,0-0.3,0-0.4-0.1c-0.1-0.1,0-0.3,0-0.4C122.7,65.6,123.1,65.6,123.9,66.4z"/>
	<path d="M131.3,59.9c0.5-0.2,0.9-0.5,1.4-0.6c0.1,0,0.3,0.2,0.4,0.3c-0.1,0.1-0.2,0.3-0.3,0.3C132.4,60,132.1,60.7,131.3,59.9z"/>
	<path d="M183,25.3c0.4-0.2,0.6-0.2,0.7-0.3c0.3,0.3,0.6,0.4,0.9,0.7c0.1,0.1,0.2,0.3,0.3,0.5c-0.2,0-0.4,0.1-0.6,0
		C183.9,26,183.5,25.7,183,25.3z"/>
	<path d="M131,53.2c-1.7,0.5-3.4,1.1-5.1,1.6c0,0,0-0.1,0-0.1c1.5-0.5,2.9-1.1,4.4-1.5C130.5,53.1,130.8,53.2,131,53.2
		C131,53.2,131,53.2,131,53.2z"/>
	<path d="M82.7,42.2c0.4-1,1-1.2,1.5-0.7C84,42.2,83.5,42.4,82.7,42.2z"/>
	<path d="M157.6,60.5c0.2,0.7-0.1,1-0.7,1c-0.2,0-0.5-0.4-0.5-0.5C156.6,60.4,157.1,60.3,157.6,60.5z"/>
	<path d="M198.9,130.4c-1.2-0.1-2.5-0.1-3.7-0.2c0-0.1,0-0.1,0-0.2c1.3,0,2.5,0,3.7,0C198.9,130.2,198.9,130.3,198.9,130.4z"/>
	<path d="M163.4,43.2c0.2-0.5,0.5-1,0.7-1.5c0.1,0,0.2,0,0.3,0.1c0,0.4,0.2,0.8,0.1,1.1c-0.1,0.2-0.5,0.4-0.8,0.6
		C163.6,43.4,163.5,43.3,163.4,43.2z"/>
	<path d="M102.5,54.8c0.6-0.3,1-0.7,1.6-0.1c-0.4,0.3-0.7,0.5-1.1,0.8C102.8,55.3,102.7,55.1,102.5,54.8z"/>
	<path d="M187.7,23.3c0.7,0.3,1,0.6,0.8,1.5C187.8,24.6,187.5,24.1,187.7,23.3z"/>
	<path d="M216.6,40.4c0.6,0,1.2-0.2,1.3,0.6c0,0.1-0.2,0.3-0.4,0.3C217,41.4,216.6,40.9,216.6,40.4z"/>
	<path d="M160.2,131.8c-1,0.4-1.4,0.3-1.9-0.4c0.4,0.2,1.2-0.5,1.4,0.4C159.7,131.9,160,131.8,160.2,131.8z"/>
	<path d="M132.5,46.8c-0.3,0.4-0.5,0.9-1.1,0.5c-0.1-0.1-0.1-0.5,0-0.6C131.8,46.3,132.2,46.4,132.5,46.8z"/>
	<path d="M129.8,67.8c0.9-0.4,1.9-0.8,2.9-1.3c-0.2,0.5-0.3,0.8-1,0.9C131.1,67.4,130.5,67.7,129.8,67.8
		C129.8,67.9,129.8,67.8,129.8,67.8z"/>
	<path d="M209.1,31.9c-0.3,0.3-0.5,0.6-0.9,1c-0.2-0.3-0.3-0.6-0.5-0.8c0.4-0.1,0.8-0.3,1.2-0.4C209,31.7,209,31.8,209.1,31.9z"/>
	<path d="M80.3,66.1C80.2,66,80.1,66,80,65.9c0.4-0.7,0.7-1.4,1.1-2.1c0.1,0,0.2,0.1,0.3,0.1C81,64.7,80.7,65.4,80.3,66.1z"/>
	<path d="M193.9,130.2c-0.9,0-1.6,0-2.4,0c-0.1,0-0.2-0.1-0.2-0.2c0-0.1,0.1-0.2,0.1-0.2c0.7,0,1.5,0,2.2,0.1
		C193.8,129.8,193.8,130,193.9,130.2z"/>
	<path d="M97.5,27.2c0,0.1-0.1,0.2-0.1,0.2c-0.5-0.3-1.1-0.6-1.6-0.9c-0.2-0.1-0.4-0.3-0.7-0.5c0.1-0.1,0.1-0.1,0.1-0.2
		C96,26.3,96.7,26.7,97.5,27.2z"/>
	<path d="M110.2,17.4c-0.4,0.5-0.7,0.7-1,0.4c-0.1-0.1,0-0.5-0.1-0.8C109.5,17.1,109.8,17.3,110.2,17.4z"/>
	<path d="M186.2,28.1c-0.1,0.6-0.5,0.6-0.9,0.5c-0.1,0-0.2-0.4-0.1-0.5C185.5,27.5,185.8,27.9,186.2,28.1z"/>
	<path d="M118.4,70.7c1.3-0.1,2.6-0.3,3.9-0.4c0,0.1,0,0.1,0,0.2c-1.3,0.1-2.6,0.3-3.9,0.4C118.4,70.9,118.4,70.8,118.4,70.7z"/>
	<path d="M113,72.4c-1,0.5-2,1.1-3,1.6c0-0.1-0.1-0.1-0.1-0.2c1-0.5,2-1,3-1.5C113,72.3,113,72.4,113,72.4z"/>
	<path d="M191.9,50.5c0.1,0.3,0.1,0.7,0.2,1c-0.2,0-0.5,0-0.6,0c-0.1-0.3-0.1-0.6-0.1-0.9C191.6,50.5,191.7,50.5,191.9,50.5z"/>
	<path d="M213.3,33.1c0.2,0.4,0.4,0.7,0.7,1.2C213,34.2,212.8,33.9,213.3,33.1z"/>
	<path d="M152.1,52.6c0.3,0.1,0.6,0.2,1.1,0.3c-0.3,0.3-0.6,0.6-0.7,0.5c-0.2-0.1-0.4-0.3-0.6-0.5C152,52.8,152,52.7,152.1,52.6z"/>
	<path d="M137.4,33.3c-0.2,0-0.5,0.2-0.6,0.1c-0.2-0.2-0.3-0.5-0.5-0.7c0.1-0.1,0.1-0.1,0.2-0.2c0.3,0.2,0.6,0.4,0.8,0.5
		C137.3,33.2,137.4,33.2,137.4,33.3z"/>
	<path d="M122,62c-0.3,0.1-0.5,0.2-0.7,0.4c0-0.1-0.1-0.2-0.1-0.3c0.4-0.1,0.7-0.2,1.1-0.3c0,0.2,0.1,0.5,0.1,0.7
		c-0.1,0-0.2,0-0.2,0C122.1,62.4,122,62.2,122,62z"/>
	<path d="M154.1,53.4c0.2,0,0.5-0.1,0.6,0c0.2,0.1,0.2,0.4,0.3,0.6c-0.1,0-0.1,0.1-0.2,0.1c-0.2-0.2-0.5-0.3-0.7-0.5
		C154.1,53.6,154.1,53.5,154.1,53.4z"/>
	<path d="M114.8,61c0.2,0.8,0.4,1.6,0.5,2.3c-0.1,0-0.2,0-0.3,0.1C114.9,62.6,114.9,61.8,114.8,61C114.8,61,114.8,61,114.8,61z"/>
	<path d="M121.6,40.4c-0.5-0.4-1-0.8-1.4-1.2c-0.1-0.1-0.1-0.3-0.1-0.4c0.1-0.1,0.3-0.2,0.4-0.1c0.8,0.1,1.1,0.4,1.2,1.2
		c0,0.1,0.1,0.3,0.1,0.4C121.7,40.3,121.6,40.4,121.6,40.4z"/>
</g>
</svg>
