<?xml version="1.0" encoding="utf-8"?>
<!-- Generator: Adobe Illustrator 24.0.2, SVG Export Plug-In . SVG Version: 6.00 Build 0)  -->
<svg version="1.1" id="Слой_1" xmlns="http://www.w3.org/2000/svg" xmlns:xlink="http://www.w3.org/1999/xlink" x="0px" y="0px"
	 viewBox="0 0 238.1 150.2" style="enable-background:new 0 0 238.1 150.2;" xml:space="preserve">
<g>
	<path d="M84.3,77.9c3.1-2.3,6.3-4.4,9.3-6.9c3.8-3.1,7.3-6.5,11-9.7c0.8-0.7,1.6-1.4,2.6-1.9c1.7-0.9,3-0.3,3.9,1.4
		c0.2,0.3,0.4,0.6,0.5,0.8c3-3.3,6.5-5.8,10.2-8.4c-0.3,0-0.4,0-0.6,0c0-0.1,0-0.1-0.1-0.2c0.5-0.2,1.1-0.4,1.6-0.6
		c4.9-1.2,8.3-4.3,10.6-8.8c1.5-2.8,2.8-5.7,4.3-8.5c0.6-1.1,1.4-2.3,2.8-2.5c2.1,1.6,3,3.9,3.8,6.3c0.3,0.8,0.5,1.5,0.8,2.3
		c0.4,1.2,0.9,2,2.5,1.7c1.2-0.2,1.9,0.7,2.4,1.7c0.5,1,1,2,1.6,3c0.9,1.6,2.3,2.7,4.2,2.8c1.4,0,2.3,0.8,2.8,2.1
		c2.1,5.3,5,10.1,9,14.2c0.9,0.9,1.9,1.8,2.8,2.6c1,0.9,2,1.1,3.3,0.6c2.8-1.1,5.1-2.9,7.3-5.1c1.7-1.7,2.8-1.7,4,0.4
		c0.9,1.5,1.6,3.3,2.3,4.9c0.9,2,2.1,3.6,4.3,4.2c0.5,0.1,0.9,0.7,1.1,1.1c1.3,3.7,3.8,6.5,6.8,8.8c1.7,1.3,2.5,3.2,3.2,5.2
		c0.4,1.3,0.8,2.6,1.5,3.8c0.7,1.1,1.6,2.3,2.7,2.9c1.6,0.9,2.7,2,2.9,3.8c0.1,0.4,0.2,0.9,0.3,1.2c0.5,0,1-0.1,1.3,0
		c7.3,3.2,15.1,4.7,22.7,6.7c0.3,0.1,0.7,0.2,0.9,0.5c-7.6-1.7-15.2-3.2-22.6-6.2c1.7,0.8,0.9,2.7,1.9,3.8c0.1-0.3,0.3-0.7,0.5-1.1
		c0,0,0.1,0,0.1,0c0,0.4,0,0.7,0,1.1c0,0,0.1,0,0.1,0c0.2-0.4,0.3-0.8,0.5-1.2c0.5,1.2,1,2.4,1.5,3.5c0,0,0.1,0,0.1,0
		c-0.1-0.6-0.2-1.3-0.3-1.8c0.6,0.6,1.2,1.2,1.8,1.9c0.1-0.1,0.2-0.2,0.3-0.2c0.1,0.4,0.3,0.8,0.4,1.2c0.1-0.2,0.3-0.3,0.5-0.6
		c0.8,1.1,1.5,2,2.3,3c0.1,0,0.2,0,0.3,0c-0.3-1.4-0.6-2.7-0.9-4.1c0,0,0,0,0.1,0c0.7,1.8,1.4,3.7,2,5.5c0.1,0,0.1-0.1,0.2-0.1
		c-0.4-1.7-0.8-3.5-1.1-5.2c0.1,0,0.1,0,0.2-0.1c0.4,1.3,0.7,2.6,1.1,3.9c0.2,0,0.3-0.1,0.5-0.1c-0.3-1.1-0.5-2.3-0.8-3.4
		c0.1,0,0.1,0,0.2-0.1c0.7,2.1,1.3,4.2,2,6.3c0.1,0,0.2,0,0.3-0.1c-0.1-0.3-0.1-0.6-0.2-1c0.1,0,0.1-0.1,0.2-0.1
		c0.2,0.4,0.4,0.7,0.5,1.1c0.1,0,0.1,0,0.2,0c-0.1-1.1-0.3-2.1-0.5-3.4c1.2,1.6,1.5,3.5,3.3,4.9c-0.1-0.7-0.1-1-0.1-1.3
		c0.2,0,0.3-0.1,0.3-0.1c0.5,0.8,1.3,1.6,1.5,2.5c0.2,1.3,1,2.1,1.8,3.2c-0.2-0.1-0.6-0.2-0.7-0.4c-1.5-2-3.8-2.2-6-2.7
		c-2.4-0.5-4.9-0.7-7.4-1.2c-1.9-0.4-3.8-1.2-5.7-1.7c-0.6-0.2-1.4,0-1.9,0.2c-1.7,0.7-3.4,1.5-5,2.3c-0.3,0.1-0.4,0.5-0.9,1
		c1.3-0.5,2.3-0.8,3.3-1.1c0,0.1,0.1,0.1,0.1,0.2c-0.5,0.3-0.9,0.6-1.4,0.9c3.5,0,6.8,1.5,10.3,0.3c0,0.1,0,0.3,0,0.4
		c-1,0.3-2,0.5-3,0.8c0,0.1,0,0.1,0,0.2c2.1-0.3,4.2-0.7,6.4-1c0,0.1,0,0.3,0.1,0.4c-1,0.2-2,0.3-2.9,0.5c-1.7,0.4-3.4,0.9-5.2,1.1
		c-1.6,0.2-3.3,0.1-5,0.2c-1,0-1.9,0-2.9,0.2c-3,0.4-6.1,0.8-9.1,1.2c-0.2,0-0.5,0.1-1,0.3c2.8,0.4,5.3,0.8,7.8,1.2
		c0,0.1,0,0.1,0,0.2c-1.5-0.2-3-0.4-4.5-0.6c-2.2-0.2-4.5-0.4-6.7-0.6c-0.1,0-0.2,0-0.2,0c-1,1.6-1.2,0.1-1.8-0.1
		c-1.1-0.1-2.1-0.3-3.2-0.3c-0.7,0-1.5,0.2-2.2,0.2c-0.7,0-1.5-0.1-2.2-0.1c-2.2,0.2-3.9-0.5-5.2-2.4c-1.2-1.8-3.1-2.8-5-3.7
		c-0.2-0.1-0.5,0-0.7,0c-1-0.2-2-0.6-3-0.8c-1.4-0.2-2.8-0.4-4.1-0.4c-1.4,0-2.9,0.4-4.3,0.5c-1.1,0.1-1.3,0.6-1,1.6
		c0.1,0.4,0.2,0.9,0,1.4c-0.1-0.2-0.1-0.4-0.2-0.6c-0.3-1-0.4-2-1.8-2c-0.5,0-1-0.6-1.5-0.9c-0.5-0.4-0.7-0.1-1,0.3
		c-0.3-0.5-0.5-1.2-0.9-1.5c-1.9-1.2-3.1-3.3-5.6-3.4c-1-1.3-2.5-0.9-3.8-1.2c-1.3-0.3-2.7-0.1-4-0.3c-1.1-0.1-2.1-0.4-3.1-0.8
		c-3.2-1.2-6.3-2.6-9.5-3.7c-0.5-0.2-1.4,0.1-1.9,0.5c-0.3,0.2-0.2,1.2,0.1,1.6c0.8,1.3,0.9,2.5,0.4,3.9c-0.2,0.4-0.1,1-0.2,1.4
		c0.1,0,0.2,0,0.2,0c-0.3,0.4-0.7,0.7-1,1.1c0.1,0,0.1,0.1,0.2,0.1c0.3-0.2,0.6-0.4,1.2-0.8c-0.5,1-0.9,1.8-1.3,2.5
		c0.3-0.1,0.6-0.3,0.9-0.5c0,0.1,0.1,0.1,0.1,0.2c-0.2,0.3-0.5,0.6-0.9,1.1c0.7-0.4,1-0.6,1.4-0.7c0,0.1,0.1,0.1,0.1,0.2
		c-0.6,0.6-1.3,1.2-1.9,1.8c2.5-1.4,2.8-0.8,2.3-4.4c0-0.3,0-0.6,0-0.9c0.1,0,0.2,0,0.3,0c0.3,1,0.5,2,0.8,3
		c0.1,0.2,0.4,0.4,0.6,0.6l0,0c0,0.1,0.1,0.2,0.1,0.2c0,0,0.1,0,0.1-0.1c0.7-0.6,1.3-1.2,2-1.8c0,0.7-0.4,1.4-0.2,1.8
		c0.9,1.5-0.4,2.3-1,3.2c-0.1,0.1-0.1,0.3-0.1,0.5c0.5-0.4,0.9-0.8,1.3-1.2c0.1,0.1,0.1,0.1,0.2,0.2c-0.3,0.5-0.6,0.9-1,1.4
		c0.1,0.1,0.2,0.1,0.2,0.2c0.3-0.4,1-0.8,1-1.1c-0.1-1.7,0.8-3,1.5-4.3c0,1,0,2,0,3c0.1,0,0.6-0.1,0.7-0.1c0.4,0.6,0.7,1.1,1.1,1.8
		c0.2-1.4,0.4-2.6,0.6-3.7c0.2,0,0.3,0,0.5,0c0.1,0.8,0.1,1.7,0.2,2.5c0.1-0.1,0.3-0.2,0.8-0.4c-0.4,0.6-0.6,0.9-0.6,0.9
		c0.2,0.5,0.5,0.9,0.4,1.2c-0.1,0.5-0.4,1-0.8,1.7c1.7-1.5,1.7-3.1,1.4-4.8c-0.1-0.7,0-1.5,0-2.2c0.1,0,0.1,0,0.2,0
		c0.3,2.1,0.5,4.2,0.8,6.3c0.2,0,0.4,0,0.9-0.1c-0.5,0.4-0.7,0.6-1.1,0.9c0.5-0.1,0.8-0.2,1.4-0.3c-1.4,1.4,0.2,1.5,0.5,2.1
		c0.1,0,0.2,0.1,0.4,0.1c0.5-1.1,0.9-2.2,1.5-3.4c-0.4,0.3-0.6,0.5-1.2,0.9c0.1-1,0.1-1.7,0.4-2.3c0.4-0.9,1-1.7,0.5-2.7
		c-0.2-0.3,0.2-0.9,0.2-1.3c0.3,0.8,0.3,1.6,0.7,2.2c0.4,0.6,0.5,1.1,0.2,1.8c-0.3,0.7-0.1,1.3,0.7,1.3c0.1,0.6,0.3,1.1,0.4,1.8
		c0.3-0.5,0.4-0.8,0.7-1.3c0.1,0.6,0.1,1,0.2,1.4c0.1,0,0.3,0.1,0.4,0.1c0.6-1.2,1.3-2.5,1.8-3.6c0.3,1,0.8,2.2,1.2,3.6
		c0,0-0.2,0.2-0.4,0.4c0.9,0.1,1.7,0.3,2.3,0.3c0.1-1.4,0.3-2.8,0.4-4.2c0.4,0.6,0.4,1.2,0.7,1.7c0.3,0.5,0.7,0.9,1.1,1.3
		c-0.2,0.3-0.4,0.6-0.6,1c1.3-0.3,1.5-0.9,0.7-2c0.3-0.4,1-0.9,0.9-1.2c-0.4-1.6,0.7-2.6,1.2-3.8c0,0.5,0.1,0.9,0.1,1.4
		c0,0.5-0.1,0.9-0.2,1.6c0.1,0.3,0.2,0.8,0.3,1.4c0.2,0,0.5,0.1,1.1,0.2c-0.3,0.3-0.5,0.5-0.6,0.7c0.3,0,0.6,0,0.7,0
		c0.2,0.6,0.3,1.1,0.4,1.6c0.1,0,0.2,0,0.3-0.1c0-1.5,0-3,0-4.5c0.1,0,0.1,0,0.2,0c0,0.5,0.1,1,0.1,1.5c0,0,0.1,0,0.1,0
		c0-0.6,0-1.2,0-1.8c0.1,0,0.3,0,0.4,0c0.2,1.5,0.3,2.9,0.5,4.5c0.6-0.8,1.1-1.5,1.7-2.3c0.1,0,0.2,0.1,0.4,0.1
		c0.2,0.8,0.4,1.5,0.6,2.4c0.4,0,0.4,0,0.4-0.8c0-0.4,0.3-0.9,0.4-1.3c0.1-0.5,0.1-1,0.2-1.5c0.1,0,0.2,0,0.3,0
		c0.1,0.9,0.2,1.7,0.2,2.8c0.2-0.3,0.4-0.5,0.6-0.8c0.1,0.9,0.1,1.5,0.2,2.2c0.1,0,0.1,0,0.2,0.1c0.2-0.6,0.5-1.3,0.7-1.9
		c0.1,0,0.2,0,0.2,0c0,0.6,0,1.1,0,1.7c0.1,0,0.2,0,0.3,0c0.2-0.3,0.3-0.7,0.5-1.1c0.1,0.4,0.2,0.7,0.3,1c0.1-0.1,0.3-0.2,0.5-0.3
		c0.1,0.3,0.2,0.6,0.4,0.9c1.8-0.6,1.8-0.6,1.9-3.3c0.2,1.3,0.4,2.6,0.6,3.9c0.1,0,0.2,0,0.3,0c0.3-0.5,0.6-0.9,0.9-1.4
		c0.4,0.6,0.6,1.5,1.6,1.6c1.1,0.1,1.4-0.6,1.6-1.5c0.1,1,0.1,1.9,0.2,3c0.3,0.1,0.3,0.1,0.4-0.9c0-0.5,0.1-1.1,0.4-1.6
		c0,0.5,0,1,0,1.5c0.1,0,0.2-0.1,0.3-0.1c0.2,0.3,0.4,0.7,0.6,1.1c0.1-0.1,0.3-0.4,0.6-0.7c0.2,0.4,0.3,0.7,0.4,1.1
		c0.2-0.3,0.5-0.7,0.9-1.1c0.1,0.5,0.1,0.8,0.1,1.1c0.3-0.2,0.5-0.4,0.8-0.6c0.2,0.4,0.4,0.8,0.7,1.4c0.1-1.1,0.2-1.8,0.3-2.6
		c0.1,0,0.3,0,0.4,0c0.1,0.7,0.1,1.3,0.2,2.1c0.2-0.3,0.3-0.5,0.5-1c0.1,0.5,0.2,0.8,0.2,0.8c1-0.1,2-0.2,2.9-0.2
		c0.3,0,0.7,0.3,1.2,0.6c0.7-0.1,1.8-0.4,2.9-0.3c0.8,0.1,1.9-0.7,2.5,0.5c0,0,0.2,0,0.2,0c0.9-0.2,1.8-0.3,2.7-0.5
		c0.2,0,0.4-0.1,0.5,0c1.1,1.2,2.4,0.7,3.7,0.7c0.2,0,0.4,0.1,0.5,0.3c-1.4,0.1-2.7,0.6-4.1-0.2c-0.7-0.4-1.6-0.2-2.5-0.2
		c-1.7,0-3.4,0.2-5,0.2c-0.9,0-2,0.7-2.7-0.6c0-0.1-0.6-0.1-0.7,0.1c-1.4,1.2-3.2,0.8-4.8,0.9c-3.8,0-7.5-0.8-11.1-1.8
		c-1.1-0.3-2.3-0.2-3.4-0.3c-2-0.2-4-0.3-6-0.5c-0.1,0-0.2,0-0.4,0c-1.4,0.1-2.7,0.2-4.1,0.2c0-0.1,0-0.2,0-0.3
		c1.2-0.3,2.4-0.5,3.6-0.8c0-0.1,0-0.1,0-0.2c-0.9,0.1-1.8,0.1-2.7,0.2c-6.6,0.9-13.1,0.8-19.7,0.7c-1.4,0-2.7-0.5-4.1-0.5
		c-3.7-0.2-7.1-1.3-10.5-2.4c-2.8-0.9-5.5-2.1-8.3-3.1c-0.8-0.3-1.7-0.1-2.6-0.2c-1-0.1-2.2-0.1-3-0.5c-2.3-1.1-4.7-1.1-7-1
		c-2.9,0.2-5.8,0.8-8.6,1.3c-0.5,0.1-1,0.6-1.5,0.9c-0.3,0.1-0.6-0.1-0.9,0c-1.1,0.5-2.2,1.1-3.3,1.7c-0.2,0.1-0.5,0.4-0.7,0.4
		c-1.7-0.1-2.9,1-4.3,1.6c-1.3,0.6-2.5,1.2-3.7,1.9c-3.3,2.2-7.1,2.9-10.9,3.2c-0.8,0.1-1.7,0.2-2.5,0.4c1,0.1,2,0.2,3,0.3
		c0,0.1,0,0.3,0,0.4c-1.8,0.1-3.7,0.4-5.5,0.3c-2.6-0.2-5,0.2-7.2,1.6c-0.3,0.2-0.6,0.3-1.1,0.3c0.9-0.5,1.7-1.1,2.6-1.6
		c0-0.1-0.1-0.2-0.1-0.3c-1.4,0.8-2.9,1.6-4.3,2.5c-0.8,0.5-1.3,0.7-1.7,0.1c-0.4,0.3-0.8,0.6-1.3,0.9c-0.2,0.1-0.4,0.3-0.7,0.6
		c1.6-0.4,3-0.8,4.4-1.2c0,0.1,0.1,0.2,0.1,0.3c-0.3,0.2-0.6,0.3-0.9,0.5c-1.1,0.5-2.2,1-3.3,1.4c-2.4,0.8-4.9,1.4-7.3,2.1
		c-0.5,0.1-1.2-0.3-1.7-0.1c-1.9,0.5-3.8,1-5.7,1.6c-0.4,0.1-0.7,0.2-1.2,0.4c0.6-0.9,2.1-1.6,5.3-2.4c1.9-0.5,3.8-0.6,5.5-0.8
		c0.2-1.4,0.4-2.8,0.6-4.4c0.7,0.8,0.2,1.9,1.2,2.3c0.6,0.2,0.5,0.5,0.9,0.1c0.2-0.2,0.7-1.6,0.7-2c0-0.4,0.1-0.7,0.1-1.1
		c0.2-1,0.5-2.1,0.8-3.1c0.1,0.2,0.1,0.4,0.2,0.6c0.4,0.9,0.8,1.8,1.2,2.7c0,0.1,0.2,0.1,0.3,0.2c-0.4,0.5-0.2,0.8,0.3,0.8
		c0.1,0,0.2-0.6,0.4-0.9c0.1-0.3,0.4-0.5,0.4-0.5c-0.1-1.8-0.3-3.5,0.8-5c0.4,1.2,0.8,2.3,1.2,3.4c0.1,0,0.2-0.1,0.3-0.1
		c0-1.3,0-2.6,0-3.9c0.1,0,0.3,0,0.4,0c0,0.8-0.1,1.6,0,2.4c0.1,0.7-0.1,1.5,0.4,2.1c0.2-0.1,0.3-0.1,0.5-0.2
		c-0.2-0.3-0.3-0.6-0.4-0.8c0.3-1,0.6-1.9,0.9-2.8c0-0.1-0.4-0.2-0.5-0.4c-0.1-0.1-0.1-0.4-0.1-0.6c0.2,0,0.4,0,0.7,0.1
		c0-0.5-0.1-1.2-0.2-1.8c0.1,0,0.2,0,0.3-0.1c0.2,1,0.4,2,0.6,3c0,0.2,0.1,0.5,0.3,0.7c0.1,0.1,0.4,0,0.5-0.1
		c0.1-0.2,0.1-0.4,0.1-0.6c-0.1-1.5-0.4-2.9-0.4-4.4c0-1.1,0.1-2.1,0.3-3.2c0.5,2,0.9,3.9,1.4,5.9c0.1,0,0.2,0.1,0.3,0.1
		c0.1-0.5,0.4-0.9,0.4-1.4c0-2.1-0.1-2.1,2-2.4c-0.1,0.9-0.3,1.8-0.4,2.8c0.4,0.1,0.8,0.2,1.3,0.4c0-2.7,0-5.3,0-7.9
		c0.1,0,0.2,0,0.3,0c0.3,1.1,0.5,2.2,0.8,3.2c0.2,0.8,0.1,1.5-0.1,2.2c0,0.2,0.5,0.4,0.6,0.6c0.5-0.8,0.9-1.4,1.3-2
		c0-0.7-0.1-1.7,0-2.5c0-0.2,0.6-0.4,1-0.5c0.1,0,0.2,0.6,0.5,0.8c0.6,0.4,0.8,0.8,0.1,1.3c0.3,0.3,0.6,0.6,1,0.8
		c0.4,0.2,0.8,0.1,1.3,0.2c0,0.1,0,0.3,0,0.4c-0.5,0.2-1,0.4-1.6,0.7c0.3,0.1,0.7,0.2,1,0.4c0.6,0.4,0.9,0.2,1.1-0.5
		c0.1-0.4,0.2-0.8,0.3-1.2c0.2-0.7,0.3-1.4,0.1-2.2c-0.1-0.4,0.3-1,0.4-1.3c-1-2.3-0.1-4.5-0.3-6.7c0.1,0,0.2,0,0.3,0
		c0.2,1.2,0.3,2.3,0.5,3.5c0.2,0.9,0.5,1.9,0.9,2.7c0.1,0.3,0.9,0.7,1,0.6c0.4-0.3,1-0.9,0.9-1.2c-0.2-1.1,0.3-1.5,1.4-1.6
		c-0.4-0.2-0.7-0.4-1-0.6c1.5-1.1,0.8-3,1.7-4.6c0.1,0.6,0.2,1,0.2,1.1c0.3,0.2,0.8,0.4,0.8,0.5c-0.1,0.5-0.3,1-0.5,1.7
		c0.3,0,0.9,0,1.7,0c-0.5,0.5-0.8,0.8-1.1,1.2c0.6,0.2,1.2,0.3,2.1,0.6c-1.1,0.4-1.9,0.7-2.7,1c1.1,0.1,2,0.2,3,0.3
		c0,0.1,0,0.2,0,0.3c-0.9,0.2-1.7,0.4-2.6,0.7c0-0.1,0-0.2,0-0.2c0.9,0.3,1.8,0.6,2.7,0.9c0.3,0.1,0.7-0.1,1-0.2
		c-0.2-0.5-0.6-0.9-0.5-1c0.6-1,0.7-2,0.5-3.1c-0.2-1.3,0-2.7-0.3-3.9c-0.6-2-1.5-3.8-3-5.3c-0.2-0.2-0.3-0.6-0.4-1
		c-0.8-2.2-1.6-4.4-2.4-6.6c-0.1-0.2-0.8-0.4-1.2-0.2c-1.1,0.5-2.2,1.1-3.2,1.7c-2.3,1.5-4.8,2-7.5,1.4c-3.8-0.8-6.5,0.9-9.1,3.4
		c-1.2,1.1-2.4,2.2-3.7,3.4c0-0.5,0-0.7,0-0.9c-0.2,0.1-0.3,0.1-0.4,0.2c-5.9,3.9-12,7.3-18.4,10.2c-2,0.9-4.2,1.7-5.8,3.3
		c-0.4,0.4-1,0.5-1.5,0.8c-0.5,0.3-1,0.7-1.5,1.1c2.2-1.2,4.6-1.1,6.8-1.8c0,0.1,0.1,0.2,0.1,0.3c-0.5,0.2-1,0.4-1.6,0.6
		c0.3,0,0.5,0.1,1,0.1c-1,0.9-2.8,0.4-3.1,2.3c3.1,0,6.2,0.1,9.3-0.1c0.9,0,1.8-0.7,2.6-1.2c0.9-0.5,1.7-1.2,2.6-1.6
		c1.6-0.8,3.3-1.4,5-1.9c-2.5,0.9-4.4,2.6-6.2,4.9c6.1,0.1,11.9,0.3,17.7,0.4c0,0,0,0.1,0,0.1c-3.6,0-7.2,0-10.8,0
		c-2.1,0-4.1-0.1-6.2,0c-0.5,0-1.1,0.3-1.5,0.7c-1.1,1.2-2.1,2.6-3.4,3.7c1-1.5,2.1-2.9,3.2-4.4c-0.3-0.2-0.8,1.1-1-0.1
		c-0.3,0.4-1-0.2-1.3,0.6c-0.7,1.8-1.6,3.6-2.5,5.3c-0.2,0.4-0.5,0.8-0.7,1.2c-0.1-0.1-0.2-0.1-0.3-0.2c1.1-2.3,2.3-4.6,3.5-7.2
		c-2.6,0-5.1,0.2-7.5,0c-2.1-0.2-3.8,0.2-5.3,1.8c-0.6,0.6-1.5,0.9-2.4,1.4c0.2,0.2,0.4,0.3,0.5,0.3c-1.2,0.8-2.4,1.8-3.7,2.5
		c-1.4,0.7-3.2,0.5-4.4,2c0.9-0.1,1.6-0.3,2.3-0.4c0,0.2,0,0.3,0,0.3c-2.1,0.8-4.2,1.6-6.3,2.5c0-0.2,0-0.5,0-0.7
		c4.2-2.5,8.2-5.3,11.8-8.7c0.8-0.7,1.4-1.5,1.3-2.7c0-0.4,0.3-1.1,0.7-1.3c1.9-1.2,3.7-2.6,5.7-3.5c7.6-3.2,14.7-7.1,21.6-11.7
		c1.9-1.3,3.7-2.6,5.6-4c2.5-1.8,5.1-2.3,8.1-1.6c1.4,0.3,2.9,0.3,4.2-0.4c-0.1-0.1-0.2-0.2-0.3-0.2c0.4-0.7,0.7-1.6,1.3-1.9
		c2.9-1.6,5-4,6.6-6.8c0.3-0.6,1.2-1,1.9-1.3c0.6-0.3,1.3-0.4,2-0.5c1.6-0.3,2.8-0.6,3.4-2.5c0.4-1.4,1.8-2,3.3-2.3
		c0.8-0.2,1.5-0.5,2.3-0.8c-1,0.8-2.1,1.7-3.2,2.6c0.1-0.4,0.3-0.7,0.5-1.3c-1.4,0.5-1.4,1.6-1.8,2.8c0.9-0.4,1.6-0.7,2.3-1
		c0,0.1,0.1,0.2,0.1,0.3c-0.9,0.4-1.7,0.8-2.6,1.2c-0.1-0.4-0.1-0.6-0.2-0.9c-0.2,1.1-0.8,1.6-1.9,1.8c-1,0.1-2,0.5-3,0.7
		c-1.3,0.3-2.3,0.9-3.1,2.1c-0.9,1.4-2.1,2.7-3.1,4.1c-0.6,0.8-1.2,1.6-1.8,2.4c3.8-1.5,3.8-1.5,5.3-1.2c0.3-0.4,0.6-0.8,1-1.3
		c0.3,0.3,0.4,0.5,0.6,0.7c0.1-0.3,0.1-0.7,0.2-1.2c0.2,0.8,0.4,1.4,0.6,2c0.1,0,0.1,0,0.2-0.1c0.2-0.7,0.4-1.4,0.6-2
		c0.1,0,0.2,0,0.2,0c0.1,0.5,0.3,1,0.4,1.5c0.1,0,0.1,0,0.2,0c0-0.8,0-1.6,0-2.4c0.1,0,0.1,0,0.2,0c0.1,0.4,0.2,0.9,0.4,1.6
		c0.3-0.9,0.4-1.5,0.6-2.1c0.3,0.2,0.3,0.4,0.3,0.6c0,0.2,0,0.4,0.1,0.8c0.5-1.6,0.5-1.6,1.3-1.6c0,0.4,0.1,0.7,0.2,1.3
		c0.4-1.1,0.6-1.9,0.9-2.7c0.1,0,0.2,0.1,0.3,0.1c-0.2,0.9-0.4,1.7-0.6,2.6c0,0,0.1,0,0.1,0c0.5-1.3,1-2.5,1.4-3.8
		c0.4,0.2,0.6,0.4,0.7,0.4c1.4-0.6,2.9-1.1,4.2-1.8c1-0.6,1.9-1.3,2.6-2.2c0.5-0.7,0.9-1.3,2-1.4c-1.2,1.4-2.2,2.8-3.3,4.1
		c-1.3,1.5-2.7,2.8-4.1,4.2c-0.9,0.9-1.6,1.9-2.6,2.6c-0.9,0.7-1,1.6-1,2.5c0,0,0.3,0.1,0.4,0.1l0,0c-0.6,2.1,0,3.1,2.1,3.9
		c1.3,0.5,2.3,1.6,3.5,2.4l0,0c0,0.2,0,0.5,0.2,0.7c0.1,0.3,0.4,0.5,0.6,0.7c-0.1,0.1-0.2,0.2-0.3,0.2c-0.5-0.7-0.9-1.4-1.5-1.9
		c-0.5-0.5-1.2-1-1.9-1.4c-0.7-0.3-1.5-0.4-2.1-0.5c0.1,0.7,0.2,1.1,0.2,1.6c-0.4,2.4-1.4,4.7,0.1,7.2c1,1.5,1.4,3.4,2.1,5.1
		c0.2-0.5,0.2-0.9,0.1-1.3c-0.1-0.5-0.2-0.9-0.3-1.4c-0.1-0.4-0.2-0.8-0.3-1.2c-0.2-1-0.5-1.9-0.7-2.9c0-0.1,0.1-0.2,0.2-0.3
		c0.1-0.6,0.3-1.3,0.4-1.9c-0.1,0-0.2,0-0.3-0.1c-0.3,0.6-0.5,1.1-0.9,2c0-1.2-0.1-2.1,0-2.9c0.3-1.6,1.6-2.5,2.7-1.6
		c1.3,1,2.3,2.2,3.5,3.3c0.1,0.1,0,0.5-0.1,0.7c-0.5,1-1.1,2-1.7,3c0.1,0.1,0.2,0.1,0.3,0.2c0.6-0.7,0.5-2.2,2-1.7
		c0.2-0.4,0.4-0.8,0.6-1.3c0.3,0.6,0.5,1.1,0.8,1.7c-0.8,0.8-0.6,1.5,0.2,2.3c0.1,0.1,0.4,0.4,0.3,0.5c-0.5,1.3,0.3,1.3,1.2,1.2
		c0.2,0.8,0.1,1.3-0.6,1.7c-0.4,0.2-0.7,0.5-1.1,0.8c0.9,0.4,1.8-0.5,2.2,0.7c0,0,1.1-0.1,1.3-0.4c0.4-0.9,0.7-1.9,1-2.9
		c0.4-1.2,0.6-2.4,2-3c0.5-0.2,1.3,0.2,1.6-0.6c0.1-0.2,0.6-0.1,0.9-0.2c0.1,0.3,0.2,0.6,0.3,0.9c1.7-0.6,4,1.4,3.9,3.4
		c0.6,0,1.2,0,2,0c0.9,0.4,2.1,0.9,3.6,1.6c-0.4-2.2-0.8-4.1-1.2-6c-0.2-1.1-0.5-2.2-0.9-3.3c-0.3-0.9-0.4-1.7,0.3-2.5
		c0,0.1,0.1,0.2,0.1,0.4c0.1-0.7,0-1.4-0.2-2c-0.1-0.4-0.2-0.8-0.2-1.2c0-1.8,0.1-3.7,0.1-5.5c0-2.2,0-4.3,0.1-6.5
		c0.1-2.6,1.3-4.9,2.2-7.2c0.7-1.8,0.8-3.6-0.8-5.1c-0.1-0.1-0.2-0.3-0.3-0.5c1.4-1,2-1.8,2.3-3.5c0.7-3.1,0.6-6.1,0-9.2
		c-0.1-0.6-0.1-1,0.5-1.2c1.2,2.7,1.6,5.6,1.5,8.6c-0.3-1.2-0.6-2.3-1-3.7c-0.3,3.4,0.1,6.8-2.6,9.4c1.6,1.6,1.3,3.5,0.8,5.4
		c-0.3,1.2-0.6,2.5-0.8,3.8c-0.1,0.8-0.3,1.6-0.2,2.4c0.1,1.5,0.3,3,0.5,4.5c0.1-0.1,0.3-0.3,0.6-0.6c0,0.4,0,0.7,0,1
		c0.1,0,0.2,0,0.3,0.1c0.3-1.2,0.7-2.5,1-3.7c0.2-1.3,0.1-2.6,0.4-3.9c0.4-1.5,1.4-2.9,1.7-4.5c1-4.2,1.3-8.5,0.8-12.8
		c-0.2-1.8-0.6-3.5-1.7-5c-0.3-0.4-0.9-0.6-1.4-0.9c-1.6-0.3-2.7,0.8-3.7,1.7c-2.6,2.4-5.2,4.8-7.9,7.3c-1.4,1.3-2.5,2.9-4.1,3.7
		c-1.5,0.7-1.8,1.9-2.7,2.8c-0.5,0.5-1,0.9-1.5,1.4c-0.1-0.1-0.1-0.1-0.2-0.2c0.3-0.6,0.7-1.1,1.1-1.8C88,75.7,86.2,76.8,84.3,77.9z
		 M165.9,74.5c0.1,0.6,0.3,1.2,0.4,1.9c0.3-0.7,1.9-0.9,1-1.9C166.6,74.5,166.2,74.5,165.9,74.5c0-1.2-0.4-2.2-1.2-3.1
		C164.9,72.5,164.3,73.9,165.9,74.5z M174.1,76c-0.5,0.4-0.9,0.7-1.4,1.1c0.1,0.1,0.1,0.1,0.2,0.2c0.4,0,0.8-0.1,1.6-0.2
		c0.1-0.2,0.2-0.7,0.4-1.2C174.6,76,174.3,76,174.1,76c0.1-0.8,0.2-1.6,0.3-2.4c0.1,0,0.2-0.1,0.3-0.1c0.4,0.6,0.7,1.3,1.1,1.9
		c0.2-0.5,0.1-1,0.3-1.4c0.3-0.7,0.3-2.6-0.3-3c-0.4-0.4-0.8-0.8-1.5-0.5c-0.5,0.2-1.2,0.2-1.8,0.2c-0.1,0-0.2,0.1-0.4,0.2
		c0.4,0.1,0.8,0.1,1.2,0.2c-0.5,0.6-0.9,1.2-1.3,1.8c0.1,0.2,0.2,0.6,0.3,0.9c0.6-0.2,1.1-0.4,1.6-0.5c0.1,0.1,0.2,0.2,0.3,0.3
		c-0.8,0.9-1.6,1.8-2.4,2.8c-0.1-0.3-0.1-0.5-0.1-0.7c-0.1,0-0.2-0.1-0.4-0.1c-0.3,0.9-0.5,1.8-0.8,2.7c0.1,0.1,0.3,0.1,0.4,0.2
		c0.8-1.1,1.7-2.1,2.6-3.4C173.6,75.5,173.9,75.7,174.1,76z M204.1,111.5c0,0,0.1,0,0.1,0c0,0,0.1,0,0.1,0.1c0,0.2,0,0.4,0,0.5
		c0.3,0,0.5,0,0.8,0c-0.3,0.6-0.6,1.1-0.9,1.7c0.8-0.1,1.3-0.1,1.8-0.2c0.4,1,0.2,1.8-1,2.6c1.3-0.4,2.5-1.6,2.3-2
		c-0.4-0.8-0.2-1.6,0.2-2c0.6-0.8,0.4-1.6,0.2-2.3c-0.2-0.8-0.5-1.6-0.8-2.4c0.1,0,0.1,0,0.2-0.1c0.4,0.9,0.8,1.8,1.2,2.7
		c0.1,0,0.1-0.1,0.2-0.1c-0.1-0.8-0.2-1.5-0.3-2.3c0.7,1.3,1.2,2.6,1.3,4.3c0.3-0.4,0.4-0.5,0.7-1c0,0.5,0,0.8,0,1
		c0,0.4,0,0.7,0,1.1c0.4,0,0.9,0.1,1.3,0c0.2-0.1,0.4-0.7,0.4-1c-0.2-0.7-0.7-1.3-0.7-2c-0.1-2.1-0.4-4-2.1-5.6
		c-1.5-1.4-2.9-2.7-4.9-3.4c-1.7-0.6-3.3-0.8-5.1-0.7c-1.9,0.1-3.8-0.6-5.7-1c0.1,0.9,0.1,1.9,0.2,3c0.2,0,0.4,0.1,0.6,0.1
		c-0.5,0.8-0.5,0.9-0.3,2.1c0.2,1.2,0.8,2.4-0.5,3.4c0,0,0,0.2,0.1,0.3c0.3-0.3,0.7-0.5,1-0.7c0.1,0.1,0.1,0.1,0.2,0.2
		c-0.2,0.3-0.4,0.5-0.4,0.6c0.2,0.5,0.4,0.7,0.4,1c0,0.3-0.1,0.7-0.2,1c0.1,0,0.3,0,0.4,0c0-1.7,0-3.4,0-5.1c0.1,0,0.2,0,0.3,0
		c0,2,0,3.9,0,5.9c0,0.3,0.3,0.7,0.5,1c0.3-0.7,0.5-0.9,0.6-1.2c0.2-0.5,0.3-1,0.4-1.5c-0.1,0-0.2-0.1-0.3-0.1
		c0.3-0.2,0.6-0.4,0.9-0.6c-0.8-0.7-0.6-2.8,0.1-3.8c0.2,1,0.5,2.2,0.7,3.3c0.2,1,0.1,2.1,0.2,2.9c0.4,0.6,0.7,1.1,1,1.6
		c0.5-0.2,1-0.4,1.6-0.6c-0.1-0.1-0.2-0.1-0.3-0.2c0.2-0.6,0.5-1.1,0.6-1.7c0.2-0.6,0.5-1.2,0.4-1.8c-0.3-1.6-0.9-3.2-1.9-4.6
		c-0.3-0.4-0.5-0.9-0.7-1.3c0.1,0,0.1-0.1,0.2-0.1c0.6,0.9,1.2,1.8,1.8,2.7c0.1,0,0.1-0.1,0.2-0.1c-0.1-0.4-0.2-0.7-0.4-1.3
		c0.4,0.2,0.7,0.3,0.8,0.5c0.6,0.9,1.1,2,1.7,2.9C203.7,108.5,204.4,109.8,204.1,111.5c-0.3-0.1-0.6-0.3-1-0.4
		c0.3-2.2-0.2-3.6-1.8-5c0,1.1,1.7,1.8,0.6,3.1c0,0,0,0.2,0,0.2c0,0.5,0.1,0.9,0.1,1.4c0.1,1,0.1,2,0.2,3.1c0.1,0,0.2-0.1,0.3-0.1
		C203.7,113.4,203.6,112.2,204.1,111.5z M126.5,89.4c0.1,0.5,0.3,1.1,0.5,1.7c1.1-0.7,2.1-1.3,3.1-1.9c0-0.1-0.1-0.2-0.1-0.3
		C128.8,89.1,127.7,89.3,126.5,89.4c0.8-2,1.6-4,2.6-5.9c0.9-1.9,1.3-3.7,0.6-5.9c-0.7,1.2-1.3,2.3-2,3.4c-0.6,0.9-1.3,1-2,0.1
		c-0.1-0.1-0.2-0.2-0.3-0.4c-0.3,0.3-0.5,0.5-0.7,0.7c0-0.1,0-0.2,0-0.3c-0.5-0.1-0.9-0.2-1.4-0.2c-1.7,0-3.1,1-4.4,1.9
		c-1,0.7-2.2,1.5-2.8,2.5c-1.8,3.2-4,6.2-5,9.9c-0.6,2.1-0.2,4.1,0,6.2c0,0,0.1,0,0.1,0.1c0.1-0.5,0.2-1.1,0.4-1.7
		c0.3,0.3,0.5,0.6,0.7,0.8c0.1,0,0.1-0.1,0.2-0.1c-0.1-0.3-0.1-0.5-0.3-1c0.4,0.4,0.7,0.6,1.2,1.1c-0.3-0.6-0.4-0.9-0.6-1.4
		c0.3,0.1,0.5,0.1,0.7,0.1c0-0.1,0.1-0.2,0.1-0.2c-0.5-0.2-0.9-0.5-1.6-0.8c1.2,0.1,2.2,0.2,3.2,0.3c0,0.5,0.3,1,1.1,0.5
		c0.9-0.6,1.8-1.4,2.7-2.1c0-0.1-0.1-0.1-0.1-0.2c-0.6,0.3-1.2,0.6-1.8,0.9c2.1-1.6,4.3-3,6.6-4.2C125.1,92.4,126.3,91.3,126.5,89.4
		z M188.4,86.4c1.7,1.3,3.3,2.8,4.2,4.9c0.9,2.2,1.8,4.5,2.8,6.7c0.2,0.4,0.6,0.7,1.1,1.2c-0.7-1.9-1.4-3.4-1.9-5
		c-0.5-1.6-0.8-3.3-0.1-4.9c0.3,1.6,0.6,3.4,1,5.1c0.1,0,0.2,0,0.3-0.1c-0.1-0.8-0.1-1.6-0.2-2.4c0.1,0,0.1,0,0.2,0
		c0.2,1,0.3,2,0.5,3.1c0.1,0,0.1,0,0.2,0c0-0.3,0.1-0.6,0.1-0.9c0.2,0.3,0.4,0.5,0.7,1c-0.2-1-0.3-1.7-0.4-2.4c0.1,0,0.2,0,0.3,0
		c0.2,0.9,0.5,1.8,0.7,2.7c0.1,0,0.2-0.1,0.4-0.1c-0.2-1.9-0.5-3.7-0.7-5.9c1.7,1.8,0.6,4.1,2,5.7c-0.1-1.3-0.3-2.6-0.4-3.9
		c0.1,0,0.2,0,0.4,0c0,0.8,0,1.5,0.2,2.2c0.1,0.7,0.4,1.4,0.6,2.1c0.1,0,0.2,0,0.3-0.1c-0.1-0.9-0.2-1.7-0.3-2.6c0.1,0,0.1,0,0.2,0
		c0.2,0.9,0.5,1.9,0.7,2.8c0.1,0,0.2-0.1,0.3-0.1c-0.1-0.9-0.1-1.7-0.2-2.6c0.1,0,0.1,0,0.2,0c0.5,1.1,1,2.2,1.5,3.4
		c0.3-0.9,0.5-1.4,0.7-1.9l0,0c0.4,0.7,0.9,1.5,1.3,2.2c-0.1,0.2,0,0.2,0.2,0.2c0.3,0,0.5-0.1,1-0.1c-2.7-2.7-3.4-6.2-4.8-9.5
		c-0.1,0.4-0.2,0.6-0.3,1c-0.1-0.5-0.3-0.8-0.3-1.1c0.2-1.1-0.5-1.8-1.2-2.4c-2.6-2-4.9-4.2-6.5-7.5c0.1,1,0.2,1.6,0.3,2.2
		c-1-1.4-0.2-3.4-1.6-4.8c-0.1,0.3-0.1,0.6-0.2,0.7c-0.5,0.4-3.5-0.2-3.8-0.8c-0.6-1.3-1.3-2.7-1.8-4c-0.6-1.5-1.1-3.1-1.6-4.6
		c-0.3,1.3-0.6,2.5-0.8,3.8c-0.1,0.4,0.2,0.8,0.3,1.2c0.1,0.5,0.3,1.1,0.1,1.5c-0.7,1.1-0.4,2.2,0.1,3.1c0.6,1.2,0.8,2.4,0.7,3.7
		c-0.1,1.6,0.2,3.2,1,4.6c0.8,1.3,1.6,2.7,2.3,4.1c0,0.1,0.2,0.1,0.2,0.2c0.1,0,0.1-0.1,0.2-0.1c-0.5-1.1-0.9-2.3-1.4-3.4
		c0,0,0.1-0.1,0.1-0.1C187.5,85.2,187.9,85.8,188.4,86.4c0.3,1.5,0.7,3,1,4.5c0.2-0.1,0.4-0.1,0.6-0.2
		C189.4,89.3,188.9,87.9,188.4,86.4z M161.7,112.4c0.9,1.6,1.5,1.8,3.7,1.5c-0.4-0.1-0.7-0.4-0.8-0.3c-0.9,0.6-1.4,0-1.9-0.6
		C162.4,112.8,162,112.7,161.7,112.4c0.6-0.9-1.1-1.8,0-2.7c0,0,0-0.1,0-0.1c-1.2,0.1-0.3-1-0.8-1.4c-0.4-0.4-0.3-1.4-0.3-2.2
		c0-0.8,0-1.6,0-2.5c-0.1,0-0.2,0-0.2,0c0,0.5-0.1,0.9-0.1,1.4c-0.1,0-0.2,0-0.3,0c-0.1-1.1-0.2-2.3-0.3-3.4c-0.1,0-0.2,0-0.3,0
		c0,0.6,0.1,1.2,0.1,1.7c-0.1,0-0.2,0-0.2,0c-0.3-1.4-0.6-2.9-0.9-4.4c0.8,0.7,1.6,1.4,2.4,2.1c0.2,0.1,0.2,0.5,0.2,0.7
		c-0.1,1,0.5,1.5,1.4,2c-0.6-1.7-1.3-3.3-1.8-5c-0.8-2.6-1.6-5.3-2.3-7.9c0,0,0,0,0,0c0.1-0.5,0.2-0.9,0.2-1.4c0-1.5,0-2.9,0-4.4
		c0.2,0,0.4,0,0.6,0c0.1,2.5,0.2,5,0.4,7.5c0.1,0,0.3,0,0.4,0c0-1.3,0-2.6,0-3.9c0.1,0,0.2,0,0.3,0c0.1,1.8,0.2,3.5,0.3,5.4
		c0.6-0.4,1.3-0.8,1.9-1.2c0.6,1.7,0.1,3.1-0.5,4.5c0.5-0.3,1-0.5,1.5-0.8c0.1-0.5,0.1-0.9,0.2-1.4c0.1,0,0.2,0,0.2-0.1
		c0.4,0.9,0.7,1.9,1.1,2.8c-0.1,0.6,0.2,1.5-0.1,1.8c-0.8,1,0,1.5,0.5,2.2c-0.2,0.4-0.4,0.7-0.5,1.1c0.1,0.1,0.3,0.1,0.4,0.2
		c0.4-0.7,0.7-1.5,1-2.2c0-0.1-0.4-0.3-0.6-0.4c0.2-1,0.4-2,0.6-3c0.1,0,0.2,0,0.2,0c0.1,1.6,0.3,3.3,0.4,4.9c0.3,0,0.5,0,0.9,0
		c-0.4,0.3-0.6,0.5-0.8,0.7c0.3,0.7,0.6,1.2,0.9,1.9c-0.2,0.1-0.5,0.3-1.1,0.6c0.7-0.1,1.1-0.2,1.4-0.3c0,0.7,0.1,1.2,0.1,1.5
		c1.2,0.9,1.4-0.4,1.7-0.8c0.1-0.5,0.1-0.9,0.2-1.4c-0.1,0-0.3,0-0.3,0c0.2-1.8,0.5-3.5,0.7-5.2c0.2,0.9,0.2,1.8,0.2,2.7
		c0,0.9-0.3,2.1,0.2,2.7c0.7,0.8,0.5,1.4,0.3,2.3c-0.1,0.4-0.1,1.2,0.1,1.3c0.9,0.5,0.3,0.9,0,1.4c2.5-0.2,1.4-2.5,2.3-3.9
		c0.1,1.8,0.2,3.3,0.3,4.8c0.2,0,0.3,0,0.5,0c0.2-1.8,1.3-3.5,0.5-5.6c0.5,1.1,0.6,2.3,1,3.3c0.4,1-0.7,2.6,1.6,2.9
		c-0.7,0.4-1.1,0.6-1.5,0.8c0,0.1,0,0.1,0.1,0.2c0.5-0.1,1.1-0.2,2-0.3c-0.9,0.7-1.5,1.2-2.1,1.7c0.1,0.1,0.1,0.2,0.2,0.3
		c0.4,0.1,0.8,0.1,1.4,0.2c-0.6,0.3-0.8,0.4-1.1,0.5c1.6-0.1,2.2,0.9,2.6,2.3c0.1,0,0.2-0.1,0.3-0.1c0-1,0-2.1,0-3
		c0,0.1,0.2,0.3,0.4,0.8c0.3-0.7,0.5-1.2,0.6-1.4c1,2,2,4,3.1,6.4c0.4-0.9,0.7-1.4,0.9-1.9c0.4,0.8,0.7,1.6,1,2.3
		c0.1-0.3,0.2-0.7,0.4-1.3c0.3,0.7,0.6,1.2,0.8,1.5c0.3-0.2,0.6-0.4,0.8-0.5c-0.7-0.9-1.4-1.8-2.1-2.7c-0.1-0.2-0.4-0.3-0.6-0.3
		c-1.2,0.4-1.5-0.5-1.8-1.2c-0.6-1.2-1.1-2.5-1.7-3.7c-1.1-2.3-2.3-4.6-3.5-6.9c-0.8-1.6-1.5-3.4-2.6-4.9c-1.3-1.7-1.8-3.4-1.6-5.5
		c0.1-1.3-0.5-2.7-0.8-4.1c-0.1-0.4-0.3-0.8-0.5-1.2c0.1,0,0.1-0.1,0.2-0.1c0.4,0.7,0.8,1.3,1.1,2c0.1,0,0.2-0.1,0.4-0.1
		c0-0.3,0.1-0.7-0.1-0.9c-1.3-1.5-2.7-3-4-4.6c-0.9-1-1.9-1.3-3.1-1.1c-2.5,0.5-4-0.3-5-2.6c-1-2.1-1.9-4.2-3-6.3
		c-0.9-1.8-1.8-3.6-2.9-5.2c-1-1.5-2.6-1.5-3.9-0.3c-0.5,0.4-0.9,1-1.1,1.5c-1.2,2.6-3.3,4.2-5.9,5.4c-1.1,0.6-2.5,1.4-2.9,2.5
		c-0.7,1.7-1.4,3.3-2.7,4.6c-3,3.2-6,6.4-9,9.7c-1.3,1.5-1.8,3.3-2,5.5c2.9-4.5,6.9-8.5,8.7-8.9c-1.5,1.7-3.6,2.6-4.6,4.9
		c1-0.9,1.9-1.7,2.7-2.5c0.1,0.1,0.2,0.2,0.3,0.3c-0.8,0.9-1.5,1.9-2.3,2.8c0,0,0.1,0.1,0.1,0.1c0.8-0.8,1.6-1.6,2.4-2.3
		c0.1,0.1,0.2,0.2,0.3,0.3c-0.6,0.7-1.1,1.5-1.6,2.2c0.2-0.1,0.5-0.3,0.9-0.5c-0.6,1.5-2.5,1.9-2.1,3.6c0.8-0.9,1.6-1.8,2.4-2.6
		c0.1,0.1,0.2,0.2,0.3,0.2c-1,1.2-2.1,2.5-3.1,3.7c0.1,0.1,0.2,0.1,0.3,0.2c0.7-0.8,1.4-1.6,2-2.4c0.1,0.1,0.2,0.1,0.2,0.2
		c-0.8,1.1-1.5,2.1-2.3,3.2c0.1,0.1,0.2,0.1,0.2,0.2c1.1-1.2,2.1-2.4,3.2-3.5c0.4,0.1,0.8,0.2,1.2,0.3c-0.3-1.1-0.7-2-0.8-3
		c-0.1-0.9,0-1.9,0-2.9c0.1,0,0.2,0,0.4,0c0.3,1.7,0.6,3.4,0.9,5.1c0-1.5-0.8-3.1,0.4-4.5c0.2,1.5-0.8,3.3,0.9,4.7
		c-0.1-1.2-0.2-2.2-0.3-3.3c0.2,0,0.3,0,0.5,0c0.1,0.7,0.2,1.4,0.2,2.1c0.1,0,0.2,0,0.3,0c0.4-2-1.3-4-0.3-6.1
		c0.1,0.1,0.2,0.2,0.2,0.2c0.4,2.6,0.7,5.1,1,7.7c0,0.3-0.1,0.6-0.2,1c0.3,0,0.6,0,1,0c-0.8-2-1.2-4.1-1-6.1c0.1,0,0.2,0,0.4,0
		c0.1,1.4,0.3,2.9,0.4,4.3c0.1,0,0.1,0,0.2,0c0-1.4,0-2.9,0-4.3c0.1,0,0.1,0,0.2,0c0.3,2.3,0.5,4.6,0.8,6.9c0.1,0,0.2,0,0.3,0
		c0.1-0.2,0.2-0.5,0.4-0.8c0.2,0.6,0.4,1,0.5,1.5c0.3-0.1,0.6-0.1,1-0.2c-0.2,0.3-0.4,0.5-0.5,0.7c1.1,0.5,1.5-0.2,1.9-0.9
		c0.4,1.1,0.9,2.1,1.2,2.9c0.9,0.1,1.5,0.2,2.2,0.3c-0.1,0.2-0.2,0.3-0.4,0.7c0.7-0.5,1.1-0.8,1.5-1.2c0.3,0.7,0,1.8,1.2,1.4
		c0.2,0.7,0.5,1.3,0.7,2c0,0,0.1,0,0.1,0c0-0.4-0.1-0.9-0.1-1.1c1.4,2.3,3,4.8,4.5,7.3c0.1-0.1,0.2-0.1,0.3-0.2
		c-0.3-0.6-0.6-1.2-0.8-1.8c-0.2-0.6-0.4-1.3-0.5-1.9c0.1,0,0.2,0,0.2-0.1c0.5,1.3,1.1,2.6,1.6,3.9c0.1-0.1,0.3-0.1,0.4-0.2
		c-0.1-0.4-0.2-0.9-0.5-1.6c0.8,0.8,1.3,1.3,2,2c-0.2-0.5-0.3-0.8-0.4-1c-0.1-0.2-0.2-0.5-0.2-0.7c0.8,1,0.8,1,2.5,1.9
		c-0.3-0.6-0.6-1.3-0.9-1.9c0.1,0,0.1-0.1,0.2-0.1C161.3,111.9,161.5,112.2,161.7,112.4z M136.2,68.1c-0.1,0-0.2,0.1-0.4,0.1
		c-1-2.9-2.7-5.7-1.5-9c-0.2,0.7-0.5,1.5-0.7,2.2c0.2,1.6,0.6,3.3,1.1,5c0.5,1.4,1.1,2.8,1.6,4.3c0.1,0.2,0,0.5,0,0.9
		c-0.2-0.4-0.3-0.6-0.5-0.9c0,1.5,0.5,2.1,1.8,2.4c-0.1-0.4-0.2-0.9-0.3-1.3c0.1,0,0.2-0.1,0.3-0.1c0.2,0.6,0.5,1.2,0.7,1.9
		c1.3-0.7,1.2,0.6,1.9,1.1c0-0.7-0.1-1.2-0.1-1.8c0.1,0,0.1,0,0.2,0c0.2,0.7,0.4,1.4,0.6,2.2c0.2-0.2,0.3-0.3,0.5-0.5
		c0.4,1.2,0.8,2.3,1.2,3.4c1-0.6,1.9-1.1,2.9-1.6c0.7-0.4,0.9-0.9,0.7-1.6c-0.2-0.6-0.4-1.3-0.5-1.9c0.5,0.6,0.7,1.2,0.9,1.8
		c0.1,0.3,0.3,0.5,0.5,0.7c0.1-0.2,0.2-0.5,0.2-0.7c0-0.5-0.1-1.1-0.2-1.6c-0.3-0.9-0.6-1.8-0.9-2.6c0.1-0.1,0.2-0.1,0.3-0.2
		c0.4,0.3,0.9,0.7,1.3,1c0.3-0.4,0.5-0.7,0.9-1.3c0.1,0.8,0.3,1.5,0.4,2.2c0,0,0.1,0,0.1,0c0-0.8-0.1-1.6-0.1-2.5
		c0.3,0.3,0.4,0.5,0.6,0.7c0-0.5,0-0.9,0-1.2c0.5,0,1-0.1,1.6-0.1c0.1-0.7,0.2-1.3,0.3-2c0-0.6,0-1.2,0-1.8c0-1,0.1-1.9,0.1-2.9
		c0-1.1-0.1-2.2-0.2-3.3c0-0.3-0.1-0.7-0.2-0.7c-1.3-0.6-1-1.9-0.8-2.8c0.4-1.7-0.2-3.2-0.9-4.6c-0.4-0.8-1.1-1.4-1.5-1.9
		c0,1.2,0.1,2.5,0,3.7c-0.1,1.3-0.3,1.4-1.8,0.7c0.4,1,0.7,1.8,0.9,2.5c-0.3,1-0.5,2-0.8,2.9c-0.4,1.1-0.9,2.1-1.2,3.2
		c-0.3,1.1-0.2,2.2-0.4,3.3c-0.2,1.1-0.4,2.2-0.5,3.3c-0.1,0-0.3,0-0.4-0.1c0-2.6,0.1-5.1,0-7.7c-0.2-2.3-0.7-4.5-1-6.8
		c-0.1-0.4,0.1-0.9,0.1-1.3c0-1.1,0-2.1,0-3.5c0.5-0.5,1.7-1.1,1.2-2.5c-0.1-0.4-0.9-0.5-1.5-0.9c0.2-0.9,0.3-2.1-0.9-2.8
		c-0.9-0.5-1.3-1.3-1.4-2.3c-0.1-1.4,0-2.9,0-4.3c0-0.6-0.2-1.3-0.4-2.2c-2,3.5-3.7,6.6-5.5,9.8c0.3-0.1,0.5-0.2,0.7-0.3
		c0.1,0.1,0.1,0.2,0.2,0.3c-2.8,3.8-6.8,6-11,8.1c0.4,0.1,0.6,0.1,0.8,0.1c-2.5,0.8-4.2,2.5-6.1,4.2c-0.1-0.2-0.1-0.4-0.1-0.3
		c-1.9,1.8-3.8,3.6-5.6,5.3c0.6,0.5,1.4,1,2,1.6c0.7,0.7,1.2,1.6,1.7,2.2c1.1-1.3,2.4-1.2,3.8-1.3c-0.1,0.5-0.1,0.9-0.2,1.3
		c0.5-0.3,1-0.5,1.5-0.8c0,0.3,0,0.6,0,0.8c1,0,2-0.3,2.8,0.1c0.8,0.4,1.4,1.3,2,2c0.6-0.9,1.1-1.8,1.8-2.6c1.1-1.1,1.6-2.6,2.1-4
		c0.7-1.9,1.5-3.9,2.5-5.7c1.3-2.3,3.1-4.3,4-6.8c0.5-1.3,1.1-2.5,1.7-3.7c0.1,0.3,0.1,0.5,0.1,0.7c-0.3,0.8-0.6,1.6-0.9,2.4
		c-0.3,0.8-0.9,1.8-0.7,2.4c0.4,1.3-0.1,2.2-0.5,3.2c-0.8,2-1.5,4.2-2.4,6.5c0.5-0.2,0.7-0.3,0.7-0.3c-0.1,1.4-0.3,2.7-0.1,4
		C135.1,65.5,135.8,66.8,136.2,68.1z M120.7,71.7c0.3,1.2,2.1,1.5,1.1,3.1c0.1,0,0.3,0,0.4-0.1c0.2-1,0.3-2,0.5-3c0.1,0,0.2,0,0.3,0
		c0,0.7-0.1,1.4-0.1,2.1c0.1,0,0.2,0,0.2,0c0.1-0.5,0.3-1.1,0.4-1.6c0.1,0,0.1,0,0.2,0.1c0,0.5,0,1,0,1.7c0.3-0.4,0.5-0.6,0.8-0.9
		c0.3,0.3,0.5,0.6,0.7,0.8c0.1-0.2,0.3-0.5,0.5-0.8c0.3,0.3,0.6,0.6,1,1c0-0.9,0.1-1.8,0.1-2.7c0.1,0,0.2,0,0.3,0c0,0.8,0,1.6,0,2.4
		c0,0,0.1,0,0.1,0c0.1-0.6,0.1-1.2,0.2-1.9c0.1,0,0.2,0,0.3,0c0,0.5,0,1.1,0,1.6c0.1,0,0.1,0,0.2,0c0.1-0.5,0.1-1.1,0.2-1.6
		c0.1,0,0.2,0,0.4,0c0,0.8,0,1.5,0,2.3c0.1,0,0.2,0,0.3,0c0.1-0.4,0.2-0.8,0.3-1.2c0.1,0.2,0.2,0.3,0.4,0.6c0.3-1.5,0-2.5-1.1-3.3
		c-0.8-0.6-1.8-1.3-2.2-2.2c-1.1-2.1-2.7-2.4-4.7-1.9c-0.2,0-0.3,0.1-0.5,0.1c-2.7,0.4-5.1,0.2-6.4-2.6c-0.5-1-1.4-1.5-2.5-1.3
		c2.2,3.8,0.8,8,1.5,12c0-1.8,0-3.7,0-5.5c0.1,0,0.1,0,0.2,0c0.1,0.4,0.2,0.8,0.3,1.2c0.1,0,0.2,0,0.2,0c0-1.3,0-2.6,0-3.8
		c0.1,0,0.3,0,0.4,0c-0.1,2.6-0.2,5.1-0.3,7.7c0.1,0,0.2,0,0.3,0c0.1-1.5,0.2-3,0.4-4.5c0.1,0,0.2,0,0.4,0c-0.1,2.2-0.2,4.3-0.3,6.5
		c0.1,0,0.3,0.1,0.4,0.1C117.2,74.8,118.9,73.3,120.7,71.7z M191.1,108.2c0.1-1.7,1.7-3.1,0.5-4.8c0.1-0.4,0.2-0.9,0.3-1.4
		c0.2-1.1,0.4-2.2,0.6-3.3c0.1-0.7-1.6-2.7-2.4-2.7c-0.5-0.1-1-0.1-1.5-0.1c0-0.1,0-0.1,0-0.2c0.5-0.1,1.1-0.1,1.9-0.2
		c-2.2-1.1-3.8-0.1-5.4,0.7c0-0.1-0.1-0.3-0.1-0.4c1.1-0.5,2.3-0.9,3.4-1.4c0-0.1,0-0.2,0-0.3c-1.1,0.1-2.2,0.2-3.2,0.2
		c0,0,0.1-0.1,0.1-0.4c-0.4,0.2-0.8,0.4-1.1,0.6c0-0.1-0.1-0.1-0.1-0.2c0.3-0.3,0.6-0.6,1.1-1c-0.7-0.1-1.2-0.2-1.8-0.2
		c-1.6-0.2-3.3-0.3-4.9-0.5c-0.2,0-0.5,0.3-0.5,0.4c0.2,0.7,0.4,1.4,0.6,2.1c0.1,0,0.1,0,0.2-0.1c0-0.4,0-0.8,0-1.2
		c0.3,0,0.5,0,0.6,0c0.1,0.5,0.3,0.9,0.4,1.5c0.4-0.7,0.7-1.1,0.9-1.4c-1,3.2-1.6,7.3-0.8,8c0.6-2.8,1.2-5.5,1.9-8.6
		c0.3,0.6,0.7,1,0.6,1.2c-0.6,1.5,0.6,1.6,1.7,2c-0.3,1.4-0.6,2.8-0.8,4c0.7,0.1,1.5,0.3,2.5,0.4c-0.6,0.6-1,0.9-1.6,1.5
		c1.5-0.5,1.3,0.4,1.4,1.2c0.2-0.4,0.3-0.7,0.5-1c0.3,0.7,0.5,1.3,0.8,1.8c0.1,0,0.2,0,0.4,0c0.3-0.9-0.9-2.3,0.6-2.8
		c0.1,0.9,0.2,1.8,0.3,2.7c0.3,0,0.5,0,0.9,0c-0.2,0.4-0.4,0.6-0.5,0.8c0.2,0.1,0.4,0.2,0.4,0.3c-0.3,0.4-0.6,0.8-0.8,1.1
		c0.1,0.1,0.1,0.1,0.2,0.2c0.3-0.1,0.6-0.2,0.6-0.2c0.7,1.5,1.3,3,2.1,4.7c0.3-1.2,0.6-2,0.8-2.8
		C191.6,108.3,191.3,108.3,191.1,108.2z M119.4,111.2c-0.3-0.1-0.7-0.2-1-0.3c0.2-0.4,0.4-0.7,0.4-0.9c0-0.6,0-1,0-1.4
		c0.2-1.8,0.4-3.6,0.6-5.3c0-0.2,0-0.4-0.1-0.6c-1.5-1.7-3.2-3.2-5.9-3.9c0.4,0.9,0.6,1.4,0.9,2.2c-0.1,0.3-0.2,0.8-0.3,1.4
		c1.3,0,0.2,1.4,1,1.7c-0.6,0.6-1.3,1.3-0.6,2.1c0.4,0.6,1.1,0.9,1.5,1.3c-0.3,0.8-0.5,1.5-0.8,2.2c0.6-0.1,1.1-0.2,1.4-0.3
		c0.1,0.5,0.2,0.9,0.3,1.2c1.1-0.3,0.9,0.8,1.3,1.3C118.7,111.7,119.1,111.4,119.4,111.2z M151.9,54.9c1-1.2,0.2-2.5,0.2-3.9
		c0.4,0.8,0.7,1.4,1,2.2c0.1-1,0.1-1.7,0.2-2.3c0.8,1.8,1.6,3.6,2.4,5.6c0-1.8,0-3.2,0-4.7c0.1,0,0.2,0,0.3,0
		c0.1,1.2,0.1,2.4,0.2,3.7c0,0,0.1,0,0.1,0c0.1-0.8,0.2-1.7,0.3-2.8c0.8,0.8,1.5,1.3,2.2,2.1c-0.2-0.6-0.4-1-0.6-1.4
		c-0.5-1.6-1.5-2.4-3.2-2.5c-1.7-0.1-2.8-1-3.7-2.4c-0.6-1-1.2-2.1-1.7-3.2c-0.9-1.7-1.5-2-3.4-1.6c0.2,1.3,2.8,0.7,2.1,2.7
		c0.1-0.2,0.1-0.4,0.2-0.7c0.5,1.3,1,2.5,1.4,3.6c0.1,0,0.1,0,0.2-0.1c0-0.4,0-0.9,0-1.6C150.8,50.2,151.3,52.4,151.9,54.9z
		 M124.2,110.5c-0.1-0.4-0.2-0.7-0.2-0.9c0.2-1.6,0.5-3.2,0.8-4.9c-1.9,0.4-3.3-0.6-5-1.5c0.5,1.9-0.4,3.8,1.6,5
		c-0.4,0.4-0.7,0.8-1,1.1c0.3,0.1,0.5,0.1,0.8,0.2c-0.6,1.5,0.9,2.1,1.1,3.1C124.2,112.9,123.3,110.8,124.2,110.5z M80.4,117.4
		c0.3,0.1,0.5,0.1,0.9,0.2c-0.1-1.2-0.1-2.3-0.2-3.5c-2.1-2.3-2.1-5.7-3.7-8.4c-1,0.4-1.4,1.5-1.1,2.8c0,0.2,0.4,0.2,0.3,0.2
		c0.1,0.8,0.4,1.4,0.2,2c-0.2,0.8,0.8,0.5,0.8,1c0,0.4,0.1,0.8,0.2,1.1c0.1,0,0.1,0,0.2-0.1c-0.1,0.6-0.2,1.2-0.3,1.8
		c1.6-0.1,0.5-1.8,1.4-2.4c0.1,1,0.2,1.9,0.3,2.7c0.2,0,0.4,0.1,0.6,0.1c-0.3,0.5-0.5,0.9-0.9,1.5c0.7,0,1.2,0,1.8,0
		C80.7,116.9,80.6,117.1,80.4,117.4z M120.5,102.9c0.1,0,0.2,0.1,0.3,0.1c0.2-0.4,0.6-0.8,0.6-1.3c0.3-2.6,1.3-5,2.9-7
		c0.3-0.4,0.5-0.8,0.8-1.2c-3.7,0.9-6,3.7-8.8,5.9c1.3,0.8,1.6-0.4,2.3-0.8c0.7-0.5,1.4-1.1,2.1-1.6c0,0.1,0.1,0.1,0.1,0.2
		c-0.3,0.7-0.7,1.4-0.9,1.9c0.3,0.2,0.6,0.4,1,0.7c-0.7,0.6-1.3,1.2-1.9,1.8c0.1,0.1,0.1,0.3,0.2,0.4c0.5-0.2,1-0.5,1.8-0.8
		c-0.4,0.6-0.7,0.9-1.1,1.4c0.3-0.2,0.5-0.3,0.8-0.4C120.6,102.5,120.6,102.7,120.5,102.9z M86,107.6c-0.1,0-0.3,0-0.4-0.1
		c-0.2,1.1-0.4,2.2-0.6,3.3c-0.1,0.5,0,1.1-0.2,1.5c-0.7,1.4-1.6,2.8-2.5,4.3c0.5,0.3,1.3,1,1.6,0.8c0.7-0.4,1.5-1.1,1.6-1.7
		c0.3-1.7,0.1-1.7,1.5-1.6c0-0.5,0-1,0-1.5c-0.3,0.2-0.6,0.4-0.9,0.6c-0.1,0-0.2-0.1-0.4-0.1c0.2-1.1,0.5-2.2,0.7-3.3
		c0.1-0.6,0.2-1.2,0.3-1.8c-0.2,0.1-0.5,0.2-0.8,0.3C86,107.9,86,107.8,86,107.6z M185.7,89.1c0.1,0,0.3,0,0.4-0.1
		c-0.1-0.5-0.1-0.9-0.2-1.4c-0.4-1.2-0.9-2.3-1.2-3.5c-0.4-1.5-1.1-3-0.7-4.7c0.3-1.3,0.1-2.7-1.2-3.9c0.2,2.2-0.3,4.1-1.4,5.7
		c0.5,1.5,0.9,3.1,1.4,4.8c0,0,0.1,0,0.1,0c-0.2-0.8-0.3-1.6-0.5-2.4c0.1,0,0.1,0,0.2,0c0.4,1.2,0.7,2.4,1.1,3.6c0,0,0.1,0,0.1-0.1
		c-0.4-2.6-0.9-5.2-1.3-7.8c0.1,0,0.2,0,0.3-0.1C183.8,82.5,184.8,85.8,185.7,89.1z M99.7,110.3c-0.4,0.3-0.7,0.7-0.9,0.7
		c-1-0.3-2.2-0.4-2.8-1c-0.8-0.8-1.3-0.6-2.2-0.2c1,0.3,0,2.6,2,1.5c-0.3,0.7-0.6,1.3-0.9,2c0.3,0.1,0.6,0.2,0.9,0.3
		c-0.2,0.3-0.3,0.4-0.4,0.6c1.2,0,2.4,0.1,3-1.3c0.3-0.7,0.9-1.3,1.4-1.9C99.9,110.8,99.8,110.6,99.7,110.3z M161.9,67.2
		c-0.9-2.1-1.7-4-2.6-6.2c-0.6,2.5,1.7,3.6,1.6,5.6c-0.4-0.7-0.8-1.5-1.2-2.1c-0.1,1.7-0.3,3.4-0.4,5c0.2,0.2,0.5,0.5,0.7,0.8
		c0.5-0.5,0.4-1.9,1.8-1.5c-0.2-0.2-0.4-0.3-0.6-0.4C160.6,67.6,160.8,66.9,161.9,67.2z M130.2,71.9c0,0.9,0,1.7,0,2.6
		c0.1,0,0.1,0,0.2,0c0.1-0.4,0.1-0.7,0.2-1.2c0.2,0.4,0.3,0.7,0.4,1c0.3-0.2,0.6-0.4,0.9-0.7c0.4,1.6,2.6-0.5,3,1.7
		c0.3-0.5,0.8-1,0.7-1.2c-0.2-0.4-0.7-0.7-1.1-0.9C133.1,72.7,131.7,72.3,130.2,71.9z M132.1,66.7c0.1,0,0.2-0.1,0.3-0.1
		c0.8,1.9,1.5,3.9,2.3,5.8c0.1-0.1,0.3-0.1,0.4-0.2c-1-2.7-2-5.5-3-8.2c-0.2,0-0.4,0.1-0.7,0.1c0.1,0.9,0.2,1.8,0.3,2.6
		c0.2,1,0.4,1.9,0.6,2.9c0.1,0,0.2,0,0.3-0.1C132.5,68.7,132.3,67.7,132.1,66.7z M184.2,109c-0.4-0.2-0.8-0.5-1.3-0.8
		c0.9-1.1,1.8-1.1,2.8,0.1c0-0.9-0.1-1.5-0.1-2.5c-0.9,0.6-1.6,1-2.2,1.4c-0.4,0-0.9,0-1.5,0c-0.1-0.1-0.1-0.3-0.3-0.8
		c-0.2,0.6-0.4,1-0.5,1.5c0.5,0.1,0.9,0.1,1.4,0.2c-0.2,0.4-0.3,0.8-0.5,1.3C182.8,109.3,183.5,109.1,184.2,109z M150.9,106.8
		c-0.4,0.5-1.1,1-1,1.3c0.4,1.1,1.1,2.1,1.6,3c0.4-0.9,0.7-1.7,1-2.5C151.1,108.7,151.6,107.4,150.9,106.8z M130.7,83.4
		c-0.5,0.2-0.8,0.3-1,0.3c-0.3,0.9-0.7,1.6-0.9,2.3c-0.1,0.3,0.2,0.9,0.5,1c0.5,0.2,1.3-0.9,1.2-1.5c-0.1-0.3-0.1-0.7-0.2-1
		c0.1,0,0.1,0,0.2-0.1c0.2,0.4,0.4,0.9,0.7,1.5c0-0.3,0.1-0.4,0.1-0.5C131.1,84.7,130.9,84.1,130.7,83.4z M169.1,76.8
		c1-1.2,1.1-2,0.3-3.4C167.6,74.9,167.6,75,169.1,76.8z M140.3,77.4c0.1-0.1,0.3-0.3,0.3-0.4c-0.4-1.4-2.5-3.2-4.1-3.3
		c0.3,0.5,0,1.3,0.9,1.1c0.1,0.6,0.1,1.2,0.2,1.7c0.1,0,0.2,0,0.2,0c0-0.6,0.1-1.1,0.2-2.1C138.9,75.5,139.6,76.4,140.3,77.4z
		 M181.5,82.7c-0.1,1.7-0.7,3.5,0.2,5c0.3-0.2,0.6-0.3,0.9-0.6c-0.3-1.1-0.6-2.4-1-3.8C181.6,83.2,181.6,82.9,181.5,82.7z M168.9,82
		c0.7-0.7,1.3-1.3,1.9-1.8c-0.1-0.1-0.2-0.2-0.2-0.3c-0.2,0.1-0.5,0.3-0.7,0.5c0.1-0.5,0.2-0.8,0.2-1.2c0-0.2-0.1-0.5-0.2-0.7
		c-0.2,0.1-0.6,0.2-0.7,0.4c-0.3,0.7-0.5,1.3-0.6,2C168.4,81.3,168.7,81.6,168.9,82z M165.2,71.1c0.6,0.8,1.1,1.6,1.7,2.4
		c0.9-1.8,0.8-1.9-1.1-3.4C165.6,70.4,165.4,70.7,165.2,71.1z M187.6,111.4c-1.4,0.5-1.7,1.4-1.2,2.7
		C187.8,113.6,188.2,112.7,187.6,111.4z M155.2,67.1c-0.2,0.1-0.3,0.2-0.5,0.2c0.8,1.4,1.6,2.9,2.4,4.3c0.1-0.1,0.2-0.1,0.3-0.2
		C156.7,70.1,156,68.6,155.2,67.1z M123,79.5c0.4,0.2,0.7,0.3,1.3,0.6c0.4-0.4,0.8-0.9,1.2-1.4c-0.3-0.4-0.5-0.6-0.8-0.9
		C124.1,78.5,123.6,79,123,79.5z M176.7,93.4c0.2-0.3,0.3-0.6,0.5-1c-0.9-0.5-1.9-0.9-2.8-1.4c-0.1,0.1-0.1,0.2-0.2,0.3
		c0.4,0.4,1,1.3,1.3,1.2C176.3,92.3,176.3,93,176.7,93.4z M147.6,106.4c-0.5,0.4-0.9,0.8-1.4,1.2c0.7,0.5,1.4,0.9,2.2,1.4
		C148.1,108,147.8,107.3,147.6,106.4z M69.3,116.2c-0.5-0.2-0.7-0.3-1-0.4c0.5-0.3,0.9-0.5,1.4-0.7c-1.7-0.3-1.7-0.3-2.5,1.9
		C67.8,116.7,68.4,116.5,69.3,116.2z M75.5,115c-0.9-0.1-1.8-0.1-2.8-0.2C73.8,116,74.5,116.1,75.5,115z M108.5,105.9
		c0.1-1.3,0.2-2.7,0.3-4.1C107.6,103.1,108.1,104.5,108.5,105.9z M164.7,75.3c-0.6,0.7-0.9,1.2-1,1.3c0.4,0.6,0.6,1,1,1.7
		C164.7,77.2,164.7,76.4,164.7,75.3z M193,113.1c0.1,0.1,0.1,0.1,0.2,0.2c0.4-0.2,0.8-0.4,1.2-0.6c0-0.6,0-1.3,0-2.2
		c-0.5,0.6-0.9,1-1.3,1.4c0,0,0.1,0.1,0.1,0.1c0.3-0.2,0.6-0.4,0.9-0.7c0.1,0.1,0.1,0.1,0.2,0.2C193.9,112.1,193.4,112.6,193,113.1z
		 M75.9,116.2c-1.2,0.1-2.2,0.1-3.1,0.2c0.5,0.4,0.9,0.7,1.4,1.1C74.6,117.1,75.2,116.7,75.9,116.2z M60.3,122.5
		c-1.1,0.3-1.6,0.9-1.3,2c0.6-0.3,1.1-0.6,2-1c-0.6-0.1-0.9-0.1-1.2-0.1C59.9,123,60,122.8,60.3,122.5z M112.9,65.8
		C112.8,65.8,112.8,65.8,112.9,65.8c-0.1,2.4-0.1,4.9-0.1,7.3c0,0,0.1,0,0.1,0C112.9,70.7,112.9,68.2,112.9,65.8z M61.1,120.6
		c0-0.1-0.1-0.1-0.1-0.2c-0.8,0-1.5,0.1-2.4,0.1c0.1,0.4,0.2,0.7,0.2,1.1C59.7,121.2,60.4,120.9,61.1,120.6z M71.7,124.1
		c0.8-0.5,1.4-0.9,2.1-1.3c-0.8-0.1-1.5-0.2-2.2-0.2C71.6,123,71.7,123.4,71.7,124.1z M126.4,117.1c-0.1,0-0.2,0-0.4,0
		c-0.1,0.3-0.1,0.7-0.2,1c-0.2,0-0.5-0.1-0.8-0.2c-0.1,0.2-0.3,0.3-0.4,0.5c0.4,0.3,0.7,0.5,1.1,0.8c0.1-0.1,0.3-0.1,0.4-0.2
		C126.3,118.4,126.3,117.8,126.4,117.1z M72.7,119.2c1,0.7,1.2,0.7,2.5-0.7C74.3,118.8,73.5,119,72.7,119.2z M64.4,120.5
		c1.1,1.3,1.5,1.4,2.2,0.7C65.9,121,65.1,120.7,64.4,120.5z M126.8,102.8c0-1,0-1.8,0-2.6C126.1,101.1,126,101.8,126.8,102.8z"/>
	<path d="M44.2,111.9c0.5-0.5,1.1-1,1.6-1.5c1.9-1.6,3.8-3.1,5.8-4.7c0.4-0.4,1-0.6,1.6-0.8c-0.2,0.2-0.4,0.5-0.6,0.7
		c-1.5,1.6-2.9,3.4-4.7,4.6c-1,0.7-1.4,2.1-2.2,2.2c-1.4,0.2-1.4,1.5-2.5,1.9c0-0.2,0-0.4,0-0.6c-0.6,0.5-1.1,1-1.7,1.4
		c0,0-0.1-0.1-0.1-0.1c0.8-0.9,1.5-1.8,2.3-2.7C43.9,112.2,44,112,44.2,111.9z"/>
	<path d="M50.1,132c1.4-0.9,2.9-1.7,4.3-2.6c0.1,0.1,0.2,0.3,0.3,0.4c-0.7,1.2-2.1,1.8-3.4,2.5c0.1-0.2,0.1-0.4,0.3-0.8
		c-0.5,0.3-0.8,0.6-1.2,0.9C50.3,132.3,50.2,132.2,50.1,132z"/>
	<path d="M44.2,111.9c-0.2,0.2-0.3,0.3-0.5,0.5c-1.4,1.4-2.8,2.8-4.3,4.2c-0.1,0-0.1-0.1-0.2-0.1c0.7-0.9,1.4-1.8,2.1-2.7
		c-0.2-0.1-0.3-0.1-0.8-0.3C41.9,112.8,43,112.4,44.2,111.9z"/>
	<path d="M55.5,115.1c0.2,0.2,0.9,2.6,0.6,2.9c-0.2,0.2-0.7,0.3-1,0.4c0-0.3-0.1-0.6-0.1-0.9C55.2,116.7,55.3,115.9,55.5,115.1z"/>
	<path d="M78.9,94.8c0.9-0.6,1.8-1.3,2.8-1.7c1.9-0.9,4.2-1,5.6-2.8c0.5-0.7,1.1-1.5,1.2-2.3c0.7-3.9,2.8-6.6,6.1-8.8
		c1.4-0.9,2.4-2.6,3.1-4.1c1.3-2.7,2.9-5.1,5-7.3c1.1-1.1,1.8-2.7,2.6-4c0.2-0.3,0.4-0.6,0.8-0.7c-0.8,1.4-1.6,2.7-2.3,4.2
		c-1.7,3.5-3.4,7.1-5.1,10.6c-1.1,2.2-2.1,4.4-3.2,6.6c-0.2,0.3-0.7,0.5-0.8,0.8c-0.4,0.8-0.8,1.7-1.4,2.5c0-0.4-0.1-0.7-0.2-1.1
		c-0.1,0.8-0.2,1.5-0.3,2.5c0.4-0.3,0.7-0.6,1-0.8c0.1,0.1,0.1,0.1,0.2,0.2c-0.4,0.3-0.7,0.8-1.1,1c-1,0.5-1.4,1.2-1.7,2.2
		c-0.2,0.8-0.5,1.6-0.8,2.4c0.5,0.3,1.2,0.7,1.9,1.1c0,0.1-0.1,0.1-0.1,0.2c-0.2,0-0.4,0.1-0.4,0c-1.5-1.3-2.9-0.4-4.4,0
		c-0.8,0.3-1.5,0.4-2.4-0.1c-0.8-0.5-1.9-0.5-2.9-0.6C81,94.6,79.9,94.7,78.9,94.8C78.9,94.8,78.9,94.8,78.9,94.8z"/>
	<path d="M100.5,107c-0.9-0.3-1.7-1.2-2.8-0.5c-0.2,0.1-1.7,0.1-2.2-1c-0.2-0.4-1.5-0.7-2.1-0.6c-1.8,0.5-3.4-0.2-5.1-0.6
		c-0.2,0-0.3-0.4-0.4-0.6c1.6,0,3.2,0,4.9,0c-0.5-0.7-0.9-1.3-1.5-2.1c1.1,1,2,1.8,2.9,2.6c0.1-0.1,0.2-0.2,0.3-0.3
		c-0.4-0.4-0.7-0.8-1.1-1.3c1.3,0.6,2.2,2.5,4,1.7c0.4,0.3,0.8,0.5,1.2,0.8c0.6,0.4,1.3,0.9,1.9,1.3
		C100.6,106.5,100.5,106.8,100.5,107C100.5,107,100.5,107,100.5,107z"/>
	<path d="M100.5,107c1.4-0.2,2.5,0.5,3.5,1.3c-0.1,0.1-0.1,0.3-0.2,0.4C102.7,108.1,101.6,107.6,100.5,107
		C100.5,107,100.5,107,100.5,107z"/>
	<path d="M84.4,101.1c0.9,0.5,1.8,1.1,2.8,1.6C86.3,103.5,86.1,103.4,84.4,101.1C84.5,101.1,84.4,101.1,84.4,101.1z"/>
	<path d="M153.7,69.6c2.4,4.4,1.9,9.1,3.3,13.4c-1.1-3.4-2.1-6.7-3.2-10.2c0.4,0.4,0.7,0.8,1.1,1.2c-0.3-1.1-0.6-2.2-1.1-3.6
		c-0.4,0.7-0.6,1.1-0.9,1.6c-0.2,0-0.5-0.1-1-0.2C152.5,71.2,153,70.5,153.7,69.6z"/>
	<path d="M158.3,90.8c-0.5-2.2-1-4.5-1.4-6.7c0.1,0,0.2-0.1,0.3-0.1c0.2,0.7,0.5,1.4,0.6,2.1C158,87.6,158.1,89.2,158.3,90.8
		C158.2,90.8,158.3,90.8,158.3,90.8z"/>
	<path d="M139.8,36.7c-0.1,2.4-0.2,4.6-0.3,7c-0.2-0.4-0.5-0.8-0.7-1.3c-0.2,0.1-0.5,0.2-0.5,0.2c-0.4-0.4-0.7-0.7-1-0.9
		c-0.6-0.5-0.9-0.9-0.3-1.6C138,39.1,138.9,37.9,139.8,36.7z"/>
	<path d="M122.6,62.1c-0.3,0.6-0.7,1.2-1,1.8c-0.2-0.1-0.3-0.2-0.5-0.3c0.4-0.6,0.7-1.2,1.1-1.8C122.3,61.9,122.4,62,122.6,62.1z"/>
	<path d="M129,114.5c0.5-0.9-0.2-2,0.7-2.8c0.1-0.1-0.1-0.6-0.2-0.9c-0.5-1.1-0.4-1.9,0.2-3C129.5,110.1,131.6,112.5,129,114.5
		C128.9,114.5,129,114.5,129,114.5z"/>
	<path d="M203.5,94.6c-1-0.8-1.4-2-1.4-3.3C202.5,92.4,203,93.5,203.5,94.6C203.5,94.6,203.5,94.6,203.5,94.6z"/>
	<path d="M112.1,93.6c0.7-1.6,2-2.5,3.7-3c-0.4,0.3-0.7,0.6-1.2,0.9c0.2,0,0.3,0.1,0.7,0.2c-1.1,0.8-2,1.5-3,2.3
		C112.2,93.8,112.1,93.7,112.1,93.6z"/>
</g>
</svg>
