<?xml version="1.0" encoding="utf-8"?>
<!-- Generator: Adobe Illustrator 23.0.1, SVG Export Plug-In . SVG Version: 6.00 Build 0)  -->
<svg version="1.1" id="Слой_1" xmlns="http://www.w3.org/2000/svg" xmlns:xlink="http://www.w3.org/1999/xlink" x="0px" y="0px"
	 viewBox="0 0 238.1 150.2" style="enable-background:new 0 0 238.1 150.2;" xml:space="preserve">
<g>
	<path d="M210.3,67.9c0-1.9-0.5-3.7-0.7-5.6c-0.6-4.1-1.5-8.2-2.7-12.2c-0.7-1.5-0.8-3.2-1.3-4.7c-0.5-1.6-0.8-3.3-1.2-5
		c-0.4-1.5,0.5-2.9,0.7-4.4c0.5-2.9,0.9-5.9,1.4-8.8c0.3-4.8,0.1-9.6,0-14.4c-0.2-1.9-0.5-3.8-1.5-5.4c-1.3-2-3.9-2.3-6-2.2
		c-1.4,0-2.5,0.9-3.6,1.6c-2.4,1.2-4.1,3.5-5.8,5.6c-0.8,0.9-1.9,1.5-2.6,2.5c-1.3,2-3.6,2.9-5.2,4.6c-1.5-0.4-3.2-0.6-4.6-1.3
		c-1.3-0.5-2.7-0.3-4-0.6c-2.6-0.6-5.4-0.4-8.1-0.4c-3.1,0.1-6.2,0.2-9.2,0.4c-2.4,0.6-4.8,1.3-7.2,1.6c-1.2,0.1-2.3,0.7-3.4,1.2
		c-1.5-2-3.4-3.5-5.1-5.3c-3.1-2.4-5-6.2-8.7-7.8c-1.3-0.7-2.8-0.3-4.2-0.6c-1.3-0.4-2.3,0.8-3.4,1.3c-0.7,1.8-1.7,3.5-1.9,5.4
		c-0.3,1.9-0.4,3.8-0.8,5.7c-0.4,3.6-0.1,7.2,0.3,10.8c0.3,1.6,0.9,3.1,1,4.6c0.2,1.7,1.3,3.3,1,5.1c-0.2,1.4,0,2.9-0.5,4.3
		c-0.8,2.1-1.1,4.4-1.9,6.5c-0.9,2.2-2,4.3-2.1,6.7c0,0.9-0.2,1.8-0.4,2.7c-0.5,3.4-0.2,6.9-0.5,10.4c-0.2,1.8-0.1,3.6-0.2,5.4
		c0.3,5.8-0.5,11.8,0.7,17.5c0.5,2.4,0.7,4.9,1.6,7.2c0.6,1.6,0.5,3.4,1.5,4.9c0.8,1.4,2.1,2.5,3,3.7c1.7,2.2,3.4,4.5,5.6,6.3
		c2.3,2.4,4.1,5.2,6.4,7.5c2.9,3.3,6.1,6.3,9.5,8.9c1.2,0.9,2.1,2.2,3.4,2.9c1.3,0.8,2.6,1.7,3.9,2.6c1.2,0.9,2.2,2.1,3.4,2.9
		c2.3,1.7,4.3,3.8,6.3,5.9c1.5-1.8,3-3.5,4.5-5.2c1.3-1.5,3.3-2.1,4.9-3.2c2.4-1.7,4.9-3.2,7.2-4.9c4.3-3,8-6.8,12.2-10
		c2.5-2.1,4.8-4.5,7.1-6.8c1.8-2.5,2.9-5.4,4.1-8.2c2.4-6.6,3.5-13.7,3.7-20.7c-0.1-1.9,1-3.5,1.2-5.4c0.7-2.2,1.5-4.5,2.1-6.7
		C210.8,72.4,210.4,70.1,210.3,67.9z M203.5,35.6c-0.2,1.4-0.2,3-1,4.2c0-1,0.1-1.9,0.3-2.9c0.4-1.9,0.2-3.9,0.9-5.8
		c0.6-1.6,0.4-1.4,0.7-3.1c0.2-0.9,0.5-1.3,0.9-1C204.4,29.9,203.9,32.7,203.5,35.6z M196.9,35.6c-0.3,0.1-0.6,0.3-0.9,0.4
		c-2.8-1.2-5.7-2.3-7.8-4.6c-0.3-0.7-0.3-1.5-0.4-2.3c0.5-1.7,0.9-3.4,1.3-5.1c2.1-4.5,4.5-8.8,7.1-13c0.6-0.9,1.2-1.8,2.1-2.3
		c1-0.7,2.5-0.7,3.3,0.2c0.5,0.5,0.6,1.2,0.6,1.9c0.3,3.8,0.2,7.6,0.3,11.4c-0.5,2.1-0.6,4.3-1.6,6.3
		C199.8,31,198.9,33.7,196.9,35.6z M188.8,19.3c0.6-1.4,1.7-2.4,2.4-3.7c0.7,1.4-0.9,2-1.3,3.1c-0.4,1.1-1.4,1.9-1.2,3.2
		c-0.4,0.5-0.7,1.1-1.1,1.6l-0.1-0.5C187.8,21.8,188.3,20.5,188.8,19.3z M127.1,46c0.2-1.6,1.6-2.5,2.5-3.8c0.3-0.6,1.1-0.7,1.7-0.8
		c-1.5,1.6-3.1,3.3-4,5.3C127.3,46.5,127.2,46.1,127.1,46z M126.2,14.5c0.2-1,0.4-2,0.5-3.1c0.4,0,0.9-0.1,1.3-0.1c0-0.2,0-0.7,0-1
		c1.5,0.1,2.6,1.1,3.8,1.9c1.4,1.2,2.1,2.8,3,4.4c1.4,2.2,1.7,4.8,2.9,7.1c0.8,1.8,0.5,3.8,1,5.6c0.3,1.4,0.7,2.8,0.7,4.3
		c-0.1,0.1-0.4,0.2-0.5,0.3c-0.2,0.1-0.3,0.2-0.5,0.4c-0.4,0.3-0.5,0.3-0.8,0.5c-0.4,0.1-0.9,0.2-1.3,0.3c-1.6,0.4-3.1,1-4.4,2
		l-2.8-0.7c-0.2-0.1-0.7-0.2-0.9-0.2c0.1,0.5,0.2,1.1,0.2,1.6c-0.2-0.1-0.6-0.2-0.8-0.2c-0.8-1.4-1.2-2.9-1.5-4.4
		c-0.7-1.9-1.5-3.8-1.5-5.9C124.7,22.9,125.1,18.6,126.2,14.5z M139.9,21.5c1,1.7,1.3,3.7,1.8,5.5c-0.1,0-0.3,0.1-0.3,0.2
		c-1.4-0.9-1.1-2.9-2-4.2c-0.7-1.2-1.8-2.6-1.3-4c-0.2-0.6-0.3-1.2-0.5-1.8C138.2,18.6,139.1,20,139.9,21.5z M132.3,39.9
		c0.3-0.1,0.7-0.1,0.9-0.1c-0.6,0.5-1.2,1-1.8,1.6C131.7,40.8,131.3,40.3,132.3,39.9z M135.2,38.2c-0.5,0.4-0.9,0.8-1.4,1.1
		C133.5,38.4,134.4,37.8,135.2,38.2z M180,21.4c-0.7,1.6-3.4,2.4-5.5,1.8C175.9,22.6,178.5,21.6,180,21.4z M208.5,74
		c0.1,2.2-0.8,4.3-1.5,6.3c-0.6,1.9-1.5,3.7-2.3,5.5c-2.5-0.6-4.9-1.6-7.4-1.8c0,0.2,0,0.5,0.1,0.7c0.7-0.4,1.5,0,2.2,0.1
		c1.7,0.3,3.4,0.9,5.1,1.2c-1.1,2.8-3.1,5.2-4.6,7.8l-0.1,0c-1.2,0.2-1.7,1.4-2.4,2.2c-2.1,2.3-4.2,4.6-6.5,6.6
		c-2.8,2.5-5.2,5.3-8.1,7.7c-1.3,1.2-2.8,2.1-4,3.3c-0.7,0.7-1.3,1.6-2.3,2.1c-1.6,0.9-3.3,1.5-4.8,2.7c-1.9,1.6-4.3,2.5-6.4,3.7
		c-2.5,1.1-5.1,1.9-7.7,2.7c2.6,0.5,5.4-2,7.8,0c-0.3,0.3-0.6,0.7-1,1c2.2-1.2,4.7-1.5,6.8-2.9c2.8-1.5,5.1-3.7,7.9-5.2
		c2.5-1.5,4.8-3.2,7.1-4.9c2.9-1.9,6-3.3,8.8-5.5c-1.6,3.7-3.6,7.2-6.4,10.2c-2.2,2.5-4.1,5.3-6.8,7.3c-3.4,3.3-6.6,6.9-10.2,10
		c-3.2,2.7-6.4,5.3-9.6,7.9c-1-1.1-2.3-1.9-3.2-3c-0.1-0.8-0.5-1.4-1.1-1.8c-1.9-1.7-3.4-3.8-5.3-5.4c-1.9-1.6-3.4-3.7-5.2-5.5
		c-1.1-1.1-1.9-2.4-3.1-3.4c-1.4-1.1-2.3-2.6-3.5-3.8c-1.4-1.4-2.5-2.9-3.7-4.5c-1-1.3-1.4-3-2.2-4.4c-1.5-2.6-2.7-5.4-3.6-8.2
		c-0.3-0.7-0.1-1.4,0.1-2.1c1.4,1.5,2.9,2.8,4.5,4c2.5,2.2,5.4,4,8,6c1.8,1.3,3.8,2.2,5.6,3.4c0.1-0.1,0.4-0.3,0.5-0.3
		c-0.7-1-1.7-1.6-2.4-2.5c-1.7-2-3.7-3.8-5.8-5.3c-1.2-0.9-2.3-1.9-3.8-2.4c-1.3-0.7-2.2-1.9-3.2-3c-1.6-1.9-3.5-3.6-4.6-5.9
		c-0.2-1.5-1.1-2.6-1.7-3.9c-1-2.1-2.3-4-3.5-5.9c1.1-0.9,2.4-1.5,3.4-2.6c-1.3,0.6-2.3,1.5-3.5,2.1c-0.3-0.6-0.6-1.2-0.9-1.8
		c0.3-0.1,0.8-0.4,1.1-0.5c2-0.2,4-0.8,6-1c0.6,0,1.3-0.1,1.9-0.1c-0.7-0.6-1.7-0.3-2.6-0.3c-2,0.3-3.9,0.8-5.8,1.3
		c-0.2,0-0.7,0-0.9,0c-0.7-1.9-1.6-3.6-2.5-5.4c0.6-1.7,1.2-3.4,2.7-4.6c1.2-0.8,2.7-0.8,3.8-1.6c2.7-2.1,4.2-5.4,6.9-7.6
		c0.9-0.9,2.6-0.9,3.5,0c1,0.9,2,1.8,3,2.7c1.8,1.7,3.3,3.8,5.5,5c1.4,0.2,2.8-0.1,4.2,0c0.2,0.6,0.4,1.2,0.6,1.9
		c0.1,0.2,0.4,0.5,0.5,0.6c0,0.5,0.1,1,0.1,1.5c0.9-3.1,1.8-6.3,2.8-9.4c0.5-1.7,1.9-2.8,2.2-4.6c0.1,0,0.4,0,0.6,0
		c-1,3.1-2.5,5.9-3.4,9c-0.7,2.4-1.8,4.7-1.9,7.2c0.5-0.6,0.7-1.4,0.9-2.2c0.5-1.7,1-3.3,1.5-5c0.2-1,0.6-1.9,1-2.8
		c1.1-2.5,2.4-5,3.1-7.7c0-0.2,0.1-0.7,0.1-1c-0.3,0.3-0.6,0.7-0.9,1.1c-0.2-0.9-0.5-1.8-0.8-2.7c0.3,0.5,0.5,1.2,1.1,1.5
		c-0.4-1.5-1.2-2.9-2.1-4.2c-0.1,0-0.3,0-0.4,0c0.4,0.7,0.7,1.4,1.1,2.1c-1-1-1.8-2.3-3.1-3c-1.4-0.8-2.8-1.8-4.5-1.8
		c-1.5,0-2.9,0.3-4.2,1c-1.5,0.7-3.2,1.1-4.4,2.3c-0.5,1.1,0.7,1.8,1.3,2.5c1.5,1.7,3.4,3.2,5.6,3.9c1.8,0.3,3.6,0,5.4-0.2l0,0
		c0.1,0,0.2,0.1,0.3,0.1c-1.5,0.1-2.9,0.3-4.4,0.6c-1.3,0.4-2.6-0.4-3.7-0.9c-2.4-1.5-5-3.3-5.9-6.1c0.1-0.1,0.4-0.4,0.5-0.5
		c0.3,0,0.8,0,1.1,0c1.7-2,3.8-3.6,6.2-4.8c0.6-0.2,1-0.7,1.4-1.2c-1.2-0.1-2.4-0.1-3.5,0.4c0.9-0.6,2-0.8,3.1-1
		c-0.5-0.8-0.9-1.7-1.1-2.7c1,0.6,2,1.2,2.9,1.9c-0.4,1,0.2,2,0.9,2.7c1.2,0.1,2.7,0.7,3.6-0.3c0.4-0.5,1-1,0.9-1.7
		c-0.2-0.8-0.7-1.5-1.1-2.1c-1-1.4-1.7-3-2.8-4.3c0.4,0.9,0.9,1.9,1.3,2.8c-0.4,0.4-0.7,0.8-1.1,1.2l-0.2,0.1c-1-1.7-2-3.4-3.1-5
		l-0.4-0.2c1.1,1.8,2.2,3.6,3.2,5.4c0.1,0.2,0.3,0.5,0.3,0.7c-0.4,0.1-0.9,0.2-1.3,0.3c-1.2-0.8-2.4-1.6-3.6-2.3
		c0.1-1.1,0.1-2.2,0-3.4c-2,1.1-4.4,1.3-6.3,2.6c-1,0.6-1.8,1.6-2.6,2.5c-0.8,1-1.7,1.9-2.5,2.8c-2,2.5-3.5,5.4-5.4,8
		c-1.3,1.9-2.9,3.7-4,5.8c-0.4,1-0.8,2.1-0.6,3.2c-0.2,1.2-0.4,2.4-0.8,3.5c-0.4,1-1.6,1.3-2,2.4c-0.5,1.2-0.6,2.6-1.1,3.8
		c-0.1,0.1-0.4,0.2-0.5,0.2l-0.6,0.3c-1.1-5.9-0.6-12-0.7-18c0.4-1,0.8-1.9,1.1-2.9c0.6-1.9,1.6-3.7,2.2-5.6
		c0.5-1.9,0.9-3.8,1.5-5.7c0.2-2.5,0.7-5-0.2-7.4c-0.6-2-0.7-4-1.4-6c-0.4-3.6-0.6-7.2-0.4-10.8c0.5-2.4,0.5-4.9,1.1-7.2
		c0.4-1,0.8-1.9,1.2-2.9c0.1-0.6,0.8-0.8,1.2-1l-0.2,0.6c-0.8,1.6-1.7,3.3-1.9,5.1c-0.2,1.7-0.3,3.3-0.7,4.9
		c-0.3,2.3-0.1,4.6-0.1,6.9c-0.1,2.7,1.1,5.1,1.2,7.7c0.1,1.8,1.1,3.5,1.1,5.4c0.1,2.8-0.6,5.5-1.3,8.2c-0.7,3.3-2.2,6.4-3.3,9.5
		c-0.9,3.1-0.5,6.3-0.6,9.5c0,1.2,0,2.5,0.2,3.7c0.1-0.5,0.3-0.9,0.4-1.4c-0.1-1.4-0.1-2.8,0.3-4.1c0.7-2.2,1-4.5,1.9-6.6
		c0.6-1.5,0.6-3.3,1.2-4.8c0.9-1.5,1.5-3.3,2.8-4.5c0.1-0.2,0.4-0.6,0.6-0.8c0.4-0.1,0.7-0.1,1.1-0.2c0.9-1.8,2.1-3.3,3.6-4.6
		c0.4-0.3,0.5-0.7,0.7-1.1c0.8-0.8,1.7-1.5,2.7-2.1c0.3-0.3,0.6-0.6,1-0.8c1-0.6,1.8-1.3,2.6-2c1.2-0.4,2-1.4,2.7-2.3
		c0.7-1,1.6-1.9,1.7-3.2c0.2-0.4,0.4-0.8,0.6-1.2c0.2-0.4,0.4-0.7,0.6-1.1c1.3-0.6,2-2,2.9-3c0.6-0.5,1.2-0.8,1.8-1.2
		c0.6-0.3,1.2-0.6,1.2-1.4c-0.5-0.1-1-0.3-1.5-0.6c0-0.1,0-0.2,0-0.2c2.1,0.5,3.6,0.2,5.8,0.1c0.4,0,1.6,0,1.9,0.3
		c-0.2,0.2-0.3,0.4-0.5,0.6c1.9,1.1,2.6,3.3,3.8,4.9c1.8,2.2,1.8,5.1,2.9,7.6c0.5,1.1,1.2,2.1,1.4,3.2c0.5,3.8,0.6,7.7,1.6,11.4
		c0.7,4.1,0.8,8.3,0.9,12.4c-0.1,0.9,1,0.5,1.5,0.6c0.2-2,0.2-4,0.4-6c0.2-4.5-0.1-9,0.3-13.4c0-3.5,0.2-6.9,0.4-10.4
		c0.2-2.1,1.4-4,2.2-5.9c0.7-1.6,1.9-2.9,3.2-4c2.2,0.3,4.3,1.1,6.2,2c0.1-0.2,0.4-0.5,0.5-0.6l0.1-0.2c0.1,0.1,0.2,0.3,0.2,0.4
		c2.2,0.4,3.5,2.6,4,4.5c0.3,0.4,0.7,0.7,1,1c1.4,1.4,2.9,2.6,4.5,3.7c1.4,0.9,2.3,2.4,3.5,3.5c1.1,1,2.2,2,3.1,3.2
		c0.1,0.1,0.2,0.3,0.3,0.5c-0.2,0-0.5-0.1-0.6-0.1c1.5,2.2,3.1,4.5,5,6.4c0.9,0.9,1.6,1.9,2.3,3c-0.3-1.8-0.9-3.6-1.2-5.5
		c-0.2-1.6-1.7-2.7-1.4-4.4c1.8,2.3,2.2,5.2,2.8,8c1.4,3.7,2.1,7.6,2.8,11.4c0.6,4.1,1.3,8.3,1.2,12.5
		C209.3,73.5,208.9,73.8,208.5,74z M148.1,59.9c-2.5-0.7-4.7-2.3-6.1-4.5c2.2-1.2,3.9-3.5,6.5-3.6c3.2-0.3,5.5,2.5,6.9,5
		c-0.1,0.5-0.1,0.9-0.2,1.4c0.3-0.3,0.7-0.7,1.1-1c-0.2,0.7-0.4,1.4-0.6,2.2c-0.5,0-1,0.1-1.5,0.3C152.3,60.4,150.2,59.7,148.1,59.9
		z"/>
	<path d="M179.4,71.8c0.1,0.1,0.2,0.3,0.3,0.4c0.1-0.9,0.1-1.8,0-2.8c-0.1,0.3-0.2,0.6-0.3,1C179.3,70.8,179.3,71.3,179.4,71.8z"/>
	<path d="M160.6,57.6c0.1-3.9-1.8-7.5-3.6-10.9c-0.1-0.2-0.3-0.5-0.4-0.7c-0.1,0.7-0.1,1.3-0.1,2c1.4,2.6,2.6,5.3,3.4,8.2
		C160.2,56.7,160.4,57.1,160.6,57.6z"/>
	<path d="M149.1,55.1c-0.1-0.1-0.2-0.4-0.3-0.6c-0.2,0-0.6,0.1-0.8,0.1c0.1,0.3,0.3,0.7,0.5,1C148.7,55.5,148.9,55.3,149.1,55.1z"/>
	<path d="M184.4,57c1.3-0.5,1.9-1.8,2.4-3c-0.6-0.5-1.2-1.2-2.1-1.1c-0.2,0-0.6-0.1-0.9-0.1c-0.1,0.1-0.4,0.3-0.5,0.5
		c0,0.2,0,0.5,0,0.7c0.4,0.3,0.8,0.5,1.3,0.2c-0.1,1.6-2.1,2.4-3.5,1.8c-0.9-0.3-1.4-1.1-1.8-1.9c-0.6,0.8-1.1,1.7-1.5,2.6
		C179.9,57.9,182.4,58.1,184.4,57z"/>
	<path d="M181.2,85.1c0.2-0.5,0-0.7-0.6-0.6C180.5,85,180.7,85.2,181.2,85.1z"/>
	<path d="M155.1,86.8c0.1,0.4,0.8,0.8,1.2,0.7C156.7,86.8,155.5,86.6,155.1,86.8z"/>
	<path d="M203,78.3c-1.9-0.4-3.9-0.4-5.8-0.1c-0.2-0.2-0.4-0.4-0.6-0.5c-0.2,0.3-0.3,0.7-0.5,1c0.3,0.2,0.6,0.3,0.9,0.5
		c0.1-0.1,0.2-0.4,0.2-0.5c2.8,0,5.7-0.6,8.3,0.3c0.3-0.1,0.5-0.1,0.8-0.2C205.2,78.9,204.1,78.5,203,78.3z"/>
	<path d="M152.2,55.8c-0.3-1-2-1.2-1.8,0.2c0.2,0.1,0.5,0.4,0.7,0.5c0.1,0.2,0.2,0.5,0.2,0.7c-1.1,0.2-2.4,0.4-3.4-0.4
		c-0.8-0.4-1-1.4-1.3-2.2c-0.5,0.3-1,0.6-1.4,0.9c1.6,2.7,5.3,3.5,8.2,2.6C153.6,57.2,153.2,55.8,152.2,55.8z"/>
	<path d="M176,59.3c0.6,1.4,1.2,2.8,1.6,4.3c0.4,1.5,0.6,3,1.4,4.4c-0.2-2.6-1.1-5-1.9-7.4c0.1-0.2,0.3-0.6,0.4-0.8
		c0.5,0.6,0.9,1.2,1.4,1.8c0.3,2.8,1.5,5.5,2,8.3c0.2,1.4,0.6,2.7,1.1,4c1-2,1.4-4.3,2.7-6.3c1.2-1.9,2.2-4,3.7-5.7
		c1.7-1.3,3.5-2.5,5.1-3.9c1.7-0.7,3.7-0.3,5.5-0.1c1.7,0.2,3.2,1.4,4.4,2.6c-0.7-3.2-2.1-6.1-3.5-9c-0.7-1.2-1.8-2.2-2.7-3.4
		c-1.4-1.9-3-3.7-4.6-5.5c-0.3-0.4-0.9-0.5-1.4-0.6c-1.6-0.3-3.2-0.4-4.9-0.5c-0.1,0.2-0.2,0.5-0.2,0.6c0.3,0.4,0.5,0.9,0.8,1.3
		c-1.7,0.7-3.4,1.5-5,2.4c-0.4-0.1-0.8-0.3-1.2-0.4c1.2-1.8,2.7-3.3,4.4-4.7c1-0.9,2.2-1.6,3.3-2.5c-1.3,0.6-2.4,1.4-3.5,2.2
		c-1.8,1.4-3.5,3-4.7,4.9c-0.3-0.2-0.5-0.5-0.8-0.7c0.6-1,1-2,1.5-3.1c-0.6,1-1.3,2-1.9,3c-1.7,0.3-2.3,2-2.8,3.4
		c-0.2,0.6,0.2,1.4,0.8,1.6c0.8,0.5,1.5-0.4,2.3-0.6c1.2-0.3,2.7-0.2,3.4-1.4c0.3-0.5-0.2-1-0.4-1.5c1.4-0.7,2.7-1.4,4.1-2.1
		c-0.2,1.4-2.1,1-2.5,2.2c-0.3,0.5-0.5,0.9-0.7,1.4c1.3,0.4,2.7,0.7,3.9,1.4c0.9,0.8,1.6,1.8,2.4,2.7c-1.4-1.2-2.8-2.8-4.8-3.1
		c-1.4-0.2-3,0-4.1,0.9c-1.2,0.9-2.4,1.8-3.3,3.1l0.5,0c-0.6,1.2-1.2,2.5-2.4,3.2L175,56c0,0.1,0,0.2,0,0.3c0,1,0.6,1.9,0.9,2.8
		C176,59.1,176,59.3,176,59.3z M179.5,52.1c1.2-1.2,2.9-2.2,4.7-1.8c2.1,0.3,3.5,1.9,5.5,2.5c0.1,0,0.3,0.1,0.5,0.2
		c-0.3,1.9-1.9,2.9-3.1,4.1c-1.6,1.5-3.7,2.5-5.9,2.5c-1-0.5-2-1-3.1-1.4c-0.5-0.5-1-1-1.4-1.5C177.4,55.2,178.1,53.4,179.5,52.1z"
		/>
	<path d="M195.1,85.3c-1-0.3-0.8-0.2-1.5-0.5c-1.8-0.7-3.6-1.2-5.5-1.7c0.1-0.4,0.3-0.7,0.4-1.1c-0.2-0.5-0.3-1-0.5-1.6
		c-0.5,0-1.1-0.1-1.6,0c-0.5,0-1,0.1-1.5,0.1c0.1-2.1-1.1-4.1-3-5c-0.2,0.4-0.4,0.8-0.6,1.2c0,0.1,0.1,0.2,0.1,0.3
		c0.2-0.2,0.4-0.4,0.6-0.6c0.1,0.5,0.3,1,0.4,1.4c0.2,0.9,0.4,1.8,0.6,2.6c-1.4,0.3-3,0.2-4.1,1.4c1.3-0.6,2.7-0.9,4-1.1
		c0.1,0.8,0.2,1.7,0.3,2.5c-0.7-0.1-1.3-0.2-2-0.2c0.5,0.4,1.2,0.5,1.8,0.6l0,0.4c0.1,0.9,0.2,1.9,0.3,2.8c0,0.1-0.1,0.4-0.1,0.5
		c-0.7-0.5-1.4-0.9-2.3-1.3c0.6,0.6,1.4,1.1,2.1,1.6c-0.4,0.5-0.7,0.9-1.1,1.4c0-0.3-0.1-0.8-0.1-1.1l-0.3,0.5c-0.6-0.4-1.2-1-2-1.1
		c0.7,0.7,1.6,1.2,2.3,1.8c-0.3,0.3-0.6,0.6-0.9,0.9c-1.3,1.4-3.2,2.1-5.1,1.8c-1.9-0.3-3.8-0.6-5.5-1.4c-0.8-0.4-0.5-1.4-0.4-2.1
		c1.4-0.6,2.7-1.3,4-2c0.2,0.3,0.3,0.6,0.5,0.9c-0.1-0.3-0.1-0.6-0.2-0.9c0.3-0.2,0.6-0.5,0.8-0.7c1-0.9,1.3-2.3,1.8-3.6
		c0.6-1.4,0.6-2.9,0.9-4.3c-0.7-1.9-2.2-3.8-4.2-4.4c-2.5-1.4-5.5-0.9-8,0c-2,0.8-4.3,2.1-4.6,4.5c0,0-0.1,0.1-0.2,0.2
		c-0.2,0-0.5-0.1-0.6-0.1c0,2.2,0.5,4.4,1.8,6.2c0.8,1.2,1.6,2.4,2.9,3.1c1.1,0.6,2.3,1.2,3.5,1.9c-0.7,1.8-2.9,1.8-4.4,2.4
		c-2.1,0.8-4.3,0.8-6.5,0.5c0-0.4,0.1-0.7,0.1-1.1c-0.1,0.3-0.4,0.8-0.5,1c-1-0.5-1.8-1.1-2.6-1.8c-0.5-0.4-1-0.8-1.5-1.2
		c0.8-0.5,1.7-1,2.6-1.3c-0.1-0.1-0.2-0.2-0.3-0.3c-0.9,0.4-1.8,0.9-2.6,1.4c-1.6-1.7-3-3.5-4.4-5.4l-0.7-0.2
		c0.7,1.6,1.8,2.8,2.9,4.1c-0.1,0.1-0.3,0.4-0.4,0.6c0.7,1.6,1.4,3.2,2.2,4.8c-0.2,0.2-0.6,0.7-0.7,0.9c-0.8-1.8-1.3-3.8-2.5-5.5
		c0.1,1.7,1.1,3,1.5,4.6c0.3,1.2,1,2.2,1.6,3.2c0.5,1,1.1,2,1.7,2.9c0,0.2-0.1,0.7-0.1,0.9c0.2,0,0.6-0.1,0.8-0.1
		c0.2,0.7,0.4,1.4,0.6,2c-0.1,0-0.4,0-0.5,0c-1.7-2.2-3.6-4.3-5.1-6.7c-1.9-3-4.2-5.7-6.1-8.7c-1-1.2-1.9-2.4-2.5-3.8
		c0.2-0.1,0.7-0.4,1-0.6c2.8-0.5,5.7-0.5,8.6-0.2c0.1,1.2,0.2,2.5,0.8,3.6c0.1,0.3,0.3,0.4,0.7,0.3c-0.2-1.3-0.6-2.5-0.7-3.8
		c1,0.3,1.9,0.6,2.8,0.8c-0.7-0.7-1.7-0.8-2.6-0.9c0-0.3,0.1-1,0.1-1.3c1.7,0.4,3.2,1.2,4.9,1.3c-1.5-0.8-3.1-1.2-4.7-1.7
		c0.2-0.4,0.3-0.7,0.5-1.1c-0.1-0.1-0.3-0.2-0.3-0.3c-0.1,0.1-0.4,0.2-0.5,0.3c-0.1,0.2-0.2,0.6-0.3,0.8c-2.8-0.8-5.7-1.4-8.5-1.7
		c2.8,0.4,5.6,1.3,8.4,2c-0.1,0.5-0.3,1-0.4,1.4c-3-0.6-6.1-0.5-9,0.4c-1.2,0.3-1.5-1-2.1-1.8c-0.2,0-0.6-0.1-0.8-0.1
		c1.1,2.1,2.2,4.3,3.3,6.4c1.8,3,3.6,6,5.5,9c0.4,0.6,0.9,1.6,1.8,1.3c2.4,3.3,5,6.5,8.4,8.8l0.2-0.5c0.6,0.4,1.3,0.7,1.5,1.4
		c0.2,0,0.5,0,0.7,0.1c0.4,0.3,0.8,0.6,1.1,0.9c0.3,0.1,0.8,0.4,1,0.5c-0.2-0.3-0.5-0.9-0.7-1.2c0.5,0.3,0.9,0.7,1.2,1.2
		c0.5,0.8,1.3,1.4,2.3,1.5c1.6,0.2,3.3-0.1,4.9-0.7c0.4,0,0.7-0.1,1.1-0.1c0.4,0.1,0.9,0.2,1.3,0.3c1.7-1.1,3.8-1.3,5.4-2.5
		c4.3-3.2,7.5-7.5,11.2-11.5l0,0l0.1-0.1c2.3-2.7,4.4-5.5,6.6-8.3c1,0.5,2.1,1.1,3.1,1.5c-0.8-0.8-1.8-1.5-2.8-2
		C195.7,85.5,195.4,85.4,195.1,85.3z M185.1,80.8c0.6,0,1.2,0.1,1.8,0.1c-0.2,0.4-0.5,0.8-0.7,1.2c-0.1,0.2-0.3,0.6-0.4,0.8
		c0,0.2-0.1,0.4-0.1,0.6c-0.2,0.1-0.5,0.4-0.7,0.6c-0.1-0.1-0.4-0.3-0.6-0.5c-0.2,0-0.5,0-0.7,0c0-1,0.1-2,0.1-2.9
		C184.2,80.8,184.6,80.8,185.1,80.8z M170.2,91.6c0.6,0.3,1.2,0.5,1.9,0.7c-0.6,0-1.2,0-1.8,0.1c0,0.3-0.1,0.9-0.2,1.2
		c2.2,0.3,4.4,0.2,6.6,0.6c-0.1-0.4-0.2-0.7-0.3-1.1c0.2,0.1,0.6,0.2,0.8,0.2c-0.9,2.6-1.6,5.5-3.7,7.4c-1.2,1.1-2.9,1.3-4.5,1.2
		c-1.4-0.2-2.9-0.1-4.2-0.7c-1.1-0.3-1.8-1.3-2.6-2.1c-1.2-1.2-1.9-2.9-1.8-4.6c0.7,0,1.5-0.1,2.2-0.3c2-0.4,4-0.5,6-0.9
		c0.4,2.2,0,4.6,0.9,6.8c0.2-2.5-0.1-5,0.4-7.5C170.1,92.3,170.2,91.9,170.2,91.6z M181.7,100.3c-1,0.9-2,1.9-3.3,2.4
		c0.5-0.9,1.1-1.8,1.6-2.7c-0.1,0.4-0.2,1.2-0.2,1.5c0.3-0.3,0.6-0.6,1-1c0-0.2,0-0.6,0-0.8c1.7-2.7,3-5.7,3.7-8.9
		c1.2,1,2.5,1.8,3.6,3C185.8,95.8,184,98.4,181.7,100.3z M191.8,88.6c-1,1.8-2.8,3.1-3.8,5c-1-1.2-2.3-2.1-3.5-3.2
		c0.2-0.6,0.4-1.1,0.6-1.7c1.4,0.8,2.8,1.8,4.2,2.5c-1.4-1-2.9-1.9-4.3-2.8c0.2-1,0.4-2.1,0.8-3.1c0.8-0.2,0.7-1.3,1-1.9
		c0.2,0,0.5,0,0.6,0.1c2.5,0.3,4.8,1.2,7.1,2.2C193.5,86.6,192.5,87.5,191.8,88.6z"/>
	<path d="M179.4,84c0.2-0.6,0-0.7-0.6-0.6C178.7,84,178.9,84.2,179.4,84z"/>
	<path d="M159,85.3c0.2-0.5,0-0.7-0.5-0.6C158.2,85.3,158.4,85.5,159,85.3z"/>
	<path d="M177.1,85.8c-0.2,0.5,0,0.7,0.6,0.6C177.9,85.8,177.7,85.6,177.1,85.8z"/>
	<path d="M178.2,86c-0.1,0.6,0.1,0.7,0.6,0.6C178.9,86.1,178.7,85.9,178.2,86z"/>
	<path d="M159.7,86.7l-0.2,0.2C160,87.9,160.8,86.3,159.7,86.7z"/>
	<path d="M157.3,88.3c0.2-0.5,0-0.7-0.5-0.6C156.5,88.3,156.7,88.5,157.3,88.3z"/>
	<path d="M159.6,88.7c0.4,0,0.6-0.8,0.1-0.9C159.3,87.8,159.1,88.6,159.6,88.7z"/>
	<path d="M173.1,87.8c-0.1,0.5,0.1,0.7,0.6,0.6C173.9,87.8,173.7,87.6,173.1,87.8z"/>
	<path d="M171.5,90.2c0.5,0.3,1-1,0.4-1.1C171.5,89.4,171.3,89.9,171.5,90.2z"/>
	<path d="M157.4,89.7c-0.1,0.1-0.3,0.3-0.4,0.4C157.3,91.2,158.7,89.5,157.4,89.7z"/>
	<path d="M167,90.2c0.4-0.5-0.6-0.7-0.9-0.5C165.2,90.2,166.6,90.8,167,90.2z"/>
	<path d="M161.3,91.4c-0.2-0.6-0.2-1.4-1-1.4C160.5,90.5,160.5,91.5,161.3,91.4z"/>
</g>
</svg>
