<?xml version="1.0" encoding="utf-8"?>
<!-- Generator: Adobe Illustrator 26.0.3, SVG Export Plug-In . SVG Version: 6.00 Build 0)  -->
<svg version="1.1" id="Слой_1" xmlns="http://www.w3.org/2000/svg" xmlns:xlink="http://www.w3.org/1999/xlink" x="0px" y="0px"
	 viewBox="0 0 238.1 150.2" style="enable-background:new 0 0 238.1 150.2;" xml:space="preserve">
<g>
	<path d="M210.1,11.9c-0.6,0.6-1.1,1.2-1.4,1.9C209.3,13.3,209.8,12.6,210.1,11.9z"/>
	<path d="M199.7,53c-0.2-0.2-0.6-0.4-0.9-0.3c0,0.4,0.6,0.4,1,0.5C199.8,53.2,199.7,53,199.7,53z"/>
	<path d="M200,72.4c0.5,0.4,1.2,0.3,1.8,0.3C201.5,72,200.6,72.4,200,72.4z"/>
	<path d="M188.6,54.7c0.3-0.2-0.1-0.7-0.3-0.5C188,54.4,188.4,54.9,188.6,54.7z"/>
	<path d="M204.1,83c0.1-0.3-0.2-0.7-0.5-0.7C203.5,82.6,203.8,83,204.1,83z"/>
	<path d="M181.6,85.1c2,0.8,4.1,1.6,6,2.6c0.4,0.2,0.8,0.4,1.2,0.5c-0.5-0.5-1.1-0.7-1.8-1c-3.7-1.5-7.2-3.4-11.2-4
		c0,0.1,0,0.2,0,0.3c0.7,0,1.4,0.1,2,0.3C179.2,84.1,180.5,84.4,181.6,85.1z"/>
	<path d="M203.6,85.8c-0.3,0.1-0.5,0.4-0.6,0.6C203.2,86.8,204,86,203.6,85.8z"/>
	<path d="M181.3,123.6c-0.1,0.1-0.2,0.2-0.2,0.3C181.3,124.6,182.1,123.5,181.3,123.6z"/>
	<path d="M195.8,21.3c-0.1,0-0.3,0-0.4,0.1c0,0.1-0.1,0.4-0.2,0.6c0.1,0,0.4-0.1,0.5-0.2C195.8,21.7,195.8,21.4,195.8,21.3z"/>
	<path d="M175.5,75.3c-0.1,0.3,0.5,0.6,0.8,0.5C176.4,75.4,175.8,75.2,175.5,75.3z"/>
	<path d="M204.3,83.9c-0.1,0.6-0.3,1.2-0.3,1.8C205,85.7,205.3,84.1,204.3,83.9z"/>
	<path d="M200.1,123.1c-0.2,0.1-0.4,0.2-0.7,0.4c0.3,0.4,0.7,0.8,1.1,1.2c0.5-0.3,0.7-0.8,0.8-1.3c-0.1-0.1-0.3-0.2-0.4-0.3
		c-0.1,0-0.2-0.1-0.3-0.1c0-0.2,0.1-0.3,0.1-0.5c0.1-0.3,0-0.4-0.3-0.4c-0.1,0.1-0.2,0.2-0.3,0.2c-0.2,0.2-0.4,0.5-0.8,0.5
		c-0.4,0-0.4-0.4-0.6-0.6c-0.3,0.1-0.5,0.3-0.8,0.4c0.2,0,0.5,0,0.6,0.1c-0.5,0.2-1,0.4-1.3,0.9
		C198.2,123.1,199.1,122.8,200.1,123.1z"/>
	<path d="M200.8,47.3c0.1-0.9-1-1.1-1.7-1.4c-1.1-0.2-2.4-0.4-3.3,0.3c0.4,0.3,0.8,0.7,1.3,0.8C198.4,47.4,199.6,47.7,200.8,47.3z"
		/>
	<path d="M166.2,90.8c-0.3,1-0.7,2-0.6,3.1c0.1,0,0.2,0.1,0.2,0.1c0.6-1.5,1.1-3,1.6-4.5C166.8,89.7,166.4,90.2,166.2,90.8z"/>
	<path d="M200.1,125.8c0,0.1,0.1,0.3,0.1,0.4c0.5,0.1,0.9,0.1,1.4,0c0-0.2-0.1-0.5-0.1-0.6C201.1,125.5,200.6,125.6,200.1,125.8z"/>
	<path d="M177.9,128c0.6-0.5,0.9-1.2,1-1.9C178.2,126.4,177.8,127.3,177.9,128z"/>
	<path d="M186.3,28c0.5,0.1,0.9-0.3,1-0.7c-0.4-0.1-0.9-0.1-1.3-0.4c-0.2-0.4-0.3-0.8-0.6-1.1C184.8,26.7,185.5,27.6,186.3,28z"/>
	<path d="M174.3,65.5c-0.2,1.4,0.9,2.5,2,3.1c0.6,0.1,1.2,0.1,1.7,0.3c2.3,1.1,4.9,1.6,7.4,2.1c3,0.5,6.1,0.9,9.1,1.1
		c0.6,0,1.2,0,1.8,0c-0.4-0.4-1-0.4-1.6-0.4c-1.9-0.1-3.9-0.3-5.8-0.5c-1-0.1-1.9-0.6-3-0.6c-0.7,0-1.3-0.3-1.9-0.5
		c-0.9-0.4-1.9-0.5-2.8-0.8c-1.2-0.4-2.3-0.9-3.5-1.3c-0.6-0.4-1.2-0.9-1.7-1.5c0-0.1-0.1-0.3-0.1-0.3
		C175.6,65.5,174.9,65.4,174.3,65.5z"/>
	<path d="M208,78.5c0.5,0.5,0.9,1.1,1.6,1.2c0-0.1,0-0.3,0-0.4c-0.5-1.8-2-3.1-3.6-4c-0.5-0.2-1-0.3-1.5-0.2
		C205.7,76.3,207,77.3,208,78.5z"/>
	<path d="M189.4,29.3c0.1,0.3,0.2,0.6,0.4,0.9c0,0,0.1-0.1,0.1-0.2c0.8-0.7,1.7-1.4,2.1-2.4c0.1,0.3,0.5,0.6,0.2,0.9
		c-0.5,0.6-0.6,1.3-0.4,2c0.5-0.4,0.9-0.9,1.4-1.2c0.8-0.6,1.6-1.2,2.3-1.9c0.3-0.2,0.6-0.5,0.8-0.7c0.3-0.3,0.7-0.5,1-0.8
		c-0.2-0.5-0.3-1-0.3-1.5c0.1,0,0.4-0.1,0.5-0.1c0,0.3,0.1,0.7,0.1,1.1c0.1,0.1,0.2,0.2,0.4,0.3c0.4,0.6,1-0.4,0.2-0.3
		c0.4-0.6,0.9-1.3,1.1-2.1c-1.4-0.3-2.3,0.9-3.6,1.2c-0.4,0.2-0.8,0.4-1.2,0.6c-0.2,0.2-0.4,0.4-0.6,0.7l-0.1-0.1
		c0,0-0.1-0.1-0.2-0.1c-0.6,1-1.6,1.6-2.5,2.3c-0.4,0.3-0.7,0.5-1.1,0.7c-0.4,0.2-0.8,0.5-1.2,0.8c0.2,0,0.5-0.1,0.7-0.2L189.4,29.3
		z"/>
	<path d="M200.4,125.2c0.1,0.4,1.1-0.2,0.6-0.4C200.8,124.8,200.5,124.9,200.4,125.2z"/>
	<path d="M187.1,134.4c-0.2,0.6-0.3,1.2-0.2,1.8c0,0.3,0.1,0.5,0.1,0.8c0.3,0.1,0.6,0.1,0.9,0.2c-0.3-0.5-0.7-1-0.6-1.7
		c0-0.4,0-0.9,0-1.3L187.1,134.4z"/>
	<path d="M198.1,88.9c1.1-0.1,2.2-0.3,3.2-0.6c0.5-0.2,1.1-0.4,1.4-1c-0.6,0.2-1.2,0.7-1.8,0.8c-1.6,0.4-3.3,0.5-4.9,0.7
		c-1.8,0.1-3.7,0.2-5.5-0.2c0.3,0.2,0.6,0.4,0.9,0.4C193.7,89.4,195.9,89.1,198.1,88.9z"/>
	<path d="M212,79.3c-0.4-1.4-1.3-2.6-2.2-3.7c-2.9-3.4-7.4-5.2-11.8-5.7c-4.8-0.5-9.7-1-14.4-2.1c-1.6-0.4-3.3-0.8-4.8-1.5
		c-0.9-0.5-1.7-1.2-1.9-2.3c-0.2-1.2,0.4-2.3,0.6-3.4c0.2-1,0.6-2,0.8-3c0.5-1.1,0.6-2.3,1-3.4c0.2-0.6,0.2-1.3,0.7-1.7
		c0,1.3-0.3,2.6-0.1,3.8c0.2,2.7,1.8,5.2,3.8,7c1,1.1,2.3,1.8,3.5,2.6c1,0.7,2.2,0.9,3.3,1.3c1.1,0.5,2.4,0.3,3.6,0.3
		c1.1,0.1,2.1-0.4,3.2-0.7c1.1-0.3,2.2-0.8,3.1-1.5c1.3-0.6,2.5-1.6,3.6-2.5c0.9-0.8,1.6-1.8,2.3-2.7c0.4-0.9,0.9-1.8,1-2.7
		c0.3-0.5,0.2-1,0.2-1.6c0-0.9,0.1-1.9-0.1-2.8c-0.2-0.9-0.5-1.8-0.8-2.7c-0.3-1.3-1.2-2.4-1.9-3.5c-0.6-1-1.7-1.7-2.6-2.5
		c-0.9-0.7-2-0.9-3-1.4c0.7-1.5,0.5-3.2,0.5-4.8c-0.3-1-0.7-2-1.1-2.9c-0.4-1-1.1-1.7-1.8-2.4c0-0.2,0-0.4,0.1-0.6
		c1-2.1,2.8-3.6,4.3-5.3c0.6-0.6,0.5-1.5,0.6-2.4c0.2-1.1,1.4-1.6,1.9-2.5c-0.2-0.5-0.5-0.8-0.9-1.1l-0.1-0.1
		c-0.3-0.2-0.7-0.5-1-0.8c1.4-1.5,5.6-3.3,5.6-3.3c0.6-0.5,2-0.8,2.5-1.6c-0.7,0.4-1.6,1-2.5,1c-0.1,0.1-0.2,0.2-0.3,0.2l-0.5,0.2
		l0.6-0.6c0,0,0-0.1,0-0.1c0.2-0.8,1.1-1.1,1.3-1.9c-0.8,0.3-1.2,1.1-1.7,1.7c-0.4,0.5-5.3,3.8-5.3,3.8c-0.3-0.7-0.7-1.2-1.2-1.7
		c-1,0.1-1.8,1-2.9,1.1c-0.6,0-1.1-0.3-1.6-0.3c-0.5,0.1-0.9,0.4-1.3,0.6c-0.1,0-0.2-0.1-0.2-0.1c-2.3,2.1-5.4,2.7-8.3,3.4
		c-0.9,0.1-0.9,1.1-1.2,1.7c-0.6,1.4-1.2,2.7-1.6,4.1c-1,0.6-2.3,0.7-3.3,1.3c-0.8,0.5-1.5,1.1-2.3,1.7c-1.1,0.7-1.8,1.8-2.8,2.7
		c-0.8,0.8-1.4,1.9-2,2.8c-0.6,0.8-0.8,1.9-1.1,2.8c-0.4,1.2-0.1,2.5-0.3,3.8c-2.7,5.5-4.1,11.4-5.2,17.3c-0.2,1.9-0.2,3.7,0.3,5.6
		c0.4,1.1,0.8,2.3,1.4,3.4c0.9,1.6,2.1,3.1,3.4,4.4c2.4,2.1,5.3,3.4,8.3,4.2c5.4,1.6,11.1,2.4,16.8,2.6c2,0.2,4.1,0.4,5.7,1.8
		c0.5,0.4,0.5,1,0.5,1.6c-0.5,1.2-1.6,2-2.8,2.2c-2.6,0.4-5.3,0.7-7.9,0.6c-1,0-1.9-0.3-2.7-0.8c-2.7-1.4-5.5-2.8-8.3-3.8
		c-2.1-0.9-4.4-1.4-6.7-0.7c-1.4,0.2-2.6,1.2-3.8,1.9c-1,0.8-1.9,1.7-2.9,2.6c-0.8,1-1.5,2.1-2.2,3.2c-0.5,1.2-0.9,2.5-1.3,3.7
		c-0.1,1.7-0.4,3.4,0,5.1c0.1,1.9,1,3.7,2.1,5.3c1.2,1.6,2.4,3.1,3.9,4.5c1.9,1.6,4,2.8,6.3,3.8c1.6,0.6,3.2,1.3,4.9,1.8
		c1,0.3,2,0.6,2.9,0.9c3.1,0.9,6.2,1.7,9.4,2.3c0.7,0.2,1.5,0,2.2,0.3c-0.8,0.8-1.1,1.9-1.4,3c-0.2,0.9-0.2,1.8-0.3,2.6
		c-2.3-1.2-5-1.4-7.6-1.2c-2.4,0.2-4.8,0.9-6.7,2.3c-2,1.4-3.2,3.9-2.9,6.3c0.3,2.2,1.5,4.1,2.8,5.8c1.2,1.5,2.4,3.1,3.9,4.4
		c2.2,1.9,6.2,0.7,6.9-2.1c0.4-1.7,0.3-3.5,0.8-5.2l-0.2,0.1c-0.8,0.5-1.7,0.2-2.5,0l-0.1,0.1c0.6,0.5,1.5,0.8,2,1.5
		c0.1,1.3,0.1,2.8-0.9,3.8c-0.2,0.1-0.3,0.2-0.5,0.3c-1.1,0.5-2.5,0.5-3.5-0.3c-1.6-1.2-2.8-3-4-4.6c-0.5-0.8-1.1-1.6-1.1-2.5
		c0.1-0.6,0.7-0.7,1.1-0.9c0,0.4,0.1,0.8,0.3,1.1c0.8,1.3,1.8,2.5,2.7,3.7c0.1-0.1,0.3-0.3,0.4-0.4c0.4,0.4,0.8,0.8,1.2,1.3
		c-0.2-0.9-0.6-1.8-1.4-2.4c-0.8-1.4-2-2.7-2.5-4.2c0.2-0.2,0.4-0.4,0.7-0.6c0.4,0,0.7-0.2,1-0.3c1.9-0.4,3.9-0.4,5.8,0.2
		c0.7,0.5,1.6,0.8,2.4,0.9c0.5,0.1,0.9,0.5,1.4,0.5c1.6,0.4,3.3,0.8,5.1,0.7c1.1,0,2.1-0.5,3-1c0.5-0.3,0.8-1,1-1.5
		c1-2,0.1-4.2-0.1-6.3c1.3-1.1,2.6-2.2,3.2-3.8c0.4-0.9,0.3-2,0.1-2.9c-0.6-1-1.1-2.1-2-2.9c-0.8-0.7-1.5-1.6-2.5-2.1
		c-1.1-0.7-2.2-1.5-3.4-2c-5.2-2.6-10.9-3.8-16.3-6c-1.2-0.6-2.4-1.1-3.4-1.9c-1.4-1.1-2.4-2.5-3.5-3.8c-1.4-1.4-0.9-4.2,1-4.9
		c2.2,1.5,4.7,2.6,7.1,3.8c1.1,0.5,2.1,1.1,3.3,1.5l0.1,0c0.8,0.5,1.8,0.6,2.8,0.8c2.6,0.3,5.2,0.2,7.8,0c1.3-0.2,2.6-0.2,3.9-0.6
		c1.3-0.3,2.7-0.6,3.9-1.2c1-0.3,1.9-1,2.8-1.7c1.3-0.9,2.2-2.3,3.1-3.6c0.9-1.7,1.8-3.4,2-5.3c0.1-0.5,0.3-1,0.3-1.5
		C212.7,82.2,212.7,80.7,212,79.3z M188.5,69.6c0.8,0.2,1.7,0.2,2.5,0.3c1,0,1.9,0.7,3,0.5c-0.1,0.1-0.2,0.3-0.3,0.3
		c-2.2-0.3-4.5-0.5-6.7-1C187.4,69.3,188,69.5,188.5,69.6z M178.5,55.4c0.2-0.6,0.3-1.3,0.4-2c-0.4,0.5-0.7,1.1-1,1.7
		c-0.3,0.4-0.6,0.8-1,1.1c0-0.1,0-0.3,0-0.5c0.3-1.3,0.6-2.6,1-3.9c0.5,0,0.9,0.1,1.4,0.2c0.1,0.1,0.2,0.3,0.3,0.4
		C179.3,53.5,179,54.5,178.5,55.4z M181.6,53.2c0.1,0,0.3,0.1,0.4,0.1c0,0.6-0.1,1.3-0.1,1.9c0.3-0.5,0.4-1.2,0.6-1.8
		c2.2,0.5,4.5,0.7,6.7,0.4c0.1,0,0.2,0,0.3,0c-0.3,0.5-0.6,1-0.6,1.6c-0.1,0-0.3-0.1-0.4-0.1c-0.4,0.8-0.6,1.8-0.5,2.7l0.1,0.1
		c0.3,0.5,0.7,0.8,1.2,1.1c1,0.6,2,1.4,3.2,1.5c1.5,0.2,2.9-0.6,4.3-1.3c0.9-0.5,1.8-1.1,2.4-1.9c0-0.1,0.1-0.2,0.2-0.2
		c0-0.1-0.1-0.3-0.1-0.5c-0.2-0.1-0.5-0.1-0.7-0.2c0-0.1,0-0.2,0-0.2c0.2,0,0.5-0.1,0.7-0.1c0-0.1,0.1-0.4,0.1-0.5
		c0.1-0.5,0.3-1.1-0.1-1.6c-0.3-0.7-1-0.9-1.6-1.1c0.4,0.5,0.8,1,0.9,1.6c-0.2-0.2-0.4-0.4-0.6-0.6c-0.4,0.9-1.4,1.4-2.1,1.9
		c-0.9,0.6-1.7,1.2-2.8,1.4c-1,0.1-1.8-0.7-2.3-1.5c-0.4-0.6,0-1.4,0.3-2c1.9-0.1,3.8-0.1,5.6-0.6c0.2-0.2,0.5-0.3,0.7-0.5
		c0,0-0.1-0.1-0.1-0.2c0.4-0.1,0.8-0.2,1.1-0.3c-0.9-0.1-1.8,0-2.7,0.1l-0.2-0.2c0.5-0.1,1.1-0.3,1.6-0.4c0.3,0,0.5-0.1,0.8-0.1
		c1,0.2,2.4,0.2,2.7,1.4c0,0.6,0,1.2-0.1,1.8c-0.2,0.6-0.6,1.1-0.9,1.6c0.4,0.7,1,1.3,1.2,2.1c-0.1,1.1-1,1.9-1.8,2.5
		c-1.8,1.3-3.9,2.4-6.1,2.3c-2.1,0-4.1-1.1-5.8-2.3c-1.6-1.2-3.1-2.6-4.4-4.2c-0.2-0.4-0.8-0.4-0.8,0.1c-0.6-0.8-0.7-1.9-0.7-2.9
		C181.3,54.1,181.4,53.6,181.6,53.2z M193.7,59.5c-0.5,0-1,0.1-1.5,0.1c-1.4-0.8-2.5-2.2-2.6-3.9c0.3,0.6,0.4,1.4,1.1,1.9
		c0.5,0.4,1.1,0.7,1.8,1c-0.3,0.1-0.5,0.3-0.7,0.4C192.3,59.3,193,59.4,193.7,59.5z M200,65c-0.2,0-0.4,0-0.7,0.1
		c0.3-0.2,0.7-0.4,0.9-0.7c-1.5,0.6-2.9,1.3-4.3,2.1c1-0.1,1.9-0.7,2.9-1.1c-0.1,0.2-0.2,0.4-0.5,0.5c-1.1,0.7-2.4,0.8-3.6,1.1
		c-0.3-0.1-0.7-0.2-1,0c-0.9,0.4-1.9,0.4-2.8,0c-1.3-0.5-2.6-1-3.7-1.9c-1.6-1-3.2-2.3-4.1-4c0.3,0.5,0.7-0.1,0.2-0.3
		c-0.5-0.2-0.4-0.7-0.2-1.1c0.4,0.6,0.8,1.2,1.3,1.8c2,2.1,4.4,3.8,7.2,4.5c1.5,0.3,3.1,0.3,4.6-0.2c2.2-0.5,4-1.8,6.1-2.5
		C201.7,64,200.8,64.6,200,65z M198.2,35.8c0.5,1,1.1,2,1,3.2c0,1.1,0.2,2.2-0.4,3.1c-0.4-0.3-0.9-0.5-1.3-0.8
		c-0.2,0.3-0.5,0.7-0.7,1c0.6,0.3,1.4,0.4,2,0.5c-0.7,0-1.5,0.2-2.1-0.4c-0.4-0.4-0.8-0.4-1.3-0.3c0.1,0.2,0.3,0.4,0.4,0.6
		c-0.1,0-0.4-0.1-0.6-0.1c-1.1-0.6-2.3-0.1-3.5-0.3c0.7-1.1,1.8-2.2,2-3.6c0.1-0.4,0-0.8-0.1-1.2c-0.2-0.2-0.3-0.4-0.5-0.5
		c-0.3,0.2-0.2,0.5-0.3,0.8c-0.2-0.1-0.4-0.2-0.6-0.4c0.2,1-0.5,1.7-1,2.5c-0.1-0.2-0.2-0.4-0.3-0.6c0.3-0.3,0.7-0.6,1-0.9
		c-0.3-0.4-0.5-0.8-0.7-1.2c0-0.5,0.5-0.5,0.8-0.6c-0.2-0.2-0.4-0.4-0.6-0.7c0-0.1,0.1-0.2,0.2-0.3c-0.1-0.2-0.2-0.4-0.2-0.6
		c0.2-0.1,0.3-0.2,0.5-0.3c0,0.2,0.1,0.4,0.1,0.6c0.1,0,0.3,0,0.4,0c0.1,0,0.2,0,0.3-0.1l0.1,0c0.3,0,0.6,0,0.8,0
		c0.2,0.2,0.5,0.5,0.7,0.7c0-0.2,0.1-0.5,0.1-0.7c0.1-0.1,0.4-0.2,0.5-0.3l0.2,0c0.7,0.7,1,1.8,1.9,2.3c0.1-1.2-0.4-2.4-1.4-3.1
		c0.2-0.3,0.4-0.7,0.6-1C197.1,34.1,197.8,34.9,198.2,35.8z M184.1,42.4c0.6-0.4,1.1-1,1.7-1.5c0,0.7-0.6,1.1-0.9,1.7
		c0.2,0,0.6,0.1,0.7,0.1c1.9-1.6,3.4-3.8,5.8-4.9c-0.5,2.3-3,3.2-4.2,5c0.9,0.1,1.7,0.1,2.6,0c0.4-0.2,0.7-0.6,1.1-0.9
		c-0.3,0.8-1.2,1.2-2.1,1.2c-0.2,0.7-1,0.4-1.5,0.4l0-0.2c0.4,0,0.8-0.1,1.1-0.1c-0.2-0.3-0.6-0.2-0.9-0.2c-1.9-0.1-3.8-0.3-5.5-1.2
		c0.3-0.2,0.5-0.5,0.8-0.7c-0.1,0.3-0.2,0.6-0.2,0.9c0.4-0.1,0.7-0.3,1-0.5c-0.2,0.2-0.3,0.4-0.5,0.6
		C183.4,42.3,183.7,42.5,184.1,42.4z M186,39.9c0.3,0.1,0.3,0.3,0,0.4C185.7,40.2,185.7,40,186,39.9z M190.7,35.5
		c0.2-0.2,0.6-0.1,0.7,0.2C191.4,36.1,190.6,35.8,190.7,35.5z M191.2,37c-0.1,0.6-0.7,0.4-1.1,0.4c0.1-0.2,0.1-0.4,0.2-0.6
		C190.6,36.9,190.9,37,191.2,37z M189.6,34.8c0.1-0.2,0.3-0.5,0.4-0.7c0.3,0.2,0.6,0.4,0.9,0.6C190.5,34.7,190,34.8,189.6,34.8z
		 M186.7,40.1c0.7-0.8,1.4-1.5,2.3-2.1c-0.4,0.7-1.1,1.2-1.6,1.8C187.2,40,186.9,40.2,186.7,40.1z M189.3,44.1
		c-0.2,0.1-0.9,0.1-0.7-0.3c0.1,0,0.2-0.1,0.3-0.1C189.2,43.6,189.8,43.9,189.3,44.1z M181.8,40.9c0.3-0.5,0.7-0.9,1.2-1.1
		C182.7,40.3,182.3,40.6,181.8,40.9z M173.4,37.5c0.9-1.4,1.8-2.9,3-4.1c1-1.4,2.5-2.3,3.8-3.3c1-0.8,2.4-0.9,3.5-1.5
		c0.4-0.8,0.5-1.7,0.9-2.4c0.5-0.8,0.9-1.7,1.4-2.6c1.1-0.7,2.4-0.7,3.5-1.1c0.7-0.3,1.4-0.4,2.2-0.4c0.5,0,0.6-0.6,0.9-0.9
		c0,0.3,0,0.5,0,0.8c-0.2,0.2-0.5,0.3-0.7,0.5c0,0.3-0.1,0.5-0.1,0.8c0.6,0.3,1.5,0.3,1.9-0.4l0.1-0.1c0.6-0.7,1.3-1.4,1.4-2.4
		c0.3,0,0.6,0.1,0.9,0.1c-0.3-0.5-0.7-0.9-1.2-1.3c1.2-0.7,2.5,0.2,3.7-0.5c0.6-0.2,1.1-0.6,1.7-0.7c1.1,0.9,1.4,2.4,2.6,3.2
		c0.1,0.3,0.3,0.6,0.2,0.9c-0.5,0.8-1.4,1.3-1.8,2.2c-0.2,0.8-0.1,1.7-0.8,2.3c-0.2,0.1-0.4,0.3-0.5,0.4c-0.3-0.3-0.7-0.5-1.1-0.8
		c0.2,0.2,0.3,0.5,0.5,0.7c-0.1,0-0.3,0-0.5,0c-0.6-0.2-0.6,0.3-0.1,0.5c-0.5,0.3-1.2-0.3-0.7-0.7c-0.7,0.1-2,0-2,1.1
		c-0.2,0.6,0.4,1,0.8,1.3c-0.2,0.4-0.5,0.8-0.8,1.1c0,0.4-0.1,0.8-0.3,1.1c-0.4,0.9-0.8,1.8-1.6,2.3c-0.3,0.2-0.6,0.4-0.9,0.6
		c-0.2,0.1-0.5,0.1-0.7,0.2c0-0.1-0.1-0.3-0.1-0.4c-0.2,0-0.4,0-0.6,0c0,0.1-0.1,0.4-0.1,0.6c-0.4-0.7-1.6-0.9-1.4-1.9
		c0.3-0.7,0.8-1.2,1.2-1.8c0.1-0.2,0.2-0.3,0.3-0.5c-0.1-0.1-0.4-0.2-0.5-0.2c-0.6,0.4-1.2,1-2,1c0-0.4,0.1-0.8,0.1-1.2
		c-0.1,0-0.3,0.1-0.4,0.2c-0.1,0.2-0.2,0.4-0.4,0.6c-0.3,0.1-0.5,0.4-0.6,0.6c0,0.3,0,0.6,0,1c0.3,0.3,0.7,0.5,1,0.8
		c0,0.6-0.4,1.1-0.7,1.5c-0.5-0.8-0.9-1.7-1.8-2.2c-0.3-0.2-0.5-0.4-0.8-0.6c-0.3,0.4-0.6,0.9-0.7,1.5c0.4-0.2,0.7-0.4,1.1-0.6
		c0.2,0.2,0.5,0.5,0.7,0.7l0-0.2c0.5,0.6,0.9,1.3,1.2,2c0,0.1,0,0.4,0,0.6c0.1,0,0.4-0.1,0.5-0.2c-0.4,0.7-1,1.3-1.7,1.6
		c0.1-0.2,0.2-0.4,0.3-0.7c-0.3,0.2-0.6,0.4-1,0.6c0.2,0,0.6,0.1,0.8,0.2c-0.4,0.5-1.1,0.2-1.6,0.6c-1.1,0.8-2.1,1.6-3.2,2.2
		c-0.3,0.2-0.8-0.1-1,0.2c-0.6,0.4-1,1.1-1.8,1.1c-0.1,0-0.2,0-0.3,0c-0.2,0-0.5,0-0.7,0.1c0,0.3,0,0.7,0.2,0.9
		c0.6,0.7,1.1,1.8,2.2,1.9c0.2-0.5-0.1-1-0.4-1.4c0-0.1,0.1-0.2,0.2-0.3c0.2,0.2,0.4,0.3,0.6,0.4c0.1,0.1,0.2,0.3,0.4,0.4
		c1.5,0.9,3.4,1,5.1,1.2c1.3,0.2,2.5,0.3,3.8,0.2c0.2-0.3,0.5-0.5,0.7-0.8c0.2,0.1,0.4,0.2,0.6,0.3c-0.3,0.1-0.6,0.3-0.9,0.4
		c1.1-0.1,2.2-0.4,3.3-0.4c1.1,0.1,2.2-0.1,3.3-0.1c-1-0.2-2.1,0.1-3.1,0c-0.3-0.3-0.6-0.6-0.9-0.9c0.4-0.1,0.8-0.3,1.3-0.3
		c0.6,0.1,1.1,0.2,1.7,0.3c1.7,0.3,3.5,0.6,4.9,1.7c1.8,1.3,3.5,2.9,4.4,5c0.9,1.7,1.3,3.7,1.4,5.6c-0.1,0-0.2,0-0.3-0.1
		c-0.9-1.8-1.8-3.8-3.4-5.1c-0.9-0.8-2.2-0.9-3.4-1c-1.3,0-2.6,0.1-3.9,0.2c-3.4,0.2-6.7,0.4-10.1,0.2c-3.3-0.4-6.7-1.4-9.3-3.6
		c-1-0.8-1.8-1.8-2.5-2.8c-0.5,0.1-1,0.3-1.4,0.5C172,41.8,172.4,39.4,173.4,37.5z M180.1,83.2c-0.8-0.2-1.7-0.3-2.3-0.8
		C178.6,82.4,179.4,82.7,180.1,83.2z M196.6,117.2c0.3,0.1,0.6,0.2,0.9,0.3c0.3-0.2,0.6-0.4,0.9-0.6c-0.5,0.1-1,0.1-1.4,0.1
		c0.1-0.2,0.2-0.3,0.4-0.5c-1.5,0-3-0.6-4.5-0.9c-1.5-0.2-3-0.7-4.5-1c-1.1-0.2-2.2-0.8-3.4-1c-0.5-0.1-1-0.2-1.5-0.2
		c0.2-0.1,0.4-0.2,0.7-0.4c-0.5-0.2-1.1-0.2-1.6-0.2c-0.3-0.1-0.5-0.3-0.8-0.5c1.1,0.4,2.3,0.5,3.4,0.9c3.6,1.1,7.2,2,10.9,2.5
		c1,0.1,2,0.3,3,0.6c0.1,0.5,0.2,0.9,0.2,1.4c-1.3,0.1-2.4,0.6-3.5,1.2C196,118.4,196.3,117.8,196.6,117.2z M186.7,127.7
		c0.2-0.3,0.6-0.2,0.9-0.2c0.8,0,1.6,0.1,2.2,0.7C188.7,128.2,187.7,127.9,186.7,127.7z M202.7,126.4c-0.8,0.6-1.7,0.7-2.6,0.8
		c-2,0.2-4,0.1-5.9-0.4c-2-0.5-4-1.3-6.1-1.4c-2.3-0.1-4.7,0.2-6.8,1.3c-0.9,0.5-1.5,1.3-2.3,1.9c-0.3,0.3-0.8,0.2-1.2,0.2
		c-0.2,0-0.7,0-0.6-0.4c0.2-2.4,2.3-4.1,4.3-5.2c0.5,0.7,1.2,0.2,1.8,0.1c3-0.8,6.2-0.8,9.2,0.2c1,0.3,1.9,0.8,2.9,1
		c-0.4-0.4-0.8-0.8-1.1-1.4c0.1,0,0.3-0.1,0.4-0.1c0.1-0.1,0.2-0.2,0.3-0.3c0.4,0.2,0.9,0.3,1.4,0.3c-0.3-1-0.6-2-0.2-3
		c0,0,0,0,0-0.1c0.1-0.1,0.2-0.2,0.3-0.3c0.2-0.1,0.3-0.2,0.4-0.4c0.4,0.6,0.4,1.5,1.1,1.8c0.9,0.3,1.9,0.2,2.8,0.5
		c0.4,0.2,0.7,0.3,1.1,0.5c-0.1,0.2-0.1,0.4-0.2,0.6c-0.1,0.4-0.3,0.7-0.1,1.1C202.1,124.6,202.7,125.4,202.7,126.4z M199.7,110.2
		c2.1,1.5,4.4,3.1,5.6,5.5c0,0.3,0,0.5,0,0.8c-0.8,0.1-1.7,0.1-2.5,0.1c-0.7-0.1-1.3-0.6-1.8-0.9c-2.1-1.5-4.7-2.2-7.1-3
		c-4.4-1.4-8.9-2.5-13.3-4.1c-3.3-1.2-6.6-2.6-9-5.3c-1.5-1.7-3.1-3.4-4.4-5.3c-0.4-0.6-0.7-1.2-1.1-1.8c-0.5-0.1-1-0.1-1.5-0.1
		c0-1.2-0.1-2.4,0.3-3.6c0.3-0.9,0.6-1.9,1-2.8c0.9-1.5,1.9-2.9,3.3-4c1.2-1.4,2.8-2.4,4.4-3.3c0.1,0.1,0.3,0.3,0.4,0.5
		c0.3,0.6,0.9-0.2,0.2-0.2c0,0,0.1-0.1,0.2-0.1c1.5,0.3,3,0.2,4.5,0.7c3,1,5.8,2.4,8.6,3.8c1.2,0.6,2.4,1.3,3.8,1.4
		c2.7,0.3,5.5,0,8.1-0.4c1.2-0.2,2.5-0.5,3.3-1.4c-1.1,0.3-2.1,0.8-3.3,1c-2.5,0.4-5,0.5-7.5,0.5c-1,0-2.1-0.3-3-0.8
		c1.1,0.2,2.1,0.6,3.2,0.7c2.1,0.1,4.2-0.2,6.3-0.4c1.6-0.2,3.4-0.5,4.6-1.7c0.3-0.2,0.3-0.5,0.3-0.8c0.1-0.6,0.2-1.2,0.5-1.7
		c-0.1-0.2-0.2-0.3-0.3-0.4c-0.5-1-1.4-1.8-2.5-2.2c-2.4-0.9-5-0.9-7.5-1.1c-1-0.1-2,0-2.9-0.5c-0.7-0.3-1.5-0.3-2.3-0.4
		c-1.6-0.2-3.1-0.7-4.7-0.7c-2.1-0.1-4.1-1-6.2-1.3c-0.9-0.5-2-0.7-2.6-1.6c0.3,0,0.6-0.1,0.9-0.1c5.9,2.4,12.1,3.6,18.4,4
		c2.9,0.3,6.1,0.2,8.6,1.9c1,0.6,1.6,1.6,1.8,2.7c1.3-0.1,1.8-1.6,1.3-2.7c-0.8-1.7-2.5-2.9-4.3-3.5c-2.7-1-5.6-1-8.4-1.2
		c-4-0.3-7.9-1-11.8-2c-2.1-0.5-4.2-1.2-6.1-2.3c-2.4-1.3-4.2-3.4-5.7-5.5c-0.3-0.5-0.7-1-1-1.5c-0.3,0-0.5,0-0.8,0.1
		c-0.2,0-0.5,0-0.7,0.1c-0.6-1.5-0.3-3.2-0.1-4.8c0.9-5.1,2.2-10.1,4.3-14.8c0.2-0.4,0.4-0.8,0.6-1.2c0.5,1.3,0.7,3,2,3.8
		c0.6,0.5,1.2,1.1,1.8,1.7c0.3,0.3,0.7,0.7,1,1.1c-0.6-0.4-1.1-0.8-1.6-1.2c0.2,0.7,0.4,1.6,1.1,2.1c0.3,0.2,0.6,0,0.9-0.1
		c-0.4,2-0.9,3.9-1.4,5.9c-0.3,1.3-0.8,2.6-1,4c-0.1,0.3,0,0.6,0.2,0.8c0.5,0.5,0.2,1.2,0.3,1.8c0.1,0.7,0.5,1.3,0.8,1.9
		c0.8,0.5,1.5,1.1,2.4,1.4c1.1,0.5,2.4,0.7,3.5,1.3c1.4,0.7,3,0.9,4.6,1.2c4.4,0.9,8.9,1.4,13.3,1.8c0.1-0.3,0.3-0.6,0.6-0.7
		c3,0.7,5.8,2,7.9,4.3c2.5,2.2,4.3,5.6,3.7,9.1c-0.5,0-1,0.1-1.6,0.1c-1.3,2-2.5,4.2-4.3,5.8c-2.1,1.9-4.9,2.5-7.6,2.8
		c-1.5,0.2-2.9,0.3-4.4,0.3c-1.7,0-3.4,0.1-5.1-0.3c-2.1-0.5-3.9-1.6-5.9-2.5c-1.8-0.8-3.6-1.7-5.4-2.5c-0.9-0.4-1.8-0.7-2.8-0.4
		c-1.5,0.4-2.7,1.5-3.6,2.7c-0.9,1.2-1.4,3.1-0.3,4.3c0.3,0.4,0.7,0.3,1.1,0.2c-0.1,1.1,0.8,1.9,0.7,2.9c-0.3-0.2-0.6-0.3-0.9-0.4
		c0,0.4-0.2,0.9,0.1,1.2c0.5,0.9,1.4,1.7,2,2.6c1.1,1.3,2.5,2.6,4.3,2.8c-0.6-0.9-1.4-1.7-2.2-2.4c0.6,0.3,1.1,0.6,1.6,1
		c0.5,0.4,1.2,0.2,1.8,0.5c4,1.9,8.2,3,12.4,4.4c1,0.4,1.7,1.2,2.7,1.3c0.9,0.4,1.8,0.8,2.8,1c-0.2-0.1-0.4-0.3-0.6-0.4
		c0-0.1,0.1-0.3,0.1-0.4c-0.3-0.2-0.5-0.5-0.8-0.7C197.4,108.9,198.6,109.4,199.7,110.2z M174.5,91.2c-0.6,0.4-1,0.9-1.6,1.4
		c0.2-1.1,1.2-2.1,2.3-2.3C175.3,90.8,174.8,91,174.5,91.2z M185.6,95.6c-0.9-0.3-1.7-0.8-2.4-1.4c-0.9-0.2-1.7-0.6-2.5-1
		c-0.2-0.1-0.3-0.2-0.3-0.4c-1.4-0.4-2.8-1.2-4.1-1.9c-0.2-0.1-0.5-0.1-0.8-0.1c0-0.2,0.1-0.3,0.1-0.5c1.3,0.2,2.4,0.9,3.5,1.5
		c1.4,0.7,2.7,1.3,4.1,2c1.4,0.7,2.8,1.4,4.2,1.8c2.2,0.6,4.6,0.6,6.9,0.6l-0.1,0.2c-1.5,0.1-2.9,0-4.4,0.1c-0.4,0-0.7,0.1-1.1,0.2
		C187.7,96.1,186.6,96.1,185.6,95.6z M197,96.7c0-0.1,0-0.3,0-0.4c0.2-0.1,0.3-0.2,0.5-0.3c0.1,0,0.3,0,0.4-0.1c0.7,0,1.3,0,2,0.1
		C199,96.5,197.9,96.4,197,96.7z"/>
	<path d="M177.8,76.4l-0.2,0.1C177.5,77,178.3,76.5,177.8,76.4z"/>
	<path d="M196.9,137.7c-0.6-0.6-1.1-1.3-1.3-2.2c-0.4-0.5-0.7-1.1-0.5-1.7l-0.1-0.1c-0.1-0.1-0.3-0.2-0.4-0.3
		c-0.1,0.1-0.3,0.2-0.5,0.1c0.3-0.2,0.2-0.9-0.2-0.8c0,0.1-0.1,0.2-0.1,0.3c-0.1-0.3-0.2-0.6-0.3-0.9c-0.3-0.3-0.8-0.5-1.1-0.7
		l-0.1,0.1c-0.2,0.2-0.4,0.5-0.5,0.8l-0.2,0c0.3,0.5,0.8,0.9,1.4,1c0,0.4,0.3,0.7,0.5,1.1c0.7,1.1,1.2,2.5,2.2,3.4
		c0.5,0.4,0.9,1,1.6,1.1c-0.1-0.4-0.4-0.8-0.7-1.1C196.6,137.9,196.8,137.7,196.9,137.7z"/>
	<path d="M195.3,110.2c0.4,0.6,1.1,1,1.8,0.9c1,0.7,2,1.5,3.1,2.1c0.9,0.6,1.7,1.5,2.8,1.6c0-0.3-0.1-0.6-0.3-0.8
		c-0.6-0.8-1.4-1.4-2.3-1.9c-1-0.5-2-1.1-3.1-1.3C197,110.3,196,110.3,195.3,110.2z"/>
	<path d="M199.1,124.5c-0.8,0-1.5-0.3-2.2-0.5c0.9,0.9,2.3,1.1,3.5,0.9C200.1,124.4,199.5,124.6,199.1,124.5z"/>
	<path d="M196.2,120C196.3,120,196.3,120,196.2,120"/>
	<path d="M188.1,132c0.1,0,0.3-0.1,0.4-0.1c0.6-0.2,1.1-0.4,1.7-0.6c0.9-0.2,1.7-0.3,2.6-0.5C191.3,130.1,189,130.4,188.1,132z"/>
	<path d="M189.9,134.5c-0.3,0.2-0.3,0.3,0.1,0.4C189.9,134.8,189.9,134.6,189.9,134.5z"/>
</g>
</svg>
