<?xml version="1.0" encoding="utf-8"?>
<!-- Generator: Adobe Illustrator 23.0.1, SVG Export Plug-In . SVG Version: 6.00 Build 0)  -->
<svg version="1.1" id="Слой_1" xmlns="http://www.w3.org/2000/svg" xmlns:xlink="http://www.w3.org/1999/xlink" x="0px" y="0px"
	 viewBox="0 0 238.1 150.2" style="enable-background:new 0 0 238.1 150.2;" xml:space="preserve">
<g>
	<path d="M186.5,5.5c0.2-0.1,0.5-0.2,0.6-0.2c-0.1,0.4-0.2,0.7-0.3,1.1c0.1,0,0.3,0,0.4,0c0.1,0.3-0.2,0.8,0.2,1
		c0.2-0.2,0.4-0.4,0.5-0.6c0,0.2,0,0.7,0,0.9c0.1-0.1,0.4-0.4,0.5-0.5c0,0.3-0.1,0.6-0.1,1c-0.2-0.2-0.4-0.8-0.7-0.4
		c-0.1,0.3,0,0.6,0,0.9c0.2,0.2,0.5,0.4,0.5,0.7c0.3,1.4,0.4,2.9-0.3,4.2c-0.3,0.6-0.9,1-1.6,1.3c-0.2,0.4-0.3,0.8-0.7,1
		c-0.3,0.6-1,0.8-1.3,1.4c-0.8,1.1-2.3,1.2-3,2.3c-0.3-0.2-0.5-0.5-0.8-0.7c-0.2-0.5-0.1-1,0.2-1.5c-0.6-0.8-1.5-1.3-2.5-1
		c-0.5-0.4-1-0.7-1.5-1.1c0.3,0,0.7-0.1,0.9-0.1c-0.1-0.1-0.2-0.3-0.2-0.4c1.1-0.4,2.1-1.1,2.9-2c1,0.2,2-0.2,3-0.3
		c0.6-0.2,1.6-0.8,1.1-1.5c-0.2,0-0.5-0.2-0.7-0.2c0.2-0.8,0.5-1.7,1.1-2.4c-0.1-0.2-0.3-0.5-0.2-0.8c0.3-1.2,0.2-2.5,1.2-3.4h-0.2
		h0.4C186.1,4.6,186.3,5.1,186.5,5.5z"/>
	<path d="M189.3,10.5c0.6-0.8,1.2-1.8,1.8-2.6C190.8,8.9,190.2,9.9,189.3,10.5z"/>
	<g>
		<path d="M149.8,9.6c1,0.9,2.3,1.4,3,2.5c0.2,0.5,0.7,1.2,0.1,1.6c-0.1,0.5-0.3,1-0.6,1.4c0.1,0,0.4,0.1,0.5,0.1V15
			c0.6,0,1.2,0.1,1.7,0.4c-0.5,0.6-1,0.1-1.5-0.2c-0.1,0.1-0.3,0.3-0.4,0.4c0.4,0.1,0.7,0.3,1,0.5c-0.1,0.2-0.2,0.5-0.3,0.7
			c-0.6-0.3-1.1,0.2-1.5,0.4c-0.4,0.3-0.9,0-1.4,0.2c-0.7,0.4-1.3,1.1-2,1.5c-0.5,0-1-0.5-1.4-0.1c-0.4,0.3-0.5,1.3-1.1,0.8
			c0,0.6-0.5,1.1-0.6,1.6c-0.6-0.1-1.2-0.1-1.6-0.5c-0.8-0.7-1.3-1.7-1.8-2.6c-0.1,0-0.4,0-0.6,0c-0.3-0.6-0.3-1.2-0.3-1.8
			c0-0.1-0.2-0.1-0.3-0.2c0.1-0.2,0.2-0.3,0.3-0.5c-0.2-0.6-0.4-1.2-0.2-1.9c0.3-1.7,1.6-2.9,2.3-4.4c0.1,0.1,0.2,0.3,0.3,0.4
			c0.3-0.5,0.5-1,1-1.3c0.5-0.4,1.3-0.3,1.9,0c0.1-0.1,0.3-0.2,0.4-0.3c1.1,0.4,2,1.1,2.9,1.8C149.7,9.8,150,9.8,149.8,9.6z
			 M148.4,12.6c-0.1,0.5-0.6,0.4-0.9,0.6c-0.8,0.3-1.3,0.7-2,1.1c0.1,0.4-0.2,0.6-0.4,0.9c0,0.3,0,0.6,0,0.9c1-0.3,1.9-0.8,3-0.7
			c0.3-0.1,0.5-0.3,0.7-0.5c0.1,0,0.3,0.1,0.4,0.2c0.6-0.3,1.2-0.6,1.8-0.8v0.4c0.4-0.1,0.9-0.1,1.3-0.2c-0.3-0.3-0.6-1-1.1-0.8
			C150.7,12.5,149.4,12.8,148.4,12.6z"/>
	</g>
	<path d="M188.9,9.7c0-0.2,0.1-0.8,0.4-0.8C189.5,9.2,189.3,9.7,188.9,9.7z"/>
	<path d="M190.6,9.9c-0.2-0.2,0.1-0.7,0.4-0.6C191.2,9.5,191,10,190.6,9.9z"/>
	<path d="M182.4,10.9c-0.1-0.3,0.4-0.6,0.6-0.4C183.1,10.7,182.6,11,182.4,10.9z"/>
	<path d="M189.1,12.3c0.4-0.6,0.7-1.2,1.2-1.7C190.2,11.3,189.7,11.9,189.1,12.3z"/>
	<path d="M192.9,11.3h0.6c-0.1,0-0.4,0.1-0.5,0.1c-0.8,0.5-1.6,1-2.4,1.6C191.1,12.1,192,11.7,192.9,11.3c0-0.1,0.1-0.3,0.2-0.5
		L192.9,11.3z"/>
	<path d="M182,11.4c0-0.3,0.2-0.4,0.5-0.2C182.4,11.5,182.2,11.5,182,11.4z"/>
	<path d="M191.2,14l-0.5-0.3c0.1,0.2,0.3,0.6,0.4,0.8c-0.1-0.1-0.3-0.3-0.4-0.4c-0.6,0.3-1,0.8-1.6,1.1c0.4-0.6,1-1,1.5-1.5
		c0.1,0.1,0.2,0.2,0.3,0.3c0.5-0.9,1.3-1.6,2.3-1.9C192.4,12.7,191.6,13.3,191.2,14z"/>
	<path d="M191.2,14.8c0-0.1-0.1-0.2-0.2-0.3l0.3-0.1v-0.2c0.5-0.3,1-0.7,1.6-0.9C192.4,13.8,191.7,14.1,191.2,14.8z"/>
	<path d="M187.9,15.5c-0.5,0.2-1,0.5-1.5,0.6c0.6-0.9,1.1-2.1,2.2-2.5C188.3,14.2,187.8,14.8,187.9,15.5z"/>
	<path d="M169.3,14.6c-0.3-0.2,0-0.8,0.3-0.6C169.8,14.2,169.6,14.8,169.3,14.6z"/>
	<g>
		<path d="M164.3,16.1c-0.3,0.1-0.7,0.3-0.7,0.7c0.7,0.1,1.4-0.1,2.1,0c1.2-0.4,2.2-1.2,3.5-1.3c0.7-0.2,1.4,0.3,2.1,0
			c1.4,1,3.3,1.5,4,3.2c-0.8,0.2-1.7-0.1-2.5-0.4c-0.4-0.1-1-0.4-1.2,0.1c-0.7-0.4-1.6-0.7-2.3-0.2c-2.1-0.7-4.2,0.7-6.3,0.3
			c0.1,0.4-0.2,1,0.3,1.2c0.1-0.1,0.2-0.4,0.3-0.5c0.5-0.1,1.1-0.2,1.6-0.3c0.1,0.3-0.1,0.9,0.2,0.9c0.2-0.4,0.2-1.3,0.9-0.9
			c0.7-0.4,1.6-0.1,2.4-0.2c0,0.1,0,0.4,0,0.5c0.4-0.3,0.8,0,1.2,0.1c0.2-0.2,0.5-0.3,0.7-0.5c0.5,0.1,0.9,0.1,1.4,0.1
			c0.7,0,1.3,0.5,2,0.4c0.2,0.3,0.4,0.6,0.6,0.9c0.5-0.5,0.9-1.1,1.3-1.6c1.1,0.2,1.6-1,2.6-0.7c0.5,0.8,0,1.9-0.7,2.5
			c-0.2,0.1-0.4,0.2-0.6,0.3c-0.1-0.1-0.3-0.2-0.4-0.3c-0.3,0.3-0.5,0.5-0.7,0.8c-0.1,0-0.4-0.1-0.5-0.2c-1.3,0.6-2.6,0.2-3.9,0.4
			c-0.3,0.1-0.6-0.2-0.9-0.4c-1.1-0.3-2.3,0.3-3.3-0.3c-0.3-0.1-0.7,0.1-1,0.2c-0.1-0.1-0.3-0.3-0.4-0.4c-0.2,0.2-0.3,0.3-0.5,0.5
			c0.1-0.4-0.2-0.6-0.5-0.8c-0.4,0.5-1.1,0.9-1.1,1.6c0.6,0,1.1,0.1,1.6,0.1c0.3,0.3,0.5,0.5,0.8,0.8c0.5,0,0.9,0.3,1.2,0.7
			c0.4-0.4,0.8-0.9,1.2-0.3c0-0.1,0.2-0.3,0.3-0.4c0.3,0.2,0.6,0.4,0.8,0.7c0.1-0.1,0.2-0.2,0.3-0.2c1,0.5,1.6,1.8,2.8,1.8
			c0.2,0.4,0.2,0.8,0.5,1.1c0.4,0.2,0.3,1-0.2,1.1c-0.9,0.3-2.1,0.7-2.9-0.1c-0.2,0.1-0.3,0.1-0.5,0.2c-0.4-0.5-0.9-1.5-1.6-0.8
			c-0.4-0.5-0.9-1.1-1.6-1.3c-0.1,0.2-0.2,0.4-0.2,0.5c-0.2,0-0.5,0-0.8,0c-0.1,0.3-0.2,0.7-0.3,1c-0.2-0.1-0.5-0.2-0.7-0.3
			c-0.1,0.1-0.2,0.4-0.3,0.6c-0.2-0.3-0.5-0.6-0.8-0.8c-0.4-0.1-0.8-0.2-1.1-0.4c0,0.9-0.8,1.8,0,2.5c0.7-0.6,1.6-0.7,2.4-0.4
			c0.1-0.5,0.4-0.7,0.7-0.3c0.5,0.3,1.1,0.7,1.7,0.4c1,1.2,3.2,1.3,3.4,3.1c-0.1,0.1-0.4,0.2-0.5,0.3c-1.2-1.1-2.9-0.7-4.4-0.6
			c0.2,0.2,0.4,0.7,0.8,0.5c0.7-0.3,0.9,0.7,1.1,1.2c0.1,0,0.3,0,0.4,0c0.2,0.7,0.5,1.3,0.8,1.9c0.1,0.1,0.4,0.1,0.5,0.1
			c0,0.4,0,1,0.5,1.2c0,0.8-0.3,1.6-0.7,2.4c-0.9,0.6-0.7,1.9-1.6,2.5c-0.3-1.7,1.1-3.1,1-4.7c-0.4-0.8-1.2-1.3-1.9-1.8
			c-0.1-0.6-0.8-0.6-1.3-0.8c-0.2,0.2-0.5,0.2-0.7-0.1c-0.2,0-0.3,0-0.5,0c-0.5-0.7-0.9-1.5-0.5-2.3c0.1,0.6,0.6,0.3,0.9,0
			c0.4,0.3,0.8-0.1,1.2-0.3c-1.2-0.5-2.5,0-3.7-0.1c0,0.4,0.1,0.8-0.1,1.2c-0.1-0.1-0.4-0.3-0.5-0.4c-0.3,0.1-0.5,0.1-0.8,0.1
			c-0.2,0.4-0.2,1.2-0.9,0.8c0.2,1.2-0.9,2-1.6,2.8c-1.5,1.6-0.7,4-1.8,5.8c-0.2,0.7-1.1,0.7-1.2,1.4c-0.1,0-0.2-0.1-0.3-0.2
			c-0.5,0.4-0.7,0.9-0.9,1.4c-0.9-0.5-1.8-1.4-1.5-2.5c0.4,0.3,0.7,0.8,1.2,0.7c0-0.3-0.2-0.5-0.4-0.8c0-0.7,0.4-1.3,0.3-2
			c0.4-0.6,0.1-1.2,0.3-1.8c0.2-0.5,0.1-1.4,0.7-1.7c0.1-0.9,0.5-1.9,1.4-2.3c0,0-0.1-0.1-0.1-0.2c0.1,0.1,0.2,0.1,0.3,0.1
			c1-0.5,2-1.2,2.2-2.4c-0.6,0.2-1.3,0.3-2,0.4c-0.1,0.1-0.2,0.3-0.3,0.4l0.3,0.1c-0.5,1.5-2,1.9-3,2.8c-2.2,0.4-3.4,3.2-2.8,5.3
			c0.1,0.5,0.7,1,0.5,1.7c-0.3-0.1-0.6-0.4-0.9-0.4c-1.3-0.1-1.6-1.6-2.6-2.3c0.1-0.4,0.3-0.7,0.4-1.1c0-0.1-0.2-0.2-0.3-0.3
			c0.3-1,0.2-2.5,1.4-3c0,0.6-0.4,1.2-0.5,1.8c0.4,0.5,0.6,1.2,0.7,1.8c0.5-1.2,1-2.4,1.4-3.6c0,0,0.2,0.1,0.3,0.2
			c0.2-0.4,0.4-0.7,0.6-1.1c0.6,0.1,0.8-0.6,1.2-0.8c1-0.4,2-0.5,3-0.8c0.1-0.3,0.3-0.5,0.4-0.8c-1.1,0.3-2.1,0.6-3.2,0.7
			c-0.7,0.1-1.4-0.2-2.1,0.1c-0.3,0-0.4-0.4-0.5-0.7c0.4-0.4,0.8-0.9,1.3-1.2c0.1-0.1,0.2-0.2,0.2-0.3c0.3,0,0.7,0,0.9-0.3
			c1.1-0.9,2.3-2,3.8-1.9c0.1,0.1,0.2,0.4,0.2,0.5c0.6,0.2,0.8,0.8,1,1.3c0.7-0.8,0.9-2,1.9-2.5c0.3-0.8,1.1-0.3,1.6-0.2
			c-0.1-0.4-0.2-0.8-0.3-1.2c-1.2-0.1-2.2,0.4-3.1,1c-0.8,0.6-1.8,0.7-2.8,0.7c-0.1-0.4-0.2-0.9-0.2-1.3c0.3-0.1,0.6-0.2,0.5-0.6
			c-0.8,0.2-1.5,0.5-2.3,0.4c-0.5,0.4-0.9,0.7-1.2,1.2c-0.5,0.4-1.2,0.6-1.4,1.3c-0.1,0-0.4,0-0.5,0c-0.1,0.4-0.1,0.8-0.2,1.2
			c-0.1-0.2-0.3-0.5-0.5-0.7c-0.1-0.5-0.3-1.1-0.1-1.7c0.3-1.3,1.4-2.2,2.4-3.1c0.7-0.9,2-1.2,3.1-0.8c0.4-0.5,1-0.7,1.5-0.9
			c0,0.2,0,0.6,0,0.8c1.2,0.2,2.1-0.5,3-1.1c-0.7-0.9-1.9-0.5-2.8-0.1c-1.4-0.3-2.8,0.2-4.2,0.2c-0.6,0-1.2,0.5-1.7,0.8
			c-0.2,0-0.5-0.1-0.6-0.1c-0.7,0.5-1.2,1.1-1.8,1.6c-0.4,0-0.1-0.5-0.2-0.7c-0.1-0.9,0.5-1.7,0.8-2.6c-0.2,0-0.5,0-0.7,0
			c0.5,0,0.8-0.3,1.2-0.6c0.3,0,0.7,0,1,0c0.8-0.3,1.1-1.2,1.6-1.8c0.8-0.2,1.7-0.3,2.5-0.7c0.5-0.2,1-0.7,1.6-0.7
			c1.2-0.1,2.2-0.3,3.3-0.7c0.7,0,1.5,0,2.2-0.1c-0.2-0.7-1-0.9-1.5-1.3c0.1,0,0.4-0.1,0.5-0.1c0-0.1,0-0.4,0-0.5
			c0.7,0,1.4,0.1,2.1,0.2c0.1-0.1,0.1-0.2,0.2-0.3c0.7,0,1.3-0.1,1.9-0.1c0.9,0.2,2.2,0.3,2.3,1.5C166.3,16,165.4,15.7,164.3,16.1z
			 M159.2,17.2c0.6,0,1.4,0.2,2-0.1c0.1,0.1,0.3,0.3,0.4,0.4c0-0.1,0.1-0.2,0.1-0.3C160.9,16.8,159.9,16.9,159.2,17.2z M159.3,18.7
			c-1.8,0.1-3.7-0.2-5.5,0.3c0.4,0.3,0.9,0.2,1.3,0.2c0.4,0.4,0.8,0.8,1.4,0.7c-0.1-0.2-0.2-0.4-0.3-0.5c0.7-0.5,1.4-0.5,2.2-0.5
			c0.1,0.6,0.9,0.1,1.3,0.2c0,0.1,0,0.4,0,0.5c0.6,0,1.3,0.1,1.9,0.2c-0.1-0.7-0.8-0.3-1.3-0.3C160.8,18.9,159.7,19,159.3,18.7z
			 M153.1,19.1c-0.5,0.5-1.2,0.6-1.6,1.2c0.8-0.3,1.6-0.7,2.4-0.9C153.7,19,153.5,19,153.1,19.1z M158.4,32.7
			c0.3,0.1,0.5-0.1,0.4-0.4C158.4,32.3,158.3,32.4,158.4,32.7z M155.3,36h0.2c0.1-0.6,0.6-1,1.1-1.3c0.1,0,0.2,0.1,0.3,0.1
			c0.1-0.3,0.3-0.6,0.4-0.9C156.4,34.3,155.2,34.8,155.3,36z M156.2,36.9c-0.7,1-1,2.1-1.5,3.2c0.6-0.1,0.6-1,1.2-1.1
			c-0.1-0.4-0.1-0.7-0.1-1.1h0.4C156.2,37.5,156.2,37.2,156.2,36.9z"/>
	</g>
	<path d="M170.8,14.7c0-0.3,0.5-0.6,0.6-0.3C171.4,14.7,171,15,170.8,14.7z"/>
	<path d="M153,14.8c-0.1-0.3,0.4-0.6,0.6-0.4C153.7,14.7,153.3,15,153,14.8z"/>
	<path d="M191.4,16.5c0.8-0.3,1.4-0.8,2.1-1.2c-0.6,0.7-1.5,1.5-2.5,1.1c0.5-0.6,1-1.2,1.5-1.8C192.2,15.3,191.7,15.9,191.4,16.5z"
		/>
	<path d="M176,16c0,0.2-0.1,0.3-0.1,0.5c-0.3,0-0.7,0.1-1,0.2c0-0.1,0.1-0.4,0.1-0.6c-0.1-0.1-0.4-0.1-0.5-0.1
		c0.3-0.3,0.6-0.5,0.9-0.6C175.6,15.6,175.9,15.8,176,16z"/>
	<path d="M140.4,16.8c0.1-0.4,0.7-0.1,0.5,0.2C140.8,16.9,140.5,16.8,140.4,16.8z"/>
	<path d="M186.3,19.2c0.4-0.1,0.7-0.2,1.1-0.3c-0.9,1-1.9,1.9-2.9,2.7c-0.2-0.2-0.3-0.3-0.5-0.5c0,0.2-0.1,0.5-0.1,0.6
		c-0.3-0.2-0.5-0.5-0.9-0.3c0-0.2,0-0.5,0-0.7c-0.2-0.1-0.6-0.1-0.8-0.1c0.6-0.6,1-1.2,1.5-1.8c0,0.4,0.1,0.8,0.1,1.2
		c0.7-0.7,0.8-1.8,1.5-2.6c0.6,0,1-0.4,1.4-0.8C186.8,17.5,186.5,18.3,186.3,19.2z"/>
	<path d="M191.2,17.7c0.3-0.2,0.8-0.1,1.2,0.1C192.3,18.1,191.4,18,191.2,17.7z"/>
	<path d="M139.6,18.2c0,0,0-0.1,0-0.2c0.5,0.1,1,0.1,1.3,0.4C140.4,18.3,140,18.2,139.6,18.2z"/>
	<path d="M188.7,19c0.3-0.5,0.9-0.7,1.5-0.6C189.7,18.6,189.2,18.8,188.7,19z"/>
	<path d="M190.8,19.2c0.1-0.4,0.8-0.2,1.2-0.1C191.7,19.3,191.1,19.5,190.8,19.2z"/>
	<path d="M188,19.9c0.1-0.4,0.7-0.2,1-0.1C188.8,20.1,188.2,20.1,188,19.9z"/>
	<path d="M140,20.7c0-0.4,0.6-0.7,0.9-0.8C141.1,20.3,140.4,20.7,140,20.7z"/>
	<path d="M186.7,20.9c0.8-0.6,1.8-0.8,2.8-0.6C188.6,20.4,187.6,20.7,186.7,20.9z"/>
	<path d="M140.8,20.5c0.3,0.5-0.4,1.1-0.8,1.4C140.3,21.4,140.5,20.9,140.8,20.5z"/>
	<g>
		<path d="M170.7,21.1c0.9,0,1.7,0.5,2.6,0.5c1,0.5,2.1,0.8,3.2,1.2c0.4,0.4,0.6,1,1.1,1.4c0.3,0.2,0.3,0.7,0.7,0.7
			c0.7,0.1,1.4,0.5,2.1,0.6c0.4,1,1.4,1.5,1.7,2.5c0.1,0,0.4,0,0.5,0c0.4,0.6,0.8,1.2,1.4,1.7c0.7,1.1,1.8,2,2.6,3
			c0.5,0.4,0.4,1,0.5,1.5c0.1,1.2,1.2,2,1.7,3c-0.4-0.2-0.8-0.3-1.2-0.4c0.4,3,1.9,5.6,2.6,8.5c-0.1,0-0.4,0.1-0.5,0.1
			c0.6,1.2,1.4,2.3,2,3.5c-0.9-0.2-1.9-0.1-2.7,0.3c0,0.1,0.1,0.2,0.2,0.3c-1,0.8-2,1.5-2.4,2.8c-1.2,0.2-1.2,1.7-2,2.4
			c-1.4,0.3-2.7,0.7-4,1c0.4,0.2,0.7,0.2,1.1,0.4c-1.7,0.3-3.3,0.9-4.9,1.6c-0.4,0.1-0.8,0.2-1.2,0.4c-0.4,0.2-0.9,0.4-1.3,0.6
			c1.5-1.2,3.4-1.6,5.1-2.3c0.2-0.8,0.9-1.1,1.2-1.8c-0.8-0.3-0.4-1.1-0.2-1.7c0.5,0,0.9,0,1.4,0c0.1,0.3,0.2,0.7,0.3,1.1
			c0.3-0.2,0.8-0.3,0.9-0.8c1.1-0.6,1-1.9,1.5-2.9c-0.7,0-1.5,0.6-2.2,0.3c-0.5-0.8-1.5-0.5-2.2-0.3c-1,0.3-1.6,1.2-2.4,1.8
			c-0.5,0.5-0.6,1.4-1.2,1.8c-0.1,0-0.4,0-0.6,0c-0.4,0.3-1,0.3-1.5,0.4c-0.1-0.1-0.3-0.3-0.4-0.4c-0.2,0-0.5-0.1-0.6-0.1
			c-1-1.3-2.3-2.2-3.2-3.5c0.6,0.2,1.2,0.5,1.8,0.8c-0.3-0.4-0.6-0.8-0.8-1.3c0.3,0,0.5,0.1,0.7,0.2c0.2-0.2,0.5-0.2,0.8-0.3
			c0.1,0.5,0.4,0.3,0.7,0.2c0.1,0.3,0.1,0.6,0.2,0.9c0.5-0.1,0.9-0.5,1-1c-0.8-0.6-2-0.5-2.7-1.3c0.5-0.1,0.9-0.2,1.4-0.3
			c0.1-0.4,0.4-0.5,0.7-0.5c0-0.3,0.1-0.6,0.3-0.8c0.1,0.1,0.3,0.3,0.4,0.4c0-0.5,0.2-0.7,0.7-0.5c0.3-0.4,0.6-0.9,0.5-1.5
			c-0.3,0.1-0.4,0.5-0.5,0.8c-0.7,0-1.3,0.5-2,0.5c0,0.7-0.6,0.1-0.9,0.3c0,0.2,0.1,0.5,0.1,0.7c-1.3,0-2.9-0.5-4.1,0.4
			c0.1-0.4-0.2-1.1,0.4-1.1c0-0.1,0.1-0.4,0.1-0.5c0.4-0.6,1.1-0.9,1.8-0.8c0.7-0.4,1.4-0.9,1.8-1.6c0.4-0.6,1.1-1.1,1.6-1.7
			c0.1-0.4,0.2-0.9,0.3-1.3c-0.4,0.1-0.7,0.2-1.1,0.3c-0.3,1.5-1.2,2.7-2.4,3.6c-0.5-0.4-0.7,0.6-1.2,0.4c-0.2,0.1-0.5,0.2-0.8,0.3
			c-0.2,0.1-0.4,0.3-0.6,0.4c-0.2,0.2-0.3,0.5-0.5,0.7c0,0.7,0.2,1.8,1,2c0.4,0.4,0.5,1.2-0.2,1.4c-0.3-0.3-0.6-0.6-0.8-1
			c-0.9,0.8-2,1.1-3.2,1c0.1-0.1,0.2-0.3,0.3-0.4c-0.5-0.4-1.1-0.9-1.5-1.5c0.2,0,0.6-0.1,0.8-0.2c-0.3-0.4-0.6-0.7-0.7-1.2
			c0.2,0.1,0.5,0.2,0.6,0.2c-0.1-0.3-0.1-0.6-0.2-0.9c0.4-0.2,0.2-0.8,0.5-1.2c0,0.3,0.1,0.6,0.3,0.9c1.1-0.4,0.7-1.8,1.5-2.5
			c0.3-0.7,0.7-1.4,1.4-1.8c0.6-0.3,0.9-1,1.5-1.2c0.6-0.3,1.2-0.1,1.8,0.1c0.6-0.1,1.3-0.2,1.9-0.3c0.3-0.5,0.9-0.6,1.4-0.8
			c0.2-0.7,0.6-1.5,0.5-2.3c0.1-0.8-0.4-1.7-0.1-2.5c0.4-1.7,1.8-3.2,1.5-5.1c-0.3-0.1-0.6-0.1-0.9-0.1c0-0.4,0-0.8,0-1.1
			c-0.2,0-0.5,0.1-0.6,0.1c0.1-0.9,0.8-1.4,1.4-1.7c1,0,2.1,0.6,2.6,1.5s-1.1,1.5-0.5,2.4c0.6,0.7,0.7,1.6,1.1,2.4
			c0.1,0.4-0.3,0.8-0.1,1.2c0.2,0.6,0.8,1.1,1.4,1c0,0.1,0,0.4,0,0.5c0.2,0,0.4-0.1,0.5-0.2c0.2,0.5,0.2,1.1,0.6,1.4
			c0.4,1,0.7,2.2,0.9,3.3c0.6,1.2,0.7,2.5,0.7,3.8c0,1.1-0.5,2.1-0.3,3.2c0.4,0,0.7,0.1,1.1,0.1c0.2,0.5,1.1,1,1.3,0.3
			c0.1,0.1,0.1,0.3,0.1,0.4c0.6-0.1,1.1-0.3,1.5-0.7c-0.5-1.5,0-3.1-0.8-4.5c-0.1-0.2,0.1-0.5,0.1-0.8c-0.2-0.2-0.5-0.5-0.7-0.7
			c-0.1-1,0.3-2,0.4-3c-0.5-0.2-0.4-0.8-0.4-1.2c-0.2-0.1-0.4-0.1-0.6-0.2c-0.1-0.1-0.2-0.3-0.3-0.4c0-0.8,0.1-1.7,0-2.5
			c-0.7,0.1-1.3-0.1-1.7-0.6c0-0.5,0-0.9,0.1-1.4c-0.8,0.2-0.9-1.7-1.6-0.9c-0.2-0.2-0.3-0.5-0.4-0.8c-0.2-0.1-0.3-0.2-0.5-0.3
			c-0.4-1.4-1.5-2.5-2.8-3.1c-1-0.9-2.3-1.3-3.2-2.3c-0.7-0.2-1.3-0.6-2-0.8s-1-1.1-1.8-1.1s-1.5-0.4-2-0.9c0.6-0.4,1.3-0.4,2-0.6
			C170.9,21.2,170.9,21.4,170.7,21.1z M179.2,35.8c-0.9-0.1-1.9,0.3-2.2,1.2c-0.3,0.6,0.3,1,0.6,1.4c0.2,0,0.3-0.1,0.5-0.2
			c0.3,0.7,0.7,1.3,1.4,1.5c0.2-0.4,0.4-0.9,0.5-1.3c-0.1-0.7-0.4-1.4-0.5-2.1C179.3,36.1,179.2,35.9,179.2,35.8z M175.7,40.9
			c-0.1,0.3-0.1,0.7-0.1,0.9c0.1,0.1,0.1,0.3,0.2,0.4c-0.9,0.7-1.3,1.9-1.6,3c0.7-0.4,1.3-1,1.9-1.5c0-0.1,0-0.3,0-0.4
			c0.6-0.3,0.8-1,1.3-1.4c0.4,0.7,0.9,1.2,1,2c-0.4,1,0.6,2.4-0.5,3.1c-0.4,0.5-0.6,1.2-1.2,1.4c0,0.4-0.3,0.7-0.7,0.8
			c0.2,0,0.5,0.1,0.6,0.1c-0.1,0.5-0.3,1.1-0.4,1.7c-0.4,0.2-0.5,0.6-0.7,0.9c-0.3,0.1-0.7,0.3-1.1,0.4c0.3,0.3,0.7,0.3,1.1,0.4
			c1.9-1.3,3-3.5,4.9-4.7c0.9,0.2,1.1-0.9,1.2-1.5c0-2-1.1-3.8-2.3-5.4c-0.2,0-0.5,0-0.7,0c-0.2-0.1-0.3-0.2-0.5-0.3
			C177.3,41.1,176.6,40.6,175.7,40.9z M170.2,41.4c0.2,0.3,0.4,0.7,0.1,1c-0.1,0.6-0.8,0.4-1.2,0.4c-0.1-0.2-0.2-0.5-0.2-0.7
			c-0.2,0.4-0.4,0.7-0.6,1.1c0.9,0.8,2.3,0.7,3.2-0.1c0.4-0.4,0.3-1.1,0.3-1.6c-0.3-0.1-1,0-1-0.5C170.6,41.1,170.5,41.4,170.2,41.4
			z M180.6,56.2l0.1,0.2l0.2,0.1c0-0.1,0-0.2,0-0.3C180.8,56.3,180.6,56.3,180.6,56.2z"/>
	</g>
	<path d="M182.2,22.1c0.4,0.2,0.8,0.3,1.2,0.4c0,0.1,0.1,0.2,0.1,0.3c-0.2,0-0.5,0.1-0.7,0.2c0.2,0.1,0.4,0.4,0.6,0.6
		c-0.8,0.3-1.7,0.1-2.4-0.4c0.2-0.1,1.2-0.1,0.7-0.5c-0.5-0.4-1.2-0.5-1.8-0.7c0.8-0.7,1.9-0.7,2.8-0.3
		C182.6,21.7,182.4,21.9,182.2,22.1z"/>
	<path d="M146.6,23c0,0.2,0,0.5,0,0.7c0.2,0.1,0.6,0.2,0.8,0.3c-0.9,0.6-1.9,1-2.9,1.4c-0.4,0.3-0.7-0.3-1-0.5
		c-0.1,0.1-0.1,0.4-0.1,0.5c0-0.3-0.1-0.7-0.1-1.1c-0.1-0.1-0.3-0.2-0.4-0.3c0.2-0.5,0.3-1,0.7-1.4c0.1,0.2,0.1,0.6,0.1,0.8
		c0.1,0.1,0.3,0.2,0.4,0.3c0.2,0.5,0.5,0.8,1,0.7c0.3-0.3,0.4-0.9-0.1-1.1c0.5-0.6,1.1-1.2,1.7-1.7C146.8,22.1,146.4,22.7,146.6,23z
		"/>
	<path d="M141,22.5c0-0.3-0.1-0.9,0.3-0.8C141.8,21.9,141.6,22.7,141,22.5z"/>
	<path d="M186.5,22.7c-0.7,0.2-1.4,0.4-2.1,0.5c0.6-0.7,1.3-1.3,2.2-1.4C186.3,22,186.3,22.3,186.5,22.7z"/>
	<path d="M184.8,24.3c0.3-0.3,0.5-0.6,0.9-0.7c0,0-0.1-0.1-0.1-0.2c0.6,0.2,1.2-0.3,1.8-0.4C186.9,23.9,185.8,24,184.8,24.3z"/>
	<path d="M180.7,24c-0.2,0.2-0.4,0.5-0.7,0.5c-0.4-0.5-1-0.7-1.4-1.1c0-0.1,0.1-0.3,0.2-0.4c0.2,0,0.5,0,0.6,0
		C179.9,23.3,180.3,23.6,180.7,24z"/>
	<path d="M141.1,23.8c-0.2,0.3-0.4,0.5-0.6,0.8c0.1-0.6,0.4-1.2,0.9-1.6C141.3,23.3,141.2,23.5,141.1,23.8z"/>
	<path d="M147.1,26.2c-0.5,0.7-0.7,1.5-0.8,2.3c-0.7,0.8-1.2,1.8-1.4,2.8c-0.3,0.3-0.5,0.7-1,0.8c0.3-0.7,0.5-1.4,0.4-2.1
		c0.5-0.8,1.3-1.7,1.2-2.8c1-1.2,2-2.7,3.6-3.4C148.6,24.8,147.6,25.3,147.1,26.2z"/>
	<path d="M185.1,25.5c0.1,0.3,0.5,0.3,0.8,0.3c-0.1,1.1-0.9,1.8-1.7,2.4c0-0.4,0-0.7,0-1c-0.2,0-0.5,0-0.6,0c0-0.2,0.1-0.5,0.1-0.7
		c-0.2,0-0.5,0-0.7,0c0-0.2,0-0.5,0-0.6c-0.8,0-0.7-0.8-0.7-1.3c-0.2,0-0.5,0.1-0.7,0.1c-0.1-0.4,0.5-0.9,0.9-0.6
		c0.6,0.3,1.2,0.6,1.8,0.8C184.4,25.3,184.6,25.5,185.1,25.5z"/>
	<path d="M142.5,26c-0.1-0.1-0.2-0.3-0.2-0.4c0-0.1-0.1-0.2-0.1-0.3c0.1-0.7,0.7-0.1,0.6,0.3C142.7,25.7,142.6,25.9,142.5,26z"/>
	<path d="M187.8,26.2c0.2,0,0.5-0.1,0.7-0.1c-0.1,0.4-0.2,0.9-0.3,1.3c0.3,0,0.7-0.1,1-0.2c-0.1,0.4-0.3,0.9-0.5,1.3
		c0.2,0,0.4,0,0.6,0c-0.3,1.3-0.2,2.8,0.7,3.9c0,0-0.1,0.2-0.2,0.3c0,0.3-0.1,0.7-0.1,1c-1-1.1-0.8-2.7-1.6-3.8
		c-0.3-0.5-0.9-0.7-1.5-0.9c0.1,0,0.3,0.1,0.4,0.1c-0.1-0.2-0.2-0.6-0.3-0.8c-0.1,0.1-0.4,0.2-0.5,0.3c0.1-1.1,0.5-2.2,1-3.3
		c0.1-0.1,0.3-0.3,0.4-0.4C187.7,25.3,187.7,25.7,187.8,26.2z"/>
	<path d="M142.7,26.5c-0.1-0.3,0-0.5,0.3-0.4C143.1,26.4,143,26.5,142.7,26.5z"/>
	<g>
		<path d="M146.4,28.7l0.5-0.3c0.1,0.8-0.4,1.4-0.6,2.1c0.2,0.5,0.5,0.9,0.8,1.4c-0.7,0.3-0.4,1.2-0.7,1.8c0.1,0,0.3,0.1,0.4,0.2
			c-0.1,0.4-0.2,0.8-0.3,1.2c0.4,0.9,0,1.7-0.5,2.4c0.2,0.7-0.3,1.3-0.4,1.9h0.4c-0.1-0.1-0.1-0.4-0.1-0.5c0.9,0,1.4,0.9,1.8,1.5
			c-0.6,0-1.2-0.3-1.8-0.3c-0.1,0.6,0.4,0.8,0.9,1.1c0.1,0,0.4,0,0.5,0c-0.1,0.8,0.8,0.2,1.1,0.1c0.5,0.1,1,0.1,1.5,0.2
			c0.1,0.1,0.3,0.3,0.4,0.5c0.6-0.2,1.1,0.5,1.1,1.1c-0.5-0.1-0.8,0.1-1,0.5c-0.7,0.3-1.1-0.4-0.9-1c-0.2,0-0.6,0-0.8,0
			c-0.2,0.4-0.4,0.7-0.3,1.1c-0.2,0.6,0.5,0.4,0.8,0.5c-0.2,0.1-0.3,0.2-0.5,0.3c0.4,0.8,0.8,0.1,1-0.2c-0.1,0.2-0.1,0.6-0.1,0.8
			c0.1-0.1,0.4-0.4,0.5-0.6v0.4c1.1-0.2,1.9-1.1,1.8-2.2c1.3,0.7,0.9,2.3,1.1,3.5c0.2-0.1,0.4-0.1,0.6-0.2c0,0.2,0.1,0.4,0.1,0.5
			c0.1,0,0.3-0.1,0.4-0.2c0-0.7,0.3-1.7-0.6-2c0.1-0.2,0.2-0.3,0.3-0.5c0.6,0.9,0.6,2.1,1,3.1c0.1,0.2,0.3,0.3,0.4,0.4
			c-0.1,0.1-0.4,0.2-0.5,0.3c0.1,0.2,0.2,0.4,0.4,0.6c-0.2,0-0.5,0-0.6,0c-0.5,1.6-1.7,2.8-2.8,4c-0.2,0.3-0.6,0.6-0.4,1
			c-1.5,1.2-2.3,2.8-3.3,4.4c0,0.3,0,0.7,0,1c-0.8-0.4-1.2-1.2-2-1.6c-0.1-0.2-0.1-0.5-0.1-0.7c0.5-0.7-0.3-1.5,0.3-2.2l0.4,0.1
			c0-0.1,0-0.3,0-0.4c-0.7-0.6-1.1-1.5-0.9-2.5c0.4,0.5,0.7,1,1.1,1.5c0,0.5,0,0.9,0.3,1.3c1.5-0.8,2.1-2.8,3.7-3.5
			c-0.5,1.4-1.7,2.5-2.6,3.8c-0.2,0.2-0.6,0.3-0.8,0.5c-0.1,0.6,0.1,1.2,0.5,1.7c0.1-0.5,0.3-1.1,0.6-1.6c-0.2-0.7,0.6-0.9,0.8-1.5
			c0.1,0,0.2,0.1,0.3,0.1c0.3-0.4,1.3-0.7,0.9-1.2c0.3-0.7,0.9-1.2,1.2-1.9c-0.4-0.1-0.9-0.2-1.3-0.3c0.1-0.2,0.3-0.4,0.4-0.6
			c0-0.1,0-0.4,0-0.5c-0.5-0.2-1-0.8-1.6-0.7c-0.3,0.4-1,0.7-0.4,1.2c-0.2-0.1-0.5-0.1-0.7-0.1c-0.5-0.3-0.9-0.7-1-1.3
			c0.3-0.1,0.5-0.3,0.8-0.4c-0.4-0.1-0.6-0.5-0.9-0.8c0,0.1,0,0.5,0,0.7c-0.5-0.3-1.2-0.4-1.3-1.1c0.3-0.1,0.5-0.2,0.8-0.3
			c-0.5-0.5-0.9-1.1-1.4-1.6c-0.3,0.6-0.5,1.4-0.1,2.1c0.3,0.7,0.9,1.2,1.4,1.7c-0.2,1,0.8,1.5,1.6,1.7c-0.1,0.3-0.1,0.7-0.2,1
			c-1.2-0.4-2.3-1.2-3-2.3c0.1,0,0.3-0.2,0.4-0.3c-0.7-0.9-1.4-1.7-1.8-2.7c0.1,0,0.3,0,0.4,0c-0.3-1,0-2,0.2-3
			c0.1,0.1,0.2,0.3,0.2,0.4c0.1,0,0.3,0.1,0.4,0.2c0.1-0.9,0.2-2-0.5-2.6c-0.9,1.6-0.4,3.5-0.9,5.2c-0.8-1.8-0.3-3.9-0.4-5.8
			c-0.6,1.4-1,2.9-1.2,4.4c-0.4-0.7-0.2-1.7,0-2.5c-0.1-0.1-0.2-0.2-0.3-0.2c0.1-0.6,0.4-1.2,0.4-1.8c-0.2-0.4-0.1-0.8,0-1.2
			c-0.1,0-0.4,0-0.5,0c-0.1-0.1-0.2-0.1-0.3-0.2l0.3,0.1c0.1-0.5,0.4-1.1,0.6-1.6c-0.2,0-0.5,0-0.6,0c0.2-0.8,0.7-1.4,1-2.1
			c-0.6,0-0.2-0.4-0.1-0.6c0.5-0.5,1.1-1,1.4-1.7c-0.1,0.9-0.4,1.6-0.8,2.3c0.4,1-0.2,2-0.5,3c0.1,0.4,0.2,0.7,0.3,1.1
			c0.3-0.8,0.5-1.6,0.8-2.4c0.2-0.2,0.5-0.4,0.7-0.6c-0.3,1.1-0.5,2.4,0,3.6c0.4-0.4,0.9-0.7,0.9-1.3s0.4-1.2,0.6-1.8
			c-0.2-0.3-0.5-0.6-0.8-0.9c-0.3,0.1-0.5,0.1-0.8,0.1c0.1-0.1,0.2-0.2,0.3-0.3c0.3-1.3,0.3-2.7,1.2-3.7c0.6-0.5,0.2-1.3,0.4-2
			c0.3-0.8,0.7-1.4,1.2-2C146.9,28.2,146.8,28.7,146.4,28.7z M146.4,42.6c-0.1,1.5,0.9,2.6,1.8,3.6c0.6-0.1,1.1,0.5,1.7,0.7
			c0.4,0.2,0.9,0.1,1.3,0.1c0,0.3-0.2,0.7-0.3,1c0.3,0.3,0.6,0.7,0.9,1c0.2-0.4,0.4-0.7,0.6-1.1c-0.2-0.1-0.5-0.2-0.6-0.2
			c0.1-0.4,0.2-0.7,0.3-1c-0.4-0.3-0.8-0.7-1.3-0.4c-1.8-0.3-3.1-2-3.2-3.8C147.2,42.5,146.8,42.5,146.4,42.6z"/>
	</g>
	<path d="M189.9,28.8c0.5-0.4,0.7,0.5,0.3,0.7C189.8,29.6,189.7,29,189.9,28.8z"/>
	<path d="M142.2,29.3c0.1-0.3,0.5-0.5,0.8-0.5C143.1,29.2,142.5,29.7,142.2,29.3z"/>
	<path d="M142.1,29.9c-0.3,0-0.3-0.7,0.1-0.4C142.6,29.6,142.6,30.2,142.1,29.9z"/>
	<path d="M195.3,32.8c1.3,1,2.3,2.4,3.3,3.7c-0.1,0-0.2,0-0.3,0c-0.7-0.6-1.6-1.1-2.1-1.9c-1.2-1.6-3-2.6-4.5-3.7
		c-0.4-0.2-0.9-0.4-1.2-0.8c1.2,0.2,2.3,0.8,3.4,1.4C194.2,32,194.7,32.3,195.3,32.8z"/>
	<path d="M200.9,43.2c-1.1-1.9-2.5-3.7-3.9-5.4c-0.1-0.1-0.2-0.4-0.2-0.5c-0.9-1.1-2.1-1.8-3.1-2.7c-0.3-0.2-0.4-0.4-0.4-0.7
		c-1.1-0.7-2.2-1.5-2.5-2.7c3.3,2.5,6.8,5,8.8,8.6C200.2,40.9,200.8,42,200.9,43.2z"/>
	<g>
		<path d="M163.2,32.4c-0.1,0.4-0.3,0.9-0.3,1.4c0.2,0.3,0.5,0.5,0.6,0.8c0.5,1.4,0.8,3,1.2,4.5c0.2,0.7-0.4,1.4,0,2.1
			c0.5,0.1,0.8-0.6,1.1-0.9c0.2,0.4,0.4,0.7,0.6,1c-0.1,1.1-0.8,2.1-1.4,3.1c-0.1,0-0.3-0.1-0.4-0.2c-0.2,0.5-0.4,1.1-0.9,1.4
			c0-0.5-0.1-1-0.7-1c-0.1-0.2-0.2-0.5-0.3-0.8c-0.5-0.1-1-0.1-1.4,0.2c0.2-0.6,0.3-1.3,0.9-1.6c0.3-0.2,0.9-0.1,0.8-0.6
			c0-0.8-1-1.1-1.6-0.9c-0.3,0.6-0.3,1.3-0.3,2c-0.9-1.2-1.6-3.1-0.7-4.5c-0.2-0.8-0.2-1.7,0-2.5c-0.7-0.6-0.7-1.7-0.4-2.5
			c0.2,0.1,0.5,0.1,0.7,0.1c0.4-0.4,0.5-1,0.5-1.6c0.5,0.2,0.9,0.6,1.3,0.9C162.8,32.7,163.1,32.6,163.2,32.4z M161.8,36.4
			c0.5,0.3,0.7,1,1.4,1c0.1-0.7-0.3-1.2-0.5-1.8c-0.3-0.3-0.6-0.6-0.7-1.1C161.6,35.1,161.6,35.8,161.8,36.4z M161.4,37.8
			c-0.1,0.6,0.4,1.4,1,1C162.1,38.4,162,37.8,161.4,37.8z"/>
	</g>
	<path d="M173.1,33.5c0.4,0.6,0.6,1.4,0.9,2.1c-0.6,0.4-1.2,0.8-1.6,1.5c0.5,0.2,0,0.5-0.1,0.8c-0.2,0.6-1.1,0.4-1.3,1
		c-0.5,0.9-1.4,1.8-2.5,1.6c0.1-0.9,0.6-1.7,1.1-2.5c1-0.3,0.8-1.8,1.7-2.3c0-0.1,0.1-0.4,0.1-0.5c-0.1-0.1-0.2-0.2-0.3-0.3
		c0.5-0.9,0.8-1.9,1-2.9c0.3,0.4,0.4,0.9,0.5,1.4C172.7,33.4,172.9,33.4,173.1,33.5z"/>
	<path d="M192.9,35.3c1.8,1.2,3.1,3.1,4.3,4.8c0,0.1-0.1,0.3-0.1,0.4c0.7,1.3,1.7,2.5,2.5,3.7c-0.1,0-0.3,0.1-0.4,0.1
		c0.7,1.1,1.6,2.1,2.2,3.3c-0.2-0.2-0.5-0.3-0.8-0.4c0.3,0.7,0.6,1.3,0.8,2c-1.3-0.7-1.8-2.2-2.9-3.1c0.3,0,0.5,0.1,0.8,0.2
		c-0.7-1.4-1.5-2.7-2.2-4c-0.2-0.4-0.1-0.9-0.4-1.3c-0.5-0.7-1-1.4-1.5-2.1l0.3-0.3c-0.5-1.1-1.7-1.5-2.5-2.2
		c0.1-0.1,0.2-0.3,0.3-0.4c-0.2-0.2-0.5-0.3-0.8-0.4c0-0.2,0-0.5,0-0.6c-0.5-0.8-1.4-1.5-1.6-2.5c0.8,0.8,1.6,1.5,2.4,2.3
		L192.9,35.3z"/>
	<path d="M167.3,37.8c0.1,1,0.2,2.3-0.8,3c0.6-1,0.4-2.2-0.2-3.1c-0.8-0.4-1.1-1.5-1.1-2.3c0.1,0.2,0.3,0.4,0.4,0.5
		c0.3-0.1,0.5-0.3,0.8-0.4C166.8,36.2,167.2,37,167.3,37.8z"/>
	<path d="M151.2,40.2c-0.2-1.2,0-2.4,0.4-3.5c0.6-0.4,0.8-1.4,1.6-1.2C152.7,37.2,151.8,38.6,151.2,40.2z"/>
	<path d="M159.5,37c-1.2,0.8-0.7,2.4-1.4,3.6c-0.3,0-0.5,0.1-0.8,0.1c0.3-1.3,1-2.6,0.8-4c0,0,0.2,0.1,0.3,0.1
		c0.1-0.3,0.2-0.7,0.6-0.8C159.3,36.3,159.4,36.7,159.5,37z"/>
	<path d="M192,37.5c0,0.1-0.1,0.2-0.2,0.3c0.4,0.3,1.1,0.6,0.7,1.2h0.3v0.3c-0.3-0.1-0.6-0.3-0.9-0.2c0,0,0.1-0.1,0.1-0.2
		c-0.2-0.1-0.5-0.3-0.7-0.4l0.2-0.3c-0.7-0.4-1.2-0.9-1.6-1.5c0.5,0.2,1.1,0.3,1.6,0.5C191.7,37.3,191.9,37.4,192,37.5z"/>
	<path d="M194.2,38.2c-0.1-0.3,0.4-0.5,0.6-0.3C194.9,38.2,194.4,38.4,194.2,38.2z"/>
	<path d="M170.8,40.3c0.1-0.4,0.2-0.7,0.3-1c0.9-0.1,1.6-1.1,2.6-0.9c0.5-0.2,0.5,0.4,0.2,0.6C173,39.6,171.9,40,170.8,40.3z"/>
	<path d="M184.7,40.1c-0.4,0-0.9,0-0.8-0.6c0.3,0,0.7,0,1,0C184.9,39.6,184.8,39.9,184.7,40.1z"/>
	<path d="M194,39.8c0.5,0.4,1,0.8,1.4,1.4C194.8,40.8,194.3,40.3,194,39.8z"/>
	<path d="M192.1,41.5c0.8,0.4,1.5,1.1,2.1,1.8c-0.7,0-1.4-0.1-2-0.5h0.5c-0.2-0.2-0.5-0.4-0.7-0.6c-0.2-0.3-0.5-0.6-0.9-0.7
		c-0.1-0.2-0.2-0.5-0.3-0.8c0.5,0.1,1,0.3,1.5,0.5C192.2,41.2,192.1,41.4,192.1,41.5z"/>
	<path d="M156.6,44.1c-0.4,0.4-0.9-0.1-1.3-0.3c0.6-0.2,0.5-0.9,1.1-1.1c0.1-0.7,0.5-1.2,1-1.5C157.6,42.2,157.6,43.5,156.6,44.1z"
		/>
	<path d="M160.2,43.5c-0.8,0-1.5-0.4-1.9-1.2c0.3,0.1,0.5,0.2,0.7,0.3c0.2,0,0.4-0.1,0.6-0.1v-0.3c0.6,0.6,1.4,1.1,1.5,2.1
		C160.7,44.1,160.5,43.8,160.2,43.5z"/>
	<path d="M179.4,44.4c-0.1-0.7-0.2-1.4-0.3-2.1c1.5,1.2,1.9,4,0.1,5C179.3,46.3,179.2,45.3,179.4,44.4z"/>
	<path d="M195.2,43.2c0.3-0.2,0.4-0.1,0.5,0.2C195.4,43.6,195.2,43.6,195.2,43.2z"/>
	<path d="M195.7,46.4l0.3-0.1v0.3c-0.7-0.6-1.5-1.1-2-1.9c0.7,0.4,1.2,0.9,1.8,1.4L195.7,46.4z"/>
	<path d="M194.4,46.7c0.1,0.1,0.2,0.4,0.3,0.5h-0.3c0,0.1,0.2,0.4,0.3,0.6c0.1,0,0.2-0.1,0.3-0.1c0,0-0.1,0.1-0.2,0.2
		c-0.7-0.4-1.4-0.7-2-1.1c0.1-0.1,0.2-0.2,0.2-0.3c-0.2-0.1-0.3-0.3-0.5-0.5c0.3,0.1,0.6,0.1,0.9,0.2c0-0.2,0-0.5,0-0.7
		c-0.3-0.3-0.5-0.6-0.7-0.9c1.1,0.3,1.8,1.3,2.4,2.2C194.9,46.8,194.6,46.7,194.4,46.7z"/>
	<path d="M159.4,46.7c-0.2,0.1-0.3,0.3-0.5,0.4c0,0.1,0.1,0.3,0.2,0.4c-0.5,0.1-1,0.3-1.4,0.6c0-0.6,0.5-1.2,0.4-1.9
		c-0.4,0-0.2-0.4-0.1-0.6c-0.3-0.2-1-0.6-0.3-0.8c0.8,0.1,1.2,1.1,1.8,1.6C159,46.4,159,46.6,159.4,46.7z"/>
	<path d="M144.5,48.7c0.5,1,1.1,1.9,1.4,3c-0.4-0.4-0.9-0.7-1.3-1.1c0.1-0.1,0.1-0.3,0.1-0.4c-0.3,0.5,0.1,1.1,0.2,1.7
		c-1.1-0.5-1.8-1.5-2.4-2.5c-0.1-0.2-0.2-0.5-0.3-0.8c0.3-0.5,0.1-1.1,0.3-1.7c0.3-0.4,0.4,0.2,0.4,0.5c0.2-0.3,0.4-0.5,0.6-0.8
		C143.4,47.4,143.5,48.4,144.5,48.7z"/>
	<path d="M178.4,49c-0.2,0.3-0.6,0.5-0.6,0.9c-0.2-0.1-0.4-0.1-0.6-0.1c0.2-0.6,0.4-1.2,1-1.5C178.2,48.4,178.3,48.8,178.4,49z"/>
	<path d="M194.7,49.3c0.2-0.2,0.7,0.1,0.6,0.4C195.1,49.8,194.6,49.6,194.7,49.3z"/>
	<path d="M169.3,53.6c0.9-0.2,1.1,0.8,1.5,1.4c-0.7,0.1-1.3,0.3-1.9,0.7c-0.2-0.1-0.3-0.3-0.4-0.5c-0.5-0.1-0.9-0.1-1.2-0.5
		c0.2-0.1,0.4-0.3,0.6-0.5c-0.1-0.3-0.4-0.5-0.6-0.8c0.7,0,1.2-0.4,1.2-1.1c-0.6,0.1-0.8-0.6-1.4-0.6c0.2-0.2,0.4-0.5,0.6-0.7
		c-0.6-0.4,0.2-1,0.6-1.2C168.8,51,170,52.3,169.3,53.6z"/>
	<path d="M153.3,53c-0.2-0.7,0.2-1.3,0.2-1.9c0.3-0.3,0.7-0.7,1.1-0.9C154.3,51.2,154,52.2,153.3,53z"/>
	<path d="M194.7,50.8c0.3-0.1,0.8-0.1,1,0.2C195.7,51.5,194.7,51.2,194.7,50.8z"/>
	<path d="M149.3,51.8h-0.2v0.3c-0.7,0.7-1.9,0.5-2.5-0.3c0-0.2-0.1-0.5-0.1-0.7c0.3,0.1,0.6,0.2,0.8,0.3c0.3,0.1,0.6,0.2,0.9,0.3
		c0.1-0.2,0.1-0.3,0.2-0.5c0.6,0.4,0.7-0.5,1.1-0.7C149.5,51,149.5,51.4,149.3,51.8z"/>
	<path d="M204.6,59.6c0.1-0.1,0.2-0.2,0.3-0.2c-0.4,0.6,0.3,1.2,0.4,1.7c0.2,0.4,0.8,1.4-0.1,1.2c0.1,1.4,0.7,2.6,1.2,3.8l-0.3,0.2
		c-0.5,0.9,0.4,1.9,0.2,2.9c-0.1,0.8-0.1,1.6-0.1,2.4c0,0.9-0.6,1.7-0.8,2.6c-0.2,0.8,0,1.6-0.2,2.3c-0.1,0-0.2,0.1-0.3,0.1
		c-0.2,1-0.3,2.1-0.5,3.1c-0.5,2.6-1.6,4.9-2.8,7.2c-0.1-0.1-0.3-0.2-0.4-0.3c-0.2,0.9-0.8,1.6-1.2,2.4c-0.7,1.2-1.2,2.6-1.3,4.1
		c-0.8-0.4-1.5,0.3-2.2,0.6c-0.3-1-0.3-2-0.2-3c0.3,0.2,0.6,0.3,0.9,0.5c0.1-0.6,0.1-1.2,0.5-1.7c0.4,0.1,0.9,0.3,1-0.2
		c0.3-0.8,0-1.7,0.2-2.5c0.2,0.1,0.4,0.1,0.6,0.2c0.3-1.5,0.5-3.1,1.1-4.5c0.1,0.7,0.1,1.4,0.4,2c0.4-1.4,1.2-2.6,1.7-3.9
		c0.1-0.3-0.3-0.5-0.2-0.8c0.3-0.7-0.1-1.5-0.2-2.3c0.2,0.1,0.4,0.2,0.6,0.3c0.1-1.1,0.6-2.2,0.7-3.3c0.2-0.5-0.3-1.3,0.5-1.3
		c0.2-1.4,0.5-2.9,0.3-4.3c0.2,0,0.4-0.1,0.5-0.1c-0.4-0.6-0.7-1.4-0.9-2.1c0.1,0.1,0.3,0.3,0.4,0.4c-0.1-1.5-0.5-3.1-0.8-4.6
		c0-0.2-0.1-0.5,0.1-0.8c-1.2-2.7-1-5.8-1.8-8.7c0.3-0.6-0.1-1.1,0-1.7c0.9,1.1,1.3,2.5,2,3.7C203.4,56.7,204.2,58.4,204.6,59.6z"/>
	<path d="M193.5,52.6c0.9,0,1.7,0.5,2.5,1C195.1,53.5,194.3,53,193.5,52.6z"/>
	<path d="M175.1,55c0.1,0.1,0.1,0.5,0.1,0.7c0.5-0.1,1-0.3,1.5-0.5c0.1-0.2,0.2-0.5,0.3-0.8c0.6-0.7,1.2-1.4,2.2-1.2
		c0.5,0.8,0.2,1.8-0.3,2.6c-0.2,0.6-0.8,0.8-1.3,1.1c0-0.1,0-0.4,0-0.5c-0.6,0.4-1.1,0.9-1.6,1.4c-0.2,0-0.5,0-0.7,0
		c-0.5-0.3-0.9-0.7-1.4-1.1c-0.3,0-0.6-0.1-0.7-0.5c-1.5-0.6-2-2.3-2.2-3.7c0.6,0.2,1,0.6,1.5,1C172.4,54.8,174.1,55.6,175.1,55z"/>
	<path d="M186.5,53.5c0.3-0.6,1.2-0.4,1.7-0.5C187.6,53.2,187,53.4,186.5,53.5z"/>
	<path d="M185.6,56.5c-1.2,0.6-2.3,1.3-3.6,1.8c0.1,0.1,0.2,0.2,0.2,0.3c-0.2-0.4-0.5-0.1-0.8,0c-1.2,0.5-2.5,1-3.7,1.5
		c-0.9,0.3-1.7,0.6-2.6,0.9c0.3-0.7,1-1,1.7-1.3c1.3-0.4,2.7-0.8,4-1.2c-0.3-0.2-0.7-0.2-1.1-0.2c1.1-1,2.6-1.4,4-1.8
		c-0.7,0.8-1.7,1.4-2.8,1.6c0,0.1,0,0.2,0,0.3c2.3-0.9,4.5-2.2,6.7-3.5c0.9-0.5,1.7-1,2.6-1.4C188.8,54.6,187.2,55.4,185.6,56.5z"/>
	<path d="M186.6,54c0.8-0.2,1.6-0.4,2.4-0.5C188.4,54,187.5,54.2,186.6,54z"/>
	<path d="M164.8,55.3c-0.2,0.5-0.4,1-0.3,1.5c0.1-0.1,0.3-0.2,0.4-0.3c0.1,0.8-0.8,1.3-1.2,1.9c0.7,0.1,0.4,0.9,0.2,1.3
		c0.3,0.2,0.7,0.2,1,0.3c-0.5,0.5-1.3,0.4-1.9,0.3c-0.8-0.1-1.1-0.9-1.2-1.6c-0.6-0.4,0-1.1,0.2-1.6c-0.4,0.1-0.8,0.2-1.2,0.3
		c0.2-0.4,0.3-0.9,0.5-1.3c0.3-0.2,0.7-0.3,1-0.6c0.2-0.6,0-1.2-0.2-1.7c0.6,0.3,1.4,0.6,1.7,1.4C164,55.3,164.3,55.3,164.8,55.3z"
		/>
	<path d="M152.7,56.4c-0.2,0.4-0.7,1.1-0.9,0.4c-0.3-1.2,1-2.1,1.7-2.9C153.3,54.8,152.8,55.6,152.7,56.4z"/>
	<path d="M210.2,64.6l-0.3,0.2c1.1,1.8,1.1,4.1,1.2,6.2c-0.3,1-0.3,2.1-0.1,3.1c-0.4-0.2-0.5-0.7-0.7-1.1c-0.6-1.9-0.1-3.9-0.4-5.8
		c-0.7-2.6-1.2-5.2-2.1-7.7c-0.2-0.1-0.4-0.3-0.5-0.6c-0.5-1.5-1-3.1-0.9-4.7c1,1,0.9,2.7,1.4,3.9C209.2,60.1,209.3,62.6,210.2,64.6
		z"/>
	<path d="M153.6,56.3c-0.6-0.4,0.1-1.3,0.5-1.7C154.1,55.2,153.9,55.8,153.6,56.3z"/>
	<path d="M182.8,56.1c-0.3,0.3-0.6,0-0.9-0.1c1-0.1,1.9-0.5,2.9-0.6c0.3,0,0.5-0.1,0.8-0.2c0.3-0.1,0.6-0.1,0.9-0.1
		C185.3,55.7,184,55.7,182.8,56.1z"/>
	<path d="M144.2,56c0.5,0.1,0.3,0.8,0.8,0.8v0.3c-0.5-0.2-1.2-0.5-0.8-1.2c-0.2-0.3-0.4-0.5-0.6-0.7c0.3,0.1,0.5,0.3,0.8,0.5
		C144.3,55.8,144.2,55.8,144.2,56z"/>
	<g>
		<path d="M196.5,59.5c-0.2,1.5,0.2,2.9,0.7,4.3c-0.2-0.1-0.5-0.2-0.6-0.2c0,0.9,0.2,1.8,0.4,2.7c-0.1,0-0.3,0.1-0.4,0.1
			c0,0.9,0.2,1.9-0.3,2.8c0-0.1-0.1-0.4-0.2-0.5c-0.7,1.4-1,3.1-1.1,4.7c0,0-0.2,0.1-0.3,0.1c-0.5,1.7,0,3.5-0.3,5.2
			c-0.1,0-0.3,0.1-0.4,0.1c-0.1,1.9,0.1,3.9-0.4,5.8c-0.1-0.1-0.3-0.3-0.4-0.4c-0.2,1-0.3,2-0.7,3c0,0-0.2,0.1-0.3,0.1
			c0,0.5-0.2,1-0.3,1.4c-0.9,0.1-0.5,1.1-1.1,1.5c-0.4,0.6-1.2,0.8-1.7,1.3l-0.2-0.3c-0.5,0.5-1,1-1.6,1.4c-0.2-0.1-0.5-0.2-0.7,0
			c-0.5,0.3-1.1,0.8-1.6,1.2c0,0.1,0.1,0.4,0.1,0.5c-0.3-0.3-0.8-0.9-1.2-0.4c-1.1,0.7-0.3,2.1-0.5,3.2c0.1,0,0.4-0.1,0.5-0.1
			c-0.3,1.6-0.7,3.2-1,4.8c-0.2-0.5-0.4-0.9-0.4-1.4c0-1.6,0.1-3.3-0.7-4.7c-0.2,0.2-0.3,0.3-0.5,0.5c-0.1-0.7-0.2-1.5-0.4-2.3
			c0,0.1-0.2,0.2-0.3,0.2c0.2-0.2,0.3-0.4,0.1-0.6c-0.5-0.8-1.4-1.1-2.3-1c0,0.2-0.1,0.4-0.2,0.5c-0.5-0.3-0.9-0.6-1.4-0.8
			c-0.1,0.1-0.2,0.3-0.3,0.4c-0.6-0.3-1.1-1.4-1.9-1c-1.4-0.6-2.6-1.5-3.5-2.7c-0.3-1.1-0.8-2.1-1.5-3.1c-0.3-0.4-0.8-0.7-1-1.2
			c-0.3-0.6-0.8-1.2-0.9-1.9c0,0.2-0.1,0.5-0.2,0.7c-1.1-1.2-1-3.4-2.7-4.1c0-0.8-0.1-1.7,0-2.5c0.3,0.3,0.5,0.7,0.7,1
			c0.1,0,0.3,0.1,0.4,0.1c-0.1,0.7,0.5,1,0.8,1.6c0.2,0.5,0.4,1.1,1,1.1c0.3,0.9,0.6,1.7,1.1,2.5c0.1,0,0.3-0.1,0.4-0.2
			c0.7,1,1,2.2,1.9,3c0.4,1,1.3,1.8,2.2,2.5c-0.2-0.6-0.5-1.4-1.1-1.8c-0.7-0.4-0.6-1.8-1.5-1.8c-0.3-0.9-0.6-1.7-1.1-2.4
			c-0.1-0.3-0.4-0.3-0.7-0.4c-0.3-0.6-0.3-1.6-1-1.9c0.2-0.6-0.1-1.6,0.6-2c0,0.3,0.1,0.6,0.1,0.9c0.1,0,0.3,0,0.4,0
			c0.5,1,1,2,1.4,3.1c0.1-0.1,0.3-0.3,0.4-0.4c0.1,0.7,0.3,1.7,1.1,1.8c0.1,0.3,0.2,0.7,0.5,1c0-0.1,0.1-0.4,0.2-0.6
			c0.2,0.5,0.4,1,0.6,1.4c0.1,0,0.3-0.1,0.5-0.1c0.2,0.4,0.4,0.9,0.7,1.3c0.2-0.1,0.3-0.3,0.5-0.4c0.2,0.6,0.7,1.1,1.2,1.6
			c0.1-0.2,0.3-0.4,0.4-0.6c0.2,0.2,0.3,0.3,0.4,0.5c0.2-0.2,0.4-0.5,0.6-0.8c0.2,0.2,0.5,0.4,0.7,0.6c0.2-0.7,0.3-1.4,0.4-2.1
			c0.4,1,0.5,2.1,0.9,3.2c0.1,0.3,0.5,0.4,0.6,0.7c0.5,1.1,0.8,2.2,1.7,3c0.5-1,0.1-2.1,0.3-3.2c0.2,0.3,0.5,0.6,0.7,0.9
			c0.1-1,0.3-2,0.4-3c0-0.3,0.1-0.5,0.3-0.7c0.2,0.6,0.3,1.2,0.5,1.7c0.4-1,0.9-2.1,1.6-3c0.1-0.4,0.3-0.1,0.5,0
			c0.4-0.8,1-1.4,1.6-2.1c0.2,0.1,0.3,0.1,0.5,0.2c0.5-0.7,1-1.5,1.3-2.3c0.1,0,0.4,0,0.5,0c0.2-0.6,0.3-1.2,0.5-1.7
			c0,0.1,0.1,0.4,0.2,0.5c0.6-0.9,0.3-2.1,0.3-3.1c0.2,0.1,0.4,0.2,0.5,0.2c-0.1-1.7,0.5-3.4,1-5c0.1,0,0.3,0.1,0.4,0.1
			c0.3-1,0.6-2.1,1-3c0.6-1,0.5-2.2,0.7-3.3c0.2,0.3,0.4,0.7,0.7,0.8c0-0.3-0.1-0.7-0.2-1c0.2,0,0.5,0.1,0.6,0.1
			c-0.3-0.5-0.5-0.9-0.6-1.4c0.4,0.1,0.8,0.3,1.2,0.4c-0.4-0.7-1-1.2-1.4-1.9c0.4,0,0.8,0.1,1.1,0.3c-0.6-1-1.1-2-1.5-3.1
			c0.3,0,0.6,0.1,0.9,0.2c-0.3-0.6-0.5-1.2-0.7-1.8c0.2,0.1,0.5,0.2,0.7,0.2c-0.4-0.9-0.8-1.9-1.2-2.8c0.9,0.4,1.5,1.2,2,2
			C196,58.2,196.6,58.8,196.5,59.5z M189.7,84.4l-0.1-0.5c-0.8,0.7-1.1,1.7-1.7,2.5c-0.3,0.4-0.8,0.6-1,1.1
			c-0.5,1.2-1.1,2.4-0.9,3.7c0.5-0.3,0.9-0.7,1.4-1.1c0.2,0,0.5-0.1,0.6-0.1c0.3-0.3,0.5-0.8,1-0.6c0.2-0.3,0.4-0.6,0.6-0.9
			c0.1,0.1,0.4,0.1,0.5,0.1c0.2-0.7,0.6-1.5,0.9-2.2c0.1,0.2,0.2,0.5,0.3,0.6c0.1-1,0.2-2,0.4-3c0.2-0.1,0.4-0.2,0.5-0.3
			c-0.1-0.9-0.1-1.7-0.1-2.6C191.4,82.3,190.7,83.5,189.7,84.4z"/>
	</g>
	<path d="M189.3,57.1c1,0.5,2.2,0.6,3,1.5C191.4,58,190.2,57.8,189.3,57.1c-1.3,0.7-2.6,1.3-4,1.9c-3.3,1.4-6.6,2.7-9.9,4
		c0.7-0.5,1.6-0.9,2.4-1.3c3.7-1.7,7.7-3,11.5-4.7c0.5-0.3,1.1-0.5,1.6-0.7C190.3,56.5,189.8,56.8,189.3,57.1z"/>
	<path d="M168.1,56.7c0.3,0.9,0,2.3-1,2.6c0-0.3,0.1-0.6,0.1-0.9c-0.7-0.4-0.7-1.2-0.7-1.9c0.2,0.1,0.5,0.2,0.8,0.3
		C167.6,56.8,167.8,56.7,168.1,56.7z"/>
	<path d="M165.6,59.2c-0.4,0.2-0.7,0.1-1.1,0.2c0.1-0.4,0.2-0.8,0.4-1.1c0.4-0.6,0.4-1.3,0.8-1.9c0.7,0.3,0.2,1.2,0.4,1.8
		C165.9,58.5,165.7,58.9,165.6,59.2z"/>
	<path d="M194,57.7v-0.2c-0.9-0.2-1.8-0.4-2.6-0.7c1-0.3,2,0.1,2.8,0.7L194,57.7z"/>
	<path d="M185.4,58c-3.3,1.2-6.6,2.4-9.8,3.7c0.1,0,0.3-0.1,0.4-0.2c1.4-0.8,2.9-1.3,4.4-1.9c1.8-0.7,3.7-1.4,5.6-2.1
		c0.4-0.1,0.8-0.3,1.2-0.4c0.1-0.1,0.4-0.2,0.5-0.2C186.9,57.4,186.1,57.7,185.4,58z"/>
	<path d="M154.7,58.5c-0.7-0.3-0.9-1-1-1.6c0.5-0.1,0.8,0.4,1.1,0.7C154.8,57.9,154.7,58.2,154.7,58.5z"/>
	<path d="M177.8,58.9c-0.3,0.2-0.7,0.4-1.1,0.4c0.1-0.1,0.5-0.4,0.7-0.5c-0.3-0.2-0.5-0.5-0.3-0.8c0.2,0,0.5,0.1,0.7,0.1l-0.6,0.1
		c0.2,0.1,0.3,0.3,0.5,0.4c0.9-0.6,1.9-1.1,3-1.5C179.8,57.9,178.7,58.3,177.8,58.9z"/>
	<path d="M152.5,58.9c-0.1,0-0.4-0.2-0.6-0.3c0.1-0.4,0.2-0.8,0.3-1.2c0.2,0.1,0.5,0.1,0.7,0.1C152.9,58.1,153.3,59,152.5,58.9z"/>
	<path d="M172.6,62c-0.7,0.8-2.1,0.6-2.5,1.8c-1.4,0.1-2.4,1.1-3.8,1.4c-0.6-0.2-0.3-1,0-1.3c0.8-0.6,2-0.7,2.6-1.7
		c1.1,0.2,1.7-0.7,2.4-1.4c-0.1-0.3-0.1-0.5-0.2-0.8l-0.3-0.1c0.2-0.6,0.5-1.2,1.2-1.4c1.1-0.6,2.6,0.4,2.3,1.7
		C174.2,61.1,173.4,61.8,172.6,62z"/>
	<g>
		<path d="M186,59.8c0.3,0.1,0.6,0.3,0.9,0.2c1.4,0,2.9-0.1,4.2,0.4c-2-0.4-4.1-0.2-6.1,0.2c-0.5,0.2-1.1,0-1.6-0.3
			c0.6,0,1.1,0.3,1.7,0.2c-0.3-0.2-0.7-0.4-1-0.5c0.6,0,1.2-0.3,1.8-0.3c2-0.5,4-1,6-1.1C190,59.1,188,59.5,186,59.8z M185.2,59.9
			c-0.3,0.4,0.5,0.3,0.7,0.3C186.2,59.9,185.4,59.9,185.2,59.9z"/>
	</g>
	<path d="M175,59.6c0.4-0.5,1-0.7,1.5-1.1c0.1,0,0.3,0.1,0.4,0.2C176.2,59,175.6,59.4,175,59.6z"/>
	<path d="M166.7,59.9c0.1,0.4,0.3,0.8,0.3,1.3c0,0.3,0,0.8-0.4,0.7c-0.4-0.5-0.8-1.1-1.3-1.5c0.3-0.6,0.5-1.1,0.8-1.6
		C166.3,59.1,166.5,59.5,166.7,59.9z"/>
	<path d="M193.1,61.1c0.1,0.2,0.3,0.5,0.5,0.7c-0.6,0.1,0,0.7,0.1,1c-0.6-0.1-1.3-0.3-1.9-0.5c0-0.1-0.1-0.3-0.2-0.4
		c0.3,0,0.6,0,0.9,0c-0.3-0.5-0.6-0.9-0.8-1.3c0.1,0,0.4,0.1,0.6,0.1c-0.3-0.5-0.8-0.9-1-1.5c0.9,0.2,1.6,0.7,2.2,1.3
		C193.4,60.7,193.3,60.8,193.1,61.1z"/>
	<path d="M149.3,60.5c0.3,0.2,0.5,0.5,0.5,0.9c-0.3,0.1-0.7,0.2-1,0.3c0.1,0.2,0.3,0.4,0.4,0.6c0,0.1,0.1,0.3,0.1,0.4
		c0.8,0.4,1.4,1,2.1,1.5c0.6,0.5,1.6,0.7,1.8,1.6c-0.3,0.1-0.6,0.1-0.9,0.2c-0.2-0.1-0.4-0.3-0.6-0.5c-0.1,0-0.2,0.1-0.3,0.1
		c-0.7-0.8-1.7-1.4-2-2.5c-0.1,0-0.2,0.1-0.3,0.1c0.6-0.5-0.4-0.8-0.4-1.3c-0.1-0.9,0.1-1.7-0.1-2.6c0.3,0.1,0.6,0.3,0.9,0.5
		C149.5,59.9,149.5,60.2,149.3,60.5z"/>
	<path d="M169.1,61c-0.3-0.3-0.1-0.7-0.2-1.1c0.2,0,0.7,0.1,0.9,0.2c0-0.2,0.1-0.5,0.1-0.6c0.2,0.4,0.4,0.7,0.4,1.1
		C169.9,60.7,169.5,61.1,169.1,61z"/>
	<path d="M145.9,60.7c-0.9,0-1.8-0.1-2.6-0.4c1.4,0.2,2.8,0,4.2,0.5C147,60.9,146.4,60.7,145.9,60.7z"/>
	<path d="M183.1,60.5c-1.6,0.7-3.3,1.4-5,2.1c-0.8,0.3-1.7,0.7-2.6,1c1.6-1,3.2-1.6,4.9-2.3c1-0.4,2-0.8,3-1L183.1,60.5z"/>
	<path d="M174,63.5c0.1,0.1,0.3,0.1,0.4,0.2c-0.3,0.4-0.5,0.7-0.8,1c-0.3,0.1-0.7,0.1-1,0.2c-0.1,0.1-0.2,0.4-0.2,0.5
		c-0.2,0-0.5,0-0.7,0c-1.9,1.9-4.7,2.5-7.2,2.8c0-0.8,0.8-1.1,1.5-1.2c0.6,0,1-0.5,1.5-0.5c0-0.1,0.1-0.3,0.2-0.4
		c1.4-0.8,2.9-1.6,4.4-2.3c1.4-0.5,1.6-2.3,3-2.6C174.8,62,174.5,62.8,174,63.5z"/>
	<path d="M162.7,66.5c-0.4,0.9-1.4,1.3-1.9,2.1c-0.2,0.4-0.7,0.3-1,0.1c-0.4-0.2-1-0.4-1.1-1c0.1,0,0.4,0.1,0.5,0.1l0.1-0.4
		c0.2,0.2,0.5,0.5,0.8,0.6c-0.2-2.3,1.5-4.2,3.6-4.8c-0.3-1.1,0.6-2.1,1.7-2c0.2,0.1,0.9,0.1,0.7,0.6
		C165.7,63.9,163.6,64.9,162.7,66.5z"/>
	<path d="M150.8,62.7c-0.1-0.3-0.2-0.7-0.2-1c0.3-0.3,0.5,0.2,0.7,0.4C151.1,62.3,150.9,62.5,150.8,62.7z"/>
	<path d="M193.3,63.2c0.3,0,0.7-0.1,1-0.1c0.2,0.2,0.3,0.4,0.5,0.5c-0.3,0-0.7-0.1-1,0l0.1-0.3c-0.5,0.1-1.1-0.1-1.6-0.3
		c-4.6-0.9-9.5-1.3-14,0.1c1.2-0.9,2.8-1.1,4.2-1.3c3.2-0.2,6.5,0.3,9.6,1C192.5,62.9,192.9,63,193.3,63.2z"/>
	<path d="M154,63.5c-0.1,0.1-0.4,0.4-0.6,0.5c-0.4-0.4-0.5-0.9-0.7-1.4c0.2-0.4,0.4-0.7,0.7-0.9C153.5,62.3,153.8,62.8,154,63.5z"/>
	<path d="M160,63.9c0.5-0.4,1-0.9,1.5-1.2c0.5-0.3,1.1-0.3,1.6-0.4C162.4,63.3,161.1,63.5,160,63.9z"/>
	<path d="M155.8,63.8c-0.2-0.1-0.5-0.2-0.7-0.2c-0.4-0.2-0.7-0.6-0.8-1.1c0.2,0,0.5-0.1,0.6-0.2c0.9,0.2,1.6,0.7,2.3,1.3
		C156.8,63.7,156.3,63.6,155.8,63.8z"/>
	<path d="M148.1,63c-0.3,0-0.8-0.1-1.1-0.3c0.1-0.4,0.6-0.1,0.8-0.1C148,62.6,148.5,62.8,148.1,63z"/>
	<path d="M193.2,66.3c-0.2,0-0.4,0.1-0.5,0.1c-0.2,1-0.1,2-0.5,2.9c-0.1-0.1-0.3-0.2-0.4-0.2c-0.1,1.6-1.5,3-1,4.7
		c-0.1,0-0.3,0-0.4,0c0.2,1.1,0.1,2.3-0.1,3.4c-1,0.7-1.2,2.1-2,3c0-0.2-0.1-0.6-0.1-0.8c-0.3,0.8-0.6,1.6-1.2,2.2
		c-0.5-1-0.4-2.1-0.3-3.2c0.5-0.1,0.7-0.6,0.8-1c0.1,0,0.4-0.1,0.5-0.1c0.2-0.5,0.3-0.9,0.4-1.4c0.8-0.9,0.7-2.3,0.4-3.4
		c0.1,0.1,0.3,0.1,0.4,0.1c-0.1-1.8,0.9-3.4,1.2-5.2c0.1,0.1,0.3,0.2,0.4,0.3c0.4-1.3,0.7-2.5,0.8-3.8c0.1,0,0.4,0,0.5,0
		c-0.1-0.2-0.3-0.5-0.5-0.7c0.9,0,1.4,0.8,2,1.4C193,64.9,193.3,65.7,193.2,66.3z"/>
	<path d="M183,64c-2.4,0.5-4.7,1.2-7.1,1.8c-0.3,0-0.5,0-0.7,0c0.9-0.4,1.7-0.7,2.6-0.9v-0.2c-1.3,0-2.6,0.3-3.9,0.5
		c-0.4,0.1-1,0.1-1.4-0.1c1.2,0,2.5-0.3,3.7-0.5c0.9-0.1,1.8,0.4,2.6,0.1c2.4-0.7,4.9-0.9,7.4-1.2C185.2,63.8,184.1,63.9,183,64z"/>
	<path d="M176.2,64c1.2-0.3,2.5-0.5,3.8-0.2C178.8,64,177.5,64.1,176.2,64z"/>
	<path d="M159.2,64.4c-0.6,0-1.3,0-1.9,0c0.1-0.3,0.2-0.5,0.2-0.8c0.7,0,1.5,0,2.2,0C159.5,63.9,159.3,64.2,159.2,64.4z"/>
	<path d="M146.9,64.3c0.6-0.3,1.2-0.5,1.9-0.6C148.2,64,147.6,64.4,146.9,64.3z"/>
	<path d="M156,66.1c-0.8-0.6-1.8-1.1-2.4-2c0.1,0,0.4,0,0.5,0c2,0.4,3.1,2.3,4.3,3.8C157.3,67.7,156.7,66.7,156,66.1z"/>
	<path d="M183.4,64.9c-3.2,0.9-6.4,1.6-9.6,2.2c0.2-0.1,0.5-0.3,0.8-0.4C177.5,65.7,180.4,65.3,183.4,64.9L183.4,64.9z"/>
	<path d="M154.6,67.6c0.3,0.2,0.7,0.5,1,0.7c-2.4,0.8-5.4-0.8-6-3.3c0.5,0.4,0.9,0.9,1.5,1C152,67,153.2,67.7,154.6,67.6z"/>
	<path d="M148.8,65.6c-1.9-0.1-3.4,0.9-5.1,1.5C145.3,66.2,147,65.3,148.8,65.6L148.8,65.6z"/>
	<path d="M171.7,68c-0.1,0-0.4-0.2-0.5-0.3c-0.8,0.2-1.3,0.7-1.9,1.1c-1,0.3-2,0.7-3.1,0.6c-0.3-0.3-0.1-0.7,0.4-0.7
		c2.2-0.4,4.2-1.5,6-2.8c0.6-0.2,1.3-0.1,1.9-0.1C173.8,66.8,172.8,67.5,171.7,68z"/>
	<path d="M182.6,70.3c-0.5-0.6-0.8,0.3-1.2,0.6c-0.4-0.3-0.8,0.1-1.1,0.3c-1.4,0.8-2.7,1.6-4.1,2.4c0.3-1.3,1.3-2.1,2.2-2.9
		c0.5,0.1,0.9-0.1,1.3-0.3c-0.4-0.3-0.9-0.3-1.4-0.3l-0.1,0.3c0-0.1,0-0.3,0-0.4c-1.1,0-2.1-0.4-3.2-0.5c-0.8-0.1-1.7-0.3-2.2-1
		c2.4,0.4,4.7,1.2,7,1.7c1-0.4,1.7-1.1,2.4-1.9c0.3-0.3,0.2-0.8,0.3-1.2c0.6,0.6,0.8-0.4,1.1-0.7C184.4,67.8,183.2,69.1,182.6,70.3z
		"/>
	<path d="M163.4,69c0.3,0.1,0.6,0.2,0.8,0.4c-0.4,0.4-1,0.4-1.4,0c0.1-0.2,0.2-0.5,0.3-0.6c-0.4-0.1-0.7-0.2-0.9-0.5
		c0.6-0.2,1.4-0.3,2,0.1C163.9,68.6,163.4,68.6,163.4,69z"/>
	<path d="M171,69.9c-1,0.2-1.9,0.8-2.9,1.1c-0.7,0.2-1.4,0-1.9-0.5c0.6-0.4,1.4-1.1,2.2-0.6c0.6-0.4,1.3-0.7,1.9-1.1
		c0.7-0.3,1.5-0.3,2.3-0.2C172.3,69.3,171.5,69.4,171,69.9z"/>
	<path d="M155.8,69c0-0.7,1.4-0.8,1.3,0C156.6,69.2,156.2,69.1,155.8,69z"/>
	<path d="M151.7,69.4c-0.2-0.2-0.6-0.4-0.3-0.7c1,0.1,2,0.4,2.8,0.9C153.4,69.8,152.5,69.9,151.7,69.4z"/>
	<path d="M156.8,70.1c-0.1-0.2-0.2-0.3-0.3-0.5c0.8-0.2,1.5-1,2.2-0.5C158.2,69.6,157.5,70,156.8,70.1z"/>
	<path d="M164.4,69.9c-0.2-0.8,1-0.8,1.5-0.6C165.5,69.7,164.9,69.9,164.4,69.9z"/>
	<path d="M164,71.1c0.5,0.2,0.6,0.5,0.2,0.8c0,0.1,0,0.4,0,0.5c0.2,0.1,0.3,0.3,0.5,0.5c-0.7,0-1.4-0.2-1.9-0.7
		c-0.2-0.5-0.5-1-1-1.1c-0.3,0.2-0.7,0.4-1,0.1c-0.3,0.2-0.6,0.3-0.9,0.5l0.3,0.1c0,0.2,0.1,0.4,0.1,0.6c-0.4,0.7-1,1.2-1.6,1.7
		c-0.4-0.2-0.8-0.8-0.4-1.1c-0.3-0.4-0.5-0.8-0.7-1.2c0.2-0.3,0.3-0.5,0.4-0.7c-0.1,0-0.4-0.1-0.5-0.1c0.2-0.2,0.5-0.3,0.7-0.5
		c0.9-0.1,1.6-0.7,2.3-1.1c1.1,0.7,2.6,0.7,3.8,1.3C164.2,70.8,164.1,71,164,71.1z"/>
	<path d="M155.2,70.5c-0.8-0.2-0.1-1.4,0.6-1C156,69.9,155.4,70.2,155.2,70.5z"/>
	<path d="M177.7,70.5c-1.8-0.3-3.7-0.1-5.5-0.2c1.4-0.5,2.9-0.2,4.3-0.1C177,70.2,177.3,70.4,177.7,70.5z"/>
	<path d="M156.4,70.5c-0.8,1.4-3.3,1.4-3.8-0.2c0.7-0.3,1.4-0.1,2,0.2C155.1,70.8,155.8,70.6,156.4,70.5z"/>
	<path d="M187.4,72.9c-0.1,0.5,0.1,1.2-0.6,1.4c0,0.8-0.9,1.1-1.3,1.6c0.3-1,0.4-2,0.5-3c0.1,0.1,0.3,0.3,0.4,0.4
		c0-0.5-0.1-1.1,0-1.6l0.3-0.1c-0.1-0.1-0.2-0.4-0.2-0.6c0.4,0.2,0.6,0.6,0.8,1C187.4,72.2,187.6,72.7,187.4,72.9z"/>
	<path d="M164.6,72.1c-0.1-0.7,1.1-0.9,1.5-0.4C165.6,71.9,165.1,72.1,164.6,72.1z"/>
	<path d="M156.1,72.3c-0.1-0.4,0.5-0.6,0.8-0.6C156.9,72,156.4,72.4,156.1,72.3z"/>
	<path d="M165.1,72.7c0.6-0.6,1.7-1.3,2.4-0.5C166.8,72.6,165.9,72.9,165.1,72.7z"/>
	<path d="M162.9,73c0,0.2,0,0.6,0,0.8c-0.4-0.2-0.7-0.5-1-0.8c-0.3,0.1-0.6,0.3-0.9,0.4c-0.1-0.6,0.4-1.1,0.8-1.5
		C162.1,72.2,162.4,72.7,162.9,73z"/>
	<g>
		<path d="M150.7,82.4c-0.2,1.7-0.1,3.4-0.4,5.1c0.2,3.5,1.1,6.8,1,10.3c0.3,0.8,0.6,1.6,0.6,2.5c0.1,2.2,1.2,4.3,1.4,6.5
			c0.2,0.6,0.3,1.2,0.8,1.5c-0.5-3.1-2.1-6-1.7-9.2c0.5,0.6,0.5,1.3,0.5,2c0.1,0.1,0.2,0.2,0.3,0.2c0.2,1.7,1,3.2,1.5,4.8
			c0.6,1.8,2.3,3,2.7,4.9c0.1,1.6-0.6,3.2-0.5,4.8c-0.3-0.5-0.4-1-0.5-1.6c-0.7,0-0.7-0.9-1.1-1.3c-1.3-2.1-3.2-3.9-3.5-6.5
			c-0.8-1.3-1-2.9-1.4-4.4c-0.6-1.8,0-3.6-0.3-5.4c0-2.3,0.1-4.6-0.3-6.8c-0.5-2.1,0-4.3,0.1-6.5c0.4-3.7,1.1-7.4,2.1-11
			c0-0.2,0.3-0.4,0.5-0.5C152,75.4,150.5,78.8,150.7,82.4z M154,108.6c-0.2,0.9,0.7,1.3,1.2,1.8c-0.1-0.4-0.3-0.8-0.7-1
			C154.3,109.1,154.1,108.9,154,108.6z"/>
	</g>
	<path d="M154.8,72.3c0-0.3,0.2-0.4,0.5-0.2C155.2,72.4,155,72.4,154.8,72.3z"/>
	<path d="M151.9,86.6c-0.2,0.4-0.3,0.8-0.2,1.2c0.2,1.3,0.6,2.6,0.7,3.9c0.4,2.6,0.9,5.2,1.4,7.8c0.7,1.4,1.1,3,1.4,4.6
		c0.6,1.7,1.9,3,2.5,4.7c0,0.5-0.1,1.1-0.4,1.5c-0.1-0.3-0.2-0.5-0.4-0.8c-2.6-4.1-4.2-8.8-4.9-13.6c-0.1-0.3-0.2-0.5-0.4-0.7
		c-0.2-2.6-1.2-5.2-1-7.8c0-2.5,0.1-5,0.4-7.5c0.4-2.7,1.1-5.5,2.5-7.8C152.4,76.8,150.5,81.6,151.9,86.6z"/>
	<path d="M157,72.9c0-0.3,0.1-0.4,0.4-0.4C157.5,72.8,157.4,72.9,157,72.9z"/>
	<path d="M209.1,77.3c-0.7,0.8-1.2,1.8-1.5,2.9c-0.4,1.8-0.6,3.7-0.8,5.5c-0.1-0.1-0.3-0.2-0.4-0.3c-0.7,2.1-0.8,4.3-1.4,6.4
		c-0.1,0.7-0.5,1.2-0.5,1.9c-0.1,1.5-1.1,2.6-1.1,4.1c-0.5,0.5-0.6,1.2-0.7,1.8c-0.7-0.1-0.7,0.9-1.1,1.3c-0.3,0.6-0.9,1.6-1.6,1.1
		c-0.4,0.4-0.8,0.8-0.9,1.4c-0.1-0.1-0.3-0.2-0.4-0.3c0,0.4-0.1,0.8-0.3,1.2c-0.3,0.1-0.6-0.2-0.9-0.2c-0.3,0.3-0.4,0.7-0.5,1
		c-0.6,0-1.1-0.1-1.7,0c-0.1,0.2-0.7,0.4-0.4,0.8c-0.1,0-0.2-0.1-0.3-0.1c-0.6,1.4-0.7,3-1.5,4.3c-0.2,0.4-0.6,0.5-1.1,0.5
		c-0.5,1.2-0.8,2.5-1.3,3.7c0-3.6,2.1-6.8,2.6-10.3c0.5-0.1,0.7-0.3,0.9-0.7c0.1,0,0.3-0.1,0.4-0.1c0.2-0.4,0.5-0.6,1-0.5
		c0.3-0.4,0.6-0.6,1.1-0.6c0.1-0.7,0.9-0.3,1.4-0.4c0-0.5,0.2-1.2,0.8-0.7c0.9-1.4,2.5-2.5,2.6-4.3c0.2,0,0.4-0.1,0.6-0.2
		c0.5-0.8,0.5-1.7,0.3-2.6c0.8,0.2,0.6-0.8,0.6-1.3c1.1-1.1,0.8-2.9,1.2-4.3c0.1,0,0.4-0.1,0.5-0.2c0.4-1.6,0.8-3.3,1.2-5
		c0.2-0.6,0.2-1.3,0.7-1.8c0.8-2.6,1.7-5.2,2.3-7.9c0-0.2,0.1-0.4,0.2-0.5C209.4,74.5,209.3,76,209.1,77.3z"/>
	<path d="M164.2,73.7c-0.5-0.2,0.1-0.8,0.4-0.4C165,73.6,164.5,74.1,164.2,73.7z"/>
	<path d="M166.7,74.1c-0.4,0.1-0.7,0.3-1.1,0.4c-0.3-0.2-0.5-0.5-0.7-0.7c0.4-0.6,1.1-0.4,1.6-0.1C166.5,73.8,166.6,74,166.7,74.1z"
		/>
	<path d="M164.7,75.2c-0.5-0.1-1-1-1.3-0.2c0-0.2,0-0.4,0-0.5c0.3-0.1,0.5-0.1,0.7-0.2C164.4,74.5,164.6,74.8,164.7,75.2z"/>
	<path d="M159.6,74.9c-0.5-0.2,0.1-1.1,0.5-0.7C160.2,74.5,159.8,74.8,159.6,74.9z"/>
	<path d="M157.9,74.8c-0.1,0-0.2,0.1-0.3,0.2l-0.1-0.2c0.1,0,0.2-0.1,0.3-0.2L157.9,74.8z"/>
	<path d="M153,80.6c0,0-0.1,0.1-0.2,0.1c-0.5,0.9-0.5,2-0.6,3c-1-3.1,0.5-6.2,1.5-9.1c0.3,1.8-0.3,3.5-0.8,5.2
		C152.8,80,152.8,80.3,153,80.6z"/>
	<path d="M157.9,75.2c0-0.3,0.1-0.4,0.4-0.4C158.4,75.1,158.2,75.3,157.9,75.2z"/>
	<path d="M182.4,78.7c-0.7-0.8-0.7-1.9-0.9-2.9c0.2,0.1,0.4,0.4,0.5,0.5c0-0.2,0.1-0.6,0.1-0.8c0.2,0.2,0.4,0.3,0.6,0.5
		c0-0.3,0.1-0.7,0.1-1c0.6,0.3,0.4,1,0.6,1.6C182.4,76.8,182.5,77.9,182.4,78.7z"/>
	<path d="M170.2,75.8c0.6,0.7,0.9,1.6,1.5,2.3c0.2-0.1,0.3-0.3,0.5-0.4c0.1,0.5,0.6,0.9,1.2,0.9c-0.1,0.9-0.2,1.8-0.3,2.7
		c-0.5-0.5-1-1.3-1.7-1.6c-0.1,0.1-0.2,0.4-0.2,0.5c-0.2-0.3-0.3-0.9-0.6-1.2c-0.7,0-0.7-0.8-0.7-1.3c-0.1,0-0.3,0-0.4,0
		c-0.2-0.5,0-1.4-0.7-1.5c0-0.4,0-0.8,0-1.2c0.7-0.1,0.7,0.7,1,1.2C169.9,76.1,170.1,75.9,170.2,75.8z"/>
	<path d="M154.5,78.3c0.4-1.2,0.9-2.5,2-3.3C155.8,76.1,155.1,77.2,154.5,78.3z"/>
	<path d="M168.2,75.6c0,0.5-1.2-0.1-0.7-0.3C167.8,75.4,168.1,75.4,168.2,75.6z"/>
	<path d="M167.8,77.3c0.1,0.7-0.1,1.4-0.7,1.9c-0.1-1-0.8-1.9-0.5-3c-0.3-0.2-0.8-0.4-0.8-0.9c0.3,0.3,0.5,0.5,0.8,0.8
		C167.4,75.5,167.1,77.2,167.8,77.3z"/>
	<path d="M164.4,76.7c-0.3,0-0.5-0.7-0.1-0.7C164.6,76,164.8,76.6,164.4,76.7z"/>
	<path d="M159.8,76c0.3,0.4,0.5,0.9,0.6,1.4C160,77.1,159.7,76.5,159.8,76z"/>
	<path d="M160,78.2c0,0.4,0,0.9,0.5,0.9c0,0.5,0.1,1.2,0.7,1.2c0.2,0.6,0.2,1.3,0.5,1.9c0.1,0,0.3,0,0.4,0c0.1,1,0.9,1.6,1.4,2.4
		c0.3,0.4,0.4,0.9,0.9,1c0,0.6,0.4,1.2,0.8,1.7c0.1,0,0.3-0.1,0.4-0.2c0.2,0.6,0.4,1.1,0.7,1.6c0.2,0,0.5,0,0.7,0
		c0.4,1,1.1,1.8,1.8,2.6c0.2-0.1,0.3-0.1,0.5-0.2c0.1,0.4,0.3,0.7,0.4,1.1c0-0.1,0.1-0.3,0.2-0.4c0.5,0.4,0.2,1.3,0.7,1.8
		c0.1-0.1,0.2-0.4,0.3-0.5c-0.1,0.6-0.2,1.2-0.3,1.8c-1.1-1-2-2-3.1-3c-0.5-0.5-1.2-0.8-1.5-1.5c-0.6-1.1-1.4-2.1-2.4-2.9
		c-0.2,0.1-0.3,0.2-0.5,0.3c-0.4-1.2-0.6-2.8-2-3.3c-0.2-0.5-0.2-1.3-0.9-1.4c-0.4-1.1-0.5-2.4-1.2-3.4c-0.1,0-0.3,0-0.4,0
		c0-0.6,0-1.3,0-1.9c-0.2-0.1-0.4-0.2-0.5-0.2c0.1-0.6,0.2-1.2,0.3-1.8c0.5,0.7,1,1.4,1.2,2.3C159.7,78.1,159.8,78.2,160,78.2z"/>
	<path d="M178.5,76.9c0.3,0.3,0.7,0.5,1,0.8c0.2-0.5,0.4-1,0.6-1.4c0.5,0.6,0.8,1.4,1,2.2c-0.3-0.1-0.5-0.2-0.8-0.3
		c-0.1,0.4-0.2,0.8-0.3,1.2c-0.4-0.2-0.9-0.6-1.3-0.3c-0.3,0.2-0.5,0.4-0.5,0.7c-0.1-0.2-0.4-0.2-0.4-0.5l-0.4,0.1
		c0.1,0.1,0.3,0.1,0.4,0.2l-0.3,0.4c-0.8-1.1-0.9-2.6-1-3.9c0.4,0.2,0.6,0.9,1.1,0.5C177.8,76.9,178.2,77.5,178.5,76.9z"/>
	<path d="M162.8,77.2c-0.3-0.1-0.5-0.7-0.1-0.7C163,76.5,163.2,77.1,162.8,77.2z"/>
	<path d="M156.6,77.9c-0.3,0.6-0.5,1.3-0.9,1.8c0-0.5,0-1,0.1-1.5c-0.1,0-0.2-0.2-0.3-0.3c0.2-0.5,0.5-0.9,0.8-1.3
		C156.4,77.1,156.1,77.7,156.6,77.9z"/>
	<path d="M162.5,78.1c0.2,0.6-0.1,1.3-0.6,1.8C161.8,79.3,162.1,78.6,162.5,78.1z"/>
	<path d="M210.1,81.9c-0.8,4.2-1.2,8.5-2.2,12.6c-0.2,0.5-0.5,0.9-0.5,1.4c-0.1-0.2-0.2-0.3-0.3-0.5c0,0,0.1,0,0.2,0
		c0.5-1,0.4-2.1,0.4-3.1c-0.1-1.5,0-3-0.2-4.5c0.5,0.2,0.3,0.8,0.5,1.2c0.6-1.8,0.1-3.7,0.4-5.5c0.1,0.2,0.2,0.5,0.3,0.7
		c0.1-0.8,0.1-1.6,0.1-2.4c0.1,0.1,0.3,0.4,0.4,0.5c0-0.9,0-1.8,0.1-2.6c0.1,0.2,0.3,0.5,0.4,0.6c0-0.6,0-1.1,0.1-1.6
		c0.6,0.7,0.4,1.6,0.5,2.4C210.3,81.4,210.5,81.9,210.1,81.9z"/>
	<path d="M157.9,85.4c0.6,2.1,2.1,3.6,2.8,5.6c0.2,0.5,0.3,1,0.6,1.4c0.8,1,1.1,2.3,1.9,3.3c0.2,0,0.3-0.1,0.5-0.1
		c0.1,0.6,0.2,1.3,0.4,1.9c0.1,0.4,0.4,0.6,0.8,0.5c0,0.6,0.3,1.2,0.7,1.6c0.1,0,0.3-0.2,0.4-0.3c0.2,0.5,0.5,1,0.8,1.4
		c0.3-0.2,0.5-0.4,0.8-0.6c0.2,0.3,0.3,0.7,0.5,1c0.2-0.1,0.4-0.1,0.6-0.2c0.2,0.3,0.4,0.5,0.6,0.7c0.3,0.3,0.6-0.1,0.9-0.1
		c0.2,0.1,0.3,0.5,0.5,0.7c0.2-0.3,0.3-0.5,0.5-0.7c0.3,0.3,0.5,0.6,0.8,0.9c0.1-0.1,0.3-0.3,0.4-0.4c0.3,0.4,0.6,0.8,1,1
		c0.1-0.2,0.2-0.5,0.2-0.7c0.6,1.1,1.4,2.1,2.1,3.2c0.2-0.3,0.3-0.5,0.5-0.7c0.6,1.2,1.6,2.1,2.2,3.2c0.4,0.6,0.3,1.3,0.3,2
		c-0.2,0.1-0.4,0.3-0.6,0.5c-0.2-0.3-0.2-0.9-0.7-0.7c-0.8-1-1.8-1.8-2.7-2.7c-0.3-0.1-0.6-0.1-0.9-0.2c0.2,0,0.6,0,0.8,0
		c-0.3-0.9-0.8-1.8-1.5-2.4c-1-0.9-2.4-1.1-3.7-1c0,0.2,0,0.5,0,0.7c-0.4-0.3-0.8-0.6-1.3-0.9l-0.1,0.4c-1-0.7-2.1-1.2-3-2
		c-1-0.6-0.5-1.9-1-2.8c-0.2,0-0.5,0-0.6,0c0-0.5-0.3-0.9-0.7-1.2c0-0.1,0-0.4,0-0.5c-0.2-0.1-0.5-0.2-0.7-0.3
		c-0.2-1.5-1.1-2.9-1.7-4.3c-0.5,0-0.5-0.5-0.7-0.9c-0.7-2-2-3.7-2.6-5.7c-0.2-0.8-0.3-1.6-0.5-2.4c-0.5,0-0.3-0.5-0.4-0.8
		c-0.1-1.2-0.2-2.3,0.2-3.4c0.6,1.5,0.7,3.1,1.2,4.6C157.8,84.6,158.1,85.1,157.9,85.4z"/>
	<path d="M149.3,86.7c-0.3,4.4-1,8.8-0.9,13.3c0.1-0.1,0.4-0.1,0.5-0.1c-0.3,4,1.6,7.7,2.6,11.4c0.1-0.1,0.2-0.1,0.3-0.1
		c0.7,1.7,2.3,2.8,2.9,4.6c1.2,0.6,1.9,1.8,2.7,2.8c0.1,2.2,0.9,4.4,1.4,6.6c0,0.1-0.1,0.4-0.1,0.5c-0.3-0.7-0.4-1.4-0.9-1.9
		c-3-3.2-4.9-7.1-7.1-10.8l-0.2,0.4c-1.2-2.7-2.4-5.5-3.3-8.3c-0.4-1.1-0.8-2.3-0.6-3.5c0.2-1.3,0-2.6,0.4-3.9
		c0-0.1-0.1-0.4-0.2-0.5c0.3-2.4,1.1-4.6,0.9-7c-0.1-0.8,0.4-1.4,0.5-2.1c0.5-1.8-0.3-4,1.1-5.6C149.4,83.8,149.1,85.1,149.3,86.7z"
		/>
	<path d="M212.1,84.4c-0.4,1.5-1.1,2.9-1,4.5c0.1-0.1,0.4-0.2,0.5-0.2c-1.1,2.4-0.7,5.1-1,7.6c-0.1-0.1-0.2-0.3-0.3-0.4
		c-0.2,1.2-0.4,2.5-0.4,3.7c0,1.1-0.5,2.1-0.7,3.1c-0.4,1.7-0.8,3.7-2.5,4.7c1.3-4.4,2.6-8.9,2.5-13.6c0.1,0,0.2-0.1,0.3-0.2
		c0.1-1.1,0.2-2.3,0.5-3.4c0.2-2.2,0.3-4.6,2.1-6.2C212.1,84,212.1,84.5,212.1,84.4z"/>
	<path d="M159.5,85.9c0-0.3,0.2-1,0.6-1C160.2,85.3,160,86,159.5,85.9z"/>
	<path d="M160.2,86.8c-0.2-0.3,0.3-0.8,0.6-0.8C160.9,86.4,160.6,86.9,160.2,86.8z"/>
	<path d="M200.8,92.1c-0.3,0.9-0.5,1.9-0.6,2.8c-0.1,0-0.3,0-0.4,0c0,0.3-0.2,0.5-0.5,0.7c-0.2-2.7,1.3-5.1,1.9-7.6
		c0.8,1,0.4,2.3,0.1,3.4C201.3,91.7,201,91.8,200.8,92.1z"/>
	<path d="M146.4,107.2c-1.1-1.6-1.6-3.6-1.8-5.5c0.3-0.3,0.3-0.7,0.3-1c-0.2,0.2-0.4,0.4-0.6,0.2c0,0.2,0.1,0.6,0.1,0.8h-0.5
		c0.1-0.4-0.2-1.3,0.5-1.2c-0.2-3.7,0.5-7.5,2-11h0.1C144.4,95.2,144.7,101.5,146.4,107.2z"/>
	<path d="M157.8,98.6c0.8,1.2,0.1,3.1,1.5,3.9c0.3,0.8,0.4,1.9,0.9,2.7c0.1-0.2,0.3-0.4,0.4-0.5c-0.1,2.3,0.7,4.8,2.9,5.8
		c0-0.1,0.2-0.3,0.3-0.4c0.6,0.6,1.1,1.3,1.9,1.7c0-0.2-0.1-0.5-0.1-0.7c0.8,0.4,1.7,0.9,2.6,1.1c-0.1-0.4-0.3-0.7-0.4-1.1
		c1.8,0.9,3.1,2.5,4.9,3.3c-0.1-0.5-0.2-0.9-0.3-1.3c1,0.5,1.8,1.6,2.9,2.1c0-0.3-0.1-0.8-0.2-1c1,0.8,1.9,1.8,2.7,2.9
		c0.1,0,0.2-0.2,0.3-0.3c0.8,1.2,1.1,2.7,0.9,4.1c0.1-0.1,0.4-0.4,0.6-0.6c0,1.1-1.1,1.5-1.5,2.3c-0.2,0.7,0.6,1,1,1.5
		c-0.7,0-1.5-0.2-1.8-0.9c-0.7-1.1-0.6-2.4-0.6-3.6c-0.8-2-2.9-3-4.9-3.4c-0.1,0.1-0.2,0.4-0.3,0.5c-0.5-0.4-1-0.9-1.6-1.1l-0.2,0.3
		c-0.7-0.5-1.4-1.5-2.4-1.3c0-0.1,0.1-0.2,0.1-0.3c-0.6,0-1.3,0-2,0c-0.1,0.2-0.1,0.5-0.1,0.6c-1.2-1.2-2-2.7-3.3-3.8
		c-0.1,0-0.4-0.1-0.5-0.1c-0.2-0.9-0.5-1.8-0.9-2.6c-1.8-4.4-4.2-8.9-4.3-13.8c-0.2,0-0.4,0-0.5,0c0.1-0.9-0.3-2.1,0.4-2.9
		C156.7,94,157.4,96.3,157.8,98.6z"/>
	<path d="M145.4,98.1c-0.4-1.5,0-3,0.8-4.3c0,1.1-0.4,2.1-0.6,3.1C145.6,97.3,145.6,97.8,145.4,98.1z"/>
	<path d="M124.5,95c0.9,1.3,0.4,2.9,0.7,4.4c-0.4,1.6-0.6,3.3-0.3,5c0.1,0.5,0.1,1,0.6,1.2c0.2,1.3,0.6,2.6,0.1,3.8
		c-0.4,0.9-1.5,0.9-2.4,0.8c-1.1,0-2.1-0.7-2.8-1.5c0-0.1,0.1-0.3,0.2-0.4c-0.4-0.6-0.6-1.4-0.5-2.1c-0.7-1.5-0.9-3.1-1-4.7v-2.8
		c0.3-0.7,0.2-1.4,0.6-2.1c0.3-0.5,0.6-1.1,1.2-1.3c0.3-0.3,0.5-0.9,1-0.6c0-0.1,0.1-0.4,0.1-0.5c0.2,0.1,0.4,0.2,0.6,0.3
		c0.1-0.1,0.3-0.2,0.4-0.3C123.4,94.6,123.8,95.5,124.5,95z"/>
	<g>
		<path d="M181.9,103c0,0.4,0,0.9,0,1.3c-0.3-0.3-0.4-0.5-0.6-0.8c0,0-0.1,0.1-0.2,0.1c0-0.7-0.3-1.3-0.1-2
			C181.2,102.1,181.4,102.6,181.9,103z M181.3,102.9C181,103.6,182.1,103,181.3,102.9C181.2,102.8,181.2,102.8,181.3,102.9z"/>
	</g>
	<path d="M145.9,107.7c1,2.7,2.1,5.3,3.6,7.8c0.2,0.5,0.7,0.7,1,1.1c0.5,0.7,0.8,1.6,1.4,2.2c0.1,0,0.3,0,0.4,0
		c0.4,0.9,1,1.7,1.5,2.5c0.1,0,0.2-0.1,0.2-0.1c0.2,1,0.8,1.9,1,3c0.6,0.8,0.9,1.8,1.4,2.7c0.8,0.7,1.5,1.6,2.3,2.4
		c0.1-0.4,0.1-0.7,0.2-1.1c0.4,0.9,0.3,1.9,0.6,2.8c0.2,0.5,0,1.1,0.1,1.7c0.1,0.5,0.2,1.1,0.3,1.6c-0.6-0.5-0.9-1.2-1.4-1.9
		c-0.1,0-0.2,0.1-0.3,0.1c-0.7-1.3-2.4-1.5-3.4-2.6c-0.7-0.7-0.3-1.7-0.6-2.6c-0.4-1.4-0.9-2.8-1.6-4c-0.1,0-0.3,0-0.4,0
		c-0.9-3.2-3.6-5.4-5-8.4c-0.4-0.9-0.6-1.8-0.9-2.7c-0.1-0.1-0.4-0.3-0.6-0.4c0.6,1.2,0.7,2.5,0.9,3.8c0.9,1.4,1.6,2.9,2.2,4.5
		c0.1-0.1,0.3-0.3,0.4-0.4c0.4,1.4,0,2.9,0.5,4.3c0.2-0.2,0.4-0.4,0.6-0.6c0,1.7,0.2,3.3,0.5,5c0.3-0.2,0.5-0.3,0.7-0.4
		c-0.2,0.7-0.3,1.4-0.3,2.1c0.3,0,0.6,0,0.9,0c-0.1,0.5-0.3,1.1-0.4,1.6c0.2,0.4,0.7,0.8,0.3,1.2c0.7,0.4,1.5,0.7,2.3,0.7
		c0.5,1.2,2.2,0.8,2.9,1.9c0.5-0.7,0.6-1.6,0.7-2.4c0.7,0.6,1.4,1.3,1.5,2.2c-0.1,0.1-0.2,0.3-0.3,0.4c1.6,1.1,2.1,3.1,2.1,5
		c0.1,1.7-0.4,3.6-1.9,4.6c-0.9,0.6-2.1,0.4-3.2,0.6c-0.1-0.4-0.1-0.7-0.1-1.1c-0.6,0.6-1.1,1.1-1.6,1.7h-0.2
		c-0.1-0.8-0.2-1.7-0.7-2.4c-0.1-0.1-0.4-0.1-0.5-0.1c-1.1-2.3,0.1-4.7,1.1-6.7c-1-0.9-2.2-1.7-3.4-2.5c-0.4-0.8-0.5-1.8-1.2-2.4
		c-0.1-0.6-0.1-1.1-0.2-1.7c-0.1,0.1-0.3,0.1-0.4,0.1c0-0.6,0-1.2,0-1.8c-0.5-0.2-0.3-0.7-0.4-1.1c0-0.8,0-1.7-0.2-2.6
		c0-0.1-0.2-0.2-0.3-0.3c0.1-4.9-3.1-9.1-2.8-14l0.2,0.5c0.1-0.2,0.2-0.3,0.3-0.4c-1.3-2.9-1.4-6.2-1.7-9.3h0.4
		C144.4,103.8,145.1,105.7,145.9,107.7z"/>
	<path d="M183.6,111.5c0-2-0.4-4-0.6-6c-0.1-0.8,0-1.7,0.3-2.4c0.2,1.4,0.1,2.8,0.6,4.2C183.9,108.7,183.9,110.1,183.6,111.5z"/>
	<path d="M146.2,122.2c0.1,0,0.2,0.1,0.3,0.2c-0.1,1.8-1.1,3.3-1.2,5.1c0.1,0.1,0.3,0.2,0.4,0.2c-0.2,1-0.8,1.9-0.6,3
		c0.4,0.9,0.1,1.9,0.2,2.9c0.1,0,0.3,0,0.4,0c-0.2,1.1-0.4,2.1-0.8,3.1c-0.4-0.5-0.4-1.3-0.7-1.9c-0.3-0.5,0.1-1.2-0.4-1.7
		c-0.1-0.7-0.1-1.4,0-2.1c-0.2,0-0.4-0.1-0.5-0.1c0.3-0.8,0.6-1.6,0.9-2.4c0-0.1-0.1-0.3-0.2-0.4c0.8-2.5,1.2-5.2,1.1-7.8l-0.2-0.2
		c-0.1-1.4,0.1-2.9-0.2-4.3c-0.6-3.9-2.2-7.8-1.2-11.7h0.2C143.4,110.2,146.5,116,146.2,122.2z"/>
	<path d="M196.8,109.6c0-0.7-0.2-1.4,0-2.1C197,108.2,197.1,109,196.8,109.6z"/>
	<path d="M197.9,107.8c0.3,0.6,0.5,1.4,0.5,2.1C198.1,109.3,197.9,108.5,197.9,107.8z"/>
	<path d="M141.3,116.1c-0.2,1.1,0,2.3-0.6,3.3c-0.4,0.9-0.2,1.9-0.7,2.8c-0.8,1.2-0.4,3-1.5,4c0-1,0.2-1.9,0.4-2.9
		c0.4-2,1.4-3.9,1.5-6c0.1-1.4,0.3-2.7,0.3-4.1c0.2-1.7,0.3-3.6,1.4-5C141.8,110.9,141.6,113.5,141.3,116.1z"/>
	<path d="M205,109.7c-0.5,0.6-0.7,1.4-1.2,2c-1,1.3-2.4,2.2-3.6,3.3c0-0.2,0.1-0.7,0.2-0.9c-1.8,1-3,2.8-4.4,4.2
		c0.1-0.3,0.2-0.8,0.3-1c-1.2,0.6-2.4,1.4-3.7,1.8c1.1-1,1.8-2.3,2.6-3.5c0.1,0.1,0.2,0.3,0.3,0.4c0.9-1,1.9-2.1,2.8-3.1
		c0,0.1,0.1,0.4,0.1,0.6c1.1-1.1,2.4-1.8,3.5-2.8c-0.1,0.3-0.2,0.6-0.3,0.9c1.2-0.5,2.3-1.2,3.2-2.1
		C204.8,109.5,204.9,109.7,205,109.7z"/>
	<path d="M143.7,113.9c0,1.1-0.1,2.2,0.1,3.3c0.1,0,0.3,0.1,0.4,0.1c-0.1,0.8-0.2,1.7-0.3,2.5c0.1-0.1,0.4-0.3,0.5-0.4
		c0.1,1.8,0,3.7-0.6,5.4c-0.3,0.8-0.6,1.6-1.2,2.2c1.2-3.2,0.2-6.6,0.2-9.8c0-0.1-0.2-0.2-0.3-0.2c0.6-2.5-0.1-5.1,0.2-7.6
		c0.4,1.4,0.3,2.9,0.5,4.4C143.3,113.8,143.5,113.9,143.7,113.9z"/>
	<path d="M125.7,112c0.1,0.3,0.2,0.5,0.3,0.8c0.2-0.2,0.4-0.3,0.6-0.5c0.8,1.3,1,2.8,1.1,4.3c-0.2-0.1-0.3-0.1-0.5-0.2
		c-0.6,0.7-1.7,0.6-2.5,1.1c-0.1-0.1-0.2-0.2-0.3-0.3c-0.4,0.3-1,0.6-1.6,0.4c-0.3-1.3-1-2.3-1.3-3.6c0.2,0.1,0.4,0.2,0.5,0.3
		c0.1-0.4,0.3-0.9,0.5-1.3c0.9,0.2,1.2-1,2-1.2C124.6,112.6,125.3,112,125.7,112z"/>
	<path d="M139.8,118.2c0,1.4-0.4,2.7-1.4,3.7c1.5-2.5,0.1-5.5,1.2-8.1h0.3C139.7,115.3,139.8,116.8,139.8,118.2z"/>
	<path d="M167.7,116.8c0-0.2,0.1-0.5,0.1-0.6c0.2,0.2,0.5,0.4,0.8,0.6c0-0.2,0.1-0.5,0.1-0.6c0.9,0.7,1.6,1.7,1.9,2.8
		c-0.1,0.1-0.2,0.2-0.3,0.3c-0.1,1,0.5,1.8,0.7,2.8c-0.9-0.9-1.7-1.8-1.9-3c0.5-0.7,0.1-1.5-0.6-1.8c-0.1,0.2-0.2,0.5-0.3,0.6
		c-0.3-0.1-0.8-0.1-1-0.5c-0.6-0.7-1.1-1.4-1.3-2.3c0.3,0.2,0.5,0.4,0.8,0.3C166.9,115.8,167.2,116.3,167.7,116.8z"/>
	<path d="M179.1,115.9c0.3,0.6,0.8,1.5,0.1,1.9C179.2,117.2,179.2,116.6,179.1,115.9z"/>
	<path d="M181.1,118.6c-0.2-0.5-0.2-0.9-0.3-1.4c0.1,0,0.2,0,0.3,0C181.1,117.6,181.2,118.1,181.1,118.6z"/>
	<path d="M181.2,120.5c0.3-0.3,0.5-0.5,0.8-0.8c0.2,0.3,0.3,0.6,0.4,1c0.5-0.3,1-0.7,1.4-1.1c0.3,0.4,0.3,1.1,0.9,1.1
		c0.6,1.5,0.6,3.3-0.1,4.8c0.1-1.1-0.2-2.3-0.6-3.3c-0.2,0.2-0.4,0.4-0.6,0.6c-0.2-0.4-0.4-0.7-0.8-1c-0.3-0.2-0.5,0.2-0.8,0.4
		c-0.2-0.2-0.4-0.4-0.6-0.6c-0.1,0.1-0.3,0.3-0.4,0.4c-0.7-1,0.1-2.2-0.2-3.3h0.2C181,119.3,181.2,119.8,181.2,120.5z"/>
	<path d="M136.9,123.6c0.3-1.7,0.5-3.3,0.9-4.9c0.2,0.8,0.1,1.6,0.1,2.4C138,122,137.7,123,136.9,123.6z"/>
	<path d="M167.8,122.9c-0.5-0.4-0.3-1.1-0.4-1.7c-0.2,0.3-0.4,0.6-0.7,0.8c0-0.7,0.2-1.4,0.3-2.1c0.1,0.1,0.3,0.2,0.4,0.2
		c0.1-0.4,0.1-0.9,0.4-1.2C168.1,120.3,168.2,121.6,167.8,122.9z"/>
	<path d="M165.4,121.2c-0.1,0.1-0.3,0.2-0.4,0.4c0-0.1,0.1-0.4,0.1-0.5s0.1-0.4,0.1-0.6c-0.2,0.1-0.5,0.2-0.6,0.3
		c0.2-0.6,0.4-1.2,0.9-1.6C165.7,119.9,165.6,120.6,165.4,121.2z"/>
	<path d="M162.3,122.3c0.2-0.1,0.5-0.2,0.6-0.3c0.1,0.9-0.6,1.5-1.2,2c-0.1-0.2-0.2-0.4-0.4-0.5c0.1-0.4,0-0.7-0.3-1
		c0.1-0.8,0.3-1.6,0.5-2.4c0.1,0.4,0.2,0.9,0.2,1.3C162,121.6,162.2,122,162.3,122.3z"/>
	<path d="M128.1,120.7c1.4,0.9,2,2.7,2.2,4.3c-0.3-0.4-0.6-0.8-0.9-1.3c-0.5-0.2-1.2-0.3-1.5,0.2c-0.5,0.6-0.1,1.5,0.3,2.1
		c0.3,0.6,1.1,0.8,1.8,0.8c-1.3,2-3.2,3.7-5,5.3c0.2-0.8,0.3-1.7,1.2-2.1c-0.1-0.1-0.2-0.3-0.2-0.4c0.7-0.6,1.4-0.9,1.8-1.7
		c-0.1-1.2-1.4-1.5-2.1-2.4c-0.5,0.7-0.7,1.6-1,2.4c-0.2-1.1-0.2-2.2-0.3-3.3c-0.4-1-0.3-2.1-0.5-3.1l0.4,0.2
		c0.4-0.5,0.7-1.2,1.2-1.6c0.1,0.1,0.3,0.2,0.4,0.3c0.7-0.5,1.5-0.2,2.1,0.3C128.1,120.6,128.2,120.5,128.1,120.7z"/>
	<path d="M174.4,123c1.5,0.3,2.7,1.6,4.2,2.1c0.4-0.6,1,0.1,1.5,0c0.2-0.2,0.3-0.3,0.5-0.5c0.1-0.5,0.1-1.1,0.1-1.6
		c0.4,1,0.4,2.2,0.5,3.3c-1-0.4-1.7,0.6-2.5,0.6c-1.7-0.9-3.6-1.4-5.1-2.6c-0.5-0.5-1.2-1.1-0.9-1.8c0.7,0.2,1.2,1,2,1.2
		C174.5,123.4,174.4,123.2,174.4,123z"/>
	<path d="M140.5,129.1c0-0.1-0.1-0.3-0.1-0.4c0.2-0.5,0.4-1,0.5-1.6c0.1-0.4-0.2-0.8,0-1.2c0.4-1,1.1-2,1.3-3.1
		c0.4,0.9,0.2,1.9-0.3,2.7C142,126.8,141.2,128,140.5,129.1z"/>
	<path d="M137.9,125.5c-0.3,1.6-1.2,3.1-1.8,4.6c0.1-2.1,1.1-4.1,1.9-6C138,124.6,137.9,125,137.9,125.5z"/>
	<path d="M131.7,130.8c-0.5,1.4-1.2,2.8-1.5,4.4c-0.1,1.1-0.6,2.1-0.8,3.2c-0.2,1.4,0.1,2.8,0.1,4.2c-0.1,0.8-0.3,1.7-0.6,2.5
		c0.1-2.5-1.4-5.2-0.1-7.6c-0.2,0-0.5,0-0.6,0c0-0.6,0.5-1,0.8-1.4c-0.2-0.5-0.3-1.1-0.1-1.6c0.6-1.4,1.3-2.8,1.6-4.3
		c0.2,0,0.5,0.1,0.6,0.1c0.5-0.5,1.1-1.1,1.2-1.8c0-1.3,1-2.5,2.1-3.2C134.1,127.3,133.2,129.3,131.7,130.8z"/>
	<path d="M167.3,125.5c0.5,0.6,0.1,1.6-0.5,2.1C166.7,126.8,167.1,126.1,167.3,125.5z"/>
	<path d="M169.3,128.4c0.3,0.4,0.6,0.8,0.9,1.1c0.1,0,0.4,0,0.6,0c0.4,0.6,0.7,1.3,0.8,2.1c-0.7-0.6-1.2-1.5-2-1.9
		c-0.4-0.1-0.9-0.2-1.3-0.3c-0.1-0.4-0.2-0.8-0.3-1.2c0.5,0.1,0.8,0.3,1.2,0.6L169.3,128.4z"/>
	<path d="M133.3,132.2c0,0.1,0.1,0.3,0.2,0.4c-0.2,0.6-0.4,1.2-0.7,1.7c-0.5,0.7-0.4,1.6-0.6,2.4c-0.2,1.8-0.5,3.8,0.6,5.4
		c-1.5-0.5-2.1-2.3-1.9-3.8c0-0.8,0.6-1.6,0.4-2.5c0.2-0.7,0.7-1.4,1-2.1c0-0.3-0.3-0.6-0.1-0.9c0.8-1.6,2-3,2.9-4.5
		C135.5,130,133.6,130.8,133.3,132.2z"/>
	<path d="M166.8,130.4c0.1-0.3,0.1-0.7,0.2-1c0,0,0.2-0.1,0.3-0.1C167.2,129.7,167.2,130.2,166.8,130.4z"/>
	<path d="M166.1,131.9c-0.2-0.3,0.1-0.9,0.5-0.8C166.7,131.4,166.4,132,166.1,131.9z"/>
	<path d="M134.9,136.5l0.3,0.1C135.1,136.6,134.9,136.5,134.9,136.5c-0.2,0.3-0.2,0.6-0.3,0.9c-0.7-2.1-0.5-4.6,0.9-6.3
		C135.4,132.9,135,134.6,134.9,136.5z"/>
	<path d="M140.5,132.4c0.1,0.1,0.2,0.2,0.2,0.3c-0.2,0.4-0.5,0.8-0.6,1.2c0,0.5,0.1,1-0.2,1.4c-0.4,0.5-0.4,1.4-1,1.6
		c0.1-0.9,0.4-1.8-0.1-2.6c0.4-0.7,1.1-1.5,0.8-2.3c0.3-0.3,0.6-0.5,0.9-0.8C140.5,131.6,140.5,131.9,140.5,132.4z"/>
	<path d="M146.3,133.9c0.1-0.7,0.1-1.3,0.3-1.9c0.1-0.4,0.5-0.3,0.8-0.4C147.2,132.4,146.9,133.2,146.3,133.9z"/>
	<path d="M168.5,131.9c0.1,0.7-0.3,1.2-0.6,1.7C168,133,168.3,132.5,168.5,131.9z"/>
	<path d="M168.6,134.3c0.3-0.6,0.5-1.3,0.8-1.9C169.3,133.1,169.2,133.9,168.6,134.3z"/>
	<path d="M142.6,138.6c0,0.5-0.2,1-0.4,1.5c-0.2-0.2-0.2-0.5-0.2-0.8c-0.7,0.2-0.2-0.6-0.2-0.9c0.2-1.7-0.6-3.6,0.5-5.1
		C142.5,135.1,142.6,136.9,142.6,138.6z"/>
	<path d="M138.7,139.2c0.4,1.4,0.3,3-0.5,4.2c-0.1-1.4,0-2.8-0.2-4.2c-0.5-0.9-0.9-1.8-1.1-2.8c-0.2-1.1-0.2-2.3,0.5-3.1
		C137.1,135.4,138.2,137.3,138.7,139.2z"/>
	<path d="M163.8,139c0.3,0.9,0.7,2,0.5,3c-0.6-1.1-0.9-2.4-1.6-3.5c-0.8-1.1-1.8-2.2-1.7-3.7c0.5,0.5,0.7,1.2,1.1,1.8
		C163.1,137,162.9,138.4,163.8,139z"/>
	<path d="M148.5,136.1c0.2-0.1,0.7-0.2,0.9-0.2c-0.2,0.3-0.4,0.5-0.6,0.8c-0.6,0-1.1,0.2-1.6,0.3c0.2-0.8,0.2-2.1,1.3-2
		C148.5,135.3,148.5,135.7,148.5,136.1z"/>
	<path d="M150.8,137.7c-0.4,0.7-1,1-1.7,1.3c0.1-0.6,0.2-1.2,0.4-1.8c0.1-0.3,0.5-0.8,0.9-0.4c0,0,0.2-0.1,0.3-0.2
		C150.7,137,150.7,137.4,150.8,137.7z"/>
	<path d="M136.2,141.1c-0.2,0.3-0.4,0.5-0.6,0.8c-0.2,0-0.7,0-0.9,0c0.1-0.2,0.3-0.5,0.4-0.6c-0.1-0.2-0.1-0.4,0-0.6
		c0.4-1,0.4-2.1,0.6-3.2c0.7,0.6,0.4,1.7,0.8,2.5C136.1,140.3,136.4,140.9,136.2,141.1z"/>
	<path d="M134.1,137.4c0.8,1.3-0.1,2.7-0.5,4C132.8,140.1,133.9,138.7,134.1,137.4z"/>
	<path d="M162.3,140.3c1.1,1.5,2.4,3.1,2.7,5C163.6,143.9,162.8,142.1,162.3,140.3z"/>
</g>
</svg>
