<?xml version="1.0" encoding="UTF-8"?>
<!DOCTYPE svg PUBLIC "-//W3C//DTD SVG 1.1//EN" "http://www.w3.org/Graphics/SVG/1.1/DTD/svg11.dtd">
<!-- Creator: CorelDRAW 2018 (64-Bit) -->
<svg xmlns="http://www.w3.org/2000/svg" xml:space="preserve" width="84mm" height="53mm" version="1.1" style="shape-rendering:geometricPrecision; text-rendering:geometricPrecision; image-rendering:optimizeQuality; fill-rule:evenodd; clip-rule:evenodd"
viewBox="0 0 8400 5300"
 xmlns:xlink="http://www.w3.org/1999/xlink"
 xmlns:xodm="http://www.corel.com/coreldraw/odm/2003">
 <defs>
  <style type="text/css">
   <![CDATA[
    .fil0 {fill:#2B2A29}
   ]]>
  </style>
 </defs>
 <g id="Слой_x0020_1">
  <metadata id="CorelCorpID_0Corel-Layer"/>
  <g id="_2693946625456">
   <path class="fil0" d="M4186.97 2554.88c0,-186.25 51.49,-401.46 122.62,-547.39 57.62,-118.28 85.94,-164.76 157.86,-261.66 30.24,-40.73 79.91,-95.46 115.59,-132.01l65.45 -60.63c6.11,-6.03 14.77,-13.27 22.04,-19.21 106.69,-86.27 172.07,-128.89 307.66,-194.34 167.27,-80.69 370.73,-121.87 577.98,-121.87 352.81,0 697.71,152.94 940.93,396.19l79.96 87.38c86.35,106.73 128.89,172.04 194.34,307.67 80.7,167.2 121.87,370.65 121.87,577.98 0,410.36 -200.9,746.61 -396.19,940.95 -14.55,14.49 -28.96,26.04 -43.37,41.42 -7.15,7.62 -14.11,11.59 -21.94,19.35l-69.28 56.83c-100.28,72.97 -135.73,96.52 -260.45,156.7 -333.98,161.14 -791.69,161.9 -1125.41,-0.76 -127.52,-62.14 -205.32,-110.18 -307.45,-194.63l-86.18 -78.86c-14.38,-14.39 -25.89,-28.97 -41.34,-43.45l-38.52 -44.01c-86.35,-106.72 -128.9,-172.03 -194.35,-307.69 -80.69,-167.21 -121.86,-370.63 -121.86,-577.98l0.04 0.02zm415.54 -685.53c0,0 0,0 0,0zm1875.28 0.14c0,0 0,0 0,0l0 0zm-338.45 -119.59c-11.24,3.62 -23.76,6.76 -19.52,21.03 3.14,10.42 7.71,22.72 21.44,18.93 34.59,-9.55 13.34,-44.86 -1.97,-39.96l0.05 0zm-979.76 -45.62c6.2,-6.04 12.52,-18.21 11.03,-29.73 -4.38,-4.14 -11.14,-9.13 -18.93,-10.79 -12.76,-2.76 -13.79,3.08 -17.86,12.66 -12.21,28.87 19.78,28.8 25.76,27.83l0 0.03zm22.24 45.06c28.87,-34.29 -5.13,-43.24 -19.92,-40 -3.15,5.14 -11.86,20.73 -8.87,28.56 2.69,7 18.79,12.83 28.79,11.45l0 -0.01zm738.92 -45.06c11.31,1.75 23.03,-4.21 28.66,-10.25 1.58,-8.73 -1.31,-15.1 -5,-22.48 -9.2,-18.48 -37.24,-3.31 -34.93,11.48 1.14,7.31 7.15,17.25 11.29,21.25l-0.02 0zm-1049.71 52.96c8.14,4.73 16.69,10.69 29.7,8.73 6.65,-9.28 16.44,-25.59 4.72,-34.39 -0.8,-0.58 -6.86,-3.55 -7.71,-3.9 -28.35,-11.34 -27.59,24.66 -26.69,29.56l-0.02 0zm61.9 -7.62c-8.92,3.9 -14.27,23.69 -12.16,28.58 2.65,6.28 20.68,15.31 28.55,11.62 6.01,-2.79 14.13,-22.31 11.38,-28.72 -2.79,-6.39 -20.79,-14.53 -27.73,-11.52l-0.04 0.04zm32.52 -40.97c5.41,5.35 17.34,11.69 28.55,10.87 6.84,-5.76 13.07,-18.63 11.76,-31.66 -3.76,-3.08 -20.3,-12.66 -27.96,-9.45 -7.62,3.24 -13.21,20.62 -12.35,30.24zm-55.35 18.63c5.73,6.79 14.76,11.99 27.14,12.23 0.17,-0.07 29.58,-26.62 2.72,-37.93 -9.03,-3.79 -16.75,-7.66 -22.86,0.83 -3.76,5.25 -7.62,17.72 -7,24.82l0 0.05zm57.24 34.55c6.96,4.07 16.94,9.34 27.24,8.82 5.68,-4.75 15.28,-19.41 11.9,-29.17 -3.34,-6.89 -2.41,-5.35 -12.21,-9.38 -5.51,-2.27 -10.55,-4.82 -16.82,-1.72 -7.62,3.72 -11.98,21.82 -10.11,31.49l0 -0.04zm931.2 -12.45c11.72,1.58 22.76,-4.28 28.97,-10.62 1.75,-11.25 -4.48,-21.97 -9.04,-29.39 -13.45,-2.96 -49.9,4.42 -19.93,39.99l0 0.02zm-797.36 -43.87c6.27,-6.31 11.76,-17.77 11.9,-28.8 -4.9,-5.37 -11.53,-9.58 -19.62,-11.83 -17.28,-4.82 -28.73,25.42 -16.04,34.6 5.79,4.16 15.73,7.41 23.76,6.03zm933.92 -7.17c8.99,1.87 22.07,-5.56 27.52,-9.73 0.9,-9.34 -2.18,-18.93 -6.46,-25.72 -8.1,-12.89 -37.55,-2.55 -33.62,15.07 1.86,8.24 6.45,16.66 12.52,20.42l0.04 -0.04zm-55.87 7.17c12.04,2.04 43.24,-5.82 22.1,-35.97 -8.99,-12.86 -36.65,0.35 -33.38,14.94 1.73,7.71 6.86,16.79 11.24,21.03l0.04 0zm-927.34 45.29c8.62,-5.69 12.55,-20.35 11.17,-30.67 -14.55,-10.17 -28.04,-18.27 -37.24,4.1 -12.73,30.9 25,27 26.07,26.55l0 0.02zm1091.28 -11.26c12.37,-0.28 21.41,-5.44 27.14,-12.24 0.66,-7.76 -2.65,-17.34 -6.18,-23.35 -5.51,-9.44 -11.24,-7.27 -22.03,-3 -9.96,3.97 -14.96,5.35 -11.76,18.17 2.13,8.52 6.58,16 12.83,20.42zm36.51 26.45c12.97,1.97 21.51,-4 29.7,-8.72 1.79,-9.73 -0.76,-16.97 -5,-24.69 -8.87,-16.07 -37.76,-3.65 -34.9,11.93 1.44,7.86 7.17,17.27 10.2,21.48zm-1161.89 -77.38c40.35,30.91 40.94,-19.68 40.42,-20.79 -3.55,-3.41 -19.24,-13.52 -27.97,-10.41 -8,2.86 -13.49,20.55 -12.45,31.16l0 0.04zm1205.45 109.49c16.52,1.66 41.76,-6.17 23.8,-34.79 -6.06,-9.65 -12.45,-7.41 -22.62,-2.93 -20.73,9.14 -9.73,26.14 -1.18,37.72zm-137.38 -27.45c10.31,0.52 20.23,-4.73 27.21,-8.82 1.79,-9.35 -1,-19.69 -5.35,-26.65 -6.32,-10.08 -12.83,-6.84 -23.17,-2.35 -8.97,3.9 -14.17,4.76 -10.62,17.63 2.55,9.25 6.45,15.62 11.93,20.21l0 -0.02zm-11.22 -82.76c-1.34,13.06 4.93,25.89 11.76,31.65 11.31,0.83 23.14,-5.58 28.52,-11.03 1.96,-4.21 -3.55,-50.66 -40.28,-20.65l0 0.03zm-1217.45 110.18c12.49,-16.89 17.49,-36.62 -9.96,-40.86 -20.42,-3.17 -36.34,45.55 9.96,40.86zm1160.14 -77.96c-0.99,7.52 0.07,11.85 2.58,18.07 4.97,12.28 11.03,20.69 31.83,7.69 9.21,-5.75 7.34,-10.65 2.86,-21.65 -9.1,-22.34 -22.69,-14.27 -37.27,-4.1l0 -0.01zm-1284.34 130.95c1.86,15.86 8.54,15.83 22.17,21.56 12.45,5.25 18.34,10.96 28.49,15.97 6.62,-9.66 4.14,-40.04 -5.11,-46.21 -11.17,-7.46 -38.41,0.99 -45.6,8.68l0.05 0zm1563.73 37.56c10.13,-5 16.04,-10.73 28.49,-15.97 13.65,-5.73 20.3,-5.69 22.17,-21.56 -7.17,-7.69 -34.41,-16.14 -45.55,-8.69 -9.28,6.18 -11.72,36.56 -5.11,46.22zm-1500.91 -94.99c-10.76,4.96 -17.24,29.17 -15.03,35.06 2.77,7.41 26.27,18.58 35.59,14.04 6.11,-3.01 17.87,-26.9 13.94,-35.83 -3.27,-7.34 -25.87,-17.25 -34.45,-13.27l-0.05 0zm1478.71 -0.15c-13.73,4.38 -29.89,7.67 -24.11,25.73 4.21,13.06 9.37,28.96 26.45,23.69 13.52,-4.14 27.31,-9.8 22.08,-25.87 -4.38,-13.41 -8.59,-28.58 -24.38,-23.55l-0.04 0zm-576.71 -297.74c0,23.55 6.41,23.66 22.65,32.97 12.52,7.17 23.93,15.76 35.83,22.34 5.17,-33.35 -27.55,-75.18 -50.59,-79.84 -5.63,8 -7.86,10.7 -7.86,24.52l-0.03 0.01zm-1598.32 1209.05c-15.07,-2.42 -46.14,-27.45 -63.21,-34.83l-90.55 35.13c-0.66,0.31 -2.59,1.45 -3.15,1.76l116.63 2.48c6.93,0 13.75,0.03 20.66,0.14 0.8,0 9.04,0.03 9.25,0 11.66,-1.89 4.14,2.11 10.38,-4.68l-0.01 0zm777.15 -892.42c-23.14,-6.24 -29.41,-18.69 -42.07,18.79 -4.92,14.63 2.59,16.73 13.97,21.52 10.72,4.54 19.59,9.06 26.65,-1.83 5.58,-8.61 10.13,-21.27 8.65,-32.72 10.28,2.76 11.97,7 21.8,4 8.21,-6.35 12.37,-20.28 11.31,-31.52 -3.93,-2.49 -21.28,-11.72 -28.25,-8.8 -7.17,3 -12.93,20 -12.04,30.55l-0.02 0.01zm1286.83 -21.75c-1.06,11.24 3.15,25.18 11.31,31.52 9.8,3 11.48,-1.23 21.8,-4 -1.83,14.01 4.85,32.28 15.07,38.38 10.86,3.27 31.87,-6.51 34.86,-14.45 4.21,-11.03 -9.31,-31.66 -14.53,-36 -12.79,-1.65 -16.96,3.27 -28.25,6.32 1,-11.83 -4.92,-22.62 -9.3,-30.38 -11.52,-1.9 -22.93,3.55 -30.97,8.58l0.01 0.03zm-2339.02 877.13c14.13,6.56 33.76,13.63 49.52,19.69 15.45,5.89 35.21,15.21 50.66,18.93l-56.48 -54.42c-13.7,-12.28 -46.14,-46.97 -59.82,-53.83 5.13,11.83 16.75,57.86 16.13,69.66l-0.01 -0.03zm3499.19 38.69l-61.9 -36.72 -98.63 37.86c7.69,1.21 151.59,5.72 160.53,-1.14zm-3273.21 117.35c5.25,-13.49 -13.59,-54.07 -12.9,-72.39l-101.32 -38.62 85.35 81.42c9.87,11.01 22.83,17.77 28.9,29.56l-0.03 0.03zm2999.17 -157.83c5.35,6.72 13.72,7.92 23.17,11.62 18.41,7.21 62.59,25.86 76.41,28.93l-56.91 -55.28c-9.75,-8.99 -20.13,-16.72 -29.03,-26.03 -9.04,-9.44 -24.21,-21.76 -29.08,-29.24 -1.23,8.45 13.14,55.79 15.45,70.04l-0.01 -0.04zm-3118.01 205.34c8.21,-10.17 13.59,-19.1 21.35,-30.76 6.86,-10.34 15.48,-21.2 20.82,-31.31 -4.82,-14.03 -14.03,-33.2 -20.44,-47.62 -6.58,-14.8 -16.66,-34.03 -21.52,-47.87l-0.21 157.52 0 0.04zm3103.76 -45.69c10.35,-4.28 64.91,-15.34 76.08,-15.17l40.72 -94.83c-4.23,1.65 -112.59,102.55 -116.8,110zm-3225.62 -1.23l78.04 -15.17c4.42,-16.87 42.03,-87.15 38.45,-96.36 -10.17,-5.2 -116.97,-2.03 -144.46,-2.41 -2.51,-0.03 -9.44,-0.28 -11.52,-0.03l-9.58 3.17c10.17,2.35 23.02,12.21 32.51,17.94 5.73,3.45 26.65,15.07 29.89,18.69 15.59,-3.07 37.62,-12.97 52.56,-18.93 11.4,-4.59 39.49,-16.99 50.59,-18.38 -1.45,4.75 -0.29,2.34 -3.18,6.13l-98.62 91.76c-3.41,3.03 -4,3.55 -7.1,6.56 -2.11,2.06 -1.42,1.55 -3.55,3.55 -2.51,2.34 -1.52,1.55 -4.07,3.48l0.04 0zm3390.98 -214.15c-6.13,9.04 -38.73,82.52 -41.86,94.86 29.1,-24.65 58.28,-55.72 85.75,-80.34l25.45 -22.83c4,-4.85 1.72,-1.61 3.69,-5.89l-73.05 14.2 0.02 0zm-3225.05 -0.07l-41.2 93.59c4.54,-1.59 111.59,-100.38 115.69,-108.8l-74.49 15.21zm3183.33 259.18c3.48,-8.14 13.79,-22.48 19.55,-31.07 6.48,-9.66 12.92,-18.48 19.31,-27.93 -4.8,-15.83 -13.45,-31.92 -20.04,-47.51 -3.11,-7.34 -16.35,-39.97 -21.9,-45.86 -1.03,25.79 -0.28,52.79 -0.28,78.69 0,10.94 -3.83,65.24 3.34,73.69l0.02 -0.01zm-3270.88 -258.77l41.69 95.69c0.45,-4.24 3.27,-141.24 0.28,-151.14 -1.8,-6.03 0.45,-1.65 -2.93,-5.75 -1.59,8.66 -31.49,50.73 -39.07,61.24l0.03 -0.04zm3387.84 206.94l-14.79 -64.31c-11,-6.83 -83,-35.04 -98.51,-38.83 4.21,8.62 50.24,49.38 56.62,55.14l49.72 46.97c6.8,5.58 3.27,4.82 6.96,1.06l0 -0.03zm-2592.16 -894.51c7.1,-12.62 26.9,-34.59 37.69,-46.28 -2.44,-18.15 -17.93,-32.9 -38.73,-32.11 -5.83,7.9 -30.45,33.93 -32.8,40.2 -6.55,17.38 17.45,35.24 33.84,38.17l0 0.02zm2428.96 685.81c2,11.52 35.21,86.87 41.2,95.34 1.28,-20.06 3.38,-144.72 -1.66,-153.52l-39.56 58.17 0.02 0.01zm-712.86 -686.15c14.31,-5 40.44,-22.69 27.66,-41.62 -0.8,-1.18 -6.86,-8.14 -8.48,-10.18 -3.17,-4 -5.24,-5.68 -8.61,-9.65 -5.49,-6.39 -22.03,-32.87 -44.73,-3 -13.13,17.31 -4.14,23.02 14.65,44.48 6.73,7.69 9.83,15.03 19.52,19.93l-0.01 0.04zm646.78 827.4c10.79,-1.52 94.55,-33.77 102.69,-38.79 -17.18,-2.01 -157.62,-2.41 -164.38,1.21l61.69 37.58zm-3076.01 -722.19c26.31,18 15.59,14.27 26.65,42.48l10.79 3.34c0.1,-25.63 -4.82,-42.86 -18.14,-57.08 -9.59,-10.24 -33.18,-23.07 -53.55,-15.62 -39.52,14.49 -13.75,71.56 19.52,51.73 8.31,-4.97 9.34,-11.93 10.9,-16.49 3.1,-9.06 -0.31,-4 3.83,-8.38l0 0.02zm2083.37 1283.42l59.04 -98.14c-2.04,-1.35 -4.66,-2.93 -7.15,-4.38l-42.99 -24.41c-16.31,25 -14.18,95.72 -8.9,126.9l0 0.03zm-451.5 -1722.44l24.79 2.11c4.83,6.72 -0.24,40.06 43.56,35.75 53.86,-5.3 41.97,-82.44 -18.1,-64.41 -25.01,7.52 -14.86,12.83 -50.21,26.55l-0.04 0zm-640.91 1628.57l64.62 93.73c1.44,-11.39 6.48,-38.08 4.99,-47.87 0,-17.42 -5.58,-66.35 -13.75,-78.87 -14.31,6.06 -50.45,28.97 -51.58,29.77 -3.15,2.2 -2.49,1.79 -4.31,3.27l0.03 -0.03zm1170.33 -1102.73c3.22,6.39 9.76,12.42 14.49,17.21 4.47,-6.18 22.52,-21.8 29.1,-28.38 9.42,-9.42 23.66,-21.58 29.51,-32.37 -5.89,-7.25 -11,-10.04 -17.27,-17.14l-56.27 -53.72c-7.01,-6.24 -12.55,-11.07 -19.45,-17.32 -6.63,-5.96 -11.31,-12.44 -18.15,-18.48 -6.17,-5.41 -33.65,-27.82 -36.63,-34.07 0.1,22.31 68.25,88.35 82.8,129.93 9.42,26.91 3.1,36.45 -8.14,54.35l0.01 -0.01zm-1257.68 -43.54l59.56 60.76c6.79,-6.01 9.65,-10.93 13.82,-17.21 -46.73,-59.24 61.22,-132.55 74.59,-182.69 -3.69,2.27 -140.25,128.76 -147.97,139.14zm-152.24 156.31c21.72,-5.72 66.56,-41.9 84.97,-55 19.48,-13.86 48.27,-33.13 75.1,-28.24 13.04,2.38 16.21,8.72 25.35,12.11 6.27,-4.35 11.76,-8.66 15.62,-14.11l-56.04 -60.31c-10.72,4.38 -28.35,26.48 -37.27,35.38 -17.96,17.96 -98.41,95.66 -107.76,110.21l0.03 -0.04zm85.09 -240.46l-8.61 9.28 64.97 66.96 149.45 -140.45c-41.69,13.31 -65.75,29.41 -96.45,56.45 -44.34,39.04 -53.66,25.84 -109.34,7.76l-0.02 0zm1349.04 158.04c8.52,4 9.07,6.73 16.76,11.39 69.45,-45.25 123.07,53.55 184.83,70.72 -17.73,-21.76 -134.45,-139.87 -143.56,-144.58 -13.8,16.52 -50.76,45.59 -58.04,62.49l0.01 -0.02zm-601.35 1522.39c-6.48,43.18 15.45,99.56 47.28,110.11 40.42,-21.73 35.52,-95.86 35.52,-137.46 -9.59,8.83 -41.76,84.83 -82.83,27.35l0.03 0zm661.71 -1604.49c22.83,-17.94 39.61,-46 64.76,-64.35 -4.45,-8.3 -4.28,-5.51 -9.72,-11.17 -18.01,5.14 -35.04,15.97 -57.55,16.69 -23.14,0.76 -40.45,-14.96 -51.38,-25.79 -13.96,-13.8 -66.73,-51.49 -96.24,-55.11 3.45,2.27 133.77,127.62 150.18,139.73l-0.05 0zm-608.23 -490.63c-18.93,0.31 -63.27,13.96 -85.42,18.41 -97.75,19.69 -166.11,7.83 -218.07,-88 5.58,26.83 24.37,63.86 38.76,81.89 60.14,75.63 146.87,41.73 223.66,6.77 11.93,-5.45 31,-15.79 41.1,-19.03l-0.03 -0.04zm-53.17 252.62l63.66 5.07c-8.21,-42.8 -25.8,-95.03 4.85,-143.21 15.17,-23.8 18.62,-20.42 26.93,-30.24 -41.69,2.13 -62.62,26.69 -76.1,56.72 -19.24,42.9 -13.63,78.28 -19.35,111.66l0.01 0zm199.62 1787.77c1.62,29.46 4.55,48.59 16.73,72.63 9.21,18.17 23.52,39.35 41.58,45.24 19,-9.31 25.49,-38.83 28.8,-66.8 3.17,-26.97 4.92,-67.32 2.13,-94.48 -9.25,43.34 -47.04,77.75 -76.21,55.65l-8.35 -8.31c-3.65,-3.41 -0.03,-0.82 -4.69,-3.93l0.01 0zm-274.98 -1784.05l54.8 -2.96c4.52,-38.38 12.52,-77.8 24.97,-111.31 6.58,-17.72 13.55,-31.45 22.86,-45.9l31.82 -32.9c0.38,-0.35 0.97,-1.03 1.28,-1.3 0.31,-0.31 0.86,-0.9 1.28,-1.35 -63.66,7.93 -126.24,119.07 -137.01,195.74l0 -0.02zm744.65 244.18c8.04,11.03 25.27,26.31 35.96,36.96l72.79 73.9c7.62,7.62 32.14,29.11 35.69,35.14 -1.76,-16.11 -27.17,-61.86 -35.42,-74.35 -22.03,-33.48 -44.11,-43.44 -44.11,-71.1 0,-24.59 10.18,-41.15 12.76,-62.76l-11.97 -7.34c-12.17,9.7 -56.01,60.65 -65.73,69.55l0.03 0zm-1513.67 145c8.83,-5.72 92.9,-92.68 108.8,-108.61 9.07,-9.07 31.45,-27.59 35.8,-38.97 -15.14,-11.03 -55.13,-58.8 -66.61,-67.07 -10.56,7.45 -12.59,7.52 -7.9,22.46 14.1,44.69 14.86,60.24 -12.07,90.17 -20.87,23.17 -47.07,63.52 -58,102.04l-0.02 -0.02zm954.27 -571.97c53.08,4.58 48.84,-7.34 92.81,-17.42 25.03,-5.72 55.27,-4.17 79.58,1.38 0.73,-13.04 -12.49,-35.14 -18.34,-41.58 -8.66,-9.56 -24.9,-15.83 -42.93,-18.94 -38.28,-6.55 -48.89,-31.49 -84.45,-41.55 8.68,19.28 35.89,42.24 31.54,72.93 -4.16,29.63 -40.65,31.8 -58.21,45.18zm-341.14 2090.22c39.52,-3.07 68.86,-60.17 75.83,-90.13 -50.59,9.2 -48,-64.79 -60.03,-113.49 -8.31,24.94 -15.07,71.21 -19.1,98.11 -5.3,35.52 -11.48,75.62 3.31,105.51l-0.01 0zm346.35 -2198.71c-21.69,-8 -82.56,4.42 -107.52,8.47 -69.31,11.24 -145.24,17.94 -204.38,-24.11 -16.69,-11.86 -46.66,-42.24 -55.49,-64.03 1.97,27.83 34.55,73.62 47.38,85.9 57.45,54.99 142.45,44.48 215.62,25.89 22.55,-5.76 87.69,-23.14 104.38,-32.14l0.01 0.02zm-907.16 470.12l44.72 -40.25c-9.79,-43.51 -34.1,-75.17 -77.23,-83.83 -7.69,10.72 -17.21,21.76 -26.32,32.63 -12.68,15.14 -18.17,15.31 -6.41,37 13.11,24.11 34.69,45.62 65.24,54.49l0 -0.04zm1554.36 -0.07c35,-12.21 63.34,-38.86 72.66,-73.73 -6.55,-9.25 -35.52,-44.51 -42.86,-50 -39.82,9.04 -67.79,42.62 -74.13,76.9 -2.07,11.17 4.04,13.11 10.55,18.25 11.45,8.96 20.56,21.69 33.79,28.62l-0.01 -0.04zm-1198.59 1457.28c-5.42,39.65 -9.11,110.69 9.04,141.86 30.93,-7.45 51.51,-48.7 63.38,-82.49 10.52,-29.93 25.59,-95.45 18.04,-129.41 -11.45,20.11 -42.03,88.07 -62.35,94.55 -16.76,5.38 -21.89,-14.62 -28.07,-24.51l-0.04 0zm85.38 76.79c-2.49,31.82 -11.93,117.51 10.48,140.93 45,-12.76 135.35,-172.8 130.69,-250.52l-2.44 2.72c-0.24,0.31 -0.83,1 -1.11,1.42 -0.28,0.38 -0.73,1 -1,1.45 -0.96,1.48 -2.2,4.14 -3.17,6.1 -2.55,5.21 -4.28,8.76 -6.79,13.8 -4.92,9.82 -9.3,17.69 -14.07,27.16 -9.04,18.01 -19.24,34.79 -30.77,51.73 -52.13,76.83 -65.85,34.93 -81.79,5.21l-0.03 0zm-133.56 -104.72c30.34,-11.93 56.35,-136.18 67.21,-179.69 -6.72,-6.77 -23.9,-15.83 -33.93,-23 -8.45,-6.01 -27.21,-21.97 -35.14,-23.45 -6.25,53.9 -22.18,182.46 1.86,226.1l0 0.04zm-521.36 399.03c52.21,-68.07 42.21,-59.17 69,-43.75l6.07 -7.86 -83.7 -66.14c-6.62,4.86 -3.72,1.9 -6.45,8.69 5.65,4.52 17.37,9.06 14.45,21.31 -1.58,6.7 -43.61,58.35 -49.21,65.46 -12.49,15.89 -22.69,28.48 -34.62,43.27 -3.62,4.48 -11.79,17.83 -19.14,19.86 -9.59,2.65 -16.45,-6.69 -23.66,-9.89 -3.34,5.06 -2.77,3.1 -4.93,8.59l83.62 65.35 6.14 -4.73c-9.45,-20.49 -27.38,-11.62 -2.96,-42.31l45.41 -57.79 -0.02 -0.06zm2577.35 -622.38c-7.62,6.76 -6.1,18.69 -18.31,19.45 -8.38,0.48 -115.73,-49.27 -131.14,-56.27 -48.87,-22.21 3.76,-31.97 -25.73,-40.52l-42.68 98.01 9.24 3.45c15.9,-22.48 -0.96,-31.14 82.28,7.62 79.48,37.01 98.32,31.38 81.28,65.8l10.41 4.45 43 -97.8 -8.35 -4.14 0 -0.05zm-176.52 324.45c-22.34,21.65 -16.24,20.23 -44.21,1.06l-88.35 -62.99c-26.55,-18.32 -27.69,-15.22 -14.24,-43.11 -3.93,-4.14 -3.25,-3.48 -7.24,-6.04l-62.76 87.56c5.06,4.37 2.44,2.69 8.17,5.17 6.31,-6.51 10.31,-17.17 22.14,-15 6.83,1.24 58.21,39.73 66.83,45.69 88.42,61.25 67.79,46.59 57.48,75.49l7.17 4.14c8.21,-4.31 61.55,-83.27 63.31,-86.52l-8.3 -5.48 0 0.03zm-388.29 402.64c-25.69,16.86 -26.03,10.93 -42.38,-12.76l-64.41 -89.21c-4.04,-5.49 -14.2,-16.9 -13.82,-25.06 0.83,-17.42 19.52,-8.17 11.9,-26.27 -9.73,2.27 -85.87,58.3 -88.86,62.66l5.89 7.38c31.55,-16.28 24.9,-11.31 74.66,58 59.28,82.55 52.34,62.82 30.93,88.42 2.76,5.86 0.9,3.17 5.44,8.17l87.04 -63.73 -6.34 -7.66 -0.05 0.06zm-2061.54 -2726.83c3.17,4.61 2.1,3.62 5.96,7.52 29.08,-16.59 21.28,-15.9 66.52,47.42 8.24,11.55 55.7,73.09 53.55,82.62 -4.35,8 -10.03,11.29 -15.76,16.76l5.42 8.07c9.41,-4.14 33.17,-22.6 43.18,-30.08 11.62,-8.68 33.55,-25.48 44.41,-30.69l-4.92 -9.86c-29.93,10.76 -15.31,29.24 -82.04,-66.8 -6.79,-9.75 -40.06,-51.04 -39.28,-61.38 0.76,-9.87 9.38,-11.83 15.28,-18.55l-4.07 -7.1c-9.86,2.55 -35.75,23.1 -45.48,30.1 -7.27,5.27 -39.45,26.93 -42.76,31.99l-0.01 -0.02zm-337.91 1991.81c-1.44,-14.38 -29.93,-76.72 -36.69,-101.52l-10.77 4.07c12.59,32.73 4.45,27.07 -63.76,53.22 -18.7,7.17 -76.11,32.96 -93.28,30.76 -4.93,-6.58 -6.46,-13.21 -11.17,-19.76l-8.59 3.86c0.59,3.65 31.17,90.69 38.55,99.52 17.27,-5.75 1.37,-6.79 5.3,-28.14 10.7,-9.62 58.9,-25.38 77.35,-32.3 79.7,-30.03 82.28,-39.38 93.04,-7l10.04 -2.7 -0.02 -0.01zm2877.7 -943.96c-17.44,-10.31 1.28,-23.59 -18.93,-20.56 -3.97,8.21 5.42,41.77 7.67,54.07l7.52 43.07c2.65,10.77 -0.73,8.52 10.03,7.69 16,-23.31 -37.93,-21.31 69.17,-40.51 20.28,-3.62 83.41,-17.89 99.9,-15.52 5.31,2.44 6.35,10.55 8.62,16.42l3.45 6.45 8.17 -1.72 -14.48 -82.18c-2.35,-13.49 0.45,-22.93 -12.04,-22.27 -9.87,13.27 14.41,25.13 -24.9,32.34 -16.24,3.01 -32.28,5.94 -48.48,8.87 -16.21,2.94 -85.8,19.41 -95.7,13.9l0 -0.05zm-889.57 -316.49c5.06,5.56 7.55,6.04 12.23,10.18 5.83,5.11 8.83,7.34 13.59,11.69 8.47,7.72 16.58,16.49 31,19.28 17.93,-22.17 10.24,-71.21 7,-96.9 6.51,9.37 7.31,23.38 18.69,25.1 9.21,1.38 26.83,-8.96 31.04,-13.03 3.53,-6.32 -3.14,-23 -6.55,-29.42 -7.59,-14.2 -14.79,-10.65 -30.76,-3.78 -11.9,5.13 -12.93,4.58 -12.87,20.27 -19.83,-37.31 -26.72,-56.03 -69.86,-81.87 -28.75,-17.2 -71.93,-36.82 -111.97,-40.65 0.52,0.38 1.38,0.24 1.66,1.04 0.31,0.8 1.23,0.76 1.65,0.97 27.1,13.58 57.69,15.99 92.69,56.9 36.83,43.07 27.14,80.97 22.41,120.21l0.05 0.01zm-1431.04 1902.14c-1.37,1.59 -1.23,1.28 -3.38,4.14 -1.07,1.42 -1.94,3.01 -2.48,3.93 16.96,16.31 27.85,5.14 5.51,44.94 -9.51,16.89 -18.38,31.35 -27.73,47.96 -47.18,83.87 -37.17,74.7 -68.17,62.83l-4.21 8.83c4.83,4.75 85.38,51.55 93.52,53.69l3.86 -8c-16.8,-18.55 -30.32,-0.9 0.47,-55.25 6.96,-12.31 13.8,-24.35 21,-36.32 53.17,-88.24 36.24,-75.76 69.04,-64.48l4.48 -9.63 -91.86 -52.62 -0.05 -0.02zm147.04 -1958.76c0.07,-15.69 -0.97,-15.17 -12.87,-20.28 -22.69,-9.75 -25.86,-8.31 -34.14,11.83 -3.34,8.14 -5.2,11.83 -3.17,21.35 0.21,0.35 29.76,26.31 41.97,3.76 1.49,-2.73 2.49,-5.69 3.55,-7.93 2.14,-4.42 1.76,-4.14 4.48,-7.83 -3.83,26.34 -9.49,76.76 6.72,96.83 14.86,-2.87 29.84,-17.49 42.24,-28.73 6.18,-5.58 9.38,-7 13.8,-11.52 6.48,-13.58 -37.18,-92.07 64.72,-155.21 9.34,-5.79 16.04,-8.87 26.03,-12.92l28.44 -11.83c-40.03,3.79 -83.24,23.42 -111.97,40.65 -40.72,24.42 -50.52,43.73 -69.85,81.87l0.05 -0.04zm1988.27 -401.91c17.65,29.65 15.9,20.59 -54.9,76.76 -8.76,6.93 -57.97,48.11 -65.66,48.86 -10.56,1.04 -16.42,-10.96 -21.97,-14.9l-7.03 5.73c2.32,5.62 61.9,82.48 67.84,84.59l5.52 -3.97c-4.31,-21.04 -25.56,-16.42 11.92,-44.94 15.1,-11.52 27.66,-21.96 42.36,-33.27 9.03,-6.96 58.65,-47.94 65.4,-49.38 13.66,-2.96 15.76,8.82 22.63,14.24l7.85 -6.03 -65.31 -84.1c-5.89,2.41 -4.23,0.23 -8.68,6.45l0.03 -0.04zm-1715.74 1981.4c18.27,-6.72 43.11,-50.38 53.76,-73 12,-25.44 32.27,-62.24 38.48,-91.01 -10.86,-2.72 -31.93,-13.65 -42.52,-19.35 -10.86,-5.79 -30.72,-17.96 -40.59,-21.13 -9.96,20.23 -22.76,121.27 -21.76,155.7 0.38,12.04 2.55,32.06 8.59,42.97 1.93,3.52 2.31,3.69 4,5.79l0.04 0.03zm823.02 -225.19c1.17,27.76 17.44,83.03 25.34,109.82 7.59,25.73 25.24,85.73 45.72,91.49 27.93,-42.38 2.34,-209.7 -2.41,-249.77 -12.35,5.94 -49.08,40.04 -68.65,48.46zm772.02 -1012.85c-3.41,-8.51 -21.77,-33.51 -28.25,-42.82 -10.49,-15.01 -19.24,-28.69 -29.42,-43.97 -46.96,-70.49 -59.62,-87.1 -108.14,-148.63 -5.65,-7.17 -12.13,-11.83 -18.17,-18.45 -14.24,-15.69 -57.31,-54.59 -83.41,-63.35l60.86 83.59c20.49,29.31 39.87,56.62 59.49,87.24 38.76,60.55 44,93.25 98.34,121.7 10.48,5.51 38.07,21.79 48.7,24.72l0 -0.03zm-2387.68 0c14.31,-3.92 76.48,-37.76 89.59,-54.82 20.8,-27.1 37.2,-60.21 56.55,-90.18l90.28 -129.86c6.83,-9.14 27.07,-33.56 30.97,-42.38 -48.49,16.35 -117.58,97.13 -149.08,142.07l-118.28 175.17 -0.03 0zm1108.85 -578.29c-1.9,26.93 -17.63,69.42 -26.03,95.34 -7.25,22.32 -25.9,71.66 -28.14,91.93l61.14 -8.99c8.38,-77.97 46.45,-125.53 87.86,-177.63 13.42,-16.87 29.56,-30.69 42.17,-45.84 -31.96,6.59 -88.9,43.11 -137,45.15l0 0.04zm396.84 2416.35c16.14,6.93 11.17,-4.24 26.41,12.51 32.28,35.52 81.76,103.7 115.52,143.63 10.79,12.76 14.65,7.27 16.73,-8.79l24.21 -159.35c9.41,-56.39 24.44,-29.11 20.23,-51.94 -2.41,-0.03 -66.21,12.59 -67.17,20.56 -1.38,11.69 9.37,4.97 17.58,4.97 22.62,0 9.96,41.62 7.62,57.59 -3.1,21.18 -5.8,44.65 -10.03,65.21 -13.49,-13.55 -28.07,-33.93 -40.07,-48.76 -9.63,-11.86 -34.72,-38.08 -35.45,-52.32l19.9 -8.55 -1.86 -9.17c-14.39,1.82 -34.15,8.89 -48.84,12.8 -12.59,3.34 -39.14,8.13 -46.69,14.72l1.9 6.86 0.01 0.03zm-1119.41 -1698.78c0,52.01 11.93,99.7 23.48,146.88 18.45,-22.93 33.93,-110.32 38.69,-146.97 7.31,-56.21 10.72,-116 11.47,-173.88 -52.96,30.18 -73.66,112.76 -73.66,173.97l0.02 0zm1590.01 157.62c14.25,-28.2 23.97,-118.72 23.97,-155.34 0,-59.14 -38.52,-160.46 -73.66,-176.39 3.27,96.17 8.52,256.11 49.69,331.73zm-393.19 1148.86c17.2,-17.8 25.1,-103.83 25.1,-134.97 -40.48,-25.84 -76.9,-80.9 -104.04,-132.56 -1.79,24.63 3.31,56.34 2.18,84.38 -1.56,38.83 -5.21,41.72 6.69,77.38 18.17,54.45 29.79,67.65 70.07,105.77zm780.27 -2345.6c15.07,16.86 21.06,19.16 -6.01,43.06 -16.79,14.84 -93.55,90.42 -100.66,92.31 -11.68,3.1 -17.55,-7.93 -24.06,-12.54l-6.72 6.17c3.38,7.07 75.55,81.07 90.06,97.56 9.87,11.17 23.59,20.8 31,32.87l53.83 -39.9c6.96,-6.2 3.59,-0.86 5.49,-7.69l-4.66 -4.8c-18.79,1.21 -35.9,21.56 -63.63,11.07 -12.89,-4.89 -36.51,-29.48 -39.75,-40.93 -0.03,-7.1 72.17,-74.76 84.45,-85.76 6.93,-6.2 23.14,-22.83 30.76,-27 19.03,-1.14 15.97,9.35 27.38,13.89l4.76 -4.35c-1.49,-12.65 -2.32,-4.58 -17.32,-21.58l-56.34 -60.17 -8.55 7.83 -0.03 -0.04zm111.69 2271.95c-5.18,10.72 -5.51,7.59 1.94,19.45 13.2,21.11 19.69,41.7 4.59,63 -33.91,47.82 -30.86,31.07 -88.17,-15.97 -10.66,-8.76 -19.15,-16.66 -29.73,-25.32 -50.75,-41.58 -38.62,-34.93 -24.27,-59.11 -4.38,-5.3 -2.63,-3.76 -8.9,-6.45l-69.48 83.34 8 6.32c5.35,-4.97 9.56,-14.7 20.42,-13.83 9.63,0.8 78.96,64.46 92,75.08 28.11,22.86 42.48,29.08 30.69,46.97 -5.11,7.79 -3.76,0 -5.75,10.41l5.03 4.38c9.35,-3.65 52.39,-58.52 59.38,-66.18 6.03,-6.62 8.07,-10.03 14.69,-17.34 4.31,-4.73 10.01,-11.1 14.93,-17.14 4.69,-5.72 9.9,-11.41 14.65,-17.48 4,-5.07 10.56,-11.83 13.28,-16.83 -4.97,-8.07 -26.69,-28.14 -38.59,-41.93 -5.94,-6.86 -7.31,-9.58 -14.76,-11.38l0.05 0.01zm-1544.25 472.84l1.23 -6.87c-7.41,-5.72 -91.07,-19.21 -107.03,-22l-2.58 11.1c12.07,1.94 14.93,2.18 22.93,8.04 2.27,15.28 -19.38,121.18 -25.04,149.55 -6.58,33.08 -16.89,11.17 -31.92,20.66 -1,13.11 3,8.97 38.9,15.76l135.28 25.34c3.9,-14.52 21.2,-60.24 19.48,-72.1 -11.97,-1.82 -9.14,-2.48 -14.39,6.55 -6.86,11.86 -15.28,26.93 -27.73,34.04 -14.76,8.44 -58.14,3.92 -67.72,-7.39 -1.38,-2.65 21.65,-156.24 33.31,-161.9 6.11,-2.93 18.01,2.18 25.28,-0.85l0 0.07zm1716.92 -2140.68l57.69 3.1c-3.32,7.55 -2.39,5.59 -8.55,11.66l-30.83 30.24c-8.59,-9.27 -15.24,-31.58 -18.31,-44.96l0 -0.04zm-91.25 -33.13c3.17,11 7.83,21.27 12.42,32.96l14.2 32.18c19.48,-7.17 -3.24,-13.59 7.17,-27.28 6.49,-9.73 26.04,-6.77 38.38,-5.04l22.56 58.83c-5.9,7.1 -22.01,26.38 -34.01,27.45 -6.86,-6.63 -5.44,-11.17 -11.17,-17.9l-8.87 2.83 28.14 74.34c4.21,11.24 3.65,20.9 15.1,16.97 5.73,-10.41 -2.06,-15.52 10.38,-28.59l59.28 -59.93c13.94,-13.94 26.17,-26.17 40.11,-40.14 28.04,-27.99 50.45,-41.69 23.8,-44.62 -4.04,-0.45 -9.66,-0.35 -14.27,-0.55 -10.25,-0.45 -20.87,-1 -30.32,-1.52 -22.62,-1.2 -134.9,-4.58 -148.62,-10.27 -5.45,-2.27 -5.59,-3.31 -9.25,-6.79 -7.86,-7.52 -5.58,-8.28 -15,-2.86l-0.03 -0.07zm-2282.58 234.27c0,21.86 0.1,78.34 5.8,97.96l3.97 8.35c38.35,-42.35 91.76,-205.42 76.62,-226.49 -10.96,-15.29 -38.55,-45.18 -46.1,-59.11 -28,23.1 -40.28,152.25 -40.28,179.24l-0.01 0.05zm139.8 -1088.96c2.79,10.51 7.69,19 12.38,29.38 4.21,9.28 6.03,24.49 17.03,22.2 12.59,-6.13 -21.48,-43.21 35.97,-61.03l59.44 132.8c3.32,6.89 8.52,15.76 4.38,23.42 -4.47,8.35 -11.52,4.97 -18.24,14.27l3.27 5.25c9.28,1.51 39.45,-14.62 49.41,-19.38l37.93 -16.99c8.38,-3.55 7.76,-1.8 10.77,-8.45 -6.46,-16.07 -12.59,2.82 -26.01,-1.59 -12.28,-8.42 -30.21,-56.52 -38.55,-74.37 -9.96,-21.28 -28.04,-56.94 -34.52,-77.59 49,-22.25 44.82,0.38 66.21,15.17l8.62 -3.69c-3.01,-10.52 -18.49,-45.91 -24.69,-52.8l-163.39 73.38 -0.01 0.02zm1362.24 3005.81c6.56,4.58 34.03,33.62 40.89,41.93l-44.62 16.35 3.69 -58.28 0.04 0zm55.73 54.99c7,6.41 25.24,21.63 26.38,33.93 -7.62,6.49 -12.35,6.28 -18.45,11.67l3.55 8.58c14.69,-4.07 32.79,-12.21 47.51,-17.79 8.14,-3.1 16.49,-6.34 24.9,-9.52 6.55,-2.41 17.58,-4.23 20.35,-11.1 -7.83,-16.86 -10.63,3.55 -27.97,-12.72 -8.21,-7.67 -14.03,-12.76 -20.87,-20.35 -25.1,-27.9 -54,-53.79 -80.31,-80.1 -13,-13 -31.8,-37.72 -42.14,-37.63 -5.59,8.97 -9.83,150.52 -12.38,181.8 -3.45,41.86 -24.07,34.62 -15.55,44.66 1.94,2.27 6.32,1.2 9.59,0.28 0.85,-0.24 7.14,-2.86 8.35,-3.34 12.72,-5.04 41.83,-14.32 48.79,-19.86 -5,-20.73 -15.28,3.14 -28.31,-8.1 -8.82,-7.59 -4.21,-27.35 -3.93,-37.93l60.53 -22.48 -0.04 0zm272.24 -1865.56c11.9,-15.99 9.73,-84.1 9.73,-106.31 0,-26.59 -12.21,-156.11 -40.28,-179.25l-45.03 57.83c-9.21,11.62 -3.17,24.35 0.21,40.8 12.42,60.34 38.79,146.59 75.39,186.93l-0.02 0zm-1031.3 1920.64l23 50.04 -47.27 -3.55 24.27 -46.47 0 -0.02zm-24.25 117.87c1.11,-13.76 1.76,-9.04 -11.14,-12.07 -25.27,-5.94 -6.13,-24.38 -0.17,-43.28l64.01 4.73c6.38,10.34 14.2,32.65 11.31,43.42 -5.75,0.68 -17.18,-0.17 -22,3.62 0.47,11.9 4.68,8.73 18.55,9.48l72.17 5.66c26.76,0.28 -4.48,-15.14 -8.48,-21.42 -6.34,-9.96 -47.18,-130.21 -56,-155.01 -9.59,-26.97 -12.45,-50.54 -25.63,-23.99l-76.62 141.17c-32.11,55.07 -35.45,16.07 -36.32,41.83 8.38,4.38 58.35,7.69 70.31,5.9l0.01 -0.04zm-1283.27 -854.58c-8.52,-5 -21.87,-6.89 -31.49,-11.24 -9.97,-4.48 -17.87,-10.63 -23.83,-17.42 -56.94,-64.76 41,-120.73 90.13,-121.69 48.56,-0.97 84.52,54.96 37.2,103.35 -11,11.24 -5.55,18.93 10.56,10.46l41.14 -20.73c6.01,-2.65 11.14,-3.08 11.34,-8.83 0.35,-8.52 -6.86,-5.28 -12.8,-6.72 -12.87,-3.14 -8.92,-17.79 -11.52,-32.35 -14.31,-81.24 -103.48,-120.65 -175.01,-69.1 -54.09,39 -43.82,130.76 6.73,168.46 34.17,25.44 41.45,12.75 57.52,5.86l0.03 -0.05zm2945.08 -1338.87l-8.92 -0.75c-1,0.14 -7.17,2.1 -8.97,2.62l-59.18 16.17c3.17,16.65 4.48,6.65 16.04,16.89 5.8,9.7 -14.41,72.72 40.32,99.86 33.1,16.45 72.21,2.35 86.07,-45.14 5.41,-18.53 7.24,-39.66 12.96,-58.07 20.31,-65.41 83.04,13.51 25.25,55.04 -13.04,9.34 -16.11,3.38 -12.55,19.38 7.45,-0.73 64.39,-17.63 66.59,-20.52 5.8,-7.62 -4.97,-8.45 -7.24,-9.28 -7.69,-2.69 -9.52,0.83 -8,-11.9 1.96,-16.75 4.24,-25.34 -0.35,-41.86 -13.59,-48.76 -71.72,-64.2 -103.97,-24.34 -24,29.72 -16.94,124.41 -61.62,107.52 -22.1,-8.35 -33.65,-50 4.45,-84.45 7.99,-7.25 22.55,-9.9 19.17,-21.25l-0.05 0.08zm-1495.32 529.74c12.42,6.51 22.77,15.52 36.9,22.65 14.1,7.1 24.96,12.59 41.38,18.18 33.58,11.4 67.87,15.92 105.97,13.34 23.58,-28.14 32.79,-96.38 5.58,-127.11 -12.49,4.83 -25.96,13.03 -39.99,19.41 -39.94,18.17 -100.66,33.38 -145.15,33.72l-4.73 19.78c-8.73,2.04 -12.49,4.69 -17.82,9.45 1.35,60.2 41.31,119.69 68.27,150.87 9.3,10.76 15.83,22.48 34.03,16.68 38.93,-12.37 70.31,-38.02 81.73,-82.17 -36.75,-14.39 -58.14,-19.9 -91.55,-38.97 -21.89,-12.52 -64.11,-40.38 -74.7,-55.87l0.08 0.04zm-924.33 -1469.24c0,26.03 16.23,43.42 35.51,51.62 25.49,10.87 54.76,3.98 81.38,3.98 71.11,0 31.55,82.62 -33.1,53.17 -14.11,-6.42 -25.63,-21.39 -33.34,-23.86l-6.28 4.14c1.07,3.07 35.52,68.15 40.8,67.56 14.76,-1.66 -0.83,-16.83 17.31,-22.08 18.2,-5.25 57.46,-5.44 75.25,-46.42 22.55,-52.03 -15.17,-87.59 -76.62,-85.87l-41.27 1.73c-70.28,-0.41 -13.87,-81.35 41.24,-40.66 11.79,8.73 12.07,18.77 24.68,9.14 -0.28,-1.07 -31.54,-62.87 -39.61,-58.52 -13.58,7.31 10.86,16.62 -14.55,20.14 -39.83,5.51 -71.35,22 -71.35,65.86l-0.05 0.07zm1322.79 -109.97c-9.51,-3.65 -9.82,3.1 -13.41,14.04l-16.87 49.93c-5.52,22.69 13.41,1.58 25.62,6.96 7.69,3.38 38.03,39.16 82.59,27.68 39.42,-10.13 62.96,-52.79 35.68,-93.06 -11.52,-16.97 -20.58,-26.04 -35.86,-39.8 -68.32,-61.31 36.44,-82.21 46.47,-11.69 1.07,7.62 -0.09,12.14 0.28,18.58 0.59,10.72 -2.93,5.27 8.59,10.38 1.97,-2.13 25.58,-63.03 19.93,-68.21 -9.59,-4.9 -8.31,1.72 -15.48,7.1 -11.31,-3.03 -11.41,-7.76 -19.69,-14.58 -60.14,-49.67 -148.86,18.93 -82.37,91.52 11.59,12.66 23.14,23.31 34.38,36.73 32.51,38.73 -26.22,71.27 -56.34,24.2 -16.31,-25.51 -8,-49.59 -13.49,-59.75l-0.03 -0.03zm-399.05 1531.08c2.01,-9.59 20.87,-36.87 30.25,-79.58 3.92,-17.9 14.83,-92.73 -1.59,-104.45 -11.55,-8.21 -43.97,-14.53 -60.1,-14.01 -22.04,0.69 -48.77,10.04 -62.42,21.8 8.96,20.23 25.31,38.31 42.69,81.11 10.07,24.75 25.31,72.38 25.38,100l20.31 2.51 5.44 -7.38c-2.93,7.48 -2.93,3.76 -4.73,12.75l11.17 12.24c69.9,-16.61 110.11,-43.75 154.35,-93.35 14.01,-15.73 -0.44,-37.52 -14.1,-54.96 -12.17,-15.55 -38.62,-41.28 -70.89,-42.1 -14.91,35.49 -7.46,54.96 -50.05,129.41l-23.24 34c-0.28,0.28 -0.99,0.83 -1.23,1.04 -0.24,0.21 -0.83,0.69 -1.28,1l0.04 -0.03zm-823.6 1528.14c14.86,7.72 11.03,-9.04 25.69,-0.85 3.93,2.17 12.62,13.31 18.93,17.86 69.73,50.21 134.52,-11.1 107.9,-66.59 -9.27,-19.31 -19.76,-29.76 -31.37,-44.27 -6.94,-8.66 -28.9,-32.04 -19.29,-48.87 11.93,-20.82 42.83,-5.93 51.25,5.35 12.83,17.11 13.73,34.79 9.9,58.69l9.62 3.21c4.97,-5.49 16.97,-38.38 22.32,-50.04 7.59,-16.62 4.79,-13.35 2.38,-15.62 -11.52,-6.93 -4.52,2.18 -17.79,5.42 -15.28,-10.84 -16,-22.72 -41.41,-32.52 -38.9,-15 -80.98,7.17 -83.87,48.35 -2.76,38.92 33.56,65.21 50.45,92.83 26.17,42.83 -32.2,64 -59.11,17.93 -11.69,-19.97 -9.44,-37.1 -5.96,-60.69l-8.52 -3.41c-6.48,7.66 -12.59,25.58 -17.72,36.69 -3.03,6.63 -5.25,12.42 -8.45,19.1l-4.9 17.42 -0.05 0.01zm732.05 -1321.52c0,36.28 -2.34,31.35 18.86,40.73 35.94,15.9 85.87,14.79 109.25,-6.35 -9.18,-23.68 -22.24,-38.31 -36.96,-84.31 -11.59,-36.24 -14.01,-63.72 -19.21,-101.41l-16.9 -3.15c-27.04,24.11 -55.04,103.29 -55.04,154.45l0 0.04zm-43.54 10.96c5.62,-6.93 19.62,-56.48 39.58,-90.58 15.83,-27 37.25,-58.94 56.7,-75.96l-8.52 -17.28c-1.73,-0.17 -3.52,-0.24 -5.35,-0.28l4.69 -0.66c5.21,-10.51 0.86,-13.89 9.56,-20.72 11.69,-9.18 21.48,-3.63 -6.07,-65.67 -21.17,-47.72 -37.34,-60.62 -64.38,-89.28 -18.48,-19.61 -26.31,-21.51 -58.87,0.41 -23.21,15.62 -43.73,38.83 -49.62,75.96 52.89,9.63 122.69,39.28 155.18,66.62 -24.9,-10.86 -42.03,-21.65 -73,-29.65 -27.14,-7.01 -65.21,-11.22 -93.9,-6.39 -26.21,33.34 -25.58,94.8 -2.31,127.31 72.41,-36.2 83.93,-43.35 147.86,-53.38 -46.21,12.52 -104.14,48.41 -130.45,78.37 -12.07,13.73 7.17,43.73 14.79,55.7 12.14,19.1 35.62,37.25 64.15,45.48l-0.04 0zm995.68 -280.9c6.86,-25.72 15.69,-47.21 20.96,-77.35 9.66,-55 11.17,-121.27 -13.37,-172.24 -10.24,-21.28 -28.35,-45.77 -45.45,-53.9 1.11,6.65 4.24,13.06 3.97,18.41 -0.45,7.69 -3.83,7.76 -5.35,16.51l-12.52 130.41c-0.14,42.01 22.18,96.17 44.66,130.15l7.14 8 -0.04 0.01zm-1789.5 -158.76c0,81.28 8.52,88.31 27.35,158.76 0.48,-0.41 1.21,-1.68 1.42,-1.28l4.8 -5.3c1.94,-2.65 2.86,-4.76 4.21,-7.24 53.31,-95.15 43.68,-110.27 32.7,-209.91 -1.62,-14.48 -1.87,-29.1 -3.62,-42.73 -1.45,-11 -4.17,-9.07 -5.42,-16.97 -1.04,-6.38 2.51,-12.68 3.76,-20.06 -41.76,19.78 -65.17,94 -65.17,144.72l-0.03 0.01zm1887.46 -1171.21l3.7 -6.96c-3.93,-7.76 -55.25,-38.83 -61.76,-41.31l-3.56 6.86c5.04,15.52 28.42,7.31 3.63,45.22 -10.18,15.59 -18.94,28.96 -28.73,44.65 -17.14,27.35 -41.03,74.35 -84.31,48.79 -16.07,-9.48 -25.56,-26.31 -13.59,-48.24 8.9,-16.35 19.38,-31.1 29.18,-46.45 44.55,-69.69 39.66,-74.14 69.9,-56.56 2.24,-2.82 3,-3.9 5.58,-8.16l-66.3 -44.18c-7.48,-5.18 -15.24,-11.24 -24.11,-14.13 -3.22,11.28 -6.65,6.06 0.35,12.52 12,11.07 18.45,6.03 -3.1,40.17 -16.69,26.46 -63.73,87.04 -61.76,118.04 1.72,27.31 20.65,43.82 36.1,54.17 18.04,12.06 38.41,22.41 65.46,16.72 43.61,-9.17 74.48,-94.01 101.17,-121.31 13.9,-14.25 18.49,-4.07 32.14,0.23l0.01 -0.07zm-830.06 2551.18c27.1,-13.25 54.59,-99.76 54.17,-142.35 -0.1,-11.17 -55.32,-119.05 -64.17,-133.93l-34.53 144.69c-8.47,34.14 21.59,112.59 44.56,131.59l-0.03 0zm-206.31 31c16.34,-8.07 26.27,-35.8 33.72,-56.79 7.41,-20.83 18.58,-48.77 13.13,-71.39 -6.17,-25.62 -27.38,-132.01 -35.42,-147.25 -4.89,5.42 -63.27,123.35 -63.93,130.17 -2.77,27.45 21.89,126.46 52.48,145.22l0.02 0.04zm740.5 -2737.73c23,6.38 28.07,26.72 17.11,50.89 -10.18,22.39 -23.08,28.73 -49.93,19.83l32.82 -70.72zm-68.86 -39.72l18.9 12.97c1,15.28 -58.28,143.32 -68.38,156.48 -19.48,0.97 -21.35,-11.41 -28.14,2.59 4.52,7.62 87.08,41.93 94.21,44.86l5.3 -9.35c-9.21,-5.72 -12.66,-6.62 -18.93,-12.75 -1.14,-12.14 20.14,-59.66 26.93,-67.97 17.25,4.48 80.55,40.38 106.1,-16.11 20.45,-45.17 -25.06,-72.17 -60.03,-87.9 -11.55,-5.18 -64.93,-30.48 -72.72,-31.07l-3.24 8.24 0 0.01zm-813.62 -107.66l-0.07 6.86c7.03,5.69 18.08,-0.4 25.8,8.45 7.92,9.04 14.17,80.38 14.95,92.83 -11,-5.94 -26.55,-25.77 -37.1,-36.25l-55.7 -54.38c-8.3,-7.76 -8.47,-11.34 -24.44,-9.24l-49.27 5.79c-14.13,2.11 -11.08,-1.44 -9.38,11.14 20.8,8.31 28.42,-3.38 32.45,31.8l14.24 116.14c4.97,44.87 -26.17,16.59 -24.14,40.07l3.25 0.96c14.31,1.9 -12.07,-0.02 3.45,0.45 1.72,0.03 7.86,-0.75 9.72,-0.99 15.76,-2.11 51.83,-4 58.66,-9.59 -2.41,-19.62 -19.07,2.58 -30.24,-17.13 -5.66,-10.01 -17.04,-116.38 -16.76,-126.41l111.76 107.07c13.59,12.14 42.36,51.04 40.49,19.1 -0.17,-3.38 -1.42,-10.17 -1.94,-14.41 -1.13,-9.18 -2.44,-19.41 -3.52,-28.38 -2.24,-18.93 -4.76,-38.31 -7,-57.24 -2.2,-18.52 -5.11,-37.34 -6.79,-55.07 -4.07,-42.52 24.13,-15.52 20.89,-39.16 -8.07,-2.18 -60.9,4.24 -69.38,7.59l0.07 0zm1014.35 2983.17c-7.17,0.52 -125.84,70.76 -138.66,79.7 1.18,8 14.48,34.28 19.52,44.62l7.93 12.14c9.96,-6.65 8.06,1.76 6.17,-11.86 -0.93,-6.69 -2.72,-9.3 -2.69,-17.41 0.14,-29.86 32.55,-50.52 54.66,-57.41l-4.76 215.24 160.07 -93.04c-3.69,-11.9 -26.69,-64.79 -32.41,-70.8l-8.28 6.04c18.52,73.59 -24.21,77.87 -66.35,106.62l-0.35 -14.93 5.13 -198.91 0.02 0zm-2401.75 -1921.14l55.75 30.55 3.72 -10.72c-10.1,-9.94 -25.79,-18.45 -25.86,-43.31 -0.03,-12.58 12.82,-44.51 19.14,-51.86l121.39 177.38 76 -169.29 -66.69 -39.37c-7.31,15.59 -4.16,8 13.21,26.69 34.59,37.2 2.34,79.41 -8.21,109.63 -5.38,-4 -4.93,-4.14 -8.83,-10.01l-52.45 -78.25c-10.25,-15.38 -52.52,-80.69 -60.35,-88.52 -5.68,6.17 -61.62,131.35 -66.75,147.11l-0.07 -0.03zm2620.96 362.63c-10.76,-159.65 -4.52,-203.66 -96.38,-322.07 -5.82,-7.52 -23.59,-27.17 -26.41,-32.83 -0.03,7.27 9,34.53 11.41,45.46 11.97,54.66 14.07,102.34 21.11,157.97 7.31,57.83 23.68,135.42 90.31,151.51l-0.04 -0.04zm-2068.43 0c30.52,-7.38 52.93,-31.24 65.24,-55.25 26.52,-51.55 28.58,-140.17 36.93,-201.72 2.28,-16.69 5.07,-33.51 8.8,-50.62 2.27,-10.48 11.86,-40.28 11.83,-47.31l-51.04 65.48c-68.14,95.01 -63.39,164.6 -71.79,289.46l0.03 -0.04zm1270.93 -1415.52c5.86,3.48 14.69,4.58 22.2,9.03 3.69,17 -8.83,66.52 -12.35,86.25l-11.66 63.96c-6.07,31.66 -18.25,14.91 -31.14,19.59l-1.9 9 169.52 31.17c5.9,-6.01 20.9,-54.62 23.07,-65.41 -14.65,-1.76 -8.52,-3.52 -14.17,4.17 -5.11,6.89 -7.97,20.58 -29.96,29.89 -14.25,6.03 -52.18,6.86 -62.49,-5.69 -4.9,-13.55 7.52,-53.83 9.3,-71.03 41.08,7.93 18.69,37.62 30.66,51.06 12.55,1.21 9.52,-5.79 11.83,-19.4 1.59,-9.21 3.56,-19.69 5.28,-28.94 1.59,-8.55 11.31,-49 8.1,-56.96 -17.18,-3.9 -5.69,2.1 -19,22.97 -6.79,10.7 -16.28,16.83 -33.04,13.66l12.8 -71.28c77.35,9.8 60.32,30.48 69.14,59.83l9 0.89 12.54 -62.58 -151.86 -27.55c-14.32,-2.86 -14.96,-5.8 -15.97,7.41l0.1 -0.04zm-1615.11 690.36c9.7,-1.94 3.55,0.21 9.96,-7.07 11.93,-13.63 19.69,-6.39 32.35,4.06 14.27,11.76 110,83.53 112.52,92.1 -0.45,11.6 -5.69,15.17 -9.87,22.93 5.04,5.28 2.11,3.08 7.38,5.9 19.28,-21.32 99.18,-127.97 107.48,-133.55 -4.14,-9.18 -38.24,-45.77 -48.86,-51.73 -6.25,12.49 -4.21,8.92 3.03,20.96 15.73,26.08 6.83,50.76 -9.42,71.21 -18.97,23.9 -15,19.93 -55.03,-11.24l-15.52 -12.28c-0.38,-0.35 -0.9,-0.9 -1.24,-1.24l-2.44 -2.65c15.31,-27.48 48.76,-1.75 57.38,-0.85 5.18,-5.9 2.79,-2.04 5.45,-9.04 -13.7,-9 -29.25,-22.1 -42.41,-32.56 -11.59,-9.18 -31.59,-26.9 -42.69,-32.65l-6.27 8.35c13.06,13.86 29.79,29.41 15.31,55.13 -8.9,-2 -49.18,-36.37 -58.31,-44.01 28.58,-41.83 43.28,-51.13 83.55,-32.34l6.41 -8.04c-5.17,-6.87 -45.03,-37.32 -49.55,-39.07 -19.21,21.65 -36.31,45.62 -53.83,67.48l-40.51 51.18c-7.1,8.24 -11.17,9.04 -4.83,18.98l-0.04 0.04zm2772.27 1721.98c23.59,0 20.49,6.89 29.24,-6.58l-65.55 -37.15 -4.09 7.18c4.37,13.24 14.55,11.1 -3.08,26.83 -7.52,6.69 -14.03,10.34 -21.72,19.59 -10.17,12.3 -22.76,34.59 -27.31,55.2 -22.86,103.39 102.04,168.7 171.6,100.55 25.41,-24.89 46.76,-65 51.58,-114.21 -12.79,-5.14 -37.9,-21.21 -48.13,-28.38 -1.75,-13.49 1.28,-13.06 4.14,-23.14l-8.73 -4c-5.89,7.31 -48.96,79.58 -49.62,87.38l8.35 3.48c19.62,-22.86 8,-21.65 63.63,9.25 -15.97,82 -89.9,52.25 -133.73,19.38 -70.89,-53.14 -18.86,-115.42 33.42,-115.42l0 0.04zm-1251.72 -1772.29c-8.9,-24.31 -38.31,-45.83 -65.45,-51.87 -34.07,-7.59 -73.52,0.9 -107.03,5.11 -56.65,7.1 -100.31,4.76 -146.07,-27.17 -13.18,-9.2 -21.28,-18.62 -31.97,-27.1 3.72,44.7 6.65,64.98 32.82,88.22 66.87,59.37 211.08,15.07 317.67,12.82l0.03 -0.01zm270.21 750.94c-1.42,-16.89 8.76,-24.11 17.06,-30.76 27.59,-22.03 49.69,-10.86 16.56,18.86 -9.72,8.73 -17.24,13.38 -33.62,11.93l0 -0.03zm59.91 -123.38c-8.8,8.28 -5.76,13.28 -18.72,18.27 -29.35,11.34 -58.07,-31.42 -17.66,-52.13 62.07,-31.83 82.07,59.14 29.32,91.31 -11.69,7.11 -16.97,-0.44 -29.65,4.59 -19.29,7.67 -22.39,33.04 -35.8,42.24 -23.69,16.24 -108.21,5.28 -56.46,68.39 7.72,9.41 26.79,38.69 47.73,23.76 12.07,-8.62 20.75,-31.28 29.38,-48.56 10.42,-20.89 31.17,-13.58 49.67,-28.28 21.58,-17.17 -2.7,-25.86 33.17,-44.79 48.87,-25.79 100.14,14.08 69.86,56.1 -35.42,49.15 -74.9,-11.97 -43.14,-31.58 3.41,-2.11 3.31,-1.66 6.11,-3.08 0.51,-0.28 1.1,-0.52 1.65,-0.8l4.97 -2.79c0.41,-0.24 1.14,-0.66 1.65,-1.04 -74.2,-2.41 -45.69,79.08 1.28,78.32 16.07,-0.24 32.73,-10.9 38.9,-18.48 19.24,-23.66 23.35,-57.45 -0.83,-79.27 -38.69,-34.9 -78.1,-5.76 -85.04,-20.59 -3.48,-7.48 9.38,-29.48 10.39,-42.21 1.37,-17.28 -2.21,-35 -10.84,-46.59 -45.17,-60.84 -140.9,12.82 -87.69,62.51 27.48,25.66 57.76,12.31 61.76,-25.24l-0.01 -0.06zm-472.29 -77.28c-10.72,-4.97 -13.21,-16.14 -13.04,-32.51 0.17,-14.65 1.69,-27.48 16.04,-29.87 11.41,13.73 14.56,50.45 -3,62.38zm-59.32 -123.45c1.87,9.07 12.97,38.9 -19.07,44.89 -25.69,4.8 -35.69,-20.27 -27.76,-44.2 18.86,-56.93 92.83,-21.27 87.77,39.73 -1.35,16.42 -7.48,9.41 -13.38,23.35 -9.93,23.52 12.14,42.59 9.04,61.1 -4.93,29.58 -60.9,83.38 20.42,83.55 84.9,0.17 31.07,-55.37 24.42,-82.34 -4.35,-17.45 17.1,-36.18 9.82,-59.87 -3.55,-11.52 -25.51,-15.86 -8.87,-57.69 19.07,-47.89 70.42,-45.9 82.63,-7.31 14.62,46.31 -33.28,56.34 -48.14,29.79 -6.2,-11.07 -1.23,-20.82 1.38,-31.28 -23.42,23.07 -22.31,61.69 19.48,65.45 79.34,7.1 61.17,-128.72 -19.69,-105.79 -16.11,4.54 -26.34,13.93 -34.69,22.59 -23.97,24.87 -4.9,30.93 -32.04,29.1 -18.76,-66.65 -113.32,-75.58 -122,-2.2 -10.56,88.8 134.28,62.35 70.72,-8.83l-0.04 -0.04zm636.46 764.57c-9.79,8 -20.72,7.76 -35.45,4.35 -14.55,-3.38 -21.1,-6.86 -25.65,-17.79 12.76,-16.31 59.7,-6.41 61.1,13.44zm70.63 -47.85c-68.24,5.82 -40.48,-78.38 9.75,-45.41 60.87,39.94 -19.73,99.24 -62.23,75.96 -11.24,-6.13 -4,-12.52 -20.38,-18.58 -24.21,-8.97 -43.45,10.45 -62.87,-3.62 -33.96,-24.63 -66.75,-58.49 -79.69,9.11 -16.38,85.65 50.45,34.83 80.66,38.48 15.17,1.82 30.66,23.82 52.58,20.99 11.31,-1.45 24.04,-20.14 57.62,1.44 12.83,8.24 29.7,24.59 28.28,47.69 -1.35,22.03 -18.03,34.79 -39.83,36.11 -21.96,1.3 -43.61,-12.97 -33.9,-36 9.7,-23 27.52,-20.42 47.97,-9.82 -54.66,-77.52 -114.08,61.62 -22.84,67.01 75.21,4.44 75.87,-78.04 36.97,-110.18 -6.32,-5.2 -14.53,-6.58 -14.28,-15.83 0.29,-10.24 7.77,-9.27 16.17,-11.66 57.45,-16.11 73.31,-88.83 19.59,-113.27 -79.76,-36.35 -97.82,85.68 -35.54,77.37 3.69,-0.47 7.97,-1.75 11.17,-3.1 1.34,-0.54 3.48,-1.61 4.68,-2.34l4.59 -3.17c0.38,-0.24 1.04,-0.76 1.52,-1.18l0.01 0zm-1055.45 -399.5c-18.24,1.14 -36.06,-10.45 -44.65,-24.04 -23.14,-36.69 48.1,-12.54 44.65,24.04zm-132.82 -33.41c6.48,3.38 38.41,11.1 22.9,43.68 -11.17,23.43 -36.42,11.93 -48.63,-2.93 -32.17,-39.21 12.93,-83.9 64.35,-59.72 37.07,17.44 16.58,27.23 32.89,45 11.41,12.45 41.24,12.21 50.76,27.17 19,30 25.24,93.11 76.41,33.24 47.04,-54.96 -2.11,-53.79 -47.52,-69.07 -18.79,-6.34 -16.37,-30.93 -34.93,-42.93 -22.48,-14.55 -28.3,8.48 -52.48,-25.55 -28.96,-40.79 -5.51,-95.14 43.21,-75.32 54,21.97 5.28,77.31 -22.41,47.69 -2.7,-2.89 -1.76,-2.13 -4.07,-5.11l-3.24 -4.17c-0.31,-0.4 -0.9,-1.11 -1.18,-1.44 -0.28,-0.31 -0.8,-0.97 -1.21,-1.45 10.69,90.42 127.42,2.07 53.76,-48.1 -29.69,-20.21 -64.31,-13.11 -79.86,11.38 -7.66,12.07 -12.31,28.51 -10.58,46.97 1.27,13.55 15.52,34.48 8.45,42.52 -9.28,10.55 -48.9,-17.04 -85.21,18 -23.38,22.55 -21.97,54.21 -0.62,78.87 20.38,23.52 54.59,26.83 75.17,0.24 23.15,-29.94 5.59,-65.08 -35.99,-59.04l0.03 0.07zm782.05 832.64c24.97,1.42 41.25,47.94 29.73,54.73 -12.73,7.48 -37.18,-29.55 -29.73,-54.73zm6.44 134.98c19.93,-88.53 -118.14,-48.9 -67.06,27.07 32.7,48.62 98.34,26.1 107,-32.9 0.83,-5.63 0.62,-7.69 0.73,-13.13l1.62 -12.42c5.03,-17.11 24.27,5.37 37.48,10.2 54.9,20.11 101.56,-17.89 82.79,-71.32 -9.79,-27.83 -39.51,-48.96 -72.62,-26.38 -28.37,19.35 -23.69,55.49 13.25,65.73 -4.52,-7.27 -13.35,-11.79 -14.48,-23.17 -3.01,-30.17 43.3,-49.76 55.06,-4.24 16.07,62.35 -65.99,69.24 -93.72,13.35 -8.42,-16.94 0.31,-13.58 -0.31,-29.46 -0.97,-24.37 -27.17,-32.03 -33.86,-43.93 -13.35,-23.83 17.58,-110.91 -62.52,-69.05 -14.84,7.76 -38.62,19.38 -25.96,42.73 7.9,14.59 25.24,22.93 40.62,35.14 19.76,15.73 6.49,34.83 19.45,56.18 13.11,21.48 26.79,2.51 37.15,40.82 13.79,51.14 -30.72,92.66 -67.96,56.53 -41.84,-40.52 22.24,-73.21 37.65,-37.72l5.72 15.97 -0.03 0zm-491.86 -64.77c-8,-20.8 10.65,-61.03 25.7,-56.76 14.55,4.14 -1,53.93 -25.7,56.76zm-78.7 31.38c87.01,-35.59 -26.21,-121.32 -57.93,-42.73 -13.58,33.62 2.7,66.45 29.32,76 62.94,22.62 92.42,-55.69 94.7,-2.89 2.51,58.97 67.72,95.55 107.24,43.42 56.48,-74.49 -89.31,-122.66 -65.29,-25.62 3.55,-10.18 1.59,-17.63 9,-26.04 19.66,-22.34 69.52,2.11 37.01,41.63 -31.21,37.96 -80.25,7.76 -73.88,-44.32 5.07,-41.27 18.58,-28.04 32.04,-43.42 15.97,-18.2 2.44,-45.31 17.56,-60.41 22.07,-22.03 79.55,-51.69 14.45,-80.52 -15.38,-6.84 -42.55,-21.21 -53.55,0.23 -10.79,21.07 1.18,54.1 -6.1,69.6 -5.87,12.44 -28.69,22.17 -31.66,43.82 -1.83,13.37 14.93,25.49 -13.21,55.73 -31.96,34.31 -92.04,21.17 -79.79,-31.66 12.83,-55.21 83.62,-15.73 40.11,27.21l-0.02 -0.03zm-190.86 -453.05c-4.14,24.35 -55.49,28.28 -60.39,16.8 -6.72,-15.83 39.35,-27.21 60.39,-16.8zm-110.72 20.9c5.48,22.97 -1.24,8.28 -19.24,32.51 -35.42,47.69 -12,102.01 42.8,100.52 33.79,-0.92 60.07,-27.82 47.49,-64.1 -11.22,-32.3 -50.07,-36.87 -67.45,-3 20.28,-9.18 36.49,-15.55 47.45,7.03 11.52,23.66 -9.7,39.21 -32.04,38.69 -59.06,-1.38 -52.76,-78.52 9.3,-93.59 19.52,-4.73 14.28,0.45 26.46,5.3 22.65,9.04 39.75,-13.2 53.76,-19.07 25.58,-10.76 105.32,44.28 85.8,-40.24 -16.04,-69.43 -48.52,-36.25 -79.28,-10.46 -20.79,17.42 -40.34,-3.86 -64.27,6.83 -18.62,8.35 -8.75,27.83 -52.58,24 -48.63,-4.28 -70.8,-53.93 -30.31,-79.41 52.27,-32.9 74.79,54.42 8.47,45.17 82.8,49.07 79.42,-100.9 -6.03,-70.25 -46.59,16.73 -54.87,72.76 -12.31,102.72 16.94,11.93 21.35,10.58 42,17.42l-0.02 -0.07zm1435.69 62.97c31.1,-22.65 52.38,-122.25 55.79,-166.52 2.66,-34 2.66,-117.01 -14.38,-146.97 -6.34,-11.21 -16.38,-26.34 -19.97,-37.53 -7.93,7.17 -29.34,66.11 -33.51,76.08 -9.11,21.72 -15.17,65.21 -16.9,90.83 -2.79,41.11 14.94,162.26 28.9,184.08l0.07 0.03zm-1680.46 -210.15c0,46.14 3.31,79.93 15.48,124.37 6.89,25.21 26.59,74.66 41.83,85.76 6.41,-10.38 17.94,-69.14 20.99,-85.94 10.35,-56.45 13.21,-135.97 -8.96,-188.97 -5.45,-12.99 -9.94,-24.51 -15.31,-37.41l-14.35 -34.17c-2.55,-3.79 -0.96,-1.87 -3.85,-4.48 -10.56,32.97 -35.83,31.38 -35.83,140.84zm563.53 979.78c43.21,-9.72 118.34,-187.97 121.58,-218.66 -10.41,-5.42 -42.52,-12.52 -56.03,-17 -19.55,-6.45 -37.83,-14.76 -55.97,-20.28 -2.58,4.28 -1.06,0.93 -2.93,6.77l-21.24 118.38c-2.87,23.52 -4.59,48.01 -2.25,71.87 2.76,27.82 9.87,37.27 16.8,58.89l0.04 0.03zm-166.77 -2626.51c40.41,-12.75 59.7,35.59 68.86,66.9 10.93,37.17 20.04,88.8 -20.83,101.21 -40.06,12.21 -60.58,-35.04 -69.82,-65.52 -12.11,-40.11 -18.84,-89.76 21.76,-102.56l0.03 -0.03zm-83.86 80.93c0,57.67 41.72,108.9 102.03,108.9 64.34,0 111.76,-41.86 111.76,-108.9 0,-56.55 -48.24,-105.76 -105.37,-101.58 -30.67,2.24 -59.8,14.62 -76.55,29.17 -13.97,12.14 -31.87,43.24 -31.87,72.46l0 -0.05zm-1098.2 1192.14c-13.41,-86.07 165.24,-45.01 172.15,7.66 10.86,82.87 -163.7,46.35 -172.15,-7.66zm67.14 -102.04c-53.01,9.18 -92.55,61.24 -85.38,124 6.17,54.1 59.86,98.39 124.18,87 52.24,-9.2 93.38,-60.1 84.69,-124.37 -7,-51.94 -61.17,-97.38 -123.49,-86.63zm1877.29 1202.45c5.65,28.63 35.89,92.38 48.96,114.69 16.14,27.59 46.45,81.14 73.38,89.8l8.59 -14.79c2.55,-5.87 4.14,-10.51 5.86,-17.04 16.31,-61.93 -7.07,-177.38 -22.03,-231.59 -18.24,9.8 -35.35,19.9 -55.14,30.6 -16.21,8.72 -46.83,19.54 -59.65,28.3l0.03 0.03zm-1381.65 320.42l6.55 -6.04c-2.86,-6.41 -64.46,-71.41 -71.07,-75.48l-6.62 5.68c4.31,10.14 16.52,13.42 10.51,26.65 -3.21,7.1 -88.17,82.87 -98.86,94.21 -30.76,32.72 -28.04,10.17 -44.18,3.93 -1.82,2.24 -3.38,4.21 -5.37,6.62l34.9 39c6.13,6.96 12.23,11.24 18.41,18.17 6.27,7.1 10.41,14.53 18.86,18.2l5.65 -6.62c-3.71,-6.63 -7.4,-7.66 -9.69,-18.31 4.14,-10.66 45.27,-50.08 53.45,-51.73 2.01,15.55 -8.9,83.31 -16.62,91.83 -13.13,-2.41 -7.54,-10.34 -18.76,-2.58 0.03,8.73 67.7,77.52 72.55,79.58l6.42 -5.06c-3.65,-7.46 -11.22,-16.28 -10.32,-29.66l17.9 -126.38 96.99 13.35c15.76,3.79 18.11,14.45 24.21,7.71 6.55,-7.24 -27.14,-34.9 -40.77,-50.96 -6.86,-8.07 -9.2,-15.1 -17.27,-7.24 -4.45,7.31 25.06,26.1 -6.13,26.1 -14.53,0 -85.45,-8.35 -93.56,-14.04 65.55,-63.69 50.38,-47.23 72.83,-36.96l-0.01 0.03zm2495.81 -2038.26c13.56,28.51 7.76,27.16 -17.72,41.76l-92.81 53.93c-25.31,14.48 -29.89,21.24 -43.79,-5.25l-9.97 4.21c5.35,14.07 18.46,33.08 26.34,47.14l20 35.23c4.04,6.73 3.27,9.9 10.58,5.11 4.07,-4.73 4.69,4.8 1,-9.51 -1.94,-7.45 -2.72,-3.15 -2.58,-14.53 10.55,-8.82 51.75,-35.21 64.76,-36.55 -5.66,19.47 -25.89,76.79 -37.53,85.89 -8.3,-3.62 -4.35,-3.34 -11.45,-9.24l-8.89 4.07c5.58,14.2 29.86,52.34 39.99,69.96 4.52,7.84 7.03,14.87 13.42,21.39 0.24,0.28 0.83,0.8 1.27,1.14 17.73,-8.45 -3.78,-5.11 6.56,-39.87l43.89 -113.94 86.04 32.83c15.31,6.55 16.14,14.07 24,16.96l6.86 -3.41 -40.42 -71.51 -9.62 4.55c2.93,8.45 7,11.38 5.93,22.17 -14.1,5.42 -38.83,-7.86 -52.48,-12.99 -8.97,-3.34 -44.04,-15.08 -50.66,-21.66 15.66,-7.31 54.07,-33 62.56,-32.82 12.07,0.24 7.69,9.04 18.24,12.97l5.97 -3.49c-0.45,-7.4 -47.59,-86.34 -51.11,-89.58l-8.45 5.13 0.07 -0.09zm-2542.88 -300.12c2.1,2.89 3.48,4.52 5.58,7.31 6.84,-3 18.41,-17.37 23.8,-5.25 1.11,2.49 1.07,1.8 1.56,5.52l-12.28 97.45c-79.1,-72.32 -33.69,-58.28 -41.69,-77.83 -10.9,-2.72 -3.27,-1.49 -20.28,13.51 -7.45,6.58 -13.04,11.72 -20.59,18.46 -6.34,5.68 -35.44,33.86 -37.69,37.96l5.9 6.41c10.07,-4.42 7.31,-8.42 19.02,-12.21 15.62,1.42 27.52,22.69 37.63,32.07l67.24 70.3c24.87,28.14 13.35,20.8 1,41.1l5.66 6.52c10.55,-5 28.72,-25.94 39.06,-35.14 7.04,-6.28 34.22,-30.08 37.53,-38.59 -16.31,-11.39 -6.62,0.99 -21.49,4.23 -14,3.08 -31.35,-25.27 -47.23,-40.65 -7.38,-7.17 -5.66,-2.51 -8.52,-13 21.06,2.14 81.83,6.32 92.42,17.49l-7.45 13.28 5.83 7.1 60.65 -55.9c7.45,-8.45 18.97,-12.66 15.9,-22.52 -14.7,-5.42 -5.11,7.83 -34.83,7.14l-122.39 -16.59c-1.2,-2.38 -1.13,-1.2 -1.61,-5.93 -0.28,-2.82 -0.07,-5.28 0.24,-8.1 0.59,-4.97 1.75,-11.17 2.48,-16.45l8.59 -62.34c2.89,-15.83 6.65,-14.63 11.38,-25.28l-6.69 -5.96c-6.73,4.8 -9.07,8.66 -13.83,12.92l-44.96 42.9 0.06 0.07zm2141.36 15.9c7.01,13.8 27.83,18.86 19.07,46.03 -5.27,16.35 -19.78,34.1 -43.04,30.86 -8.54,-1.18 -20.13,-7.34 -22.34,-13.14 -4.07,-10.55 15.52,-29.13 27.14,-44.41 5.87,-7.72 9.87,-15.1 19.14,-19.35l0.03 0.01zm8.48 -13.48c2.65,-7.25 15.73,-21.87 20.94,-28.66l22.2 -26.52c7.24,3.48 16.89,13.75 19.59,22.38 6.1,19.55 -12.28,65.66 -62.69,32.8l-0.04 0zm-14.13 -109.62l14.69 15.28c-0.69,13.18 -19.52,33.56 -26.24,42.08l-60.56 76.97c-15.38,19.48 -17.17,22.62 -39.44,6.55 -4.04,4.66 -2.94,2.58 -5.87,8.17 7.1,8.87 90.42,73.38 107.08,81.35 46.35,22.1 84.9,-5.07 83.07,-42.14 -0.76,-15.07 -9.2,-23.83 -13.32,-35.17 69.83,14.1 78.56,-48.55 43.49,-84.03l-96.62 -77.17c-3.71,4.38 -3.31,2.34 -6.27,8.17l-0.01 -0.06zm-2366.49 547.91c8,-21.79 32.9,-35.61 59.42,-19.9 20.3,12 26.9,37.77 6.1,58.59 -12.14,-1.06 -56.24,-30.17 -65.52,-38.69zm-74.07 -48.14c8.31,-15.1 25.52,-34.03 50.1,-19.1 28.11,17.06 18.2,31.14 9.59,56.93 -9.04,-2.89 -53.1,-31.38 -59.66,-37.79l-0.03 -0.04zm-57.52 56.76l7.93 5.82c21.58,-22.17 10.11,-29.17 90.52,26.11 68.93,47.41 77.44,36.1 60.9,72.38l7.31 3.45c7.34,-3.1 65.66,-94.89 72.62,-114.69 9.63,-27.45 5.52,-54.55 -14.69,-68.91 -28.49,-20.2 -48.46,-5.68 -69.24,8.21 8.97,-74.2 -59.11,-72.34 -86.77,-36.55 -13.34,17.31 -22.69,33.2 -35.14,52l-33.41 52.21 -0.03 -0.03zm1579.16 2357.71c34.78,-4.65 54.07,2.18 55.89,36.76 1.87,35.16 -18.1,38.9 -50.14,41.34l-5.8 -78.11 0.05 0.01zm-79.56 -1.51l24.35 3.38c7.62,16.07 9.14,77.42 10.86,100.8 7.48,101.9 3.69,59.21 -21.27,77.42l1.51 9.07c18.04,-1.52 35.83,-2.79 54.42,-4.17 8.66,-0.66 43.73,-0.66 50.24,-6.58l-1.04 -7.9c-26.9,-1.42 -26.69,1.68 -28.75,-26.48 -0.97,-13.45 -6.51,-38.86 -2.03,-48.46 9.3,-3.31 15.61,10.13 20.72,16.21l55.04 66 65.24 -5.42 -0.03 -9.49c-15.03,-6.93 -12.16,1.49 -24.51,-13.96l-52.42 -61.55 8.04 -6.55c3.32,-2.01 6.28,-3.27 8.83,-4.9 36.18,-23.17 23.83,-101.18 -48.86,-96.38l-120.63 9.58 0.28 9.38 0.01 0zm57.34 -3144.88c0,-22 1.04,-44.2 1.45,-66.21 0.28,-15.21 -0.24,-14.1 16.14,-12.37 40.72,4.35 41.9,38.52 32.93,59.79 -8.04,19.07 -27.59,18.79 -50.48,18.79l-0.04 0zm-76.27 -87.1c27.73,0.31 25.84,6.17 25.84,32.65 0,25.04 -1.62,127 -7.17,142.69 -8.52,2.65 -19.9,2.86 -24.35,6.32 1.3,12.92 6.31,8.16 44.1,9.27 25.59,0.73 36.11,3.31 61.25,0.8l-2.66 -9.25 -16.56 -3.64c-8.65,-4.52 -6.69,-16.83 -6.48,-31.55l1.31 -42.1c14.48,-0.14 23.16,20.97 36.96,41.65 8.42,12.62 23.97,38.9 32.49,47.45l65.03 1.58c0.14,-20.96 -5.28,-4.73 -18.42,-20.49l-48.86 -73.97c8.97,-6.27 35.11,-11.99 40.35,-41.45 5.27,-29.48 -10.14,-48.69 -27,-57.76 -22.39,-12.04 -125.35,-15.97 -155.87,-12.99l-0.03 10.76 0.07 0.03zm1011.06 2877.73c5.14,-6.66 20.14,-19.36 31.76,-20.73 19.83,-2.35 77.87,34.97 18.65,79.31 -7.41,-7.24 -47.56,-51.93 -50.45,-58.58l0.04 0zm109.48 25.2c3.38,-14.1 10.48,-18.83 8.21,-38.24 -1.59,-13.63 -9.31,-24.8 -16.56,-31.42 -31.52,-28.94 -71.52,-6.96 -98.39,18l-51.44 44.87c-7.32,6.93 -19.76,15.17 -21.97,22.2l3.32 5.65c17.37,-3.59 19.02,-25.24 43.44,6.84l48.01 55.2c11.93,15.55 45.79,45.72 42.8,57.76 -3.24,13.04 -17.72,9.8 -8.14,24.21l76.48 -64.1c9.76,-10.77 -2.76,-10.51 -2.76,-10.51 -17.89,1.75 -12.21,23.9 -39.35,-7.69l-31.24 -36.49c10.41,-7.41 19.9,-1.35 44.72,4.62 68.8,16.51 61.74,21.55 85.28,-0.52 6.63,-6.2 26.01,-20.73 30.08,-27.48l-4.45 -7.14c-12.87,3.1 -10.86,7.66 -29.18,4.04l-78.82 -19.76 -0.04 -0.04zm-2359.54 -359.42c-10.11,-13.37 -21.25,-32.04 -31.83,-42.59l-8.24 5.68c14.77,27.38 19.97,21.25 -56.65,74.42 -75.03,52.11 -62.99,57.07 -88.45,31.52 -6.34,1.96 -2.93,0.38 -8.45,4.52 3.69,9.42 53.17,76 62.94,87.72 4.69,-2.82 2.86,-1.3 7.45,-5.89 -4.14,-8.35 -9.27,-12.97 -8.75,-25.35l60.03 -44.72c12.55,16.17 25.32,31.49 36.25,49.45 -1.76,2.39 -0.76,1.21 -3.48,3.76 -0.45,0.45 -2.96,2.56 -3.76,3.22 -13.7,10.93 -45.84,36.31 -60.53,36.27 -3.21,-3.24 -4.59,-4.73 -7.24,-7.62l-7.97 -7.66c-4.9,4.14 -3.1,1.82 -6.83,6.38l31.35 44.28c9.82,14 20.72,30.1 31.09,41.55l8.14 -5.27c-4.42,-11.03 -8.66,-7.25 -9.51,-23.22 2.1,-8.06 96.21,-73.21 115.35,-87.17 17.94,-13.06 26.83,-17.44 38.45,4.8 6.58,-3.07 4.97,-2.01 9.28,-7.03l-62.69 -85.9 -7.38 5.69c3.83,11.52 9.65,8.2 8.52,26.07 -4.76,5.18 -48.73,37.17 -57.86,40.96 -7.1,-16.61 -27.59,-34.14 -34.55,-52 9.79,-4.52 30.97,-20.66 40.51,-28.07 36.52,-28.18 21.42,12.52 45.86,2.1 -2.65,-9.24 -24.41,-37.24 -31,-45.93l-0.05 0.03zm773.63 592.99c-19.97,-4.76 -89.35,-32.42 -102.79,-31.38l-2.39 6.55c19.15,23.93 36.87,-22.45 -2.2,94.8 -28.58,85.73 -19.41,85.3 -54.21,77.8l-3.03 8.37c6.48,6.49 63,22.72 80.38,28.66 27.9,9.56 20.07,7.66 23.8,-1.18 -3.69,-7.72 -17.13,-6.86 -20.35,-13.04 -1.41,-13.17 16.31,-68.55 22.93,-75.72 13.66,4.21 47.14,12.59 57.04,20 -3.11,14.69 -10.73,33.76 -15.55,48.34 -9.42,28.45 -6.73,26.32 -35.24,20.9l-3 8.69c6.38,6.13 63.41,22.59 80.69,28.48 27.28,9.31 19.62,7.41 23.38,-0.97 -3.93,-8.99 -16.56,-6.34 -20.14,-13.06 -2.18,-17.35 44.96,-153.1 53.45,-162.59 10.51,-2.31 14.79,0.07 23.83,2.93l3.41 -10.93c-21.04,-5.18 -88.17,-32.48 -102.79,-31.66l-2.42 6.56c11,14.96 29.7,-1.07 17.11,36.24 -4.62,13.76 -9.89,35.14 -16.45,47.63l-58.35 -19.1c4.28,-17.48 16.56,-57.83 25.8,-68.17 10.51,-2.13 15.1,0.8 23.96,3.07l3.25 -11.24 -0.12 0.02zm1485.01 -935.72c7.41,-9.42 11.59,-39.59 16.38,-54 28.03,-84.14 36.31,-80.03 72.52,-147.7 19.73,-36.8 27.66,-67.89 29.08,-116.35 1.2,-42 -1.52,-99.38 -8.66,-139.42 -6.51,13.8 -13.35,43.73 -19.35,59.8 -21.97,58.82 -52.73,109.65 -82.8,162.51 -32.28,56.8 -65.28,115.15 -38.17,184.18 6.13,15.62 21.06,41.48 31,50.96l0 0.02zm-1999.11 0c9.44,-9.14 24.3,-34.21 30.34,-49.31 27.9,-69.93 -4.07,-126.98 -37.53,-185.8 -30.45,-53.55 -59.58,-101.56 -82.18,-160.87 -6.48,-17.06 -13.17,-47.03 -19.96,-61.45 -7.15,40.11 -9.52,95.04 -8.69,137.15 2.38,122.93 56.93,132.42 101.07,264.6 4.58,13.72 10.62,47.65 16.96,55.72l-0.01 -0.04zm847.25 567.19c46.62,-15.07 108.35,-200.87 118.08,-268.8 -23.69,-1.07 -46.28,-3.01 -69.22,-6.14 -22.31,-3.03 -45.24,-8.92 -66.18,-11.48 -8.68,13.8 -16.51,126.49 -16.58,150.9 -0.07,26.18 2.65,51.9 9.06,76.32 8.87,33.79 17.8,40.69 24.87,59.2l-0.03 0zm-773.73 -747.67c53.66,-160.15 -70.38,-241.29 -118.18,-395.46 -5.62,-18.07 -10.03,-47.27 -16.2,-61.62 -0.97,22.6 -14.84,78.28 -17.28,136.11 -3.31,79.18 14.03,122.08 58.14,178.18 26.55,33.83 59.11,77.55 78.66,116.21 4.52,8.92 8.75,19.86 14.86,26.55l0 0.03zm1852.07 0c1,-1.14 40.06,-71.49 58.97,-97.04 78.06,-105.59 109.24,-128.94 86.24,-293.21 -2.69,-19.28 -10.13,-50.17 -10.86,-66.83 -8.66,20.21 -12.04,62.9 -36.72,116.69 -52.49,114.27 -145.08,198.86 -97.66,340.39l0.03 0zm-785.78 467.65c0.59,39.52 63.49,236.01 114.22,261.76 28.56,-23.75 35.17,-106.65 35,-138 -0.31,-57.52 -9.8,-106.83 -14.38,-161.62 -20.9,4.97 -43,14.48 -65.22,20.8 -16.27,4.62 -56.96,11.48 -69.62,17.04l0 0.02zm-1167.89 -949.12c0,71.49 27.04,123.05 58.89,177.8 13.49,23.17 28.83,47.59 40.7,71.66 22.93,46.52 15.31,29.41 32.97,77.66 1.86,-21 5.3,-42.41 4.44,-63.49 -5.96,-144.62 -51.58,-188.66 -51.58,-334.73 0,-33.63 6.2,-64.08 9.48,-96.14 -15.73,7.76 -50.04,48.96 -62.28,68.55 -15.47,24.75 -32.58,61.21 -32.58,98.65l-0.04 0.04zm1519.38 1153.14l1.21 27.69 59.35 -82.94c44.51,-57.17 81.14,-99.48 132.89,-151.35 20.94,-20.99 50.76,-45.45 73.21,-68.52 -24.58,-7.48 -49,-12.52 -73.07,-20.52 -23.99,-7.97 -44.27,-17.89 -66.35,-27.73 -19.17,18.86 -64.17,111.86 -78.51,146.21 -17.77,42.45 -48.73,127.07 -48.73,177.12l0 0.04zm-1250.17 -275.12c22.48,23.07 52.27,47.51 73.21,68.52 24.38,24.42 45.08,46.69 68.72,73.45 33.25,37.58 65.69,77 94.01,119.17 8.42,12.55 20.97,32.28 29.46,41.76 9.82,-77.3 -44.35,-205.72 -80.55,-274.86 -10.84,-20.66 -31.38,-62.49 -45.39,-76.25 -81.99,36.56 -61.31,24.45 -139.42,48.21l-0.04 0zm1653.5 -550.9c40.59,-110.94 90.14,-161.31 117.84,-240.42 17.62,-50.38 21.58,-103.14 -0.24,-152.6 -15.45,-34.9 -57.1,-90.1 -79.86,-101.34 4.68,46.38 11.24,80.86 8.87,130.31 -5.66,118.24 -71.73,250.66 -46.55,364l-0.06 0.05zm-915.03 634.14c-1.66,68.98 8.21,183.56 31.17,249.43 5.72,16.35 22.93,58 41.69,50.62 54.38,-21.39 68.55,-235.8 68.31,-309.63 -50.42,6.31 -88.86,8.35 -141.17,9.58zm-920.92 -401.89c0.36,58.89 5.04,107.35 31.59,157.28 15.9,29.89 54.62,80.45 74.8,93.04 22.93,-14.08 43.24,-26.38 69.97,-40.42l72.03 -38.38c-63.04,-65.55 -77.28,-58.35 -129.24,-106.24l-43.24 -43.94c-8.66,-10.86 -61.28,-74.31 -72.1,-76.21l-3.76 54.87 -0.05 0zm1633.35 171.51c1.9,2.06 0.93,1.35 3.79,3.41 1.35,0.97 3.18,2.03 4.31,2.69l27.31 13.94c12.59,6.27 24.18,11.79 36.63,18.38 38.1,20.21 40.72,23.83 69.99,40.63 24.28,-16.49 59.8,-65.17 74.76,-93.28 37.27,-69.83 32.44,-136.84 28.04,-212.18 -11.07,1.89 -62.49,63.93 -71.32,74.94 -12.04,15 -56.27,58.28 -75.1,71.58 -46.81,33.08 -52.84,32.51 -98.39,79.9l-0.02 -0.01zm-1919.15 -478.84c99.53,-23.45 125.8,-141.76 136.97,-227.35 10.86,-83.01 13.96,-158.94 31.76,-241.36 5.37,-24.89 15.28,-50.48 19.54,-72.48 -18.27,15.17 -63.38,81.45 -77.14,104.45 -82.86,138.35 -51.93,221.34 -89.49,366.63 -5.96,23.1 -17.17,49.27 -21.69,70.14l0.05 -0.03zm2453.34 0c-4.35,-20.21 -15.38,-46.17 -21.2,-68.31 -38.36,-146.05 -6.42,-227.52 -89.11,-366.99 -13.97,-23.54 -59.63,-90.65 -77.97,-105.89 4.21,21.51 13.89,46.28 19.14,70.63 27.38,127.18 22.03,289.97 70.07,386.18 17.72,35.52 53.17,73.59 99.07,84.41l0 -0.03zm-628.6 427.11l64.24 37.49 51.11 -46.83c7.03,-5.52 11.38,-10.79 18.18,-16.21 6.72,-5.35 10.51,-9.52 17.1,-14.96l68.55 -64.41c4.59,-5.45 9.18,-11.52 14.18,-18.01 8.87,-11.52 18.55,-25.72 25.44,-40.96 24.87,-55.04 24.49,-97.28 21.04,-154.45l-117.04 104.24c-16.83,15.86 -61.79,58.42 -73.52,75.55 -17.51,25.59 -26.69,52.25 -57.28,93.97l-32 44.51 0 0.07zm-1260.62 37.11l64.15 -37.7 -60.72 -88.31c-31,-50.14 -15.62,-40.34 -62.14,-86.79l-95.45 -90.28c-7.69,-6.03 -12.87,-12.14 -20.73,-18.24 -6.72,-5.21 -13.04,-11.38 -19.76,-16.97 -4.38,-3.62 -18.34,-15.28 -19.83,-17.1 -12.52,45.59 3.48,127.35 31.55,175.07 5.11,8.66 9.48,14.46 15.07,21.63 33.51,42.66 105.77,103.35 148.34,140.56 7.04,6.13 11.18,12.51 19.52,18.14l0 -0.01zm882.65 -948.27c-21.56,4.45 -18.86,-14.34 -9.75,-18.69 13.72,-6.51 18.97,6.69 9.75,18.69zm-34.24 -38.69c11.76,35.28 -34.31,19.52 -11.38,-2.17l11.38 2.17zm66.47 -50.85c16.52,-8.52 20.76,17.51 7.86,22.76 -15.93,6.45 -25.34,-13.73 -7.86,-22.76zm-56.17 65.76c-3.86,-63.04 10.41,-36.38 34.38,-69.21 -2.96,15.73 1.24,37.1 -5.51,45.62 -5.63,7.07 -25.8,18.69 -28.9,23.54l0.03 0.05zm-0.13 -95.29c27.86,-2.13 18.72,22.83 9.63,25.51 -8.21,2.42 -14.1,-2.72 -15.1,-9.58 -1.07,-7.31 2.44,-10.46 5.49,-15.93l-0.02 0zm42.69 7.86c2.11,-15.73 2.13,-40.49 5.66,-54.45 6.17,-24.63 25.24,-23.86 30.72,-17.37 17.31,20.44 -15.52,46.83 -23.83,56.41 -4.1,4.73 -8.66,11.17 -12.55,15.41zm-76.18 -41.96c-29.46,13.59 -28.59,4.83 -58.21,33.39 -16.14,15.54 -40.9,-12.31 -55.9,-23.38 -2.1,34.07 40.73,48.76 15.45,90.55 -3.52,5.83 -14.34,20.18 -17.03,22.2 25.24,4.52 31.8,-13.65 42.35,-14.2 13.82,-0.73 29.89,13.49 53.1,4.59 2.27,-6.01 -4.62,-12.45 -10.1,-23.03 -17.14,-33.13 -8.31,-53.41 32.86,-60.48 -2.48,33.45 17.42,48.65 0.21,69.1 -4.28,5.11 -15.62,17.17 -17.96,25.72 -10.55,38.31 25.65,47.69 42.1,22.48 -0.1,56.28 31.99,33.7 43.89,10.7 8.42,-16.24 7.32,-28.07 12.59,-44.49 32.18,-2.72 28.8,-6.96 47.56,-20.56 9.8,10.65 17.94,35.9 4.76,49.67 -11.66,12.13 -33.34,15.99 -52.77,18.31 8.45,26.38 29.04,26.93 41.42,41.41 4.99,17.49 1.06,30.07 16.2,39 6.56,-54.31 21.56,-55.38 54.14,-62.73 13.21,-3 18.56,-6.76 28.97,-10.48 -5.42,-4.9 -7,-4.42 -16.56,-5.52 -13.28,-1.51 -38.07,-5.93 -38.31,-21.58 -0.55,-39.76 -2.82,-35.73 -14.01,-67.32 9.21,-9.96 20.18,-8.92 31.83,-24.58 7.48,-10.04 8.31,-33.46 16.52,-40.73 14.52,-4.8 43.21,13.96 60.45,17.21 -10.41,-11.31 -56.34,-56.35 -82.04,-54.49 -20.17,1.44 -18.55,28.41 -22.31,46.07 -3.72,17.51 -16.68,36.13 -34.66,36.03 -0.76,-22.45 38.45,-89.93 -3.21,-114.34 -35.97,-21.1 -60.01,60.01 -77.59,72.31 -11.93,-12.92 -5.14,-34.62 3.65,-46.16 6.03,-7.98 27.92,-24.49 25.34,-39.52 -3.76,-21.96 -74.35,-36.32 -99.07,-31.73 10,4.76 18.97,10.24 28.82,14.86 40.27,18.93 23.35,19.69 5,51 -9.87,16.86 -6.63,20.65 -7.55,40.72l0.07 0zm-128.73 1157.16c5.18,18.7 11.41,27.62 17.27,43.45 5.76,15.55 4.73,35.52 -10.79,38.21 -32.18,5.52 -12.89,-65.73 -6.48,-81.66zm23.63 -31.96c14.69,-8.62 26.17,16.75 11.52,23.68 -7.41,3.48 -14.2,-2.38 -16.37,-7.17 -3.46,-7.59 -1.24,-12.89 4.89,-16.49l-0.04 -0.02zm-48.41 -1.28c11.41,12.38 4.45,30 -9.94,25.48 -12.04,-3.76 -13.34,-28.18 9.94,-25.48zm23.07 9.46c-4.86,-7.38 -16.9,-28.56 -15.73,-36.9 1.61,-11.62 9.51,-27.66 15.73,-35.58 11.31,31.72 26.72,27.07 0,72.48zm16.07 -87.25c16.34,4.93 16.72,22.72 -3.32,22.1 -5.62,-7.83 -5.62,-5.65 -5.62,-16.51l8.89 -5.59 0.05 0zm-34.69 -0.14c9.65,12.24 0.61,25.21 -9.66,20.94 -9.18,-3.83 -10.55,-23.52 9.66,-20.94zm125.2 -15.9c-20.73,2.77 -46.42,8.48 -53.72,22.25 8.66,7.54 30.69,15.96 40.37,32.82 12.14,21.17 -8.42,40.44 -19.9,48.51l-5.82 -9.04c-10.51,-18.38 -10.41,-14 -22.1,-26.07 -14.34,-14.83 -0.69,-27.8 -0.69,-50.87 0,-31.97 -39.21,-49.1 -48.03,-5.18 -23.86,-49.31 -43.69,-20.07 -43.69,9.75 0,18.56 4.97,30.29 9.73,45.28 -38.18,27.37 -20.21,20.44 -33.84,40.96 -65,-36.8 2.44,-72.15 11.31,-84.55 -33.07,-22.69 -46.8,-0.9 -60.65,-23.45 -3.31,-5.35 -1.44,-4.14 -6.72,-9.35 -5.52,-5.48 -11.03,-8.16 -20.07,-10.62 5.18,21.93 15.93,44.51 -0.17,64.01 -13.27,16.06 -30.59,18.48 -39.23,42.17 25.41,-5.11 28.96,-16.17 57.9,-8.76 27.07,55.28 31.73,41.17 46.07,58.9 -5.63,12.35 -14.91,17.82 -17.14,35.21 -2.1,16.3 8,33.03 3.79,45 -12.42,12.59 -43.82,6.86 -61.55,12.45 20.97,7.66 85.14,24.18 101.94,7.59 16.28,-16.07 -14.48,-46.62 -5.8,-76.62 1.07,-3.72 3.41,-8.66 5,-11.24 4.1,-6.63 3.38,-5.42 8.21,-8.62 10.45,9.42 8.14,33.69 14.76,57.07 13.66,48.28 60.65,59.73 71.28,11.45 4.92,-22.48 -0.17,-47.23 4.92,-69.16 9.52,2.76 13.11,7.62 17.25,16.93 12.76,28.73 -18.62,61.29 1.73,76.32 18.72,13.82 85.86,-10.94 99.38,-20.52 -24.9,-1.73 -55.9,3.93 -62.62,-4.86 -4.9,-10.65 1.9,-28.13 1.97,-41.27 0.09,-18.17 -6.63,-23.85 -12.28,-36.65 11.45,-15.03 27.97,-26.08 34.9,-51.04 8.31,-29.86 33.03,-13.96 62.21,-10.58 -9.73,-24.56 -61.76,-31.59 -55.87,-69.07l4.14 -31.17c-12.9,0.76 -23.97,18.1 -27.07,31.9l0.1 0.12zm-380.29 -889.06c12.14,-6.27 22.32,14.04 11.69,19.22 -14.58,7.17 -22.79,-13.49 -11.69,-19.22zm51.59 3.74c-20.21,6.45 -20.97,-12.73 -13.93,-18.65 9.44,-8.04 19.37,3.31 13.93,18.65zm-97.56 -72.5c15.07,-8.17 28.45,16.66 13.45,23.03 -13.73,5.82 -27.36,-15.52 -13.45,-23.03zm35.66 -1.13c33.34,36.69 30.14,2.48 31.38,69.21 -4.52,-2.42 -25.28,-20.42 -28.14,-24.69 -3.83,-5.62 -1.94,-33.58 -3.21,-44.51l-0.03 -0.01zm17.49 -1.45c-6.46,-22.59 10,-29.83 18.48,-18.79 9.03,11.79 0.61,28.49 -18.48,18.79zm-28.04 -19.48c-0.31,-0.31 -1,-0.9 -1.35,-1.28 -0.35,-0.37 -0.9,-0.89 -1.28,-1.3l-12.14 -13.32c-12.75,-10.79 -40.82,-26.03 -22.79,-54.59 34.32,-4.28 34.15,41.77 38.97,71.77 -0.47,-0.38 -1.1,-0.97 -1.37,-1.28l-0.04 0zm42.38 -29.59c-23.14,-4.14 -28.83,-70.87 -82.59,-70.52 -14.27,0.1 -18.27,5.28 -22.27,16.11 -12.14,32.65 19.93,63.41 19.76,91.86 -51.42,-5.68 -22.72,-78.42 -57,-79.32 -24.9,-0.61 -68.77,45.01 -79.11,57.84 17.07,-4.31 43.42,-23.45 59.9,-19.67 7.99,10.77 8.09,24.73 13.79,38.98 7.72,19.35 16.73,17.69 25.84,28.96 -13.04,37.31 -10.21,33.17 -11.18,73.35 -30.83,25.06 -24.93,10.69 -54.07,21.65 19.74,14.87 40.56,8.93 60.01,18.32 24.31,11.72 18.41,36.79 28.14,53.34 9.82,-10.51 13.41,-20.28 12.04,-40.56 11.97,-7.62 40.13,-25.65 39.82,-42.45 -75.86,-5.04 -60.55,-33.83 -51.86,-66.31 10.65,5.49 15.07,12 29.24,17.87 15.59,6.41 20.69,4.38 24.94,20.87 3.59,13.93 4.73,54.8 44.93,49.55 6.18,-9.76 11.08,-15.52 8.9,-33.11 11,6.14 12.45,15.14 33.39,13.63 20.51,-26.9 -9.04,-65.24 -24.07,-76.69 7.52,-21.49 18.24,-19.93 13.48,-53.41 19.62,3.17 40.73,9.79 42.38,30.17 1.73,21.1 -13.82,37.34 -18.62,52.08 26.32,6.03 30.6,-1.35 52.14,-6.28 9.27,-2.1 9.65,3.22 19.28,8.28 7.55,3.97 16.07,5.35 25.58,4.42 -5.51,-12.44 -28.89,-27.07 -25.72,-53.1 2.48,-20.21 18.83,-30.86 21.41,-60.52 -16.3,10.41 -23.69,29.38 -53.14,30.52 -9.21,-16 -36.8,-30.59 -63.21,-34.38 1.52,-16.38 7.17,-28.38 0.93,-45.03 -6.34,-16.9 -17.82,-19.76 -19.69,-35.76 11.07,-17.7 37.79,-20.18 50.59,-34.38 -28.59,0 -91.76,12.49 -96.04,34.9 -5.25,27.45 52.65,43.65 32.13,88.83l-0.05 -0.04zm-270.25 486.22c-2.45,-21.04 17.34,-18.15 21.1,-9.9 5.18,11.31 -8.83,17.87 -21.1,9.9zm-76.93 -21.89c15.92,-9.42 28.3,10.86 14.86,19.59 -14.56,9.37 -29.65,-10.87 -14.86,-19.59zm89.28 -32.11c12.86,-7.38 21.1,0.54 19.75,15.76 -13.62,6.1 -23.68,2 -19.75,-15.76zm-76.25 11.31c14.93,0 35,-9.04 44.42,-4.93 9.04,3.97 25.69,18.18 30.97,24.31 -13.82,1.37 -34.07,10.62 -44.7,3.55 -8.8,-5.87 -15.31,-17.82 -30.69,-22.9l0 -0.03zm-98.86 -21.63c13.58,-11.1 24.75,-12.72 43.28,-2.31 11.72,6.58 24.2,13.06 36.93,20.21 -26.97,2.31 -81.99,20.72 -80.21,-17.9zm119.62 3.46c-27.52,9.75 -36.56,-22.56 -6.79,-21.42l8.82 7.9 -2.03 13.52zm-39.1 -34.98c-21.79,4.43 -45.9,-3.97 -69.42,-1.06 -43.87,5.34 -64.6,48.58 -9.42,69.66 15.52,5.89 46.93,7.07 54.93,20.28 -26.31,31.38 -67.32,-15.66 -88.1,-10.65 -26.72,6.41 -15.69,78.31 -11.93,104.66 8.76,-15.17 7.17,-47.52 19.07,-58.45 13.14,-4.45 23.9,5.96 37.84,10.24 21.79,6.65 24.82,1.76 43.55,-2.2 18.56,43.11 47.97,49.24 50.59,54.99 3.72,25.52 -9.27,36.59 -16.61,55.45 24.18,-6.2 30.24,-22.86 47.42,-33.65 22.52,-14.13 43.89,1.65 63.48,8.73 -3.24,-22.04 -11.59,-24.8 -23.8,-35.11 -0.85,-20.07 4.17,-42.46 -8.75,-56.77 -17.59,11.24 -52.56,65.97 -84.18,-0.55 5.35,-3.76 14.28,-1.93 39.49,-17.2 17.42,-10.55 28.59,2.41 44.07,8.76 38.45,15.78 64.55,-26.91 23.97,-43.28 16.65,-2.63 23.17,-6.7 31.82,-14.04 -0.92,-33.55 -43.48,-35.06 -76.79,-32.24 -8.65,-33.87 -22.45,-33.56 -31.65,-44.7 11.45,-5.89 30.17,-27.04 50.44,-12.66 16.52,11.69 16.97,28.18 28.07,45.27 17.25,-7.93 20.38,-28.51 29.46,-48.1 5.3,-5.56 26.76,-1.97 34.9,-24.49 -24.38,1.21 -48.32,2.72 -60.72,-15.76 -10.87,-16.14 -15.86,-41.31 -31.28,-48.89 0.44,19.14 6.79,44.48 -6.46,57.03l-3.48 1.3c-23.9,6.35 -35.9,4.93 -63.86,30.11 -8.21,-7.69 -17.35,-20.28 -28.38,-25.35 -14.17,-6.51 -33.51,-3 -47.52,-7.48 -5.68,-21.17 6.8,-42.76 4.31,-63.89 -10.1,19.31 -41.17,64.34 -34.86,92.21 6.94,30.62 78.87,-8.8 93.87,37.9l-0.07 -0.07zm1020.2 522.99c-19.55,7.1 -32.07,-25.86 -1.87,-23.61 5.9,7.48 12.73,14.55 1.87,23.61zm28.96 -21.62c13.9,4.35 33.04,8.66 46.45,13.48 22.18,8 27.52,25.8 19.48,33.84 -13.37,13.41 -34.45,-4.9 -40.32,-12.9l-25.62 -34.41 0.01 -0.01zm14.04 -29.11c-13.42,7.79 -30.72,1.83 -24.52,-13.24 4.48,-10.87 28.8,-10.63 24.52,13.24zm-114.49 -24.06c10.14,-4.69 22.32,11.1 11.15,18.69 -5.69,3.9 -12.76,0.76 -15.03,-3.1 -4.76,-8.1 -1.97,-12.93 3.9,-15.62l-0.02 0.03zm81.83 39.82c-33.96,-7.55 -39.73,1.87 -58.73,-45.69 54.93,12.55 36.35,6.72 49.11,30.48 3.38,6.32 6.79,10.1 9.65,15.24l-0.03 -0.03zm-59.75 -69.76c7.55,-5.44 23.76,-0.59 20.42,11.34 -3.34,11.93 -16.24,5.42 -21.96,0.62l1.58 -12 -0.04 0.04zm26.93 -23.21c20.23,-1.82 75.41,-41.24 77.66,35.8l-23.52 -3.86c-17.51,-2.1 -24.97,9.59 -39,-3.48 -9.11,-8.45 -14.83,-19.59 -24.35,-26.17 -27.45,-18.9 -57.76,2.13 -33.34,35.07 -14.69,-2.39 -23.59,-2.89 -35.97,2.72 -5.86,40.42 44.25,50.97 58.11,59.49 -2.2,41.17 3.46,30 11.69,51.72 -56.24,13.32 -59.06,-9.2 -58.04,-61.45 -21.38,3.41 -37.86,21.8 -45.69,33.39 -17.89,-2.21 -26.83,-4.76 -43.82,6.31 5.89,4.97 18.24,7.9 26.17,12.11 9.34,4.97 15.52,9.35 20.13,18.72 10.01,20.31 -1.27,49.48 12.31,67.18 29.32,-75.32 21.39,-41.97 64.62,-44.86l40.21 -5.42c12.17,56.62 40.82,40.72 52.2,59.42 4.55,13.34 -22.55,41.14 -27.66,56.9 17.56,-10.79 77.8,-53.79 68.35,-79.41 -17.49,-28.35 -60.59,-7.03 -70.66,-61.45 13.79,-1.52 39.66,17.48 53.45,23.54 45.62,20.14 96,-9.13 44.51,-58.37 -10.96,-10.49 -36.34,-24.94 -39.49,-39.56 27.66,-2.59 32.04,1.51 46.15,16.86 9.03,9.83 19.99,33.8 38.35,29.11 21.96,-5.63 37.76,-61.93 45.76,-90.28 -19.48,16.69 -32.35,52.63 -48.79,44.49 -14.7,-7.27 -17.18,-35.97 -63.11,-38 -0.21,-13.38 -2.48,-25.52 -6.27,-37.32 -1.73,-5.44 -3.31,-9.96 -5.8,-14.93 -6.24,-12.49 -22.31,-17.76 0,-41.24 4.17,-4.42 7.55,-7.27 12.07,-10.77 1.14,-0.89 6.41,-4.99 6.41,-5.03 0.52,-0.45 2.07,-1.9 2.59,-2.42 3.31,-3.45 0.89,-0.07 3.76,-4.52 -53.77,-0.92 -61.74,36.56 -103.15,-13.86 -22.14,-26.93 -1.06,35.24 -1.06,35.28 -0.62,12.61 -18.25,23.97 -14.73,54.24l-0.05 0.05zm37.1 -321.83c-9.55,-23 21.77,-26.01 18.93,-2.59 -8.44,5.56 -7.45,5.35 -18.93,2.59zm100.14 -26.48c6.63,24.48 -17.62,23 -23.38,14.17 -8.68,-13.28 6.8,-22.59 23.38,-14.17zm-88.38 -17.8c-13.58,11.1 -25.86,2.01 -19.1,-10 3.17,-5.66 22.46,-11.79 19.1,10zm-2.86 12.76c36.65,-35.8 35.83,-19.79 76.07,-15.9 -15.45,4.14 -23.52,19.85 -32.72,22.65 -9.18,2.76 -32.73,-4.66 -43.35,-6.72l0 -0.03zm93.14 -20.21c26,-11.97 54.99,-46.14 75.62,-29.11 14.46,11.97 -3.45,27.73 -18.65,30.29 -13.55,2.27 -39.96,-1.76 -56.93,-1.21l-0.04 0.03zm-13.75 -18.93c-13.63,8.52 -31.59,3.62 -22.25,-13.28 4.93,-8.92 28.42,-12.75 22.25,13.28zm76.95 -93.14c-23,14.48 -47.13,-7.66 -74.11,26.1 -33.93,-14.31 -14.52,-19.07 -71.2,-26.21 -12.66,-16.8 -9.96,-33.96 -9.04,-57.45 -33.34,15.31 -0.83,72.03 -89.28,68.76 5.07,10.79 12.83,15.83 24.21,19.14 0.52,0.14 4.55,1.11 5.42,1.35l5.41 1.75c6.28,2.13 10.94,37.55 32.76,47.35 11.07,-13.7 10.96,-34.97 26.38,-46.9 17.27,-13.34 41.48,1.11 51.14,12.59 -12.76,8 -18.86,15.66 -27.97,28.93 -13.96,20.42 -18.79,11.69 -44.87,13.14 -19,1.07 -48.76,23.48 -25.03,42.52 9.04,7.24 12.76,4.21 20.21,8.83 -16.73,9.86 -33.49,35.49 0.21,39.8 25.62,3.24 44.69,-11.53 61.83,-18.28 10.69,11.22 23.14,22.08 47.28,23.48 -20.87,72.83 -76.86,11.28 -83.98,6.39 -12.52,13.58 -6.51,37.76 -5.96,56.96 -9.87,9.27 -20.14,17.44 -22.01,36.69 17.49,-7.03 38.97,-24.68 62.94,-12.06 9.8,5.17 14.79,12.11 23.17,18.1 10.2,7.31 13.07,8.24 25.39,13.27 -2.04,-16.58 -20.45,-21.76 -19.07,-56.9 15.17,-8.93 18.41,-10.48 28.44,-23.21 10.48,-13.28 18.03,-29.32 21.96,-32.66 46.45,27.45 55.73,-4.85 83.11,-1.13 2.06,3.93 20.3,56.41 20.51,58.59 4.52,-26.28 8.28,-97.49 -15,-103.93 -23.69,-6.56 -66.8,45.69 -93.21,10.93 22.25,-21.59 77.12,-14.25 87.28,-63.21 10.96,-52.79 -84.55,-22.62 -105.04,-25.06 15.48,-51.56 83.86,-4.62 90.03,-40.25 4.38,-25.27 -28.96,-77.24 -40.34,-89.28 1.61,18.55 12.21,45.25 8.35,61.9l0.08 -0.04zm-1021.61 640.5c9.82,15.07 -2.01,29.87 -14.63,23.52 -10.13,-5.11 -8.99,-27.99 14.63,-23.52zm-104.59 56.04c-5.11,-20.8 6.83,-30.48 20.56,-36.94 7.21,-3.38 14.07,-4.8 21.65,-8.35 7.48,-3.48 11.34,-6.34 18.41,-9.04 -3.17,6.49 -7.66,11.93 -12.07,19.97 -6.93,12.59 -19,50.9 -48.55,34.34l0 0.02zm47.42 -83.7c-4.14,-20.13 9.37,-23.31 23.73,-17.34l0.92 13.48c-8.59,8.17 -13.79,10.84 -24.65,3.86zm112.07 -15.31c-12.12,8.55 -24.28,5.18 -19.24,-8.51 3.31,-9.04 21.79,-15.97 19.24,8.51zm-82.24 30.53c18.01,-27.66 -0.07,-39 58.28,-47.56 -2.89,8.54 -14.1,32.82 -18.52,35.8 -2.32,1.55 -31.21,7.76 -39.76,11.76zm57.45 -62.63c-13.17,6.31 -27.59,0.99 -18.58,-12 5.21,-7.48 23.55,-9.04 18.58,12zm-157.63 -96.27c11.59,9.11 45.24,24.28 41.55,41.83 -1.07,5.07 -9.89,18.38 -12.66,30.76 -3.21,14.39 -2.17,25.51 -3.34,40.21 -24.56,2.96 -37.65,-0.41 -57.21,25.31 -26.69,35.07 -33.65,-11.86 -61.45,-26.31 6.89,25.51 33.62,78.89 54.42,83.32 31.52,6.69 27.97,-61.98 83,-53.63 -6.48,26.04 -65.03,52.46 -46.75,102.21 8.23,22.41 40.86,11.72 55.79,2.34 15.03,-9.37 30.76,-29.69 49.41,-31.76 -6.83,61.55 -68.1,38.76 -63.86,73.01 1.93,15.61 20.82,29.2 31.8,36.89 8.96,6.27 33.9,22.97 44.72,26.38 -7.1,-15.9 -32.58,-34.59 -34.24,-51 12.69,-21.79 43.73,-14.55 53.86,-57 19.69,1.38 39.35,3.62 58.87,-2.72 24.65,-7.97 19.52,-15.79 50.9,40.82 12.8,-22.59 -7.93,-53.55 9.34,-76.79 8.1,-10.86 23.21,-18.24 37.65,-26.1 -12.68,-10.51 -28.51,-6.27 -43.13,-2.32 -11.79,-11.38 -26.53,-26.24 -49.32,-28.37 4.45,58.35 5.76,74.59 -52.96,67.51 22.31,-43.51 0.14,-48.55 26.55,-62.23 21.52,-11.22 42.97,-18.25 36.21,-51.69 -11.31,-10.2 -18.97,-9.51 -35.55,-4.45 3.79,-13.41 7.27,-18.93 4.59,-35.23 -33.69,-10.49 -59.44,22.14 -69.07,43.86 -24.35,-4.96 -28.59,-10.83 -55,0.28 -3.14,-55.13 16.52,-56.03 73.38,-43.55 -0.24,-24.14 -7.76,-31.28 -18.03,-46.76 -11.38,-17.18 9.94,-9.83 -0.59,-50 -11,11.45 -20.68,33.51 -39.45,38.24 -23.66,5.96 -45.38,-12.21 -69.31,-3.01l-0.12 -0.05zm-365.95 -1031.08c2.07,19.86 3.7,8.48 24.49,29.52 17.52,17.76 4,12.37 32.87,21.03 10.2,-8.97 5.58,-10.79 21.13,-8.76 28.8,3.7 41.04,5.56 37.48,-40.2 -0.92,-11.79 -4.92,-6.41 3.46,-12.49l2.27 -0.07c23.83,5.51 41.27,21.18 46.86,-17.27 2.41,-16.73 -6.39,-18.08 0.59,-24.63 8.54,-2.25 2.72,2.31 15.45,7.07 6.96,2.62 13.82,3.86 21.51,2.24 6.03,-7.54 11.41,-24.44 6.13,-35.11 12.8,-2.41 13.56,9 31.24,6.07 6.34,-6.77 8.38,-20.66 15.34,-26.15 13.82,-4.8 14.69,7.9 32.79,5.52 16.49,-14.96 -1.55,-19.9 29.8,-26.86 26.55,19.97 30.93,23.66 46.14,-13.45l22.62 -4.96c10.41,6.48 15.83,16.96 34.69,15.31 4.31,-4.97 8.21,-14.46 10.76,-22.65 12.17,5.06 21.66,36.69 41.39,11.14 5.65,-7.34 4.59,-9.14 11.76,-10.55 26.1,39.72 12.11,26.76 46.83,12.21 -8.38,47.27 23.54,31.99 35.27,30.92 -0.07,18.11 -29.17,25.56 0.14,41.42 8.14,4.37 10.52,3.48 8.93,13.44 -9.42,4.97 -15.69,-2.65 -27.59,3.86 -6.2,7.31 -3.76,17.27 -4.73,29.65 -23.52,6.77 -15.9,-2.93 -31.38,-10.31 -13.93,1.58 -15.17,9.06 -25.2,16.89 -15.86,-2.03 -14.38,0.07 -14.96,-14.86 -0.52,-12.66 -3.17,-16.75 -16.11,-17.24 2.96,-16.07 23.14,-21.9 37.24,-32.38 -72.48,-3.59 -104.16,40.79 -55.41,78.25 36.34,27.9 96.38,30.14 143.11,12.49 42.59,-16.07 72.72,-63.49 41.52,-114.62 -21.1,-34.62 -56.2,-59.87 -106.52,-74.59 -157.01,-46.03 -325.18,9.79 -447.87,105l-48.35 43.34c-7.76,7.91 -13.86,14.94 -23.66,21.8l-0.03 -0.02zm1247.55 30.12c130.77,0 143.33,-105 39,-102.04l-8.45 0.24c14.11,10.56 34.29,16.38 37.25,32.45 -11.62,0.4 -15.31,3.38 -16.11,14.9 -1.11,16.17 2.86,14.93 -15,17.21 -10.04,-7.84 -11.31,-15.32 -25.21,-16.9 -15.76,7.03 -7.38,17.2 -31.37,10.31 -0.97,-12.37 1.48,-22.34 -4.73,-29.65 -11.9,-6.51 -18.15,1.11 -27.59,-3.86 -2.8,-17.51 17.2,-10.1 21.24,-24.06 3.24,-11.32 -12.11,-19.59 -12.14,-30.79 13.21,1.2 42.9,16.2 35.42,-30.93 34.62,14.9 20.83,27.17 46.69,-12.21 11.07,2.2 13.25,19.97 25.21,20.61 18.03,-4.07 16.72,-16.56 27.92,-21.2 2.56,8.21 6.46,17.69 10.77,22.65 18.86,1.68 24.27,-8.83 34.69,-15.28l22.62 4.96c16.04,39 20.44,31.93 46.14,13.45 29.79,6.62 13.32,8 26.45,23.62 10.93,13.03 21.18,-7.41 36.18,-2.25 6.96,5.49 8.97,19.38 15.34,26.14 17.69,2.94 18.48,-8.51 31.23,-6.06 -5.27,10.63 0.1,27.55 6.18,35.11 7.66,1.62 14.52,0.38 21.51,-2.24 12.73,-4.76 6.89,-9.31 15.45,-7.07 7.45,7 -1.58,6.48 0.31,22.69 3.03,26.07 7.72,29.45 31.07,24.51l14.9 -5.11c11.97,-3.1 7.17,9.42 7.15,10.35 -2.35,45.17 3.27,46.59 37.24,42.21 15.55,-2.01 10.93,-0.21 21.13,8.76 29.66,-8.9 14.18,-1.56 31.5,-20.11 12.2,-13.04 23.47,-11.01 25.83,-30.46 -15.83,-11.07 -23,-23.52 -37.01,-35.89 -35.54,-31.45 -86.17,-69.86 -129.79,-90.39 -75.93,-35.69 -144.17,-59.7 -241.73,-59.7 -172.77,0 -268.77,103.29 -217.22,174.77 18.03,25.04 56.03,41.32 98,41.32l-0.07 -0.06zm-1079.78 777.73c0,-105.06 26.79,-205.72 65.07,-290.22 36.66,-80.9 84.01,-147.21 144.97,-208.11 7.48,-7.48 14.48,-16.21 22.69,-23.1 7.86,-6.58 15.31,-13.96 23.45,-20.14 16.94,-12.86 30.52,-24.37 49.17,-37.93 31.14,-22.62 72.93,-47.42 111.76,-64.76 107.69,-48.11 192.59,-66.38 318.81,-66.38 279.38,0 536.57,190.39 636.08,416.09 49.79,112.93 66.56,191.83 66.56,322.11 0,187.25 -86.63,365.05 -213.49,491.46 -32.18,32.06 -56.96,54.45 -95.9,80.66 -113.73,76.55 -249.55,128.25 -397.87,128.25 -124.8,0 -209.94,-20.56 -314.84,-66.87 -72.14,-31.82 -153.42,-89.87 -207.59,-145.45 -133.65,-137.18 -208.87,-310.18 -208.87,-515.57l0 -0.04zm-34.38 -9.16c0,113.62 14.41,204.59 56.69,305.53 21.77,51.89 56.11,115.21 89.31,158.25 7.38,9.56 32.8,40.51 36.07,48.46l-63.04 37.83c-21.32,11.66 -43.28,23.69 -65.69,35.11 -32.7,16.73 -115.14,51.52 -128.49,75.11 11.79,16.94 44.94,22.34 70.52,22.34 47.94,0 98.46,-24.56 135.35,-42.8 20.49,-10.13 38.9,-20.66 58.04,-31.45 14.41,-8.14 44.82,-29.01 56.53,-33.04l46.61 38.36c115.83,92.76 289.4,157.8 441.67,157.8 126.38,0 207.42,-14.48 319.87,-61.76 52.96,-22.24 116.69,-59.96 160.08,-94.41 14.86,-11.79 35.97,-26.56 46.48,-40.38 26.79,7 235.8,165.52 322.97,85.97 -17.65,-33.13 -229.29,-115.28 -257.49,-152.01 102.55,-117.27 182.41,-287.22 182.41,-497.36 0,-182.8 -66.96,-342.88 -175.59,-477.19 -22.04,-27.24 -22.72,-26.03 -45.35,-48.69 -7.26,-7.31 -14.62,-16.14 -22.48,-23.31l-24.72 -21.18c-71.11,-54.31 -81.73,-65.48 -172.69,-109.27 -185.14,-89.18 -428.68,-89.63 -616.61,-4.66 -43.31,19.59 -84.86,41.86 -119.55,66.14 -108.68,76.14 -204.31,179.9 -259.18,302.48 -39.3,87.86 -71.76,192.83 -71.76,304.21l0.04 -0.08zm715.96 -1836.92c130.41,-6.45 293.28,12.14 415.56,38.38 240.94,51.66 446.33,141.01 642.64,271.98 109.56,73.07 251.49,192.21 336.49,291.67 52.07,60.93 76.41,87.83 128.11,158.37 59.62,81.38 122.83,185.71 169.45,286.63 222.21,481.47 233.9,1009.86 25.41,1504.22 -46.52,110.27 -103.55,208.56 -162.07,296.35 -30.41,45.62 -64.17,91.98 -97.45,131.8 -48.27,57.79 -148.48,169.59 -209.58,219 -6.2,5 -8.28,6.84 -14.79,12.76 -37.53,33.96 -84.83,69.38 -128.18,101.07 -296.8,216.87 -641.29,328.34 -1027.58,343.39 -276.45,10.72 -543.15,-56.49 -763.22,-148.42 -109.35,-45.69 -209.11,-104 -296.33,-162.11 -111.52,-74.3 -250.18,-191.21 -336.49,-291.66l-27.07 -30.22c-34.07,-37.62 -69.21,-84.76 -101.03,-128.2 -217.22,-296.57 -328.25,-641.26 -343.42,-1027.54 -5.28,-134.76 11.62,-291.67 38.54,-417.01 28.07,-130.62 64.18,-233.01 109.94,-346.19 22.69,-56.17 49.59,-104.44 75.2,-154.04 68.25,-132.04 193.73,-295.9 290.87,-394.53 16.49,-16.72 83.53,-82.82 103.03,-98.62 6.2,-5 8.28,-6.84 14.79,-12.76 106.73,-96.62 281.4,-209.13 414.95,-270.49 107.07,-49.21 216.39,-89.94 338,-120.49 149.32,-37.48 250.52,-45.79 404.26,-53.34l-0.03 0zm-1819.26 1809.4c0,163.58 13.37,289.59 49.76,445.9 26.93,115.76 70.56,245.39 117.93,342.97 74.07,152.6 156.08,293.4 266.42,421.36l53.67 60.94c10.27,9.58 16.99,20.13 27.16,30.17l149.46 139.35c119.21,106.03 278.63,197.63 422.57,267.48 213.72,103.74 509.25,167.7 752.22,167.7 163.55,0 289.87,-13.34 445.94,-49.86 186.63,-43.68 335.21,-106.41 494.22,-195.76 50.55,-28.42 94.39,-58.31 140.35,-88.93 56.38,-37.58 109.51,-83.32 160.83,-125.79l60.01 -54.59c11.07,-11.31 18.79,-19.97 29.2,-30.38 10.25,-10.25 17.87,-17.21 29.25,-28.04 10.17,-9.73 16.99,-20.49 27.14,-30.22 36.55,-35 126.79,-151.04 153.45,-190.41 133.39,-197.11 229.46,-394.18 285.21,-634.09 66.8,-287.56 67.77,-569.4 0.45,-857.02 -63.49,-271.18 -202.46,-553.5 -384.26,-764.33 -45.34,-52.59 -60.17,-69.22 -111.24,-120.28 -10.24,-10.25 -17.2,-17.87 -28.06,-29.25 -9.73,-10.17 -20.49,-16.99 -30.22,-27.14l-124.37 -104.83c-56.56,-44.48 -143.04,-102.17 -206.25,-137.66 -157.97,-88.69 -308.01,-153 -493.84,-196.18 -288.14,-66.9 -568.74,-67.59 -857.02,-0.52 -115.69,26.93 -245.39,70.56 -342.97,117.93 -207.55,100.73 -284.76,154.52 -452.43,292.66 -35.42,29.18 -84.17,80.34 -118.46,113.04l-40.44 44.39c-5.04,6.34 -8.76,9.13 -14.24,15.48 -129.53,149.62 -205.08,271 -293.73,453.7 -47.18,97.18 -90.73,226.29 -117.42,341.12 -30.28,130.38 -50.28,271.94 -50.28,411.12l-0.01 -0.03zm453.56 57.31c14.65,492.54 274.49,898.85 626.64,1132.76 231.35,153.69 520.63,247.08 818.61,236.04 301.18,-11.15 562.49,-104.28 788.85,-268.11 17.7,-12.79 33.83,-25.03 50.83,-38.59 41.65,-33.17 104.07,-88.9 136.89,-124.44 116.8,-126.36 210.91,-257.32 280.67,-423.22 160.48,-381.63 148.24,-785.81 -24.21,-1160.61 -39.59,-86.04 -140.7,-246.73 -210.7,-318.88l-41.41 -45.69c-120.32,-130.9 -297.25,-251.14 -466.91,-324.04 -163.96,-70.45 -382.53,-120.49 -592.02,-111.86 -445.38,18.32 -761.23,211.59 -975.54,432.15 -14.58,15.01 -27.93,31.1 -42.48,46.97 -14.79,16.14 -25.96,30.15 -39.94,47.18 -80.07,97.8 -144.62,208.59 -197.84,329.46 -73.59,167.15 -117.72,380.28 -111.45,590.91l0.01 -0.03z"/>
  </g>
 </g>
</svg>
