<?xml version="1.0" encoding="utf-8"?>
<!-- Generator: Adobe Illustrator 24.0.2, SVG Export Plug-In . SVG Version: 6.00 Build 0)  -->
<svg version="1.1" id="Слой_1" xmlns="http://www.w3.org/2000/svg" xmlns:xlink="http://www.w3.org/1999/xlink" x="0px" y="0px"
	 viewBox="0 0 238.1 150.2" style="enable-background:new 0 0 238.1 150.2;" xml:space="preserve">
<g>
	<path d="M208.1,75c-0.1,3.4-0.3,6.8-0.7,10.2c-0.5,3.5-1.2,6.9-2.1,10.2c-1.9,6.7-4.7,13.1-8.6,18.9c-3.5,5.2-7.7,9.7-12.9,13.4
		c-3.4,2.4-7.2,4.3-11.2,5.6c-4,1.2-8,1.8-12.2,1.7c-5.3-0.2-10.4-1.5-15.2-3.9c-5.3-2.6-9.9-6.3-13.8-10.7
		c-3.5-3.9-6.3-8.3-8.7-12.9c-1.4-2.9-2.7-5.9-3.7-9c-0.7-2.4-1.4-4.8-2-7.2c-1.2-5.6-1.8-11.3-1.7-17c0.1-3,0.3-5.9,0.6-8.9
		c0.4-3.4,1.1-6.8,2-10.2c1.4-5,3.2-9.9,5.7-14.5c3.2-6,7.2-11.3,12.3-15.7c3.6-3.1,7.5-5.6,11.9-7.4c2.2-0.9,4.4-1.6,6.8-2
		c3.6-0.7,7.1-0.9,10.8-0.5c2.2,0.2,4.3,0.6,6.4,1.2c4.1,1.2,7.9,3,11.4,5.4c4.3,3,8.1,6.6,11.3,10.7c3.5,4.5,6.3,9.5,8.4,14.8
		c1.3,3.1,2.3,6.3,3.1,9.6c0.5,2.1,0.9,4.2,1.2,6.4C207.9,67.1,208,71,208.1,75z M183.6,93.3c0.1-1.8-0.2-3.8-0.8-5.8
		c-0.9-3-2.4-5.8-4.5-8.2c-1.8-2-3.9-3.6-6.2-5c-0.1-0.1-0.3,0-0.5,0c0,0.2,0,0.4,0.1,0.5c0.2,0.2,0.5,0.4,0.7,0.6
		c3.1,2.8,5,6.3,5.6,10.5c0.4,2.8,0.1,5.6-0.9,8.2c-2.6,6.4-7.3,10.2-14.2,10.8c-2.6,0.2-5-0.2-7.4-1.3c-7.3-3.3-11.3-11.1-9.6-19.2
		c0.8-3.6,2.6-6.6,5.3-9.1c0.2-0.2,0.4-0.3,0.5-0.5c0.1-0.1,0.1-0.3,0.1-0.5c-0.2,0-0.3-0.1-0.5,0c-1.7,0.9-3.2,2.1-4.6,3.4
		c-3.7,3.7-5.9,8.1-6.5,13.3c-0.3,2.6-0.1,5.1,0.5,7.5c0.6,2.4,1.6,4.7,3,6.7c3.4,5.1,8.2,8.2,14.1,9.4c3.5,0.7,6.9,0.5,10.3-0.6
		C177.4,111.5,183.6,103,183.6,93.3z M167.4,69.1c0,0,0,0.1,0,0.1c1,0,2.1,0,3.1,0c0.2,0,0.4-0.1,0.5-0.2c0,0-0.1-0.3-0.1-0.4
		c-0.1-0.1-0.2-0.1-0.3-0.2c-1.6-1.1-3.2-2.3-4.8-3.4c-0.3-0.2-0.5-0.5-0.3-0.9c0.4-1.1,0.8-2.2,1.1-3.3c0.3-0.8,0.6-1.6,0.8-2.4
		c0.1-0.2-0.1-0.4-0.1-0.6c-0.2,0-0.4,0-0.5,0.1c-1.5,1.1-2.9,2.2-4.4,3.2c-1.1,0.8-0.7,0.9-1.9,0c-1.4-1.1-2.9-2.1-4.3-3.2
		c-0.2-0.1-0.4-0.1-0.6-0.2c0,0.2-0.1,0.5,0,0.6c0.6,1.9,1.2,3.7,1.8,5.6c0.2,0.5,0.1,0.8-0.3,1c-1.6,1.1-3.2,2.3-4.8,3.4
		c-0.2,0.1-0.2,0.4-0.3,0.5c0.2,0.1,0.4,0.2,0.6,0.2c2,0,4.1,0,6.1,0c0.3,0,0.5,0.1,0.6,0.4c0.4,1.2,0.8,2.5,1.1,3.7
		c0.2,0.8,0.5,1.5,0.7,2.3c0,0.1,0.2,0.2,0.3,0.4c0.1-0.1,0.3-0.2,0.4-0.4c0.1-0.1,0.1-0.2,0.1-0.3c0.6-1.9,1.2-3.8,1.8-5.6
		c0.1-0.4,0.3-0.5,0.7-0.5C165.4,69.2,166.4,69.1,167.4,69.1z M179.5,27.2c0,0,0.1,0.1,0.1,0.1c-0.1,0.3-0.3,0.5-0.4,0.8
		c-1,1.7-2,3.3-3,5c-0.4,0.7-0.6,0.7,0.3,1.2c0.2,0.1,0.4,0.2,0.6,0.4c0.4,0.3,0.6,0.1,0.8-0.2c0.7-1.2,1.3-2.3,2-3.5
		c0.9-1.6,1.9-3.2,2.8-4.8c0.3-0.6,0.3-0.6-0.3-1c-0.6-0.3-1.2-0.6-1.7-1c-0.4-0.3-0.7-0.2-1.1,0.1c-1.2,1.2-2.5,2.5-3.7,3.7
		c-0.3,0.3-0.6,0.6-1,1c0-0.2,0-0.3,0.1-0.4c0.6-2,1.1-4.1,1.7-6.1c0.1-0.4,0.1-0.6-0.3-0.8c-0.7-0.4-1.4-0.8-2.1-1.2
		c-0.3-0.2-0.5-0.1-0.7,0.2c-0.4,0.8-0.9,1.6-1.4,2.3c-1.2,2.1-2.4,4.1-3.6,6.2c-0.2,0.3-0.2,0.6,0.2,0.7c0.3,0.2,0.6,0.3,0.9,0.5
		c0.4,0.3,0.6,0.2,0.8-0.2c0.8-1.4,1.6-2.8,2.4-4.2c0.4-0.6,0.8-1.3,1.1-1.9c-0.3,1.4-0.7,2.8-1.1,4.2c-0.3,0.9-0.5,1.9-0.8,2.8
		c-0.1,0.4-0.1,0.8,0.4,1c0.3,0.1,0.6,0.3,0.9,0.5c0.3,0.2,0.6,0.2,0.8-0.1c0.8-0.8,1.6-1.7,2.4-2.5C177.7,29,178.6,28.1,179.5,27.2
		z M125.7,66.6c-0.1-0.2-0.1-0.3-0.1-0.4c-0.3-1.4-1-2.2-2.4-2.5c-1.5-0.3-3,0.5-3.4,2c-0.3,1-0.4,2.1-0.5,3.1c-0.1,1-0.2,2-0.3,3
		c0,0.3,0,0.5,0.4,0.5c3.4,0.3,6.7,0.6,10.1,0.9c0.3,0,0.4-0.1,0.5-0.4c0-0.4,0.1-0.9,0.1-1.3c0.1-0.5-0.1-0.6-0.6-0.6
		c-1.2-0.1-2.4-0.2-3.5-0.3c-0.1,0-0.4-0.2-0.4-0.3c0-0.8,0.2-1.5,1-1.9c1.2-0.6,2.3-1.3,3.5-1.9c0.3-0.2,0.5-0.4,0.5-0.7
		c0-0.5,0.1-1,0.1-1.6c0-0.6-0.1-0.6-0.6-0.4C128.7,64.6,127,65.2,125.7,66.6z M196.2,57.4c0.1,0.2,0.2,0.3,0.2,0.4
		c1,1.6,3,2,4.5,0.9c1.2-0.9,1.3-2.1,1-3.4c-0.4-1.6-0.9-3.2-1.4-4.9c-0.2-0.7-0.2-0.7-0.9-0.5c-1.7,0.5-3.4,1-5.1,1.4
		c-1.5,0.4-2.9,0.9-4.4,1.3c-0.4,0.1-0.4,0.3-0.3,0.6c0.1,0.4,0.2,0.7,0.3,1.1c0.2,0.6,0.2,0.6,0.9,0.4c1.1-0.3,2.2-0.6,3.3-0.9
		c0.2-0.1,0.4-0.1,0.5,0.2c0.3,0.8,0.3,1.5-0.3,2.2c-0.8,1-1.7,2-2.5,3c-0.2,0.3-0.3,0.5-0.2,0.8c0.2,0.5,0.3,1.1,0.5,1.6
		c0.1,0.4,0.2,0.5,0.5,0.1C194.1,60.3,195.6,59.2,196.2,57.4z M125.2,59.1c-0.3-0.1-0.4-0.1-0.5-0.1c-1.2-0.3-2.4-0.6-3.6-0.9
		c-0.3-0.1-0.5,0.1-0.6,0.4c-0.1,0.4-0.2,0.8-0.3,1.3c-0.1,0.4,0,0.5,0.4,0.6c1.4,0.3,2.8,0.7,4.3,1.1c1.8,0.5,3.6,0.9,5.5,1.3
		c0.2,0,0.5-0.1,0.5-0.2c0.2-0.5,0.3-1,0.4-1.5c0.1-0.3,0-0.5-0.3-0.5c-0.4-0.1-0.8-0.2-1.3-0.3c-1-0.2-1.9-0.5-2.3-1.6
		c-0.1-0.1-0.2-0.3-0.3-0.4c-0.2-0.3-0.1-0.5,0.3-0.6c1.6-0.4,3.1-0.9,4.7-1.3c0.3-0.1,0.5-0.2,0.6-0.6c0.1-0.6,0.3-1.2,0.5-1.9
		c0-0.1,0-0.3,0-0.4c-0.1,0-0.3,0-0.4,0c-2.2,0.7-4.4,1.4-6.6,2.2c-0.4,0.1-0.6,0-0.8-0.3c-0.8-1.3-1.6-2.6-2.5-3.9
		c-0.1-0.2-0.2-0.3-0.4-0.5c-0.2,0.8-0.4,1.6-0.6,2.3c-0.1,0.4,0,0.7,0.2,1.1c0.9,1.3,1.8,2.7,2.7,4.1
		C124.9,58.6,125,58.8,125.2,59.1z M137.5,27.4c-0.1,0.1-0.3,0.2-0.4,0.4c-1.6,1.7-3.2,3.4-4.8,5.1c-0.3,0.3-0.2,0.5,0.1,0.8
		c2.4,2.2,4.9,4.4,7.3,6.6c0.3,0.3,0.6,0.3,0.9,0c1.4-1.6,2.9-3.1,4.3-4.7c1.1-1.2,1.1-0.8-0.1-2c-0.3-0.3-0.5-0.2-0.8,0.1
		c-1.1,1.2-2.3,2.4-3.4,3.7c-0.3,0.3-0.4,0.3-0.7,0c-0.4-0.4-0.9-0.8-1.3-1.2c-0.3-0.3-0.3-0.4,0-0.7c1-1,2-2.1,3-3.2
		c0.3-0.3,0.3-0.5,0-0.8c-0.2-0.2-0.4-0.3-0.6-0.5c-0.3-0.3-0.5-0.3-0.8,0c-1,1.1-2,2.1-3,3.2c-0.2,0.3-0.4,0.3-0.7,0
		c-0.3-0.3-0.6-0.6-1-0.9c-0.3-0.2-0.3-0.4,0-0.7c1-1,1.9-2,2.8-3c1-1,0.9-0.8-0.1-1.7C137.9,27.7,137.7,27.6,137.5,27.4z
		 M197.2,83.3C197.2,83.3,197.2,83.3,197.2,83.3c0,0.3,0,0.6-0.1,0.9c0,0.3,0.1,0.5,0.4,0.5c0.4,0,0.7,0,1,0.1
		c0.3,0,0.5-0.1,0.5-0.4c0-0.5,0.1-0.9,0.1-1.4c0.1-1,0.2-2.1,0.3-3.1c0-0.4,0.2-0.5,0.6-0.4c0.3,0.1,0.7,0.1,1,0.1
		c0.7,0,0.8,0.1,0.7,0.8c-0.1,1.3-0.3,2.5-0.3,3.8c-0.1,1.2-0.1,1.2,1.1,1.3c0.6,0.1,0.7,0,0.8-0.6c0.2-2.2,0.4-4.5,0.6-6.7
		c0-0.5-0.1-0.7-0.6-0.7c-1.4-0.1-2.8-0.2-4.2-0.4c-1.8-0.2-3.7-0.3-5.5-0.5c-0.5,0-0.6,0.1-0.7,0.6c-0.1,1.6-0.3,3.3-0.5,4.9
		c-0.1,0.7-0.1,1.5-0.2,2.2c-0.1,0.5,0.1,0.6,0.6,0.6c0.3,0,0.6,0,1,0c0.3,0,0.4-0.1,0.4-0.4c0.1-0.8,0.1-1.7,0.2-2.5
		c0.1-0.9,0.2-1.7,0.2-2.6c0-0.4,0.2-0.5,0.6-0.5c0.6,0.1,1.2,0.1,1.8,0.1c0.4,0,0.6,0.2,0.5,0.6C197.4,81,197.3,82.2,197.2,83.3z
		 M183.8,34.2c0.1,0.1,0.2,0.2,0.3,0.3c0.7,0.8,1.3,1.6,2.1,2.4c0.3,0.3,0.3,0.5-0.1,0.8c-0.9,0.8-1.9,1.5-2.8,2.3
		c-0.3,0.2-0.4,0.4-0.1,0.7c0.3,0.3,0.6,0.7,0.9,1.1c0.2,0.2,0.4,0.2,0.6,0c0.5-0.5,1.1-0.9,1.7-1.4c2-1.7,4-3.3,6.1-5
		c0.3-0.3,0.3-0.5,0.1-0.8c-0.3-0.3-0.6-0.6-0.8-0.9c-0.2-0.3-0.4-0.3-0.7-0.1c-0.9,0.7-1.7,1.4-2.6,2.1c-0.3,0.2-0.4,0.2-0.6-0.1
		c-0.7-0.8-1.3-1.6-2-2.4c-0.3-0.3-0.2-0.5,0.1-0.8c0.8-0.7,1.6-1.4,2.5-2c0.3-0.2,0.3-0.4,0.1-0.7c-0.3-0.3-0.6-0.7-0.9-1.1
		c-0.2-0.3-0.4-0.2-0.6,0c-0.8,0.7-1.6,1.3-2.4,2c-1.8,1.4-3.5,2.9-5.3,4.3c-0.3,0.2-0.3,0.4-0.1,0.7c0.3,0.3,0.6,0.6,0.8,0.9
		c0.2,0.3,0.5,0.4,0.8,0.1c0.9-0.8,1.9-1.6,2.8-2.3C183.6,34.4,183.7,34.3,183.8,34.2z M163.7,29.3
		C163.7,29.3,163.7,29.3,163.7,29.3c0.4-0.1,0.8-0.1,1.2-0.1c1.4-0.2,2.6-1.2,2.8-2.6c0.3-2.5,0.5-5,0.8-7.6c0-0.3-0.1-0.5-0.5-0.5
		c-0.4,0-0.9,0-1.3-0.1c-0.4-0.1-0.6,0.1-0.6,0.6c-0.2,2.2-0.4,4.4-0.6,6.6c-0.1,0.9-0.5,1.5-1.2,1.6c-0.6,0.1-1.3,0-1.9-0.2
		c-0.7-0.2-1-0.8-1-1.5c0-0.5,0-1,0.1-1.5c0.1-1.8,0.3-3.7,0.5-5.5c0-0.3-0.1-0.5-0.4-0.5c-0.4,0-0.9-0.1-1.3-0.1
		c-0.6,0-0.6,0-0.6,0.5c-0.1,1.2-0.2,2.4-0.3,3.6c-0.1,1.2-0.2,2.4-0.2,3.6c0,1.7,0.9,2.8,2.5,3.3C162.3,29.1,163,29.2,163.7,29.3z
		 M125.4,75.6c-2,0.1-3.8,0.3-5.7,0.4c-0.4,0-0.6,0.2-0.5,0.6c0.1,0.4,0.1,0.8,0.1,1.2c0,0.4,0.2,0.5,0.5,0.5c0.7,0,1.5-0.1,2.2-0.1
		c1.7-0.1,3.3-0.2,5-0.3c0.8,0,1.5,0.5,1.6,1.3c0.1,0.4,0.1,0.8,0,1.2c-0.1,0.7-0.6,1.2-1.2,1.4c-0.4,0.1-0.8,0.1-1.2,0.2
		c-2,0.1-4,0.3-6,0.4c-0.4,0-0.6,0.2-0.5,0.6c0,0.4,0.1,0.9,0.1,1.3c0,0.4,0.2,0.5,0.6,0.4c2.3-0.2,4.6-0.3,6.9-0.5
		c1.7-0.1,2.9-1,3.3-2.5c0.3-1.3,0.3-2.6-0.2-3.9c-0.5-1.3-1.5-2-2.9-2.1C126.6,75.6,125.9,75.6,125.4,75.6z M186.6,44.6
		c0.2,1.4,0.8,2.7,1.7,3.8c0.9,1,2,1.4,3.3,1c0.6-0.2,1.1-0.4,1.7-0.7c1.9-0.9,3.7-1.8,5.6-2.7c0.3-0.2,0.4-0.4,0.2-0.7
		c-0.2-0.3-0.3-0.6-0.5-0.9c-0.3-0.6-0.4-0.7-1-0.3c-1.8,0.9-3.6,1.8-5.5,2.7c-0.5,0.3-1.1,0.6-1.8,0.4c-0.9-0.3-1.3-1.1-1.5-1.9
		c-0.1-0.8,0.2-1.5,1-1.8c0.2-0.1,0.3-0.2,0.5-0.3c1.8-0.9,3.7-1.9,5.6-2.8c0.4-0.2,0.5-0.4,0.3-0.7c-0.2-0.4-0.4-0.8-0.6-1.1
		c-0.1-0.3-0.3-0.4-0.6-0.2c-0.9,0.5-1.9,0.9-2.8,1.4c-1.4,0.7-2.8,1.5-4.1,2.3C187,42.4,186.7,43.4,186.6,44.6z M152.3,19.5
		c-0.5,0.1-1.1,0.2-1.6,0.3c-2,0.7-3.3,2-3.5,4.2c-0.1,1.1,0.2,2.1,0.5,3c1.2,3.3,4.3,4.6,7.3,3.1c1.7-0.8,2.4-2.2,2.4-4
		c0-0.4-0.2-0.6-0.6-0.6c-0.3,0-0.6,0-0.9,0.1c-0.9,0-0.8,0-0.9,0.9c-0.1,0.9-0.4,1.6-1.3,2c-0.9,0.4-1.8,0.3-2.6-0.3
		c-0.9-0.8-1.3-1.8-1.6-2.9c-0.1-0.6-0.2-1.2-0.1-1.8c0.4-1.7,2.9-2.6,4.1-1.1c0.2,0.2,0.4,0.2,0.6,0.1c0.4-0.3,0.8-0.5,1.2-0.8
		c0.4-0.2,0.4-0.4,0.1-0.8C154.6,20,153.6,19.5,152.3,19.5z M125.5,44.7c0,0.1,0.1,0.1,0.1,0.2c0.2,0,0.4,0,0.6,0
		c2.1-0.1,4.1-0.2,6.2-0.3c0.3,0,0.7,0.1,1,0.2c1.1,0.5,2.1,1.1,3.1,1.7c0.3,0.2,0.5,0.2,0.7-0.2c0.2-0.4,0.4-0.7,0.6-1.1
		c0.2-0.4,0.1-0.6-0.2-0.7c-1-0.6-2.1-1.1-3.1-1.7c-0.3-0.2-0.6-0.4-0.7-0.7c-1-1.8-2-3.7-3.1-5.5c-0.1-0.1-0.2-0.2-0.3-0.4
		c-0.3,0.6-0.6,1.1-0.9,1.5c-0.3,0.5-0.3,0.9,0,1.3c0.6,0.9,1.2,1.9,1.8,2.9c0.1,0.2,0.2,0.3,0.3,0.6c-0.3,0-0.5,0.1-0.7,0.1
		c-1.2,0-2.4,0.1-3.6,0.1c-0.2,0-0.5,0-0.6,0.2C126.2,43.3,125.9,44,125.5,44.7z M199.6,70.8c0.2-0.2,0.4-0.3,0.6-0.4
		c1-0.7,2-1.3,3-2c0.3-0.2,0.5-0.4,0.4-0.8c-0.1-0.5,0-1-0.1-1.5c0-0.2-0.1-0.3-0.2-0.5c-0.1,0.1-0.3,0.1-0.4,0.2
		c-1.7,1.2-3.4,2.4-5.1,3.6c-0.3,0.2-0.7,0.4-1.1,0.4c-1.1,0.1-2.2,0.1-3.3,0.2c-0.6,0-0.7,0.1-0.6,0.7c0,0.3,0.1,0.7,0.1,1
		c0,0.4,0.2,0.6,0.6,0.5c1.2-0.1,2.4-0.2,3.5-0.2c0.3,0,0.6,0,0.9,0.2c1.8,0.9,3.5,1.9,5.3,2.9c0.3,0.2,0.6,0.2,0.9,0.4
		c0-0.3,0-0.6,0-0.9c0.2-1.2-0.4-1.8-1.5-2.2C201.6,71.8,200.7,71.3,199.6,70.8z M132.3,90.7c-0.2-0.6-0.3-1.2-0.4-1.7
		c0-0.1-0.3-0.3-0.5-0.2c-1.1,0.2-2.3,0.5-3.4,0.8c-1.5,0.3-3,0.7-4.5,1c-0.3,0.1-0.6,0.1-0.7-0.3c-0.1-0.5-0.3-1.1-0.4-1.6
		c-0.3-1.3-0.2-1.1-1.4-0.8c-0.8,0.2-0.8,0.2-0.6,1c0.6,2.4,1.1,4.8,1.7,7.2c0.1,0.3,0.3,0.4,0.5,0.4c0.3-0.1,0.6-0.1,0.9-0.2
		c0.5-0.1,0.6-0.2,0.5-0.8c-0.2-0.7-0.3-1.4-0.5-2.1c-0.1-0.3,0.1-0.4,0.3-0.5c0.9-0.2,1.8-0.4,2.7-0.6c1.7-0.4,3.5-0.8,5.2-1.2
		C132.1,91,132.2,90.8,132.3,90.7z M202.8,88.2c-0.1-0.1-0.2-0.2-0.3-0.3c-0.3-0.1-0.7-0.2-1-0.3c-0.4-0.1-0.6,0-0.6,0.4
		c-0.2,0.7-0.4,1.4-0.5,2.2c-0.1,0.4-0.3,0.4-0.5,0.3c-1.5-0.3-2.9-0.7-4.4-1c-1.1-0.3-2.3-0.5-3.4-0.8c-0.3-0.1-0.6-0.2-0.7,0.2
		c-0.1,0.5-0.2,1-0.4,1.4c-0.1,0.3,0,0.4,0.3,0.5c0.2,0,0.3,0.1,0.5,0.1c2.5,0.6,5.1,1.2,7.6,1.8c0.3,0.1,0.4,0.2,0.3,0.5
		c-0.2,0.8-0.4,1.5-0.5,2.3c-0.1,0.3,0,0.5,0.3,0.5c0.4,0.1,0.8,0.2,1.2,0.3c0.1,0,0.3-0.1,0.4-0.3c0.1-0.1,0.1-0.3,0.1-0.5
		c0.4-1.8,0.9-3.6,1.3-5.4C202.5,89.5,202.7,88.9,202.8,88.2z M124.6,47.1c-0.1,0.1-0.2,0.2-0.3,0.3c-0.2,0.4-0.4,0.9-0.5,1.3
		c-0.1,0.3,0,0.5,0.3,0.6c3.1,1.2,6.3,2.4,9.4,3.5c0.3,0.1,0.5,0,0.6-0.3c0.1-0.4,0.3-0.8,0.5-1.2c0.2-0.4,0.1-0.6-0.3-0.7
		c-2.7-1-5.5-2-8.2-3.1C125.6,47.5,125.1,47.3,124.6,47.1z M191.9,63.4c0.1,0.4,0.2,0.8,0.2,1.2c0.1,0.6,0.1,0.6,0.7,0.5
		c2-0.3,4.1-0.7,6.1-1c1.2-0.2,2.4-0.4,3.6-0.6c0.4-0.1,0.5-0.3,0.5-0.7c-0.1-0.3-0.1-0.6-0.2-0.9c-0.1-0.8-0.2-0.8-1-0.7
		c-1.3,0.2-2.7,0.5-4,0.7c-1.9,0.3-3.7,0.6-5.6,0.9C191.9,62.9,191.8,63.1,191.9,63.4z M189.9,94.9c-0.1,0.1-0.2,0.2-0.3,0.3
		c-0.2,0.4-0.3,0.9-0.5,1.3c-0.1,0.4,0,0.5,0.3,0.7c1.6,0.5,3.2,1.1,4.8,1.6c1.5,0.5,3,1,4.5,1.6c0.6,0.2,0.6,0.2,0.8-0.4
		c0.1-0.3,0.2-0.6,0.3-0.9c0.2-0.6,0.2-0.7-0.4-0.9c-2.7-0.9-5.4-1.9-8.1-2.8C190.9,95.3,190.4,95.1,189.9,94.9z M205.6,62.6
		c-0.1-0.6-0.2-1-0.3-1.5c0-0.1-0.3-0.3-0.4-0.3c-0.4,0-0.9,0.1-1.3,0.2c-0.1,0-0.3,0.3-0.3,0.5c0,0.4,0.1,0.8,0.2,1.3
		c0,0.3,0.2,0.4,0.5,0.4c0.4-0.1,0.9-0.1,1.3-0.2C205.4,62.9,205.5,62.7,205.6,62.6z M123.9,47.1c-0.1-0.1-0.2-0.3-0.3-0.3
		c-0.4-0.2-0.8-0.4-1.3-0.5c-0.1,0-0.4,0.1-0.4,0.2c-0.2,0.4-0.4,0.8-0.5,1.3c0,0.1,0.1,0.4,0.2,0.5c0.4,0.2,0.8,0.3,1.2,0.5
		c0.1,0,0.4,0,0.4-0.1C123.5,48.2,123.7,47.7,123.9,47.1z M200.7,98.7c-0.1,0.1-0.2,0.2-0.3,0.3c-0.2,0.4-0.3,0.8-0.4,1.3
		c0,0.1,0.1,0.4,0.2,0.5c0.4,0.2,0.9,0.3,1.3,0.5c0.1,0,0.4-0.1,0.4-0.2c0.2-0.4,0.4-0.9,0.5-1.4c0-0.1-0.1-0.4-0.2-0.4
		C201.8,99.1,201.3,98.9,200.7,98.7z M117.8,79.8c1.1-0.1,1.1-0.1,0.9-1.1c0-0.2,0-0.4-0.1-0.5c-0.1-0.1-0.2-0.3-0.3-0.3
		c-0.5,0-1,0-1.4,0.2c-0.2,0.1,0,0.7,0,1.1c0,0,0,0,0,0c0,0.6,0.1,0.6,0.6,0.6C117.6,79.8,117.7,79.8,117.8,79.8z M117.1,82
		C117.1,82,117.1,82,117.1,82c0,0.1,0,0.3,0,0.4c0,0.5,0.2,0.6,0.6,0.6c0.3,0,0.5-0.1,0.8-0.1c0.4,0,0.6-0.2,0.5-0.6
		c-0.1-1.5,0-1.3-1.4-1.2c-0.4,0-0.7,0.2-0.6,0.6C117.1,81.8,117.1,81.9,117.1,82z"/>
	<path d="M124,68c-0.1,0.6-0.1,1.3-0.2,2c0,0.3-0.1,0.4-0.4,0.3c-0.6-0.1-1.3-0.1-1.9-0.2c-0.1,0-0.3-0.2-0.3-0.3
		c0.1-0.9,0.1-1.8,0.2-2.7c0.1-0.8,0.7-1.2,1.4-1.1c0.7,0.1,1.1,0.5,1.1,1.3C124,67.6,124,67.8,124,68z"/>
	<path d="M198.5,56.9c-0.3,0-0.7-0.2-0.8-0.7c-0.3-0.9-0.6-1.8-0.9-2.8c0-0.1,0.1-0.4,0.2-0.4c0.6-0.2,1.2-0.4,1.8-0.5
		c0.3-0.1,0.5,0,0.6,0.3c0.2,0.8,0.4,1.6,0.7,2.4C200.2,56.2,199.7,56.9,198.5,56.9z"/>
</g>
</svg>
