<?xml version="1.0" encoding="utf-8"?>
<!-- Generator: Adobe Illustrator 24.0.2, SVG Export Plug-In . SVG Version: 6.00 Build 0)  -->
<svg version="1.1" id="Слой_1" xmlns="http://www.w3.org/2000/svg" xmlns:xlink="http://www.w3.org/1999/xlink" x="0px" y="0px"
	 viewBox="0 0 238.1 150.2" style="enable-background:new 0 0 238.1 150.2;" xml:space="preserve">
<g>
	<path d="M183.8,59c-0.6-0.8-1.2-1.7-1.8-2.5c-1.1-1.6-2.2-3.2-3.4-4.7c-1.3-1.5-2.9-2.9-4.4-4.2c-1-0.9-2.1-1.7-3.3-2.5
		c-1.2-0.8-2.6-1.4-3.7-2.3c-1.2-1-2.6-1.2-4-1.8c-0.7-0.3-1.4-0.7-2.2-1c-0.8-0.3-1.7-0.4-2.9-0.7c1.3-0.3,2.4-0.5,3.5-0.8
		c-0.5,0.2-1.1,0.4-1.6,0.7c0,0.1,0,0.2,0,0.3c1.6,0.2,3.3,0.4,4.9,0.6c0-0.1,0-0.2,0-0.4c-0.4,0-0.8-0.1-1.2-0.1c0-0.1,0-0.1,0-0.2
		c0.8-0.2,1.6-0.3,2.4-0.5c0.1-0.9-0.4-1.2-1.1-1.1c-1.2,0.2-2.3,0.5-3.4,0.7c-0.5-0.5-1.1-1-1.6-1.5c-0.3-0.3-0.6-0.6-0.9-0.9
		c0.7,0.5,1.3,0.9,2,1.4c0.7,0.5,1.2,0.5,1.9-0.2c-0.4-0.3-1-0.7-1-0.7c0.4-0.8-0.3-0.7-0.6-0.8c-0.8-0.2-1.6-0.2-2.5-0.3
		c0.1,0.3,0.2,0.5,0.3,0.7c-0.6-0.3-1.2-0.6-1.8-1c0-0.1,0-0.1,0.1-0.2c1.5,0.2,2.9,0.3,4.4,0.5c0.1,0,0.3-0.2,0.4-0.3
		c1,1.5,2.4,2.1,4.3,2c-1.1-1.6-2.8-2.1-4.3-2.8c0,0.1,0,0.3-0.1,0.4c-0.3-0.4-0.6-0.8-0.9-1.2c0,0,0.1-0.1,0.1-0.1
		c1.7,0.8,3.3,1.7,5.1,2.6c-0.4-1.9-2.2-1.4-3.2-2.1c0.1-0.1,0.2-0.1,0.4-0.2c-1.7-0.3-3.4-0.7-5-1c0-0.1,0-0.2,0-0.3
		c0.6,0.1,1.3,0.1,1.9,0.2c1.7,0.3,3.5,0.9,5.6,0.2c-1-0.1-1.7-0.1-2.4-0.1c0-0.1,0-0.2,0-0.2c1-0.2,2-0.4,3-0.5
		c0-1.1-0.5-1.3-1.2-1.2c-0.9,0.2-1.8,0.4-2.7,0.7c-0.7,0.3-1.3,0.2-1.7-0.5c0.7-0.1,1.3-0.2,2-0.2c0-0.1,0-0.2,0-0.3
		c-0.6-0.3-1.1-0.7-2-1.2c0.6,0,0.9,0,1.2,0c0-0.1,0-0.3,0.1-0.4c-1.3-0.2-2.6-0.5-3.9-0.7c0,0.1,0,0.2,0,0.2
		c0.5,0.4,0.9,0.9,1.4,1.3c-0.9-0.5-1.7-1.1-2.6-1.6c0-0.1,0-0.2,0.1-0.3c1.5,0.2,3,0.4,4.5,0.6c0.1,0,0.3-0.2,0.5-0.3
		c1,1.6,2.4,2.5,4.4,2c-0.4-0.9-3.5-2.8-4.4-2.7c0,0-0.1,0.3-0.1,0.4c-0.3-0.4-0.6-0.8-0.8-1.2c1.7,0.7,3.5,1.5,5.2,2.2
		c0-0.3-0.1-0.5-0.1-0.8c1.7,1,3.3,2,5,2.9c0-0.4-0.1-0.7-0.1-0.9c1.5,1.1,2.9,2.2,4.5,3.3c0-0.4,0-0.6-0.1-0.9
		c1.4,1.2,2.7,2.4,4.1,3.6c0.1-0.4,0.2-0.7,0.3-1c-0.8-0.5-1.7-1-2.6-1.6c-0.9-0.5-1.7-1.1-2.5-1.7c-0.5-0.4-1-0.8-1.6-1.1
		c-0.7-0.3-1.4-0.4-2.1-0.6c-0.8-0.5-1.5-1.1-2.4-1.5c-0.9-0.4-1.8-0.5-2.7-0.8c-0.2-0.1-0.3-0.3-0.7-0.6c-0.8-0.2-1.9-0.4-3-0.6
		c-0.4-0.1-0.8,0.1-1.1,0.1c-0.1-0.1-0.2-0.2-0.5-0.6c0.9,0.2,1.3-0.3,2.2,0c1.5,0.6,3.2,1,4.8,0.1c-0.6,0-1.2,0-1.8,0
		c0-0.1,0-0.2,0-0.3c0.7-0.1,1.3-0.2,2-0.4c0.3-0.1,0.5-0.4,0.7-0.6c-0.3-0.2-0.6-0.7-0.9-0.7c-0.9,0.1-1.8,0.4-2.6,0.7
		c-0.7,0.3-1.1,0.3-1.6-0.3c-0.5-0.6-1.1-1.1-1.6-1.6c0.5,0.3,1,0.6,1.4,1c0.8,0.7,1.4,0.5,2.2-0.1c-0.7-0.4-1.3-0.8-1.9-1.2
		c0,0,0-0.1,0.1-0.1c0.4,0.1,0.7,0.1,1.1,0.2c-1.2-1.1-2.8-1.1-4.4-1.4c0.6,0.7,1.1,1.2,1.6,1.7c-1-0.7-1.9-1.4-2.9-2.1
		c0-0.1,0-0.1,0.1-0.2c1.7,0.3,3.4,0.7,5.1,1c0.2,0,0.4-0.2,0.6-0.3c1,1.5,2.5,1.9,4.2,2.1c-0.4-0.6-0.9-1-1.4-1.4
		c-0.7-0.5-1.5-0.9-2.2-1.3c1.2,0.5,2.4,1.1,3.7,1.6c-0.1-0.2-0.2-0.5-0.3-1c1.7,1.1,3.3,2,4.9,3.1c-0.1-0.3-0.1-0.7-0.2-1.1
		c1.5,1.1,2.9,2.2,4.4,3.3c0-0.3,0.1-0.6,0.1-0.9c1.3,1.2,2.6,2.3,4,3.5c0-0.3,0-0.6,0-0.7c1.2,1,2.5,2.1,3.7,3.2
		c0,0,0.1-0.3,0.1-0.6c1.1,1.4,2.2,2.7,3.4,4.1c0.1-0.3,0.1-0.6,0.2-0.9c1,1.5,2,2.9,3.1,4.4c0.1-0.4,0.1-0.6,0.2-1
		c0.9,1.6,1.8,3.1,2.7,4.6c0.1-0.3,0.1-0.6,0.2-1c0.8,1.7,1.5,3.2,2.4,4.8c0.1-0.4,0.2-0.6,0.3-1c0.6,1.7,1.3,3.2,1.9,4.9
		c0.2-0.2,0.3-0.4,0.4-0.6c0.1,0.3,0.2,0.6,0.4,0.8c0.1,0,0.2-0.1,0.3-0.1c-0.1-0.4-0.2-0.7-0.3-1.1c0.9-0.1,1.4,0.3,1.8,1.6
		c0.8,2.9,1.5,5.9,2.3,8.8c0.2,0.9,0.5,1.9,0.6,2.8c0.1,1,0.6,1.9,0,3c-0.3,0.5,0.1,1.5,0.2,2.3c0,0.2,0.1,0.3,0.1,0.5
		c-0.1,2.9-0.3,5.8-0.3,8.7c0,1.9-0.7,3.6-0.7,5.4c0,2.2-1,4-1.3,6.1c0.2-0.1,0.4-0.2,0.6-0.2c-0.4,1-0.7,1.9-1.1,2.8
		c0.1,0.1,0.2,0.1,0.3,0.2c0.3-0.6,0.6-1.3,0.9-1.9c0.8,0.5,1.1,1.5,0.5,2.7c-1.3,2.7-2.7,5.3-4.1,8c-0.6,1.1-1.2,2.1-1.7,3.2
		c-2.1,4.5-5.6,8.1-8.6,11.9c-0.1,0.1-0.3,0.4-0.4,0.4c-1.2-0.1-1.7,1.1-2.7,1.6c-0.1,0-0.2,0.1-0.2,0.1c-0.2,0.9-1.1,1.2-1.5,1.8
		c-0.9,1.3-2.2,2.6-2.3,4.3c0,0.1-0.1,0.3-0.3,0.1c-4.1,0.9-8.1,1.9-12.2,2.8c0,0.1,0,0.1,0,0.2c0.4,0.1,0.8,0.3,1.3,0.4
		c0,1.3,0,2.7,0,4.3c-0.5-0.2-0.9-0.3-1.3-0.5c0.2-0.1,0.7-0.2,0.7-0.4c0.1-0.8,0.1-1.6,0-2.4c0-0.2-0.2-0.5-0.4-0.6
		c-1.3-0.7-3.6-0.5-5,0.4c0.8,0.2,1.6,0.4,2.4,0.7c0.3,0.1,0.6,0.5,0.6,0.7c-0.1,0.9,0.3,1.3,1.1,1.5c-0.3,0-0.6-0.1-1-0.1
		c0,0.8-0.1,1.4-0.1,2.3c-0.6-0.2-1.1-0.3-1.6-0.5c0,0,0-0.1,0-0.1c0.3,0,0.6,0.1,0.9,0.1c0-0.1,0.1-0.2,0.1-0.3
		c0.1-3,0.1-3-2.8-3.8c-1.4-0.4-3.4-0.1-5,0.7c1.4,0.4,2.6,1,4,1.1c1.2,0.2,1.2,1,1.3,1.8c0.1,0.7-0.1,1.4-0.2,2.1
		c0,0.3-0.3,0.5-0.6,0.9c0-1.4,0-2.5,0-3.5c0-0.2-0.4-0.5-0.6-0.6c-1.7-0.5-3.3-1.2-5-1.4c-1.3-0.2-2.7,0.3-4.1,0.6
		c0,0.1,0,0.2,0,0.3c0.3,0.1,0.5,0.2,0.8,0.3c1.8,0.5,3.5,1.2,5.3,1.5c1.2,0.2,1.3,1,1.3,1.8c0.1,0.9-0.2,1.8-0.3,2.8
		c-0.4-0.1-0.7-0.1-1.1-0.2c-4.6-1.4-9.2-2.7-13.8-4.1c-0.5-0.1-1.1-0.2-1.6-0.1c-4.3,1-8.7,2.1-13,3.1c-0.3,0.1-0.6,0.1-1,0.1
		c0-0.7-0.1-1.3-0.1-2c-0.4,0-0.7,0-1,0c0.3-0.1,0.7-0.2,1.1-0.4c0-0.4,0.1-0.8,0-1.1c-0.2-1,0.3-1.4,1.3-1.6c1.4-0.3,2.8-0.6,4.1-1
		c0-0.1,0-0.2,0-0.3c-1-0.2-2-0.6-3-0.5c-1.5,0.2-3,0.7-4.5,1.1c-0.2,0.1-0.6,0.4-0.6,0.6c-0.1,1.1,0,2.2,0,3.3c0.4,0,0.6,0,0.9,0
		c-0.4,0.1-0.9,0.2-1.5,0.4c0-0.7-0.1-1.3-0.1-2c-0.7,0.1-1.4,0.2-2.1,0.3c0.7-0.2,1.3-0.4,2.1-0.6c0-0.8,0-1.6,0-2.4
		c1.6-0.4,3.1-0.8,4.6-1.2c-1-0.5-2-0.9-2.9-0.8c-1.2,0.1-2.4,0.5-3.5,0.9c-0.3,0.1-0.6,0.4-0.6,0.6c-0.1,1.1,0,2.2,0,3.3
		c0,0.1,0.3,0.2,0.4,0.2c-0.3,0.1-0.6,0.2-1.1,0.3c0-0.6,0.1-1.1,0-1.5c0-0.2-0.4-0.3-0.6-0.4c0.2-0.5,0.6-1,0.6-1.5
		c-0.1-1.1,0.3-1.6,1.4-1.7c0.4,0,0.8-0.2,1.2-0.3c0.4-0.1,0.8-0.2,1.2-0.3c-2-1.2-3.9-0.5-5.8,0c0,1.1,0,2.2,0,3.3
		c0,0.2,0.4,0.4,0.6,0.6c-0.3,0.1-0.7,0.2-1.3,0.3c0-1.6,0-3.1,0-4.5c0-0.2,0.4-0.4,0.6-0.5c0.5-0.2,1-0.2,1.6-0.6
		c-2-0.6-4-1.1-5.9-1.9c-2.1-0.9-4-0.1-6.1,0.1c-0.2-0.4-0.4-0.8-0.4-1.2c-0.1-1.6-1.6-2.5-2.3-3.7c-0.4-0.8-1.7-1.1-2.1-1.9
		c-0.9-1.5-2.8-1.4-3.7-3c-0.8-1.5-2-2.6-3-4c-1-1.3-2-2.7-3-4c-0.4-0.6-0.8-1.1-1.3-1.8c0.3-0.1,0.5-0.2,0.7-0.2
		c-1.9-3.6-3.8-7.2-5.7-10.8c-0.3-0.6-0.6-1.1-0.8-1.7c-0.2-0.6-0.4-1.4-0.2-1.8c0.6-1.1,0.1-1.8-0.3-2.7c-0.6-1.3-1.4-2.6-1.1-4.1
		c0.1-0.6,0.5-1.2,0.7-1.9c-0.3-0.3-0.7-0.8-1.1-1.3c0.1-0.1,0.1-0.2,0.2-0.2c0.3,0.1,0.7,0.3,1,0.4c0.8,0.3,1.4,0.2,2.1-0.4
		c0.6-0.5,1.6-0.6,2.4-0.9c0.1-0.8,0.1-1.8,0.4-2.7c0.3-0.9,0.9-1.7,1.6-2.7c0.7,1.7,1.4,3.1,1.9,4.4c1.2-0.1,2.4-0.2,3.6-0.2
		c1,0,1.6-0.2,1.7-1.3c0-0.9,0.3-1.9,0.4-2.8c0-0.9-0.5-1.5-1.2-2c-0.6-0.4-1-1.1-1.5-1.6c-0.6-0.5-1.2-0.9-1.9-1.2
		c-1-0.5-2.1-0.9-3.1-1.2c-0.6-0.2-1.3-0.4-1.8-0.2c-1.3,0.6-2.6,1.3-3.7,2.1c-1.2,0.8-1.2,1.2-0.2,2.8c-0.6,0-1,0-1.4-0.1
		c-0.7-0.2-1.1,0.1-1.3,0.7c-0.4,1.1-0.4,2.1-0.1,3.3c0.3,1.2,1.3,2,1.8,3.2c-2.3-1.1-3.3-2.9-2.6-5.2c0.3-1,0.8-1.9,1.3-2.8
		c0.1-0.1,0.2-0.2,0.3-0.4c0.1-3.6,3.1-4.6,5.4-6.1c0.1-0.1,0.2-0.1,0.4-0.2c-0.6-0.4-1.2-0.8-1.8-1.1c-1-0.5-1.2-1.1-0.9-2.1
		c1.3-4.3,2.4-8.7,3.6-13c0.1-0.4,0.2-0.8,0.5-1.1c0.3-0.3,0.8-0.5,1.3-0.7c-0.3,1.1,0.3,1.7,1,2.3c2.3,2.1,5.2,3,7.9,4.4
		c0.2,0.1,0.7,0,0.9-0.2c0.7-0.8,1.3-1.6,2-2.4c0-0.1-0.1-0.2-0.1-0.3c-0.8,0.2-1.6,0.4-2.3,0.7c-1.4,0.7-2.6,0.6-3.8-0.3
		c-1-0.8-2-1.5-2.9-2.4c-1.8-1.9-1.8-6.3,0.1-8.2c0.6-0.6,1.8-0.8,2.8-1c1.7-0.3,3.1,0.8,4.7,1.1c0.3,0,0.4,0.6,0.6,1
		c0.3,0.8,0.8,1.1,1.7,0.9c2-0.4,2.7,0.2,2.9,2.2c0.1,1.5-0.1,3-1.2,4.2c-1.4,1.7-2.6,3.5-4,5.2c0.1,0.1,0.1,0.2,0.2,0.3
		c0.3-0.1,0.7-0.2,0.8-0.4c1.2-1.7,2.4-3.4,3.6-5.2c0.3-0.4,0.6-0.8,0.8-1.2c2-3.2,0.3-6.5-3.5-6.6c-0.1,0-0.3,0-0.4-0.1
		c-1.2-0.7-2.5-1.4-3.7-2.2c-0.3-0.2-0.7-0.5-0.8-0.9c-0.2-0.6-0.3-1.3-0.1-1.8c0.1-0.3,0.9-0.4,1.4-0.4c0.9,0.1,1.9,0.3,2.8,0.5
		c0.3,0.1,0.4,0.5,0.7,0.7c0.3,0.3,0.7,0.6,1.2,0.7c-0.1-1.6,0.6-2.8,1.3-3.9c0.4-0.7,0.7-1.4,1.1-2c1.3-2,3.2-2,5.2-1.6
		c0.4,0.1,0.8,0,1.3,0c0.1,1.9,2.9,3.1,1.9,5.5c1,0.5,1.9,0.9,2.9,1.4c1.4-1.2,3.6-1.8,4.9-3.7c-1.7,0.3-3,0-4.1-1.4
		c1.3-0.1,2.6-0.3,3.7-0.4c0.6-1.1,1.1-2.1,1.7-3.2c0.1,0,0.2,0,0.4,0c0.2,0.9,0.3,1.8,0.5,2.8c0.8,0.1,1.9,0.3,3.2,0.5
		c-1.1,0.4-2.1,0.9-3.1,1.1c-1,0.2-1.6,0.7-1.9,1.9c2-1.2,3.9-2.2,5.7-3.3c0.2-0.1,0.3-0.4,0.3-0.7c0.4-1.6,1.1-2.1,2.7-2.4
		c0.5-0.1,1-0.1,1.4-0.2c0.4-0.1,0.8-0.2,1.2-0.3c0.1,0.1,0.1,0.2,0.2,0.3c-0.6,0.4-1.2,0.9-1.8,1.3c0,0.1,0.1,0.2,0.1,0.3
		c0.6,0.1,1.2,0.3,2.2,0.5c-1,0.6-1.8,1.1-2.6,1.6c1.1,0.8,2.8,0.4,3.5,2c-0.3-0.1-0.6-0.2-0.8-0.1c-2,0.9-3.8,0.2-5.7-0.5
		c-0.8-0.3-2.1-0.1-2.9,0.4c-3.1,1.6-6.1,3.5-9.1,5.2c-0.2,0.1-0.4,0.3-0.6,0.4c0.1,0.1,0.2,0.3,0.3,0.4c0.4-0.1,0.8-0.2,1.1-0.4
		c2.4-1.5,4.7-3,7.2-4.4c1.6-0.9,3.4-0.9,5.2-0.6c0.6,0.1,1.1,0.9,1.6,1.5c0.2,0.3,0.4,0.6,0.5,1c0.4,1.7,1.2,3,3.4,2.6
		c0,0.1,0,0.2,0,0.3c-0.7,0.4-1.5,0.7-2,1c-0.5,1.2-1,2.3-1.5,3.3c-0.1,0-0.2-0.1-0.3-0.1c-0.3-0.7-0.6-1.4-1-2
		c-0.8-1.2-1.2-1.2-2,0c-0.1,0.1-0.2,0.2-0.2,0.2c-0.4-1-0.8-2-1.3-2.9c-0.7-1.4-0.6-1.7,0.6-2.5c0.2-0.1,0.4-0.2,0.5-0.4
		c-1-2.1-2.4-1.4-5.2,0.3c1.8,0.1,2.4,1.1,2.8,2.5c0.2,0.6,0.7,1.2,1.2,2c-1.5-0.5-2.9-0.8-3.4-2.5c-0.1-0.3-0.5-0.8-0.8-0.8
		c-0.8-0.1-1.8-0.3-2.4,0.1c-1.5,0.9-2.8,2-4.1,3c0.1,0.1,0.2,0.3,0.3,0.4c0.7-0.4,1.3-0.8,2-1.2c0.4-0.2,0.8-0.5,1.2-0.5
		c1.2-0.2,1.8,0.2,2,1.5c1.5-0.8,3-0.4,5,1.6c-1.2,0-2,0-2.9,0c-0.5,0-0.8,0-0.9,0.7c-0.1,0.6-0.4,1.2-0.6,1.8
		c-0.3,0.7-0.6,1.4-1,2.1c-0.6-0.9-1.2-1.9-1.9-3c-0.8,0.6-1.5,1.2-2.3,1.7c-0.8,0.5-0.7,1.4-0.4,2c0.3,0.6,0.9,1,1.5,1.4
		c0.3,0.2,0.9,0.2,1.1,0.5c0.5,0.5,0.9,0.9,1.7,0.7c0.3-0.1,0.6,0.3,0.9,0.5c0.4,0.3,0.8,0.6,1.4,1c0-0.7-0.1-1.1-0.1-1.6
		c0.3,0.1,0.6,0.2,0.9,0.3c1.1,0.4,1.6,0,1.7-1.2c0-0.4,0.3-0.9,0.5-1.3c0.3-0.4,0.7-0.7,1-1.2c0.9-1.2,0.8-1.8-0.4-2.7
		c-0.5-0.4-0.9-0.8-1.2-1.3c0.5,0.2,1.1,0.3,1.6,0.5c0.9,0.4,1.2,2.1,0.6,3.3c-0.2,0.4-0.6,0.8-0.8,1.2c-0.3,0.7-0.6,1.3-0.8,2
		c-0.3,1.8-2.7,2.9-4.2,1.9c-0.5-0.4-0.9-0.6-1.6-0.3c-0.4,0.2-1.1-0.1-1.6-0.4c-0.8-0.3-1.5-0.8-2.3-1.2c-0.3-0.1-0.6-0.4-0.8-0.4
		c-1.3,0.3-2.7,0.7-3.8,1c0,1.8,0,3.6,0,5.6c-0.8-0.6-1.3-1.4-1.9-1.5c-1-0.2-1.7-0.6-1.8-1.4c-1.3,0.6-2.7,1.2-4,1.9
		c-0.1-0.1-0.2-0.2-0.3-0.3c0.6-1.1,1.2-2.2,1.8-3.2c0.6-0.4,1.1-1.1,1.8-1.1c1-0.1,1.2-0.7,1.3-1.5c-1.4,0-2.7,1.2-3,2.7
		c-0.9,1.2-1.8,2.4-2.8,3.7c1.3,0.8,2.4,1.5,3.6,2.2c1,0.6,1.3,1.3,1.1,2.4c-0.3,1.5-0.7,3.1-1,4.6c-0.6,3-1.2,6-1.8,9.1
		c-3.1-1.6-6.3-3.2-9.6-4.8c1,1.9,1.9,3.5,2.9,5.2c0.3-0.2,0.7-0.4,1.1-0.6c0.5-0.2,1-0.5,1.4-0.4c1.5,0.4,3.1,0.5,4.3,1.8
		c0.2,0.3,0.9,0.2,1.3,0.2c0-0.1,0.1-0.2,0.1-0.3c6.3,4.8,12.6,9.5,19,14.4c0.3-0.4,0.6-0.8,0.9-1.2c-6.5-7-13-14-19.4-21
		c0.1-0.1,0.2-0.2,0.2-0.3c0.3,0.2,0.6,0.3,0.8,0.5c3.1,3.4,6.2,6.7,9.3,10.1c3.1,3.4,6.3,6.8,9.4,10.2c0.5-0.5,0.9-0.9,1.3-1.3
		c-0.3-0.4-0.5-0.7-0.7-1.1c-5.3-7.3-10.6-14.5-15.9-21.8c-0.3-0.3-0.3-0.8-0.5-1.1c-0.9-0.5-1.9-1.1-3.1-1.7c0.8-0.5,1.2-0.7,2-1.2
		c-0.3,1.1-0.3,1.8,0.7,2.1c1.4,0.5,3.7-0.5,4.6-1.7c0.7-1.1,1.6-2.2,2.5-3.2c0.8-0.9,0.8-2.5-0.1-3.3c-0.2-0.2-0.4-0.6-0.5-0.9
		c-0.2-0.4-0.3-0.9-0.4-1.4c-0.1-0.3,0-0.6,0-0.9c0.9,1.1,1.8,2.2,2.2,3.7c0.4,1.3,0.3,2.4-0.8,3.4c-0.5,0.5-0.9,1-1.4,1.5
		c-0.2,0.1-0.5,0.2-0.6,0.4c-0.9,1.9-2.6,2.6-4.4,3.1c0,0-0.1,0.1-0.1,0.2c5.7,7.8,11.3,15.6,17.1,23.4c0.6-0.5,1.1-0.9,1.7-1.3
		c-2.7-5-5.3-10-8-15.1c-0.5,0.2-0.9,0.3-1.5,0.6c0.9-1.7,0.3-2.8-1-3.7c0.3-0.2,0.5-0.3,0.7-0.4c-1.3-2.5-2.5-4.9-3.8-7.4
		c0.3,0.2,0.8,0.3,1,0.7c1.1,1.9,2.1,3.9,3.2,5.9c0.2,0.3,0.5,0.5,0.8,0.8c0.3-0.3,0.5-0.5,0.8-0.9c0.2-0.3,0.4-0.7,0.7-1.3
		c0.5,1.7,1.3,2.6,3.2,2.4c-1.4,1-1.8,2.2-1.1,3.9c-0.8-0.4-1.4-0.7-2-1c0.4,1.3,2.9,2.3,5.1,1.9c-0.6-1.6-1.2-3.2-1.8-4.8
		c-0.6-1.6-1.2-3.1-1.7-4.7c-0.6-1.5-1.1-3.1-1.7-4.6c-0.6-1.4-1.2-2.9-1.4-4.4c0.1,0,0.3-0.1,0.4-0.1c0.3,0.8,0.6,1.7,1,2.5
		c0.1,0.3,0.5,0.8,0.7,0.7c0.4-0.1,0.8-0.3,1.1-0.7c0.3-0.3,0.5-0.8,0.8-1.5c0.5,1.6,1.3,2.6,3.2,2.4c-1.4,1-1.8,2.2-1.2,3.7
		c-1.1,0-1.9-1.4-3-0.2c1.4,3.7,2.8,7.5,4.4,11.7c0.9-1.2,1.6-2.2,2.4-3.2c0.1,0,0.3,0.1,0.7,0.3c-1.6-6.8-3.2-13.4-4.9-20.1
		c0.1,0,0.3-0.1,0.4-0.1c0.1,0.3,0.3,0.6,0.4,0.9c1.5,6.1,3,12.1,4.4,18.2c0.6,2.3,1.8,3,4.4,2.5c-0.7-6.3-1.4-12.6-2.1-19
		c-0.1,0-0.2-0.1-0.3-0.1c-0.1,0.4-0.4,0.8-0.4,1.2c0,0.5,0.1,0.9,0.3,1.7c-1.4-1.2-2.7-1.2-3.9-0.1c0.1-2.4,0.1-2.4-1.2-3.9
		c0.7-0.1,1.5-0.1,2-0.5c0.5-0.4,0.7-1.1,1.1-1.8c0.7,0.7,0.6,2.4,2.3,1.9c-0.3-2.9-0.6-5.8-0.9-8.7c0.1,0,0.3-0.1,0.4-0.1
		c0.1,0.3,0.3,0.6,0.3,0.8c0.7,6.2,1.4,12.5,2,18.7c0.3,2.9,0.6,5.8,0.9,8.7c0,0.2,0.1,0.3,0.1,0.5c1.6-0.4,2.9-2,3-3.6
		c0-1.1,0-2.2,0-3.3c0-1.8-0.8-2.4-2.5-1.6c-0.2,0.1-0.4,0.2-0.6,0.3c-0.9-2.8,0.3-5.1,3-5.8c0.2-0.1,0.5-0.4,0.5-0.6
		c0-1.5,0-3,0-4.6c-0.6,0.2-1.1,0.4-1.8,0.7c0.6-1.6,0.5-2.8-1.4-3.7c0.7-0.1,0.9-0.2,1.2-0.2c1.5-0.3,1.9-0.8,1.9-2.4
		c0-2,0-4.1,0-6.1c0-0.4,0-0.7,0-1.1c0.1,0,0.3-0.1,0.4-0.1c0.1,0.3,0.2,0.6,0.3,0.9c0,1.9,0,3.7,0,5.6c0,2.2,0,3,3,3.4
		c-1.4,0.9-1.9,2.1-1.2,3.8c-0.7-0.3-1.2-0.5-1.8-0.8c0,1.6,0,3.1,0,4.6c0,0.2,0.3,0.6,0.6,0.6c1.9,0.2,3,1.6,3.2,3.7
		c0.1,0.7,0,1.4,0,2.2c-0.5-0.2-0.9-0.5-1.4-0.6c-1-0.3-1.8,0.2-1.8,1.2c-0.1,1.4-0.1,2.8,0,4.2c0.1,1.5,1.2,2.4,2.6,3.4
		c0.3-1.6,0.5-2.9,0.8-4.3c0.8-4.4,1.6-8.9,2.3-13.3c0.1-0.7-0.2-1.4-0.3-2.1c0.7,0,0.8-0.7,0.9-1.5c0.4-2.4,0.8-4.7,1.2-7.1
		c0.1,0,0.2,0,0.4,0c0,0.3,0.2,0.6,0.1,0.9c-0.3,2.2-0.7,4.3-1.1,6.5c0,0.3-0.1,0.6,0.1,0.9c0.3-0.6,0.7-1.2,1.1-2.1
		c0.5,1.6,1.4,2.6,3.2,2.4c-1.4,1-1.8,2.2-1.1,3.8c-0.4-0.2-0.6-0.2-0.9-0.3c-1.2-0.6-2.2-0.5-3.2,0.3c-0.1,0.1-0.2,0.4-0.3,0.6
		c-0.9,5.2-1.8,10.3-2.7,15.5c1.8,1,4,0.1,4.6-1.8c2.3-7.5,4.6-15,7-22.5c0.1-0.4,0.3-0.8,0.6-1.1c0.2,1.4-0.4,2.6-0.8,3.8
		c-0.3,1.3-0.8,2.6-1.2,3.9c-0.4,1.3-0.8,2.6-1.2,3.9c1.8,0.6,1.9-1,2.6-2c0.4,1.7,1.4,2.5,3.1,2.3c-0.6,1-2.1,1.5-1.1,3.1
		c1.6-3.4,3.1-6.7,4.6-10c0.2,0.1,0.4,0.2,0.6,0.3c-2.5,5.6-5.1,11.2-7.7,16.8c1.7,0.4,2.6-0.6,3-2.3c0.3,0.6,0.5,1,0.7,1.4
		c0.6,1.2,1.8,1.3,2.5,0.2c2-3,3.9-5.9,5.9-8.9c0.2-0.3,0.4-0.6,0.7-1c0.1,0.1,0.3,0.1,0.4,0.2c-0.1,0.3-0.2,0.7-0.4,1
		c-2.4,3.6-4.8,7.1-7.1,10.7c-0.5,0.7-0.7,1.6-1,2.3c-0.4,0.3-0.9,0.5-1.2,0.9c-1.5,2.5-2.9,5-4.4,7.5c-0.2,0.3-0.6,0.5-0.9,0.8
		c-0.1,0.1-0.3,0.2-0.4,0.3c-1.2,1.8-2.4,3.6-3.6,5.4c0.5,0.3,0.9,0.6,1.4,1c7.2-8.2,14.4-16.4,21.5-24.5c0.1,0.1,0.2,0.1,0.4,0.2
		c-0.1,0.3-0.2,0.6-0.5,0.9c-2.3,2.7-4.7,5.4-7,8c-4.6,5.3-9.2,10.5-13.9,15.8c0.5,0.5,1.1,1,1.6,1.6c3.1-2.7,6.3-5.3,9.4-8
		c3.8-3.3,7.7-6.5,11.5-9.8c0.3-0.2,0.6-0.3,0.9-0.5c0.1,0.1,0.1,0.3,0.2,0.4c-7.2,6.1-14.4,12.2-21.6,18.4c0.4,0.5,0.7,0.9,1.1,1.3
		c2.7-1.7,5.3-3.4,8-5c3.9-2.5,7.9-5,11.8-7.4c0.3-0.2,0.6-0.2,1-0.4c0.1,0.1,0.1,0.3,0.2,0.4c-6.8,4.3-13.7,8.6-20.6,12.9
		c0.3,0.5,0.6,1,0.9,1.5c6.2-2.6,12.4-5.2,18.6-7.7c0.1,0.2,0.2,0.4,0.2,0.6c-6.1,2.6-12.3,5.1-18.5,7.8c0.3,0.6,0.5,1.2,0.8,1.8
		c5.4-1.1,10.7-2.3,16.1-3.4c0,0,0.1,0.2,0.2,0.5c-5.3,1.2-10.5,2.4-15.8,3.6c1.3,1.1,2.3,1.5,3.7,1.4c2.2-0.1,4.4-0.2,6.7-0.2
		c0.3,0,0.7,0,1,0.3c-2.4,0.6-4.8,0.4-7.5,0.7c2.1,1,4,2,5.8,2.9c2.5-2.1,3.3-5.9,6.9-6.8c0.5-2.2,0.9-4.4,1.4-6.6
		c0.1-0.1,0.2-0.1,0.3-0.2c0,0.2,0.1,0.4,0.2,0.8c0.2-2,0.4-3.6,0.7-5.3c0.2,0.3,0.3,0.6,0.6,0.9c0-1.8,0-3.4,0-5.1
		c0.1,0,0.1,0,0.2-0.1c0.3,0.7,0.7,1.4,1.1,2.1c-0.1-2-0.5-2.9-1.3-2.9c-0.2-1.9-0.2-3.8-0.5-5.7c-0.3-1.9-0.9-3.7-1.2-5.6
		C184,62.7,183.9,60.8,183.8,59c0.3,0.4,0.7,0.8,1.1,1.3c0.6-0.4,1.1-0.7,1.6-1.1c-0.6-0.4-1.1-0.7-1.6-1.1c0.1,0,0.3,0,0.5-0.1
		c-0.6-0.5-1.2-1-1.8-1.5c0.1-0.1,0.1-0.1,0.2-0.2c0.9,0.5,1.8,1,2.7,1.5c0.9-0.9,0.3-1.4-0.4-1.7c-1.6-0.8-3.3-1.4-4.9-2.1
		c-0.1,0.1-0.1,0.2-0.2,0.3c1.1,1.2,2.2,2.3,3.4,3.5c-0.3-0.1-0.7-0.2-1.1-0.2C183.4,58,183.6,58.5,183.8,59z M197.1,89.5
		c0.3-0.9,0.5-1.8,0.8-2.8c-0.5,0.7-0.9,1.5-1.1,2.3C196.7,89.1,197,89.3,197.1,89.5c-0.4,0.9-0.7,1.9-1.2,2.9c0.5,0,0.9,0,1.5,0
		C197.3,91.4,197.2,90.4,197.1,89.5z M203.6,70c-0.6,0.2-1.1,0.4-1.6,0.6c0.1,0.2,0.3,0.5,0.5,0.8c-0.8-0.8-1.5-1.6-2.5-2.6
		c0.1,2.4,1,4.8,2,5.8c-0.3-0.8-0.6-1.5-0.9-2.2c0.1,0,0.2-0.1,0.2-0.1c0.6,0.9,1.1,1.7,1.7,2.6c0.9-0.3,0.9-0.9,0.6-1.5
		c-0.4-0.7-0.8-1.3-1.2-2c0.2,0.2,0.5,0.4,1,0.7c0.1-0.9,0.2-1.5,0.3-2.2c0.3-0.9-0.1-1.9-1.1-2.5c-0.3-0.2-0.8,0-1.3,0.1
		c0,0.1-0.1,0.3-0.1,0.4C202.1,68.6,202.8,69.3,203.6,70z M187.8,56.1c-0.1,0.7-0.2,1.4-0.2,2.2c1.6-0.8,1.7-1.2,0.6-2.8
		C188,55.7,187.9,55.9,187.8,56.1c-0.1-1.8-1.3-3.1-1.9-4.6c-0.1,0-0.2,0.1-0.3,0.1c0,1.1,0,2.1,0,3.2c0.1,0,0.1,0,0.2,0
		c0-0.2,0.1-0.5,0.1-0.5c0.4,0.6,0.8,1.3,1.3,2C187.3,56.3,187.6,56.2,187.8,56.1z M175.4,27.4c0.2,0.1,0.4,0.2,0.6,0.3
		c-0.1-0.3-0.2-0.6-0.3-0.7c0.8,0.4,1.6,0.8,2.4,1.3c-0.2-1.4-1.7-2.7-4-3.7C174.6,25.6,175,26.6,175.4,27.4
		c-0.3-0.4-0.6-0.8-1.1-1.4c-0.2,0.8-0.5,1.5-0.7,2.4c0.8-0.1,1.3-0.2,1.9-0.4C175.5,27.8,175.4,27.6,175.4,27.4z M192.3,73.8
		c0.1-0.4,0.1-0.8,0.2-1.2c-1.4,0.6-1.4,0.6-0.7,1.7C192,74.1,192.2,73.9,192.3,73.8c-0.6,1-1.3,2-1.9,3c0.1,0.1,0.2,0.2,0.3,0.2
		c0.1-0.3,0.2-0.5,0.3-0.8c0.1,0.1,0.1,0.1,0.2,0.2c0,0.9,0,1.8,0,2.7c0.2,0,0.3,0,0.5,0C192.4,77.5,192.5,75.7,192.3,73.8z
		 M192.9,52.2c-0.1,0.8-0.1,1.6-0.2,2.6c0.3-0.4,0.4-0.6,0.6-0.9c0.1,0.5,0.2,0.9,0.3,1.4c0.4-0.2,0.8-0.4,1.2-0.6
		c-0.4-1.2-0.8-2.2-1.3-3.4C193.2,51.7,193,51.9,192.9,52.2c0.2-1.9-1.2-3.2-1.8-4.8c-0.1,0-0.2,0-0.3,0c0,1.1-0.1,2.2-0.1,3.3
		c0.1,0,0.2,0,0.2,0c0-0.3,0.1-0.6,0.1-0.9c0.2,0.3,0.3,0.7,0.4,1C191.8,51.5,191.9,52.4,192.9,52.2z M171.9,38.3
		c-0.1,0.2-0.3,0.5-0.2,0.7c0.3,1.9,1.5,2.7,3.4,2.9c-0.2-0.5-0.4-1-0.6-1.4c0.2,0.1,0.4,0.2,0.8,0.4c-0.1-0.6-0.1-1.1-0.3-1.3
		c-1-0.7-2.1-1.2-3.4-1.9C171.7,38.1,171.8,38.2,171.9,38.3z M189.9,38.6c0.1,0.1,0.2,0.2,0.3,0.4c0-0.3,0-0.5,0.1-0.6
		c0.6,0.6,1.2,1.3,1.9,2c0.1-0.1,0.2-0.2,0.3-0.3c-0.1-1.9-1.7-3-2.7-4.4c-0.1,0-0.2,0.1-0.3,0.1C189.6,36.8,189.8,37.7,189.9,38.6
		c-0.1-0.3-0.3-0.6-0.5-1.1c-0.3,0.3-0.5,0.6-0.7,0.8c0.3-1-0.1-1.5-1-1.7c-1.8-0.3-3.5-0.4-5.3-0.6c1.6,1.4,3.1,2.6,5.2,2.7
		c-0.7-0.3-1.4-0.6-2.1-1c0-0.1,0.1-0.2,0.1-0.2c1.1,0.2,2.1,0.5,3.2,0.7c-0.1,0.3-0.2,0.5-0.3,0.8c0.3,0.1,0.5,0.1,0.7,0.2
		c0.2,0,0.5,0.1,0.7,0.1C189.8,39.1,189.9,38.9,189.9,38.6z M184.9,50.5c-0.7-0.9-1.3-1.8-2-2.7c-0.1,0-0.2,0-0.3,0.1
		c0.1,1.1,0.2,2.2,0.3,3.3c0.1,0,0.2,0,0.3,0c0-0.3-0.1-0.6-0.1-0.8c0.6,0.8,1.1,1.5,1.7,2.3c0.2-0.1,0.3-0.1,0.5-0.2
		C185.2,51.8,185,51.2,184.9,50.5c0.1,0,0.3,0.1,0.5,0.2c0.1-0.1,0.2-0.1,0.3-0.2c-0.8-1.1-1.5-2.2-2.3-3.3c-0.1,0-0.1,0.1-0.2,0.1
		C183.8,48.4,184.3,49.5,184.9,50.5z M176.4,41.4c-0.2,0.1-0.5,0.3-0.5,0.4c0.2,1,0.5,1.9,0.8,2.9c0.1,0,0.2,0,0.3-0.1
		c0-0.3-0.1-0.5-0.1-0.6c0.7,0.6,1.4,1.2,2.1,1.7c0.1-0.1,0.3-0.2,0.4-0.3c-0.3-0.5-0.6-1.1-0.9-1.6c-0.5-0.7-1.1-1.3-1.6-1.9
		c0.7,0.6,1.4,1.3,2.1,1.9c0.3-1.3-1.1-2.2-2.9-2.9C176.2,41.1,176.3,41.2,176.4,41.4z M188.7,75.3c-0.6-0.3-1.5-0.6-1.5,0.4
		c0,1.2,0.6,2.4,0.9,3.6c0.1,0,0.3-0.1,0.4-0.1c-0.2-0.7-0.4-1.5-0.7-2.2c0.1,0,0.2-0.1,0.3-0.1c0.4,0.7,0.7,1.5,1.2,2.2
		c0.1,0.2,0.4,0.3,0.6,0.5c0.2-0.3,0.5-0.6,0.5-0.9c0-0.4-0.3-0.8-0.5-1.2c-0.3-0.5-0.5-1-0.8-1.5c0.3,0.3,0.5,0.6,0.8,0.9
		c0.3-0.6,0.6-1.1,0.8-1.5c-0.7-0.2-1.5-0.3-2.2-0.5C188.6,75.1,188.6,75.2,188.7,75.3z M181.4,51.5c-0.6-0.2-1.3-0.4-1.9-0.6
		c0.3,0,0.5,0,1.1,0.1c-0.9-0.5-1.6-0.9-2.2-1.2c0-0.1,0.1-0.1,0.1-0.2c1,0.3,2,0.6,3,1c0.5-0.9,0.1-1.4-0.6-1.5
		c-1.8-0.4-3.6-0.8-5.4-1.1c-0.1,0.1-0.1,0.3-0.2,0.4c1.4,0.9,2.8,1.8,4.2,2.7c-0.4,0-0.8,0-1.1,0c1.4,1.8,3.4,3.4,4.6,3.3
		c-0.6-0.4-1.2-0.8-1.8-1.3c0-0.1,0.1-0.1,0.1-0.2c1,0.4,1.9,0.8,2.9,1.2c0.6-0.8,0.2-1.3-0.4-1.6C183,52.1,182.2,51.8,181.4,51.5
		c0.4,0,0.8,0.1,1.3,0.1c-0.1-0.6-0.3-1.1-0.5-2C181.9,50.4,181.7,51,181.4,51.5z M181.7,32.4c0,0.2-0.1,0.5-0.1,0.7
		c0.6,0,1.1,0,1.7,0c-0.3-0.6-0.5-1.2-0.8-1.9C182.2,31.8,181.9,32.1,181.7,32.4c0.4-1-0.1-1.4-1-1.5c-1.8-0.1-3.6,0-5.5,0
		c1.7,1.5,4.2,2.4,5.5,2c-0.8-0.2-1.5-0.4-2.2-0.6c0-0.1,0-0.2,0.1-0.3C179.7,32.2,180.7,32.3,181.7,32.4z M200.1,78.4
		c-0.6-0.4-0.5,0.1-0.5,0.4c0,1.2,0.1,2.4,0.2,3.5c0.1,0.5,0.3,1.1,0.4,1.6c0.1,0,0.1,0,0.2-0.1c-0.1-0.7-0.2-1.5-0.3-2.2
		c0.5,0.7,0.7,1.4,1,2.2c0.1,0.3,0.4,0.5,0.7,0.7c0.2-0.3,0.6-0.6,0.6-0.9c-0.1-0.6-0.3-1.2-0.6-1.8
		C201.3,80.7,200.7,79.5,200.1,78.4c-0.2-1.2-0.3-2.3-0.4-3.4C199,76.3,199.7,77.3,200.1,78.4z M203.5,79.5
		c-0.7,0.9-1.5,0.4-2.4,0.1c0.5,0.8,0.9,1.4,1.4,2.2C202.9,81,203.2,80.3,203.5,79.5c-0.1-2.5-2.1-3.9-3.4-5.7
		c0.1,1.9,0.1,3.9,1.5,5.5c-0.2-0.7-0.5-1.5-0.7-2.2c0.1,0,0.2-0.1,0.3-0.1c0.3,0.6,0.7,1.3,1,1.9C202.4,79.6,202.8,79.8,203.5,79.5
		z M185.2,39.4c0.5,0.3,0.9,0.5,1.4,0.9c1.2,0.9,2.3,1.9,3.9,1.9c-0.7-0.4-1.4-0.8-2.1-1.2c0-0.1,0.1-0.2,0.1-0.2
		c0.8,0.3,1.6,0.6,2.4,0.8c0.2,0.1,0.6-0.1,0.8-0.2c-0.1-0.3-0.1-0.6-0.3-0.9c-0.2-0.2-0.5-0.4-0.8-0.4c-1.7-0.4-3.4-0.7-5.1-1
		C185.5,39.1,185.3,39.3,185.2,39.4c-0.2-0.1-0.3-0.2-0.5-0.4c0,0-0.1,0.1-0.1,0.1c0.9,1.2,1.8,2.3,2.9,3.7c-0.1-0.6,0-0.9-0.1-1.1
		C186.6,41,185.9,40.2,185.2,39.4z M187.4,50.1c-0.4-0.1-0.8-0.1-1.3-0.2c1.7,2.5,3.1,3.8,4.2,3.9c-0.5-0.5-1.1-1-1.7-1.4
		c0.1-0.1,0.1-0.2,0.2-0.2c0.7,0.4,1.4,0.8,2,1.2c0.5,0.4,0.8,0.3,1.2-0.1c-0.2,0.4-0.4,0.8-0.6,1.2c0.3,0.1,0.6,0.3,1.1,0.5
		c-0.2-0.7,0.5-1.4-0.5-1.7c-0.4-0.5-0.7-1.2-1.3-1.5C189.7,51,188.5,50.6,187.4,50.1c0.1,0,0.3,0,0.6,0c-0.7-0.5-1.3-1-1.9-1.4
		c0.1-0.1,0.1-0.2,0.2-0.2c0.9,0.4,1.9,0.9,2.8,1.3c0.5-0.7,0.4-1.3-0.3-1.6c-1.7-0.7-3.5-1.2-5.3-1.9c-0.1,0.2-0.2,0.3-0.3,0.5
		C184.6,48,186,49,187.4,50.1z M195.8,77c-0.8-0.9-1.5-1.7-2.4-2.8c0.3,2.2,0.3,4.2,1.7,5.8c-0.2-0.7-0.4-1.4-0.6-2.2
		c0.1,0,0.2-0.1,0.3-0.1c0.3,0.6,0.6,1.3,1,1.8c0.2,0.3,0.6,0.5,0.9,0.8c0.1-0.4,0.4-0.9,0.3-1.3C196.6,78.3,196.1,77.6,195.8,77
		c0.2,0.1,0.5,0.3,0.7,0.4c0.4-0.7,0.7-1.2,0.9-1.6c-0.8,0-1.6-0.1-2.3-0.1C195.3,76,195.5,76.5,195.8,77z M194.6,45
		c-0.2,0.3-0.3,0.7-0.5,1.1c0.4,0.1,0.8,0.3,1.4,0.5c-0.1-0.5-0.1-1-0.2-1.3C195.1,45.1,194.8,45.1,194.6,45
		c-0.3-0.4-0.5-1.2-0.8-1.3c-1.7-0.6-3.5-1.1-5.5-1.8c2,2.4,3.7,3.6,4.9,3.6c-0.6-0.4-1.2-0.8-1.9-1.3c0.9,0.1,1.6,0.5,2.4,0.7
		C193.9,45.2,194.2,45.1,194.6,45z M167.6,38c-0.6,0.3-1.2,2-0.8,2.3c-0.8,0.2-1.6,0.3-2.6,0.6c1.9,0.8,3.5,1.3,5.3,1
		c-0.6-0.1-1.2-0.2-1.8-0.4c0-0.1,0-0.2,0-0.3c1,0,2,0,2.9,0c0.2-0.8-0.3-1.2-0.9-1.2c-1.1,0-1.5-0.7-1.8-1.5c1,0.4,2,0.8,3.1,1.2
		c-0.5-1.4-2.5-3-4-3.3C167.1,37,167.3,37.5,167.6,38z M186.5,35c-0.7-0.4-1.5-1.1-2.3-1.2c-1.7-0.3-3.5-0.3-5.2-0.4
		c0,0.1,0,0.2-0.1,0.3c1.7,0.9,3.2,2.2,5.3,2.1c-0.6-0.3-1.3-0.5-1.9-0.8c0-0.1,0.1-0.2,0.1-0.3c1,0.2,2,0.4,3,0.6
		c-0.1,0.3-0.2,0.5-0.3,0.8c0.6,0,1.1,0,1.6,0C186.6,35.6,186.5,35.3,186.5,35c0.2,0.2,0.4,0.5,0.7,1c-0.1-0.5-0.2-0.8-0.2-1
		c0.7,0.6,1.4,1.3,2.1,1.9c0.1-0.1,0.2-0.2,0.3-0.3c-0.3-1.9-2-2.8-3.3-4.4C186.2,33.3,186.4,34.1,186.5,35z M168,30.7
		c-0.2,0.3-0.5,0.7-0.5,1c-0.1,1-0.5,1.6-1.5,1.8c-0.4,0.1-0.8,0.2-1.2,0.3c1.9,1,3.7,1.3,5.4,0.9c-0.7-0.1-1.3-0.2-1.9-0.3
		c0.8-0.2,1.5-0.2,2.3-0.3c0.3,0,0.6-0.4,0.9-0.6c-0.3-0.3-0.6-0.8-0.9-0.7C168.9,32.9,168.5,31.8,168,30.7c0.7,1.5,2.2,1.2,3.7,1.5
		c-1-2-2.8-2.4-4.4-3.2C167.5,29.6,167.8,30.2,168,30.7z M196.5,50.1c0.3,0.1,0.7,0.1,1,0.2c0-0.5,0-1.1,0-1.7
		c-0.4,0.3-0.6,0.5-0.8,0.6c0.5-0.9,0.2-1.5-0.6-1.9c-1.6-0.7-3.3-1.3-4.9-2c0.1,0.5,0.3,0.7,0.5,1c0.8,0.9,1.7,1.8,2.5,2.7
		c-0.2,0-0.4-0.1-0.8-0.2c1.7,2.7,3.4,4.4,4.3,4.1c-0.7-0.5-1.3-1-1.9-1.5c0.1-0.1,0.1-0.1,0.2-0.2c0.6,0.4,1.1,0.8,1.8,1.1
		c0.3,0.1,0.7,0,1.1,0c-0.1-0.3-0.1-0.8-0.4-1C197.9,50.9,197.1,50.5,196.5,50.1z M108.7,81.5c-0.8,1.9-0.8,3.7,0.1,4.1
		c0-0.8,0-1.6,0-2.3C108.7,82.7,108.7,82.1,108.7,81.5c0.1-0.2,0.2-0.5,0.4-1c0.6,2.2,2.5,3.7,1.4,6.2c1.7-0.8,3.6,0.3,4.9-1.4
		c-0.3,1.8-1.3,3-2.9,3.6c-0.8,0.3-1,0.7-0.9,1.4c0,0.4,0,0.7,0,1.1c0.5,0,0.9,0,1.3,0c0.1-2.5,1.4-4.1,3.6-4.9
		c1-0.4,2.2-0.6,3.3-0.9c0,0.3-0.1,0.6-0.1,1c-0.4,1.4-0.8,2.7-2,3.6c-1,0.8-2.1,0.8-3.3,0.4c-0.1,0-0.4,0.3-0.8,0.7
		c2.4,0,3.7,1.1,4.8,2.6c0.9,1.3,1.8,2.5,2.8,3.7c0.2,0.2,0.7,0.5,0.9,0.4c1.3-0.6,2.6-1.2,4-2c-2.3-0.6-4.4-1-6.4-1.5
		c0-0.1,0-0.3,0.1-0.4c0.3,0,0.6-0.1,0.9,0c1.8,0.4,3.6,0.7,5.3,1.2c1.9,0.5,3.1-0.9,4.6-1.4c0-0.1,0-0.2,0-0.4c-4-1.1-8-2.2-12-3.4
		c0.1-0.2,0.1-0.4,0.2-0.6c4,1.1,8.1,2.2,12.2,3.3c0.2-0.5,0.4-1,0.6-1.4c-1.8-1-3.4-2-5.1-2.9c-1.7-1-3.4-1.9-5-2.9
		c-1.6-0.9-3.3-1.7-4.7-2.8c0.1-0.1,0.2-0.3,0.3-0.4c4.9,2.8,9.9,5.6,14.9,8.4c0.4-0.7,0.7-1.2,1-1.8c-6.2-4.7-12.4-9.4-18.5-14
		c-0.1,0.1-0.1,0.1-0.2,0.2c0.8,1.5,1.7,2.9,2.4,4.5c0.8,1.6-0.1,3.1-1,4.3c-0.8,1.1-2.1,1.1-3.4,1c-0.2,0-0.3-0.2-0.5-0.4
		c0.1-0.2,0.3-0.4,0.4-0.5c0.3-0.2,0.7-0.3,0.9-0.6c0.4-0.7,1-1,1.8-1.2c0.5-0.1,1.1-0.8,1.1-1.1c-0.4-1.5-0.9-3-1.5-4.5
		c0-0.1-0.2-0.2-0.4-0.2c-1,0-1.5-0.8-2.2-1.4c-0.5-0.4-1.1-0.7-1.8-0.8c-0.9-0.1-1.9,0-2.9,0.1c-1.5,0.2-1.5,0.2-1.5,1.8
		c0,0.4-0.3,1.2-0.6,1.2c-1.3,0.2-1.4,0.9-1,2c0.4,1.1,0,1.7-0.9,2.1c-1.5,0.6-1.7-0.5-2.3-1.4c0.2-0.2,0.4-0.4,0.6-0.6
		c-1.3-0.5-2.2,0.1-2,1.3c0.2,1,0.7,2,1.1,3c0,0,0.1,0,0.3,0.1c0.1-0.2,0.2-0.4,0.2-0.5c0.7,0.1,1.4,0.3,2,0.3
		c1.4-0.1,2.4,0.4,3.4,1.3c0.2,0.2,0.4,0.3,0.7,0.5C107.1,83.2,107.3,82.8,108.7,81.5z M148.5,118.5c1.2-0.3,2.4-0.7,3.5-0.9
		c4.1-1,8.2-2.2,12.5-2.2c8.2,0,16.3-0.1,24.5-0.2c0.5,0,1.1-0.3,1.5-0.7c1-1,1.8-2.1,2.7-3.2c1.7-2.3,3.4-4.6,5.3-7.1
		c-0.6,0-0.9,0-1.2,0c-8.5,0.2-16.9,0.7-25.4,0.6c-7.8-0.1-15.2,1.7-22.6,4c-0.3,0.1-0.8,0.5-0.8,0.7
		C148.5,112.5,148.5,115.4,148.5,118.5z M98.1,104.2c-0.1,0.1-0.2,0.2-0.2,0.3c2.6,3.3,5.2,6.7,7.9,10c0.3,0.4,1,0.7,1.6,0.7
		c7.6,0.1,15.2,0.2,22.9,0.1c3.2,0,6.4,0.3,9.6,1.1c2.6,0.7,5.3,1.3,8.1,2c0-3,0-6,0-8.9c0-0.2-0.4-0.5-0.7-0.6
		c-1.5-0.5-3-1-4.6-1.4c-4.4-1.2-8.7-2.4-13.3-2.5c-6.4-0.2-12.9-0.3-19.3-0.4C106,104.4,102.1,104.3,98.1,104.2z M130.9,93.8
		c2.4-0.9,2.4-0.9,4.7,0.1c0.6,0.3,1.1,0.6,1.7,0.8c0.4,0.1,1,0.1,1.4-0.1c3.3-2,6.6-4.1,9.8-6.2c0.5-0.4,0.9-0.4,1.5,0
		c2.7,1.8,5.5,3.4,8.2,5.3c1.2,0.9,2.2,0.9,3.5,0.2c1.1-0.7,2.3-1.4,3.6-0.3c0,0,0.1-0.1,0.2-0.1c-2-7-9.8-12.3-17.6-12.1
		C138.8,81.5,132.6,87.9,130.9,93.8z M132.8,134.8c16.4-3.9,32.7-7.8,49-11.7c-1.2-0.6-2.3-0.9-3.5-1.3c-2.2-0.6-4.3-0.8-6.5-0.2
		c-11.5,2.8-23.1,5.5-34.6,8.3c-1.5,0.4-3,0.7-4.5,1.1C132.8,132.3,132.8,133.4,132.8,134.8z M95.2,97.1c0.6,1.2,1.5,2.6,2.1,4.1
		c0.7,1.8,2,2.2,3.8,2.2c8.1-0.2,16.2-0.3,24.2-0.5c-1-1-2.2-2-3.1-3.3c-1.1-1.6-2.6-2-4.3-2c-5.4,0-10.8,0.1-16.2,0.1
		C99.5,97.6,97.4,97.3,95.2,97.1z M201.9,96.9c-2.1,0.2-4.1,0.5-6.2,0.5c-4.8,0-9.5-0.1-14.3-0.1c-2,0-3.8,0.3-5,2.2
		c-0.7,1.1-1.8,2-2.9,3.1c1.2-0.1,2.1-0.2,3.1-0.2c4.3,0.1,8.7,0.2,13,0.3c2.4,0.1,4.8,0.2,7.2,0.1c0.8,0,1.9-0.3,2.3-0.9
		C200.3,100.2,201.1,98.4,201.9,96.9z M95,52.3c-0.5,1.6-0.8,3-1.3,4.3c-0.4,1.1,0,1.8,0.7,2.4c0.3,0.2,0.6,0.5,0.9,0.7
		c5.8,2.7,11.6,5.4,17.5,8.1c0.2-0.5,0.3-0.8,0.4-1.2c1.2-3.7,1.6-3.9-2.6-5.8c-3-1.4-6-2.5-9.1-3.6C98.9,56.3,96.6,55,95,52.3z
		 M203.4,55.5c-1.5,2.5-3.5,3.8-6,4.6c-1.4,0.5-2.8,1-4.1,1.6c-2.2,0.9-4.3,1.7-6.4,2.8c-1.8,0.9-2,1.4-1.4,3.4
		c0.2,0.8,0.5,1.7,0.8,2.6c0.7-0.3,1.2-0.6,1.8-0.9c4.4-1.9,8.7-3.8,13.1-5.8c1.1-0.5,2.1-1.3,3.1-2.1c0.3-0.2,0.6-0.8,0.5-1.1
		C204.4,58.8,203.9,57.3,203.4,55.5z M133.7,72.9c0.3,0.7,0.5,1.2,0.7,1.7c0.2,0.5,0.5,1,0.7,1.5c9.2-1.8,18.4-1.8,27.6,0
		c0.5-1,0.9-2,1.4-3.2c-3.2,0.8-5-0.7-6.2-3.2c-1.5,1.2-2.9,2.5-4.8,2.4c-2.1-0.2-2.9-2-4.2-3.3c-1.2,1.5-2.2,3.2-4.2,3.3
		c-2,0.2-3.3-1.2-4.8-2.4C138.7,72.2,136.8,73.6,133.7,72.9z M109.2,115.8c0,0.1,0,0.2,0,0.3c0.4,0,0.8,0.1,1.2,0.1
		c6.9,0,13.8,0.1,20.7,0c3.7,0,7.2,0.6,10.7,1.5c0.2,0.1,0.5,0.2,0.7,0.3c0,0.1,0,0.1-0.1,0.2c-0.8,0-1.6,0-2.3,0c0,0,0,0.1,0,0.1
		c2.1,0.6,4.2,1.1,6.3,1.7c0,0.1-0.1,0.2-0.1,0.4c-1.6-0.3-3.2-0.5-4.8-0.8c-1.9-0.3-3.7-0.9-5.6-1c-7.8-0.1-15.5-0.1-23.3-0.1
		c-0.2,0-0.4,0-0.7,0.1c0,0.9,0.4,1.1,1.2,1c4-0.3,8-0.6,12-0.7c3.7-0.1,7.4-0.4,11,0c3.5,0.4,7,1.5,10.5,2.4c1.2,0.3,2.3,0.4,3.5,0
		c6.7-2.3,13.6-3,20.7-2.5c4.2,0.3,8.4,0.5,12.6,0.8c0.8,0.1,1.4,0,1.4-1.2c-5.4,0-10.8,0-16.2,0c-5.1,0-10.1,0-15.1,1.5
		c-0.7,0.2-1.6,0.2-2.4,0.2c0-0.1,0-0.2,0-0.2c2-0.6,4-1.1,6-1.7c0,0,0-0.1,0-0.1c-0.9,0-1.9,0-2.8,0c3.2-0.9,6.4-1.8,9.8-1.8
		c7.4,0,14.9,0,22.3,0c0.4,0,0.8-0.1,1.2-0.1c0-0.1,0-0.2,0-0.3c-0.3,0-0.6-0.1-0.9-0.1c-6.3,0-12.5,0.1-18.8,0
		c-5-0.1-9.9,0.4-14.6,2c-3.3,1.1-6.4,1.1-9.8,0.1c-3.1-1-6.5-1.7-9.8-1.9c-7.8-0.3-15.6-0.2-23.4-0.3
		C110,115.7,109.6,115.8,109.2,115.8z M145.5,127.3c0-0.1,0-0.2,0-0.2c-5.5-1.6-10.9-3.1-16.4-4.9c-2.3-0.7-4.6-1-6.9-0.5
		c-1.5,0.3-3,0.5-4.7,0.8c0.2,0.2,0.3,0.3,0.4,0.3c6.7,2,13.5,4,20.2,6c0.3,0.1,0.6,0.2,0.9,0.1C141,128.3,143.3,127.8,145.5,127.3z
		 M107,42.7c-0.6-0.7-1.1-1.3-1.7-1.9c-0.1-0.2-0.3-0.4-0.4-0.5c-2.3-1.2-5.6,0.6-5.4,3.2c0.1,1.2,0.6,2.5,1.3,3.5
		c0.8,1.1,2.1,2,3.1,2.9c1,0.9,2,0.8,3.2,0.2c0.8-0.4,1.8-0.6,2.7-0.9c0.2-0.1,0.4-0.2,0.5-0.3c0.4-0.9,0.7-1.8,1.1-3.1
		c-1.9,0.8-1.6-0.7-1.9-1.2c-1.5,0.7-3,1.3-4.4,2c-0.1-0.1-0.1-0.2-0.2-0.2C105.6,45.2,106.3,43.9,107,42.7z M161.3,70.5
		c1.8-4,3.5-7.6,5.1-11.2c-1.2-1.4-2.4-0.8-3.7,0c0.2-1.3,0.8-2.6-0.8-3.2c-1.2,3.8-2.4,7.7-3.5,11.2c0.4,0.2,0.8,0.4,1,0.6
		C160,68.6,160.5,69.4,161.3,70.5z M119.9,34.2c-0.2-0.8-0.6-1.6-0.6-2.4c-0.1-0.6-0.4-0.9-0.9-0.9c-1,0-1.9,0-2.9,0
		c-1.3,0-2,0.6-2.5,1.8c-0.4,0.9-0.3,2.1-1.4,2.7c-0.1,0.1-0.2,0.6-0.2,0.7c0.8,0.7,1.5,1.5,1.6,2.6c0,0,0,0.1,0.1,0.1
		c1,0.5,1.9,1.1,2.9,1.6c0.6,0.2,1.3,0.4,1.8,0.3c0.6-0.2,1.4-0.7,1.7-1.3c0.4-0.8,0.5-1.8,0.7-2.7c-1.9,1.2-3.9,0.3-6.1-0.3
		C115.9,34.6,117.7,33.9,119.9,34.2z M99.6,85.1c0.1-0.1,0.1-0.3,0.2-0.4c-0.3-0.2-0.7-0.5-1-0.7c-0.3-0.3-0.6-0.6-0.6-0.9
		c-0.1-0.7,0-1.4-0.9-1.4c-0.7,0-1.7,0.1-2.2,0.6c-0.5,0.6-0.9,0.7-1.6,0.5c-0.5-0.1-1-0.2-1.5-0.3c-1-0.1-1.3,0.2-1,1.2
		c0.4,1.4,1.2,2.5,2.5,3.2c0.9,0.5,1.9,0.9,2.8,1.3c1.1,0.5,1.5,1.5,1.9,2.6c-2-0.4-3.8-0.7-5.7-1.1c1,1.5,4.4,2.5,6.5,2
		c0.2-0.8,0.5-1.6,0.7-2.4c-2.2-0.4-3.9-2.3-4.3-4.7C96.8,84.7,98.2,84.9,99.6,85.1z M127.8,121.1c4.9,1.4,9.8,2.9,14.7,4.3
		c0.8,0.2,1.8-0.1,2.8-0.2c0-0.1,0-0.2,0-0.3c-3.8-1.3-7.7-2.1-11.3-3.7c0.4-0.2,0.7-0.1,1.1,0c3.1,0.9,6.2,1.8,9.4,2.7
		c2.8,0.8,4.4,0.8,7.4-0.5c-0.5,0.1-0.8,0.1-1.1,0.2c-1.5,0.4-3,0.2-4.6-0.2c-3.2-0.9-6.4-1.7-9.5-2.5
		C133.7,120.1,130.7,120.5,127.8,121.1z M148.2,131.5c0,0.1,0,0.2,0,0.3c4.6,1.4,9.2,2.7,14,4.1c0-0.9-0.1-1.6,0-2.3
		c0.1-0.8-0.3-1.1-1-1.3c-2.2-0.6-4.5-1.3-6.7-2c-0.3-0.1-0.7-0.2-1.1-0.1C151.7,130.7,149.9,131.1,148.2,131.5z M171.1,121.2
		c0-0.1,0-0.2,0-0.3c-1,0-1.9-0.3-2.8-0.1c-7.9,1.6-15.7,3.3-23.6,4.9c0,0.1,0,0.2,0,0.4c1.2,0.4,2.2,0.9,3.6,0.5
		c2.6-0.7,5.2-1.3,7.9-1.9C161.2,123.5,166.2,122.3,171.1,121.2z M139.9,94.6c0.1,0.1,0.2,0.1,0.2,0.1c1.8-0.6,3.7-1.1,5.4-1.9
		c2.5-1.2,4.9-1.3,7.4,0c1.2,0.6,2.6,0.9,3.9,1.4c0.5,0.2,0.9,0.3,1.4,0.5c-2.8-2-5.6-3.9-8.5-5.6c-0.2-0.1-0.6-0.1-0.8,0
		C145.9,90.8,142.9,92.7,139.9,94.6z M174,98.8c-0.3-0.2-0.4-0.3-0.5-0.4c-3.1-1.5-6.2-3.1-9.3-4.6c-0.2-0.1-0.6-0.2-0.8-0.1
		c-2,0.9-4.1,1.9-6.1,2.8c0.6,0.2,1.2,0.1,1.7,0.1c2.3-0.3,4.6-0.6,6.9,0.1C168.5,97.5,171.1,98.1,174,98.8z M140.2,97.2
		c-0.3-0.4-0.3-0.5-0.4-0.6c-1.9-0.9-3.9-1.8-5.8-2.7c-0.3-0.1-0.8-0.1-1.1,0c-1.3,0.6-2.7,1.3-4,1.9c-1.8,0.9-3.6,1.8-5.3,2.7
		C129,97.6,134.3,95.1,140.2,97.2z M128.1,40.5c0-0.1,0-0.2,0-0.3c-0.8-0.5-1.6-0.3-2.4,0.1c-1.6,0.7-2,2.3-2.8,3.5
		c-0.6,0.9-0.9,1.7-0.7,2.8c0.1,0.3,0,0.6,0,1.1c-0.5-0.2-1-0.4-1.3-0.6c-0.3-0.3-0.5-0.7-0.7-1c-1.1,0.4-2.1,0.8-3.1,1.2
		c0.1-0.8,0.1-1.4,0.2-2c-0.1,0-0.3-0.1-0.4-0.1c-2.7,2.8-5,6-7.3,9.3c0.4-0.1,0.7-0.2,0.9-0.5c1-1.5,2-3,3.1-4.4
		c0.5-0.6,1.1-1.1,1.8-1.6c0.7-0.4,1.5-0.6,2,0.6c2.1-2.3,3.9-0.6,5.6,0.2c0-1-0.2-2,0-2.8c0.4-1.4,1.1-2.7,1.7-4
		c0.3-0.8,0.8-1.2,1.7-1.1C127,40.8,127.6,40.6,128.1,40.5z M115.7,43.6c0.5-1.3,1.5-1.7,2.7-2.1c1.3-0.4,2.5-1,3.7-1.7
		c1-0.6,1.3-1.7,1.1-2.8c-0.1-0.3-0.5-0.6-0.8-0.7c-0.2-0.1-0.7,0.3-0.7,0.5c0.1,2.1-1.3,3.1-2.8,3.9c-0.8,0.4-2,0.9-2.7,0.6
		c-1.7-0.8-3.6-1.2-4.8-3.3c-0.1,0.6-0.1,0.8-0.1,1c0,0.2,0,0.4,0,0.6c2.6,0.8,3.8,2.8,3.7,6.1c0.5-0.6,1-1.1,1.5-1.6
		C116.2,43.8,116,43.7,115.7,43.6z M135.6,78.2c1,1.9,1.9,3.6,2.9,5.4c0.7-0.4,1.3-0.7,1.9-1c-0.3-0.9-0.6-1.7-0.9-2.5
		C138.5,77.6,138.5,77.6,135.6,78.2z M158,83.6c1.2-1.9,2.4-3.7,3.7-5.6c-1.1-0.2-2-0.3-2.9-0.4c-0.8,1.8-1.6,3.5-2.3,5.2
		C157,83.1,157.4,83.3,158,83.6z M110.5,117c0,0.2,0,0.4,0,0.6c9,0,18.1,0,27.1,0C128.7,116.7,119.6,117.4,110.5,117z M151.8,58.4
		c-0.6-2-1.5-2.6-3.1-2.5c-1.4,0.1-2.2,0.9-2.5,2.5c1.4-0.4,2.1,0.6,2.8,1.5C149.7,58.9,150.4,58,151.8,58.4z M159.2,117.6
		c2.6,0,4.8,0,7.1,0c2.2,0,4.4,0,6.7,0c2.3,0,4.5,0.1,6.8,0c2.2,0,4.4,0.2,6.6-0.2c-0.4-0.3-0.7-0.3-1.1-0.3c-7.3,0-14.6,0-22,0.1
		C161.9,117.2,160.7,117.4,159.2,117.6z M153.9,81.8c0.7,0.2,1.2,0.5,1.9,0.7c0.8-1.6,1.5-3.2,2.3-5c-0.7-0.1-1.3-0.1-1.9-0.2
		c-0.7-0.1-1,0.1-1.2,0.8C154.7,79.3,154.3,80.5,153.9,81.8z M164.1,65.9c-0.7,1.5-1.4,3-2.1,4.5c1.8,0.4,5.3-0.7,5.8-2
		c-0.9,0.4-1.6,0.7-2.5,1.2C165.8,67.9,165.7,66.7,164.1,65.9z M142.1,77.3c-1,0.1-1.8,0.2-2.8,0.3c0.6,1.7,1.2,3.2,1.8,4.7
		c0.7-0.3,1.4-0.5,2.1-0.8C142.7,80.1,142.4,78.8,142.1,77.3z M171.4,29.2c1.7,0.8,3.5,1.7,5.5,1.3c-0.7-0.1-1.4-0.3-2-0.4
		c0-0.1,0-0.1,0-0.2c1,0,2.1,0,3.2,0c-0.1,0.2-0.2,0.5-0.3,0.8c0.7,0,1.2-0.1,1.9-0.1c-0.3-0.7-0.6-1.2-0.7-1.5
		C176.2,28.1,173.8,28.7,171.4,29.2z M170.4,27.8c0-0.1,0-0.2,0-0.3c0.7,0,1.3,0,2-0.1c0.3-0.1,0.6-0.4,0.9-0.6
		c-0.3-0.3-0.7-0.8-0.9-0.7c-1,0.2-1.4-0.5-1.8-1.1c-0.2-0.3-0.4-0.6-0.8-1.2c-0.4,1.7-0.4,3.5-2.7,3.5c1.7,0.8,3.4,1.2,5.1,0.7
		C171.6,27.9,171,27.9,170.4,27.8z M151.1,81.1c0.8,0.2,1.4,0.3,2.2,0.5c0.5-1.5,0.9-2.9,1.3-4.4c-0.8-0.1-1.5-0.1-2.2-0.1
		c-0.2,0-0.6,0.3-0.7,0.5C151.4,78.7,151.3,79.9,151.1,81.1z M146.5,80.9c0.7,0,1.4,0,2,0c0-1.3,0-2.6,0-3.8c-0.9,0-1.7,0-2.5,0
		c0.1,1.1,0.2,2.2,0.3,3.2C146.4,80.5,146.5,80.7,146.5,80.9z M145.7,81.1c-0.1-0.7-0.1-1.2-0.1-1.8c-0.4-2.6,0.3-2.2-2.6-2.1
		c-0.1,0-0.1,0.1-0.3,0.1c0.3,1.3,0.7,2.7,1,4.1C144.4,81.3,145,81.2,145.7,81.1z M150.9,46.8c-0.6-0.5-1.3-1-1.9-1.4
		c-0.6,0.5-1.3,1-2.1,1.5c0.8,0.5,1,1.3,0.7,2.4c0.9-0.8,1.8-0.6,2.5-0.2C150.4,48.4,150.6,47.5,150.9,46.8z M167.5,64.7
		c-0.8,0.6-1.5,1.1-2.1,1.5c0.2,0.7,0.5,1.5,0.7,2.2c0.8,0,1.6,0,2.3,0c0.2-0.7,0.5-1.5,0.8-2.4C168.5,66,167.7,65.6,167.5,64.7z
		 M131.6,68.5c0.3-0.9,0.6-1.8,0.8-2.3c-0.6-0.5-1.3-1-2-1.6c-0.2,0.8-0.9,1.4-2.2,1.4c1.3,0.6,1.1,1.6,0.9,2.8
		C130.2,67.9,131,68,131.6,68.5z M134.6,58c-0.5-0.9,0.1-1.6,0.6-2.1c-0.7-0.5-1.4-1-2.2-1.6c-0.1,1-1,1.2-1.7,1.3
		c0.3,0.9,0.5,1.7,0.7,2.3C132.8,58,133.6,58,134.6,58z M141.7,49.4c-0.6-0.5-1.3-1-1.8-1.4c-0.6,0.4-1.3,1-1.9,1.4
		c0.2,0.7,0.5,1.5,0.7,2.2c0.7,0,1.6,0,2.3,0C141.3,50.9,141.5,50.1,141.7,49.4z M160,49.2c-1,0.2-1.5-0.6-1.8-1.2
		c-0.8,0.6-1.5,1-2.2,1.6c0.9,0.4,0.8,1.4,0.7,2.1c0.9,0,1.8,0,2.5,0C159.4,50.9,159.7,50.1,160,49.2z M164.7,54.5
		c-0.6,0.4-1.3,0.9-2.1,1.5c1,0.4,0.8,1.3,0.7,2c0.9,0,1.7,0,2.7,0c-0.4-0.8,0.1-1.6,0.7-2.1C166,55.4,165.3,54.9,164.7,54.5z
		 M172.8,36.8c0-0.1,0-0.2,0-0.3c0.7,0,1.4,0,2.1,0c0.3,0,0.7-0.2,1-0.4c-0.3-0.3-0.6-0.9-0.9-0.9c-1.9,0.1-3.8,0.3-5.7,0.4
		c0,0.1,0,0.2,0,0.4c1.8,0.6,3.5,1.6,5.6,1.2C174.2,37.1,173.5,36.9,172.8,36.8z M176.8,39.4c0-0.1,0-0.2,0.1-0.3
		c0.8,0.1,1.7,0.2,2.5,0.3c0.2,0,0.5-0.1,0.6-0.3c0.1-0.2,0-0.6-0.2-0.7c-0.3-0.2-0.7-0.4-1-0.4c-1.8,0-3.5,0-5.3,0
		c1.7,1.2,3.3,2.2,5.3,2C178.1,39.8,177.4,39.6,176.8,39.4z M108.4,38.6c-0.3-0.4-0.5-0.7-0.8-1.1c0.6,0,1.2,0.1,2.1,0.1
		c-0.4-0.7-0.6-1.4-1-1.6c-0.7-0.3-1.6-0.4-2.5-0.6c-0.8-0.1-0.9,0.4-0.8,1.1C105.8,37.9,106.7,38.6,108.4,38.6z M192.3,87.2
		c0.1,0,0.2,0,0.3,0c0.2,0.7,0.3,1.5,0.6,2.2c0.1,0.3,0.4,0.5,0.6,0.8c0.2-0.3,0.7-0.7,0.6-1c-0.2-2-1.3-3.7-2.2-5.5
		c-0.2,1.9-0.7,3.8,0.3,5.6C192.4,88.6,192.4,87.9,192.3,87.2z M199.3,82.7c-0.8,3-0.7,4.7,0.1,5.8c-0.1-0.8-0.1-1.5-0.2-2.2
		c0.1,0,0.2,0,0.3,0c0.2,0.7,0.3,1.3,0.6,1.9c0.1,0.4,0.5,0.7,0.7,1c0.2-0.4,0.6-0.9,0.5-1.3C200.6,86.2,199.9,84.5,199.3,82.7z
		 M194.7,85.3c1-0.1,1.2-0.8,0.9-1.4c-0.7-1.7-1.6-3.3-2.3-5c-0.1,0-0.2,0.1-0.3,0.1c0,1.9-0.3,3.8,0.8,5.6
		c-0.1-0.7-0.2-1.5-0.4-2.2c0.1,0,0.2,0,0.3,0C194,83.4,194.4,84.3,194.7,85.3z M178.4,47.2c0.5-1-0.1-1.4-0.8-1.5
		c-1.8-0.2-3.6-0.4-5.6-0.5c1.7,1.6,4.2,2.8,5.5,2.6c-0.8-0.3-1.5-0.6-2.2-0.9c0-0.1,0.1-0.2,0.1-0.3
		C176.3,46.7,177.3,47,178.4,47.2z M186.3,46c0.6-1,0-1.4-0.7-1.6c-1.8-0.5-3.5-0.8-5.6-1.2c1.9,2,4,3.3,5.2,3.2
		c-0.7-0.4-1.4-0.8-2.1-1.1c0-0.1,0.1-0.2,0.1-0.2C184.3,45.3,185.3,45.7,186.3,46z M180,42.2c0-0.1,0.1-0.2,0.1-0.2
		c0.7,0.2,1.5,0.4,2.2,0.5c0.3,0,0.7-0.1,1-0.2c-0.2-0.3-0.4-0.9-0.7-1c-1.9-0.3-3.8-0.6-5.7-0.8c0,0.1,0,0.3-0.1,0.4
		c1.6,1,3.1,2.3,5.2,2.3C181.4,42.8,180.7,42.5,180,42.2z M185.7,86.2c0.1,0,0.2,0,0.3,0c0.3,1,0.6,2,0.9,3c1-0.4,1.2-0.6,0.9-1.5
		c-0.6-1.7-1.3-3.4-2-5c-0.1,0-0.2,0.1-0.3,0.1c-0.1,1.9-0.5,3.8,0.4,5.7C185.8,87.7,185.8,86.9,185.7,86.2z M187.2,83.8
		c-0.1-0.7-0.2-1.4-0.2-2.1c0.1,0,0.2,0,0.2,0c0.3,1,0.7,1.9,1,2.9c1-0.2,1.2-0.8,0.9-1.5c-0.7-1.7-1.5-3.3-2.3-4.9
		c-0.1,0-0.2,0.1-0.3,0.1C186.4,80.1,186.2,82,187.2,83.8z M168.4,42.5c0,0.2,0,0.4-0.1,0.6c1.6,0.5,3.2,1.1,4.8,1.6
		c0-0.1,0.1-0.2,0.1-0.3c-0.6-0.2-1.2-0.4-1.8-0.6c0-0.1,0-0.1,0.1-0.2c1,0.1,2.1,0.2,3.2,0.3c-0.1-1.1-0.3-1.3-1.3-1.4
		C171.7,42.5,170.1,42.5,168.4,42.5z M196.6,75.5c1.3-0.7,0.7-2.2-1.7-4.3c-0.3,0.2-0.7,0.4-1.2,0.7c0.5,1.2,1,2.3,1.5,3.4
		c0.1,0,0.2-0.1,0.3-0.1c-0.3-0.7-0.6-1.5-0.9-2.2c0.1,0,0.2-0.1,0.2-0.1C195.4,73.7,196,74.6,196.6,75.5z M102.5,88.8
		c0.5,0.8,1.1,1.4,1.4,2.2c0.4,0.9,1,1,1.8,0.7C105.9,88.8,105.3,88.3,102.5,88.8z M121.3,120c5.4,0,10.8,0,16.2,0
		C132.1,119.2,126.7,119.7,121.3,120z M174.6,120c-5-0.3-10.1-0.9-15.1,0C164.5,120,169.5,120,174.6,120z M197.4,92.3
		c0.1,0,0.2,0,0.3,0c0.1-0.4,0.2-0.9,0.3-1.6c0.2,0.8,0.3,1.2,0.4,1.7c0.5-0.1,0.8-0.1,1.3-0.2c-0.5-1.6-1.1-3.2-1.6-4.7
		c-0.1,0-0.2,0-0.3,0C197.8,89.2,197.6,90.8,197.4,92.3z M188.4,88.8c0.1,0,0.3,0.1,0.4,0.1c1.6-1.1,1.5-3.1,2.2-4.7
		c-0.1-0.1-0.2-0.1-0.3-0.2c-0.8,0.8-1.6,1.5-2.4,2.3c0.1,0.1,0.1,0.1,0.2,0.2c0.2-0.1,0.4-0.3,0.5-0.4
		C188.8,87.1,188.6,87.9,188.4,88.8z M185.8,33.8c0.1-0.1,0.2-0.2,0.3-0.3c-0.5-1.9-2.2-2.6-3.3-4c-0.1,0.1-0.2,0.1-0.3,0.2
		c0.3,1.1,0.7,2.1,1,3.2c0.1,0,0.2-0.1,0.3-0.1c0-0.3-0.1-0.5-0.1-0.6C184.4,32.7,185.1,33.2,185.8,33.8z M196.2,85
		c0.1,0,0.3,0.1,0.4,0.1c1.5-1.3,1.2-3.2,1.9-4.8c-0.1-0.1-0.2-0.1-0.3-0.2c-0.8,0.8-1.5,1.7-2.3,2.5c0.1,0.1,0.1,0.1,0.2,0.2
		c0.2-0.1,0.3-0.3,0.4-0.4C196.4,83.2,196.3,84.1,196.2,85z M184.4,87.6c-0.1,0-0.2,0-0.3,0c-0.2,1.5-0.4,2.9-0.6,4.4
		c0.1,0,0.2,0,0.3,0c0.1-0.3,0.2-0.7,0.3-1.2c0.2,0.5,0.3,0.9,0.4,1.2c0.4,0,0.8,0,1.3,0C185.3,90.5,184.9,89,184.4,87.6z
		 M205.6,69.1c-0.1,0-0.2-0.1-0.4-0.1c-0.5,1-1,1.9-1.6,2.9c0.1,0,0.2,0.1,0.3,0.1c0-0.1,0.1-0.2,0.1-0.4c0.1-0.1,0.1-0.3,0.1-0.3
		c0.1,1,0.2,1.9,0.3,2.8c0.1,0,0.3,0,0.4,0C206.1,72.6,205.4,70.8,205.6,69.1z M199,74.9c-0.1,0-0.2-0.1-0.3-0.1
		c-0.6,0.9-1.2,1.8-1.8,2.7c0.2,0.1,0.3,0.2,0.5,0.4c0-0.2,0.1-0.5,0.1-0.7c0,0,0.1,0.1,0.1,0.1c0,0.9,0,1.7,0,2.6
		c0.1,0,0.2,0,0.4,0C199.2,78.5,198.7,76.6,199,74.9z M190.7,56.2c0.7-0.1,1.3-0.2,1.9-0.3c0-0.1,0-0.3,0-0.4
		c-1.4-0.7-2.9-1.5-4.3-2.2c-0.1,0.1-0.1,0.1-0.2,0.2c0.8,1.1,1.6,2.2,2.4,3.3c0.1-0.1,0.2-0.1,0.3-0.2
		C190.8,56.4,190.7,56.2,190.7,56.2z M204.1,76.4c0,0.9,0,1.9,0,2.8c0.1,0,0.3,0,0.4,0c1.2-1.5,0.7-3.3,1.1-5
		c-0.1-0.1-0.2-0.1-0.3-0.2c-0.6,0.9-1.2,1.8-1.8,2.7c0.1,0.1,0.2,0.1,0.2,0.2C203.8,76.7,204,76.6,204.1,76.4z M180.1,38
		c0.1-0.1,0.2-0.2,0.3-0.4c-0.5-1.9-2.4-2.5-3.5-3.8c-0.1,0.1-0.2,0.1-0.3,0.2c0.4,1,0.8,2.1,1.2,3.1c0.1,0,0.2-0.1,0.2-0.1
		c-0.1-0.3-0.1-0.5-0.2-0.7C178.6,36.9,179.4,37.5,180.1,38z M197.6,85.2c-0.1-0.1-0.2-0.1-0.3-0.2c-0.8,0.8-1.6,1.5-2.4,2.3
		c0.1,0.1,0.1,0.1,0.2,0.2c0.2-0.2,0.4-0.3,0.5-0.4c-0.2,0.9-0.4,1.7-0.6,2.6c0.1,0,0.3,0.1,0.4,0.1C197,88.7,196.9,86.8,197.6,85.2
		z M195.7,46.3c0.1,0,0.2,0,0.2,0c0-0.3,0-0.6,0-0.7c0.5,0.7,1,1.5,1.5,2.3c0.1-0.1,0.2-0.1,0.4-0.2c0.2-1.9-1.3-3.2-1.8-4.8
		c-0.1,0-0.2,0-0.3,0.1C195.7,44.1,195.7,45.2,195.7,46.3z M180.1,47c0.7,0.7,1.3,1.4,2,2c0.1-0.1,0.2-0.2,0.3-0.3
		c-0.1-1.9-1.8-2.9-2.7-4.4c-0.1,0-0.2,0.1-0.3,0.1c0.2,1.1,0.4,2.2,0.6,3.3c0.1,0,0.2,0,0.3-0.1C180.2,47.5,180.1,47.2,180.1,47z
		 M193,42.6c0.1,0,0.2,0,0.3,0c0-0.3,0-0.5-0.1-0.7c0.6,0.7,1.1,1.5,1.7,2.2c0.1-0.1,0.3-0.2,0.4-0.3c0-1.9-1.5-3.1-2.3-4.6
		c-0.1,0-0.2,0.1-0.3,0.1C192.8,40.4,192.9,41.5,193,42.6z M173.6,33.7c0.9,0.5,1.7,0.9,2.5,1.4c0.1-0.1,0.1-0.2,0.2-0.4
		c-0.7-1.8-2.6-2.2-3.9-3.4c-0.1,0.1-0.2,0.1-0.3,0.2c0.5,1,1.1,2,1.6,3c0.1-0.1,0.2-0.1,0.3-0.2C173.9,34.1,173.7,33.9,173.6,33.7z
		 M181.6,39.4c0.7,0.6,1.4,1.1,2.1,1.7c0.1-0.1,0.2-0.2,0.3-0.3c-0.4-1.8-2-2.7-3.1-4c-0.1,0.1-0.2,0.1-0.3,0.2
		c0.3,1.1,0.6,2.1,0.9,3.2c0.1,0,0.2-0.1,0.3-0.1C181.7,39.8,181.7,39.6,181.6,39.4z M201.9,86.2c0.1,0.1,0.1,0.2,0.2,0.2
		c0.1-0.1,0.2-0.1,0.3-0.2c0.1,0,0.2,0,0.1,0c-0.2,0.9-0.4,1.8-0.5,2.6c0.1,0,0.3,0.1,0.4,0.1c1.5-1.2,1.4-3.1,2.2-4.7
		c-0.1-0.1-0.2-0.1-0.2-0.2C203.5,84.9,202.7,85.6,201.9,86.2z M189.6,84.4c1.3-0.9,2.1-3.1,2-5.2c-0.5,0.4-1.1,0.9-1.4,1.5
		c-0.2,0.4-0.2,0.9-0.3,1.4C189.8,82.8,189.8,83.5,189.6,84.4z M197.8,72c0.1,0.9,0.1,1.9,0.2,2.8c0.1,0,0.3,0,0.4,0
		c1.1-1.6,0.5-3.4,0.6-5.1c-0.1,0-0.2-0.1-0.3-0.1c-0.5,0.9-1,1.9-1.5,2.8c0.1,0,0.2,0.1,0.3,0.1C197.6,72.4,197.7,72.1,197.8,72z
		 M198.3,49.4c0.4,0.8,0.8,1.6,1.2,2.4c0.2-0.1,0.3-0.1,0.5-0.2c0.3-1.8-1-3.2-1.4-4.9c-0.1,0-0.2,0-0.3,0c-0.1,1.1-0.2,2.2-0.3,3.4
		c0.1,0,0.2,0,0.3,0C198.2,49.8,198.3,49.6,198.3,49.4z M150.4,81c0.2-1.4,0.4-2.7,0.6-3.9c-0.7,0-1.2,0-1.7,0c0,1.3,0,2.6,0,3.8
		C149.7,81,150,81,150.4,81z M187.9,47c0.1,0,0.2,0,0.3,0c0-0.3,0.1-0.5,0.1-0.6c0.5,0.7,1.1,1.4,1.6,2.1c0.1-0.1,0.2-0.2,0.4-0.2
		c0-1.9-1.4-3.1-2.3-4.8C187.9,44.8,187.9,45.9,187.9,47z M205.1,79.5c-1.9,1.1-2.6,3.1-1.8,4.9C204.8,83,204.5,81.1,205.1,79.5z
		 M178.8,26.8c-0.1,0-0.2,0.1-0.3,0.1c0.4,1,0.8,2,1.1,3c0.1,0,0.2-0.1,0.3-0.1c0-0.2-0.1-0.4-0.1-0.5c0.7,0.5,1.5,1,2.3,1.6
		c0.1-0.1,0.2-0.2,0.3-0.3C181.8,28.7,179.9,28.1,178.8,26.8z M186.9,44.6c0.1-0.1,0.2-0.2,0.3-0.2c0-2-1.8-2.9-2.8-4.4
		c0,1.1,0.3,2.2,0.5,3.2c0,0,0.1,0,0.2,0.1c0-0.3-0.1-0.6-0.1-0.7C185.6,43.2,186.3,43.9,186.9,44.6z M108.2,91.5
		c-0.1-0.9-0.1-1.7-0.4-2.4c-0.1-0.3-0.7-0.5-1.1-0.7c-0.2,0.3-0.4,0.7-0.5,1c-0.1,0.3,0.1,0.7,0.1,1.1
		C106.4,91.7,107.1,91.9,108.2,91.5z M169.5,22.1c0.6,2.4,2.3,3,4.2,3.5C172.9,23.7,171.1,23.3,169.5,22.1z M190.3,92.1
		c0.8,0.1,1.4,0.2,2.2,0.3c-0.5-1.5-1-2.8-1.4-4c-0.1,0-0.2,0-0.2,0C190.7,89.6,190.5,90.9,190.3,92.1z M109.6,42.8
		c2.8,0.1,1.7,2.5,2.3,3.9c0.8-1.4,0.8-2.8,0.1-3.6C111.3,42.5,110.5,42.3,109.6,42.8z M204.6,69.2c1.2-1.2,0.6-2.4,0.5-3.8
		c-0.5,0.3-0.8,0.5-1.2,0.8C204.1,67.2,204.4,68.2,204.6,69.2z M186.6,91.4c0.1,0.1,0.1,0.2,0.2,0.2c0.2-0.2,0.5-0.3,0.9-0.6
		c-0.3,0.5-0.4,0.7-0.5,1c1.2,0.3,2-0.6,2.2-2.7C188.4,90.1,187.5,90.7,186.6,91.4z M196.3,90.5c-0.1-0.1-0.1-0.2-0.2-0.2
		c-0.8,0.6-1.7,1.2-2.5,1.9c0.7,0.2,1.4,0.4,1.8,0.2C195.8,91.9,196,91.1,196.3,90.5z M194.8,90.6c-1-0.2-1.8-0.3-2.6-0.4
		c0.2,0.7,0.5,1.4,0.7,2.1C193.5,91.8,194.1,91.3,194.8,90.6z M201.3,91.9c1.4-0.3,1.8-0.9,1.9-2.4
		C202.3,90.1,201.1,90.4,201.3,91.9z M170.9,38.3c-0.1-1.3-1.8-2.4-3.8-2.5C168.4,36.6,169.7,37.4,170.9,38.3z M109.1,91.6
		c0.5,0,0.9-0.1,1.5-0.1c-0.3-0.9-0.5-1.7-0.8-2.4c-0.2,0-0.3,0.1-0.5,0.1C109.3,89.9,109.2,90.7,109.1,91.6z M195.9,85.7
		c-0.9-0.1-1.7-0.2-2.4-0.3c0.3,0.6,0.6,1.3,1,2.1C195,86.8,195.5,86.2,195.9,85.7z M184,39.3c-0.1-1.5-1.2-2.7-3-3.2
		C182,37.2,182.9,38.2,184,39.3z M194.3,80.4c0.4,0.6,0.8,1.4,1.3,2.2c0.5-0.7,0.9-1.3,1.2-1.7C196,80.6,195.2,80.5,194.3,80.4z
		 M190.3,89.3c-0.1,0-0.1,0-0.2-0.1c-0.5,1-1,1.9-1.5,3.1c0.6,0,0.9,0,1.3-0.1C190.1,91.2,190.2,90.2,190.3,89.3z M185.5,89.3
		c0.2,0.6,0.4,1.3,0.6,2c0.6-0.5,1.1-1,1.8-1.6C187,89.6,186.3,89.5,185.5,89.3z M201.8,89.7c-0.9-0.1-1.6-0.1-2.4-0.2
		c0.2,0.6,0.5,1.2,0.8,1.9C200.8,90.8,201.2,90.3,201.8,89.7z M179.8,44.1c0.8,1,1.7,2.1,2.5,3.1C182.1,45.6,181.1,44.7,179.8,44.1z
		 M201.6,75.1c0.4,0.5,0.9,1.1,1.4,1.8c0.4-0.7,0.7-1.3,1-1.8C203.2,75.1,202.4,75.1,201.6,75.1z M190.3,46.3c0.1,0,0.2-0.1,0.3-0.1
		c-0.3-1.5-1.2-2.5-2.5-3.4C188.8,44,189.5,45.2,190.3,46.3z M171.6,40.2c-0.3,0.9-0.5,1.5-0.8,2.2c0.6,0,1.2-0.1,1.9-0.1
		C172.3,41.5,172,41,171.6,40.2z M191.1,86.5c0.1,0.2,0.2,0.3,0.3,0.5c0.1-0.9,0.1-1.7,0.2-2.4c-0.1,0-0.1,0-0.2,0
		c-0.5,1.4-1,2.7-1.5,4.1c0.1,0,0.3,0.1,0.4,0.1C190.5,88,190.8,87.3,191.1,86.5z M187.8,79.6c0.4,0.6,0.8,1.4,1.2,2.1
		c0.5-0.6,0.8-1.1,1.1-1.5C189.4,80,188.6,79.8,187.8,79.6z M200.4,84.7c0.3,0.6,0.6,1.2,1,1.9c0.5-0.6,0.9-1.2,1.3-1.7
		C202,84.8,201.3,84.8,200.4,84.7z M173.6,34.9c-0.4-0.7-0.8-1.2-1.2-1.8c-0.1,0-0.2,0-0.3,0.1c-0.1,0.6-0.2,1.2-0.4,1.9
		C172.4,35,172.9,35,173.6,34.9z M189.3,84.9c-0.8-0.1-1.5-0.1-2.2-0.2c0.2,0.5,0.5,1.1,0.7,1.8C188.3,86,188.8,85.5,189.3,84.9z
		 M192.9,50.3c0.1,0,0.3-0.1,0.4-0.1c-0.6-1.2-1.3-2.4-1.9-3.6c-0.1,0-0.2,0.1-0.3,0.1C191.7,47.9,192.3,49.1,192.9,50.3z
		 M197.6,70.7c-0.8,0.1-1.4,0.3-2.2,0.4c0.4,0.5,0.9,0.9,1.3,1.4C197.1,71.9,197.4,71.3,197.6,70.7z M175.9,37.5
		c0.5,0,1.1-0.1,1.7-0.1c-0.4-0.6-0.7-1.2-1.1-1.9C176.3,36.4,176.2,36.9,175.9,37.5z M175.6,43.1c-0.4,0.8-0.6,1.3-0.9,1.9
		c0.5,0,1.1,0,1.7,0C176.2,44.4,175.9,43.9,175.6,43.1z M193,75.3c-0.5,1.3-0.4,2.4,0.6,3.6C193.4,77.6,193.2,76.4,193,75.3z
		 M128.8,43.9c1-0.8,1-1.6,0-2.5C128.8,42.3,128.8,43.1,128.8,43.9z M180.5,38.4c-0.3,0.8-0.5,1.3-0.7,1.9c0.5,0,1,0.1,1.6,0.1
		C181.1,39.8,180.9,39.3,180.5,38.4z M178.2,48c0.6,0,1,0.1,1.6,0.1c-0.2-0.6-0.4-1.2-0.6-1.9C178.8,47,178.6,47.4,178.2,48z
		 M183.2,43.5c0.6,0.1,1,0.1,1.5,0.2c-0.2-0.7-0.4-1.2-0.6-2C183.7,42.4,183.5,42.9,183.2,43.5z M192.5,41.2c-0.1,0-0.2,0-0.3,0
		c-0.3,0.4-0.6,0.9-0.9,1.4c0.5,0.1,1,0.2,1.5,0.4C192.7,42.3,192.6,41.7,192.5,41.2z M102.4,90.1c-0.1,0-0.1,0.1-0.2,0.1
		c0,0.5,0,1,0,1.6c0.4,0,0.8,0,1.3-0.1C103.1,91.1,102.7,90.6,102.4,90.1z M187.7,47.3c-0.1-0.7-0.2-1.2-0.4-2
		c-0.4,0.7-0.7,1.2-1,1.7C186.7,47,187.1,47.1,187.7,47.3z M101.2,86.1c-1-0.2-1.8-0.3-2.8-0.5C99.3,86.5,100,86.8,101.2,86.1z
		 M190.1,49c-0.5,0.7-0.8,1.1-1.1,1.5c0.4,0.1,0.8,0.3,1.3,0.5C190.2,50.3,190.2,49.8,190.1,49z M192.2,82.8c0.1,0,0.2,0,0.3,0.1
		c0-1.1,0-2.2,0-3.2c-0.1,0-0.2,0-0.3,0C192.2,80.6,192.2,81.7,192.2,82.8z M191,73.8c-0.1-0.1-0.2-0.1-0.4-0.2
		c-0.3,0.2-0.6,0.4-1,0.6c0.2,0.3,0.4,0.6,0.8,1.1C190.6,74.6,190.8,74.2,191,73.8z"/>
	<path d="M133.6,29.6c0.3-0.1,0.6-0.1,0.9-0.2c0-0.6,0.1-1.1,0.1-1.7c-0.9-0.7-1-1.7-1.1-2.8c0-0.4-0.2-1-0.4-1
		c-1.4-0.1-2.7-1.4-4.2-0.2c-0.2,0.1-0.6,0-0.8,0.1c-0.2,0.1-0.7,0.2-0.7,0.4c-0.1,1.3-1.3,1.7-2.1,2.3c-1.4,1-1.7,1.3-1.3,2.9
		c0.7,0.3,1.4,0.6,2.1,0.9c-1.3,0.7-2.4,0.4-3-0.6c-0.7-1.2-0.4-2.5,0.7-3.4c1.1-0.9,2-2,3-3c0.2-0.2,0.4-0.6,0.6-0.6
		c1.4-0.1,2.7-0.8,4.1-0.1c0.4,0.2,0.9,0.4,1.4,0.4c0.7,0.1,1.1,0.3,1.3,1.1c0.2,0.8,1,1.5,1.4,2.3c0.4,1,0.4,2.6-0.5,3.1
		c-0.4,0.2-1,0.3-1.5,0.5C133.7,29.9,133.7,29.7,133.6,29.6z"/>
	<path d="M146,29.8c-0.4,0.7-0.8,1.2-1.1,1.8c-0.4,0.7-2.1,0.8-3.3,0c0.6-0.1,0.9-0.2,1.3-0.1c0.8,0,1.5-0.2,1.6-1
		c0-0.5-0.5-1.1-0.8-1.5c-0.3-0.3-0.7-0.6-1-0.8c-0.4-0.2-0.8-0.3-1.2-0.4c0-0.1,0-0.2,0-0.4c0.6-0.1,1.2-0.5,1.6-0.3
		c0.9,0.4,2.5,0,2.4,1.8C145.4,29.3,145.9,29.6,146,29.8z"/>
	<path d="M155.1,109.5c0.2-0.2,0.4-0.4,0.6-0.5c3.7-1.2,7.3-2.3,11.2-2.2c7.7,0.2,15.4,0,23.1,0.1c0.4,0,0.8,0.1,1.2,0.2
		c0,0.1,0,0.2,0,0.4c-0.4,0-0.8,0.1-1.2,0.1c-7.4,0-14.8,0.1-22.2,0c-3.5-0.1-6.9,0.5-10.2,1.6c-0.7,0.3-1.5,0.5-2.2,0.7
		C155.2,109.7,155.2,109.6,155.1,109.5z"/>
	<path d="M155.2,111.7c0.3-0.1,0.6-0.2,1-0.3c3.6-1,7.2-1.6,10.9-1.6c6.9,0.1,13.8,0,20.7,0c0.4,0,0.9,0,1.3,0
		c0,0.1,0.1,0.2,0.1,0.3c-0.3,0.1-0.5,0.3-0.8,0.3c-1.2,0-2.4,0-3.5,0c-5.7,0-11.4,0.1-17.1,0c-3.9-0.1-7.7,0.4-11.4,1.5
		c-0.4,0.1-0.7,0.1-1.1,0.2C155.2,112,155.2,111.8,155.2,111.7z"/>
	<path d="M186.2,112.9c-0.4,0-0.8,0.1-1.2,0.1c-6.5,0-13,0.1-19.5,0c-3.1,0-5.9,0.5-8.8,1.5c-0.4,0.1-0.8,0.2-1.2,0.3
		c0-0.1-0.1-0.2-0.1-0.3c0.3-0.2,0.5-0.4,0.8-0.5c2.8-1,5.6-1.7,8.7-1.6c6.8,0.1,13.5,0,20.3,0c0.4,0,0.7,0.1,1.1,0.2
		C186.2,112.7,186.2,112.8,186.2,112.9z"/>
	<path d="M105.3,107c0.3-0.1,0.6-0.2,0.9-0.2c8.6,0,17.2-0.1,25.9,0c3.2,0,6.2,1.4,9.3,2.3c0,0.1,0,0.2,0,0.3
		c-0.2,0.1-0.5,0.2-0.6,0.1c-0.5-0.1-1.1-0.3-1.6-0.5c-3.4-1.2-6.8-1.8-10.4-1.7c-7.4,0.1-14.7,0-22.1,0c-0.4,0-0.8,0-1.3,0
		C105.3,107.3,105.3,107.2,105.3,107z"/>
	<path d="M141.1,112.1c-0.3-0.1-0.7-0.1-1-0.2c-3.8-1.1-7.7-1.6-11.7-1.5c-6.6,0.1-13.2,0-19.9,0c-0.4,0-0.8-0.1-1.2-0.2
		c0-0.1,0-0.3,0-0.4c0.3,0,0.7-0.1,1-0.1c8.1,0,16.3-0.1,24.4,0.1c2.7,0.1,5.4,1,8.1,1.6c0.1,0,0.2,0.2,0.4,0.3
		C141.2,111.9,141.1,112,141.1,112.1z"/>
	<path d="M110.2,112.6c0.3-0.1,0.6-0.2,0.9-0.2c7.4,0,14.9-0.1,22.3,0.1c2.5,0.1,4.9,1.1,7.3,1.7c0.1,0,0.2,0.2,0.3,0.3
		c0,0,0,0.1-0.1,0.4c-0.4-0.1-0.7-0.2-1.1-0.3c-2.9-1.1-6-1.6-9.1-1.5c-6.4,0.1-12.9,0-19.3,0c-0.4,0-0.8,0-1.2,0
		C110.2,112.9,110.2,112.7,110.2,112.6z"/>
	<path d="M138.7,73.9c0.7-0.6,1.3-1.1,1.9-1.5c0.7,0.1,1.5,0.3,2.3,0.4c0,0.9-0.7,1.5-1.6,1.8C140.2,74.8,139.3,74.7,138.7,73.9z
		 M142.5,73.5c-1.5-0.9-2.3-0.7-2.8,0.8C140.6,74.1,141.4,73.8,142.5,73.5z"/>
	<path d="M148.9,71.6c0.7,0.3,1.4,0.6,2.2,1c-0.3,1-1.2,1.3-2.2,1.3c-1,0-1.8-0.4-2.2-1.3C147.6,72.2,148.3,71.9,148.9,71.6z
		 M147.6,72.9c1,0.7,1.8,0.7,2.8,0c-0.5-0.3-0.9-0.5-1.4-0.8C148.5,72.4,148,72.6,147.6,72.9z"/>
	<path d="M155,72.8c0.9-0.1,1.6-0.3,2.4-0.4c0.5,0.5,1.2,1,1.8,1.5c-0.5,0.7-1.2,0.9-2.2,0.7C156,74.4,155.1,73.9,155,72.8z
		 M158.4,74.1c-0.7-1.2-1.6-1.4-2.7-0.7C156.4,74.2,157.3,74.4,158.4,74.1z"/>
	<path d="M196.7,49.2c-0.1,0.3-0.2,0.6-0.2,0.9c-1-0.7-1.9-1.5-2.9-2.2c0.1-0.1,0.1-0.2,0.2-0.2C194.7,48.2,195.7,48.7,196.7,49.2z"
		/>
</g>
</svg>
