<?xml version="1.0" encoding="utf-8"?>
<!-- Generator: Adobe Illustrator 26.0.3, SVG Export Plug-In . SVG Version: 6.00 Build 0)  -->
<svg version="1.1" id="Слой_1" xmlns="http://www.w3.org/2000/svg" xmlns:xlink="http://www.w3.org/1999/xlink" x="0px" y="0px"
	 viewBox="0 0 239.5 150.2" style="enable-background:new 0 0 239.5 150.2;" xml:space="preserve">
<g>
	<g>
		<path d="M184.3,9.5c0.1-0.8,0.3-1.7,0.5-2.5c0.2,0.7,0.7,1.2,0.9,1.9c0.6-0.3,1.3-0.5,2-0.5c-0.1,0.2-0.1,0.5-0.3,0.7
			c-0.4,0.4-0.7,0.9-1.1,1.3c0.2,0.8,0.5,1.6,0.5,2.5c-0.5-0.2-0.9-0.6-1.2-0.9c0.1,1.1-0.1,2.2-0.1,3.3c0.1-0.2,0.2-0.3,0.3-0.5
			c0.1,0.8,0.5,1.5,0.6,2.3c-0.1,0.2-0.1,0.4-0.2,0.5c-0.2-0.5,0-1.1-0.3-1.6c-0.3,1.3,0.1,2.7,0.3,4c0.2-0.1,0.4-0.3,0.5-0.4
			c0,0.2,0,0.5,0,0.7c-0.1,0-0.3,0.1-0.5,0.2c0,0.2,0.1,0.5,0.1,0.7c0.1-0.2,0.2-0.5,0.2-0.7c0.4,0.4,0.5,1,0.4,1.5
			c-0.1,0-0.2-0.1-0.3-0.1c0-0.3,0-0.6-0.3-0.6c0.1,1.2,0.2,2.5,0.7,3.6c0,0,0.1-0.1,0.2-0.1c0-0.8-0.4-1.5-0.5-2.3
			c0-0.2,0.1-0.4,0.3-0.4c0.2,1.3,0.6,2.7,0.7,4c0,0.2,0.1,0.5,0.1,0.7c-0.2-0.1-0.4-0.2-0.5-0.3c0.1-0.5,0.3-1.3-0.3-1.5
			c-0.3,0.7,0,1.4,0.1,2c0.1,1,0.2,2,0.4,3c0.3,0.7,0.3,1.4,0.4,2.1c0.2-0.2,0.4-0.4,0.4-0.7c0.1-0.5-0.3-0.8-0.4-1.2
			c0.1-0.2,0.3-0.4,0.5-0.6c0.2,0.8,0.2,1.7,0.8,2.4c-0.3,0.5,0,0.9,0.1,1.4c0,0.4-0.1,0.8-0.2,1.1c-0.4,0.8-1.4,1.1-1.8,1.9
			c-0.2,0.3-0.3,0.6-0.4,0.9c0-0.2,0-0.4,0-0.6c-0.4-0.2-0.8-0.4-1.2-0.6c0.4-0.1,0.7-0.3,1.1-0.4c-0.1-0.5-0.5-0.7-1-0.8
			c0.3-0.2,0.6-0.4,0.8-0.7c-0.1-0.4-0.5-0.6-0.7-0.8c0.2-0.1,0.5-0.2,0.7-0.2c-0.1-0.3-0.3-0.7-0.6-0.9c0.1-0.3,0.3-0.6,0.2-0.9
			c-0.1-0.3-0.3-0.5-0.4-0.8c0.2,0,0.4,0.1,0.7,0.1c-0.2-0.4-0.5-0.8-0.9-1.2c0.2-0.1,0.4-0.2,0.6-0.2c-0.1-0.4-0.3-0.7-0.6-1
			c0.2-0.1,0.4-0.1,0.7-0.2c-0.1-0.4-0.3-0.7-0.6-1c0.2-0.2,0.3-0.4,0.5-0.6c-0.1-0.2-0.3-0.5-0.5-0.7c0.2-0.6,0.1-1.3,0-1.9
			c0-0.3-0.2-0.5-0.4-0.7c0.2-0.2,0.3-0.5,0.5-0.7c-0.1-0.2-0.3-0.4-0.4-0.6c0.1-0.2,0.3-0.5,0.2-0.7c-0.3-0.9,0.1-1.8-0.1-2.6
			c-0.1-0.6-0.1-1.3-0.2-1.9c-0.2,0.9-0.1,1.8-0.3,2.8c-0.2,1.2-0.1,2.4-0.3,3.6c-0.3,3-0.6,6.1-1,9.1c-0.3,0.7-0.1,1.5-0.1,2.2
			c0.6-0.6,0.5-1.5,0.7-2.2c0.4,1.1,0,2.3,0.7,3.3c0.5,0.8,1.5,1.1,2.1,1.9c0,0.5,0.2,1.1-0.3,1.5c-0.2-0.4-0.2-0.9-0.4-1.4
			c-0.3-0.4-0.9-0.6-1.2-1c-0.4-0.4-0.6-0.9-0.7-1.5c-0.1-0.4-0.5-0.4-0.8-0.6c-0.1,0.5-0.2,0.9-0.3,1.4c0.2-0.4,0.4-0.7,0.7-1.1
			c-0.2,1.2-1.2,2-2,2.8c-0.3,0.3-0.3,0.8-0.3,1.2c0.4-0.4,0.5-1.1,1-1.4c0.5-0.3,1-0.8,1.3-1.3c-0.1,0.8-0.8,1.4-1.3,1.9
			c-0.3,0.3-0.2,0.8-0.3,1.2c-0.5,0.2-1.1,0.1-1.6-0.1c0.2,0.3,0.3,0.6,0.4,0.9c0.5-0.1,1-0.1,1.3-0.5c-0.1,1,0.1,2,0.2,3
			c0-1,0-2,0.4-2.8c0.2-0.4,0.5-0.7,0.8-1.1c0.3-0.3,0.5-0.8,1-1c0.2,0.4,0.6,0.8,0.8,1.3c0,0.3,0,0.6,0,1c0.1-0.3,0.3-0.6,0.4-0.8
			c0-0.5-0.4-0.9-0.5-1.3c0.6,0.3,0.9,0.9,1,1.5c0.7,0,1.4,0.1,2-0.4c-0.5,0-0.9,0-1.4,0.1c0.1-0.6,0.1-1.4,0.9-1.6
			c-0.2,0.2-0.3,0.4-0.5,0.6c0,0.1,0.1,0.3,0.1,0.4c0.4-0.7,1.1-1,1.6-1.6c0.4-0.9,0.5-2,0.4-3c0-0.4-0.1-0.8,0.1-1.1
			c0.3,0.7,0.3,1.4,0.3,2.2c-0.1,0.7,0.4,1.3,0.7,1.9c0.5,0,1.1,0,1.6-0.1c0.1-0.2,0.3-0.5,0.4-0.7c0,0.3,0.2,0.7-0.2,0.9
			c-0.5,0.3-1.1,0.2-1.6,0.2c0.6,0.7,1.3,1.3,1.7,2.2c0.4-1.3,0.5-2.6,0.5-4c0-0.4-0.5-0.4-0.7-0.6c0.2-0.2,0.5-0.4,0.8-0.6
			c0.1,0.3,0.2,0.5,0.2,0.8c0.1,2.2,0,4.4,0.4,6.5c0,0.2,0.1,0.5,0.1,0.8c0,0.3-0.4,0.3-0.6,0.5c0.1,1.3,0.1,2.6,0,3.9
			c0.2,0.4,0.5,0.7,0.7,1.1c-0.1,0.2-0.3,0.3-0.4,0.5c0,0.9,0.2,1.7,0.1,2.6c-0.1,0.4,0,0.8,0.1,1.2c-0.1,0-0.2,0-0.3,0
			c0,0.4,0,0.8,0.1,1.1c0.3,1.5,0.3,3.1,0.3,4.7c0,0.4-0.2,0.8-0.4,1.2c0.6-0.4,0.6-1.1,1-1.7c0.2,0.7,0.2,1.5,0.3,2.2
			c0.1,0.6,0.4,1.1,0.5,1.7c0.4,1.7,0.3,3.4,0.1,5.1c0,1.2,0,2.4,0.1,3.5c0,0.2,0.1,0.5,0.2,0.7c0.4-2.4,0.6-4.8,0.8-7.2
			c0.1,1.1-0.1,2.1,0.1,3.2c0.1,1.2,0,2.4,0.1,3.6c0,0.8,0.1,1.5-0.1,2.3c-0.1,0.1-0.2,0.2-0.3,0.3c-0.2-0.4-0.2-0.9-0.2-1.4
			c0.1-1.2,0.3-2.4,0.2-3.6c-0.3,1-0.3,2.1-0.5,3.1c-0.2-0.1-0.3-0.2-0.5-0.3c-0.2,0.7-0.3,1.5-0.3,2.2c0.4-0.1,0.3-0.6,0.4-0.9
			c0.1,0.3,0.2,0.6,0.2,0.9c0.6-0.1,1.2-0.1,1.7-0.2c-0.2-0.2-0.3-0.3-0.5-0.5c-0.1-2.2,0-4.5-0.2-6.7c0-0.9-0.1-1.8,0.3-2.6
			c0,1.2,0.1,2.3,0.2,3.5c0.2,1.8,0.2,3.6,0.5,5.4c0-0.4,0-0.7,0-1.1c0.3,0.6,0.7,1.2,1.1,1.8c0.2,1-0.1,1.9-0.1,2.9
			c-0.8,0-1.7,0-2.5,0c-0.5,0-0.9-0.1-1.3-0.2c0.2-0.1,0.3-0.3,0.5-0.4c-0.1-0.6,0.2-1.4-0.3-1.9c-0.2,0.5-0.1,1-0.1,1.5
			c0,0.2-0.1,0.3-0.3,0.4c0-0.4,0-0.9-0.1-1.3c-0.3-0.5-0.7-0.8-0.9-1.3c-0.2-0.4,0-0.9-0.3-1.2c-0.4-0.3-0.9-0.3-1.4-0.4
			c-0.2-0.4,0.1-0.9,0.1-1.4c-0.7,0-1.3,0-2-0.2c0,0.3,0,0.7,0.1,1c0.2,0.4,0.5,0.7,0.6,1.2c0,0.4,0,0.8,0,1.2
			c0.5-0.4,0.7-1.1,1-1.6c0.2,0.9-0.6,1.6-0.9,2.3c0.9-0.3,0.9-1.4,1.5-2c0.2,0.9,0,1.9-0.7,2.5c-0.3,0.2-0.4,0.7-0.4,1
			c0.5-0.5,1-1,1.5-1.5c0.1,0.2,0.1,0.5,0.2,0.7c0.4,0.4,0.9,0.7,1.2,1.2c0.6,1.2,0.5,2.6,0.4,3.9c-0.9,0.3-1.9,0.4-2.9,0.3
			c-0.2,0-0.5-0.1-0.4-0.3c0.1-0.4,0.2-0.9,0.2-1.4c-0.2,0-0.5-0.1-0.7-0.2c-0.2-0.5,0-1.1,0-1.6c0.4,0.1,0.3,0.6,0.5,1
			c0-0.7-0.2-1.3-0.3-1.9c0-0.5,0-1.1,0-1.6c-0.7,0.4-1.4,0.4-2.1,0.6c-0.3,0.1-0.5-0.1-0.7-0.2c0.1-0.2,0.2-0.3,0.2-0.5
			c-0.3-0.3-0.2-0.8-0.2-1.2c0.1-0.3,0-0.7,0.3-1c0,0.5-0.1,1,0,1.5c0.2,0.2,0.4,0.4,0.7,0.6c0.4,0,0.9-0.1,1.3-0.1
			c-0.1-0.6,0.1-1.2,0.2-1.8c-0.4,0-0.8-0.1-1.2,0c0.4-0.7,0-1.4-0.1-2.1c-0.2,0.1-0.3,0.2-0.5,0.3c-1,0-1.9,0-2.9-0.1
			c0.1,0.4,0.1,0.8,0.2,1.2c0.2,0.2,0.5,0.4,0.7,0.6c0.2,0.4,0.1,0.9,0.2,1.4c0.2,0.4,0.5,0.6,0.8,0.8c0.1,0.2-0.1,0.4-0.3,0.5
			c-0.4-0.2-0.8-0.4-1-0.9c-0.1-0.6,0.1-1.2-0.3-1.7c-0.5-0.5-0.3-1.3-0.3-1.9c0.6-0.1,1.3-0.1,1.9-0.3c-0.7-0.1-1.4-0.1-2,0
			c0,0.6,0,1.3-0.4,1.8c0.1-0.6,0.1-1.2,0.1-1.8c-0.5,0.6-1.3,0.3-2,0.3c0.3,0.3,0.6,0.7,0.7,1.1c0.2,1.1,0.2,2.2,0.6,3.3
			c0.1-0.8,0.1-1.5,0.2-2.3c0.3,0,0.6,0.1,0.9,0.2c0.2,0.1,0.1,0.4,0.1,0.6c-0.2-0.2-0.3-0.3-0.5-0.5c0,0.4,0.1,0.8,0,1.1
			c-0.1,0.3-0.3,0.7-0.5,1c0.5,0.4,0.9,0.8,1.5,1.1c-0.1-0.4-0.8-0.9-0.4-1.2c0.9,0.8,1.9,1.8,1.9,3.1c-0.1,1.3-0.2,2.5,0,3.8
			c0.2,0.2,0.6,0.1,0.8,0.1c0.6-0.1,1.2-0.1,1.8,0c0-0.9,0-1.9,0-2.8c0-0.1,0.1-0.2,0.1-0.3c0.4-0.2,0.7,0.3,0.6,0.6
			c0,0.4-0.5,0.6-0.4,1.1c0.1,0,0.2,0.1,0.3,0.2c0,0.5,0,1,0,1.6c1.5-0.2,3.1-0.3,4.6-0.2c-0.3-0.1-0.6-0.2-0.9-0.3
			c0.6-0.1,1.3-0.1,1.9-0.2c0-0.4,0-0.8-0.1-1.2c-0.3,0-0.6-0.1-0.9-0.1c0-0.9,0-1.9,0.1-2.8c-0.2,0-0.4,0-0.6,0
			c-0.1,1.2,0.3,2.4,0,3.6c0.1,0,0.4,0.1,0.5,0.1c-0.3,0.4-0.8,0.4-1.2,0.2c0.2-0.1,0.3-0.2,0.5-0.3c-0.4-1.3,0-2.6-0.2-3.9
			c0.7,0.1,1.4,0,2,0.3c-0.5,0.6-0.2,1.4-0.3,2.1c0.2,0.1,0.3,0.2,0.5,0.2c0,0.4,0,0.8,0.1,1.2c0.1,0,0.3,0.1,0.4,0.1
			c0.1,0.1,0.2,0.3,0.2,0.5c0.1,0,0.3,0.1,0.4,0.1c0-1.5,0.1-3,0.2-4.6c0.4,0.3,0.3,0.8,0.4,1.2c0.1,1.2,0.5,2.5,0.3,3.7
			c0.1,0.4,0.4,0.7,0.6,1.1c0-1.1,0-2.2,0-3.3c0-0.3-0.2-0.6-0.3-0.9c0.3-0.4,0.8-0.1,1.1,0c-0.1-0.7-0.1-1.3-0.2-2
			c0.1,0,0.2,0,0.3,0c-0.1-1.6-0.4-3.2-0.2-4.8c0.2,0.5,0.2,1.1,0.3,1.6c0.2,1.8,0.5,3.7,0.9,5.5c0.1,0.6,0.5,1,0.9,1.4
			c-0.2,0.3-0.4,0.7-0.4,1.1c0.2,1.4-0.3,2.7,0,4.1c0,0.3,0,0.6,0,0.9c-0.1,0.7,0.7,1.2,0.7,1.9c-0.1,0.4-0.4,0.8-0.7,1.1
			c0-0.1-0.1-0.3-0.2-0.4c-0.2,0-0.3,0-0.5,0c-0.9-1.3-1.5-2.7-2.3-4c-0.3-0.5-0.6-0.9-1-1.4c0.1,0.8,0.1,1.7,0.1,2.5
			c0,2.7,0,5.5,0,8.2c0,0.3-0.1,0.6-0.2,0.8c-0.3-0.3-0.2-0.7-0.2-1.1c0-2.4,0-4.9,0.1-7.3c0-1.1-0.1-2.1,0.1-3.2
			c-2.5,0-5-0.1-7.4-0.2c-0.1,0.3-0.3,0.7-0.3,1c0,1.7,0.1,3.3,0,5c0.5,0.4,1,0.8,1.1,1.5c-0.2,0.1-0.4,0.2-0.6,0.2
			c0.1,0.5,0,1.1,0,1.6c-0.9,0.1-1.9,0.1-2.8,0c0.7-0.2,1.3-0.3,2-0.4c0-0.7-0.1-1.4-0.1-2.1c-0.5,0-1-0.1-1.4-0.2
			c0.3-0.4,1-0.3,1.5-0.4c0-2.5-0.1-4.9,0.2-7.4c-1.3-0.1-2.6-0.2-3.9-0.1c-0.1-0.9-0.2-1.9-0.8-2.6c-0.7-1.1-1.8-2-2.6-3.1
			c0.6,0.4,1.1,0.9,1.6,1.4c0.7,0.6,1.5,1.2,1.8,2.1c0.3,0.5,0.3,1.2,0.5,1.7c0.1-1.1,0-2.3-0.8-3.1c-0.4-0.5-1-0.9-1.3-1.5
			c0.5,0.5,1.1,0.9,1.6,1.4c0.6,0.6,0.7,1.5,0.8,2.4c0-0.7,0-1.5-0.3-2.1c-0.5-0.9-1.2-1.6-1.9-2.3c-0.8-0.7-1.2-1.8-1.1-2.8
			c0-0.8,0.3-1.7-0.1-2.5c-0.2-0.5-0.7-0.7-1.1-0.8c-1,0-1.9,0.1-2.9,0c0.7-0.4,1.6-0.3,2.4-0.5c-0.9-0.4-1.8,0-2.7,0.1
			c0.1,0.4,0.3,0.9,0.4,1.4c0.2,0.4,0.6,0.7,0.9,1c0,0.4-0.2,0.7,0,1.1c0.1,0.4,0.3,0.8,0,1.2c-0.4,0.7-1.2,1-1.6,1.7
			c-0.4,0.5-0.9,0.9-1.3,1.4c-0.1,0.2-0.4,0.3-0.7,0.3c0-0.2,0-0.5,0.1-0.7c-0.9,0-1.7,0.2-2.6,0c-0.2-0.4,0.3-0.6,0.6-0.6
			c0.6-0.1,1.2,0,1.8,0c0-0.4-0.1-0.7-0.1-1.1c0.1,0.2,0.2,0.4,0.2,0.5c0.2-0.1,0.3-0.2,0.5-0.4c-0.2-0.1-0.3-0.1-0.5-0.2
			c0-0.3,0.3-0.4,0.4-0.7c-0.9,0.2-1.9,0.4-2.8,0c0.7-0.2,1.4-0.2,2-0.3c-0.2-0.2-0.4-0.4-0.5-0.6c-0.2-0.6,0-1.3-0.4-1.8
			c0.2-0.2,0.4-0.3,0.5-0.4c-0.2,0-0.3-0.1-0.5-0.1c0-0.3,0.3-0.6,0.1-0.9c-0.2-0.4-0.1-0.9-0.1-1.4c-0.8,0.7,0,2.2-1,2.8
			c-0.2-1-0.1-2.1,0.4-3c-0.2,0-0.4-0.1-0.6-0.2c0.2-0.3,0.3-0.5,0.5-0.8c-0.4-0.8-0.1-1.7-0.1-2.5c0.1,0,0.4,0,0.5,0
			c0,0.5,0,1,0.1,1.6c0.2,0.2,0.5,0.3,0.7,0.5c-0.2,0.3-0.4,0.5-0.6,0.8c0.5,0.7,0,1.8,0.8,2.4c0.3,0.3,0.5,0.7,0.7,0.9
			c-0.1,0.1-0.3,0.3-0.4,0.4c0.2,0.3,0.2,0.6,0.1,0.9c-0.1,0.4,0.3,0.6,0.6,0.9c0,0.3-0.1,0.7,0.2,1c0.6-0.2,0.7-0.8,0.9-1.3
			c0.2,0.9-0.5,1.6-1,2.2c0.5-0.2,0.9-0.6,1.4-0.9c-0.2,0.5-0.6,1-1.1,1.3c-0.3,0.2-0.4,0.4-0.5,0.7c0.8-0.3,1.4-0.9,2.2-1.3
			c0.3-0.2,0.5-0.5,0.7-0.8c-0.6-0.4-0.6-1.1-0.5-1.7c-0.2-0.1-0.3-0.1-0.5-0.2c0.1-0.2,0.1-0.4,0.2-0.6c-0.2-0.1-0.4-0.3-0.6-0.4
			c0.3-0.6,0-1.1,0-1.7c0.2-0.4,0.4-0.9,0.4-1.4c-0.4-0.4-0.9-0.9-1.1-1.5c0.9,0.9,1.9,1.8,3.2,2.1c1.6,0.3,3.5,0.3,4.9-0.6
			c1.5-0.9,2.7-2.4,3-4.2c0.1-0.8,0.2-1.7,0.2-2.5c0-0.4-0.3-0.8-0.4-1.2c-0.2-0.6-0.4-1.2-0.8-1.6c-0.5-0.5-1.2-0.8-1.7-1.2
			c-1.3-0.8-2.2-2.3-2.2-3.8c0-0.4,0-0.8-0.1-1.2c-0.4-0.2-0.7-0.2-1.1-0.3c0.4-0.3,0.7-0.6,1.1-1c0.3,0.1,0.7,0.2,0.9,0.6
			c-0.1,1.3-0.1,2.6,0.4,3.7c0.7,1.4,2.4,1.7,3.3,2.9c-0.1-0.8,0-1.6,0.1-2.3c0.1-1.6-0.4-3.2,0.1-4.7c-0.3-0.1-0.6-0.2-0.9-0.3
			c0,2,0.1,4.1-0.3,6.1c-0.1,0-0.2,0-0.2,0c-0.2-0.3-0.2-0.7-0.3-1c-0.2-1.5-0.1-3.1-0.2-4.6c0-0.2-0.2-0.4-0.4-0.4
			c-0.8-0.1-1.5-0.1-2.3-0.1c-0.2,0-0.4,0.1-0.6,0.2c-0.8-0.5-1.9-0.1-2.8-0.3c0.2-0.1,0.4-0.2,0.6-0.2c1.8-0.2,3.6-0.1,5.4-0.4
			c-0.5,0-1,0-1.3-0.4c0.5,0,0.9,0.1,1.4,0.1c-0.1-0.3-0.1-0.6-0.2-0.8c-1.3,0.1-2.7,0.1-4,0.2c-0.8,0-1.6,0.1-2.4,0
			c0.5-0.4,1.2-0.3,1.8-0.4c0.1-1.2-0.1-2.5-0.1-3.7c-0.3,0-0.7,0-1-0.1c0,0.3,0,0.7,0,1c-0.5-0.4-0.2-1.1-0.6-1.5
			c0.4,0,0.9-0.1,1.3-0.1c-0.2,0.2-0.4,0.4-0.7,0.4c0.3-0.1,0.6-0.1,0.9-0.1c0-1.3,0.2-2.5,0.2-3.8c-0.3,0-0.6,0-0.9-0.1
			c0,1.1,0.2,2.2-0.1,3.3c-0.1,0-0.3,0.1-0.4,0.2c-0.1-1.4,0.3-2.8-0.1-4.2c-0.4,0-0.7-0.1-1.1-0.1c0.3-0.3,0.6-0.3,1-0.4
			c-0.2-0.4-0.4-0.7-0.7-1.1c-0.2-0.1-0.4-0.2-0.7-0.3c-0.1,1.1-0.9,1.9-1.1,2.9c0.2,0,0.4,0.1,0.6,0.1c-0.3,1.6,0,3.1,0,4.7
			c0.4-0.2,0.8-0.4,1.1-0.6c0,0.4,0.1,0.7,0.1,1.1c0.6-0.2,1.2-0.4,1.8-0.4c-0.1,0.2-0.2,0.3-0.4,0.4c-0.6,0.1-1.1,0.2-1.7,0.3
			c0-0.4,0-0.8,0.1-1.2c-0.3,0.2-0.6,0.4-0.9,0.6c-0.4,0.5-0.5,1.2-0.4,1.9c0.5-0.3,1-0.7,1.6-0.9c-0.3,0.8-1.2,1-1.9,1.4
			c0,0.5,0,1,0.1,1.4c0.5-0.2,1.1-0.5,1.6-0.6c-0.9,0.6-1.8,1.1-2.8,1.6c0.3,0.3,0.5,0.8,0.6,1.3c0.9-0.5,1.8-1.1,2.8-1.4
			c-0.9,0.8-2,1.4-3,2.1c-0.2,0.5,0,1,0,1.5c0,1.4,0.1,2.8,0,4.2c0.7,0,1.4-0.1,1.9-0.5c0-0.9,0-1.9,0.3-2.8
			c0.2,0.9,0.1,1.8,0.3,2.7c-0.6,0.3-1.1,0.8-1.6,1.3c-0.2-0.1-0.4-0.2-0.6-0.2c-0.6,0.2-1.2,0.5-1.8,0.5c0-0.8,0-1.6-0.3-2.4
			c-0.1,0.8-0.1,1.6-0.2,2.4c-0.1,0-0.3,0.1-0.4,0.1c-0.1-1.1,0.1-2.3,0.1-3.4c0-0.7,0-1.4,0.4-1.9c0.2,0.7,0.1,1.4,0.1,2.1
			c0.2,0.8,0.3,1.6,0.6,2.3c0.1,0,0.3-0.1,0.3-0.1c0.1-2.1,0.3-4.3,0.4-6.4c0-0.4-0.1-0.7-0.2-1.1c-0.1,0-0.4,0-0.5,0
			c0.3-0.6,0.3-1.3,0.3-2c0,0,0.1,0,0.1,0c0,0.5,0.1,1,0.1,1.5c0.3-0.1,0.5-0.3,0.8-0.4c0-0.6-0.1-1.2-0.1-1.7
			c-0.3,0.1-0.6,0.2-0.9,0.2c0.1-0.6,0.2-1.2,0-1.7c-0.2-0.4,0.2-0.7,0.5-0.9c0-1-0.1-2,0-3c0.3,1,0.2,2.1,0.3,3.2
			c-0.2,0.1-0.4,0.3-0.6,0.4c0.2,0.4,0.3,0.9,0.2,1.4c0.3-0.1,0.6-0.1,0.9-0.2c0-0.3,0-0.6,0.1-0.8c-0.3-0.1-0.7-0.1-1-0.2
			c0-0.1,0-0.2,0-0.2c0.4-0.2,0.7-0.3,1.1-0.4c-0.1-1.3-0.1-2.5,0-3.8c-0.2,0-0.5-0.1-0.7-0.1c-0.1,0.2-0.2,0.4-0.3,0.6
			c-0.1-0.3-0.1-0.6-0.2-0.8c0.4,0.3,0.8,0,1.2,0c-0.2-0.1-0.4-0.3-0.7-0.3c-0.3,0-0.6,0.1-0.9,0.2c0.2-0.5,0.3-1.1,0.6-1.5
			c0,0.4-0.1,0.8-0.1,1.2c0.2-0.1,0.4-0.1,0.5-0.2c0.1-0.5,0.2-0.9,0.5-1.3c0.4-0.6,0.6-1.3,0.9-2c-0.2-0.3-0.4-0.7-0.3-1.1
			c-0.1,0-0.3,0.1-0.4,0.1c0-0.4,0-0.9,0.1-1.3c0.1,0.3,0.1,0.5,0.2,0.8l0.2,0c-0.1-1-0.4-1.9-0.3-2.9c0.1-0.1,0.2-0.2,0.2-0.3
			c0.2,1,0.1,2.1,0.4,3c0.6,0,1.1,0.1,1.7,0.2c0.7-0.6,0.5-1.6,0.7-2.4c0.3-1,0.4-2,0.6-3c0-0.3,0.2-0.5,0.3-0.7
			c0,1.3-0.7,2.5-0.6,3.8c0.1,0.6-0.3,1.1-0.2,1.7c0.1,0.6-0.1,1.2-0.3,1.7c-0.1,0-0.2,0.1-0.3,0.1c0.1-0.3,0.2-0.5,0.3-0.8
			c-0.3-0.1-0.6-0.2-0.9-0.3c-0.4,0-0.9,0.1-1.3,0.1c0.3,0.3,0.6,0.7,0.9,1c0.3,0.6,0.5,1.2,1,1.7c0.1-0.5,0-1.2,0.4-1.6
			c0.5-0.5,1-0.8,1.5-1.3c-0.2-0.3-0.5-0.6-0.4-1c0.2-0.1,0.3-0.2,0.5-0.3c-0.2-0.7,0.1-1.5-0.2-2.2c0.1,0,0.2-0.1,0.4-0.1
			c0-0.2,0-0.5,0.1-0.7c-0.1-0.1-0.1-0.3-0.2-0.4c0.1-0.3,0.4-0.5,0.5-0.8c0.1-0.2-0.2-0.4-0.3-0.6c0.1-0.4,0.2-0.9,0.4-1.3
			c-0.1-0.1-0.3-0.1-0.4-0.2c0.2-0.1,0.4-0.2,0.6-0.4c-0.1-0.2-0.2-0.5-0.3-0.7c0.2-0.1,0.3-0.2,0.5-0.3c-0.1-0.3-0.4-0.7-0.2-1.1
			c0.4-0.8,0.2-1.7,0.3-2.6c0.3-1.9,0.4-3.7,0.5-5.6c0-0.4,0.1-0.9,0.2-1.3c-0.2,0.1-0.3,0.3-0.5,0.4c0.3-0.4,0.5-0.9,0.6-1.4
			c0.1,0,0.2,0,0.4,0c0-0.1,0.1-0.2,0.1-0.2c-0.1,0-0.3,0.1-0.4,0.2c0.5-1.3,0.1-2.7,0.3-4c-0.1,0.3-0.3,0.6-0.5,0.8
			c-0.5,0.4-0.9,0.9-1.3,1.3c0.3-0.7,1-1.3,1.5-1.9c0-0.4-0.2-0.8-0.2-1.1c-0.5,0.8-0.8,1.6-1.2,2.5c0-0.6,0.2-1.1,0.3-1.6
			c0.1-0.2-0.2-0.3-0.3-0.4c-0.4-0.3-0.8-0.5-1.2-0.8C182.9,9.7,183.6,9.7,184.3,9.5z M185,8.4c0.1,0.5,0.2,1,0.2,1.6
			c0.7-0.4,1.4-0.8,2.1-1.2c-0.7,0.1-1.3,0.3-1.9,0.5C185.3,9,185.1,8.6,185,8.4z M184.6,9.6c-0.6,0.1-1.1,0.4-1.7,0.6
			c0,0,0.1,0.1,0.2,0.2c0.5-0.1,1.1-0.2,1.6-0.2c0-0.4,0.1-0.8,0.1-1.2C184.7,9.2,184.6,9.4,184.6,9.6z M186.1,9.7
			c-0.2,0.1-0.2,0.2,0,0.3C186.3,9.9,186.3,9.8,186.1,9.7z M184.9,10.1c0.3,0.4,0.6,0.9,0.9,1.3c-0.1-0.4-0.3-0.9-0.5-1.3
			C185.3,10.2,185,10.1,184.9,10.1z M183.5,10.5c0.2,0.1,0.4,0.3,0.6,0.4c0.1-0.1,0.1-0.3,0.2-0.4C184.1,10.5,183.8,10.5,183.5,10.5
			z M187.8,32.1c0.1,0.8,0.2,1.7,0.5,2.5c0.1-0.2,0.4-0.4,0.3-0.7c0.1-0.5-0.4-0.9-0.5-1.4C188.1,32.3,188.1,32.1,187.8,32.1z
			 M189.2,36.4c0,0.2,0,0.4,0,0.6c0.2,0.1,0.4,0.3,0.6,0.4C189.6,37,189.4,36.7,189.2,36.4z M188.6,37.5c-0.1,0.1-0.2,0.3-0.4,0.4
			c0.2,0.2,0.4,0.3,0.6,0.5c-0.2,0.2-0.4,0.5-0.7,0.7c0,0.1,0.1,0.2,0.1,0.4c0.2,0.4-0.3,0.7-0.2,1.2c0,0.8,0.1,1.5,0,2.3
			c0.2,0.1,0.5,0.2,0.7,0.3c0,0.2,0.1,0.4,0.1,0.7c0.4,0.1,0.9,0.2,1.3,0.2c0-0.9,0.4-1.9,0.2-2.8c-0.2-0.7-0.9-0.9-1.4-1.3
			c0.1,0,0.3-0.1,0.4-0.2c-0.3-0.3-0.7-0.6-0.9-0.9c0.6,0.1,1.2,0.4,1.7,0.7c0-0.9-0.7-1.4-1.2-2C188.8,37.5,188.7,37.5,188.6,37.5z
			 M190.8,39.5c0.3-0.1,0.5-0.1,0.8-0.2c-0.2-0.4-0.4-0.9-0.6-1.3C190.8,38.6,190.8,39,190.8,39.5z M185.7,39.7
			c0.6,0.1,1.2,0.2,1.8-0.2C186.9,39.5,186.3,39.6,185.7,39.7z M186.8,40c0,0.9,0.1,1.9,0.1,2.8c0,0.3-0.2,0.5-0.3,0.7
			c-0.4-1-0.2-2.1-0.1-3.2c-0.3-0.1-0.6-0.2-1-0.3c0,0.9-0.1,1.8-0.1,2.8c0,0.2-0.1,0.5-0.4,0.5c-0.9,0-1.8,0-2.7,0
			c-0.2,0.8,0.2,1.6,0.1,2.5c0.1,0,0.3,0,0.4,0c0-0.4,0.1-0.9,0.2-1.3c0.1,0.4,0.2,0.9,0.3,1.4c0.4,0.1,0.9,0.2,1.3,0.3
			c-0.7,0.2-1.5,0.3-2.2,0.3c0,0.6-0.3,1.2,0.2,1.6c1.4,0,2.7-0.3,4.1-0.2c0.1-0.7,0.2-1.4,0.2-2.1c-0.6-0.2-1.3,0-1.9-0.1
			c0.4-0.4,1-0.3,1.4-0.4c0-0.4-0.1-0.8-0.1-1.2c-0.4-0.1-0.9-0.1-1.3-0.3c1-0.3,2.1,0,3.1,0.2c0.1,0,0.3-0.1,0.4-0.1
			c-0.4-0.1-0.8-0.1-1.2-0.1c0.1-1.2,0-2.4,0.2-3.6C187.4,40,187.1,40,186.8,40z M189.7,40.2c0.2,0.2,0.5,0.4,0.7,0.6
			c0.1-0.1,0.2-0.2,0.2-0.3c0.2,2.2,0.1,4.5,0.4,6.7c0-1.2,0.2-2.3,0-3.5c-0.1-1.1,0-2.3,0-3.4C190.6,40.3,190.2,40.3,189.7,40.2z
			 M186.8,44.1c-0.1,0.2-0.1,0.3,0.1,0.3C187.1,44.2,187,44.1,186.8,44.1z M187.2,44.1c0.1,0.5,0.1,1,0.3,1.4c0.3,0.1,0.6,0.1,1,0.2
			c0.2,0.4-0.2,0.8-0.2,1.3c0.2-0.4,0.5-0.9,0.6-1.3c-0.4-0.1-0.8-0.2-1.2-0.3c0-0.4,0-0.8,0-1.2C187.6,44.2,187.4,44.1,187.2,44.1z
			 M188.4,44.3c-0.1,0.1-0.2,0.5,0.1,0.5C188.7,44.7,188.7,44.1,188.4,44.3z M188.8,44.4c0.1,0.3,0.1,0.6,0.1,0.8
			c0.4,0,0.9,0.1,1.3,0.1c0-0.1,0-0.4,0-0.5C189.8,44.8,189.3,44.7,188.8,44.4z M187.4,45.9c0,0.6,0,1.2,0.1,1.8
			c0.1,0.1,0.2,0.2,0.3,0.3c0-0.6-0.1-1.2,0-1.9C187.7,46.1,187.5,46,187.4,45.9z M189.4,45.9c-0.1,0.2,0.1,0.5,0.3,0.3
			C189.8,46.1,189.6,45.7,189.4,45.9z M189.8,48.2c0.1,0,0.3,0,0.4,0c-0.1-0.7-0.1-1.5-0.1-2.2C189.9,46.7,189.9,47.5,189.8,48.2z
			 M187.9,46.3c-0.1,0.2-0.1,0.3,0.1,0.3C188.2,46.4,188.2,46.3,187.9,46.3z M186.7,48.1c0.2,0.2,0.3,0.6,0.5,0.9
			c0.2,0.2,0.5,0.2,0.7,0.4c-0.1,0.1-0.2,0.2-0.4,0.3c0.3,0,0.6,0.1,0.9,0.2c0.1-0.2,0.2-0.4,0.3-0.6c0.4-0.1,0.5,0.3,0.7,0.5
			c0.2,0,0.3-0.1,0.5-0.1c-0.1,0.2-0.1,0.4-0.2,0.6c0.2-0.2,0.4-0.5,0.8-0.5C189.2,49.4,187.9,48.7,186.7,48.1z M191.3,50
			c0,0.1,0,0.4,0,0.5c0.3,0.1,0.6,0.2,0.9,0.3c0,0.4-0.2,0.8,0.1,1.1c0.3,0.1,0.3-0.2,0.4-0.4c-0.4-0.4-0.7-0.9-1-1.4
			C191.6,50,191.4,50,191.3,50z M189.5,50.8c0.2,1.7-0.2,3.5,0.2,5.2c0.1-0.5,0.1-0.9,0.1-1.4c0,0,0.2,0,0.2,0c0,0.6,0,1.1,0.1,1.7
			c0.1-0.3,0.1-0.6,0.2-0.9c0.1,0.2,0.2,0.3,0.2,0.5c-0.1-1.6-0.2-3.1,0-4.7C190.2,51.1,189.8,50.9,189.5,50.8z M191.3,52.9
			c-0.1,0.9-0.2,1.8-0.3,2.7c-0.1,0.8,0.2,1.5-0.1,2.3c-0.8,0-1.6,0-2.4,0c0.1,0.1,0.2,0.3,0.4,0.4c0.7,0,1.5-0.1,2.2,0.1
			c-0.2,0.4-0.4,0.8-0.3,1.3c0.2,0.2,0.4,0.3,0.6,0.5c0.1-0.2,0.1-0.4,0.2-0.5c-0.2,0-0.5-0.1-0.7-0.1c0.2-0.1,0.4-0.1,0.6-0.2
			c0-1.8,0.1-3.7,0.1-5.5h0.3c0,1.6,0.2,3.3,0.2,4.9c0,0.3,0.1,0.5,0.2,0.7c0-0.8,0-1.5-0.1-2.3c-0.2-1.2-0.1-2.4-0.3-3.6
			c-0.1,0-0.2,0.1-0.3,0.1c0-0.3,0-0.6-0.1-0.9C191.6,52.8,191.4,52.9,191.3,52.9z M188.8,58.6c0.3,0.2,0.6,0.4,0.8,0.6
			c0-0.1,0-0.3,0-0.4C189.3,58.7,189.1,58.6,188.8,58.6z M189.8,58.6c-0.1,0.5,0.1,1.2,0.8,1.2c0-0.2,0-0.5,0-0.7
			c-0.1,0.1-0.2,0.3-0.3,0.4C190.2,59.2,190.2,58.8,189.8,58.6z M193.1,59.4c0,0.5-0.1,1-0.1,1.4c-0.2,0.8-0.1,1.6-0.2,2.4
			c0.4,1,0.4,2.1,0.5,3.2c0.1-0.1,0.2-0.2,0.2-0.4c-0.4-1.5-0.5-3.1-0.5-4.7c0-0.5,0.1-1,0.3-1.4c0.2,1.3,0,2.7,0.4,4
			c-0.1-1.6-0.3-3.1-0.1-4.7C193.5,59.3,193.3,59.4,193.1,59.4z M190.5,60c-0.2,0.1-0.2,0.2,0,0.3C190.7,60.2,190.7,60.1,190.5,60z
			 M192.3,59.9c-0.1,0.3,0,0.3,0.2,0.3C192.6,59.9,192.5,59.8,192.3,59.9z M190.5,60.4c0.7,2,0.2,4.2-0.9,5.9c0.4,0,0.9,0,1.3,0
			c-0.1,0.1-0.2,0.2-0.3,0.2c-1,0-1.9-0.2-2.9-0.1c0.1,0.6-0.2,1.4,0.2,1.9c0.2,0,0.4,0,0.7,0c0-0.2,0.1-0.4,0.1-0.6
			c0,0.3,0.1,0.5,0.2,0.8c0-0.6,0-1.3,0.1-1.9c0.3,0.6,0.4,1.2,0.6,1.9c0.2-0.1,0.5-0.2,0.7-0.3c0-0.4,0.1-0.8,0.1-1.2
			c0,0,0.1,0,0.2,0c0,0.4,0.1,0.8,0.1,1.2c0.5-0.1,1.1,0,1.5-0.4c-0.1-0.1-0.4-0.2-0.5-0.2c0.3-0.4,0.6-0.9,0.5-1.4
			c-0.4-0.4-1,0-1.5,0c0-0.5,0.4-0.8,0.7-1.1c0.3,0.1,0.7,0.2,1,0.2c0-0.2,0.1-0.3,0.1-0.5c-0.2,0.1-0.4,0.2-0.6,0.3
			c-0.1-0.4-0.2-0.8-0.2-1.2c0-1.1,0-2.2,0-3.3C191.3,60.1,190.8,60.4,190.5,60.4z M193.7,64.3c0.2,0.5,0.3,1,0.5,1.5
			C194.4,65.2,194,64.8,193.7,64.3z M188.1,66c0,0.2,0.1,0.3,0.3,0.1C188.4,65.9,188.3,65.9,188.1,66z M192.2,68.2
			c0.2-0.1,0.4-0.1,0.6-0.2c0-0.2,0-0.4,0.1-0.6C192.7,67.6,192.4,67.9,192.2,68.2z M194.2,69.2c-0.2,0.1,0,0.6,0.2,0.4
			C194.6,69.4,194.4,69,194.2,69.2z M197.3,71.6c-0.1,0.2-0.2,0.5-0.2,0.7c0.1,0,0.4,0,0.5-0.1C197.5,72,197.4,71.8,197.3,71.6z
			 M195.2,72.8c0,0.6,0.1,1.2,0.1,1.8c0.9-0.1,1.7-0.2,2.6-0.2c0-0.5-0.1-0.9-0.1-1.4C196.9,72.8,196.1,72.8,195.2,72.8z
			 M183.7,74.1c0.7,1.1,2.1,1.6,2.8,2.7c0.5,0.9,0.5,1.9,0.5,2.9c0-1.3,0.1-2.6-0.3-3.8c-0.4-0.1-0.8-0.3-1-0.6
			C185.2,74.7,184.4,74.5,183.7,74.1z M199.5,77.8c0,0.4,0,0.7,0,1.1c0.2,0,0.3,0,0.5,0C199.9,78.5,199.8,78.1,199.5,77.8z
			 M199.6,79.3c-0.2,0.1-0.1,0.5,0.1,0.4C199.9,79.6,199.8,79.3,199.6,79.3z M197.6,80.2c-0.2,0.1,0.1,0.4,0.2,0.3
			C198,80.4,197.7,80.1,197.6,80.2z M198.2,80.6c-0.1,0.7,0.5,1.1,0.8,1.6c0.3,0.5,0.4,1.1,0.7,1.6c0.6,1.1,1.2,2.1,1.8,3.2
			c0.1,0.2,0.2,0.2,0.4,0.3c-0.3-0.7-0.7-1.2-1-1.9c-0.6-1.2-1.3-2.4-2-3.6C198.7,81.4,198.5,80.9,198.2,80.6z M191.1,80.8
			c0.1,0.2,0.1,0.5,0.1,0.8c2.2-0.1,4.3-0.2,6.5-0.3c0-0.2,0.1-0.3,0.1-0.5c-0.7,0.3-1.5,0.2-2.2,0.1
			C194.2,80.8,192.7,80.9,191.1,80.8z M200.1,82.4c-0.3,0-0.3,0.5,0,0.5C200.3,82.9,200.3,82.4,200.1,82.4z M199.3,83.6
			c-0.1,0.1,0.1,0.4,0.3,0.4C199.7,83.8,199.5,83.5,199.3,83.6z"/>
	</g>
	<path d="M184.8,13.3c0.2,0,0.2,0.1,0.1,0.3C184.7,13.6,184.7,13.5,184.8,13.3z"/>
	<path d="M184.7,14.3c0.3,0.5,0,1.1-0.2,1.6C184.4,15.4,184.5,14.8,184.7,14.3z"/>
	<path d="M186,17.5c0.4,0.6,0.4,1.3,0.4,2C186,18.9,186.2,18.1,186,17.5z"/>
	<path d="M183.7,20.3c0-0.9,0.1-1.7,0.5-2.5C184.2,18.6,184,19.5,183.7,20.3z"/>
	<path d="M183.3,21.6c0-0.4,0.2-0.8,0.4-1.1c0,1-0.5,1.8-0.5,2.8c0,0.6-0.2,1.2-0.5,1.7C182.9,23.9,183.2,22.8,183.3,21.6z"/>
	<path d="M182.4,27.1c0.1-0.6-0.1-1.4,0.5-1.7C182.7,26,182.6,26.6,182.4,27.1z"/>
	<path d="M187.4,26.9c0.5,0.8,0.5,1.7,0.7,2.6c-0.1,0-0.2,0.1-0.4,0.1c-0.2-0.4-0.1-0.8-0.2-1.1C187.6,27.9,187.2,27.4,187.4,26.9z"
		/>
	<path d="M182,28.8c0-0.5,0-1,0.3-1.4C182.3,27.8,182.3,28.3,182,28.8z"/>
	<path d="M181.5,31c0.1-0.6,0-1.4,0.4-1.8C182,29.8,181.8,30.4,181.5,31z"/>
	<path d="M181,32.8c0-0.4,0.2-0.7,0.5-1c-0.3,0.8-0.2,1.7-0.7,2.4C180.9,33.8,181.1,33.3,181,32.8z"/>
	<path d="M180.2,35.9c0.1-0.5,0.3-1,0.6-1.4C180.9,35,180.9,35.8,180.2,35.9z"/>
	<path d="M179.4,39.8c0.2,0,0.4,0,0.6-0.1c0.1,0.2,0.2,0.5,0.3,0.7c-0.2,0.1-0.3,0.1-0.5,0.2c0.1,1,0.2,2.1,0.1,3.1
		c0,0.6-0.6,1-1.1,1.1c0.3-0.3,0.6-0.6,0.9-0.9c-0.1-1.2-0.1-2.4-0.2-3.6C179.6,40.2,179.4,40,179.4,39.8z"/>
	<path d="M182.4,44.1c0.1-0.2,0.2-0.5,0.5-0.5c0.6-0.1,1.3-0.2,2,0c0.4,0.2,0,0.5-0.3,0.5C183.9,44.2,183.1,44.2,182.4,44.1z"/>
	<path d="M183.9,49.1c0.4-0.2,0.8-0.4,1.2-0.4c-0.1,0.6-0.8,0.6-1.3,0.8C183.9,49.4,183.9,49.2,183.9,49.1z"/>
	<path d="M181.3,49.3c0-0.4,0.5-0.2,0.8-0.2c0,0.1,0,0.4,0,0.5C181.9,49.5,181.6,49.4,181.3,49.3z"/>
	<path d="M182.4,49c0.3,0.1,0.9,0,0.9,0.5C182.9,49.4,182.5,49.4,182.4,49z"/>
	<path d="M178.2,50.1c0.2,0,0.4,0,0.6-0.1c-0.1,0.4-0.4,0.6-0.7,0.8C178.1,50.5,178.1,50.3,178.2,50.1z"/>
	<path d="M177.8,51.3c-0.6,0-0.6-0.9,0-1C177.8,50.7,177.8,51,177.8,51.3z"/>
	<path d="M181,50.5c0,0,0.1,0,0.2,0c0.2,1.8,0.3,3.6,0.4,5.4c0.2-0.3,0.4-0.6,0.6-0.9c-0.1,0.4-0.3,0.8-0.4,1.2
		c0.6-0.4,1.1-0.9,1.2-1.6c0.1-0.5,0.3-1,0.5-1.5c0.2,1.1,0.6,2.1,1.3,2.9c0.4,0.5,1.2,0.5,1.5,1.1c-0.7-0.3-1.5-0.4-1.9-1.2
		c-0.5-0.7-0.8-1.5-1-2.2c-0.1,0.6-0.1,1.2-0.3,1.7c-0.3,0.7-0.9,1.3-1.6,1.6c-0.2-0.1-0.4-0.3-0.6-0.4c0.3-0.5,0.2-1.1,0.2-1.7
		C180.9,53.3,181,51.9,181,50.5z"/>
	<path d="M179.2,51.8c0-0.2,0.1-0.4,0.3-0.5c0,0.5,0,0.9,0,1.4C179.1,52.6,179.2,52.1,179.2,51.8z"/>
	<path d="M178.3,55.5c0.3,0.7,0.4,1.4,0.3,2.2c-0.1,0-0.3,0.1-0.4,0.1C178.2,57,178.2,56.2,178.3,55.5z"/>
	<g>
		<path d="M178.3,60.5c1.1-2.6,4.4-4.2,7.1-3.2c-0.8,0.1-1.6,0.4-2.5,0.3c0.1,0.2,0.3,0.5,0.4,0.7c0.2-0.2,0.4-0.5,0.6-0.7
			c0,0.4,0.1,0.8,0.1,1.2c-0.1,0-0.4,0.1-0.6,0.1c-0.2-0.1-0.3-0.2-0.5-0.4c0.1,0.1,0.2,0.3,0.3,0.4c-0.2,0-0.4,0.1-0.6,0.1
			c0-0.4-0.1-0.9-0.1-1.3c-0.4,0.1-0.8,0.2-1.1,0.3c0.2,0.3,0.5,0.6,0.8,0.9c-0.3,0.2-0.6,0.4-0.9,0.6c-0.4-0.2-1-0.4-1.1-1
			c-1,0.9-1.6,2.2-1.8,3.6c0.3-0.1,0.6-0.1,0.9-0.2c0.1,0.3,0.3,0.5,0.4,0.8c0.1-0.4,0.2-0.8,0.3-1.2c0.2,0.4,0,0.9,0,1.3
			c-0.6,0.1-1.1,0.1-1.7,0.1c0,0.3,0.1,0.6,0.1,0.9c0.3-0.1,0.6-0.3,1-0.3c-0.3,0.2-0.6,0.4-0.9,0.6c0.4,0.7,0.8,1.5,1.6,1.9
			c0.3,0.2,0.6,0.1,0.9,0.1c0-0.2,0-0.4,0-0.6c-0.2,0.1-0.3,0.2-0.4,0.3c0.1-0.2,0.1-0.4,0.2-0.6c-0.2,0.1-0.3,0.3-0.5,0.4
			c-0.1,0-0.3-0.1-0.4-0.1c0.4-0.2,0.8-0.5,1.2-0.6c0.2,0.5,0.4,1,0.2,1.6c0.4,0.1,0.9,0.2,1.3,0.2c-0.4-0.2-0.9-0.2-1.2-0.4
			c0.3,0,0.6,0,0.9,0c0.1-0.4-0.2-1.1,0.4-1.1c-0.1,0.4-0.2,0.8-0.2,1.2c0.3-0.3,0.5-0.7,0.3-1.1c0.2,0,0.4,0,0.6-0.1
			c0.3,0.4,0.4,0.9,0.4,1.5c0.3-0.1,0.6-0.3,0.9-0.5c0.2-0.3,0.4-0.6,0.5-0.9c-0.1-0.1-0.2-0.2-0.2-0.3c0,0.2,0,0.6-0.1,0.7
			c-0.2-0.3-0.2-0.7-0.2-1c0.5,0.2,0.9,0.6,1.5,0.8c-0.3,0.2-0.5,0.5-0.6,0.8c-1.5,0.8-3.4,1-5,0.3c-1.1-0.4-2.1-1.2-2.5-2.4
			C177.7,63.2,177.8,61.8,178.3,60.5z M180.8,58.4c-0.4,0.2,0.2,0.5,0.4,0.4C181.3,58.6,181,58.3,180.8,58.4z M181.4,58.6
			c0,0.2,0.1,0.5,0.3,0.6C182,59,181.6,58.5,181.4,58.6z M178.5,62.6c0,0.2,0.6,0.2,0.6-0.1C178.9,62.4,178.7,62.5,178.5,62.6z
			 M183.3,65.7c-0.3,0-0.2,0.6,0.1,0.5C183.5,66.1,183.5,65.8,183.3,65.7z M183.1,66.7c0,0.2,0.1,0.3,0.3,0.1
			C183.4,66.6,183.3,66.5,183.1,66.7z"/>
	</g>
	<path d="M177.9,59.8c0.6-1.1,1.5-2.2,2.8-2.6c-0.6,0.5-1.2,0.9-1.8,1.5c-1.1,1.1-1.5,2.7-1.3,4.2c0.1,0.6,0.3,1.2,0.3,1.8
		c-0.8-1.1-0.8-2.5-0.5-3.8c0.2-0.6,0-1.3,0.1-1.9C177.7,59.3,177.8,59.6,177.9,59.8z"/>
	<g>
		<path d="M185.3,57.4c0.5,0.2,0.9,0.4,1.3,0.7c0-0.1-0.1-0.4-0.2-0.5c1.5,0.9,2.4,2.7,2.2,4.4c-0.2-0.5-0.2-1.2-0.4-1.7
			c0,0.6,0.2,1.3,0.1,1.9c-0.1,1-0.4,2-1.1,2.8c-0.1-0.3-0.1-0.6-0.3-0.8c-0.2-0.2-0.5-0.3-0.7-0.4c0.3,0.4,0.8,0.7,0.8,1.2
			c-0.6-0.3-0.9-1-1.2-1.6c0.1-0.1,0.2-0.2,0.3-0.4c0.5,0.1,0.9,0.2,1.4,0.4c0-0.3,0.1-0.6,0.1-0.8c-0.4,0-1.1,0.3-1.3-0.3
			c0.5,0,1,0,1.5,0c-0.1,0.4-0.1,0.7,0,1.1c0.5-1.2-0.1-2.6-0.7-3.6c-0.4,0.3-0.7,0.7-1,1c-0.1-0.2-0.2-0.4-0.2-0.6
			c0.1,0,0.3,0.1,0.4,0.1c0.2-0.3,0.5-0.5,0.7-0.8c-0.2-0.3-0.4-0.5-0.6-0.8c-0.5,0.6-0.9,1.1-1.4,1.7c-0.2,0.3-0.1,0.7-0.4,1
			c-0.2,0-0.4,0-0.6,0c0.1,0.1,0.3,0.2,0.4,0.3c-0.5,0.4-1.1,0.6-1.6,0.9c-0.3,0.3-0.6,0.7-0.9,1c-0.4-0.2,0-0.5,0.2-0.7
			c-0.8,0.4-1.7,0.7-2.6,1c-0.2,0.1-0.4,0.2-0.6,0.4c0.3,0,0.6-0.1,0.9-0.1c-0.2,0.3-0.4,0.5-0.6,0.8c-0.1,0-0.2-0.1-0.3-0.2
			c0-0.3-0.1-0.5-0.1-0.7c1.6-0.8,3.3-1.4,4.8-2.3c-0.2,0-0.5,0-0.7,0.1c-1,0.5-2,1.2-3.1,1.5c0.9-0.8,2-1.3,3-1.8
			c0.4-0.3,1-0.2,1.3-0.6c0.6-0.6,1.2-1.2,1.8-1.8c0.2-0.1,0.2-0.4,0.1-0.6c-0.7,0.7-1.3,1.4-2,2.1c-0.2,0.2-0.4,0.4-0.7,0.5
			c0.7-1.2,1.9-1.8,2.7-2.9c-0.6-0.2-0.9,0.6-1.3,1c-0.1-0.1-0.2-0.3-0.4-0.4c0.3,0,0.6-0.1,0.7-0.4c0.2-0.2,0.3-0.4,0.4-0.6
			c0.2,0.1,0.5,0.2,0.7,0.3C186,58,185.7,57.7,185.3,57.4z M186.2,63.4c0.3,0.4,0.8,0.5,1.3,0.5C187.1,63.6,186.6,63.6,186.2,63.4z"
			/>
	</g>
	<path d="M184.8,57.6c0.3,0.1,0.5,0.2,0.8,0.3c-0.1,0.2-0.3,0.4-0.4,0.6c-0.2,0.1-0.4,0.2-0.6,0.3c0.1-0.2,0.2-0.4,0.3-0.6
		c-0.1,0-0.3,0-0.4,0C184.6,58,184.7,57.8,184.8,57.6z"/>
	<path d="M176.3,59c0.1,0.3,0.1,0.6,0.1,0.9c0.1-0.3,0.3-0.6,0.4-0.9c0,0.5,0,1,0,1.5c-0.1-0.1-0.2-0.3-0.3-0.4
		c-0.1,0.1-0.1,0.3-0.2,0.4c0.3,0,0.5,0,0.8,0c0-0.5-0.1-0.9,0-1.4c0.2,0.5,0.2,1.1,0,1.6c-0.4,0-0.7,0-1.1,0
		C176.2,60.2,176.2,59.6,176.3,59z"/>
	<path d="M186.2,59.8c0-0.2,0.2-0.5,0.4-0.4C186.7,59.6,186.4,59.8,186.2,59.8z"/>
	<path d="M174.5,61.3c-0.1-0.7,0-1.3,0.4-1.9c0,0.2,0.1,0.4,0.1,0.6c0.4-0.1,0.7-0.1,1.1-0.1c0,0.6-0.6,0.8-1.1,1.1
		c0.1,0.8,0.1,1.6-0.1,2.3c0.2,0,0.5,0,0.7,0c0,0.1-0.1,0.4-0.1,0.5c-0.4,0-0.8,0-1.2,0C174.5,63,174.7,62.2,174.5,61.3z"/>
	<path d="M186.2,59.8"/>
	<path d="M179.2,59.9c0.3,0.4,0.8,0.3,1.2,0.3c-0.1,0.2-0.3,0.4-0.4,0.6c-0.1-0.2-0.1-0.4-0.2-0.6c-0.1,0.3,0,0.7,0.1,1
		c-0.3-0.3-0.5-0.6-0.9-0.7C179,60.4,179.1,60.2,179.2,59.9z"/>
	<path d="M175.8,63.5c-0.1-1-0.1-2,0.1-3c0.2,1.2,0.4,2.5,0.4,3.7c-0.3,0.6-0.2,1.3-0.1,2c0.5,0.1,1.1,0.1,1.6,0.2
		c0,0.8,0,1.7-0.1,2.5c-0.7,0.1-1.4,0.3-2.1,0c-0.1-0.6,0-1.2,0-1.7c0.3,0.4,0.4,0.8,0.5,1.3c0.4,0,0.8,0,1.2,0c0-0.5,0.1-1,0.1-1.4
		c-0.6,0-1.3,0.1-1.9,0.1C175.8,65.9,176.1,64.7,175.8,63.5z"/>
	<path d="M176.2,61.3c0.2-0.1,0.5-0.2,0.7-0.2c0,0.1,0,0.2,0.1,0.3C176.7,61.3,176.4,61.3,176.2,61.3z"/>
	<path d="M186.4,61.7c0.4-0.3,1-0.3,1.5-0.2c0,0,0,0.1,0,0.2C187.4,61.7,186.9,61.7,186.4,61.7z"/>
	<path d="M186.5,61.9c0.5,0,0.9,0,1.4,0c-0.1,0.1-0.2,0.3-0.2,0.4c-0.4,0-0.8-0.1-1.2,0C186.6,62.1,186.5,62,186.5,61.9z"/>
	<path d="M168.6,63c0.3,0.9,0.2,1.9,0.3,2.8c0.1,1.8,0.5,3.5,0.7,5.3c-0.1,0-0.3,0-0.4,0c-0.1-0.5-0.2-0.9-0.3-1.4
		c0,1.1,0,2.2,0,3.3c-0.1,0-0.3,0-0.3,0c0-2.3,0.2-4.5,0.1-6.8c-0.3,1.7-0.5,3.4-1.1,5c-0.1,0.3-0.3,0.5-0.6,0.6
		c0-0.5,0-0.9,0.2-1.4C167.9,68,168.3,65.5,168.6,63z"/>
	<path d="M171.7,68.7c0.2,0,0.4,0.1,0.7,0.1c0,0.2-0.1,0.3-0.2,0.5c0.2,0.1,0.5,0.2,0.7,0.3c-0.2,0.2-0.3,0.4-0.5,0.7
		c0,0.3,0.1,0.5,0.1,0.8c0.2,0.1,0.5,0.1,0.7,0.2c-0.1,0.7,0.4,1.4,0.3,2.1c0.1,0,0.2,0,0.2,0c0-0.4-0.2-0.8,0-1.2
		c0.2-0.4,0.6-0.8,0.8-1.3c0,0.4,0.1,0.8,0,1.3c-0.2,0.2-0.4,0.4-0.6,0.7c-0.1,0.7,0.5,1.4,0.1,2.1c-0.2-0.5-0.6-0.9-1-1.3
		c-0.2-0.4-0.4-0.9-0.5-1.3c0.1-0.2,0.2-0.4,0.3-0.5c-0.2-0.2-0.5-0.3-0.7-0.5c-0.2-0.5-0.1-1,0.1-1.4c-0.3-0.1-0.5-0.2-0.8-0.3
		C171.5,69.2,171.6,68.9,171.7,68.7z"/>
	<path d="M199.3,70.4c0.1-0.5,0-1.1,0.4-1.5c0.1,1.1-0.1,2.1-0.2,3.2c-0.1,0.8-0.1,1.5-0.3,2.3C199,73,199.2,71.7,199.3,70.4z"/>
	<path d="M197.4,70.3c0-0.4,0.1-0.9,0.6-1c0.1,0.4,0.2,0.8,0.3,1.3c0.1,0.4,0.4,0.7,0.5,1c0.2,0.7,0.2,1.4,0.1,2.1
		c0.1,1,0.2,2,0.2,3c-0.1,0.1-0.4,0.2-0.5,0.3c-0.4-1.1-0.1-2.2-0.2-3.3c0-0.7,0.4-1.3,0.1-2c-0.4-0.6-0.5-1.3-0.7-2
		C197.6,69.9,197.5,70.1,197.4,70.3z"/>
	<path d="M180.4,69.6c0.3,0.5,0.2,1,0.2,1.5c0,0.4,0,1-0.4,1.2C180.3,71.4,180.4,70.5,180.4,69.6z"/>
	<path d="M181.1,70.7c0.5-0.3,1-0.1,1.6,0c-0.4,0.2-0.8,0.4-1.3,0.5c0.1,0.9,0.2,1.9-0.2,2.8c-0.2,0.6-0.7,1-1.1,1.5
		c0.6-0.3,1.1-0.9,1.4-1.5c0.3-0.8,0.1-1.8,0.5-2.6c0.3,1.1,0.6,2.5-0.3,3.5c-0.9,1-2,1.8-2.7,3c0.9-0.7,1.6-1.6,2.5-2.2
		c0.3-0.2,0.4-0.6,0.7-0.9c0,1.2-1.2,1.7-1.9,2.5c-0.8,0.8-1.6,1.7-2,2.8c-0.5,0.8,0,1.7-0.3,2.5c-0.4,0.6-1.3,0.4-1.9,0.2
		c0.1,1.8,0.2,3.5,0.1,5.3c0,0.4,0,0.9-0.5,0.9c-0.2-2.3,0.1-4.5,0-6.8c0.3-0.4,0.9-0.3,1.4-0.5c-0.4-0.2-0.9-0.2-1.4-0.2
		c0-0.6,0.7-0.8,1.1-1.1c0-0.7-0.1-1.5,0.1-2.2c0.2-0.9,0.6-1.7,1.2-2.4c0.7-0.9,1.9-1.4,2.4-2.4C181.1,72.6,181.2,71.6,181.1,70.7z
		"/>
	<path d="M171.2,71.8c-0.1-0.4,0.2-0.7,0.4-0.9c0.2,0.6,0.5,1.3,0.3,1.9c-0.4,1.1-1.3,2-2.1,2.8c0.3-0.8,0.8-1.5,1.2-2.2
		C171.2,72.9,171.3,72.3,171.2,71.8z"/>
	<path d="M178.3,71.1c0.1-0.2,0.6,0,0.4,0.2C178.5,71.5,178,71.3,178.3,71.1z"/>
	<path d="M169.9,71.4c0.1,0,0.3,0,0.4,0c0,0.5-0.1,1.1,0,1.6c-0.1,0-0.3,0.1-0.4,0.2C169.8,72.6,169.7,72,169.9,71.4z"/>
	<g>
		<path d="M166.3,71.8c0.3-0.2,0.5,0.1,0.7,0.3c0.2-0.1,0.4-0.2,0.7-0.3c0.1,0.6-0.4,1-0.9,1.1c-0.1,1,0.4,2,0,3
			c0.2,0.1,0.3,0.1,0.5,0.2c-0.2,0.1-0.4,0.3-0.7,0.4c0,1.5,0.2,3.1,0.2,4.6c0.9-0.1,1.9-0.2,2.8-0.2c0.1-1.5,0.1-3,0.3-4.6
			c0.1,0.2,0.2,0.4,0.3,0.6c0-0.6,0-1.1,0-1.7c0.1,0.3,0.3,0.5,0.4,0.8c0-0.5,0.1-0.9,0.5-1.3c0.4-0.5,0.6-1.1,0.9-1.6
			c0.3,0.7,0.9,1.2,1.3,1.8c0.4,1.1,0.2,2.3,0.4,3.4c0.2,0.6-0.1,1.2-0.4,1.7c-0.9,0-1.9-0.1-2.8,0c0,0-0.1-0.1-0.1-0.1
			c0-0.3,0.4-0.3,0.6-0.4c-0.2-0.1-0.5-0.1-0.7-0.2c0-0.8,0-1.6-0.2-2.4c0,1.4,0.1,2.7,0.2,4.1c1.1,0,2.3-0.1,3.4,0.1
			c-1.1,0.4-2.2,0.5-3.4,0.8c0,0.2,0,0.4,0,0.6c1.2,0.1,2.3,0,3.5,0.2c-1.2,0.6-2.7,0.4-3.9,1c0,1.2,0.1,2.4,0.1,3.6
			c0,0.4,0.2,0.6,0.3,1c0.1,1.4,0.1,2.8,0.1,4.2c0,0.4,0.2,0.6,0.3,1c0.1,0.6,0.1,1.1,0.1,1.7c0.5,0,1,0.1,1.5,0.2
			c-0.7,0.4-1.6,0.6-2.4,0.9c0.1,0.8,0.1,1.5,0.1,2.3c0,1,0.1,2-0.1,3c0.2,0,0.5,0,0.7-0.1c-0.1,0.5-0.6,0.8-0.4,1.4
			c0.1,1-0.1,2.3,0.8,3c0.1-1.1,0.1-2.1,0.1-3.2c0-0.3-0.2-0.6-0.3-0.8c0.5,0,1,0.1,1.5,0.4c0.5-0.4,1.2-0.7,1.8-0.3
			c0.1,0.4-0.3,0.6-0.5,0.8c0.1,0.9,0.1,1.8,0.2,2.7c0,0.6,0.5,0.9,0.8,1.3c-0.1,0.3-0.2,0.5-0.3,0.8c0.1,0,0.3-0.1,0.4-0.1
			c0-1.9-0.1-3.7-0.1-5.6c0.5-0.2,1,0,1.4,0.3c0.4-0.3,0.8-0.6,1.2-0.8c0.4,0,0.3,0.4,0.2,0.6c-0.2,0.2-0.5,0.4-0.7,0.6
			c0,1.3,0.1,2.6,0.3,3.9c0.2,0.3,0.6,0.6,0.7,0.9c-0.4,0.1-0.9,0.2-1.3,0.3c-0.3-1.7,0.3-3.4,0.2-5c-0.3,0.1-0.5,0.3-0.8,0.4
			c-0.2-0.4-0.5-0.7-0.9-0.9c0,1,0.1,2,0.2,3c0.1,0.9,0,1.8,0.2,2.7c-0.5,0.1-1,0.1-1.4-0.2c-0.2,0.1-0.4,0.1-0.7,0.2
			c-0.3-1.7,0-3.5-0.1-5.2c-0.3,0.2-0.6,0.5-0.9,0.7c-0.3-0.3-0.5-0.5-0.8-0.8c0,1.8,0.3,3.6,0.1,5.3c-0.3,0-0.6-0.1-0.9-0.1
			c0.2-0.2,0.3-0.3,0.5-0.4c-0.5,0.1-0.9,0.3-1.3,0.5c-0.1-1.8,0.2-3.5,0.3-5.3c-0.6,0.2-1.2,0.6-1.9,0.3c-0.5,1.7,0.3,3.4,0,5.1
			c-0.5,0.1-0.9,0-1.4,0c0,4.7-0.1,9.4-0.1,14.1c0,5.9,0.1,11.9-0.2,17.8c-0.3-0.2-0.2-0.6-0.2-0.9c0-2.5-0.1-4.9-0.1-7.4
			c-0.9,0.2-1.8,0.8-2.7,0.4c0-0.2,0-0.5,0.3-0.6c0.8-0.3,1.6,0,2.5,0c0.1-4.8,0.1-9.6,0.1-14.4c-0.8,0-1.6,0.1-2.3,0
			c0.7-0.3,1.6-0.3,2.3-0.4c0-3.6,0-7.1,0.1-10.7c0-1.2,0.2-2.4,0.5-3.6c0.5,0.7,0.2,1.5,0.4,2.3c0.2-0.7,0.1-1.4,0.2-2.1
			c-0.7-0.3-1.6-0.3-2.2,0.3c0.3-0.1,0.7-0.3,1-0.3l0.1,0.2c-0.3,0.3-0.7,0.3-1,0.6c-0.2,0.2-0.3,0.4-0.5,0.6c0.1-0.6,0-1.2,0.4-1.7
			c0.2-0.3,0.6-0.5,1-0.7c-0.1-2-0.2-4,0-6c0-0.2,0.1-0.5,0.2-0.7c1-0.1,2-0.1,2.9,0.2c-0.7,0.5-1.7,0.4-2.5,0.4
			c0.2,2.1,0,4.2-0.1,6.3c0.4,0,0.7-0.1,1.1-0.1c0.3,0.1,0.6,0.3,0.9,0.5c0.2-0.1,0.4-0.2,0.6-0.2c-0.3-1.3-0.1-2.5-0.1-3.8
			c0.1-1,0-2.1,0.5-3c0-0.1-0.1-0.2-0.2-0.3c-0.1-3.7,0.1-7.3,0-11c0-0.4-0.1-0.7-0.1-1.1c-0.9,0-1.9,0.1-2.8-0.2
			c0.3,2.4,0.2,4.8,0.2,7.2c0,1.5,0,3,0,4.5c0.1,0.3-0.3,0.4-0.5,0.5c-0.1-1.5,0-3.1-0.1-4.6c0-2.4-0.1-4.9,0.2-7.3
			c0.1-0.4-0.2-0.8-0.6-1.1c-0.3-0.1-0.7-0.1-1-0.2c0-0.6,0.7-0.5,1.2-0.6c-0.1-1.5,0.1-3,0-4.5c-0.2-0.2-0.4-0.3-0.5-0.5
			c0.2-0.1,0.4-0.2,0.7-0.2c-0.1-0.6,0-1.2,0-1.9C166.6,73.2,166.2,72.5,166.3,71.8z M172,74.2c-0.2,0.2-0.4,0.5-0.5,0.8
			c0.2,0.1,0.3,0.2,0.5,0.4c0,0.2-0.1,0.4-0.1,0.5c0.2-0.1,0.3-0.2,0.5-0.2c0.2,0,0.6,0.2,0.7-0.1C172.9,75,172.4,74.7,172,74.2z
			 M171.1,75.1c-0.1,0.2-0.1,0.3,0.1,0.3C171.4,75.3,171.3,75.2,171.1,75.1z M166.8,81.6c0.1,0.3,0.1,0.5,0.2,0.8
			c0.9-0.3,1.8-0.3,2.7-0.2c0-0.3,0-0.5,0-0.8C168.7,81.5,167.7,81.6,166.8,81.6z M167.1,106.6c-0.1,0.2-0.1,0.5,0,0.8
			C167.2,107.2,167.4,106.6,167.1,106.6z M167.7,107.1c-0.1,0.2,0,0.3,0.2,0.2C168,107.1,167.9,107,167.7,107.1z"/>
	</g>
	<path d="M167.2,73.4c1.1-0.1,2.2-0.3,3.2-0.1c-0.1,0.2-0.1,0.4-0.2,0.6c-1,0.1-2.1-0.1-3.1-0.2C167.2,73.6,167.2,73.5,167.2,73.4z"
		/>
	<path d="M187.5,74.9c0.7-0.1,1.5-0.2,2.2,0c-0.2,0.1-0.4,0.4-0.6,0.4C188.6,75.2,188,75.2,187.5,74.9z"/>
	<path d="M188,75.4c0.6-0.4,1.1,0.2,1.6,0.4c0,0.1-0.1,0.2-0.1,0.3c-0.3,0.1-0.6,0.2-0.9,0.2c0.1,1.2,0.3,2.6-0.2,3.8
		c-0.1,0-0.3,0-0.5,0c-0.3-1.2,0-2.5-0.1-3.8C187.8,76,187.6,75.6,188,75.4z"/>
	<path d="M197,75.3c0.2,1.2,0.3,2.4,0.2,3.6c0,0.1-0.1,0.2-0.2,0.2c-0.4,0-0.5-0.5-0.4-0.8C196.9,77.3,196.8,76.3,197,75.3z"/>
	<path d="M167.3,76c0.8-0.2,1.7-0.2,2.4,0.1c-0.6,0.2-1.2,0.2-1.8,0.2C167.7,76.2,167.5,76.1,167.3,76z"/>
	<path d="M174.6,76.3c0.4-0.1,0.9-0.3,1.3,0.1c-0.1,0.1-0.2,0.4-0.3,0.5c-0.1-0.1-0.2-0.3-0.2-0.4c0,0.3-0.1,0.6-0.2,0.9
		c0,1.1,0.1,2.3,0,3.4c0,0.3-0.4,0.3-0.7,0.4C174.3,79.6,174.6,77.9,174.6,76.3z"/>
	<path d="M167.2,76.4c0.2,0.1,0.4,0.3,0.6,0.2c0.6,0,1.1,0.1,1.7,0.1c-0.5,0.6-1.5,0.3-2.1,0c0.1,1.1,0.2,2.1,0.4,3.2
		c0.2,0,0.4,0.1,0.6,0.1c0,0.1-0.1,0.3-0.1,0.4c-0.4,0.1-0.9,0.1-1.3,0.1C167.6,79.2,167,77.8,167.2,76.4z"/>
	<path d="M181.4,77.7c0.2-0.3,0.6-0.3,1-0.4c0.6,0.6,0.5,1.6,0.4,2.4c-0.4,0.3-0.9,0.2-1.4,0.3c0,0.5-0.1,1-0.1,1.4
		c-0.3-0.4-0.2-0.9-0.3-1.4C181,79.3,180.8,78.4,181.4,77.7z"/>
	<path d="M173.6,82.3c0.2-0.5,0.3-1.1,0.7-1.5c0,0.4-0.1,0.7-0.2,1.1c0.5-0.1,1-0.1,1.5-0.1c-0.1,0.2-0.1,0.3-0.2,0.5
		C174.8,82.3,174.2,82.3,173.6,82.3z"/>
	<path d="M186.7,80.9c0.3,0.5,0.9,0.4,1.4,0.4c0,0.1,0,0.2,0,0.3c-0.5,0-1,0-1.4,0C186.6,81.4,186.6,81.1,186.7,80.9z"/>
	<path d="M193,82.6c0.2-0.3,0.6-0.1,0.9-0.1c-0.2,0.1-0.4,0.2-0.6,0.4c-0.3,0.5-0.2,1.2-0.2,1.8c0,0.6-0.1,1.2,0,1.8
		c0.3,0.3,0.9,0.3,1.2,0.6c-0.5,0.1-1,0.1-1.5,0.2c-0.3-0.9-0.1-1.8-0.1-2.8C192.5,83.9,192.5,83.1,193,82.6z"/>
	<path d="M170.7,83.7c0.3-0.3,0.7-0.1,1-0.1c-0.3,0.2-0.8,0.4-0.8,0.8c-0.2,1.2,0.4,2.5-0.2,3.6c-0.2-0.2-0.4-0.3-0.4-0.6
		c-0.1-0.8,0-1.5,0-2.3C170.3,84.6,170.2,84,170.7,83.7z"/>
	<g>
		<path d="M198.3,86.8c0-0.3,0-0.7,0.1-1c0.1,2.7,0,5.4,0.1,8.1c0,0.6-0.3,1.4,0.1,2c-0.1-0.9-0.2-1.8,0.2-2.6c0.2-2,0.1-4,0.3-5.9
			c0.4,1.2,0.1,2.6,0.3,3.8c0-0.7,0-1.3,0.1-1.9c0.3,0.3,0.2,0.8,0.2,1.1c0,1.7,0,3.3,0,5c0.1-1.7,0-3.4,0.2-5
			c0-0.5,0.3-0.9,0.5-1.3c0,0.4,0.1,0.9,0.1,1.3c0.2-0.1,0.3-0.2,0.5-0.3c0-0.7-0.1-1.3,0.1-2c0.2,1.5,0.1,3.1,0.1,4.6
			c0,1.9,0,3.8,0,5.7c-0.2,0-0.4,0.1-0.6,0.1c0,0.5,0,1,0.1,1.4c0.1-0.1,0.3-0.3,0.4-0.4c0.1,3.5,0.2,7,0.1,10.6
			c0.2,0,0.4-0.1,0.7-0.1c-0.2,1.6-0.1,3.2,0.4,4.7c-0.1,0.1-0.3,0.2-0.4,0.3c-0.7-1.4-0.8-2.9-0.5-4.4c-0.2-0.2-0.6-0.3-0.6-0.6
			c-0.1-2.8,0.1-5.6,0-8.4c-0.3,0.4-0.4,0.9-0.6,1.4c0.1,0.1,0.2,0.2,0.3,0.3c0,1.4-0.2,2.9-0.1,4.3c0.1,1,0.1,2.1,0.1,3.1
			c0.1,0.7,0.2,1.4,0.2,2.2c0,0.3,0.2,0.5,0.3,0.7c0.2,0.6,0.2,1.2,0.2,1.8c0,1.5,0.1,3,0,4.5c-0.1,0.9-0.3,1.9,0.1,2.7
			c0.1-2,0.1-4,0.2-6.1c0-0.3,0.1-0.7,0.3-0.9c0.4,1.2,0.2,2.5,0.3,3.7c0.2,5.6,0.3,11.2,0.3,16.8c0.2,0,0.4,0.1,0.6,0.1
			c0.1,1.1,0.2,2.1,0.2,3.2c0,0.2,0,0.6-0.2,0.7c-1.2,0.8-2.8,0.7-4.2,0.4c-2.1,0.6-4.3,0.4-6.4,0.4c-0.1-0.3-0.3-0.7-0.4-1
			c-0.4,0.4-0.4,1-0.3,1.5c0.1,0.2,0.5,0.3,0.4,0.7c-0.1,0.3-0.5,0.4-0.8,0.4c-1.6,0.2-3.2,0-4.8,0c-0.4,0-0.8,0.2-1.3,0.2
			c-1.3,0.1-2.7,0.2-4,0.1c0.1-0.8,0-1.6-0.1-2.4c0-3.8,0-7.6,0.3-11.4c0-0.1,0.1-0.3,0.2-0.4c0.1,1.2,0.1,2.3,0.2,3.5
			c1.2,0,2.3,0,3.5,0c0.8,0,1.7-0.1,2.6,0.2c0.3,0.1,0.1,0.4-0.1,0.6c-1.1,0.1-2.3-0.1-3.4-0.2c-0.8-0.1-1.7-0.2-2.5-0.3
			c0,1.7,0.1,3.5,0.1,5.3c0,1.4,0.1,2.7-0.1,4.1c1.3,0.1,2.6,0.3,3.8,0.5c0.5-0.5,1.2-0.5,1.8-0.6c1.1-0.1,2.3-0.2,3.4-0.2
			c-0.1-1.5,0-3,0-4.4c0-1.6,0.1-3.2,0.3-4.8c-0.9,0-1.7-0.3-2.6-0.4c-0.5,0.1-0.9,0.3-1.4,0.2c0-0.1,0.1-0.4,0.2-0.5
			c0.4-0.2,0.9-0.3,1.4-0.4c0.3,0.4,0.9,0.4,1.4,0.4c0-1.9,0-3.8,0.1-5.8c0-2.1,0-4.2,0.1-6.3c0-0.6,0-1.1,0.3-1.7
			c0.2,1,0.2,2,0.2,3.1c0,0.4,0.3,0.6,0.5,0.9c0-0.4-0.1-0.9-0.2-1.3c0.1,0,0.4,0,0.5,0c-0.4-0.9-0.8-1.8-0.7-2.8
			c-0.9-0.1-1.9,0-2.8-0.4c0.8-0.2,1.7-0.2,2.6-0.1c0.4,0,0.7,0.2,1,0.4c-0.2-0.6-0.6-1.2-0.5-1.8c0-0.6-0.3-1.1-0.3-1.7
			c0.2,0.2,0.3,0.3,0.5,0.5c-0.2-0.6-0.5-1.3-0.4-2c0.2,0.3,0.5,0.7,0.7,1c-0.2-0.8-0.7-1.4-0.7-2.2c0.4,0.2,0.6,0.6,0.9,1
			c-0.3-1-0.7-1.8-1-2.8c0.1,0,0.3,0,0.4,0c-0.5-1-0.2-2.2,0-3.3c-0.1,0-0.2-0.1-0.4-0.1c-0.3-1.3,0-2.5,0-3.8
			c0-0.2-0.1-0.4-0.2-0.6c-0.6,0.3-1.1,0.6-1.7,0.8c-0.2-0.6-0.6-0.9-1.1-1.2c0.6-0.2,1.1-0.1,1.5,0.4c0.4-0.2,0.8-0.4,1.2-0.6
			c0.7,1.2,1.6,2.2,2.5,3.3c0.4,0.5,1.1,0.5,1.7,0.7c0.8-0.1,1.5-0.2,2.3-0.2c-0.1-1.9,0.1-3.9,0-5.8c0.2-0.7-0.1-1.4,0.1-2
			c0.1-0.8,0-1.6,0.2-2.4c0.2,0.5,0,1,0.4,1.4c0.3,0.4,0.4,0.9,0.8,1.3c0-0.6-0.5-1.1-0.7-1.7C198.1,92.8,198.2,89.8,198.3,86.8z
			 M201.1,90.6c-0.1,0.7-0.1,1.5-0.3,2.2c-0.1,0.4-0.1,0.8-0.1,1.2c0,0.9,0,1.9,0.1,2.8c0,0.3,0.2,0.4,0.3,0.6c0-2.1,0-4.1,0-6.2
			C201.2,91,201.1,90.8,201.1,90.6z M199.2,96.4c0,0.4,0,0.8,0.1,1.2c0.2-0.4,0.2-0.8,0.2-1.2C199.4,96.4,199.3,96.4,199.2,96.4z
			 M198.9,97.7c0.1,0.4,0.3,0.8,0.5,1.1C199.5,98.3,199.3,98,198.9,97.7z M199.4,98.8c0.1,0.2,0.2,0.5,0.4,0.7c0-0.2,0-0.3,0-0.5
			C199.7,98.9,199.5,98.8,199.4,98.8z M200.3,99.4c-0.1,0.7,0.2,1.3,0.6,1.8c0.1-0.4,0.1-0.8,0.1-1.1c-0.2,0-0.3,0.1-0.5,0.1
			C200.4,100,200.4,99.7,200.3,99.4z M198.1,99.5c0,0.3,0.1,0.7,0.3,0.9C198.4,100.1,198.3,99.8,198.1,99.5z M191.5,103.3
			c-0.1,1-0.2,2,0.2,2.9c0.1-0.7-0.3-1.4,0.2-2c0.1,0.1,0.3,0.2,0.4,0.3c0.1-0.1,0.1-0.3,0.2-0.4
			C192.1,103.8,191.8,103.5,191.5,103.3z M192.6,104.4c-0.1,0.2,0.2,0.4,0.3,0.6c0.2,0.2,0.2-0.2,0.1-0.3
			C192.9,104.6,192.8,104.3,192.6,104.4z M194.3,106.1c-0.1-0.2-0.2-0.3-0.3-0.5c0,0.5,0,1,0.1,1.5c-0.4-0.4-0.2-1-0.3-1.4
			c-0.3,1.1,0.2,2.4-0.5,3.5c1.6,1.8,3.1,3.6,4.3,5.7c0-0.3,0-0.6,0.1-0.9c-1.4-1.6-2.7-3.3-3.9-5.1c0.1-0.3,0.2-0.5,0.3-0.8
			c0,0.3,0,0.5,0.1,0.8c0.1,0.1,0.3,0.3,0.4,0.4c-0.1-0.6-0.3-1.2-0.5-1.8c0.2,0.3,0.4,0.6,0.6,0.9c0.2,0,0.5,0,0.7,0.1
			c-0.1-0.3-0.3-0.7-0.4-1c0.3,0.2,0.5,0.5,0.8,0.8c0.5,0.2,1.1,0.1,1.7,0.2c0-0.1,0-0.3-0.1-0.4c0.1,0.1,0.2,0.3,0.3,0.4
			c0.1-0.9-0.4-1.8-0.3-2.8c-0.6,0-1.1,0.1-1.7,0.1C195.2,105.6,194.6,105.6,194.3,106.1z M192.3,106.7c-0.1,0.2,0,0.5,0.2,0.5
			C192.6,107,192.5,106.6,192.3,106.7z M192.2,107.4c-0.1,0.1-0.2,0.3-0.3,0.4c0.3,0.3,0.6,0.7,0.9,1.1
			C192.6,108.4,192.4,107.9,192.2,107.4z M191.7,108c0.1,0.7,0.6,1.3,1.1,1.9C192.7,109.2,192.2,108.6,191.7,108z M198.5,108.6
			c0.2,0.5,0.4,0.9,0.8,1.2C199.1,109.4,198.8,109,198.5,108.6z M194.6,108.8c0.4,0.6,0.9,1.1,1.3,1.7c0.6,0.7,1.1,1.4,1.8,2.1
			c0-0.4,0.1-0.8-0.2-1.1c-0.6-0.8-1.2-1.7-1.8-2.5c0.1,0.3,0.2,0.6,0.2,0.9C195.6,109.4,195.2,108.9,194.6,108.8z M196.4,108.8
			c0.5,0.5,0.9,1.1,1.4,1.6c0-0.1,0-0.4,0-0.5C197.4,109.5,197,109,196.4,108.8z M197.2,109c0.2,0.2,0.4,0.4,0.6,0.6
			c0-0.2-0.1-0.4-0.1-0.5C197.6,109.1,197.4,109,197.2,109z M191.8,109.3c0.1,0.7,0.5,1.3,0.7,1.9c0.1-0.1,0.1-0.2,0.2-0.3
			C192.4,110.4,192.2,109.8,191.8,109.3z M193,109.4c0,0.2,0,0.5,0.1,0.7c0.2,0.6-0.2,1.2-0.1,1.9c0,0.5,0.6,0.7,0.8,1.1
			c1.1,1.8,2.4,3.6,3.7,5.3c0-0.3,0-0.7-0.2-1c-1-1.7-2.2-3.3-3.5-4.7c-0.2-0.2-0.4-0.4-0.5-0.7c0.6,0.3,0.9,0.8,1.4,1.3
			c1.1,1.2,2,2.5,2.9,3.8c0-0.6-0.5-1-0.8-1.4c-0.7-0.9-1.3-1.9-2-2.8c-0.5-0.7-1.1-1.4-1.5-2.2c0.2,0.1,0.4,0.3,0.5,0.5
			c1.2,1.6,2.4,3.4,3.7,5c0-0.5-0.4-0.9-0.7-1.3C195.7,112.8,194.5,110.9,193,109.4z M194.3,109.5c1.1,1.5,2.1,2.9,3.4,4.2
			c0-0.3,0-0.6-0.2-0.8c-0.9-1.1-1.7-2.2-2.6-3.3C194.7,109.5,194.5,109.5,194.3,109.5z M192.1,111.1c0.1,0.5,0.3,1,0.6,1.4
			C192.7,112,192.4,111.6,192.1,111.1z M193,112.8c0,0.8-0.1,1.7,0.2,2.5c0.1,0.2-0.2,0.5,0,0.8c1.1,1.5,2.2,2.9,3.2,4.4
			c0.3,0.4,0.6,0.8,0.9,1.2c-0.2-0.5-0.5-0.9-0.7-1.3c-1.1-1.6-2-3.3-3.1-4.9c-0.2-0.3-0.4-0.6-0.5-1c0.5,0.5,0.8,1.2,1.3,1.8
			c1,1.5,2,3.1,3,4.6c0-0.4,0.1-0.8-0.1-1.1c-1.2-1.6-2.3-3.3-3.5-4.9c-0.2-0.3-0.4-0.5-0.5-0.9c0.4,0.3,0.7,0.8,1,1.2
			c1,1.4,2.1,2.9,3.2,4.3c0-0.3,0.1-0.7-0.1-0.9c-1.5-1.8-2.7-3.7-3.8-5.8C193.4,112.8,193.1,112.8,193,112.8z M191.8,113.8
			c0.2,0.7,0.4,1.5,0.9,2.1C192.8,115,192.2,114.4,191.8,113.8z M191.8,115.3c0.2,0.5,0.4,1.1,0.7,1.5c0-0.1,0.1-0.2,0.1-0.4
			C192.4,116.1,192.1,115.7,191.8,115.3z M193.1,116.1c0,0.5,0,1,0,1.5c1.1,1.7,2.2,3.4,3.4,5c0.3,0.4,0.5,0.8,0.9,1.2
			c0-0.6-0.4-1-0.7-1.4c-0.9-1.3-1.8-2.6-2.6-3.9c-0.3-0.5-0.6-0.9-0.8-1.4c0.6,0.6,1,1.3,1.5,2c0.9,1.2,1.7,2.5,2.7,3.8
			c0-0.3,0-0.6-0.2-0.8C195.9,120.1,194.5,118.1,193.1,116.1z M193.2,118.3c-0.2,1,0,2.1-0.1,3.1c0,0.4,0,0.8,0.2,1.1
			c0.4,0.5,0.7,1.1,1.2,1.5c-0.4-0.9-1-1.7-1.2-2.7c0.3,0.3,0.4,0.7,0.6,1.1c0.2,0,0.4,0,0.5,0.1c-0.2-0.4-0.4-0.8-0.5-1.2
			c0.1,0,0.2,0,0.3-0.1c-0.2-0.5-0.7-1-0.8-1.5c0.2,0.1,0.3,0.3,0.4,0.4c1.2,1.7,2.3,3.5,3.5,5.2c0-0.4,0.1-0.8-0.1-1.1
			c-0.9-1.3-1.7-2.7-2.6-4.1C194.1,119.6,193.7,118.9,193.2,118.3z M191.5,118.9c0.2,0.2,0.4,0.5,0.6,0.7c-0.1-0.3-0.1-0.6-0.2-0.8
			C191.8,118.8,191.6,118.9,191.5,118.9z M192.2,120.3c-0.1,0.2,0,0.5,0.2,0.6C192.7,120.8,192.4,120.3,192.2,120.3z M194.3,121.4
			c0,0.4,0.3,0.6,0.4,0.9c0.6,1,1,2.2,1.8,3.1c-0.2-0.1-0.4-0.1-0.6-0.2c0.2,0.4,0.5,0.7,0.7,1.1c0.2,0,0.5-0.1,0.7-0.1
			c-0.2-0.5-0.6-1-0.9-1.5c-0.7-1.1-1.4-2.2-2.1-3.3C194.4,121.5,194.3,121.5,194.3,121.4z M191.2,121.6c-0.1,0.8,0,1.7,0,2.5
			c0.2,0.1,0.3,0.1,0.5,0.2c-0.1-0.5-0.3-1.1-0.2-1.6C191.7,122.3,191.4,121.9,191.2,121.6z M191.8,122c-0.1,0.2-0.1,0.3,0.1,0.3
			C192.1,122.1,192,122,191.8,122z M192.3,122.2c-0.2,0.1,0.1,0.5,0.3,0.4C192.8,122.5,192.6,122.1,192.3,122.2z M192.1,122.7
			c-0.1,0.2,0.1,0.5,0.3,0.5C192.5,123,192.3,122.7,192.1,122.7z M193.2,122.6c0,0.2,0,0.4,0.1,0.6c0.2,0.3,0.5,0.5,0.7,0.9
			c0.4,0.8,0.9,1.6,1.5,2.3c0.1,0,0.4,0,0.5,0.1c-0.4-0.7-0.9-1.3-1.3-1.9C194.1,123.9,193.7,123.2,193.2,122.6z M192,123.2
			c-0.1,0.2,0,0.4,0.2,0.5C192.4,123.7,192.2,123.1,192,123.2z M201.4,123.2c0,1.1,0.2,2.2,0.3,3.4c0-1.1,0-2.2,0-3.3
			C201.7,123.3,201.5,123.2,201.4,123.2z M194.8,123.7c0,0.2,0,0.3,0.2,0.5C195.4,124.6,195.1,123.6,194.8,123.7
			C194.7,123.7,194.7,123.7,194.8,123.7z M193.3,123.7c0,0.8,0,1.5,0.1,2.3c0.5,0.6,0.8,1.4,1.3,2c1.1,0.4,2.2,0.1,3.2-0.2
			c0.1-0.3,0.2-0.5,0.2-0.8c-0.7,0.1-1.4,0-2-0.1c0.1,0.2,0.1,0.3,0.2,0.5c-0.4-0.3-0.8-0.5-1.3-0.5c0.2,0.2,0.4,0.5,0.7,0.7
			c-0.1,0.2-0.2,0.3-0.3,0.5c-0.6-1-1.4-1.9-1.8-3c0.6,0.4,0.8,1.2,1.5,1.6c-0.1-0.5-0.5-0.9-0.7-1.4
			C193.9,124.7,193.6,124.1,193.3,123.7z M194.9,124.4c0.4,0.7,0.9,1.5,1.5,2C196.1,125.7,195.5,125,194.9,124.4c0-0.1,0-0.2,0-0.2
			C194.6,123.8,194.5,124.6,194.9,124.4z M191.2,124.3c-0.1,0.5,0,1,0.4,1.4C191.5,125.2,191.4,124.8,191.2,124.3z M191.2,126.2
			c-0.1,0.2,0,0.5,0.2,0.6C191.7,126.7,191.5,126.1,191.2,126.2z M193.3,126.2c-0.3,0.9,0.4,1.5,0.9,2.1c-0.1,0-0.4,0-0.5-0.1
			c0.5,1,1.2,1.8,1.8,2.7c-0.4-0.9-0.9-1.8-1.5-2.5c0.1,0.1,0.4,0.2,0.5,0.3C194.1,127.9,193.8,127,193.3,126.2z M192.1,126.9
			c-0.1,0.2-0.1,0.3,0.1,0.3C192.4,127.1,192.3,127,192.1,126.9z M191.2,127c0.4,0.8,0,1.6,0.1,2.4c0,0.6-0.1,1.3,0,1.9
			c0,0.1,0.1,0.2,0.2,0.2c0.1-0.6-0.1-1.1,0.1-1.7c0.1-0.3-0.1-0.6-0.1-0.8c-0.2-0.4,0.1-0.9,0-1.4
			C191.5,127.4,191.3,127.2,191.2,127z M200.8,127c0.1,0.9,0.4,1.7,0.9,2.4c0-0.3,0.1-0.6-0.1-0.8
			C201.3,128.1,201.1,127.5,200.8,127z M193.4,127.7c-0.1,0.1-0.1,0.5,0.1,0.4C193.6,128.1,193.6,127.7,193.4,127.7z M192,129
			c0-0.3-0.1-0.7-0.2-1C191.6,128.4,191.7,128.7,192,129z M193.4,128.4c0,0.3,0,0.5,0,0.8c0.4,0.1,0.6,0.5,0.9,0.8
			C194,129.4,193.7,128.9,193.4,128.4z M194.9,128.4c0.4,0.9,0.9,1.9,1.6,2.7c-0.2-0.7-0.7-1.3-1-2
			C195.4,128.8,195.2,128.6,194.9,128.4z M195.9,128.8c0.3,0.4,0.8,0.2,1.1,0C196.7,128.8,196.3,128.8,195.9,128.8z M197.2,128.7
			c0,0.2,0.1,0.3,0.3,0.1C197.5,128.6,197.4,128.6,197.2,128.7z M196.5,129.4c-0.1,0.2,0.1,0.6,0.4,0.6
			C197,129.7,196.8,129.3,196.5,129.4z M197,129.4c-0.1,0.2,0,0.3,0.2,0.2C197.3,129.4,197.2,129.3,197,129.4z M197.6,129.3
			c-0.1,0.4-0.3,0.8-0.7,1.1c-0.1-0.1-0.3-0.2-0.4-0.3c0.3,0.6,0.6,1.1,1,1.6c-0.5-0.1-0.6-0.7-1-1c0.3,0.7,0.7,1.5,1,2.2
			C197.6,131.7,197.7,130.5,197.6,129.3z M201.2,129.6c0.2,0.5,0.6,1.1,0.4,1.7c-0.1,0.3,0.1,0.6,0.2,0.9c0-0.9,0-1.7,0-2.6
			C201.5,129.6,201.3,129.6,201.2,129.6z M193.4,129.6c0.1,0.5-0.1,1,0.3,1.4C193.8,130.5,193.7,130,193.4,129.6z M194.3,130.7
			c0.1,0.6,0.5,1,0.9,1.4C194.9,131.6,194.6,131.2,194.3,130.7z M192.2,131.3c-0.2,0.1-0.1,0.5,0.1,0.5
			C192.6,131.8,192.5,131.1,192.2,131.3z M193.4,131.3c0,0.6,0,1.1,0,1.7C193.7,132.5,193.8,131.8,193.4,131.3z M196.1,131.5
			c0,0.4,0.2,0.8,0.6,0.9C196.6,132.1,196.4,131.8,196.1,131.5z M191.3,131.7c-0.1,0.2,0.3,0.4,0.5,0.2
			C191.9,131.7,191.4,131.5,191.3,131.7z M191.8,132.1c0,0.8,0.3,1.6,0.2,2.4c0,0.6,0,1.2,0.1,1.8c0-0.6,0.4-1.3,0.1-1.9
			c-0.3-0.6,0-1.3,0.3-1.9c-0.1,0.1-0.2,0.3-0.3,0.4C192.1,132.6,191.9,132.4,191.8,132.1z M197.2,133.2c0,0.4,0,0.7-0.1,1.1
			c-0.2-0.1-0.4-0.3-0.6-0.4c0.1,0.2,0.2,0.4,0.3,0.6c-0.4,0.1-0.8,0.1-1.3,0c0,0.1,0,0.3,0,0.3c0.2,0,0.3-0.1,0.5-0.2
			c0,0.3,0,0.6,0,0.8c0.3-0.2,0.5-0.3,0.7-0.5c0.2,0.1,0.4,0.2,0.6,0.3c0-0.3-0.1-0.5-0.1-0.8c0.1,0.1,0.3,0.2,0.4,0.3
			c0-0.4,0-0.9-0.1-1.3C197.5,133.4,197.3,133.3,197.2,133.2z M201.1,133.2c0.4,0.8,0.6,1.6,0.4,2.5c-0.4-0.2-0.8-0.2-1.2-0.2
			c0.5,0.4,1,0.8,1.5,1.1c0-0.8,0.1-1.7,0-2.5C201.6,133.7,201.4,133.5,201.1,133.2z M193.4,134.9c0.1-0.1,0.3-0.2,0.4-0.2
			c0,0.4,0.1,0.7-0.1,1.1c-0.2,0.3-0.2,0.7-0.2,1.1c0.2-0.2,0.3-0.4,0.5-0.5c0-0.4-0.1-0.7,0-1.1c0.2,0.2,0.3,0.4,0.5,0.6
			c-0.1-0.5-0.3-1.1-0.8-1.4c0-0.1-0.1-0.2-0.1-0.3C193.5,134.3,193.4,134.6,193.4,134.9z M195.1,134.4c0,0.1-0.1,0.3-0.2,0.4
			c0.2,0.3,0.4,0.5,0.6,0.8C195.8,135.2,195.3,134.8,195.1,134.4z M194.4,134.7c-0.1,0.2,0.1,0.5,0.3,0.3
			C194.9,134.9,194.6,134.6,194.4,134.7z M199,135c-0.1,0.2-0.1,0.5,0.2,0.5C199.5,135.5,199.2,134.9,199,135z M199.6,135.5
			c0.2,0.3,0.5,0.4,0.8,0.5C200.2,135.8,199.9,135.6,199.6,135.5z M197.9,136c-0.1,0.3-0.1,0.7-0.4,0.8c0.1,0.4,0.2,0.8,0.3,1.2
			c0.6-0.2,0.1-0.7,0.2-1.2c0.2,0.1,0.3,0.3,0.5,0.5c0.1-0.5,0-1-0.2-1.5C198.1,135.9,198,136,197.9,136z M195.8,136.1
			c-0.1,0.2,0,0.3,0.2,0.2C196.1,136.1,196.1,136.1,195.8,136.1z M194.2,136.4c-0.1,0.1,0.1,0.4,0.3,0.3
			C194.6,136.6,194.4,136.3,194.2,136.4z M196.2,136.8c0.1,0,0.3,0.1,0.4,0.1c-0.1-0.2-0.2-0.4-0.3-0.6
			C196.3,136.5,196.3,136.7,196.2,136.8z M193.9,136.7c-0.2,0.1-0.2,0.2,0,0.3C194,136.9,194,136.8,193.9,136.7z M192.1,136.9
			c-0.1,0.2-0.1,0.3,0.1,0.3C192.4,137,192.3,136.9,192.1,136.9z M193.5,137.2c-0.1,0.1-0.2,0.5,0.1,0.5
			C193.9,137.7,193.9,137,193.5,137.2z M195.7,137.3c-0.1,0.2-0.1,0.3,0.1,0.3C196,137.5,195.9,137.4,195.7,137.3z M194.7,137.9
			c0.1,0.5-0.1,0.9-0.3,1.3c-0.2-0.4-0.4-0.8-0.8-1c-0.1,0.5-0.1,1,0,1.5c1.6,0.1,3.3,0.1,4.9,0.5c0-0.5,0-1.1,0-1.6
			c-0.1,0-0.3-0.1-0.4-0.2c-0.2,0.3-0.5,0.5-0.8,0.7c0-0.4-0.1-0.7-0.1-1.1c-0.4,0.4-0.7,0.7-1.1,1.1c0-0.3,0-0.6-0.1-0.9
			c-0.3,0.4-0.5,0.8-0.9,1.1c0-0.6,0.4-1.3,0-1.8C194.9,137.7,194.7,137.8,194.7,137.9z M196,137.8c-0.1,0.3,0,0.3,0.2,0.3
			C196.4,137.8,196.3,137.7,196,137.8z M201.1,138.8c-0.3,0.1-0.6,0.2-0.8,0.2c0.1-0.2,0.1-0.4,0.2-0.7c-0.3,0.3-0.8,0.6-1.1,0.9
			c0,0.2,0,0.4,0,0.6c1.1,0,2.2-0.2,3.4-0.3c-0.1-0.4-0.2-0.8-0.3-1.2c-0.2-0.1-0.4-0.2-0.6-0.3
			C201.6,138.3,201.4,138.6,201.1,138.8z"/>
	</g>
	<path d="M174.1,89.4c0.1-0.4,0.6-0.4,0.9-0.4c0.7-0.1,1.4,0.4,1.9,0.8c0.2,0.1,0.2,0.3,0.3,0.5c-0.3-0.1-0.6-0.1-0.8-0.2
		c0.1,0.5,0.1,1,0.1,1.4c2.2,0,4.5-0.2,6.7-0.1c0,0.1,0,0.3-0.1,0.3c-2.1,0.2-4.2,0.1-6.3,0.2c-1,0.1-2,0-3-0.1
		c0.5-0.2,1.1-0.2,1.7-0.2c-0.1-0.7,0-1.5,0-2.2C175.1,89.4,174.6,89.4,174.1,89.4z"/>
	<path d="M189.8,91.5c0.6,0.2,1.2,0.3,1.6,0.7c-0.1,0.5-0.8,0.6-1.2,0.7c-2.6,0.1-5.1,0.1-7.7,0.2c0,0.1,0,0.3,0,0.4
		c-0.1,0-0.3,0.1-0.4,0.1c0.2,0.2,0.5,0.5,0.6,0.8c2.1-0.1,4.2,0,6.3-0.1c-0.1-0.2-0.1-0.5-0.2-0.7c0.5-0.3,1.1-0.5,1.6-0.2
		c-0.1,0.2-0.1,0.4-0.2,0.6c-0.4,0-0.9-0.2-1.1,0.3c1.4,0.1,2.8-0.1,4.1,0.1c-0.4,0.3-0.9,0.2-1.3,0.2c-3.8,0-7.6,0-11.4,0
		c-0.2,0-0.5,0-0.7-0.1c0.4-0.1,0.9-0.1,1.3-0.1c0-0.4,0.2-0.9,0.4-1.2c-2.5,0.1-4.9,0.2-7.4,0c0.8-0.3,1.7-0.3,2.6-0.4
		c3.9-0.3,7.9-0.3,11.8-0.6c0.5,0,1-0.1,1.5-0.1C190,91.9,189.9,91.7,189.8,91.5z"/>
	<path d="M174.2,93.4c0.2-0.2,0.5,0,0.8,0c-0.5,0.3-0.8,0.7-0.9,1.3c0.7,0,1.4,0,2.1,0.1c-0.3,0.3-0.8,0.2-1.1,0.2
		c-0.6,0-1.3,0-1.9-0.2c0.2-0.1,0.4-0.1,0.6-0.2C173.5,94.1,173.7,93.6,174.2,93.4z"/>
	<path d="M177.4,94.4c-0.3-0.4-0.1-0.8,0.3-1.1C177.6,93.7,177.5,94,177.4,94.4z"/>
	<path d="M194.3,94.2c0.7-0.1,1.5-0.1,2.2-0.2c0,0.1,0,0.3,0,0.4c0.3,0,0.7,0.1,1,0.2c-0.1,0.1-0.2,0.3-0.2,0.4
		c-0.8,0.2-1.6,0.1-2.4,0.1c-3.1,0-6.3,0-9.4-0.1c0.9-0.2,1.9-0.1,2.8-0.2c2.3-0.1,4.6-0.1,6.8-0.3c-0.3-0.1-0.6-0.1-0.9-0.1
		C194.3,94.4,194.3,94.3,194.3,94.2z"/>
	<path d="M173.4,95.5c0.5-0.1,1-0.1,1.4-0.1c2.6-0.1,5.3-0.2,7.9-0.1c0.1,0,0.2,0.1,0.3,0.2c-0.9,0.1-1.8,0.1-2.6,0.1
		C178.1,95.5,175.7,95.6,173.4,95.5z"/>
	<path d="M179.8,101.5c0.2-1,0.1-2.4,1.2-2.9c-0.3,0.6-0.7,1.2-0.7,1.9c0.1-0.3,0.3-0.6,0.5-0.8c0.2-0.2,0.5-0.2,0.8-0.2
		c0,0.6,0.1,1.2,0,1.8C180.9,101.2,180.3,101.4,179.8,101.5z"/>
	<path d="M179.2,102.3c0.6-0.4,1.1-0.9,1.8-0.9c0,0.5-0.3,0.8-0.6,1c0,1,0,2.1,0.1,3.1c0,0.6,0,1.2-0.1,1.8c0,0.3-0.3,0.3-0.5,0.4
		c-0.2-1.7,0.1-3.4,0.1-5.1c-0.3,0.1-0.7,0.3-1,0.4c-0.2-0.4-0.4-0.7-0.7-1c0.2-0.1,0.4-0.2,0.5-0.3
		C178.9,102,179,102.1,179.2,102.3z"/>
	<path d="M182.4,101.8c0.6-0.1,1.1-0.4,1.7-0.2c0,0.4-0.2,0.7-0.6,0.8c0.1,1.1,0.2,2.3,0.3,3.5c0,0.5,0,1-0.1,1.5
		c-0.1,0.1-0.3,0.1-0.4,0.2c-0.2-0.6-0.2-1.3-0.2-2c0.1-1.1,0.1-2.2,0.1-3.3c-0.3,0.1-0.7,0.3-1,0.4c-0.3-0.3-0.7-0.5-1.1-0.7
		C181.3,101.5,182.1,101.8,182.4,101.8z"/>
	<path d="M185.8,102c0.6-0.4,1.2-0.7,1.9-0.5c-0.1,0.3-0.3,0.6-0.6,0.7c0.1,1.5,0.3,2.9,0.3,4.4c0.1,0.4-0.4,0.5-0.7,0.6
		c-0.2-1.6-0.1-3.3-0.1-4.9c-0.4,0.2-0.9,0.4-1.3,0.7c-0.1-0.5-0.7-0.5-0.9-1C185,101.7,185.5,101.9,185.8,102z"/>
	<path d="M163.4,102.3c0.1-0.3,0.2-0.8,0.6-0.6c0.8,0.2,1.1,1.2,0.8,1.9c-0.2-0.3-0.3-0.7-0.6-0.9
		C164,102.5,163.7,102.4,163.4,102.3z"/>
	<path d="M184.7,102.5c0.3,0.4,0.2,1,0.2,1.5c0,1.4,0.2,2.8,0.1,4.1c-0.5,0.1-1,0.1-1.5,0c0.4-0.2,0.8-0.2,1.3-0.3
		c-0.1-1.1-0.1-2.3-0.1-3.4C184.6,103.8,184.6,103.2,184.7,102.5z"/>
	<path d="M187.8,102.5l0.2,0c0.1,1.5,0.2,3,0.2,4.4c0,0.2-0.1,0.4-0.2,0.5C187.8,105.8,187.9,104.2,187.8,102.5z"/>
	<path d="M163.8,102.6c0.3,0.1,0.4,0.3,0.3,0.6c-0.2,1.2,0,2.5,0,3.7c-0.1,3.6-0.1,7.2-0.1,10.9c0.7,0,1.4-0.1,2.1,0.2
		c-0.7,0.1-1.4,0.1-2.1,0.2c0,3.8-0.2,7.6-0.1,11.4c0.5-0.2,0.4-0.8,0.6-1.2c0.2,0.3,0.1,0.7,0,1c0.3,0.2,0.6,0.4,0.9,0.7
		c-0.5,0-1,0.1-1.4,0.1c0.2-0.2,0.4-0.3,0.6-0.5c-0.2,0-0.5,0-0.7,0c0,0.6,0,1.1-0.1,1.7c-0.1,0.2-0.4,0.3-0.6,0.4
		c-0.2-1.4,0-2.8,0-4.2c0.1-7,0.3-13.9,0.4-20.9C163.6,105.3,163.8,104,163.8,102.6z"/>
	<path d="M190.8,102.7c0.1,0.3,0.1,0.5,0.2,0.8c0.1,1.7,0.1,3.3,0.1,5c0,2.5,0.1,5.1,0,7.6c0,0.3-0.1,0.6-0.2,0.9
		c-0.1-0.2-0.2-0.3-0.3-0.5c-0.6,0.1-1.2,0.1-1.8,0.1c0.6-0.2,1.3-0.3,1.9-0.2c-0.1-2.5,0-4.9,0-7.4
		C190.6,107,190.5,104.8,190.8,102.7z"/>
	<path d="M178.2,102.8c0.2,0.8,0.1,1.7,0.2,2.5c0,0.9,0.2,1.7,0,2.6c-0.1,0-0.2,0.1-0.3,0.2C178.1,106.4,178,104.6,178.2,102.8z"/>
	<path d="M181.4,107.9c-0.1-1.7-0.2-3.4,0.1-5.1c0.2,1.5,0.2,2.9,0.3,4.4c0,0.4-0.1,0.7-0.2,1.1c-0.4-0.1-1,0-1.3-0.3
		C180.6,107.9,181,107.9,181.4,107.9z"/>
	<path d="M172.3,107.6c0-0.6,0-1.2,0.3-1.6C172.6,106.5,172.9,107.3,172.3,107.6z"/>
	<path d="M187.2,108c0.3-0.4,0.8-0.3,1.2-0.3c0,0.1,0,0.3,0,0.4C188,108,187.6,108,187.2,108z"/>
	<path d="M172.6,108c0.5-0.1,1,0,1.5,0c0,0.1-0.1,0.3-0.2,0.4C173.4,108.3,172.9,108.3,172.6,108z"/>
	<path d="M167.1,109.1c0-0.4,0-0.8,0.1-1.2c0.3,2.3,0.2,4.6,0.2,6.9c0,4.7,0.1,9.4,0.1,14.2c0,0.5,0.1,1.1-0.3,1.6
		c-0.1-0.5-0.1-1.1-0.2-1.6c0-2,0.1-4,0-6.1C167.2,118.4,167,113.7,167.1,109.1z"/>
	<path d="M176.8,108.3c0.4-0.3,1-0.4,1.4,0C177.7,108.4,177.2,108.4,176.8,108.3z"/>
	<path d="M179.6,112.7c0.3,0.7,0.2,1.4,0.3,2.1c0,1.1,0.1,2.3,0,3.4c0,0.2-0.1,0.4-0.3,0.5c-0.1-1.2,0-2.3,0-3.5
		C179.6,114.5,179.5,113.6,179.6,112.7z"/>
	<path d="M175.4,113.3c1.1,0,2.1-0.1,3.2-0.2c-1,0.3-2,0.4-3.1,0.4c0,1,0,1.9,0,2.9c0,0.5,0,1.1-0.1,1.6c-0.2-0.8-0.1-1.7-0.1-2.5
		C175.3,114.8,175.1,114,175.4,113.3z"/>
	<path d="M168.6,116.2c0-0.6,0.6-1.1,1.2-0.9c0,0.2,0.1,0.4,0.2,0.6c-0.2-0.1-0.5-0.4-0.7-0.3c-0.4,0.2-0.4,0.7-0.4,1.1
		c0.2-0.3,0.3-0.7,0.5-1c0.1,0,0.3,0.1,0.3,0.2c0,0.6,0,1.2,0,1.8c-0.2,0-0.4,0-0.7,0.1C168.8,117.2,168.5,116.7,168.6,116.2z"/>
	<g>
		<path d="M184.3,115.3c0.5,0,1.1,0.1,1.6,0.3c-0.2,0.1-0.4,0.1-0.6,0.2c0.4,0.6,0.3,1.4,0.3,2c-0.3-0.1-0.5-0.2-0.8-0.4
			c-0.1,0.2-0.2,0.5-0.4,0.7C184.2,117.1,184.3,116.2,184.3,115.3z M184.7,116.8c0.1-0.4,0.2-0.8,0.3-1.3
			C184.4,115.7,184.7,116.4,184.7,116.8z"/>
	</g>
	<path d="M187.8,117.4c0.1-0.3,0.1-0.6,0.3-0.9c0,0.3,0,0.6,0,1C188,117.5,187.9,117.4,187.8,117.4z"/>
	<path d="M174.5,119c0.3-0.4,0.8-0.3,1.3-0.3c1.2,0.1,2.3,0.1,3.5,0.3C177.7,119.1,176.1,119.2,174.5,119z"/>
	<path d="M168.1,120.9c0.3-0.1,0.6-0.1,1-0.1c5.7,0.1,11.3,0.2,17,0c0.3,0,0.6,0,0.9,0.1c-1.7,0.2-3.4,0.1-5,0.3
		c0.6,0.4,1.3,0.6,1.9,0.5c1,0,2,0,2.9,0.2c-0.6,0.2-1.3,0.1-2,0.1c-0.6,0-1.3,0.1-1.9,0c-0.1-0.1-0.3-0.3-0.4-0.4
		c-1.4,0.4-2.9,0-4.3,0.4c0,0.4,0,0.9-0.3,1.3c1.2,0.1,2.4,0.7,3,1.8c-0.3-0.3-0.6-0.6-1-0.8c-1.1-0.1-2.2,0.2-3,0.9
		c-1.6,1.2-2.1,3.3-2.2,5.2c0,3.4,0,6.8,0.1,10.2c0.2,0,0.5,0,0.7,0c0-0.8,0-1.5,0.1-2.3c0.1,0.8,0,1.5,0,2.3c2,0.1,4,0.3,6.1,0.5
		c-0.2,0.1-0.4,0.2-0.6,0.2c-2.9,0.1-5.8,0.5-8.7,0.2c-0.2-2.7,0-5.5,0-8.2c0.1-2.5-0.3-5.2,1-7.5c0.7-1.1,1.8-1.9,3-2.2
		c0.3-0.1,0.6-0.1,0.8-0.3c-0.3,0-0.6,0-0.9,0c0.1-0.5,0.2-1,0.3-1.5c-1.4,0.1-2.8,0.1-4.2,0.1c0.1,0.9,0.1,1.9,0.2,2.8
		c0.3,0.2,0.6,0.4,0.8,0.6c-0.2,0.5-0.6-0.2-0.9-0.3c0.2,0.2,0.4,0.5,0.5,0.7c-0.1,0-0.3,0-0.4,0.1c-0.1,0.5,0.1,1.1-0.2,1.6
		c-0.2-0.9-0.1-1.7-0.3-2.6c0.1-1,0.1-1.9,0.1-2.9c-1.3,0.2-2.7,0.1-4,0.1c1.4-0.3,2.8,0,4.1-0.5c1.3-0.1,2.7,0,4,0.1
		c0.2,0,0.3-0.1,0.5-0.2c-0.1,0.6-0.1,1.1-0.2,1.7c0.3,0,0.7,0,1,0c-0.1-0.5-0.1-1-0.1-1.5c1.5-0.1,2.9,0.2,4.4-0.2
		c-0.2-0.1-0.4-0.2-0.6-0.2C176.9,121.1,172.5,121.1,168.1,120.9z"/>
	<path d="M171.8,125.7c-0.1-1.2-0.1-2.5,0.1-3.7c0,1.5,0.1,3.1,0.2,4.6C171.8,126.4,171.9,126,171.8,125.7z"/>
	<path d="M181.5,125c0.1-0.3,0.3-0.6,0.5-0.8c0.1,0.2,0.2,0.3,0.4,0.5C182.1,124.8,181.8,124.9,181.5,125z"/>
	<path d="M181.6,125.5c0.2-0.4,0.6-0.5,1-0.7C182.4,125.2,182,125.5,181.6,125.5z"/>
	<path d="M181.2,125.1c0.4,0.4,0.7,0.8,0.9,1.3C181.6,126,181.3,125.6,181.2,125.1z"/>
	<path d="M181.9,126.4c0.5,0,1.1-0.2,1.6,0c0.3,0.3,0.3,0.8,0.5,1.1c-0.6,0-1.2,0-1.9-0.1c0.5-0.2,0.9-0.2,1.4-0.3
		c-0.1-0.5-0.8-0.4-1.2-0.3c0.1-0.1,0.2-0.2,0.4-0.3c-0.3,0-0.5,0.1-0.8,0.1c0.1,0.5,0.1,0.9,0.1,1.4
		C181.9,127.5,181.9,127,181.9,126.4z"/>
	<path d="M170.6,127.1c0.6-0.1,1.1-0.2,1.7-0.3c-0.3,0.5-1,0.4-1.5,0.5c0.2,0.1,0.3,0.3,0.5,0.3c0.4-0.1,0.7-0.3,1.1-0.4
		c0.1,0.1,0.1,0.3,0.2,0.4c-0.2,0-0.4-0.1-0.5-0.1c-0.1,1,0.1,2,0.1,3c0,3,0,5.9,0,8.9c0,0.5,0,1-0.3,1.4c-0.1-0.9,0-1.8,0-2.8
		c0-1.9,0.1-3.8,0-5.8c0-1.4-0.1-2.8,0-4.2c-0.3,0-0.8,0.1-1-0.2C170.6,127.5,170.6,127.3,170.6,127.1z"/>
	<g>
		<path d="M176.8,132.2c0-1.6,0.2-3.2,1.1-4.5c-0.7,1.4-1,2.9-0.9,4.5c0.6-0.1,1.2,0,1.7-0.3c0.2,0,0.3,0.1,0.5,0.1
			c-0.2,0.1-0.3,0.1-0.5,0.2c0,1.1,0.1,2.2,0.1,3.2c0.4,0.1,0.8,0,1.1,0.3c-0.4,0-0.7,0-1.1-0.1c0,1.3,0.1,2.6,0.2,3.9
			c0.4,0,0.9,0.1,1.3,0.3c-0.8,0.1-1.7-0.1-2.5,0c-0.1-0.1-0.2-0.2-0.2-0.3c-0.2,0-0.5,0-0.7,0c0.3-1.4,0-2.9,0.1-4.3
			c-0.3,0-0.5,0-0.8-0.1c0.3,0,0.5,0,0.8,0c0-1,0-1.9,0-2.9c-0.2,0-0.3,0-0.5,0C176.5,132.2,176.7,132.2,176.8,132.2z M177.1,132.1
			c-0.1,1-0.1,2,0,3c0.5,0,1,0.1,1.6,0.2c0-1.1-0.1-2.2,0-3.2C178.1,132.1,177.6,132.1,177.1,132.1z M177.1,135.3c0,1.3,0,2.7,0.1,4
			c0.1,0,0.2,0,0.3,0c0-0.6-0.1-1.1,0-1.7c0.3,0.5,0.1,1.3,0.4,1.8c0.1-0.2,0.1-0.5,0.2-0.7c0,0.2,0,0.4,0,0.7
			c0.3,0,0.5,0.1,0.8,0.1c0-1.3,0-2.6-0.1-3.9C178.1,135.5,177.6,135.4,177.1,135.3z"/>
	</g>
	<path d="M189,128.4c0.1,0.3,0.2,0.6,0.3,0.9c-0.1,0.1-0.2,0.2-0.3,0.4c0.3,0.1,0.6,0.2,0.9,0.4c-0.6-0.1-1.2-0.1-1.7-0.1
		c0.3-0.2,0.6-0.3,0.9-0.5C189,129,189,128.7,189,128.4z"/>
	<path d="M188.6,130.7c0.3-0.1,0.7-0.1,1-0.1C189.3,130.8,188.9,130.9,188.6,130.7z"/>
	<path d="M167.2,134.2c0.1-1,0-2.1,0.2-3.2c0.4,3.3,0.2,6.7,0.3,10c1.5-0.1,3.1,0.2,4.6,0.4c-0.5,0.3-1,0.2-1.5,0.3
		c-0.8,0.1-1.6,0.2-2.3,0.3c-0.4,0.2-0.9,0.2-1.3,0.2c-0.1-0.5-0.1-1-0.1-1.6C167.2,138.5,167.1,136.4,167.2,134.2z"/>
	<path d="M162.4,131.9c0.5,0.1,0.5,0.6,0.5,1c0.1,2,0.2,4,0.2,6c0.6,0,1.3-0.1,1.9,0c-0.7,0.4-1.5,0.5-2.2,0.8
		c0,0.1-0.1,0.3-0.1,0.4c0.2,0.2,0.4,0.4,0.5,0.6c-0.4,0.4-0.5,0.9-0.4,1.5c1.2-0.1,2.4-0.2,3.6-0.2c0,0.3,0,0.8-0.4,0.8
		c-1.3,0.1-2.5-0.1-3.8-0.1c0-0.5,0.1-1,0.1-1.5c-0.1-0.1-0.3-0.3-0.5-0.4c0-0.7,0.1-1.5,0.4-2.2c0-1.9-0.1-3.8,0-5.8
		C162.3,132.7,162.4,132.3,162.4,131.9z"/>
</g>
</svg>
