<?xml version="1.0" encoding="utf-8"?>
<!-- Generator: Adobe Illustrator 26.0.3, SVG Export Plug-In . SVG Version: 6.00 Build 0)  -->
<svg version="1.1" id="Слой_20" xmlns="http://www.w3.org/2000/svg" xmlns:xlink="http://www.w3.org/1999/xlink" x="0px"
	 y="0px" viewBox="0 0 239.5 150.2" style="enable-background:new 0 0 239.5 150.2;" xml:space="preserve">
<style type="text/css">
	.st0{fill:#161616;}
</style>
<g>
	<path class="st0" d="M198.8,97c1.9-1,3.5-2.5,5.3-3.7c1.9,1.1,3.5,2.6,5.4,3.7c-0.3-1.9-1.2-3.7-1.7-5.5c-0.1-0.3-0.2-0.7,0.1-0.9
		c1.7-1.3,3.4-2.5,5.1-3.7c-2.3-0.1-4.6,0.1-6.8-0.1c-0.7-2-1.3-4-2-6c-0.3,0-0.4,0.4-0.5,0.6c-0.6,1.8-1.2,3.6-1.8,5.4
		c-2.2,0.1-4.4,0-6.6,0.1c1.7,1.4,3.6,2.6,5.3,4C200.2,92.9,199.4,94.9,198.8,97z M198.8,87.9c1.3-0.1,2.8,0.2,4.1-0.2
		c0.7-1.2,0.7-2.6,1.5-3.8c0.4,1.3,0.9,2.5,1.2,3.8c1.4,0.2,2.8,0,4.3,0.1c-1,1-2.3,1.6-3.3,2.6c0.1,1.3,0.9,2.5,1,3.8
		c-1.2-0.5-2.2-1.6-3.4-2.2c-1.1,0.7-2.1,1.7-3.3,2.2c0.2-1.3,1-2.5,1-3.9C201,89.4,199.6,88.9,198.8,87.9z"/>
	<path class="st0" d="M222.5,132.4c-1.6-1.7-3.5-3.2-5.1-4.9c1.3-1.9,2.3-4.1,2.6-6.4c0.5-3.7-0.3-7.6-2-10.9c-1.9-3.8-5-6.9-8.6-9
		c-1.4-0.8-2.9-1.5-4.6-1.8c4.7,2.9,8.5,7.5,9.9,12.9c0.6,2.4,1,4.9,0.4,7.3c-0.3,1.3-1.1,2.5-1.7,3.7c-0.3-0.1-0.6-0.1-0.8-0.3
		c-3.6-3.4-7.3-6.9-10.9-10.3c-0.2-0.2-0.6-0.4-0.6-0.8c1.1-1.1,2.3-2.2,3.5-3.4c0.7-0.8,1.6-1.3,2.1-2.3c-1.6-0.3-3.2-0.5-4.7-0.7
		c-1.1-0.1-2.1-0.4-3.2-0.4c-0.6,0.3-1.1,0.9-1.6,1.3c-2.5,2.6-5.1,5.1-7.7,7.6c-0.3,0.2,0.1,0.5,0.2,0.6c1.4,1.4,2.8,2.8,4.2,4.2
		c1.6-1.2,2.8-2.8,4.2-4c0.2-0.3,0.5,0.1,0.7,0.2c3.2,3.3,6.3,6.6,9.6,9.9c0.4,0.4,0.9,0.8,1.1,1.4c-3.9,1.8-8.9,0.8-11.8-2.4
		c-1,0.8-2.3,0.7-3.3,1.4c-0.8,0.4-1.1,1.3-1.6,2c-0.7,1.1-1.8,1.9-3,2.4c-1,0.4-2,0.9-2.6,1.7c-1.3,1.3-2,3.4-1.2,5.1
		c1.8,0.5,3.8-0.1,5-1.5c1.4-1.2,1.5-3.1,2.7-4.4c0.6-0.8,1.5-1.3,2.3-1.8c0.4-0.3,0.7-0.8,1.2-1c1.3,1.3,2.7,2.5,4.4,3.2
		c3.9,1.7,8.5,1.7,12.3-0.3c1.4,1.3,2.7,2.7,4,4.1c0.8,0.9,1.8,2.1,3.2,1.9C222.8,136.5,223.8,133.8,222.5,132.4z"/>
</g>
</svg>
