<?xml version="1.0" encoding="utf-8"?>
<!-- Generator: Adobe Illustrator 26.0.3, SVG Export Plug-In . SVG Version: 6.00 Build 0)  -->
<svg version="1.0" id="Слой_1" xmlns="http://www.w3.org/2000/svg" xmlns:xlink="http://www.w3.org/1999/xlink" x="0px" y="0px"
	 viewBox="0 0 239.5 150.2" style="enable-background:new 0 0 239.5 150.2;" xml:space="preserve">
<style type="text/css">
	.st0{fill:none;}
</style>
<g>
	<path class="st0" d="M195.9,70.4c-0.4-0.6-1.1-1-1.8-0.9c0.6,0.4,1.2,0.7,1.8,1.1V70.4z"/>
	<path class="st0" d="M148.5,43.5c0.1,0,0.3,0.1,0.4,0.1c0-0.4,0-0.9,0-1.3c-0.1,0-0.2,0-0.4,0C148.6,42.7,148.5,43.1,148.5,43.5z"
		/>
	<path class="st0" d="M185,70.6c-0.1,0.2-0.3,0.4-0.3,0.6c0.1,0.2,0.3,0.4,0.5,0.4c0.1,0,0.2,0.1,0.3,0.1c0-0.1,0-0.2,0-0.3
		c-0.1-0.1-0.3-0.2-0.4-0.4C185.3,70.9,185.3,70.5,185,70.6z"/>
	<path class="st0" d="M187.1,72.9c-0.1,0-0.2-0.1-0.4-0.1c-0.1-0.1-0.1-0.1-0.2-0.2l-0.1-0.1c-0.3,0-0.7,0-1,0c0,0.2,0,0.5,0.1,0.7
		c0.1,0,0.3,0.1,0.4,0c0.1,0,0.3,0,0.3,0c0.3,0,0.7,0,1-0.1C187.2,73.1,187.1,73,187.1,72.9z"/>
	<path class="st0" d="M199.3,135.2c0-0.1-0.1-0.2-0.2-0.2c-0.2-0.1-0.3-0.1-0.5-0.2v-0.2c0.1,0,0.3,0,0.4,0c0.2,0,0.4-0.2,0.5-0.3
		c-0.5-0.4,0-1.1-0.2-1.6c-0.3-0.1-0.6-0.1-0.9-0.1c0,0.5,0,1,0,1.5c-0.3,0.1-0.5,0-0.8,0c0.1,0.3,0.1,0.5,0.1,0.8l0.1,0.1
		c0.1,0,0.1,0.1,0.2,0.1C198.5,135.1,198.9,135.2,199.3,135.2z"/>
	<path class="st0" d="M195.5,134c0.2,0.3,0.1,0.7,0.2,1.1c0.2-0.2,0.2-0.4,0.2-0.7c-0.1,0.1-0.2,0.1-0.2,0.2c0-0.2,0-0.4,0-0.6
		c0.2,0,0.4,0,0.6,0c0,0.1,0,0.2,0,0.2c-0.1,0-0.3,0.1-0.4,0.1c0.2,0,0.4-0.1,0.6-0.1C196.5,133.8,195.9,133.9,195.5,134z"/>
	<path class="st0" d="M184.8,70c0-0.2,0.1-0.4,0.3-0.6c0.5-0.2,0.2-0.8,0.1-1.1c-0.2,0-0.5-0.1-0.6,0.1c0.1,0.2,0.2,0.5-0.1,0.6
		c-0.1,0.1-0.2,0.2-0.3,0.3c0,0.3,0.2,0.4,0.3,0.6C184.6,70,184.7,70,184.8,70z"/>
	<path class="st0" d="M172.5,136c-0.6,0-1.1,0.2-1.7,0.4c-1.4,0.3-2.8,0.7-4.3,0.9c-2.8,0.4-5.6,1-8.3,1.5c-1.1,0.2-2.1,0.5-3.2,0.7
		c0,0.1,0.1,0.3,0.1,0.4c0.3-0.1,0.6-0.1,0.9-0.2c2.7-0.5,5.4-1.1,8.1-1.6c2.8-0.6,5.7-1,8.5-1.6c1.1-0.2,2.3-0.5,3.4-0.7
		c0.7-0.1,1.4-0.3,2-0.4c0.5,0,1.1,0,1.6,0c0-0.3,0.1-0.5,0.1-0.8c-1.3,0.2-2.6,0.5-3.9,0.8C174.8,135.6,173.7,135.8,172.5,136z"/>
	<path class="st0" d="M191.8,134.2c0-0.1,0.1-0.4,0.1-0.5c-0.5-0.2-1-0.1-1.5-0.2c-0.1-0.5-0.1-1.1-0.1-1.6
		c-0.3-0.1-0.5-0.1-0.8-0.1c0,0.6-0.1,1.1-0.1,1.7c0.2,0.1,0.5,0,0.7,0.1c0.4,0.3,0.9,0.2,1.3,0.3c-0.1,0.1-0.2,0.2-0.3,0.3
		c0,0.1,0,0.2,0,0.3c0.2,0.1,0.3,0.1,0.5,0.2c0,0.1,0,0.3,0,0.4c0.1,0,0.2,0,0.3,0c0-0.2-0.1-0.5-0.2-0.7c0.1,0,0.3,0,0.4,0
		C192,134.3,191.9,134.3,191.8,134.2z"/>
	<path class="st0" d="M185.9,70.1c0.2-0.1,0.4-0.1,0.6-0.3c-0.2-0.3-0.6-0.4-1-0.3C185.5,69.8,185.7,70,185.9,70.1z"/>
	<path class="st0" d="M186,70.2c0,0.1,0,0.2-0.1,0.2c0.1,0,0.3,0.1,0.4,0.1c0,0.1,0,0.2,0,0.2c-0.2,0-0.5,0-0.7,0.2
		c0.2,0.2,0.3,0.5,0.6,0.5c0.6,0,1.2,0,1.8,0c0-0.1,0-0.3,0.1-0.4c0.2-0.2,0.4-0.3,0.2-0.6c-0.3,0-0.7-0.1-1-0.1
		C186.8,70.4,186.4,70.1,186,70.2z"/>
	<path class="st0" d="M189.4,70.7c-0.1,0.1-0.2,0.2-0.2,0.4c0,0.1,0.1,0.3,0.2,0.4c0.7,0.7,1.8,0.7,2.4,1.5c-1.1-0.2-2.1-0.9-3-1.5
		c0.2,0.3,0.4,0.6,0.7,0.8c0.7,0.3,1.3,0.7,2,1c0.3,0.1,0.5,0.5,0.7,0.7c0.4,0.5,0.7,1.1,1.1,1.6c0.6,1,1.3,1.9,1.7,3
		c0.2,0.4,0.2,0.8,0.5,1.2c0.6,0.1,1.2-0.2,1.9-0.2c0.6-0.1,1.3-0.1,1.9-0.1c0.2-0.2,0.4-0.6,0.1-0.8c-1-0.9-1.9-1.9-3.1-2.6
		c-0.4-0.2-0.6-0.8-1.2-0.8c-0.2,0-0.2,0.3-0.2,0.4c-0.1,0-0.2-0.1-0.3-0.1c-0.3-0.4-0.2-0.9-0.3-1.3c-0.3-0.7-1.1-0.8-1.6-1.3
		c0.2,0.1,0.4,0.1,0.5,0.2c0.6,0.4,1.2,0.7,1.8,1.1c0,0.1,0.1,0.2,0.1,0.2s0-0.1,0-0.2h0.2c-0.3-0.5-0.8-0.7-1.2-1.1
		c-0.4-0.3-0.9-0.6-1.3-0.8c-0.3-0.1-0.4-0.3-0.6-0.5c0.1,0,0.3,0,0.4,0c0-0.4-0.2-0.7-0.5-1c-0.5-0.2-1-0.1-1.5-0.1
		C190.1,70.8,189.7,70.7,189.4,70.7z M190.6,71.5c0.5,0,1-0.1,1.5,0.1l0.1,0.2c-0.5,0.1-1.1,0-1.6-0.1
		C190.6,71.6,190.6,71.6,190.6,71.5z"/>
	<path class="st0" d="M192,76.3c-0.4-0.6-0.8-1.2-1.1-1.9c-0.1-0.3-0.4-0.4-0.7-0.5c-0.5,0.1-1,0.2-1.5,0.3
		c-0.6,0.1-1.2-0.1-1.8-0.1c0.1,0.1,0.2,0.2,0.4,0.3c0.7,0.2,1.3,0.3,2,0.4c0.8,0.8,1.6,1.7,2.2,2.7c0.4,0.7,1.1,1.2,1.6,1.7
		c0.1,0.1,0.1,0.1,0.2,0.2c0-0.2,0-0.4-0.1-0.5c-0.3-0.3-0.4-0.7-0.4-1.1c0.3,0,0.6,0,0.9,0c0-0.1,0-0.2,0-0.3
		c-0.2-0.1-0.5-0.1-0.6-0.3C192.8,76.7,192.3,76.6,192,76.3z"/>
	<path class="st0" d="M207.7,135.1c-0.2,0-0.4,0-0.5,0.1c0,0.1,0,0.2,0.1,0.3l0.1,0.1c0,0.1-0.1,0.3-0.1,0.4c0,0.1,0.1,0.2,0.1,0.3
		c0.1,0,0.2,0.1,0.3,0.1C207.8,135.9,207.8,135.5,207.7,135.1z"/>
	<path class="st0" d="M192.6,133.8c0,0.1,0.1,0.3,0.1,0.4c0.1,0,0.3,0,0.4,0c0,0,0.1,0.1,0.1,0.2c-0.1,0.1-0.1,0.1-0.2,0.2
		c-0.1-0.1-0.2-0.2-0.3-0.3c-0.1,0.2-0.1,0.4-0.1,0.7c0.1,0,0.3,0,0.4,0c0,0.1,0,0.3,0,0.4c0.1,0,0.3-0.1,0.4-0.1
		c0.1-0.3,0-0.6,0-0.9c0.1,0,0.3,0,0.4,0c0,0.2,0.1,0.5,0.1,0.7c0.3-0.3,0.2-0.7,0.2-1.1C193.6,133.8,193.1,133.8,192.6,133.8z"/>
	<path class="st0" d="M204.3,134.5v0.2c0.3,0,0.6,0.1,1,0.1c-0.4-0.5,0.3-1.1-0.2-1.5c-0.5-0.2-1,0-1.5-0.1c0,0.1,0,0.3,0,0.4
		c0,0.1,0.1,0.2,0.2,0.3c0.1,0,0.3,0,0.4-0.1c0.1,0.1,0.1,0.3,0.2,0.4C204.3,134.4,204.3,134.5,204.3,134.5z"/>
	<path class="st0" d="M194.8,133.7c-0.1,0.1-0.1,0.2-0.2,0.3c0.1,0,0.2,0,0.4,0.1C194.9,134,194.9,133.9,194.8,133.7z"/>
	<path class="st0" d="M194.5,136.4c0.1,0,0.3,0,0.4,0c-0.1-0.1-0.1-0.3-0.2-0.4C194.6,136.1,194.6,136.2,194.5,136.4z"/>
	<path class="st0" d="M217.5,138.6c0,0.1,0.1,0.2,0.2,0.3c0.3,0.2,1.1,0.6,1.2,0c0.4,0.3,0.9,0.3,1.4,0.5c0.4-0.3,0.8,0.3,1.3,0.2
		c0.2,0,0.3-0.1,0.5-0.1c0.2,0.1,0.4,0.2,0.7,0.2c0-0.2,0-0.5-0.1-0.7C220.9,138.7,219.2,138.6,217.5,138.6z"/>
	<path class="st0" d="M208.9,135.1c-0.1,0-0.3-0.1-0.4-0.1c0,0.5,0.3,1,0.3,1.5c0.1,0,0.3,0,0.4-0.1c-0.1,0-0.3,0-0.4,0
		c0-0.1,0.1-0.2,0.1-0.3l0.1-0.1c-0.1-0.1-0.1-0.3-0.2-0.4c0.1,0,0.2-0.1,0.3-0.1c0,0.2,0.1,0.6,0.3,0.3c0.2-0.1,0.1-0.4,0.1-0.6
		C209.4,135.1,209.1,135.2,208.9,135.1z"/>
	<path class="st0" d="M179.3,53.1c0.1-0.3-0.1-0.6-0.4-0.6C178.9,52.7,179,52.9,179.3,53.1z"/>
	<path class="st0" d="M200.4,134.3c-0.2,0-0.4,0-0.5,0c0.1,0.1,0.2,0.3,0.3,0.4c0,0.4,0,0.8,0,1.3c0.5,0,1,0.3,1.5,0.1
		c0-0.6,0-1.1,0-1.7C201.2,134.4,200.8,134.3,200.4,134.3z"/>
	<path d="M169.1,78.6c0.1,0,0.3,0.1,0.3-0.1c0.9-1.8,2.1-3.4,3.4-4.9c0.4-0.4,0.7-0.8,1-1.3c-0.3,0-0.5,0.3-0.6,0.5
		c-0.3,0.4-0.7,0.7-1,1.1c-1.1,1.2-2,2.5-2.8,3.9C169.2,78,169,78.3,169.1,78.6z"/>
	<path d="M194.1,113.7c0.4-0.3,0.3-0.8,0.3-1.2c0-0.7,0.6-1.3,0.7-2c0.2-0.4,0.1-1-0.1-1.4c0,0.2,0,0.4,0.1,0.7
		c0,0.9-0.8,1.5-0.9,2.3C194.2,112.6,194.2,113.1,194.1,113.7z"/>
	<path d="M167.4,10.9c-0.1,0.1-0.2,0.3-0.1,0.4C167.5,11.3,167.6,10.9,167.4,10.9z"/>
	<path d="M167,12.1c-0.2,0-0.4,0.4-0.2,0.5C166.9,12.5,167.2,12.2,167,12.1z"/>
	<path d="M166.5,13c-0.1,0.1-0.3,0.4-0.1,0.5C166.6,13.5,166.7,13.1,166.5,13z"/>
	<path d="M196.5,59.9c1-0.5,2.2-0.8,3.3-0.9c1.8-0.1,3.6-0.3,5.4-0.5c0.7-0.1,1.5-0.2,2.2-0.5c-0.2,0-0.3,0-0.5,0
		c-1.5,0.2-3,0.4-4.5,0.6c-0.7,0-1.3,0.2-2,0.1c-0.6,0-1.2,0.1-1.9,0.2c-0.8,0.2-1.6,0.6-2.4,0.9c-0.4,0.1-0.7,0.3-1.1,0.3
		c-1.2,0-2.3-0.1-3.5,0.1c0.9,0.1,1.8,0,2.8,0.1C195.2,60.5,195.8,60.2,196.5,59.9z"/>
	<path d="M176.1,62.1c-0.4,0.1-0.7,0.3-1,0.6C175.5,62.6,175.8,62.3,176.1,62.1z"/>
	<path d="M194,71.1c0-0.1,0-0.2,0-0.3c-0.1,0-0.3,0-0.4,0C193.6,70.9,193.8,71,194,71.1z"/>
	<path d="M178.1,124.1c-0.1,0.5-0.3,1.1-0.4,1.7c0.2-0.5,0.3-1,0.4-1.5c0.1-0.1,0.1-0.1,0.2-0.2
		C178.3,124.1,178.2,124.1,178.1,124.1z"/>
	<path d="M172.6,63.3c0,0.1,0,0.2,0,0.2c0.4-0.1,0.9-0.3,1.2-0.6C173.3,62.9,173,63.3,172.6,63.3z"/>
	<path d="M169.3,67.1c0.2-0.3,0.5-0.6,0.4-1C169.5,66.4,169.3,66.7,169.3,67.1z"/>
	<path d="M178.4,67.9c0.4-0.5,0.9-0.9,1.4-1.3c-0.9,0.4-1.6,1.2-2,2.1C178.1,68.5,178.2,68.2,178.4,67.9z"/>
	<path d="M194.2,118.6c1.2-0.3,1.7-1.5,2-2.5c-0.4,0.6-0.5,1.3-1,1.8C194.8,118.2,194.4,118.2,194.2,118.6z"/>
	<path d="M197.2,125.9c-0.1-0.1-0.3-0.2-0.4,0C196.9,126,197.2,126.1,197.2,125.9z"/>
	<path d="M198.6,131c-0.2,0-0.4-0.1-0.6,0C198.1,131.3,198.5,131.2,198.6,131z"/>
	<path d="M189.3,137.2c0.1,0.2,0.4,0.2,0.6,0.2C190,137,189.5,137.2,189.3,137.2z"/>
	<path d="M188.8,129.2c-0.3-0.1-0.5-0.1-0.8-0.1C188.1,129.5,188.5,129.2,188.8,129.2z"/>
	<path d="M150.4,50.5c0.1-0.2,0.2-0.4,0.2-0.6c-0.2,0.1-0.3,0.3-0.4,0.5c-0.1,0-0.3,0-0.4,0c0,0.1,0.1,0.2,0.2,0.2
		C150.2,50.6,150.3,50.5,150.4,50.5z"/>
	<path d="M173.1,51.7c-0.1,0.2-0.2,0.5-0.2,0.7C173.1,52.2,173.1,51.9,173.1,51.7z"/>
	<path d="M173.8,82.1c0-0.8,0.3-1.5,0.3-2.3c0-0.6,0-1.2-0.1-1.8c-0.2,0.9,0,1.9-0.3,2.8c-0.2,1-0.2,2-0.3,3h0.1
		C173.7,83.2,173.7,82.6,173.8,82.1z"/>
	<path d="M170.1,87c-0.4-0.3-0.8-0.7-1.3-0.8c0,0.1,0.1,0.2,0.2,0.3c0.6,0.4,1.2,0.9,1.9,1.3C170.8,87.4,170.4,87.3,170.1,87z"/>
	<path d="M153.1,50.6c-0.2,0-0.5,0-0.7-0.1c0.1-0.5,0.3-1,0.7-1.3c0.2,0,0.4,0.1,0.7,0.2c0.4-0.1,0.8-0.3,1-0.7
		c-0.2-0.4-0.2-0.7-0.2-1.1c-0.3,0.2-0.1,0.6-0.4,0.9c-0.2,0.3-0.5,0.2-0.8,0.2c-0.4-0.6-0.6-1.5-0.1-2.1c0.2-0.2,0.3-0.6,0.3-0.9
		c-0.2,0-0.5-0.1-0.7-0.2c-0.1-0.1-0.3-0.3-0.4-0.4c0,0.1,0,0.3,0,0.4c-0.3,0.5-0.9,0.6-1.4,0.6c0.3,0.3,0.7,0.5,1.1,0.8
		c0,0,0,0.1,0.1,0.2c-0.2,0-0.3,0.1-0.5,0.1c0-0.1-0.1-0.2-0.1-0.3c-0.5,0.1-1,0.1-1.4,0c0-0.4,0.3-0.6,0.5-0.9
		c0-0.1-0.1-0.3-0.1-0.4c0,0.3-0.1,0.5-0.3,0.7s-0.1,0.5-0.2,0.7c0.4,0.1,0.8,0,1.1,0.3s0.7,0.4,1.1,0.6c0,0.1,0,0.2,0,0.3
		c-0.2,0-0.4-0.2-0.6-0.3c-0.5-0.3-0.9-0.1-1.4,0c-0.1-0.1-0.1-0.3-0.2-0.4c-0.1,0.1-0.1,0.3-0.1,0.4c0.4,0.1,0.8,0.2,1,0.5
		c0.2,0.1,0.5,0.2,0.7,0.3c0,0.1-0.1,0.2-0.2,0.2c-0.1,0-0.2,0-0.3,0c-0.3-0.3-1,0-1-0.5c-0.3,0.5,0.2,1.1,0.7,1
		c0.1-0.1,0.2-0.2,0.4-0.2c-0.1,0.1-0.1,0.2-0.2,0.2c0.3,0,0.6-0.1,0.8-0.2c0.1-0.1,0.1-0.2,0.2-0.3c0.2,0,0.3,0,0.5,0.1
		c-0.1,0-0.2,0-0.3,0v0.2c-0.3,0.5-0.7,1-1,1.6c0.1,0.2,0.4,0.4,0.4,0.7c-0.1,0.2-0.3,0.4-0.4,0.5c-0.6-0.2-1.3-0.5-1.9-0.7
		c0.6,0.4,1.3,0.7,2,1c0.2-0.3,0.4-0.6,0.7-0.9c-0.1-0.1-0.3-0.3-0.4-0.4c-0.2-0.2,0-0.4,0.1-0.5c0.5,0.1,1,0.3,1.4,0.6
		c0.1,0,0.2,0,0.2,0.1c0-0.3,0.2-0.7,0.3-1C153.4,50.3,153.3,50.5,153.1,50.6z"/>
	<path d="M175.9,68.3c0.5-0.5,1.3-0.8,1.9-1.1c0.8-0.4,1.5-0.9,2.1-1.5c-0.6,0.1-1.2,0.4-1.8,0.7c-1,0.5-1.9,1.4-2.7,2.1
		c-0.1,0.1-0.2,0.1-0.3,0.2c0,0,0,0.1,0,0.2l0.1-0.1C175.5,68.6,175.7,68.5,175.9,68.3z"/>
	<path d="M191.6,95.5c-0.6-0.4-1.1-1-1.7-1.5c-1.7-1.6-3.2-3.4-4.3-5.4c-0.7-1.4-1.2-2.9-2.1-4.3c-0.2-0.4-0.3-0.9-0.7-1.2
		c0.6,1.5,1.3,3,1.8,4.5c0.4,1.5,0.9,2.9,1.6,4.3c0.5,1,0.8,2,1.1,3c0,0.2,0.1,0.3,0.1,0.5c0.1,0,0.3,0,0.4,0c-0.1,0-0.2,0-0.3,0
		c1.1,3.8,1.9,7.6,2.5,11.5c0,0.2,0.1,0.4,0.2,0.6c0.1-0.6-0.1-1.1-0.2-1.7c-0.3-1.5-0.5-2.9-0.8-4.4c-0.4-2-1-4-0.9-6.1h0.1
		c0.3,1.3,0.4,2.7,0.7,4c0.1,0.4,0.1,0.9,0.4,1.2c0-0.7-0.1-1.4-0.1-2.1l0,0l0.1-0.3c0.4,0.5,0.6,1.1,0.8,1.6c0.4,1,0.6,2.1,0.9,3.1
		c0.1,0.3,0.1,0.6,0.3,0.8c0-0.5-0.1-1-0.2-1.4c-0.4-1.7-0.7-3.3-1.2-5c-0.1-0.1-0.1-0.3-0.2-0.4c-0.4-1.3-1.1-2.6-1.9-3.7
		c0,0,0.1-0.1,0.1-0.2c0.1,0.2,0.3,0.3,0.5,0.4c1,0.8,2,1.7,3.1,2.3c0.3,0.2,0.5,0.4,0.9,0.4C192.4,96,192,95.8,191.6,95.5z"/>
	<path d="M185.1,109.1c0,0.2,0.1,0.3,0.2,0.5c-0.1-1.7-0.6-3.2-0.9-4.9c-0.2-0.5-0.3-1.1-0.7-1.6c-0.1,0.9,0.5,1.7,0.7,2.5
		C184.6,106.8,184.8,108,185.1,109.1z"/>
	<path d="M188.1,117.7c0.2-0.4,0.8-0.6,1-1.1c0.6-0.8,1.1-1.7,1.5-2.6c-0.4,0.2-0.5,0.6-0.8,0.9c-0.4,0.5-0.7,1.2-1.3,1.6
		c0-0.4,0.1-0.8-0.1-1.1c-0.1,0.4-0.1,0.8-0.2,1.2c-0.4,1.2-1,2.3-2,3.1c-0.3,0.4-0.8,0.5-1.1,1c0.6-0.4,1.2-0.8,1.7-1.4
		C187.4,118.8,187.8,118.3,188.1,117.7z"/>
	<path d="M197.6,124.8c0,0.1,0,0.2,0,0.2c0.2,0,0.3,0,0.5,0c0-0.1,0-0.2,0-0.2C197.9,124.7,197.8,124.7,197.6,124.8z"/>
	<path d="M201.3,127.3c-0.2-0.1-0.4-0.2-0.6-0.2c-0.2,0.1-0.3,0.1-0.4,0.2C200.4,127.7,201,127.6,201.3,127.3z"/>
	<path d="M213.1,138.7c-0.4,0.2-0.8,0.1-1.1,0.2c0.3,0.3,0.7,0.2,1.1,0.2c0.4,0.1,0.8,0.3,1.3,0.2s1,0.4,1.4-0.1
		c-0.2-0.1-0.4-0.2-0.6-0.2C214.4,139.2,213.7,139,213.1,138.7z"/>
	<path d="M150.5,44.8c0.1,0,0.2,0.1,0.3,0.2c0,0,0.1,0,0.1,0.1c0.3,0.3,0.8,0,1.2-0.1h0.1c0-0.1,0-0.2,0-0.3h-0.1
		c-0.2-0.3-0.6-0.2-0.9-0.3c-0.1-0.1-0.3-0.1-0.5-0.1c-0.2-0.1-0.3-0.2-0.5-0.3c0,0-0.1,0.1-0.1,0.2c-0.1-0.1-0.2-0.1-0.1-0.2
		c0.2-0.1,0.4-0.1,0.4-0.3c-0.1-0.3,0-0.7,0-1c0.9,0.2,1.8,0.4,2.7,0.6c0.3,0,0.4,0.4,0.5,0.7c-0.6,0-1.2-0.2-1.8-0.3
		c-0.1,0-0.2,0.1-0.3,0.1c0.6,0.2,1.3,0.4,1.9,0.6c0.2,0,0.5,0.1,0.7,0.2c-0.1,0.2-0.1,0.5-0.3,0.7c-0.2,0-0.4,0-0.6-0.1l-0.2-0.1
		c0,0,0,0.1,0,0.2c0.4,0.2,0.7,0.3,1.1,0.5c0,0.1,0.1,0.2,0.2,0.2c0.2,0,0.3,0,0.5,0c0.2,0.1,0.4,0.2,0.6,0.3
		c-0.2-0.5-0.3-1.1,0.1-1.5c0.3,0.2,0.6,0.4,0.9,0.6v-0.1c-0.3-0.3-0.7-0.5-1-0.8c0-0.2,0-0.4,0.1-0.5c0.5-1.3,1.1-2.6,1.5-3.9l0,0
		c0.1-0.1,0.1-0.3,0.2-0.4c0-0.1,0-0.2,0-0.3c0.1-0.2,0.2-0.4,0.3-0.7c0.1-0.2,0.2-0.3,0.3-0.5l0,0c0-0.1,0.1-0.3,0.1-0.4
		c0,0,0-0.1,0-0.2c0.2-0.2,0.3-0.6,0.4-0.9c0.1-0.1,0.1-0.3,0.2-0.4c1.5-3.7,3-7.4,4.6-11c0.3-0.7,0.6-1.4,0.9-2.1
		c0,0-0.1,0-0.1-0.1c0.3,0,0.3-0.3,0.4-0.5c1.6-3.7,3.2-7.4,4.8-11.2c0-0.2,0.1-0.3,0.1-0.5h-0.1c-0.2-0.3,0-0.8-0.2-1.1
		c-0.6,1.8-1.4,3.5-2.2,5.2c-0.7,1.4-1.1,2.8-1.8,4.2c-1.7,3.9-3.3,7.9-5.2,11.8c-0.8,1.9-1.6,3.8-2.4,5.7c-0.1,0.2-0.2,0.3-0.3,0.5
		c0,0.1-0.1,0.2-0.1,0.3l0,0c-0.1,0.4-0.4,0.8-0.5,1.3c0,0.1-0.1,0.2-0.1,0.2c0,0.1-0.1,0.1-0.1,0.2c-0.1,0.3-0.2,0.5-0.3,0.8l0,0
		c0,0.1-0.1,0.2-0.1,0.3c-0.5,1.3-1.1,2.6-1.7,3.8c-0.3-0.1-0.5-0.4-0.7-0.7c-0.1-0.1-0.2-0.3-0.2-0.5c0.3-0.6,0.6-1.2,0.8-1.8
		c0.5-0.8,0.7-1.8,1.2-2.7c0.5-1.1,1-2.2,1.5-3.3c0.8-1.9,1.6-3.8,2.5-5.6c0.7-1.4,1.4-2.9,2-4.3c1.4-3.2,2.8-6.4,4.3-9.6
		c0.2-0.5,0.5-0.9,0.6-1.4c-1,2-1.8,4.1-2.8,6.1c-1.6,3.6-3.3,7.2-4.9,10.8c-1.3,2.9-2.6,5.7-3.8,8.6c-0.2,0.5-0.5,1-0.6,1.6
		c-0.3,0.6-0.6,1.2-0.8,1.8c-1.4-0.1-2.7-0.6-4-0.7c-0.2,0-0.4,0.1-0.5,0.1c0,0.4-0.2,0.9-0.2,1.3c0.2,0.1,0.5,0.2,0.7,0.4
		c0.3,0.2,0.7,0.4,1.1,0.6C150.2,44.6,150.4,44.7,150.5,44.8z M148.9,43.6c-0.1,0-0.3-0.1-0.4-0.1c0-0.4,0.1-0.8,0.1-1.2
		c0.1,0,0.2,0,0.4,0C148.9,42.7,148.9,43.1,148.9,43.6z"/>
	<path d="M172.9,55.1c-0.1-0.3-0.1-0.6-0.3-0.8s-0.4-0.5-0.5-0.8c-0.1,0.1-0.3,0.2-0.4,0.3c0,0.2,0,0.4,0,0.5
		c0.1-0.1,0.2-0.2,0.3-0.3c0.2,0.1,0.4,0.3,0.5,0.6c-0.1,0-0.2,0.1-0.3,0.1c0,0.3,0.4,0.4,0.6,0.7c0.6,1,1.7,1.4,2.4,2.3
		c0.1,0.6-0.5,1-0.5,1.6c0.3-0.2,0.3-0.5,0.5-0.8c0.3-0.5,1-0.5,1.5-0.3c0.3,0.4,0.2,0.8,0.4,1.2c0.2,0.3,0,0.6,0,0.8
		c0.3,0,0.6,0,0.9,0.1v-0.2c0,0.1,0,0.2,0,0.2c0.3,0.1,0.8-0.2,0.9,0.2c-0.3,0.2-0.7,0.2-1,0.3c0.1,0.1,0.1,0.1,0.2,0.2
		c0.6-0.1,1.2-0.4,1.8-0.4c0.4,0,0.8,0.2,1.2,0.3c0.4,0,0.8-0.3,1.2-0.5s0.8-0.3,1.2-0.4c0.5-0.1,1-0.2,1.6-0.1
		c-0.2-0.1-0.4-0.1-0.6-0.1c-0.5,0.1-1.1,0.1-1.6,0.3c-0.6,0.1-1.1,0.4-1.6,0.7c-0.5-0.2-1.1-0.3-1.7-0.4c-0.2-0.1-0.4-0.3-0.7-0.4
		c-0.4-0.1-0.7-0.3-1-0.5c-0.6-0.5-0.6-1.3-0.8-1.9c0.3-0.3,0.6-0.5,0.7-0.9c0.1-0.3,0.1-0.7,0.4-0.9c0.4-0.2,0.7-0.3,1.1-0.5
		c-0.1-0.3-0.1-0.6-0.2-0.9c0.2-0.2,0.4-0.4,0.5-0.6c-0.1-0.2-0.3-0.3-0.4-0.5c0-0.4,0.6-0.6,0.3-1c-0.2-0.2-0.5-0.3-0.8-0.4
		c0.1-0.6,0.1-1.2-0.4-1.6c0.1,0.3,0.2,0.6,0.1,1c-0.2,0-0.5,0-0.7,0c0,0.5,0.4,0.9,0.5,1.4c0.1,0.3-0.3,0.4-0.3,0.6
		c-0.2-0.1-0.5-0.3-0.8-0.2v0.1c0.5,0.1,0.7,0.5,1,0.8c0-0.2,0-0.4,0-0.6c0.2,0.1,0.4,0.3,0.6,0.4c0.1,0.6-0.4,1-0.6,1.5
		c-0.2,0.2-0.2,0.6-0.5,0.7c-0.3,0.1-0.6-0.1-0.8-0.2c0.1,0.3,0.4,0.4,0.6,0.5c0.1-0.1,0.2-0.2,0.3-0.2c-0.1,0.4-0.3,0.8-0.7,0.9
		c-0.4,0.1-0.8-0.2-1.2-0.3c-0.2,0-0.4,0.3-0.6,0.2c-0.5-0.4-0.9-0.8-1.4-1.1C173.5,56.1,173,55.7,172.9,55.1z M179.3,53.1
		c-0.2-0.1-0.4-0.3-0.4-0.6C179.2,52.5,179.4,52.7,179.3,53.1z"/>
	<path d="M156.6,57.6c0.3,0.2,0.4,0.5,0.6,0.7c0.2,0.3,0.6,0.4,0.8,0.7c1.1,1.3,2.3,2.6,3.5,3.8c1.4,1.3,3,2.4,4.6,3.4
		c0.4-0.3-0.2-0.6-0.4-0.7c-1.3-0.7-2.6-1.6-3.8-2.6c-1.1-1-2-2.1-2.9-3.2c-0.4-0.5-0.8-0.9-1.4-1.3c-0.4-0.4-0.7-0.9-1.1-1.3
		c-1-0.8-1.4-2-1.9-3.1c-0.3-0.8-0.8-1.7-1.1-2.5c0,0.6,0.3,1,0.5,1.5c0.5,1.1,0.8,2.3,1.5,3.2C155.8,56.8,156.2,57.2,156.6,57.6z"
		/>
	<path d="M170.9,64.4c0,0.6-0.2,1.1-0.5,1.6c-0.3,0.4-0.5,0.9-0.7,1.3c0.1,0.1,0.2,0.1,0.2,0.2c0.4-0.4,0.6-1,0.9-1.5
		C171,65.5,171.1,64.9,170.9,64.4z"/>
	<path d="M198.8,113.8c0,0.7,0,1.4,0,2.1c0,0.3,0.2,0.5,0.4,0.6c-0.4-1.4-0.1-3-0.1-4.4C198.8,112.6,198.9,113.3,198.8,113.8z"/>
	<path d="M157.8,47.7c-0.2,0.1-0.3-0.1-0.5-0.1c-0.9-0.5-1.7-1.2-2.6-1.7c-0.1,0-0.2-0.1-0.3-0.1c-0.1,0.2-0.4,0.3-0.4,0.5
		c0.3,0.5,0.6,1,0.7,1.6c0.1,0.5,0.4,1,0.9,1.4c0.2,0.2,0.5,0.4,0.7,0.6c0.9,1.7,2.7,2.8,3.8,4.4c0.4,0.6,0.5,1.3,0.9,1.9
		c0.2,0.3,0.6,0.4,0.8,0.6c0.7,0.5,1.4,0.9,2,1.4c0.7,0.5,1.3,1.1,2,1.5c0.6,0.3,1.3,0.4,1.9,0.7c0.2-0.1,0.4-0.2,0.5-0.3
		c-0.3,0-0.5,0.2-0.8,0.1c-0.8-0.3-1.5-0.6-2.2-1.1c-1-0.8-2.1-1.6-3.3-2.3c-0.3-0.2-0.6-0.4-0.7-0.7c-0.2-0.3-0.3-0.7-0.5-1
		c-0.4-0.9-1.1-1.6-1.8-2.2c-0.7-0.8-1.5-1.5-2.2-2.3c-0.3-0.3-0.4-0.7-0.6-1c-0.3-0.4-0.9-0.5-1-1c-0.2-0.5-0.3-1-0.5-1.5
		c0.2,0,0.5,0.1,0.7,0.2c0.8,0.3,1.6,0.6,2.4,0.9c0.4-0.4,0.7-0.8,1-1.3c-0.4-0.5-1-0.7-1.5-1.1c0.3,0.5,0.9,0.7,1.2,1.1
		C158.4,47.1,158.1,47.5,157.8,47.7z"/>
	<path d="M175,52.4c0.3-0.1,0.7-0.4,1-0.3c0.1,0.1,0,0.3,0.1,0.4c-0.1,0.1-0.2,0.2-0.3,0.2c0.2,0.1,0.3,0.1,0.5,0.1
		c0.2-0.3,0.5-0.6,0.6-0.9c0.2-0.2,0.3-0.4,0.6-0.5c0,0,0-0.1-0.1-0.2c-0.5-0.1-0.9-0.5-1.4-0.5c-0.1,0-0.3,0-0.3,0.1
		c0.3,0.1,0.7,0.1,0.7,0.5c-0.7,0.1-1.4,0.4-1.8,0.9C174.8,52.3,175,52.4,175,52.4z"/>
	<path d="M169.9,56.3c0.1,0.4,0.3,0.7,0.4,1.1c0.1,0.1,0.1,0.3,0.2,0.3c0.4,0.1,0.9,0.1,1.3,0.1c0.1-0.8-0.1-1.6,0-2.4
		c-0.3,0.1-0.4,0.5-0.7,0.7c-0.2,0.1-0.4,0.1-0.7,0.2c-0.1-0.3,0.1-0.4,0.3-0.5c0.3-0.2,0.8-0.3,0.9-0.7c0.1-0.2,0-0.4-0.2-0.3
		c0-0.4-0.3-0.7-0.5-0.9c-0.1-0.3,0.2-0.5,0.3-0.7c-0.1-0.1-0.1-0.1-0.2-0.2c-0.4,0.4-0.8,0.8-1.2,1.1c0-0.3,0.2-0.5,0.3-0.7
		c0.1,0,0.2-0.1,0.2-0.1c0-0.1-0.1-0.2-0.2-0.2c0.1-0.1,0.3-0.2,0.3-0.4c-0.1,0-0.2,0-0.3,0c-0.1,0.3-0.3,0.5-0.5,0.8
		c0,0.5,0,1-0.1,1.5c-0.1,0.3,0,0.7,0,1.1C169.7,56.1,169.8,56.2,169.9,56.3z"/>
	<path d="M177.7,55.9c0.4-0.2,0.4-0.7,0.5-1.1c-0.2-0.2-0.5-0.3-0.8-0.3c-0.5,0-0.8,0.5-0.9,0.9C176.9,55.6,177.2,55.9,177.7,55.9z"
		/>
	<path d="M174.2,61.4c0.1-0.1,0.1-0.2,0.2-0.4c0-0.6-0.4-1.1-0.5-1.6c-0.2-0.7-0.3-1.4-0.5-2.1c0,1.3,0.6,2.5,0.5,3.8
		C173.8,61.3,174,61.5,174.2,61.4z"/>
	<path d="M170.8,61.1c-0.6,0.5-1,1.2-1.6,1.7c0.6-0.1,0.9-0.9,1.4-1.2c-0.1,0.4-0.4,0.7-0.6,1.1c0.4-0.2,0.5-0.7,0.9-1
		c0.4-0.4,0.7-0.9,1-1.3c0.5-0.5,0.6-1.3,0.3-2c-0.1,0.5,0.1,0.9-0.1,1.4C171.8,60.4,171.3,60.7,170.8,61.1z"/>
	<path d="M175.6,66.5c0,0,0,0.1,0,0.2c0.1-0.3,0.4-0.3,0.6-0.5c0.3-0.2,0.6-0.2,1-0.3c-0.7-0.1-1.3,0.3-2,0.4
		C175.3,66.4,175.4,66.5,175.6,66.5z"/>
	<path d="M172.9,81.1c-0.1,0.6-0.2,1.2-0.4,1.8c0-0.2-0.1-0.5-0.1-0.7c-0.3,0.8-0.5,1.7-0.4,2.6c0,0.7,0.2,1.4,0.2,2
		c0.1,0.7,0.2,1.5,0.6,2c-0.1-1,0-2.1,0.1-3.1c0.1-0.7,0.2-1.4,0.3-2.1c0-0.1,0-0.3,0-0.4c-0.2,0.4-0.4,0.9-0.5,1.4
		c-0.1,0.1-0.1,0.2-0.2,0.3c0-0.2,0-0.4,0-0.6c0.1-0.4,0.1-0.8,0.2-1.2C172.8,82.5,173,81.8,172.9,81.1z"/>
	<path d="M180.4,94c0.1,0.9,0.6,1.7,0.8,2.5c0.7,1.8,1.1,3.8,1.8,5.6c0.1,0.2,0.4,0.2,0.5,0.1c0-0.7-0.2-1.4-0.6-1.9
		c-0.4-0.7-0.6-1.5-0.9-2.3c-0.3-0.9-0.6-1.7-1-2.5C180.9,94.9,180.7,94.4,180.4,94z"/>
	<path d="M186.3,114.1c0.4-0.7,0.3-1.5,0.4-2.2c0.2-1.1,0.3-2.2,0.4-3.3c0-0.9-0.1-1.8-0.4-2.7c-0.2-0.5-0.2-1-0.2-1.5
		c0-1.5-0.7-2.8-1.1-4.2c-0.4-1.6-0.9-3.2-1.5-4.7c0.3,1.6,0.9,3.2,1.4,4.8c0.1,0.2,0,0.4-0.1,0.6c0.3,1.1,0.5,2.2,0.8,3.3
		c0.4,1.7,0.7,3.5,0.5,5.3C186.3,111,186.3,112.5,186.3,114.1z"/>
	<path d="M181,122.2c-0.2,0-0.2,0.3-0.3,0.4c0.7-0.4,1.5-0.3,2.2-0.5C182.3,122.1,181.6,122.1,181,122.2z"/>
	<path d="M201,123.9c0,0,0-0.1,0-0.2c-0.4-0.1-0.7,0-1.1,0.1C200.1,124.3,200.6,124,201,123.9z"/>
	<path d="M177.2,130.2c-0.2,0.5-0.7,0.8-1.3,0.8c0-0.5,0.2-0.9,0.5-1.3c-0.5,0.2-0.6,0.9-0.7,1.3c-0.4,0.2-0.8,0.4-1.3,0.4
		c-0.1-0.5,0.4-0.7,0.4-1.1c-0.3,0.3-0.7,0.7-0.5,1.2c-0.3,0.1-0.5,0.1-0.8,0.2c0-0.2,0-0.5-0.1-0.7c-0.1,0.2-0.2,0.5-0.2,0.7
		c-0.3,0-0.6-0.1-0.9-0.2c0-0.1,0.1-0.2,0.1-0.3c0.3-0.2,0.7-0.3,1-0.5c0.2-0.2,0.4-0.5,0.6-0.7c-0.4,0.2-0.5,0.6-0.9,0.9
		c-0.3,0.1-0.7,0.1-0.9,0.4c-0.1,0.2-0.2,0.5,0,0.7c0.3,0.4,0.8,0,1.1-0.1c0.1,0,0.2-0.1,0.3-0.1c2.4-0.5,4.7-1.3,7-2.2
		c0.5-0.2,1.1-0.3,1.6-0.6c-0.2-0.2-0.3-0.4-0.6-0.5c-0.6,0.3-1.1,0.6-1.7,0.9C179.2,129.8,178.2,130.3,177.2,130.2z"/>
	<path d="M203.5,128.8c-0.4-0.1-0.8,0.1-1.2,0.1c0.7,0.3,1.6,0.4,2.4,0.2C204.3,128.7,203.9,128.8,203.5,128.8z"/>
	<path d="M198.8,129c0,0.1-0.1,0.2-0.1,0.2c0.8-0.2,1.5,0.3,2.3,0.5c0.3,0.1,0.6,0.1,0.8,0c-0.5-0.2-1.1-0.3-1.6-0.5
		C199.8,129,199.3,128.9,198.8,129z"/>
	<path d="M196.8,129c-0.4,0-0.9,0-1.3,0.1c-0.5,0.1-1,0.1-1.5,0l0.1,0.1c0.6,0.2,1.3,0.3,1.9,0.4c0.5,0.1,0.9-0.2,1.4-0.2
		c0.3-0.1,0.8,0,1-0.3C197.8,128.9,197.3,129,196.8,129z"/>
	<path d="M186.4,129.7c0.5,0.2,1,0.2,1.5,0.3c1.1,0.3,2.4,0.5,3.5,0.3c0.5,0,0.9-0.2,1.4-0.1c0.5,0.1,0.9,0.1,1.4,0.1
		c0.1,0,0.3-0.1,0.4-0.1c-0.7-0.1-1.3,0-2-0.2s-1.5-0.1-2.2-0.2c-0.7-0.1-1.4,0-2.1,0C187.7,129.8,187,129.6,186.4,129.7z"/>
	<path d="M212.9,138.1c0.4,0,0.7,0.2,1.1,0.3c0-0.4,0-0.8,0-1.2c-0.6-0.2-1.3-0.2-1.9-0.3c-0.2-1.1-0.2-2.3-0.3-3.5
		c-0.3-0.1-0.6-0.1-0.9-0.1c-0.3-0.1-0.6-0.4-1-0.5c-0.3-0.1-0.8-0.1-1-0.4c-0.2-0.3-0.5-0.5-0.8-0.7c-0.5-0.2-0.6-0.9-1.1-1.2
		c-0.2-0.1-0.5-0.2-0.7-0.4c0-0.2,0.1-0.4,0.3-0.6c-0.1-0.2-0.2-0.4-0.3-0.4c-0.2-0.1-0.5-0.1-0.7-0.3c-0.1-0.2,0-0.4,0-0.6
		c-0.3-0.2-0.6-0.5-0.8-0.7c-0.8-0.9-1.7-1.8-2.1-3c0.9-0.9,1.6-2,2.5-2.8c0.5-0.5,0.5-1.3,0.3-2c-0.2-0.6-0.5-1.2-0.9-1.8
		c-0.6-1.1-1.1-2.2-1.5-3.4c-0.2-0.7-0.6-1.3-1-1.9c-1-1.4-1.9-3-2.7-4.5c-0.2-0.4-0.5-0.8-0.6-1.3c-0.3-0.8-0.8-1.5-1.2-2.3
		c-0.4-0.6-0.7-1.3-1-1.9c-0.5-0.8-0.7-1.7-1-2.5c-0.3-0.9-0.9-1.7-1.3-2.6c-1-2.3-2-4.7-3-7c-0.6-1.1-1.2-2.3-1.7-3.4
		c-0.9-1.9-1.9-3.9-3.3-5.6c-0.7-0.8-1.2-1.7-1.7-2.6c-0.3-0.6-0.9-1-1-1.6c-0.1-0.5-0.2-1-0.2-1.6l0,0c-0.1-1.1,0.1-2.3,0.2-3.4
		c0-0.1,0.1-0.2,0.1-0.2c0.2,0.2,0.4,0.3,0.6,0.5c0.7,1,1.6,1.9,2.8,2.3c0.6,0.2,1.3,0.1,1.8,0.6c0.4,0.3,0.7,0.7,1,1.1
		c0.6,0.8,1.3,1.6,2,2.3c0.5,0.5,1.1,0.7,1.7,1.1c0.4,0.2,0.7,0.5,1.2,0.5c1,0,2.1,0.1,3.1,0.1c0.7-0.2,1.2-0.6,1.7-1.1l0,0
		c0.1-0.3,0.3-0.5,0.3-0.9c0-0.3-0.2-0.6-0.4-0.8c0.3-0.1,0.4-0.5,0.4-0.8s0.1-0.7,0-1v0.1v0.1c0,0.3-0.1,0.5-0.3,0.6
		c-0.9-0.3-1.3-1.2-2.1-1.7c-0.3-0.2-0.6-0.5-0.8-0.8s0-0.6,0.1-0.9c-0.5-0.7-1.3-0.9-2.1-1.1c0-0.1,0-0.2,0-0.3
		c0.2,0,0.3-0.1,0.5-0.1c-0.4-0.4-1-0.5-1.5-0.8c0.1,0.4,0.7,0.5,0.6,0.9c-0.4,0-0.8,0-1-0.4s-0.2-0.9-0.5-1.2c0.3,0,0.5,0,0.8,0
		c-0.8-0.5-1.6-1-2.5-1.4c-0.3-0.1-0.5-0.3-0.8-0.4c0-0.1,0-0.2,0-0.3c0,0,0.1-0.1,0.1-0.2c0.7-0.1,1.4-0.1,2.1,0
		c0.5,0.1,1.1,0.3,1.5,0.6c0,0.1,0,0.2,0,0.2c-0.9-0.1-1.8-0.4-2.7-0.4c1.2,1,2.7,1.5,3.9,2.6c0.8,0.8,1.9,1.4,2.5,2.3
		c0.4,0.6,0.8,1.1,1.2,1.7c0.2,0.3,0.5,0.5,0.8,0.5c-0.1-0.3-0.6-0.3-0.7-0.7c0.2-0.2,0.4-0.4,0.5-0.6c-0.4-0.4-0.8-0.8-1.1-1.2
		c0.5,0.1,0.9,0.5,0.9,1c0.1,0,0.2,0.1,0.3,0.1c-0.2-0.7-0.8-1.2-1.3-1.8c-0.1,0-0.2,0-0.3,0c-0.7-0.3-1.3-0.8-2-1.1
		c-0.2-0.1-0.4-0.3-0.5-0.5c0.4,0.1,0.7,0.4,1.1,0.5c0.2,0,0.3-0.1,0.4-0.2c0.3,0.4,0.7,0.7,1.1,1c-0.1-0.3-0.4-0.5-0.6-0.7
		c-0.6-0.7-1.2-1.3-1.8-2c-0.3-0.4-0.8-0.4-1.2-0.6c-0.2-0.2-0.3-0.4-0.5-0.5c-0.4-0.4-1-0.8-1.5-1.1v-0.1c-0.1,0-0.2,0-0.3,0
		s-0.3-0.1-0.3-0.1c-0.4-0.1-0.8-0.2-1.2-0.2c-0.1-0.3-0.2-0.6-0.1-1c0.3,0,0.7-0.1,1-0.2c0.2,0,0.3-0.1,0.5-0.1
		c0.4-0.1,0.7-0.2,1.1-0.3c0.2,0,0.4,0,0.5-0.1l0,0c0.1,0,0.2-0.1,0.4-0.1c0.4-0.1,0.9-0.3,1.3-0.5l0,0c0.1,0,0.2-0.1,0.3-0.2
		c0.1,0,0.2-0.1,0.3-0.1c0.1-0.1,0.2-0.1,0.3-0.2c0.2-0.1,0.5-0.3,0.8-0.4l0,0c1.1-0.6,2.5-0.3,3.7-0.6c0.8-0.1,1.6-0.2,2.3-0.5
		c1.8-0.7,3.5-1.5,5.3-2.3c0.6-0.3,1.2-0.4,1.9-0.3c0.4,0.1,0.8,0.2,1.3,0.2c0.6,0,1.2-0.1,1.7,0c0.9,0.4,1.9,0.6,2.8,0.7
		c0-0.1,0-0.3,0-0.4c0.4-0.1,0.9,0.1,1.2-0.2c-1-0.3-2.1-0.3-3.1-0.7c0.2-0.3,0.6-0.2,0.9-0.1c0-0.1,0-0.2,0-0.2
		c0.3-0.1,1-0.2,0.9-0.7c-0.3-0.2-0.6,0.2-0.9,0.3c-0.1-0.5-0.6-0.3-0.9-0.3c-0.2,0-0.5,0-0.7,0.2c0.4,0,0.8,0,1.2-0.1
		c0.1,0,0.1,0.1,0.2,0.1c-0.7,0.2-1.4,0.4-2.1,0.4c-0.4,0-0.7-0.1-1.1,0c-0.5-0.1-1-0.1-1.5-0.2c-0.3-0.1-0.5-0.2-0.8-0.2
		c-1.1,0.2-2.3,0.6-3.3,1c-0.9,0.4-1.9,0.7-2.8,1.1c-0.9,0.4-2,0.6-3,0.8c-0.8,0.1-1.6,0-2.4,0c-0.4,0.1-0.9,0.1-1.3,0.1l0,0
		c-0.5,0.1-1.1,0.3-1.5,0.6c-0.1,0-0.2,0.1-0.2,0.1c-0.4,0.3-0.8,0.6-1.1,0.9c-0.9,0.8-2.1,1.3-3.3,1.2c0-0.4-0.2-0.7-0.5-0.9
		c0.4-1,0-2.1-0.2-3.1c-0.3,0.8,0.2,1.7,0.1,2.6c0,0.2-0.1,0.5-0.1,0.7c0.1,0.2,0.2,0.4,0.1,0.6c-0.1,0-0.2,0.1-0.3,0.1
		c-0.2,0-0.4,0-0.6-0.1c0-1.1,0.2-2.2,0.2-3.3h-0.1c-0.1,1.1-0.3,2.3-0.5,3.4c-0.5,0-1.1,0.2-1.6,0c-0.6-0.6-0.3-1.4-0.3-2.1
		c0.4-0.8,1-1.4,1.4-2.1c-0.6,0.4-1,1.1-1.5,1.6c-0.2-0.7-0.2-1.4-0.7-2c0.9,0.1,1.8,0.2,2.7-0.2c-0.3,0-0.5,0.1-0.7,0.1
		c-0.7,0.1-1.4,0-2.1,0c-0.1,0-0.2-0.1-0.3-0.2c0.4,0.7,0.5,1.5,0.8,2.3s-0.3,1.6-0.1,2.4c0,0.4,0.2,0.7,0.4,1.1
		c0,0,0.1,0.1,0.1,0.2c-0.9-0.3-1.6-1-2.3-1.6c-0.5-0.4-0.8-0.9-1.2-1.5c-0.1-0.1-0.2-0.2-0.3-0.3c0.4,1,0.6,2.1,1.1,3.1
		c0.2,0.2,0.4,0.5,0.6,0.7c0.1,0.1,0.3,0.3,0.3,0.5c0.1,0.1,0.2,0.2,0.2,0.3c-0.3-0.2-0.6-0.5-0.9-0.7c-0.2-0.3-0.4-0.6-0.5-1
		c-0.3-0.3-0.5-0.6-0.8-0.9c-0.1,0.3,0.1,0.6,0.2,0.9c0.3,0.7,0.5,1.5,0.7,2.2c-0.1,0.1-0.1,0.2-0.2,0.3c-0.7-0.9-1.1-2.1-1.6-3.1
		c0,0.2,0,0.4,0.1,0.6c0.3,0.8,0.5,1.6,0.9,2.3c0.1,0.2,0.2,0.5,0,0.8c-0.3,0.7-0.6,1.5-0.8,2.2c-0.1,0.7-0.5,1.3-0.3,2h0.1
		c0.1,0.4,0.2,0.8,0.4,1.1c0.1,0.4,0.1,0.8,0.2,1.2c-0.1,0-0.3,0-0.4,0c-0.1-0.1-0.2-0.2-0.4-0.3c-0.3-0.6-0.8-1.2-1.2-1.7
		c-0.7-0.8-1.8-0.9-2.8-1c0.5,0.3,1.1,0.5,1.6,0.9c0.5,0.3,0.8,0.8,1.1,1.3c-0.5-0.1-1-0.5-1.5-0.7c-0.6-0.2-1.2-0.4-1.9-0.2
		c-0.6,0.2-1.2,0.2-1.9,0.2c-0.2-0.2,0.1-0.3,0.2-0.5c0.7-0.8,1.6-1.5,2.4-2.1c1.4-1,2.6-2.3,3.6-3.8c-0.4,0.3-0.6,0.6-0.9,1
		c-0.5,0.5-0.8,1-1.4,1.4c-0.6,0.3-1.1,0.7-1.6,1.1c-1.7,0.9-3.3,2.1-4.4,3.6c-0.7,0.8-1.1,1.9-1.5,2.8s-0.6,1.9-1.2,2.7
		c-0.6,0.9-0.9,1.9-1.2,2.9c-0.1,0.3-0.3,0.7-0.7,0.9c0-0.3,0.1-0.5,0.1-0.8c0.1-0.6-0.1-1.1,0-1.7c0-0.3,0.1-0.6,0.1-1
		c-0.4,1-0.6,2.1-0.9,3.1c-0.1,0-0.2,0-0.2,0c-0.1-0.3-0.1-0.5-0.1-0.8c0-0.2-0.1-0.3-0.1-0.5c0.2,0,0.4-0.2,0.5-0.3
		c0.1-0.5,0.2-1,0.2-1.5c0-0.6,0.1-1.2,0.3-1.7c0.5-0.9,1.2-1.8,1.7-2.7c0.2-0.4,0.5-0.8,0.6-1.2c-0.6,0.7-1.3,1.3-1.9,2
		c-0.5,0.5-1.1,0.9-1.4,1.5c-0.3,0.6-0.1,1.3-0.2,1.9c0.1,0.5,0.1,1,0,1.5c-0.2-0.4-0.3-0.7-0.3-1.1c-0.2,0.3-0.3,0.8-0.2,1.2
		c0,0.9,0.7,1.5,1,2.3c0,0.3,0,0.6,0,0.9c-0.1,0.2-0.1,0.9-0.5,0.6c0-0.5,0.2-0.9,0.2-1.4c-0.2,0.1-0.1,0.4-0.2,0.5
		c-0.1,0.7-0.4,1.5-0.2,2.2c0.1,0.4,0.4,0.8,0.6,1.1c0.4,0.4,0.9,0.6,1.1,1.1c0.3,0.9,0.5,1.9,1,2.7c0-0.1,0-0.3-0.1-0.4
		c-0.4-1.3-0.5-2.7-0.8-4c-0.1-0.6-0.5-1.2-0.2-1.8l0.1,0.1c0.4,0,0.7,0.3,1.1,0.4c0-0.6-0.3-1.2-0.4-1.8c0.8-0.7,1.6-1.5,2-2.5
		c0.1-0.4,0.4-0.8,0.3-1.2c-0.4,1.3-1.2,2.5-2.1,3.4c-0.4,0.3-0.6,0.8-0.8,1.2c0-0.2,0-0.3,0-0.5c0.6-1.3,0.8-2.7,1.5-3.9
		c0.5-1.1,1.1-2.2,1.7-3.2c0.5-0.8,1.2-1.5,1.9-2.3c0.2-0.2,0.4-0.5,0.6-0.6c0.5-0.3,1.1-0.4,1.6-0.5c0.6-0.1,1.2-0.3,1.7-0.1
		c1.2,0.3,2.3,0.9,3.2,1.7c0.6,0.5,0.5,1.4,0.9,2c0-0.2,0.1-0.4,0.1-0.5c0.4,0.4,0.7,0.8,1.2,1.1c1.1,0.9,1.5,2.2,2.3,3.2
		c1,1.4,2,2.8,2.8,4.4c1,1.9,2,3.8,2.9,5.7c0.9,2,1.7,4.1,2.6,6.1c0.6,1.3,1.3,2.6,1.7,3.9c0.2,0.6,0.5,1.2,0.8,1.7
		c0.4,0.7,0.8,1.4,1.1,2.1c0.5,1,1.1,2,1.2,3.2c0.1-0.1,0.1-0.3,0.2-0.4c0.1,0.1,0.2,0.2,0.3,0.3c0.6,0.9,1,1.9,1.6,2.8
		c0.7,1.3,1.7,2.4,2.2,3.8c0.3,0.9,0.6,1.7,1,2.5c0.4,0.9,1.1,1.7,1,2.7c-0.2,0.2-0.4,0.3-0.7,0.5c-0.6-0.3-0.7-1-1-1.6
		c-0.6-1.3-0.9-2.8-1.5-4.1c-0.5-1.2-1.1-2.3-1.6-3.5c-0.4-1-0.9-1.9-1.2-2.9c-0.1-0.1-0.2-0.1-0.3-0.1c0.4,1.3,0.6,2.6,1,3.8
		c0.5,1.6,1.1,3.2,1.7,4.7c0.2,0.6,0.8,1,1.1,1.6s0.6,1.2,0.7,1.9c-0.7-0.3-1.5-0.4-2.3-0.2c-1.3,0.6-2.4,1.5-3.4,2.5
		c-0.3,0.4-0.8,0.6-1.1,1c-0.5,0.2-1.1,0.1-1.5-0.3c0-0.1,0.1-0.2,0.2-0.4c-0.1-0.2-0.2-0.4-0.3-0.6s-0.3-0.8-0.7-0.6
		c0,0.3,0.1,0.5,0.2,0.8c-0.3,0-0.6-0.1-0.9,0c-0.4,0.1-0.8,0.2-1.3,0.4c-0.4,0.2-0.5,0.8-0.6,1.2c-0.1,0.2,0,0.3,0.1,0.4
		c0.1-0.5,0.4-1,0.9-1.2c0.4-0.1,0.8-0.1,1.2-0.3c0.1,0,0.3,0.1,0.4,0.1c0.7,0.3,1.4,1,2.2,0.8c0.3-0.2,0.6-0.4,0.9-0.6
		c0.3-0.2,0.6-0.3,0.9-0.5c0.2-0.1,0.4-0.1,0.6-0.2c0,0,0-0.1,0.1-0.1c0,0.1,0,0.2,0,0.2h0.2c-0.2,0.1-0.5,0.3-0.7,0.1
		c-0.3-0.2-0.4,0.2-0.5,0.4c0.5,0.1,1,0,1.4-0.4c0.5,0.1,1,0.2,1.5,0c0.2-0.1,0.4,0.2,0.7,0c0.1,0,0.2-0.1,0.2-0.1
		c0,0.2,0,0.4,0.1,0.6c-0.2,0.1-0.3,0.2-0.5,0.3c0.1,0.3,0.4,0.2,0.6,0.2c0.1,0.1,0.2,0.3,0.3,0.4c-0.1,0-0.3,0-0.4,0
		c0,0.1,0.1,0.2,0.1,0.2c0.2,0.1,0.3-0.3,0.5-0.1c0.4,0.3,0.7,0.7,1,1.2c0,0.1,0,0.2,0,0.3c-0.2-0.2-0.4-0.4-0.6-0.5
		c-0.1-0.1-0.3-0.2-0.4-0.3h0.2c-0.3-0.4-0.9-0.1-1.2-0.3c-0.2-0.1-0.5-0.1-0.5,0.2c0.3,0.1,0.6,0.2,0.9,0.3c0.1,0,0.2,0.1,0.4,0.1
		c0,0.2,0.2,0.7-0.2,0.7c-0.2-0.1-0.4-0.1-0.5,0.1c0.2,0.1,0.5,0.1,0.7-0.1c0.1,0,0.2,0.1,0.3,0.1c0.4,0,0.8,0,1.2-0.2
		c0.1,0.1,0.4,0.3,0.3,0.5c-0.3,0.1-0.7,0.2-1,0.2c-0.1,0-0.2,0.1-0.3,0.2c0.3,0.1,0.6,0,0.9,0.1c0.3,0.1,0.5,0.3,0.8,0.5
		c0.2,0,0.4-0.3,0.5-0.1c0,0.1,0,0.2,0,0.2c-0.8,0.1-1.6-0.3-2.4-0.2c-0.4,0-0.8,0.1-1.2,0.1c-0.5,0-1-0.1-1.6-0.1
		c0,0.1,0,0.2,0,0.2c0.5,0,1.1,0.3,1.6,0c0.3,0.1,0.6,0.2,0.9,0.3c0.8,0.1,1.6,0,2.4,0c0.5-0.1,1,0.4,1.1,0.9
		c-0.4,0.1-0.7,0.1-1.1,0.2c0.1,0.1,0.2,0.2,0.3,0.1c0.5,0,1.2,0.1,1.5,0.6c-0.3,0-0.6,0-0.9,0.1c-0.3,0.1-0.5,0.3-0.7,0.4
		c-0.3,0-0.6-0.1-0.9-0.1c0.2,0.2,0.5,0.3,0.8,0.4c0,0.4-0.5,0.1-0.6,0.5h0.1c0.5,0.1,1,0.3,1.5,0.1h0.1c-0.1-0.4-1-0.2-0.7-0.6
		c0.6-0.5,1.4-0.3,2.1-0.1c0.1,0.2,0.2,0.4,0.4,0.6c-0.2,0-0.4,0-0.4-0.3c-0.4,0-0.8,0-1.2,0c0.2,0.3,0.5,0.2,0.8,0.2
		c0.1,0,0.2,0.1,0.3,0.2c-0.1,0-0.3,0.1-0.3,0.1c0.1,0.2,0.4,0.3,0.6,0.1c0.4,0.3,1.1,0.3,1.4,0.8c-0.2,0-0.3,0.1-0.5,0.1
		c0.2,0.3,0.5,0.2,0.8,0.2c0.4,0.1,0.7,0.2,1.1,0.2c0,0.1,0.1,0.2,0.2,0.3c-0.6,0-1.2,0-1.9-0.1c-0.8,0-1.6-0.2-2.4-0.2
		c-0.6,0-1.2-0.1-1.7-0.1c-1.8-0.2-3.7-0.4-5.5-0.5c-0.7,0-1.4-0.1-2.1-0.2c-2.1-0.3-4.2-0.3-6.3-0.6c-1.1-0.1-2.2-0.2-3.3-0.3
		c-0.5,0-0.9-0.1-1.3-0.1c-0.3-0.1-0.7-0.1-1-0.1l0,0c-1.1-0.1-2.1-0.2-3.2-0.2c-1.5,0.2-2.9,0.6-4.4,0.9c-0.3,0.1-0.6,0.2-0.9,0.3
		c1.9-0.2,3.7-0.7,5.6-1c0,0.1,0,0.3,0,0.4c0,0.1,0,0.2,0.1,0.4c0,0.3,0,0.5,0,0.8c0,0.6,0,1.2-0.1,1.9c-0.8-0.1-1.7-0.2-2.5,0
		c-0.6,0.2-1.2,0.2-1.8,0.4c-0.3,0-0.6,0.1-0.8,0.2c-0.5,0-1,0.2-1.4,0.2c-0.9,0.2-1.9,0.3-2.8,0.5c-0.2,0-0.4,0.1-0.6,0.1
		c-0.5,0.1-1,0.1-1.5,0.3c-1.3,0.3-2.7,0.6-4,0.9c-2.3,0.2-4.5,0.8-6.7,1.2c0-0.9,0-1.7,0-2.6c0.7-0.2,1.4-0.3,2-0.4
		c2.9-0.7,5.8-1.4,8.7-2c1.4-0.3,2.8-0.6,4.2-1c-0.6,0-1.2,0.2-1.9,0.3c-3.3,0.7-6.6,1.4-9.8,2c-1.1,0.2-2.3,0.5-3.4,0.7
		c-0.1,1,0,2,0,2.9c-1.5,0.4-3,0.6-4.5,1c0,0.2,0,0.4,0.1,0.6c-0.2,0.1-0.5,0.1-0.6,0.2c0,0.2,0.1,0.4,0.1,0.6
		c1.1-0.2,2.2-0.4,3.3-0.6c0.2,0,0.5-0.1,0.7-0.1c-0.1-0.1-0.2-0.1-0.3-0.2c-1,0.2-2,0.4-3,0.6c-0.2,0-0.5,0.2-0.7-0.1
		c0.6-0.3,1.3-0.4,1.9-0.6c3.4-0.8,6.8-1.4,10.3-2c2.5-0.5,5.1-0.9,7.6-1.4c1.2-0.2,2.4-0.4,3.6-0.6c0,0.3,0,0.6-0.1,0.8
		c-3.8,0.7-7.7,1.2-11.5,1.9c-2.6,0.5-5.2,0.9-7.8,1.3c0.1,0.1,0.2,0.1,0.3,0.2c0.8-0.2,1.6-0.3,2.4-0.4c2.4-0.4,4.7-0.9,7.1-1.2
		c1.2-0.2,2.4-0.4,3.6-0.6c1.6-0.3,3.2-0.4,4.7-0.6c1.5-0.2,3-0.4,4.5-0.2c0.8,0.1,1.5,0.1,2.3,0.1c0.4,0,0.8-0.2,1.3-0.1
		c0.3,0.1,0.7,0,1-0.1c-0.2-0.2-0.5-0.1-0.7-0.1c-2-0.1-3.9-0.4-5.9-0.4c0-0.2,0-0.4,0-0.5c0.1-0.2,0.3-0.2,0.5-0.2
		c0.7,0,1.3,0.2,2,0c0.7-0.1,1.3,0.1,2,0.1c0.4,0,0.9-0.1,1.3,0c1.6,0.2,3.2,0.2,4.7,0.5c0.6,0.1,1.1,0,1.7,0.2
		c0.4,0.1,0.9,0.1,1.3,0.1c0-0.3-0.1-0.5-0.1-0.8c0.5,0.1,1.1,0,1.6,0.2c0.1,0.3,0.1,0.5,0.2,0.8c0.2,0,0.5,0,0.7,0
		c0.4-0.2,0.8,0.2,1.2,0.2c0-0.3-0.1-0.7,0.2-0.9c0.3,0.2,0.1,0.5,0.1,0.8c0.7,0.2,1.4,0.1,2.1,0.2c1.8,0.2,3.6,0.3,5.4,0.6
		c0.7,0.1,1.3,0.1,2,0.2c0.8,0.1,1.6,0,2.4,0c0.1-0.1,0.2-0.2,0.2-0.2c0.1,0.1,0.2,0.2,0.3,0.3c0.7,0.2,1.4,0.1,2.2,0.2
		C211.5,138,212.2,138.1,212.9,138.1z M195.9,70.4v0.2c-0.6-0.4-1.3-0.7-1.8-1.1C194.8,69.4,195.5,69.9,195.9,70.4z M185.5,71.5
		c0,0.1,0,0.2,0,0.3c-0.1,0-0.2-0.1-0.3-0.1c-0.2-0.1-0.3-0.3-0.5-0.4c0-0.2,0.2-0.4,0.3-0.6c0.4-0.1,0.3,0.3,0.1,0.5
		C185.2,71.2,185.4,71.4,185.5,71.5z M185.9,73.3c-0.1,0-0.3,0-0.4,0c-0.1-0.2-0.1-0.5-0.1-0.7c0.3,0,0.7-0.1,1,0l0.1,0.1
		c0.1,0.1,0.2,0.1,0.2,0.2c0.1,0,0.2,0.1,0.4,0.1c0.1,0.1,0.1,0.2,0.2,0.3c-0.3,0-0.7,0-1,0.1C186.1,73.3,186,73.3,185.9,73.3z
		 M193.7,77.7c-0.3,0-0.6,0-0.9,0c0,0.4,0.2,0.8,0.4,1.1c0.2,0.1,0.1,0.3,0.1,0.5c-0.1-0.1-0.1-0.1-0.2-0.2c-0.6-0.6-1.2-1-1.6-1.7
		c-0.6-1-1.4-1.9-2.2-2.7c-0.7-0.2-1.3-0.3-2-0.4c-0.2,0-0.3-0.1-0.4-0.3c0.6,0,1.2,0.2,1.8,0.1c0.5-0.1,1-0.2,1.5-0.3
		c0.3,0.1,0.5,0.2,0.7,0.5c0.3,0.6,0.8,1.2,1.1,1.9c0.3,0.3,0.8,0.4,1.1,0.8c0.2,0.2,0.4,0.3,0.6,0.3
		C193.7,77.5,193.7,77.6,193.7,77.7z M192,70.9c0.3,0.2,0.5,0.6,0.5,1c-0.1,0-0.3,0-0.4,0c0.2,0.2,0.3,0.4,0.6,0.5
		c0.5,0.2,0.9,0.5,1.3,0.8c0.4,0.3,0.9,0.6,1.2,1.1H195c0,0,0,0.1,0,0.2c0-0.1-0.1-0.2-0.1-0.2c-0.6-0.4-1.2-0.7-1.8-1.1
		c-0.2-0.1-0.3-0.2-0.5-0.2c0.5,0.5,1.3,0.7,1.6,1.3c0.2,0.4,0.1,0.9,0.3,1.3c0.1,0,0.2,0.1,0.3,0.1c0.1-0.1,0-0.4,0.2-0.4
		c0.5-0.1,0.7,0.5,1.2,0.8c1.2,0.7,2.1,1.6,3.1,2.6c0.2,0.2,0,0.6-0.1,0.8c-0.6,0-1.3,0-1.9,0.1c-0.6,0.1-1.2,0.3-1.9,0.2
		c-0.2-0.4-0.3-0.8-0.5-1.2c-0.4-1.1-1.1-2-1.7-3c-0.3-0.5-0.7-1.1-1.1-1.6c-0.2-0.3-0.4-0.6-0.7-0.7c-0.7-0.3-1.3-0.7-2-1
		c-0.3-0.2-0.5-0.5-0.7-0.8c0.9,0.6,1.8,1.3,3,1.5c-0.6-0.8-1.7-0.8-2.4-1.5c-0.1-0.1-0.1-0.3-0.2-0.4c0-0.1,0.1-0.3,0.2-0.4
		c0.4,0,0.7,0.1,1.1,0.1C190.9,70.8,191.5,70.7,192,70.9z M187.3,70.4c0.3,0,0.7,0,1,0.1c0.2,0.3-0.1,0.4-0.2,0.6
		c0,0.1,0,0.3-0.1,0.4c-0.6,0-1.2,0-1.8,0c-0.3,0-0.4-0.3-0.6-0.5c0.2-0.2,0.4-0.2,0.7-0.2c0,0,0-0.1,0-0.2c-0.1,0-0.3-0.1-0.4-0.1
		c0-0.1,0-0.2,0.1-0.2C186.4,70.1,186.8,70.4,187.3,70.4z M186.4,69.9c-0.2,0.1-0.4,0.2-0.6,0.3c-0.2-0.2-0.4-0.3-0.4-0.6
		C185.8,69.5,186.2,69.6,186.4,69.9z M184.5,69.1c0.3-0.1,0.2-0.4,0.1-0.6c0.1-0.3,0.4-0.2,0.6-0.1c0.1,0.4,0.4,1-0.1,1.1
		c-0.1,0.2-0.2,0.4-0.3,0.6c-0.1,0-0.2,0-0.3,0c-0.1-0.2-0.3-0.4-0.3-0.6C184.3,69.3,184.4,69.2,184.5,69.1z M179.8,135.4
		c-0.5,0-1.1,0-1.6,0c-0.7,0.1-1.4,0.2-2,0.4c-1.2,0.2-2.3,0.5-3.4,0.7c-2.8,0.6-5.7,1-8.5,1.6c-2.7,0.5-5.4,1.1-8.1,1.6
		c-0.3,0.1-0.6,0.1-0.9,0.2c0-0.1-0.1-0.3-0.1-0.4c1.1-0.2,2.1-0.5,3.2-0.7c2.8-0.5,5.5-1.1,8.3-1.5c1.4-0.3,2.8-0.6,4.3-0.9
		c0.6-0.1,1.1-0.4,1.7-0.4c1.2-0.2,2.3-0.3,3.5-0.6c1.3-0.3,2.6-0.5,3.9-0.8C179.8,134.9,179.8,135.1,179.8,135.4z M191.9,135
		c-0.1,0-0.2,0-0.3,0c0-0.1,0-0.3,0-0.4c-0.2-0.1-0.3-0.1-0.5-0.2c0-0.1,0-0.2,0-0.3c0.1-0.1,0.2-0.2,0.3-0.3
		c-0.4-0.1-0.9,0-1.3-0.3c-0.2-0.1-0.5,0-0.7-0.1c0-0.6,0.1-1.1,0.1-1.7c0.3,0,0.5,0.1,0.8,0.1c0,0.5,0,1.1,0.1,1.6
		c0.5,0.1,1,0,1.5,0.2c0,0.1-0.1,0.4-0.1,0.5c0.1,0.1,0.2,0.1,0.3,0.2c-0.1,0-0.3,0-0.4,0C191.8,134.6,191.9,134.8,191.9,135z
		 M194,134.9c0-0.2-0.1-0.5-0.1-0.7c-0.1,0-0.3,0-0.4,0c0,0.3,0.1,0.6,0,0.9c-0.1,0-0.3,0.1-0.4,0.1c0-0.1,0-0.3,0-0.4
		c-0.1,0-0.3,0-0.4,0c0-0.2,0-0.5,0.1-0.7c0.1,0.1,0.2,0.2,0.3,0.3c0.1-0.1,0.1-0.1,0.2-0.2c0,0-0.1-0.1-0.1-0.2c-0.1,0-0.3,0-0.4,0
		c0-0.1-0.1-0.3-0.1-0.4c0.5,0,1,0,1.5,0C194.1,134.2,194.2,134.6,194,134.9z M194.5,136.4c0.1-0.2,0.1-0.3,0.2-0.5
		c0.1,0.1,0.1,0.3,0.2,0.4C194.8,136.3,194.6,136.4,194.5,136.4z M194.6,134.1c0.1-0.1,0.1-0.2,0.2-0.3c0.1,0.1,0.1,0.2,0.2,0.4
		C194.9,134.1,194.8,134.1,194.6,134.1z M196,134.4c0.1-0.1,0.2-0.1,0.4-0.1c0-0.1,0-0.2,0-0.2c-0.2,0-0.4,0-0.6,0
		c0,0.2,0,0.4,0,0.6C195.8,134.5,195.9,134.4,196,134.4c0,0.2,0,0.5-0.2,0.7c-0.1-0.3-0.1-0.7-0.2-1.1c0.4,0,1-0.2,1.1,0.3
		C196.4,134.3,196.2,134.3,196,134.4z M197.9,134.9c0-0.3-0.1-0.5-0.1-0.8c0.3,0,0.6,0.2,0.8,0c0-0.5,0-1,0-1.5c0.3,0,0.6,0,0.9,0.1
		c0.2,0.5-0.3,1.2,0.2,1.6c-0.1,0.2-0.3,0.3-0.5,0.3c-0.1,0-0.3,0-0.4,0v0.2c0.2,0.1,0.3,0.1,0.5,0.2c0,0.1,0.1,0.2,0.2,0.2
		c-0.4,0-0.8-0.1-1.1,0c-0.1,0-0.1-0.1-0.2-0.1L197.9,134.9z M200.1,135.9c0-0.4,0-0.8,0-1.3c-0.1-0.1-0.2-0.3-0.3-0.4
		c0.2,0,0.4,0,0.5,0c0.4,0.1,0.8,0.1,1.2,0.1c0,0.6,0,1.1,0,1.7C201,136.2,200.6,136,200.1,135.9z M203.7,133.9
		c0-0.1-0.1-0.2-0.2-0.3c0-0.1,0-0.3,0-0.4c0.5,0.1,1-0.1,1.5,0.1c0.5,0.4-0.2,1.1,0.2,1.5c-0.3,0-0.6,0-1-0.1v-0.2
		c0-0.1,0-0.2,0-0.2c-0.1-0.1-0.1-0.3-0.2-0.4C204,133.9,203.8,133.9,203.7,133.9z M207.2,135.9c0-0.1,0.1-0.3,0.1-0.4l-0.1-0.1
		c-0.1-0.1-0.1-0.2-0.1-0.3c0.2-0.1,0.4-0.1,0.5-0.1c0,0.4,0,0.8,0,1.2c-0.1,0-0.2-0.1-0.3-0.1C207.3,136.1,207.3,136,207.2,135.9z
		 M209.3,135.9c-0.2,0.3-0.3-0.2-0.3-0.3c-0.1,0-0.2,0.1-0.3,0.1c0,0.1,0.1,0.3,0.2,0.4l-0.1,0.1c0,0.1-0.1,0.2-0.1,0.3
		c0.1,0,0.3,0,0.4,0c-0.1,0-0.3,0-0.4,0.1c0-0.5-0.3-1-0.3-1.5c0.1,0,0.3,0,0.4,0.1c0.2,0.1,0.5,0,0.5,0.2
		C209.5,135.5,209.5,135.8,209.3,135.9z"/>
	<path d="M207.6,132.4h-0.1c-0.5-0.3-1.2-0.3-1.8-0.2c0,0.1,0.1,0.1,0.1,0.2c0.4,0.1,0.8,0.3,1.3,0.3
		C207.3,132.7,207.4,132.5,207.6,132.4z"/>
	<path d="M177.5,49.3c-0.3,0-0.6,0-0.9,0c0,0.1,0.1,0.2,0.2,0.2c0.5,0.2,1,0.4,1.3,0.8c0.1,0,0.2,0,0.3,0c0.2-0.1,0.4-0.2,0.7-0.4
		c0-0.3,0-0.6,0-0.9c-0.3,0-0.3,0.3-0.3,0.5c-0.2-0.1-0.4-0.1-0.4-0.3c-0.1-0.2,0-0.4,0-0.7c-0.6-0.3-1.3-0.3-1.9-0.1
		c0.5,0.2,1.1,0,1.6,0.1C178.1,49,177.7,49.1,177.5,49.3z"/>
	<path d="M170.1,52.3c0.3-0.2-0.3-0.4,0-0.5c0.3-0.3,0.7-0.5,1.1-0.6c0.9-0.3,1.8-0.6,2.6-1.1c-0.2-0.3-0.6-0.1-0.8,0
		c-0.6,0-1.1,0.2-1.6,0.4c-0.2,0.2-0.4,0.5-0.7,0.7c-0.3,0.1-0.6,0.1-0.8,0.4c-0.1,0.1-0.3,0.3-0.1,0.4
		C169.8,52.2,169.9,52.2,170.1,52.3z"/>
	<path d="M168.6,68.3c0.1-0.3,0.1-0.7,0-1c-0.3,0.4-0.4,0.8-0.9,1c-0.2,0-0.4,0-0.7,0c0.2,0.8,0.3,1.6,0.3,2.5c0,0,0.1,0,0.2,0
		c0.1-0.5,0-1.1,0.3-1.5C168,68.8,168.4,68.6,168.6,68.3z"/>
	<path d="M198.6,137.9c0.3,0.2,0.8,0.4,1,0.1C199.3,137.9,198.9,137.8,198.6,137.9z"/>
	<path d="M173.9,48.5c-0.5,0-0.9,0.2-1.2,0.5c0.4,0,0.8-0.2,1.2-0.3C173.8,48.6,173.9,48.5,173.9,48.5z"/>
	<path d="M180.2,78.3c0,0,0.1,0.1,0.1,0.2c0.9,0.9,1.5,2.1,2.3,3.2c0.7,1,1.2,2.1,2.3,2.8c-0.2-0.5-0.7-0.7-1-1.2
		c-0.6-0.7-0.8-1.6-1.4-2.3c-0.6-0.7-1.2-1.5-1.8-2.2C180.6,78.6,180.4,78.4,180.2,78.3z"/>
	<path d="M188.6,124.2c0.7-0.7,1-1.6,1.1-2.5c-0.2,0.4-0.4,0.8-0.6,1.2C188.9,123.3,188.7,123.7,188.6,124.2z"/>
	<path d="M195.9,125.1c0.2,0,0.3,0,0.5,0c0.3-0.3,0.6-0.6,0.8-1.1c-0.4,0-0.7,0.3-1,0.6C196,124.7,196,124.9,195.9,125.1z"/>
	<path d="M206,138.7c0.3,0.1,0.6,0.2,0.9,0.2c0.1,0,0.2-0.1,0.2-0.2C206.8,138.4,206.3,138.5,206,138.7z"/>
	<path d="M222.9,139c-0.4-0.2-0.9-0.2-1.3-0.3c-2-0.4-4.1-0.3-6.2-0.3c-0.2,0-0.3,0-0.5,0.1c0.7,0,1.4,0.1,2.1,0.1
		c0,0.2-0.2,0.3-0.3,0.4c-0.3,0-0.5,0-0.8,0.1c0,0.1,0,0.2,0,0.2c0.3,0.2,0.7,0.1,1.1,0c0.4,0.1,0.8,0.3,1.3,0.2
		c1,0.1,1.9,0.3,2.9,0.2c0.6,0,1.1,0.2,1.7,0.3C223,139.7,222.9,139.4,222.9,139z M222,139.6c-0.2,0-0.3,0-0.5,0.1
		c-0.4,0.1-0.8-0.5-1.3-0.2c-0.5-0.2-1-0.2-1.4-0.5c-0.1,0.6-0.8,0.2-1.2,0c0-0.1-0.1-0.2-0.2-0.3c1.7-0.1,3.5,0.1,5.1,0.5
		c0,0.2,0.1,0.5,0.1,0.7C222.4,139.8,222.2,139.7,222,139.6z"/>
	<path d="M170.7,52.4c0.3-0.3,0.7-0.5,1.1-0.8C171.2,51.4,170.7,51.9,170.7,52.4z"/>
	<path d="M186.9,101.3c0-0.2,0-0.4,0-0.6c-0.1-1.3-0.3-2.6-0.5-3.9c-0.1-0.8-0.3-1.6-0.6-2.3c0.1,1,0.3,1.9,0.4,2.9
		c0.1,0.9,0.3,1.8,0.4,2.7C186.8,100.4,186.8,100.9,186.9,101.3z"/>
	<path d="M172.4,53.1c0.1-0.1,0.2-0.2,0.3-0.4c-0.2,0-0.3,0.1-0.4,0.1c-0.1-0.1-0.2-0.2-0.4-0.3c0.1-0.2,0.2-0.4,0.4-0.5
		c-0.4,0-0.8,0.2-1.1,0.4c0,0.2,0,0.4,0.1,0.6C171.5,52.4,172,53.2,172.4,53.1z"/>
	<path d="M171.8,53.3c0.1-0.2-0.2-0.3-0.3-0.2C171.3,53.3,171.7,53.4,171.8,53.3z"/>
	<path d="M210.6,58.1c-0.1-0.2-0.2-0.4-0.4-0.5c0-0.1,0.1-0.3,0.1-0.4c0.2-0.1,0.5-0.1,0.7-0.2c0.4-0.1,0.8-0.4,1.1-0.6
		c0-0.1-0.1-0.2-0.1-0.3c-0.1,0-0.2-0.1-0.3-0.1c0,0.1,0.1,0.2,0.1,0.2c-0.4,0.5-1.2,0.6-1.8,0.7C210,57.3,210.1,57.9,210.6,58.1z"
		/>
	<path d="M210.9,56.3c-0.1-0.1-0.2-0.1-0.4,0C210.5,56.5,210.9,56.5,210.9,56.3z"/>
	<path d="M211.5,59c0.4,0.1,0.7,0.3,1.1,0.2c-0.4-0.4-1-0.4-1.5-0.6c-0.1-0.1-0.2-0.2-0.3-0.3c0,0.1-0.1,0.2-0.2,0.2
		c-0.4-0.1-0.7-0.1-1.1-0.1l0.1,0.1C210.4,58.7,211,58.8,211.5,59z"/>
	<path d="M169.1,60.2c-0.1-0.3-0.5-0.3-0.7,0c-0.4,0.6-0.8,1.2-0.9,1.9c0.4-0.6,0.6-1.3,1.1-1.8C168.7,60.1,168.9,60.2,169.1,60.2z"
		/>
	<path d="M167,64.8c0.4-0.6,0.7-1.3,0.7-2c-0.2,0.2-0.2,0.5-0.3,0.8C167.3,64,167,64.3,167,64.8z"/>
	<path d="M182.8,85.4c-0.3-1-0.6-1.9-1.2-2.8c0,0.5,0.4,1,0.5,1.5c0.3,0.8,0.3,1.6,0.7,2.4c0.4,1,0.9,2.1,1.3,3.1
		c0.2,0.5,0.4,1,0.7,1.5c-0.1-0.7-0.5-1.3-0.7-2C183.7,87.9,183,86.7,182.8,85.4z"/>
	<path d="M168.9,87.1c0.4,0.4,0.9,0.6,1.4,0.9C170,87.4,169.5,87.2,168.9,87.1z"/>
	<path d="M178.7,122.3c-0.1,0.3-0.2,0.6-0.2,1c0.2-0.7,0.7-1.2,0.9-1.8c-0.1,0-0.2,0.1-0.2,0.1C179.1,121.7,178.9,122,178.7,122.3z"
		/>
	<path d="M190.9,121.8c-0.9,0.2-1.3,1.2-1.4,2c0.3-0.3,0.4-0.7,0.6-1.1C190.2,122.3,190.5,122,190.9,121.8z"/>
	<path d="M201.3,130.1c0.6,0.1,1.1,0.4,1.6,0.3c0.1,0,0.4,0,0.3-0.2C202.6,130.1,201.9,129.8,201.3,130.1z"/>
	<path d="M170.7,60.8c-0.4-0.1-1-0.5-1.3,0C169.8,60.7,170.2,60.8,170.7,60.8z"/>
	<path d="M184.3,61.1c0.1,1,0.6,1.8,0.8,2.8c0.1-0.6-0.1-1.2-0.3-1.7C184.7,61.8,184.6,61.4,184.3,61.1z"/>
	<path d="M179.3,68c0.6-0.7,1.4-1.3,2.2-1.7c-0.9,0.2-1.6,0.8-2.2,1.5c-0.3,0.4-0.5,0.9-0.8,1.4c-0.2,0.4-0.5,0.7-0.6,1.1
		c0.1-0.1,0.2-0.1,0.2-0.2C178.5,69.3,178.8,68.6,179.3,68z"/>
	<path d="M186,118.1c-0.3,0.1-0.5,0.4-0.7,0.6c-0.7,0.6-1.5,1.1-2.3,1.6c0.7-0.2,1.3-0.6,1.9-1.1C185.4,118.9,185.8,118.6,186,118.1
		z"/>
	<path d="M181.5,125.2c0.4-0.1,0.8-0.4,1.1-0.6C182.2,124.5,181.7,124.7,181.5,125.2z"/>
	<path d="M196,125.3c-0.1,0-0.3,0-0.4,0C195.5,125.6,196.2,125.6,196,125.3z"/>
	<path d="M198.5,126.4c-0.2,0-0.3,0-0.5,0C198,126.7,198.4,126.7,198.5,126.4z"/>
	<path d="M192,128.9c0.7,0.1,1.3,0.2,2,0.3c-0.1-0.1-0.3-0.2-0.4-0.3c0.1-0.1,0.2-0.2,0.3-0.2C193.3,128.7,192.6,128.7,192,128.9z"
		/>
	<path d="M196.8,137.8c-0.2-0.1-0.5-0.1-0.7-0.2C196.1,138,196.5,137.9,196.8,137.8z"/>
	<path d="M197.3,137.8c0.1,0.3,0.6,0.3,0.8,0.1C197.9,137.7,197.6,137.7,197.3,137.8z"/>
	<path d="M180.5,62.4c-0.1,0.2,0,0.5,0,0.7c0.1,0.6-0.1,1.2-0.1,1.8C180.8,64.1,180.7,63.2,180.5,62.4z"/>
	<path d="M167.6,73.1c-0.1,0.9,0,1.8,0.4,2.6c0.1-0.5-0.2-0.9-0.3-1.4C167.6,73.9,167.6,73.5,167.6,73.1z"/>
	<path d="M190.5,128.4c0.1-0.2-0.3-0.3-0.4-0.1C190,128.4,190.4,128.4,190.5,128.4z"/>
	<path d="M171.6,66.7c-0.8,1.3-1.3,2.7-2,4.1c0.2-0.1,0.3-0.4,0.4-0.6c0.6-1.1,1.1-2.3,1.7-3.3c0.4-0.7,1-1.2,1.4-2
		c0.2-0.5,0.5-0.9,0.7-1.4c-0.3,0.3-0.5,0.7-0.8,1c-0.3,0.5-0.7,0.9-1,1.4C171.7,66.1,171.8,66.4,171.6,66.7z"/>
	<path d="M168.5,76c0.3-0.3,0.3-0.7,0.7-0.9c0,0.1,0,0.2,0,0.2c0.7-0.7,1.3-1.5,2.1-2.2c0.5-0.3,0.9-0.8,1.3-1.3
		c-0.5,0.2-0.8,0.6-1.2,0.9c-0.9,0.6-1.4,1.6-2.3,2.2c0.1-0.2,0.2-0.4,0.4-0.6c-0.2-0.1-0.3,0.2-0.4,0.3c-0.4,0.5-0.8,1.1-1.1,1.7
		c-0.2,0.3-0.4,0.5-0.5,0.9C167.9,76.9,168.1,76.4,168.5,76z"/>
	<path d="M199.7,123.9c0.2-0.3-0.4-0.2-0.6-0.2C199.2,124,199.5,124,199.7,123.9z"/>
	<path d="M199,124.5c0.4,0.1,0.7,0.4,1.2,0.3c0.2-0.1,0.5-0.1,0.6-0.3c-0.2-0.2-0.5-0.1-0.8-0.2c-0.2,0-0.4-0.2-0.6-0.1
		C199.1,124.2,198.9,124.3,199,124.5z"/>
	<path d="M199.9,125.8c0.3,0.1,0.5,0,0.8,0C200.6,125.5,199.9,125.4,199.9,125.8z"/>
	<path d="M193.9,127.5c-0.7-0.1-1.3,0.2-2,0.2c-0.1,0-0.3,0-0.5,0.1c0.9,0.3,1.8,0,2.6,0c0.5-0.1,1.1,0,1.6-0.2
		C195.1,127.4,194.5,127.6,193.9,127.5z"/>
	<path d="M187.8,137c-0.1,0.4,0.4,0.2,0.6,0.2C188.2,137,188,137,187.8,137z"/>
	<path d="M202.6,138.2c-0.2,0-0.6-0.1-0.7,0.1c0.7,0.2,1.4,0,2,0.2c0.5,0.2,1,0,1.4,0.2c0.1-0.1,0.2-0.1,0.3-0.2
		c-0.5-0.2-1-0.1-1.4-0.2C203.7,138.3,203.1,138.3,202.6,138.2z"/>
	<path d="M207.8,138.6c0,0.1,0,0.2,0,0.2c0.2,0.2,0.7,0.2,0.7-0.2C208.3,138.6,208,138.6,207.8,138.6z"/>
	<path d="M173.3,66.1c-0.3,0.4-0.6,0.7-0.7,1.2c0.3-0.3,0.5-0.7,0.8-0.9c0.4-0.3,0.6-0.8,0.7-1.2C173.7,65.4,173.5,65.8,173.3,66.1z
		"/>
	<path d="M166.9,70.9c0.2,0.3,0.3,0.8,0.6,0.9c0-0.4-0.3-0.7-0.4-1c-0.2-0.6-0.1-1.3-0.3-1.9c0-0.1-0.1-0.2-0.2-0.3
		c0,0.4,0.1,0.9,0,1.3c-0.4-0.5-0.2-1.2-0.3-1.7c-0.1,0.4-0.2,0.8-0.1,1.2C166.3,69.9,166.7,70.4,166.9,70.9z"/>
	<path d="M210.6,138.7c0,0.2,0.1,0.4,0.3,0.4s0.6,0.1,0.7-0.2C211.4,138.7,211,138.7,210.6,138.7z"/>
	<path d="M198.3,112.2c0.1-0.4,0.2-0.8,0.2-1.2C198.2,111.4,198.2,111.9,198.3,112.2z"/>
	<path d="M198.8,127.2c-0.1,0.2,0,0.2,0.2,0.2C199.1,127.2,199,127.2,198.8,127.2z"/>
	<path d="M192.1,71.8l-0.1-0.2c-0.4-0.2-1-0.1-1.5-0.1c0,0,0,0.1,0,0.2C191.1,71.8,191.6,71.9,192.1,71.8z"/>
	<path d="M194.5,125c0,0.1,0.1,0.2,0.1,0.4c0.1,0,0.2,0,0.3,0C194.8,125.1,194.7,125,194.5,125z"/>
	<path d="M199,125.2c0,0.3,0.4,0.3,0.5,0.1C199.4,125.2,199.2,125.2,199,125.2z"/>
	<path d="M202.2,127c0-0.2-0.3-0.2-0.4-0.1C201.7,127.1,202.1,127.2,202.2,127z"/>
	<path d="M191.3,128.7c0.2,0,0.4,0,0.5-0.1C191.7,128.4,191.3,128.5,191.3,128.7z"/>
	<path d="M189.6,129c0.2,0,0.4,0,0.5-0.2c-0.2,0-0.3-0.1-0.5-0.1C189.6,128.8,189.6,128.9,189.6,129z"/>
	<path d="M203.9,130c-0.3-0.3-0.7-0.4-1.1-0.4C203,129.9,203.4,130.1,203.9,130z"/>
	<path d="M202.6,131.6c-0.4-0.3-0.9-0.1-1.4-0.2c-0.5,0-1-0.2-1.5,0.1C200.6,131.6,201.6,132,202.6,131.6z"/>
	<path d="M198.7,131.8c0.2,0.1,0.4,0,0.5,0C199,131.7,198.7,131.6,198.7,131.8z"/>
	<path d="M185.9,136.9c0,0.3,0.5,0.2,0.7,0.1C186.4,136.9,186.1,136.7,185.9,136.9z"/>
	<path d="M190.9,136.9c-0.1,0-0.2,0-0.2,0s0,0.1,0,0.2c0.1,0.1,0.3,0.3,0.4,0.4c0.2,0.1,0.5,0.2,0.5-0.1c-0.2,0-0.4,0-0.6,0
		C191,137.2,191,137,190.9,136.9z"/>
	<path d="M192.8,137.3c-0.1,0-0.2,0.1-0.3,0.2c0.2,0.2,0.5,0.2,0.8,0.1C193.2,137.4,192.9,137.4,192.8,137.3z"/>
	<path d="M194.2,137.7c0.3,0.1,0.5,0.1,0.8,0C194.7,137.5,194.4,137.5,194.2,137.7z"/>
	<path d="M200.4,138.1c0,0,0,0.1,0,0.2c0.2,0.1,0.5,0.1,0.7,0C201,138.1,200.7,138,200.4,138.1z"/>
	<path d="M175.9,77.2c0.1,0.2,0.2,0.5,0.3,0.7c0.1,0.5,0,1-0.1,1.4c-0.2,1,0,2.1,0.5,3c0-0.5-0.2-1-0.2-1.5c-0.2-0.7,0-1.4,0.1-2.1
		C176.6,78.2,176.3,77.6,175.9,77.2z"/>
	<path d="M184.5,80.3c-0.4-0.5-0.8-1-1.2-1.4c-0.3-0.3-0.5-0.7-0.9-0.8c0.6,1,1.3,2,1.9,3.1c0.5,0.8,0.8,1.7,1.2,2.4
		c0.3,0.5,0.5,1,0.8,1.4c0-0.5-0.4-1-0.6-1.4C185.1,82.5,184.9,81.3,184.5,80.3z"/>
	<path d="M192.2,114c0.1-1.6,0.2-3.2,0.3-4.7c0.1-1.2-0.1-2.3-0.3-3.5c0-0.3-0.1-0.6-0.3-0.7c0,0.5,0.2,0.9,0.2,1.4
		c0.3,1.8,0.1,3.6,0,5.4c0,0.8,0,1.5-0.1,2.3c0,0-0.1,0-0.2,0c-0.7-1.5-0.7-3.2-1.2-4.8c0-0.1-0.1-0.2-0.2-0.2
		c0.3,1.6,0.6,3.3,0.9,4.9c0.1,0.5-0.2,0.9-0.2,1.4c0.2,0,0.5,0.1,0.7,0.2c-0.2,0.4-0.1,0.9-0.2,1.3c-0.1,1.3-0.2,2.6-0.3,4
		c-0.2,1.4-0.3,2.8-1.2,3.9c-0.6,0.8-1.6,1.2-2.4,1.7c-0.6,0.4-1.3,0.6-1.9,1.1c0.3,0,0.6-0.1,0.9-0.2c0.8-0.4,1.6-0.9,2.4-1.3
		c0.8-0.5,1.4-1.2,1.8-2.1c0.8-1.5,0.8-3.3,0.9-5C192,117.1,192.1,115.6,192.2,114z"/>
	<path d="M170.8,95.3c-0.1-0.3-0.2-0.6-0.5-0.9c0.1,0.2,0.1,0.4,0.2,0.6c0.4,0.8,0.7,1.7,1.1,2.4c0.8,1.9,2.1,3.6,3.3,5.3
		c0.6,0.7,1.1,1.5,1.5,2.4c0.3,0.5,0.7,1,0.8,1.6c0.1,0.4,0.4,0.8,0.4,1.3s0.2,0.9,0.4,1.4c0.2,1.2,0.2,2.3,0.3,3.5
		c0,0.6-0.1,1.2,0.1,1.8c0.1,1.3,0.2,2.6,0.3,3.9c0.1,0.5-0.4,0.8-0.4,1.3c0,0.4,0,0.8,0.1,1.2c0.2-0.1,0.1-0.3,0.1-0.5
		c0-0.4,0-0.8,0.3-1.1c0.2-0.2,0.4-0.4,0.7-0.5c-0.1-0.1-0.1-0.2-0.2-0.2c-0.1,0.1-0.2,0.1-0.3,0.2c-0.2-1.8-0.3-3.7-0.5-5.6
		c0-0.5-0.1-0.9-0.1-1.4c-0.1-0.5,0-1-0.1-1.5c0-0.5,0-0.9-0.2-1.3c-0.2-0.6-0.4-1.3,0-1.9c0.3-0.6,0.4-1.2,0.5-1.9
		c0-0.3,0.2-0.6,0.1-0.9c-0.2,0-0.1,0.2-0.2,0.3c-0.2,0.8-0.3,1.7-0.6,2.5h-0.1c-0.2-0.4-0.3-0.9-0.6-1.3c-0.4-0.6-0.6-1.3-0.8-2
		c-0.7-2.3-1.3-4.7-2-7c-0.3-1-0.6-2.1-0.8-3.2c-0.3-1.5-0.3-3-0.7-4.5c0.1,1.2,0.3,2.3,0.3,3.5c-0.6-0.4-1-1.1-1.7-1.4
		c0.5,0.8,1.3,1.4,1.8,2.2c0.2,0.8,0.3,1.6,0.6,2.3c0.2,0.6,0.4,1.1,0.5,1.7c-0.2,0-0.4-0.1-0.7-0.1c0.2,0.2,0.5,0.3,0.7,0.5
		s0.3,0.5,0.3,0.8c0.1,0.6,0.3,1.2,0.3,1.8c-0.5-0.2-0.7-0.6-1.2-0.8c0.3,0.4,0.7,0.8,1.1,1.1c0.4,0.2,0.4,0.6,0.5,1
		c0.1,0.5,0.4,1.1,0.4,1.7c-0.7-0.7-1.4-1.5-1.9-2.4C172.8,99.4,171.7,97.3,170.8,95.3z"/>
	<path d="M183.7,97.2c-0.3-1.2-0.6-2.4-1-3.5c0-0.1-0.1-0.2-0.2-0.3c0.3,1.6,0.8,3.1,1.2,4.7c0.1,0.3,0.2,0.6,0.3,0.9
		C184,98.4,183.8,97.8,183.7,97.2z"/>
	<path d="M184.7,96.2c0.3,1,0.6,2,1,3c0.2,0.7,0.5,1.5,0.8,2.2c0.4,0.9,0.7,1.9,0.7,2.9c0.3,1.9,0.7,3.8,0.9,5.8
		c0.2,0.9,0,1.9,0,2.8c-0.1,1.1-0.2,2.2-0.6,3.2c-0.1,0.4-0.4,0.8-0.5,1.2c0.1-0.1,0.2-0.2,0.3-0.3c0.5-1,0.9-2,1-3.1
		c0.1-0.9,0.3-1.9,0.1-2.8c-0.1-0.8-0.2-1.5-0.2-2.3c-0.1-1.2-0.2-2.4-0.5-3.6c-0.1-0.7-0.2-1.3-0.3-2c-0.2-0.7-0.4-1.3-0.7-1.9
		c-0.5-1.2-0.8-2.5-1.3-3.7C185.1,97,185,96.6,184.7,96.2z"/>
	<path d="M188.2,125.4c-0.4,0.1-0.5,0.4-0.9,0.6s-0.7,0.3-1.1,0.5c-0.2,0.1-0.4,0.3-0.4,0.6C186.6,126.5,187.6,126.3,188.2,125.4z"
		/>
	<path d="M191.3,116.4h-0.1c-0.5,1.1-0.4,2.3-0.9,3.3c-0.1,0.1-0.1,0.3-0.2,0.5c0.4-0.5,0.7-1.2,0.8-1.8
		C191.1,117.7,191.3,117.1,191.3,116.4z"/>
	<path d="M201.1,117.3c0-0.1,0-0.4-0.2-0.4c-0.2,0.4-0.4,0.9-0.6,1.3c-0.3,0.7,0,1.3,0,2c0.1,0,0.2,0,0.2,0
		C200.5,119.2,200.9,118.3,201.1,117.3z"/>
	<path d="M198.1,124.1c0,0.1,0,0.2,0,0.3c0.3,0,0.5,0,0.8-0.1C198.7,124,198.4,124,198.1,124.1z"/>
	<path d="M199.9,126.4c0,0.1,0,0.2,0,0.3c0.3,0,0.6,0,0.9-0.2C200.6,126.3,200.2,126.4,199.9,126.4z"/>
	<path d="M209.3,138.8c0.1,0.2,0.2,0.3,0.4,0.4c0.1-0.1,0.3-0.2,0.4-0.4C209.8,138.7,209.5,138.6,209.3,138.8z"/>
	<path d="M176.1,127.5c-0.1,0.1-0.1,0.2,0.1,0.2C176.3,127.6,176.2,127.6,176.1,127.5z"/>
	<path d="M198.2,127.8c0.2,0.1,0.4,0.1,0.6,0c-0.5-0.3-1.2-0.4-1.6,0C197.6,127.8,197.9,127.7,198.2,127.8z"/>
	<path d="M180.1,130.1c-0.7,0.2-1.5,0.5-2.2,0.7c0.3,0,0.5,0.1,0.8,0c0.9-0.4,1.9-0.5,2.9-0.8c0.4-0.1,0.7-0.4,1.1-0.6
		c0.3-0.1,0.6-0.4,0.8-0.7c-0.2,0-0.3,0.1-0.4,0.2c-0.2,0.2-0.6,0.3-0.9,0.5C181.5,129.7,180.8,129.9,180.1,130.1z"/>
	<path d="M193.7,129.7c0,0.2,0.1,0.2,0.2,0.1C193.9,129.6,193.8,129.6,193.7,129.7z"/>
	<path d="M200.8,129.8c-0.4-0.2-0.9-0.2-1.3-0.2c-0.2,0-0.5-0.1-0.5,0.2c0.5,0,1,0.2,1.5,0.2C200.5,130,200.6,129.9,200.8,129.8z"/>
	<path d="M196,130.1c0.6,0.1,1.2,0.2,1.8,0.2c0.1,0,0.2-0.1,0.3-0.1C197.4,130,196.7,130.2,196,130.1z"/>
	<path d="M200.7,130.9c0.4,0.3,1,0.2,1.4,0.3C201.8,130.8,201.2,131,200.7,130.9z"/>
</g>
</svg>
