<?xml version="1.0" encoding="utf-8"?>
<!-- Generator: Adobe Illustrator 26.0.3, SVG Export Plug-In . SVG Version: 6.00 Build 0)  -->
<svg version="1.1" id="Слой_1" xmlns="http://www.w3.org/2000/svg" xmlns:xlink="http://www.w3.org/1999/xlink" x="0px" y="0px"
	 viewBox="0 0 238.1 150.2" style="enable-background:new 0 0 238.1 150.2;" xml:space="preserve">
<g>
	<path d="M200.4,102.2c0.1,0,0.2-0.1,0.3-0.1c0.7,1.1,2,1.7,3,2.4c0.3,0.8,0.2,1.7,0.7,2.4c0.7,0.7,2,0.4,2.6,1.3
		c0.2,0.6,0.2,1.3,0.7,1.8c0.7,0.7,1.2,1.5,1.9,2.2c1,0.8,2.1,1.4,2.8,2.5c-0.4,0.2-0.7,0.4-1.1,0.5c0.4,0.7,1,1.4,0.8,2.3
		c-0.1,0.8-0.6,1.3-1,2c-0.3,0.8-0.1,1.6-0.4,2.4c-0.5,1.3-1.6,2.3-2.2,3.6c-1.1,0.5-2.1,1.9-1,2.9c2.6-0.1,5.8-1.5,6.1-4.4
		c-1.1,0.2-1.9,1-2.9,1.4c-0.6,0.2-1.3,0.3-2,0.4c0.9-1.2,2-2.3,2.7-3.6c0.4-0.9,0-2.1,0.7-3c0.8-1,0.9-2.3,0.3-3.5
		c0.3-0.4,0.7-0.9,0.4-1.5c-0.7-1.2-1.9-1.8-2.9-2.6c0.3-1.2,2.1-2.1,3-2.8l-0.8,0c-1.3-0.4-2.7,0.2-3.7,1.1
		c-0.2-0.6-0.4-1.3-0.6-1.9c-0.6-0.9-1.7-1-2.7-1.3c0.9-1,1.8-1.8,2.5-2.9c1.4-2.1,2.5-4.5,3-7c0.4-2.5,0.3-5,0.3-7.5
		c1-0.8,1.6-1.9,2.8-2.3c1.9-0.7,3.5-2.5,3.3-4.6c-1.1,1.1-2.2,2.2-3.5,2.9c-1.2,0.4-2.5,0.7-3.3,1.7c-0.1-0.4-0.1-0.7-0.2-1.1
		c0.6-0.2,1.3-0.4,1.9-0.8c1.6-1.6,2.8-3.7,4.8-4.9c1-0.7,2.3-1.1,3.3-1.9c0.7,0.7,0.6-0.2,0.4-1c-0.5,0.4-0.8,1-1.5,1.2
		c-1.1,0.2-2.3,0.2-3.3,0.7c-2.2,0.9-3.7,2.9-5.1,4.6c-0.6,0.7-1.5,1-2.3,1.3c-0.6-0.9-1.3-1.8-2.2-2.5c-1-0.8-2.3-1.2-3.2-2.2
		c0.7-0.3,1.5-0.6,2.2-1.1c0.8-0.6,1.2-1.5,2-2c0.9-0.7,1.9-1.3,2.9-2c1.1-0.7,2.4-1.3,3.2-2.5c0.9-1.3,1.6-2.9,1.9-4.5
		c-1.5,1.3-2.6,2.9-4.3,3.9c-1.9,1.1-3.8,2.2-5.6,3.3c-0.5,0.3-0.7,1-1.1,1.5c-1.9,1.5-4.3,1.6-6.5,2.2c-1,0.2-1.7,1.1-2.6,1.6
		c0.2-0.6,0.8-0.9,1.3-1.3c1.2-0.8,2.7-1.2,4.1-1.5c2.5-0.7,4.4-2.6,5.6-4.7c0.4-0.9-0.2-1.8-0.6-2.6c-0.4-0.5,0.2-1.1,0.7-1.2
		c1.1-0.3,2.2-0.6,3.3-0.6c1.5-1,2.4-2.7,3.2-4.3c2-2.7,4.9-4.7,7.1-7.4l-0.1-0.4h-0.3c-1.4,0.7-2.8,1.4-4.3,2
		c-1.6,0.6-2.5,2.2-3.5,3.5c-1,1.2-1.7,2.6-2.9,3.5c-0.4-0.9-0.8-1.8-1.2-2.7c1.1-1.7,2.3-3.3,3.6-4.9c1.6-2.6,1.5-5.8,2.1-8.7
		c-0.1,0-0.3,0-0.4,0c-0.4,1-0.6,2.1-0.8,3.1c-0.1,1-0.3,1.9-0.5,2.8c-0.5-0.6-0.7-1.7,0.2-2c-0.3-0.4-0.6-0.8-0.8-1.2
		c0.9-0.9,1.4-2.1,1.9-3.2c0.2,0.1,0.3,0.1,0.5,0.2c0,0.5,0.3,0.9,0.6,1.2c0.5-0.9,0.8-1.9,0.5-2.9c-0.3-1.1-0.3-2.3-1-3.3
		c0.9,0.4,1.8,1,2.6,1.6c0.2-2.1-1.2-3.8-2.6-5.2c0.7,0.4,1.3,0.9,2,1.4c-0.2-2.1-0.9-4.5-2.8-5.6c0.6,0,1.2,0.2,1.8,0.3
		c-0.7-1.9-2.8-2.8-4-4.3c0.8,0.1,1.7,0.2,2.5,0.2c-1.1-2-3.6-2.5-5-4.2c0.7-0.2,1.3-0.3,2-0.5c-1.2-1.7-3.4-2-5.3-2.5
		c0.5-0.5,1.6-0.7,1.8-1.4c-1.3-1.3-3.4-1.1-5.1-1.2c0.6-0.4,1.1-0.9,1.6-1.4c-1.5-0.1-2.9-0.1-4.4,0c2.2-2.1,3.2-5.1,5.4-7.1
		c1-1,2.4-1.6,3.5-2.6c0.9-0.8,1.8-1.5,2.5-2.5c-3.5,1.5-6.8,3.6-9.8,5.9c-1.3,1-1.4,2.9-2.9,3.8c-0.1-0.6-0.1-1.2-0.2-1.7
		c-1.4,0.9-2.6,2.1-3.8,3.2c-0.7,0.4-1.7,0.7-2.5,0.3c-0.6-1.2,0.3-2.4,1.3-3s2.1-1.3,3.3-1.5c1.7-0.3,3.4-0.7,5-1.5
		c1-0.5,1.2-1.7,1.2-2.7c-0.7,0.4-1.5,0.9-2.3,1.1c0.3-0.7,0.8-1.3,1.4-1.7c2-1.2,4.3-2,6.4-3.1c1.8-1.3,3.3-2.8,4.6-4.5
		c-1.1,0.5-1.9,1.3-3,1.8c-1.4,0.7-2.9,1.3-4.4,1.9c-1.4,0.6-3.1,0.5-4.5,1.4c-1.1,0.5-1.8,1.7-3,2.1c-0.9,0.3-1.5,1.1-1.8,2
		c0.1,0.2,0.3,0.6,0.3,0.8c-2.6,0.9-4.9,2.2-7.1,3.8c-0.8,0.6-1.1,1.5-1.4,2.4c-1.5,0-2.9,0.1-4.3,0.2c1.9-2.6,5-3.6,7.4-5.5
		c-1.5,0.4-3,0.6-4.5,0.9c-1.7,0.3-2.6,1.8-3.9,2.8c0.5-0.9,1.3-1.5,1.9-2.3c-1.2,0.2-2.3,0.9-3.6,0.8c1.4-0.7,2.8-1.2,4.4-1.5
		c3.1-0.5,5.4-2.8,7.5-4.9c1.6-1.5,3.6-2.6,5.3-4c-0.8,0-1.6,0.2-2.3,0.6c-2.3,1.3-4.5,2.7-6.7,4.3c-1.4,1.1-3,2.1-4.7,2.5
		c-2,0.2-4.2,0.4-5.9,1.7c-0.8,0.6-1,1.5-1.1,2.4c-0.4,0.4-0.8,0.8-1.2,1.3c0-1-0.6-1.7-1.3-2.3c-0.6,0.1-1.3,0.2-1.9,0.2
		c-0.4-0.6-0.6-1.4-1.2-1.9c-0.6-0.5-1.4-0.8-1.9-1.5c-1.1,0.1-1.8,1.2-1.9,2.2c-0.8-0.7-1.6-1.3-2.6-1.6c-0.2,0.9-0.5,1.8-0.1,2.6
		c0.7,0.2,1.4,0.1,2,0.1c-0.2,0.6-0.5,1.1-0.7,1.7c-0.1,0-0.3,0-0.4-0.1c-0.1-0.5-0.2-0.8-0.3-1.3c-0.3,0.5-0.7,0.9-0.2,1.5
		c0.6,0.6,0.6,1.4,0.6,2.2c0.9,0.8,1.4,2,1.4,3.2c-0.5-0.3-1.1-1-1.7-0.6c-0.3,0.6-0.1,1.3-0.1,2c0.1,1.1-0.4,2.2-0.9,3.1
		c-0.4-1-0.7-2.1-1.2-3.1c-0.6-2.8-1.8-5.4-2.6-8.2c1.6-1.2,1.7-3.4,3.3-4.6c1.2-1.1,2.8-1.1,4.2-1.9c1.2-0.6,2.4-1.3,3.3-2.3
		c-1.4,0.4-2.7,1.1-4.1,1.4c-1,0.3-2.1,0.3-3,0.7c-1,0.4-1.7,1.2-2.5,1.9c-0.9,0.8-1.9,1.2-3,1.6c0.7-0.4,1.4-0.7,2.1-1.1
		c1.2-0.7,2.3-1.9,2.3-3.3c-1.1,0.8-2.1,1.7-3.4,2.1c-1.6,0.5-3.5,0.7-4.6,2.1c-0.6,0.7-0.1,1.6,0.3,2.3c-0.4,0.6-0.8,1.1-1.2,1.7
		c-0.1,0-0.4,0.1-0.6,0.1c0.1,0.7,0.1,1.3,0.2,2c-0.7-1-1.4-1.9-2.5-2.4c0.1,0.6,0.2,1.2,0.3,1.8c-1-0.7-2.1-1.3-3.3-1.5
		c0.1,0.7,0.4,1.4,0.8,2c-1.1-0.7-2.5-0.8-3.7-0.4c0.5,0.4,1,0.9,1.6,1.3c-1.4-0.7-3.1-0.6-4.3,0.3c0.4,0.2,0.7,0.3,1.1,0.4
		c-0.4,0.3-0.7,0.7-1.1,1c-0.7-0.6-1.7-1.4-1.5-2.4c0.5-1.1,1.8-1.6,3-1.6c1.5,0,3-0.3,4.3-1.2c1-0.7,2.2-1.2,3.1-2.1
		c1.8-2.1,3.7-4.2,6.3-5.3c1.9-0.8,3.7-1.7,5.6-2.5c1.2-0.5,2-1.5,2.3-2.8c-0.9,0.6-1.7,1.3-2.8,1.6c-3.4,0.9-7.1,1.9-9.8,4.3
		c-2.5,1.9-4.9,4.4-8.2,5c-1.6,0.2-3.1,0.9-4.6,1.6c-1.9,0.8-3.3,2.5-4,4.4c-0.4,1.5,1.1,2.4,1.2,3.8c0.1,0.9,0.5,1.6,1,2.4
		c-1.5,1.5-3.5,2.3-5.3,3.4c-1.4,0.9-2.8,2.2-3.1,4c-0.2,0.7,0.4,1.1,0.8,1.6c0.1,0.7,0,1.4,0.2,2.1c0.4,0.6,1.3,0.8,2,0.6
		c0.7-0.9,1.2-2.1,2.5-2.1c0,0.9,0.4,1.9,0.3,2.8c-0.8,1.2-2.1,2.1-2.5,3.5c-0.2,1.8,0.1,3.7,1.1,5.2c0.2,0,0.7,0.1,0.9,0.1
		c0.1,0.9,0,2.1,0.8,2.8s1.6,1.5,2,2.5c-0.7,0.7-1.5,1.4-2,2.3c-0.2,1,0.2,2-0.3,2.9c-0.4,0.8-0.4,1.6-0.7,2.4
		c-0.6,0.7-1.3,1.4-1.5,2.3c-0.3,0.7-1.1,1.2-1.8,1.3c-0.7-1.5-1.4-2.3-2.7-3.4c-0.7-0.6-1.6-1-2.5-0.5c-0.3,1.5-1.4,2.7-1.2,4.3
		c0.1,0.6-0.1,1.6,0.6,1.9c0.7-0.6,1-1.6,1.6-2.4c0.7-0.4,1.6-0.6,2.2-1.2c-0.7-1-1.7-1.6-3-1.7c0.2-0.2,0.4-0.4,0.5-0.7
		c1.1,0.5,2.1,1.4,2.8,2.4c0.5,0.6,0.9,1.4,1.6,1.8c1.1,0,2-0.9,2.4-1.9c0.3-0.8,1-1.3,1.5-2c0.3-0.9,0.3-1.9,0.8-2.7
		c0.5-0.9,0.1-1.9,0.2-2.8c0.5-1,1.6-1.5,1.9-2.6c0-2-2.7-2.6-2.6-4.6c0-0.8-0.5-1.4-0.9-2.1c-0.1,0.2-0.3,0.5-0.4,0.7
		c-0.7-1.2-0.9-2.7-0.9-4.1c0.1-1.2,0.8-1.3,1.4-2.3c0,1.4,0.2,1.9,0.7,3.2c0.3,0.7,0.9,1.3,1.3,2c0.3,0.8,0.4,1.6,0.9,2.3
		c0.7,1,1.8,1.7,2.8,2.4c0.9,0.5,1.2,1.7,2.2,2.1c1.4,0.6,2.6,1.7,4.1,1.9c-0.7,1-1.8,1.4-3,1.7c-0.1,0.8,0.1,1.8-0.7,2.2
		c-1,0.7-2.1,1.1-3,1.7c0.4-0.8,1.2-1.4,2.1-1.6c1.1-0.3,1.3-1.6,1.3-2.6c0.5-0.2,1-0.3,1.5-0.6c-0.7-0.1-1.3-0.1-2-0.2
		c-0.2,0.8-0.1,1.8-0.6,2.5c-0.6,0.3-1.4,0.4-1.8,1c-0.6,0.6-0.8,1.5-1.1,2.3c0.2-0.1,0.5-0.4,0.7-0.5c0.1,0.5,0.1,1,0.2,1.4
		c-0.4,0.1-0.8,0.3-1.2,0.4c0.1,0.7-0.2,1.4-0.5,2c0.6-0.3,1-0.8,1.3-1.4c0.3-0.2,0.7-0.4,1-0.8c0.1-0.5,0-1-0.1-1.5
		c0.5-0.4,1.2-0.8,1.8-1.1c0,1.2,0,2.3-0.2,3.5c1.1-0.9,1.9-2,2.7-3.2c0.6,1.4,0.8,3,0.7,4.5c1.5-1.3,1.6-3.4,1.6-5.2
		c1.2,1.5,2.2,3.1,3,4.9c1.5-1.5,0.7-3.9,0.3-5.7c1.2,0.8,1.9,2.1,2.8,3.2c-0.6-1.7-1.4-3.4-2.5-4.9c1.4,0.9,2.8,1.7,4.2,2.6
		c-0.6-1.5-1.3-2.9-2.1-4.2c1.7,0,3.4-0.4,5-0.1c0.6,0.1,0.9,0.7,1.3,1c-0.1,0.1-0.4,0.3-0.5,0.4c0.1,0.6,0.3,1.2,0.4,1.7
		c-0.7,0.4-1.5,0.7-2.2,1c0.4,0.3,0.8,0.6,1.3,0.9c-0.7,0.5-1.4,1-2.2,1.5c1.2,0.5,2.6,0.3,3.8,0c0.2,1.3-1.1,2-1.8,2.9
		c1.1-0.1,2.2-0.3,3.3-0.6c-1.1,0.9-2.2,1.8-3.2,2.8c-2.4,2.5-3.8,5.9-3.8,9.4c-0.8,0.8-1.7,1.4-2.7,1.9c-1.6,1.5-1.6,4-1,5.9
		c0.2,0.6,0.2,1.7,1,1.6c0.8-0.5,1-0.5,1.2-0.7c0.2-0.1,0.4-0.3,0.6,0.4c-0.6,0.3-1.3,0.6-1.5,1.3c-0.6,1.4-0.8,3.2,0.1,4.6
		c0.5,1,2,0.9,2.6,1.8c-1,0.1-2.1,0.2-2.7,1.1c-0.5,0.8-0.9,1.7-1.5,2.5c-0.6,0.9-1.6,1.5-2.3,2.3c-0.8,0.9-2.1,1.2-2.8,2.3
		c-0.2,0.8,0,1.7,0.1,2.5c-0.9-0.2-1.9-0.6-2.8-0.2c-1.8,0.8-3.6,1.4-5.2,2.5c-1.1,0.9-2.1,2-3,3c-0.6,0.7-0.4,1.8-1,2.5
		c-0.8,0.9-1.8,1.8-2.1,3c-0.1,1.7-0.1,3.5,0.2,5.2c0.4,1.5,1.3,2.9,2.2,4.1c-0.2,0.2-0.5,0.4-0.7,0.6c0.7,0.8,1.6,1.5,2.7,1.6
		c-0.2,0.1-0.6,0.3-0.9,0.4c0.6,0.5,1.5,0.8,2.3,0.8c-0.2,0.2-0.4,0.4-0.5,0.6c1.2,0.4,2.2,1.4,3.5,1.3c-0.4,0.2-0.8,0.5-1.2,0.7
		c1.1,0,2.2-0.1,3.2-0.4c0.8,1,2.1-0.2,3.1,0.1c1.2,0.3,2-1.1,3.1-1.1c0.9-0.1,1.7-0.5,2.3-1c0.7,0,1.3-0.1,2-0.1
		c0.8,0.4,1.8,0.7,2.7,0.9s1.4,1.1,1.8,1.8c-0.1,0.1-0.3,0.4-0.5,0.6c0.4,1.4,1.3,2.7,2.8,3.2c0.9-0.1,0.9-1.3,1-2
		c0.3-0.1,0.6-0.3,0.8-0.4c0,0.8-0.1,1.5-0.3,2.3c0.1,0.1,0.3,0.3,0.4,0.4c0.5-0.7,1.4-0.9,2.3-0.6c-0.2,0.3-0.3,0.7-0.5,1
		c-0.6-0.2-1.2,0-1.6,0.5c-0.3-0.2-0.7-0.4-1-0.6c-0.8-0.9-2.1-0.7-3.1-0.9c0.5,1.2,1.3,2.3,2.5,3c0.8,0.5,1.1,1.5,1.7,2.3
		c1.3,1.4,2.7,2.8,4.6,3.5c1.2,0.7,2.6,0.5,3.8,0.6c-0.3,0.3-0.5,0.6-0.8,0.9c1.1,0.4,2.3,0.6,3.4,0.5c0,0.2,0,0.5,0,0.6
		c1,0,1.9-0.3,2.8-0.6c0,0.5,0,0.9,0,1.4c1-0.2,2-0.6,2.8-1.3c0.6-0.6,0.9-1.5,1.7-1.9c0,0.6-0.1,1.3-0.2,1.9
		c1.6-0.2,2.5-1.7,3.4-2.8c0,0.4,0.1,0.9,0.1,1.4c1.5-0.3,2.8-1.3,2.9-2.8c0.4,0.1,0.6,0.7,1.1,0.5c0.6-0.7,0.9-1.6,1.2-2.4
		c0.4,0.1,0.9,0.2,1.3,0.3c0.8-0.5,0.7-1.6,0.9-2.4c0.4,0.1,0.8,0.2,1.3,0.4c0.2-1,0.3-1.9,0.2-2.9c0.4,0.2,0.9,0.9,1.4,0.4
		c0.3-1.1,0.2-2.3,0.2-3.4c0.3,0.2,0.6,0.4,0.9,0.6c0.7-1.2,0.4-2.7,0.4-4.1c0.2,0,0.7,0,0.9,0c-0.1-1.1-0.4-2.2-0.6-3.3
		c0.4,0,0.9-0.1,1.3-0.1c-0.1-1.2-0.5-2.3-1.1-3.3c0.4-0.2,0.9-0.1,1.1-0.6c-0.5-1-1.5-1.8-1.4-3.1c0.3,0.1,0.7,0.2,1,0.3
		c-0.2-0.9-0.2-1.9-0.6-2.8c-0.2-0.4-0.8-0.7-0.4-1.1c0.3,0.2,0.4,0.7,0.7,1c0.5-0.8,0.4-1.8,0.5-2.8c0.9-0.8,2.2-1,3.2-1.8
		c0.8,0.7,1.7,1.4,2.7,2c1.1,0.6,2.3,1.1,3.1,2.1c0.2,0.3,0.6,0.7,0.3,1c-1.2,1.5-3,2.3-4.5,3.4c-0.8,0.6-1.7,1.3-1.6,2.4
		c0.1,0.6,0.6,1.1,1.2,1.4c1.5,0.8,2.9,1.6,4.5,2.2c0.2,0.7,0.3,1.4,0.4,2c0.2,0.6,0.1,1.3,0.8,1.5c0-1.4-0.5-2.7-0.4-4
		c-0.5-2,0.7-3.9,0.7-5.8c-0.5,0.6-0.9,1.3-1,2.1c-0.2-0.2-0.5-0.4-0.7-0.6c-0.4,0.4-0.6,1-1.2,1.1c-0.5-0.2-0.9-0.6-1.4-0.9
		c-0.7,0.4-1.4,0.6-2.1,0.2c1.7-1.9,4.3-2.6,5.9-4.6c0.3-0.3,0.4-0.9,0.2-1.3c-0.9-1.7-2.9-2.3-4.4-3.4c-0.9-0.7-1.9-1.2-2.9-1.9
		c-0.2-1.1-0.1-2.2-0.3-3.3c-0.6-0.1-1.1-0.1-1.6-0.3c0-1,0.2-2,0.5-2.9c-1.2,0.4-2.5,1.1-3.8,0.7c-1.1-0.4-1.5-1.9-1-2.9
		c0.4-0.9,0.6-1.6,1.4-2.2c1.3-1,1.8-1,3.3-1.6c0.8,0.7,2.4,1.2,3,2c0.4,1.1,0.5,1.7,0,2.7L200.4,102.2z M209.9,65.7
		c1.2-1.6,2.3-3.2,3.6-4.7c1-1.4,2.8-1.8,4.3-2.5c-2.2,2.2-5,4.1-6.4,7c-0.5,1-1.1,1.9-2.1,2.6c-0.2-0.5-0.4-1-0.6-1.5
		C209.1,66.4,209.6,66.2,209.9,65.7z M128.6,64.7c-0.6,0.1-1.1,0.1-1.9,0.6c-0.4,0.7-0.6,1.4-0.9,1.9c0-0.9-0.2-2.2,0.2-3.1
		C126.4,63.1,128,64.2,128.6,64.7z M205.5,122.4c0.1,0.7,0.1,1.5,0,2.2c-0.4-0.4-0.7-0.8-1.1-1.3
		C204.8,123.1,205.2,122.7,205.5,122.4z M213,125c-1,1.7-3,2.3-4.9,2.5c0.2-0.4,0.2-1.2,0.8-1.2C210.4,126.2,211.8,125.8,213,125z
		 M210.8,109.2c-0.4,0.5-0.9,1-1.3,1.5c-0.2-0.2-0.3-0.4-0.5-0.6C209.5,109.7,210.3,109.3,210.8,109.2z M207.6,85.3
		c-1.8,1-3.6,2-4.9,3.6c-0.6,0.6-0.3,1.4-0.2,2.1c-1,0.5-2.1,0.9-3.2,1.3c1.7-1.8,3.2-3.8,4.6-5.8c0.2,0.1,0.6,0.2,0.8,0.3
		c0.8-0.6,1.7-1.2,2.3-2.1C207.3,84.9,207.4,85.1,207.6,85.3z M190.7,90.5c0.3-0.1,0.7-0.1,1-0.2c-0.3,0.9-0.5,2-1.1,2.8
		c-1,0.6-2.2,0.7-3,1.6c-1.1,1.2-2.3,2.3-3.6,3.2c0.1-0.8,0-1.7,0.5-2.4c1-1.2,2.4-1.9,3.7-2.5C189.4,92.5,190.1,91.5,190.7,90.5z
		 M190.7,90.2c0.2-0.5,0.5-0.9,0.7-1.4c0,0.5,0,0.9,0,1.4C191.2,90.1,190.9,90.2,190.7,90.2z M192.4,89.4c0.4-0.4,0.8-0.9,1.2-1.3
		c-0.1,1.4-0.5,2.7-0.8,4c-0.4,0.2-0.7,0.3-1.1,0.5C192.1,91.6,192.4,90.5,192.4,89.4z M192,88.9c0.1-0.9,0.7-1.4,1.3-2
		C193.5,87.9,192.5,88.4,192,88.9z M193.5,86.2c0.3-0.3,0.5-0.7,0.9-1c0.4,0.1,1,0.1,1.2,0.5c-0.5,0.4-1,0.8-1.6,1.2
		C193.8,86.7,193.7,86.4,193.5,86.2z M195,84.6c0.6-0.5,1.2-1,1.9-1.4c0.3,0.7,0.3,1.4,0.2,2.1c-0.3,0.1-0.6,0.2-0.8,0.3
		C195.9,85.2,195.5,84.8,195,84.6z M194.4,87.4c0.4-0.3,0.9-0.6,1.3-0.9c0,1,0,2-0.1,3.1c-0.6,0.7-1.2,1.4-1.9,2
		C194,90.2,194.3,88.8,194.4,87.4z M196,91.6c0.7,0.2,1.2,0.8,1.4,1.5c-1.2,0.6-2.6,1-3.5,2c-0.6,0.6-0.6,1.6-0.7,2.4
		c-1.4,0.9-2.5,2.1-3.6,3.3c-0.5,0.5-1.2,1.4-2,1.1c0.5-1.1,1.3-2.2,1.3-3.5c-0.4,0.1-0.7,0.2-1.1,0.3c0-1.3,1.1-2.4,2.3-2.8
		C192.4,95.3,194.8,93.9,196,91.6z M196.2,91c0.2-1.6,0.2-3.1,0.2-4.7c0.9-0.4,1.9-0.6,2.8-0.8c-0.1,2.1-0.9,4.1-1.9,6
		C197,91.3,196.6,91.2,196.2,91z M197.2,82.9c0.5-0.1,0.9-0.2,1.4-0.3c-0.3,0.3-0.5,0.7-0.8,1C197.6,83.4,197.4,83.2,197.2,82.9z
		 M199.9,85.3c1.2-0.1,2.4,0.2,3.4,0.7c-1.6,2.5-3.5,4.7-5.4,6.8c0-0.2-0.1-0.7-0.1-0.9C199,90,199.9,87.7,199.9,85.3z M206.2,83.8
		c0.2,0.1,0.4,0.2,0.6,0.4c-0.7,0.8-1.5,1.4-2.3,2.1c-0.5-0.3-1-0.5-1.5-0.8c0.4-0.4,0.7-0.7,1.1-1.1
		C204.9,84.3,205.5,84,206.2,83.8z M204.8,82.4c0.3,0.3,0.6,0.5,1,0.8c-0.4,0.1-0.8,0.3-1.2,0.5c0-0.5-0.1-1-0.4-1.4
		c-0.1,1.2-0.9,2.1-1.7,2.8c0-0.7-0.1-1.4-0.5-2c-0.2,0.2-0.4,0.3-0.5,0.5c0.2,0.4,0.4,0.7,0.5,1.1c-0.5,0-1-0.1-1.5-0.1
		c0.3-0.4,0.5-0.9,0.6-1.4c0.1-0.3,0.3-0.5,0.3-0.8c0.2,0.2,0.4,0.3,0.5,0.5c0.5-0.4,0.9-0.8,1.4-1.3
		C203.8,82,204.3,82.2,204.8,82.4z M203,81.3c-0.5,0.4-1.1,0.9-1.6,1.2c0-0.2-0.1-0.4-0.3-0.5c-0.7,0.8-0.6,2-1.5,2.7
		c-0.3-0.3-0.6-0.6-0.9-0.9c0.2-0.4,0.3-0.9,0.5-1.3c0.4-0.2,0.8-0.3,1.2-0.6c0.6-0.2,1.1-0.5,1.7-0.8
		C202.3,81.1,202.7,81.2,203,81.3z M207.3,62.2c0.1-0.7,0.2-1.3,0.3-2c0.4,0,0.7,0,1.1-0.1C208.3,60.9,207.8,61.5,207.3,62.2z
		 M205.1,59c-0.7-0.9-1.4-1.8-2.1-2.7c0.2-0.2,0.4-0.3,0.6-0.5c0.5,0.6,1.2,0.8,1.9,0.8C205.2,57.4,205.1,58.2,205.1,59z
		 M176.4,36.3c0.5-0.4,1.2-0.3,1.8-0.3c-0.1,0.4-0.2,0.8-0.3,1.3C177.4,36.9,176.9,36.6,176.4,36.3z M177.2,37.5
		c-0.4,0.1-0.7,0.3-1.1,0.4c0-0.2,0-0.6,0-0.8C176.5,37.2,176.8,37.3,177.2,37.5z M178.2,37.8c1-0.2,1.8-0.6,2.7-1.2
		c-0.3,1-0.5,2-0.9,2.9c-0.4,0.7-1.3,0.9-2.1,1C178,39.6,178.1,38.7,178.2,37.8z M178.6,37c0.1-0.4,0.2-0.8,0.3-1.2
		c0.4-0.1,0.8-0.2,1.2-0.3c0.2,0.2,0.3,0.3,0.5,0.5C179.9,36.4,179.3,36.7,178.6,37z M191.6,28.8c0.8-0.4,1.5-1,2.1-1.6
		c-0.1,0.5-0.1,1.1-0.2,1.6c-0.2,0.5-0.8,0.8-1.3,1.2c0.2,0.1,0.3,0.3,0.5,0.4c0.5-0.4,1.1-0.9,1.6-1.4c0.1,0.5,0.4,1,0.4,1.5
		c-0.2,0.8-0.9,1.4-1.4,2.1c-0.1-0.5-0.2-1-0.3-1.5c-0.2,0.2-0.3,0.4-0.5,0.6c0.1,0.9-0.6,1.6-1.3,2.1c-0.2-0.4-0.5-0.8-0.7-1.2
		c0.9-0.4,1.7-0.9,1.8-1.9C192,30,191.8,29.4,191.6,28.8z M202.5,34.1c0.8-0.2,1.5-0.4,2.3-0.8c-0.1,1,0,2.2-0.8,3.1
		c-0.4,0.6-1.2,0.7-1.8,1C202.6,36.3,202.8,35.2,202.5,34.1z M210.5,39.2c0.4,0.2,0.8,0.4,1.2,0.6c0.1,0.6,0.3,1.3,0.4,1.9
		c-0.9,0.3-2,1-3,0.5C210,41.5,210.9,40.5,210.5,39.2z M212.3,42.2c0.1,0.7,0.3,1.5,0.4,2.2c-0.5-0.2-0.9-0.5-1.4-0.8
		c0-0.2,0-0.5,0-0.7C211.6,42.6,211.9,42.4,212.3,42.2z M210.7,55.8c-0.7,0.1-1.3,0.2-2,0.1c-0.5-0.3-0.5-0.9-0.7-1.4
		c0.8-0.4,1.5-0.8,2.2-1.3c0.1,0,0.4,0,0.5,0.1C210.2,54.1,210.2,55,210.7,55.8z M203.1,54.9c0.9-0.9,2.1-1.4,3.3-1.8
		c-0.2,0.5-0.4,0.9-0.6,1.4C204.9,54.8,204,54.9,203.1,54.9z M205.5,56c-0.4-0.1-0.9-0.2-1.3-0.2c0.4-0.2,0.8-0.4,1.2-0.6
		C205.5,55.4,205.5,55.7,205.5,56z M200.2,43.1c0.3-0.7,0.7-1.3,1.1-1.9c0.8-0.2,1.5-0.6,2.4-0.5C202.9,41.9,201.5,42.7,200.2,43.1z
		 M204.1,40.8c0.4-0.3,0.8-0.6,1.2-0.8c0.4,0,0.8,0,1.2,0c-0.1,0.8,0.1,1.8-0.6,2.4c-0.8,0.8-2.2,1.2-3.2,0.4
		C203.3,42.2,203.8,41.5,204.1,40.8z M204.9,43.9c-0.5,0.7-0.9,1.6-1.7,2c-0.7,0.3-1.4-0.1-2.1-0.3c0.7-0.7,1-1.7,1.2-2.7
		C203,43.6,203.9,44,204.9,43.9z M202.1,46.5c-1,1-2.3,0.1-3.4-0.2c0.2,0.3,0.3,0.6,0.5,0.9c-0.7,0-1.3-0.1-1.9-0.3
		c0.2-0.2,0.4-0.5,0.7-0.7c0.3,0,0.6,0,1,0c0.6-0.4,1.2-0.6,1.9-0.7C201.2,46,201.7,46.2,202.1,46.5z M200.5,48.7
		c-0.2-0.4-0.4-0.7-0.6-1.1c1.4-0.1,2.6,0.4,3.8,1C202.7,49.4,201.5,49,200.5,48.7z M205.2,48.2c0.7,0,1.4,0.1,2.1,0.2
		c-0.8,1.3-2.5,0.9-3.7,0.9C203.6,48.4,204.5,48.3,205.2,48.2z M199.5,47.6c0.1,0.6,0.4,1.2,0.6,1.8c-0.6,0-1.2,0.2-1.7-0.1
		c-0.4-0.3-0.7-0.9-1-1.3C198.2,48,198.9,47.9,199.5,47.6z M200.6,49.6c0.5,0.7,1.2,1.2,1.9,1.7c-0.6,0.2-1.2,0.6-1.8,0.4
		c-0.7-0.1-1.1-0.9-1.5-1.4C199.7,50.1,200.1,49.9,200.6,49.6z M201.2,49.7c0.7,0,1.4-0.1,2.1-0.1c0.6,0.2,1.2,0.4,1.8,0.5
		C203.8,50.9,202.3,50.6,201.2,49.7z M205.3,50.5c0.4,0.7,1,1.3,1.8,1.6c-0.9,0.4-1.8,0.7-2.7,1c-0.5-0.5-0.9-1.1-1.3-1.6
		C203.9,51.3,204.7,50.9,205.3,50.5z M209.3,50.3c0,0.9,0.1,1.8-0.2,2.7c-0.7,0.7-1.8,0.9-2.7,1.4C207.3,52.9,208,51.4,209.3,50.3z
		 M207.4,54.7c0.1,0.6,0.3,1.2,0.5,1.8c-0.9,0-1.8-0.2-2.1-1.2C206.4,55,206.9,54.8,207.4,54.7z M207.2,51.5c-0.5-0.4-1-0.9-1.4-1.4
		c0.6-0.3,1.1-0.7,1.6-1c0.7,0.1,1.3,0.3,2,0.3C208.6,50,207.9,50.7,207.2,51.5z M205.8,47.8c0.4-0.5,0.8-1.1,1.1-1.6
		c-0.2,0-0.5,0.1-0.7,0.2c-0.8,1.3-2.6,1.9-4.1,1.2c-0.1-0.4,0.3-0.6,0.4-1c0.7,0,1.4-0.4,2-0.8c0.8,0.1,1.7,0.3,2.5,0.1
		c0.1-0.1,0.3-0.2,0.4-0.3c0.7,0.4,1.4,0.9,2.1,1.3C208.5,47.6,207.1,47.7,205.8,47.8z M206.6,45.3c-0.6,0.2-1.2,0.1-1.8,0.2
		c0.2-0.6,0.4-1.2,0.7-1.8c0.4-0.5,1-0.9,1.4-1.4c0.5,0.1,1,0.2,1.5,0.3C208.2,43.6,207.7,44.8,206.6,45.3z M208.7,42.5
		c0.6,0.6,1.5,0.6,2.3,0.6c-0.5,1-1.6,1.3-2.6,1.5C208.6,43.9,208.8,43.2,208.7,42.5z M207.1,42c-0.1-0.7-0.2-1.4-0.2-2.1
		c1-0.4,2.1-0.5,3.2-0.9C210.3,40.6,208.7,42,207.1,42z M205.8,39.7c0.7-1.2,0.7-2.6,0.4-3.9c0.8-0.1,1.7-0.7,2.3,0.1
		c-0.1,0.9-0.3,1.8-0.7,2.6C207.3,39.2,206.5,39.4,205.8,39.7z M205.3,35.8c0-1.1,0-2.2,0-3.4c0.4,0,1-0.5,1.3,0
		C206.4,33.6,206.1,34.9,205.3,35.8z M205.9,36c0.2,1.9-0.7,3.9-2.6,4.5c0.4-1,0.9-2,0.7-3.1C204.5,36.8,205.1,36.2,205.9,36z
		 M203.6,37.6c-0.2,1-0.6,2.2-1.6,2.7c-0.6,0.2-1.3,0.1-1.9,0.1c0.4-0.7,0.8-1.5,1.2-2.3C201.6,37.2,202.9,37.8,203.6,37.6z
		 M197.5,40.6l0.1,0.5c0.8-0.1,1.5-0.3,2.3-0.5c0.4,0.2,0.7,0.4,1,0.6c-0.8,0.8-1.9,2-3,1.2c-0.2,0.1-0.3,0.2-0.5,0.4
		c0.2,0.1,0.6,0.4,0.8,0.5c-0.2,0.1-0.6,0.2-0.7,0.3c0,0.1,0.1,0.4,0.2,0.6c0.5-0.1,0.9-0.4,1.2-0.7c1-0.3,2,0.2,3.1,0
		c-0.5,0.7-0.8,1.6-1.8,1.7c-0.8,0.2-1.5-0.2-2-0.7c-0.1,0.1-0.3,0.3-0.4,0.4c0.4,0.3,0.8,0.6,1.1,0.9c-0.5-0.1-1.1-0.2-1.5-0.4
		c-0.2,0.1-0.4,0.3-0.5,0.4c0.2,0.1,0.6,0.3,0.8,0.4c-0.4,0.1-0.9,0.2-1.3,0.2c0.3-0.8,0.6-1.6,1.1-2.3c0-0.4,0-0.9,0-1.3
		c0.1-1,0.2-1.9,0-2.9c0.6-0.5,1.1-1,1.2-1.7c0.8,0.1,1.6,0.1,2.3,0.1C200.1,39.5,199,40.4,197.5,40.6z M191.7,35.5
		c0,0.1,0,0.2,0,0.2c-0.9,0.9-2,1.7-3.1,2.4c-0.8,0.5-1.7,0.4-2.6,0.3c1.4-0.9,2.4-2.2,3.3-3.6C190.1,35.1,190.9,35.3,191.7,35.5z
		 M189.6,34.2c0.2-0.4,0.4-0.7,0.6-1.1c0.1,0.5,0.2,0.9,0.3,1.4C190.2,34.3,189.9,34.2,189.6,34.2z M190.8,34.4
		c0.5-0.2,0.9-0.4,1.4-0.6c0,0.4,0,0.8,0,1.3C191.7,34.8,191.3,34.6,190.8,34.4z M192.7,36c0.6,0.2,1.2,0.6,1.7,1.1
		c-1.2,1.4-3.2,1.6-4.9,1.4C190.6,37.7,191.6,36.7,192.7,36z M195.4,30.7c-0.1-0.8-0.4-1.5-1-2.1c0.9-0.4,1.6-1.1,2.2-1.9
		C197.3,28.1,196.8,29.9,195.4,30.7z M196.8,26.3c0.5-0.1,1-0.2,1.5-0.5c0.3-0.4,0.5-0.8,0.8-1.2c0.2,0.8,0.6,1.8,0.2,2.7
		c-0.3,0.7-1,1.1-1.6,1.5C197.6,28,197.4,27.1,196.8,26.3z M197.2,29.9c0.1,0.6,0.4,1.2,0.1,1.7c-0.3,0.9-1,1.4-1.7,1.9
		c0-0.7,0-1.3,0-2h-0.4c-0.2,0.9-0.1,2-1,2.5c-0.3,0.3-1.1,0.4-1,1c0.4,0.1,0.7-0.1,1.1-0.2c0,0.4-0.1,0.7-0.1,1.1
		c-0.5-0.2-1-0.4-1.5-0.5c0.1-0.7,0.1-1.5-0.1-2.2c0.6-0.2,1.3-0.5,1.7-1C195.2,31.3,196.3,30.7,197.2,29.9z M197.1,35.2
		c-0.5,0.7-1.4,0.8-2.1,0.9v0.4c0.5,0,0.9,0,1.4,0c-0.2,0.2-0.4,0.4-0.6,0.7c-0.4-0.3-0.9-0.6-1.3-0.9c0.7-0.4,0.4-1.3,0.4-1.9
		c0.9-0.5,1.8-0.9,2.7-1.4C197.5,33.7,197.7,34.6,197.1,35.2z M195.1,37.5c0.6,0.5,1,1.3,1.3,2c-1.6,0.5-3.5,1-4.9-0.3
		C192.8,39,194,38.3,195.1,37.5z M196.6,40.2c0,0.9,0,1.8,0,2.6c-1.2-0.3-2.3-1-3.1-2C194.5,40.6,195.6,40.4,196.6,40.2z
		 M196.5,43.5c-0.1,0.4-0.3,0.9-0.4,1.3c-0.6-0.6-1-1.3-1.3-2C195.3,43.1,195.9,43.3,196.5,43.5z M195.1,44.9
		c0.2,0.3,0.5,0.5,0.7,0.8c-0.2,0.4-0.3,0.8-0.5,1.2C195,46.2,195,45.5,195.1,44.9z M196,46.9c1.1,0,1.2,1.2,1.2,2.1
		c-0.6-0.3-1.1-0.7-1.6-1.2C195.8,47.5,195.9,47.2,196,46.9z M196.8,37.7c0,0.2,0.1,0.5,0.1,0.6c0.2,0,0.7-0.1,0.9-0.1
		c-0.3,0.4-0.6,0.7-0.9,1.1c-0.1-0.3-0.2-0.6-0.4-1l0.2-0.1c-0.2-0.2-0.4-0.4-0.6-0.6c0.5-0.5,0.9-1.2,1.3-1.8
		c0.5,0,1.1-0.1,1.6-0.1C198.8,36.8,198,37.6,196.8,37.7z M198,35.4c0.2-1,0.1-2-0.3-3c0.7-0.1,1.4-0.1,2.1-0.2
		c0.1,0.7,0.3,1.3,0.3,2C199.5,34.7,198.8,35.1,198,35.4z M200.1,30.8c-0.3,0.9-1.3,1-2,1.3c0.1-0.9-0.1-1.8-0.7-2.6
		c0.7-0.3,1.5-0.7,2.1-1.1C199.8,29.2,200.2,29.9,200.1,30.8z M199.7,27.9c1-0.1,2-0.5,2.7-1.2c0.6,1.7,0,3.6-1.5,4.5
		C200.8,30,200.4,28.9,199.7,27.9z M202.5,26.1c-0.2-0.1-0.3-0.2-0.5-0.3c-0.4,0.7-1.2,1.2-1.9,1.6c0-1-0.1-1.9-0.6-2.7
		c0.3-0.2,0.6-0.4,0.9-0.6c0.9,0.6,1.8,1.2,2.8,1.7C203.1,25.8,202.7,26,202.5,26.1z M199.2,24.1c-0.2-0.2-0.4-0.5-0.6-0.7
		c-0.2,0.6-0.3,1.4-0.8,1.9c-0.3,0.2-0.7,0.4-1.1,0.6c-0.1-0.9-0.3-1.9-0.8-2.7c0.4-0.3,0.9-0.6,1.3-0.9c0.6,0.3,1.2,0.6,1.9,0.7
		c0.2,0.2,0.4,0.4,0.7,0.6C199.6,23.8,199.4,24,199.2,24.1z M194.3,28.2c-0.1-0.6-0.2-1.1-0.2-1.7c0.5-0.9,1.1-1.8,1.6-2.7
		C196.4,25.4,195.9,27.3,194.3,28.2z M193.5,25.3c-0.2,0.2-0.4,0.1-0.6,0.1c0.5-0.4,0.9-1,1.2-1.6c0.5-0.1,1-0.3,1.6-0.4
		C195,24.1,194.3,24.7,193.5,25.3z M191.5,31c-0.3,0.5-0.9,0.8-1.3,1.2c-0.4-0.5-0.8-0.9-1.2-1.3c0.8-0.3,1.3-1,1.5-1.8
		c0.2,0,0.6-0.1,0.7-0.1C191.3,29.7,191.6,30.4,191.5,31z M188.5,30.5c0-0.2,0-0.5,0-0.7c0.4-0.2,0.9-0.3,1.3-0.5
		C189.4,29.8,188.9,30.2,188.5,30.5z M188.6,31.3c0.3,0.4,0.7,0.8,0.8,1.4c0,0.4-0.1,0.8-0.2,1.2c-0.4,0-0.8,0.1-1.2,0.1
		c-0.1-0.4-0.2-0.8-0.4-1.2C188.1,32.4,188.4,31.9,188.6,31.3z M187.3,32.3c-0.3-0.5-0.6-1-0.8-1.5c0.6-0.2,1.1-0.5,1.7-0.7
		C188.1,30.9,187.9,31.7,187.3,32.3z M187.5,34c-0.5,0.2-0.9,0.3-1.4,0.5c0.4-0.4,0.7-0.9,1.1-1.3C187.3,33.5,187.4,33.7,187.5,34z
		 M186.5,32.4c0,0.8-0.6,1.4-1,2c-0.3-1.2-0.2-2.6,0.6-3.6C186.2,31.4,186.4,31.9,186.5,32.4z M185.6,35.2c1-0.2,1.9-0.4,2.9-0.5
		c-0.5,0.8-1.1,1.6-1.7,2.2c-0.8,0.8-1.8,1.1-2.9,1.3C184.5,37.2,185.1,36.2,185.6,35.2z M184.9,35.1c-0.9,1.8-1.9,4-4.1,4.4
		c0.3-1,0.6-2,0.9-3.1C182.7,35.9,183.7,35.2,184.9,35.1z M183.6,34.6c0.2-0.4,0.4-0.8,0.6-1.3c0.3,0.3,0.5,0.6,0.8,1
		C184.5,34.5,184.1,34.5,183.6,34.6z M183,34.7c-0.3-0.1-0.5-0.2-0.7-0.4c0.4-0.4,0.8-0.7,1.2-1C183.3,33.7,183.2,34.2,183,34.7z
		 M182.5,35.3c-0.6,0.4-1.3,0.5-1.9,0c0.4-0.2,0.8-0.4,1.2-0.6C182,34.9,182.3,35.1,182.5,35.3z M181.3,40c0.9-0.3,1.7-1,2.7-1.1
		c1.3-0.4,2.5,0.5,3.7,0.2c1.2-0.2,2.5-0.1,3.5,0.7c1.8,0.8,2.9,2.6,3.4,4.5c-0.4,1.6-0.3,3.3-0.7,5c-0.4,0.8-0.9,1.4-1.5,2
		c-1.5-2.4-3.5-4.3-5.4-6.4c-2-2.1-4.9-3.2-7.8-2.9c-1.2,0.1-2.4,0.2-3.5,0.7c0-0.1,0-0.3,0-0.4c0.7-0.1,1.3-0.5,1.8-1
		C178.9,41.3,180,40.4,181.3,40z M193.5,51.2c0.1,0.1,0.4,0.3,0.6,0.4c0.2,0,0.6-0.1,0.8-0.1c-0.2,0.3-0.5,0.6-0.7,1
		c-0.4-0.2-0.7-0.4-1.1-0.6C193.2,51.6,193.3,51.4,193.5,51.2z M195.1,52.3c0.8,0.5,1.6,0.7,2.5,0.8c-0.6-0.5-1.1-0.7-1.8-1.2
		c-0.4-0.5-0.6-1.1-0.9-1.6l-0.1,0.8c-0.3-0.1-0.6-0.2-0.9-0.3c0.3-0.5,0.6-0.9,0.8-1.4c0.1,0.2,0.2,0.5,0.3,0.7
		c1,0.3,2,0.8,2.8,1.5c0,0.7,0,1.5,0.5,2.1c-0.1-0.1-0.4-0.3-0.5-0.4c-1.1,0.1-2-0.5-3-0.8C194.9,52.4,195,52.3,195.1,52.3z
		 M197,49.5c-0.2,0.2-0.4,0.4-0.6,0.6c-0.5-0.4-0.9-0.8-1.4-1.2c0.1-0.2,0.3-0.4,0.4-0.6c0.3,0.3,0.7,0.7,1,1c0.4,0,0.7,0,1.1,0
		c0.5,0.3,0.9,0.7,1.4,0.9c0,0.2,0,0.6,0.1,0.8C198,51.1,197.1,50.5,197,49.5z M199.1,51.5c0.4,0.3,0.8,0.6,1.3,0.9
		c0,0.4,0.1,0.8,0.1,1.1c-0.5,0.1-0.9,0.1-1.4,0.2c-0.3-0.7-0.5-1.4-0.7-2.1C198.6,51.6,198.8,51.5,199.1,51.5z M202.6,54.2
		c-0.3,0.3-0.7,0.6-1,0.8c-0.5-0.3-1.1-0.5-1.7-0.7C200.8,54.1,201.7,54.2,202.6,54.2z M201.1,53.4c0-0.3,0-0.5,0-0.8
		c0.5-0.3,1-0.6,1.6-0.9c0.4,0.7,0.8,1.3,1.3,2C203,53.6,202,53.5,201.1,53.4z M207.1,60.1c-0.2,0.6-0.3,1.2-0.4,1.7
		c-0.4-0.8-0.8-1.7-1.3-2.5C206,59.6,206.5,59.8,207.1,60.1z M205.8,58.5c-0.1-0.6,0-1.1,0-1.7c0.9,0.1,1.7,0.1,2.6,0
		c-0.4,1-0.4,2.1-0.2,3.1C207.4,59.5,206.4,59.3,205.8,58.5z M211.3,56c-0.4,1.5-1.4,2.7-2.3,3.9c-0.5-1-0.2-2.1,0-3.2
		C209.7,56.5,210.5,56.2,211.3,56z M210,52.4c0.1-1.6,0-3.3,0.9-4.7c0.4,0.4,1.1,0.8,1.2,1.4C211.8,50.4,210.8,51.4,210,52.4z
		 M210.6,46.8c-0.6,0.5-0.7,1.3-1.1,2c-0.7,0.2-1.4-0.2-2-0.4c1-0.2,1.9-0.7,2.5-1.5c0.3-0.4,1.2-0.1,1.1-0.7
		c-1.2-0.2-2.3-0.4-3.3-1.1c1.2,0,2.4-0.1,3.3-0.9c0.2,0.1,0.4,0.2,0.6,0.3c-0.1,1.2-0.1,2.5,0.6,3.5
		C211.8,47.6,211.3,47.1,210.6,46.8z M213.7,49.2c-0.8-1.1-1.5-2.4-1.5-3.8c0-0.6,0.9-0.2,0.9,0.3C213.3,46.8,213.8,48,213.7,49.2z
		 M215.1,44.4c-0.6-0.3-1.2-0.5-1.8-0.8c-0.3-0.7-0.3-1.5-0.5-2.3C213.7,42.2,214.6,43.2,215.1,44.4z M214.4,40.6
		c-0.6-0.3-1.3-0.5-1.9-0.8c-0.3-0.9-0.5-1.9-0.7-2.9C213.3,37.7,213.8,39.2,214.4,40.6z M212.9,35.9c-0.4,0-0.8-0.1-1.3-0.1
		c-0.2-0.5-0.3-1-0.5-1.5C211.7,34.8,212.2,35.4,212.9,35.9z M210.8,35.5c0,0.5,0.1,1,0.1,1.5c0.1,0.2,0.2,0.4,0.4,0.6
		c0.1,0.5,0.2,1,0.4,1.6c-0.4-0.2-0.7-0.4-1.1-0.6c0.4-0.4,0.2-0.7-0.1-1.1c-0.5,0.7-1.3,1.1-2,1.5c0.3-1,0.5-2,0.5-3
		C209.6,35.8,210.2,35.6,210.8,35.5z M210.5,35c-0.7,0.1-1.4,0.2-2.1,0.3c0.6-0.8,1-1.7,1.2-2.7C209.9,33.4,210.2,34.2,210.5,35z
		 M208.3,34.1c-0.5,0.5-1.1,0.9-1.7,1.3c0.3-1,0.4-1.9,0.4-2.9c0.7-0.1,1.4-0.3,2-0.6C208.9,32.6,208.8,33.4,208.3,34.1z
		 M208.6,27.7c-0.4,0.1-0.9,0.2-1.3,0.3c-0.6-0.5-1.1-1-1.7-1.5C206.6,26.8,207.7,27.1,208.6,27.7z M206,27.8
		c-0.2,0.3-0.4,0.4-0.7,0.2c0-0.2,0-0.5,0-0.7C205.6,27.1,206.1,27.5,206,27.8z M206.4,28.3c0.3,0.2,0.6,0.4,0.9,0.6
		c0.6,0.7,1.1,1.5,1.6,2.3c-0.8,0.3-1.6,0.5-2.5,0.6c0.4-0.8,0.6-1.6,0.7-2.5c-0.2-0.2-0.4-0.4-0.6-0.5c-0.1,1.2-0.4,2.4-1.3,3.2
		c-0.1-1-0.1-2-0.3-2.9C205.5,28.9,205.9,28.6,206.4,28.3z M204.9,26.8c-0.1,0.7-0.2,1.3-0.5,1.9c-0.2,0.6-0.9,0.8-1.4,1.1
		c0.2,0.2,0.4,0.3,0.5,0.5c0.4-0.2,0.7-0.4,1.1-0.6c-0.1,1,0.2,2-0.3,2.9c-0.4,0.3-0.8,0.6-1.2,0.8c0.1-0.9,0.4-2.1-0.4-2.7
		c-0.3,0.6,0,1.2-0.2,1.8c-0.3,0.8-1,1.4-1.7,1.8c0.2,0.1,0.3,0.3,0.5,0.4c0.2-0.1,0.7-0.4,0.9-0.5c-0.1,0.8-0.1,1.7-0.6,2.4
		c-0.7,0.7-1.8,0.8-2.7,0.9c0.4-0.7,0.6-1.5,0.8-2.4c0.4-0.1,0.7-0.3,1.1-0.4c0.2-1.1-0.1-2.1-0.6-3.1c0.2-0.3,0.7-0.3,1-0.4
		c0.7-0.2,1.2-0.9,1.9-1.1c0-0.2,0-0.5,0-0.7c0.5-1,0.2-2.1-0.2-3c0.4-0.2,0.7-0.4,1.1-0.6C204.2,26.3,204.6,26.6,204.9,26.8z
		 M205.3,24.2c-0.5,0.4-1,0.7-1.5,1.1c-0.9-0.5-1.8-1.1-2.6-1.7C202.6,23.6,204,23.8,205.3,24.2z M201.2,22.1
		c-0.3,0.3-0.5,0.7-0.8,1c-0.6-0.3-1.3-0.6-1.9-0.9c0-0.1,0-0.2,0-0.3C199.3,22.1,200.3,22.2,201.2,22.1z M187.5,20.4
		c0-1.1,0.7-2,1.6-2.6c2.2-1.5,4.5-2.8,7-3.5c-0.1-0.5-0.3-1.1-0.3-1.6c0.3-0.6,0.8-0.9,1.4-1.1c1.1-0.4,1.7-1.6,2.8-2.1
		c1-0.6,2.2-0.7,3.3-1c1.6-0.5,3.1-1.3,4.6-1.8c-1.8,1.5-4.2,2.1-6.2,3.2c-1.5,0.7-3.2,1.6-3.4,3.4c0.7,0.5,1.5,0.3,2.2,0
		c-1.2,1.3-3.2,1.4-4.8,1.8c-1.6,0.2-3,1.1-4.4,1.9c-0.8,0.5-1.3,1.3-1.6,2.1c-0.2,0.8,0,1.9,0.8,2.2c1.2,0.3,2.6-0.1,3.5-0.9
		c0.7-0.7,1.5-1.4,2.2-2c0.2,0.4,0.3,0.7,0.6,1c0.7,0.1,1.2-0.4,1.7-0.9c0.7-0.9,0.9-2.2,1.9-3c1.3-1.1,2.8-2,4.2-3
		c0.3-0.2,1.2-0.6,1.2-1.1c0.2,0,1.3-0.5,2.2-0.8c-2.7,1.2-6.5,4.7-7.9,7.1c-1.2,2.1-3.1,4-5.5,4.8c-1,0.1-2,0.4-2.9,0.8
		c-0.9,0.3-1.8-0.1-2.7-0.5c-1.1,0.7-2.4,1.4-3.7,1.6c-1.6,0.2-3.3,0-4.8,0.6c-0.9,0.5-1.5,1.4-1.8,2.4c-0.8,0.5-1.7,0.9-2.6,1.2
		c-0.3,0.9-0.7,2,0,2.9c1.1,1,2.6,0.5,3.8,0.1c0.4,0.3,0.8,0.6,1.3,0.5c1.2-0.2,2-1.2,2.9-1.9c1.6-1.1,3.5-1.6,5.3-2.3
		c1.1-0.5,2.3-0.8,3-1.9c-0.2,0-0.6,0-0.8,0c-0.4,0.2-0.8,0.5-1.2,0.7c-0.4-0.5-0.8-0.9-1.3-1.1c0.4-0.4,0.8-0.9,1-1.5
		c0.6,0,1.1-0.1,1.7-0.1c-0.1,0.6-0.1,1.2-0.2,1.8c0.2,0,0.7,0,0.9,0.1l-0.2-0.7c0.2,0.1,0.3,0.4,0.3,0.7c0.2,0,0.4,0,0.7,0.1
		l-0.6,0.1c-0.1,0.9-0.9,1.4-1.7,1.7c-1.9,0.7-3.8,1.3-5.5,2.3c-1.4,0.8-2.4,2.2-3.6,3.2c-1,0.7-2,1.2-3.2,1.6
		c-1.3,0.4-2.7,0-3.7-0.9c-1.2,0.8-2.7,1.2-4,1.7c0-0.5,0-0.9,0-1.3c0.8-0.3,1.7-0.6,2.3-1.3c0.4-1.1-0.5-2-1.2-2.9
		c0.4-1.2,1.2-2.4,2.5-2.7c0.9-0.4,2.1-0.4,2.6-1.3c0.3-0.5,0.6-1.1,1.2-1.4c2.9-1.1,6.4-0.4,9-2.2C187.8,22,187.4,21.2,187.5,20.4z
		 M178.5,31.8c-0.3,0-0.6-0.1-0.9-0.1c0.1-0.5,0.1-0.9,0.2-1.4c0.4-0.4,0.5-1,0.6-1.5c0.3-0.2,0.6-0.3,0.9-0.5
		c0.4,0.8,0.7,1.6,0.7,2.4c0.2,0,0.5,0,0.7-0.1l-0.1-0.7c0.7,0.4,0.9,1.2,1.1,1.9c-0.6-0.1-1.3-0.4-1.9-0.7
		c-0.7,0.5-1.2-0.1-1.5-0.7c-0.2,0.2-0.3,0.3-0.5,0.5C178.2,31.3,178.3,31.6,178.5,31.8z M176.7,29.7c0.4-0.2,0.8-0.7,1.2-0.5
		c-0.2,0.3-0.4,0.7-0.6,1C177.1,30,176.9,29.8,176.7,29.7z M176.9,31.6c-0.4-0.1-0.5-0.7-0.3-1.1C177.2,30.3,177.5,31.5,176.9,31.6z
		 M180.6,29c-0.4-0.4-0.7-0.8-1.1-1.2c0.5-0.8,1-2.2,2.3-1.9c-0.3,0.2-0.6,0.4-1,0.7C181.1,27.4,180.9,28.3,180.6,29z M180.7,29.5
		c0.6-0.7,1.4-1.7,0.7-2.6c0.1,0,0.4-0.1,0.5-0.1c0.2-0.3,0.3-0.7,0.5-1c0.7,0,1.4-0.1,2-0.1c0,1-0.3,2-1.1,2.7
		c-0.3-0.5-0.7-0.9-1-1.4c-0.1,0.1-0.3,0.3-0.4,0.4c0.8,0.9,1.1,2.2,0.4,3.3C181.8,30.2,181.3,29.8,180.7,29.5z M183.5,28.9
		c0.3,0.3,0.6,0.5,0.9,0.8c-0.8,0.5-1.4,1.4-2.4,1.7C182.7,30.7,183.5,30,183.5,28.9z M184,28.5c0.5-0.5,0.9-1.1,1.1-1.8
		c0.6,0.5,1.1,1.2,1.5,1.9c-0.5,0.3-1.1,0.6-1.6,0.8C184.7,29.1,184.4,28.8,184,28.5z M184.8,25.7c1.1-0.3,2.2-0.5,3.2-0.9
		c0,0.5,0.1,1.1,0,1.6c-0.2,0.5-0.7,0.8-1.1,1.2C186.4,26.8,185.5,26.3,184.8,25.7z M188.8,26.5c0.5,0.3,0.9,0.6,1.3,1
		c-1.1,0.4-2.2,0.8-3.3,1.1C187.2,27.6,188.5,27.5,188.8,26.5z M188.8,25.6c-0.1-0.4-0.3-0.8-0.4-1.2c0.4-0.1,1.2-0.8,1.4-0.1
		C189.5,24.8,189.1,25.2,188.8,25.6z M169.7,32.6c0.2,0.8,0.4,1.6,0.4,2.4c-0.4-1.4-0.8-2.8-1.5-4c0.3-0.3,0.7-0.5,1-0.1
		c1,0.7,0.5,2.5,1.8,2.7c-0.3,0.2-0.6,0.6-0.7-0.1c-0.1,0-0.4,0-0.5,0C170.3,33.2,170.1,32.8,169.7,32.6z M173.2,27.7
		c-0.3,0.4-0.6,0.8-0.9,1.2c-0.4-0.4-1-0.5-1.5-0.6c0.3-0.4,0.6-0.9,0.9-1.3C172.2,27.2,172.7,27.5,173.2,27.7z M172,26.5
		c0.4-0.9,1.3-1.3,2.2-1.4c0.1,0.7,0.3,1.4,0.5,2c-0.3,0.1-0.6,0.2-0.8,0.3C173.2,27,172.6,26.7,172,26.5z M170.8,30.7
		c0.8,0.2,0.3-1.3,0.3-1.8c0.2,0.2,0.5,0.3,0.7,0.5c-0.1,0.5-0.2,1-0.1,1.5c-0.1,0-0.4,0.1-0.5,0.2c0,0.1,0,0.3,0,0.5
		c0.4,0.1,0.9,0.1,1.3,0.2c0.3,0.6,0.4,1.3-0.3,1.7c-0.4-0.2-0.8-0.4-1.1-0.7c-0.1-0.3-0.3-0.6-0.5-0.8c0.1-0.3,0.1-0.5,0-0.7
		c-0.3-0.6-0.9-0.7-1.4-1c0.3-0.6,0.7-1.1,1.1-1.7C170.5,29.3,170.6,30,170.8,30.7z M175.1,26.9c0.4-0.7,0.8-1.3,1.1-2.1
		c0.6-0.1,1.1-0.2,1.7-0.3c-0.3,0.6-0.7,1.2-1.1,1.7S175.6,26.7,175.1,26.9z M186.7,20.7c0,0.7,0.6,1.9-0.5,2.1
		c-0.5-0.9-1.3-1.4-2.4-1.5c0-0.1-0.1-0.4-0.2-0.6C184.7,20.7,185.7,20.7,186.7,20.7z M184,21.8c0.7,0.3,1.3,0.6,1.8,1.2
		c-0.8,0.2-1.6,0.3-2.4,0.4C183.5,22.9,183.8,22.4,184,21.8z M183.2,20.9c0,0.9-0.2,1.8-0.7,2.6c-1.5,0-2.8,0.5-4.2,0.7
		c0.8-0.5,1.6-0.9,2.4-1.5c0.1,0.2,0.3,0.5,0.5,0.7c0.2-0.2,0.4-0.4,0.5-0.6c-0.2-0.2-0.5-0.5-0.7-0.6c0.3-0.4,0.6-0.9,1-1.2
		C182.4,21,182.8,21,183.2,20.9z M191.1,9.9c0,0.1,0.1,0.3,0.1,0.4c-0.4,0.2-0.7,0.4-1,0.7c-1.6,1.5-3.4,3-5.5,3.6
		c-0.4,0.3-0.7,0-1-0.2C186.6,13.9,188.8,11.7,191.1,9.9z M175.7,19.8c0.2-0.6,0.8-1,1.3-1.4c0.1-0.8,0.1-1.7,0.8-2.2
		c1.6-1.3,3.8-1.4,5.8-1.6c0,0.1,0,0.3,0,0.4c-1.5,0-3,0.6-4.2,1.5c-0.5,0.3-0.1,0.9,0.2,1.1c0.5,0.1,1.1,0,1.6-0.1
		c-0.2,0.4-0.4,0.7-0.6,1.1c-1,0.5-2.3,0.4-3.1,1.3c-0.5,0.6-0.1,1.2,0.2,1.8c2.7-0.3,4.1-2.9,6-4.5c0.7-0.7,1.8-0.9,2.8-1.2
		c-1.8,1-3.5,2.2-4.7,3.9c-0.7,0.9-1.1,2.1-2.1,2.7c-1.4,0.8-2.9,1.4-4.5,1.5c-1.1,0.2-2.6,0.2-3.3,1.2c-0.7,0.9-1.1,2-2,2.7
		c-0.9,0.8-1.4,2-2,3c0.6,1,0.9,2.2,0.8,3.4c-0.3-0.9-0.4-1.9-0.9-2.7c-0.1,0.9-0.2,1.8-0.6,2.7c-0.3-0.2-0.5-0.5-0.8-0.7
		c1.5-1.7,1.7-4.1,1.4-6.2c1.4-0.7,2-2.2,3.1-3.1c1.2-0.6,2.6-0.9,3.6-1.9C175.3,21.9,175.3,20.7,175.7,19.8z M180.6,19.4
		c-0.8,0.7-1.6,1.4-2.6,1.6c-0.2-0.4,0-0.9,0.4-1C179.2,19.8,179.9,19.6,180.6,19.4z M174.2,18.3c0.2,0.7,0.1,1.4,0.1,2.1
		c-0.3-0.4-0.7-0.9-0.9-1.3C173.6,18.7,173.7,18.1,174.2,18.3z M169.4,15.3c0.7,0.4,1.3,1.1,1.7,1.8c-0.6-0.4-1.2-0.8-1.8-1.2
		C169.3,15.9,169.4,15.5,169.4,15.3z M170.6,17.9c-0.7,0.6-1.6,1.1-2.4,1.5c0.5-0.8,1.2-1.4,1.5-2.3C170,17.3,170.3,17.6,170.6,17.9
		z M164.6,16.4c0-0.4,0.1-0.7,0.1-1.1c0.5,0.4,1.1,0.7,1.6,1.2C165.7,16.5,165.1,16.4,164.6,16.4z M165.8,20.9
		c-0.2-1.3,0.5-2.4,1-3.5c0.2,0.2,0.5,0.3,0.8,0.5c-0.6-1.2,0-3.2,1.5-3.3c-0.2,0.6-0.3,1.2-0.4,1.8c0.2,0.1,0.6,0.3,0.8,0.4
		c-0.6,0.9-1.8,1.5-1.7,2.8c0.1,1.2,0.7,2.3,0.8,3.5c0.9-0.8,0.3-2-0.1-3c1-0.4,1.9-1.1,2.9-1.6c0.2,0.5,0.3,1,0.6,1.5
		c0.1-0.7,0-1.4,0.2-2c0.5-0.2,1-0.3,1.5-0.4c-0.4,0.5-0.7,0.9-1.1,1.4c0.7,1,1.5,1.8,1.8,3c-0.9,0.7-2,1.3-3.1,1.6
		c-0.7,0.2-1.2,0.8-1.7,1.3c0.1-0.5,0.1-1,0.5-1.3c0.6-0.6,0.9-1.4,1.2-2.2c0.7-0.3,1.4-0.6,1.9-1.3c-0.2,0-0.6,0-0.8,0
		c-0.6,0.3-1.2,0.5-1.7,0.9c-0.3,1-0.8,1.9-1.5,2.6c-0.1,1.1-0.9,2-1.7,2.6c-0.5-0.9,0-2-0.2-3C167,22.4,166.4,21.6,165.8,20.9z
		 M165,28.4c0.7-1.2,0.5-2.7,0.5-4c2,2.4,2.6,6.4,0.5,8.9c-1-0.4-2.1-0.2-3.1,0.2c-0.2-0.8-0.6-1.5-0.9-2.3
		C163.2,30.6,164.4,29.7,165,28.4z M158.3,29.4c0.3,0.1,0.6,0.3,0.9,0.4c0.5,1.2,2,2.1,1.6,3.7c-0.4-0.8-0.6-1.7-1.3-2.3
		C159.1,30.6,158.4,30.2,158.3,29.4z M159.6,33.7c-0.1,0.1-0.2,0.3-0.3,0.4c-0.1-0.5-0.4-1.1-0.1-1.7
		C159.3,32.9,159.4,33.3,159.6,33.7z M157.8,29.4c-0.6-0.3-1.2-0.5-1.7-0.8c0.2-0.3,0.4-0.7,0.6-1.1c-0.1-0.8-0.4-1.6-0.6-2.4
		c0.7,1,1.6,2.1,1.8,3.4c-0.4-0.2-0.7-0.5-1.1-0.7C157,28.4,157.4,28.9,157.8,29.4z M156.1,30.8c-0.6-0.3-1.2-0.7-1.6-1.3
		C155.1,29.8,155.9,30,156.1,30.8z M153,27.5c0.5,0.3,1,0.7,1.5,1.2C153.9,28.5,153.4,28.1,153,27.5z M158.4,25.2
		c-1.1-1.1-1.9-2.4-2.4-3.8c-0.2-1.1,0.9-1.7,1.7-2.1c0.1,1.2,0.3,2.4,0.3,3.6c-0.5-0.5-1-1-1.4-1.5C157,22.7,157.9,23.9,158.4,25.2
		z M156.9,33.1c-0.7-0.3-1.1-0.9-1.4-1.5C156.1,31.9,156.5,32.5,156.9,33.1z M156.5,24.8c-0.3-0.4-0.1-0.9-0.1-1.3
		c0.5,1.3,1.4,2.5,2.2,3.6C157.7,26.5,157.1,25.7,156.5,24.8z M159.7,30.1c1.4,0.6,2.3,2,2.5,3.5c-0.3-0.1-0.7-0.1-0.7-0.5
		C161.3,31.9,160.5,31,159.7,30.1z M163.3,29.5c-0.6,0.5-1.2,1-2,1.1c-0.6-0.3-1.2-0.7-1.8-1c-0.4-3.3-0.8-6.7-1.1-10
		c-0.1-0.8-0.1-1.7,0.1-2.5c0.4,0.5,0.8,1,1,1.6C160.8,22.2,162,25.9,163.3,29.5z M155.6,16.7c-0.2-0.6-1.1-1.4-0.5-2
		c1.5-1.4,3.6-1.4,5.4-2.2c-1,0.6-2,1-3,1.5c-0.6,0.3-0.9,1-0.6,1.6c1.8-0.6,3.7-1.2,5-2.7c1.1-1.2,2.7-1.7,4.2-1.9
		c-0.4,0.6-1.1,0.4-1.7,0.6c-0.9,0.3-1.6,0.9-2.3,1.6c-1.1,1.1-1.4,2.9-2.6,3.9c-0.5-0.3-1.1-1.1-1.6-0.5c-0.3,0.5-0.3,1.2-0.4,1.7
		c-1.1,0.6-2.4,1.3-2.4,2.8c0.4,0.4,0.4,1,0.3,1.5c-0.6-1.1-1-2.3-1.6-3.4C154.3,18.3,155.2,17.6,155.6,16.7z M153.8,20.5
		c0.5,0.9,0.9,1.8,1.2,2.7c-0.4,0.1-0.9,0.2-1.3,0.4C153.8,22.5,153.8,21.5,153.8,20.5z M155.6,26c-0.3,0-0.7,0-1,0
		c0.1-0.4,0.3-0.9,0.4-1.3C155.2,25.1,155.4,25.5,155.6,26z M154.4,26.7c0.5,0,1,0,1.6,0c0.1,0.7-0.2,1.3-0.7,1.7
		c-0.2-0.4-0.4-0.8-0.6-1.3c-0.2,0.2-0.4,0.5-0.5,0.7c-0.1-0.1-0.2-0.2-0.3-0.3C154,27.2,154.2,26.9,154.4,26.7z M153.4,27.1
		c-0.3-0.5-0.7-1-1-1.4c-0.2,0.2-0.4,0.4-0.6,0.6c0.3,0.3,0.6,0.6,1,0.9c-0.2-0.1-0.6-0.2-0.9-0.2c0.1,0.2,0.4,0.7,0.6,1
		c-0.3-0.2-0.5-0.4-0.8-0.6c-0.5,0-1,0-1.5-0.1c-0.4-0.5-0.7-1-0.7-1.7c0.4,0.5,0.8,1,1.3,1.4c0.5,0.2,0.6-0.3,0.9-0.8
		c0.1-0.3,0.2-0.4,0.2-0.7c0.5-0.2,1-0.4,1.5-0.6C153.6,25.5,154,26.4,153.4,27.1z M149.2,30.5c-1.1-0.5-1.9-1.3-2.6-2.2
		c0.5,0.2,1.2,0.3,1.5,0.9c0.1-0.2,0.3-0.3,0.4-0.5c-0.4-0.3-0.9-0.7-1.3-1c0.3-0.2,0.6-0.4,0.8-0.6c0.4,1.1,1.2,2.1,2,2.9
		c-0.3-0.2-0.6-0.3-0.9-0.5c-0.2,0-0.5,0-0.7,0C148.6,29.9,148.9,30.2,149.2,30.5z M144.8,26.8c0.3,0.3,0.5,0.7,0.7,1.1
		c-0.3-0.1-0.6-0.2-0.9-0.4c0.1,0.1,0.3,0.4,0.4,0.5c-0.4,0.4-0.8,0.7-1.2,1.1c-0.4-0.3-0.7-0.5-1.1-0.8c-0.1,0-0.4,0-0.5,0
		c-0.4-0.8-1.3-1.2-1.9-1.9c0.5,0,0.9,0,1.4-0.1c0.4,0.6,0.7,1.3,1,1.9C142.5,27.1,143.9,26.9,144.8,26.8z M147.7,23.6
		c0,0.2,0,0.6,0,0.8c-0.6,0.5-1.3,0.1-1.9,0c0-0.5,0-1,0-1.5c0.9,0.1,1.7,0.2,2.5,0.4c0.1,0.4,0.2,0.8,0.3,1.2
		C148.2,24.2,148,23.9,147.7,23.6z M148.4,26.4c-0.3,0-0.5-0.1-0.8-0.1c-0.1-0.4-0.3-0.8-0.4-1.2c0.3,0,0.9-0.2,1,0.2
		S148.3,26,148.4,26.4z M146.1,25.2c0.6,0.3,0.9,0.9,1.2,1.5c-0.2,0.3-0.4,0.7-0.7,1c-0.6-0.9-1.5-1.9-2.7-1.5c0-0.2,0-0.6,0-0.9
		C144.7,25.2,145.5,24.9,146.1,25.2z M146.3,29c-0.4,0.1-0.6-0.1-0.5-0.5C146.2,28.4,146.3,28.6,146.3,29z M145.3,28.8
		c0.8,0.9,1.5,1.9,2.3,2.8c-1.3-0.5-2.4-1.3-3.5-2.2C144.5,29.2,144.9,28.8,145.3,28.8z M148.8,23.9c0.6,0.1,1.3-0.4,1.7,0.2
		c0.8,0.6,0.6,1.6,0.2,2.4C150,25.7,149.2,24.9,148.8,23.9z M153.2,22.8c0,0.1-0.1,0.4-0.1,0.6l-0.2-0.4c-0.1,0.2-0.3,0.1-0.4,0.3
		c0.2,0.6,0.1,1.1-0.4,1.4c-0.5-0.4-0.9-0.9-1.4-1.3c0.1-0.5,0.2-1,0.2-1.6C151.3,22.8,152.3,22.8,153.2,22.8z M152.9,22.2
		c-0.4,0-0.8-0.1-1.1-0.1c-0.1-0.8-0.1-1.6-0.1-2.3C152.3,20.4,152.7,21.3,152.9,22.2z M151.2,21.3c-0.5,0-0.9,0-1.4-0.1
		c-0.5-0.5-0.8-1.1-1.1-1.7C149.7,19.8,150.6,20.4,151.2,21.3z M146,22c1.4-0.1,2.9-0.1,4.3,0c0.1,0.9-0.6,1.3-1.3,1.6
		c-0.4-0.4-0.7-1.1-1.3-1.2c-0.9-0.1-1.9,0.1-2.8,0C145.2,22.2,145.6,22,146,22z M144.3,22.3c0.6,0.6,0.9,1.3,0.9,2.1
		c-0.4,0.1-0.8,0.3-1.1,0.4c-0.5-0.6-1.1-1-1.8-1.2C142.9,23.1,143.6,22.6,144.3,22.3z M142,24.2c1.2,0,2.1,1.8,1.2,2.6
		c-0.5-0.4-1-1.1-1.7-0.9c-0.4,0-0.8,0.1-1.2,0.2C140.6,25.3,141.1,24.5,142,24.2z M136.6,23.8c-0.4-0.8-0.3-1.7,0.2-2.5
		c0.7-1,1.4-2,2.5-2.6c1.6-0.9,3.4-1.6,5.2-1.9c3.4-0.7,5.9-3.3,8.6-5.3c1.5-1.5,3.5-2.2,5.5-2.9c0.7-0.3,1.5-0.4,2.1-0.9
		c0.4-0.1,0.8-0.1,1.2,0c-0.5,0.6-1.4,0.5-2.1,0.8c-1.6,0.8-3.3,1.3-4.8,2.3c-1.6,1.1-3,2.4-4.2,3.9c-1,1.3-2.6,1.9-4,2.8
		s-3.1,0.6-4.6,0.9c-1.1,0.3-2.4,1-2.6,2.3c-0.1,1.2,1,2,1.6,2.9c-0.7,0.6-1.3,1.2-1.7,2C138.7,24.8,137.1,25,136.6,23.8z
		 M137.5,25.3c0.8,0.2,1.5,0.6,2.1,1.3c1.4,1.6,3.3,2.7,4.9,3.9c1.2,0.9,2.6,1.5,3.8,2.3c0.9,0.6,1.6,1.4,2.3,2.2
		c-0.4,0.6-0.7,1.2-0.5,1.9s-0.2,1.4-0.6,1.9c-1.7-0.2-3.5-0.2-5.2-0.3c-1.6-0.1-2.9-0.9-4.4-1.2c2,1.7,4.8,2.2,7.3,2
		c0.7-0.1,1,0.3,1.6,0.7l0.2-0.1c0.4,0,0.8,0.1,1.2,0.2c-0.2,0.3-0.5,0.3-0.8,0.2c-1.3-0.4-2.6-0.4-3.9-0.8
		c-1.9,0.1-3.8-0.6-5.5-1.4c-0.5-0.4-0.5-1.2-0.7-1.7c1.2,0.3,2.1,1.1,3.3,1.4c1.2,0.4,2.7,0,3.9,0.4c0.2-0.1,0.3-0.3,0.4-0.5
		c-2.1-1.8-3.2-4-5.2-5.8c-0.9-0.8-1.6-1.7-2.2-2.6C138.6,28.1,137.6,26.9,137.5,25.3z M150.2,49.7c0.1,0.5,0.2,0.9,0.3,1.4
		c-0.4-0.2-0.9-0.3-1.3-0.5C149.6,50.3,149.9,50,150.2,49.7z M148.9,50c0-0.8,0-1.5,0-2.3c0.5,0.1,1,0.2,1.4,0.2
		C150.1,48.8,149.5,49.5,148.9,50z M148.3,46.3c0.8,0.1,1.7,0.2,2,1C149.6,47.2,148.9,46.9,148.3,46.3z M136,41
		c2,0.8,4.1,0.4,6.1,0.3c0.2,0.5,0.5,1,0.4,1.5c-2.2,0.4-4.6,0.4-6.8-0.5C135.9,41.9,135.9,41.4,136,41z M135.8,38.5
		c1.3,0.2,2.7,0.6,4,0.7c0.4,0.5,0.9,1,1.4,1.5c-1.7,0-3.5,0.3-5.1-0.5C136,39.6,135.9,39.1,135.8,38.5z M142.3,40.4
		c-0.9-0.2-1.4-1-2.1-1.6l0.2-0.2c1.5,0.9,3.2,1.6,5,1.6c1,0,2,0.7,3,0.3c-0.2,0.8-1,0.2-1.5,0.1C145.4,40.3,143.8,40.7,142.3,40.4z
		 M149.1,42.3c-0.8,0.1-1.7,0.2-2.6,0c-0.8-0.3-1.5-0.7-2.3-0.9c0.6,0.7,1.4,1.3,2.3,1.6c1,0.3,2.1,0.3,3.2,0.4
		c-1.1,0.1-2.2,0.3-3.3,0c-1-0.3-1.9-0.7-2.8-1.1c1.3,1.2,3,2.2,4.8,2c0.4-0.1,0.7,0.2,1,0.4c-2.1,0.3-4.1-0.6-6-1.3
		c-0.1-0.8-0.2-1.6-0.4-2.4C145,41,147.2,41.4,149.1,42.3z M144.9,44.5c0.1,0.5-0.1,0.9-0.1,1.4c-0.6-0.7-1.1-1.5-1.4-2.4
		C143.9,43.9,144.5,44.1,144.9,44.5z M145.7,44.9c1.2,0.4,2.4,0.5,3.6,0.7c-1.2,0-2.3,0-3.5,0c0.3,0.1,0.8,0.4,1.1,0.6
		c-0.5,0.5-1.3,0.7-2,0.8C145.3,46.3,145.6,45.6,145.7,44.9z M146.7,47.2c-0.1,0.3-0.2,0.7-0.4,1.1c-0.3-0.2-0.6-0.5-0.8-0.7
		C145.9,47.4,146.3,47.3,146.7,47.2z M148.2,48.6c0,0.4,0,0.8,0,1.3c-0.5-0.4-1-0.7-1.6-1C147.2,48.8,147.7,48.7,148.2,48.6z
		 M147.3,48.2c0.1-0.7,0.1-1.3,0.2-2c0.4,0.4,0.7,0.8,1.1,1.3C148.1,47.7,147.7,48,147.3,48.2z M139,36.2c-1.1,0-2-0.7-2.9-1.3
		c-0.4-0.6-0.1-1.3,0-1.9c1,0.7,2.1,1.4,3.3,1.8c-0.1,0.2-0.3,0.5-0.3,0.7c-0.5-0.3-1-0.7-1.5-1C138.1,35.1,138.6,35.6,139,36.2z
		 M140.2,34.9c0.8-0.4,1.5-0.8,2.3-1.3c0.2,0.3,0.3,0.6,0.5,0.9C142.2,35.3,141.1,35,140.2,34.9z M143.4,35.1
		c0.2,0.4,0.4,0.8,0.7,1.1c-0.9,0-1.8-0.2-2.7-0.4C142.1,35.7,142.8,35.6,143.4,35.1z M141.8,33.2c-1.3-0.3-2.3-1.3-3.2-2.3
		c-0.5-0.5-0.4-1.3-0.4-1.9C139.4,30.4,140.4,31.9,141.8,33.2z M140.7,33.6c0.4,0.4-0.5,0.4-0.7,0.5c-1.3,0-2.5-0.8-3.3-1.7
		c-0.2-0.8,0.3-1.5,0.9-2C138.2,31.7,139.4,32.7,140.7,33.6z M134.8,37.2c-0.4,0.1-0.9,0.2-1.3,0.4c-0.5,0.4-0.8,1.1-1.2,1.6
		c-0.3,0.2-0.7-0.1-1.1-0.2c0-0.7-0.1-1.5-0.2-2.2c-0.3-0.4-1-0.7-0.8-1.3c0.6-2.4,2.9-3.5,4.9-4.5c0.6-0.4,1.5-0.6,1.7-1.4
		c0.3-0.1,0.6-0.1,0.9-0.1c-0.5,0.4-1,0.7-1.4,1.2c-0.3,0.6-0.3,1.2-0.5,1.8c-1.1,0.5-2.4,0.7-3.1,1.7c-0.2,0.5-0.3,1.3,0.3,1.6
		c0.9-0.2,1.7-0.7,2.5-1.1C135,35.5,134.8,36.4,134.8,37.2z M135.4,33.5c-0.5,0.9-1.4,1.3-2.4,1.6C133.4,34.1,134.5,33.8,135.4,33.5
		z M135.7,35.5c0.9,0.6,1.9,1.1,2.9,1.5c0.3,0.5,0.5,1,0.7,1.5c-1.2-0.2-2.4-0.5-3.6-0.7C135.6,37,135.5,36.3,135.7,35.5z
		 M135.8,43.1c2.2,0.8,4.5,0.6,6.8,0.5c0.2,0.3,0.3,0.6,0.5,0.9c-2.3,0.4-4.8,0.3-7.1-0.1C135.9,44,135.8,43.6,135.8,43.1z
		 M136.1,45.3c2.4,0.2,4.8,0.3,7.2,0c0.4,0.4,0.9,0.9,0.9,1.6c-0.2,0.2-0.6,0.2-0.8,0.3c-1.7,0.3-3.5,0.3-5.2,0.1
		C137.1,47.2,136.7,46,136.1,45.3z M137.7,47.9c2.1,0.1,4.2,0.2,6.3-0.2c0.9-0.3,1.4,0.7,1.9,1.3c-1.4,0.2-2.9,0.3-4.3,0.5
		c-1,0.1-1.9,0.5-2.8,0.5C138.2,49.4,138,48.6,137.7,47.9z M139.4,50.6c2.2-0.5,4.4-0.7,6.6-0.9c0.8-0.2,1.4,0.5,2,0.9
		c-2,0.9-4.1,1.4-6.3,1.5C140.9,51.7,140.2,51.1,139.4,50.6z M142.1,52.8c1.5-0.3,3-0.4,4.4-0.9c0.7-0.2,1.3-0.5,2-0.6
		c0.8,0,1.5,0.5,2.2,0.8c-1.7,1.2-3.8,1.7-5.9,2.1C143.7,54.4,142.8,53.6,142.1,52.8z M145.1,55c2-0.5,4-1,5.8-2.1
		c0.7-0.5,1.6-0.4,2.4-0.4c-1.1,1.4-2.6,2.3-4.2,2.9C147.7,55.9,146.3,55.4,145.1,55z M152.5,51.8c-0.4,0-0.8-0.1-1.3-0.1
		c-0.2-1.2-0.5-2.5-0.4-3.8c0.2,0.2,0.4,0.4,0.6,0.6c0.2,1.1,1,1.8,1.8,2.4c-0.6-0.1-1.3-0.4-2-0.3
		C151.5,51.2,152.2,51.4,152.5,51.8z M149.3,58.2c0.7,2,1.5,4.1,1.3,6.4c-1.1-2.2-2.6-4.3-4.3-6.2c0.3,1.8,0.5,3.6,0.2,5.3
		c-0.4-1.3-0.7-2.8-1.5-3.9c-0.3,1.1-0.8,2.1-1.6,2.9c0-0.6-0.1-1.1-0.1-1.7c0.9-0.5,1.3-1.5,1.3-2.5c0.6-0.3,1.3-0.5,1.9-0.9
		c0.5-0.4,0.6-1,0.8-1.6c1.9,0.1,2.9,1.9,3.7,3.3C150.5,58.9,149.9,58.5,149.3,58.2z M154.2,59.3c-1.3-0.8-2.8-1.8-4.2-2.6
		c0.8,0.1,1.7-0.1,2.5-0.1C153.2,57.3,153.6,58.5,154.2,59.3z M152.4,56c-1,0.5-2.1,0.3-3.1,0.1c1.8-0.9,3.7-1.8,4.8-3.6
		c0.9,0.3,1.9,0.6,2.9,0.8C155.4,54.3,153.9,55.2,152.4,56z M154.3,55.8c1.2-0.6,2.2-1.8,3.6-1.7C157.3,55.4,155.7,55.8,154.3,55.8z
		 M157.4,55.8c0.3-0.4,0.7-0.7,1-1.1c0.2,0.4,0.4,0.7,0.6,1.1C158.5,55.8,157.9,55.8,157.4,55.8z M160.7,64.5
		c0.5-0.7,1.1-1.5,1.6-2.2c-0.3,0.1-0.6,0.2-1,0.2c-0.2-0.3-0.4-0.6-0.7-0.8c-0.7,0.2-1.5,0.4-2.3,0.5c0.8-0.5,1.5-1,2.1-1.7
		c-0.5,0-0.9-0.1-1.4-0.1c0.5-0.3,1-0.6,1.4-0.9c0-0.6-0.2-1.2-0.3-1.7c0.2-0.1,0.6-0.4,0.8-0.5c-0.5-0.5-0.9-1-1.4-1.5
		c0.2-0.1,0.3-0.3,0.5-0.4c-0.6-0.3-1.1-0.9-1.3-1.5c-0.5-0.2-1-0.4-1.6-0.6c0-0.2,0.1-0.5,0.1-0.7c-1.2-0.5-2.4-0.9-3.6-1.6
		c1.1-0.1,2.1-0.1,3.2-0.2c-1.2-0.4-2.4-0.7-3.4-1.3c0.6-0.1,1.2-0.2,1.8-0.3c-1.2-0.8-2.7-1.3-3.6-2.4c0.5,0,1.1,0,1.6,0
		c-0.9-1.1-1.8-2.3-2.4-3.6c1.3,0.9,2.6,2,3.9,2.8c-0.2-0.7-0.5-0.9-0.9-1.6c1.2,0.7,2.1,1.2,3.5,1.6c-0.8-1-1.8-2-2.2-3.3
		c1.2,0.9,2.3,1.8,3.5,2.7c0-0.5,0-0.9,0-1.4c0.8,1.1,1.5,2.2,2.4,3.2c0-0.6,0-1.2-0.1-1.7c0.7,0.6,1.5,1.2,2.3,1.7
		c-0.9-1-1.8-1.9-2.8-2.8c0,0.3-0.1,0.7-0.1,1.1c-0.7-1.1-1.4-2.3-2.5-3.1c0,0.6-0.1,1.1-0.1,1.7c-0.8-0.7-1.8-1.2-2.5-1.9
		c-0.4-0.7-0.7-1.5-1.2-2.1c-0.4,0-0.8,0-1.2,0c-0.4-0.5-0.9-1-1.5-1.4c-0.5-0.3-0.4-0.9-0.6-1.4c1.7,0.6,3.4,1.5,5.3,1.6
		c-1.8-1-3.7-1.7-5.5-2.5c0.3-1.1,1.2-1.9,1.2-3.1c0.1-2.1-1.4-3.8-1.8-5.8c0.6,0.1,1.2,0.3,1.6,0.8c1.2,1.3,2.4,2.6,3.2,4.2
		c0.5,1,0.3,2.3,0.7,3.3c0.5,1.4,1.2,2.7,2.3,3.7c-1-2.2-2-4.5-2.1-7c0.4,0.9,1.5,1.9,0.7,2.9c0.5-0.3,0.8-0.6,1.2-1
		c-0.4-0.4-0.4-0.8-0.6-1.2c0.7,0.4,0.7,1.2,1,1.8c1,0,1.7-0.7,2.5-1.3c1,0,1.9,0.3,2.9,0c0.7-0.1,1.5-0.6,2.3-0.2
		c0.5,0.3,0.7,0.8,1.2,1.1c1.3,0,2.8,0.1,3.7,1.1c0.6,0.7,1.3,1.3,1.9,2.1c0.3,0.7,0,1.5-0.2,2.2c0.1,0.1,0.2,0.3,0.2,0.4
		c-0.2,0.3-0.3,0.6-0.4,0.9c-0.2,0.3-0.4,0.6-0.6,1c-0.3,0.1-0.5,0.1-0.8,0.2c0.6,0.3,1.3,1,2,0.7c0.5-0.4,0.7-1.1,1-1.7
		c0.6-0.2,1.3-0.5,1.6-1.1c-0.3,0-0.8,0.1-1.1,0.2c0.3-0.4,0.6-0.7,0.9-1.1c-0.5,0.2-1.1,0.4-1.6,0.5c0.3-0.2,0.6-0.5,0.8-0.7
		c-0.1-0.4-0.3-0.7-0.4-1.1c-0.1,0.1-0.3,0.3-0.3,0.4c-0.2-0.5,0.2-1.2,0.1-1.8c0.4-0.7,0.7-1.4,0.8-2.2c0.5,0.2,1.1,0.4,1.6,0.6
		c-0.1,0.2-0.2,0.3-0.3,0.5c-0.1-0.2-0.3-0.5-0.4-0.6c-0.1,0.2-0.3,0.3-0.4,0.5c0.6,1,0.5,2.2-0.4,2.9c0,0.2-0.1,0.6-0.2,0.7
		c0.9-0.6,2-1,3-1.5c-0.2,1.1-0.1,2.4-1,3.2c-0.8,0.8-2,0.9-2.9,1.7c1.1,0.4,2.2,0.5,3.3,0.2c1.3,0.3,2.5,1.1,3.2,2.3
		c0.4,0.6,0.6,1.5-0.1,1.9c-1,0.5-2-0.6-3.1-0.2c-0.4,0.1-0.6,0.5-0.8,0.8c0.9-0.2,1.8-0.2,2.6,0.1c0.8,0.4,1.6-0.2,2.2-0.7
		c0-0.5,0-1.1,0-1.6c-0.5-1.2-1.5-2.2-2.6-2.8c2.7-0.4,5.6,0.2,7.6,2.1c1.5,1.4,2.8,2.9,4.2,4.4c0.9,0.9,1.3,2.2,2.4,3
		c1.3,1,3,1.1,4.4,1.6c1.7,0.6,3.5,1.2,4.9,2.3c2.9,2.7,4.7,6.4,6,10.1c-1.1-1.4-1.6-3.2-2.5-4.7c-0.9-1.6-2-3.1-3.3-4.4
		c-1.5-1.5-3.5-2.2-5.5-2.7c-1.4-0.4-3-0.1-4.2-1c-1.5-0.9-2.2-2.6-3.3-3.9c-1.3-1.7-2.3-3.6-4.1-4.7c-1.1-0.8-2.5-1-3.8-1.1
		c-0.1,0.3-0.2,0.8-0.3,1.1c0.2,0.2,0.3,0.4,0.5,0.7l-0.4,0.2c0.3,0.3,0.6,0.5,1,0.7l-0.5-0.1c0,0.3,0,0.7,0,1
		c0.1,0,0.4,0.1,0.5,0.1c-0.2,0-0.5,0.1-0.7,0.1c-1.1,1.2-2.9,0.7-4.2,1.5c-0.8,0.5-1.1,1.4-1.5,2.1c0-0.2-0.1-0.7-0.2-0.9
		c-0.6,0.6-1.3,1.2-2,1.6c0.2-0.6,0.3-1.3,0.5-1.9c-0.4,0.2-0.9,0.4-1.3,0.6c0.1-0.4,0.2-0.9,0.4-1.4c-0.6,0.2-1.1,0.4-1.7,0.6
		c0-0.2,0-0.6,0-0.8c-0.3,0.3-0.7,0.6-0.7,1.2c-0.3,1.7-1.1,3.6-0.1,5.3c1.4,2.2,4.6,2.1,6,4.3c1.1,1.3,1.7,3,1.6,4.7
		c-0.1,1.3,0.8,2.4,1.9,3.1c1.9,1.2,4.2,1.3,6.4,2.2c0.5,0.2,1.1,0.5,1.4,1c-1.4-0.4-2.5-1.3-3.9-1.6c-2.3-0.6-5.1-0.9-6.6-3
		c-0.6-1.1-0.1-2.5-0.5-3.7c-0.3-1.6-1.3-3.3-3-3.6c-1.2-0.3-2.4-0.7-3.4-1.5c-1.5-1.2-1.6-3.2-1.4-4.9c0.1-1.3,0.8-2.4,1-3.7
		c-0.1-0.8-1-1-1.6-1.1c-1.3-0.1-2.7-0.2-4-0.4c0.1,0.1,0.2,0.4,0.2,0.5c1.4,0.5,3,0.4,4.5,0.7c0,0.3,0.1,0.7,0.1,1.1
		c-1.6-0.6-3.2,0.3-4.9,0c-1.7-0.2-3.1-1.1-4.6-1.8c-1.1-0.6-2.5-0.1-3.1,0.9c-0.4,1.3,0.8,2.2,1.9,2.6c1.2,0.4,2.1,1.5,2.4,2.8
		c0.3,1.3,0.1,2.7,0.2,4c0,0.7,0.9,1,0.9,1.7c0.2,0.9,0.1,2.3,1.2,2.6c1.1,0.6,2.1-0.3,3.1-0.6c1.2-0.2,2.5-0.3,3.8-0.2
		c0.1-0.4,0.2-0.9,0.4-1.3c0.2,0,0.6,0.1,0.8,0.1c-0.3,1.1-1.3,1.9-1.9,2.9c-0.7,0.3-1.3,0.5-1.9,0.9c-0.3-0.1-0.6-0.2-0.9-0.3
		c-0.5,0.3-0.8,0.7-1.3,1c-0.1-0.5-0.2-1-0.3-1.4c-0.6,0.9-1.4,1.6-2.4,1.9c-0.1-0.2-0.3-0.6-0.4-0.9
		C161.9,64.1,161.3,64.2,160.7,64.5z M153.2,42.7c0.6,0.4,1.1,0.8,1.4,1.5c-0.8-0.5-1.4-1.2-2-1.8c-0.1,0.1-0.3,0.2-0.4,0.3
		c-0.2-0.1-0.4-0.2-0.6-0.3c-0.2-0.8-0.3-1.6-0.2-2.3c0.5,0.3,0.8,0.7,1.1,1.1C152.6,41.7,152.7,42.4,153.2,42.7z M153.1,41
		c0.7,0.2,0.9,0.9,1.2,1.5C153.5,42.4,153.3,41.6,153.1,41z M172.9,41.6c-0.2,0.4-0.4,0.8-0.6,1.2c-0.1-0.1-0.4-0.3-0.5-0.5
		C172.2,42.1,172.6,41.8,172.9,41.6z M202.4,73c-0.1,1.4-1.7,1.7-2.8,2.3c-2.3,1.1-4.9,1.6-7.4,1.9c0.2-0.5,0.3-0.9,0.4-1.4
		c0.3,0.3,0.6,0.6,1,0.8c-0.6-1.3-1.3-2.6-2.2-3.6c2-0.6,3.9-1.6,5.9-2.3c0.6-0.2,1.2-0.3,1.7-0.7c0.9-0.7,2.2-0.5,3-1.3
		c0.6-0.6,1.2-1.2,1.9-1.6c0.6-0.9,1.3-1.7,2.4-2.1c0.3,0.5,0.5,1,0.8,1.5c-1.1,0.3-2.4,0.4-3.1,1.3c-1,1.2-2.1,2.4-2.5,3.9
		C201.1,72.3,201.9,72.7,202.4,73z M189.9,79.6c-1.3,0.2-2.5,0.9-3.5,1.8c-0.2-0.5-0.5-0.9-0.8-1.3c0.9-0.5,2-0.2,3-0.1l-0.1-0.3
		c1.8-0.3,3.2-1.6,4.9-1.9c-1.1,0.7-2.2,1.4-3.5,1.7L189.9,79.6z M193.2,108.8c-1.8-0.8-3.2-2.2-4.3-3.7c1,0.3,1.7,1.2,2.7,1.5
		s2.3,0.4,2.8,1.4C194.2,108.3,193.8,109.2,193.2,108.8z M194.7,108.9c0.1,0.5,0.2,1,0.4,1.5c-0.4-0.2-0.8-0.3-1.3-0.5
		C194.1,109.5,194.4,109.2,194.7,108.9z M193.2,109.6c-0.5,0.4-0.9,1.1-1.7,1c-1,0.1-1.7-0.6-2.4-1.3c-1.1-1.1-2.3-2.2-3.3-3.3
		c-0.5-0.5-0.4-1.2-0.4-1.9c0.8,0.4,1.6,0.6,2.5,0.7C189.2,106.8,191,108.6,193.2,109.6z M173.7,137c-0.1,0.4-0.2,0.9-0.3,1.3
		c-0.1,0.1-0.3,0.2-0.4,0.3c-0.4-0.5-0.7-1-1-1.5c0.4-0.5,0.8-0.9,1.3-1.3c0.2,0.5,0.5,1,0.8,1.4c0.2-0.3,0.3-0.6,0.4-1
		c-0.5-0.4-0.5-1-0.7-1.5c0.4,0.1,0.7,0.2,1.1,0.3c-0.1,0.7-0.2,1.4-0.2,2.2c0.5,0.4,1,0.7,1.5,1c-0.5,0.3-1,0.8-1.4,1.3
		c-0.3-0.6-0.6-1.3-0.5-2C174,137.4,173.8,137.2,173.7,137z M173.5,141.2c-0.5,0.6-0.9,1.1-1.3,1.7c-0.1,0-0.3,0-0.4,0
		c-0.4-1.3-0.9-3,0.5-3.8c-0.1,0.8-0.1,1.6,0.4,2.3c0.2-0.2,0.3-0.3,0.5-0.5c-0.5-0.5-0.5-1.4,0-1.9c0.4-0.3,0.5,0.4,0.8,0.6
		C173.6,140,173.3,140.5,173.5,141.2z M157.6,128.6c0.4-0.2,0.8-0.5,1.2-0.7c-0.1,0.5-0.2,1-0.2,1.5h0.5c0.2-1.3,1.4-2.4,2.7-2.1
		c-0.5,0.2-1.1,0.3-1.6,0.7c-0.5,0.4-0.4,1-0.6,1.5l-0.3,0c-0.1,0.2-0.3,0.4-0.3,0.6c0.6,0,1.2,0,1.8,0c0.1,0.2,0.4,0.5,0.5,0.6
		c-0.5,0.4-1.1,0.7-1.5,1.1c-0.4-0.4-0.8-0.8-1.2-1.2c0-0.4-0.1-0.7-0.1-1.1C158.2,129.2,158,128.9,157.6,128.6z M157,123.9
		c0.1-1,0.6-1.9,1.7-1.9c0.1,0.4,0.2,0.9,0.3,1.3c-0.4,0.2-0.7,0.5-1.1,0.8C157.6,124,157.3,123.9,157,123.9z M157.7,124.4
		c-0.1,0.6-0.3,1.2-0.3,1.8c-0.6,0-1.3,0.1-1.9,0.1c0.1-0.6,0.1-1.1,0.2-1.7C156.4,124.6,157,124.5,157.7,124.4z M157.4,120.2
		c0.7,0.2,1.4,0.4,2,0.5c-0.2,0.3-0.3,0.5-0.5,0.8C158.3,121.1,157.8,120.7,157.4,120.2z M158.4,124.8c0.3-0.7,1-0.9,1.6-1.1
		c0.1,0.5,0.2,1,0.3,1.4c-1,0-1.6,0.8-2.1,1.6C157.5,126.2,158.2,125.4,158.4,124.8z M165.7,127.4c0.2-0.6,0.5-1.1,0.9-1.6
		c0.4,0.4,0.8,0.7,1.2,1.1c0.3,0.7,0.7,1.3,1.2,1.9c-0.7,0.2-1.3,0.6-1.9,1.1c-0.4-0.1-0.7-0.2-1.1-0.3c0.3-1,1-1.7,1.9-2.1
		C167.3,127,166.5,127.4,165.7,127.4z M165.5,127.5c-0.1,0-0.4,0-0.5,0c-0.2,0.3-0.5,0.6-0.7,0.9c-0.6,0.1-1.2,0.1-1.9,0.2
		c0.2-0.3,0.3-0.7,0.6-1c0.7-0.2,1.5-0.1,2-0.7c-0.4-0.6-0.4-1.3-0.3-1.9c-0.1-0.2-0.2-0.4-0.4-0.5c-0.1,1-1.1,0.9-1.8,0.9
		c0.1-0.6,0.2-1.3,0.4-1.9c1.1,0.6,2.3,1.2,3.3,1.9C165.6,125.9,164.8,126.7,165.5,127.5z M162.3,126.4c0.5-0.3,1-0.5,1.6-0.7
		c0.1,0.4,0.2,0.8,0.3,1.1c-0.9-0.2-1.8,0-2.2,0.9C162.1,127.3,161.9,126.7,162.3,126.4z M161.2,126.9c0-0.5,0-1.1,0-1.6
		c0.3-0.1,0.6-0.3,0.9-0.4C162.3,125.7,161.5,126.3,161.2,126.9z M161.9,124.5c-0.4,0.1-0.8,0.2-1.1,0.3c0-0.9,0.2-1.9,1.1-2.4
		c0.3,0.3,0.5,0.5,0.8,0.8C162.3,123.6,162.1,124.1,161.9,124.5z M160.1,123.4c-0.1,0-0.4,0-0.5,0c-0.1-0.8,0-1.7,0.4-2.4
		c0.5,0.3,1,0.6,1.5,1C161,122.4,160.4,122.8,160.1,123.4z M160.4,125.5c0.1,0.4,0.2,0.8,0.3,1.3c-0.6,0.2-1.2,0.5-1.9,0.7
		C158.9,126.6,159.5,125.9,160.4,125.5z M160.1,129.1c0.3-0.8,1.1-1.1,1.9-1.1c0,0.6-0.1,1.2-0.5,1.7
		C161.1,129.5,160.6,129.3,160.1,129.1z M164,128.9c0,0.2,0,0.6,0,0.8c-0.6,0.3-1.1,0.8-1.4,1.3c-0.2,0-0.6-0.1-0.8-0.2
		C161.6,129.6,163.1,129.4,164,128.9z M164.5,130.2c-0.1,0.8,0.3,1.8-0.3,2.5c-0.5-0.1-0.9-0.3-1.4-0.4
		C163.1,131.4,163.5,130.4,164.5,130.2z M164.3,129.9c0.3-0.9,1-1.7,1.9-2.1c-0.3,0.6-0.5,1.3-0.6,2
		C165.1,129.7,164.7,129.8,164.3,129.9z M165.3,130.5c0.5-0.3,1.1-0.2,1.6-0.2c0,0.4-0.1,1.1-0.1,1.5c0.8-0.9,1.2-2.4,2.7-2.5
		c-0.6,0.7-1.3,1.4-1.4,2.4c-0.6,0.1-1.1,0.2-1.7,0.4c-0.5,0-1,0-1.5,0.1C165.1,131.5,165.1,131,165.3,130.5z M172.8,135.6
		c-0.8,0.4-1.3,1.1-1.9,1.8c0-0.6-0.2-1.2,0-1.7c0.2-0.4,0.6-0.6,1-0.8c0-0.2,0.1-0.5,0.2-0.6c-0.4,0.1-0.7,0.3-1.1,0.4
		c0.2-0.5,0.4-1.1,0.6-1.6c0.3,0.3,0.5,0.6,0.8,0.9l0,0.1c0,0.3-0.1,0.6-0.1,0.9C172.5,135.1,172.7,135.4,172.8,135.6z M170,132.9
		c0.1-0.6,0.3-1.1,0.5-1.7c0.3,0.4,0.6,0.8,0.8,1.3C171.2,133.1,170.5,132.8,170,132.9z M166.5,134.1c0.2-0.7,0.3-1.8,1.2-1.8
		c0.6-0.1,1.6-0.5,1.9,0.4c-0.4,0.4-0.8,0.8-1.2,1.2C167.8,133.9,167.2,134,166.5,134.1z M167.6,136.6c-0.4,0-0.7,0.1-1.1,0.1
		c0.1-0.6,0.3-1.3,0.5-1.9c0.4-0.2,0.9-0.3,1.4-0.5C168.4,135.1,168.1,135.9,167.6,136.6z M170.6,133.2c0,0.7-0.1,1.3-0.1,2
		c-0.6,0-1.2,0-1.8,0C168.9,134.3,169.6,133.5,170.6,133.2z M168.6,131.7c0.3-0.6,0.7-1.3,1.2-1.8c0.2,0.3,0.4,0.6,0.6,0.9
		C169.9,131.4,169.4,132,168.6,131.7z M166.7,137.3c0.3-0.1,0.6-0.2,0.8-0.3c0.1,0.8,0.5,1.5,1.1,2.1c-0.7,0.2-1.4,0.4-2.2,0.6
		C166.4,138.9,166.5,138.1,166.7,137.3z M168.4,138.4c-0.1-0.7-0.1-1.3-0.1-2c0.5-0.3,1.1-0.6,1.7-0.8c0.1,0.6,0.3,1.2,0.5,1.8
		C169.7,137.6,169,138,168.4,138.4z M169.2,138.7c0.3-0.3,0.6-0.5,1-0.7c0.1,0.7,0.3,1.3,0.6,1.9c-0.1,0.3-0.1,0.7-0.2,1
		c-0.4,0-0.9,0-1.3-0.1C169.2,140.1,169,139.4,169.2,138.7z M169.6,141.7c0.4-0.1,0.7-0.3,1.1-0.4c0.2,0.6,0.4,1.1,0.6,1.7
		c-0.3,0.1-0.7,0.2-1,0.4c-0.3-0.1-0.6-0.3-1-0.4C169.4,142.5,169.5,142.1,169.6,141.7z M171,139.4c-0.1-0.7,0-1.3,0.3-1.9
		c0.3,0.4,0.7,0.7,1,1.1C171.9,138.9,171.4,139.1,171,139.4z M172.9,134.4c0.5-0.1,0.6,0,0.5,0.5C172.9,135,172.8,134.9,172.9,134.4
		z M176,137.8c-0.7-0.7-1-1.7-0.9-2.6c0.6,0,1.2,0.1,1.8,0.1c0.1,0.4,0.1,0.7,0.2,1.1C176.8,136.9,176.4,137.3,176,137.8z
		 M176.1,138.7c0.5,0.6,1,1.2,1.5,1.7c-0.5,0.4-1.1,0.7-1.6,1.1c-0.3-0.5-0.6-0.9-0.8-1.4C175.3,139.5,175.8,139.1,176.1,138.7z
		 M176.7,134.6c-0.6-0.1-1.1-0.1-1.7-0.2c0.2-1.1,0.8-2,1.8-2.5C176.8,132.8,176.7,133.7,176.7,134.6z M174.4,140
		c0.4,0.7,1,1.3,1.6,1.9c0.2,0.5-0.7,0.5-1,0.7C174.7,141.8,173.7,140.9,174.4,140z M175.9,142.8l0.1,0.3c0.6-0.7,1-1.6,1.7-2.3
		c-0.1,1.2,0.2,2.4,1,3.3c-0.4,0.1-0.8,0.1-1.1,0.2c-0.6-0.4-1.1-0.7-1.8-0.9c-0.2,0.1-0.4,0.2-0.7,0.3
		C175.4,143.4,175.6,143.1,175.9,142.8z M176.9,137.3c0.1-0.1,0.3-0.2,0.4-0.3c0.3,0.7,0.8,1.4,1.3,2c-0.2,0.3-0.4,0.7-0.6,1
		C177.4,139.2,176.7,138.4,176.9,137.3z M177.4,135.4c0.8-0.1,1.6-0.2,2.4-0.3c0,1.2-0.5,2.3-1.1,3.3
		C178.3,137.4,177.8,136.4,177.4,135.4z M177.4,134.7c0-1.1-0.1-2.2,0.3-3.2c0.3-0.3,0.6-0.5,0.9-0.7c0.1,1.2,0.2,2.5,0.6,3.6
		C178.6,134.5,178,134.6,177.4,134.7z M190.3,114.6c0.4,0,0.8,0,1.3,0c0.2-0.2,0.4-0.4,0.6-0.5c0.4,0.6,0.8,1.1,1.3,1.6
		c-0.8,0.6-1.9,0.9-2.8,0.3C190.1,115.8,190.3,115.1,190.3,114.6z M190.1,121.4c0.3,0.4,0.7,0.7,1,1.1c-0.4,0.3-0.8,0.7-1.2,1
		C189.9,122.8,190,122.1,190.1,121.4c0.5-0.4,1.1-0.6,1.6-0.9c0.4,0.4,0.8,0.7,1.3,1C192.1,122,191,121.6,190.1,121.4z M192.5,124.4
		c-0.7,0.6-1.6,0.8-2.4,0.9c0-0.4,0-0.9,0-1.3c0.7-0.2,1.2-0.7,1.5-1.3C191.8,123.3,192.1,123.9,192.5,124.4z M189.9,119.5
		c0.6,0,1.1,0.2,1.7,0.4c-0.5,0.3-1,0.6-1.5,0.8C190,120.3,189.9,119.9,189.9,119.5z M190.2,118.9c-0.5-1.1,1.2-1,1.7-1.7
		c0.4,0.4,0.9,0.8,1.4,1.1C192.5,119.2,191.2,119.5,190.2,118.9z M194.9,118c0,0.5,0,1,0,1.5c-0.6-0.1-1.2-0.2-1.7-0.3
		C193.5,118.4,194.1,118,194.9,118z M192.4,117.1c0.6-0.4,1.1-0.8,1.6-1.3c0.3,0.1,0.5,0.1,0.8,0.2c0,0.5,0,1,0,1.5
		C193.9,117.6,193.1,117.5,192.4,117.1z M191,117.1c-0.4,0.1-0.8,0.3-1.2,0.4c0.1-0.4,0-0.9,0.3-1.1
		C190.5,116.6,190.8,116.8,191,117.1z M191.1,127.8c-0.4,0.1-0.9,0.1-1.3,0.2c0,0.6,0,1.2,0.2,1.8c-0.4,0-0.9,0.1-1.3,0.1
		c0.3-0.4,0.4-0.7,0.8-1.3c0.2-0.6,0.2-1.1,0.3-1.7C190.1,127.2,190.6,127.5,191.1,127.8z M189.3,116.6c-2-0.7-3.6-2.2-5-3.7
		c-1.1-1.2-1.4-3-0.8-4.5c0.6,1.7,2,2.9,3.3,4c0.9,0.7,1.8,1.4,2.8,1.9C189.5,115.1,189.4,115.8,189.3,116.6z M187.3,116.5
		c0.6,0.4,1.3,0.7,2,0.9c0,0.6,0,1.3,0,2c-2.6-0.6-4.7-2.5-6.2-4.6c-0.6-0.8-0.3-1.8-0.2-2.6C184,113.9,185.6,115.3,187.3,116.5z
		 M189.2,120c0.1,0.9,0,1.7,0,2.6c-2.2-0.7-4.1-2.1-5.6-3.9c-0.7-0.8-0.7-2-0.8-3C184.7,117.6,186.6,119.5,189.2,120z M187.4,122.7
		c0.6,0.3,1.3,0.4,1.8,0.8c0.3,0.6,0.2,1.4,0.1,2c-0.1,0.3,0,0.8-0.4,0.9c-0.8-0.1-1.4-0.8-2-1.3c-1.1-1.1-2.3-2.1-3.1-3.5
		c-0.4-0.6-0.4-1.3-0.4-2C184.7,120.8,185.9,122.1,187.4,122.7z M184.1,123.3c1.6,1.3,2.8,3.3,4.9,3.9c-0.3,1.1-0.9,2.2-1.7,3
		c-1.5-1.2-2.8-2.7-3.5-4.5C183.5,125,183.9,124.1,184.1,123.3z M187.4,131.5c0.4,0.3,0.7,0.7,1.1,1c0.3,0.4,0.5,0.9,0.8,1.4
		c-0.6,0-1.4,0.2-1.9-0.2s-0.9-0.9-1.3-1.3C186.5,132,186.9,131.8,187.4,131.5z M187,130.9c-0.5,0.3-1.1,0.7-1.7,0.8
		c-0.4,0-1.1,0.2-1.2-0.4c-0.7-1.3-1.2-2.6-1.5-4c-0.3-0.6,0.3-1,0.6-1.4C183.9,127.8,185.3,129.5,187,130.9z M184.4,132.5
		c-0.5,0.6-1.1,1-1.8,1.2c-0.7-1.5-1.2-3.2-1.5-4.8c-0.2-0.6,0.3-1,0.7-1.4C182.4,129.3,182.7,131.4,184.4,132.5z M181.8,134
		c-0.6,0.1-1.3,0.2-1.9,0.3c-0.4-1.7-1.1-4,0.4-5.3C180.7,130.7,181.2,132.4,181.8,134z M178.8,139.5c0.8,0.6,1.8,0.9,2.8,1.1
		c-0.4,0.5-0.8,0.9-1.2,1.4C179.5,141.4,178.5,140.7,178.8,139.5z M179.5,139c-0.2-0.6,0.1-1.3,0.3-1.9c0.6,0.6,1.3,1,1.9,1.6
		c0.3,0.5,0,1-0.1,1.5C180.9,139.9,180,139.7,179.5,139z M181.6,138c-0.8-0.8-1.5-1.8-1.3-3c0.4,0,0.7-0.1,1.1-0.1
		c0.2,0.5,0.4,1,0.5,1.5C181.8,136.9,181.7,137.4,181.6,138z M182.3,134.5c0.5-0.2,0.9-0.3,1.4-0.4c0.2,0.3,0.3,0.6,0.5,0.9
		c-0.1,0.7-0.1,1.4-0.1,2.1c-0.8-0.5-1.7-1.1-2.1-2C181.6,134.8,182.1,134.5,182.3,134.5z M182.3,136.8c0.7,0.3,1.4,0.6,2.1,0.8
		c0.3,0.7,0.3,1.5,0.3,2.3c-0.8-0.3-1.6-0.4-2.2-1C182.1,138.2,182.3,137.5,182.3,136.8z M184.6,135.5c0.8,0.5,1.8,0.8,2.8,0.9
		c0,0.6,0,1.2,0.1,1.8c-0.7,0.2-1.5,0.2-2.2-0.1C184.9,137.2,184.7,136.4,184.6,135.5z M186.6,134.3c0,0.6,0,0.9,0,1.5
		c-1-0.5-1.8-1.2-2.5-1.9c0.5-0.6,0.8-1.4,1.5-1.7c0.4,0.8,0.7,2,1.8,2.2c0.8,0.3,1.7-0.1,2.4-0.4c0,0.7,0,1.4,0.2,2.1
		c-0.8,0.1-1.8,0.2-2.4-0.3C187.2,135.2,186.9,134.9,186.6,134.3z M189.1,132.8c0.8-0.1,1.5-0.4,2.2-0.7c0.1,0.6,0.1,1.1,0.2,1.7
		C190.6,133.6,189.8,133.4,189.1,132.8z M187.7,131.1c0.1-0.3,0.2-0.5,0.3-0.7c0.6,0.1,1.3,0.1,2,0c0.2,0.5,0.4,1,0.6,1.5
		C189.6,132.2,188.5,131.9,187.7,131.1z M190,128.8c0.7-0.2,1.3-0.5,1.8-1c0.1,0.6,0.1,1.1,0.2,1.7
		C191.2,129.7,190.4,129.5,190,128.8z M190.5,126.8c-0.5-0.1-0.7-0.5-0.6-1c1.1,0.1,2.1-0.1,2.9-0.9c0.2,0.4,0.4,0.9,0.6,1.3
		C192.7,127,191.5,127.3,190.5,126.8z M192.1,122.6c0.5-0.3,1-0.7,1.5-1c0.4,0.5,1,0.8,1.6,1c-0.5,0.6-1.1,1.4-2,1.2
		C192.5,123.8,192.4,123.1,192.1,122.6z M194.1,121.3c0.3-0.2,0.7-0.3,1-0.5c0,0.4,0,0.8,0,1.1C194.8,121.8,194.5,121.6,194.1,121.3
		z M193.8,120.8c-0.7,0.1-1.3-0.4-1.8-0.8c0.3-0.1,0.6-0.3,0.9-0.4c0.7,0.5,1.5,0.6,2.3,0.4C194.8,120.4,194.4,120.7,193.8,120.8z
		 M192.3,112.7c0.4-0.1,0.9-0.1,1.3-0.2c0,1,0.5,1.7,1.2,2.4c0,0.2,0.1,0.5,0.1,0.6C193.6,115.3,192.7,114.1,192.3,112.7z
		 M191.9,111.9c-0.2,0.2-0.4,0.3-0.6,0.5c0.8,0,0.7,0.8,0.8,1.3c-0.6,0.1-1.1,0.3-1.7,0.4c0.3-0.6,0.6-1.2,0.9-1.8c0-0.3,0-0.6,0-1
		c0.5-0.1,1-0.2,1.5-0.3c0.1,0.3,0.2,0.7,0.3,1C192.8,112,192.2,111.9,191.9,111.9z M189.5,110.6c0.4,0.4,1.3,0.5,1,1.2
		c-0.1,0.6-0.3,1.2-0.5,1.7c-1.3-0.3-2.3-1.3-3.3-2.1c-0.9-0.8-1.8-1.7-2.3-2.8c-0.4-0.9,0-1.8,0.3-2.7
		C186.2,107.5,187.7,109.2,189.5,110.6z M184.6,105.1c-0.8,1-1.3,2.3-1.8,3.5c-0.1,1.5-0.4,3-0.7,4.5c0.3,1.9,0,3.9,0.8,5.8
		c0,1.3-0.1,2.7,0.9,3.8c-0.4,0.7-0.6,1.4-0.8,2.2c-1.2,1.8-2.8,3.3-4.1,5.1c-2.1,1-3.9,3.2-6.4,2.6c-1.7-2.2-2.8-4.7-4.7-6.8
		c-1.1-1.1-2.4-1.9-3.7-2.6c-1.2-0.6-2-1.9-3.2-2.5c-1.9-1.1-4.1-1.5-6.3-1.6c-2-0.1-4,0-5.9,0.6c-2,0.6-3.4,2.4-5.5,2.8
		c-0.5-1-1.7-1.3-2.1-2.3c-0.2-0.2-0.5-0.3-0.7-0.5c-0.2-1-0.5-2-0.5-3.1c0.3-1.5,1.7-2.5,3-3.2c0.9-1,1.8-2.1,3.2-2.5
		c1.1,0,2.1,0.3,3.1,0.9c0.1,0.3,0.2,0.7,0.3,1c-0.2,0.3-0.3,0.7-0.5,1.1c-0.4,0.2-1.1,0.2-1.2,0.7c0,1.6,2,2.4,3.2,1.5
		c2-1.4,2.8-4.3,1.9-6.6c0.1-0.1,0.3-0.3,0.4-0.4c0.9,0.5,2,0.8,2.9,0.4c1.9-1.6,2.8-4.3,2.4-6.7c0-0.5-0.3-0.8-0.6-1.1
		c-0.6,1.3-1.1,2.6-1.9,3.7c-0.1-0.2-0.4-0.5-0.5-0.6c-0.3-0.1-0.7-0.1-1-0.2c0.2-0.8,0.4-1.6,1.1-2.1c1.2-0.9,0.1-2.5,0.6-3.6
		c1.4-0.6,3,0.4,4.4-0.4c1,0.7,2.2,0.9,3.3,1.2c1,0.8,1.9,1.6,3.2,1.9c0.4,1.3,0.8,2.5,1,3.8c0.2,1.1,0.4,2.3,1,3.2
		c0.3-1.1,0.5-2.3,0.8-3.4c1.1,2.2,2.2,4.5,2.8,6.9c0.3-1.1,0.4-2.2,0.7-3.3c0.8,1.5,1.5,3.1,2.4,4.6c0.4-2.2,0.5-4.4,0.7-6.6
		c1,1.6,1.7,3.3,3.1,4.5c0.4-2.4-0.2-4.7-1.1-6.9c1.7,0.7,3.5,1.5,4.9,2.9c-0.5-1.7-1.5-3.1-2.3-4.6c0.5,0.1,1,0.3,1.4,0.6
		c0.5-0.1,1-0.2,1.4-0.3c0.3,0.3,0.6,0.6,0.9,0.9C184.7,104.2,184.6,104.7,184.6,105.1z M155.7,122c-0.3,0.1-0.7,0.2-1,0.4
		c-0.3-0.9-0.3-2.7,1.1-2.6C155.5,120.5,155.5,121.3,155.7,122z M154.2,119.8c-0.3,0.6-0.5,1.1-0.7,1.7c-0.4-0.5-0.7-1.1-0.9-1.7
		C153.2,119.8,153.7,119.8,154.2,119.8z M145.1,123.5c-0.1,0.9,0,1.8,0.6,2.5c0.1-0.2,0.3-0.3,0.4-0.5c-0.6-0.9-0.4-2.1,0.6-2.6
		c-0.2-0.1-0.3-0.3-0.5-0.4c-0.3,0.3-0.6,0.5-1,0.7c0-0.2-0.1-0.6-0.2-0.8c0.5-0.3,1-0.6,1.5-0.9c0.1,0.4,0.2,0.9,0.3,1.3
		c0.3,0.2,0.5,0.3,0.8,0.5c-0.6,0.6-1.2,1.3-1.2,2.2c-0.3,0.6-0.9,1-1.5,1.4c0-0.6-0.1-1.2-0.5-1.7c-0.1,0.2-0.3,0.6-0.4,0.8
		c-0.2-0.4-0.3-0.8-0.5-1.2C144,124.3,144.5,123.8,145.1,123.5z M143.1,124.4c0-0.4-0.1-0.8-0.1-1.2c0.5-0.1,1.1-0.2,1.6-0.2
		C144.2,123.4,143.7,123.9,143.1,124.4z M147.1,121.1c0.4-0.2,0.7-0.3,1.1-0.5c0.1,0.6,0.3,1.2,0.5,1.8c-0.3,0.2-0.5,0.5-0.8,0.7
		C147.5,122.5,147.2,121.8,147.1,121.1z M147.6,124.1c0.1,0.6,0.4,1.2,0.8,1.8c-0.2,0.3-0.5,0.5-0.7,0.8
		C147.1,125.9,147.2,124.9,147.6,124.1z M148.4,125.1c-0.1-0.8,0.1-1.7,0.5-2.4c0.4,0.1,0.7-0.1,1-0.3c-0.5-0.4-0.9-0.9-1-1.5
		c-0.2-0.9,0.9-0.7,1.4-0.9c-0.3,0.7-0.4,1.5-0.3,2.3c0.7-0.6,0.7-1.6,1-2.4c0.4-0.1,0.8-0.1,1.2-0.2c0.1,0.5,0.2,1,0.3,1.5
		c-0.6,0.3-1.5,0.5-1.5,1.3C149.6,123,149,124,148.4,125.1z M140,122.1c0.4-0.2,0.8-0.5,1.3-0.4c0.5,0,0.6,0.6,0.9,0.9
		C141.5,122.8,140.8,122.4,140,122.1z M141,124.7c-0.9-0.2-0.9-1.2-0.8-1.9C140.8,123.2,140.8,124,141,124.7z M139.5,122.9
		c0,0.7,0.2,1.4,0.5,2.1c-0.2,0.3-0.4,0.9-0.8,0.8C138.5,124.9,139.1,123.8,139.5,122.9z M138.3,123.6c0.1-0.5,0.1-1.1,0.2-1.6
		c0.3,0.2,0.6,0.4,0.9,0.5C139,122.8,138.7,123.2,138.3,123.6z M139.6,121.8c-0.6-0.4-1.1-0.9-1.7-1.4c0.9,0,1.9-0.2,2.7,0.3
		C140.5,121.2,139.9,121.4,139.6,121.8z M135.9,117.2c-0.8-0.5-1.5,0.2-1.6,1c-0.1-0.1-0.3-0.4-0.4-0.5c-0.2,0-0.6-0.1-0.8-0.1
		c0.6-0.8,1.7-0.7,2.5-1.2l-0.7-0.2c0.4-0.2,0.8-0.4,1.1-0.6C136,116,135.9,116.6,135.9,117.2z M135.7,114.8
		c0.3-0.6,0.7-1.2,1.4-1.4c-0.2,0.6-0.4,1.2-0.7,1.8C136.2,115,135.9,114.9,135.7,114.8z M142.4,109.5c0.3,0.8,0.7,1.7,0.5,2.6
		c-0.1,0.5-0.6,0.8-1,1.1c-0.2-1.1-0.6-2.1-1.1-3.1C141.3,109.9,141.9,109.7,142.4,109.5z M141.4,107.7c0.5,0.2,1,0.4,1.5,0.6
		c-0.3,0.4-0.8,0.7-1.2,0.8C141.5,108.6,141.4,108.1,141.4,107.7z M140.6,114.1c-0.1-0.9-0.6-1.7-1.2-2.5c0.3-0.3,0.6-0.6,1-0.8
		C140.9,111.7,141.7,113.2,140.6,114.1z M139.6,115.5c-0.5-0.8-1-1.6-1.5-2.4c0.3-0.3,0.6-0.6,1-0.9
		C139.9,113.1,140,114.4,139.6,115.5z M139.1,116.5c-0.6-0.5-1.3-1-2-1.4c0.2-0.4,0.3-0.8,0.5-1.2
		C138.3,114.6,138.8,115.5,139.1,116.5z M138.5,111.7c-0.5,0.1-0.7-0.4-0.9-0.7c0.5,0,0.9,0,1.4,0
		C138.9,111.3,138.7,111.5,138.5,111.7z M138,112.1c-0.3,0.6-0.9,0.9-1.6,0.8C136.7,112.2,137.4,112.2,138,112.1z M136.7,115.7
		c1.2,0.5,2.3,1.3,2.7,2.5c-0.9-0.5-1.8-0.9-2.8-1.2C136.7,116.6,136.7,116.2,136.7,115.7z M139.7,119.6c-0.9,0.1-1.7,0.2-2.6,0.1
		c-0.2-0.6-0.3-1.3-0.4-1.9C137.8,118.2,138.9,118.7,139.7,119.6z M141.2,123.4c0.5,0,0.9-0.1,1.4-0.1c-0.1,0.1-0.4,0.3-0.5,0.4
		c0.3,0.4,0.6,0.8,0.9,1.3c-0.7,0.4-1.2,1-1.6,1.7c-0.2-0.5-0.3-1-0.4-1.5c0.3-0.3,0.7-0.5,1-0.8
		C141.8,124.1,141.5,123.7,141.2,123.4z M151.4,114.8c-0.5,0.4-1,0.7-1.4,1.1c-0.8-0.1-1.4-0.5-1.7-1.3c0.7,0.2,1.2,0.4,1.8,0.8
		c0-0.2,0.1-0.5,0-0.7C150.5,114.8,150.9,114.8,151.4,114.8z M150.9,111.4c0.2,0.2,0.5,0.7,0.6,0.9c-0.2,0.1-0.4,0.3-0.5,0.4
		C150.9,112.2,150.9,111.8,150.9,111.4z M149.4,114.4c0-0.5,0.3-0.9,0.8-1.2C150.1,113.7,149.8,114.1,149.4,114.4z M150.1,111.4
		c0,0.5,0,1,0,1.5C149.9,112.4,149.5,111.8,150.1,111.4z M148.5,110.9c0.1-0.2,0.3-0.4,0.5-0.6c0.3-0.3,0.7,0.4,0.9,0.6
		C149.5,111.1,149,111.2,148.5,110.9z M148.4,109.2c0-0.4-0.1-0.7-0.1-1.1c-0.4-0.4-0.5-0.9-0.5-1.5c0.3,0.6,0.7,1.2,1.1,1.8
		C148.7,108.7,148.5,108.9,148.4,109.2z M148.5,109.9c-0.3,0.2-0.5,0.4-0.8,0.7c-0.2,0-0.5-0.1-0.7-0.2c0.2-0.3,0.4-0.6,0.6-0.8
		C147.9,109.4,148.2,109.8,148.5,109.9z M147.7,108.9c-0.3-0.1-0.6-0.2-0.9-0.4c0.2-0.2,0.3-0.5,0.5-0.7
		C147.5,108.2,147.6,108.5,147.7,108.9z M147.1,107.4c-0.1,0.1-0.3,0.2-0.4,0.3c-0.2-0.6-0.3-1.4,0.5-1.5
		C147.1,106.6,147.1,107,147.1,107.4z M146.9,109.4c-0.4,0.4-0.8,0.8-1.3,1c0.1-0.6,0.2-1.1,0.3-1.7
		C146.2,109,146.6,109.2,146.9,109.4z M156.6,105.8c0.4-0.8,0.8-1.5,1.2-2.3c0,1.4-0.1,3-1.1,4.1C156.6,107,156.2,106.4,156.6,105.8
		z M161.4,75.4c1.1,0.9,2.2,1.9,3.6,2.5c1.8,0.8,3.7,1.4,5.5,2.2c-0.4,0.5-0.8,1.1-1.3,1.6c-1.5-0.4-3-1.1-4.4-1.6
		c-1.3-0.4-2.3-1.3-3.6-1.8c-0.8-0.4-1.7-1.1-1.7-2C160,75.8,160.7,75.5,161.4,75.4z M159.5,70.6c0.5,0.3,1,0.6,1.5,0.9
		c0,1.1,0.1,2.1,0.4,3.1C159.9,73.9,159.6,72.1,159.5,70.6z M174.2,59.7c0.4,0.3,0.8,0.7,1.2,1c0.3,1,0.7,2,0.7,3.1
		c-0.7-0.6-1.2-1.4-1.1-2.4c-0.2-0.2-0.3-0.4-0.5-0.6l-0.1,0.9c-0.4-0.6-0.5-1.4-0.9-2c-0.2,0.8-0.7,1.5-1.2,2.1
		c-0.2-0.4-0.4-0.8-0.6-1.2c0.7-0.3,1.3-0.7,1.9-1.1l-0.1,0.1C173.7,59.7,174,59.7,174.2,59.7z M175.8,67.7c-1.2-1-1.3-2.7-0.7-4.1
		c0.4,0.4,1.2,0.5,1.1,1.2C176.4,65.8,176.1,66.8,175.8,67.7z M177,68.5c-0.5-0.5-0.4-1.2-0.5-1.8c1,1.3,2.8,1.5,3.4,3.1
		c-0.5,0.1-1,0.2-1.5,0.3c0.1-0.4,0.2-0.9,0.3-1.3c-0.2-0.2-0.3-0.4-0.5-0.5c-0.2,0.5-0.2,1.1-0.4,1.6c-0.6,0-1.1,0-1.7,0
		c-0.4,0.2-0.9,0.4-1.3,0.5c-0.9,0-1.7-0.1-2.6,0c0.2-0.6,0.5-1.2,0.8-1.8c0.7,0.8,1.4,1.5,2.6,1.4c-0.1-0.6,0.2-1.2,0.3-1.8
		c0.5,0.4,0.8,1.4,1.6,1.1C177.5,69,177.2,68.8,177,68.5z M182,67.9c-1.1-0.4-2-1.1-2.8-1.9c0.1-0.3,0.2-0.7,0.3-1
		c-0.4-0.1-0.5,0-0.8,0.2c0-0.1,0-0.4,0-0.6c0.2,0,0.5-0.1,0.7-0.2c-0.2-0.2-0.5-0.5-0.7-0.6c-0.1-0.9-0.3-1.7-0.5-2.5
		c0.2-0.3,0.3-0.5,0.5-0.8c0.3,0.8,0.9,1.4,1.5,2c-1.2,1.6-0.5,3.9,1.3,4.8c-0.3-0.8-1-1.5-1.2-2.4c-0.2-0.7,0.2-1.3,0.5-1.8
		c0.5,0.6,1,1.1,1.7,1.5c-0.6,0.8-0.8,1.7-0.9,2.7C181.7,67.4,181.9,67.7,182,67.9z M172.8,51.4c-0.4,0.5-0.8,0.9-1.2,1.4
		c1.2,0.1,2.3-0.3,3.2-1.1c0,0.3,0,0.7,0,1c0.4-0.4,0.9-0.7,1.3-1.1c0,0.5-0.1,1.1-0.1,1.6c0.7-0.3,1.5-0.8,1.7-1.7
		c0.2-1.2,1.5-1.5,2.4-1.9c0,0.6,0,1.2,0.1,1.8c0.9-0.6,1.6-1.8,0.9-2.8c-0.1,0.5-0.1,1-0.2,1.5h-0.1c-0.1-0.4-0.1-0.7-0.2-1.1
		c0.3-0.3,0.5-0.6,0.8-0.9c0.7-0.2,1.5-0.1,2.2-0.1c-0.4-0.4-0.8-0.9-1.2-1.3c0.3-0.1,0.8-0.2,1.1-0.3c-0.5-0.4-1.3-0.7-0.9-1.5
		c-0.4-0.1-0.8-0.2-1.2-0.3c1.8-0.2,3.6,0.8,4.7,2.2c1.6,1.9,2.8,3.9,4.3,5.9c-2.1,0.2-4.2,0.4-6.3,0.4c-0.7-0.1-0.9,0.4-0.5,1
		c-0.9,0-2.1-0.4-2.8,0.4c0.2,0.2,0.4,0.5,0.7,0.8c-1,0.1-2,0.1-2.9,0.2c-0.3,0.6-1,0.5-1.5,0.7c-1.1,0.1-1.9,0.9-2.8,1.3
		c-1.1-0.7-2.4-1.1-3.1-2.2c-0.6-1-0.3-2.1-0.1-3.2c0.2-0.6,0.2-1.5,0.9-1.8c-0.1,0.5-0.1,1-0.2,1.5
		C171.9,51.5,172.5,51.4,172.8,51.4z M177,49.8c0.7-0.3,1.4-0.5,2.1-0.7c0,0.1,0,0.4,0,0.6c-0.2-0.1-0.5-0.2-0.7-0.3
		c-0.1,0.5-0.2,1.2-0.7,0.4c-0.4,0.9-0.4,1.9-1.1,2.6C176.5,51.5,176.6,50.6,177,49.8z M179.8,48.8c0.4,0.2,0.4,0.4,0,0.6
		C179.4,49.2,179.4,49,179.8,48.8z M203.6,64c-0.8-0.4-1.6-0.8-2-1.6c-0.2-0.6,0-1.3,0-1.9c0.9,0.7,1.9,1.3,3.1,1.2
		C204.3,62.5,203.9,63.2,203.6,64z M204.8,62.4c0.5,0.5,0.7,1.1,1,1.7c-0.5,0.4-0.9,0.7-1.4,1.1C204.4,64.3,204.5,63.3,204.8,62.4z
		 M174,65.1c-0.4-0.5-0.9-0.9-1.1-1.5c-0.2-0.8,0.1-1.6,0.3-2.4c0.4,0.4,0.8,0.9,1.2,1.2c0.1,0.3,0.2,0.6,0.3,0.8
		C174.5,63.9,174.2,64.5,174,65.1z M175.5,67.8c-0.3,0.6-0.5,1.1-0.7,1.7c-0.4-0.5-0.9-0.9-1.1-1.5c0.2-0.4,0.5-0.7,0.8-1.1
		C174.8,67.2,175.1,67.5,175.5,67.8z M174,65.4c0.1,0.3,0.2,0.7,0.2,1c-0.4,0.4-0.9,0.8-1.3,1.3c-0.4-0.5-0.8-0.9-1.1-1.5
		c-0.2-0.7,0.3-1.3,0.5-2C172.8,64.7,173.4,65.1,174,65.4z M172.7,68c-0.6,0.6-1.1,1.4-1.1,2.3c-0.4-0.7-0.9-1.3-1.1-2.1
		c-0.1-0.6,0.4-1,0.6-1.5C171.7,67.2,172.2,67.6,172.7,68z M179.5,75.5c-0.6,0.5-1.4,0.9-2.1,0.6c-2.4-0.8-4.5-2.4-5.6-4.8
		c0.9-0.2,1.8-0.2,2.7-0.1C175.7,73.1,177.7,74.3,179.5,75.5z M175.2,71.1c0.9-0.8,2.2-0.5,3.3-0.2c0.9,1.8,2.8,2.7,4.1,4.1
		c-0.7,0.2-1.5,0.5-2.2,0.1C178.4,74.1,176.6,72.8,175.2,71.1z M171.5,71c-0.6,0.1-1.2,0.2-1.8,0.3c0.1-0.8,0.2-1.5,0.4-2.3
		C170.5,69.7,171.2,70.3,171.5,71z M171.2,71.9c1.3,2.1,3.2,3.7,5.5,4.8c-0.3,0.3-0.6,0.5-0.9,0.8c-1.8-0.3-3.1-1.5-4.6-2.5
		c-1-0.7-1.8-1.6-2.3-2.7C169.6,72,170.4,71.9,171.2,71.9z M169.4,71.5c-0.7-0.5-1.4-1-1.7-1.8c-0.2-0.8,0-1.6,0.2-2.4
		c0.5,0.5,1.1,1,1.5,1.6C169.3,69.7,169.2,70.6,169.4,71.5z M168.5,71.8c-0.5,0.1-1.1,0.1-1.7,0.2c0.1-0.6,0.1-1.3,0.1-1.9
		C167.4,70.7,168.3,71.1,168.5,71.8z M168.3,72.6c0.6,1.1,1.3,2,2.3,2.8c1.3,0.9,2.5,1.9,4,2.6c-0.8,0.1-1.7,0.4-2.5,0.1
		c-1.4-0.6-2.6-1.4-3.9-2.1c-1.1-0.7-2.2-1.5-2.8-2.7C166.2,72.5,167.3,72.6,168.3,72.6z M174.1,78.7c1.2-0.4,2.4-0.9,3.3-1.8
		c1.1,0,2-0.5,2.9-1c-1.1,1.5-2.8,2.7-4.7,2.9c-0.8,0.1-1.5,0.4-2.2,0.7C173.8,79.3,173.9,79,174.1,78.7z M176.6,79.4
		c1.8-0.3,3-1.7,4.3-2.8c1.3-0.6,2.8-0.7,4.2-0.9c1,0,1.7-0.9,2.5-1.4c-1.7,2.6-5.4,2.2-7.5,4.3c-1.3,1.3-3.2,1.5-4.7,2.4
		c-0.8,0.6-1.4,1.6-2.5,1.7c-1.2,0.1-2.5,0.1-3.7,0.3c0.5-0.7,1-1.4,1.5-2.1c0.8,0,1.7,0.1,2.5-0.4
		C174.2,79.9,175.4,79.5,176.6,79.4z M179.7,87.7c0.1,0.8-0.4,1.4-0.7,2.1c-0.2-0.8-0.8-1.5-1.5-2c0.6-0.5,0.9-1.3,1-2
		c-0.2-0.4-0.5-0.9-0.7-1.3c-0.1,0.2-0.3,0.3-0.4,0.5c1,1.2-0.2,2.4-1,3.3c-0.4-0.5-0.8-1-1.2-1.4c0.9-0.7,0.6-1.8,0.4-2.7
		c0.4-0.3,0.9-0.3,1.4-0.3c-0.3,0.4-0.7,0.7-1.1,1.1c0.2,0.2,0.3,0.3,0.5,0.5c0.2-0.1,0.5-0.4,0.7-0.5c0.2-0.6,0.4-1.2,0.7-1.8
		c0.1,0.2,0.2,0.7,0.3,0.9c0.7-0.4,1.4-0.9,2-1.4c1.1,1.2,0.5,2.9,0.2,4.3c-0.4-0.2-0.9-1.2-1.4-0.8
		C179.1,86.6,179.7,87.1,179.7,87.7z M169.9,96.9c0.6-0.3,1.1-0.6,1.6-0.9c0.4,0.6,0.7,1.1,1.1,1.7c-0.4,0.5-0.8,1-1.2,1.4
		c-0.5-0.1-1-0.3-1.5-0.4C170,98.2,170.1,97.5,169.9,96.9z M173.8,84.7c0.5,0.1,0.9,0,1.4,0c0.1,0.9-0.4,1.6-1.1,2.1
		c-0.3-0.3-0.6-0.5-1-0.8C173.4,85.6,173.6,85.1,173.8,84.7z M173.6,83.4c1-0.6,1.8-1.4,2.7-2.1c-0.1,1.2-0.9,2.1-1.8,2.8
		C174.1,84,173.9,83.7,173.6,83.4z M172.8,90.6c0.4,0.4,0.8,0.7,1.3,1.1c0,0.7-0.2,1.5-0.4,2.2c-0.5-0.8-0.9-1.6-1.6-2.2
		C172.3,91.3,172.5,90.9,172.8,90.6z M171.1,88.1c0.6-0.6,1-1.2,1.5-1.9c1.4,0.7,1.2,2.6,0.4,3.6C172.8,89,172,88.3,171.1,88.1z
		 M173.6,94.2c0.4,0.4,1.1,0.8,1,1.5c-0.2,0.8-0.8,1.3-1.3,1.9c-0.5-0.6-1-1.3-1.5-1.8C172.6,95.5,173.4,95.1,173.6,94.2z M174.1,94
		c0.5-0.8,0.7-1.7,0.5-2.6c0.2-0.2,0.5-0.4,0.7-0.5c0.4,0.4,0.9,0.7,1.2,1.1c0.1,1.2-0.7,2.2-1.3,3.1
		C174.9,94.7,174.5,94.4,174.1,94z M174.5,91.1c-0.4-0.2-0.9-0.5-1.3-0.7c0.4-0.6,1-1.1,1-1.8c0.1-0.6,0-1.3,0.4-1.8
		c0.5,0.7,1.1,1.5,1.2,2.4C175.6,89.9,175,90.5,174.5,91.1z M172.7,85.6c-0.5-1.2-1.7-1.6-2.8-1.9c1.1-0.2,2.5-0.6,3.4,0.3
		C173.1,84.6,172.9,85.1,172.7,85.6z M170.1,84.2c0.7,0.4,1.5,0.8,1.8,1.5c-0.2,0.8-0.7,1.5-1.2,2.1c-0.4-0.5-0.8-1-1.3-1.5
		C169.9,85.7,170.1,84.9,170.1,84.2z M170.9,88.4c0.5,0.5,1.3,0.8,1.2,1.6c0,0.5-0.3,0.9-0.5,1.3c-0.4-0.7-0.9-1.4-1.6-1.9
		C170.4,89.1,170.6,88.8,170.9,88.4z M171.6,91.9c0.6,0.7,1.1,1.5,1.2,2.4c-0.1,0.5-0.7,0.8-1.1,1.2c-0.4-0.7-1-1.3-1.6-1.9
		C171,93.5,171.4,92.6,171.6,91.9z M171.7,99.4c0.4-0.4,0.9-0.7,1.3-1.1c0.2,0.4,0.4,0.7,0.6,1.1C173,99.4,172.3,99.4,171.7,99.4z
		 M173.2,100.1c-0.6,0.6-1.4,1.1-2.3,0.8C171.5,100.3,172.3,100,173.2,100.1z M176,99.9c-0.7,0.6-1.6,0.8-2.5,0.8
		C174.1,99.8,175.2,100,176,99.9z M175.6,99.2c-0.5,0-0.9,0.1-1.4,0.1c-0.2-0.5-0.4-0.9-0.7-1.3c0.8-0.5,1.5-1.2,1.8-2.1
		c0.5,0.3,1.2,0.6,1.2,1.3C176.5,97.9,176,98.6,175.6,99.2z M175.5,95.3c0.9-0.6,1.5-1.5,1.9-2.5c0.2,0.5,0.4,1,0.5,1.5
		c0,0.7-0.5,1.3-0.9,2C176.5,95.9,176,95.6,175.5,95.3z M175.7,90.6c0.5-0.6,1-1.3,0.9-2.1c0.2-0.1,0.5-0.4,0.7-0.5
		c0.3,0.4,0.7,0.9,0.9,1.4c0,0.8-0.5,1.5-0.9,2.2C176.8,91.3,176.2,90.9,175.7,90.6z M176.7,83.2c0-0.7,0.1-1.5,0.4-2.1
		c0.3-0.2,0.7-0.4,1.1-0.5C177.9,81.5,177.6,82.6,176.7,83.2z M179.9,81.6c-0.4,0.5-1,0.9-1.5,1.2c0-1,0.3-2,0.9-2.8
		c0.4-0.2,0.9-0.3,1.3-0.4C180.4,80.4,180.3,81.1,179.9,81.6z M169.7,83.8c-0.2,0.5-0.2,1.1-0.5,1.7c-0.4,0.7-1.3,0.7-2,0.9
		c0,0.1,0,0.2,0,0.2c0.6,0.4,1.2,0,1.9,0.1c0.4,0.5,0.8,1,1,1.7c-0.2,0.7-0.9,1-1.4,1.4c-0.2-1,0.2-1.9,0.5-2.9
		c-0.1,0-0.3,0.1-0.4,0.1c-0.5,0.8-1.1,1.5-1.9,1.7c0.3-0.9,0.2-1.8,0.2-2.8c0.6-0.6,1.1-1.3,1.5-2
		C168.9,83.9,169.3,83.8,169.7,83.8z M168.2,88.9c-0.1,0.5-0.1,1.1-0.3,1.6c-0.3,0.8-1.2,1.1-1.9,1.4c-0.1-0.5-0.1-1-0.2-1.5
		c0.2-0.4,0.4-0.9,0.6-1.3C167,89,167.6,89,168.2,88.9z M167.5,91.9c0.2,0.7,0.6,1.5,0.3,2.2c-0.3,0.3-0.8,0.4-1.2,0.6
		c-0.2-0.8-0.4-1.7-0.9-2.4C166.3,92.2,166.9,92,167.5,91.9z M168.1,94.8c0.2-0.3,0.4-0.6,0.7-1c-0.2-0.8-0.5-1.5-0.9-2.2
		c0.3-0.4,0.5-0.8,0.8-1.1c0.9,0.9,0.9,2.3,0.2,3.3l0.4,0.1c0.2-0.3,0.5-0.6,0.7-0.8c0.3-1.2,0-2.5-1.2-3c0.3-0.2,0.6-0.3,1-0.5
		c0.4,0.6,1.1,1.2,1.1,2.1c0,0.7-0.5,1.3-0.8,1.9c0,0,0,0,0.1,0c-0.2,0.1-0.3,0.3-0.5,0.4c0.5,0.3,1.1,0.8,1.3,1.4
		c-0.2,0.5-0.7,0.7-1.1,1c-0.1-0.7-0.3-1.4-0.5-2.1c-0.2,0.2-0.3,0.4-0.5,0.6c0.1,0.4,0.1,0.9,0.2,1.3c-0.4,0.2-0.7,0.5-1,0.8
		c0.5,0,0.9,0,1.4,0c0.1,0.4,0.1,0.9,0.1,1.3c-0.6-0.4-1.2-0.8-1.8-1.1c0-0.8-0.5-1.5-1-2C167.1,95.1,167.6,95,168.1,94.8z
		 M171.1,99.9c-1.9,0.9-4.4,1.6-6.1-0.1c1.2,0,2.5,0.1,3.7-0.3C169.5,99.2,170.3,99.7,171.1,99.9z M170.2,101
		c1.5,0.6,2.1,2.1,3.4,2.9c1.2,0.4,2.8,0.5,3.8-0.4c0.9,1.8,1.7,3.8,1.7,5.8c-1.3-1.6-2-3.5-3.3-5c-0.1,2.2-0.1,4.5-0.4,6.7
		c-0.8-1.2-1.2-2.8-2.5-3.6c-0.2,0.6-0.3,1.2-0.4,1.8c-0.1,0-0.2,0-0.3,0c-0.6-2.2-1.8-4.3-3.1-6.2c-0.1,1.1-0.2,2.2-0.4,3.2
		c-0.2-1.6-0.7-3.2-1.2-4.7C168.6,101.3,169.4,101.2,170.2,101z M176.2,103.6c-0.8,0.2-1.6,0.2-2.3-0.1c-0.7-0.5-1.2-1.3-1.8-1.9
		c1-0.4,2.1-0.1,3.1-0.4c1-0.2,1.9-0.5,2.9-0.8c0.1,0.4,0.2,0.8,0.3,1.2C177.5,102.1,176.9,103,176.2,103.6z M177.6,98.9
		c-0.5,0.1-0.9,0.2-1.4,0.3c0.5-0.8,1-1.6,1-2.6c0.4-0.5,0.9-0.9,1.3-1.4c0.3,0.5,0.7,0.9,0.8,1.4C179.1,97.6,178.7,98.7,177.6,98.9
		z M177.3,92.2c0.6-0.6,1.1-1.3,1.5-2c0.7,0.5,1.6,1.1,1.4,2.1c-0.2,1-1,1.7-1.5,2.6C178.6,93.9,178.1,93,177.3,92.2z M179.3,90
		c0.9-0.7,1.3-1.8,1.1-2.9c0.6,0.5,1.3,0.9,1.5,1.6c0.3,1.1-0.3,2.2-0.9,3.1C180.7,91,180.1,90.4,179.3,90z M180.9,86.7
		c0.3-0.9,0.6-1.9,0.7-2.8c0.9,1.2,1.3,2.7,1,4.1C182.1,87.6,181.5,87.1,180.9,86.7z M181.4,83.4c0.4-0.6,1-1.2,0.6-2
		c-0.6,0.2-0.6,0.9-0.9,1.4c-0.2-0.2-0.5-0.4-0.7-0.6c0.3-0.3,0.6-0.7,0.9-1c0.4,0,0.8-0.1,1.2-0.1c0.5,1.3,2,2.8,0.7,4.1
		C182.7,84.5,182.2,83.8,181.4,83.4z M181,80.8c0.1-0.4,0.2-0.9,0.2-1.3c0.8-0.4,1.6-0.7,2.4-0.9C183.4,79.9,182.1,80.4,181,80.8z
		 M183.6,81.8c-0.4-0.3-0.7-0.5-1.1-0.8c0.5-0.3,1.1-0.6,1.6-0.8C184,80.7,183.8,81.3,183.6,81.8z M184,79.7
		c0.5-1.5,2.4-1.6,3.6-2.2C186.7,78.6,185.5,79.7,184,79.7z M188.8,77.7c1.1-0.2,2-0.7,3-1.1c-0.7,1.1-1.8,1.6-2.8,2.3
		c-0.6,0.4-1.3,0.2-1.9,0.2C187.6,78.5,188,77.8,188.8,77.7z M188.5,77.1c0.1-0.3,0.1-0.5,0.2-0.8c-1.4,0.4-2.7,1-4.1,1.6
		c-0.1-0.1-0.4-0.2-0.5-0.3c-1.2,0.4-2.3,0.9-3.4,1.4c2-1.7,4.8-1.6,6.8-3.4c0.6-0.5,0.8-1.2,1.1-1.8c0.6-0.2,1.2-0.3,1.8-0.4
		c0.8,0.5,1.4,1.3,2.1,2C191.1,75.9,189.9,76.8,188.5,77.1z M189.1,62.8c-0.3-0.8,0.2-1.6,0.5-2.3c0.4,0.6,0.9,1.2,1.4,1.7
		c-0.3,0.8-0.5,1.6-0.6,2.4C189.8,64.1,189.2,63.6,189.1,62.8z M189.9,65c-0.5,0.5-0.7,1.2-0.8,1.9c-1.1-1-1.4-2.5-0.8-3.8
		C188.7,63.8,189.3,64.4,189.9,65z M190.2,59.9c-0.3-0.7,0.2-1.3,0.5-1.9c0.3,0.8,0.9,1.3,1.7,1.6c-0.4,0.6-0.6,1.3-0.9,2
		C191,61.2,190.4,60.7,190.2,59.9z M191.3,56.7c-0.3,0.1-0.6,0.1-0.9,0.2c-0.3-0.3-0.5,0-0.7,0.1c0.2,0.2,0.5,0.4,0.7,0.7
		c-0.3,0.5-0.7,1-1,1.5c-1-0.6-0.7-1.4-1.4-2.2l-0.2-0.3c0.5,0.1,1,0.1,1.5,0.1c0.1-0.3,0.1-0.7,0.2-1c0.6,0.3,1.3,0.4,2,0.6
		c0.6,0.3,1.3,0.6,1.6,1.2c-0.2,0.6-0.5,1.1-0.7,1.7C191.7,58.6,191.2,57.7,191.3,56.7z M185.4,59.1c-0.3-0.6-0.3-1.4-0.8-2
		c0,0.3-0.1,0.8-0.2,1.1c-0.3-0.3-0.6-0.6-0.9-0.8c0.1-0.3,0.2-0.5,0.3-0.8c0.8,0.2,1.6,0.3,2.4,0.5c0.5,0.4,0.8,0.8,1.3,1.3
		c-0.3,0.6-0.5,1.3-0.7,1.9C186.3,59.9,185.8,59.6,185.4,59.1z M186.7,60.7c-0.8,0.7-1.1,1.6-1.2,2.6c-0.5-0.5-1.2-0.8-1.4-1.6
		c-0.3-0.8,0.2-1.7,0.5-2.4C185.1,59.9,185.8,60.4,186.7,60.7z M186.2,55.4c0.6,0.1,1,0.7,1.5,1c0,0.3-0.1,0.9-0.1,1.1
		C187,57,186.2,56.4,186.2,55.4z M187.5,53.4c0.7,0.1,1.4,0.2,2.1,0.3c0.5,0.6,1.1,1.1,1.7,1.5c0.2,0.2,0.6,0.3,0.6,0.7
		C190.3,55.6,188.7,54.7,187.5,53.4z M188.9,56.2c-1.6-0.8-3.2-1.5-4.7-2.5c1.1,0,2.4-0.3,3.2,0.6C188,54.8,188.9,55.3,188.9,56.2z
		 M185.6,55.2c0,0.4,0.1,0.9,0.1,1.3c-1.4-0.4-2.6-1.2-3.8-1.9C183.1,54.7,184.4,54.6,185.6,55.2z M182.6,55.9c0.8,0,0.6,1.5-0.2,1
		c-1-0.2-2.1-0.5-3.1-0.9C180.4,56,181.5,55.7,182.6,55.9z M180.5,57.2c0.6,0.1,1.1,0.2,1.7,0.4c-0.4,0.8-0.7,1.6-0.7,2.5
		c-0.5,0.5-0.8,1.1-1.1,1.8c-1.2-0.8-1.7-2.7-0.4-3.7c0.3,0.6,0.7,1.3,1.5,1.6C181.3,58.9,180.9,58,180.5,57.2z M181.6,60.5
		c0.5,0.4,0.9,0.8,1.4,1.1c-0.1-0.2-0.2-0.6-0.2-0.8c-0.8-0.9-0.5-2.2-0.1-3.2c0.7,0,1,0.9,1.5,1.2c-0.7,0.9-1.2,2-1,3.2
		c-0.4,0.5-0.7,1.1-1,1.7C181.5,62.9,181,61.6,181.6,60.5z M183.4,62.4c0.6,0.4,1.2,0.9,1.9,1.1c-0.6,0.7-0.8,1.6-0.9,2.6
		C183.3,65.2,182.5,63.7,183.4,62.4z M185.6,63.6c0.4,0.6,0.8,1.2,1.3,1.7c-0.4,0.7-0.5,1.4-0.6,2.1c-0.4-0.5-1.1-1-1.1-1.8
		C185.2,65,185.4,64.3,185.6,63.6z M186.8,61c0.4,0.3,0.6,1.2,1.2,1.2c0.2-0.5-0.2-0.8-0.3-1.3c-0.3-0.7,0-1.5,0.1-2.2
		c0.6,0.4,1.3,0.7,1.8,1.2c-0.6,0.8-1.3,1.7-1.3,2.8c-0.7,0.6-0.9,1.4-1,2.3C186.2,63.9,186,62.3,186.8,61z M187.1,65.3
		c0.6,0.9,1.3,1.7,2.3,2.1c-0.6,0.5-0.8,1.2-0.9,1.9c-0.7-0.7-1.6-1.5-1.7-2.6C186.8,66.3,187,65.8,187.1,65.3z M189.6,70.3
		c0.3,0.6,0.6,1.3,1,1.8c-0.8-0.6-1.5-1.3-2.3-1.9C188.8,70.3,189.2,70.3,189.6,70.3z M190.4,70.1c0.6-0.2,1.1-0.3,1.7-0.5
		c0.2,0.7,0.5,1.5,0.5,2.2c-0.2,0.4-0.6,0.5-1,0.4C190.9,71.7,190.6,70.9,190.4,70.1z M191.9,68.9c-0.3,0.1-0.6,0.3-0.9,0.5
		c-0.6,0.1-1.2,0.2-1.8,0.4c0-0.7,0-1.4,0.2-2.1c0.4,0.4,0.8,0.9,1.2,1.3c0.2-0.1,0.3-0.3,0.5-0.4c-0.6-0.8-1.6-1.8-1.1-2.9
		c0-0.3,0.6-1,0.7-0.3c0.4,0.8,1,1.5,1.9,1.7C192.3,67.6,192.1,68.2,191.9,68.9z M191.6,62.6c0.6,0.3,1,0.8,1.5,1.2
		c0.2-0.1,0.3-0.3,0.5-0.4c-0.6-0.4-1.2-1-1.3-1.7c0-0.5,0.1-1.1,0.2-1.6c0.6,0.7,1.3,1.3,2.1,1.7c-0.5,0.7-1,1.5-1,2.4
		c-0.7,0.7-1.1,1.6-1.1,2.7C191.1,66.1,190.6,63.9,191.6,62.6z M197.1,66c-0.3-0.7,0.1-1.4,0.2-2c0.7,0.7,1.5,1.4,2.5,1.5
		c-0.6,0.5-0.9,1.3-1,2.1C198,67.2,197.4,66.7,197.1,66z M197.8,67.5c-0.7,0.1-1.5,0.2-2.2,0.4c0.2-0.6,0.4-1.2,0.6-1.7
		C196.8,66.7,197.3,67.1,197.8,67.5z M199.7,65c-0.7-0.5-1.6-1-1.7-1.9c0.1-0.4,0.2-0.9,0.3-1.3c0.7,0.7,1.6,0.9,2.5,0.8
		C200.2,63.3,199.8,64.1,199.7,65z M197.2,63.1c-0.8-0.5-1.9-0.9-2.1-2c0-0.5,0.2-1,0.3-1.4c0.6,1,1.5,1.7,2.6,2
		C197.8,62.1,197.5,62.6,197.2,63.1z M196.7,63.6c-0.3,0.8-0.4,1.6-0.4,2.4c-0.7-0.4-1.4-0.8-1.7-1.5c-0.5-0.8,0-1.6,0.2-2.4
		C195.4,62.7,196,63.2,196.7,63.6z M193.1,67.4c0.4,0.3,0.8,0.6,1.2,1c-0.5,0.1-1.1,0.2-1.6,0.4C192.8,68.3,192.9,67.8,193.1,67.4z
		 M194.9,69c-0.1,0.7-0.2,1.4-0.4,2c-0.3,0.3-0.8,0.4-1.2,0.6c-0.2-0.7-0.4-1.4-0.6-2.2C193.4,69.2,194.2,69.1,194.9,69z
		 M193.4,66.4c-0.2-0.6,0.2-1.2,0.4-1.7c0.4,0.7,1,1.2,1.7,1.7c-0.3,0.6-0.5,1.3-0.5,1.9C194.3,67.8,193.6,67.2,193.4,66.4z
		 M195.8,68.7c0.6-0.3,1.2-0.4,1.8-0.5c-0.4,1.1-1,2.3-2.3,2.6C195.4,70.1,195.4,69.4,195.8,68.7z M198.5,68.2
		c0.3-0.1,0.7-0.1,1.1-0.2c-0.5,0.8-1.1,1.6-2,1.9C197.8,69.3,198.1,68.7,198.5,68.2z M199.4,67.4c0.2-0.5,0.4-1.1,0.7-1.6
		c0.4,0.3,0.9,0.6,1.3,0.9C200.7,67,200.1,67.3,199.4,67.4z M202.2,66.9c0.2,0.2,0.1,0.4-0.1,0.6c-0.6,0.8-1.5,1.1-2.4,1.4
		C200.4,67.9,201.3,67.5,202.2,66.9z M202,66.4c-0.7-0.3-1.3-0.9-1.5-1.6c0-0.6,0.3-1.2,0.5-1.8c0.8,0.7,1.6,1.4,2.7,1.3
		c0.1,0.2,0.2,0.7,0.3,0.9C203.3,65.5,202.7,66,202,66.4z M202.4,60.2c-0.4-0.6-0.4-1.4-0.9-1.9c0,0.4-0.1,1.1-0.1,1.4
		c-0.6-0.3-1.3-0.6-1.8-1.1c-0.5-0.7,0-1.6,0.1-2.4c0.8,0.5,1.6,1.1,2.2,1.9c0.1,0,0.3,0.1,0.4,0.2c0.5,1.1,1.4,1.9,2,3
		C203.7,61.1,203,60.8,202.4,60.2z M201.5,60.1c-0.4,0.7-0.6,1.4-0.8,2.1c-1.6,0-2.5-1.7-2-3.1C199.6,59.5,200.5,60.1,201.5,60.1z
		 M198.6,58.1c-0.5-0.4-1.1-0.6-1.4-1.2c-0.3-0.5,0.1-1.1,0.3-1.6c0.7,0.3,1.3,0.5,2,0.8C199,56.8,198.8,57.4,198.6,58.1z
		 M198.6,58.6c-0.6,0.7-0.8,1.6-0.6,2.5c-0.7-0.4-1.5-0.8-1.7-1.6c-0.4-0.7,0-1.6,0.1-2.3C197.1,57.9,197.8,58.4,198.6,58.6z
		 M196.5,56c-0.7-0.3-1.4-0.7-1.9-1.2c0.8,0.1,1.6,0.2,2.4,0.4C196.8,55.5,196.7,55.7,196.5,56z M196.4,56.4
		c-0.3,0.7-0.7,1.4-1.1,2.1c-0.7-0.8-1.1-1.7-1.5-2.6c0.1-0.3,0.2-0.5,0.3-0.8C194.7,55.9,195.5,56.3,196.4,56.4z M195.5,59
		c-0.5,0.7-0.9,1.4-1.1,2.2c-0.5-0.5-1.1-1.1-1.2-1.9c-0.1-0.6,0.3-1.1,0.5-1.6C194.3,58.2,194.9,58.7,195.5,59z M192.5,55.8
		c0.6,0.2,1.2,0.4,1.2,1.1C193.2,56.6,192.8,56.2,192.5,55.8z M193.3,55.3c-1.2-0.3-2.2-1-3-2c1.2,0.3,2.1,1.1,3.3,1.4
		C193.5,54.9,193.4,55.1,193.3,55.3z M179.9,57c0,0.1,0,0.4,0,0.6c-1.3-0.1-2.5-0.3-3.7-0.6C177.2,56.4,178.8,56.4,179.9,57z
		 M177.2,58.3c0.7-0.1,1.5-0.1,2.2-0.1c-0.2,0.4-0.4,0.7-0.6,1.1c-0.3-0.3-0.5-0.6-0.8-0.9c-0.1,0.2-0.3,0.4-0.4,0.6
		c0.3,0.3,0.5,0.6,0.8,1c-0.1,0.3-0.3,0.6-0.4,0.9c-0.4-0.7-0.9-1.3-1.3-2C176.8,58.6,177,58.4,177.2,58.3z M182.7,65.1
		c0.4,0.5,0.9,1,1.4,1.4c-0.5,0.5-0.8,1.2-0.8,1.9C181.8,68.1,182.4,66.1,182.7,65.1z M184.7,66.8c0.5,0.5,1.1,0.9,1.7,1.3
		c-0.3,0.3-0.5,0.6-0.8,0.9c-0.6-0.2-1.2-0.4-1.9-0.6C184,67.8,184.3,67.3,184.7,66.8z M186.8,68.6c0.4,0.4,0.9,0.9,1.3,1.3
		c-0.6-0.2-1.2-0.4-1.8-0.6C186.4,69,186.6,68.8,186.8,68.6z M189.7,72.8c-0.3,0.1-0.7,0.1-1,0.2c-0.4-0.5-0.8-1-1.2-1.6
		C188.3,71.9,189,72.3,189.7,72.8z M188,73.4c-0.7,0.2-1.5,0.4-2.2,0.5c-1-1.1-2.2-2.1-3.2-3.2c1.3-0.2,2.7-0.5,3.9,0.2
		C186.9,71.8,187.5,72.6,188,73.4z M181.5,70.2c-0.5-0.3-0.9-0.7-1.3-1.2c1.1,0.4,2.2,0.6,3.3,0.8C182.8,69.9,182.1,70.2,181.5,70.2
		z M182,70.9c0.9,1.2,2.1,2.1,3.1,3.1c-0.6,0.3-1.5,0.8-2.1,0.2c-1.2-1-2.5-2-3.5-3.2c0-0.1,0-0.4,0-0.5
		C180.3,70.6,181.1,70.8,182,70.9z M170.6,59.8c0-0.2,0.1-0.5,0.1-0.7c0.7,0,1.4,0,2,0.4C172,59.8,171.3,60,170.6,59.8z M172.2,63.9
		c-0.4,0.5-0.8,0.9-1.1,1.4c-0.3-0.5-0.7-1-0.9-1.6c0.2-0.8,0.7-1.4,1.1-2.1C172.2,62.1,172.2,63,172.2,63.9z M171.2,66.2
		c-0.6,0.6-1.1,1.2-1.5,2c-0.6-0.5-1.2-1.1-1.3-2c0.1-0.7,0.4-1.3,0.9-1.9l0.2-0.2C170.1,64.8,170.7,65.4,171.2,66.2z M167.8,65.8
		c-0.1-0.1-0.2-0.3-0.3-0.4c0.3-0.5,0.7-1.1,1.3-1.3C168.5,64.7,168.1,65.2,167.8,65.8z M167.7,66.8c-0.4,0.6-0.7,1.3-1,1.9
		c-0.7-0.7-1.1-1.5-1.3-2.4c-0.2,0.3-0.3,0.6-0.4,1c-0.2-0.2-0.4-0.4-0.6-0.6c-0.1-0.5-0.4-0.9-0.1-1.4c0,0.1,0.2,1.2,0.6,0.8
		c0.7-0.3,1.3-0.8,1.9-1.3C166.9,65.6,167.2,66.3,167.7,66.8z M165.3,68.2c0.4,0.4,0.8,0.8,1.2,1.2c-0.1,0.9-0.2,1.8-0.1,2.7
		c-0.6-0.5-1.2-0.9-1.4-1.6C164.7,69.7,165.1,68.9,165.3,68.2z M165.7,72.1c-0.5,0.2-0.9,0.7-1.5,0.6c0-0.6,0.1-1.3,0.2-1.9
		C164.8,71.3,165.2,71.7,165.7,72.1z M164.7,73.5c0.6,1,1.3,1.8,2.3,2.4c1.5,1,3.1,2,4.8,2.7c0.5,0.3,1.1,0.1,1.6,0.1
		c0.1,0.5-0.5,0.6-0.8,0.7c-0.8,0.3-1.7,0.3-2.4-0.1c-2.8-1.4-6.2-2-8.3-4.5C162.5,73.8,163.7,73.6,164.7,73.5z M160.6,78.8
		c1.2,0.5,2.2,1.3,3.4,1.8c1.6,0.6,3.2,1.2,4.9,1.9c-0.3,0.3-0.5,0.7-0.8,1c-1.9-0.1-3.9-0.7-5.5-1.8c-1.7-1.1-3.9-1.5-5.1-3.3
		c0.4-0.5,0.8-1,1.2-1.5C159.3,77.6,159.7,78.5,160.6,78.8z M160,81.1c1.9,0.7,3.4,2.2,5.4,2.6c0.7,0.2,1.5,0.3,2.2,0.4
		c-0.5,0.5-1,1.6-1.9,1.2c-2.5-0.7-4.8-1.8-7.2-2.8c-1-0.5-2-0.9-2.8-1.7c-0.4-0.9,0.3-1.7,1.1-2.1C157.7,79.8,158.8,80.6,160,81.1z
		 M155.6,78.8c0-0.3,0-0.7,0-1c0.3,0.1,0.6,0.3,0.9,0.5C156.2,78.4,155.9,78.6,155.6,78.8z M158.7,83.3c2.5,1,4.9,2.3,7.6,2.8
		c0,0.6,0,1.3,0,1.9c-1.7,0-3-1.2-4.5-1.6c-1.9-0.6-3.6-1.5-5.4-2.2c-0.8-0.4-1.6-0.7-2-1.5c-0.2-0.6,0.3-1.1,0.6-1.5
		C156,82.1,157.3,82.8,158.7,83.3z M162,87.2c1.2,0.5,2.4,1.3,3.7,1.5c-0.2,0.5-0.2,1.3-0.9,1.4c-0.7,0-1.4-0.3-2-0.5
		c-2.5-0.9-5-1.6-7.4-2.5c-1.4-0.4-1.3-2.2-1.2-3.3C156.7,85.2,159.3,86.3,162,87.2z M163.2,90.5c0.7,0.2,1.3,0.3,2,0.4
		c0.2,0.5,0.2,1.4-0.6,1.5c-1.2,0-2.4-0.4-3.5-0.7c-1.8-0.5-3.8-0.8-5.6-1.5c-0.5-0.8-1-1.7-1-2.6C157.4,88.6,160.3,89.5,163.2,90.5
		z M162.9,92.9c0.8,0.2,1.7,0.2,2.5,0.1c0.3,0.7,0.4,1.4,0.4,2.2c-2.4-0.3-4.9-0.6-7.2-1.5c-1.3-0.5-2.8-1.1-3-2.6
		C158,91.7,160.5,92.3,162.9,92.9z M165.7,95.8c0.6-0.1,1.1,0.5,1.2,1c-0.4,0.8-1.3,0.6-2,0.4c-2.3-0.5-4.6-0.7-6.7-1.7
		c-0.7-0.2-0.6-1.1-0.8-1.6C160,95,162.8,95.7,165.7,95.8z M167,97.9c0.7-0.1,1.2,0.5,1.7,0.9c-2.1,0.7-4.3,0.3-6.4-0.1
		c-0.9-0.1-1.4-0.8-1.9-1.5C162.6,97.4,164.8,98.4,167,97.9z M179.4,101.9c0.9,1,1.6,2,2.2,3.2c-1.3-0.7-2.7-1.3-4.2-1.8
		c0.5-0.4,1-0.8,1.5-1.3c0.2-0.6,0-1.2-0.2-1.8c0.6-0.2,1.1-0.4,1.7-0.6c0.2,0.8,0.4,1.6,0.7,2.4C180.6,101.9,180,101.9,179.4,101.9
		z M180.1,98.2c-0.3,0.1-0.6,0.1-0.8,0.2c0.3-0.7,0.9-1.3,0.7-2.1c-0.2-0.5-0.7-0.9-1-1.3c0.7-0.6,1.3-1.3,1.8-2
		c0.2,0.4,0.5,0.8,0.7,1.2C180.6,95.4,180.1,96.8,180.1,98.2z M180.9,92.3c0.4-0.3,0.8-0.6,1.2-0.9c0.4,0.5,0.7,1.1,1.1,1.7
		c-0.4,0.3-0.7,0.5-1.1,0.8C181.7,93.3,181.4,92.8,180.9,92.3z M182.3,90.9c0.2-0.4,0.1-1.2,0.7-0.9c0.2,0.8,0.8,1.3,1.6,1.5
		c0,0.3-0.1,0.6-0.1,0.9c-0.3,0.1-0.6,0.3-0.9,0.4C183.3,92.1,183,91.4,182.3,90.9z M183.3,89.4c-0.2,0-0.5,0-0.6,0
		c-0.1-1,0.6-1.7,0.8-2.6c0.1,0,0.2,0.1,0.3,0.2c0,0.2,0,0.5,0.1,0.7C183.6,88.2,183.4,88.8,183.3,89.4z M183.3,86.2
		c0.1-0.7,0.8-1.1,1-1.7c0.1-0.4,0.2-0.8,0.2-1.3c0.4,0.4,0.5,0.9,0.7,1.4C184.5,85.1,184.1,86,183.3,86.2z M185,82.8
		c-0.4-0.1-0.8-0.2-1.2-0.3c0.5-0.7,0.9-1.5,1-2.3c0.5,0.4,0.9,0.9,1.1,1.6C185.5,82.1,185.3,82.5,185,82.8z M165.9,50.1
		c0.8,0.7,1.2,1.8,1.8,2.7c0.3-1,0.5-2,0.7-3c0.1,0,0.4-0.1,0.6-0.2c-0.7,2-1,4.3-0.4,6.4c-1,0.5-1.9,1.3-2.7,2
		c-0.1-1.6,0.4-3.2,0.4-4.8C166.3,52.3,166,51.2,165.9,50.1z M166.9,50c0.2,0,0.6,0,0.7,0c-0.1,0.4-0.1,0.7-0.2,1.1
		C167.2,50.7,167.1,50.3,166.9,50z M168.6,56.9c0.1,0.8,0.3,1.5,0.7,2.2c-0.2,0.5-0.4,0.9-0.7,1.4c-0.9,0-1.8,0-2.7-0.1
		c0-0.3-0.1-0.6-0.1-1C166.6,58.5,167.4,57.5,168.6,56.9z M170.2,58.3c-0.1,0.7-0.4,2.2-1,2.8C169.2,60.3,169.8,58.9,170.2,58.3z
		 M165.4,58.8c-0.2,0-0.5,0-0.7-0.1c-0.2,1.2-0.8,2.2-1.7,3c-0.2-0.8-0.3-1.6-0.4-2.5c0.5,0.3,1,0.6,1.5,0.9c-0.5-0.6-1-1.2-1.4-1.9
		c0.3-0.4,0.5-0.7,0.8-1.1c-0.3,0.1-0.6,0.1-1,0.2c0.1-1.2,0.6-2.5,0.4-3.8c-0.1-0.7-0.4-1.3-0.7-2c0.4,2,0.1,3.9-0.3,5.8
		c-0.3-1.4,0.1-2.8-0.4-4.1c-0.2-0.7-0.7-1.3-1.2-1.9c0.9-0.3,1.7-0.8,2.3-1.5c0.9,0.3,1.7,0.4,2.6,0.5c0.8,2,0.4,4.2,0.1,6.3
		C165,57.5,165.2,58.2,165.4,58.8z M165.2,61.6c-0.5,0.2-0.9,0.3-1.4,0.5c0.5-0.6,1-1.3,1.3-2.1C165.1,60.6,165.2,61.1,165.2,61.6z
		 M160.4,48.9c0.5,0.2,1.2,0.4,1.3,1c-0.3,0.3-0.7,1-1.2,0.8C160.2,50.1,160.4,49.5,160.4,48.9z M159.6,50.9c-0.8,0-1.6-0.4-2.1-1
		c-0.4-0.6,0-1.3,0.6-1.5c0.5-0.3,1.1-0.2,1.5,0.2C159.9,49.4,160,50.2,159.6,50.9z M163.6,66c0.2,0.8,0.6,1.5,1.3,2
		c-0.3,0.6-0.6,1.2-0.8,1.8c-0.7-0.9-1-2-1.4-3l-0.5-0.3c0,0.5,0.1,1,0.1,1.4c-0.4-0.3-0.9-0.5-1.3-0.8
		C161.8,66.4,162.8,66.4,163.6,66z M158.9,69.2c0.1-0.1,0.4-0.3,0.5-0.4c0.4-0.4,0.8-0.9,1.3-1.3c0.5,0.4,1.1,1,1.8,0.8
		c0.3,0.9,1,1.5,1.7,1.9c-0.7,0.8-0.9,1.8-0.5,2.8c-0.7,0.1-1.4,0.3-2,0.8c0-0.6,0.1-1.1,0.1-1.7c0.2,0.3,0.5,0.6,0.7,1
		c0.2-0.1,0.3-0.3,0.5-0.4c-1-0.8-1-2.3-0.5-3.4c-0.2-0.2-0.3-0.3-0.5-0.5c-0.2,0.7-0.5,1.5-0.6,2.3c-0.7-0.3-1.2-0.8-1.6-1.4
		c-0.1,0-0.2,0-0.2,0c-0.1,0.1-0.2,0.2-0.3,0.2c-0.2,0-0.5,0-0.6-0.1C158.7,69.5,158.8,69.3,158.9,69.2z M155.9,74.3
		c0.1,0,0.4,0,0.6,0c-0.4-1.6,1-2.8,1.6-4.1c0.3,0,0.7,0.1,1.1,0.1c-0.1,0.9-0.1,1.8,0,2.6c-0.5-0.1-1.1-0.3-1.5-0.7
		c-0.2,0-0.5,0-0.7,0c0.5,0.6,1.1,1.1,1.7,1.4c-0.2,0.7-0.4,1.3-0.2,2c0.6-0.5,0.7-1.3,1-1.9c0.4,0.3,0.8,0.7,1.2,1
		c-0.5,0.3-1.1,0.6-1.5,1c-0.9,0.6-1.7,1.3-2.3,2.2c-0.2-0.2-0.5-0.3-0.5-0.6c0.4-0.4,0.8-0.8,1.2-1.2l0.4,0.2
		c0-0.2,0.1-0.5,0.1-0.6c-0.7-0.3-1.2-0.8-1.5-1.4c-0.2,0.2-0.3,0.4-0.5,0.6c0.3,0.4,0.6,0.8,0.9,1.2c-0.5,0.3-1,0.6-1.5,1
		C155.6,76.2,155.8,75.2,155.9,74.3z M153.8,81.4c-0.2,0.9-0.1,1.9-0.3,2.9c-0.3,0.1-0.6,0.2-0.9,0.3c-0.3,0.1-0.7,0.1-0.7,0.7
		c-0.9-1.7-0.7-2.7,0.2-4.4c0.4-0.8,1.3-0.8,1.9-1.2c0.3-0.3,0.6-0.7,0.9-1.1c0,0.5,0.2,1.1,0.1,1.6
		C154.6,80.6,154.1,80.9,153.8,81.4z M152.8,92.1c-0.4-1.4-0.2-3.2,1-4.2c0.1,1.4,1.1,2.4,1.3,3.8c0.1,0.9,0.9,1.4,1.5,1.9
		c0.1,0.8,0,1.6,0.6,2.2c0.8,0.6,2,0.5,2.7,1.3c-0.9,0.1-1.5-0.6-2.4-0.6l0.1-0.3c-0.5-0.2-1.1-0.4-1.6-0.8c-0.4-0.5-0.6-1.1-1-1.6
		C154.3,93.2,153.1,93.1,152.8,92.1z M146.5,103.1c0.7-1,2.1-1.1,2.8-2.2c1.1-1,2.3-2.1,3-3.5c0.3-0.5,0.5-1.2,1-1.5
		c0.5-0.4,1.1-0.5,1.7-0.7c1.4,1.7,3.7,1.9,5.4,3c-1.6,0.4-3.3-0.6-4.8,0.3c-0.6,0.8-0.4,1.8-0.2,2.7c0.2,0.8-0.8,1.1-1.1,1.7
		c-0.4,0.8-0.6,1.6-0.4,2.5c0.6,0.2,1.1,0.2,1.7,0.3c0.1,1,0.5,1.9,0.7,2.9c-0.4,0.7-1.5,0.6-2.2,0.3c-1.3-0.7-2-2.1-2.4-3.5
		c-0.2-0.6-0.2-1.5-0.9-1.8c-0.2,2,0.7,3.8,1.9,5.3c-0.8,0-1.7,0.3-2.4-0.2s-1.4-1.1-1.8-1.8c-0.3-1.4,0.1-2.8-0.2-4.1
		c-0.8,0.8-0.6,2.1-0.7,3.1c-0.5-0.2-1.1-0.3-1.6-0.5C146.3,104.6,146.2,103.8,146.5,103.1z M145.2,106c0.4,0,0.7,0.1,0.9,0.3
		c-0.4,0.3-0.8,0.6-1.2,0.9c0.3,0.2,0.7,0.4,1,0.1c0.1,0.3,0.2,0.6,0.3,0.9c-0.4-0.1-0.9-0.2-1.3-0.3c-0.1-0.3-0.2-0.6-0.3-0.9
		C144.8,106.7,145,106.3,145.2,106z M143.2,105.8c0.5,0,0.9,0,1.4,0c-0.3,0.4-0.6,0.9-1.1,1c0.2,0.4,0.5,0.8,0.7,1.2
		c-0.4,0-0.7,0-1.1,0.1C143.5,107.3,143.4,106.5,143.2,105.8z M145.2,108.6c0,1.1-0.4,2.3-1.4,2.8c-0.2-0.8-0.4-1.6-0.8-2.4
		C143.6,108.5,144.4,108.6,145.2,108.6z M142.7,106.2c0,0.4,0.1,0.9,0.1,1.3c-0.5-0.2-1-0.3-1.5-0.5
		C141.7,106.6,142.2,106.4,142.7,106.2z M141.2,109.2c-0.6-0.2-1.2-0.3-1.8-0.2c0-0.5,0-1,0-1.5
		C140.2,107.9,140.7,108.5,141.2,109.2z M138.7,108c0,0.2,0.1,0.7,0.1,0.9c-0.4,0-0.8,0-1.2-0.1C138,108.5,138.4,108.3,138.7,108z
		 M139.4,110.1c0.3-0.3,0.7-0.5,1-0.8c-0.1,0.6-0.5,0.9-1,1.2c-0.6-0.3-1.3-0.3-1.9-0.1c-0.2-0.3-0.6-0.6-0.7-1
		C137.6,109,138.7,109.7,139.4,110.1z M135.2,111.5c0.3-0.4,0.7-0.9,1.1-1.3c0.3,0.4,0.7,0.8,1,1.2c-0.5,0.2-1.1,0.8-1.6,0.2
		c-0.1,0.2-0.2,0.3-0.3,0.5c0.4,0.3,1.2,0.7,0.5,1.3c-0.4-0.1-0.7-0.3-1.1-0.5c0.1-0.3,0.4-0.9,0.6-1.2l-0.6-0.2
		C134.9,111.5,135.1,111.5,135.2,111.5z M134.6,113.4c0.3,0.3,0.7,0.5,1,0.8c-0.6,0-1.2,0-1.8-0.1
		C134.1,113.9,134.4,113.7,134.6,113.4z M135.4,114.9c-0.5,0.4-0.9,0.9-1.4,1.3c-0.4-0.3-0.8-0.6-1.1-0.9
		C133.4,114.5,134.5,114.9,135.4,114.9z M132.4,116.1c0.3,0.1,0.7,0.2,1,0.3c-0.3,0.5-0.6,0.9-1,1.4
		C132.4,117.2,132.3,116.7,132.4,116.1z M134,118.5c-0.2,0.6-0.5,1.3-0.7,1.9c-0.3-0.1-0.5-0.2-0.8-0.3c-0.2-0.6-0.1-1.3-0.2-1.9
		C132.9,118.2,133.4,118.3,134,118.5z M132.5,120.8c0.4,0.1,0.8,0.2,1.1,0.3c-0.3,0.4-0.5,0.7-0.8,1.1
		C132.7,121.7,132.6,121.2,132.5,120.8z M134.3,124.8c-0.3-0.5-0.6-1-0.9-1.5c0.3-0.2,0.6-0.4,1-0.7c-0.2-0.2-0.3-0.3-0.5-0.5
		c-0.3,0.2-0.5,0.6-0.9,0.7c0.5-0.8,1.1-1.3,1.9-2c-0.3,0-0.7-0.1-1-0.2c0-1.1,0.9-2.1,2-2.4c-0.2-0.2-0.4-0.4-0.6-0.5
		c0.3-0.1,0.5-0.3,0.8-0.4c0.3,0.8-0.1,1.9,0.6,2.5c0.1,0.5,0.3,1.2,0.9,1.2c0.2,0.2,0.4,0.4,0.7,0.6c-0.3,0.1-0.6,0.2-1,0.3
		c-0.3-0.4-0.5-0.7-0.8-1c0,0.5,0.2,1.1,0.3,1.6c-0.4,0.1-0.8,0.1-1.2,0.2l0.1,0.4c-0.2,0-0.6,0-0.8-0.1
		C134.6,123.7,134.4,124.2,134.3,124.8z M135.5,126.1c0.4-0.2,0.7-0.3,1.1-0.5c0,0.4,0,0.8,0,1.2
		C136.2,126.6,135.9,126.4,135.5,126.1z M134.8,125.8c0-1.1,0.3-2.2,1.5-2.6c0,0.6,0.1,1.1,0.2,1.7c0.8-0.7,0.4-2.1,1.4-2.7
		c-0.4,0.8-0.1,1.4,0.4,2c-0.4,0.2-1.3,0.3-1.2,1C136.3,125,135.5,125.3,134.8,125.8z M137.1,127.1c0.1-0.9,0.3-1.8,0.9-2.5
		c0.2,0.6,0.5,1.2,1,1.6c-0.5,0.4-0.9,0.8-1.2,1.4C137.6,127.5,137.3,127.3,137.1,127.1z M140.5,129.3c-0.8-0.4-1.5-0.9-2.3-1.4
		c0.4-0.4,0.7-0.7,1.1-1.1c0.3,0.4,0.5,0.8,0.8,1.1c0.2-0.1,0.3-0.3,0.5-0.5c-0.6-0.6-0.7-1.6-0.3-2.3c0.1,0.7,0.3,1.5,1,1.9
		c-0.3,0.4-0.5,0.8-0.8,1.3C140.5,128.6,140.5,129,140.5,129.3z M141.2,129.5c-0.2-0.8,0.2-1.5,0.8-2.1c0.9,0.6,1.1,1.7,1.5,2.7
		C142.7,130.1,141.8,130,141.2,129.5z M142.6,127.6c-0.5-0.8-0.1-1.6,0.5-2.2c0.3,0.4,0.6,0.9,0.9,1.3
		C143.5,127,143,127.3,142.6,127.6z M144.1,130.2c-0.3-0.7-0.6-1.4-0.7-2.1c0.2-0.5,0.6-0.8,0.9-1.2c0.4,0.4,0.7,0.9,0.8,1.5
		C144.5,128.8,144.2,129.5,144.1,130.2z M144.7,130.1c0.2-0.4,0.4-0.8,0.6-1.2c0.6,0.2,1.1,0.5,1.6,0.8
		C146.2,129.9,145.5,130,144.7,130.1z M146.4,129c-0.3-0.5-0.8-0.9-0.7-1.5c0.2-0.5,0.6-0.9,0.9-1.3c0.3,0.3,0.7,0.7,1,1
		C147,127.7,146.6,128.3,146.4,129z M147,129.7c-0.1-0.6,0.1-1.1,0.5-1.6l0.1,0.8c0.6-0.9,0.5-2,1-3c0.5,0.4,0.9,0.9,0.6,1.7
		c0.3,0,0.5,0,0.8,0c-0.1-0.9,0.5-1.5,0.7-2.3c-0.5,0.2-0.9,0.7-1.3,1c-0.2-1,0-2,0.7-2.8c0.3,0.5,0.4,1,0.9,1.3
		c0.2,0.1,0.4,0,0.5-0.1c-0.2-0.4-0.6-0.7-0.6-1.2c0.1-0.6,0.5-1.1,0.9-1.5c0.1,1,0.2,2,0.1,3.1c-0.4,0.2-0.8,0.4-1,0.8
		c-0.2,0.5-0.1,1.1-0.1,1.6c-0.4,0.1-0.9,0.3-1.3,0.4c-0.5,0.4-1.1,0.8-1.6,1.2C147.7,129.3,147.2,129.4,147,129.7z M148.4,130.2
		c0.4-0.3,0.8-0.7,1.2-1c0.3,0.1,0.6,0.2,0.9,0.4C149.9,130.1,149.1,130.2,148.4,130.2z M150.8,128.8c0.7-0.4,2.2-0.8,2.1,0.5
		C152.2,129.3,151.4,129.1,150.8,128.8z M152.6,127.2c-0.5,0-0.9,0-1.4,0c0.1-0.6,0.1-1.4,0.7-1.8c0.3,0.2,0.5,0.5,0.7,0.8
		C152.7,126.5,152.6,127,152.6,127.2z M152.8,125.9c-0.2-0.6-0.2-1.3-0.1-1.9c0.6-0.3,1.1-0.7,1.6-1.2c-0.6,0.1-1.2,0.2-1.8,0.3
		c0.1-0.5,0.1-1,0.2-1.6c0.8,0.1,1.4,0.5,1.9,1.1h-0.2c-0.1,0.8-0.4,1.6-0.1,2.5c0.6-0.5,0.3-1.4,0.8-2c0.3-0.4,0.9-0.5,1.4-0.7
		c-0.3-0.8-0.3-1.6-0.2-2.4c0.9-0.1,0.9,1.1,1.3,1.6c-0.3,0.2-0.7,0.4-1,0.6c0.1,0.5,0.2,1.1,0.2,1.6c-0.5,0.1-1.1,0-1.5,0.4
		c-0.3,0.5-0.4,1.1-0.5,1.7c0.6,0.5,0.4,1.2,0.1,1.8c-0.6,0-1.1-0.1-1.7-0.1c0.1-0.4,0-0.9,0.3-1.3c0.3-0.2,0.8-0.3,1.1-0.4
		c0-0.2-0.1-0.5-0.1-0.6C154,125.5,153.4,125.6,152.8,125.9z M158.4,127.2c-0.4,0.4-0.9,0.7-1.3,1.1c-0.6-0.2-1.3-0.4-1.9-0.6
		C156,126.7,157.4,126.7,158.4,127.2z M155.5,128.5c1,0.4,2.2,0.7,2.5,1.8C157,130,156,129.5,155.5,128.5z M164.2,135.2
		c0.1-0.9,0.3-1.7,0.7-2.4c0.4-0.1,0.8-0.1,1.2-0.2c-0.1,0.6-0.1,1.3,0,1.9C165.6,134.7,164.9,135,164.2,135.2z M166.1,135
		c0,0.9,0,1.8-0.1,2.7c-0.6-0.1-1.3-0.2-1.9-0.3C164.4,136.5,165.1,135.6,166.1,135z M163.8,138.4c0.6-0.1,1.2-0.2,1.9-0.2
		c0.1,0.6,0.2,1.3,0.3,1.9c-0.4,0-0.7,0-1.1,0c-0.4-0.2-0.8-0.5-1.2-0.7C163.8,139,163.8,138.7,163.8,138.4z M163.1,137
		c0.2,0.2,0.4,0.3,0.6,0.5c-0.2,0.5-0.5,1-0.7,1.6c-0.3-0.1-0.7-0.3-1-0.4C162.3,138.1,162.6,137.5,163.1,137z M159.1,135.6
		c1.1,0.2,2.4,0.6,2.6,1.8C160.5,137.4,159.8,136.4,159.1,135.6z M163.9,141.3c-0.9-0.3-1.3-1.2-1.8-1.9c0.7,0.3,1.4,0.6,2.1,0.9
		C164.1,140.6,164,141.1,163.9,141.3z M166.5,143c-0.8-0.4-1.6-0.8-2.2-1.4c0.9,0.1,1.8,0.2,2.6,0.6
		C166.8,142.6,166.7,142.8,166.5,143z M166,141.5c-0.5-0.1-1-0.2-1.4-0.2c0.1-0.8,1.2-0.8,1.5-0.1c0.4,0,0.5-0.6,0.8-0.8
		c0.5-0.3,1-0.4,1.5-0.6c0.2,0.4,0.3,0.7,0.5,1.1c-0.9-0.1-1.5,0.5-1.9,1.2C166.7,141.9,166.4,141.7,166,141.5z M168.9,141.4
		c0,0.5,0,1,0,1.5c-0.5,0.1-1.1,0.1-1.6,0.2C167.5,142.3,168,141.6,168.9,141.4z M167,144.2c0.8-0.3,1.6-0.3,2.4-0.2
		C168.7,144.7,167.8,144.5,167,144.2z M170.3,144.3c0.7-0.3,1.5-0.9,2.3-0.6C171.8,144.1,171.1,144.5,170.3,144.3z M172.8,143.2
		c0.3-0.4,0.6-0.9,0.9-1.3c0.4,0.3,0.7,0.7,1.1,1.1c-0.1,0.3-0.2,0.7-0.3,1C173.9,143.8,173.4,143.5,172.8,143.2z M190.8,136.5
		c-0.5-0.7-0.7-1.6-0.8-2.4c0.7-0.1,1.5-0.3,2.2,0C191.8,134.9,191.3,135.7,190.8,136.5z M192.6,133.7c-0.6-0.1-0.6-0.9-0.9-1.3
		c0.7-0.2,1.3-0.5,1.9-0.9C193.3,132.3,193,133,192.6,133.7z M191.5,131.5c-0.5-0.2-0.7-0.7-1-1.1c0.6-0.1,1.2-0.3,1.8-0.5
		c0.5,0.4,1,0.7,1.6,0.9C193.2,131.3,192.4,132,191.5,131.5z M194.8,128.8c-0.3,0.5-0.5,1.1-0.6,1.7c-1.1-0.5-1.8-1.6-2.1-2.7
		c0.3-0.2,0.7-0.3,1-0.5c0.3,0.5,0.7,0.9,1.1,1.3c0.2-0.2,0.4-0.3,0.6-0.5c-0.5-0.4-1.3-0.9-1.1-1.6c0.5-0.1,1.1,0,1.5-0.4
		C195.1,127,195,127.9,194.8,128.8z M195.2,125.8c-0.8-0.2-1.6-0.2-1.8-1.1c0.7-0.2,1.4-0.6,1.9-1.2
		C195.2,124.4,195.2,124.9,195.2,125.8z M197.1,111.1c-1.4-0.4-1.9-1.8-2.1-3.1c0.3,0.2,0.5,0.4,0.8,0.6c0.7,0.3,1.5,0.6,2.1,1.2
		C197.7,110.2,197.4,110.6,197.1,111.1z M198.8,97c-0.6-0.3-0.8-0.9-1-1.5c1.3,0.1,2.6,0.5,3.9,0.7c2.3,0.4,4.6,0.6,6.9,0.4
		c-0.1,0.5-0.1,1-0.2,1.6c-2,0.6-4.2,0.4-6.2,0.2C201,98.2,199.9,97.6,198.8,97z M202.5,100.2c-0.5-0.2-0.6-0.8-0.9-1.2
		c2.1,0.2,4.3,0.4,6.5,0.1c-0.4,0.7-0.8,1.5-1.4,2.1C205.2,101.2,203.8,100.7,202.5,100.2z M206.1,101.9c-0.5,0.6-1,1.2-1.6,1.7
		c-1-0.2-1.9-0.7-2.6-1.3c0.1-0.5,0.2-1,0.2-1.5C203.4,101.3,204.8,101.7,206.1,101.9z M206.1,105.2c-0.2-0.6-0.4-1.1-0.7-1.7
		c0.6,0,1.2,0.1,1.8,0.1C206.8,104.2,206.4,104.7,206.1,105.2z M205.8,103.1c0.3-0.4,0.7-0.8,1-1.2c0.3,0.5,0.5,0.9,0.8,1.4
		C207,103.2,206.4,103.1,205.8,103.1z M208.1,102.8c-0.3-0.5-0.6-1-0.8-1.5c0.5-0.1,1-0.2,1.7-0.3
		C208.7,101.7,208.4,102.2,208.1,102.8z M209.7,99c-0.3,0.1-0.7,0.3-1,0.5c0.2,0.2,0.6,0.5,0.8,0.7c-0.5,0.2-1,0.4-1.5,0.5
		c0.4-0.6,0.8-1.3,0.9-2c0.3-0.3,0.7-0.6,1.1-0.8C209.9,98.2,209.8,98.6,209.7,99z M210,97.3c-0.2,0-0.5,0.1-0.7,0.2
		c0-0.4,0.1-0.7,0.1-1.1c0.2,0.1,0.5,0.2,0.7,0.3C210.1,96.8,210,97.1,210,97.3z M209.3,94.8l0.2-0.5c-0.2,0-0.5-0.1-0.7-0.1
		c0,0.5,0,1.1,0,1.6c-3.4,0.4-6.8-0.3-10-1c0.9-0.3,1.8-0.9,2.8-0.8c2.4,0.2,4.8,0.3,7.2-0.4c0.4-0.1,0.2-0.5,0.1-0.8
		c-2,0.8-4.3,0.5-6.4,0.5c0.7-0.3,1.3-0.5,2-0.7c0.9,0,1.7,0.5,2.6,0.5c0.5-0.1,1-0.4,1.5-0.6c0.3,0.1,0.6,0.3,0.9,0.4l-0.2,0.3
		c0.4,0.2,0.7,0.4,1.1,0.6C209.9,94.2,209.6,94.5,209.3,94.8z M208.8,92.3c0.5-0.4,0.9-0.8,1.4-1.2c0,0.6,0,1.3,0.1,1.9
		C209.7,92.8,209.2,92.6,208.8,92.3z M215.1,80.7c-1.6,1.3-2.7,3-4.1,4.4c-1.5,0.7-3.2,0.9-4.6,1.8c-0.8,0.5-1,1.5-0.7,2.4
		c0.4,0.4,1,0.2,1.4,0.1c0.2,0.1,0.6,0.2,0.8,0.3c0.9-0.5,1.7-1.1,2.5-1.8c0.8-0.8,2-1,3-1.4c0.7-0.3,1.3-0.9,1.9-1.3
		c-0.5,0.6-1,1.2-1.7,1.5c-0.7,0.4-1.5,0.6-2.1,1.2c-1.3,1.4-2.8,2.8-4.5,3.9c-1,0.6-2-0.5-3.1-0.3s-2.1,0.7-3.2,1.1
		c-1.2,0.5-2.5,0.9-3.6,1.6c-0.6,0.6-0.4,1.6,0,2.3c-1.4,0.6-2.8,1.3-3.9,2.4c-0.6,0.8-0.9,1.8-1.3,2.7c-0.4,1.2,0.1,2.6,1.1,3.3
		c1,0.6,2.2,0.3,3.3,0.1c0,0.6-0.2,1.3,0.1,1.9c0.3,0.6,1.1,0.6,1.6,0.9c0,0.4,0,0.8,0.1,1.2c-0.5-0.7-1.3-1.1-2-1.4
		c-0.9-0.7-2-0.9-2.8-1.7c-0.7-0.2-1.4-0.3-2.1-0.5c-0.8-0.3-1.4-1-2.2-1.3c-1-0.5-2.2-0.4-3.2-0.7c-0.9-0.5-2-1.1-2.2-2.2
		c-0.4,0.3-0.7,0.7-1.1,0.9c-0.8,0-1.1-1-1.4-1.6c-0.6-1.8-1-4.1,0.3-5.7c1-1.4,2.6-1.8,4-2.6c0.7-0.5,1.5-1.3,1.4-2.2
		c-0.2-0.5-0.6-1-0.9-1.5c-0.6,0.5-0.9,1.2-1.4,1.8c-0.2,0-0.7,0-0.9,0c-0.2-1.5,0.9-2.8,0.4-4.3c0.5-0.4,1-0.8,1.5-1.2
		c0-0.8-0.5-1.9,0.2-2.6c1.4-1.3,3-2.4,4.9-2.8c1.8-0.5,3-2,4.9-2.4c1.9-0.4,3.8-1.2,5.5-2c0.9-0.4,1.8-1.1,1.7-2.2
		c0.1-0.6-0.3-0.8-0.6-1.1c0.6-1.3,1.1-2.4,2-3.5c0.7-0.9,1.9-1.3,2.9-1.5c0.3,0.4,0.6,0.9,0.9,1.3c-1.2,0.4-2.9,0.2-3.6,1.4
		c-0.5,0.9,0.3,1.7,0.6,2.5c0.3,0.5-0.1,1-0.4,1.4c-1,1.2-2,2.6-3.4,3.2c-1.3,0.7-2.9,0.7-4.3,1.4c-1.7,0.8-3.2,1.9-4.7,3
		c-1.2,1-3.1,0.6-4.3,1.7c-0.6,1-1.1,2.1-1.4,3.2c-0.3,1.4,1.4,2.3,2.6,1.8c1.8-0.8,2.6-2.8,3.9-4.2c1.1-1.3,2.2-2.6,3.6-3.5
		c1.7-0.8,3.7-0.7,5.4-1.4c1-0.5,2.2-0.9,2.8-2c0.5-0.9,1.5-1.3,2.4-1.8c2.1-1.3,4.4-2.3,6.1-4.1c-0.6,1.1-1.3,2.1-2.3,2.8
		c-1.6,1-3.1,2-4.6,3.1c-1,0.6-1.4,1.9-2.5,2.4c-1.2,0.5-2.4,1.2-3.4,2c-1.1,0.8-2.6,0.7-3.8,1.3c-1.6,0.9-3.1,2.1-4,3.7
		c-0.4,0.8-1,1.5-1.7,2c-1.1,0.8-0.9,2.3-1.9,3.2c-1,1.2-2.6,1.4-3.7,2.3c-0.9,0.7-1.8,1.4-2,2.5c-0.1,0.7-0.4,1.7,0.3,2.3
		c0.6,0.1,1.1-0.4,1.6-0.7c0.8-0.7,1.6-1.5,2.3-2.2c1.2-1.4,3-1.6,4.6-2.4c1.2-0.4,2.2-1.3,3.1-2.2c-0.2,0.5-0.3,1.1-0.7,1.4
		c-1.1,1-2.3,2-3.7,2.5c-1.2,0.4-2.4,0.8-3.2,1.8c-0.7,0.8-0.9,2.3,0.1,3c-0.4,0.8-1.2,1.5-0.9,2.4c0.7,1,1.9,0.4,2.6-0.3
		c1-1,1.8-2.2,2.9-3c0.5-0.4,1.1-0.7,1.5-1.2c0.1-0.6-0.1-1.4,0.3-1.9c0.7-1,1.9-1.4,3-1.9c2.2-1,4.4-1.8,6.5-2.8
		c-0.4-0.5-1-1.2-0.5-1.9c0.9-1.2,2.2-2,3.5-2.8c1.3-0.9,3.1-0.8,4.2-2c1.4-1.7,2.8-3.6,4.9-4.6c0.6-0.2,1.6-0.4,3-0.8
		C217,79.4,216.4,79.7,215.1,80.7z M185.3,92c0.1-0.8,0.5-1.4,0.9-2c0.1,0.1,0.2,0.4,0.3,0.6C186.1,91.1,185.8,91.6,185.3,92z
		 M190.9,82.6c-0.5,0.9-0.6,1.9-0.8,2.8c-0.4-0.6-1-1.2-1.6-1.6c0.5-0.5,1.2-0.8,1.8-1l-0.2-0.2c1,0,2-0.2,2.7,0.7
		c-0.2,0.3-0.4,0.6-0.6,0.9C191.7,83.7,191,83.3,190.9,82.6z M191.8,84.8c-0.5,0.6-0.9,1.5-1.8,1.5c0.5-0.7,1-1.5,1.1-2.4
		C191.3,84.2,191.6,84.5,191.8,84.8z M189.4,87.3c-0.1,0-0.4,0-0.5,0c-0.3-0.6-0.7-1-1.3-1.3c0.3-0.6,0.5-1.2,0.8-1.8
		C189.2,85.1,189.3,86.3,189.4,87.3z M192.6,82.1c0.5-0.4,1.1-0.7,1.6-1.1c0.2,0.1,0.4,0.1,0.5,0.2c-0.5,0.6-1.1,1.1-1.6,1.7
		C193,82.6,192.8,82.4,192.6,82.1z"/>
	<path d="M163.6,14.5c-0.6,0.1-1,0.3-1.4,0.8c-1.1,1.3-0.8,2.9-0.5,4.5c0.2,1.7,1.5,2.9,1.9,4.6c-0.1,0.7-0.3,1.3-0.5,2
		c0.6-0.5,1.3-1.1,1.2-1.9c-0.2-1.7-1.6-2.9-1.9-4.6c-0.2-1.1-0.4-2.3,0-3.3C162.5,15.6,162.9,15.2,163.6,14.5z"/>
	<path d="M167,36.9c-1.6-1.5-4-1-5.9-0.8c0.8-0.5,1.6-0.8,2.4-1.2c-0.9-0.2-1.9-0.5-2.7,0c-1,0.6-2.2,0.9-3.3,1.2
		c1.3,0.1,2.5-0.2,3.6-0.8c0.1-0.1,0.4-0.3,0.5-0.3l0.2,0.1l-0.1,0.2c-0.1,0-0.3,0.1-0.5,0.1c-0.6,0.6-1.4,0.9-2.1,1.5
		C161.7,36.6,164.5,35.6,167,36.9z"/>
	<path d="M165.3,46.3c0.8,0.6,1.8,0.6,2.8,0.4c1.2-0.2,1.7-1.4,2.3-2.2c0.4-0.5,0-1.2-0.1-1.7c0,0.7,0.1,1.5-0.7,1.9
		c-0.9-0.3-1.8-0.3-2.6-0.6c-0.5,0.1-1,0-1.5-0.2c-0.5,0.1-1,0.2-1.5,0.4c0-0.2,0.1-0.5,0.1-0.7c-0.5,0.1-1.1,0.2-1.6,0.3
		c0.3-0.3,0.6-0.5,0.9-0.8c-0.8-0.3-1.5-0.8-2.3-1.3c0.3,0.5,0.7,1,1.3,1.4c-0.6,0.4-1.2,0.6-1.9,0.9c0.7,0.4,1.5,0.4,2.3,0.4
		c-0.1,0.1-0.2,0.4-0.3,0.5c0.5,0,1.1,0,1.6,0C164.5,45.3,164.8,45.9,165.3,46.3z M169.1,45.1c-1,1.4-3.4,1.3-4.1-0.4
		C166.4,44.8,167.8,44.8,169.1,45.1z"/>
	<path d="M134.9,47.8c0.9,0.9,0.8,2.3,1.6,3.3c0-0.7,0-1.3-0.2-2c-0.3-1.6-1.9-2.4-2-4.1C133.8,46,134.2,47,134.9,47.8z"/>
	<path d="M176.5,48.4c-0.6-0.1-1.2-0.2-1.8-0.3c-0.1-0.4-0.4-0.9-0.2-1.3c0.6-0.6,1.5-0.7,2.3-1.1c-1.2-0.3-3,0.1-3,1.6
		C173.6,48.8,175.5,49.3,176.5,48.4z"/>
	<path d="M136.8,57.6c0.3-0.2,0.6-0.5,0.9-0.7c-0.2,0.8-0.4,1.7,0,2.5c0.4-0.8,0.8-1.6,1.4-2.4c-0.3,0.2-0.7,0.4-1,0.5
		c0.3-0.7,0.6-1.3,0.8-2C137.9,55.8,137.2,56.7,136.8,57.6z"/>
	<path d="M136.1,61.7c-0.3,1.5-1.9,2.4-1.8,4C134.9,64.4,136.7,63.3,136.1,61.7z"/>
	<path d="M135.1,72.6c-0.2,0.3-0.6,0.8-0.7,1.1c1.7-0.1,3-1.4,3.5-2.9c0.3-0.9,0.7-1.8,1.1-2.7c0.4-0.7-0.6-1.1-0.9-1.5
		c-0.6,0.2-1.2,0.3-1.8,0.5c-0.2,1.3-0.4,2.6-0.7,3.8c-0.5,1.3-1.8,1.9-3,2.5c-0.5,0.3-0.8-0.5-1.1-0.8c0.9,0,1.8-0.1,2.6-0.5
		c-1,0-2.6,0.5-3-0.8c-0.5-1.6-1-3.2-2.1-4.5c0.3,1.3,0.9,2.4,1.2,3.6c0.2,0.7,0.5,1.4,0.8,2c-1.6-0.8-1.6-2.7-2.1-4.1
		c-0.5-0.6-1-1.3-1.2-2.1c-0.7,1.1,0.3,2.1,0.8,3c-1.8-0.1-3.7-0.3-5.5,0.4c-1.2,0.8-0.7,2.3-0.4,3.4c0.6,1.6,1.2,3.3,2.1,4.8
		c0.2-1.9,0.1-3.7,0.2-5.6c0.9,0.4,1.7,1,2.4,1.6c0.3,0.3,0.8,0.3,1.2,0.3c0.5,0.4,0.9,0.9,1.5,1.1c0.8,0.1,1.2-0.6,1.6-1.1
		C133,74.5,134,73.3,135.1,72.6z M136.9,67.7c0.3-0.1,0.6-0.2,0.9-0.3c0.2,0.1,0.5,0.2,0.6,0.3c-0.7,1.7-1.1,3.6-2.5,4.9
		C136.3,71,136.6,69.3,136.9,67.7z M124.1,74.8c-0.4-0.9-0.9-1.8-1.1-2.8c0.4-0.1,0.8-0.1,1.2-0.2C124.1,72.8,124.1,73.8,124.1,74.8
		z M130.2,74.5c-0.9,0-1.1-1.6-2.1-1.2c-0.7,0.2-1-0.7-1.5-1.1c-1-0.1-1.7-0.9-2.6-1.3c1.4-0.2,2.8-0.3,4.2-0.2
		c-1.2-0.9-2.9-0.6-4.2-0.1c-0.2,0.4-0.6,0.7-1.1,0.8c0.2-0.5,0.2-1.2,0.9-1.3c1.6-0.3,3.2-0.2,4.8-0.3c0.3,0.9,0.6,1.9,1.3,2.6
		c0.5,0.4,1.1,0.7,1.7,1.1C131,73.9,130.6,74.2,130.2,74.5z"/>
	<path d="M130.5,66.6c0.2,0.4,0.4,1,0.9,1.2c0.8,0.5,1.8,0.1,2.7-0.1c-0.3,0.4-0.6,0.8-0.9,1.1c0.9-0.2,1.4-1,1.6-1.8
		c-0.9,0.2-1.8,0.5-2.7,0.5C131.3,67.4,131,66.9,130.5,66.6z"/>
	<path d="M179.3,83.4c-0.7,0.6-0.7,1.7,0,2.2C179.5,84.9,179.6,84.1,179.3,83.4z"/>
	<path d="M206.9,113.2c-1.7-1.2-4.2-2.7-6-3.7c1.6,2,4.3,2.7,5.9,4.6c0.7,0.8-0.1,3-0.4,4c0.7-0.3,2.6-1.6,3.1-2.2
		c0.4-2.7-2.1-5.1-4.5-5.5c1.2,0.9,1.5,1.5,2.4,2.7c0.6,0.8,0.5,2.1,0.5,3.1C207.4,115.3,207.5,113.9,206.9,113.2z"/>
	<path d="M136.4,120.9c-0.2-0.2-0.4-0.3-0.6-0.5c0.1-0.3,0.2-0.6,0.3-0.9c-0.2-0.2-0.4-0.4-0.6-0.6c-0.3,1-0.3,2.1-0.7,3.1
		c-0.1,0.2,0,1,0.3,0.6C135.4,122,135.7,121.3,136.4,120.9z"/>
</g>
</svg>
