<?xml version="1.0" encoding="utf-8"?>
<!-- Generator: Adobe Illustrator 26.0.3, SVG Export Plug-In . SVG Version: 6.00 Build 0)  -->
<svg version="1.1" id="Слой_1" xmlns="http://www.w3.org/2000/svg" xmlns:xlink="http://www.w3.org/1999/xlink" x="0px" y="0px"
	 viewBox="0 0 239.5 150.2" style="enable-background:new 0 0 239.5 150.2;" xml:space="preserve">
<style type="text/css">
	.st0{fill:#1D1B1C;}
</style>
<g>
	<path class="st0" d="M222,48.4c-5.4-3.3-10.7-6.8-16.2-10c-0.7,0.3-0.5,1.8-0.7,2.7c-0.5-0.3-1.3-0.5-1.6-1.1
		c0.5,0.1,1,0.4,1.5,0.6c0.1-1.3-0.2-2.6-0.3-3.8c5.1,1.1,10.1,3.1,15.2,4.3c0.1-0.3-0.2-0.5-0.5-0.6c-5.4-2.3-10.7-4.7-16.1-7
		c-0.3-0.1-0.7-0.5-0.9-0.1c0.1,1.2,0.2,2.4,0.3,3.6c-2.1-0.8-3.9-2.5-6.1-3.1c-0.1,1.4,0.3,2.7,0.3,4c-1.1-0.5-2.1-1.2-3-1.9
		c0-1.1,0-2.9-1.6-2.8c-0.2-0.7-0.7-1.4-1.5-1.5c-0.4-0.6-0.7-1.4-1.6-1.3c-0.2-1-1.1-1.4-2-1.3c-2.5-2.6-4.5-5.6-6.9-8.3
		c-0.4-0.3-0.6-1.2-1.3-1.1c-0.6,1-0.7,2.2-1.1,3.3c-3.1-3.8-5.8-7.9-8.9-11.7c-0.1-0.2-0.3-0.3-0.5-0.2c2.4,4.6,5.2,9.1,7.8,13.6
		c-0.2,0.8,0,1.7,0,2.5c0.6,1.6-0.1,0.8-0.5,0.5c-1.9-1.5-3.4-3.5-5.4-4.7c-0.1,1.4,0,2.8,0,4.2c-4.8-2-9.5-4.2-14.3-6.3
		c0,0.1-0.1,0.2-0.2,0.3c5.3,3.3,10.8,6.2,15.9,9.6c-4.4-1-8.8-1.9-13.2-3c-0.3,0.1-1.8-0.8-1.7,0c6.2,2.2,12.4,4.5,18.7,6.7
		c1.8,0.8,0-1.9,0.7-2.3c1.9,0.7,3.3,2.7,5.2,3.3c-0.1-1-0.3-2.1-0.4-3.1c1,0.3,1.9,1.1,2.8,1.5c-0.6,1.8,0.2,3.9,1.3,5.4
		c1,1.7,0.7,3.9,1.1,5.8c0.7,4.3-0.6,8.7,0.2,13c1,5-1.9,9.6-1.9,14.6c0,2.8-1.6,5.2-2.8,7.6c-0.5,0.9-1.7,0.1-2.5,0.2
		c-1.3-1.9-0.4-4.2-0.5-6.2c1.2-0.7,1.2-2.1,1.4-3.3c-0.6-1.1,0.7-1.9,0.5-3c-0.1-0.4,0.1-0.7,0.2-1.1c0.4-0.8-0.6-1.3-0.3-2.1
		c0.1-1.1-1.3-1.5-1.2-2.6c-0.6-0.7-0.8-2.3-2-2.1c0.1,0.4,0.3,1.3-0.3,0.7c-0.7-1.7-2.6-1.8-4.2-1.4c-0.3,1.1,1.6,0.5,1.6,1.4
		c-1.6-0.7-3.5-1.1-5.3-0.8c-0.7,0.6-1.3,1.3-1.6,2.2c-1.2,0.4-2.1,1.6-1.6,2.9c0.2,0.9-0.9,1.5-0.6,2.4c0.4,0.9,0.1,2,0.7,2.9
		c0.5,1.3,0.3,3.8,2.3,3.7c0.3,1.1,0.2,2.3,0.2,3.4c-2.2-3.2-3.2-7.1-4.7-10.7c-1.1-2.7-2.5-5.6-5.1-7.2c-0.7-0.3-1,0.3-0.7,0.9
		c-3.1-3.7-7.4-6.4-9.8-10.6c-0.7-1.3-0.8-2.8-1.6-4c-1,0.1-1,1.5-1.5,2.3c-0.4,2.5,0,5,0.8,7.3c-1.4-2-2.5-4.2-3.5-6.4
		c-0.8,0-1,0.9-1.2,1.5c-0.5,4,0.8,8,2.8,11.4c-3.4-2.4-5.9-5.8-8.2-9.2c-0.4-0.3-1-0.9-1.4-0.4c-0.3,6.1,3.5,11.3,7.6,15.4
		c-3.5-1.9-6.1-5.2-9.4-7.4c-0.7-0.6-1,0.8-0.7,1.2c0.8,2.3,2.1,4.5,3.4,6.6c1.3,2.3,3.7,3.8,5.3,5.8c-2.6-1.2-4.8-3.1-7.6-3.9
		c-1.1-0.4-0.7,0.9-0.2,1.3c3,3.6,6,7.3,10.1,9.6c-2.6-0.6-4.9-2.1-7.4-2.7c-0.7-0.1-0.6,0.8-0.1,1.1c2.3,2,4.5,4.3,6.6,6.3
		c-1.7,1.4-3.6,2.7-4.9,4.5c-0.9-0.2-2.3-0.2-2.4,1c-1.1,0.1-0.8,1.5-1.8,1.7c-0.4,1-0.8,2.1-0.4,3.2c-4.5,7-5.2,16.2-1.8,23.8
		c1.9,3.7,4,7.5,7.3,10c3,2.3,6.9,4.1,10.8,3.4c4.2-0.2,8-3.1,9.6-6.9c2-4.2,1.7-9,0.6-13.4c0.4-0.8,1-2,1.7-2.3
		c3.3,3.1,7.9,4,12,5.6c4.3,1.7,7.5,5.2,10.3,8.8c2.4,2.9,5.2,5.7,8.9,6.9c5.5,2.3,12.1-1.6,13.1-7.4c1.5-7.4-2.8-14.5-8-19.3
		c1.5-0.6,3-1.3,4.3-2.2c0.1-0.7-0.5-1.1-1-1.3c-1.8-0.9-3.8-0.9-5.5-1.9c5.7,0.6,11.7-3.2,12.9-8.9c-1.5,0.2-2.7,1.6-4.2,2
		c3.7-2.7,6.7-6.2,9.1-10.1c-0.1-0.2-0.3-0.5-0.5-0.3c-2.4,1.2-4.1,3.4-6.6,4.5c3.2-3,6.4-6.2,8.5-10.2c0.4-0.5-0.2-0.9-0.6-0.6
		c-1.5,1.3-3,2.6-4.5,4c0,0.2-0.9,0.5-0.4,0.1c2.8-3.2,5.3-6.7,6.7-10.8c-0.5-0.6-1.2,0.3-1.6,0.5c-1.2,1.7-2.9,2.9-4.4,4.3
		c2.2-3.8,4.9-8,4.3-12.6c-0.2-0.3-0.5-0.3-0.7,0c-1.4,1.7-2.3,3.7-3.7,5.4c1.4-3.3,2.3-7.1,1.2-10.6c-0.2-0.6-1-2.7-1.7-1.4
		c-1,2-0.9,4.4-2.3,6.2c0.3-2.7,0.5-6.1-1.7-8.2c-1-0.4-0.9,1-0.9,1.6c0,2.9-2,5.1-3.4,7.4c-0.3,0.1-0.6-0.5-0.9-0.2
		c-2,1.6-3.8,3.4-5.1,5.6c0.1-2.1,0.8-4.2,0.9-6.4c-0.1-4.4-0.6-8.8-2-13c-0.5-2.9-1.2-5.9-0.5-8.9c3,3.3,5.7,7,8.7,10.3
		c1-0.2,0.5-2.4,1.1-3.2c3.7,3.3,7.1,6.8,10.7,10.3c0.7,0.1-0.2-0.9-0.4-1.2c-3.4-4.1-6.8-8.3-10.2-12.4c-0.3-0.5-0.9-0.9-0.6-1.6
		c1.6,0.5,2.6,2.2,4.1,2.7c0.8-0.6,0.5-2.4,1.1-3.1c4.7,2.3,9.4,4.7,14,7.2C221.4,48.6,222.3,49.2,222,48.4z M191.7,33.5
		c-0.7,1.1-1.5,2.2-2.5,3.1c-0.3,0.3-0.9,0.1-0.8-0.4c0.4-1.5,1.7-2.5,2.2-4C191.3,32.1,191.7,32.9,191.7,33.5z M190,32.7
		c-0.4,1.1-1.4,2.3-2.4,2.5c-1.1-1.5,1.6-1.7,1.9-2.9c0.6-0.9-0.5-0.8-0.5-1.4C190,30.7,190.4,32,190,32.7z M187.4,29.7
		c0.6-0.2,1.3,0.3,1.1,0.9c-0.1,1.1-1.6,0.7-2.3,1C186.4,31,186.8,30.2,187.4,29.7z M171.4,15.7c2.3,2.4,4.1,5.6,6.3,8.2
		c0.8-0.8,0.8-2.3,1.3-3.3c2.6,2.8,4.7,6.1,7.1,9.1c0.3,0.5-0.2,0.3-0.5,0.1c-2.2-2.6-4.2-5.4-6.4-7.9c-1,0.4-0.9,2.6-1.8,3.4
		C175.3,22.3,173.4,18.9,171.4,15.7z M185.5,31c-2.2-1.3-4.3-2.7-6.5-4c0.1-1,0.5-2,0.7-3C181.8,26.1,183.8,28.5,185.5,31z
		 M174.3,30.2c-0.1,1,0.3,1.9,0.4,2.9c-4.2-1.3-8.4-2.5-12.5-3.8c4,0.6,7.9,1.9,12,2.5c0-0.9-0.2-1.7-0.2-2.6
		c0.6,0.5,1.2,0.9,1.6,1.5C175.1,30.7,174.8,30.1,174.3,30.2z M172.5,28.1c1.1,0.6,1.4,2.3,1.1,3.4
		C171.8,31.5,172.8,29.1,172.5,28.1z M179.4,30.3c-0.6,1,0.6,2.1,0.3,3.3c-0.6-0.2-1.1-0.6-1.6-1c-0.5-1,0.3-1.1,0.9-0.9
		c0-0.9-0.3-1.7-0.4-2.5c1.6,1,3.6,1.8,4.7,3.3C182,31.8,180.9,30.7,179.4,30.3z M178.1,29.8c0.3,0.3,0.4,0.7,0.3,1.2
		C178.1,30.7,178.1,30.3,178.1,29.8z M178.7,27.8c-0.4-0.3-0.9-0.8-1.5-0.7c0,1.2,0,2.4,0,3.7c-2.1-1.4-3.4-3.8-5.6-4.9
		c-1,0.5,0,2.3-0.2,3.3c-3.5-1.5-6.9-3.4-10.1-5.3c2.2,1,4.5,2,6.7,3c0.8,0.1,1.8,1.4,2.7,0.7c-0.1-1.3-0.2-2.5-0.1-3.8
		c2,1.6,3.8,3.5,5.8,5.1c0.4-1,0.1-2.2,0.2-3.3c3.1,1.9,6.3,3.8,8.9,6.3c0.4,0.2-0.3,0.5-0.5,0.3C182.7,31,180.7,29.4,178.7,27.8z
		 M178.7,73.9c-0.1-0.5-0.2-1.1,0-1.6C179.8,72.2,179.4,73.5,178.7,73.9z M179,71.8c-0.6,0.2-0.2-1.3,0.1-1.8
		C179.9,70.1,179.1,71.2,179,71.8z M180,68.5c-0.1-0.2-0.4-0.4-0.3-0.6C180,67.6,180.3,68.4,180,68.5z M166.5,63.5
		c1-0.9,0.9,0.5,1.5,0.6c0.2-0.6-0.4-1.8,0.4-2.1c0.7-0.1,1.4-0.3,1.9-0.8c0.4-0.9-1.8,0.9-1.4-0.3c0.7-0.9,2.3-0.1,3.2,0.1
		c1.1,0.9,2.6-0.1,3.8,0.6c-0.1-1-1-1.6-1.9-1.8c1.9-0.6,2.3,1.4,3.1,2.5c0.3,0.7,1.8-0.1,0.8-0.2c-0.7,0.3-0.2-1.6,0.2-0.9
		c0.1,0.8,1.5,1.5,0.6,2.4c-0.4,0.7-1.4-0.2-1.8,0.5c0.5,0.2,0.9,0.7,1.4,0.8c0.7,0.2,0.8-1.4,1.4-0.7c0.4,0.7,0.4,1.9,0.1,2.7
		c-0.4,0.7-1.1,0.1-1.3-0.4c0.7,0.1,1.3-0.4,1.1-1.2c-0.6,0.4-1.4,0.6-1.8-0.2c-0.3-0.8-2.2-0.5-1.6-1.5c0.5-0.9-0.4-1.7-1.1-1.9
		c0,0.5,0.8,0.5,0.5,1.1c-0.5,0.3-1.1,1.1-1.8,0.6c-0.5-0.7-1.4-2.2-2.5-1.4c-0.9,0.5,1.2,0,0.8,0.8c-0.3,0.8-0.6,2.1-1.8,1.3
		c-0.7-0.6-0.4,0.4-0.3,0.8c-0.5,0-1.2-0.4-1.5,0.2c1.4,0.8-0.3,2.4-1.4,2.5c-1.2-0.3-0.6-1.7,0-2.3c-1.2,0.2,0-0.2,0.2-0.7
		C166.4,65,165.5,64.1,166.5,63.5z M166.9,68c0.8,0.3,0.3,1.2-0.2,1.4C165.5,69.4,167.3,68.8,166.9,68z M167.5,73.8
		c-0.7-0.8-1-2.1-1.1-3.2c0.5-0.7,1.1,0.2,0.2,0.2c0.6,0.4,0.5,2.3,1.1,1.1c0.5,0.8,1.2,1.1,2.1,0.9c-0.5-0.5-1-0.9-1.4-1.3
		c-1.2-0.9,0.7-2.3-0.2-3.4c0.1-1.1,1.7-1.4,2-2.6c1.3-0.1,1.9-1.1,2.2-2.2c1.2,0.6,2.7,0.4,3.7,1.4c0.9,0.2,1.9,0.6,2,1.6
		c-0.1,2,0.9,4,0.5,6.1c-1-1-1.4,0.7-1.8,1.4c0.7,0.1,1.1-0.6,1.7-0.9c0.5,2.7-2.2,5.5-4.9,4.6c-2.1-0.2-5.5-1.4-4.7-4
		C168.1,73.1,167.9,73.9,167.5,73.8z M162.5,65.4c1.5,3.5,2.6,7.3,4.3,10.7c0.3,1.2,0.8,2.7,0,3.7c-1.2,0.4-0.9-1.5-1.8-1.6
		c0,1.5,1.2,2.5,1.8,3.7c-2.3-1.6-2.5-4.9-3.1-7.5c-0.1-1.3,1.1,2.1,0.5-0.5c-0.5-2.9-1.8-5.6-2.7-8.4c0.3,0.4,0.5,1,0.9,1.3
		c-0.1-1.7-1.6-3-2.3-4.4c-0.4-1-1.5-1.3-2-2.2C160.4,60.9,161.4,63.5,162.5,65.4z M159.3,88.8c0.6-0.3,2.2,0.9,0.9,0.6
		C161.1,90.7,159.1,89.8,159.3,88.8z M158.2,85.2c1.2,0.3,2.4,1.1,3.5,1.6c-0.6,0-1.2-0.4-1.9-0.4c0.6,0.9,1.8,1.2,2.4,2.2
		C160.3,88.6,158.8,86.9,158.2,85.2z M156.8,122.1c-0.3-0.8-0.2-1.7,0.2-2.5C158.1,119.8,157.6,121.8,156.8,122.1z M157.9,121.1
		c0.2,0.4,0.1,2-0.3,2.8C156.8,123.2,157.5,121.9,157.9,121.1z M155.8,118c1.1,0.4,1.2,2,0.2,2.4C156,119.5,155.9,118.8,155.8,118z
		 M155.3,121.6c0-0.6,0.1-1.1,0.2-1.7C156,120.5,156.2,121.4,155.3,121.6z M156,115.1c-0.7-0.6-1.4-1.5-1.2-2.6
		C155.9,113,156.6,113.9,156,115.1z M155.8,117.1c-0.9-0.3-0.8-1.8-1.2-2.6C155.9,114.8,156.2,116,155.8,117.1z M155.4,118.5
		c-0.7,0-0.9-1.2-0.9-1.8C155.2,117.1,156,117.7,155.4,118.5z M155.3,123.3c0.5,0.2,0.4,1.5-0.4,1.4
		C154.9,124.2,155,123.7,155.3,123.3z M155.7,124.9c0.6,0.2,0.1,1.4-0.6,1.5C155.2,125.9,155.4,125.4,155.7,124.9z M155.9,123.8
		c-0.1-0.7,0-1.5,0.2-2.2C157.1,121.9,156.5,123.3,155.9,123.8z M156.9,118.7c-0.7-0.6-0.6-1.8-0.7-2.7
		C157.6,116.2,157.7,118,156.9,118.7z M156.6,114.2c0.7-0.1,0.8,0.8,1,1.3C158.1,117.9,155.8,115.1,156.6,114.2z M156.6,112.2
		c0.9,0.4,1,1.6,1.3,2.4C157,114,156.2,113.3,156.6,112.2z M156.4,110c0.5,0.5,0.9,1.3,1.1,2C156.8,111.5,156,111,156.4,110z
		 M156,108.4c0.5,0.3,1,0.8,1.1,1.5C156.7,109.4,155.9,109.1,156,108.4z M156.2,113.1c-1.4-0.4-1.5-1.7-1.6-2.9
		C155.9,110.5,156.4,111.8,156.2,113.1z M154.4,108c0.8,0.6,1.2,1.6,1.5,2.6C154.7,110.3,154.4,109.1,154.4,108z M138.5,99.7
		c2.9,0.5,3.5-5.4,0.4-5.1c-1,0.7-1.7-0.6-0.6-0.8c0.8,0,2-0.4,2.4,0.5c0.8,1.8,0.8,3.9,1.1,5.7c1.6,1.5,3,3.3,4.4,5
		c1.7,3.9,4.9,7.1,5.8,11.4c-3.9-1.3-6.7-4.6-9-7.8c-1.2-2.2-3.2-3.9-3.7-6.5c-0.2-0.8-1.2-0.3-1.6-0.9c-0.8-0.8,0.1-2.2,1-2.6
		C138.8,99,138.1,99.4,138.5,99.7z M143.4,87.2c0.6-0.3,1.6,0.7,0.7,0.9C143.4,88.6,142.7,87.8,143.4,87.2z M143.7,89
		c-0.7,0.4-2.2,0.6-1.2-0.5C142.6,88.6,143.9,88.4,143.7,89z M142.8,86.7c-0.8,0.2,0.1-0.9,0.5-1C144.5,85.6,143.4,86.6,142.8,86.7z
		 M144.3,84.9c0.7-0.3,0.1,0.8-0.4,0.5C143.1,85.5,144,85,144.3,84.9z M144.3,85.8c0.1-0.2,0.4-0.3,0.6-0.4
		C145.5,85.4,144.4,86.2,144.3,85.8z M145,88c0.6,0.2,1.4,1.2-0.2,0.7C144.1,88.8,144.8,88.2,145,88z M148.1,67.3
		c1.1,1,2.1,2,3.4,2.7c0.9,0.6,2,1.1,2.4,2.2c-1-0.7-1.9-1.7-3.1-2c0.2,1,1.6,1.4,2.3,2.1c0.9,0.7,1.5,1.8,2.5,2.4
		c-3.8-1.6-6.6-5-9.1-8.2c1.4,0.7,2.1,2.2,3.5,2.9C149.7,68.6,148.2,68.3,148.1,67.3z M157.3,71c-2.2-1.5-4.1-3.5-5.7-5.6
		c-0.8-0.7-0.9-1.9-1.9-2.4c-0.6-0.3-0.7-0.9-0.7-1.5c1.4,1.4,3.2,2.3,4.4,3.9c-0.3,0.4-1.8-1.8-2.3-1.4
		C153.1,66.4,156.1,68,157.3,71z M160.5,69.2c-1.4-1.8-1.3-4.3-2-6.4c2.1,2.1,2.8,5.3,3.6,8.1c-1-2.1-1.7-4.6-2.8-6.6
		C159.5,65.9,160.3,67.5,160.5,69.2z M161.3,74.4c-1-1.6-1.4-3.5-2.2-5.2c-0.1,0-0.2,0-0.3-0.1c0.7,2.9,1.9,5.5,3.3,8.1
		c0.1,0.1,0.3,0.8,0,0.5c-2.1-3.2-3.8-6.8-3.8-10.6C159.7,69.3,160.5,71.9,161.3,74.4z M162.2,85.4c-3.4-1.1-5.4-4.9-6.3-8.2
		c1.9,1.7,3.3,4.1,5.2,5.8c-0.9,0-1.5-0.8-2.2-1.1C159.7,83.3,161.2,84.2,162.2,85.4z M159.5,76.2c-0.6-0.7-0.9-1.6-1.6-2.2
		c0.8,2.6,2.5,5,3.8,7.5c-3.3-2.4-5.2-6.7-5.6-10.7c0.5,0.3,0.9,0.7,1.1,1.3C157.7,73.5,159,74.6,159.5,76.2z M150.6,75.6
		c1.5,0.8,2.9,1.5,4.3,2.4c-0.9,0.1-1.6-0.5-2.4-0.7c0.2,0.7,1.3,0.8,1.7,1.5c-2.4-0.9-5.3-1.7-6.6-4.2c0.9,0.2,1.4,1.1,2.4,1.3
		c-1-1.5-3.2-2.3-4-4C147.6,73.1,149,74.4,150.6,75.6z M153.9,83.6c-0.1-0.6-0.2-1.1-0.2-1.7C154.5,81.9,154.5,83.3,153.9,83.6z
		 M156.6,87.2c-1.1-0.1-2.8-0.4-3.3-1.3C154.4,86.4,155.6,86.6,156.6,87.2z M151.3,107.8c1.2,0.1,1.5,1.4,1.6,2.4
		C152.1,109.8,151.4,108.8,151.3,107.8z M152.9,112.2c-0.5-0.5-0.8-1.2-0.9-1.8C152.7,110.8,153.3,111.3,152.9,112.2z M148.2,101.2
		c-0.5-0.5-0.5-1.5-0.5-2.2C148.6,99.2,148.4,100.5,148.2,101.2z M148.5,95.1c0.6,0-0.3,1.5-0.6,2C147.6,96.3,148,95.6,148.5,95.1z
		 M148.4,103.4c-0.5-0.4-0.6-1.1-0.7-1.7C148.2,102.1,148.3,102.7,148.4,103.4z M148.7,97c0.6,0.4,0.1,1.4,0.1,2
		C147.9,99.1,148.6,97.5,148.7,97z M148.5,90.3c0.4,0,0.7,0.1,1.1,0.2C149.4,91.2,147.8,90.9,148.5,90.3z M148.5,84.7
		c-0.1,0.6-0.7,1-1.3,0.9C147.1,84.9,148.1,85,148.5,84.7z M148.1,84c0.7-0.3-0.1,0.5-0.3,0.6C147.2,84.9,147.9,84.2,148.1,84z
		 M152.3,82.4c0.4-0.3-0.4,1-0.4,0.8c-1.7,1.7-3.6,4.7-6.4,3.9C148.5,87.1,150.3,84.3,152.3,82.4z M150.5,81.5
		c0.2-0.2,0.2,0.7-0.1,0.8C149.8,82.6,150.2,81.7,150.5,81.5z M151.3,81.8c0.1-0.4,0.4-0.6,0.6-0.8
		C152.8,80.9,151.8,81.9,151.3,81.8z M146.3,89.1c0.4-0.1,0.5,0.3,0.7,0.5C146.7,89.4,145.7,89.5,146.3,89.1z M147,90.3
		c0-0.1,0-0.3,0-0.4C148,89.7,148,90.5,147,90.3z M147.4,90.7c0.4,0,0.7,0.2,0.9,0.5C147.9,91.1,146.8,91.2,147.4,90.7z M147.3,88.1
		c0.8,0,1.5,0.5,2.2,0.9c0.7,0.1,1.5,0.2,2,0.7C150.1,89.6,148.2,89.4,147.3,88.1z M150.4,102.7c0.8,0.6,1.1,1.6,1.2,2.6
		C150.7,104.9,150.2,103.8,150.4,102.7z M152.6,108.1c-1-0.4-1.3-1.8-1.6-2.7C152.2,105.6,152.1,107.1,152.6,108.1z M150.8,100.1
		c-0.5-0.3-0.5-0.8-0.3-1.3C151.2,98.5,150.7,99.7,150.8,100.1z M150.8,96.1c0.3,0.1,0,0.6-0.1,0.8
		C150.4,96.8,150.5,96.2,150.8,96.1z M151,102.6c-0.7-0.4-0.7-1.2-0.7-1.8C151.1,100.7,150.6,102.2,151,102.6z M150.5,90
		c0.2-0.1,0.5,0,0.7,0C151.3,90.5,150.2,90.5,150.5,90z M149.5,97c-0.7,0.1-0.1-1,0.1-1.4C150.2,95.4,149.4,96.5,149.5,97z
		 M149,89.8c0.4-0.1,0.8,0.1,1.1,0.3C149.7,90,148.8,90.4,149,89.8z M149.9,97.1c0.6-0.2,0.1,1.1,0.1,1.6
		C149.2,98.5,149.6,97.5,149.9,97.1z M149.2,99c0.7,0.5,0.7,1.4,0.5,2.2C149,100.6,148.7,99.7,149.2,99z M149.2,101.5
		c0.7,0.3,0.6,1.5,0.7,2.2C149.1,103.4,148.8,102.2,149.2,101.5z M150.4,106.1c-0.7-0.4-0.9-1.3-1.1-2
		C150.3,104.1,150.2,105.4,150.4,106.1z M151.1,108.6c-0.8-0.4-1-1.5-1.4-2.2C150.7,106.7,151,107.7,151.1,108.6z M151.5,110.7
		c-0.7,0-0.9-1.1-1.1-1.7C151,109.4,151.3,110.1,151.5,110.7z M151.6,112.5c-0.3,0-0.5-0.4-0.4-0.6
		C151.5,111.8,151.8,112.2,151.6,112.5z M152.8,106.6c0.8,0.6,1.4,1.7,1.5,2.8C153.4,108.7,152.8,107.6,152.8,106.6z M153.7,106.8
		c-1-0.2-1.5-1.6-1.6-2.6C153,104.6,153.6,105.7,153.7,106.8z M153.3,104c0.4,0.4,0.8,0.9,0.9,1.5
		C153.7,105.2,153.2,104.7,153.3,104z M151.3,101.7c0.7,0.8,1.1,1.9,1.6,2.8C152.1,103.8,151.3,102.8,151.3,101.7z M151.3,100.2
		c0.3,0.3,0.5,0.7,0.5,1.1C151.4,101.1,151.2,100.7,151.3,100.2z M151.7,90.5c-0.1-0.5,0.5-0.4,0.8-0.5
		C152.9,90.2,152,90.5,151.7,90.5z M151.1,87.2c0.3-0.8,0.7-1.6,1.1-2.4C153.1,85.2,151.7,86.8,151.1,87.2z M152.5,83.1
		c0.8-0.2,0.3,1.2,0.4,1.8C152.6,84.3,151.9,83.6,152.5,83.1z M152.4,80.8c-0.1-0.2,0.2-0.4,0.4-0.4C153.4,80.3,152.7,81,152.4,80.8
		z M151.3,80.4c-0.7,0.6-2.2,0.7-2.7-0.2c-0.9-1.2-2.8-1.6-3.6-2.9C147.2,78,149.1,79.6,151.3,80.4z M147,83.5
		c0.5-0.1,0.1,0.7-0.2,0.5C146.5,83.9,146.9,83.5,147,83.5z M146.9,84.4c0.8,0-0.5,1-1,1C146.1,85,146.4,84.6,146.9,84.4z
		 M145.3,84.9c0-0.4,0.4-0.5,0.6-0.7C146.4,84.3,145.8,85,145.3,84.9z M146.3,85.7c0.9-0.3-0.6,1.5-1,0.7
		C145.3,85.8,146,85.8,146.3,85.7z M146.8,91c-0.4,0-0.9-0.2-1.1-0.6C146.1,90.5,146.9,90.4,146.8,91z M146.1,91.6
		c1.2-0.4,1.7,0.7,2.1,1.5c-1,0.2-1.9-0.5-2.7-0.9C144.7,92,145.5,91.4,146.1,91.6z M147.4,94.7c0.6,0.2,0,0.7-0.2,1
		c-1.5,2-1.6,4.6-1.5,7c-2.5-2.1-4.2-5.1-4.2-8.4c0.6-0.9,1.6-1.6,2.6-2.1C145.4,92.7,146.2,94,147.4,94.7z M147.3,98.6
		c-0.5,0.3-0.1-0.6-0.1-0.8C147.8,97.5,147.4,98.3,147.3,98.6z M146.8,101.2c-0.5-0.5-0.3-1.1-0.3-1.7
		C147.1,99.8,146.7,100.6,146.8,101.2z M146.7,103.5c-0.3-0.1-0.3-0.5-0.2-0.8C146.7,102.7,147,103.4,146.7,103.5z M140.1,106
		c3.2,4.4,6.9,8.8,12.1,10.9c1.5,3.7-0.7,9.9-5.4,9.4c-2.2-0.2-4.1-1.5-5.7-3c-5.2-5.4-7-13.7-4.6-20.9
		C138.4,102.7,139.1,104.7,140.1,106z M152.2,112.5c0.7,0.2,0.8,1,0.7,1.6C152.3,114.1,152.3,113.1,152.2,112.5z M153,118.7
		c0-0.7-0.2-1.3-0.2-2C153.1,117.2,154,118.8,153,118.7z M153.3,113.6c0.8,0.1,1.4,0.9,0.8,1.6C153.5,115.3,153.6,114.1,153.3,113.6
		z M154.4,113.5c-0.6-0.5-1-1.3-1.1-2C154.3,111.6,154.6,112.6,154.4,113.5z M154.4,111.7c-0.8-0.7-1.2-1.8-1.4-2.8
		C154.3,109.2,154.7,110.4,154.4,111.7z M154.3,106.4c0.8,0.1,1.1,1.3,1.4,2C155.1,107.8,153.6,107.4,154.3,106.4z M153.9,103.3
		c-0.8-1-0.9-3.6,0.9-3.9c0.3,0,0.6,0.1,0.9,0.1C155.4,100.9,154.6,102.2,153.9,103.3z M154.4,98.8c0.4-1.3,1.5-3.1,0.5-4.2
		c0.4,2.1-0.7,4.1-2,5.7c0.2-0.9,0.1-1.9-0.3-2.8c-0.5,0.1-0.1,0.5-0.1,0.8c0.1,1.1,0.1,2.1,0.1,3.2c-1.9-2.9-0.2-7.2,3.2-8.1
		c1.4-0.7,1.3,1.1,0.8,1.7C156.1,96.4,156,98.5,154.4,98.8z M152.9,92.1c0.5-0.6,1.4-0.5,2.1-0.9c0.9,0,1.8,0.2,2.7,0.5
		C156.4,92.8,154.5,92.4,152.9,92.1z M153.4,87.1c-0.6-0.3,0,0.6,0,0.9c-0.6-0.1-1.3-0.1-1.8-0.6c0.2-0.4,0.5-0.8,0.8-1.2
		c0.7-0.6,0,1.5,0.5,0.8c0.1-0.5,0.6-0.3,0.9-0.1c1.3,0.6,2.6,1.2,3.9,1.8C156,89.1,154.5,88.2,153.4,87.1z M154.4,84.1
		c0-0.7,0-1.5,0-2.2c1.3,0.7,2.8,1.2,3.8,2.2C157,84.2,155.7,84.2,154.4,84.1z M156.2,62.3c-0.3-0.2-0.5-1-0.9-0.6
		c0.8,1.6,3,2.7,2.9,4.7c-3.1-2.4-4.3-6.3-6.7-9.2c-0.2-0.4-0.6-0.8-0.5-1.3C152.4,58.3,155.5,59.4,156.2,62.3z M145.4,52.8
		c-0.4-2-0.6-4.3,0.7-6l0.1-0.1c0.1,1.9,1.1,3.6,1.5,5.5c-0.4-0.5-0.6-1.2-0.8-1.8c-0.8,0,0.2,1.5,0.2,2c1,3.3,3.5,5.7,4.7,8.9
		c-1.3,0-2.1-1.2-2.9-2C147.1,57.6,145.7,55.3,145.4,52.8z M143.1,58.4c-0.9-2.3-2.1-4.8-1.5-7.3c1,0.6,0.7,2.6,1.8,3.4
		c-0.2-1.2-1-2.3-0.9-3.5c1.5,2.5,2.2,5.5,4,7.8c0.2,0.5,0.6,0.9,0.6,1.5c-1-0.1-1-1.6-1.8-2c0.8,2.9,2.9,5.2,4.2,7.8
		C146.3,64.7,144.4,61.4,143.1,58.4z M134.7,52.8c0.8,0.7,0.9,1.7,1.5,2.5c1.5,1.7,2.5,3.8,3.9,5.6c1.4,1.5,2.8,3.1,3.9,4.8
		c-2.4-2.2-4.5-4.7-6.4-7.4c-0.5-0.6-0.4,0.4-0.1,0.7c1.4,2.9,3.9,5,5.8,7.6c2.2,2.3,4.4,4.6,6.9,6.5c-2.8-1.2-5.5-2.8-7.6-5.1
		C138.5,64,134.6,58.9,134.7,52.8z M136.1,68.8c-1.6-2.5-3.3-5.1-4-8c2.9,2.6,5.6,5.4,8.4,8.1c2,1.4,3.6,3.2,5.4,4.8
		c-1.8-0.8-3.2-2.5-4.9-3.5c1.3,2.3,4.6,3.2,5.7,5.8C142.4,74.8,139.2,71.7,136.1,68.8z M132.7,70.6c3.2,1.4,6.1,3.5,8.7,5.8
		c-0.3,0-1.2-0.6-0.9-0.1c2.1,1.5,4.4,2.8,6.1,4.8C140.6,80.2,136.1,75.3,132.7,70.6z M136.1,79.6c0.4,0.1,0.9,0.5,0.9,1
		C136.7,80.3,136.4,80,136.1,79.6z M137.2,80.5c0.4,0.2,0.8,0.5,1.1,0.7c-0.1-0.3-0.2-0.5-0.4-0.8c1.3,0.6,2.5,1.8,4,2
		c-1-0.9-2.4-1.3-3.5-2.2c1.6,0.4,2.9,1.6,4.5,2.2c0.7,0.4,1.7,0.5,2.2,1.2C142.1,85.7,139,82.8,137.2,80.5z M141.8,87.1
		c2.3-0.4,0.5,0.6-0.4,0.5C141.5,87.4,141.6,87.2,141.8,87.1z M140,89.4c0.3,0,0.9,0,1.2,0C141.1,89.7,139.1,90.3,140,89.4z
		 M139.2,91c0-0.3,0.2-0.4,0.4-0.5C140.6,90.3,139.6,91,139.2,91z M140.9,88.2c0.1,0.3,1.5-0.5,1.2,0.3
		C141.4,88.8,139.9,89.2,140.9,88.2z M141.1,87.1c0.4,0.2-0.5,0.7-0.6,0.4C140.6,87.2,140.9,87.1,141.1,87.1z M140,88.2
		c1.1-0.3-0.3,0.9-0.8,0.7C139.4,88.6,139.6,88.3,140,88.2z M139.6,89.4c-0.3,0.6-1,0.8-1.6,0.9C138,89.5,139,89.6,139.6,89.4z
		 M137.6,91.1c1.2-0.3-0.5,0.8-0.8,1C136.8,91.6,137.2,91.2,137.6,91.1z M135.6,90.5c0.3-0.1,0.6,0.1,0.8,0.1
		c-0.6,0.9,0.3,1.9,0.2,2.9c-0.6-0.5-0.3-1.8-1.3-1.9C134.7,91.6,135,90.6,135.6,90.5z M134.4,91.8c0.8,0.4,1.3,1.9,1.4,2.9
		c-0.7-0.7-0.6-1.9-1.7-2.2C133.7,92.3,134.2,91.9,134.4,91.8z M133.1,93.2c1.2-0.2,1.5,1.5,2,2.3c-1,0.5-0.6-1.8-1.6-1.8
		C133,93.8,133,93.5,133.1,93.2z M133.8,96.7c-0.5-0.5-0.6-1.1-0.5-1.7C133.6,95.5,133.9,96,133.8,96.7z M144.2,132.2
		c-3.2-0.3-5.9-2.3-8.1-4.4c-2.9-3.3-5.1-7.2-6.3-11.4c-1.4-6.3-0.5-13.2,3.1-18.6c0.3-1,1.9-0.2,1.4-1.6c0.7,0.3,1.1,0,1.1-0.7
		c1.2,0.5,0.6-1.3,1.4-1.2c1.5-1.8,4-2.8,6.3-3.3c0.9-0.2,1.8,0,2.7,0.1c-0.8,0.5-1.8,0.5-2.7,0.5c-0.3,0-1.1-0.7-0.9,0
		c0.5,0.2,1.1,0.4,1.6,0.5c-1.1,0.6-2.6,1.2-3.7,0.3c0.1,0.9,1.4,0.9,2,0.8c-0.4,0.3-0.7,1.2-1.3,0.7c-1-0.5-2.8-0.8-3.4,0.4
		c-0.2,1.3,1.8,0.9,2,1.6c-1.1,0.1-2.1,0.1-3.1-0.4c0.7,1,2,0.6,3.1,0.7c-0.7,1.8-3.5,2-4.9,0.9c0.6,1.6,2.6,0.9,3.9,0.7
		c-0.5,2.4-3.5,2.7-5.3,1.9c-0.6-0.5-0.2,0.5,0.2,0.5c1.2,0.2,2.7,0.4,3.8-0.2c-0.4,2.5-3.6,3.3-5.6,2.5c-0.1,0.7,1.2,0.3,1.5,0.6
		c1.2,0.3,2.2-0.5,3.3-0.7c-0.2,2.3-2.9,4-5.1,3.3c-0.3-0.1-0.1,0.5,0.1,0.4c1.8,0.6,3.1-0.6,4.4-1.5c0.1,2.7-2.4,5.9-5.3,4.6
		c0.3,0.7,1.7,0.7,2.4,0.5c1-0.4,1.6-1.4,2.5-1.8c-0.1,1.1,0,2.4-0.9,3.2c-1.3,1-2.9,1.7-4.5,1.4c2,1.2,3.9-0.7,5.5-1.7
		c0.6,2.7-2.4,5.1-4.9,4.4c1.7,1.3,4.1-0.6,5.1-2.2c0.8,4.4,3,8.5,6.2,11.6c1.3,1.1,3.1,1.6,3.8,3.2c0.3,1.4,0.8,3.3-0.4,4.4
		c0.7,0.1,0.9-0.7,1-1.2c0.1-1.5,0.1-3.2-1-4.4c2.3,0.1,4.1,2.6,3.6,4.9c1-1.4-0.5-3-1.1-4.3c1.7-0.6,3.1,1.2,4,2.4
		c0.1-1.4-1.8-1.8-2.3-2.9c1.3-0.7,2.7-0.4,4,0.1c-0.3-1-1.7-0.6-2.6-1c0.7-1,1.9-1.8,3.1-2c-0.4-0.7-1.1,0.2-1.7,0.3
		c0.2-1,0.9-1.9,1.7-2.5c-1.5,0.6-0.7-1.9-0.1-2.4c0.8,3.4,0.7,7.3-1.6,10.1C150,131.1,147.1,132.6,144.2,132.2z M151.7,131.2
		c0.3-0.2,0.9-0.7,1.2-0.9C152.7,130.8,152.2,131.1,151.7,131.2z M153.5,130.3c0.2-0.5,0.5-0.8,0.8-1.2
		C154.9,129,154,130.3,153.5,130.3z M153.8,128.8c0.1-0.4,0.4-0.7,0.6-1.1C155.1,128,154.3,128.9,153.8,128.8z M154.3,127.1
		c-0.1-0.2,0.1-0.5,0.2-0.6C155,126.4,154.6,127.3,154.3,127.1z M154.6,120.2c0-0.5-0.1-1-0.2-1.5
		C154.8,119,155.2,119.9,154.6,120.2z M154.9,129.2c0.2-0.4,0.4-0.8,0.8-1C156,128.2,155.5,129.3,154.9,129.2z M154.9,128.1
		c0.2-0.6,0.4-1.2,0.8-1.8C156.7,126.5,155.7,128,154.9,128.1z M156.8,123.1c0.6,0.4,0.2,1.9-0.6,2.3
		C156.2,124.7,156.3,123.8,156.8,123.1z M156.2,128c0.1-0.2,0.1-0.5,0.2-0.7C157.3,126.9,156.7,128,156.2,128z M156.4,126.9
		c-0.2-0.8,0.3-1.4,0.7-2C157.6,125.2,156.8,126.5,156.4,126.9z M157.8,125.2c-0.4-0.5-0.1-1.2,0.3-1.6
		C158.4,123.7,157.8,124.8,157.8,125.2z M158.2,119.8c0,0.3-0.6,0.7-0.5,0c-0.6-0.7-0.1-1.5,0.1-2.2
		C158.2,118.2,158.3,119,158.2,119.8z M158.1,116c0.9,0,0.3,1.4,0.6,2C158,117.6,157.7,116.7,158.1,116z M158,112.2
		c0.5-0.1,0.4,0.6,0.5,0.9C158.2,112.9,157.9,112.6,158,112.2z M158.6,119.7c0,0.4,0.1,1.3,0.1,1.8
		C158,121.3,158.1,120.1,158.6,119.7z M158.2,114c0.5,0.4,0.4,1.1,0.7,1.7C158.1,115.5,158.1,114.6,158.2,114z M159.3,119.3
		c-0.4-0.4-0.4-0.9-0.3-1.4C159.3,118.3,159.3,118.8,159.3,119.3z M157.8,108.8c0.4-1.3,0.6-2.9,1.6-3.8c-0.2,0.6-0.5,1.2-0.6,1.9
		c0.9-0.8,1.1-2.1,1.9-3c0.1,0,0.2-0.1,0.3-0.1C161.3,105.6,160.2,108.7,157.8,108.8z M160,96.7c-0.2,0.6,0.7,0.8,0.7,1.4
		c0.2,0.8,0.2,2-0.6,2.6c0.9,1.3-0.7,2.6-1.1,3.7c-1,0.8-2.4,2.9-3.7,1.4c-0.9-1.3-0.4-3.8,1-4.5c0.3-2.6,0.2-5.4,1.7-7.7
		c1.6-3.4,5.7-5.1,9.3-4.6c-0.3-0.4-0.9-0.5-1.3-0.7c0-1.4,1.5-2,2.4-2.8c1-0.8,1.2-2.1,1.3-3.3c0.8,0.8,1.2,2,2.1,2.8
		c-0.8-3.2-3.4-6-3.1-9.5c0.5,0.7,0.8,1.6,1.5,2.2c1.5,1.3,1.6,3.4,2.4,5.2c0.2,0.5,0.1,1.8,1,1.8c1.6-1,2.3-2.9,2.6-4.7
		c0.9-1,0.9-3,2.1-3.6c-0.2,1.7,0,3.4-0.5,5.1c0.9,0.6,2.2-0.5,3,0.2c0.1,1.1-1.2,1.6-1.5,2.5c2.8-1.3,2.7-5,5.1-6.7
		c0.7,1.6-0.1,3.3,0.3,5c0.5,1.5-0.4,3-0.6,4.4c0.1,1.1,1.6,0.7,1.8,1.7c-0.1,0.8-0.6,1.3-0.9,2c0.9-0.1,2.3,0.1,2.7-1
		c0.1-1.7,0.3-3.6-1-4.9c-0.2-0.4-0.7-1.1-0.2-1.5c0.4-0.1,0.5,0.4,0.7,0.6c0.9,1.1,2.3,1.4,3.7,1c-0.5,1.5-2.1,2.5-1.8,4.2
		c0.8-0.1,0.8-1.6,1.8-1.4c1,0.8,0.6,2.3,0.8,3.4c0.2,2.6-0.3,5.2-0.9,7.8c-0.4,0-0.7-0.1-1.1-0.2c0.8,2.2,0.7,4.6,0.9,6.9
		c0.1,1.4-0.2,3-1.3,3.9c-0.5,0.5,0.5,0.3,0.6,0.8c0.5,2,1.7,4.5-0.2,6.2c-0.7,0.7-1.7-1-2.2-0.2c0.5,0.6,0.6,1.3,0.9,2
		c0.9-0.1,1.5-1.8,2.4-1.3c0.8,1.3-0.2,2.8-0.1,4.2c-0.7,1.6-3.2,0-2.7-1.4c0-0.4,0.5-1.5-0.2-0.9c-0.6,0.7-1.7,0.2-2.2-0.4
		c-2.9-3.4-6.6-6.1-10.8-7.7c-0.5-1,0.7-1.2,1.2-1.6c0.3-0.7-0.9-0.1-1.3-0.4c-0.5-0.3-0.8-0.8-1.4-1c0.1,0.9,0.2,1.8,0.2,2.7
		c-1.1-0.6-3.6-0.4-3.3-1.9c-0.9-0.1-1.9-0.7-2.1-1.6c0.2-0.9,0.5-1.7,0.8-2.6c-1.1,0.4-1.9,2.3-3.2,1.4c0.1-0.8,0-1.7-0.1-2.4
		c0.9-1.1-1.1-0.2-1.4-1.1c-0.8-1.6,1.2-2,1.7-3.1c-1.5,0.3-2.6-0.8-3.9-1.2C161.3,97,160.7,96.2,160,96.7z M196.8,72.6
		c-0.9,0.2-1.5,1.2-2.4,1.5c0.9-1.6,2.6-2.8,4.1-3.9c-0.4,1.4,1.3-0.7,1.5-1c0.5-0.1,0.9,0,0.6,0.6c-1.2,3.1-3.4,6-6.2,8
		c-0.7,0.5-0.4-0.6-0.4-1C193.9,74.7,196.1,74.1,196.8,72.6z M195.9,81.2c-0.5,0.2-1.1,0.7-1.5,0.2c1.9-2.6,4.9-4.2,6.9-6.9
		c-0.9-0.1-1.1,1.1-1.8,1.4c-1.6,0.8-2.7,2.2-4.3,2.9c1.8-2.3,4.3-3.9,6.7-5.4c0.8-0.1,0.1,1.1-0.1,1.5
		C200.3,77.4,198.4,79.8,195.9,81.2z M201.9,79c0.3-0.2,0.1,0.6-0.2,0.7c-1.6,0.4-3.1,1.3-4.8,1.6C198.4,80.3,200.4,80.2,201.9,79z
		 M196.4,83.2c0.9-0.6,1.9-1.3,3-1.5c1-0.5,0.6,0.9,0,1.1c-1.9,1.5-4,3.4-6.6,3.3C193.4,84.7,195.2,84.2,196.4,83.2z M195.1,87.5
		c1.4-0.6,3-0.5,4.3-1.3c0.3,0.3-1.3,1.1-1.7,1.4c-1.9,0.8-3.6,2.2-5.6,2.5C191.6,88.2,193.9,88.2,195.1,87.5z M196.3,91.5
		c0.4-0.3,1,0.1,0.4,0.4c-1.2,0.7-2.5,2-3.9,1.7c-0.3-0.1-0.7-0.2-0.5-0.5C193.3,91.9,195.1,92.5,196.3,91.5z M194.8,95.6
		c0.4-0.2-0.2,0.6-0.4,0.5c-1,0.4-1.9,1-2.9,0.9C192.1,95.5,193.7,96.3,194.8,95.6z M190.9,99.9c-0.2-0.7,0.5-0.8,1-1
		C192.9,98.7,191.3,99.9,190.9,99.9z M162.6,110c-1.1-1-0.4-2.9,0.6-3.7c0.7-0.1,1.4,0.3,1.8,0.9C163.8,107.8,163.6,109.3,162.6,110
		z M184.3,123.2c-3.5-2-6.3-5.3-10.1-6.7c-0.7-0.4-1.6-0.6-2.2-1.3c-0.5-1.9,1.3-3.4,2.3-4.5c-1.1,0-1.5,1.4-2.1,2.1
		c-0.6,0.7-0.5,1.6-0.6,2.5c-1-0.3-2.3-0.9-1.9-2.2c0.5-1.1,0.9-2.2,1.6-3.1c-1.2,0.6-1.6,2.2-1.9,3.4c0.7,1.9-1.6,0.5-2.1,0
		c-0.1-1.6,0.8-3.3,2-4.3c-1.5,0.1-1.8,2.2-2.3,3.3c0.2,1.6-1.5,0.5-1.8-0.2c-0.4-1.6,1-2.7,1.9-3.9c-1.2,0.2-1.6,1.7-2.1,2.6
		c0.1,2.1-1.8,0.1-1.9-0.8c0.5-0.9,1-2,1.9-2.7c1-0.2,1.8,0.3,2.5,0.8c5.6,1.6,11.5,3.4,15.8,7.7c0.6,0.4-0.6,0.2-0.9,0.4
		c-1.1,0.7-2.6,1.3-3.1,2.5c1.3-0.9,2.5-2.6,4.3-2.4c0.8,0.3,1.4,1.1,1.8,1.8c-1.7,0-3.8,0.3-4.7,1.8c1.7-1.2,5-2.8,6.2,0
		c-1.4,0.1-3.1,0.1-4,1.3c1.2-0.8,2.7-0.8,4.2-0.9c0.7,0.4,1.2,1,1.7,1.6c-1.3,0-2.9-0.5-4,0.5c2.1-0.5,4.7-0.7,6,1.3
		c-1-0.1-2.4-0.4-3.1,0.6c1.8-0.7,3.8-0.5,5.3,0.7c-0.3,0.4-1.9-0.4-1.7,0.4c1-0.1,2.8-0.5,3.3,0.3
		C190.8,126.5,187.2,125.2,184.3,123.2z M198.2,116.4c-0.3-0.3-0.3-0.7-0.4-1.1C198.5,115.1,198.1,116,198.2,116.4z M197.9,119
		c1.1,2.4,0.3,6.8-3.1,6.5c-1.2-0.5-1.5-2.1-2-3.2c1,0.6,2,1.6,3.3,1.6c0.1-1.2-1.2-2-1.6-3.1c-0.5-1.1-1.4-2.1-1.7-3.2
		C194.3,118.5,196.2,118.2,197.9,119z M188.4,126.1c0.5,0.1,0.9,0.4,1.3,0.7C189.2,126.9,188.4,126.7,188.4,126.1z M189.4,128.1
		c-0.7,0-1.3-0.5-1.9-0.9C188.2,127.1,188.8,127.7,189.4,128.1z M191.2,128.3c-0.7,0.2-1.6-0.1-1.7-0.9
		C190,127.7,190.6,127.9,191.2,128.3z M191.1,126.3c0.4,0.1,0.9,0.1,1.1,0.4C191.8,126.7,191.3,126.8,191.1,126.3z M192.5,127.8
		c-0.4,0.6-1.4,0.3-1.6-0.3C191.3,127.5,192.1,127.7,192.5,127.8z M191.2,126.8c-0.7,0.4-1-0.1-1.3-0.5
		C190.3,126.4,190.7,126.6,191.2,126.8z M192.3,129.2c-0.6,0.2-1.2-0.1-1.7-0.5C191.2,128.6,191.8,128.8,192.3,129.2z M192,128.3
		c0.5,0.1,1.8-0.3,2,0.5C193.4,128.6,192,129.2,192,128.3z M200.4,123c-0.5-0.7-0.3-1.5,0.5-1.8C201.4,121.7,201.2,123,200.4,123z
		 M201.3,122.7c0.8,0,0.2,2.1-0.8,2C200,123.8,200.7,123.2,201.3,122.7z M199.9,123.9c0.1,0,0.2-0.1,0.3-0.1
		c0.6,1.2-0.5,1.3-1.3,1.5C198.4,124.2,199.4,124.2,199.9,123.9z M198.9,124c0-0.6,0.4-1.1,0.6-1.6
		C200.5,122.5,199.8,124.1,198.9,124z M199.8,121.6c0.2-0.5-0.3-1.3,0.2-1.6C200.9,120.1,200.7,121.6,199.8,121.6z M199.5,120.2
		c-0.1-0.4-0.2-0.9-0.2-1.3C200,118.9,200.1,119.9,199.5,120.2z M199.3,121.1c0.5,0.2,0.3,1.4-0.6,1.4
		C198.9,122.1,199,121.5,199.3,121.1z M200,125.3c0.5,0.5-0.6,2.1-1.5,1.6C198.5,126,199.2,125.3,200,125.3z M198.5,125.4
		c-1.9,0.4-0.7-0.4-0.1-0.8C198.9,124.3,198.6,125.1,198.5,125.4z M198.2,125.6c0.8,0.8-0.6,1.3-1.3,1
		C196.7,125.9,197.7,125.9,198.2,125.6z M198,127c-0.4,0.6-1.2,1.1-1.8,0.7c0-0.4,0.3-0.6,0.6-0.8C197.2,126.9,197.6,127,198,127z
		 M196.5,126.5c-0.3-0.1-1.2-0.1-0.7-0.5C196.3,125.8,196.7,125.9,196.5,126.5z M195.2,127.3c-0.5,0-0.5-0.6,0-0.6
		C196.8,125.8,196.1,127.8,195.2,127.3z M195,128.2c-0.9,0.9-1.7-0.8-0.5-0.7C195,127.4,195.6,127.7,195,128.2z M194.1,129.1
		c0.5-0.2,1.3,0.3,1.4,0.8c-0.8-0.1-1.9,0.3-2.4-0.5C193.4,129.3,193.7,129.2,194.1,129.1z M195.5,128.2c0.2-0.2,1.8-0.1,1.3,0.5
		C196.1,129.7,193.7,128.8,195.5,128.2z M197.9,128.6c1.3-0.1,0.1,1.1-0.6,1C195.4,130.3,197.1,128.6,197.9,128.6z M198.8,127.1
		c1.8-0.7,0.6,1-0.1,1.2C196.9,128.7,198,127.3,198.8,127.1z M200.8,126.9c1.1-0.3-0.6,1.3-1.2,1.4
		C199.8,127.7,199.9,126.8,200.8,126.9z M200.3,126.7c0-0.9,0.1-1.9,1.1-1.9C202.1,124.7,201.3,126.8,200.3,126.7z M201.5,121.9
		c-0.5-0.7-0.4-1.6,0.3-2.1C202.3,120,202.5,122,201.5,121.9z M201,120.5c-0.9-0.5-0.6-1.4-0.3-2.2
		C201.7,118.6,201.4,119.8,201,120.5z M200.7,117.6c-0.6-0.6-1.2-1.3-0.7-2.2C200.7,115.6,201.1,117,200.7,117.6z M200.3,118.9
		c-0.7-0.1-0.5-1.4-0.7-1.8C200.3,117.3,200.7,118.2,200.3,118.9z M199.8,114.1c-0.3,0.1-0.6-0.3-0.5-0.6
		C199.6,113.5,199.9,113.9,199.8,114.1z M199.6,116.2c-0.5-0.6-0.9-1.4-0.9-2.3C199.5,114.4,199.6,115.4,199.6,116.2z M199.1,117.6
		c-0.2-0.5-0.4-0.9-0.4-1.4C199.5,116.1,199.7,117.3,199.1,117.6z M198.2,124.3c0.1-0.3,0.1-0.6,0.2-0.9
		C198.9,123.6,198.8,124.4,198.2,124.3z M192,123c0.3,0.6,0.9,1.2,0.9,1.9C192.4,124.4,191.9,123.7,192,123z M191.9,118.7
		c0.9,1.4,1.7,2.9,2.7,4.3C192.9,122.3,191.8,120.3,191.9,118.7z M192.8,112c2.4,0.6,3.9,2.9,4.5,5.1
		C195.5,115.6,194.1,113.8,192.8,112z M195.9,118.1c-2.7,0.2-4.2-2.3-4.4-4.7C193,114.9,194.4,116.6,195.9,118.1z M188.3,126.8
		c-0.7-0.1-1.7-0.4-1.9-1.2C187.1,125.8,187.8,126.3,188.3,126.8z M186.5,126.9c0.3,0,0.6,0.3,0.6,0.6
		C186.8,127.6,186.3,127.2,186.5,126.9z M187.1,128.1c0.3,0.2,0.8,0.3,0.8,0.7C187.6,128.7,187.1,128.6,187.1,128.1z M188.9,128.5
		c0.5,0.2,1.3,0.3,1.3,0.9C189.8,129.2,189.1,129,188.9,128.5z M190,129.8c0.6,0.3,1.5,0.3,1.7,1.1
		C191.1,130.5,190.2,130.5,190,129.8z M191.6,129.8c0.7,0,1.6,0.1,2.1,0.7C192.9,130.7,192.2,130.3,191.6,129.8z M193.7,130.8
		c0.5,0.1,1.6-0.2,1.5,0.5C194.6,131.2,193.7,131.4,193.7,130.8z M195.1,130.6c0-0.5,0.6-0.4,1-0.6c0.3-0.1,0.6,0.1,0.9,0.2
		C196.5,130.7,195.7,130.6,195.1,130.6z M197.6,130.8c-1.5,0.6-0.3-0.2,0-0.5C198.1,130.3,199.1,130.9,197.6,130.8z M199.1,131
		c0.2-0.3,0.4-0.5,0.6-0.7C200.7,130.1,199.5,131,199.1,131z M198.1,130.1c0.3-0.5,0.8-0.9,1.2-1.4
		C201.4,128.5,198.9,129.8,198.1,130.1z M200.3,129.8c0.1-0.6,0.7-0.9,1-1.4C202.4,128,200.8,129.5,200.3,129.8z M201.4,127.9
		c0.3-0.6,0.2-1.6,1-1.8C202.9,126.5,202,127.7,201.4,127.9z M202,126c-0.2-0.9-0.2-1.9,0.7-2.2C203.1,124.2,202.3,125.4,202,126z
		 M202,124c-0.2-1-0.5-2.1,0.6-2.6C203.3,122.2,202.6,123.3,202,124z M203.3,120.6c0,0.5,0.1,1.4,0.1,1.8
		C203.2,121.8,202.5,121,203.3,120.6z M204,118.9c0.4,0,0.1,1.4,0.3,1.6C203.9,120.2,203.5,119.3,204,118.9z M203.6,116.4
		c-0.3-0.4-0.6-0.8-0.5-1.3C203.5,115.3,203.7,115.9,203.6,116.4z M202.9,116.7c0.7,0.1,0.4,1.3,0.7,2
		C202.8,118.6,202.7,117.4,202.9,116.7z M202.9,120.7c-1-0.6-1-1.6-0.3-2.4C202.7,118.6,203.3,120,202.9,120.7z M201.6,112.7
		c0.7,0.2,0.7,1.2,0.9,1.9C201.9,114.2,201.4,113.5,201.6,112.7z M201.7,114.9c0.7,0.5,1,1.5,0.8,2.4
		C201.9,116.6,201.1,115.8,201.7,114.9z M202,119.1c-1-0.3-0.9-1.7-0.7-2.5C202.1,116.8,201.8,118.3,202,119.1z M200.8,115.2
		c-0.4-0.5-0.6-1.2-0.6-1.8C201.1,113.3,201.8,116.5,200.8,115.2z M201.3,113.3c-0.3-0.7-1.2-1.1-1.3-1.8
		C200.8,111.4,201.1,112.6,201.3,113.3z M200.4,110.4c-0.7,0-0.8-0.8-0.9-1.3C199.9,109.4,200.1,109.9,200.4,110.4z M199.5,111.7
		c-0.7-0.5-1.6-1-1.3-2C198.8,110.1,199.4,110.8,199.5,111.7z M197.8,108c0.7-0.1,0.8,0.9,1.1,1.3
		C198.5,108.9,197.7,108.7,197.8,108z M199.5,113.1c-2.9,0.3-6.1-0.9-7.4-3.6c-0.3-0.7-1.2-1.2-1.1-2c2.7,0.5,4,3.4,6.5,4.4
		C197.9,112.7,199.3,112.5,199.5,113.1z M193.8,106.2c0.5-0.1,1.1,0.1,1.2,0.7C194.5,106.8,194.1,106.6,193.8,106.2z M196.4,108.4
		c0.6,0.3,0.8,0.9,1.1,1.5C196.9,109.5,196.5,109,196.4,108.4z M197.1,108.1c-0.7-0.2-1.4-0.7-1.5-1.5
		C196.3,106.8,196.8,107.4,197.1,108.1z M199.9,102.6c-0.7,0.4-2.7-0.6-2.8,0.4c0.8,0,1.6,0,2.4,0c0,0.5-0.7,0.5-1,0.9
		c0.2,0.1,1-0.3,0.7,0.1c-1.4,0.6-3,1.4-4.6,0.9c-1.1-0.4-2.2-1.2-2.4-2.5c1.4,0,2.7,0.4,4,0.3c-0.7-0.9-2.2-0.2-3-1.1
		C195.5,102,197.8,101.9,199.9,102.6z M207.1,91.6l0.1-0.1c-1.4,3.2-3.8,6.2-7.2,7.3c-1.9,0.8-4.3,1-6-0.4c-0.2-0.7,1.3-0.2,1.5-0.6
		c2.3,0.3,4.3-0.9,6.3-1.6C204.1,95.2,205.3,93.1,207.1,91.6z M201.4,93.7c-1.5,1-3.4,1.2-5.1,1.2c-0.4-0.1-1.5-0.3-0.7-0.7
		c3-0.4,5.1-2.5,7.8-3.6c2.7-1.1,4.7-3.3,6.8-5.3l0.1-0.1C208.3,88.8,204.9,91.5,201.4,93.7z M210.5,84c0.1,0,0.2-0.1,0.3-0.1
		c-2.6,3.4-6.4,5.4-10.2,7.2c-0.9,0.2,0.6-0.6,0.8-0.7C204.9,89,207.9,86.7,210.5,84z M212.3,77.9c0.1,0,0.2-0.1,0.3-0.1
		c-0.6,0.8-1.2,1.6-2,2.2C210.9,79.1,211.9,78.6,212.3,77.9z M210.1,80.4c-1.3,1.9-3.6,3.3-5.6,4.6c-0.1,0.3,0,0.4,0.3,0.2
		c1.6-1,3.3-2.1,4.8-3.3c-2.7,3.8-6.4,6.9-10.8,8.6c-0.6,0-2.2,0.5-2.3-0.4c1.4-1.1,3.1-1.8,4.7-2.5c0.7-1.3,2.5-2.2,3.7-3.2
		C207,83.3,208.4,81.7,210.1,80.4z M199.6,87.8c0.3-0.3,0.6-0.4,1-0.5C201.4,87.2,200,87.9,199.6,87.8z M211.6,73.5
		c-1.5,2.3-3.9,3.9-6,5.8c-0.7,0.8-2,1.1-2.4,2.2c3.4-2.4,6.7-5.1,9.5-8.3l0.1-0.1c-1.5,3.3-4,6.1-6.6,8.7c-2.3,1.7-4.9,3.5-7.9,3.7
		c-0.6-0.5,0.4-1.2,0.7-1.6c2.3-1,3.5-3.4,5.7-4.4C207.3,77.6,209.2,75.3,211.6,73.5z M212.2,64.1c0.2,0.3-0.8,1.6-1,2.1
		c0.9-0.1,0.6-1.4,1.4-1.5c-0.1,2.7-1.6,5-2.8,7.4c-1.7,2.9-4.1,5.4-7.2,6.8c-0.3-0.7-0.9-0.6-1.5-0.2c2-2.8,4.7-5.2,6.9-7.9
		c0.7-1.3,2.3-2.3,2.5-3.8c-1,1-1.7,2.5-2.9,3.3C209.2,68.2,210.6,66.1,212.2,64.1z M208.7,57.4c0.3-0.1-0.1,1.3-0.1,1.8
		c0.7,0.3,0.4-1.7,0.8-0.8c0.1,1.8,1,3.7,0.3,5.5c-1.2,4.1-3.9,7.6-7,10.4c-1,0.9,0.4-1.3-0.7-1.3c-1,0.1-1.7,1.2-2.7,1.4
		c1.1-1.4,2.1-3.1,3.6-4.2c2.3-2.7,4.5-5.8,5.3-9.4c-1.2,1.1-1.3,3.7-2.7,4.9C206.8,63,207.7,60.2,208.7,57.4z M204.1,55.7
		c0-0.7,0.8-1,0.4-1.8c0.8,0.9,1.3,2.1,1.3,3.3c0.7,4.4-1.1,8.9-3.9,12.2c-0.3,0.3-0.5,0.8-1,0.8c0.2-0.8,0.4-1.6,0.4-2.4
		c-1.1,0-1.9,1.1-2.9,1.4c3.2-3.9,6.5-8.3,6.4-13.6c-0.8,3.7-2.2,7.6-5,10.4c-1.3,1.2-1.8,3.5-3.5,4.1c0.9-1.2,1.7-2.6,2.6-4
		C201.4,63.3,203.9,59.8,204.1,55.7z M199,62.9c0.1,0,0.2-0.1,0.3-0.1c-1.8,2.6-3.5,5.3-5.2,8C193.8,67.5,196.7,64.9,199,62.9z
		 M194.7,60.6c-0.6-1.7-1.1-3.8-1.7-5.6c-0.8,0.6-0.1,2.2-0.7,3.1c0.1,1.8-1,3.3-1.4,5c-0.4,2.1,0.9,4.1,0.8,6.2
		c-0.2,1.6-0.2,3.3-0.4,4.9c-0.6,1.6-1.3,3.3-2,4.9c-0.8,0.6-1.6,1.2-2.4,1.8c-0.5,0.4-1.1-0.6-0.7-1c0-1.1-0.1-2.2,0.1-3.2
		c0.9-2.7,0.9-5.6,0.8-8.4c-1.2,1.8-0.8,4.4-2.1,6.2c-0.6-3.6,0.8-7.4,2.5-10.5c-0.1-3-0.9-5.9-1.2-8.8c0.2-3.6,0.4-7.3,0.2-10.9
		c0-2,0.8-3.9,1.6-5.7c-0.9,0-1.7,0.5-2.5,0.5c-1-0.8-0.9-2.3-1.6-3.3c0-1.7,1.6-3.6,3.4-3.8c0.4,0.1,1.2-0.3,1.5,0.1
		c-0.1,1.6-2.3,0.3-3.1,1.4c-0.1,1-0.9,1.8-1.4,2.8c0.4,0.4,1-0.1,1.4-0.1c1.3,0.1,2.4,0.8,2.9,2c1.1-0.1,2.1,0.8,2.3,1.8
		c-0.9,0.4-1.8,0.4-2.7,0.2c0.6,0.9,0.6,2.5,2,2.6c0.9,2.8,0.8,5.8,1.6,8.7c0.3,0.5,0,1.8,0.8,1.8c0.1-2.2-0.5-4.3-0.7-6.4
		C193.8,51.1,194.6,55.9,194.7,60.6z M192.4,46.2c-0.8-0.1-0.2-1.7-0.3-2.5C192.5,44.1,192.1,45.4,192.4,46.2z M191,36.9
		c-0.2,0.3-0.7,0.9-0.8,0.2c0.3-1.3,1-2.5,2-3.4c1.3-0.5,1.1,3.1,0.6,1.4C192.1,35.4,191.4,36.1,191,36.9z M193.1,36.3
		c1.3,0.6,2.6,1.4,3.8,2.2c0.2,0.2,0.4,0,0.4-0.3c-0.1-1.3-0.4-2.5-0.5-3.8c2.1,0.9,4,2.4,6.1,3.3c0.4-1.2-0.4-2.6-0.2-3.8
		c3.9,1.5,7.7,3.3,11.6,4.9c0.1,0,0.6,0.5,0.2,0.3c-3.1-1.1-6.3-2.3-9.4-3.5c-0.5-0.2-1.4-0.9-1.8-0.3c0,1.2,0.5,2.4,0.4,3.6
		c-2-1-3.8-2.4-5.8-3.2c-1.4,0.6,0.6,3.1-0.5,3.8c-1.6-0.8-3.2-1.7-4.6-2.8C192.4,36.4,192.8,36.1,193.1,36.3z M200.2,39.1
		c0,0.7-0.2,1.9-1,1.2c-0.2-0.9-0.3-1.9-0.2-2.8C199.5,37.8,200.6,38.1,200.2,39.1z M200.9,43.7c0.1,0.6,0,1.3-0.3,1.9
		c-1.3-1.1-2.2-2.5-3.2-3.8C198.6,42.2,199.6,43.2,200.9,43.7z M201.8,43c2.7,3.5,5.6,6.7,8.3,10.2c-2.5-2.2-4.6-5.1-7-7.5
		c-0.4-0.3-0.5-1-1.1-0.9c-0.4,0.8-0.3,2.6-1.3,2.9c-2.5-2.9-4.9-5.9-6.9-9.2c2.6,2.3,4.4,5.5,6.9,8C201.1,45.4,201.2,44.1,201.8,43
		z M216,45.4c-3-1.8-6.1-3.6-9.2-5.3c-1.4-0.3-0.6,2.4-1.7,2.5c-1.5-0.8-2.4-2.6-4.1-2.9c-0.4,0.8-0.2,1.8-0.4,2.7
		c-0.5,0-0.9-0.4-1.4-0.6c-0.6-1.5,0.5-0.5,1-0.5c0.2-0.9,0.3-1.8,0.4-2.7c1.8,0.8,3.1,2.4,4.7,3.5c0.3-1,0.3-2.1,0.6-3.1
		c3.4,1.9,6.6,4.1,10,6.1C216,45.1,216.6,45.6,216,45.4z"/>
	<path class="st0" d="M168.3,66.8c0.2-0.3,0.7-1.3,0-1.2c-0.4,0.4-0.8,0.4-1.3,0.5C167,66.7,167.7,66.9,168.3,66.8z"/>
	<path class="st0" d="M173.2,69.3c-0.2-0.5,0.5-2.5-0.7-2.1c-1.1,0.5-3.1-0.1-3.5,1.4c0.6-0.1,1.2-0.3,1.9-0.2
		c-0.4,0.6-1.5,0.2-1.5,1.1C170.7,69.5,172,69.2,173.2,69.3z"/>
	<path class="st0" d="M177.5,69.5c0.5-0.3,0-1.1,0-1.5c-1,0.1-1.8-0.6-2.8-0.6c-0.3,0.6-0.2,1.3-0.2,1.9
		C175.3,70,176.5,69.6,177.5,69.5z"/>
	<path class="st0" d="M172.9,70.1c-0.4,0.4-0.8,0.9-1.2,1.4C172.5,71.6,173.2,70.3,172.9,70.1z"/>
	<path class="st0" d="M173.6,72.9c-0.7,0.5-2.2,0.4-2.4,1.5c1.6-0.5,3.3-0.4,4.9,0c-0.1-0.9-1.3-1.1-2-1.1c0.2-0.6,1-0.9,1.4-1.5
		c-0.2-0.4-0.4-0.7-0.6-1c0.2,1.4-1.4,0.7-2.2,0.8C172.6,72.2,173.1,72.6,173.6,72.9z"/>
	<path class="st0" d="M172.7,74.8c-0.3,0.2-0.8,0.2-0.8,0.6c0.9,0.1,1.9,0.5,2.8,0.2c0.2-0.1,1.4,0.2,1.2-0.5
		C175,74.4,173.8,75.1,172.7,74.8z"/>
	<path class="st0" d="M175.3,86.5c0.8,0.5,1.2-0.7,1.1-1.3c0.1-0.3,0.8-1.1,0.1-0.9c-0.6,0.9-1.1,2-2.5,1.7
		C172.7,86.2,174.9,86.5,175.3,86.5z"/>
	<path class="st0" d="M176.1,90.3c1.1,0.4,1.5-0.5,1.8-1.3c-0.7,0.6-1.2,0.1-1.6-0.6C176.3,88.9,176.2,89.8,176.1,90.3z"/>
	<path class="st0" d="M176.1,92.5c0.5,0.3,0.9,0.7,1.4,0.8c0.2-0.6,0.4-1.1,0.9-1.6c-0.5-0.2-0.7-0.7-1-1
		C177.2,91.6,177.1,92.5,176.1,92.5z"/>
	<path class="st0" d="M180.7,93.7c1.6,0.2,4.2,1.4,5.2-0.5c-1.5,0.8-3.1,0.1-4.6,0.1C180.9,93.4,180.1,93.3,180.7,93.7z"/>
	<path class="st0" d="M188,94.4c0.5,0,1.3,0.9,1.5,0.1c-0.3-0.4-0.4-1.1-1-0.8c-0.7,0.1-1.3,0.3-2,0.3C186.3,94.7,187.7,94,188,94.4
		z"/>
	<path class="st0" d="M167.5,98.9c0.9-0.8,1.6-1.9,1.9-3.1c-0.1,0-0.2,0-0.3,0.1c-0.8,0.7-1.2,1.7-2.1,2.3
		C165.9,98.4,167,99.6,167.5,98.9z"/>
	<path class="st0" d="M179,101.6c0-1.1-0.5-2.2-0.5-3.3c0.1-0.7,1-0.7,1.1-1.3c-1,0-2-0.2-2.9-0.4C178,97.9,178.1,100.1,179,101.6z"
		/>
	<path class="st0" d="M185.2,99.7c-0.1-1.3-1.3-2.4-2.6-2.5c0.6,0.6,1.2,1.2,1.5,2C184.2,99.6,184.7,99.8,185.2,99.7z"/>
	<path class="st0" d="M170.9,99.4c-0.5,0.5-0.7,1.1-1,1.7C171.2,102,171.1,99.5,170.9,99.4z"/>
	<path class="st0" d="M184.8,106.2c1.3-0.4,0.7-2.6,1.8-3.3c0.9-0.4,1.8,0,2.7,0.2c-0.2-0.9-1.4-1-2.1-1.4c-0.9,0-1-1.3-1.5-1.5
		C185.1,102.1,185.7,104.4,184.8,106.2z"/>
	<path class="st0" d="M171.6,105.1c0.2,0.1,0.7,1.6,1,0.8c0.3-1.1,1.9-0.8,2.5-1.7c-1.6,0-2.7-1.2-4-1.9c-0.2,0.8-1.1,1.3-1.3,2.1
		C170.4,104.7,171.4,104.2,171.6,105.1z"/>
	<path class="st0" d="M187.3,104.6c0.5,0.9,0.9,2.2,2,2.3c0.4-0.3,1-0.9,0.5-1.4C188.8,105.8,188.3,104.4,187.3,104.6z"/>
	<path class="st0" d="M184.3,112.8c0.8-1.2,1.1-3.3,0-4.4C184.6,109.8,184.2,111.3,184.3,112.8z"/>
	<path class="st0" d="M180.4,111.5c-0.4-0.4-0.5-1.3-0.7-1.4C179.2,110.4,180,112.4,180.4,111.5z"/>
	<path class="st0" d="M176.8,111.9c-1.3,0.5-2,1.7-2.8,2.7c-0.2,0.4-0.6,1-0.1,1.3c0.1-1.4,1.3-2.2,2.1-3.2
		C176.1,112.2,177.4,112.3,176.8,111.9z"/>
	<path class="st0" d="M178.1,113.7c0.6-0.2,1.3-0.8,0.2-0.5c-0.9,0.6-1.5,1.5-2.4,2.2c-0.3,0.3-0.9,1.7-0.1,1.4
		C175.6,115.1,177.6,114.9,178.1,113.7z"/>
	<path class="st0" d="M180.3,114.8c-1.1,0.9-3.1,1.5-2.9,3.2c0.5-1.6,2.2-2,3.3-3C181.5,114.9,181.6,114.4,180.3,114.8z"/>
	<path class="st0" d="M135.5,116c0.3,0,0.5-1,0-0.7c-0.9,1.6-3,2.4-4.8,2.2C132.4,118.4,134.1,117.1,135.5,116z"/>
	<path class="st0" d="M136.6,117.9c-1.4,1.1-3,2.8-5,2c0.7,1.3,2.7,0.2,3.6-0.5C135.6,119.1,137,118.2,136.6,117.9z"/>
	<path class="st0" d="M137.5,120c-1.1,1.4-2.6,2.7-4.5,2.5c1.7,0.9,3.2-0.9,4.4-1.9C137.4,120.5,138.1,119.7,137.5,120z"/>
	<path class="st0" d="M138.9,122.1c-0.7,1-1.9,1.4-2.7,2.4c-0.3,0.7-1.7-0.1-1.6,0.8c1.5,0.3,2.1-1.3,3.3-1.8
		C138.4,123.2,139.3,122.2,138.9,122.1z"/>
	<path class="st0" d="M139.9,124.9c0-0.2,1-1.5,0.3-1.2c-0.6,1.7-2.4,2.7-3.7,3.7C137.9,127.2,138.9,125.8,139.9,124.9z"/>
	<path class="st0" d="M141.8,125c-0.6,1.7-1.8,3.1-2.6,4.7c1.2-0.6,1.4-2.5,2.3-3.5C141.6,126,142.4,125.3,141.8,125z"/>
	<path class="st0" d="M141.7,131c1.5-1.1,2.2-3.7,1.5-5.3C143.2,127.6,142.9,129.6,141.7,131z"/>
</g>
</svg>
