<?xml version="1.0" encoding="utf-8"?>
<!-- Generator: Adobe Illustrator 26.0.3, SVG Export Plug-In . SVG Version: 6.00 Build 0)  -->
<svg version="1.1" id="Слой_41" xmlns="http://www.w3.org/2000/svg" xmlns:xlink="http://www.w3.org/1999/xlink" x="0px"
	 y="0px" viewBox="0 0 239.5 150.2" style="enable-background:new 0 0 239.5 150.2;" xml:space="preserve">
<g>
	<path d="M48.7,121.9c1.6,1.1,3.5,2,5.5,2.4c0.6,0.1,1.2,0.3,1.7,0.5c-1.6,0.2-3.4-0.3-4.9,0.3c1.8,0.1,3.7,0.5,5.5,0
		c0.6,0,1.1,0.3,1.6,0.5c-1.6,0.5-3.4,0.8-5,0.4c-3.4-0.6-5.9-3.7-9.4-4.1c0.9,0.6,1.9,1,2.8,1.5c1,0.5,1.9,1.2,2.9,1.8
		c2.8,1.8,6.4,2.1,9.4,0.8c1.7-0.1,3.5-0.2,5-1.1c1.2-0.8,2.5-1.7,3-3c-1.3,0.9-2.3,2.1-3.8,2.8c-1.1,0.4-2.3,0.8-3.5,0.6
		c-1.7-0.3-3.4-1-5-1.5c-3.2-0.7-6.3-2.4-8.2-5.1c0.4-0.2,0.7-0.3,1.1-0.5c1.3,0.7,2.5,1.8,4,2.1c0.7,0.2,1.6,0,2.2,0.6
		c2.2,1.7,4.8,3,7.6,2.9c1.5,0,2.9-0.7,3.9-1.7c1.1-1.1,1.2-2.9,1-4.3c-0.5,0.8-0.5,1.8-0.8,2.6c-0.5,1.6-2.3,2.4-3.9,2.6
		c-3,0.3-5.8-1.3-8-3.2c-1.2-1.1-2.6-1.9-4.1-2.5c0.3-0.3,0.5-0.6,0.8-0.9c-0.6,0.1-1.2,0.5-1.8,0.5c-1.4-0.4-2.6-1.2-3.9-1.8
		c1-1.2,2.2-2.4,3.3-3.6c0.8-0.8,1.9-1.2,3-1.6c-1.4-1-2.9-2.1-3.3-3.9c-0.8-2.3-0.3-4.9,0.7-7.1c0.8-1.5,2.3-2.7,2.7-4.5
		c0.8-2.2,0.2-4.6-0.2-6.9c-0.3-1.5-0.6-3.1-1.7-4.2c0.4,1.3,0.9,2.6,1.2,3.9c0.5,2.5,1,5.2,0,7.7c-0.5,1.4-1.7,2.4-2.4,3.7
		c-1.2,2.3-1.6,5-1,7.5c0.4,1.6,1.6,2.8,2.8,3.8c-2.4-0.6-3.8-3.1-4.3-5.3c-0.7-3.2,1.9-5.9,1.6-9c-0.2-1.7-1.3-3.1-2.7-4
		c-1.7-1.1-3.9-1.7-5.9-1.3c-1.6,0.2-3.2,0.5-4.8,1.1c-0.9,0.3-1.7,1-2.1,1.8c1.2-0.6,2.4-1.8,3.9-1.5c2.8,0.6,5.8,1.6,7.7,3.9
		c0.5,0.5,0.7,1.3,1.5,1.5c-0.3-0.9-0.8-1.7-1.5-2.3c-1.9-2-4.7-2.7-7.2-3.5c1.7-0.4,3.5-0.8,5.3-0.4c2.3,0.4,4.6,2.1,5.2,4.4
		c0.3,3-1.6,5.6-1.7,8.5c-1.3-1.4-3.2-2-5.1-2.3c-0.8-0.1-1.7-0.1-2.4,0.5c2.8-0.3,5.9,0.5,7.7,2.8c0.4,0.9,0.6,1.9,1.1,2.7
		c0.6,1.1,1.6,1.9,2.6,2.7c-0.6,0.5-1.2,1-1.9,1.4c-1.2-0.1-1.5-1.5-1.7-2.5c0.8,0.7,1.7,2,3,1.4c-0.8-0.5-1.8-0.8-2.3-1.7
		c-0.9-1.6-1.8-3.3-3.5-4.3c-1.6-0.9-3.4-1.7-5.4-1.6c-0.5,0.2-0.8,0.8-1.3,1.1c-1.1,1.2-1.5,2.9-2.4,4.2c-0.8,1.1-1.7,2.2-2.9,2.9
		c-2.1,0.9-4.5,1.2-6.6,0.2c2.5-0.8,4.1-2.9,5.7-4.9c1.2-1.5,2.9-3,4.9-2.9c0.6-0.1,1.6,0.2,1.9-0.5c-1.7-0.2-3.4,0-5,0.3
		c-2.1,0.4-3.9,1.7-5.4,3.1c-1.5,1.2-2.6,2.9-4.4,3.8c-1.9-0.3-3.7-1.2-5.6-0.9c1.5,0.6,3.2,0.6,4.6,1.4c-1.1,0.2-2.2,0.4-3.2,0
		c-2.9-0.9-4.9-3.5-7.6-4.7c-0.4-0.2-0.8,0-1.2,0.1C7.1,106,5.8,105,4.9,106c1.6,0,3.3,0.4,4.7,1.2c1.4,0.8,2.4,2.1,3.8,2.8
		c2.7,1.5,5.9,1.6,9,1.4c1.1,0.2,2.1,1,3.3,0.9c2.5,0.2,5.1-0.6,6.8-2.6c2-1.8,2.2-4.8,4.4-6.4c0.5,0.1,0.9,0.2,1.4,0.2
		c-1.6,0.7-2.2,2.6-2.3,4.2c0.7-0.9,0.8-2.1,1.5-3c0.5-0.7,1.4-0.8,2.2-1c-0.9,1.2-2.2,2.4-2.2,4c0.7-0.9,1.2-2,2-2.9
		c0.4-0.3,0.9-0.6,1.4-0.3c1.5,0.7,2,2.4,1.9,3.9c-0.8-0.6-1.6-1.3-2.6-1.4c0.7,0.7,1.6,1.2,2.3,2c0.4,0.5,0.4,1.2,0.5,1.9
		c-0.8-0.8-1.6-1.7-2.6-2.3c-1.2-0.6-2.6-0.7-3.8-0.4c-1.7,0.6-3,2-3.9,3.6c-0.3,0.5-0.5,1.1-1.1,1.3c-1.2,0.5-2.6,0.8-3.9,0.8
		c-2.2,0-4.4-0.7-6.7-0.8c1.6,0.9,3.6,0.9,5.4,1.3c1.8,0.4,3.5-0.2,5.2-0.5c-1.3,1.1-3,1.9-4.8,1.7c-3.2,0.1-5.7-2.1-8.5-3.1
		c-1.5-0.6-3.1-1.2-4.7-1.2c0.3,0.5,0.8,0.5,1.3,0.6c3.2,0.8,6,2.6,9,4c-1.1,0.1-2.2,0-3.3-0.1c0.8,0.4,1.7,0.7,2.6,0.6
		c1.8,0,3.5,0.1,5.3-0.2c1-0.2,1.8-0.7,2.7-1.1c-1.6,1.4-3.8,1.7-5.7,2.5c1.5,0.3,3-0.6,4.4-1.1c-1,0.8-1.9,1.8-3.2,2.2
		c-0.8,0-1.6-0.3-2.5-0.4c1,0.7,2.2,1,3.3,1.5c2.2,1,4.5,1.4,6.8,2.1c1.6,0.5,3.2,0,4.8,0.1c1.4,0.1,2.6-0.6,3.8-1.1
		c-1.4,0.8-2.6,2.1-4.2,2.6c-1.9,0.2-3.9,0-5.8-0.2c1.5,0.9,3.4,0.8,5.1,0.8c1.7,0,2.9-1.3,4.2-2.1
		C44.1,120.7,46.8,120.5,48.7,121.9z M10.4,106.8c1.4,0.8,2.6,2,3.9,3C12.8,109.2,11.6,108,10.4,106.8z M20.6,110.9
		c-0.1-0.4,0.6-0.4,0.8-0.2C21.4,111.1,20.7,111.2,20.6,110.9z M21.8,110.3c0.8-0.5,1.6-1.1,2.3-1.8c1.9-2,4-4,6.7-4.9
		c-2.6,1.9-3.9,5.2-6.8,6.6C23.3,110.7,22.5,110.7,21.8,110.3z M48.7,117.5c1.4,0.5,2.6,1.4,3.7,2.3c-1.6-0.3-3.1-1-4.4-1.9
		C48.2,117.8,48.4,117.6,48.7,117.5z M47.9,117.5c-0.6-0.2-1.1-0.4-1.7-0.7c0.2,0.3,0.3,0.6,0.5,0.9c-0.3,0.1-0.5,0.2-0.8,0.3
		c-0.5-0.8-1-1.6-1.4-2.5C45.7,116.3,47,116.6,47.9,117.5z M42.8,105.4c0.5,0.6,0.9,1.2,1.4,1.9c-0.2,0-0.5-0.1-0.7-0.2
		c0.6,1.1,1,2.2,1.3,3.4c0.2,0.7,0.9,1.2,1.5,1.6c-0.4,0.2-0.9,0.7-1.2,0.1c-0.6-1-0.3-2.4-1.2-3.2c0.3,1.4,0.3,3.1,1.4,4.1
		c-0.3,0.2-0.6,0.3-0.9,0.5c-0.7-1.4-1.1-2.9-1-4.4C43.4,107.9,43.2,106.6,42.8,105.4z M30.2,120.1c-1.1-0.3-2.1-0.7-3.1-1
		c2.1-1,4-2.6,5-4.8c0.8-1.7,1.6-3.5,3.2-4.7c1.5-1.2,3.6-1.2,5.2-0.2c1.3,0.8,2,2.1,2.8,3.4c-1.4-0.6-3.2-1.1-4.5,0
		c1.2-0.1,2.5-0.4,3.6,0.2c0.6,0.2,1,0.8,1.3,1.4c-1.6-0.5-3.3-1.1-5-1c-0.9,0-1.7,0.6-2.5,0.9c-1.4,0.6-3.1,0.9-4.2,2
		c2.4-0.8,4.7-1.8,7.2-2.3c-0.8,0.5-1.6,1.1-1.9,2c1-0.6,2-1.6,3.2-1.8c0.7,0,1.4,0.3,2.1,0.5c-0.8,0-1.8-0.2-2.5,0.3
		c-1.4,1.1-2.3,2.7-3.5,4c-0.8,0.8-2,0.9-3,1.1C32.3,120.1,31.2,120.4,30.2,120.1z M38,121c-1.9,0.9-3.9,0.1-5.8-0.4
		c1.3-0.2,2.6-0.2,3.8-0.7c1.8-1.2,2.5-3.4,4.2-4.6c0.5-0.3,1.1-0.2,1.6-0.3c-0.8,0.6-1.5,1.3-1.9,2.3C39.4,118.6,39.3,120.3,38,121
		z M38.9,121.4c0.8-1,1.4-2.3,1.7-3.5c0.4-1.2,1.4-2.5,2.8-2.5c0.7,0.6,1,1.4,1.4,2.2c0.5,1.1,1.2,2,2,2.9c-1.2-0.1-2.4,0-3.5,0.3
		c0.8-0.4,1.7-0.8,2.2-1.6C43.4,120,41.3,121.3,38.9,121.4z"/>
	<path d="M18.2,90.8c1.2-0.2,2.3-0.4,3.4-0.7c1.6-0.5,2.9-1.6,4.6-1.8c1.9-0.2,3.7,0.6,5.5,0.8c0.4,0.1,0.9,0.1,1.3,0.4
		c-2.4,2.4-4.3,5.2-6.2,7.9c-1.2,1.8-3,2.9-4.6,4.3c2-0.6,3.5-2.2,4.8-3.8c2-2.7,3.8-5.6,6.2-8c0.5-0.7,1.4-0.4,2.2-0.6
		c1.4-0.1,2.6-0.7,3.9-1.1c2.3,0,4.8,0.7,6.3,2.5c1.3,1.5,1.3,3.5,1.4,5.4c0.9-0.5,0.3-1.6,0.8-2.3c1.1-1.5,2-3.4,1.4-5.2
		c-0.5-1.8-2.3-2.9-4-3.3c-3.2-0.5-6.3,0.4-9.3,1.6c-1.1,0.6-1.9,2.1-3.3,1.9c-2.2-0.2-4.3-1.2-6.6-1c-1.5,0.1-2.8,1-4.1,1.5
		c-2.2,0.9-4.5,1-6.8,1.2C16.2,91.1,17.2,90.9,18.2,90.8z M45.4,86c1.6,0.3,3.3,1.5,3.6,3.2c0.1,1.6-0.6,3.1-1.5,4.4
		c-0.3-1.2-0.7-2.6-1.7-3.5c-1-0.9-2.2-1.7-3.5-2c-1.7-0.4-3.5-0.3-5.2-0.9C39.8,86.1,42.6,85.6,45.4,86z M36.4,87.6
		c0.6,0,1.2,0.2,1.8,0.3c0,0.1,0,0.2,0,0.3c-1.2,0.4-2.4,0.7-3.7,0.7C35.1,88.4,35.7,87.9,36.4,87.6z"/>
	<path d="M39.9,94.8c-3.2-1.2-7.1-1.2-9.8,1c-1.8,1.4-2.3,3.8-3.1,5.8c-0.5,1.2-1,2.9-2.4,3.3c-1,0.4-1.9-0.1-2.7-0.7
		c-1.4-1-3.2-1.1-4.8-1c-0.5,0-0.9,0.3-1.3,0.6c1.4-0.1,2.9-0.3,4.3,0.1c1.3,0.3,2.2,1.7,3.6,1.7c1.1,0.1,2.3-0.5,2.8-1.4
		c1.1-1.8,1.6-3.9,2.5-5.8c0.6-1.4,1.8-2.3,3.1-2.9c1.9-0.9,4.1-0.7,6.2-0.5c-1.4,0.7-2.5,2.1-2.5,3.7c0,1.4-0.4,2.7-0.7,4
		c1.9-1.7,0.5-4.8,2.3-6.5c0.9-0.9,2.3-0.8,3.3-0.1c1.5,0.8,1.9,2.7,2.9,3.9c0-0.1,0.1-0.4,0.2-0.5C43.2,97.4,41.9,95.5,39.9,94.8z"
		/>
	<path d="M44.5,102.6c-0.2-1.1-1.4-1.3-2.4-1.6c-1.4-0.3-3.1-0.9-4.5,0c1.2,0.1,2.5,0,3.7,0.3C42.5,101.5,43.4,102.1,44.5,102.6z"/>
	<path d="M40.2,98c-0.9,0.1-1.9,0.3-2.6,1c1.6-0.4,3.3-0.5,5-0.2C42.1,97.9,41.1,97.9,40.2,98z"/>
	<path d="M42.1,97.6c-0.2-0.3-0.5-0.6-0.9-0.6c-1.2-0.3-2.6-0.2-3.5,0.6C39.1,97.4,40.6,97.4,42.1,97.6z"/>
	<path d="M38.2,96.2c0.9,0.2,1.8,0.4,2.7,0.4C40.3,95.7,39.1,95.9,38.2,96.2z"/>
	<path d="M38.5,99.5c0.9,0,1.7-0.2,2.6,0c0.8,0.2,1.6,0.5,2.5,0.7c-0.6-1-2-1.1-3.1-1.2C39.8,99.1,38.9,98.8,38.5,99.5z"/>
	<path d="M97.7,132.7c1.2-0.5,2.4-1.2,3.7-0.8c1.4,0.6,2.7,1.2,4,2c2.2,1.1,4.8,1.5,7.1,0.5c1.3-0.6,2.7-1.6,3-3.2
		c0.4-2.3-0.1-4.6-1.2-6.6c-0.3-0.7-1-1.2-1.8-1.4c2.1,2,2.7,5,2.4,7.8c-0.4,1.8-2.2,2.6-3.8,3.1c-2.5,0.7-4.8-0.7-7-1.7
		c1.5,0.4,3,0.4,4.5,0.5c1.4,0.3,3,0.7,4.3-0.1c1-0.9,1.9-2.1,1.9-3.5c-0.6,1-1.1,2.1-1.9,2.9c-0.9,0.6-2,0.5-3,0.5
		c1.2-0.9,2.5-1.7,3-3.2c-0.9,0.6-1.6,1.5-2.5,2.1c-0.6,0.4-1.2,0.6-1.8,0.9c0.8-0.6,1.6-1.1,2.2-1.9c0.8-1,1.7-2.1,1.9-3.4
		c-1.3,1.6-2.2,3.5-4.1,4.6c-1.6,0.9-3.5,0.3-5.2,0.1c1.2-0.2,2.4-0.7,3.2-1.6c1.2-1.5,1.3-4-0.2-5.3c0.1,0.9,0.4,1.7,0.5,2.6
		c0,1.4-0.9,2.7-2.2,3.2c-1.7,0.9-3.6,0.6-5.5,0.8c-2,0.1-4,0.8-5.7,1.9c0,0.1,0,0.2,0,0.3c0.4,0.1,0.8-0.2,1.2-0.4
		c1-0.6,2.1-0.9,3.1-1.2c-1.8,0.8-3.4,2.1-4.4,3.8c-1.1,1.7-1.3,3.9-2.9,5.3c-1.3,0.9-2.8,0.1-4.1-0.2c1.2,0,2.7,0.1,3.6-0.9
		c1.1-1,0.9-2.7,0.9-4.1c0.8-0.7,1.6-1.2,2.4-1.9c0-0.1,0-0.4,0-0.6c-0.8,0.6-1.6,1.2-2.4,1.8c0.1-1.2,0.4-2.5,1.5-3.2
		c1.9-1.1,4.3-0.5,6.1-1.8c1.9-1,2.8-3.1,3-5.2c0.3,2.1-0.8,4-1.8,5.8c1.2-0.7,1.7-2.2,2.1-3.5c0.4-2.2,0-4.6-1.1-6.5
		c-0.2-0.4-0.6-0.1-0.9-0.1c-0.6-0.5-1.2-1.1-1.9-1.5c-0.6-0.3-1.4-0.4-2-0.8c-0.3-0.3-0.6-0.7-0.8-1.1c1.6,0.7,3.2,1.4,4.7,2.2
		c1.5,0.9,3,2.1,3.6,3.8c0.6,1.5,0.7,3.1,1.2,4.6c0.2-2-0.3-4.1-1.3-5.9c-1.4-2-3.7-3.3-5.9-4.4c-1.1-0.6-2.3-1-3.5-1.2
		c0.3-0.1,0.5-0.2,0.8-0.3c-0.6-0.2-1.1-0.4-1.7-0.6c0.4-0.4,0.9-0.9,1.5-0.7c2.7,0.7,5.3,1.9,7.2,3.9c1,1.2,1.9,2.5,2.4,3.9
		c0.4,1,0.4,2.1,0.9,3c0.4-2-0.7-3.9-1.6-5.6c-1.7-3.2-5.1-5-8.5-5.8c0.2-0.2,0.4-0.5,0.6-0.7c1.3,0.3,2.6,0.6,3.9,0.9
		c0.5,0.1,1,0.2,1.4,0.5c1.5,1.1,2.7,2.6,4,4c0.9,1,1.7,2.1,2.2,3.3c0.3,0.9,0.3,1.9,0.4,2.8c0.9-1.1,0.4-2.6-0.2-3.8
		c-1-1.8-2.5-3.3-3.9-4.8c1.7,1.1,3.3,2.4,4.7,3.8c1,1,1.9,2.1,3.1,2.9c-0.6-1.4-1.8-2.4-2.8-3.4c-1.8-1.9-4-3.4-6.4-4.7
		c2.3,0.5,4.4,1.7,6.2,3.2c1,0.7,1.9,1.7,3,2.2c-1.1-1.6-2.8-2.6-4.2-3.7c-3-2.3-6.8-2.6-10.3-3.6c0.3-0.2,0.6-0.5,1-0.5
		c1.1,0,2.2,0.1,3.3,0c-0.4-0.2-0.7-0.4-1.1-0.6c3.8-0.1,7.3,1.2,10.8,2.3c-0.9-0.9-2.1-1.1-3.2-1.5c-2.1-0.6-4.1-1.3-6.3-1.3
		c3-1,6.3-0.8,9.4-0.8c-0.5-0.2-1.1-0.5-1.7-0.5c-2.6-0.1-5.2-0.1-7.7,0.7c2.8-1.4,6-1.4,9-1.6c-0.6-0.3-1.2-0.4-1.8-0.4
		c-1.9,0.1-3.8,0.3-5.7,0.7c-1.6,0.4-2.8,1.8-4.4,2.2c0.1-0.3,0.1-0.5,0.2-0.8c-2,1.4-4.1,2.8-6.4,3.8c-0.8-0.1-1.6-0.4-2.4-0.6
		c-2.1-0.6-4.4-0.4-6.3,0.7c-1.7,0.9-3.2,2.2-4.9,3.1c-1.1,0.5-2.2,0.7-3.3,1.3c0.4,0,0.8,0.1,1.2,0.1c0,0.3,0,0.5-0.1,0.8
		c1.2,0.1,2.3-0.3,3.5,0c2.4,0.3,5.2,0.8,6.9,2.7c1.1,1.1,1.4,2.7,1.6,4.2c-0.9-1.7-1.7-3.6-3.3-4.7c-1.9-1.2-4.2-2.3-6.5-1.9
		c0.4,0.3,0.9,0.4,1.4,0.5c2,0.3,4,1.1,5.5,2.5c1.3,1.1,2,2.8,2.6,4.3c0.2,0.5,0.5,1.1,0.3,1.6c-1.2,0.9-2.6,1.6-4.1,2
		c-2.8,0.6-5.6,0.1-8.3-0.6c1.9-0.2,3.7-0.7,5.4-1.4c0.5-0.2,0.8-0.6,1.1-1c-1,0.4-2.1,0.9-3.1,1.2c0.7-0.8,1.6-1.6,1.6-2.8
		c-0.2-1.6-1-3-1.7-4.4c0.6,0.5,1.3,0.9,1.8,1.5c0.8,1,1.2,2.3,2.1,3.3c-0.3-1.5-1.1-2.7-2-3.9c-0.5-0.7-1.3-1.2-2.1-1.5
		c-0.2,0.1-0.5,0.2-0.7,0.3c0.7,0.9,1.3,1.9,1.6,2.9c0.3,0.9,0.7,2,0.1,2.9c-0.7,1.1-1.8,2.1-3.2,2.2c-2.3,0.4-4.7,0.1-7-0.4
		c2.3-0.2,4.9-0.4,6.7-2c1.2-1.2,1.8-2.9,1.8-4.6c-0.4,0.2-0.4,0.7-0.5,1.1c-0.3,1.5-1.1,3.1-2.6,3.7c-2.1,1-4.5,1-6.7,1.5
		c1.5-0.5,3.1-0.8,4.2-2c1.2-1.2,1.1-3,0.9-4.5c-0.3-1.8-1.1-3.7-2.7-4.5c0.6,1.1,1.6,2.1,1.9,3.3c0.4,1.5,0.6,3.2-0.2,4.7
		c-1,1.5-2.8,2-4.4,2.4c-3.9,0.5-8-0.3-11.2-2.6c-0.3-0.1-0.5,0.4-0.2,0.5c2,1.7,4.7,2.3,7.2,2.9c-1,0.3-2,0.8-2.9,1.4
		c-0.9,0.7-2,1.4-3.2,1.1c-1.9-0.5-4-1.1-5.5-2.5c-1-0.9-2.4-1.4-3.4-2.4c-1.5-1.4-3.6-1.7-5.6-1.6c-1.3,0.1-2.8-0.2-3.9,0.6
		c3-0.4,6.4-0.6,9,1.3c-2,0.2-4-0.3-6-0.4c2.1,1.3,4.7,0.6,6.9,1.4c0.7,0.4,1.3,1.1,2,1.5c1.3,0.9,2.3,2.3,3.8,3.1
		c1.6,0.9,3.6,1.6,5.3,0.8c1-0.4,1.3-1.5,2-2.2c1.8-0.7,3.8-0.8,5.6-0.5c1.5,0.2,2.5,1.4,3.4,2.6c1.2,1.6,2.5,3.3,4.2,4.3
		c2,1.3,4.7,1.4,6.9,0.4c1.1-0.4,1.9-1.2,2.8-1.8c1.4-0.6,3.3-0.2,4.4-1.4c-1.2,0.3-2.4,0.6-3.6,0.7c0.1-0.3,0.1-0.7,0.2-1
		c-0.5,0.4-1,1-1.7,1c-1.8,0.1-3.7-0.1-5.4-0.5c2.4,0.2,4.8-0.2,7-1c1.7-0.6,3.1-1.8,4.5-3c1.2-1.1,2.8-1.5,4.2-2.3
		c1.1-0.7,1.6-2,2.3-3c0.4,0.6,0.9,1.2,1.4,1.8c-0.1-0.9-0.4-1.7-0.6-2.6c0.2-0.8,0.6-1.6,0.6-2.4c0.1-1.2,0.2-2.6-0.8-3.4
		c0.3,1.7,0.5,3.5-0.2,5.1c-0.5-1.9-0.6-3.9-1.3-5.8c1.5,0.4,2.8,1.4,3.7,2.7c1.7,2.5,0.8,6.5-2,7.8c-1.9,1-4.4,0.4-6.2,1.8
		c-1.4,1.1-1.6,3.1-1.6,4.8c0.1,1.1,0.2,2.4-0.7,3.1c-1.4,0.8-3.1,0.8-4.6,0.3c0,0.1,0.1,0.4,0.1,0.5c-0.4,0-1-0.3-1.3,0
		c-0.9,0.8-1.3,1.9-2,2.9c-0.6,0.7-1.6,0.6-2.4,0.7c0,0.1,0,0.4,0,0.6c1.3,0.1,2.7-0.4,3.2-1.6c0.5-0.8,0.8-2.3,2-2.1
		c1.7,0.1,3.3,1.1,5,1.1c2-0.3,2.8-2.3,3.5-3.9C93.6,135.9,95.4,133.8,97.7,132.7z M77.3,119.7c2.2-1.1,4.1-2.6,6.2-3.7
		c1.7-0.9,3.8-1,5.6-0.6c0.8,0.2,1.6,0.7,2.1,1.3c0.8,0.8,1.8,1.5,2.6,2.4c-1.9-0.9-3.7-2-5.9-2.1c-2.6-0.2-5,1.2-7.3,2.1
		c1.8-1,3.7-1.9,5.8-2.4c1.2-0.3,2.5-0.3,3.6-1c-1.9-0.1-3.8,0.4-5.6,1C82,117.8,79.8,119.2,77.3,119.7z M56.6,133
		c-0.2,0.4-1.1,0.1-1.4-0.3C55.4,132.4,56.2,132.8,56.6,133z M59.3,134.3c-1.4,0.4-2.8-0.3-4-0.9c0.8,0.1,1.6,0.4,2.4,0.2
		c1.2-0.3,2.4-0.7,3.6-1C60.8,133.3,60.2,134.1,59.3,134.3z M75.3,134.9c-1.4-0.5-2.4-1.5-3.8-1.9c0.2,0.3,0.4,0.7,0.8,0.9
		c1.3,0.8,2.7,1.4,4.1,2c1.4,0.6,2.8,1.3,4.3,1.4c1.2,0.1,2.4,0,3.6,0c-2.1,1.9-5.3,2.7-8,1.5c-2.5-1.1-3.9-3.4-5.5-5.4
		c-0.7-1-1.8-1.8-3-2c-2.4-0.5-4.9,0.1-7.2,0.8c2.3-1.4,5.1-2.6,7.8-1.6c1.9,0.6,4,0.6,5.9,0.9c1.4,0.5,2.9,1,4.4,1.2
		c3,0.6,6.3,0.2,8.8-1.8c0.8-0.6,0.8-1.7,0.8-2.7c-0.1-1.2,0-2.4-0.5-3.5c-0.7-1.6-2.1-2.9-3.8-3.5c-1.4-0.6-3-0.7-4.5-1.1
		c0.4-0.2,0.8-0.3,1.3-0.2c1.8,0.1,3.7,0.2,5.2,1.4c1.3,1.2,2.4,2.6,3.3,4.1c0.6,1,0.2,2.2-0.2,3.2c-0.6,1.6-1.3,3.1-2.5,4.3
		c-1.4,1.3-3,2.5-4.9,2.8C79.4,136.2,77.3,135.6,75.3,134.9z M94.4,129.4c-0.9,0.7-2.1,1-3.1,1.6c-1.4,0.8-2.4,2-3.8,2.8
		c-1,0.7-2.2,1.1-3.4,1.5c1.1-0.8,2.2-1.6,3.1-2.6c1.3-1.3,3.2-2.2,4.1-3.9c0.7-1.4,1.5-2.8,1.3-4.4c-0.5,0.9-0.7,1.9-1.1,2.8
		c-0.2,0.7-1,1-1.4,1.6c-0.5,0.7-1.1,1.5-1.7,2.1c1.4-2.8,1.9-6,2.1-9.2c-0.1,0.1-0.3,0.4-0.4,0.5c-0.2,1.1-0.3,2.2-0.6,3.3
		c-1.3-2.2-2.7-4.4-5-5.6c1.4,0,2.8,0.4,4.2,0.6c-1-0.9-2.4-1-3.7-1.1c-1.4,0-2.8,0.3-4.1,0.2c1.2-0.7,2.5-1,3.8-1.5
		c3.2-1,6.6,0.2,9.3,2.1c0.7,0.6,0.7,1.7,0.9,2.6c0.1,1.4,0.9,2.6,1.4,3.8C95.8,127.5,95.4,128.7,94.4,129.4z M96.1,122
		c0.2,1.3,0.5,2.6,0.8,3.8c-1.5-1.9-0.8-4.5-2.2-6.5c-0.9-1.4-2.5-2.3-3.6-3.6c1.3,0.3,2.3,1.4,3.2,2.3
		C95.2,119.3,95.9,120.6,96.1,122z"/>
	<path d="M47.9,80.4c1.5-0.3,2.6-1.4,3.9-2.2c1.1,1.1,2.2,2.2,3.7,2.7c-1.1,0.5-2,1.3-2.7,2.3c0.2-0.7,0.4-1.3,0.5-2
		c-0.5,0.6-1,1.2-1.1,2c-0.3,1.9,0.3,3.9,1.4,5.5c0.3,0.5,0.8,1,0.6,1.6c-0.2,1.6-0.9,3.1-1.9,4.3c-0.7,0.9-1.6,1.5-2.2,2.5
		c-0.7,1.2-0.9,2.6-0.8,4c0.2,3.2,1.7,6.5,4.4,8.4c-0.3,0.1-0.6,0.3-1,0.4c1.9,0.2,3.8,0,5.8,0.1c3.3,0,6.6,0.1,9.9,0.7
		c3.5,0.6,7,1.3,10.5,1.2c-0.2-0.2-0.3-0.3-0.5-0.5c1.3-0.3,2.6-0.9,3.7-1.8c0.7-0.5,1.1-1.2,1.8-1.7c1.1-0.3,2.2-0.4,3.2-0.9
		c1.1-0.5,2-1.6,2.2-2.9c0.2-1-0.5-1.9-0.7-2.9c0.6-1.6,2.2-2.5,3-4c-1.5,0.7-2.5,2-3.4,3.4c-0.8-1.2-1.6-2.6-3-3.1
		c1,1.1,2,2.3,2.7,3.7c-0.6,1-1.1,2.2-1.1,3.4c1-0.4,0.9-1.8,1.4-2.6c0.4,1,0.9,2.3,0.2,3.3c-0.8,1.4-2.5,1.8-4,2.1
		c0.5-0.8,1.1-1.6,1.4-2.5c-0.6,0.5-1.1,1.2-1.6,1.8c-0.9,1.5-3.3,0.2-4,1.9c1-0.3,2-0.6,3-0.7c-1.6,2-4.1,3.3-6.7,3.6
		c1.1-0.8,2.3-1.4,3.1-2.5c0.6-0.7,1-1.7,1.9-2.2c1.1-0.7,2.3-1.1,3.4-1.9c-1.3,0.2-2.6,0.8-3.7,1.5c-1.1,0.7-1.5,1.9-2.4,2.8
		c-0.9,0.8-1.9,1.4-3,1.9c-0.4,0.2-0.9,0.1-1.3,0c1-0.7,1.8-1.7,2.5-2.6c0.8-1.1,2.2-1.6,3.1-2.7c-1.6,0.6-3,1.7-4,3.1
		c-0.7,1-1.7,1.7-2.7,2.2c0.5-0.5,1.1-0.9,1.4-1.6c0.3-0.7,0.5-1.6,1.1-2.1c1.2-0.8,2.7-1.2,3.8-2.1c-1.5,0.2-2.8,0.8-4.1,1.6
		c-1.3,0.7-1,2.7-2.3,3.5c-0.7,0.5-1.6,0.3-2.4,0.1c-4-0.9-8.1-1.2-12.1-1.1c0.2-0.8,0.4-1.6,0.3-2.4c-0.2-2.6-2.3-4.8-2.2-7.4
		c0.2-1.4,0.6-2.8,1.6-3.8c1.3-1.2,2.8-2.2,4.3-3.1c0.9-0.6,1.9-0.9,2.6-1.6c-1.1,0.2-2.1,0.8-3.1,1.4c-1.4,0.8-2.6,1.8-3.9,2.7
		c0.4-0.8,0.8-1.5,1.3-2.2c0.6-0.8,0.3-2,1.3-2.5c1.3-0.6,2.9-0.4,4.2,0c2,0.5,4,0.4,6,0.4c-2.6,2.1-6.4,1.6-9.1,3.5
		c-1.4,0.8-1.8,2.5-2.5,3.8c-1,1.9-0.2,4.1,0.3,6.1c0.4,1.4-0.2,2.8-0.4,4.1c1-0.6,1-1.9,1.1-2.9c-0.1-2.2-1.5-4.4-0.8-6.6
		c0.7-1.8,2.1-3.3,3.7-4.5c1-0.7,2.3-0.9,3.5-1.2c1.9-0.4,3.8-1.1,5.3-2.4c1.2-1.1,1.9-2.6,2.7-3.9c0.8-1.3,2.1-2.1,3.4-2.9
		c1-0.6,2.2-1,3.4-0.9c1.2,0.1,2.4,0.3,3.6,0c1.4-0.4,3.1-0.5,4-1.8c-1.6,0.5-3.1,1.3-4.8,1.4c-1.6,0.1-3.3-0.2-4.9,0.1
		c-1,0.4-1.9,1.1-2.9,1.6c1-1,2-2,3.3-2.4c2.6-1,5.5-0.8,8.3-0.7c1.5,0.1,3-0.5,4.3-1.3c1.4-0.9,3-1.4,4.5-2
		c-0.1-0.3-0.5-0.5-0.4-0.8c0.5-0.1,0.9-0.2,1.4-0.2c-0.4,0.6-0.8,1.4-1.5,1.7c-2,0.9-3.7,2.3-5.7,3c-2.4,0.8-4.6,2.1-7,2.9
		c-2.2,0.7-4.4,1.7-6.6,2.6c-0.5,0.2-1,0.5-1.5,0.9c1.2-0.2,2.3-0.7,3.4-1.1c1.9-0.8,4-1.3,5.9-2.1c3.2-1.3,6.5-2.4,9.5-4.3
		c1.3-0.8,2.8-1.4,4.3-2.1c1.8-0.7,3.8-0.3,5.6-0.2c-0.1-0.2-0.3-0.5-0.4-0.7c2.9-1.1,5.5-3.1,7.4-5.6c0.5-0.6,1-1.4,1.9-1.4
		c2.4-0.2,4.6,0.9,6.6,2c2.4,1.3,4.2,3.4,6.5,4.8c2.2,1.4,5.2,1.9,7.7,0.9c0.9-0.4,1.5-1.2,2.4-1.5c2-0.7,4.2-1.3,6-2.6
		c0.5-0.3,0.8-0.9,1-1.4c-1.9,1.8-4.6,2.6-7,3.4c0.9-1.1,1.9-2.1,3.2-2.6c2.2-0.8,4.4-1.6,6.8-1.7c-0.1-0.1-0.2-0.3-0.3-0.3
		c-1.1-0.2-2.2,0.2-3.3,0.5c-2.2,0.6-4.7,1.1-6.1,3c-0.5,0.6-1,1.5-1.8,1.6c-2.2,0.6-4.7,0.9-6.6-0.5c-2.3-2.1-3-5.5-5.6-7.3
		c-1.6-1.3-3.9-1.7-5.9-1.2c-3.5,1.1-7.2-0.4-10.7,0.8c-2.9,1-5.1,3-7.4,4.9c-1.7,0.6-3.6-0.1-5.4,0.3c-1.2,0.4-2.2,1.3-3.5,1.4
		c-1.4,0.1-2.8,0-4.1,0c0.2-0.2,0.4-0.5,0.6-0.7c0.9,0,1.9,0,2.7-0.4c-0.7-0.1-1.4-0.1-2.1-0.2c0.6-0.5,1.4-0.2,2.1-0.4
		c1.2-0.4,2-1.4,3.3-1.7c1.4-0.2,2.5,0.8,3.9,1.1c-0.5-0.4-0.9-0.7-1.4-1.1c0.7-0.1,1.4-0.3,2-0.5c-1.6-0.2-3.2-0.1-4.8-0.1
		c-1.5,0-2.9,0.6-4.1,1.4c-0.4,0.2-0.8,0.6-1.4,0.5c-1.9-0.3-3.8-1-5.4-2c-1.4-0.9-3.1-1.3-4.8-1c-2.2,0.3-3.8,2.1-5,3.8
		c-1-0.9-2.4-1.2-3.8-1.1c-0.7,0.1-1.1,0.9-1.8,1.1c-1.8,0.5-3.8,1-5.2,2.2c-1.1,1-2.1,2.2-3.6,2.7c-1.8,0.6-3.5-0.5-5.3-0.6
		c-0.5-0.8-1-1.6-1.5-2.4c0.1,1,0.5,1.8,1,2.7c-0.8,0.5-1.5,1.1-2.3,1.6c-1.7,0.8-3.6,1.1-5.5,1.1C45,81.4,46.5,80.7,47.9,80.4z
		 M91.4,71c-0.9,0.7-1.9,1.4-3.1,1.4C89.1,71.6,90.3,71.3,91.4,71z M52.9,85.1c0.1-1.7,1.4-3.2,3-3.8c0.7-0.1,1.4,0.2,2.1,0.3
		c-1.3,1.2-2.5,2.6-3.2,4.3c-0.4,0.9-0.3,2-0.3,3C53.8,87.7,53,86.5,52.9,85.1z M56.9,96.8c-0.5,1-1.1,2-1.5,3.1
		c-1.3-2.7-0.1-5.7,0.6-8.4c-1.1,1.1-1.3,2.8-1.5,4.2c-0.4,2.1,0.1,4.2,1.1,6.1c0.8,1.4,1.3,2.9,1.6,4.4c-1.6-1-2.1-3-3.3-4.3
		c0.6,1.9,1.8,3.9,3.4,5.1c-0.1,0.1-0.2,0.4-0.2,0.6c-1.5-0.6-2.4-2-3.7-2.9c0.7,1.9,2.8,2.5,3.7,4.2c0.4-0.8,0.9-1.7,0.7-2.7
		c-0.2-1.8-1-3.4-1.8-5c-0.5-0.8,0.2-1.7,0.4-2.5c0.2,1.7,0.7,3.4,1.5,5c0.7,1.5,1.4,3.2,0.7,4.8c-0.2,0.7-1.1,0.6-1.7,0.7
		c-0.9,0-2.1,0.3-2.8-0.5c-1.3-1.1-2.6-2.4-3.2-4.1c-0.7-2.1-1.2-4.3-0.4-6.4c0.5-1.8,2.4-2.6,3.3-4.2c0.9-1.5,1.6-3.3,1.4-5.1
		c-0.1-1.3,0-2.6,0.7-3.7c0.7-1.2,1.5-2.5,2.8-3.3c1.3-0.1,2.7,0.3,3.9,0.8c2.8,1.6,5.3,4.1,8.7,4c-1.3-0.7-2.8-0.8-3.9-1.7
		c-1.1-0.8-2.3-1.5-3.4-2.4c0.7,0,1.4-0.1,2,0.2c1.4,0.5,2.3,1.9,3.8,2.2c1.6,0.3,3.2-0.2,4.7-0.7c-0.1,2.3-2.1,4.2-4.4,4.2
		c-1.2-0.2-1.9-1.2-3-1.7c-1.4-0.7-3-0.5-4.5-0.2c0.1-0.2,0.2-0.5,0.3-0.7c-1.1,0-2.1-0.6-3.3-0.4c-1.4,0.2-2.4,1.4-3.2,2.5
		c0-0.4,0.3-1.4-0.4-1c0.2,1.1-0.3,2.2-0.5,3.3c0.9-1.3,1.7-2.9,3.1-3.8c1-0.6,2.2-0.4,3.2-0.1c-1.8,2-4,3.9-4.7,6.6
		C56.5,94.3,56.7,95.6,56.9,96.8z M67.9,83.5c2.4-0.2,4.6-0.8,6.9-1.3c-0.1,0.5-0.3,1.1-0.4,1.6C72.4,84.5,69.6,85.3,67.9,83.5z
		 M125,72c1.2,1.8,2.3,4.1,4.5,4.9c1.8,0.7,3.8,0.3,5.6-0.1c-1.5,0.9-3.3,1.2-5,0.8c-2.6-0.4-4.6-2.4-6.6-4c-2.3-1.9-5-3.2-7.9-4
		c2.5,0,4.9,0.7,7.3,1.3C123.6,71.2,124.5,71.3,125,72z M118.6,68c2.2-0.4,4.3,1.1,5.5,2.8c-2.5-0.6-4.9-1.3-7.5-1.7
		c-1.1-0.2-2,0.4-3,0.6C114.8,68.1,116.8,68.1,118.6,68z M102.9,70.4c-0.1,0.3-0.3,0.7-0.4,1c1.8-1.2,3.4-3.1,5.7-3.2
		c2-0.1,4,0.1,6,0c-2,1.5-3.3,3.8-5.3,5.5c-2,1.7-4.3,3-6.9,3.5c-1.2,0.1-2.5,0.1-3.7,0.4c0.4-0.4,0.8-1,1.4-1.2
		c1.1-0.3,2.1-0.5,3.1-1c-0.3,0.5-0.7,0.9-0.9,1.4c0.9-0.5,1.5-1.3,2.4-1.9c1.9-1.4,3.8-2.7,5.8-3.9c0.6-0.4,1.2-0.8,1.7-1.2
		c-2.9,1.1-5.3,3.2-8,4.8c-1.3,0.6-2.6,0.9-4,1.2c2.8-2.5,5.9-4.7,9.2-6.5c-1.2,0.1-2.3,0.8-3.3,1.4c-2.3,1.5-4.6,3.1-6.6,5
		c-0.5,0.5-1.2,0.3-1.8,0.4C98.5,73.8,100.7,72,102.9,70.4z M94.6,73.5c1.2,0,2.5,0,3.7,0c-0.6,0.9-1.2,1.7-1.7,2.7
		c-1.8-0.1-3.5-0.7-5.1-1.5C92.5,74.1,93.5,73.5,94.6,73.5z M90.4,75.6c1.8,0.7,3.6,1.5,5.5,1.5c-1.8-0.9-3.9-1.1-5.7-2.2
		c2.2,0.4,4,1.8,6.3,1.8c0,0.1-0.1,0.4-0.1,0.6c-1.4,0.6-2.8,1.1-4,1.9c-1.5,1-3.4,1-5.1,0.9C84,80,80.4,80,77.8,82.2
		c-1.4,1-1.9,2.7-3,3.9c-1,1.3-1.4,2.9-2.8,3.9c-1.6,0.1-3.3,0.1-4.9-0.1c-1.6-0.3-3.1-0.9-4.7-0.8c1.1-0.5,2.3-0.9,3.2-1.7
		c-2.9,0.4-5.9,2.3-6.6,5.3c-0.4,1.3-1.3,2.4-1.8,3.6c0-1.3-0.1-2.6,0.3-3.8c0.8-2.2,2.4-3.9,4.1-5.5c1.5,0.3,3-0.4,4.5,0.1
		c1.3,0.3,2.1,1.6,3.4,1.8c1.7,0.3,3.3-0.8,4.3-2.1c1.1-1.6,0.8-3.8,1.7-5.4c1.7-1.3,3.8-2.2,5.8-2.7c3.4-0.8,6.9-0.1,10.3-0.4
		c-1.5-0.6-3.2-0.4-4.8-0.5c-2.2-0.1-4.5,0-6.7,0.7c-1.6,0.4-3,1.3-4.4,2c0.4-0.7,0.8-1.6,1.6-2c1.5-0.8,3.1-1.4,4.8-1.5
		c1.8,0,3.7-0.1,5.5,0.2c1.8,0.1,3.5,0.5,5.3,0.2c-1.5-0.5-3.2-0.4-4.8-0.6c-3-0.4-6.1-0.7-9.1,0.2c1-0.9,2.1-1.4,3.1-2.2
		c-1.6,0.3-2.9,1.5-4.2,2.5c-1.4,1.1-2.8,2.5-3.1,4.3c-2.2,0.6-4.5,1.2-6.8,1.3c2.3-0.9,4.9-1.2,7.1-2.7c-2.6,0.6-5,2.1-7.7,1.9
		c0,0.2,0,0.5,0,0.7c-0.7-0.2-1.3-0.5-2-0.8c2.5-0.7,5.2-1,7.1-2.9c2-1.7,2.9-4.6,5.5-5.7c2.4-0.8,4.6,1,6.9,1.4
		C86.8,75.4,88.7,74.9,90.4,75.6z M68.2,76c-0.3-0.8-1-1.4-1.6-2c1.2,0.5,2.6,1,3.2,2.3c-0.1,1.1-0.5,2.2-0.6,3.4
		c-0.2,0.1-0.5,0.3-0.7,0.4C68.7,78.8,68.8,77.3,68.2,76z M72.1,79c-1.1,1-2.5,1.6-4,1.9C69.5,80.2,70.8,79.7,72.1,79z M85,74.3
		c-1.8-0.3-3.3-1.6-5.2-1.5c-0.8,0-1.6,0.3-2.4,0.3c-1.5,1-2.4,2.6-3.6,3.9c0.8-1.6,1.9-3.2,3.6-3.9c2.8-1.1,5.7,0.3,8.6,0.5
		C85.7,74,85.5,74.4,85,74.3z M73.6,71.5c1.7-1.7,4.5-2.2,6.6-1.1c1.6,0.9,3.2,1.8,5,2.1c0.5,0.2,1.3,0.1,1.5,0.7
		c-2.6,0.1-5.1-1.4-7.7-1.1c-1.3,0.2-2.5,0.7-3.5,1.5c-1.1,1-1.7,2.3-2.5,3.6c-0.8,1.2-2,1.9-3.3,2.4C70.2,76.6,71.4,73.6,73.6,71.5
		z M71.2,73.5c-0.1,0.3-0.3,0.6-0.4,0.9c-0.6-0.5-1.1-1.1-1.8-1.3c-0.6-0.2-1.2-0.3-1.7-0.6C68.6,72.4,70.2,72.5,71.2,73.5z
		 M70.4,75.7c-1.2-1-2.6-1.8-4-2.4C68.1,73,70.5,73.7,70.4,75.7z M57.4,78.6c1.9-0.6,2.9-2.4,4.5-3.4c1.4-1,3.5-1.5,4.9-0.2
		c1.4,1.3,1.3,3.5,0.9,5.3c-1.1,1.1-2.5,1.8-4,2.1c-0.5,0.1-1-0.2-1.4-0.4c-1.6-0.8-3.4-0.8-5.1-1.1c1.3-0.7,2.9-0.7,4.3-1.2
		c-1.8-0.4-3.4,0.3-5.1,0.7c-1.5-0.1-2.8-1.1-3.9-2.2C54.1,78.4,55.8,79.1,57.4,78.6z"/>
	<path d="M49.8,107.4c-1.7-1.9-1.3-4.6-1.7-6.9c-0.4,2.1-0.3,4.4,0.6,6.3c0.7,1.2,1.7,2.3,3.1,2.6C51.6,108.3,50.4,108.2,49.8,107.4
		z"/>
	<path d="M50.8,85.5c0.4,1.5,1.7,2.5,1.8,4.1c0.4,1.4-0.2,2.9-0.9,4.1c1.4-0.4,1.5-2.2,1.5-3.4c0.1-1.5-0.8-2.8-1.6-4
		c-0.8-1.2-0.3-2.7-0.3-4.1C50.5,83.1,50.6,84.4,50.8,85.5z"/>
	<path d="M75.7,117.8c-3.5-0.8-7.1-1.2-10.7-1.7c-1.6-0.1-3.3,0-4.9,0c-1.8,0-3.5-0.4-5.2-0.5c-1.2,0-2.5-0.1-3.7-0.2
		c0,0.1,0,0.3-0.1,0.4c2,0.2,4.1,0.4,6.1,0.7c-0.9,0.5-2,0.7-2.7,1.5c1-0.1,2-0.6,2.9-1c1-0.5,2.2-0.2,3.3-0.3
		c-0.8,0.8-1.7,1.6-2.5,2.4c1.6-0.3,2.4-2.1,3.9-2.5c0.1,1.6-1.1,2.8-2,4c1.6-0.6,2.4-2.3,2.8-3.8c2.1-0.1,4.3,0.3,6.4,0.5
		c2.5,0.2,5,0.9,7.5,1.1C76.3,118.1,76,117.9,75.7,117.8z"/>
	<path d="M53.1,106c0.8,1,1.6,2.3,2.9,2.5c-0.5-0.5-1-0.9-1.5-1.4c-1.5-1.5-2.5-3.5-3.6-5.3C51.1,103.4,52.2,104.7,53.1,106z"/>
	<path d="M60.3,121.5c-2.3,0-4.3-1.5-6.6-1.9c0.7,1,1.9,1.4,2.9,1.8c1.9,0.8,4.1,1.3,6,0.1c1.5-0.8,1.9-2.6,1.8-4.2
		c-0.6,0.6-0.7,1.5-1,2.2C62.9,120.8,61.5,121.4,60.3,121.5z"/>
	<path d="M56.4,86.7c0.3-0.2,0.3-0.6,0.6-0.9c0.7-1.3,2-2,3.2-2.7c-1.6-0.1-2.8,1.2-3.7,2.3C56.3,85.7,55.8,86.4,56.4,86.7z"/>
	<path d="M70.5,122.2c-0.4,0.8-0.8,1.6-1.4,2.2c-1.4,1.2-3,2.3-4.8,2.5c-1.9,0.4-3.8-0.1-5.7-0.3c0.8,1.1,2.3,0.8,3.4,0.9
		c1.4,0,2.7,0.8,4.1,0.7c1.4-0.1,2.9-0.1,3.9-1.1c-1.9,0.5-3.8,0.7-5.7,0.5c1.4-0.5,2.7-1,3.9-1.9C69.4,124.9,70.7,123.7,70.5,122.2
		z"/>
	<path d="M80.9,100.5c-1.5,0-3-0.2-4.4-0.1c-0.6,0.1-1.1-0.3-1.7-0.5c0-0.5,0-1-0.4-1.4c-1-1.4-2.3-2.8-2.1-4.6c0-2,1.8-3.3,2.4-5.1
		c-1.4,1-2.1,2.6-2.9,4.1c-2,1.5-4.1,2.9-6.1,4.3c-1.1,0.8-1.9,2-2.7,3.1c0-0.6,0-1.3,0.4-1.9c0.7-1.2,2-1.9,2.8-3
		c-1.2,0.4-2,1.4-3,2.1c0.3-0.8,0.7-1.7,1.5-2.2c1-0.6,2.2-0.8,3.3-1.1c0.7-0.2,1.5-0.2,1.9-0.9c-1.6,0.2-3.2,0.6-4.7,1.1
		c-2,0.7-3,3-2.8,5.1c0.4,1.3,1,2.5,1.2,3.9c0,1.5-0.9,2.9-2,3.9c-0.6,0.5-1.5,0.7-1.9,1.5c0.6,0,1.3-0.1,1.7-0.5c1.6-1,2.2-3.2,4-4
		c1.4-0.5,3.1-0.3,4.3-1.2c1.2-0.8,1.4-2.4,2.7-3.1c1.4,0,2.8,0.6,4,1.5c1,0.7,1.5,1.9,2.5,2.8c-0.2-0.9-0.7-1.7-1.1-2.4
		c1.5,1,3.1,1.7,4.7,2.4c0.5,0.2,1.1,0.3,1.7,0.3c-1-0.7-2.2-0.9-3.3-1.5c-1.4-0.6-2.6-1.6-3.9-2.3c2,0.3,4,0.1,6,0
		c1-0.1,2-0.1,2.9-0.5C84.3,100.1,82.6,100.5,80.9,100.5z M63.6,101.3c0.1-1.6,1.4-2.8,2.6-3.7c1.9-1.4,3.8-2.8,5.6-4.2
		c0,0.8,0.2,1.5,0.1,2.3c-1.6,1.4-3.8,1.9-5.7,2.8C65,99,64.3,100.2,63.6,101.3z M64.2,101.3c0.7-1.2,1.6-2.3,3-2.8
		c1.6-0.6,3-1.4,4.6-2c-2.1,2.6-6.1,3.1-7.6,6.4C64.1,102.3,63.8,101.8,64.2,101.3z M64.1,104.3c0.4-1,0.8-2.1,1.6-2.8
		c1.1-1.1,2.6-1.7,3.9-2.7c1-0.7,1.9-1.5,2.8-2.3c0.2,0.3,0.3,0.6,0.5,0.9c-1.3,1.1-2.7,2-4.2,2.7C66.7,100.9,65.5,102.7,64.1,104.3
		z M65.2,103.7c0.2-0.2,0.3-0.4,0.5-0.7c1.5,0.1,2.9-0.4,4.3-0.9C68.7,103.4,66.8,103.2,65.2,103.7z M71.9,99.7
		c-0.9,0.5-1.3,1.5-2.2,2c-1.1,0.6-2.4,0.8-3.7,1c0.8-1,1.9-1.8,3.1-2.3c1.5-0.7,2.7-1.7,4-2.7c0.3,0.4,0.7,0.9,1,1.3
		C73.5,99.2,72.6,99.3,71.9,99.7z"/>
	<path d="M71.8,87.5c0.6,0,1-0.4,1.3-0.8c-1.3,0.2-2.6,0.5-3.8,0.1c-2.7-0.6-4.6-3-7.4-3.4c1.2,0.9,2.6,1.5,3.8,2.3
		C67.5,86.8,69.6,87.8,71.8,87.5z"/>
	<path d="M67.8,117.3c0.7,1.1,1.6,2.2,1.3,3.6c-0.4,1.8-2,3-3.4,4c0.7,0.1,1.3-0.3,1.8-0.7c0.8-0.7,1.6-1.5,2-2.4
		c0.5-1,0.3-2.2-0.2-3.1C69,118,68.6,117.4,67.8,117.3z"/>
	<path d="M67.8,82c1.7,0.1,3.3-0.7,4.9-1.3c1.2-0.5,2.6-0.9,3.4-2c-2.2,1-4.3,2-6.6,2.6C69,81.5,68.4,81.7,67.8,82z"/>
	<path d="M68.6,105.9c0.7,0,1.4-0.1,2.1-0.2c0-0.1,0-0.3-0.1-0.5C70,105.3,69,105.1,68.6,105.9z"/>
	<path d="M74.4,123.3c-0.3-1-0.6-2.4-1.8-2.7c0.4,1.2,1.2,2.2,1.4,3.5c0.1,1.9-1,3.6-2.2,5c2,0.1,4.1-1.1,4.6-3.1
		c0.4-1.4,0.8-3.1-0.1-4.4c0.1,1.7,0,3.4-0.7,5c-0.5,1.1-1.7,1.6-2.8,2C73.8,127,74.9,125.2,74.4,123.3z"/>
	<path d="M73.2,105.2c-0.4-0.1-0.5,0-0.4,0.4C73.1,105.8,73.3,105.6,73.2,105.2z"/>
	<path d="M73.1,104.1c-0.4-0.2-0.6,0-0.4,0.5C73.1,104.7,73.3,104.5,73.1,104.1z"/>
	<path d="M87.2,90.6c2.6-0.4,4.5-2.5,6.5-4c2.2-0.1,4.8-0.2,6.6-1.7c-2.1,0.3-4.1,1.3-6.2,1.1c0.8-1.5,2-2.9,2.2-4.7
		c-0.8,1-1.2,2.2-1.9,3.2c0.1-0.7,0.2-1.3,0.2-2c-0.6,1-0.9,2.2-1.2,3.3c-0.5,0-1,0.1-1.5,0.1c-3.1-0.1-6,0.9-8.9,1.8
		c-1.5,0.6-3.1,1-4.4,2c2.9-0.8,5.7-2.2,8.7-2.6c-0.8,0.9-1.8,1.7-2.8,2.4c-1.1,0.9-2.6,0.2-4,0.4c-1.5-0.1-2.8,0.7-3.7,1.7
		c-0.1-0.3-0.3-0.6-0.5-0.9c-0.2,1-0.2,2.1-0.5,3.1c-0.4,1.4-1.2,2.6-1.5,4c0.4-0.2,0.7-0.4,1.1-0.5c0.8,0.1,1.5,0.4,2.3,0.5
		c-0.6-0.6-1.5-0.8-2.3-1c0-0.2,0-0.6,0-0.7c1.5,0.4,2.5,1.7,3.9,2.2c-0.9-1.3-2.5-1.8-3.5-3c1.9-0.2,3.4,1,5.1,1.7
		c-1.2-1.4-3-2-4.7-2.3c0.1-0.6,0.2-1.1,0.4-1.7c0.3-0.1,0.5-0.2,0.8-0.3c2.8-1,5.6,0.6,8.4,0c-1.3,0.9-2.5,2-3.2,3.4
		c-1-0.7-2-1.5-3.2-1.6c0.8,0.7,1.8,1.1,2.5,1.8c0.8,0.5,0,2.1,1.1,2.3c-0.2-1.1,0-2.2,0.7-3.1c1.8-2.7,5.3-3,7.6-5
		c1-0.9,2.2-1.8,2.6-3.1c-0.6,0.4-1.2,1-1.7,1.5c-1.4,1.5-3.3,2.3-5.1,3.2c-2,0.6-4.1,0.3-6.2,0c-1.2-0.2-2.3,0-3.5,0.1
		c0.7-0.6,1.5-1.2,2.4-1.3C82.4,90.1,84.8,91.2,87.2,90.6z M88.4,86.8c1.5-0.3,3.1-0.3,4.6-0.4c-1.8,1.6-3.6,3.3-6.1,3.7
		c0.9-0.9,2-1.7,2.4-2.9c-1.1,0.9-2,2.2-3.2,2.9c-0.5,0.1-1,0.1-1.5,0.1C86,89.3,87.2,88,88.4,86.8z"/>
	<path d="M75.3,98.4c0.2,0.3,0.5,0.7,0.9,0.8c1.8,0.6,3.7,0.5,5.5,0.4c1.1-0.2,2.2-0.1,3.2-0.8c-1.7,0-3.3,0.4-5,0.3
		C78.3,99.2,76.8,98.5,75.3,98.4z"/>
	<path d="M86.9,79c-3.3,0.3-6.7,0.5-9.6,2.2c-0.8,0.5-1.9,1-2,2c2.2-1.9,5.1-2.9,8-3.4c2.3-0.4,4.7-0.2,7-0.8
		C89.2,78.8,88.1,79,86.9,79z"/>
	<path d="M79,93.2c-0.9,0.1-2.1,0-2.6,1c1-0.1,1.9-0.5,2.9-0.5c1.5-0.1,3,0,4.5-0.2C82.2,92.9,80.6,93.2,79,93.2z"/>
	<path d="M79.3,122.5c2.8,1.2,4.2,4,5.2,6.6c0.2-1.4-0.6-2.6-1.3-3.7c-1.2-2-3.3-3.6-5.7-3.8C77.5,122.5,78.7,122.2,79.3,122.5z"/>
	<path d="M80.4,101.3c-0.7,0-1.5-0.2-2.1,0.2c1.2,0.7,2.7,0.3,4,0.3c1.6-0.1,3.3,0.3,4.8-0.5C84.8,101.1,82.6,101.5,80.4,101.3z"/>
	<path d="M79.5,113.5c0.7,0,1.4-0.1,2.1-0.1c0,0.1,0,0.4,0,0.6c1.2-0.9,2.8-1,3.8-2c-1.2,0.2-2.3,0.6-3.4,0.8
		C81.2,113,80.3,113.1,79.5,113.5z"/>
	<path d="M79.6,102.1c0.1,0.1,0.4,0.3,0.5,0.3c2,0.2,4.1,0.2,6.1-0.3C84,102,81.8,102.1,79.6,102.1z"/>
	<path d="M89.9,119c-1-0.4-1.9-1.1-3-0.9c-0.8,0.2-1.7-0.1-2.3,0.6c1.9,0.1,3.9,0,5.6,1.1c2.9,1.8,3.8,5.3,3.8,8.5
		c0.8-1.3,0.3-2.9-0.1-4.2C93.3,121.9,92,119.9,89.9,119z"/>
	<path d="M85.4,108.1c-0.3,0.1-0.6,0.3-0.7,0.6c1.5-0.1,3-0.1,4.3-0.7C87.8,107.8,86.5,107.9,85.4,108.1z"/>
	<path d="M234.6,105.7c-0.2-2.9-1.1-5.7-1.9-8.5c-0.7-2.1-1.6-4.1-2.8-6c-3.2-4.6-7.6-8.3-12.7-10.7c-2.7-1.3-5.4-2.6-8.3-3.4
		c-4.4-1.4-8.9-2.4-13.4-3.3c-3.1-0.6-6.2-1.1-9.3-0.6c-4.1,0.2-8.3,0.5-12.3,1.8c0.3-0.6,0.5-1.3,0.5-2c-0.5,0.8-0.7,2-1.8,2.3
		c-1.5,0.5-3,0.9-4.5,1.6c-0.6,0.2-1.3,0.6-2,0.5c-1.2-0.2-2.2-0.9-3.4-1.1c-0.7-0.1-1.3,0.1-2,0.1c-1-0.7-1.7-1.8-3-2.2
		c-2.2-0.5-4.5,0-6.3,1.2c-0.8,0.5-1.4,1.2-2.2,1.7c-2.1,0-4.4-0.7-6.3,0.5c-1.2,0.7-1.4,2.1-2.1,3.2c-1.3,1.2-2.9,2.2-4.7,2.2
		c-1.9-0.3-3.6-1.1-5.3-2.1c-2.4-1.4-4.4-3.4-6.8-4.7c-1.8-0.9-3.8-1.4-5.8-1.6c-1.8-0.2-3.7-0.5-5.5,0c-0.7,0.4-1.4,0.9-2.2,1.1
		c-1.7,0.5-3.1,1.8-4.6,2.8c-0.9,0.4-1.3,1.3-1.9,2.1c-1,1.3-1.1,3.2-2.2,4.4c-1.6,1.7-3.9,2.4-6.1,2.9c-0.5,0.2-1.4,0.1-1.5,0.8
		c0.9-0.1,1.8-0.3,2.7-0.5c-1.5,0.8-2.8,2-3.9,3.2c-1,1.2-2.2,2.1-3,3.4c3.2-1.4,4.5-5.4,8.1-6.3c1.9-0.4,3.5,1,5,1.9
		c-0.1-0.4-0.3-0.7-0.4-1.1c1.4-0.4,2.7-1,4.1-1.6c2.6-1.1,5.4-2,8.3-1.6c3,0.5,6.1,1,9,2.2c0.3,0.1,0.5,0,0.8,0
		c1.6,1.1,2.8,2.7,4.2,4c-0.2-1.3-1.4-2-2.2-2.9c-1.4-1.1-2.6-2.5-4.2-3.2c0.6,0.6,1.2,1.2,1.7,1.8c-3.3-1.3-6.8-2.1-10.3-2.6
		c-2.5-0.3-4.9,0.5-7.1,1.4c-1.6,0.7-3.2,1.3-4.7,2.1c-0.9-0.8-2.1-1.3-3.3-1.4c1.4-0.6,2.8-1.5,3.7-2.8c0.9-1.2,1-2.8,1.8-4
		c0.1,0.2,0.3,0.5,0.4,0.6c0.7-0.5,1.4-0.9,2.3-1.1c1.6-0.4,3.2,0,4.8,0c-1.3,0.3-2.6,0.3-3.8,0.5c-2,0.4-3.8,1.8-4.6,3.7
		c1.1-0.3,1.6-1.4,2.4-2c1.4-1.2,3.2-1.2,4.9-1.4c-1.8,1.7-3.8,3-5.9,4.3c-1,0.7-2.3,1.3-2.8,2.5c0.9-0.1,1.5-0.9,2.3-1.3
		c1.2-0.7,2.4-1.4,3.5-2.3c0.8-0.7,1.9-0.3,2.9-0.5c1.7-0.2,3.3-0.4,5-0.2c-2.6,0.6-5.3,0.5-7.7,1.6c-0.1,0.2-0.3,0.5-0.4,0.6
		c0.4-0.1,0.8-0.2,1.2-0.3c2.6-0.9,5.3-1.3,8-1.2c2.4-0.3,4.8,0.7,7,1.6c-0.8-1-2.1-1.3-3.3-1.7c-1.9-0.5-3.7-1-5.6-1.2
		c-1.9-0.1-3.8,0.2-5.7,0.2c0.9-0.7,1.7-1.7,2.7-2.1c2-0.1,4.1-0.2,6,0.3c0-0.1,0.1-0.4,0.2-0.6c-1.5-0.3-3-0.4-4.4-0.8
		c2-0.7,4.1-0.9,6.2-0.8c-0.1-0.1-0.2-0.2-0.3-0.3c-2-0.4-4,0-5.9,0.6c-1.6,0.6-3.3,0-4.9,0c-1.4-0.1-2.7,0.4-3.9,1
		c1.9-2.3,4.5-4.3,7.5-4.7c3-0.3,5.8,0.9,8.4,2.2c4,2.1,7.9,4.8,12.4,5.5c1.5,0.3,3.1,0.1,4.6,0.2c-0.9,0.3-1.9,0.3-2.8,0.7
		c1.3,0.4,2.6,0,3.9-0.4c1.3-0.5,2.8-0.6,4.1-1.2c1.4-0.6,2.5-1.7,3.5-2.8c0.7-0.9,1.7-1.4,2.6-2c2.2,0.8,4.4,1.6,6.8,1.8
		c1.3,0.1,2.5-0.7,3.8-0.7c1.1-0.2,2.4,0.1,3.3-0.7c-1.2,0-2.4,0.2-3.6,0.2c0.4-0.5,0.9-1,1.4-1.5c1,0.6,2.1,1.3,3.3,1.4
		c-9.1,4.1-17.6,9.7-24.8,16.6c-2.5,2.3-4.9,4.8-7.4,7.1c-1.6,0.6-3.4,0.1-5,0.7c1.5,0.2,3,0.1,4.4-0.1c-0.5,0.5-1,1.1-1.4,1.7
		c1.2-0.6,2-1.7,2.9-2.5c1.6-1.5,3.3-3,4.9-4.5c3.4-3.1,6.7-6.3,10.5-9c4.6-3.4,9.4-6.4,14.6-8.8c1.1-0.4,2.1-1.3,3.4-1
		c1.5,0.2,3,0.3,4.5,0.1c0.7-0.1,1.3-0.5,1.8-0.9c-2,0.8-4.3,0.6-6.4,0.3c0.9-0.3,1.8-0.3,2.7-0.5c1.3-0.3,2.5-1.1,3.7-1.8
		c1-0.7,2.3-0.8,3.5-1.2c2.5-0.6,5.2-1,7.8-1.1c2.3,0,4.6-0.5,6.8-0.1c5.7,0.8,11.3,2,16.8,3.7c4.3,1.2,8.2,3.1,12.1,5.3
		c4.3,2.6,8,6.2,10.5,10.6c1.7,3.2,2.9,6.7,3.7,10.3c0.3,1.3,0.3,2.6,0.7,3.8C234.5,106.8,234.7,106.2,234.6,105.7z M120.4,77.1
		c-2.5-1.3-5.3-2-8.1-2.1c1.4-0.4,2.9-0.2,4.3-0.1c2.1,0.3,4.3,0.5,6.3,1.4c2.7,1.2,4.8,3.3,7.2,4.9c1.2,0.8,2.5,1.4,3.8,1.9
		C129,82.3,124.8,79.4,120.4,77.1z M145.2,77.3c-1.1,0.6-2,1.4-3,2.2C142.7,78.3,143.9,77.5,145.2,77.3z M139.6,83.2
		c-0.6,0.1-1.2,0.2-1.7,0.2c1-0.4,1.9-0.9,2.8-1.5C140.3,82.3,140,82.8,139.6,83.2z M146.6,79.2c-0.7,0.7-1.2,1.5-2,2.1
		c-1.2,1-2.6,1.5-4.1,1.9c0.7-0.9,1.1-2.1,2-2.8c1.1-1,2.2-2.2,3.6-2.7c0.8-0.3,1.7,0,2.5,0.1C147.9,78.3,147.2,78.7,146.6,79.2z
		 M158.4,78.7c-2.9,0.2-5.7-0.6-8.4-1.4c1.8-1.8,4.2-2.8,6.7-2.7c1.5,0.1,2.7,1.2,3.7,2.3C159.7,77.4,159.3,78.3,158.4,78.7z
		 M161.4,76.8c1.6-0.2,3,0.6,4.5,1.1C164.4,78.6,162.7,77.7,161.4,76.8z"/>
	<path d="M93.8,126.8c-1.1,1.2-2,2.6-2.8,4C92.4,129.9,93.1,128.2,93.8,126.8z"/>
	<path d="M97,104.9c-0.8,0.4-1.5,1-2.2,1.4c-1,0.6-2.1,0.9-3,1.7C93.7,107.5,96,106.7,97,104.9z"/>
	<path d="M96.3,97.9c0.6,0.5,0.9,1.2,1.7,1.5c-0.1-0.6-0.4-1.2-0.8-1.6c-1.1-1-2.4-2-3.9-2.1C94.2,96.6,95.5,97,96.3,97.9z"/>
	<path d="M145.4,131.7c-1.7-0.2-3-1.5-4.7-2c-1.9-0.7-4.2-1-6,0.2c-1.6,1.1-2.1,3.2-3.7,4.4c-1.4,1-3,2-4.8,1.7
		c-3.2-0.6-6.1-2.3-8.2-4.8c-0.7-0.8-0.6-2.3-1.8-2.5c0.4,1,1,2.1,0.8,3.2c-0.3,2.4-2,4.6-4.4,5.1c-1.7,0.2-3.5-0.1-5.1-0.6
		c-1.3-0.3-2.3-1.2-3.5-1.7c-2-0.7-4.4-0.3-6.1,1c-1.1,0.8-2.2,1.7-2.9,2.9c-0.3,0.4-0.1,0.9,0,1.4c0.4-0.9,0.7-1.9,1.6-2.6
		c1.4-1.1,2.9-2.5,4.8-2.3c1.1,0.1,2.3,0,3.3,0.5c2.3,0.9,3.7,3.2,6.1,3.8c1.7,0.2,3.6,0.1,5-0.9c1.6-0.9,2.4-2.9,2-4.7
		c-0.1-0.8-0.4-1.5-0.3-2.3c1,0.9,1.8,1.9,3,2.6c2.6,1.9,6,2.8,9.2,2.3c2.3-0.6,4.5-1.5,6.7-2.2c0.5-0.1,1-0.3,1.4-0.6
		c-3,0.1-5.7,1.8-8.6,2.2c0.9-0.5,1.8-1.1,2.6-1.8c1.1-1.1,1.7-2.5,2.7-3.6c1.4-1.1,3.4-1.1,5.1-0.6c1.4,0.3,2.6,1.2,3.9,1.8
		c1.8,0.7,3.8,0.6,5.6,0.2c0.5-0.1,0.8-0.4,1.1-0.8C148.8,131.5,147.1,132.1,145.4,131.7z M116.9,137c-1,1.6-3.1,2-4.9,2
		c-1.6,0.1-2.9-1-4.1-1.9c1.9,0.4,4,0.9,5.9,0.1c1.8-0.6,3-2.1,3.7-3.8C117.5,134.6,117.6,135.9,116.9,137z"/>
	<path d="M97,94.6c2.4,0.1,4.7,0.7,7.1,0.6c-1.6-0.9-3.6-0.7-5.3-1c1.8-1,3.8-1.7,5.7-2.4c0.7-0.3,1.5-0.4,2.1-1
		c-1.7,0.1-3.2,0.8-4.8,1.3C100.1,92.7,98.2,93.2,97,94.6z"/>
	<path d="M111.9,105.3c-1.7,0.3-3.1,1.3-4.7,1.9c-1.7,0.8-3.6,0.9-5.3,1.6c-1.2,0.6-2.3,1.4-3.1,2.5c0.9-0.4,1.7-1.1,2.6-1.6
		c0.7-0.4,1.7,0.3,2.2-0.5c-0.3,0-0.9-0.1-1.2-0.1c1.6-0.3,3.2-0.6,4.7-1.2c0.6-0.3,1.3,0,1.9,0.1c1.9,0.5,3.8,1.2,5.5,2.2
		c3.7,2.4,5.2,6.9,9,9.1c-0.6-0.8-1.3-1.5-2-2.2c-1.6-1.6-2.7-3.5-4.2-5.2c-1.4-1.6-3.2-2.9-5.2-3.6c-1.2-0.5-2.5-0.7-3.6-1.3
		c2.3,0.2,4.7,0.6,6.7,1.9c3.4,2.2,5.8,5.6,8.7,8.3c2.8,2.7,6.6,4,10.3,5.1c-1.6-0.1-3.2-0.6-4.7-1.1c-1.1-0.4-2.1-1.2-3.2-1.4
		c0.4,0.7,1.2,1.1,1.9,1.5c2.1,1,4.5,1.5,6.8,1.6c2.2-0.2,4.7-0.1,6.7-1.3c-1.8,0.1-3.5,0.7-5.3,0.7c-3.4-0.6-6.6-1.9-9.6-3.5
		c-4.1-2.6-6.6-7-10.5-9.8c-1.8-1.4-4.1-2-6.3-2.3C110.5,106.3,111.4,106.1,111.9,105.3z"/>
	<path d="M103.2,114.2c1.5,0.5,2.9,1.2,4.4,1.6c-0.9-0.9-2.1-1.2-3.2-1.7c-1.4-0.5-2.7-1.1-4.2-1.1
		C101.1,113.6,102.2,113.8,103.2,114.2z"/>
	<path d="M102.4,126c0,1.3-0.5,2.6-0.8,3.9c1-1,1.1-2.6,1.3-3.9c0-1.2-0.4-2.6-1.4-3.4C101.7,123.8,102.4,124.8,102.4,126z"/>
	<path d="M103.4,109l0.2,0.3c1.8,0.3,3.6-0.2,5.3,0.1c0-0.2,0-0.5-0.1-0.6C107.1,109.1,105.3,108.8,103.4,109z"/>
	<path d="M112.3,87.3c-2,0.1-4.1,0.3-5.9,1.1c-0.9,0.4-1.5,1.2-2.2,1.9c1.4,0,2.8-0.3,4.2-0.3c1.5,0.1,2.9,0.4,4.3,1
		c1.5,0.7,3.1,0.8,4.6,1.2c2.9,0.6,5.9,0.8,8.8,1.1c2.5,0.2,4.8,1.2,7,2.3c1.3,0.7,2.8,1,4.2,1.1c-0.2-0.9-1.3-0.5-2-0.7
		c2.3-0.3,4.4-1.6,6-3.3c0.7-1.3,1.3-2.7,2.5-3.7c0.8-0.7,2.1-0.5,2.9-1.2c0.8-0.9,2-1.2,3-1.8c-2,0.3-3.6,1.4-5.4,2.1
		c-1.6,0.6-3.2,0.2-4.7-0.3c-1.5-0.5-2.9,0.5-4.2,1.3c-1,0.7-2.3,0.3-3.3-0.2c-1.9-1.2-2.8-3.5-4.7-4.6c-1.9-0.9-3.9-1.7-6-2
		c-1.3,0-2.9-0.3-3.7,0.9c1.8-0.3,3.8-0.9,5.4,0.3c3,2.4,4.8,5.9,7.2,8.9c-0.3-1.2-1.1-2.2-1.8-3.3c-1.4-1.9-2.8-4-4.5-5.6
		c1.5,0.6,3.2,1,4.3,2.2c1.5,1.6,2.8,4,5.2,4.3c2.2,0.5,3.5-2.2,5.7-1.7c1.3,0.3,2.6,0.6,4,0.6c-1.1,1.2-1.7,2.7-2.7,3.8
		c-0.8,0.7-1.5,1.5-2.4,1.9c-1,0.5-2.1,0.8-3.2,1c-1-0.2-1.8-0.8-2.7-1.3c2.1,0.1,4.1,0,6.2-0.4c0.5-0.1,0.9-0.3,1.3-0.5
		c-2.4,0-4.7,0.6-7.1,0.3c-2.1,0-4-1.1-6.1-1.2c-4.1-0.2-8.2-1-12.2-1.8c-1.7-0.5-3.3-1.1-5.1-1.2c-1.1-0.1-2.2,0.2-3.3,0.3
		c0.8-0.5,1.7-0.9,2.7-1.2c2.3-0.6,4.8-0.9,7.2-0.5C114.6,87.3,113.4,87.3,112.3,87.3z"/>
	<path d="M106,131.1c-0.1,0.1-0.2,0.4-0.2,0.5c1.6,0.1,3.3-0.6,4.2-2c0.9-1.3,1.6-2.9,1.4-4.5c-0.8,1.5-0.9,3.4-2.2,4.6
		C108.5,130.6,107.2,130.7,106,131.1z"/>
	<path d="M113.5,117.6c0.4,0.6,0.5,1.6,1.3,2c-0.1-2.1-1.8-3.6-3.4-4.8c-1.5-1-2.8-2.2-4.5-2.8C109.1,113.9,112,115,113.5,117.6z"/>
	<path d="M109.9,118.7c-0.3-0.6-0.9-1.1-1.5-1.3C108.8,118,109.3,118.5,109.9,118.7z"/>
	<path d="M108.9,111.7c0.1,0.1,0.2,0.4,0.2,0.5c1.3,0.9,2.6,1.7,4,2.4C112,113.2,110.5,112.2,108.9,111.7z"/>
	<path d="M229.1,116.7c-1.3,1.4-2.7,2.7-4.5,3.4c-1.5,0.6-3,1.3-4.6,1.3c-4.5,0.3-8.9-1-13.4-0.8c-2,0.1-3.6,1.6-4.8,3.1
		c-1.7,2.3-3.6,4.5-5.7,6.5c-2.5,2.6-5.3,4.9-8.7,6.1c-1.7,0.5-3.4,1.3-5.1,1.7c-5.6,1.8-11.6,2.2-17.4,1.3
		c-3.1-0.3-6.1-0.7-9.1-1.1c2.6-0.1,5.2,0.2,7.8,0c3.3-0.6,6.7-2,9.1-4.5c1.3-1.4,2.5-3,3.2-4.8c0.5-1.3,1-2.5,1.4-3.8
		c0.5-0.1,1.1-0.1,1.6-0.2c-0.5-0.1-1-0.2-1.5-0.3c0.3-0.7,0.4-1.5,1-2.1c1.1-0.2,2.3,0,3.4,0.2c0.1-0.1,0.2-0.2,0.3-0.3
		c-1.2-0.5-2.5-0.6-3.7-0.5c1.6-3.4,4.7-6.3,8.5-7.1c3.6-0.8,7.4-0.4,11-0.5c-1.6-0.8-3.4-0.4-5.1-0.5c-3.3,0.1-6.9,0-9.8,1.8
		c-2.4,1.6-4.4,3.7-5.5,6.4c-1,0.2-2.1,0.4-3.1,0.6c0.2-0.6,0.4-1.2,0.6-1.8c1-0.1,2.1-0.1,3.1-0.6c-2.8-0.1-5.6,0.1-8.4-0.3
		c-5.3-0.9-10.4-2.8-15.2-5.1c-3-1.5-5.9-3.3-8.5-5.6c1.3,0.2,2.6,0.5,3.8,0.6c4.6,0.8,9.3,0.4,13.9-0.4c2.5-0.4,4.8-1.5,6.9-2.7
		c3.3-1.8,6.9-3.1,10.4-4.4c3.4-1.2,7.4-1.8,10.8-0.1c2.9,1.5,5.5,3.8,8.1,5.8c-0.6-1.4-1.9-2.2-3-3.2c-2.1-1.6-4.2-3.4-6.8-4
		c-4.1-1-8.3,0.5-12.1,2c-2.9,1.1-5.8,2.4-8.5,3.9c-2,1-4.1,2.1-6.4,2.4c2-2.3,4-4.6,5.9-7c1.5-1.8,3-3.6,4.8-5
		c1.3-1.1,3-1.7,4.6-2.3c2.4-0.8,4.9-1.5,7.4-2c5.2-1.1,10.4-2,15.7-1.9c2.2,0,4.4-0.1,6.5,0.3c5.7,0.5,11.5,2.6,15.5,6.8
		c2,2.1,3.7,4.6,4.2,7.5c0.2,2,0.2,4.1-0.7,5.9c-1.7,3.8-5.2,6.9-9.2,7.9c-2,0.6-4.1-0.1-5.9-1c-2.6-1.4-5.1-2.8-7.5-4.6
		c-0.8-0.6-1.5-1.4-2.4-2c0.3,0.6,0.7,1.2,1.2,1.6c1.9,1.7,4,3,6.2,4.3c2,1.1,4,2.4,6.3,2.6c2.4,0.2,4.7-0.7,6.7-2
		c3-2.1,5.4-5.1,6.2-8.7c0.3-2.3,0.3-4.7-0.7-6.8c-1.8-4.2-5.4-7.5-9.5-9.5c-3.6-1.8-7.7-2.6-11.7-2.9c-4.7-0.5-9.5-0.1-14.2,0.6
		c-4.5,0.8-9.1,1.6-13.5,3.1c1.1-0.6,2.1-1.1,3.2-1.7c3.2-1.6,6.5-2.7,9.9-3.9c2.6-0.8,5.2-1.7,7.9-2c4-0.4,8.1-0.5,12.2-0.1
		c-1.3-0.9-3-0.7-4.5-0.7c-4.1,0.1-8.3-0.1-12.3,1.2c-5,1.6-10.1,3.2-14.7,5.7c-3,1.6-6.2,2.8-8.6,5.2c-3.7,3.6-6.6,7.9-10.2,11.5
		c-1.7,0.4-3.4,0.4-5.1,0.6c-2.6,0.2-5.2,0-7.8-0.4c-1.5-0.2-3-0.6-4.5-0.7c0.7,1.1,1.9,1.8,2.9,2.6c2.1,1.7,4.4,3.2,6.8,4.2
		c-0.7,0.4-1.5,1.3-2.4,0.8c-1.5-0.6-3.2-0.8-4.6,0.1c-1.3,0.7-2,2.1-3,3.1c-1,0.4-2.1,0.5-3.2,0.7c-2.4,0.2-4.8,0.7-7.1,0
		c-4.6-1.3-8.6-4.1-11.9-7.5c-2-2.2-4-4.3-6.4-6c-1.7-1-3.4-2.3-5.5-2.7c0.8,0.9,2,1.2,3,1.9c2.7,1.5,5,3.6,7.1,5.8
		c3,3.1,6.3,5.9,10.1,7.8c1.7,0.9,3.6,1.6,5.6,1.7c0.5,0,1.1-0.2,1.6,0c-0.4,0.1-0.8,0.1-1.2,0.1l0,0.5c0.6-0.1,1.3-0.1,1.9-0.3
		c1.8-0.6,3.6-0.6,5.4-1c-0.6,0.9-1.3,1.7-2,2.4c-0.3,0-0.6,0-0.9-0.1c-0.8,0.9-1.7,1.8-2.8,2.3c-0.9-0.2-1.7-0.8-2.6-1
		c-1.5-0.2-2.9-0.3-4.4-0.6c-2.7-0.9-5-2.6-7.5-4c0.9,1.3,2.4,1.8,3.7,2.6c2,1,4.1,2.2,6.4,2.3c1.3,0.1,2.5,0.3,3.6,1
		c-1.1,0.7-2.4,1.1-3.6,1.6c-1.1,0.4-2.2-0.1-3.3-0.4c-1.4-0.6-2.8-1-4-1.9c1.7,0.4,3.3,1.3,5.1,1.1c-1.2-0.5-2.5-0.6-3.6-1.1
		c-2-0.8-4.1-1.4-5.8-2.7c-2.1-1.9-3-4.6-4.6-6.9c-1-1.5-2.4-2.7-3.7-4c-1-1-2.3-1.6-3.7-1.8c-0.3-0.2-0.7,0.1-0.7,0.5
		c1,0.3,2.3,0.1,2.9,1.2c0.7,1.2,1.3,2.4,1.8,3.7c0.4,1.1,0.5,2.4,0.9,3.5c0.4-0.7,0.1-1.6,0-2.4c-0.4-1.7-1.3-3.1-2-4.7
		c0.5,0.5,1.1,1,1.5,1.5c1.3,2.1,2.2,4.4,2.4,6.8c0.5,2.2-0.1,4.5,0.4,6.8c-0.5-0.9-1-1.7-1.6-2.5c0.1-0.1,0.3-0.3,0.4-0.4
		c-1.4-2.7-2.8-5.4-5.1-7.5c1.4,2.5,3.3,4.8,4.5,7.5c-1.3-1.6-2.6-3.3-3.9-5c-0.3-0.4-0.8-0.8-1.2-1.1c0.4,1,1.1,1.9,1.8,2.7
		c1.7,2.2,3.5,4.3,4.8,6.8c1,1.6,1.6,3.5,2.8,5c1.3,1.6,3.1,2.8,4.9,3.6c0.6,0.3,1.2,0.4,1.9,0.4c-2.1-1.3-4.4-2.4-6-4.2
		c-0.8-0.8-1.3-1.9-1.9-2.9c2,1.6,4.3,2.6,6.6,3.4c1.3,0.4,2.8,0.9,4.2,0.6c-0.8-0.5-1.7-0.4-2.6-0.7c-1.5-0.4-3-1-4.4-1.6
		c-1.7-0.8-3.4-1.9-4.3-3.6c-0.5-1.4-0.5-3-0.5-4.5c0.1-1.6-0.3-3.1-0.5-4.6c0.5,1.3,1.4,2.5,1.8,3.9c0.1,1.9-0.1,3.9,1.2,5.5
		c1.5,2.2,4.3,2.7,6.7,3.2c1.1,0.1,2.4,0.4,3.3-0.3c-2.9,0.1-5.9-0.5-8.3-2.1c-1.7-1.2-2.2-3.3-2-5.3c1.7,2,3.4,4.1,5.8,5.2
		c1.7,0.8,3.6,1.1,5.5,0.8c2.5-0.3,4.6-1.5,6.9-2.2c1.1,0.8,2,1.9,3.1,2.6c1.8,1.3,4.3,1.7,6.5,1.2c2.4-0.8,4.6-2.3,6.6-3.9
		c1.3-0.3,2.8-0.3,4,0.4c2,1,3.5,2.9,5.6,3.8c2,0.7,4.4,0.3,6-1.1c2-1.6,4.3-2.8,6.7-3.7c-0.9,2.6-1.7,5.5-3.8,7.4
		c-1.2,1.1-2.3,2.3-3.9,3c-1.8,0.8-3.7,1.5-5.7,1.7c-1.6,0.2-3.2-0.1-4.8,0c-2,0.1-4.1,0.2-6.1,0.7c-0.6,0.1-1,0.5-1.5,0.8
		c1.2-0.3,2.5-0.7,3.7-0.4c3.8,0.6,7.5,1.1,11.3,1.6c1.4,0.3,2.7,0.2,4.1,0.3c5.3,0.3,10.6-0.8,15.5-2.6c3.1-1.1,6.2-2.4,8.7-4.6
		c3-2.6,5.8-5.6,8.2-8.8c0.8-1.1,1.7-2,2.8-2.6c0.9-0.5,2-0.4,3-0.4c3.9,0.2,7.7,1,11.6,0.8c1.9-0.1,3.8-0.8,5.5-1.6
		c2.8-1.3,4.7-3.8,6.6-6.1c1.1-1.4,2.3-2.9,2.4-4.7c-0.7,1-1.1,2.1-1.7,3C231.4,114.2,230.2,115.4,229.1,116.7z M124.4,126
		c-2.3-1.6-4.1-3.8-5.5-6.2c3.3,3.8,8,6.2,12.7,7.5C129.1,127.7,126.5,127.5,124.4,126z M155.2,115.7c3,1.4,6.2,2.6,9.4,3.5
		c3.3,1,6.7,1.5,10.1,1.4c-0.2,0.7-0.4,1.3-0.7,2c-0.7,0.5-1.4,0.9-2,1.6c-1,1.1-2,2.4-3.5,2.7c-2,0.5-4.1-0.3-5.8-1.3
		c-1.3-0.8-2.6-1.9-3.9-2.7c-0.9-0.4-1.1-1.4-1.6-2.2c-0.8-1.7-2.2-2.9-3.8-3.9C153.9,116.4,154.6,116,155.2,115.7z M157.9,123.6
		c-0.5-0.2-1-0.4-1.4-0.8c0.4,0,0.8,0.1,1.2,0.2C157.8,123.1,157.9,123.4,157.9,123.6z M148.3,116.2c1.2-0.2,2.4,0,3.6,0.4
		c-1.1,0.3-2.3,0-3.4,0.3c0.6,0.4,1.3,0.3,2,0.3c-1.8,0.6-3.6,1.3-5.5,1.8C145.9,117.9,146.8,116.6,148.3,116.2z M144.1,120.5
		c0.4-0.5,1.1-0.6,1.7-0.8c1.1-0.2,2.2-0.8,3.3-0.8c2.1,0.2,4.1,0.6,6.2,1c-1.6-1.2-3.8-1.1-5.6-1.4c1.1-0.5,2.3-1.1,3.5-1.1
		c2,1,3.3,2.9,4.1,4.9c-3.2-1.8-7-2.4-10.7-2.3c-0.8,0.1-1.9,0.1-2.3,0.9c1.2-0.1,2.5-0.4,3.7-0.4c1.9-0.1,3.8,0.3,5.7,0.7
		c1,0.2,2,0.5,2.9,1.1c-0.5,0.1-1,0.4-1.5,0.2c-1.7-0.6-3.4-1.3-5.1-1.7c-2.8-0.4-5.5,1-7.9,2.2
		C142.8,122.2,143.5,121.4,144.1,120.5z M152.3,126.4c-1.2,1.1-2.7,1.8-4.1,2.4c-1.9,0.8-4.1,0.7-6-0.3c-1.5-0.8-2.7-1.9-3.8-3.1
		c1.3-0.9,2.8-1.4,4.2-2.1c1.8-0.9,3.7-1.6,5.6-2.1c0.7-0.2,1.5-0.1,2.2,0.1c1.6,0.5,3.1,1,4.7,1.6
		C154.5,124.4,153.5,125.6,152.3,126.4z M170.5,127.6c-1.1,0.7-2.1,1.7-3.4,2.1c-1.2,0.4-2.6,0.3-3.7-0.3c-2.2-1-3.7-3.1-6-3.9
		c-0.9-0.4-1.9-0.3-2.8-0.3c0.4-0.6,0.8-1.2,1.2-1.9c0.8,0.2,1.6,0.4,2.3,0.7c0.5,0.4,0.8,1.1,1.2,1.5c-0.2-0.8-0.5-1.5-0.8-2.2
		c2.1,1.4,4,3.2,6.5,3.9c1.7,0.5,3.9,0.5,5.3-0.7c1.2-1,2.1-2.5,3.6-3.1c-0.2,0.9-0.3,2-1,2.6C172.1,126.7,171.3,127.1,170.5,127.6z
		 M173.9,125.7c0.2-0.8,0.4-1.7,0.5-2.5c1-0.3,2-0.6,3-0.8c-0.3,0.8-0.6,1.6-0.9,2.3C175.6,125,174.7,125.3,173.9,125.7z"/>
	<path d="M110.1,119.2c0.2,0.3,0.5,0.6,0.8,0.7C111.6,119.7,110,118.4,110.1,119.2z"/>
	<path d="M113.5,125.6c-0.3-0.8-0.8-1.4-1.3-2.1c-0.5-0.6-0.9-1.3-1.7-1.5C111.4,123.4,112.3,124.6,113.5,125.6z"/>
	<path d="M112.4,89.7c1.9-0.1,3.8-0.1,5.7,0c-0.8-0.6-1.9-0.5-2.9-0.6C114.3,89.1,113.2,89,112.4,89.7z"/>
	<path d="M116.5,94c0.6,0.1,1.2,0.1,1.7-0.2c-0.6-0.4-1.2-0.7-1.9-0.9C116.4,93.3,116.5,93.7,116.5,94z"/>
	<path d="M118.2,132.4c-0.1,0-0.3,0-0.4-0.1c0.3,1.3,1.4,2.3,2.4,3.1c2.2,1.6,5.1,1.7,7.7,1.7c0.5,0,1-0.1,1.4-0.4
		c-2.7-0.2-5.6,0-8-1.4C120,134.7,119.1,133.5,118.2,132.4z"/>
	<path d="M120.5,89.1c-0.7-0.5-1.5-0.9-2.3-1.1c1.5,1.3,3.4,2.3,5.1,3.3C122.7,90.3,121.5,89.8,120.5,89.1z"/>
</g>
</svg>
