<?xml version="1.0" encoding="utf-8"?>
<!-- Generator: Adobe Illustrator 26.0.3, SVG Export Plug-In . SVG Version: 6.00 Build 0)  -->
<svg version="1.1" id="Слой_14" xmlns="http://www.w3.org/2000/svg" xmlns:xlink="http://www.w3.org/1999/xlink" x="0px"
	 y="0px" viewBox="0 0 239.5 150.2" style="enable-background:new 0 0 239.5 150.2;" xml:space="preserve">
<style type="text/css">
	.st0{fill:#161616;}
</style>
<g>
	<path class="st0" d="M230.2,73.6c-0.2-0.4-1.1-0.1-0.7,0.4C229.8,74.3,230.6,74,230.2,73.6z"/>
	<path class="st0" d="M228.1,73.6c-5.2-0.7-10.5-0.6-15.8-0.6c-3.9-0.3-7.7,0.2-11.6,0.2l0,0.4c3.1,0.1,6.3-0.2,9.4-0.1
		c4.7,0.1,9.4-0.2,14.1,0.3C225.5,73.7,226.9,74.2,228.1,73.6z"/>
	<path class="st0" d="M223.9,57.8c-0.9,0.1-1.8,0.3-2.3,1C222.5,58.9,223.3,58.3,223.9,57.8z"/>
	<path class="st0" d="M218.6,67.9c1,0,2.3,0.1,3.1-0.7C220.7,67.5,219.4,67,218.6,67.9z"/>
	<path class="st0" d="M210.9,63.5c-2.8,1.5-5.8,2.4-8.7,3.8c-0.7,0.4-1.9,0.5-2.1,1.5c2.3-0.9,4.6-2.1,6.9-2.9
		c2.3-0.9,4.4-2.1,6.7-3.1c1.7-0.7,3.3-1.8,5.1-2.4c0.6-0.2,1.2-0.4,1.5-0.9c-1.4,0.3-2.8,0.7-4,1.4
		C214.6,61.9,212.7,62.6,210.9,63.5z"/>
	<path class="st0" d="M218.1,79.5c0.6,0.1,1.3,0.2,1.9,0.4c-0.2-0.9-1.2-0.7-1.9-0.9C218.1,79.1,218.1,79.4,218.1,79.5z"/>
	<path class="st0" d="M200.1,65.4c-0.5,0.4-1.1,0.8-1.4,1.4c0.5-0.1,1-0.4,1.4-0.7c1.4-1.1,2.8-2.1,4-3.3c1.4-1.1,2.8-2.2,4.2-3.2
		c2.4-2.2,4.9-4.2,7.5-6.1c0.9-0.8,2-1.5,2.6-2.6c-1,0.6-1.9,1.5-2.9,2.2c-2.7,1.9-5.2,4-7.6,6.2C205.1,61.1,202.8,63.5,200.1,65.4z
		"/>
	<path class="st0" d="M217.9,94.3c-0.5-0.6-1-1.2-1.9-1.2C216.4,93.7,217.1,94.1,217.9,94.3z"/>
	<path class="st0" d="M216.7,68.2c-1.8,0-3.6,0.4-5.4,0.7c-1.3,0.5-2.7,0.3-4,0.7c-2.1,0.5-4.2,0.4-6.2,0.9
		c-0.1,0.1-0.2,0.4-0.2,0.5c2.4-0.4,4.8-0.5,7.1-1c1.1-0.1,2.1-0.1,3.2-0.5C212.9,68.9,215,69.1,216.7,68.2z"/>
	<path class="st0" d="M213.8,85.6c0.6,0.8,1.6,1.1,2.5,1.5C215.9,86.1,214.8,85.6,213.8,85.6z"/>
	<path class="st0" d="M215.7,79c-0.3-0.2-0.5-0.5-0.9-0.5c-1.4-0.2-2.8-0.7-4.2-0.6c0.1,0.1,0.2,0.4,0.3,0.5
		C212.5,78.3,214.1,79.1,215.7,79z"/>
	<path class="st0" d="M212,89.9c-2.2-1.9-4.7-3.4-7-5.2c-1.8-1.7-3.8-3.2-5.9-4.6c-0.3-0.2-0.6-0.3-1-0.4c0.2,0.4,0.4,0.7,0.8,0.9
		c2.1,1.3,4,2.8,5.7,4.5c1.6,1.2,3.3,2.3,4.9,3.5c1.5,1.1,2.8,2.5,4.6,3.2C213.6,90.9,212.7,90.5,212,89.9z"/>
	<path class="st0" d="M202.7,79.8c2.3,1.2,4.5,2.7,6.9,3.7c1.1,0.5,2.1,1.4,3.3,1.5c-1-0.9-2.2-1.5-3.3-2.1
		c-2.2-0.9-4.2-2.4-6.3-3.4c-1-0.5-2-1.3-3.1-1.4C200.8,78.9,201.8,79.3,202.7,79.8z"/>
	<path class="st0" d="M209.2,52.2c1.1-0.1,1.5-1.4,2.1-2.2C210.4,50.5,209.6,51.3,209.2,52.2z"/>
	<path class="st0" d="M207.6,97.3c0.1,0.6,0.5,1,0.8,1.5c0.6,0.7,1.1,1.5,1.8,2.2c0-0.7-0.4-1.2-0.8-1.7
		C208.8,98.5,208.4,97.7,207.6,97.3z"/>
	<path class="st0" d="M209,77.7c-0.7-0.5-1.5-0.6-2.3-0.7c-1.1-0.1-2.1-0.7-3.3-0.7c-1,0-1.9-0.4-2.9-0.3c1,1,2.7,0.6,4,1
		C206,77.5,207.5,77.8,209,77.7z"/>
	<path class="st0" d="M199.3,62.7c-0.6,0.7-1.6,1.2-1.6,2.2c1.8-1.5,3.3-3.5,5.1-5.1c1.7-2.2,4-3.9,5.6-6.3c0-0.1,0-0.4-0.1-0.5
		c-1.7,2.3-4,4-5.8,6.3C201.4,60.4,200.3,61.5,199.3,62.7z"/>
	<path class="st0" d="M206.7,95.6c-0.7-1.6-1.8-2.9-2.8-4.3c-0.6-0.9-1.2-1.8-1.9-2.6c-1.2-1.4-2-3.1-3.3-4.4
		c-0.8-0.7-1.3-1.7-2.2-2.3c0,0.1,0,0.3,0.1,0.5c0.9,1.4,2.2,2.5,3.1,3.9c0.9,1.4,2,2.7,3,4c0.9,1.4,1.9,2.7,2.8,4.1
		C205.8,94.9,206.2,95.4,206.7,95.6z"/>
	<path class="st0" d="M205.2,47.8c-0.5,0.7-1.3,1.3-1.3,2.2c0.8-0.7,1.4-1.5,1.8-2.5C205.7,47.6,205.4,47.8,205.2,47.8z"/>
	<path class="st0" d="M203,101c-0.2,0.3,0.1,0.9,0.5,0.9C203.6,101.6,203.4,100.9,203,101z"/>
	<path class="st0" d="M198,58.6c-0.9,1.8-2.2,3.3-2.9,5.2c0.6-0.1,0.8-0.7,1.1-1.1c0.6-1.1,1.3-2.1,1.9-3.2c0.5-1,1.3-1.7,1.7-2.7
		c0.5-1.1,1.2-2.1,1.8-3.1c0.5-0.9,1.3-1.8,1.5-2.9c-1.3,1.5-2.4,3.3-3.5,5C199.3,56.8,198.7,57.8,198,58.6z"/>
	<path class="st0" d="M201.5,44.8c0.9-0.3,0.9-1.4,1.1-2.2C201.8,43.1,201.5,44,201.5,44.8z"/>
	<path class="st0" d="M197.8,91.8c0.7,1.7,1.6,3.3,2.5,4.9c0.5,0.8,0.8,1.7,1.6,2.3c-0.9-2.6-2.6-4.9-3.6-7.5
		c-0.4-0.9-1-1.6-1.4-2.5c-0.6-1.3-0.9-2.7-1.8-3.9c-0.5-0.6-0.6-1.7-1.4-2c0.2,0.8,0.6,1.6,1,2.3c1,1.4,1.3,3.2,2.2,4.7
		C197.1,90.6,197.5,91.2,197.8,91.8z"/>
	<path class="st0" d="M193.4,62.1c0.5-0.9,1-1.9,1.4-2.8c1.3-3.4,3.3-6.3,4.8-9.6c0.4-1.1,0.9-2.2,1.4-3.3c-0.1,0-0.3,0.1-0.4,0.2
		c-0.9,1.4-1.4,3-2.2,4.4c-0.8,1.4-1.4,2.8-2.3,4.1c-1.2,2.4-2.2,4.8-3.3,7.2C193,62.2,193.3,62.1,193.4,62.1z"/>
	<path class="st0" d="M195.1,42.6c1,0,0.9-1.3,0.9-2C195.4,41.1,195.3,41.9,195.1,42.6z"/>
	<path class="st0" d="M195.7,100.1c-0.1-0.1-0.2-0.2-0.3-0.3C194.4,100.1,195.9,101.3,195.7,100.1z"/>
	<path class="st0" d="M191.5,58.6c0.1-0.1,0.3-0.2,0.5-0.3c0.5-2.8,1.2-5.6,2-8.4c0.3-2.2,0.7-4.4,1-6.6c-0.7,1.2-0.9,2.5-1.1,3.8
		C193.6,51.1,191.7,54.7,191.5,58.6z"/>
	<path class="st0" d="M195.2,99.1c-0.2-1.1-0.5-2.2-0.8-3.3c-0.1-0.4-0.3-0.7-0.7-0.8c0.2,1.1,0.4,2.1,0.7,3.1
		C194.6,98.6,194.8,98.9,195.2,99.1z"/>
	<path class="st0" d="M191.5,85.5c0.5,1.7,0.6,3.5,1.3,5.2c0.4,1,0.5,2.1,1.1,3c0.1-2.2-1.2-4.1-1.4-6.3
		C192.3,86.7,192.3,85.8,191.5,85.5z"/>
	<path class="st0" d="M189,75.7c0.5,0.6,1.1,1.5,2,0.8c-0.5-0.4-1-0.7-1.6-0.9c1-0.5,2.2-0.9,3.3-0.3c-0.1,0.4-0.1,0.9-0.2,1.3
		c0.6-0.1,1-1,0.6-1.5c-0.6-0.7-1.6-0.9-2.4-0.6C190,74.7,188.9,74.8,189,75.7z"/>
	<path class="st0" d="M190.7,73.2c0.2-0.4,0.2-0.7,0-1C190,71.8,190.1,73.4,190.7,73.2z"/>
	<path class="st0" d="M189.7,69c0.1,0.6,1,0.5,0.7-0.1C190.3,68.2,189.4,68.4,189.7,69z"/>
	<path class="st0" d="M186.7,72.2c0.5-0.4,1.4-0.9,0.9-1.7c-0.4,0.5-0.5,1.2-1.2,1.4c0.2-0.6,1-1.3,0.4-1.9c-0.3,0.4-0.7,0.8-1,1.1
		c0,0.1,0.1,0.4,0.1,0.5c-0.1,0.1-0.2,0.4-0.2,0.5C186,72.3,186.4,72.6,186.7,72.2z"/>
	<path class="st0" d="M177.2,95.9c-0.3,0.9-0.6,1.8-0.6,2.8c0,1.2-0.2,2.5,0.4,3.7c0.7-0.5,1.3-1.1,1.8-1.8
		c-0.1,1.7,0.3,3.3,1.3,4.7c0.4-0.5,0.7-1,0.8-1.6c0.3,1.4,1,2.7,2.2,3.4c0.3-0.6,0.5-1.1,0.4-1.8c-0.5,0.1-0.5,0.6-0.6,1
		c-1.9-1.7-1.5-4.4-1.6-6.7c-0.1-1.7,0.6-3.4,0.2-5.1c-0.5,1.3-0.5,2.7-0.7,4c-0.2,2,0.4,4.2-0.8,5.9c-1.3-3-0.5-6.3-0.1-9.3
		c-0.7,0.7-0.6,1.8-0.9,2.6c-0.2,1.5-0.7,3-1.9,3.9c-0.2-1.6-0.2-3.2,0.3-4.8c0.3-1.1,1-2.2,1.3-3.3c-0.1,0.1-0.3,0.2-0.5,0.3
		c-0.7,1.5-2.2,2.4-3.8,2.8c0.3-0.8,0.7-1.6,1.2-2.4c0.6-0.9,1.5-1.6,2.1-2.5c-1.5,0.7-3,1.4-4.6,1.5c0.8-1.3,2-2.4,3.4-3.1
		c0.4-0.2,0.6-0.5,0.9-0.8c-0.8,0.1-1.5,0.5-2.3,0.4c0,0.4,0,0.8,0,1.1l-0.3-0.3c-0.8,1-2.2,1.8-2.2,3.2c1.1,0.1,2.2-0.3,3.2-0.6
		c-0.9,1.2-1.7,2.5-2.1,4C175,97.2,176.2,96.5,177.2,95.9z"/>
	<path class="st0" d="M179.7,81.2c-0.9,0.1-0.9-1.2-1.1-1.8c-0.2,0.2-0.3,0.4-0.5,0.6c0.2,0.8,0.9,2.4,2,1.7
		c0.2-0.3,0.1-0.6-0.1-0.9L179.7,81.2z"/>
	<path class="st0" d="M172.9,90.5c0.6,0,1.7,0.4,2-0.3c-0.5-0.1-0.9-0.1-1.4-0.1c1.2-1.8,3.4-2.2,4.9-3.6c-1.2,0.2-2.2,0.8-3.3,1.1
		c0.1,0.2,0.2,0.5,0.3,0.7l-0.5-0.1C174,88.7,172.9,89.3,172.9,90.5z"/>
	<path class="st0" d="M175.8,67.6c-0.4,0.4-0.7,0.9-0.9,1.4c0.2,0.6,0.3,1.2,0.5,1.7c0.2,0.2,0.3,0.2,0.5-0.1
		c-0.3-0.7-0.4-1.5-0.4-2.3c0.3,0.4,0.6,0.8,0.9,1.2C176.4,68.9,176.3,68.2,175.8,67.6z"/>
	<path class="st0" d="M175.2,72.2c0,0.4,0.1,0.7,0.4,0.9l0.1,0C176,72.8,175.6,72,175.2,72.2z"/>
	<path class="st0" d="M167.5,69.1c0.3,0.7,1,1.9,1.8,0.9c-0.4-0.3-0.8-0.3-1.2,0C168.7,69.3,168.1,68.8,167.5,69.1z"/>
	<path class="st0" d="M154.9,80.2c0.8,1,1.8,2,3.2,2.1c0.4,0.2,0.7-0.2,0.9-0.5c-0.6-0.1-1.3,0-1.8-0.3c-1-0.4-1.6-1.4-2.3-2.1
		c-0.7-0.8-1.7-1.4-2.3-2.4c-0.5-0.7-0.5-1.5-0.7-2.3c-0.5,0.5-0.3,1.4-0.1,2C152.5,78.2,154,78.9,154.9,80.2z"/>
	<path class="st0" d="M154.1,69.8c-0.4,0.1-1-0.1-1.1,0.4c0.7,0,1.3,0.5,1.9,0.8C154.7,70.6,154.4,70.2,154.1,69.8z"/>
	<path class="st0" d="M108,78.7c1.1,1,2.8,1.1,4.2,0.8c1.8-0.5,3.1-2.5,2.9-4.4c0.1-1.8-1.2-3.5-2.9-4.1c-1.4-0.3-2.8-0.2-4,0.5
		C106.1,73.3,105.8,76.9,108,78.7z M108.5,72.1c2-1.5,5.2-0.7,6,1.8c0.2,1.2,0.4,2.7-0.5,3.7c-1.2,1.8-4,2.1-5.6,0.7
		C106.5,76.8,106.6,73.6,108.5,72.1z"/>
	<path class="st0" d="M112.5,73.9c0.5,0.4,0.9,1.1,1.7,1.1c-0.9-1.3-2.1-2.5-3.5-3.1C111,72.7,111.9,73.2,112.5,73.9z"/>
	<path class="st0" d="M112.9,76.2c0.3,0.3,0.7,0.6,1.1,0.9c-0.2-1-1.1-1.5-1.8-2.1c-1.1-1-2.1-2.2-3.3-3c0,0.1,0.1,0.4,0.1,0.6
		C110.3,73.9,111.7,75,112.9,76.2z"/>
	<path class="st0" d="M112.9,89.5c0.4,0.1,0.8-0.6,0.7-0.9C113.2,88.5,112.8,89.1,112.9,89.5z"/>
	<path class="st0" d="M111.2,76.2c0.4,0.7,0.9,1.4,1.8,1.5C112.6,77.1,112,76.4,111.2,76.2z"/>
	<path class="st0" d="M69.3,68.9c-1.4,0.3-2.9,0.9-3.4,2.3c-3.6,0.1-7.2,0-10.8,0c-1.7,0-3.6,0.6-4.5,2.2c-0.7,0.9-0.5,2.2-0.5,3.3
		c0.4,0.7,0.8,1.5,1.4,2c0.8,0.6,1.8,0.9,2.7,0.9c3.8,0,7.7,0,11.5,0c1.2,1.9,3.6,2.2,5.6,2.8c0.5,0.5,0.8,1.3,1.5,1.5
		c0.5,0.1,0.8-0.3,1.1-0.5c0.3,0.1,0.6,0.1,0.9,0.2c0.7,0.5,0.7,1.4,0.4,2.1c0.4,0.8-0.3,1.7,0.2,2.5c-0.1,0.3-0.2,0.6-0.3,0.8
		c-0.3-0.4-0.7-0.9-0.7-1.4c0-1.2-0.1-2.4,0.1-3.5c-0.2-0.2-0.3-0.4-0.5-0.6c-0.2,1.5-0.3,3.1,0,4.6c0.3,0.8,1,1.8,1.9,1.8
		c-0.2-0.6-0.2-1.3,0.1-1.9c-0.6-0.6,0.2-1.4-0.1-2.2c0.1-0.7,0.2-1.4-0.1-2.1c1.8,0.1,3.7-0.4,5.5,0.2c1.7,0.4,3.5,0.7,5.3,0.6
		c2.1,0,4.2,0.1,6.3,0c0.3-0.3,0.5-0.7,0.8-1c0.7,0.7,1.5,1.5,2.5,1.6c1.9,0.1,3.9,0.4,5.8-0.1c0.9-0.3,1.5-1.3,2.2-1.9
		c0.2,0.5,0.9,1.3,1.4,0.5c0.5-1.1,1-2.3,1.2-3.5c0.5,0,0.9,0,1.4,0c1,2.1,2.9,3.6,3.5,5.8c0.4,1.3-1.3,1.9-1.2,3.2
		c0.2,0.2,0.4,0.4,0.6,0.6c-0.4,0.4-0.7,0.8-1.2,1c0.1-0.2,0.3-0.6,0.4-0.8c-0.1-0.1-0.2-0.4-0.2-0.5c-1.1,1.9-2.5,3.7-3.8,5.4
		c0.1,0.8,1.1,1.6,1.9,1.3c1.4-2.1,2.9-4.1,4.3-6.1c0.2,0.8,0.2,1.5,0.1,2.3c-0.5,1.2-1.4,3-1.9,4.2c0,0.4,0.5,1.4,1.1,0.9
		c0.5-0.6,0.2-1.4,0.6-2.1c0.7-1.3,1.5-2.7,1.2-4.2c-0.6,0.6-0.4,1.5-0.8,2.2c-0.5,1.2-1.4,2.2-1.3,3.6c-0.1-0.1-0.2-0.1-0.3-0.2
		c0.1-0.7,0.4-1.5,0.7-2.2c0.3-0.7,1.2-1.6,0.8-2.3c0.1-0.1,0.2-0.1,0.3-0.1c0-0.6,0-1.2,0-1.8l0,0c0,0.3,0.1,0.5,0.4,0.7
		c0.1-0.1,0.2-0.4,0.3-0.6c0.7-0.7,1.2-1.6,1.1-2.6c0.5-1.8,1.3-3.5,1.1-5.4c-0.3-1.2-1.1-2.1-1.8-3c0.1-0.3,0.3-0.4,0.6-0.4
		c6.1,0.9,12.2,1.4,18.3,0.7c1.5,0.1,3-0.1,4.4,0.1c4.1,0.7,8.3,1,12.4,2c0.9,0.1,1.6,1.4,2.6,0.8c1-0.3,0.5-1.4,0.7-2.1
		c1.4,0.5,2.4,1.9,4,2.2c1.1,0.2,2.4,0.3,3.2-0.5c0.6-0.4,1-1.1,0.8-1.9c-0.4-1.3-1.4-2.2-2.5-2.9c1-0.3,0.5-1.4,0.6-2.2
		c0.1,0.2,0.3,0.6,0.4,0.8c0.4,0.3,1.1,0.1,1.1-0.5c0.5,0,1.1,0.1,1.6,0.1c0.1,0.8,1.3,1.1,1.5,0.1c0.7,0.1,1.5,0.3,2.2,0.4
		c0.3,0.8,1.4,1,1.4-0.1c0.5,0.1,1,0.2,1.5,0.3c-0.4,1.2-1.4,2.1-1.6,3.3c-0.4,0.8,0.6,1.3,1.2,1.3c0.9,0,1.7,0.8,2.7,0.5
		c0.1,0.1,0.3,0.2,0.4,0.4c0.2,0,0.6,0.1,0.8,0.2c-3.2,1.4-6,4.5-6.1,8.1c0.1,1.6-0.3,3.3,0.4,4.8c0.4,0.7,0.9,1.2,1.2,1.9
		c0.3,0.8,1,1.3,1.5,2c0.3,0.8,0.7,1.6,1.3,2.2c0,0.7,0,1.4,0.3,2.1c0.3,0.7,0.9,1.3,1.3,2c0,1.3-0.2,2.6-0.2,3.9
		c0.1,2.4-0.3,5,0.9,7.2c0.6,1.2,0.4,2.6,0.9,3.9c0.3,0.6,0.3,1.6,1.1,1.8c0-0.2,0.1-0.5,0.1-0.6l0.1,0.4c0.2-0.2,0.4-0.4,0.5-0.6
		c-0.3-1.9-0.1-3.8-0.2-5.8c0.1-4.6-0.1-9.2,0.1-13.8c0-1.1,0.2-2.3-0.2-3.3c-0.4,1.7-0.2,3.5-0.4,5.3c0,3.7-0.1,7.4-0.1,11
		c0,2.1-0.3,4.2-0.2,6.4c-1-2.3-0.9-4.8-1.3-7.3l-0.3,0c0,0.6,0,1.1,0,1.7c-0.6-1.3-0.5-2.7-0.5-4.1c-0.1-4.9,0.5-9.8,0.2-14.7
		c0-0.3-0.1-0.6-0.4-0.9c-0.2,2.9,0,5.8-0.1,8.7c-0.4-0.7-1.1-1.4-1-2.3c0-3.2,0-6.5-0.1-9.7c-0.2,0.2-0.4,0.5-0.4,0.9
		c-0.2,2.3,0,4.7-0.1,7c-0.4-0.5-0.8-1.1-0.8-1.8c-0.2-2.6-0.1-5.3-0.4-7.9c-0.3,0.3-0.3,0.6-0.3,0.9c0,2.2,0.1,4.4,0.1,6.6
		c-0.5-0.5-1.1-1.1-1.1-1.8c-0.3-2.4,0-4.8-0.2-7.2c-0.1-0.1-0.2-0.3-0.3-0.5c-0.1,2.3-0.2,4.6-0.1,7c-1.1-1.3-0.7-3.2-0.8-4.8
		c-0.2-3.5,2.3-6.8,5.5-8.1c0.6-0.3,1.4-0.7,2.1-0.2c0.6-0.2,1.2-1.2,1.8-0.6c-1.4,0.8-3,1.6-3.7,3.1c0.7,0.2,1.5,0.3,2.2,0.3
		c-0.7,0.7-1.8,1.3-1.9,2.5c0.7,0,1.3,0.1,2-0.1c0-0.1-0.1-0.3-0.1-0.4c-0.3,0-1,0.1-1.3,0.1c0.9-1.5,2.6-2,3.6-3.4
		c-1.2,0.4-2.3,0.8-3.6,0.6c1.2-1.5,3-2.2,4.7-2.9c0.6,0.6,1.4,1,2.2,0.4c0.7,0.5,1.4,1.1,2,1.7c-0.6,1.1-0.5,2.4-0.4,3.6
		c0.1,1.6,1.6,2.9,3.3,2.8c-0.3,2-0.1,4.1-0.7,6.1c-0.1-1,0-2-0.1-3c-0.1,0.1-0.3,0.2-0.4,0.2c-0.2,1.1-0.1,2.2-0.1,3.3
		c0.1-0.1,0.4-0.2,0.5-0.3c-0.3,1-0.5,2.1-0.1,3.1c0,0.3,0.4,1,0,1.2c-0.2-0.4-0.1-0.8-0.5-1c0,1.3,0,2.6,0,3.9
		c0,1.8,0.6,3.5,1.7,4.8c0.2,1.2,0.5,2.3,0.6,3.5c0.1,1.2,0.6,2.3,0.6,3.5c-0.5,0.1-0.9,0.3-1.4,0.4c0.3,0.3,0,0.7-0.1,1
		c0.4,0,1.1-0.1,1.4-0.2c-0.2-0.2-0.3-0.3-0.5-0.5c0.2-0.1,0.6-0.4,0.8-0.6c-0.2,0.5,0,0.8,0.5,0.8c-0.4,0.6-0.5,1.3-0.6,2
		c-0.2-0.2-0.3-0.3-0.5-0.5c0.2-0.4,0.9-0.8,0.3-1.3c-0.3,0.5-0.6,1-0.9,1.5c0.3,0.5,0.3,1,0.3,1.6c1.7-0.9,2.1-3.1,2-4.8
		c-0.3-2.3-0.1-4.6-0.5-6.9c0.2,0.5,0.5,0.9,0.7,1.4c0.1,4.2-0.1,8.3,0.2,12.5c-0.1,3.9,0,7.7,0.1,11.6c0,2.1,0.2,4.3,0.6,6.4
		c-1.1-0.9-2.1-2-2.7-3.3c-0.9-2.1-1.7-4.3-1.6-6.7c0.1-3.3-0.1-6.6-0.1-9.9l0.7,0c-0.3-0.3-0.8-0.4-0.9-0.8
		c0.2-0.1,0.5-0.3,0.6-0.4c-0.7-0.5-0.3-1.4-0.6-2.1c-0.2-0.3-0.1-0.6,0.2-0.8c0.1-2.6,0.1-5.1-0.2-7.7c-0.5,0.4-0.3,1-0.3,1.5
		c0.1,2,0,4.1,0.1,6.1c-0.6,0.1-1.2,0.3-1.7,0.8c0.5,0.3,1.1,0.3,1.7,0.3c0,0.6,0,1.1-0.1,1.7c-0.3,0.2-0.6,0.5-0.8,0.8
		c0-0.2,0.1-0.4,0.3-0.5c-0.1-0.3-0.3-0.6-0.4-0.8c-0.4,0.1-0.8,0.1-1.1,0.1c-0.1,1.2,1.1,1.5,2,1.8c0.4,3.5,0.2,7.1,0.2,10.7
		c0,1.6-0.3,3.2-0.2,4.8c-1.7-1.7-2.1-4.2-2.7-6.5c-0.1-2-0.1-4.1,0-6.1c0-2.9-0.3-5.7-0.1-8.6c0.1-2,0-4.1-0.1-6.1
		c-0.1-0.4,0.1-1-0.5-1.1c0,2.3,0.2,4.6,0.2,6.9c-0.1,3.2,0.1,6.5,0,9.7c0,2.4,0.1,4.9-0.3,7.3c-0.6-1.2-1.3-2.3-1.6-3.6
		c-0.5-2-0.2-4.1-0.4-6.1c-0.2-2.1,0.1-4.2-0.1-6.4c-0.2-4,0-8-0.2-12c-0.5,0.2-0.4,0.8-0.4,1.2c-0.1,5.3,0.3,10.7,0.3,16
		c0.1,2.2-0.2,4.4-0.4,6.6c-0.7-0.8-1-1.9-1.3-2.9c-0.2-0.7-0.5-1.5-0.3-2.3c-0.2,0-0.5,0.2-0.7,0.1c0.2,1.8,0.7,3.3,1.6,4.9
		c0.2,0.3,0.4,0.7,0.7,0.8c0.4-0.1,0.5-0.7,0.7-1c0.1,1.7,0.9,3.3,1.8,4.7c0.2,0.3,0.5,0.9,1,0.6c0.1-0.5,0.2-1.1,0.2-1.6
		c0.1,1.1,0.4,2.1,0.8,3.2c0.5,1.2,1.2,2.7,2.6,3c0-1,0-2.1,0.1-3.1c0.6,2.2,1.3,4.6,3.1,6.2c0.5,0.5,1.1,1,1.9,1.1
		c-0.3-2-0.7-3.9-0.6-5.9c-0.2-3.6-0.3-7.2-0.2-10.8c-0.1-4.5-0.1-9.1-0.1-13.6c0.7,0.7,1.4,1.6,2.3,2.1c0-0.5-0.1-1.1-0.2-1.6
		c-0.8-5.1-0.8-10.3-0.6-15.4c0.1-2.2,0.8-4.7-0.6-6.6c-0.6-0.8-1.7-0.7-2.5-0.3c0.3-1.7,0.7-3.3,1.1-5c0.1-0.6,0.5-1.3,0.3-1.9
		c-0.3-1-1.1-1.7-1.4-2.6c-0.2-0.5-0.3-1.1-0.8-1.4c-0.3-0.3-0.8-0.1-1.3-0.2v-0.2c0.8,0,1.6,0,2.4,0c0.7-0.4,1.5-0.2,2.3-0.1
		c-0.1-0.5-0.5-0.9-1-0.6c-0.6-0.1-1.2,0-1.8,0.2c-0.7,0-1.4-0.2-2.2-0.1c-0.2-0.4-0.3-0.9-0.5-1.3c0.7,0.5,1.3,1.1,2.2,1.2
		c0.8-0.1,1.8-0.2,2.4-0.7c-0.6-0.4-1.3-0.7-1.9-1.2c0.1-0.3,0.2-0.7,0.3-1c0.2,0,0.4,0.1,0.7,0.1c0.5,0.4,1.2,0.6,1.7,0
		c1-1-0.4-2.1-0.2-3.2c-0.3,0.9-1.4,1-1.7,1.9c-0.1-0.1-0.4-0.2-0.5-0.3c0,0.4,0,0.8,0.1,1.2c-0.4-0.3-0.9-0.9-1.4-0.2
		c-0.3-0.5-0.7-1.1-0.5-1.7c-0.3,0-0.6,0-0.9,0c0.1-0.1,0.3-0.2,0.5-0.3c-0.1-0.1-0.2-0.2-0.4-0.4c0.4-0.2,0.5-0.6,0.7-0.9
		c-0.5,0.2-1,0.5-1.6,0.7c0.2,0.2,0.3,0.3,0.5,0.5l-0.4,0.2c-0.1-0.3-0.3-0.6-0.4-0.9l-0.4,0.5c-0.2-0.1-0.3-0.3-0.5-0.4
		c-0.4,0.9-0.2,1.9-1,2.6c0.3-1.3,0.5-2.8,1.3-3.9c0.1,0.4,0.3,0.7,0.5,1c0.4-0.8,0.9-1.4,1.5-2.1l0.3-0.1c-0.4,0.6-0.8,1.1-1.3,1.7
		c0.1,0.2,0.3,0.3,0.4,0.5c0.3-0.9,1.3-0.6,2.1-0.8c-0.3,0.2-0.6,0.3-1,0.2c0,0.3,0,0.6-0.1,1c0.6-0.2,1.4-0.3,1.5-1.1
		c-0.1-0.3-0.2-0.5-0.3-0.8c0.5-0.4,1-0.7,1.7-0.6c-0.5,0.3-1.1,0.7-1.2,1.3c0.3,1.1,2.1,1.4,2.4,0.1c0.3-0.7-0.3-1.3-0.9-1.6
		c0.6-0.5,1.4-0.7,2.1-0.4c1.1,0.3,2.2-0.3,3.3-0.1c1.1,0.2,2.2,1,2.6,2.1c0.6,1.9,0.8,3.9-0.1,5.7c-0.4,1-1.5,1.5-2.5,1.5
		c-1.3,0-2.6,0.6-3.8-0.1c-0.2,0.2-0.4,0.4-0.6,0.5c1.6,0.6,3.4,0.3,5,0.1c1.4-0.2,2.4-1.3,2.7-2.6c0.6-1.8,0.3-3.8-0.3-5.5
		c-0.7-1.5-2.5-2.5-4.1-2.3c-0.8,0.1-1.5,0.4-2.3,0.1c-0.7-0.2-1.5-0.1-2.1,0.4c-0.6,0-1.2,0.1-1.8,0.3c0.3-1.1,0.7-2.2,0.9-3.3
		c0.1-0.9-0.7-1.4-1.3-1.7c-0.1-0.7-0.2-1.5-0.3-2.2c1,0.5,1.8,1.7,3.1,1.4c1.2-0.6,1.7-2,1.7-3.3c0-2.6,0-5.2,0-7.8
		c-0.2-3.4-0.4-6.8,0.1-10.2c0.1-0.9,0.6-1.8,0.7-2.7c-0.1,0-0.3-0.1-0.5-0.1c-0.7,0.4-1.3,1.1-1.9,1.6c-0.2-4.9,0-9.7-0.1-14.6
		c0.2-5,0.2-10,0.8-15c0.2-0.7-0.6-0.9-1-0.5c-1.8,1.4-3.2,3.4-3.8,5.6l0.2,0.3c-0.3,0-0.6,0.1-0.8,0.3c-0.4,2.1-0.1,4.3-0.1,6.4
		c-0.1,2.2,0.1,4.4,0.1,6.6c-1.1-0.3-3.1,0.2-2.4,1.8c0.2-0.3,0.5-0.5,0.7-0.8c-0.1,0.2-0.3,0.5-0.4,0.7c0.3,0.4,0.7,0.6,1.1,0.7
		c0-0.2,0-0.7,0.1-0.9c0.3-0.2,0.6-0.5,1-0.3c0,0.5,0,1,0,1.5c-0.5,0.1-0.9,0.3-1.4,0.3c0.2-0.2,0.3-0.4,0.5-0.6
		c-0.3,0-0.8,0.1-1,0.1c0,1,1.1,1.2,1.9,1.4c0,1.8,0.1,3.7,0.1,5.5c0.1,1.7-0.4,3.4-1,5c-0.1-0.3-0.1-0.6-0.2-1
		c-1.4,0.5-2,2-2.3,3.3c-0.2-0.5-0.4-1-0.7-1.5c-1.3,1.2-1.4,3.1-1.4,4.7c-0.3-0.5-0.7-1-1.1-1.4c-0.2-0.3-0.9-0.6-0.9,0
		c-0.4,1.9-0.3,4,0.4,5.9c-1.1-0.5-2.2-1.2-3.4-1.2c0.4,1.5,1.2,3,2.2,4.1c-0.7-0.3-1.4-0.5-2.2-0.6c-0.4,0-1.2-0.2-1.2,0.4
		c0.5,1.1,1.5,1.9,2.4,2.8c-0.7,0-1.4-0.1-2.1,0c0,1.2,1.2,1.9,2.1,2.5c-0.7,0.1-2.3-0.4-1.9,0.8c0.6,0.7,1.3,1.3,2,1.9
		c-0.7-0.1-2.2-0.4-2.2,0.6c0.9,1.1,2,1.9,3.3,2.5c-0.7,0-1.3,0.1-1.7,0.6c-0.1-0.1-0.4-0.2-0.5-0.3c-2.6-0.2-4.6-2.2-6.1-4.1
		c-1-1.2-1.4-2.8-1.3-4.4c0.1-1.4,0.2-2.9,1.3-3.8c0.1,1.9-0.2,3.8,0.1,5.7c0.5-0.4,0.3-1.1,0.3-1.6c0-1.7,0-3.3,0.2-5
		c0.1-0.8,0.3-1.7,1.1-2.1c-0.1,2.4-0.1,4.8,0.1,7.1c0.6-0.2,0.3-1,0.4-1.5c-0.2-2-0.1-4.1,0.1-6.1c0-0.7,0.4-1.2,0.8-1.8
		c0.1,1.7-0.1,3.5,0.1,5.2c0.1,0,0.3,0.1,0.4,0.1c0-1.6,0.2-3.1,0.1-4.7c0-1.4,0-2.9,0.8-4.1c0,2.5,0.1,5,0.4,7.5
		c0.6-0.6,0.2-1.5,0.3-2.2c-0.2-2.6,0-5.3-0.2-7.9c-0.1-3-0.5-6.2,0.5-9.1c0.1,0.4-0.1,1,0.4,1.3c0.1-1.8,0.2-3.5,0.7-5.2
		c0.1-0.4,0.2-0.9,0.6-1.1c0.1,6.3,0.1,12.6,0.1,18.8c0.1,0.5,0,1.1,0.4,1.4c0.2-1,0.1-2.1,0.1-3.1c0-4.2-0.3-8.5,0-12.7
		c0-2.5,0.1-5,0.6-7.5c0.3-1.2,0.9-2.3,1.2-3.4c0.7,2.8,0.2,5.8,0.4,8.6c0.3,4.3,0.1,8.5,0,12.8c0.1,0.8-0.2,1.7,0.4,2.3
		c0.3-6.9,0.1-13.9,0.1-20.9c0-2.1,0.5-4.2,1.4-6.1c0.2-0.5,0.6-0.9,1-1.3c0.3,4.8,0,9.6,0.2,14.4c0.3,3.1-0.2,6.2,0.4,9.2
		c0.4-2.3,0.1-4.7,0.2-7c-0.2-4.8,0-9.6-0.2-14.4c0.2-2.4,1.1-4.9,3-6.6c0,0.3,0.1,0.6,0.1,0.8c0.1,0.2,0.3,0.2,0.5-0.1
		c-0.1-0.5-0.1-1-0.2-1.4c-0.3,0.1-0.7,0.2-0.9,0.5c-1.3,1.2-2.1,2.8-2.5,4.4c-0.1-0.8-1-0.3-1.3,0.1c-0.9,1.3-1.6,2.8-1.7,4.4
		c-0.2-0.3-0.5-0.9-1-0.5c-1.2,1.8-1.8,3.8-2,5.9c-0.1,0-0.4,0.1-0.5,0.2c-1.1,1.4-1.5,3.3-1.5,5c-0.1,0-0.4,0-0.5,0
		c0.1,0,0.3,0.1,0.4,0.1c-1,1.2-1.1,2.7-1.1,4.2c-0.2,2.5,0.1,5.1,0.1,7.6c-1,0.9-1.1,2.2-1.4,3.5c-0.6,0.7-1.1,1.5-1.4,2.4
		c-1.1,0.5-1.4,1.8-1.7,2.9c-0.5,0.6-1.3,1.1-1.5,2c-0.4,2.2-0.7,4.8,0.8,6.7c1.1,1.5,2.4,2.9,3.9,3.8c0.5,0.3,1.1,0.5,1.6,0.9
		l-0.4,0.1l0-0.3c-0.4,0-0.7,0-1.1,0c-0.2,0.3-0.5,0.6-0.7,0.9c-0.4-0.7-1.4-1-1.8-0.2c-0.4,0.4-0.1,0.9,0.1,1.3
		c0.6-0.2,0-1,0.6-1.3c0.2,0.1,0.4,0.2,0.6,0.4c0.4,0.5,0.7,1.1,1,1.6c-0.9-0.2-0.9-1.6-1.8-1.7c0.2,0.8,0.6,1.6,1.3,2
		c0.3,0.3,0.8,0.3,1-0.1c-0.1-0.7-0.3-1.4-0.3-2.1c0.2-0.1,0.5-0.2,0.6-0.3c0.7,0.8,1.1,1.8,1,2.8c-0.6-0.7-0.5-2-1.3-2.5
		c0,0.9,0.3,1.9,0.9,2.6c0.3,0.3,0.8,0.2,1.1,0.1c0-1-0.5-1.9-0.6-2.8c0.2-0.4,0.6-0.5,1-0.6c0.1,0.4,0.3,0.7,0.4,1.1l-0.3,0
		c0-0.2,0-0.6,0-0.8l-0.3,0.3c-0.3,1.6,0.4,3.1,0.9,4.6c0.1-0.2,0.3-0.3,0.4-0.5c-0.5-0.9-0.8-1.9-0.9-3c0.4,0.8,0.7,1.6,0.9,2.4
		c0.2,0,0.5,0.1,0.7,0.1c-0.3-1.1-0.9-2.2-0.8-3.4c0-0.6,0.5-1.1,1.1-1c0.6,0.2,0.9,0.9,1.2,1.4c-0.2,0.3-0.3,0.6-0.5,0.9
		c0.4,1.3,0.6,2.7,0.9,4.1c-0.6-0.6-0.9-1.5-1.2-2.2c-0.1-0.3-0.5-0.5-0.7-0.2c0.1,1,1,1.7,1.1,2.7c-0.3-0.3-0.5-1.4-0.9-1
		c0.1,0.2,0.2,0.7,0.3,0.9c-0.1,0-0.2-0.1-0.3-0.1c-0.2-0.3-0.4-0.6-0.6-0.9c-0.2,0.1-0.4,0.3-0.7,0.4c-1.6-1.8-4-2-6.1-2.8
		c-0.7-0.2-0.8-1-1-1.7c0.3-0.1,0.7-0.3,0.9-0.6c-0.6-0.2-1.4,0.3-1.4,1c0.3,1.7,2.3,2.5,2.2,4.3c-0.5,0-1,0-1.5,0
		c-0.1-0.2-0.3-0.5-0.4-0.7c-0.5-0.2-0.7,0.2-0.9,0.5c-1-0.2-2.1-0.3-2.9-1.1c-0.2,0.2-0.4,0.4-0.6,0.6c-0.7-0.1-1.4-0.3-2.1-0.4
		c0-0.4-0.3-0.6-0.6-0.8c-0.3,0.2-0.6,0.4-0.7,0.8c-0.1-0.1-0.3-0.2-0.3-0.3c0.4-0.8,0-1.8-1-1.8c0.9-0.7,2.1-1.2,2.4-2.3
		c0.5-1.1-0.1-2.5-1.2-3.1c-0.7-0.4-1.6-0.4-2.4-0.4c0,0.2-0.1,0.5-0.2,0.7c0.6-0.1,1.2-0.2,1.7-0.2l0,0.2c-0.8,0.1-1.6,0-2.3,0.5
		c-0.9,0.8-1.4,1.9-2.3,2.7c-0.8,0.7-1.8,1.3-2.3,2.4c-0.2,0.7-0.3,1.6,0.5,2c0-0.7-0.3-1.4,0.1-2c0.7-1.3,2.1-1.8,2.9-3
		c0.7-0.8,1.1-2,2.3-2.2c0.8-0.2,1.5,0.4,2.1,0.7c-0.2-0.4-0.4-0.8-0.7-1.1c0.8,0.4,1.5,1.3,1.2,2.3c-0.2,1.3-1.6,1.7-2.4,2.5
		c-0.8,0.8-2,0.7-3,1.1c-0.8,0.5-1.6,1-2.2,1.6c-0.3,0.4-0.8,0.4-1.3,0.6c-0.8-0.9-2-1.1-3-1.8c-0.6-0.5-0.4-1.2-0.2-1.7
		c0.5-0.2,1-0.3,1.5-0.3c-0.4,0.3-1.1,0.5-1,1.2c0.5,0.8,1.6,0.5,2.3,0c2.1-1.5,3.2-4.4,5.7-5.2c0-0.3,0.1-0.6,0.1-0.9
		c-0.9,0.7-1.9,1.2-2.7,2c-0.5,0.6-1.2,0.9-1.9,1.1c0.2-0.8-0.1-1.6-0.7-2.2c-0.5,0-1.1,0.1-1.5,0.5c-0.8,0.8-2,0.9-3,1.1
		c-2.1,0.5-4.2,0.9-6.3,1.4c-1.6,0.4-3.3,1-5,1c-1.2,0-2.4-0.2-3.5,0.4c-1.8-0.3-3.6-0.2-5.4-0.1c-2.4,0-4.8,0.3-7.2,0.8
		c-1.5,0.3-3.1,0.6-4.5,1.2c-0.9-1.1-2.3-1.6-3.8-1.7c0.5-0.9,0.6-1.9,1.1-2.8c0.7-1.6,1.5-3.4,1.1-5.2c-0.4-1-1-1.9-1.6-2.8
		c0-0.2,0-0.6,0-0.8c-1.1-1.3-2.1-2.8-3.1-4.2c-0.3-0.4-0.2-1.2-0.8-1.3c-1-0.2-1.6,0.8-1.9,1.5c0.9,1.3,1.8,2.6,2.7,3.8
		c0.7,1.3,2,2.2,2.6,3.6c1,1.8-0.1,3.7-1,5.3c-0.9,0.8-1.3,1.9-1.8,3c-0.4,0-0.8,0-1.2,0c-0.3-1.3-0.6-2.6-1.5-3.7
		c-0.5-0.6-0.9,0.3-1.3,0.6c-0.6-0.7-1.3-1.6-2.2-1.8c-1.5-0.4-3-0.4-4.5-0.2c-0.9,0.1-1.9,0.1-2.7,0.7c-0.3,0.3-1,0.6-0.6,1.1
		c0.6-0.4,1-0.9,1.7-1c1.8-0.4,3.7-0.5,5.5-0.1c1.5,0.2,2.3,1.8,3.7,2.3c-0.2-0.1-0.6-0.2-0.8-0.3c0.2,0.6,0.4,1.2,0.8,1.7
		c0.2-0.1,0.3-0.2,0.5-0.3c0,0.8-0.5,1.7-1.3,1.7c0,0.9,0.3,1.8-0.2,2.7c0.2-0.8,0.2-1.7,0-2.5c-0.2,0.2-0.3,0.4-0.5,0.6
		c0,0.5,0.1,1,0.1,1.5c-0.2,0.2-0.5,0.4-0.7,0.6c1,0.3,2,0.2,3,0.2c-0.1,0.8-0.1,1.6,0,2.4c-2.1-0.1-4.1-0.2-6.2-0.2
		c0-0.7,0-1.3,0-2c0.9,0,1.8-0.1,2.7-0.1c0-0.2,0.1-0.4,0.1-0.6c-0.1,0-0.3-0.1-0.4-0.1c0.4-0.9-0.1-1.9,0.1-2.8
		c-0.8-0.1-1.7,0-2.2,0.5l0.5,0.1c-0.3,0.1-0.7,0.3-0.9,0.4c0.2-0.4,0.4-0.9,0.6-1.3c-0.7-0.8-1.4-1.6-1.9-2.5
		c1,0.2,2.2,0.3,2.8,1.2c0.7,1,1.7,1.8,2,3c0.1,0.4-0.1,1.1,0.3,1.2c0.3-0.8-0.3-1.8,0.3-2.5c-1.6-0.5-1.9-2.5-3.4-3.1
		c-0.9-0.3-1.9-0.3-2.8-0.4c-0.1-0.1-0.3-0.4-0.4-0.5c-0.9,0-1.9-0.3-2.5,0.5c0,0-0.1-0.1-0.2-0.2c-0.8,0.3-1.8,0.4-2.6,0
		c0.7-0.2,1.7,0.2,2.3-0.4c0.1-0.8,0-1.7-0.2-2.5c-1.3-0.5-2.8-0.7-4.1-0.2c-1.2,0.5-0.8,2-0.7,2.9c0.2,0,0.7,0.1,1,0.2
		c-1.2,0.3-2.4-0.1-3.6-0.1c-3.3,0-6.6,0-10,0c0-0.7,0-1.3-0.2-1.9c0.4-0.8-0.3-1.6,0.1-2.4c-0.2-0.5-0.3-1-0.1-1.5
		c-0.1-0.1-0.3-0.2-0.5-0.2c-0.7,0.5-1.6,1-1.6,1.9c-0.1,1.5,0.1,3,0.1,4.5c-0.5-0.4-1.3-0.8-1.8,0c0.4,0,0.8,0.1,1.2,0.1
		c-0.5,0.1-0.9,0.1-1.4,0.2C71.4,68.7,70.2,68.6,69.3,68.9z M189,72c0.2,0.5,0.7,1.3,0,1.7c-0.6,0.2-1-0.4-0.9-0.9
		C188.2,72.4,188.5,72.1,189,72z M188.2,70.2c-0.5-0.3-0.9-1.5,0-1.5C189,68.9,188.7,69.9,188.2,70.2z M104.7,73.4
		c-0.1-0.5-0.3-1.4,0.1-1.8C105,72.1,105.1,73.1,104.7,73.4z M67.8,69.9c1.3-0.4,2.7-0.8,4-1.1c0,0.2,0.1,0.6,0.2,0.7
		c0.3,0.4,0.6,0.7,0.7,1.2c-1.2,0.1-2.6-0.3-3.6,0.5c-0.9,0-1.9,0-2.8,0C66.7,70.7,67.1,70.1,67.8,69.9z M73.1,70.7
		c0-0.2-0.1-0.6-0.1-0.8c-0.2-0.3-0.5-0.5-0.7-0.8c0.5,0,1,0,1.5,0C73.6,69.7,74.1,70.8,73.1,70.7z M56.7,71.8
		c2.6,0.1,5.2-0.2,7.8,0c5.7,0,11.4,0.1,17.1-0.1c3.2,0.2,6.7-0.8,9.8,0.7c-2.9,0.1-5.7,0.1-8.6,0c-3.7,0.3-7.4-0.1-11.1,0
		c-4.6-0.1-9.2,0.3-13.8,0.1c-1.9-0.1-3.8,0.2-5.7,0.1C53.4,71.7,55.1,71.8,56.7,71.8z M93.4,72.1c-1-0.3-2.1-0.4-3.2-0.7
		c-2.8-0.6-5.8-0.1-8.6-0.2c-1.3,0-2.5,0-3.8,0c-0.2-0.2-0.4-0.4-0.6-0.5c-1,0-2,0-3,0c0-0.4,0-0.8,0-1.3c0.4,0.1,0.7,0.2,1.1,0.3
		c3.5-0.1,7,0,10.5,0c2.5,0.3,5.1,0.2,7.6,0.3C93.1,70.6,93.2,71.4,93.4,72.1z M93.8,69.9c0.4,0.1,0.9,0.3,1.3,0.4
		c0.5,0.8,0.9,1.5,1.2,2.4c-0.7-0.1-1.5-0.2-2.2-0.4C93.5,71.7,93.9,70.7,93.8,69.9z M97.9,73.3c0,1.5,0,3,0,4.4
		c-0.4-0.2-0.7-0.4-1.1-0.7c0-0.9-0.2-1.8,0-2.7c0.1-0.1,0.3-0.2,0.4-0.3C97.1,73.6,97.6,73.5,97.9,73.3z M97,78.1
		c0.2,0.3,0.4,0.6,0.8,0.7c-0.2,0.6-0.5,1.2-0.7,1.7c-0.4-0.1-0.8-0.2-1.2-0.3C96.3,79.6,96.7,78.9,97,78.1z M95.3,81
		c0.5,0,1,0,1.5,0c0.1,0.7,0.1,1.5,0,2.2c-0.5,0-0.9,0-1.4,0C95.5,82.4,95.6,81.6,95.3,81z M93.2,81c-5.9-0.1-11.8,0.2-17.7,0.2
		c-0.5,0-1,0.1-1.4,0.4c0-0.5,0-0.9,0.1-1.4c1.3-0.1,2.8,0.3,3.9-0.5c3.8-0.1,7.6,0.1,11.3,0c1.4,0,2.5-1,3.9-1.4
		C93.2,79.1,93.1,80,93.2,81z M92.7,77.9c0.2-0.3,0.4-0.6,0.6-0.9c1-0.2,2-0.3,3-0.5c0,0.1-0.1,0.4-0.1,0.5
		C95.1,77.5,93.9,77.5,92.7,77.9z M94.4,73.9c0.6,0.2,1.2,0.4,1.9,0.5c0,0.5,0,1,0,1.6c-0.6,0.2-1.3,0.3-1.9,0.3
		C94.5,75.5,94.4,74.7,94.4,73.9z M93.8,78.2c0.8-0.2,1.6-0.3,2.5-0.5c0,1-0.5,1.8-1.1,2.6c-0.4,0.4-0.9,0.5-1.4,0.8
		C93.5,80.1,93.7,79.1,93.8,78.2z M96.2,73.3c0,0.1,0.1,0.4,0.1,0.5c-1.4-0.5-3.2-0.3-4.3-1.5C93.5,72.7,94.9,72.8,96.2,73.3z
		 M51.7,73.1c1.1-0.1,2.2-0.1,3.3-0.2c2-0.2,4.1,0.1,6.1,0c5.9,0,11.8-0.1,17.7,0c4.4-0.1,8.8,0,13.2-0.1c0.2,0.3,0.3,0.5,0.5,0.8
		c-5.9,0.1-11.7-0.1-17.6,0.1c-4.3,0-8.7-0.2-13-0.1c-3.7,0.1-7.4,0-11.1,0C51.1,73.5,51.3,73.1,51.7,73.1z M50.7,74.3
		c4.7-0.1,9.4,0.1,14.1-0.1c4.8,0.2,9.6,0.1,14.4,0.1c4.6,0,9.1,0,13.7,0l0.1,0.5c0.2-0.3,0.5-0.7,0.4-1.2c0.9,0.5,0.9,2.2,0.2,3
		c0-0.6,0-1.3,0-1.9c-0.2,0.1-0.3,0.3-0.5,0.4c-0.7-0.1-1.4-0.2-2-0.2c-6.9,0.3-13.8,0.2-20.7,0.2c-6.6,0-13.3,0-19.9,0
		C50.5,74.8,50.6,74.6,50.7,74.3z M50.5,75.7c3.8-0.2,7.6-0.2,11.4,0c7.5-0.1,15,0,22.5,0c2.8-0.1,5.7-0.3,8.5-0.2
		c0,0.2,0,0.6,0,0.9c-2.3,0.2-4.6,0-6.9,0.1c-7.9,0.1-15.9-0.2-23.8,0c-3.9,0.2-7.7,0-11.6,0.1C50.6,76.3,50.6,75.9,50.5,75.7z
		 M51.3,77.9c-0.2-0.3-0.3-0.6-0.5-0.9c4,0,8,0.2,11.9-0.1c4.6,0,9.2-0.1,13.9,0.1c2.9-0.1,5.7,0,8.6,0c2.5-0.3,5,0,7.5-0.2
		c-0.1,0.3-0.3,0.7-0.5,1c-1.3,0-2.7-0.1-4-0.1c-5,0.2-10-0.1-15,0.1c-2.1-0.1-4.3,0.1-6.4-0.1c-2.7-0.3-5.3,0-8-0.1
		C56.4,78,53.9,77.9,51.3,77.9z M54.2,79c-0.7,0-1.4-0.2-2-0.5c2.1-0.1,4.3,0,6.4-0.2c3,0,6.1-0.3,9.1,0.1c1.9,0,3.9-0.1,5.8,0
		c4.7-0.3,9.4,0.1,14.1-0.1c1.3-0.1,2.6,0.1,3.9,0C91,78.6,90.4,79,89.7,79c-2.6,0.3-5.2,0-7.8,0.1c-4,0.1-7.9-0.2-11.9-0.1
		C64.7,79,59.4,79.1,54.2,79z M73.6,81.8c-0.3-0.1-0.5-0.1-0.8-0.2c0.1-0.5,0.2-1,0.3-1.5c0.1,0,0.3,0,0.5,0
		C73.6,80.7,73.6,81.2,73.6,81.8z M69.1,81.3c-1.1-0.3-2.1-0.8-2.8-1.7c0.9,0,1.7,0,2.6,0c0.2,0.2,0.4,0.4,0.5,0.6c1,0.1,2,0.1,3,0
		c0,0.3,0,0.7,0,1C71.6,82.2,70.2,81.6,69.1,81.3z M72.6,83.4c0.1-0.4,0.3-0.4,0.6-0.2C73.2,83.6,73,83.6,72.6,83.4z M90.5,84.1
		c-2.9-0.2-5.8,0.1-8.6-0.5c3.8,0,7.6-0.2,11.4-0.1C92.6,84.3,91.4,84.1,90.5,84.1z M86.1,83.1c-3.6,0.1-7.2,0.1-10.8,0.1
		c-1.1-0.2-2.2-0.4-3.2-0.6c0-0.1-0.1-0.3-0.2-0.5c1.6,0.4,2.9-0.6,4.5-0.5c4.1,0.1,8.1-0.1,12.2-0.1c2.1,0,4.3,0.1,6.4-0.1
		c0.1,0.5,0.1,1,0,1.5C92,82.9,89,82.8,86.1,83.1z M104.9,83.5c0.4-1.1,0.6-2.3,1.4-3.2C105.9,81.4,105.7,82.7,104.9,83.5z
		 M106.6,79.5c-0.2-0.3-0.1-0.9,0.3-1.1C107.4,78.6,107.1,79.7,106.6,79.5z M108.7,80.1c0.6,0.1,1.2,0.3,1.8,0.4
		c0.2,0.4,0.4,0.8,0.6,1.2c-0.3,0.2-0.7,0.3-1,0.5C109.6,81.5,109.2,80.8,108.7,80.1z M110.7,83c0-0.2,0-0.5,0-0.7
		c0.2,0,0.5,0,0.7,0c0.6,1.4,1.7,2.7,1.5,4.4c0,0.6-0.3,1.2-0.6,1.7c-0.1-0.1-0.4-0.3-0.5-0.4c0.3-0.8,0.6-1.8,0.3-2.7
		C111.8,84.5,111.2,83.8,110.7,83z M111.2,88.1c0.3,0.3,0.5,0.5,0.8,0.8c-0.1,0.1-0.3,0.4-0.4,0.5C111.2,89,110.8,88.6,111.2,88.1z
		 M107.8,95.7c-0.4-0.1-0.8-0.3-1-0.7c0.6-0.7,1-1.4,1.5-2.1c0.3,0.2,0.7,0.4,1,0.7C108.8,94.2,108.2,94.9,107.8,95.7z M109.8,92.8
		c-0.2,0-0.6,0-0.8,0c-0.5-0.7,0.3-1.2,0.7-1.7c0.4,0.1,0.8,0.2,1.1,0.3C110.4,91.9,110.1,92.4,109.8,92.8z M110.6,91
		c0.3-0.5,0.6-1,1.2-1.2C111.6,90.3,111.3,90.9,110.6,91z M113.6,90.1c-0.6,0.1-1-0.5-1.6-0.7c0.4-0.5,0.8-0.9,1.2-1.3
		c0.4,0.2,0.8,0.3,1.1,0.5C114.1,89.1,113.9,89.6,113.6,90.1z M115.3,84.1c-0.2,1.3-0.7,2.6-1.1,3.8c-0.3-0.1-0.6-0.2-0.9-0.2
		c0.4-1.6-0.2-3.1-1-4.5c-0.5-0.8-0.8-1.8-1.2-2.7c0.8,0,1.6-0.3,2.3-0.6C114.6,80.9,115.7,82.4,115.3,84.1z M118.4,79.2
		c-1.2-0.2-2.3-0.4-3.5-0.5v-0.2c1.3-0.1,2.7,0.3,4,0.3C118.7,78.9,118.5,79,118.4,79.2z M124.5,77.9c-3.1,0-6.1,0.1-9.2,0
		c0.1-0.3,0.2-0.5,0.3-0.8c4.8-0.1,9.6,0.2,14.4,0c0.8,0,1.4-0.9,2.1-0.5c0.2,0.3,0.4,0.6,0.5,1c-0.3,0.4-0.5,0.8-0.6,1.2
		c-0.5,0-1-0.2-1.5-0.4C128.7,77.7,126.6,77.9,124.5,77.9z M129.5,78.6c-3.1,0.3-6.2,0.2-9.3,0C123.3,78.5,126.4,78.3,129.5,78.6z
		 M121.7,79.4c-0.9-0.1-1.8-0.2-2.7-0.1c0-0.1,0-0.3,0-0.4c1.1,0.1,2.1,0.1,3.2,0.1C122,79.2,121.9,79.3,121.7,79.4z M129,79.6
		c-2.2,0.3-4.4-0.2-6.6,0c0-0.1,0-0.4-0.1-0.5c2.6,0.3,5.2,0.1,7.8-0.2c0.8-0.2,1.5,0.6,2.2,0.2C131.4,79.9,130.1,79.4,129,79.6z
		 M152.5,82.1c-1,0.8-1.7-0.5-2.7-0.7c-4.2-0.9-8.5-1.3-12.8-2c-1.2-0.2-2.4,0-3.6,0c-0.4,0-0.6-0.5-0.9-0.7
		c0.3-0.5,0.7-0.9,0.9-1.4c0.1-0.4-0.4-0.6-0.6-0.8c0.7,0,1.3,0,2,0c0.9,0.8,2.1,1.5,3.3,1.7c3.1,0.6,6.2,1.6,9.4,1.3
		c1.1,0.7,2.6,1.2,3.8,0.7c0.6-0.2,0.8-0.7,1-1.2c0.3,0.4,0.6,0.7,0.9,1.1C152.2,80,152.4,81.3,152.5,82.1z M148.4,79.3
		c0.4-0.1,1.2,0.1,1.5,0.4C149.4,80,148.5,79.9,148.4,79.3z M158.3,77c-1-0.3-2-0.5-3-0.6c-0.8-0.1-1.2-0.9-1.4-1.5
		c1.6,0.3,3.2,0,4.7,0.6c0.1,0.4,0.2,0.9,0.3,1.3C158.7,76.8,158.4,77,158.3,77z M155.5,73.5c0.7-0.2,1.4-0.3,2.2-0.2
		c-0.1,0.5-0.2,1-0.3,1.4c-0.6-0.1-1.2-0.1-1.8-0.2C155.6,74.1,155.6,73.8,155.5,73.5z M169.2,77.6c-0.3,0.4-0.5,0.8-0.9,1.2
		c0.2,0,0.6,0,0.7-0.1c0.4-0.7,0.8-1.4,1-2.1c0.4-0.1,0.7-0.2,1.1-0.3c-0.5,0.8-0.9,1.7-1.5,2.5c-0.5,0.1-1.1,0.3-1.6,0.4
		c0-0.1-0.1-0.3-0.1-0.4C168.5,78.4,168.8,78,169.2,77.6z M173.2,81.5c0.1-1,0.3-1.9,0.4-2.9c-1.2-0.2-1.7,1-1.7,2
		c-0.1,0.5,0.2,0.7,0.5,0.9c0.1-0.8-0.1-1.9,0.7-2.5c-0.1,0.9-0.3,1.8-0.4,2.7c-0.4-0.2-1-0.2-1.1-0.7c0-0.6,0-1.2-0.2-1.7
		c-0.9,0-1.8,0.7-1.2,1.7c0.3-0.2,0.5-0.6,0.5-1c0.1,0,0.3,0,0.4,0c-0.1,0.4,0.1,1-0.4,1.3c-0.4,0-0.7-0.3-1-0.5c0-0.4,0-0.8,0-1.2
		c-0.5-0.2-1.1-0.1-1.6,0.2c0.1,0.2,0.3,0.4,0.5,0.6l0.3-0.4c0.1,0,0.3-0.1,0.4-0.1c-0.2,0.2-0.3,0.5-0.5,0.7c-0.3,0-0.7-0.1-1-0.2
		c-0.2-0.3,0.1-0.6,0.3-0.8c1-0.5,2.1-0.3,3.1-0.8c1.3-0.6,2.6-1.3,3.2-2.6c0.2-0.4,0.3-0.8,0.8-1c-0.5,1.8-1.5,3.5-1.4,5.4
		c-0.1,0.5,0.2,0.9,0.5,1.3C173.9,81.8,173.6,81.7,173.2,81.5z M171.2,78.3c0.4-0.8,0.8-1.6,1.4-2.3c0.2,0.3,0.4,0.6,0.6,0.9
		c0.3-0.3,0.5-0.6,0.8-0.9c-0.3,0.6-0.7,1.2-1.4,1C172.4,77.7,171.8,78.1,171.2,78.3z M175.6,75.7l0.2,0c-0.6,1.7-0.3,3.7-1.5,5.1
		C174.3,79.1,175.1,77.4,175.6,75.7z M174.8,82.2c-0.2-0.1-0.4-0.1-0.6-0.2c0.7-0.4,0.8-1.2,1.1-1.8
		C175.4,80.9,175.2,81.5,174.8,82.2z M177.6,81.7c-0.5,0.3-1,0-1.5-0.2c-0.5-1.3-0.3-2.8-0.3-4.2c0.6,1.3-0.3,3.2,1,4.3
		c0.4-0.1,0.6-0.5,0.9-0.8C177.7,81.1,177.6,81.4,177.6,81.7z M176,77.2c0-0.7,0.2-1.4,0.5-2.1C176.6,75.9,176.5,76.6,176,77.2z
		 M177.3,75.7c0,1-0.2,2-0.1,3c0.1,0.8,0.1,1.5-0.1,2.2c-0.9-1.7-0.2-3.8,0.1-5.6c0.4,0,0.7,0,1.1,0c-0.2,0.7-0.3,1.4-0.3,2.2
		l-0.3,0c0.1-0.7,0.1-1.4,0.3-2.1C177.8,75.6,177.4,75.7,177.3,75.7z M180.5,81.6c-0.4,0.4-1.2,0.7-1.7,0.3c-1.1-0.9-1.2-2.6-1-4
		c0.1,0.5,0.2,1.1,0.1,1.6c0.2-0.2,0.3-0.4,0.5-0.5c-0.1-1.2,0-2.4,0.2-3.6c0.1,0.9,0.2,1.8,0.5,2.7c0.2,0.8,0.8,1.6,0.6,2.4
		c0.4,0.3,0.6-0.2,0.9-0.4c-0.4-0.8-0.8-1.6-1.1-2.4l0.3,0c0,0.1,0,0.5,0,0.6l0.2,0c0.2,0.8,0.7,1.6,1.3,2.2c0.5,0.4,0.9,0,1.4-0.3
		c-0.1,0.3-0.3,0.6-0.4,0.9c-0.5,0-1.1,0-1.3-0.7c-0.2,0.1-0.4,0.2-0.6,0.3C180.5,80.9,180.5,81.4,180.5,81.6z M179.4,75.5h0.2
		c0,0.6,0,1.2,0.1,1.8C179.2,76.8,179.4,76.1,179.4,75.5z M180.8,82c0-0.2,0-0.6,0-0.8c0.5,0.1,1.1,0.3,1.6,0.3
		c0.4-0.6,0.8-1.3,1.6-1.5c0.2-0.3,0.4-0.6,0.6-0.8c0.8,0.8,1.4,1.9,1.4,3c-0.6,0.2-1.2,0.3-1.7,0.6c-0.6,0.4-0.4,1.1-0.4,1.7
		C182.7,84,181.9,82.8,180.8,82z M184.9,90.1c-0.8-0.3-1.7-0.6-2.2-1.4c-0.7-1.3-0.4-2.8-0.3-4.1c0.6,0.2,1.2,0.5,1.8,0.4
		C184.9,86.6,185,88.4,184.9,90.1z M184.2,101.8L184.2,101.8c0.1,2,0.7,3.9,1,5.8C184.2,105.9,183.9,103.8,184.2,101.8z M187.6,115
		c0,0.4,0,0.9,0,1.3C187.2,115.8,186.6,115,187.6,115z M187.2,89.4c0.4-0.5,1.2-0.6,1.7-0.3c0.4,0.4,0.7,1,0.9,1.6
		c0.3,3.2-0.4,6.5-0.2,9.7c0.1,3.7,0.1,7.5,0.8,11.1c-0.9-0.9-1.9-1.9-2.4-3.1c-0.9-1.7-0.5-3.7-0.6-5.5c-0.1-2.9,0.1-5.8-0.1-8.7
		c-0.6,1.2-0.2,2.6-0.3,3.9c-0.1-0.3-0.3-0.7-0.4-1c0-1.3,0-2.5,0.1-3.8C186.9,92,186.8,90.6,187.2,89.4z M187.6,83.9
		c-0.2,1.4-0.7,2.8-0.9,4.2c-0.4,3.7-0.9,7.4-0.2,11.1c0.2,0.6,0,1.1-0.7,1c0.1,0.3,0.3,0.6,0.4,0.9c0.1-0.1,0.4-0.4,0.6-0.6
		c0,2.4-0.1,4.9,0.2,7.3c0.1,0.6,0,1.2,0,1.9c-0.2-2.8-0.7-5.6-0.7-8.5c-0.4-0.2-0.6-0.3-1-0.4c0.5,1.1,0.4,2.2,0.6,3.3
		c0.4,3.4,0.8,6.8,1.4,10.2l-0.3,0.2c-0.6-3.2-1.1-6.3-1.7-9.5c-0.2-1.5-0.7-2.9-0.6-4.4c0.6,0.1,0.7-0.1,1-0.5
		c-0.4-0.1-0.6-0.4-1-0.4c-0.5-1.3,0.2-2.6,0.5-3.8c0.4-2.3,0.4-4.6,0.4-7c0-1.8-0.2-3.7-1.2-5.3c0.1-0.1,0.2-0.3,0.3-0.5
		c0.8,0,1.5-0.9,2.3-0.4C187.3,83,187.7,83.4,187.6,83.9z M186.1,80.1c0.1,0.2,0.3,0.5,0.4,0.7c0,0.1,0.1,0.4,0.2,0.6
		c-0.1,0.1-0.1,0.2-0.2,0.4C186.3,81.2,186.2,80.6,186.1,80.1z M186.3,79c0.4,1.4,1.9,2.4,1.6,3.9c-0.3-0.2-0.5-0.4-0.8-0.5
		c0.3-1.8-1.2-3.1-1.9-4.6C185.8,78,186.2,78.4,186.3,79z M184.4,77.6c0.3,0.6,0.8,1.2,1.1,1.8c-1.1-1.2-2-2.7-2.3-4.4
		C183.8,75.7,183.9,76.8,184.4,77.6z M186.1,73.5c0.4-0.1,0.6,0,0.5,0.5C186.1,74.1,186,73.9,186.1,73.5z M182.9,71.4
		c0.4,0.1,0.8,0.2,1.2,0.3c-0.2,0-0.7,0-1,0c0.1,0.9,0.5,1.9,1.4,2.4c-0.1,0.1-0.2,0.3-0.2,0.4c0.6,0.6,1.4,0.7,2.2,0.6
		c0.3,0.3,0.7,0.6,1.2,0.7c-0.6,0.2-1.2,0.6-1.8,0.2c-1.1-0.6-2.1-1.4-3.2-2.1c-0.2-0.8-0.3-1.5-0.3-2.3
		C182.6,71.6,182.8,71.5,182.9,71.4z M183.2,77.1c-0.3-0.5-0.6-1.1-0.7-1.7C183.1,75.7,183.1,76.5,183.2,77.1z M182,73.1
		c0,0.7,0.6,1.2,0.7,1.8c-0.4,0.3-0.7-0.2-1-0.4C181.3,74,181.7,73.5,182,73.1z M183.3,77.7c-0.1,0.4-0.2,0.7-0.4,1.1
		c-0.7-1.2-1.1-2.6-1.5-3.9C182.4,75.6,182.1,77.1,183.3,77.7z M181.6,77.3c0.3,0.8,0.7,1.7,1.4,2.2c0.4,0.2,0.8-0.3,1.1-0.5
		c-0.3,0.2-0.4,0.7-0.8,0.7c-1,0.2-1.3-1-1.6-1.7c-0.1,0.1-0.3,0.2-0.4,0.3c0.1,0.6,0.5,1,0.8,1.6c-0.6-0.1-0.9-0.8-1.2-1.3
		c-0.6-1-0.7-2.2-0.9-3.4c0.4,0.8,0.6,1.7,1,2.4C181.3,78,181.4,77.5,181.6,77.3z M180.7,75.3c0.5,0.5,0.6,1.1,0.5,1.8
		C181,76.5,180.8,75.9,180.7,75.3z M181.5,70.4c-0.2,0.5-0.2,1.1-0.7,1.4c0.1-1.2,0.7-2.3,1.4-3.2c0.2-0.3,0.5-0.4,0.8-0.5
		C182.4,68.8,181.8,69.5,181.5,70.4z M178.6,70.7c0,1,0.1,2.1,0.1,3.1c-0.6-1.9-0.6-3.9-0.4-5.9c0.7,0.7,0.5,1.8,1,2.5
		c0.3-1,0.5-2.1,1.3-2.8c0.5-0.3,1,0,1.3,0.3c-0.3,0-0.7-0.3-1,0c-1.1,0.8-1.2,2.3-1.7,3.4l0-0.6C179.1,70.7,178.8,70.7,178.6,70.7z
		 M180.9,68.5c0,0.2,0.1,0.6,0.2,0.9c-0.5,1.1-1,2.2-0.9,3.5c0.1-0.1,0.4-0.3,0.6-0.4l0.1-0.2L181,72c0,0.5-0.2,1-0.3,1.5
		c-0.2-0.2-0.4-0.3-0.6-0.5l-0.2,0.5C179.8,71.8,180,70,180.9,68.5z M183,68.1c0.3,0,0.6,0,0.8,0.3C183.5,68.3,183.3,68.2,183,68.1z
		 M184.2,68.2c-0.2-0.2-0.4-0.4-0.5-0.6c-0.4,0-0.9,0-1.3,0.1c-0.2-0.2-0.4-0.4-0.6-0.6c-0.6-0.1-1.1-0.1-1.7,0.1
		c0.1,0.4,0,0.5-0.4,0.5c-0.1-0.4,0-0.5,0.4-0.5c0.7-0.6,1.2-1.5,1.6-2.4c0.2-0.5,0.7-0.6,1.1-0.7c0.1,0.4,0.3,0.8,0.4,1.1
		c0.6,0.4,1.3,0.5,1.9,0.3C185.3,66.5,184.9,67.4,184.2,68.2z M183.5,60.7c-0.1,0.9-0.3,1.9-0.6,2.8c-0.3,0.1-0.5,0.2-0.8,0.3
		C182,62.6,182.3,61.2,183.5,60.7z M186.2,66.5c0.2-0.9,0.4-1.9,0.4-2.8c0.6,0.9-0.1,2-0.1,2.9c-0.5,0.9-0.1,2.6-1.5,2.6
		c0.3-0.5,0.6-1.1,1.1-1.4c0-0.4,0-0.9-0.2-1.2c-0.1,0.2-0.2,0.7-0.3,0.9c0.1-0.7,0-1.5,0.4-2.1C186,65.7,185.7,66.4,186.2,66.5z
		 M186,64.8c-0.5,0.4-1.2,0.2-1.8,0.2c-0.2-0.2-0.5-0.3-0.7-0.5c-0.1-1.5,0.5-2.9,0.5-4.4c-0.1-3.3-0.5-6.5-1.1-9.7
		c-0.1-0.5-0.1-1.1,0-1.7c0.5,0,1,0,1.5,0c0.7,0.4,0.5,1.2,0.5,1.9c-0.3,1.7-0.3,3.5,0,5.3c0.1,2.3,0.3,4.6,0.7,6.9
		C185.7,63.5,186.2,64.2,186,64.8z M190.5,38.8c-0.9,3-0.7,6.1-0.7,9.2c0.2,3.2,0.1,6.5,0.2,9.7c-0.1,1.3,0,3-1.2,3.8
		c-1.2,0.2-2-1-3-1.5c-0.5-1.3-0.2-2.8-0.4-4.1c-0.4-2.4,0.1-4.7,0-7.1c0.2-1.1,0.3-2.2,0.4-3.3c0.1-1-0.1-2.1,0.5-3
		c-0.2-0.1-0.5-0.2-0.6-0.3c-0.5,2.1-0.2,4.3-0.8,6.3c-0.3-0.3-0.4-0.7-0.4-1.2c0.2-2,0.7-4,1.2-6c0.1,0.1,0.2,0.3,0.4,0.4
		c0.3-0.3,0.5-0.5,0.8-0.8c0,2.7,0.2,5.4,0.1,8.1c0,2,0.2,4,0.4,5.9c0.1,0,0.2,0.1,0.3,0.1c0-1.9-0.1-3.9-0.1-5.8
		c0-1.7-0.3-3.5-0.1-5.2C187.6,42.1,188.8,40.1,190.5,38.8z M184.6,18.7c0.2-3.4,1.7-6.8,4.4-8.9c-0.1,2.5-0.4,5-0.5,7.5
		c0,2,0,4.1-0.1,6.1c-0.3,2.3,0.1,4.6-0.1,6.9c-0.1,3.3-0.1,6.5,0.2,9.8c-0.3,0.9-1,1.6-1.3,2.5c0-0.7,0-1.4-0.1-2
		c-0.2,0-0.7,0.1-0.9,0.1c0.1-1.8,0.5-3.5,0.7-5.3c0.1-0.9,0.7-1.7,0.4-2.6c-0.3-1-0.6-1.9-0.7-2.9c-0.5-0.5-1.1-0.8-1.8-0.9
		C184.6,25.4,184.6,22,184.6,18.7z M183.8,32c0.2,0,0.7,0.2,0.9,0.2c0-0.7,0.1-1.3,0.1-2c0.2,0.3,0.5,0.5,0.6,0.9
		c0.1,0,0.4,0,0.6,0.1c0-0.2-0.1-0.7-0.1-0.9c0.1,0.8,0.4,1.5,0.8,2.2c0.5,0.6,0,1.4-0.1,2.1c-0.2-0.2-0.4-0.4-0.6-0.6
		c0.2-0.2,0.5-0.5,0.7-0.7c-0.3-0.5-0.4-1-0.5-1.6c-0.4,0.2-0.8,0.3-1.2,0.4c0.4,0.3,0.8,0.6,1.2,0.9l-0.2,0
		C185.3,32.4,184.5,32.3,183.8,32z M184.7,32.8c0.4,0.3,1,0.5,1,1.1c0,1.6-0.5,3.2-0.9,4.7C184.9,36.6,184.7,34.7,184.7,32.8z
		 M183.6,44.5c0.6-1.8,1-3.8,1.6-5.6c0.4-1.3,0.8-2.7,0.9-4.1h0.3c0,3.6-1.5,7-2.3,10.5c-0.2,1-1,2-0.3,2.9
		c-0.3,0.1-0.7,0.2-1.1,0.3C182.7,47.1,183.2,45.8,183.6,44.5z M173.4,64.3c1.3-0.1,2.5,0.4,3.8,0.8c-1.1-1.2-2.6-2-3.7-3.3
		c1.7-0.2,3.3,0.4,4.8,1.1c-1.2-1.6-3.8-1.8-4.8-3.8c1.3,0.1,2.6,0.5,3.9,0.8c-0.6-0.8-1.6-1.1-2.4-1.8c-0.7-0.6-1.4-1.3-1.9-2.1
		c1.6,0.2,3.1,0.8,4.6,1.6c-0.5-0.8-1.2-1.4-1.8-2.1c-0.7-0.8-1.1-1.9-1.6-2.9c1.2,0.4,2.5,0.9,3.3,2c0.4,0.4,0.6,1,1.1,1.2
		c-0.3-1.1-1-2.1-1.3-3.2c-0.6-1.6-0.5-3.3-0.3-5c0.9,0.8,1.5,1.9,1.7,3.1c0.3,1.2,0.3,2.5,1.1,3.5c-0.1-1.3-0.5-2.5-0.5-3.8
		c0-1.9-0.2-3.8,0.7-5.6c1.2,2,0.4,4.5,0.8,6.7c0.2,1,0,2.3,0.7,3.1c0.1-1.9-0.4-3.7-0.3-5.6c0-2.1-0.1-4.6,1.6-6.1
		c0.1,0.4,0.2,0.8,0.3,1.1c-0.4,1.4-1.1,2.7-1.1,4.2c0.3,3.1,1.1,6.1,1.1,9.1c0.1,0.9,0.2,1.8,0.2,2.6c-1.5,0.6-2,2.3-1.9,3.8
		c-0.4,1.2-1,2.4-2,3.1c-0.7-0.4-1.5-0.3-2.3,0C175.8,66.4,174.3,65.7,173.4,64.3z M177.1,69.3c0-0.9,0.3-2.2,1.4-2.2
		c0.7,0.1,0.8,0.8,1,1.4c-0.5-0.2-0.6-0.7-0.9-1.2c-1.6,0.3-0.9,2.3-1,3.5C177,70.7,177.2,69.8,177.1,69.3z M177.4,71.2h0.2
		c0.1,0.9,0.4,1.7,0.6,2.6C177.6,73.1,177.6,72.1,177.4,71.2z M179.4,74.2c0-0.3-0.1-0.6-0.1-0.8c-0.3-0.5-0.2-1.2-0.2-1.8h0.2
		c0,0.8,0.1,1.6,0.3,2.5c0.4,0.1,1.1-0.3,1.4,0.2c0.3,1-1.1,0.6-1.7,0.7c-1.7-0.2-3.5,0.2-5.1-0.2C176,74.6,177.7,74.1,179.4,74.2z
		 M174.3,74.2c-0.2,0.1-0.4,0.3-0.5,0.4c0.2,0.3,0.4,0.7,0.6,1c-0.4,0-0.7,0.1-1.1,0.1c0-0.6,0-1.3-0.2-1.9c0.3-0.1,0.6-0.2,0.9-0.3
		C174.1,73.7,174.2,74,174.3,74.2z M173.5,73.3c-0.2,0-0.7,0.1-0.9,0.1c0-0.1,0-0.3,0-0.4l-0.1,0.5c-0.3-0.4-0.7-0.9-0.9-1.3
		C172.2,72.4,173,72.7,173.5,73.3z M171.1,74.2c0.2-0.2,0.4-0.4,0.6-0.6c0.3,0.2,0.6,0.4,1,0.6c0,0.5,0,1,0,1.5
		c-0.3,0.1-0.5,0.2-0.8,0.4c0,0.1-0.1,0.4-0.1,0.5c-0.1-0.3-0.4-0.5-0.7-0.6C171.1,75.3,171.1,74.7,171.1,74.2z M171.1,73.4
		c-0.3,0.1-0.6,0.2-0.8,0.3c-0.1-0.8-0.3-1.5-0.4-2.3C170.3,72.1,170.7,72.7,171.1,73.4z M168.8,74.2c0.3-0.2,0.6-0.3,0.7-0.7l0.1,0
		c0,0.5,0.5,0.6,0.9,0.7c0.2,0.6,0.2,1.1,0,1.7c-0.5,0.1-0.9,0.4-1,0.9c0-0.1-0.1-0.3-0.2-0.4c-0.2-0.1-0.5-0.2-0.7-0.3
		C168.8,75.4,168.9,74.8,168.8,74.2z M165.3,73.8c0.6,0.2,1.2,0.4,1.6-0.2c0.1,0.1,0.2,0.4,0.3,0.5c0.3,0,0.7,0,1,0.1
		c0,0.5,0.1,1,0,1.5c-0.5,0.3-1.5,0.1-1.4,0.9c-0.3-0.7-1-1-1.8-0.9C165.3,75.1,165.3,74.4,165.3,73.8z M162,73.4
		c0.3,0,0.7,0.1,1,0.1c0.2-0.2,0.3-0.4,0.5-0.5c0,0.7,0.8,0.6,1.2,0.6c0,0.6,0,1.2,0,1.7c-0.1,0.1-0.3,0.2-0.4,0.2
		c-0.2,0-0.5-0.1-0.6-0.1c-0.2,0.2-0.5,0.4-0.7,0.6c-0.1-0.6-0.6-0.6-1.1-0.7C161.9,74.7,162,74,162,73.4z M159.9,72.7
		c0.5,0.2,0.9,0.4,1.5,0.5c0.2,0.6,0.1,1.3,0,1.9c-0.3,0-0.6,0-1,0c-0.1,0.2-0.4,0.8-0.6,0.2c-0.3-0.7-1.2-0.4-1.8-0.6
		c0-0.5,0-1.1,0.1-1.5C158.7,72.9,159.4,73.1,159.9,72.7z M154.3,71.9c1-0.3,2-0.5,3-0.8c0.5-0.2,0.9,0,1.4,0.2
		c-0.1,0.6,0,1.3-0.6,1.6c-1.3-0.4-2.8,0.3-4.2,0.2C154,72.7,154.1,72.3,154.3,71.9z M153.6,72.5c0.1,0.4-0.4,0.8-0.8,0.7
		C152.6,72.8,153.2,72.3,153.6,72.5z M151.1,73.8c0.5,0,0.9-0.1,1.4-0.1l0.1,0.2c0.3-0.1,0.6-0.2,0.9-0.3c0.5,0,1.1-0.1,1.6-0.1
		c0,0.4,0,0.7,0,1.1c-0.5-0.1-1-0.1-1.6-0.2c-0.6-0.1-1.2-0.2-1.7,0.1c0.4,0.4,0.8,0.9,1.2,1.3c0.2-0.1,0.4-0.3,0.6-0.4
		c-0.2-0.2-0.7-0.5-0.9-0.7c0.3,0.1,0.6,0.3,0.9,0.5c0,0.3,0.1,0.6,0.1,0.9c0.7,0.4,1.3,0.9,2.1,0.9c1.1-0.1,2.1,0.6,3,1.2
		c1,0.7,1.9,1.9,1.7,3.2c-1,1.1-2.6,1.3-3.9,0.8c-2.5-0.8-3.3-3.6-5.3-5c-0.6-0.4-1.4-0.5-2.1-0.3c-0.4,0.3-0.8,0.9-0.4,1.4
		c0.7,0.8,1.9,0.6,2.9,0.7l0-0.4c-0.8-0.2-2.6,0.2-2.5-1c1.1-0.5,2.3,0.3,3,1.2l-0.1,0.1c-0.2,0.3-0.4,0.5-0.6,0.8
		c-1.2-0.2-2.3-0.5-3.3-1.1c0-0.6,0-1.3,0.5-1.7c0.6-0.5,1.4-0.8,2-1.3c0.4-0.4,0.7-0.9,1-1.4L151.1,73.8z M148.8,70.7
		c0.1-0.7,0.9-0.5,1.4-0.7c0.2-0.3-0.4-0.5-0.6-0.7c0.6-0.1,1,0.4,1.3,0.8C150.2,70.4,149.6,70.7,148.8,70.7z M132.3,70.2
		c2.1-0.1,4.3,0,6.4-0.6c2.4-0.7,4.8-1,7.2-1.6c0.9-0.2,1.9-0.6,2.8-0.5l0-0.3l0.1,0c0,0.2-0.1,0.5-0.1,0.7c0.7-0.3,1-1,1.4-1.6
		c0.3,0,0.6,0,0.9,0c0.1,0.1,0.3,0.4,0.4,0.5c0,0.4,0,0.9,0,1.4c0.2,0.2,0.4,0.5,0.5,0.7c-0.2,0.3-0.5,0.5-0.7,0.8
		c-0.4-0.4-0.8-0.8-1.2-1.1c-0.6-0.1-1.3,0-1.9,0.1c0,0.2-0.1,0.5-0.1,0.6c0.3,0,0.9-0.1,1.2-0.1c-0.7,0.3-1.8,0.4-2,1.3
		c-0.3,1,0.6,2,1.5,2.3c0.8,0.3,2.1,0.8,1.9,2c-0.5,0.7-1.4,1-2.1,1.4c-0.7,0.5-1.1,1.4-0.9,2.3c0.1,0.2,0.4,0.5,0.5,0.6
		c-2.6,0.3-5.2-0.2-7.7-0.8c-1.6-0.4-3.3-0.4-4.6-1.5c-0.8-0.8-2-0.9-3.1-0.5c-0.8-0.4-1.6-0.1-2.3,0.3c-4.8,0.5-9.6-0.1-14.5,0
		c0.1-0.8,0.1-1.5,0.1-2.3c4-0.8,8.2-0.9,12.3-1c1.1-0.1,2.1,0.7,3.2,0.4c0.9-0.2,1.8-0.1,2.7-0.2c1.2-0.6,2.3-1.6,3.6-1.9
		c2.4-0.6,4.9-1.2,7.4-1.7c0.7-0.2,1.4,0,2,0.1c0.3-0.2,0.6-0.6,0.4-1c-0.7,0.7-1.8,0.2-2.6,0.4c-2.5,0.5-5.1,1.1-7.6,1.8
		c-1.1,0.3-2,1-2.9,1.6c-0.6,0.4-1.4,0.3-2,0.3c0.1-0.1,0.4-0.4,0.6-0.6C132.8,71.7,132.2,71,132.3,70.2z M123.4,70.5
		c2.8,0,5.6-0.6,8.3,0l0,0.2c-0.8-0.2-1.5,0.2-2.2,0.3c-0.8,0-1.6-0.3-2.5-0.3c-1.2,0-2.4,0.2-3.6,0.3c-2.6,0.1-5.2,1.4-7.9,1
		C118.1,71.2,120.8,70.8,123.4,70.5z M127.9,71.4c-1.3,0.2-2.6,0-3.9,0.3c-0.8,0.2-1.7,0.1-2.5,0C123.6,71.5,125.8,71,127.9,71.4z
		 M121.5,72.3c2.8-0.3,5.7-0.2,8.5-0.9c0.6-0.1,1.3-0.7,1.8-0.2c0.7,0.5,0.7,1.5-0.1,1.9c-1,0.3-2-0.3-3.1-0.3
		c-4.3,0.1-8.7,0.1-12.9,0.9c-0.1-0.4-0.3-0.8-0.4-1.2C117.4,72.6,119.5,72.4,121.5,72.3z M106.2,54.6c0.3-0.4,0.8-0.8,1.2-1.1
		c0.3,0.9,0.8,1.7,1.5,2.4c-0.4,0.3-0.8,0.6-1.2,0.9C107.3,56.1,106.8,55.3,106.2,54.6z M109.2,58.8c-0.3-0.5-0.6-1-0.9-1.5
		c0.3-0.3,0.5-0.8,1-0.7c0.4,0.4,0.7,0.8,1.1,1.3C109.9,58,109.5,58.4,109.2,58.8z M109.6,59.1c0-0.5,1.1-1.1,1.3-0.5
		c-0.1,0.1-0.4,0.2-0.6,0.3C110.1,59,109.7,59.5,109.6,59.1z M111.8,63.8c0.2-1.5-1-2.7-1.6-3.9c-0.3-0.3,0.5-0.9,0.7-0.5
		c0.8,1.3,2,2.6,1.8,4.2c0,1.7-1,3.1-1.5,4.6c-0.2-0.1-0.6-0.2-0.8-0.2C110.9,66.5,111.8,65.3,111.8,63.8z M109.8,68.2
		c0.4,0,0.8,0.3,1.2,0.4c-0.2,0.5-0.3,1-0.6,1.5c-0.6,0.1-1.3,0.3-1.9,0.6C109,69.9,109.3,69,109.8,68.2z M107.5,70.8
		c0.2,0.2,0.3,0.5,0.5,0.7c2.3-1.6,6.2-0.9,7.2,1.9c0.4,1.5,0.3,3.4-0.6,4.7c-1.5,2.1-4.8,2.4-6.7,0.6c0,0.4,0,0.9-0.6,0.9
		c0.1-0.4,0.2-0.7,0.4-1c-2.2-1.7-1.8-5.2,0.1-7.1c-0.1,0-0.4-0.1-0.5-0.2L107.5,70.8z M106.5,71c0.3,0.1,0.5,0.4,0.5,0.7
		C106.9,72.4,106,71.2,106.5,71z M106.1,73.4c-0.2-0.6-0.2-1.3,0-1.8C106.4,71.9,106.4,73.1,106.1,73.4z M104.8,67
		c0.9,0.8,1.2,2.1,1.4,3.2C105.6,69.3,105.2,68.1,104.8,67z M105.2,77c0.3,0.5,0.2,1,0.3,1.6c0.2,0,0.5-0.1,0.6-0.1
		c0-0.3-0.1-1-0.1-1.3c0.5,0.7,0.3,1.8-0.2,2.5c0.1-0.4-0.2-0.8-0.4-1.1c-0.1,0.4-0.2,0.7-0.4,1C105.3,78.7,105.3,77.8,105.2,77z
		 M105.1,79.8c0.1,0.4,0.2,0.8,0.3,1.1c-0.7-1-1.2,0.7-1.2,1.3c0.4-0.2,0.7-0.6,0.9-1c-0.1,0.4-0.3,0.8-0.4,1.3
		c-1,0.3-1.6,1.2-2.4,1.9c-1.2,0.6-2.6,0.6-3.8,0.5c-1.4-0.1-2.9-0.1-3.9-1c0.8,0,1.5,0,2.2,0c0.9-1.2,2.6-0.5,3.7-1.3
		c1.1-0.6,1.6-1.7,2.7-2.3C103.8,79.8,104.5,79.9,105.1,79.8z M100.8,81.6c-0.7,0.6-1.6,0.7-2.4,0.8c0.4-0.5,0.5-1.6,1.4-1.4
		c-0.3-0.2-0.6-0.5-0.9-0.7c0.1,0,0.3,0,0.4,0.1c0-0.2-0.1-0.5-0.1-0.7c0.1,0.3,0.2,0.6,0.2,0.8c0.2,0,0.5,0,0.7,0
		c0-0.2,0-0.5,0.1-0.6c0.8,0,1.6,0,2.5,0C102,80.3,101.4,81,100.8,81.6z M97.5,67.9c0.4,0.6,0.8,1.2,1.2,1.9
		c-0.2,0.2-0.3,0.3-0.5,0.5c0,0.5,0.3,1,0.9,1.1c0,0.2,0,0.6,0,0.8c0.2,0,0.6,0,0.8,0c0,0.5,0,0.9,0,1.3c0.7-0.2,0.3-1.1,0.4-1.7
		c0,0.5,0.1,1.1,0.1,1.6c-0.1,0.2-0.3,0.3-0.4,0.5c-0.2-0.3-0.4-1.5-0.9-0.7c-0.1,1.4-0.1,2.9,0,4.3c0.1,0,0.3,0.1,0.4,0.2
		c0-0.5,0.3-1.4,0.8-0.6l-0.5,0c-0.1,0.6-0.1,1.1-0.3,1.6l0.5,0c0.1-0.5,0.1-0.9,0.2-1.4c0,0.6,0,1.3-0.3,1.9c-0.2,0-0.5,0-0.7,0
		c0-0.3,0.1-0.8,0.2-1c-0.6,0.1-0.6,0.5-0.6,1c-0.2,0.2-0.3,0.4-0.5,0.6c0.1,0.3,0.1,0.6,0.2,1c-0.3,0.7-0.7,1.3-1.2,1.8
		c0-0.6-0.1-1.1,0-1.7c0.3-1,1.2-1.9,1.1-3.1c0-1.8,0-3.7,0-5.5c0-1-0.7-1.7-1.2-2.4C97.4,69.2,97.4,68.6,97.5,67.9z M98,72.2
		c-0.1,0-0.4,0-0.6,0c0,0.3,0,0.7-0.1,1c-0.5-1-1-2-1.6-3c0.5,0,0.9,0,1.4-0.1C97.4,70.8,97.8,71.5,98,72.2z M96.8,67.4
		c0.1,0.7,0.1,1.5,0.1,2.2c-0.5,0-1,0.1-1.5,0.1c0.1-0.8,0.2-1.7-0.3-2.3C95.6,67.4,96.2,67.4,96.8,67.4z M93.1,64.9
		c-1.3,0.1-2.5,0-3.8,0C90.4,64.2,92,64.1,93.1,64.9z M89.1,66.2c0-0.3,0-0.6,0-0.9c1.3,0.1,2.7,0.2,4,0.1c0,0.3,0.1,0.6,0.1,0.8
		C91.9,66.1,90.5,66.1,89.1,66.2z M91.2,67.2c-0.1,0.4-1.1,0.4-1.3,0C90.4,67,90.9,67,91.2,67.2z M74.4,62.5
		c0.3-0.2,0.6-0.5,0.8-0.7c0.2,0.6,0.2,1.2,0.1,1.7c0.1,1.2,0.1,2.4,0.2,3.6c-0.4-0.1-0.7-0.1-1.1-0.2C74.4,65.5,74.4,64,74.4,62.5z
		 M72.2,68.3c1.2,0,2.2-0.9,3.4-0.8c3.9,0.3,7.8,0,11.6,0.2c2.6,0.3,5.1,0.2,7.7,0.2c0,0.5,0.1,0.9,0.1,1.4c-3.1,0-6.1,0.1-9.2-0.2
		c-3.4,0.1-6.8,0-10.3,0.1c-0.6,0-1.1-0.4-1.7-0.6c-0.5-0.1-1,0-1.6,0V68.3z"/>
	<path class="st0" d="M109.8,77.7c0.4,0.4,0.8,0.9,1.4,1.1c0.1-0.6-0.4-0.8-0.8-1.2c-0.8-0.7-1.4-1.7-2.4-2
		C108.4,76.5,109.2,77,109.8,77.7z"/>
	<path class="st0" d="M110.9,75.9c-0.5-0.8-1.1-1.8-2.1-1.9C109.3,74.7,109.9,75.7,110.9,75.9z"/>
	<path class="st0" d="M102.4,72.2c-0.2,0.3-0.2,1,0.1,1C102.7,72.9,102.8,72.2,102.4,72.2z"/>
	<path class="st0" d="M5.1,141.6c-0.1,0-0.3,0.1-0.3,0.2c0,0.1,0.1,0.3,0.2,0.3c0.1,0,0.1,0.1,0.1,0.1c0,0.1-0.1,0.2-0.1,0.2
		c-0.1,0.1-0.2,0.1-0.2,0.1c-0.4,0-0.7-0.4-0.6-0.8l0,0l0-133.1l0,0c0-0.4,0.2-0.6,0.6-0.7c0.1,0,0.2,0,0.2,0.1C5,8,5.1,8.1,5.1,8.2
		c0,0.1,0,0.1-0.1,0.1c-0.1,0-0.2,0.1-0.2,0.3c0,0.1,0.1,0.2,0.3,0.2c0.3,0,0.6-0.3,0.5-0.7c0-0.2-0.1-0.4-0.3-0.6
		C5.1,7.4,4.9,7.4,4.7,7.4C4,7.5,3.6,8,3.6,8.6l0,133c-0.1,0.7,0.4,1.3,1.1,1.3c0.2,0,0.4,0,0.6-0.2c0.2-0.1,0.3-0.3,0.3-0.6
		c0,0,0,0,0-0.1C5.6,141.9,5.4,141.6,5.1,141.6z"/>
	<path class="st0" d="M5.6,10.1c-0.1,0-0.2,0.1-0.2,0.2V140c0,0.1,0.1,0.2,0.2,0.2c0.1,0,0.2-0.1,0.2-0.2V10.4
		C5.9,10.2,5.8,10.1,5.6,10.1z"/>
	<path class="st0" d="M235.9,9.5c0.1-0.7-0.4-1.3-1.1-1.3c-0.2,0-0.4,0-0.6,0.2c-0.2,0.1-0.3,0.3-0.3,0.6c0,0,0,0,0,0.1
		c0,0.3,0.2,0.6,0.5,0.6c0.1,0,0.3-0.1,0.3-0.2c0-0.1-0.1-0.3-0.2-0.3c-0.1,0-0.1-0.1-0.1-0.1c0-0.1,0.1-0.2,0.1-0.2
		c0.1-0.1,0.2-0.1,0.2-0.1c0.4,0,0.7,0.4,0.6,0.8l0,0l0,133.1l0,0c0,0.4-0.2,0.6-0.6,0.7c-0.1,0-0.2,0-0.2-0.1
		c-0.1-0.1-0.1-0.1-0.1-0.2c0-0.1,0-0.1,0.1-0.1c0.1,0,0.2-0.1,0.2-0.3c0-0.1-0.1-0.2-0.3-0.2c-0.3,0-0.6,0.3-0.5,0.7
		c0,0.2,0.1,0.4,0.3,0.6c0.2,0.1,0.4,0.2,0.6,0.2c0.7-0.1,1.1-0.6,1.1-1.2L235.9,9.5z"/>
	<path class="st0" d="M234.1,140.8V11.2c0-0.1-0.1-0.2-0.2-0.2s-0.2,0.1-0.2,0.2v129.7c0,0.1,0.1,0.2,0.2,0.2S234.1,141,234.1,140.8
		z"/>
	<path class="st0" d="M231.2,3.9L8.4,3.9C7.7,3.8,7.2,4.2,7.2,4.9c0,0.2,0,0.4,0.2,0.6c0.1,0.2,0.3,0.3,0.6,0.3
		c0.3,0,0.6-0.2,0.7-0.5C8.6,5.2,8.5,5,8.4,5C8.2,5,8.1,5.1,8.1,5.2C8.1,5.3,8,5.4,8,5.3c-0.1,0-0.2-0.1-0.2-0.1
		C7.7,5.1,7.6,5.1,7.7,5c0-0.4,0.3-0.7,0.7-0.6l0,0l222.9,0l0,0c0.4,0,0.8,0.2,0.8,0.6c0,0.1,0,0.2-0.1,0.2
		c-0.1,0.1-0.1,0.1-0.2,0.1c-0.1,0-0.1,0-0.1-0.1c0-0.1-0.1-0.2-0.3-0.2c-0.1,0-0.2,0.1-0.2,0.3c0,0.3,0.3,0.5,0.6,0.5
		c0,0,0,0,0.1,0c0.2,0,0.4-0.1,0.6-0.3c0.1-0.2,0.2-0.4,0.2-0.6C232.5,4.3,231.9,3.8,231.2,3.9z"/>
	<path class="st0" d="M229.6,5.6H10.1c-0.1,0-0.2,0.1-0.2,0.2c0,0.1,0.1,0.2,0.2,0.2h219.4c0.1,0,0.2-0.1,0.2-0.2
		C229.8,5.8,229.7,5.6,229.6,5.6z"/>
	<path class="st0" d="M231.6,144.4c-0.3,0-0.6,0.2-0.7,0.5c0,0.1,0.1,0.3,0.2,0.3c0.1,0,0.3-0.1,0.3-0.2c0-0.1,0.1-0.1,0.1-0.1
		c0.1,0,0.2,0.1,0.2,0.1c0.1,0.1,0.1,0.2,0.1,0.2c0,0.4-0.3,0.7-0.7,0.6l0,0l-221.9,0l0,0c-0.4,0-0.8-0.2-0.8-0.6
		c0-0.1,0-0.2,0.1-0.2c0.1-0.1,0.1-0.1,0.2-0.1c0.1,0,0.1,0,0.1,0.1c0,0.1,0.1,0.2,0.3,0.2c0.1,0,0.2-0.1,0.2-0.3
		c0-0.3-0.3-0.5-0.6-0.5c0,0,0,0-0.1,0c-0.2,0-0.4,0.1-0.6,0.3c-0.1,0.2-0.2,0.4-0.2,0.6c0.1,0.6,0.7,1.1,1.3,1.1l221.8,0
		c0.6,0.1,1.1-0.4,1.2-1.1c0-0.2,0-0.4-0.2-0.6C232,144.5,231.8,144.4,231.6,144.4z"/>
	<path class="st0" d="M10.7,144.3c0,0.1,0.1,0.2,0.2,0.2h218.4c0.1,0,0.2-0.1,0.2-0.2c0-0.1-0.1-0.2-0.2-0.2H10.9
		C10.8,144.1,10.7,144.2,10.7,144.3z"/>
</g>
</svg>
