<?xml version="1.0" encoding="utf-8"?>
<!-- Generator: Adobe Illustrator 26.0.3, SVG Export Plug-In . SVG Version: 6.00 Build 0)  -->
<svg version="1.1" id="Слой_7" xmlns="http://www.w3.org/2000/svg" xmlns:xlink="http://www.w3.org/1999/xlink" x="0px" y="0px"
	 viewBox="0 0 239.5 150.2" style="enable-background:new 0 0 239.5 150.2;" xml:space="preserve">
<style type="text/css">
	.st0{fill:#020202;}
</style>
<g>
	<path class="st0" d="M230.1,78.7c-1.2,2.4-3,4.4-4.6,6.5c-1.4,1.9-3.1,3.6-3.9,5.8c0.7-0.6,1.2-1.3,1.7-2c0.2,3-0.3,6.1-0.4,9.1
		c0,1.5-0.6,3-0.7,4.5c-0.1,1.6-0.5,3.2-0.8,4.8c0,0.5-0.4,0.8-0.7,1.1c0,0.6-0.1,1.2-0.2,1.8c0,0.2-0.1,0.4-0.1,0.6
		c-0.5-1.2-1.1-2.3-1.3-3.6c0.1,0.2,0.2,0.5,0.3,0.7c0.1-0.2,0.4-0.6,0.5-0.8c-0.8-1.6-1.8-3.1-2.6-4.7c-1.1-2.2-2.3-4.4-3.6-6.4
		c-0.8-1.2-1.4-2.6-2.5-3.6c-0.3-0.3-0.5-0.6-0.7-1c3.5-1.8,6.8-3.7,10.1-5.9c0.8-0.5,1.4-1.5,2.4-1.7c0.1-1,1.1-1.6,1.2-2.6
		c1.2-4.1,2.6-8.2,3.7-12.3c0.1-0.7,0.5-1.5,0.1-2.2c-0.4,0.6-0.5,1.2-0.7,1.9c-0.5,2.1-1.4,4.1-2.1,6.1c-0.8,2.7-1.7,5.4-2.8,8
		c-0.5,1-1.4,1.7-2.3,2.4c-3.5,2.4-7.1,4.6-10.9,6.3c1.3-2.7,2.5-5.4,3.5-8.2c1.1-3,2.5-6,2.1-9.3c1.7-0.9,3.4-1.8,5.1-2.8
		c2.2-1.3,4.3-2.7,6.6-3.7c0.7-0.3,1.4-0.7,2-1.2c-0.9-1.4-2.4-2.2-3.8-3.1c-2.3-1.6-4.5-3.2-6.7-4.9c-1.7-1.2-3.5-2.3-5.5-2.9
		c-1.2-0.6-2.6-0.8-3.9-0.4c1.1-2.8,2.6-5.4,3.6-8.2c0.8-2.3,1.8-4.4,2.7-6.6c0.9-2.1,1.4-4.3,2-6.5c0.8-3,1.3-6.2,0.7-9.2
		c-0.2,1.6,0,3.2-0.2,4.8c-0.3,2.6-1.1,5.1-1.9,7.6c-0.8,2.5-1.8,4.8-2.9,7.1c-0.9,2.1-1.5,4.2-2.5,6.2c-0.8,1.7-1.6,3.3-2.1,5.1
		c-0.6,0.3-1.3,0.5-1.9,0.8c-0.5-2.8-1.4-5.5-2.3-8.2c0.5,0.4,1,0.8,1.6,1.1c0-0.2,0.1-0.6,0.1-0.7c-3.2-2.8-7.1-4.6-10.9-6.6
		c-1.2-0.7-2.7-1-4.2-1c-1.4,0.3-2.5,1.1-3.7,1.7c-2.4,1.1-4.5,2.7-6.6,4.2c-3.9-1-8-1.1-12-0.6c2.2-3.3,3.3-7.2,4.3-11.1
		c0.9-3.9,1-7.9,1.3-11.8c0.1-2.3,0.2-4.6-0.3-6.8c-0.5-2.3-0.6-4.9-2.1-6.8c-0.6-0.9-1.6-1.2-2.6-1.2c0.7,0.4,1.6,0.6,2.2,1.2
		c0.8,1,1.4,2.2,1.6,3.4c0.5,2.8,1.2,5.6,1,8.5c-0.3,5.3-0.3,10.8-2,16c-0.9,3-1.8,6.2-3.7,8.8c-1.5,0.4-3,0.7-4.5,1.1
		c-0.5-1.3-1.8-2.4-1.5-3.9c0.2-1.4-0.4-2.8,0.1-4.2c-0.4-2.6-1.2-5.3-2.7-7.5l-0.1,0.3c0.1,0.3,0.2,0.6,0.3,1
		c-0.9-1.1-1.6-2.3-2.5-3.4c-1.2-1.4-2.2-3.1-3.7-4.2c0.7,1.1,1.5,2.2,2.3,3.2c2,2.5,3.4,5.5,4.4,8.6c0.7,2.3,1.4,4.6,1.5,7
		c-2.2-2.7-4.8-5.1-7.9-6.6c-0.5-0.3-1.3-0.5-1.5-1.1c-1.2-2.6-3.4-4.6-5.8-6.2c-1.3-0.9-2.9-1.2-4.4-1.7c-1.8-0.5-3.7-0.6-5.6-0.7
		c-1.5,0-3,0.5-4.5,0.8c-1.5,0.3-2.9,1.1-4.2,1.9c-1.3,0.7-2.4,1.7-3.4,2.7c-2.4,2.4-4.4,5.5-4.8,8.9c0.7-1.1,1-2.5,1.6-3.6
		c0.2,0.3,0.4,0.5,0.5,0.8c-0.3,1.6-1.5,2.7-2.4,3.9c-1.7,1.9-2.9,4.2-4,6.5c-1,2-1.4,4.2-2,6.3c-0.8-2.2-1.8-4.4-2.1-6.8
		c1.6-0.4,3.4-0.7,4.9-1.3c-1.7-0.2-3.4,0.6-5.1,0.8c0.1-1.7-0.1-3.3-0.2-5c-0.1,0-0.3,0.1-0.5,0.1c0,0.5,0,1.1,0,1.6
		c-0.6,0.1-1.3,0.3-1.9,0.5c-0.4,2.4-0.4,4.9-0.9,7.3c0.8,0.6,1.6,1.2,2.4,1.8c-0.4,1.6-0.7,3.2-1.4,4.6c-1,2.4-1.9,4.9-3.5,7
		c-0.1-1.2-0.3-2.5-0.5-3.7c-1.1,1.2-2.6,1.9-3.8,3.1c0.2,0,0.5,0.1,0.7,0.1c-0.1,1.3,0,2.5,0.1,3.8c-0.7-0.1-1.3-0.2-2-0.4
		c-1.6-0.5-2.7-2-3.5-3.4c0-1.6,1.4-3.1,0.8-4.7c-0.4-1.3-1-2.5-1.6-3.7c-0.7,1.1-1.1,2.4-1.4,3.7c-0.8-2.2-1.2-4.5-1.2-6.9
		c-0.1-2.6-0.4-5.2-0.3-7.8c0.6-0.1,1.2-0.1,1.7-0.2c0.1-2.1,0.2-4.2,0.6-6.2c-0.4-0.4-0.9-0.9-1.3-1.4c0-1,0.3-1.9,0.4-2.9
		c0.2-3.1,1.6-5.9,2.8-8.7c0.2,1,0.4,2,0.8,2.9c0.9-0.7,1.7-1.5,2.4-2.4c0.3-0.3,0.2-0.7,0.2-1c0-1.2,0-2.5-0.2-3.7
		c0.6-0.4,1.2-0.9,2-0.7c1.4,0.4,2.8,1.1,3.9,2.1c-0.2,1.6-1,3.1-1.1,4.6c0.8,1.4,1.8,2.6,2.3,4.2c0.8-1,1.5-2.2,1.9-3.4
		c-0.8,0.7-1.2,1.7-1.8,2.6c-0.5-1.2-1.3-2.3-2.1-3.4c0.4-1.4,0.8-2.8,1.2-4.2c1.5,1.8,2.5,3.9,3.1,6.2c0.8,3.1,1.1,6.4,1,9.6
		c0.2,0.9-0.3,2,0.4,2.8c0.2-3.8,1.5-7.6,3.8-10.7c1.5,0.8,3.1,1.6,4.7,2.4c1.4-2.2,3.2-3.9,5.1-5.6c-1.2-1.3-2.3-2.7-3.4-4.1
		c0.8-0.4,1.6-0.7,2.3-1.2c3.5-1.9,7.3-3.4,11.3-3.8c1.2-0.1,2.4-0.1,3.6-0.1c-0.1,1.5-0.7,3.1,0,4.6c2.3,0.5,4.7,0.6,7.1,1.2
		c0.7-1.4,1.5-2.8,2.1-4.4c1.5,0.5,2.9,1.1,4.3,1.8c2.5,0.9,4.4,3.1,5.8,5.3c0.3-0.1,0.6-0.1,0.9-0.2c-0.4-0.5-0.8-0.9-1.1-1.4
		c0-1.1-0.2-2.2,0.3-3.2c1.4-3,2.9-5.9,4.2-9c1-2.4,2.2-4.7,3.9-6.6c0.7-0.9,1.9-0.9,2.9-0.8c-1.2-0.8-2.7-0.1-3.5,0.9
		c-1.1,1.4-2.1,2.9-2.9,4.5c-1.7,3.6-3.2,7.3-5.1,10.9c-0.3,1-0.4,1.9-0.2,2.9c-1.4-1.4-2.8-2.9-4.5-4c-1.5-1.1-3.3-1.8-4.9-2.8
		c-1.2-0.6-2.4-0.9-3.7-1.3c-2.3-0.8-4.8-0.9-7.3-1c-3.5,0.1-6.9,1.1-10.1,2.4c-2.2,0.9-4.1,2.2-6,3.5c-0.3-0.3-0.6-0.7-1-0.8
		c-2-0.7-4.2-0.6-6.3-0.9c-3.1-0.1-6.2-0.2-9.2-0.2c-1.1-0.2-2.3-0.3-3.3,0.4c-3,1.9-4.5,5.4-5.7,8.6c-1.1,2.8-1.5,5.9-2.2,8.9
		c-0.6-0.4-1-1.1-1.6-1.5c-2.3-1.6-4.6-3.1-6.9-4.7c-2.6-2-5.1-4.1-7.8-6c-2.1-1.8-4.4-3.3-6.6-5c-1.6-1.3-3.4-2.5-5.2-3.5
		c-0.6-0.4-1.3,0.1-1.9,0.4c-0.8,0.5-1,1.5-1.5,2.2c-1.3,2-2.3,4.2-3.5,6.3c-0.7,1.6-1.9,3-2.4,4.7c-1.2,2.6-2.7,5.1-3.9,7.7
		c-1.5,3.4-3.8,6.4-5.5,9.7c-1.2,2.4-2.6,4.6-3.9,7c-0.8,1.6-2.1,3-2.5,4.8c0.3,1,0.9,1.8,1.6,2.5c2.2,2,4.8,3.4,7.4,4.8
		c-1,3.5-2.2,6.9-2.9,10.5c-0.6,2.1-1.2,4.3-1,6.5c0,1.1,0.8,1.9,1.7,2.5c1.5,0.9,3.2,1.5,4.9,1.9c1.1,0.3,2.1,0.6,3.3,0.6
		c0,2-0.1,4.1-0.1,6.1c0,0.9-0.2,1.9,0,2.8c0.4,1.9,0.1,3.8,0.2,5.7c0.1,0.7-0.4,1.5,0.1,2.2c0.9,1.3,2.5,1.8,3.9,2.3
		c2.4,0.4,4.8,0.4,7.2,0.1c0.4,1.6,0.9,3.2,1.5,4.8c0.7,1.8,0.9,3.8,1.5,5.7c0.5,1.7,0.5,3.7,1.4,5.3c1.6,0.4,3.3,0.6,4.9,0.2
		c1.7-0.4,3.5-0.7,5.1-1.3c1.6-0.4,3.2-0.8,4.7-1.5c4.4-1.7,9-2.9,13.5-4.4c3.7-1.3,7.5-2.3,11.2-3.7c2.7-1.1,5.6-1.6,8.4-2.6
		c1,1.7,2.2,3.5,4,4.6c1.2,0.7,2.5,1.3,3.9,1.4c2.1,0.2,4.2-0.1,6.3-0.1c2.6-0.3,5.2-0.3,7.7-1c1.9-0.1,3.9-0.3,5.8-0.5
		c0.9-0.1,1.8,0.1,2.7-0.3c1.2-1.2,2.1-2.7,3-4.1c0.8-1.1,1.3-2.4,1.8-3.7c0.9,1.7,2.2,3.3,4.1,4.1c0.9,0.2,1.1,1.3,1.6,1.9
		c1.2,2,2.2,4.1,3.5,6c2.1,3.7,4.3,7.2,6.3,10.9c1.3,1.6,2.1,3.5,3.4,5.1c0.2-0.1,0.5-0.4,0.7-0.5c0.4,0.6,0.8,1.1,1.4,1.6
		c0.4,0.4,1,0.4,1.3,0.8c0.9,1.2,1.9,2.6,3.2,3.3c0.5,0.3,0.8-0.4,1.1-0.6c0.9,0.6,1.8,1.4,2.9,1.5c1.1-0.8,2.4-0.2,3.7-0.3
		c2.7,0.7,5.6,1.1,8.5,0.8c3.8,0,7.1-1.9,10.4-3.6c3.2-1.3,5.8-3.6,8.2-6.1c1.5-1.5,2.6-3.4,3.8-5.2c1.3-2.3,2.2-4.9,3.2-7.4
		c1.2-2.8,1.3-5.8,1.8-8.8c0.2-1.3,0-2.7,0.4-4c0.6-2.2,1.2-4.4,1.3-6.6c0.8-3.1,0.7-6.4,0.9-9.6c0.1-1.2,0-2.3-0.2-3.5
		c2-2.3,3.8-4.7,5.6-7.2c2.1-3.2,3.6-6.8,4.6-10.4c-0.8,1.1-1.2,2.4-1.7,3.6C231.6,75.9,230.8,77.2,230.1,78.7z M144.5,25.4
		c-2.2-0.8-4.6-0.9-6.9-1.3c0.2-1.4,0.4-2.8,0.5-4.2c2.8,0,5.6,0.3,8.3,1.3C145.9,22.7,145.1,24,144.5,25.4z M143.6,19.1
		c1.1,0.4,2.4,0.6,3.3,1.3c-2.9-0.3-5.8-1-8.7-1c-0.1-0.5-0.3-0.9-0.5-1.4C139.7,18.3,141.7,18.4,143.6,19.1z M109.1,29.4
		c1,0,2,0,3.1,0c0.2,0.8,0.3,1.6,0.7,2.3c-1.1,2.1-1.9,4.4-2.5,6.7C110.4,35.4,110.1,32.3,109.1,29.4z M113.8,24.7
		c0.5,1,1,2.1,1.4,3.1c-0.6,1.1-1.4,2.2-2.1,3.3c-0.4-2.3-1.2-4.5-2.5-6.4C111.7,24.8,112.7,24.8,113.8,24.7z M113.8,23.6
		c0.9,0,1.8,0,2.7,0c0.4,0.6,0.7,1.2,1,1.8c-0.7,0.7-1.3,1.4-1.9,2.2C115.1,26.1,114.5,24.8,113.8,23.6z M112.2,34.5
		c0.3-1,0.7-1.9,1.3-2.8c0.1,0.1,0.2,0.3,0.3,0.3C113.3,32.9,112.8,33.7,112.2,34.5z M125.9,20.6c3.4-1.5,7.1-2.6,10.9-2.5
		c0.4,0.4,0.7,0.9,0.9,1.4c-1.2,0.1-2.4,0.1-3.5,0.1c-3.3,0.4-6.6,1.4-9.6,2.9c-1.4,0.7-2.9,1.3-4.2,2.2c-0.1-0.2-0.1-0.5-0.2-0.7
		C122,22.8,123.8,21.4,125.9,20.6z M123.3,29.1c-1.8,1.4-3.4,3.1-4.6,5.1c-1.4-0.7-2.9-1.4-4.3-2.2c1.7-2.4,3.5-4.7,5.7-6.6
		C121.1,26.7,122.1,28,123.3,29.1z M119.9,25.1c-2.3,1.8-4,4.3-5.9,6.5c-0.1-0.1-0.3-0.3-0.4-0.4c1.4-2.8,3.5-5.3,5.9-7.2
		C119.7,24.4,119.8,24.7,119.9,25.1z M119.5,23.5c-0.6,0.5-1.2,1-1.7,1.4c-0.4-1-1-1.8-1.7-2.6C117.3,22.6,118.6,22.6,119.5,23.5z
		 M115.3,22.4c0.3,0.2,0.5,0.5,0.7,0.7c-0.8,0-1.6,0.1-2.5,0.1c-0.5-0.2-0.7-0.7-1-1.1C113.4,22.2,114.4,22.2,115.3,22.4z
		 M111.8,22.1c0.7,0.6,1.3,1.4,1.8,2.2c-1.1,0-2.1,0-3.2,0c-0.6-0.8-1.3-1.5-2-2.3C109.6,22.1,110.7,22,111.8,22.1z M107.4,22
		c2.5,1.6,3.9,4.3,4.6,7c-1,0-2.1,0-3.1-0.1c-0.6-1.8-1.5-3.4-2.7-4.9c0.8,0,1.6,0,2.5-0.1c0-0.1,0-0.3,0-0.4
		c-0.9,0-1.9,0.1-2.9,0.1c-0.8-0.8-1.7-1.4-2.6-1.9C104.6,22,106,21.9,107.4,22z M99.2,22.9c0.2,1.1,0.1,2.2,0.1,3.3
		c0.1,0.4-0.2,0.7-0.5,0.9c-0.6,0.6-1.1,1.2-1.7,1.8c-0.2-1-0.5-1.9-0.5-2.9C97.4,24.9,98.1,23.7,99.2,22.9z M92.7,38.8
		c0.4,0.3,0.8,0.7,1.1,1.1c-0.4,1.8-0.5,3.7-0.5,5.6c-0.4,0-0.9,0.1-1.3,0.1C92.1,43.3,92.1,41,92.7,38.8z M218.5,106.3
		c-0.5-0.8-0.8-1.6-1-2.5C218,104.6,218.3,105.4,218.5,106.3z M214.9,98.9C215.8,98.9,214.5,99.7,214.9,98.9
		c-0.5-0.6-0.9-1.3-1.2-2.1C214.3,97.4,214.6,98.1,214.9,98.9z M210.3,91.6c0.3,0.7,0.7,1.3,1,2c-2.8-1.1-5.8-1.9-8.9-1.8
		c-3.4,0.2-6.8,1-10.1,2.1c-3.8,1.1-7.1,3.5-10.4,5.7c-1.1-0.1-1.8,0.9-2.8,1c-0.6,0.1-1.2-0.1-1.8-0.3c0.4,1.1-0.2,2.2-0.8,3.1
		c0.1,0.1,0.2,0.2,0.3,0.3c-2.4,2.3-4.5,5-5.9,8c-0.2,0.8-1.1,0.8-1.6,1.3c-0.4,0.5-1.1,0.9-1.7,0.6c-0.8-0.8-0.7-2-0.6-3
		c0.2-1.9,1.1-3.7,2.1-5.3c1.5-2.1,3.1-4.1,5.3-5.5c0.7-0.3,1.5-0.4,2.1-0.9c-1.2-0.1-2.3,0.5-3.3,1.1c0.9-1.1,2-1.9,3.1-2.8
		c0.9-0.7,1.8-1.5,2.8-2.1c-0.7,0.8-1.5,1.5-1.9,2.5c-0.3,0.8-0.6,1.7-0.2,2.4c0.2-1.4,0.6-2.9,1.6-3.9c1.8-1.9,4-3.1,6.4-4.2
		c1.7-0.8,3.6-1.2,5.3-1.7c0-0.2-0.1-0.5-0.2-0.6c2-0.4,4-0.9,6-1.2c1.1-0.2,2.2,0.1,3.2-0.3c-1.6-0.5-3.4-0.3-5,0
		c-1.4,0.3-2.9,0.5-4.2,1.1c-1.5,0.6-3.1,0.9-4.5,1.8c-1,0.7-2.2,1.2-3.3,1.8c-3,1.2-5.5,3.5-8,5.5c-1,0.8-1.8,1.7-2.4,2.9
		c-0.9,0.8-1.6,1.7-2.3,2.7c-1.5,1.7-2.2,4-3.9,5.7c-0.5,0.5-1.2,0.8-1.8,1c-0.1-0.4,0.2-0.9-0.1-1.2c-0.2,0-0.6-0.1-0.9-0.1
		c0-0.4,0.1-0.8,0.1-1.2c-0.2,0-0.5-0.1-0.7-0.1c0-0.4-0.1-0.7-0.1-1.1c-0.3-0.1-0.7-0.1-1-0.2c0.1-0.4,0.2-0.8,0.2-1.3
		c-0.2,0-0.7,0-0.9-0.1c0-0.4,0.1-0.9,0.1-1.4c-0.4-0.1-0.7-0.1-1-0.2c0-0.4,0-0.7,0-1.1c-0.3-0.1-0.6-0.2-0.9-0.3
		c0-0.4,0.1-0.8,0.1-1.2c-0.2,0-0.6-0.1-0.8-0.1c0-0.4,0.3-0.9,0-1.3c-0.2,0-0.6-0.1-0.8-0.2c0-0.4,0-0.8,0.1-1.1
		c-0.2,0-0.7,0-0.9-0.1c0.1-0.4,0.2-0.9,0.3-1.3c-0.4,0-0.9-0.1-1.3-0.1c0.5-1.7,1.2-3.5,2-5.1c2.3-4.2,5.3-8,9.2-10.8
		c2.3-1.5,4.6-3.2,7.2-4.3c1,1.1,2.1,2.2,3.6,2.6c1.1,0,2.3,0.4,3.3-0.2c0.8-0.5,0.6-1.6,0.7-2.4c0.4,0.1,0.7,0.5,1,0.9
		c0.3-0.2,0.6-0.7,1-0.6c0.3,0.2,0.5,0.4,0.8,0.7c0.2-0.2,0.4-0.5,0.6-0.7c0.4-0.2,0.8,0.3,1.1,0.5c0.2-0.2,0.3-0.4,0.5-0.7
		c0.3,0.2,0.7,0.3,1,0.5c0.1-0.2,0.3-0.5,0.3-0.7c0.3,0.2,0.6,0.4,0.9,0.6c0.2-0.3,0.3-0.7,0.5-1c0.3,0.2,0.6,0.5,0.9,0.7
		c0.1-0.4,0.2-0.7,0.3-1.1c0.2,0.3,0.6,0.4,0.7,0.8c-0.1,0.8-0.1,1.5-0.2,2.3c-1.1,0.1-2.2,0.2-3.2,0.5c-2.5,0.7-5,1.2-7.3,2.4
		c-1.1,0.6-2.3,1.2-3.5,1.9c-0.3,0.1-0.5,0.4-0.7,0.6c1.8-0.4,3.3-1.6,5-2.4c1.6-0.7,3.4-1.1,5-1.7c-0.3,1.2,0.2,2.5,1.4,3
		c0.1-0.1,0.4-0.3,0.5-0.4c-0.2-0.3-0.4-0.6-0.6-0.9c0,0.2-0.1,0.6-0.1,0.9c-0.4-0.4-0.8-0.9-1-1.5c0.3,0.2,0.7,0.4,1,0.6
		c-0.2-0.6-0.5-1.1-0.8-1.6c1.4-0.5,2.9-0.6,4.4-0.8c0.2,0.7,0.5,1.4,1,1.9c1.5,1.5,3.2,2.7,4.9,4.1c-1,0.1-1.9,0.1-2.9,0.1
		c0-0.4,0.1-0.7,0.1-1.1c-0.9-0.6-0.8-2.1-2-2.2c-1.5,0.2-2.9,0.6-4.3,1.1c-1.3,0.1-2.5,0.7-3.7,1c-3.4,1.5-6.6,3.2-9.7,5.4
		c0.6-0.7-0.1-1.4-0.7-1.8c0-0.6,0-1.3,0-1.9c-1.1,0.3-1.9,1.1-2.7,1.8c-1.1,0.9-2.2,1.8-3.2,2.9c1.3,0.1,2.5,0.6,3.8,0.9
		c-0.8-0.8-2-0.9-3-1.2c1.6-1.3,3.2-2.6,4.8-3.9c-0.1,1.3,0,2.5,0,3.8c0,0.4-0.3,0.6-0.6,0.8c-1.3,1-2.5,2.1-3.5,3.3
		c-1,0.9-2,1.9-2.8,3c-0.3,0.7-0.5,1.8,0.2,2.4c0.5,0.5,0.7,1.2,1.1,1.8c1.5-0.9,2.8-2.4,3.2-4.1c0.3-0.1,0.6-0.1,0.9-0.3
		c2.6-2.3,5.4-4.6,8.3-6.6c0.1-0.6-0.5-1-0.6-1.5c0.6,0.3,1.1,0.6,1.7,0.8c0.6-0.4,1.2-0.8,1.9-1.1c0-0.5,0-1,0.1-1.4
		c0.3,0.4,0.5,0.9,0.7,1.3c0.5-0.2,1-0.5,1.6-0.7c0.4,0.6,0.7,1.2,1,1.8c0.4,0.3,0.9,0.1,1.4,0c2.7-1,5.4-1.8,8.3-2.1
		c1-0.2,2.1,0,3.1-0.5c2.1,1.4,4.1,3.1,6.5,4.1c0.6,0.2,1.1,0.6,1.7,0.8C208.6,92.3,209.5,91.8,210.3,91.6z M180.3,100.9
		c-0.8,1-1.9,1.8-3,2.5C178.1,102.4,179.2,101.6,180.3,100.9z M178,101.8c0-0.2,0-0.6,0-0.8c0.4,0,0.7,0,1.1,0
		C178.7,101.3,178.3,101.5,178,101.8z M162.3,107.2c0,0.4-0.1,0.8-0.1,1.2c0.3,0,0.6,0.1,0.9,0.1c-0.1,0.4-0.2,0.8-0.3,1.2
		c0.4,0.1,0.8,0.1,1.1,0.2c0,0.2-0.1,0.6-0.2,0.7c-0.3,0-0.5,0-0.8-0.1c-0.5-1.2-1.1-2.3-1.7-3.4
		C161.6,107.2,162.1,107.2,162.3,107.2z M161.1,106.7c-0.1-0.1-0.2-0.2-0.3-0.3C160.6,105.3,162,106.3,161.1,106.7z M167.1,109.1
		c-0.3,1.5-0.8,3.3,0.1,4.6c0.3,0.6,1.1,0.4,1.6,0.5c-0.7,0.5-1.4,1.3-2.3,1.1c-0.6-0.1-1.3-0.3-1.7-0.8c-0.7-1.1-1.3-2.3-1.9-3.4
		C164.7,111.3,166.2,110.3,167.1,109.1z M158.2,100.2c-0.1,0.4-0.1,0.9-0.2,1.3c-0.6-0.8-1.1-1.7-1.6-2.5c0.2,0,0.7,0,0.9,0
		c0,0.4-0.1,0.8-0.1,1.2C157.4,100.2,157.9,100.2,158.2,100.2z M158.7,101.7c0.1,0.3,0.1,0.5,0,0.8c-0.2,0.4-0.5-0.2-0.5-0.4
		C158,101.8,158.5,101.4,158.7,101.7z M159.7,102.9c-0.1,0.4-0.1,0.8-0.2,1.3c0.4,0.1,0.8,0.2,1.2,0.3c0,0.3-0.1,1-0.2,1.3
		c-0.6-0.9-1.3-1.8-1.8-2.8C159,102.9,159.5,102.9,159.7,102.9z M175.8,69.8c-0.4,0.8-0.3,1.7-0.7,2.5c-0.5-2.6,1.7-4.7,3.7-6
		c0.2,0.6,0.5,1.1,0.8,1.6c-1.2,0.7-2.1,1.9-2.3,3.3c-0.5,0.2-1,0.4-1.5,0.6c0.1-1.6,0.9-3,2.1-4c0.4-0.4,0.9-0.7,1.1-1.2
		C177.6,67.3,176.5,68.5,175.8,69.8z M175,69.5c-0.4,0.2-0.5,0.6-0.4,1.1c-0.2,0.1-0.4,0.2-0.7,0.4c0.2,0.2,0.5,0.3,0.7,0.5
		c-0.2,0.2-0.3,0.5-0.5,0.7c0.2,0,0.5,0.1,0.7,0.2c-0.3,0.1-0.6,0.3-0.9,0.4c-0.5-1.7-1.9-3.2-1.7-5.1c0.3-0.5,0.7-1,1.3-1
		c1.1-0.2,1.9,0.6,2.9,0.8c-0.2,0.1-0.6,0.2-0.8,0.3c0,0.2,0.1,0.5,0.1,0.7c-0.3,0.1-0.6,0.2-0.9,0.3C174.9,69,174.9,69.2,175,69.5z
		 M173.8,72.9c-0.4,0.2-0.8,0.4-1.1,0.6c-0.7-1.4-1.3-3-1.1-4.6C172.3,70.2,173,71.6,173.8,72.9z M179.9,68.2c1,0.5,2,1,2.9,1.5
		c-1.7,0.4-3.4,0.8-5,1.3C178.1,69.8,179,68.9,179.9,68.2z M180.1,67.6c2.6-1.1,4.7-2.8,7-4.5c2.5-1.9,5.1-3.6,7.8-5.2
		c1.2,0.2,2.3,0.9,3.4,1.3c-0.6,0.6-1.5,1.1-1.8,2c-1,2.4-1.9,4.9-2.8,7.5c-0.6,0.1-1.5,0.2-1.7,0.9c-0.1,0.6,0.5,0.8,0.9,1.1
		c-0.2,0.6-0.4,1.1-0.5,1.7c-1-0.6-2.1-0.8-3.1-1.3C186.2,70.1,183,69.2,180.1,67.6z M190,72.1c-0.4,1.3-1.7,1.9-2.9,2.2
		c-2.3,0.5-4.9,0.4-7.1-0.5c2.4-1.3,5-1.6,7.6-2.2C188.5,71.3,189.3,71.8,190,72.1z M180.8,74.5c2.4,0.9,5,0.7,7.4,0
		c1-0.3,2.3-1,2-2.3c0.6,0.2,1.3,0.4,2,0.6c-0.2,1.1-0.6,2.3-1.7,2.7c-4.2,1.5-9.1,1.8-13.1-0.5c0.8-0.4,1.6-0.8,2.4-1.3
		C180.1,74.1,180.4,74.4,180.8,74.5z M178.2,75.8c0.1,0.3,0.2,0.6,0.3,0.8c0.3-0.1,0.6-0.2,0.9-0.3c0.2,0.2,0.3,0.5,0.5,0.7
		c0.3-0.2,0.6-0.4,0.9-0.6c0.2,0.7,0.6,1.6,0,2.2c-0.9,0.6-2.1,0.5-2.8-0.4c-0.7-0.9-1.2-2-1.7-3c0.3-0.1,0.6-0.2,0.8-0.3
		c0.1,0.4,0.1,0.8,0.2,1.1C177.6,76.1,177.9,75.9,178.2,75.8z M178,79.1c-1.4-0.5-2.5-1.4-3.5-2.5c0.5-0.3,0.9-0.6,1.4-1
		C176.5,76.9,177.1,78.1,178,79.1z M192.9,87.2c-0.2,0.3-0.3,0.7-0.8,0.7c-1.7,0.4-3.3,1.1-5,1.5c-0.2-0.9,0.8-0.8,1.4-1
		c-0.5-0.7-1.1,0.2-1.7,0.5c-0.2-0.3-0.3-0.6-0.5-0.9c1.6-0.6,3.3-1,5-1.5c1.9-0.7,4-0.7,6-0.7c0.7-0.1,1.3,0.5,1.5,1.1
		c-1.8,0.1-3.6,0.2-5.4,0.5c-0.2-0.5-0.5-1-1.1-0.9C192.6,86.8,192.7,87,192.9,87.2z M183.1,87.6c0,0.3,0,0.6,0,0.8
		c-0.5,0.3-1,0.6-1.5,1c-1-0.7-2.1-1.1-3.2-1.5c-0.4,0.5-0.8,1.1-0.6,1.7c0.2,0.5,0.7,0.6,1.1,0.8c0.1-0.6,0.3-1.1,0.1-1.7
		c-0.2,0.4-0.3,0.8-0.5,1.3c-0.6-0.4-0.4-1.1-0.1-1.7c1.1,0.2,1.3,1.3,1.8,2.1c-3.1,2-5.9,4.3-8.6,6.7c-0.2-0.8-0.8-1.2-1.4-1.7
		c-0.8,0.4-1.5,1.1-2,1.9c0.7-0.3,1.2-0.9,1.7-1.3c0.4,0.1,0.7,0.2,1.1,0.4c0.1,1.9-1.3,3.5-2.7,4.6c-0.4-1.1-1.8-1.8-1.3-3.1
		c0.5-1.3,1.9-2,2.6-3.2c0.3,0.3,0.6,0.7,1,1c-0.1-0.5-0.4-0.9-0.6-1.3c2.6-2.7,5.5-5,8.7-6.8c1.2-0.6,2.3-1.3,3.6-1.6
		c-0.2,0.4-0.5,0.8-0.8,1.2c0.4-0.2,0.8-0.3,1.2-0.5c-0.2-0.3-0.3-0.6-0.5-0.9c0.5-0.2,0.9-0.4,1.4-0.6c-0.2,0.6-0.4,1.3-0.6,1.9
		c-0.4,0.1-0.7,0.2-1,0.4C182.4,87.5,182.8,87.6,183.1,87.6z M174,88.5c0.2,0.4,0.5,0.8,0.8,1.1c-0.2,0.2-0.5,0.3-0.7,0.5
		C174.1,89.6,174,89,174,88.5z M184,85.3c0.3,0.4,0.6,0.9,0.9,1.3c-0.4-0.1-0.9-0.2-1.3-0.2C183.7,86,183.8,85.7,184,85.3z
		 M185.6,87.2c-0.3-0.9-0.8-1.8-1.7-2.4c1-0.4,2.1-0.7,3.1-1.1c-0.3,1-0.1,2.2,0.9,2.7c0.2-0.5,0.4-1,0.5-1.5
		c1.1,0.7,2.6,0.9,3.8,0.3c-1-0.1-1.9,0-2.9-0.2c-0.6-0.2-1.1-1.1-0.4-1.6c1-0.6,2.2-0.8,3.3-0.9c0.5-0.1,0.8,0.3,1.1,0.6
		c-0.2,0.2-0.4,0.5-0.5,0.7c0.4,0.1,1,0.2,1.2,0.6c0,0.4-0.1,0.7-0.2,1.1c-3.2,0.8-6.4,1.5-9.4,2.6c-0.2-0.4-0.3-0.8-0.5-1.2
		C184.5,87,185,87.1,185.6,87.2z M188.1,83.7c0.1,0.2,0.2,0.6,0.3,0.8c-0.3,0.3-0.6,0.7-0.8,1C187.2,84.9,187.2,84,188.1,83.7z
		 M211.4,84.9c-0.8,2.2-1.8,4.3-2.8,6.3c-2.2-0.5-4.1-1.6-5.9-2.9c-1.5-1.1-3-2.1-4.4-3.2c-1.8-1.4-3.7-2.6-5.3-4.2
		c-0.7-0.9-1.2-2.1-0.9-3.2c0.1-2,0.6-4,1.3-5.9c1.2-3.6,2.4-7.1,3.8-10.6c0.2,1.1,1.1,1.7,1.9,2.3c5,3.7,10.3,7.1,15.2,11
		C214.2,78.2,212.4,81.5,211.4,84.9z M208,55.6c1-0.3,2-0.2,3.1-0.2c4.6,1.4,8.3,4.6,12.2,7.3c1.5,1.1,3.2,1.9,4.4,3.3
		c-1.5,0.8-3.1,1.4-4.6,2.3c-3,1.8-6,3.6-9.1,5.1c-0.7-0.2-1.2-0.9-1.8-1.3c-3.3-2.4-6.6-4.9-10-7.1c-1.3-0.9-2.7-1.8-4-2.9
		c-0.5-0.4-0.6-1-0.7-1.6c0.7-0.7,1.6-1.2,2.6-1c0-0.2,0-0.6,0.1-0.8C202.7,57.6,205.4,56.6,208,55.6z M193.6,41.7
		c2,1.1,4.1,2.2,6.2,3.3c1,0.6,2.1,1,2.8,2c1,1.4,1.4,3.1,1.9,4.7c0.5,1.4,0.8,2.8,1.1,4.2c-0.2,0.1-0.5,0.2-0.7,0.4
		c-0.5-0.3-1-0.8-1.6-0.6c-0.5,0.3-0.4,0.9-0.6,1.4c-1.2,0.4-2.2,1.1-3.4,1.6c-1.3,0-2.5-0.8-3.7-1.2c0-0.5,0.1-1.1,0-1.6
		C194,51,192.8,46,191.3,41C192.1,41.2,192.9,41.3,193.6,41.7z M190.7,40.9c1.5,4.7,2.6,9.5,3.8,14.2c0.1,0.6,0.6,1.3,0.4,2
		c-1.1,0.8-2.3,1.4-3.5,2.2c-2,1.3-4,2.6-5.9,4.2c-1.8,1.3-3.6,2.9-5.8,3.5c-0.7-2.7-1.9-5.3-2.6-8c-0.6-2.3-1.2-4.5-1.5-6.9
		c0-0.7-0.2-1.6,0.4-2.1c0.5-0.4,1.2-0.4,1.8-0.5c0-0.2,0-0.5-0.1-0.7C181.8,45.8,185.9,42.7,190.7,40.9z M161.1,44.4
		c0.6,0.8,1.1,1.7,1.5,2.6c-0.3,0.1-0.6,0.2-0.9,0.2c-0.3-0.4-0.6-0.8-0.9-1.2C161,45.5,161,44.9,161.1,44.4z M154.2,38
		c2.4,1.3,4.5,3.2,6.2,5.3c0.6,0.6,0.3,1.5,0.3,2.3c-1.9-2.3-4.1-4.4-6.5-6.1C154.1,39,154.1,38.5,154.2,38z M160.1,45.7
		c-1.3,0.9-2.6,1.9-3.9,2.8c-1.2-2.1-3.2-3.6-5-5.1c0.8-1.2,1.7-2.3,2.5-3.6c2.1,1.2,3.8,2.9,5.4,4.6
		C159.5,44.8,159.8,45.3,160.1,45.7z M153.8,37.7c0.1,0.5-0.1,1-0.1,1.5c-2.5-1.3-4.9-2.5-7.6-3.2c-2.2-0.5-4.4-1.1-6.7-1.3
		c-2.3,0-4.6,0-6.8,0.6c-2,0.4-3.8,1.2-5.7,1.8c0-0.2-0.1-0.7-0.1-0.9c1-0.4,2.1-0.8,3.1-1.2c3.3-1.4,7-1.4,10.5-1.3
		c2.9-0.2,5.7,0.8,8.4,1.8C150.5,36.2,152.2,36.9,153.8,37.7z M135.7,35.2c0.1,1.6,0.1,3.2,0.4,4.8c-2.4,0.4-4.7,1.1-6.9,2
		c-0.8-1.5-1.5-3.1-2.5-4.5C129.7,36.5,132.6,35.4,135.7,35.2z M131.9,28.3c-0.5,0.3-0.8,0.7-0.5,1.3c-0.6,0.2-1.2,0.5-1.8,0.7
		c-0.2-0.3-0.4-0.6-0.7-0.9C129.9,29,130.9,28.6,131.9,28.3z M127.9,30c0.1,0.3,0.3,0.7,0.4,1c-0.6,0.4-1.2,0.8-1.9,1.3
		c-0.2-0.3-0.5-0.6-0.7-0.9C126.4,30.9,127.1,30.5,127.9,30z M126.9,32.5c1.5-1.1,3.1-2.1,5-2.6c3.2-0.6,6.7-0.7,9.8,0.3
		c2.1,0.6,3.9,1.8,5.6,3.1c0.7,0.6,1.2,1.4,2.1,1.7c-0.5-1.1-1.5-1.8-2.4-2.6c-1.1-0.7-2.2-1.6-3.4-2.1c-1.9-0.7-3.8-1.3-5.9-1.4
		c-1.7-0.1-3.4,0.1-5.1,0.2c0-0.2,0-0.6,0-0.8c0.6-0.1,1.3-0.1,2-0.2c0.2,0.3,0.5,0.5,0.8,0.8c0.4-0.1,0.7-0.1,1.1-0.2
		c-0.1-0.2-0.1-0.7-0.2-0.9c0.8,0,1.7,0,2.5,0c-0.2,0.3-0.3,0.6-0.5,0.9c0.5,0.2,1.1,0.3,1.7,0.2c0-0.2,0.1-0.7,0.2-0.9
		c1,0.3,2.1,0.4,3.1,1c-0.5,0-1-0.1-1.6-0.1c0.3,0.8,1.3,0.6,1.9,0.5c0.6,0.2,1.3,0.4,1.5,1c0.2,0.6,1,0.4,1.5,0.6
		c0.4,0.2,0.7,0.5,1,0.8c0.2,0.4,0.3,1,0.8,1.3c0.3,0,0.6,0,0.8,0c0.8,0.8,1.6,1.7,2.2,2.8c-3.7-1.2-7.3-2.7-11.2-2.8
		c-3.5,0.1-7.1,0.1-10.4,1.5c-0.6,0.3-1.2,0.6-1.9,0.8c-2.3,0.7-4.1,2.2-6,3.5C123.3,36.6,124.7,34.1,126.9,32.5z M124.6,32.3
		c0.3,0.2,0.5,0.5,0.7,0.8c-0.2,0.5-0.6,0.9-1,1.3c-0.5,0.1-0.8-0.2-1.2-0.4C123.6,33.4,124.1,32.9,124.6,32.3z M121,37.1
		c0.4-0.8,0.9-1.5,1.3-2.2c0.2,0.3,0.6,0.5,0.7,0.9c0.1,0.5-0.3,0.8-0.5,1.2C121.9,37.1,121.4,37.1,121,37.1z M126.5,36.4
		c0,0.2-0.1,0.6-0.1,0.8c-2.2,0.8-3.9,2.4-5.7,3.8C122.2,39,124.3,37.6,126.5,36.4z M119.1,43.2c2.1-2.2,4.5-4.3,7.3-5.6
		c1,1.6,1.7,3.3,2.7,4.9c2.2-0.9,4.5-1.6,6.8-2c0.4,0,0.7-0.4,0.6-0.8c-0.2-1.5-0.3-3-0.4-4.5c3.6-0.4,7.1,0.4,10.5,1.4
		c2.3,0.7,4.6,1.8,6.7,2.9c-0.8,1.4-1.8,2.5-2.6,3.9c1.6,1.5,3.4,2.9,4.8,4.7c0.3,0.3,0.3,0.6,0.4,1c1.5-1,3-2.1,4.5-3.2
		c0.3,0.5,0.7,1,1,1.5c-2.6,1.1-5.3,2.1-7.7,3.6c-2.1-3-5-5.4-8.5-6.6c-4-1.5-8.4-1.5-12.4-0.4c-4,1.3-7.6,4.2-9.6,8
		c-2,3.7-2.5,8.1-1.3,12.2c2.1,5.4,6.6,10,12.4,11.4c1.4,1.8,2.2,3.9,3.5,5.7c0.5,0.7,1,1.4,1.4,2.2c-2.8,0.1-5.5-0.5-8.2-1.2
		c-2-0.6-4-1.3-5.8-2.4c1-1.3,1.9-2.7,2.5-4.2c-2.1-1.3-4-3-5.5-5c-1.1,1.3-2.9,1.8-4.2,2.8c-0.9-1.2-1.9-2.4-2.3-3.9
		c-0.7-1.6-1.6-3.2-2-4.9c-0.4-1.9-0.9-3.8-0.8-5.8c1.8,0.1,3.5,0.3,5.3,0.4c0.2-2.4,0.8-4.8,1.7-7.1c-1.7-0.7-3.3-1.5-4.9-2.5
		C116.1,47.3,117.4,45.1,119.1,43.2z M132.5,46c-0.4,0.2-0.9,0.3-1.3,0.4c-0.3-0.3-0.5-0.7-0.8-1c0.5-0.3,1-0.5,1.4-0.7
		C132.1,45.1,132.3,45.5,132.5,46z M132.2,44.5c1.1-0.3,2.3-0.6,3.4-0.6c0,0.3,0,0.7,0.1,1c-0.5,0.1-1,0.2-1.4,0.4
		c-0.1-0.2-0.3-0.6-0.4-0.8c0,0.3-0.1,0.8-0.1,1c-0.3,0.1-0.6,0.2-0.9,0.3C132.6,45.4,132.4,44.9,132.2,44.5z M131,46.5
		c-0.4,0.3-0.8,0.5-1.1,0.8c-0.3-0.3-0.6-0.7-0.9-1c0.4-0.3,0.8-0.5,1.2-0.8C130.4,45.8,130.7,46.2,131,46.5z M129.5,47.4
		c-0.4,0.3-0.8,0.7-1.3,1c-0.3-0.4-0.6-0.7-0.9-1.1c0.4-0.3,0.8-0.6,1.2-1C128.9,46.7,129.2,47.1,129.5,47.4z M128.1,48.5
		c-0.3,0.3-0.6,0.5-0.9,0.8c-0.4-0.3-0.7-0.5-1.1-0.8c0.3-0.3,0.7-0.6,1-1C127.5,47.9,127.8,48.2,128.1,48.5z M126.9,49.5
		c-0.3,0.4-0.7,0.7-1,1.1c-0.4-0.2-0.7-0.4-1.1-0.7c0.4-0.4,0.7-0.8,1.1-1.3C126.3,49,126.6,49.3,126.9,49.5z M125.8,50.8
		c-0.3,0.4-0.6,0.8-0.9,1.2c-0.3-0.2-0.6-0.4-0.9-0.6c0.3-0.4,0.5-0.8,0.8-1.2C125.1,50.4,125.4,50.6,125.8,50.8z M124.6,52.2
		c-0.2,0.4-0.4,0.8-0.6,1.2c-0.3-0.2-0.6-0.5-0.8-0.7c0.2-0.3,0.3-0.7,0.6-0.8C124.1,51.9,124.4,52.1,124.6,52.2z M123.9,53.7
		c-0.2,0.3-0.3,0.7-0.5,1c-0.2-0.1-0.6-0.4-0.8-0.5c0.2-0.4,0.3-0.8,0.5-1.2C123.3,53.3,123.6,53.5,123.9,53.7z M123.2,55
		c-0.2,0.4-0.3,0.9-0.5,1.3c-0.2-0.1-0.5-0.2-0.7-0.3c0.2-0.5,0.3-1,0.5-1.5C122.7,54.6,123,54.9,123.2,55z M122.6,56.5
		c-0.1,0.4-0.1,0.8-0.2,1.2c-0.8,0.1-0.6-0.7-0.6-1.2C122.1,56.5,122.5,56.5,122.6,56.5z M122.3,57.9c-0.1,2.9,0.3,6,1.9,8.5
		c2.3,3.7,5.7,6.8,9.9,8c0,0.1,0,0.4,0,0.5c-5.5-1.3-9.8-5.7-11.9-10.8c-0.6-2.1-0.6-4.3-0.6-6.5C121.9,57.8,122.2,57.9,122.3,57.9z
		 M129.3,71.7c-3.5-2.7-6.3-6.6-6.6-11.1c-0.3-3.3,1-6.6,3-9.2c1.2-1.5,2.8-2.7,4.3-3.9c0.8-0.6,1.9-0.8,2.8-1.2
		c2.5-1,5.2-1.2,7.9-1c3,0.4,6.1,1.4,8.4,3.4c1.3,0.8,2,2.2,3,3.3c-2.6,1.8-5.2,3.8-7.4,6.1c-2.1,2.1-3.8,4.6-5.6,7.1
		c-1.8,2.8-3.2,5.9-4.4,9.1C132.8,73.7,130.9,73,129.3,71.7z M135.9,43.8c0.4,0,0.8-0.1,1.3-0.1c0.1,0.2,0.2,0.5,0.3,0.7
		c-0.1-1.1,1-0.7,1.7-0.8c0,0.2,0.1,0.7,0.1,0.9c-1.1,0-2.2,0.1-3.3,0.3C135.9,44.5,135.9,44.1,135.9,43.8z M139.4,43.7
		c0.5,0,0.9,0,1.4,0c0,0.3-0.1,0.6-0.1,0.8c-0.4,0-0.8,0-1.2,0C139.5,44.3,139.5,44,139.4,43.7z M141.1,43.8
		c0.6,0.1,1.1,0.2,1.7,0.3c-0.1,0.3-0.1,0.6-0.2,0.8C142,44.7,140.7,44.8,141.1,43.8z M143.1,44.2c0.4,0.1,0.8,0.2,1.3,0.3
		c0,0.2,0,0.6,0,0.8c-0.4-0.1-0.8-0.1-1.2-0.2C143.1,44.8,143.1,44.4,143.1,44.2z M144.7,45.4c0-0.2,0-0.6,0-0.8
		c0.6,0.2,1.1,0.4,1.7,0.6c-0.1,0.2-0.2,0.6-0.2,0.8C145.7,45.8,145.2,45.6,144.7,45.4z M146.5,46.2c0.1-0.3,0.1-0.6,0.2-0.8
		c0.4,0.2,0.8,0.4,1.1,0.6c-0.1,0.3-0.1,0.6-0.2,0.9C147.3,46.6,146.9,46.4,146.5,46.2z M150.4,48.7c-0.3-0.2-0.7-0.4-1-0.6
		c0.1-0.3,0.2-0.5,0.3-0.8c0.3,0.2,0.7,0.5,1,0.7C150.6,48.2,150.5,48.5,150.4,48.7z M150.8,48.4c0.7,0,1,0.8,1.4,1.1
		c-0.3,0.2-0.4,0.8-0.8,0.6C151.1,49.6,150.3,49.1,150.8,48.4z M149.2,47.8c-0.6-0.4-1.5-0.7-1.1-1.6c0.5,0.3,1,0.5,1.4,0.9
		C149.4,47.3,149.2,47.6,149.2,47.8z M151.7,50.5c0.3-0.2,0.5-0.4,0.8-0.6c0.3,0.4,0.6,0.9,0.9,1.3c-0.3,0.1-0.5,0.3-0.8,0.4
		C152.3,51.3,152,50.9,151.7,50.5z M130.5,93.2c-0.1-0.7-0.2-1.5-0.2-2.3c0.2,0,0.5,0.1,0.6,0.1c0.1,0.6,0.1,1.3,0.1,1.9
		C131,93.1,130.7,93.2,130.5,93.2z M131.2,94.3c0,0.8,0,1.5,0,2.3c-0.2-0.1-0.5-0.2-0.6-0.2c0-0.6,0-1.2,0-1.7
		C130.8,94.5,131,94.4,131.2,94.3z M130,89.5c-0.1-0.6-0.7-2,0.4-1.6c0.1,0.7,0.2,1.3,0.2,2C130.3,90.1,130.1,89.9,130,89.5z
		 M129,84.8c0.8,0.5,0.9,1.5,1.1,2.3C129.1,86.8,129.1,85.6,129,84.8z M129.4,88c0.9,3.8,1.1,7.9,0.4,11.7c-0.2,2.8-1.4,5.5-3.1,7.7
		c-0.6,0.8-1.6,1.6-2.7,1.2c-2-0.7-3.5-2.4-4.4-4.3c-0.6-1.8-1.1-3.5-1.5-5.4c-0.3-1.5-0.1-3-0.4-4.5c-0.2-3.2,0.2-6.4,1-9.5
		c0.7-1.7,1.5-3.5,2.9-4.7c0.8-0.7,1.9-0.7,2.9-0.4C127.1,81.8,128.9,84.8,129.4,88z M126.4,108.3c0.3-0.3,0.5-0.5,0.8-0.8
		c0.2,0.2,0.5,0.5,0.7,0.7c-0.4,0.4-0.7,0.7-1.1,1.1C126.7,109,126.5,108.6,126.4,108.3z M126.6,109.5c-0.5,0.3-1.1,0.4-1.7,0.4
		c0-0.2,0-0.5,0-0.6c0.4-0.2,0.7-0.4,1.1-0.5C126.2,108.9,126.4,109.2,126.6,109.5z M127.5,107c0.3-0.5,0.6-1,0.9-1.5
		c0.2,0.1,0.5,0.4,0.7,0.5c-0.3,0.6-0.7,1.3-1.1,1.9C127.9,107.6,127.7,107.3,127.5,107z M128.7,105.1c0.2-0.5,0.4-1.1,0.7-1.6
		c0.2,0.1,0.5,0.2,0.7,0.2c-0.2,0.6-0.5,1.2-0.7,1.8C129.2,105.4,128.9,105.2,128.7,105.1z M124.8,109.7c-0.4-0.1-0.9-0.1-1.3-0.2
		C123.7,108.6,124.7,109.1,124.8,109.7z M122.5,108.3c0.4,0.3,0.9,0.6,0.9,1.1c-0.6-0.2-1.1-0.5-1.6-0.8
		C122,108.6,122.3,108.4,122.5,108.3z M120.7,107.2c0.7,0,1.4,0.6,1.2,1.4C121.3,108.3,120.8,107.9,120.7,107.2z M116.6,90.9
		c0-0.7,0.1-1.3,0.2-1.9c0.2,0,0.5-0.1,0.7-0.2c-0.1,0.7-0.1,1.4-0.1,2C117.1,90.8,116.8,90.9,116.6,90.9z M117.2,92
		c0,0.6,0,1.2-0.1,1.7c-0.1,0-0.4,0-0.6,0.1c0-0.6,0-1.2-0.1-1.7C116.7,92,117,92,117.2,92z M117,88.2c0.1-0.8-0.1-2,1-2.2
		c-0.2,0.7-0.3,1.5-0.4,2.2C117.4,88.2,117.1,88.2,117,88.2z M117.5,97.8c0.1,0.7,0.2,1.4,0.2,2c-0.1,0-0.4,0.1-0.5,0.1
		C117.1,99.2,116.3,98,117.5,97.8z M118.2,101c0.3,1.4,1,2.7,1.2,4.2c-1.1-1.1-1.3-2.8-1.9-4.2C117.7,101,118,101,118.2,101z
		 M120.6,107c-0.7-0.3-0.9-1-1.3-1.6C120,105.7,120.4,106.3,120.6,107z M118.8,83.3c-0.1-0.1-0.2-0.3-0.3-0.4c0.1-0.5,0.4-1,0.8-1.3
		C119.9,82.1,119.2,82.9,118.8,83.3z M119.6,81c0.2-0.5,0.7-0.8,1-1.2c0,0.2,0.1,0.6,0.2,0.7c-0.2,0.3-0.5,0.6-0.7,0.9
		C119.9,81.4,119.7,81.2,119.6,81z M121.1,79.3c0.3-0.1,0.7-0.2,1-0.3c-0.1,0.5-0.6,0.8-1,1.2C121.1,79.9,121.1,79.5,121.1,79.3z
		 M123.1,78.9c0.3,0.4-0.4,0.6-0.6,0.3C122.2,78.8,122.9,78.5,123.1,78.9z M118.2,73.7c1.3-0.8,2.7-1.5,4-2.4
		c1.3,1.8,3.1,3.4,5.1,4.5c-0.8,1.3-1.6,2.5-2.5,3.7c-0.4-0.3-0.9-0.6-1.3-1C121.5,77.2,119.9,75.4,118.2,73.7z M127.7,82.6
		c0.7,0.2,0.9,1,1.1,1.6C128.1,84.1,127.9,83.2,127.7,82.6z M126.2,80.9c0.9,0.1,1.6,0.7,1.7,1.6C127.1,82.3,126.7,81.5,126.2,80.9z
		 M113,69.3c-0.7,0.1-1.3,0.1-2,0c1.1-1.1,1.9-2.3,2.5-3.7c0.4,1.2,1,2.5,1.6,3.6c-0.3,0-1,0-1.3,0c0.2-0.4,0.4-0.8,0.6-1.2
		C113.9,68.6,113.5,69,113,69.3z M110.5,69.4c-1.4,0.2-2.7,0.1-4.1,0.1c0.4-0.5,0.8-1,1.4-1.3c1.4-0.2,2.8-0.2,4.2-0.5
		C111.4,68.2,111,68.8,110.5,69.4z M114.7,49.9c1.6,0.8,3.1,1.7,4.7,2.3c-0.9,2.1-1.3,4.3-1.6,6.5c-1.6-0.2-3.3-0.3-4.9-0.5
		C113,55.4,113.7,52.6,114.7,49.9z M112.8,62.4c0.2,0.9,0.5,1.9,0.5,2.9c-0.3,0.7-0.7,1.3-1,2c-1.3,0.1-2.7,0.2-4,0.3
		c1.1-1.6,2.2-3.2,2.9-5C111.7,62.5,112.2,62.4,112.8,62.4z M111.5,62c0.4-0.9,0.6-1.8,0.9-2.7c0.1,0.9,0.2,1.7,0.3,2.6
		C112.2,62,111.9,62,111.5,62z M111.6,53.9c-0.5,0-1.1,0-1.6,0c0.2-1.1,0.2-2.2,0.4-3.3C110.8,51.8,111.1,52.9,111.6,53.9z
		 M107.5,52.5c0.6-2.2,0.4-4.5,0.8-6.7c0.4-0.1,0.9-0.2,1.3-0.3c0.1,1.6,0.2,3.1,0.6,4.6c-0.5,1.3-0.5,2.6-0.7,3.9
		C108.9,53.4,108.2,52.9,107.5,52.5z M108,60.3c0.9-1.9,1.5-3.9,1.8-5.9c0.6,0,1.2,0,1.9,0c0.3,0.6,0.6,1.1,0.9,1.7
		c0.1,1.6-0.8,3-1.1,4.5c-0.9,2.1-1.9,4.2-3.2,6c-1.1-0.2-2.2-0.1-3.3-0.2C106.3,64.5,107.2,62.4,108,60.3z M104.8,66.7
		c1.1,0.2,2.2,0.1,3.3,0.2c-0.7,0.9-1.5,1.7-2.2,2.6c-1.3,0-2.6,0-4-0.1C102.9,68.5,103.8,67.6,104.8,66.7z M101.5,65.1
		c0.7-0.7,1.7-1.2,2.4-2c0.2,1.1,0.4,2.3,0.4,3.4c-0.8,1-1.7,1.8-2.7,2.5C101.4,67.7,101.4,66.4,101.5,65.1z M94.8,58
		c0.6,1.2,1,2.4,1.6,3.6c-0.5,1.1-0.8,2.2-1.1,3.4c-0.9-1.1-1.3-2.4-1.8-3.6C94.1,60.3,94.3,59.1,94.8,58z M41.7,63.5
		c-0.9-0.6-1.7-1.5-1.8-2.7c0.2-1.3,1.3-2.3,1.8-3.5c1.2-2.3,2.6-4.4,3.8-6.7c1.5-3,3.6-5.8,5.2-8.8c1.5-3.2,3.3-6.3,4.8-9.5
		c0.6-1.7,1.7-3.1,2.4-4.7c1-1.8,1.8-3.8,3-5.5c0.6-0.6,0.8-1.7,1.6-2.1c0.8-0.2,1.7-0.3,2.4,0.1c2.7,1.4,4.8,3.6,7.4,5.3
		c1.8,1.1,3.2,2.6,4.9,3.8c1.9,1.3,3.8,2.7,5.7,4.1c2,1.5,4.1,2.7,6.1,4.2c1,0.8,2.1,1.5,3.1,2.3c-0.3,2.6-0.4,5.1-0.5,7.7
		c-4.1-1.6-8.1-3.3-12.2-4.9c-3.7-1.6-7.3-3.3-11.3-4.3c-2.4-0.8-4.8-1.9-7.3-2.2c-1.2-0.2-2.4,0.1-3.6,0c-0.8,0.2-1.2,0.9-1.5,1.6
		c-0.7,2.3-0.8,4.8-1.3,7.1c-0.4,1.6-0.6,3.1-1.1,4.7c-0.8,2.8-1.3,5.6-2.2,8.3c-0.3,1-0.5,1.9-0.8,2.9c-1.1-0.5-2.3-0.8-3.5-1.2
		c-0.9-0.2-1.8-0.6-2.8-0.6c0.1,0.3,0.2,0.6,0.5,0.9c1.1,1.2,2.2,2.4,3.2,3.6c0.6,0.6,1,1.3,1.2,2.1c-0.2,0.7-0.4,1.3-0.6,2
		C45.8,66.6,43.7,65.1,41.7,63.5z M48.5,64.2c-0.3-0.4-0.7-0.9-1.1-1.3c0.3-0.6,0.6-1.2,0.9-1.8c0.6,0.1,1.1,0.3,1.7,0.4
		c-0.2,0.8-0.4,1.6-0.6,2.3C49.1,64,48.8,64.1,48.5,64.2z M48.9,65.1c-0.2-0.3-0.2-0.5,0.2-0.5C49.3,64.9,49.3,65.1,48.9,65.1z
		 M47.1,62.6c-0.7-0.8-1.5-1.5-2.1-2.4c1,0.2,2,0.5,2.9,0.9C47.6,61.6,47.4,62.1,47.1,62.6z M53.9,65.6c-0.3,5.8-0.2,11.5-0.1,17.3
		c-2.1,0-4.2,0.1-6.3,0.2c0.6,0.7,1.5,1.2,2.3,1.7c1.2,0.8,2.5,1.7,3.9,2.3c0,0.8,0.1,1.6,0,2.5c-2.7-0.3-5.5-1-7.9-2.4
		c-0.5-0.3-1.1-0.8-1.2-1.4c-0.4-1.8,0.2-3.6,0.5-5.5c1.2-5.6,3.1-11,4.7-16.4c1.9-6.8,4-13.6,5.4-20.6c0.4-1.8,0.4-3.8,1.1-5.5
		c1.5-1.1,3.6-0.8,5.3-0.5c2.6,0.8,5,1.9,7.6,2.6c3.7,1.2,7.3,2.7,10.9,4.2c3.8,1.4,7.5,2.9,11.2,4.4c0.2,2.6,0.2,5.3,0.4,7.9
		c-6.7-0.5-13.4-1-20.1-1.1c-2.5,0-5.1-0.1-7.6-0.1c-3.1-0.3-6.7-0.2-9.1,1.9C53.8,59.8,54.2,62.8,53.9,65.6z M52.6,83.7
		c0.4,0,0.8-0.1,1.2-0.1c0,1-0.1,2.1-0.1,3.1c-0.6-0.3-1.1-0.6-1.7-0.9C52.2,85.1,52.4,84.4,52.6,83.7z M51.6,85.5
		c-0.9-0.6-1.8-1.2-2.7-1.8c1.1,0,2.1,0,3.2,0C52,84.3,51.8,84.9,51.6,85.5z M58.3,108.9c-1-0.3-2-0.7-2.9-1.3c-0.6-1-1.1-2.1-1-3.2
		c0.1-2.3-0.1-4.6-0.3-6.9c0-2.2,0.1-4.4,0.1-6.6c0.1-2.7-0.2-5.5,0.1-8.2c0-5.4-0.2-10.8,0.2-16.1c0.2-2.1,0.1-4.2,0.3-6.3
		c0.1-1,0.2-2.3,1.1-3c2.6-1.5,5.7-1.6,8.5-1.2c2.6,0.1,5.2,0.1,7.7,0.2c6.6,0,13.2,0.5,19.8,1c0.6,2.8,1.4,5.6,2.9,8.2
		c-5.2,1.1-10.2,2.7-15.2,4.2c-2.7,0.6-5.2,1.8-7.8,2.5c-3,0.9-6.1,1.7-9,2.9c-1.6,0.4-3.1,1.2-4.1,2.4c-1.2,1.6-1,3.8-0.6,5.7
		c0.9,4,2,7.9,3,11.8c0.4,2.6,1.4,5.1,1.9,7.7c-1.1,0.2-2.1,0.6-3.1,0.9c-0.9,0.3-1.9,0.5-2.7,1.1c0.8,0.5,1.7,0.4,2.6,0.6
		c1.4,0.3,2.8,0.8,4.3,1c0.3,0.9,0.6,1.8,0.8,2.7C62.6,109,60.4,109.2,58.3,108.9z M63,103.1c0.3,0.8,0.6,1.7,0.8,2.5
		c-0.4-0.1-0.8-0.2-1.3-0.3c-0.1-0.6-0.2-1.2-0.3-1.8C62.4,103.4,62.8,103.2,63,103.1z M61.9,105.1c-1-0.2-2.1-0.4-3.1-0.6
		c0.9-0.3,1.9-0.6,2.9-0.9C61.8,104.1,61.8,104.6,61.9,105.1z M109.6,113.6c-3.3,1.2-6.6,2.3-9.9,3.3c-4.5,1.6-9.2,2.9-13.7,4.5
		c-1.5,0.4-2.9,1.2-4.4,1.6c-3.1,0.8-6.2,2-9.5,2.2c-0.9,0-2.1-0.1-2.5-1.1c-0.6-1.9-0.8-4-1.4-5.9c-0.4-2-0.9-3.9-1.6-5.7
		c-0.8-1.9-0.9-4.2-2-5.9c-0.9-2.9-1.6-5.9-2.5-8.9c-0.4-1.6-0.6-3.2-1-4.8c-0.6-2.1-1.1-4.2-1.6-6.3c-0.5-2.3-1.4-4.7-1.1-7.1
		c0.7-2.2,2.9-3.2,4.9-3.9c1.5-0.7,3.1-1.2,4.7-1.6c3.4-1.1,6.9-2.1,10.3-3.3c5.7-1.5,11.3-3.5,17.1-4.7c0.8,1.3,2,2.4,3.3,3
		c0.8,0.3,1.6,0.4,2.5,0.7c4.7,0.3,9.4,0.1,14.1-0.1c0.8,1.5,1.7,3,2.8,4.3c-2,2.9-3.3,6.2-3.7,9.6c-1.3,5.7-1.1,11.5-0.5,17.3
		c0.6,3.6,1.6,7.2,3.2,10.4C114.6,112.3,112,112.8,109.6,113.6z M115.4,96.7c-0.5,0.2-1.1,0.4-1.6,0.6c-0.1-2.6-0.4-5.2,0-7.8
		c0.5,0.3,1.1,0.6,1.7,0.9C115.2,92.5,115.3,94.6,115.4,96.7z M117.8,112.2c0-0.3,0.2-0.7,0.3-1c-0.2,0-0.7-0.1-0.9-0.1
		c0.4-0.9,0.8-1.8,1.2-2.7c0.7,1.1,1.6,2.1,2.4,3.1c-0.2,1.3-0.4,2.5-0.5,3.8C119.2,114.4,118.4,113.4,117.8,112.2z M122.8,117
		c-0.8-0.4-1.6-0.7-2.2-1.3c0.1-1.2,0.3-2.4,0.4-3.6c0-0.3,0.1-0.6-0.1-0.9c-0.9-1.1-1.7-2.2-2.5-3.3c-0.1,0-0.2,0-0.3,0
		c-0.5,0.8-0.8,1.7-1.2,2.6c-1.8-4-2.8-8.4-3.1-12.7c0.6-0.4,1.6-0.4,1.9-1.1c0.2-2.3-0.2-4.7,0.3-7c-0.8,0.3-1.5-0.3-2.2-0.6
		c0.1-2.5,0.7-4.9,1.2-7.4c0.5-2.7,1.7-5.2,3.3-7.4c0.6,0.7,1.2,1.3,1.9,2c-0.8,0.9-1.5,1.8-2.2,2.8c-0.2-0.8-0.3-1.7-0.9-2.3
		c0.1,1.1,0.6,2.1,0.8,3.2c0.8-1.2,1.6-2.4,2.6-3.5c0.6,0.6,1.3,1.2,2,1.8c-1.4,0.7-2.6,1.7-3.4,3c-0.6,1.1-1.2,2.3-1.5,3.5l0.1,0.1
		c0.4-0.2,0.4-0.8,0.6-1.1c0.2,0,0.5-0.1,0.7-0.1c-0.3,0.7-0.5,1.3-0.7,2c-0.2-0.2-0.5-0.3-0.7-0.5c-0.4,0.2-0.4,0.8-0.6,1.1
		c-0.2,1.7-0.6,3.4-0.7,5.2c-0.2,1.7,0.1,3.3,0,5l0.4,0c0-0.5-0.1-1-0.1-1.4c0.2,0,0.5,0,0.7,0c0.1,0.7,0.2,1.4,0.2,2.2
		c-0.4-0.2-0.8-0.4-1.1-0.6c0.2,2.3,0.8,4.6,1.5,6.8c0.5,1.5,1.4,2.8,2.2,4.1c1.1,1.8,3.3,2.9,5.4,2.8c0.8,0,1.4-0.5,2-1
		c1.3-1.1,1.9-2.7,2.6-4.2c0.4-1.1,0.8-2.1,0.9-3.3c-0.3,0.3-0.4,0.6-0.5,1c-0.2,0-0.5,0-0.6,0c0.1-0.6,0.3-1.3,0.4-1.9
		c0.1,0,0.4-0.1,0.6-0.1c0,0.4,0,0.9,0,1.3c0.6-0.9,0.6-2,0.7-3.1c0-0.1-0.1-0.3-0.2-0.4c-0.4,0.2-0.2,0.9-0.3,1.2
		c-0.1,0-0.4-0.1-0.6-0.1c0.1-0.7,0.1-1.4,0.2-2c0.3,0.2,0.6,0.4,0.9,0.6c0.4-4.8,0-9.8-2.1-14.1c-0.4-0.9-0.9-1.7-1.4-2.5
		c3.7,1.3,7.6,2.6,11.6,2.2c1.4,2.1,3,4.2,4.2,6.4c-1.6,1.2-3.1,2.4-4.7,3.5c-0.2-2.2-0.3-4.5-0.8-6.7c-0.3-1-0.2-2.1-0.9-2.9
		c0.2,2.1,0.7,4.1,1.1,6.1c-1,0-2,0.1-3,0.2c-0.1-1.5-0.6-3-1-4.5c-0.2-0.8-0.4-1.7-1-2.3c0.5,2.2,1.3,4.4,1.6,6.6
		c-0.9,0.2-1.8,0.4-2.7,0.9c-0.4,0.7-0.2,1.6-0.2,2.4c0.1,1.5-0.1,3.1,0.1,4.6c0.9,0.6,2,0.9,2.9,1.5c-0.2,2.9-0.6,5.8-1.4,8.6
		c-0.5,1.9-1,3.8-2.1,5.4c-0.7-1.3-1.1-2.7-1.8-4c-1.2,0.9-2.2,2.1-3.4,3c0.4,1.7,0.9,3.3,1.2,5C125.9,117.7,124.3,117.7,122.8,117z
		 M147.3,95.2c1.2,1.7,2.3,3.4,3.2,5.2c-0.2,1.7-0.8,3.3-1.2,5c-1.1,0-2.1,0-3.2,0C147.2,102.1,147.4,98.6,147.3,95.2z M146.8,99.1
		c0,2.2-0.5,4.4-1.2,6.6c-1.1-0.5-2.4-0.2-3.6-0.1c0.8-3.2,1.2-6.4,0.9-9.7c-0.4,0.8-0.2,1.8-0.3,2.7c0,1.4-0.3,2.7-0.4,4
		c-1.2,0-2.5-0.1-3.6,0.4c1.2,0.1,2.3-0.1,3.5-0.1c-0.5,2.5-1.1,5.1-2,7.5c-1.2-0.3-2.4,0-3.6,0.2c1.7-3.9,2.2-8.2,2.4-12.4
		c0.1-1.4,0.1-2.8,0-4.2c1.7-1.1,3.2-2.3,4.9-3.5c1,1.4,2.2,2.7,3,4.2C146.8,96.1,147,97.6,146.8,99.1z M145.5,105.7
		c-0.8,2.1-1.5,4.3-2.8,6.2c-1,0.3-2,0.1-3,0.3c1-2,1.8-4.2,2.3-6.3C143.1,105.8,144.3,105.7,145.5,105.7z M132.3,91.4
		c0.9-0.2,1.8-0.5,2.6-0.8c0.3,1.9,0.3,3.7,0.3,5.6c-1,0.6-1.8,1.6-2.9,1.8C132.5,95.8,132.5,93.6,132.3,91.4z M135.3,96.4
		c0,1-0.1,1.9-0.1,2.9c-0.8-0.4-1.6-0.8-2.3-1.2C133.7,97.5,134.5,96.9,135.3,96.4z M135.4,99.7c1-0.1,2-0.2,3.1-0.3
		c-0.3,4.9-1.3,9.8-3.8,14c-0.9,0-1.8,0.1-2.7,0c0.3-0.6,0.7-1.2,0.9-1.9C134.4,107.8,135.1,103.7,135.4,99.7z M135.4,90.7
		c1,0,1.9-0.1,2.9-0.3c0.1,2.1,0.5,4.1,0.4,6.2c-0.1,0.8-0.1,1.6-0.1,2.4c-1,0-2,0.1-3,0.2C135.7,96.4,135.7,93.6,135.4,90.7z
		 M128,117.6c-0.5-1.6-0.8-3.2-1.3-4.8c1.1-0.8,1.9-1.8,2.9-2.7c0.5,1.3,1,2.6,1.7,3.9c-0.7,1-1.6,1.8-2.4,2.8
		c1.2-0.7,2-1.8,2.8-2.9c0.9,0.1,1.8,0.2,2.7,0.1c-0.8,1.2-1.6,2.4-2.7,3.4C130.4,117.6,129.2,117.6,128,117.6z M132.3,117.4
		c1.4-1.8,2.9-3.6,3.8-5.8c0.2-0.3,0.2-0.7,0.5-0.8c1.2-0.2,2.3-0.3,3.5-0.3c-1,2.3-2.3,4.5-4,6.4
		C134.9,117.3,133.5,117.3,132.3,117.4z M138.5,116.7c-0.6,0.2-1.2,0.2-1.9,0.3c1.1-1.5,2.2-2.9,2.9-4.5c1,0.2,1.9,0.1,2.9,0
		C141.6,114.1,140.2,115.6,138.5,116.7z M139.5,116.4c0.6-0.7,1.6-0.1,2.4,0C141.1,116.4,140.3,116.4,139.5,116.4z M140.3,115.8
		c1.7-1.6,2.9-3.7,4-5.8c0.9,0.1,1.9,0.2,2.8,0.1c-0.9-0.3-1.8-0.3-2.7-0.4c0.6-1.3,1-2.6,1.5-3.8c1-0.3,2.2-0.1,3.3-0.1
		c-1,3.8-3.3,7.1-5.8,10C142.4,115.8,141.4,115.9,140.3,115.8z M146.5,116c-1.1,0-2.2,0-3.3,0.2c0.7-0.6,1.4-1.3,1.9-2.1
		c1.1,0.3,2.2,0.2,3.3,0.3C148,115.1,147.5,116.1,146.5,116z M149.3,113.2c-0.2,0.3-0.4,0.7-0.7,0.8c-1.1,0-2.2-0.1-3.3-0.1
		c1.1-1.4,2-2.8,2.8-4.3c1.1,0.1,2.2,0.1,3.2,0.1C150.8,111,150.1,112.1,149.3,113.2z M151.5,109.5c-1.1-0.1-2.2-0.1-3.3,0
		c1.2-2.4,1.8-5.1,2.6-7.6c0.1,0.8,0.2,1.6,0.3,2.4c0.2,1.1,0.7,2.1,1,3.2C152,108.2,151.8,108.8,151.5,109.5z M153.7,108.8
		c-0.9-2-1.7-4.2-2-6.4c-0.1-0.9,0.1-1.9-0.7-2.5c-1.6-2.8-3.1-5.6-5.1-8.1c-1.8-2.2-3.1-4.8-4.9-7c-1.6-2.4-3.3-4.8-4.7-7.4
		c-0.4-0.7-0.8-1.3-1.2-2c0.9-2.6,2.3-4.9,3.4-7.4c4.9-8.6,12.6-15.7,21.9-19.2c3.7-1.6,7.6-2.4,11.6-2.5c2.3,0.1,4.6,0.3,6.9,0.7
		c-0.7,0.6-1.5,1.2-2.3,1.8c-1,0.1-2.1-0.1-3.1-0.1c-3.3,0.1-6.6,0.7-9.7,1.9c-1.9,0.8-3.9,1.5-5.7,2.5c-2.5,1.2-4.7,3-7,4.6
		c-1,0.8-1.9,1.7-2.9,2.7c-2.5,2.5-4.9,5.1-6.7,8.1c-0.7,1.2-1.6,2.3-2,3.7c0.1,1,0.8,1.9,1.4,2.8c0.2-1.4-0.2-2.8,0.1-4.2l0.3-0.2
		c0.1,2.3-0.5,4.9,0.9,6.9c2.4,3.5,4.5,7.3,6.8,10.8c1,1.4,1.9,2.9,2.6,4.5c0.3,0.7,0.6,1.3,1.1,1.9c0.3-0.8,0.5-1.6,0.7-2.4
		c-0.3,0-0.7-0.1-1-0.1c0.1-0.4,0.1-0.8,0.2-1.2c-0.3-0.1-0.6-0.1-0.9-0.2c0-0.4,0.1-0.7,0.1-1.1c-0.3-0.1-0.7-0.2-1-0.4
		c-0.1,0.1-0.4,0.4-0.5,0.5c-0.1-0.4-0.2-0.7-0.3-1.1c0.3,0.2,0.6,0.4,0.9,0.6c0.1-0.3,0.2-0.5,0.3-0.8c-0.5,0-0.9-0.1-1.4-0.1
		c0.1-0.5,0.3-1,0.4-1.5c-0.3-0.1-0.6-0.2-0.9-0.3c0-0.3,0.1-0.6,0.1-1c-0.2-0.1-0.5-0.2-0.7-0.2c0.3-0.3,0.5-0.6,0.8-0.9
		c-0.6,0-1.2,0-1.7,0c0.1-0.5,0.1-0.9,0.2-1.4c-0.3,0-0.7,0-1-0.1c0.1-0.4,0.1-0.8,0.2-1.1c-0.3,0-0.6-0.1-1-0.1
		c0.1-0.4,0.1-0.8,0.2-1.2c-0.4,0-0.7,0-1.1-0.1c0.1-0.4,0.1-0.8,0.2-1.2c-0.5,0-0.9,0-1.4-0.1c-0.3-1.9-0.2-3.9,0.1-5.9
		c1.2-1.8,2.2-3.8,3.7-5.3c3.7-3.8,7.7-7.5,12.4-10.1c2.2-1,4.3-2.3,6.6-2.9c2.5-0.7,5.1-1.5,7.7-1.4l0.2,0.2
		c0.5,2.4,1.1,4.8,1.8,7.1c0.6,1.7,1.2,3.5,1.8,5.2c-1,0.4-2.1,0.8-3.1,0.7c-0.8-0.5-1.9-1-2.8-0.4c-0.9,0.7-1.3,1.7-1.7,2.7
		c-0.3,1.6,0.4,3.2,1.3,4.5c-1.1,0.6-2.2,1.2-3.2,1.9c-1.4,1-2.9,1.8-4.1,3c-2,1.8-4.2,3.4-5.8,5.6c-1,1.4-2.1,2.7-2.8,4.3
		c-2,3.5-3.5,7.3-4.3,11.3c-0.2,0.9,0.1,1.9-0.3,2.8c0.1,0,0.4,0,0.5,0c0-3.2,1.1-6.2,2.1-9.1c1.5-3.8,3.6-7.4,6.4-10.5
		c2.3-2.3,4.7-4.6,7.4-6.3c2.6-1.8,5.5-3.2,8.4-4.6c1.9-0.9,4-1.3,6-1.9c0.7-0.3,1.4,0.2,2,0.4c-1.2,0.4-2.4,0.5-3.6,0.9
		c-3.2,1.2-6.5,2.4-9.5,4.2c-1.9,1.2-3.9,2.5-5.7,3.8c-2,1.5-4,3.2-5.3,5.3c0.7-0.5,1.2-1.2,1.8-1.8c2.6-2.9,5.9-4.9,9.1-7
		c3.1-1.9,6.5-3.1,9.8-4.4c1.8-0.5,3.9-1.3,5.7-0.3c-2,0.4-4,0.7-5.9,1.5c-3.8,1.5-7.2,3.7-10.8,5.6c-2.8,1.8-5.7,3.7-8,6.2
		c-3.9,4.2-6.9,9.4-7.8,15.2c-0.1,1.8-0.5,3.7-0.1,5.5c0.3,2.3,1.3,4.4,2.2,6.5C155.4,111,154.4,110,153.7,108.8z M174.9,52.3
		c-0.4,0-0.8,0-1.1,0c-0.2-0.5-0.3-0.9-0.5-1.4c0.5,0,1,0.1,1.5,0.1c-0.3-0.5-0.9-0.4-1.4-0.5c-1.7,0-3.4,0.2-5.1,0.6
		c-0.9,0.2-1.6,0.8-1.9,1.6c0.2,0.7,1,1,1.7,0.9c1.1-0.1,2.3-0.4,3.4-0.5c-0.2-0.7-0.4-1.4-0.5-2.1c0.6-0.1,1.2-0.1,1.8-0.2
		c0.2,0.6,0.4,1.2,0.6,1.8c0.7,0.1,1.8-0.3,1.7,0.7c-3.3-0.2-6.5,0.9-9.5,1.9c-3.2,1.5-6.5,3-9.3,5.2c-2.1,1.6-4.1,3.3-5.9,5.2
		c-1.3,1.4-2.7,2.7-3.9,4.3c-0.7,1-1.3,2.2-1.9,3.2c-0.5-0.4-1-0.9-1.5-1.4c0.4-0.1,0.8-0.2,1.2-0.1c0-0.1-0.1-0.4-0.1-0.5
		c-0.4,0.1-0.8,0.2-1.2,0.3c0-0.6-0.1-1.2,0.2-1.7c0.4-0.6,0.9-1.1,1.3-1.6c-1.4,0.4-2.1,1.9-1.9,3.2c-0.3-0.3-0.6-0.7-0.9-1
		c1.1-1.9,2.3-3.8,3.9-5.4c1.7-2.1,3.6-4,5.6-5.8c2.1-1.7,4.2-3.4,6.6-4.7c2.9-1.6,6-2.8,9.1-3.8c2.8-0.7,5.8-1.2,8.7-0.8
		C175,50.3,174.8,51.3,174.9,52.3z M171,52.9c-1.4,0.1-3,0.8-4.3,0c0.4-1.8,2.6-1.6,4.1-1.9C170.8,51.6,170.9,52.2,171,52.9z
		 M144,78.5c-0.7-0.9-1.4-1.9-1.8-3c-0.1-1.5-0.2-3.1-0.2-4.6c0.8,0.8,1.5,1.7,2.3,2.4C143.9,75,144,76.7,144,78.5z M140.8,73.3
		c-0.2-0.4-0.6-0.8-0.6-1.3c0.2-0.2,0.4-0.5,0.6-0.7C140.8,71.9,140.8,72.6,140.8,73.3z M146.2,81.9c-0.4,0-0.6-0.8-0.9-1.2
		c0.3,0,0.8,0,1.1,0C146.4,81.1,146.3,81.5,146.2,81.9z M147.1,82.1c-0.1,0.4-0.1,0.9-0.2,1.3c-0.2-0.4-0.7-0.7-0.7-1.2
		C146.5,82.2,146.9,82.1,147.1,82.1z M145.3,80.7c-0.2-0.3-0.5-0.7-0.7-1c0.2,0,0.6,0,0.8,0C145.4,80,145.4,80.3,145.3,80.7z
		 M150.3,87c-0.1,0.4-0.2,0.8-0.2,1.1c-0.6-0.6-1.1-1.4-1.4-2.2c0.2,0,0.6-0.1,0.8-0.1c0,0.4-0.1,0.8-0.1,1.3
		C149.5,87,150,87,150.3,87z M148.5,85.7c-0.3-0.3-0.6-0.7-0.8-1c0.4,0,0.8,0.1,1.1,0.1C148.8,85,148.6,85.4,148.5,85.7z M147.3,84
		c-0.2-0.3,0.1-0.9,0.4-0.6C148.2,83.6,147.7,84.7,147.3,84z M152.4,92.3c-0.3-0.5-0.5-0.9-0.7-1.4c0.3,0,0.8,0,1,0
		C152.6,91.3,152.5,91.8,152.4,92.3z M153.4,92.2c-0.1,0.5-0.3,0.9-0.4,1.4c-0.2-0.4-0.4-0.8-0.6-1.3
		C152.7,92.3,153.1,92.3,153.4,92.2z M151.8,90.8c-0.3-0.3-0.5-0.7-0.8-1c0.3,0,0.5-0.1,0.8-0.1C151.8,90,151.8,90.4,151.8,90.8z
		 M182.1,140.8c-1.7-1.2-3.2-2.8-4-4.7c-0.6-1.5-1.1-3.1-1.1-4.8c0.1-2.3,0-4.7,0.8-6.9c1-2.7,2.4-5.4,4.4-7.6l0.4-0.2
		c-0.5,1-1.2,1.9-1.8,2.9c-1.7,2.7-2.7,5.8-3.1,9c-0.1,1.3-0.3,2.6,0,3.9c0.3,1.8,1.1,3.4,1.9,5c1.1,1.8,3,2.8,4.8,3.9
		C183.7,141.2,182.8,141.2,182.1,140.8z M181.8,134.8c0.2,1,0.3,2.1,0.9,3c-0.3-1.6-0.8-3.2-0.7-4.9c0-1.4,0.7-2.7,1.1-4
		c1.7-4,4.8-7.1,7.8-10.2c2.2-2,4.5-3.9,6.9-5.5c0.2,0.1,0.4,0.3,0.5,0.4c0-0.8,0.6-1.2,1.2-1.6c-0.2-0.6-0.5-1.2-0.7-1.8
		c0.2-0.1,0.6-0.2,0.8-0.3c0.4,1,0.8,2,1.3,3c-2.4,2-5.1,3.5-7.3,5.7c-1.1,1-2.1,2.1-3.2,3.2c-3,3.2-5.9,6.7-7.2,11
		c-0.4,2-0.6,4.1,0,6c0.3,0.7,0.7,1.3,1.1,2c-1.8-1-2.6-3.1-3.1-5.1c-0.2-1.7-0.7-3.5-0.2-5.3c0.5-1.9,1.4-3.6,2.3-5.4
		c1.4-2.4,3.4-4.3,5.3-6.3c1.2-1.3,2.5-2.4,3.8-3.6c1.6-1.5,3.5-2.5,5.3-3.8c0.1,0.5,0.6,1.1,0,1.5c-4.2,2.7-8,6.1-11.2,10
		c-2,2.3-3.6,5-4.6,7.8C181.5,131.8,181.6,133.3,181.8,134.8z M198.2,110.7c0.6-0.1,0.7,0.6,0.9,1c-0.2,0.2-0.3,0.4-0.6,0.6
		C198.4,111.8,198.2,111.2,198.2,110.7z M186.1,141.5c-1.2-1-2.5-2.3-2.8-3.9c-0.3-2.7,0.2-5.5,1.5-7.9c1.3-2.4,2.9-4.6,4.8-6.6
		c2.4-2.6,4.9-5.2,7.8-7.2c1.3-1.1,2.8-1.9,4-3.1c-0.6-1-1-2-1.5-3c0.2,0,0.5,0,0.6,0c0.5,1.1,0.9,2.3,1.6,3.4
		c-2.3,2.2-5.1,3.8-7.4,5.9c-1.4,1.6-2.8,3.1-4.3,4.6c-2.1,2.2-4,4.8-5.4,7.6c-1,2-1.1,4.4-0.7,6.6c0.8,2.2,3,3.5,4.9,4.5
		C188.2,142.1,187.1,142,186.1,141.5z M201.1,110c0.6,0.9,1.1,1.9,1.4,2.9C201.8,112.1,201.3,111.1,201.1,110z M184.7,137.9
		c-0.6-2.6-0.1-5.5,1.3-7.8c2.1-4.1,5.7-7.2,8.7-10.6c2.5-2.3,5.5-4.1,7.9-6.5c0.3,0.5,0.5,1,0.8,1.5c-2,1.3-4,2.4-5.8,3.9
		c-2.8,2.1-5.5,4.5-7.6,7.4c-2,3.1-4.5,6.3-4.3,10.2c0.1,1.2,0.2,2.8,1.3,3.6c-0.5-1.6-1.1-3.2-0.8-4.9c0.3-2.7,1.8-5.1,3.3-7.3
		c2.2-3.6,5.4-6.3,8.7-8.8c1.8-1.5,3.9-2.7,5.8-4c-0.8-1.7-1.7-3.4-2.5-5.1c0.5,0,1.1-0.1,1.6-0.1c0.8,1.8,1.9,3.4,2.7,5.3
		c-0.1,0-0.3-0.1-0.4-0.1c-0.7-1.3-1.4-2.6-2.1-3.9c-0.2-0.4-0.4-0.8-0.8-1c0.6,1.9,1.8,3.5,2.7,5.3c-4.1,2.7-8,5.8-11.4,9.3
		c-1.7,1.8-3.3,3.7-4.4,5.9c-0.8,1.5-1.7,3.1-1.7,4.8c0.2,1.6,0.2,3.2,0.8,4.7c1.2,1.6,3.3,2,5.1,2.7
		C190,142.5,186.3,141,184.7,137.9z M191.8,141.4c-0.8-0.3-1.6-0.6-2.3-1.1c-0.5-0.6-0.9-1.2-1.2-2c-0.3-1.2-0.3-2.4-0.4-3.6
		c0.2-2.1,1.3-3.9,2.3-5.7c1.9-3,4.6-5.4,7.3-7.8c2.6-2.4,5.5-4.4,8.4-6.6c0.2,0.3,0.3,0.6,0.5,1c-0.9,0.5-1.7,1.1-2.5,1.7
		c-3,2.5-6.4,4.6-8.9,7.7c-1.4,1.8-3.1,3.4-4,5.5c-0.4,0.9-0.9,1.8-1.2,2.8c-0.2,1-0.2,2.1-0.2,3.1c0,0.9,0.5,1.7,0.3,2.6
		c0.9,0.8,1.6,1.8,2.7,2.2c1.1,0.5,2.4,0.4,3.6,0.6C194.7,142.2,193.2,141.8,191.8,141.4z M207.4,136.9c-2.2,1.1-4.2,2.6-6.7,3
		c-0.3,0.1-0.6,0.2-0.8,0.3c0.1,0.1,0.2,0.3,0.2,0.4c-1,0.5-2,0.9-3.2,0.8c-2.2,0-4.7-0.1-6.1-2c-0.9-2-1-4.3-0.5-6.4
		c0.7-1.7,1.5-3.5,2.7-5c1.7-1.9,3.2-4,5.2-5.7c1.1-0.9,2.2-1.8,3.4-2.7c1.8-1.4,3.5-3,5.5-4.1c-0.9-1.1-1.5-2.4-2.2-3.6
		c-0.5-0.9-1.1-1.9-1.5-2.9c0.8,0.1,0.9,0.9,1.3,1.5c0.9,1.8,2,3.5,3,5.3c-3.1,2-6.1,4.3-8.6,7c-2.1,2-3.9,4.2-5.5,6.6
		c-1.1,2-2.3,4.1-2,6.5c0.2,1.7,1,3.5,2.7,4.1c1.7,0.8,3.6,0.8,5.4,0.7c0-0.1,0.1-0.4,0.1-0.5c-1.7,0.2-3.4,0.2-5-0.4
		c-1.5-0.5-2.5-2.1-2.7-3.6c-0.3-1.5,0.2-3.1,0.8-4.4c1.5-3.4,4-6.1,6.7-8.7c2.6-2.8,5.7-5.1,8.8-7.3c-0.6-0.4-0.9-1-1.2-1.6
		c-0.9-1.6-1.9-3.2-2.7-4.8c0.5,0,1,0.1,1.5,0.1c0.8,1.9,2,3.6,2.8,5.4c0.3,0.6,0.9,1.4,0.2,1.9c-2.6,1.6-4.9,3.7-7.2,5.7
		c-1.9,1.6-3.2,3.6-4.8,5.5c-1.6,2.5-3.7,5-3.5,8.2c-0.1,1.2,0.7,2.1,1.7,2.6c1.4,0.9,3.2,0.5,4.7,0c1.9-0.6,3.7-1.4,5.3-2.6
		c-1.4,0.3-2.7,1-4.1,1.4c-1.1,0.3-2.2,0.6-3.3,0.7c-1.1,0.2-2.3-0.3-3.1-1.2c-0.4-0.8-0.3-1.7-0.3-2.5c2.2,0.2,4.5-0.4,6.6-1.1
		c1.2-0.4,2.1-1.4,3.2-2c2-1.3,3.9-2.8,5.5-4.5c1.9-2.8,3.2-6,3.8-9.3c0.1-0.9,0.3-1.9-0.3-2.6c-0.4,1.2-0.4,2.4-0.7,3.6
		c-0.5,1.7-1.2,3.4-2,5.1c-0.7,1.4-1.5,2.9-2.7,3.9c-2.3,2.2-5,4-8,5.2c-1.6,0.6-3.4,0.7-5.1,0.9c0.1-0.4,0.3-0.7,0.4-1.1
		c1.8-0.3,3.6-0.7,5.3-1.4c3.9-1.8,7.4-4.6,9.5-8.4c0.7-1.5,1.3-3.1,1.6-4.8c0.3-1.8,0.8-3.6,0.7-5.5c-0.6,0.3-0.7,1.1-0.7,1.7
		c-0.1,1.3-0.5,2.6-0.8,3.9c-0.5,0.3-0.8-0.5-1.2-0.8c0.1-0.5,0.3-1,0.3-1.5c-0.2-0.6-0.5-1.1-0.8-1.6c0.3-0.9,0.7-1.8,0.5-2.7
		c-0.4,0.6-0.5,1.4-0.7,2.1c-1-1.2-1.6-2.6-2.2-4c1.8,0.3,3.4,1.2,4.9,2.2c1.4,0.9,2.3,2.3,3.3,3.6c1.9,2.8,2.1,6.4,1.5,9.6
		c-0.3,1.4-0.8,2.7-1.4,4C213,132.2,210.2,134.8,207.4,136.9z M204,128.2c-0.4,0-0.8,0-1.3-0.1c-0.6-0.7-1.4-1.5-1.4-2.5
		c-0.1,0-0.3,0.1-0.4,0.1c0.2,1.3,1.1,2.3,2.2,3c-1.3,0.7-2.5,1.5-3.9,2c-0.7,0-1.3-0.4-1.4-1.1c0.4-0.2,0.7-0.3,1.1-0.5
		c-0.5-0.2-1-0.4-1.5-0.7c0.3-0.4,0.5-0.7,0.9-1c0.5,0.1,0.7,0.6,1.1,0.9c0.2,0,0.5-0.1,0.7-0.2c-0.2-0.3-0.4-0.6-0.6-1
		c-0.3,0-0.7,0-1,0c2-2.9,4.8-4.9,7.3-7.3c-0.9,1.9-2.4,3.5-4.1,4.6c-0.2,0.9,0.3,1.7,1.1,2c-0.3-0.6-0.7-1-1.1-1.5
		c0.6-0.5,1.2-0.9,1.8-1.4c0.2,0.4,0.4,0.8,0.6,1.2c-0.2,0-0.7,0.1-1,0.1c0.4,0.6,0.7,1.2,1.4,1.5c0.4,0,0.8-0.1,1.2-0.2
		c-0.2-0.4-0.5-0.8-0.8-1.3c-0.4,0.2-0.7,0.5-1.1,0.7c0.2-0.3,0.4-0.6,0.7-0.9c-0.2-0.5-0.6-0.8-1-1.1c0.6-0.5,1.1-1.1,1.4-1.8
		c0.3,1.2,1.2,2.3,2.4,2.8c-1,1.1-2,2.2-3.1,3.2c-0.4-0.4-0.7-0.8-1.2-1.1C203.4,127.3,203.7,127.8,204,128.2z M197.9,131.2
		c-0.9,0.2-1.7,0.4-2.6,0.6c0.4-0.7,0.8-1.4,1.3-2C197,130.3,197.5,130.8,197.9,131.2z M197.4,128.8c0.3,0.5,0.2,1.1,0.2,1.7
		C197.2,130,196.6,129.2,197.4,128.8z M205,125.8c0.1,0.4,0,0.5-0.4,0.4C204.5,125.8,204.7,125.7,205,125.8z M205.5,121.9
		c0.9,0.4,1.5,1.3,1.8,2.3C206.3,123.8,205.7,122.9,205.5,121.9z M205.6,121.5c0.5-0.6,1-1.2,1.4-1.9c0.2,0.5,0.5,0.9,0.8,1.3
		c0.3,0.3,0.9,0.1,1,0.6c0.7,1.1-0.5,2-1.1,2.9C207.3,123.2,206.7,122.1,205.6,121.5z M208.3,120.9c-0.3-0.7-0.6-1.5-0.8-2.3
		c0.6-0.5,1.3,0.3,2,0.3c-0.2-0.5-0.6-0.9-0.8-1.4c0.6,0.4,1.1,1,1.6,1.5c-0.2,0.7-0.4,1.3-0.6,2
		C209.2,120.9,208.7,120.9,208.3,120.9z M220.2,113c-0.7-1.2-0.7-2.7-1.5-3.8c-1-1.4-1.5-3-2.7-4.2c1.3,2.8,3,5.4,3.9,8.4
		c0.2,0.6,0,1.1-0.1,1.7c-0.3-2.3-1.4-4.5-2.5-6.5c0.1,1,0.6,1.8,1,2.7c0.6,1.6,1.2,3.2,1.2,5c0.2,1.7-0.5,3.3-1,4.8
		c-0.2,0.9-0.6,1.7-0.9,2.6c-0.6,1.2-0.9,2.5-1.6,3.6c0.9-3.2,1.3-6.8,0-9.9c-0.5-1.6-1.7-2.9-2.7-4.1c-1.3-1.5-3.1-2.4-4.9-3.3
		c-1-0.4-2.1-0.4-3-1c-2.2,0-4.3,0.3-6.5,0.7c-1.3,0.2-2.4,0.9-3.6,1.3c-2.1,0.7-4,2-5.8,3.4c-3,2.8-5.9,5.8-7.5,9.6
		c-0.6,1.3-1.1,2.7-1.4,4.1c-0.3,1.4-0.9,2.8-0.7,4.2c0.4-0.7,0.4-1.6,0.7-2.5c0.6-2.1,1.1-4.3,2.1-6.3c1.4-3.2,3.9-5.6,6.2-8
		c2.7-2.7,6.2-4.3,9.8-5.4c-1.9,1.6-4.2,2.8-6.1,4.4c-0.2-0.4-0.4-0.8-0.6-1.2c-0.1,0.5,0.1,1.1,0.3,1.6c-2.2,1.8-4.1,3.8-6,5.9
		c-2.6,2.7-4.6,6.1-5.5,9.8c-0.4,2.8,0.4,5.6,1.2,8.2c-2-2.2-2.9-5.3-2.9-8.2c0.2-3.4,1.5-6.6,3.2-9.5c0.7-1.3,1.5-2.5,2.4-3.6
		c1.8-2.1,3.7-4.2,6-5.6c3.6-2.4,7.7-4.5,12.1-4.5c0.2,0,0.5-0.1,0.7-0.1c-1.4-0.2-2.9-0.2-4.2,0.2c-2,0.6-4,1.3-5.8,2.4
		c-2,1.1-4,2.2-5.7,3.8c-1.6,1.5-3.1,3.1-4.4,4.9c-2.3,3.5-4.4,7.3-4.7,11.5c-0.2,1.5,0.3,3,0.4,4.6c-0.5-1-0.7-2.1-0.8-3.3
		c-0.2-7.1,3.4-14.1,9-18.2c3.5-2.7,7.3-5.2,11.6-6.4c2.1-0.6,4.2-0.3,6.3-0.2c1.3,0.2,2.7,0.3,4,0.7c3.9,1.1,6.9,4.4,8.1,8.3
		c0-0.1,0.1-0.3,0.1-0.4c-0.9-3-3-5.6-5.6-7.2c-1.6-1.1-3.5-1.7-5.4-2.3c0.3,0.2,0.6,0.5,0.9,0.7c-2.4-0.2-4.9-0.5-7.4-0.2
		c-2.5,0.4-4.8,1.5-6.9,2.8c-2.4,1.1-4.5,2.8-6.6,4.4c-0.7,0.5-1.2,1.2-1.9,1.5c0.2-0.5,0.6-0.9,0.8-1.3c-2.5,2.4-5,4.9-6.4,8.1
		c-1.3,2.5-2.1,5.2-1.9,8c-0.4,2.8,0.6,5.6,1.8,8.1c-0.8-0.7-1.6-1.5-1.9-2.6c-0.4-1.3-0.6-2.6-0.8-3.8c-0.1-2.9,0.6-5.7,1.6-8.4
		c1.1-2.4,2.3-4.8,4-6.8c2.9-3.6,6.6-6.4,10.5-8.8c2.6-1.2,5.3-2,8-2.5c0.7-0.2,1.5-0.2,2.3-0.3c0-0.1,0-0.4,0-0.5
		c0.3,0,0.6,0,0.9,0c0.9,0.1,1.9,0.1,2.8,0.4c0.7,0.1,1.3-0.1,2-0.3c-2.2-0.3-4.4-0.6-6.6-0.1c-1.3,0.3-2.7,0.5-4,1
		c-2.1,0.7-4.3,1.3-6.3,2.4c-0.9,0.7-1.9,1.3-2.8,1.9c-3.3,2.3-6.3,5.1-8.6,8.3c-1.8,2.9-3.4,6-4,9.4c-0.8,3.1-0.4,6.4,0.9,9.4
		c0.9,1.8,2.3,3.3,4.1,4.3c0.4,0.2,0.8,0.4,0.9,0.9c-1.6-0.4-2.9-1.6-4.3-2.5c-2.3-3.2-3.4-7.2-3.2-11.1c0.4-2.8,1.5-5.5,2.8-8
		c0.2-0.5,0.1-1,0.4-1.4c1.5-2.3,3-4.7,5-6.6c0.5-0.5,1-1.1,1.5-1.6c4-3.6,8.7-6.5,14-7.6c3.6-0.7,7.4-1.4,10.9-0.2
		c2.2,0.6,4.1,1.9,6.1,2.9c-0.6-0.8-1.6-1.3-2.5-1.8c-1.9-1-3.9-1.9-6-2.1c-2.2-0.4-4.5,0.1-6.7,0.4c-2.7,0.5-5.5,1.1-7.9,2.4
		c-3,1.4-5.7,3.4-8.1,5.6c-0.8,0.9-1.6,1.7-2.5,2.6c-1.7,1.9-3.2,4.1-4.5,6.3c-0.4,0.7-0.8,1.5-1,2.3c0-0.2-0.1-0.6-0.2-0.8
		c-3.1,4.5-3.4,10.6-1,15.4c0.5,1.1,1.1,2.2,1.9,3.1c0.4,0.5,0.8,1.1,1,1.8c-1.1-0.8-1.9-1.9-2.7-3c-0.3-0.5-0.9-0.5-1.4-0.8
		c-0.7-0.6-1.2-1.5-1.8-2.2c-0.3,0.1-0.5,0.3-0.8,0.4c-0.4-0.8-0.9-1.6-1.4-2.3c-0.2-0.4-0.6-0.8-0.3-1.3c0.4-0.9,0.7-1.8,0.9-2.8
		c0.3-1.5,0.9-2.9,1.2-4.3c0.5-2.4,1.8-4.5,2.7-6.8c1.2-2.4,2.7-4.7,4.4-6.7c0.7-0.8,1.6-1.6,2.3-2.5c-3.2,2.1-5.2,5.5-7,8.7
		c-0.9,2.3-2.2,4.5-2.7,7c-0.4,1.6-1,3.2-1.3,4.8c-0.2,0.8-0.5,1.7-0.9,2.4c-0.6-0.4-0.9-1.1-1.2-1.7c-0.6-1.2-1.3-2.2-2-3.4
		c1.7-1,2.7-2.8,3.8-4.3c2.4-4.3,5.2-8.4,8.5-12.1c1.4-1.8,3-3.3,4.6-4.9c2.3-2.4,5.2-4.1,8-5.7c5.6-3.2,12.3-3.6,18.5-3
		c-0.9-0.5-1.9-0.6-2.9-0.6c-4.6-0.4-9.3,0.2-13.5,2c-3.9,1.9-7.8,4.1-10.9,7.3c-1,1.1-2.2,2.1-3.2,3.2c-1.8,2.2-3.7,4.2-5.3,6.5
		c-1.6,2.2-3,4.6-4.3,7c-1,1.4-1.9,2.9-3.2,4.1c-1.4-2.7-3-5.3-4.6-7.8c-0.9-1.9-2.1-3.6-3-5.4c-0.4-0.7-1.1-1.2-1.4-2
		c-0.9-2.3-1.7-4.7-1.8-7.2c0.1-1.9,0.2-3.8,0.7-5.7c0.3,0,0.6-0.1,0.9-0.1c0,0.4,0,0.8-0.1,1.2c-0.3-0.2-0.6-0.5-0.9-0.7
		c0.4,1.3,1.3,2.5,2,3.7c0.6,1.1,1.3,2.2,2,3.3c0.5,0.7,0.5,1.6,0.9,2.2c0.8,1.3,1.5,2.7,2.3,4c0.6,1.2,1.1,2.3,1.9,3.4
		c0.8,1.1,2.6,1.4,3.7,0.4c0.8-0.5,1.1-1.5,1.8-2c-0.3,0.8-0.5,1.6-1.1,2.2c-0.9,0.5-2.1,1.2-3.1,0.7c-0.3-0.1-0.7-0.3-1-0.4
		c0.8,1.2,1.2,2.7,2.1,3.8c1.3-1.2,1.6-3.1,2.8-4.3c0.4-1.7,1.7-3.1,2.4-4.7c1-1.6,2.1-3.3,3.5-4.7c2.2-2.5,4.9-4.5,7.6-6.4
		c2.3-1.6,4.6-3.1,7.2-4.2c4-1.5,8.1-2.7,12.4-2.8c2.4,0,4.6,0.6,6.9,1.3c0.5,0.2,1.1,0.2,1.6,0.2c0.2,0.6,0.4,1.3,0.8,1.9
		c1.9,2.6,3.3,5.5,4.6,8.5c-0.9-0.8-1.6-1.8-2.7-2.4c-2.1-1.3-4.3-2.5-6.7-3.1c-1.9-0.4-3.9-0.5-5.9-0.4c1.2,0.2,2.5,0.2,3.7,0.3
		c3.4,0.4,6.6,1.9,9.2,3.9c-0.2,0-0.5,0-0.7,0c2.1,1.9,4,4.1,5.3,6.6C219.7,110.3,220.4,111.6,220.2,113z M174,130.2
		c0,1.2,0.3,2.4,0.5,3.5c-0.1-0.1-0.2-0.3-0.2-0.4c-1-3.4-0.9-7.2,0.6-10.5c0.2-0.1,0.5-0.2,0.6-0.2
		C174.5,125,173.7,127.6,174,130.2z M168.7,116c-0.5,1-0.9,2-1.5,3c-0.4-0.8-0.8-1.7-1.3-2.4C167,116.7,167.9,116.3,168.7,116z
		 M216.6,104.5c-0.4,0-0.5-0.2-0.5-0.5C216.5,104,216.6,104.2,216.6,104.5z M215.8,103.6c-0.5-0.1-0.8-0.6-1.1-0.9
		c-0.3-0.3,0.3-0.3,0.4-0.1C215.3,103,215.8,103.2,215.8,103.6z"/>
	<path class="st0" d="M66.8,63c0.2,0.6,1.1,0.7,1.6,0.5c1.2-0.5,2.3-1.5,3.3-2.4c-1-0.9-2.2-1.7-3.5-2.2c-0.6-0.2-1.4,0.1-1.7,0.7
		c-0.2,0.6,0.3,1.1,0.6,1.5C66.9,61.7,66.4,62.3,66.8,63z M67.9,59.4c1.2,0.3,2.1,1.1,3.2,1.7c-1,0.7-1.9,1.5-3.1,1.8
		c-0.2-0.1-0.6-0.2-0.8-0.3c0.2-0.6,0.5-1.2,0.9-1.7c-0.4-0.2-0.9-0.4-0.9-1C67,59.6,67.5,59.3,67.9,59.4z"/>
	<path class="st0" d="M74.1,79.1c0.5-0.6-0.3-1.2-0.3-1.8c-0.1-0.5,0.2-1.3-0.4-1.6c-0.4-0.3-0.9,0-1.2,0.4c-0.5,0.8-1,1.6-1.6,2.3
		c0.7,0.1,1.3,0.5,1.9,0.9C73,79.8,73.8,79.7,74.1,79.1z M73.2,76.1c-0.1,0.5-0.2,0.9-0.3,1.4c0.2,0.6,1.2,0.9,0.8,1.6
		c-0.9,0.3-1.5-0.6-2.2-1C72.1,77.3,72.3,76.3,73.2,76.1z"/>
	<path class="st0" d="M83.1,116.1c-0.3,0-0.6,0-0.9,0c-0.5,1-1.1,2-2.1,2.6c1.3,0.2,2.4,1.5,3.8,0.8c0.1-0.7,0-1.4-0.6-1.8
		C83.4,117.1,83.5,116.5,83.1,116.1z M83.5,119.2c-0.8,0.1-1.5-0.3-2.2-0.7c0.5-0.6,0.8-1.3,1.2-2c0.1,0,0.4-0.1,0.5-0.2
		c0.1,0.6-0.1,1.1-0.5,1.4C83,118.2,83.5,118.5,83.5,119.2z"/>
	<path class="st0" d="M107.3,85.8c-0.3-1.1-0.4-2.3-0.8-3.4c-0.1,0.1-0.4,0.3-0.5,0.3c-0.2,1.9,0.3,4.3-1.1,5.8
		c-0.7,0.4-1.6,0.4-2.4,0.7c0.4-1.3,0.8-2.8,0.1-4.1c-0.5-1.2-1.7-2.2-3-1.9c-1.2,0.3-2.2,1.2-2.7,2.3c-1.1,2.5-2.2,5-4,7.1
		c-0.4,0.5-1.3,0.5-1.4,1.2c1,0.1,1.9,0.3,2.8,0.6c2.5,0.8,4.4,2.6,7,3.1c1.2,0,2.7-0.1,3.4-1.2c0.8-0.9,0.5-2.2,0.1-3.2
		c-0.6-1.3-1.8-2-3-2.6c1-0.3,2-0.3,3.1-0.3c0.7,0.2,1.3,0.6,1.9,1c1.1,0.8,1.6,2.1,2.6,3.1c0.1-0.2,0.4-0.5,0.5-0.7
		c-0.4-0.7-0.8-1.3-1-2.1C108.4,89.6,107.7,87.8,107.3,85.8z M101.3,90.3c-0.3,0.2-0.6,0.3-0.9,0.5c1.5,0.7,3.5,1.6,3.6,3.5
		c0.4,1.8-1.9,2.9-3.3,2.2c-2.5-1-4.6-2.8-7.3-3.3c0.6-0.9,1.3-1.7,1.9-2.6c0.7-1.2,1.3-2.6,1.9-3.9c0.9-0.9,1.7-2.2,3.1-2.2
		c0.9-0.1,1.4,0.8,1.6,1.5C102.4,87.5,101.8,89,101.3,90.3z M105.9,89.5c0.3-0.7,0.6-1.4,1-2.1c0.3,1.1,0.7,2.1,1,3.2
		C107.2,90.2,106.5,89.8,105.9,89.5z"/>
	<path class="st0" d="M100,30.7c-1.1,0.7-1.9,1.9-2.5,3c-2.4,5.3-2.8,11.3-2.5,17.1c0.4,2.6,0.7,5.4,2.3,7.7
		c0.7,0.9,0.9,2.3,2.1,2.9c0.6,0.5,1.5,0.3,2.2-0.1c1.1-0.8,1.9-2,2.6-3.2c1.4-3,2-6.4,2.3-9.7c0.1-2.2,0.5-4.4,0.3-6.6
		c-0.1-3.3-0.2-6.8-2.3-9.5c-0.7-0.7-1.1-1.6-2-2c0.6,1.4,1.9,2.3,2.5,3.7c0.8,1.5,1.1,3.2,1.2,4.9c0.2,2.3,0.3,4.6,0.1,6.9
		c-0.3,3.5-0.5,7-1.8,10.3c-0.6,1.9-1.6,3.8-3.3,4.9c-0.9,0.7-2.1-0.1-2.5-1c-0.4-1.1-1.3-1.9-1.8-2.9c-1-1.9-1.2-4-1.5-6.1
		c-0.4-5.7,0.1-11.6,2.4-16.9c0.6-1.3,1.4-2.5,2.7-3.2c0.7-0.3,1.4,0.3,2,0.5C102.1,30.4,100.8,30.1,100,30.7z"/>
	<path class="st0" d="M98.8,39.2c-1.3,0.6-2,2-2.4,3.3c-0.5,1.6-0.7,3.3-0.1,4.8c0.8-0.1,1.3-0.8,1.7-1.4c0.8-1.4,1.4-3,1.6-4.7
		C99.6,40.5,99.5,39.7,98.8,39.2z M96.7,46.1c0-2,0.6-4.1,1.9-5.7C98.6,42.5,97.9,44.5,96.7,46.1z"/>
	<path class="st0" d="M100.7,48.2c0.5-1.4,1.2-2.8,1-4.3c0-0.6-0.1-1.3-0.8-1.4c-1.3,0.1-1.7,1.6-2.2,2.7c-0.8,1.7-1.2,3.6-0.8,5.5
		C99.4,51,100.2,49.4,100.7,48.2z M101,43.3c0.1,1.1-0.3,2.2-0.6,3.3c-0.4,1.3-1.1,2.5-2,3.5C98.3,47.5,99.2,45,101,43.3z"/>
	<path class="st0" d="M103.3,49.5c1,0.3,1.8-0.6,1.9-1.5c0.2-1.1,0.4-2.5-0.5-3.4c-0.7-0.5-1.6-0.1-2.1,0.5
		c-1.1,1.3-1.7,3.2-1.1,4.9c0.2,0.8,0.9,1.1,1.6,1.5c-0.1,0.4-0.2,0.8-0.3,1.2c-0.4-0.4-0.8-0.9-1.3-1.1c-0.7-0.1-1.7,0.2-1.9,1
		c0.6,0.2,1.2,0.1,1.7,0.6c0.3,0.6,0.6,1.2,0.9,1.7c0.7-1.1,1.2-2.4,1.6-3.7c-0.7-0.5-1.6-1-1.7-2c-0.3-1,0.2-1.9,0.5-2.8
		c0.3-0.1,0.6-0.2,0.9-0.2c0.8,0.2,0.8,1.2,1.2,1.8C103.8,47.9,103.1,48.6,103.3,49.5z M102.1,53.9c-0.1-0.4-0.3-0.9-0.4-1.3
		c0.2,0.3,0.5,0.5,0.7,0.8C102.3,53.6,102.2,53.7,102.1,53.9z M102.8,45.5c0.4-0.3,0.8-0.6,1.4-0.5c0.4,0.4,0.6,1,0.7,1.5
		C104.4,46,103.7,45.5,102.8,45.5z M104.3,48.5c0.3,0.3-0.2,0.7-0.5,0.5C103.5,48.8,104,48.4,104.3,48.5z"/>
	<path class="st0" d="M122.5,97c0.6-1.1,0.7-2.4,1-3.6c0.2-1,0.7-1.9,0.4-2.9c-0.6,1.2-0.7,2.5-1.2,3.7
		C122.6,95.2,122.2,96.1,122.5,97z"/>
	<path class="st0" d="M129.8,63.5c2.3,1.6,4.5,3.4,7,4.9c0.6-0.8,1.2-1.7,1.8-2.6c-0.4-0.3-0.8-0.6-1.3-0.9
		c-0.4,0.5-0.7,1.1-1.1,1.6c-1.2-0.9-2.5-1.5-3.6-2.4c-1-0.7-2-1.3-3-2c-0.2,0.2-0.3,0.4-0.4,0.6C129.1,63.1,129.5,63.3,129.8,63.5z
		 M132,64.2c1.4,1,2.8,1.9,4.2,2.9c0.5-0.5,0.9-1.1,1.3-1.7c0.1,0.1,0.4,0.3,0.6,0.4c-0.5,0.7-0.9,1.4-1.4,2.1c-2-1.2-3.8-2.7-5.7-4
		c-0.5-0.4-1.2-0.7-1.4-1.4C130.4,63,131.2,63.7,132,64.2z"/>
	<path class="st0" d="M139.2,64.8c0.7-0.9,1.2-1.8,1.8-2.7c-0.4-0.2-0.7-0.5-1.1-0.7c-0.4,0.6-0.8,1.1-1.2,1.7
		c-2.2-1.4-4.3-3-6.6-4.4c-0.2,0.3-0.5,0.5-0.6,0.9c1.3,1.1,2.8,2,4.2,2.9C136.8,63.2,138,64,139.2,64.8z M131.9,59.1
		c1,0.2,1.7,1,2.6,1.6c1.4,0.9,2.6,2,4.1,2.7c0.8-0.1,0.9-1.3,1.7-1.4c-0.3,0.9-0.8,1.6-1.3,2.4c-1.9-1.5-3.9-2.8-5.9-4.1
		C132.7,59.9,132.2,59.6,131.9,59.1z"/>
	<path class="st0" d="M144.4,57.1c-2.6-1.7-5.2-3.5-7.7-5.2c-0.2,0.3-0.4,0.6-0.7,0.9c2.6,1.9,5.2,3.6,7.8,5.4
		C144,57.9,144.2,57.5,144.4,57.1z M136.4,52.6c0.6-0.4,1,0.3,1.4,0.5c1.6,1.1,3.2,2.2,4.8,3.4c0.4,0.3,0.9,0.6,1.1,1.1
		C141.3,55.9,138.8,54.3,136.4,52.6z"/>
	<path class="st0" d="M145,56.2c0.4,0,0.5-0.6,0.7-0.9c-1.3-0.9-2.7-1.7-3.9-2.7c1.6,0.2,3.1,1,4.7,1.3c0.4-0.1,0.5-0.5,0.7-0.7
		c-2.3-1.6-4.5-3.1-6.8-4.7c-0.3-0.3-0.7-0.5-1.1-0.6c-0.2,0.3-0.3,0.6-0.4,1c1.1,0.8,2.2,1.5,3.2,2.4c-1.4-0.3-2.8-0.8-4.2-1.2
		c-0.2,0.4-0.3,0.7-0.5,1c0.6,0.4,1.2,0.9,1.8,1.3C141.1,53.5,142.9,55.1,145,56.2z M137.8,50.5c1.6,0.4,3.1,1,4.7,1.3
		c0.6-0.5-0.4-1-0.7-1.3c-0.8-0.7-2-1.2-2.5-2.2c1.6,0.9,3,2.1,4.5,3.1c0.9,0.8,2,1.2,2.8,2.1c-1.7-0.5-3.4-1.1-5.1-1.5
		c-0.3,0-0.5,0.2-0.5,0.6c1.4,1.1,2.9,2,4.3,3c-0.6,0.4-1.1-0.3-1.7-0.6c-1.8-1.4-3.8-2.6-5.6-4C138,50.8,137.9,50.6,137.8,50.5z"/>
	<path class="st0" d="M145.7,68.6c1.7-0.1,2.6-1.8,3.6-3c-0.4-0.4-0.8-0.8-1.1-1.2c0.5,0.1,1,0.2,1.6,0.4c0.4-0.4,0.8-0.7,1.3-1.1
		c0-0.5,0-1.1,0-1.6c0.5-0.1,1-0.1,1.6,0c0.8-0.6,1.6-1.2,2.4-1.9c-0.3-0.1-0.5-0.3-0.8-0.4c0.5-0.3,0.9-0.6,1.3-0.9
		c0.1,0.3,0.1,0.5,0.2,0.8c0.6-0.5,1.3-1,1.9-1.5c-0.1-0.2-0.1-0.5-0.2-0.7c1.8,0.4,3.3-0.9,4.6-1.9c1.6-0.3,3.1-1.1,4.6-1.7
		c-0.4-0.6-0.7-1.3-0.9-2c-1.3,0.6-3,0.7-4,1.8c-0.4,0.6-1.2,0.6-1.9,0.8c-1.2,0.3-2,1.2-3.1,1.7c-4.9,2.5-8.6,6.7-12,10.9
		c0.3,0.2,0.7,0.4,1,0.6c-0.6,0.4-1.3,0.8-1.6,1.5c0.4-0.2,0.9-0.5,1.3-0.8c0.1,1.1-0.2,2.2-1,2.9c-0.1,0.2-0.4,0.5-0.5,0.6
		C145.2,71.5,145.9,70,145.7,68.6z M162,53.8c0.4-0.4,1-0.6,1.5-0.8c0.1,0.5,0.2,1,0.8,1.2c-0.1-0.4-0.3-0.8-0.5-1.2
		c0.6-0.1,1.1-0.3,1.6-0.5c0.2,0.5,0.5,0.9,0.8,1.3c-1.4,0.3-2.7,1.5-4.2,1.2C161.9,54.6,161.7,54.2,162,53.8z M161.3,54.6
		c0.1,0.2,0.3,0.5,0.4,0.7c-0.9,0.8-1.9,1.6-3.1,1.9c-0.5,0.2-0.9-0.1-1.3-0.3C158,55.4,159.7,54.7,161.3,54.6z M156.7,56.5
		c0.1,0.5,0.3,1,0.5,1.5c-0.4,0.3-0.8,0.6-1.2,0.9c-0.2-0.3-0.2-0.9-0.7-1c-0.2,0.4-0.5,0.8-0.7,1.2c-0.3-0.3-0.6-0.5-0.9-0.8
		C154.7,57.8,155.7,57.2,156.7,56.5z M153.7,58.5c0.1,0.6,0.1,1.3,0.5,1.8c-0.5,0.4-1.1,0.9-1.6,1.2c-0.1-0.5-0.2-0.9-0.3-1.4
		c-0.3,0.6-0.5,1.2-0.9,1.7c-0.2-0.3-0.5-0.7-0.7-1C151.7,60.1,152.6,59.2,153.7,58.5z M149.4,62.2c0.3,0.3,0.6,0.5,0.9,0.7
		c-0.2-0.4-0.4-0.7-0.6-1.1c0.3-0.2,0.6-0.5,1-0.6c0,0.7-0.1,1.5-0.1,2.2c-0.2,0.4-0.6,0.6-0.8,1c-0.6-0.2-1.2-0.3-1.9-0.5
		C148.3,63.3,148.9,62.8,149.4,62.2z M145.1,67c0.8-0.9,1.6-1.9,2.4-2.8c0.3,0.5,1,0.9,1.1,1.5c-0.8,0.9-1.6,1.8-2.6,2.5
		c0-0.3-0.1-0.7-0.1-1C145.7,67.2,145.3,67.1,145.1,67z"/>
	<path class="st0" d="M156.8,68.1c2.5-1.1,4.7-2.8,6.4-4.9c0.9-1.1,0.1-3.1-1.4-3c-2.8,0.2-5.4,1.8-7.2,3.9
		c-0.6,0.7-0.8,1.7-0.6,2.6C154.5,67.8,155.6,68.8,156.8,68.1z M161.6,60.6c1.2-0.2,1.9,1.5,1.1,2.4c-0.8,1-1.7,1.9-2.8,2.7
		c0.1-1.5-0.8-2.8-1.8-3.9C159.2,61.3,160.4,60.8,161.6,60.6z M159.5,65.7c-1.3-0.6-2-2.2-1.9-3.6C158.7,62.9,159.6,64.3,159.5,65.7
		z M157,62.5c0.5,1.4,0.9,2.9,2.3,3.7c-1,0.7-2,1.3-3.1,1.6c-0.8,0.3-1.4-0.7-1.7-1.3C154.2,64.7,155.8,63.5,157,62.5z"/>
	<path class="st0" d="M160,56.4c0-0.6-0.4-1-1-0.8C159,56.1,159.5,56.3,160,56.4z"/>
	<path class="st0" d="M161.1,69.9c-0.6-0.4-1.1-0.9-1.8-1.3c0.4,1.1,1.6,1.6,2.5,2.3c-0.3-1.1-0.2-2.5-1.1-3.4
		C160.8,68.4,161,69.1,161.1,69.9z"/>
	<path class="st0" d="M166.7,63.8c-0.5,1.2,0.6,3,2,2.6c0.8-0.5,0.6-1.7-0.1-2.2C168.2,63.6,167.4,63.7,166.7,63.8z M168.7,66.1
		c-0.8,0.1-1.5-0.5-1.5-1.3c-0.2-0.5,0.4-0.5,0.7-0.5C168.5,64.6,169,65.3,168.7,66.1z"/>
	<path class="st0" d="M169.6,63.3c0.6-0.1,1.1-0.2,1.7-0.3c-0.3,0.5-0.9,1-0.7,1.7c0.4,1.2,2.7,0.7,2.4-0.6
		c-0.6,0.2-1.2,1.1-1.9,0.6c-0.4-0.7,0.4-1.1,0.8-1.5c-0.1-0.3-0.2-0.6-0.2-0.9C171,62.5,169.9,62.4,169.6,63.3z"/>
	<path class="st0" d="M171.2,94.3c0.1,0.6,0.4,1.1,0.9,1.4C172.1,95.1,171.8,94.6,171.2,94.3z"/>
	<path class="st0" d="M199.8,99.7c-2.9,0.3-5.5,1.5-8.2,2.4c-4.3,1.8-8,4.7-11.1,8.1c-2.2,2.8-4.3,5.6-5.8,8.8
		c-1.6,3.3-2.8,6.9-2.9,10.7c0,1.1,0.4,2.2,0.8,3.3c0.3,0.8,0.4,1.8,1.1,2.4c-0.3-1.5-0.7-2.9-1-4.4c-0.4-1.5-0.1-3,0.1-4.5
		c0.1-1.6,0.8-3,1.3-4.5c0.7-2.1,1.9-4.1,2.9-6.1c1.1-1.6,2.2-3.1,3.3-4.6c1.3-1.7,2.9-3.1,4.5-4.5c2-1.6,4.2-3,6.5-4.1
		c4.1-1.6,8.4-3.1,12.9-2.9c2.8,0,5.5,1,8.2,1.7c-0.5-0.3-1-0.6-1.6-0.8C207.2,99.6,203.5,99,199.8,99.7z"/>
	<path class="st0" d="M173,87.6c-0.6,0.1-0.9,0.7-1.2,1.2C172.4,88.7,172.9,88.2,173,87.6z"/>
	<path class="st0" d="M172.7,95c0.1,0.5,0.8,0.3,0.7-0.2C173.3,94.3,172.5,94.5,172.7,95z"/>
	<path class="st0" d="M174.6,91.9c0.7,0.1,1.4,0.1,2.1,0.2c-0.3-0.7-0.7-1.8-1.6-1.7c-0.6,0.3-1.1,1-1.1,1.7c0.4,0.4,0.9,0.7,1.4,1
		c-0.1-0.6-0.6-0.9-1-1.2c0.2-0.5,0.5-0.9,0.8-1.2c0.4,0.3,0.7,0.6,1,1C175.6,91.7,174.9,91.4,174.6,91.9z"/>
	<path class="st0" d="M174.5,87.6c0.1-0.7,0.1-1.4,0.7-1.8c0.3,0.6,0.9,1.1,0.9,1.9C175.7,88.2,175.1,87.6,174.5,87.6
		c0.5,0.7,1.5,1,2.1,0.3c0.4-1.2-0.8-2.3-1.9-2.4C174.5,86.2,174.1,86.9,174.5,87.6z"/>
	<path class="st0" d="M176.5,84.2c-1,0.2-1.9,0.8-2.4,1.6c0.2-0.1,0.5-0.3,0.7-0.4C175.3,85.1,176,84.8,176.5,84.2z"/>
	<path class="st0" d="M182.6,94.1c-1.5,0.8-2.9,2-4,3.3c-0.4,0.6-1,1.4-0.6,2.1c0.2,0.5,1,0.4,1.4,0.3c1.8-0.6,3.4-1.6,4.9-2.7
		c-0.4-0.3-0.9-0.6-1.2-1C182.7,95.4,182.7,94.7,182.6,94.1z M178.4,99.6c-0.2-0.6,0-1.3,0.4-1.8c0.9-1.3,2.2-2.3,3.5-3.2
		c0,1,0.3,2,1.2,2.7C181.9,98.3,180.3,99.4,178.4,99.6z"/>
	<path class="st0" d="M178.8,86.5c0.3-0.2,0.8-0.4,0.8-0.9c-0.2-0.7-0.8-1.3-1.5-1.3c0.3,0.5,0.6,0.9,1,1.3
		C179,85.9,178.9,86.2,178.8,86.5z"/>
	<path class="st0" d="M182.7,84.8c-0.2-0.3-0.3-0.7-0.5-1c0.2-0.2,0.5-0.4,0.7-0.6c-0.6-0.2-1.1-0.4-1.7-0.6
		c0.2,0.4,0.5,0.9,0.6,1.3c-0.9-0.1-0.7-1.2-1-1.7c-0.2,0.5-0.4,1.2,0.1,1.7C181.3,84.5,182,84.7,182.7,84.8z"/>
	<path class="st0" d="M191.9,91.4c-1.3-0.6-2.8-0.1-4.1,0.2c-0.8,0.3-1.7,0.4-2.5,1c-0.2,0.4,0.3,0.6,0.5,0.9c0.6,0.5,0.8,1.4,1,2.1
		c1.2-0.6,2.4-1,3.6-1.6c0.6-0.4,1.4-0.8,1.7-1.5C192.3,92.1,192.3,91.6,191.9,91.4z M191.4,92.7c-1.2,1-2.7,1.5-4.1,2.1
		c-0.3-0.8-0.8-1.6-1.5-2.2c1.8-0.6,3.6-1.4,5.5-1.2C192,91.5,191.9,92.5,191.4,92.7z"/>
	<path class="st0" d="M188.1,46.9c1.3-0.5,1.8-2.3,0.9-3.3c-1.4-0.6-2.5,1.3-2.2,2.6C186.9,46.8,187.5,47.3,188.1,46.9z M188.7,44.4
		c0.2,0.9-0.2,1.8-1.2,1.9C187.3,45.4,187.7,44.5,188.7,44.4z"/>
	<path class="st0" d="M192,68.1c0-0.3,0.1-0.6,0.1-0.8c-1.2-0.6-2.5-0.2-3.5,0.5c0,0.2,0,0.5,0,0.6C189.6,69.1,191.1,68.8,192,68.1z
		 M191.1,67.8c-0.5,0.3-1.1,0.4-1.7,0.4C190,67.9,190.6,67.8,191.1,67.8z"/>
	<path class="st0" d="M190.1,82c0.4,0.3,0.8-0.3,0.4-0.6C190.2,81.1,189.7,81.8,190.1,82z"/>
	<path class="st0" d="M191.5,90.3c0.3,0.7,1.1,0.6,1.6,0.9c0.8,0.4,1.2,1.3,2,1.9C195,91.3,193.3,89.9,191.5,90.3z"/>
	<path class="st0" d="M193.9,42.7c-0.6-0.3-1.3,0.3-1,0.9c0.3,1,0.9,2.7,2.3,2.3C195.5,44.7,195,43.3,193.9,42.7z M194.5,44.9
		c-0.4,0.1-0.5-0.6-0.7-0.9c-0.2-0.4,0.3-0.4,0.4-0.1C194.3,44.2,194.6,44.6,194.5,44.9z"/>
	<path class="st0" d="M199.2,88.9c-1.9,0.1-3.9,0.2-5.8,0.7c0.5,0.7,1.3,1.1,1.8,1.9c0.2,0.2,0.3,0.7,0.7,0.8c1.1,0,2.2-0.3,3.4-0.5
		c0.5,0,0.9-0.4,1.3-0.7C199.9,90.5,199,90,199.2,88.9z M195.9,91.8c-0.4-0.8-1-1.4-1.6-2c1.5-0.2,2.9-0.3,4.4-0.5
		c0.2,0.7,0.8,1.3,1.2,1.9C198.6,91.5,197.2,91.7,195.9,91.8z"/>
	<path class="st0" d="M195.3,37.1c1.7-4.3,4-8.3,6.9-11.8c2.6-3.2,5.7-6.4,9.7-7.7c2.4-0.7,4.8,0.3,6.9,1.3c0.8,3-0.6,6-0.7,9
		c0.8-1.8,1.2-3.7,1.5-5.6c0.1-1,0.1-2.2-0.5-3.1c-0.4-0.8-1.2-1.2-2-1.6c-2-1-4.4-1.1-6.4-0.2c-3,1.3-5.5,3.6-7.7,6.1
		c-2.4,2.6-4.4,5.6-6.1,8.7c-1.3,2.4-2.1,4.9-3.3,7.3c-0.2,0.4-0.3,0.8-0.3,1.2C194.5,39.7,194.7,38.3,195.3,37.1z"/>
	<path class="st0" d="M200.4,129.8c-0.3-0.4-0.3-0.9-0.3-1.3c-0.2,0.3-0.7,0.6-0.4,1c0.1,0.5,0.7,0.4,1.2,0.6c0-0.5-0.1-1-0.5-1.4
		C200.4,129.1,200.4,129.5,200.4,129.8z"/>
	<path class="st0" d="M213.8,107.4c-1.1-0.8-2.3-1.5-3.5-2.2c0.3,0.3,0.6,0.6,0.9,0.8c1.7,0.9,3.3,2,4.5,3.4c1.6,2,2.3,4.6,3.5,6.8
		c-0.2-1.5-0.9-2.7-1.5-4.1c-0.7-1.6-1.8-2.9-2.7-4.4C214.5,107.6,214.1,107.5,213.8,107.4z"/>
	<path class="st0" d="M219.7,76.7c-1,1.1-2.1,2.4-2.1,4c0,0.4,0.5,0.7,0.9,0.5c1.3-0.4,1.8-1.6,2.5-2.6c0.4-0.6,1-1.7,0.2-2.3
		C220.7,75.9,220.1,76.3,219.7,76.7z M218.4,80.5c0.2-1.2,1-2.2,1.7-3.1c0.2-0.3,0.5-0.4,0.8-0.6C220.6,78.3,219.7,79.7,218.4,80.5z
		"/>
	<path class="st0" d="M65.1,64c0-0.6-0.1-1.3-0.2-1.9c-0.3,0.2-0.4,0.5-0.5,0.8c-0.5-0.2-1-0.4-1.5-0.5c0-0.7-0.1-1.3-0.1-2
		c0.5-0.1,1.1-0.2,1.6-0.4c0.2,0.3,0.3,0.5,0.5,0.8c0.1-0.9,0.1-1.8-0.1-2.6c-0.2,0.3-0.3,0.7-0.4,1c-1.7,0.2-3.3,0.9-5,1.3
		c-0.6,0.2-1.3,0.2-1.7,0.7c2,0.9,4.3,1.2,6.3,2.1C64.5,63.4,64.8,63.7,65.1,64z M59.3,61.2c1-0.3,2.1-0.5,3.1-0.7
		c0,0.6,0.1,1.1,0.1,1.7C61.5,61.9,60.4,61.6,59.3,61.2z"/>
	<path class="st0" d="M64.3,45.2c0,0.4,0,0.7,0,1.1c0.7-0.6,0.6-1.6,0.7-2.5c-0.2,0.3-0.4,0.7-0.6,1c-0.5-0.3-1-0.7-1.5-1
		c0.2-0.6,0.4-1.3,0.5-2c0.6,0,1.2,0,1.8,0c0,0.3,0,0.8-0.1,1.1c0.7-0.6,0.4-1.6,0.5-2.4c-0.2,0.2-0.4,0.5-0.6,0.7
		c-2-0.2-4.1-0.2-6.1-0.4c0,0.1,0.1,0.4,0.2,0.5C60.6,42.9,62.5,44.2,64.3,45.2z M62.9,42c-0.1,0.6-0.3,1.1-0.5,1.7
		c-0.8-0.6-1.6-1.1-2.3-1.8C61,41.9,62,42,62.9,42z"/>
	<path class="st0" d="M153.5,67.3c-0.7-0.5-1.6,0-2.4,0.3c-1.9,1.1-3.4,2.9-4.2,5c-0.2,0.9-0.6,1.8-0.1,2.7c0.3,0.7,1.2,1.3,2.1,1
		c2.4-1.3,4.2-3.5,5.3-6.1C154.4,69.2,154.4,67.9,153.5,67.3z M148.8,75.8c-0.9,0.2-1.4-0.7-1.5-1.5c0-1.4,0.5-2.7,1.3-3.8
		c0.5,1.4,1.3,2.7,2.5,3.6C150.3,74.7,149.7,75.4,148.8,75.8z M151.4,73.8c-1.2-0.8-2-2.1-2.4-3.5c-0.1-0.5,0.1-0.7,0.6-0.7
		c1.2,0.7,1.9,2,2.3,3.3C151.8,73.2,151.6,73.5,151.4,73.8z M152.3,72.6c-0.5-1.4-1.3-2.7-2.6-3.4c0.9-0.7,2-1.8,3.3-1.4
		c0.7,0.4,0.8,1.3,0.7,2C153.5,70.8,152.9,71.7,152.3,72.6z"/>
	<path class="st0" d="M174.6,62.5c0.2,0,0.6-0.1,0.7-0.1c0.3,0.5,0.6,1,1.1,1.4c-0.1-0.8-0.6-1.4-0.9-2.1c-0.4,0.1-0.8,0.2-1.2,0.3
		c-0.3-0.2-0.5-0.4-0.8-0.6c0.1,0.8,0.5,1.6,1.2,2.1C174.6,63.2,174.6,62.9,174.6,62.5z"/>
	<path class="st0" d="M183.9,93.3c0.7,0.6,1.4,1.2,1.6,2.1c-0.3,0.4-0.5,0.7-0.8,1.1c0.9,0.3,1.7-0.8,1.3-1.6
		C185.8,93.9,184.9,93.2,183.9,93.3z"/>
	<path class="st0" d="M187.7,65.4c-0.9-0.2-1.8,0.1-2.5,0.6c-0.4,0.2-0.4,0.8-0.2,1.1c0.6,0.5,1.4,0.3,2,0.2
		c0.5-0.2,1.4-0.5,1.3-1.2C188.5,65.7,188,65.5,187.7,65.4z M185.5,66.8c0.6-0.4,1.2-0.5,1.9-0.6C187.1,66.9,186.2,66.6,185.5,66.8z
		"/>
	<path class="st0" d="M193.6,76.2c0.3,0.8-0.4,1.5-0.3,2.2c0.1,1.2,0.9,2.3,2.1,2.6c0.6,0.2,1.3-0.2,1.4-0.8c0.2-0.9,0-1.9-0.6-2.6
		C195.6,76.7,194.5,76.5,193.6,76.2z M196.1,80.3c-0.6-0.1-1.3-0.3-1.7-0.9c-0.4-0.5-0.4-1.2-0.3-1.8c0.5,0,1,0.1,1.5,0.1
		C196.1,78.4,196.5,79.3,196.1,80.3z"/>
	<path class="st0" d="M201.4,49.6c0.4,0.1,0.9,0.1,1.2-0.3c0.3-0.9-0.2-1.9-0.8-2.6c-0.4-0.5-1.1-0.9-1.6-0.4
		c-0.3,0.2-0.4,0.6-0.3,0.9C200.1,48.2,200.5,49.2,201.4,49.6z M201.9,48.8c-0.8-0.1-1-1-1.2-1.6C201.5,47.5,201.7,48.2,201.9,48.8z
		"/>
	<path class="st0" d="M209.7,77.6c0.7-0.3,0.9-1.1,1-1.8c0.1-1-1-1.5-1.5-2.2c-0.4-0.6-1.3-0.8-1.9-0.3c-0.7,0.3-0.8,1.2-0.7,1.9
		C207.1,76.4,208.3,77.7,209.7,77.6z M207.6,73.8c0.6-0.4,1.3,0.2,1.8,0.6c0.8,0.6,0.4,1.7,0.1,2.4c-0.9-0.2-1.5-0.9-2-1.7
		C207.2,74.8,207.3,74.2,207.6,73.8z"/>
	<path class="st0" d="M213,59.1c0.6,0,1.6,0.1,1.6-0.7c-0.4-1.8-2.7-2.2-4.2-1.8c-0.4,0-0.6,0.6-0.3,0.9
		C210.8,58.5,211.9,59,213,59.1z M213.9,58.4c-1.1,0-2.3-0.3-3.1-1.2C212,57.1,213.4,57.3,213.9,58.4z"/>
	<path class="st0" d="M212.2,61.7c-0.6,0-1.5,0.3-1.2,1.1c0.6,1.1,1.9,1.6,3.1,1.9c0.8,0.1,2.3-0.4,1.8-1.4
		C215.1,62.1,213.6,61.4,212.2,61.7z M215.4,63.7c-1.1,0.6-2.3,0.1-3.2-0.5c-0.4-0.2-0.5-0.5-0.6-0.9
		C213.1,62,214.5,62.6,215.4,63.7z"/>
	<path class="st0" d="M223.9,48.4c-1.2,2.2-2,4.5-2.9,6.8c-0.5,1.3-1.2,2.5-1.5,3.9c0.3-0.3,0.7-0.7,0.9-1.1c1.6-3,2.4-6.2,4-9.2
		c2.5-4.5,5.8-8.6,10.1-11.5v-0.5C229.9,39.7,226.5,43.9,223.9,48.4z"/>
	<path class="st0" d="M68.5,81.1c-0.5-0.1-1.1,0.1-1.5-0.3c-0.2-0.7-0.4-1.3-0.5-2c0.5-0.3,0.9-0.6,1.4-0.8c0.2,0.2,0.5,0.4,0.7,0.6
		c0-0.8-0.2-1.6-0.4-2.4c-0.6-0.1-0.4,0.6-0.5,1c-1.3,0.8-2.7,1.6-3.9,2.5c-0.7,0.5-1.5,0.9-2,1.6c2.2,0.3,4.4,0.2,6.6,0.3
		c0.4,0,0.6,0.3,1,0.5c-0.1-0.6-0.2-1.1-0.3-1.7C68.9,80.5,68.7,80.8,68.5,81.1z M63.5,80.9c0.8-0.6,1.7-1.2,2.5-1.9
		c0.2,0.6,0.4,1.3,0.5,1.9C65.6,80.9,64.6,80.9,63.5,80.9z"/>
	<path class="st0" d="M83.8,117.5c0.6,0.1,1.1,0.5,1.6,0.9c-0.2-0.9-0.4-1.7-0.7-2.5C84.2,116.3,84.2,117,83.8,117.5z"/>
	<path class="st0" d="M202.3,79.5c1.3,0.1,1.9-1.8,1.1-2.7c-0.5-0.5-0.9-1-1.4-1.5c-0.5-0.6-1.4-0.5-1.9,0c-0.6,0.5-0.3,1.4-0.2,2
		C200.4,78.3,201.2,79.2,202.3,79.5z M200.5,75.7c1.1-0.4,2,0.6,2.4,1.5c0.3,0.4-0.1,0.9-0.2,1.3C201.3,78.5,200,77.1,200.5,75.7z"
		/>
	<path class="st0" d="M67.2,29.3c0.3,0.2,0.3,0.7,0.4,1c0.4-0.5,0.7-1,1-1.5c-0.3,0.1-0.6,0.2-0.9,0.3c-0.4-0.5-0.8-0.9-1.2-1.3
		c0.3-0.5,0.6-1,1-1.6c0.6,0.2,1.1,0.4,1.7,0.6c0,0.3,0,0.6,0,0.8c0.3-0.5,0.6-1.1,0.8-1.6c-0.4,0-0.8,0-1.2-0.2
		c-2-0.8-4.2-1.4-6.2-2.1c0.5,1,1.3,1.7,2,2.6C65.4,27.4,66.3,28.4,67.2,29.3z M67,26.2c-0.3,0.5-0.5,0.9-0.7,1.4
		c-0.7-0.8-1.4-1.5-1.9-2.4C65.3,25.5,66.1,25.9,67,26.2z"/>
	<path class="st0" d="M71.5,32.1c0.9-0.1,1.8-0.1,2.8,0c-0.4-1.1-1-2.1-1.6-3.1c-0.9-0.3-1.9-0.1-2.8,0C70.4,30.1,71,31.1,71.5,32.1
		z M72.3,29.6c0.2,0.6,0.4,1.1,0.7,1.7c-0.4-0.1-1.1,0.3-1.2-0.2c-0.2-0.5-0.5-1-0.8-1.5C71.4,29.6,71.9,29.6,72.3,29.6z"/>
	<path class="st0" d="M125.8,103.5c0.7,0.4,1.5-0.4,1.8-1c0.9-1.8,1.3-3.8,1.2-5.8c-0.1-0.6,0-1.3-0.4-1.9c-0.6,2.6-1,5.4-2.1,7.8
		c-0.4-0.1-0.9-0.8-0.5-1.1c0.1,0,0.4,0.1,0.5,0.1c0.4-2.2,1.2-4.3,1.7-6.5c-0.1-0.1-0.2-0.4-0.3-0.5c-0.5,1-0.6,2.2-1,3.3
		c-0.3,1-0.6,2.1-0.7,3.1c0,0-0.1,0.1-0.2,0.1c-0.3-0.5-0.1-1,0-1.6c0.3-1.6,0.6-3.2,1.4-4.7c0.2-0.5,0.7-0.7,1.2-0.9
		c-0.3-0.2-0.5-0.4-0.8-0.6c-0.4,0.2-0.8,0.5-1.1,0.9c-1.1,1.6-1.3,3.5-1.5,5.4C124.9,100.9,124.9,102.4,125.8,103.5z M128.3,98
		c0,1.8-0.6,3.7-1.7,5.1C127.5,101.5,127.6,99.6,128.3,98z M126.8,94.4c-0.6,1.3-0.9,2.6-1.4,3.9C125.6,96.9,125.9,95.4,126.8,94.4z
		"/>
	<path class="st0" d="M164.8,66.9c-0.3,0-0.8,0-1.1,0c0.2-0.8,1.1-0.9,1.7-1.2c0.1-0.3-0.1-0.7-0.5-0.7c-1-0.1-2.1,0.9-1.6,1.9
		c0.4,0.7,0.7,1.6,1.7,1.5c0.7,0,1.1-0.7,1.1-1.4c-0.5,0.4-1,0.9-1.7,0.8C164.6,67.6,164.7,67.3,164.8,66.9z"/>
	<path class="st0" d="M189.3,55.7c0,0.4,0.2,0.8,0.6,1c0.5,0.1,1.1-0.1,1.5-0.4c0.9-0.4,1-1.6,0.8-2.4c-0.1-0.7-1-1.2-1.6-0.9
		C189.8,53.8,189,54.6,189.3,55.7z M191.6,54.1c0,0.5,0,0.9-0.1,1.4c-0.4,0.3-0.8,0.4-1.2,0.6c-0.1-0.4-0.2-0.7-0.3-1.1
		C190.3,54.5,190.8,53.8,191.6,54.1z"/>
	<path class="st0" d="M193.8,63c0.6-0.3,1.8-0.6,1.4-1.5c-0.5-0.9-1.7-0.5-2.5-0.3c-0.6,0.2-1.5,0.6-1.3,1.4
		C191.8,63.5,193.1,63.2,193.8,63z M194.4,61.9c-0.6,0.4-1.4,0.6-2.1,0.5C192.8,61.8,193.7,61.9,194.4,61.9z"/>
	<path class="st0" d="M206.8,62.6c0.2-1.6-1.6-2.6-3-2.5c-0.6,0.1-1.5-0.3-1.7,0.4c0,0.4,0,0.9,0.2,1.2
		C203.2,63,205.4,63.9,206.8,62.6z M203,60.9c1.2-0.2,3,0,3.1,1.5c-1.1,0.3-2.3,0-3.1-0.9C203,61.4,203,61.1,203,60.9z"/>
	<path class="st0" d="M68,45.6c0.1,0.7,0.3,1.8,1.2,1.6c1.1,0,0.8-1.3,0.8-2c0.2,0.1,0.6,0.2,0.8,0.3c0.1,0.5,0.1,0.9,0.2,1.4
		c0.6-0.8,0.6-1.9,0.8-2.9c-0.4,0.3-0.6,0.7-0.9,1c-0.3,0-0.8,0-1.1,0c0.3-0.4,0.7-0.8,0.9-1.3c0.3-0.7-0.4-1.5-1.1-1.5
		c-0.6,0-0.8,0.5-1.1,0.9c-0.6,0-1.5-0.1-1.8,0.6C66.4,44.8,67.2,45.5,68,45.6z M68.6,44.2c0.2-0.5,0.4-0.9,0.6-1.4
		c0.4,0.2,0.7,0.4,1,0.6c-0.3,0.5-0.8,0.9-1.2,1.3c0.1,0.7,0.8,1.4,0.4,2c-1,0.4-1-0.9-0.8-1.5c-0.4-0.1-0.9-0.1-1.3-0.2
		c-0.2-0.3-0.4-0.6-0.5-0.9C67.4,43.6,68,43.8,68.6,44.2z"/>
	<path class="st0" d="M78.3,120.9c-1.9,0.4-3.9,0.3-5.8,0.3c1-0.7,2.1-1.3,3.1-2c0.2,0.6,0.3,1.2,0.7,1.6c-0.1-0.6-0.2-1.2-0.3-1.9
		c0.5-0.3,1-0.6,1.5-0.9c0.2,0.3,0.4,0.6,0.6,0.9c0-0.8-0.3-1.5-0.6-2.2c-0.3,0.8-1.1,1.2-1.9,1.6c-1.3,0.7-2.6,1.6-3.8,2.5
		c-0.3,0.2-0.4,0.5-0.5,0.8c2.1,0,4.3,0.1,6.4-0.2c0.6-0.2,0.8,0.4,1.1,0.7c0-0.6-0.1-1.2-0.3-1.8C78.6,120.5,78.4,120.7,78.3,120.9
		z"/>
	<path class="st0" d="M108.8,40.8c-0.6,0.1-1.3,0.3-1.7,0.8C107.7,41.4,108.3,41.1,108.8,40.8z"/>
	<path class="st0" d="M117,107c0.4,0.1,0.5,0,0.4-0.4C117,106.5,116.9,106.6,117,107z"/>
	<path class="st0" d="M124.4,89.1c-0.4-0.2-1-0.5-1.3-0.1c-1.2,1.4-1.4,3.3-1.7,5c0,1.2-0.4,2.6,0.5,3.6c0.1-1.7,0.2-3.4,0.7-5
		C122.9,91.3,123.5,90.1,124.4,89.1z M123.5,89.2c-0.6,1.2-1.1,2.3-1.5,3.6C122.3,91.5,122.5,90.1,123.5,89.2z"/>
	<path class="st0" d="M169.7,106.4c0.2,1.1,0.6,2.2,1.5,2.9c-0.9,1.2-1.6,2.7-3.2,3.1c0.1,0.2,0.2,0.4,0.3,0.6
		c0.9,0,1.3-0.9,1.8-1.5c0.5-0.7,1.1-1.4,1.5-2.2c-0.4-0.5-0.8-1-1-1.6C170.3,107.3,170.2,106.7,169.7,106.4z"/>
	<path class="st0" d="M169.8,98.4c-0.5,0.6-1.1,1.1-1.7,1.6C169.1,100.2,169.7,99.3,169.8,98.4z"/>
	<path class="st0" d="M168.8,52.3c0.4,0.4,0.7-0.3,0.3-0.6C168.7,51.3,168.4,52.1,168.8,52.3z"/>
	<path class="st0" d="M170.8,104.6c0.6,0.5,1.2,1.1,1.6,1.9c0.1,0.6-0.1,1.2-0.2,1.8c0.3-0.4,0.7-0.8,0.6-1.4c0-0.9-0.8-1.6-1.3-2.3
		C171.3,104.6,171,104.6,170.8,104.6z"/>
	<path class="st0" d="M171.3,89.6c0.4,0.1,0.5,0,0.4-0.4C171.3,89.1,171.2,89.2,171.3,89.6z"/>
	<path class="st0" d="M172.3,92.9c-0.3,0.2-0.5,0.5-0.8,0.8c0.4,0,0.8,0,1.2,0C172.5,93.4,172.4,93.1,172.3,92.9z"/>
	<path class="st0" d="M175.5,100.4c0.3,0.4,1.2,0.8,1,1.4c-0.4,1.1-1.4,1.9-2.1,3c-0.4,0.7-1,1.3-1.3,2c1-0.6,1.4-1.8,2.2-2.7
		c0.6-0.7,1.3-1.4,1.5-2.4C176.9,100.9,176.2,100.4,175.5,100.4z"/>
	<path class="st0" d="M179.7,52.8c0.7-0.6,1.1-1.6,1.1-2.5c-0.2-0.5-0.5-0.9-0.8-1.4c-1.3,0.1-2,1.4-2.2,2.6
		C177.6,52.6,178.8,53.4,179.7,52.8z M179.4,50.4c0.2,0,0.5,0,0.6,0c-0.1,0.7-0.4,1.3-0.8,1.7C178.8,51.5,179.2,50.9,179.4,50.4z"/>
	<path class="st0" d="M203.5,102.3c-4,0.2-8,1.2-11.5,3.2c-2.4,1.3-4.8,2.7-6.7,4.6c-2.3,1.9-4.6,4.1-5.8,6.9
		c0.6-0.7,1.1-1.6,1.6-2.4c1.4-2,3.4-3.5,5.2-5.1c1.6-1.4,3.5-2.5,5.4-3.6c3.1-1.8,6.6-3,10.2-3.3c1-0.1,1.9,0,2.9-0.1
		C204.4,102.2,203.9,102.3,203.5,102.3z"/>
	<path class="st0" d="M180.6,61.5c0.1,0.7,1,1.2,1.7,0.8c1.3-0.5,1.8-2.6,0.5-3.3C181.4,58.3,180.3,60.3,180.6,61.5z M182,59.8
		c0.2,0,0.5,0,0.7,0c-0.2,0.7-0.2,1.7-1.1,1.9C181.3,61.1,181.7,60.4,182,59.8z"/>
	<path class="st0" d="M185.7,83.5c-0.2-0.4-0.5-0.7-0.8-1c-0.1,0.1-0.4,0.4-0.6,0.6C184.6,83.6,185.1,83.8,185.7,83.5z"/>
	<path class="st0" d="M189.2,88.5c0.2,0.3,0.8-0.1,0.5-0.4C189.4,87.8,188.9,88.2,189.2,88.5z"/>
	<path class="st0" d="M190,80.7c0.2-0.6-1-0.9-0.7-0.2C189.3,80.9,190,81.2,190,80.7z"/>
	<path class="st0" d="M190.3,83.6c0.7,0.1,1.5,0,2.2-0.3C191.8,83.1,190.9,83.1,190.3,83.6z"/>
	<path class="st0" d="M199.6,52.7c0.5-0.1,0.9-0.4,1-0.9c0.1-0.9-0.5-1.8-1.1-2.5c-0.4-0.5-1.2-0.4-1.6,0c-0.2,0.4-0.1,0.9,0,1.4
		C198.1,51.5,198.7,52.3,199.6,52.7z M199.9,51.9c-0.9-0.3-1.2-1.2-1.4-2.1C199.3,50.2,199.7,51.1,199.9,51.9z"/>
	<path class="st0" d="M206.6,107.7c-1.9-0.2-3.9-0.4-5.8,0c1.9,0.3,3.9,0.2,5.9,0.4c2.7,0.5,5.3,1.9,7.1,4.1
		c2.3,2.5,3.6,5.9,3.8,9.2c0.1-0.3,0.2-0.6,0.3-0.8c-0.2-0.7-0.3-1.4-0.5-2.1C216.1,113.2,212,108.6,206.6,107.7z"/>
	<path class="st0" d="M213.3,105.1c-2.6-1.6-5.6-2.8-8.6-2.7c0.8,0.5,1.9,0.3,2.8,0.6c2.9,0.7,5.8,2.1,8,4.2
		C214.9,106.3,214.2,105.6,213.3,105.1z"/>
	<path class="st0" d="M75,75.8c-0.5,0.4-0.7,1.1-1.1,1.6c0.6,0.1,1.2,0.4,1.7,0.9C75.4,77.4,75.2,76.6,75,75.8z"/>
	<path class="st0" d="M121.7,86.2c-0.5-0.2-1-0.5-1.6-0.7c0.1,0.4,0.4,0.7,0.7,1c-0.3,0.7-0.4,1.4-0.5,2.2c-0.2,1.3-0.7,2.6-0.9,3.9
		c0.2-0.2,0.6-0.5,0.7-0.7c-0.3,0.5-0.5,1-0.4,1.5c-0.4-0.4-0.8-0.7-1.2-1c-0.7,0.2,0.1,0.9,0.3,1.2c0.6,0.6,0.8,2,1.9,2
		c-0.2-0.6-0.5-1.2-0.7-1.7C120.6,91.4,121.3,88.9,121.7,86.2z"/>
	<path class="st0" d="M124.9,90.5c-0.1,0.1-0.3,0.2-0.3,0.3c-0.4,2.3-0.5,4.7-1.7,6.8c-0.1,0.4-0.6,0.4-0.9,0.5
		c0.1,0.3,0.2,0.6,0.3,0.9c1.3,0,1.9-1.3,2.3-2.4C125.1,94.6,125.2,92.5,124.9,90.5z M123.6,97.1c-0.2-0.3,0-0.7,0.3-0.8
		C124.4,96.3,124.1,97.2,123.6,97.1z"/>
	<path class="st0" d="M133.8,70.3c0.2-0.3,0.4-0.7,0.6-1c0.5,0.2,1,0.6,1.5,0.6c0.1-0.2,0.4-0.5,0.6-0.6c-2.7-1.8-5.6-3.2-8.5-4.6
		c-0.3,0.5-0.6,1-0.9,1.5c2.3,2.2,4.9,4.2,7.2,6.3c0.3-0.3,0.5-0.7,0.7-1.1C134.6,71,134.2,70.6,133.8,70.3z M134.3,71.7
		c-2-2.1-4.4-3.7-6.5-5.6c0.2-0.3,0.4-0.6,0.6-0.9c1.2,0.7,2.5,1.2,3.7,1.9c-1.1-0.2-2.2-1.2-3.3-0.8c1.2,1.3,2.7,2.3,3.9,3.5
		c0.4-0.5,0.9-1.1,1.4-1.6c0.4,0.2,0.9,0.4,1.3,0.6c-0.3,0-0.7-0.1-1-0.1c-0.3,0.5-0.7,1-1,1.5c0.5,0.4,0.9,0.8,1.4,1.2
		C134.5,71.6,134.4,71.7,134.3,71.7z M133.2,68.4c-0.2,0.3-0.4,0.6-0.6,0.9c-0.9-0.9-1.9-1.6-2.8-2.5
		C130.9,67.3,132.1,67.8,133.2,68.4z"/>
	<path class="st0" d="M165,62.8c1.3-0.5,2.9-0.8,3.9-1.9c0.6-0.5,1.4-0.7,1.8-1.3c-0.7,0-1.4,0.2-2.1,0.3c-0.6-0.5-1.1-1.2-1.3-2
		c0.5-0.5,0.9-1,1.3-1.6c-0.2,0-0.5-0.1-0.6-0.1c-1.2,0.6-2.4,1.1-3.6,1.6c-0.9,0.5-1.9,1-2.8,1.4c0,0.1-0.1,0.3-0.2,0.4
		c0.4,0,0.9,0,1.3,0C163.9,60.2,164.3,61.7,165,62.8z M167,57.1c-1,1.3,0.3,2.8,1.5,3.4c-0.8,1.2-2.2,1.3-3.4,1.9
		c-0.4-1.3-1.1-2.5-2.2-3.4C164.2,58.3,165.7,57.7,167,57.1z"/>
	<path class="st0" d="M197.3,55.7c0.4,0.2,1,0,1.1-0.4c0.1-0.8-0.2-1.5-0.6-2.1c-0.3-0.4-0.6-0.9-1.1-0.9c-0.7,0-1.2,0.8-0.9,1.4
		C196,54.4,196.5,55.3,197.3,55.7z M197.7,55.1c-0.7-0.4-1.1-1.2-1.4-1.9C197.4,53.1,197.5,54.3,197.7,55.1z"/>
	<path class="st0" d="M212.3,67.3c-0.4,1.2,0.9,2.1,1.8,2.6c0.9,0.3,2.1,0.6,2.9,0c0.3-0.9-0.3-1.8-1.1-2.2
		C214.9,66.9,213.5,67,212.3,67.3z M216.5,69.5c-1.4,0.3-2.9-0.3-3.6-1.6C214.2,67.6,216.1,67.9,216.5,69.5z"/>
	<path class="st0" d="M223.8,66c0.6,0.1,1.5-0.4,1.2-1.1c-0.8-1.7-3.1-2.2-4.8-1.6c0,0.3,0,0.7,0.1,1
		C221.1,65.4,222.4,66.2,223.8,66z M224.5,65.3c-1.4,0.4-2.9-0.2-3.7-1.4C222.2,63.5,223.9,63.9,224.5,65.3z"/>
</g>
</svg>
