<?xml version="1.0" encoding="utf-8"?>
<!-- Generator: Adobe Illustrator 26.0.3, SVG Export Plug-In . SVG Version: 6.00 Build 0)  -->
<svg version="1.1" id="Слой_29" xmlns="http://www.w3.org/2000/svg" xmlns:xlink="http://www.w3.org/1999/xlink" x="0px"
	 y="0px" viewBox="0 0 239.5 150.2" style="enable-background:new 0 0 239.5 150.2;" xml:space="preserve">
<style type="text/css">
	.st0{fill:#16150F;}
</style>
<g>
	<path class="st0" d="M81.7,69.7c0.2,0.6,0.5,1.4,1.1,1.7c3.5-0.6,7-1.3,10.6-1.5c4.8-0.6,9.7-0.4,14.5-0.2
		c-3.7,2.9-7.4,5.9-10.5,9.5c-2,2.3-3.9,4.6-5.6,7c-0.4,0.7-0.9,1.3-1.1,2.1c0.4,1.7,1.1,3.4,1.5,5.1c1,4.3,1.3,8.8,1.7,13.2
		c0.4,4.5,1.4,9,2.6,13.4c1,3.5,2,7,3.7,10.3c1.6,3,3.2,6.3,6.1,8.2c0.3,0.2,0.7,0,0.8-0.3c0.9-1.7,2-3.4,3-5.1
		c1.8-3.1,4.1-5.7,6.4-8.4c3.7-4.2,7.1-8.5,10.8-12.7c3.3-3.6,6.6-7.3,9.3-11.4c1.9-2.8,3.6-5.9,4.6-9.1c2-5.9,3.5-12,4.1-18.2
		c0.1-1.8,0.4-3.7,0.7-5.5c0.3,0.2,0.7,0.2,0.6,0.6c0.3,6,1.3,12,3,17.8c1,3.7,1.8,7.4,3.4,10.9c0.5,1.2,1,2.3,1.6,3.5
		c2.5,5.1,6.2,9.6,10,13.7c3.2,3.5,6.3,7.2,8.8,11.2c1.2,2,2.8,3.7,4.3,5.5c2,2.5,4.4,4.6,6,7.4c0.6,1.1,1.5,2.1,2.6,2.8
		c0.8-0.8,1.3-1.9,1.7-3c1.6-4.2,2.3-8.7,3-13.2c0.2-1.1-0.2-2.2-0.1-3.3c-0.1-1.4,0.7-2.7,1-4.1c1.5-8.6,3.7-17,5.6-25.4
		c0.6-3.3,1.1-6.8,0.5-10.2c-0.3-2.3-2.2-3.9-4.1-5.1c-3.2-2.4-6.6-4.5-10.3-6.2c-3.5-1.8-7-3.7-10.5-5.6c2.9,0.2,5.7,0.4,8.6,0.5
		c4.4,0.4,8.7,1,12.9,2c4.3,1,8.4,2.6,12.5,4.2c0.4,0.1,0.9,0.4,1.3,0.1c1.9-1.4,2.6-3.8,3.3-6c0.8-2.8,1.7-5.7,1.8-8.6
		c0.1-1.5,0.1-3.1-0.5-4.6c-0.6-1.4-1.4-2.8-1.6-4.3c-0.3-2.2-0.5-4.3-0.7-6.5c-0.7-5.5-2.2-10.9-4.2-16.1
		c-1.8-5.2-4.3-10.1-7.2-14.7c-0.6-0.8-1.2-1.9-2.2-2.3c-3.6,0.9-6.7,3.1-9.9,5.1c-4.4,3.2-9.3,5.6-14,8.4c-4.1,2.4-7.8,5.5-11.1,9
		c-3.6,3.8-6.5,8.1-9.3,12.5c-1,1.6-1.7,3.3-2.4,5c-0.8-0.3-1.7-0.4-2.6-0.2c-1.8,0.6-3.7,0-5.5,0.1c-0.8-1.2-1.6-2.4-2.2-3.8
		c-1.2-2.2-2.5-4.5-3.9-6.6c-2-2.7-3.9-5.4-6.5-7.6c-2.1-1.7-4.2-3.5-6.5-5c-5.5-3.7-11-7.6-16.7-11.1c-2.2-1.3-4.4-2.5-6.5-3.8
		c-1.4-0.8-2.9-1.6-4.4-2c-0.7-0.2-0.9,0.6-1.3,1c-2.4,3-4.5,6.3-6.2,9.8c-2.2,4.6-4.4,9.3-5.7,14.2c-1,2.8-1.4,5.8-1.7,8.7
		c0.1,2.6,0.5,5.3,0.2,8c-0.6,1.1-1.4,2.1-1.6,3.4c-0.2,1.2,0,2.5,0.1,3.7C79.9,61.8,80.5,65.8,81.7,69.7z M137.9,96.2
		c-1.8,3.2-3.8,6.2-6.1,9c-2.7,3.2-5.6,6.3-8.3,9.5c-3.5,4.2-7.2,8.3-10.7,12.6c-2.5,3-4.4,6.4-6.3,9.8c-1.6-1.4-2.8-3.1-3.8-4.9
		c-3.4-5.6-4.9-12-6.4-18.3c-1.8-7.9-1.2-16.3-3.8-24c-0.1-0.7-0.5-1.3-0.3-2c3.6-4.9,7.5-9.7,12.1-13.7c3.7-3.2,7.6-6.2,12-8.3
		c2.4-1.1,4.7-2.4,6.9-3.8c3.1-1.9,6.8-2.5,10.2-3.5c0.5-0.1,1-0.3,1.5-0.4c-1.2,0.8-2.7,1.1-4,1.5c-2.5,0.7-4.9,1.6-7.1,3
		c-3.5,2-7.1,3.9-10.7,5.7c-0.8,0.4-1.5,0.9-2.1,1.5c0.8,0,1.5,0,2.3,0.1c-1,0.2-2,0.3-3,0.7c-1.7,1.3-3.4,2.8-5.1,4.2
		c-2.6,2.4-5,5-7.3,7.7c0.2,0,0.6-0.1,0.8-0.1c0.2,0.6,0.5,1.3,0.9,1.8c0.3-0.1,0.5-0.1,0.8-0.2c-0.4,1-1,1.8-1.6,2.6
		c-0.4,0.6-0.7,1.2-1.3,1.7c0-0.7,0-1.4-0.4-2c-0.2,0-0.6,0-0.8,0c-0.2-0.5,0.4-1,0.4-1.5c-0.1-0.2-0.2-0.3-0.4-0.5
		c-0.4,1-1.3,1.8-1.8,2.8c0,0.3,0.1,0.6,0.3,1c1.1,2.6,1.6,5.4,2.7,8.1c-0.1-1.6-0.4-3.1-0.1-4.7c0.3-1.9,1.3-3.5,2.4-5
		c3.1-4,6.6-7.6,10.4-11c1.8-1.4,3.5-3,5.5-4.2c0.4,0.5,0.3,1.3,0.9,1.5c-0.1-0.5,0-1.1-0.6-1.3c0.2-0.2,0.5-0.3,0.8-0.4
		c0.1,0.4,0.2,0.9,0.5,1.2c0-0.5,0-1,0-1.5c0.3,0.2,0.6,0.5,0.8,0.7c-0.2-1.2,1.3-1,2-1.3c-0.6,4.6,1.1,9.4,4.4,12.7
		c2.4,2.6,5.8,4.1,9.3,4.6c-1,2.7-3.2,4.5-5.1,6.5c-0.6,0.6-1.2,1.3-1.8,1.9c-1.6-0.7-3.3,0.1-4.5,1.2c-1.9,1.6-3,4-3.1,6.4
		c-1.6-0.2-3.1,0.4-4.3,1.3c-1.9,1.5-3.1,3.7-3.9,6c-0.3-0.3-0.5-0.5-0.8-0.8c-1,0.6-1.7,1.5-2.6,2.3c-0.7,0.5-0.4,1.5-0.8,2.2
		c-0.3,0.5-1,1-0.7,1.7c0.1,0.9,1.2,0.8,1.8,1c-1,1.2-2.2,2.4-3.5,3.2c-1.1,0.5-2.1-0.2-2.8-1c-0.1,0-0.2-0.1-0.3-0.1
		c1.2,3.6,2.1,7.3,4.3,10.4c0.2,0.3,0.5,1,0.9,0.5c1.6-1.7,2.6-3.8,4-5.7c1.8-2.3,3.6-4.8,5.5-7c3.3-3.9,6.9-7.5,10.4-11.2
		c2.9-3.3,5.8-6.6,8.8-9.8c0.5-0.6,0.7-1.4,1.2-2.1c0.7-1,1.6-1.9,2.2-2.9c0.9-1.3,1.6-2.8,2.4-4.1
		C140.3,90.7,139.1,93.5,137.9,96.2z M119.1,36.5c2.5-1.5,5.6-1.5,8.3-0.6c2.3,1,4.4,2.4,6.1,4.1c1,0.9,1.6,2.1,2.5,3.1
		c1,1.1,1.3,2.6,1.6,4c0.2,1.6,0.5,3.2,0.5,4.9c-0.5-0.1-0.9-0.2-1.4-0.4c-0.6-2.6-1.1-5.3-2.4-7.7c-0.4-1.6-1.9-2.6-2.9-3.8
		c-1.5-1.2-3.2-2.2-4.8-3.2c-1.2-0.8-2.7-0.6-4.1-0.6c-0.8,0.1-1.5,0.6-2,1.2c-0.5,0.6-1.2,1-1.8,1.5c-0.6,0.8-0.4,1.9-0.9,2.8
		c-0.5,0.3-1.1,0.6-1.6,0.9c-0.5-0.2-1.1-0.5-1.6-0.7C115.5,39.9,117,37.7,119.1,36.5z M116.1,36.6c0.5-0.5,1.1-1,1.6-1.4
		c0.3,0.2,0.5,0.4,0.8,0.5c-0.6,0.5-1.2,0.9-1.7,1.4C116.6,36.9,116.4,36.8,116.1,36.6z M118.7,34.7c0.8-0.4,1.6-0.7,2.5-0.9
		c0.2,0.3,0.3,0.6,0.5,0.8c-0.8,0.2-1.5,0.5-2.3,0.8C119.1,35.1,118.9,34.9,118.7,34.7z M124.6,34.4c-0.7,0-1.4,0-2.1,0
		c-0.1-0.3-0.2-0.6-0.3-0.8C123.1,33.5,124,33.8,124.6,34.4z M123.6,30.2c0.6,0.3,1.2,0.6,1.7,1.1c1.7,1.4,3.3,2.9,4.8,4.4
		c0.6,0.6,1.1,1.1,1.5,1.8c-2-1.8-3.8-3.7-5.8-5.4C125.1,31.5,124.1,31,123.6,30.2z M138.5,55.2c-1.7,0.8-3.3,1.7-5.1,2
		c-0.6-0.2-1-0.8-1.5-1.1c0.3,0.4,0.6,0.9,0.9,1.3c-1.3,0.3-2.7,0.4-4,0.6c-2.4,0.3-4.8,0-7.2,0.3c-0.3-1-0.7-2.1-1.4-2.9
		c-0.9-0.2-1.8-0.1-2.6-0.1c0-0.1,0-0.2,0-0.2c0.8-0.1,1.6-0.3,2.4-0.3c1.2,0.1,2.3,0.6,3.5,0.7c1-0.1,1.1-1.4,1.2-2.2
		c0.1,0,0.2,0,0.3,0c0.2,1.6,1.1,3,2.1,4.2c0.2,0,0.5,0.1,0.6,0.1c-0.8-1.2-1.7-2.4-2.2-3.7c0.1,0,0.3-0.1,0.5-0.1
		c-0.2-0.5-0.3-0.9-0.5-1.4c1.3,1.6,2.5,3.4,4,4.8c0.5,0,1.1-0.1,1.6-0.2c-0.4-0.5-0.8-1-1.3-1.4c0.1,0.5,0.3,1,0.5,1.5
		c-1.4-1.4-2.7-3-3.8-4.6c-0.4-0.4-0.3-1-0.4-1.5c0.4,0.6,0.7,1.2,1.1,1.8c-0.3-0.8-0.7-1.6-0.7-2.4c1.8,0,3.6,0.1,5.2,0.8
		c0.6,0.1,1.6,0.1,1.5,0.9c0,0,0.1,0,0.2-0.1l-0.1-0.5c0.7,0.4,1.7,0.5,2,1.3c0.2,0,0.5-0.1,0.6-0.1l0,0.2c-0.1,0-0.4,0-0.6-0.1
		l0,0.2c-0.9-0.2-1.7-0.3-2.6-0.6c-0.4-0.3-0.8,0.2-1.1,0.4c1-0.1,2,0.2,2.9,0.5c0.1,0.1,0.2,0.4,0.3,0.5l-0.4,0.1
		c0.3,0.2,0.7,0.4,1,0.6c-0.2-0.2-0.5-0.5-0.7-0.6c0.1-0.1,0.3-0.2,0.4-0.3c1,0.4,2,0.6,2.8,1.3c-0.2-0.8-1-1.1-1.4-1.6
		C137.3,53.8,137.9,54.6,138.5,55.2z M138.1,46.1c0.5,0.5,1.1,1.1,1.2,1.9c-0.2,0-0.6,0-0.8,0C138.4,47.4,138.3,46.7,138.1,46.1z
		 M140.5,59.4c0.5-0.2,0.5,0.7,0.6,1c-0.4,0.4-0.9,0.8-1.3,1.2c0.3,0.5,0.6,0.9,1.1,1c-1.6,3.1-3,6.4-4.6,9.5
		c-0.3-0.3-0.6-0.6-0.9-0.9c-0.1,0.3-0.2,0.6-0.3,0.9c-0.5,0.3-1.1,0.2-1.6,0.3c0-0.2,0.1-0.6,0.1-0.8c0.4-0.1,0.6-0.1,1-0.2
		c-0.6-0.2-1.1-0.5-1.6-0.9c0.1-0.1,0.4-0.2,0.5-0.2c-0.9-0.6-1.4-1.6-2.1-2.4c-0.1,0.9,0.4,1.7,0.7,2.5c-1-0.5-1.1-1.8-1-2.8
		c-0.7,0.5-0.6,1.5-0.3,2.2c0.3,1.1-0.4,2-0.3,3.1c0.3-0.5,0.6-1,0.9-1.4c0,0.9-0.5,1.8,0,2.6c0.9,1,2.4,0.5,3.4,1.4
		c-0.1,0.2-0.3,0.7-0.4,1c-0.9-1.5-2.9-1-4.2-1.9c-0.7-0.5-1.5-0.9-2.1-1.4c-0.5-0.5-0.5-1.2-0.7-1.9c-0.2,0.7-0.5,1.6,0,2.3
		c1,1.2,2.6,2,3.1,3.6c-0.4,1-1.1-0.2-1.5-0.6c0.1,0.6,0.2,1.3,0.3,1.9c-0.5-0.4-1.1-0.9-1.2-1.6c0-0.5,0.3-1.1,0.2-1.6
		c-0.4-1.1-1.8-1.7-1.8-3c0.2-0.8,0.6-1.5,0.8-2.4c-0.2,0.1-0.5,0.4-0.6,0.5c-0.5-0.6-1.1-1.1-1.8-1.5c0.1-0.7,0.7-0.8,1.2-1.1
		c-1-0.1-0.2-0.9-0.1-1.4l0.2,0.9c0.2-0.4,0.5-0.7,0.3-1.2c0.1,0,0.3-0.1,0.4-0.2l0.1,0.7c0.3-0.7,0.6-1.3,0.8-2
		c-0.5,0.3-0.8,0.8-0.8,1.4c-0.1-0.2-0.2-0.4-0.3-0.5c0.3-0.5,0.7-1,1.1-1.4c0-0.2-0.1-0.5-0.1-0.7c-0.6,0.3-1,1.1-1.7,0.9l0.1,0.4
		c-0.4,0.6-0.7,1.3-1.1,1.9c-0.2-0.9,0.4-1.7,0.9-2.4c0.7,0.1,1.1-0.6,1.6-0.9c0.7-0.6,1.6-0.9,2.2-1.6c-0.7,0.1-1.4,0.4-2,0.6
		c0.6-0.4,1.4-0.6,1.9-1.2c1.7-0.4,3.2-1,4.8-1.7c-1.9,1.6-4,2.9-5.9,4.4c0.5-0.2,1-0.4,1.6-0.5c0.9-0.8,2.2-1.1,3.2-1.7
		c1.6-0.7,2.8-1.9,4.2-2.9c1-0.1,2.1,0,3,0.3c-0.1,0.6-0.9,0.4-1.4,0.6C139.4,59.8,140.2,60.1,140.5,59.4z M146.1,52.9
		c0.8,0.6,0.8,1.8,0.7,2.7c-0.4,2-1.3,3.9-2.8,5.2c-0.2-0.7-0.3-1.5-0.4-2.2c0.3,0.3,0.5,0.7,0.9,0.8c-0.1-0.4-0.3-0.9-0.4-1.3
		c0.4,0.3,0.7,0.6,1.1,0.9c-0.3-1,0.4-1.9,0.1-2.8c-0.3,0.2-0.5,0.3-0.8,0.5c-0.5-0.8,0.4-1.2,1.1-1.3c0.3,0.2,0.5,0.4,0.8,0.6
		c0.1-0.8,0-2-1-2.2c-1-0.2-1.2,0.9-1.3,1.6c-0.2-0.5-0.5-1-0.6-1.5C144.1,53.1,145.1,52.5,146.1,52.9z M145.5,51.7
		c0.5,0,1.1,0,1.2,0.7C146.3,52.2,145.9,52,145.5,51.7z M146,59.3c-0.4,0.9-1,1.6-1.9,2C144.7,60.6,145.4,59.9,146,59.3z
		 M143.1,53.2c0.2-0.7,0.9-1,1.5-1.2C144.2,52.6,143.6,53,143.1,53.2z M143.2,54.1c0.1,0.4,0.3,0.7,0.3,1.1
		c-0.4,0.1-1.1,0.4-0.6,0.9c0.5,0.5-0.4,0.5-0.7,0.7c-0.2,0.3-0.4,0.7-0.7,1C141.8,56.4,142.2,55.2,143.2,54.1z M142.4,59.1
		c0.5,0.6,0.8,1.4,0.7,2.2c-0.6-0.8-0.7-1.7-1.1-2.5c0.1-0.4,0.3-0.8,0.5-1.2c0.2,0,0.5-0.1,0.6-0.1c0,0.1,0,0.4,0,0.6
		C142.2,57.2,142.9,58.8,142.4,59.1z M142.3,65.4l0.2,0c0.2-0.2-0.4-0.3-0.5-0.5l0.3,0.1c0.1-0.1,0.3-0.3,0.4-0.4
		c0,0.2,0.1,0.5,0.1,0.6l0.1,0.2c0.4,0.5,0.1,1.2,0.1,1.7c-0.5,0.2-0.9,0.5-1.4,0.9c0,0.3-0.1,0.5-0.1,0.8c0.4-0.5,0.9-1,1.4-1.4
		c-0.1,1-0.2,2.1-0.5,3.1c-1.5,0.1-2.9,0.4-4.4,0.3c0.8-1.4,1.9-2.7,2.8-4.1C141.4,66.1,142.2,66.1,142.3,65.4z M142.1,73.8
		c-1.9,0.2-3.9,0.2-5.8,0.1c0.2-0.7,0.9-0.5,1.5-0.5c-0.3,0-0.8-0.1-1-0.2c0.5-0.8,1-1.5,1.5-2.3c1.4,0.6,2.9,0.5,4.4,0.3
		c-0.1,0.5-0.2,1-0.3,1.5c-0.4,0.1-0.7,0.1-1.1,0.2C141.6,73.1,142.5,73.1,142.1,73.8z M142.6,73.3c0.2-0.2,0.9,0,0.7,0.4
		C143,74,142.3,73.7,142.6,73.3z M135.1,75.8c0.3,0.7,0.8,1.3,0.9,2c-0.3,0.8-1.3,1.4-2.1,1.1C133.4,77.7,134.8,76.8,135.1,75.8z
		 M134.9,75.1c-0.2-0.2-0.4-0.4-0.6-0.5c0.3-0.2,0.7-0.3,1-0.5C135.2,74.4,135.1,74.8,134.9,75.1z M133.3,71.5c0,0.2,0,0.7,0,0.9
		c-0.4-0.1-0.8-0.2-1.2-0.3C132.3,71.7,132.8,71.6,133.3,71.5z M109.8,119.4c-0.3-1-0.5-2-1-2.9c-0.3-0.5-1-0.5-1.6-0.4
		c0.6-0.6,1.1-1.5,1.1-2.4c0.6-0.7,1.2-1.5,2-2.1c0.7,1.4,1.2,3,2.2,4.2c0.5,0.6,1.3,0.3,2,0.1c-1.1,1.4-2.3,2.7-3.4,4.1
		c-0.6,0.7-1.1,1.4-1.7,1.9C109.6,121,110.1,120.2,109.8,119.4z M109.1,124.5c-0.8,1.2-1.4,2.4-2.4,3.5c-0.5-0.1-0.7-0.5-1-0.8
		c-1-1.3-1.7-2.8-2.2-4.4c0.9,1.2,1.4,2.9,2.9,3.6C107.5,126.3,108.2,125.1,109.1,124.5z M113.7,114.5c-0.9-0.4-1.5-1.4-1.4-2.4
		c0-1.7,0.8-3.3,1.8-4.6c0.9-1.2,2-2.4,3.5-2.8c0.6-0.2,1.4-0.3,1.9,0.2c1,1,1.3,2.6,0.8,3.9c-0.8,2-2.4,3.7-4,5
		C115.5,114.2,114.6,114.9,113.7,114.5z M120.3,103.1c0.3-2.8,2.1-5.5,4.8-6.4c0.5-0.2,1.1-0.1,1.6,0.1c0.6,0.5,0.8,1.3,0.9,2
		c-0.2,2.6-1.8,5-4.1,6.3c-0.7,0.3-1.5,0.6-2.2,0.2C120.6,104.8,120.1,104,120.3,103.1z M125.7,105.4c1.1-1.3,2.2-2.5,3.3-3.8
		c1.8-2.1,3.4-4.5,5.7-5.9c-0.5,1.1-1.3,2-2.1,2.8c-2.1,2.2-4.1,4.6-6.2,6.8c-1,1-1.9,2.2-3.1,3
		C123.9,107.2,124.9,106.4,125.7,105.4z M130.8,94c1-1.5,2.4-2.7,3.7-4C133.5,91.6,132.4,93.1,130.8,94z M132.8,86.7
		c0-0.2,0-0.6,0-0.8c1,0.1,1.9,0.2,2.9,0.3c0,0.2,0,0.7,0,0.9C134.8,87,133.8,87,132.8,86.7z M122.3,69.8c0.4-0.4,1-0.5,1.5-0.7
		c0.3,0.8,1.1,1.3,1.7,1.9c-0.2,0.8-0.6,1.7-0.2,2.5c0.4,0.9,1.4,1.6,1,2.7c-0.4,1.3-0.9,2.7,0,3.9c0.8,0.9,1.2,2,2.3,2.6
		c0.7,0.6,1.9,0.7,2.4,1.6C125.1,82.4,121.2,75.9,122.3,69.8z M129.1,84.5c0,0.2-0.1,0.7-0.1,0.9c-0.8-0.4-1.6-0.9-2.3-1.4
		c0.1-0.2,0-0.9,0.4-0.8C127.8,83.6,128.4,84.1,129.1,84.5z M126.4,82.7c-0.1,0.2-0.2,0.5-0.3,0.8c-0.6-0.6-1.3-1.1-1.7-1.8
		c0-0.3,0.1-0.5,0.1-0.7C125.1,81.5,125.7,82.1,126.4,82.7z M124.2,80.5c-0.2,0.2-0.3,0.4-0.5,0.6c-0.5-0.9-1.3-1.7-1.5-2.8
		c0.1-0.1,0.2-0.4,0.3-0.6C123.1,78.6,123.7,79.5,124.2,80.5z M117.7,69.8c1.3-0.7,2.4-1.7,3.8-2.3c-0.2,0.6-0.5,1.2-0.7,1.8
		c-1.9,0.6-3.8,1.4-5.7,2.2c-1,0.4-2,0.7-3,0.9C113.8,71.2,115.8,70.8,117.7,69.8z M114.2,68.9c1.3-1.2,2.9-1.9,4.4-2.7
		c0.9-0.4,1.7-1,2.7-1.1c-1.5,1-3.3,1.7-4.9,2.7C115.7,68.2,115,68.7,114.2,68.9z M121.4,69.9c0,0.6,0,1.3-0.6,1.5
		C120.8,70.8,120.8,70.1,121.4,69.9z M121.3,71.8c-0.1,1,0.6,2.2-0.2,3C120.9,73.8,120.4,72.5,121.3,71.8z M121.6,75
		c0.2,0.9,1.2,2,0.3,2.7C121.7,76.8,120.9,75.8,121.6,75z M124.2,68.1c-0.4,0.2-0.8,0.3-1.2,0.4c0.4-2,1.2-3.9,2.4-5.6
		c0.2-0.4,0.6-0.6,1-0.8c-0.8,1.1-1.6,2.1-2.1,3.4C124,66.3,124.5,67.2,124.2,68.1z M123.1,65.6c-0.1,0-0.3,0-0.4,0.1
		c0.3-0.9,0.9-1.7,1.6-2.2C124,64.2,123.6,64.9,123.1,65.6z M122.9,66.1c-0.3,0.7-0.2,2.1-1.1,2.1C122.1,67.5,122,66.4,122.9,66.1z
		 M129.7,84.8c0.9,0.3,1.7,0.6,2.6,0.9c0,0.3,0,0.6,0,0.9c-0.9-0.3-1.9-0.4-2.6-1C129.6,85.4,129.6,85,129.7,84.8z M130.3,80.3
		c0.7-0.1,1.4-0.2,2.1,0.1C132.1,81.1,131,80.5,130.3,80.3z M126.3,65.1c0,0.4-0.1,1.1-0.5,1.1C125.7,65.9,125.9,65.2,126.3,65.1z
		 M125.8,59.4c-0.1,0.6-1.2,0.3-0.9-0.3C125.2,58.9,125.7,59,125.8,59.4z M124.2,58.9c0,0.4,0.3,0.8,0.2,1.1
		c-0.5,0.3-1.1,0.6-1.6,0.9c-0.8-0.6-1.8-1.1-2.3-2.1c-0.2-0.5-0.6-1-0.5-1.5c0.5,0,0.9,0.5,1.4,0.7c-0.1,0.2-0.2,0.3-0.4,0.5
		C122,59,123.2,58.8,124.2,58.9z M118.9,42.3c0.1-0.8,0.1-1.7,0.7-2.3c0.9-0.4,1.9-0.7,2.7-1.4c0.9,0,1.7,0.1,2.6,0
		c-1.1-0.9-2.5-0.6-3.7-0.1c0.5-1,1.7-1.1,2.7-1.2c-0.1,0.1-0.4,0.4-0.6,0.5c1,0.2,2,0.4,3,0.8c0-0.2,0-0.6-0.1-0.8
		c0.8,0.4,1.7,0.6,2.3,1.3c0.3,0.3,0.6,0.7,1.1,0.6c0.1,0.2,0.3,0.4,0.5,0.5c0.5,0.2,0.9,0.5,1.4,0.8c0.7,1,1.8,1.7,2.4,2.8
		c0.3,0.6,0.6,1.2,0.9,1.8c-0.2,0.1-0.3,0.2-0.5,0.4c-0.2-0.4-0.5-0.7-0.8-0.9c0.2,0.5,0.6,0.9,0.9,1.3c0.2,0,0.5-0.1,0.7-0.1
		c0.3,1.6,0.4,3.3,0.6,5c-0.3,0-0.7-0.1-1-0.1c0.1-0.2,0.3-0.5,0.4-0.7c-0.4,0.1-0.7,0.3-1.1,0.5c-0.3-0.1-1.1-0.7-0.4-0.9
		c-0.2-0.4-0.3-0.8-0.5-1.2c0.3,0.2,0.5,0.5,0.7,0.8c0.1,0.1,0.4,0.2,0.5,0.3c0-0.2-0.1-0.7-0.1-0.9l0.4,0c0.1,0.2,0.2,0.4,0.4,0.7
		c0-0.5,0-1.1-0.1-1.6c-0.1,0.2-0.3,0.4-0.4,0.7c-0.4-0.2-0.7-0.3-1.1-0.5c0.2-0.2,0.5-0.3,0.8-0.2c0.4-0.1,0.5-0.4,0.9-0.3
		c-0.6-0.9-1.5-0.7-2.4-0.7c-0.4,1.1,0.1,2.3,0.2,3.5c-0.4-0.2-0.7-0.3-1.1-0.5c0.1-0.1,0-0.3,0.1-0.5c-0.2-0.3-0.4-0.5-0.5-0.8
		c0,0.4,0,0.7,0.1,1.1c-0.7-0.4-1.4-0.8-2.1-1.2c0.5-0.1,1-0.2,1.3-0.7c-0.7,0.1-1.3,0.3-2,0.4c-1.8-0.8-3.6-1.5-5.3-2.4
		c0.1-0.4,0.2-0.7,0.3-1.1c-0.5,0.3-0.7,0.6-1.3,0.9c0.2-0.5,0.7-1.3,1.3-1.1c0-0.1-0.1-0.2-0.1-0.2c0.4-0.1,0.7-0.2,1.1-0.3
		c-1.1-0.3-2.1,0.3-2.7,1.1c-0.6-0.1-1.1-0.4-1.5-0.8c-1-0.2-2-0.7-2.9-1.2c0.8-0.2,1.6-0.3,2.3-0.7
		C119.5,42.5,119.1,42.4,118.9,42.3z M122.9,47.2c-0.3,0.2-0.5,0.5-0.8,0.8c0.1,0,0.2,0,0.3,0c0.4-0.2,0.8-0.3,1.3-0.4
		c-0.7,0.7-1.6,1.4-2.7,1.1c-0.2-0.9-0.3-1.7-0.5-2.6c0.2,0.1,0.7,0.3,0.9,0.4c0,0.2-0.1,0.6-0.2,0.9
		C121.8,46.9,122.4,46.7,122.9,47.2z M122.3,52.7c0.3-1-0.4-1.9-0.8-2.7c1.2,0.5,1.5,1.9,1.7,3c0.3-0.4,0.3-0.9,0.3-1.4
		c0.4,0.2,0.8,0.5,1.2,0.7c-0.8,0.4-1.1,1.2-1.3,2c-0.3,1.1-2.1,0.4-2.1-0.5C121.6,53.4,122,53.1,122.3,52.7z M123.9,48.6
		c0.2-0.4,0.5-0.4,0.7,0C124.4,49,124.2,49,123.9,48.6z M119.9,48.6c-0.6,0-1.3,0-1.9-0.1c0.4-0.3,0.9-0.5,1.3-0.9
		c0.3-0.7,0.2-1.5,0.4-2.3c0.1,0.1,0.2,0.2,0.3,0.3C119.9,46.7,119.8,47.7,119.9,48.6z M119.7,49.8c-0.2,0.3-0.4,0.6-0.6,0.9
		c-0.2-0.3-0.4-0.6-0.5-1C119,49.8,119.4,49.8,119.7,49.8z M118.7,45c-0.3,0.8-0.2,2-1.3,2.3c-0.7,0.3-1.4,0.7-1.9,1.3
		c-0.4-0.1-1.3,0.1-1.2-0.5c0-1.7,0.6-3.4,0.7-5.1C116.2,43.7,117.5,44.3,118.7,45z M118.6,54.1c-0.6-0.4-1-1-1.1-1.7
		C117.9,52.9,118.5,53.4,118.6,54.1z M114.8,39.8c-0.2-0.1-0.6-0.2-0.8-0.3c0.5-0.7,0.9-1.5,1.6-2.1c0.1,0.1,0.4,0.2,0.6,0.2
		C116,38.4,115.2,39,114.8,39.8z M114.4,40.5c-0.2,0.6-0.4,1.4-1.2,1.6c0.5,0.1,0.8,0.4,1,0.8c-0.3-0.1-0.9,0.1-1-0.3
		c-0.1-0.7-0.1-1.4,0.1-2.1C113.7,40.4,114.2,40.5,114.4,40.5z M114,43.7c-0.1,1-0.3,2.1-0.5,3.1c-0.2,0-0.7-0.1-1-0.1
		c0.2-1,0.4-2,0.7-2.9C113.4,43.8,113.8,43.7,114,43.7z M113.3,47.7c0,0.3,0,0.5,0,0.8c-0.4-0.1-0.8-0.1-1.1-0.2
		C112.2,47.6,112.7,47.6,113.3,47.7z M114.2,49.8c-0.4,0.1-0.8,0.2-1.1,0.2c0-0.4-0.1-0.8-0.1-1.1C113.6,49,114.2,49.1,114.2,49.8z
		 M114.3,50.8c0.1,0.7,0.3,1.5,0.5,2.2c-0.4,0.1-0.8,0.3-1.2,0.4c-0.1-0.8-0.3-1.6-0.4-2.4C113.5,50.8,113.9,50.9,114.3,50.8z
		 M115,53.9c0.2,0.7,0.5,1.3,0.6,2c-0.4,0.1-0.8,0.2-1.2,0.3c-0.2-0.6-0.4-1.2-0.6-1.8C114.2,54.1,114.6,54,115,53.9z M115.9,56.8
		c0.3,0.6,0.6,1.3,0.9,1.9c-0.5,0.1-0.9,0.2-1.4,0.3c-0.3-0.6-0.5-1.2-0.8-1.8C115.1,57,115.5,56.9,115.9,56.8z M117.2,59.6
		c0.3,0.5,0.5,1.1,0.8,1.6c-0.4,0.1-0.9,0.2-1.3,0.3c-0.3-0.6-0.6-1.2-0.9-1.8C116.3,59.7,116.7,59.6,117.2,59.6z M118.6,62.1
		c0.2,0.3,0.3,0.6,0.5,0.9c-0.4,0-0.9,0.1-1.3,0.1c-0.2-0.3-0.4-0.7-0.5-1C117.7,62.2,118.1,62.1,118.6,62.1z M111.1,71.2
		c-0.1,0.6-0.7,0.8-1.2,1.1C110.1,71.8,110.6,71.5,111.1,71.2z M109.7,74.1c-0.6,1.6-1.9,2.8-3.3,3.7c-0.5,0.3-1.3,0.5-1.8,0
		c-0.2-0.8,0.3-1.5,0.7-2.1c1-1.3,2.3-2.6,4-2.8C109.7,73.2,109.9,73.7,109.7,74.1z M104.6,79.1c-0.5,1.7-1.7,3.2-3.3,4
		c-0.5,0.3-1.4,0.2-1.5-0.5c-0.1-0.9,0.4-1.8,0.9-2.5c0.7-1,1.7-2,2.9-2.2C104.3,77.8,104.8,78.5,104.6,79.1z M96.6,91
		c-0.4-1.1-0.8-2.2-1.1-3.3c-0.2-0.4,0.2-0.8,0.3-1.1C95.8,88.1,96.4,89.5,96.6,91z M139.9,86.4c-0.1-0.7,0.6-0.9,1.2-1
		c0,0.2,0,0.5,0,0.7C140.7,86.1,140.3,86.2,139.9,86.4z M143.8,75c-1.1,0.5-2.4,0.1-3.5,0.5c0.9,0.2,2,0.1,2.9,0.5
		c-1.7,0.2-3.4,0.2-5.1-0.2c-0.2,0.1-0.4,0.3-0.6,0.4c2,0.5,4,0.5,6,0.8c-1.1,0.7-2.5,0.2-3.7,0.2c0,0.1,0,0.2,0,0.3
		c0.6,0.1,1.3,0.3,2,0.2c0.5,0.2,1.1,0.5,1.5,0.9c-0.1,0.4-0.2,0.7-0.3,1.1c-1.5-0.1-2.9-0.6-4.4-0.6c0.7,0.3,1.4,0.6,2,0.8
		c0.3-0.2,0.6,0,0.8,0.3c0.4,0.4,0.8,0.7,1.2,1.1c-0.2,0.6-0.6,1.3-1.4,1.4c0-0.6,0-1.2,0-1.8l-0.3,0c-0.1,0.7-0.1,1.3-0.4,2
		c-1.2,3.3-2.4,6.5-3.5,9.8c-0.2,0.7-0.5,1.4-0.8,2c0.8-2.6,1.4-5.2,2.2-7.8c-0.6,0.1-1.2,0.1-1.8,0.2c0-0.2-0.1-0.6-0.1-0.8
		c0.8-0.1,1.5-0.2,2.3-0.2c0.3-0.8,0.6-1.5,0.9-2.3c-1.2,0.3-2.5,0.1-3.5-0.6c-0.1-0.3,0-0.5,0.2-0.6c0.8-0.4,1.7-0.3,2.5-0.4
		c-1.1-0.6-2.2-1-3.4-1.4c-1-0.2-1.5,0.9-2.2,1.5c0.2-1.3,1.4-1.9,2.3-2.7c0.6-0.5,1.6-0.8,1.7-1.7c0.2-1-0.8-1.5-1.1-2.4
		c0.4,0.2,0.8,0.5,1.3,0.7c0.1-0.4,0.1-0.7,0.1-1.1c-0.5-0.1-0.9-0.3-1.3-0.6c2.7,0.3,5.3,0.2,8-0.2C144,74.5,143.9,74.8,143.8,75z
		 M144.2,72.4c-0.4,0.4-1.1,0.3-1.6,0.4c0.2-0.6,0.3-1.2,0.6-1.8c0.4-0.2,0.7-0.5,1.1-0.8c-0.2,0-0.6-0.1-0.8-0.1
		c0.2-0.4,0.4-0.8,0.7-1.2C144.8,69.9,144.4,71.2,144.2,72.4z M147.7,67.2c-0.9-0.2-1.7-0.5-2.6-0.7c0.2-0.9,0.4-1.8,1.2-2.3
		c0.2,0,0.7-0.1,0.9-0.1c0,0.5,0,0.9,0.1,1.4c0.5-0.9,0.4-2.1,1.3-2.8c0.5-0.7,1-1.5,1.8-1.9c-0.6,1.8-1.2,3.6-1.8,5.5
		C148.4,66.6,148.2,67.2,147.7,67.2z M175,44.3c0.2,0.4,0.4,1,0.8,1.3c0.5,0.2,0.9-0.3,1.4-0.4c-0.5,1.3-1.6,2.1-2.3,3.3
		c0.6-0.3,1-0.7,1.5-1c0.8-0.3,1,1.2,1.8,0.9c1.1-0.2,1.5-1.4,2.3-2c1.1-0.2,1.9-0.8,2.6-1.6c0.2-0.7,0.8-1.1,1.3-1.5
		c0.1,0.2,0.3,0.4,0.4,0.6c0,0.9,0,1.8,0.5,2.5c0.5,0.5,1.1,0.9,1.7,1.4c-0.3,0.5-0.7,0.9-0.6,1.5c-0.2,0-0.7-0.1-0.9-0.1
		c0-0.5,0-1-0.4-1.3c-0.1,0.4-0.2,0.8-0.4,1.2c-4.6-0.2-9.2-0.3-13.8,0.1c-1.9,0.1-3.7,0.3-5.6,0.4c0.7-1.3,2-1.9,3.2-2.5
		C170.8,46.2,172.9,45.3,175,44.3z M168.7,46.1c0.2-0.4,0.6-0.7,0.9-1c0.3,0.1,0.7,0.2,1,0.3C170,45.7,169.3,45.9,168.7,46.1z
		 M171.2,45.2c0.5-0.5,1.2-0.8,1.4-1.5c0.4-1,1.8-0.4,2.2,0.3C173.6,44.4,172.4,44.8,171.2,45.2z M169.2,53.2
		c-0.3-0.4-0.7,0.1-1.1,0.2c0,0.9,0,1.8,0.1,2.7c-0.2,0.1-0.3,0.2-0.5,0.3c-0.3-0.9-0.3-2-0.9-2.7c-0.5-0.2-1,0.3-1.2,0.7
		c-0.2,0.9-0.2,1.8-0.1,2.6c-0.2,0.1-0.6,0.3-0.9,0.3c-0.1-1.2-0.3-2.4-0.3-3.6c1.8-0.6,3.6-1.3,5.5-1.6c0.6,1.1,0.5,2.5,0.6,3.8
		C169.8,55.2,170.2,53.8,169.2,53.2z M169.6,56c-0.2,0-0.5,0-0.7,0c-0.1-0.8-0.2-1.6,0-2.4C169.3,54.4,169.5,55.2,169.6,56z
		 M167.1,56.6c-0.3,0.1-0.5,0.2-0.8,0.2c0-0.8-0.3-1.7,0.2-2.3C167,55.1,167,55.9,167.1,56.6z M166.8,59c0.3,0,0.5,0,0.8,0
		c-0.1,0.5,0.1,1.1-0.2,1.6c-0.8,0.1-1.6,0-2.4,0c0.2-0.7,0.2-1.7,1.2-1.6c0,0.4-0.1,0.9-0.1,1.3C166.8,60.3,166.6,59.6,166.8,59z
		 M170.1,51.5c-0.5-0.2-1-0.7-1.6-0.5c-1.4,0.3-2.9,0.6-4.3,0.9c-0.1-0.4-0.2-0.8-0.3-1.2c1.8-0.3,3.6-0.3,5.4-0.5
		c2.3-0.1,4.5-0.4,6.8-0.4c-0.9,0.2-1.8,0.3-2.7,0.4C172.2,50.4,171.2,51.1,170.1,51.5z M167.7,65.9c1.4,0,2.6,0.9,3.7,1.7
		c-0.2,0.6-0.5,1.2-0.7,1.8c0.1,0.4,0.2,0.8,0.3,1.1c-1.2-0.4-2.1-1.3-3.2-1.9c-0.5-0.4-1.1-0.6-1.3-1.2c0.5-0.1,1-0.1,1.4-0.3
		C167.9,66.7,167.8,66.3,167.7,65.9z M165.7,69.6c-0.4-0.3-0.9-0.5-1.4-0.4c0-0.1,0-0.4,0.1-0.6c-0.1,0-0.4,0-0.5,0
		c-3.4-3.1-5.8-7-8.6-10.6c1.4,1.2,2.5,2.7,3.8,4c1.8,2,3.9,3.7,6.1,5.3c0.5,0.4,1.2,0.6,1.3,1.3c-0.5-0.1-0.9-0.3-1.3-0.4
		C165.2,68.8,165.8,69,165.7,69.6z M163.7,69.2c-0.1,0.3-0.3,0.6-0.4,0.8c-0.4-0.3-0.7-0.7-1.1-1c0.1-0.3,0.2-0.5,0.3-0.8
		C163,68.5,163.3,68.8,163.7,69.2z M159.5,65.2c-0.1,0.2-0.3,0.5-0.4,0.7c-0.3-0.4-0.7-0.7-1.1-1.1c0-0.4,0.1-0.7,0.1-1.1
		C158.6,64.2,159.1,64.7,159.5,65.2z M154.3,69.5c0.2-0.5,0.5-1,0.8-1.4c0.8,0.2-0.1,1-0.2,1.5C154.7,69.6,154.5,69.5,154.3,69.5z
		 M154.5,70c-0.3,0.7-0.7,1.3-1.4,1.7C153.1,70.9,153.7,70,154.5,70z M155.3,67.7c0.2-0.7,0.3-1.8,1.2-1.5
		C156.3,66.8,156.3,67.9,155.3,67.7z M155.7,55.5c0.3-0.7,1-1,1.7-1.2C156.9,54.8,156.3,55.2,155.7,55.5z M156.7,53.1
		c0.5-0.2,1.1-0.4,1.6-0.6c0,0.5,0.1,1,0.1,1.5C157.8,53.7,157.3,53.4,156.7,53.1z M158.7,52.3c1.5-0.7,3.1-1.3,4.7-1.6
		c0.1,1.1,0.2,2.3,0.4,3.4c-1.5,0.6-3,1.2-4.5,1.8C159.1,54.8,158.9,53.5,158.7,52.3z M166.8,68.6c0.5,0.4,1.2,0.8,0.8,1.5
		c0.6-0.5,1.2-0.1,1.7,0.3c-0.2,0.3-0.5,0.7-0.7,1c-0.8-0.6-1.7-1.1-2.6-1.5C166.2,69.4,166.5,69,166.8,68.6z M162.2,63.3
		c-1-0.8-2-1.5-2.8-2.5c2.4,1.8,4.9,3.5,7.3,5.4C165,65.4,163.6,64.3,162.2,63.3z M162.4,55.7c-0.4,0.2-0.9,0.4-1.3,0.6
		c0,0.4,0.1,0.7,0.1,1.1c-0.6-0.1-1.2-0.1-1.7-0.2c0-0.2,0-0.5,0-0.7c1.5-0.6,3-1.2,4.5-1.8c0.1,1,0.3,2,0.4,3
		c-0.6-0.1-1.1-0.2-1.6-0.2C162.6,56.9,162.5,56.3,162.4,55.7z M176.4,50.3c1.2-0.2,2.5-0.6,3.7-0.2c-3.2,0.6-6.3,1.1-9.5,1.8
		C172.3,50.7,174.5,50.6,176.4,50.3z M181.1,50.8c0,1,0.1,2,0.1,3c-1.7,0.3-3.5,0.6-5.2,0.8c-1.7,0.1-3.2,0.8-4.8,1
		c-0.2-1-0.3-2-0.4-3C174.2,51.7,177.7,51.1,181.1,50.8z M179.7,54.6c1.3-0.2,2.6-0.4,4-0.4c0.4-0.1,0.7,0.2,1.1,0.3
		c-1.7-0.1-3.4,0.4-5.1,0.2C179.6,54.7,179.7,54.6,179.7,54.6z M182.6,52.2c-0.1,0.6,0.1,1.5-0.8,1.5c-0.1-1.2-0.1-2.4-0.1-3.6
		c-0.2-0.2-0.4-0.3-0.6-0.5c1.2,0,2.4-0.1,3.6,0.2c0.5-0.1,1.1-0.1,1.6-0.1c0,0.3,0.1,0.8,0.2,1.1c-0.9,0.3-1.9,0.1-2.5,0.9
		C183.7,52.2,183.1,52.2,182.6,52.2z M163.6,48.2c-1.1,0.6-2.1,1.2-3.1,1.8c-1.8,1.2-3.8,1.9-5.8,2.6c0.3-1,1.1-1.8,2.2-1.9
		c1.1,0.1,1.1-1.5,2.1-1.5c1.4,0.1,2.7-0.6,4-1.1c0.8-0.8,2-1.4,3.2-1.2C165.4,47.6,164.5,47.8,163.6,48.2z M156.1,53.8
		c0.3-0.2,0.6-0.2,0.9-0.1c-0.7,0.7-1.5,1.1-2.3,1.6c-0.2,0-0.6-0.1-0.8-0.1C154.6,54.7,155.4,54.3,156.1,53.8z M154.4,61.1
		c0.4,0.8,1,1.7,1.2,2.6c-0.5,3-1.9,5.7-3.9,7.9c-0.2-0.2-0.5-0.3-0.7-0.5c0.3-0.8,0.8-1.4,1.3-2c0.9-0.9,1.1-2.1,1.3-3.2
		c-0.1-0.4-0.3-0.7-0.5-1c1-1.1,0.5-2.6,0.1-3.8c-0.4-0.8-1.1-1.5-1.3-2.4C153.2,58.9,153.8,60.1,154.4,61.1z M156.7,91.8
		c0.7,0.1,1.2-0.8,1.9-0.9l0.2,0.4c-0.6,0.6-1.4,1.1-2.1,1.6c-0.4-0.5-0.5-1.2-0.8-1.8c0.7-0.6,1.3-1.1,2-1.7
		c0.1,0.2,0.3,0.6,0.4,0.8C157.7,90.6,156.6,90.9,156.7,91.8z M177.7,118.5c-0.2,0.6,0.7,0.9,1,1.4c-0.3,0.4-0.6,0.8-0.9,1.2
		c-0.7-0.7-1.5-1.3-2.2-2.1c0-0.1-0.1-0.4-0.1-0.5c0.5,0.3,1,0.7,1.5,0.8c0-0.7-0.6-1.1-1-1.5c0.4-0.3,0.8-0.7,1.1-1.1
		c0.8,0.8,1.6,1.5,2.4,2.3C178.9,119.8,178.4,118,177.7,118.5z M183.1,125.2c0.7,0.3,1.5,0.3,2-0.3c0.6-0.9,0.9-2,1.4-2.9
		c-0.2,1.9-0.7,3.7-1.7,5.4c-1.9-1.6-4.2-2.8-5.5-5C180.5,123.4,181.7,124.6,183.1,125.2z M176.2,116.7c-0.7,0.4-1.3,0.7-1.3,1.6
		c-0.4-0.3-0.7-0.7-1.1-1c0.3-1,0.6-2,0.9-3C175.1,115,176.7,115.6,176.2,116.7z M173.1,116.6c-0.6-0.6-1.3-1.3-1.9-1.9
		c0.7-0.6,1.4-1.2,2-1.9c0.3,0.3,0.6,0.6,0.9,0.9C173.7,114.7,173.4,115.6,173.1,116.6z M170.6,114c-0.2-0.2-0.4-0.4-0.6-0.5
		c0.6-0.7,1.3-1.3,2-2c0.2,0.2,0.4,0.5,0.6,0.7C171.8,112.7,171.2,113.3,170.6,114z M169.5,112.7c-0.2-0.2-0.4-0.4-0.7-0.5
		c0.7-0.6,1.3-1.3,2-1.9c0.2,0.2,0.4,0.5,0.7,0.7C170.8,111.5,170.1,112.1,169.5,112.7z M167.7,110.8c-0.5-0.4-0.9-1-1.3-1.5
		c0.5-0.7,1.1-1.5,2-1.7c0.7,0.5,1.1,1.2,1.7,1.8C169.7,110.3,168.8,111.1,167.7,110.8z M165.8,107.8c-1-0.1-1.3-1.2-1.9-1.8
		c0.7-0.6,1.4-1.2,2-1.7c0.4,0.6,1,1.2,1.4,1.9C167.5,107,166.7,108,165.8,107.8z M163.1,104.6c-0.5-0.4-0.8-0.9-1.1-1.5
		c0.6-0.6,1.4-1.2,2.1-1.7c0.2,0.5,0.6,0.9,0.6,1.5C164.7,103.7,163.9,104.5,163.1,104.6z M163,101.3c-0.3-0.3-0.6-1.3-1.1-0.9
		c-0.3,0.5,0.3,1,0.5,1.5c-0.3,0.2-0.5,0.4-0.8,0.6c-0.3-0.5-0.6-1-0.9-1.5c0.2-0.3,0.3-0.7,0.5-1c0.6,0,1.1-0.3,1.5-0.7
		c0.3,0.6,0.7,1.2,1,1.7C163.5,101.1,163.2,101.2,163,101.3z M160.8,99.3c-0.2,0.2-0.4,0.5-0.6,0.8c-0.3-0.7-0.6-1.3-1-1.9
		c0.9-0.2,1.5-0.9,2.1-1.5c0.3,0.6,0.8,1.2,0.9,1.9C162,99.2,161.3,99,160.8,99.3z M160.3,96.6c-0.4,0.4-0.9,1-1.6,0.6
		c-0.3-0.4-0.5-0.9-0.7-1.3c0.7-0.5,1.4-1,2.1-1.5C160.4,95,161,95.9,160.3,96.6z M157.7,95.1c-0.6-0.7,0.8-1,0.8-1.7
		c-0.7-0.1-1.4,1.1-1.7,0.2c0.7-0.5,1.5-1.1,2.2-1.6c0.3,0.6,0.5,1.2,0.8,1.8C159.2,94.2,158.5,94.8,157.7,95.1z M155.5,90.4
		c-0.1-0.3-0.3-0.7-0.4-1c0.3-0.4,1.1-0.6,1-1.2c-0.5-0.3-0.9,0.4-1.3,0.6c-0.2-0.4-0.3-0.7-0.5-1.1c0.6-0.5,1.3-1,1.9-1.4
		c0.4,0.8,0.8,1.7,1.3,2.5C156.9,89.3,156.2,89.9,155.5,90.4z M155,85.3c-0.3-0.5-0.4-1.2-0.8-1.6c-1.3,0.4,0.8,1.9-0.3,2.4
		c-0.5-0.8-0.7-1.6-1.1-2.4c0.7-0.5,1.3-0.9,2-1.2c0.3,0.8,0.6,1.7,0.9,2.5C155.5,85,155.2,85.1,155,85.3z M152.5,82.9
		c-0.5-0.8,0.3-1.1,0.8-1.6c0.3-0.8-0.9-0.2-1.1-0.1c-0.1-0.3-0.2-0.6-0.3-0.9c0.5-0.3,1-0.7,1.5-1c0.4,0.8,0.8,1.6,1.2,2.5
		C153.9,82.2,153.2,82.5,152.5,82.9z M152.7,78.9c-0.3-0.4-0.4-1.5-1.1-1c0,0.5,0.2,1.1,0.1,1.6c-0.4-1-0.7-2.1-1-3.1
		c0.5-0.3,1.4-0.7,1.7,0.1C152.5,77.2,153.3,78.1,152.7,78.9z M149.3,72.7c0.6,0.1,1.1,0.2,1.7,0.4
		C150.5,73.6,149.7,73.3,149.3,72.7z M151.2,72.9c0.5-0.5,0.9-1.2,1.7-1C152.5,72.3,152,73.1,151.2,72.9z M152,61.7
		c-0.3,0.3-0.6,0.6-0.9,0.9c0.1-0.5,0.3-1.1,0.4-1.6C151.7,61.2,151.9,61.4,152,61.7z M152.2,62.7c0,0.6-0.3,1.2-0.5,1.8
		c-0.3,0.7,0.1,1.4,0.1,2.1c-0.3,1.2-1.2,2.1-2.3,2.8c-0.3-0.4-0.8-0.8-0.6-1.4C149.7,66.1,150.6,64.1,152.2,62.7z M188.6,132
		c-0.6,2.5-1.2,5.1-2.6,7.3c-0.9-0.9-1.4-2-2.1-3c-2.1-2.8-4.6-5.2-6.8-8c-2.4-2.6-4-5.8-6.2-8.6c-3.3-4.1-7-7.8-10.2-11.9
		c-1.5-1.9-2.8-3.9-4-6c-1-1.7-1.7-3.6-2.5-5.4c-1.3-2.9-2-5.9-2.8-8.9c-1.3-4.7-2.5-9.5-2.9-14.4c0.7,1.7,1.1,3.5,1.7,5.2
		c1,3.4,2.3,6.7,3.6,10c0.9,2.3,1.7,4.6,2.8,6.8c1.3,2.5,2.8,5,4.1,7.5c1.1,2,2.5,3.8,3.8,5.6c1.3,1.8,2.5,3.7,4.1,5.3
		c2.3,2.4,4.7,4.7,6.7,7.4c2.9,3.3,6.3,6.1,9.2,9.4c0.3,0.3,0.6,0.8,1.1,0.9c1.8-3.9,2.3-8.2,2.7-12.4c0.1-0.4,0-1,0.4-1.3
		c0.1,0,0.2,0.1,0.2,0.1c0.4,2.3,1.1,4.6,1.2,6.9C189.6,127,189.1,129.5,188.6,132z M180.6,70.6c3.9,2,7.9,3.9,11.5,6.5
		c1.4,0.9,2.8,1.9,3.8,3.2c0.9,1.2,1,2.8,1.1,4.2c0,2.3,0,4.7-0.5,7c-1.8,8.4-4,16.7-5.5,25.1c-0.1,0.8-0.5,1.5-0.9,2.2
		c-0.6-1.2-1.1-2.5-1.8-3.6c0,0.6,0.3,1.1,0.2,1.7c-0.1,0.1-0.2,0.2-0.3,0.2c-0.4,1.1-0.9,2.2-1.8,3.1c-0.5,0.5-1.2,0.5-1.8,0.2
		c-4-2-7-5.4-10.2-8.5c-2.1-2.1-3.7-4.6-5.6-6.8c-2.6-3.2-5.2-6.4-6.9-10.1c-2.2-4-4.1-8.1-6-12.2c-1.4-2.9-2.4-6-3.4-9.1
		c2.1-1.7,3.6-4.1,4.7-6.6c1.3,2.7,2.6,5.5,3.5,8.4c0.3,1,0.7,1.9,1,2.9c0,1.5,0,3.1-0.1,4.6c0.1,0.7-0.8,0.6-1.2,0.7
		c1.1,1,2.1,2,3.1,3c-0.2-0.8-0.4-1.6-0.4-2.4c0.9,1.5,2,2.8,3.3,4c0.7,0.6,1.5,0.7,2.2,1.2c0.2,0.7,0.1,1.4,0.5,2.1
		c0.4,1,1.5,1.5,2.5,1.7c1.1,2,2.7,3.6,4.4,5.2c2,1.6,4,3.2,5.9,4.9c0.6,0.6,1.1,1.2,1.9,1.7c-1.6-2.4-3.6-4.5-5.5-6.7
		c-1.7-2-3.7-3.8-5.4-5.7c0.6-2.7,0.6-5.4,0.7-8.2c0-0.8-0.2-1.8-1-2.3c-0.4-0.2-0.8,0-1.3,0c-0.8-1.3-2-2.4-3.3-3.2
		c-0.7-0.4-1-1.5-1.9-1.7c-0.6-0.2-1,0.2-1.5,0.4c-0.6,0-1.2,0-1.8,0c0.1-0.9,0.2-1.8,0.2-2.8c-0.4-0.3-0.7-0.6-1.1-0.9
		c-0.3,0.3-0.5,0.6-0.8,0.9c-0.3-1-0.6-1.9-0.9-2.9c-0.3-2.2-1.3-4.1-1.9-6.2c0.5,0.5,1.1,1.1,1.8,1.3c-0.1-0.3-0.3-0.5-0.5-0.8
		c0.1-0.2,0.2-0.6,0.3-0.8c0.2,0.2,0.5,0.5,0.7,0.7c0,0.2-0.1,0.6-0.2,0.8c0.2-0.1,0.5-0.3,0.7-0.4c0.4,0.4,0.7,0.7,1.1,1.1
		c-0.2,0.3-0.4,0.7-0.4,1.1c0.4,0.5,0.9,0.9,1.3,1.4c-0.2,0.6-0.3,1.2-0.4,1.8c-0.3-0.3-0.6-0.5-0.9-0.8c0.1-0.2,0.2-0.7,0.3-0.9
		c-0.5,0.3-1,0.5-1.5,0.3c0.9,1,1.9,1.9,2.8,2.8c0.7,0.7,1.4,1.4,2.3,1.9c0.4-0.6,0.9-1.6,0.5-2.3c-0.6,0.4-0.6,1.2-0.8,1.7
		c-0.2-0.2-0.4-0.4-0.6-0.6c0-0.4,0.5-0.9,0-1.1c-0.1,0.1-0.4,0.3-0.5,0.4c-0.3-0.2-0.6-0.5-0.8-0.7c0-0.5,0-1.1,0.1-1.6
		c0.3-0.5,0.7-0.9,0.9-1.4c0.3,0.3,0.5,0.6,0.6,1c0.6,0,0.9,0.5,1.3,0.8c-0.2,0.3-0.4,0.7-0.6,1c0-0.3,0-0.9,0-1.1
		c-0.2,0.1-0.4,0.3-0.7,0.4c-0.2-0.1-0.6-0.3-0.8-0.4c0.4,0.7,1,1.3,1.8,1.6c0.3-0.3,0.5-0.6,0.8-0.9c0.3,0.2,0.5,0.4,0.8,0.6
		c-0.4-0.5-0.9-1-0.7-1.7c1.5,0.9,2.7,2.2,4.2,3c-0.3-0.8-1.1-1.3-1.8-1.9c0.2-0.4,0.4-0.7,0.6-1.1c0.9,0.6,1.9,1.2,2.8,1.9
		c-0.5,0.8-1.2-0.5-1.9,0c0.3,0.4,0.7,0.6,1.1,0.9c-0.1,0.4-0.2,0.7-0.3,1.1c0.8-0.2,1.1-1.1,1.5-1.7c3.7,2.4,7.6,4.7,11.3,7.1
		c2,1.4,4,2.7,5.9,4.1c1,0.8,1.7,1.9,2.5,2.9c0.6,1.1,0.9,2.4,1.1,3.6c0.3-1.9,0.5-3.7,0.7-5.6c0.1-1.6,0.1-3.5-1.1-4.7
		c-2.4-2.5-5.6-4.1-8.6-5.7c-3.7-1.7-6.9-4.5-10.6-6.1c-0.9-0.4-1.7-0.8-2.5-1.3c-2.8-2-6.3-2.8-8.9-5.1c2.6,1.4,5.3,2.5,8.1,3.5
		C174.3,67,177.3,69,180.6,70.6z M163.3,79.1c0-0.5,0.8-0.3,0.8,0.1C164.1,79.7,163.4,79.5,163.3,79.1z M164.5,85.1
		c-0.4-0.5-0.8-1.1-1-1.7C164,83.9,164.5,84.4,164.5,85.1z M164,80.7c-0.1,0.4-0.8,0.1-0.7-0.3C163.5,80,164.1,80.3,164,80.7z
		 M166.5,81.4c0.1,0.3,0.1,0.6,0.1,1c-0.5-0.1-1-0.1-1.5-0.2c0-0.5,0-1,0-1.5C165.6,80.9,166.1,81.1,166.5,81.4z M165.3,79.5
		c0.3-0.2,0.9,0.1,0.7,0.4C165.7,80.2,165,79.8,165.3,79.5z M166.5,83.2c0,0.4,0.3,0.8,0.2,1.2c-0.3,0.2-0.2,0.6-0.3,1
		c0-0.3-0.1-0.8-0.2-1.1l-0.5,0.1c0.2-0.1,0.5-0.3,0.7-0.4c-0.3-0.1-0.6-0.2-1-0.2c-0.1-0.3-0.2-0.5-0.4-0.8
		C165.5,83,166,83.1,166.5,83.2z M172.2,87.5c-0.1,1.4-0.4,2.7-0.6,4.1c-0.4-0.4-0.8-0.8-1.1-1.2C171.3,89.6,171.9,88.6,172.2,87.5z
		 M171.3,85.3c0.1,0.5,0.2,1,0.2,1.5C170.9,86.4,170.9,85.7,171.3,85.3z M170.6,91.9c-0.7-0.2-1.1-0.9-1-1.6
		C170.1,90.8,170.4,91.3,170.6,91.9z M169.8,83.2c-0.3-0.2-0.3-0.4,0.1-0.6C170.2,82.9,170.2,83,169.8,83.2z M169.2,82.6
		c-0.2-0.3,0.2-0.7,0.5-0.7C170.2,82.1,169.5,82.9,169.2,82.6z M167.8,80.5c0.6,0.3,1.1,0.7,1.5,1.3
		C168.6,81.7,168.1,81.1,167.8,80.5z M168,82.8c1.4,1.5,1.7,3.7,1.1,5.6c-0.9-0.7-1.6-1.8-1.3-3c0.2,0.2,0.5,0.5,0.7,0.7
		C169.2,84.9,167.5,84,168,82.8z M171.4,69.4c0.3-0.3,0.7-0.6,1.1-0.6c1.8,0.2,3.4,1.2,4.9,2.2c1.1,0.8,2.3,1.7,2.7,3
		c0.2,0.5-0.3,1-0.8,1c-1.7-0.1-3.1-1-4.5-1.8C173.4,72.2,171.9,71.1,171.4,69.4z M181.1,75.2c0.4-0.2,0.7-0.5,1.2-0.4
		c2.3,0.2,4.3,1.5,6.2,2.7c1.1,0.8,2.3,1.7,2.8,3c0,1.2-1.5,1-2.2,0.8c-2.4-0.7-4.7-2-6.6-3.7C181.7,77,181,76.2,181.1,75.2z
		 M192,80.1c0.6,0.6,1.3,1.2,1.7,2c0.1,1.4,0.2,2.9-0.1,4.3C193.5,84.2,193.2,82,192,80.1z M212.1,54.2c0.6,3.6-0.4,7.3-1.4,10.8
		c-0.7,2.1-1.2,4.4-2.9,6c-2.5-1-5.1-2-7.7-2.9c-4.7-1.6-9.6-2.6-14.5-3.2c-3.8-0.6-7.6-0.4-11.3-0.9c-2.9-0.2-5.9-0.6-8.6-1.9
		c3.2,0.5,6.5,0.3,9.7,0.4c8.5-0.3,17.1,0.1,25.4,2.3c1.7,0.4,3.2,1.1,4.9,1.6c0.5,0.3,0.7-0.3,0.8-0.7c1-2.6,0.6-5.4,1.2-8
		c0.3-2.2,0.9-4.5,0.2-6.7C209.5,51.8,211.8,52.3,212.1,54.2z M168.3,60.7c0-0.6,0-1.2,0-1.8c0.3,0,0.7,0,1,0c0,0.6,0,1.1,0,1.7
		C168.9,60.6,168.6,60.6,168.3,60.7z M175.9,57.3c0.3-0.1,0.8-0.2,1-0.3c0.6,0.4-0.1,1.5,0.8,1.6c0-0.6,0-1.1-0.1-1.7
		c0.5,0,1,0.1,1.5,0.1c-0.2,0.4-0.5,0.7-0.7,1c0.4,0.4,0.7,1,0.8,1.6c-0.9,0.1-1.9,0.3-2.8,0.4c-0.1-0.5-0.3-1.1-1-1.1
		c0.1,0.4,0.2,0.8,0.4,1.2c-0.5,0-0.9,0.1-1.4,0.1c-0.1-0.5-0.1-0.9-0.2-1.4l-0.6-0.1c0.1,0.5,0.1,1,0.2,1.5c-0.4,0-0.7,0-1.1,0.1
		c0.1-0.5,0.3-1.1,0.5-1.6c-1.2-0.2-2.4-0.2-3.5-0.5c1.2-0.3,2.3,0.1,3.5,0.1c0.1-0.9,1-0.8,1.7-0.9c0.3,0.7,0.4,1.6,1.3,1.5
		C176,58.4,175.9,57.9,175.9,57.3z M182.7,57.4c0,0.6,0.1,1.4-0.5,1.9c-0.8,0.2-1.6,0.2-2.5,0.4c0.1-0.9-0.1-1.9-0.2-2.8
		c1-0.1,1.9-0.2,2.9-0.3c0,0.1,0,0.3,0,0.4c-0.4,0-0.8,0.1-1.2,0.1C181.6,57.6,182.2,57.4,182.7,57.4z M182.3,60.9
		c2.8-0.2,5.6,0.4,8.4,0.8c-1.9,0.2-3.8-0.3-5.7-0.4c-2.1,0-4.1-0.1-6.2,0.1c-1.4,0.1-2.8,0.3-4.2,0.2
		C177.1,61.2,179.7,60.9,182.3,60.9z M190.8,59.8c-0.9-0.1-1.9-0.2-2.8-0.1c0.3-1.2,0.6-2.8-0.3-3.9c0.4-0.2,0.7-0.5,1.1-0.8
		c0.7,0,1.4,0.1,2,0.1C190.8,56.6,190.8,58.2,190.8,59.8z M171,59c0,0.5,0,0.9-0.1,1.4c-0.2,0.2-0.6,0.1-0.9,0.2
		c0-0.5-0.1-1.1-0.1-1.6C170.3,59,170.7,59,171,59z M192,55.1c1.7-0.1,3.6-0.3,5.2,0.4c0.3,1.4-0.1,2.9-0.1,4.4
		c-1.8,0.5-3.6,0.1-5.4,0C191.6,58.3,191.4,56.6,192,55.1z M206.7,55.7c-0.3,2.9-0.5,5.8-0.9,8.7c-1.6-0.3-3.3-0.6-4.9-1
		c1.3-0.1,2.9,0.1,3.8-1C206.1,60.4,205.9,57.9,206.7,55.7z M206.6,53.4c0-0.4,0-0.7,0.1-1.1c0.3,0.3,0.3,0.7,0.4,1.1
		C207,53.4,206.7,53.4,206.6,53.4z M203.4,60.5c-0.1,0.1-0.2,0.3-0.3,0.3c-1.1,0.1-2.1-0.1-3.2-0.2c-0.6-0.1-1.3-0.1-1.8-0.5
		c-0.4-0.9,0.1-1.9,0-2.9c0.1-0.6-0.1-1.5,0.4-1.8c1.2-0.3,2.5,0,3.7,0.1c0.5,0.1,1.2,0.1,1.3,0.7C203.6,57.6,203.6,59.1,203.4,60.5
		z M172.1,24.7c2.8-1.8,5.8-3.3,8.7-5c2.7-1.6,5.3-3.3,7.9-5c2.7-1.7,5.3-3.5,8.4-4.3c3.3,4.8,6,10.1,8,15.6c2,5,3.5,10.3,4.3,15.6
		c0.3,2.9,0.6,5.9,1.1,8.8c-1-0.1-2-0.2-3.1-0.2c0.1-2.6,0.4-5.2-0.1-7.7c-0.4-2.9-1.4-5.6-2.1-8.4c-1-3.1-1.9-6.2-3.1-9.2
		c-0.7-1.7-1.4-3.4-2.1-5c-0.6-1.6-1.6-3-2.4-4.5c-0.4-0.6-0.7-1.4-1.5-1.3c-0.9,0.2-1.6,0.8-2.4,1.3c-4.3,2.3-8.6,4.4-13,6.4
		c-3.1,1.7-6.2,3.1-9.3,4.8c-2.2,1.2-4.1,2.9-6.1,4.4c-1.6,1.2-2.9,2.8-4.5,4.1C164.1,31,167.8,27.4,172.1,24.7z M190.8,25.7
		c-0.2-1-0.5-2-0.8-3c-0.2-0.4-0.7-0.6-1.1-0.8c0.2-0.4,0.3-0.7,0.5-1.1c0.4-0.1,0.8-0.1,1.2-0.2c0.5,1.6,0.9,3.1,1.4,4.7
		c0.1,0.5,0.5,0.8,0.8,1.2c-0.8,0.1-1.5,0.3-2.3,0.4C190.6,26.6,190.9,26.2,190.8,25.7z M170.4,32.7c-0.9-0.6-1-1.8-1.4-2.7
		c0.8-0.4,1.5-0.9,2.3-1.3c0,0.5-0.7,1.9,0.2,1.7c0.5-0.8,0.3-1.9,1-2.5c0.3,1,0.6,2.1,0.9,3.1c-0.8,0.4-1.5,0.7-2.3,1.1
		c-0.3-0.6-0.4-1.4-1.1-1.6C170.1,31.3,170.3,31.9,170.4,32.7z M167.6,34c-0.3,0.2-0.7,0.4-1,0.7c0.2-1.1,0.2-2.3,0.5-3.4
		c0.2-0.2,0.5-0.4,0.8-0.6c0.6,0.7,1.1,1.5,1.7,2.2c-0.5,0.2-0.9,0.5-1.3,0.7c-0.1-0.4-0.1-0.8-0.2-1.2
		C167.1,32.4,167.6,33.5,167.6,34z M173,27.7c1-0.5,2-1,3-1.5c0.1,0.4,0.2,0.8,0.2,1.2c-0.6,0.6-1.6,0.7-1.7,1.6
		c0.7-0.2,1.3-0.5,2-0.8c0.2,0.4,0.3,0.8,0.5,1.2c-1,0.4-2,0.8-2.9,1.3C173.8,29.7,173.5,28.7,173,27.7z M176.5,26
		c0.9-0.5,1.9-0.9,2.9-1.3c0.5,0.7,0,1.4-0.3,2c0.4,0.4,0.8,0.8,1.1,1.4c-0.8,0.3-1.7,0.7-2.5,1C177.2,28.1,176.9,27,176.5,26z
		 M180,26.5c0.4-0.7,0.3-1.4,0-2.1c0.4-0.2,0.8-0.3,1.3-0.5c0.4,1.1,0.6,2.2,1,3.3c-0.5,0.2-0.9,0.3-1.4,0.5
		C180.5,27.4,180.2,27,180,26.5z M181.8,23.8c0.7-0.3,1.4-0.5,2.1-0.8c0.1,0.4,0.3,0.9,0.4,1.3c-0.4,0.2-0.8,0.5-1.1,0.8
		c0.1,0.8,0.9,0.2,1.3,0.1c0.1,0.4,0.3,0.8,0.4,1.3c-0.7,0.2-1.4,0.5-2.1,0.5C182.5,26,182.2,24.9,181.8,23.8z M185.1,22.7
		c0.3-0.2,0.6-0.2,0.8,0.1c0.8,0.9,1.5,1.8,2.2,2.7c-0.8,0.3-1.6,0.5-2.4,0.7C185.2,25.2,184.7,23.9,185.1,22.7z M188,19.6
		c1.3-0.8,2.8-1.5,4.1-2.2c1.3-0.6,2.5-1.4,3.8-1.8c0.4,0.7,0.8,1.4,1.2,2.1c-0.7-0.5-1.5-1.3-2.4-0.9
		C192.4,17.7,190.2,18.8,188,19.6z M192.2,24.3c-0.3-1.3-0.8-2.5-1.1-3.8c0.8-0.6,1.8-0.6,2.8-0.8c0.8,2,1.5,4,2,6.1
		c-0.8,0.2-1.7,0.5-2.6,0.6C192.5,26,192.5,25.1,192.2,24.3z M194.6,19.7c0.1-0.9,1.4-0.8,2-1.1c0.1,0,0.3,0,0.5,0
		c0.9,1.7,1.5,3.5,2.2,5.2c0.1,0.4,0.3,0.9,0.1,1.2c-0.7,0.3-1.4,0.4-2.2,0.5c-0.6,0-0.8-0.7-1-1.1C195.7,22.9,195,21.4,194.6,19.7z
		 M165.5,34.5c0,0.2,0,0.7,0,0.9c-0.6,0.4-1.2,0.7-1.8,1.1c-0.1-0.7-0.3-1.4-0.8-2c0.7-0.6,1.4-1.3,2.2-1.9c0,0.2,0.1,0.7,0.1,0.9
		c-0.3,0.4-0.8,0.7-1.1,1.2C164.7,35.2,165.1,34.6,165.5,34.5z M161.3,36.2c0.3-0.5,0.7-0.8,1.1-1.2c0.6,0.7,0.7,2-0.2,2.5
		c-1.3,0.8-2.4,1.8-3.7,2.7c0.7-1.1,1.6-2,2.4-3c0.2,0.1,0.4,0.2,0.6,0.3c0-0.5-0.1-1.1,0.4-1.4L161.3,36.2z M160.9,36.3
		c0.1,0.1,0.2,0.3,0.2,0.4c-1.7,1.6-3.4,3-5.1,4.6C157.6,39.6,159.2,37.9,160.9,36.3z M152.2,48.2c2-3.3,4.9-5.7,7.8-8.1
		c1.7-1.3,3.3-2.7,5.2-3.8c3.9-2.3,7.7-4.6,11.9-6.2c3,0.2,5.5,2.2,8.1,3.5c-0.8-1.1-2.1-1.7-3.2-2.5c-1.1-0.7-2.3-1.2-3.6-1.6
		c3.7-1.5,7.6-2.7,11.5-3.5c-0.5,0.5-0.3,1.9,0.6,1.6c3.5-0.5,6.8-1.7,10.3-2.2c-0.3,0.5-0.9,0.6-1.4,0.8c0.2,0.3,0.4,0.7,0.5,1
		c0.5-0.1,1.1-0.2,1.6-0.3c-0.2,0.5-0.9,0.6-1.3,0.8c0.2,0.4,0.3,0.8,0.5,1.2c0.5-0.1,1-0.2,1.5-0.3c-0.2,0.5-0.8,0.6-1.3,0.7
		c0.2,0.4,0.3,0.8,0.5,1.2c0.5-0.1,0.9-0.2,1.4-0.2c-0.2,0.6-0.8,0.6-1.3,0.8c0.1,0.4,0.2,0.7,0.4,1.1c0.5-0.1,1-0.2,1.6-0.2
		c-0.2,0.6-0.9,0.5-1.4,0.7c0.1,0.4,0.3,0.7,0.4,1.1c0.5-0.1,1-0.2,1.6-0.3c-0.3,0.6-0.9,0.6-1.4,0.8c0.1,0.4,0.3,0.8,0.4,1.1
		c0.5-0.1,1.1-0.2,1.6-0.3c-0.3,0.6-1,0.6-1.5,0.8c0.1,0.4,0.2,0.8,0.3,1.3c0.5-0.1,0.9-0.2,1.4-0.2c0.6,0.7-0.9,0.6-1.3,0.8
		c0.1,0.4,0.2,0.9,0.3,1.3c0.6-0.1,1.1-0.2,1.7-0.2c-0.2,0.7-1.1,0.5-1.6,0.7c0.1,0.5,0.2,1,0.3,1.5c0.6-0.1,1.1-0.1,1.7-0.2
		c-0.2,0.7-1,0.6-1.6,0.7c0.1,0.5,0.1,1.1,0.2,1.6c0.5,0,1.5-0.6,1.7,0.1c-0.5,0.1-1.1,0.2-1.6,0.3c0,0.5,0.1,1.1,0.1,1.6
		c0.6,0,1.2-0.1,1.8,0c-0.3,0.6-1.2,0.4-1.7,0.6c0,0.5,0,0.9,0,1.4c0.6,0.1,1.4-0.1,1.8,0.5c-0.6,0-1.2,0-1.8,0
		c-0.1,0.6-0.2,1.3-0.5,1.8c-1-0.1-2-0.2-3,0c1.6,0.4,3.3,0.6,5,1c0,0,0,0.1,0,0.1c-0.8-0.1-1.6-0.2-2.4-0.2
		c-0.2,1.5-0.4,3.2-1.6,4.3c-1.6,0.1-3.3-0.6-4.7,0.3c-0.8-0.7-2-0.6-3-0.6c0.4-2.3,0.7-4.8,0-7.1c-0.1,2.4,0.1,4.8-0.7,7
		c-1.2-0.1-2.4,0.3-3.5,0c-0.7-0.1-1.4-0.1-2.2-0.1c-0.5,0.5-1.7,0.5-1.6,1.4c-0.1,0.4,0.5,0.5,0.7,0.8c-0.1,0.9,0.3,2.2-0.8,2.6
		c-1.2,0-2.4-0.2-3.6,0c0.4-1,0.2-2.2-0.1-3.2c-4.5-0.4-8.9,1-13.3,1.5c-1.5,0.1-2.9,0.3-4.4,0.3c1.2-0.5,2.6-0.6,3.8-1.1
		c2.4-0.8,5-1.2,7.5-1.8c0.8-0.2,1.6-0.3,2.4-0.4c0,0.1,0.1,0.2,0.1,0.2c-0.3,0.1-0.6,0.2-0.9,0.3c1.5,0.1,3-0.1,4.5-0.2
		c1.1-0.2,2.4,0,3.3-0.7c-0.3,0-0.8,0-1.1,0c-0.2-0.1-0.4-0.3-0.5-0.4c2,0,3.9-0.3,5.9-0.5c-1.4-0.4-3,0.1-4.4-0.4
		c-0.6-0.1-0.9-0.7-1.3-1c0.7-0.2,1.4-0.2,2-0.4c0.7-0.3,0.6-1.2,0.6-1.8c1,0,1.9,0,2.9-0.2c-1-0.2-2-0.2-2.9-0.3
		c0.2-0.4,0.4-0.8,0.6-1.2c-0.1-1.4-1.9-1.6-2.1-2.9c-0.2-0.7,0.1-1.7-0.5-2.2c-0.3-0.3-0.7-0.7-1.2-0.4c-1.2,0.6-1.7,1.9-2.6,2.8
		c-0.6,0-1.2-0.1-1.6,0.4c-0.6,0.6-1,1.3-1.7,1.7c-0.2-0.4-0.4-0.8-0.6-1.2c0.3-0.5,0.7-1.2,0.2-1.8c-0.4-0.7-1.2-0.1-1.6,0.2
		c-0.3-1.4-1.8-2.5-3.3-2.2c-0.7,0.1-0.8,0.9-1.2,1.3c-0.3,0.3-0.6,0.5-0.9,0.7c-1.3-0.5-2.8,0.6-2.8,2c-0.9,0.4-1.7-0.3-2.6-0.3
		c-1,0.2-1.9,0.6-2.6,1.3c-1.2,0.7-2.5,1.2-3.9,1.2c-0.9,0-1.2,0.9-1.6,1.4c-1.1,0.1-2,0.6-2.6,1.6c0.1-0.6-0.2-1.3-0.9-1.3
		c-0.8-0.3-1.7,0-2.4,0.4C151.2,49.8,151.7,49,152.2,48.2z M143.3,50.1c1.8,0.6,3.7,1.2,5.6,0.8c-0.6-0.3-1.2-0.5-1.8-0.6
		c0.9-0.2,1.8-0.7,2.7-0.2c0.5,0.2,0.5,0.8,0.6,1.2c0.3,1.5,0.8,2.9,1,4.4c0,1.1-0.4,2.2-0.7,3.2c-0.5,1-1.5,1.6-2.4,2.3
		c0.4-1.9,1.1-3.7,1.7-5.6c-0.7,0.7-1,1.5-1.4,2.4c-0.5,1.2-1,2.4-1.2,3.7c-0.1,0.6-0.5,1.2-0.8,1.7c-0.2,0-0.6,0.1-0.8,0.1
		c-0.1-0.2-0.2-0.4-0.3-0.6c-0.1,0.7-0.3,1.5-1,1.9c-0.1-0.8-0.2-1.6-0.3-2.4c2.1-1.3,3.4-3.5,4-5.9c0.3-1.4,0.4-2.9-0.2-4.2
		c-0.5-1-1.7-1.7-2.9-1.4c-2,0.5-3.2,2.3-4.2,3.9c0.3,0,0.7-0.1,1-0.1c-0.2,0.5-0.5,0.9-0.8,1.4c0.1-0.3,0.2-0.9,0.2-1.2
		c-0.3,0.2-0.6,0.4-0.9,0.6c0.3-1.5,0.8-3,1.3-4.4C142.1,50.6,142.6,49.8,143.3,50.1z M140.4,51.6c0.2-1,0-2.1-0.1-3.1
		C141.2,49.4,141,50.7,140.4,51.6z M140.7,58.5c-0.8-0.1-1.7-0.2-2.5-0.4c0.5-0.4,1.3-0.5,1.9-0.6C140.3,57.9,140.5,58.2,140.7,58.5
		z M139.5,52.3c-0.2,0-0.5,0-0.6,0c0-0.5,0-1,0.1-1.6C139.6,51,139.5,51.7,139.5,52.3z M139.5,50.5c-0.9-0.2-0.7-1.2-0.8-1.9
		c0.3,0.2,0.6,0.4,0.8,0.6C139.5,49.7,139.5,50.1,139.5,50.5z M130.6,33.7c1.3,0.8,2.1,2.1,3.1,3.3c1.5,1.8,2.8,3.8,3.9,5.9
		c0.6,1.1,1.4,2.1,1.9,3.2c-2.9-3.2-5-7-8-10.1c-1.5-1.6-3.1-3.1-4.7-4.7C128,32.2,129.3,32.9,130.6,33.7z M81.6,52.7
		c1.1-0.7,2.2-1.2,3.3-1.9c1.8-1.1,3.8-1.8,5.6-2.7c-0.6,0.1-1.1,0.2-1.6,0.4c-2.2,0.8-4.5,1.4-6.7,2.2c0.3-2.5,0-5-0.2-7.5
		c0.1-3.2,0.8-6.4,1.8-9.5c0.7-3,1.9-5.8,3.1-8.6c1.8-3.9,3.6-7.8,6-11.3c0.8-1.2,1.8-2.4,2.7-3.6c2.7,1.1,5.2,2.8,7.7,4.2
		c4,2.2,7.6,4.8,11.4,7.2c3.6,2.4,7.3,4.9,10.8,7.5c0.8,0.6,1.5,1.2,2.1,1.8c-3.4-1.3-6.7-2.8-10.1-3.8c-1.3-0.5-2.7-0.7-4-1.4
		c2.2,0.3,4.3,1.1,6.5,1.5c-1.2-0.9-2.4-1.7-3.7-2.6c-3.4-2-6.6-4.3-10.1-6.1c-3.4-1.8-6.9-3.6-10.6-4.7c-0.9,0.9-1.5,2.1-2.1,3.2
		c-1.1,2.2-2.4,4.2-3.3,6.5c1.5-1.6,3.3-3.6,5.7-3.5c1.6,0.3,3.2,0.9,4.8,1.5c2.6,1,5.3,1.9,7.7,3.2c1.9,1.1,3.9,2,5.8,3.1
		c2.6,1.6,5.4,3,7.9,4.9c-4.8,0.2-8.3,4.2-10.1,8.3c-1.5-0.6-2.9-1.4-4.5-1.8c1.3,1.1,3,1.6,4.4,2.6c0.4,0.6,0.2,1.5,0.1,2.2
		c-0.3,1.4-0.6,2.8-0.6,4.2c-3.1-0.5-6.1-1-9.2-1.6c-0.2-0.2-0.3-0.3-0.5-0.5c2.2-0.6,3.8-2.7,4.2-4.9c0.8-3.7-1.3-7.7-4.8-9.2
		c-1.8-0.7-4-0.7-5.7,0.3c-1.6,0.9-2.7,2.5-3.1,4.3c-0.5,2.1,0,4.4,1.1,6.3c1.5,2.4,4.5,4,7.4,3.5c0.8-0.2,1.4,0.4,2.1,0.6
		c2.9,0.8,5.9,1.2,8.9,1.8c0.3,0.8,0.2,1.6,0.4,2.4c0.6,4.3,2.1,8.4,4.5,12c-3.8,0.4-7.5,1-11.3,1.7c2.1-1,4.5-1.3,6.8-1.8
		c-1.3-0.4-2.7-0.6-4-1.2c-0.5-1.1-0.8-2.4-1.8-3.2c-1.8-1.9-5-1.9-7-0.3c-1.7-2.2-5.2-2.8-7.5-1.2c-0.1-0.5,0.1-1.4-0.7-1.4
		c-0.6-0.1-1.2-0.2-1.9-0.2c-0.7,0.4-1.5,0.8-2.2,1.3c-0.4,0.7,0.3,1.2,0.7,1.6c-1.3-0.5-2.7-1.2-3.5-2.5c-0.8-1.2-0.6-2.8-0.8-4.2
		c-0.8,2.1-0.9,4.4-0.7,6.6c0.4,2.8,1.4,5.6,2.2,8.3c5.1-0.4,10.1-0.7,15.2-0.7c1.3,0.1,2.5-0.5,3.8-0.6c2.7,0,5.2,1.2,7.8,1.3
		c-0.9,0.6-1.7,1.2-2.7,1.7c-1.8-0.1-3.6-0.3-5.4-0.4c-3.6-0.1-7.2,0.1-10.8,0.5c-3.3,0.2-6.6,0.9-9.8,1.4c-1.5-5-2.4-10.1-2.7-15.3
		C80.3,53.9,80.9,53.1,81.6,52.7z M111.8,25.4c-2.1-0.6-4.3-1.7-5.5-3.6c-0.4-0.6,0.1-1.3,0.8-1.3c1.6-0.1,3.1,0.7,4.4,1.5
		c1,0.7,2.1,1.4,2.4,2.7C113.8,25.6,112.5,25.6,111.8,25.4z M114.5,24.6c0.8,0.1,1.5,0.5,1.9,1.2C115.8,25.5,115.1,25.1,114.5,24.6z
		 M98.3,19.1c-1.2-0.4-2.4-1-3.6-1.5c0-0.1,0-0.3,0-0.4c1,0,1.5-1,1.2-1.9c0.5-0.1,0.9-0.2,1.4-0.4c0.6,0.2,1.1,0.5,1.6,0.8
		c-0.2,0.4-0.3,0.8-0.5,1.3c0.1,0.2,0.2,0.4,0.3,0.6c0.5-1,1.7-0.9,2.6-0.7c1.7,0.4,3.4,1.2,4.5,2.7c0.3,0.4,0.5,1.1,0,1.5
		c-1.1,0.7-2.4,0.2-3.5-0.2c-1.4-0.6-3-1.4-3.5-3c-0.2-0.2-0.4-0.3-0.6-0.5C98,17.9,99,18.8,98.3,19.1z M94.2,18.2
		c0.1,1.1-1,1.8-1.6,2.6C93.1,19.8,93.5,18.9,94.2,18.2z M93.4,35.9c0.3,0.1,0.7,0.2,1,0.3c-0.1,0.3-0.2,0.7-0.3,1
		c-0.3-0.1-0.5-0.2-0.8-0.3c0.3-0.1,0.6-0.3,0.9-0.4C94.1,36.4,93.6,36.1,93.4,35.9z M94.3,35.4c0.4-0.9,1.1-1.8,2.1-2.1
		C95.7,34,95.2,35,94.3,35.4z M95.3,37.3c0.3-1.4,1.2-2.7,2.5-3.2c1.1-0.4,2.4-0.2,3.4,0.6c2.5,1.9,3,5.9,0.9,8.3
		c-1.1,1.3-3.1,1.5-4.5,0.5C95.6,42.1,94.7,39.5,95.3,37.3z M98.4,32.8c1-0.5,2.5-0.1,3.1,0.8C100.5,33.2,99.5,32.9,98.4,32.8z
		 M101.8,34.2c0.2-0.2,0.4-0.5,0.6-0.7c0.3,0,0.5,0.4,0.7,0.6C102.6,34.1,102.2,34.2,101.8,34.2z M103.3,34.6
		c0.9-0.2-0.1,1.1-0.6,0.7C102.6,35,103.1,34.7,103.3,34.6z M98.6,44.4c1.4,0.4,2.8-0.3,4-1.1c-1.7,2.3-5.7,1.8-7-0.6
		C96.6,43.4,97.4,44.2,98.6,44.4z M103.8,37.2c0.3-0.1,0.6-0.3,0.9-0.4c0.3,0.6,0.6,1.2,0.6,1.9C104.7,38.2,104.8,37.1,103.8,37.2z
		 M111.8,66.3c-1,0-1.9-0.2-2.8-0.8C110,65.6,111,65.8,111.8,66.3z M88.2,63.2c1-0.8,0.9-2.1,0.8-3.3c0.6,0.2,1.3,0.3,1.9,0
		c-0.6-0.2-1.2-0.2-1.9-0.1c0.1-0.9,0-1.9-0.8-2.5c0.5-0.3,1-0.6,1.5-0.8c0.5,0,0.9,0.1,1.4,0.1c0.1,1.8,0,3.7,0.3,5.5
		c0,0.4,0.5,0.7,0.7,1.1C90.8,63.3,89.5,63.3,88.2,63.2z M89,65.2c-1,0.1-2.1,0.1-3.1,0.2c-0.7-1.7-1.1-3.6-1.7-5.4
		c0.8,1.2,1.3,2.7,2.3,3.7C87.2,64.4,88.1,64.7,89,65.2z M92,58.8c0.4-0.9,1.4-1.4,2.4-1.6c1.4-0.2,2.9,0.3,3.9,1.3
		c1.5,1.6,0.2,4.6-1.9,5c-1.9,0.5-3.9-0.7-4.5-2.6C91.8,60.3,91.8,59.5,92,58.8z M99.9,64.9c-2.8,0.5-5.6,0.3-8.4,0.1
		C94.3,64.5,97.2,64.8,99.9,64.9z M99.6,62.1c-0.3-1.4,0.2-3.2,1.8-3.6c2.3-0.8,4.9,0.5,5.7,2.8c0.7,1.3-0.3,3-1.7,3.2
		C103.2,64.9,100.6,64.2,99.6,62.1z"/>
	<path class="st0" d="M196.5,12.9c1,0.7,1.8,1.8,2.8,2.6c-0.7-1.4-1.5-2.7-2.5-3.8c-1.1,0.1-2.2,0.8-3.1,1.5
		C194.6,12.9,195.6,12.3,196.5,12.9z"/>
	<path class="st0" d="M97.5,13.1c1.4,1.1,3.1,1.8,4.9,2.3C101,14.1,99.3,13.2,97.5,13.1z"/>
	<path class="st0" d="M97.3,15.2c-0.3,0.1-0.6,0.3-0.9,0.4c0,0.8-0.4,1.7-1.3,1.9c1,0.5,2,0.9,3.1,1.3c-0.5-1,0-2.1,0.4-3
		C98.2,15.6,97.8,15.3,97.3,15.2z"/>
	<path class="st0" d="M101.6,20.2c0.1-1,0.3-1.9,0.9-2.6c-1.1-0.3-2.5-1-3.4,0C99.2,18.9,100.6,19.5,101.6,20.2z"/>
	<path class="st0" d="M102.3,20.6c0.6-0.8,0.9-1.8,0.8-2.8C102,18.3,101.9,19.6,102.3,20.6z"/>
	<path class="st0" d="M105.8,20.3c-0.4-1.1-1.4-1.7-2.3-2.3c-0.1,0.9-0.4,1.8-0.8,2.7C103.7,20.8,105.4,21.5,105.8,20.3z"/>
	<path class="st0" d="M198,24.9c-0.3-1.8-0.9-3.6-1.5-5.4c-0.1,0-0.3,0-0.4,0l-0.2,0.2c0.3,1.3,0.8,2.5,1.1,3.8
		C197.2,24,197.2,24.9,198,24.9z"/>
	<path class="st0" d="M194.4,25.8c-0.2-1.4-0.7-2.6-1-4c-0.2-0.5-0.2-1.3-0.9-1.5c0.2,1.5,0.8,2.8,1.1,4.2
		C193.8,25,193.7,25.8,194.4,25.8z"/>
	<path class="st0" d="M106.5,21.2c0.5,1.2,1.6,2,2.6,2.7c0.2-0.9,0.5-1.7,1.1-2.3C109,21.2,107.5,20.3,106.5,21.2z M107.8,21.6
		c0.4-0.2,0.9,0.2,1.1,0.6C108.7,22.5,107.7,22.1,107.8,21.6z"/>
	<path class="st0" d="M98,21.4c0.5,0.2,0.9,0.4,1.3,0.7c-0.2,0.5-0.4,1-0.2,1.5c0.4-0.5,0.5-1.1,0.7-1.7c-0.6-0.6-1.4-0.7-2.1-1
		c-0.2,0.6-0.4,1.2-0.5,1.9C97.8,22.6,97.8,21.9,98,21.4z"/>
	<path class="st0" d="M110.7,21.9c-1,0.3-1.2,1.5-1.2,2.3C110.3,23.7,110.6,22.8,110.7,21.9z"/>
	<path class="st0" d="M92.9,24.6c0.4-0.5,0.6-1.2,0.8-1.8c0.4,0,0.7,0,1.1,0c0.5-0.8-0.9-0.6-1.3-0.8c-0.3,0.8-0.7,1.5-1,2.3
		C92.4,24.7,92.7,24.9,92.9,24.6z"/>
	<path class="st0" d="M100.3,22c-0.2,0.6-0.4,1.2-0.6,1.8C100.4,23.6,100.8,22.5,100.3,22z"/>
	<path class="st0" d="M111.1,22.1c-0.1,0.9-0.6,1.6-1.1,2.3c1.1,0.5,2.3,1,3.5,0.6C113.4,23.6,112.1,22.8,111.1,22.1z M111.5,23.6
		c0.4-0.1,0.9,0.1,1.1,0.5C112.4,24.6,111.3,24.1,111.5,23.6z"/>
	<path class="st0" d="M101.4,23.1c0.3-0.2,0-0.8-0.3-0.5C100.7,22.8,101,23.3,101.4,23.1z"/>
	<path class="st0" d="M102.3,24.8c0.7-0.2,0.5-1.1,0.7-1.7c-0.4-0.2-0.8-0.3-1.2-0.5c-0.2,0.6-0.5,1.2-0.4,1.8
		c0.4-0.3,0.6-0.9,0.8-1.4C102.6,23.7,102.4,24.3,102.3,24.8z"/>
	<path class="st0" d="M95.7,25.8c0.8-0.6,1.2-1.7,1.2-2.7c-1.1,0.2-0.6,2.2-1.9,1.8c0.3-0.7,0.6-1.4,0.8-2.1
		c-0.9,0.4-1.1,1.5-1.6,2.2C94.5,25.5,95.1,25.6,95.7,25.8z"/>
	<path class="st0" d="M103.8,23.9c0.3,0.2,0.6,0.3,1,0.3c-0.2,0.5-0.3,1-0.3,1.5c0.4-0.4,0.6-1,0.7-1.5c-0.6-0.3-1.1-0.6-1.7-0.9
		c-0.3,0.6-0.5,1.2-0.4,1.8C103.5,24.8,103.7,24.4,103.8,23.9z"/>
	<path class="st0" d="M101,23.9c0.1-0.4,0-0.6-0.5-0.4C100.4,23.9,100.6,24.1,101,23.9z"/>
	<path class="st0" d="M97.7,24.1c-0.3,0.4,0.3,0.8,0.6,0.4C98.6,24.2,97.9,23.7,97.7,24.1z"/>
	<path class="st0" d="M105.8,24c-0.3,0.6-0.5,1.1-0.5,1.8C105.9,25.4,105.9,24.7,105.8,24z"/>
	<path class="st0" d="M186.8,25.6c0-0.7-0.5-1.2-0.8-1.7c-0.1,0.1-0.2,0.3-0.3,0.4C185.9,24.7,186.1,25.9,186.8,25.6z"/>
	<path class="st0" d="M99.3,24.4c-0.4,0.4-0.7,1-0.9,1.6c-0.2,0.3,0.1,0.6,0.3,0.8C99.1,26,99.9,25.1,99.3,24.4z"/>
	<path class="st0" d="M106.3,26.1c0.2-0.6,0.4-1.1,0.3-1.8C106.3,24.8,105.7,25.6,106.3,26.1z"/>
	<path class="st0" d="M100.2,25.1c-0.3,0.8-1,1.5-0.6,2.4c0.8-0.4,1-1.6,1.1-2.5C100.5,25,100.3,25.1,100.2,25.1z"/>
	<path class="st0" d="M203.1,24.7c0.3,2.1,1,4.2,2.2,6C205.1,28.6,204.4,26.5,203.1,24.7z"/>
	<path class="st0" d="M97.6,25.7c0.1-0.4-0.2-0.6-0.6-0.6c0,0.2,0,0.5,0.1,0.7C97.2,25.8,97.5,25.7,97.6,25.7z"/>
	<path class="st0" d="M108.6,25.1c-0.5,0.5-0.8,1.1-0.8,1.7C108.4,26.4,108.5,25.7,108.6,25.1z"/>
	<path class="st0" d="M109.3,25.4c-0.5,0.5-0.7,1.1-0.8,1.8C109.2,26.8,109.2,26,109.3,25.4z"/>
	<path class="st0" d="M101.2,27.2c0.2-0.5,0.4-1.1,0.6-1.7c-0.8,0.3-0.9,1.3-1.3,2c0.6,0.3,1.2,0.5,1.8,0.5
		C102.1,27.6,101.7,27.4,101.2,27.2z"/>
	<path class="st0" d="M109.8,25.8c-0.2,0.5-0.4,1.1-0.4,1.6C109.8,27,110.3,26.2,109.8,25.8z"/>
	<path class="st0" d="M178.6,27.7c-0.2-0.4,0-1.8-0.8-1.6C177.9,26.7,177.8,27.6,178.6,27.7z"/>
	<path class="st0" d="M104.7,26.8c-0.3-0.4-0.9-0.4-1.3-0.5c-0.3,0.8-0.9,1.5-0.8,2.4c0.8,0,0.8-1.1,1.1-1.7
		C104,27.1,104.7,27.4,104.7,26.8z"/>
	<path class="st0" d="M111.8,27c-0.4,0.3-0.7,0.6-1.2,0.7c0-0.5,0-1,0-1.4c-0.3,0.5-0.4,1-0.6,1.5c0.5,0.2,0.9,0.4,1.4,0.6
		C111.6,27.9,111.8,27.4,111.8,27z"/>
	<path class="st0" d="M91.9,28.6c0.1-0.8,0.7-1.7,0.3-2.5C91.7,27,91.4,28,91.1,29c0.5,0.3,1,0.6,1.6,0.5
		C93.2,29,92.2,28.8,91.9,28.6z"/>
	<path class="st0" d="M85.8,36.3c-0.7,2.7-0.6,5.6-0.8,8.4c0.9-2.1,1.4-4.3,1.7-6.6c0.8-3.8,1.4-7.7,2.5-11.4c-0.7,1-1,2.3-1.4,3.4
		C87,32.2,86.3,34.2,85.8,36.3z"/>
	<path class="st0" d="M104.5,28.5c-0.2,0.3-0.2,0.9,0.3,0.9c0.4-0.7,0.8-1.6,0.8-2.4C104.9,27.2,104.8,28,104.5,28.5z"/>
	<path class="st0" d="M93.2,29.9c0.1,0,0.4-0.1,0.6-0.1c0.3-0.8,0.6-1.6,0.7-2.4c-0.1,0-0.3-0.1-0.4-0.1
		C93.6,28.1,93.3,29,93.2,29.9z"/>
	<path class="st0" d="M106.2,27.5l-0.1,0.2c-0.3,0.6-0.7,1.2-0.7,1.9c0.9-0.1,1-1.3,1.2-2C106.5,27.6,106.3,27.5,106.2,27.5z"/>
	<path class="st0" d="M112.8,28.9c0.1-0.4,0.3-0.9,0.3-1.4c-0.2,0.2-0.4,0.5-0.6,0.8c-0.3-0.3-0.3-0.6,0-1.1
		c-0.4,0.3-0.5,0.8-0.7,1.3C112.2,28.6,112.5,28.8,112.8,28.9z"/>
	<path class="st0" d="M95.6,28.2c-0.4-0.6-0.7,0.3-0.7,0.6C95.2,28.9,96.1,28.5,95.6,28.2z"/>
	<path class="st0" d="M106.4,30c1.1,0.4,1.4-1.2,1.8-1.8c-0.7-0.2-0.9,0.8-1.3,1.2c-0.2,0-0.6,0.1-0.8,0.2
		C106.1,29.7,106.3,29.9,106.4,30z"/>
	<path class="st0" d="M113.5,29.5c0.2-0.4,0.9-1.1,0.1-1.3C113.6,28.5,112.8,29.5,113.5,29.5z"/>
	<path class="st0" d="M108.8,28.8c-0.4,0.5-1,1.2-0.6,1.9c0.6-0.1,0.6-0.9,0.8-1.3C109.2,29.2,109.1,28.3,108.8,28.8z"/>
	<path class="st0" d="M115.3,30.5c0.1,0.1,0.2,0.3,0.3,0.4c0.2-0.3,0.5-0.5,0.7-0.8c0,0.3-0.1,0.8-0.1,1.1c0.6-0.2,0.5-1,0.7-1.5
		l-0.3,0.4c-0.2-0.2-0.4-0.4-0.5-0.6c-0.1,0.2-0.3,0.3-0.5,0.4c0-0.6-0.4-1.3-1.1-1.2c-0.3,0.4-0.4,0.9-0.6,1.4
		c0.4-0.3,0.7-0.6,1.1-0.9C115.2,29.6,114.6,30.5,115.3,30.5z"/>
	<path class="st0" d="M94.5,29.9c0.4,0.6,0.8-0.2,0.8-0.6C94.9,29.2,94.1,29.3,94.5,29.9z"/>
	<path class="st0" d="M110.4,29.7c0.1-0.3-0.4-0.6-0.6-0.4C109.1,29.7,110.3,30.3,110.4,29.7z"/>
	<path class="st0" d="M91.3,34.1c0.8-0.5,1.5-1,2.3-1.5c1.7-1.1,3.5-1.8,5.2-2.8C95.8,30,93.1,31.8,91.3,34.1z"/>
	<path class="st0" d="M111.3,29.8c-0.4,0.6-0.7,1.2-0.8,1.9c0.2,0,0.5,0,0.6,0C111.3,31.1,112,30.3,111.3,29.8z"/>
	<path class="st0" d="M181.4,30c1.6,0.9,3.3,1.7,5,2.4C185.1,31,183.2,30.3,181.4,30z"/>
	<path class="st0" d="M109.6,31c0.6-0.1,0.4-0.9-0.2-0.8C108.9,30.4,109.1,31.2,109.6,31z"/>
	<path class="st0" d="M112.2,32.3c0.2-0.6,0.8-1.3,0.3-1.9c-0.4,0.5-0.8,0.9-1,1.5C111.5,32.2,111.9,32.8,112.2,32.3z"/>
	<path class="st0" d="M117.4,30.9l0.8,0.2c-0.3-0.1-0.3-0.7-0.7-0.6c-0.1,0.3-0.3,0.5-0.4,0.8c0.2,0.1,0.5,0.2,0.7,0.3
		C117.7,31.5,117.5,31.1,117.4,30.9z"/>
	<path class="st0" d="M199.8,36.2c-0.6-0.7-1.3-1.3-2-1.9c-2.1-2-4.9-3.4-7.8-3.7c0.4,0.5,1.1,0.7,1.7,0.9
		C194.7,32.7,197.1,34.7,199.8,36.2z"/>
	<path class="st0" d="M115.2,32c0-0.8-1.1-0.8-1.7-1c-0.4,0.6-0.8,1.3-0.8,2c0.1,0,0.4,0,0.6,0c0.2-0.5,0.4-1,0.6-1.4
		C114.3,31.8,114.9,32.5,115.2,32z"/>
	<path class="st0" d="M111.8,34.3c2.1-0.2,4.1-0.6,6-1.5C115.7,32.5,113.6,33.2,111.8,34.3z"/>
	<path class="st0" d="M197.1,36.2c1.5,0.9,2.8,2.1,4.4,2.9c-2.7-2.8-5.9-5.4-9.8-6.1C193.4,34.3,195.3,35.1,197.1,36.2z"/>
	<path class="st0" d="M170.8,35.2c0.2,0.3,0.4,0.9,0.8,0.6c0.1-0.6-0.4-1.6-1.1-1.6c-0.3,0.1-0.6,0.4-0.8,0.7
		C170,35.3,170.6,34.7,170.8,35.2z"/>
	<path class="st0" d="M96.9,38.5c-0.4,1.1-0.4,2.4,0.3,3.4c0.2-0.8,0.1-1.7,0.6-2.4c0.1,1-0.1,2-0.1,3c0.1,0.1,0.4,0.3,0.5,0.3
		c0.3-0.9-0.2-2.2,0.7-2.9c0,1-0.3,2-0.1,3l0.5,0.2c0.1-0.9,0.2-1.8,0.4-2.7c0.1-0.1,0.2-0.2,0.3-0.2c0,1-0.2,1.9-0.2,2.9
		c1.3-0.3,0.3-2.2,1.3-2.8c0,0.8-0.2,1.5-0.3,2.3c0.9-0.7,1.1-1.8,1.2-2.9c-0.6-0.3-1.2-0.5-1.9-0.7c0.1-0.4,0-1,0.5-1.3
		c1.3,0.1,1.5,1.6,2.2,2.4c0.3-1.6-0.2-3.3-1.5-4.3c-0.3,0.3-0.4,0.9-1,0.9c-0.5-0.4,0.1-1.1-0.3-1.6c-0.2,0-0.6,0.1-0.8,0.1
		c0,0.2,0,0.7-0.1,0.9c-0.9,0.5-1-0.7-1-1.3c-1.7,0.8-3.1,2.7-2.5,4.6c0.6-0.6,0.8-1.8,1.8-2c0.6-0.3,1.2,0.3,1.1,0.9
		C98.6,39,97.4,38.4,96.9,38.5z"/>
	<path class="st0" d="M178.7,34.6c-1.7,0.9-3.4,1.9-5.1,2.8c-1.5,0.7-2.8,1.7-4,2.8C172.8,38.6,175.9,36.9,178.7,34.6z"/>
	<path class="st0" d="M169.7,36.6c-0.1-0.6-0.4-1.1-0.7-1.6c-0.1,0.1-0.3,0.2-0.4,0.3c0.2,0.5,0.4,1.1,0.7,1.5
		C169.4,36.7,169.6,36.6,169.7,36.6z"/>
	<path class="st0" d="M193.1,43.3c-0.9-3.2-2.8-6.3-5.8-7.9c0.8,1.1,1.9,1.8,2.6,2.9C191.2,39.8,191.9,41.7,193.1,43.3z"/>
	<path class="st0" d="M168.8,37.4c-0.1-0.6-0.3-1.2-0.6-1.8c-0.1,0-0.3,0.1-0.4,0.2C168,36.3,168.1,37.2,168.8,37.4z"/>
	<path class="st0" d="M196.3,37c-1-0.4-2-0.9-3.1-1.2c0.3,0.3,0.7,0.6,1.1,0.8c2.6,1.6,5.1,3.5,7.7,5.1
		C200.3,39.9,198.6,38,196.3,37z"/>
	<path class="st0" d="M166.9,36.3c0,0.1-0.1,0.3-0.1,0.4C167.3,37.6,167.8,35.9,166.9,36.3z"/>
	<path class="st0" d="M165.8,37.1c0.5,0.5,0.6,1.4,1.3,1.7c-0.1-0.7-0.4-1.4-0.8-2c-0.4-0.3-1,0-1.2,0.4c0.1,0.7,0.4,1.4,1,1.9
		C166.1,38.5,165.5,37.8,165.8,37.1z"/>
	<path class="st0" d="M167.7,38c0.4,0,0-0.8-0.4-0.5C167,37.7,167.3,38.2,167.7,38z"/>
	<path class="st0" d="M164,38.7c0.2-0.3,0.8-0.5,0.7-1c-0.6-0.1-0.9,0.4-1.4,0.7c0.3,0.7,0.6,1.5,1.2,2
		C164.6,39.7,164.2,39.2,164,38.7z"/>
	<path class="st0" d="M124.8,39.1v-0.3c-1.3-0.2-2.8,0-3.6,1.2C122.3,39.6,123.4,38.9,124.8,39.1z"/>
	<path class="st0" d="M164,40c-0.2,0-0.6,0.1-0.8,0.1c-0.3-0.3-0.5-1-1-0.8c0,0.6,0.4,1.1,0.7,1.5C163.3,41.1,163.9,40.4,164,40z"/>
	<path class="st0" d="M122,40.2c0.8-0.1,1.6-0.4,2.3-0.7C123.5,39.3,122.7,39.6,122,40.2z"/>
	<path class="st0" d="M126.8,40.4c0.1-0.4-0.6-0.4-0.8-0.1C125.9,40.7,126.6,40.7,126.8,40.4z"/>
	<path class="st0" d="M119.6,42c1.1-0.6,2.4-0.3,3.4-0.8C122,41.1,120.2,40.7,119.6,42z"/>
	<path class="st0" d="M160.7,42.2c-0.3-0.3-0.6-0.7-1-1c-0.1,0-0.3,0.1-0.4,0.1c0.2,0.3,0.4,0.6,0.6,0.9c-0.1,0.1-0.3,0.2-0.4,0.3
		c-0.2-0.4-0.5-0.6-0.9-0.7c0.2,0.6,0.6,1,1,1.5C160,42.9,160.4,42.6,160.7,42.2z"/>
	<path class="st0" d="M161.2,41.8c0.2-0.4,0-0.6-0.4-0.5C160.6,41.8,160.8,42,161.2,41.8z"/>
	<path class="st0" d="M121.4,42.6c0.3,0,0.8,0.1,1.1,0.1c-0.6,0.4-1.2,0.7-1.6,1.3c0.3-0.1,0.8-0.3,1.1-0.4
		c-0.3,0.3-0.5,0.6-0.8,0.9c0.1,0.1,0.2,0.3,0.3,0.4c0.8-1.2,2.2-1.3,3.4-1.5c-0.7-0.2-1.4-0.1-2.1-0.3c0.4-0.1,0.9-0.1,1.3-0.1
		c0-0.2-0.1-0.5-0.1-0.7c0.2-0.1,0.6-0.2,0.8-0.3C123.7,42.3,122.5,42.1,121.4,42.6z"/>
	<path class="st0" d="M159.4,43.8c-0.2-0.6-0.6-1.1-1-1.6c-0.1,0.1-0.3,0.2-0.3,0.2C158.4,42.9,158.6,43.8,159.4,43.8z"/>
	<path class="st0" d="M158.1,43.7c0.2-0.4-0.3-1-0.7-0.7C157.1,43.3,157.8,43.9,158.1,43.7z"/>
	<path class="st0" d="M157.7,45c0.3-0.3,0.6-0.6,0.9-0.9c-0.2,0-0.7,0-0.9,0c-0.3-0.3-0.7-0.6-1.1-0.8C156.7,44,157.2,44.5,157.7,45
		z"/>
	<path class="st0" d="M126.1,44.7c0.7,0.1,1.4,0.2,2,0.5c-0.5,0.2-1.2,0.1-1.3,0.7c0.6-0.2,1.2-0.2,1.7,0c0.3-0.1,0.7-0.1,1-0.1
		c-0.2,0.2-0.3,0.4-0.5,0.7c0.4,0.2,0.6,0.6,0.6,1.1c0.6-0.3,0.6-1.1,1-1.6c-0.9-0.5-1.8-1.2-2.8-1.6
		C127.2,44.2,126.4,44,126.1,44.7z"/>
	<path class="st0" d="M127,46.3c0.3,0.4,0.8,0.7,1,1.1c0.1,0,0.4,0.1,0.5,0.1c0-0.3,0-0.6,0-0.9c0.3,0.2,0.7,0.5,1.1,0.7
		C129.1,46.4,127.9,45.9,127,46.3z"/>
	<path class="st0" d="M131.6,46.1c-0.4,0-0.7,0.5-0.5,0.8C131.6,47.2,132.2,46.3,131.6,46.1z"/>
	<path class="st0" d="M88.6,53.7c1.2-0.2,1.9-1.2,2.8-1.9C91,52.7,90,53.1,90,54.1c0.4-0.3,0.7-0.6,1-0.8c0.4,0.2,0.7,0.2,1.1,0
		c0,0.1,0,0.3,0,0.3c1.2,0,2.4,0.8,3.6,0.1c0.4,0.2,0.2,0.8,0.7,0.9c0.6,0,1.1-0.4,1.5-0.8c0.1,0.1,0.2,0.4,0.2,0.5
		c1.4,0.4,2.9,0.3,4.4,0.4c0.1,0.5-0.1,1.3,0.6,1.4c0.6-0.4,1-1,1.4-1.5c0.4,0.3,0.8,0.8,1.3,0.8c1.3,0.2,2.5,0.8,3.9,0.6
		c-0.1-0.1-0.3-0.3-0.4-0.4c-1.2-0.3-2.3-0.5-3.5-0.8c-0.4-0.1-0.7-0.5-1-0.7c0.2-0.3,0.3-0.6,0.5-0.9c-0.4,0.1-0.7,0.3-1.1,0.5
		c-0.7-0.3-1.2-0.1-1.7,0.5c-0.8,0-1.5-0.4-2.3-0.1c0.1-0.3,0.2-0.5,0.3-0.8c-0.4,0.2-0.9,0.4-1.3,0.6c0.5-0.6,1.1-1,1.6-1.6
		l-0.1-0.3c-0.8,0.3-1.3,1.1-1.9,1.6c-0.1-0.1-0.4-0.2-0.5-0.3c-0.3-0.9,1.3-1,1.3-2c-0.5-0.6-1.3,0-1.8,0.4c-0.1,0.5-0.4,0.8-0.8,1
		c0.2,0,0.7,0.1,1,0.2c-0.4,0.4-0.9,0.3-1.4,0.2c0-0.5,0.2-1.1-0.4-1.3c0,0.2,0,0.6,0,0.9c-0.4,0.4-0.8,0.7-1.2,1
		c-0.4-0.6-1-1.2-1.6-0.6c-0.1-0.2-0.2-0.5-0.3-0.7c-0.5-0.1-0.9-0.1-1.4-0.1c0.6-0.5,1-1.2,1.3-2c-0.7,0.2-1.2,0.7-1.8,1.1
		c-0.7,0.2-1.4-0.1-2.1,0.3c0.6,0.1,1.1,0.2,1.7,0.2c-0.5,0.6-1.2,1.1-2,1.3c-0.2-0.2-0.5-0.5-0.8-0.6C88,53.1,88.1,53.6,88.6,53.7z
		 M103.7,54.8c0.1,0.3-0.3,0.9-0.7,0.7C102.8,55.1,103.3,54.6,103.7,54.8z M99,51.6c0.1,0.4-0.5,0.9-0.9,0.7
		C97.9,51.9,98.7,51.4,99,51.6z M96.5,53.8c0.2-0.3,1-0.1,0.6,0.3C96.9,54.4,96.1,54.2,96.5,53.8z"/>
	<path class="st0" d="M162.3,52.5c-0.8,0.1-0.5,0.9-0.7,1.4c-0.2,0.1-0.7,0.2-0.9,0.3c0-0.3-0.1-0.8-0.1-1.1
		c-0.5,0.2-0.9,0.3-1.1,0.8c0.2,0,0.5,0.2,0.7,0.2c-0.2,0-0.5,0-0.7,0c0,0.3,0.1,0.8,0.1,1c1.2-0.4,2.3-1,3.3-1.6
		c0-0.3-0.1-0.7-0.1-1c-0.1-0.1-0.4-0.2-0.5-0.3c0.3-0.4,0.7-0.6,1-0.9c-0.9,0.1-1.7,0.6-2.6,0.9c-0.6,0.3-1.4,0.5-1.8,1.1
		C160.2,53.4,161.1,52.1,162.3,52.5z"/>
	<path class="st0" d="M179,52.1c0.3-0.3-0.1-1-0.4-0.7C178.2,51.7,178.6,52.5,179,52.1z"/>
	<path class="st0" d="M180.5,51.4c-0.6-0.4-0.5,0.4-0.5,0.7C180.3,52,180.6,51.8,180.5,51.4z"/>
	<path class="st0" d="M177.3,52.3c0.2-0.3-0.1-0.8-0.4-0.6C176.4,51.9,177,52.9,177.3,52.3z"/>
	<path class="st0" d="M131.2,55.3c-0.8-1.3-2-2.2-2.9-3.5C128.7,53.4,130,54.5,131.2,55.3z"/>
	<path class="st0" d="M175.3,52c-0.3,0.2-0.2,0.6-0.2,0.9c0.2-0.1,0.5-0.2,0.7-0.3C175.6,52.3,175.6,52,175.3,52z"/>
	<path class="st0" d="M131.5,52.1c-0.6,0-0.9,0.3-1.1,0.8C130.9,52.9,131.2,52.5,131.5,52.1z"/>
	<path class="st0" d="M173.9,52.4c-0.2,0-0.5,0-0.7,0.1c0.1,0.2,0.2,0.4,0.3,0.6C173.9,53.2,173.8,52.7,173.9,52.4z"/>
	<path class="st0" d="M172.4,52.7c-0.4-0.5-0.9,0.3-0.6,0.6C172.2,53.7,172.8,53.1,172.4,52.7z"/>
	<path class="st0" d="M180.4,53.4c0.6-0.2,0-1.1-0.4-0.6C179.9,53.1,179.9,53.6,180.4,53.4z"/>
	<path class="st0" d="M178.9,53c-0.5-0.3-0.5,0.3-0.6,0.6c0.2,0,0.5,0.1,0.7,0.1C179,53.5,179,53.1,178.9,53z"/>
	<path class="st0" d="M176.9,53.1c-0.1,0.3-0.2,0.5-0.3,0.8c0.2,0,0.6,0,0.8-0.1C177.2,53.6,177.3,53,176.9,53.1z"/>
	<path class="st0" d="M175.5,54.2c0.4-0.2,0-1-0.4-0.7C174.7,53.8,175.1,54.4,175.5,54.2z"/>
	<path class="st0" d="M107.5,53.7c1.2,1.3,2.9,2.1,4.4,3.1C110.8,55.4,109.2,54.3,107.5,53.7z"/>
	<path class="st0" d="M173.7,54.5c0.5,0,0.5-0.8,0-0.8C173.2,53.7,173.2,54.5,173.7,54.5z"/>
	<path class="st0" d="M172,54.8c0.2,0,0.5,0,0.7,0c-0.1-0.3-0.1-0.5-0.2-0.8C172.1,54,172,54.4,172,54.8z"/>
	<path class="st0" d="M133.8,55.1c0.9,0.7,2,1.1,3.1,0.6C135.8,55.4,134.8,55,133.8,55.1z"/>
	<path class="st0" d="M194.3,55.7c-0.2,1.2-0.4,2.6-0.2,3.8l0.4,0c0.6-1,0.3-2.3,0.4-3.5C195,55.8,194.4,55.2,194.3,55.7z"/>
	<path class="st0" d="M200.8,56l-0.2,0.1c-0.2,1.3-0.2,2.6-0.2,3.9c0.1,0,0.4,0,0.6,0c0.3-1.3,0.4-2.6,0.2-3.9L200.8,56z"/>
	<path class="st0" d="M125.2,58.2c-0.1-0.6-0.4-1.2-0.8-1.8C124.5,57.1,124.4,58,125.2,58.2z"/>
	<path class="st0" d="M123.8,57.3c-0.2,0.3,0,0.9,0.4,0.8C124.4,57.8,124.1,57.2,123.8,57.3z"/>
	<path class="st0" d="M95.6,63.1c0.6-0.7,0.5-1.7,0.7-2.6c0-1.1,0-2.2-0.6-3.1c-0.3,0.3-0.8,0.5-0.8,1c-0.3,1.2-0.3,2.6-0.2,3.8
		C94.7,62.6,95,63.3,95.6,63.1z"/>
	<path class="st0" d="M180.5,58.3c-0.8,0,0,0.8,0.4,0.6c0.3-0.1,0.9,0,0.8-0.5C181.3,58.2,180.9,58.2,180.5,58.3z"/>
	<path class="st0" d="M103.4,64c1.1-1.5,1.3-3.8,0.2-5.4c-1.1,1.2-1.1,2.9-1,4.4C102.8,63.3,102.8,64.1,103.4,64z"/>
	<path class="st0" d="M94.1,60.4c-0.4-0.4-1.4-0.7-1.8,0C92.9,60.5,93.5,60.5,94.1,60.4z"/>
	<path class="st0" d="M98.4,60.9c-0.1-0.7-1.2-0.4-1.7-0.3C97.2,60.9,97.8,61,98.4,60.9z"/>
	<path class="st0" d="M100.3,60.6c0,0.1,0.1,0.4,0.1,0.5c0.6,0.1,1.2,0.2,1.8,0.3C102,60.5,100.9,60.8,100.3,60.6z"/>
	<path class="st0" d="M106.8,62.3c-0.2-0.8-1.3-0.6-1.9-0.8C105.1,62.3,106.1,62.2,106.8,62.3z"/>
	<path class="st0" d="M138.6,62.8c0.3-0.2,0-0.9-0.4-0.6C137.9,62.4,138.3,63.1,138.6,62.8z"/>
	<path class="st0" d="M133.8,64.5c-0.5,0.3-0.8,0.8-0.9,1.4c0.7-0.2,1.1-0.8,1.6-1.2c-0.1,0.5-0.5,1.2,0.1,1.5
		c0.3-1.4,1.9-1.9,3.2-2l0,0.1c-1.1,0.1-2.5,0.7-2.8,1.9c0.6-0.2,1.1-0.5,1.7-0.3c0.2-0.2,0.4-0.4,0.6-0.7c-0.2,0.1-0.5,0.4-0.7,0.5
		c0-0.2-0.1-0.6-0.1-0.8c0.4-0.1,0.9-0.3,1.3-0.4c0-0.2,0.1-0.5,0.1-0.7c-0.3-0.3-0.6-0.7-0.6-1.2C136,63.2,134.8,63.8,133.8,64.5z"
		/>
	<path class="st0" d="M186.3,63.8c4.4,0.9,8.7,2.1,13.2,2.5c-2.7-1.2-5.7-2.1-8.7-2.2C189.4,64,187.9,63.7,186.3,63.8z"/>
	<path class="st0" d="M138.1,66.5c0.4-0.8,1-1.5,1-2.5C138.4,64.7,137.8,65.6,138.1,66.5z"/>
	<path class="st0" d="M129.7,67.8c0.3-0.5,0.6-1,0.9-1.5c-0.2,0.1-0.6,0.3-0.8,0.5c0.1-0.4,0.2-0.8,0.3-1.2c-0.8,1-1.6,2-2,3.2
		c0.2-0.3,0.6-0.8,0.9-1.1c-0.1,0.7-0.3,1.4,0,2.1c0.2-0.3,0.3-0.6,0.4-0.9c0.2,0.6,0.4,1.2,0.6,1.8c0-1.2,0-2.5,0.7-3.6
		c0.1,0.2,0.2,0.3,0.3,0.6c0.2-0.2,0.3-0.3,0.4-0.6c-0.1-0.3-0.3-0.5-0.4-0.8C130.7,66.8,130.2,67.3,129.7,67.8z"/>
	<path class="st0" d="M126.6,69.7c0.4-1.2,1.2-2.1,1.7-3.3C127.4,67.3,126.1,68.3,126.6,69.7z"/>
	<path class="st0" d="M171,67.7c-0.8-0.6-1.7-1.2-2.7-1.3c0.2,0.8-0.4,1.5-1.2,1.4c1.1,0.8,2.3,1.6,3.4,2.4
		C169.9,69.3,170.7,68.5,171,67.7z M169.8,68.3c-0.4,0.2-0.9-0.3-1-0.6C169,67.3,169.9,67.8,169.8,68.3z"/>
	<path class="st0" d="M163.4,67c-0.3,0.4,0.4,0.9,0.7,0.6C164.4,67.3,163.7,66.7,163.4,67z"/>
	<path class="st0" d="M161.1,68.6c0-0.6-0.6-1-1.1-1.2c0.2,0.4,0.4,0.8,0.6,1.3c-0.4-0.1-0.7-0.4-1.1-0.4c0.2,0.6,0.4,1.2,0.2,1.9
		C160.4,69.8,160.9,69.2,161.1,68.6z"/>
	<path class="st0" d="M140.8,69.7c0-0.5,0-0.9,0-1.4C140.4,68.7,140.2,69.4,140.8,69.7z"/>
	<path class="st0" d="M136.8,69c-1-0.1-2.1-0.2-3.1-0.1C134.6,69.6,135.8,69.4,136.8,69z"/>
	<path class="st0" d="M174.9,72.7c0.3-0.8,0.7-1.5,1.1-2.2c-1.3-0.6-2.6-1.5-4.1-1.2C172.2,70.9,173.7,71.8,174.9,72.7z M174.7,71.3
		c-0.7-0.3-1.5-0.6-1.9-1.4C173.5,70.2,174.2,70.7,174.7,71.3z"/>
	<path class="st0" d="M128.9,70.5c0,0.9,0,1.8,0.2,2.7c0.1,0,0.3,0.1,0.4,0.2C129.6,72.3,129.8,71.1,128.9,70.5z"/>
	<path class="st0" d="M176.7,70.9c-0.9,0.3-1.2,1.2-1.4,2.1C176.1,72.6,176.5,71.7,176.7,70.9z"/>
	<path class="st0" d="M179.8,74.5c-0.2-1.5-1.6-2.4-2.7-3.2c-0.4,0.7-0.8,1.4-1.3,2C177,73.9,178.3,74.6,179.8,74.5z M177.3,72.5
		c0.5,0.4,1,0.7,1.5,1.2c-0.6-0.2-1.1-0.5-1.5-0.8C177.2,72.7,177.2,72.6,177.3,72.5z"/>
	<path class="st0" d="M115.9,73.4c0-0.1-0.1-0.3-0.1-0.4c-0.2,0.1-0.7,0.3-0.9,0.4c0.2-0.3,0.5-0.6,0.7-1c0-0.1-0.1-0.3-0.1-0.4
		c-0.5,0.5-1.4,1-0.9,1.8C115.1,74.5,115.5,73.6,115.9,73.4z"/>
	<path class="st0" d="M169.6,75.6c0.2-0.6,0.4-1.3,0.5-1.9c-0.7-0.1-1.1-0.7-1.7-0.9c0.3,0.6,0.7,1,1.2,1.5
		c-0.1,0.4-0.3,0.7-0.4,1.1c-0.3-0.3-0.7-0.5-1-0.8c0.3-0.6-0.3-1.1-0.9-1.3c-0.1,0.6,0.6,0.9,0.5,1.5c0.3,0.4,0.6,0.7,0.8,1.2
		c-0.5-0.2-1-0.4-1.5-0.6c0.2,0.6,0.7,1,1.1,1.4c0,0.2,0,0.5,0,0.7c-0.6-0.5-1.2-1-1.9-1.3c0.5,1.1,1.6,1.7,2.5,2.5
		c0.1-0.2,0.2-0.4,0.1-0.6c-0.2-0.6,0.1-1.3,0.2-1.9c0.5,0.3,1.1,0.7,1.7,0.9C170.6,76.3,170,76,169.6,75.6z"/>
	<path class="st0" d="M109.5,73.3c-0.9,0-1.7,0.5-2.3,1c0.5,0.5,0.8,1,1.2,1.6C108.9,75.1,109.5,74.3,109.5,73.3z"/>
	<path class="st0" d="M114.3,74.7c-0.1-0.5-0.3-0.9-0.4-1.3C113.2,73.6,113.8,74.6,114.3,74.7z"/>
	<path class="st0" d="M117.4,77.2c0-0.6-0.3-1.2-0.4-1.8c0.3-0.4,1.1-0.6,0.9-1.2c-0.4,0-0.8,0.2-1.1,0.5c-0.9,0.7-0.1,1.9,0.2,2.7
		C117.1,77.3,117.3,77.2,117.4,77.2z"/>
	<path class="st0" d="M112.8,74.1c0.1,0.4,0.2,0.9,0.3,1.3C114,75.3,113.3,74.2,112.8,74.1z"/>
	<path class="st0" d="M107.7,75.9c0.1-0.4-0.3-1-0.8-1C106.8,75.2,107.3,75.9,107.7,75.9z"/>
	<path class="st0" d="M112.5,76.3c0.3-0.5,0-1.5-0.7-1.5C111.8,75.3,111.9,76.1,112.5,76.3z"/>
	<path class="st0" d="M107.7,76.5c-0.5-0.4-1-0.9-1.3-1.5c-0.6,0.8-1.4,1.7-1.3,2.8C106.1,77.8,106.9,77.1,107.7,76.5z"/>
	<path class="st0" d="M172.6,81c-0.6-0.4-1.3-0.7-1.2-1.5c0.3-0.2,0.6-0.4,0.8-0.6c0.1-0.5-0.2-0.9-0.4-1.3l0.4-0.2
		c0.3-0.6,0.9-1.4,0.6-2.1c-0.1,0.2-0.4,0.5-0.5,0.6c-0.4-0.1-0.7-0.2-1.1-0.4c0.1,0.5,0.5,0.8,0.9,1.1c-0.2,0.4-0.3,0.8-0.6,1.1
		c0.1,0.3,0.2,0.5,0.3,0.8c-0.3,0.2-1,0-0.9,0.6c0,0.4,0,0.9,0.2,1.3c0.6,0.6,1.3,1,2,1.5c0.6-0.7,0.8-1.7,1-2.6l-0.4-0.1
		C173.2,79.8,172.9,80.4,172.6,81z"/>
	<path class="st0" d="M185,79.1c0.2-1,0.7-1.8,1.3-2.5c-1.5-0.7-3.3-1.9-5-1.1C182.1,77.2,183.6,78.2,185,79.1z M184.8,77.3
		c-0.8-0.2-1.5-0.6-2-1.2C183.6,76.2,184.3,76.7,184.8,77.3z"/>
	<path class="st0" d="M111.4,76.3c0.3-0.4-0.3-0.8-0.6-0.4C110.6,76.2,111.2,76.6,111.4,76.3z"/>
	<path class="st0" d="M114.6,76.8c0.3,0.1,0.6,0.2,0.9,0.4l-0.3,0.3L115,78c0.4-0.2,0.8-0.5,1.1-0.9c-0.2-0.2-0.4-0.5-0.6-0.7
		l0.4-0.3C115.3,76.1,114.9,76.3,114.6,76.8z"/>
	<path class="st0" d="M110.6,78.3c0-0.6-0.2-1.2-0.4-1.8C109.6,77,109.9,78,110.6,78.3z"/>
	<path class="st0" d="M111.1,76.7c-0.1,0.4,0,0.6,0.5,0.4C111.7,76.7,111.5,76.6,111.1,76.7z"/>
	<path class="st0" d="M175.1,78.9c0.2,0,0.6,0.1,0.8,0.1c-0.9-0.5-0.9-1.4-0.9-2.3c-0.7,0.9-0.6,2.1-0.5,3.1
		C174.9,79.7,175,79.2,175.1,78.9z"/>
	<path class="st0" d="M109.1,79.3c0-0.4,0.1-0.6,0.3-0.9l0.2,0.4c0.5-0.5-0.1-1.2-0.5-1.6c0,0.3,0.1,0.8,0.1,1.1
		c-0.2-0.1-0.5-0.3-0.7-0.4C108.5,78.4,108.6,79,109.1,79.3z"/>
	<path class="st0" d="M114.8,79.5c-0.2-0.8-0.3-1.8-1.1-2.4C113.9,77.9,113.8,79.2,114.8,79.5z"/>
	<path class="st0" d="M170.3,77.4c-0.3,0.3-0.5,0.7-0.4,1.1C170.6,78.7,170.9,77.1,170.3,77.4z"/>
	<path class="st0" d="M173.8,77.3c-0.6,0.1-0.7,0.7-0.8,1.2C173.6,79,173.6,77.7,173.8,77.3z"/>
	<path class="st0" d="M185.6,79.4c0.8-0.6,1.5-1.5,1.5-2.5C186.2,77.4,185.4,78.3,185.6,79.4z"/>
	<path class="st0" d="M116.6,77.5c-0.7-0.1-1,0.6-1.4,1.1C116,78.7,116.4,78.1,116.6,77.5z"/>
	<path class="st0" d="M189.6,80.9c0.4,0,1.1,0.2,1.3-0.4c-0.6-1.5-2.1-2.4-3.3-3.3c-0.4,0.9-0.9,1.6-1.5,2.4
		C187.2,80.2,188.3,80.8,189.6,80.9z M189.6,79.9c-0.7-0.2-1.4-0.6-2-1.1C188.4,78.9,189,79.4,189.6,79.9z"/>
	<path class="st0" d="M111.6,78.6c0,0.9,0.1,1.8,0.6,2.6c0.8,0,1.2-1,1.8-1.3c-0.3-0.8-0.3-1.8-1-2.3c0,0.7,0.2,1.4,0.4,2
		c-0.3,0.3-0.6,0.5-0.9,0.7C112.2,79.8,112.1,79.1,111.6,78.6z"/>
	<path class="st0" d="M138.5,77.8c0.7,0.8,1.7,1,2.7,1C140.5,78.1,139.4,78.1,138.5,77.8z"/>
	<path class="st0" d="M101.7,79.4c0.6,0.5,1.1,1,1.6,1.6c0.5-0.7,0.9-1.6,1-2.5C103.4,77.8,102.4,78.8,101.7,79.4z"/>
	<path class="st0" d="M108.6,79.6c-0.4,0.1-0.8,0.3-1.2,0.5c-0.1-0.6,0.5-1,0.7-1.6c-0.5,0.2-1.1,0.5-1.2,1.1c0,0.5,0.3,0.9,0.6,1.3
		C107.9,80.5,108.3,80.1,108.6,79.6z"/>
	<path class="st0" d="M158,80.8c-0.3-0.8-0.6-1.6-1.1-2.3c-0.5,0.5-1.4,1.1-1.1,2c0.6,0,0.7-0.7,1-1.1C157.1,80,157.2,81,158,80.8z"
		/>
	<path class="st0" d="M183.4,90.4c1,1.2,1.8,2.5,2.9,3.6c-1.3-3.5-3.8-6.5-6.5-9.1c-0.3-0.5-0.8-1.4,0-1.8c-0.6-0.6-1.3-1.1-2-1.6
		c0.3-0.8,0.8-1.6,0.6-2.4c-0.2,0.2-0.4,0.5-0.6,0.7c-0.4-0.1-0.7-0.2-1.1-0.3c0.2,0.6,0.9,0.9,0.6,1.6c-0.7-0.2-1.2-0.7-1.8-0.9
		c0.3,0.5,0.8,0.8,1.2,1.3c-0.4,1.4-1.5-0.8-2.3-0.3c0,0.8,1.1,1.1,1.6,1.5c-0.1,0.2-0.1,0.5-0.2,0.7c-0.4-0.2-0.9-0.3-1.3-0.4
		c0.6,0.7,1.3,1.4,2.2,1.6c-0.1-0.2-0.3-0.5-0.4-0.7c0.4-0.7,0.6-1.4,0.8-2.1c0.5,0.3,0.9,0.6,1.4,0.9c0.2,1,0.5,2.1,0.8,3.1
		c-0.5-0.3-1-0.7-1.6-0.6c0.7,0.8,1.4,1.6,2.4,1.9c-0.1-0.5-0.2-0.9-0.3-1.4C181.2,87.1,182.2,88.8,183.4,90.4z"/>
	<path class="st0" d="M111.1,79.2c-0.5,0.4-1.2,0.7-1.3,1.3c0.1,0.8,0.4,1.6,1.1,2.1c-0.1-0.7-0.2-1.3-0.4-1.9
		C110.7,80.2,111.3,79.8,111.1,79.2z"/>
	<path class="st0" d="M102,80c-0.1,0.3-0.2,0.6-0.3,0.9c-0.1-0.2-0.4-0.6-0.5-0.9c-0.4,0.7-1,1.5-1,2.3c-0.1,0.5,0.5,0.7,0.8,0.5
		c0.7-0.3,1.3-0.7,1.8-1.2c-0.2-0.1-0.6-0.3-0.8-0.4c0.3-0.1,0.5-0.2,0.8-0.3C102.5,80.6,102.2,80.3,102,80z M100.8,82.1
		c-0.1-0.4,0.3-0.9,0.7-0.7C101.6,81.7,101.1,82.2,100.8,82.1z"/>
	<path class="st0" d="M106.4,82.4c-0.1-0.4-0.1-0.6-0.2-1c0.3,0.2,0.5,0.1,0.8,0.3c-0.1-0.6-0.3-1.1-0.6-1.6
		c-0.1,0.4-0.2,0.8-0.4,1.1l-0.4-0.5C105.7,81.3,105.6,82.2,106.4,82.4z"/>
	<path class="st0" d="M108.9,81.4c-0.4,0.3,0.1,0.9,0.5,0.6C109.8,81.7,109.3,81.1,108.9,81.4z"/>
	<path class="st0" d="M158.5,81.2c-0.4,0.3-0.8,0.6-1.1,1c-0.5,0.6,0,1.3,0.4,1.8c0.8-0.1-0.1-0.9,0.1-1.3
		C158.1,82.2,158.5,81.8,158.5,81.2z"/>
	<path class="st0" d="M180.7,82.7c-0.1,0.5-0.2,1-0.2,1.5c0.2-0.1,0.6-0.3,0.8-0.4c0.6,0.3,1.2,0.7,1.9,0.8c-0.4-0.7-1.2-1-1.8-1.5
		c0.1-0.6,0.1-1.3,0.1-1.9c-0.3,0.2-0.5,0.6-0.7,0.9c-0.5-0.3-1-0.6-1.6-0.7C179.4,82.1,180.1,82.3,180.7,82.7z"/>
	<path class="st0" d="M103.3,84.6c0,0.2-0.1,0.5-0.2,0.6c0.1,0,0.4,0,0.5,0c0-0.3-0.3-0.6-0.1-0.8c0.2-0.3,0.6-0.1,0.8-0.1
		c0-0.6-0.3-1,0-1.6c0.2,0.3,0.5,0.6,0.6,1c0.7-0.5,0.8-1.8-0.1-2.1c0,0.3,0.1,1,0.2,1.3c-0.2-0.1-0.6-0.4-0.8-0.5
		c-0.4,0.5-0.8,1.1-0.3,1.8C103.6,83.8,102.4,84.2,103.3,84.6z"/>
	<path class="st0" d="M108.3,96.6c2.1-0.1,3.7-1.6,5-3c1.8-2,3.1-4.4,3.7-7c0.3-1.4,0.4-3.1-0.7-4.2c-0.8-0.8-2.1-0.7-3-0.3
		c-2.6,1.1-4.4,3.6-5.8,6c-1,2-1.9,4.2-1.5,6.4C106.2,95.6,107.1,96.6,108.3,96.6z M110.5,94.5c1-1.1,2-2.3,3.2-3.2
		C113,92.6,112,94,110.5,94.5z M112.2,83.6c-0.2,0.7-0.9,0.9-1.5,1.1C111,84.1,111.5,83.6,112.2,83.6z M108.7,92.4
		c0.1-1.4,0.4-3,1.8-3.7c0.7,0.5-0.5,1.2-0.7,1.7c0.2,0.7,0.7,1.1,1.4,1.3c-0.1-0.5-0.2-1-0.3-1.5c0.6,0.3,0.5,1.1,1,1.5
		c0.5-0.6-0.4-1.4-0.1-2.1c0.4,0.5,0.3,1.4,1.1,1.5l-0.3-0.7c0.2,0,0.5,0,0.7,0c-0.1-0.6-0.3-1.1-0.6-1.7c0.2,0.1,0.6,0.3,0.8,0.5
		c-0.1-0.6-0.1-1.2-0.5-1.7c-0.3,0.1-0.6,0.2-0.9,0.3c0.4-0.8,0.9-1.6,1.7-2c0.4,0.3,0.7,0.6,1.1,0.9c0.2-0.7,0.1-1.6-0.6-2
		c-0.8-0.3-1.5,0.1-2.2,0.5c-0.1,0.5,0,1.1-0.4,1.5c-0.2-0.4-0.6-0.8-1-1c1.1-0.6,2.1-1.7,3.4-1.5c0.9,0,1.6,0.9,1.5,1.8
		c-0.1,0.9-0.5,1.8-1,2.7c-0.9,1.6-1.9,3.3-3.2,4.6c-0.7,0.7-1.8,1.4-2.8,1c-1-0.5-1-1.9-0.8-2.9c0.4-1.9,1.4-3.7,2.6-5.3
		c0.4,0.5,0.7,1.2,0.3,1.8c-0.2-0.2-0.5-0.5-0.6-0.6c-0.9,1.3-1.7,2.8-1.6,4.4C108.3,91.9,108.5,92.2,108.7,92.4z M112.5,89.3
		c0.1,0.1,0.2,0.3,0.2,0.5c0,0.3-0.1,0.5-0.4,0.5C112.1,90,111.9,88.9,112.5,89.3z M110.2,85.1c-0.1,0.8-0.7,1.3-1.3,1.9
		C108.9,86.1,109.6,85.6,110.2,85.1z M107.6,89.1c0.5,0.1,0.1,1.1-0.3,0.9C107.2,89.6,107.3,89.3,107.6,89.1z"/>
	<path class="st0" d="M109.1,84.3c-0.2-0.8-0.4-1.6-1-2.1C108.1,82.9,108.2,84,109.1,84.3z"/>
	<path class="st0" d="M109.4,82.5c-0.5,0.4,0.2,1,0.6,0.5C110.3,82.7,109.8,82.1,109.4,82.5z"/>
	<path class="st0" d="M98.1,83.1c-0.1-0.1-0.2-0.3-0.2-0.4c-0.3,0.4-0.6,0.9-1,1.3c0.1,0.1,0.2,0.2,0.3,0.3
		C97.4,83.8,97.7,83.4,98.1,83.1z"/>
	<path class="st0" d="M107.8,85.2c0.2-0.1,0.5,0,0.5-0.4c-0.2-0.7-0.6-1.4-1.1-2C107.2,83.6,107.5,84.4,107.8,85.2z"/>
	<path class="st0" d="M177.6,83c-0.2,0.4-0.5,1.1,0.1,1.4C177.8,83.9,178.4,82.9,177.6,83z"/>
	<path class="st0" d="M98.1,87.4c0.6-0.9,1.1-1.8,1.7-2.7c-0.6-0.5-0.9-1.2-1.2-1.9c-0.8,0.9-1.5,1.8-1.8,3.1
		C97.5,86.1,97.8,86.8,98.1,87.4z"/>
	<path class="st0" d="M184.9,84.5c-0.1,0.4-0.2,0.9-0.3,1.3c-0.9-0.1-1.6-0.5-2.5-0.7c0.6,0.8,1.8,1.7,2.9,1.1
		c0.5-0.7,0.4-1.6,0.5-2.3c-0.7,0.1-1.2-0.3-1.8-0.5C184,83.8,184.5,84.2,184.9,84.5z"/>
	<path class="st0" d="M158.8,85.6c0.5-0.6,1.1-1.1,1.1-1.9C159.2,83.9,157.9,84.8,158.8,85.6z"/>
	<path class="st0" d="M106.4,83.8c0.2,0.9,0.3,1.8,0.9,2.5c0.5,0,0.2-0.5,0.1-0.8C107.2,84.9,107.1,84.1,106.4,83.8z"/>
	<path class="st0" d="M101.9,86.7c0.1,0,0.4,0.1,0.6,0.2c-0.1-0.3-0.1-0.6-0.2-0.9c0.2,0.1,0.5,0.1,0.7,0.2c0-0.6,0-1.3-0.6-1.6
		c0,0.3,0,0.9,0,1.2c-0.1-0.1-0.4-0.3-0.5-0.4c-0.1,0.2-0.2,0.5-0.3,0.6c-0.1,0.1-0.3,0.2-0.4,0.2c0.1,0.4,0.2,0.9,0.5,1.3
		C101.8,87.4,101.9,87,101.9,86.7z"/>
	<path class="st0" d="M105.8,87.2c-0.2-0.4-0.3-0.8-0.5-1.2c0.3-0.4,0.9-0.7,0.7-1.3c-0.5,0.3-0.9,0.6-1.3,1c0.3,0.9,0.2,2,1.1,2.6
		c0.4-0.4,0.9-0.9,0.8-1.5C106.3,86.8,106,87,105.8,87.2z"/>
	<path class="st0" d="M160.5,84.8c-0.6,0.3-1,0.9-1.4,1.4c0.1,0.1,0.2,0.4,0.3,0.6C160,86.3,161,85.6,160.5,84.8z"/>
	<path class="st0" d="M161.2,85.9c-0.5,0.5-1,1-1.2,1.7c0.1,0,0.3,0.1,0.4,0.2C160.9,87.4,161.7,86.6,161.2,85.9z"/>
	<path class="st0" d="M196.1,86.2c-0.1,0-0.2,0-0.2,0c-0.5,2.2-0.9,4.4-1.3,6.6c-0.2,1-0.4,1.9-0.4,2.9
		C195.5,92.7,196.2,89.5,196.1,86.2z"/>
	<path class="st0" d="M100.9,86.9c-0.8,0.4-0.9,1.6-0.2,2.1C100.8,88.4,100.9,87.7,100.9,86.9z"/>
	<path class="st0" d="M103.7,87.5c0.2,0.6,0.5,1.2,0.9,1.8c0.1-0.1,0.3-0.2,0.4-0.3c-0.3-0.6-0.5-1.4-1.1-1.9
		C103.7,86.8,103.5,87.4,103.7,87.5z"/>
	<path class="st0" d="M162.6,88.2c0.1-0.4,0-0.6-0.4-0.4C162,88.2,162.2,88.3,162.6,88.2z"/>
	<path class="st0" d="M161.2,88.3c-0.5,0.1-0.2,1,0.3,0.8C162,89,161.7,88.2,161.2,88.3z"/>
	<path class="st0" d="M114,95c3-2.3,6.1-4.3,9.3-6.3c-1.3,0.5-2.5,1-3.7,1.5C117.3,91,115.7,93.2,114,95z"/>
	<path class="st0" d="M103.9,89.7c-0.4,0-0.8,0.3-1.2,0.5c-0.3-0.6-0.3-1.3-1-1.5c0.1,0.9,0.2,1.7,0.6,2.5
		C103.2,91.5,103.6,90.3,103.9,89.7z"/>
	<path class="st0" d="M163.7,88.8c-0.7,0.2-1.3,0.7-1.6,1.4c0,0.5,0.4,0.9,0.8,1.2c0.8-0.1,0.1-0.8,0-1.2
		C163.1,89.8,164.1,89.3,163.7,88.8z"/>
	<path class="st0" d="M187,101.2c-0.2-1.9-1.2-3.5-1.8-5.2c-1.1-2.7-2.7-5.2-4.8-7.2c1,1.9,2.4,3.6,3.3,5.7
		C184.8,96.7,186,98.9,187,101.2z"/>
	<path class="st0" d="M131,89.2c-1.4,1.2-2.5,2.7-3.4,4.3C129.1,92.4,130.7,91.1,131,89.2z"/>
	<path class="st0" d="M101,92.9c-0.1-0.7-0.2-1.3-0.4-2c0.4-0.4,0.7-0.8,1-1.3c-0.7-0.1-1.4,0.5-1.6,1.1
		C100.3,91.5,100.2,92.6,101,92.9z"/>
	<path class="st0" d="M164.2,90.2c0.1,0.3,0.3,0.6,0.5,0.9c-0.4,0.5-1,1-0.9,1.8c0.1,0,0.3,0.1,0.4,0.1c0.5-0.5,0.9-1,1.2-1.7
		C165.3,90.7,164.8,90.3,164.2,90.2z"/>
	<path class="st0" d="M119.5,95c0.1,1.1-0.8,1.6-1.6,2c-0.2-0.4-0.2-1-0.7-1c-0.5,0.6-0.4,1.4-0.6,2.2c-0.2,0-0.5,0-0.7,0
		c-0.1,0.5-0.2,1-0.3,1.4c-0.3-0.2-0.5-0.7-1-0.5c-0.2,0.5-0.2,1-0.1,1.5c-0.4,0.4-0.7,0.8-1.1,1.2c0.1-0.7,0.7-1.5,0.3-2.2
		c-0.6-0.4-1.4,0-1.6,0.5c0.1,0.5,0.4,0.9,0.5,1.4c-0.4,0.7-0.9,1.3-1.1,2.1c-0.4,0.8-1.1,1.6-1.8,2.1c0.1-0.5,0.2-1,0.2-1.5
		c-0.4,0-0.5,0.3-0.8,0.6c-0.1,0-0.3-0.1-0.4-0.2c-0.1,0.4-0.2,0.9-0.5,1.2c-0.8,0.8-1.5,1.8-2,2.9c-0.3,0.4,0,0.8,0.2,1.2
		c0.4-0.1,1,0,1.3-0.3c1-1.2,0.6-2.9,1.5-4.1c-0.1,0.8-0.3,1.5-0.1,2.3c0.4-0.2,0.5-0.6,0.7-1c0.4-1,1.5-1.5,2.1-2.4
		c0.3-0.7,0.3-1.5,1-2c-0.2,0.8-1.1,1.9,0,2.4c0.6-0.3,1.1-0.8,0.9-1.5c-0.1-0.8,0.5-1.4,0.9-2c0.3-0.1,0.6-0.1,0.9-0.2
		c0.4-0.4,0.5-1.1,1.1-1.4c0.4-0.2,0.5-0.6,0.8-1c0.1,0.2,0.2,0.5,0.2,0.7c0.1,0,0.4,0,0.6,0c0.2-0.7,0.3-1.4,0.5-2
		c0.3-0.3,0.8-0.5,1.1-0.8c0.6-0.4,0.4-1.3,1-1.6c1.6-0.9,3.1-2,4.4-3.4c0-0.2,0.1-0.5,0.1-0.6c-1,0.5-1.7,1.3-2.6,1.9
		C121.7,93.8,120.5,94.2,119.5,95z M107.4,109.3c-0.3,0-0.6,0.1-0.9,0.1c0.5-1,1-1.9,1.8-2.7C108,107.6,107.8,108.5,107.4,109.3z"/>
	<path class="st0" d="M174.4,91.5c1.2,1.8,2.9,3.4,4.7,4.7c-0.5-1-1.3-1.8-2-2.7C176.3,92.7,175.4,92,174.4,91.5z"/>
	<path class="st0" d="M103.6,93.7c-0.2-0.6,0-1.4-0.6-1.7c0.1,0.9-0.2,2.1,0.7,2.8c0.2-0.4,1.4-1,0.7-1.5
		C104.1,93.4,103.9,93.6,103.6,93.7z"/>
	<path class="st0" d="M165.8,93.7c0.4-0.5,0.8-1,1.1-1.6c-0.8-0.1-1.2,0.7-1.7,1.3c-0.5,0.7,0.5,1.5,1.2,1.4
		C166.7,94.3,166,94.1,165.8,93.7z"/>
	<path class="st0" d="M102.5,92.4c-0.6,0.4-1.4,0.8-1.6,1.5c0.2,0.7,0.4,1.5,0.7,2.1c0.1,0,0.4,0.1,0.5,0.2
		c-0.1-0.7-0.3-1.5-0.5-2.2C102,93.5,102.7,93.1,102.5,92.4z"/>
	<path class="st0" d="M167.9,93.6c-0.5,0.5-0.9,1.1-1.2,1.8c0,0.2,0.2,0.4,0.4,0.4c0.5-0.5,0.8-1.1,1.1-1.7
		C168.2,93.9,168.2,93.4,167.9,93.6z"/>
	<path class="st0" d="M168.7,96.1c0.2-0.6,0.8-1.2,0.3-1.8c-0.1,0.1-0.2,0.3-0.3,0.4c-0.4,0.6-0.8,1.2-1,1.9
		C168.1,97.3,168.6,96.5,168.7,96.1z"/>
	<path class="st0" d="M182.3,94.4c0.6,2,1.5,3.8,2.3,5.7c0.9,2.2,1.8,4.5,2.6,6.8c-0.3-3.1-1.3-6.1-2.7-8.9
		C184,96.8,183.4,95.5,182.3,94.4z"/>
	<path class="st0" d="M169.4,97.6c0.7,0,0.8-1,1.1-1.6c0.3-0.4-0.3-0.6-0.5-0.3C169.8,96.3,168.9,97,169.4,97.6z"/>
	<path class="st0" d="M189.4,107.7c0,1.2-0.2,2.4-0.1,3.6c1.1-3,1.3-6.2,1.9-9.3c0.3-2,0.9-3.9,1-6c-0.8,1.9-1.3,3.8-2,5.7
		C189.4,103.7,189.5,105.7,189.4,107.7z"/>
	<path class="st0" d="M171.7,97.7c0.5-0.2,0.1-0.7-0.1-0.9c-0.1,0.1-0.4,0.3-0.6,0.3C171.1,97.3,171.3,97.7,171.7,97.7z"/>
	<path class="st0" d="M160.5,98.8c0.5-0.1,0.9-0.6,1-1.1C161.1,97.8,160.1,98.3,160.5,98.8z"/>
	<path class="st0" d="M126.7,97.9c-0.9,0.1-1.4,1.1-1.9,1.8c0.1,0.1,0.3,0.2,0.3,0.3C125.8,99.5,126.3,98.7,126.7,97.9z"/>
	<path class="st0" d="M171.4,98.6c-0.3-0.3-0.5-0.5-0.8-0.8C170.2,98.4,170.8,99.1,171.4,98.6z"/>
	<path class="st0" d="M173.1,99.4c0.3-0.2,0.5-1.4-0.1-0.9c-0.5,0.4-1,0.9-1.3,1.4C171.9,100.9,172.7,99.8,173.1,99.4z"/>
	<path class="st0" d="M100,103.4c-0.4-1.6-0.9-3.1-1.6-4.7c0,2.4,0.6,4.7,0.5,7.1c-0.1,2.7,0.7,5.3,1.4,7.9c0.1,0.4,0.4,0.8,0.7,1.1
		c-0.1-1-0.4-2-0.5-3.1C100.2,109,100.4,106.2,100,103.4z"/>
	<path class="st0" d="M124,103.4c0.3,0.2,0.8,0.4,1,0c0.5-0.8,0-1.7-0.2-2.4c-0.4-1-0.8-2.3-2-2.5c-0.7,0.5-0.6,1.4-0.4,2.1
		C122.9,101.6,123.1,102.8,124,103.4z"/>
	<path class="st0" d="M171.7,101.5c-0.6-0.8-1.2-2.1-2.4-2.1c-0.3-0.2-0.6-0.4-1-0.6c0.3,0.8,1,1.8,0.3,2.6
		c-0.3,0.5-0.9,0.5-1.5,0.5c1.2,1.4,2.2,2.8,3.5,4.2c-0.1-0.7-0.3-1.5,0-2.2C171,103.1,171.7,102.4,171.7,101.5z M169.1,101.5
		c0.6,0.3,1.1,0.9,1.4,1.6C169.9,102.7,169.4,102.1,169.1,101.5z"/>
	<path class="st0" d="M173.1,101.2c0.6-0.4,1-1.1,1.4-1.8c-0.8-0.1-1.2,0.7-1.7,1.2C172.5,100.9,172.8,101.3,173.1,101.2z"/>
	<path class="st0" d="M173.4,101.8c0.3,0.6,1,1.2,1.7,1.1c0.1-0.6-0.5-0.9-0.8-1.2c0.4-0.4,0.8-0.9,1-1.5
		C174.5,100.4,173.7,101,173.4,101.8z"/>
	<path class="st0" d="M158.7,103.3c1.4,2.5,3,4.8,5.2,6.6c-1.5-3-3.7-5.4-5.8-7.9C158.2,102.5,158.5,102.8,158.7,103.3z"/>
	<path class="st0" d="M175.8,104c0.5-0.4,1-0.9,1.2-1.5c0.1-0.3-0.3-0.4-0.5-0.2c-0.4,0.3-0.8,0.7-1,1.1
		C175.2,103.6,175.4,104,175.8,104z"/>
	<path class="st0" d="M122.7,102.5c-0.7,0.4-2,1-1.5,1.9C121.8,103.9,122.5,103.4,122.7,102.5z"/>
	<path class="st0" d="M177.8,108.6c-0.7-1.5-1.9-2.8-3-4c-0.8-0.7-1.9-1.5-3-0.9c-0.7,0.4-0.7,1.4-0.5,2.1c0.3,1.1,1.1,2.1,1.8,3
		c0.8,1.2,1.7,2.3,2.8,3.1c0.5,0.4,1.5,0.5,1.9-0.1C178.5,110.9,178.3,109.6,177.8,108.6z M172.3,105c0.8,0.3,1.3,1,1.6,1.7
		C173.2,106.3,172.6,105.7,172.3,105z M174.4,109.6c-0.4-0.3-0.5-0.6-0.4-1c0.1-0.8,0.4-1.7,1.1-2.3c0.4-0.3,0.7,0.4,0.6,0.7
		C175.5,107.9,175.1,108.8,174.4,109.6z M175.7,109c0.8,0.1,1.2,0.9,1.6,1.5C176.6,110.2,176.1,109.6,175.7,109z"/>
	<path class="st0" d="M178.1,104.2c0.3-0.4-0.3-0.9-0.6-0.5C177.2,104.1,177.8,104.6,178.1,104.2z"/>
	<path class="st0" d="M176.4,104.3c-0.3,0.4,0.3,1,0.7,0.7C177.4,104.6,176.8,103.9,176.4,104.3z"/>
	<path class="st0" d="M178.8,105.1c0.2,0.2,0.5,0.4,0.7,0.6c-0.2,0.5-1.2,1.5-0.2,1.6c0.5-0.5,0.9-1,1.1-1.7c-0.5-0.5-1-1-1.6-1.4
		c-0.6,0.6-2,1-1.5,2C177.9,106,178.4,105.5,178.8,105.1z"/>
	<path class="st0" d="M117.8,107.9c0.6-0.5,1.1-1.1,1.4-1.8c-0.6,0.1-0.9,0.6-1.3,1C117.7,107.3,117.3,107.7,117.8,107.9z"/>
	<path class="st0" d="M117.8,112.1c0.3-0.3,0.4-0.7,0.3-1.1c-0.3-1.5-0.9-3-1.9-4.1c-0.3-0.3-0.8-0.6-1.1-0.3
		c-0.4,0.2-0.6,0.7-0.5,1.1c0.2,1.3,0.7,2.5,1.5,3.5C116.5,111.7,117.1,112.4,117.8,112.1z"/>
	<path class="st0" d="M179.7,108c0.4,0.4,0.7,0.9,1.2,1.1c0.7-0.1,0-0.8-0.3-1c0.3-0.5,0.8-1,0.6-1.7
		C180.7,106.9,180.2,107.5,179.7,108z"/>
	<path class="st0" d="M97.1,107.1c-0.1,2.7,0,5.4,0.9,7.9c0.6,1.5,0.9,3.2,1.7,4.6c-0.3-2.4-0.8-4.9-1.2-7.3
		C98.1,110.6,97.7,108.8,97.1,107.1z"/>
	<path class="st0" d="M113.5,112.1c-0.2,0.2-0.6,0.8,0,0.9c0.7-0.5,1.2-1.2,1.6-1.9C114.3,111,113.9,111.7,113.5,112.1z"/>
	<path class="st0" d="M183,112.7c-1-1-2.5-1.9-3.9-1.4c-0.6,0.3-0.8,1-0.9,1.6c0.1,1.3,0.9,2.4,1.8,3.4c1.2,1.3,2.5,2.7,4.2,3.4
		c1.3,0.4,2.2-1,2-2.2C185.8,115.5,184.4,114,183,112.7z M179.5,113.1c0.8,0.1,1.4,0.9,1.7,1.6C180.6,114.3,180,113.7,179.5,113.1z
		 M183.2,114.5c-0.3,0.9-0.7,1.9-1.2,2.7c-0.4,0.1-0.6-0.4-0.6-0.8c0.1-1,0.5-2,1.3-2.6C183.1,113.6,183.3,114.2,183.2,114.5z
		 M183.3,116.6c0.8,0.1,1.4,0.8,1.7,1.5C184.3,117.7,183.7,117.2,183.3,116.6z"/>
	<path class="st0" d="M172.3,115.1c0.6-0.1,0.9-0.6,1-1.2c-0.1,0-0.4-0.1-0.5-0.1C172.5,114.2,172.3,114.6,172.3,115.1z"/>
	<path class="st0" d="M111.3,115.2c-0.7,0.3-1.5,1-1.5,1.9C110.5,116.8,111,116,111.3,115.2z"/>
	<path class="st0" d="M180.7,129.6c-3.6-5-7.3-10.1-12.2-14c1.4,2,3,3.8,4.4,5.8c1.5,2,2.7,4.3,4.5,6.1c1.6,1.6,3.2,3.3,5.2,4.3
		C182.1,130.9,181.2,130.4,180.7,129.6z"/>
	<path class="st0" d="M111.9,125.1c-0.9,1.3-2,2.5-2.7,4c1-0.8,1.7-1.9,2.5-2.8c1.7-1.7,3.1-3.7,4.5-5.7
		C114.5,121.8,113.1,123.4,111.9,125.1z"/>
	<path class="st0" d="M3.1,2.4v145.4h233.4V2.4H3.1z M235.4,146.8H4.1V3.4h231.4V146.8z"/>
</g>
</svg>
