<?xml version="1.0" encoding="utf-8"?>
<!-- Generator: Adobe Illustrator 26.0.3, SVG Export Plug-In . SVG Version: 6.00 Build 0)  -->
<svg version="1.1" id="Слой_6" xmlns="http://www.w3.org/2000/svg" xmlns:xlink="http://www.w3.org/1999/xlink" x="0px" y="0px"
	 viewBox="0 0 239.5 150.2" style="enable-background:new 0 0 239.5 150.2;" xml:space="preserve">
<g>
	<polygon points="94.1,17 94.1,17 94.1,17 	"/>
	<path d="M92.8,17.6c0.4-0.2,0.8-0.3,1.2-0.5c-0.4,0.1-0.9,0.3-1.3,0.4C92.8,17.5,92.8,17.5,92.8,17.6z"/>
	<path d="M99.5,22.1c0.1-0.1,0.3-0.2,0.4-0.2c-0.1-0.5-0.1-0.9-0.2-1.4c-0.1-0.1-0.3-0.2-0.5-0.2C99.9,20.6,99.7,21.5,99.5,22.1z"/>
	<path d="M234.8,92.5c-0.1-2.4-0.1-4.8-0.9-7.2c-0.8-2.4-1.8-4.9-3.6-6.8c-1.3-1.1-2.6-2.4-4.2-3c-0.1,0.1-0.3,0.4-0.4,0.5
		c-1.8,0.1-3.6-0.5-5.4-0.7c-4.7-0.7-9.4-1.8-13.9-3.2c0,0.6,0.2,1.1,0.3,1.7c-2.6,1.1-5.5,1.5-8.3,1.6c0.6-1.6,1.1-3.3,1-5
		c-0.2-2.6-1.9-4.8-4-6.3c-2.1-1.3-4.5-2.3-7-2.1c-1.4-0.7-2.8-1.6-4.3-2c0.3-1.4,1-2.5,1.5-3.8c-1.2-0.2-2.1,0.9-3.1,1.5
		c-0.3-0.5-0.6-1-0.9-1.4c-0.6,0.4-1.2,0.8-1.8,1.3c-1.5-1.6-4.2-2.9-6.3-1.5c-1.8-1.7-4.8-2.4-6.9-0.9c-1.4-0.6-3.1-0.5-4.5,0.1
		c-1,0.5-1.6,1.6-2.2,2.5c-3-4-4.1-9-4.3-13.9c-1.4-0.4-2.6,0.5-3.8,1.1c-1-0.7-2,0.2-2.9,0.7c-0.1-0.2-0.2-0.5-0.3-0.7
		c-1.1,0.1-1.7,1.5-2.6,1.8c-0.1-0.2-0.4-0.5-0.5-0.6c-0.8,1.2-1.3,2.6-2.2,3.6c-0.3-0.8-0.7-1.6-1.2-2.3c0.2-0.9,0.4-1.9,0.2-2.9
		c-1.8-2.2-4.8-3-7.5-3.7c-2.8-0.6-5.6-1.1-8.4-1.2l-0.3,0.5c1.7,0.2,3.4,0.3,5.1,0.7c3.7,0.7,7.7,1.3,10.7,3.8
		c0.1,3.4-1.8,6.3-3.9,8.8c-1.7,1.9-3.3,3.8-5.2,5.5c1.1-0.6,1.9-1.5,2.9-2.2c-0.2,0.5-0.3,1.1-0.5,1.6c0.7-0.7,0.5-1.9,1.3-2.5
		c2.3-2.3,4.3-4.9,5.4-8c0.5,0.8,1.4,1.6,1.1,2.6c-1.4,3.1-2.4,6.5-2.6,10c-0.8,0-1.7,0.2-2.3,0.9c-0.5,1-0.3,2.2,0.1,3.1
		c-1.2-0.3-2.5-0.2-3.7,0.2c-2,0.4-3.5,2.9-2.3,4.8l0.2,0.1c0.2,0.4,0.4,0.9,0.6,1.3c-0.8,0.1-1.6,0.1-2.3,0.2
		c-0.2-0.6-0.3-1.3-0.8-1.7c-0.9-0.9-2.1-1-3.3-1.3c1.1-0.7,2.6-1.4,3-2.8c0.4-1.1-0.3-2.3-1.2-2.8c-2.6-1.7-5.9-1.9-8.6-3.6
		c-2.5-1.6-4.9-3.3-7-5.3c-1.1-1.1-2.4-2.5-4.2-2.2c-0.9-1.2-2-2.1-3.2-3c-1.2-0.9-2.8-0.7-3.9-1.6l-0.3-0.1c0,0.2,0,0.6,0,0.8
		c2.8,0.5,5.7,1.8,7.2,4.3c0.9,1.9,0.6,4.1,0,6.1c-0.5,1.6-0.9,3.3-1.3,4.9c-0.4,1.3-1.4,2.6-2.9,2.6c-3.5,0.3-6.9,0.2-10.4,0.4
		c-1.9,0.2-3.8,0.7-5.5,1.7c-1.4,0.8-2.8,1.6-4.3,2c-1.4,0.1-2.9-0.1-3.9-1c-0.9-0.8-1.1-2.3-0.1-3.2c1.5-1.4,3.5-1.8,5.4-2.3
		c1.7-0.5,3.6-1.4,4.1-3.2c0.9-2.4,0.2-5.1-0.9-7.3c-0.9-1.9-2.4-3.5-3-5.5c-0.1-1-0.2-2.3,0.7-2.9c1.3-0.9,2.8-1.6,3.6-3
		c1,1.7,1.7,3.6,2.4,5.5c-0.2-2.8-2.2-5.1-2.9-7.8c-0.2,0.1-0.4,0.3-0.5,0.4c-0.8-0.6-1.6-1.1-2.4-1.7c0.7-0.1,1.4-0.2,2.1-0.3
		c0.1,0.4,0.2,0.8,0.2,1.3c0.1-0.1,0.2-0.2,0.4-0.3c-0.7-1.4-0.7-2.9-0.6-4.4c0.1-2,0.8-4.1,2.3-5.5c3.4,0.6,5.9,3.7,6.7,6.9
		c0.7,3.4-0.8,6.7-2.6,9.5c-0.3-0.4-0.4-0.9-0.6-1.4c1.2-1.6,2-3.5,2.2-5.5c0.1-2.3-0.5-4.9-2.3-6.5c0.9,1.2,1.7,2.5,2,4.1
		c0.6,2.7-0.3,5.5-2,7.6c-1-2.3-2-4.8-2.3-7.3c-0.2-1.5,0.2-3,0.4-4.4c-0.2,0.1-0.2,0.4-0.2,0.6c-0.1,1.3-0.5,2.5-0.3,3.8
		c0.5,4.3,2.5,8.3,3.4,12.5c0.7,2.6,0.8,5.5-0.2,8c-1.2,3.4-4.1,5.9-6.9,7.9c-1.5,1.1-3.2,1.9-4.7,2.9c1-0.2,1.9-0.8,2.8-1.3
		c4-2.4,8-5.4,9.6-9.9c1.4,0.6,3.2,1.1,3.7,2.7c0.1-0.1,0.2-0.1,0.2-0.2c-0.4-0.6-0.7-1.1-1.1-1.7c-0.5-1.1-1.4-1.9-2.4-2.6
		c0.4-3-0.5-6-1.2-8.9c2,0.9,4,1.7,6.1,2.2c-0.5-0.6-1.3-0.6-2-0.9c-1.4-0.5-2.8-1.1-4.1-1.6c1.9-1.8,2.7-4.4,3.1-6.9
		c1.7,1.5,3,3.3,3.8,5.4c-0.4-0.2-0.8-0.5-1.2-0.9c0.1,0.3,0.3,0.5,0.4,0.8c0.2,0.1,0.7,0.3,0.9,0.4c-0.2,0.1-0.5,0.2-0.6,0.3
		c-0.9-0.3-1.8-0.7-2.8-1.1c0.7,0.9,1.4,1.8,2,2.8c0.2,0.2,0.4,0.3,0.7,0.5c-0.3-0.9-1-1.6-1.4-2.5c1,0.4,2.1,0.9,2.7,1.8
		c-0.1-1.7-0.8-3.3-1.7-4.7c2.2,1.2,4.6,2.4,7.2,2.4c1.6-0.1,3,0.7,4.4,1.2l0.1,0.3c1.5-0.1,2.8,1,4.2,1.4c0.1-0.1,0.3-0.2,0.4-0.2
		c-2-1.2-4.2-2-6.5-2.8c1.2-0.4,3-0.6,3.5-2.1c-1,0.6-2,1.3-3.2,1.5c-1.9,0.4-3.7-0.1-5.6-0.4c-2.9-0.6-5.2-2.6-7.4-4.4
		c0-0.9-0.1-1.8-0.1-2.7c3,0.8,6.1,1.7,9.2,2.3c2.1,0.4,4.5,0.2,6.3-1.2c0.7-0.7,0.4-1.9,0-2.7c-0.5-1.1-0.9-2.3-1.4-3.4
		c-0.5-0.9-1.7-0.7-2.5-1.1c0-0.2,0-0.5,0-0.6c0,0-0.1,0-0.2,0c0,0.6,0,1.3-0.1,1.9c-0.7-0.6-0.6-1.8-1.6-2.1
		c0.6,2.1,2.3,4.2,1.6,6.5c-2-0.4-3-2.4-4-4c-0.8-1.9-2.1-4.1-0.8-6.1c0.7-1.1,2.1-0.5,3,0c2.1,1.3,4.2,2.9,5.4,5.1
		c1.1,1.6,2.1,3.2,2.7,5c0.3,0.8,0,1.7-0.3,2.5c-0.8,0.5-1.6,0.9-2.5,1.2c-1,0.3-2,0-3,0.1c0.6,0.4,1.4,0.7,2.1,0.6
		c1.6-0.2,3.4-0.6,4.4-2c0.8,0.3,1.7,0.6,2.6,0.7c0.2,1.4,0.4,2.9,0.2,4.3c-0.5,3.8-3.1,7.2-6.6,8.6c-0.5-1.9-0.2-3.9,0.4-5.8
		c-0.1,0-0.3,0.1-0.4,0.1c-0.8,1.5-1,3.2-0.8,4.9c0.5,1.9,2.3,3.1,3.9,4c1.2,0.6,2.3,1.7,3.8,1.4c1.6-0.4,2.5-1.8,3.4-3
		c0.5,0,0.9,0.3,1.3,0.4c2.1,0.9,4.3,1.4,6.6,1.3c1.5,0,3-0.7,4.5-0.8c-0.8-0.2-1.6,0.1-2.5,0.1c-1.6,0-3.2,0.2-4.7-0.2
		c-1.7-0.2-3.2-0.9-4.8-1.5c2.2-3.5,3.1-7.8,2.8-11.9c-0.4-1-0.6-2-0.9-3c-2-0.9-3.7-2.3-5.8-2.9c0.1-1,0.3-2,0.3-3
		c-0.4,1-0.6,2.1-0.8,3.2c-0.8,0.4-1.5,1.1-2.3,1.6c-0.2-2.6-2-4.7-3.4-6.8c-1-1.8-2.8-3-4.5-4.2c-1.2-0.9-2.8-1.5-4.2-0.9
		c-0.5,1.1-1.2,2.2-0.9,3.5c0.4,2.4,1.7,4.6,3.2,6.6c-1.4,0.7-2.9-0.2-3.9-1.2c-1.4-1.9-2.5-4.1-2.8-6.5c0.4-0.3,0.4-0.8,0.2-1.2
		c0.2-0.7,0.5-1.6,1.3-1.7c1-0.4,2,0.7,2.9,0.2c-0.7-0.3-1.3-0.5-2-0.8c0-2.1-1.6-3.9-3.5-4.7c-1.1-0.4-2.2,0-3.3,0.1
		c-1.3-0.9-1.3-2.8-2.6-3.7c-1.2-0.4-2.8,0.4-3.8-0.6C88.2,12,87.9,9.9,87.7,8c-0.1-0.3-0.1-0.8-0.5-0.9C86.5,7,85.7,7.2,84.9,7
		c-0.2-0.4-0.4-0.8-0.6-1.2c-1.5-0.9-3.1-0.1-4.7-0.2c-0.2,0.2-0.3,0.4-0.5,0.5c0.2,0.7,0.6,1.4,1.4,1.6c0.6,1.9,1.2,3.9,2,5.7
		c0.3,1,0.8,2,0.6,3c-0.3,1.4,0.4,2.7,0.7,4c0.4,2,1,3.9,1.6,5.9c-0.5-0.1-1.3-0.3-1.7,0.3c-0.4,0.8-0.7,1.8-0.5,2.7
		c0.1-0.2,0.2-0.6,0.2-0.8c0.6,0.5,1,1.2,1.4,1.9c-1.6-0.5-3.9,0.3-3.8,2.2c-0.1,1.4,1,2.2,1.5,3.4c-1.5-0.6-3-1-4.6-1.2
		c-1.6-0.3-3.2-0.1-4.7-0.8c0-1.7-0.8-3.2-1.4-4.7c-1.4-2.6-3.7-5-6.7-5.4c-1.1-0.1-2.4-0.3-3.4,0.3c-0.8,0.7-1.1,1.9-0.9,2.9
		c0.6,3.2,1.8,6.3,1.5,9.5c-2.3-0.5-4.8-0.7-7-1.6c-3.5-1.2-6.7-3.1-9.9-4.8c-1.2-0.8-2.6-1.9-4.1-1.3c-1.6,0.9-2.8,2.4-4,3.7
		c-3.2,3.9-5,8.6-6.3,13.4c-1.1,4.3-1.3,8.9-0.4,13.3c0.5,2.3,1,4.8,2.6,6.7c0.5,0.5,1.1,0.1,1.7,0c3.3-1.1,6.7-1.6,10.1-1.7
		c2.6-0.2,5.2-0.2,7.7,0.3l-0.1-0.4c-2.2-0.8-4.5-0.5-6.8-0.5c-2.6,0.1-5.3,0.3-7.9,0.9c-1.3,0.3-2.6,0.8-3.9,1.2
		c-1,0.1-1.2-1.3-1.6-2c-1.5-4.4-2.2-9.2-1.6-13.8c0.4-3.6,1.6-7.1,3-10.4c1.5-3.7,3.9-6.9,6.8-9.6c0.7-0.7,1.8-1,2.7-0.4
		c4.4,2.7,8.9,5.3,14,6.7c-0.9,1.3-2.1,2.3-3,3.6c-1.4,1.8-2.3,3.9-3.1,5.9c-1.3,3.3-1.8,7-1.3,10.5c0.2,2.6,1.1,5.4,3.2,7.1
		c0.1,0.5-0.2,1.1-0.2,1.6c-0.5,2.3-0.2,4.7,0.4,7c1.3,4.3,5.2,7.7,9.6,8.4c2.6,0.5,5.5,0.2,7.8-1.3c0.3-0.1,0.5-0.5,0.9-0.4
		c1.4,0.1,2.9,0.1,4.2-0.5c0.2,0,0.6,0,0.8,0c0-0.2,0.1-0.7,0.1-0.9c-1.4,0.8-3.1,1-4.8,1c0.4-0.7,1.2-0.5,1.8-0.9
		c0.8-0.6,1.6-1.2,2.2-2c0.7-1.6,1-3.3,0.6-5c-0.1,0-0.2,0.1-0.3,0.1c0.6,1.9,0,4.1-1.1,5.7l-0.2-0.2c-0.5,1.5-2.3,1.8-3.6,2
		c-0.3-0.1-0.9-0.2-1.2-0.3c0-0.1-0.1-0.3-0.1-0.4c-0.7,0.1-1.4,0-2-0.3c1.5-0.6,3.3-0.2,4.6-1.3c2.1-1.6,2.5-5.3,0.2-6.9l-0.3,0.5
		l0.7,0.4c-0.2,0.2-0.4,0.4-0.6,0.5c-1.5-0.1-3-0.1-4.4-0.7c-1.5-1.4-2.8-3-3.8-4.7c-1.6-2.5-2.8-5.2-3.4-8.1
		c3.7,1.6,7.8,2.9,11.9,2.8c-4.5-0.6-9.3-1.5-13.1-4.2c-0.9-0.6-1.4-1.6-2.1-2.4c-0.3-0.9-0.7-1.9-0.4-2.8c0.5-1.5,1.8-2.5,2.8-3.6
		c1.1-0.6,2.2-1.3,3.4-1.8c2.3-0.6,4.8-0.7,7.2-0.9c-2.5-0.1-5,0-7.3,0.7c0.3-1.6,1.1-2.9,2-4.2c2.1,0.9,4.2,1.6,6.5,1.9
		c-0.6-0.6-1.7-0.5-2.4-0.8c-1.8-0.7-3.9-1-5.2-2.6c-0.8-1.2-0.1-2.8,1.1-3.3c2.6-1.5,5.7-1.4,8.5-0.9l-0.3,0.3
		c-1.5,0.2-3.1,0.5-4.4,1.3c-0.6,0.4-1.6,0.7-1.5,1.5c0.5,1.1,1.8,1.6,2.9,1.9c5.5,1.2,11.3,1.5,16.6,3.8c-0.6,0.5-1.3,0.9-1.5,1.7
		c-0.6,1.5,0.1,3.1,0.7,4.5c-5-2.8-10.9-4.2-16.6-3.3c-2.5,0.4-5.2,0.8-7.3,2.4c-0.7,0.5-1.3,1.4-1,2.4c0.9,2.5,3.5,3.8,5.7,5
		c6.1,2.7,13,3.3,19.6,2.9c1,0,2-0.5,3-0.1c-0.4,1-0.7,2.2-1.7,2.9c-1.8,1.3-4.2,1.4-6.1,2.4c-1.1,0.5-2.3,1.1-2.6,2.4
		c-0.6,1.2,0.4,2.5,1.4,3.1c1.6,0.8,3.5,1.1,5.1,0.3c2.1-1,4.1-2.5,6.4-2.9c0.1,0,0.3-0.1,0.5-0.1c0.2,0,0.6-0.1,0.8-0.1
		c0.4-0.1,0.8-0.2,1.2-0.1c-0.3,0.5-0.7,0.9-1,1.4c-1.4,1.4-3,2.5-4.8,3.3c2.5-0.6,4.6-2.5,6.1-4.6l0.5-0.1
		c-0.2,0.7-0.4,1.4-0.6,2.1l-0.3-0.2c-0.5,0.9-1,1.9-1.8,2.7c-1,1-2.3,1.6-3.5,2.3c1-0.3,1.9-0.9,2.8-1.4c1.2-0.8,1.9-2,2.6-3.2
		l0.5,0c-0.7,3.3-3.5,5.9-6.5,7.1c0,0.1,0,0.2,0,0.3c0.3-0.2,0.7-0.3,1-0.5c1.3-0.3,2.6-0.4,3.8-0.9c-0.6,0.9-1.8,0.8-2.6,1.6
		c0.7-0.2,1.5-0.5,2.2-0.7c-1,1.5-2.7,2.4-4.2,3.3c-0.7,0.4-1.4,0.5-2.2,0.6c-0.5,0-0.9,0-1.4-0.1c0.4,1,1.4,1.4,2.1,2.1
		c-0.5,0-1,0-1.6-0.1c-0.9-0.2-1.9-0.5-2.8-0.7c-1.5-0.5-2.6-1.6-3.7-2.7l-0.2,0.3c-0.2,0.2-0.4,0.5-0.6,0.7c-0.8,1.1-2,1.6-3.3,1.9
		c0.2-0.5,0.4-1,0.7-1.5c0.1-0.2,0.3-0.7,0.4-0.9c-0.6-0.1-0.8,0.9-1.2,1.3c-0.4,1-1.4,1.3-2.2,1.7c2.4,0.6,5-0.9,6.4-2.8
		c0.7,0.5,1.1,1.2,1.8,1.7c1.8,1.2,4,1.9,6.1,1.7c0.6-0.1,1.5,0,1.8-0.6c-1.1-0.2-2.1-0.8-3-1.5c0.9-0.3,1.9-0.1,2.7-0.5
		c0.9-0.3,1.7-0.8,2.6-1.3c-0.2,3.9-0.6,8.4-3.8,11.1c-0.4,0.6-1.3,0.6-1.6,1.3c1.4,1,3.1,1.5,4.6,2.3c0,0.1,0,0.4,0.1,0.5
		c0.2,0,0.5-0.1,0.7-0.2c1.1,0.4,2.3,0.8,3.5,1.1c-0.3,1.1-0.3,2.1-0.3,3.2c-2.2,0.1-4.3,0.9-6.2,1.9c0.4-2.1,0.9-4.5,2.6-5.9
		c-0.1,0-0.4-0.1-0.6-0.1c-1.6,1.9-2.4,4.4-2.6,6.9c0.9-0.3,1.7-0.9,2.6-1c-0.2,1.8-0.6,3.8,0.3,5.5c0.4-0.5,0.7-1.2,1.3-1.5
		c0.1,1.1,0.6,2.1,1.1,3c0.1-0.1,0.3-0.2,0.3-0.3c0.3-0.5,0.6-1,0.9-1.4c0.3,0.8,0.7,1.6,1.1,2.3c0.1,0,0.3-0.1,0.4-0.2
		c1.2-2,3.1-3.4,5.3-4.3c0.8,2.5,3.2,3.8,5.3,4.9c2.5,1.4,5.3,2.2,8,2.9c-1,0.7-2.1,1.6-3.5,1c0.1,0.6,0.9,0.7,1.4,0.6
		c0.8-0.1,1.7-0.1,2.5-0.1c2-0.3,3.9-1.3,5.4-2.6c1.6,2.6,4.6,3.8,7.3,5c4.5,1.4,9.6,0.7,13.8-1.4c-0.9,1.8-2.3,3.3-3.9,4.4
		c-0.8,0.5-1.9,0.3-2.6,1c1.6,0.1,3.2,0,4.6-0.5c1.9-0.6,3.8-1.4,5.2-2.9c2,1.9,4.7,3.1,7.4,3.4c1.8,0.2,3.7,0.5,5.3-0.4
		c-1.7-0.3-3.2-1.1-4.7-2.1c-0.6-0.4-1.3-0.8-1.7-1.5c2.8,0.7,5.7,0.6,8.5-0.2c1.1-0.3,1.9-1,2.8-1.6c-0.1-0.1-0.2-0.3-0.3-0.3
		c-0.4,0.2-0.8,0.4-1.2,0.6c-0.9,0.3-1.8,0.5-2.7,0.8c-0.5,0.1-0.9,0.2-1.4,0.3c-1.2,0.1-2.4,0.2-3.5,0.1c-1.3-0.1-2.5-0.6-3.9-0.7
		c1.3,2,3.4,3.2,5.4,4.4c-3.7-0.2-7.4-1.3-10.3-3.7c-1.1,0.9-2.2,1.7-3.5,2.3c-0.8,0.4-1.7,0.6-2.5,0.9c1.3-1,2.3-2.2,3.1-3.7
		c1-1.6,1.4-3.5,1.1-5.4c-0.1-0.1-0.3-0.3-0.5-0.4c0.1,1.3,0.2,2.6-0.3,3.8c-3.6,2.4-8.2,2.7-12.3,2.2c-3.4-0.7-6.7-2.4-9-5
		c0-0.3,0.1-0.8,0.2-1.1c-0.8,0.5-1.3,1.2-2,1.7c-1.3,0.9-2.9,1.5-4.5,1.7c0.7-0.5,1.4-1.1,2.1-1.6c0.4-0.7,1-1.5,1-2.4
		c-0.1,0-0.2,0.1-0.3,0.1c-0.3,0.5-0.7,0.7-1.3,0.5c0-0.2,0.1-0.5,0.1-0.7c-0.1,0.1-0.2,0.4-0.2,0.5c-0.7-0.2-1.4-0.5-2.1-0.8
		c-0.5-0.3-0.9-0.6-1.3-1c-0.9-0.7-1.4-1.8-1.9-2.8l0.2-0.4l0.5,0.4c0.3,0.2,0.5,0.4,0.8,0.6c0.7,0.3,1.4,0.5,2.1,0.6
		c0.6-0.1,2.3,0,1.8-1c-0.6-0.6-1.1-1.3-1.6-2c0.2-0.1,0.5-0.1,0.7-0.2c3.6,2,7.7,3.4,11.8,3.5c2.2,0.1,4.4-0.5,6.6-1.2
		c-0.9,0.1-1.9,0.3-2.8,0.5c-5.4,0.9-10.9-0.7-15.7-3.2c0.1-3.1,2.6-5.5,4.6-7.7c1.2-1.4,3-2.2,4.5-3.3c-3.2,0.9-5.4,3.6-7.6,6
		c-0.1-2.1,0.6-4,1.3-5.9l-0.4-0.1c-0.3,0.6-0.5,1.1-0.8,1.7c-0.2-0.5-0.2-1.1-0.8-1.4c0.1,1.7,0.5,3.6-0.8,4.9c-0.4-1-0.8-2-1.1-3
		c-0.1,0.5-0.7,1.1-0.5,1.6c0.9,1,1.1,2.5,2.4,3.2c-0.5,1.2-1.2,2.3-1.2,3.6c-0.2,0.2-0.3,0.4-0.5,0.6c-0.9-2.1-0.7-4.5-0.7-6.7
		l-0.1,0c-0.2,0.2-0.5,0.5-0.6,0.7c-2.4-1.9-5.1-3.5-7.9-4.7c-0.7-0.3-1.8-0.5-2.1-1.3c-0.2-1.2,0.4-2.3,1.1-3.2
		c1.3-1.6,3.4-2.3,5.3-2.7c2.6-0.5,5.3-0.5,7.9-0.3c-1,1.3-1.8,2.8-2.4,4.4c-1.5-1.5-3.7-3.1-5.9-2.5c2.2,0.6,4.3,1.5,5.8,3.2
		c0,0.5-0.1,1-0.1,1.5c0.5,0.1,1.3,0.5,1.5-0.3c-0.3-0.1-0.8-0.2-1.1-0.3c0.5-2,1.2-3.9,2.6-5.4c2-2.5,4.9-4.1,8-5.1
		c-1.6,1.9-3,3.9-4,6.2c-0.5,0-1.1,0-1.6,0c2.5,0.8,5.2,0.4,7.7-0.4c2.9-0.9,5.4-3,8.4-3.5c1.7-0.4,3.5-0.1,5-1.2
		c0.5-0.3,0.9-0.9,1.5-1c0.1,1.1-0.4,2.5,0.2,3.6c1.3,3,4.3,4.6,6.5,6.8c2.3,2.3,2,6.1,0.6,8.7c-1.7,2.6-5,3.1-7.1,5.2
		c-1,0.8-1,2.6,0.2,3.2c1.3,0.5,2.8,0.6,4.1,0.2c2.8-0.6,5.8-1.9,7.2-4.6c2.1-4,3.8-8.3,5-12.7c1.7,1,3.1,2.3,4.7,3.4
		c2.1,1.5,3.8,3.4,5.2,5.6c-0.3,1.6-1.3,3.1-2.7,4c-0.2,0.1-0.3,0.2-0.5,0.3c-0.4,0.2-0.7,0.3-1.1,0.5c-2-1-4.1-1.8-6.3-1.9
		c-1.1-0.1-2.1,0.3-3.1,0.5c1.7,1.3,3.1,2.9,4.5,4.5c0.4,0.3,0.7,0.6,1.1,1c0.7,0.5,1.4,0.9,2.1,1.2c-0.4,0.1-0.9,0.3-1.3,0.5
		c-0.4,0.2-0.9,0.3-1.4,0.4c-2.3,0.3-4.9,0.5-6.8-1.1c1.4,2.2,3.9,3.5,6.4,4.2c0.9,0.1,1.8,0.1,2.7,0.2c0.4,0,0.6,0.6,0.5,0.9
		c-0.3,1.2,0,2.5,0.3,3.7c0.6,2,1.1,4.1,2.5,5.8c3.5,4.5,8.6,7.3,13.4,10.2c4.2,2.3,8.8,4,12.7,6.8c1.6,1.2,3.6,1.6,5.5,2.1
		c2.2,2.1,5.1,3.8,8.3,3.1c1.3-0.2,2-1.4,2.7-2.3c0.8-1,1.7-1.9,2.5-3c0-0.2,0-0.7,0-0.9c-1-1-1.8-2.2-2.8-3.1
		c-0.7-0.6-1.5-1-2.2-1.6c0.3-1.7,0.8-3.3,1.3-5c0.7-1.5,2.4-2,3.8-2.7c2.5-1.3,5.2-2.4,7.3-4.2c1.8-1.6,2.4-4.2,1.7-6.5
		c-0.2-1-1-2-0.6-3.1c0.5-2.4-0.8-4.7-2.3-6.5l0-0.3c1.1-1.4,2.6-2.3,4.1-3.1c2.6-1.2,5.5-1.4,8.3-2.1c2.3-0.6,4.3-2.3,5.5-4.3
		C234.9,95,234.8,93.7,234.8,92.5z M96.3,54.3c0.7,0.9,1.9,1.5,2.2,2.6c-0.9-0.5-1.7-1.1-2.7-1.2C95.9,55.3,96,54.8,96.3,54.3z
		 M124.6,37.1c0.3,1.6,0.9,3.2,0.9,4.8c0,1.7-0.4,3.3-0.8,4.9c-0.7,2.9-2.3,5.5-4.3,7.7c-0.9,0.9-2.2,0.4-3.2-0.1
		c0.9-0.8,2-1.4,2.7-2.4c1.1-1.4,2.1-3,2.9-4.6c0.6-2.1,1.4-4.3,1.1-6.6c-0.1-1.5-0.6-3-1-4.4C123.4,36.5,124,36.8,124.6,37.1z
		 M117.9,35c0.1,0.3,0.3,1,0.4,1.3c0.2-0.1,0.4-0.2,0.5-0.3c0.1-0.5,0.1-1.2,0.5-1.5c0.8,0.3,0.9,1.2,1.3,1.8
		c1.4,3.6,0.6,7.7-1.2,11c-1.2,1.9-2.6,3.7-4.6,4.7c0.7-0.1,1.2-0.5,1.7-0.9c2.9-2.6,4.8-6.2,5.1-10.1c0-2.2-0.5-4.4-1.6-6.2
		c0.9,0.4,1.9,0.6,2.6,1.4c0.6,1.9,1.2,3.9,1.1,6c-0.6,4.6-2.7,9.3-6.7,11.9c-1.2-0.8-2.5-1.5-3.7-2.3c-0.4-0.2-0.5-0.7-0.6-1.1
		c1,0.1,1.8-0.6,2.5-1.1c2.7-2.2,4.7-5.6,4.5-9.2c0-1.3-0.5-2.6-0.6-3.9c-0.2,0.2-0.4,0.5-0.7,0.7c-0.6-0.3-1.4-0.4-1.9-0.8
		C116.8,35.9,117.4,35.5,117.9,35z M56.9,53c1,1.4,2,2.7,3.6,3.5c0.7,5.1,3.5,9.8,7.2,13.3c1.6,0.8,3.3,0.4,5,0.7
		c0.1-0.1,0.3-0.3,0.4-0.4c1.4,2.1,0,5.3-2.4,5.8c-1.7,0.4-3.4,0.4-5.1,0.1c1.1,1.5,3,2,4.7,2.4c0.3,0.5-0.6,0.6-0.8,0.8
		c-5,2.3-11.4,0.4-14.3-4.2c-1.8-2.3-2.2-5.4-2.1-8.3c0.1-1.7,0.6-3.4,1.2-4.9C55.3,58.9,56.3,56,56.9,53z M59.1,46.2
		c-0.8,1.4-2.4,2.3-2.6,4c-0.4,1,0.5,2,0.2,3c-0.9,3.3-2.1,6.5-3.5,9.6L52.8,63c-0.8-1.3-1.7-2.5-2.1-4c-1.7-6-0.2-12.5,2.9-17.7
		c1.1-1.8,2.5-3.3,3.8-4.9c1.6,0.3,3.1,0.5,4.7,0.6C61.8,40.2,60.6,43.3,59.1,46.2z M64.1,35.4c-1.5,1.2-1.2,3.8,0.6,4.5
		c-0.6,1.5-1.8,2.7-1.9,4.4c-0.9,0.8-2.1,1.3-3.2,1.9c0.7-1.7,1.7-3.3,2.2-5.1c0.5-1.6,0.8-3.3,1-5c0.2-3.1-1.1-6.1-1.7-9.1
		c-0.2-0.6,0.1-1.2,0.2-1.8c0.3-0.2,0.7-0.5,1-0.7c1.7-0.1,3.6-0.2,5.1,0.7c3.1,1.9,5,5.4,5.5,8.9C69.9,33.3,66.5,33.5,64.1,35.4z
		 M100.2,29.6c-0.9,0.6-1.7,1.6-1.5,2.7c-0.1,1.2,1.2,1.7,2.1,2.2c0.2,0,0.5,0,0.6,0.1c-0.9-0.4-1.7-0.9-2.4-1.4
		c-0.3-1.3,0.1-2.7,1.2-3.5c0.3,0.5,0.6,1,0.9,1.6c-0.2,0.1-0.6,0.3-0.8,0.4c0,0.2-0.1,0.5-0.2,0.7c0.1,0.3,0.3,0.5,0.5,0.6
		c-0.4-0.6-0.4-1.4,0.4-1.6c0.5,0.5,0.8,1.1,1.1,1.7c0.9,0.6,1.9,1.3,3,1.4c0.8,0.1,1.7-0.6,2.3,0.2c0.6,0.5,1.6,1.1,2.2,0.2
		c0.7-1.3,0-2.8-0.4-4.1c0.1-0.4,0.3-0.8,0.4-1.2c0.6,0.2,1.3,0.1,1.8,0.5c0.6,0.9,0.7,2,1.2,3c0.3,0.7,0.8,1.5,0.5,2.3
		c-0.3,0.8-1.2,1.1-2,1.4c-1.7,0.5-3.5,0.1-5.2,0c0-0.1,0.1-0.3,0.1-0.4c-0.6,0.7-1.4,0-2.1-0.1c-2-0.6-4.1-1.1-6.1-1.7
		c-0.7-1.4-1.3-2.9-2.4-4.1c0-0.1,0-0.2,0-0.3c0.2,0,0.7,0.1,1,0.1c-0.4-0.2-0.8-0.4-1.1-0.6c0.4-1.4,1.3-2.6,2.5-3.4
		c0.4-0.2,0.8-0.7,1.3-0.3c0,0.2,0.1,0.5,0.2,0.6C99.5,27.7,99.8,28.6,100.2,29.6z M95.9,18.3c0.9,0.3,1.8,0.4,2.8,0.5l0.2,0
		c0.4,0.4,0.9,0.7,1.4,1.1c0,0.5,0.4,0.7,0.8,0.6c0.4,0.6,0.7,1.3,1,1.9c-0.4,0.1-0.9,0.2-1.3,0.4c-0.3-0.2-0.6-0.4-0.9-0.7
		c0,0.4,0.1,0.8,0.2,1.1c-0.4,0.6-0.6,1.2-0.9,1.8c-0.7-0.1-1.4-0.3-2.1-0.5c0.1-0.3,0.2-0.8,0.3-1.1c0.5-0.3,1.3-0.4,1.3-1.2
		l0.4,0.4c-0.2-0.3-0.4-0.7-0.6-1c-0.2,0.2-0.4,0.5-0.6,0.7c-1.1,0-2.8-0.9-1.9-2.2c0.6-1.4,2.8-0.6,2.8,0.8c0-0.2,0.1-0.6,0.1-0.8
		c0,0,0,0,0,0c-0.1,0-0.2-0.1-0.3-0.2c-0.6-0.7-1.6-0.6-2.4-0.8c-0.1,0.1-0.2,0.4-0.2,0.5c-0.4,0.3-0.4,0.8-0.5,1.2
		c0.3,1,1.3,1.6,2.3,1.5c0.1,0.2,0.2,0.4,0.3,0.6c-0.3,0-0.8,0.1-1,0.1c0,0.4,0,0.8,0,1.2c-1.2-0.1-1.7-1.3-2.1-2.2
		c-0.3-1.2-0.4-2.4,0.2-3.5C95.4,18.6,95.7,18.4,95.9,18.3z M83.6,18c-0.3-0.8,0-1.6,0-2.4c-0.2-0.7-0.4-1.4-0.5-2.1
		c0-0.2-0.1-0.5-0.1-0.8c-0.8-1.4-1.2-3-1.9-4.5c-0.2-0.5-0.7-0.8-1.1-1.1c-0.1-0.2-0.4-0.7-0.5-0.9c1-0.2,2-0.3,3-0.3
		c0.3,0,0.6,0,0.8,0c0.9,0.3,1.2,1.3,2,1.7c0.6,0.1,1.2-0.1,1.8-0.2c0.3,2.3,0.3,4.8,1.7,6.8c0.5,0.8,1.6,0.7,2.4,1
		c0,0.6,0.2,1.2,0.5,1.8c0.2-0.7-0.1-1.3-0.4-1.9c0.3,0,0.8-0.1,1.1-0.2c0,0.6,0.2,1.2,0.4,1.7c0-0.6,0-1.2,0-1.8
		c0.5,0.7,0.9,1.5,1.2,2.3c0,0,0,0,0,0c0.4,0.5,0.8,0.9,1.2,1.3c-0.5,0.7-0.8,1.5-0.7,2.3c0,1.8,1.2,3.3,1.9,4.9
		c-0.1-0.5-0.3-0.9-0.4-1.4c0.2,0.1,0.7,0.4,0.9,0.6c0.5,0.3,1,0.5,1.5,0.7c-0.3,0.2-0.6,0.4-0.9,0.6c-0.3-0.2-0.6-0.4-0.9-0.6
		c0.1,0.2,0.3,0.6,0.4,0.8c-0.6,0.7-1.2,1.5-1.8,2.2c-0.1-0.6-0.7-0.6-1.2-0.6c0,0.8,0.3,1.4,1,1.7l0,0.2L95,30
		c-0.9-0.6-1.7-1.4-2.8-1.6c-0.4-0.1-0.8-0.1-1.2-0.2c-0.4,0.2-0.7,0.4-1.1,0.6c-1.2-1.2-2.8-1.8-4.1-2.7
		C85.1,23.4,84.4,20.7,83.6,18z M83.6,28.5c0.1-0.1,0.2-0.4,0.2-0.5l-0.4-0.1c0.2-0.5,0.3-1,0.5-1.5c0.8,0,1.6,0,2.4,0.2
		c1.2,0.5,2.2,1.3,3.2,2l0.1,0.8c-0.4-0.1-0.8-0.2-1.2-0.4l0,0.3c-0.1,0-0.4,0-0.5,0c0.5,0.1,1,0.1,1.5,0.3c-0.4,0.7-0.7,1.5-1,2.3
		c-1.3-0.2-2.3-1.2-3.5-1.9C84.5,29.6,84.3,28.9,83.6,28.5z M81.4,31.5c0.6,1,0.9,2.2,1.8,3.1c0.7,0.8,1.7,1.2,2.6,1.7
		c0.2,0,0.5,0,0.7,0l-0.1,0.2c0.4,0,0.8,0,1.3,0c-1.8-0.1-3.5-0.9-4.6-2.3c-0.6-0.8-1-1.7-1.3-2.7c0.7-1,2-1.1,3.1-0.9
		c1,0.5,2,0.9,2.8,1.6l0.2-0.3c0.1,0.2,0.3,0.5,0.4,0.7c-0.1,0.6-0.2,1.3-0.2,1.9c-0.3,0.1-0.6,0.2-0.9,0.3c0.3,0.1,0.7,0.1,1,0.2
		c-0.1,0.7-0.1,1.5,0,2.2c-1.8,0.5-3.7-0.2-5.2-1.3C81.8,34.9,80.8,33.2,81.4,31.5z M88.5,39.4c-0.1,0.3-0.3,0.8-0.4,1.1
		c-0.8,0.8-2,0.3-2.9,0.2c0.1-0.4,0.1-0.8,0.2-1.2c-0.1-0.1-0.4-0.2-0.6-0.2c-0.3,0.2-0.6,0.4-0.9,0.6c-1.5-0.4-3.2-1.9-2.2-3.5
		C84.1,36.8,86.2,38.3,88.5,39.4z M70.2,39.1c-1-0.3-2.4-0.7-2.7-1.9c1.9-1.6,4.5-2.1,6.9-2.2c2.4,0.2,4.8,0.4,7.2,1.1
		c-0.8,0.8-0.5,2.1,0.2,2.9c0.5,0.4,1.1,0.8,1.8,1c0.5-0.1,0.9-0.3,1.4-0.5c0,0.4,0.1,0.8,0.1,1.3c1,0.3,2.5,0.8,3.2-0.3
		c0.1-0.2,0.2-0.7,0.3-1c0.6,0.2,1.2,0.9,0.7,1.5c-0.5,0.9-1.4,1.6-2.3,2C81.7,40.6,75.8,40.4,70.2,39.1z M78,46.9
		c2.8,0.6,5.6,1.6,8.1,3c0.5,0.2,1,0.8,0.5,1.3c-1,1.3-2.7,1-4,0.5c0-0.7,0-1.5,0-2.2c-0.5,0.5-1,1-1.5,1.4c-1.6,0-2.6-1.4-3.2-2.7
		C77.9,47.8,78,47.3,78,46.9z M89.3,58.3c-1.3-0.2-2.5,0.2-3.8,0.1c-3.4,0-6.8,0.3-10.1-0.4c-4.3-0.8-8.7-1.9-12.2-4.7
		c-0.9-0.8-2-1.7-1.9-3c0-0.8,0.8-1.3,1.4-1.7c2-1.3,4.4-1.6,6.6-2c2.8-0.4,5.6-0.2,8.4,0.2C77,48.8,79,51,81,51.3
		c0.4-0.3,0.7-0.6,1-1c0.4,0.5,0,1.2,0.5,1.6c1.2,0.6,2.6,0.7,3.8,0c0.2-0.3,0.5-0.7,0.7-1C88.3,53.1,89.7,55.6,89.3,58.3z
		 M206.7,72.5c4.6,1.9,9.6,2.6,14.5,3.5c1.4,0.3,2.9,0.5,4.4,0.5c-0.5,1.2-1.2,2.3-2,3.4c-0.6-0.6-1.1-1.2-1.9-1.6
		c-1.7-1.1-3.5-2.2-5.6-2.6c-1.6,2.4-2.8,5.1-4.3,7.6c-2,3.7-3.2,7.8-3.3,12c0,0.7,0,1.4,0.2,2c-0.1,0.1-0.3,0.2-0.4,0.3
		c-0.3-1.8-0.5-3.5-0.9-5.3c-0.3-4.2,0-8.3,0.1-12.5C207.7,77.3,207.6,74.8,206.7,72.5z M209.3,95.2c-0.2-0.8,0-1.6,0.1-2.5
		c-0.2-1.9,0.3-3.8,1.1-5.5c1.4-3.9,4-7.3,5.7-11.1c2.6,0.9,5.1,2,7.2,3.8c-1.5,2.8-3.9,4.9-5.9,7.3c-2.2,2.8-4.9,5.5-6.3,8.9
		c-0.1,1.4-0.7,2.8-1.5,3.9c0-0.1,0-0.3-0.1-0.4c-0.4-0.7-0.4-1.6-1.4-1.7c0.3-0.1,0.7-0.3,1-0.4C209.1,96.9,208.9,96,209.3,95.2z
		 M205.4,74.6c0.5-0.2,0.9-0.5,1.4-0.7c0.7,2.9,0.3,5.8,0.3,8.7c-0.3,5.5-0.5,11.2,1.4,16.5c0.2,0.8,0.8,1.4,0.9,2.2
		c-0.3,1.2,0,2.5-0.5,3.7c-0.5-0.7-0.8-1.6-1.1-2.4c-2.5-5.9-5.4-11.6-8-17.5c-1.6-3.2-3-6.6-4.8-9.8
		C198.5,75.8,202.1,75.8,205.4,74.6z M190.2,85.1c2.8,0,5.4-1.4,7.7-2.9c2.1,4.9,4.5,9.8,6.6,14.7c1.2,2.9,2.8,5.6,4,8.5
		c-0.2,1.4-1.8,2-2.9,2.8c-1.1-3.6-3.9-6.1-6.1-9c-2.3-2.6-4.2-5.5-6.2-8.4C192.1,89,191,87.1,190.2,85.1z M192.4,90.2
		c-1.2-0.2-2.4-0.1-3.6-0.2c0.7-1,1.2-2.2,1.7-3.3C191.1,87.9,191.7,89.1,192.4,90.2z M191.7,84.4c1.6-2,2.9-4.2,4.5-6.2
		c0.4,1.3,1,2.5,1.6,3.8C195.9,83.1,193.9,84,191.7,84.4z M196.9,66.4c1.2,1.7,2.2,3.8,1.8,5.9c-0.1,1.1-0.5,2.1-0.9,3.1
		c-1.1-0.1-2.2-0.3-3.3-0.1c0.4,0.8,0.9,1.7,1.4,2.4c-1.7,2.2-3.3,4.6-4.7,7c-0.6,0-1.1,0.1-1.7,0.1c0.2,0.5,0.4,0.9,0.6,1.4
		c-0.5,1.4-1.2,2.7-1.9,4c-2.1,0.2-4.2,0.3-6.3,0.8c-1.4,0-2.8-0.3-4.2-0.4c-4.1-0.4-8.3,0.4-12.1,2l-0.1-0.4
		c1.4-2.4,3.4-4.6,5.7-6.2c1.8-1.5,3.9-2.9,4.4-5.3c1.1,0.6,1.9,1.6,2.7,2.6c1.8-0.9,2.5-2.8,3.6-4.4c0.3,0.5,0.7,0.9,1.1,1.3
		c0.8-1.2,0.8-2.7,1.3-4.1c0.9,0.3,1.9,1,2.9,0.6c-0.1-0.3-0.1-0.6-0.2-1c2.3-1.8,3.5-4.9,3.4-7.8c0-2-1-3.8-1.9-5.4
		C191.6,62.9,194.8,64,196.9,66.4z M184.4,63.9c-0.2-0.8-0.5-1.5-0.6-2.3c2.3,0.6,3.8,2.6,4.5,4.7c1,2.9,0.1,6.2-2.1,8.3
		c-0.4-1.2-1.2-2.3-1.1-3.6C185.2,68.6,185.1,66.2,184.4,63.9z M186.9,76.6c-0.8-0.2-1.7-0.2-2.5-0.6c0.2-1.2,0.5-2.3,0.6-3.5
		C185.7,73.8,186.2,75.2,186.9,76.6z M188.9,64.1c2.2,3.7,1.1,8.8-2.2,11.5c-0.1-0.2-0.3-0.7-0.4-1c4.2-3.2,3.3-10.8-1.5-13
		c-0.4-0.3-1.4-0.2-0.9-1.1C186,61,188,62.1,188.9,64.1z M184.8,56.8c-0.8,1.2-1.1,2.7-1.2,4.1c-0.4-0.8-0.6-1.6-0.9-2.4
		C183.3,57.8,183.9,57.1,184.8,56.8z M181.6,57.3c1.1,2,1.5,4.3,2.2,6.4c1.5,5.2,0.8,10.7-0.9,15.8c-0.3-0.4-1.1-0.8-0.8-1.4
		c2.2-6.5,0.5-13.6-2.6-19.5C180.2,58.2,180.8,57.2,181.6,57.3z M174.2,56.3c1.9-0.8,4,0.4,5.3,1.7c-1.3,0.2-2,1.6-3,2.3
		c-0.2-0.2-0.4-0.4-0.6-0.6c-0.2,1.9-1.3,3.8-3.1,4.6c-1.4,0.4-3,0.2-4-0.9c0.9-1.1,1.9-2.1,2.6-3.3
		C172.3,58.8,172.8,57.1,174.2,56.3z M171.4,65.5c-1,0.1-1.9,0.2-2.9,0.1l-0.2-0.2c0.2-0.3,0.4-0.6,0.7-0.9c0.6,0.3,1.2,0.4,1.7,0.6
		C171,65.2,171.2,65.3,171.4,65.5z M167.4,55.4c1.8-1.2,4-0.3,5.7,0.7c-1.7,1.9-2.2,4.6-4.1,6.4c-0.4,0.4-0.7,0.9-0.5,1.5
		c-1,1.9-4,2.7-5.7,1.1c1.3-2.2,3-4.4,3.3-7C166.4,57.1,166.5,56,167.4,55.4z M160.8,57.3c1.2-1.8,3.6-2.2,5.6-1.9
		c-1.2,3-1.9,6.2-3.8,8.9c-0.9,0.6-2,0.7-3,0.8c-0.8,0.1-1.6-0.2-2-0.9C159.9,62.6,159.7,59.5,160.8,57.3z M155.3,44.1
		c-0.1,3.2,0.6,6.4,1.7,9.4c0.5,1.6,1.4,3.2,2.5,4.5c0.4,0.4-0.1,1,0,1.5c-1.6-0.4-2.3-2.2-3.4-3.4c0.3-0.4,0.3-0.8,0.2-1.3
		c-0.2,0.2-0.4,0.5-0.6,0.7c-0.9-1.3-1.4-2.8-2.1-4.3c-0.6-1.5-1.4-2.9-1.4-4.5c0.6-0.2,1.1-0.5,1.7-0.9c-0.7,0.1-1.2,0.5-1.8,0.8
		c-0.1-0.5-0.2-0.9-0.2-1.4C152.8,44.7,154,43.9,155.3,44.1z M151.2,44.8c0.6,0.7,0.4,1.7,0.7,2.6c0.8,3,1.9,5.9,3.7,8.4l0.5-0.1
		c-0.2,0.4-0.2,0.9-0.1,1.3c-1.6-1.4-2.9-3-4.1-4.7c0.1-0.2,0.2-0.5,0.3-0.7c-0.3-0.5-0.6-1.1-0.7-1.7c0,0.6,0.3,1.3-0.1,1.9
		c-1.1-1.7-2.1-3.5-2.6-5.4C149.1,45.4,150.5,45.3,151.2,44.8z M148.7,45.4c-0.2,1.1,0.2,2.2,0.6,3.1c1.3,3.3,3.7,6.1,6.3,8.5
		c1.2,0.9,2.2,2.2,3.6,2.6c0,0.3-0.1,0.8-0.1,1c-1.2-0.5-2.3-1.2-3.4-1.8c-0.5-0.2-0.8-0.5-1.2-0.8l0.2,0c-2.2-1.5-4.2-3.5-5.8-5.6
		c-1-1.7-2.1-3.4-2.8-5.3C147,46.6,147.7,45.4,148.7,45.4z M145.6,46.8c1.5,3,2.9,6.2,5.4,8.6c2.4,2.3,5,4.6,8.2,5.5
		c-0.2,1.2-1.3,0.5-2.1,0.9c-0.2,0.1-0.5,0.3-0.7,0.4c-1.7-0.6-3.2-1.6-4.6-2.7c1.2,1.4,2.9,2,4.4,2.9c0.7-0.7,1.6-0.8,2.5-0.7
		c-0.1,1-1.2,1.5-1.5,2.4c0,0.9,0.9,1.4,1.7,1.5c1.2,0,2.4-0.3,3.5-0.8c0.5,1.6,2.5,1.9,3.9,1.5c-0.1,1,0.1,2.1,1.2,2.5
		c0.2,0.3,0.4,0.5,0.5,0.8l0.1-0.2c-0.3-0.6-1-0.9-1.4-1.4c-0.2-0.6-0.2-1.2-0.3-1.8c0.4-0.2,0.8-0.4,1.3-0.5c0.1,0,0.2,0,0.2,0
		c2.3,0.5,4.6-0.2,6.8-0.2c-0.5-0.2-1.1-0.4-1.6-0.6l0.1-0.2c1.6-0.8,2.7-2.3,3.2-4c1-0.7,1.9-1.5,2.8-2.4c0.9,1.9,1.6,3.8,2.4,5.7
		c0.2,0.5,0.4,1.1,0.4,1.7l0.1-0.1c0.5,2.1,0.7,4.2,0.8,6.4c-0.2,2.2-0.3,4.6-1.3,6.6c-0.7,1.4-1.5,2.9-2.9,3.8
		c-0.9-1.5-2.3-2.6-3.9-3.4c-2.2-1.2-4.3-2.7-6.9-3c-0.1-0.3-0.2-0.9-0.2-1.2c1.2-0.2,2.4,0.2,3.6,0.2c1.4,0.1,2.7,0.4,4,0.7
		c-2.3-0.8-4.7-1-7-1.1c-0.2-0.1-0.5-0.4-0.7-0.5c-0.5-1.6-1.4-3.2-2.9-4c-1.2-0.5-2.6-0.9-3.8-0.2c-0.5,0.3-0.9,0.7-1.3,1
		c-0.1-0.2-0.2-0.5-0.3-0.7l0.3,0.9c-1.1-0.5-2-1.2-2.8-2.1c-0.4-1.1,0.6-2.1,0.6-3.2c-0.2-0.8-0.7-1.5-1-2.2
		c0.2,0.8,0.6,1.5,0.9,2.2c-0.1,0.8-0.5,1.6-0.7,2.4c-0.1,0.7,0.5,1.2,0.9,1.7c0.7,0.4,1.4,0.8,2.1,1.2c-1.3-0.1-2.8-0.5-3.4-1.7
		c-0.4-1.3,0.8-2.5,0.3-3.8c-0.4-1-0.4-2-0.2-3.1c-1.2-0.6-2.3-1.1-3.4-1.9c-1.2-0.9-2.2-1.9-3.5-2.7c0.3,1.2,1.6,1.9,2.5,2.6
		c1.2,0.9,2.5,1.7,3.9,2.3c-0.5,1.2,0.1,2.4,0.4,3.6c-0.5,1.1-0.9,2.2-0.5,3.4c-1.2-0.3-2.4-0.8-3.5-1.4c-1.5-0.8-2.6-2.1-4-2.9
		c0.4,1.2,1.6,1.9,2.5,2.7c1.6,1.1,3.4,2.2,5.4,2.4c0.9,0.2,1.7,0.6,2.5,0.9c-4.4,0.1-8.1-2.7-11.3-5.3c0.6-0.5,1-1.1,1.1-1.8
		c0.6,1.1,1.5,2.2,2.9,2.5c1.1,0.2,2.5-0.2,2.8-1.4c0.5-2.5-2.1-5.2-4.6-4.6c-1.2,0.3-1.4,1.6-1.2,2.7c-0.4-0.7-0.8-1.3-1.1-2
		c0.1-1.1,0.4-2.1,0.7-3.1c0.6-0.1,1.1-0.3,1.7-0.4c0.1-0.2,0.2-0.6,0.3-0.8c0.8,0.8,1.6,1.6,2.6,2.1c-0.4-1.2-1.5-1.7-2.2-2.7
		c-0.2-0.5-0.2-1.1-0.3-1.7c1.5,1.4,2.9,3.1,4.8,3.9c-1.2-1.6-2.9-2.6-4.2-4c-1.1-1-1.8-2.5-3.1-3.3c0.2,0.5,0.4,1,0.7,1.5
		c-1.3-0.3-3.1,0-3.4,1.5c-0.4,1.2,0.5,2.2,0.8,3.2c-0.1,1-0.5,1.9-0.8,2.8c-0.5,0.2-0.9,0.3-1.3,0.6c-0.4,0.7-0.4,1.5-0.5,2.2
		c-0.2-0.6-0.4-1.2-0.3-1.8c0.2-2.6,0.6-5.1,1.5-7.6c0.4-1,0.8-1.9,1-2.9c-1.3,1.3-1.6,3.2-2.1,5c-0.6,2.3-1.1,4.7-0.8,7
		c1.7,1.5,3.4,2.9,4.7,4.8c1.4,1.3,2.7,2.8,4.5,3.5c0.4,0.7,1.3,0.9,1.9,1.3c0.1,0.1,0.2,0.3,0.2,0.4c-3.9-1.4-6.8-4.5-9.4-7.6
		c-0.7-0.9-1.7-1.4-2.7-2C140.4,57.9,142.4,51.9,145.6,46.8z M167.9,76.8c1.8,0.4,3.5,1.3,5.2,2.2c0,0.1-0.1,0.3-0.2,0.3
		c-2.6,1.2-5.6,2.2-8.5,1.1c-1.6-0.5-2.2-2.3-2.9-3.6c-0.7-1.4-0.7-3.2-1.7-4.5c-0.2-0.3-0.3-0.5-0.4-0.9c0.8-0.5,1.4-1.3,2.4-1.3
		c2.1-0.1,3.9,1.4,4.7,3.2c0.6,1.3,1.1,2.6,1,4C167.6,77.3,167.8,76.9,167.9,76.8z M145.2,63c0.1-0.2,0.3-0.5,0.4-0.6
		c-0.4-0.1-0.9-0.2-1.3-0.3c0,0.5,0.2,1,0.3,1.5c-0.4,0.2-0.7,0.4-0.9,0.7c-0.6-0.6-0.8-1.5-0.4-2.3c0.6-0.5,1.5-0.6,2.2-0.1
		c0.8,0.7,1.5,1.5,1.8,2.4c0.2,0.7-0.3,1.6-1.1,1.7c-0.9,0.1-1.5-0.7-2.1-1.2c0.6,0.1,1.2,0.3,1.8,0.4c0.1-0.8,0.1-1.5,0.2-2.3
		C145.7,63,145.5,63,145.2,63z M146.4,54.9c-0.1,0.4-0.2,0.8-0.3,1.3c-0.4,0.1-0.8,0.3-1.3,0.4c-0.2-0.7-0.3-1.4-0.1-2.1
		c0.4-0.3,0.8-0.5,1.2-0.8c1.2,0.2,2.6,0.7,2.8,2c0.5,1.1-0.3,2.4-1.5,2.5c-0.8-0.1-1.5-0.3-2-0.9C146.1,56.9,147.5,55.8,146.4,54.9
		z M145.5,58.3c0.4,0.1,0.8,0.3,1.3,0.4c-0.2,1-0.5,1.9-0.7,2.8c-0.3-0.1-0.7-0.2-1-0.3C145.1,60.2,145.3,59.3,145.5,58.3z
		 M148.3,62.6c0.4-0.4,0.8-0.9,1.4-0.9c2.2,0.1,4,2.7,3,4.8C150.3,67.6,147.8,64.9,148.3,62.6z M155.2,85.1c-0.3-3-1.4-5.9-3.4-8.1
		c-1.3-1.5-2.9-2.7-4.4-4c0.2-0.5,0.5-1,0.7-1.5c1.8,1.5,3.9,2.4,6,3.3c1.5,2.3,2.5,5,2.7,7.9c0.4,3.8-0.6,7.5-2.1,11
		c-0.4,0.7-0.5,1.8-1.4,2.1c0.3-1.5,1.2-2.8,1.5-4.4C155.4,89.2,155.6,87.1,155.2,85.1z M146.8,70.3c0.5,0.2,0.9,0.6,1.3,1
		c-0.3,0.4-0.6,0.8-0.9,1.2c-0.4-0.3-0.7-0.6-1.1-0.9C146.4,71.2,146.6,70.8,146.8,70.3z M145.9,71.1c-0.8-0.8-1.4-1.9-2-2.9
		c0.1-0.1,0.2-0.4,0.2-0.5c1.1,0.4,1.7,1.7,2.6,2.4C146.5,70.5,146.2,70.8,145.9,71.1z M132.3,67.5c0.4-1.3,1.7-1.8,2.7-2.5
		c1.1-0.4,2.2-0.4,3.3-0.2c0.6,1.2,1.3,2.3,2.1,3.5c0.4,0.6,0.9,1.2,1.3,1.7c-0.2,0.1-0.4,0.2-0.6,0.3c-0.6,0-1.3,0-1.9,0
		c0.4-0.4,0.9-0.9,1.3-1.4c-1,1-2.4,1.6-3.7,2.1c-0.4,0-1.1,0-1.4,0c0.2-0.3,0.4-0.5,0.6-0.8c1.6,0.2,3.1-0.8,4.1-1.9
		c-0.8,0.4-1.5,1.1-2.4,1.4c-0.6,0.2-1.3,0.3-2,0.4c-0.9-0.2-1.8-0.3-2.6-0.8C132.5,69.1,132,68.3,132.3,67.5z M138.9,76.5
		c-1.2-0.2-2.7-0.5-3.4-1.7c-0.4-1,0.1-2,0.8-2.7c0.8-0.9,2-1.2,3.1-1.5c0.6,0,1.2-0.1,1.8-0.2c0.2,0,0.6,0.1,0.9,0.2
		c0.8,1,1.6,2,2.4,3c-0.5,0.4-0.9,0.9-1.2,1.4C141.9,75.8,140.5,76.6,138.9,76.5z M141.8,76.3l0,0.5c-1.8,0.6-3.9,0.7-5.5-0.4
		l-0.2-0.6c1.3,0.4,2.6,1.1,3.9,0.8C140.6,76.6,141.1,76.1,141.8,76.3z M132.6,69.9c0.6,0.2,1.4,0.3,1.9,0.7l0,0.1
		c-0.4,0.2-0.8,0.3-1.2,0.2C133.1,70.6,132.9,70.3,132.6,69.9z M128.7,69c1.1,0.3,1.9,1.5,1.6,2.6c-0.2,1.2-1.4,1.9-2.5,2.3
		c-2.2,0.9-5.1-0.1-6.1-2.3c0-0.5,0.1-1.1,0.1-1.6c1.6-0.2,2.9-1,4.4-1.4C127.1,68.4,127.9,68.8,128.7,69z M90.5,103.5
		c-0.4-1.5,0.1-3.1,0-4.7c1.2-0.6,2.5-0.8,3.7-1c0.4,0.7,0.8,1.6,0.6,2.5C93.2,101,91.5,102,90.5,103.5z M95.3,106.1
		c-0.3-0.6-0.6-1.2-0.9-1.9c1.3-1.7,3.2-2.7,5.2-3.6c-0.4-0.1-0.9,0-1.2,0.1c-2.2,1-4.1,2.6-5.4,4.5c-0.4-0.9-0.7-1.8-0.9-2.7
		c1.5-1.1,3.3-2.1,5.1-2.7c0.7,0,1.4,0.1,2.1,0.2c0.4,0.6,1.4,1,1.5,1.7C98.5,102.6,96.5,104,95.3,106.1z M114.8,103.1
		c-0.9-0.1-1.9-0.2-2.8-0.7c-1.1-0.6-1.8-1.6-2.5-2.5c0.1,0.8,0.1,1.5,0.2,2.3c0.1,0.4,0.2,0.9,0.3,1.3c0.6,1.9,1.9,3.6,3.8,4.4
		c-1.9-0.5-3.4-1.7-4.7-3.1c-0.8-1-1.7-2.3-1.2-3.6c0.7-1.9,2.7-2.7,4.4-3.6C112.4,99.7,113.2,101.7,114.8,103.1z M112.4,96.9
		c-2.1,1.1-5,2.2-5.2,5c0.1,2.4,2.1,4.1,3.9,5.4c1.4,1,3.3,1.9,5,1.1c-0.3,0.6-0.8,1-1.3,1.4c-4-1-7.9-2.4-11.3-4.8
		c-1.2-0.8-2.3-2.2-2-3.8c0.3-1.6,1.5-3,2.5-4.2c1.9-1.6,4.5-2.3,6.9-2.4C111.9,94.8,112.6,95.8,112.4,96.9z M103.4,90.3
		c2.4,0.9,4.7,2.1,6.8,3.5c-2.1,0.3-4.3,0.9-6.1,2.2c-1.5,1.3-2.7,3-3.3,4.9c-1.4-1.6-2.8-3.4-3.2-5.6c-0.3-2,1.2-3.7,2.9-4.4
		C101.4,90.7,102.4,90.5,103.4,90.3z M101.7,89.1c-0.2,0-0.5,0-0.6,0c0.5,0.2,1,0.4,1.4,0.7c-1.2,0.5-2.5,0.6-3.5,1.4
		c-1.3,0.9-2.2,2.5-2.1,4.1c0.2,1.5,1,2.8,1.7,4.1c-1-0.2-2.1-0.2-3.1,0.1c-0.7-1-0.7-2.2-0.7-3.3c0.3-4.3,2.1-8.4,1.7-12.7
		c-0.1-1-0.5-2-0.7-3.1c2.3,1.6,4.6,3.3,6.9,4.9C102,86.4,101.5,87.7,101.7,89.1z M96.3,79.7c0-0.4,0.7-0.7,0.9-0.2
		c0,0.2-0.1,0.6-0.1,0.8C96.7,80.3,96.4,80.1,96.3,79.7z M105.7,82.9c-2.7-2.7-6.1-4.4-9.6-5.9c0.8-0.7,1.4-1.5,2.1-2.2
		c0.1,0,0.4,0.1,0.6,0.1c2.3,3.3,5.6,5.9,9.3,7.4C107.4,82.6,106.6,83.1,105.7,82.9z M116.8,82c-2.1-0.3-4.3-0.2-6.4,0
		c-0.8,0.1-1.7,0.5-2.4-0.2c-3.2-1.8-6.3-4.1-8.5-7c-0.3-0.4-0.8-0.7-1.2-0.4c-1,0.6-1.8,1.5-2.6,2.4c-0.8-0.1-1.7-0.7-2.5-0.1
		c4.1,0.9,8.1,2.8,11.4,5.4c0.3,0.3,0.8,0.5,0.8,1l0,0.3c-0.8,0.4-1.5,0.9-2.2,1.5c-1.9-1.2-3.7-2.6-5.6-3.9c-0.7-0.3-0.1-1.1,0-1.7
		c-0.6-0.2-1.4-0.5-1.5,0.5c-0.5-0.3-0.8-0.8-1.2-1.2c-0.4,0.4-0.7,0.9-0.8,1.4c-0.8-0.3-0.1-1.2-0.1-1.8c-0.4,0.8-0.8,1.7-0.5,2.6
		c0.1-0.3,0.2-0.8,0.2-1c0.5,0.3,0.6,0.7,0.5,1.4c0.4,0.1,0.8,0.2,1.2,0l0.2,0.1c0.6,2.6,0.6,5.3,0,8c-0.5-0.4-1-0.5-1.6-0.2
		c-0.2-0.4-0.2-0.9-0.7-1c-0.9,0.1-1.3,1-1.2,1.8c0,0.2,0,0.5,0.1,0.6c0.7,0.1,1.1-0.3,1.5-0.8c0,0.3,0,0.8,0,1.1
		c0.2,0.1,0.5,0.2,0.7,0.3c0.2-0.2,0.6-0.5,0.9-0.7c-0.2,1.1-0.4,2.2-0.6,3.3c-2.8-0.7-5.4-1.9-8-3.1c2.2-1.7,3.9-4.1,4.4-6.8
		c0.6-2,0.4-4.1,0.7-6.1c1.1-1.3,2.4-2.5,2.8-4.2c-1.2,0.5-2.3,1.2-3.6,1.3c2.8-1.8,4.7-5.1,4.4-8.4c1.9,0,3.8-0.3,5.7,0.4
		c0,0.6,0.2,1.2,0.5,1.7c2.1,4.3,5.4,8,9.5,10.4c2.1,1.2,4.1,2.5,6.4,3.2C117.2,82,117,82.1,116.8,82z M95,81
		c-1.2-0.2-0.4-1.7-0.3-2.4C95.7,79.1,95.5,80.3,95,81z M95.1,90c-0.1,0.4-1,1.2-1.2,0.5c-0.3-0.4-0.2-0.9,0.3-1.1
		c0.1,0,0.1,0,0.2-0.1c0.1,0,0.3-0.1,0.4-0.2C94.9,89.4,95,89.8,95.1,90z M93.4,88.3c0,0.3-0.1,0.9-0.1,1.2
		c-0.2,0.6-0.5,0.8-1.1,0.5C92.4,89.4,92.6,88.6,93.4,88.3z M122.6,78.4c-0.7,0.3-1.2-0.7-1.8-0.8c0,0.6,0.3,0.9,0.8,1.1
		c-1.3,0.9-2.6,1.7-3.8,2.7c-2-0.4-3.6-1.5-5.4-2.5c-4.2-2.1-7.5-5.6-9.8-9.6c-0.4-0.9-1-1.7-1.2-2.7l0.9,0.4
		c0.1-0.1,0.2-0.4,0.3-0.6c-0.3-0.1-1-0.2-1.4-0.2l0-0.2c1.5-0.2,3.2,0.2,4.5-0.6c1.5-1.2,2.2-3.3,2.3-5.2c0.8-2.7,1.7-5.7,0.6-8.5
		c0.9,0.2,1.8,0.5,2.4,1.1c1.8,1.7,3.6,3.5,5.8,4.9c2.2,1.7,4.6,3,7.2,3.7c1.3,0.3,2.6,0.8,3.7,1.4c0.8,0.4,1.5,1.2,1.4,2.2
		c-0.2,0.8-0.8,1.6-1.6,2c-2.9,1.6-6.1,2.7-9.4,3c-1.3,0.1-2.6,0-3.8-0.4c-0.3-1.7-0.7-3.5-1.5-5.1c-1-2.1-2-4.3-3.9-5.8
		c1.5,1.8,2.7,3.8,3.5,6c0.7,1.6,1.3,3.4,1.4,5.2c-1.9,0.6-4-0.1-5.5-1.3c-0.4-0.4-1.1-0.6-1-1.2c1.5,0.1,2.9,0.7,4.3,1.2
		c-0.4-0.8-1.2-1-2-1.3c-2.3-0.7-4.8-0.5-7.1-1.1c0.1,0.2,0.3,0.4,0.4,0.7c1.4,0.3,2.9,0.2,4.3,0.6c0.5,1.2,1.7,1.8,2.8,2.5
		c1.2,0.6,2.8,0.9,4,0.1c1.1,0.6,1.8,1.5,2.4,2.5c1.3,1.9,2.5,3.8,4.1,5.4c0-0.3,0.1-0.6,0.1-0.9c0.9,0.6,2,0.5,3.1,0.7
		C123.4,78.1,123,78.3,122.6,78.4z M121.6,70c-0.1,0.6-0.1,1.1-0.2,1.7c-1.3-0.2-2.8-0.1-4-0.9c0.1-0.1,0.2-0.2,0.2-0.2
		C119,70.6,120.3,70.3,121.6,70z M124.5,77.4c-1.6-0.3-3.2-0.4-4.7-1c-1.6-1.7-2.7-3.8-4.2-5.6l-0.2-0.5c0.3,0.1,0.9,0.4,1.3,0.6
		l0.1,0.1c1.5,0.2,3.1,0.8,4.7,0.6c0.7,1.1,1.6,2.1,2.9,2.5c2,0.7,4.2,0,5.6-1.4c0.4-0.3,0.4-0.9,0.5-1.3c1.1-0.1,2.1-0.2,3.2-0.3
		c1.1,0,2.1,0.1,3.2,0.1c-0.6,0.7-1.2,1.3-1.7,2.2c-3-0.2-5.8,1.1-8.2,2.7C126.2,76.6,125.6,77.7,124.5,77.4z M138.4,79.5
		c0.2-0.5,0.4-0.9,0.4-1.5c-0.2,0.5-0.4,1-0.6,1.5c-1.6,0.2-3.2,0.4-4.8,1c-1.9,0.8-3.8,1.8-5.7,2.6c-2,0.7-4.1,1.3-6.3,1.2
		c1.4-2.9,3.3-5.6,5.8-7.7c1.6-1,3.3-1.8,5.1-2.3c0.9-0.2,1.9-0.6,2.8-0.3c0,1,0.5,1.9,1,2.7c1.1,0.8,2.5,1,3.8,0.9
		C139.7,78.3,139.6,79.9,138.4,79.5z M140.2,79.1c0-0.5,0.1-1,0.1-1.6c1,0,1.7-1.1,2.7-0.9c-0.2,0.4-0.5,0.7-0.8,1.1
		C141.4,78,140.9,78.7,140.2,79.1z M157.1,91.9c-1.1,3.2-2.2,6.5-3.9,9.4c-1.2,2.2-3.6,3.3-5.9,4c-1.6,0.5-3.4,0.7-4.9,0.1
		c-0.9-0.6-0.6-2.1,0.2-2.7c2.2-1.8,5.2-2.5,6.9-4.9c1.7-2.8,2-6.9-0.6-9.3c-2.4-2.3-5.7-4.1-6.7-7.5c0-2.6,1.2-4.9,2.3-7.2
		c1.9,1.2,3.2,3.3,3.5,5.5c0.1-0.1,0.2-0.2,0.2-0.2c-0.3-2.1-1.7-3.9-3.2-5.3c-2.4-2.5-4.2-5.4-5.9-8.3c-0.6-1.1-1.2-2.4-0.6-3.6
		c0.4-0.6,1.1-0.8,1.7-1.2c0.6,1.1,0.1,2.4,0.5,3.6c1.3,0.7,2.4,1.6,3.3,2.8c-0.1,0.2-0.2,0.5-0.3,0.7c0.8,2.4,2.5,4.1,4.2,5.9
		c2.3,2,4.7,4.1,6,6.9c1.8,4.1,1.8,8.9,0.1,13c-1.1,3.6-3.2,6.7-5.5,9.6c-0.9-0.2-1.7-0.4-2.6-0.4c0.8,0.2,1.7,0.4,2.6,0.7
		c1-0.2,2.1-0.4,3.1-0.9c-0.9,0.2-1.7,0.7-2.7,0.5c1.5-1.6,2.6-3.5,3.8-5.2c0.4-0.7,1-1.3,1.1-2.1c0.1,0,0.2-0.1,0.3-0.1
		c1.6-2.6,2.4-5.7,3-8.7c0.4-3.3,0-6.7-1.2-9.8c-0.4-0.9-1-1.5-1.4-2.4c1,0.3,2.1,0.5,3.2,0.8c0.9,1.8,1,3.9,1.3,5.9
		C159.3,85,158.2,88.5,157.1,91.9z M158.9,88.2c0.4-1.9,0.9-3.8,0.8-5.7c-0.1-1.7-0.3-3.3-0.6-4.9c-0.1-0.7-0.7-1.3-0.6-2
		c0.4,0.1,1.1,0.2,1.5,0.2c-0.3-0.3-0.6-0.7-1.1-0.6c-1.5-0.3-3-0.5-4.5-1c0.2-0.1,0.6-0.3,0.8-0.4c-1.6-0.6-3.1-1.4-4.6-2.1
		c0,0,0,0.1,0.1,0.1c-1.5-1.8-3.9-3-5-5.2c3,2.4,6.1,5,10,5.7c1,0.2,2.2,0.6,3-0.3c0.8,0.9,1.1,2,1.5,3.1c0,0.2-0.1,0.5-0.2,0.7
		l0.3,0.2c0.5,1.4,0.9,3,2.1,4c2.2,1.8,5.3,1.9,7.8,1c1.1-0.4,2.2-0.7,3-1.6c0.6-0.1,1.3,0.3,1.5,0.8c-0.1,0.8-0.5,1.6-1.1,2.2
		c-1.3,1.3-2.5,2.8-4,3.9c-2.1,1.6-3.9,3.7-4.8,6.2C163,90.9,161.3,89.1,158.9,88.2z M158.7,103.8c-0.8-0.8-1.5-1.6-2.4-2.3
		c0-0.1,0-0.2,0-0.3c0.9-0.1,1.8-0.2,2.7,0C158.6,102.1,158.7,103,158.7,103.8z M162.8,111.6c-2.2-0.6-4.7-0.5-6.6-2
		c1.6,0,3.2,0,4.7-0.4c0.6,0.7,1.3,1.2,1.9,1.8C162.8,111.1,162.8,111.4,162.8,111.6z M161.2,109c0.9-0.3,1.6-0.8,2.2-1.5
		c-1.3-0.3-2.3-1.2-3.2-2.1c-1.2-1-1.3-2.8-0.8-4.2c1.7,0.6,3.3,1.2,5,1.9c2.2-0.5,3.7-2.4,4.7-4.3c2,0.5,3.7,1.8,5.4,2.9
		c2.7,1.9,5.1,4.3,6.8,7.3c0.6,1.1,1,2.5,0.4,3.7c-0.9,1.5-2.6,2.1-4.2,2.4c-2.6,0.2-5.3-0.1-7.8-1.1
		C166.6,112.9,163.6,111.3,161.2,109z M208.4,140.7c-5.2-1.9-9.1-6.3-11.9-10.9c-1.4-2.1-2.4-4.5-3.4-6.9c-0.3-0.7-0.6-1.4-0.7-2.2
		c-0.1,0-0.2-0.1-0.2-0.2c1.5,4.9,3.8,9.5,7.1,13.4c2.3,3,5.4,5.7,9,6.8c-0.9,1.3-1.8,2.7-3.3,3.3c-1.9-1-3.5-2.4-5.4-3.4
		c1,1.5,2.8,2.1,4.2,3.2c-1,0-2-0.4-3-0.7c-1.5-0.8-3.1-1.6-4.2-3c-1.8-2.2-3.4-4.5-4.4-7c-1.3-3.3-2.7-6.6-3-10.2
		c0.3-0.3,0.6-0.7,1-0.9c1.2,6.9,4.3,13.7,9.3,18.8c-1.2-1.7-2.7-3.1-3.7-4.9c-2.8-4.3-4.7-9.2-5.5-14.2c0.7-1,1.8-1.9,2.8-2.6
		l0.3,0c0.5,3,2,5.7,3.4,8.3c1.5,2.8,3.5,5.4,5.8,7.5c2.1,1.8,4.6,3.1,7.2,4C209.4,139.6,208.9,140.2,208.4,140.7z M205.5,134.9
		c0.1,0,0.2,0,0.2,0c0,0.2,0,0.7,0,0.9c0.9,0.7,1.9,1.3,2.8,1.9c-0.7-0.2-1.3-0.6-1.9-0.9c-0.4-0.3-0.9-0.7-1.4-0.9
		C205.3,135.6,205.4,135.2,205.5,134.9z M218.4,109.4c0.8,1.9,0.1,3.9-0.9,5.5c-0.7,1.3-1.9,2.3-2.5,3.6c1.5-1.3,2.7-2.9,3.6-4.7
		c0.7,2.3,1,5-0.6,7c-1.8,1.9-4.2,3.1-6.5,4.3c-1.8,1-3.9,1.6-5.2,3.3c-1.1,2.2-1.5,4.7-1.8,7.1c-4.6-3.6-7.5-8.8-9.7-14.1
		c0.4-0.4,0.8-0.8,1.1-1.3c1-1.6,1.7-3.5,1.2-5.3c-0.3-1.5-1.2-2.9-0.7-4.5c0.7-2.1,2.7-3.5,3.5-5.6c0.5-1,0.4-2.1,0.4-3.2
		c-0.1-0.1-0.4-0.2-0.5-0.2c0.5,2.3-0.5,4.5-2.1,6.1c-1-0.5-1.9-1-2.9-1.3c0.3-1.1,0.3-2.3-0.5-3.3c-1.7-2.3-4.7-3.2-7.5-2.9
		c-1.3,0.2-2.7,0.6-3.5,1.7c-1,1-1,2.8-0.1,4c1.8,2.5,5.4,3.5,8.3,2.7c1.3-0.2,2.4-1.1,3.2-2.1c1,0.4,1.9,0.8,2.8,1.3
		c-0.7,0.9-1.5,1.8-1.7,3c-0.4,1.5,0.3,2.9,0.7,4.3c0.3,1.4,0,2.9-0.4,4.2c-1-0.1-2-0.8-3-0.4c-0.9,0.5-1.6,1.2-2.3,1.9
		c-0.8,0.9-1.8,1.7-1.9,3c-0.7-0.7-1.4-1.3-2.2-1.7c-3-1.7-6.1-3.4-9.3-4.6c-1.1-0.3-2.2-0.6-3.3-0.5c-0.1,0.1-0.2,0.2-0.2,0.3
		c4.6,0.6,8.6,3.2,12.7,5.3c0.8,0.5,1.7,1,2.4,1.7c0.8,4,2,8,3.9,11.6c1,1.9,2.4,3.4,3.5,5.1c-2-0.5-3.9-1.3-5.5-2.5
		c-1.7-1.3-3.6-2.1-5.4-3.1c-3.3-1.5-6.4-3.1-9.4-5.1c-3.9-2.3-7.8-5-10.4-8.8c-1.7-2.9-2.2-6.3-1.9-9.6c4.1,2.7,9,4.7,14,4.2
		c1.8-0.3,3.7-1,4.6-2.7c0.6-1.1,0.4-2.5-0.1-3.6c-1.9-3.9-5.3-6.8-8.9-9.1c-0.4-0.2-0.8-0.5-1.3-0.7c0.3,0,0.5-0.1,0.7-0.2
		c-0.1-0.1-0.3-0.2-0.4-0.3l-0.5,0c-0.9-0.2-1.8-0.3-2.6-0.5c0.1-0.4,0.2-0.9-0.2-1.3c-1.1-1.4-2.3-2.9-3.6-4.2
		c3.5-1.2,7.1-2.3,10.8-2.1c3,0.2,6.1,0.1,8.8,1.4c1.4,0.6,1.9,2.5,1.2,3.8c-0.5,1-1.4,1.7-2.4,2.1c-3.5,1.2-7.2,1.2-10.8,0.8
		l0.1,0.2c0.2,0.1,0.5,0.3,0.6,0.4c3.2,0.4,6.5,0.4,9.6-0.6c1.6-0.5,3.1-1.6,3.5-3.3c0.4-1,0.2-2.3-0.6-3.1c-0.8-0.8-1.9-1.3-3-1.3
		l0.3-0.3c2.9-0.3,5.9-0.6,8.9-0.5c0.4,0,0.5,0.5,0.7,0.7c1.7,2.8,3.6,5.4,5.6,8c0.5,0.5,0.8,1.2,0.6,1.9c0.2-0.1,0.4-0.2,0.6-0.4
		c1.9,2.4,4,4.6,5,7.5c-0.8,0.5-1.4,1.3-2,2.1c0.1,0,0.2,0,0.3,0c1.4-1.9,4-2.3,5.4-4.2c0.5-0.8,1.2-1.7,1.1-2.8
		c-0.1-1.9,0.6-3.9,1.8-5.4c0.5-0.5,1.2-0.8,1.9-1c0.1,0.5,0.2,1,0.2,1.5c0,1.8,0.6,3.4,1,5.1c0.3,1.3,1.1,2.6,1,3.9
		c-0.2,2-2.3,3-3.2,4.7c1.3-1.1,2.8-2.3,3.3-4c0.3-1.2-0.4-2.3-0.4-3.4C216.8,106.1,217.7,107.8,218.4,109.4z M194.3,105.6
		c-1,2-3.5,2.8-5.6,2.5c-2-0.1-3.9-1-5.2-2.5c-0.7-0.9-1-2.1-0.4-3.2c0.5-1,1.5-1.5,2.4-1.8c2.6-0.8,5.7-0.2,7.7,1.7
		C194.1,103.1,194.4,104.4,194.3,105.6z M234.3,95.7c-1.1,1.8-2.7,3.3-4.8,3.9c-3.1,0.8-6.5,1.1-9.4,2.6c-1.5,0.8-2.9,1.8-3.9,3.1
		c-0.4-0.4-0.8-0.8-1.1-1.3c-0.6-2.2-1.3-4.5-1.1-6.8c-0.8-1-2,0-2.9,0.4c0.6-2.2,2.1-4,3.3-5.8c1.8-2.3,3.8-4.6,5.8-6.8
		c2.5-2.6,4.6-5.7,5.9-9.1c2,1,3.7,2.6,5.1,4.4c1.8,3.3,3,7,3.1,10.8C234.4,92.7,234.4,94.2,234.3,95.7z"/>
	<path d="M101.9,33.3c-0.4-0.1-0.8-0.2-1.2-0.3c0.3,0.3,0.7,0.4,1.2,0.5L101.9,33.3z"/>
	<path d="M100.7,33C100.7,33,100.7,33,100.7,33C100.7,33,100.7,33,100.7,33C100.7,33,100.7,33,100.7,33z"/>
	<path d="M90.9,48.9c-0.2,0.5-0.3,1-0.5,1.4c0.4-0.3,0.8-0.7,1-1.2C91.3,49.1,91,49,90.9,48.9z"/>
	<path d="M210.7,77c0.9,0,1.5,0.8,1.1,1.6c0.2,0,0.5,0.1,0.7,0.2c-0.3-1.1-0.6-2.3-0.8-3.4c-0.1,0.2-0.2,0.6-0.3,0.8
		c0.1,0.2,0.2,0.5,0.2,0.7c-0.3,0-0.9-0.1-1.2-0.2c0.3-0.6,0.7-1.1,1.2-1.6c-0.1,0-0.4-0.1-0.5-0.1c-0.7,0.9-1.1,2-1.9,2.8
		c0.2,0,0.5,0.1,0.7,0.1C210.1,77.5,210.1,76.8,210.7,77z"/>
	<path d="M77.7,62.8c-0.3-0.8-1.2-1.5-2.1-1.3c-0.1,0.4-0.2,0.9-0.3,1.3c-0.7-0.2-1.5-0.4-2.2-0.3c0.6,0.2,0.9,0.8,0.4,1.2
		c0.5,0,1.1,0,1.2,0.6c0.2,0,0.5,0.1,0.7,0.2c-0.1-0.1-0.3-0.3-0.4-0.4c0.9-0.3,2.2-0.2,3.1,0.2c-0.2,0.5-0.4,1-0.6,1.5
		C78.3,65,78,63.8,77.7,62.8z M75.8,63.7c-0.6,0.2-2.2,0-1.7-0.9c1.1,0,2.5-0.2,3.5,0.5C77.7,64.3,76.4,63.9,75.8,63.7z M75.8,62.6
		c-0.5-0.3,0-0.9,0.4-0.9c0.8-0.3,1.3,0.8,1.5,1.4C77.1,62.9,76.4,62.8,75.8,62.6z"/>
	<path d="M89.8,25.5l-0.1-0.3c0.6-0.1,1.2-0.2,1.8-0.3c0.8-0.1,1.5-0.4,2.3-0.2c-0.1,0.9,0.1,1.9-0.3,2.8c0.2-0.4,0.4-0.8,0.6-1.2
		C94,25.5,94,24.7,94.3,24c-1.4,0.8-3.1,0.7-4.7,1.2c-0.7,0-1.5,0.1-2.2,0c-0.6-0.6-0.8-1.4-1-2.2c1.4-0.9,0.4-2.5,0.2-3.7
		c0-0.4,0.4-1,0.9-0.8c1.1,0.5,0.8,1.9,1.3,2.7c0.2,0.6,0.8,0.7,1.3,1c0.3-1.4-0.3-2.7-0.5-4.1l0.1-0.2c-0.9,0-1.9,0.5-2.7-0.1
		c0,0.1,0,0.3-0.1,0.4c-0.6,0-1.3-0.1-1.9-0.1c0.4,2.3,1.1,4.7,2,6.9C87.8,25.7,88.9,25.1,89.8,25.5z M89.5,18.2
		c0.1,1.3,0.7,2.5,0.5,3.9c-1.7-0.4-1.5-2.5-2.1-3.8C88.5,18.2,89,18.2,89.5,18.2z M85.4,18.3c0.3,0,1,0.1,1.3,0.1
		c-0.1,0.2-0.2,0.6-0.3,0.8c0.3,1.1,1.3,2.7,0,3.5c-0.5-1.3-0.9-2.8-1.2-4.2L85.4,18.3z"/>
	<path d="M90.7,26.3c0.1-0.1,0.3-0.2,0.4-0.2c0.3,0,1-0.2,0.6-0.5C91.2,25.2,90.1,25.8,90.7,26.3z"/>
	<path d="M104.1,63c-3.4,1.1-7,0.7-10.4,0.7c-1.2,0-2.6-0.1-3.7,0.4c3.8-0.6,7.7,0.2,11.5-0.3c1-0.2,2.1-0.2,2.9-0.9
		c1.2-1.6,1.6-3.6,2.2-5.5c0.6-2.1,0.6-4.6-1-6.3c-2.6-2.2-6.1-2.6-9.3-3.5l0,0.1c3.1,0.8,6.5,1.5,9.1,3.5c1.4,1.5,1.5,3.7,1.2,5.6
		C106,59,105.4,61.2,104.1,63z"/>
	<path d="M89.8,77.4c-0.5-0.2-1.2,0-1.6,0.3C88.7,78.2,89.4,77.8,89.8,77.4z"/>
	<path d="M90.7,90.4c0.5-0.9,0.9-1.8,1.3-2.8c0,0-0.1,0-0.1-0.1C91.5,88.5,91,89.4,90.7,90.4z"/>
	<path d="M110.9,36.2c0.8-0.2,1.5-0.9,1.5-1.8c-0.1-1.3-0.8-2.4-1.3-3.6c-0.4-0.1-0.7-0.2-1.1-0.3c0.3,0.2,0.6,0.3,1,0.4
		c0.6,1.2,1.3,2.4,1.4,3.7c-0.2,1.1-1.4,1.4-2.3,1.6c-1.1,0.3-2.2,0.2-3.3,0C108,36.8,109.5,36.6,110.9,36.2z"/>
	<path d="M97.2,87.2c0.2-1.1,0.4-2.1,0.5-3.2C97.2,85,97.1,86.1,97.2,87.2z"/>
	<path d="M98.8,87.1c0.4-0.3,1,0.1,0.9,0.6c0.3,0.1,0.5,0.1,0.8,0.2c0.5-0.6,0.9-1.5,0.3-2.2c-0.2,0-0.5,0-0.7,0
		c0,0.6-0.2,0.8-0.7,0.8c0-0.2,0-0.7,0-0.9c-0.1-0.3-0.3-0.6-0.4-0.9c-1.1,0.1-1.1,1.4-0.9,2.2C98.3,87,98.6,87.1,98.8,87.1z
		 M101,86c0,0.6-0.2,2.2-1.2,1.4C99.7,86.6,100.2,86,101,86z M98.5,85.1c1.1-0.4,0.9,1.4,0.2,1.8C97.8,86.8,98.2,85.7,98.5,85.1z"/>
	<path d="M126.3,72.2c-0.8,0.2-2.2-0.3-1.8-1.3c-0.2,0.1-0.3,0.3-0.5,0.4c0.1,0.2,0.2,0.6,0.2,0.8c0.6,0.2,1.1,0.3,1.7,0.5
		c0.1-0.1,0.4-0.3,0.5-0.4c0-0.2,0.1-0.5,0.1-0.7c-0.1-0.4-0.2-0.9-0.3-1.3c0.7-0.2,1.3,0.1,1.8,0.5c0,0.6,0,1.1,0,1.7
		c0.1-0.5,0.3-1,0.4-1.4c-0.4-0.7-1.3-1.2-2.1-0.9C125.8,70.7,126.5,71.5,126.3,72.2z"/>
	<path d="M145.9,95.1c1.1-1.7,0.8-3.9,0.1-5.6c-0.4-1-1.3-1.7-1.7-2.7c1.5,0.7,2.4,2.1,3.4,3.2c-0.6-1.2-1.6-2.2-2.7-3
		c-1.5-0.6-2.8-1.9-4.5-2c-0.1,0.1-0.3,0.2-0.5,0.3c-6,0.2-12,2.9-15.9,7.5c-1.4,1.5-2.1,3.5-2.7,5.4c-0.7-0.3-1.4-0.7-2.2-1
		c0.2,0.7,1,1,1.6,1.3c4.4,2,9.5,2.3,14.2,1.5c2.7-0.3,5.2-1.2,7.6-2.6C143.9,96.8,145.1,96.1,145.9,95.1z M140.5,85.5
		c3.8,0.8,6.7,5.3,5.3,9c-0.1-0.3-0.1-0.6-0.1-1c0.3-3.3-2.1-6.7-5.2-7.6L140.5,85.5z M132,99.8c-3.4,0.2-6.9-0.5-10.1-1.5
		c0.6-3.4,3.2-6.1,5.8-8.2c3.3-2.3,7.1-3.9,11.1-4.4c3.8,0.5,6.8,4.2,6.6,8c0,0.6,0.2,1.4-0.4,1.8C141.2,98.1,136.6,99.7,132,99.8z"
		/>
	<path d="M127,81.4l-0.2,0.2c0.1,0.1,0.2,0.3,0.3,0.4c0.1-0.1,0.4-0.2,0.5-0.3l0-0.2C127.4,81.5,127.2,81.4,127,81.4z"/>
	<path d="M128.5,80.7c0.1,0.7,1.2,0.3,1-0.3C129.2,80.1,128.6,80.3,128.5,80.7z"/>
	<path d="M130.5,79.8c0.2,0,0.5,0,0.7,0.1c0.1-0.2,0.2-0.5,0.2-0.6c-0.2,0-0.5-0.1-0.7-0.1C130.7,79.3,130.6,79.7,130.5,79.8z"/>
	<path d="M132.6,78.5c0.1,0.1,0.2,0.4,0.3,0.5l0.3-0.1c0-0.1,0.1-0.4,0.1-0.5c-0.1,0-0.4-0.1-0.5-0.1L132.6,78.5z"/>
	<path d="M134.7,78c0.2,0.4,0.9,0.2,0.7-0.3C135.2,77.4,134.5,77.6,134.7,78z"/>
	<path d="M138.2,86.2c0.7,0.8,1.6,1.5,2.2,2.4c1.2,1.7,1.8,3.8,2.1,5.8c0.1,0,0.2,0.1,0.3,0.1c-0.5-2.2-1-4.5-2.4-6.3
		C139.8,87.5,139.3,86.5,138.2,86.2z"/>
	<path d="M145.9,57.3c0.5,0.1,1,0.2,1.4,0.2c0.2-0.4,0.1-0.8-0.2-1.2c0.2-0.5,0.4-1,0.6-1.5c-0.5,0.6-0.5,1.5-1.1,1.9
		c0.2,0.1,0.6,0.3,0.7,0.4C146.9,57.2,146.4,57.3,145.9,57.3z"/>
	<path d="M138.3,95.9c0.4,0,1.1-0.2,1.1-0.7C139,94.8,137.8,95.4,138.3,95.9z"/>
	<path d="M140.9,103c-0.1-0.3-0.1-0.6-0.2-0.8c-0.4-0.3-0.8-0.6-1.3-0.8c0.2,0.1,0.6,0.4,0.8,0.5c0,0.1-0.1,0.3-0.2,0.4
		c0.2,0.1,0.5,0.2,0.7,0.2c-0.4,0.7-1.4,0.5-2.1,0.5c0.2-0.2,0.6-0.6,0.8-0.7c-0.4-0.1-0.7,0-0.9,0.3c-0.6-0.3-1.2,0-1.8,0.2
		c0.2,0,0.6,0,0.8,0l-0.2,0.5C138.7,103.7,139.8,102.9,140.9,103z M138.8,102.8c0.1,0.5-0.6,0.6-0.9,0.3
		C137.8,102.6,138.6,102.5,138.8,102.8z"/>
	<path d="M159.9,96.6c-0.4-0.3-0.7-0.6-1-1c0.2,0.4,0.2,0.9,0.3,1.4l0.2-0.5L159.9,96.6z"/>
	<path d="M160.4,97.9c0.4,0.7,1.2,1.2,2,1.4C161.8,98.9,161.2,98.4,160.4,97.9z"/>
	<path d="M171.7,72.3c0-0.7,0.1-1.4,0.4-2c0.3,0.6,0.7,1.2,1.1,1.8c0.1-1,0.2-2,0.2-3.1c0,0-0.1,0-0.1,0c0,0.7,0,1.4-0.1,2.1
		c-0.9-0.4-0.7-1.5-1.4-2c0.1,0.2,0.2,0.5,0.3,0.7C172,70.6,171.4,71.4,171.7,72.3z"/>
	<path d="M177.5,67.4c0,2.2,0,4.5-0.7,6.6c-0.3,0.5-0.8,0.7-1.2,1.1l-0.2,0l0.2,0.1c0,0.4-0.1,0.8-0.1,1.3c0.4,0.9,1.2,1.6,2.3,1.6
		c1.1,0.4,2-0.9,1.9-1.8c0-0.9-0.7-1.5-1.2-2.1c0.3-0.1,0.5-0.1,0.8-0.2l-0.5-0.2c1.1-1.9,0.9-4.2,0.6-6.3c0.1,2.1,0.3,4.2-0.6,6.1
		c-0.3,0.9-1.3,0.5-2,0.5C177.6,71.9,177.7,69.6,177.5,67.4c0.6-0.2,1.1-0.2,1.7-0.3c0.6-0.6,1.2-1.2,1.2-2.1
		c-0.2-0.4-0.1-0.9,0.4-1c-0.5-1.3-1.3-2.5-1.9-3.8c-0.1,0-0.2,0.1-0.2,0.1c0.6,0.8,1.5,1.8,1.3,2.9c-1-0.1-1.9-0.9-3-0.5
		c-1.1,0.2-2.3,1.3-1.8,2.5C175.3,66.5,176.6,66.9,177.5,67.4z M176.9,74.2c0.5,0.1,1,0.1,1.6,0.1c0.6,0.6,1.3,1.2,1.1,2.2
		c0.1,0.7-0.5,1.1-0.9,1.6c-0.9-0.1-2-0.1-2.6-0.9c-0.5-0.6-0.4-1.4-0.4-2.1C176.2,74.8,176.6,74.5,176.9,74.2z M177.7,62.7
		c0.8,0.1,1.5,0.5,2.2,0.8c0,0.5,0.1,1,0.3,1.5c0.2,0.8-0.5,1.5-1.1,1.9c-1.5,0.7-3.8-0.3-3.8-2.1C175.3,63.5,176.6,62.8,177.7,62.7
		z"/>
	<path d="M175.5,73.5c-0.3-0.1-0.8-0.3-1-0.4c-0.2-0.6,0-1.2,0.2-1.8c0.3,0.1,0.8,0.2,1,0.3c-0.2-0.1-0.6-0.3-0.8-0.3
		c0.1-0.6,0.2-1.1,0.3-1.7c0.4,0.1,0.7,0.2,1.1,0.3c-0.2-0.2-0.4-0.5-0.6-0.8l0.1,0.6c-0.2-0.1-0.6-0.2-0.8-0.3
		c-0.2,1.2-0.9,2.2-0.9,3.4C174.4,73.4,175,73.5,175.5,73.5z"/>
	<path d="M181.5,66.3c-0.1-0.5-0.3-1-0.4-1.4c0.1,0.8,0.4,1.6,0.5,2.5C181.5,67,181.5,66.7,181.5,66.3z"/>
	<path d="M190.6,102.6c-1.6-0.5-3-1.5-4.7-1.4c0.5,0.2,1,0.5,1.4,0.7c-0.1,0.3-0.1,1.1-0.6,1c-0.5,0-1-0.1-1.5-0.2
		c0.6,0.3,1.2,0.5,1.8,0.9c0.3,1.1-1.1,1-1.8,0.8c0,0.1,0,0.2,0,0.2c0.6,0.2,1.7,0.1,1.7,1.1c-0.1,0.7-0.9,0.8-1.4,1.2
		c1.4,0.2,2.8-0.1,4.2-0.2c0.4-0.3,0.8-0.6,1.3-0.7c0.2-0.8,0.3-1.6,0.4-2.5C191.1,103.2,190.8,102.9,190.6,102.6z M191,105.8
		c-0.6-0.3-0.8,0.1-1.1,0.5c-1,0-2,0.1-3,0.2c0.4-0.6,0.4-1.2,0-1.8c-0.3-0.4,0.3-0.6,0.4-0.9c-0.1-0.2-0.4-0.5-0.5-0.7
		c0.2-0.3,0.6-0.8,0.7-1l0,0.2c0-0.2,0-0.5,0-0.7c0.9,0.6,1.9,0.9,2.9,1.1c0.1,0.3,0.1,0.6,0,0.8c-0.1,0.5-0.2,1-0.2,1.5
		c0.2-0.6,0.4-1.2,0.6-1.8C191.6,104,191,105,191,105.8z"/>
	<path d="M196.1,89.8c-0.4-0.4-0.6-0.8-0.8-1.3c0.2-0.1,0.7-0.4,0.9-0.5c0.5,0.3,1,0.7,1.4,1c0.3-0.2,0.5-0.4,0.8-0.6
		c-0.2,0-0.5,0.1-0.6,0.1c-1.2-0.7-2.4-1.6-3.7-2.3c0.1,1.5,1.2,2.7,1.5,4.2C195.8,90.2,196,90,196.1,89.8z M194.8,87.5
		c-0.2-0.8,1.1-0.1,0.9,0.4C195.4,88.4,194.9,87.8,194.8,87.5z"/>
	<path d="M199.4,78.5c0.5,0.6,0,1.4,0,2.1c0.3-0.1,0.5-0.2,0.8-0.2c-0.1-0.2-0.3-0.5-0.5-0.6c0.3-0.8,1.3-0.7,2-0.7
		c0,0.2-0.1,0.5-0.1,0.7c0.2,0,0.5-0.1,0.8-0.1c-0.7-1-1.6-1.9-2.5-2.7c-0.1,0.3-0.3,1-0.5,1.3c0.1,0.1,0.4,0.2,0.5,0.3
		c-0.3-1.7,0.8-0.4,1,0.1C200.6,79.4,199.8,78.7,199.4,78.5z"/>
	<path d="M212.5,119.6c0-1.2-0.5-2.3-0.9-3.3c-0.9-0.8-2.1-1.4-3.3-1.5c-0.7-0.5-1.4-0.9-2.2-1c-0.3,0.1-0.7,0.2-1,0.4
		c-1,0.8-0.7,2.2-1.1,3.3c-0.2,0-0.5,0-0.7,0c-0.2-0.5-0.4-0.9-0.7-1.4c0,0.2,0,0.4,0,0.7c0,0.2,0,0.5,0,0.6
		c0.4,0.1,0.9,0.3,1.3,0.4c0.3,0.7,0.6,1.5,0.2,2.3c-1.4,0.4-1.8-1.7-1.5-2.7c-0.1,0-0.3,0-0.4-0.1c-0.5,0.8,0.1,1.7,0.3,2.4
		c0.2,0.5,0.7,0.5,1.1,0.8c0.2-0.2,0.4-0.4,0.6-0.6c0.1-0.3,0.2-0.8,0.2-1c0.3,0.1,0.8,0.2,1.1,0.3c0,0.2,0.1,0.7,0.1,0.9
		c-0.3,0.2-1,0.1-0.9,0.7c-0.3,1,0.9,1.2,1.5,1.7c0,0.9,0,1.9-0.1,2.8c-0.8-0.3-1.1-1.2-1.9-1.5c0-0.2,0-0.5,0-0.7
		c-0.1-0.1-0.3-0.3-0.3-0.4c-0.4,0-0.8,0-1.2-0.1c0-0.2,0-0.5,0-0.7c-0.1,0.2-0.2,0.5-0.2,0.7c0.5,0.2,1.1,0.3,1.6,0.5
		c0,0.2,0,0.7-0.1,0.9c0.6,0.3,1,0.7,1.3,1.2c0.6,0.3,1.2,0.5,1.9,0.7c0.4-0.1,0.9-0.2,1.3-0.2c-0.5-0.9-0.9-1.8-0.9-2.8
		c0.2,0,0.6,0,0.8,0c-0.4-0.2-1.7-0.6-0.9-1.1c1.2,0.3,2.4,0.5,3.6,0.1C211.9,121.4,212.3,120.6,212.5,119.6c0.5,0.5,1,0.9,1.2,1.5
		c-0.4,0.6-0.5,1.6-1.3,1.9c-1.3,0.2-2.5-0.2-3.8-0.3c1,0.3,2.1,0.5,3.2,0.6c1,0.1,1.7-0.8,2-1.7C214,120.7,213.4,119.9,212.5,119.6
		z M205.3,119.1c-0.6-0.3-1-0.8-1.3-1.4c0.7-1,0.2-2.5,1.1-3.3c0.7-0.8,2-0.3,2.7,0.3c-0.4,0.7-1.5,0.7-1.9,1.5
		C205.1,117,205.9,118.3,205.3,119.1z M205.8,122c-0.4-0.4-1.3-0.9-0.7-1.4c0.8,0.1,1.5,1,2,1.6C207,123,206.2,122.3,205.8,122z
		 M207.7,123l-0.3,0.2l-0.2,0.1c0.1,0,0.3,0.1,0.4,0.1c0.1,0.5,0.2,0.9,0.3,1.3c0.2,0.3,0.3,0.7,0.5,1c-0.7,0-1.4-0.1-2-0.2
		c0.4-1-0.4-2.7,1-3L207.7,123z M212,120.8c-1,1.7-3.2,1.1-4.7,0.9c-1,0,0-0.7,0.3-0.9c-0.3,0.1-0.7,0.3-1,0.4
		c-0.4-0.1-0.6-0.5-0.9-0.8c0.4-1.2-0.3-2.4,0.1-3.6c0.3-0.9,1.2-1.2,2-1.6c0.2,0,0.5-0.1,0.7-0.2c1,0.2,1.9,0.6,2.7,1.1
		C212.1,117.5,212.5,119.3,212,120.8z"/>
	<path d="M202.8,121.7c0,0.1,0,0.1,0,0.2C202.8,121.9,202.8,121.8,202.8,121.7L202.8,121.7z"/>
	<path d="M204.2,121.5c-0.6-0.2-1.2-0.3-1.7-0.5c0,0.2-0.1,0.4-0.1,0.6l0.4,0.1c0-0.2,0-0.3,0-0.4
		C203.2,121.6,203.7,121.5,204.2,121.5z"/>
	<path d="M219,78.9c1.4,0.2,2.3,1.2,3.5,1.8c-1.7-1.4-3.7-2.3-5.6-3.2c-0.6,0.9-1,1.9-1.7,2.7c-1.2,1.4-2.2,3.1-3.2,4.7
		c-0.5,0.8-1,1.7-1.2,2.6c1.2-2.8,2.9-5.3,4.7-7.7c0.5-0.7,0.9-1.4,1.2-2.2c0.7,0.2,1.4,0.6,2.1,1c-0.5,1.4-1.3,2.7-2.1,3.9
		c-1.2,1.3-2.2,2.7-3.4,4c-1.9,2.1-3.2,4.8-3.9,7.5c0.4-1.1,0.9-2.2,1.3-3.3C212.9,86.4,217.5,83.6,219,78.9z"/>
	<path d="M209.2,117.2c-0.9,0.2-1.3,1.2-0.6,1.9c0.4,0.2,1,0.3,0.7,0.9c-0.4,0.4-0.9,0.4-1.4,0.4c0-0.5-0.3-0.9-0.6-1.3
		c0.1,0.4,0.2,0.8,0.1,1.2c0.7,0.5,1.5,0.4,2.2,0c0.7-1.3-1.9-1.3-1.2-2.5c0.4-0.3,1-0.7,1.5-0.2c0.6,0.5,1,1.3,1.4,2
		C211,118.5,210.4,117.1,209.2,117.2z"/>
	<path d="M226.8,80.1c-0.6,0.9-1.5,1.5-2.4,2.2c-0.2,0-0.7,0-0.9,0c0.2,0.3,0.4,0.5,0.6,0.8c0.3-0.3,0.6-0.7,1.1-0.9
		c0.4,0.2,0.7,0.5,1,0.8c-0.1,0.5-1.2,1.3-0.3,1.7c0.6-1.1,1.1-2.3,1.4-3.6l0.5,0.2C227.6,80.8,227.1,80.5,226.8,80.1z M226.3,82.5
		c-0.2-0.2-1.1-0.4-0.7-0.8c0.3-0.4,0.8-0.6,1.2-0.8C226.7,81.4,226.5,82,226.3,82.5z"/>
	<path d="M84.6,28c0.7,0,1.4-0.1,2-0.5C86,27.4,84.9,27.2,84.6,28z"/>
	<path d="M84.5,32.8c0.8-0.1,1.8,0.1,2.4-0.5C86.1,32.2,85.1,32.1,84.5,32.8z"/>
	<path d="M88,29.9c-0.3-0.3-1-0.2-1.1,0.2C87.1,30.5,88,30.5,88,29.9z"/>
	<path d="M90.4,17.9c0,0,0.1,0,0.2,0L90.4,17.9z"/>
	<path d="M92.1,17.6L92.1,17.6C92.1,17.6,92.2,17.6,92.1,17.6L92.1,17.6z"/>
	<path d="M93.7,20.2c-0.2-0.8-0.3-1.6-0.7-2.3c-0.1,0.6,0,1.2,0.1,1.8C93.3,19.8,93.5,20.1,93.7,20.2z"/>
	<path d="M87.9,77.9c-0.1,0-0.4,0-0.6-0.1C87.5,78.2,87.6,78.3,87.9,77.9z"/>
	<path d="M94,81.8c-0.4-0.2-0.6-0.1-0.6,0.3C93.8,82.4,94,82.2,94,81.8z"/>
	<path d="M92.8,95c-0.2-0.3-0.9-0.6-1.1-0.1C91.9,95.2,92.7,95.4,92.8,95z"/>
	<path d="M98.1,88.4c0.2,0.3,0.9,0.1,0.8-0.3C98.7,87.7,98,88,98.1,88.4z"/>
	<path d="M99.4,88.5c-0.1,0.5,0.8,0.9,1.2,0.8C100.7,88.8,99.8,88.4,99.4,88.5z"/>
	<path d="M115.6,88.8c0.2,0.2,0.4,0.4,0.6,0.6c3-0.1,6.2-0.6,8.7-2.5c-0.5,0.1-1,0.3-1.5,0.5C121,88.6,118.2,88.9,115.6,88.8z"/>
	<path d="M210.4,81.1c-0.1,0.2-0.3,0.6-0.5,0.9c0.3,0.2,0.6,0.3,1,0.3c-0.1-0.4-0.2-0.8-0.3-1.2c0.2,0.1,0.7,0.2,1,0.3
		c0.8-0.4,0.5-1.3-0.2-1.6c0-0.2,0-0.6-0.1-0.8c-0.3-0.1-0.6-0.1-0.9-0.2c-0.1,0.2-0.3,0.6-0.4,0.8c-0.3,0.1-0.6,0.3-0.9,0.4
		c0,0.2,0,0.7,0,0.9C209.6,80.9,210,81,210.4,81.1z"/>
	<path d="M124.9,83.4c0.4,0.1,0.8-0.3,0.8-0.7C125.3,82.4,124.4,83.1,124.9,83.4z"/>
	<path d="M128.7,98c0.6-0.2,1.1-0.5,1.7-0.8C129.8,97.3,128.8,97.2,128.7,98z"/>
	<path d="M131.9,97.2c0.3,0.3,1.2,0.1,1.2-0.4C132.8,96.4,131.8,96.6,131.9,97.2z"/>
	<path d="M176.3,65.7c0.4,0.2,0.8,0.5,1.2,0.8c0.2-0.1,0.4-0.1,0.7-0.2c-0.2-0.7-0.2-1.5-0.1-2.2c0,0.3-0.1,0.8-0.2,1.1
		c-0.2,0-0.7-0.1-0.9-0.1c0.2-0.3,0.5-0.8,0.6-1l-0.3,0.3c-0.3-0.3-0.7-0.4-1.1-0.2c0.3,0.1,0.8,0.2,1,0.3
		C176.9,64.9,176.5,65.2,176.3,65.7z M177.8,65.8c-0.2,0.4-0.9,0.2-1.1-0.1C176.7,65.2,177.8,65.2,177.8,65.8z"/>
	<path d="M197.1,92.5c0.5,0.6,1.1,0.2,1.7,0.1c0,0.2,0,0.7,0,0.9c0.2-0.1,0.4-0.2,0.7-0.3c-0.1-0.2-0.4-0.6-0.6-0.8
		c0.9-0.2,1.2-1.2,0.5-1.8c-0.7-0.2-1.4-0.3-2.1-0.5C197.1,90.8,196.8,91.7,197.1,92.5z"/>
	<path d="M138.5,68.8c-1.6-0.2-3.1-0.7-4.7-0.6c1.3,0.7,2.9,0.6,4.4,0.8L138.5,68.8z"/>
	<path d="M126.5,98.5c0.5,0.3,0.7,0.2,0.7-0.4C126.7,97.9,126.5,98,126.5,98.5z"/>
	<path d="M139.1,72.8c-0.6,0-1.3-0.1-1.7,0.4c1.2,0.3,2.4,0.4,3.6,0.5C140.7,72.9,139.8,72.8,139.1,72.8z"/>
	<path d="M138.5,72.5c0.9,0.1,1.8,0.1,2.7,0.2c-0.8-0.3-1.5-0.7-2.4-0.8C138.7,72,138.6,72.3,138.5,72.5z"/>
	<path d="M135.3,96.5c0.5,0.3,0.7,0.2,0.7-0.4C135.5,95.8,135.3,96,135.3,96.5z"/>
	<path d="M149.1,79.1c0,0.4,0.3,0.8,0.7,0.8C150.2,79.5,149.4,78.6,149.1,79.1z"/>
	<path d="M155.5,60.1c0-0.4-0.7-0.8-1.2-0.8C154.2,59.9,155.1,60.3,155.5,60.1z"/>
	<path d="M151.5,82.5c-0.2-0.6-0.3-1.3-1-1.6C150.5,81.5,150.6,82.5,151.5,82.5z"/>
	<path d="M157.3,61.2c0.2-0.5-1-1.1-1.2-0.7C156.3,60.9,156.8,61.2,157.3,61.2z"/>
	<path d="M157.5,62.7c-0.5-0.4-1.3,0.2-1.3,0.8C156.6,63.6,157.4,63.2,157.5,62.7z"/>
	<path d="M152.2,84.4c0.1-0.5-0.7-0.6-0.6,0C151.5,84.9,152.3,85,152.2,84.4z"/>
	<path d="M152.1,87.5c0.4,0.5,0.8-0.3,0.5-0.6C152.3,86.4,151.8,87.2,152.1,87.5z"/>
	<path d="M158.5,74.6c-0.8-0.7-1.9-0.7-2.9-0.8C156.3,74.6,157.5,74.5,158.5,74.6z"/>
	<path d="M167.1,70.2c-0.2,0.6-0.4,1.1-0.6,1.6c0.4-0.3,0.7-0.7,1-1.1l0-0.2c-0.1-0.7-0.5-1.3-1.1-1.7c-0.7-0.5-0.7-1.3-0.9-2
		c0,0.6-0.3,1.3,0,1.8C166.1,69.2,166.7,69.6,167.1,70.2z"/>
	<path d="M201.1,81.1c-0.8-0.1-1.2,0.5-0.9,1.2c0.6,0.4,1.3,0.7,2.1,1c0.2-0.6,0.4-1.3,0.5-2C202.4,80.7,201.7,80.5,201.1,81.1z"/>
	<path d="M222,84.5c0.5,1.1,0,2.2-0.5,3.3c0.6-0.8,1.6-1.3,2.6-1.1c-0.2-1.1,0.3-2.1,0.8-3C224,84.1,223.1,84.9,222,84.5z"/>
	<path d="M25,133.2h14.7l-8-8H25v-6.7l-8-8v14.7h-6v-21.1h-1v22.1h7v2.7h-4.7v-0.8h-2.2v2.2h2.2v-0.8H17v2.7h-6.9v1H17v6.9h1v-6.9
		h2.7v4.7h-0.8v2.2h2.2v-2.2h-0.8v-4.7H24v7h22.1v-1H25V133.2z M25,126.2h6.3l2.7,2.7h-9V126.2z M25,129.5h9.5l2.7,2.7H25V129.5z
		 M20.7,132.2H18v-2.7h2.7V132.2z M20.7,128.9H18v-2.7h2.7V128.9z M20.7,125.2H18V113l2.7,2.7V125.2z M24,132.2h-2.7v-2.7H24V132.2z
		 M24,128.9h-2.7v-2.7H24V128.9z M24,125.2h-2.7v-9l2.7,2.7V125.2z"/>
	<path d="M214.5,17h-14.7l8,8h6.7v6.7l8,8V25h6v21.1h1V24h-7v-2.7h4.7v0.8h2.2v-2.2h-2.2v0.8h-4.7V18h6.9v-1h-6.9v-6.9h-1V17h-2.7
		v-4.7h0.8v-2.2h-2.2v2.2h0.8V17h-2.7v-7h-22.1v1h21.1V17z M214.5,24h-6.3l-2.7-2.7h9V24z M214.5,20.7H205l-2.7-2.7h12.2V20.7z
		 M218.8,18h2.7v2.7h-2.7V18z M218.8,21.3h2.7V24h-2.7V21.3z M218.8,25h2.7v12.2l-2.7-2.7V25z M215.5,18h2.7v2.7h-2.7V18z
		 M215.5,21.3h2.7V24h-2.7V21.3z M215.5,25h2.7v9l-2.7-2.7V25z"/>
</g>
</svg>
