<?xml version="1.0" encoding="utf-8"?>
<!-- Generator: Adobe Illustrator 24.0.2, SVG Export Plug-In . SVG Version: 6.00 Build 0)  -->
<svg version="1.1" id="Слой_1" xmlns="http://www.w3.org/2000/svg" xmlns:xlink="http://www.w3.org/1999/xlink" x="0px" y="0px"
	 viewBox="0 0 238.1 150.2" style="enable-background:new 0 0 238.1 150.2;" xml:space="preserve">
<g>
	<path d="M125.1,92.5c-0.5,0-0.6-0.3-0.8-0.6c-0.7-1-1.5-2-2.2-3c-0.2-0.2-0.3-0.4-0.5-0.6c0,0-0.1,0-0.1,0.1
		c0.1,0.2,0.2,0.4,0.3,0.6c1.3,2.1,2.7,4.3,4,6.4c0.5,0.8,0.9,1.7,1.4,2.6c0.1,0.2,0.3,0.4,0,0.7c-1.3-1.6-2.3-3.3-3.6-4.9
		c0.1,0.1,0.1,0.3,0.2,0.4c1.3,2.1,2.6,4.3,3.9,6.4c0.2,0.3,0.5,0.6,0.4,1.2c-1.2-1.1-1.9-2.5-2.9-3.7c1.5,2.6,3,5.2,4.6,7.9
		c0.3-0.2,0.5-0.3,0.7-0.4c0.9-0.6,1.8-1.3,2.8-1.9c0.2-0.2,0.5-0.3,0.7-0.4c0.2,0.3,0,0.4-0.1,0.6c-1.3,1.1-2.5,2.1-3.8,3.2
		c-0.5,0.4-0.6,0.4-1-0.2c-0.4-0.5-0.7-1.1-1-1.6c-3.4-5.6-7.1-11-11.1-16.2c-1.8-2.3-3.5-4.5-5.3-6.7c-0.5-0.6-0.5-0.7-0.1-1.4
		c0.6-0.9,1.2-1.8,1.8-2.7c0.2-0.4,0.3-0.7,0.3-1.2c-0.2-1.2-0.4-2.4-0.6-3.6c-0.1-0.3-0.3-0.7-0.5-1c-0.5-0.7-1.1-1.4-1.7-2.2
		c-0.2-0.2-0.2-0.5-0.4-0.8c0.4,0,0.6-0.1,0.9-0.1c1.3,0.1,2.5,0.2,3.7,0.4c0.3,0,0.6,0.2,1.1,0.3c0.7-0.3,1.6-0.7,2.4-1.1
		c0.9-0.5,1.9-0.6,2.9-0.5c1.3,0.2,2.5,0.4,3.8,0.5c0.1,0,0.2,0,0.3,0c-1-0.4-2-0.7-3.1-0.8c-0.5-0.1-1-0.2-1.4-0.2
		c-0.1-0.7,0.5-0.9,0.7-1.4c-0.2,0-0.4-0.1-0.8-0.1c0.2-0.2,0.4-0.3,0.5-0.4c0.3-0.2,0.7-0.3,1-0.5c0.2-0.1,0.4-0.3,0.6-0.5
		c0.5-0.4,0.9-0.8,1.4-1.2c0.2-0.2,0.5-0.3,0.3-0.6c0-0.1,0.1-0.2,0.2-0.3c0.2-0.4,0.5-0.8,0.8-1.2c0.4-0.7,0.6-1.4,0.6-2.2
		c0-0.4,0-0.7,0-1.1c0-0.3,0.1-0.5,0.2-0.8c0.2-0.3,0.5-0.5,0.9-0.5c0.3,0.1,0.4,0.4,0.5,0.6c0.8,2.2,1.6,4.3,2.7,6.3
		c0.1,0.2,0.1,0.4,0.2,0.7c-0.2,0-0.3,0-0.4,0c0,0.1,0,0.2,0,0.3c0.1,0,0.1,0.1,0.2,0.1c1,0,2-0.2,3-0.2c1,0,2-0.1,3.1-0.2
		c0.5-0.1,0.8,0,1.1,0.5c0.3,0.6,0.7,1.2,1.1,1.8c0.1,0.2,0.2,0.4,0.2,0.5c-0.7,0.2-1.6-0.1-2-0.7c-0.1-0.2-0.2-0.4-0.3-0.5
		c-0.2-0.2-0.3-0.4-0.7-0.4c0,0.2,0,0.5,0,0.8c-0.4,0-0.7-0.1-1-0.1c0,0,0,0,0,0.1c0.6,0.2,1.3,0.5,1.9,0.7c1.5,0.5,3.1,1,4.6,1.4
		c0.6,0.2,1,0.5,1.4,0.9c0.3,0.5,0.7,0.9,1,1.3c0.8,0.8,1,1.8,1.1,2.9c0.1,1.2,0.2,2.4,0.3,3.5c0.1,0.6,0.1,0.6,0.7,0.6
		c0.6,0,1.3,0,2,0c0.1-0.4,0.2-0.8,0.2-1.2c0.1-1.1,0.3-2.2,0.3-3.3c0-0.9,0.4-1.7,0.9-2.4c0.4-0.5,0.8-1.1,1.3-1.6
		c0.3-0.4,0.7-0.6,1.1-0.7c2-0.6,4-1.3,6-1.9c0.1,0,0.2-0.1,0.3-0.2c-0.2,0-0.4-0.1-0.6-0.1c0-0.2-0.1-0.5-0.1-0.7
		c-0.4-0.1-0.6,0.2-0.8,0.5c-0.3,0.8-0.9,1-1.6,1.1c-0.4,0.1-0.5-0.1-0.4-0.5c0.4-0.7,0.8-1.5,1.3-2.2c0.1-0.2,0.4-0.2,0.7-0.2
		c0.5,0,0.9,0,1.4,0c1,0,2,0,2.9,0.1c0.2,0,0.5-0.1,0.5,0.4c0.5-0.3,0.9-0.3,1.4-0.1c0.1-0.1,0.1-0.2,0.2-0.3
		c-0.2,0-0.3-0.1-0.4-0.1c0-0.1-0.1-0.1,0-0.2c0.1-0.3,0.2-0.5,0.3-0.8c0.9-1.9,1.9-3.8,2.5-5.8c0-0.1,0.1-0.2,0.1-0.3
		c0.2-0.5,0.3-0.6,0.7-0.5c0.4,0.1,0.7,0.4,0.8,0.8c0,0.2,0,0.5,0,0.7c0,0.8,0.1,1.5,0.3,2.3c0.2,0.7,0.6,1.3,1,1.8
		c0.2,0.3,0.2,0.3,0.2,0.7c0.6,0.6,1.3,1.2,1.9,1.8c0.4,0.3,0.9,0.5,1.3,0.7c0.2,0.1,0.4,0.3,0.5,0.4c0,0.1,0,0.1-0.1,0.2
		c-0.2,0-0.4,0-0.5,0c0.2,0.4,0.5,0.8,0.7,1.2c-0.3,0.5-0.8,0.5-1.1,0.5c-1,0-1.9,0.3-2.8,0.8c0.7-0.1,1.3-0.3,2-0.3
		c1.1-0.1,2.2-0.1,3.3,0c0.3,0,0.7,0.2,1,0.3c1.1,0.5,2.3,1.2,3.4,1.7c0.7,0.3,1,0.7,0.9,1.5c-0.1,1.4,0,2.8,0,4.2
		c0,0.5,0.1,0.9,0.4,1.3c0.8,1.2,1.5,2.3,2.3,3.5c0.3,0.5,0.3,0.6,0,1c-1.8,2.3-3.7,4.6-5.5,6.9c-2.7,3.4-5.2,7-7.6,10.7
		c-1.5,2.2-2.8,4.5-4.3,6.8c-0.6,0.9-0.6,0.9-1.5,0.2c-1.1-0.9-2.3-1.9-3.4-2.8c-0.2-0.2-0.4-0.3-0.3-0.6c0.3-0.1,0.5,0.1,0.6,0.2
		c0.9,0.6,1.8,1.2,2.6,1.8c0.2,0.2,0.5,0.3,0.8,0.5c0.2-0.2,0.4-0.4,0.5-0.6c1.3-2.2,2.6-4.5,3.9-6.7c0-0.1,0.1-0.2,0.1-0.2
		c-1,1-1.6,2.4-2.7,3.4c0,0-0.1,0-0.2,0c0-0.5,0.4-0.9,0.6-1.3c0.2-0.5,0.5-0.9,0.7-1.3c0.2-0.4,0.5-0.9,0.8-1.3
		c0.3-0.4,0.5-0.9,0.8-1.3s0.5-0.9,0.8-1.3c0.2-0.4,0.5-0.8,0.7-1.3c-1.1,1.5-2.2,3-3.3,4.4c0,0-0.1,0-0.2,0c-0.2-0.3,0-0.5,0.2-0.7
		c0.8-1.4,1.6-2.8,2.4-4.1c1-1.6,2-3.3,3-4.9c0.1-0.1,0.1-0.2,0.2-0.3c0,0-0.1-0.1-0.1-0.1c-0.6,0.8-1.2,1.6-1.8,2.5
		c-0.2,0.3-0.5,0.7-0.7,1.1c-0.2,0.2-0.3,0.4-0.5,0.6c-0.3-0.2-0.2-0.4-0.1-0.6c0.4-0.9,0.9-1.7,1.3-2.6c1.2-2.2,2.4-4.4,3.6-6.6
		c0.2-0.4,0.3-0.8,0.3-1.3c-0.1-1.6-0.6-3.1-1.4-4.6c-0.1-0.2-0.4-0.5-0.6-0.7c-1.5-1.3-3.4-1.9-5.3-2.1c-1.8-0.2-3.5-0.1-5.3,0.3
		c-0.3,0.1-0.6,0-0.9,0.1c-0.1-0.5,0.2-0.5,0.5-0.7c0.8-0.5,1.7-0.9,2.5-1.3c0.2-0.1,0.4-0.2,0.6-0.5c-0.5,0.1-0.9,0.2-1.3,0.3
		c-1.4,0.4-2.9,0.8-4.3,1.2c-0.2,0.1-0.5,0.1-0.7,0.1c-0.1-0.2-0.1-0.3-0.1-0.5c-0.9,0.1-1.5,0.9-2.4,0.8c0-0.1-0.1-0.1-0.1-0.2
		c0.2-0.1,0.4-0.3,0.6-0.4c1-0.5,2-1,3-1.6c0.2-0.1,0.4-0.2,0.5-0.5c0.1-0.2,0.3-0.3,0.5-0.4c0.9-0.4,1.7-0.9,2.6-1.3
		c0.2-0.1,0.4-0.3,0.7-0.5c-0.8-0.5-1.5-0.6-2.2-0.4c-0.9,0.2-1.8,0.5-2.7,0.8c-1.2,0.3-2.4,0.6-3.6,0.9c-0.1,0-0.3,0.1-0.4,0.1
		c-1.1,0-1.9,0.5-2.7,1.3c-0.1,0.1-0.3,0.3-0.4,0.4c-0.8,0.5-1.1,1.2-1.2,2.1c-0.2,1.1-0.4,2.1-0.6,3.2c0,0.2,0,0.3-0.1,0.5
		c0,0.4,0.1,0.5,0.5,0.6c1.5,0.3,1.2,0.5,2-0.8c0.5-0.8,1-1.6,1.6-2.4c0.3-0.5,0.4-0.5,0.9-0.3c2.2,1,4.1,2.4,5.7,4.3
		c0.9,1.1,1.8,2.3,2.5,3.7c0.1,0.2,0.3,0.4,0,0.7c-0.1-0.1-0.3-0.2-0.4-0.3c-1.1-2-2.6-3.7-4.3-5.2c-0.9-0.8-2-1.5-3.2-2
		c-0.5-0.2-0.5-0.2-0.9,0.2c-0.6,0.9-1.2,1.7-1.8,2.7c1.6,0.8,3,1.7,4.2,2.9c0.2-0.1,0.3-0.2,0.4-0.3c0.9,0.8,1.6,1.6,2.3,2.7
		c0.5,0.8,0.9,1.7,1.3,2.5c0.4,0.8,0.5,1.6,0.6,2.5c0,1.3,0.1,2.6-0.3,3.8c-0.8,2.2-2,3.9-3.8,5.4c-0.2,0.2-0.4,0.2-0.6,0.3
		c0,0-0.1-0.1-0.1-0.1c0.1-0.2,0.2-0.4,0.4-0.6c2.1-2,3.1-4.6,3.3-7.4c0.2-2.3-0.3-4.4-1.5-6.4c-0.2-0.3-0.3-0.5-0.5-0.7
		c0,0-0.1-0.1-0.2-0.1c2.6,4.9,2.7,9.7-0.9,14.2c-2.3,2.8-6.2,4.4-8.4,4.1c-0.2-1.1-0.1-2.2,0-3.3c-0.4,0-0.8,0-1.2,0
		c0.2,1,0.1,2,0.1,3c0,0.3-0.2,0.4-0.5,0.4c-0.4,0-0.8-0.1-1.2-0.1c-2.3-0.4-4.4-1.4-6.1-3.1c-0.1-0.1-0.2-0.2-0.3-0.2
		c0,0.1,0,0.2-0.1,0.3c-0.2-0.1-0.3-0.1-0.5-0.2c-2.1-1.7-3.7-3.8-4.2-6.6c-0.5-2.8,0.2-5.3,1.7-7.6c0.5-0.8,1.1-1.4,1.7-2.1
		c0.1-0.2,0.3-0.4,0.7-0.3c-0.2,0.3-0.3,0.5-0.4,0.7c0,0,0,0,0.1,0.1c0.3-0.3,0.5-0.5,0.8-0.8c0.3-0.3,0.6-0.6,0.9-0.9
		c0.3-0.3,0.6-0.5,0.9-0.8c0.3-0.2,0.7-0.5,1-0.6c0.3-0.2,0.7-0.4,1.1-0.6c-0.2-0.3-0.4-0.6-0.5-0.8c-0.4-0.6-0.8-1.2-1.2-1.8
		c-0.3-0.5-0.4-0.5-0.9-0.3c-1.6,0.7-3,1.7-4.2,2.9c-1.3,1.3-2.3,2.7-3.3,4.2c-0.2,0.3-0.2,0.3-0.6,0.5c0-0.2,0-0.4,0.1-0.5
		c0.5-0.9,0.9-1.8,1.5-2.6c1.6-2.2,3.5-4,6-5.3c0.3-0.2,0.5-0.3,0.8-0.5c0.4-0.2,0.6-0.2,0.9,0.2c0.7,1,1.3,2,2,2.9
		c0.4,0.6,0.4,0.6,1.1,0.4c0.4-0.1,0.7-0.2,1.2-0.3c-0.2-0.9-0.3-1.7-0.4-2.5c-0.1-0.7-0.3-1.4-0.4-2.1c-0.1-0.5-0.3-0.9-0.7-1.2
		c-0.2-0.2-0.5-0.4-0.7-0.6c-0.7-0.7-1.5-1.2-2.5-1.3c-2.2-0.4-4.4-1-6.6-1.6c-1-0.3-1.5-0.3-2.6,0.2c0.1,0.1,0.2,0.2,0.4,0.3
		c1,0.5,2,1.1,2.9,1.6c0.2,0.1,0.5,0.2,0.5,0.5c0,0.1,0.3,0.3,0.5,0.4c1,0.5,2,1.1,3.1,1.6c0.2,0.1,0.4,0.3,0.7,0.5
		c-0.6,0.2-0.9-0.1-1.3-0.3c-0.4-0.2-0.8-0.4-1.2-0.5c-0.1,0.2-0.2,0.4-0.3,0.4c-0.2,0.1-0.4,0-0.5,0c-1.7-0.5-3.4-0.9-5.1-1.4
		c-0.3-0.1-0.5-0.1-0.9-0.1c0.6,0.3,1.1,0.6,1.7,0.9c0.5,0.3,1.1,0.5,1.6,0.8c0.1,0.1,0.3,0.1,0.4,0.2c0.1,0.1,0.1,0.2,0.1,0.3
		c-0.1,0.1-0.2,0.2-0.3,0.2c-0.4,0-0.7-0.1-1.1-0.2c-2.2-0.3-4.3-0.4-6.5,0.1c-1.4,0.3-2.6,1-3.8,1.9c-0.2,0.2-0.5,0.4-0.5,0.7
		c-0.5,1.1-0.9,2.2-1.3,3.3c-0.3,1-0.1,2,0.4,2.9c1.5,2.9,3.1,5.7,4.6,8.6C124.9,91.9,125,92.2,125.1,92.5z M137.8,90.1
		c0.1-0.2,0.2-0.4,0.3-0.5c0.4-0.3,0.2-0.7,0.2-1.1c0-0.3-0.1-0.6-0.1-0.9c0.2-0.7,0.4-1.4,0.8-2c2.9-5,8.9-5.5,12.5-2.8
		c2.7,2,3.9,4.6,3.4,8c-0.1,0.3-0.1,0.6,0.1,0.9c0.1,0.1,0.1,0.3,0,0.5c-0.5,3.8-3.7,6.3-6.2,7c-0.9,0.2-0.9,0.2-0.9,1.1
		c0,0.1,0,0.2,0,0.3c0,0.3,0.2,0.5,0.5,0.4c0.4-0.1,0.9-0.2,1.3-0.3c2.2-0.7,4-2,5.4-3.9c1.6-2.3,2.4-4.8,2.1-7.6
		c-0.3-2.7-1.4-5-3.5-6.9c-2.8-2.5-6.1-3.4-9.7-2.6c-5.6,1.2-9.5,6.6-8.4,12.6c0.8,4.3,3.5,7.1,7.7,8.5c0.4,0.1,0.7,0.2,1.1,0.3
		c0.1,0,0.4-0.1,0.4-0.2c0.1-0.4,0.1-0.8,0-1.1c0-0.2-0.4-0.3-0.6-0.4c-0.2-0.1-0.4-0.2-0.6-0.2c-3.5-1.4-5.5-3.9-6-7.7
		c0-0.1,0.1-0.4,0.2-0.4c0.2,0,0.2-0.2,0.2-0.3C138.3,90.4,138.1,90.2,137.8,90.1z M119,72.1c0.7-0.7,1.3-1.2,2.3-1.3
		c0.5-0.1,1.1-0.2,1.6-0.2c0.1,0,0.2-0.1,0.3-0.2c-1-0.3-2-0.4-2.9-0.4c-0.9,0-1.5,0.5-2.1,1.1C118.5,71.5,118.8,71.8,119,72.1z
		 M174.8,71.1c-0.3-0.2-0.5-0.5-0.8-0.6c-0.3-0.2-0.7-0.4-1-0.4c-1-0.1-1.9,0.1-2.9,0.4c0.7,0.2,1.5,0.2,2.2,0.5
		c0.7,0.2,1.3,0.7,2,1C174.4,71.7,174.6,71.4,174.8,71.1z M137.5,98c-3.4-4.4-3.6-9-1.2-13.9C133.3,87.8,133.9,94.7,137.5,98z
		 M112.4,82.4c0-0.4,0-0.7,0-1.1C111.8,81.8,111.8,81.9,112.4,82.4z M180.6,82.7c0.8-0.8,0.8-0.9,0.3-1.3
		C180.8,81.8,180.7,82.2,180.6,82.7z M114.2,71.9C114.1,72,114.1,72,114.2,71.9c-0.1,0.5-0.1,1.1-0.1,1.6c0,0,0,0,0.1,0
		C114.2,73,114.2,72.5,114.2,71.9z M146,81.9C146,81.9,146,82,146,81.9c0.4,0.1,0.9,0.1,1.3,0.1c0,0,0,0,0-0.1
		C146.8,81.9,146.4,81.9,146,81.9z M115,77.9c-0.1-0.2-0.1-0.4-0.2-0.7c-0.1,0.3-0.1,0.5-0.2,0.7C114.7,77.9,114.8,77.9,115,77.9z
		 M178.4,77.2c-0.1,0.3-0.2,0.5-0.3,0.8c0.2,0,0.3,0,0.5,0C178.5,77.7,178.5,77.5,178.4,77.2z"/>
	<path d="M158.9,35.8c-0.1,0.3-0.2,0.6-0.3,0.9c-0.1,0.6-0.2,1.2-0.3,1.8c-0.1,0.6-0.4,1.1-0.9,1.5c-1.2,0.9-2.4,1.7-3.7,2.4
		c-0.2,0.1-0.5,0.2-0.8,0.2c0-1.3,0.4-2.5,0.5-3.7c-0.3,0.7-0.6,1.4-0.9,2c-0.2,0.3-0.2,0.3-0.5,0.5c-0.2-0.7,0-1.5-0.1-2.2
		c-0.2,1.1-0.4,2.1-0.6,3.1c0,0-0.1,0.1-0.2,0.1c-0.3-0.1-0.3-0.3-0.3-0.6c0-0.9,0-1.7,0-2.6c0-0.6-0.1-1.2-0.2-1.8
		c-0.4,0.7-0.2,1.6-0.6,2.3c-0.5-0.1-0.3-0.5-0.4-0.6c-0.2,0.7-0.2,1.5-0.5,2.3c-0.4-0.3-0.5-0.5-0.4-1c0.1-0.7,0.2-1.4,0.1-2
		c-0.2,0-0.5,0.2-0.5,0.1c-0.1-0.1-0.2-0.4-0.2-0.5c0-0.7,0.1-1.3,0.1-2c0-0.5-0.1-0.6-0.7-0.6c-0.5,0-0.9,0-1.4,0
		c-0.6,0-0.7,0-0.8,0.6c-0.1,0.4-0.1,0.8,0,1.1c0.1,0.8,0.1,1-0.1,1.4c-0.3-0.2-0.3-0.2-0.5-0.7c-0.2,1.3,0,2.4,0,3.6
		c-0.4,0-0.4-0.2-0.5-0.5c-0.2-0.7-0.3-1.4-0.4-2.1c-0.1,0.2-0.2,0.5-0.2,0.8c-0.1,0-0.1,0-0.2,0c-0.4-0.7-0.3-1.6-0.6-2.4
		c-0.2,0.6-0.2,1.1-0.2,1.6c0,1,0,2,0,3c0,0.2-0.1,0.3-0.2,0.5c-0.6-1-0.5-2.2-0.9-3.3c0,0.3,0,0.6,0,0.8c0,0.2,0.1,0.5,0.1,0.7
		c0,0.3,0.1,0.6-0.2,0.7c-0.3,0.1-0.5-0.3-0.5-0.5c-0.3-0.7-0.5-1.4-0.8-2.2c-0.1-0.2-0.1-0.3-0.3-0.4c0.2,1,0.4,2.1,0.6,3.1
		c0.1,0.3,0.1,0.5,0.2,0.8c0.1,0.4-0.1,0.6-0.5,0.4c-0.1,0-0.2-0.1-0.3-0.2c-1.2-0.8-2.4-1.6-3.7-2.4c-0.5-0.3-0.7-0.7-0.8-1.2
		c-0.4-1.4-0.5-2.9-0.7-4.3c-0.1-0.8-0.2-1.6-0.2-2.4c-0.1-0.6,0-1.2,0.2-1.8c0-0.1,0.1-0.2,0.2-0.3c0.3,0.1,0.4,0.4,0.4,0.6
		c0.1,0.6,0.2,1.3,0.3,1.9c0.1,0.4,0.1,0.8,0.2,1.3c0.2-0.7,0.3-1.3,0.5-1.9c0.2-0.9,0.8-1.6,1.7-1.9c0.3-0.1,0.6-0.2,0.9-0.3
		c1.3-0.5,2.2-1.3,2.9-2.5c0.1-0.2,0.2-0.4,0.3-0.5c0.1-0.1,0.3-0.2,0.5-0.3c0-0.3-0.1-0.8-0.2-1.2c-0.1,0.1-0.2,0.3-0.3,0.3
		c-0.1,0-0.3-0.1-0.3-0.2c-0.3-0.3-0.5-0.6-0.7-0.9c-0.7-0.8-1.6-1.5-2.6-1.8c-0.5-0.2-0.9-0.2-1.3,0c-0.7,0.3-1.3,0.7-2,1.1
		c-0.5,0.3-0.9,0.6-1.4,0.9c-0.3,0.2-0.4,0.4-0.4,0.7c0.1,0.9,0.2,1.8,0.3,2.7c0.1,0.7,0.2,1.4,0.2,2.2c0.1,0.7,0.2,1.3,0.2,2
		c0.1,0.9,0.2,1.9,0.3,2.8c0.2,1.4,0.3,2.8,0.5,4.2c0.1,0.7,0.4,1.2,1,1.6c1.6,0.9,3.3,1.9,5.1,2.4c0.5,0.1,0.9,0.2,1.4,0.3
		c0.4,0.1,0.8,0.1,1.1,0.5c-0.2,0.3-0.5,0.2-0.7,0.1c-1.1-0.3-2.1-0.5-3.2-0.8c-1.4-0.4-2.8-0.9-4.1-1.5c-0.4-0.2-1-0.2-1.5-0.2
		c-0.1,0.5,0.2,0.5,0.5,0.6c0.6,0.2,1.2,0.4,1.8,0.6c2,0.7,4,1.3,6.1,2c0.2,0.1,0.5,0.1,0.7,0.2c0.4,0.1,0.5,0.3,0.3,0.7
		c-0.2,0.3-0.5,0.5-0.8,0.5c-1-0.1-2-0.1-2.9-0.2c-0.5,0-0.9-0.1-1.4-0.2c-1.4-0.3-2.8-0.9-3.7-2.2c-0.1,0.6,0.1,1.4,0.5,1.6
		c0.6,0.3,0.8,0.8,0.9,1.4c0,0,0,0.1,0.1,0.2c0.1-0.1,0.1-0.2,0.2-0.4c0.2-0.5,0.3-0.5,0.8-0.4c1.2,0.2,2.3,0.5,3.5,0.7
		c0.8,0.2,1.6,0.3,2.4,0.1c0.5-0.1,1-0.1,1.1-0.8c0-0.1,0.2-0.2,0.3-0.2c0.6,0,1.2,0,2,0c-0.2,0.2-0.3,0.4-0.4,0.4
		c-0.3,0.1-0.6,0.1-0.9,0.1c-0.9,0-1.5,0.6-1.5,1.5c0,1.2,0.1,2.4,0.4,3.6c0.1,0.3,0.2,0.6,0,1.1c-0.1-0.1-0.3-0.2-0.3-0.4
		c-0.2-0.4-0.3-0.8-0.4-1.2c-0.1-0.2-0.2-0.5-0.3-0.8c0,1.6,0.5,3,0.6,4.5c-0.4,0.1-0.5-0.2-0.6-0.4c-0.9-1.7-1.8-3.5-2.1-5.5
		c-0.2-1.1-0.7-1.6-1.8-1.6c-0.4,0-0.8-0.1-1.3-0.2c0.1,0.9,0.3,1.7,0.6,2.5c0.2,0.8,0.5,1.6,0.8,2.5c0.3,0.8,0.6,1.6,0.9,2.4
		c0.3,0.8,0.9,1.4,1.1,2.4c-0.3-0.1-0.4-0.1-0.6-0.1c0,0.1,0,0.1,0,0.2c0.3,0.6,0.6,1.2,0.9,1.8c0.4,0.8,0.1,1.5-0.7,1.9
		c-0.2,0.1-0.4,0.1-0.5-0.1c-0.6-0.9-1.3-1.7-1.9-2.6c-0.1-0.1-0.1-0.2-0.2-0.4c-0.3-1.9-1.1-3.7-2-5.4c-0.7-1.4-1.4-2.7-2.1-4
		c-0.6-1.1-1.1-2.2-1.5-3.3c-0.2-0.6-0.2-1.2-0.1-1.9c0.3-1,0.5-2.1,0.8-3.2c0.1-0.3,0.1-0.6,0.1-0.9c-0.5,0-0.6,0-0.7-0.5
		c-0.1-0.8-0.2-1.5-0.3-2.3c-0.1-0.6-0.2-1.2-0.3-1.9c-0.1,0.2-0.2,0.2-0.2,0.3c-0.3,1.6-0.7,3.1-0.4,4.7c0.1,0.5,0,1.1,0.1,1.7
		c0.1,0.6,0.1,1.2,0.2,1.8c0.5,2.3,1,4.7,1.5,7c0.3,1.4,0.6,2.9,1,4.3c0.2,0.6,0.5,1.2,1,1.8c0.1-0.8-0.6-1.4-0.4-2.3
		c0.2,0.1,0.4,0.2,0.6,0.4c-0.3-0.8-0.6-1.5-0.9-2.2c-0.2-0.7-0.7-1.3-0.8-2c0.4-0.1,0.5,0.2,0.6,0.4c1.4,2.4,2.8,4.8,3.5,7.5
		c0.1,0.2,0.1,0.4,0.1,0.6c0,0.2,0,0.4,0,0.4c0.3,0.3,0.5,0.5,0.8,0.7c0.4,0.5,0.8,1.1,1.3,1.7c0.4,0.5,0.5,0.5,0.9,0.2
		c0.7-0.5,1.4-0.7,2.3-0.7c0.4,0,0.8,0,1.2,0c0.1,0,0.3,0.1,0.6,0.2c-0.2,0.2-0.4,0.2-0.5,0.3c-0.4,0.1-0.8,0.2-1.1,0.3
		c-0.3,0.1-0.5,0.3-0.5,0.6c0,0.4,0,0.9,0,1.3c0,0.3-0.1,0.5-0.1,0.8c-0.6-0.1-0.5-0.5-0.6-0.8c-0.1-0.3-0.2-0.6-0.3-1.1
		c-0.2,0.2-0.4,0.3-0.5,0.4c-0.6,0.5-0.6,0.5-1.3,0.1c-0.3-0.2-0.7-0.4-1.1-0.6c0.1,0.5,0.4,0.8,0.6,1.1c0.2,0.5,0.6,0.6,1.1,0.6
		c0.3,0,0.6,0,0.8,0.4c-0.1,0.1-0.2,0.1-0.3,0.2c-0.4,0.1-0.8,0.1-1.2,0.1c-0.4,0.1-0.6,0-0.8-0.3c-0.7-1.1-1.4-2.2-2.1-3.3
		c0-0.1-0.1-0.2-0.1-0.2c-0.5-0.2-0.6-0.6-0.9-1c-0.5-0.5-0.8-1.2-1.3-1.7c-0.7-0.8-1.1-1.7-1.3-2.7c-0.8-3.9-1.6-7.8-2.5-11.7
		c-0.1-0.6-0.4-1.2-0.6-1.7c-0.2-0.5-0.3-0.9-0.4-1.4c-0.1-1.8-0.1-3.6-0.2-5.4c0-0.5,0.1-1,0.5-1.4c0.2-0.2,0.3-0.6,0.3-0.9
		c0.2-1.8,0.4-3.7,0.6-5.5c0.2-1.8,0.4-3.5,0.7-5.3c0.1-0.5,0.2-0.9,0.2-1.3c0.1-0.7,0.5-1.3,1-1.7c2.3-1.7,4.6-3.4,7.3-4.2
		c1.5-0.5,3.1-0.8,4.7-0.8c0.9,0,1.9,0,2.8,0c2.7-0.1,5.2,0.7,7.6,1.9c1.6,0.8,3,1.8,4.3,2.8c0.9,0.7,1.4,1.6,1.5,2.7
		c0.2,1.9,0.6,3.8,0.8,5.7c0.2,1.6,0.3,3.2,0.4,4.8c0.1,0.7,0.2,1.5,0.6,2.1c0.3,0.3,0.3,0.9,0.3,1.4c-0.1,2.1,0.1,4.2-0.3,6.2
		c0,0.1-0.1,0.3-0.1,0.4c-0.5,0.7-0.6,1.5-0.8,2.2c-0.3,1.6-0.7,3.2-1,4.8c-0.5,2.2-0.9,4.4-1.3,6.5c-0.2,0.9-0.5,1.8-1.1,2.5
		c-0.6,0.8-1.2,1.6-1.8,2.4c-0.1,0.2-0.3,0.3-0.6,0.5c-0.1,0.3-0.3,0.6-0.5,1c-0.4,0.7-0.9,1.3-1.3,2c-0.2,0.4-0.6,0.6-1.1,0.6
		c-0.5,0-1,0-1.5,0c0,0,0-0.1,0-0.1c0.1-0.1,0.2-0.2,0.3-0.2c0.1-0.1,0.2-0.1,0.3-0.1c1.2,0,1.7-0.9,2.2-1.9
		c-0.2,0.1-0.3,0.1-0.4,0.2c-0.3,0.2-0.6,0.4-0.9,0.6c-0.4,0.2-0.6,0.2-1-0.1c-0.2-0.2-0.3-0.3-0.6-0.6c-0.2,0.7-0.3,1.2-0.4,1.8
		c-0.4,0-0.4-0.3-0.4-0.5c0-0.5-0.1-0.9-0.1-1.4c-0.1-0.5-0.2-0.6-0.7-0.7c-0.4-0.1-0.7-0.1-1.1-0.2c-0.3-0.1-0.5-0.1-0.8-0.3
		c0.8-0.4,1.7-0.2,2.6-0.2c1-0.1,1.7,0.4,2.5,0.9c0.2-0.2,0.3-0.3,0.5-0.5c0.4-0.5,0.8-1.1,1.3-1.6c0.2-0.3,0.5-0.5,0.8-0.8
		c-0.2-1.1,0.4-2.2,0.8-3.3c0.7-1.8,1.7-3.5,2.7-5.2c0.1-0.1,0.2-0.2,0.3-0.3c0.2,0.3,0.1,0.5,0,0.8c-0.4,0.9-0.7,1.7-1.1,2.6
		c-0.1,0.3-0.2,0.5-0.3,0.9c0.2-0.2,0.3-0.3,0.5-0.4c0.3,0.4,0,0.7-0.1,1c-0.1,0.3-0.2,0.7-0.3,1.2c0.6-0.5,0.9-1,1.1-1.6
		c0.4-1.7,0.9-3.3,1.2-5c0.5-2.3,1-4.7,1.5-7c0-0.2,0.1-0.3,0.1-0.5c0-1.5,0.1-3.1,0.1-4.6c0-0.9-0.2-1.9-0.3-2.8
		c-0.1,0-0.1,0-0.2,0c-0.1,0.8-0.3,1.7-0.4,2.5c-0.2,0.8-0.2,1.6-0.5,2.4c-0.1,0-0.1,0-0.2,0c-0.1-0.2-0.1-0.4-0.2-0.7
		c-0.1,1,0.2,1.9,0.4,2.8c0.1,0.5,0.3,1.1,0.4,1.6c0.2,0.7,0.2,1.3,0,2c-0.5,1.6-1.3,3.1-2.2,4.6c-1.2,2-2.1,4-2.9,6.1
		c-0.2,0.5-0.3,1.1-0.4,1.6c-0.2,0.5-0.4,1.1-0.7,1.5c-0.4,0.6-0.8,1.1-1.3,1.7c-0.4,0.5-0.6,0.5-1,0.1c-0.7-0.7-0.8-0.8-0.3-1.7
		c0.3-0.6,0.6-1.3,1-2c-0.2,0.1-0.4,0.2-0.6,0.2c-0.2-0.3,0-0.5,0.1-0.8c1.6-2.7,2.4-5.7,3.1-8.7c0,0,0-0.1,0-0.2
		c-0.7,0.1-1.4,0.1-2.1,0.2c-0.5,0.1-0.7,0.6-0.8,1.1c-0.3,1.6-0.9,3.1-1.6,4.6c-0.2,0.5-0.5,0.9-0.7,1.3c-0.1,0.2-0.3,0.3-0.5,0.4
		c-0.2-0.8,0.2-1.4,0.3-2.1c0.1-0.7,0.2-1.4,0.3-2.3c-0.5,0.8-0.4,1.7-1.1,2.4c-0.2-0.4-0.1-0.8,0-1.1c0.3-1.2,0.4-2.3,0.4-3.5
		c0-1-0.5-1.6-1.5-1.8c-0.4-0.1-0.8,0-1.2-0.4c0.2-0.1,0.4-0.2,0.5-0.2c0.3,0,0.6,0,0.9,0c0.6,0.1,0.6,0.1,0.7,0.7
		c0.8,0.4,1.6,0.5,2.5,0.3c1.4-0.2,2.8-0.5,4.2-0.8c0.8-0.2,1,0,1.1,0.8c0.1-0.2,0.2-0.4,0.2-0.6c0.1-0.4,0.2-0.7,0.7-0.9
		c0.2-0.1,0.4-0.4,0.5-0.6c0.2-0.3,0.2-0.7,0.3-1.2c-0.1,0.1-0.2,0.2-0.3,0.3c-0.5,0.8-1.3,1.2-2.1,1.6c-1.4,0.6-2.9,0.8-4.4,0.9
		c-0.3,0-0.6,0-0.9,0.1c-0.2,0-0.4,0-0.5,0c-0.4,0-0.8-0.4-0.8-0.7c0-0.4,0.4-0.4,0.6-0.5c2.7-0.9,5.3-1.7,8-2.6
		c0.2-0.1,0.4-0.2,0.6-0.2c0.4-0.2,0.4-0.2,0.2-0.8c-0.2,0.1-0.5,0.1-0.7,0.2c-1.9,0.7-3.8,1.4-5.8,2c-0.9,0.3-1.7,0.5-2.6,0.7
		c-0.1,0-0.2,0-0.4-0.1c0.1-0.2,0.2-0.3,0.3-0.3c0.3-0.1,0.7-0.2,1-0.3c2.4-0.5,4.5-1.6,6.6-2.9c0.4-0.2,0.5-0.6,0.6-1
		C158.6,38.3,158.7,37.1,158.9,35.8c0.1-0.8,0.2-1.6,0.3-2.4c0.3-2.7,0.7-5.3,1-8c0-0.4,0-0.6-0.4-0.8c-1.1-0.6-2.1-1.3-3.2-1.9
		c-0.7-0.4-1.4-0.3-2.1,0.1c-0.9,0.5-1.6,1.2-2.3,2c-0.2,0.2-0.4,0.4-0.7,0.8c-0.1-0.3-0.2-0.5-0.2-0.7c0-0.3,0.1-0.7,0.1-1.1
		c-0.2,0.1-0.3,0.1-0.3,0.2c0.1,0.4,0.2,0.7,0.2,1c-0.3,0.5-0.2,1-0.3,1.6c0.3-0.2,0.5-0.1,0.7,0.1c0.2,0.3,0.4,0.6,0.5,0.9
		c0.5,0.9,1.3,1.6,2.3,2c0.4,0.2,0.9,0.3,1.3,0.5c0.7,0.2,1.2,0.7,1.5,1.4c0.2,0.5,0.3,1.1,0.5,1.7c0,0.1,0.1,0.3,0.2,0.5
		c0-0.2,0.1-0.3,0.1-0.4c0.1-1,0.3-1.9,0.4-2.9c0-0.2,0-0.5,0.4-0.5c0,0.3,0.1,0.6,0.1,0.8c0.2,0,0.3,0,0.5,0.1
		c-0.1,0.7-0.2,1.3-0.2,2C158.9,33.8,158.9,34.8,158.9,35.8z M156.3,16.8c0.1,0.1,0.2,0.2,0.3,0.3c0.2,0.9,0.5,1.7,0.5,2.7
		c0,0.3,0,0.6,0,0.9c0,0.5,0.3,0.9,0.7,1.2c0.9,0.5,1.7,1.2,2.4,2c0.1,0.1,0.2,0.2,0.4,0.4c0-0.2,0-0.3,0-0.4
		c-0.1-1.1-0.3-2.1-0.4-3.2c-0.1-0.6-0.3-1.1-0.7-1.5c-1.4-1.6-3.3-2.7-5.2-3.6c-0.2-0.1-0.4-0.1-0.6-0.1c-0.5-0.1-1-0.1-1.5-0.2
		c-0.5,0-0.9,0-1.3-0.1c-0.3,0-0.6,0-0.9,0c-0.3,0-0.6,0-0.9,0c-0.1,0.2-0.2,0.3-0.3,0.5c-0.2-0.1-0.3-0.2-0.4-0.3
		c-0.9,0-1.9,0-2.8,0c-0.3,0-0.6,0-0.9,0.1c-0.6,0.2-1.1,0.2-1.7,0c-1.1-0.3-2.1-0.4-3.2,0c-0.3,0.1-0.6,0.2-0.9,0.2
		c-0.5,0-1,0.2-1.5,0.5c-1.6,0.8-3,2-4.2,3.3c-0.2,0.2-0.4,0.5-0.4,0.8c-0.2,1.1-0.4,2.3-0.5,3.4c0,0.2,0,0.5,0,0.9
		c0.8-1.1,1.6-1.9,2.7-2.5c0.6-0.3,0.8-0.8,0.9-1.4c0.1-1.1,0.3-2.1,0.5-3.1c0.1-0.2,0.2-0.5,0.3-0.7c0.4,0.2,0.4,0.5,0.5,0.8
		c0,0.6,0.1,1.2,0.1,1.8c0.1,0.8,0.4,1,1.1,0.7c0.5-0.2,1.1-0.4,1.6-0.6c0.5-0.2,0.5-0.2,0.5-0.8c0.1-0.6,0.2-1.3,0.3-1.9
		c0-0.1,0.2-0.3,0.4-0.5c0.1,0.5,0.2,0.7,0.3,1c0.2,1.3,0.4,2.6,0.5,3.9c0.1,0.8,0.6,1.3,1.4,1.4c0.3,0,0.5,0,0.8,0
		c1.6-0.1,3.1-0.2,4.7,0c1.1,0.1,1.8-0.4,1.9-1.7c0-0.1,0-0.2,0-0.3c0.2-1.2,0.4-2.5,0.6-3.7c0-0.2,0.1-0.5,0.2-0.7
		c0.4,0.2,0.4,0.5,0.5,0.7c0.1,0.6,0.2,1.2,0.2,1.8c0,0.3,0.2,0.5,0.5,0.6c0.5,0.2,1.1,0.4,1.6,0.6c0.7,0.2,0.9,0.1,1.1-0.6
		c0.1-0.6,0.2-1.2,0.2-1.8C156,17.3,155.9,17,156.3,16.8z M149.6,33.3c-0.4-0.2-0.4-0.2-0.3-0.7c0.2-1,0.4-2,0.5-3
		c0.2-1.3,0.2-2.5,0.4-3.8c0.1-0.6-0.2-0.9-0.7-1.1c-0.2-0.1-0.5-0.2-0.8-0.2c-1.2-0.3-2.4-0.2-3.5-0.1c-0.5,0.1-1.1,0.2-1.6,0.4
		c-0.5,0.1-0.7,0.4-0.6,0.9c0.1,0.9,0.1,1.8,0.2,2.6c0.2,1.3,0.4,2.7,0.6,4c0,0.2,0.1,0.4,0,0.5c0,0.2-0.2,0.2-0.3,0.4
		C144.5,34.6,148.6,34.7,149.6,33.3z M130.3,37.6C130.4,37.6,130.4,37.6,130.3,37.6c0.1-1.1,0.1-2.2,0.1-3.2c0,0-0.1,0-0.1,0
		C130.3,35.4,130.3,36.5,130.3,37.6z M156.5,19.5c0,0-0.1,0-0.1,0c0,0.4,0,0.8,0,1.2c0,0,0.1,0,0.1,0
		C156.5,20.3,156.5,19.9,156.5,19.5z M130.5,38.7C130.5,38.7,130.5,38.7,130.5,38.7c0,0.2,0,0.4,0,0.6h0
		C130.5,39.1,130.5,38.9,130.5,38.7z M142.2,27.5L142.2,27.5c0-0.2,0-0.3,0-0.5h0C142.2,27.2,142.2,27.3,142.2,27.5z M132.7,36.8
		L132.7,36.8c0-0.1,0-0.2,0-0.2c0,0,0,0,0,0C132.7,36.7,132.7,36.8,132.7,36.8z M132.5,35.9C132.5,35.9,132.5,35.9,132.5,35.9
		c0-0.1,0-0.2,0-0.4c0,0,0,0,0,0C132.5,35.6,132.5,35.7,132.5,35.9z M160.7,34L160.7,34c0,0.1,0,0.2,0,0.3c0,0,0,0,0,0
		C160.7,34.2,160.7,34.1,160.7,34z"/>
	<path d="M107.3,63.4c-0.1,2-0.3,4-0.2,6c2.4-1,4.9-1.9,7.3-2.9c-0.5-1-1.7-1.2-2.5-1.8c0.4-0.3,0.4-0.3,1.9,0
		c-0.6-0.6-1.2-1.1-2-1.2c-0.7-0.1-1.5,0-2.3,0c0-0.1,0-0.2,0-0.3c-0.7,0.1-1.2,0.6-2.1,0.5c0.2-0.2,0.3-0.4,0.5-0.4
		c2.4-1.4,4.9-2.7,7.3-4.1c0.5-0.3,0.7-0.2,0.8,0.4c0.1,0.4,0.2,0.9,0.4,1.3c0-0.4-0.1-0.9-0.1-1.4c0.2,0.1,0.3,0.1,0.4,0.1
		c0-0.3-0.1-0.5-0.1-0.7c-0.2-1.1,0.2-2.1,1.3-2.6c0.7-0.3,1.4-0.7,2.1-1c0.3-0.2,0.6-0.3,0.9-0.1c0,0.3-0.2,0.4-0.4,0.5
		c-0.7,0.4-1.4,0.8-2.1,1.2c-0.6,0.3-0.9,0.8-0.8,1.5c0,0.3,0,0.7,0.1,1c0.1,0.6,0.3,0.7,0.9,0.6c1.9-0.5,3.6-1.4,4.6-3.3
		c0.2-0.3,0.3-0.8,0.8-0.9c0.1,0.1,0.1,0.2,0.2,0.4c0.2-0.6,0.4-1.1,0.6-1.7c-0.8,0.1-1.5,0.2-2.2,0.3c-0.1-0.3,0-0.4,0.2-0.5
		c0.9-0.2,1.9-0.4,2.8-0.6c0.5-0.1,1.1,0.1,1.5,0.5c0.8,0.5,1.5,1.2,2.3,1.7c0.5,0.4,0.4,0.9,0.3,1.3c-0.2,0.9,0.2,1.5,0.7,2
		c0.7,0.8,1.6,1.3,2.5,1.7c0.3,0.2,0.6,0.4,0.9,0.6c0,0.1,0,0.1-0.1,0.2c-0.2,0-0.3,0-0.5,0c-1.6-0.5-3-1.4-4.2-2.6
		c-0.4-0.4-0.6-0.9-0.9-1.4c-0.2-0.3-0.3-0.5-0.7-0.3c-0.3,0.1-0.6,0.1-0.9-0.2c-0.1-0.1-0.3-0.1-0.4-0.1c-0.3,0.1-0.5-0.1-0.5-0.4
		c-0.1-0.5,0.2-0.9,0.8-0.9c0.2,0,0.4,0.1,0.5,0.2c1,0.5,1,0.5,2.3,0.6c-0.4-0.5-0.9-0.8-1.4-1.1c-0.5-0.3-1.2-0.6-1.8-0.9
		c-0.3-0.1-0.6,0-0.7,0.3c-0.1,0.5-0.2,0.9-0.3,1.4c-0.1,0.2-0.1,0.5,0,0.7c0,0.6-0.3,1-0.8,1.3c-2,1-3.9,2.1-5.9,3.1
		c-0.6,0.3-1,0.8-1.1,1.5c-0.2,1.4-0.6,2.8-0.9,4.2c-0.1,0.4-0.3,0.6-0.6,0.7c-2,0.6-4,1.2-6,1.9c-0.9,0.3-1.7,0.7-2.6,1.1
		c-0.6,0.3-0.7,0.2-0.9-0.5c-0.2-0.9,0-1.7,0-2.5c0-0.2,0-0.5,0-0.8c-0.6,1.3-0.3,2.6-0.5,3.9c-0.4,0-0.4-0.3-0.4-0.5
		c-0.1-0.9-0.2-1.7-0.2-2.7c-0.3-0.1-0.4-0.3-0.4-0.7c0-0.4,0-0.9,0.1-1.4c-0.5,0.4-0.8,0.8-1.1,1.2c-0.1,0.1-0.2,0.3-0.2,0.4
		c-0.3,0.4-0.4,0.5-0.9,0.3c-0.2,0-0.3-0.1-0.5,0c0.3,0.2,0.5,0.3,0.8,0.5c0.6,0.4,0.7,0.6,0.4,1.3c-0.4,0.7-0.7,1.4-1.1,2.1
		c-0.2,0.3-0.4,0.5-0.6,0.8c0,0.2,0,0.5-0.1,0.7c-0.6,1.3-1.3,2.5-2,3.7c-0.4,0.6-0.5,0.7-1.2,0.5c-1-0.2-1.9-0.3-2.9-0.5
		c-0.4-0.1-0.9-0.2-1.3-0.2c-0.5-0.1-0.9,0-1.2,0.5c-0.4,0.6-0.8,1.3-1.2,1.9c-0.6,1-1.1,2.1-1.6,3.1c-0.3,0.6-0.4,1.2-0.6,1.9
		c0,0.1-0.1,0.2-0.1,0.3c-0.3-0.2-0.2-0.4-0.2-0.7c0.5-2.3,1.5-4.4,2.7-6.4c0.4-0.6,0.8-1.1,1.2-1.6c0.2-0.2,0.4-0.4,0.6-0.5
		c1-0.5,2-1,3.1-1.5c0.1-0.1,0.2-0.1,0.4-0.1c0,0,0.1,0,0.2,0.1c-0.1,0.2-0.1,0.4-0.2,0.8c0.5-0.3,0.8-0.5,1.2-0.8
		c0.8-0.7,1.6-1.1,2.7-1.3c-0.7,0-1.5,0-2.2,0c-1.1,0-2.3,0-3.4,0.1c-1.4,0.1-2.5,0.8-3.5,1.8c-0.8,0.8-1.3,1.7-1.8,2.7
		c-0.2,0.4-0.5,0.9-0.8,1.3c0-0.1-0.1-0.3-0.1-0.4c0.7-1.7,1.3-3.3,2.6-4.6c0.7-0.7,1.5-1.2,2.4-1.5c1.4-0.4,2.9-0.7,4.3-1.1
		c0.3-0.1,0.5-0.2,0.8-0.3c0.7-0.4,0.7-1,0-1.5C98.6,68.2,98,68,97.4,68c-1.5-0.1-2.7,0.5-3.9,1.3c-1.4,1-2.6,2.2-3.7,3.5
		c-1.8,2.2-2.9,4.8-3.4,7.6c-0.3,1.6-0.5,3.2-0.3,4.8c0,0.3,0.1,0.7-0.1,1c-0.3-0.1-0.3-0.3-0.3-0.5c-0.1-1.7-0.3-3.4,0.1-5.1
		c0.2-1,0.2-2,0.5-3c0.5-2.1,1.3-4,2.5-5.8c1.3-2,3.1-3.5,5.1-4.7c1.2-0.7,2.4-1,3.8-0.8c0.4,0.1,0.7-0.1,1-0.3
		c0.8-0.5,1.5-0.9,2.3-1.3c1.8-0.8,3.7-1,5.6-1.2c0.1,0,0.3,0,0.4,0C107.1,63.3,107.1,63.4,107.3,63.4z"/>
	<path d="M163.8,56.3c-0.1,0-0.3,0-0.5,0c0.2-0.2,0.3-0.4,0.5-0.6c0.7-0.5,1.3-1.1,2-1.6c0.8-0.6,1.8-0.8,2.8-0.5
		c0.6,0.2,1.2,0.3,1.8,0.5c0.1,0,0.2,0.2,0.5,0.3c-0.9,0.3-1.5-0.3-2.4-0.1c0.2,0.5,0.3,0.9,0.5,1.4c0.3-0.2,0.4-0.1,0.6,0.1
		c0.3,0.5,0.7,1,1,1.5c0.6,0.9,1.4,1.5,2.4,1.9c0.6,0.2,1.2,0.4,1.8,0.6c0.4,0.1,0.6,0,0.6-0.4c0-0.6,0-1.2,0-1.8
		c0-0.3-0.1-0.6-0.4-0.7c-0.7-0.4-1.4-0.9-2.2-1.3c-0.2-0.1-0.5-0.2-0.5-0.6c0.1,0,0.3,0,0.4,0c1,0.5,2.1,1,3.1,1.5
		c0.3,0.2,0.6,0.5,0.6,0.9c0,0.9,0.2,1.8,0.4,2.7c0,0,0,0,0,0.1c0.3-0.3,0.3-0.8,0.6-1.2c0.2,0,0.4,0,0.5,0.1
		c2.5,1.4,4.9,2.7,7.4,4.1c0.1,0.1,0.2,0.2,0.4,0.3c-0.8,0.2-1.3-0.3-2-0.4c0,0.1,0,0.2-0.1,0.4c-0.3,0-0.6-0.1-0.9-0.1
		c-1.1-0.1-2.1,0.2-3,0.9c-0.1,0-0.1,0.1-0.1,0.2c0,0,0,0.1,0,0.2c0.5,0.1,1.1-0.3,1.7-0.1c-0.2,0.4-0.5,0.5-0.7,0.6
		c-0.6,0.2-1.1,0.6-1.5,1c-0.1,0.1-0.1,0.2-0.2,0.3c2.5,0.9,4.9,1.9,7.5,2.9c0-0.5,0.1-1.1,0-1.6c-0.1-0.9-0.2-1.9-0.3-2.8
		c0-0.4-0.1-0.9-0.1-1.3c0-0.2,0.2-0.3,0.4-0.3c0.3,0,0.6,0,0.9,0.1c1.3,0.1,2.6,0.2,3.9,0.7c0.7,0.3,1.4,0.6,2.1,1
		c0.3,0.1,0.5,0.3,0.7,0.5c0.7,0.5,1.3,0.7,2.2,0.6c1-0.1,2,0.2,2.8,0.6c0.8,0.5,1.6,1,2.4,1.6c1.3,1,2.4,2.3,3.3,3.7
		c1.2,1.8,1.9,3.7,2.4,5.7c0.4,1.7,0.6,3.5,0.5,5.3c0,0.7,0,1.4,0,2.2c0,0.2,0,0.5-0.2,0.7c0-0.1-0.1-0.3-0.1-0.4
		c0-0.8,0-1.6-0.1-2.4c-0.1-1.1-0.3-2.1-0.5-3.1c-0.3-1.8-1-3.4-1.8-5c-0.3-0.6-0.7-1.2-1.1-1.8c-1-1.2-2-2.4-3.2-3.4
		c-1-0.9-2.2-1.5-3.6-1.8c-0.9-0.2-1.8,0-2.7,0.3c-0.2,0.1-0.3,0.2-0.4,0.3c-0.5,0.4-0.4,1.1,0.2,1.3c0.5,0.2,1,0.4,1.5,0.5
		c1.1,0.3,2.2,0.5,3.3,0.8c2,0.5,3.3,1.9,4.2,3.7c0.4,0.8,0.7,1.6,1.1,2.4c0.1,0.2,0.3,0.4-0.2,0.6c-0.1-0.2-0.2-0.4-0.3-0.6
		c-0.4-0.9-0.9-1.9-1.5-2.7c-1.3-1.7-3-2.5-5.2-2.5c-0.7,0-1.4-0.1-2.2-0.1c-0.8,0-1.5,0.1-2.3,0.2c0.1,0,0.2,0.1,0.3,0.1
		c0.6,0.1,1.1,0.2,1.6,0.6c0.5,0.5,1.2,0.8,1.8,1.2c-0.1-0.2-0.1-0.3-0.2-0.5c0.2,0,0.3-0.1,0.5-0.1c0.4,0.2,0.8,0.4,1.1,0.6
		c0.4,0.2,0.8,0.5,1.2,0.6c0.9,0.2,1.5,0.9,2,1.6c0.9,1.4,1.8,2.9,2.3,4.4c0.4,1,0.7,2.1,1,3.1c0,0.1,0,0.2,0,0.3
		c-0.4-0.2-0.4-0.5-0.5-0.8c-0.7-2.3-1.8-4.3-3.1-6.2c-0.1-0.1-0.2-0.2-0.2-0.3c-0.2-0.4-0.6-0.5-1-0.4c-1.4,0.3-2.8,0.5-4.2,0.8
		c-0.9,0.2-1,0.1-1.4-0.7c-0.6-1.1-1.2-2.2-1.8-3.3c-0.3-0.5-0.3-0.6,0.1-1.1c-0.5,0-0.8-0.3-1-0.7c-0.4-0.8-0.8-1.5-1.1-2.2
		c-0.2-0.5-0.2-0.6,0.2-0.9c0.4-0.3,0.9-0.6,1.4-1c-0.4,0.1-0.6,0.2-0.9,0.3c-0.5,0.2-0.6,0.1-1-0.3c-0.3-0.5-0.6-0.9-1-1.4
		c-0.1-0.1-0.2-0.2-0.3-0.5c-0.1,0.3-0.1,0.4-0.1,0.5c0,0.4,0,0.7,0.1,1.1c0,0.3-0.1,0.4-0.4,0.4c0,0.6,0,1.1,0,1.7
		c0,0.5,0.2,1.1-0.3,1.8c-0.1-0.3-0.2-0.4-0.2-0.5c-0.1-0.6-0.1-1.2-0.2-1.8c-0.1-0.8-0.2-1.6-0.5-2.6c0.1,1.3,0.2,2.5,0.2,3.8
		c0.1,1.2-0.1,1.3-1.2,0.8c-2.3-1-4.7-1.7-7.1-2.4c-0.4-0.1-0.7-0.2-1.1-0.3c-0.5-0.1-0.8-0.4-0.9-0.8c-0.3-1.5-0.7-2.9-0.9-4.4
		c-0.1-0.5-0.4-0.9-0.9-1.2c-2-1-4-2.1-6-3.2c-0.5-0.3-0.8-0.6-0.8-1.2c-0.1-0.6-0.2-1.3-0.3-1.9c-0.2-0.6-0.4-0.7-1-0.5
		c-0.4,0.1-0.7,0.3-1,0.5C165,55.4,164.4,55.9,163.8,56.3L163.8,56.3z"/>
	<path d="M126.8,109.5c-0.5,0.2-0.7-0.1-0.9-0.3c-1.3-1.2-2.6-2.3-3.8-3.5c-2.5-2.4-4.9-4.9-7.4-7.3c-1.4-1.3-2.6-2.8-3.6-4.4
		c-0.6-1-1.3-1.9-1.9-2.9c-0.3-0.5-0.4-0.9-0.2-1.5c0.5-1.4,0.9-2.8,1.4-4.3c0-0.1,0.1-0.2,0.1-0.2c0.2-0.3,0.5-0.4,0.7-0.1
		c0.5,0.5,0.9,1.1,1.3,1.7c0.1,0.2,0.2,0.5,0.1,0.6c-0.4,1.4-0.2,2.8,0,4.2c0.2,1.7,1.1,3,2,4.4c1.8,2.6,3.9,5,6.1,7.3
		c1.3,1.4,2.7,2.8,4,4.2c0.5,0.5,1.1,1,1.6,1.6C126.5,109.1,126.7,109.3,126.8,109.5z"/>
	<path d="M166.6,109.6c0-0.5,0.3-0.7,0.5-0.9c1.4-1.4,2.8-2.8,4.2-4.3c2.7-2.8,5.3-5.8,7.6-9.1c1.2-1.7,1.8-3.7,1.8-5.8
		c0-0.7,0-1.5-0.2-2.2c-0.1-0.2,0-0.5,0.2-0.7c0.4-0.5,0.8-1.1,1.3-1.6c0.4-0.4,0.6-0.4,0.8,0.2c0.5,1.6,1,3.1,1.5,4.7
		c0.2,0.5-0.1,0.9-0.3,1.3c-0.5,0.8-1.1,1.6-1.6,2.4c-1.3,2.1-3,4-4.8,5.7c-2.5,2.4-5,4.9-7.5,7.4c-0.9,0.9-1.8,1.7-2.8,2.5
		C167,109.4,166.8,109.4,166.6,109.6z"/>
	<path d="M112.2,102.5c-0.7-1-1-0.8-0.1-2.2c0.3-0.5,0.6-1,0.9-1.5c0.1-0.2,0.3-0.3,0.5-0.3c0.3,0,0.5,0.2,0.5,0.5
		c0,0.1,0,0.3,0,0.4c-0.2,0.9,0,1.7,0.4,2.4c0.7,1.5,1.7,2.7,3,3.8c2.2,1.7,3.9,3.9,5.6,6c1.2,1.5,2.2,3,3.3,4.6
		c0.5,0.8,0.9,1.6,1.4,2.5c0.1,0.2,0.1,0.4,0.2,0.5c-0.3,0.2-0.4,0-0.5-0.2c-1-1.3-2-2.7-3-4c-1.7-2.2-3.5-4.3-5.3-6.4
		c-0.4-0.4-0.8-0.8-1.3-1.1c-1.2-0.9-2.5-1.7-3.4-2.8c-0.2,0.5-0.3,0.9-0.5,1.5c0.2,0.1,0.3,0.2,0.5,0.3c1.8,0.8,3.4,1.9,4.8,3.3
		c0.2,0.2,0.2,0.2,0.4,0.7c-0.2-0.1-0.3-0.1-0.4-0.2c-1.5-1.2-3.2-2.1-4.9-3c-0.6-0.3-1.1-0.7-1.3-1.3c-0.2-0.3-0.3-0.6-0.5-0.9
		C111.6,104.3,111.9,103.4,112.2,102.5z"/>
	<path d="M173.6,110.6c0-0.6,0.3-0.8,0.6-1c1.3-1.2,2.8-2.2,4.4-3c0,0,0.1,0,0.1,0c0.7-0.3,0.7-0.3,0.4-1c-0.2-0.4-0.2-0.4-0.1-1
		c-0.2,0.1-0.3,0.2-0.4,0.4c-0.9,0.9-1.9,1.7-2.9,2.4c-0.7,0.5-1.4,1.1-1.9,1.7c-2.4,2.8-4.8,5.7-7,8.8c-0.3,0.4-0.5,0.8-0.8,1.1
		c-0.2,0.2-0.3,0.4-0.5,0.5c-0.3-0.3-0.2-0.5,0-0.8c0.8-1.3,1.6-2.7,2.4-4c1.6-2.5,3.5-4.7,5.5-6.9c0.8-0.9,1.8-1.6,2.6-2.5
		c0.7-0.7,1.5-1.4,2.1-2.2c0.9-1.1,1.5-2.4,1.2-3.9c0-0.2,0.2-0.5,0.3-0.6c0.2-0.2,0.4-0.2,0.6,0c0,0.1,0.1,0.1,0.1,0.2
		c0.5,0.8,1,1.7,1.5,2.5c0,0.1-0.1,0.2-0.1,0.2c-0.5,0.5-0.6,1.1-0.3,1.8c0.2,0.5,0.1,1.2-0.3,1.7c-0.3,0.4-0.4,0.9-0.7,1.2
		c-0.2,0.2-0.4,0.5-0.7,0.6c-0.7,0.4-1.5,0.8-2.2,1.2c-1,0.5-2,1.1-2.8,1.9C174.2,110.2,173.9,110.3,173.6,110.6z"/>
	<path d="M129.8,107.8c0.2,0.2,0.4,0.3,0.5,0.4c0.7,0.8,1.3,1.6,2,2.4c0.1,0.1,0.1,0.2,0.2,0.2c0.4,0.5,0.5,0.5,1.1,0.2
		c1.5-0.8,3-1.6,4.5-2.4c0.5-0.3,1-0.4,1.6-0.6c0.8-0.3,0.8-0.3,0.6-1c-0.1-0.3-0.1-0.3,0.2-0.6c0.3,0.1,0.3,0.4,0.4,0.6
		c0.2,0.8,0.2,0.8,1.1,0.8c1.4-0.1,2.8-0.1,4.2-0.2c1.4-0.1,2.9,0.1,4.3,0.2c0.3,0,0.7,0,1,0.1c0.4,0,0.7-0.2,0.8-0.5
		c0.1-0.2,0.2-0.5,0.4-0.7c0.5,0.4,0,0.9,0.2,1.3c0.1,0.1,0.2,0.1,0.3,0.2c1.9,0.5,3.6,1.6,5.3,2.5c0.4,0.2,0.8,0.5,1.3,0.7
		c0.5,0.2,0.5,0.2,0.9-0.2c0.6-0.8,1.2-1.6,1.9-2.3c0.3-0.3,0.6-0.7,1.2-0.9c-0.1,0.3-0.2,0.5-0.3,0.7c-0.7,1.2-1.5,2.4-2.3,3.6
		c-0.4,0.6-0.5,0.6-1.2,0.3c-1.7-0.9-3.5-1.9-5.2-2.8c-0.6-0.3-1.2-0.6-1.9-0.8c-0.7-0.3-1.5-0.4-2.3-0.4c-1.8,0-3.6-0.1-5.4-0.1
		c-0.9,0-1.9,0-2.9,0.1c-1.3,0.1-2.6,0.6-3.7,1.2c-1.7,0.9-3.3,1.8-5,2.7c-0.2,0.1-0.4,0.2-0.5,0.3c-0.2,0.1-0.4,0.1-0.6-0.2
		c-0.1-0.1-0.2-0.2-0.2-0.3c-0.7-1.2-1.5-2.4-2.2-3.6c-0.1-0.2-0.2-0.4-0.3-0.6C129.7,107.9,129.7,107.9,129.8,107.8z"/>
	<path d="M103,81.3c-0.9-0.5-0.9-0.5-0.6-1.2c-0.5,0-1,0.5-1.7,0.2c0.3-0.2,0.5-0.5,0.7-0.6c0.9-0.8,1.1-2.1,0.3-3
		c-0.4-0.5-0.5-0.9-0.2-1.5c0.2-0.4,0.4-0.9,0.6-1.3c0.2-0.5,0.4-0.5,0.9-0.3c0.5,0.2,1,0.6,1.3,1.1c0.6,0.9,1,1.8,0.9,2.9
		c0,0.5,0,1-0.1,1.5c-0.5,2.2-1.8,3.8-4,4.3c-1.3,0.3-2.4,0-3.5-0.8c-1.2-1-1.7-2.4-1.6-3.9c0-0.3,0.2-0.5,0.4-0.6
		c0.5-0.2,1-0.3,1.5-0.4c0.2,0,0.4,0.1,0.5,0.2c0.1,0.2,0,0.4-0.1,0.5c-0.1,0.2-0.3,0.3-0.5,0.4c-0.7,0.4-0.9,0.8-0.8,1.6
		c0.3,1.7,2.3,2.7,3.7,2.5c0.3-0.1,0.7-0.3,0.9-0.5C102.2,82,102.6,81.7,103,81.3z"/>
	<path d="M192.4,80.3c-0.8,0.4-1.3-0.3-2-0.5c0.2,0.4,0.3,0.6,0.5,1c-0.3,0.1-0.6,0.2-0.9,0.3c0.5,0.8,1.2,1.4,2.1,1.7
		c0.9,0.3,1.7-0.1,2.5-0.5c0.8-0.5,1.2-1.3,1.4-2.2c0.1-0.6-0.2-1.1-0.7-1.3c-0.2-0.1-0.3-0.1-0.4-0.2c-0.5-0.2-0.5-0.4-0.3-1
		c0.2,0,0.5,0,0.7,0.1c0.4,0.1,0.7,0.2,1.1,0.3c0.5,0.2,0.6,0.3,0.6,0.8c-0.1,1.7-0.7,3.2-2.3,4.2c-1,0.6-2,0.6-3.1,0.3
		c-1.6-0.5-2.7-1.5-3.4-3.1c-0.8-1.8-0.8-3.5,0.2-5.2c0.4-0.7,1.1-1.1,1.8-1.6c0.2-0.1,0.4-0.1,0.6,0.2c0.3,0.7,0.7,1.4,1,2.1
		c0.1,0.3,0,0.5-0.3,0.8c-0.7,0.8-0.9,1.6-0.4,2.5c0.2,0.4,0.6,0.7,0.9,1C192.2,80.1,192.3,80.2,192.4,80.3z"/>
	<path d="M155.2,112.6c0.3,0,0.6,0,0.8,0c1.5,0.3,2.9,0.8,4.2,1.6c0.5,0.3,0.8,0.6,0.9,1.1c0.1,0.6,0.2,1.2,0.4,1.8
		c0.1,0.4,0,0.6-0.2,0.9c-3.1,2.6-6.3,5.1-10.2,6.4c-0.5,0.2-1.1,0.3-1.7,0.4c-0.2,0.1-0.5,0-0.7,0c0-0.4,0.3-0.5,0.5-0.6
		c1.2-0.6,2.4-1.1,3.6-1.8c1.6-0.9,3.2-1.7,4.6-2.9c0.8-0.7,1.5-1.4,2-2.4c0.3-0.7,0.3-1.3-0.2-1.9c-0.3-0.3-0.6-0.6-0.9-0.9
		c-0.8-0.6-1.7-1-2.6-1.3C155.5,113,155.2,113,155.2,112.6z"/>
	<path d="M138,112.8c-0.2,0.1-0.4,0.3-0.7,0.3c-0.9,0.3-1.8,0.8-2.6,1.3c-0.2,0.2-0.4,0.3-0.6,0.5c-0.7,0.7-0.8,1.5-0.3,2.4
		c0.5,1,1.2,1.7,2.1,2.4c2.5,1.8,5.1,3.2,7.9,4.5c0.5,0.2,0.5,0.2,0.7,0.5c-0.1,0.2-0.4,0.1-0.5,0.1c-2-0.3-3.9-1.1-5.6-2.2
		c-2.2-1.4-4.3-2.8-6.3-4.5c-0.4-0.4-0.6-0.7-0.5-1.3c0.2-0.6,0.3-1.3,0.5-1.9c0.1-0.3,0.3-0.6,0.6-0.8c1.4-0.8,3-1.4,4.6-1.7
		c0.2,0,0.4,0,0.6,0C137.9,112.6,137.9,112.7,138,112.8z"/>
	<path d="M130.5,90.4c0.1,0.2,0.2,0.4,0.2,0.6c0.2,2.3,1.1,4.4,2.3,6.4c0.7,1.1,1.5,2.1,2.4,3.1c0.6,0.6,0.6,0.6,1.4,0.3
		c0.4-0.2,0.9-0.4,1.3-0.5c0.2-0.1,0.3-0.1,0.5-0.1c0,0,0.1,0.1,0.1,0.1c-0.1,0.1-0.2,0.3-0.3,0.4c-0.7,0.5-1.5,1.1-2.2,1.6
		c-0.4,0.3-0.6,0.3-1-0.1c-0.7-0.8-1.5-1.6-2.1-2.5c-1.5-2-2.2-4.2-2.7-6.6c-0.1-0.7-0.2-1.4-0.3-2.1c0-0.2,0.1-0.3,0.1-0.5
		C130.4,90.4,130.5,90.4,130.5,90.4z"/>
	<path d="M162.9,90.4c0.1,0.2,0.1,0.4,0.1,0.5c-0.2,1.1-0.2,2.3-0.6,3.4c-0.5,1.9-1.3,3.7-2.5,5.3c-0.6,0.8-1.2,1.5-1.8,2.2
		c-0.1,0.2-0.3,0.3-0.5,0.4c-0.2,0.2-0.4,0.2-0.6,0c-0.9-0.6-1.7-1.2-2.5-1.8c-0.1-0.1-0.1-0.2-0.3-0.5c0.4,0.1,0.6,0.1,0.9,0.2
		c0.5,0.2,0.9,0.4,1.4,0.6c0.5,0.2,0.6,0.2,1-0.2c1.5-1.5,2.7-3.2,3.6-5.2c0.6-1.3,1.1-2.7,1.3-4.2C162.4,91,162.4,90.7,162.9,90.4z
		"/>
	<path d="M139.5,64.6c0.5,0,0.9,0.4,1.4,0.6c0.5,0.2,0.9,0.4,1.3,0.6c0.4-0.4-0.2-0.9,0.3-1.2c0.4,0.2,0.3,0.6,0.4,0.9
		c0.2,0.6,0.2,0.6,0.9,0.6c0.5,0,1-0.1,1.5-0.1c1,0,2,0,3,0c0.4,0,0.8,0.1,1.2,0.1c0.6,0,0.7-0.1,0.8-0.7c0-0.2-0.1-0.6,0.3-0.7
		c0.4,0.3,0.1,0.8,0.3,1.2c0.5-0.2,1-0.5,1.4-0.7c0.5-0.2,0.9-0.6,1.6-0.5c-0.2,0.2-0.3,0.4-0.5,0.5c-0.9,0.5-1.8,1.1-2.7,1.6
		c-0.2,0.1-0.4,0.1-0.6,0.1c-1.5,0-2.9-0.1-4.4-0.1c-0.8,0-1.6,0.1-2.4,0.1c-0.2,0-0.5-0.1-0.7-0.2c-0.9-0.5-1.7-0.9-2.5-1.4
		c-0.2-0.1-0.3-0.3-0.5-0.5C139.5,64.8,139.5,64.7,139.5,64.6z"/>
	<path d="M163.8,56.4c0.5,0,1-0.1,1.5-0.2c0.2,0,0.4-0.2,0.6-0.3c0.1-0.1,0.2-0.2,0.3-0.2c0.4-0.2,0.9-0.1,1.1,0.2
		c0.3,0.4,0,0.7-0.2,1.1c-0.7-0.1-1.3,0.7-2,0c-1,2.6-3.2,3.6-5.5,4.5c-0.1,0-0.2,0-0.5-0.1c0.3-0.2,0.4-0.3,0.6-0.4
		c0.7-0.4,1.4-0.7,2.1-1.2c0.5-0.4,1-0.9,1.4-1.3c0.3-0.3,0.3-0.8,0.3-1.2C163.4,57,163.4,56.6,163.8,56.4
		C163.8,56.3,163.8,56.4,163.8,56.4z"/>
	<path d="M191.7,78.1c0-0.5,0.4-1.1,1.1-1.1c0.7,0,1.2,0.6,1.2,1.3c0,0.7-0.5,1.1-1.1,1.1C192.2,79.4,191.7,78.8,191.7,78.1z"/>
	<path d="M101.4,78.1c0,0.7-0.5,1.3-1.2,1.3c-0.6,0-1.1-0.5-1.1-1.2c0-0.7,0.6-1.3,1.2-1.3C101,77,101.4,77.4,101.4,78.1z"/>
</g>
</svg>
