<?xml version="1.0" encoding="utf-8"?>
<!-- Generator: Adobe Illustrator 24.0.2, SVG Export Plug-In . SVG Version: 6.00 Build 0)  -->
<svg version="1.1"
	 id="Слой_1" image-rendering="optimizeQuality" shape-rendering="geometricPrecision" text-rendering="geometricPrecision" xmlns:xodm="http://www.corel.com/coreldraw/odm/2003"
	 xmlns="http://www.w3.org/2000/svg" xmlns:xlink="http://www.w3.org/1999/xlink" x="0px" y="0px" viewBox="0 0 238.1 150.2"
	 style="enable-background:new 0 0 238.1 150.2;" xml:space="preserve">
<style type="text/css">
	.st0{fill-rule:evenodd;clip-rule:evenodd;}
</style>
<g id="Layer_x0020_1">
	<path class="st0" d="M124.5,14.5c-0.1,0.3-0.2,0.5-0.3,0.8c0,0.1-0.1,0.2-0.1,0.3c-0.1,0.2,0,0.2-0.2,0.3l-2.5,6.3
		c-0.2,0.4-0.6,1.6-0.8,2c-0.1,0.2,0,0.2-0.2,0.3c0,0.4-0.9,2.2-1,2.7c-0.2,0.4-0.4,0.9-0.6,1.4c-0.1,0.2-0.4,1.2-0.5,1.3
		c-0.1,0.2,0,0.2-0.2,0.3c0,0.3-0.6,1.8-0.7,2.3c-0.8,2.3-1.4,4.7-1.9,7.1c-0.2,0.8-0.3,1.6-0.5,2.5c-0.1,0.7-0.4,1.9-0.1,2.5
		c0.1,0.3,0.5,0.5,0.7,0.7c0.3,0.3,2.4,2,2.6,2c0.6,0.2,1.4-0.9,1.7-1.2c0.9-0.7,0.8-0.4,2.5-0.4c2,0,4,0.1,6,0.1
		c1.4,0,3,0.1,4.4-0.1c0.7-0.1,0.8,0,1.2,0.4c0.9,0.8,0.7,0.6,1.4,1.6c0.2,0.2,1.1,1.6,1.1,1.9c-0.1,0.1,0.1,0-0.2,0.1
		c-0.1,0-0.1,0-0.2,0l-1-0.2c-0.3-0.1-2.9-1.3-3.1-1.6c-0.2,0-1-0.4-1.5-0.5c-0.7-0.2-1.2-0.1-1.8,0.1c-0.5,0.2-2.8,0.9-3.2,0.8
		c-0.2,0.2-0.6,0.2-1,0.3c-0.3,0.1-0.7,0.2-1,0.2c-0.6,0.2-1.3,0.4-2,0.5l-2.2,0.5l-1.8,0.4c-0.5,0.2-4.9,1.1-5.2,1.1l-0.5,0.2
		c-0.3,0.1-3,0.6-3.1,0.6c-0.2-0.5,0-4.9,0.1-5.4c0-0.3,0.1-0.6,0.1-0.9c0-0.1,0-0.3,0-0.4l0.1-0.3c-0.1-0.5,0.1-1.1,0.1-1.5
		l0.2-1.6c0-0.2,0-0.1,0.1-0.2c-0.1-0.5,0.9-7.2,1.1-7.5c0-0.1,0-0.2,0-0.3c0-0.1,0-0.1,0.1-0.1c0-0.4,0.6-2.6,0.7-3.1
		c0.1-0.5,0.3-1,0.4-1.5c0.2-0.4,0.4-1,0.5-1.5c0.1-0.2,0.1-0.3,0.2-0.5c0-0.1,0.1-0.2,0.1-0.3c0.1-0.2,0.1-0.1,0.1-0.2
		c0-0.3,0.8-2.4,1-2.8c0.4-1,0.7-1.8,1.1-2.7c0.3-0.6,2.3-5,2.5-5.1c0.1-0.2,0-0.1,0.1-0.3c0-0.2,0.4-0.8,0.5-1
		c0.1-0.3,0.4-0.7,0.4-1.1c-0.1-0.1-0.1-0.1-0.3-0.1c0,0.1-0.5,0.7-0.6,0.7c-0.1,0.2-0.5,0.9-0.6,1l-1,1.9c-0.6,1-1.5,2.8-2,3.9
		l-2.9,5.8c-0.6,1.2-0.9,1.9-1.4,3c-0.1,0.3-0.3,0.7-0.4,1c0,0.2-0.1,0.3-0.2,0.4c0,0.1,0,0.1-0.1,0.2c-0.1,0.2,0,0.1-0.1,0.2
		l-1.8,4.8c-0.1,0.4-0.2,1.1-0.5,1.4c0,0.3-0.5,2-0.6,2.5c-0.1,0.4-0.4,2.3-0.5,2.5c0,0.3-0.1,0.8-0.2,1c0,0.5-1.3,6.5-1.5,7.2
		c-0.4,1.3-0.5,1.6,0.4,2.3l2.9,2.3c0.2,0.1,0.1,0,0.1,0.1l0.4,0.3c0.6,0.3,1,1.2,2,0.5c0.2-0.1,0.1-0.1,0.3-0.1
		c0.2-0.2,0.4-0.4,0.7-0.6c0.8-1,6-2.8,7.8-3.3l0.9-0.3c1-0.3,7.4-1.7,8.3-1.5c0.2-0.1,0.5-0.1,0.7-0.1c0.2,0,0.5,0,0.7-0.1
		c2.2-0.1,4.6,0.1,6.4,1.2c0.4,0.3,1.3,0.7,1.1,1.3c-0.2,0.2-0.4,0.3-0.7,0.3c-0.3,0.2-1.6,0.2-1.9,0.3c-0.9,0.1-3.6,0.2-4.5,0.1
		c-0.6-0.1-2.7-0.4-3.2-0.1c-0.3,0.2-0.4,0.5-0.6,0.6c-0.1,0.2-0.1,0.2-0.3,0.3c-0.4,0.7-2.1,2.1-2.5,2.5c-0.2,0.2-0.3,0.3-0.5,0.5
		l-3.3,2.7c-0.4,0.3-2,1.6-2.3,1.8l-0.1,0.1c-0.1,0.2-1.6,1.3-1.9,1.5l-1.5,1.1c-0.2,0.1-0.3,0.2-0.5,0.4c-0.7,0.5-1.3,1-1.9,1.5
		c-1.1,0.9-5,3.8-6,4.4c-1.7,1-2.7,1.5-4.5,0.6c-0.2-0.1-0.4-0.3-0.6-0.3c-0.2,0.4-0.1,3.8,0,4.5l0,1.3l0.1,3.6
		c0.1,0.2,0.1,0.7,0.1,1c0.1,0.5,0.2,2.1,0.3,2.8c0.4,3.7,1.6,9.7,2.7,13.1l1.5,4.8c0,0,0.1,0,0.1,0.1c0.1,0.2,0-0.2,0.1,0.2
		c0,0,2.1,5.5,2.1,5.5l0.1,0.2c0,0.1,0.1,0.2,0.1,0.3c0.1,0.2,0.2,0.4,0.2,0.6c0.3,0.8,0.6,1.5,1,2.3c0.2,0.4,1,2,1,2.3
		c0.2,0.2,0.3,0.5,0.4,0.8c0.1,0.3,0.3,0.6,0.4,0.8c0.3,0.5,0.7,1.2,0.9,1.7l0.2,0.3c0.1,0.1,0.1,0.2,0.2,0.3c0.2,0.4,1,2.1,1.4,1.8
		c0-0.1,0,0,0.1-0.2c0-0.2-0.1-0.4-0.1-0.6c-0.4-1.3-2.3-4.8-2.3-5.6c-0.2-0.2-0.3-0.6-0.3-0.9l-0.3-0.8l-0.4-1.4
		c-0.1-0.5-0.3-1-0.4-1.5c-0.1-0.4-0.4-1.2-0.4-1.5l-0.2-0.4c-0.1-0.9-0.8-3.1-1.1-4.3c-0.6-3.1-1.3-5.9-1.8-9.1
		c-0.1-1-0.6-4.1-0.5-5c-0.2-0.3-0.1-1-0.1-1.4c-0.2-0.2-0.1-6.8-0.1-7.7c0-2.3-0.2-2.1,1-3.9c0.2-0.3,0.3-0.3,0.5-0.5
		c0.7-0.9,1.2-1.2,1.9-2c0.7-0.7,4.8-4,5.5-4.5l2-1.5c0.2-0.1,0.2-0.1,0.3-0.2c0.2-0.3,0.6-0.6,0.9-0.7c0.1-0.2,0.5-0.4,0.7-0.6
		c0.3-0.2,0.5-0.4,0.8-0.6l1.4-1.1c0.1-0.1,0.3-0.2,0.4-0.2c0.3-0.2,0.7-0.6,1.1-0.8c0.2-0.2,1.5-1.2,1.8-1.3c0-0.1,0-0.1,0.1-0.1
		c0.1-0.2,1-0.7,1.2-0.9l3.9-2.7c2-1.3,5.8-0.9,7.7-1.1c-0.1,0.3-0.8,0.9-1.1,1c-0.1,0.2-0.3,0.2-0.4,0.4c-0.2,0.2-0.2,0.2-0.4,0.4
		c-0.3,0.3-0.6,0.6-0.9,0.8c-0.1,0.2-1.9,1.8-2.2,2c-0.2,0.1,0,0.1-0.2,0.1c-0.1,0.1,0,0.1-0.2,0.1c-0.1,0.2-0.5,0.4-0.6,0.5
		c-0.6,0.5-2.2,1.8-3.1,1.7c-0.6,0-1.1-1-1.5-0.1c-0.5,1,0.4,9.5,0.1,10.5c0,0.1,0,0,0.1,0.2c0,0.1,0,0.1,0,0.2c0,0.2,0,0.3,0,0.5
		c0.1,0.5,0.1,2,0,2.5c0.1,0.1,0.1,0.1,0.1,0.3c0,0.2,0,0.3,0,0.5c0,0.3,0,0.5,0,0.8c0.1,3.8,0.3,7.7,0.4,11.5
		c0.1,1.6,0.5,6.4,0.7,8.2c0.1,0.5,0.3,2.3,0.3,2.7c0.1,0.2,0.1,0.2,0.1,0.4c0.3,2.1,0.6,4.1,1,6.1c0.2,1,0.4,2,0.6,3
		c0.1,0.5,0.7,2.7,0.6,2.9c0,0,0,0,0,0c0,0,0,0,0,0c0,0,0,0.1,0,0.1c0,0.1,0,0.2,0.1,0.3c0,0.2,0.1,0.3,0.1,0.5c0.2,1,0.5,2,0.8,2.9
		c0.1,0.4,0.9,2.7,0.8,2.9c0.1,0.1,0,0,0.1,0.2c0,0,0.1,0.2,0.1,0.3c0,0.1,0.1,0.3,0.2,0.4c0.1,0.5,0.5,1.5,0.7,2
		c0.3,0.9,1.2,2.8,1.6,3.7c0.1,0.3,0.8,1.6,0.9,1.8l0.3,0.4c0.1,0.2,0.2,0.3,0.2,0.5c0.2,0.1,0.8,1.2,0.8,1.4l1.2,1.6
		c2,2.5,1.9,0.2,1.2-1.1c-0.3-0.6-0.6-1.2-0.9-1.8c-0.6-1.1-3-7-3-7.9c-0.1-0.1-0.1-0.2-0.2-0.4c0-0.2-0.1-0.3-0.1-0.5
		c-0.1-0.3-0.2-0.6-0.3-0.9c-0.2-1-0.9-3.1-1.2-4.7c-0.2-0.8-0.3-1.6-0.5-2.4c-1.6-8.1-1.9-16.3-2-24.6c0-3.1,0.1-5.7,0.2-8.7
		c0-0.6,0.1-2.3,0.1-2.8c0-0.3,0-0.5,0.1-0.7l0-0.5c0-0.2,0-0.1,0.1-0.1c-0.1-0.6,0.1-2.7,0.2-3.5c0.1-1.1,0.3-2.4,0-3.4
		c-0.1,0-0.1,0-0.1-0.1c-0.1-0.1,0,0-0.1-0.1c-0.3-0.1-1.1-0.6-1.1-1c0-0.4,0.6-1.1,0.9-1.3l2-2.1c0,0,0.1-0.1,0.1-0.1
		c0.1-0.1,0,0,0.1-0.1c0.3-0.6,2.5-2.6,3.2-3.2c0.2-0.1,0.2-0.2,0.4-0.3c0.5-0.4,2.2-1.7,2.8-1.6c0.5,1.2-1.8,4-2.2,4.9
		c-0.4,0.9-0.3,2.3-0.1,3.3c0.1,0.6,0.5,2.8,0.5,3.2c0.2,0.3,0.2,1,0.3,1.4c0.1,0.8,0.3,1.6,0.4,2.4c0.1,0.5,0.5,2,0.4,2.4
		c0.2,0.3,0.2,0.9,0.3,1.2c0.1,0.5,0.2,1,0.4,1.5c0.1,0.3,0.4,1.3,0.5,1.5l1.2,3.3l2.1,5.4c0.2,0.6,0.5,1.3,0.7,1.8l0.7,0
		c0.1-0.4,0.1-0.7,0.2-1.2c0-0.6-0.1-0.8,0.6-0.7l0.2,1.9l0.8,0c0.5-1.2,1-2.5,1.5-3.7l1.5-3.8l0.4-0.9c0-0.3,0.5-1.6,0.7-2
		c0.2-0.7,0.5-1.4,0.7-2.1c0.4-1.5,0.6-3,1-4.5c0.1-0.2,0-0.3,0.1-0.4c0-0.5,0.2-1.3,0.3-1.8l0.6-3.5c0.1-0.5,0.2-1.3,0.3-1.8
		c0-0.2,0-0.4,0.1-0.5c0-0.4,0-0.8,0-1.2c0-0.4-0.1-0.9-0.1-1.2c0,0,0-0.1,0,0c0,0.1,0,0-0.2-0.3c-0.1-0.2-0.1-0.1-0.2-0.3
		c-0.4-0.8-2.4-3.4-2-4.5c0.3-0.3,3.1,1.7,3.5,2.1c0.2,0.1,0.4,0.3,0.6,0.4c0.2,0.2,0.4,0.3,0.5,0.5c0.2,0.1,0.4,0.3,0.6,0.5
		l0.4,0.3c0.2,0.2,0.9,0.9,1,1.1c0.2,0.1,0.3,0.2,0.4,0.4c0.1,0.2,0.3,0.3,0.4,0.4c0.5,0.5,2.4,2.3,2.1,3c-0.1,0.3-0.7,0.6-0.9,0.8
		c-0.4,0.3-0.4,0.6-0.5,1.3c0,0.9,0.5,8.5,0.6,9.9c0.1,1.1,0.1,2.3,0.1,3.4c0,0.9,0.1,2.7,0,3.5c0.2,0.3,0.1,1.2,0.1,1.6
		c0,0.6,0,1.1,0,1.7c0,0.5,0.1,3-0.1,3.3l0,1.1c0,3.9-0.5,7.6-0.8,11.4c0,0.2-0.1,0.3-0.1,0.5c0,0.1,0,0.2,0,0.3
		c0,0.2,0,0.1-0.1,0.3c0.1,0.6-0.4,3.3-0.5,4c-0.2,1.3-0.5,2.6-0.7,3.9c-0.1,0.3-0.1,1-0.3,1.2c0,0.5-0.5,2.2-0.6,2.8l-0.4,1.4
		c0,0.5-1.8,6.1-2.1,6.4c0,0.2,0,0.2-0.1,0.4c-0.1,0.2-0.1,0.2-0.2,0.3c0,0.4-1.1,2.7-1.3,3.2c-0.4,0.7-1.4,2.4-1.3,3.3
		c0.3,1.7,2.8-2.3,3.1-2.8c0.1-0.2,0.8-1.3,0.9-1.4c0.1-0.2,0.3-0.7,0.5-0.9l1.2-2.5c1.3-2.8,2-5,3-8c0.6-1.9,1-3.9,1.5-5.8
		c0.3-1,0.4-2,0.6-3c0.2-1,0.3-2.1,0.6-3.1c0.1-0.3,0.1-0.7,0.2-1.1c0-0.2,0-0.3,0.1-0.5l0.1-0.6c0-0.3,0.4-2.9,0.4-3.5
		c0.2-1.2,0.3-2.3,0.4-3.5l0.1-0.7c0-1,0.2-2.3,0.3-3.2c0.3-2.6,0.2-5.7,0.4-8.4c0-0.5,0-1.2,0.1-1.7c0-0.1,0-0.3,0-0.4
		c0-0.1,0-0.1,0-0.2c0-0.2,0-0.1,0.1-0.2c-0.1-0.3,0-2.9,0.1-3.4c0.1-1.1,0-2.2,0.1-3.3l0-0.4l0.1-3.2c0-0.4,0-2.5,0.1-2.6l0-0.7
		c0.1-0.5,0-2.8,0.2-3c-0.1-0.5,0-1.1-0.1-1.6c-0.1-0.2-0.2-0.4-0.2-0.5c-0.2-0.1-0.1-0.1-0.2-0.2c-0.5,0.1-0.3,0-0.7,0.3
		c-0.2,0.2-0.5,0.2-0.8,0.2c-0.4-0.1-1.1-0.4-1.3-0.7c-0.3-0.1-0.6-0.4-0.8-0.6c-0.2-0.1-0.3-0.2-0.4-0.3c-0.2-0.1-0.3-0.2-0.4-0.3
		c-0.2-0.1-0.7-0.5-0.8-0.7l-0.2-0.1c-0.1-0.1-2.6-2.1-2.7-2.3l-0.3-0.2c-0.2-0.2-0.3-0.3-0.6-0.5c-0.2-0.2-0.4-0.2-0.5-0.5
		c-0.2-0.1,0,0-0.1-0.1c-0.1-0.1,0,0-0.1-0.1c-0.2-0.1-0.6-0.4-0.7-0.7c2.4,0.1,6.1-0.1,8.1,1.3c0.3,0.2,0.6,0.4,0.9,0.6l0.7,0.5
		c0.2,0.1,0.1,0.1,0.2,0.2c0.2,0.1,0.1,0,0.2,0.2c0.3,0,0.4,0.3,0.7,0.5c2,1.5,4.5,3.3,6.4,4.9c1.5,1.2,2.7,2.1,4.1,3.1
		c0.2,0.1,0.1,0,0.1,0.1l0.3,0.2c1,0.7,5.8,4.5,6.1,5.1l0.2,0.1c0.4,0.3,1.6,1.7,2.1,2.2c0.7,0.9,1.1,1.6,1,3.2
		c-0.1,1.3,0,2.9,0,4.2c0,1.4-0.1,2.9-0.1,4.3l0,0.6c0,0,0,0,0,0.1l-0.1,0.2c0.2,0.9-0.4,5.4-0.6,6.5c-0.2,1-0.3,2-0.6,3
		c-0.2,1-0.4,2.1-0.6,3l-0.1,0.7c0,0,0,0.1,0,0.1c0,0.1,0,0.1-0.1,0.1c0,0.7-1.9,7.6-2.3,8.8c-0.4,1.4-0.9,2.8-1.4,4.2
		c-0.2,0.6-0.5,1.4-0.8,2l-0.9,1.9c-0.2,0.4-0.3,0.8-0.3,1.3c0.7,0,1.2-1.3,1.7-2.2c0.5-0.8,0.9-1.7,1.4-2.6
		c2.1-3.9,5.6-13.4,6.7-17.4c0-0.1,0-0.2,0.1-0.3c0,0,0-0.1,0.1-0.2c0.1-0.1,0-0.1,0.1-0.2c0-0.3,0.4-1.7,0.6-2.1
		c0.2-0.7,0.4-1.5,0.6-2.2c0.3-1.5,0.7-3,0.9-4.7c0.1-0.4,0.1-1.3,0.3-1.6l0.4-3.5c0.2-1.8,0.6-10.7,0.3-11.4
		c-0.4-0.1-1.5,1.3-3.4,0.5c-1.7-0.7-2.9-1.6-4.2-2.6c-0.5-0.4-0.8-0.6-1.3-1c-0.4-0.3-0.9-0.7-1.3-1c-0.4-0.3-0.9-0.6-1.3-1l-6.4-5
		c-0.4-0.3-0.9-0.7-1.3-1c-0.4-0.3-2.4-1.9-2.5-2c-0.2-0.1-0.1,0-0.2-0.1c-0.3-0.1-0.6-0.5-1-0.8c-0.2-0.1-0.3-0.3-0.5-0.4
		c-0.2-0.1-0.3-0.2-0.4-0.4l-0.7-0.6L165,56c-0.3-0.2-1.1-1.2-1.3-1.5c-0.2,0-0.4-0.2-0.7-0.3c-0.4,0-0.7,0.1-1.1,0
		c-0.2,0.1-0.2,0.1-0.5,0.1c-1.6,0.2-7.4,0.2-8.4-0.6c0-0.8,0.7-1.1,1.3-1.4c2.5-1.2,4.2-1.3,7.1-1.1c1.6,0.1,3.3,0.4,4.8,0.7
		c0.8,0.2,1.5,0.3,2.3,0.5c0.6,0.2,1.6,0.4,2.2,0.6c0.1,0,0.3,0.1,0.3,0.1c0.1,0,0.1,0,0.2,0.1c0.1,0.1,0.1,0,0.1,0.1
		c0.4,0,5.6,1.9,5.8,2.2c0,0,0.1,0,0.1,0c0,0,0.1,0,0.1,0c0.1,0.1,0.1,0,0.1,0.1c0.3,0,1.4,0.8,1.6,1c0.9,0.7,1.6,1.3,2.6,0.3
		l2.3-1.9l0.2-0.1c0.1-0.2,0.5-0.5,0.6-0.6c0.1-0.1,0.3-0.2,0.4-0.3c0.1-0.1,0.2-0.2,0.3-0.3c0.5-0.5,0.7-0.6,0.2-2
		c-0.6-1.7-1.7-8.3-2.3-11c-0.1-0.4-0.5-1.9-0.5-2.2c-0.1-0.2-0.1-0.1-0.2-0.3c0-0.1-0.1-0.2-0.1-0.4c-0.1-0.3-0.2-0.5-0.2-0.7
		c-0.3-0.8-0.6-1.7-0.9-2.5c-0.2-0.5-0.9-2.1-0.9-2.5l-0.1-0.1c-0.2-0.2-0.2-0.5-0.3-0.7c-0.2-0.2-0.9-2.1-1.1-2.5
		c-0.2-0.4-1.1-2.1-1.1-2.4c-0.2-0.2-0.1-0.2-0.3-0.4c-0.3-0.8-1.3-2.4-1.5-3.2c-0.2-0.2-2.3-4.4-2.3-4.5c-0.1-0.1-0.1,0-0.2-0.2
		c-0.2-0.5-0.5-1-0.8-1.5c-0.3-0.5-0.7-1.1-0.9-1.5c-0.1,0,0,0-0.1-0.1c-0.2-0.3-0.4-0.7-0.8-1c-0.2,0-0.3,0-0.3,0.2
		c0.1,0.4,0.8,1.5,0.8,1.8c0.2,0.1,0.1,0,0.2,0.2l2.6,5.3l0.2,0.4c0.7,1.7,1.3,3.4,2,5.1c0.3,0.7,1.6,5,1.6,5.5l0.1,0.2
		c0.1,0.7,0.8,3.2,0.7,3.6c0,0,0,0,0,0.1l0.3,1.6c0.1,1.3,1.1,8.3,0.9,9.1c0.1,0.2,0.1,1.3,0.1,1.6c0,0.5,0.1,3.1,0,3.5l-0.3,0
		c-0.3-0.1-0.6-0.1-0.8-0.2c-0.3,0-2-0.3-2.2-0.4c-0.1,0-0.1,0-0.2,0c0,0,0,0-0.1,0c0,0,0,0,0,0c-0.6,0.1-4.9-1.1-5.9-1.2
		c-0.2-0.1-0.5-0.1-0.7-0.2c-0.3,0-2.7-0.6-3.2-0.7c-0.6-0.1-1.2-0.3-1.9-0.5c-0.3-0.1-0.6-0.1-0.9-0.2c-0.1,0-0.3-0.1-0.5-0.1
		l-0.4-0.1c0,0,0,0,0,0c-0.4,0-2-0.5-2.5-0.7c-0.8-0.1-1-0.4-2-0.3c-0.8,0.1-1.7,0.6-2.3,0.9c-0.5,0.2-1.7,1.1-2.2,1.1
		c-0.1,0.1,0.1,0-0.2,0.1c0,0-0.2,0.1-0.2,0.1c-0.2,0-0.2,0-0.4,0.1c-0.2,0-0.5,0.1-0.7,0.1c-0.4-0.1,0.2,0.1-0.1,0l-0.1,0
		c-0.1-0.4,2.2-4,3.4-3.9c1.7,0.2,8.8,0.1,11.1,0c2-0.1,1.6,0,2.7,1c0.9,0.9,0.9,0.8,2.2-0.2l2.1-1.7c0.1-0.4,0.3-0.4,0.3-1.1
		l-0.6-3.2c-0.1-0.6-0.9-4-0.9-4.1l-0.3-0.8c-0.1-0.3-0.1-0.5-0.2-0.8c-0.1-0.4-0.7-2.1-0.7-2.4c-0.3-0.3-0.5-1.4-0.7-2
		c-0.2-0.6-0.5-1.3-0.7-1.9c-0.3-0.8-0.6-1.5-0.9-2.2c-0.3-0.7-0.7-1.6-0.9-2.3l-0.4-1.2c-0.1-0.2-0.9-2.3-1.1-2.7
		c-0.2-0.5-0.4-0.9-0.5-1.4c-0.1-0.3-0.2-0.5-0.3-0.7c-0.1-0.3-0.2-0.4-0.2-0.7c-0.2-0.2-0.3-0.5-0.4-0.8c-0.2-0.5-0.4-1-0.6-1.5
		c-0.3-0.6-0.5-1.3-0.9-1.2l0,0.4l0.1,0.3c0.1,0.7,1,3.8,1,4.1c0.2,0.2,0.1,0.3,0.2,0.7c0.2,0.4,1.3,5.2,1.3,5.4
		c0.1,0.1,0-0.1,0.1,0.1c0.4,1.4,2.4,10.2,2.2,11.1l0.1,0.2c0.1,1.1,0.8,5.9,0.4,6.7c-0.5,0.4-4.2,0.4-5.1,0.4c-4.4,0-3.6,0-7.6-0.7
		c-1-0.2-1.5-0.3-2.2,0.3l-0.8,0.6c-0.3,0.2-0.5,0.5-0.7,0.7c-0.2,0.2-0.5,0.4-0.7,0.7c-0.1,0.1-0.2,0.2-0.3,0.3
		c-0.2,0.2-0.2,0.2-0.4,0.3c-0.1,0.2,0,0.1-0.3,0.2c0,0.1-0.2,0.3-0.3,0.4c-0.3,0.3-1,1-1.3,1.1c0.6-3.5-2.4-4.2-3.6-3.7
		c0,0.5,0.4,0.6,0.7,0.9c1.7,1.6,1.2,3.3,0.8,3.4c-0.8-0.1-0.3-1.6-1.7-1.3c-0.5,0.1-0.4,0.5-0.8,0.7c-0.3,0.2-1,0.2-1.3,0
		c-0.2-0.2-0.3-0.3-0.4-0.5c-0.3-0.1-0.1,0-0.2-0.1c-0.6,0-1-0.2-1.3,0.4c-0.1,0.3-0.1,0.8-0.6,0.8c-0.3,0-0.2-0.1-0.2-0.3
		c-0.2-0.2-0.2-0.9-0.1-1.1c-0.2-1.3,1.8-2.3,1.8-2.9c-0.4-0.4-1.1-0.1-1.6-0.1c-0.1,0.1,0,0-0.1,0.1c-0.6,0.3-0.6,0.1-1.2,0.8
		c-0.6,0.6-0.5,0.6-0.6,1.4l0,1.3c0,0.2,0,0.1-0.1,0.1c-0.4-0.2-2.7-2.5-2.9-2.7c-0.3-0.1-0.4-0.3-0.6-0.5l-1.7-1.4l-0.7-0.1
		c-2.1,0.1-3.9,0.9-6.7,0.9c-1.2,0-6.2,0-7-0.5c-0.3-0.6,0.1-2.7,0-3.3l0.1-0.8c0-0.1,0-0.2,0-0.3c0,0,0,0,0-0.1l0.1-0.2
		c-0.1-0.4,0.4-2.8,0.4-3.4c0-0.2,0-0.2,0.1-0.3c0-0.3,0.3-2.4,0.4-2.6c0-0.3,0.1-0.6,0.1-0.9c0-0.1,0.1-0.3,0.1-0.4
		c0,0,0.1-0.2,0.1-0.2l0.1-0.2c-0.1-0.6,1.6-7.2,1.9-8.3c0.1-0.3,0.1-0.5,0.2-0.7c0-0.3,1.2-4.8,1.4-5.5c0-0.3,0-0.1,0.1-0.2
		c-0.1-0.6,0.5-1.2,0.3-1.9C124.7,13.8,124.7,14.4,124.5,14.5L124.5,14.5z"/>
</g>
</svg>
