<?xml version="1.0" encoding="utf-8"?>
<!-- Generator: Adobe Illustrator 24.0.2, SVG Export Plug-In . SVG Version: 6.00 Build 0)  -->
<svg version="1.1" id="Слой_1" xmlns:xodm="http://www.corel.com/coreldraw/odm/2003"
	 xmlns="http://www.w3.org/2000/svg" xmlns:xlink="http://www.w3.org/1999/xlink" x="0px" y="0px" viewBox="0 0 238.1 150.2"
	 style="enable-background:new 0 0 238.1 150.2;" xml:space="preserve">
<style type="text/css">
	.st0{fill-rule:evenodd;clip-rule:evenodd;fill:#2B2A29;}
</style>
<g id="Слой_x0020_1">
	<path class="st0" d="M182.3,131.5c0.1-0.4,0.1-0.2,0.4-0.5c0.2-0.2,0.3-0.3,0.5-0.5c0.4-0.4,0.5-0.5,1-1l1.3-1.6
		c0.3-0.4,0.1-0.4,0.6-0.4c0,0.7-0.8,1.2-1.1,1.8c-0.4,0.6-0.7,0.9-1.4,1.5C183.3,131.2,182.8,131.8,182.3,131.5L182.3,131.5z
		 M160.3,119.4l0.3,0c0.2,0.5,0.3,0.9,0.5,1.4c0.1,0.2,0.3,0.4,0.3,0.6c0.1,0.5-0.1,0.5,0.2,0.8c0.7-0.3,0.1-0.7-0.1-1.3
		c-0.1-0.6-0.5-1.4-1-1.8c-0.1-0.7-0.7-0.8-0.8-0.1c-0.1,0.4,0.1,0.9-0.1,1.1c-0.1,0.1,0.1,0.1-0.1,0c-0.5-0.1-0.8-0.8-1.3-0.7
		c0,0.4,0,0.7,0.1,1c0.1,0.3,0.1,0.3,0.2,0.5c0.1,0.3,0,0.2,0.1,0.5c0.2,1.1,0.6,1.3,0.2,1.8c-0.1,0.1-1.6,0.5-2-0.2l-0.6,0
		c-0.1,0.6-0.1,0.4,0.2,0.9c0.1,0.2,0.2,0.4,0.3,0.6c0.2,0.4,0.5,0.8,0.7,1.1l0.4,0.1l-0.1-0.4c-0.3-0.1-0.2-0.2-0.4-0.6
		c-0.3-0.4-0.3-0.2-0.3-0.9c0.6,0.2,0.2,0.1,0.7,0.8c0.2,0.3,0.4,0.3,0.5,0.8c0.2,0.2,0.1-0.3,0.2,0.3c-0.2,0.3-0.5,0.3-0.7,0.4
		l-0.9,0.1c0,0.4,0,0.4,0.2,0.6c0.2,0.3,0.2,0.3,0.3,0.5c0.5,0.9,2.1,2.4,2.2,2.9c-0.8,0-1.7-1-2.2-1.4c-0.6-0.5-1.6-1-2-1.6
		c-0.3,0-0.7-0.5-1.2-0.8c-0.4-0.3-0.5-0.4-0.9-0.1l0,0.7c0.3,0,0-0.1,0.5,0.8c0.7,1.2,2.1,3.3,3.1,4.2c0.3,0.3,1.2,1.2,1.4,1.5
		c0.6,0.2,0.7,0.5,1.2,0.8c0.5,0.4,0.6,0.5,1.1,0.9l1.7,1.2c0.3,0.2,0.5,0.2,0.6,0.6l-3.6-1.7c-0.2-0.1-0.2-0.2-0.5-0.4
		c-0.5-0.2-0.4,0.1-0.6-0.5c-0.4,0-0.3-0.1-0.6-0.2c-0.2-0.1-0.4-0.1-0.6-0.2c-0.2-0.1-0.2-0.2-0.4-0.3c-0.1-0.1-0.4-0.2-0.5-0.3
		c-1.4-0.8-0.6-0.5-1.7-1.3c-1.3-0.8-2.8-2.5-3.7-2.4c-0.1,0.8,0.4,1.9,0.7,2.5c0.4,0.8,0.8,1.3,1.3,2c0.9,1.5,0.8,1,1.4,1.9
		c1,1.4,3.2,2.5,3.4,3.2c0.2,0.2,0.5,0.4,0.7,0.6c0.8,1.1,0.8,1.2,1.3,2.2c0.4,0.7,2.1,1.6,3,1.8l-0.1,0.2c0.7,0.1,0.9,0,1.5,0.2
		l0.5,0.1c0.6,0.2,0.4-0.1,0.5,0.2c1,0.2,1,0.4,1.5,0.8c0.7,0.7,0.8,0.3,1.9,0.5c0.4-0.6,1.8,0.1,1.8,0.1l0.8,0.2
		c0.3,0.1,0.8,0.1,1,0.1l0,0c0.6,0.1,0.8,0.1,1.5,0.1c0.7,0,0.9,0.1,1.3,0.3c0.8,0.4,1.2,0.3,1.9,0.1c0,0,0.1,0,0.1,0l0.5-0.1
		c0,0,0,0,0.1,0c0.3-0.4,0.9-0.3,1.7-0.3c0.5,0,1-0.2,1.3-0.4c1-0.3,0.6-0.3,1.9-0.9c0.4-0.2,0.1-0.1,0.5-0.4
		c0.4-0.3,0.8-0.5,1.2-0.6c0.1-0.2,2.1-1.3,2.5-1.6c0.4-0.3-0.3,0.3,0.1-0.1c0.2-0.2,0.7-0.6,1-0.7c0.2-0.4,0.5-0.7,0.8-1
		c0.1-0.1,0.3-0.4,0.4-0.5c0.2-0.3,0.1-0.4,0.3-0.6l0.8-1.3c0.3-0.5,0.3-0.7,0.7-1.2c0,0,0,0,0,0s0,0,0,0c0.2-0.5,0.5-0.9,0.6-1.3
		c0.2-0.5,0.3-1,0.6-1.3c0.7-1.9,2.8-1.4,3.4-3l0.2-0.6c0.3-1,0.1-1.6,0.8-2.6c0.3-0.4,1.1-1.8,1.4-1.9c0.1-1.1,0-0.9,0.4-1.9
		c0-0.1,0-0.1,0.1-0.2c0.1-0.2,0.1-0.2,0.2-0.2c0.2-0.5,0.2-0.6,0.5-1c0.3-0.4,0.4-0.4,0.6-0.9l0.3,0c0.1-0.4,0.7-1.1,1.1-1.2
		c0.1-0.3,0.9-1,1.1-1.1c0.2-0.2,0.7-0.9,1.1-1c0.2-0.3,0.2-0.3,0.4-0.6c0.2-0.3,0.2-0.3,0.5-0.5c0.5-0.4,0.5-0.7,0.9-0.9l1.5-1.5
		c0.3-0.3,1.7-1.7,2.2-1.8c0.2-0.4,0-0.2,0.4-0.4c0.8-0.4,0.5-1,1.5-1.8c0.4-0.6,1.1-1.1,1.2-1.2c0,0,0.1,0,0.1-0.1c0,0,0,0,0.1-0.1
		c0,0,0.1-0.1,0.1-0.1c0.2-0.3,1.2-1.2,1.4-1.2c0.2-0.5,1.1-0.9,1.5-1.2c0.5-0.4,1.2-0.8,1.9-0.8c0.8-0.1,1.6-0.3,2.4-0.4
		c0.9,0,1.7,0,2.6,0c0.9,0,1.6,0.1,2.6,0.1c0.6,0,0.5,0.2,1.1,0.2c0.5,0,0.7-0.1,1.2,0.1c0.3,0.1,0.6,0.3,1,0.4l3,1
		c0.3,0,0,0,0.2,0.1l0.4,0.2c0.5,0.2,1.7,0.7,1.9,1c0.3,0.1,1.3,0.6,1.6,1c0.4,0,0.9,0.5,1.3,0.8c0.3,0.2,0.3,0.3,0.6,0.5
		c0.2,0.1,0.4,0.3,0.5,0.5c0.4,0.3,0.5,0.5,0.8,0.6V21.7c-0.3-0.2-0.6-0.5-0.9-0.8c-0.3-0.3-0.4-0.6-0.7-1c-0.3-0.4-1.3-1.4-1.8-1.6
		c-0.3-0.2-0.5-0.5-0.8-0.8c-0.3-0.2-0.6-0.3-0.8-0.7l-2.2-2c-0.4-0.4-0.7-0.7-1.1-1.1c-0.7-0.6-0.1-0.3-0.9-1l-1.2-1.1
		c-0.4-0.3-0.6-0.7-1.1-1c-0.5-0.3-0.2-0.1-0.6-0.5L223.4,9l-1.4-0.6c-0.3-0.1-0.4-0.2-0.6-0.3l-1.1-0.5c-0.3-0.1-0.1,0-0.4-0.1
		l-1.3-0.6c-0.3-0.1-0.2,0-0.4-0.1c-0.3-0.1-0.1,0-0.3-0.2L216.5,6c-0.4-0.2-0.5-0.1-0.8-0.2c-0.3-0.1-0.2-0.2-0.6-0.4
		c-1.4-0.3-0.2-0.1-1.5-0.5c-0.4-0.1-1.1-0.3-1.5-0.5L210.7,4c-0.5-0.2-1.1-0.2-1.5-0.4c-0.8-0.4-0.9-0.1-1.6-0.3
		C206.8,3,207,3,206,3l-1.5-0.4c-0.6-0.2-1.3,0-1.9-0.1c-0.5-0.1-0.1-0.2-0.7-0.2c-0.2,0-0.7,0-1,0c-0.6,0-1.2,0-1.8,0l-0.2,0
		c-0.2,0.4-1.1,0.2-1.5,0.2c-1.3,0-0.7-0.1-1.8,0.2c-1.1,0.2-3.2,0.1-4.4,0.4c-0.4,0.1-0.2,0.2-0.8,0.2c-0.7,0-1.9,0-2.6,0.3
		c-1,0.4-1-0.1-2.1,0.4l-0.2,0.1c0.1,0.9,0.5,0.3,0.4,1.1c-0.3,0.1-0.5,0.1-0.8,0.1c-0.7-0.1-0.4-0.4-1.2-0.2
		c-0.2,0.1-0.3,0.2-0.5,0c0.1-0.3,0,0,0.2-0.2c0.3-0.3,0.2,0,0.3-0.3c0.1-0.3,0.1-0.3,0-0.6c-0.4,0-0.6,0.1-1.2,0.3
		c-0.4,0.1-1.1,0.1-1.4,0.1c-0.4,0.3-1.3,0.3-1.7,0.4c-0.5,0.1-0.3,0.1-0.7,0.3c-0.6,0.3-1.6,0.5-2.1,0.8c-0.4,0.2-0.6,0.2-1.1,0.5
		c0,0-0.1,0-0.1,0.1l-0.2,0.1c-0.3-0.1-4.6,1.8-5.1,2.2c-0.3,0.2-0.4,0.3-0.8,0.5c-0.4,0.2-0.4,0.2-0.7,0.5
		c-0.2,0.1-0.5,0.4-0.7,0.5l-2.6,1.3c0,0,0,0-0.1,0l-2.8,1.8c-0.2,0.4-1,1.3-1.5,1.3c-0.2,0.3-0.7,0.7-1.2,1.2l-2.2,2.8
		c-0.5,0.7-0.9,1-0.9,1.4l-0.5,0.4c-0.3,0.5-0.5,0.8-0.9,1.3c-0.3,0.4-0.2,0.2-0.4,0.7c-0.1,0.3-0.2,0.4-0.4,0.6
		c-0.1,0.5-0.5,0.9-0.7,1.4c-0.1,0.3-0.2,0.4-0.3,0.6c-0.1,0.4,0,0.3-0.2,0.7c-0.3,0.5-0.1,0.2-0.3,0.8l-0.8,1.7
		c0,0-0.1,0.1-0.1,0.2c0,0,0,0.1,0,0.1c0,0,0,0.1,0,0.1l-0.6,1.8c-0.2,0.4-0.1,1.6-0.5,1.8c-0.1,1.1-0.6,2.1-1.1,2.9
		c-0.2,0.3-0.1,0.3-0.2,0.7c-0.3,0.9-0.8,1.4-1.1,1.8c-0.7,1.5,0,1.9-1.6,3c-0.8,0.5-1.2,1.2-1.7,1.5c-0.1,0.2,0,0.1-0.2,0.3
		c-0.1,0.1-0.1,0.1-0.2,0.2c-0.3,0.3-0.9,0.7-0.9,1.3c-0.7,0.6,0.5-0.1-1.6,1.6l-2.5,3c-0.7,0.9-1,1.3-0.8,2.1l-0.1-0.1
		c0.5,0.1,0.4,0.2,0.8,0l2.5-1.1c-0.1,0.4-0.7,1.4-0.9,1.8c-0.4,0.7-0.6,1.4-0.5,2.3c0.8-0.1,1.2-1.7,2-2c0,0.8-0.1,0.5-0.3,0.9
		c-0.1,0.3-0.1,0.6-0.3,0.9c-0.9,2.2,1.5,0.6,0.1,3.6c-0.3,0.7-0.4,0.2-0.3,1.4c0.5,0.1,0.8-0.4,1.2-0.6l0.4,0.4
		c0,0.9-0.4,0.2-0.4,1.9c0,1.8-0.3,3.2,1,2c0.6-0.6,0.6-0.3,0.8-0.7c0.5-0.1,0.2-0.5,0.8-0.2c0.1,0,0.3,0.3,0.3,0.3
		c0.1,0.1,0,0,0.1,0.2c0.2,0.2,0.1,0.1,0.1,0.2c0.6,0.3,0.5,0.7,1.3,0.1c0.2-0.2,1-1,1,0c0.6,0.5,0.2,0.7,0.5,1.7
		c0.1,0.5,0.1,0.3,0.4,0.4c0.1-0.1,0.2-0.1,0.2-0.4c0-0.4,0-0.1-0.1-0.3l-0.1-0.2c0,0,0,0-0.1-0.1l-0.1-0.1c-0.1-0.1-0.1,0-0.1-0.3
		l0-2.9l0.5,0c0.4,0.6,0.1,2.4,0.2,3.2l0.2,0.1c0.2-0.4,0-0.5,0.3-1c0.1-0.2,0.1-0.1,0.2-0.3c0.2-0.4,0.1-0.3,0.3-0.6
		c0.2-0.4,0-0.5,0.4-0.6c0.2,0.4,0,1.2,0.1,1.8c0,0.4,0.4,1.2,0.6,1.5c0.7-0.2,0.7-1.2,1.4-1.5c0.1,0.2,0.1,0,0.1,0.3
		c0,0.1,0,0.2,0,0.3c0.1,1.1,0.4,1.3,0.4,1.8l0.3,0c0.4,0,0.1,0.1,0.4-0.2l0.8-1.2c1.1-1.8,1.8-1.1,2.7-0.6c0.3,0.2,0.5,0.3,0.7,0.5
		c0.4,0.3,0.6,0.7,1.1,0.2c0.2-0.2,0.4-0.7,0.8-0.8c0.5-1,2.3-2.4,3.3-2c0.3,0.1,0.9,0.5,1.2,0.5c0.2,0.3,1.2,1,1.9,1.7l1.5,2
		c0.2,0.2,0.1,0.2,0.3,0.4l1,1.5c1.2,1.7,1.8,3.7,2.4,4.7c0.2,0.4,0.2,0.2,0.2,0.6c0,0.5,0.1,1.2,0,1.7c-0.1,0.8-0.1,1.2-0.3,1.9
		c-0.2,0.5-0.9,1.9-1.2,2.2c-0.6,0.6-0.6,1-1.7,1.6c-0.2,0.4-0.8,0.9-1.2,1.1c-0.2,0.1-0.4,0.2-0.5,0.2c-0.9,0.5-0.8,0.6-2.1,1
		c-0.4,0.4-0.1,0.2-0.7,0.3c-0.3,0.1-0.3,0.1-0.8,0.2c-1,0.2-2.3,0.3-3.5,0.1c-0.5-0.1-0.4-0.1-0.7-0.2c0,0-0.1,0-0.1,0l-0.5-0.2
		c0,0-0.1,0-0.1,0c-0.2,0,0,0.1-0.2,0c-0.3-0.2,0,0.2-0.2-0.2c-0.3,0.1-0.8-0.3-0.9-0.3c-0.3-0.1-0.2,0-0.5-0.2
		c-1-0.6-4.5-2.9-5-3.8c-0.5-0.1-0.7-0.5-1.4-1.1c-0.3-0.2-0.5-0.3-0.7-0.6c-0.2-0.2-0.4-0.4-0.6-0.6c-1.4-1.3-0.9-1-1.8-2l-1.4-1.4
		c-0.1-0.1-0.1-0.1-0.2-0.2c-0.1-0.1-0.2-0.2-0.3-0.3l-4.1-3.5l-2.1-1.5c-0.1-0.1-0.5-0.2-0.6-0.4c-0.9-0.7-0.4-0.2-1.1-0.7
		c-0.3-0.2-0.2-0.1-0.5-0.3c-0.8-0.4-1.6-0.9-2.4-1.3c-0.3-0.2-0.3-0.1-0.7-0.3l-1.6-0.6c0,0-0.1,0-0.1,0l-0.2-0.1
		c-0.3-0.1-0.2-0.1-0.5-0.2l-2.8-0.6c-0.6-0.2,0-0.1-0.6-0.2c-0.3,0-0.5,0-0.8,0c-0.6-0.1,0-0.1-0.6-0.2c-1.9-0.3-3-0.2-4.9-0.2
		c-0.8,0-0.8,0-1.5,0.2c-0.3,0-0.5,0-0.8,0.1c-0.4,0.1,0.1,0.2-0.6,0.2c-1.1,0.1-0.1-0.2-1.5,0.2c-0.6,0.2-2.4,0.5-2.8,0.7
		c-0.2,0.3-0.6,0.3-0.9,0.4c-2.3,0.8-1.5,0.8-2.9,1.3c-0.2,0.3-0.8,0.6-1.1,0.8c-0.9,0.6-2.8,2.3-3.1,2.5c0,0.3-0.4,0.5-0.6,0.8
		l-2.3,3.2c-0.2,0.4-0.3,0.7-0.5,0.9c-0.3,0.4-0.2,0.5-0.5,0.9c-0.1,0.3-0.1,0.2-0.2,0.5c-0.2,0.5,0.1,0.2-0.3,0.4
		c0,0.8-0.4,1.1-0.5,1.5l-0.4,1.2c-0.1,0.3,0,0-0.1,0.3l-0.2,0.9c-0.2,0.9-0.3,2.3-0.5,2.5c-0.1,0.7,0,1.9-0.2,2.7
		c-0.1,1.4,0.1,2.6,0.1,3.9c0,0.8-0.1,1.2,0.1,1.9c0.2,0.5,0.2,1.1,0.2,1.8c0,0,0,0,0.1,0.2c0.1,0.2,0,0.1,0.1,0.3l0.3,1.2
		c0.1,0.2,0.2,0.4,0.2,0.6c0.1,0.3,0.1,0.3,0.2,0.6c0.4,1.3,1.5,3.6,2.3,4.7c0.2,0.3,0.1,0.1,0.2,0.2c0.2,0.3,0.6,0.8,0.6,1
		c0,0,0.1,0,0.1,0.1c0,0,0.1,0,0.1,0.1c0,0,0,0,0.1,0.1l1.4,1.7c0.5,0.6,2,1.9,2.7,2.4c0.4,0.3,0.6,0.5,1,0.7l1.3,0.9
		c0.2,0.1,0.5,0.3,0.7,0.5c0.5,0.1,0.7,0.4,1.5,0.7l0.5,0.2c1.3,0.3,1.5,0.5,2.3,0.7c0.3,0.1,0.1,0,0.3,0.1c0,0,0.1,0.1,0.1,0.1
		c0.2,0.1,0.1,0,0.2,0.1c0.4,0.2,0.4,0.1,0.8,0.1c0.5,0.1,0.2,0.1,0.5,0.3c0.4,0.2,0.3,0.1,0.7,0.2c0.2,0.1,0.2,0.1,0.6,0.3l1.2,0.5
		c1.2,0.4,1,0.5,1.6,0.8c0.2,0.1,0.3,0.1,0.6,0.3l3.9,2.7c0.7,0.8,0.8,1.1,1,2c0.4,1.5,0.2,1.3,0,2.5c-0.1,0.3,0,0.4-0.1,0.8
		c-0.3,0.9-1.3,2.5-2,2.9c-0.4,0.4-1.2,0.8-1.6,1c-0.3,0.1-0.3,0-0.6,0.1c-0.6,0.3-0.4,0.4-1.2,0.4c-0.5,0-1.1,0-1.6,0
		c0,0.2,0,0.2,0.1,0.4c0.2,0,0.3,0,0.5,0c0.4,0.1,0.2-0.1,0.3,0.2l1.4,0.3c0.4,0,0.5,0,0.8,0.1c0.3,0.1,0.2,0.1,0.7,0.1
		c0.7,0,0.9-0.2,1.4-0.2c0.3,0,0.5,0,0.8,0c0.3-0.1,0.2-0.2,0.6-0.1c0.2-0.2,0.4-0.1,0.8-0.6c0.3-0.1,0.6-0.3,1-0.6
		c0.1,0,0.4-0.3,0.4-0.4c0.2-0.3,0.1-0.3,0.3-0.5l0.7-1.2c0.5-1,0.3-1.1,0.4-1.3c0.2-0.9,0.3-1.7,0.3-2.7c-0.1-1.4-0.2-1.3-0.3-1.8
		c-0.4-1.9-2.2-4.9-3.7-5.9c-0.5-0.3-0.4-0.4-0.8-0.7l-1.8-1.2c-0.3-0.2-0.3-0.1-1-0.5c-0.4-0.2-1.7-0.9-1.8-1.2
		c-0.4-0.1-1-0.5-1.3-0.8c-0.2-0.1-0.3-0.1-0.5-0.3c-2.1-1.4-5.5-4.8-6.7-6.9c-0.9-1.6-0.8-1.2-1.4-3l-0.3-1.1
		c-0.3-0.8-0.5-1.3-0.5-2.2l-0.1-0.3c0-0.1,0-0.2,0-0.3c-0.1-1-0.4-4.3,0.1-4.7l0-0.8c0.1-0.6,0.1-1.4,0.4-2.2
		c0.2-0.6,0.7-2.1,1-2.5c0.3-0.9,0.6-1.3,1.2-2.1l1.3-1.4c0.3-0.5,2.8-2,3.2-1.8c0.4-0.7,0-0.3,1-0.5c0.4-0.1,0.4-0.2,1-0.2l0.8-0.2
		c0.7,0,1.9,0,2.4,0.1c0.1,0,0.5,0.2,0.6,0.2c0.3,0.1,0.4,0,0.7,0.1l2,1c0,0,0.2,0.1,0.3,0.2c0.2,0.1,0.3,0.3,0.5,0.4
		c0.2,0.1,0.3,0.2,0.5,0.3l1.5,1.6l2,1.8c0.3,0.3,0.8,0.7,1,0.9c1.1,0.8,3.7,3.9,4.5,4.7c1.2,1.1,2.3,2.6,3.6,3.8l1.9,1.8
		c0.6,0.7,0.8,0.8,1.4,1.3l0.4,0.4c0.6,0.2,1.2,0.9,2.2,1.5l5.2,3.9c0.3,0.2,0.9,0.6,0.9,0.8c0.8,0.3,0.4,0.2,1,0.5c0,0,0,0,0.1,0
		l0.2,0.1c0.4,0.2,0.6,0.4,1,0.7c0.6,0.4,1.6,1.5,1.9,1.6c0.1,0.4,0.4,0.7,0.6,1c0.3,0.4,0.8,1.7,0.9,2.1l0.3,1.2
		c0.2,1.2,0.6,4.2,1,5.1c0.1,0.3,0,0.5,0.1,0.8c0.1,0.4,0.1,0.2,0.2,0.6c0.1,0.5,0.1,1.1,0.2,1.7l0.9,4.5c0.1,0.5,0.2,1,0.3,1.6
		c0.1,0.7,1,1.9-0.1,2.6c-0.4-0.2,0,0-0.4-0.3c-0.1-0.1-0.2-0.3-0.3-0.3c-0.1-0.2-0.1-0.9-0.6-1.8
		C160.2,119.8,160.4,120,160.3,119.4L160.3,119.4z M177.1,75.1c0.4,0.3,0.4,1.9,0.4,2l-0.6,0c-0.4-0.1-0.2,0.2-0.7-0.9
		c-0.1-0.3-0.4-0.9-0.7-1c-0.2-0.6-1.1-2.2-1.4-2.8c-0.1-0.1-0.1-0.2-0.2-0.4c-0.3-0.4-0.1,0-0.2-0.5l-1.5-2.7
		c-0.2-0.3-0.4-0.5-0.6-0.8l-1.1-1.8c-0.9-1.4-0.6-1.1-1.9-2.5c-0.2-0.2-0.5-0.5-0.6-0.7c-0.4-0.5-0.8-1.2-1.3-1.6
		c-0.1-0.7-0.9-0.5-0.9-1.3c0.5,0,0.4,0,0.6,0.3c0.2,0.2,0.2,0.3,0.4,0.4c1.3,1.4,1,1,2.2,2.6l0.9-0.1c0.1-0.7,0.1-1.2-0.2-1.7
		c-0.3-0.5-0.3-1.4,0.4-0.9l0.5,0.2c0.2-0.5-0.1-1.6,0.5-1.5c0.4,0.1,0.2,0.2,0.3,0.3c0.1,0.3,0.1,1,0.5,1.2
		c0.5-0.6-0.2-1.9-0.1-2.5c0-0.3,0-0.1,0.1-0.3c0.3,0.2,0.2,0.3,0.4,1.1c0.1,0.4,0.1,0.3,0.2,0.6c0.1,0.3,0,0.4,0.1,0.7
		c0.1,0.3,0.1,0.2,0.2,0.5c0.6,2,0.3,1.6,1.2,3.9c0.2,0.5,0.5,1.8,0.8,2.2c0.2,0.2,0,0,0.1,0.2c0,0,0,0.3,0.1,0.1c0,0,0,0,0,0.1
		c0.1,0.5,0.5,1.3,0.7,1.6c0.4,0.5,0.5,0.9,0.8,1.5c0.3,0.5,1.5,2.5,1.5,2.9c0.6,0.4,1,1.4,1.4,2c0.1,0.2,0.1,0.2,0.3,0.3
		c0,0.4-0.2,0.6-0.3,0.9l-0.5,0c0-1.8,0-1.2-0.7-1.2c-0.2-0.3-0.4-1-0.8-1.2C176.9,74.5,176.9,74.4,177.1,75.1z M147.9,61.7
		c-0.2-0.4-0.1-0.3,0.2-0.9c0.2-0.5,0-0.7,0.4-0.9c0.1,0.1,0.2,0.1,0.2,0.5c0,0.5-0.1,0.6-0.3,1C148.1,61.7,148.4,61.5,147.9,61.7z
		 M144.2,45.1L144.2,45.1l0.5,0c0,0.5-0.1,0.2-0.1,0.5c-0.3,0.9-0.9,2-1.5,2.6c-0.5,0.5-2.1,1.8-2.9,1.9c0.1-0.4,0.6-0.8,1-1.3
		C141.9,47.9,143.9,45.9,144.2,45.1z M145.4,45.9c-0.3,0.1,0,0-0.2,0.4c-0.3,0.6-1.1,2.3-0.9,3.1l-1.2,1.3c-0.3,0.4-0.4,1.1-1.1,1.3
		c0.1-0.5,0.6-1.3,0.9-1.7c0.3-0.5,0.2-0.1,0.4-0.8l0.8-1.6c0.4-1.2,0.5-1,0.8-1.6c0.2-0.4,0-0.5,0.5-0.7
		C145.4,45.7,145.4,45.5,145.4,45.9z M144.4,50c0-0.4,0.2-0.5,0.4-0.8l0.4-1c0.5-1.2,0.1-0.8,1.6-1c0.1,1.1,0,0.6,0.4,1.3
		c-0.1,0.7-0.6,1.1-1,1.6c-0.5,0.7-0.7,0.8-1.1,1.5c-0.3,0.5-0.8,1-1,1.6c-0.2,0.5-0.4,1.4-0.9,1.5c-0.2-1.5,0.3-1.5,0.4-1.8L144,51
		C144.1,50.2,144.3,50.8,144.4,50L144.4,50z M148.7,48c0.3,0-0.1,0,0.4-0.1c0.1,1.6-0.2,1.1-0.2,2c0,0.4,0.1,0.8,0.1,1
		c0,0.3-0.2,0.4-0.3,0.7c-0.1,0.3,0,0.6-0.1,1c-0.1,0.2-0.1,0.4-0.2,0.8c-0.3,1.8-0.5,1.5-0.9,2.4c-0.2,0.5-0.1,0.3-0.4,0.7
		c-0.9,1.2-0.9,1.8-1.1,2.1c-0.3,0.5-0.9,1.7-1,2.2c0,0,0,0,0,0.1l-0.1,0.3c-0.2,0.3,0,0.1-0.3,0.3c-0.1-0.2-0.1,0.1-0.1-0.4
		c0-0.1,0-0.3,0-0.4c0.1-0.3,0.2-0.3,0.3-0.7c0.2-0.5,0.1-1.2,0.3-1.7c0.4-1.2,0-1,0.3-1.6c0.7-1.4,0.2-0.6,0.4-1.5
		c0.1-0.4,0.4-0.5,0.4-1.5c0-0.6,0.6-3.2,0.9-3.9c0.2-0.4,0.3-0.4,0.7-0.4c0,0.6-0.1,0.5-0.2,1c-0.1,0.3-0.2,0.7,0,0.9
		c0.6-0.1,0.7-1.8,0.9-2.4C148.6,48.6,148.6,48.6,148.7,48L148.7,48z M148.8,56.9c-0.4,0-0.3,1.1-0.9,1.4c-0.3-0.5,0.1-0.8,0.3-1.2
		c0.2-0.5,0.1-0.8,0.2-1.4c0.1-0.6,0.2-0.7,0.3-1.4l0.5-1.9c0.1-0.5,0-0.3,0.1-0.7c0.2-0.6,0.2-0.8,0.3-1.4c0.1-0.4,0.3-0.6,0.4-1.1
		c0.1-0.5,0-0.3,0.2-0.7c0.1-0.2,0.1-0.3,0.2-0.6l0.2-0.2c0.2-0.1-0.2-0.1,0.3-0.1l0.1,1.5c0.4,0.2,0.5,0.1,0.8,0.3
		c0.1,1.4-0.2,1.1-0.5,2c-0.2,0.8-1.1,2.8-1.5,3.7c-0.2,0.4-0.1,0.5-0.3,0.9C149.1,56.4,149,56.5,148.8,56.9L148.8,56.9z M152,50.3
		c0.8,0.1,0.1,0.2,0.7,0.3c0-0.1,0.4-1.9,0.5-2c0.1-0.4,0.2-0.6,0.7-0.6c0,0.5,0.1,0.3-0.2,0.6c0,0.2,0,0.7,0,0.9
		c-0.1,0.5-0.2,0.2-0.2,0.8c0,0.5,0.1,0.3,0.2,0.8c0,0.3,0,0.5,0.1,0.8c-0.6,0.5-1,2.8-1.6,3.6c-0.3,0.5-0.4,1.4-0.6,2
		c-0.1,0.3,0-0.1-0.1,0.2l-0.3,0.7c-0.2,0.6,0.1,0.8-0.5,0.9c-0.1-0.1,0,0,0-0.2c0-0.2,0-0.1,0-0.2c0-0.2,0.1-0.3,0.1-0.5l0.3-3.6
		c0.2-0.7-0.1-0.9,0.2-1.7c0-0.1,0.1-0.3,0.2-0.5c0.2-0.5,0.1-0.6,0.2-1.1C151.7,51.1,151.9,50.6,152,50.3L152,50.3z M154.1,51.4
		l0-1c0.1-1,0.2-0.1,0.2-1.4c0-0.3,0-1.1,0.2-1.4c0.8,0.2,0,0.6,0.6,0.8c0.1-0.2,0.2-1,0.2-1.2c0.1-0.6,0.3-0.5,0.3-1
		c0.8-0.5,0-0.7,0.6-1.2c0.5,0.6-0.1,1.3-0.1,2.4c0,0.4,0.1,2-0.4,2.4c-0.1,0.3,0,0.5-0.1,0.9c-0.1,0.5-0.2,0.3-0.2,0.9
		c0,0.5-0.2,1.6-0.4,2c-0.1,0.2,0,0-0.1,0.2l-0.5,2.2c0,0.4,0.1,0.7-0.1,1c-0.6,0-0.5-0.4-0.4-1c0-0.5-0.1-1.2,0-1.6
		C154.2,52.7,154,52.9,154.1,51.4z M156.8,44c-0.2,0-0.5-0.2-0.7-0.3c-0.4-0.3-0.3-0.4-0.1-0.8h0l0.1,0l1.2,0.4
		c0.1,0.1,0.1,0.2,0.1,0.3l1.8,1.3l0.2,0.5c-0.6,0-0.9-0.4-1.4-0.7C158,44.7,156.8,44,156.8,44z M155,41.5c0.4,0.3,0.1,0,0.4,0.2
		c0.5,0.2,0.3,0.2,0.3,0.3c-0.3,0.2-0.5,0.3-1.2,0c-1.4-0.4-1.5-0.1-2.1-0.5c-0.5-0.3-0.5-0.2-1.1-0.3c-0.1-0.2-1.3-0.9-1.3-0.9
		l-0.1-0.1c0,0-0.1-0.1-0.1-0.1c-0.6-0.5-0.5-0.2-0.7-0.7c0.2-0.2-0.3-0.2,0.4-0.1c0.2,0.3,0.7,0.5,1.2,0.8c0.5,0.3,0.7,0.5,1.3,0.6
		c0.9,0.2,0,0.3,1.5,0.4c0.6,0,0.3,0.1,0.8,0.2C154.5,41.4,154.7,41.4,155,41.5L155,41.5z M149.1,43c0.2,0.2-0.1,0.1,0.4,0.2
		c0.5,0.1,2.4-0.2,2.9,0.1l0,0.4c-0.5,0.2-1.1,0-1.6,0.2c-0.3,0.1-0.4,0.2-0.8,0.2c-0.8,0-0.7-0.1-0.7-0.2c-0.2-0.1-0.4-0.2-0.7-0.3
		c-0.2-0.1-0.3-0.3-0.6-0.3c-0.5-0.1-0.7-0.3-0.7-0.8l0.4-0.1l0.2-0.3c0.1-0.2,0.1-0.3,0.3-0.4c0.3-0.2,0.3-0.1,0.5,0.1l0,0.5
		C148.6,42.7,148.8,42.9,149.1,43L149.1,43z M150.7,36.9c-0.4,0.3-0.2,0.4-0.8,0.4c0-0.6,0-0.3,0.3-0.7c0.2-0.3,0.1-0.4,0.3-0.7
		c0.8-1.3,1.4-2.9,1.9-4.3c0.1-0.3,0.2-0.4,0.3-0.7l1.2-3.1c0.2-0.5,0-0.3,0.3-0.8c0.4-0.8-0.2-1.2,0.9-1.4l-0.1,1
		c0,0-0.9,1.5-1,2.5l-1.5,4.2C151.7,35.3,150.8,36.3,150.7,36.9z M192.6,90l-0.1-0.9c0.9-0.6,0.4-0.7,0.7-1.5l0.2-1.3l0.6-0.2
		c0,0.1,0.2,0.3,0.2,0.4c0.1,0.6,0,0.4-0.1,0.5c0,0.4-0.8,2.2-0.9,2.9c0,0.3,0,0.3-0.2,0.5C192.7,90.4,192.9,90.2,192.6,90z
		 M189.9,108.8c-0.1-0.2-0.1,0.2-0.1-0.4l0.3-0.9c0.2-0.5,0.1-0.7,0.3-1.2c0.1-0.4,0.2-0.8,0.3-1.2c0-0.2,0.1-0.3,0.2-0.5
		c0.2-0.3,0.1-0.3,0.4-0.4c0.2,0.3,0.2,0.2,0,0.6c-0.3,0.5-0.1,0.6-0.5,1.8c-0.2,0.8-0.1,0.9-0.4,1.7
		C190.2,108.8,190.4,108.7,189.9,108.8L189.9,108.8z M175.8,113.6c-0.1,0.5-0.3,0.9-0.7,1.2c-0.4,0.4-0.5,0.7-1.1,0.9
		c-0.3,0.4-0.5,0.3-1.2,0.6c-0.8,0.3-0.8,0.3-1.7,0.3c-0.7,0-2.7,0.3-3-0.7c-0.5-0.3-0.4-0.7-0.3-1.5c0-1.2,0.1-4.3-0.1-5.1
		c-0.2-1-0.3-2.1-0.3-3.2c0-0.8-0.7-2.1-0.4-2.9c-0.7-0.3-0.2-0.7,0-1c0.6,0,1.2,0.4,1.9,0.8c0.9,0.6,1.3,0.5,1.9,0.7l0.9,0.4
		c0.5,0.2,1.8,1.3,2.1,1.8c0.7,1,1.5,2.1,1.8,3.3c0.1,0.5,0.1,0.6,0.3,1C176.2,110.9,176.4,112.8,175.8,113.6z M184.4,98.8l0.1,0.3
		c-1.6,0.1-0.7,0.1-1.5,0.2c-0.4,0-1,0-1,0.5c0.7,0.4,2.4,0,3.5,0c0,0.5-0.1,0.4-0.5,0.5c-0.7,0.2-1.2,1.1-2,1.2
		c-0.7,0.1-3.5,0.1-4.3,0l-0.6-0.5c0,0-0.1,0-0.1-0.1c-0.3,0-0.2-0.1-0.5-0.3c0-0.6,0-0.2,0.1-0.3c0.1-0.3,0,0,0.2-0.2
		c0.6-0.7,1,0.1,2.6-0.8c0-0.4-0.3-0.7,0.1-0.6c0.3-0.4,2.4-1.1,2.9-1.2c0.3-0.4,0.6-0.3,1-0.1c0.1,0.8-0.2,0.1-0.4,1
		c0,0,0.1,0,0.1,0.1c0,0,0.1,0,0.1,0.1L184.4,98.8L184.4,98.8z M175.7,96.9c0.1-0.5,0-0.2,0.4-0.4l2.2-1.2c1.1-0.4,2.9-2.5,4.4-2.4
		c0,0,0,0.1,0,0.1l0.1,0.6c0.5,0,0.9-0.5,1.5-0.2l0,0.4c-0.9-0.1-0.6-0.5-1.1,0.5c-0.2,0.5-0.5,0.5-0.5,1c0.4,0.3,0.8,0.3,1.2,0.5
		c0,0,0.1,0.1,0.1,0c0,0,0.1,0,0.1,0c-0.1,0.5-0.3,0.4-0.9,0.5c-0.4,0.1-0.4,0.2-1,0.1c-0.9-0.1-3.7,0.1-4.5,0.3
		C177.4,97,176.1,97.2,175.7,96.9z M159.3,61.8c0,0-0.6-1.3,0.5-1.3c0.2,0.6,0.1,0.8,0.1,1.5c0,0.6,0.4,0.6,0.1,1.2
		c-0.5,0.3-0.4,0.1-0.5-0.4C159.4,62.5,159.4,62.2,159.3,61.8z M177.2,41.3c0.1-0.5,0-0.3,0.4-0.6c0.7-0.6,0.8-1.1,1.5-1.1
		C179,40.1,177.9,41.3,177.2,41.3L177.2,41.3z M163,38.2c1.2,0.4,2.2-0.1,2.7,0.2c0,0.4,0,0.3-0.5,0.4c-0.6,0-1.9,0-2.4-0.1
		c-0.4-0.1-1-0.2-1.5-0.2c-0.5,0-0.9-0.2-0.8-0.7c0.6-0.1,0.2-0.1,0.6,0.1C161.4,37.9,162.1,37.9,163,38.2z M185.1,37.8
		c0.3-0.4,1-0.3,1.8-1c0.2-0.2,0.1-0.1,0.3-0.2c0.2-0.1,0.3-0.3,0.6-0.5c0.2-0.2,0.4-0.3,0.6-0.4c0.3-0.2,0.4-0.2,0.6-0.4
		c0.2-0.2,0.3-0.3,0.6-0.5c0.3-0.2,0.6-0.2,0.9,0c-0.1,0.5-0.2,0.3-0.7,0.5c-0.9,0.4-1.2,1-1.8,1.3c-0.8,0.4,0.2,0.1-1,0.6
		c-0.5,0.2-0.9,0.7-1.4,0.8C185,38,185.2,37.8,185.1,37.8L185.1,37.8z M203.3,29.5c0.4,0.2,0.2,1.1,0.2,1.5l0,1.3c0,0,0,0.1,0,0.1
		c0,0,0,0.1,0,0.1c0,0,0,0,0,0.1c-0.1,0.1-0.1,0.1-0.2,0.3c0,0-0.1,0.2-0.1,0.3c-0.2,0.6-1.4,2.2-1.7,2.5c-0.4,0.5-0.9,0.8-1.3,1.1
		c-0.5,0.5-0.9,0.8-1.2,1.3l-0.6,3.1c-0.1,0.3-0.1-0.1-0.2,0.5c-0.1,0.4,0,0.7-0.1,1.2c0,0,0,0.1-0.1,0.1c0,0,0,0.1-0.1,0.1
		l-0.9,5.6c-0.1,0.3-0.1,0.2-0.2,0.5c-0.1,0.4,0,1,0,1.4c-0.1,0.4-0.1,0.3-0.2,0.6c-0.1,0.3-0.1,0.4-0.1,0.6
		c-0.1,0.4-0.1,0.6-0.1,1.2l0,0.5l-0.5,0.1c0,0.6-0.2,0.7-0.2,1.3c0,0.5,0,1,0,1.6c-0.3,0-0.1,0-0.3,0l-0.4-0.1
		c0,0.8-0.1,0.3-0.2,0.8c-0.1,0.3,0,0.4-0.1,0.7c-0.3,0.8-0.1,3.5-0.3,4.7c-0.1,0.8,0.2,1.3,0.2,2.2c0,1,0.1,1.5,0.3,2.4
		c0.1,0.1,0-0.2,0.1,0.3c0,0.1,0.1,0.3,0.1,0.4c0.2,0.2,0.3,0.5,0.4,0.9l0.1,3.4l-0.6,0.3c-0.1,1.3,0.2,0.8,0.4,1.4
		c0.3,0.9,0,3,0.1,3.6c0.1,0.8,0.3,0.8,0.8,1.1l0,0.6c0.2,2.5,0.6,2-0.2,2.8c-0.4,0.4-0.3,0.6-0.5,0.8l-0.6,1.4
		c-0.2,0.4,0.2,0.3-0.4,0.3c-0.2-0.4,0-0.7-0.2-1.3c-0.1-0.3-0.3-0.6-0.4-0.9c-0.6-0.6,0-0.6-0.5-0.9c-0.4,0.5,0.3,1.2,0,2.1l-0.4,0
		l-0.1-0.4c0-0.3,0-0.7-0.1-1c-0.1-0.2-0.1-0.2-0.2-0.5l-0.1-0.3c0,0,0,0,0-0.1c-0.2-0.3-0.2-0.6-0.1-0.9c0-0.3,0-0.6,0-0.9
		c0-1.7,0.1-3.6-0.3-5.1c-0.4,0.1-0.5,0-0.4,0.5c0.3,1.4,0.1,0.6,0.2,2.2c0,1.1,0,2.2,0,3.3c0.1,0.4,0,0.6,0.1,1.1
		c0.1,0.9,0.5,2.3,0.4,3.2c-0.1,0.5-0.2,0.4-0.2,1.1c0,0.6-0.1,0.7-0.1,1.1c-0.1,1.1,0.8,0.5,0.5,1.9c-0.5-0.1,0-0.6-0.9-0.7
		c0,0.6,0.2,0.5,0.4,1.1l0.3,1.7c0.1,0.5,0,1.5,0,2l-0.3,0.4c-0.3,0.4-0.1,0.5-0.2,1c-0.1,0.6,0.1,0.4-0.3,0.6c0,0.1,0.2,1.7-0.1,2
		l0.1,0.2c-0.6,0.5,0.6-0.2-0.3,1.4c-0.2,0.3-0.2,0.2-0.3,0.4c-0.2,0.2-0.4,3.2-0.2,4.1c0.1,0.6-0.2,2.6-0.6,3.1l-0.2,0.2
		c0-0.9,0-2,0-3c0-2.1,0.5-1.9-0.7-1.7c-0.2-0.6-0.7-1.4-1.2-1.7c0.1-0.6,0.3-0.5,0.2-0.9l-0.3-0.1c0,0-0.1-0.1-0.1-0.1
		c-0.1-0.9,0.2-0.8,0.8-0.6l0.3-0.3c0.2-0.4,0.6-0.2,0.7-0.4c0,0,0,0,0.1-0.1c-0.3-0.2-0.3-0.1-0.7-0.2l-0.1-0.4
		c0,0-0.9-0.2,0.2-0.9c0.3-0.2,0.3-0.3,0.8-0.9c0.2-0.3,0.1-0.1,0.2-0.5c-0.4-0.2-0.2,0-0.4,0.1c-0.3,0.1-0.3,0-0.5,0.1
		c0,0-1.2,0.8-1.1-0.2c0-0.4,0.4-0.4,0.2-1l-0.3-0.7c-0.1-0.2-0.2-0.2-0.3-0.6l0,0c-0.6-0.1-0.5,0.1-0.7-0.4c0.1-0.1,0-0.1,0.2-0.1
		c0.1,0,0.2,0.1,0.7,0c0.3,0,0.6,0,0.9-0.1c0.1-0.1,0.5-0.3,0.6-0.5c-0.2-1.2-1.7-0.5-2.2-1.7c-0.2-0.4,0-0.5-0.2-0.9
		c-0.2-0.5,0-0.9-0.1-1.4c-0.1-0.4-0.3-0.6-0.3-1.1c-0.7-0.5-0.3-1.8-0.6-2.4c-0.5-1.3-0.7-3.5-0.8-3.7l-0.8-3.6
		c-0.7,0-0.3,0.4-0.9,0.5c0-0.8,0.1-0.5-0.2-0.9c-0.1-0.2-0.2-0.4-0.3-0.7l-1.1-4.4c-0.1-0.3-0.2-0.6-0.2-0.8
		c-0.3-0.2-0.2-0.5-0.2-1l-0.5-1.9c-0.1-0.4-0.2-0.5-0.3-0.8l-0.5-1.8c-0.1-1.3-0.1-0.7-0.4-2c-0.2-0.2-0.8-2-0.8-2.2
		c-0.5-0.5-0.2-0.8-0.5-1.4c-0.2-0.3-0.5-1-0.6-1.3c-0.1-0.4,0-0.4-0.2-0.8c-0.3-0.6-0.6-1.1-0.8-1.7l-1.9-5.1
		c-0.4-0.6-0.3-1.8-1.3-3c-0.4-0.5-0.1-0.8-1-1.2c-0.8-0.3-1.1,0.1-1.7,0.3c-0.1-0.2-0.2,0.3-0.1-0.4c0.4-0.2,0.1-0.1,0.3-0.3
		c1.5-1,2,0.2,2.9,0.2c0-0.5-0.2-0.6-0.6-0.8c-0.4-0.1-0.5-0.3-0.2-0.7c0.8-0.1,0.2,0,0.4,0.2c0.4,0.5,2.7,0.3,3,0.2l0.2-0.1
		c0.6-0.3,0.8-0.7,1.4-0.9c0.9-0.4,2.3-1.6,2.7-1.8c0.8-0.8,1.1-0.8,1.7-1.3c0.6-0.2,0.5-0.6,1.1,0.1c0.8,1,0.9,3.2,2.1,2.5
		c-0.1-0.5-0.3-0.3-0.7-0.6c-0.3-1.7,0.2-1.5,0.5-2c0.6,0,0.2-0.5,0.8-0.2c0.3,0.1,0.4,0.4,0.5,0.6c0.5,1,0.3,0.9,0.2,2
		c-0.2,0.2-0.1,0.5-0.1,1c0,2.1-0.1,1.2-0.2,1.9c-0.1,0.3,0,0.6-0.1,0.9c-0.1,0.4-0.2,0.2-0.2,0.9l0.3,2.9l0.1,0.1l0.1,0.2
		c0.2,0.8-0.2,7.7,0.2,8.8c0.3,0.9,0.3,1.7,0.4,2.8c0.1,0.6,0,1.2,0.1,1.7c0.1,0.4,0.1,0.3,0.2,0.8l0,1.8c0,0.6,0,0.4,0.2,0.8
		l0.4,1.5c0.1,0.4,0.1,0.3,0.2,0.7c0,0.3,0,0.6,0,0.9l0.2,2.7c0.1,0.4,0.1,0.4,0.1,0.8c0,0.5,0.1,0.4,0.2,0.8c0.1,0.3,0,0.6,0,0.9
		c0.7,0.7-0.4,2-0.4,2c0.2,0.5,0.3,0.1,0.4,0.6c0.1,0.5-0.1,0.5-0.2,0.8c-0.2,0.9,0.3,2.1,0.4,2.5c0.1,0.3,0,0.6,0.1,0.9
		c0.1,0.5,0.2,0.2,0.2,0.8c0,0.5-0.1,0.6,0.1,1c0.5-0.2,0-0.3,0.5-0.4c0,0.1,0.4,1.4,0.4,1.5c0.1,0.4-0.2,1.3-0.5,1.6l-0.3,0.6
		c-0.2,0.2-0.3,0.3-0.3,0.7c0.4-0.1,0.5-0.3,0.9-0.4c0.2-0.4,0.2-0.9,0.4-1.4c0.2-0.5,0.4-0.7,0.2-1.4c0-0.2-0.3-1.2-0.4-1.3
		c-0.2-0.3,0,0-0.2-0.3l-0.1-0.2c-0.2-0.3-0.3-0.4-0.3-0.7l-0.1-4.1c0.1-0.8-0.1-0.9-0.1-1.5l0-4.6c0-0.4,0.1-0.2,0.1-0.6
		c0.1-0.5,0-0.5,0.2-0.6c0.1-0.9,0.1-1.9,0.1-2.9c0-0.8,0-0.7-0.2-1.4c-0.1-0.4-0.1-0.9-0.1-1.3c-0.3-0.5-0.2-4.8-0.2-5.9
		c0-2-0.3-1.9-0.3-2.8c0-0.5,0-1-0.1-1.4c-0.2-0.8,0-1-0.3-1.3c0-0.3-0.1-0.9-0.2-1.3c-0.2-0.8-0.1-3-0.4-4.4l0-4.8
		c0-0.9,0.1-1-0.3-1.3c0.1-0.7,0-1.5,0.1-2.2c0-0.4,0.2-0.5,0.3-0.8c0.2-0.4,0.1-0.4,0.5-0.6c0.1-0.3,0.6-0.8,0.9-1l1.1-0.8
		c0.5-0.4,1.2-0.6,1.7-0.9l0.6-0.4c0.8-1.1,1.2-2.2,1.8-3.4c0.6-1.3,0.5-0.9,1-1.6c0.3-0.5,0.1-0.4,0.6-1c0.3-0.5,0-0.3,0.4-0.5
		c0.1-0.4,0.6-1.2,0.8-1.7c0.3-0.6,0.6-1.2,1-1.5c0.1-0.3,0.6-0.9,0.8-1.1c0.9-1.1,0.9-0.8,1.5-1.4c0.4-0.3,0.1-0.1,0.6-0.3
		c1.4-0.5,1.7-0.6,3.2-0.4l1.4,0.4c0.7,0.4,1.6,1.1,1.7,2c0.7,0.4,0.3,3.9,0.3,4.1c-0.4,1.1-0.4,0.7-0.7,0.8c-0.2-0.6,0-1.3-0.1-2.1
		c-0.1-0.5-0.5-0.9-0.6-1.6c-0.4-0.1-0.7-0.8-1.4-0.9c-1.5-0.1-1.9,1.4-2.2,2.4C203.2,28.3,203.5,28.7,203.3,29.5L203.3,29.5z
		 M203.7,33c0.5-0.6,0-1.2,0.6-1.4c0.7,1.3-1.4,3.3-1.6,4.1c-0.5,0.5-1,1.6-1.6,1.7c-0.1-0.6,0.3-0.8,0.6-1.1
		C202.3,35.6,203.4,33.8,203.7,33z M197.7,80.2c-0.3,0.3-0.2,1.7-0.4,2.2c-0.2,0.5-0.9,1.2-0.8,1.9c-0.3,0.2-0.3,0.4-0.4,0.7
		c-0.2,0.4-0.3,0.3-0.4,0.6c-0.2,0.4-0.4,1.2-0.8,1.3c-0.3-0.6,0.4-0.9,0.7-2c0.1-0.5,0.3-0.5,0.4-1c0.1-0.4,0.3-0.7,0.4-1.1
		c0.3-0.5,0.4-0.2,0.4-0.9c0-0.8,0.1-0.7,0.2-1.3c0.4-1.5,0.1-1.4,0.2-2c0.1-0.7,0-0.4,0.4-0.5C197.9,78.5,197.8,79.6,197.7,80.2
		L197.7,80.2z M196.4,86.7c-0.2,0.2-0.1,0.4-0.4,0.7c-0.1,0.2-0.3,0.5-0.4,0.7c-0.1,0.3-0.1,0.8-0.1,0.9l-0.5,0.1
		c0-0.4,0.1-0.6,0.1-1c0-0.3,0.2-0.6,0.2-0.9c0-0.2,0.1-0.4,0.1-0.5c0,0,0.2-0.3,0.2-0.3c0.2-0.2,0.3-0.3,0.6-0.2L196.4,86.7
		L196.4,86.7z M173.2,49.2c-0.1-0.3-0.2-0.3-0.5-0.6c-0.2-0.2-0.4-0.5-0.5-0.6c-0.7-1.2-1.1-1.9-0.1-2c0.3,0.7,0.6,1.1,0.9,1.9
		c0.4,1.2,0.4,0.5,0.5,1.1C173.4,49.3,173.9,49.3,173.2,49.2L173.2,49.2z M171.8,48.4c-0.2,1.5,0.1,1.9,0.1,2.7c0,0,0,0.4,0,0.4
		c-0.1,0.5,0,0.2-0.2,0.4l-0.4-1.1c-0.4-0.8-0.1-0.9-0.4-0.9c-0.3-1.1-0.1-0.8-0.5-1.4l-0.3-1.4c0.5,0.1,0,0.2,0.5,0.1
		c0.2,0,0.2-0.1,0.5-0.3C172,47.5,171.2,48,171.8,48.4L171.8,48.4z M169.5,50.5l-0.2,0.3c-0.2,0.4,0.1,0.1-0.3,0.4
		c-0.2,0.3-0.3,1.9-0.4,2.1c-0.5,0-0.4-0.4-0.4-0.9c0-0.4-0.3-0.7-0.4-1c-0.2-0.6-0.2-1.8,0-2.5c0.3,0,0.1-0.1,0.3,0.1
		c0,0,0,0.1,0.1,0.1c0.3,0.3,0.1,0.3,0.4,0.4c0-1.2-0.1-0.8-0.3-1.1c-0.2-0.4-0.1-0.9,0-1.3l0.6-0.3c0.3,0,0.6,0.1,0.8,0.2
		c0.1,0.7,0.2,1.2,0.2,1.9C169.7,49,169.6,50,169.5,50.5L169.5,50.5z M194.8,31.1c0.1-0.6,1.4-3.3,1.8-3.9c0.3-0.5,0.2-0.6,0.5-1
		c0.3-0.5,1.3-2.2,1.9-2.1c0,0.5-0.1,0.3-0.5,0.8c-0.2,0.3-0.3,0.5-0.6,0.8c-0.4,0.5-0.6,1.3-1,1.8c-0.4,0.5-0.3,0.3-0.5,0.9
		c-0.1,0.5-0.6,1.4-0.9,1.9C195.2,31.3,195.2,31,194.8,31.1L194.8,31.1z M193,8.4c0.2,0.1,0.2,0,0.4,0.3c0.8,0.9,0.5,0.3,0.9,0.9
		c0,0,0.1,0.2,0.1,0.2c0.9,0.3,1.5,1.2,1.9,1.9c0.5,0.8,1,1.5,1.2,2.5l0.2,0.5c0.1,0.2,0.1,0.3,0.1,0.5c0.2,1.3,0.1,1-0.2,2.2
		c-0.9,3,0.4,2-0.9,3.9l-0.6,0.5c-0.2,0.8-1.2,1.6-1.8,2.1c-0.5,0.4-0.1,0.1-0.7,0.3l-1.9,1c-0.1,0.3,0.1,0-0.3,0.3
		c-0.5,0.4-0.3,0.3-0.9,0.7c-0.5,0.3-0.6,0.6-1.2,1l-1.9,1c-1.3,0.4-0.3,0.1-1.1,0.5c-0.9,0.4-1.4,0.8-1.7,1.7
		c-0.4,1.1-1.6,0.7-2.3,1c-0.9,0.4-1,1.1-1,1c0,0,0,0,0,0.1c-0.1,0.6-0.2,0.4-0.3,0.8c-0.1,0.3-0.1,0.7-0.1,1c0,0.7,0,1.5,0,2.1
		c-0.1,0.1-0.2,0.2-0.3,0.3c-1,0.9-2.7,0.8-3.9,1c-0.5,0.1-0.3,0.1-0.7,0.2c-0.3,0.1-0.6,0-0.9,0c-0.2,0.2-1.3,0.5-1.7,0.7
		c-0.4,0.2-0.5,0.3-0.8,0.5c-0.1,0.1-0.3,0.2-0.4,0.2c-0.2,0.1,0,0.1-0.4,0.1c-0.2-0.3-0.1-0.4-0.3-0.8c-0.8-2-0.7-1.1-1.2-1.9
		c-1.2,0-1.2-0.1-2.1,0.2c-1.4,0.4-4.8,1.1-5.5,0.2c-0.6,0-0.5,0.1-0.9-0.2c-0.3-0.2-0.4-0.3-0.6-0.6c-0.3-0.6-0.4-1.2-0.2-1.9
		c0.1-0.3,0.1-0.2,0.1-0.5l0.3-1.5c0.3-1.2-0.3-2-1.5-1.3c-0.2,0.1-0.8,0.4-1,0.4c-0.3,0-0.7-0.3-0.9-0.5c-0.8-1-0.7-2.1-0.7-3.3
		c0-0.9,0.3-1.6,0.8-1.9c0.2-0.3,0.1-0.2,0.4-0.3c1.6-1,1-1.6,1.1-3.2c0-0.5,0.1-0.4,0.2-0.5c0.1-1.1,0.9-2.1,1.6-2.6
		c0.3-0.2,1-0.7,1.1-1c0.3-0.5,0.1-1.3,0.4-1.7c0.2-0.3,0.3-0.2,0.6-0.5c0.6-0.6,0.3-0.2,0.9-0.6l3.1-1.8c1.6-0.9,1.2-0.6,2.2-0.2
		c1,0.4,3.4-0.1,4-0.1c0.3,0,0.8,0,1.1,0c0.5-0.1,0.3-0.3,0.6-0.1c0.5,0.5-0.9,0.9-1.2,1c-1,0.3-0.8,0.3-2,0.4
		c-0.7,0-0.5,0.2-1.3,0.2c-0.9,0-0.6,0-1.4,0.3c-1.1,0.3-1.1,0.2-1.9,0.5c-0.3,0.1-0.3,0-0.6,0.2c-1.5,0.7-0.8,1-0.4,1.9
		c0.2,0.6-0.1,0.4-0.4,1c-0.4,0.4-0.8,0.5-1.3,0.7c-1.7,0.6-1.4-0.4-2.7,2c-0.2,0.3-1.3,1.3,0.4,2.5c1.1,0.5,0.8,0.5,1.5,0.5
		c1.4,0,1.5-0.2,2.6,0.3c0.3,0.1,1.2,0.5,1.4,0.5c0.1,0,0.5-0.1,0.6-0.3c0.2,0,0.4,0,0.6-0.1c0.4-0.1,0.1-0.1,0.3-0.2
		c1.2-0.4,1.7,0.7,3.5-0.4c0.3-0.2,0.4-0.3,0.8-0.3c1-0.1,0.8,0.4,1.8,0.4c-0.1-0.5-1.2-1.5-1.7-1.6l-1.4-0.6
		c-2.1-0.9-1.3-0.2-2.5-0.3c-0.2-1,1-1.7,1.2-1.7c0.4-0.1,0.4-0.1,0.7-0.2c1.1-0.5,1,0,1.6-0.3c0.5-0.2,0.8-0.6,1.3-0.7
		c0.3,0.8,0.4,0.9-0.1,1.5l0.1,0.3c1.3-0.1,1.3-0.8,2.2-0.8l0.1,0.6c0.4-0.2,0.1,0,0.3-0.3c0.5-0.9,0.2-0.5,1.1-0.8
		c1.8-0.7,2.7-0.4,4.4-0.6c0.7-0.3,0.5,0.1,1.3-0.3c0.6-0.3,1.5-0.4,2.1-0.6c0.5-0.2,0.7-0.1,1.2-0.2c0.4-0.2,0.7-0.2,1.1-0.3
		c1-0.3,1.9-1.1,2.7-1.7c0.4-0.3,0.5-0.3,0.8-0.7c0.1-0.2,0.2-0.3,0.3-0.4c0,0,0.2-0.4,0.2-0.4c0.2-0.5,0.1-2.3,0-2.9
		c0,0-0.3-0.6-0.5-0.8c-0.8-0.9-0.8-1.1-1.9-1.9c-1.4-1.1-1.5-0.6-2.7-1.2c-0.8-0.4-0.6-0.4-0.7-0.7c0.6-0.4,0.8-0.6,1.8-0.5
		c0.4,0,0.5,0.2,0.8,0.3c1,0.4,0.4,0.1,1.5,0.8c0.2,0.1,0.5,0.4,0.6,0.5C192.9,8.1,192.7,8.2,193,8.4L193,8.4z M159.7,44.5
		c0.1,0,0.2-0.1,0.3-0.2c0.3-0.2,0.1,0.1,0.3-0.2c0.7-0.1,0.6-0.1,1-0.2c1-0.3,2.4-0.1,2.3,0.6c-0.6,0.2-1.5,0-2.2,0
		c-0.9,0-1,0.5-1.8,0.4L159.7,44.5L159.7,44.5z M162.4,41.9c0.1,0.2,1,0,2.3,0.4c0.9,0.3,1.8,0,2.5,0.3c1,0.4,2.4,0.3,3.5-0.1
		c0.2-0.1,0.4-0.1,0.6-0.1c0.5,0.1,0.3,0,0.5,0.2c-0.2,0.3-0.4,0.2-1.6,0.5c-1.2,0.2-2.5,0.1-3.6-0.2c-0.7-0.2-1.9,0-2.8-0.4
		c-0.9-0.3-2-0.2-3.4-0.3c-0.9-0.1-1,0.1-1.3-0.4c0.2-0.2-0.1,0,0.4-0.2C159.9,41.7,162.2,41.9,162.4,41.9z M167.3,47.2
		c0,0.8,0.4,2-0.1,3.3c-0.2,0.5-0.2,1.6-0.3,2.4l-0.2,0.7c-0.3-0.2-0.3-0.2-0.4-0.5l0-0.2c-0.1-0.4-0.1-0.6-0.4-0.7
		c-0.2,0.4,0,0.7,0.1,1c0.3,0.8,0.1,2,0,1.9c0,0,0,0.1,0,0.1c-0.3-0.2-0.2,0.1-0.3-0.5c0-0.2,0-0.4,0-0.6l-0.2-0.4
		c-0.1-0.2,0-0.3,0-0.6c-0.5-0.3-0.1-0.4-0.4-0.9c-0.1,0.1-0.1-0.1-0.2,0.3c-0.1,0.6,0.3,0.8-0.3,1.3l-0.1,0.2l-0.3,0.1
		c-0.1-0.9,0-2.7,0.3-3.4c0-0.1,0.3-0.5,0.3-0.6l0.5-2.3c0.6,0,0.4,0.5,0.4,1.6c0,0.4,0,0.7,0,1.1c0,1.3,0.1,0.9,0.3,1
		c0.6-1.5-0.6-4.7,0.7-5.1C167.3,46.9,166.6,46.9,167.3,47.2L167.3,47.2z M163.8,51.9c-0.3,0.2-0.2,4-0.2,4.5c0,0.5,0.2,1-0.1,1.4
		c-0.5-0.3-0.3-0.5-0.3-1.2c0-0.2-0.1-1.1-0.2-1.4c-0.2-1.2-0.3-0.9-0.7-1.8c-0.2-0.5,0.1,0-0.1-0.1c-0.5-1.4-0.3-1.3-0.3-2.9
		c0-0.9,0-0.7-0.3-1.3c0,0-0.3-1.3-0.3-1.4c0.2-0.3,0.3-0.3,0.5-0.5c0.1-0.2,0.2-0.4,0.3-0.6c1.2,0,0.6,3.2,0.7,4.9
		c0,0.4,0,0.4,0.3,0.5c0.2-0.4,0.1-0.9,0.1-1.4c0-0.5,0.1-0.7,0.3-1.2c0.3-1.1,0.1-1.8,0.2-2.8c0.5,0.1,0.4,0.5,0.4,1
		C164.6,51,164,48.6,163.8,51.9L163.8,51.9z M160.6,57c-0.7,0.2-0.4-0.6-0.3-1.1c0.1-0.5,0-1.5,0-2c0-1-0.1-3.1,0.1-4
		c0.1-0.2,0.2-0.2,0.3-0.4c0.3-0.5-0.2-0.2,0.3-0.5c0.3,0.6,0.1,3.2,0.1,4.1c0,1-0.4,2.4-0.4,2.8C160.7,56.2,160.7,56.5,160.6,57
		L160.6,57z M160.1,49.8c-0.3,0.2-0.1,0.7-0.3,1.2c-0.2,0.5-0.2,1.9-0.5,2.8c-0.2,0.6-0.2,0.6-0.2,1.4c-0.3,0.2-0.2,0.1-0.4,0.5
		c-0.2,0.5,0,0.4-0.3,0.6c-0.1-0.1-0.1-0.1-0.1-0.3c-0.2-0.7,0.1-1.7,0.2-2l0.2-3.8c0.1-0.9,0.3-0.3,0.7-0.6
		c0.6-0.4-0.4-1.9,0.7-1.8L160.1,49.8L160.1,49.8z M155.2,63.7l0,0.2c-0.2,0.1-0.2,0.2-0.6,0.2c-0.2-0.5-0.1-1.3-0.1-1.8
		c0-0.7,0-1.2,0.6-1.3c0.3,0.3,0.2,0.8,0.2,1.4C155.2,62.7,155.2,63.2,155.2,63.7z M177.2,67.2l0.8,1.9c0.6,1,0.3,0.7,0.8,1.9
		c0.4,1.1,1.4,3,1.3,4c-0.3,0-0.4-0.1-0.6-0.1c-0.1-1.5,0-0.8-0.6-2.2c-0.1-0.2-0.2-0.5-0.4-0.9l-1.2-2.9c-0.2-0.8-0.7-0.9-0.7-1.9
		C177.3,67,176.7,66.9,177.2,67.2L177.2,67.2z M159.7,100.9l0,0.4c0.1,0.1,0.1,0.1,0.2,0.1l0.2,0.2c0.1,0.1,0.1,0.1,0.2,0.2
		c0.3,0.2,0.1,0.1,0.3,0.2l0.5,0.4c0.1,1.5,0.2,0.6,0.3,1.3c0.1,0.7-0.1,0.7,0.2,1.5l0.4,2.7c0,1.1,0,2.6,0.3,3.8
		c0.4,1.2,0,1.2,0.2,2.1c0.1,0.4,0.1,0.1,0.2,0.7c0,0.2,0,0.5,0,0.7c0.1,0.6,0.1,0,0.2,0.6c0.1,0.3-0.1,1.7,0.1,2.3
		c0.1,0.6,0.1,0.5,0.2,1.3c0,2.8,0.6,2.9,0.6,4.2c0,0.8,0.2,0.5,0.2,1.3c-0.5-0.1-0.7-0.5-0.7-1.2c0-1.1-0.1-0.6-0.3-1.4
		c-0.1-0.3,0-0.6-0.1-0.9c0-0.4-0.1-0.4-0.2-0.7l-0.6-2.9c-0.1-0.5-0.1-1-0.2-1.5l-0.3-1.5c-0.1-0.3-0.4-1-0.4-1.2
		c-0.1-0.7,0.1-0.4-0.2-1.6l-0.4-2.3c-0.2-1.1-0.1,0-0.2-1.5l-0.8-3.5c-0.1-0.9,0.1-0.7-0.3-1.4c-0.3-0.6,0-0.8,0.1-1.3
		c0.1-0.4,0-0.1,0.2-0.4c-0.3-0.2-0.3-0.1-0.3-0.6L159.7,100.9L159.7,100.9z M162.2,103.5l0.1-1.2c0.3-0.1,1.9-0.1,2.1-0.1
		c0.8,0.6,0.3,1.7,0.6,1.8l0.1,2.7c-0.1,1-0.1,3.5,0.1,4.4c0.1,0.4,0,0.7,0.1,1.1c0.1,0.5,0.2,0.4,0.2,1c0,2.3,0.1,1,0.2,2.1
		c0.1,1,0.3,1.9,0.2,2.7c-0.8-0.1-0.5-0.7-1.3-1c-0.8,0.4-0.4,1.2-1.1,1.4c-0.1-0.8,0-1.3-0.2-2.1c-0.1-0.5-0.2-1.5-0.2-1.9
		c0,0,0-0.1,0-0.1l-0.1-1.3c0-0.6,0-0.7-0.1-1.2c-0.1-0.3-0.2-2.2-0.2-2.6l-0.3-2.4c-0.3-0.7-0.2-1.8-0.1-2.6
		c-0.2-0.1-0.1,0-0.2-0.2C162.2,103.7,162.2,103.8,162.2,103.5L162.2,103.5z M165.5,101.9c0.2-1.1,0.4-0.8,0.5-0.9
		c0.3,0.4,0.2,2.5,0.3,3.1c0.1,0.6,0.1,0,0.2,0.6c0,0,0.1,2.7,0.3,3.6c0.4,1.5,0,3.1,0.3,4.6c0.2,0.8,0.1,1.7,0.3,3
		c0.1,0.9,0,2.3,0.2,3c0.1,0.3,0.2,0.3,0.2,0.6c0,0.2-0.1,4.1,0.9,4.6c0.2,0.4,0.6,0.7,1,1.1c0.4,0.5,0.7,0.5,1.1,0.9
		c0.3,0.2,1.9,1.8,2,2c0.1,0.2-0.6,1.2,0.7,1.8c0.1,0.3,0.4,0.4,0.6,1.1c-0.7,0.1-0.2-0.2-1.7-1.3c-0.2-0.2-0.3-0.3-0.7-0.3
		c0,0.5,0.1,0.4,0.3,0.8c-0.6-0.1-1.8-1.3-2.1-1.9c-0.3-0.5-0.6-0.8-0.8-1.2c-0.5-0.9-0.3-1-0.7-1c-0.2,0.4,0.1,1.2,0.3,1.6
		c0.3,0.5,0.9,0.5,0.8,1.3c-0.6-0.1-0.2-0.3-0.8-0.3c0,0.4,0.4,1.1,0.7,1.4c0.2,0.3,0.3,1.3,0.4,1.8c0.3,0.3-0.2,0.2,0.4,0.5
		c0.1,0.2,0.1,0.2,0.2,0.5l-1.6,0l0,0.8c-0.3,0-0.2,0.1-0.5,0c-0.3-0.2-0.2-0.2-0.3-0.4c-0.7-0.3-1.5-1.4-2-1.9
		c-0.1-0.1-0.2-0.2-0.3-0.3l-0.3-0.3c-0.3-0.8-1.5-1.6-2.5-2.9c-0.1-0.1-0.1-0.1-0.2-0.3c-0.4-0.7-0.5-0.8-1.1-1.5
		c-0.5-0.5-1.5-2.7-1.8-3.5L159,121c-0.2-0.5-0.3-0.2-0.3-0.8c1,0.1,0.2,0.7,1.7,2.3l1,1.3c0.3,0.3-0.1-0.1,0.1,0.1
		c0.5,0.6,0.9,1.2,1.7,1.7c0.3,0.2,0.8,0.5,1.1,0.8c0.4,0.4,0.6,0.6,1,0.9c0.4,0.3,0.8,0.3,1.2,0.7c0.3,0.1,0.3,0.2,0.7,0.2
		c-0.1-0.5-0.3-0.6-0.6-0.9c-0.3-0.3-0.3-0.5-0.6-0.8c-0.4-0.5-1.1-0.9-1.3-1.5c0.1-0.1-0.1-0.1,0.3-0.1c0.1,0.2,1.1,1,1.3,1.1
		c1.1,0.5,0.8,0.9,1.4,0.8c0.1-0.8,0-1.1-0.2-1.8c-0.1-0.4-0.5-1-0.8-1.1c-0.3-0.5-0.7-1.4-1.1-1.9c-0.3-0.4-1.1-1.5-1.1-1.9
		c0.5,0.1,0.3,0,0.6,0.4l1.3,1.5c0.3,0.2,0.3,0.1,0.5,0.4c0.2,0.2,0.1,0.4,0.4,0.4c0.4-0.1,0-2-0.1-2.2c-0.5-1.8,0.1-1.4-0.4-3.3
		c-0.2-0.6,0.3-0.3-0.2-2c-0.3-1,0-2.5-0.1-3.6c-0.1-1.3-0.3-0.3-0.3-3.3l-0.4-3.3C165.4,104.3,166,102.2,165.5,101.9L165.5,101.9z
		 M172.6,123c0-0.7-1.3-0.9-1.3-2c0.5,0.1,0.7,0.6,1.4,1.1c0.2,0.1,0.1,0.1,0.2,0.1l2.3,1.8c0.2,0.2,0.8,0.6,1.1,0.8
		c1.7,1.1,0.5,0.9,1.3,2l0.3,0.5c0.1,0.3,0.2,0.2,0,0.5c-0.6,0.1-0.8-0.2-1.1-0.6c-0.1-0.1-0.1-0.2-0.3-0.4c-0.3-0.3,0-0.2-0.5-0.3
		c0,0.6,0.2,0.5,0.3,1c-0.7-0.1-1.1-1.2-2-2.2C174.4,125.4,173,123.2,172.6,123L172.6,123z M175.7,122.1c-0.1-0.6-0.3-0.2-0.4-0.9
		c0.6,0.1,0.5,0.3,0.9,0.5c0.2,0.4,0.2,0.3,0.6,0.5l2.2,2.1c0.2,0.3,0.3,0.2,0.6,0.5c0.5,0.5,0.7,0.7,0.7,1.2c0,0.5-0.7,0.5-1.1,0.5
		l-2.1-2.8C176.6,123,176.3,122.3,175.7,122.1L175.7,122.1z M179.2,120.1c0-0.4-0.4-1.2-0.6-1.5c-0.1-0.3-0.1-0.5-0.2-0.9
		c-0.1-0.3-0.2-0.4-0.3-0.7c0,0-0.1,0-0.1-0.1l-0.3-0.3l0-0.7c0.7,0,0.4,0,0.7,0.5c0.1,0.2,0.3,0.4,0.4,0.6c0.1,0.5,0.3,0.3,0.9,1.2
		c0.1,0.1,0.2,0.3,0.3,0.4l1.1,1.8c0.6,1.1,0.9,0.3,0.9,2c0,0.8,0.1,2,0,2.8c-0.4,0.1-0.2,0-0.5-0.3c-0.7-0.7-0.9-0.9-1.8-1
		c-0.2-0.6-0.1-0.4-0.4-0.9c-0.2-0.3-0.2-0.4-0.4-0.8c-0.1-0.1-0.2,0-0.3-0.3c-0.1-0.3-0.1-0.1-0.1-0.4c0.5,0.1,0.6,0.1,0.8,0.5
		c0.2,0.3,0.6,0.6,0.9,0.9c0.6,0.7,0.5,0.8,1.1,0.9c-0.1-0.4-0.7-1.6-1-2C179.5,121.2,179.6,120.4,179.2,120.1L179.2,120.1z
		 M180.3,115.8c0.1,0.3,0,0.1,0.2,0.4c0.1,0.2,0.1,0.2,0.3,0.4c0.1,0.2,0.3,0.5,0.5,0.5c0.1,0.6,1.4,2.2,1.8,2.9l1.4,1.5
		c0.2,0.2,0.1-0.1,0.3,0.2c0.2,0.4-0.3,0.3-0.6,0.3c0-0.2,0,0-0.1-0.2c0,0-0.1-0.1-0.1-0.1c-0.1-0.1-0.2-0.2-0.2-0.3
		c-0.9-0.4-0.1-0.5-1-0.7l0.2,0.8c-0.1,0.1-0.1,0-0.3,0.1l-0.3,0.1c-0.4-1.4-1.2-1.8-1.8-2.8c-0.1-0.3-0.3-0.5-0.4-0.8
		c-0.1-0.3-0.2-0.5-0.3-0.8c-0.2-0.6-0.2-1.3-0.4-2C180.1,115.5,180.1,115.6,180.3,115.8L180.3,115.8z M181.4,116.8
		c0,0-0.9-1.8-1.4-1.8l0-0.4c0.3,0,0.7,0.4,1,0.7c0.4,0.3,0.8,0.5,1,0.7c2.8,2.8,1,1.5,1.5,2.6c0.2,0.3,0.3,0.4,0.5,0.7
		c0.2,0.4,0.8,1.1,0.5,1.5c-0.3-0.1-1.3-1.7-1.5-2.1c-0.3-0.3-0.5-0.6-0.8-1C181.9,117.4,181.7,117,181.4,116.8L181.4,116.8z
		 M179.7,114c0-0.2,0.1-0.1-0.1-0.2l-0.1-0.5c1,0.1-0.1,0.3,1.5,0.4c0.6,0,0.3,0.1,0.8,0.2l2.5,0c0.4,0,1.1,0.2,1.3,0.4
		c0,0.6-0.1,0.2-0.4,0.7c-0.5,0-0.2,0.1-0.6,0.1c-0.1,0-1.5-0.3-2.1-0.3c0.2,0.6,0.5,0.6,1.1,0.7c0,0.8,0,0.5,0.4,1
		c0.2,0.2,0.4,0.5,0.5,0.8l0,0.5c-0.6-0.1-0.3-0.4-1-1.1c-2.1-2-0.6-0.7-2.3-1.9C180.6,114.4,180.3,114.2,179.7,114z M179.5,111.2
		l0.8,0c0.3-0.6,0.1,0,0.5-0.4c0.5,0,1,0,1.5,0c0.7,0,0.5,0.1,1,0.4c0.9,0.7,1.6-0.4,2.2,0.2c0.2,0.3-0.4,0.9-0.5,1
		c-0.3,0.6,0.2,0.3,0.2,1c-0.5,0-0.4-0.2-1.2-0.2l-2.6,0c-0.7,0-0.9,0-1.1-0.3l-0.2-0.1c0,0,0,0-0.1,0l-0.6-0.3
		c-0.7-0.5-0.6-0.6-0.7-0.9C179.1,111.5,179.3,111.5,179.5,111.2L179.5,111.2z M179.9,109.4c0.1-0.1,0.1,0,0.3-0.2
		c0.3-0.4,0.1-0.1,0.6-0.3c-0.2-0.4-0.4-0.1-0.3-0.7l0.8,0l0.3-0.3c0.5-0.1,0.8,0,1.3-0.3c0.5-0.2,0.8-0.2,1.3-0.1
		c0.2,0.4,0.2,0.8,0.7,0.9c0.1,0.7,0.2,1.5-0.3,1.8c-0.2,0.1-1,0.1-1.2,0.1l-0.3-0.1c0,0-0.1,0-0.1-0.1c-0.6,0.2-1.5,0.1-2.2,0.1
		c-0.7,0-1.7,0.1-1-0.8L179.9,109.4L179.9,109.4z M179.5,107.8c-0.3,0.2-0.5,0.3-0.9,0.1c-0.1-0.6,0-0.4,0.6-0.6
		c0.2-0.1,0.4-0.2,0.6-0.3c0.1-0.1,0.2-0.1,0.4-0.2c0.2-0.1,0.1,0,0.2-0.2c0.4,0,0.7,0,1.1,0c0.6,0,0.6-0.1,0.9,0.2
		C183.1,107.9,179.8,107.3,179.5,107.8z M181.3,102.9c0.9,0,0.8-0.3,1.9-0.8c0.9-0.4,0.8-0.7,2.1-0.5c0.6,1.2-0.1,1.2-1.2,1.4
		c-0.6,0.1-0.7,0.2-1.4,0.2c-0.4,0-0.6,0.2-0.9,0.4c-0.4,0-0.8,0-1.2,0c-0.6,0.1-0.3,0.2-0.7,0.2c-0.2-0.2-0.6-0.6,0.1-0.7
		C180.4,103.2,180.9,103.3,181.3,102.9L181.3,102.9z M183.3,104c0.7,0,0.8-0.4,1.4-0.2c0.1,0.2,0,0.1,0.1,0.2
		c0.1,0.2,0.2-0.3,0.1,0.4c0,0.2-0.1,0.2-0.2,0.3c-0.7,0.4-1.6-0.2-1.8,0.4c0.5,0.2,1.6,0.1,2.1,0.2c0,0.3-0.1,0.5-0.1,0.8
		c0,0.4,0.2,0.2,0.1,0.6c-0.8,0.4-1-0.3-2.1-0.3c-0.5,0-0.5,0.1-0.6-0.2c-0.3,0-1-0.1-1.5-0.1c0.1-0.5,0.4-0.7,1-0.5
		c0.2-0.4,0-0.1,0.4-0.3c0.3-0.2,0.1,0.1,0.2-0.3c-0.3-0.2-0.1-0.2-0.9-0.1l-0.6-0.1c0.2-0.5-0.2-0.1,0.5-0.3
		C182.6,103.9,182.9,104.3,183.3,104L183.3,104z M187.3,109.1c-0.2,0.8,0.1,1.8,0.3,2.5c0.3,1.1,0.3,1.2,0,2.3
		c-0.4,1.3-0.2,4.1-1.4,4.2l0-0.7c0.6-0.5,0.2-1.4,0.4-2.2c0.1-0.3,0.3-0.6,0.3-0.9l0.2-1.1c0.1-0.6,0-0.7-0.1-1.1
		c-0.1-0.4,0-0.7-0.2-1.1c-0.3-0.8-0.6-1.1,0-1.9C186.8,109.1,187.3,109.1,187.3,109.1z M185.8,123.8
		C185.7,123.8,185.7,123.8,185.8,123.8c-0.1,0.9-1.8,1.7-1.7,2.7c-0.2,0.2-0.2,0.2-0.5,0.2c0-0.5-0.1-0.6,0.2-1
		c0.1-0.2,0.3-0.5,0.5-0.7c0.2-0.4,0.7-0.7,0.6-1.1c0.2-0.1,0.2,0,0.3-0.2l0.1-1.6l0.7-0.1l0.1,1.2c-0.1,0.6,0,0.3-0.2,0.4
		C185.8,123.6,185.8,123.8,185.8,123.8z M183.3,126.1c-0.2,0.2-0.1,0.2-0.2,0.4l-0.9,1.3c-0.4,0.5-0.8,1-1.2,1.8
		c-0.3,0.9-0.6,0.5-0.6,1.7c-0.8,0.1-1.5-1.2-0.6-1.7c0.3-0.2,0.7-0.7,1-1l1.4-1.6c0.2-0.3,0.1-0.4,0.4-0.7c0.3-0.4,0.2-0.2,0.4-0.7
		c0.2-0.4,0.2-0.4,0.6-0.5C183.5,125.2,183.3,126.1,183.3,126.1z M178.9,131.9c-0.3-0.2-0.4-0.3-0.7-0.3c-0.3,0.1-0.1,0-0.4,0.3
		l-0.1,0.1l-0.5,0.1c-0.1-1.3,1.2-1.7,1.8-0.6C178.9,131.6,178.9,131.8,178.9,131.9z M176.3,133.1c-0.1,0-0.1,0-0.2,0.1
		c-0.1,0.1-0.2,0.1-0.3,0.1c-0.2,0.1-0.4,0.2-0.5,0.3c-0.6,0,0.1,0.1-0.3,0l-0.2-0.1c0.1-0.8,0.7-0.4,1-1.2c0.5-0.3,0-0.6,0.7-0.6
		C176.6,132.2,176.4,132.6,176.3,133.1L176.3,133.1z M173.9,135.1c0,0-0.2,0.3-0.2,0.4c-0.2,0.4,0,0.2-0.3,0.6
		c-0.2,0.3-0.6,0.5-0.6,1c-0.3,0.2-0.8,0.6-1.2,0.2c0.2-0.6,0.5,0,0.8-0.5c-0.3-0.3-0.3-0.1-0.7-0.4c0-0.5,0.1-0.4,0.3-0.7
		c0.4-0.1,0.9-0.6,1.2-0.9c0.7-1,0.5-1.1,1.1-1.2C174.1,134,174.1,134.7,173.9,135.1z M169.9,138.1c-0.4,0.4,0.5,0.7,0.4,1.4
		c-0.5,0.1-0.6-0.1-0.8-0.4c-0.3-0.3-0.3-0.3-0.6-0.7c-0.4-0.6-0.3-0.2-0.4-1.1c0.5-0.2,0.4-0.3,0.8-0.6c0.9-0.6,0.7-0.2,0.9-0.6
		c0.4-0.1,0.4-0.2,0.7-0.2c-0.1,0.8-0.4,0.3-0.4,1c0,0.6,0.3,0.3-0.1,0.9C170.1,138.2,170.2,137.7,169.9,138.1L169.9,138.1z
		 M168.5,137c0,0-0.3,0.1-0.3,0.1c-0.1,0.2-0.3,0.6-0.5,0.8c-0.3,0.3-0.6,0.4-0.7,0.7l-1.1,0.1c0.1-0.7,0.3-0.7,0.9-0.9
		c0.5-0.2,0.6-0.4,0.9-0.7c0.1-0.4,0.3-0.5,0.7-0.5L168.5,137L168.5,137z M163.6,136.7c-0.1-0.3,0-0.1-0.2-0.2l-4-3.2
		c-0.5-0.5-0.8-0.8-1.2-1.2c-0.8-0.8-1.5-1.6-2.4-2.4c-0.4-0.4-1.9-2.5-1.9-3c0.5,0.1,1.4,1.2,1.9,1.7c0.9,0.8,5.2,4,6.6,4.5
		l0.2,0.1c0,0,0,0,0.1,0c0.1,0.1,0.1,0.1,0.2,0.1c0.5,0.1,0.7,0.2,1,0.4l1.6,1c-0.1,0.2-0.6,0.5-0.9,0.6c-0.7,0.2-0.8-0.2-1.4-0.1
		c0,0.1,0,0.2-0.1,0.4c1.3,1.2,1.5,0.5,1.5,1.4C163.9,136.9,164.2,136.9,163.6,136.7z M159.4,139.1c0.1,1.1,1.6,1.7,2.5,1.3
		c0.7-0.3,0.4,0.1,1.2-0.5c0.2-0.1,0.3-0.2,0.4-0.4l0.2-0.6c1,0.1,0.3,1.4,0.3,1.4c-0.2,0.2,0,0-0.2,0.2c-0.7,0.7-1,0.8-1.1,1
		c-0.7,0.1-0.6,0-1.1-0.2c-0.8-0.3-0.6,0.1-1.1,0.3c-0.3-0.2-0.2-0.2-0.5-0.4c-0.3-0.2-0.3-0.1-0.4-0.5c-0.2-0.7-0.4-0.7-0.4-1.5
		C159.2,139,159.1,139.1,159.4,139.1L159.4,139.1z M159.5,137.4c0.4,0.2,0.3,0,0.3,0.4c-0.3,0.2-0.1,0.1-0.5,0.2c0,0,0-0.1,0-0.1
		c-0.1,0.2-0.1-0.2-0.1-0.2c-0.7-0.1-0.6,0.1-0.6,0.1l-0.1,0.1c0,0,0,0-0.1,0.1c-0.6-0.1-0.8-0.3-1.2-0.5c-0.2-0.1-0.3-0.3-0.5-0.4
		c-0.1-0.1-0.4-0.2-0.6-0.4c-1.2-0.7-3-3.6-4-4.7c-0.3-0.3-0.6-0.7-0.7-1.1c0.8,0.1,0.9,1,1.8,1.5l2.3,1.7c0.9,0.5,0.4,0.3,1.6,1
		c0.6,0.3,0.6,0.5,0.9,0.7l1.2,0.6C159,137.3,159.1,136.7,159.5,137.4L159.5,137.4z M165.4,119.1c0.2,0.7,0.3,0.5,0.3,1.3
		c-0.4-0.1-0.4-0.1-0.5-0.5c-0.2-0.5-0.5-1.2-0.5-1.7C165.3,118.3,165.3,118.7,165.4,119.1L165.4,119.1z M162.5,132.7l-1.9-1.8
		c-0.2-0.3-0.1-0.1-0.3-0.4c-0.6-1-2.2-2.4-2.2-3c0.5,0,0.5,0.2,0.7,0.5l4.5,3.6c0.1,0.3,1.1,0.9,1.4,1c1,0.6,0,1.5-0.8,0.6
		c-0.4-0.1-0.2-0.1-0.8-0.2C162.7,132.8,162.8,132.7,162.5,132.7z M163.9,131.6c-0.4-0.5-1.3-0.9-1.9-1.6c-0.4-0.4-2.6-3.2-2.9-3.9
		c-0.2-0.5-1.3-1.7-1-2.2c0.4,0.1,0.7,0.7,0.9,1c0.5,0.7,1.3,1.3,2.1,2.1c0.1,0.1,0.1,0.1,0.2,0.2c0.2,0.2,0.3,0.2,0.5,0.4l3.7,3.7
		c0.1,0.6,0.6,0.2,0.1,0.9c-0.5,0.1-0.2,0.1-0.8-0.3C164.4,131.8,164.2,131.6,163.9,131.6z M142.9,57.7c0-0.6,0-0.1,0.2-0.5
		c0.6-1.1,0.5-1.4,0.7-1.8c0.4-0.9,0.2-0.8,0.5-1.2c0.3-0.5,1.1-2.8,1.7-2.9c0.1,1.1-0.1,1.4-0.2,2.2c-0.1,0.7-0.1,0.3-0.4,0.8
		c-0.5,0.9,0,0.4-0.9,1.4l-0.9,1.5C143.4,57.4,143.3,57.6,142.9,57.7L142.9,57.7z M152.5,63.2c-0.2-0.3-0.1-1.1,0-1.5
		c0.2-0.6,0-1.1,0.2-1.5c0.8,0.2,0.3,1.7,0.3,2C152.9,62.8,152.9,63,152.5,63.2L152.5,63.2z M157.4,53.7c0,1.5,0.1,1.5-0.3,2.9
		l-0.3,1c-0.3,1.5-0.1,1.4-0.4,1.8c-0.3-0.4-0.2-3.7-0.2-4.3v-4.2c0-1.7,1.2,0.4,1.2-1.5l0-1.9c0-0.1,0-0.2,0-0.3
		c0.1-0.4-0.1-0.1,0.1-0.3c0.3,0.1,0.2,0.4,0.5,1.5c0.1,0.6,0.2,0.2,0,0.8c-0.1,0.5,0,0.5-0.1,1c-0.1,0.6-0.1,0.3-0.2,0.8
		L157.4,53.7L157.4,53.7z M163.6,45.7c0.1-0.4,0.1-0.3,0.6-0.5c1.6-0.9,2.4,1.3,1.5,0.8c-0.2-0.1-0.5-0.7-1.4-0.3
		C163.3,46,163.9,45.8,163.6,45.7z M172.5,126.5c0.3,0.3,0.5,0.5,0.5,1c-0.6-0.1-0.5-0.2-0.8-0.6c-0.3-0.4-0.5-0.4-0.7-1
		c0.6,0.1,0.3-0.1,0.6,0.3C172.3,126.2,172.4,126.3,172.5,126.5z M174.6,129.1c-0.1-0.4-0.8-0.8-1-1.2c-0.4-0.6,0-0.3-0.7-1.4
		c-0.4-0.6-1.8-1.9-1.8-2.5c0.8,0,0.1,0.2,1.4,1.2c1.5,1.2,1.5,1.3,2.8,2.6l1.2,1.5c-0.1,0.2,0,0.1-0.2,0.3
		c-0.3,0.2-0.1,0.4-0.3,0.7C175.5,130,175,129.2,174.6,129.1L174.6,129.1z M168.5,136c-0.2,0.1-0.3,0.1-0.5,0.2
		c0.1-0.8,0.6-0.6,0.9-1.2l0.4-0.1c0.1,0.6,0,0.4-0.5,0.8L168.5,136L168.5,136z M186.6,119.3c-0.1,0.6,0.1,1.9-0.1,2.3l-0.5,0
		c-0.2-0.4-0.2-2.1,0-2.6c0.1-0.1,0.1-0.2,0.4,0L186.6,119.3L186.6,119.3z M179.4,44.3c-0.2,0.3-0.1,0.1-0.4,0.3
		c-1,0.6-0.7,0.5-1.5,1.1c0,0-0.1,0.1-0.1,0.1c-0.4,0.3-0.4,0.6-0.5,1.1c0,0.5-0.1,2,0,2.5c0.1,0.3,0.2,0.6,0.4,0.9
		c0.1,0.2,0.2,0.7,0.3,0.9c0.2,0.6,0,0.5,0.3,1l1,2.6c0.2,0.6,0,0.3,0.3,0.9c0.3,0.5,0.5,1.9,1,2.7c0.1,0.2,0.1,0.4,0.2,0.7
		c0,0.1,0.2,0.5,0.2,0.6c0.1,0.3,0.3,1,0.4,1.2l3,9c0.3,0.4-0.1-0.4,0.1,0.3c0.2,0.7,0.3,1.4,0.6,1.9l1,2.8c0.1,0.4-0.1,0.5,0.2,0.7
		l0,0.3c0.5,0.1,0.1,0.1,0.3-0.1c-0.1-1.5,0.1-0.6-0.2-2c-0.1-0.4,0-0.7,0-1c-0.1-0.6-0.2-0.3-0.2-0.9c-0.1-0.6,0.1-1.6,0-2.1
		c-0.1-0.4-0.2-0.2-0.2-0.9c0-0.6,0-0.5-0.1-1.1c-0.2-0.6,0-1.4-0.1-2c-0.1-0.6-0.2-1.4-0.3-2c-0.1-0.7,0-1.4-0.1-2.1
		c-0.1-0.7-0.3-0.2-0.2-2c-0.4-0.3-0.2-1.6-0.2-2.2c0-0.5-0.2-0.4-0.2-1c0-0.4,0-0.8,0-1.1c-0.4-0.3-0.2-1.4-0.2-1.9
		c0-0.7-0.1-1.2-0.1-1.9c0-0.7-0.1-0.4-0.2-0.9c-0.1-0.3,0-0.7,0-1c0-0.8-0.1-1.2-0.2-1.9c-0.2-0.4-0.1-0.5-0.1-1
		c0-0.5-0.1-0.4-0.2-0.9c-0.1-0.8-0.1-1-0.6-1.5c-0.4-0.4-0.6-0.8-1.5-0.6L179.4,44.3L179.4,44.3z M194.8,36.9
		c0.1,0.4-0.1,0.5-0.3,0.9c-0.2,0.3-0.3,0.5-0.5,0.8c-0.2,0.4-0.5,1.4-0.8,1.5c-0.1,0.9-0.9,2.2-0.9,2.5c-0.2,0.8-0.3,0.8-0.4,1.3
		c-0.1,0.4-0.1,0.9-0.3,1.3c-0.2,0.4-0.1,6.2-0.1,6.6c0.1,0.4,0.2,0.3,0.2,0.9c0,0.5,0,0.5,0.1,1c0.2,1.1,0,3.2,0,4.4
		c0.1,1.7,0.2,1.3,0.2,2c0,0.7,0,1.4,0,2.1c0.6,0.7,0,6.3,0.2,7.8c0,0.3,0.4,1.5,0.1,2.3c0.6,0.4,0.3,1.5,0.3,2.6
		c0,0.5-0.1,0.6,0.2,0.8c0.2-0.3,0.1-0.8,0.1-1.2c0-0.3,0-0.9,0.1-1.1c0.1-1.1-0.1-1.7-0.1-2.6l0-7.7c0-2.1,0.5-2,0.4-3.5
		c0-1,0.4-0.9,0.4-3.4c0-0.5,0.1-0.7,0.2-1.1c0-0.5-0.1-0.9,0.2-1.2c0-1.6-0.1-2.1,0.5-3.4c0.2-0.4,0.1-1.3,0.2-1.8
		c0.5-1.8,0.2-8.2,0.6-9.1c0-0.5,0.2-3.3-0.2-3.5C195,36.2,195.5,36.5,194.8,36.9L194.8,36.9z M197,38.8l0,0.2l-0.1,1.8
		c0.1,0.7-0.1,0.3,0.3,0.5l0.1-0.2c0.3-0.8-0.1,0.5,0.1-0.2c0-0.1,0-0.3,0-0.4l0.8-2.8c0.2-0.5,0-0.4,0.2-1c0.4-1,0.2-0.6,0.3-1.3
		c0.1-0.2,0.2-0.4,0.2-0.5c0.1-0.5,0.1-0.9,0.3-1.4c0.1-0.3,0.2-0.4,0.2-0.6c0.2-0.7,0.5-1,0.3-1.7c-0.1-0.2,0-0.1-0.1-0.3
		c-0.3,0.1-0.1,0-0.3,0.2c-0.3,0.2-0.9,0.8-1.1,1.2c-1.3,2.6-0.7,3.1-0.9,4.2C196.9,37.9,197.4,38.6,197,38.8L197,38.8z M198.4,29.7
		c-0.1,0.3,0.1,0-0.2,0.3c-0.2,0.2-0.1,0.1-0.3,0.3c-0.4,0.5-0.6,0.9-0.9,1.4c-0.2,0.4-0.2,0.6-0.2,1.1c0.6-0.1,0.1,0.1,0.5-0.2
		l1.5-2C199.1,29.9,198.9,29.8,198.4,29.7z"/>
</g>
</svg>
