<?xml version="1.0" encoding="utf-8"?>
<!-- Generator: Adobe Illustrator 24.0.2, SVG Export Plug-In . SVG Version: 6.00 Build 0)  -->
<svg version="1.1" id="Слой_1" xmlns="http://www.w3.org/2000/svg" xmlns:xlink="http://www.w3.org/1999/xlink" x="0px" y="0px"
	 viewBox="0 0 238.1 150.2" style="enable-background:new 0 0 238.1 150.2;" xml:space="preserve">
<g>
	<path d="M187.1,112.5c-0.2-0.1-0.4-0.2-0.7-0.3c-0.1,0.3-0.2,0.6-0.3,0.9c-1.1-1.9-2.2-3.8-3.3-5.6c-0.1,0-0.2,0.1-0.3,0.1
		c2.1,6.3,1.1,12.8,1.4,19.3c0.4-1.9,0.8-3.9,1.2-5.8c0.1,0,0.2,0,0.3,0c0,2.3,0,4.6,0,6.9c0.2,0,0.3,0,0.5,0
		c0.1-3.3,0.3-6.6,0.4-9.9c0.1,0,0.2,0,0.3,0c0.5,3,1,6,1.5,9c0-2.7,0-5.4,0-8.2c0.2,0.4,0.3,0.8,0.4,1.1c0,0,0.1,0,0.1,0
		c-0.1-1.1-0.2-2.2-0.3-3.3c0.1,0,0.2,0,0.3-0.1c0.4,0.8,0.9,1.6,1.3,2.4c0,0,0.1,0,0.1-0.1c-0.2-0.6-0.3-1.1-0.5-1.7
		c0,0,0.1,0,0.1-0.1c2.3,3,4.7,6.1,7,9.1c0.1-0.1,0.3-0.2,0.4-0.3c-1.3-2.5-2.5-4.9-3.8-7.4c0.1-0.1,0.1-0.1,0.2-0.2
		c1.2,1.1,2.5,2,3.6,3.2c3.7,3.9,7.4,7.9,11.1,11.8c0.2,0.2,0.5,0.5,0.7,0.7c0,4.5,0,9,0,13.6c-0.2-0.3-0.4-0.6-0.6-0.9
		c-1-1.6-1.9-3.2-2.9-5c-0.2,0.5-0.3,0.8-0.5,1.3c-0.6-1.4-1.1-2.6-1.7-4c0.2,1.8,0.4,3.3,0.6,4.9c-0.1,0-0.3,0.1-0.4,0.1
		c-1.1-3.5-2.2-7-3.3-10.5c-0.1,0-0.2,0.1-0.4,0.1c0.7,3.9,1.4,7.8,2.2,11.8c-0.4-0.1-0.6-0.2-0.7-0.2c0.1,0.4,0.1,0.6,0.2,0.9
		c-0.1,0-0.1,0-0.2,0c-0.7-2.5-1.4-5-2.1-7.5c0,0-0.1,0-0.1,0c0.1,2.5,0.2,5.1,0.4,7.6c-0.1,0-0.3,0-0.4,0.1
		c-0.4-1.4-0.7-2.9-1.1-4.3c-0.1,0-0.1,0-0.2,0c0.1,1.8,0.2,3.6,0.3,5.4c-0.1,0-0.2,0.1-0.3,0.1c-0.2-0.2-0.5-0.4-0.6-0.6
		c-0.2-0.4-0.2-0.9-0.3-1.4c-0.1-0.9-0.3-1.8-0.4-2.7c-0.1,0-0.1,0-0.2,0c0,0.3-0.1,0.7-0.1,1c-0.1,0-0.2,0.1-0.3,0.1
		c-0.2-0.4-0.4-0.8-0.5-1.3c-0.7-3.4-1.4-6.8-2.1-10.2c-0.1,0-0.2,0-0.3,0c0.6,4.2,1.2,8.3,1.8,12.6c-0.4-0.1-0.6-0.1-0.8-0.2
		c-0.2,0.4-0.3,0.7-0.4,1c-0.1,0-0.1,0-0.2-0.1c-0.1-0.6-0.3-1.2-0.4-1.7c-0.1,0-0.1,0-0.2,0c0,0.4-0.1,0.7-0.1,1.1
		c-0.1,0-0.1,0-0.2,0c-0.5-3.4-1-6.9-1.4-10.3c-0.1,0-0.2,0-0.3,0c0,3.5,0,7.1,0,10.6c-0.2,0-0.3,0-0.5,0c-0.6-3.4-0.4-6.9-0.8-10.4
		c-0.3,2.6-0.5,5.3-0.8,7.9c-0.1,0-0.1,0-0.2,0c-0.1-0.7-0.2-1.4-0.3-2.2c0,0-0.1,0-0.1,0c-0.3,2.5-0.6,5.1-0.8,7.6
		c-0.1,0-0.3,0-0.4,0c0-1.7,0-3.4,0-5.1c-0.1,0-0.2,0-0.3,0c-0.4,1.7-0.7,3.4-1.1,5.1c-0.1,0-0.1,0-0.2,0c0.2-1.6,0.3-3.2,0.5-4.9
		c-0.1,0-0.3-0.1-0.4-0.1c-0.4,1.6-0.9,3.3-1.3,4.9c-0.3,0-0.7,0-1,0c0.1-1.2,0.2-2.4,0.4-3.6c-0.1,0-0.2,0-0.3-0.1
		c-0.4,1.2-0.7,2.5-1.1,3.7c-0.1,0-0.3,0-0.4,0c0-2,0-4,0-6c-0.1,0-0.1,0-0.2-0.1c-0.5,2-1,4-1.5,6c-0.1,0-0.1,0-0.2,0
		c0-0.5,0-1,0.1-1.5c0.6-2.8,1.2-5.5,1.8-8.3c0.3-1.5,0.5-2.9,0.7-4.4c-1.2,3.2-2.2,6.4-3.3,9.6c-0.5,1.5-1.1,3.1-1.6,4.6
		c-1.2,0-2.5,0-3.7,0c1-3.9,2.1-7.8,3.1-11.6c-0.1,0-0.2-0.1-0.3-0.1c-1.6,3.9-3.2,7.8-4.7,11.7c-1.1,0-2.2,0-3.3,0
		c0.1-0.3,0.3-0.5,0.4-0.8c3.6-7.6,6.3-15.6,8.4-23.8c0.2-0.7,0.3-1.4,0.5-2.1c-0.3,0.3-0.5,0.6-0.6,1c-2.9,6.3-5.7,12.6-8.6,18.9
		c-1.1,2.3-2.5,4.6-3.7,6.8c-0.1,0-0.3,0-0.4,0c0.1-0.2,0.1-0.5,0.2-0.7c3.1-7.6,6.2-15.2,9.3-22.7c0.5-1.3,0.9-2.6,1.4-3.9
		c-0.2,0.1-0.3,0.2-0.4,0.4c-3.6,7-7.1,14-10.7,21c-1,2-2.2,3.9-3.2,5.9c-0.2,0-0.4,0-0.6,0c0.1-0.2,0.2-0.5,0.3-0.7
		c3.5-6.5,6.7-13.3,9.4-20.1c1-2.5,1.9-4.9,2.9-7.4c-0.3,0.1-0.5,0.3-0.6,0.6c-4.2,7.2-8.3,14.5-12.5,21.7c-1.2,2-2.3,4-3.4,6
		c-0.1,0-0.3,0-0.4,0c0.7-1.3,1.3-2.7,2-4c2.1-3.9,4.4-7.7,6.4-11.7c0.8-1.5,1.4-3.2,2.1-4.8c-0.4,0.2-0.7,0.5-0.9,0.8
		c-2.9,4.5-5.9,9-8.8,13.5c-1.3,2-2.5,4.2-3.7,6.3c-2.7,0-5.5,0-8.2,0c-0.9-0.9-1.7-1.7-2.6-2.6c-4.9-4.8-8.6-10.4-11.9-16.4
		c-0.9-1.6-1.8-3.2-2.6-4.8c-0.1,0.3-0.1,0.5,0,0.8c1.3,6.1,3.9,11.6,7.7,16.5c1.7,2.2,3.6,4.3,5.4,6.4c-0.2,0-0.4,0-0.6,0
		c-0.2-0.3-0.4-0.5-0.7-0.8c-3.6-3.5-6.6-7.4-8.9-11.7c-2.9-5.4-5.4-10.9-8.1-16.3c-0.8-1.5-1.4-3.1-2.1-4.7c0.6,3,1.4,5.9,2.3,8.8
		c2.7,8.4,6.3,16.4,11.8,23.4c0.3,0.4,0.6,0.9,0.9,1.3c-0.1,0-0.3,0-0.4,0c-0.1-0.1-0.1-0.3-0.2-0.4c-5.4-6.5-9.3-13.8-12.3-21.6
		c-0.8-2.1-1.6-4.2-2.3-6.3c0,0.8,0.1,1.6,0.2,2.4c1.4,8.1,4.7,15.4,9.2,22.2c0.8,1.2,1.6,2.5,2.4,3.8c-0.1,0-0.3,0-0.4,0
		c-0.1-0.2-0.2-0.4-0.3-0.6c-4.5-5.8-8-12.2-10.4-19.2c-0.1-0.2-0.2-0.3-0.3-0.5c-0.1,0.3,0,0.5,0,0.7c0.9,4.8,2.8,9.2,4.9,13.5
		c1,2,2,4,3,6c-0.2,0-0.4,0-0.6,0c-2.5-5.1-5-10.3-7.5-15.4c0.8,2.9,1.5,5.9,2.4,8.8c0.7,2.2,1.6,4.4,2.4,6.6c-1,0-2.1,0-3.1,0
		c-0.4-1-0.7-2-1.1-3c-0.1,0-0.1,0-0.2,0c0.2,1,0.3,2,0.5,3c-0.1,0-0.1,0-0.2,0c-0.3-0.9-0.7-1.7-1-2.6c0,0-0.1,0-0.1,0.1
		c0.1,0.8,0.2,1.7,0.3,2.5c-0.1,0-0.1,0-0.2,0c-0.3-1.2-0.6-2.4-0.9-3.6c-0.1,0-0.1,0-0.2,0c0.1,1.2,0.2,2.4,0.3,3.6
		c-1.6,0-3.3,0-4.9,0c-0.5-3.9-0.9-7.8-1.4-11.8c-0.1,0-0.2,0-0.3,0c0.1,1.5,0.2,2.9,0.3,4.4c0.2,2.4,0.5,4.9,0.7,7.3
		c-0.4,0-0.8,0-1.2,0c-0.3-3.1-0.7-6.2-1-9.3c0,0,0,0,0,0c0,3.1,0,6.2,0,9.3c-6.5,0-13,0-19.5,0c0-5.2,0-10.4,0-15.6
		c1.1-2.2,2.1-4.4,3.2-6.6c0.1-0.2,0.3-0.5,0.6-0.6c-0.2,0.7-0.3,1.3-0.5,2c0.1,0,0.2,0.1,0.3,0.1c1.1-2,2.1-4.1,3.2-6.1
		c0.1,0,0.1,0,0.2,0c-0.2,1.7-0.5,3.4-0.7,5.2c0.1,0,0.1,0.1,0.2,0.1c0.6-1.3,1.1-2.6,1.7-3.8c0.1,0,0.2,0.1,0.3,0.1
		c-0.4,3.4-0.9,6.7-1.3,10.1c0.1,0,0.2,0,0.4,0.1c0.3-1.5,0.6-3,1-4.5c0.1-0.4,0.1-0.9,0.3-1.3c0.2-0.5-0.1-1.3,0.9-1.3
		c0.1,0,0.3-0.5,0.4-0.8c0.3-0.9,0.6-1.8,1-2.7c0.1,0,0.2,0,0.3,0c-0.2,1.4-0.4,2.8-0.6,4.2c1.7-3.7,2.1-7.8,4.2-11.5
		c0.1,0.2,0.2,0.3,0.2,0.5c0.2-0.4,0.3-0.7,0.5-1.1c0.1,0.3,0.2,0.5,0.3,0.7c0.2-0.2,0.4-0.4,0.6-0.7c0,0.4,0.1,0.6,0.1,1.1
		c0.3-0.5,0.6-0.8,0.9-1.3c0.1,0.3,0.1,0.5,0.1,0.7c0.2-0.1,0.3-0.3,0.5-0.5c0,0.4,0,0.7,0,0.9c0,0,0.1,0,0.1,0
		c0.2-0.7,0.5-1.3,0.7-2c0.1,0,0.1,0,0.2,0c-0.4,2.1-0.8,4.2-1.1,6.4c-0.7,4.2-1.3,8.4-1.9,12.7c-0.1,1,0.2,2,0.3,3.1
		c0.3-2.2,0.6-4.3,0.9-6.4c0.1,0,0.1,0,0.2,0c0,1.4,0,2.7,0,4.1c0.1,0,0.2,0,0.3,0c0.3-2.9,0.7-5.7,1-8.6c0.1,0,0.1,0,0.2,0
		c-0.2,3.5-0.4,7-0.7,10.4c0.1,0,0.2,0,0.4,0.1c0.2-1.3,0.4-2.6,0.6-4c0.1,0,0.3,0.1,0.5,0.1c0.3-2.9,0.6-5.7,0.9-8.5
		c0.1,0,0.1,0,0.2,0c-0.1,2.7-0.3,5.5-0.4,8.2c0.2,0,0.3,0,0.5,0.1c0.2-1,0.4-2,0.5-3c0.4-5.1,0.8-10.2,1.3-15.3
		c0.1-1.5,0.4-3,1.4-4.5c0.4,2.4,0.7,4.7,1,7c0-3.7,1.4-7.4,0.7-11.4c-0.4,0.4-0.6,0.7-0.9,1c-0.9,1.2-1.6,2.5-2.7,3.5
		c-1,1-2.5,1.1-3.6,1.9c-0.8,0.5-1.6,1-2.4,1.5c0-0.1-0.1-0.1-0.1-0.2c1-0.6,2-1.4,3.1-1.9c2.5-1.1,4.2-3.1,5.7-5.3
		c0.6-1,0.8-1.9,0.5-3c-1-4.6-2-9.1-3-13.7c-0.1-0.3-0.2-0.6-0.4-0.8c-2.2-2.3-3.5-5.1-4.6-8.1c-1-2.8-2-5.5-2.8-8.3
		c-0.3-1.1-0.3-2.3-0.2-3.4c0.1-1.6,0-3-0.9-4.4c-0.4-0.6-0.6-1.5-0.8-2.3c0.1-0.1,0.2-0.1,0.3-0.2c0.5,0.2,1,0.4,1.6,0.6
		c0.3-1,0.6-2,0.9-3c0.1,0,0.2,0,0.3-0.1c0.9,1.4,1.9,2.7,2.8,4.1c0.1,0,0.2-0.1,0.2-0.1c0-0.8-0.1-1.7-0.1-2.5
		c-0.2-5.5,0.9-10.8,2.1-16.1c0.3-1.3,0.5-2.6,0.7-3.9c0.4-2.6-0.1-5.1-1.5-7.4c-1.6-2.7-1.9-5.8-1.2-8.1c0.9,3.5,2,7.3,3,11.1
		c0.1,0,0.2-0.1,0.3-0.1c-0.5-1.3,0.7-2.8-1.1-3.9c0.1,0,0.2-0.1,0.3-0.1c0.5,0.3,1,0.7,1.5,1c0-0.1,0.1-0.1,0.1-0.2
		c-0.3-0.3-0.5-0.6-0.9-1.1c0.9,0.2,1.5,0.4,2.4,0.7c-0.3-0.4-0.5-0.7-0.8-1.1c0.5,0.2,0.8,0.3,1.4,0.4c-0.5-0.6-0.8-0.9-1.3-1.5
		c1,0.2,1.8,0.3,2.7,0.5c-0.3-0.4-0.4-0.6-0.6-0.9c0.7-0.2,1.4-0.3,2.1-0.4c0-0.1,0-0.1,0-0.2c-0.5-0.1-0.9-0.2-1.6-0.3
		c0.4-0.2,0.6-0.3,1-0.4c-0.5-0.2-0.8-0.4-1.1-0.5c-0.8-0.3-1.7-0.4-2.3-1.2c-0.3-0.4-1.1-0.3-1.7-0.4c-0.1,0-0.1,0.1-0.2,0.1
		c-0.8,0-3.1-2.5-3.2-3.6c1,0.9,1.8,1.7,2.7,2.5c0.2,0.2,0.5,0.5,0.7,0.5c1.4,0,2.5,0.7,3.6,1.4c1.7,1.1,2.6,1,4.3-0.3
		c1.1-0.9,1.8-1.7,1.9-3.3c0.1-1.7,1-3.3,1.5-4.9c0.1,0,0.2,0,0.3,0c0.9,1.4,1.7,2.9,2.6,4.3c5.2-2.3,10.4-3.6,15.8-4.4
		c0.9-0.1,1.8-0.3,2.7-0.4c0.6,0,1-0.3,1.2-0.9c0.8-2.6,1.6-5.2,2.4-7.8c0.2-0.5,0.3-1.1,0.6-1.9c0.3,0.5,0.4,0.8,0.6,1.1
		c1.4,2.9,2.2,6,2.8,9.1c0.1,0.5,0.2,0.9,0.9,1c5.1,0.7,9.9,2.2,14.7,4c0.2,0.1,0.3,0.1,0.5,0.1c0.8-1.3,1.6-2.6,2.4-4
		c1.3,1.5,1.9,3.1,1.9,4.8c0,1.3,0.4,2.2,1.6,2.9c0.3,0.2,0.5,0.4,0.8,0.7c1.3,1.1,2.2,1.1,3.6,0.1c1.2-0.8,2.3-1.8,3.9-1.8
		c0.3,0,0.6-0.4,0.8-0.7c0.7-0.7,1.5-1.5,2.2-2.2c0.2,0.1,0.3,0.1,0.5,0.2c0,2.2,0.1,4.4,0,6.6c0,0.7-0.4,1.5-0.8,2.1
		c-1.8,2.7-2.2,5.7-1.8,8.8c0.4,3.3,1.1,6.5,1.5,9.8c0.5,4,0.7,8,1.1,12c0,0.2,0,0.4,0.1,0.8c1-1.5,1.9-2.7,2.7-4
		c0.1,0,0.2,0,0.4,0.1c0.3,1,0.6,2,0.9,3c0.1,0,0.3-0.1,0.5-0.2c0.3-0.1,0.7-0.1,1-0.2c0,0.4,0.2,0.7,0.1,1.1
		c-0.1,0.5-0.3,0.9-0.5,1.3c-0.9,1.4-0.9,2.9-0.8,4.4c0.1,1.1,0,2.3-0.3,3.3c-1.3,4.9-2.8,9.8-5.8,14c-1.9,2.6-2.4,5.4-3,8.3
		c-0.7,3.1-1.3,6.2-2,9.3c-0.2,0.7-0.1,1.2,0.4,1.7c0.5,0.5,0.9,1.2,1.2,1.9C184.4,108.6,185.4,110.8,187.1,112.5L187.1,112.5z
		 M125.4,30.4c0.3,0.7,0.6,1.4,0.8,2.2c0.1,0,0.1,0,0.2-0.1c-0.1-0.7-0.1-1.5-0.2-2.2c0.5,0.6,0.9,1.1,1.3,1.6
		c0.1-0.1,0.2-0.1,0.2-0.2c-0.1-0.4-0.1-0.8-0.2-1.2c0.5,0.1,0.9,0.2,1.5,0.4c-1.3-2.6-2.5-5.2-3.8-7.9c0,0.6-0.1,0.9-0.1,1.2
		c0,0-0.1,0-0.1,0c-0.1-0.3-0.2-0.6-0.2-0.8C124.4,25.8,124.8,28.1,125.4,30.4c-0.1-0.1-0.3-0.2-0.5-0.4c0.2,1.1,0.3,2.1,0.5,3.1
		c0.1,0,0.2,0,0.2,0C125.5,32.2,125.4,31.3,125.4,30.4z M112,65.9c0.4,0.3,0.8,0.5,1.2,0.8c-0.1,0.1-0.3,0.3-0.6,0.5
		c0.7,0.3,1.2,0.6,1.8,0.9c0.1-0.1,0.1-0.2,0.2-0.3c-0.2-0.3-0.5-0.6-0.8-1c0.3-0.1,0.5-0.2,0.6-0.2c0-0.3-0.1-0.5-0.1-0.7
		c-0.1-0.3-0.2-0.6-0.2-0.6c0.3-1.1,0.5-1.9,0.8-3c-0.5,0.2-0.8,0.4-1.1,0.5c-0.1-0.3-0.1-0.5-0.2-0.8c-2.9,2.4-5.3,0-7.9-0.7
		c0.2,2.5,2.8,5.6,5,6.4c0.5-0.3,0.8-0.5,1.2-0.8c-0.3-0.2-0.7-0.5-0.9-0.7C111.3,66.2,111.7,66,112,65.9
		C112,65.8,112,65.9,112,65.9z M134.8,82.1c0.6-0.2,1.2-0.3,1.7-0.5c0-0.1,0-0.1,0-0.2c-0.9,0-1.9,0.1-2.8,0.1c0,0.1,0,0.2,0,0.3
		C134.1,82,134.5,82,134.8,82.1c-0.3,0-0.7,0.2-1.1,0.1c-1.9-0.2-3.7-0.5-5.6-0.7c-0.6-0.1-1.2-0.5-1.8,0.5
		c-0.3,0.6-0.4,0.9-0.1,1.4c1.1,1.7,2.6,2.4,4.6,2.3c-0.7,0.4-1.4,0.6-2,0.9c-1.7,0.9-3.5,1.7-5.1,2.7c-1,0.6-1,1.5,0,2.3
		c0.4,0.4,0.9,0.6,1.4,0.9c0.7,0.5,1.5,1,1.9,1.6c0.8,1.2,1.5,2.4,2.1,3.7c0.7,1.3,1.2,2.7,1.9,4.3c0.4-0.6,0.8-1,1-1.5
		c0.5-1,1-2.1,1.5-3.2c0.7-1.3,1.3-2.7,2.1-4c1.1-1.7,3.2-2.5,4.9-2c-1.7,0.9-2.7,2.3-3.5,3.8c-0.5,0.8-0.9,1.7-1.3,2.5
		c-1.4,2.5-3.1,4.6-5.3,6.6c-0.4-0.8-0.7-1.5-1-2.3c-0.9-2.1-1.7-4.2-2.7-6.2c-0.6-1.1-1.4-2.1-2.3-3c-0.8-0.8-1.8-1.4-2.8-2.1
		c-0.7,0.5-1.4,1-2.3,1.6c4.1,6.1,8,12.1,12.1,18.3c1.7-3.8,3.7-7.1,7.3-9c0.2,0.3,0.4,0.5,0.5,0.7c2.4,3.4,5.5,5.9,9.3,7.7
		c0.7,0.3,1.3,0.3,2,0.1c3.8-1.4,6.9-3.7,9.2-7.1c0.3-0.4,0.6-0.9,0.9-1.4c3.7,2,5.6,5.4,7.4,9.1c3.9-6.3,8.4-12,11.8-18.4
		c-0.9-0.6-1.7-1.1-2.3-1.5c-0.8,0.7-1.3,1.3-1.9,1.8c-0.9,0.9-2,1.7-2.6,2.8c-0.9,1.5-1.5,3.2-2.3,4.8c-0.7,1.4-1.3,2.9-2.1,4.6
		c-1.1-1.5-2.1-2.6-2.9-3.9c-2.2-3.3-3.7-7.1-7.1-9.9c2.7,0,4.5,1.1,5.7,3.2c0.9,1.7,1.6,3.5,2.4,5.2c0.4,0.9,0.9,1.7,1.4,2.6
		c0.9-1.9,1.7-3.6,2.6-5.3c1-1.7,2-3.5,3.9-4.5c0.6-0.3,1-1,1.4-1.6c0.4-0.5,0.3-0.9-0.2-1.2c-0.8-0.6-1.7-1.2-2.6-1.7
		c-1.6-0.8-3.3-1.5-5-2.3c1.5,0.3,2.7-0.5,3.9-1.2c0.8-0.5,0.7-1.8-0.1-2.2c-0.2-0.1-0.3-0.5-0.5-0.9c-1.6,0.5-3.4,1.2-5.5,0.7
		c0.5-0.5,1-0.9,1.5-1.2c0.7-0.4,1.4-0.7,2.1-1.1c-0.7,0-1.4,0.2-2,0.3c-0.6,0.1-1.3,0.1-1.9,0.2c0.1-0.2,0.2-0.2,0.3-0.2
		c0,0,0-0.1,0.1-0.1c-2.8-0.4-3.4-1.1-3.9-4.6c-1.5,1-1.8,2.9-0.7,4.8c-0.5,0-0.9,0-1.3,0c-1.8-0.1-1.9-0.3-1.5-1.9
		c-1.2,1.3-1,1.9,0.7,2.3c0.6,0.1,1.2,0.2,1.8,0.3c0.5,0.1,0.9,0.3,1.4,0.4c0,0.1,0,0.1-0.1,0.2c-0.6,0-1.1,0.1-1.7,0.1
		c0,0.1,0,0.2,0,0.2c0.5,0.1,0.9,0.1,1.4,0.2c0,0.1,0,0.1,0,0.2c-0.8,0-1.5,0-2.3,0c0,0.1,0,0.1,0,0.2c0.8,0.1,1.5,0.3,2.3,0.4
		c-0.2,0.4-0.6,0.8-0.6,1.1c0.3,2,1.4,2.8,3.4,2.6c0.7-0.1,1.3-0.4,2-0.5c0.3-0.1,0.6,0,0.9,0c-1.3,0.7-2.6,1.3-3.9,2
		c-0.5,0.2-0.8,0.3-1.3-0.1c-2.7-2.5-5.5-5-8.2-7.5c-0.3-0.3-0.5-0.8-0.5-1.2c-0.1-1.9,0.7-3.4,2.3-4.4c1.2-0.7,2.3-1.4,3.5-2.1
		c0.7-0.4,0.9-0.9,0.3-1.6c-0.6-0.7-1.1-1.6-1.7-2.3c-0.4-0.6-0.5-1.2-0.3-2c1.2-3.8,2.3-7.7,2.5-11.7c0.1-3.1,1.6-5.4,3.8-7.5
		c0.2-0.2,0.5-0.3,0.7-0.3c1,0,1.9,0,2.9,0.2c0.4,0.1,0.9,0.4,1.2,0.7c1,1.3,1.9,2.7,2.9,4.1c1.2-0.8,1.9-2.1,3.4-1.6
		c-0.2-1-0.4-1.8-0.4-2.6c-0.2-2.8-1.6-4.8-3.9-6.3c-0.6-0.4-1.1-0.8-1.7-1.2c-3.6-2-5.6-5.4-7.6-8.8c-1.7-3-3.6-5.8-5.6-8.5
		c-1.5-2.1-3.7-3.4-6.4-4.3c0.1,0.4,0.2,0.7,0.3,0.9c1,1.8,1.9,3.7,3,5.5c2.7,4.7,3.7,9.7,2.5,15.1c-0.8,3.8-2.3,7.3-4.3,10.6
		c-1.1,1.7-1.5,3.5-1.4,5.6c0.1,1.5,0,3,0.1,4.5c0.1,1.9,0.2,3.9,1.3,5.5c0.6,0.9,0.5,1.6-0.1,2.4c-1,1.3-1.6,2.8-1.5,4.5
		c0,0.5,0.2,0.7,0.7,0.7c0.5,0,1.1,0,1.6,0c-0.4,0.3-0.9,0.5-1.3,0.5c-0.6,0.1-1,0.3-0.7,1c0.5,1.1,0.9,2.3,1.6,3.3
		c0.6,1,0.7,1.7-0.2,2.5c-0.4,0.4-0.7,0.9-1,1.3c-1.2,2-1.1,3.7,0.3,5.6c0.3,0.5,0.7,0.9,1,1.4c0.1,0.2,0.2,0.6,0.1,0.7
		c-0.8,1.4-1.6,2.8-2.5,4.3c-0.8-1.4-1.5-2.7-2.2-4c-0.4-0.6-0.3-1.1,0.1-1.6c0.3-0.3,0.5-0.6,0.7-0.9c1.4-1.5,1.7-3.1,0.7-5
		c-0.4-0.8-0.9-1.5-1.4-2.2c-0.6-0.8-0.6-1.5,0-2.4c0.6-0.9,1-1.9,1.5-2.9c0.4-0.7,0.2-1.2-0.7-1.3c-0.4,0-0.9-0.2-1.3-0.4
		c0-0.1,0-0.1,0-0.2c0.7,0,1.4,0,2.2,0c0-0.4,0.1-0.7,0.1-1c0.1-1.6-0.5-2.9-1.4-4.2c-0.9-1.4-0.9-1.4,0-2.8c0.6-1,1.2-2.1,1.4-3.3
		c0.3-1.9,0.2-3.8,0.2-5.7c0-2.5-0.7-4.8-2.1-6.9c-0.9-1.3-1.6-2.8-2.2-4.3c-1.8-4.4-2.7-8.9-1.8-13.6c0.7-3.6,2.4-6.8,4.2-10
		c0.6-1,1.2-2.1,1.8-3.2c-1.6,0.2-3.4,1.2-5,2.7c-3,2.8-5.4,6.1-7.1,9.9c-1.8,3.9-4.3,7.1-8.1,9.3c-0.4,0.2-0.7,0.5-1,0.7
		c-3.3,2.1-4.3,5.3-4.4,8.7c0.8,0.4,1.5,0.6,2.1,1.1c1.2,0.9,1.2,0.9,2-0.3c0.6-0.9,1.2-1.8,1.9-2.5c1-1.2,2.4-1.5,3.9-1.4
		c0.4,0,0.8,0.3,1,0.5c0.7,0.7,1.4,1.5,2.1,2.3c1.2,1.3,1.9,2.7,1.8,4.5c0,1.1-0.1,2.2,0.1,3.2c0.7,3.2,1.5,6.3,2.3,9.4
		c0.2,0.6,0.2,1-0.3,1.6c-0.8,1-1.5,2.2-2.3,3.4c0.8,0.5,1.5,1,2.1,1.5c0.8,0.6,1.7,1.1,2.5,1.7c1.1,0.8,1.8,1.8,2,3.2
		c0.2,1.3-0.5,1.9-1.4,2.7c-2.7,2.4-5.4,4.9-8,7.3c-1.6-0.8-2.9-1.6-4.3-2.3c0.4,0,0.7,0.1,1,0.2c1.2,0.4,2.5,0.5,3.7-0.2
		c0.8-0.5,1.3-2,0.8-2.3C136.5,82.8,135.6,82.5,134.8,82.1z M124,27.4c-2,1.8-4.1,3.6-6,5.5c-1.7,1.7-2.9,3.8-3.3,6.1
		c-0.4,1.8-0.6,3.6-0.8,5.4c-0.6,5.3-0.3,10.6,2.1,15.5c1.2,2.5,1.9,5.2,1.9,7.9c-0.1,2.1,1.2,3.4,2.3,4.8c0.2,0.3,0.6,0.4,1,0.7
		c0.3-1.2,0.7-2.3,0.9-3.4c0.5-2.3,2-3.4,4.2-4.5c2.5-1.3,4-0.2,5.8,1c1.5,1.1,2.9,2.2,4.4,3.3c1.3-0.9,2.7-1.7,4-2.6
		c-1.2-2.6-2.7-4.8-5.1-6.3c-1.6-1-2.3-2.4-2.3-4.2c0-1,0.1-2-0.1-3c-0.2-1.4-0.2-2.5,1.1-3.4c0.2-0.2,0.4-0.8,0.3-1.1
		c-0.1-0.3-0.7-0.4-1-0.4c-0.7,0-1.5,0.3-2.2,0.3c-0.6,0-0.9,0.3-1.2,0.9c-0.6,1.3-1.4,2.6-2.1,4c-1.9-1.1-3.6-2.1-5.5-3.1
		c0-0.1,0-0.3,0-0.5c0.2-1.8,0.4-3.5,0.5-5.3c0-0.3-0.1-0.8-0.3-1c-1.9-2.2-2.5-4.8-2.1-7.6c0.3-2.1,0.9-4.2,2.7-5.4
		C124.5,30.2,125,28.9,124,27.4z M178,73.4c0.1,0.1,0.3,0.1,0.4,0.2c1-1.3,1.9-2.5,2.9-3.8c0.1-0.1,0.1-0.4,0.1-0.6
		c-0.2-3.1,0.6-6.1,1.9-8.9c1.3-3,2.2-6.1,2.4-9.4c0.3-4.6-0.2-9.2-2-13.5c-1.8-4.2-4.7-7.6-8.4-10.4c-0.4,1.6-0.7,2.9,0.8,4.3
		c2.9,2.6,4.6,7.8,1.1,11.8c-1,1.1-1.1,2.5-0.8,4c0.3,1.2,0.5,2.5,0.6,3.7c0,0.3-0.4,0.8-0.6,0.8c-1.2,0-2,0.6-2.8,1.3
		c-0.4,0.3-0.9,0.6-1.4,0.9c-0.5,0.3-0.9,0.2-1.2-0.4c-0.6-1.2-1.2-2.3-1.8-3.4c-0.1-0.2-0.3-0.6-0.5-0.6c-1-0.2-2.1-0.3-3.1-0.4
		c-0.8,0-1.1,0.4-0.7,1.2c0.1,0.2,0.3,0.5,0.5,0.6c1.2,0.9,1.4,2.1,1,3.5c-0.3,1.2-0.7,2.3-0.6,3.5c0,1.1-0.5,1.8-1.2,2.5
		c-1.4,1.3-2.9,2.6-4.1,4c-0.8,0.9-1.2,2-1.8,3c1.3,0.8,2.3,1.5,3.3,2.2c0.5,0.4,0.9,0.3,1.4,0c2-1.5,4.1-2.9,6.1-4.3
		c0.6-0.5,1.3-0.7,2,0c0.4,0.4,1,0.5,1.6,0.7c2.2,0.5,3.3,1.9,3.9,3.9C177.2,70.9,177.6,72.1,178,73.4z M146.8,132.8
		c0.1-0.1,0.1-0.3,0.2-0.4c-0.6-0.8-1.3-1.6-1.9-2.4c-1.5-2.1-1.5-3.9,0.5-5.5c2.3-1.8,3-3.8,2-6.5c-0.2-0.7,0-1.5,0-2.1
		c0.5,0.1,0.9,0.2,1.4,0.2c0.1,0.1,0.3,0.4,0.6,0.7c0.3-0.4,0.5-0.7,0.8-1.1c0.2,0.2,0.3,0.4,0.4,0.6c0.3-0.3,0.4-0.5,0.7-0.8
		c0,1.3,0.2,2.3,0,3.4c-0.4,1.9-0.1,3.4,1.5,4.7c0.6,0.4,1.1,1.1,1.4,1.8c0.4,0.7,0.6,1.5,0.7,2.3c0.2,1.5-0.7,2.5-1.6,3.5
		c-0.4,0.4-0.7,0.9-1,1.4c0.1,0.1,0.1,0.2,0.2,0.3c1.4-0.1,2.9-0.1,4.3-0.3c2.3-0.3,3.6-2.5,2.9-4.7c-0.4-1.1-0.9-2.2-1.6-3.1
		c-1.3-1.7-1.4-3.3-0.3-5c0-0.1,0.1-0.1,0.1-0.2c0.6-1.2,0.6-2.4-0.1-3.5c-0.3-0.4-0.4-0.9-0.6-1.3c0.9-0.4,1.6-0.8,2.5-1.3
		c-3-0.8-5.8-1-8.5,0c-1.1,0.4-2.3,0.5-3.4-0.1c-1.7-0.9-3.6-0.8-5.4-0.5c-1.1,0.1-2.2,0.4-3.3,0.7c0,0.1,0,0.2,0,0.3
		c0.8,0.4,1.7,0.8,2.6,1.3c-1.3,1.5-1.3,3.1-0.7,4.7c0.2,0.7,0.4,1.4,0.7,2c0.3,0.7,0.2,1.2-0.3,1.8c-0.6,0.8-1.2,1.5-1.6,2.3
		c-1.4,2.6-0.4,5.5,2.4,6.4C143.7,132.6,145.2,132.6,146.8,132.8z M117.2,71.4c-0.1,0.3-0.3,0.7-0.4,1.1c-1.5,5.8-1.2,11.5,1.3,17
		c0.7,1.6,1.7,1.9,3.2,0.7c0.5-0.4,0.9-1,1.1-1.6c0.5-1.9,0.7-3.8,1.1-5.7c0.5-2.4-0.3-4.4-1.9-6.2c-0.5-0.5-1-1.1-1.4-1.6
		C119.2,73.8,118.3,72.6,117.2,71.4z M181.9,71.6c-1.1,1.4-2.2,2.8-3.4,4.2c-0.6,0.7-1.3,1.4-1.8,2.2c-0.5,1-1.2,2.2-1.1,3.2
		c0.3,2.6,1,5.2,1.6,7.8c0.3,1.1,1.2,1.6,2.3,1.7c0.7,0.1,1.1-0.1,1.4-0.8c1.6-3.7,2.3-7.6,2.3-11.6C183.3,76,183,73.6,181.9,71.6z
		 M147,19c-0.1-0.1-0.1-0.3-0.2-0.4c-6.1,0.4-11.9,2.1-17.5,4.9c0.6,0.6,1,1.1,1.5,1.5c0.2,0.2,0.7,0.2,1,0.1c3-1.1,5.9-2.3,8.8-3.5
		C142.8,20.8,144.9,19.9,147,19z M170,23.4c-5.7-2.3-11.2-4.6-17.4-4.4c0.6,0.4,1.1,0.8,1.8,1c4.5,1.8,9,3.6,13.5,5.3
		c0.2,0.1,0.5,0,0.6-0.1C169,24.6,169.4,24,170,23.4z M147.7,35.3c-0.3,1-0.5,1.8-0.7,2.6c-0.1,0-0.2,0-0.3-0.1c0-0.5,0-1-0.1-1.5
		c-0.5,0.7-1.1,1.5-1.1,2.2c0,1,0.6,2,0.9,3c0.1,0.2,0.3,0.2,0.5,0.4c0.1-0.7,0.2-1.3,0.3-1.9c0,0,0.1,0,0.1,0
		c0.1,0.5,0.2,1,0.4,1.6c0.2-0.6,0.4-1.1,0.5-1.5c0.1,0,0.1,0,0.2,0c0,0.8,0,1.5,0,2.3c0.4-0.1,0.7-0.1,1.1-0.2
		c-0.2-1.1-0.3-2.2-0.5-3.3c0.1,0,0.1,0,0.2,0c0.2,0.5,0.3,0.9,0.5,1.4c0.1,0,0.2,0,0.2-0.1c0-0.6,0-1.2,0-1.7
		c0.4,0.6,0.6,1.2,0.8,1.8c0.1,0.6,0.2,1.2,0.3,1.9c0.4-0.3,0.8-0.6,1.1-0.9c-0.5-0.9-1-1.8-1.5-2.7c0.1,0,0.1-0.1,0.2-0.1
		c0.7,0.7,1.4,1.3,2.1,2c0.9-2.1,0.3-4.4-1.1-5c0,0.3,0.1,0.6,0.1,1.1c-0.4-0.3-0.6-0.5-1-0.9c0.2,0.5,0.4,0.8,0.5,1.1
		c-0.1,0-0.1,0.1-0.2,0.1c-0.4-0.5-0.9-1.1-1.3-1.7c-0.1,0.4-0.1,0.7-0.2,1c-0.2-0.4-0.4-0.6-0.7-1.1c-0.1,1-0.2,1.8-0.3,2.6
		c-0.1,0-0.2,0-0.3,0c0-0.7-0.1-1.4-0.1-2.1c0,0-0.1,0-0.1,0c-0.1,0.2-0.2,0.5-0.4,0.8C147.9,36,147.8,35.7,147.7,35.3z M186.8,67.3
		c-0.5-0.3-0.7-0.4-0.9-0.6c0.4-0.2,0.7-0.4,0.9-0.5c0.3-0.2,0.5-0.4,0.7-0.5c0,0-0.1-0.1-0.1-0.1c-0.5,0.1-1,0.2-1.6,0.3
		c0-0.1-0.1-0.2-0.1-0.3c0.9-0.2,1.4-1.3,2.5-1.1c-0.2,0.1-0.5,0.3-0.8,0.5c0.5,0.1,0.8,0.1,1.3,0.2c-0.6,0.4-0.9,0.6-1.4,1
		c0.4,0.1,0.7,0.1,1.1,0.2c-0.3,0.3-0.6,0.5-0.9,0.7c0.3,0.1,0.4,0.1,0.6,0.2c-0.1,0.2-0.2,0.3-0.4,0.5c0.3,0,0.5-0.1,0.7-0.1
		c-0.2,0.3-0.3,0.5-0.6,0.8c3-1.4,5.8-4.8,5.7-7c-0.4,0.2-0.8,0.3-1.1,0.5c-1.6,0.8-3.3,1.4-5.2,1.3c-0.3,0-0.5-0.3-0.8-0.5
		c-0.3-0.2-0.6-0.4-1.1-0.8c0,0.5,0.1,0.8,0.1,1.1c-0.3-0.2-0.6-0.3-1-0.4c0.1,0.6,0.1,1.1,0.2,1.8c0.1,0.1,0.4,0.4,0.6,0.7
		c-0.3,0.5-0.8,1.2-0.7,1.3c0.9,0.7-0.3,1.1-0.1,2C185.3,68,186,67.6,186.8,67.3z M183.4,31.1c0.1,0.1,0.1,0.1,0.2,0.2
		c1.7-0.6,3.5-1.1,3.8-3.4c0-0.4,0.3-0.9,0.3-1.3c0.1-1,0.2-2.1,0.2-3.2c-0.1,0-0.2-0.1-0.3-0.1c-1,1.7-2.6,2.3-4.4,2.7
		c0.1,0,0.3,0,0.4,0c0,0.1,0,0.1,0,0.2c-1.2,0.4-2.4,0.9-3.7,1.3c0.3,0.2,0.5,0.4,0.7,0.5c-0.6,0.1-1.1,0.2-1.6,0.3
		c0,0.1,0,0.2,0,0.3c0.7,0.1,1.4,0.2,2.3,0.3c0,0,0,0.2,0,0.5c1-0.1,1.8-0.2,2.9-0.4c-0.4,0.4-0.6,0.7-1.1,1.2
		c0.6-0.1,1-0.2,1.4-0.3c0,0,0.1,0.1,0.1,0.1C184.2,30.6,183.8,30.8,183.4,31.1z M152.2,129.4c0-1.2-0.6-2.6-2.1-3.6
		c-0.6-0.4-1.1-0.4-1.6,0.1c-1.4,1.2-1.8,2.8-1.4,4.6c0.3,1.5,1.4,2.3,2.8,2.1C151.7,132.4,152.2,131.8,152.2,129.4z M131.2,31.1
		c-0.6-0.4-1-0.6-1.5-1c0.3,1.1,0.5,1.9,0.8,2.7c-0.1,0-0.1,0.1-0.2,0.1c-0.2-0.2-0.3-0.5-0.6-0.9c0,0.4,0,0.7,0,1
		c-0.3-0.3-0.6-0.5-1-0.9c0.1,0.9,0.2,1.6,0.3,2.4c1.2-1.1,2.4-1.9,3.3-2.9c0.7-0.8,1.1-1.9,1.6-2.9c0.1-0.2-0.1-0.7-0.4-0.9
		c-1-0.6-2-1.1-3.2-1.8c0.9,1.2,1.6,2.2,2.4,3.1c-0.1,0.1-0.1,0.1-0.2,0.2c-0.6-0.4-1.2-0.8-1.7-1.2c0.1-0.1,0.1-0.1,0.2-0.2
		c0.1,0,0.3,0,0.4,0.1c-1.3-1.8-2.5-3.5-3.7-5.3c-0.1,0-0.1,0.1-0.2,0.1c0.1,0.4,0.2,0.9,0.3,1.3c-0.1,0-0.1,0-0.2,0
		c-0.3-0.6-0.6-1.2-1-1.8c-0.1,0-0.2,0.1-0.3,0.1c0.4,1.2,0.6,2.5,1.1,3.7c0.4,1.2,0.8,2.4,2.2,2.9c-0.1-0.4-0.1-0.7-0.2-1
		c0.8,0.8,1.6,1.6,2.5,2.5c-0.4-0.2-0.8-0.4-1.3-0.7C130.9,30.3,131,30.6,131.2,31.1z M133.3,73.8c-1.7,0-2.8,1-2.8,2.6
		c0,1.5,1.2,2.7,2.7,2.7c1.7,0,3.1-1.4,3.1-3C136.3,74.6,135.3,73.8,133.3,73.8z M166.3,74.1c-0.5,0.1-1.4,0.2-2.3,0.4
		c-0.2,0.1-0.5,0.2-0.6,0.4c-0.9,1.4-0.3,3.4,1.4,3.7c0.9,0.2,2,0.1,2.9-0.2c1.2-0.4,1.6-1.5,1.3-2.7
		C168.6,74.5,168.1,74.1,166.3,74.1z M172.8,33c0.1,0,0.2,0,0.3,0c0.7-3,2-6,1.4-9.4c-0.2,0.3-0.3,0.5-0.5,0.9c0-0.6,0-1,0-1.7
		c-0.7,1.6-1.3,3-1.9,4.3c-0.6,1.5-1.1,3-0.2,4.7c0.4-0.5,0.7-0.9,1.2-1.5C173,31.4,172.9,32.2,172.8,33z M151.9,14
		c0,0-0.1,0-0.1-0.1c-0.1-1.7-0.2-3.3-0.3-5c-0.1,0-0.1,0-0.2,0c-0.7,2.8-1.4,5.5-2.1,8.3c0,0,0.1,0,0.1,0c0.4-0.7,0.8-1.4,1.2-2.1
		c0,0,0.1,0,0.1,0.1c-0.1,0.6-0.1,1.2-0.2,1.8c0.1,0,0.2,0,0.3,0c0.1-0.9,0.3-1.9,0.4-2.8c0.1,0,0.1,0,0.2,0c0,0.8,0,1.6,0,2.4
		c0.1,0,0.1,0,0.2,0c0.1-0.3,0.2-0.7,0.3-1.1c0.5,1.9,0.7,2.1,1.9,2c-0.4-2.2-0.3-4.6-1.5-6.7c-0.1,0.5-0.1,1.1-0.1,1.6
		C152,12.9,151.9,13.5,151.9,14z M137.4,80.1c1.6-1.8,1.3-4.4-0.6-4.8c0.7,2.6-1,3.6-3,4.5c0.2,0.2,0.4,0.2,0.5,0.3
		c-0.9,0.1-1.7,0-2.5-0.1c-0.8-0.1-1.6-0.4-2.6-0.6c2.9,2,9,2.1,11.7,0.2C139.7,79.8,138.6,79.9,137.4,80.1z M182.9,94
		c-0.1,0-0.2,0-0.4-0.1c-1.7,5.8-3.4,11.7-5.2,17.5C180.9,106.1,181.8,100,182.9,94z M172.7,22.4c-0.4,0.7-0.8,1.4-1.1,2.1
		c0,0-0.1-0.1-0.1-0.1c0.1-0.5,0.3-1,0.4-1.5c-0.1,0-0.1,0-0.2,0c-1.1,1.7-2.3,3.3-3.5,5.1c1.3-0.1,0.2,0.8,0.6,1.1
		c0.3-0.3,0.7-0.6,1-0.8c0.1,0.3,0,0.4,0,0.5c0,0.2-0.1,0.3-0.2,0.7C172.1,27.5,172.3,24.9,172.7,22.4z M129.7,74.5
		c-1.6,0.6-3.2,1.2-4.9,1.8c1.1,0.9,2.2,1.8,3.3,2.8c0,0,0-0.1,0.1-0.1c-0.5-0.8-1.1-1.6-1.6-2.4c1,0.6,1.7,1.3,2.5,1.9
		c0.8,0.5,1.8,0.9,2.7,1.3c0-0.1,0.1-0.2,0.1-0.2C130.1,78.8,129.4,77.3,129.7,74.5z M168.1,79.4c1.9-0.3,3.2-1.5,4.3-2.9
		c0.1,0.1,0.1,0.1,0.2,0.2c-0.3,0.6-0.7,1.2-1,1.9c0.1,0,0.1,0.1,0.2,0.1c0.9-0.8,1.8-1.7,2.6-2.5c-2,0.5-3.2-1.4-5-1.6
		C170,76.5,169.6,78.1,168.1,79.4z M168.7,26.6c-0.1-0.1-0.2-0.2-0.2-0.2c-0.7,0.5-1.3,1-2,1.4c-1.1,0.6-1.5,1.2-0.7,2.3
		c0.8,1.1,1.8,2.1,2.9,3.4c0.4-1.3,0.7-2.2,1-3.3c-0.7,0.5-1.1,0.8-1.5,1.1c0,0-0.1-0.1-0.1-0.1c0.2-0.3,0.3-0.6,0.5-1.1
		c-0.5,0.3-0.9,0.5-1.4,0.7c0.4-0.7,0.8-1.2,1.1-1.8c-0.1-0.1-0.1-0.1-0.2-0.2c-0.5,0.3-1,0.5-1.5,0.8c0,0-0.1-0.1-0.1-0.1
		C167.2,28.4,168,27.5,168.7,26.6z M151,34.3c-0.6-3.6-1.3-7.1-1.9-10.6c-0.1,0-0.2,0-0.3,0c0.1,3-0.5,6.1,0.8,9
		C150,33.4,150,34.2,151,34.3z M147.3,34.6c0.1,0,0.2,0,0.3,0c0.3-3.8,0.5-7.6,0.8-11.4c-1.1,2.1-1.8,7.1-1.6,9.5
		c0.1-0.2,0.3-0.4,0.6-0.7C147.3,33.1,147.3,33.9,147.3,34.6z M116.4,132.5c0.2,0,0.3-0.1,0.5-0.1c-0.1-4.9-0.3-9.7-0.4-14.6
		c-0.2,0.3-0.2,0.6-0.2,0.9c0,4.1-0.1,8.2-0.1,12.3C116.1,131.5,116.3,132,116.4,132.5z M170.2,120.5c-0.1-0.1-0.1-0.1-0.2-0.2
		c-0.5,0.5-1,1-1.5,1.5c-0.6,0.4-1.1,0.9-1.8,1.2c-1.4,0.6-3,3.4-3,4.7C165.8,125.3,168,122.9,170.2,120.5z M115,118.6
		c-0.5,3.6-1.1,7.2-0.5,10.9C114.7,125.9,114.9,122.3,115,118.6z M127,35.9c1.3-0.9,1.6-1.9,0.9-2.7c0,0.2,0,0.3,0,0.6
		c-0.3-0.2-0.6-0.4-0.9-0.6C127,34.2,127,35,127,35.9z M124.6,31.7c-0.1,0-0.2-0.1-0.3-0.1c-0.8,1.1-1.3,2.2-0.8,3.9
		c0.5-0.8,0.8-1.4,1.1-2c-0.1,0-0.1-0.1-0.2-0.1c-0.2,0.1-0.4,0.3-0.6,0.4C124.1,33,124.4,32.3,124.6,31.7z M186.3,31.6
		c-0.1-0.1-0.2-0.1-0.2-0.2c-0.4,0.5-0.8,1.1-1,1.7c-0.2,0.6-0.1,1.3-0.1,1.9c0,0.3,0,0.7,0,1.2C185.4,34.5,185.8,33.1,186.3,31.6z
		 M173.4,75.3c-0.7-1.3-1.8-1.7-3.2-1.2C171.3,74.5,172.2,74.8,173.4,75.3z M172.3,35.2c0-0.6,0-1.2,0-1.9c-0.1,0-0.2-0.1-0.3-0.1
		c-0.2,0.6-0.5,1.3-0.7,1.8C171.8,35.1,172,35.2,172.3,35.2z M150.8,28.8c-0.1,0-0.2,0-0.4,0.1c0.3,1.1,0.6,2.2,0.9,3.3
		c0.1,0,0.2-0.1,0.3-0.1C151.4,31,151.1,29.9,150.8,28.8z M174.4,30.4c-0.1,0-0.2,0-0.3-0.1c-0.2,1-0.4,1.9-0.6,2.9
		c0.1,0,0.2,0,0.4,0.1C174,32.4,174.2,31.4,174.4,30.4z M175.7,33.8c0.1-0.1,0.2-0.1,0.3-0.2c-0.3-0.7-0.6-1.4-0.9-2
		c-0.1,0.1-0.3,0.1-0.4,0.2C175,32.4,175.3,33.1,175.7,33.8z"/>
	<path d="M187.1,112.5c1,0.3,2.1,0.5,3.1,0.9c0.6,0.2,1.3,0.6,1.8,1c1.2,1,2.3,2.1,3.4,3.2c0,0-0.1,0.1-0.1,0.1
		c-1.3-1-2.5-2.1-3.8-3c-0.6-0.4-1.2-0.7-1.9-1c-0.3-0.1-0.6,0.1-1.3,0.1C188.1,113.5,187.6,113,187.1,112.5
		C187.1,112.5,187.1,112.5,187.1,112.5z"/>
	<path d="M205,126.8c1.2,1.2,2.4,2.4,3.6,3.7c0,0,0,0,0,0C207.4,129.2,206.2,128,205,126.8C205,126.8,205,126.8,205,126.8z"/>
	<path d="M195.4,117.6c1.1,1,2.2,2,3.3,2.9c-0.1,0.1-0.2,0.2-0.3,0.3C197.4,119.8,196.4,118.7,195.4,117.6
		C195.3,117.6,195.4,117.6,195.4,117.6z"/>
	<path d="M98.8,116.7c1.2-0.7,2.5-1.4,3.7-2.1c0,0.1,0.1,0.2,0.1,0.2c-1.2,0.7-2.5,1.4-3.7,2.1C98.8,116.9,98.8,116.8,98.8,116.7z"
		/>
	<path d="M149.6,107.6c-0.9-1.1-1.8-2.1-2.6-3.2c-0.7-0.8-1.3-1.7-1.9-2.5c-1-1.1-2.2-1.8-3.7-2c-0.7-0.1-1.1-0.4-1-1
		c0.1-1.1,0.1-2.3,0.6-3.4c0.6-1.3,1.5-2.3,2.4-3.7c1.7,2.9,2.8,5.8,5.5,7.7c-0.1,0.1-0.1,0.2-0.2,0.2c-0.6-0.4-1.2-0.7-1.7-1.2
		c-0.5-0.5-1-0.7-1.4-0.3c-0.2,0.2-0.3,1-0.1,1.4c0.2,0.5,0.7,1,1.2,1.4c1.8,1.1,3.7,1.4,5.8,0.7c1.5-0.5,1.8-2.1,0.8-3.4
		c-0.4,0.3-0.8,0.6-1.3,0.9c-0.4,0.3-0.9,0.5-1.4,0.7c2.7-2,4-4.8,5.2-7.7c2.2,1.1,3.8,4.3,3.4,6.7c-0.1,0.4-0.5,1-0.9,1.1
		c-2.5,0.3-4,1.9-5.3,3.7C151.8,105.1,150.8,106.2,149.6,107.6z"/>
	<path d="M123.5,58.6c1.1,0,2.1,0,3.1,0c0.3,0,0.7,0.2,0.8,0.5c0.6,1.1,1.2,2.3,1.6,3.6c-0.2-0.2-0.3-0.4-0.5-0.6
		c-0.8-1-1.6-1.6-3-1.5C124,60.7,123.5,60.1,123.5,58.6z"/>
	<path d="M170.4,62.2c0.4-2.5,2-3.9,4.5-3.7c0.3,0,1,0.4,0.9,0.6c-0.1,0.6-0.1,1.4-1,1.5c-0.6,0-1.2-0.1-1.7,0.1
		C172.1,61.1,171.2,61.7,170.4,62.2z"/>
	<path d="M154.2,115.2c0.4-0.1,1-0.2,1.7-0.3c1.2,0.9-0.2,2.4-2.4,3.7C153.7,117.5,154,116.4,154.2,115.2z"/>
	<path d="M145.7,118.6c-2.3-0.9-3.2-2.4-2.5-3.6c0.7,0.2,1.3,0.3,2,0.5c0,0.5-0.1,1.1,0,1.6C145.3,117.6,145.5,118.1,145.7,118.6z"
		/>
	<path d="M112,65.8c-0.4-0.2-0.8-0.4-1.2-0.6c0-0.1,0.1-0.2,0.1-0.3c0.3,0,0.5-0.1,0.9-0.2c-0.3-0.2-0.5-0.3-0.8-0.4
		c0.9,0,1.5-1.3,2.9-0.5c-0.8,0.2-1.3,0.4-1.9,0.6c0.6,0.4,1.2,0.9,1.8,1.3C113,66.2,112.4,64.9,112,65.8
		C112,65.9,112,65.8,112,65.8z"/>
	<path d="M134.6,76.2c0,0.7-0.2,1.2-0.9,1.1c-0.8,0-1.9-0.8-1.8-1.4c0.2-0.9,0.9-0.9,1.6-0.9C134.4,75.1,134.5,75.8,134.6,76.2z"/>
	<path d="M167.2,76.5c0,0.8-0.7,1-1.4,1.1c-0.7,0.1-1-0.5-1.1-1.1c-0.1-0.6,0.7-1.4,1.4-1.3C166.9,75.2,167.2,75.7,167.2,76.5z"/>
</g>
</svg>
