<?xml version="1.0" encoding="utf-8"?>
<!-- Generator: Adobe Illustrator 26.0.3, SVG Export Plug-In . SVG Version: 6.00 Build 0)  -->
<svg version="1.1" id="Слой_16" xmlns="http://www.w3.org/2000/svg" xmlns:xlink="http://www.w3.org/1999/xlink" x="0px"
	 y="0px" viewBox="0 0 239.5 150.2" style="enable-background:new 0 0 239.5 150.2;" xml:space="preserve">
<style type="text/css">
	.st0{fill:#0C0C0C;}
</style>
<g>
	<path class="st0" d="M147.3,69.2c-1.3-1.1-1.6-3-3-4c-0.8-0.6-1.8-1-2.6-1.7c-1.4-1-2.6-2.3-4.1-3.2c-1.1-0.7-2.4-1-3.7-1
		c-0.6-0.1-1.2,0-1.8-0.3c-8.2-5.8-16.5-11.6-24.7-17.4c-0.3-0.2-0.7-0.4-1.1-0.6c0.2,0.3,0.4,0.5,0.6,0.7
		c8.3,5.8,16.5,11.6,24.7,17.4c-2-0.1-4-0.3-6-0.5c-2.4-0.5-4.2-2.4-6.6-2.7c-1.1-0.3-2.2,0.4-3.2-0.1c-4.5-2.1-9-4.1-13.5-6.2
		c-0.5-0.3-1.1-0.4-1.7-0.5c0.4,0.3,0.8,0.6,1.3,0.8c4.6,2.1,9.2,4.2,13.8,6.3c-1.7,0.1-3.3,0.7-5,0.7c-1.3,0-2.6-0.1-3.9-0.2
		c-2.1-0.3-4.2-0.2-6.4-0.2c-2.7,0.1-5.4,0.9-8,1.9c-0.9,0.4-1.9,0.5-2.9,0.7c-1.9,0.3-3.7,1.1-5.3,2.1c-1,0.6-1.7,1.5-2.2,2.5
		c-0.8,1.3-1.2,2.8-2.3,3.9c-0.8,0.9-1.9,1.9-1.7,3.3c0.5-0.5,0.6-1.3,1.1-1.9c0.7-1,1.7-1.8,2.2-3c0.6-1.2,1.1-2.5,2-3.5
		c0.9-1.1,2.3-1.7,3.6-2.3c1.9-0.9,4-0.7,5.9-1.5c2.2-0.9,4.4-1.4,6.7-1.7c1.3-0.1,2.5,0,3.8,0c3-0.1,6,0.7,9,0.3
		c1,0.5,2,0.7,3.1,0.7c1.6,0,3.1,0.2,4.7,0.2c0.9,0,1.8,0.1,2.7,0.3c0.2,0.1,0.5,0.1,0.7,0.4c1.4,2.2,4.2,3,6.7,2.7
		c1.7-0.1,3.3-0.9,4.9-1.3c1.4-0.4,2.6,0.7,3.7,1.4c1.5,1.3,3,2.6,4.7,3.5c1.2,0.6,1.7,1.9,2.3,3c0.8,1.4,2.4,2.2,2.8,3.8
		c0.3,0.7-0.4,1.2-1,1.2c-1,0-2-0.4-2.9-0.9c-1.2-0.5-1.9-1.8-2.2-3.1c-0.2-0.7-0.2-1.4-0.5-2c-0.5-0.7-1.5-0.6-2.3-0.7
		c-0.9-0.1-1.7-0.4-2.6-0.7c1.1,1.2,2.8,0.8,4.2,1.3c0.7,0.3,0.6,1.1,0.8,1.7c0.1,1,0.6,1.9,1.1,2.7c-1-0.8-2-1.6-2.7-2.7
		c-1.7-0.2-3-1.3-4.5-2c0.4-0.4,1.1-0.7,1.1-1.3c0.2-1.3-1-2.3-2-2.8c0.5,0.9,1.8,1.4,1.8,2.6c0,0.7-0.7,1-1.2,1.3
		c-0.5-0.3-1-0.7-1.5-1c-0.2-1.4,0.5-2.6,1.3-3.7c-0.3,0.1-0.6,0.1-0.7,0.4c-0.7,0.9-1,2-1,3.1c-0.6,0.1-1.2,0.2-1.7,0.2
		c0.1,0.2,0.3,0.3,0.4,0.5c0.6,0,1.3-0.4,1.9,0.1c1,0.7,2.1,1.4,3.2,2c0.9,0.5,1.8,1,2.8,1.1c1.5,2.1,3.9,3.5,6.3,4.1
		c0.9,0.3,2.1,0,2.4-0.9C149.3,71.1,148.2,70.1,147.3,69.2z M119.4,56.4c-0.9,0.1-1.7,0.1-2.6,0C117.7,56.2,118.6,56.2,119.4,56.4z
		 M118.3,57.7c-1.8-0.1-3.7,0-5.5-0.6c0.7-0.2,1.4-0.5,2.2-0.4c1.8,0.2,3.7-0.1,5.5,0c1.1,0.3,1.9,1,2.9,1.5
		C121.8,57.8,120.1,57.8,118.3,57.7z M129,61.2c-1.9,0.1-3.8-0.8-5.1-2.2c3.8,0.3,7.6,0.5,11.3,0.9C133.2,60.3,131.2,61.3,129,61.2z
		"/>
	<path class="st0" d="M110,78.5c-0.1-0.2-0.3-0.4-0.4-0.6c-1.6-0.6-2.9-1.6-4.6-2.1c-0.3-0.1-0.6,0.1-0.8,0.1
		c0.4,0.2,0.7,0.3,1.1,0.5c1.3,0.4,2.4,1.2,3.7,1.7c-1,0.3-2,0.3-3,0.3c-1.9,0.1-3.8-0.5-5.3-1.7c-0.7-0.6-1.4-1.1-2.2-1.7
		c0-1.5-0.8-2.8-1.4-4.2c-0.5-0.6-1-1.2-1.3-1.9c-0.2,0-0.5-0.1-0.6-0.2c0.1,0.2,0.3,0.5,0.4,0.7c-0.2-0.2-0.4-0.4-0.7-0.6
		c0.1-0.1,0.2-0.3,0.3-0.4c-0.7-0.7-1-1.6-1.4-2.4c-0.4-0.4-0.3,0.2-0.3,0.5c0.4,0.8,0.8,1.5,1.3,2.2c-0.8-0.7-1.7-1.4-2.6-2
		c-1.2-0.9-2.5-1.8-4-2.2c-1.5-0.5-3.4-0.4-4.7,0.7c-1.1,1-2.3,2.2-2.2,3.7c0.5-0.4,0.4-1.1,0.7-1.6c0.8-1.2,1.9-2.5,3.5-2.7
		c2.2-0.4,4.3,0.8,6,2c1.6,1,2.9,2.3,4.4,3.4c0.5,0.5,0.8,1.1,1.2,1.7c0.6,1.1,1.1,2.2,1,3.4c-0.3,0.2-0.6,0.3-0.9,0.5
		c-0.8-1.6-1.8-3.2-2.9-4.6c-1.6-1.6-3.1-3.6-5.4-4.2c0.1,0.3,0.4,0.6,0.7,0.7c1.6,0.9,3,2.1,4.1,3.5c-0.6,0.2-1.2,0.3-1.8,0.7
		c-1.7,1.3-2.7,3.2-4.1,4.8c-0.5,0.6-1.1,0.9-1.5,1.5c0.4,0,0.8-0.2,1.1-0.5c1.6-1.5,2.5-3.5,4.1-4.9c0.7-0.6,1.6-1.2,2.6-1.1
		c0.6,0.7,1.1,1.5,1.5,2.2c-0.7,0.3-1.4,0.7-1.9,1.3c-1.5,1.7-2.5,3.8-3.2,6c0.1,0.1,0.3,0.2,0.4,0.3c0.5-1.8,1.3-3.5,2.4-5
		c0.7-0.9,1.4-1.8,2.6-2.2c0.4,0.6,0.7,1.2,1,1.8c-0.6,0.6-1.2,1.1-1.5,1.9c-0.7,1.4-1.4,2.7-2.1,4.1c-0.3,0.7-1.1,1-1.3,1.7
		c1-0.2,1.6-1.1,2-2c0.5-1.3,1.2-2.5,1.9-3.7c0.6-1.1,1.5-2,2.6-2.6c1.5,1,2.7,2.4,4.4,2.9C105.1,79.2,107.6,79,110,78.5z"/>
	<path class="st0" d="M88.8,68.8c-0.4-0.2-0.8,0.1-1.2,0.3c-1.6,1.1-2.7,2.8-3.8,4.4c-0.3,0.4-0.5,0.8-0.6,1.3
		c0.5-0.5,0.9-1.1,1.3-1.7C85.6,71.4,87,69.7,88.8,68.8z"/>
	<path class="st0" d="M89.5,72.2c0.8-0.6,1.7-0.8,2.6-1.1c0-0.4-0.4-0.6-0.6-0.8c-1-0.8-1.7-1.9-2.9-2.3c0,0.5,0.5,0.7,0.8,0.9
		c0.8,0.5,1.4,1.3,2.1,1.9c-1.8,0.4-3.2,1.8-4.3,3.1c-0.9,0.9-1.6,1.9-2.1,3c0.1,0,0.4,0,0.5,0c0.5-0.6,0.8-1.3,1.3-1.9
		C87.6,74,88.5,73,89.5,72.2z"/>
	<path class="st0" d="M92.5,60.6c0.1,1.1,0.5,2.2,1.6,2.7c0.6,0.4,1.5,0.1,1.6-0.7c0.3-1.3-0.6-3-2-3.1c-0.6-0.1-0.9,0.4-1.1,0.8
		c-1.2-0.1-2.5,0.7-2.8,1.9c-0.2,1.2,0.6,2.2,1.4,2.9c0.7,0.6,1.5,1.3,2.4,1.7c-0.6-0.9-1.7-1.3-2.3-2.1c-0.8-0.7-1.4-1.9-0.9-3
		C90.8,60.9,91.7,60.6,92.5,60.6z M93.4,59.7c1.2,0.1,2,1.3,2,2.4c0,0.6-0.3,1.1-0.9,1c-0.8-0.2-1.3-0.9-1.6-1.6
		C92.7,60.9,92.8,60,93.4,59.7z"/>
	<path class="st0" d="M128.8,86.3C128.8,86.4,128.8,86.4,128.8,86.3c1.4-1,2.8-2,4.3-3.1c-1.3,1-2.7,1.9-4,2.8
		C129,86.2,128.9,86.3,128.8,86.3z"/>
	<path class="st0" d="M141.6,83.7c0.6,0.1,1.3,0.2,1.8-0.3c0.6-0.5,0.5-1.4,0.1-2c-0.7-1.3-1.6-2.4-2.2-3.8
		c-0.6-1.4-0.8-3.1-1.8-4.4c-0.7-0.8-1.6-1.5-2.3-2.3c0.6,0,1.2,0.1,1.7-0.1c-0.7-0.2-1.4-0.3-2.1-0.4c-0.7-0.9-1.4-1.9-2.2-2.8
		c-0.7-0.8-1.7-1.3-2.8-1.4c0-0.1-0.1-0.4-0.1-0.5c-0.7-0.1-1.4,0-2,0.1c-1.5,0.2-2.9-0.2-4.3-0.2c0-1.1,0.5-2.1,0.9-3.1
		c-0.3,0.1-0.6,0.2-0.7,0.5c-0.4,0.8-0.6,1.8-0.6,2.7c-1,0.5-2.1,0.8-3.2,0.8c-0.5,0-1.1-0.2-1.6,0c0.2,0.2,0.5,0.3,0.8,0.4
		c1.2,0.1,2.5,0,3.6-0.5c-0.4,1.3-0.7,2.6-1.6,3.5c-0.6,0.9-1.5,1.5-2.2,2.4c0.7-0.1,1.2-0.6,1.7-1.1c0.8,1,1.7,1.9,2.8,2.5
		c0.6,0.3,1,0.9,1.3,1.5c-1.1-0.4-2.2-0.9-3.3-0.9c-1.2,0.1-2-0.9-3.1-1.3c0.2-0.2,0.4-0.5,0.4-0.8c-0.3,0.2-0.7,0.4-1,0.7
		c-0.4-0.1-0.9,0-1.2-0.4c-0.8-0.8-1.5-1.7-2.4-2.4c1.8-1,3.3-2.6,4.5-4.4c0.7-1.2,1.4-2.4,1.5-3.9c-0.1,0.1-0.3,0.2-0.4,0.2
		c-0.3,1.7-1.2,3.2-2.3,4.6c-1,1.2-2.2,2.4-3.6,3.2c-0.2-0.1-0.4-0.2-0.6-0.3c1.1-1.2,2-2.5,2.7-4c0.3-0.8,0.7-1.7,0.7-2.6
		c-0.2,0.2-0.4,0.5-0.5,0.8c-0.5,2.1-1.6,4.1-3.2,5.6c-0.2-0.1-0.3-0.3-0.5-0.4c-0.1-0.4,0.2-0.9,0.4-1.3c0.5-1.1,0.7-2.3,0.7-3.5
		c0-0.6,0.2-1.2-0.3-1.7c-0.2,1.8-0.1,3.7-1,5.4c-0.4-1.5-1-2.9-2-4c-0.4-0.4-0.7-0.9-1.3-1.1c0.2,0.7,0.8,1.2,1.3,1.7
		c0.9,1.2,1.5,2.7,1.7,4.2c-1.3-0.6-1.8-2-2.6-3.1c-0.6-0.7-1.2-1.3-2-1.7c0.1,0.6,0.6,0.9,1,1.2c0.8,0.7,1.3,1.7,1.9,2.5
		c-0.9-0.6-1.9-1.1-3-1.2l-0.2,0.2c0.4,0.4,1.1,0.4,1.6,0.7c0.2,0.4,0.5,0.8,0.8,1.2c1.1,1.4,1.6,3.2,2.8,4.6c1,1.3,2.2,2.5,3.8,2.9
		c0.8,0.2,1.7,0.5,2.4-0.1c-0.9,0-1.8,0-2.6-0.3c-1-0.3-1.9-1-2.6-1.8c-1.4-1.5-2.3-3.5-3.3-5.3c-0.3-0.3-0.6-0.7-0.9-1
		c2.7,1.5,5.4,3.2,7.2,5.7c1.4,0.2,2.7,0.7,3.8,1.6c2.6-0.1,5.1,1.1,7,2.9c-1.9-0.9-3.8-1.8-5.9-1.9c0.6,0.5,1.5,0.5,2.2,0.8
		c1.4,0.4,2.7,1,4,1.8c0.9,0.5,1.4,1.5,1.6,2.5c0.3,1.1-0.4,2.4-1.5,2.8c-1.2,0.3-2.3-0.4-3.5-0.7c-1-0.3-2.1-0.4-3-1
		c0.4,0.3,0.9,0.5,1.4,0.7c0.1,0.2,0.2,0.4,0.2,0.5c-7.4,3.4-14.7,6.8-22,10.2c-0.4,0.1-0.7,0.4-0.8,0.7c0.3-0.1,0.6-0.2,0.9-0.3
		c7.3-3.4,14.6-6.8,21.9-10.2c0.5,1.5,1.3,3,2.8,3.7c-6.9,4.9-13.8,9.8-20.7,14.7c-0.4,0.3-0.7,0.6-1.1,0.9c0.8-0.1,1.3-0.7,1.9-1.1
		c6.3-4.5,12.6-9,18.9-13.5c0.5-0.4,1.1-0.8,1.7-1.2c-0.4,0.1-0.9-0.1-1.3-0.4c-1-0.9-1.6-2.3-1.8-3.6c1.3,0.3,2.4,0.9,3.7,1.1
		c-0.1,0.8,0,1.7-0.2,2.5c0,0.1-0.1,0.2-0.1,0.2c0.2-0.2,0.4-0.3,0.6-0.5c0-0.8,0.1-1.6,0.2-2.3c0.6-0.1,1.3-0.3,1.7-0.8
		c0.8-0.7,0.9-1.9,0.7-2.9c-0.6-1.8-2-3.3-3.5-4.3c-0.6-0.3-0.9-1-1.2-1.6c0.8,0.3,1.6,0.5,2.4,0.7c1,1.3,2.1,2.7,3.7,3.3
		c0.4,0.2,0.9,0.2,1.3,0.5c0.3,0.9,0.8,1.8,1.3,2.5c-0.8,0.7-1.6,1.3-2.3,1.9c0.8-0.6,1.6-1.2,2.4-1.8c0.8,0.7,1.6,1.4,2.6,1.9
		c0.8,0.4,1.7,0.5,2.5,0.6c-6.8,9.6-13.5,19.2-20.3,28.9c-0.5,0.7-1.1,1.3-1.3,2.2c0.4-0.4,0.8-0.8,1.1-1.3
		c6.5-9.2,12.9-18.4,19.4-27.6C140.4,85.6,141.1,84.7,141.6,83.7z M135.4,69.2c0.9,1.2,1.9,2.5,3.1,3.5c0.7,0.6,1.2,1.4,1.5,2.2
		c0.5,1.5,0.9,3.1,1.8,4.4c0.5,0.9,1.2,1.7,1.6,2.7c0.4,0.8-0.6,1.6-1.4,1.3c-1.2-0.3-2-1.3-2.8-2.3c-0.9-1.6-1-3.5-1-5.2
		c0-0.8-0.8-1.3-1.3-1.9C135.7,72.6,134.8,70.9,135.4,69.2z M125.1,66.1c1.2-0.1,2.4,0.1,3.5,0.4c1.4,0.1,2.8-0.2,4.2,0.3
		c1,0.3,1.6,1.2,2.3,1.9c-0.6,1.5-0.2,3.3,0.9,4.5c0.5,0.8,1.3,1.3,1.8,2.1c0.1,1.6,0.2,3.2,0.6,4.8c-0.7-0.9-1.1-2-1.5-3.1
		c-1.5-1.2-3-2.3-4-4c-0.6-1.1-1-2.4-0.9-3.7c-1.5,0.2-3.1,0-4.4-1c-0.3-0.2-0.4-0.5-0.5-0.9c0.2-0.6,0.6-0.6,1.1-0.9
		c-0.8-0.2-1.2,0.2-1.4,0.9c0,0.5,0.3,0.9,0.7,1.2c1.2,0.8,2.6,1.1,4,1c0,0.6,0,1.1,0.2,1.7c-1.5-0.3-3.1-0.6-4.4-1.3
		c-1-0.6-2.1-1.1-2.9-1.9C124.7,67.5,124.9,66.8,125.1,66.1z M138.6,83.4c-1.1-0.4-1.9-1.3-2.6-2.1c-0.8-0.5-1.2-1.4-1.4-2.2
		c-0.1-0.6-0.8-0.6-1.2-0.8c-1.6-0.5-2.8-1.8-3.7-3.1c-0.5-0.5-1.2-0.5-1.8-0.8c-2-0.6-3.8-1.9-5.1-3.5c0.2-0.2,0.4-0.4,0.5-0.7
		c1.3,1.3,3,2.1,4.8,2.7c0.8,0.2,1.7,0.5,2.4,0.1c0.4,1.3,1.2,2.5,2,3.6c0.7,0.9,1.9,1.3,2.3,2.3c0.4,0.8,0.6,1.7,1.3,2.2
		c-0.6-1.6-0.7-1.6-1-2.3c-0.4-1.2-1.9-1.6-2.6-2.7c-0.8-1-1.1-2.4-2.1-3.3c0,0.1,0,0.1,0.1,0.2c-1.2-0.1-2.4-0.3-3.6-0.8
		c-1.2-0.5-2.5-1.1-3.4-2.2c0.3-0.4,0.6-0.9,0.9-1.3c1,0.8,2.1,1.5,3.2,2c1.4,0.7,3,0.9,4.5,1.3c0.7,2.3,2.6,4,4.6,5.3
		c0.3,1.4,1.1,2.7,2,3.8c0.7,1,1.6,1.8,2.6,2.5C140.4,84.1,139.4,83.8,138.6,83.4z"/>
	<path class="st0" d="M112.2,75.6c-0.3,0-0.8,0.1-1-0.2c-0.6-0.5-1.1-1.2-1.5-1.9c-0.8-1.3-1.6-2.5-2.6-3.5c-1.8-1.9-3.6-4-5.6-5.6
		c-1.1-1-2.4-1.8-3.8-2.3c-0.3-0.1-0.7-0.1-1,0c1.3,0.4,2.6,0.9,3.7,1.7c1.5,1.2,2.9,2.4,4.2,3.8c1.3,1.5,2.9,2.8,4,4.4
		c0.9,1.2,1.4,2.6,2.6,3.6c-0.2,0.2-0.3,0.4-0.5,0.5c0.8-0.1,1.7-0.5,2.5-0.3c2,0.5,3.7,1.7,4.5,3.7c-0.3-0.7-0.6-1.4-1.1-1.9
		C115.4,76.5,113.9,75.5,112.2,75.6z"/>
	<path class="st0" d="M117.7,79.5c0,0,0,0.1,0,0.1c0,0,0,0,0,0C117.8,79.6,117.8,79.5,117.7,79.5z"/>
	<path class="st0" d="M122.8,81.9C122.8,81.9,122.8,81.9,122.8,81.9C122.8,81.9,122.8,81.9,122.8,81.9z"/>
	<path class="st0" d="M122,81.2c-1.5,0.1-2.8-0.7-4.1-1.3c0-0.1-0.1-0.2-0.1-0.3c-1.2-0.5-2.5-0.9-3.7-1.2c-0.9-0.3-2-0.5-2.7-1.2
		c-1-1-1.7-2.3-2.5-3.4c-1.3-1.8-3.1-3.1-5-4.1c-2.5-1.2-4.8-2.9-6.8-4.9c-0.4-0.3-0.6-0.9-1.2-1c0.5,0.9,1.3,1.6,2.1,2.3
		c1.7,1.5,3.5,2.8,5.5,3.7c1.2,0.5,2.3,1.2,3.3,2.1c1.7,1.3,2.6,3.3,3.9,4.9c-1.3-0.7-2.3-1.9-3.7-2.5c-0.3-0.2-0.7-0.1-1.1-0.2
		c0.4,0.5,1.1,0.7,1.7,1c1.5,0.9,2.7,2.2,4.3,2.8c0,0,0,0.1-0.1,0.1c-0.6-0.2-1.2-0.2-1.9-0.2c0.1,0.1,0.2,0.4,0.2,0.6
		c0.8,0,1.6-0.1,2.4-0.1c1.7,0.5,3.4,0.8,5,1.5C118.9,80.4,120.3,81.4,122,81.2c0.2,0.3,0.5,0.5,0.7,0.7
		C122.5,81.7,122.2,81.5,122,81.2z"/>
	<path class="st0" d="M128.2,86.8c-0.1,0.1-0.2,0.1-0.3,0.2C128,87,128.1,86.9,128.2,86.8z"/>
	<path class="st0" d="M108.6,60.1c1.3-0.3,2.6,0,3.9,0.2c2.1,0.5,4.2,0.2,6.3,0.6c1,0.2,1.6,1,2.5,1.3c-0.7-1.1-2.1-1.6-3.3-1.8
		c-2-0.2-4,0-6-0.5c-1.4-0.3-3.1-0.5-4.4,0.3c-1,0.6-1.1,2.1-0.4,2.9c0.5,0.6,1.2,1.1,2,1.2c-0.2-0.4-0.6-0.4-0.9-0.7
		c-0.7-0.4-1.3-1.1-1.3-2C107.1,60.8,107.9,60.3,108.6,60.1z"/>
	<path class="st0" d="M143.3,62.5c0.2,0.2,0.4,0.4,0.7,0.5c-0.1-0.3-0.3-0.6-0.5-0.9c-8-11.2-16-22.4-23.9-33.6l0.2,1
		C127.7,40.5,135.5,51.5,143.3,62.5z"/>
	<path class="st0" d="M120.7,76.3c-0.7,1.2-1.1,2.7-0.8,4.1c0.1-0.1,0.3-0.2,0.4-0.3c0-0.7,0-1.4,0.1-2c0.2-0.9,0.8-1.5,0.9-2.4
		C121.1,75.8,120.8,76,120.7,76.3z"/>
	<path class="st0" d="M121.3,80.8c0.1-0.1,0.2-0.2,0.3-0.3c0.1-0.8-0.1-1.6,0.2-2.3c0.2-0.9,0.8-1.7,1.1-2.6
		c-0.2,0.1-0.4,0.2-0.6,0.4C121.2,77.3,121,79.1,121.3,80.8z"/>
	<path class="st0" d="M122.7,81.3c0.1-0.1,0.3-0.2,0.4-0.2c0.1-0.6,0-1.3,0.1-1.9c0.2-0.5,0.5-0.9,0.6-1.4c-0.1,0-0.4,0.1-0.5,0.1
		C122.5,78.8,122.6,80.1,122.7,81.3z"/>
	<path class="st0" d="M126.2,79.2c-0.8,0-1.9,0-2.9,0.1c0,0.1,0,0.2,0,0.2c0.8,0.4,1.7-0.1,2.6-0.1c-0.2,0.9-0.7,2.2,0.2,2.9
		c0.8,0.5,1.8,1.2,2.8,0.8c0.8-0.6,1.1-1.7,1.3-2.6c-0.2-0.2-0.3-0.3-0.5-0.5c0.1,0,0.2-0.1,0.3-0.2c-1-0.5-2.1-0.9-3.2-1.1
		c-0.1,0.1-0.2,0.1-0.3,0.2c0.7,0.2,1.4,0.5,2.1,0.8c0.4,0.2,0.8,0.4,1.1,0.3c-0.1,1-0.4,2-1.1,2.8c-1,0.1-1.9-0.5-2.6-1.1
		c-0.1-0.8,0.2-1.6,0.4-2.4C126.4,79.3,126.3,79.2,126.2,79.2z"/>
	<path class="st0" d="M124.6,126.3c0,0.3,0.6,0.3,0.6,0C125.1,126,124.6,125.9,124.6,126.3z"/>
	<path class="st0" d="M133.8,62.6c-0.1-0.1-0.2-0.2-0.2-0.3c-1.6-0.3-3.2,0-4.8,0.2c-0.8,0.1-1.7-0.1-2.4,0.5
		C128.9,63,131.3,62.3,133.8,62.6z"/>
	<path class="st0" d="M144.5,82.7c-5.4,12-10.9,24-16.4,36c-0.4,0.8-0.9,1.6-0.9,2.6c0.2-0.4,0.5-0.8,0.7-1.2
		c5.6-12.4,11.3-24.7,16.9-37.1c0.2-0.3,0.2-0.7,0.3-1.1C144.9,82.1,144.7,82.4,144.5,82.7z"/>
	<path class="st0" d="M145.5,62.1c-0.1-0.8-0.6-1.6-0.9-2.4c-5.3-11.4-10.6-22.8-15.9-34.3l-0.1,0.7c5.4,11.8,10.9,23.5,16.3,35.2
		C145.1,61.7,145.3,61.9,145.5,62.1z"/>
	<path class="st0" d="M133.7,79.1C133.7,79.1,133.7,79.2,133.7,79.1C133.7,79.2,133.7,79.2,133.7,79.1z"/>
	<path class="st0" d="M133.6,79.1c-0.8,0.3-1.5,0.5-2,1.2c0.9-0.2,1.5-0.5,2.2-1c0,0,0-0.1-0.1-0.1
		C133.7,79.2,133.7,79.2,133.6,79.1z"/>
	<path class="st0" d="M148.4,85.8c-1.1,13-2.4,26-3.5,39c0.1,0,0.3-0.1,0.4-0.1c1.2-12.9,2.3-25.8,3.5-38.7c0.1-1.1,0.4-2.2,0.1-3.3
		C148.5,83.7,148.5,84.8,148.4,85.8z"/>
	<path class="st0" d="M148.5,57.7c0.2,1.3,0.1,2.6,0.6,3.8c0-0.5,0-0.9,0-1.4c-1.2-13.9-2.6-27.7-3.9-41.6l0.1,5.5
		C146.4,35.2,147.5,46.5,148.5,57.7z"/>
	<path class="st0" d="M180.1,74.6c-0.1,0.1-0.2,0.3-0.2,0.4C180,74.8,180.1,74.7,180.1,74.6z"/>
	<path class="st0" d="M177.9,77.6c0.8-0.8,1.5-1.7,2.1-2.7c-0.5,0.8-1.1,1.5-1.7,2.2C178.1,77.3,178,77.5,177.9,77.6z"/>
	<path class="st0" d="M222.7,68.4c-3.6,0.1-7.3,0.3-10.8,1.2c0-1.1,0-2.1-0.1-3.2c-0.1,0-0.3,0-0.4,0c-0.1,1,0.1,2.1,0,3.1
		c-0.3,0.7-1.1,0.8-1.8,0.9c-0.6-0.7-0.5-1.8-1-2.6c-0.6-0.8-1.8-0.5-2.7-0.3c0.4,0.7,1.3-0.1,1.9,0.2c0.6,0.2,0.6,0.9,0.7,1.4
		s0.3,1,0.6,1.4c-1.3,1.8-3,3.4-5,4.5c-2.4,1.7-5.3,2.7-8.2,2.9c1.1-0.8,2-1.9,3.1-2.6c0.4-0.3,1-0.5,1.1-1.1
		c-2.6,0.7-3.9,3.9-6.7,4.1c1.6-1.4,2.6-3.3,4.3-4.6c0.2-0.2,0.4-0.4,0.5-0.7c-0.5,0.1-0.9,0.3-1.3,0.6c-1.1,1-1.8,2.2-2.8,3.2
		c0.9-2.1,1.4-4.4,2.9-6.3c1.2-1.7,2.9-2.8,4.4-4.3c1.2-1.3,2.3-2.7,3.3-4.1c0.5-0.7,0.9-1.4,1.1-2.3c-0.6,0.6-0.9,1.5-1.4,2.2
		c-1.1,1.5-2.2,3-3.5,4.3c-1.2,1.2-2.6,2.2-3.7,3.5c-0.8,1-1.6,2.1-2,3.4c-0.6,1.4-1,3-1.8,4.3c-0.7,0.9-1.8,1.4-2.7,1.9
		c-1,0.5-2,1.2-2.9,1.8c0.1-2.1,1.7-3.8,3.4-4.7c0.8-0.5,1.9-0.4,2.8-0.4c-0.2-0.1-0.4-0.3-0.6-0.4c1.2-1.8,1.4-4.1,2.5-6
		c1.9-3.3,3.6-6.8,6.2-9.6c0.7-0.8,1.7-1.2,2.4-1.9c-2,0.6-3.3,2.3-4.5,4c-1.6,2.1-2.7,4.4-4,6.7c-0.9,1.5-1.5,3.1-2,4.8
		c-0.2,0.7-0.6,1.4-1.1,2c-0.9,0.2-1.8,0.3-2.5,0.9c-1.6,1.1-3,2.9-3,5c-1.2,1-2.3,2.1-3.9,2.3c-0.7,1.8-2.7,2.2-4.2,3.2
		c-0.1,0-0.1,0.1-0.2,0.1c0.2-0.2,0.5-0.5,0.7-0.7c0.6-0.9-0.2-1.9-0.6-2.8c0.9-0.3,2.1-0.1,2.8-0.8c0.3,0.4,0.4,1,0.5,1.6
		c0.2-0.1,0.6-0.1,0.4-0.5c-0.2-1.2-0.7-2.5-1.8-3c0.1,0.6,0.5,1.1,0.9,1.6c-0.8,0.3-1.8,0.4-2.6,0.6c-0.4,0.1-0.8-0.1-1.2-0.2
		c-0.6,0.2-1.1,0.6-1.6,0.9c-0.5,0.3-1.1,0.6-1.3,1.3c1.2-0.4,2.1-1.3,3.2-1.8c0.3,0.6,0.7,1.1,0.9,1.8c0.1,0.3,0.2,0.7,0,1
		c-0.5,0.6-1,1.1-1.7,1.4c-0.7,0.2-1.1-0.5-1.5-0.9c-0.4-0.5-0.3-0.9-0.9-1.2c0,0.4-0.1,0.6,0.2,1c0.5,0.7,1,1.5,1.9,1.7
		c-0.5,0.1-1,0.1-1.5-0.2c-1.9-0.9-1.8-3.6-0.5-5c1.1-1.2,2.4-2.2,3.8-3c0.6-0.4,1.4-0.6,1.9-1.2c-2.1,0.7-3.8,2.1-5.5,3.5
		c1.1-1.7,2.6-3.2,4.5-4.1c0.7-0.4,1.7-0.4,2.2-1.1c0.7-0.8,1.5-1.5,2.5-1.9c0.7-0.2,0.8-1,1.1-1.6c1.3-2.4,3.1-4.4,5.1-6.2
		c-0.8,1.6-1.1,3.4-1.6,5c-0.6,1.8-1.5,3.7-3.2,4.8c-0.7,0.5-1.6,0.6-2.5,0.9c0.9,0.3,1.8-0.2,2.6-0.6c1.9-1.1,2.8-3.2,3.5-5.2
		c0.5-1.9,0.9-3.7,1.8-5.4c0.4-0.4,1.4-0.5,1.3-1.2c-1.2,0.3-2,1.2-2.9,1.9c0.2-0.7,0.5-1.4,0.8-2.1c0.4-0.8,0.8-1.6,1.1-2.4
		c-0.6,0.2-0.8,1-1.2,1.5c-0.6,0.9-0.9,2-1.2,3c-0.1,0.6-0.6,1-1,1.4c-0.1-1.3,0-2.7,0.4-3.9c0.2-1,1-1.7,1.2-2.7
		c-0.1,0.1-0.3,0.2-0.5,0.3c-1.2,1.6-1.6,3.6-1.7,5.5c-1-1.1-1.6-2.5-1.9-4c-0.1-0.4-0.2-0.9-0.6-1.1c0.1,1.2,0.5,2.4,1,3.5
		c0.4,1,1.2,1.8,1.8,2.6c-0.2,0.2-0.4,0.5-0.6,0.5c-1.4-0.6-2.4-1.8-3.4-2.9c-0.7-0.7-0.9-1.8-1.8-2.4c0.2,1,0.8,1.8,1.4,2.6
		c1,1.2,2.2,2.4,3.6,3.2c-0.2,0.2-0.3,0.3-0.5,0.5c-2.9-0.9-5.5-2.7-7.2-5.2c-0.4-0.5-0.4-1.2-1.1-1.4c0.3,1.3,1.2,2.3,2.1,3.3
		c1.7,1.6,3.7,2.9,5.9,3.7c-0.7,1.1-1.3,2.2-1.9,3.3c-0.7,0.4-1.1,0.3-1.8,0.2c0.2,0.2,0.1,0.2,0.4,0.5c-1,0.6-1.5,1.7-2.7,2
		c-1.2,0.4-2.3,1.1-3.3,1.9c0.1-0.4,0.3-0.9,0.6-1.4c0,0,0,0-0.1,0.1c-0.9,0.9-2,1.5-3.1,2.1c-0.6,1.4-1.2,2.8-2.3,3.8
		c-0.6,0.5-1.3,0.8-1.9,1.2c-0.1,0.7-0.3,1.5-0.5,2.3c0.1-0.8,0-1.5,0.3-2.3c0.3-0.8,1.1-1.4,1.5-2.2c0.8-1.3,1-2.8,1.3-4.2
		c1.3-0.3,2.5-0.9,3.5-1.7c1.2-0.9,2.3-1.9,3.1-3.1c0.2,0.2,0.5,0.3,0.7,0.5c0-0.1,0.1-0.2,0.1-0.3c0.6,0.3,1.2,0.6,1.8,0.7
		c-0.2-0.3-0.4-0.5-0.7-0.6c-1-0.5-1.9-1.2-2.8-1.9c-0.7-0.7-1.2-1.6-1.7-2.4c1,0,2.1,0.1,3.1-0.2c0.5-0.1,1.1-0.3,1.3-0.9
		c-0.3-0.1-0.6,0.1-0.9,0.2c-1.3,0.5-2.7,0.6-4.1,0.2c-0.3-1-0.7-1.9-1.4-2.6c-0.2-0.3-0.7-0.3-0.8,0.1c-1.5,0.1-3.1,0.4-4.6,0.5
		c-0.8,0.2-1.7,0.2-2.4,0.8c0.9-0.1,1.7-0.4,2.6-0.5c1.6-0.2,3.2-0.3,4.7-0.7c0.6,0.7,1,1.5,1.3,2.4c-0.2,0.1-0.5,0.2-0.7,0.3
		c-3.2,0.2-5.8-0.2-9-0.8c0.2,0.6,0.9,0.5,1.4,0.6c1.3,0,2.5,0.5,3.7,0.5c1.2,0,2,0.1,3,0.1c-0.4,0.2-0.9,0.3-1.3,0.4
		c0.1,0.1,0.3,0.3,0.4,0.4c1-0.3,2-0.8,3-1c0.4,0.7,0.8,1.3,1.2,2c-1.6,2.3-3.9,4.1-6.6,5.1c-0.1-0.6-0.1-1.2-0.2-1.8
		c1.6-0.2,3-1.2,4-2.3c-0.1-0.1-0.2-0.3-0.3-0.4c-0.8,1.5-2.6,2.2-4.3,2.5c0.2,1.3,0.3,2.6,0,3.9c-0.5,1.9-1.8,3.6-3.1,5.1
		c0,1.1-0.1,2.2-0.6,3.2c-0.1-1.1-0.1-2.3-0.4-3.4c-0.1-0.3-0.2-0.7-0.2-1c-0.1,0.3-0.1,0.5,0,0.8c0.4,1.8,0.7,3.6,0.3,5.4
		c-0.4,1.1-1.1,2.3-2.3,3c-0.5-0.6-1-1.3-1.4-1.9c0.7-1.7,1.2-3.5,1.3-5.3c0.2-1.4,0.1-2.9,0.9-4.1c1-1.4,1.6-3.1,2.4-4.6
		c0.4,0.8,0.6,1.7,0.5,2.5c0.2-1.2,0-2.4-0.7-3.2c0.3-0.8,0.7-1.6,1.3-2.2c0.8-0.8,1.9-1.1,3-1.4c0.9-0.3,1.9-0.4,2.8-0.1
		c0.4,0.1,0.6,0.6,0.6,0.9c0.1,0,0.3,0,0.4,0c-0.2-0.3-0.2-0.8-0.5-1c-0.4-0.3-0.9-0.3-1.4-0.3c-0.1-0.2-0.2-0.3-0.4-0.5
		c-2.2,0.4-4.4,0.8-6.6,1c0.1-0.2,0.1-0.4,0.2-0.7c-0.4-0.3-0.6,0.3-0.9,0.6c-0.2,0.1-0.6,0.2-0.8,0.3c0.6-1.1,0.6-2.3,0.6-3.4
		c-0.1-0.1-0.4-0.2-0.5-0.3c0.1,1.4,0,2.8-0.8,4c-1.6-0.4-3-1.2-4.4-2c-0.7-0.5-1.5,0.2-1.9,0.7c-0.8,1.2-1.7,2.5-3.2,2.9
		c-1.1,0.1-2.2,0.2-3.3-0.1c-0.6-0.1-1.4-0.8-1-1.5c0.7-1.1,2-1.4,3.1-1.9c1.4-0.5,2.4-1.9,3.8-2.3c0.9-0.2,1.7-0.1,2.6-0.3
		c1.2-0.3,2.2-1,3.3-1.4c0.9-0.2,1.9-0.1,2.8-0.2c1.5-0.1,2.8-0.8,4.1-1.3c1.3-0.5,2.5-1.3,3.8-1.7c0.8-0.1,1.5-0.1,2.3-0.5
		c-0.9,1.6-2.3,2.8-4,3.4c-1.8,0.6-3.6,0.4-5.5,0.5v0.2c1.4,0.3,2.9,0.2,4.3,0c1.9-0.3,3.7-1.4,4.9-2.9c0.4-0.5,0.5-1.1,0.8-1.6
		c0.6-0.4,1.4-0.7,2.1-1c2-0.6,4-1.2,6-1.8c0.9-0.3,1.9-0.4,2.5-1.2c-0.7,0.2-1.3,0.4-2,0.6c-2.9,1.1-6,1.5-8.8,3
		c0.7-0.6,1.2-1.2,1.9-1.8c0.5-0.5,1.2-0.6,1.8-0.7c1.3-0.3,2.6-0.6,4-0.9c0.1-0.1,0.2-0.2,0.3-0.3c1.3-0.1,2.7-0.1,4.1-0.3
		c2.8-0.6,5.4-1.9,8.1-2.5c1.4-0.4,2.8-0.7,4.3-0.7c0.1-0.2,0.1-0.3,0-0.4c-1.5-0.2-2.9,0.4-4.4,0.7c-3,0.7-5.8,2.1-8.8,2.6
		c-2.4,0.2-4.8,0.2-7.2,0.8c5.2-2.3,10.4-4.8,15.6-7.2c0.7-0.3,1.5-0.5,2-1.2c-0.3,0.1-0.7,0.2-1,0.3c-10.7,5-21.4,9.9-32.2,14.9
		c-0.4,0.2-0.8,0.4-1.3,0.5c-2,0.5-3.8,1.8-5.9,1.9c-2,0.2-3.1,2.1-4.9,2.7c-1,0.4-2,0.7-2.7,1.5c-0.4,0.4-0.6,1.2-0.1,1.7
		c0.6,0.7,1.5,0.9,2.3,1c2.3,0.2,4.8-0.2,6.8-1.4c0.3,0.1,0.7,0.2,1,0.3c1.5-0.2,3.1-0.1,4.6-0.6c1.4-0.6,2.8-0.1,4.2-0.5
		c0.2-0.1,0.5-0.3,0.7-0.2c-0.1,0.2-0.3,0.2-0.5,0.3c-0.8,0.2-1.3,0.8-1.8,1.4c-2.1-0.2-3.4-0.3-5.5-0.4c-0.1,0.1-0.3,0.2-0.4,0.3
		c2.2,0,3.6,0.3,5.8,0.4c-0.7,1.5-1.3,3-2,4.4c-0.1,0.2-0.2,0.5-0.4,0.7c-0.9-0.6-1.9-0.9-2.8-1.4c-1-0.4-1.9-1-3-1.3
		c0.5,0.8,1.6,0.9,2.3,1.4c1.1,0.5,2.2,1.2,3.5,1.4c-0.5,0.8-1.1,1.5-1.4,2.5c-1.3-1-4.9-3.6-5.5-3.8c0.3,0.7,1,1,1.6,1.4
		c1.3,0.9,2.6,1.8,3.8,2.7c-0.1,0.8-0.2,1.5-0.2,2.3c-0.1,1.7-0.5,3.4-1.2,5.1c-1.6-2.2-3.2-4.5-4.8-6.7c-0.5-0.7-1-1.6-1.8-2.1
		c0.2,0.4,0.5,0.9,0.7,1.3c1.8,2.5,3.5,5,5.3,7.5c0.7,0.8-0.2,2,0.6,2.7c0.4,0.5,1,0.4,1.5,0.4c5.5,7.7,10.9,15.3,16.4,23
		c0.2,0.3,0.5,0.5,0.8,0.8c-0.2-0.5-0.4-0.9-0.7-1.3c-5.4-7.5-10.7-15.1-16.1-22.6c0.1-0.1,0.3-0.2,0.4-0.2c0.1,0.1,0.2,0.3,0.3,0.4
		c1.2,0.3,2.3-0.4,3.2-1.1c1.2-1.1,2.2-2.5,2.8-4.1c6.8,4.8,13.7,9.6,20.5,14.5c0.7,0.5,1.3,1.1,2.2,1.3c-0.4-0.6-1-0.9-1.6-1.3
		c-4.3-3-8.5-6-12.8-9c0.5-0.2,1.1-0.4,1.5-0.9c1-1.2,1.2-2.9,1.3-4.4c4.7,2.1,9.5,4.3,14.2,6.5c0.8,0.4,1.6,0.8,2.5,0.9
		c-0.4-0.3-0.9-0.6-1.3-0.8c-4-1.8-8-3.7-12-5.5c-1.1-0.5-2.2-1.1-3.4-1.5c0.8-0.5,1.5-1,1.9-1.9c1-0.3,1.9-0.8,2.6-1.4
		c1.3-1.2,2.8-2.2,4.4-3c0.8-0.4,1.5-1,2.4-1.1c1-0.1,2-0.7,3.1-0.6c1,0,2.1-0.3,3.1-0.4c1.1-0.1,2.3,0.4,3.4,0.2
		c-0.7-0.6-1.6-0.4-2.5-0.5c2.2-1,4.2-2.2,6.1-3.6c1.2-0.9,2.3-2,3.1-3.3c0.8,0.1,1.6-0.3,2.3-0.7c2.3-0.6,4.7-0.9,7.1-1.1
		c1.4,0,2.9-0.2,4.3-0.2c0.9,0,1.8,0.2,2.7,0.2c0.3,0.1,0.3-0.3,0.4-0.4C225,68.6,223.9,68.4,222.7,68.4z M182.9,58
		c-0.9,0.2-1.7,0.4-2.6,0.5C181.1,58.1,182,57.9,182.9,58z M176.1,60c1.1-0.5,2.3-1,3.4-1.6l0.2,0.4c-0.3,0-0.9,0.1-1.2,0.4
		c-1.3,0.8-2,2-3.4,2.8c-0.8,0.2-1.6,0.4-2.3,0.8c-1.8,0.9-3.6,1.8-5.6,2.4c-0.8,0.3-1.7,0.3-2.6,0.2
		C168.4,63.5,172.3,61.8,176.1,60z M159.1,72.1c-0.9,0.8-2.1,1.1-3.2,1.3c0.8-0.6,1.6-1.4,2.1-2.3c0.3-0.5,0.7-1.2,1.4-0.9
		c1.3,0.6,2.6,1.5,4,1.9C161.9,72.3,160.5,72.3,159.1,72.1z M162.3,90.9c0-0.3,0-0.6,0-0.9c0.4,0.6,0.8,1.1,1.2,1.7
		C162.9,91.6,162.5,91.3,162.3,90.9z M169.5,87.3c0,1.3-0.9,2.4-1.8,3.2c-0.8,0.6-1.7,1.2-2.7,1c0.1-0.2,0.2-0.5,0.4-0.7
		c1-1.3,1.7-2.8,2.2-4.3c0.3-0.8,0.3-1.7,0.3-2.6c1.6-1.8,3.2-4,3.3-6.5c1.5-0.7,3-1.4,4.3-2.5c1-0.8,1.9-1.8,2.7-2.8
		c0.4,0.4,0.8,0.7,1.2,1.2c0,0.3-0.2,0.4-0.3,0.7c-1,1.4-2.4,2.4-3.9,3.3c-0.7,0.4-1.5,0.5-2.2,0.9c-0.4,1-0.5,2-0.9,3
		c-0.3,1-1,1.9-1.7,2.7c-0.6,0.7-0.7,1.7-0.7,2.6c-0.1,0.3,0.1,0.4,0.3,0.6c-0.1,0.3-0.1,0.5-0.2,0.8
		C169.8,87.6,169.9,87.1,169.5,87.3z M175,80c0.7-0.5,1.5-0.9,2.2-1.4c-0.2,0.7-0.3,1.5-0.8,2c-0.7,0.7-1.3,1.6-1.8,2.5
		c-0.3-0.1-0.6-0.3-1-0.4C174.2,81.9,174.5,80.9,175,80z M170.9,86.4c0-0.4,0-0.9,0.1-1.3c1-0.5,1.8-1.2,2.5-2.1
		c0.3,0.2,0.6,0.3,1,0.5c-0.5,1.4-0.9,3.3,0.3,4.6c0.6,0.8,1.7,1,2.7,0.9c0.2,0.9,0.5,1.8,0.8,2.6C175.8,89.9,173.3,88.2,170.9,86.4
		z M179.6,91.6c-0.3,0-0.5,0-0.8,0c-0.4-0.9-0.7-1.8-0.9-2.8c1.2-0.6,2.2-1.5,3.4-2C181.3,88.5,181,90.5,179.6,91.6z"/>
	<path class="st0" d="M166,81.6c-0.1,0.2-0.1,0.5-0.1,0.7c0.2-0.8,0.8-1.4,1.1-2.1c0.3-0.6,0.5-1.3,0.6-2.1c0,0.2,0,0.3-0.1,0.5
		C167.2,79.7,166.5,80.6,166,81.6z"/>
	<path class="st0" d="M180.4,74.1C180.4,74.1,180.4,74.1,180.4,74.1c-0.1,0.1-0.2,0.3-0.3,0.5C180.2,74.4,180.3,74.3,180.4,74.1z"/>
	<path class="st0" d="M151,83.6c0-0.3-0.1-0.7-0.3-0.9c-0.1,0.6,0,1.3,0.1,1.9c1.2,13,2.5,26,3.7,39c0.1,0.7,0.1,1.5,0.4,2.2
		c0.1-1.3-0.1-2.5-0.2-3.8C153.5,109.2,152.2,96.4,151,83.6z"/>
	<path class="st0" d="M151.1,61c1.2-13.2,2.4-26.3,3.6-39.5l-0.2-1.8c-1.2,13.6-2.4,27.3-3.7,40.9c0,0.3,0,0.6,0.1,0.8
		C151,61.3,151.1,61.2,151.1,61z"/>
	<path class="st0" d="M155,82.5c-0.2-0.4-0.4-0.8-0.7-1.2c0,0.3,0,0.6,0.1,0.9c5.8,12.5,11.6,25,17.4,37.5c0.1,0.3,0.3,0.4,0.5,0.5
		c-0.4-1.2-1-2.4-1.6-3.6C165.5,105.2,160.2,93.9,155,82.5z"/>
	<path class="st0" d="M154.9,62c5.7-12.5,11.4-25,17.1-37.5l-1.1,1.6c-5.2,11.4-10.4,22.8-15.6,34.2c-0.4,0.8-0.9,1.6-1,2.6
		C154.5,62.5,154.7,62.2,154.9,62z"/>
	<path class="st0" d="M155.2,131.6c0.2,0.2,0.6,0,0.4-0.2C155.5,131.1,155,131.4,155.2,131.6z"/>
	<path class="st0" d="M155.8,63.7c0.7-0.6,1.2-1.5,1.8-2.3c7.6-10.8,15.2-21.6,22.8-32.3L180,29c-8,11.3-15.9,22.7-23.9,34
		C155.9,63.2,155.8,63.4,155.8,63.7z"/>
	<path class="st0" d="M158.2,66.3c1-0.4,1.7-1.1,2.6-1.7c10.1-7.2,20.2-14.4,30.3-21.6c0.8-0.6,1.7-1.2,2.4-1.9
		c-0.3,0.1-0.6,0.2-0.9,0.3c-10.9,7.8-21.8,15.6-32.7,23.3C159.3,65.2,158.6,65.6,158.2,66.3z"/>
	<path class="st0" d="M192.2,63.9c1.1-0.3,2-1.4,2-2.5c0.1-0.8-0.3-1.6-1-1.9c-1.6-0.7-3.4,0-4.9,0.8c-1.9,1-4,1.3-5.9,2.1
		c-1.1,0.5-2.4,1.3-2.6,2.6c0.7-0.8,1.4-1.7,2.4-2.2c2-0.9,4.2-1.2,6.1-2.1c1.4-0.7,2.9-1.4,4.5-1c0.9,0.3,1.4,1.3,1,2.2
		C193.6,62.7,192.7,63.2,192.2,63.9z"/>
	<path class="st0" d="M181.5,78.8c0.3,0.8,1,1.2,1.4,1.9c0.6,0.9,0.8,2,1.1,3c0-0.1,0.2-0.3,0.3-0.3c0-1.5-0.8-2.9-1.8-4
		C182.2,79.1,181.9,78.9,181.5,78.8z"/>
	<path class="st0" d="M185.1,82.7c0.1,0,0.3,0.1,0.4,0.2c-0.1-1.5-0.8-2.9-1.8-3.9c-0.2-0.3-0.5-0.4-0.8-0.4
		c0.4,0.8,1.2,1.3,1.5,2.1C184.8,81.3,184.9,82,185.1,82.7z"/>
	<path class="st0" d="M184.3,120.9c0.3,0.1,0.5,0,0.4-0.3C184.3,120.5,184.2,120.6,184.3,120.9z"/>
	<path class="st0" d="M205.7,58.1c-0.1,0-0.4,0.1-0.6,0.1c0.4,0.5,0.9,0.7,1.4,1c0.5,0.3,0.3,0.9,0.4,1.3c2.1-1.8,3.6-4.1,4.8-6.5
		c0.5-0.9,1.1-1.8,1.2-2.8c1.5-0.2,3-0.2,4.5-0.7c0-0.1,0-0.3,0-0.5c-2.5,0.7-5.2,0.5-7.7,1.2c-1.7,0.4-3.3,1.1-4.7,2.1
		c-0.6,0.4-1.2,0.7-1.9,0.8c0-0.1-0.1-0.4-0.1-0.5c-0.5,0.1-1-0.1-1.5,0.1c0,0.2-0.1,0.5-0.1,0.7c0.8,0,1.8,0,2.5,0.5
		C204.8,55.6,205.4,56.8,205.7,58.1z M206.1,53c2-1.1,4.3-1.6,6.5-1.9c-0.4,1.5-1.3,2.7-1.9,4c-0.9,1.6-2,3.1-3.3,4.4
		c-0.3-0.5-0.7-0.9-1.3-1.1c-0.1-1.7-1-3.3-2.5-4.1C204.6,54.1,205.3,53.5,206.1,53z"/>
	<path class="st0" d="M208.2,65.6c-0.5,0.4-1.2,0.5-1.7,0.9c1.3,0.2,2.8-0.9,2.6-2.3c-0.1-1.1-0.2-2.2-0.4-3.3
		c1.1-1,2.5-1.7,3.4-2.9c1-1.2,2-2.6,2.5-4.1c0.1-0.2-0.1-0.4-0.2-0.7c-0.8,1.9-1.9,3.7-3.4,5.2c-1,0.8-2,1.6-3.1,2.2
		c0.6,1.2,0.3,2.5,0.7,3.8C208.7,64.9,208.6,65.4,208.2,65.6z"/>
	<path class="st0" d="M213.8,58.7c-0.3,0.6-0.8,1.2-1.5,1.4c0,0.1,0,0.2,0,0.2c-1,0.5-2.1,1-3.3,0.9c0,0.1,0,0.3,0,0.4
		c0.9,0.1,1.8,0.3,2.7,0.2c1.8-0.1,3.5-0.8,5.1-1.6c1.8-0.9,3.6-1.8,5.4-2.7c0.6-0.3,1.3-0.6,1.5-1.2c-0.8,0.2-1.4,0.7-2.1,1
		c-1.8,0.9-3.7,1.8-5.5,2.7c-1.6,0.7-3.3,1.4-5.1,1.3c2.8-1.1,4.4-3.8,5.9-6.3c0.8-1.4,2-2.8,2.2-4.5h-0.3c-0.4,1-0.8,2-1.4,2.8
		C216.2,55.1,215.2,57,213.8,58.7z"/>
	<path class="st0" d="M209.4,66.5c0.3,0.1,0.4,0,0.3-0.3C209.4,66.1,209.2,66.2,209.4,66.5z"/>
	<path class="st0" d="M212.7,63.6c-0.7,0.4-1.7,0.7-1.9,1.6c0.9-0.6,1.9-1.2,3-1.7c3-1.5,6.3-2,9.5-2.9c0.5-0.2,1.2-0.2,1.6-0.7
		c-1.2,0-2.3,0.5-3.4,0.8C218.5,61.4,215.5,62.1,212.7,63.6z"/>
	<path class="st0" d="M219.2,63c1.8-0.5,3.6-0.6,5.4-0.9c0-0.1,0-0.3,0-0.4c-1.9,0.2-3.8,0.3-5.7,0.9c-1.8,0.5-3.7,0.8-5.3,1.6
		c-0.9,0.5-2,0.9-2.5,2c1.3-0.8,2.6-1.7,4.1-2.2C216.6,63.7,217.9,63.4,219.2,63z"/>
	<path class="st0" d="M221,64.9c-2.4,0.3-4.8,0.2-7.1,0.9c-0.6,0.2-1.4,0.5-1.6,1.2c1.3-0.2,2.7-0.5,4.1-0.4c2.1,0,4.1,0,6.2,0
		c0.8,0,1.8,0.3,2.5-0.2c-1.4-0.3-2.8-0.2-4.2-0.2c-2.4,0.1-4.8-0.1-7.2,0.2c2.4-0.7,4.9-0.7,7.4-0.9c1.5-0.1,3,0,4.5,0.2
		c0-0.1-0.2-0.3-0.2-0.4C223.9,64.8,222.5,64.9,221,64.9z"/>
</g>
</svg>
