<?xml version="1.0" encoding="utf-8"?>
<!-- Generator: Adobe Illustrator 26.0.3, SVG Export Plug-In . SVG Version: 6.00 Build 0)  -->
<svg version="1.1" id="Слой_24" xmlns="http://www.w3.org/2000/svg" xmlns:xlink="http://www.w3.org/1999/xlink" x="0px"
	 y="0px" viewBox="0 0 239.5 150.2" style="enable-background:new 0 0 239.5 150.2;" xml:space="preserve">
<g>
	<path d="M9,37.6c0.5,0,0.9-0.4,0.9-0.9c0-0.6-0.5-1-1-1c-0.6,0-1.2,0.6-1.2,1.2v75.6c0,0.5,0.8,0.9,1.2,0.9c0.6,0,1-0.5,1-1
		s-0.4-0.9-0.9-0.9c-0.3,0-0.5,0.1-0.6,0.3V37.3C8.5,37.5,8.8,37.6,9,37.6z"/>
	<path d="M4.3,111.5c-0.5,0-0.9,0.4-0.9,0.9c0,0.6,0.5,1,1,1s1.2-0.4,1.2-0.9V37v-0.1c0-0.6-0.6-1.2-1.2-1.2c-0.6,0-1,0.5-1,1
		s0.4,0.9,0.9,0.9c0.3,0,0.5-0.1,0.6-0.3v74.5C4.8,111.6,4.5,111.5,4.3,111.5z"/>
	<path d="M6.9,37c0.1-0.2,0.1-0.4,0-0.6c-0.1-0.1-0.2-0.1-0.3-0.1c-0.1,0-0.2,0-0.3,0.1c-0.1,0.1-0.1,0.2-0.1,0.3
		c0,0.1,0,0.2,0.1,0.3c0.1,0.1,0.2,0.1,0.3,0.1C6.7,37.1,6.8,37.1,6.9,37z"/>
	<path d="M6.6,100.2c0.2,0,0.4-0.2,0.4-0.4s-0.2-0.4-0.4-0.4c-0.2,0-0.4,0.2-0.4,0.4S6.4,100.2,6.6,100.2z"/>
	<path d="M6.6,102c0.2,0,0.4-0.2,0.4-0.4c0-0.2-0.2-0.4-0.4-0.4c-0.2,0-0.4,0.2-0.4,0.4C6.2,101.8,6.4,102,6.6,102z"/>
	<path d="M6.6,105.7c0.2,0,0.4-0.2,0.4-0.4c0-0.2-0.2-0.4-0.4-0.4c-0.2,0-0.4,0.2-0.4,0.4C6.2,105.5,6.4,105.7,6.6,105.7z"/>
	<path d="M6.6,111.1c0.2,0,0.4-0.2,0.4-0.4s-0.2-0.4-0.4-0.4c-0.2,0-0.4,0.2-0.4,0.4S6.4,111.1,6.6,111.1z"/>
	<path d="M6.6,107.5c0.2,0,0.4-0.2,0.4-0.4c0-0.3-0.2-0.4-0.4-0.4c-0.2,0-0.4,0.2-0.4,0.4C6.2,107.3,6.4,107.5,6.6,107.5z"/>
	<path d="M6.6,109.3c0.2,0,0.4-0.2,0.4-0.4c0-0.2-0.2-0.4-0.4-0.4c-0.2,0-0.4,0.2-0.4,0.4C6.2,109.1,6.4,109.3,6.6,109.3z"/>
	<path d="M6.6,98.4C6.8,98.4,7,98.2,7,98s-0.2-0.4-0.4-0.4c-0.2,0-0.4,0.2-0.4,0.4S6.4,98.4,6.6,98.4z"/>
	<path d="M6.6,89.4C6.8,89.4,7,89.2,7,89c0-0.2-0.2-0.4-0.4-0.4c-0.2,0-0.4,0.2-0.4,0.4C6.2,89.2,6.4,89.4,6.6,89.4z"/>
	<path d="M6.6,93C6.8,93,7,92.8,7,92.6c0-0.2-0.2-0.4-0.4-0.4c-0.2,0-0.4,0.2-0.4,0.4C6.2,92.8,6.4,93,6.6,93z"/>
	<path d="M6.6,91.2C6.8,91.2,7,91,7,90.8s-0.2-0.4-0.4-0.4c-0.2,0-0.4,0.2-0.4,0.4S6.4,91.2,6.6,91.2z"/>
	<path d="M6.6,96.6c0.2,0,0.4-0.2,0.4-0.4s-0.2-0.4-0.4-0.4c-0.2,0-0.4,0.2-0.4,0.4S6.4,96.6,6.6,96.6z"/>
	<path d="M6.6,94.8c0.2,0,0.4-0.2,0.4-0.4C7,94.2,6.8,94,6.6,94c-0.2,0-0.4,0.2-0.4,0.4C6.2,94.6,6.4,94.8,6.6,94.8z"/>
	<path d="M6.6,103.9c0.2,0,0.4-0.2,0.4-0.4c0-0.3-0.2-0.4-0.4-0.4c-0.2,0-0.4,0.2-0.4,0.4S6.4,103.9,6.6,103.9z"/>
	<path d="M6.6,71.3c0.2,0,0.4-0.2,0.4-0.4c0-0.2-0.2-0.4-0.4-0.4c-0.2,0-0.4,0.2-0.4,0.4C6.2,71.1,6.4,71.3,6.6,71.3z"/>
	<path d="M6.6,74.9c0.2,0,0.4-0.2,0.4-0.4c0-0.2-0.2-0.4-0.4-0.4c-0.2,0-0.4,0.2-0.4,0.4C6.2,74.7,6.4,74.9,6.6,74.9z"/>
	<path d="M6.6,69.5c0.2,0,0.4-0.2,0.4-0.4c0-0.2-0.2-0.4-0.4-0.4c-0.2,0-0.4,0.2-0.4,0.4C6.2,69.3,6.4,69.5,6.6,69.5z"/>
	<path d="M6.6,87.6c0.2,0,0.4-0.2,0.4-0.4c0-0.2-0.2-0.4-0.4-0.4c-0.2,0-0.4,0.2-0.4,0.4C6.2,87.4,6.4,87.6,6.6,87.6z"/>
	<path d="M6.6,67.7c0.2,0,0.4-0.2,0.4-0.4c0-0.2-0.2-0.4-0.4-0.4c-0.2,0-0.4,0.2-0.4,0.4C6.2,67.5,6.4,67.7,6.6,67.7z"/>
	<path d="M6.6,38.9c0.2,0,0.4-0.2,0.4-0.4s-0.2-0.4-0.4-0.4c-0.2,0-0.4,0.2-0.4,0.4S6.4,38.9,6.6,38.9z"/>
	<path d="M6.6,73.1c0.2,0,0.4-0.2,0.4-0.4c0-0.2-0.2-0.4-0.4-0.4c-0.2,0-0.4,0.2-0.4,0.4C6.2,72.9,6.4,73.1,6.6,73.1z"/>
	<path d="M6.6,76.7c0.2,0,0.4-0.2,0.4-0.4c0-0.2-0.2-0.4-0.4-0.4c-0.2,0-0.4,0.2-0.4,0.4C6.2,76.5,6.4,76.7,6.6,76.7z"/>
	<path d="M6.6,84C6.8,84,7,83.8,7,83.6c0-0.2-0.2-0.4-0.4-0.4c-0.2,0-0.4,0.2-0.4,0.4C6.2,83.8,6.4,84,6.6,84z"/>
	<path d="M6.6,85.8c0.2,0,0.4-0.2,0.4-0.4C7,85.2,6.8,85,6.6,85c-0.2,0-0.4,0.2-0.4,0.4C6.2,85.6,6.4,85.8,6.6,85.8z"/>
	<path d="M6.6,82.2C6.8,82.2,7,82,7,81.8c0-0.2-0.2-0.4-0.4-0.4c-0.2,0-0.4,0.2-0.4,0.4C6.2,82,6.4,82.2,6.6,82.2z"/>
	<path d="M6.6,78.5c0.2,0,0.4-0.2,0.4-0.4c0-0.2-0.2-0.4-0.4-0.4c-0.2,0-0.4,0.2-0.4,0.4C6.2,78.3,6.4,78.5,6.6,78.5z"/>
	<path d="M6.6,80.4C6.8,80.4,7,80.2,7,80c0-0.2-0.2-0.4-0.4-0.4c-0.2,0-0.4,0.2-0.4,0.4C6.2,80.2,6.4,80.4,6.6,80.4z"/>
	<path d="M6.3,112.8c0.1,0.1,0.2,0.1,0.3,0.1c0.1,0,0.2,0,0.3-0.1c0.1-0.2,0.1-0.4,0-0.6c-0.1-0.1-0.2-0.1-0.3-0.1
		c-0.1,0-0.2,0-0.3,0.1c-0.1,0.1-0.1,0.2-0.1,0.3S6.2,112.7,6.3,112.8z"/>
	<path d="M6.6,65.9c0.2,0,0.4-0.2,0.4-0.4s-0.2-0.4-0.4-0.4c-0.2,0-0.4,0.2-0.4,0.4S6.4,65.9,6.6,65.9z"/>
	<path d="M6.6,64.1c0.2,0,0.4-0.2,0.4-0.4s-0.2-0.4-0.4-0.4c-0.2,0-0.4,0.2-0.4,0.4S6.4,64.1,6.6,64.1z"/>
	<path d="M6.6,55.1c0.2,0,0.4-0.2,0.4-0.4c0-0.2-0.2-0.4-0.4-0.4c-0.2,0-0.4,0.2-0.4,0.4C6.2,54.9,6.4,55.1,6.6,55.1z"/>
	<path d="M6.6,58.7c0.2,0,0.4-0.2,0.4-0.4s-0.2-0.4-0.4-0.4c-0.2,0-0.4,0.2-0.4,0.4S6.4,58.7,6.6,58.7z"/>
	<path d="M6.6,56.9c0.2,0,0.4-0.2,0.4-0.4s-0.2-0.4-0.4-0.4c-0.2,0-0.4,0.2-0.4,0.4S6.4,56.9,6.6,56.9z"/>
	<path d="M6.6,62.3c0.2,0,0.4-0.2,0.4-0.4c0-0.2-0.2-0.4-0.4-0.4c-0.2,0-0.4,0.2-0.4,0.4C6.2,62.1,6.4,62.3,6.6,62.3z"/>
	<path d="M6.6,60.5c0.2,0,0.4-0.2,0.4-0.4c0-0.2-0.2-0.4-0.4-0.4c-0.2,0-0.4,0.2-0.4,0.4C6.2,60.3,6.4,60.5,6.6,60.5z"/>
	<path d="M6.6,40.6c0.2,0,0.4-0.2,0.4-0.4c0-0.2-0.2-0.4-0.4-0.4c-0.2,0-0.4,0.2-0.4,0.4C6.2,40.4,6.4,40.6,6.6,40.6z"/>
	<path d="M6.6,53.3c0.2,0,0.4-0.2,0.4-0.4c0-0.2-0.2-0.4-0.4-0.4c-0.2,0-0.4,0.2-0.4,0.4C6.2,53.1,6.4,53.3,6.6,53.3z"/>
	<path d="M6.6,42.4C6.8,42.4,7,42.2,7,42s-0.2-0.4-0.4-0.4c-0.2,0-0.4,0.2-0.4,0.4S6.4,42.4,6.6,42.4z"/>
	<path d="M6.6,49.6c0.2,0,0.4-0.2,0.4-0.4c0-0.2-0.2-0.4-0.4-0.4c-0.2,0-0.4,0.2-0.4,0.4C6.2,49.4,6.4,49.6,6.6,49.6z"/>
	<path d="M6.6,51.4C6.8,51.4,7,51.2,7,51s-0.2-0.4-0.4-0.4c-0.2,0-0.4,0.2-0.4,0.4S6.4,51.4,6.6,51.4z"/>
	<path d="M6.6,47.8c0.2,0,0.4-0.2,0.4-0.4C7,47.2,6.8,47,6.6,47c-0.2,0-0.4,0.2-0.4,0.4C6.2,47.6,6.4,47.8,6.6,47.8z"/>
	<path d="M6.6,44.2C6.8,44.2,7,44,7,43.8c0-0.2-0.2-0.4-0.4-0.4c-0.2,0-0.4,0.2-0.4,0.4C6.2,44,6.4,44.2,6.6,44.2z"/>
	<path d="M6.6,46C6.8,46,7,45.8,7,45.6c0-0.2-0.2-0.4-0.4-0.4c-0.2,0-0.4,0.2-0.4,0.4C6.2,45.8,6.4,46,6.6,46z"/>
	<path d="M203.6,7.2H36h-0.1c-0.6,0-1.2,0.6-1.2,1.2c0,0.6,0.5,1,1,1c0.6,0,1-0.4,1-0.9c0-0.3-0.1-0.5-0.3-0.6h166.5
		c-0.2,0.1-0.3,0.4-0.3,0.6c0,0.5,0.4,0.9,0.9,0.9c0.6,0,1-0.5,1-1S204.2,7.2,203.6,7.2z"/>
	<path d="M203.5,2.4c-0.5,0-0.9,0.4-0.9,0.9c0,0.3,0.1,0.5,0.3,0.6H36.3c0.2-0.1,0.3-0.4,0.3-0.6c0-0.5-0.4-0.9-0.9-0.9
		c-0.6,0-1,0.5-1,1c0,0.7,0.5,1.2,1.2,1.2H36h167.5c0.5,0,1-0.6,1-1.2C204.5,2.8,204,2.4,203.5,2.4z"/>
	<path d="M102.7,5.8c0-0.2-0.2-0.4-0.4-0.4c-0.2,0-0.4,0.2-0.4,0.4c0,0.2,0.2,0.4,0.4,0.4C102.5,6.2,102.7,6,102.7,5.8z"/>
	<path d="M100.9,5.8c0-0.2-0.2-0.4-0.4-0.4c-0.2,0-0.4,0.2-0.4,0.4c0,0.2,0.2,0.4,0.4,0.4C100.7,6.2,100.9,6,100.9,5.8z"/>
	<path d="M99.1,5.8c0-0.2-0.2-0.4-0.4-0.4c-0.2,0-0.4,0.2-0.4,0.4c0,0.2,0.2,0.4,0.4,0.4C98.9,6.2,99.1,6,99.1,5.8z"/>
	<path d="M104.4,5.8c0-0.2-0.2-0.4-0.4-0.4s-0.4,0.2-0.4,0.4s0.2,0.4,0.4,0.4C104.3,6.2,104.4,6,104.4,5.8z"/>
	<path d="M106.2,5.8c0-0.2-0.2-0.4-0.4-0.4s-0.4,0.2-0.4,0.4s0.2,0.4,0.4,0.4C106.1,6.2,106.2,6,106.2,5.8z"/>
	<path d="M97.4,5.8c0-0.2-0.2-0.4-0.4-0.4c-0.2,0-0.4,0.2-0.4,0.4c0,0.2,0.2,0.4,0.4,0.4C97.2,6.2,97.4,6,97.4,5.8z"/>
	<path d="M92,5.8c0-0.2-0.2-0.4-0.4-0.4c-0.2,0-0.4,0.2-0.4,0.4s0.2,0.4,0.4,0.4C91.8,6.2,92,6,92,5.8z"/>
	<path d="M90.2,5.8c0-0.2-0.2-0.4-0.4-0.4s-0.4,0.2-0.4,0.4s0.2,0.4,0.4,0.4C90.1,6.2,90.2,6,90.2,5.8z"/>
	<path d="M88.4,5.8c0-0.2-0.2-0.4-0.4-0.4s-0.4,0.2-0.4,0.4s0.2,0.4,0.4,0.4C88.3,6.2,88.4,6,88.4,5.8z"/>
	<path d="M86.7,5.8c0-0.2-0.2-0.4-0.4-0.4s-0.4,0.2-0.4,0.4s0.2,0.4,0.4,0.4S86.7,6,86.7,5.8z"/>
	<path d="M95.6,5.8c0-0.2-0.2-0.4-0.4-0.4s-0.4,0.2-0.4,0.4s0.2,0.4,0.4,0.4S95.6,6,95.6,5.8z"/>
	<path d="M108,5.8c0-0.2-0.2-0.4-0.4-0.4c-0.2,0-0.4,0.2-0.4,0.4s0.2,0.4,0.4,0.4C107.8,6.2,108,6,108,5.8z"/>
	<path d="M93.8,5.8c0-0.2-0.2-0.4-0.4-0.4S93,5.6,93,5.8s0.2,0.4,0.4,0.4C93.6,6.2,93.8,6,93.8,5.8z"/>
	<path d="M203.9,5.8c0-0.2-0.2-0.4-0.4-0.4c-0.2,0-0.4,0.2-0.4,0.4c0,0.2,0.2,0.4,0.4,0.4C203.7,6.2,203.9,6,203.9,5.8z"/>
	<path d="M36.9,5.8c0-0.2-0.2-0.4-0.4-0.4s-0.4,0.2-0.4,0.4s0.2,0.4,0.4,0.4S36.9,6,36.9,5.8z"/>
	<path d="M164.8,5.8c0-0.2-0.2-0.4-0.4-0.4S164,5.6,164,5.8s0.2,0.4,0.4,0.4S164.8,6,164.8,5.8z"/>
	<path d="M163,5.8c0-0.2-0.2-0.4-0.4-0.4c-0.2,0-0.4,0.2-0.4,0.4s0.2,0.4,0.4,0.4C162.8,6.2,163,6,163,5.8z"/>
	<path d="M84.9,5.8c0-0.2-0.2-0.4-0.4-0.4s-0.4,0.2-0.4,0.4s0.2,0.4,0.4,0.4S84.9,6,84.9,5.8z"/>
	<path d="M202.1,5.8c0-0.2-0.2-0.4-0.4-0.4s-0.4,0.2-0.4,0.4s0.2,0.4,0.4,0.4S202.1,6,202.1,5.8z"/>
	<path d="M111.6,5.8c0-0.2-0.2-0.4-0.4-0.4s-0.4,0.2-0.4,0.4s0.2,0.4,0.4,0.4S111.6,6,111.6,5.8z"/>
	<path d="M113.3,5.8c0-0.2-0.2-0.4-0.4-0.4s-0.4,0.2-0.4,0.4s0.2,0.4,0.4,0.4C113.2,6.2,113.3,6,113.3,5.8z"/>
	<path d="M115.1,5.8c0-0.2-0.2-0.4-0.4-0.4s-0.4,0.2-0.4,0.4s0.2,0.4,0.4,0.4S115.1,6,115.1,5.8z"/>
	<path d="M109.8,5.8c0-0.2-0.2-0.4-0.4-0.4S109,5.6,109,5.8s0.2,0.4,0.4,0.4C109.6,6.2,109.8,6,109.8,5.8z"/>
	<path d="M116.9,5.8c0-0.2-0.2-0.4-0.4-0.4s-0.4,0.2-0.4,0.4s0.2,0.4,0.4,0.4S116.9,6,116.9,5.8z"/>
	<path d="M120.4,5.8c0-0.2-0.2-0.4-0.4-0.4s-0.4,0.2-0.4,0.4s0.2,0.4,0.4,0.4C120.3,6.2,120.4,6,120.4,5.8z"/>
	<path d="M118.7,5.8c0-0.2-0.2-0.4-0.4-0.4s-0.4,0.2-0.4,0.4s0.2,0.4,0.4,0.4S118.7,6,118.7,5.8z"/>
	<path d="M122.2,5.8c0-0.2-0.2-0.4-0.4-0.4s-0.4,0.2-0.4,0.4s0.2,0.4,0.4,0.4C122.1,6.2,122.2,6,122.2,5.8z"/>
	<path d="M54.7,5.8c0-0.2-0.2-0.4-0.4-0.4c-0.2,0-0.4,0.2-0.4,0.4c0,0.2,0.2,0.4,0.4,0.4C54.5,6.2,54.7,6,54.7,5.8z"/>
	<path d="M52.9,5.8c0-0.2-0.2-0.4-0.4-0.4s-0.4,0.2-0.4,0.4s0.2,0.4,0.4,0.4S52.9,6,52.9,5.8z"/>
	<path d="M51.1,5.8c0-0.2-0.2-0.4-0.4-0.4s-0.4,0.2-0.4,0.4s0.2,0.4,0.4,0.4S51.1,6,51.1,5.8z"/>
	<path d="M60,5.8c0-0.2-0.2-0.4-0.4-0.4c-0.2,0-0.4,0.2-0.4,0.4s0.2,0.4,0.4,0.4C59.8,6.2,60,6,60,5.8z"/>
	<path d="M56.5,5.8c0-0.2-0.2-0.4-0.4-0.4c-0.2,0-0.4,0.2-0.4,0.4c0,0.2,0.2,0.4,0.4,0.4C56.3,6.2,56.5,6,56.5,5.8z"/>
	<path d="M49.3,5.8c0-0.2-0.2-0.4-0.4-0.4c-0.2,0-0.4,0.2-0.4,0.4s0.2,0.4,0.4,0.4C49.2,6.2,49.3,6,49.3,5.8z"/>
	<path d="M58.2,5.8c0-0.2-0.2-0.4-0.4-0.4s-0.4,0.2-0.4,0.4s0.2,0.4,0.4,0.4C58.1,6.2,58.2,6,58.2,5.8z"/>
	<path d="M42.2,5.8c0-0.2-0.2-0.4-0.4-0.4s-0.4,0.2-0.4,0.4s0.2,0.4,0.4,0.4C42.1,6.2,42.2,6,42.2,5.8z"/>
	<path d="M40.4,5.8c0-0.2-0.2-0.4-0.4-0.4s-0.4,0.2-0.4,0.4s0.2,0.4,0.4,0.4C40.3,6.2,40.4,6,40.4,5.8z"/>
	<path d="M47.6,5.8c0-0.2-0.2-0.4-0.4-0.4c-0.2,0-0.4,0.2-0.4,0.4c0,0.2,0.2,0.4,0.4,0.4C47.4,6.2,47.6,6,47.6,5.8z"/>
	<path d="M38.7,5.8c0-0.2-0.2-0.4-0.4-0.4s-0.4,0.2-0.4,0.4s0.2,0.4,0.4,0.4S38.7,6,38.7,5.8z"/>
	<path d="M45.8,5.8c0-0.2-0.2-0.4-0.4-0.4c-0.2,0-0.4,0.2-0.4,0.4c0,0.2,0.2,0.4,0.4,0.4C45.6,6.2,45.8,6,45.8,5.8z"/>
	<path d="M83.1,5.8c0-0.2-0.2-0.4-0.4-0.4c-0.2,0-0.4,0.2-0.4,0.4c0,0.2,0.2,0.4,0.4,0.4C82.9,6.2,83.1,6,83.1,5.8z"/>
	<path d="M44,5.8c0-0.2-0.2-0.4-0.4-0.4c-0.2,0-0.4,0.2-0.4,0.4s0.2,0.4,0.4,0.4C43.8,6.2,44,6,44,5.8z"/>
	<path d="M76,5.8c0-0.2-0.2-0.4-0.4-0.4c-0.2,0-0.4,0.2-0.4,0.4s0.2,0.4,0.4,0.4C75.8,6.2,76,6,76,5.8z"/>
	<path d="M72.5,5.8c0-0.2-0.2-0.4-0.4-0.4c-0.2,0-0.4,0.2-0.4,0.4c0,0.2,0.2,0.4,0.4,0.4C72.3,6.2,72.5,6,72.5,5.8z"/>
	<path d="M74.2,5.8c0-0.2-0.2-0.4-0.4-0.4c-0.2,0-0.4,0.2-0.4,0.4c0,0.2,0.2,0.4,0.4,0.4C74,6.2,74.2,6,74.2,5.8z"/>
	<path d="M77.8,5.8c0-0.2-0.2-0.4-0.4-0.4S77,5.6,77,5.8s0.2,0.4,0.4,0.4C77.6,6.2,77.8,6,77.8,5.8z"/>
	<path d="M79.6,5.8c0-0.2-0.2-0.4-0.4-0.4s-0.4,0.2-0.4,0.4s0.2,0.4,0.4,0.4S79.6,6,79.6,5.8z"/>
	<path d="M81.3,5.8c0-0.2-0.2-0.4-0.4-0.4s-0.4,0.2-0.4,0.4s0.2,0.4,0.4,0.4C81.2,6.2,81.3,6,81.3,5.8z"/>
	<path d="M68.9,5.8c0-0.2-0.2-0.4-0.4-0.4s-0.4,0.2-0.4,0.4s0.2,0.4,0.4,0.4S68.9,6,68.9,5.8z"/>
	<path d="M65.4,5.8c0-0.2-0.2-0.4-0.4-0.4c-0.2,0-0.4,0.2-0.4,0.4c0,0.2,0.2,0.4,0.4,0.4C65.2,6.2,65.4,6,65.4,5.8z"/>
	<path d="M63.6,5.8c0-0.2-0.2-0.4-0.4-0.4c-0.2,0-0.4,0.2-0.4,0.4c0,0.2,0.2,0.4,0.4,0.4C63.4,6.2,63.6,6,63.6,5.8z"/>
	<path d="M70.7,5.8c0-0.2-0.2-0.4-0.4-0.4s-0.4,0.2-0.4,0.4s0.2,0.4,0.4,0.4S70.7,6,70.7,5.8z"/>
	<path d="M61.8,5.8c0-0.2-0.2-0.4-0.4-0.4c-0.2,0-0.4,0.2-0.4,0.4s0.2,0.4,0.4,0.4C61.6,6.2,61.8,6,61.8,5.8z"/>
	<path d="M67.1,5.8c0-0.2-0.2-0.4-0.4-0.4s-0.4,0.2-0.4,0.4s0.2,0.4,0.4,0.4S67.1,6,67.1,5.8z"/>
	<path d="M140,5.8c0-0.2-0.2-0.4-0.4-0.4c-0.2,0-0.4,0.2-0.4,0.4c0,0.2,0.2,0.4,0.4,0.4C139.8,6.2,140,6,140,5.8z"/>
	<path d="M138.2,5.8c0-0.2-0.2-0.4-0.4-0.4c-0.2,0-0.4,0.2-0.4,0.4c0,0.2,0.2,0.4,0.4,0.4C138,6.2,138.2,6,138.2,5.8z"/>
	<path d="M136.5,5.8c0-0.2-0.2-0.4-0.4-0.4c-0.2,0-0.4,0.2-0.4,0.4c0,0.2,0.2,0.4,0.4,0.4C136.3,6.2,136.5,6,136.5,5.8z"/>
	<path d="M141.8,5.8c0-0.2-0.2-0.4-0.4-0.4S141,5.6,141,5.8s0.2,0.4,0.4,0.4S141.8,6,141.8,5.8z"/>
	<path d="M143.6,5.8c0-0.2-0.2-0.4-0.4-0.4s-0.4,0.2-0.4,0.4s0.2,0.4,0.4,0.4S143.6,6,143.6,5.8z"/>
	<path d="M134.7,5.8c0-0.2-0.2-0.4-0.4-0.4c-0.2,0-0.4,0.2-0.4,0.4c0,0.2,0.2,0.4,0.4,0.4C134.5,6.2,134.7,6,134.7,5.8z"/>
	<path d="M129.3,5.8c0-0.2-0.2-0.4-0.4-0.4s-0.4,0.2-0.4,0.4s0.2,0.4,0.4,0.4C129.2,6.2,129.3,6,129.3,5.8z"/>
	<path d="M127.6,5.8c0-0.2-0.2-0.4-0.4-0.4s-0.4,0.2-0.4,0.4s0.2,0.4,0.4,0.4S127.6,6,127.6,5.8z"/>
	<path d="M125.8,5.8c0-0.2-0.2-0.4-0.4-0.4S125,5.6,125,5.8s0.2,0.4,0.4,0.4C125.6,6.2,125.8,6,125.8,5.8z"/>
	<path d="M124,5.8c0-0.2-0.2-0.4-0.4-0.4c-0.2,0-0.4,0.2-0.4,0.4s0.2,0.4,0.4,0.4C123.8,6.2,124,6,124,5.8z"/>
	<path d="M132.9,5.8c0-0.2-0.2-0.4-0.4-0.4s-0.4,0.2-0.4,0.4s0.2,0.4,0.4,0.4S132.9,6,132.9,5.8z"/>
	<path d="M145.3,5.8c0-0.2-0.2-0.4-0.4-0.4s-0.4,0.2-0.4,0.4s0.2,0.4,0.4,0.4C145.2,6.2,145.3,6,145.3,5.8z"/>
	<path d="M131.1,5.8c0-0.2-0.2-0.4-0.4-0.4s-0.4,0.2-0.4,0.4s0.2,0.4,0.4,0.4S131.1,6,131.1,5.8z"/>
	<path d="M148.9,5.8c0-0.2-0.2-0.4-0.4-0.4s-0.4,0.2-0.4,0.4s0.2,0.4,0.4,0.4S148.9,6,148.9,5.8z"/>
	<path d="M150.7,5.8c0-0.2-0.2-0.4-0.4-0.4c-0.2,0-0.4,0.2-0.4,0.4s0.2,0.4,0.4,0.4C150.5,6.2,150.7,6,150.7,5.8z"/>
	<path d="M152.4,5.8c0-0.2-0.2-0.4-0.4-0.4s-0.4,0.2-0.4,0.4s0.2,0.4,0.4,0.4C152.3,6.2,152.4,6,152.4,5.8z"/>
	<path d="M147.1,5.8c0-0.2-0.2-0.4-0.4-0.4s-0.4,0.2-0.4,0.4s0.2,0.4,0.4,0.4S147.1,6,147.1,5.8z"/>
	<path d="M154.2,5.8c0-0.2-0.2-0.4-0.4-0.4c-0.2,0-0.4,0.2-0.4,0.4s0.2,0.4,0.4,0.4C154.1,6.2,154.2,6,154.2,5.8z"/>
	<path d="M157.8,5.8c0-0.2-0.2-0.4-0.4-0.4S157,5.6,157,5.8s0.2,0.4,0.4,0.4S157.8,6,157.8,5.8z"/>
	<path d="M156,5.8c0-0.2-0.2-0.4-0.4-0.4c-0.2,0-0.4,0.2-0.4,0.4s0.2,0.4,0.4,0.4C155.8,6.2,156,6,156,5.8z"/>
	<path d="M159.6,5.8c0-0.2-0.2-0.4-0.4-0.4s-0.4,0.2-0.4,0.4s0.2,0.4,0.4,0.4S159.6,6,159.6,5.8z"/>
	<path d="M161.3,5.8c0-0.2-0.2-0.4-0.4-0.4s-0.4,0.2-0.4,0.4s0.2,0.4,0.4,0.4C161.2,6.2,161.3,6,161.3,5.8z"/>
	<path d="M179,5.8c0-0.2-0.2-0.4-0.4-0.4c-0.2,0-0.4,0.2-0.4,0.4c0,0.2,0.2,0.4,0.4,0.4C178.8,6.2,179,6,179,5.8z"/>
	<path d="M177.2,5.8c0-0.2-0.2-0.4-0.4-0.4c-0.2,0-0.4,0.2-0.4,0.4c0,0.2,0.2,0.4,0.4,0.4C177,6.2,177.2,6,177.2,5.8z"/>
	<path d="M175.5,5.8c0-0.2-0.2-0.4-0.4-0.4c-0.2,0-0.4,0.2-0.4,0.4c0,0.2,0.2,0.4,0.4,0.4C175.3,6.2,175.5,6,175.5,5.8z"/>
	<path d="M180.8,5.8c0-0.2-0.2-0.4-0.4-0.4S180,5.6,180,5.8s0.2,0.4,0.4,0.4S180.8,6,180.8,5.8z"/>
	<path d="M182.6,5.8c0-0.2-0.2-0.4-0.4-0.4s-0.4,0.2-0.4,0.4s0.2,0.4,0.4,0.4S182.6,6,182.6,5.8z"/>
	<path d="M173.7,5.8c0-0.2-0.2-0.4-0.4-0.4c-0.2,0-0.4,0.2-0.4,0.4c0,0.2,0.2,0.4,0.4,0.4C173.5,6.2,173.7,6,173.7,5.8z"/>
	<path d="M168.3,5.8c0-0.2-0.2-0.4-0.4-0.4s-0.4,0.2-0.4,0.4s0.2,0.4,0.4,0.4C168.2,6.2,168.3,6,168.3,5.8z"/>
	<path d="M166.6,5.8c0-0.2-0.2-0.4-0.4-0.4s-0.4,0.2-0.4,0.4s0.2,0.4,0.4,0.4S166.6,6,166.6,5.8z"/>
	<path d="M171.9,5.8c0-0.2-0.2-0.4-0.4-0.4s-0.4,0.2-0.4,0.4s0.2,0.4,0.4,0.4S171.9,6,171.9,5.8z"/>
	<path d="M184.3,5.8c0-0.2-0.2-0.4-0.4-0.4s-0.4,0.2-0.4,0.4s0.2,0.4,0.4,0.4C184.2,6.2,184.3,6,184.3,5.8z"/>
	<path d="M170.1,5.8c0-0.2-0.2-0.4-0.4-0.4s-0.4,0.2-0.4,0.4s0.2,0.4,0.4,0.4S170.1,6,170.1,5.8z"/>
	<path d="M187.9,5.8c0-0.2-0.2-0.4-0.4-0.4s-0.4,0.2-0.4,0.4s0.2,0.4,0.4,0.4S187.9,6,187.9,5.8z"/>
	<path d="M189.7,5.8c0-0.2-0.2-0.4-0.4-0.4c-0.2,0-0.4,0.2-0.4,0.4s0.2,0.4,0.4,0.4C189.5,6.2,189.7,6,189.7,5.8z"/>
	<path d="M191.4,5.8c0-0.2-0.2-0.4-0.4-0.4s-0.4,0.2-0.4,0.4s0.2,0.4,0.4,0.4C191.3,6.2,191.4,6,191.4,5.8z"/>
	<path d="M186.1,5.8c0-0.2-0.2-0.4-0.4-0.4s-0.4,0.2-0.4,0.4s0.2,0.4,0.4,0.4S186.1,6,186.1,5.8z"/>
	<path d="M193.2,5.8c0-0.2-0.2-0.4-0.4-0.4c-0.2,0-0.4,0.2-0.4,0.4s0.2,0.4,0.4,0.4C193.1,6.2,193.2,6,193.2,5.8z"/>
	<path d="M196.8,5.8c0-0.2-0.2-0.4-0.4-0.4S196,5.6,196,5.8s0.2,0.4,0.4,0.4S196.8,6,196.8,5.8z"/>
	<path d="M195,5.8c0-0.2-0.2-0.4-0.4-0.4c-0.2,0-0.4,0.2-0.4,0.4s0.2,0.4,0.4,0.4C194.8,6.2,195,6,195,5.8z"/>
	<path d="M198.6,5.8c0-0.2-0.2-0.4-0.4-0.4s-0.4,0.2-0.4,0.4s0.2,0.4,0.4,0.4S198.6,6,198.6,5.8z"/>
	<path d="M200.3,5.8c0-0.2-0.2-0.4-0.4-0.4s-0.4,0.2-0.4,0.4s0.2,0.4,0.4,0.4C200.2,6.2,200.3,6,200.3,5.8z"/>
	<path d="M203.6,145.2H36h-0.1c-0.6,0-1.2,0.6-1.2,1.2c0,0.6,0.5,1,1,1c0.6,0,1-0.4,1-0.9c0-0.3-0.1-0.5-0.3-0.6h166.5
		c-0.2,0.1-0.3,0.4-0.3,0.6c0,0.5,0.4,0.9,0.9,0.9c0.6,0,1-0.5,1-1S204.2,145.2,203.6,145.2z"/>
	<path d="M203.5,140.4c-0.5,0-0.9,0.4-0.9,0.9c0,0.3,0.1,0.5,0.3,0.6H36.3c0.2-0.1,0.3-0.4,0.3-0.6c0-0.5-0.4-0.9-0.9-0.9
		c-0.6,0-1,0.5-1,1c0,0.7,0.5,1.2,1.2,1.2H36h167.5c0.5,0,1-0.6,1-1.2C204.5,140.8,204,140.4,203.5,140.4z"/>
	<path d="M102.7,143.8c0-0.2-0.2-0.4-0.4-0.4c-0.2,0-0.4,0.2-0.4,0.4c0,0.2,0.2,0.4,0.4,0.4C102.5,144.2,102.7,144,102.7,143.8z"/>
	<path d="M100.9,143.8c0-0.2-0.2-0.4-0.4-0.4c-0.2,0-0.4,0.2-0.4,0.4c0,0.2,0.2,0.4,0.4,0.4C100.7,144.2,100.9,144,100.9,143.8z"/>
	<path d="M99.1,143.8c0-0.2-0.2-0.4-0.4-0.4c-0.2,0-0.4,0.2-0.4,0.4c0,0.2,0.2,0.4,0.4,0.4C98.9,144.2,99.1,144,99.1,143.8z"/>
	<path d="M104.4,143.8c0-0.2-0.2-0.4-0.4-0.4s-0.4,0.2-0.4,0.4c0,0.2,0.2,0.4,0.4,0.4C104.3,144.2,104.4,144,104.4,143.8z"/>
	<path d="M106.2,143.8c0-0.2-0.2-0.4-0.4-0.4s-0.4,0.2-0.4,0.4c0,0.2,0.2,0.4,0.4,0.4C106.1,144.2,106.2,144,106.2,143.8z"/>
	<path d="M97.4,143.8c0-0.2-0.2-0.4-0.4-0.4c-0.2,0-0.4,0.2-0.4,0.4c0,0.2,0.2,0.4,0.4,0.4C97.2,144.2,97.4,144,97.4,143.8z"/>
	<path d="M92,143.8c0-0.2-0.2-0.4-0.4-0.4c-0.2,0-0.4,0.2-0.4,0.4c0,0.2,0.2,0.4,0.4,0.4C91.8,144.2,92,144,92,143.8z"/>
	<path d="M90.2,143.8c0-0.2-0.2-0.4-0.4-0.4s-0.4,0.2-0.4,0.4c0,0.2,0.2,0.4,0.4,0.4C90.1,144.2,90.2,144,90.2,143.8z"/>
	<path d="M88.4,143.8c0-0.2-0.2-0.4-0.4-0.4s-0.4,0.2-0.4,0.4c0,0.2,0.2,0.4,0.4,0.4C88.3,144.2,88.4,144,88.4,143.8z"/>
	<path d="M86.7,143.8c0-0.2-0.2-0.4-0.4-0.4s-0.4,0.2-0.4,0.4c0,0.2,0.2,0.4,0.4,0.4S86.7,144,86.7,143.8z"/>
	<path d="M95.6,143.8c0-0.2-0.2-0.4-0.4-0.4s-0.4,0.2-0.4,0.4c0,0.2,0.2,0.4,0.4,0.4S95.6,144,95.6,143.8z"/>
	<path d="M108,143.8c0-0.2-0.2-0.4-0.4-0.4c-0.2,0-0.4,0.2-0.4,0.4c0,0.2,0.2,0.4,0.4,0.4C107.8,144.2,108,144,108,143.8z"/>
	<path d="M93.8,143.8c0-0.2-0.2-0.4-0.4-0.4s-0.4,0.2-0.4,0.4c0,0.2,0.2,0.4,0.4,0.4C93.6,144.2,93.8,144,93.8,143.8z"/>
	<path d="M203.9,143.8c0-0.2-0.2-0.4-0.4-0.4c-0.2,0-0.4,0.2-0.4,0.4c0,0.2,0.2,0.4,0.4,0.4C203.7,144.2,203.9,144,203.9,143.8z"/>
	<path d="M36.9,143.8c0-0.2-0.2-0.4-0.4-0.4s-0.4,0.2-0.4,0.4c0,0.2,0.2,0.4,0.4,0.4S36.9,144,36.9,143.8z"/>
	<path d="M164.8,143.8c0-0.2-0.2-0.4-0.4-0.4s-0.4,0.2-0.4,0.4c0,0.2,0.2,0.4,0.4,0.4S164.8,144,164.8,143.8z"/>
	<path d="M163,143.8c0-0.2-0.2-0.4-0.4-0.4c-0.2,0-0.4,0.2-0.4,0.4c0,0.2,0.2,0.4,0.4,0.4C162.8,144.2,163,144,163,143.8z"/>
	<path d="M84.9,143.8c0-0.2-0.2-0.4-0.4-0.4s-0.4,0.2-0.4,0.4c0,0.2,0.2,0.4,0.4,0.4S84.9,144,84.9,143.8z"/>
	<path d="M202.1,143.8c0-0.2-0.2-0.4-0.4-0.4s-0.4,0.2-0.4,0.4c0,0.2,0.2,0.4,0.4,0.4S202.1,144,202.1,143.8z"/>
	<path d="M111.6,143.8c0-0.2-0.2-0.4-0.4-0.4s-0.4,0.2-0.4,0.4c0,0.2,0.2,0.4,0.4,0.4S111.6,144,111.6,143.8z"/>
	<path d="M113.3,143.8c0-0.2-0.2-0.4-0.4-0.4s-0.4,0.2-0.4,0.4c0,0.2,0.2,0.4,0.4,0.4C113.2,144.2,113.3,144,113.3,143.8z"/>
	<path d="M115.1,143.8c0-0.2-0.2-0.4-0.4-0.4s-0.4,0.2-0.4,0.4c0,0.2,0.2,0.4,0.4,0.4S115.1,144,115.1,143.8z"/>
	<path d="M109.8,143.8c0-0.2-0.2-0.4-0.4-0.4s-0.4,0.2-0.4,0.4c0,0.2,0.2,0.4,0.4,0.4C109.6,144.2,109.8,144,109.8,143.8z"/>
	<path d="M116.9,143.8c0-0.2-0.2-0.4-0.4-0.4s-0.4,0.2-0.4,0.4c0,0.2,0.2,0.4,0.4,0.4S116.9,144,116.9,143.8z"/>
	<path d="M120.4,143.8c0-0.2-0.2-0.4-0.4-0.4s-0.4,0.2-0.4,0.4c0,0.2,0.2,0.4,0.4,0.4C120.3,144.2,120.4,144,120.4,143.8z"/>
	<path d="M118.7,143.8c0-0.2-0.2-0.4-0.4-0.4s-0.4,0.2-0.4,0.4c0,0.2,0.2,0.4,0.4,0.4S118.7,144,118.7,143.8z"/>
	<path d="M122.2,143.8c0-0.2-0.2-0.4-0.4-0.4s-0.4,0.2-0.4,0.4c0,0.2,0.2,0.4,0.4,0.4C122.1,144.2,122.2,144,122.2,143.8z"/>
	<path d="M54.7,143.8c0-0.2-0.2-0.4-0.4-0.4c-0.2,0-0.4,0.2-0.4,0.4c0,0.2,0.2,0.4,0.4,0.4C54.5,144.2,54.7,144,54.7,143.8z"/>
	<path d="M52.9,143.8c0-0.2-0.2-0.4-0.4-0.4s-0.4,0.2-0.4,0.4c0,0.2,0.2,0.4,0.4,0.4S52.9,144,52.9,143.8z"/>
	<path d="M51.1,143.8c0-0.2-0.2-0.4-0.4-0.4s-0.4,0.2-0.4,0.4c0,0.2,0.2,0.4,0.4,0.4S51.1,144,51.1,143.8z"/>
	<path d="M60,143.8c0-0.2-0.2-0.4-0.4-0.4c-0.2,0-0.4,0.2-0.4,0.4c0,0.2,0.2,0.4,0.4,0.4C59.8,144.2,60,144,60,143.8z"/>
	<path d="M56.5,143.8c0-0.2-0.2-0.4-0.4-0.4c-0.2,0-0.4,0.2-0.4,0.4c0,0.2,0.2,0.4,0.4,0.4C56.3,144.2,56.5,144,56.5,143.8z"/>
	<path d="M49.3,143.8c0-0.2-0.2-0.4-0.4-0.4c-0.2,0-0.4,0.2-0.4,0.4c0,0.2,0.2,0.4,0.4,0.4C49.2,144.2,49.3,144,49.3,143.8z"/>
	<path d="M58.2,143.8c0-0.2-0.2-0.4-0.4-0.4s-0.4,0.2-0.4,0.4c0,0.2,0.2,0.4,0.4,0.4C58.1,144.2,58.2,144,58.2,143.8z"/>
	<path d="M42.2,143.8c0-0.2-0.2-0.4-0.4-0.4s-0.4,0.2-0.4,0.4c0,0.2,0.2,0.4,0.4,0.4C42.1,144.2,42.2,144,42.2,143.8z"/>
	<path d="M40.4,143.8c0-0.2-0.2-0.4-0.4-0.4s-0.4,0.2-0.4,0.4c0,0.2,0.2,0.4,0.4,0.4C40.3,144.2,40.4,144,40.4,143.8z"/>
	<path d="M47.6,143.8c0-0.2-0.2-0.4-0.4-0.4c-0.2,0-0.4,0.2-0.4,0.4c0,0.2,0.2,0.4,0.4,0.4C47.4,144.2,47.6,144,47.6,143.8z"/>
	<path d="M38.7,143.8c0-0.2-0.2-0.4-0.4-0.4s-0.4,0.2-0.4,0.4c0,0.2,0.2,0.4,0.4,0.4S38.7,144,38.7,143.8z"/>
	<path d="M45.8,143.8c0-0.2-0.2-0.4-0.4-0.4c-0.2,0-0.4,0.2-0.4,0.4c0,0.2,0.2,0.4,0.4,0.4C45.6,144.2,45.8,144,45.8,143.8z"/>
	<path d="M83.1,143.8c0-0.2-0.2-0.4-0.4-0.4c-0.2,0-0.4,0.2-0.4,0.4c0,0.2,0.2,0.4,0.4,0.4C82.9,144.2,83.1,144,83.1,143.8z"/>
	<path d="M44,143.8c0-0.2-0.2-0.4-0.4-0.4c-0.2,0-0.4,0.2-0.4,0.4c0,0.2,0.2,0.4,0.4,0.4C43.8,144.2,44,144,44,143.8z"/>
	<path d="M76,143.8c0-0.2-0.2-0.4-0.4-0.4c-0.2,0-0.4,0.2-0.4,0.4c0,0.2,0.2,0.4,0.4,0.4C75.8,144.2,76,144,76,143.8z"/>
	<path d="M72.5,143.8c0-0.2-0.2-0.4-0.4-0.4c-0.2,0-0.4,0.2-0.4,0.4c0,0.2,0.2,0.4,0.4,0.4C72.3,144.2,72.5,144,72.5,143.8z"/>
	<path d="M74.2,143.8c0-0.2-0.2-0.4-0.4-0.4c-0.2,0-0.4,0.2-0.4,0.4c0,0.2,0.2,0.4,0.4,0.4C74,144.2,74.2,144,74.2,143.8z"/>
	<path d="M77.8,143.8c0-0.2-0.2-0.4-0.4-0.4s-0.4,0.2-0.4,0.4c0,0.2,0.2,0.4,0.4,0.4C77.6,144.2,77.8,144,77.8,143.8z"/>
	<path d="M79.6,143.8c0-0.2-0.2-0.4-0.4-0.4s-0.4,0.2-0.4,0.4c0,0.2,0.2,0.4,0.4,0.4S79.6,144,79.6,143.8z"/>
	<path d="M81.3,143.8c0-0.2-0.2-0.4-0.4-0.4s-0.4,0.2-0.4,0.4c0,0.2,0.2,0.4,0.4,0.4C81.2,144.2,81.3,144,81.3,143.8z"/>
	<path d="M68.9,143.8c0-0.2-0.2-0.4-0.4-0.4s-0.4,0.2-0.4,0.4c0,0.2,0.2,0.4,0.4,0.4S68.9,144,68.9,143.8z"/>
	<path d="M65.4,143.8c0-0.2-0.2-0.4-0.4-0.4c-0.2,0-0.4,0.2-0.4,0.4c0,0.2,0.2,0.4,0.4,0.4C65.2,144.2,65.4,144,65.4,143.8z"/>
	<path d="M63.6,143.8c0-0.2-0.2-0.4-0.4-0.4c-0.2,0-0.4,0.2-0.4,0.4c0,0.2,0.2,0.4,0.4,0.4C63.4,144.2,63.6,144,63.6,143.8z"/>
	<path d="M70.7,143.8c0-0.2-0.2-0.4-0.4-0.4s-0.4,0.2-0.4,0.4c0,0.2,0.2,0.4,0.4,0.4S70.7,144,70.7,143.8z"/>
	<path d="M61.8,143.8c0-0.2-0.2-0.4-0.4-0.4c-0.2,0-0.4,0.2-0.4,0.4c0,0.2,0.2,0.4,0.4,0.4C61.6,144.2,61.8,144,61.8,143.8z"/>
	<path d="M67.1,143.8c0-0.2-0.2-0.4-0.4-0.4s-0.4,0.2-0.4,0.4c0,0.2,0.2,0.4,0.4,0.4S67.1,144,67.1,143.8z"/>
	<path d="M140,143.8c0-0.2-0.2-0.4-0.4-0.4c-0.2,0-0.4,0.2-0.4,0.4c0,0.2,0.2,0.4,0.4,0.4C139.8,144.2,140,144,140,143.8z"/>
	<path d="M138.2,143.8c0-0.2-0.2-0.4-0.4-0.4c-0.2,0-0.4,0.2-0.4,0.4c0,0.2,0.2,0.4,0.4,0.4C138,144.2,138.2,144,138.2,143.8z"/>
	<path d="M136.5,143.8c0-0.2-0.2-0.4-0.4-0.4c-0.2,0-0.4,0.2-0.4,0.4c0,0.2,0.2,0.4,0.4,0.4C136.3,144.2,136.5,144,136.5,143.8z"/>
	<path d="M141.8,143.8c0-0.2-0.2-0.4-0.4-0.4s-0.4,0.2-0.4,0.4c0,0.2,0.2,0.4,0.4,0.4S141.8,144,141.8,143.8z"/>
	<path d="M143.6,143.8c0-0.2-0.2-0.4-0.4-0.4s-0.4,0.2-0.4,0.4c0,0.2,0.2,0.4,0.4,0.4S143.6,144,143.6,143.8z"/>
	<path d="M134.7,143.8c0-0.2-0.2-0.4-0.4-0.4c-0.2,0-0.4,0.2-0.4,0.4c0,0.2,0.2,0.4,0.4,0.4C134.5,144.2,134.7,144,134.7,143.8z"/>
	<path d="M129.3,143.8c0-0.2-0.2-0.4-0.4-0.4s-0.4,0.2-0.4,0.4c0,0.2,0.2,0.4,0.4,0.4C129.2,144.2,129.3,144,129.3,143.8z"/>
	<path d="M127.6,143.8c0-0.2-0.2-0.4-0.4-0.4s-0.4,0.2-0.4,0.4c0,0.2,0.2,0.4,0.4,0.4S127.6,144,127.6,143.8z"/>
	<path d="M125.8,143.8c0-0.2-0.2-0.4-0.4-0.4s-0.4,0.2-0.4,0.4c0,0.2,0.2,0.4,0.4,0.4C125.6,144.2,125.8,144,125.8,143.8z"/>
	<path d="M124,143.8c0-0.2-0.2-0.4-0.4-0.4c-0.2,0-0.4,0.2-0.4,0.4c0,0.2,0.2,0.4,0.4,0.4C123.8,144.2,124,144,124,143.8z"/>
	<path d="M132.9,143.8c0-0.2-0.2-0.4-0.4-0.4s-0.4,0.2-0.4,0.4c0,0.2,0.2,0.4,0.4,0.4S132.9,144,132.9,143.8z"/>
	<path d="M145.3,143.8c0-0.2-0.2-0.4-0.4-0.4s-0.4,0.2-0.4,0.4c0,0.2,0.2,0.4,0.4,0.4C145.2,144.2,145.3,144,145.3,143.8z"/>
	<path d="M131.1,143.8c0-0.2-0.2-0.4-0.4-0.4s-0.4,0.2-0.4,0.4c0,0.2,0.2,0.4,0.4,0.4S131.1,144,131.1,143.8z"/>
	<path d="M148.9,143.8c0-0.2-0.2-0.4-0.4-0.4s-0.4,0.2-0.4,0.4c0,0.2,0.2,0.4,0.4,0.4S148.9,144,148.9,143.8z"/>
	<path d="M150.7,143.8c0-0.2-0.2-0.4-0.4-0.4c-0.2,0-0.4,0.2-0.4,0.4c0,0.2,0.2,0.4,0.4,0.4C150.5,144.2,150.7,144,150.7,143.8z"/>
	<path d="M152.4,143.8c0-0.2-0.2-0.4-0.4-0.4s-0.4,0.2-0.4,0.4c0,0.2,0.2,0.4,0.4,0.4C152.3,144.2,152.4,144,152.4,143.8z"/>
	<path d="M147.1,143.8c0-0.2-0.2-0.4-0.4-0.4s-0.4,0.2-0.4,0.4c0,0.2,0.2,0.4,0.4,0.4S147.1,144,147.1,143.8z"/>
	<path d="M154.2,143.8c0-0.2-0.2-0.4-0.4-0.4c-0.2,0-0.4,0.2-0.4,0.4c0,0.2,0.2,0.4,0.4,0.4C154.1,144.2,154.2,144,154.2,143.8z"/>
	<path d="M157.8,143.8c0-0.2-0.2-0.4-0.4-0.4s-0.4,0.2-0.4,0.4c0,0.2,0.2,0.4,0.4,0.4S157.8,144,157.8,143.8z"/>
	<path d="M156,143.8c0-0.2-0.2-0.4-0.4-0.4c-0.2,0-0.4,0.2-0.4,0.4c0,0.2,0.2,0.4,0.4,0.4C155.8,144.2,156,144,156,143.8z"/>
	<path d="M159.6,143.8c0-0.2-0.2-0.4-0.4-0.4s-0.4,0.2-0.4,0.4c0,0.2,0.2,0.4,0.4,0.4S159.6,144,159.6,143.8z"/>
	<path d="M161.3,143.8c0-0.2-0.2-0.4-0.4-0.4s-0.4,0.2-0.4,0.4c0,0.2,0.2,0.4,0.4,0.4C161.2,144.2,161.3,144,161.3,143.8z"/>
	<path d="M179,143.8c0-0.2-0.2-0.4-0.4-0.4c-0.2,0-0.4,0.2-0.4,0.4c0,0.2,0.2,0.4,0.4,0.4C178.8,144.2,179,144,179,143.8z"/>
	<path d="M177.2,143.8c0-0.2-0.2-0.4-0.4-0.4c-0.2,0-0.4,0.2-0.4,0.4c0,0.2,0.2,0.4,0.4,0.4C177,144.2,177.2,144,177.2,143.8z"/>
	<path d="M175.5,143.8c0-0.2-0.2-0.4-0.4-0.4c-0.2,0-0.4,0.2-0.4,0.4c0,0.2,0.2,0.4,0.4,0.4C175.3,144.2,175.5,144,175.5,143.8z"/>
	<path d="M180.8,143.8c0-0.2-0.2-0.4-0.4-0.4s-0.4,0.2-0.4,0.4c0,0.2,0.2,0.4,0.4,0.4S180.8,144,180.8,143.8z"/>
	<path d="M182.6,143.8c0-0.2-0.2-0.4-0.4-0.4s-0.4,0.2-0.4,0.4c0,0.2,0.2,0.4,0.4,0.4S182.6,144,182.6,143.8z"/>
	<path d="M173.7,143.8c0-0.2-0.2-0.4-0.4-0.4c-0.2,0-0.4,0.2-0.4,0.4c0,0.2,0.2,0.4,0.4,0.4C173.5,144.2,173.7,144,173.7,143.8z"/>
	<path d="M168.3,143.8c0-0.2-0.2-0.4-0.4-0.4s-0.4,0.2-0.4,0.4c0,0.2,0.2,0.4,0.4,0.4C168.2,144.2,168.3,144,168.3,143.8z"/>
	<path d="M166.6,143.8c0-0.2-0.2-0.4-0.4-0.4s-0.4,0.2-0.4,0.4c0,0.2,0.2,0.4,0.4,0.4S166.6,144,166.6,143.8z"/>
	<path d="M171.9,143.8c0-0.2-0.2-0.4-0.4-0.4s-0.4,0.2-0.4,0.4c0,0.2,0.2,0.4,0.4,0.4S171.9,144,171.9,143.8z"/>
	<path d="M184.3,143.8c0-0.2-0.2-0.4-0.4-0.4s-0.4,0.2-0.4,0.4c0,0.2,0.2,0.4,0.4,0.4C184.2,144.2,184.3,144,184.3,143.8z"/>
	<path d="M170.1,143.8c0-0.2-0.2-0.4-0.4-0.4s-0.4,0.2-0.4,0.4c0,0.2,0.2,0.4,0.4,0.4S170.1,144,170.1,143.8z"/>
	<path d="M187.9,143.8c0-0.2-0.2-0.4-0.4-0.4s-0.4,0.2-0.4,0.4c0,0.2,0.2,0.4,0.4,0.4S187.9,144,187.9,143.8z"/>
	<path d="M189.7,143.8c0-0.2-0.2-0.4-0.4-0.4c-0.2,0-0.4,0.2-0.4,0.4c0,0.2,0.2,0.4,0.4,0.4C189.5,144.2,189.7,144,189.7,143.8z"/>
	<path d="M191.4,143.8c0-0.2-0.2-0.4-0.4-0.4s-0.4,0.2-0.4,0.4c0,0.2,0.2,0.4,0.4,0.4C191.3,144.2,191.4,144,191.4,143.8z"/>
	<path d="M186.1,143.8c0-0.2-0.2-0.4-0.4-0.4s-0.4,0.2-0.4,0.4c0,0.2,0.2,0.4,0.4,0.4S186.1,144,186.1,143.8z"/>
	<path d="M193.2,143.8c0-0.2-0.2-0.4-0.4-0.4c-0.2,0-0.4,0.2-0.4,0.4c0,0.2,0.2,0.4,0.4,0.4C193.1,144.2,193.2,144,193.2,143.8z"/>
	<path d="M196.8,143.8c0-0.2-0.2-0.4-0.4-0.4s-0.4,0.2-0.4,0.4c0,0.2,0.2,0.4,0.4,0.4S196.8,144,196.8,143.8z"/>
	<path d="M195,143.8c0-0.2-0.2-0.4-0.4-0.4c-0.2,0-0.4,0.2-0.4,0.4c0,0.2,0.2,0.4,0.4,0.4C194.8,144.2,195,144,195,143.8z"/>
	<path d="M198.6,143.8c0-0.2-0.2-0.4-0.4-0.4s-0.4,0.2-0.4,0.4c0,0.2,0.2,0.4,0.4,0.4S198.6,144,198.6,143.8z"/>
	<path d="M200.3,143.8c0-0.2-0.2-0.4-0.4-0.4s-0.4,0.2-0.4,0.4c0,0.2,0.2,0.4,0.4,0.4C200.2,144.2,200.3,144,200.3,143.8z"/>
	<path d="M235.6,37.6c0.5,0,0.9-0.4,0.9-0.9c0-0.6-0.5-1-1-1c-0.7,0-1.2,0.6-1.2,1.2v75.6c0,0.5,0.8,0.9,1.2,0.9c0.6,0,1-0.5,1-1
		s-0.4-0.9-0.9-0.9c-0.3,0-0.5,0.1-0.6,0.3V37.3C235.1,37.5,235.4,37.6,235.6,37.6z"/>
	<path d="M230.9,111.5c-0.5,0-0.9,0.4-0.9,0.9c0,0.6,0.5,1,1,1c0.4,0,1.2-0.4,1.2-0.9V37v-0.1c0-0.6-0.6-1.2-1.2-1.2s-1,0.5-1,1
		s0.4,0.9,0.9,0.9c0.3,0,0.5-0.1,0.6-0.3v74.5C231.4,111.6,231.1,111.5,230.9,111.5z"/>
	<path d="M233.1,37.1c0.1,0,0.2,0,0.3-0.1c0.2-0.2,0.2-0.4,0-0.6c-0.1-0.1-0.2-0.1-0.3-0.1c-0.1,0-0.2,0-0.3,0.1
		c-0.1,0.1-0.1,0.2-0.1,0.3c0,0.1,0,0.2,0.1,0.3C232.9,37.1,233,37.1,233.1,37.1z"/>
	<path d="M233.2,99.4c-0.2,0-0.4,0.2-0.4,0.4s0.2,0.4,0.4,0.4s0.4-0.2,0.4-0.4C233.6,99.6,233.4,99.4,233.2,99.4z"/>
	<path d="M233.2,101.2c-0.2,0-0.4,0.2-0.4,0.4c0,0.2,0.2,0.4,0.4,0.4c0.2,0,0.4-0.2,0.4-0.4C233.6,101.4,233.4,101.2,233.2,101.2z"
		/>
	<path d="M233.2,104.9c-0.2,0-0.4,0.2-0.4,0.4c0,0.2,0.2,0.4,0.4,0.4c0.2,0,0.4-0.2,0.4-0.4C233.6,105.1,233.4,104.9,233.2,104.9z"
		/>
	<path d="M233.2,110.3c-0.2,0-0.4,0.2-0.4,0.4s0.2,0.4,0.4,0.4s0.4-0.2,0.4-0.4C233.6,110.5,233.4,110.3,233.2,110.3z"/>
	<path d="M233.2,106.7c-0.2,0-0.4,0.2-0.4,0.4c0,0.2,0.2,0.4,0.4,0.4s0.4-0.2,0.4-0.4C233.6,106.8,233.4,106.7,233.2,106.7z"/>
	<path d="M233.2,108.5c-0.2,0-0.4,0.2-0.4,0.4c0,0.2,0.2,0.4,0.4,0.4c0.2,0,0.4-0.2,0.4-0.4C233.6,108.7,233.4,108.5,233.2,108.5z"
		/>
	<path d="M233.2,97.6c-0.2,0-0.4,0.2-0.4,0.4s0.2,0.4,0.4,0.4s0.4-0.2,0.4-0.4C233.6,97.8,233.4,97.6,233.2,97.6z"/>
	<path d="M233.2,88.6c-0.2,0-0.4,0.2-0.4,0.4c0,0.2,0.2,0.4,0.4,0.4c0.2,0,0.4-0.2,0.4-0.4C233.6,88.8,233.4,88.6,233.2,88.6z"/>
	<path d="M233.2,92.2c-0.2,0-0.4,0.2-0.4,0.4c0,0.2,0.2,0.4,0.4,0.4s0.4-0.2,0.4-0.4C233.6,92.4,233.4,92.2,233.2,92.2z"/>
	<path d="M233.2,90.4c-0.2,0-0.4,0.2-0.4,0.4s0.2,0.4,0.4,0.4s0.4-0.2,0.4-0.4C233.6,90.6,233.4,90.4,233.2,90.4z"/>
	<path d="M233.2,95.8c-0.2,0-0.4,0.2-0.4,0.4s0.2,0.4,0.4,0.4s0.4-0.2,0.4-0.4C233.6,96,233.4,95.8,233.2,95.8z"/>
	<path d="M233.2,94c-0.2,0-0.4,0.2-0.4,0.4c0,0.2,0.2,0.4,0.4,0.4c0.2,0,0.4-0.2,0.4-0.4C233.6,94.2,233.4,94,233.2,94z"/>
	<path d="M233.2,103.1c-0.2,0-0.4,0.2-0.4,0.4s0.2,0.4,0.4,0.4s0.4-0.2,0.4-0.4C233.6,103.2,233.4,103.1,233.2,103.1z"/>
	<path d="M233.2,70.5c-0.2,0-0.4,0.2-0.4,0.4c0,0.2,0.2,0.4,0.4,0.4c0.2,0,0.4-0.2,0.4-0.4C233.6,70.7,233.4,70.5,233.2,70.5z"/>
	<path d="M233.2,74.1c-0.2,0-0.4,0.2-0.4,0.4c0,0.2,0.2,0.4,0.4,0.4c0.2,0,0.4-0.2,0.4-0.4C233.6,74.3,233.4,74.1,233.2,74.1z"/>
	<path d="M233.2,68.7c-0.2,0-0.4,0.2-0.4,0.4c0,0.2,0.2,0.4,0.4,0.4c0.2,0,0.4-0.2,0.4-0.4C233.6,68.9,233.4,68.7,233.2,68.7z"/>
	<path d="M233.2,86.8c-0.2,0-0.4,0.2-0.4,0.4c0,0.2,0.2,0.4,0.4,0.4c0.2,0,0.4-0.2,0.4-0.4C233.6,87,233.4,86.8,233.2,86.8z"/>
	<path d="M233.2,66.9c-0.2,0-0.4,0.2-0.4,0.4c0,0.2,0.2,0.4,0.4,0.4c0.2,0,0.4-0.2,0.4-0.4C233.6,67.1,233.4,66.9,233.2,66.9z"/>
	<path d="M233.2,38.1c-0.2,0-0.4,0.2-0.4,0.4s0.2,0.4,0.4,0.4s0.4-0.2,0.4-0.4C233.6,38.3,233.4,38.1,233.2,38.1z"/>
	<path d="M233.2,72.3c-0.2,0-0.4,0.2-0.4,0.4c0,0.2,0.2,0.4,0.4,0.4c0.2,0,0.4-0.2,0.4-0.4C233.6,72.5,233.4,72.3,233.2,72.3z"/>
	<path d="M233.2,75.9c-0.2,0-0.4,0.2-0.4,0.4c0,0.2,0.2,0.4,0.4,0.4c0.2,0,0.4-0.2,0.4-0.4C233.6,76.1,233.4,75.9,233.2,75.9z"/>
	<path d="M233.2,83.2c-0.2,0-0.4,0.2-0.4,0.4c0,0.2,0.2,0.4,0.4,0.4c0.2,0,0.4-0.2,0.4-0.4C233.6,83.4,233.4,83.2,233.2,83.2z"/>
	<path d="M233.2,85c-0.2,0-0.4,0.2-0.4,0.4c0,0.2,0.2,0.4,0.4,0.4c0.2,0,0.4-0.2,0.4-0.4C233.6,85.2,233.4,85,233.2,85z"/>
	<path d="M233.2,81.4c-0.2,0-0.4,0.2-0.4,0.4c0,0.2,0.2,0.4,0.4,0.4c0.2,0,0.4-0.2,0.4-0.4C233.6,81.6,233.4,81.4,233.2,81.4z"/>
	<path d="M233.2,77.7c-0.2,0-0.4,0.2-0.4,0.4c0,0.2,0.2,0.4,0.4,0.4c0.2,0,0.4-0.2,0.4-0.4C233.6,77.9,233.4,77.7,233.2,77.7z"/>
	<path d="M233.2,79.6c-0.2,0-0.4,0.2-0.4,0.4c0,0.2,0.2,0.4,0.4,0.4c0.2,0,0.4-0.2,0.4-0.4C233.6,79.8,233.4,79.6,233.2,79.6z"/>
	<path d="M232.8,112.8c0.1,0.1,0.2,0.1,0.3,0.1c0.1,0,0.2,0,0.3-0.1c0.2-0.2,0.2-0.4,0-0.6c-0.1-0.1-0.2-0.1-0.3-0.1
		c-0.1,0-0.2,0-0.3,0.1c-0.1,0.1-0.1,0.2-0.1,0.3S232.7,112.7,232.8,112.8z"/>
	<path d="M233.2,65.1c-0.2,0-0.4,0.2-0.4,0.4s0.2,0.4,0.4,0.4s0.4-0.2,0.4-0.4C233.6,65.3,233.4,65.1,233.2,65.1z"/>
	<path d="M233.2,63.3c-0.2,0-0.4,0.2-0.4,0.4s0.2,0.4,0.4,0.4s0.4-0.2,0.4-0.4C233.6,63.5,233.4,63.3,233.2,63.3z"/>
	<path d="M233.2,54.3c-0.2,0-0.4,0.2-0.4,0.4c0,0.2,0.2,0.4,0.4,0.4c0.2,0,0.4-0.2,0.4-0.4C233.6,54.5,233.4,54.3,233.2,54.3z"/>
	<path d="M233.2,57.9c-0.2,0-0.4,0.2-0.4,0.4s0.2,0.4,0.4,0.4s0.4-0.2,0.4-0.4C233.6,58.1,233.4,57.9,233.2,57.9z"/>
	<path d="M233.2,56.1c-0.2,0-0.4,0.2-0.4,0.4s0.2,0.4,0.4,0.4s0.4-0.2,0.4-0.4C233.6,56.3,233.4,56.1,233.2,56.1z"/>
	<path d="M233.2,61.5c-0.2,0-0.4,0.2-0.4,0.4c0,0.2,0.2,0.4,0.4,0.4s0.4-0.2,0.4-0.4C233.6,61.7,233.4,61.5,233.2,61.5z"/>
	<path d="M233.2,59.7c-0.2,0-0.4,0.2-0.4,0.4c0,0.2,0.2,0.4,0.4,0.4c0.2,0,0.4-0.2,0.4-0.4C233.6,59.9,233.4,59.7,233.2,59.7z"/>
	<path d="M233.2,39.8c-0.2,0-0.4,0.2-0.4,0.4c0,0.2,0.2,0.4,0.4,0.4c0.2,0,0.4-0.2,0.4-0.4C233.6,40,233.4,39.8,233.2,39.8z"/>
	<path d="M233.2,52.5c-0.2,0-0.4,0.2-0.4,0.4c0,0.2,0.2,0.4,0.4,0.4c0.2,0,0.4-0.2,0.4-0.4C233.6,52.7,233.4,52.5,233.2,52.5z"/>
	<path d="M233.2,41.6c-0.2,0-0.4,0.2-0.4,0.4s0.2,0.4,0.4,0.4c0.2,0,0.4-0.2,0.4-0.4S233.4,41.6,233.2,41.6z"/>
	<path d="M233.2,48.8c-0.2,0-0.4,0.2-0.4,0.4c0,0.2,0.2,0.4,0.4,0.4c0.2,0,0.4-0.2,0.4-0.4C233.6,49,233.4,48.8,233.2,48.8z"/>
	<path d="M233.2,50.6c-0.2,0-0.4,0.2-0.4,0.4s0.2,0.4,0.4,0.4c0.2,0,0.4-0.2,0.4-0.4S233.4,50.6,233.2,50.6z"/>
	<path d="M233.2,47c-0.2,0-0.4,0.2-0.4,0.4c0,0.2,0.2,0.4,0.4,0.4c0.2,0,0.4-0.2,0.4-0.4C233.6,47.2,233.4,47,233.2,47z"/>
	<path d="M233.2,43.4c-0.2,0-0.4,0.2-0.4,0.4c0,0.2,0.2,0.4,0.4,0.4c0.2,0,0.4-0.2,0.4-0.4C233.6,43.6,233.4,43.4,233.2,43.4z"/>
	<path d="M233.2,45.2c-0.2,0-0.4,0.2-0.4,0.4c0,0.2,0.2,0.4,0.4,0.4c0.2,0,0.4-0.2,0.4-0.4C233.6,45.4,233.4,45.2,233.2,45.2z"/>
	<path d="M160,64.4c-0.1-0.3-0.1-0.7-0.3-1c-0.5-0.8-0.4-1.9-0.9-2.8c-0.5-1.4-1.3-2.7-1.8-4.1c-0.3-0.7-0.9-1.3-1.1-2.1
		c-0.3-1-0.9-1.7-1.4-2.5c-0.3-0.5-0.9-0.8-0.8-1.4c-0.4-0.2-0.8-0.5-1-0.9c0-0.2,0.1-0.3,0.1-0.5c-0.1,0-0.3,0.1-0.4,0.1
		c-0.4-0.8-1.2-1.4-1.7-2.1c-0.4-0.6-1-1-1.4-1.5c-1.3-1.4-3-2.6-4.4-3.9c-0.5-0.4-1-0.6-1.5-0.9c-0.7-0.5-1.5-1.1-2.4-1.4
		c0-0.1-0.1-0.3-0.1-0.4c-1.4-0.8-2.9-1.6-4.4-2.3c-0.7-0.4-1.5-0.4-2.2-0.8c-0.7-0.4-1.6-0.3-2.3-0.6c-1.5-0.4-3-0.9-4.6-1.1
		c-1.5-0.4-3.1-0.4-4.7-0.6c-1.2-0.1-2.3,0.1-3.4-0.1c-0.8-0.2-1.5,0-2.3,0.1c-1.2,0.1-2.5,0.2-4,0.9c-1.1,0.1-2.2,0.4-3.3,0.5
		c-1,0.5-2.3,0.6-3.4,1.1c-0.7,0.3-1.5,0.4-2.2,0.8c-0.7,0.4-1.6,0.7-2.4,1c-1,0.3-1.6,1.4-2.7,1.6c-0.1,0-0.1,0.1-0.1,0.2
		c-1.1,0.4-2,1.4-3.1,1.9c-1,0.4-1.9,1.1-2.7,1.8c-0.6,0.6-1.4,1-1.9,1.6c-0.3,0.3-0.6,0.6-0.9,0.8c-0.2,0.3-0.4,0.6-0.8,0.8
		c-0.1,0.1-0.1,0.3-0.2,0.4c-0.6,0.4-1,1.1-1.5,1.6c-1.2,1.4-2.3,2.8-3.3,4.2c-0.5,0.8-1,1.7-1.5,2.5c-0.3,0.7-0.6,1.5-0.9,2.2
		c-0.2,0.7-0.9,1.2-0.7,2c-0.6,0.8-0.7,2-1.1,2.9c-0.4,0.9-0.6,1.9-0.9,2.9c0,0.8-0.2,1.6-0.4,2.3c-0.1,0-0.2,0-0.3,0
		c-0.4,1.4-0.6,2.8-0.6,4.3c-0.2,1.9-0.1,3.9-0.1,5.8c0.1,2.6,0.5,5.3,1.3,7.8c0.3,1.4,0.7,2.8,1.2,4.1c0.4,0.7,0.5,1.5,0.8,2.2
		c0.3,0.6,0.3,1.3,0.7,1.9c1,1.5,1.6,3.3,2.9,4.6c0.6,0.6,0.9,1.4,1.5,2c0.7,0.7,0.9,1.7,1.8,2.1c0,0.1,0,0.2,0,0.3
		c0.5,0.4,0.7,0.9,1.1,1.4c1.5,1.4,2.9,2.9,4.6,4.1c0.4,0.3,0.8,0.6,1.1,1c0.5-0.1,1,0.1,1.2,0.6c0.2,0,0.4,0.1,0.6,0.1
		c0.2,0.5,0.8,0.7,1.2,0.9c0.5,0.3,0.9,0.8,1.4,1.1c1.7,0.9,3.5,1.9,5.3,2.5c1.2,0.4,2.4,1.1,3.7,1.2c0.8,0.1,1.5,0.5,2.3,0.6
		c1,0.1,2,0.5,3.1,0.5c3.6,0.2,7.3,0.3,10.9,0.1c1.1,0,2.2-0.3,3.3-0.5c1.2-0.2,2.4-0.5,3.6-0.9c0.9-0.4,1.8-0.6,2.6-1
		c0.6-0.3,1.5-0.2,2-0.8c0.6,0,1.1-0.4,1.5-0.8c0.1,0,0.3,0,0.4,0c0.3-0.2,0.7-0.5,1.1-0.6c0.9-0.3,1.6-0.8,2.3-1.4
		c1.2-0.6,2.3-1.5,3.5-2.3c0-0.1,0-0.2,0-0.3c0.2,0,0.3,0,0.4,0c0.5-0.5,1-0.9,1.5-1.4c0.2-0.1,0.4-0.1,0.6-0.2c0-0.1,0-0.3,0-0.4
		c0.7-0.2,1.1-0.8,1.5-1.2c0-0.1,0.1-0.2,0.2-0.3c0.6-0.2,1-0.8,1.3-1.4c0.2-0.1,0.3-0.1,0.5-0.2c0-0.1,0-0.3,0-0.4
		c0.6-0.4,1.2-0.9,1.3-1.6c0.1,0,0.2,0,0.3,0c0.4-0.5,0.7-1.1,1.1-1.5c0-0.1,0-0.3,0-0.4c0.1,0,0.2,0.1,0.4,0.1c0-0.1,0-0.3,0-0.4
		c0.3-0.5,0.6-1,0.9-1.5s0.8-0.9,1-1.5c0.2-0.5,0.5-0.9,0.8-1.4c0.5-1.2,0.9-2.3,1.4-3.5c0.1-0.1,0.3-0.2,0.4-0.2
		c0.4-0.9,0.6-1.8,1-2.7c0.5-0.9,0.5-2,0.8-2.9c0.3-1.7,0.5-3.4,0.9-5.1c-0.2-1.5,0.2-3.1,0.1-4.6c0-0.9,0-1.8,0-2.7
		c-0.2-2-0.5-3.9-0.8-5.8C160.5,66.1,160.1,65.3,160,64.4z M155.4,95.4c-3.1,5.4-7.3,10-12.4,13.5c-5.6,3.9-12.3,6.3-19.1,7
		c-1.9,0.3-3.8,0.2-5.7,0.2c-10.8-0.2-21.3-5.2-28.6-13.2c-2.7-3.1-5.1-6.5-6.8-10.3c-1.6-3.4-2.6-7-3.3-10.6
		c-1.3-7.9-0.2-16.1,3-23.3c1.4-3,3-5.9,5.1-8.5c3.7-4.7,8.4-8.6,13.8-11.3c4.8-2.5,10.1-3.9,15.5-4.3c2.8-0.3,5.5-0.1,8.3,0.3
		c6.5,0.8,12.9,3.3,18.2,7.1c8,5.6,13.8,14.1,16.1,23.6c0.4,1.4,0.7,3,0.9,4.5c0.3,2.6,0.1,5.1,0.2,7.7
		C160.3,84,158.4,90,155.4,95.4z"/>
	<path d="M112.6,64.4c0.5-0.8,0.6-1.8,0.3-2.7c-0.2-0.6-0.3-1.2-0.8-1.6c-0.3-0.2-0.8-0.1-1.1-0.1c-0.4,0.5-0.3,1.2,0.2,1.7
		c0.4,0.7,0.5,1.5,0.8,2.3C112.1,64.3,112.4,64.3,112.6,64.4z"/>
	<path d="M122.4,84.4c0,0.2,0,0.5,0,0.8c1.1-0.1,2.3-0.1,3.5-0.2c3.2-0.1,6.4,0.3,9.5,0.8c-1-0.6-2.2-0.9-3.4-1.2
		C128.8,84.1,125.6,84.1,122.4,84.4z"/>
	<path d="M135.8,71.1c1.6,2.2,2.8,4.8,3.1,7.5c0.1,0,0.2,0,0.2,0c0-0.3-0.2-0.6-0.2-0.9c-0.2-2.8-1.7-5.4-3.3-7.7
		c-0.9-1.2-1.4-2.6-1.7-4c0.1,0,0.2,0,0.3,0c-0.2-0.2-0.4-0.4-0.5-0.6c0.3,0.9,0.3,1.9,0.5,2.7C134.5,69.2,135.1,70.2,135.8,71.1z"
		/>
	<path d="M106.8,87.6c3.6-0.9,7.3-1.6,11-2c0.1-0.2,0.1-0.5,0.2-0.8c-3.1,0.4-6.3,1-9.3,2C108.1,87,107.4,87.2,106.8,87.6z"/>
	<path d="M119.7,82.8c-0.6,0.7-0.8,1.8-0.4,2.7C120.2,84.9,119.8,83.7,119.7,82.8z"/>
	<path d="M119.8,53.7c0.7,0.2,1.3,0.7,2.1,1c0.2,0.1,0.4-0.1,0.6-0.2c-1-0.7-2.1-1.2-3.4-1.2c-1.1-0.1-2.4,0.6-2.9,1.7
		c0.6-0.4,1.1-1,1.8-1.2C118.6,53.6,119.2,53.5,119.8,53.7z"/>
	<path d="M102,62.3c0.7-2.6,1.9-5,3.6-7c2-2.4,4.1-4.8,6.6-6.7c1.8-1.3,3.8-2.3,6-2.7c2.7-0.4,5.5-0.1,7.9,1.4
		c2.1,1.3,3.4,3.4,4.1,5.7c1,3.1,2,6.3,3.4,9.2c0-0.4-0.1-0.8-0.2-1.2c-1.3-2.9-2.3-5.8-3.2-8.8c-0.4-1.1-0.9-2.3-1.6-3.2
		c-1.3-1.9-3.5-3.2-5.7-3.6c-2.8-0.5-5.9-0.2-8.4,1.2c-2.6,1.4-4.7,3.4-6.7,5.4c-1.9,2.2-3.9,4.4-5.1,7.1c-1.2,2.6-1.6,5.5-1.7,8.3
		c0,1.7,0.1,3.4-0.1,5.1c-0.3,2.6-1.3,5.1-1.6,7.8c-0.3,2-0.5,4-0.8,6c0,1.2,0.1,2.3,0.1,3.5c0,0.5-0.2,1.1,0.1,1.6
		c0.1-1.5-0.1-3,0.1-4.5c0.3-2.3,0.6-4.5,1-6.8c0.6-2.8,1.5-5.6,1.5-8.5C101.3,68.6,101.2,65.4,102,62.3z"/>
	<path d="M125.9,67.2c0.5-0.2,0.6-0.7,0.6-1.1c0-0.2,0-0.4,0.1-0.6c0.2-0.5,0.1-1-0.2-1.5c-0.3-0.3-0.7-0.6-1.2-0.6
		c-0.3,0-0.5-0.1-0.8-0.2c-0.6-0.1-1.1-0.3-1.7-0.1c-0.7,0.2-1.3,0.8-1.8,1.6c-0.3,0.6,0.2,1,0.6,1.3l0.1,0.1
		c0.9,0.7,2.1,1.3,3.3,1.3C125.2,67.4,125.6,67.3,125.9,67.2z M124.1,64.5c0.5,0,0.7,0.5,0.9,0.9c-0.9-0.1-1.9-0.2-2.8-0.4
		C122.8,64.8,123.5,64.5,124.1,64.5z"/>
	<path d="M123.6,61.6c0.4-0.2,0.7-0.3,1.1-0.5c0,0,0,0,0-0.1s0,0,0-0.1c-0.4-0.3-0.8-0.2-1.2-0.1c0,0-0.1,0,0,0.1
		C123.5,61.2,123.6,61.3,123.6,61.6z"/>
	<path d="M116.2,59.5c0-0.6-0.1-1.2-0.1-1.8c0,0,0-0.1-0.1-0.1h-0.5c0,0-0.1,0-0.1,0.1c-0.1,0.6-0.1,1.1-0.1,1.7v0.1h-0.5
		c0,0-0.1,0-0.1,0.1c0,0.2,0,0.3,0.1,0.4c0.1,0.1,0.2,0.1,0.5,0.1c0,0.2,0,0.4,0,0.7c0,0,0,0.1,0.1,0.1c0.1,0,0.1,0,0.2,0
		c0.1,0,0.2,0,0.3-0.1c0.1-0.1,0.2-0.3,0.3-0.6c0.2,0,0.3,0,0.4-0.1c0.1-0.1,0.2-0.3,0.1-0.6H116.2z"/>
	<path d="M122.3,57.8c-0.1-0.2-0.1-0.3-0.2-0.4c-0.2-0.2-0.3-0.4-0.2-0.7c0,0,0,0,0-0.1c-0.2,0-0.4-0.1-0.6-0.2c0-0.2,0-0.5,0-0.8
		v-0.1h-0.1c-0.2,0.1-0.3,0.2-0.5,0.4c-0.1-0.2-0.2-0.3-0.3-0.5c0,0,0,0-0.1,0c0,0,0,0-0.1,0c-0.1,0.1-0.2,0.3-0.4,0.5l-0.1-0.1
		c-0.2-0.2-0.5-0.4-0.7-0.6c0,0,0,0-0.1,0c0,0.1-0.1,0.4-0.1,0.5c-0.2-0.2-0.5-0.4-0.8-0.7h-0.1c0,0,0,0,0,0.1l0.1,0.7
		c-0.2-0.1-0.4-0.2-0.6-0.2h-0.1c0,0,0,0,0,0.1l0.1,0.4c-0.1,0-0.3-0.1-0.4-0.1h-0.1c0,0,0,0,0,0.1l0.1,0.2h-0.3h-0.1v0.1
		c0.1,0.1,0.2,0.2,0.2,0.4c0.2,0.3,0.4,0.6,0.7,0.7c0.9,0.3,1.8,0.5,2.7,0.5C121.1,58.1,121.7,58,122.3,57.8z"/>
	<path d="M125.4,96.5c-0.1-2-0.7-3.9-1.7-5.7c0.1,0.9,0.4,1.7,0.5,2.6c-0.5-1-0.5-2-0.7-3.1c-0.2-0.9-0.3-1.7-0.5-2.6
		c-0.1-0.8-0.6-1.5-0.8-2.3c-0.1,0-0.3,0-0.4,0c0.4-0.8,0.3-1.7-0.1-2.4c0,0-0.1-0.1-0.2-0.2c0.1,0,0.1-0.1,0.2-0.1
		c0.2,0.1,0.4,0.1,0.6,0.2c0.1,0,0.3,0,0.4-0.1c0.9-0.2,1.9-0.5,2.8-0.9c0.5-1.9,0.9-3.9,1.1-5.9c-0.5-0.5-0.4-1.1-0.5-1.5
		c-0.4-0.3-0.9-0.5-1.3-0.7c0,0,0,0,0,0c0.1-0.7,0.2-1.4,0.4-2c0,0,0,0,0-0.1c0,0,0,0-0.1,0h-0.3c0,0,0-0.1,0.1-0.1
		c1.4-0.2,2.6-1.2,3.2-2.5c0.3-0.8,0.6-1.7,0.9-2.5c0.4-1.1,0.7-2.3,1.3-3.3c0.4-0.8,0.3-1.6,0.3-2.4c0-0.6-0.1-1.3,0.1-1.9v-0.1
		c0,0,0,0-0.1,0l0.4-0.3h-0.5l0.4-0.4c0.5,1.1,1.1,2.2,1.7,3.2c-0.3-0.9-0.7-1.7-1-2.6c-0.7-1.7-1-3.6-1.7-5.4c-0.5-1.4-1.1-2.8-2-4
		c-1.6-2-4.2-2.8-6.7-2.9c-2.6-0.3-5.2,0.8-7.2,2.4c-1.1,0.9-1.8,2.1-2.4,3.4c-0.7,1.4-1.1,2.9-1.7,4.4c-0.1,0.3-0.2,0.7-0.2,1
		c0.3-0.2,0.5-0.5,0.6-0.8c0.3-0.6,0.7-1.2,1-1.8c-0.3,0.9-0.7,1.8-1.1,2.7c-0.2,0.3-0.1,0.6,0,0.9c0.4,0.1,0.5-0.3,0.8-0.5
		c-0.2,0.3-0.4,0.7-0.6,1c0,0.2,0,0.5,0,0.7c0.5-0.5,0.9-1.2,1.3-1.9c1.5-2.1,3.1-4.3,5.1-6c2.2-1.7,5.2-2.2,7.9-1.7
		c1.1,0.2,2.2,0.7,3.1,1.5c-0.1-0.1-0.3-0.2-0.4-0.3c-2-1.3-4.8-1.6-7.4-0.8c-2.1,0.7-4.1,2.1-5.5,4.1c1.4-1.9,3.3-3.3,5.3-4
		c2.5-0.7,5.2-0.4,7.3,0.8c1.1,0.7,1.6,1.9,2.2,3.1v0.1c-0.9-0.4-1.9-0.1-2.8,0.3c0,0-0.1,0-0.1,0.1c-0.1,0.1-0.3,0.1-0.4,0.3
		c0,0,0,0,0,0.1c0.4,0.1,0.8-0.1,1.1-0.2c0.3-0.1,0.7-0.2,1-0.2c0.8-0.1,1.4,0.6,1.6,0.9c0,0.2,0,0.3,0.1,0.5
		c0.1,0.4,0.2,0.9-0.1,1.2c0-0.2,0-0.4,0-0.5v-0.1h-0.1c-0.1,0.1-0.3,0.3-0.4,0.4V57v-0.1h-0.1c-0.1,0.1-0.3,0.2-0.4,0.3
		c0-0.2-0.1-0.4-0.1-0.6c0,0,0,0,0-0.1c0,0,0,0-0.1,0l-0.2,0.2c-0.1,0.1-0.3,0.2-0.4,0.3v-0.5c0,0,0,0,0-0.1c0,0,0,0-0.1,0
		c-0.1,0.1-0.2,0.1-0.3,0.2l-0.1,0.1l-0.1-0.2c0,0,0,0-0.1,0c-0.2,0.2-0.5,0.3-0.8,0.5c-0.2,0.1-0.5,0.3-0.7,0.4c0,0,0,0,0,0.1v0.4
		l-0.3-0.3c-0.2-0.5,0-1,0.2-1.4c0.1-0.2,0.1-0.4,0.2-0.6c0,0,0,0,0-0.1c0,0,0,0-0.1,0c-0.6,0.1-0.6,0.7-0.6,1.1c0,0.1,0,0.2,0,0.2
		c0.1,0.7,0.4,1.2,0.7,1.8c0.3,0.6,0.7,1.2,0.7,1.9c0,0,0,0.1,0.1,0.1c0,0,0.1,0,0.1-0.1c0.1-0.7-0.3-1.4-0.7-2
		c-0.1-0.1-0.1-0.2-0.2-0.2l0.2-0.2c0.3,0.6,1,0.8,1.6,1h0.1c0.7,0.2,1.6,0.1,2.3-0.4c-0.1,0.8-0.1,1.4-0.1,2
		c0.1,0.8,0.1,1.6-0.2,2.4c-0.5,1.1-0.9,2.2-1.3,3.4c-0.3,0.8-0.5,1.7-0.9,2.5c-0.5,1.3-1.8,2.3-3.1,2.4c0,0,0,0-0.1,0
		c0,0-0.1,0.1-0.1,0.2v0.1c0,0,0,0,0,0.1c0,0,0,0,0.1,0h0.4c-0.2,0.6-0.3,1.3-0.4,2c-0.1,0.4-0.1,0.9-0.2,1.3
		c-0.7,0.5-1.6,0.5-2.5,0.6c-0.1,0-0.2,0-0.3,0c-1.3,0-2.6,0-3.8,0.1c-0.6,0-1.2,0-1.8,0.1c0,0,0,0,0,0c0.7,0,1.4,0,2.2-0.1
		c1.2,0,2.5-0.1,3.8-0.1c0.1,0,0.2,0,0.3,0c0.9-0.1,1.8-0.1,2.6-0.6c0-0.1,0.1-0.3,0.1-0.4c0.2-0.1,0.4-0.2,0.7-0.3
		c-0.8,1.1-2.3,1.3-3.5,1.4c-3.1,0.1-6.1,0.2-9.2,0.1c0.2,0.4,0.3,0.8,0.5,1.2c-0.7-0.5-1-1.3-1.4-2c0.1,0.5,0.3,1.1,0.4,1.6
		c-0.2-0.2-0.5-0.3-0.7-0.5c0,1,0.2,1.9,0.7,2.8c0.2,0.8-0.3,1.9,0.4,2.6c0.8,0.4,1.8,0.6,2.7,0.8c1.1,0.3,2.3,0.6,3.4,0.7
		c0-0.1,0-0.4,0-0.5c0.1-0.1,0.3-0.2,0.4-0.3c-0.4,0.7-0.3,1.6-0.6,2.4c0.1-0.1,0.3-0.2,0.4-0.3c0.2-0.7,0.3-1.3,0.4-2
		c-0.1-0.1-0.2-0.2-0.3-0.3c0-1.1,0-2.2,0.1-3.2c-0.3,0-0.7-0.1-1,0c-0.2,0.2-0.4,0.4-0.6,0.6c-0.4-0.3-0.9-0.7-1.3-1.1
		c0.4-0.3,0.8-0.6,1.2-0.9c0.2,0.2,0.4,0.3,0.6,0.5c0.4,0,0.9-0.1,1.3-0.2c-0.2-0.3-0.4-0.6-0.6-1c0.3-0.3,0.6-0.6,0.9-0.8
		c0.5,0.1,0.7,0.7,0.9,1c-0.2,0.2-0.4,0.3-0.6,0.5c0.4,0.6,1.3,0.2,1.8-0.2c0.3,0.3,0.7,0.5,0.9,0.8c0.2,0.3-0.3,0.5-0.4,0.7
		c-0.2,0.3-0.5,0.3-0.8,0.3c-0.1-0.1-0.2-0.3-0.2-0.4c-0.3,0-0.6,0-0.9,0.1c0,1.3,0,2.7,0.2,4.1c0,0.4,0.5,0.1,0.7,0.2
		c0,0,0,0,0.1-0.1c0,0.2,0,0.5,0,0.7c0-0.1-0.1-0.1-0.2-0.2c-0.2,0.2-0.3,0.7,0,0.8c0.1,0,0.2-0.2,0.2-0.3c0.1,0.4,0.2,0.8,0.4,1.2
		c-0.2-0.3-0.4-0.6-0.6-0.9c-0.7,0.3-0.6,1.1-0.6,1.7c0.1,1.7,0.1,3.4,0.3,5.1c0.2,0.7-0.4,1.3-0.4,2c0,0.8,0.3,1.6,0.3,2.4
		c0,1.1,0,2.2,0.2,3.3c0.2,0.8,0.3,1.7,0.8,2.4c0.8,1,2,1.4,3,2.1c0.3-0.7,0.5-1.5,0.6-2.3c0.1-0.8,0.1-1.6,0.2-2.4
		c0.2-1-0.5-1.9-0.7-2.9C125,96,125.2,96.3,125.4,96.5z M130.8,58l-0.8-0.1c0.4-0.4,0.3-0.9,0.2-1.3c0-0.1,0-0.2-0.1-0.4
		c0.1,0.4,0.3,0.8,0.5,1.3C130.7,57.7,130.8,57.8,130.8,58z M129.1,53.5c-0.1-0.3-0.3-0.5-0.5-0.8C128.8,52.9,129,53.2,129.1,53.5
		C129.1,53.4,129.1,53.5,129.1,53.5z M127.8,51.8C127.8,51.8,127.8,51.8,127.8,51.8C127.8,51.8,127.8,51.8,127.8,51.8z M128.3,55.1
		c-0.4,0-0.7,0.1-1,0.2c-0.3,0.1-0.7,0.2-1,0.2c0-0.1,0.1-0.1,0.3-0.2c0.1,0,0.1,0,0.2-0.1c0.9-0.4,2-0.8,2.9-0.2h0
		c0.1,0.4,0.2,0.7,0.3,1.1C129.6,55.4,129,55.1,128.3,55.1z M122.2,87.8c-0.1-0.7-0.4-1.4-0.4-2.2c0,0,0.1,0.1,0.2,0.1
		c0.4,2,0.6,4.1,1.1,6.1C122.5,90.5,122.5,89.1,122.2,87.8z"/>
	<path d="M119.9,93.4c0.1-0.8-0.2-1.6,0-2.3c0.3-1.1,0-2.2,0.2-3.2c0.2-1,0.3-2.1,0-3.1c-0.3,0.3-0.6,0.6-1,0.9
		c-0.2,1.1-0.4,2.2-0.7,3.3c-0.3,1-0.7,1.9-1.1,2.9c0.1-0.8,0.4-1.6,0.7-2.4c0.5-1.6,0.9-3.2,0.7-4.8c-0.1,0.1-0.4,0.2-0.5,0.2
		c-0.1,1.2-0.3,2.3-0.9,3.4c-0.6,1.1-0.4,2.4-0.8,3.5c-0.3,0.7-0.7,1.4-0.8,2.2c-0.1,1.2-0.5,2.3-0.4,3.5c0.2-0.5,0.3-1,0.5-1.5
		c0.2,1.7-1.2,3.1-0.9,4.7c0.4,1.5,0.3,3.1,0.7,4.6c0.7-0.5,1.2-1.2,1.9-1.7c0.7-0.4,1.3-1,1.6-1.8c0.5-1.1,0.4-2.4,0.5-3.6
		c0.3,1.1,0.1,2.2-0.1,3.3c-0.2,0.7-0.7,1.3-1,1.9c1.1-0.6,1.6-1.9,1.8-3.2c0-1.6-0.2-3.2-0.5-4.8C119.8,94.8,119.9,94.1,119.9,93.4
		z"/>
	<path d="M137.1,88.2c-2.4-1.6-5.6-1.6-8.3-0.9c-1.8,0.6-3.4,1.9-4.6,3.5c0.7,1.7,1.2,3.4,1.6,5.1c0.7,0.4,1.3,0.8,1.9,1.3
		c0.3,0.2,0.7,0.2,1.1,0.4c0.7,0.3,1.2,0.8,1.8,1.3c0.3,0.2,0.8,0.2,1.1,0.4c0.7,0.6,1.4,1.2,2.1,1.9c0.2,0.3,0.5,0.4,0.9,0.5
		c1.1,0.2,2.2,0.6,3.3,1c1.5-1.4,2.5-3.2,3-5.2c0-1.2,0.1-2.5-0.3-3.8C140.1,91.6,138.9,89.5,137.1,88.2z M135.8,92.3
		c-0.1,0.6-0.1,1.2-0.3,1.8c-0.7,0.1-1.5-0.1-2.2-0.1c0-0.6,0-1.3,0-1.9c-0.7,0.1-1.4,0.2-2.1,0.3c0-0.6-0.1-1.1-0.2-1.7
		c0.7-0.1,1.4-0.2,2-0.4c-0.1-0.9-0.4-1.8-0.7-2.6c0.8,0.1,1.7,0.1,2.5,0.3c0.5,0.8,0.5,1.8,0.7,2.7c0.4,0.1,0.8,0.2,1.2,0.3
		c0.1,0.7,0.2,1.4,0.2,2.1C136.6,92.8,136.2,92.6,135.8,92.3z"/>
	<path d="M115.7,92.4c-0.1-0.5,0.3-0.9,0.4-1.3c-2.3-2.4-6-2.7-9.1-2.1c-2.1,0.5-4.1,1.7-5.1,3.6c-1.1,1.9-1.2,4.3-0.9,6.5
		c0.2,2.1,1.7,4,3.8,4.6c2-0.2,3-2.2,4.6-3c0.8-0.4,1-1.5,1.8-1.9c1.2-0.5,2.7-0.5,3.7-1.5C115.1,95.7,115.3,94,115.7,92.4z
		 M108.5,94.5c-0.7-0.1-1.3-0.1-2-0.2c-0.2,0.6-0.3,1.3-0.4,1.9c-0.8-0.1-1.7-0.3-2.5-0.5c0.1-0.6,0.2-1.1,0.2-1.7
		c-0.5,0.1-1,0.2-1.5,0.3c0.1-0.3,0.2-0.7,0.4-1c0.5-0.4,1.1-0.4,1.6-0.7c0.4-0.9,0.8-1.9,1.2-2.9c0.9-0.1,1.8-0.2,2.7-0.4
		c-0.3,1.1-0.8,2-1.2,3c0.6,0.2,1.2,0.2,1.8,0.3C108.8,93.3,108.7,93.9,108.5,94.5z"/>
	<path d="M114,67.3c-0.4-1.3-0.4-2.7-0.4-4.1c0-1.1,0-2.2-0.2-3.3c-0.2-1.3,0.1-2.5,0.4-3.7c0-0.1,0.1-0.3,0.1-0.5
		c0.2-0.3,0.4-0.6,0.6-0.9c-0.2,0.3-0.5,0.6-0.7,1c0,0.1-0.1,0.3-0.1,0.5c-0.3,1.2-0.6,2.4-0.4,3.6c0.2,1.1,0.2,2.2,0.2,3.3
		C113.5,64.6,113.4,66,114,67.3c0.2,0.8,0.9,1.3,1.5,1.6c0.6,0.3,1.1,0.6,1.7,0.8c-0.5-0.2-1-0.5-1.5-0.7
		C115.1,68.6,114.3,68.1,114,67.3z"/>
	<path d="M122.7,71.7c0.5,0,1,0.1,1.5-0.3v-0.1c0,0,0,0-0.1,0c-0.9,0.1-1.8,0.1-2.9-0.2c-1.3-0.3-2.6-0.7-4-1.4
		c1.5,0.7,3,1.2,4.3,1.5c1,0.2,1.8,0.3,2.6,0.2c-0.3,0.1-0.7,0.1-1.1,0.1c-0.1,0-0.3,0-0.4,0c-2.9-0.3-5.7-1.3-8-2.1c0,0,0,0-0.1,0
		c0,0,0,0,0,0.1c0,0.1,0,0.1,0,0.2c2.3,0.9,5,1.8,7.8,2C122.4,71.7,122.5,71.7,122.7,71.7z"/>
	<path d="M115.6,75.8c-0.1-0.6-0.3-1.2-0.4-1.8c-0.2-0.8-0.3-1.6-0.4-2.3c0,0,0,0-0.1-0.1c-0.1,0-0.1-0.1-0.2-0.1
		c0.1,0.9,0.3,1.8,0.5,2.6c0.2,0.6,0.3,1.2,0.4,1.8C115.5,75.9,115.6,75.9,115.6,75.8C115.6,75.9,115.6,75.8,115.6,75.8z"/>
	<path d="M115.1,71.8C115.1,71.8,115.1,71.8,115.1,71.8c0-0.2-0.1-0.4-0.1-0.5c-0.1-0.1-0.1-0.1-0.2-0.1h-0.1c0,0,0,0,0,0.1
		c0,0.1,0,0.2,0.1,0.4C114.8,71.7,114.9,71.8,115.1,71.8L115.1,71.8z"/>
	<path d="M115.3,71.5c-0.1-0.3-0.3-0.7-0.4-1c-0.2-0.3-0.3-0.5-0.4-0.8c0,0-0.1,0-0.1-0.1c0.1,0.3,0.2,0.6,0.3,0.9
		c0.1,0.3,0.2,0.5,0.3,0.8c0,0,0.1,0.1,0.1,0.1C115.2,71.4,115.2,71.5,115.3,71.5z"/>
	<polygon points="92.1,28.4 88.9,26.1 89.4,30.1 91.8,31.2 	"/>
	<polygon points="121.5,21.6 120,18.2 118.6,21.6 120,23.7 	"/>
	<path d="M65.7,65.5c-2.7,0.5-3.8,4.8-1.5,7.3c1.2,1.2,3,1.7,4.7,1.3c1.7-0.5,3-2.1,3.5-3.9c0.3-0.8,0.2-2-0.1-2.8
		c-0.3-0.8-0.6-1.6-0.9-2.4c-0.5-1.5-0.8-3.1-0.2-4.3s2-1.5,3.1-1c1,0.4,1.1,1.9,0.7,2.8c-0.3,1-1.3,1.4-2,1.1
		c-0.7-0.2-1-1.1-0.8-1.6c0.1-0.5,0.6-0.7,0.9-0.7c0.3,0,0.5,0,0.5,0s-0.2-0.1-0.4-0.2c-0.3-0.1-1,0.1-1.3,0.8
		c-0.3,0.6-0.1,1.7,0.9,2.2c0.5,0.2,1.1,0.2,1.6,0c0.5-0.2,0.9-0.7,1.2-1.3c0.3-0.6,0.4-1.3,0.3-2c0-0.7-0.4-1.4-1.1-1.7
		c0.7,0.3,1.4,0.1,1.9-0.3c0.5-0.4,0.9-0.9,1.2-1.5c0.2-0.5,0.3-1.2,0.1-1.8s-0.6-1-1.1-1.2c-1-0.5-1.9,0.2-2.2,0.8
		c-0.3,0.7,0,1.3,0.3,1.5c0.2,0.3,0.4,0.3,0.4,0.3s-0.1-0.2-0.5-0.5c-0.2-0.2-0.4-0.7-0.1-1.2c0.3-0.4,1-0.9,1.7-0.5
		c0.7,0.3,1.1,1.3,0.6,2.2c-0.4,0.9-1.5,1.8-2.5,1.3c-1.1-0.4-1.7-1.7-1.2-3c0.5-1.2,1.8-2.1,3.2-2.7c0.8-0.3,1.5-0.6,2.3-0.9
		c0.8-0.3,1.6-1.1,2-1.9c1-1.6,1.2-3.7,0.3-5.3c-0.4-0.7-0.9-1.2-1.4-1.6c0.3,0.2,0.6,0.4,0.9,0.5c1.7,0.7,3.6,0.1,5-1.1
		c0.8-0.6,1.3-1.5,1.5-2.4c0.2-0.9,0.4-1.7,0.6-2.5c0.4-1.5,1.1-3,2.2-3.6c1.2-0.6,2.5-0.1,3.1,1c0.6,0.9-0.2,2.2-1,2.7
		c-0.9,0.6-1.9,0.4-2.3-0.3c-0.5-0.6-0.2-1.5,0.2-1.8c0.5-0.4,1-0.3,1.2-0.1s0.4,0.3,0.4,0.3c0-0.1-0.1-0.2-0.1-0.6
		c-0.2-0.3-0.9-0.5-1.5-0.1s-1.1,1.4-0.5,2.4c0.3,0.4,0.7,0.8,1.3,0.9c0.6,0.1,1.2-0.1,1.7-0.4c0.5-0.3,1-0.8,1.3-1.4
		c0.3-0.5,0.4-1.3,0.2-1.9c0.4,0.4,1,0.7,1.5,0.7c0.6,0,1.3-0.2,1.8-0.5c0.5-0.3,1-0.8,1.1-1.4c0.1-0.6,0-1.2-0.3-1.6
		c-0.5-0.9-1.6-1-2.2-0.6c-0.7,0.4-0.7,1.1-0.6,1.4c0.1,0.4,0.2,0.5,0.2,0.5s0-0.2-0.2-0.7c0-0.3,0.1-0.9,0.6-1.1
		c0.5-0.3,1.3-0.2,1.7,0.5c0.4,0.7,0.2,1.7-0.7,2.2c-0.8,0.5-2.2,0.6-2.7-0.4c-0.7-1-0.5-2.5,0.6-3.2c1.1-0.7,2.6-0.6,4.1-0.3
		c0.8,0.2,1.6,0.4,2.4,0.6c0.9,0.2,1.9,0,2.7-0.4c0.9-0.4,1.7-1.1,2.3-2c1.1,1,2.7,1.5,4.1,1.2c0.8-0.1,1.7-0.6,2.2-1.2
		c0.5-0.5,1-1.1,1.5-1.6c1-1,2.2-1.9,3.3-1.8c1.2,0.1,1.9,1.2,1.9,2.3c0.1,1-1,1.6-1.9,1.6c-0.9,0.1-1.6-0.6-1.6-1.3s0.5-1.2,1-1.3
		s0.8,0.3,0.9,0.5s0.2,0.4,0.2,0.4s0-0.2,0.1-0.3c0-0.3-0.4-0.8-1.1-0.8c-0.7,0.1-1.5,0.7-1.5,1.7c-0.1,1,0.9,2.1,2.1,2
		c0.6,0,1.2-0.2,1.7-0.5c0.4-0.3,0.8-0.8,1-1.5c0.2,0.5,0.5,0.9,0.8,1.1c0.6,0.3,1.1,0.5,1.7,0.5c0.5,0,1.1-0.2,1.5-0.6
		c0.4-0.4,0.5-0.9,0.5-1.4c0-1-0.9-1.6-1.5-1.6c-0.7-0.1-1,0.5-1.1,0.8c0,0.3,0,0.5,0,0.5s0.1-0.2,0.2-0.3c0.1-0.2,0.4-0.6,0.9-0.5
		c0.4,0,1,0.5,1,1.2s-0.6,1.4-1.5,1.3c-0.8-0.1-2-0.7-1.9-1.7c-0.1-1.2,0.7-2.2,1.9-2.2c1.1,0,2.3,0.8,3.3,1.8
		c0.5,0.5,1.1,1.1,1.6,1.6c0.6,0.6,1.5,1,2.3,1c1.4,0.2,2.8-0.2,3.8-1.1c0.2,1.9,1.5,3.4,3.1,4.1c0.7,0.5,1.8,0.6,2.6,0.4
		c0.8-0.2,1.5-0.3,2.3-0.5c1.5-0.3,3-0.3,4,0.5c1,0.8,1.1,2.2,0.4,3.2c-0.5,0.9-1.9,0.7-2.7,0.2c-0.9-0.5-1.1-1.5-0.7-2.2
		c0.3-0.7,1.1-0.7,1.6-0.5c0.2,0.1,0.4,0.3,0.4,0.4c0-0.3-0.2-0.6-0.5-0.8c-0.5-0.3-1.6-0.3-2.2,0.6c-0.6,0.8-0.3,2.4,0.8,3
		c0.5,0.3,1.1,0.6,1.8,0.6c0.6,0,1.3-0.3,1.7-0.8c-0.2,0.6-0.2,1.3,0.1,1.8c0.3,0.7,0.7,1.1,1.2,1.5c0.5,0.3,1.1,0.5,1.7,0.4
		c0.6-0.1,1-0.5,1.3-0.9c0.6-0.9,0.2-1.9-0.4-2.3c-0.6-0.4-1.2-0.1-1.4,0.1c-0.1,0.1-0.1,0.1-0.2,0.2c0.2-0.1,0.7-0.3,1.1,0.1
		c0.4,0.3,0.6,1.1,0.2,1.7c-0.4,0.6-1.3,0.8-2.1,0.2c-0.8-0.6-1.4-1.8-0.8-2.7c0.5-1.1,1.8-1.5,2.9-0.8c1.1,0.6,1.7,2.1,2,3.6
		c0.2,0.8,0.3,1.6,0.5,2.4c0.2,0.9,0.8,1.8,1.5,2.3c1.4,1.2,3.2,1.7,4.9,1.1c0.4-0.2,0.8-0.4,1.1-0.6c0,0,0,0,0,0
		c-0.9,1.5-0.8,3.6,0,5.2c0.4,0.9,1.1,1.6,1.9,2c0.7,0.4,1.4,0.7,2.1,1.1c1.3,0.7,2.5,1.6,2.8,2.9c0.3,1.3-0.5,2.5-1.6,2.8
		c-1,0.4-2-0.6-2.3-1.5c-0.4-1,0-1.9,0.7-2.2s1.4,0.1,1.6,0.6c0.2,0.5,0,1-0.2,1.2c-0.2,0.3-0.3,0.4-0.3,0.4s0.2,0,0.6-0.1
		c0.3-0.1,0.7-0.7,0.4-1.4c-0.2-0.7-1.1-1.4-2.1-1c-1,0.3-1.7,1.7-1.2,2.9c0.2,0.6,0.5,1.2,1,1.6c0.4,0.4,1.3,0.7,2,0.4
		c-0.6,0.3-1.1,1-1.2,1.5c-0.1,0.6-0.1,1.3,0.1,1.9s0.6,1.1,1.1,1.4c0.5,0.3,1,0.3,1.5,0.1c1-0.4,1.2-1.5,1-2.1
		c-0.2-0.7-0.8-0.9-1.1-0.9c0.2,0.1,0.7,0.3,0.8,0.8c0.2,0.5-0.1,1.3-0.8,1.5c-0.7,0.2-1.6-0.2-1.8-1.2c-0.2-0.9,0-2.3,1-2.6
		c1.1-0.5,2.4,0,2.8,1.3c0.4,1.2,0,2.7-0.6,4.1c-0.3,0.7-0.7,1.4-1,2.2c-0.4,0.9-0.4,1.9-0.2,2.8c0.4,1.8,1.5,3.4,3.2,4
		c1.7,0.5,3.4,0.1,4.6-1c2.4-2.3,1.5-6.5-1-7.1c-1.2-0.3-2.4,0.4-2.8,1.2c-0.6,0.9-0.3,1.9,0.1,2.4c0.9,1.1,1.7,0.9,1.7,0.9
		c0-0.1-0.8-0.1-1.4-1.1c-0.3-0.5-0.5-1.3,0-1.9c0.4-0.7,1.3-1.2,2.2-0.9c1.9,0.5,2.6,4.1,0.6,5.9c-1,0.9-2.5,1.2-3.8,0.8
		c-1.3-0.4-2.3-1.8-2.6-3.3c-0.5-1.5,0.5-2.8,1.1-4.4c0.6-1.5,1.1-3.2,0.5-4.8c-0.3-0.7-0.8-1.4-1.6-1.7c-0.7-0.3-1.4-0.2-1.9,0
		c1.1-0.6,2.1-2.1,1.6-3.6c-0.4-1.7-1.8-2.7-3.2-3.5c-1.4-0.9-3-1.2-3.6-2.7c-0.7-1.4-0.7-3.2,0-4.4s2.2-2,3.4-1.9
		c2.6,0.1,4.3,3.4,3.1,5c-0.5,0.8-1.5,1.1-2.2,0.8c-0.8-0.2-1.1-0.9-1.2-1.5c-0.1-1.2,0.5-1.8,0.4-1.8c0.1-0.1-0.7,0.4-0.7,1.8
		c0.1,0.6,0.4,1.6,1.4,1.9c0.9,0.4,2.2,0.2,2.9-0.9c1.6-2.2-0.4-6-3.6-6.2c-1.1,0-2.2,0.4-3.1,1.1c0.4-0.6,0.7-1.2,0.8-1.9
		c0.5-3.3-2.6-6.1-5-5c-1.1,0.5-1.6,1.8-1.5,2.7c0.1,1,0.9,1.6,1.5,1.8c1.3,0.4,2-0.3,1.9-0.3c0-0.1-0.6,0.4-1.7,0
		c-0.5-0.2-1.1-0.7-1.1-1.5s0.4-1.7,1.3-2.1c1.7-0.8,4.4,1.6,3.9,4.3c-0.2,1.2-1.2,2.5-2.5,3c-1.3,0.4-2.9,0-4-1
		c-1.3-0.9-1.3-2.6-1.7-4.2c-0.4-1.6-1-3.3-2.4-4.2c-0.7-0.4-1.5-0.5-2.3-0.3c-0.6,0.1-1,0.5-1.3,0.9c0.4-1.1,0.2-2.7-0.9-3.6
		c-1.3-1.1-3.1-1-4.6-0.7c-1.6,0.2-3.1,1-4.4,0.2c-1.4-0.6-2.4-2-2.6-3.4c0-0.2,0-0.5,0-0.7c0.3-0.6,0.6-1.2,0.7-1.9
		c0.3-0.4,0.6-0.8,0.9-1.1c2.1-1.7,5.4-0.1,5.4,1.9c0.1,1-0.6,1.8-1.3,2.1c-0.7,0.4-1.4,0-1.8-0.4c-0.8-0.9-0.6-1.7-0.7-1.7
		c0-0.1-0.3,0.8,0.5,1.9c0.4,0.5,1.3,1.1,2.2,0.7c0.9-0.3,1.8-1.3,1.8-2.6c-0.1-2.7-3.8-4.5-6.5-2.6c-0.2,0.1-0.3,0.3-0.5,0.5
		c0-0.4-0.1-0.8-0.3-1.2c-1.2-2.9-5.1-3.4-6.4-1.2c-0.6,1.1-0.4,2.3,0.2,3c0.6,0.8,1.6,0.8,2.1,0.6c1.2-0.5,1.3-1.3,1.3-1.3
		c-0.1-0.1-0.4,0.6-1.4,0.9c-0.5,0.1-1.2,0-1.6-0.6c-0.5-0.6-0.6-1.5-0.1-2.3c0.9-1.6,4.2-1.2,5.1,1.2c0.3,0.7,0.3,1.5,0.2,2.3
		c-0.1,0.3-0.2,0.6-0.3,0.9c-0.1,0.2-0.2,0.3-0.3,0.5c-0.8,1-2.2,1.6-3.6,1.4c-1.5,0-2.2-1.4-3.4-2.4c-1.1-1-2.4-2-4-1.9
		c-0.8,0.1-1.5,0.4-2,1c-0.3,0.5-0.5,0.9-0.5,1.4c-0.3-1-1.3-1.9-2.5-2c-1.6-0.2-2.9,0.9-4,1.9c-1.1,1-1.9,2.4-3.3,2.5
		c-1.3,0.2-2.8-0.3-3.6-1.2c0.2-0.4,0.3-0.9,0.4-1.4c0.1-1.2-0.2-2.2-0.7-3.1c1.2-1.8,3.8-2.1,4.7-0.7c0.5,0.7,0.4,1.7,0,2.3
		c-0.4,0.6-1.1,0.7-1.6,0.6c-1.1-0.2-1.3-1-1.4-0.9c-0.1-0.1,0.1,0.8,1.3,1.2c0.6,0.2,1.5,0.1,2.1-0.7c0.6-0.7,0.8-2,0.1-3
		c-1.2-1.8-4.3-1.6-5.8,0.4c-0.2-0.3-0.5-0.5-0.7-0.7c-2.7-2-6.5-0.2-6.6,2.6c0,1.3,0.9,2.3,1.8,2.6c1,0.4,1.9-0.1,2.3-0.6
		c0.8-1.1,0.5-2,0.5-1.9c-0.1,0,0,0.8-0.8,1.7c-0.4,0.4-1.1,0.8-1.8,0.4c-0.7-0.2-1.4-1.1-1.3-2.1c0-2.1,3.3-3.7,5.5-2
		c0.2,0.2,0.5,0.4,0.7,0.7c-0.1,0.1-0.1,0.2-0.2,0.4c-0.5,1.4-0.3,3,0.5,4.4c-0.5,0.8-1.2,1.4-2,1.8c-1.4,0.9-2.9,0.1-4.5-0.2
		c-1.5-0.3-3.3-0.5-4.7,0.5c-0.6,0.5-1.2,1.2-1.3,2.1c-0.2,0.8,0.1,1.5,0.4,2.1c-0.4-0.5-0.8-1-1.5-1.2c-0.8-0.2-1.7-0.2-2.4,0.2
		c-1.6,0.9-2.3,2.6-2.7,4.2c-0.6,1.7-0.5,3.5-1.8,4.4c-1.2,1-2.9,1.5-4.2,1s-2.4-1.8-2.6-3.1c-0.5-2.8,2.3-5.3,4.1-4.4
		c0.9,0.4,1.4,1.4,1.3,2.2c-0.1,0.8-0.7,1.3-1.2,1.5c-1.1,0.4-1.8-0.1-1.8,0c-0.1,0,0.6,0.7,1.9,0.4c0.6-0.1,1.4-0.7,1.5-1.8
		c0.2-0.9-0.3-2.3-1.5-2.8c-2.4-1.2-5.7,1.7-5.1,5.1c0.2,1.2,0.9,2.3,1.9,3.1c-0.7-0.5-1.6-0.7-2.4-0.8c-3.3,0-5.5,3.8-4,6.1
		c0.7,1.1,2,1.4,2.9,1.1c1-0.2,1.4-1.2,1.6-1.7c0.1-1.4-0.6-2-0.6-1.9c-0.1,0,0.5,0.6,0.3,1.8c-0.1,0.6-0.5,1.3-1.3,1.4
		c-0.8,0.2-1.8-0.1-2.3-1c-1.1-1.7,0.8-5,3.5-4.9c1.3,0.1,2.7,0.9,3.4,2.2c0.6,1.3,0.5,3-0.3,4.4c-0.6,1.6-2.3,1.8-3.8,2.5
		c-1.4,0.6-3,1.5-3.6,3.2c-0.3,0.8-0.4,1.7,0,2.5c0.3,0.5,0.8,0.9,1.2,1.2c-0.5-0.2-1.1-0.2-1.6,0c-0.8,0.2-1.5,0.8-1.9,1.5
		c-0.9,1.6-0.5,3.4,0,5c0.4,1.6,1.5,3.1,0.9,4.6c-0.4,1.6-1.5,2.9-2.9,3.3c-1.3,0.4-2.9-0.1-3.8-1c-1.9-1.9-1-5.6,1-6
		c0.9-0.3,1.8,0.3,2.2,1c0.5,0.7,0.2,1.5-0.1,2c-0.7,1-1.5,0.9-1.5,1c0,0,0.9,0.3,1.8-0.8c0.4-0.5,0.8-1.5,0.3-2.4
		C68.1,66,67,65.2,65.7,65.5z M105.9,23.8c0.3,0.7,0.4,1.4,0.4,2c0,0.2-0.1,0.5-0.1,0.7C105.8,25.6,105.7,24.6,105.9,23.8z"/>
	<polygon points="71.5,57.7 70.2,55.1 66.3,55.2 68.9,58.2 	"/>
	<path d="M72.8,81.9c0.4-0.8,0.5-1.9,0.3-2.8c-0.3-1.9-1.5-3.6-3.2-4.2c-1.7-0.6-3.4-0.2-4.7,0.9c-2.5,2.2-1.8,6.6,0.8,7.3
		c1.2,0.3,2.4-0.3,2.9-1.2c0.6-0.8,0.3-1.9-0.1-2.4c-0.8-1.1-1.7-1-1.7-1c0,0.1,0.8,0.1,1.4,1.2c0.2,0.5,0.4,1.3-0.1,1.9
		c-0.4,0.7-1.4,1.1-2.3,0.8c-2-0.6-2.6-4.3-0.5-6.1c1-0.8,2.6-1.2,3.9-0.7s2.3,1.9,2.6,3.5c0.5,1.6-0.6,2.9-1.3,4.5
		c-0.7,1.5-1.3,3.2-0.7,4.9c0.3,0.8,0.8,1.5,1.6,1.8c0.7,0.3,1.5,0.2,2.2,0c0.7-0.2,1.2-0.9,1.4-1.6s0.2-1.4,0-2
		c-0.2-0.6-0.6-1.2-1.1-1.5c-0.6-0.3-1.1-0.3-1.6-0.1c-1,0.3-1.3,1.4-1.1,2.1s0.9,0.9,1.2,0.9c0.1,0,0.1,0,0.2,0
		c-0.3,0-0.7-0.2-0.8-0.8C72,86.8,72.3,86,73,85.8c0.8-0.2,1.7,0.3,1.9,1.3c0.2,1,0,2.4-1.1,2.7c-1.1,0.5-2.4-0.1-2.8-1.4
		c-0.4-1.2,0-2.8,0.7-4.2C72.1,83.4,72.4,82.7,72.8,81.9z"/>
	<path d="M73,88.1c0.1,0,0.2-0.1,0.2-0.1S73.1,88,73,88.1z"/>
	<path d="M73,88.1c0,0-0.1,0-0.1,0C72.9,88.1,73,88.1,73,88.1C73,88.1,73,88.1,73,88.1z"/>
	<polygon points="70.7,91.3 68.1,90.3 65.2,93.1 69.1,93.5 	"/>
	<path d="M92.4,114.6c0.5-0.6,0.5-1.6,0.2-2.2c-0.3-0.7-0.7-1.2-1.2-1.6c-0.5-0.4-1.1-0.6-1.7-0.5c-0.6,0.1-1,0.5-1.3,0.9
		c-0.6,0.9-0.2,2,0.4,2.4c0.6,0.5,1.3,0.2,1.5,0c0.2-0.2,0.3-0.4,0.3-0.4s-0.2,0.1-0.4,0.3c-0.3,0.2-0.8,0.3-1.2-0.1
		c-0.4-0.3-0.7-1.2-0.2-1.8c0.4-0.7,1.4-0.9,2.2-0.2c0.7,0.6,1.4,1.9,0.7,2.8c-0.7,1.1-2,1.5-3.1,0.7c-1.1-0.7-1.6-2.3-1.9-3.8
		c-0.1-0.8-0.2-1.7-0.4-2.5c-0.1-0.9-0.7-1.8-1.4-2.4c-1.4-1.3-3.3-1.9-5-1.3c-0.2,0.1-0.4,0.2-0.6,0.2c0.6-1.5,0.6-3.3-0.1-4.7
		c-0.4-0.9-1.1-1.7-1.9-2.1c-0.7-0.4-1.4-0.8-2.1-1.2c-1.3-0.8-2.5-1.8-2.8-3.1c-0.3-1.4,0.6-2.6,1.7-2.9c1-0.4,2,0.7,2.3,1.6
		c0.4,1-0.1,1.9-0.8,2.2c-0.7,0.3-1.4-0.2-1.6-0.7c-0.3-0.5,0-1,0.2-1.2c0.3-0.3,0.4-0.4,0.4-0.4s-0.2,0-0.7,0.6
		c-0.2,0.2-0.7,0.8-0.4,1.5c0.2,0.6,1.1,1.3,2.1,1c0.5-0.2,0.9-0.5,1.2-1.1c0.3-0.5,0.3-1.2,0.1-1.8s-0.5-1.2-1-1.7
		c-0.5-0.4-1.4-0.8-2.1-0.5c-0.7,0.2-1.3,0.6-1.8,1.3c-0.4,0.6-0.6,1.6-0.4,2.4c0.4,1.8,1.8,2.9,3.2,3.7c1.4,0.9,3.1,1.2,3.6,2.8
		c0.7,1.5,0.7,3.3-0.1,4.5c-0.7,1.2-2.2,2-3.5,1.9c-2.7-0.1-4.4-3.6-3.1-5.2c0.5-0.9,1.6-1.1,2.3-0.8c0.8,0.2,1.1,0.9,1.2,1.5
		c0.1,1.2-0.6,1.8-0.5,1.8c0,0.1,0.8-0.4,0.8-1.8c0-0.6-0.3-1.7-1.3-2c-0.9-0.5-2.2-0.3-3,0.8c-1.7,2.2,0.2,6.2,3.5,6.5
		c0.8,0.1,1.6-0.1,2.4-0.5c-0.2,0.4-0.3,0.7-0.4,1.1c-0.6,3.4,2.5,6.4,5,5.3c1.2-0.5,1.7-1.8,1.6-2.8c-0.1-1.1-0.9-1.7-1.5-1.9
		c-1.3-0.4-2,0.3-1.9,0.3c0,0.1,0.7-0.3,1.8,0.1c0.5,0.2,1.1,0.8,1.1,1.6c0.1,0.8-0.4,1.7-1.3,2.1c-1.8,0.8-4.5-1.8-3.9-4.5
		c0.3-1.3,1.4-2.5,2.7-3c1.3-0.4,2.9,0,4.1,1.1c1.3,1,1.2,2.7,1.6,4.4c0.3,1.6,0.9,3.3,2.3,4.3c0.7,0.4,1.5,0.6,2.3,0.4
		C91.4,115.8,92,115.2,92.4,114.6z"/>
	<polygon points="87.3,122.3 90.6,120.1 90.6,117.4 88,118.2 	"/>
	<polygon points="149.5,116.9 149.3,119.7 152.5,121.8 151.9,117.9 	"/>
	<path d="M175.3,75.4c-1.2-1.1-2.9-1.6-4.6-1.1s-2.9,2.1-3.3,3.9c-0.2,0.9-0.2,2,0.2,2.8c0.3,0.8,0.6,1.6,0.9,2.3
		c0.6,1.5,0.9,3.1,0.3,4.2c-0.6,1.2-2,1.6-3,1.1c-1-0.4-1-1.8-0.7-2.7c0.3-1,1.2-1.4,1.9-1.1s0.9,1.1,0.8,1.6
		c-0.1,0.5-0.6,0.7-0.9,0.7c-0.3,0-0.5,0-0.5,0s0.2,0.1,0.4,0.1c0.3,0.1,1-0.1,1.2-0.8c0.3-0.7,0.1-1.8-0.9-2.2
		c-0.9-0.4-2.3,0.2-2.7,1.4c-0.2,0.6-0.3,1.2-0.2,1.9c0.1,0.6,0.6,1.4,1.3,1.7c1.3,0.6,3.3,0.2,4-1.4c0.8-1.6,0.3-3.4-0.2-4.9
		c-0.5-1.6-1.5-3-1-4.5c0.3-1.5,1.4-2.9,2.7-3.3c1.2-0.4,2.8,0,3.7,0.9c2,1.9,1.1,5.5-0.8,5.9c-0.9,0.3-1.8-0.2-2.2-0.9
		c-0.4-0.7-0.2-1.4,0.1-1.9c0.6-1,1.4-1,1.4-1.1c0.1-0.1-0.8-0.3-1.7,0.8c-0.4,0.5-0.7,1.5-0.2,2.4c0.5,0.8,1.6,1.6,2.8,1.3
		C176.6,82,177.6,77.8,175.3,75.4z"/>
	<path d="M167.3,100.1c-0.7-1.1-2-1.3-2.9-1c-1,0.3-1.4,1.3-1.4,1.9c0,1.4,0.7,1.9,0.7,1.8c0.1,0-0.5-0.6-0.3-1.8
		c0.1-0.5,0.4-1.2,1.2-1.4c0.7-0.2,1.7,0.1,2.2,0.9c1.1,1.6-0.7,4.8-3.3,4.8c-1.2,0-2.6-0.8-3.3-2c-0.7-1.2-0.6-2.9,0.1-4.3
		c0.6-1.5,2.2-1.7,3.6-2.5c1.4-0.6,2.9-1.6,3.5-3.2c0.3-0.8,0.3-1.6-0.1-2.4c-0.4-0.8-1.1-1.3-1.7-1.5c-0.6-0.3-1.5-0.1-2,0.3
		c-0.6,0.4-1,0.9-1.2,1.5c-0.2,0.6-0.3,1.2-0.1,1.8c0.2,0.5,0.6,0.9,1.1,1.1c1,0.4,1.9-0.3,2.1-0.9c0.3-0.7-0.1-1.3-0.3-1.5
		s-0.4-0.2-0.4-0.2c-0.1,0,0.1,0.1,0.3,0.3c0.1,0.2,0.4,0.7,0.1,1.2c-0.2,0.5-0.9,0.9-1.6,0.6c-0.7-0.3-1.1-1.3-0.6-2.2
		c0.4-0.9,1.4-1.8,2.4-1.3c1.1,0.4,1.8,1.6,1.3,2.9c-0.5,1.2-1.8,2.1-3.1,2.7c-0.7,0.3-1.5,0.7-2.2,1c-0.8,0.3-1.5,1.1-1.9,1.9
		c-0.8,1.6-1,3.6-0.1,5.2c0.3,0.5,0.7,1,1.2,1.4c-0.2-0.1-0.4-0.2-0.6-0.3c-1.7-0.5-3.6,0.1-4.9,1.3c-0.7,0.6-1.3,1.5-1.4,2.4
		c-0.2,0.8-0.3,1.6-0.5,2.4c-0.3,1.5-0.9,3-2,3.6c-1.1,0.6-2.4,0.1-3-0.9c-0.6-0.9,0.1-2.2,0.9-2.7c0.8-0.6,1.8-0.5,2.2,0.2
		c0.4,0.7,0.2,1.5-0.2,1.8c-0.4,0.4-0.9,0.3-1.1,0.1c-0.2-0.2-0.4-0.3-0.4-0.3s0.1,0.2,0.2,0.5c0.2,0.2,0.8,0.4,1.4,0
		c0.6-0.3,1-1.4,0.4-2.3c-0.5-1-2-1.3-3-0.5c-0.5,0.3-0.9,0.8-1.2,1.4c-0.3,0.6-0.4,1.4,0,2.1c-0.4-0.5-1-0.7-1.5-0.7
		c-0.7,0-1.3,0.2-1.8,0.5c-0.5,0.3-0.9,0.8-1,1.4c-0.1,0.6,0,1.2,0.3,1.6c0.6,0.9,1.7,0.9,2.2,0.5c0.6-0.4,0.6-1.1,0.5-1.4
		c-0.1-0.4-0.2-0.5-0.2-0.5c-0.1,0,0,0.2-0.2,0.8c0.1,0.2,0,0.8-0.5,1c-0.4,0.2-1.2,0.2-1.6-0.5c-0.4-0.6-0.2-1.6,0.7-2.1
		c0.8-0.5,2.2-0.7,2.7,0.3c0.7,1,0.6,2.3-0.5,3.1c-1,0.7-2.5,0.7-4,0.4c-0.8-0.2-1.5-0.3-2.3-0.5c-0.8-0.2-1.9,0.1-2.6,0.5
		c-0.9,0.4-1.6,1.1-2.1,1.9c-1.1-0.7-2.5-0.9-3.9-0.7c-0.9,0.1-1.8,0.6-2.4,1.3c-0.5,0.7-1.1,1.3-1.6,1.9c-1.1,1.1-2.3,2.1-3.6,2
		c-1.3-0.1-2.2-1.3-2.2-2.5c-0.1-1.2,1.2-1.9,2.1-1.9c1-0.1,1.8,0.6,1.8,1.4c0.1,0.8-0.6,1.4-1.1,1.5c-0.5,0.2-0.9-0.2-1-0.5
		c-0.1-0.2-0.2-0.4-0.2-0.4s-0.1,0.2,0,0.6c0,0.3,0.5,0.9,1.2,0.8c0.7,0,1.5-0.7,1.5-1.8c0-0.5-0.3-1.1-0.7-1.5
		c-0.5-0.4-1.1-0.6-1.7-0.6c-0.6,0-1.2,0.2-1.8,0.6c-0.5,0.4-1.1,1.2-1,2c0-0.8-0.5-1.6-1.1-1.9c-0.6-0.4-1.2-0.5-1.8-0.5
		c-0.6,0-1.2,0.3-1.6,0.7c-0.4,0.4-0.5,1-0.5,1.5c0.1,1.1,1,1.7,1.7,1.7c0.8,0,1.1-0.6,1.2-0.9c0.1-0.3,0-0.5,0-0.5
		c-0.1,0-0.1,0.2-0.5,0.2c-0.1,0.2-0.4,0.7-1,0.6c-0.5,0-1.2-0.5-1.2-1.3c0-0.8,0.7-1.6,1.7-1.5c0.9,0,2.2,0.7,2.2,1.8
		c0.2,1.3-0.7,2.4-2,2.5c-1.2,0.1-2.6-0.8-3.7-1.8c-0.6-0.6-1.2-1.1-1.8-1.7c-0.6-0.6-1.6-1-2.5-1c-1.7-0.2-3.4,0.5-4.5,1.8
		c-0.4-1.4-1.5-2.7-2.8-3.3c-0.8-0.5-1.9-0.7-2.7-0.5c-0.8,0.1-1.6,0.3-2.4,0.4c-1.5,0.3-3.1,0.3-4.1-0.6c-1.1-0.8-1.1-2.3-0.4-3.3
		c0.6-1,2-0.8,2.8-0.2c0.8,0.6,1,1.6,0.6,2.3c-0.4,0.7-1.2,0.8-1.7,0.5s-0.5-0.8-0.5-1.1c0.1-0.3,0.1-0.5,0.1-0.5s-0.2,0.2-0.2,0.6
		c-0.1,0.3-0.1,1,0.5,1.4c0.6,0.4,1.7,0.4,2.3-0.5c0.3-0.4,0.4-1,0.3-1.6c-0.1-0.6-0.5-1.1-1-1.5c-0.5-0.4-1.1-0.7-1.8-0.7
		c-0.6-0.1-1.5,0.2-1.9,0.9c-0.5,0.6-0.8,1.4-0.7,2.2c0.1,0.8,0.5,1.6,1.1,2.2c1.3,1.2,3.1,1.1,4.7,0.9c1.6-0.2,3.2-1,4.5-0.1
		c1.4,0.7,2.5,2.1,2.6,3.6c0,0.1,0,0.2,0,0.2c-0.2,0.6-0.3,1.1-0.3,1.7c-0.3,0.7-0.8,1.4-1.4,1.7c-2.2,1.6-5.5-0.1-5.5-2.2
		c0-1,0.6-1.8,1.4-2.1c0.7-0.3,1.4,0.1,1.8,0.5c0.8,0.9,0.6,1.7,0.7,1.7s0.4-0.8-0.4-2c-0.3-0.5-1.2-1.1-2.2-0.7
		c-0.9,0.2-1.9,1.3-1.9,2.6c0,2.8,3.8,4.8,6.6,2.9c0.4-0.3,0.7-0.6,1-1c0.1,0.3,0.2,0.5,0.3,0.8c1.4,3.1,5.6,3.5,7,1.1
		c0.7-1.1,0.4-2.5-0.3-3.2c-0.7-0.8-1.7-0.8-2.3-0.6c-1.3,0.5-1.4,1.4-1.4,1.4c0.1,0,0.4-0.8,1.5-1.1c0.6-0.1,1.3-0.1,1.8,0.6
		c0.6,0.6,0.7,1.6,0.2,2.5c-1,1.8-4.6,1.5-5.7-1.1c-0.2-0.5-0.3-1.2-0.3-1.8c0.2-0.5,0.3-0.9,0.3-1.4c0.1-0.3,0.2-0.6,0.4-0.8
		c0.8-1.2,2.4-1.8,3.9-1.7c1.6,0,2.5,1.4,3.8,2.5c1.2,1.1,2.7,2.1,4.4,2c0.8-0.1,1.6-0.4,2.1-1.1c0.5-0.6,0.6-1.5,0.6-2.2
		c0.1,0.7,0.3,1.6,0.8,2.2c0.5,0.7,1.3,1,2.1,1.1c1.8,0.1,3.2-1.1,4.3-2.3c1.2-1.2,2-2.8,3.6-2.9c1.1-0.2,2.3,0,3.3,0.6
		c-0.2,0.4-0.3,0.9-0.3,1.4c0,1.6,0.6,3.1,1.6,4c-1.1,2.2-4.2,2.6-5.3,1.1c-0.6-0.9-0.6-1.9-0.1-2.6c0.4-0.8,1.1-0.9,1.7-0.8
		c1.2,0.2,1.5,1,1.6,0.9c0,0-0.2-0.9-1.5-1.3c-0.6-0.2-1.6-0.1-2.2,0.8c-0.6,0.7-0.8,2.1,0,3.2c1.4,2.1,4.9,1.6,6.4-0.8
		c2.7,1.7,6.3-0.2,6.3-2.9c0-1.3-0.9-2.3-1.8-2.5c-1-0.4-1.8,0.2-2.2,0.7c-0.8,1.1-0.4,2-0.4,1.9c0.1,0-0.1-0.8,0.7-1.7
		c0.4-0.5,1.1-0.8,1.8-0.5c0.7,0.2,1.3,1,1.3,2c0,2.1-3.2,3.7-5.3,2.1c0,0,0-0.1,0.1-0.1c0.5-1.6,0.2-3.5-0.9-4.9
		c-0.1-0.1-0.2-0.2-0.3-0.3c0.5-0.8,1.1-1.4,1.9-1.8c1.3-0.9,2.8-0.1,4.4,0.1c1.5,0.3,3.2,0.4,4.6-0.6c0.6-0.5,1.1-1.3,1.2-2.1
		c0.1-0.7-0.1-1.2-0.3-1.7c0.8,0.9,2.3,1.3,3.5,0.5c1.5-0.8,2.1-2.5,2.5-4.1c0.5-1.6,0.3-3.4,1.6-4.3c1.1-1,2.7-1.5,4-1.1
		c1.3,0.5,2.3,1.7,2.6,3c0.7,2.7-2,5.2-3.8,4.4c-0.9-0.4-1.4-1.3-1.3-2.1c0-0.8,0.6-1.3,1.1-1.5c1.1-0.4,1.8,0.1,1.8,0
		c0,0-0.6-0.7-1.9-0.3c-0.6,0.1-1.5,0.7-1.5,1.8c-0.1,0.9,0.4,2.2,1.6,2.7c2.4,1,5.5-1.9,4.9-5.2c-0.2-1.2-0.8-2.2-1.8-3
		c0.7,0.4,1.4,0.6,2.2,0.6C166.8,106.1,168.8,102.3,167.3,100.1z M135.8,121.9c0.8,1,1.1,2.5,0.9,3.8c-0.7-0.8-1.2-2-1.1-3.1
		C135.6,122.4,135.7,122.1,135.8,121.9C135.8,121.9,135.8,121.9,135.8,121.9z"/>
	<polygon points="168.6,90.6 169.9,93 173.7,92.8 171.1,90 	"/>
	<path d="M166.7,61C166.7,61,166.7,61,166.7,61C166.7,61,166.7,61,166.7,61C166.7,61,166.7,61,166.7,61z"/>
	<path d="M166.1,61.1c0,0.1,0.2,0,0.6-0.1c0,0-0.1,0-0.1,0C166.2,61,166.1,61.1,166.1,61.1z"/>
	<polygon points="173.7,56 169.9,55.7 168.4,57.8 170.9,58.7 	"/>
	<path d="M144.7,34.1c0,0.1,0,0.1,0,0.2C144.8,34.2,144.8,34.2,144.7,34.1c0.1-0.2,0.1-0.4,0-0.6C144.8,33.8,144.7,34,144.7,34.1z"
		/>
	<path d="M144.7,34.3c0,0.2,0,0.3,0,0.3S144.8,34.5,144.7,34.3z"/>
	<path d="M148.6,37c0,0,0-0.1,0.1-0.1C148.6,36.9,148.6,36.9,148.6,37C148.6,36.9,148.6,37,148.6,37z"/>
	<path d="M148.6,37c0,0.1-0.1,0.1-0.1,0.1S148.5,37,148.6,37z"/>
	<polygon points="151.5,28.2 148.3,30.4 148.4,33 150.9,32.1 	"/>
	<path d="M162.2,71c0,0,0,1,0.2,2.8C162.3,72,162.2,71,162.2,71z"/>
	<path d="M97.4,112.8c3.7,2.1,7.5,3.7,11.4,4.6c7.8,2,15.6,1.4,22.4-0.5c6.9-1.9,12.7-5.6,17.2-9.7c9.1-8.4,12.7-18.6,13.6-25.4
		c0.3-1.7,0.4-3.3,0.4-4.6c0.1-1.3,0.1-2.5,0-3.4c0,0.9,0,2.1-0.1,3.4c-0.1,1.4-0.1,2.9-0.5,4.6c-1.1,6.8-4.7,16.8-13.7,25
		c-4.4,4-10.1,7.6-16.9,9.4c-6.7,1.8-14.4,2.4-22,0.4c-3.8-0.9-7.5-2.5-11.1-4.6c-3.6-2-6.9-4.8-9.8-8c-6-6.4-9.9-15.1-10.8-24.5
		c-0.8-9.4,1.4-18.8,6.1-26.2c2.3-3.7,5-7.1,8.2-9.8c3.1-2.8,6.5-5.1,10.1-6.7c7.1-3.5,14.7-4.5,21.6-4c6.9,0.4,13.2,2.8,18.3,5.9
		c10.3,6.3,15.7,15.4,17.9,21.8c0.6,1.6,1,3.1,1.3,4.4c0.4,1.3,0.6,2.4,0.7,3.3c0.3,1.9,0.5,2.8,0.5,2.8s-0.1-1-0.4-2.8
		c-0.1-0.9-0.2-2-0.6-3.3c-0.3-1.4-0.7-2.9-1.3-4.5c-2.1-6.6-7.5-15.9-17.9-22.3c-5.2-3.1-11.5-5.6-18.6-6.1c-7-0.5-14.8,0.5-22,4
		c-3.7,1.6-7.1,4-10.3,6.8c-3.3,2.8-6.1,6.2-8.4,10c-4.8,7.6-7.1,17.2-6.3,26.8c1,9.5,4.9,18.5,11,25
		C90.3,107.9,93.7,110.7,97.4,112.8z"/>
	<polygon points="119.6,128.3 121.4,132 122.7,128.2 121.2,126 	"/>
	<path d="M26,13.6c-0.4,0-0.8-0.1-1.2-0.1c-1.2-0.2-2.6-0.3-4.1-0.5c0,0,0.1-0.1,0.2-0.1c0.3-0.2,0.8-0.5,1.5-1
		c1.1-0.7,2.6-1.8,4.4-2.6c0.9-0.3,1.8-0.5,2.1,0.2c0.3,0.6,0,1.4-0.5,1.5c-0.6,0.1-1-0.2-1.1-0.5c-0.1-0.3-0.1-0.5-0.2-0.5
		c-0.1,0-0.2,0.2-0.1,0.6c0,0.4,0.6,1.1,1.5,0.8c0.9-0.1,1.4-1.3,0.9-2.3c-0.2-0.5-0.8-0.9-1.4-0.9s-1.1,0.2-1.6,0.4
		c-0.1,0-0.1,0.1-0.2,0.1c0.3-0.3,0.6-0.6,0.9-1c0.5-0.6,0.9-1.4,1-2.3c0.1-0.9-0.4-1.8-1.1-2.3s-1.5-0.8-2.3-0.7
		c-1.6,0.3-2.3,2.2-1.6,3.2c0.4,0.5,0.8,0.8,1.3,0.9s0.9-0.3,1-0.6C25.6,5.3,25.5,5,25.5,5c-0.1,0-0.1,0.3-0.4,0.8
		C25,6,24.7,6.2,24.4,6.1c-0.3,0-0.7-0.3-0.9-0.7c-0.5-0.8,0.1-2.1,1.3-2.3C25.9,3,27.6,4,27.3,5.3c-0.1,1.3-1.3,2.4-2.2,3.4
		c-0.7,0.8-1.5,1.4-2.2,2c-0.4,0.3-0.7,0.6-1,0.8c-0.3,0.3-0.6,0.6-0.8,0.8c-0.2,0.2-0.4,0.4-0.6,0.5c-0.4-2-0.8-3.9-1.2-5.7V6.9
		h-0.2c-1.6-0.2-3-0.5-4.4-0.6c0.2-0.5,0.3-1,0.3-1.7c0-0.7-0.1-1.5-0.6-2c-0.7-0.6-1.5-0.7-2.2-0.5c-0.8,0.1-1.3,0.8-1.4,1.5
		c-0.1,0.7,0,1.4,0.6,1.8c0.5,0.3,1.1,0.2,1.6,0c1-0.7,0.3-2-0.3-1.8c-0.6,0.1-0.6,0.5-0.6,0.5s0.1-0.3,0.4-0.4
		c0.2,0,0.4,0.2,0.5,0.5c0,0.3-0.1,0.7-0.4,0.9c-0.3,0.1-0.8,0.1-1.2-0.1C11,4.8,10.9,4.2,11,3.7c0.1-1.2,1.9-1.6,2.8-0.8
		c0.8,0.8,0.5,2.2,0.3,3.3c-1.7-0.2-3.3-0.5-4.8-0.7c-1-0.1-1.9-0.2-2.7-0.3C6,5.1,5.7,5.1,5.7,5.1c0.1,0,0.4,0.1,1.1,0.2
		c0.8,0.1,1.7,0.3,2.7,0.5c1.3,0.3,2.8,0.5,4.4,0.8c-0.3,1-0.7,2-0.9,2.8c-0.3,0.9-0.6,1.5-0.8,2c-0.1,0.1-0.1,0.2-0.2,0.3
		c0-0.2-0.1-0.7-0.4-1.3c-0.5-0.8-1.5-1.9-3-2.1L8.1,8.2l0.1,0.5v0.2c0.4,1.5,1.2,2.7,2.2,3.1c0.5,0.2,1,0.2,1.3,0.1l0,0.2
		c-0.1,0-0.2,0.1-0.3,0.1c-0.5,0.2-1.1,0.5-2,0.8c-0.6,0.2-1.3,0.5-2.1,0.7C7,12.2,6.8,10.5,6.5,9.1C6.3,8,6.1,7.1,5.9,6.3
		C6,7.1,6.1,8,6.2,8.9c0.2,1.5,0.5,3.3,0.7,5.2c-0.2,0-0.3,0.1-0.5,0.1c-1.1,0.3-2.6,0.7-3.5-0.2c-0.8-1-0.4-2.7,0.8-2.8
		c0.5-0.1,1.1,0,1.3,0.4c0.3,0.3,0.3,0.9,0.1,1.2c-0.2,0.4-0.6,0.5-0.9,0.4c-0.3,0-0.5-0.3-0.5-0.5c0.1-0.4,0.5-0.6,0.4-0.6
		c0-0.1-0.4-0.1-0.7,0.5c-0.1,0.7,1.2,1.3,1.9,0.3c0.3-0.4,0.3-1,0-1.6c-0.4-0.6-1.2-0.7-1.8-0.6c-0.6,0.1-1.3,0.7-1.5,1.4
		c-0.2,0.8,0,1.6,0.5,2.2C3.1,14.9,3.9,15,4.6,15c0.7,0,1.4-0.2,1.9-0.2c0.2-0.1,0.3-0.1,0.5-0.2c0.2,1.4,0.4,3,0.6,4.6v0.2h0.2
		c1.5,0.3,3.2,0.6,4.9,0.9c-0.2,0.2-0.5,0.6-0.8,0.9c-0.1,0.1-0.3,0.3-0.5,0.4c-0.4,0.4-0.8,0.9-1.2,1.5c-0.5,0.5-1,1.1-1.5,1.7
		c-0.9,0.9-2,2.1-3.4,2.2C4,27.2,3,25.5,3.1,24.5c0.2-1.2,1.6-1.8,2.3-1.3c0.3,0.2,0.6,0.6,0.7,0.9c0.1,0.3-0.1,0.6-0.3,0.7
		C5.3,25.1,5,25.1,5,25.2c0,0,0.3,0.1,0.7-0.1c0.3-0.1,0.7-0.5,0.6-1c-0.1-0.5-0.4-1-0.9-1.3c-1-0.8-2.9,0-3.2,1.6
		c-0.1,0.9,0.2,1.6,0.7,2.3c0.4,0.7,1.4,1.2,2.3,1.1c0.9-0.1,1.7-0.5,2.3-1c0.4-0.4,0.8-0.7,1.2-1.1c-0.1,0.1-0.1,0.3-0.2,0.4
		c-0.2,0.5-0.4,1-0.4,1.6c0,0.6,0.4,1.2,0.9,1.4c0.9,0.5,2.1,0,2.3-0.9c0.2-0.8-0.5-1.4-0.9-1.4c-0.4-0.1-0.6,0.1-0.6,0.1
		c0,0.1,0.2,0.1,0.5,0.2c0.3,0.1,0.6,0.6,0.5,1.1c-0.1,0.5-0.9,0.8-1.5,0.5c-0.7-0.3-0.6-1.2-0.2-2.1c0.8-1.8,1.9-3.3,2.6-4.4
		c0.7-0.9,1.1-1.5,1.2-1.7c0.4,2.7,0.8,4.9,1.2,6.4c0,0.4,0,0.8,0.2,1.1c0.3,1,0.8,2,2,2.7c0.9,0.7,2.1,0.9,3.2,0.7
		c1.1-0.3,2-0.8,2.6-1.6c0.7-0.7,0.8-1.9,0.4-2.7c-0.4-0.8-1.1-1.3-1.8-1.6c-0.7-0.3-1.6-0.2-2,0.3c-0.4,0.4-0.6,1-0.6,1.4
		c0,0.9,0.5,1.1,0.5,1.1s-0.3-0.4-0.3-1.1s0.9-1.8,2.1-1.2c1.1,0.4,2.2,2.1,1,3.4c-1.1,1.3-3.3,2-4.8,0.7c-1.5-1.2-2.1-3.4-1.3-4.9
		c0.7-1.5,2.1-2.5,3.3-3c0.8-0.3,1.6-0.4,2.2-0.4c0.3,0.1,0.7,0.1,1,0.2c0.5,0.2,0.8,0.4,0.8,0.3c0,0-0.1-0.1-0.2-0.2c0,0,0,0,0,0
		l0,0l-0.1-0.5c-0.1-0.5-0.2-1-0.3-1.5c0-0.6,0.1-1.4,0.5-2.1c0.5-1.3,1.5-2.7,3.1-3.5c0.5-0.3,1.1-0.4,1.7-0.4c0.2,0,0.5,0,0.7,0
		c0.1,0,0.2,0,0.3,0c0.9,0.2,1.8,0.6,2.4,1.4c1.3,1.5,0.5,3.8-0.8,4.9c-0.6,0.6-1.4,0.8-2.1,0.5c-0.7-0.2-1.2-0.8-1.4-1.4
		c-0.5-1.2,0.6-2.2,1.3-2.2c0.7-0.1,1.1,0.3,1.1,0.2c0.1,0-0.2-0.5-1.1-0.5c-0.5,0-1,0.3-1.4,0.7c-0.5,0.4-0.7,1.3-0.4,2
		s0.8,1.4,1.7,1.8c0.9,0.4,2,0.2,2.8-0.5c0.7-0.6,1.3-1.5,1.6-2.6c0.3-1.1,0-2.4-0.7-3.3C29.9,13.6,27.7,13,26,13.6z M13.5,19.8
		c-0.3-2.3-0.6-4.7-0.9-7.2c0,0,0,0,0,0c2.6,0.3,5.1,0.5,7.3,0.8c0.5,2.5,1,5.1,1.6,7.8C18.7,20.7,16,20.3,13.5,19.8z M13.4,9.5
		c0.4-0.8,0.8-1.7,1.1-2.8c1.3,0.2,2.7,0.5,4.2,0.8c0.3,1.7,0.7,3.5,1.1,5.4c-2.2-0.3-4.6-0.6-7.2-0.9c-0.2-0.1-0.3-0.1-0.5-0.1
		C12.4,11.5,12.9,10.7,13.4,9.5z M10.5,11.7c-0.6-0.4-1.3-1.3-1.6-2.5c1,0.3,1.8,1,2.2,1.6c0.6,0.6,0.8,1,0.9,1.1l-0.4-0.1l0,0
		C11.4,11.8,11,11.8,10.5,11.7z M7.4,14.5c0.8-0.3,1.5-0.6,2.1-0.9c1-0.4,1.8-0.8,2.2-1.1c0.3,2.6,0.7,5,1,7.2
		c-1.6-0.3-3.1-0.6-4.6-0.8C7.9,17.3,7.6,15.8,7.4,14.5z M18.2,21.8c-1.3,0.5-2.8,1.4-3.7,3.2c-0.1,0.2-0.2,0.4-0.3,0.6
		c-0.1-0.5-0.2-1-0.2-1.6c-0.1-1.2-0.3-2.3-0.4-3.6c1.8,0.3,3.8,0.7,5.7,1.1C19,21.6,18.6,21.7,18.2,21.8z M22,17.7
		c-0.1,0.4-0.2,0.7-0.3,1.1c-0.4-1.8-0.7-3.6-1.1-5.3c1.6,0.2,3,0.3,4.2,0.4c0.2,0,0.3,0,0.4,0C23.5,14.8,22.5,16.4,22,17.7z"/>
	<path d="M5.9,5.9C5.8,5.4,5.7,5.1,5.7,5.1S5.7,5.4,5.9,5.9z"/>
	<path d="M5.9,5.9c0,0.1,0,0.2,0,0.3c0,0,0,0.1,0,0.1c0-0.1,0-0.1,0-0.2C5.9,6,5.9,6,5.9,5.9z"/>
	<path d="M30.3,129.1c-0.8-0.7-1.9-0.9-2.8-0.5c-0.9,0.4-1.4,1.1-1.7,1.8c-0.3,0.7-0.1,1.6,0.4,2c0.4,0.4,0.9,0.7,1.4,0.7
		c0.9,0,1.2-0.5,1.1-0.5c0-0.1-0.4,0.3-1.1,0.2c-0.7,0-1.8-1-1.3-2.2c0.2-0.6,0.7-1.2,1.4-1.4c0.7-0.3,1.5-0.1,2.1,0.5
		c1.3,1.1,2.1,3.4,0.8,4.9c-0.6,0.8-1.5,1.2-2.4,1.4c-0.1,0-0.2,0-0.3,0c-0.2,0-0.4,0-0.7,0c-0.6,0-1.1-0.1-1.7-0.4
		c-1.6-0.8-2.6-2.2-3.1-3.4c-0.4-0.8-0.5-1.6-0.5-2.2c0.1-0.5,0.2-1,0.3-1.5l0.1-0.5c0.1-0.1,0.2-0.2,0.2-0.2c0-0.1-0.3,0.1-0.8,0.3
		c-0.4,0.1-0.7,0.1-1,0.2c-0.6,0-1.4-0.1-2.2-0.4c-1.2-0.5-2.6-1.5-3.3-3c-0.8-1.5-0.2-3.7,1.3-4.9c1.5-1.3,3.7-0.6,4.8,0.7
		c1.2,1.3,0.1,3-1,3.4c-1.2,0.6-2.1-0.5-2.1-1.2s0.3-1.1,0.3-1.1S18,122.1,18,123c0,0.4,0.2,1,0.6,1.4c0.4,0.5,1.3,0.6,2,0.3
		c0.7-0.3,1.4-0.8,1.8-1.6c0.4-0.8,0.3-2-0.4-2.7c-0.6-0.8-1.5-1.3-2.6-1.6c-1.1-0.2-2.3,0-3.2,0.7c-0.8,0.6-1.3,1.5-1.6,2.4
		c0.1-0.3,0.1-0.6,0.1-0.6c-0.3-0.1-1,3.3-1.8,8.4c-0.1-0.2-0.5-0.8-1.2-1.7c-0.7-1.1-1.8-2.6-2.6-4.4c-0.4-0.9-0.5-1.8,0.2-2.1
		c0.6-0.3,1.4,0,1.5,0.5c0.1,0.5-0.2,1-0.5,1.1c-0.3,0.1-0.5,0.1-0.5,0.2c0,0,0.2,0.2,0.6,0.1c0.4,0,1.1-0.6,0.9-1.4
		c-0.2-0.9-1.4-1.4-2.3-0.9c-0.5,0.2-0.9,0.8-0.9,1.4s0.2,1.1,0.4,1.6c0.1,0.1,0.1,0.3,0.2,0.4c-0.4-0.4-0.8-0.7-1.2-1.1
		c-0.6-0.5-1.4-0.9-2.3-1c-0.9-0.1-1.9,0.4-2.3,1.1c-0.5,0.7-0.8,1.4-0.7,2.3c0.3,1.6,2.2,2.4,3.2,1.6c0.5-0.3,0.8-0.8,0.9-1.3
		c0.1-0.5-0.3-0.9-0.6-1C5.3,124.9,5,125,5,125c0,0.1,0.3,0.1,0.8,0.4c0.2,0.1,0.4,0.4,0.3,0.7c-0.1,0.3-0.4,0.7-0.7,0.9
		c-0.7,0.5-2.1-0.1-2.3-1.3c-0.1-1,0.9-2.7,2.2-2.5c1.4,0.1,2.5,1.3,3.4,2.2c0.6,0.6,1.1,1.2,1.5,1.7c0.4,0.5,0.8,1,1.2,1.5
		c0.2,0.1,0.3,0.3,0.5,0.4c0.3,0.4,0.6,0.7,0.8,0.9c-1.7,0.3-3.3,0.6-4.9,0.9H7.6v0.2c-0.2,1.6-0.4,3.1-0.6,4.6
		c-0.2-0.1-0.3-0.1-0.5-0.2c-0.6-0.2-1.2-0.4-1.9-0.4c-0.7,0-1.5,0.1-2.1,0.7c-0.5,0.6-0.7,1.4-0.5,2.2c0.2,0.7,0.9,1.3,1.5,1.4
		c0.6,0.1,1.4,0,1.8-0.6c0.3-0.6,0.3-1.2,0-1.6c-0.7-1-2-0.4-1.9,0.3c0.3,0.8,0.7,0.8,0.7,0.7c0.1,0-0.3-0.2-0.4-0.6
		c0-0.2,0.2-0.5,0.5-0.5c0.3-0.1,0.7,0,0.9,0.4c0.2,0.3,0.2,0.9-0.1,1.2c-0.2,0.4-0.8,0.5-1.3,0.4c-1.2-0.1-1.6-1.8-0.8-2.8
		c0.9-0.9,2.4-0.5,3.5-0.2c0.2,0,0.4,0.1,0.5,0.1c-0.3,1.9-0.5,3.6-0.7,5.2c-0.1,0.9-0.2,1.8-0.3,2.6c0.2-0.9,0.3-1.7,0.5-2.8
		c0.3-1.4,0.5-3.1,0.8-4.9c0.8,0.3,1.6,0.5,2.2,0.8c0.9,0.3,1.5,0.6,2,0.8c0.1,0,0.2,0.1,0.3,0.1l0,0.2c-0.3-0.1-0.7-0.1-1.3,0.1
		c-1,0.4-1.8,1.6-2.2,3.1v0.2L8.1,142l0.5-0.1c1.5-0.2,2.5-1.3,3-2.1c0.5-0.9,0.5-1.4,0.4-1.5l0.1,0c0,0,0,0,0.1,0
		c0,0.1,0.1,0.2,0.1,0.3c0.2,0.5,0.5,1.1,0.8,2c0.3,0.9,0.7,1.9,1,3c0,0,0,0,0,0.1c-1.7,0.3-3.3,0.6-4.7,0.8
		c-0.9,0.2-1.7,0.4-2.5,0.5c0.7-0.1,1.5-0.2,2.4-0.3c1.5-0.2,3.1-0.4,4.9-0.7c0.3,1,0.5,2.3-0.3,3.1c-0.9,0.8-2.7,0.4-2.8-0.8
		c-0.1-0.5,0-1.1,0.4-1.3s0.9-0.2,1.2-0.1c0.3,0.2,0.4,0.6,0.4,0.9c-0.1,0.3-0.3,0.5-0.5,0.5c-0.4,0.1-0.5-0.2-0.5-0.2
		s0,0.4,0.6,0.5c0.7,0.2,1.3-1.2,0.3-1.9c-0.5-0.2-1.1-0.3-1.6,0c-0.6,0.4-0.7,1.1-0.6,1.8c0.1,0.7,0.6,1.4,1.4,1.5
		c0.7,0.2,1.5,0.1,2.2-0.5c0.6-0.5,0.8-1.4,0.7-2.1c0-0.5-0.1-1-0.3-1.5c1.3-0.2,2.8-0.4,4.3-0.6h0.2v-0.2c0.4-1.8,0.8-3.7,1.2-5.7
		c0.2,0.2,0.4,0.3,0.6,0.5c0.2,0.2,0.5,0.5,0.8,0.8c0.3,0.3,0.6,0.5,1,0.8c0.7,0.6,1.5,1.2,2.2,2c0.9,1,2.1,2.1,2.2,3.4
		c0.2,1.4-1.5,2.3-2.5,2.2c-1.2-0.2-1.8-1.5-1.3-2.3c0.2-0.4,0.6-0.7,0.9-0.7c0.3-0.1,0.6,0.1,0.7,0.3c0.3,0.5,0.3,0.8,0.4,0.8
		c0,0,0.1-0.3-0.1-0.9c-0.1-0.3-0.5-0.7-1-0.6s-0.9,0.4-1.3,0.9c-0.7,1,0,2.9,1.6,3.2c0.8,0.1,1.6-0.2,2.3-0.7s1.2-1.4,1.1-2.3
		c-0.1-0.9-0.5-1.7-1-2.3c-0.3-0.4-0.6-0.7-0.9-1c0.1,0,0.1,0.1,0.2,0.1c0.5,0.2,1,0.4,1.6,0.4s1.2-0.4,1.4-0.9c0.5-1,0-2.2-0.9-2.3
		c-0.9-0.1-1.4,0.5-1.4,0.9c-0.1,0.4,0.1,0.6,0.1,0.6c0.1,0,0.1-0.2,0.2-0.5c0.1-0.3,0.5-0.6,1.1-0.5c0.5,0.1,0.8,0.9,0.5,1.5
		c-0.3,0.7-1.2,0.5-2.1,0.2c-1.8-0.8-3.3-1.9-4.4-2.6c-0.7-0.5-1.2-0.8-1.6-1.1c-0.1,0-0.1-0.1-0.2-0.1c1.5-0.2,2.9-0.4,4.1-0.5
		c0.4,0,0.8-0.1,1.2-0.1c1.7,0.6,3.9,0,5.2-1.6c0.7-0.9,1-2.2,0.7-3.3C31.6,130.6,31,129.7,30.3,129.1z M13.5,130.4
		c2.5-0.4,5.1-0.9,7.9-1.4c-0.6,2.7-1.1,5.4-1.6,7.9c-2.2,0.2-4.7,0.5-7.2,0.8c0,0,0,0,0,0C12.9,135,13.2,132.6,13.5,130.4z
		 M14.4,123.8c0.1,0.5,0.2,1,0.4,1.4c0.9,1.8,2.4,2.7,3.7,3.2c0.3,0.1,0.6,0.2,0.9,0.3c-2,0.4-4,0.8-5.9,1.1
		c0.1-1.2,0.3-2.4,0.4-3.6C14.1,125.3,14.3,124.6,14.4,123.8z M9.5,136.6c-0.6-0.3-1.4-0.6-2.2-0.9c0.2-1.4,0.5-2.8,0.7-4.3
		c1.5-0.3,3.1-0.6,4.7-0.9c-0.3,2.2-0.7,4.6-1,7.2C11.3,137.4,10.5,137,9.5,136.6z M11.1,139.4c-0.4,0.6-1.2,1.3-2.2,1.6
		c0.3-1.1,1-2.1,1.6-2.5c0.5-0.1,0.9-0.1,1.1-0.1l0,0l0.4-0.1C11.9,138.4,11.7,138.8,11.1,139.4z M18.6,142.8
		c-1.4,0.3-2.7,0.5-3.9,0.7c0,0,0,0,0-0.1c-0.4-1.2-0.8-2.2-1.2-3c-0.4-1-0.8-1.8-1.1-2.2c0.1,0,0.1,0,0.2-0.1
		c2.5-0.3,4.9-0.6,7.1-0.9C19.3,139.3,19,141.1,18.6,142.8z M20.6,136.7c0.4-1.7,0.7-3.5,1.1-5.3c0.1,0.3,0.2,0.7,0.3,1.1
		c0.5,1.3,1.5,2.9,3.2,3.8c-0.1,0-0.3,0-0.4,0C23.6,136.4,22.2,136.6,20.6,136.7z"/>
	<path d="M5.7,145.1c0,0,0.1-0.3,0.2-0.8C5.7,144.8,5.7,145.1,5.7,145.1z"/>
	<path d="M6.6,145c-0.5,0-0.8,0.1-0.9,0.1C5.7,145.1,6,145.1,6.6,145z"/>
	<path d="M5.9,143.9c0,0,0,0.1,0,0.1c0,0.1,0,0.2,0,0.3c0-0.1,0-0.1,0-0.2C5.9,144,5.9,143.9,5.9,143.9z"/>
	<path d="M6.6,145c0,0,0.1,0,0.1,0c0.1,0,0.2,0,0.2,0C6.8,145,6.7,145,6.6,145C6.6,145,6.6,145,6.6,145z"/>
	<path d="M209.2,21.1c0.8,0.7,1.9,0.9,2.8,0.5c0.9-0.4,1.4-1.1,1.7-1.8c0.3-0.7,0.1-1.6-0.4-2c-0.4-0.4-0.9-0.7-1.4-0.7
		c-0.9,0-1.2,0.5-1.1,0.5c0,0.1,0.4-0.3,1.1-0.2c0.7,0,1.8,1,1.3,2.2c-0.2,0.6-0.7,1.2-1.4,1.4c-0.7,0.3-1.5,0.1-2.1-0.5
		c-1.3-1.1-2.1-3.4-0.8-4.9c0.6-0.8,1.5-1.2,2.4-1.4c0.1,0,0.2,0,0.3,0c0.2,0,0.4,0,0.7,0c0.6,0,1.1,0.1,1.7,0.4
		c1.6,0.8,2.6,2.2,3.1,3.4c0.4,0.8,0.5,1.6,0.5,2.2c-0.1,0.5-0.2,1-0.3,1.5l-0.1,0.5c-0.1,0.1-0.2,0.2-0.2,0.2
		c0,0.1,0.3-0.1,0.8-0.3c0.4-0.1,0.7-0.1,1-0.2c0.6,0,1.4,0.1,2.2,0.4c1.2,0.5,2.6,1.5,3.3,3c0.8,1.5,0.2,3.7-1.3,4.9
		c-1.5,1.3-3.7,0.6-4.8-0.7c-1.2-1.3-0.1-3,1-3.4c1.2-0.6,2.1,0.5,2.1,1.2s-0.3,1.1-0.3,1.1s0.5-0.2,0.5-1.1c0-0.4-0.2-1-0.6-1.4
		c-0.4-0.5-1.3-0.6-2-0.3c-0.7,0.3-1.4,0.8-1.8,1.6c-0.4,0.8-0.3,2,0.4,2.7c0.6,0.8,1.5,1.3,2.6,1.6c1.1,0.2,2.3,0,3.2-0.7
		c0.8-0.6,1.3-1.5,1.6-2.3c-0.1,0.3-0.1,0.5-0.1,0.5c0.3,0.1,1-3.3,1.8-8.4c0.1,0.2,0.5,0.8,1.2,1.7c0.7,1.1,1.8,2.6,2.6,4.4
		c0.4,0.9,0.5,1.8-0.2,2.1c-0.6,0.3-1.4,0-1.5-0.5c-0.1-0.5,0.2-1,0.5-1.1c0.3-0.1,0.5-0.1,0.5-0.2c0,0-0.2-0.2-0.6-0.1
		c-0.4,0-1.1,0.6-0.9,1.4c0.2,0.9,1.4,1.4,2.3,0.9c0.5-0.2,0.9-0.8,0.9-1.4c0-0.6-0.2-1.1-0.4-1.6c-0.1-0.1-0.1-0.3-0.2-0.4
		c0.4,0.4,0.8,0.7,1.2,1.1c0.6,0.5,1.4,0.9,2.3,1c0.9,0.1,1.9-0.4,2.3-1.1c0.5-0.7,0.8-1.4,0.7-2.3c-0.3-1.6-2.2-2.4-3.2-1.6
		c-0.5,0.3-0.8,0.8-0.9,1.3s0.3,0.9,0.6,1c0.6,0.2,0.9,0.2,0.9,0.1c0-0.1-0.3-0.1-0.8-0.4c-0.2-0.1-0.4-0.4-0.3-0.7
		c0.1-0.3,0.4-0.7,0.7-0.9c0.7-0.5,2.1,0.1,2.3,1.3c0.1,1-0.9,2.7-2.2,2.5c-1.4-0.1-2.5-1.3-3.4-2.2c-0.9-1-1.7-1.9-2.4-2.7
		c-0.7-0.8-1.3-1.4-1.8-1.8c1.7-0.3,3.3-0.6,4.9-0.9h0.2v-0.2c0.2-1.6,0.4-3.1,0.6-4.6c0.2,0.1,0.3,0.1,0.5,0.2
		c0.6,0.2,1.2,0.4,1.9,0.4s1.5-0.1,2.1-0.7c0.5-0.6,0.7-1.4,0.5-2.2c-0.2-0.7-0.9-1.3-1.5-1.4c-0.6-0.1-1.4,0-1.8,0.6
		c-0.3,0.6-0.3,1.2,0,1.6c0.7,1,2,0.4,1.9-0.3c-0.3-0.8-0.7-0.8-0.7-0.7c-0.1,0,0.3,0.2,0.4,0.6c0,0.2-0.2,0.5-0.5,0.5
		c-0.3,0.1-0.7,0-0.9-0.4c-0.2-0.3-0.2-0.9,0.1-1.2c0.2-0.4,0.8-0.5,1.3-0.4c1.2,0.1,1.6,1.8,0.8,2.8c-0.9,0.9-2.4,0.5-3.5,0.2
		c-0.2,0-0.4-0.1-0.5-0.1c0.3-1.9,0.5-3.6,0.7-5.2c0.1-0.9,0.2-1.8,0.3-2.6c-0.2,0.8-0.4,1.7-0.6,2.8c-0.3,1.4-0.5,3.1-0.8,4.8
		c-0.8-0.2-1.5-0.5-2.1-0.7c-0.9-0.3-1.5-0.6-2-0.8c-0.1,0-0.2-0.1-0.3-0.1l0-0.2c0.3,0.1,0.7,0.1,1.3-0.1c1-0.4,1.8-1.6,2.2-3.1
		V8.7l0.1-0.5l-0.5,0.1c-1.5,0.2-2.5,1.3-3,2.1c-0.5,0.9-0.5,1.4-0.4,1.5l-0.1,0c0,0,0,0-0.1,0c0-0.1-0.1-0.2-0.1-0.3
		c-0.2-0.5-0.5-1.1-0.8-2c-0.3-0.9-0.7-1.9-1-3c0,0,0-0.1,0-0.1c1.7-0.3,3.2-0.6,4.6-0.8c0.8-0.2,1.5-0.3,2.2-0.4
		c-0.6,0.1-1.3,0.1-2,0.2c-1.5,0.2-3.1,0.4-4.9,0.7c-0.3-1-0.5-2.3,0.3-3.1c0.9-0.8,2.7-0.4,2.8,0.8c0.1,0.5,0,1.1-0.4,1.3
		c-0.4,0.2-0.9,0.2-1.2,0.1c-0.3-0.2-0.4-0.6-0.4-0.9c0.1-0.3,0.3-0.5,0.5-0.5c0.4-0.1,0.5,0.2,0.5,0.2s0-0.4-0.6-0.5
		c-0.7-0.2-1.3,1.2-0.3,1.9c0.5,0.2,1.1,0.3,1.6,0c0.6-0.4,0.7-1.1,0.6-1.8c-0.1-0.7-0.6-1.4-1.4-1.5c-0.7-0.2-1.5-0.1-2.2,0.5
		c-0.6,0.5-0.8,1.4-0.7,2.1c0,0.5,0.1,1,0.3,1.5c-1.3,0.2-2.8,0.4-4.3,0.6h-0.2v0.2c-0.4,1.8-0.8,3.7-1.2,5.7
		c-0.2-0.2-0.4-0.3-0.6-0.5c-0.2-0.2-0.5-0.5-0.8-0.8c-0.3-0.3-0.6-0.5-1-0.8c-0.7-0.6-1.5-1.2-2.2-2c-0.9-1-2.1-2.1-2.2-3.4
		c-0.2-1.4,1.5-2.3,2.5-2.2c1.2,0.2,1.8,1.5,1.3,2.3c-0.2,0.4-0.6,0.7-0.9,0.7c-0.3,0.1-0.6-0.1-0.7-0.3C214.1,5.4,214,5,214,5.1
		c0,0-0.1,0.3,0.1,0.9c0.1,0.3,0.5,0.7,1,0.6c0.5-0.1,0.9-0.4,1.3-0.9c0.7-1,0-2.9-1.6-3.2c-0.8-0.1-1.6,0.2-2.3,0.7
		s-1.2,1.4-1.1,2.3c0.1,0.9,0.5,1.7,1,2.3c0.2,0.3,0.5,0.6,0.7,0.8c0,0,0,0,0,0c-0.5-0.2-1-0.4-1.6-0.4c-0.6,0-1.2,0.4-1.4,0.9
		c-0.5,1,0,2.2,0.9,2.3c0.9,0.1,1.4-0.5,1.4-0.9c0.1-0.4-0.1-0.6-0.1-0.6c-0.1,0-0.1,0.2-0.2,0.5c-0.1,0.3-0.5,0.6-1.1,0.5
		c-0.5-0.1-0.8-0.9-0.5-1.5c0.3-0.7,1.2-0.5,2.1-0.2c1.6,0.7,2.9,1.6,3.9,2.3c0.1,0.1,0.2,0.1,0.3,0.2c0.8,0.5,1.5,1,1.9,1.3
		c-1.5,0.2-2.9,0.3-4,0.5c-0.4,0-0.8,0.1-1.2,0.1c-1.7-0.6-3.9,0-5.2,1.6c-0.7,0.9-1,2.2-0.7,3.3S208.5,20.5,209.2,21.1z M226,19.8
		c-2.5,0.5-5.2,0.9-8,1.4c0.6-2.7,1.1-5.4,1.6-7.8c2.2-0.2,4.7-0.5,7.3-0.8c0,0,0,0,0,0C226.6,15.2,226.3,17.6,226,19.8z
		 M225.1,26.4c-0.1-0.5-0.2-1-0.4-1.4c-0.9-1.8-2.4-2.7-3.7-3.2c-0.3-0.1-0.6-0.2-0.9-0.3c2-0.4,4-0.8,5.9-1.1
		c-0.1,1.2-0.3,2.4-0.4,3.6C225.4,24.9,225.2,25.6,225.1,26.4z M230,13.6c0.6,0.3,1.3,0.6,2.1,0.9c-0.2,1.4-0.5,2.8-0.7,4.4
		c-1.5,0.3-3,0.6-4.6,0.8c0.3-2.2,0.7-4.6,1-7.2C228.2,12.8,229,13.2,230,13.6z M228.4,10.8c0.4-0.6,1.2-1.3,2.2-1.6
		c-0.3,1.1-1,2.1-1.6,2.5c-0.5,0.1-0.9,0.1-1.1,0.1l0,0l-0.4,0.1C227.6,11.8,227.8,11.4,228.4,10.8z M220.8,7.4
		c1.4-0.3,2.7-0.5,4-0.7c0,0,0,0,0,0.1c0.4,1.2,0.8,2.2,1.2,3c0.4,1,0.8,1.8,1.1,2.2c-0.1,0-0.1,0-0.2,0.1c-2.6,0.3-5,0.6-7.2,0.9
		C220.1,11,220.4,9.1,220.8,7.4z M218.9,13.5c-0.4,1.7-0.7,3.5-1.1,5.3c-0.1-0.3-0.2-0.7-0.3-1.1c-0.5-1.3-1.5-2.9-3.2-3.8
		c0.1,0,0.3,0,0.4,0C215.9,13.8,217.3,13.6,218.9,13.5z"/>
	<path d="M233.6,6.3c0,0,0-0.1,0-0.1c0-0.1,0-0.2,0-0.3c0,0.1,0,0.1,0,0.2C233.6,6.2,233.6,6.2,233.6,6.3z"/>
	<path d="M233.8,5.1c0,0-0.1,0.3-0.2,0.8C233.8,5.4,233.8,5.1,233.8,5.1z"/>
	<path d="M233,5.2c-0.1,0-0.2,0-0.3,0c-0.2,0-0.3,0.1-0.5,0.1C232.4,5.3,232.7,5.2,233,5.2C232.9,5.2,232.9,5.2,233,5.2z"/>
	<path d="M233,5.2c0.5,0,0.8-0.1,0.8-0.1C233.8,5.1,233.5,5.1,233,5.2z"/>
	<path d="M233.8,145.1c-0.1,0-0.4-0.1-0.9-0.1C233.5,145.1,233.8,145.1,233.8,145.1z"/>
	<path d="M233.7,144.6c0.1,0.3,0.1,0.5,0.1,0.5S233.8,144.9,233.7,144.6z"/>
	<path d="M232.6,145c0.1,0,0.2,0,0.2,0c0.1,0,0.1,0,0.1,0c0,0,0,0,0,0C232.8,145,232.7,145,232.6,145z"/>
	<path d="M233.7,144.6c0-0.2-0.1-0.4-0.1-0.6c-0.1-0.5-0.2-1-0.3-1.5c0.1,0.5,0.1,1,0.2,1.5C233.6,144.3,233.7,144.5,233.7,144.6z"
		/>
	<path d="M234.9,135c-0.7,0-1.3,0.2-1.9,0.4c-0.2,0.1-0.4,0.1-0.6,0.2c-0.2-1.5-0.4-3-0.6-4.7v-0.2h-0.2c-1.5-0.3-3-0.5-4.7-0.8
		c0.4-0.4,1-1,1.7-1.8c0.7-0.8,1.5-1.7,2.4-2.7c0.9-0.9,2-2.1,3.4-2.2c1.3-0.2,2.3,1.5,2.2,2.5c-0.2,1.2-1.6,1.8-2.3,1.3
		c-0.3-0.2-0.6-0.6-0.7-0.9c-0.1-0.3,0.1-0.6,0.3-0.7c0.5-0.3,0.8-0.3,0.8-0.4s-0.3-0.1-0.9,0.1c-0.3,0.1-0.7,0.5-0.6,1
		s0.4,1,0.9,1.3c1,0.8,2.9,0,3.2-1.6c0.1-0.9-0.2-1.6-0.7-2.3c-0.4-0.7-1.4-1.2-2.3-1.1c-0.9,0.1-1.7,0.5-2.3,1
		c-0.4,0.4-0.8,0.7-1.2,1.1c0.1-0.1,0.1-0.3,0.2-0.4c0.2-0.5,0.4-1,0.4-1.6s-0.4-1.2-0.9-1.4c-0.9-0.5-2.1,0-2.3,0.9
		c-0.2,0.8,0.5,1.4,0.9,1.4c0.4,0.1,0.6-0.1,0.6-0.1c0-0.1-0.2-0.1-0.5-0.2c-0.3-0.1-0.6-0.6-0.5-1.1c0.1-0.5,0.9-0.8,1.5-0.5
		c0.7,0.3,0.6,1.2,0.2,2.1c-0.8,1.8-1.9,3.3-2.6,4.4c-0.7,0.9-1.1,1.5-1.2,1.7c-0.8-5.1-1.5-8.5-1.8-8.4c-0.1,0,0,0.2,0.1,0.6
		c-0.3-0.8-0.8-1.7-1.6-2.4c-0.9-0.7-2.1-0.9-3.2-0.7c-1.1,0.3-2,0.8-2.6,1.6c-0.7,0.7-0.8,1.9-0.4,2.7c0.4,0.8,1.1,1.3,1.8,1.6
		c0.7,0.3,1.6,0.2,2-0.3c0.4-0.4,0.6-1,0.6-1.4c0-0.9-0.5-1.1-0.5-1.1s0.3,0.4,0.3,1.1s-0.9,1.8-2.1,1.2c-1.1-0.4-2.2-2.1-1-3.4
		c1.1-1.3,3.3-2,4.8-0.7c1.5,1.2,2.1,3.4,1.3,4.9c-0.7,1.5-2.1,2.5-3.3,3c-0.6,0.3-1.3,0.4-1.8,0.4c-0.5-0.1-1.1-0.2-1.6-0.3h-0.1
		l-0.1,0c-0.3-0.1-0.5-0.2-0.5-0.2c0,0,0,0.1,0.1,0.1l0.2,0.6c0.1,0.5,0.2,1,0.3,1.5c0,0.7-0.1,1.4-0.5,2.2
		c-0.5,1.2-1.5,2.6-3.1,3.4c-0.5,0.3-1.1,0.4-1.7,0.4c-0.2,0-0.5,0-0.7,0c-0.1,0-0.2,0-0.3,0c-0.9-0.2-1.8-0.6-2.4-1.4
		c-1.3-1.5-0.5-3.8,0.8-4.9c0.6-0.6,1.4-0.8,2.1-0.5c0.7,0.2,1.2,0.8,1.4,1.4c0.5,1.2-0.6,2.2-1.3,2.2c-0.7,0.1-1.1-0.3-1.1-0.2
		c-0.1,0,0.2,0.5,1.1,0.5c0.5,0,1-0.3,1.4-0.7c0.5-0.4,0.7-1.3,0.4-2c-0.3-0.7-0.8-1.4-1.7-1.8c-0.9-0.4-2-0.2-2.8,0.5
		c-0.7,0.6-1.3,1.5-1.6,2.6c-0.3,1.1,0,2.4,0.7,3.3c1.3,1.6,3.5,2.2,5.2,1.6c0.4,0,0.8,0.1,1.2,0.1c1.2,0.2,2.6,0.3,4.1,0.5
		c-0.1,0-0.1,0.1-0.2,0.1c-0.4,0.2-0.9,0.6-1.6,1.1c-1.1,0.7-2.6,1.8-4.4,2.6c-0.9,0.3-1.8,0.5-2.1-0.2c-0.3-0.6,0-1.4,0.5-1.5
		c0.6-0.1,1,0.2,1.1,0.5c0.1,0.3,0.1,0.5,0.2,0.5c0,0,0.2-0.2,0.1-0.6c0-0.4-0.5-1-1.4-0.9c-0.9,0.1-1.4,1.3-0.9,2.3
		c0.2,0.5,0.8,0.9,1.4,0.9c0.6,0,1.1-0.2,1.6-0.4c0.1,0,0.1-0.1,0.2-0.1c-0.3,0.3-0.6,0.6-0.9,1c-0.5,0.6-0.9,1.4-1,2.3
		c-0.1,0.9,0.4,1.8,1.1,2.3c0.7,0.5,1.5,0.8,2.3,0.7c1.6-0.3,2.3-2.2,1.6-3.2c-0.4-0.5-0.8-0.8-1.3-0.9s-0.9,0.3-1,0.6
		c-0.2,0.6-0.1,0.9-0.1,0.9c0.1,0,0.1-0.3,0.4-0.8c0.1-0.2,0.4-0.4,0.7-0.3c0.3,0,0.7,0.3,0.9,0.7c0.5,0.8-0.1,2.1-1.3,2.3
		c-1,0.1-2.7-0.8-2.5-2.2c0.1-1.3,1.3-2.4,2.2-3.4c0.7-0.8,1.5-1.4,2.2-2c0.4-0.3,0.7-0.6,1-0.8c0.3-0.3,0.6-0.6,0.8-0.8
		c0.2-0.2,0.4-0.4,0.6-0.5c0.4,2,0.8,3.9,1.2,5.7v0.2h0.2c1.5,0.2,2.9,0.4,4.3,0.6c-0.1,0.5-0.3,0.9-0.3,1.5
		c-0.1,0.7,0.1,1.6,0.7,2.1c0.7,0.6,1.5,0.7,2.2,0.5c0.8-0.1,1.3-0.8,1.4-1.5c0.1-0.7,0-1.4-0.6-1.8c-0.5-0.3-1.1-0.2-1.6,0
		c-1,0.7-0.4,2.1,0.3,1.9c0.6-0.1,0.6-0.5,0.6-0.5s-0.1,0.3-0.5,0.2c-0.2,0-0.4-0.2-0.5-0.5c0-0.3,0.1-0.7,0.4-0.9
		c0.3-0.1,0.8-0.1,1.2,0.1c0.4,0.2,0.5,0.8,0.4,1.3c-0.1,1.2-1.9,1.6-2.8,0.8c-0.8-0.8-0.6-2-0.3-3.1c1.8,0.2,3.4,0.5,4.9,0.7
		c0.9,0.1,1.6,0.2,2.4,0.3c-0.7-0.1-1.6-0.3-2.5-0.5c-1.4-0.3-3-0.5-4.7-0.8c0,0,0,0,0-0.1c0.3-1.1,0.7-2.1,1-3
		c0.3-0.9,0.6-1.5,0.8-2c0.1-0.1,0.1-0.2,0.1-0.3c0,0,0,0,0.1,0l0.1,0c-0.1,0-0.1,0.6,0.4,1.5c0.5,0.8,1.5,1.9,3,2.1l0.5,0.1
		l-0.1-0.5v-0.2c-0.4-1.5-1.2-2.7-2.2-3.1c-0.5-0.2-1-0.2-1.3-0.1l0-0.2c0.1,0,0.2-0.1,0.3-0.1c0.5-0.2,1.1-0.5,2-0.8
		c0.6-0.2,1.3-0.5,2.2-0.8c0.3,1.8,0.6,3.4,0.8,4.9c0.1,0.5,0.2,1,0.2,1.4c0-0.4-0.1-0.9-0.1-1.3c-0.2-1.5-0.5-3.2-0.7-5
		c0.2-0.1,0.4-0.1,0.6-0.2c1.1-0.3,2.6-0.7,3.5,0.2c0.8,1,0.4,2.7-0.8,2.8c-0.5,0.1-1.1,0-1.3-0.4c-0.3-0.3-0.3-0.9-0.1-1.2
		c0.2-0.4,0.6-0.5,0.9-0.4c0.3,0,0.5,0.3,0.5,0.5c-0.1,0.4-0.5,0.6-0.4,0.6c0,0.1,0.4,0.1,0.7-0.7c0.1-0.7-1.2-1.3-1.9-0.3
		c-0.3,0.4-0.3,1,0,1.6c0.4,0.6,1.2,0.7,1.8,0.6c0.6-0.1,1.3-0.7,1.5-1.4c0.2-0.8,0-1.6-0.5-2.2C236.4,135.1,235.6,135,234.9,135z
		 M226,130.4c0.3,2.3,0.6,4.7,0.9,7.2c0,0,0,0,0,0c-2.5-0.3-5-0.5-7.2-0.8c-0.5-2.5-1-5.1-1.6-7.9
		C220.9,129.5,223.5,129.9,226,130.4z M221,128.4c1.3-0.5,2.8-1.4,3.7-3.2c0.2-0.4,0.4-0.9,0.4-1.4c0.1,0.8,0.2,1.5,0.4,2.4
		c0.1,1.1,0.3,2.3,0.4,3.5c-1.8-0.3-3.7-0.7-5.7-1.1C220.5,128.6,220.7,128.5,221,128.4z M214.3,136.3c1.8-0.9,2.7-2.5,3.2-3.8
		c0.1-0.4,0.2-0.7,0.3-1.1c0.4,1.8,0.7,3.6,1.1,5.3c-1.6-0.2-3-0.3-4.2-0.4C214.5,136.3,214.4,136.3,214.3,136.3z M226,140.5
		c-0.4,0.8-0.8,1.8-1.2,3c0,0,0,0,0,0.1c-1.2-0.2-2.5-0.4-3.9-0.7c-0.3-1.7-0.7-3.6-1.1-5.5c2.2,0.3,4.6,0.6,7.1,0.9
		c0.1,0,0.2,0.1,0.2,0.1C226.8,138.7,226.4,139.5,226,140.5z M229,138.5c0.6,0.4,1.3,1.3,1.6,2.5c-1-0.3-1.8-1-2.2-1.6
		c-0.6-0.6-0.8-1-0.9-1.1l0.4,0.1l0,0C228.1,138.4,228.5,138.4,229,138.5z M230,136.6c-1,0.4-1.8,0.8-2.2,1.1
		c-0.3-2.6-0.7-5.1-1-7.2c1.6,0.3,3.2,0.6,4.7,0.9c0.3,1.5,0.5,3,0.7,4.3C231.4,136,230.6,136.3,230,136.6z"/>
</g>
</svg>
