<?xml version="1.0" encoding="utf-8"?>
<!-- Generator: Adobe Illustrator 26.0.3, SVG Export Plug-In . SVG Version: 6.00 Build 0)  -->
<svg version="1.0" id="Слой_1" xmlns="http://www.w3.org/2000/svg" xmlns:xlink="http://www.w3.org/1999/xlink" x="0px" y="0px"
	 viewBox="0 0 238.1 150.2" style="enable-background:new 0 0 238.1 150.2;" xml:space="preserve">
<g>
	<path d="M147.5,25.4c-0.2,0.2-0.7,0.6-0.9,0.8l0.4,0.7c0.2-0.1,0.5-0.3,0.7-0.4c0.1,1.4,0.8,2.4,1.9,3.1c-0.4-2.2-1-4.3-1.7-6.4
		l-0.3-0.9c0.5-0.4,1-0.8,1.5-1.3c-0.5,0.1-1.5,0.2-1.9,0.2c-0.3-1.9-1-3.7-2.2-5.2c0.2-0.5,0.3-0.9,0.5-1.4c-0.2-0.1-0.7-0.2-1-0.2
		c-1.2-1.9-2.3-4.1-4.3-5.3c1.2,2.5,2.6,5,3.7,7.6C145.5,19.4,145.9,22.6,147.5,25.4z"/>
	<g>
		<path d="M222.2,53.3c-0.1-4.5-0.5-9.4-3.1-13.2c-2.7-2.2-6.2-4.8-9.9-3c-4.2,1.8-9.7,2.1-12.3,6.4c-2.2,4.4-3.6,9.1-5.9,13.4
			c-2.5,4.3-4.3,9.2-7.8,12.8c-3.5,0.2-6.7,2-9.1,4.4c-1.1,1.1-1.5,2.8-3,3.4c-3,1.7-6,3.3-9,4.9c-0.5,1.3-0.9,2.7-0.8,4.1
			c1,1.2,2,0.1,3-0.3c0,1.8-1.9,2.7-3.5,3c-2.7-1.5-5.6-2.6-8.3-4.2c0.7-6.3,1.8-12.5,2.5-18.8c2-1.6,3.4-4,6-4.8
			c0.3,1.3,0.9,2.6,0.6,4c-0.1,0.5-0.3,1.3,0.5,1.5c1.3-0.5,1.3-0.7,2.1-1.4c0.4-0.3,0.8-0.8,1-1c1.6-2.8,2.4-6.3,1.1-9.4
			c-2.7-2.3-6.5,0.1-8.9,1.6c0.7-3.1,0.2-6.2-0.3-9.3c1.3-1.1,0.8-3,1-4.4c-0.1-7.6-0.4-15.2-1.8-22.7c0.1-0.2,0.4-0.7,0.5-1
			c-0.8-0.9-0.9-2.1-1.1-3.3c0.2-0.3,0.6-0.8,0.8-1l-0.9-0.4c-0.5-2.2-1.3-4.3-2.2-6.3c-0.4,1,0,2,0.2,3c0.9,4.1,1.2,8.3,2.1,12.5
			c-0.4,0.2-1.1,0.7-1.4,0.9l1.4,0.4c1.3,7.1,1.4,14.5,1.9,21.7c-1.2-0.4-1.4-1.8-2.1-2.7c-0.8-1.4-2.5-1.8-3.5-2.9
			c-0.2-2-0.3-4.1-0.6-6.1c0.5,0.5,1,1.1,1.5,1.6c0.7-0.1,1.4-0.1,2.1-0.2c0.4-1.7-0.6-3.2-1.2-4.8c-0.6-0.3-1.3-0.6-1.9-1
			c-0.8-0.4-1.5-0.8-2.3-1.2c-2.5,0.1-5,0.2-7.3,1c-0.7,0.4-1.4,0.8-2,1.2c0.7,2.1-2,2.7-2.1,4.6c3.9-1.1,7.8-3.4,11.9-2.2
			c0.5,2.5,0.9,5.1,1.3,7.6c-2.1-1.1-2.5-4.5-5.3-4.8c-4.1-1.3-5.7,3.5-7.4,6.2c-1.4,3.8-2.5,8.2-0.8,12.1c-0.9,1.1-1.9,2.1-3.2,2.7
			c-0.4,0.4-0.3,0.8,0.3,1.4c0.6,0.6,3.4,2.4,1.1,2.4c-3.7-1.9-8-2.5-12-1.2c0.1,2.9,1.1,5.7,2.5,8.1c0.8,1.2,2.1,2.8,3.7,2
			c1.4-1.4,0.8-3.3-0.1-4.8c1.6,0.7,3.2,1.7,5,2c-0.8,6.1-1.5,12.4,0.7,18.3c-2.4,2.6-4.4,5.7-6.1,8.8c-0.5,0.8-0.9,2.4-2.1,2
			c-3.7-0.7-7.5-0.3-11.2-0.6c2.3-1.4,5.2-1.3,7.6-2.6c-2.7-4.2-6.9-8.2-12.1-8.8c-4.4,0-8.6,1.3-12.6,3c-1.2,0.6-2.3,1.8-3.7,1.6
			c-0.3-0.1-0.8-0.3-1.1-0.4c-2.6,0.4-5.4,0.6-7.6,2.1c-1.5,1-2.8,2.2-3.9,3.6c-3.6,0.5-7.3,0.5-11,0.4c-4.2-0.1-8.2-1.7-12.1-3.1
			c-4.1-1-6.9,4.3-5.8,7.7c1.9,3.3,5.5,4.9,8.8,6.3c4,1.4,7.8,3.1,11.8,4.5c5.5,2.3,11,5.3,17.1,5.7c4.1,0.6,8.1-0.9,12.1-1.7
			c4.7,2.3,10,2.6,15.2,3c0.4-0.1,1.2-0.2,1.6-0.3c-0.2-3.1-0.5-6.4-2.4-8.9c-2.5-0.3-5-0.1-7.5,0c-5.5,2-10.8,5.1-16.8,5.1
			c-7.7,0.1-14.3-4.3-21.4-6.7c-4-1.6-8-2.9-12-4.4c-1.8-0.9-3.3-2.2-4.7-3.6c0.5-2,1.5-4.4,4-4c0.6,0.1,1.7,0.3,2.3,0.4
			c2.1,0.5,4.1,1.1,6.1,1.6c5.4,0.3,10.8,0.5,16-1.1c5.4,1.1,10.2,3.8,14.9,6.6c1.7,1,2.8,2.9,4.6,3.5c3-1,6.1-3,7-6.2
			c2.9,1.1,6.1,1.3,9.1,1.2c4.8-0.1,9.7,0.2,14.5-0.1c0.2,1.5,0.9,3.1,0.3,4.6c-1.2,0.4-2.5,0.4-3.8,0.4c1.1,0.3,2.3,0.5,3.4,0.8
			c0.3,2.4,0.7,4.8,0.1,7.1c-3.6,3.3-9,1.3-13.3,2.5c-0.1,0.3-0.2,0.8-0.3,1c4.1,0.1,8.1-0.2,12.2-0.4c0.9,0,1.7-0.2,2.5-0.5
			c1.8-4.1,0.2-8.7,0.9-12.9c0.4-1.7-0.8-3.1-1.8-4.3c-0.2-3.1,2.3-5.2,3.6-7.7c4.1,1.8,8-1.6,12.2-1.2c2,0.2,3.4,1.5,5,2.5
			c-2.4,1.5-4.9,3.1-6.3,5.6c-2.2,6.6-0.4,14.6,4.9,19.4c0.1-0.5,0.4-1.5,0.6-2c-2.1-2.3-3.5-5.1-3.6-8.3c-0.4-3.9-0.7-9.4,3.6-11.2
			c6.7-3,12.1-8.1,18.1-12.3c0.2,0.5,0.6,1.7,0.9,2.2c3.2-1.6,6.6-2.9,9.3-5.4c0.8-3,0.6-6.2,1.1-9.3c0.6-0.5,1.3-1,1.9-1.5
			c1-0.6,2.2-1.1,2.8-2.2c1.6-2.7,3.8-5.3,4-8.6c2.4-4.4,4.3-9.1,6.3-13.8c1.2-3.1,4.9-3.3,7.7-4.3c-3,4.1-5.8,8.4-7.6,13.1
			c-2.2,4.6-4.7,9-6.3,13.9c-1.7,4.4-4.4,8.3-6.2,12.6c-1.9,4.3-5.6,7.6-10.1,9.1c-5.5,1.9-10.6,5.1-14.8,9.1c0.3,0.2,1,0.7,1.4,0.9
			c0.7,2,1.6,3.9,2.2,6c-0.2,1.4-1.3,2.5-2.1,3.6c2-0.6,3.9-1.2,6-1.5c3.5-0.4,6.9-2,10.5-1.3c1.1-0.8,2.3-1.4,3.7-1.7
			c-0.8,1.1-1.7,2.2-2.6,3.2c-0.3,0-0.9,0.1-1.2,0.1c-2,2.3-4.4,4.1-7.3,5c-4.4,4-11.1,7.3-17,4.5c0.1,0.4,0.2,1.3,0.2,1.7
			c3.2,2.6,7.8,0.8,11.2-0.4c7.7-3.7,15.4-8.3,20.9-15c1.6-1.9,0-4.3-0.2-6.3c0.5-0.6,0.9-1.2,1.4-1.8c-1.1,0.5-2.3,1.1-3.4,1.6
			c-0.8-0.4-1.5-0.9-2.5-0.9c-3.8,0-7.5,0.2-11.3,0.4c1-2.2,3.8-2.3,5.6-3.6c2.6-1.7,5.1-3.6,7.8-5.1c3.9-4.9,7.1-10.5,8.7-16.6
			c0.6-0.4,1.1-0.8,1.7-1.2c0.7-6.5,4.7-11.8,7.1-17.7c1.1-2.9,3.2-5.3,4.5-8.1c1.7-2.5,5.2-5.2,8.4-3.4c1.9,2.7,3.6,5.7,3.8,9.1
			c0.7,3.4-0.3,6.8-0.1,10.1c0.1,1,0.2,1.9,0.4,2.9c-0.3,0-1,0-1.4,0c1.1,4-2.6,6.9-2.7,10.7c0,2.1-1.3,3.9-2.4,5.6
			c0.1,0.5,0.1,0.9,0.2,1.4c-1.6,0.3-3,1.1-4.3,2.2c0.4,0.3,0.8,0.7,1.3,1c-1.1,0.2-2.5-0.2-3.2,0.8c-1.7,1.9-3.5,3.8-5.6,5.2
			c-0.1-0.8-0.1-1.6-0.2-2.4c-4.8,1.5-8.3,5.4-13.1,6.9c0.5,0.7,1,1.4,1.6,2.1c8.7-2.8,17.1-7.1,23.5-13.7c2.3-2.4,3.4-5.6,5.2-8.3
			C220.5,67.9,222.8,60.7,222.2,53.3z M109.1,112.9c1.4-0.8,3-0.9,4.5-0.9c0.7-0.8,1.4-1.7,2.1-2.5c2.6,1.1,1.6,4.5,2.1,6.7
			c-4-0.7-8-1-12-1.6C106.7,113.7,107.7,112.8,109.1,112.9z M103.7,103.9c-3.2-3.3-7.3-5.3-11.3-7.4c-2.3-1.2-4.9-1.7-7.4-2.3
			c1.2-0.6,2.4-1.3,3.6-1.9c0.4,0.3,1.2,0.9,1.6,1.2c1.1-0.3,2.2-0.6,3.3-0.9c0.2-0.5,0.5-1.5,0.7-1.9c6.1,0.9,10.8,5.5,15.2,9.4
			C107.5,101.5,105.7,102.8,103.7,103.9z M109.6,97.7c-3.1-3.3-7.2-5.4-10.9-7.9c4.3-1.3,8.6-4.2,13.2-2.9c-1.3,0.2-2.7,0.4-4,0.7
			c0,0.7,0.1,1.3,0.2,2c-0.6,0.4-1.2,0.8-1.8,1.2c2.1,0.2,4.2,0.2,6.3,0.2c-0.8-0.9-1.6-1.7-2.4-2.6c1.8,0.5,4,1.3,5.5-0.4
			c2.1,1.2,3.9,2.7,5.6,4.4C117.1,93.3,112.6,94.5,109.6,97.7z M140.4,41.4l-0.2-0.2h0.3c1.4-1.6,3.4-3.4,5.6-2.2
			c3.6,2.7,4.7,7.8,2.9,11.9c-1-0.4-1.9-0.7-2.9-1.1c0.1-0.6,0.1-1.2,0.1-1.7c-0.1-1.9-0.3-2.8-1.3-3.8c-0.8-0.7-1.7-0.6-2.6-0.2
			c-0.9,0.5-1.3,3.7-1.4,4.2l0,0l0,0l0,0l0,0c-0.2,0.7-0.5,1.3-0.7,2c-0.3,0.2-1.1,0.6-1.4,0.8l-1,0.5
			C137.9,48.1,138.1,44.3,140.4,41.4z M141.2,47.8c0.1-0.7,0.2-3.3,2.1-1.9c0.1,0.1,0.2,0.1,0.3,0.2c0,0,0,0,0.1,0.1
			c0,0.1,0.1,0.1,0.1,0.2v0.1c0,0.1,0,0.1,0.1,0.2v0.1c0,0.1,0,0.1,0,0.2v0.1v0.1v0.1c0,0,0,0.1-0.1,0.1c0,0,0,0.1-0.1,0.1
			c0,0,0,0.1-0.1,0.1l-0.1,0.1c0,0,0,0-0.1,0.1c0,0-0.1,0.1-0.2,0.1c0,0,0,0-0.1,0S143,48,142.9,48l0,0c-0.1,0-0.2,0.1-0.2,0.1l0,0
			C142.2,48.4,141.6,48.3,141.2,47.8z M148.4,51.7c-1.6,2.3-3.4,5.1-6.4,5.6c-2.8-0.1-3.8-3.1-3.9-5.4
			C141.5,51.1,145.1,50,148.4,51.7z M128.2,64.2c0.3,1.7,1.5,3.2,1.5,4.9c-0.8,1.3-1.7,0-2.2-0.8c-1.5-2.1-2.1-4.6-2.8-7.1
			c3.6-0.7,7.6-0.4,10.6,1.7c0.5,1.1-0.1,2.4-0.1,3.6C132.9,65.9,130.8,63.9,128.2,64.2z M156.6,91.9c-2.8-2.2-6-3.9-9.5-4.1l0,0
			c-2.1,2.3-5.7,2.9-8.6,1.9c-1.4,1.8-2.8,3.6-4.1,5.4c-1,1.4-2.7,2.3-3.1,4.1c-1.2,0.3-2.5,0.6-3.7,0.8c-0.2-2.1,1.6-3.4,2.9-4.7
			c2.5-2.8,4.1-6.3,6.2-9.3c-0.5-1.4-1.1-2.7-1.1-4.2c-0.6-6.9,0.2-13.9,2.1-20.5c4,0.3,8.3,1,12.1-0.7c1.9-1,3.8-2.5,4.2-4.6
			c-0.4,0.3-1.2,1-1.6,1.3h-0.2c-3.5,3.5-8.8,3.4-13.3,2.7c-1.2-0.1-2.1-0.7-3.1-1.3c0.8-0.6,1.6-1.2,2.5-1.8c1,0.8,2,1.9,3.5,1.9
			c2,0.2,3.5-1.3,5.1-2.2c1.8-2.3,3.5-4.6,4.4-7.4c0.8-2.2,0-4.5,0-6.7c3.8,1.6,5,5.9,5.4,9.6c0.2,2.1-0.1,4.3-0.7,6.3
			c0.3,0,0.8,0.1,1.1,0.2c2.1-1.8,4.8-3.1,7.6-3.3c1.3,0,1.7,1.5,1.5,2.5c-0.2,2.7-0.6,5.8-3,7.4c-0.4-1.7-0.8-3.5-1.6-5
			c-0.8,0.4-1.7,0.8-2.5,1.1l-0.2,0.2l-0.2,0.2c-1.1,1.6-3.1,2.5-4,4.3c-1.1,6.4-2.3,12.8-3.3,19.1c0.2,0.3,0.7,1,0.9,1.4l0.7-0.1
			c2.1,1.4,4.3,2.4,6.5,3.6C158.6,90.8,157.4,91.2,156.6,91.9z M163.2,84.9c-0.1-0.1-0.3-0.4-0.4-0.6c3.1-2.1,6.6-3.6,9.8-5.6
			c0.1,0.8,0.1,1.6,0.2,2.5C169.8,82.8,166.3,83.3,163.2,84.9z M180.7,79.7c-2,1.3-4.1,2.2-6.1,3.6c0-2.6,0.1-5.2,0.2-7.8
			c2.1-1.4,4.2-2.8,6.6-3.5C181.2,74.5,181.5,77.2,180.7,79.7z M176.9,99c2.1-0.1,4.2-0.7,6.3-0.6c1.2,0.9,1,2.7,1.5,4
			c-5.8,1.2-11.7,2.2-17.6,3.4c-0.9-2-1.7-3.9-2.5-5.9C168.7,99,172.8,99.2,176.9,99z"/>
	</g>
	<path d="M129.1,103.2c-4.7-0.6-9.5-1.1-14.2,0.2l0.2,0.8c3.4-0.2,6.9-0.7,10.2,0.1C126.7,104.6,127.9,103.6,129.1,103.2z"/>
</g>
<g>
	<path d="M106.5,139.1c0,0.3-0.2,0.5-0.5,0.5h-1.9c-0.3,0-0.5-0.2-0.5-0.5v-3.2c0-0.2-0.1-0.3-0.3-0.3h-0.5c-0.2,0-0.3,0.1-0.3,0.3
		v3.2c0,0.3-0.2,0.5-0.5,0.5h-2c-0.3,0-0.5-0.2-0.5-0.5v-10.6c0-0.3,0.2-0.5,0.5-0.5h1.9c0.3,0,0.5,0.2,0.5,0.5v4
		c0,0.2,0.1,0.3,0.3,0.3h0.5c0.2,0,0.3-0.1,0.3-0.3v-4c0-0.3,0.2-0.5,0.5-0.5h1.9c0.3,0,0.5,0.2,0.5,0.5v4c0,0.3-0.1,0.6-0.4,0.9
		c-0.2,0.2-0.5,0.3-0.8,0.4c0.3,0,0.6,0.1,0.8,0.4c0.2,0.2,0.4,0.5,0.4,0.9L106.5,139.1L106.5,139.1z"/>
	<path d="M117.2,139.1c0,0.3-0.2,0.5-0.5,0.5h-3.9c-0.6,0-1.1-0.2-1.5-0.6s-0.6-0.9-0.6-1.5v-7.3c0-0.6,0.2-1.1,0.6-1.5
		s0.9-0.6,1.5-0.6h3.9c0.3,0,0.5,0.2,0.5,0.5v1.9c0,0.3-0.2,0.5-0.5,0.5h-2.8c-0.2,0-0.3,0.1-0.3,0.3v0.8c0,0.2,0.1,0.3,0.3,0.3h2.8
		c0.3,0,0.5,0.2,0.5,0.5v1.9c0,0.3-0.2,0.5-0.5,0.5h-2.8c-0.2,0-0.3,0.1-0.3,0.3v0.7c0,0.2,0.1,0.3,0.3,0.3h2.8
		c0.3,0,0.5,0.2,0.5,0.5V139.1z"/>
	<path d="M128.4,139.6c0,0.3-0.2,0.5-0.5,0.5H126c-0.3,0-0.5-0.2-0.5-0.5h-2c-0.6,0-1.1-0.2-1.5-0.6s-0.6-0.9-0.6-1.5v-7.3
		c0-0.6,0.2-1.1,0.6-1.5s0.9-0.6,1.5-0.6h2c0-0.3,0.2-0.5,0.5-0.5h1.9c0.3,0,0.5,0.2,0.5,0.5h2c0.6,0,1.1,0.2,1.5,0.6
		c0.4,0.4,0.6,0.9,0.6,1.5v7.3c0,0.6-0.2,1.1-0.6,1.5s-0.9,0.6-1.5,0.6H128.4z M124.2,136.4c0,0.2,0.1,0.3,0.3,0.3h0.5
		c0.2,0,0.3-0.1,0.3-0.3v-5.1c0-0.2-0.1-0.3-0.3-0.3h-0.5c-0.2,0-0.3,0.1-0.3,0.3V136.4z M128.7,136.7h0.5c0.2,0,0.3-0.1,0.3-0.3
		v-5.1c0-0.2-0.1-0.3-0.3-0.3h-0.5c-0.2,0-0.3,0.1-0.3,0.3v5.2C128.4,136.6,128.5,136.7,128.7,136.7z"/>
	<path d="M143.5,130.4c0,0.3-0.2,0.5-0.5,0.5h-1.2c-0.2,0-0.3,0.1-0.3,0.3v7.8c0,0.3-0.2,0.5-0.5,0.5h-1.9c-0.3,0-0.5-0.2-0.5-0.5
		v-7.8c0-0.2-0.1-0.3-0.3-0.3h-1.2c-0.3,0-0.5-0.2-0.5-0.5v-1.9c0-0.3,0.2-0.5,0.5-0.5h5.9c0.3,0,0.5,0.2,0.5,0.5V130.4z"/>
	<path d="M154.2,139.1c0,0.3-0.2,0.5-0.5,0.5h-3.9c-0.6,0-1.1-0.2-1.5-0.6s-0.6-0.9-0.6-1.5v-7.3c0-0.6,0.2-1.1,0.6-1.5
		c0.4-0.4,0.9-0.6,1.5-0.6h3.9c0.3,0,0.5,0.2,0.5,0.5v1.9c0,0.3-0.2,0.5-0.5,0.5h-2.8c-0.2,0-0.3,0.1-0.3,0.3v0.8
		c0,0.2,0.1,0.3,0.3,0.3h2.8c0.3,0,0.5,0.2,0.5,0.5v1.9c0,0.3-0.2,0.5-0.5,0.5h-2.8c-0.2,0-0.3,0.1-0.3,0.3v0.7
		c0,0.2,0.1,0.3,0.3,0.3h2.8c0.3,0,0.5,0.2,0.5,0.5V139.1z"/>
	<path d="M158.3,128.5c0-0.3,0.2-0.5,0.5-0.5h1.9c0.2,0,0.4,0.2,0.5,0.5l2.7,6.7l2.7-6.7c0.1-0.3,0.3-0.5,0.5-0.5h1.9
		c0.3,0,0.5,0.2,0.5,0.5v10.6c0,0.3-0.2,0.5-0.5,0.5h-1.9c-0.3,0-0.5-0.2-0.5-0.5V136l-1.2,3.1c-0.1,0.3-0.3,0.5-0.5,0.5H163
		c-0.2,0-0.4-0.2-0.5-0.5l-1.2-3.1v3.1c0,0.3-0.2,0.5-0.5,0.5h-1.9c-0.3,0-0.5-0.2-0.5-0.5v-10.6H158.3z"/>
	<path d="M180.2,139.1c0,0.3-0.2,0.5-0.5,0.5h-3.9c-0.6,0-1.1-0.2-1.5-0.6s-0.6-0.9-0.6-1.5v-7.3c0-0.6,0.2-1.1,0.6-1.5
		c0.4-0.4,0.9-0.6,1.5-0.6h3.9c0.3,0,0.5,0.2,0.5,0.5v1.9c0,0.3-0.2,0.5-0.5,0.5h-2.8c-0.2,0-0.3,0.1-0.3,0.3v0.8
		c0,0.2,0.1,0.3,0.3,0.3h2.8c0.3,0,0.5,0.2,0.5,0.5v1.9c0,0.3-0.2,0.5-0.5,0.5h-2.8c-0.2,0-0.3,0.1-0.3,0.3v0.7
		c0,0.2,0.1,0.3,0.3,0.3h2.8c0.3,0,0.5,0.2,0.5,0.5V139.1z"/>
</g>
</svg>
