<?xml version="1.0" encoding="utf-8"?>
<!-- Generator: Adobe Illustrator 26.0.3, SVG Export Plug-In . SVG Version: 6.00 Build 0)  -->
<svg version="1.1" id="Слой_34" xmlns="http://www.w3.org/2000/svg" xmlns:xlink="http://www.w3.org/1999/xlink" x="0px"
	 y="0px" viewBox="0 0 239.5 150.2" style="enable-background:new 0 0 239.5 150.2;" xml:space="preserve">
<style type="text/css">
	.st0{fill:#020202;}
</style>
<g>
	<path class="st0" d="M197.7,72.9c-9,0.6-18,2.7-27.1,1.9c-0.8-2.3-2.4-4.4-4.7-5.4c2.2-0.7,4.3-1.3,6.6-1.5c2.3-0.3,4.7,0.1,7,0.4
		c5.6,0.7,11.2,1.1,16.9,0.9c2.8-0.1,5.4-0.9,8.1-1.1c0.4-0.5-0.7-0.8-1-0.5c-6.3,1.6-12.9,1.2-19.4,0.7c-4.3-0.3-8.5-1.5-12.8-0.7
		c-2.3,0.3-4.4,1.2-6.6,1.7c-0.8-0.2-1.5-0.5-2.2-0.7c2.4-2.5,2.9-6,4.6-8.8c0.8-2.8,0.4-6-0.5-8.8c-1.8-3.2-5.4-4.9-8.9-5.4
		c-2.3-0.5-4.4,0.5-6.4,1.4c-2,1.1-3.3,3.1-4.7,4.9c-1.5,1.9-1.6,4.4-2.5,6.6c-0.5,1.4-1.6,2.4-2.3,3.7c-0.1,2.2,2.3,3.8,2.3,6
		c0.1,0.5-0.1,0.9-0.6,1.1c0.2-2.6-1.9-4.5-2.2-7c0.6-1.3,1.5-2.3,2.1-3.6c0.9-1.7,1.2-3.7,2-5.5c0.5-1.2,1.5-2,2-3.2
		c-0.8-1.8-2.3-3.4-4.1-4.3c-1.2-0.7-2.5-1.7-4-1.3c-3.5,1.2-6.8,3.7-8,7.3c-1.8,5.2,0.6,10.6-0.1,16c-1.1,0.9-2.2,2-2.8,3.3
		c-0.8,1.4-0.9,3.1-1.4,4.6c-0.9,1.8-2.9,2.8-4,4.5c-0.4,0-0.8,0-1.1,0c-6.2-1.9-12.8-1.6-19.1-2.9c-2.3-1.8-5.3-1.3-7.9-2.2
		c-1.8-0.5-3.2-1.7-4.7-2.7c0.5-0.6,1.3-1.1,1.1-2c-0.1-0.8,0.3-2-0.7-2.3c-1-0.7-2.1,0.3-3.1,0.3c-0.7-0.3-1.4-1-2.2-1
		c-4-0.3-8.1-0.8-12.1-1.1c-1.2,0.9-1.2,2.7-1,4.1c1,0,2,0.1,2.9,0c-0.8-0.4-1.6-0.5-2.5-0.6c0.1-1,0.3-1.9,0.6-2.9
		c4.1,0.4,8.1,0.7,12.2,1.1c0.8,0.1,1.4,0.8,2.2,1c1.1-0.1,2.1-0.6,3.2-0.5c0,0.8,0.1,1.5,0,2.3c-0.2,0.7-0.9,1-1.4,1.5
		c2.5,2.4,5.8,4,9.3,4.1c-0.2,0.8-0.3,1.6-0.7,2.2c-0.7,1-0.4,2.3-0.7,3.5c-1.9-0.5-3.9-0.4-5.8-0.8c-2.1-0.4-4.2-0.1-6.3-0.8
		c-1.2-0.4-2-1.3-2.8-2.2c1-0.3,2-0.5,3.1-0.6c-1.2-0.3-3.3,0.4-3.3-1.4c0.7-0.3,1.4-0.5,2.1-0.7c-0.6,0-1.3-0.1-1.9-0.1
		c-0.1-0.4-0.2-0.8-0.2-1.2c0.4-0.6,1.2-0.5,1.8-0.8c-1.6-0.1-4.2-1.7-5,0.6c-1.8-0.2-3.6-0.3-5.4-0.5c0,0.1-0.1,0.4-0.1,0.6
		c2,0.3,4.1,0.5,6.1,0.4c0.1-0.3,0.3-0.8,0.4-1c0.5,0,1,0,1.5-0.1c0.5,2.3-0.3,5.3,1.9,6.8c2.3,1.8,5.5,1.2,8.2,1.7c2,0.5,4.2,0,6,1
		c1.2,0.7,2.5,1,3.8,1c2,0.5,3.8,1.6,5.7,2.5c5.2,2.6,10.9,4.6,16.8,4.3c-0.1,2.3,0.5,4.5,0.1,6.8c-0.5,2.3-1.4,4.5-2.4,6.7
		c1-1.4,1.8-3,2.6-4.6c0.2-1.3,0.6-2.7,1.2-3.9c0.1,1.5-0.2,3-0.5,4.5c0.4-0.3,0.8-0.5,1.1-0.8c-0.1,0.6-0.3,1.1-0.4,1.7
		c-0.5,2.8-1.8,5.4-2.4,8.2c1.5-3.7,3.5-7.4,3.2-11.6l0.1,0c0.2,2.9,0,5.8-0.5,8.6c0.7-1.6,1-3.3,1.2-5l0.4-0.4
		c0.1,1.3,0,2.6,0.5,3.8c0.5,3.3-1.5,6.1-3,8.8c-4.6,1.9-8.6,6-9.3,11.1c-0.4,3.7,0.7,7.7,3.3,10.5c3,3.2,7,5.5,11.3,6.4
		c2.3,0.9,4.8,1.1,7.2,1.4c0,2.1,0.3,5.2,0.6,7.3h16.5c-0.1-2.3,0.1-5.7,0.9-7.9c-3.9-0.2-7.8,0.4-11.7,0.3c-4.2,0-8.4-0.5-12.5-1.3
		c-4.2-1.2-8.5-2.9-11.5-6.2c-2.8-2.6-4-6.6-3.6-10.4c0.4-0.8,1.5-0.8,2.3-1.2c7.7-2.6,16-1.1,23.9,0.4c7.7,1.5,15.8,3.2,22.1,8.3
		c1.8,1.3,2.6,3.7,2.1,5.8c-0.9,4.2-2.6,8.2-4.1,12.2h3.1c0.7-2.7,1.1-5.5,1-8.3c-0.1-1.8,0.8-3.4,0.7-5.2c0.2-1.7-1-3.1-1.1-4.7
		c-0.4-3.6-1.7-7.2-1-10.8c0.9-5.2,3.4-10,4.2-15.2c0.6-1.7,0.8-3.4,1.1-5.2c0.7-5.2,1.2-10.5,0.1-15.7c-0.4-1.9-2-3.4-2.3-5.2
		c1.8-0.8,2.5-2.7,2.5-4.6c9.7,0.8,19.2-1.7,28.8-2c0.1-0.1,0.3-0.4,0.4-0.5C199.3,72.9,198.5,72.8,197.7,72.9z M145.2,57.6
		c2.5,0.3,5,1.8,5.5,4.5c-2.4,0.2-4.9-0.8-6.2-2.8C144.6,58.8,144.7,58.1,145.2,57.6z M124.5,79.1c0.8,0.2,0.1,1.5-0.6,1.2
		C123.1,80.1,124,79.2,124.5,79.1z M98.3,81.3c-0.9-0.9-0.6-2.5,0.5-3.1c1.5-0.9,3.5,0.8,2.9,2.4C101.4,82,99.2,82.5,98.3,81.3z
		 M127.5,94.2c-0.4-0.4-0.4-1.2,0-1.6C128.1,92.7,128.2,94.3,127.5,94.2z M128.6,105.9c0.1-5.3-0.6-10.5,0.1-15.8
		c5.6,1.5,11.3,2.8,17.1,2.9c0.1,1.2,0.2,2.3,0.3,3.5c-0.9-0.2-1.8-0.3-2.8-0.4c0.9,0.6,1.9,0.9,3,1.3c0.1,0.9,0.6,1.7,0.4,2.7
		c-0.9,3.7-1.7,7.3-3,10.9c-1.1,3.3-2.5,6.6-3.2,10.1c-5.6-1-10.3-4.5-14.5-8.2C127.2,110.7,128.6,108.5,128.6,105.9z M125.1,114.2
		c0.1-0.2,0.4-0.7,0.6-1c4.1,3.9,9,7.2,14.6,8.4c0.1,0.2,0.2,0.6,0.3,0.8C134.5,121.8,129.4,118.1,125.1,114.2z M141.1,123.1
		c-0.3-2.9,0.8-5.6,1.7-8.2c0.8-2,1.3-4.1,2.2-6.1c-0.1,5-2.5,9.6-2.5,14.5C142.2,123.3,141.5,123.2,141.1,123.1z M164.5,125.8
		c-2.7,0.4-5.4,0.9-8.1,1c-1.4-0.1-2.7-0.7-4-1.2c4.1-0.2,8.1-1,12.2-1.4C164.6,124.7,164.5,125.2,164.5,125.8z M168.4,79.2
		c-1.6,0.7-3.5,0.6-5.2,0.3c-6.4-0.9-12.8-2.3-19.2-2.8c0.2,0.3,0.4,0.5,0.6,0.8c-1.5,0.9-2.8,2.2-3.8,3.7c1.9-1.5,3.8-3.8,6.5-3.5
		c3.7,0.4,7.3,1.1,10.9,1.7c3.1,0.5,6.2,1.1,9.4,0.9c1,2,2.3,3.9,2.6,6.2c1,6.2,0,12.4-1,18.5c-0.7,2.8-1.4,5.6-2.4,8.3
		c-1,3.4-2.4,6.8-2.4,10.4c-4.8,0.3-9.6,1.7-14.5,1.3c-2.2-0.4-4.5-1-6.7-1.4c-0.2-5,2.4-9.6,2.4-14.6c-0.2-3,1-5.8,1.6-8.6
		c0.3,0.4,0.6,0.8,1,1.2c-0.7-1.3-1.1-2.7-0.7-4.2c-1.2-1-1-2.7-1.1-4.2c2.5,0,5,0,7.5-0.3c-0.3,0.5-0.5,1-0.8,1.5
		c0.8-0.6,1.5-1.4,2.2-2.2c-8,0.8-16.2,0.3-24-2c-3.3-1.1-6.7,0-10.1-0.1c-4.7-0.2-9.2-1.9-13.4-3.8c-2.2-1.1-4.4-2.3-6.7-3.2
		c0.3-0.7,0.6-1.4,0.9-2.1c0.5-1,0.1-2.2,0-3.3c6.3,1,12.7,1.3,18.9,2.5c2.8,0.5,5.7,1.8,8.6,0.9c3.7-1,7.5-0.6,11.1,0.2
		c-1-0.9-2.4-1.1-3.7-1.3c-2.9-0.3-5.8-0.1-8.6,0.7c-0.5-3.9,0.5-8.6,4.2-10.7c2.7-2,6.2-1.7,9.3-1c6.7,1.3,13.3,3.2,20.1,4
		c1.6,0.2,3.3,0.1,4.9-0.3c-3.2-0.4-6.4-0.2-9.5-1.1c1.2-1.4,2.8-2.4,4.6-2.8c1.7,0.4,3.5,0.8,5,1.8c1.5,1.1,2.7,2.8,3,4.7
		C170.2,76.8,169.8,78.6,168.4,79.2z"/>
	<path class="st0" d="M122.3,86.3c0.2-0.9,0.4-1.7,0.5-2.6c-0.2,0-0.5,0-0.7,0C122.1,84.6,122.2,85.5,122.3,86.3z"/>
	<path class="st0" d="M148,60c-0.7,0-2-0.3-2.5-1C145.3,59.8,147.7,60.7,148,60z"/>
	<path class="st0" d="M88.4,72.1c-0.6-1.1-2-1.6-3.2-1.7c-1.7,0-3.5-0.1-5,0.8c0.9,1.3,2.5,1.7,4,1.9c-0.8-1-2.2-0.9-3.1-1.7
		c1.2-0.2,2.5-0.3,3.8-0.3C86,70.9,87.1,71.7,88.4,72.1z"/>
	<path class="st0" d="M79.8,71.7c0.2-0.7-0.1-0.9-0.8-0.7C78.8,71.8,79.1,72,79.8,71.7z"/>
	<path class="st0" d="M73.4,72.3c0.9,0.5,1.9,0.4,2.8,0.4C75.4,72.2,74.3,71.8,73.4,72.3z"/>
	<path class="st0" d="M133.8,82.4c-0.5-0.1-0.9,0.3-1.2,0.6c2.9-0.3,5.8,0.4,8.7,0.6C138.9,82.6,136.3,82.2,133.8,82.4z"/>
	<path class="st0" d="M125.3,83.5c-0.1,1.1-0.2,2.1-0.3,3.2C125.4,85.7,126.5,84.3,125.3,83.5z"/>
	<path class="st0" d="M167,84.1c-0.2,1.6-0.5,3.2-0.8,4.7c0.6-1.5,1.1-3.1,1.5-4.7C167.5,84.2,167.1,84.2,167,84.1z"/>
	<path class="st0" d="M137.8,90.1c-2.1-0.5-4.2-1-6.3-1.7C133.1,90.2,135.7,90.1,137.8,90.1z"/>
	<path class="st0" d="M148.8,102.9c1.1,0.3,2.2,0.6,3.3,0.7c-1.1-0.8-2.4-1.2-3.7-1.6C148.6,102.3,148.8,102.7,148.8,102.9z"/>
	<path class="st0" d="M149.1,109.7c-1.3,2.6-1.7,5.4-2.1,8.3c0.9-2.7,1.4-5.5,2.7-8.1c0.6-1.1,0.2-2.4-0.5-3.3
		C149,107.6,149.6,108.7,149.1,109.7z"/>
	<path class="st0" d="M160.8,113.4c0.3-1.4,0.5-3.1-0.4-4.3c-0.1,1.4,0.3,3-0.2,4.4c-0.7,1.6-2.1,2.9-3.2,4.2
		C158.6,116.6,160.1,115.2,160.8,113.4z"/>
	<path class="st0" d="M157.3,122.8c0.9-1.1,2-2.2,2.2-3.7C158.3,119.9,158,121.5,157.3,122.8z"/>
	<path class="st0" d="M221.7,62.4c-2.3-0.1-4.7,0-7-0.1c-1.1-0.1-2,0.4-3,0.7c-0.6-0.3-1.1-1-1.8-0.9c-1.6,0.1-3.3-0.1-4.9,0.2
		c-1.8,1.4-1.2,4,0.1,5.5c3.1-0.3,6.2-0.2,9.3,0.4c-0.1,0.2-0.2,0.5-0.3,0.7c-1.2,0.2-2.5,0.3-3.8,0.4c0.7,0.1,1.5,0.3,2.2,0.4
		c-0.5,0.7-1,1.3-1.6,1.8c-0.5-0.1-1-0.1-1.5-0.2c-0.3,1.4-0.6,2.8-1,4.2c-1.1-0.1-2.3-0.3-3.4-0.7c0.2-1.6,0.7-3.1,1-4.6
		c0.8-0.4,2.2-0.2,2.6-1.2c-1.9,0.2-3.9,0.7-5.2,2.2c0.6-0.2,1.3-0.5,1.9-0.7c-0.2,1.1-0.5,2.2-0.8,3.2c-1.2-0.1-2.5-0.2-3.7-0.4
		c0,0.1,0,0.2,0,0.3c1.3,0.3,2.7,0.3,3.8,1.2c1.1,0.9,2.6,1.2,4,1.1c0.7-1.2,0.9-2.6,1.2-4c1.2-0.4,2.9-0.9,2.9-2.5
		c2.6-0.4,5.2,0.2,7.8,0.1c0.4-1.4,0.9-2.9,0.2-4.3C221.7,64.6,221.7,63.4,221.7,62.4z M220.3,69.1c-1.7,0-3.3-0.2-5-0.3
		c-0.4-0.6-0.7-1.3-1.4-1.3c-2.7-0.5-5.5-0.7-8.2-0.3c-0.4-0.6-1-1.1-1.3-1.7c0.1-1,0-2.4,1.2-2.7c1.3,0,2.6,0,3.9,0
		c0.8,0,1.4,0.7,2.2,0.8c1.1,0.1,1.9-0.9,3-0.7c2.2,0.1,4.3,0.1,6.5,0c-0.1,0.5-0.2,0.9-0.2,1.4c-0.4,0.4-1.2,0.5-1.2,1.1
		c0.3,0.4,0.6,0.9,0.9,1.3C220.5,67.5,220.4,68.3,220.3,69.1z"/>
</g>
</svg>
