<?xml version="1.0" encoding="utf-8"?>
<!-- Generator: Adobe Illustrator 26.0.3, SVG Export Plug-In . SVG Version: 6.00 Build 0)  -->
<svg version="1.1" id="Слой_1" xmlns="http://www.w3.org/2000/svg" xmlns:xlink="http://www.w3.org/1999/xlink" x="0px" y="0px"
	 viewBox="0 0 239.5 150.2" style="enable-background:new 0 0 239.5 150.2;" xml:space="preserve">
<style type="text/css">
	.st0{fill:#141414;}
</style>
<g>
	<path class="st0" d="M218.4,109.8c-0.3-2.3-0.2-4.7-0.2-7.1c0.2-3.2,0.8-6.3,0.7-9.5c-0.2-2.7-0.3-5.4-1-8
		c-0.4-1.7-1.4-3.2-2.4-4.6c-0.7-1-1.8-1.7-2.9-2.2c-2.2-1.3-4.8-1.6-7.1-2.6c-0.6-0.3-1.2-0.3-1.9-0.3c0.2-2.4,2.5-4.3,2.3-6.9
		c-0.4-1.7-1.9-2.9-3.3-3.8c-1.1-0.9-2.7-1.3-3.7-2.4c-1-1-2.3-2.3-3.8-1.9c-1.2,0.6-1,2-1.7,3c-0.6-0.7-0.8-1.6-1.2-2.4
		c-0.6-1.6-1.7-2.9-2.6-4.2c-0.3-0.3,0-0.7,0.1-1l5.2-12c0.8-2.3,1.2-4.8,1.6-7.2c0.4-2.5-0.4-5.1-0.7-7.6c-0.3-2.4-0.9-4.7-1.2-7.1
		c-0.1-0.9-0.2-1.9,0.2-2.8c0.5-1.2,0.8-2.6,0.4-3.8c-0.5-1-1.5-1.6-2.3-2.2c-1.2-0.9-2.1-2.1-3.4-2.7c-1.4-0.9-3.1-1.2-4.7-1.4
		c-1.5,0.2-3,0.3-4.5,0.1c-1.2-0.3-2.3-0.8-3.5-0.9c-1.2,0-2.4-0.1-3.6,0c-1.4,0.1-2.6,0.7-3.9,0.9c-1.6,0.2-3.2,0-4.7,0.2
		c-1.7,0.5-3.1,1.8-3.8,3.5c-0.8,1.2-0.8,2.8-0.4,4.2c-0.8,1.8-1.9,3.6-2.3,5.6c-0.9,4.6-1.3,9.2-0.8,13.9c0.2,3.9,1.2,7.8,2.6,11.4
		c0.7,1.9,1.3,3.8,2.6,5.5c0.7,1,1.5,1.9,2.2,2.9c0.4,0.4,0.1,1.1-0.2,1.5c-0.7,1.1-1.5,2.2-2.3,3.2c-1-0.7-2.2-0.5-3.3-0.4
		c-1.5,0.6-2.5,2.1-3.9,2.9c-0.9,0.7-2.2,1-2.7,2.1c-0.4,0.9-1.1,1.6-1.2,2.6c-0.2,1.6,0.7,3.1,0.8,4.7c-1,0-2,0-3,0.1
		c-1.4,0.3-2.8,0.9-4.3,0.9c-1,0-2.1,0.2-3.1,0.3c-1.9,0.6-3.7,1.6-5,3.2c-2.1,2.7-2.3,6.3-2.2,9.5c0.3,3,1.4,5.8,1.9,8.7
		c0.9,3.5,1.2,7.2,1.3,10.8c0.4,3.8-0.3,7.6-0.4,11.4c-0.2,3-0.2,6.1,0.8,9c0.6,1.9,2.3,3.1,3.5,4.5c1.1,1.2,1.4,3,2.7,4.2
		c1,1.1,2.5,1.7,4,1.9c2.1,0.7,4.4,1.1,6.4,0.1c0.8,4.3-0.7,8.6-2.2,12.7c0.6-0.2,0.7-0.9,1-1.4c1.3-3.6,2.3-7.6,1.6-11.5
		c0.4-0.8,0.9-1.5,1.2-2.3c1-1.4,2.2-2.8,3-4.3s1.6-3,1.6-4.7c0.3-0.7,0.4-1.5,0.5-2.3c2,0.1,4,0.2,6-0.1c2-0.2,4-0.4,6-0.9
		c1.8-0.5,3.7-0.7,5.4-1.3c1,0.3,1.9,0.3,2.9,0.2c2.2,0.5,4.3,1,6.5,1.6c2.9,0.5,5.8,1.1,8.7,0.9c0.9,2.4,1.5,5,2.7,7.3
		c0.7,1.2,1.4,2.4,2.6,3.2c0.3,0.3,0.9,0.5,0.8,1c0,1.7-0.1,3.4,0.3,5c0.3,2,1.1,3.8,2,5.6c0.4,0.6,0.6,1.3,1.3,1.6
		c-0.3-1-1-1.8-1.4-2.8c-0.7-1.6-1.4-3.2-1.6-5c-0.1-1.5-0.3-3-0.1-4.5c1,0.9,1.4,2.6,2.8,3c1.5,0.6,3.2,0.3,4.4-0.6
		c1.2-0.8,2.3-1.7,3.2-2.9c0.9-1.3,1.7-2.8,2.1-4.4c0.1-0.6,0.5-1.1,0.9-1.6c1.9-2.1,3-4.8,3.4-7.6
		C220.4,117.5,218.8,113.7,218.4,109.8z M194.1,62.7c0.2-0.8,0.4-1.8,1.3-2c0.6,0,1.2,0.4,1.7,0.7c-1.1,0.1-2.3,0.7-2.6,1.9
		c-0.3,1.3-1.2,2.7-0.7,4.1c0.6,1.1,2.1,1.3,2.7,2.4c0.5,0.4-0.5,1.6-0.8,0.8c-0.4-0.4-0.7-0.8-1.1-1.1c-0.5-0.5-1.1-0.9-1.4-1.5
		c-0.2-0.5-0.1-1.1-0.1-1.7C193.4,65.1,193.9,64,194.1,62.7z M193.9,66.8c1.1-0.4,2.2-0.6,3.3-0.4c0.2,0.4,0.5,0.8,0.7,1.3
		s-0.4,0.9-0.6,1.3c-0.7-0.4-1.4-0.5-2.2-0.6C194.6,68,194.3,67.4,193.9,66.8z M194.9,71.1c-0.3-0.7-1.2-0.9-1.5-1.5
		c-0.2-0.3-0.3-0.6-0.4-0.9c0.4,0.3,0.8,0.7,1.2,1c0.6,0.7,1.1,1.4,1.6,2.2c-0.3,0.1-0.6,0.2-1,0.3
		C194.8,71.7,194.9,71.4,194.9,71.1z M192.8,65.9c0,0.5,0,1-0.1,1.5c0,0.2-0.1,0.6-0.1,0.7c-0.1-0.4-0.2-0.8-0.3-1.2
		C192.3,66.5,192.4,66.1,192.8,65.9z M191.3,65c0.5-0.7,1.3-0.8,2.1-1c-0.3,0.8-0.9,1.4-1.2,2.1c-0.5,1.3,0.4,2.5,0.8,3.7
		c0.2,0.7-0.5,1.2-1.2,1.1c0.2-0.8,0-1.7-0.6-2.2C191.2,67.5,190.5,66.1,191.3,65z M178.7,40c0.7-0.7,1.6-1.3,2.4-1.9
		c0.8,0.1,1.5-0.2,2.2-0.5c0.6-0.1,1.3-0.1,1.9-0.3c-0.3,0.5-0.8,0.9-1.2,1.2c0-0.2,0-0.7,0-0.9c-0.6,0.4-1,1.1-1.7,1.3
		c0-0.2-0.1-0.5-0.2-0.6c-0.7,0.9-1.4,1.8-1.9,2.8c0.8-0.3,1.3-0.9,1.9-1.3c0.1,0.1,0.2,0.4,0.3,0.6c0.4-0.2,0.8-0.3,1.3-0.3
		c0,0.4,0.1,0.7,0.1,1.1c0.3,0,0.7,0,1,0c0.4-0.4,0.7-0.8,1-1.3c1.3,0.8,2.8,0.8,4.3,0.6c-0.1-0.1-0.2-0.4-0.3-0.5
		c-0.9-0.1-1.8,0.1-2.7-0.3c0.5-0.2,1.7,0.1,1.6-0.8c-0.6-0.1-1.1,0-1.7,0c0-0.3,0.4-0.9-0.1-1c-0.5,0.3-1,0.5-1.5,0.6
		c0.1-1.2,1.6-1.5,2.6-1.3c0.8,0.4,1.7,0.2,2.4-0.3c0-0.1,0.1-0.3,0.1-0.3c-1.2-0.4-2.6-0.1-3.8-0.2c1.2-0.7,2.5-1.2,3.8-1.7
		c0.9-0.3,1,1,1.1,1.6c-0.1,1.4-0.2,2.8-0.6,4.1c-0.4,1.3-1.9,1.7-3.1,2.1c-1.6,0.3-3.1,0.9-4.7,1c-0.9-0.3-1.8-0.7-2.7-1.1
		c-0.6-0.5-1.3-1-2.1-1.2C178.4,40.7,178.3,40.3,178.7,40z M179,53.1c1.2,0.6,2.6,1.1,3.8,1.8c0.2,0.3-0.1,1.4-0.6,0.8
		c-1-1.3-2.5-2.2-4.1-2.1c-0.7,0-1.3,0.3-1.9,0.1c-1.6-0.3-2.9,0.9-4.2,1.5c0.1-1,1-1.5,1.8-2C175.4,52.7,177.4,52.1,179,53.1z
		 M175.3,58.7c-1.3-0.3-2.9-0.9-3.2-2.4c1.4-0.2,2.6,0.3,3.9,0.6c0,0.4-0.1,0.7-0.1,1.1c0.1,0,0.4,0,0.6,0c0.1-0.4,0.1-0.7,0.2-1.1
		c0.6,0,1.2,0,1.8,0c0.1,0.5,0.3,1,0.5,1.4c0.3-0.6,0.1-1.2-0.2-1.7c1-0.4,2-0.3,2.9,0C180.4,58.6,177.6,59.5,175.3,58.7z
		 M181.2,58.2c0,0.1-0.1,0.4-0.1,0.5c-0.8,0.7-1.9,1.2-3,1.1c-1.1-0.1-2.3,0.1-3.4,0c-1-0.3-1.7-1.3-2.5-2c0-0.1-0.1-0.3-0.2-0.5
		c1.1,1.5,2.9,1.8,4.6,2.2C178.3,59.8,179.9,59.1,181.2,58.2z M172.4,55.6c0.6-0.6,1.6-0.6,2.2-1.1c0.4-0.3,1-0.4,1.5-0.2
		c0.9,0.3,1.8-0.4,2.6,0c1.1,0.2,2,0.8,2.7,1.7c-1.4,0-2.8-0.5-4.2-0.4C175.7,55.5,174.1,56,172.4,55.6z M164.4,41.6
		c-1.3-0.9-2.3-2.3-2.4-4c0.1-0.7,0.6-1.3,1.3-1.5c0.2,0,0.6,0.1,1.2,0.3c-0.2,0.1-0.3,0.1-0.5,0.2c-0.1,0-0.3,0.1-0.4,0.1
		c0,0.1,0.2,0.4,0.2,0.6c1,0.1,2,0.1,3,0.1c0-0.1,0.1-0.2,0.1-0.3c0.5,0.1,1.1,0.2,1.8,0.3s2.7,0.2,2.7,0.2
		c-0.1,0.5-0.1,0.7-0.1,1.2c-0.6-0.2-1.2-0.4-1.8-0.7c-0.4,0.1-0.8,0.3-1.2,0.3c-0.9-0.1-1.7-0.4-2.6-0.4c0,0.3,0,0.5,0,0.8
		c0.5,0.1,1,0.3,1.4,0.5c-1.1,0.4-2.3-0.2-3.4,0.1c0,0.1,0.1,0.4,0.1,0.5c1,0.1,2,0,3,0.3c0.3-0.2,0.6-0.4,1-0.6
		c0.4,0.6,1,0.4,1.5,0.2c0.5,0.2,0.3,0.7,0.3,1.1c1,0.2,2-0.2,2.4-1.1c0.6,0.5,1.1,1.1,1.8,1.3c-0.2-1.1-1.4-1.5-1.9-2.4
		c-0.2-0.4-0.2-0.7-0.3-1.1c0.8,0.1,1.3,0.5,2.1,0.2c0.8,0.7,1.8,1.3,2.6,2.1c0.3,0.4-0.3,0.7-0.5,1c-0.5,0.7-1.4,0.8-2.1,1
		c-1,0.4-2.1,0.1-3.2,0.3C168.3,42.6,166,42.9,164.4,41.6z M164.9,66.4c0.3,0.6,0.8,1.2,0.7,1.9c-0.4,0.8-0.8,1.7-1.4,2.4
		c-0.6,0.5-1.1,1.1-1.5,1.7c-1.1-0.1-1.3-1.5-0.8-2.3s1.2-1.5,1.9-2c-0.2,0-0.7-0.1-0.9-0.1c0.1-1.3,0.7-2.6,0.7-3.9
		C164.2,64.8,164.5,65.7,164.9,66.4z M162.3,62.2c-0.7-0.4-1.3-1-2-1.5C161.3,60.3,161.8,61.6,162.3,62.2z M151.2,68.8
		c-0.1-0.5,0.1-1,0.4-1.4c0.4,1,0.8,2.1,0.8,3.2s0.3,2.2,0.2,3.3c-0.4-0.5-0.4-1.2-0.6-1.8C151.8,70.9,151.4,69.9,151.2,68.8z
		 M160.4,118.4c0.1,2.4,0.2,4.8-0.2,7.1c-0.4,2.4-1.5,4.6-2.8,6.7c-0.9,1.2-1.8,2.3-2.7,3.5c0.2,1.1-1,1.6-1.8,1.9
		c-1.5,0.3-3,0.1-4.4-0.3c-1.4-0.4-2.9-0.7-4-1.7c-1.2-1-1.6-2.6-2.5-3.9c-1.1-1.6-2.7-2.7-3.7-4.4c-0.4-0.7-0.5-1.5-0.7-2.3
		c-0.8-4.3-0.1-8.7,0.1-13.1c0.1-5.8,0-11.6-1.4-17.2c-0.7-3.2-1.9-6.4-1.7-9.8c0.1-2.1,0.3-4.2,1.3-6.1s2.7-3.4,4.7-4.1
		c1.6-0.7,3.5-0.3,5.2-0.7c1.2-0.2,2.4-0.8,3.7-0.9c0.7-0.1,1.5,0,2.2,0c0.8,2.2,1,4.6,1.1,6.9c0,0.6,0,1.4-0.4,1.9
		c-0.4,0.6-0.9,1-1,1.7c-0.2,1.4,0.2,2.8-0.2,4.2c-0.4,1.4-0.8,2.8-1.3,4.1c0.1-1,0.1-2.1,0.1-3.1c-0.1,0-0.4,0-0.6,0
		c0.1,2.6-0.1,5.4-1.3,7.8c-1.7,4.6-3.7,9-5.5,13.5c-0.9,2.1-1.9,4.2-2.6,6.4c-0.8,2.4-1.5,4.8-1.6,7.3c0.1,0,0.4,0,0.5,0
		c0.3-5,2.6-9.6,4.3-14.2c0.7-1.8,1.5-3.6,2.3-5.5c0.6-1.4,1-2.9,1.6-4.2c1.4-3.1,2.5-6.2,3.7-9.4c0.5-1.5,1.1-3,0.9-4.6
		c0-0.7-0.1-1.5,0-2.2c0.3-0.9,1.2-1.4,1.3-2.3c0.2-1.9,0.1-3.8-0.2-5.7c0-2.7-0.2-5.4-0.9-8c-0.2-0.6-0.1-1.3,0.4-1.9
		c0.7-1,1.8-1.5,2.8-2.1c1.1-0.7,1.9-1.8,3.1-2.5c0.4-0.2,0.9-0.3,1.3-0.2c0.9,0.5,1.7,1.3,2.5,1.9c0.5,0.4,1.1,0.9,1,1.6
		c0,1.5-0.5,3.1-1.4,4.2c-1.3-0.3-1.2-2.1-0.9-3.1c0.5-0.1,1.1-0.2,1.5-0.7c-0.8-0.2-1.7,0.1-2.3-0.5c0.1-0.6,0.4-1.2,0.5-1.7
		c-0.7,0.3-0.8,1.1-1.3,1.6c-0.4,0.3-0.9,0.5-1.3,0.7c-0.3-0.3-0.7-0.6-1-0.8c0.2,0.8,0.7,1.5,1.1,2.2c0.4,0.8,0.4,1.7,0.4,2.6
		c-0.5-0.5-0.9-1.1-1.5-1.5c0.4,1,1.2,1.8,1.7,2.8c0.6,1.4,1.1,3,1.2,4.6c0.1,0.5,0,1.1,0.5,1.3c0.2-2-0.5-3.9-1.1-5.8
		c0.5,0.5,0.9,1.1,1.5,1.5c-0.7-1.7-1.3-3.5-0.6-5.3c0.1,0.5,0.2,1.1,0.4,1.6c0.3,0.5,0.9,0.8,1.4,1.1c-0.4,0.8-0.9,1.6-0.6,2.5
		c0.4,0.6,1.1,1,1.6,1.5c0.6,0.5,0.5,1.4,0.5,2.1c0.1,1.7-0.4,3.4-0.9,5c-0.6,2-1.1,4.1-2.1,6c-0.4-2,0.2-4,0.2-6
		c-0.3,0.7-0.3,1.5-0.4,2.2c-0.2,2.1-0.2,4.3,0.3,6.4c0.5,2,0.4,4.1,0.4,6.1s0.2,4-0.4,5.9c-0.6,3-0.8,6-0.9,9
		C159.3,112.8,160.1,115.6,160.4,118.4z M159.2,67.3c0,0.9,0,1.8,0.1,2.7c-0.2-0.1-0.4-0.1-0.7-0.2
		C159.2,69.1,158.7,68.1,159.2,67.3z M158.4,66.1c-0.3-0.1-0.5-0.6-0.3-0.9C158.6,65,158.9,66,158.4,66.1z M159.3,66.7
		c-0.1-0.5-0.3-1.1-0.5-1.6c0.5-0.3,1.1-0.5,1.5-0.1C160.9,65.7,159.9,66.4,159.3,66.7z M163.6,81.8c0.1,2.3-0.8,4.4-1.3,6.6
		c-0.2,0.9-0.5,1.9-1.1,2.7c-0.5-1.1-0.5-2.3-0.7-3.4c0.1-1,0.7-1.8,1-2.7c0.9-2.2,1.4-4.6,2.1-6.8
		C163.7,79.3,163.6,80.5,163.6,81.8z M180.2,119.7c-0.1,0-0.3,0-0.5-0.1c-0.1-1.5-0.6-2.9-1-4.3c-0.2-0.8,0.2-1.6,0.4-2.3
		c0.5,0.8,1,1.6,1.7,2.2C180.5,116.7,180.3,118.2,180.2,119.7z M192.6,90.5c-0.7,4-2.5,7.7-4.1,11.4c-1.3,2-2.3,4.2-3.6,6.2
		c-1.7,2-2.7,4.4-3.9,6.7c-1.3-0.8-1.7-2.3-1.9-3.7c-0.4-4.3-0.2-8.6-0.5-12.9c0.1-1.4,0.1-2.9,0.5-4.2c0.3-1.2,1.2-2.1,1.5-3.3
		c-0.7,0.3-0.9,1.2-1.3,1.8c-0.5,0.9-0.8,1.9-1,2.9c-0.6-1.7-1.4-3.6-3.1-4.4c0.4,0.6,1.1,1,1.5,1.7c1,2,1.4,4.3,1.4,6.5
		c0.2,2,0.2,3.9,0.3,5.9c0.1,1.5,0.2,2.9,0.2,4.4s0.2,3.1-0.2,4.6c-0.5-1.2-1-2.5-1.7-3.6c-0.9-1.5-1.8-3-2.7-4.6
		c-1.4-2.3-3.4-4.2-4.6-6.6c-1.1-2.2-2.2-4.4-2.9-6.8c-0.4-1.2-1-2.2-1.3-3.4c-0.8-3.2-0.4-6.4-0.4-9.6c0.2-1.9,0.2-3.7-0.2-5.6
		c-0.1-0.5-0.6-0.9-0.7-1.5c0.4-0.9,1-1.6,1.5-2.4c0.4,0.2,0.7,0.6,1.2,0.7c1.2,0.2,2.4,0.6,3.6,0.9c1.2,0.3,2.2,1,3.5,1.1
		c2,0.1,4.1,0.5,6.1-0.2c1.9-0.5,4-0.1,5.8-1.2c1.4-0.9,2.7-1.8,3.9-3c0.9,0.1,1.7,1,1.8,1.9c0.1,0.4,0.1,0.8,0.3,1.2
		c0.4,0.3,0.9,0.1,1.3,0.2c0,0.1-0.1,0.2-0.1,0.3c-0.5,1.1-0.3,2.2-0.5,3.3c-0.6,3.1,0.2,6.3,0.7,9.3
		C192.6,86.4,193,88.5,192.6,90.5z M193.9,71.8c0.4,0.4,0.8,0.7,1.3,0.9c-0.4,1-0.2,2.2-0.8,3.1c-0.4,0.7-0.8,1.4-1.3,2.1
		C193.2,75.8,193.2,73.8,193.9,71.8z M215.8,129c-0.7,0.9-0.8,2.1-1.2,3.1c-1,2.8-3.3,4.9-6,6.1c-1.5,0.5-3.5,0.1-4.2-1.4
		c-0.4-0.8-0.3-1.8-1-2.4c0,0.2-0.1,0.6-0.1,0.8c-0.9-0.7-2-1.4-2.6-2.4c-1.1-1.8-2-3.7-2.6-5.7c-1-2.8-1.7-5.7-1.6-8.7
		c-0.1-2.3,0.3-4.5,0.3-6.8c0-3.3,0.3-6.6-0.3-9.9c-0.5-2.5-0.8-5-0.9-7.6c-0.1-3.1-0.3-6.2-1.3-9.2c-0.5-1.7-0.8-3.5-0.9-5.3
		c0.1-1.8,1.4-3.2,2.1-4.8c0.4-0.8,0.2-1.8,0.7-2.5c0.6-1,1.1-1.9,1.7-2.9c0.2-0.4,0.7-0.6,1.1-0.9c0.1-0.3-0.3-0.4-0.4-0.5
		c-0.5-0.9-0.7-1.8-0.5-2.8c-0.2,0.2-0.5,0.5-0.7,0.7c-0.5-0.3-1-0.6-1.2-1.2c-0.2-0.4-0.2-1.1-0.7-1.2c0,0.9,0.4,1.7,0.9,2.5
		c-0.8,0-1.6,0.1-2.3,0.3c0.2-1.1,0.6-2.2,1.1-3.3c0.5-0.5,1.1-1.1,1.9-0.9c2.2,0.8,3.8,2.6,5.9,3.6c1.2,0.7,2.5,1.9,2.6,3.3
		c-0.4,1.5-1.1,2.9-1.7,4.2c-0.6,1.2-0.9,2.6-1.2,3.9c-0.3,1.1-0.3,2.2-0.2,3.3c-0.1,2.4,0.8,4.6,1.5,6.9c1.1,2.9,2.2,5.7,3.6,8.4
		c1.7,3.8,3.8,7.5,5.8,11.2c0.9,2,2,3.9,2.8,6c0.7,2.7,1.2,5.4,1.6,8.1c0.1,0.5,0,1.2,0.6,1.4c-0.1-1.9-0.6-3.8-0.9-5.7
		c-0.4-1.9-0.7-3.9-1.6-5.7c-1.1-2.2-2.1-4.5-3.4-6.6c-2.2-4.3-4.6-8.4-6.4-12.9c-0.5-1.3-0.5-2.6-0.7-3.9c-0.1,0-0.3,0-0.4,0
		c0,0.5,0.1,0.9,0.1,1.4c-0.9-2.1-1.6-4.3-2.1-6.6c-0.3-0.8,0.3-1.6,0.1-2.4c-0.3-1.4,0-2.8,0.6-4c0.2-0.3,0.6-0.3,0.9-0.4
		c2.7,1.3,5.8,1.8,8.3,3.4c0.8,0.5,1.7,0.9,2.2,1.7c1.2,1.7,2.2,3.6,2.6,5.7c0.5,2.4,0.6,4.8,0.8,7.3c0.1,3-0.5,6-0.5,9
		c-0.4,3.8-0.1,7.6,0.8,11.3c0.3,1.7,0.7,3.4,0.7,5.1C219.6,122.6,218.2,126.3,215.8,129z"/>
	<path class="st0" d="M185,85.7c0.4-0.3,1.1-0.5,1.2-1.1c-1.3,0.2-2.2,1.2-3.2,1.9c-0.1,0.2-0.8,0.6-0.2,0.7
		C183.5,86.9,184.2,86.2,185,85.7z"/>
	<path class="st0" d="M182.5,88.3c0.8,0,1.3-0.6,1.8-1c0.9-0.7,1.9-1.2,3-1.5c0.6-0.2,1.3-0.3,1.6-0.9c-1.7,0.1-3.3,0.7-4.7,1.8
		C183.6,87.2,182.8,87.5,182.5,88.3z"/>
	<path class="st0" d="M171,86.8c0.2,0.7,1,1.2,1.7,1.2C172.5,87.3,171.7,87.1,171,86.8z"/>
	<path class="st0" d="M161.9,79.1c0.1-0.2,0.3-0.5,0.3-0.8c0-1.2,0.1-2.4-0.3-3.6c-0.1-0.5-0.3-1.1-0.8-1.3c0.2,0.7,0.5,1.4,0.6,2.1
		C162,76.7,161.8,77.9,161.9,79.1z"/>
	<path class="st0" d="M181.9,75.1c-0.5,0.2-0.8,0.8-1.3,1c-0.4,0.2-0.8,0.2-1.2,0.4c0,0.1,0,0.4,0,0.5c0.5-0.1,1-0.1,1.5-0.4
		c0.6-0.3,0.9-1,1.6-1c1.9-0.3,3.9-0.1,5.9,0.2c0.4,0,1.1,0.3,1.2-0.3C187,75,184.5,74.8,181.9,75.1z"/>
	<path class="st0" d="M171.3,85.8c-0.9-0.4-1.8-0.8-2.8-1.1c0.1,0.1,0.2,0.4,0.2,0.5c1.4,0.6,2.7,1.2,4.1,1.9
		C172.6,86.4,171.9,86.2,171.3,85.8z"/>
	<path class="st0" d="M179,124.7h-0.2c-0.2,1.2-0.1,2.4-0.1,3.6c0.2,2.8,0.2,5.6,0.2,8.4c0.1,0,0.2,0,0.3,0c0-3.1-0.1-6.1-0.2-9.2
		C179,126.6,179,125.6,179,124.7z"/>
	<path class="st0" d="M166.4,85.5c-0.1,0.1-0.2,0.4-0.3,0.5c1.4,0.2,2.8,0.4,4.3,0.7c-0.1-0.1-0.2-0.3-0.3-0.4
		C169,85.6,167.6,85.7,166.4,85.5z"/>
	<path class="st0" d="M174.6,75.2c-2.4-0.4-4.9-0.4-7.4-0.4c0,0.1,0,0.4,0,0.5c2.3,0,4.6,0.1,7,0.4c1.4,0,2.3,1.5,3.8,1.4
		c0-0.1,0-0.2,0-0.2C176.7,76.7,175.9,75.4,174.6,75.2z"/>
</g>
</svg>
