<?xml version="1.0" encoding="utf-8"?>
<!-- Generator: Adobe Illustrator 26.0.3, SVG Export Plug-In . SVG Version: 6.00 Build 0)  -->
<svg version="1.1" id="Слой_12" xmlns="http://www.w3.org/2000/svg" xmlns:xlink="http://www.w3.org/1999/xlink" x="0px"
	 y="0px" viewBox="0 0 239.5 150.2" style="enable-background:new 0 0 239.5 150.2;" xml:space="preserve">
<style type="text/css">
	.st0{fill:#050505;}
</style>
<g>
	<path class="st0" d="M222.6,57.8c-1.3-1.2-3.1-1.9-4.8-2.2c-8.2-1.7-16.4-3.8-24.2-6.8c-3-1.1-6-2.1-8.8-3.7
		c-1.1-0.5-2-1.3-3.2-1.5c1,1.1,2.6,1.6,3.8,2.5c2,1.5,4.3,2.3,6.5,3.5c-1.9,2.4-3.8,4.9-4.8,7.8c-1-2.5-2.6-4.7-4.6-6.6
		c0.3-0.7,0.7-1.4,0.7-2.2c-0.6,0.3-1.2,0.7-1.7,1c-0.6-0.5-1.3-1-2-1.4c1.8-6.4,4-12.6,6.9-18.5c1.8-3.9,3.9-7.9,3.9-12.2
		c-0.1-0.7,0.4-2-0.8-1.9c-0.1,1.1-0.1,2.2-0.2,3.3c-0.4,4-2.3,7.6-4.1,11.2c0.4-1.2,0.8-2.4,0.7-3.6c0-0.8-0.3-1.7,0.2-2.4
		c-0.2,0.2-0.4,0.4-0.6,0.6c-0.2,2.6-1.1,5.1-1.8,7.5c-0.5,2.3-1.1,4.7-2.4,6.7c0.1-2.5,0.2-5.1,0-7.6c-0.8,3.1-0.9,6.3-1,9.5
		c-0.2,3-1.2,5.9-2.3,8.7c-1.5,3.6-4,6.5-6.2,9.7c0.1-0.8,0.2-2.3,0.3-3.1c-1.7,5-4.3,9.7-7.6,13.8c-3.6,4.2-8,7.7-12.3,11.1
		c4.6-2.7,8.7-6.1,12.5-9.9c1.3-1.3,2.2-3,3.4-4.4c-0.5,2.3-1.7,4.4-3,6.4c-1.8,2.9-3.9,5.5-6.4,7.9c-3,2.9-5.4,6.3-8.6,9.1
		c-1.4,0.5-2.9-0.3-4.4-0.2c1.3,1.1,3,1.3,4.6,1.6c-1.2,1-2.5,1.7-3.7,2.6c0.7,0.3,1.5,0,2.2-0.1c0.4,1.9,1.1,3.7,2.2,5.2
		c-3,2.5-6.9,4.2-10.9,3.7c-2.3-0.3-3.6-2.5-4.3-4.5c-1.6-5.9,0-12.1,2.3-17.6c3.3-7,7.5-13.6,10.7-20.7c1.4-3.3,3.2-6.5,4.6-9.8
		c1-2.2,1.8-4.5,3-6.6c1.4-2.5,2.1-5.4,3.3-8c1.9-4.2,3.7-8.5,5.7-12.7c-2.4,3.3-4,7-5.9,10.6c1.3-7.6,3.1-15.2,6.2-22.2
		c1.7-3.7,3.2-7.5,5-11.2c-5.7,8.6-9.2,18.5-11.2,28.5c-1,4.8-1.3,9.8-3.7,14.2c-2.2,4-6,6.8-10,8.8c0.5-1.4,1.3-2.6,2-3.9
		c1.3-2.3,2.3-5,4.6-6.5c-1.2,0.3-2.1,1.2-2.9,2c0.2-4.1,0.3-8.3,1.9-12.1c2,1,4.2,1.8,6.2,2.8c-0.2-0.6-0.9-0.7-1.4-1
		c-5.1-2.4-9.3-6.4-13.3-10.3c-0.5-0.5-1.1-1-1.1-1.7c0.3,0,1-0.1,1.3-0.2c0-0.2,0.1-0.7,0.1-0.9c-0.9,0.1-2.2,0-2.5,1.1
		c0,0.9,0.3,1.9,0.9,2.5c2.6,2.9,5.6,5.3,8.9,7.3c-0.3,0.7-0.6,1.4-0.8,2.1c-0.9,4.1-1.2,8.2-1.4,12.4c-3.9,5.8-6.2,12.4-9.4,18.5
		c-5.2,10.2-8,21.3-9.3,32.6c-1.9,13.5-1.3,27.4,2.1,40.6l0.1,0.1c-0.4-2.3-0.7-4.5-1.1-6.8c-0.3-0.6,0.2-1,0.2-1.5
		c-0.3-0.5-0.5-1-0.5-1.6c-0.9-7.6-0.9-15.4-0.6-23c0.9-9.9,2.3-19.9,5.6-29.3c1.1-3.2,2.3-6.4,4.2-9.2c2.2-3.4,5-6.7,8.7-8.4
		c-0.3,1.9-0.8,3.7-1.6,5.4c-3.1,6.4-6.8,12.3-9.7,18.8c-1.9,4.9-3.2,10.1-2.4,15.4c0.3,2.6,1.5,5.2,3.7,6.6
		c0.9,0.4,1.8,0.7,2.8,0.7c3.9,0.2,7.6-1.5,10.6-3.9c0.9,1.7,1.9,3.4,3.4,4.6c2.1,1.9,4.7,3,7.3,4c-2.2,0.4-4.5,0.6-6.7,0
		c-1.7-0.5-3.4-1.3-5-2.1c3.3,3.2,8.3,3.8,12.5,2.5c0.7,0.4,1.4,0.8,2,1.2c-5.3,1.8-11.4,1.8-16.5-0.5c1.7,1.2,3.7,2.1,5.8,2.3
		c3.9,0.4,8,0,11.6-1.5c0.4,0.2,0.8,0.5,1.3,0.7c-1.7,1.7-4,2.5-6.3,3c-3.8,0.9-7.7,0.3-11.5-0.3c-1.3-0.2-2.4-1.1-3.5-1.7
		c1.1,1.3,2.7,2.3,4.4,2.5c1.3,0.2,3.2,0.8,3.2,2.5c2.4-0.2,4.9-0.2,7.3-0.2c0.3,0.3,0.5,0.5,0.8,0.8c-2.2,2.1-5.4,2-8.3,1.7
		c-5.4-1-9.2-5.4-12.5-9.5c-1.1-1.2-1.5-2.7-2.1-4.1c0.1,1.6,0.8,3.2,1.7,4.5c0.5,0.8,1.4,1.7,1.1,2.8c-0.6,2.4-1.6,5-3.7,6.5
		c0-0.7,0-1.4,0-2c-0.3,0.9-0.6,1.8-1,2.7c-0.1-2.6,0.8-5,1.5-7.4c0.8-3-0.8-6-0.6-9c-0.9,1.7-0.2,3.6,0,5.4
		c0.7,3.3-1.3,6.2-1.5,9.4c-0.4,0.9-0.3,1.9,0.4,2.7c0.9-1.2,2.6-1.3,3.6-2.5c1.4-1.6,2-3.8,2.2-5.8c2.6,3,5.6,5.7,9.4,6.9
		c3.5,1,5.6,1.2,8.8-0.6c0.4-0.3,0.8-0.4,1.1-0.6c0.3-0.5,0.3-1,0.1-1.6c-0.4-0.5-0.6-0.4-0.8-0.5c-3-0.8-5,0.8-7.7-1.2
		c2.4,0.2,4.8,0.3,7.1-0.2c2.7-0.6,5.6-1.4,7.3-3.6c1.7,1.3,3.3,2.6,5.4,3.3c2.5,0.7,5-0.4,7.1-1.6c3.4-2.2,6.1-5.5,8-9
		c2.6-4.7,2.9-10.3,2.4-15.6c-0.2-3.6,2.1-6.5,3.7-9.6c1-1.8,1-3.9,0.5-5.8c2.1,0.9,4.1,2.1,5.9,3.4c3.1,2.3,5.2,5.6,7,8.9
		c2.2,4,3.1,8.7,2.8,13.3c-0.4,2.8-1,5.9-3.3,7.8c-3.7,2.9-8,4.9-12.3,7c-3.2,1.6-6.8,1.8-10.2,2.6c2.3,0.1,4.5-0.5,6.8-0.9
		c4.1-0.8,8-2.4,11.7-4.4c0.8,0.1,1.5,0.2,2.2,0.7c0.7,2.3,0.8,4.7,1.1,7.1c0.6,6.3,1.8,12.6,2.5,18.9c0.2-1.9-0.3-3.8-0.4-5.7
		c-0.5-6.9-1-13.8-2.4-20.6c0.3-0.6,0.7-1,1.4-1.1c-0.3-0.2-0.6-0.4-0.9-0.5c-0.7,0.2-1.3,0.3-2,0.4c0.7-1.1,2.1-0.5,3-1.2
		c0.2,0.3,0.4,0.6,0.6,0.9c1-0.9,2.5-1.2,3.4-2.1c-1.6-0.2-3.1,0.5-4.7,0.7c0.9-1,1.7-2.2,3.1-2.6c0.2-0.5,0.3-0.9,0.5-1.4
		c1.1-0.6,3.2-0.4,3.3-2c-1.3,0-2.5,0.4-3.5,1.2c0.7-2.4,1.3-4.9,1-7.4c0.1-1.2-0.5-2.7,0.4-3.7c0,2.7-0.3,5.7,1.2,8.1
		c0.6,1.4,2.3,2.8,1.3,4.4c-1.6,1-3.6,1.2-5.2,2.2c1.7,0,3.5-0.4,5.1-1c1.4-0.5,1.6-2.4,1-3.6c-0.9-1.6-2.1-3.2-2.4-5.1
		c-0.2-1.8-0.2-3.6,0-5.4c1-0.3,1.8-1,2.1-2c1.8-3.9,2.8-8.1,4-12.2c1.7-5.4,0.7-11.1,1.1-16.6c1.2,0,2.6,0,3.7-0.6
		C223.9,59.3,223.1,58.5,222.6,57.8z M187.1,103.6c-2.4,4.5-6.2,8.5-11.1,10.2c-1.9,0.7-3.7-0.3-5.3-1.2c-2.2-1.4-4.7-2.3-6.9-3.7
		c-3.1-1.9-6.5-3.4-9.2-5.9c-1.9-1.7-3.2-4-4.2-6.4c-0.6-1.5-0.5-3.4,0.5-4.8c2.7-5.1,7.3-8.7,11-13c2.9-2.9,5.3-6.3,6.5-10.2
		c0.4-1.8,0.3-4.1,2.1-5.3c0.6-0.6,1.5,0,2.1,0.4c3.5,2.1,6.4,5,8.9,8.1c4.3,5,7.2,11.3,8.1,17.9C189.8,94.4,189.5,99.4,187.1,103.6
		z M210.8,91.6c-0.2-0.5-0.3-1-0.4-1.5c0.5,0.2,0.9,0.5,1.4,0.8C211.4,91.1,211.1,91.3,210.8,91.6z M220.2,59.9c0-0.4,0-1.1,0-1.4
		c-0.6,0.6-1,1.5-1.1,2.3c-0.5,5,0.4,10.1-0.8,15.1c-0.6,3.4-3.4,6.2-3.4,9.8c0,1.8-0.7,3.6-1.8,5c-1.1-1-2.7-1.5-3.4-2.9
		c-2.4-5.2-5.5-10.4-10.6-13.3c-1.8-1.2-3.9-2-5.8-2.9c-4.4-2.1-6.6-7.4-5.8-12c0.7-3.7,3.1-6.7,5.3-9.6c3,1.3,6.4,1.6,9.5,2.7
		c5.1,1.5,10.2,2.8,15.4,3.8c2,0.5,4.3,1.3,5.2,3.3C221.9,59.8,221,59.9,220.2,59.9z"/>
	<path class="st0" d="M207.2,66.5c0-0.4,0.1-1.2,0.1-1.7c-0.2,0.1-0.7,0.4-0.9,0.5c0.1,2.6-1.1,4.9-1.8,7.3c-0.5,1.7-1.5,3.4-1,5.2
		c0.7-0.2,0.7-1.1,1-1.7c0.9-3.5,2.2-6.8,3.5-10.1c0.3-1.2,0.8-2.8,0-3.9C207.8,63.7,207.8,65.2,207.2,66.5z"/>
	<path class="st0" d="M170.8,133.3c1.3-5.9,4.2-11.6,3.6-17.7l-0.6,0.2c-1.1,9.4-4.4,18.4-7.5,27.3c-0.1,0.5-0.1,1.1,0,1.6
		c0.2-0.1,0.5-0.3,0.7-0.4c1.2-3,2.2-6.1,3.1-9.2c0,0,0.1,0,0.1,0c1.7,3.7,3.7,7.2,5.7,10.8c0.9,1.4,1.7,2.8,2.4,4.3
		c0.1,0,0.4,0.1,0.5,0.1c-1.1-3.5-2.9-6.7-4.7-9.8C172.9,138.1,171.4,135.9,170.8,133.3z"/>
	<path class="st0" d="M207.3,64.4c0.2-2.6-0.5-5.2-0.8-7.8c-0.2-0.8,0.5-2.2-0.5-2.4c-1.3,3.6,0.4,7.2,0.7,10.9
		C206.8,64.9,207.1,64.7,207.3,64.4z"/>
	<path class="st0" d="M153.4,105c-0.7-0.5-1.1,0.4-1.5,0.9C152.6,106.1,153.1,105.5,153.4,105z"/>
	<path class="st0" d="M208.2,110c-0.1,0.2-0.4,0.5-0.5,0.6c-0.6,3.1-0.3,6.3-0.1,9.4l0.7,0c0.1-2.3-0.3-4.5,0-6.8
		C208.3,112.2,208.4,111.1,208.2,110z"/>
	<path class="st0" d="M150.8,108.1c-0.5,0.3-0.9,0.8-1.2,1.4C150.5,109.8,150.7,108.8,150.8,108.1z"/>
	<path class="st0" d="M148.3,111.5c-0.7,0-1.1,1.2-0.4,1.5C148.6,113,148.9,111.8,148.3,111.5z"/>
	<path class="st0" d="M102.9,26.5c-0.8-0.6-1.9-1.6-2.6-0.4c-0.9,1.4,0.6,3.1,1.7,4.1c3.1,2.8,5.1-3.5,3.3-4.9
		C104.3,24.6,103.3,25.4,102.9,26.5z"/>
</g>
</svg>
