<?xml version="1.0" encoding="utf-8"?>
<!-- Generator: Adobe Illustrator 24.0.2, SVG Export Plug-In . SVG Version: 6.00 Build 0)  -->
<svg version="1.1" id="Слой_1" xmlns="http://www.w3.org/2000/svg" xmlns:xlink="http://www.w3.org/1999/xlink" x="0px" y="0px"
	 viewBox="0 0 238.1 150.2" style="enable-background:new 0 0 238.1 150.2;" xml:space="preserve">
<g>
	<path d="M199.9,108.1c1.2,1.2,2.3,2.3,3.5,3.5c0.3,0.3,0.4,0.6,0.2,1c-0.6,1-1.1,2.1-1.7,3.1c-1.7,2.4-4.2,3-6.9,2
		c-1.2-0.5-1.2-0.4-2,0.5c-2.3,2.7-4.8,5.2-7.6,7.5c-0.1,0.1-0.3,0.3-0.5,0.4c0.8,1.4,1.6,2.9,2.4,4.3c0.2,0.4,0.2,0.6-0.2,0.8
		c-1.2,0.8-2.3,1.6-3.5,2.4c-1.1-1.4-2.1-2.7-3.2-4.1c-10.8,7.2-22.6,10.9-35.5,10.9c-12.9,0-24.7-3.7-35.5-10.9
		c-0.5,0.7-1.1,1.4-1.6,2c-0.5,0.7-1.1,1.3-1.6,2.1c-1.3-0.9-2.7-1.8-4-2.7c0.9-1.6,1.8-3.2,2.7-4.7c-1.2-1.1-2.4-2-3.5-3.2
		c-1.7-1.7-3.4-3.5-5-5.3c-0.3-0.4-0.6-0.4-1-0.2c-2,0.9-3.9,1.1-5.8-0.2c-1.8-1.2-2.7-3.1-3.5-5c-0.1-0.1,0.1-0.4,0.3-0.6
		c1.1-1.2,2.3-2.4,3.5-3.5c-8.3-15.4-10.4-31.6-5.5-48.5c3.9-13.6,11.6-24.6,22.9-33c23.1-17.4,54.5-16.6,76.7,0.8
		c8,6.3,14.2,14,18.5,23.2c4.3,9.2,6.2,18.9,5.9,29C207.6,89.7,204.9,99.2,199.9,108.1z M99.5,72.5c-0.2,0.2-0.3,0.2-0.4,0.3
		c-0.8,0.5-1.3,0.2-1.4-0.7c0-0.4,0-0.7,0-1.1c0-1.5,0.1-3.1,0-4.6c-0.1-2.1-1.6-2.8-3.4-1.7c-0.3,0.2-0.5,0.3-0.7,0.5
		c-0.4,0.3-0.9,0.7-1.3,1c-2.1,1.7-4.3,3-7,3.3c-0.6,0.1-0.9,0.5-0.9,1.1c-0.1,2-0.2,3.9-0.2,5.9c0,0.6,0,1.1,0,1.7
		c1-1.9,1-3.9,0.8-6c0.4,0.7,1,1.4,1,2.1c-0.1,2.2-0.7,4.2-1.6,6.2c-0.4,0.9-0.1,1.9,0.9,2.2c0.6,0.2,1.1,0.3,1.7,0.4
		c0.6,0.1,1-0.2,1-0.9c0-0.4,0-0.8,0-1.2c0-0.4,0.2-0.8,0.6-0.7c0.2,0,0.5,0.4,0.6,0.7c0.1,0.3-0.1,0.7,0,1.1c0,0.2,0.2,0.4,0.4,0.7
		c0.2-0.2,0.5-0.3,0.6-0.6c0.1-0.2,0.1-0.5,0.1-0.8C90.1,81,90,80.5,89.8,80c-0.4-0.9-0.2-1.7,0.4-2.4c0.1-0.1,0.3-0.3,0.5-0.3
		c1,0,1.9-0.3,2.8-0.9c0.1-0.1,0.3-0.2,0.5-0.3c-0.2,1.3-0.8,2.1-1.9,2.7c-0.1,0.1-0.3,0.2-0.3,0.4c-0.5,1.6-1,3.2-1.6,4.8
		c-0.6,1.8-1.4,3.5-1.8,5.3c-0.4,1.5-0.6,3.1-0.6,4.6c0,1.3,0.4,2.6,0.7,3.8c0.9,3.2,2.7,6,4.7,8.7c2.4-1.7,4.7-3.4,7-5.1
		c-0.8-1.2-1.6-2.4-2.3-3.6c-0.3-0.5-0.6-0.8-1.2-0.6c-0.5,0.1-0.8-0.1-1-0.6c-0.3-0.9-0.8-1.7-2-1.4c0,0-0.1,0-0.1-0.1
		c0-0.4,0.1-0.8,0.1-1.2c0-0.3-0.1-0.5-0.2-0.8c-0.3-0.5-0.7-1-0.8-1.5c-0.6-2.9-0.7-5.9,0.2-8.8c0.7-2.3,1.5-4.5,2.1-6.7
		c0.8-3,0.2-5.6-2.2-7.7c-0.1-0.1-0.2-0.2-0.4-0.4c0.3,0,0.4,0,0.5,0.1c2,0.6,3.5,2.4,3.4,4.8c0,1.3-0.3,2.7-0.6,4
		c-0.6,2.8-1.5,5.5-2.1,8.3c-0.5,2.1-0.1,4.1,1.3,5.9c2-2.2,4-4.4,5.9-6.6c0.9-1.1,1.9-2.1,2.7-3.3c1.7-2.7,3-5.6,2.7-8.8
		c-0.2-1.8-0.5-3.6-1.2-5.2c-1.1-2.9-2.4-5.7-3.7-8.6c-2.1-4.3-3.3-8.8-3.1-13.7c0-0.3,0.1-0.7,0.1-1c0.9,0.1,1.7,0.2,2.5,0.3
		c-0.1,0.6-0.3,1-0.3,1.5c0,2.7,0.3,5.4,1.1,8.1c1,3.1,2.4,6.1,4,8.9c1,1.8,1.9,3.5,2.4,5.5c0.1,0.6,0.5,1.2,0.5,1.8
		c0.1,1.5,0.2,2.9-0.1,4.4c-0.5,2.4-0.9,4.7-2.1,6.8c-1.8,3.5-4.2,6.6-6.8,9.5c-0.1,0.2-0.3,0.4-0.3,0.6c0.1,0.6,0.2,1.1,0.4,1.8
		c0.2-0.3,0.4-0.4,0.5-0.6c1.3-1.6,2.6-3.1,3.8-4.7c2.4-3.1,4.5-6.4,5.5-10.3c0.7-2.7,1.2-5.5,0.7-8.3c-0.4-2.6-1.6-4.9-2.9-7.2
		c-3.1-5.3-4.8-11-4.6-17.3c0-0.4,0-0.8,0-1.2c-1.7-0.2-3.4-0.4-5.1-0.5c-0.5,2.9-0.3,5.7,0.4,8.4c0.7,3.2,2.1,6.2,3.4,9.2
		c1.4,3,2.9,5.9,3.7,9.1c0.4,1.4,0.5,2.9,0.3,4.4c-0.2-0.3-0.3-0.6-0.4-0.9c-0.5-1.7-1.1-3.4-1.6-5.1c-0.5-1.7-1.2-3.2-2.6-4.3
		c-1.3-1-2.6-1.1-4-0.1c0.2,0,0.3,0.1,0.5,0.1c3.3,0.5,5.1,2.4,5.6,5.7c0.3,2.5,0.4,5.1,2.2,7.3c-0.4,0.3-0.8,0.6-1.3,0.9
		c-0.1,0.3-0.2,0.7-0.4,1.2c-0.6,1.7-2,2.8-3.3,3.9c-0.9,0.8-1.8,0.7-3,0.5c0.6-1.5,1.2-2.9,1.8-4.3c-0.3-0.1-0.6-0.1-1-0.2
		C98.8,76.6,99.2,74.7,99.5,72.5z M189.5,92.8c0.2-0.7,0.3-1.3,0.4-1.8c0-0.2-0.1-0.4-0.2-0.5c-1.3-1.6-2.7-3.2-3.9-4.9
		c-2.6-3.4-4.3-7.2-5.1-11.5c-0.6-3.4,0.2-6.4,1.6-9.4c0.8-1.8,1.8-3.4,2.7-5.1c1.2-2.3,2.3-4.6,2.9-7.1c0.7-2.8,1.2-5.7,0.6-8.6
		c0.8-0.1,1.6-0.2,2.4-0.3c0,0.3,0.1,0.5,0.1,0.7c0,0.4,0,0.9,0,1.3c-0.1,4.3-1.1,8.4-2.9,12.3c-1.4,3-2.8,6.1-4,9.2
		c-0.8,2.1-1.3,4.3-1.1,6.6c0.3,3.4,1.7,6.4,3.9,8.9c2.3,2.7,4.7,5.3,7.1,7.9c0.1,0.1,0.2,0.2,0.5,0.4c0.4-0.8,0.8-1.6,1-2.4
		c0.5-1.7,0.3-3.5-0.2-5.2c-0.6-2.5-1.3-5-2-7.4c-0.4-1.7-0.7-3.3-0.1-5.1c0.6-1.6,1.7-2.7,3.6-3c-0.2,0.2-0.3,0.4-0.5,0.5
		c-1.7,1.4-2.3,3.3-2.4,5.5c0,1.6,0.5,3.1,1,4.6c1.3,3.6,2.4,7.2,1.9,11.1c-0.1,1-0.3,2.2-0.8,3c-0.5,0.7-0.5,1.4-0.4,2.1
		c0,0.1,0,0.3,0,0.5c-1.1-0.3-1.7,0.2-2,1.2c-0.2,0.7-0.6,1-1.4,0.8c-0.2,0-0.6,0.1-0.7,0.2c-0.9,1.3-1.7,2.6-2.6,4
		c2.3,1.7,4.7,3.4,7,5.1c2-2.6,3.7-5.4,4.6-8.6c0.5-1.7,1-3.5,0.8-5.3c-0.2-2.3-0.8-4.5-1.7-6.7c-0.9-2.2-1.6-4.5-2.4-6.8
		c-0.1-0.2-0.3-0.3-0.4-0.4c-1-0.5-1.6-1.4-1.8-2.7c1.1,0.9,2.2,1.4,3.4,1.3c0.1,0,0.2,0,0.2,0.1c0.5,0.3,0.8,1.5,0.7,2
		c-0.2,0.9-0.3,1.8-0.4,2.7c-0.1,0.4,0.2,0.8,0.6,0.8c0.5,0,0.4-0.5,0.4-0.8c0-0.4-0.1-0.8,0-1.2c0-0.2,0.4-0.5,0.6-0.5
		c0.3-0.1,0.5,0.2,0.5,0.6c0,0.4,0,0.8,0,1.3c0,0.8,0.4,1.1,1.1,1c0.5-0.1,1-0.2,1.5-0.4c1-0.3,1.4-1.3,1-2.2
		c-0.9-1.9-1.4-3.8-1.6-5.9c-0.1-1,0.5-1.6,0.9-2.3c0,1-0.1,2,0,3c0.1,1,0.4,2,0.6,3c0.1,0,0.1,0,0.2,0c0-0.7,0-1.4,0-2
		c0-1.7-0.1-3.4-0.1-5.1c-0.1-1.2-0.3-1.4-1.5-1.7c-1.6-0.3-3.2-0.8-4.6-1.8c-1.1-0.8-2.2-1.7-3.3-2.5c-0.5-0.4-1.1-0.7-1.7-0.8
		c-1.2-0.3-2.1,0.3-2.3,1.5c-0.1,0.9-0.2,1.9-0.2,2.9c0,1.1,0.1,2.2,0.1,3.4c0,0.3-0.2,0.9-0.3,0.9c-0.4,0.1-0.8-0.1-1.1-0.2
		c-0.1,0-0.2-0.1-0.3-0.3c0.3,2.2,0.7,4.2,1.8,6c-0.4,0.1-0.7,0.1-1,0.2c0.6,1.4,1.1,2.8,1.7,4.3c-1.1,0.3-2.1,0.4-2.9-0.5
		c-0.3-0.4-0.7-0.6-1.1-0.9c-1.2-0.9-2-2.1-2.4-3.5c-0.2-0.4-0.2-0.9-0.8-1c-0.2,0-0.5-0.3-0.7-0.5c1.2-1.4,1.7-2.9,1.9-4.5
		c0.1-1,0.2-2,0.4-2.9c0.3-2.8,2.1-4.8,4.8-5.4c0.4-0.1,0.8-0.2,1.4-0.3c-1.3-0.6-2.5-1-3.6-0.2c-1.1,0.7-2.1,1.7-2.5,3
		c-0.4,1.2-0.8,2.5-1.2,3.7c-0.4,1.3-0.8,2.7-1.3,4c-0.2-0.1-0.2-0.2-0.2-0.3c0-0.4,0-0.7,0-1.1c0.1-2.6,0.9-5,1.9-7.3
		c1.1-2.6,2.4-5.2,3.5-7.9c1.8-4,3-8.2,2.7-12.7c0-0.6-0.1-1.2-0.2-1.9c-1.7,0.2-3.4,0.4-5.1,0.6c0,0.5,0,0.9,0,1.3
		c0,2.4,0,4.8-0.6,7.2c-0.9,4-2.6,7.6-4.6,11.2c-1.6,2.8-2.7,5.8-2.4,9.1c0.2,3.1,0.9,6,2.1,8.8c1.3,2.9,3.2,5.5,5.2,8.1
		C187.2,90.1,188.3,91.4,189.5,92.8z M115.5,124.9c0,1.7,0,3.5,0,5.2c0,0.5,0.2,0.7,0.6,1c12.3,6.7,25.4,8.9,39.3,6.5
		c6.4-1.1,12.4-3.3,18.1-6.5c0.4-0.2,0.6-0.5,0.6-1c0-1.6,0-3.2,0-4.7c0-0.2,0-0.3,0-0.4C154.5,135.8,135,135.8,115.5,124.9z
		 M113.2,101.3c-2.7,2.4-5.4,4.8-8,7.3c-0.9,0.8-1.2,1.9-0.7,3.1c0.5,1.3,1.5,2.1,2.7,2.7c0.5,0.2,1,0.3,1.4,0
		c0.9-0.6,1.8-1.2,2.6-1.9c2.6-2.7,5-5.5,7.5-8.2c0.7-0.7,1.3-1.4,0.7-2.6c6.9,7.2,15.2,11,25.1,11c9.9,0,18.3-3.8,25.2-11
		c-0.2,0.7-0.3,1.3,0.2,1.9c2.3,2.6,4.6,5.2,7,7.7c1.1,1.1,2.4,2.1,3.7,3c0.3,0.2,0.8,0.3,1.1,0.2c1.2-0.4,2.1-1.1,2.8-2.2
		c0.8-1.4,0.4-3-0.9-4c-1.1-0.8-2.2-1.6-3.2-2.5c-1.5-1.4-3-3-4.4-4.4c-0.1,0.2-0.3,0.4-0.6,0.7c-0.4-0.7-0.6-1.1-0.8-1.5
		c-1.2-1.9-2.8-2.9-5.1-2.5c-0.4,0.1-0.8,0.1-1.2,0.1c-0.5,0-0.7-0.2-0.6-0.7c0.1-0.6,0.2-1.2,0.3-1.8c0.1-0.7-0.3-1-1-0.9
		c-0.5,0.1-0.9,0.2-1.3,0.3c-0.7,0.1-0.9,0-0.7-0.7c0-0.3,0.1-0.6,0.2-0.9c0.1-0.7-0.1-0.9-0.8-0.8c-0.3,0.1-0.7,0.1-1.1,0.2
		c0.1-0.6,0.2-1.1,0.3-1.7c-0.8,0.4-1.5,1.9-1.4,2.5c0,0.1,0.3,0.3,0.5,0.3c0.3,0,0.5-0.2,0.7-0.2c0.8-0.2,1-0.1,0.9,0.7
		c-0.1,0.3-0.1,0.7-0.2,1c0,0.6,0.2,0.8,0.8,0.7c0.4-0.1,0.8-0.2,1.2-0.2c0.8-0.1,1,0.2,0.8,0.9c-0.1,0.4-0.3,0.9-0.4,1.3
		c-0.1,0.7,0.2,1,0.8,1.1c0.4,0,0.9,0,1.3-0.1c0.8-0.1,1.6-0.3,2.3-0.4c1-0.1,1.8,0.3,2.1,1.2c0.3,0.9,0,2.4-0.8,2.8
		c-0.3,0.2-0.8,0.1-1.1,0c-0.4-0.1-0.3-0.6-0.2-0.9c0.1-0.4,0.3-0.9,0.3-1.3c0-0.6-0.3-0.9-0.9-0.8c-0.4,0.1-0.8,0.3-1.1,0.6
		c-8.5,8.3-18.5,12.3-30.5,10c-6.3-1.2-11.8-4-16.6-8.3c-0.7-0.6-1.3-1.3-1.9-1.9c-0.4-0.4-1-0.6-1.5-0.3c-0.5,0.3-0.4,0.9-0.3,1.4
		c0.1,0.3,0.2,0.5,0.2,0.8c0,0.3,0,0.7-0.2,0.8c-0.3,0.2-0.7,0.1-1,0.1c-0.2,0-0.3-0.2-0.4-0.4c-0.6-0.7-0.7-2-0.3-2.8
		c0.4-0.7,1.2-1,2.3-0.8c1,0.2,2.1,0.4,3.1,0.5c0.9,0.1,1.1-0.4,1-1.2c-0.1-0.5-0.3-0.9-0.4-1.4c-0.1-0.6,0.1-0.8,0.7-0.7
		c0.4,0,0.9,0.2,1.3,0.2c0.7,0.1,1-0.2,0.9-0.9c0-0.3-0.1-0.6-0.2-0.9c-0.1-0.7,0.1-0.9,0.8-0.7c0.4,0.1,0.8,0.1,1.2,0.2
		c0-0.4-0.1-0.9-0.2-1.3c-0.1-0.3-0.3-0.6-0.5-0.9c-0.1-0.2-0.3-0.3-0.5-0.5c-0.1,0-0.1,0.1-0.2,0.1c0.1,0.5,0.2,1,0.3,1.4
		c-0.1,0-0.2,0.1-0.2,0.1c-0.3-0.1-0.6-0.1-0.9-0.2c-0.6-0.1-0.8,0-0.8,0.6c0,0.4,0.1,0.7,0.1,1.1c0,0.6-0.1,0.8-0.7,0.6
		c-0.4-0.1-0.9-0.2-1.3-0.3c-0.9-0.2-1.2,0.2-1.1,1.1c0.1,0.5,0.2,0.9,0.3,1.4c0.1,0.7,0,0.9-0.8,0.8c-0.2,0-0.4-0.1-0.7-0.1
		c-0.8,0-1.6-0.2-2.4-0.1c-1.8,0.3-2.8,1.6-3.6,3.1c-0.1,0.2-0.2,0.4-0.4,0.7C113.5,101.7,113.3,101.4,113.2,101.3z M165.9,109.3
		c-0.3,0.2-0.5,0.3-0.7,0.4c-5.3,3.2-10.8,5.7-17.1,6c-3.9,0.2-7.9,0.1-11.7-0.8c-3.7-0.9-7.1-2.7-10.5-4.5
		c-0.7-0.4-1.4-0.7-2.1-1.1c-2.9,3.8-5.8,7.5-8.6,11.3c21.5,14,42.9,11,59,0C171.5,116.8,168.7,113.1,165.9,109.3z M201.3,112.6
		c-4.3-3.3-8.7-6.6-13.1-9.9c-1.2,1.4-2.4,2.7-3.7,4.1c0.8,0.8,1.5,1.5,2.3,2.3c0.2,0.2,0.3,0.5,0.3,0.7c-0.6,2.7-2,4.8-4.6,5.8
		c-0.7,0.2-1.3,0.3-2-0.1c-0.6-0.3-1.2-0.7-1.8-1c-0.1-0.1-0.4-0.2-0.5-0.2c-0.5,0.4-1,0.8-1.3,1.3c-0.1,0.2,0.1,0.8,0.3,1
		c1.1,1.3,2.3,2.3,4,2.5c1.1,0.2,2.2,0.3,3.3,0.3c1.1,0,2.2-0.4,3-1.2c1.4-1.2,2.8-2.4,3.8-4c0,0,0.1-0.1,0.2-0.1
		c0.3,0.2,0.7,0.5,1,0.7c1.5,1.1,3.1,1.4,4.8,1.2C199.4,115.6,200.7,114.5,201.3,112.6z M101.3,102.6c-0.8,0.6-1.6,1.2-2.4,1.8
		c-3.4,2.6-6.9,5.2-10.3,7.8c-0.2,0.1-0.3,0.4-0.3,0.6c0.4,1.2,1.1,2.1,2.2,2.6c2,0.8,3.9,0.7,5.8-0.4c0.5-0.3,1.1-0.7,1.6-1.1
		c1.1,1.8,2.6,3.1,4.2,4.4c0.5,0.4,1.1,0.7,1.7,0.8c0.7,0.2,1.5,0.2,2.3,0.1c2.4-0.1,4.6-0.8,6.2-2.9c0.4-0.6,0.4-0.9-0.2-1.5
		c-0.7-0.8-0.9-0.8-1.6-0.4c-0.3,0.2-0.6,0.3-0.8,0.5c-1.4,1-2.8,0.8-4.2-0.1c-1.6-1.1-2.5-2.6-3.1-4.5c-0.2-0.7-0.1-1.1,0.4-1.6
		c0.7-0.6,1.3-1.3,2-2C103.7,105.3,102.5,104,101.3,102.6z M161.6,77.2c0-9.2-7.5-16.8-16.7-16.8c-9.4,0-16.9,7.5-17,16.7
		c0,9.3,7.5,16.8,16.7,16.9C154,93.9,161.6,86.5,161.6,77.2z M105.3,54.2c-0.3-2.7-0.4-5.3-0.3-8c0.1-1.9,0.5-3.7,1.2-5.5
		c1.7-4.1,4.9-6.9,8.7-9c0.6-0.3,1.3-0.6,1.9-0.8c2.4-0.6,4.8-0.7,7.2-0.5c3.6,0.3,7,1.4,9.9,3.7c0.5,0.4,1,0.9,1.5,1.3
		c0.1-0.1,0.1-0.2,0.2-0.2c1.3-2.3,1.9-4.7,1.5-7.3c-0.3-2.2-1.1-4.1-3-5.4c-3.7-2.6-7.7-3.4-12.1-2.1c-0.9,0.3-1.8,0.7-2.8,1
		c0.2,0.1,0.2,0.1,0.3,0.1c0.3,0,0.6,0,0.9,0c2.7-0.1,5.4,0,8,0.9c2.4,0.8,4.3,2.3,5.1,4.9c0.3,1.1,0.5,2.3,0,3.5
		c-0.3-0.1-0.5-0.2-0.7-0.3c-6.3-2.8-12.6-2.9-18.8,0c-5.4,2.5-8.7,6.6-9.7,12.5c-0.6,3.5-0.3,7,0.6,10.4
		C104.9,53.7,105.2,54,105.3,54.2z M184.3,54.2c0.2-0.3,0.4-0.6,0.5-1c0.8-3.2,1.1-6.4,0.6-9.7c-0.6-4-2.1-7.6-5.3-10.2
		c-6-4.9-12.8-6.3-20.2-4.2c-1.3,0.4-2.6,1-4.1,1.5c0-0.9-0.1-1.8,0-2.6c0.5-3,2.5-4.7,5.2-5.7c2.6-0.9,5.4-1,8.1-0.9
		c0.3,0,0.6,0,0.9,0.1c0-0.2-0.1-0.2-0.1-0.2c-4.3-2.1-8.5-2.2-12.8,0c-1.8,0.9-3.3,2.1-4.1,4c-0.8,2.2-1,4.4-0.5,6.7
		c0.3,1.2,0.7,2.4,1.4,3.4c0.9-0.7,1.8-1.5,2.8-2.1c4.9-3.1,10.3-3.6,15.8-2.4c2,0.4,3.6,1.7,5.2,2.9c4.1,3.1,6.5,7.2,6.7,12.4
		C184.6,48.9,184.6,51.5,184.3,54.2z M113.5,67.3c-0.6,2-1.3,3.9-1.9,5.9c0,0.1,0,0.3,0,0.4c0.2,2.6-0.5,5-1.7,7.4
		c-1.8,3.7-4.4,6.9-7.1,9.9c-1.2,1.4-2.6,2.6-3.9,4c1.4,2.5,3.3,4.4,5.8,6.1c0.2-1,0.5-1.9,0.5-2.8c0.1-1.7,0.2-3.3,0.3-5
		c0-0.9,0.3-1.6,1-2.1c0.9-0.8,1.9-1.6,2.7-2.4c4.2-3.9,6.6-8.7,6-14.6C115.1,71.8,114.5,69.5,113.5,67.3z M175.9,67.3
		c-0.1,0-0.1,0-0.2,0c-0.3,1.1-0.7,2.3-1,3.4c-1.5,6.1-0.4,11.7,3.9,16.4c1.2,1.3,2.6,2.5,4,3.7c0.9,0.8,1.4,1.7,1.4,2.8
		c0,0.9,0,1.8,0,2.7c0.1,1.6,0.3,3.1,0.8,4.6c1.9-1.1,4.5-3.8,5.6-5.7c0.2-0.3,0.1-0.5-0.1-0.7c-1.2-1.2-2.3-2.3-3.5-3.5
		c-2.7-2.9-5.2-6-7-9.5c-1.3-2.5-2.1-5.1-1.9-7.9c0-0.1,0-0.3-0.1-0.5C177.1,71.2,176.5,69.2,175.9,67.3z M171.9,49.3
		c-0.5-0.1-0.9-0.1-1.3-0.2c-1.1,0-1.7,0.5-1.9,1.6c-0.1,0.9,0.2,1.6,0.8,2.2c0.9,1.1,1.7,2.1,2.5,3.2c0.8,1.1,1.1,2.3,1.3,3.6
		c0.3,2.6,0,5.3-0.5,7.9c-0.7,3.4-1.4,6.9-2,10.3c-0.5,2.9,0.2,5.5,2.2,7.7c0.6,0.7,1.3,1.4,2,2c1.6,1.6,3.3,3.3,4.5,5.3
		c0.6,1,1.1,1.9,1.2,3c0.3,1.7,0.6,3.4,0.9,5.1c0.3,1.8,1.6,3.1,3.3,3.2c-1.7-1.9-2-4.2-2.2-6.5c-0.2-2.7-1-5.3-3-7.3
		c-1-1-1.9-1.9-3-2.8c-2.4-2.1-4.1-4.6-4.6-7.8c-0.4-2.5-0.2-4.9,0.3-7.3c0.8-3.4,1.7-6.9,2.5-10.3c0.6-2.6,0.4-5-1.3-7.1
		c-0.6-0.7-1-1.5-1.5-2.2C171.5,51.9,171,50.7,171.9,49.3z M117.6,49.3c1,1.6,0.2,2.8-0.6,4.1c-0.5,0.8-1.1,1.6-1.6,2.4
		c-1.3,1.7-1.6,3.6-1.2,5.6c0.5,2.4,1,4.7,1.6,7c0.8,2.8,1.5,5.5,1.6,8.4c0.1,2.9-0.4,5.5-2.1,8c-1,1.5-2.4,2.7-3.8,3.9
		c-1.7,1.5-3.3,3.1-4,5.4c-0.4,1.4-0.7,2.8-0.8,4.2c-0.2,1.8-0.5,3.6-1.5,5.2c-0.2,0.3-0.4,0.6-0.6,0.9c1.5-0.2,2.8-1.4,3.1-3.1
		c0.3-1.4,0.5-2.9,0.8-4.3c0.2-1.1,0.5-2.2,0.9-3.1c0.6-1.1,1.3-2.2,2.1-3.2c1.4-1.6,2.9-3,4.3-4.5c1.8-1.9,3.1-4.1,2.8-6.8
		c-0.1-1.4-0.3-2.8-0.5-4.2c-0.7-3.8-1.5-7.6-2.1-11.4c-0.5-3.5,0.1-6.7,2.6-9.4c0.6-0.6,1.1-1.3,1.6-1.9c0.5-0.7,0.6-1.9,0.2-2.6
		c-0.5-0.7-1.3-0.9-2.1-0.7C118.1,49.2,117.9,49.2,117.6,49.3z M167.6,22.8c-3.7,0-6.7,1.2-9.2,3.7c-0.2,0.2-0.4,0.6-0.4,1
		c-0.1,0.5,0.4,0.7,0.8,0.5c0.2-0.1,0.3-0.2,0.4-0.3c3.3-2.2,6.9-3.1,10.8-2.5c3.2,0.5,6,2,8.5,3.9c4.1,3.1,7.4,6.9,10.1,11.3
		c0.1,0.2,0.3,0.4,0.4,0.4c0.4,0,0.9,0.2,1.3-0.2c0.4-0.5,0.5-0.9,0.2-1.4c-3.2-6-7.8-10.6-13.8-13.8
		C173.8,23.8,170.7,22.9,167.6,22.8z M131.7,27.6c-0.2-0.4-0.2-0.7-0.5-1c-1.4-1.4-3-2.5-5-3.1c-3.4-1.1-6.8-0.8-10.1,0.5
		c-7.6,2.9-13.2,8.1-17,15.2c-0.3,0.6-0.3,1,0.1,1.4c0.4,0.5,1.3,0.4,1.6-0.1c0.8-1.3,1.6-2.6,2.6-3.8c3-3.9,6.4-7.3,10.7-9.6
		c3.7-2,7.7-2.7,11.8-1.5c1.7,0.5,3.2,1.3,4.7,2.3c0.2,0.1,0.4,0.1,0.6,0.1C131.4,28,131.5,27.7,131.7,27.6z M191.6,38.2
		c0.1,0.2,0.1,0.3,0.1,0.3c2.9,5.5,5.2,11.2,6.8,17.1c0.7,2.5,1.3,4.9,1,7.5c0,0.2,0.1,0.4,0.3,0.6c0.9,0.7,1.9,1.2,2.4,2.3
		c0,0.1,0.2,0.1,0.3,0.2c0.9,0.6,1.9,0.8,3,0.8c0.3,0,0.6-0.1,0.8-0.3c0.1-0.2,0.2-0.5,0.2-0.7c-0.1-0.2-0.4-0.5-0.5-0.5
		c-0.7,0.3-0.8-0.3-1-0.7c-0.3-0.6-0.6-1.2-0.9-1.8c-1.4-3.8-2.8-7.7-4.2-11.5c-1.2-3.3-2.6-6.6-4.6-9.5
		C194.3,40.4,193.2,39.1,191.6,38.2z M97.8,38.1c-0.7,0.6-1.3,1-1.8,1.5c-1.4,1.4-2.4,3.1-3.3,4.9c-2.3,4.4-3.8,9.1-5.5,13.7
		c-0.8,2.2-1.7,4.4-2.6,6.5c-0.1,0.3-0.3,0.9-0.9,0.6c-0.1,0-0.3,0.1-0.3,0.2c-0.1,0.3-0.3,0.7-0.2,0.8c0.3,0.3,0.7,0.6,1,0.6
		c1,0,2-0.2,2.9-0.8c0.1-0.1,0.2-0.1,0.3-0.2c0.5-1.1,1.5-1.6,2.4-2.3c0.2-0.1,0.3-0.4,0.3-0.6c0.1-1.4,0-2.8,0.2-4.2
		c0.8-4.5,2.3-8.7,4-12.8C95.3,43.4,96.5,40.9,97.8,38.1z M136.8,16.8c1.7,13.4,3.4,26.8,5,40.2c0.4-0.1,0.7-0.1,1-0.1
		c-1.2-13.5-2.3-26.9-3.5-40.4C138.5,16.6,137.7,16.7,136.8,16.8z M150.1,16.4c-1.2,13.5-2.4,26.9-3.5,40.4c0.4,0,0.7,0.1,1,0.1
		c1.7-13.4,3.4-26.7,5.1-40.2C151.8,16.7,151,16.6,150.1,16.4z M163.4,89.3c1.3,1.8,2.9,2.9,4.7,3.7c3.2,1.3,6.6,1.2,9.9,1.8
		c-0.4-1.9-3.1-6.3-4.5-7.3c-0.1-0.1-0.3-0.1-0.4-0.1c-1.7,0.8-3.5,0.8-5.2,1.1C166.4,88.7,165,89,163.4,89.3z M126,89.5
		c-0.2-0.1-0.3-0.2-0.4-0.2c-1.3-0.3-2.6-0.5-3.9-0.8c-1.8-0.3-3.6-0.3-5.3-1.1c-0.1-0.1-0.4,0.1-0.5,0.2c-1.1,1.5-2.3,3.1-3.3,4.7
		c-0.5,0.7-0.7,1.6-1.1,2.5c1-0.1,1.8-0.2,2.6-0.3c2.3-0.3,4.7-0.5,6.9-1.3C123,92.4,124.7,91.2,126,89.5z M162.4,49.6
		c3.8-1.6,3.2-1.7,7.8-1.3c-1.5-1.4-3.2-1.7-5.1-1.1c0.1-0.3,0.1-0.6,0.1-0.8c0.7-2.2,3.9-4,6.1-3.3c2.6,0.8,4.6,2.5,5.5,5.2
		c0.7,2.2,0.8,4.4,0.7,6.7c0,0.7,0,1.5,0,2.2c0.3-1.2,0.5-2.4,0.7-3.6c0.3-2.4,0.5-4.9-0.2-7.3c-1.5-5.1-7.4-7.7-12.2-4.2
		C163.2,44,162.4,46.6,162.4,49.6z M127.1,49.7c-0.1-0.9-0.1-1.7-0.2-2.4c-0.6-3.9-3.8-6.7-7.7-6.7c-3.7-0.1-7,2.7-7.7,6.5
		c-0.7,3.4-0.1,6.8,0.6,10.2c0-0.2,0-0.4,0-0.6c0-1.8-0.1-3.6,0-5.5c0.1-2.4,0.9-4.6,2.7-6.2c2.5-2.1,4.4-2.5,6.7-1.4
		c1.5,0.7,2.6,1.8,2.8,3.6c-1.9-0.6-3.6-0.4-5.1,1.1C122.1,47.6,124.6,48.2,127.1,49.7z M108.2,51.4c0-3.3,0.3-5.4,1.1-7.6
		c1.9-5.3,6.1-7.9,11.6-7.3c1.2,0.1,2.4,0.4,3.6,0.6c0.2,0,0.4,0,0.5-0.1c0.1-0.1,0.1-0.4,0-0.5c-0.1-0.2-0.3-0.3-0.5-0.4
		c-4.5-1.9-8.7-1.7-12.6,1.4c-3.8,3.1-5.4,7.3-5.5,12.1c-0.1,4.1,1.1,7.8,3.1,11.3c0.2,0.3,0.6,0.6,0.9,0.8c0.2,0.1,0.4,0,0.6,0
		c0-0.2,0-0.5-0.1-0.7c-0.4-0.7-0.9-1.3-1.2-2C108.6,56.4,108.2,53.6,108.2,51.4z M182.5,50.2c0-2.7-0.5-5.2-1.6-7.5
		c-2.2-4.7-6.7-8.3-12.3-7.7c-1.4,0.1-2.8,0.7-4.2,1.1c-0.2,0.1-0.4,0.5-0.5,0.8c0.3,0.1,0.5,0.2,0.8,0.2c1.2-0.2,2.5-0.5,3.7-0.6
		c4-0.3,7.4,0.8,9.8,4.2c1.6,2.3,2.3,4.9,2.6,7.6c0.3,3.6,0,7.2-1.4,10.5c-0.3,0.8-0.9,1.5-1.3,2.2c-0.1,0.2-0.1,0.4-0.1,0.7
		c0,0.1,0.3,0.2,0.4,0.1c0.4-0.2,0.9-0.4,1-0.7C181.3,57.7,182.4,54,182.5,50.2z M145.3,56.8c0.2-9.7,0.4-19.3,0.6-28.9
		c-0.8,0-1.6,0-2.3,0c0.2,9.7,0.4,19.3,0.7,28.9C144.6,56.8,144.9,56.8,145.3,56.8z M171.1,71.1c0.1-0.2,0.1-0.2,0.2-0.3
		c1.2-3.6,1.9-7.4,1.4-11.2c-0.4-3.3-2.8-5.8-5.9-6.4c-1-0.2-2-0.1-2.7,0.7c-0.6,0.7-0.8,1.5-0.3,2.1c0.5,0.7,1.3,1.1,2.2,1.4
		c0-0.2,0-0.3,0-0.4c0-1.4,0.7-2,2-1.7c0.7,0.2,1.4,0.5,2.1,1c0.8,0.5,1.3,1.4,1.5,2.4c-1.6-0.4-2.6-0.2-3,0.7
		c-0.4,0.8-0.1,2,0.5,2.4c0.8-1.5,1.2-1.7,2.4-1.2c0.5,0.2,0.7,1.2,0.5,2.1c-1.6,0.2-1.9,0.3-1.9,1.3c0.6-0.2,1.1-0.1,1.4,0.4
		c0.2,0.3,0.3,0.7,0.3,1c-0.1,0.8-0.2,1.6-0.3,2.5C171.2,68.9,170.8,69.9,171.1,71.1z M116.8,33c1.8-0.2,3.5-0.3,5.2,0.1
		c2.1,0.4,4,1.1,5.5,2.8c1.1,1.2,1.6,2.7,1.6,4.3c-1.1-0.3-2.2-0.7-3.4-1c-1.1-0.2-2.3-0.2-3.4,0.3c3.1,0.1,5.8,1.1,7.8,3.7
		c0.2-0.6,0.4-1.2,0.6-1.7c1.4-3.7-0.9-7-3.3-8.2c-2.1-1-4.3-1.4-6.6-1.3C119.5,32,118.1,32.3,116.8,33z M160.3,40.4
		c0.1-2.4,0.9-4.3,2.9-5.6c1.3-0.8,2.7-1.4,4.3-1.7c1.7-0.3,3.5-0.3,5.3,0c-0.1-0.1-0.1-0.1-0.1-0.2c-0.1,0-0.2-0.1-0.2-0.1
		c-3.8-1.4-7.6-1.3-11,0.9c-3.7,2.3-4,5.9-2.1,9.4c1-1.2,2.1-2.2,3.5-2.7c1.4-0.5,2.8-0.7,4.2-1.1C164.7,38.8,162.5,39.2,160.3,40.4
		z M118.2,71c0.1,0,0.1,0,0.2,0c0-0.2,0.1-0.4,0.1-0.6c0-1.4,0-2.8-0.2-4.1c-0.3-1.7-0.2-3.4,0.1-5.2c0.1-0.6,0.6-0.7,1.1-0.7
		c0.2,0,0.5,0.4,0.7,0.6c0.1,0.2,0.2,0.5,0.3,0.8c0.6-0.6,0.9-1.8,0.5-2.5c-0.2-0.3-0.4-0.6-0.7-0.8c-0.3-0.2-0.8-0.1-1.2-0.1
		c0.2-1.8,1.4-2.9,3.2-2.9c0.7,0,1.3,0.6,1.3,1.3c0,0.2,0,0.4,0,0.7c0.5-0.4,1-0.6,1.4-1c0.5-0.5,0.7-1.1,0.4-1.7
		c-0.3-0.7-0.8-1.4-1.7-1.4c-1.4-0.1-2.6,0.3-3.6,1.2c-1.6,1.6-2.4,3.6-2.7,5.7c-0.3,2.6-0.2,5.1,0.2,7.7C117.8,69,118,70,118.2,71z
		 M140.8,57.1c-1.2-6.6-2.4-13.2-3.6-19.8c-0.1,0-0.1-0.1-0.2-0.1c-0.4,0.4-0.8,0.9-1.2,1.4c-0.4,0.5-0.5,1.1-0.3,1.8
		c1.2,4.7,2.4,9.4,3.6,14.1c0.2,0.9,0.5,1.9,0.7,2.9C140.2,57.3,140.4,57.2,140.8,57.1z M152.1,58.1c0.1-0.1,0.1-0.2,0.2-0.3
		c1.8-4.4,3.6-8.8,5.5-13.3c0.1-0.1,0.1-0.3,0-0.4c-0.5-1-1.1-2-1.6-3c-1.7,5.5-3.5,11-5.2,16.6C151.4,57.8,151.7,58,152.1,58.1z
		 M152.3,37.3c-1.2,6.6-2.4,13.2-3.6,19.8c0.4,0.1,0.6,0.1,0.9,0.2c0.1-0.2,0.1-0.4,0.2-0.6c1.4-5.5,2.8-10.9,4.2-16.4
		C154.2,39.3,153.5,37.8,152.3,37.3z M138.5,57.7c-1.8-5.6-3.5-11.1-5.3-16.6c-0.5,0.9-0.9,1.8-1.4,2.7c-0.2,0.4-0.3,0.6-0.1,1
		c1.3,3,2.5,5.9,3.7,8.9c0.6,1.5,1.2,2.9,1.8,4.4C137.7,58,138.1,57.9,138.5,57.7z M121.5,106.8c-3.6,4.3-7.3,8.6-10.9,12.9
		c0.6,0.5,1.2,0.9,1.7,1.4c3.4-4.5,6.8-8.9,10.2-13.4C122.1,107.4,121.8,107.1,121.5,106.8z M178.9,119.7
		c-3.7-4.4-7.3-8.6-10.9-12.9c-0.4,0.3-0.7,0.6-1,0.9c3.4,4.5,6.8,8.9,10.2,13.4C177.8,120.6,178.3,120.2,178.9,119.7z M109.5,102.8
		c0.2-0.1,0.5-0.2,0.7-0.4c1.5-1.3,3.1-2.5,4.6-3.8c0.6-0.5,1.1-0.9,1.8-1c0.6-0.1,1.2-0.4,1.7-0.7c0.7-0.4,1-1.1,1-2
		c-0.3,0.1-0.4,0.2-0.6,0.4c-1.2,0.9-2.6,1.1-4,0.9c-0.2,0-0.3,0-0.5,0c-1.3,0.1-2.6,0.2-3.8,0.3C110,98.4,109.8,100.6,109.5,102.8z
		 M147.2,27.5c-0.2-1-0.4-1.7-0.5-2.5c0-0.2,0.1-0.6,0.2-0.8c0.6-0.6,1.2-1.1,1.8-1.7c-0.9-0.1-1.7-0.2-2.5-0.3
		c-0.4,0-0.6-0.2-0.7-0.6c-0.3-0.7-0.6-1.4-1-2.2c-0.4,0.8-0.7,1.5-1,2.2c-0.2,0.4-0.4,0.6-0.9,0.6c-0.8,0-1.5,0.2-2.4,0.3
		c0.7,0.6,1.2,1.1,1.8,1.6c0.3,0.2,0.4,0.5,0.3,0.9c-0.2,0.8-0.4,1.5-0.6,2.4c0.8-0.4,1.5-0.8,2.2-1.2c0.3-0.2,0.6-0.2,0.9,0
		C145.8,26.6,146.4,27,147.2,27.5z M179.2,96.3c-0.9,0-1.7,0-2.6,0c-0.9,0-1.7-0.1-2.6-0.1c-1.1,0-2.1-0.3-3-0.9
		c-0.2-0.1-0.4-0.3-0.7-0.4c0.1,1,0.5,1.7,1.3,2c0.6,0.3,1.2,0.4,1.8,0.6c0.3,0.1,0.7,0.2,0.9,0.5c1.6,1.4,3.2,2.8,4.9,4.2
		c0.3,0.3,0.7,0.5,1,0.7C179.7,100.6,179.5,98.5,179.2,96.3z M136.2,58.6c-2.3-4.9-4.6-9.7-6.9-14.5c-0.1,0-0.2,0.1-0.3,0.1
		c0.2,1.1,0.3,2.3,0.6,3.4c0.2,0.9,0.1,1.8,0.6,2.7c1.4,2.5,2.7,5.1,4.1,7.7c0.2,0.4,0.5,0.9,0.7,1.3
		C135.4,59,135.8,58.8,136.2,58.6z M160.5,44.2c-0.1,0-0.2,0-0.3-0.1c-2.3,4.8-4.6,9.6-6.9,14.4c0.4,0.2,0.8,0.4,1.2,0.6
		c1.1-2.1,2.3-4.2,3.3-6.3c0.9-1.7,2-3.3,2.1-5.3C160,46.5,160.3,45.4,160.5,44.2z M178.5,125.9c-0.6,0.3-1,0.6-0.6,1.3
		c0.1,0.1,0,0.5-0.2,0.6c-0.1,0.1-0.4,0.1-0.6,0c-0.6-0.4-1-1-0.9-1.7c0-0.7,0.3-1.2,0.9-1.5c0.9-0.5,1.8-0.7,2.9-0.5
		c0-0.2,0-0.3,0-0.5c0.1-1,0.9-2,1.8-2.1c0.9-0.1,2.1,0.6,2.5,1.5c0.1,0.2,0,0.6-0.2,0.7c-0.1,0.1-0.5,0-0.7-0.1
		c-0.2-0.1-0.3-0.4-0.5-0.6c-0.3,0.2-0.5,0.3-0.9,0.6c0.4,0.4,0.8,0.7,1.2,1c0.4,0.3,0.9,0.4,1.4,0.1c0.5-0.3,0.7-0.8,0.7-1.4
		c-0.1-1.4-1.1-2.4-2.8-2.8c-1.2-0.2-2.3,0.4-2.9,1.7c-0.3,0.7-0.6,0.9-1.3,0.9c-2.6,0.1-3.8,2.3-2.6,4.5c0.5,1,1.6,1.5,2.4,1.2
		c0.8-0.4,1.1-1.5,0.6-2.6C178.7,126.1,178.6,126,178.5,125.9z M111,125.9c-0.5,0.7-0.6,1.3-0.4,1.9c0.3,0.9,1.1,1.4,2,1
		c0.3-0.2,0.7-0.4,0.9-0.7c0.7-1,1-2.1,0.5-3.3c-0.5-1.2-1.5-1.6-2.7-1.6c-0.7,0-1.1-0.2-1.3-0.9c-0.4-1.2-1.7-1.9-2.7-1.8
		c-1.7,0.3-2.8,1.2-2.9,2.7c-0.1,0.6,0.1,1.2,0.7,1.5c0.6,0.4,1.1,0.2,1.6-0.2c0.3-0.3,0.6-0.6,0.9-1c-0.3-0.2-0.6-0.3-0.8-0.5
		c-0.2,0.2-0.3,0.5-0.5,0.6c-0.2,0.1-0.5,0.1-0.7,0.2c-0.1-0.3-0.2-0.7-0.1-0.9c0.3-0.4,0.7-0.9,1.1-1.2c0.7-0.5,1.4-0.4,2.1,0.1
		c0.7,0.5,1,1.2,1,2.2c1.1-0.2,2,0,2.9,0.5c0.6,0.4,0.9,0.9,0.9,1.5c0,0.7-0.3,1.3-0.9,1.6c-0.2,0.1-0.5,0.1-0.7,0
		c-0.1-0.1-0.2-0.4-0.1-0.6C111.9,126.6,111.6,126.2,111,125.9z M156.6,60.6c2.2-3.2,4.5-6.3,6.8-9.5c-0.9,0-1.7,0-2.4,0
		c-0.3,0-0.6,0.2-0.8,0.4c-0.7,1.1-1.3,2.3-2,3.4c-0.9,1.6-1.8,3.2-2.8,4.9C155.9,60.1,156.2,60.3,156.6,60.6z M133.9,59.8
		c0-0.1,0-0.1,0-0.2c-1.6-2.8-3.2-5.5-4.7-8.3c-0.1-0.1-0.2-0.3-0.3-0.3c-0.9,0-1.8,0-2.8,0c2.3,3.2,4.6,6.4,6.8,9.5
		C133.3,60.3,133.6,60.1,133.9,59.8z M84.1,68.1c0.4,0.1,0.8,0.2,1.3,0.2c1.2,0.1,2.4-0.3,3.4-0.9c2.7-1.8,5.3-3.7,8.1-5.5
		c-0.7,0.1-1.3,0.1-2,0.3c-2.1,0.4-3.8,1.6-5.3,3C88,66.4,86.3,67.7,84.1,68.1z M192.5,61.9c0.7,0.4,1.4,0.8,1.9,1.2
		c1.4,1,2.7,2.1,4.1,3c1.4,1,2.8,1.9,4.5,2.1c0.8,0.1,1.6,0.1,2.4-0.3c-2.1-0.3-3.7-1.3-5.2-2.5c-0.8-0.7-1.6-1.3-2.4-1.9
		C196.3,62.4,194.6,61.9,192.5,61.9z M175.9,55.7c0.1-0.5,0.4-1.1,0.4-1.6c0-1-0.1-2.1-0.3-3.1c-0.4-2.1-1.1-4.1-2.7-5.7
		c-1.6-1.6-4.1-1.5-6,0.5c0.2,0,0.5,0,0.7,0c0.5-0.1,1-0.4,1.5-0.5c2-0.3,3.2,0.8,4.1,2.4c1.4,2.2,2,4.6,1.6,7.2
		C175.2,55.4,175.4,55.6,175.9,55.7z M122.2,45.9c0-0.1,0.1-0.2,0.1-0.3c-0.7-0.4-1.4-0.8-2.1-1.1c-1.4-0.6-2.6-0.3-3.7,0.6
		c-0.4,0.3-0.8,0.7-1,1.2c-1.6,2.4-2.2,5-2.2,7.9c0,0.5,0.3,1,0.4,1.5c0.6-0.3,0.6-0.3,0.6-0.8c-0.3-2.7,0.3-5.1,1.7-7.3
		c1.5-2.3,3.1-2.7,5.6-1.7C121.7,46,122,45.9,122.2,45.9z M134.1,107.8c1-3.2,2.1-6.4,3.1-9.6c-0.3-0.1-0.6-0.3-0.9-0.4
		c-1.4,3.1-2.7,6.1-4.1,9.1C132.9,107.2,133.4,107.5,134.1,107.8z M138.9,98.7c-1,3.2-2,6.3-3,9.5c0.7,0.2,1.3,0.4,2,0.6
		c0.6-3.3,1.3-6.6,1.9-9.9C139.5,98.9,139.2,98.8,138.9,98.7z M157.1,95.8c1.8,2.9,3.5,5.7,5.2,8.6c0.6-0.5,1.1-0.9,1.6-1.3
		c-2.1-2.7-4.1-5.3-6.1-7.9C157.5,95.4,157.3,95.6,157.1,95.8z M160.8,105.1c-1.7-2.9-3.4-5.7-5.2-8.6c-0.3,0.2-0.5,0.4-0.8,0.6
		c1.4,3,2.8,6,4.2,9.1C159.6,105.8,160.2,105.5,160.8,105.1z M159.2,94.3c2.1,2.6,4.1,5.2,6.1,7.7c0.5-0.5,1-0.9,1.6-1.4
		c-2.4-2.3-4.8-4.6-7.1-6.9C159.6,93.8,159.4,94,159.2,94.3z M130.5,106.2c1.4-3.1,2.8-6.1,4.2-9.1c-0.3-0.2-0.5-0.4-0.8-0.6
		c-1.7,2.9-3.5,5.7-5.2,8.6C129.3,105.5,129.8,105.9,130.5,106.2z M149.7,109c-0.6-3.3-1.2-6.5-1.8-9.8c-0.3,0.1-0.6,0.1-0.9,0.2
		c0.2,3.4,0.5,6.7,0.7,10C148.4,109.3,149,109.2,149.7,109z M152.3,98.2c1,3.2,2,6.4,3,9.6c0.6-0.3,1.2-0.6,1.9-0.9
		c-1.4-3-2.7-6.1-4.1-9.1C152.9,97.9,152.6,98.1,152.3,98.2z M131.6,95.1c-2.1,2.6-4.1,5.2-6.2,7.9c0.6,0.5,1.1,0.9,1.6,1.3
		c1.8-2.9,3.5-5.7,5.3-8.5C132,95.5,131.8,95.3,131.6,95.1z M141.7,109.5c0-0.3,0.1-0.4,0.1-0.6c0.2-2.9,0.4-5.8,0.6-8.7
		c0.1-0.8,0-0.8-0.9-0.9c-0.6,3.2-1.2,6.5-1.7,9.8C140.4,109.2,141.1,109.3,141.7,109.5z M149.7,99c0.6,3.3,1.3,6.6,1.9,9.9
		c0.7-0.2,1.3-0.4,2-0.6c-1-3.2-2-6.3-2.9-9.5C150.3,98.8,150,98.9,149.7,99z M145.7,109.6c-0.2-3.4-0.4-6.7-0.5-10
		c-0.3,0-0.6-0.1-0.9-0.1c-0.2,3.4-0.4,6.6-0.6,9.9C144.4,109.5,145,109.5,145.7,109.6z M123.9,101.9c2.1-2.7,4.2-5.2,6.3-7.8
		c-0.2-0.2-0.4-0.5-0.6-0.7c-2.3,2.4-4.7,4.7-7,7.1C122.9,100.9,123.4,101.4,123.9,101.9z M108,124.6c-1.2,2-2.4,3.9-3.6,5.9
		c0.4,0.3,0.7,0.5,1.1,0.8c1.4-1.8,2.8-3.6,4.3-5.4C109.2,125.4,108.6,125,108,124.6z M181.5,124.6c-0.6,0.4-1.1,0.8-1.7,1.3
		c1.4,1.8,2.8,3.6,4.3,5.4c0.4-0.3,0.7-0.5,1-0.8C183.9,128.5,182.7,126.6,181.5,124.6z M167.1,60.1c-2.1,1.6-4.1,3.1-6.2,4.7
		c0.2,0.3,0.4,0.6,0.6,0.8c2.2-1.2,4.3-2.4,6.4-3.6C167.7,61.4,167.4,60.8,167.1,60.1z M121.6,62.1c2.1,1.2,4.2,2.4,6.4,3.6
		c0.2-0.3,0.4-0.5,0.6-0.8c-2.1-1.6-4.1-3.1-6.2-4.7C122,60.8,121.8,61.4,121.6,62.1z M162.9,57.5c-0.3-0.5-0.7-1.1-1-1.7
		c-1.5,1.9-3,3.7-4.5,5.5c0.4,0.3,0.7,0.6,1,0.8C159.9,60.5,161.4,59,162.9,57.5z M127.6,55.7c-0.3,0.6-0.6,1.1-0.9,1.6
		c-0.1,0.1,0,0.4,0.1,0.5c1.4,1.4,2.8,2.9,4.3,4.3c0.4-0.3,0.7-0.6,1-0.9C130.5,59.4,129.1,57.6,127.6,55.7z M162.8,67.7
		c1.9-0.8,3.8-1.5,5.6-2.3c0.2-0.1,0.4-0.3,0.4-0.4c0-0.6-0.1-1.1-0.1-1.8c-2.2,1.2-4.3,2.3-6.4,3.5C162.4,67,162.6,67.3,162.8,67.7
		z M127.2,66.7c-2.2-1.2-4.3-2.3-6.4-3.5c0,0.3,0,0.4,0,0.6c-0.1,1.5-0.1,1.5,1.4,2.1c1.5,0.6,3,1.2,4.6,1.8
		C126.9,67.3,127.1,67,127.2,66.7z M146.3,18.9c0-1.1,0-2.1,0-3.1c-1.1,0-2.1,0-3.2,0c0,1.1,0,2.1,0,3.1
		C144.2,18.9,145.2,18.9,146.3,18.9z M124,59.2c1.8,1.6,3.6,3.1,5.4,4.6c0.3-0.3,0.5-0.5,0.7-0.8c-1.1-1.2-2.2-2.3-3.3-3.4
		C125.6,58.3,125.6,58.4,124,59.2z M165.5,59.1c-0.6-0.2-1-0.4-1.4-0.6c-0.1,0-0.4,0-0.4,0.1c-1.4,1.4-2.8,2.9-4.2,4.4
		c0.3,0.3,0.5,0.5,0.7,0.8C161.9,62.2,163.7,60.7,165.5,59.1z M163.9,70.3c1.8-0.5,3.5-0.9,5.2-1.4c0.1,0,0.3-0.2,0.3-0.3
		c0.1-0.6,0.1-1.2,0.1-1.8c-2.1,0.9-4,1.7-6,2.6C163.7,69.6,163.8,69.9,163.9,70.3z M126,69.3c-2-0.9-4-1.7-6-2.6
		c0,0.7,0,1.2,0.1,1.8c0,0.1,0.2,0.4,0.3,0.4c1.7,0.5,3.4,1,5.2,1.4C125.7,69.9,125.8,69.6,126,69.3z M124.6,81
		c-1.4,0.3-2.7,0.6-4.1,0.9c-0.1,0-0.4,0.1-0.4,0.3c-0.2,0.6-0.3,1.3-0.5,2c1.8-0.6,3.5-1.2,5.2-1.8C124.8,81.9,124.7,81.5,124.6,81
		z M169.8,84.1c-0.2-0.7-0.3-1.3-0.4-1.9c0-0.1-0.1-0.2-0.2-0.3c-1.4-0.3-2.8-0.6-4.2-0.9c-0.1,0.5-0.2,0.9-0.3,1.3
		C166.3,82.9,168,83.5,169.8,84.1z M120.2,86.1c1.3,0.9,2.5,1.6,3.9,0.4c0.2-0.2,0.5-0.3,0.8-0.4c1-0.5,1-0.5,0.6-1.6
		c0-0.1-0.1-0.1-0.2-0.2C123.7,84.8,122,85.4,120.2,86.1z M164.1,84.2c-0.1,0.3-0.1,0.4-0.2,0.6c-0.3,0.5-0.2,0.8,0.4,1.1
		c0.8,0.4,1.6,0.9,2.4,1.3c0.2,0.1,0.4,0.2,0.5,0.1c0.7-0.3,1.3-0.7,2.1-1.1C167.5,85.4,165.8,84.8,164.1,84.2z M164.4,71.8
		c0.1,0.4,0.2,0.7,0.2,1.1c1.5-0.2,2.9-0.3,4.2-0.5c0.1,0,0.4-0.3,0.4-0.4c0-0.5-0.1-0.9-0.1-1.4C167.6,71,166,71.4,164.4,71.8z
		 M125.1,71.8c-1.6-0.4-3.2-0.9-4.8-1.3c0,0.6-0.1,1.2-0.1,1.8c1.6,0.2,3.1,0.4,4.6,0.6C124.9,72.5,125,72.2,125.1,71.8z
		 M165.2,79.1c1.2,0.1,2.3,0.2,3.5,0.4c0-0.6,0.1-1.1,0.1-1.7c-1.2,0.1-2.4,0.1-3.6,0.2C165.2,78.3,165.2,78.7,165.2,79.1z
		 M124.5,79c-0.2-0.5-0.3-1.1-0.5-1.1c-1.1-0.1-2.2,0-3.3,0c0,0.5,0.1,1,0.1,1.6C122,79.3,123.2,79.2,124.5,79z M165.1,75.9
		c1.2,0,2.3,0,3.4,0c0.1,0,0.3-0.1,0.4-0.3c0.1-0.4,0.1-0.9,0.2-1.4c-1.4,0.2-2.7,0.4-4,0.7C165.1,75.3,165.1,75.7,165.1,75.9z
		 M124.5,75c-1.4-0.2-2.7-0.4-4.1-0.7c0.1,0.5,0.1,0.9,0.2,1.4c0,0.1,0.2,0.3,0.3,0.3c1.2,0,2.3,0,3.5,0
		C124.4,75.6,124.4,75.3,124.5,75z M160.9,92.1c0.6,0,1.1-0.5,1.2-1.1c0-0.6-0.5-1.2-1.2-1.2c-0.6,0-1.1,0.5-1.1,1.1
		C159.8,91.6,160.3,92.1,160.9,92.1z M128.5,89.9c-0.6,0-1.1,0.5-1.1,1.2c0,0.6,0.5,1.1,1.1,1.1c0.6,0,1.1-0.5,1.1-1.1
		C129.6,90.4,129.1,89.8,128.5,89.9z M164.9,88c0-0.1,0-0.1,0-0.2c-0.4-0.1-0.8-0.3-1.1-0.4c-1-0.4-1-0.4-1.4,0.6c0,0,0,0.1,0,0.2
		C163.2,88.9,164,87.9,164.9,88z M126.6,87c-0.7,0.3-1.4,0.5-2.1,0.8c0,0.1,0,0.1,0,0.2c0.9-0.1,1.7,0.9,2.7,0.1
		C127,87.7,126.9,87.4,126.6,87z"/>
	<path d="M87.1,73.9c-0.5-0.3-0.6-0.8-0.6-1.4c0-0.5,0.3-0.8,0.8-0.9C87.8,72.3,87.7,73.2,87.1,73.9z"/>
	<path d="M202.2,71.5c0.3,0.3,0.6,0.6,0.7,0.9c0.2,0.6,0,1.1-0.5,1.5C201.8,73.3,201.7,72.5,202.2,71.5z"/>
	<path d="M124.9,112.1c6.1,3.8,12.8,5.6,20,5.5c7.1,0,13.9-1.6,20.1-5.4c1.8,2.8,3.6,5.6,5.5,8.5c-6.4,4-13.3,6.4-20.8,7
		c-11,1-21.2-1.4-30.6-7.4C121.1,117.6,123,114.9,124.9,112.1z M125.2,118.7c0.6,0.9,0,2.3,1.2,2.9c-0.1,0.3-0.3,0.7-0.4,1.1
		c0.3,0.1,0.5,0.2,0.8,0.3c0.2-0.5,0.5-1,0.6-1.3c-0.2-0.5-0.4-0.9-0.6-1.3c-0.1-0.4-0.2-0.9-0.3-1.3c-0.1-0.3,0-0.5,0.3-0.6
		c0.7-0.3,1.3-0.6,2.1-0.9c-1-0.7-1-0.7-1.9-0.2c-0.4,0.2-0.8,0.4-1.3,0.7c0.3-0.7,0.5-1.2,0.7-1.7c-0.3-0.2-0.7-0.3-1-0.5
		c-0.7,1.5-1.3,2.9-2,4.3c0.4,0.2,0.7,0.3,1,0.5C124.6,119.9,124.9,119.3,125.2,118.7z M147.5,120.8c-0.8-0.2-1.4-0.1-1.8,0.6
		c-0.2,0.4-0.6,0.7-0.9,1.2c0-0.8-0.1-1.3-0.1-1.8c-0.4,0-0.7,0-1,0c0,1.6,0,3.1,0,4.6c0.4,0,0.8,0,1.2,0c0-0.7,0-1.3,0-2
		c0.9,0.6,1,2,2.3,2.1c0,0.4,0.1,0.7,0.1,1.1c0.3,0,0.5,0,0.7,0c0-0.6,0-1.1,0-1.4c-0.4-0.3-0.7-0.5-0.9-0.7
		c-0.3-0.4-0.6-0.8-0.9-1.1c-0.2-0.3-0.2-0.5,0-0.8C146.6,122,147,121.4,147.5,120.8z M160.9,117.3c0.7,1.4,1.3,2.8,2,4.2
		c0.4-0.2,0.7-0.3,1-0.5c-0.3-0.6-0.6-1.2-0.8-1.8c0.5-0.2,0.9-0.5,1.4-0.7c0.3,0.6,0.6,1.2,0.9,1.8c0.4-0.2,0.7-0.3,1-0.5
		c-0.7-1.4-1.3-2.8-2-4.2c-0.4,0.2-0.7,0.3-1,0.5c0.2,0.6,0.5,1.1,0.7,1.6c-0.5,0.2-1,0.5-1.4,0.7c-0.3-0.6-0.5-1.1-0.8-1.6
		C161.6,117,161.3,117.2,160.9,117.3z M135,122.4c0.3,0.1,0.6,0.1,0.9,0.3c0.2,0.1,0.4,0.3,0.4,0.5c0,0.2-0.2,0.4-0.3,0.5
		c-0.4,0.3-1.4,0-1.5-0.5c-0.2-0.7-0.6-0.7-1.2-0.6c-0.2,0.8,0.1,1.3,0.7,1.7c0.8,0.4,1.6,0.6,2.5,0.4c0.7-0.2,1.1-0.7,0.9-1.4
		c-0.1-0.3-0.3-0.6-0.5-0.9c0.7-0.4,1-0.9,0.7-1.5c-0.3-0.8-1.1-1-1.9-1.1c-0.7-0.1-1.3-0.1-1.8,0.5c-0.1,0.2-0.2,0.4-0.3,0.7
		c0.8,0.2,0.7,0.2,1.4-0.2c0.3-0.1,0.7-0.1,1,0c0.2,0.1,0.3,0.4,0.4,0.6c-0.2,0.1-0.4,0.3-0.7,0.4c-0.2,0-0.4,0-0.6-0.1
		C135.1,121.9,135.1,122.1,135,122.4z M152.1,121.7c-0.3-1-0.8-1.5-1.9-1.4c-1.3,0-2.1,0.5-2.2,1.6c-0.1,0.6-0.1,1.2,0,1.8
		c0.1,0.9,0.8,1.4,1.7,1.5c0.9,0.1,1.8,0,2.3-0.8c0.2-0.3,0.3-0.7,0.4-1.1c-0.5,0-0.8,0.1-1.1,0.1c-0.5,1.1-1.2,1.4-1.8,0.6
		c-0.4-0.5-0.5-1.7-0.2-2.3c0.3-0.5,1.1-0.7,1.4-0.2C151.2,122.1,151.6,121.8,152.1,121.7z M132.4,123.7c-0.1-1.6-0.1-3.2-0.2-4.8
		c0-0.4-1-0.7-1.3-0.4c-1,1.2-1.9,2.4-3,3.9c0.6,0,1.2,0.2,1.3,0c0.4-0.6,0.8-0.5,1.3-0.2c0.2,0.1,0.7,0.3,0.7,0.5
		C131.1,123.6,131.8,123.5,132.4,123.7z M142.4,125.4c-0.4-1.5-0.8-3-1.2-4.4c-0.1-0.2-0.3-0.4-0.5-0.4c-0.3,0-0.7,0-0.8,0.2
		c-0.7,1.4-1.4,2.8-2,4.3c0.7,0.1,1.2,0.4,1.5-0.5c0.1-0.3,1.6-0.2,1.7,0.2C141.1,125.5,141.7,125.4,142.4,125.4z M157.7,123.7
		c0.4-0.3,0.9-0.5,0.9-0.7c0-0.8,0.4-0.9,0.9-1c0.3-0.1,0.7-0.2,0.7,0c0.5,0.7,1,0.4,1.6,0.1c-1-1.2-2-2.5-3-3.6
		c-0.1-0.1-0.4-0.1-0.6,0c-0.2,0.1-0.6,0.3-0.6,0.5C157.7,120.4,157.7,121.9,157.7,123.7z M154.2,120.6c0.3,1.3,0.6,2.5,0.8,3.7
		c0.4-0.1,0.7-0.2,1.1-0.3c-0.3-1.2-0.5-2.5-0.8-3.7c0.5-0.1,0.9-0.3,1.3-0.4c-0.1-0.3-0.1-0.6-0.2-0.8c-1.3,0.3-2.5,0.6-3.8,0.9
		c0.1,0.3,0.1,0.6,0.2,0.9C153.4,120.7,153.8,120.7,154.2,120.6z"/>
	<path d="M160,77.1c0,8.3-6.8,15.2-15.1,15.2c-8.4,0-15.3-6.7-15.3-15c0-8.6,6.7-15.3,15.2-15.4C153.2,61.9,160,68.7,160,77.1z
		 M140.9,74.4c0.4-0.4,0.8-0.8,1.3-1.2c-0.6-0.4-0.8-1.2-1.6-1.2c-0.1,0-0.3-0.2-0.4-0.3c-0.8-0.8-1.7-1.6-2.5-2.4
		c-0.1-0.1-0.2-0.3-0.3-0.4c-0.3-0.4-0.5-0.9-0.8-1.4c-0.5,0.5-0.9,0.8-1.3,1.2c0.4,0.3,0.7,0.6,1,0.8c0.3,0.2,0.6,0.2,0.8,0.4
		c0.8,0.8,1.6,1.6,2.4,2.4c0.1,0.1,0.3,0.3,0.3,0.4C139.7,73.6,140.5,73.9,140.9,74.4z M148.6,74.4c0.4-0.4,0.9-0.8,1-1.2
		c0.1-0.5,0.3-0.7,0.6-1c0.7-0.8,1.5-1.5,2.2-2.2c0.1-0.1,0.3-0.3,0.5-0.4c0.4-0.2,0.9-0.5,1.4-0.7c-0.2-0.3-0.3-0.4-0.5-0.6
		c-0.7-0.7-1.2-0.7-1.5,0.2c-0.3,0.8-0.9,1.2-1.4,1.8c-0.5,0.5-1,1-1.6,1.5c-0.1,0.1-0.3,0.3-0.4,0.3c-0.8,0-1.1,0.7-1.5,1.2
		C147.8,73.7,148.2,74,148.6,74.4z M136.2,86.7c0.4-0.5,1.1-0.6,0.9-1.4c0-0.1,0.1-0.2,0.2-0.3c0.9-0.9,1.8-1.8,2.7-2.6
		c0.1-0.1,0.3-0.2,0.4-0.2c0.8,0.1,1-0.6,1.5-1c-0.4-0.4-0.8-0.8-1.2-1.3c-0.4,0.5-0.7,0.9-1,1.3c-0.2,0.2-0.2,0.5-0.4,0.7
		c-0.8,0.8-1.6,1.6-2.4,2.4c-0.1,0.1-0.2,0.3-0.4,0.3c-0.5,0.3-0.9,0.5-1.6,0.8C135.5,86,135.9,86.3,136.2,86.7z M147.4,81.3
		c0.5,0.3,0.9,0.6,1.3,0.9c0.2,0.1,0.5,0.2,0.7,0.3c0.9,0.8,1.7,1.6,2.6,2.5c0.1,0.1,0.3,0.3,0.3,0.4c-0.1,0.7,0.6,0.9,1,1.4
		c0.4-0.4,0.7-0.8,1.2-1.3c-0.7-0.4-1.3-0.6-1.8-1c-1-0.9-1.8-1.8-2.7-2.8c-0.1-0.1-0.2-0.2-0.2-0.3c0-0.8-0.6-1-1.1-1.5
		C148.3,80.4,147.9,80.8,147.4,81.3z M145.3,83.3c0.6,0.4,0.9,1.2,1.8,1.1c0.1,0,0.2,0.1,0.3,0.2c0.8,0.8,1.7,1.6,2.5,2.4
		c0.1,0.1,0.2,0.3,0.3,0.4c0.2,0.3,0.3,0.7,0.5,1.1c0.5-0.4,0.9-0.7,1.4-1.1c-0.3-0.3-0.6-0.5-0.8-0.7c-0.2-0.2-0.6-0.2-0.8-0.4
		c-0.8-0.8-1.6-1.6-2.3-2.3c-0.1-0.1-0.3-0.3-0.3-0.4c-0.1-0.9-0.9-1.1-1.3-1.7C146.1,82.5,145.7,82.9,145.3,83.3z M143,82
		c-0.1,0.1-0.2,0.2-0.3,0.3c-0.6,0.4-0.8,1.1-1.2,1.7c-0.7,1-1.6,1.8-2.5,2.6c-0.1,0.1-0.2,0.1-0.3,0.2c-0.4,0.2-0.8,0.4-1.3,0.7
		c0.5,0.4,0.9,0.7,1.4,1.2c0.2-0.5,0.2-0.9,0.5-1.2c1-1,2.1-2,3.1-3c0.9,0.1,1.2-0.7,1.7-1.1C143.7,82.8,143.3,82.4,143,82z
		 M150.6,76.5c0.8-0.7,0.8-0.7,1.1-1.5c0-0.1,0.1-0.2,0.2-0.3c0.9-0.9,1.8-1.8,2.6-2.7c0.1-0.1,0.3-0.3,0.4-0.3
		c0.5,0.1,0.7-0.3,0.9-0.7c-0.3-0.4-0.6-0.7-0.9-1.1c-0.3,0.3-0.7,0.5-0.7,0.7c0,0.6-0.4,0.8-0.7,1.1c-0.7,0.7-1.4,1.4-2.1,2.1
		c-0.1,0.1-0.3,0.3-0.5,0.3c-0.8,0-1.1,0.7-1.6,1.1C149.8,75.8,150.2,76.1,150.6,76.5z M137.5,66.8c0.3,0.3,0.6,0.7,0.8,0.7
		c0.5,0,0.7,0.3,1,0.6c0.8,0.8,1.5,1.5,2.3,2.3c0.1,0.1,0.3,0.3,0.3,0.4c0,0.8,0.7,1,1,1.5c0.4-0.4,0.8-0.8,1.4-1.4
		c-0.6-0.3-1.2-0.6-1.7-0.9c-0.1-0.1-0.2-0.1-0.3-0.2c-0.9-0.8-1.7-1.7-2.6-2.5c-0.1-0.1-0.2-0.3-0.3-0.4c-0.2-0.3-0.3-0.6-0.5-1
		C138.4,66.1,138,66.4,137.5,66.8z M140.1,75.2c-0.6-0.3-1.1-0.7-1.7-1c-0.1-0.1-0.3-0.2-0.4-0.3c-0.8-0.8-1.7-1.6-2.5-2.4
		c-0.1-0.1-0.3-0.2-0.3-0.4c-0.2-0.4-0.4-0.7-0.6-1.2c-0.4,0.4-0.6,0.6-0.8,0.9c-0.3,0.3,0,0.8,0.4,1c0.3,0.1,0.6,0.2,0.9,0.4
		c0.8,0.8,1.6,1.6,2.4,2.4c0.1,0.1,0.4,0.3,0.4,0.5c0,0.8,0.7,1.1,1.1,1.6C139.3,76.1,139.6,75.7,140.1,75.2z M150.6,65.8
		c-0.2,0.4-0.4,0.6-0.5,0.9c-0.1,0.2-0.2,0.4-0.3,0.5c-0.9,0.8-1.7,1.7-2.6,2.5c-0.1,0.1-0.2,0.2-0.4,0.2c-0.5,0.3-1,0.6-1.6,1
		c0.6,0.5,1,0.9,1.4,1.3c0.4-0.4,0.8-0.7,0.9-1.1c0.1-0.6,0.4-0.8,0.7-1.2c0.7-0.7,1.5-1.5,2.2-2.2c0.1-0.1,0.3-0.3,0.5-0.3
		c0.4-0.2,0.8-0.4,1.3-0.6C151.5,66.4,151.1,66.1,150.6,65.8z M138.8,77.6c-0.4,0.5-0.7,0.9-1,1.3c-0.2,0.3-0.3,0.7-0.5,0.9
		c-0.7,0.8-1.5,1.5-2.3,2.3c-0.1,0.1-0.3,0.2-0.5,0.3c-0.3,0.1-0.6,0.3-0.9,0.4c0.3,0.5,0.6,0.9,0.9,1.4c0.3-0.3,0.5-0.6,0.7-0.8
		c0.1-0.2,0.2-0.5,0.4-0.7c0.8-0.8,1.7-1.7,2.5-2.5c0.1-0.1,0.3-0.3,0.4-0.3c0.8,0.1,1-0.7,1.6-1C139.6,78.5,139.2,78.1,138.8,77.6z
		 M155.9,83c-0.2-0.2-0.4-0.5-0.6-0.4c-0.6,0.1-0.8-0.4-1.2-0.7c-0.7-0.7-1.4-1.4-2.1-2.1c-0.1-0.1-0.3-0.3-0.3-0.4
		c0-0.8-0.7-1.1-1.1-1.6c-0.4,0.5-0.8,0.8-1.2,1.4c2.3,1.4,4.3,2.9,5.6,5.3C155.4,83.8,155.6,83.4,155.9,83z M139.3,77.1
		c0.4,0.4,0.9,0.8,1.2,1.2c0.4-0.4,0.9-0.8,1.2-1.2c-0.4-0.4-0.8-0.9-1.2-1.3C140.2,76.2,139.8,76.6,139.3,77.1z M150.1,77.2
		c-0.4-0.5-0.9-0.9-1.2-1.3c-0.4,0.4-0.9,0.8-1.2,1.1c0.4,0.5,0.8,1,1.2,1.4C149.3,77.9,149.7,77.5,150.1,77.2z M144.8,74.1
		c0.4-0.4,0.9-0.8,1.3-1.1c-0.4-0.5-0.9-0.9-1.2-1.3c-0.4,0.4-0.9,0.8-1.3,1.2C144,73.3,144.4,73.7,144.8,74.1z M142.7,77.9
		c-0.5,0.4-0.9,0.8-1.2,1.2c0.4,0.5,0.8,0.9,1.2,1.3c0.5-0.4,0.9-0.8,1.4-1.2C143.6,78.8,143.1,78.3,142.7,77.9z M146.8,73.7
		c-0.4,0.4-0.9,0.8-1.3,1.2c0.4,0.5,0.8,0.9,1.2,1.3c0.4-0.4,0.9-0.8,1.3-1.3C147.7,74.6,147.2,74.1,146.8,73.7z M142.6,76.2
		c0.5-0.4,1-0.8,1.4-1.2c-0.4-0.5-0.9-0.9-1.3-1.3c-0.4,0.4-0.9,0.8-1.3,1.3C141.8,75.4,142.2,75.8,142.6,76.2z M144.8,80.1
		c-0.4,0.4-0.8,0.8-1.2,1.2c0.4,0.4,0.9,0.9,1.3,1.3c0.4-0.4,0.8-0.8,1.3-1.2C145.6,80.9,145.2,80.5,144.8,80.1z M144.9,75.8
		c-0.5,0.5-0.9,0.9-1.3,1.3c0.4,0.4,0.8,0.9,1.1,1.2c0.5-0.4,1-0.8,1.4-1.2C145.7,76.7,145.3,76.3,144.9,75.8z M145.6,79.1
		c0.4,0.5,0.8,0.9,1.1,1.3c0.5-0.4,0.9-0.8,1.4-1.2c-0.5-0.5-0.9-0.9-1.3-1.3C146.4,78.4,146,78.8,145.6,79.1z"/>
	<path d="M131.2,121.5c-0.3-0.1-0.6-0.2-1-0.3c0.3-0.5,0.6-0.9,1-1.4C131.2,120.5,131.2,121,131.2,121.5z"/>
	<path d="M140.4,121.9c0.2,0.6,0.3,1.1,0.4,1.7c-0.4,0-0.7,0-1.1,0C139.9,123,140.1,122.5,140.4,121.9z"/>
	<path d="M158.7,119.7c0.4,0.5,0.7,0.9,1,1.4c-0.4,0.1-0.7,0.2-1,0.4C158.7,120.8,158.7,120.3,158.7,119.7z"/>
</g>
</svg>
