<?xml version="1.0" encoding="UTF-8"?>
<!DOCTYPE svg PUBLIC "-//W3C//DTD SVG 1.0//EN" "http://www.w3.org/TR/2001/REC-SVG-20010904/DTD/svg10.dtd">
<!-- Creator: CorelDRAW -->
<svg xmlns="http://www.w3.org/2000/svg" xml:space="preserve" width="84mm" height="53mm" version="1.0" style="shape-rendering:geometricPrecision; text-rendering:geometricPrecision; image-rendering:optimizeQuality; fill-rule:evenodd; clip-rule:evenodd"
viewBox="0 0 8400 5300"
 xmlns:xlink="http://www.w3.org/1999/xlink"
 xmlns:xodm="http://www.corel.com/coreldraw/odm/2003">
 <defs>
  <style type="text/css">
   <![CDATA[
    .fil0 {fill:#373535}
   ]]>
  </style>
 </defs>
 <g id="Слой_x0020_1">
  <metadata id="CorelCorpID_0Corel-Layer"/>
  <path class="fil0" d="M5664.82 3255.19l389.51 -0.16c-32.23,104.1 -93.21,206.79 -147.62,278.27 -40.47,53.15 -147.2,168.69 -241.89,180.55l0 -458.66zm611.9 -1498.89c-7.11,-9.73 -1.3,-5.21 -11.52,-13.24 -9.57,-7.55 -4.07,-2.58 -18.56,-8.73l30.08 21.97zm-424.8 376.7l29.16 -0.59 -17.99 -36.86 -11.17 37.45zm-84.27 146.13c-19.15,-11.8 -19.35,-10.06 -44.55,-4.9l0 22.05c31.26,5.25 38.37,9.99 44.55,-17.15zm-618.26 -190.97c-20.03,-11.82 -17.35,-7.81 -44.32,-7.99l0 27.69c34.36,-0.27 37.64,8.35 44.32,-19.7zm1083.94 256.92c-2.46,-30.61 -14.17,-29.04 -48.61,-22.99l0.19 28.83 48.42 -5.84zm-460.31 0.68l-0.4 -23.18 -49.51 -1.24 0.45 29.62 49.46 -5.2zm-557.22 3.45c30.97,3.64 33.16,6.29 49.17,-10.83 -9.18,-24.13 -17.11,-20.66 -49.17,-17.1l0 27.93zm12.17 -189.97c30.48,1.52 46.24,7.23 48.21,-22.02 -19.38,-12.88 -22.9,-9.04 -48.21,-7.86l0 29.88zm-73.15 -3.58l-0.41 -24.05 -49.34 -3.71 0.8 33.17 48.95 -5.41zm908.79 195.49l43.52 -1.72 0.15 -77.17 -34.16 2.02 -9.51 76.87zm-611.43 -1.9c67.32,10.72 51.99,-61.03 33.21,-72.92 -43.05,-27.19 -67.97,31.48 -33.21,72.92zm-437.81 0.06c33.76,-40.83 10.66,-100.66 -33.27,-72.9 -19.38,12.21 -33.97,83.31 33.27,72.9zm992.62 -381.39l-272.8 -0.07c-15.58,-47.16 50.52,-91.13 19.07,-142.63l-85.8 -98.51c7.62,46.92 36.2,103.22 -5.13,137.47l2.68 -343.26c100.1,16.71 192.23,120.99 236.74,176.08 45.21,55.96 90.2,131.89 124.69,210.13 8.53,-11.61 120.16,-137.27 126.95,-137.63 -27.87,-55.17 -72.84,-109.41 -92.36,-151.41 126.34,50.36 399.14,210.61 526.31,282.23 36.39,20.49 64.07,45.5 93.41,62.99 -7.45,-52.45 -149.57,-212.64 -181.41,-245.84 -221.36,-230.78 -570.51,-387.14 -919.47,-387.46 -312.11,-0.28 -648.39,137.33 -861.64,334.38l-155.32 170.9c-19.58,25.35 -77.01,100.53 -85.29,133.32l625.63 -348.81c-12.12,9.85 -63.57,94.14 -92.94,157.63 5.83,3.81 103.81,131.55 117.72,148.16 31.23,-78.73 95.91,-179.78 131.88,-226.64 46.17,-60.16 136.72,-155.8 237.09,-178.55l2.5 341.1c-49.14,-28.67 -17.07,-91.16 -9.19,-135.09 -16.19,15.81 -29.3,34.29 -44.48,54.16 -10.2,13.34 -40.57,41.05 -44.23,48.53 -24.52,50.26 36.13,98.86 23.84,129.59 -6.05,15.03 1.43,1.93 -9.98,12.21l0 -0.01c-15.06,-8.52 -239.38,-9.84 -264.98,-2.48l5.62 4.82c-1.95,-1.64 -3.85,-3.24 -5.65,-4.82 -106.21,-63.52 -169.69,-132.46 -176.16,-263.73 -253.19,148.14 -595.76,253.14 -612.85,578 9.16,-4.17 16.27,-7.23 20.14,-9.44 42.85,-24.41 82.44,-37.14 118.15,-40.74 21.67,-5.74 46.75,-8.46 75.82,-8.21 79.28,16.46 37.31,0.75 97.97,-17.91 73.37,-22.58 124.9,36.06 155.96,94.55 21.68,40.83 19.4,50.47 28.21,70.33l14.3 20.42c56.17,1.01 121.1,15.48 162.35,38.36 68.91,24.46 249.58,161.18 298.38,216.24 84.63,102.29 67.73,59.59 97.6,57.8 66.11,-4.05 119,248.44 145.33,302.74 37.52,-16.95 82.53,-374.11 176.19,-288.46 86.91,-111.56 231.56,-209.33 351.08,-280.32l17.55 -10.34c23.57,-5.89 47.55,-17.36 73.42,-24.01 27.48,-7.07 59.24,-9.81 88.41,-14.65 19.66,4.03 11.36,1.66 15.42,-19.95l-24.55 2.89 -0.04 -120.95c32.96,2.84 25.2,1.41 24.52,40.97 -0.35,22.16 -0.2,44.31 -0.11,66.45 9.39,-9.63 2.21,1.31 12.03,-16.79 3.24,-6.01 6.92,-16.52 9.92,-23.47 28.16,-65.5 90.14,-139.26 169.59,-109.95 59.82,22.05 11.54,25.83 89.99,18.8 22.38,-3.69 42.52,-4.1 60.62,-1.7 51.76,-0.5 107.52,8.3 153.61,32.51 -12.37,-107.17 -64.84,-213.37 -148.28,-283.73 -6.57,-6 -20.95,-17.47 -25.57,-24.2 -27.81,-16.59 -54.08,-40.3 -88.56,-59.74 -98.96,-55.75 -173.5,-85.19 -262.98,-134.5l-2.37 -1.31c-25.59,-14.18 -52.45,-29.99 -81.42,-48.53 -10.47,97.87 -72.65,200.36 -161.71,248.95l-15.42 13.13zm-270.77 1.5l24.47 18.84c9.2,7.18 18.08,13.88 27.09,19.76 -17.41,-11.11 -33.84,-24.88 -51.56,-38.6zm129.31 62.38c2.17,-0.05 4.38,-0.13 6.63,-0.29 4.2,-0.26 8.41,-0.71 12.59,-1.34 -4.18,0.64 -8.39,1.09 -12.59,1.37 -2.25,0.15 -4.46,0.23 -6.63,0.26zm26.74 -2.96c4.16,-0.83 8.3,-1.81 12.39,-2.94 -4.09,1.13 -8.23,2.11 -12.39,2.94zm-577.4 0.67l4.84 -1.01c-1.61,0.38 -3.22,0.69 -4.84,1.01zm4.84 -1.02c2.42,-0.55 4.84,-1.17 7.23,-1.85 -2.38,0.68 -4.81,1.3 -7.23,1.85zm756.86 2053.46c49.77,-4.77 32.68,4.96 52.78,-27.73 12.51,-20.37 19.3,-24.91 53.35,-19.25 44.19,68.97 -31.67,41.48 -14.36,88.24 12.1,14.78 56.86,-10.58 69.55,20.84 1.66,68.53 -56.9,44.01 -88.51,35.27 -18.89,19.52 -14.22,6.44 -27.84,30.02 102.79,101.37 261.36,-107.41 101.36,-119.78 64.71,-138.47 -142.19,-128.48 -146.33,-7.61zm-309.17 50.7c33.24,-2.89 85.13,-12.39 81.62,31.33 -2.8,34.73 -49.32,35.04 -80.07,33.72l-1.55 -65.05zm-52.64 -33.95l21.05 230.25 44.28 0.71 -4.82 -89.57c70.72,-8.75 145.54,-16.81 119.84,-105.35 -19.95,-68.78 -113.95,-43.07 -180.35,-36.04zm990.24 -533.87l-25.98 35.45 192.66 127.93 25.59 -35.61c-18.01,-19.12 -50.79,-33.88 -64.57,-45.26 -23.93,-19.74 -13.85,-2.06 -10.66,-18.08 28.51,-17.22 84.38,0.78 121.83,3.84l23.8 -44.08c-42.59,-10.61 -97.36,-20.18 -137.66,-6.5 -0.97,-1.47 -2.17,-5.65 -2.59,-4.62l-33.84 -57.52c-15.6,-44.66 29.3,-36.8 -21.32,-60.51 -54.03,57.36 -2.05,82.19 15.36,123.5 28.62,67.89 -58.49,-8.23 -82.62,-18.54zm152.08 -152.98l82.48 0.93 -19.74 57.25c-21.4,-9.93 -12.98,-5.96 -30.6,-24.03l-22.18 -19.8c-8.52,-9.37 -2.87,-2.54 -9.96,-14.35zm-68.79 3.56l188.94 167.38 14.47 -42.68 -38.13 -34.18 29.39 -92.71 58.81 -1.13 17.99 -46.16 -252.68 1.14 -18.79 48.34zm-816.72 702.64c19.1,14.28 39.8,48.41 50.03,72.14l-58.17 12.87 8.14 -85.01zm-68 195.61l44.58 -9.98c20.22,-46.05 -30.42,-59.74 106.06,-78.56 8.2,20.97 15.59,24.81 23.95,45.24 24.57,-3.28 33.59,-3.24 49.5,-15.18l-140.23 -199.44c-68.54,0.26 -51.82,5.84 -63.81,97.84 -6.96,53.5 -15.24,106.38 -20.05,160.08zm-764.19 -221.67l5.54 85.95 -49.27 -14.38c-0.83,-0.42 -3.14,-0.86 -3.72,-2.72 -0.56,-1.85 -2.34,-1.93 -3.52,-2.9l50.97 -65.95zm-159.56 138.71l44.08 10.39c19.81,-18.99 14.91,-22.82 35.09,-41.98l89.49 22.62c8.21,61.54 -9.89,58.09 54.32,69.98 -3.66,-51.26 -9.21,-101.13 -14.13,-152.18 -1.97,-20.54 -3.31,-60.43 -6.92,-78.18 -6.44,-31.55 -13.07,-21.64 -46.37,-32.27 -22.4,15.58 -140.05,169.88 -155.56,201.62zm-192.79 -101.16l42.86 23.97 42.68 -91.23 82.21 38.14 -42.73 91.3 43.68 24.44 101.8 -210.1 -39.33 -20.89 -45.01 79.81 -79.96 -38.7 37.52 -82.07 -37.64 -21.63 -106.08 206.96zm-199.04 -132.69c14.38,18.45 16.54,19.75 41.85,30.14l52.21 -81.22c28.43,11.84 52.03,31.3 75.93,47.86 -15.1,31.49 -40.98,56.33 -53.66,90.83l42.81 12.42 124.02 -182.01 -33.72 -26.64c-14.25,11.17 -16.79,17.41 -27.8,33.95 -4.08,6.12 -5.7,9.25 -11.15,16.69l-17.29 20.52 -52.71 -33.45c-1.65,-1.27 -6.47,-5.13 -7.98,-6.48 -9.09,-8.07 -5.01,-3.52 -11.21,-11.56 16.63,-26.24 36.73,-50.27 47.34,-79.79l-37.74 -17.84c-47.55,47.9 -83.88,133.56 -130.9,186.58zm-162.08 -136.55c46.8,26.77 86.52,88.25 133.04,109.7l21.46 -18.63c-15.91,-37.08 -59.73,-56.74 -90.44,-92.08 10.66,-21.77 24.3,-37.21 43.17,-48.04 14.02,13.2 21.04,23.55 36.91,36.82 16.71,14.02 28.86,23.17 44.46,36.95l25.05 -25.29c-15.77,-25.48 -61.1,-58.89 -82.49,-73.49l34.44 -44.84c34.06,29.82 57.31,57.61 92.44,81.46l24.46 -25.35 -126.86 -116.12c-28.94,29.97 -144.64,149.75 -155.64,178.91zm1980.16 5.94c11.35,25.82 122.34,158.14 146.12,180.17 18.78,-8.96 120.83,-94.47 134.3,-110.73l-18.17 -26.65c-38.01,11.11 -66.73,61.53 -111.47,77.68 -9.09,-18.02 -13.19,-27.25 -32.23,-41.43 12.76,-22 2.34,-6.67 20.62,-23.82 10.73,-10.06 13.58,-11.73 22.39,-18.93 15.23,-12.42 33.52,-27.78 44.07,-40.37l-22.24 -26.85c-34.26,18.31 -62.12,55.59 -94.22,71.18l-29.07 -38.6c25.64,-26.57 69.52,-59.3 93.8,-75.07 -10.24,-23.86 -5.46,-11.78 -21.66,-31.52 -20.39,8.74 -114.45,85.27 -132.24,104.94zm-1983.98 -272.13c85.62,-28.77 116.92,100.89 15.04,137.31 -90.14,32.22 -139.14,-95.66 -15.04,-137.31zm-25.63 -44.1c-172.43,66.49 -77.79,270.89 54.1,228.72 170.01,-54.35 86.24,-282.82 -54.1,-228.72zm992.64 633.42c-27.13,4.1 -87.25,0.59 -90.41,-33.16 -4.62,-49.87 61.36,-25.98 98.43,-22.5l-8.02 55.66zm-96.11 23.13c-16.13,16.6 -25.67,15.92 -43.79,37.21 -13.82,16.23 -27.44,33.92 -40.58,55.18l51.68 6.22c47.62,-45.57 67.01,-84.58 115.81,-81.02 8.27,31.07 -5.83,66.26 -6.35,99.54l43.25 3.91 37.7 -231.47c-43.27,-4.87 -137.06,-27.8 -171.89,-10.31 -17.44,8.74 -31.63,34.83 -28.64,65.07 3.29,33.29 21.18,38.55 42.81,55.67zm1046.2 -150.71c28.67,-18.71 60.33,-39.72 97.98,-32.22 14.95,42.87 -1.45,65.03 -71.18,85.04l-26.8 -52.82zm-43.88 -78.49c18.84,-18.32 78.71,-61.3 91.06,-20 9.38,31.36 -46.99,54.74 -69.53,61.82l-21.53 -41.82zm-61.62 -15.84l110.17 204.86c22.3,-5.88 116.65,-59.05 130.11,-72.99 41.41,-42.87 20.68,-106.45 -52.33,-110.4 18.43,-50.42 -11.05,-102.02 -71.2,-82.76 -33.06,10.58 -87.34,45.99 -116.75,61.29zm-1953.5 -516.01c16.68,22.87 34.03,57.78 28.22,94.78 -50.7,24.16 -67.87,-21.75 -81.97,-71.9l53.75 -22.88zm84.29 -37.76c21.47,24.97 39.76,70.31 23.37,86.15 -41.15,19.98 -56.01,-28.55 -67.63,-67.49l44.26 -18.66zm-194.17 33.76c23.22,70.27 61.89,183.53 138.29,153.83 32.38,-12.6 29.11,-33.65 41.98,-59.99 51.27,20.19 98.8,-8.45 85.6,-67.19 -7.18,-31.89 -37.71,-88.11 -51.95,-121.64l-213.92 94.99zm2493.91 239.15c16.92,10.03 103.03,87.6 113.56,102.24l-50.57 63.27c-13.31,-8.57 -1.47,1.23 -12.13,-9.96 -21.46,-22.51 -50.6,-73.13 -93.88,-100.76l43.02 -54.79zm-103.11 54.1c50.31,60.32 115.85,93.73 120.8,156.1 2.37,29.82 36.56,53.8 59.62,69.66 7.81,-8.25 17.41,-14.48 25.44,-22.9 -11.11,-19.65 -16.96,-21.47 -34.31,-34.63 6.73,-17.06 80.17,-99.19 97.35,-110.33l37.33 28.56 27.56 -30.94c-20.27,-12.75 -47.66,-41.77 -58.8,-47.77 -24.88,-13.41 -16.89,14.9 -54.92,-21.83 -22.78,-22.03 -30.56,-31.78 -53.71,-50.58 -18.17,-14.74 -41.05,-41.4 -57.78,-51.26l-108.58 115.92zm-1060 -2932.27c1060.87,-67.8 1906.67,754.85 1968.88,1736.23 67.46,1064.31 -751.19,1911.57 -1735.59,1974.41 -1064.96,68.02 -1912.26,-751.3 -1975.11,-1735.57 -68.32,-1069.98 752.88,-1911.87 1741.82,-1975.07zm-15.03 -77c-1025.24,68.51 -1881.77,951.64 -1803.8,2067.01 71.4,1021.21 952.43,1874.23 2066.21,1797.65 1021.36,-70.24 1874.64,-953.14 1798.68,-2064.35 -69.87,-1022.3 -950.71,-1874.52 -2061.09,-1800.31zm550.51 1672.11c-10.29,-10.63 -9.72,18.61 -9.72,-32.87 0,-28.07 21.64,11.62 22.15,-113.55l82.34 0 0.01 74.04c0,37.13 22.7,41.93 4,72.26 -18.13,-6.83 -12.69,14.18 -13.77,-25.54l-74.5 -0.57c-0.48,30.12 4.57,17.51 -10.51,26.23zm212.58 -31.83l-88.69 5.57 0 -120.13 24.03 0 0 44.86c23.96,5.06 49.92,-0.94 64.88,14.1 23.02,23.04 0.4,44.66 -0.22,55.6zm-1015.95 5.6l-41.9 0 0.08 -120.19 24.13 0 0 45.89c35.89,4.8 66.03,-0.29 73.33,31.04 8.68,37.3 -22.4,43.26 -55.64,43.26zm179.5 -39.57c-21.79,-96.8 97.15,-109.17 110.88,-38.96 19.01,97.3 -96.34,103.54 -110.88,38.96zm-444.66 -78.32c118.22,-20.62 96.91,96.94 57.59,114.62 -35.01,15.72 -70.15,-1.22 -79.48,-26.11 -16.78,-44.58 1.91,-63.2 21.89,-88.51zm820.26 112.22l-89.2 6.95 -0.06 -121.47c37.89,0 95.09,-9.87 91.56,33.61 -1.5,18.62 -3.84,4.85 -5.17,17.6 -1.14,10.94 -0.04,4.27 6.04,17.38 11.42,24.52 6.33,24.52 -3.17,45.93zm140.15 -85.65c18.09,-62.53 121.16,-26.53 68.44,23.99 8.46,9.13 16.86,14.31 18.79,29 6.05,45.18 -72.47,60.92 -88.73,12.58 43.12,-20.93 7.84,22.41 59.87,2.26 6.47,-25.4 7.1,-12.83 -19.7,-32.54l-4.31 -3.28c16.46,-21.79 28.16,-4.96 22.63,-32.09 -9.04,-7.62 6.39,-11.78 -25.59,-6.9 -10.55,1.6 2.02,7.92 -31.4,6.98zm-24.16 32.01c-16.27,10.5 -39.96,6.33 -59.3,6.33l0.43 32.61c86.35,-0.03 58.64,-4.83 65.75,13.73 -18.93,12.64 -66.43,6.57 -90.27,5.34l0.04 -116.75 64.19 -2.14c31.39,0 19.59,0.82 23.5,14.79 -15.25,9.18 -42.22,5.59 -63.61,5.59 1.33,34.59 -7.18,23.72 19.97,26.88 38.62,4.47 29.62,-13.23 39.3,13.62zm-316.44 -32.4c20.99,-60.73 118.05,-23.52 68.69,26.83 64.49,73.77 -71.27,90.99 -65.54,35.06 40.48,-4.21 20.49,26.43 57.34,3.42 -0.44,-5.81 7.86,-6.55 -14.41,-24.37l-11.67 -8.54c0.97,-1.27 2.78,-4.64 3.29,-3.5l14.14 -11.7c9.06,-11.05 8,6.07 5.12,-21.07 -43.87,-17.38 -9.58,7.68 -56.96,3.87zm-524.85 90.76c8.45,-64.62 18.13,56.76 18,-119.24l83.46 2.79c-0.72,115.11 13.24,114.59 -24.27,117.4l0 -98.92 -35.73 1c0.08,55.69 16.62,100.69 -41.46,96.97zm-224.77 -111.04c10.02,-7.92 -3.03,-3.67 13.75,-7.29l80.68 -0.91c-13.19,77.56 -35.08,-72.56 -35.08,120.19 -34.61,-2.33 -24.08,10.81 -24.08,-99.81 -50.54,-0.04 -24.64,-1.9 -35.27,-12.18zm526.51 46.07l33.7 65.74c-64.07,-1.01 -12.58,-26.03 -60.76,-51.53 -2.61,43.48 12.27,49.93 -25.14,51.36l-0.62 -99.18c5.03,-33.35 -6.08,-10.98 13.47,-20.66 12.57,8.02 11.25,-8.37 11.25,49.92 42.41,-26.03 1.67,-44.68 62.21,-50.71 -9.8,37.11 3.59,1.11 -16.82,26.49 -9.88,12.32 -8.58,15.63 -17.29,28.57zm527.71 -72.41c-2.41,1.51 6.1,14.58 -13.35,4.27 -4.79,-2.55 -9.83,9.88 -4.69,-9.39 2.11,-7.83 -7.17,-9.16 8.69,-5.72 17.55,3.8 2.55,-3.85 9.35,10.84zm-55.09 0c7.81,-15.66 -1.38,-19.69 19.99,-6.62 -5.08,14.62 9.59,8.01 -7.21,11.13 -14.55,2.62 -5.44,-0.2 -12.78,-4.51zm-469.04 -172.95l24.17 0 0.12 98.85 33.25 1.34c3.9,-99.84 -14.88,-96.87 24.83,-100.19l0.17 99.8 34.42 0.15c4.02,-99.01 -14.91,-96.5 24.71,-99.95l0.14 120.41 -141.81 -0.16 0 -120.25zm-51.96 0.08l24.01 0 0 120.16 -24.01 0 0 -120.16zm-70.02 120.21l-42.96 -2.35c0.13,-24 0.39,-47.25 -0.04,-70.36 -0.74,-41.1 -10.14,-44.25 24.26,-47.58l0 47.18c30.75,1.79 65.31,-3.24 72.76,27.94 9.31,39.08 -21.47,45.17 -54.02,45.17zm561.69 -1.98l34.54 -93.19c12.81,-31.2 3.68,-17.89 22.79,-25.12 21.92,-0.43 15.95,6.88 34.18,53.08 8.66,21.95 18.06,43.66 25.25,66.97 -44.66,-0.91 -20.49,-39.49 -72.59,-27.01 -39.24,19.95 8.72,30.05 -44.17,25.27zm-86.93 1.98c-37.62,-2.72 -24.12,-15.62 -24.12,-59.31 0,-42.89 -13.39,-57.55 24.13,-60.98l0.28 46.71 45.85 0.64c2.03,-60.26 -3.48,-38.02 12.51,-47.35 16.38,9.09 12.27,-18.48 12.27,61.01 0,75.87 4.62,51.31 -12.27,59.28 -15.25,-7.56 -11.46,2.55 -12.04,-52.57l-46.49 0.36 -0.12 52.21zm-558.56 -65.59c58.54,68.97 -31.43,65.59 -81.57,65.59l0 -120.29c26.34,0 70.77,-4.02 84.86,10.5 21.15,21.77 0.2,32.99 -3.29,44.2zm809.11 43.98c67.17,12.99 5.96,-29.91 62.31,-15.33 -8.8,38.19 -29.57,41.15 -71.35,35.91 -91.8,-89.68 45.14,-173.64 71.44,-84.1 -49.56,0.81 -11.92,-18.65 -64.76,-13.48 -17.73,30.34 -17.25,49.23 2.36,77zm-350.68 -37.7c-16.5,10.74 -19.75,6.34 -59.33,6.34l0.61 32.6c85.74,0 58.64,-4.59 65.6,13.73 -18.02,12.12 -67.1,6.55 -90.29,5.49l0.02 -117.23 64.38 -1.91c30.78,0 19.45,0.8 23.34,14.89 -15.27,9.29 -43,5.61 -63.64,5.61 2.12,53.7 4.96,14.66 46.35,27.08 17.14,5.14 7.12,-2.95 12.96,13.4zm-520.05 1495.35c-152.88,-55.07 -357.57,-245.85 -426,-361.39l253.3 0c39.22,170.13 134.38,280.04 172.7,361.39zm962.47 -1.25c33.45,-73.76 68.99,-93.38 140.21,-271.2 15.84,-39.56 22.44,-84.35 43,-89.04l242.03 1.3c-53.48,106.56 -311.01,327.73 -425.24,358.94zm-564.79 99.91c-171.71,-41.22 -330.29,-274.22 -389.52,-458.94l24.56 -1.11 364.96 0 0 460.05zm836.83 -1009.52c40.15,-14.29 289.24,-4.33 355.13,-4.33 7.32,141.41 -65.15,286.91 -95.19,387.77l-311.61 -2.65c12.77,-59.68 24.52,-123.06 32.43,-185.65 6.27,-49.35 8.14,-158.42 19.24,-195.14zm-1487.8 198.91c8.62,65.31 21.55,121.55 32.5,184.37l-300.37 0c-23.27,-10.68 -29.86,-43.24 -44.04,-81.4 -12.05,-32.32 -21.67,-62.87 -29.89,-94.92 -15.45,-60.41 -34.2,-145.37 -33.96,-211.13l357.07 -0.16c9.88,63.84 9.8,135.98 18.69,203.24zm-530 -461.54c2.32,14.76 -24.91,237.88 -8.96,353.77 15.5,112.62 43.71,179.67 69.43,276.85 49.97,188.76 275.56,458.82 441.89,580.16 466.39,340.18 1087.43,333.5 1548.41,-19.82 31.33,-24.01 64.23,-49.12 92.79,-80.83 72.46,-80.4 72.18,-62.56 159.65,-180.82 35.39,-47.82 104.2,-157.29 131.65,-215.48 53.08,-112.47 15.28,-38.64 43.64,-115.99 58.71,-160.04 104.41,-428.75 52.4,-598.55 -16.2,-116.28 -73.77,-209.08 -210.4,-186.63 23.31,97.54 47.44,166.69 54.34,279.52 -33.26,0 -330.44,10.04 -359.87,-9.31l-7.44 -99.35c-30.78,5.11 -64.26,8 -93.24,15.46 -27.28,7.02 -52.57,19.11 -77.44,25.34l2.66 67.81 -110.1 0.26c-43.55,12.96 -179.66,133.48 -204.22,161.47 55.07,12.83 243.12,4.44 312.49,4.44 4.18,57.67 -7.9,151.69 -16.11,210.03 -4.66,33.14 -9.94,62.98 -16.15,95.62 -6.83,35.86 -8.41,76.83 -29.25,82.06l-429 -1.77c0,-43.79 9.13,-201.58 -7.08,-226.43 -10.7,36.13 -26.24,69.12 -37.32,108.35 -17.1,60.48 -14.31,97.04 -40.54,108.92l-14.73 -30.4c-29.34,-108.25 -11.57,-70.34 -63.96,-199.01l-2.9 240.27 -440.61 0c-19.73,-125.78 -53.9,-249.3 -50.76,-385.91l281.67 -1.27c33.32,-4.98 18.35,8.45 27.23,-12.82 -50.61,-34.88 -134.93,-133.14 -197.31,-153.22l-112.68 -0.59 3.13 -65.37c-43.48,-24.13 -111.96,-39.39 -171.21,-40.46l-7.94 105.88 -358.91 0c7.33,-117.21 34.09,-181.06 54.21,-282.4 -137.69,-1.23 -191.44,60.97 -207.46,190.22z"/>
 </g>
</svg>
