<?xml version="1.0" encoding="utf-8"?>
<!-- Generator: Adobe Illustrator 24.0.2, SVG Export Plug-In . SVG Version: 6.00 Build 0)  -->
<svg version="1.1" id="Слой_1" xmlns="http://www.w3.org/2000/svg" xmlns:xlink="http://www.w3.org/1999/xlink" x="0px" y="0px"
	 viewBox="0 0 238.1 150.2" style="enable-background:new 0 0 238.1 150.2;" xml:space="preserve">
<g>
	<path d="M5.3,143.7c0-46.1,0-92.1,0-138.2c75.7,0,151.4,0,227.1,0c0,46,0,92.1,0,138.2C156.8,143.7,81.1,143.7,5.3,143.7z M230.6,7
		c-1,0.1-1.9,0.2-2.8,0.2c-2.5,0-4.9,0-7.4,0c-1.8,0-3.7,0-5.5,0c-2.3,0-4.5-0.1-6.8-0.1c-15.7,0-31.4,0-47.1,0
		c-1.7,0-3.3,0.1-5,0.1c-1.3,0-2.7-0.1-4-0.1c-2,0-4,0.1-6.1,0.1c-7.5,0-14.9-0.1-22.4-0.1c-2.5,0-5,0-7.5,0
		C93.7,7,71.3,7.1,48.9,7.1c-6.7,0-13.5,0-20.2,0c-6.9,0-13.7,0-20.6,0C7.3,7.1,7.1,7.4,7.1,8c0,0.5,0,0.9,0,1.4c0,44,0,88,0,131.9
		c0,0.2,0,0.5,0,0.8c0.3,0,0.6,0,0.8,0c15.8,0,31.5,0.1,47.3,0.1c4.7,0,9.5,0,14.2,0c3.4,0,6.8,0,10.2,0c2.5,0,5.1,0,7.7,0
		c3.1,0,6.2,0.1,9.3,0.1c2.1,0,4.3-0.1,6.4-0.2c1.5,0,2.9,0,4.4,0c2.9,0,5.8,0,8.7,0c4,0,8,0,12-0.1c4.3,0,8.6,0,12.9,0
		c5,0,10.1,0,15.1,0c23,0,45.9,0,68.9,0c1.6,0,3.3,0,4.9,0c1,0,1,0,1-0.9c-0.1-16.1-0.1-32.2-0.1-48.4c0-4.5,0-9,0-13.5
		c0-4.7,0.1-9.5,0.1-14.2c0-18.8,0-37.7,0-56.5C230.7,8,230.6,7.5,230.6,7z"/>
	<path d="M11.9,20.7c3,0.1,5.6-0.6,8-2.3c2.4-1.8,3.6-4.2,3.6-7.2c1,0,1.9,0,2.8,0c9.7,0,19.3,0,29,0c19.6,0,39.3,0,58.9,0
		c2.8,0,5.5,0,8.2,0c7.4,0,14.8-0.1,22.2-0.1c1.8,0,3.7,0.1,5.5,0.1c3.3,0,6.6,0,9.9,0c16.1,0,32.1,0.1,48.2,0.1
		c1.7,0,3.3-0.1,5-0.1c0.4,0,0.8-0.1,1.1,0c0.6,0.2,0.6,0.8,0.6,1.2c0.1,2.3,1.2,4,2.8,5.5c1.2,1.1,2.6,1.9,4.3,2.4
		c1.2,0.3,2.3,0.6,3.6,0.5c0.5,0,0.5,0.3,0.5,0.7c0,1.3-0.1,2.7-0.1,4c0,1.6,0.1,3.1,0.1,4.7c0,1.1-0.1,2.2-0.1,3.3
		c0,1.3,0.1,2.6,0.1,3.9c0,1.2-0.1,2.4-0.1,3.6c0,2.7,0.1,5.4,0.1,8.1c0,2.2,0,4.5,0,6.7c0,9.1,0,18.2,0,27.3c0,2.4-0.1,4.8-0.1,7.2
		c0,4,0,7.9,0,11.9c0,8.3,0.1,16.7,0.1,25c0,1.1,0,1-1,1.1c-2.6,0.2-4.9,0.9-6.9,2.6c-1.6,1.3-2.7,2.9-3.1,4.9
		c-0.2,0.8-0.2,1.6-0.3,2.3c-63.7,0-127.5,0-191.3,0c0.1-3-1.1-5.5-3.5-7.4c-2.3-1.8-5.1-2.5-8-2.4C11.9,92.4,11.9,56.6,11.9,20.7z
		 M200.9,104.7c-0.2,0-0.3,0.1-0.5,0c-0.6-0.2-1.2-0.5-1.8-0.7c-0.4-0.1-0.9-0.2-1.1-0.2c0,0.6,0.1,1.1,0,1.6
		c-0.1,0.6-0.3,1.2-0.4,1.8c-0.5,2.7-1.1,5.5-1.6,8.2c-0.4,2.2-1,4.3-1.3,6.5c-0.2,1.5-0.8,2.9-1.4,4.3c-0.8,1.9-2.2,3.3-3.5,4.8
		c-1.4,1.6-2.7,3.3-4,4.9c-0.3,0.4-0.6,0.7-1,1.2c2.3,0,4.4,0,6.5,0c0.6-1.9,3.5-7.1,4.7-8.2c-0.3,3.2-1.9,5.7-3.7,8.2
		c1.7,0,3.2,0,4.7,0c2.4-5.3,5.6-10.7,6.7-11c-1.6,3.6-3.2,7.3-4.8,11c4,0,7.8,0,11.7,0c0.2-0.9,0.3-1.8,0.5-2.7
		c0.4-2.3,0.8-4.7,1.3-7c0.1-0.4,0.1-1.1,0.8-1.2c0.2,2.4-0.1,4.7-0.8,7c-0.3,1,0,2,0.5,2.9c0.1,0.2,0.2,0.3,0.3,0.5
		c0.1,0.1,0.2,0.3,0.3,0.3c0.2,0,0.3-0.2,0.4-0.3c0.1-0.2,0-0.5,0.1-0.8c0.5-2.7,2-4.7,4.1-6.3c2-1.6,4.4-2.2,7-2.6
		c0-0.3,0-0.6,0-0.8c0-10,0-20,0-30.1c0-0.8-0.2-1.7-0.2-2.5c0-1.4,0.1-2.8,0.2-4.2c0.1-5.8,0.1-11.6,0.1-17.4c0-1.2,0-2.4,0-3.6
		c0-1.8,0-3.6,0-5.4c0-13.4,0-26.7,0-40.1c0-0.2,0.1-0.4,0-0.6c-0.1-0.2-0.3-0.5-0.5-0.6c-1-0.3-2.1-0.6-3.1-0.9
		c-1.6-0.4-3-1.2-4.2-2.4c-0.7-0.7-1.5-1.4-2-2.3c-0.7-1.3-1.1-2.7-1.6-4.2c0,0-0.2,0-0.4,0c-17.9,0-35.7,0.1-53.6,0.1
		c-24.7,0-49.4,0-74.2,0c-9.3,0-18.6,0-27.9,0c-1.5,0-3.1-0.1-4.6-0.1c-2.5,0-5,0-7.5,0c-6.3,0-12.6,0-18.8,0c-1.2,0-1.2,0-1.5,1.1
		c-0.5,2-1.5,3.8-3.1,5.2c-1.4,1.3-3.1,2.2-4.9,2.8c-1.1,0.4-2.3,0.5-3.4,0.7c0,35.1,0,70.1,0,105.2c5.8,0.5,11,3.9,11.7,10
		c29.1,0,58.1,0,87.2,0c0-0.4,0-0.9,0-1.4c-0.1-0.7-0.2-1.4-0.3-2.1c-0.3-1.8-0.8-3.5-2-5c-0.7-0.8-0.7-1.1,0-1.9
		c0.3-0.4,0.7-0.8,0.8-1.3c0.7-1.7,1.2-3.5,2-5.1c0.8-1.7,2.1-3.1,3.7-4.3c1-0.7,1.9-1.5,1.6-2.9c-0.1-0.4-0.1-0.9-0.2-1.3
		c-0.1-0.7,0.2-1.4,0.7-1.6c1.7-0.5,3.5-1,5.3-1.4c1.7-0.4,3.5-0.8,5.2-1.2c1.5-0.3,3-0.7,4.6-1.1c0.7-0.2,1.4-0.4,2-0.9
		c0.6-0.6,1-0.7,1.8-0.3c0.3,0.2,0.8,0.4,1.1,0.3c0.5-0.2,1.1-0.5,1.4-0.9c0.7-0.9,1.6-1,2.5-1.3c1.1-0.3,2.1-0.5,3.2-0.8
		c0.4-0.1,0.9-0.4,1.2-0.3c0.9,0.4,1.5,0.3,2.3-0.3c0.9-0.7,1.8-1.4,2.9-1.8c1.4-0.6,2.6-1.7,2.9-3.4c0.2-1.1,0.3-2.1,0.4-3.2
		c0-0.2-0.2-0.5-0.4-0.6c-0.5-0.3-1.1-0.6-1.6-0.8c-1.9-0.8-3.7-1.5-5.6-2.3c-0.9-0.4-1.8-0.8-2.8-1.3c1.5-0.2,2.8-0.4,4-0.6
		c0-0.1,0.1-0.1,0.1-0.2c-0.1-0.1-0.2-0.1-0.4-0.2c-1.2-0.7-2.3-1.3-3.4-2.1c-2.6-1.9-4.6-4.3-6.6-6.8c-1.2-1.5-2.4-3.1-3.6-4.6
		c-0.3-0.4-0.7-0.9-1-1.4c0,0,0.1-0.1,0.1-0.1c2.5,0.7,5,1.4,7.4,2.1c0.1-0.1,0.1-0.1,0.2-0.2c-2.1-7.2-4.1-14.4-6.2-21.6
		c0-0.1,0.1-0.1,0.1-0.2c2.3,1.3,4.6,2.8,6.9,4.3c0.1-0.3,0.1-0.6,0.1-1c0-0.4-0.1-0.7-0.1-1.1c0.1-4.6-0.3-9.2,0.3-13.8
		c0.2-1.9,0.4-3.8,0.6-5.7c0.1,0,0.2-0.1,0.3-0.1c1.4,2.9,2.9,5.9,4.4,9c0.3-0.5,0.6-0.9,0.7-1.3c0.4-1.1,0.8-2.2,1.2-3.4
		c1-2.9,2-5.8,3.1-8.6c0.7-1.9,1.7-3.6,3-5.1c0.9-1.1,2-2,3-2.9c0.8-0.7,1.6-1.2,2.4-1.8c1.1-0.8,2.3-1.7,3.4-2.5
		c0.1,0,0.1,0.1,0.2,0.1c-0.5,3.8-0.9,7.6-1.4,11.4c-0.1,0-0.1,0-0.2,0c0.1-1,0.1-2,0.1-3c0-0.3,0.1-0.7,0.1-1
		c0-0.8,0.3-1.6-0.1-2.2c-0.4-0.7-0.1-1.1,0-1.6c0.2-0.7,0.4-1.4,0.6-2.1c-0.2,0-0.3,0.1-0.4,0.2c-1.6,1.8-2.9,3.8-4.1,6
		c-1.5,2.7-2.5,5.6-3.3,8.5c-0.5,1.9-0.9,3.8-1.3,5.7c-0.3,1.8-0.6,3.5-0.8,5.3c-0.1,1-0.2,2-0.3,3.1c0,0,0.1,0,0.1,0
		c0.1-0.3,0.2-0.6,0.4-1c-0.1,0.9-0.1,1.7-0.2,2.5c0.1,0,0.2,0.1,0.3,0.1c0.2-0.2,0.4-0.4,0.4-0.6c0.3-1.1,0.5-2.2,0.7-3.4
		c0.7-2.8,1.3-5.7,2-8.5c0.5-2.2,1-4.5,1.5-6.7c0.1-0.5,0.3-0.9,0.4-1.3c0,0,0.1,0,0.1,0c-0.3,4-0.5,7.9-0.8,11.9
		c0.5,0.1,0.8,0.1,1-0.4c0.3-0.6,0.7-1.2,1.1-1.7c1-1.5,1.7-3.2,1.8-5c0.1-1.2,0.3-2.3,0.4-3.5c0.6,0.4,0.8,0.4,1.1-0.3
		c0.2-0.4,0.4-0.8,0.6-1.2c0.5-1,1.1-1.9,1.5-2.9c0.6-1.4,1.2-2.9,1.7-4.4c0.4-1.4,0.7-2.9,1.1-4.4c0.2-0.9,0.4-1.7,0.7-2.7
		c0.8,0.8,1.4,1.5,2.1,2.1c0.9,0.8,1.9,1.5,2.8,2.3c0.4,0.4,0.8,0.9,1.2,1.3c-0.3-0.2-0.6-0.4-0.9-0.6c-0.5-0.3-0.9-0.7-1.4-1
		c-0.2-0.1-0.5-0.1-0.6-0.2c-0.7-0.6-1.4-1.3-2.2-2c0.3,1.8,0.4,3.5,0.7,5c0.4,1.9,0.3,3.7-0.1,5.5c-0.6,3-1.5,6-2.3,9.1
		c-0.2,0.7-0.4,1.4-0.4,2.1c-0.1,1.3,0.5,2.5,1,3.8c0.1,0.2,0.3,0.4,0.5,0.6c0.2-0.2,0.4-0.4,0.4-0.6c0.2-1,0.4-2,0.6-3
		c0.4-2.2,0.8-4.3,1.2-6.4c0.3-1.4,0.5-2.7,0.8-4.1c0.1-0.6,0.3-1.2,0.5-2c0.2,0.8,0.4,1.5,0.4,2.1c0.1,3.2,0.1,6.5,0.2,9.7
		c0,3,0.1,6,0.1,9c0,0.7,0.4,1.1,0.9,1.4c0.3,0.2,0.6,0.2,0.9,0.4c0.6,0.3,0.7,0.2,0.7-0.4c-0.1-1.3-0.2-2.6-0.3-4
		c-0.1-1.5-0.2-3-0.3-4.5c-0.1-2.3-0.2-4.6-0.3-6.9c0-0.7-0.1-1.4-0.1-2.1c-0.1-0.8-0.1-1.6-0.2-2.3c0.3,0.6,0.4,1.1,0.5,1.7
		c0.4,2,0.7,4.1,1.1,6.2c0.2,1.3,0.5,2.6,0.7,3.9c0.3,1.9,0.7,3.9,1,5.9c0,0.2,0.3,0.5,0.4,0.5c0.2,0,0.4-0.2,0.5-0.4
		c0.6-1,1.3-1.9,1.8-2.9c0.4-0.7,1-1.2,0.7-2.2c-0.7-2.3-1.3-4.7-1.9-7c-0.1-0.2,0-0.4,0-0.7c0.1,0,0.1,0,0.2,0
		c0.6,2.2,1.3,4.5,1.9,6.8c0.1-0.1,0.4-0.1,0.4-0.3c0.2-1.1,0.2-2.1-0.2-3.1c-0.2-0.5-0.3-1-0.4-1.5c0.7,0.8,0.6,1.9,1.4,2.8
		c0.1-0.7,0.3-1.2,0.3-1.8c0-0.8-0.1-1.6-0.3-2.4c-0.6-2-1.3-3.9-2-5.8c-0.4-1.1-1-2.3-1.7-3.2c-1.2-1.6-2.5-3.1-3.8-4.6
		c-0.1-0.1-0.2-0.3-0.3-0.5c0.2,0.1,0.3,0.1,0.5,0.3c0.7,0.7,1.3,1.3,1.9,2c2,2,3.6,4.4,4.4,7.2c0.2,0.5,0.4,1,0.6,1.5
		c0.1,0,0.2,0,0.2-0.1c0.7-1.7,1.4-3.3,2.2-5c0.7,1.2,1.3,2.3,1.7,3.5c0.2,0.4,0.2,0.9,0.3,1.4c-0.1-0.1-0.2-0.1-0.3-0.2
		c-0.5-0.9-0.9-1.8-1.4-2.7c-0.1-0.1-0.3-0.2-0.5-0.4c-0.3,2.2-0.6,4.3-0.8,6.4c0.1,0,0.2,0,0.3,0.1c0.4-0.8,0.4-1.9,1.1-2.6
		c1.2,3.3,2.4,6.5,3.5,9.7c0.1-2-0.7-3.8-0.9-5.8c0.6,1.9,1.3,3.9,1.9,5.8c0.1,0,0.2-0.1,0.2-0.1c0-0.4,0.1-0.8,0-1.2
		c-0.6-2.5-1.4-4.9-2.5-7.3c-0.2-0.3-0.2-0.7-0.3-1c0.1,0,0.2,0,0.2,0c0.5,1.1,1,2.3,1.4,3.4c0.3,0.8,0.6,1.6,0.9,2.4
		c0.4,0.9,0.8,1.7,1.2,2.7c1-1.6,1.9-3.2,2.8-4.7c0.2,0.3,0.3,0.5,0.3,0.7c0.2,2.5,0.3,5,0.4,7.5c0.1,2.2,0.2,4.5,0.3,6.7
		c0,1.4-0.2,2.8-0.3,4.2c-0.1,0.8-0.1,1.6-0.2,2.6c2.4-1.8,4.6-3.5,6.9-5.1c0.1,0,0.1,0.1,0.1,0.1c-0.3,1.3-0.7,2.5-1,3.8
		c-0.4,1.7-0.6,3.3-1,5c-0.4,1.6-0.8,3.2-1.3,4.7c-0.7,2.2-1.5,4.4-2.3,6.6c-0.1,0.1-0.1,0.3-0.2,0.5c2.5-0.6,4.8-1.1,7.1-1.6
		c-0.7,1.2-1.5,2.3-2.2,3.3c-1.6,2.3-3.1,4.7-5,6.9c-1.2,1.4-2.5,2.8-4,4c-0.7,0.6-1.6,1.2-2.5,1.8c1.4,0.5,2.8-0.2,4.1,0.7
		c-0.2,0.2-0.3,0.4-0.5,0.5c-1.8,0.5-3.7,1-5.6,1.6c-0.2,0.1-0.4,0.4-0.5,0.6c-0.1,0.3,0,0.7,0,1c-0.3-0.3-0.4-0.6-0.5-0.9
		c-0.1-0.4-0.2-0.5-0.6-0.3c-0.7,0.3-1.5,0.4-2.2,0.7c-0.4,0.2-1.3,0-1.2,0.9c0.2,1.6,0.5,3.1,0.9,4.7c0.1,0.3,0.4,0.7,0.7,0.9
		c0.8,0.7,1.7,1.3,2.5,2c-1.2,0-1.9-1.1-3-1.2c-0.2,0.8-0.3,1.7,0.4,2.3c0.4,0.4,1.1,0.6,1.6,0.9c0.6,0.4,1.2,0.8,1.8,1.2
		c0,0.1-0.1,0.1-0.1,0.2c-0.2,0-0.4,0-0.6-0.1c-0.7-0.4-1.3-0.8-2-1.2c-0.1-0.1-0.3-0.1-0.3-0.1c-0.1,0.1-0.1,0.3-0.1,0.4
		c0.1,0.2,0.3,0.3,0.4,0.4c0.4,0.4,0.8,0.8,1.3,1.3c-0.3,0-0.4,0.1-0.4,0.1c-1.8-0.8-2.7-2.2-2.7-4.1c0-0.6,0.1-1.3,0-1.9
		c-0.2-1.8-0.5-3.6-0.8-5.5c0-0.2-0.3-0.4-0.5-0.5c-0.1,0-0.4,0.1-0.4,0.3c-0.7,1.6-1.4,3.1-2.1,4.7c-0.4,1-0.8,1.9-1.6,2.6
		c-1.6,1.5-3.2,2.9-4.8,4.3c-0.2,0.2-0.5,0.3-0.8,0.2c-0.8-0.2-1.6-0.2-2.4,0.2c-1.1,0.5-2.2,1.8-1.8,3.2c0.1,0.2,0,0.5,0.1,0.9
		c-0.7-0.6-1.3-1.1-1.9-1.5c-0.6-0.5-1.2-0.9-1.7-1.4c-0.2,0.2-0.3,0.3-0.4,0.5c0.2,0.5,0.4,0.9,0.6,1.3c0.7,1.4,1.3,2.9,2.8,3.7
		c0.7,0.3,1.3,0.8,2,0.9c0.8,0.1,1.6,0.3,2.4,0.1c0.7-0.2,1.5-0.4,2.1-0.9c0.1-0.1,0.3-0.2,0.6-0.4c-0.1,0.7-0.2,1.3-0.3,2
		c0.7-0.2,1.2-0.3,1.8-0.4c0.6-0.1,1.2-0.2,1.8-0.3c0.5-5.8,0.7-6.7,1.8-7.4c-0.7,2.1-0.3,3.9,0.7,5.8c1.1-1.3,2.2-2.5,3.3-3.8
		c2.6,1.9,5.2,3.7,7.8,5.6c0.2-0.7,0.5-1.4,0.7-2.2c0.4-1.5,0.8-2.9,1.1-4.4c0.2-1-0.5-1.6-1.2-2.2c-0.7-0.5-1.4-1-2-1.5
		c0-0.1,0.1-0.1,0.1-0.2c0.2,0,0.4,0.1,0.7,0.1c0.6,0.1,1.4,0.4,1.9,0.2c0.9-0.3,1.5,0.1,2.2,0.3c0.3,0.1,0.6,0.2,0.9,0.3
		c0.6,0,1.1,0,1.7,0c0.4,0,0.8,0.1,1.1,0.3c0.5,0.2,1,0.4,1.5,0.7C200.7,104.2,200.8,104.5,200.9,104.7
		C200.9,104.7,200.9,104.7,200.9,104.7z M169.3,117c0.2,0.1,0.3,0.2,0.4,0.3c0.6,0.9,1.4,1.5,2.4,1.9c0.7,0.3,1.5,0.4,2.3,0.8
		c0.9,0.4,1.8,0.8,2.7,1.2c0.7,0.3,1.3,0.7,2.2,0.2c0.6-0.3,1.3-0.4,1.9-0.6c0.9-0.3,1.8-0.6,2.6-0.9s1.7-0.7,2.6-1
		c1.2-0.4,2.3-0.9,3.2-1.7c0.2-0.2,0.4-0.5,0.6-0.7c-2-0.3-3.9-0.5-5.8-0.7c0-0.1,0-0.1,0-0.2c0.6,0,1.3,0,1.9,0
		c0.9,0.1,1.8,0.1,2.7,0.4c0.9,0.3,1.9-0.1,2.1-1c0.1-0.3,0.1-0.6-0.3-0.8c-1-0.4-2-0.8-3.2-0.9c-1.4-0.1-2.8-0.3-4.2-0.3
		c-1.8,0-3.5,0.2-5.3,0.4c-1.2,0.2-2.4,0.5-3.6,0.8c-1.4,0.3-2.7,1-4.2,0.9c-0.8-0.1-1.6-0.3-2.4-0.5c-0.9-0.2-1.7-0.4-2.6-0.7
		c-0.8-0.2-1.5-0.4-2.3-0.6c-0.5-0.1-1-0.3-1.5-0.3c-1.1-0.2-2.2-0.4-3.4-0.5c-2.1-0.1-4.3,0-6.4,0.5c-1.3,0.4-2.7,0.7-4,1.1
		c-0.2,0-0.4,0.3-0.3,0.4c0,0.7,0.7,1.3,1.4,1.3c1.4,0,2.8,0,4.2,0c0.4,0,0.7,0,1.1,0c0,0.1,0,0.1,0,0.2c-0.5,0.1-1,0.3-1.5,0.4
		c-0.6,0.2-1.1,0.3-1.6,0.5c-0.4,0.2-0.5,0.5,0,0.7c0.5,0.2,1,0.4,1.5,0.5c1.3,0.2,2.5,0.4,3.8,0.6c0.9,0.2,1.7,0.4,2.6,0.6
		c1.3,0.3,2.3,1,3.4,1.8c0.8,0.6,1.6,1.3,2.5,1.5c1.3,0.3,2.7,0.2,4.1,0.3c0.6,0.1,0.7-0.2,0.7-0.7
		C169.3,120.4,169.3,118.8,169.3,117z M159.4,129.3c0,0.1,0,0.1,0,0.2c0.6,0.3,1.1,0.8,1.7,1c0.7,0.3,1.4,0.6,2.1,0.6
		c1.2,0,2.4-0.3,3.6-0.5c0.5-0.1,1-0.2,1.5-0.3c1-0.3,2-0.6,3-0.8c1.1-0.2,2.2-0.4,3.3-0.6c0.5-0.1,0.9-0.2,1.4-0.3
		c0.9-0.3,1.8-0.5,2.7-0.8c0.6-0.2,1.4-0.3,1.9-0.7c1.2-0.8,2.3-1.7,3.4-2.7c2.2-2.1,4.4-4.3,6.5-6.5c0.4-0.4,0.8-0.7,1.3-1.2
		c0,0.3,0.1,0.5,0,0.6c-0.3,1-0.5,2-0.8,3c-0.5,1.6-1.2,3.1-2.8,3.9c-1.2,0.6-2.3,1.2-3.5,1.7c-1.6,0.7-3.3,1.3-4.9,1.9
		c-1.2,0.4-2.4,0.8-3.6,1.2c-1.4,0.5-2.9,0.9-4.4,1.4c-0.8,0.2-1.6,0.4-2.5,0.6c-1,0.3-1.9,0.5-2.9,0.8c-0.9,0.2-1.8,0.4-2.7,0.6
		c-1,0.2-2,0.5-2.9,0.8c-0.2,0.1-0.5,0.1-0.7,0.1c0.9,0.3,1.8,0.7,2.7,0.7c1.1,0,2.2-0.4,3.3-0.7c0.8-0.2,1.6-0.5,2.4-0.7
		c0.8-0.2,1.6-0.5,2.4-0.7c1.1-0.3,2.2-0.7,3.3-1c0.8-0.2,1.6-0.5,2.4-0.7c0.7-0.2,1.4-0.5,2.1-0.7c0.9-0.2,1.8-0.3,2.7-0.6
		c1.7-0.5,3.5-1.1,5.2-1.7c1.6-0.6,2.8-1.6,3.8-2.9c0.9-1.2,1.4-2.7,1.8-4.1c0.6-1.7,1.1-3.4,1.6-5.2c0.4-1.5,0.9-3,1.3-4.5
		c0.4-1.5,0.9-2.9,1.2-4.4c0.3-1.2-0.8-3.1-2.5-3c0,0.1-0.1,0.3,0,0.4c0.7,1,0.5,2.2,0.3,3.2c-0.5,2.2-0.9,4.5-2,6.6
		c-0.9,1.8-1.9,3.5-3.2,5c-0.3,0.3-0.8,0.6-1.2,0.7c-1,0.4-2.1,0.6-3.1,0.9c-1.4,0.5-2.7,1.2-4.1,1.6c-1.3,0.4-2.7,0.7-4.1,0.9
		c-1.4,0.2-2.9,0.4-4.3,0.6c-0.2,0-0.4,0.1-0.6,0.1c-1,0.1-2,0.2-3,0.2c-1.1,0-2.2-0.2-3.3-0.3c-1.2-0.1-2.3-0.1-3.5-0.3
		c-2-0.4-3.9-0.9-5.9-1.3c-0.5-0.1-0.9-0.1-1.4-0.2c0,0.1-0.1,0.2-0.1,0.3c0.7,0.5,1.5,0.9,2.2,1.4c1.3,1,2.9,1,4.4,1.3
		c2,0.3,4,0.3,6.1,0.3c2.9,0,5.9,0.1,8.8-0.5c1.3-0.2,2.5-0.4,3.7-0.9c1.5-0.5,3-1.1,4.4-1.6c0.5-0.2,1-0.2,1.5-0.4
		c-1.3,0.8-2.7,1.5-4.1,2.1c-1.6,0.8-3.2,1.5-4.7,2.3c-1.2,0.6-2.4,1.2-3.6,1.8c-1.4,0.6-2.8,1-4.3,1.2c-1.7,0.1-3.3,0.4-5,0.5
		C162.2,129.1,160.8,129.2,159.4,129.3z M162.6,57C162.6,57,162.6,57,162.6,57c0.8,1.3,1.5,2.5,2.2,3.8c0.6,1.1,1.1,2.2,1.7,3.3
		c0.3,0.5,0.7,0.8,1.1,1.2c0.1,0.1,0.4,0.1,0.5,0c0.1-0.1,0.1-0.4,0-0.5c-0.2-0.5-0.4-1-0.6-1.5c-0.6-1.8-1.1-3.6-1.7-5.4
		c-0.2-0.6-0.3-1.2-0.4-1.8c0.1,0,0.1,0,0.2,0c0.8,2.8,1.6,5.7,3,8.3c0.1,0,0.1,0,0.2-0.1c-0.3-0.9-0.6-1.7-0.8-2.6
		c0.1,0,0.1,0,0.2-0.1c0.2,0.5,0.3,0.9,0.5,1.4c0.2,0.5,0.6,0.8,1.1,0.8c0.4,0,0.9-0.1,1.3-0.2c-1-2.5-1.9-4.7-2.8-7
		c0.1,0,0.1-0.1,0.2-0.1c0.7,1.1,1.3,2.1,2,3.2c0.1,0,0.1-0.1,0.2-0.1c-0.6-1.8-1.3-3.7-1.9-5.5c-0.7-2.1-1.5-4.2-2-6.4
		c-0.6-2.6-0.8-5.3-1.2-8c-0.2-1.5-0.3-2.9-0.4-4.4c0-0.2-0.1-0.5-0.1-0.7c-2.2,6.4-2.9,12.9-1.6,19.6c-0.9-2.2-1.3-4.6-2.1-6.8
		c-0.2,0.5-0.3,0.9-0.3,1.4c0.1,2.1,0.2,4.2,0.3,6.3c0.1,0.9,0.2,1.8,0.4,2.7c0.2,1.2,0.5,2.4,0.8,3.6c0.1,0.6,0.4,1.1,0.6,1.6
		c0.1,0,0.2-0.1,0.3-0.1C163.2,61,162.9,59,162.6,57z M168.2,89.8c0,0.6,0,1.1,0,1.6c0,0.2,0.3,0.4,0.5,0.4c0.3,0.1,0.6-0.1,1-0.1
		c0.5,0,0.7-0.2,0.6-0.7c0-0.4-0.1-0.9-0.1-1.3c0.1,0,0.2-0.1,0.2-0.1c0.1,0.3,0.3,0.6,0.4,0.9c0,0,0.1,0,0.1,0
		c0.6-0.2,1.9-1.5,2-2.2c0.2-0.8,0.4-1.6,0.6-2.3c0.2-0.4,0.5-0.8,0.7-1.2c0.1-0.2,0.1-0.4,0.1-0.6c-0.2,0.1-0.4,0.1-0.6,0.3
		c-0.6,0.5-1.2,1-1.9,1.6c0.1-0.8,0.7-1.6,1.4-1.8c1.4-0.6,2.3-1.4,2.3-3.1c0-0.5,0-1,0-1.6c-0.1-1.5-0.8-2.7-2.1-3.4
		c-1.8-1-3.6-0.4-5.3,0.6c-1.7,0.9-2.8,2.4-3.8,4c-0.1,0.2,0,0.5,0.1,0.6c0.5,0.3,1,0.6,1.5,0.8c0.6,0.3,1.2,0.6,1.9,0.9
		c0.9,0.4,1.1,1.2,0.4,2.5c-1.4-1.1-2.9-2.2-4.3-3.3c-0.1,0.1-0.2,0.2-0.2,0.3c1.3,1.3,2.5,2.5,3.8,3.8c-0.1,0.1-0.1,0.1-0.2,0.2
		c-1.2-1.1-2.5-2.2-3.7-3.4c-0.1,0.1-0.2,0.1-0.2,0.2c-0.1,3.2,1.4,5.4,4.2,7C167.7,90.3,167.9,90.1,168.2,89.8z M186.7,35
		c-0.1,0-0.1,0-0.2,0c0,0.7-0.1,1.3-0.1,2c0.1,1.7,0.3,3.3,0.3,5c0,1.5,0,3-0.3,4.5c-0.3,1.6-0.7,3.2-1.3,4.7
		c-0.5,1.4-1.4,2.7-2.1,4c-1.5,2.9-3,5.9-4.5,8.8c0.6,0.5,1.7,0.7,2,0.4c0.3-0.4,0.6-0.8,0.9-1.3c0.6-1,1.2-2.1,1.8-3.1
		c0.3-0.6,0.6-1.2,0.9-1.7c0.4-0.7,0.8-1.4,1.2-2.1c-0.1,0.8-0.3,1.5-0.5,2.2c-0.2,0.8-0.5,1.6-0.7,2.4c-0.1,0.2,0,0.5,0,0.7
		c0.2-0.1,0.3-0.3,0.5-0.4c0,0,0.1,0,0.1,0c-0.8,2.4-1.5,4.9-2.4,7.2c-0.2,0.7-0.2,1,0.5,1.2c0.4-0.6,1-1.1,1.3-1.7
		c0.5-1.1,1-2.3,1.3-3.5c0.6-1.9,1.1-3.9,1.7-5.8c0.4-1.3,0.7-2.5,1.1-3.8c0.5-2.2,1.1-4.5,1.5-6.7c0.3-1.3,0.1-2.6-0.3-3.8
		c-0.2-0.6-0.7-1.2-0.9-1.8c-0.4-1.6-0.8-3.2-1.2-4.8C187.1,36.8,186.9,35.9,186.7,35z M170.7,99.5c-0.2,0.2-0.3,0.3-0.5,0.5
		c-0.6,0.6-0.7,1.1-0.3,1.8c0.2,0.4,0.5,0.7,0.8,1c0.6,0.7,0.9,0.7,1.6,0.1c0.6-0.5,1.1-1,1.7-1.5c1.3-1.1,2.6-2.1,3.8-3.2
		c0.9-0.8,1.8-1.5,2.2-2.7c0.2-0.6,0.4-1.2,0.6-1.7c0.7-1.9,1.4-3.7,2.1-5.6c0.2-0.5,0.3-0.9,0.5-1.4c0.2-0.4,0.3-0.8,0.5-1.1
		c-0.1-0.1-0.1-0.1-0.2-0.1c-1,0.9-2,1.8-3.2,2.9c0.1-0.6,0.1-1.1,0.1-1.5c-0.3,0.3-0.5,0.7-0.7,1c-0.3,1.1-0.9,2-2.1,2.2
		c-1.2,0.3-2.5,0.5-3.7,0.8c-0.2,0-0.3,0.2-0.4,0.3c0.1,0.1,0.2,0.2,0.4,0.3c0.9,0,1.7,0,2.6,0c0.5,0,0.9,0,1.4,0c0,0.1,0,0.1,0,0.2
		c-1.4,0.4-2.8,0.8-4.2,1.3c-1,0.3-1.7,0-2.1-1c-0.1-0.2-0.2-0.5-0.2-0.8c-0.9,0.5-1.9,0.8-2.1,1.9c-0.1,0.8-0.1,1.7-0.1,2.5
		c0,0.4,0.2,0.9,0.3,1.3c0.3-0.1,0.6-0.1,0.8-0.1c-0.3,1-0.3,1,0.7,1.1c0.2,0,0.4,0,0.5,0.1c-0.3,0.2-0.7,0.3-1,0.4
		C170.1,98.6,170.1,98.7,170.7,99.5z M158,103.9c0.1,0,0.1,0,0.2,0c0.1,0.2,0.2,0.3,0.2,0.5c0.6,2.4,1.3,4.9,1.8,7.3
		c0.1,0.5,0.4,0.6,0.8,0.7c0.4,0,0.7,0.1,1.1,0.1c0.6,0.1,1.1,0.2,1.8,0.3c-0.3-0.7-0.5-1.3-0.7-1.9c-0.6-1.5-1.2-3.1-1.8-4.6
		c-0.9-2.3-1.7-4.7-3.6-6.5c-0.4-0.3-0.7-0.7-1.1-1.2c-0.5,1.2-0.8,2.1-1.2,3.1c-0.1,0-0.1,0-0.2,0c0.2-2.8,0.5-5.5,0.7-8.2
		c-0.1,0-0.2,0-0.3,0c-0.6,1.1-0.3,2.4-0.6,3.6c-0.3,1.2-0.3,2.5-0.5,3.8c-0.1,1.2-0.3,2.5-0.4,3.7c-0.6-0.2-0.9-1.1-1.5-0.3
		c-1,1.2-2,2.4-2.9,3.7c-0.3,0.4-0.5,1.2-0.3,1.6c0.3,0.7,0.9,1.3,1.8,1.2c0.8-0.1,1.6,0.1,2.4-0.2c0.9-0.3,2-0.4,3-0.6
		c0.4-0.1,1,0,1.2-0.3c0.2-0.3,0.1-0.9,0.1-1.3c0-0.8,0-1.7,0-2.5C158,105.1,158,104.5,158,103.9z M130.8,110c-0.2,0-0.2,0-0.3,0
		c-1.5,0.3-3.1,0.6-4.6,0.9c-1.4,0.3-2.2,1.2-2.5,2.5c-0.3,1.5-0.5,3-0.7,4.6c-0.2,1.6,0,3.1,1,4.5c1.2,1.6,2.4,3.2,3.7,4.7
		c0.1,0.2,0.5,0.3,0.8,0.2c0.2-0.1,0.3-0.4,0.3-0.6c0-2.3,0-4.6,0-6.8c0-0.9-0.1-1.9,0-2.8c0.4-2.3,0.9-4.5,2.2-6.5
		C130.7,110.4,130.7,110.2,130.8,110z M187.2,63.6c0.1,0.1,0.1,0.1,0.2,0.2c0.2-0.1,0.4-0.2,0.7-0.3c0.4-0.3,0.8-0.5,1.2-0.8
		c1.1-0.9,1.8-2.1,2-3.5c0.5-2.4,0.8-4.8,1.3-7.1c0.3-1.8,0.7-3.5,1-5.3c0-0.1,0.1-0.3,0.2-0.4c0.1,0.4,0.1,0.7,0.1,1
		c-0.2,2.6-0.4,5.2-0.6,7.9c0,0.2-0.1,0.4-0.1,0.6c-0.1,1.2-0.2,2.4-0.2,3.7c0.3-0.1,0.5,0,0.6-0.1c0.5-0.8,1.1-1.6,1.4-2.5
		c0.3-1,0.5-2.1,0.6-3.2c0.1-1,0-2,0-3c0-0.3-0.2-0.6-0.2-0.8c-0.1,0-0.1,0-0.1,0c-0.1,0.7-0.2,1.5-0.4,2.2
		c0.2-4.4,0.4-8.8-0.2-13.1c-0.1,0-0.1,0-0.2,0C192,47.2,189.6,55.4,187.2,63.6z M153.6,137.2c-0.3-0.4-0.4-0.6-0.6-0.8
		c-1-1-1.9-2-2.9-3c-1.5-1.6-2.7-3.5-3.6-5.5c-0.6-1.4-1-2.9-1.4-4.3c-0.3-1.1-0.5-2.1-0.7-3.2c-0.3-1.5-0.6-3-0.8-4.6
		c-0.2-1.7-0.4-3.4-0.6-5.1c-0.1-0.5-0.1-1.1-0.1-1.6c0-0.7,0.1-1.4,0.1-2.1c0.1-1.1,0.1-2.2,0.2-3.2c-0.1,0-0.1-0.1-0.2-0.1
		c-0.1,0.1-0.1,0.2-0.2,0.4c-0.4,0.7-0.4,1.4-0.3,2.3c0.2,2.6,0.2,5.3,0.3,7.9c0,1,0.1,2,0.1,3.1c0.1,2.6,0.2,5.2,0.3,7.9
		c0,0.9,0.1,1.7,0.3,2.5c0.4,2.1,1.2,4,2.5,5.7c0.8,1,1.5,2,2.2,3c0.3,0.4,0.6,0.9,1,0.9C150.6,137.2,152,137.2,153.6,137.2z
		 M160.9,75.4c0.2-0.2,0.5-0.3,0.6-0.6c0.6-0.8,1.1-1.7,1.7-2.5c1.2-1.3,2.5-2.3,4-3.2c0.5-0.3,1-0.5,1.5-0.7
		c-3,1.7-4.4,4.6-5.5,7.7c2-2.7,4.8-4,7.8-5.3c-0.6-0.4-1-0.2-1.5,0c-0.5,0.2-0.9,0.3-1.4,0.5c0-0.1-0.1-0.2-0.1-0.2
		c1.7-1.6,3.7-2.6,6.3-1.8c-0.6-0.9-1-1.5-2-1.4c-0.8,0.1-1.6,0.1-2.5,0.2c0,0,0,0,0-0.1c1-0.3,2-0.6,3.1-0.9
		c-0.4-0.3-0.8-0.5-1.1-0.7c-0.8-0.7-1.7-1.2-2.9-1c-0.3,0.1-0.7,0.2-1,0.3c-1.7,0.2-3.1,0.9-4.1,2.2c-0.7,0.8-1.3,1.6-1.8,2.5
		C161.4,71.9,160.6,73.4,160.9,75.4z M190.7,73.9c0.1,0.1,0.2,0.1,0.3,0.2c1-1,2-2,2.8-3.1c0.9-1.1,1.7-2.3,2.4-3.5
		c0.7-1.2,1.4-2.5,2-3.8c0.6-1.3,1.1-2.7,1.6-4.1c0.5-1.3,0.9-2.7,1.4-4c-0.1,0-0.2-0.1-0.3-0.1c-1.2,1.4-2.3,2.9-3.3,4.1
		c-0.4,0-0.6,0-0.8,0.1c-0.6,0.5-1.1,1-1.6,1.5c-1.8,1.7-3.6,3.4-5.4,5c-1.3,1.2-2.8,2.3-4.1,3.5c-0.1,0.1-0.2,0.3-0.2,0.4
		c0.1,0.1,0.3,0.3,0.4,0.3c0.7,0.1,1.4-0.3,1.9-0.7c1.8-1.6,3.5-3.2,5.2-4.9c0.4-0.4,0.9-0.8,1.3-1.2c-0.5,0.9-1.1,1.6-1.7,2.4
		c-0.4,0.6-0.9,1.1-1.3,1.7c-0.1,0.1,0,0.4,0.1,0.6c0,0,0.3,0,0.4-0.1c1.1-1.1,2.1-2.3,3.1-3.4c0.4-0.4,0.8-0.8,1.3-1.2
		c0.1,0,0.1,0.1,0.1,0.1C195.1,67.5,192.9,70.7,190.7,73.9z M140.1,117.3c-0.1,0.2-0.2,0.5-0.3,0.7c-0.9,1.8-1.1,3.7-1.1,5.6
		c0,1.1,0.1,2.3,0.3,3.4c0.3,2.3,0.6,4.6,0.8,6.9c0.1,1,0.2,2,0.4,2.9c0,0.1,0.2,0.4,0.3,0.4c0.9,0,1.9,0,2.9,0
		C141.4,130.6,140.6,124,140.1,117.3z M180.7,74.1c-0.1,0-0.1,0-0.2-0.1c0.2-1.9,0.3-3.8,0.5-5.7c-0.1,0-0.2,0-0.3-0.1
		c-0.4,0.5-0.3,1.2-0.4,2c-0.1-0.9-0.2-1.6-0.2-2.3c0-0.5-0.2-1-0.8-1.2c-0.5-0.2-0.8,0.1-1.2,0.4c-0.9,0.8-1.9,1.6-2.8,2.4
		c-0.2,0.2-0.3,0.5-0.4,0.7c0.3,0,0.7,0.1,1,0.1c0.1,0,0.1-0.2,0.2-0.2c0.4-0.2,0.8-0.1,0.9,0.4c0.2,0.8,0.3,1.7,0.4,2.5
		c0.1,0.7,0.2,1.4,0.3,2.1c0.1,0,0.2,0,0.3,0c0.4-1.6,0.8-3.3,1.1-4.9c0.1,0,0.1,0,0.2,0c0,0.2,0.1,0.5,0.1,0.7c0,2.2,0,4.5,0,6.7
		c0,0.3,0.1,0.5,0.1,0.9c1.9-1.9,3-7,1.7-9C181.2,71,181,72.5,180.7,74.1z M134.6,137.1c1.3,0,2.4,0,3.6,0c-0.3-1.8-0.4-3.4-0.8-5.1
		c-0.7-3.1-1.5-6.1-2.2-9.2c-0.1-0.2-0.3-0.4-0.4-0.7c-0.1,0.3-0.3,0.5-0.3,0.8c0,1.8,0.1,3.5,0.1,5.3
		C134.6,131.2,134.6,134.1,134.6,137.1z M190.3,128.1c-0.1-0.1-0.2-0.2-0.2-0.3c-5.2,3.1-10.4,6.2-15.6,9.3c1.1,0.1,2.2,0.4,3.2-0.3
		c0.5-0.3,1.1-0.4,1.7-0.6c0.8-0.2,1.7-0.3,2.4-0.7c1.3-0.7,2.7-1.3,3.8-2.3C187.3,131.5,188.7,129.7,190.3,128.1z M193.3,79.7
		c0,0,0,0.1,0.1,0.1c0.1-0.2,0.2-0.5,0.3-0.5c1.1-0.3,1.7-1.2,2.7-1.6c1.3-0.6,2.4-1.6,3.6-2.4c0.2-0.1,0.3-0.4,0.5-0.5
		c0.8-0.5,1.5-0.9,2.4-1.5c-0.9-0.5-6.8,1-7.2,1.7c1-0.2,2-0.3,2.9-0.5c-0.7,0.5-1.4,0.8-2.2,1.1c-2.3,1-4.3,2.3-5.9,4.3
		c-0.5,0.6-0.9,1.3-0.8,2.3C190.9,81.4,192.1,80.5,193.3,79.7z M182.3,92.1c0.5-0.2,1-0.2,1.3-0.5c1.1-0.9,2.1-1.9,3-3
		c0.5-0.6,0.8-1.4,1.3-2.2c0.9-1.6,1.2-3.3,1.1-5.1c0-0.7-0.4-0.9-0.8-1.2c-0.2,0.4-0.4,0.8-0.7,1.1c-0.7,0.6-1.4,1.1-1,2.2
		c-0.4,0-0.7-0.1-1.1-0.1c0.2,1.4,0.4,2.7,0.7,4c0.2,0.8,0.1,1-0.7,1.4c-0.8,0.4-1.6,0.7-2.3,1.1C182.6,90.1,182.2,91.5,182.3,92.1z
		 M185.5,82c0.1,0,0.2,0.1,0.3,0.1c0.5-0.8,1.3-1.6,1.5-2.5c0.3-1.1,0.4-2.3,0.2-3.5c-0.2-1.5-0.5-2.9-1.9-3.7c-0.7-0.4-1.4-1-2.4-1
		c0.1,0.2,0.1,0.3,0.2,0.4c-0.1,0-0.3,0-0.4,0c-0.1,0-0.2-0.1-0.3-0.1c-0.1,0-0.3,0-0.4,0.1c-0.1,0.1-0.1,0.3,0,0.4
		c0.2,0.3,0.4,0.6,0.7,0.9c0.8,1,1.9,1.8,2.2,3.2c0.2,0.7,0.4,1.4,0.4,2.2C185.7,79.6,185.5,80.8,185.5,82z M117.6,128.5
		c0-3.1,0-5.9,0-8.8c0-0.2-0.2-0.4-0.3-0.6c-0.2,0.2-0.4,0.3-0.5,0.5c-0.8,2.2-1.5,4.4-2.2,6.6c-0.2,0.7,0.3,1.9,0.7,2
		C116,128.3,116.8,128.4,117.6,128.5z M156.8,60.1c-0.3-0.6-0.5-1.2-0.8-1.7c-0.8-1.2-1.7-2.4-2.4-3.6c-1-1.6-1.9-3.2-2.9-4.8
		c-0.9-1.5-1.7-3-2.5-4.5c-0.7-1.2-1.4-2.4-2.1-3.6C145.8,44.4,153.5,57.9,156.8,60.1z M159.6,68.3c0-0.1,0-0.1-0.1-0.2
		c-0.2,0-0.4,0.1-0.6,0.1c-1.9,0.7-3.1,2.2-4.2,3.8c-0.7,1-0.9,2.1-1.1,3.3c0,0.1,0.1,0.3,0.2,0.5c0.1-0.1,0.3-0.1,0.4-0.2
		c0.1-0.1,0.2-0.2,0.3-0.3c1.9-1.9,3.7-3.8,5.6-5.6c0.5-0.5,0.9-1,1.4-1.5c-0.1-0.1-0.1-0.1-0.1-0.2c-0.4,0.1-0.8,0.2-1.2,0.3
		c-0.3,0.1-0.6,0.4-0.9,0.6c0,0-0.1-0.1-0.1-0.1C159.2,68.6,159.4,68.4,159.6,68.3z M160.6,91.6c0.1,0.4,0.1,0.6,0.2,0.8
		c0.4,0.5,0.9,1.1,1.4,1.6c0.6,0.7,1.3,1.3,2,2c0.4,0.5,0.8,0.5,1.3,0c0.6-0.7,1.2-1.4,1.8-1.9c0.4-0.4,0.8-0.7,0.6-1.2
		c-0.2-0.3-0.8-0.4-1.2-0.5c-0.6-0.1-1.2-0.1-1.8-0.1C163.5,92,162.1,91.8,160.6,91.6z M167.6,103.3c0.1-0.1,0.1-0.2,0.1-0.2
		c-1.9-1.6-3.9-3.1-5.6-4.9c-1.7-1.8-3-3.9-4.4-5.9c0.1,0.8,0.2,1.7,0.5,2.4c0.8,2.1,2.4,3.7,4.2,5c1.4,1.1,2.9,2.1,4.3,3.2
		C166.9,103.1,167.3,103.2,167.6,103.3z M116.8,133.5c0.1,1.1,0.1,2.1,0.2,3.2c0,0.2,0.3,0.4,0.4,0.4c1.3,0,2.6,0,3.9,0
		C120.2,134.3,119.4,133.1,116.8,133.5z M137.2,106.6C137.1,106.6,137.1,106.6,137.2,106.6c-0.1-0.3,0-0.6-0.1-0.8
		c-0.1-0.2-0.2-0.5-0.4-0.5c-0.2,0-0.5,0.2-0.5,0.4c-0.3,1.3-0.6,2.6-0.7,3.9c-0.1,1.9-0.1,3.9,0.5,5.8c0.1,0.2,0.2,0.4,0.2,0.6
		c0.1-0.2,0.2-0.4,0.2-0.7c0.1-0.7,0.1-1.5,0.2-2.2C136.8,110.9,137,108.8,137.2,106.6z M151.7,85.8c-0.1,0-0.1-0.1-0.2-0.1
		c0-1.5,0-2.9,0-4.4c-0.1,0-0.2,0-0.3,0c-0.1,0.9-0.3,1.8-0.4,2.7c-0.1,1.2,0.3,2.3,0.7,3.4c0.8,2.2,2.2,3.9,4.4,4.9
		c0.3,0.1,0.7,0.1,1.1,0.2c0-0.1,0.1-0.1,0.1-0.2c-0.1-0.1-0.1-0.2-0.2-0.2c-1.4-0.9-2.7-1.9-3.8-3.2c-0.7-0.8-0.9-1.5-0.4-2.5
		c0.2-0.4,0.4-0.9,0.6-1.3c-0.1,0-0.1-0.1-0.2-0.1C152.5,85.2,152.1,85.5,151.7,85.8z M176.6,85.5c0.1,0.1,0.2,0.2,0.2,0.2
		c0.6-0.4,1.1-1,1.7-1.3c0.8-0.3,1.5-0.9,2.2-1.5c1.2-0.9,1.2-2.7-0.1-3.7C179.3,81.4,177.9,83.4,176.6,85.5z M180.1,86
		c-1.5,0.6-3.1,1.2-3.9,2.8c-0.1,0.3-0.3,0.6-0.6,0.7c-0.9,0.3-1.7,0.6-2.6,0.9c-0.2,0.1-0.3,0.2-0.4,0.4c0,0.1,0.1,0.2,0.1,0.2
		c0.4-0.1,0.7-0.2,1.1-0.3c1-0.2,1.8-0.7,2.9-0.7c0.6,0,1.2-0.3,1.7-0.6C179.7,88.6,179.7,87.2,180.1,86z M114,128.8
		c0,0.1-0.1,0.1-0.1,0.2c1.5,0.9,2.9,1.8,4.4,2.7c0.1-0.1,0.1-0.1,0.2-0.2c-0.1-0.3-0.1-0.7-0.3-0.9
		C117.2,129.4,115.6,129.1,114,128.8z M161.8,87.8c-0.1,0.2-0.2,0.4-0.2,0.6c-0.2,1.1,0.1,1.7,0.9,1.9c0.9,0.2,1.8,0.4,2.7,0.6
		c0.2,0,0.4,0,0.6,0c0-0.1,0-0.2,0-0.2c-0.7-0.2-1.3-0.4-2-0.6C162.9,89.5,162.1,88.9,161.8,87.8z"/>
	<path d="M21.2,136.9c-2.4,0-4.9,0-7.3,0c-0.2,0-0.3,0-0.5,0c0-2.1,0-4.2,0-6.2c0-0.1,0.4-0.4,0.6-0.3c0.9,0.2,1.9,0.3,2.8,0.7
		c2.1,0.9,3.7,2.4,4.3,4.7C21.2,136,21.2,136.4,21.2,136.9z"/>
	<path d="M224.5,130.3c0,2.1,0,4.3,0,6.5c-2.6,0-5.2,0-7.8,0c0.1-2,0.9-3.6,2.5-4.8C220.8,130.9,222.4,130.1,224.5,130.3z"/>
	<path d="M13.5,12.4c2.5,0,5.1,0,7.7,0c0,1.5-0.6,2.7-1.5,3.7c-1.5,1.8-3.4,2.8-5.8,2.8c-0.2,0-0.5-0.2-0.5-0.3c0-2,0-4,0-6
		C13.4,12.6,13.5,12.5,13.5,12.4z"/>
	<path d="M224.4,12.4c0,2.2,0,4.3,0,6.4c-3.7,0.6-7.7-2.9-7.7-6.4C219.3,12.4,221.8,12.4,224.4,12.4z"/>
	<path d="M200.9,104.7c0.6,0.1,1.2,0.2,1.8,0.3c0.1,0,1.8-0.1,1.9-0.1c0.7-0.4,1.7-0.1,2,0.5c0.3,0.8,0.8,1.2,1.7,1.3
		c0.9,0.1,1.8,0.3,2.7,0.6c0.6,0.2,1.3,0.4,2.1,0.7c-0.3,0.2-0.5,0.4-0.7,0.4c-0.5-0.1-1-0.3-1.5-0.4c-1-0.2-1.9-0.4-2.9-0.6
		c0,0-0.1,0.1-0.2,0.1c0.4,0.5,0.8,1,1.2,1.4c0.7,0.7,0.6,1.5,0.2,2.3c-0.4,0.9-0.9,1.8-1.4,2.7c-0.1,0.2-0.3,0.2-0.5,0.5
		c-0.2-1.9-0.4-3.7-0.5-5.5c-0.1,0-0.1,0-0.2,0c-1.4,6.3-4.1,12.1-7.5,17.7c0-0.5-0.1-0.8,0-1c0.5-2,1-4.1,1.5-6.1
		c0.5-1.7,1-3.4,1.5-5.1c0.4-1.7,0.7-3.4,1.2-5c0.3-0.7,0.3-1.4,0.4-2.2c0.1-0.6-0.3-0.9-0.7-1.2c-0.6-0.4-1.2-0.7-1.8-1.1
		C201,104.9,201,104.8,200.9,104.7C200.9,104.7,200.9,104.7,200.9,104.7z"/>
	<path d="M162.8,25.2c-0.7,3.4-1.4,6.8-2.1,10.2c-0.1,0-0.2,0-0.3-0.1c0.7-3.4,1.4-6.8,2.1-10.2C162.6,25.2,162.7,25.2,162.8,25.2z"
		/>
	<path d="M177.5,104.5c-0.5,1.4-1.1,2.8-1.6,4.1c-0.1,0-0.2-0.1-0.2-0.1c0.5-1.4,1.1-2.7,1.6-4.1
		C177.4,104.4,177.4,104.4,177.5,104.5z"/>
	<path d="M176.8,24.5c0.3,0.6,0.5,1.2,0.8,1.7c-0.1,0-0.1,0.1-0.2,0.1c-0.3-0.6-0.6-1.2-0.8-1.7C176.7,24.6,176.7,24.6,176.8,24.5z"
		/>
	<path d="M167.9,67.2c-0.7,0.3-1.5,0.7-2.2,1C166.4,67.7,167,67.1,167.9,67.2z"/>
</g>
</svg>
