<?xml version="1.0" encoding="utf-8"?>
<!-- Generator: Adobe Illustrator 24.0.2, SVG Export Plug-In . SVG Version: 6.00 Build 0)  -->
<svg version="1.1" id="Слой_1" xmlns="http://www.w3.org/2000/svg" xmlns:xlink="http://www.w3.org/1999/xlink" x="0px" y="0px"
	 viewBox="0 0 238.1 150.2" style="enable-background:new 0 0 238.1 150.2;" xml:space="preserve">
<g>
	<path d="M127.2,150.2c0.2-0.3,0.3-0.6,0.4-1c0.3-0.7,0.2-1-0.5-1.1c-1.3-0.3-1.4-0.5-1.6-1.9c-0.2-1.5-0.7-2.9-1.6-4.1
		c-0.9-1.4-1.9-2.8-3.2-3.9c-0.3-0.3-0.6-0.4-0.9,0.1c-1.5,1.9-3,3.8-4.6,5.6c-0.9,1-1.8,2-2.8,3c-0.5,0.5-1.1,0.5-1.6,0.1
		c-2.2-1.5-4.6-2.8-6.6-4.5c-1.6-1.4-3.3-2.9-3.9-5.2c-0.6-2.4-0.1-4.5,1.6-6.3c3.1-3.2,6.5-5.8,10.3-8.1c0.2-0.1,0.3-0.3,0.4-0.5
		c1.7-3,3.3-5.9,4.9-8.9c1.5-2.7,3.1-5.5,4.7-8.2c1.4-2.5,3-4.9,4.4-7.4c0.1-0.2,0.2-0.5,0.2-0.8c-0.3-1.9,0.3-3.3,2-3.8
		c0.2-0.1,0.5-0.5,0.5-0.7c-0.1-2.5-0.1-5.1-0.3-7.6c-0.1-1.2-0.3-2.4-0.4-3.7c-0.2-1.3-0.5-1.4-1.6-0.7c-1.1,0.7-2.3,1.3-3.4,2
		c-1.2,0.7-2.4,1.3-3.5,2c-2.1,1.2-4.2,2.5-6.3,3.7c-0.2,0.1-0.6,0.2-0.8,0.1c-0.8-0.7-1.8-0.4-2.8-0.5c-0.9-0.2-1.8-0.4-2.8-0.5
		c-1-0.2-2.1-0.3-3.1-0.4c-2.1-0.1-4.2-2.4-3.9-4.4c0.6-3.7,2.1-6.9,4.5-9.7c0.8-0.9,1.6-1.7,2.9-1.8c1-0.1,1.7-0.7,2.4-1.4
		c3.4-3.7,7.5-6.7,11.7-9.5c0.3-0.2,0.6-0.5,0.8-0.9c1-1.6,1.8-3.2,2.8-4.7c1.1-1.6,2.3-3,4-4c1.2-0.7,2.4-1.1,3.8-1.2
		c1.7-0.1,3.4,0.2,5,0.7c1,0.3,1.8,0.9,2.8,1.3c0.2,0.1,0.6,0.2,0.8,0.1c0.7-0.5,1.3-0.2,1.9,0.2c0.9,0.5,1.7,1.1,2.9,0.5
		c0.4-0.2,1,0.1,1.4,0.3c0.7,0.3,1.4,0.8,2.1,1.2c0.1,0.1,0.3,0,0.6,0c0.2-1.1,0.4-2.2,0.6-3.5c-1,0.9-1.8,0.2-2.6,0.1
		c-1-0.1-1.9-0.5-2.8-0.8c-0.5-0.2-1-0.4-1.5-0.6c-0.2-0.1-0.5-0.1-0.7-0.2c-0.2-0.1-0.5-0.2-0.7-0.3c-0.2-0.1-0.5-0.1-0.6-0.3
		c-0.6-0.9-1.7-1.2-2.6-1.7c-1.8-1-3-2.7-4.4-4c-0.5-0.5-0.8-1.3-1.3-1.9c-0.5-0.8-1.1-1.6-1.5-2.4c-0.4-1-0.7-2-0.9-3
		c-0.4-1.8-0.4-3.6-0.1-5.4c0.1-0.6,0.2-1.3-0.3-1.9c-0.3-0.3-0.3-0.6,0.1-1c0.5-0.7,0.9-1.5,1.2-2.3c0.6-1.3,1.2-2.6,1.9-3.8
		c0.4-0.6,0.7-1.1,0.1-1.8c-0.1-0.1-0.1-0.3-0.1-0.4c0.4,0.1,0.9,0.4,1.1,0.2c0.6-0.5,1.1-1.1,1.5-1.7c0.1-0.1-0.1-0.5-0.1-0.8
		c-0.2-0.8-0.5-1.6-0.7-2.4c0.1-0.1,0.2-0.1,0.3-0.2c0.4,0.3,0.7,0.5,1.1,0.8c0.3,0.3,0.6,0.6,0.9,0.8c0.2,0.1,0.6,0.1,0.8,0
		c0.5-0.3,1-0.7,1.4-1.1c0.1-0.2,0.1-0.6,0-0.9c-0.1-0.5-0.4-0.9-0.6-1.4c0.1-0.1,0.2-0.1,0.3-0.2c0.6,0.4,1.2,0.9,1.8,1.3
		c1.6-0.9,3.1-1.8,4.6-2.6c0.8-0.4,1.8-0.5,2.7-0.8c0.4-0.1,0.8-0.4,1.2-0.6c0.4-0.2,0.8-0.4,1.2-0.5c2.2-0.1,4.4-0.3,6.5-0.1
		c2,0.2,3.9,0.8,5.9,1.2c0.3,0.1,0.6,0.1,0.9,0.1c0.1,0,0.3-0.1,0.4,0c0.7,0.4,1.4,0.8,2.1,1.2c0.1,0.1,0.2,0.2,0.2,0.1
		c1.2-0.1,2,0.7,2.9,1.3c3.4,2.2,6.3,4.9,8.2,8.5c0.6,1,1.1,2,1.9,2.8c0.1,0.1,0.1,0.4,0.2,0.6c0.1,0.6,0.1,1.3,0.3,1.8
		c0.9,2.3,1.1,4.7,0.6,7.2c-0.4,2.3-1.1,4.4-2.4,6.3c-1.1,1.6-2.4,3-3.6,4.4c-1.6,1.8-3.6,3-5.5,4.4c-0.1,0.1-0.3,0.1-0.7,0.2
		c0.3,0.1,0.5,0.1,0.6,0.1c1.7-0.3,3.4-0.7,5.2-0.9c1.2-0.2,2.4-0.1,3.1,1.2c0.1,0.2,0.2,0.4,0.2,0.6c-0.1,1.7,0.1,3.4,0.8,5
		c0.4,0.9,0.1,2.3-0.7,3c-0.1,0.1-0.3,0.3-0.5,0.4c-0.8,0.4-1.5,1-1.7,2c-0.2,0.9-0.9,1.5-0.7,2.6c0.1,0.5,0.3,0.9,0.7,1.1
		c1.2,0.5,2.3,1.2,3.6,1.4c0.9,0.1,1.5,0.6,2,1.4c1.6,2.5,2.8,5.1,3.7,7.9c0.3,0.8,0.4,1.7,0.6,2.6c0.1,0.9,0.7,1.4,1.4,1.9
		c1.8,1.2,3.4,2.4,4.7,4.2c1.3,1.7,2.3,3.6,2.9,5.7c0.6,1.9,1.3,3.7,1.6,5.6c0.4,2.2,1.9,3.6,2.8,5.4c0.6,1.4,1.1,2.8,1.7,4.3
		c0.2,0.6,0.6,1.1,1,1.6c1,1.4,2.1,2.6,3.1,4c0.7,1,0.4,2.1,0.1,3.2c-0.1,0.5-0.5,0.9-0.6,1.5c-0.1,0.3,0,0.8,0.1,1.1
		c0.2,0.4,0.6,0.8,0.9,1.1c1.5,2,1.1,4,0.4,6.2c-0.6,2.2-2.1,3.7-3.3,5.5c-1.1,1.6-1.9,3.3-2.8,5c-1.4,2.7-2.4,5.5-3.2,8.4
		c-0.1,0.4-0.2,0.9-0.4,1.6c-0.9-1.2-1.9-1.6-3.2-1.4c0.8,1.5,2.1,2.5,3.3,3.6c1.8,1.6,3.6,3.1,5.5,4.6c0.2,0.2,0.3,0.4,0.5,0.6
		c-1.4,0-2.9,0-4.3,0c0-0.1,0-0.3-0.1-0.4c-1.7-1.8-3.3-3.6-5-5.3c-0.3-0.3-0.5-0.6-0.5-1.1c0-0.6,0-1.1,0-1.9
		c-1.7,0.5-3.3,0.9-4.9,1.8c1.1,0.3,2.1,0.5,2.9,0.8c0.9,0.3,1.7,0.6,2.5,1c0.3,0.1,0.4,0.7,0.4,1.1c0,0.5-0.5,0.4-0.9,0.4
		c-1,0-2,0-3.1,0c-1,0-1.9,0-2.9,0c0,0.1,0,0.1,0,0.2c0.9,0.2,1.9,0.5,2.9,0.7c0.6,0.1,1.3,0.3,2,0.4c0.3,0,0.8-0.2,1,0
		c0.9,0.8,1.8,1.6,2.7,2.4c-7.7,0-15.4,0-23,0c0.5-0.7,0.4-1.4,0.2-2.3c-0.7,0.2-1.3,0.4-1.9,0.4c-1.2,0.1-2,0.6-2.3,1.9
		c-0.3,0-0.6,0-0.9,0c0.1-0.3,0.2-0.6,0.2-0.9c0-0.4,0-1-0.3-1.2c-0.3-0.3-0.8-0.3-1.3-0.4c-1.5-0.1-3.1-0.1-4.6,0
		c-0.3,0-0.7,0.4-0.8,0.6c-0.1,0.2,0.1,0.6,0.3,0.9c0.1,0.3,0.3,0.6,0.4,0.9c-0.5,0-1,0-1.5,0c-0.2-0.5-0.5-0.9-0.5-1.4
		c0-1.1-0.7-1.1-1.4-1c-0.1,0-0.3,0-0.4,0c-1.4,0.1-2.8,0.2-4.2,0.2c-1.3,0.1-2.6,0-3.9,0.1c-2.3,0.2-4.5,0.4-6.8,0.6
		c-1.1,0.1-2.3,0.3-3.4,0.5c-0.3,0-0.7,0-1,0c0-0.1,0-0.1-0.1-0.2c0.2-0.1,0.4-0.3,0.6-0.3c2.2-0.5,4.3-1,6.5-1.5
		c0.7-0.1,1.4-0.2,2.1-0.3c1-0.1,2-0.3,3.1-0.4c1.6-0.2,3.2-0.4,4.9-0.7c1.5-0.2,2.9-0.3,4.4-0.5c-0.2-0.2-0.5-0.3-0.7-0.3
		c-1.2,0-2.4,0-3.6,0.1c-0.6,0-1.2,0.2-1.8,0.2c-2.1,0.1-4.2,0.3-6.4,0.4c-0.8,0.1-1.6,0.1-2.4,0.2c-1,0.1-2,0.3-2.9,0.2
		c-0.9-0.1-1.6,0.2-2.2,0.6c-0.6,0.4-1.1,0.9-1.7,1.4c0,0-0.1-0.1-0.1-0.1c0.1-0.3,0.2-0.7,0.3-1.2c-1.5,0.7-2.8,1.3-4.2,1.9
		c-0.2,0.1-0.5,0.1-0.7,0.1c-0.3-0.2-0.1-1.7,0.3-1.9c0.7-0.3,1.4-0.7,2.1-1c0-0.1-0.1-0.1-0.1-0.2c-1.1,0.2-2.1,0.5-3.2,0.7
		c0-0.1,0-0.1-0.1-0.2c1.1-1.4,2.9-1.7,4.3-2.8c-0.2,0-0.4-0.1-0.5,0c-0.7,0.2-1.4,0.4-2.1,0.6c-0.9,0.3-1.9,0.5-2.3,1.6
		c-0.1,0.4-0.4,0.7-0.9,0.3c-0.1-0.1-0.5,0.1-0.6,0.2c-0.6,1.4-1.2,2.8-1.8,4.2C128.9,150.2,128,150.2,127.2,150.2z M137.8,21.7
		c0.3,0.6,0.9,0.7,1.4,0.9c0.1-0.1,0.1-0.2,0.1-0.3C138.8,22.1,138.3,21.9,137.8,21.7c-0.4-0.4-0.8-0.8-1.2-1.2
		c-0.1-0.1-0.4-0.2-0.6-0.3c-0.1,0.2-0.1,0.4-0.2,0.7c-0.2,0.2-0.5,0.4-0.7,0.7c-0.8,1.8-1.6,3.6-2.4,5.5c-0.1,0.1,0,0.3,0,0.5
		c0,0.5,0.1,1,0,1.5c-0.2,1.3-0.5,2.5-0.3,3.8c0.3,1.9,0.9,3.6,1.8,5.4c1.5,2.9,3.5,5.3,6.1,7.1c0.3,0.2,0.8,0.3,1,0.2
		c0.5-0.2,0.9-0.5,1.3-0.9c0.3-0.3,0.6-0.7,0.1-1.1c-0.8-0.7-1.2-0.7-2.2-0.2c-0.2,0.1-0.4,0.3-0.7,0.4c-0.3,0.2-1.1,0-1.1-0.4
		c0.7-0.4,1.4-0.8,2.1-1.3c0.2-0.1,0.4-0.5,0.4-0.7c0-0.8-0.1-1.7-0.1-2.5c0-1.1,0.1-2.1,1-2.9c0.2-0.2,0.3-0.5,0.4-0.7
		c-0.1,0-0.1-0.1-0.2-0.1c-0.5,0.4-1,0.8-1.6,1.2c-0.1,0.1-0.2,0.3-0.2,0.3c0.4,0.4,0,0.6-0.2,0.8c-0.7,0.5-1.4,1.1-2.2,1.5
		c-0.7,0.4-1.5,0.5-2.2,0.7c-0.2-0.2-0.3-0.4-0.5-0.7c0.2-0.1,0.4-0.3,0.6-0.3c0.9-0.3,1.8-0.6,2.7-1c0.4-0.2,0.7-0.6,1-1
		c0.2-0.4,0.2-0.8,0.4-1.3c0.2-0.6,0.5-1.3,0.8-1.9c-0.1,0-0.1-0.1-0.2-0.1c-0.6,0.8-1.3,1.6-1.9,2.5c-0.1,0-0.2,0-0.2,0
		c0-0.3-0.1-0.7,0.1-1c0.3-0.6,0.7-1.1,1-1.7c0.6-1,1.1-2,1.6-3c-0.1-0.1-0.2-0.1-0.3-0.2c-0.9,0.9-1.7,1.9-2.6,2.8
		c-0.1-0.4-0.1-0.7,0-1c0.3-0.8,0.6-1.6,1-2.4c0.4-0.5,0.8-0.9,1.2-1.4c-0.1-0.1-0.1-0.1-0.1-0.2c-0.5,0.2-1.1,0.5-1.6,0.7
		c0,0,0.1,0.1,0.1,0.2c0.2,0,0.4,0.1,0.7,0.1c-0.1,0.2-0.1,0.4-0.2,0.6c-0.2,0.1-0.4,0.3-0.6,0.3c-0.2,0.1-0.6,0.2-0.6,0.2
		c-0.6-0.9-1-0.3-1.6,0c-0.5,0.3-1,0.5-1.5,0.8c-0.1-0.1-0.1-0.1-0.2-0.2c0.2-0.5,0.5-1.1,0.7-1.6c-0.6-0.1-1.1-0.2-1.5-0.4
		c-0.2-0.1-0.3-0.5-0.4-0.8c0.2,0,0.5,0,0.7,0c0.5,0.1,0.9,0.3,1.3,0.5c0.4,0.3,0.6,0,0.9-0.2c0.8-0.9,1.6-1.8,2.3-2.8
		c0.2-0.2,0.3-0.5,0.4-0.8c0.8,0.3,0.9-0.5,1.4-0.7c0.1,0,0.3-0.4,0.2-0.5c-0.1-0.1-0.3-0.2-0.4-0.2c-0.1,0.3-0.2,0.5-0.4,0.7
		c-0.2,0.3-0.5,0.5-0.8,0.7c-0.1,0-0.2,0-0.3,0c-0.7-0.4-1.5-0.8-2.2-1.1c-0.7-0.3-0.9-0.9-0.4-1.3c-0.1-0.4-0.2-0.7-0.3-1.1
		c0.2,0,0.4,0,0.6,0.1C136.9,21.2,137.4,21.4,137.8,21.7z M151.7,112.1c0-0.7-0.6-1.3-1.3-1.5C150.9,111.1,151.3,111.6,151.7,112.1
		c0.4,1.3,0.7,2.5,1.1,3.8c0,0.1,0.3,0.2,0.7,0.3c-0.4-1.1-0.8-2-1.1-2.9C152.2,112.8,151.9,112.5,151.7,112.1z M165.1,41.5
		c-0.2-0.3-0.4-0.6-0.6-0.9c-0.3,0.1-0.7,0.3-1.1,0.4c-0.1,0.3-0.1,0.7-0.2,1C164,42.5,164.5,42.3,165.1,41.5
		c0.7-0.2,1.2-0.9,1.2-1.7c-0.2,0.1-0.4,0.2-0.5,0.3C165.5,40.6,165.3,41.1,165.1,41.5z M197.8,135.3c0.7-1.4,1.4-2.8,2.1-4.2
		c0.4-0.8,0.8-1.7,1.3-2.6c0.2,0.2,0.4,0.3,0.4,0.5c0.3,0.6,0.6,0.5,0.9,0.1c0.3-0.4,0.5-1,0.8-1.3c0.9-1,1-2.3,1.4-3.5
		c0.5-1.2,0.6-2.6,0.8-3.8c0.3-1.8,0.5-3.5-1.1-4.9c-0.2-0.2-0.2-0.5-0.4-0.7c-2.3-3-3.3-6.6-4.6-10.1c-0.5-1.4-0.5-2.9-0.8-4.4
		c-0.1-0.9-0.3-1.7-0.5-2.6c-0.1,0.8-0.2,1.5-0.1,2.3c0.1,1.4,0.4,2.8,0.6,4.3c0.2,1.8,0.3,3.7,0.7,5.5c0.5,2.2,1.1,4.3,2,6.4
		c0.8,1.9,1.2,3.7,0.4,5.7c-0.5,1.2-1.1,2.4-1.6,3.7c-0.3,0.8-0.6,1.6-0.9,2.5c-0.2,0.7-0.2,1.5-0.5,2.1
		C198,131.9,197.8,133.6,197.8,135.3c-0.1,0-0.3,0-0.3,0.1c-0.9,1-1.9,2-2.8,3.1c-0.6,0.8-1.1,1.6-1.6,2.5c1.1,0.2,2-0.3,2.4-1.1
		c0.2-0.3,0.4-0.6,0.5-0.9C196.6,137.8,197.2,136.5,197.8,135.3z M173.1,138.6c0,0.2,0,0.4,0,0.5c0.8,2.3,1.2,4.6,1.2,7
		c0,0.5,0.1,1,0.1,1.6c1.1-1.6,1.3-3.2,1.1-4.9c-0.2-1.6-1.1-3-2.1-4.2C173.3,138.6,173.2,138.6,173.1,138.6c-0.5-0.9-0.1-1.8,0-2.7
		c0-0.3-0.1-0.7-0.3-1c-0.1-0.4-0.1-0.8,0.3-1.1c0.3-0.3,0.5-0.8,0.8-1.2c0.2-0.3,0.5-0.7,0.8-0.7c1,0.1,1.6-0.3,2.1-1
		c0.3-0.3,0.5-0.6,0.8-0.9c0.1-0.1,0.4-0.1,0.4-0.1c0.6-0.8,1.2-1.6,1.9-2.2c1.3-1.3,2.6-2.5,4-3.7c1-0.7,2-1.4,3.1-2.1
		c-0.3,0-0.4-0.1-0.5,0c-0.9,0.6-1.7,1.2-2.6,1.8c-0.1,0.1,0,0.3-0.1,0.4c-0.4,0.2-0.8,0.3-1.3,0.6c0.2-0.4,0.4-0.8,0.6-1.1
		c1-1.2,2-2.6,3.1-3.6c1.4-1.3,3-2.3,4.9-2.6c0.1,0,0.3-0.2,0.4-0.3c0,0-0.1-0.2-0.2-0.3c-0.2-0.2-0.5-0.4-0.8-0.6
		c1.6-1.2,3.5-1,5.2-1.7c0-0.1-0.1-0.2-0.1-0.3c-1.3,0.2-2.6,0.5-4.1,0.8c0.6-1.4,1.6-2.3,2.6-3.1c0.9-0.7,1.5-1.4,1.7-2.7
		c0.3-2.7,0.4-5.4,0.3-8.1c0-0.8-0.2-1.5-0.5-2.2c-1.4-3.2-3.3-6.1-5.5-8.8c-0.8-1-1.6-2-2.5-3c1.9,0.3,3.1,1.7,4.7,2.8
		c-0.1-0.5-0.1-0.8-0.2-1c-0.9-2.7-2.7-4.8-4.5-6.8c-2.4-2.6-4.4-5.4-5.9-8.5c-0.6-1.3-1.1-2.6-1.8-3.8c-1-1.8-2.1-3.6-3.2-5.4
		c-0.1-0.2-0.3-0.3-0.6-0.5c-0.2,0.7-0.6,1.4-0.6,2c-0.1,0.8-0.1,1.6-0.5,2.3c-0.1,0.1-0.1,0.3-0.1,0.5c-0.1,0.8-0.3,1.7-0.4,2.6
		c0.2,0,0.4,0,0.6,0c0.4,0.8,0.7,1.5,1.1,2.2c0.1,0,0.2-0.1,0.3-0.1c-0.1-2.4-0.3-4.8-0.4-7.3c0.1,0,0.2-0.1,0.3-0.1
		c0.2,0.6,0.5,1.2,0.7,1.7c0.7,1.9,0.6,3.9,0.4,5.9c-0.1,1.4-0.3,1.4,0.8,2.2c0.1,0.1,0.2,0.2,0.4,0.3c-0.7,0.2-1.4,0.4-2-0.2
		c-0.5-0.5-1.2-0.7-1.7-1.2c-0.7-0.6-1.3-1.4-0.7-2.4c0.1-0.1,0-0.3-0.1-0.6c-0.3,0.7-0.7,1.1-0.7,1.6c-0.1,1.1,0.8,2.2,1.9,2.5
		c1.3,0.3,2.2,1.3,3.1,2.1c0.9,0.9,1.9,1.6,3.1,2c0.3,0.1,0.7,0.4,0.9,0.7c0.8,1.4,1.5,2.9,2.4,4.2c0.6,0.8,1.4,1.5,2,2.3
		c1.4,2.1,2.8,4.2,4.1,6.3c0.5,0.8,1.1,1.7,1.5,2.6c0.8,1.7,1.5,3.5,2.3,5.2c0.3,0.7,0.3,1.2,0,1.9c-0.4,0.9-0.7,1.8-0.9,2.8
		c-0.3,1.7-0.5,3.5-0.8,5.2c-0.1,0.3-0.3,0.7-0.5,0.9c-1.2,1.2-2.4,2.4-3.6,3.6c-0.1,0.1-0.4,0.2-0.8,0.4c0.2-0.6,0.4-1,0.5-1.4
		c0.1-0.1,0.3-0.1,0.3-0.2c0.4-0.8,0.8-1.5,1.2-2.3c0.2-0.3,0.2-0.7,0.3-1.1c-0.1,0-0.1,0-0.2-0.1c-0.4,0.8-0.7,1.6-1.1,2.4
		c-0.2,0.4-0.4,0.8-0.6,1.3c-0.4,0.6-0.9,1.2-1.3,1.8c-1.9,2.4-4.1,4.5-6.3,6.7c-1.9,1.9-3.8,3.9-5.7,5.9c-0.6,0.7-1.2,1.3-2.3,1
		c-0.1,0-0.2,0.1-0.3,0.1c0.3,0.1,0.7,0.1,1,0.1c0.3,0,0.6,0.2,0.8,0.3c0,0.1,0,0.2,0,0.3c-0.6,0.1-1.3,0.3-2,0.4
		c-1.3,0.3-2.6,0.6-3.8,0.9c-0.2,0.1-0.5,0.2-0.7,0.4c0,0.1,0,0.2,0.1,0.2c1.4-0.3,2.9-1,4.4-0.1c-0.3,0.8-1.3,0.7-2,1.2
		c0.5,0.1,0.8,0.1,1.2,0.1c-0.2,0.6-0.4,1.1-0.6,1.7c-0.1,0.3-0.1,0.7,0.1,0.9C171.8,137.2,172.4,137.9,173.1,138.6z M164.5,50.3
		L164.5,50.3c1.2-1.6,1.4-3.6,0.4-5.2c-0.5-0.8-1.1-1.6-1.8-2.2c-0.5-0.4-1.3-0.6-2-0.8c-0.2-0.1-0.5,0-0.8,0
		c-0.1,0.1-0.3,0.4-0.6,0.6c-0.5,0.5-0.6,1,0,1.6c0.8,0.8,1.5,1.8,2.3,2.6c0.4,0.5,0.4,0.9,0.2,1.5c-0.3-0.4-0.5-0.7-0.9-1.1
		c-0.1,0.5-0.2,0.9-0.2,1.3c-0.1,2.1-1,3.8-2.8,5c-0.4,0.2-0.6,0.7-0.9,1c0,0,0.1,0,0.1,0c1.9-1.2,3.8-2.4,5.6-3.6
		c0.1,0.1,0.1,0.2,0.2,0.2c-0.2,0.3-0.4,0.6-0.7,0.8c-0.7,0.5-1.5,0.8-2.2,1.3c-0.6,0.4-1.1,0.9-1.7,1.3c-0.3,0.2-0.6,0.2-0.8,0.4
		c-0.9,0.7-1.6,1.6-2.5,2.2c-1.6,1.1-3.1,2.5-5.2,2.9c0.1,0.1,0.1,0.2,0.3,0.6c-0.8-0.6-1.3-0.2-1.7,0.2c-0.2,0.1-0.4,0.2-0.6,0.3
		c-1.3,0.5-2.6,1-3.9,1.5c-0.8,0.3-1.7,0.7-2.6,0.9c-1.7,0.5-3.4,0.8-5.1,1.3c-2.2,0.7-4.4,1.6-6.6,2.4c-1.5,0.6-2.9,1.2-4.4,1.8
		c-0.6,0.3-1.1,0.4-1.6,0c0.1-0.2,0.1-0.4,0.2-0.6c-0.2,0-0.3-0.1-0.4,0c-1.3,0.2-2.5,0.4-3.8,0.6c-0.6,0.1-1.1,0.2-1.6,0.3
		c-0.7,0.1-1.4,0.2-2.1,0.3c-0.2,0-0.3,0.1-0.5,0.1c-0.5,0.1-0.9,0.6-1.4,0.2c0,0-0.2,0.3-0.4,0.4c-0.7,0-1.5,0.2-2.3,0.3
		c-1.2,0.3-2.3,0.5-3.4,0.8c-0.6,0.2-1.2,0.3-1.6,0.7c-0.7,0.6-1.4,1.3-1.9,2.1c-0.9,1.3-1.7,2.8-2.4,4.2c-0.3,0.6-0.5,1.2-0.7,1.8
		c0.1,0.1,0.2,0.1,0.3,0.2c1.5-1.3,3-2.8,5.2-3.4c-0.3,0.3-0.4,0.5-0.6,0.7c0,0.1,0.1,0.1,0.1,0.2c0.7-0.3,1.4-0.6,2.1-0.9
		c0.1,0.1,0.1,0.1,0.1,0.2c-0.4,0.3-0.8,0.6-1.2,0.9c0.1,0.1,0.3,0.1,0.4,0.2c-0.9,0.8-1.8,1.6-2.6,2.4c1.4,1,2.3,1,3.4,0
		c1.3-1.1,2.5-2.3,3.7-3.4c0.3-0.3,0.8-0.6,1.2-0.7c1.3-0.5,2.6-0.9,3.9-1.3c1.6-0.6,3.2-1.2,4.8-1.7c1.4-0.5,2.8-1,4.2-1.4
		c1.9-0.6,3.7-1.3,5.6-1.9c1.4-0.5,2.8-1,4.2-1.5c1.4-0.5,2.8-1,4.1-1.6c1.7-0.7,3.4-1.3,5-2.1c0.6-0.3,1.1-0.9,1.7-1.3
		c0.7-0.5,1.5-0.9,2.2-1.3c0.3-0.2,0.6-0.3,0.9-0.4c0.1,0.1,0.1,0.1,0.1,0.2c-0.3,0.5-0.6,1-0.9,1.4c-0.3,0.5-0.7,0.9-0.6,1.7
		c0.7-0.2,1.3-0.2,1.9-0.4c2.2-0.9,4.4-1.8,6.7-2.7c2.6-1.1,5.1-2.2,7.7-3.3c0.3-0.1,0.8-0.3,1-0.2c0.6,0.3,1.1,0.4,1.6-0.1
		c0.3,0.4,0.5,0.8,0.8,1.1c1.5,2,2.9,4.1,4.9,5.6c0.2,0.2,0.5,0.2,0.8,0.2c0-0.3,0.1-0.8-0.1-1c-1.2-1.2-2.5-2.3-3.7-3.5
		c-0.8-0.8-1.4-1.6-2.1-2.4c-0.3-0.4-0.5-0.8-0.1-1.3c1,0.8,1.9,1.7,2.9,2.5c1.1,0.8,2.2,1.5,3.4,2.3c0.5,0.3,0.9,0.2,1.2-0.3
		c0.3-0.5,0.1-0.7-0.3-1c-2.1-1.5-3.9-3.3-5.3-5.5c-0.6-0.9-1.1-1.8-2.2-2.3c-0.2-0.1-0.3-0.5-0.6-0.9c0.4,0,0.7,0,0.9,0.1
		c0.7,0.5,1.4,1,2,1.6c1.4,1.4,2.8,2.9,4.2,4.3c0.3,0.3,0.9,0.5,1.3,0.6c0.3,0,0.9-0.3,1-0.6c0.1-0.2-0.1-0.8-0.4-1
		c-1.5-1.2-3.1-2.4-4.6-3.6c-1.3-1-2.2-2.4-3.1-3.8c-0.7-1.1-2.1-1.2-3-0.3C165.5,50.1,164.9,50.2,164.5,50.3z M168.1,26.3
		c-0.5,0.2-1,0.3-1.5,0.5c-0.7,0.4-0.8,1.1-0.1,1.5c0.8,0.5,1.1,1.2,1.4,2c0.1,0.3,0,0.6,0,0.9c-0.2-0.2-0.5-0.4-0.6-0.6
		c-0.3-0.7-0.7-1.3-1.3-1.7c-0.2,0.4-0.4,0.8-0.6,1.2c-0.1,0-0.1,0-0.2,0c-0.1-0.5-0.2-1-0.3-1.4c-2.2,0-3.2,1.6-4.2,3.2
		c-0.1-0.1-0.1-0.1-0.2-0.2c0-0.3-0.1-0.7-0.1-1c-0.4,0.3-0.7,0.5-1.1,0.7c0-1.1,0.3-1.9,1.3-2.4c0.7-0.3,1.4-0.8,2.2-1.1
		c0.6-0.3,1.1-0.6,1.6-0.9c0.2-0.1,0.5-0.4,0.5-0.6c0-0.9-0.1-1.8-0.3-2.7c-0.2-1-0.6-2.1-1-3.1c-0.1-0.1-0.3-0.2-0.5-0.3
		c-0.1,0.2-0.2,0.3-0.3,0.5c-0.3,1-0.4,2-0.7,2.9c-0.9,2.1-1.9,4.1-2.9,6.2c-0.1,0.3-0.4,0.5-0.6,0.7c-0.1-0.3-0.1-0.4-0.1-0.6
		c0.8-2.1,1.6-4.3,2.3-6.5c0.4-1.1,0.7-2.2,0.9-3.3c0.2-1.1-1-2.3-2.1-2.1c-0.5,0.1-1,0.4-1.4,0.8c-2.1,1.8-3.9,3.9-5.1,6.4
		c-0.5,1-1,2-1.4,3.1c-0.2,0.4-0.3,0.8,0.2,1c0.4,0.1,0.8,0.2,1.2,0.3c1.4,0.4,1.9,1,1.6,2.3c-0.4-0.3-0.7-0.5-1-0.7
		c-0.1,0.4-0.1,0.8-0.1,1.2c0-0.1,0.1-0.2,0.1-0.3c-0.6-0.5-1.3-1-1.9-1.5c-0.3-0.2-0.6-0.7-1-0.1c-0.1,0.1-0.4,0-0.6-0.1
		c-0.6-0.4-0.9-0.3-1.1,0.4c-0.1,0.3-0.2,0.6-0.3,1c-0.1,0-0.2,0-0.3,0c-0.1-0.4-0.2-0.8-0.3-1.4c-0.4,0.4-0.8,0.7-1.1,1.1
		c-0.3,0.5-0.3,1-0.5,1.7c-0.8-1.6-0.4-2.5,1.9-3.7c-0.2-0.2-0.4-0.5-0.6-0.6c-0.8-0.6-1.7-0.3-1.8,0.6c-0.1,1.3-0.2,2.5-0.3,3.8
		c0,0.3-0.1,0.7-0.2,1c-0.1,0-0.2,0-0.4,0c-0.2-2.1-0.3-4.1-0.5-6.2c-0.9,2-0.4,4.1-0.1,6.1c0.3,1.6,0.6,3.2,1.2,4.7
		c0.6,1.8,1.2,3.7,2.2,5.2c1.6,2.3,3.6,4.3,6.7,4.8c1.3,0.2,2.5,0.4,3.8,0.5c0.3,0,0.8-0.3,0.9-0.6c0.1-0.2-0.1-0.8-0.3-0.9
		c-0.7-0.3-1.4-0.5-2.1-0.7c-0.9-0.2-1.9-0.3-2.9-0.5c-0.4-0.1-0.8-0.4-0.6-0.9c1.8-0.2,3.7,0.3,5.5-0.4c0-0.7-0.6-0.8-1-0.8
		c-1,0-2,0.1-3,0.3c-0.4,0-0.8,0.2-1.2,0.3c-0.2-0.1-0.5-0.2-0.8-0.3c-0.6-0.1-1.3-0.2-1.9-0.4c-1.2-0.3-2.2-1-2.5-2.4
		c0.4,0,0.8,0,1.1,0c0-0.3,0-0.6,0.1-0.9c0.1,0,0.1-0.1,0.2-0.1c0.3,0.3,0.6,0.7,0.9,1.1c0.2,0,0.5,0,0.8-0.1c0.8,0,1.6-0.2,2.5-0.1
		c1.3,0.2,2.6-0.1,4-0.2c0.1,0,0.1,0,0.1,0c1.1-0.2,2.2-0.4,3.2-0.6c0.7-0.1,1.3-0.2,1.3-1c0-0.1,0.2-0.1,0.3-0.2
		c0.1,0.3,0.1,0.5,0.1,0.7c0.7,0,1.3,0,1.5-0.8c0-0.2,0.2-0.3,0.3-0.4c0.1,0.2,0.3,0.3,0.4,0.5c0.6-0.5,1.2-1,2-1.7
		c-0.1,1.2-0.4,2.2-1.1,3c-0.7,0.7-1.4,1.4-2.1,1.9c0.3,0.3,0.6,0.6,0.8,0.9c0.3,0.6,0.4,1.3,0.6,2c1.9-1.9,3.1-4.1,3.7-8.5
		c-0.3,0.4-0.6,0.7-0.9,1c-0.1,0-0.1-0.1-0.2-0.1c0.6-1.8,1.1-3.7,1.1-5.7c-0.3,0.7-0.5,1.4-0.8,2.2c-0.2-0.3-0.3-0.5-0.5-0.7
		c-0.3,0.5-0.5,0.8-0.7,1.2c-0.1,0.4-0.2,0.5-0.6,0.3c-0.6-0.3-1.1-0.1-1.5,0.5c-0.1,0.2-0.4,0.2-0.6,0.3c-0.3,0-0.5,0-0.8,0
		c-0.2,0-0.4,0-0.6-0.1s-0.3-0.4-0.2-0.5c0.1-0.2,0.3-0.3,0.5-0.3c0.1-0.1,0.3,0,0.5-0.1c0-0.1,0-0.1,0.1-0.2
		c-0.3-0.1-0.7-0.3-1-0.3c-0.9,0.1-1.6-0.4-2.2-1c-0.1-0.1-0.1-0.4-0.2-0.7c1.2,0.4,2.3,1.1,3.4,1c1.1-0.1,2.1-0.9,3.3-1.4
		c-0.1,0.4-0.3,0.9-0.4,1.3c0.1,0,0.1,0.1,0.2,0.2c0.4-0.4,1.1-0.8,1.1-1.3C168.7,30.8,168.8,28.5,168.1,26.3z M120.1,135.8
		c0.3,0.3,0.6,0.5,0.9,0.7c1.4,0.9,2.7,1.7,4.1,2.6c1.9,1.3,3.8,2.7,5.8,4c0.2,0.1,0.6,0.1,0.7-0.1c0.9-1.3,1.7-2.6,2.5-4
		c1.6-2.7,3.1-5.4,4.7-8.1c1-1.8,2.2-3.6,2.2-5.8c0-0.2,0-0.3-0.1-0.5c-0.1,0-0.3,0.1-0.5,0.1c-1.1,0.3-2.1,0.8-3.1,1
		c-0.6,0.1-1.3,0-1.9-0.2c-0.5-0.2-0.5-0.8-0.4-1.4c0.2-0.7,0.6-0.2,0.9-0.2c0.2,0,0.5,0,0.8,0c0-1.9,0.6-3.4,2.6-4.1
		c1.3-0.5,2.7-0.1,3.4,1.1c0.7-0.5,1.3-2.3,1.1-2.9c-0.4,0-0.7,0.1-1,0.1c0-0.3,0-0.7,0-1c0.1-0.3,0.2-0.6,0.3-0.8
		c0.7-2,1.4-3.9,2.1-5.9c0.3-1.1,0.5-2.2,0.8-3.3c0.2-0.8,0-1.5-0.5-2c-0.8,0.4-1.6,0.7-2.3,1.1c-0.2,0.1-0.4,0.4-0.6,0.7
		c-0.2,0.4-0.4,0.8-0.5,1.2c-0.1,0.1,0,0.3-0.1,0.5c1.1-0.2,2-1,3.3-0.7c-0.3,0.4-0.5,0.8-0.8,1.1c-0.4,0.5-0.9,1-1.2,1.7
		c-1.1,2.7-2.4,5.4-5.1,7c-0.9,0.6-1.8,1.4-2.9,1.6c-1.5,0.3-2.4,1.2-3.2,2.3c-0.5,0.6-0.9,1.3-1.4,1.8c-2,1.6-4.1,3.1-6.2,4.6
		c-1.6,1.2-3.4,2.2-5,3.4c-1.2,0.9-0.9,1.6-0.1,2.2c0.3,0.2,0.6,0.4,0.9,0.6C121.2,134.3,121.2,135.1,120.1,135.8z M160.1,110.6
		c0-0.5-0.1-0.9,0-1.2c0.1-0.6,0.3-1.2,0.5-1.8c0.3-0.9,0.7-1.8,0.9-2.7c0.2-0.9,0.1-1.8,0-2.7c0-0.6-0.2-1.3-0.5-1.5
		c-1.5,0.4-2.8,0.8-4.1,1.2c0,0-0.1,0-0.2,0c-0.9-0.1-1.8-0.3-2.7-0.4c-0.2,0-0.4-0.2-0.5-0.3c-0.3-0.4-0.2-0.9,0.3-1.2
		c0.4-0.3,0.8-0.2,1.1,0.2c0.4,0.5,0.9,0.6,1.4,0.4c1.4-0.6,2.8-1.2,3.9-2.3c0.9-0.9,1.1-1.8,0.9-2.9c-0.1-0.5-0.1-0.9-0.2-1.4
		c1-0.1,1.1-0.1,1.1,0.8c0,0.9,0,1.8,0,2.7c0.2,0,0.4-0.1,0.6-0.1c0.2,1.2,0.2,1.2,1.7,1.4c-0.1,0.2-0.1,0.3-0.2,0.5
		c1-0.2,1.9-0.4,2.8-0.6c0.1,0,0.2-0.3,0.3-0.4c0.5-0.7,0-1.4,0-2.1c0-0.9-0.4-1.3-1.2-1.5c-0.4-0.1-0.9-0.3-1.3-0.5
		c-1.1-0.5-2.1-1.1-3.1-1.5c-0.3-0.1-0.8-0.1-1,0.1c-1.5,1-3.1,1.2-4.8,0.9c-0.6-0.1-1.3-0.5-1.8-0.9c-0.2-0.2-0.1-0.7-0.1-1.1
		c0-0.1,0-0.3-0.1-0.4c-0.6-0.8-0.3-1.3,0.3-1.9c0.6-0.7,1.2-1.3,1.8-2c0-0.1-0.1-0.1-0.1-0.2c-0.3,0.1-0.6,0.1-0.9,0.2
		c-0.5,0.2-1,0.4-1.5,0.7c-1,0.6-2.1,1.1-2.7,2.2c-0.3,0.7-0.5,1.4-0.7,2.2c-0.8,2.3-1.8,4.6-1.7,7.2c0,0.1,0,0.3-0.1,0.4
		c-0.4,1.7-0.2,3.3,0.3,4.9c0.2,0.6,0.4,1.2,1.1,1.4c0.2,0.1,0.4,0.4,0.6,0.7c0.4,0.7,0.9,1.4,1.3,2.1c0.6,0.9,1.6,1.6,1.7,2.8
		c0,0.1,0.3,0.4,0.4,0.4c1.1,0,2.2-0.1,3.3-0.2c-0.4-0.2-0.7-0.2-1-0.2c-0.6,0.1-1.1-0.2-1.1-0.7c0-0.6,0.6-0.5,1.1-0.5
		C157.2,110.8,158.6,110.7,160.1,110.6z M130.2,62.8c0-0.1-0.1-0.1-0.1-0.2c0.1-0.1,0.3-0.2,0.4-0.3c1.4-0.5,2.9-1.1,4.4-1.6
		c1.7-0.6,3.3-1.3,5.1-1.5c0.4-0.1,1.1-0.4,1.2-0.8c0.5-1.2,1-2.4,1.3-3.6c0.1-0.6,0.4-1.5-0.3-1.9c-1.4-0.8-2.8-1.6-4.2-2.2
		c-1-0.4-2.2-0.6-3.3-0.6c-0.7,0-1.6,0.1-2.2,0.4c-0.4,0.2-0.9,0.1-1.1,0.3c-0.9,0.5-1.7,1.2-2.5,1.9c-2.2,1.9-3.6,4.4-5,6.8
		c-0.3,0.4-0.6,0.9-1,1.2c-1.2,0.8-2.4,1.6-3.5,2.4c-1.4,1-2.7,2.1-4,3.2c-1,0.8-1.9,1.6-2.9,2.4c-0.5,0.4-0.9,0.9-1.4,1.4
		c3.7-0.7,7.2-1.3,10.8-1.9c-0.1-0.6,0.2-0.8,0.8-1.1c0.7-0.3,1.4-0.8,2.1-1.3c0.8-0.6,1.6-1.2,2.7-1.2c0.6,0,1.2-0.2,1.8-0.3
		c0-0.3,0-0.5,0-0.7c0.8-0.5,1.8-0.2,2.4-1.1C131.1,62.7,130.6,62.8,130.2,62.8z M120.9,120.8c0.6-0.4,1-0.8,1.5-1
		c1-0.4,2.1-0.7,3.1-0.9c0.9-0.2,1.8-0.3,2.4-1.1c1.2-1.8,2.7-3.4,3.7-5.3c1.9-3.4,3.6-7,5.3-10.5c0.9-1.8,1.6-3.6,2.4-5.3
		c0.2-0.5,0.3-1.1-0.3-1.4c-0.5,1-1,2-1.6,2.9c-1.3,2.1-2.6,4.2-4,6.2c-2.1,2.9-4.3,5.9-6.9,8.3c-1.8,1.7-3.5,3.6-5.3,5.3
		c-2.2,2.1-4.9,3.4-7.5,5c-1.6,1-3.1,2.1-4.6,3.2c-0.7,0.5-1.4,1.1-2.1,1.7c-1.1,0.9-2.2,1.8-3.3,2.7c-0.1,0.1-0.1,0.2-0.2,0.4
		c1.5-0.5,2.8-0.3,4.2-0.1c0.4,0.1,0.9,0.1,1.2,0c1.1-0.5,2.2-0.7,3.3-1c1.5-0.4,2.8,0.2,4.2,0.2c0.3,0,0.7,0,1.1-0.1
		c0.1,0,0.2-0.2,0.2-0.3s-0.2-0.2-0.3-0.2c-0.5-0.1-1-0.3-1.5-0.3c-2.2,0-4.3,0.1-6.5,0.2c-0.8,0-1.5,0.2-2.3,0.3c0-0.1,0-0.1,0-0.2
		c3.6-1.2,7.3-1.7,11.1-1.6c-1.9-0.3-3.8-0.6-5.7-0.8c0-0.1,0-0.2,0-0.3c1.9,0,3.8,0,5.6,0c0-0.1,0-0.2,0-0.3
		c-1.3-0.4-2.6-0.8-3.9-1.3c0-0.1,0.1-0.2,0.1-0.3c0.3,0,0.5,0,0.8,0c2.2,0,4.3,0,6.5,0c0.4,0,0.8-0.2,1.1-0.3c0-0.1,0-0.2-0.1-0.2
		c-1.3-0.2-2.6-0.4-4.2-0.6c0.3-0.2,0.4-0.3,0.6-0.3c0.9-0.2,1.6-0.6,2.3-1.1c0.2-0.2,0.6-0.2,0.8-0.2c0.9,0,1.8,0,2.6,0
		C123.7,120.7,122.1,121.8,120.9,120.8z M106.3,131.9c-0.9,0.1-1.7,0.2-2.4,0.4c-1.8,0.4-2.6,1.7-2.4,3.1c0.2,1.1,0.6,2.2,1.7,2.8
		c0.2,0.1,0.3,0.4,0.4,0.6c0.3,0.5,0.4,1,0.7,1.5c1.5,2.2,3.7,3.4,6,4.4c0.5,0.3,1,0.2,1.4-0.3c0.4-0.4,0.8-0.8,1.2-1.2
		c1.8-1.8,3.6-3.7,4.9-5.9c0.5-0.8,0.4-1-0.4-1.4c-0.3-0.2-0.7-0.3-1.1-0.4c-1-0.5-2-1-3-1.4c-1.3-0.5-2.7-1-4-1.4
		C108.3,132.3,107.2,132.1,106.3,131.9z M160.5,13.8c0.1-0.1,0.1-0.1,0.2-0.2c-0.1-1.1-0.3-2.2,0.4-3.3c0.4,1.4,0.7,2.7,1.8,3.9
		c0.5-1.3,0.9-2.4,1.4-3.7c0.1,0.4,0.3,0.7,0.3,0.9c0,0.7,0,1.3-0.1,2c0,0.5,0.1,0.7,0.7,0.5c0.8-0.3,1.3-0.8,1.3-1.6
		c0-0.1,0.2-0.3,0.3-0.4c0.1,0.1,0.3,0.2,0.4,0.4c0.1,0.4,0.2,0.8,0.3,1.3c0.4-0.3,0.6-0.5,0.9-0.8c0.1,0,0.1,0.1,0.2,0.1
		c-0.2,0.6-0.4,1.3-0.5,1.8c1.2,0.8,2.4,1.4,3.5,2.1c-0.1,0.1-0.1,0.2-0.1,0.3c-0.6-0.1-1.3-0.2-1.9-0.3c0,0.1-0.1,0.1-0.1,0.2
		c1.6,2.6,4.5,2.6,7.3,3.2c-1.6,0.8-3.1,0.8-4.8,0.9c1.3,1.4,2.2,3,2.9,4.7c-0.1,0.1-0.1,0.1-0.2,0.2c-0.4-0.3-0.8-0.7-1.3-1
		c0.5,1.2,1.4,2,2.4,2.8c1.1,0.9,2.4,1.3,3.7,0.8c-0.1,1.3-0.2,2.6-0.3,3.9c0.1,0,0.2,0.1,0.3,0.1c0.6-0.5,1.1-1,1.6-1.4
		c0.1,0.4,0.2,0.7,0.1,1c-0.3,0.6-0.7,1.2-1.1,1.7c-0.5,0.5-0.6,1.1-0.4,1.7c1.4,0.1,2.3-0.5,2.4-1.6c0.1-1.6,0.3-3.2,0.3-4.8
		c0-0.9-0.5-1.8-0.8-2.7c-0.1-0.4-0.4-0.4-0.7-0.1c-0.6,0.4-1.1,0.7-1.7,1c-0.4,0.2-1,0.3-1.4,0.4c0-0.1-0.1-0.2-0.1-0.3
		c0.7-0.5,1.5-0.9,2.2-1.4c0-0.1-0.1-0.1-0.1-0.2c-0.9,0.4-1.6,1-2.6,1.1c0.1-0.2,0.3-0.4,0.4-0.5c0.9-0.6,1.9-1.2,2.9-1.8
		c0.7-0.4,0.7-0.7,0.1-1.3c-0.3-0.3-0.6-0.7-0.8-1.1c-0.2-0.4-0.4-0.9-0.6-1.4c-1-1.9-2.5-3.4-4-4.9c-1.7-1.7-3.7-3-5.7-4.3
		c-0.2-0.1-0.6-0.1-0.8,0c-0.4,0.3-0.6,0.2-0.9-0.2c-0.3-0.4-0.5-0.6-1-0.7c-0.5-0.1-1-0.3-1.5-0.5c-1-0.5-2-0.9-3.2-1
		c-0.6-0.1-1.3-0.3-1.9-0.4c-1.1-0.1-2.3-0.2-3.5-0.2c-0.1,0.1-0.1,0.2-0.1,0.3C157.7,10.7,159.1,12.2,160.5,13.8z M171.1,78.1
		c-0.1-0.2-0.2-0.5-0.3-0.5c-0.6,0-1.1,0.1-1.7,0.1c-0.2,0-0.4,0-0.6,0.1c0-0.2-0.1-0.5,0-0.6c0.4-0.5,0.9-0.9,1.3-1.4
		c0.2-0.2,0.6-0.5,0.5-0.5c-0.3-0.7,0.2-1.1,0.4-1.6c0.3-0.7,0.5-1.4,0.7-1.9c-1.1-0.6-1.9-0.3-2.7,0.3c-1,0.8-1.7,0.7-2.3-0.4
		c-0.4-0.7-0.4-1.6-0.6-2.4c-0.5,0.1-1.1-0.8-1.9-0.1c-0.5,0.5-1.3,0.7-2.2,1.1c1.1,0.6,1.9,1.1,2.8,1.6c0.4,0.2,0.8,0.5,1.1,0.8
		c0.3,0.3,0.4,0.8,0.8,1.1c0.5,0.4,0.9,0.8,0.2,1.4c0.4-0.1,0.7-0.2,1-0.3c0.2-0.1,0.5,0,0.8-0.1c0,0.3,0.1,0.7-0.1,1
		c-0.1,0.3-0.5,0.5-0.8,0.6c-0.9,0.3-1.9,0.6-2.9,1c-0.4,0.2-0.7,0.5-0.9-0.2c0-0.1-0.2-0.1-0.3-0.1c-0.7,0.1-1.7,1.4-1.8,2.2
		c-0.1,0.4-0.2,0.8-0.3,1.2c-0.1,0-0.3,0-0.4-0.1c0-0.6,0-1.1,0-1.7c0-0.8-0.2-0.9-0.9-0.5c-1.3,0.8-2.6,1.5-3.9,2.3
		c-0.6,0.3-1,0.9-1.6,1.4c0.3,0.1,0.3,0.1,0.4,0.1c0.1,0,0.2,0,0.3,0c2.1-0.8,4.3-0.8,6.5-0.5c0.5,0.1,1,0.2,1.5,0.4
		c1,0.4,1.9,0.9,2.9,1.3c1.9,0.7,3.8,1.4,5.7,2.1c0.7,0.3,1.3,0,1.6-0.5c0.4-0.6,0.9-1.2,1.4-2c-0.2-0.1-0.5-0.3-0.8-0.5
		c-0.2-0.1-0.5-0.2-0.5-0.4c-0.3-0.7-0.6-1.5-0.9-2.2c0.3-0.2,0.6-0.3,1-0.6C172.7,78.6,171.9,78.3,171.1,78.1z M182.2,100.2
		c-0.1,0-0.2-0.1-0.3-0.1c0.3-2.2,0.7-4.3,1-6.5c-0.3,0-0.4-0.1-0.6-0.1c0.1-0.6,0.2-1.1,0.3-1.6c-0.1,0-0.2-0.1-0.3-0.1
		c-0.3,0.8-0.5,1.6-0.8,2.5c-0.1,0-0.1,0-0.2,0c0-0.4-0.1-0.8-0.1-1.2c-0.2,0.3-0.2,0.6-0.3,0.9c-0.1,0.3-0.3,0.5-0.4,0.7
		c-0.1,0-0.2-0.1-0.4-0.1c0.2-1.3,0.3-2.7,0.6-4c0.6-2.3,1.1-4.7,1.4-7.1c0.1-0.5,0-0.9-0.7-1.1c-0.1,0.3-0.2,0.6-0.2,0.9
		c0,0.7,0.1,1.3-0.1,2c-0.5,2-1.1,4-1.7,6c-0.6,1.6-1.3,3.2-1.9,4.8c-0.1,0.2-0.4,0.4-0.6,0.4c-1,0.1-1.9,0-2.2-1.2
		c0-0.1-0.1-0.1-0.2-0.2c-0.1,0-0.1,0.1-0.2,0.1c0.1,0.5,0.2,1.1,0.4,1.5c0.6,1.1,1.7,0.8,2.6,0.9c-0.1,2.1-0.3,4,1.3,5.7
		c0.1-0.2,0.3-0.4,0.4-0.5c0.2-0.5,0.4-1,0.7-1.4c0.1-0.2,0.4-0.2,0.5-0.3c0.1,0.2,0.3,0.4,0.3,0.6c0,0.5-0.1,1.1-0.1,1.6
		c-0.2,1.6-0.8,3.1-2.1,4.2c-0.4-0.5-0.8-1.1-1.2-1.6c-1.1,0.9-1.2,1.6-0.8,2.7c0.7,1.6,1.9,2.8,3.3,4.1c0.5-0.5,1.1-0.9,1.6-1.4
		c0.9-1,1.1-2.3,1.2-3.6c0.2-1.6,0.3-3.3,0.2-4.9c-0.1-1.1-0.2-2.2,0.3-3.2c0.2-0.4,0.1-1,0.2-1.7
		C182.4,98.4,182.8,99.6,182.2,100.2z M186.1,139c-2.5,0.7-4.1,1.5-4.9,2.6c1,0.5,2,0.1,3.1,0c-0.2,0.6-0.3,1-0.5,1.5
		c0.6,0.1,1.1,0.4,1.6,0.3c1-0.2,1.9-0.5,2.7-1.2c1.3-1,2.6-1.9,3.9-2.8c-1.7-3.7-3.5-6-4.8-5.9c0.7,0.8,1.3,1.5,2,2.3
		c0.5,0.6,0.5,1.6-0.1,2.3c-0.4-0.4-0.7-0.9-1.2-1.3c-0.5-0.4-1-1.1-1.8-0.8c-0.5,0.2-1,0.6-1.6,0.8c-0.3,0.1-0.6,0-0.9,0
		c-1.1,0.1-1.3,1.6-2.7,1.7c0.3-0.6,0.5-1.1,0.7-1.6c0,0-0.1-0.1-0.1-0.1c-0.5,0.5-1,1-1.5,1.6c-0.1-0.1-0.2-0.1-0.3-0.2
		c0.5-0.9,1-1.8,1.6-2.9c-0.7,0.5-1.3,1-1.8,1.4c-0.1-0.1-0.1-0.1-0.2-0.2c0-0.1,0.1-0.2,0.1-0.3c0-0.1,0.1-0.2,0.1-0.3
		c0.9-1.4,1.4-2.8,1.4-4.5c0-0.3,0.2-0.6,0.4-0.7c0.5-0.4,0.6-0.8,0.1-1.4c-0.4-0.4-0.6-0.9-1-1.4c-1.4,1-2.2,2.3-2.4,4
		c-0.2,1.9-0.2,3.8-0.3,5.7c0,0.7,0.2,1.4,0.3,2.1C181,139.1,183.5,138.4,186.1,139z M136.1,93.7c-0.1-0.1-0.2-0.2-0.3-0.4
		c-0.3,0.2-0.5,0.4-0.8,0.6c-1.6,1.3-3.2,2.6-5.2,3.3c-0.6,0.2-1.1-0.1-1.1-0.7c0-0.4,0.1-0.8,0.2-1.3c0.1-0.4,0.1-0.8,0.2-1.2
		c-0.2,0-0.4-0.1-0.4,0c-0.6,0.3-1.3,1.7-1.2,2.4c0.1,0.8,0.2,1.5-0.2,2.2c-0.9,1.5-1.8,3.1-2.7,4.7c-1.4,2.4-2.8,4.8-4.3,7.2
		c-1.6,2.6-3.1,5.3-4.7,7.9c-0.6,1-1.2,2-1.8,3c0.1,0.1,0.1,0.1,0.2,0.1c1.6-2,3.2-4,4.8-6c1.6-2,3.6-3.5,5.6-4.8
		c-0.4-0.4-0.9-0.6-1-0.9c-0.1-0.2,0.1-0.7,0.3-0.9c0.8-0.8,1.7-1.6,2.6-2.4c0.5-0.4,1.2-0.8,1.5-1.3c0.4-0.8,0.6-1.7,0.9-2.6
		c-0.2,0.1-0.4,0.2-0.6,0.3c-0.2,0.1-0.5,0.2-0.7,0.3c-0.1-0.4-0.3-0.7-0.3-1.1c0-0.3,0.3-0.6,0.5-0.8c0.8-0.7,1.6-1.3,2.3-2
		C132.1,97.5,134.1,95.6,136.1,93.7z M157.7,133.4c0-0.1-0.1-0.1-0.1-0.2c-0.9,0.1-1.8,0.1-2.7,0.2c-1.8,0.2-3.6,0.4-5.4,0.5
		c-0.6,0.1-1.2,0-1.8,0.1c-0.9,0.1-1.9,0.3-2.9,0.5c0.2,0.5,0.1,1.1-0.6,1.3c-1.8,0.6-3.4,1.7-5,2.8c-0.3,0.2-0.4,0.5-0.7,0.7
		c0,0.1,0.1,0.2,0.1,0.3c0.4,0,1,0.2,1.3,0c1.3-1,2.8-1.7,4.3-2.3c0.2-0.1,0.5-0.1,0.7,0c0.9,0.6,1.9,0.8,3,1.1
		c0.5,0.1,0.7,0,1.1-0.2c1.7-1,3.3-2.1,5-3.1C155.4,134.5,156.6,134,157.7,133.4z M186.1,92.5c-0.1,0-0.1,0.1-0.2,0.1
		c0.2,1.4,0.5,2.8,0.5,4.2c0.1,3.8,0.1,7.6-0.8,11.3c-0.5,2.3-1.3,4.5-2,6.7c-0.1,0.2-0.3,0.3-0.2,0.5c0.1,0.4,0.3,0.8,0.4,1.1
		c0.2-0.2,0.5-0.3,0.6-0.6c0.3-0.7,0.6-1.4,0.9-2.2c1-2.7,2.1-5.4,2.9-8.2c0.5-1.8,1.4-3.5,0.8-5.6c-0.7-2.3-1.3-4.5-2.4-6.6
		C186.5,92.9,186.3,92.7,186.1,92.5z M139.9,84.8c0-0.1-0.1-0.1-0.1-0.2c-0.2,0-0.4,0-0.6,0.1c-1.3,0.8-2.7,1.6-3.9,2.5
		c-1.4,1-1.8,1.1-3.2-0.1c-0.2-0.2-0.4-0.4-0.6-0.6c-0.6-0.7-1.1-1.4-1.7-2.2c0.1,3.3,0.2,6.4,0.3,9.5c0.2,0,0.6,0,1,0
		c0.6,0.1,1.1-0.1,1.4-0.6c0.4-0.5,0.7-1,1.2-1.5c1.2-1.1,2.4-2.1,3.5-3.2c0.4-0.4,1-1.1,0.9-1.3c-0.4-0.8,0.2-1,0.5-1.3
		C139.1,85.5,139.5,85.1,139.9,84.8z M173.6,143.2c-0.1-0.3-0.1-0.4-0.1-0.6c-0.6-2-0.7-4.1-2.5-5.6c-0.9-0.7-1.5-1.6-2.7-1.6
		c-0.5,0-0.4,0.1-0.4,0.4c0,0.4,0.2,1,0,1.4c-0.4,0.9-0.1,1.6,0.5,2.4c0.4,0.6,0.9,1.3,0.9,2c0.1,0.9-0.3,1.8-0.4,2.8
		c0,0.3-0.1,0.7,0.1,0.8c0.2,0.2,0.6,0.2,0.9,0.1c1-0.4,1.9-0.8,2.9-1.3C173.1,143.8,173.3,143.4,173.6,143.2z M197.3,125.9
		c0.1,0.4,0.2,0.7,0.3,1.1c0.2,0.6,0.2,1.1-0.3,1.6c-0.8,0.7-1.6,1.4-2.2,2.3c-1.3,1.6-2.5,3.3-3.7,4.9c-0.2,0.3-0.2,0.8-0.1,1.1
		c0.3,0.7,0.8,1.3,1.1,1.9c0.1,0,0.1,0,0.2-0.1c3.2-2.6,4.8-6.1,6.1-9.8C199.1,127.6,198.6,126.6,197.3,125.9z M141,130.3
		c0.1,0.1,0.1,0.1,0.2,0.2c0.3-0.1,0.7-0.2,1-0.3c1.6-0.6,2.6-2,3.7-3.2c0.1-0.2,0.1-0.5,0.1-0.7c0-0.3-0.1-0.7-0.1-1.1
		c0-2.4,0-4.9,0-7.3c-0.9-0.1-0.8,0.7-0.9,1.1c-0.9,3.5-2.1,6.8-3.6,10.1C141.3,129.5,141.1,129.9,141,130.3z M171.1,99.2
		c-0.1,0.4-0.1,0.7-0.2,0.9c-0.2,0.7-0.5,1.3-0.6,2c-0.4,1.8,0.2,3.5,0.7,5.2c0.7,2.5,1.6,4.9,2.4,7.4c0.2,0.7,1.1,1.2,1.8,1.2
		c0-0.1,0-0.1,0-0.1c-1-2.8-2-5.5-3-8.3c-0.1-0.1-0.4-0.2-0.7-0.3c0.3-3.6,0.9-7.3,0.6-11c-0.1,0-0.2-0.1-0.3-0.1
		c-0.5,1.1-1.1,2.1-1.7,3.3C170.6,99.3,170.8,99.3,171.1,99.2z M172.4,87.5c-0.6-0.2-1.2-0.3-1.7-0.4c-0.9-0.3-1.9-0.6-2.7-1.2
		c-1.2-0.8-2.5-1.5-3.8-2.1c-0.3-0.1-0.6-0.1-0.9-0.2c-0.5-0.2-1-0.4-1.5-0.5c-0.5-0.1-1-0.1-1.4-0.2c-0.9-0.1-1.8-0.1-2.7-0.2
		c0,0.1,0,0.1,0,0.2c6.1,0.2,10,3.7,12.9,8.7C171.4,90.3,172.6,89.2,172.4,87.5z M166.3,121c2-0.2,4.1-0.5,6.2-0.7
		c0.5-0.1,0.6-0.3,0.5-0.8c-0.3-0.9-0.5-1.8-1.7-1.7c-0.3,0-0.7-0.3-1-0.4c-0.2-0.1-0.4-0.2-0.6-0.1c-0.7,0.4-1.4,0.4-2.2,0.4
		c-1,0-2,0.4-3,0.7c0.1,0.5,0.2,1.1,0.3,1.8c0.3-0.2,0.6-0.3,0.9-0.4C165.8,120.1,166,120.4,166.3,121z M146.9,92.9
		c-1.1,0.8-2.1,1.5-3,2.2c0.7,0.5,0.8,1,0.3,1.6c-0.5,0.6-1,1.1-1.6,1.5c-0.9,0.7-1,1.7-1.1,2.7c0,0,0.1,0.1,0.1,0.1
		c0.1-0.1,0.2-0.1,0.5-0.3c-0.3,1-0.5,1.9-0.1,2.8c0-1.2,0.1-2.4,1.2-3.1c1-0.7,2.1-0.8,3.2-0.3C146.5,97.7,146.7,95.4,146.9,92.9z
		 M157.7,122.5c0,0,0-0.1,0.1-0.3c0.2-1,0-1.4-1-1.6c-0.7-0.2-1.3-0.3-2.1-0.4c1.1-0.5,2.1-0.9,3.1-1.4c0.4-0.2,0.8-0.4,0.6-0.9
		c-0.2-0.6-0.3-1.2-1.1-1.2c-0.6,0-1.1,0-1.6,0c0.1,0.1,0.1,0.1,0.2,0.2c-0.3,0.5-0.4,1.2-0.9,1.5c-0.4,0.3-1.1,0.1-1.8,0.2
		c0,0.1-0.1,0.2,0,0.3c0.3,1.1,0.3,1.1-0.8,1.5c-0.2,0.1-0.3,0.3-0.5,0.6c1.2,0,2.1,0,3.1,0c0.5,1.1,0.5,1.4-0.3,1.4
		c-0.5,0-0.8,0.5-1.4,0.3c-0.4-0.2-1.1,0.4-1.7,0.6c-0.1,0.1-0.2,0.4-0.2,0.6c0,0.1,0.3,0.2,0.5,0.2c0.2,0,0.4,0,0.6-0.1
		C154.2,123.4,155.8,123,157.7,122.5z M143.5,47.2c0.7,0.7,1.1,0.7,1.5-0.1c0.3-0.5,0.7-1,1.1-1.5c0.1-0.2,0.3-0.2,0.5-0.3
		c0,0.2,0.1,0.4,0.1,0.6c0,0.2-0.1,0.4-0.2,0.5c-0.4,0.6-0.7,1.1-1.2,1.8c0.8,0.3,1.5,0.5,2.1,0.7c0.5-0.8,0.8-1.3,1.2-1.9
		c0.1,0,0.2,0.1,0.3,0.1c-0.1,0.6-0.2,1.3-0.4,2c1,0.1,2.1,0.3,3.2,0.4c0.1-0.8-0.1-1.5-0.7-1.8c-1.3-0.6-2.2-1.7-2.9-2.8
		c-0.4-0.5-0.9-0.5-1.3-0.3c-0.9,0.4-2.1,0.2-2.7-0.4c-0.5,0.5-1.1,1-1.6,1.5c-0.1,0.2-0.3,0.5-0.3,0.6c0.1,0.4,0.4,0.4,0.7,0.1
		c0.4-0.5,0.9-0.9,1.4-1.3C144.7,46,144.4,46.6,143.5,47.2z M113.1,84.9c0,0.1,0.1,0.2,0.1,0.3c1.1-0.1,2.1-0.1,3.2-0.2
		c0.2,0,0.5-0.1,0.7-0.2c1.7-0.9,3.4-1.8,5-2.7c1.5-0.9,3.1-1.8,4.6-2.7c-0.3-0.2-0.6-0.2-0.7-0.1c-0.8,0.6-1.7,0.5-2.6,0.6
		c-0.7,0.1-1.5,0.3-2.2,0.5c-1,0.4-2,0.8-2.9,1.3c-0.4,0.2-0.9,0.5-0.9,0.8c-0.1,0.8-0.7,0.9-1.2,1.2
		C115.2,84.1,114.1,84.5,113.1,84.9z M152.4,50c0,2.2-0.3,4.1-1.3,5.7c-0.6,0-1.1,0.1-1.5,0.1c0,0.1-0.1,0.2-0.1,0.3
		c0.5,0.4,1,0.8,1.5,1.1c1.5,1.2,1.5,1.2,3.1,0.2c0.2-0.1,0.3-0.2,0.5-0.3c0.1-0.1,0.2-0.3,0.2-0.5c-0.3-1.6-0.6-3.2-0.9-4.7
		C153.6,51.1,153.2,50.5,152.4,50z M146.2,13.1c0-0.1,0.1-0.2,0.1-0.3c2.1-0.6,4.2-0.5,6.3,0.3c-0.6-1.1-1.1-2.2-1.7-3.4
		c-1.6,0.6-3.2,1.2-4.8,1.9c-0.8,0.4-1.5,0.8-2.3,1.3c-0.1,0,0,0.4,0,0.5c1.8,0.9,3.8,1.4,5.8,1.6c0.3,0,0.5,0,0.8-0.1
		c0-0.1,0-0.2,0.1-0.3C149.1,14.1,147.6,13.6,146.2,13.1z M161.9,127.9c0.3,0,0.5,0,0.8,0c0.3,0,0.5,0,0.8,0c0.7,0,0.5,0.6,0.5,1
		c0,0.4-0.2,0.6-0.7,0.4c-0.6-0.2-1.3,0.1-1.3,0.6c-0.1,0.8,0,1.5,0,2.3c0.2,0,0.2,0.1,0.3,0c1.1-0.4,2.2-0.8,3.3-1.3
		c0.5-0.2,1.2-0.3,1.3-1.1c0-0.8,0-1.6,0-2.4c0-0.4-0.3-0.7-0.8-0.7c-1.3,0.1-2.6,0.2-4,0.3C162,127.4,162,127.6,161.9,127.9z
		 M179.2,90.4c0.8-1.2,1.9-6.3,1.7-7.3c-1.3,0.4-4.3,4.7-4.5,6.3C177.3,89.7,178.3,90.1,179.2,90.4z M178.9,119.4
		c0.2,0.7,0.4,1.2,0.6,1.8c0.2,0.5,0.6,0.6,1,0.2c1-1,2-2,2.9-3c0.1-0.2,0.3-0.4,0.3-0.6c-0.1-0.9-0.7-1.3-1.4-1.6
		c-0.6-0.3-1.1-0.1-1.4,0.5c-0.2,0.3-0.5,0.5-0.7,0.8C179.8,118,179.3,118.7,178.9,119.4z M161.8,86.2c-0.1,0.1-0.2,0.2-0.3,0.3
		c0.2,0.3,0.3,0.6,0.5,0.7c0.7,0.3,0.9,0.9,0.9,1.5c0.1,1.4,0.5,2.8,1.1,4.1c0.6-0.3,1.2-0.6,1.7-0.8c1.1-0.4,1.1-0.5,0.9-1.7
		c-0.1-0.7-0.7-1.1-1.2-1.4c-0.3-0.2-0.5-0.4-0.8-0.6C163.7,87.6,162.8,86.9,161.8,86.2z M162.1,138.5c1.5-0.2,2.8-0.3,4.2-0.5
		c0.2,0,0.5-0.3,0.5-0.5c0.1-0.6,0.1-1.2,0-1.7c0-0.4-0.2-0.8-0.8-0.8c-1,0.1-1.9,0.2-2.9,0.3c-0.4,0.1-0.9,0.4-0.9,0.7
		C162,136.7,162.1,137.5,162.1,138.5z M160,129.4c-1.9,0.1-3.6,0.2-5.3,0.4c-1.7,0.2-3.4,0.4-5.1,0.6c0.1,0.2,0.2,0.3,0.4,0.3
		c1.5,0.1,3.1,0.1,4.6,0.2c0.8,0,1.6,0,2.4,0.1c1,0.2,2,0.4,3.2,0.7C160,131,160,130.3,160,129.4z M155.8,8.7
		c-1.1,0.1-2.2,0.2-3.4,0.4c-0.8,0.1-0.9,0.6-0.3,1.2c0.9,0.8,1.8,1.5,2.9,2.1c0.6,0.4,1.3,0.5,2,0.7
		C156.6,11.7,156.2,10.3,155.8,8.7z M177,51.8c0.3-0.4,0.6-0.6,0.6-0.9c0-0.9-0.1-1.7-0.3-2.6c-0.1-0.4-0.6-0.6-1-0.3
		c-0.9,0.8-2.1,0.6-3.1,1.3c-0.6,0.4-1.5,0.2-2.3,0.2c-0.5,0-0.9,0-1.5,0c0.5,0.8,0.8,1.6,1.6,1.7c0.3-0.4,0.6-0.8,0.9-0.8
		c1.3-0.3,2.7-0.4,4-0.6c0.6-0.1,1.1,0,0.9,0.9C176.8,51,176.9,51.3,177,51.8z M143.3,62c0.5,0,0.9,0,1-0.8c0.2-1.7,0.7-3.3,0.3-5
		c-0.2-1-0.5-2.2,0.9-2.8c-0.3-0.1-0.6-0.1-1-0.2c0.3-0.2,0.5-0.2,0.7-0.3c-0.4-0.1-0.8-0.1-1-0.3c-0.5-0.3-0.7-0.2-0.7,0.3
		C143.4,56,143.3,59,143.3,62z M168.8,43.3c1.2,0.2,1.8-0.1,2.5-0.6c0.4-0.3,0.8-0.7,1.1-1.1c1.6-1.8,1.8-3.6,0.6-5.7
		c-0.3-0.5-0.4-0.5-0.9-0.3c1.3,2,1.4,2.2,1,3.3c-0.2-0.5-0.4-0.9-0.7-1.5c0,0.5,0,0.8-0.1,1.1c-0.1,0-0.1,0.1-0.2,0.1
		c-0.4-0.4-0.8-0.9-1.2-1.3c-0.5,0.4-0.4,0.8-0.1,1.2c0.3,0.4,0.6,0.8,0.9,1.2c0.2,0.2,0.4,0.4,0.6,0.5c0.1,0,0.2-0.1,0.3-0.1
		c-0.1,0.3-0.1,0.6-0.3,0.8c-0.5,0.6-1,1.1-2,1C169.4,41.8,168.8,42.4,168.8,43.3z M170.7,69.5c-0.1,0-0.2,0.1-0.3,0.1
		c-0.1-0.1-0.3-0.2-0.4-0.2c-0.2-0.1-0.4-0.2-0.5-0.3c-0.3-0.8-0.8-0.9-1.4-0.3c0,0-0.1,0-0.1,0c-0.7,0.3-1.2,1.1-1.1,1.8
		c0.1,0.6,0.5,0.8,1,0.5c0.3-0.2,0.6-0.4,0.9-0.4c1-0.1,2-0.2,3-0.3c0.5,0,1-0.1,1-0.6c0-0.2-0.6-0.5-0.9-0.6
		c-0.6-0.1-0.8-0.5-0.9-1c0-0.2,0-0.4-0.1-0.7c-0.3,0.2-0.5,0.3-0.6,0.4C170.4,68.4,170.6,68.9,170.7,69.5z M158.3,43.6
		c0.3-0.7,0.5-1.2,0.7-1.7c-0.8,0.1-1.7,0.1-2.6,0.2c-0.9,0.1-1.8,0.3-2.6,0.4c-0.2,0.3-0.4,0.7-0.7,1.1c-0.3-0.2-0.5-0.3-0.7-0.5
		c-0.4,0.1-0.9,0.2-1.4,0.3C152.3,44.2,155.7,44.2,158.3,43.6z M159,125.4c0.1-1.1-0.1-1.3-1.1-1.2c-0.4,0-0.8,0-1.2,0.1
		c-0.9,0.1-1.8,0.2-2.6,0.3c-0.5,0.1-1,0-1.5,0c-0.1,0-0.4,0.1-0.4,0.2c0,0.2,0.1,0.6,0.2,0.6c0.9,0.3,1.8,0.7,2.7,0.6
		C156.3,126,157.6,125.7,159,125.4z M178,93.5c-0.8-0.7-1.6-1.3-2.3-2c-0.4-0.4-0.6-0.3-0.8,0c-0.1,0.2-0.4,0.6-0.3,0.8
		c0.4,1.1,0.7,2.2,1.2,3.3c0.2,0.5,0.9,0.4,1.2-0.1C177.3,94.9,177.6,94.3,178,93.5z M199.2,98.3c-0.1,0-0.1,0-0.2,0
		c0,0.2-0.1,0.4-0.1,0.5c0.2,0.8,0.4,1.6,0.9,2.4c0.7,1,0.8,2.3,1.5,3.3c1.1,1.8,2.4,3.6,3.7,5.3c0.2,0.3,0.6,0.5,0.9,0.8
		c0.1-0.3,0-0.6-0.1-0.8c-0.7-1-1.4-2-2.2-3c-0.7-1-1.4-1.9-1.9-2.9C200.8,102.1,200,100.2,199.2,98.3z M159.9,135.9
		c-1.9,0.7-3.7,1.3-5.5,1.9c0.3,0.9,2.3,1.1,5.5,0.4C159.9,137.5,159.9,136.7,159.9,135.9z M166.3,124c-1.5-0.5-3-0.2-4.5,0
		c-0.4,0.1-0.8,0.3-1.2,0.3c-0.8,0.1-0.9,0.4-0.6,1.1c0.2-0.1,0.4-0.2,0.6-0.2c1.6-0.1,3.2-0.1,4.8-0.2
		C166.4,125,166.4,125,166.3,124z M146.5,18.5c-0.7-0.6-1.7-0.7-2.5-0.5c-0.4,0.1-0.5,0.1-0.9-0.1c-0.3-0.2-0.8-0.1-1.1-0.3
		c-1.1-0.5-2.1-1.1-3.1-1.7c-0.3-0.2-0.6-0.4-0.9-0.6c0.2,1.4,1.8,3.9,2.8,4.2c-0.4-0.6-0.8-1.1-1.1-1.7c0.1-0.1,0.1-0.1,0.1-0.2
		C142,18.7,144.2,18.8,146.5,18.5z M146,130.8c0,0.1,0.1,0.1,0.1,0.2c0.9,0,1.8,0,2.6,0c0.1,0,0.3-0.3,0.3-0.3c-0.2-1.1,0-2,0.8-2.7
		c0.2-0.2,0.1-0.7,0-1c0-0.1-0.4-0.2-0.7-0.2c-0.3,0-0.6-0.1-0.9,0c-0.2,0.1-0.4,0.3-0.6,0.4c0,0.1,0.1,0.2,0.1,0.2
		c0.4,0.1,0.8,0.1,1.4,0.2C148,128.7,147,129.7,146,130.8z M187.6,129.7c-0.1-1.1-0.3-2.1-1.6-2.8c-1-0.5-2-1.1-3.2-1.2
		c0,0.4,0,0.8,0,1.2c0.4,0.1,0.7,0.2,1,0.4C185.1,128.1,186.4,128.9,187.6,129.7z M159.8,114.1c-0.4-0.3-1-0.6-1.7-1
		c-1,0.2-2.4,0.4-3.9,0.7c0.3,0.5,0.5,1,0.8,1.5c0.1,0.1,0.3,0.2,0.5,0.2C156.9,114.9,158.4,114.5,159.8,114.1z M138.6,75.4
		c-0.1-0.1-0.1-0.1-0.2-0.2c-0.4,0.3-0.8,0.6-1.2,0.8c-1.1,0.5-2.3,0.9-3.4,1.4c-0.9,0.4-0.9,0.4-0.5,1.4c0,0.1,0.1,0.2,0.1,0.3
		c0,0.6,0.3,0.5,0.6,0.3c1-0.7,2-1.4,2.9-2.2C137.6,76.6,138.1,76,138.6,75.4z M113.9,81.7c-0.4-0.1-7.5,3-8.3,3.7
		c0.3,0.1,0.7,0.1,1,0.3c0.5,0.3,0.9,0.2,1.4-0.1C109.9,84.3,111.9,83,113.9,81.7z M174.8,149c-0.1,0.1-0.1,0.2-0.1,0.4
		c0.2,0.1,0.5,0.3,0.7,0.3c2,0,4.1,0.1,6.1-0.3c1.4-0.3,2.9-0.3,4.3-0.4c0-0.1,0-0.2,0-0.3C182.1,148.8,178.5,148.9,174.8,149z
		 M176.1,117.3c-0.3-0.1-0.5-0.3-0.8-0.4c-0.7-0.3-1.3-0.7-2.1-0.9c-0.3-0.1-0.8-0.7-1,0c0.3,0.5,0.7,0.8,0.8,1.2
		c0.3,0.8,0.4,1.7,0.6,2.5c0.1,0.6,0.2,1.1,0.8,1.7c0-0.5,0-0.8,0-1.1c0-0.3,0.1-0.7,0.1-1C174.8,118.2,174.6,117.8,176.1,117.3z
		 M148.6,28.1c0.2-1.9,0.4-3.7,0.6-5.6c-0.2,0.1-0.4,0.1-0.4,0.1c-0.7,1.5-1.3,2.9-1.9,4.4c-0.1,0.1,0.2,0.5,0.4,0.6
		C147.7,27.9,148.1,28,148.6,28.1z M158.4,52.6c-0.7-0.7-1.7-0.7-2.9-1c0.3,0.5,0.6,0.8,0.8,1.2c0.5,0.6,0.4,1.2-0.2,1.5
		c-0.3-0.3-0.6-0.7-0.9-1c-0.1,0-0.1,0.1-0.2,0.1c0.2,0.9,0.3,1.8,0.5,2.8c0.1,0,0.2,0,0.2,0.1C156.6,55.1,157.5,53.9,158.4,52.6z
		 M164,119.8c-0.3-0.4-0.5-1.1-0.8-1.2c-0.5-0.1-1.2,0.2-1.6,0.5c-0.3,0.2-0.6,0.9-0.5,1.3c0.1,0.6,1.2,1,1.9,0.9
		C163.6,121.1,163.8,120.5,164,119.8z M162.9,105.3c0.1,0.1,0.1,0.1,0.1,0.2c0.5-0.5,1.2-0.8,1.5-1.4c0.5-1,1.2-1.6,2.4-1.5
		c0,0,0-0.1,0-0.1c-1-0.4-2-0.7-2.8-1c-0.2,0.5-0.3,1-0.5,1.4c-0.4,0.5-0.6,0.9-0.6,1.6C163,104.7,162.9,105,162.9,105.3z M142,13.2
		c0.5,2.1,2.3,2.3,3.9,3c0-0.3,0.1-0.6,0.1-0.8c1.3,0.2,2.5,0.3,3.7,0.5c0-0.1,0-0.2,0-0.3c-0.5-0.1-1.1-0.3-1.5-0.3
		c-1.3,0.2-2.3-0.4-3.4-0.8C143.8,14.2,142.9,13.7,142,13.2z M147.7,125.5c0.7,0,1.1,0,1.6,0c0-1.1,0-2.2,0-3.2
		c0-0.3-0.1-0.7-0.3-0.9c-0.1-0.2-0.3-0.3-0.5-0.3c-0.1,0-0.3,0.2-0.3,0.3C148,122.7,147.9,124,147.7,125.5z M143.4,41.8
		c-0.1-1.5-0.2-2.8-0.2-4.2c-0.1,0-0.1,0-0.2,0c-0.1,0.3-0.4,0.5-0.4,0.8c0,0.7-0.3,0.9-0.9,0.7c-0.3,2,0.4,3.7,1.5,3.6
		c-0.2-0.2-0.4-0.4-0.6-0.7C142.9,41.8,143.1,41.8,143.4,41.8z M136.6,19.3c0,0.1,0,0.2,0,0.4c1.3,0.5,2.7,1,4,1.5c0,0,0-0.1,0-0.2
		c-0.9-1.1-1.7-2.1-2.6-3.3C137.6,18.2,137.1,18.8,136.6,19.3z M144.6,17.4c-1-1.1-2-2-2.9-3c-0.4,0.4-0.9,0.8-1.5,1.3
		C141.5,16.9,142.9,17.3,144.6,17.4z M141.5,120.7c0-0.1-0.1-0.2-0.1-0.3c-0.4-0.1-0.9-0.4-1.3-0.3c-0.6,0.1-1.2,0.5-1.8,0.8
		c-0.2,0.1-0.4,0.6-0.3,0.7c0.3,0.3,0.8,0.9,1,0.8C139.8,121.9,140.7,121.3,141.5,120.7z M165.8,108.4c-1-0.3-1.8-0.6-2.6-0.9
		c-0.2-0.1-0.5,0-0.5,0.1c-0.1,0.5-0.2,1-0.2,1.5c0,0.1,0.6,0.2,0.9,0.2c0.4,0,0.8,0.1,1.1-0.1C164.9,109.1,165.3,108.7,165.8,108.4
		z M166.4,21.8c0,0-0.1,0-0.1,0.1c0,1.4,0,2.8,0,4.1c1.5,0,1.8-0.4,1.2-1.7c-0.2-0.5-0.4-1.1-0.7-1.6
		C166.7,22.3,166.6,22,166.4,21.8z M148.5,119.7c0.3,0,0.5,0,0.8-0.1c0.6-0.1,0.9-0.6,0.7-1c-0.3-0.3-0.7-0.6-1.1-0.8
		c-0.6-0.5-1.3,0-1.9,0c-0.2,0-0.4,0.3-0.4,0.6c-0.1,0.3,0,0.7,0,0.9c0.5-0.4,0.9-1,1.4-1C148.7,118.3,148.2,119.2,148.5,119.7z
		 M184,69.6c-0.9-2.4-1.8-4-4-3.9C181.3,67.1,182.7,68.3,184,69.6z M151.3,59.1c-0.9-0.6-1.7-1.2-2.5-1.8c-0.1,0-0.1,0.1-0.2,0.2
		c0.1,0.9,0.2,1.8,0.2,2.8C149.7,59.8,150.5,59.5,151.3,59.1z M177.7,131.4c-0.1,0-0.3,0-0.4,0c-0.1,1.4-0.3,2.8-0.3,4.3
		c0,0.6-0.1,1.2-0.7,1.5c-0.1,0.1-0.1,0.4,0,0.6c0.1,0.1,0.3,0.3,0.5,0.3c0.2,0.1,0.5,0.2,0.7,0.3c0-0.3,0.1-0.5,0.1-0.8
		c0-1.3-0.1-2.6-0.1-3.8C177.5,132.9,177.6,132.1,177.7,131.4z M187.2,131.8c-0.9-1.1-3.7-2.7-4.4-2.5
		C183.3,130.3,186.4,132.1,187.2,131.8z M180.9,36.1c-1.3,0.2-2.3,0.8-2.3,2.3C180,38.5,181.1,37.4,180.9,36.1z M177.8,64.2
		c-0.1,0.1-0.2,0.1-0.3,0.1c0.9,1.6,1.8,3.1,2.7,4.7c0.1,0,0.2-0.1,0.2-0.1c-0.1-0.3-0.1-0.5-0.2-0.8c-0.3-0.7-0.5-1.5-0.8-2.2
		c-0.1-0.2,0-0.4-0.1-0.5C178.8,65,178.3,64.6,177.8,64.2z M152.4,23.4c-1.1,1.4-2.4,4.5-2.1,5.5c0.3-0.2,0.7-0.4,0.7-0.6
		C151.6,26.6,152,25,152.4,23.4z M172.7,53c0.2,0.8,1.1,1.6,2.2,2.2c0.4-0.8,0.3-1.5-0.4-2.1C174.1,52.8,173.3,53,172.7,53z
		 M145.6,100.8c-0.3-0.8-1-0.4-1.6-0.3c-0.7,0.1-1.3,1.2-1.3,2.2C143.6,102.1,144.6,101.4,145.6,100.8z M187.4,130.6
		c-1.3-1.4-3.2-2-4.7-3.2c-0.1,0.3-0.2,0.5-0.3,0.7C184,129,185.7,129.8,187.4,130.6z M144,43.2c0,0.1,0,0.1,0,0.2
		c0.9,0.5,1.9,0.3,2.9,0.3c0.1,0,0.2-0.4,0.2-0.5c-0.4-0.7-0.9-1.3-1.3-1.9c-0.1,0-0.2,0-0.2,0.1c0,0.3,0,0.6,0.1,0.9
		c0.1,0.3,0.4,0.5,0.6,0.7c0,0.1-0.1,0.2-0.1,0.2C145.5,43.2,144.8,43.2,144,43.2z M153.3,12.2c0,0.1-0.1,0.1-0.1,0.1
		c0.5,0.6,1.1,1.1,1.5,1.7c0.3,0.4,0.4,0.7,0.9,0.5c0-0.3,0-0.5,0.1-0.9c0.6,0.2,1.2,0.5,1.8,0.7c-0.2-0.3-0.4-0.5-0.6-0.6
		c-0.8-0.3-1.6-0.6-2.5-0.9C154,12.7,153.7,12.4,153.3,12.2z M162.7,117.5c-0.1-0.1-0.1-0.1-0.2-0.2c-0.5,0-1-0.1-1.5,0
		c-0.3,0.1-0.8,0.3-0.9,0.5c-0.2,0.7-0.3,1.4-0.4,2.1c0.1,0,0.1,0.1,0.2,0.1c0.2-0.3,0.4-0.6,0.6-1c0.4-0.8,0.7-1.5,1.8-1.3
		C162.4,117.8,162.6,117.6,162.7,117.5z M178,39.7c-0.9,1.3-1.7,2.6-2.5,3.8c0.1,0,0.1,0.1,0.2,0.1c1-1.2,2.1-2.4,3.1-3.7
		C178.4,39.9,178.2,39.8,178,39.7z M177.2,119.4c0.5,1.2,1,2.2,1.6,3.4c0.4-0.4,0.8-0.6,0.3-1c-0.3-0.3-0.4-0.8-0.5-1.3
		C178.4,119.7,178,119.5,177.2,119.4z M158.9,121.9c0.6,0.5,1,0.8,1.4,1.1c0.4,0.2,0.9-0.1,0.8-0.4c-0.2-0.5-0.4-1-0.8-1.3
		C160.1,121.2,159.5,121.6,158.9,121.9z M192.5,119.8c1.1,0.3,2.2,0.4,3.2,0.9c0.7,0.3,1.1,0.3,1.5-0.2c-0.5-0.1-1.1-0.1-1.6-0.3
		C194.6,119.7,193.7,119.1,192.5,119.8z M152.3,79.1c-0.6,0.2-1,0.4-1.5,0.6c-0.4,0.2-0.8,0.4-1.1,0.7c0,0.1,0.1,0.2,0.1,0.3
		c0.6-0.3,1.2-0.7,1.4,0.4C151.8,80.4,152.4,80,152.3,79.1z M160,14.3c-1-1.1-2-2.2-3-3.3C156.8,12.1,158.7,14.2,160,14.3z
		 M175,148.3c1-0.4,1.9-0.8,2.8-1.2c0-0.1,0-0.1,0-0.2c-0.7,0-1.4,0-2.2,0c-0.1,0-0.3,0.3-0.4,0.4
		C175.1,147.6,175.1,147.8,175,148.3z M164.5,62.3c1.8,0.1,2.3-0.2,2.1-1.1C164.5,61.6,164.5,61.6,164.5,62.3z M154.1,80.9
		c1.2-0.7,1.3-1.3,0.4-2.7C154.4,79.1,154.3,80,154.1,80.9z M176.7,90.9c0.5,0.5,1.1,1,1.6,1.5C178.8,91.4,178.4,91,176.7,90.9z
		 M146.9,58.1c-0.1,1-0.2,2-0.4,3C147.3,60.5,147.5,59.3,146.9,58.1z M190,132.9c0.6-0.8,0.1-1.3-0.2-1.8c-0.1-0.1-0.3-0.2-0.3-0.2
		c-0.1,0.1-0.3,0.3-0.2,0.4C189.5,131.9,189.7,132.4,190,132.9z M151.7,13.7c0-0.1,0-0.2,0-0.3c-1.3-0.2-2.5-0.3-3.8-0.5
		c0,0.1,0,0.2,0,0.3C149.2,13.4,150.5,13.6,151.7,13.7z M158.8,118.3c0,0,0.1,0,0.1,0c0.1-0.7,0.3-1.5,0.4-2.3c0,0-0.3-0.2-0.4-0.2
		c-0.2,0.1-0.3,0.3-0.3,0.5C158.7,117,158.7,117.7,158.8,118.3z M159.9,128.1c-0.5-1-1.6-1.1-2.4-0.5
		C158.2,127.7,158.9,127.9,159.9,128.1z M161.2,13.2c0.1,0.8,0.2,1.4,0.2,2.1c0.1,0.1,0.4,0.2,0.6,0.4
		C162.3,14.6,161.9,14,161.2,13.2z M171.3,66.8c-0.6-0.7-1.1-1.4-1.8-2.2C169.5,65.7,170.5,67,171.3,66.8z M168.1,67.4
		c-0.8-0.4-1.7-0.1-1.8,0.7C167.1,68.4,167.5,67.6,168.1,67.4z M165.3,122c0,0.1,0.1,0.1,0.1,0.2c0.6-0.1,1.2-0.3,1.8-0.4
		c0-0.1,0-0.1-0.1-0.2c-0.4-0.2-0.8-0.3-1.3-0.5C165.7,121.5,165.5,121.8,165.3,122z M172.8,103.8c-0.6,1,0,1.9,0.1,2.8
		c0.1,0,0.2,0,0.2,0C173,105.7,172.9,104.7,172.8,103.8z M160.9,138.3c0.1,0,0.2,0,0.2,0c0-0.8,0-1.6,0-2.4c-0.1,0-0.2,0-0.2,0
		C160.7,136.7,160.6,137.5,160.9,138.3z M140.7,21.7c0,0.1,0,0.1,0,0.2c0.8,0.1,1.5,0.3,2.2,0.4c0.1,0,0.2-0.2,0.3-0.3
		c-0.1-0.1-0.3-0.2-0.4-0.2C142.2,21.6,141.4,21.7,140.7,21.7z M141.9,24.1c-0.1-0.1-0.1-0.2-0.2-0.3c-0.8,0-1.2,0.6-1.6,1.1
		c0.1,0.1,0.1,0.1,0.1,0.2C140.8,24.8,141.4,24.5,141.9,24.1z M167.9,117c0-0.2,0.1-0.3,0.1-0.5c-0.5-0.1-1-0.1-1.5-0.2
		c0,0.1,0,0.2-0.1,0.3C166.9,116.8,167.4,116.9,167.9,117z M150.5,15.8c0.5,0,1.1,0,1.7,0C151.6,14.9,151,15.6,150.5,15.8z
		 M169.8,40c-0.2,0.4-0.3,0.8-0.5,1.2c0.1,0,0.2,0.1,0.3,0.1C169.9,41,170.6,40.8,169.8,40z M190.4,135.4c0.3-1-0.1-1.5-0.8-1.9
		C189.8,134.1,190,134.6,190.4,135.4z M144.1,37c-0.3-0.7-0.8-0.7-1.3-0.6c0,0.1,0,0.2-0.1,0.2C143.2,36.7,143.6,36.8,144.1,37z"/>
	<path d="M139.8,150.2c0.1-0.1,0.2-0.2,0.4-0.3c0.9-0.1,1.8-0.3,2.7-0.4c2.2-0.1,4.4-0.2,6.6-0.3c0.3,0,0.5,0,0.8,0
		c-0.1,0.2-0.1,0.4-0.2,0.5c2.7,0,5.4,0,8.2,0c0,0.1,0,0.1,0,0.2c-0.1,0.1-0.3,0.2-0.4,0.3C151.8,150.2,145.8,150.2,139.8,150.2z"/>
	<path d="M167.5,55.8c-0.3,0.4-0.5,0.8-0.8,1c-0.5,0.4-1.1,0.7-1.7,0.9c-1.7,0.7-3.4,1.3-5.1,1.9c-1.4,0.5-2.7,1-4.1,1.6
		c-0.5,0.2-0.9,0.5-1.3,0.7c-0.2,0.1-0.5,0-0.8,0c0.1-0.2,0.2-0.6,0.4-0.7c0.9-0.4,1.8-0.8,2.6-1.2c2.6-1.3,5.2-2.6,7.7-3.9
		C165.4,55.5,166.4,55.6,167.5,55.8z"/>
	<path d="M163.2,55.2c-0.2-0.1-0.4-0.2-0.5-0.3c0-0.1,0-0.1,0-0.2c0.8-0.7,1.6-1.4,2.5-1.9c0.3-0.2,1,0.1,1.4,0.3
		c0.1,0,0.2,0.6,0.1,0.9c-0.2,0.5-0.5,0.8-1.1,0.8C164.7,54.7,163.8,54.4,163.2,55.2z"/>
	<path d="M163.3,50.4c-0.6-0.1-0.9-0.6-0.7-1c0.4-0.7,0.8-1.3,1.7-1.5c0.2,0,0.4,0,0.6,0c0,0.2,0,0.4-0.1,0.6
		c-0.1,0.3-0.3,0.7-0.5,1C163.9,49.8,163.6,50.1,163.3,50.4z"/>
	<path d="M164.5,50.3c-0.1,0.5-0.2,1.1-1,0.9C163.7,50.7,163.9,50.3,164.5,50.3C164.5,50.4,164.5,50.3,164.5,50.3z"/>
	<path d="M149.5,40.1c-0.4,0.3-0.7,0.5-1.1,0.9c-0.2-0.6-0.3-1-0.4-1.5c0.1-0.1,0.1-0.2,0.2-0.2c0.6,0.2,1.3,0.3,2,0.5
		c0.4,0.1,0.8,0.2,1.2,0.2c0.5,0.1,1,0.2,1.5,0.2c0.1,0,0.2,0,0.2,0c1.1-0.2,2.1-0.3,3.2-0.5c0.7-0.1,1.3-0.3,2-0.3
		c2.2-0.3,4.3-1,6.3-1.9c0.5-0.2,0.9-0.8,1.3-1.3c0.1-0.1,0.3-0.3,0.5-0.3c0.7,0,1.1,0.4,1.3,1c0.1,0.2-0.3,0.6-0.4,0.6
		c-1.5-0.1-2.8,0.7-4.2,1.2c-1.1,0.4-2.4,0.7-3.6,1c-1.3,0.3-2.6,0.5-3.9,0.6c-1.5,0.2-3,0.3-4.6,0.3
		C150.5,40.6,150,40.3,149.5,40.1z"/>
	<path d="M148.7,36.6c0.2-0.2,0.3-0.3,0.3-0.3c-0.6-0.3-1.1-0.5-1.6-0.9c-0.2-0.1-0.2-0.5-0.3-0.8c0.2,0,0.5,0,0.7,0.2
		c0.9,0.4,1.6,1.1,2.7,0.9c0.6-0.1,1.2-0.5,1.8-0.7c0.3-0.1,0.7-0.2,1-0.3c0,0.1,0.1,0.1,0.1,0.2c-0.1,0.2-0.3,0.4-0.4,0.7
		c0,0,0.1,0.1,0.1,0.2c0.2-0.1,0.5-0.2,0.5-0.4c0.2-0.7,0.8-0.6,1.3-0.5c0.1,0.7,0.2,1.3-0.4,1.8c-0.7,0.5-1.4,0.8-2.2-0.2
		c0.1-0.2,0.3-0.4,0.5-0.6C151.6,36.1,150.2,36.4,148.7,36.6z"/>
	<path d="M158.3,33.6c-0.2,1.4,0.7,2.3,1.6,3.1c-0.4,0.5-0.7,1.1-1.1,1.6c-0.3,0.4-0.8,0.3-0.8-0.1c0.2-1.3-0.6-2.3-0.5-3.6
		C157.5,34.2,157.8,33.8,158.3,33.6z"/>
	<path d="M150.6,32c0.7,0,1,0.3,1,1.1c0,0.8-0.4,1.3-1.1,1.3c-0.4,0-1.1-0.8-1.1-1.3C149.4,32.5,149.9,32.1,150.6,32z"/>
	<path d="M163.1,31.9c0-0.9,0.2-1,1.2-1c0.8,0,0.9,0.5,1,1c0.1,0.5-0.8,1.5-1.2,1.5C163.6,33.2,163.1,32.5,163.1,31.9z"/>
	<path d="M157.7,37c-0.2,0.4-0.4,0.8-0.6,1.1c-0.1,0-0.2,0-0.3,0c-0.1-0.3-0.3-0.8-0.2-0.9c0.2-0.2,0.6-0.3,0.9-0.4
		C157.7,36.9,157.7,37,157.7,37z"/>
	<path d="M179.3,73.3c0.1,0.1,0.2,0.1,0.3,0.2c0.9,1.4,1.7,2.9,2,4.6c0,0.2-0.1,0.5-0.2,0.7c-0.7-0.4-1.4-0.8-2-1.2
		c-0.1-0.1-0.3-0.3-0.3-0.5C179.2,75.8,179.2,74.6,179.3,73.3z"/>
	<path d="M178.4,21.6c-0.3,0.3-0.6,0.7-1,1c-0.9,0.7-1.7,1.4-2.6,2c-0.2,0.1-0.5-0.1-0.8-0.2c1.3-1.3,2.6-2.3,4.2-3.1
		C178.3,21.4,178.4,21.5,178.4,21.6z"/>
	<path d="M179.7,24.3c-0.4,0.3-0.7,0.7-1.1,1c-0.7,0.5-1.5,1-2.3,1.4c-0.2,0.1-0.6,0-0.9,0c0.1-0.2,0.2-0.5,0.4-0.6
		c1-0.7,2.1-1.3,3.1-2c0.1-0.1,0.4-0.1,0.6-0.1C179.6,24.2,179.7,24.2,179.7,24.3z"/>
</g>
</svg>
