<?xml version="1.0" encoding="utf-8"?>
<!-- Generator: Adobe Illustrator 24.0.2, SVG Export Plug-In . SVG Version: 6.00 Build 0)  -->
<svg version="1.1" id="Слой_1" xmlns="http://www.w3.org/2000/svg" xmlns:xlink="http://www.w3.org/1999/xlink" x="0px" y="0px"
	 viewBox="0 0 238.1 150.2" style="enable-background:new 0 0 238.1 150.2;" xml:space="preserve">
<g>
	<path d="M221.4,147.2c-0.8-0.7-1.6-1.4-2.4-2.1c-1.4-1.2-2.8-2.4-4.2-3.5c-1.7-1.4-3.4-2.7-5.1-4.1c-1.8-1.4-3.1-3-3.9-5.2
		c-1.1-3-3-5.5-5.5-7.6c-1.5-1.2-3.3-2.1-4.9-3.1c-0.5-0.3-0.9-0.7-1.2-1.2c-0.2-0.2-0.2-0.6-0.1-0.9c0.6-1.7,1.3-3.3,2-4.9
		c0.3-0.7,0.5-1.4,1-2.1c0.1,0.5,0.3,1,0.4,1.5c0.6,1.4,1.2,2.9,1.7,4.3c0.6,1.6,1.5,3,2.6,4.3c0.5,0.7,1.2,1.2,1.8,1.8
		c0.2,0.1,0.5,0.1,0.7,0.2c0.2-0.5,0.1-0.8-0.1-1.3c-1.1-1.7-1.9-3.7-2-5.8c-0.1-1.5-0.3-3-0.3-4.4c0-2,0.1-4.1,0.3-6.1
		c0.1-1,0.4-1.9,0.6-2.9c0.1,0,0.2,0,0.2,0c0.1,0.3,0.1,0.6,0.2,0.9c0.1,0.9,0.1,1.8,0.1,2.7c0,0.2,0.2,0.3,0.3,0.5
		c0.2-0.1,0.3-0.3,0.5-0.4c0.1-0.1,0.2-0.3,0.2-0.4c0.1,0,0.2,0,0.2,0.1c0,0.7,0,1.3,0,2c0.1,0,0.1,0,0.2,0c1.6-3.8,3.3-7.6,5-11.6
		c0.1,0.4,0.3,0.6,0.3,0.8c0,1.4,0.1,2.8,0,4.2c-0.1,1.7-0.4,3.4-0.6,5.1c-0.1,0.5-0.1,1-0.2,1.5c0,0,0.1,0.1,0.2,0.1
		c0.1-0.2,0.2-0.4,0.3-0.5c1.2-1.6,1.9-3.4,2.5-5.2c0.5-1.5,0.8-3.1,1.1-4.7c0.5-2.5,0.8-5,1-7.6c0.1-2.2,0.2-4.3-0.4-6.4
		c0-0.2,0.1-0.4,0.1-0.9c0.7,0.8,1.3,1.5,1.9,2.1c1.3,1.1,2.6,2.2,4,3.2c1.6,1.1,3.4,1.7,5.2,2c0.6,0.1,1.2-0.2,1.8-0.4
		c0.8-0.3,1.6-0.7,2.6-1.1c-0.5-0.1-0.9-0.3-1.2-0.2c-0.7,0.2-1.3-0.1-1.9-0.4c-1.7-1.1-2.8-2.8-4.1-4.4c-0.2-0.2-0.3-0.5-0.4-0.8
		c-0.1-0.4-0.3-0.5-0.7-0.4l0,0c0-0.2,0.1-0.3,0.1-0.5c0.2,0,0.4,0.1,0.6,0.1c1.7,1,3.5,1.6,5.6,1.1c0.3-0.1,0.6-0.3,1.1-0.5
		c-2.4-1.4-4.7-2.7-6.3-4.9c-1.5-2.2-2.9-4.5-4.3-6.7c0-0.1,0.1-0.2,0.2-0.3c0.9,0.1,1.7,0.2,2.6,0.2c1,0.1,2,0.3,3.1,0.3
		c0.9,0,2.3-1,2.6-1.8c-3,0.7-5.5-0.5-8-2c0.1-0.1,0.2-0.1,0.3-0.1c1-0.1,2-0.1,3-0.3c0.8-0.1,1.5-0.4,2.2-0.5c1.1-0.1,2-0.5,3-0.9
		c1.5-0.6,2.8-1.5,3.9-2.8c0.2-0.3,0.5-0.5,0.8-0.9c-5.5,0.7-10.1-1.2-14.3-4.7c1.5,0,2.9,0.1,4.2,0c0.8,0,1.5-0.3,2.2-0.5
		c0.2,0,0.3-0.2,0.5-0.4c-2.4-1-4.8-1.6-6.8-3.3c3.3,0.4,5.9-0.7,8.1-3.2c-0.8,0-1.6,0-2.4,0c0-0.1,0-0.1,0-0.2
		c0.5-0.1,1-0.3,1.5-0.4c3.4-0.5,5.9-2.3,8-4.9c0.4-0.5,0.7-1.1,1.1-1.6c0.1-0.1,0.2-0.1,0.3-0.2c0,34.3,0,68.6,0,103
		C230,147.2,225.7,147.2,221.4,147.2z"/>
	<path d="M234.4,40c-0.2,0.1-0.4,0.1-0.6,0.3c-1.4,1.1-3,1.8-4.7,2.2c-2.2,0.6-4.4,0.9-6.6,0.3c-1.5-0.4-3-0.7-4.4-1.1
		c-1.8-0.6-3.2-1.8-4.3-3.3c-1.2-1.7-2.3-3.4-3.5-5.2c-1.5-2-2.9-4.1-4.5-6.1c-1.5-2-3.1-3.9-4.7-5.8c-1-1.2-2-2.3-3.1-3.4
		c-1.6-1.6-3.1-3.2-4.8-4.7c-2.2-1.9-4.5-3.7-6.7-5.4c-1.1-0.9-2.3-1.6-3.5-2.3c-1.4-0.7-2.8-1.3-4.2-2c-0.9-0.4-1.8-0.7-2.8-1.1
		c-0.3-0.1-0.6-0.2-0.9-0.3c19.8,0,39.6,0,59.4,0C234.4,14.9,234.4,27.5,234.4,40z"/>
	<path d="M174.4,147.2c0.1-0.3,0.1-0.6,0.2-0.8c0.8-1.1,1.5-2.2,2.4-3.3c1.5-1.8,3.1-3.7,4.6-5.5c1.1-1.3,2.3-2.5,3.5-3.8
		c0.7-0.8,1.4-1.6,2.2-2.4c0.5-0.5,1.3-0.4,1.6,0.2c0.8,1.6,1.5,3.2,2.4,4.7c0.8,1.4,1.7,2.7,2.6,4c1.1,1.5,2,3,2.8,4.7
		c0.3,0.7,0.4,1.4,0.6,2.1C189.7,147.2,182.1,147.2,174.4,147.2z"/>
	<path d="M199.4,147.2c0.4-1.5,0.9-3,1.2-4.5c0.4-2.1,0.6-4.2,0.3-6.3c-0.4-3.3-1.7-6.2-2.9-9.2c-0.4-1.1-0.9-2.3-1.2-3.5
		c0.7,0.4,1.5,0.8,2.1,1.3c0.7,0.5,1.3,1,1.9,1.6c0.8,0.9,1.7,1.7,2.4,2.7c0.6,0.9,1.1,2,1.5,3.1c1.1,2.4,2.1,4.9,3.1,7.4
		c0.5,1.3,1,2.6,1.6,3.9c0.5,1.2,1.1,2.5,1.6,3.7c-0.7,0-1.4,0-2.1,0c-0.6-1.9-1.2-3.8-1.8-5.7c-0.1,0-0.1,0-0.2-0.1
		c-0.2,0.6-0.6,1.2-0.7,1.8c-0.3,1.3-0.6,2.7-0.8,4C203.4,147.2,201.4,147.2,199.4,147.2z"/>
	<path d="M139.3,147.2c0.3-1.4,0.6-2.9,1-4.3c0.6-1.7,1.3-3.4,2.1-4.9c0.8-1.6,1.7-3.2,2.7-4.6c0.6-0.9,1.6-1.5,2.4-2.2
		c0.6-0.5,1.2-0.3,1.7,0.3c0.7,1.1,1,2.3,0.9,3.5c0,2.1-0.1,4.2-0.3,6.2c-0.1,2-0.3,4-0.5,6C146,147.2,142.7,147.2,139.3,147.2z"/>
	<path d="M154.7,147.2c0.4-1.1,0.7-2.1,1.1-3.2c0.5-1.3,1.1-2.5,1.6-3.8c0.3-0.6,0.5-1.3,1.3-1.3c0.9-0.1,1.2,0.3,1.8,1.1
		c1.3,2.2,1.5,4.7,1.9,7.2C159.8,147.2,157.3,147.2,154.7,147.2z"/>
	<path d="M206.2,29.5c-6.8-4.6-13.4-9.4-20.9-12.7c0,0.1-0.1,0.1-0.2,0.2c0.6,0.5,1.2,1,1.8,1.4c1.5,1.1,3,2.1,4.4,3.2
		c2.5,2,5,4,7.4,6.1c1.4,1.2,2.8,2.4,4.2,3.6c1.2,1,2.4,2,3.6,3.1c1,0.8,2,1.6,3,2.4c1.3,1.1,2.6,2.2,4,3.2c1.6,1.2,3.3,2.3,5.2,2.9
		c1,0.3,1.9,0.6,2.9,0.8c1.9,0.4,3.8,0.2,5.6,0.2c0.9,0,1.9-0.5,2.8-0.7c0.1,0,0.3,0,0.5,0.1c-1.4,0.8-2.9,1.4-4.4,1.8
		c-1.3,0.3-2.6,0.6-4,0.5c-1.2-0.1-2.4-0.3-3.6-0.5c-0.7-0.1-1.4-0.3-2.1-0.5c-1.4-0.4-2.7-0.8-4-1.3c-1.6-0.6-3.2-1.1-4.6-2
		c-2-1.2-4-2.6-5.8-4.1c-1.9-1.5-3.5-3.4-4.9-5.4c-0.2-0.2-0.4-0.3-0.7-0.5c-0.1,0-0.1,0-0.2,0.1c0.3,1,0.5,2,0.8,2.9
		c0,0-0.1,0-0.1,0c-0.9-1.1-1.7-2.2-2.6-3.3c-0.3-0.4-0.7-0.8-1-1.2c-1.9-2-3.8-3.9-6.1-5.4c-1.7-1.2-3.4-2.5-5.2-3.5
		c-1.6-0.9-3.4-1.5-5-2.3c-1.3-0.6-2.7-0.4-4-0.8c-0.2,0-0.4,0.2-0.6,0.2c0.1,0.2,0.2,0.4,0.4,0.5c1.5,0.9,2.9,1.8,4.4,2.8
		c2.2,1.5,4.4,3,6.5,4.5c1.2,0.9,2.3,1.9,3.4,2.9c1,0.8,2.1,1.6,3.1,2.5c1.1,1,2.2,2.1,3.2,3.2c1.2,1.3,2.4,2.6,3.5,3.9
		c1,1.3,2,2.7,2.9,4.1c0.7,1,1.2,2,1.8,3.1c0.1,0.1,0.1,0.3,0.1,0.4c0,0-0.1,0.1-0.2,0.1c-0.3-0.4-0.5-0.8-0.8-1.1
		c-1.4-1.7-2.8-3.5-4.2-5.2c-0.6-0.7-1.4-1.4-2.1-2c-0.2-0.1-0.4-0.2-0.6-0.2c-0.1,0.2-0.2,0.5-0.2,0.7c0.4,1.2,0.9,2.5,1.4,3.7
		c1.6,3.8,3.5,7.4,5.6,10.9c0.7,1.1,1.4,2.2,2.2,3.3c2,2.7,4,5.4,6,8.1c0,0,0,0.1,0,0.4c-3.5-3.8-7-7.4-10.4-11.1
		c-0.1,0-0.2,0.1-0.3,0.1c0.2,0.6,0.3,1.2,0.5,1.8c0.5,1.2,1.1,2.4,1.7,3.5c0.8,1.3,1.7,2.5,2.6,3.8c0.8,1,1.5,2.1,2.3,3.1
		c0,0-0.1,0.1-0.1,0.2c-0.6-0.4-1.3-0.8-1.9-1.3c-1-0.9-2-1.8-2.9-2.8c-1.1-1.1-2.1-2.1-3.1-3.2c-1.4-1.6-2.7-3.3-3.9-5
		c-1.3-1.8-2.4-3.8-3.5-5.7c-0.8-1.4-1.5-2.9-2.1-4.4c-1.3-2.9-2.3-5.9-3-9.1c-0.1-0.4-0.3-0.8-0.4-1.2c-0.1,0-0.2,0-0.3,0
		c-0.1,0.5-0.4,1.1-0.4,1.6c0.1,1.5,0.2,3,0.4,4.4c0.2,1.7,0.5,3.4,0.8,5.1c0,0.1,0,0.2,0,0.5c-3.7-5.5-7.4-10.9-11-16.3
		c-0.6,0.2-0.6,0.6-0.3,1c1.1,2,2.2,4.1,3.3,6.1c0.5,1,0.9,2,1.3,3.1c0.9,2.4,1.8,4.7,2.4,7.2c0.2,1.1,0.6,2.2,0.8,3.4
		c-0.1,0-0.1,0-0.2,0.1c-0.3-0.9-0.7-1.8-1-2.6c-1.4-3.5-2.4-7.2-4.3-10.5c-0.9-1.7-2-3.3-3.1-4.8c-1.1-1.4-2.5-2.7-3.7-4
		c-1.2-1.3-2.6-2.4-4.1-3.4c-0.4-0.3-0.7-0.6-1.1-0.8c-0.1-0.1-0.3-0.1-0.5-0.2c0,0.2-0.1,0.4,0,0.6c0.2,0.5,0.5,1,0.8,1.5
		c0.3,0.4,0.5,0.8,0.8,1.2c1.3,2.2,2.6,4.3,3.8,6.5c1.1,2,2.1,4,2.9,6.1c1,2.5,1.9,5.1,2.6,7.7c0.3,1.1,0.1,2.4,0.1,3.5
		c0,0.8,0,1.6-0.2,2.5c-0.3,1.7-0.5,3.5-0.8,5.2c-0.1,0.6-0.3,1.2-0.5,1.8c0,0.1-0.1,0.2-0.3,0.4c-0.2-1.3-0.4-2.4-0.5-3.5
		c-0.3-2-0.5-3.9-0.7-5.9c-0.2-1.4-0.4-2.8-0.6-4.2c-0.2-1.2-0.5-2.3-0.8-3.5c0-0.1-0.2-0.2-0.3-0.3c-0.1,0.1-0.3,0.2-0.3,0.4
		c-0.1,1-0.1,2-0.1,3.1c-0.1,1.9-0.1,3.8-0.1,5.7c0,0.9-0.1,1.7-0.1,2.6c-0.1,2.3-0.2,4.6-0.3,6.9c0,0.5-0.3,0.7-0.8,0.6
		c-0.3,4.5-0.8,8.9-2.7,13c0-1.2,0-2.5,0-3.7c0.1-3.3,0.2-6.6,0.3-9.9c0.1-2.3,0.1-4.6,0.1-7c0-1.4-0.3-2.8-0.4-4.2
		c0-0.2,0-0.4,0.1-0.6c0.3,0.7,0.6,1.4,0.9,2.1c0.4,1.4,0.8,2.8,1.2,4.3c0.1,0.5,0.2,1,0.4,1.6c0,0.1,0.2,0.3,0.4,0.3
		c0.1,0,0.2-0.2,0.3-0.3c0.1-0.2,0.1-0.5,0.1-0.7c0-1.5,0.1-3.1,0-4.6c-0.1-1.5-0.3-3-0.6-4.4c-0.2-1.5-0.5-2.9-0.8-4.3
		c-0.3-1.3-0.7-2.7-1-4c-0.4-1.4-0.7-2.9-1.1-4.3c-0.4-1.3-0.9-2.7-1.3-4c0-0.2-0.3-0.3-0.4-0.3c-0.1,0-0.3,0.2-0.4,0.3
		c-1,2-1.8,4-2.2,6.2c-0.4,2.1-0.7,4.2-0.8,6.4c-0.2,2.5-0.3,5.1-0.3,7.6c0.1,2.5,0.4,5,0.8,7.5c0.2,1.7,0.5,3.3,1,5
		c0.5,1.7,1.1,3.3,1.7,4.9c0.3,0.9,0.7,1.8,1.1,2.6c-0.1,0-0.1,0.1-0.2,0.1c-0.4-0.7-0.9-1.5-1.3-2.2c-0.5-0.8-1.1-1.6-1.5-2.4
		c-1.1-2.1-2-4.4-2.2-6.9c-0.1-1.2-0.2-2.4-0.3-3.6c-0.1-2.1-0.1-4.2-0.2-6.3c0-0.9-0.2-1.8-0.3-2.9c-0.7,0.6-0.5,1.2-0.6,1.7
		c0,0.7,0.1,1.3,0.1,2c0.1,1.8,0.1,3.6,0.1,5.3c0.1,2,0.2,4,0.4,6c0.2,1.7,0.6,3.4,1,5.1c0.4,1.8,0.8,3.6,1.4,5.3
		c0.9,2.8,2,5.6,3.5,8.2c0.6,1,1.3,2,1.9,3.1c-0.8-0.6-1.7-1.1-2.4-1.8c-1-1-2.1-2-2.9-3.1c-0.9-1.2-1.8-2.6-2.5-3.9
		c-0.7-1.3-1.3-2.6-1.7-4c-0.7-2.1-1.2-4.1-1.8-6.2c-0.5-1.8-0.9-3.6-1.3-5.4c-0.3-1.5-0.4-3-0.6-4.5c-0.1-1.1-0.2-2.3-0.1-3.4
		c0.1-1.6,0.4-3.1,0.6-4.6c0.1-0.5,0-1,0-1.5c-0.1,0-0.1,0-0.2,0c-0.3,1.1-0.7,2.3-1,3.4c-0.3,1.2-0.7,2.3-1,3.5
		c-0.3,1.4-0.6,2.9-0.7,4.3c-0.1,1.4-0.2,2.8-0.2,4.2c0,2.1,0.5,4.2,1.2,6.2c0.6,1.4,1.3,2.8,2,4.2c0.9,1.6,2,3.2,3,4.8
		c0.3,0.4,0.5,0.8,0.7,1.2c0,0-0.1,0.1-0.1,0.1c-0.8-0.7-1.6-1.4-2.3-2.2c-1.4-1.5-2.9-2.9-4.2-4.5c-2.4-2.8-3.9-6-4.8-9.6
		c-0.4-1.9-0.8-3.8-0.7-5.8c0-1.6-0.2-3.1-0.2-4.7c0-0.4-0.1-0.6-0.4-0.3c0-1.7-0.1-3.4,0-5.1c0.1-1.8,0.4-3.6,0.7-5.4
		c0.3-1.5,0.7-3,1-4.5c0.2-0.9,0.4-1.8,0.7-2.7c0.4-1.3,0.9-2.6,1.5-3.8c0.7-1.6,1.4-3.2,2.3-4.8c0.7-1.3,1.5-2.5,2.4-3.7
		c1-1.4,2-2.8,3-4.3c0.2-0.3,0.5-0.9,0-1.2c-0.3-0.2-0.9-0.1-1.3,0.2c-1.1,0.6-2.1,1.4-3.1,2.1c-1.5,1-2.9,2-4.2,3.1
		c-2.3,1.9-4.4,4.1-6.4,6.2c-0.4,0.4-0.6,0.9-0.9,1.4c-0.1,0.2,0,0.5,0.1,0.8c0.2-0.1,0.4-0.1,0.6-0.3c1.3-1,2.6-1.9,3.8-2.9
		c0.6-0.5,1.3-1,1.9-1.5c0.1-0.1,0.2,0,0.4-0.1c-0.6,1.3-1.2,2.4-1.7,3.6c-0.6,1.1-1.2,2.2-1.7,3.4c-0.8,1.9-1.6,3.9-2.3,5.9
		c-0.7,2-1.3,4-1.7,6c-0.6,2.7-1,5.4-1.5,8.2c-0.3,1.4-0.8,2.7-1.2,4c-0.8,2.5-1.5,5-2.3,7.5c-0.8,2.5-1.2,4.9-1.3,7.5
		c-0.1,2.2-0.1,4.4-0.1,6.6c0,0.2,0,0.5,0,0.7c-0.1,0-0.1,0-0.2,0.1c-0.2-0.5-0.5-1.1-0.6-1.6c-0.3-1.7-0.6-3.3-0.8-5
		c-0.1-1.3,0-2.7,0.1-4c0.1-1.4,0.3-2.8,0.4-4.1c0.1-0.7,0.2-1.3,0.3-2c0.3-1.8,0.7-3.5,1-5.3c0.4-2.3,0.9-4.5,1.7-6.6
		c0.6-1.8,1.3-3.5,2-5.3c0.5-1.3,1.2-2.5,1.4-4c0-0.2-0.1-0.4-0.2-0.6c-0.2,0.1-0.4,0.2-0.5,0.3c-0.9,1.4-1.8,2.7-2.7,4.1
		c-0.9,1.3-1.7,2.7-2.6,4c-0.8,1.2-1.8,2.3-2.5,3.5c-0.9,1.5-1.7,3.1-2.4,4.7c-0.5,1.2-1,2.4-1.4,3.6c-0.4,1.7-0.8,3.5-1,5.2
		c-0.2,1.6-0.2,3.2-0.3,4.8c0,1.4,0,2.9,0,4.3c0,1.2-0.1,2.4-0.1,3.6c0,1.8,0.2,3.7,0.3,5.5c0,0.2,0,0.4,0,0.6c-0.1,0-0.1,0-0.2,0
		c-0.1-0.5-0.2-0.9-0.4-1.4c-0.6-2-0.8-4-0.8-6.1c0-1.2-0.2-2.4-0.1-3.6c0.1-2.2,0.3-4.5,0.7-6.6c0.5-2.9,1.2-5.8,1.9-8.7
		c0.4-1.7,1.1-3.4,1.7-5c0.7-1.8,1.4-3.5,2.1-5.3c0.4-1.1,1-2.1,1.4-3.2c1-2.3,2-4.6,2.9-6.9c0.1-0.2,0-0.5,0.1-0.8
		c-0.1,0-0.1,0-0.2-0.1c-0.4,0.7-0.9,1.4-1.3,2.1c-0.7,1.1-1.5,2.2-2.1,3.4c-1.8,3-3.6,6-4.8,9.3c-0.8,2.2-1.8,4.4-2.5,6.7
		c-0.6,1.9-1,3.9-1.4,5.8c-0.5,2-0.9,4-1.4,5.9c-0.6,2.6-1.2,5.1-1.1,7.8c0.1,2.4-0.1,4.7-0.1,7.1c0,1.7-0.2,3.5-0.1,5.2
		c0.1,1.9,0.4,3.8,0.7,5.7c0.3,1.6,0.7,3.1,1,4.7c-0.5-0.8-1.1-1.6-1.6-2.5c-0.9-1.6-1.6-3.4-2-5.3c-0.5-2-1.1-4-1.5-6
		c-0.2-0.8-0.1-1.8,0.1-2.6c0.3-1.5,0.7-3.1,1.1-4.6c0.2-0.9,0.5-1.8,0.7-2.8c0.1-0.2,0-0.5,0-0.7c-1.8,3.1-2.4,6.6-3,10.1
		c-0.1,0-0.1-0.1-0.1-0.1c0-2.9-0.2-5.7-0.1-8.6c0-1.4,0.3-2.8,0.6-4.2c0.2-1.2,0.5-2.4,0.8-3.6c0.4-1.4,0.8-2.8,1.3-4.1
		c0.7-2,1.4-4,2.2-5.9c0.6-1.4,1.2-2.7,1.9-4c0.5-1.1,1.1-2.1,1.6-3.1c1.3-2.2,2.6-4.3,3.9-6.5c0.9-1.5,1.8-3.1,2.6-4.6
		c0.7-1.3,1.5-2.6,2.2-3.9c0.3-0.5,0.6-1,0.9-1.6c0.5-1,1-1.9,1.6-2.9c0-0.1,0-0.2,0.1-0.5c-1.1,0.9-2.1,1.6-3.1,2.5
		c-1.9,1.8-3.9,3.6-5.7,5.6c-1.5,1.6-2.8,3.4-3.9,5.3c-1.8,3.1-3.3,6.3-4.9,9.5c-0.1,0.2-0.2,0.4-0.5,0.6c0.2-0.8,0.4-1.6,0.6-2.4
		c0.9-2.5,1.7-5,2.7-7.4c0.9-2.1,2.1-4.1,3.2-6.1c1-1.8,2.1-3.5,3.2-5.3c0.3-0.5,0.7-0.9,0.9-1.4c0.1-0.2,0.2-0.5,0.2-0.7
		c-1.6,0.7-2.9,1.9-4,3.2c-1.2,1.3-2.2,2.7-3.2,4.1c-0.7,0.9-1.3,1.9-1.8,2.9c-1,1.8-2,3.7-2.8,5.6c-1.5,3.8-2.7,7.7-3.4,11.7
		c-0.4,2.5-1.2,4.8-2.3,7c-0.1,0.1-0.1,0.2-0.2,0.4c0.5-4.9,1.2-9.7,2.4-14.4c1.2-4.7,3.4-9,5.8-13.1c-0.1-0.1-0.2-0.1-0.2-0.2
		c-0.3,0.2-0.6,0.4-0.8,0.7c-0.8,1.2-1.4,2.4-2.2,3.6c-1,1.6-2,3.1-3,4.6c-1.6,2.3-3.3,4.5-4.8,6.8c-1.6,2.4-2.9,4.9-3.9,7.6
		c-0.6,1.7-1.1,3.4-1.6,5.1c-0.5,1.8-0.7,3.7-0.6,5.6c0,0.7,0.1,1.4,0.1,2.2c0,0.3-0.1,0.5-0.1,1c-0.8-1.3-1.3-2.6-1.3-4
		c-0.1-1.6-0.3-3.3-0.3-4.9c0-1.5,0.3-3,0.5-4.4c0.1-0.8,0.3-1.7,0.6-2.5c0.4-1.1,0.8-2.2,1.3-3.2c0.5-1,1-1.9,1.5-2.9
		c1.1-1.9,2.3-3.7,3.8-5.3c0.9-0.9,1.6-2,2.5-3c1.4-1.5,2.9-3,4.4-4.5c1.5-1.5,3-3,4.6-4.4c1.9-1.9,3.9-3.8,5.8-5.6
		c0.4-0.4,1-0.7,1.5-1.1c1.5-1,3-2,4.5-3c0.3-0.2,0.6-0.3,0.4-0.8c-0.5,0.2-1,0.5-1.6,0.7c0,0,0-0.1-0.1-0.1
		c0.6-0.4,1.2-0.8,1.7-1.2c1.2-0.7,2.4-1.5,3.7-2.2c1.5-0.9,3.1-1.6,4.6-2.5c1.8-0.9,3.5-1.8,5.3-2.7c1.4-0.7,2.7-1.5,4.1-2.3
		c0-0.1-0.1-0.2-0.1-0.3c-1.7,0.4-3.4,0.8-5.2,1.3c-1.7,0.5-3.4,1-5.1,1.6c-1.7,0.6-3.4,1.2-5.1,1.8c0,0-0.1-0.1-0.1-0.2
		c0.6-0.4,1.1-0.8,1.7-1.2c1-0.7,1.9-1.3,2.9-2c0.1-0.1,0.1-0.4,0.2-0.6c-0.2,0-0.3,0-0.5,0c-0.6,0.2-1.2,0.3-1.8,0.6
		c-0.9,0.4-1.8,0.8-2.6,1.2c-1,0.5-2.1,1-3,1.7c-2.1,1.5-4.2,3-6.3,4.5c-1.3,0.9-2.6,1.7-3.9,2.5c0,0-0.1,0-0.3,0
		c0.9-0.8,1.7-1.4,2.4-2.1c0.5-0.5,1-1.1,1.5-1.6c1.7-1.6,3.4-3.2,5.1-4.7c1.5-1.2,3-2.3,4.6-3.4c1.4-1,2.9-2,4.4-3
		c1.8-1.1,3.5-2.2,5.4-3.3c1.2-0.6,2.4-1.3,3.7-1.6c1.2-0.3,2.5-0.3,3.8,0.1c0.8,0.2,1.8,0.2,2.6,0.3c0.9,0.2,1.8,0.5,2.7,0.7
		c0.6,0.2,1.2,0.3,1.8,0.6c1,0.4,2,1,3.1,1.4c0.8,0.4,1.8,0.2,2.4-0.4c1.5-1.5,2.9-3,4.5-4.3c1-0.8,2.2-1.5,3.6-1.6
		c0.5,0,1-0.3,1.5-0.2c0.9,0.1,1.7,0.3,2.5,0.5c0.7,0.2,1.5,0.3,2.2,0.6c0.9,0.3,1.7,0.4,2.5,1c0.7,0.5,1.6,0.7,2.4,1.1
		c0.9,0.4,1.8,1.1,2.6,1.5c1.9,0.9,3.3,2.3,4.9,3.4c1,0.7,1.9,1.7,2.9,2.5c1.6,1.5,3.3,2.9,4.8,4.4c1.5,1.5,2.8,3.2,4.3,4.8
		c0.6,0.7,1.2,1.3,1.8,2c0.8,0.9,1.5,1.9,2.2,2.8c0.5,0.6,1,1.2,1.4,1.8C206.3,29.4,206.3,29.4,206.2,29.5z"/>
	<path d="M143.5,94.7c-0.1,0.7-0.2,1.4-0.2,2.1c-0.2,1.4-0.7,2.9-0.1,4.3c0.3,0.8,0.8,1.5,1.3,2.1c0.6,0.7,1.3,1.3,2.1,1.8
		c0.7,0.5,1.4,1,2.3,0.9c0.2,0,0.4-0.1,0.8-0.2c-0.6-0.6-1-1-1.5-1.5c-0.9-0.8-1.8-1.6-2.2-2.8c-0.1-0.3-0.2-0.5-0.2-0.8
		c-0.1-0.7,0.5-0.8,0.9-0.9c1.8-0.7,2.2-1.7,1.1-3.5c-0.6-0.9-1.2-1.8-1.8-2.6c1.2-1.1,2.7-1.7,4.2-2.1c1-0.3,2.1-0.4,3.1-0.7
		c1.1-0.2,2.2-0.5,3.3-0.8c0.5-0.1,1-0.2,1.5-0.3c0-0.1,0-0.2,0-0.2c-0.2-0.1-0.5-0.3-0.7-0.3c-0.8,0-1.5,0-2.3,0
		c-0.4,0-0.6-0.2-0.6-0.5c-0.1-1.5-0.3-3-0.4-4.5c0-0.5-0.1-1-0.2-1.7c2.4,1.3,3.6,3.5,4.9,5.6c0.8-1.2-0.2-4.3-1.8-5.9
		c0.6-0.1,1.1-0.1,1.5-0.3c0.4-0.1,0.8-0.3,1-0.5c0.3-0.5,0.6-0.3,0.7,0c0.8,1.2,1.6,2.5,2.4,3.7c0.5-0.2,0.5-0.5,0.3-0.9
		c-0.2-0.3-0.3-0.6-0.4-0.9c2.1,1.2,4,2.8,6.7,1.7c-0.8-0.6-1.6-1.1-2.1-1.8c-0.8-0.9-1.3-2-1.9-3c-0.1-0.1,0.1-0.5,0.2-0.6
		c1.1-0.9,1.7-2.1,2.2-3.4c0.3-0.7,0.6-1.5,1-2.2c-0.4,1.4-0.7,2.8-1.1,4.3c1.6-0.5,2.3-1.9,3-3.1c0,0,0.1,0.1,0.1,0.1
		c0.1,0.7,0.1,1.4,0.2,2.2c1.4-0.6,2.7-1.1,4-1.7c0,2.5-0.2,5.1,0.7,7.5c0.1,0,0.1,0,0.2,0c0-0.5,0.1-1,0.1-1.5
		c0-2.2,0.5-4.4,1.4-6.5c0-0.1,0.1-0.1,0.1-0.1c0.1,0,0.1,0,0.3,0c-0.2,2.8,0.6,5.4,2.5,7.6c-1.3,0.6-2.5,1.2-3.6,1.7
		c-0.4,0.2-0.7,0.3-1.1,0.6c-0.1,0.1-0.3,0.2-0.2,0.3c0,0.1,0.2,0.3,0.3,0.3c0.8,0.2,1.2,0.8,1.5,1.5c1,2.2,2.6,3.9,4.3,5.5
		c0.1,0.1,0.3,0.2,0.5,0.3c0.8,0.6,1.2,0.5,1.4-0.5c0.3-1.4,0.5-2.7,0.8-4.1c0.2-1.1,0.3-2.2,0.8-3.3c0.2-0.5,0.6-1.1,1.2-1.5
		c1.8-1.1,2.1-0.9,3.6-1c1,0,2-0.3,3-0.5c0.2,0,0.5,0,0.7-0.1c0.3-0.1,0.7-0.1,1-0.3c0.7-0.2,1.3-0.5,1.9-1c0.1-0.1,0.2-0.3,0.3-0.4
		c-0.2-0.1-0.3-0.2-0.5-0.2c-1.1,0-2.3,0-3.5,0c0-0.3,0-0.6,0.1-0.8c0.8-2.1,0.8-4.3,0.7-6.6c-0.1-1.3-0.4-2.7-1.2-3.7
		c-0.8-1.1-2-1.5-3.3-1.8c-0.4-0.1-0.8-0.2-1.2-0.4c0.6-0.4,1.2-0.9,1.9-1.1c0.2-0.1,0.7,0.2,0.9,0.3c1.2,0.8,2.4,1.6,3.6,2.3
		c1.4,0.8,2.9,1.5,4.5,1.6c0.4,0,0.6,0.2,0.6,0.6c0,2.2,0,4.4-0.4,6.6c-0.3,1.4-0.6,2.8-1.1,4.1c-0.5,1.3-1.1,2.6-1.7,3.9
		c0,0.1-0.1,0.1-0.1,0.3c0.9,0.3,1.5-0.3,2.2-0.6c0.8-0.4,1.4-1,2-1.7c0.4-0.5,0.9-0.8,1.5-1.3c0,0.8,0.1,1.4,0,2
		c-0.3,1.7-0.6,3.3-0.9,5c-0.4,2.1-0.8,4.1-1.2,6.1c-0.3,1.6-0.6,3.3-1,4.9c-0.4,1.5-0.8,3.1-1.5,4.5c-0.8,1.6-1.9,3.1-3.1,4.4
		c-1.7,1.9-3.5,3.6-5.4,5.3c-2.1,1.9-4.4,3.6-6.6,5.4c-2,1.6-4,3.1-6,4.6c-1.5,1.1-3.1,1.3-4.8,0.5c-0.8-0.4-1.7-0.6-2.5-0.9
		c-1.4-0.5-2.8-0.9-4.2-1.5c-1.8-0.7-3.6-1.4-5.3-2.3c-2.1-1-4.1-1.9-6.1-3.1c-1.8-1-3.5-2.2-5.1-3.4c-0.7-0.5-1.2-1.1-1.7-1.8
		c-0.9-1.2-1.9-2.3-2.6-3.6c-0.8-1.5-1.4-3.2-1.5-5c0-2.8,0.5-5.5,1.3-8.2c0.1-0.2,0.1-0.5,0.1-0.7
		C143.4,94.6,143.4,94.6,143.5,94.7z M165.7,89.7c-0.1,0-0.1,0-0.2,0.1c-0.2,0.9-0.3,1.8-0.5,2.6c-0.4,1.5-0.9,2.9-1.4,4.4
		c-0.2,0.6-0.2,1.2,0.3,1.7c0.8,1,1.6,2,2.5,2.9c0.5,0.6,1.2,0.8,2,0.6c0.9-0.2,1.6-0.8,2.2-1.6c0.4-0.4,0.3-1.3-0.2-1.6
		c-0.8-0.5-1.6-0.9-2.5-1.3c-0.8-0.4-1.4-0.8-1.6-1.7c-0.1-0.4-0.2-0.9-0.2-1.4c0-1.3,0-2.7,0-4C166,90.2,165.8,90,165.7,89.7z
		 M168.5,112.3c0.6,0.3,1.2,0.6,1.8,0.8c0.5,0.1,1,0.2,1.5,0.2c0.8,0.1,1.6,0.1,2.3,0.3c0.9,0.3,1.7-0.1,2.6,0c0.5,0,1-0.1,1.5-0.2
		c0.8-0.2,1.2-1,0.9-1.7c-0.2-0.6-1.6-1.7-2.3-1.7c-2.3-0.1-4.6,0-6.8,1C169.5,111.2,169,111.5,168.5,112.3z M182,103.2
		c-0.2,0-0.3,0-0.4,0.1c-1.3,0.8-2.8,1.1-4.2,1.4c-1.3,0.2-2.5,0.5-3.8,0.7c-0.7,0.1-1.3,0.2-2,0.3c-0.7,0.1-1.4,0.3-2.1,0.5
		c-0.6,0.1-1.3,0.2-1.9,0.3c-1.2,0.2-2.3,0.5-3.5,0.7c-0.8,0.1-1.5,0-2.1-0.7c-0.4-0.4-0.9-0.8-1.3-1.2c-0.1,0-0.1,0-0.2,0.1
		c0.1,0.3,0.1,0.7,0.3,1c1.1,1.5,2.7,2,4.6,1.6c0.9-0.2,1.8-0.3,2.8-0.5c0.1,0,0.2,0,0.3,0c1-0.2,1.9-0.3,2.9-0.5
		c0.7-0.1,1.3-0.2,2-0.3c1.2-0.2,2.4-0.6,3.6-0.7c1.3-0.1,2.5-0.5,3.6-1.1C181,104.4,181.9,104.3,182,103.2z M171.9,100
		c0.7-0.3,1.3-0.6,2-1c0.1,0,0-0.3-0.1-0.5c-0.1-0.1-0.3-0.2-0.4-0.1c-0.6,0.3-1.1,0.5-1.6,0.9c-0.1,0.1-0.3,0.3-0.2,0.4
		C171.5,99.8,171.7,99.9,171.9,100z"/>
	<path d="M76.3,37.9c-0.5,0.5-0.9,1.1-1.5,1.5c-0.7,0.6-0.9,1.2-0.7,2.1c0.4,1.8-0.1,3.4-1.2,4.8c0,0.1-0.1,0.1-0.1,0.1
		c-1.1,1-0.3,2.2-0.3,3.3c0,0.1,0.1,0.2,0.1,0.2c-0.1,1.2,0.6,1.5,1.7,1.8c0.9,0.3,1.7,1,2.4,1.8c0.6,0.7,0.9,1.7,1.4,2.5
		c0.2,0.3,0.6,0.6,0.9,0.7c0.8,0.3,1.7,0.5,2.5,0.8c0,0.1,0,0.2,0,0.2c-0.7,0.2-1.4,0.4-2.1,0.6c-0.8,0.2-1.4,0.5-1.7,1.3
		c-0.5,1.7-1.6,2.9-3.2,3.4c-1.6,0.5-1.7,1.7-2.1,2.9c0,0,0,0,0,0.1c-0.7,1.2-0.1,2,0.8,2.9c0.5,0.6,0.8,1.5,0.9,2.3
		c0.1,0.9-0.1,1.8,0,2.7c0,0.4,0.2,0.9,0.4,1.2c0.5,0.6,1.2,1.2,1.8,1.8c0,0.1-0.1,0.1-0.1,0.2c-0.6-0.1-1.3-0.3-1.9-0.4
		c-0.5-0.1-0.9-0.1-1.4-0.2c-0.1,0-0.3,0.1-0.3,0.2c-0.5,0.9-1.4,1.3-2.3,1.6c-0.9,0.3-1.9,0.7-3,0.1c-0.3-0.2-0.8-0.3-1.2-0.3
		c-0.3,0-0.8,0.1-1,0.3c-0.6,0.5-1.2,1.1-1.5,1.8c-0.2,0.5-0.1,1.2,0.1,1.8c0.3,0.9,0.4,1.8,0,2.7c-0.3,0.7-0.6,1.4-0.9,2.1
		c-0.2,0.4-0.6,0.7-0.8,1.1c-0.1,0.3-0.1,0.7-0.1,1c0.1,0.8,0.3,1.5,0.5,2.3c0,0.1,0,0.2-0.1,0.4c-0.5-0.6-1-1.2-1.6-1.7
		c-0.3-0.2-0.7-0.5-1-0.5c-0.9-0.1-1.8,0-2.7,0c-0.9-0.1-1.7-0.3-2.3-0.9c-0.1-0.1-0.3-0.2-0.5-0.4c-0.6-0.5-1.2-0.5-1.9-0.1
		c-0.5,0.2-1,0.3-1.5,0.4c-0.7,0.2-1.3,0.4-1.6,1.2c-0.7,2.1-2.3,3.3-4.3,4c-0.2,0.1-0.4,0.4-0.5,0.7c-0.3,0.9-0.5,1.8-0.7,2.7
		c0,0.1-0.2,0.2-0.3,0.4c-0.3-0.9-0.6-1.7-0.7-2.5c-0.1-0.9-0.7-1.5-1.4-1.8c-2-0.8-3-2.3-3.4-4.3c-0.1-0.6-0.4-0.8-1-0.9
		c-0.6-0.1-1.2-0.4-1.9-0.5c-0.6-0.1-1.2-0.2-1.7,0.4c-0.7,0.8-1.7,1.5-2.8,1.6c-1,0.2-2.1-0.1-3.1-0.1c-0.2,0-0.4,0-0.5,0.1
		c-0.8,0.8-1.7,1.6-2.5,2.4c0,0-0.1,0-0.2,0.1c0-0.2-0.1-0.3,0-0.4c0.2-0.8,0.4-1.6,0.7-2.5c0.2-0.7-0.1-1.4-0.5-1.9
		c-1.3-1.6-1.5-3.3-1.1-5.2c0.1-0.6-0.1-1.1-0.4-1.6c-0.3-0.4-0.6-0.8-1-1.1c-0.7-0.8-1.7-0.8-2.8-0.6c-0.7,0.2-1.7,0-2.4-0.3
		c-0.9-0.4-1.6-1.1-2.5-1.5c-0.4-0.2-1-0.1-1.5-0.1c-0.7,0.1-1.5,0.3-2.2,0.4c0,0-0.1-0.1-0.1-0.1c0.3-0.4,0.6-0.7,0.9-1.1
		c0.2-0.2,0.3-0.5,0.5-0.6c0.9-0.6,0.8-1.4,0.8-2.3c0-0.2,0-0.4,0-0.6c-0.1-1.2,0.3-2.2,1-3.2c0.3-0.6,0.7-1,1.2-1.4
		c0.2-0.2,0.5-0.8,0.2-1.3c-0.3-0.5-0.4-1.2-0.6-1.8c-0.3-0.9-0.5-1.1-1.5-1.4c-1.8-0.6-3.3-1.7-3.9-3.6c-0.3-0.9-0.9-1.2-1.6-1.5
		c-0.7-0.2-1.5-0.4-2.2-0.6c0-0.1,0-0.1,0-0.2c0.5-0.2,1-0.5,1.6-0.5c1.2-0.2,1.9-0.9,2.3-2c0.4-1.2,1.1-2.2,2.2-2.7
		c0.8-0.4,1.5-1.1,2.6-1c0.2,0,0.5-0.4,0.6-0.7c0.3-0.8,0.4-1.6,0.6-2.5c0-0.2,0-0.5-0.1-0.6c-1.4-1-2-2.4-2.4-4
		c-0.2-0.7-0.1-1.5,0.1-2.2c0.2-0.8-0.1-1.3-0.6-1.8c-0.5-0.5-1-1.1-1.5-1.7c0-0.1,0.1-0.1,0.1-0.2c0.7,0.1,1.4,0.2,2,0.4
		c0.8,0.3,1.8,0.2,2.4-0.4c0.5-0.5,1.3-0.8,2-1c0.5-0.2,1.2-0.3,1.7-0.3c0.6,0,1.2,0,1.7,0.3c0.6,0.4,1,0.1,1.4-0.2
		c0.7-0.6,1.3-1.3,1.9-2c0.1-0.1,0.1-0.3,0-0.5c-0.5-1.1-0.6-2.2-0.4-3.4c0.1-0.9,0.6-1.8,1.2-2.6c0.5-0.6,0.9-1.2,0.5-2.1
		c-0.3-0.7-0.4-1.4-0.5-2.1c0-0.2,0-0.4,0.1-0.6c0.1,0,0.1,0,0.2,0c0.1,0.2,0.1,0.4,0.2,0.7c0.1-0.1,0.2-0.1,0.3-0.2
		c0.6,0.6,1,1.3,1.7,1.8c0.3,0.2,0.9,0.1,1.3,0c0.7-0.3,1.4-0.3,2.1,0c0.3,0.1,0.7,0.2,1,0.3c1.3,0.5,2.3,1.3,2.9,2.5
		c0.1,0.2,0.6,0.4,0.9,0.4c0.6,0.1,1.2,0,1.9,0c-0.1-0.5-0.2-1-0.4-1.5c-0.2-0.5-0.4-0.9-0.5-1.4c-0.2-0.6-0.5-0.8-1-0.6
		c-0.4,0.1-0.9,0.3-1.6,0.5c0.4-0.9,0.7-1.6,1-2.4c-0.5-0.2-1.2,0-2.1,0.7c0.2-0.7,0.4-1.5,0.6-2.2c0-0.1-0.1-0.1-0.1-0.2
		c-0.7,0.3-1.4,0.6-2,0.9c-0.1,0-0.1-0.1-0.2-0.1c0.2-0.7,0.5-1.5,0.8-2.4c-1,0.1-1.7,0.6-2.6,1.1c0.2-0.8,0.3-1.6,0.5-2.4
		c-1.1-0.3-0.9,1.1-1.7,1.2c-0.3-1.8-0.3-3.5,0.2-5.2c0.3-1,2-1.5,2.8-0.9c0.3-1.5,1.6-2.4,2.8-3.4c-0.2,1.2-0.4,2.5-0.6,3.9
		c1-0.4,1.8-0.7,2.7-1c-0.2,0.6-0.3,1.2-0.4,1.7c0,0.2,0,0.4,0.1,0.6c0.2,0,0.4-0.1,0.6-0.2c0,0.4,0,0.7,0,1.3
		c0.3,0.3,0.9,0.7,1.4,1c0.7,0.4,1.4,0.8,2.1,1.2c0.9,0.7,1.8,1.2,3,1c0.2,0,0.4,0.1,0.5,0.1c0.4-0.2,0.8-0.4,1.1-0.4
		c1.2,0.1,2-0.4,2.8-1.1c0.7-0.6,1.4-1.2,2.1-1.8c0,0,0.3,0.1,0.3,0.1c0.4-0.9,1.4-1.3,2.1-2c-0.6,2-1.3,4-1.9,6
		c0.1,0.1,0.1,0.1,0.2,0.2c1.7-0.9,3.4-1.7,5.1-2.6c0,0,0.1,0.1,0.1,0.1c-0.8,1.5-1.7,2.9-2.5,4.3c0,0.1,0.1,0.1,0.1,0.2
		c1.7-0.3,3.3-0.7,5.1-1c-0.6,1.5-1.9,2.3-2.7,3.7c0.3,0,0.5,0,0.6-0.1c1-0.5,2.1-0.8,3.3-0.8c0.1,0,0.2,0,0.3,0
		c1.3,0.7,1.8-0.3,2.5-1c0.4-0.4,0.8-0.8,1.2-1.2c0,0,0.1,0.1,0.1,0.1c-0.1,0.7-0.1,1.5-0.4,2.1c-0.5,1,0,1.7,0.6,2.5
		c1.1,1.5,1.7,3.1,1.1,4.9c-0.2,0.7,0.1,1.1,0.3,1.6c0.2,0.7,0.7,1.3,1.1,2c0.2,0.4,0.4,0.5,0.8,0.3c1.3-0.4,2.6-0.6,4-0.3
		c0.7,0.1,1.4,0.7,2,1.1c0.5,0.3,0.9,0.9,1.6,0.7c0.6-0.1,1.1-0.3,1.7-0.5c0.4-0.1,0.8-0.1,1.2-0.1C76.3,37.8,76.3,37.8,76.3,37.9z
		 M35.2,39.2c0.1-0.1,0.2-0.3,0.2-0.6c0.4-1.2,0.8-2.4,1.3-3.5c0.7-1.3,1-2.7,0.6-4.1c-0.1-0.5-0.4-0.6-0.9-0.4
		C36.2,30.8,36,31,35.7,31c-0.8,0-1,0.6-1.1,1.2c-0.2,1.5-0.7,2.8-1.8,3.8c-1.1,1-2.3,1.6-3.7,1.7c-1,0.1-2-0.3-2.9-0.6
		c-0.4-0.2-0.7,0-0.9,0.3c-0.4,0.5-0.7,0.9-1.1,1.4c-0.4,0.5-0.7,1-0.4,1.6c0.8,2.2,0.4,4.3-1,6.1c-0.7,0.9-1.7,1.6-2.8,1.9
		c-0.9,0.2-1.2,0.6-1.3,1.3c-0.2,0.8-0.3,1.5-0.4,2.3c-0.1,0.6,0.1,0.9,0.4,1.4c0.6,0.9,1.4,1.8,1.5,2.8c0.3,2.1-0.1,4.2-1.8,5.7
		c-0.4,0.4-0.7,0.8-0.6,1.4c0.1,0.8,0.1,1.6,0.3,2.4c0.1,0.3,0.4,0.5,0.7,0.6c0.6,0.2,1.3,0.3,2,0.6c1.3,0.6,2.3,1.6,2.9,2.8
		c0.8,1.7,0.8,3.5,0.1,5.2c-0.3,0.8,0,1.1,0.4,1.6c0.4,0.4,0.8,0.8,1.4,1.4c0.3-0.1,0.8-0.2,1.3-0.3c0.7-0.2,1.5-0.5,2.2-0.5
		c0.8,0.1,1.6,0.3,2.4,0.7c1.7,0.9,2.8,2.2,3.2,4.1c0.2,0.9,0,2,1.3,2.2c0.3,0,0.5,0.1,0.7,0.2c1.3,0.5,1.3,0.3,2.1-0.7
		c1.1-1.5,2.5-2.4,4.4-2.3c1.1,0,2.2-0.1,3.1,0.6c0.9,0.7,1.7,1.5,2.5,2.2c0.5-0.1,1-0.3,1.6-0.4c0.8-0.1,1.4-0.3,1.5-0.8
		c0-0.3,0-0.6,0.1-0.9c0.3-1.1,0.7-2.1,1.5-2.9c1-0.9,2-1.6,3.4-1.9c1.1-0.3,2,0,2.9,0.3c0.5,0.1,1,0.7,1.5,0.2
		c0.6-0.7,1.1-1.5,1.7-2.2c0-0.1,0-0.2,0-0.3c-0.3-1.1-0.7-2.3-0.5-3.5c0.3-2.2,2-4.5,4.3-5.1c0.4-0.1,0.7-0.2,1.1-0.3
		c0.2,0,0.4-0.2,0.4-0.3c0.3-0.9,0.5-1.8,0.7-2.7c0.1-0.5-0.1-0.8-0.4-1.2c-0.6-0.6-1.2-1.2-1.5-2c-0.7-1.4-0.9-3-0.3-4.5
		c0.4-1.1,0.9-2.2,2-2.9c0.3-0.2,0.5-0.5,0.3-1c-0.2-0.8-0.2-1.6-0.3-2.3c-0.1-0.6-0.3-0.9-0.9-0.9c-1.2,0.1-2.2-0.5-3-1.2
		c-1.3-1-2.1-2.5-2.3-4.1c-0.1-0.8,0.1-1.6,0.3-2.3c0.3-0.8,0.2-1.4-0.6-1.8c-0.4-0.2-0.9-0.4-1.3-0.7c-0.8-0.5-1.5-0.8-2.5-0.7
		c-2.1,0.1-3.8-0.7-5.2-2.3c-0.2-0.2-0.5-0.4-0.7-0.3c-0.6,0.1-1.1,0.2-1.7,0.4c-0.7,0.3-1.4,0.7-2.2,0.9c-1,0.2-2.1,0.2-3.2,0.3
		c-0.3,0-0.5,0.2-0.7,0.4c-0.3,0.3-0.6,0.7-0.9,0.9c-1.1,0.6-1.8,1.6-2.5,2.7c-0.8,1.3-1.5,2.8-2.2,4.2c-0.5,1-0.8,2-0.5,3.1
		c0.1,0.5,0.3,1,0.5,1.5c-0.5,0.3-0.5-0.3-0.8-0.5c-1.4-1-2.8-2.1-4.2-3.2c-0.3-0.3-0.6-0.2-0.9,0.1c-0.2,0.2-0.4,0.4-0.7,0.7
		c-0.1,0-0.2-0.1-0.2-0.1c0.3-0.7,0.7-1.4,1-2.2c-0.7-0.4-1.4-0.8-1.6-1.8c0.4,0.1,0.7,0.3,1,0.4c0.1,0,0.3,0.1,0.3,0.1
		c0.1-0.1,0.1-0.3,0.1-0.4c-0.2-0.4-0.4-0.8-0.6-1.2c-0.1-0.4-0.2-0.8-0.4-1.2c1,0.2,1.6,1.1,2.6,0.8c-0.3-0.7-0.6-1.3-0.8-2
		c0-0.1,0.1-0.1,0.1-0.2C34.3,38.9,34.7,39,35.2,39.2z M28.8,27.4c-2.4,0-4.1,1.8-4.1,4.4c0,2.2,1.9,4.1,4.2,4.1c2,0,4-2.2,3.9-4.3
		C32.7,29.2,31.2,27.4,28.8,27.4z M18.2,76.6c1.1,0.2,2.1-0.1,2.8-0.9c0.8-0.8,1.2-1.8,1.2-2.9c0.1-2.7-1.8-4.4-4-4.4
		c-2.7,0-4,1.8-4.2,4.3c-0.1,1.1,0.6,2.1,1.3,2.9C16.1,76.5,17.1,76.8,18.2,76.6z M53.8,31.6c-0.3,2.1,1.9,4.4,4.2,4.2
		c0.6,0,1.2-0.4,1.7-0.6c0.9-0.4,1.4-1.1,1.7-1.9c0.2-0.6,0.2-1.3,0.3-2c0.2-1.9-1-3-2.4-3.7c-0.8-0.4-2-0.4-2.9,0
		C54.7,28.4,53.7,29.6,53.8,31.6z M43.3,91.6c2.1,0,3.9-1.8,4-3.7c0.2-2.8-1.8-4.5-3.7-4.6c-2.7-0.2-4.4,1.8-4.4,4.2
		C39.2,89.6,41.1,91.8,43.3,91.6z M47.3,27.7c0-2.6-1.7-4.1-3.9-4.3c-2.3-0.2-4.2,1.9-4.2,4c0,2.6,1.6,4.3,4.1,4.3
		C45.7,31.7,47.3,30,47.3,27.7z M68.3,38.3c-2.2,0-4.2,1.9-4.1,4.3c0,2,1.6,4,3.7,4c1.2,0,2.2-0.3,3.1-1.1c0.8-0.8,1.2-1.8,1.2-2.9
		C72.4,40.2,70.2,38.1,68.3,38.3z M14.5,61.6c2.1,0.2,3.8-2.2,3.8-3.9c0-2.6-1.8-4.3-4-4.4s-4,1.8-4.1,4
		C10,59.9,12.4,61.7,14.5,61.6z M72.3,61.7c0.5-0.1,1.1-0.2,1.6-0.4c1.2-0.6,2.1-1.6,2.2-2.9c0.3-1.9-0.1-3.7-2.3-4.8
		C72.4,53,71.1,53.3,70,54c-1.3,0.8-1.9,2.2-1.8,3.7C68.3,59.8,69.6,61.8,72.3,61.7z M14.1,42.7c0,2.5,1.8,4.2,4,4.2
		c2.2,0,4-1.6,4.1-4.1c0.1-2.4-1.6-4.2-3.9-4.2C15.9,38.4,14.2,40.1,14.1,42.7z M28.5,87.6c2.5,0.1,4.3-1.9,4.3-4.1
		c0-2.3-1.5-4.1-3.7-4.3c-1.2-0.1-2.2,0.2-3,1c-1.1,1-1.5,2.4-1.3,3.9c0.1,0.9,0.5,1.6,1.2,2.2C26.6,87.1,27.4,87.7,28.5,87.6z
		 M68.2,76.7c1.4-0.1,1.4-0.1,2.4-0.8c1.7-1.1,2-3.6,1.3-5.2c-0.4-0.9-1.2-1.5-2-2c-1-0.6-3.1-0.4-4,0.3c-1.8,1.5-2.3,4.2-0.9,6.1
		c0.3,0.5,0.8,1,1.3,1.2C66.9,76.6,67.6,76.6,68.2,76.7z M61.7,83.6c0.4-2.5-2-4.2-3.6-4.3c-2.9-0.2-4.5,2.1-4.5,4.3
		c0,1.9,1.8,4,4,4.1C59.7,87.7,62,85.7,61.7,83.6z"/>
	<path d="M123.3,24.3c-1.8,2.1-3.7,4.3-5.5,6.4c-1.2,1.4-2.5,2.7-3.7,4.1c-1.7,1.7-3.7,3-5.8,3.9c-2,0.8-4.1,1.3-6.2,1.6
		c-2.2,0.3-4.2-0.1-6.2-0.8c-1.2-0.4-2.3-1.2-3.5-1.9c0-0.1,0.1-0.2,0.1-0.3c0.3,0.1,0.7,0.3,1,0.3c1.1,0,2.2,0.1,3.4,0
		c0.9-0.1,1.8-0.5,2.7-0.7c1.2-0.4,2.4-0.7,3.6-1.1c0.8-0.3,1.6-0.7,2.4-1c1.3-0.6,2.7-1.2,4-1.9c1.3-0.7,2.5-1.5,3.8-2.3
		c1.1-0.7,2.3-1.3,3.4-2.1c1.2-0.8,2.3-1.6,3.5-2.4c1-0.7,2-1.3,3.1-2C123.2,24.3,123.3,24.3,123.3,24.3z"/>
	<path d="M221.5,83.9c0,0.1,0,0.2,0,0.3c0.4,0.6,0.7,1.3,1.1,1.8c0.4,0.6,0.9,1,1.4,1.6c0.9,1.2,2,2.2,3.3,2.9
		c0.1,0,0.1,0.1,0.1,0.2c-1.1,0.4-1.9,0-2.8-0.5c-2-1.4-3.7-3-4.9-5.2c-0.9-1.5-1.7-3-2.4-4.6c-0.8-1.8-1.4-3.7-1.7-5.6
		c-0.1-0.4-0.1-0.7,0.5-0.9c0.6-0.2,1.2-0.6,1.9-1c2.2,4.6,4.7,8.8,9.5,11.2c-0.3,0.1-0.5,0.2-0.7,0.2c-2.4-0.2-4.5-1-6.1-2.8
		c-1.1-1.2-1.6-2.7-2.3-4.1c-0.5-1-0.9-1.9-1.5-2.8c-0.3,1,0.3,1.8,0.7,2.6c0.9,1.9,1.9,3.7,3,5.6C220.7,83.2,221.2,83.5,221.5,83.9
		C221.5,83.9,221.5,83.9,221.5,83.9z"/>
	<path d="M185.4,68.9c0.9,0,1.7,0,2.5,0c1.9,0.1,3.3,1.5,3.5,3.5c0.2,1.6,0.3,3.2,0.3,4.8c0,0.9-0.2,1.8-0.4,2.7
		c-0.1,0.3-0.5,0.6-0.9,0.7c-1.1,0.3-2.3,0.4-3.4,0.6c-0.4,0.1-0.5,0-0.5-0.4c0.1-1.1,0.2-2.3,0.3-3.4c0.2-2,0.3-4.1-0.3-6.1
		c-0.2-0.7-0.6-1.3-0.9-1.9C185.5,69.3,185.5,69.1,185.4,68.9z"/>
	<path d="M111.1,64.3c-0.3,1.2-0.5,2.4-0.8,3.6c-0.4,1.7-0.8,3.4-1.2,5.1c-0.4,1.3-0.8,2.5-1.3,3.8c-0.9,2.3-1.9,4.5-3.2,6.6
		c-0.5,0.8-1.3,1.4-1.9,2.1c-1.6,1.7-3.6,2.8-5.8,3.8c-1.3,0.6-2.7,1.3-4.1,1.8c9.3-6.7,14.8-16.1,18.1-26.8
		C111,64.2,111.1,64.3,111.1,64.3z"/>
	<path d="M146.2,90.5c-1.6,0.7-3.1,1.5-4.6,2.1c-0.2,0.1-0.7-0.1-0.8-0.3c-1.1-1.5-1.8-3.2-1.8-5c0-0.6,0-1.1,0-1.7
		c-0.1-1.1,1.1-2.5,2.1-2.8c0.5-0.2,0.9-0.3,1.5-0.4C143,85.5,143.8,88.3,146.2,90.5z"/>
	<path d="M176.2,71.2c0.1-0.3,0.1-0.7,0.2-1c0.4-1.3,0.7-2.5,1.1-3.8c0.6-1.7,1.2-3.4,2.1-5.1c0.3-0.5,1.1-0.7,1.7-1.1
		c0.1,0,0.4,0.1,0.4,0.3c0.2,0.4,0.4,0.9,0.4,1.4c0,1.8-0.1,3.6-0.3,5.4c0,0.2-0.1,0.4-0.3,0.5c-1.3,0.9-2.7,1.7-4,2.6
		c-0.4,0.2-0.7,0.5-1,0.8C176.4,71.3,176.3,71.2,176.2,71.2z"/>
	<path d="M111.3,90.3c-1.4,7.6,0.6,14.5,4.6,21.1c-1.3-0.4-3.8-3.6-4.8-6c-1.1-2.4-1.7-5-1.7-7.6C109.3,95.2,109.7,92.6,111.3,90.3z
		"/>
	<path d="M207.6,76.8c0.1,1.4,0.3,2.8,0.2,4.3c-0.1,1.6-0.3,3.2-0.5,4.9c-0.2,1.5-0.4,2.9-0.7,4.4c-0.3,2.2-0.7,4.3-1,6.5
		c-0.2,1.1-0.3,2.2-0.4,3.3c-0.2,1.2-0.4,2.3-0.6,3.4c0,0.2-0.2,0.3-0.4,0.5C205.1,94.9,205.9,85.8,207.6,76.8z"/>
	<path d="M182.8,67.2c0.3-2.5,0.5-5.1,0.8-7.8c0.2,0.1,0.4,0.2,0.5,0.3c1.2,1.3,2.4,2.7,3.7,4c0.3,0.3,0.3,0.5-0.1,0.7
		c-1.1,0.6-2.1,1.2-3.1,1.8c-0.5,0.3-1,0.7-1.5,1C182.9,67.2,182.8,67.2,182.8,67.2z"/>
	<path d="M153.5,78.4c0.8-0.4,1.5-0.7,2.1-1c0.4-0.3,0.8-0.2,1.1,0.1c0.6,0.6,1.1,1.3,1.6,2c0,0-0.1,0.1-0.1,0.1
		c-2.2-0.3-4.4-0.5-6.5-0.8c-0.9-0.1-1.3-1-1.1-1.9c0.3-1.1,0.3-1,1.4-1.1c0.5,0,0.9-0.4,1.3-0.6c0.5-0.2,0.8-0.1,0.8,0.4
		c0,0.7-0.2,1.4-0.3,2.1C153.6,77.8,153.5,78,153.5,78.4z"/>
	<path d="M163.7,76.9c-2.1-3.3-2.9-7-3.9-10.6c0,0,0.1,0,0.2-0.1c0.1,0.1,0.2,0.2,0.2,0.3c0.9,1.5,1.8,3.1,2.7,4.6
		c0.2,0.3,0.5,0.5,0.7,0.8c0.7,1.1,0.7,2.4,0.4,3.6C163.9,76,163.8,76.4,163.7,76.9z"/>
	<path d="M125.7,78.6c1.1,5.8,4.3,10.6,7.4,15.4c0,0-0.1,0.1-0.2,0.2c-0.7-0.6-1.5-1.2-2.1-2c-1.7-2-3-4.2-3.7-6.7
		c-0.4-1.3-0.9-2.7-1.2-4.1c-0.2-0.9-0.3-1.9-0.4-2.8C125.5,78.7,125.6,78.6,125.7,78.6z"/>
	<path d="M208.2,72.9c1.7-0.2,3.2,1.1,3.4,2.8c0.1,2.1-0.3,4.1-1.2,6.1c-0.5,1-0.9,2.1-1.9,3c0-1.4,0.3-2.7,1-3.9
		c0.6-0.9,1.1-1.8,1.1-2.9c0-0.9,0-1.9-0.2-2.8c0-0.3-0.4-0.7-0.6-1C209.3,73.7,208.8,73.4,208.2,72.9z"/>
	<path d="M107.5,60.3c-1.4,4.1-4.3,7.5-5.5,11.8C102.6,67.5,104.7,63.7,107.5,60.3z"/>
	<path d="M214.1,60.2c0.3,0.1,0.7,0.2,1,0.3c0.6,0.1,1.3,0.3,1.9,0.3c0.8-0.1,1.3,0.4,1.9,0.8c1.2,0.8,2.3,1.6,3.5,2.5
		C219.2,63.6,216.6,62.1,214.1,60.2z"/>
	<path d="M212.9,97.7c0-1.3,0-2.6,0-3.9c0.1-1.9,0.2-3.7,0.3-5.6c0-0.2,0.3-0.4,0.6-0.5c0.2,3.4,0,6.7-0.8,10
		C213,97.7,213,97.7,212.9,97.7z"/>
	<path d="M146.5,75.2c1.1,0.9,0.6,2.2,1.1,3.4c-0.9-0.1-1.6-0.2-2.4-0.3c-0.2,0-0.4,0-0.6-0.1c-0.2,0-0.5-0.1-0.5-0.2
		c0-0.2,0-0.4,0.1-0.6C145,76.7,145.7,76,146.5,75.2z"/>
	<path d="M145.5,70c-1.1,0.1-2,0.1-3.1,0.2c0.6-1.5,1.1-2.8,1.7-4.1c0.1,0,0.1,0,0.2,0C144.7,67.4,145.1,68.7,145.5,70z"/>
	<path d="M73.8,135.4c-0.9-0.8-1.9-0.5-2.9-0.5c-0.5,0-0.9,0.6-0.9,1.1c0,0.7,0.4,0.7,1,0.8c0.8,0,1.5,0.2,2.3,0.3
		c0.7,0.1,1.2,0.6,1.2,1.2c0,0.7-0.6,1.4-1.2,1.5c-0.6,0.1-1.1,0.3-1.7,0.2c-0.8-0.1-1.5-0.3-2.1-1c0.2,0,0.4,0,0.5,0.1
		c0.6,0.7,1.4,0.5,2.1,0.7c0.9,0.2,1.8-0.6,1.8-1.4c0-0.6-0.5-0.9-1.4-1c-0.5,0-0.9,0-1.4,0c-0.8,0-1.6-0.6-1.6-1.2
		c0-0.6,0.6-1.2,1.3-1.5c1.1-0.5,2-0.1,3,0.3c0.1,0.1,0.2,0.2,0.3,0.3C73.9,135.2,73.8,135.3,73.8,135.4z"/>
	<path d="M25.8,139.6c-0.2,0-0.3,0.1-0.5,0.1c0-0.6,0-1.3,0-1.9c-1,0-1.9,0-2.8,0c-0.4,0.6,0.3,1.5-0.4,2c-0.1,0-0.1,0-0.2,0
		c0-1.4,0-2.9,0-4.3c0.1,0,0.4,0,0.5,0c0,0.5,0,0.9,0,1.4c0,0.5,0.2,0.6,0.8,0.5c0.7-0.1,1.4,0,2.1,0c0-0.6,0-1.2,0-1.9
		c0.1,0,0.3,0,0.5,0C25.8,136.8,25.8,138.2,25.8,139.6z"/>
	<path d="M62,136.1c0,1.2,0,2.4,0,3.6c0,0-0.1,0.1-0.3,0.2c0-1.5,0-2.9,0-4.4c0.3,0,0.5,0,0.7,0c0.3,0.4,0.6,0.8,0.9,1.2
		c0.6,0.7,1.2,1.4,1.8,2.1c0.1,0.1,0.3,0.1,0.4,0.2c0-0.1,0.1-0.3,0.1-0.4c0-1-0.1-2.1-0.2-3.2c0.4,0.2,0.4,0.2,0.5,2.2
		c0,0.7,0,1.5,0,2.4c-0.3-0.2-0.5-0.4-0.7-0.6c-1-1.1-1.9-2.2-2.9-3.3C62.2,136,62.1,136.1,62,136.1z"/>
	<path d="M141.7,72.9c0.5,0,1.3,0.7,1.5,1.4c0.3,1-0.4,2.1-2,3C141.4,75.8,141.5,74.4,141.7,72.9z"/>
	<path d="M37.4,135.8c0.2,0,0.4,0.1,0.6,0.1c0.1,0.3,0.2,0.6,0.3,0.8c0.4,0.8,0,2.4-0.7,2.8c-0.4,0.2-0.9,0.4-1.4,0.4
		c-0.7,0.1-1.3,0-2,0c0-1.5,0-3,0-4.6c0.9,0,1.8,0,2.6,0C37,135.4,37.2,135.7,37.4,135.8c-0.7-0.1-1.4-0.1-2.1-0.2
		c-0.4-0.1-0.6,0.2-0.6,0.6c0,0.6,0,1.2,0,1.9c0,0.4,0,0.7,0,1.1c0,0.2,0.3,0.5,0.4,0.5c0.6,0,1.2-0.2,1.8-0.2c0.5,0,0.8-0.3,1-0.6
		C38.4,137.7,38.1,136.7,37.4,135.8z"/>
	<path d="M42.4,137.8c0.4,0.7,0.8,1.3,1.1,2c-0.1,0-0.2,0.1-0.2,0.1c-0.3-0.4-0.7-0.7-0.8-1.2c-0.2-1.2-1-1-1.8-1
		c-0.1,0-0.2,0-0.3,0c0,0,0,0-0.1,0.1c0,0.6,0,1.3,0,2c-0.1,0-0.1,0.1-0.2,0.1c-0.1-0.2-0.3-0.4-0.4-0.6c0-1.3,0-2.6,0-4
		c1,0,1.9,0,2.8,0c0.6,0,1.1,0.6,1.1,1.2C43.6,137.2,43.2,137.6,42.4,137.8z M40.3,135.5c0,0.8,0,1.3,0,2c0.8,0,1.5,0,2.2,0
		c0.3,0,0.6-0.3,0.7-0.5c0.1-0.4,0.2-1-0.5-1.1C41.9,135.7,41.1,135.6,40.3,135.5z"/>
	<path d="M18.3,134.9c-0.9-0.4-1.9,0.3-2.6-0.4c0-0.1,0-0.1,0-0.2c1.8,0,3.5,0,5.3,0c-0.1,0.3-0.1,0.3-2.2,0.6c0,1.6,0,3.2,0,4.8
		c-0.5,0.1-0.6,0.1-0.6-0.4C18.3,137.8,18.3,136.4,18.3,134.9z"/>
	<path d="M27.4,135.4c1.2,0,2.4,0,3.5,0c0,0,0,0.1,0,0.1c-0.4,0-0.7,0.1-1.1,0.1c-0.5,0-1,0-1.5-0.1c0,0,0,0-0.1,0
		c-0.7,0.3-0.3,0.9-0.4,1.4c0,0.1,0.2,0.6,0.7,0.4c0.4-0.1,0.9,0.1,1.4,0.1c0,0.1,0,0.1,0,0.2c-0.6,0-1.3,0-1.9,0c0,0.6,0,1.2,0,1.8
		c1,0,2,0,3.1,0c-0.2,0.2-0.3,0.4-0.5,0.4c-1,0-2.1,0-3.2,0C27.4,138.4,27.4,136.9,27.4,135.4z"/>
	<path d="M211.9,66.5c2.9,2.3,5.9,4.3,9.5,5.4C217.5,71.4,214.4,69.4,211.9,66.5z"/>
	<path d="M56.8,135.6c0-0.1,0-0.2,0.1-0.2c1-0.4,2.6,0.1,3.2,1c0.9,1.2,0.3,2.8-1.1,3.3c-1.2,0.5-2.2,0.2-3.1-0.6
		c-0.7-0.6-0.6-1.5-0.4-2.3C55.7,136.2,56.2,135.8,56.8,135.6c-0.1,0.1-0.2,0.3-0.3,0.5c-0.3,0.5-0.7,0.9-0.7,1.4
		c0,0.9,0.3,1.7,1.4,2c0.8,0.3,1.4,0.1,2.1-0.3c0.7-0.4,1.1-1.6,0.8-2.3c-0.2-0.6-1-1.6-2-1.4C57.7,135.7,57.2,135.6,56.8,135.6z"/>
	<path d="M87.4,135.4c1.3-0.2,2.5,1,2.5,2.3c0,1.2-1.1,2.3-2.5,2.2c-1.6-0.1-2.5-0.8-2.5-2.1C84.7,136.6,85.5,135.2,87.4,135.4z
		 M85.3,137.6c-0.3,1.1,1,2,2,2c1.2,0,2.1-0.9,2.1-1.9c0-1.2-0.8-2.2-2.2-2.2C86,135.7,85.3,136.4,85.3,137.6z"/>
	<path d="M105.1,139.7c0-1.4,0-2.9,0-4.4c0.8,0,1.8,0,2.7,0c0.9,0,1.4,1.1,1,1.8c-0.1,0.1-0.3,0.2-0.4,0.3c-0.2,0.1-0.4,0.2-0.7,0.3
		c0.4,0.7,0.8,1.3,1.2,2c-0.1,0-0.2,0.1-0.3,0.2c-0.4-0.5-0.8-1-1-1.6c-0.2-0.6-0.6-0.7-1.1-0.6c-0.3,0-0.7,0-1,0
		c-0.3,0.7,0.1,1.4-0.3,2C105.3,139.8,105.2,139.8,105.1,139.7z M105.5,137.5c0.8,0,1.5,0,2.3,0c0.6,0,1.1-0.6,0.8-1.1
		c-0.1-0.3-0.5-0.7-0.9-0.7c-0.7-0.1-1.4,0-2.1,0C105.6,136.3,105.5,136.8,105.5,137.5z"/>
	<path d="M123.7,139.8c-0.1-0.2-0.2-0.3-0.2-0.5c0-0.5,0-0.9,0-1.4c0-0.1-0.2-0.3-0.3-0.3c-0.8,0-1.6,0-2.4,0
		c-0.1,0-0.3,0.3-0.4,0.4c0,0.5,0,1.1,0,1.6c-0.6-0.1-0.5-0.6-0.5-0.9c0-0.9,0.1-1.7,0.1-2.6c0-0.3,0-0.5-0.1-0.8c0.2,0,0.3,0,0.5,0
		c0,0.6,0,1.1,0,1.7c0,0.2,0.2,0.4,0.3,0.4c0.7,0,1.5,0.1,2.2,0c0.2,0,0.5-0.3,0.5-0.5c0-0.5,0-1-0.1-1.7c0.2,0.2,0.5,0.3,0.5,0.4
		c0,1.4,0,2.7,0,4.1C123.8,139.8,123.8,139.8,123.7,139.8z"/>
	<path d="M81.2,139.8c-1.1-1.3-2.2-2.5-3.2-3.7c-0.1,0-0.1,0-0.2,0c0,1.2,0,2.4,0,3.6c-0.1,0-0.2,0-0.3,0c0-1.4,0-2.8,0-4.2
		c0.2,0,0.5,0,0.7,0c0.6,1.5,2,2.4,2.9,3.6c0.2-1.2,0.1-2.4,0.1-3.7c0.1,0.1,0.3,0.2,0.3,0.3c0,1.2,0,2.5,0,3.7
		C81.5,139.5,81.3,139.7,81.2,139.8z"/>
	<path d="M99.5,139.1c0.2-0.8,0.4-1.6,0.6-2.4c0.1-0.5,0.3-0.9,0.4-1.4c0.2,0,0.3,0,0.5,0c0.4,1.3,0.8,2.5,1.2,3.7c0,0,0.1,0,0.1,0
		c0.4-1.2,0.9-2.5,1.3-3.7c0.1,0,0.2,0,0.4,0c-0.5,1.5-1.1,3-1.6,4.4c-0.1,0-0.2,0-0.2,0c-0.8-1.1-0.8-2.5-1.5-3.8
		c-0.2,0.7-0.4,1.3-0.7,1.9C99.9,138.3,99.7,138.7,99.5,139.1L99.5,139.1z"/>
	<path d="M111.9,135.4c0.1,0,0.3,0,0.5,0c0.6,1.5,1.2,2.9,1.9,4.3c-0.4,0.1-0.4,0.1-0.9-1.1c-0.4,0-0.9,0.1-1.4,0
		c-0.8-0.1-1.3,0.1-1.5,1c0,0.1-0.3,0.2-0.5,0.2C110.7,138.3,111.3,136.9,111.9,135.4z M111.1,138.2c0.7,0,1.2,0,1.8,0
		c0.1,0,0.2-0.3,0.2-0.3c-0.3-0.7-0.6-1.3-0.9-2.1C111.7,136.6,111.4,137.3,111.1,138.2z"/>
	<path d="M46.6,135.4c0.1,0,0.3,0,0.5,0c0.6,1.4,1.2,2.8,1.8,4.2c-0.1,0-0.2,0.1-0.3,0.1c-0.9-1.1-1.1-2.5-1.9-4
		c-0.3,0.9-0.5,1.8-0.9,2.5c-0.3,0.6-0.5,1.3-1.3,1.8C45.3,138.4,45.9,136.9,46.6,135.4z"/>
	<path d="M93.9,137.5c-0.2,0.1-0.3,0.3-0.5,0.3c-0.6,0-1.2,0-1.8,0c0,0.7,0,1.3,0,2c-0.1,0-0.1,0-0.2,0.1c-0.1-0.2-0.2-0.4-0.2-0.6
		c0-1,0-2,0-3c0-0.3,0-0.5,0-0.8c1.2,0,2.4,0,3.6,0c0,0,0,0.1,0,0.1c-0.1,0-0.3,0.1-0.4,0.1c-0.8,0-1.5,0-2.3,0
		c-0.4,0-0.6,0.1-0.6,0.5c0,0.4,0,0.8,0,1.4c0.8,0,1.5-0.1,2.2-0.1C93.8,137.4,93.9,137.4,93.9,137.5z"/>
	<path d="M53.1,139.6c0,0.1-0.1,0.3-0.1,0.3c-0.9,0.1-1.9,0-2.6-0.7c-0.6-0.7-0.7-1.5-0.4-2.4c0.2-0.7,1.3-1.4,1.9-1.4
		c0.9-0.1,1.6,0.2,2.3,0.7c0,0.1,0,0.1-0.1,0.2c-0.3-0.1-0.6-0.2-0.9-0.3c-1.1-0.6-2.2-0.1-2.7,0.6c-0.6,1.1-0.6,1.9,0.4,2.8
		C51.6,139.7,52.3,139.7,53.1,139.6C53.1,139.6,53.1,139.6,53.1,139.6z"/>
	<path d="M118.9,135.6c-0.4,0-0.8,0-1.2,0c-0.5,0-0.6,0.2-0.6,0.6c0,1,0,2.1,0,3.1c0,0.1-0.1,0.3-0.2,0.4c-0.1,0-0.1-0.1-0.2-0.1
		c0-1.1,0-2.3,0-3.4c0-0.6-0.2-0.8-0.7-0.7c-0.4,0-0.8,0-1.1,0c0-0.1,0-0.1,0-0.2c1.4,0,2.7,0,4.1,0
		C118.9,135.5,118.9,135.6,118.9,135.6z"/>
	<path d="M75.9,135.4c0,1.5,0,2.9,0,4.3c-0.5,0-0.5,0-0.5-0.4c0-1.1,0.1-2.1,0.1-3.2C75.5,135.8,75.1,135.3,75.9,135.4z"/>
	<path d="M99.5,139.1c0,0.2,0,0.4,0,0.6c-0.4,0.1-0.6,0.1-0.7-0.4c-0.3-1.2-0.8-2.4-1.2-3.6c0-0.1,0-0.2-0.1-0.3
		c0,0,0.1-0.1,0.1-0.1c0.1,0.1,0.3,0.2,0.4,0.4c0.3,1,0.6,2,1,3C99.1,138.9,99.3,139,99.5,139.1L99.5,139.1z"/>
	<path d="M131.6,76.8c0.3,0.8,0.6,1.5,0.8,2.2c0.2,0.5,0,0.7-0.8,1C131.6,79,131.6,78,131.6,76.8z"/>
	<path d="M146.7,69.5c-0.1-0.8-0.2-1.5-0.4-2.4c0.7,0.3,1.1,0.8,1.2,1.4c0.1,0.3-0.4,0.7-0.6,1.1C146.8,69.6,146.7,69.6,146.7,69.5z
		"/>
	<path d="M137.5,101.7c-0.8-1.2-1.5-2.3-2.3-3.5C136.3,99,137.6,100.9,137.5,101.7z"/>
	<path d="M53.1,139.6c0.5-0.4,1.1-0.7,0.7-1.5c-0.2,0-0.5-0.1-0.8-0.1c0,0,0-0.1,0-0.1c0.4,0,0.7,0,1.1,0
		C54.5,139.1,54.1,139.9,53.1,139.6C53.1,139.6,53.1,139.6,53.1,139.6z"/>
	<path d="M181.2,56.8c0,0.4,0,0.9,0.1,1.3c-0.1,0-0.1,0.1-0.2,0.1c-0.1-0.1-0.3-0.2-0.3-0.3c0-0.4,0.1-0.8,0.1-1.2
		C181,56.8,181.1,56.8,181.2,56.8z"/>
	<path d="M30.1,31.8c0,0.7-0.7,1.4-1.4,1.4c-0.7,0-1.5-0.8-1.5-1.5c0-0.7,0.8-1.7,1.5-1.7C29.5,30,30.1,30.7,30.1,31.8z"/>
	<path d="M18.2,71c0.9,0,1.5,0.7,1.5,1.7c0,0.7-0.8,1.5-1.5,1.5c-0.5,0-1.6-1-1.6-1.6C16.6,71.9,17.5,71,18.2,71z"/>
	<path d="M57.6,33.2c-0.8,0-1.4-0.7-1.4-1.6c0-0.9,0.7-1.7,1.4-1.7c0.6,0,1.5,1,1.5,1.6C59.2,32.4,58.3,33.2,57.6,33.2z"/>
	<path d="M44.8,87.6c0,0.9-0.6,1.4-1.5,1.4c-0.8,0-1.4-0.6-1.4-1.4c0-1,0.7-1.7,1.5-1.7C44.2,85.9,44.8,86.7,44.8,87.6z"/>
	<path d="M44.8,27.7c0,0.7-0.9,1.5-1.5,1.5c-0.7,0-1.4-0.8-1.4-1.5c0-1.1,0.6-1.7,1.6-1.7C44.2,25.9,44.8,26.8,44.8,27.7z"/>
	<path d="M68.4,41c0.7,0,1.4,0.7,1.4,1.6c0,0.8-0.6,1.3-1.5,1.3c-0.9,0-1.4-0.6-1.4-1.4C66.8,41.6,67.4,41,68.4,41z"/>
	<path d="M14.2,56c0.8,0,1.5,0.7,1.5,1.5c0,0.9-0.6,1.5-1.5,1.5c-0.8,0-1.6-0.7-1.5-1.4C12.7,56.8,13.5,56,14.2,56z"/>
	<path d="M70.7,57.6c0-0.9,0.7-1.6,1.6-1.6c0.9,0,1.4,0.8,1.5,1.6c0,0.7-0.8,1.5-1.4,1.5C71.4,59,70.7,58.4,70.7,57.6z"/>
	<path d="M18.1,41c0.6,0,1.5,0.9,1.5,1.6c0,0.7-0.8,1.6-1.4,1.6c-0.9-0.1-1.6-0.6-1.6-1.8C16.6,41.6,17.3,41,18.1,41z"/>
	<path d="M28.8,82c0.7,0,1.5,0.8,1.5,1.6c0,0.8-0.8,1.6-1.6,1.6c-0.6,0-1.5-0.9-1.5-1.6C27.3,82.8,28.1,82,28.8,82z"/>
	<path d="M68.2,71c0.6,0,1.5,0.9,1.5,1.5c0,0.7-1,1.7-1.7,1.7c-0.6,0-1.5-1.1-1.5-1.7C66.5,71.8,67.5,71,68.2,71z"/>
	<path d="M57.6,81.7c0.9,0,1.7,0.6,1.7,1.5c0,0.8-0.9,1.7-1.7,1.8c-0.6,0-1.5-1-1.5-1.6C56,82.6,56.8,81.7,57.6,81.7z"/>
</g>
</svg>
