<?xml version="1.0" encoding="utf-8"?>
<!-- Generator: Adobe Illustrator 24.0.2, SVG Export Plug-In . SVG Version: 6.00 Build 0)  -->
<svg version="1.1" id="Слой_1" xmlns="http://www.w3.org/2000/svg" xmlns:xlink="http://www.w3.org/1999/xlink" x="0px" y="0px"
	 viewBox="0 0 238.1 158.7" style="enable-background:new 0 0 238.1 158.7;" xml:space="preserve">
<g>
	<path d="M131.8,53.5c-0.6,0.5-1.3,1.2-2,1.7c-0.2,0.2-0.5,0.3-0.8,0.4c-0.1-0.3-0.3-0.6-0.2-0.9c1-2.6,1.6-5.4,3.5-7.7
		c0.5-0.6,0.1-1.4,0-2c-0.3-2.6-0.9-5.2-1.3-7.9c0-0.2-0.1-0.5-0.1-0.8c0-0.2,0.1-0.5,0.2-0.6s0.5,0,0.6,0.2
		c0.5,0.6,1.1,1.2,1.5,1.8c0.9,1.2,1.8,2.3,2.7,3.5c0.4,0.5,0.8,0.5,1.3,0.1c3.6-3.2,7.6-5.6,12.2-6.9c3.9-1.2,8-1.7,12.1-1.3
		c2.4,0.2,4.6,0.5,6.9,0.9c0.6,0.1,1.1-0.1,1.2-0.8c0.4-1.5,1-2.9,1.4-4.4c0.1-0.3,0.3-0.6,0.5-1c0.1,0,0.2,0,0.3,0
		c0.1,0.6,0.3,1.3,0.4,1.9c0.3,1.4,0.5,2.8,0.9,4.2c0.1,0.2,0.3,0.5,0.5,0.6c2.6,1.1,5,2.6,7,4.5c0.8,0.8,1.4,1.7,2.2,2.5
		c-0.4,0.6-0.9,0.5-1.4,0.3c-1.4-0.8-2.9-1.3-4.6-1.3c-0.4,0-0.6,0.1-0.8,0.5c-0.8,1.9-1.7,3.6-3,5.2c-0.2,0.2-0.3,0.8-0.1,1
		c1.6,2.9,3.3,5.9,5.1,8.8c0,0.1,0.1,0.1,0.3,0.2c-1.3-3-3.1-5.9-4.5-9c0.1-0.1,0.2-0.1,0.3-0.2c0.2,0.2,0.4,0.4,0.5,0.6
		c1.4,2.6,2.7,5.2,4.1,7.8c0.2,0.3,0.4,0.6,0.5,1c0.1,0,0.1,0,0.2-0.1c0-0.4,0-0.9,0-1.3c-0.1-1.2-0.2-2.3-0.3-3.5
		c-0.2-2.3-0.3-4.5-0.4-6.8c-0.1-0.9-0.1-1.8-0.1-2.7c0-0.3,0.1-0.5,0.3-0.9c0.1,0.2,0.3,0.4,0.3,0.8c0.1,1.5,0.2,3,0.3,4.5
		c0.2,2.7,0.4,5.5,0.6,8.2c0.1,1.6,0.2,3.3,0.4,5.1c0.3,0,0.6,0,1.3,0c-0.3,0.4-0.4,0.8-0.6,0.8c-0.8,0-0.6,0.4-0.6,0.9
		c0.1,7,0.2,13.9,0.3,20.8c0,3.6-0.1,7-0.3,10.6c-0.1,2.7-0.3,5.3-0.6,8c-0.4,3.3-0.6,6.7-1.6,9.9c-1.2,3.8-2.5,7.4-3.8,11.2
		c-1.3,3.7-2.6,7.2-3.9,10.9c-0.3,0.9-0.8,1.6-1,2.6c0.6-1.1,1.3-2,2-3.1c1.2-1.7,2.5-3.3,3.5-5.1c2.6-4.4,4.6-9.1,6-14
		c1.2-4.2,2.2-8.5,3.1-12.8c0.4-2.2,0.6-4.4,0.9-6.7c0.3-3.3,0.5-6.8,0.9-10.1c0.1-0.8,0.1-1.5,0.1-2.4c-0.2,0.9-0.4,1.8-0.8,2.7
		c-0.1,0-0.2,0-0.3,0c-0.1-0.2-0.2-0.4-0.2-0.6c0-2.7,0-5.3,0-8c0-0.2,0.1-0.4,0.3-0.6c0.8,1.3,0.9,2.8,1.2,4.2c0-1.6,0.1-3.3,0.1-5
		c0-2.4,0.1-4.7,0-7.1c-0.1-3.1-0.4-6.1-0.6-9.3c-0.1-2-0.3-4.1-0.5-6.1c-0.2-2.2-0.5-4.3-0.9-6.5c-0.3-1.9-0.6-3.9-0.9-5.8
		c-0.1-0.9-0.3-1.8-0.4-2.7c0-0.3,0-0.6,0-1c0.1,0,0.2,0,0.3-0.1c0.1,0.3,0.3,0.8,0.4,1.1c0.5,3.7,1.2,7.3,1.6,11
		c0.3,2.4,0.5,4.7,0.9,7.1c0.1,1.2,0.2,2.4,0.3,3.6c0.1,0.4,0.2,0.8,0.8,1.1c0.8,0.3,1.3,1.1,1.8,1.8c1.7,2.4,1.2,5,0.5,7.6
		c-0.4,1.9-1.4,3.6-2.4,5.3c-0.2,0.4-0.3,1-0.3,1.4c-0.1,1.4-0.1,2.9-0.2,4.4c-0.2,3-0.4,6-0.6,9.1c-0.2,2.8-0.4,5.5-0.9,8.2
		c-0.4,3-1,5.9-1.5,9c-0.3,1.7-0.9,3.5-1.3,5.2c-0.1,0.4-0.1,0.9,0.4,1.1c1.9,0.8,3.9,1.5,5.8,2.2c0.1,0.1,0.3,0,0.5,0.1
		c0.1-1.1,0.3-2.2,0.4-3.2c0.2-2.4,0.5-4.7,0.8-7c0.1-1,0.2-1.8,0.2-2.8c0.1-1.6,0.1-3.3,0.2-5c0.1-3.9,0.2-7.8,0.3-11.5
		c0-0.6,0.1-1.3,0.3-1.9c0-0.2,0.3-0.3,0.4-0.5c0.1,0.2,0.3,0.3,0.4,0.5c0.3,1.8,0.5,3.6,0.9,5.4c0,0.2,0.1,0.5,0.2,0.8
		c-0.1-10.8-0.3-21.5-1.7-32.3c-0.2,1.2-0.3,2.5-0.4,3.7c-0.1,0.6-0.1,1.2-0.2,1.8c0,0.2-0.2,0.3-0.3,0.4c-0.1-0.1-0.4-0.3-0.4-0.4
		c-0.2-1.1-0.3-2.3-0.5-3.3c-0.2-1.9-0.5-3.9-0.8-5.8c-0.1-1.3-0.3-2.5-0.3-3.8c-0.1-2.3-0.2-4.5-0.3-6.9c-0.1-2.2-0.1-4.3-0.5-6.4
		c-0.2-1.5-1-2.9-1.6-4.2c-1.8-4-4.3-7.6-7.4-10.6c-3.9-3.8-8.4-6.1-13.7-7.3c-3.7-0.9-7.4-1.2-11.2-0.9c-3.7,0.2-7.1,1.2-10.6,2.6
		c-2.6,1.1-5,2.5-7.3,4c-1.2,0.8-2.4,1.6-3.3,2.7c-2.3,2.3-4.5,4.4-6.5,6.9c-2.2,2.7-3.9,5.7-5.8,8.5c-1.1,1.6-2.3,3.2-3.3,4.9
		c-2,3-4.2,6.1-6.3,9.2c-0.8,1.1-1.4,2.2-2.2,3.2c0.1,0,0.1,0.1,0.2,0.1c0.4-0.4,0.9-1,1.4-1.4c1.9-2,3.8-4.2,5.3-6.5
		c0.1-0.1,0.1-0.2,0.2-0.2c0.2-0.1,0.5-0.3,0.8-0.4c0.1,0.3,0.3,0.8,0.2,1c-0.3,1.2-0.9,2.3-1.3,3.5c-1.9,5.2-4,10.2-5.9,15.4
		c-1.4,3.8-2.8,7.7-4,11.4c-1.6,5.3-3.1,10.7-4.6,16.1c-0.3,1.1-0.5,2.2-0.6,3.3c0.2-0.4,0.4-1,0.5-1.4c2-6.1,4.9-12.1,7.9-17.8
		c0.2-0.4,0.5-0.9,0.8-1.2c0.1-0.1,0.4-0.1,0.6-0.2c0,0.2,0.1,0.4,0.1,0.6c-0.6,2.7-1.3,5.3-1.9,8c-0.9,3.7-1.6,7.3-2.4,11
		c0,0.1,0,0.2,0,0.4c0.6-0.9,1.2-1.6,1.7-2.5c2.7-4.3,5.4-8.5,8.2-12.8c0.2-0.3,0.6-0.6,0.9-1c0.1,0.1,0.2,0.1,0.3,0.2
		c-0.2,0.4-0.3,0.9-0.5,1.2c-1.4,2.3-2.7,4.5-4.2,6.8c-2.7,4.1-5.4,8.2-8.2,12.2c-1.7,2.5-3.8,4.9-5.6,7.3c-1,1.4-1.8,2.9-2.6,4.5
		c-1.2,2.6-2.3,5.2-3.5,7.7c-0.9,1.8-1.9,3.7-2.9,5.5c-1.9,3.6-4,7.1-5.8,10.7c-2.6,5-5,10.1-6.9,15.4c-0.8,2-1.4,4.1-2,6.3
		c-0.3,0-0.6,0-1,0c0.4-1.5,0.9-3,1.4-4.4c1.3-3.5,2.7-6.8,4.1-10.2c1.3-2.8,2.7-5.6,4-8.4c0.3-0.6,0.1-1.6-0.1-2.4
		c-0.6-2.5-1.6-4.9-2.3-7.3c-0.9-3.5-0.9-6.9-0.6-10.5c0.2-3.8,1.1-7.4,2-11c1.8-6.8,4.6-13.4,7.8-19.7c3-6.3,6.5-12.3,10.1-18.1
		c2.3-3.6,4.5-7,6.8-10.6c2.6-3.9,5.3-7.8,8-11.8c2.6-3.8,5-7.7,7.6-11.5c3-4.5,6.6-8.6,10.8-12c4.9-3.9,10.1-6.6,16.3-7.7
		c2.2-0.4,4.3-0.9,6.5-0.8c5.4,0.1,10.7,0.9,15.6,3.3c3.7,1.8,6.9,4.4,9.6,7.6c3.2,3.8,5.6,8,7.1,12.6c1,3.1,1.7,6.5,2.5,9.7
		c0.5,2.5,1,5.1,1.3,7.7c0.2,1.7,0.3,3.6,0.5,5.3c0.2,2,0.4,4.2,0.5,6.3c0.1,0.9,0.2,1.7,0.2,2.6c0.1,2.5,0.3,4.9,0.3,7.3
		c0.1,5.5,0.2,11.1,0.3,16.6c0,2.8,0.1,5.5,0,8.3c-0.1,2.9-0.3,5.8-0.4,8.7c-0.1,2.4-0.4,4.9-0.5,7.2c0,0.2,0.3,0.6,0.5,0.8
		c2.7,0.9,5.4,1.7,8.1,2.4c1.3,0.3,2.7,0.6,4.2,0.4c1.2-0.1,2.5,0,3.8,0.2c1.2,0.2,1.9,1.1,2.2,2.3c0.5,2.9,1.1,5.8,1.5,8.7
		c0.4,2.9,0.6,5.7,1,8.6c0.4,3.8,0.4,7.4,0.2,11.2c-0.1,1.9-0.2,3.9,0.3,5.8c0.2,0.8,0.1,1.5,0.1,2.4c-0.3,0-0.6,0-1,0
		c0.2-0.9,0.3-1.6-0.1-2.5c-0.4,0.2-0.8,0.4-1.1,0.6c-1,0.6-1.8,1.3-2.8,1.9c-4.9,0-9.6,0-14.5,0c-0.2-1.6-0.5-3.1-0.6-4.7
		c-0.1-3.9,0-7.8,0-11.7c0-0.1,0-0.1,0-0.2c0.2-2.6,0.4-5.2,0.6-7.8c0.1-1.5,0.3-2.9,0.4-4.4c0-0.2-0.1-0.4-0.2-0.6
		c-0.1,0.2-0.4,0.3-0.4,0.5c-0.1,1.1-0.2,2.2-0.3,3.2c-0.3,3-0.8,6-1,9.1c-0.2,2.7-0.3,5.5-0.3,8.2c0,1.8,0.1,3.7,0.1,5.4
		c0,1,0.2,1.9,0.3,2.9c-1.7,0-3.5,0-5.2,0c0.1-0.5,0.1-1,0.2-1.5c0.2-2.5,0.4-5,0.6-7.4c0.1-1-0.4-1.5-1.2-2.2
		c-0.1,0.6-0.1,1.2-0.1,1.8c-0.1,1.4-0.3,2.7-0.4,4.1c-0.2,1.7-0.3,3.6-0.5,5.3c-6.4,0-12.7,0-19,0c0.1-1.2,0-2.4,0.2-3.7
		c0.3-2.9,0.5-5.8,1-8.7c0.6-3.6,1.5-7.1,2.4-10.7c0.4-1.6,1-3.2,1.4-4.9c-0.1,0-0.1-0.1-0.2-0.1c-1.3,2.2-2.7,4.2-3.9,6.5
		c-1.2,2.4-2.3,4.7-3.2,7.2c-1.9,4.5-3.2,9.4-3.8,14.3c-11.7,0-23.2,0-34.8,0c1.6-3.1,2.8-6.5,3.8-9.9s1.7-7,1.9-10.6
		c0.2-3,0.4-6,0.4-9.2c0-3.2-0.4-6.5-0.6-9.7c-0.1-1.9-0.3-3.9-0.5-5.8c-0.2-1.9-0.4-3.9-0.6-5.9c-0.1-1.5-0.2-3-0.3-4.5
		c-0.2-3.8-0.3-7.6-0.5-11.4c-0.1-2.5-0.3-4.9-0.3-7.3c-0.1-5.6-0.2-11.2-0.1-16.9c0-3.7,0.2-7.3,0.3-11
		C131.5,55.5,131.7,54.4,131.8,53.5c0.4,0,0.9,0.2,0.9,0.8c0,1.6,0.6,3.1,1.5,4.5c0.1,0.2,0.5,0.6,0.6,0.6c0.3-0.2,0.8-0.4,0.9-0.8
		c0.5-1.3,1-2.6,1.4-3.8c0.1-0.4,0.1-0.8-0.4-1c-0.6-0.2-1.3-0.5-1.9-0.9C133.2,52.3,133,52.3,131.8,53.5z M162.5,67.3
		c-0.1-0.1-0.2-0.1-0.3-0.2c0.4-0.8,0.8-1.6,1.4-2.2c1.8-1.9,4.2-3,6.8-3.6c2.4-0.5,4.7-0.6,7.1-1c0.6-0.1,1.2-0.2,1.8-0.2
		c0.2,0,0.3,0,0.5,0c0-0.2,0-0.4-0.1-0.6c-0.4-0.5-0.9-1-1.2-1.5c-1.3-2-2.6-4.2-3.9-6.3c-0.8-1.3-1.5-2.6-2.4-3.9
		c-0.9,0.5-1.4,1.2-1.4,2.3c0,0.9-0.2,1.8-0.2,2.7c-0.1,1-0.1,1.8-0.2,2.8c1.6-0.3,2.9-1.3,4.5-1.1c-1.2,0.8-2.5,1.3-3.8,2
		c-1.2,0.6-1.7,1.8-1.6,3.1c2.2-0.3,4.2-1.3,6.4-0.4c-4.6,0.4-9.2,1.5-12.9,4.6c-0.3-1-0.9-1.1-1.7-0.8c-0.8,0.3-1.5,0.4-2.3,0.8
		c-0.5,0.2-0.9,0-0.9-0.5c0-0.1-0.1-0.2-0.1-0.3c-0.2,0.3-0.4,0.5-0.8,0.9c-1.2-2.3-1.6-4.5-2.6-6.8c-0.1,0.2-0.1,0.3-0.1,0.5
		c0.4,1.8,0.8,3.7,1.2,5.6c0.1,0.4,0,1-0.1,1.4c-0.2,0.6-0.5,0.8-1,0.2c-0.2-0.3-0.4-0.5-0.6-0.9c-0.8-2-1.5-4-2.4-6
		c-0.1-0.3-0.2-0.6-0.3-0.9c-0.2,0.2-0.2,0.3-0.2,0.4c0.1,2.4,0.1,4.9,0.2,7.2c0,0.8-0.4,1-1,0.9c-0.4-0.1-0.9-0.3-1.3-0.5
		c0,0.1,0.1,0.1,0.1,0.2c-0.9,0.1-1.7,0.3-2.8,0.4c0.6,0.2,1.2,0.4,1.7,0.6c0.5,0.2,1.1,0.3,1.5,0.5c0,0.1,0,0.2-0.1,0.3
		c-0.2,0-0.4,0-0.6,0c-1.4-0.3-2.8-0.8-4.2-1.1c-0.3-0.1-0.8,0.1-1.2,0.2c0,0.1,0,0.1,0,0.2c3.6,0.2,4.7,0.6,5.7,1.8
		c-0.3-0.1-0.6-0.2-1-0.2c0,0,0,0.1-0.1,0.1c0.5,0.4,1.1,0.9,1.6,1.2c0,0.1-0.1,0.1-0.1,0.2c-0.5-0.2-1-0.5-1.5-0.6
		c-0.4-0.1-0.9,0.2-1.3,0.3c-0.1,2-0.4,2.9-1.1,3.2c0.2-0.5,0.4-1.1,0.5-1.6c0.2-1.6,0.2-2.3-0.9-2.6c-0.5-0.1-1.2-0.1-1.6-0.1
		c-0.3,0.8,0.3,1.7-0.9,2.3c-0.2-0.8-0.3-1.5-0.5-2.2c-1.3-0.1-1.7,0.3-1.3,1.6c0.2,0.6,0.4,1.2,0.8,1.8c-1.3-0.9-1.2-2.3-1.3-3.6
		c-1.3,0.6-1.4,0.9-0.9,2c0.4,1.1,1.2,1.8,2.3,2.4c0.2,0.1,0.3,0.2,0.6,0.4c-2-0.6-3-1.4-3.8-3.8c-0.5,0.1-1.2,0.2-1.8,0.3
		c0.3-0.4,0.5-0.8,1-1.2c-0.9,0.1-1.5,0.2-2.4,0.3c0.4,0.6,0.6,1.1,1,1.6c1.3,1.8,3,3.1,5.4,2.9c1.8-0.2,3.7-0.6,5.4-1
		c0.4-0.1,0.8-0.2,1.2-0.3c-0.3,0.5-0.5,1-0.9,1.4c-0.4,0-0.9-0.1-1.3,0c-0.5,0.1-1.3,0.2-1.5,0.6c-0.3,0.5-0.5,0.5-1,0.2
		c-0.5-0.4-1.3-0.4-1.8,0.1c-0.2,0.2-0.3,0.4-0.4,0.4c-1.1-0.3-2-0.8-3-1c-1.6-0.3-3.1-0.9-4.4-1.9c-0.6-0.5-1.1-1.2-1.7-1.9
		c-0.1,0.3-0.1,0.3-0.1,0.4c0.2,0.5,0.4,1.2,0.6,1.7c1.6,4.5,3.5,9,5.9,13.2c1.4,2.5,3,4.7,5.3,6.5c1.6,1.2,3.3,2.2,5.1,3.2
		c2.9,1.8,6,3.3,9.3,4.4c2.3,0.8,4.3,0.6,6.3-0.9c1.8-1.4,3.8-2.9,5.6-4.3c3-2.4,6-5,8.5-8c1.1-1.3,1.7-2.7,1.7-4.5
		c-0.1-4.9-0.1-9.7-0.2-14.6c0-0.8-0.1-1.5-0.2-2.3c-1.2,1-2.3,1.9-3.8,2.2c0.1-0.4,0.3-0.6,0.4-1c0.5-0.9,1-1.8,1.4-2.8
		c0.2-0.4,0.3-1-0.2-1.2s-1.2-0.3-2-0.4c0.2,0.4,0.2,0.6,0.3,0.9c-0.5-0.1-1.1-0.2-1.5-0.3c0.1,0.6,0.2,1.4,0.2,2
		c0,0.6-0.1,1.4-0.4,2c-0.2,0.5-0.6,1.2-1.6,1.3c1.4-1.6,1.5-3.2,1.1-5c-0.4,0-0.6,0-1,0c-0.4,0-1-0.2-1.3-0.1
		c-1.3,0.3-2.5,0.8-3.8,1.3c-0.1,0-0.3,0.4-0.2,0.5c0.4,1.2,1,2.3,2,2.9c0.3,0.2,0.6,0.4,1,0.6c0,0.1-0.1,0.1-0.1,0.2
		c-0.5-0.2-1.1-0.4-1.5-0.8c-1-0.6-1.6-1.6-1.9-2.7c-0.2-0.5-0.4-0.5-0.9-0.3C164.9,65.2,163.4,65.9,162.5,67.3z M167.5,138.4
		c4.4-8.5,6.7-17.8,9.8-26.8c-0.9-0.5-1.6-1-2.4-1.5c-1.3-1-1.9-2-1.6-3.8c0.3-1.4,0.2-3,0.3-4.7c-1.1,0.3-1.9,0.5-2.8,1
		c-1.7,1-3.5,1.9-5.1,3c-1.2,0.8-2.5,1.3-3.2,2.6c-0.3,0.6-0.6,1.3-1,1.9c-0.2,0.3-0.3,0.9-1,0.6c-0.3-0.1-0.6-0.4-0.8-0.8
		c-0.6-1.2-1.1-2.5-2-3.5c-0.9-0.9-2-1.4-3.2-2c-1.9-1.1-3.8-2-5.8-3c-0.2,0.4-0.4,0.8-0.5,1.2c-0.2,1.4-0.3,2.7-0.4,4.1
		c0,1.3-0.3,2.3-1.4,3c-0.8,0.5-1.5,1.2-2.2,1.9c-2.5,3-5.5,5.4-9.2,7c-0.2,0.1-0.5,0.4-0.4,0.6c0.1,1.5,0.3,3,0.5,4.5
		c0.4,3.2,0.9,6.5,1.3,9.7c0.3,1.7,0.4,3.6,3,3.9c3.2,0.5,6.5,1.6,9.7,2.4c0.5,0.1,0.8,0,1-0.6c0.5-1.5,1.1-3.1,1.8-4.5
		c1.5-2.9,3.2-5.6,5-8.5c0.1-0.2,0.1-0.8,0-1c-0.6-1.1-1.4-2.2-2-3.3c-0.1-0.2-0.2-0.8-0.1-1c1.6-2.8,3.3-5.6,5.1-8.3
		c0.5-0.8,0.8-0.8,1.3,0c1.6,2.7,3.1,5.4,4.6,8.1c0.2,0.4,0.2,0.9-0.1,1.3c-0.9,1.2-1.6,2.4-2.5,3.6c-0.4,0.5-0.4,1.1-0.2,1.8
		c1,2.5,1.8,5,2.8,7.4C166.5,136,167.1,137.2,167.5,138.4z M150.8,53c0.1,0,0.2,0,0.3,0c1.1,3.7,2.2,7.4,3.9,10.9
		c-0.3-2.5-0.8-4.9-1.1-7.2c-0.3-2.4-0.8-4.9-0.5-7.2c0.6,2,1.2,4,1.7,6c0.6,2,1.3,4.1,1.9,6c0.1-0.3,0.2-0.6,0.1-1
		c-0.2-1.5-0.4-3-0.6-4.5c0-0.2,0.1-0.3,0.1-0.5c0.2,0.1,0.4,0.2,0.4,0.4c0.3,1.3,0.6,2.7,1,4c0.2,1,0.4,2,0.8,3
		c0.6-0.1,1.1-0.3,1.6-0.4c1-0.2,1.5-0.6,1.6-1.7c0.1-0.6,0.4-1.3,0.6-1.9c0.1,0,0.2,0,0.4,0c0,1.1,0,2.2,0,3.3c0.1,0,0.2,0,0.3,0
		c0.2-0.6,0.4-1.2,0.5-1.8c0.6-2.7,1.1-5.4,1.2-8.1c0-0.2,0.2-0.5,0.3-0.9c0.2,0.2,0.3,0.3,0.3,0.4c0.3,2.9,0.6,5.9,1.1,8.8
		c0.2-0.1,0.5-0.2,1-0.3c0.5-0.2,0.9-0.4,1-1.1c0.4-2.9,1-5.8,1.4-8.7c0.2-1.3,0.2-2.6-0.5-3.9c-1-1.7-1.7-3.5-2.5-5.3
		c-0.3-1-1-1.3-1.8-1.3c-3.7-0.1-7.3,0.1-11,0.9c-3.8,0.8-7.3,2.2-10.8,3.7c-0.8,0.3-1.6,0.6-1.9,1.7c-0.3,1.4-0.9,2.7-1.3,4
		c-0.1,0.5-0.2,1.1-0.2,1.6c0.1,1.9,0.4,3.9,0.4,5.8c0.1,2.7,0.5,5.3,1.7,7.8c1.2,0,1.3-0.1,1.2-1.3c-0.1-0.5-0.1-1-0.1-1.5
		c0-1.3,0.1-2.7,0.2-4c0-0.2,0.2-0.4,0.3-0.8c0.1,0.2,0.3,0.5,0.3,0.8c-0.1,1.8,0.4,3.6,0.9,5.3c0.1,0.6,0.4,0.9,1.1,0.6
		c0.5-0.1,1.1-0.2,1.7-0.2c0.5,0,0.6-0.2,0.6-0.6c0.1-1,0.1-1.8,0.3-2.8c0.1-0.4,0.3-0.8,0.5-1.2c0.1,0,0.1,0,0.2,0
		c0.1,0.2,0.2,0.4,0.2,0.5c-0.4,1.2,0.1,2.4,0.3,3.6c0,0.2,0.3,0.3,0.4,0.4c0.1-0.2,0.2-0.4,0.2-0.5c0-3.3,0-6.7,0-10
		C150.6,53.6,150.7,53.4,150.8,53z M109.6,56.5l-0.1-0.1c-0.8,0.9-1.6,1.6-2.4,2.5c-0.9,1-1.9,2-2.7,3.1c-1.3,1.9-2.5,3.9-3.7,5.8
		c-2.6,4.4-5.2,8.8-7.6,13.4c-1.6,2.9-2.9,5.9-4.3,8.8c-2.7,5.8-4.9,11.9-6.3,18.2c-0.6,2.8-1,5.7-1.2,8.5
		c-0.3,4.7,0.5,9.5,2.3,13.9c0.3,0.9,0.6,1.7,1.1,2.7c0.2-0.2,0.2-0.3,0.3-0.4c1.4-2.4,2.8-4.9,4.1-7.2c1.4-2.5,2.7-5.1,3.9-7.6
		c0.4-0.9,0.6-1.8,0.6-2.9c0-4.9-0.2-9.7,0.4-14.5c0.3-2.3,0.4-4.5,0.9-6.8c0.9-4.9,1.9-9.7,3.7-14.5c1.4-3.9,2.9-7.7,4.5-11.4
		c1.2-2.7,2.7-5.3,4.1-7.9C108.2,59.1,108.9,57.8,109.6,56.5z M160.8,113.9c-0.5,0.9-1,1.5-1.4,2.2c-1,1.6-2,3.2-3,4.9
		c-0.3,0.4-0.2,0.9,0.1,1.2c0.8,1.1,1.5,2.2,2.3,3.2c0.2,0.4,0.3,0.8-0.2,1c-0.3,0.1-0.4,0.5-0.6,0.8c-1.1,1.9-2.3,4-3.3,5.9
		c-1.2,2.2-2.5,4.4-3,6.9c-0.1,0.3,0,0.9,0.3,1.1c2,2.2,4.2,4.3,6.3,6.6c0.3,0.4,0.6,0.3,1,0.1c1.9-1.4,4-2.8,5.9-4.1
		c1.3-0.9,2.2-3.5,1.5-5.1c-1.6-3.8-3.1-7.7-4.6-11.4c-0.2-0.5-0.1-0.9,0.2-1.3c0.9-1.2,1.8-2.4,2.7-3.7c0.3-0.4,0.4-0.9,0.1-1.4
		c-0.8-1.1-1.4-2.4-2-3.5C162.1,116.2,161.5,115.1,160.8,113.9z M133.5,109.6c0.1-0.2,0.2-0.3,0.3-0.5c0.5-2.3,1.1-4.5,1.6-6.9
		c0.3-1.3,0.8-2.7,1.3-4c0.1-0.2,0.4-0.4,0.8-0.5c0.1,0.2,0.3,0.5,0.3,0.8c-0.1,2.2-0.3,4.3-0.3,6.5c0,1.9-0.4,3.8,0.1,5.7
		c0.1,0.4,0.3,0.6,0.8,0.6c1.2-0.1,2.3-0.1,3.5-0.3c0.8-0.1,1.5-0.4,2.2-0.9c0.9-0.4,1.6-1.1,2.4-1.7c0.2-0.1,0.3-0.3,0.3-0.5
		c0-0.5,0-1.1,0-1.6c-0.2-1.8-0.2-3.6,0.2-5.3c0.1-0.5,0.6-1,1-1.4c0.1-0.2,0.4-0.4,0.5-0.6c0.1-0.6,0.1-1.3,0-1.9
		c-0.1-0.6-0.4-1.3-0.9-1.8c-0.4-0.5-1.3-0.8-1.8-1.2c-1.3-1-2.6-1.8-3.7-2.9c-1.3-1.4-2.3-3-3.5-4.6c-0.3-0.4-0.6-0.8-1.2-0.8
		c-1,0-1.8-0.3-2.5-1c-0.8-0.8-1.5-1.6-2.3-2.5c-0.1,0-0.1,0.1-0.2,0.1c0.1,3.7,0.2,7.4,0.3,11.1c0.8-2.3,1.1-4.7,2.5-6.9
		c0.4,0.4,0.8,1,0.9,1.4c0.2,1.1,0.8,2.2,0.3,3.2c-0.6,1.7-1.4,3.3-2.2,5.1c-0.6,1.5-1.4,2.9-1.3,4.6
		C133.1,103.7,133.3,106.7,133.5,109.6z M181.1,116.4c-0.2,0.4-0.3,0.8-0.4,1.1c-1,2.2-1.8,4.4-2.8,6.6c-0.8,1.6-1.8,3-2.4,4.7
		c-1.2,3.6-2.2,7.2-3.2,10.8c-0.3,1-0.2,1,0.8,1c3.2-0.2,6.5-0.5,9.7-0.8c0.5,0,0.8-0.2,1-0.8c0.9-2.9,1.8-5.8,2.6-8.7
		c0.8-3.1,1.3-6.4,1.9-9.5c0.1-0.4-0.1-0.8-0.5-1c-1.1-0.5-2-1.1-3-1.6C183.5,117.4,182.3,116.9,181.1,116.4z M137.5,50.9
		c-0.1,0-0.3,0.1-0.4,0.1c-1.3-1.1-2.6-2.3-4-3.5c0,0.3,0,0.4,0.1,0.5c0.2,0.3,0.4,0.6,0.5,1c0.3,0.5,0,0.8-0.3,1.1
		c-0.4,0.3-0.6,0.2-1-0.2c-0.1-0.2-0.3-0.3-0.5-0.6c-0.5,1.3-1.1,2.5-1.6,3.6c0.9-0.3,1.6-0.9,2.4-1.2c0.3-0.2,0.9-0.2,1.3-0.1
		c1.1,0.3,2,0.9,3.1,1.3c0.6,0.3,1,0.2,1.2-0.4c0.8-1.9,1.7-4,2.4-5.9c0.4-1.3,1-2.2,2.4-2.6c2.7-1,5.3-2.2,8-3c3-1,6-1.5,9.3-1.6
		c1.9-0.1,3.9,0,5.8,0c0.9,0,1.3,0.3,1.6,1c0.6,1.4,1.3,2.8,1.9,4.2c0.4,1,1,1.9,1.5,3c1.8-2,3.3-4.2,4.2-6.6
		c0.3-0.9,0.8-1.2,1.6-1.1c1.1,0.2,2.2,0.3,3.5,0.5c-1.2-1.4-2.6-2.5-4.2-3.5c0,0.4,0.1,0.8,0,1c-0.1,0.3-0.4,0.6-0.6,0.6
		c-0.2,0-0.6-0.3-0.8-0.6c-0.1-0.3,0-0.6,0-1.1c0-0.8-0.2-1.3-1.2-1.3c0,0.3,0.1,0.5,0.1,0.9c0.2,1.4,0.6,2.7-0.1,4
		c-0.5,1-0.9,1.9-1.4,2.8c-0.5,0.8-0.9,0.6-1.3-0.1c-0.9-1.5-1.7-3-2.5-4.6c-0.1-0.1-0.1-0.4,0-0.5c0.2-0.8,0.4-1.5,0.6-2.3
		c0.1-0.4,0.2-1-0.4-1.1c-2-0.3-4-0.6-6-0.8c-2.2-0.1-4.3,0-6.5,0.1c-2.9,0.1-5.8,0.9-8.5,1.9c-1.9,0.8-3.8,1.8-5.5,2.9
		c-1.6,1.1-3.2,2.4-4.9,3.7c1.5,1.1,1.6,2.5,1.5,4c0,0.4,0,1-0.2,1.4C138,48.9,137.7,49.9,137.5,50.9z M94.7,114.2
		c0.1,0,0.1,0,0.2,0.1c0.2-0.4,0.4-0.9,0.6-1.3c1.2-2.4,2.4-4.7,2.7-7.4c0.3-3.1,0.9-6.1,1.5-9.2c1.3-5.2,2.6-10.4,4.2-15.4
		c1.6-5.4,3.6-10.7,5.5-16c1.4-4,3-8,4.6-11.9c0.3-0.9,0.6-1.8,1.1-2.7C101.4,69.3,93.9,90.5,94.7,114.2z M180.2,86.2
		c-0.2,0.1-0.2,0.1-0.3,0.2c-1.4,1.4-2.7,2.8-4.1,4.2c-0.6,0.6-0.9,1.3-0.9,2.2c0,1.3-0.2,2.7-0.3,4c0,0.8,0,1.6,0.1,2.4
		c0.1,0.6,0.4,1.3,0.3,1.9c-0.1,2-0.4,4-0.6,5.9c-0.1,0.8,0,1.4,0.8,1.8c0.4,0.3,0.9,0.8,1.3,1.1c1.1,0.9,1.2,0.8,1.5-0.5
		c0.1-0.2,0.1-0.4,0.1-0.6c0.3-1.9,0.6-4,0.9-5.9c0.2-2.2,0.4-4.2,0.6-6.4c0.1-1.1,0.2-2.3,0.2-3.3
		C180.1,90.8,180.1,88.5,180.2,86.2z M149.3,97c0,0.5,0.1,1,0,1.3c-0.3,0.9,0.1,1.3,0.8,1.6c2.8,1.7,5.5,3.3,8.3,5.1
		c0.3,0.2,0.5,0.4,0.8,0.8c0.5,1,1.1,2,1.7,3.2c0.1-0.2,0.2-0.4,0.3-0.5c0.6-1,1.2-2,1.9-2.9c0.4-0.5,1.1-0.9,1.7-1.2
		c2.3-1.5,4.5-2.9,6.9-4.3c1.3-0.8,2.5-1.4,2-3.2c0-0.1,0.1-0.3,0.1-0.4c0-1.3,0-2.5,0-3.8c-0.2,0.2-0.3,0.3-0.4,0.4
		c-3.1,3.2-6.4,6.5-10.5,8.6c-0.8,0.4-1.5,0.8-2.4,0.9c-2.7,0.3-5-1.1-7-2.5C152.1,99.1,150.8,98,149.3,97z M139.3,52.7
		c-0.6,0.9-1.4,1.5-1.7,2.4c-1.3,3.5-2.6,7-3.8,10.5c-0.3,0.9-0.6,1.7-1,2.8c3.1-1,5.9-2.2,9.1-2.2c-0.3-0.9-0.8-1.3-1.6-1.3
		c-0.6,0-1.3-0.3-1.9-0.4c0-0.1,0-0.2,0-0.3c0.9,0,1.6,0,2.5,0c-0.2-0.8-0.4-1.3-0.4-1.9c-0.1-0.9-0.4-1.1-1.2-1.2
		c-1-0.1-2-0.3-3-0.5c0-0.1,0-0.2,0-0.3c1.2-0.5,2.5,0,3.8-0.3C139.7,57.6,139.6,55.2,139.3,52.7z M176.8,158.1c1.1,0,2-0.3,2.9-1
		c1.1-1,1.1-2.2,1.1-3.5c-0.2-2.6-2.7-4-5.1-3.2c-1.4,0.4-2.2,1.6-2.4,3C172.7,155.9,174.4,158.1,176.8,158.1z M142.1,152.4
		c0.1-2.4-1.7-4-3.7-4c-2.4,0-4,1.1-3.8,4.3c0.1,2.4,1.2,3.6,3.6,3.6C140.3,156.4,142.3,155.1,142.1,152.4z M192.4,88.2
		c-0.1,0-0.1,0-0.2,0c0,1.5,0.1,3,0,4.5c-0.2,3.7-0.3,7.3-0.6,11c-0.1,2.3-0.4,4.5-0.6,6.8c-0.1,1.2-0.3,2.5-0.5,3.7
		c0,0.3,0,0.9,0.2,1c0.5,0.3,1.2,0.4,1.9,0.6c0.1-2.2,0.3-4.3,0.4-6.4c0.1-1.2,0.1-2.4,0.2-3.7c0.2-3.3,0.5-6.6,0.1-9.9
		c-0.3-2.5-0.5-5-0.9-7.3C192.5,88.4,192.4,88.3,192.4,88.2z M197.9,120.5c0.3,1,0.8,1.7,1.8,1.8c0.4,0,1,0.1,1.3,0.3
		c0.3,0.2,0.6,0.5,0.8,0.9c0.2,1.3,0.3,2.5,0.3,3.8c0,1.3,0,2.6-0.1,4c-0.2,1.8-0.4,3.6-0.8,5.4c-0.3,1.9-0.8,3.9-1.2,5.8
		c0.2-0.1,0.3-0.2,0.3-0.4c1-3,2-6,2.8-9.2c0.5-2.4,1-4.7,1.1-7.1c0.1-1.5-0.4-3.1-0.6-4.6c-0.1-0.8-0.3-1.3-1.2-1.2
		c-0.4,0-0.9-0.1-1.3-0.2c-0.1,1.2-0.1,1.2-1.3,1.1C199.2,120.6,198.6,120.6,197.9,120.5z M102.7,102.1c0.3-0.4,0.5-0.5,0.6-0.8
		c0.5-0.9,1.2-1.7,1.6-2.6c0.3-0.9,0.4-1.9,0.6-2.8c0.9-4.1,1.8-8.1,2.7-12.2c0.1-0.6,0.2-1.4,0.4-2c-0.6,0.8-1.1,1.6-1.5,2.6
		c-0.2,0.5-0.5,1.1-0.6,1.6c-0.2,0.5-0.2,1.2-0.3,1.7c-0.3,1-0.8,1.8-1.1,2.8c-0.8,2.7-1.6,5.3-2.2,8
		C102.4,99.5,102.7,100.7,102.7,102.1z M193.7,140.5c-0.8,0.3-1.4,0.5-2-0.2c-0.9-1.2-1.8-2.3-2.8-3.3c-0.9-1-1.6-1.9-2.6-3
		c-0.3,1.1-0.6,1.9-0.9,2.8c-0.1,0.3,0,0.9,0.3,1.1c1.7,1.9,3.6,3.8,5.4,5.7c0.2,0.2,0.6,0.3,0.9,0.3c1.5-0.2,1.6-0.4,1.6-1.9
		C193.7,141.4,193.7,141,193.7,140.5z M197.4,119.7c0.1-1.3,0.1-1.3-1.1-1.6c-1.1-0.3-2.2-0.6-3.2-1.1c-1.2-0.4-1.2-0.4-1.7,0.6
		c-0.1,0.3-0.2,0.8-0.9,0.5c-1.8-0.8-3.6-1.3-5.4-2c-0.4-0.2-0.8-0.4-0.5-1.1c0.3-1.3,0.5-1.2-1-1.7c-0.4-0.1-0.9-0.3-1.3-0.5
		c-0.2,0.5-0.3,1.1-0.5,1.5c-0.2,0.4,0,0.8,0.4,1c1.6,0.9,3.2,1.8,5.1,2.6c2.4,1,5,1.6,7.3,2.5c0.8,0.2,1.4,0.3,1.9-0.4
		C196.6,119.9,197.1,119.8,197.4,119.7z M193.5,144.1c-0.2,0.1-0.4,0.2-0.6,0.3c-1.1,0.5-1.8,0.3-2.7-0.6c-1-1.2-2.2-2.3-3.2-3.3
		c-0.6-0.8-1.4-1.5-2-2.3c-0.2,0.5-0.5,1-0.5,1.5c-0.1,0.4,0,0.9,0.2,1.2c0.1,0.3,0.5,0.6,0.8,1c1.7,1.9,3.5,4,5.2,5.9
		c0.2,0.2,0.6,0.2,1,0.2s0.6-0.3,1-0.4c0.9-0.2,1.1-0.8,1.1-1.5C193.5,145.4,193.5,144.7,193.5,144.1z M187.5,72.9
		c0.2-0.3,0.3-0.4,0.4-0.6c1-1.7,1.5-3.6,1.7-5.4c0.3-1.8,0.3-3.8-1-5.4c-0.4-0.5-1.1-1.1-1.6-1.5c-0.1,0.1-0.1,0.1-0.2,0.2
		c0.1,1,0.1,1.8,0.2,2.8c1.5,0.1,1.7,0.3,1.6,1c-0.4-0.1-1-0.2-1.4-0.3c0,2,0,4,0,6c0.3-0.3,0.5-0.4,0.8-0.6c0.1,0,0.2,0.1,0.3,0.1
		C187.5,70.2,187.1,71.4,187.5,72.9z M137.1,84.5c0-0.1,0.1-0.2,0.1-0.2c-0.4-0.9-0.6-1.9-1.5-2c-0.1-0.6-0.1-1.1-0.2-1.5
		c-0.4-1.2-1-2.4-1.5-3.6c-0.1-0.2-0.3-0.4-0.5-0.6c-0.2,0.6-0.3,1.1-0.5,1.6c-0.1,0-0.1-0.1-0.2-0.1c-0.3-1.1,1.1-2.2-0.1-3.6
		c-0.2,0.8-0.4,1.4-0.5,2c-0.1,1,0,1.8,0.1,2.8c0,0.2,0,0.5,0.1,0.6c0.9,1.5,1.8,3,3.3,4C136.1,84.2,136.6,84.3,137.1,84.5z
		 M134.5,117.3c3-1.5,5.8-3,8-5.4c-1.1,0-2.3,0-3.3,0.2c-0.3,0-0.5,0.4-0.8,0.8c-0.3,0.3-0.6,0.9-1.1,1.1c-0.8,0.4-1.6,0.5-2.5,0.9
		c-0.2,0.1-0.5,0.3-0.5,0.5C134.2,115.9,134.4,116.6,134.5,117.3z M186.6,144.6c-0.1,0.2-0.1,0.3-0.1,0.4c-0.3,1.9-0.5,3.9-0.9,5.8
		c-0.3,2.2-0.6,4.2-1,6.4c-0.1,0.4,0,0.8,0.3,0.8c0.2,0,0.5-0.4,0.6-0.6c0.2-1.2,0.3-2.4,0.5-3.6c0.3-2.2,0.8-4.3,1.1-6.6
		C187.5,146.3,187.6,145.3,186.6,144.6z M200.7,144.7c-0.9,1.1-0.9,1.2-0.6,2.3c0.3,1.8,0.6,3.7,1,5.4c0.2,1.3,0.4,2.5,0.6,3.8
		c0,0.2,0.3,0.4,0.5,0.4c0.1,0,0.3-0.3,0.4-0.5c0.1-0.3,0-0.5-0.1-0.9c-0.4-2.4-0.9-4.7-1.3-7.2
		C201.2,146.9,200.9,145.8,200.7,144.7z M197.8,128.7c-0.1-0.6-0.2-1.2-0.3-1.7c-0.2-1.3-0.5-2.5,0.6-3.5c0.1-0.1,0.1-0.4,0-0.6
		c-0.3-0.6-0.8-1.3-1.2-1.8c-1.6,0.8-1.8,1.4-1.1,2.8c0,0.1,0.1,0.2,0.2,0.3c0.4,0.6,0.4,1.3,0.2,2c-0.3,0.8-0.5,1.5-0.8,2.4
		C196.4,128.5,197.1,128.6,197.8,128.7z M193.2,148.1c-0.1,0-0.2,0-0.3-0.1c-0.1,0.3-0.3,0.6-0.4,1c-0.2,1.4-0.3,2.9-0.5,4.3
		c-0.2,1.5-0.4,2.9-0.5,4.3c0,0.2,0.2,0.5,0.3,0.8c0.2-0.2,0.5-0.4,0.6-0.6c0.2-1.2,0.4-2.4,0.6-3.7c0.2-1.7,0.4-3.6,0.5-5.3
		C193.4,148.7,193.3,148.4,193.2,148.1z M200.3,137.1c-1.2,0.6-2.3,1.2-3.2,1.7c-0.3,0.2-0.6,0.5-0.6,0.9c-0.1,0.6,0,1.4,0,2.2
		c0.9-0.3,1.7-0.5,2.6-0.9c0.3-0.1,0.6-0.4,0.8-0.8C199.9,139.2,200.1,138.3,200.3,137.1z M102.1,96.4c-0.1,0-0.2,0-0.2-0.1
		c-1,3.3-1.8,6.7-2.8,10c0.1,0,0.2,0.1,0.3,0.1c0.5-0.6,1-1.3,1.5-1.9c0.6-0.8,1-1.5,0.9-2.5c-0.1-1-0.1-1.8-0.1-2.8
		C101.8,98.2,102,97.3,102.1,96.4z M136.4,111.4c0-2.6,0-5.1,0-7.4c-0.1,0-0.2,0-0.4,0c-0.5,2.6-1.1,5.2-1.6,7.9
		C135.2,111.5,135.9,111.4,136.4,111.4z M133.7,42c0,0.6-0.1,1,0,1.2c0.9,2.2,1.7,4.2,2.6,6.3c0.1,0.2,0.4,0.3,0.6,0.5
		c0.1-0.3,0.2-0.6,0.1-1c-0.9-2.2-1.7-4.2-2.6-6.4C134.5,42.5,134.1,42.4,133.7,42z M199.1,141.7c-0.9,0.3-1.7,0.5-2.6,0.9
		c-0.2,0.1-0.4,0.4-0.4,0.6c0,0.9,0,1.7,0,2.5C198.1,145.2,199.1,143.9,199.1,141.7z M135.8,134.1c-0.4,0.6-0.9,1-1,1.4
		c-0.2,1.5-0.3,3-0.5,4.5c0.1,0,0.1,0,0.2,0.1c0.6-0.8,1.3-1.5,1.9-2.3c0.1-0.2,0.2-0.4,0.1-0.6
		C136.4,136.1,136.1,135.3,135.8,134.1z M185.7,114.3c-0.3,0.8-0.4,1.3,0.5,1.5c0.5,0.1,1.1,0.4,1.5,0.6c0.8,0.3,1.4,0.5,2.2,0.8
		c0.2,0.1,0.6-0.3,0.9-0.4c-0.1-0.2-0.2-0.6-0.4-0.6C188.9,115.4,187.3,114.9,185.7,114.3z M171.3,43.1c0.9-0.4,1.1-4.4,0.5-8.1
		c-0.5-0.2-0.8,0.1-0.8,0.6c0,1.5,0,3.1,0,4.6c0,0.6,0,1.4,0,2C171.1,42.6,171.2,42.8,171.3,43.1z M135,88.5c-0.1,0-0.1,0-0.2,0
		c-0.5,2.3-1.1,4.6-1.6,6.9c0.2-0.1,0.4-0.2,0.5-0.3c0.5-1.2,1-2.5,1.5-3.7C135.7,90.4,135.2,89.4,135,88.5z M137.6,112.6
		c0-0.1-0.1-0.2-0.1-0.3c-0.9,0.1-1.7,0.3-2.6,0.3c-1.1,0.1-1.3,0.4-0.6,1.5C135.4,113.6,136.6,113.5,137.6,112.6z M164.4,62.1
		c1.3-0.4,1.8-1.3,1.4-2.5C164.8,60.2,164.5,61,164.4,62.1z M135,130.3c0,1.1,0,2.3,0,3.6C135.7,132.8,135.6,131,135,130.3z
		 M200.4,119.3c-0.8-0.2-1.3-0.3-1.8-0.4c0,0-0.1,0.1-0.2,0.1c0,0.1-0.1,0.4,0,0.4c0.5,0.1,1.1,0.2,1.6,0.3
		C200,119.8,200.1,119.6,200.4,119.3z"/>
	<path d="M76.2,158.7c1.5-4.2,2.8-8.5,4.6-12.7c2.3-5.1,4.9-10,7.4-15c1.4-2.6,2.9-5.2,4.5-7.7c1.5-2.5,3.1-5,4.9-7.3
		c0.8-1.1,1.9-1.9,2.9-2.9c3.2-3.2,6.6-6.5,9.6-9.8c3.3-3.7,6.5-7.6,9.6-11.3c0.3-0.4,0.6-0.9,1-1.3c0.1-0.1,0.4-0.3,0.5-0.2
		c0.1,0.1,0.3,0.3,0.3,0.5c0,1-0.1,1.8-0.1,2.7c0,3.1,0.3,6.3,1.1,9.3c0.8,2.7,1.6,5.4,2.4,8.2c0.2,1,0.3,1.9,0.3,2.8
		c0,2.7,0,5.4-0.1,8c-0.2,3.1-0.6,6.1-1,9.3c-0.4,3.5-0.8,7-1.3,10.5c-1,5.7-2.3,11.4-3.9,17v0.1c-0.3,0-0.5,0-0.9,0
		c0.2-1.7,0.4-3.5,0.6-5.2c0.3-2.4,0.3-4.7,1.1-7c0-0.1,0.1-0.3,0-0.4c-0.4-0.9-1-1.8-1.5-2.7c-0.2,0.3-0.2,0.6-0.2,1
		c-0.1,2.2-0.2,4.3-0.3,6.6c-0.1,2.6-0.3,5.3-0.4,7.9c-6.1,0-12.4,0-18.6,0c0.1-0.1,0.1-0.2,0.2-0.2c0.4-0.6,1.2-1.1,0.5-2
		c-0.1-0.1,0.2-0.5,0.3-0.6c0.5-0.3,0.8-0.9,0.5-1.3c-0.4-1.3-0.5-2.6-0.3-3.9l-0.1-0.1c-0.1,0.1-0.2,0.1-0.3,0.2
		c-1.4,1.7-2.9,3.6-4.2,5.4c-0.6,0.9-1.2,1.8-1.8,2.7c-0.8,0-1.4,0-2.2,0c0.5-1.1,1-2.2,1.5-3.2c1.2-2.6,2.4-5.3,3.7-7.8
		c1.3-2.5,2.7-5,4.1-7.3c0.6-1.1,1.3-2.3,2.4-3c0.3-0.2,0.5-0.8,0.6-1.2c1.1-3.6,2-7.1,3.3-10.6c1.2-3.2,2.6-6.4,4-9.6
		c0.3-0.9,1-1.3,1.8-1.3c1.2,0,2.3,0.1,3.5,0.2c0.5,0.1,1.1,0.3,1.5-0.4c0.1-0.2,0.6-0.3,1-0.3c1.1-0.1,2.3-0.1,3.3-0.2
		c2.4-0.2,2.7-0.9,1.9-3c-1.1-2.9-2-5.9-2.6-9.1c-0.1-0.9-0.3-1.7-0.5-2.6c-2.3,1.7-4.1,3.7-5.8,5.7c-2.9,3.7-5.5,7.6-7.8,11.7
		c-2,3.8-4,7.7-5.9,11.5c-0.2,0.3-0.4,0.8-0.8,1.1c-0.1,0.1-0.3,0.1-0.5,0.1c-0.1-0.1-0.1-0.3-0.1-0.4c0.1-0.3,0.2-0.8,0.3-1.1
		c1.4-3.6,2.8-7.1,4.2-10.7c1.3-3.2,2.8-6.3,4.3-9.5c0.5-1.1,1.1-2.2,1.7-3.3c-0.2,0.1-0.3,0.1-0.3,0.1c-1.6,1.6-3.2,3.2-4.7,4.9
		c-0.2,0.2-0.3,0.5-0.4,0.9c-0.4,1.7-0.8,3.3-1.2,5.1c-0.1,0.2-0.4,0.4-0.6,0.5c-0.1-0.2-0.4-0.4-0.4-0.8c-0.1-0.9-0.1-1.7-0.2-2.7
		c-0.3,0.2-0.4,0.3-0.6,0.4c-0.6,0.6-1.3,1.4-1.9,1.9c-1.2,0.9-1.2,2-1.1,3.3c0.1,0.8,0,1.6-0.3,2.4c-1,1.9-2.2,3.9-3.2,5.8
		c-2,3.8-4.1,7.6-5.9,11.4c-1.8,3.8-3.6,7.7-5.2,11.7c-1.3,3.1-2.4,6.3-3.6,9.5c-0.3,0-0.6,0-1,0c1.3-3.3,2.5-6.8,3.8-10
		c1.1-2.7,2.3-5.5,3.6-8.1c1.9-3.9,3.9-7.8,5.8-11.7c1.6-3,3.3-5.9,4.9-8.8c0.4-0.9,0.2-1.7,0.1-2.9c-0.3,0.4-0.5,0.6-0.6,0.9
		c-2.5,4-5.1,8-7.6,12.1c-2.7,4.4-5.1,9.2-7.1,13.9c-2,4.9-3.8,9.8-5.7,14.8C76.8,158.7,76.6,158.7,76.2,158.7z M122.6,115
		c-1.1,0-1.9,0-2.8,0c-1.2,0-2.3,0.9-2.3,2.2c0.1,3.7,0.2,7.3,0.3,11.1c0.1,2.2,0.4,4.4,0.5,6.6c0.1,1.6,0.3,3.3,0.4,5
		c0.2-0.5,0.3-1,0.3-1.5c0.1-2.3,0.1-4.5,0.2-6.8c0.1-2.7,0.1-5.5,0.2-8.2c0-0.2,0-0.4,0.1-0.5c0.1-0.3,0.3-0.8,0.5-0.9
		c1.1-0.4,2.3-0.9,3.3-1.2c0.5-0.1,0.8-0.4,0.9-1c0-0.6,0-1.3,0-2c-0.5,0.2-1,0.4-1.4,0.6c-0.6,0.3-1,0-1.4-0.4
		c-0.4-0.4-0.4-0.9-0.1-1.3C122,116,122.3,115.5,122.6,115z M101.6,149.6c-0.1,0-0.2,0-0.3,0c-0.1,1.1-0.1,2.3-0.2,3.3
		c0,0.2,0.3,0.5,0.4,0.5c1.2-0.2,2.3-0.4,3.2-0.6C103.7,151.8,102.7,150.7,101.6,149.6z M120.4,135.1c-0.1,0.1-0.1,0.1-0.2,0.1
		c0,0.6,0,1.3,0,2c0,0.3-0.1,0.9,0.1,1c0.6,0.6,1.4,1.2,2,1.8c0.1-0.4,0.3-0.9,0.2-1.2c-0.1-0.8,0.8-1.6-0.2-2.4
		C121.7,136.2,121,135.7,120.4,135.1z M122.9,136.1c0.2-0.6,0.5-1.4,0-1.9c-0.8-0.9-1.6-1.6-2.5-2.4
		C119.6,134.2,121.5,134.9,122.9,136.1z M124.6,114.1c-1.2,0.6-1.5,1.8-2,2.7c0,0,0.3,0.4,0.5,0.4c1.3-0.2,1.5-0.5,1.6-1.8
		C124.6,115.1,124.6,114.6,124.6,114.1z"/>
	<path d="M122.9,158.7c1.3-4.9,2.7-9.7,3.9-14.6c0.9-3.7,1.5-7.4,2.2-11.2c0.4-2.6,0.9-5.2,1.3-7.9c0-0.1,0.1-0.3,0.1-0.3
		c1-1,0.6-2,0.3-3c-0.5-1.7-0.2-3.3,0.1-5c0.2-1.7,0.4-3.3,0.9-5.2c0.2,0.6,0.4,1.2,0.5,1.8c0.2,1.9,0.5,3.9,0.6,5.7
		c0.1,2.8,0.1,5.7,0.2,8.5c0,0.4,0.2,1,0.1,1.4c0,0.3-0.3,0.5-0.4,0.9c-0.2-0.2-0.4-0.4-0.5-0.6c-0.2-0.5-0.2-1.2-0.4-1.7
		c-0.1,0-0.1,0-0.2,0c0.1,0.6,0.1,1.3,0.1,1.8c0,2.8,0.1,5.6,0,8.4c-0.1,2.8-0.5,5.6-1,8.4c-0.5,3.8-1.6,7.4-3.1,11
		c-0.2,0.5-0.4,1.1-0.6,1.6C125.6,158.7,124.2,158.7,122.9,158.7z M128.6,139.8c0.5-0.3,0.8-0.5,1-0.8c1.1-0.6,1.5-1.5,1.4-2.9
		c-0.1-1.6,0-3.2,0-4.7c0-1.3,0-2.5,0-3.8c-0.1,0-0.1,0-0.2,0C130,131.6,129.2,135.6,128.6,139.8z M130.9,138.7
		c-0.5,0.4-0.9,0.6-1.2,0.9c-1.4,0.9-1.9,2.2-1.9,3.7c0,0.3,0.2,0.8,0.4,0.9c0.3,0.1,0.9,0.2,1.2,0c0.4-0.3,1-0.8,1-1.3
		C130.7,141.6,130.8,140.2,130.9,138.7z"/>
	<path d="M166.2,158.7c0.4-1.3,1-2.6,1.4-3.8c0.1,0,0.2,0,0.4,0.1c0,1.3,0,2.5,0,3.8C167.4,158.7,166.7,158.7,166.2,158.7z"/>
	<path d="M125.5,66c-0.5,0.9-1.1,1.7-1.5,2.7c-1.7,3.1-3.5,6.3-5.1,9.4c-0.1,0.2-0.4,0.3-0.6,0.4c0-0.2-0.1-0.5,0-0.6
		c0.9-1.8,1.6-3.7,2.5-5.6c2.2-4.6,4.1-9.5,5.6-14.3c0.2-0.6,0.4-1.2,0.6-1.8c0.1-0.2,0.3-0.3,0.5-0.4c0.1,0.2,0.3,0.4,0.3,0.6
		c0,3.1-0.1,6.1-0.2,9.3c0,1.7-0.2,3.5-0.3,5.3c-0.2,2-0.4,4.2-0.6,6.3c0,0.5-0.1,1-0.2,1.5c0,0.2-0.2,0.3-0.3,0.5
		c-0.2-0.2-0.5-0.3-0.5-0.5c-0.1-0.5-0.1-1.1-0.1-1.7c0-3.5,0.1-6.8,0.1-10.2c0-0.1,0-0.3,0-0.4C125.6,66.1,125.5,66.1,125.5,66z"/>
	<path d="M125.1,108.3c-0.1-0.6-0.3-1.3-0.4-1.9c-0.3-2-0.5-4-0.8-6c-0.1-1.3-0.3-2.6-0.3-3.9c0-2.9,0-5.8,0-8.6
		c0-0.1,0-0.3,0.1-0.4c0.6-1,1.2-2,1.8-3c0.1,0,0.2,0,0.3,0c0.1,0.4,0.3,0.9,0.3,1.3c0,4.2,0,8.4-0.1,12.6c-0.1,3.1-0.2,6.1-0.3,9.3
		c0,0.2-0.1,0.5-0.2,0.8C125.4,108.3,125.3,108.3,125.1,108.3z"/>
	<path d="M121,48.1c0.6,1,0.2,1.8,0.1,2.7c-0.9,4.4-2.6,8.4-5,12.2c-0.8,1.3-1.6,2.5-2.5,3.8c-0.1,0.1-0.3,0.2-0.5,0.2
		c0-0.2-0.1-0.4-0.1-0.6c1.4-4,2.8-8,4.3-11.9c0.9-2,2-3.9,3.1-5.8C120.6,48.4,120.8,48.3,121,48.1z M114.7,63.6
		c2.7-4,4.7-8.3,5.6-13.2C117.8,54.6,115.9,59,114.7,63.6z"/>
	<path d="M152.6,20.6c-0.4-0.8-0.4-1.6-0.2-2.5c0.1-0.2,0.1-0.5,0.1-0.8c0-0.3-0.3-0.6-0.2-0.9c0.3-0.8,0.8-1.4,1.1-2.2
		c0,0,0.1,0,0.3,0c-0.1,0.2-0.1,0.5-0.2,0.8c-0.3,0.8-0.9,1.4-0.3,2.3c0.1,0.1,0,0.3,0,0.4c-0.4,0.8-0.3,1.5-0.1,2.3
		c0,0.2-0.1,0.4-0.1,0.5C152.8,20.6,152.7,20.6,152.6,20.6z"/>
	<path d="M156.1,76.5c0.1,1,0.2,1.7,0.2,2.5s0.3,1.4,0.9,1.9c0.6,0.6,0.9,1.9,0.5,2.8c-0.2,0.5-0.5,0.3-0.9,0.2
		c-1.8-0.9-2.5-2.3-2-4.3c0.2-0.8,0.3-1.6,0.5-2.4C155.4,77,155.7,76.9,156.1,76.5z"/>
	<path d="M175.7,68.5c-1.1-0.3-2-0.1-2.9,0.6c-0.1,0.1-0.3,0.1-0.4,0.1c-0.8,0.1-1.6,0.1-2.4,0.2c-0.3,0.1-0.6,0.4-1,0.6
		c-0.3-0.6-1-0.5-1.6-0.5c-0.3,0-0.5-0.2-0.9-0.4c0.2-0.1,0.5-0.3,0.8-0.3c1.9-0.1,3.9-0.1,5.7-0.8c0.5-0.2,1-0.4,1.5-0.5
		C175.7,67.1,175.9,67.2,175.7,68.5z"/>
	<path d="M163.4,90.8c0.4-0.2,0.8-0.5,1.2-0.8c1.1-0.8,2.2-1.5,3.2-2.2c0.2-0.1,0.4,0,0.8,0c0,0.2,0,0.5-0.1,0.8
		c-0.8,1-1.7,1.5-2.8,1.8c-0.6,0.2-1.4,0.4-2,0.8C163.5,91,163.4,90.9,163.4,90.8z"/>
	<path d="M158.9,91.5c-2.7,1-5.2,0.8-6-0.6c0.3-0.1,0.6-0.2,0.9-0.2c0.9,0.1,1.7,0.3,2.6,0.4C157.1,91.2,158,91.3,158.9,91.5z"/>
	<path d="M161.8,81.7c-0.5,0.3-1,0.6-1.5,1c-0.1,0.1-0.4-0.2-0.5-0.3c0.3-0.3,0.6-0.8,1.1-1.1c0.2-0.1,0.6,0,1,0
		C161.8,81.4,161.8,81.5,161.8,81.7z"/>
	<path d="M170.7,63.2c1.1,0.6,1.3,1.2,0.5,1.8C170.5,64.6,170.4,64,170.7,63.2z"/>
	<path d="M172.7,66c0.2-0.9,0.3-1.7,0.5-2.5C173.8,63.9,173.6,65.1,172.7,66z"/>
	<path d="M170.6,66.7c-1-0.1-1.8-1-1.9-2C169.3,65.3,170,66.1,170.6,66.7z"/>
	<path d="M145.5,69.2c0.2,0.8-0.1,1.6-1.1,2.2C144.7,70.7,145.2,70,145.5,69.2z"/>
	<path d="M163.1,49.1c1.2,1.4,1.2,5.9-0.1,7.4c-0.1-0.3-0.4-0.6-0.4-1c0.1-2,0.2-4.1,0.3-6.1C162.9,49.3,163,49.2,163.1,49.1z
		 M163.3,50.8c-0.1,0-0.1,0-0.1,0c0,1.2,0,2.5,0,3.7c0.1,0,0.1,0,0.1,0C163.3,53.3,163.3,52,163.3,50.8z"/>
</g>
</svg>
