<?xml version="1.0" encoding="utf-8"?>
<!-- Generator: Adobe Illustrator 24.0.2, SVG Export Plug-In . SVG Version: 6.00 Build 0)  -->
<svg version="1.1" id="Слой_1" xmlns:xodm="http://www.corel.com/coreldraw/odm/2003"
	 xmlns="http://www.w3.org/2000/svg" xmlns:xlink="http://www.w3.org/1999/xlink" x="0px" y="0px" viewBox="0 0 238.1 150.2"
	 style="enable-background:new 0 0 238.1 150.2;" xml:space="preserve">
<style type="text/css">
	.st0{fill-rule:evenodd;clip-rule:evenodd;fill:#2B2A29;}
</style>
<g id="Слой_x0020_1">
	<path class="st0" d="M48.4,91.1l0.7,0.2c0.8,0.2,0.6,0.3,1.1,0.2L48.9,90c0,0,0-0.1-0.1-0.1l-0.1-0.3c-1.1-0.3-1.8,0.2-2.1,0.9
		L48.4,91.1L48.4,91.1z M51.2,88.8l-0.9,0l0.3,0.6c0.2,0.4-0.2,0.4,0.2,0.4c-0.8,0.4-0.8-0.1-0.4,0.7c0.2,0.3,0.6,0.7,0.9,1.2
		l0.1,0.3l0.8,0c0.2-0.2,0.1-0.1,0.4-0.3l0.5-0.2c0,0,0.1,0,0.2-0.1l-0.3-0.6c-0.4-0.3-0.3-0.1-0.7-0.6c-0.1-0.2-0.4-0.5-0.5-0.7
		c-0.2-0.4,0.2-0.4-0.2-0.4C51.6,88.3,51.7,89.1,51.2,88.8L51.2,88.8z M59.2,88.7c-0.3-0.6-1.1-1.4-1.8-1.3c0,0-0.1,0.1,0,0.1
		L59.2,88.7L59.2,88.7z M69.3,116.3c-0.6,0.1-0.7,0-1.1,0.4c-1.3,0.4-1.8,1.9-3.1,2.3c-0.1,0.8-0.2,0.6-0.6,1.4l1.3-0.2
		c0.1,0,0.8-0.1,0.8-0.1c1.2-0.3,0.4-0.1,0.8-0.5c1.6-0.2,2.7-1.4,3.5-2.1l0.3,0.6c-0.4,2.7-3.3,5.5-6.2,6l-1.1,0.3
		c0.5,0.7,0.7,0.5,2.2,1.1c1.8,0.7,4.7,2,5,3.6c-0.5-0.2-0.6-0.5-1.1-0.8c-1.7-1.2-3.4-1.2-4.4-1.7l-1.4-0.1c-0.4,0.4-0.7,1-1.3,1.1
		c-0.5,0.8-0.8,0.9-1.9,1.5c-2.8,1.5-4.2,1.8-7.7,2.1c5.6,1.7,8.4,1.7,13.2-0.3c-0.3,0.7-0.4,0.7-1.1,1.1c-0.7,0.4-0.6,0.6-1.4,0.9
		c-0.8,1.3-4.8,1.3-5.8,1.5c-0.8,0.1-0.7,0.4-1.3,0.8c0.5-0.5,0.5-0.4,0.5-0.8l-2.5-0.1c0.3,1,0.4,0.7,0.8,1.4
		c0.2,0.7,0.4,0.5-0.1,0.8l-0.1,0.1c-0.6,0.2-2,0.9-2.8,1.2c-4.3,2.1-7.9,2.2-9,2.6c1.9,0.1,4.1,0.2,5.9,0c2.5-0.4,3.2-1.2,4.7-1.6
		c-0.4,0.9-0.5,0.8-1.3,1.3c-1.3,0.9-1.5,2-5,2.3c-1.5,0.2-3.8-0.1-4.9,0.1c-1.3,0.2-2.3,0.7-4,0.9c-3.1,0.4-6.5,0.2-9.5-0.2
		c-4.5-0.6-4.2-0.9-8.8-0.9c-2.4-0.1-2.7,0.4-4.7-0.6c-1.7-0.8-4.5-2.8-5.9-3.9c-0.9-0.7-1.9-1.3-2.6-2.1l-5.6-3.7
		c-0.3-0.2-0.6-0.4-0.9-0.7c-0.4-0.4-0.4-0.4-0.9-0.7v0.9v18.4h154.6l-1.5-1c-1.3-0.3-3.3-1.5-4.5-2.1c-1.2-0.6-3.4-1.5-4.2-2.5
		l-0.2,0c-5.7-0.4-11.8,0.2-17.5,0.2c-1.5,0-2.7,0.7-3.3,0.1c-0.7-0.6-0.7-2-1-3c-0.2-0.7-2.1-4.2-2.1-5.7c-0.4-1.5-2.6-2.3-4.2-3.4
		l-1.5-0.9c-0.6-0.4-1.4-0.7-2.4-1c-1-0.1-1.2,0.1-1.9,0.6l-4.7,3.5c-1.2,1-1.6,1.4-2.9,2.4c-1.3,1.1-2,2-3.2,2.1
		c-0.1-1,0.5-0.6-0.3-1.6l-1,0c-0.7-0.8-4.1-8.1-4.3-8.9c-0.6-0.9,0.2-1.4-1.6-1.9c-0.8-0.2-2-0.5-2.7-0.7c-0.5-1.2-0.6-0.5-1.7-0.8
		c-0.8-0.3-0.1-0.5-1.4-0.4l0.3-0.2c0.8-0.7,0.2,0.1,0.1-0.3c0,0,0-0.1,0-0.1l1.6,0.4c1.1,0.4,1.4,0.5,2.8,0.5
		c-0.3-0.8,0.5-0.5-2.1-1.2c-1.4-0.4-1.2-0.4-2.6-0.2c-0.1-0.5,0-0.2-0.2-0.5c-0.4-0.6-0.8-0.8-0.4-1.6c-0.7-0.4,0.8,0-0.3,0l-0.3,0
		c0,0,0,0-0.1,0c0.7,1.2,0.6,0.9,0.1,1.2l-0.3,0.3l0.2,0.7c-1.3-0.1-1.3-0.3-1.7-1.4l-2.1-6.4c-1-3.7-3.6-4.2-4.8-6.8
		c-0.6-0.2-1.7-1.7-2.1-2.4l0.1-0.4c0,0,0-0.1,0-0.1c-0.1-0.3-0.1-0.2-0.2-0.3c-0.2-0.3-0.5-0.4-0.5-0.6c0.1,0-0.2,0.2,0.1,0
		l0.2-0.3c0.4-1,1.3-1.7,1.9-2.4c0.8-0.9,0.7-2.3,0.8-3.5c0.1-1.1,0.8-0.6-1.3-3.1c-2-2.4-2-1.5-1.7-3c1-0.1,3.2,0.1,3.9-0.6
		c1.3-0.4,2.9-0.3,4.4-0.8c1.5-0.4,2.6-1.6,3.6-1.8l2.3-9.4c-0.1,0-0.2-0.1-0.4-0.2L86.3,80c-0.6-0.3-0.5-0.1-0.9-0.2
		c-1-0.3-0.4-0.1-0.9-0.7c1.1,0,1.2,0.1,2.1,0.2c2.4,1,4.5,1.4,7.4,0.9c0.3-1.5-0.3-1.1-1-2.1c-0.5-0.1,0,0.1-0.5-0.2
		c-0.3-0.2,0,0-0.4-0.2l-2.7-1.2c-4-1.6-5.9-3.6-9.8-4.2c-0.4-0.1-0.6-0.1-1,0.2c0,0,0.1,0.1,0.1,0.1l0.4,0.2c0,0,0.5,0.1,0.6,0.1
		c0.6,0.1,0.7,0.1,1.2,0.2c0.9,0.2,1.6,0.2,1.9,0.7c-0.8,0.3-3.2-0.4-4.4-0.4l-2.1,3.1c0.9,0.6,2.4,1,2.6,1.7
		c-0.8,0.5-1.1-0.2-2.2-0.2c-0.7,0-1.2,0.1-2-0.3c-1.2-0.7,0.2-2.1,0.8-3.3c0.9-1.6,3.4-5.3,5-5.7l0.7-0.1c0,0-0.1,0.1-0.1,0.1
		c-0.5,0.5-0.3,0.1-0.2,0.3c0.9-0.5,1.1-0.2,1.3,0c-0.8,0.7-0.4,0.1-1.3,0.5c-0.4,0.2-0.8,0.5-1,0.9c0.5-0.1,1.4-0.8,1.9-0.9
		c0.9-0.2,5.1,2,5.8,2.5l7,4l0.9,0l1.9-0.1l-0.8,0.5c1.9-0.1,1.2-0.4,2.7,0c0.9,0.2,10.5,0.3,11.7,0.3c2.3-0.1,4.4-0.3,6.7-0.3
		c0.9,0,1.2,0.1,1.7,0.2c1,0,0.1-0.1,1.2-0.3l6.7-0.4c0.6-0.1,1-0.1,1.7,0c1,0.1,0.2,0.2,1.3-0.1c1.7-0.5,4.2-0.5,5.5-0.8
		c1-0.2-0.4,0.1,0.4-0.1l0.3-0.1c-1.1-0.1-1,0.3-1.9,0h-0.8c0,0,0,0,0.1,0c0,0,0.3,0.2-0.5,0.4c-0.4-0.3-0.2,0-0.2-0.4
		c1.6-0.9,6.8-0.6,8-2c0.3-0.4,0.9-1.2,1.2-1.6c0.3,0.4,0.1,0.2,0.5,0.5c-0.4,0.2-0.4,0.2-0.6,0.4c-0.6,0.7-0.3,0-0.5,0.9
		c2.5-0.6,3.1-1.7,3.3-2c1.2-1.3,3.6-3.9,3.9-5.4c-1.5,0.1-2.2,0.7-3.4,0.8c-0.6,0-2.2,0.6-2.8,0.8c-0.9,0.3-2.1,0.5-3.2,0.5
		c-2.2-0.2-4.4,0.1-6.6,0c-4.8-0.3-14.1,0.1-18.7-0.6c-1.4-0.2-4.3,0-6.3-0.1c-2-0.1-4-0.2-6.1-0.3c-1,0-11.5-0.2-12.3-0.7
		c1.1-1,3.7-1.2,4-2.4c-0.4-0.2-1.1-0.2-1.7-0.3c-0.7-0.2-0.8-0.2-1.5-0.3c-3-0.5-23.6-2.9-25.3-1.5l-12.2,1.4
		c-1.5,0.2-2.4,0.6-3.8,0.7c-0.2,0.8-0.4,1.2-0.6,1.9c-0.2,0.9-0.1,1.4-0.6,2c-0.4-0.4-0.4-0.2-0.5-1.3l-0.9-4.6
		c-0.7-4,1.4-2.7,1.9-5.1l0.6-0.5l0.3-0.2c0.5-0.5,0.4-0.6,0.4-1.1c-0.1-1.1-0.7-4.3,0-5.2l2.1-2.1c0.9-0.9,1.7-0.8,1.9-2.3l0.3-0.6
		c0.2-1.1,2.7-7.3,3.3-9c0.9-2.5,4.1-11.4,4.4-13.9c0.2-1.8,0-4.1,0-6c0-2,0-4,0.1-6c0.1-1.9,0.1-3.8,2-4.4C64,4.1,66,3.1,67.1,2.4
		c1-0.6,3.4-1.7,4.1-2.3H48H0.1v80.3C1,80,1.3,79.3,2,79.2l0.6-0.7C2.7,78.4,3,78.1,3.2,78c0.4-0.3,0.9-0.7,1.3-1.1
		c1.8-1.8,5.5-5.7,8.1-6.2c0.5-0.5,2.7-0.8,3.9-0.9c1.4-0.1,4,0,4.9-0.2c0,0.5-0.6,0.3-1.4,0.4c-0.8,0-1,0.1-1.6,0.3
		c-1,0.3-2.1,0.8-3,0.8c-2.9,0.5-5.2,2.1-6.9,4.2c1.6,0,1.4-0.1,1.8-0.7l3.3-1.4c1.6-0.1,1.2-0.1,2.3-0.4c0.7-0.2,1.5-0.3,2.2-0.2
		c0.3-0.2,0-0.1,0.4-0.2l1.6-0.2c3.9-0.5,4.8,0.2,7.4,0.1l0.7,0c0.5-0.3,0.8-0.3,1.4-0.4c0.8-0.2,0.6-0.1,1.1-0.6
		c1.4-1.6,1.1-1.2,1.5-2.8c1.4,1.1,0.1,1.8-0.3,4.1c0.9-0.4,0.2-0.1,0.9-0.7c0.5-0.4,3-1.4,3.6-3.1c0.4-1.2-0.2-1.3,0.8-1.9l0.1,1.2
		c0.1,0.4,0.2,0.8-0.1,1.2c-0.8,0.3-0.3-0.2-0.7,0.6l-0.8,1.7l1.3-0.1c0.3-0.3,0.1,0.1,0.2-0.6l0.1,0c1.5-0.3,3-1.9,3.8-2.9
		c0.2-0.3,0,0,0.2-0.4c0.5-0.9,0.1-0.5,0.6-0.6c0.9,1.5-0.5,2.5,1.1,2.6l0.2,0c1.5,0.1,2.5-1,4.2-0.9c0.7-0.1,0.4-0.1,1.1,0
		c0-1.3,0.9-3.4,1.1-4.9c5.5-0.9,10.8-1.6,16.5-1.1c-1.5,0.7-5.4,1.8-8.2,3c-1.1,0.5-2.1,0.5-1.8,1.6c1.6,0.7,9.7,0.1,12.3,0.2
		L67.4,71c-0.8,0.4-1.8,0.6-2.7,0.9l-4.9,2c-1.3,0.5-1.8,0.1-3.2,0.1l-0.2-1.1l-0.9,0.8c-0.1,0-0.1,0.1-0.1,0.1l-4,0
		c0.2-0.2,0-0.1,0.4-0.3c1.3-0.8,2.9-0.4,3.4-0.8c-0.3-0.6,0-0.1-0.6-0.4c0.5,0.8,0.2,0.2,0,0.4c-1-0.3-2.2,0.3-3.3,0.5
		c-0.6,0.1-0.8,0.2-1.2,0.6c-0.2,0.2-0.9,0.8-1.1,1.1c3.2,0.2,2.3,0,5-0.3c0.3-0.3,0.8-0.2,1.3-0.6c1.8-0.2,0.3,1.6-0.1,2.8
		c1.5,0,3.7-0.3,5.1-0.5c0.7-0.1,4.8-0.7,3.9,0.7c-3.2-0.3-7.6,0.2-10.2,0.8c-1.1,0.1-0.6,0-1.4,0.6c-1,0.7-2.4,1.5-2.7,2.1
		c0.7,0.3,2.6,0.3,3.6,0.1c1.8-0.1,4.3,0.6,6.1,0.8l2,0.9c0.6,0.3,1.1,0.6,1.4,1.1c-1.4-0.5-0.8-0.7-2.8-0.9
		c-1.1-0.1-2.1-0.3-3.4-0.4c-2.2-0.1-5.9,0.6-7.3,0.4c-0.2,0.2-0.1,0.1-0.5,0.3c0,0-0.3,0.1-0.4,0.1c1.9,0.1,3.8-0.1,5.6,0.2
		c0.7,0.1,4.1,1,4.4,1.1l-4.9,0c0.3,0.2-0.2,0,0.5,0.2c0,0,0.5,0.1,0.5,0.1c0.4,0.1,0.7,0.1,1,0.2c0.7,0.2,1.3,0.3,1.9,0.4
		c0,0-0.1,0-0.2,0c0,0-0.1,0-0.2,0c0,0-0.1,0-0.2,0l-0.9-0.1C56,85,55.8,84.9,55.2,85c-2.5,0.1-5.3-0.8-7.9-0.4
		c1.2,0.4,2.5,0.9,3.7,1.1c1.3,0.2,5.4,1.6,6.3,1.6L56.2,87c0.1,0,0.1-0.1,0.2-0.1l0.5-0.2c0.1,0,0.4-0.1,0.6-0.1
		c-0.7-0.9-2.8-1.2-3.9-1.6c1.7,0.1,5.1,1.6,6.1,2.4c-0.7-0.3-0.7-0.4-1.4-0.6c0.9,0.9,2.2,2.7,3,2.9c0.5,0.1,0.5,0,0.9,0.1
		c1,0.3,0.4,0.1,0.7,0.5l-2.6,0.1c-1,0.1-1.8,0.2-2.8,0.4c-0.9,0.2-1.6,0.5-2.4,0.7c-0.9,0.1-0.5,0.3-1.5,0.4
		c0.2,0.2-0.1,0.8,2.3,0.4c0.6-0.1,1.2-0.2,1.6-0.5c-0.2,1.3-4.8,1.3-6.3,1.5l-0.8,0.1c-0.5,0.5-0.4,0.4-1.1,0.7l-0.8,0.6
		c0.9,1,1.9,1.3,2.5,2.7c-0.1,0-0.2-0.1-0.2-0.1c-0.1,0-0.1,0-0.2-0.1c-1.2-0.5-0.8-0.6-1.4-1.1c0,0-0.1-0.1-0.1-0.1
		c0,0-0.1-0.1-0.1-0.1l-0.6-0.4c-2-1.2-3.6,1.9-2.2-0.8c-2.1-0.2-2.9,0-4.8,0l-0.5,0.8c0.5,0.3,1.4,0.6,1.8,0.5
		c1,0.3,1.9,0.5,2.9,0.9l0.5-0.4l0.7,1c1.5-0.5,0.8-1,2.5-1.1c-0.3,0.8-0.3,0.5-0.6,1c0.3,0.5,0.3,0.4,0.6,1c0.2,0.4,0.3,0.6,0.7,1
		c1.9,0.1,2.4-0.8,4-1.1l-1.2-3c-0.4-1-0.2-0.8,0-1l2.6,5c0.7-0.1,1.2-0.3,1.7-0.5c-0.2-0.8-0.8-1.7-1.2-2.4
		c-0.2-0.5-0.3-0.7-0.6-1.2c-0.8-1.3-0.3-1,0-1.2c0.1,0.8,1.6,2.7,2.1,3.4c0.3,0.4,0.5,0.6,0.5,1c-0.2,1.2-2.2,1.3-3.3,1.2l-0.5-0.9
		c-0.9,0.4-3.3,1.5-3.9,1.4l-0.4-0.2c-0.4-0.2-0.1,0-0.4-0.2c-0.4-0.3-0.2-0.1-0.6-0.7C48.6,99,48.4,98.4,48,98
		c-0.6,0.4-0.4,0.4-1.1,0.6c-0.9-1.4-2.2-1.3-4.4-1.3c0.1,0.5,0.9,0.7,0.8,1.4L43,99.2c-0.2,0.9-0.1-0.1,0,0.4
		c0.1,0.4,2.4,2.7,1.4,4.5c-0.9-0.5-0.6-1.6-0.9-2.8c-0.2-0.8-0.5-2.3-1-2.7c-0.2-0.7-0.6-0.8-0.9-1.4l-0.9,0.1
		c-0.6,0.3-0.1,0-0.5,0.3c0,0-0.2,0.1-0.3,0.2c0-0.1,0.1-0.2,0.2-0.5c-0.8,0.1-0.6-0.1-1.2,0.5l-0.5,1c0.7-0.3,0.3,0.3,1.1-0.5
		c0.1-0.1,0.1-0.1,0.1-0.2l-0.9,1.2c0,0,0,0.1-0.1,0.1c-0.1,0-0.1,0.1-0.1,0.1l0.3,0.7c0.4-0.1,2.4-1,3.5,0.6c1,1.7-0.6,2.5-0.7,3.2
		c0.6,0.8,0.7,0.6,2,0.9c0.9,0.2,1.3,0.3,1.9,0.6l-1.5-0.2c0,0.3,0,0.6,0,0.8l0.2,0.6c0.3,0.5,0.4,0.1,0.8,0.9
		c-1.2-0.3-1.5-0.8-2.5-1.2l0,0.4c2.1,1.7-1.5,0.4,4.3,3c-0.9,0.2-4.3-0.9-4.8-1c0.3,0.7,0.8,0.7,1.2,1.3c-1.4-0.5-1.2-1.4-2.9-1.3
		c0.4,0.8,0.7,0.8,1.1,1.5c1.1,0.2,2.5,0.4,3.8,0.7c0.7,0.2,0.9,0.4,1.6,0.6c0.5,0.1,1.4,0.2,1.9,0.3c0.3-0.1,2.3-2.4,2.9-3.6
		c0.1-0.2,0.3-0.6,0.4-0.8c0.2-0.3,0,0,0.3-0.4c0,0,0.1-0.1,0.1-0.1c0,0,0.1-0.1,0.2-0.1l-0.1,1.5l-0.3,2.1c1.3-0.5,1.9-1.1,3.7-0.9
		l-2.9,2l-1.8,1.9l0.5,0.5l0.5,0.2c0.7,0.8,1.6,0.6,1,1.6c-1.5-0.1-0.3-0.3-1.3-0.5l-0.3-0.1c-0.3-0.1-0.2-0.1-0.3-0.2
		c0,0-0.4-0.3-0.5-0.3c0.3,0.3,0.3,0.1,0.4,0.7c-1.1,0.2-0.8,0-1,0.6c-0.2,0.5-1,1.6-1.4,1.6c-0.4,1.2-0.6,0.7-0.9,1.5
		c1.7,0.8,2.5-0.5,3.5-2c0,1.4-0.9,2.3-1.6,3c0.4,0.6,0.9,0.8,1.6,1.2c1.2,0.7,2.3,0.1,4-0.8c0.6-0.3,1-0.8,1.5-0.9
		c0,0,1.1,0.2,0.2-0.6c0.1,0,0.1,0.1,0.1,0.1c0.7,0.6,0.3,0.6,0.3,0.6c-0.5,0.3-0.8,0.5-1.2,0.8c-0.3,0.2-0.6,0.4-0.9,0.7
		c-0.9,0.6-1.3,0.9-2.2,1.2c0.2,0.3,0.3,0.6,1,0.7c0.5,0.1,0.9-0.1,1.3-0.2c0.9-0.4,1.4-0.8,2.2-1l2.6-1.6c-0.1-0.5-0.2-0.5-0.4-0.7
		c0.6,0.1,0.4,0.2,1.2,0.4c0.9-1.5,2.3-1.2,4.4-5.2l0.7-0.8c0,2.9-0.9,2.7-0.2,2.9c0.8-0.7,2.9-0.9,3.4-1.3c0.3,0,1.1,0.2,1.1-0.2
		l0.9,0c0,0.1-0.1,0.1-0.1,0.2c0,0-0.1,0.1-0.1,0.2l-0.3,0.4L69.3,116.3L69.3,116.3z M46.4,71.3l-0.6,0.1c-0.7,0.1,0,0.1-0.3-0.2
		L44,72.5C45.3,72.4,46.1,72.2,46.4,71.3L46.4,71.3z M54.5,88.7c-1-0.1-1.4-0.2-2.5-0.1c-0.1,0.4,0.1,0.4,0.6,0.9
		c0,0,0.1,0.1,0.1,0.1c0.4,0.4,0.6,0.5,0.6,1.3c1.1,0.7,4.3-1.1,6-0.8l0.3-0.2c0,0,0.3-0.1,0.4-0.2C58,89,57.2,88.5,54.5,88.7
		L54.5,88.7z M45,81.9c-0.4-0.4,0.2-0.1-0.7-0.4c-0.5-0.2-0.1,0-0.7-0.2l0.5-0.3c-1.2-0.3-4-2.3-7.6-2.3c-1.3,0-2.3-0.6-4.2-0.3
		c-1.4,0.2-2.2,1-3.1,1.2c-0.3,0.9-0.3,0.6-0.7,1.3c-0.1,0.2-0.2,0.3-0.3,0.5c-0.5,0.7,0,0.1-0.5,0.4c-0.1,0.3-0.2,0.6-0.3,0.9
		l-0.3,0.1c-0.2,0.4-0.2,0.4-0.4,0.7l0,0.7l2.2-0.6l0.1-0.8l0.9-0.7c1.3,0.6,4-0.9,6.1-0.9c-1.2,0.1-5.4,0.7-6.2,1.8
		c0.1,0,0.1,0.1,0.2,0.1c2,0.2,0.5,0,2.3-0.2c1.2-0.1,1.5,0,2.1-0.7c0.9,0.1-0.4,0.4,2.5,0.2c1.1-0.1,2.1,0,3.1-0.1
		c0.2,0.2,0.2,0.3,0.8,0.2c0.1,0,0.3-0.1,0.4-0.2c0.2-0.1,0.2-0.1,0.4-0.3l0.5,0c0.2,0.3-0.3,0.1,0.5,0.4c0.5,0.2,0.4,0.2,0.9,0.1
		C43.8,82.2,44.6,81.9,45,81.9L45,81.9z M42,81.8L42,81.8L42,81.8L42,81.8L42,81.8L42,81.8L42,81.8l0.1,0l0,0l0,0l0,0l0,0l0,0l0,0
		l0,0l0,0l0,0l0,0l0,0l0,0l0,0l0,0l0,0l0,0l0,0l0,0l0,0l0,0l0,0l0,0l0,0l0,0l0,0l0,0l0,0l0,0l0,0l0,0l0,0l0,0h0l0,0l0,0l0,0l0,0l0,0
		l0,0l0,0l0,0l0,0l0,0l0,0l0,0l0,0l0,0l0,0l0,0l0,0l0,0l0,0l0,0l0,0l0,0l0,0l0,0l0,0l0,0l0,0l0,0l0,0l0,0l0,0l0,0l0,0h0l0,0l0,0l0,0
		l0,0l0,0l0,0l0,0l0,0l0,0l0,0l0,0l0,0l0,0l0,0l0,0l0,0l0,0l0,0l0,0l0,0l0,0l0,0l0,0l0,0l0,0l0,0l0,0l0,0l0,0l0,0l0,0l0,0v0l0,0l0,0
		l0,0l0,0l0,0l-4-0.5l4,0.5L42,81.8L42,81.8z M50.7,123.9c0.8,0.2,1.9,0,2.6-0.2c-0.1-0.9-0.7-1.1-1.5-0.6
		C51.2,123.4,51.1,123.8,50.7,123.9z M50.3,70.1c0.8-0.7,0.2-0.8,0.5-1.7c0.2-0.9,0.2-1.3-0.2-1.9c-0.5,0.6,0,1.2-0.9,2.5
		c-1,1.4-1.1,0.8-1.7,1.8c1-0.2,1.1-0.7,2.1-1.1C50.1,69.7,50.3,70.1,50.3,70.1z M36.9,104.3c0.5,0.3,1,0.3,1.9,0.2
		c0.1,0,0.5,0,0.5,0l1,0c-0.1-0.5-2.8-4.7-2.8-4.7c-0.1,0,0-0.1-0.1-0.1l-0.7,0.5c0,0-0.1,0.1-0.1,0.1l-0.3,0.2l-0.4,0.5l-0.5,0
		c-0.1,0.2-0.2,0.5-0.3,0.6l0.3,0.4c0,0,0.1,0.3,0.1,0.4l0.8,1.5C36.8,104.5,36.2,104.1,36.9,104.3L36.9,104.3z M34.2,101.9
		c-0.2,0.5-2.1,1.5-2.6,1.9c-0.3,0.2-0.5,0.4-0.7,0.7c0.7,0.4,1.5,0.2,2.7,0.1c1-0.1,1.8-0.1,2.8-0.2c-0.2-0.6-0.5-0.9-0.8-1.5
		C34.6,101.5,35,101.8,34.2,101.9L34.2,101.9z M60.7,114c0-0.9,0.4-1.3,0.7-2c0.6-0.5,0.1-0.6,0.9-1.1c0.3-0.3,1.1-0.6,1.4-0.7
		c-0.2,0.7-0.3,0.6-0.7,1.3c-1,1.6-1.1,2.3-1.7,3.3c-0.5-0.5-0.3-0.7,0.3-2L60.7,114L60.7,114z M238,121.1v-3.3
		c-1.1,0-1.8,0.1-2.9,0.3c-1.1,0.2-1.8,0.3-2.5,0.6c0,0.3-0.7,0.3,0.7,0.4c-1-0.1-0.4,0.1-0.6,0.2c1.4,0.2,0.8-0.1,1.1,0.5
		c-1-0.2-2,0-1.9-1.2c0-0.8,0.6-1.2,1.3-1.6c1.4,0.4-0.4,0.9,2.2,0.3c0.9-0.2,1.8-0.4,2.7-0.5v-1.3c-1.8-0.2-2.9-0.4-4.8-0.4
		c-4.7,0.1-5.2,0-9.5-0.9l-4.1-1.1c-0.8-0.2-0.3-0.2-1.8-0.8c-2.4-0.9-4.7-1.7-7.2-2.9c-2.5-1.2-1.4,0.2-2.9-1.3
		c-0.4-0.4-1.9-1.1-2-1.1c-0.7,0-4,2.7-4.7,3.5c-2.3,2.3-1.5,2.2-1.9,3.1c-0.3,0.7,0.1,0-0.5,0.5c-0.6,0.5-0.4,0.2-0.6,1.1
		c-0.4,4.5,0.7,5.5,3.3,9.4c1.8,2.7,2.2,3,4.9,4.7c0.9,0.6,0.6,0.9,1.9,1.4c1.6-0.5,0.1-0.5,1.9-0.4c0.7,0.1,1.3-0.1,1.9-0.2
		c1.3-0.3,2.6-0.6,3.8-0.9c7.3-1.8,8.9-4.7,14.1-3.9c2.6,0.4,5.6,0.9,8.3,0.9L238,121.1L238,121.1z M159.5,62.8l2.7-2.9l0,1.5
		c1-0.2,1.6-4.5,1.8-5.2c0.6-2.5,2.7-15.9,2.7-18c-0.3-0.2,0.4-0.3-0.7-0.1c0.1,0.8-1,8.7-1.4,10.3c-0.3,0.9-0.4,0.5-0.6,1.3
		c-1.3,4.1,0.5,5-3.2,10.6c-0.5,0.8-1.1,1.5-1.7,2.3C159.4,62.9,158.8,63.1,159.5,62.8L159.5,62.8z M38.4,141.6
		c-1.8,0-5.5-1.4-7.5-1c-1.9,0.4-5,1.5-7,1.3c1.2,1.2,11.4,1.8,14.1,1.5c1.3-0.1,3.5-0.2,4.4-1c-0.9,0-1.2-0.1-2.1-0.3
		C39.7,142,38.9,142.1,38.4,141.6L38.4,141.6z M156.8,27.7c0.8-0.2,0.9-0.4,1.5-1.3c0.9-1.1,2.9-2.9,3.1-4.1c1.1-0.5-0.6,0.6,0.3,0
		l0.9-1c0.4-0.3,0-0.2,0.4-0.2c0.8,0.7,1.2,5.8,1.4,7.2c0.5,3.2,2.2,3.8,3.4,5l0.4,0.4l2.2,0.7l-0.1-0.6l0.1-0.4
		c0,0,0.2,0.5,0.2,0.5c0.5,0.5-0.2,0.2,0.3,0c0.2-0.7,0.1-0.5,0.1-1.4c0.8,1.3,0.7,2.2,1.3,2.5l1-0.7c-0.7,1.6-1.4,0.3-0.4,3
		l3.7,11.3c0,0,0,0.1,0,0.1l1.2,4.4c1.1,3.8,0.4,5.7,1.6,6.6c-0.4,0.4-0.1,0.4-0.2,0.9c-0.2,2.8-0.1,0.6,0.1,2.9
		c0,0.3-0.1,0.8-0.1,1.3c0,1.8,0.3,3.9,0.2,6c0,2.2-0.1,4.4-0.1,6.6l-0.6,12.6c0.5,0.3,0.1-0.1,0.2,0.4c-0.7,0.7-1.4,2.5-1.5,3.8
		l0.4,4.6l1.5-0.9c0.5-0.3,1.3-0.6,1.8-0.9c3.6-1.6,9.3-2.9,13.3-2.6c0.4,0.1,0.3,0.1,0.5,0l0.3-0.1c0.6-3.1-0.3-2.2,0.1-3.6
		c0.3-1.1,0.4-2.5,0.5-3.7c-5.7-0.4-6.2,0.3-10.6,0.9c0.6-0.4,1.8-0.7,2.8-0.7l0.3-0.7c0.3-0.3-0.2-0.1,0.3-0.3
		c0.7-0.3,6.8-0.1,7.3-0.7c0.2-0.8,0.6-4.5,0.5-5.5c-0.2-2,0.3-3.5,0.4-5.7l-3.9,1.1c-8.1,2.2-5.6,2.1-10.6,3.9
		c0.5-0.5,5.8-2.9,6.8-3.3c3.3-1.3,6.2-1.6,6.7-1.9c1.9-1,0.8-1,1.3-3.6c0.1-0.8,0-1.9,0.2-2.9c0.2-1.4,0.5-3.7,0.3-5.3
		c-2.3,0.2-3.9,0.3-6,0.9c-0.7,0.2-1.3,0.5-1.9,0.1c-0.1-0.8-0.4-0.2,0.3-0.6c0.8-0.5,4.1-0.9,5.2-1c1.3-0.1,2.2-0.1,2.4-0.3
		c0.5-0.8,0.7-9.3,0.7-11.2c-1.7,0.4-3.5,1-5.1,1.5l-1.3,0.7c-0.6,0.2-0.8,0.2-1.3,0.5c-2.2,1.2-4.8,2.5-6.7,3.8
		c-0.6,0.4-1.4,0.9-2.1,1.4c-1.3,0.9-1.9,1.3-2.2,1.6c0.3-0.9,2.5-2.3,3.2-2.8l8.3-5.2c0.8-0.5,0.8-1.6,2.8-1.4c0.4-1,4.1-1.4,4.6-2
		c0.3-1,0.4-4.9,0.4-6.1c0-1.8,0.2-3.9,0.1-6c-1.5,0-5,1.3-6.8,1.6c-3.6,0.8-10.6,6.4-13.5,8.9c-0.3,0.3-0.7,0.8-1,1
		c0.7-1.7,10.6-9.2,14.3-10.8c2.4-1,4.7-1.2,7.2-1.8l-0.2-5.4c0-0.6-0.1-1.1-0.2-1.6c-0.1-1,0.1-0.6,0.1-1.4c-1.2,0.1-0.3,0-1-1.5
		c0,0-0.2-0.4-0.3-0.5c-0.8-1.8-0.1-1.9-2.3-1.9l0.5-0.7c-2.3-0.1-6,0-8.3,0.3c-1.2,0.1-2.6,0.2-3.8,0.5c-2,0.5-7.9,0.8-10.5,2
		c-1.6,0.8-2.6,4.3-2.6,5.1c-0.5,0.4-0.6,0.9-0.5,1.5c-0.2-0.7-0.3-0.4-1.1-0.4c0.5,1.2,0.5,0.7,0.9,1.5l-2.9-2.6
		c0,0-0.1-0.1-0.1-0.1c-0.9-1.3-1.3-5.4-1.4-6.9c0.7,0.7,1.3,4,1.5,4.3c0.5,0.9,0.8,2.8,1.8,3.4c0.6,0.4-0.5-0.1,0.6,0.3
		c-0.2-1.5-1.6-4-2.2-5.5l-0.7-2.2c-0.1-0.4-0.1-0.2-0.2-0.6c-0.2-0.8-0.3-0.8-0.6-1.3c-0.3-0.5-0.2-0.8-0.4-1.3
		c-1.2,0.4,0.2,0.1,0,2.1c0,0-0.4-0.2-0.5-0.3c-0.7-0.4-0.3-1-0.4-2.1l-0.3-0.9c-0.7,0.3-0.1,0-0.6,0.4c-0.5,0.4-0.1,0.1-0.5,0.5
		c-0.6,0.8,0,0.2-0.9,0.8l-5.5,5.8c-0.1,0.5-0.8,1-1.2,1.3l-5.4,5.1c-0.8,0.7-0.4,0.7-1.5,1.1c-1.5,0.6-8.9,1.9-11.1,2.1l-7.1,1.1
		c-0.9,0.2-1.4,0.1-2.5,0.2c-0.9,0.1-1.4,0.2-2.3,0.4L110,40c-3,0.3-1.2,0.3-3.6,1.5l-12.7,6.2c-1.9,0.8-1.3,0.3-1.7,1
		c0.5,0.3-0.5,0.2,0.7,0.2c0.5,0,0.6-0.3,1.4-0.6c0.7-0.3,1.1-0.5,1.9-0.8c1.6-0.6,4.2-2.2,5.4-2.7l5.1-2.8c1.4-0.8,2-1.3,3.9-1.5
		l15-1.5c2.9-0.3,6.6-0.9,9.5-1.1c1.6-0.1,3.3-0.5,4.8-0.7c1.9-0.2,7.8-1.2,9.1-1.9c0.9-0.5,5.7-5.4,7-6.9c0.2-0.2,0.1-0.1,0.3-0.3
		C156.5,28,156.5,27.9,156.8,27.7L156.8,27.7z M85.5,90.2c1.2-0.1-0.1,0,0.9,0.2c1.3,0.2,8,0.4,8.7,0.2l-0.4-0.5c0,0,0-0.1-0.1-0.1
		c-0.2-0.3,0-0.1-0.2-0.4c-0.4-0.8-0.5-0.6-0.8-1.1l1.9,0c3.6,0.1,5.9-0.1,9.2-0.2c0.5,0,1.1,0,1.6,0c0,0,0.7-0.1,0.7-0.1l0.6-0.2
		c3,0.5,16.2-1.3,20-1.8c0.9-0.1,2.7-0.2,3.3-0.4c5.9-2,1,1.2,6.9-1.5c1.7-0.8,2.1-1,3.4-2.4c1.2-1.2,2.5-1.2,4.2-1.7
		c0.8-0.3,3.9-1.4,4.2-1.8c0.9-1.1,1.5-2.1,2.3-3.3c4.2-6.2,1.8-4.1,3.7-7.6l2-3.8c0.2-0.7,0.1-0.2-0.1-0.4
		c-1.7,2.9-1.1,1.8-1.8,1.5c-0.4,1-0.6,1.6-1,2.5c-0.4,0.9-0.5,0.5-0.5,1.1c-0.1,1.4,0.9-0.2-1.3,3.8c-0.5,1-3.6,6.2-4.5,6.5
		l-5.9,1.7c-5.3,0.8-16.8,0.9-22.4,0.8c-2.1-0.1-5.4-0.3-7.5-0.1l-5.8-0.1c0.2,0.3,0,0.2,0.6,0.5c0.4,0.2,0.2,0.1,0.7,0.2
		c0.5,1.2-6.8,1.9-8.6,1.9c-0.8,0-4.6,0.9-5.5,0.9l-1.5-0.1c-6.9,1.1-2.5,0.7-8.8,0.9c-1.9,0.1-0.2,0.1-1.3,0.3
		c-0.4,0.1-0.7,0-1.1,0c-0.1-0.2-0.4-0.6,0-1.2c0,0,0.1-0.1,0.1-0.1c0,0,0.1-0.1,0.1-0.1c0.4-0.5,0.3-0.6,0.9-1.2
		c1,0,1.3,0.2,2.7,0.1c0.9-0.1,1.9-0.1,2.8-0.2c4.3-0.5,2.9-0.7,4.5-1c0.1-1.1,0.3-0.7-1-0.8c-0.6-0.1-0.8,0.2-1.3,0.3
		c-1.2,0.2-1.3-0.4-2.4-0.6c-0.3-0.1-0.1,0,0,0h0L85.5,90.2L85.5,90.2z M104.5,109.5c0.9,0.2,2.2-0.6,3-0.9c0.9-0.4,1.9-0.7,2.9-1.2
		c3.3-1.3,7.7-3.6,10.9-5.3l3.7-2.3c0.9-0.7,0.4-0.7,1.3-1c0.2,0.7-0.1,0.6-0.6,1.4c0.1,0.1,0.4,0.1,0.5,0.2c0.7,1.1,2,2.1,2.3,2.5
		c0.4,0.5,0,0.2,0.5,0.7c1.6,1.5,2.3,1,4,1.8l18.7,9.1c0.2,0.2,0.1,0.1,0.4,0.4c0.3,0.3,0,0.1,0.4,0.3c0.2,0.1,0.7,0.2,1,0.4
		c0.7,0.2,1.2,0.6,1.7,0.9l4.2,2.3c1.1,0.4,2,1.1,2.9,1.1c1.2,0,0.7-0.2,0.9-0.3c0.9-0.3-0.6-0.1,0.3-0.1c1.4,0,0.8,0.1,2.9-0.6
		c0.6,0.5,1,0.5,1.5,1.1c0.4,0.5,0.8,0.7,0.4,1.4c-0.1,0.8-0.4,1.9,0.6,1.7c0,0,0.1,0,0.1,0l0.3-0.2c-0.2,1.1,0.3,1.2,0.3,1.2
		l-0.8,2.3l-0.3,2.8c0.9,0.8,1.8,1.4,2.5,2l5.4,5.3c0.9,1,4.1,2.6,5.3,3.3c1.3,0.8,1.4,1.6,4.9,1.4c1.2-0.1,0.7-0.4,1.6,0.2
		c0.9,0.6,0.3,0.4,1,1c0.8,0.1,2.5,0.3,3.2,0.2c0.8-0.2,1-0.9,1.8-1.1c-0.3,0.7-0.5,0.6-0.8,1.3c0.3,0,0.4,0.1,0.6,0
		c0.5-0.1,0.9-0.9,0.9-0.9c-0.1,0,0.1-0.1,0.1-0.2l0.1,1.3c3.1,0.2,0.6,0.8,2.9-0.2l0.2-0.2c0.2-0.4,0.1-0.2,0.4-0.5l1.4-1
		c0.6-0.4,1.5-1,2.1-1.3c0.3-0.2,0.7-0.4,1-0.6c0.5-0.3,0.5-0.4,1-0.7c1.4-0.7,1.8,0.2,2.5-0.4c-0.4-0.1-2.2-0.2-2.8-0.2
		c-1.6-0.1-1.4,0-2.7,0.4c-3,0.9-3.7,1.5-4.9,0.3c4.6-0.4,2.9-1.4,8.9-1.5c0.5,0,1.1,0,1.6,0l1.2-0.1c0.5-0.1,0.1,0.1,0.5-0.2
		c-0.6-0.9-2.6-0.3-3.7-1.1c0.6-0.5,0.3-0.1,1.6-0.2l0.7-0.2l-2.5-0.8c-0.9,0.1-5.4-0.8-6-1c-0.2,0.5,0.1-0.7,0,0.4l0,0.2
		c-1.1-0.8-1.1-0.6-1.9-1.3l-4.5-3.1c0,0-0.1,0-0.2,0c-0.5-0.2-0.6-0.4-0.9-0.9c-0.5-0.7-0.7-1.4-1.1-2c-0.5-0.9-0.7-0.9-1-2.1
		c-0.1-0.3-0.8-2.8,0.2-2.4c0.7,0.3,0.2,0,0.3,0.4c0,0,0.1,1.3,0.1,1.4l1.7,0c-0.4-0.8-0.6-0.6-0.9-1.8c1.4,0.4,2.7,2.3,3.7,3.4
		c4.5,4.8,2,5.1,6.4,7.1c1.5,0.7,3.3,1.3,5.2,1.6c0.8,0.2,1.4,0.3,2.1,0.5c1.7,0.4,1,0.3,1.9-0.3l0,0l0.2-0.7
		c-0.8-0.2-2.6-0.9-3-1.5l0.3-0.1c0.7,0,0.7,0.1,1.4,0.3c-0.7-0.7-0.6-0.4-1.2-0.6c-0.8-0.4-0.1-0.3-1.2-1c-0.2-0.1-0.7-0.4-0.9-0.5
		c-0.5-0.3-0.8-0.7-1.5-1.1c-0.8-0.5-1.2-0.8-1.5-1.2c0.4-0.1,0.7,0.1,1.1,0c-1.2-1.2-0.3-0.3-1.7-0.3l-3.7-5.7
		c-0.7-1.4-2.5-4.3-1.9-6c0.2-0.5,0.2-0.4,0.6-0.6l0.3-1.7c0.2-0.6,0.7-1,0.8-1.7c0.1-0.7,0-1.6,0.1-2.4c0.1-0.8,0.4-1.3,0.4-2.1
		c-1.4-1-2.4-1.5-4.7-1.6c-6.6-0.1-12.4,1.3-17.7,4.8c-0.4,0.3-0.5,0.3-0.8,0.7l-0.8,0.9l1.1,0.6c-1,0.3-0.8,0.6-2,0.5
		c-1.8-0.3-1.8,1-2.6,2.4c-0.3,0.5-0.7,1.2-0.9,1.7c-0.1,0.2-0.2,0.6-0.3,0.8c0,0-0.1,0.4-0.1,0.5l-0.3,0.6c0,0-0.2-0.1-0.1-0.1
		c0.4-0.2,0,0.1-0.7-0.6c-2.5-2.3-1.8-0.3-8-0.6c-1.1,0-1.5-0.5-1.6-0.5c-1.2-1-5.1-3.1-6.5-3.3c-6.5-3.5-14.4-6.8-20.4-10.1
		c-1.7-0.9-1.7-1-2.6-2c-0.9-1.1-1.4-2.2-2.3-3.2c0.2-0.8,0-0.1,0.4-0.8c2.2-3.6,2.9-2,4.6-3.4c0.4-0.3,0.2,0,0.4-0.5l-0.5-0.6
		c-1.1,0.3-1.3,0.9-2.4,1.1c0.4-0.2,1.3-2.1,1.7-2.6c0.5,0.5,0.8,0.7,1.3,1.1c1.8,1.5,3.5,3.1,5.6,4c1.2,0.5,3.9,2.5,4.8,2.7
		l0.8-0.9c-0.5-0.9-2.6-2.2-3.4-2.6l3-2.5c2.8-2.5,1.9-1.8,5.9-2.6l7.3-1.4c2.8-0.4,12.9-2.7,16.2-3.8c0.4-0.1,0.7-0.2,1-0.4
		c0.9-0.7-0.2,0.2,0.1-0.4c0.5-0.4,3.2-0.8,3.1-1.9c-0.5,0.1-1.1,0.5-1.4,0.6c-1.7,0.8-7.1,2.6-9.1,3.1l-20.2,4.3
		c0.1-0.6,2.3-2.8,2.7-3.2c1.3-1.6,1-1.8,3.3-2.8c3-1.3,5.9-2.5,8.8-3.8l8.6-3.9c2.7-1.3,4.9-2.6,7.3-3.8c0.8-0.4,0.9-0.2,0.7-0.5
		l0.1-0.9c-1.5,0.8-1.1,0.9-3,1.8L165,79c-1.1,0.5-2.2,1-3.3,1.5c-1.1,0.5-2.2,1.1-3.3,1.5c-2.4,0.9-4.3,2-7,3
		c0.4-1,1.9-2.6,2.5-3.7c0.3-1,2.4-3.6,3.1-4.4c1-1.2,2.2-2.7,3.4-4.1l1.7-2c0.6-0.8,1.1-1.3,1.7-2.1l3.4-4.2
		c3.8,0.7,4.6,3.6,8.1,0.5c0.7-0.7,1.5-1.4,2.3-1.7c-0.3-0.7-0.2-0.4-0.2-1.2c-0.9,0.8-3.2,3-4,3.4c-1.2,0.6-4.1-1.1-5.7-1.3
		c0-0.3,0.2-0.8-0.1-1.1l-1.3,1.2c-2,2-4.8,5.6-6.5,7.7c-0.2,0.2-0.3,0.4-0.5,0.7l-0.5,0.5c0.6-1.8,3.1-5.6,3.4-8.5
		c0.1-1.3-0.3-1-0.4-3.4c0,0.4-0.3,0.2-0.4,1c-0.1,0.6,0,1,0,1.7c-0.4,2.8-2.8,6.9-4,9.6c-0.5,1-3.6,5.8-3.6,6.4
		c-0.6,0.4-0.8,0.5-1.1,1.2c-0.1,0.3-0.2,0.5-0.3,0.6l-0.3,0.3c-0.7,0.7-0.8,1.3-1.8,2.5c-2.5,3.2-6,7.8-9.4,10.2
		c-0.8,0.5-1.8,1-2.4,1.7c0.4,0,1.5-0.3,2.2,1.2l-3.8-2.1l-6.4-5.2c-1-0.7-2.3-2-3.3-2.5c-0.3,0.2-0.3-0.4-0.2,0.6
		c0.6,0,0.8,0.5,1.6,1.2c1.8,1.6,2.1,0.8-0.3,4.7c-0.7,1.2-1.2,2.2-2.8,2.4l0,1.1l-5.3,0.3c-1.9-0.1-2.9,0.2-4.6,0.3
		c-1.4,0.1-3.3,0.1-4.8,0.2c-3.2,0.1-6.6,0-9.8,0l0,0.2c3.1,0,5.2,0.3,8.3,0.2l8.3,0c-0.3-0.2,0-0.1-0.5-0.1c-0.1,0-0.4,0.1-0.5,0.1
		c-0.4,0.1-0.7,0.2-1,0.3c-0.7,0.2-1.3,0.3-2,0.5c-2.7,0.8-6.1,0.1-9.2-0.2c-0.8-0.1-3.5-0.4-4.3-0.2c-0.6,0.1-0.2,0-0.5,0.3
		c1.3,0.7,12.4,2.1,16.5,1.3c0.9-0.2,4-0.8,4.6-1.1c-0.2-0.3,0.2-0.9-1.7-0.3l1-0.5l5.9-0.4l-2.7,1.5c-0.6,0.3-0.8,0.4-1.3,0.7
		c-0.4,0.3-0.6,0.5-1.2,0.8c-0.8,0.3-0.7,0.3-1.4,0.7l-5.2,2.7c-0.7,0.3-0.7,0.4-1.4,0.7c-0.8,0.4-1.9,0.9-2.7,1.2
		c-1.8,0.7-4.2,2.1-5.6,2.3L104.5,109.5L104.5,109.5z M195.4,139c-1.4-0.2-2.8-1.6-3.8-2.4c-0.3-0.3-0.9-0.6-1.4-0.7
		c1.1,1.7,2.5,2.1,2.9,2.3c0.3,0.2,0.5,0.6,0.9,0.8c-0.7,0-1.1-0.1-1.7-0.2c-1.7-0.4-3-2.5-4.4-3.6c-0.4-0.3-0.6-0.6-1-1
		c-2-1.7-0.7-1-1.1-2.4c-0.2-0.7-0.1-0.2-0.7-1c-1.2-1.7-4.3-8-4.4-9.4l4.1,8c0.3,0.5,0.4,0.8,0.7,1.3l1.6,1.7l5.3,3.1
		c0.9,0.6,0.3,0.5,1,1.2C194.1,137.5,195.2,137.7,195.4,139L195.4,139z M195.6,104.8c0.9,0.2,2.1,0.8,2.7,1.2c1-1.1,0-0.4,1.2-0.9
		l-0.2-1.5c-2.3-1.4-2.7-0.7-3-5.6l0.1-0.1c-0.5-0.6-0.2-1.7-0.5-2.5c-0.4,0.5-0.2,1-0.6,1.6c-0.6-0.6-0.1-1-0.4-1.8
		c-1.6,0-3,0.1-4.5,0.3c-3.1,0.5-2.7-1-10.8,2.4c-2.1,0.9-2.2,1.2-2.3,2.3c-0.5,4.6-1.2,6.2-2.4,10.3c2.7-1.2,3-3.1,12-5
		c0.9-0.2,2.2-0.2,2.8-0.4c0,0,0.1,0,0.1-0.1c0.4-0.2,0.2-0.3,0.9-0.5c0.4-0.1,1.2-0.2,1.6-0.3C193,104.4,195.1,104.5,195.6,104.8
		L195.6,104.8z M183.5,148.4l0.1-0.4c1.5-0.2,3.2-0.5,4.8-0.7c1.8-0.3,2.7-0.6,4.2-1c0.4-0.7,1.4-1.1,0.5-2.1c1-0.4,0.5,0.3,0.8-0.5
		c-3.2-0.2-1.7-0.7-3.3-0.6c-1.7,0.1-1.5,0.2-3.2-0.2c-3.5-0.8-2.5-0.3-5.7-1.7c0.3,0.4,0.5,0.7,0.3,1.2c-1.4-0.2-2-1.8-3.8-2.4
		c-1.3-0.4-3.3-2.5-4.5-3.8c-1.3-1.3-2.4-2.2-3.6-3.7c-1.2-1.4-2.8-2.1-2.8-3.1l-0.2-0.8c-0.1,0-0.1-0.1-0.1-0.2l0,0.4
		c-0.5,2.4-1.4,5-1,7.6l-0.1,0c-0.1,1-0.1,0.9,0.5,1.6c0.5,0.7,0.4,0.7,0.8,1.1c0.2,0.1,0.5,0.4,0.6,0.4l0.3,0.3
		c0,0,0.1,0.1,0.1,0.1c1.4,1.5,2.9,3,4.3,4.8l4.1,2.9c0.7,0.5,0.7,0.3,1.3,0.7l1,0.6c1.1,0.5,0.9,0.4,1.3,0.3
		C181.8,148.8,182.8,149,183.5,148.4L183.5,148.4z M116.9,86.4c-0.5,0.6-0.3-0.2-0.3,0.6c1.4,0,4.5-0.4,6.1-0.7
		c2-0.3,4.1-0.5,6.1-0.9c2-0.3,3.9-0.7,5.4-1.6c1-0.5,3.8-1.7,4.3-2.5c-3,0.1-6.3,0.3-9.4,0.4l-9.4,0l-2.4,4
		C117.3,85.9,117.1,86.2,116.9,86.4L116.9,86.4z M238,131.5v-4.1l-2.4-0.1c-0.6,0.6-2.4,2.2-2.9,3.2c-0.9,1.6-0.6,1.9,0.1,3.1
		c0.1,0.2,0.2,0.3,0.3,0.5l0.3,0.4C234.2,133.8,235.7,131.9,238,131.5L238,131.5z M57.5,97.8c0.4-0.6,4.5-1.5,5.9-2.4
		c-0.1-0.6-0.9-1.8-1.4-2.1c0-0.4-0.1-1,0.1-1l0.6-0.3c0.3-0.1,0.7-0.1,1.1-0.1c0.3-0.7-0.3-0.7-0.8-1.6l1.2,0.7
		c0.6,0.9,0.6,0.2,0.8,1.1c-1.6,0.3-1.1,0-2.5,0.2c0.3,1.1,2.9,2.7,0.7,3.7c-0.1,0.1-0.6,0.2-0.8,0.3c-0.5,0.2-1.1,0.2-1.6,0.4
		C59.8,97.1,58.6,97.8,57.5,97.8L57.5,97.8z M66.1,98.8c-0.5-0.4-0.5-1.6-0.1-2.1C66.1,97.2,66.4,98.2,66.1,98.8z M197.8,132.8
		c-0.1-0.6-2.4-3.4-3-4.2c-1-1.4-2.3-2.9-3-4.2l-1.9,0.4c-0.1,1.2,0.4,1.8,1,2.8c1.1,1.9,1.4,1.6,4.4,3.6
		C196.1,131.8,196.8,132.6,197.8,132.8L197.8,132.8z M121.7,47.7c-1.5-0.7-13.4,0.6-14.9,0.8c-2.4,0.3-10.6,1.5-12.6,2L92.5,51
		l7.4-1c6.4-1.2,15.3-1.8,21.8-2.2c-0.3,2.9,2.7,8.8,4.5,11c1.2,1.5-1.1,6-0.1,7.4c0.7-0.3,0.4,0.1,0.6-1l2.3-16.1
		c0.1-1.2,0.4-2.1-0.2-2.8c-0.5,0.5-0.5,0.7-0.7,1.5l-1.4,10.7c-1.1-1.1-4.3-8.1-4.6-10.7L121.7,47.7L121.7,47.7z M134.1,67.9
		c0,0.7,0.1,0.5-0.2,1l-2.3,3.8c-1.6,2.1-1,2-3.1,2.1c-4.2,0.3-4.6,1-6.7-1.3l-4.3-3.9c-0.6-0.6-1.6-1.2-1.9-2.2
		C121.6,68,128,67.9,134.1,67.9L134.1,67.9z M94.4,29.7c0.8,0.4,4.9,4,5.9,4.8c0.8,0.6,2.4,1.5,2.7,2.6c0.2,0.8,0.4,1.3,0.4,2.2
		c0,3-0.2,2.1,0.6,2.4c0.8-0.3,0.3,0.1,0.6-0.5c0.3-0.7-0.5-11.8-0.6-12.6c-0.3-4.6-0.6-9.1-0.6-13.6c2.1,0.2,3.6,1,5.3,1.5
		c0.7,0.2,1.1,0.2,1.2,1c1.2-0.4,4.2,0.8,5.6,1.3l1.9,0.6c0.9,0.3,1.5,0.4,2.7,0.6c2.3,0.5,8.5,2.7,10.8,2.6
		c-0.4-0.4-0.3-0.4-1.1-0.5l12.2,0.9c5.7,0.1,4.9-0.1,8-3.5c0.4-0.5,0.6-0.4,0.8-1c-0.9,0.2-0.6,0.2-1.4,0.9
		c-0.3,0.3-0.2,0.2-0.4,0.4c-2.8,2.5-2.1,2.7-6.8,2.5c-4-0.1-8.1-0.6-12.1-0.8c-2.7-0.1-4.2-0.4-5.5-1.2c-0.8-0.5,0.1,0.1-1.7-0.4
		l-9.5-2.9c-0.7-0.1-1.1,0-1.7-0.4c0,0-0.1-0.1-0.1-0.1s-0.1-0.1-0.1-0.1c0,0-0.1-0.1-0.1-0.1l-0.3-0.3c-0.9,0.1-0.6,0.1-1.3-0.1
		l-2-0.7c-2.3-0.4-1.6-0.4-3.5-1.2c-0.1,0-0.2-0.1-0.3-0.1c-0.7-0.3-0.8-0.2-1.7-0.2c0,3.7-0.1,7.5,0,11.1
		c0.1,1.4,0.5,10.2,0.3,10.8l0-0.2c-0.2-0.5-1-0.9-1.7-1.6c-1.8-1.7-5.6-4.4-6.5-5.3c-0.7,0.5-0.6-0.9-0.6,0.7
		C94.2,29.3,94.1,29.3,94.4,29.7L94.4,29.7z M42.6,140.4c1.2-0.2,2.4-0.3,3.6-0.5c1.1-0.2,2.2-0.5,3.2-0.9c1.4-0.4,4.6-1.8,5.4-2.5
		c-0.5-0.4-0.6-0.3-0.7-0.7l-2-0.7c-0.3-0.3-0.1-0.3-0.7-0.4c-1.2-0.4-2,0.6-3.1,1.2c-1.1,0.6-1.8,1.1-3.3,1.6
		c-1.3,0.5-2.3,0.9-3.9,1.2c-0.7,0.2-1.4,0.3-2.1,0.4c-0.4,0.1-0.7,0.1-1.1,0.1l-0.9,0.4c0.5,0.3,0.8,0.6,1.6,0.5
		C39.9,140.2,41.3,140.6,42.6,140.4L42.6,140.4z M47.6,94.2c0.8,0,1.5-0.4,2-0.9l-3.8-0.5c-0.2,0.2-0.3-0.3-0.2,0.4
		C46.5,93.6,46.7,93.9,47.6,94.2z M35.7,105.9l-3,0.3c-0.1,0.3-0.1,0.1-0.1,0.5l5.6,0.6C37.7,105.8,37.5,105.8,35.7,105.9z
		 M87.8,80.9c-0.7,0.1-3.6,1.4-4.2,1.8c1,0.4,6.1-0.5,7.4-0.8l-0.7-0.5L87.8,80.9z M39.4,105.4l-0.5,0c-0.6,0.4,0-0.1-0.7,0.3
		l-0.3,0.2c0,0-0.1,0.1-0.2,0.1c0.8,0.8,0.7,1.5,2.1,1.6c-0.2-0.5-0.4-0.6-0.8-1.1c1,0.8,1.2,1.4,3.1,1.5l-1.6-1.7
		c0,0-0.1-0.1-0.1-0.2C40.1,105.5,40.2,105.6,39.4,105.4L39.4,105.4z M36.4,109l-1.4,0c0.2,0.3-0.1,0.4,1.1,0.5
		c0.5,0.1,0.9,0.1,1.3,0.2c0.9,0.1,1.7,0.3,2.6,0.3C39.1,108.4,38.5,108.9,36.4,109z M48.1,122c1.2,0.1,2,0.4,3.1,0.1
		c-2.4-1.8-2.3-0.8-3.4-0.5C48,122,47.8,121.7,48.1,122c-1.3,0.1-1.2,0.4-2.1,0.8c-0.7,0.2,0,0-0.6,0.3c-0.4,0.2-0.2,0.1-0.5,0.2
		l4.6-0.6c0.5-0.2,0.3-0.2,0.6-0.4L48.1,122L48.1,122z M42.3,106.9c-0.3-0.3-0.9-0.9-1-1.4l-0.9-0.1c0.2,0.7,0.4,1,0.8,1.5l1.5,1
		L42.3,106.9L42.3,106.9z"/>
</g>
</svg>
