<?xml version="1.0" encoding="utf-8"?>
<!-- Generator: Adobe Illustrator 24.0.2, SVG Export Plug-In . SVG Version: 6.00 Build 0)  -->
<svg version="1.1"
	 id="Слой_1" image-rendering="optimizeQuality" shape-rendering="geometricPrecision" text-rendering="geometricPrecision" xmlns:xodm="http://www.corel.com/coreldraw/odm/2003"
	 xmlns="http://www.w3.org/2000/svg" xmlns:xlink="http://www.w3.org/1999/xlink" x="0px" y="0px" viewBox="0 0 238.1 150.2"
	 style="enable-background:new 0 0 238.1 150.2;" xml:space="preserve">
<style type="text/css">
	.st0{fill-rule:evenodd;clip-rule:evenodd;fill:#373535;}
</style>
<g id="Layer_x0020_1">
	<g id="_105553312711712">
		<g>
			<path class="st0" d="M21.3,24.3c0.9-0.9,3.2,0,4.3,0.2c2,0.5,6.4,1.4,8,2.1c0.7,0.3,1.1,0.7,1.4,1.1c0.3,0.4,1.1,1.1,1.1,1.6
				c-0.6,0.2-1.4-0.1-1.7-0.6c-0.5-0.9-0.1-0.9-1-1.5c-0.8-0.5-2.5-1-3.7-1.3c-3.7-1-4.8-0.7-7.8-1.3C21.2,24.5,21.5,24.4,21.3,24.3
				z M8.4,21.6l3.8,1.1c0,0.4-0.2,0.5-1,1c-1.6,0.9-2.8-1.5-4.1-1.5v0.9l5,3c0.4,0.2,0.5,0.1,0.7,0.5l-0.3,0.1h-0.1l-2.5-0.4
				c-0.6-0.1-2.4-0.5-2.9-0.4v1.4c0.7,0.2,4,0.4,5,0.5c1.2,0.1,3.9,0.1,5,0.3c0.3,0.2,0.5,0.5,0.5,0.9c0.3,0.3,0.1,0.4,0.7,0.5
				c0.3-0.9-0.5-0.8,1.8-1.2c1.5-0.3,1.3-0.8,1.8-1.1c0.2,0.5,0.1,0.8,0.4,1.2c0.9-0.2,0-0.7,1.5-0.4c0.7,0.1,0.5,0,0.7-0.1h0.1
				c-0.1-0.5,0.1-0.2-0.3-0.4c-0.2-0.1-0.3-0.1-0.6-0.2c-0.6-0.3-1.3-1-2.3-0.6c-0.6,0.2-0.5,0.4-0.9,0.7c-1.3,0.1-3.6-0.4-4.7-0.8
				c-0.7-0.3-3.4-1.4-3.8-1.9c0.3-1,1.5-1.8,3-0.7c0.6,0.5,0.8,0.4,1.7,0.6c3.8,0.6,5.8,1.6,9.1,2.3c1.3,0.3,2.6,0.5,3.9,0.7
				c0.6,0.1,1.3,0.2,1.9,0.4c1.1,0.3,1.4,2.3,3.9,3l3.6,1c1.4,0.4,2.3,0.6,3.9,0.6c5.2,0.1,4,0.8,5.1,4.1c0.4,1.2,0.8,2.3,1.2,3.5
				c0.5,1.5,1,1.9,0.2,3.5c-1.5,2.5-2.2,1.7-4.8,2.1c-0.7,0.1-1.5,0.2-2.2,0.1c-0.8-0.1-1.2-0.3-1.8-0.5c-1.3-0.4-1.4,0.3-1.8,0.3
				V46c0.4,0.2,0.6,0.2,0.8,0.5c0.6,0,0.8,0.6,1.7,0.6l6.1-0.8c0.9-0.1,1.3,0,1.8,0.5c0.5,0.6,2.1,3.6,2.6,4.5
				c0.3,0.6,6,10.4,6.4,10.9c0.1,0.1,0.2,0.2,0.3,0.3c0.2,0.3,0.1,0,0.2,0.3c0.4,0.1,0.2,0.2,0.6,0.1L59,62.2
				c-0.3-0.2-3.7-6.3-4.3-7.3c-1.5-2.6-2.9-5-4.3-7.4c-2-3.3,2-3.7,0.8-6.3c-0.3-0.7-0.6-1.4-0.9-2.1c-0.6-1.3-1.3-2.7-1.8-4.1
				c-0.3-0.7-0.5-1.5-0.7-2.2L47.4,31l-0.1-0.3v-0.1v-0.1c0.1-0.4,1.1-0.1,1.7-0.3c0.3-0.1,0.7-0.3,0.8-0.6v-0.1c0-0.2,0-0.1,0-0.2
				l-7.1-0.8h-0.5L42,29c0.4,0.1,0.7,0.1,1.1,0.3c0.3,0,1.3,0.2,1.9,0.3c0.7,0,1.3,0.3,1.4,0.9c-0.9,0-1.9-0.5-3-0.5
				c-1.4-0.1-1.8,0.1-3.1-0.4c-0.9-0.3-1.6-0.7-2.4-1.1c-3-1.4-1-1.9-3.7-3.4c-2.2-1.1-2.4,0.1-5.9-1.2c-0.5-0.2-0.8-0.3-1.3-0.5
				c-0.5-0.2-1-0.2-1.3-0.6l1.2,0.1v-0.3c1,0.2,0.9,0.3,1.9,0c0.3-0.1,0.9-0.1,1.1,0.2c0,0,0,0.1,0,0c0,0,0,0,0,0.1
				c0.4,0,0.8,0.1,1.2,0.1c1.2,0,1-0.2,1.1-0.3c-0.6-0.1-0.6,0-1.2-0.2c-0.6-0.3-0.5-0.1-1.1-0.1c-0.4,0-0.8-0.1-1.2-0.1
				c-1.3,0-2.9-0.2-4.1-0.1c-0.4,0-0.1,0-0.3,0.1c-0.1,0,0,0.1-0.2,0c-0.3-0.1-0.1,0.1-0.2-0.2c-0.3-0.6,0.4-0.9,0.9-1
				c-0.1,0.2-0.3,0.2-0.3,0.8c1.2,0,2.3,0,3.5,0c0.8,0,2.7,0.2,2-0.6c-0.1,0-0.4,0.1-0.8,0.1c0.2-0.2,0.1,0,0.3-0.2l0.2-0.5
				c-0.4,0-0.7,0.1-1.2,0.1c-0.3,0-0.9,0-1.1,0h-0.3c-0.6,0-0.3,0.3-1.5,0.2c-1,0-0.5-0.2-1.2,0c-0.8,0.3-2.5-0.4-3.8,0.1
				c0.2,0.5-0.1,0.2,0.4,0.4l2.9-0.1C24,21.8,24,22,23.7,22.2c0.3-0.1,0.3,0.1,0.4,0.3c-0.2,0.2,0,0-0.2,0.2c-0.2,0.1-1,0-1.6,0
				c-0.3,0.3,0,0.2-0.9,0.4c-0.2,0-0.2,0-0.3,0.1l-0.6,0.3V24c-0.6,0.1-8.3-2.3-10-2.8C9.8,21,9.4,21,9,20.7c0.5-0.4,2.4,0,3.1,0.1
				c1,0.2,1.6,0.5,2.5,0.8c1,0.3,1.7,0.4,2.7,0.6c1.2,0.2,1.7,0.7,2.7,0.9c-0.1-0.2,0.1-0.2-0.1-0.2c0.2,0,0.3,0,0.3,0h0.3l-0.3-0.2
				c-0.2-0.1-0.2-0.1-0.4-0.1L18.8,22c-0.6-0.2-0.3-0.2-0.6-0.3c0.6-0.8,0.6,0.2,1.1-0.5c0.2,0,0.3,0,0.5,0c0.3,0,0.3,0.1,0.3,0.2
				l0.1,0.6c0,0,0.1-0.4-0.1-0.7l0,0v-0.1l-1.4,0.1c-0.8,0-0.1-0.1-1,0.1c0,0-0.5-0.1-0.1-0.4c-0.6,0,0.3,0.2-0.7,0.2
				c-0.7,0-0.2-0.1-0.6-0.2c-0.3-0.1-0.5,0-0.7,0c-0.5,0-0.1,0.2-0.5-0.3c-0.3,0.1-0.1,0.2-0.5,0.3v-0.1c-0.2-0.5-0.2-0.1-0.7-0.3
				l-0.6-0.2c-0.6-0.1-0.2-0.2-0.8-0.2c-0.9,0-0.7,0.3-0.8-0.1l0.6-0.2c-0.5-0.2-1,0.3-2.1-0.2c-1.6-0.6-1.7,0.7-1.8,0.8
				c-0.3,0.2-0.1-0.4-0.4,0.4c-0.1,0.2-0.1,0,0,0.2c0.7,0.6,0.5-0.3,1,0.4L8.4,21.6L8.4,21.6z"/>
			<path class="st0" d="M7.1,28.7v2l0.8-0.1l0.2,0.2c0.2,0.3,0.2,0.3,0.6,0.5c2.9,1.4,3.9,1.7,7,2.8c1.5,0.5,2.5,1.4,4.4,0.4
				c1.6-0.9,2.4-1.4,4.4-0.6c4.8,1.7,9.8,3.5,14.8,4.7c0.7,0.2,1.5,0.4,2.3,0.5l2.7-0.1c-0.1-0.4,0-0.4-0.5-0.5
				c-0.1-0.1-0.4-0.1-0.6-0.2l-8.7-2.4c-2.7-0.7-2.1-1.7-3.3-1.3c-0.6,0.2-0.8,0-1.2-0.3c-2.2-1.4-4.2-1.9-6.6-2.9
				c-0.9-0.3-0.8-0.3-2.1,0.6c-2.9,2-2.4,2.1-4.2,1.5c-2.9-1-5.4-2-8.2-2.9c-0.8-0.2-1.1-0.2-1-0.6c0.1-0.4,1.6-0.6,2-0.6v0.7
				c0.9,0.3,1.4,0,2.1,0.7c0.5,0.5,1.5,0.6,2.1,0.2c-0.2-0.7-1.1-0.2-1.8-0.7c0.2-0.2-0.1-0.1,0.4-0.2h4.4v-0.4
				c-0.4-0.1-0.2-0.6-1.3-0.6c-0.7,0-1.4,0.1-2-0.1c0.3-0.7,0.7,0.1,0.8-1c-0.5,0-1.1,0.5-1.7,0.7C10.7,29.6,7.8,28.3,7.1,28.7z"/>
			<path class="st0" d="M74.1,40.3c0.4,2.1-1.9,5.4-2.9,6.9c-1.3,2-0.9,2.3-0.6,4.6c0.1,1.2,1.7,12.4,2,13.5c0.7,0,0.6-0.2,0.6-0.9
				c-0.1-3-2-11.7-1.7-14.3c0.2-1.8,1.1-2.8,1.8-4c1.7-2.9,1.7-6.1,1.9-9.7c0.1-1.9,0.1-3.8,0.2-5.7c0-0.9,0.1-1.9,0.1-2.8
				c0-0.7-0.1-2.3-0.1-2.8c-0.2-0.3-0.1-0.3-0.2-0.6c-0.1-0.5-0.1-0.4-0.3-0.5c-0.3,0.2-0.3,0.4-0.3,0.8
				C74.6,27.5,74.3,40,74.1,40.3L74.1,40.3z"/>
			<path class="st0" d="M85.9,46.5c1.1-0.1,0.7-1.1,0.5-2.9c-0.1-1.1-0.2-2.2-0.4-3.3c-0.3-2.2-0.5-4.4-0.7-6.4
				c-0.1-1.3-1.3-12.8-1.5-13c-0.7-0.7-0.3,2.4-0.3,2.7c0.3,4.8,1,15.7,1.8,19.7C85.5,44.4,85.6,45.8,85.9,46.5z"/>
			<path class="st0" d="M80.9,74.7c0.2,0.2,0.2,0.2,0.7,0.2v-1.1c-0.3-2.3-1.1-3.5-0.6-6.8c0.4-2.3,1.1-3.9,1.9-5.9
				c0.5-1.5,4.2-10.8,3.8-11.6h-0.1h-0.1c-0.4,0-0.4,0.3-0.7,1.1l-1.7,4.7c-0.7,2.1-1.4,4.2-2.2,6.1c-0.7,1.8-1.8,4.2-2,6.2
				c-0.1,1.3,0,2.7,0.2,3.9C80.3,72.2,80.9,74.2,80.9,74.7z"/>
			<path class="st0" d="M216.1,4.9c0.4,0,0.9,0.4,1.3,0.6s0.8,0.5,1.2,0.8c1.4,0.8,6.1,3.8,7.3,4.2h0.4c0-0.5-0.1-0.5-0.4-0.7
				l-2-1.4c-0.5-0.4-0.6-0.7-1.1-1.2c-0.1-0.1-0.6-0.4-0.7-0.4c-0.4-0.4-0.1-0.4,0-0.9l-1.4,0.3c-0.3-0.5,0.1-0.4-0.6-0.7l-2.4-1.1
				h-1.9c0,0.2,0,0.1,0,0.2L216.1,4.9L216.1,4.9z"/>
			<path class="st0" d="M81.4,14.6l0.4,0.2C83,15.5,88,19,88.6,19c0.1-0.4-0.1-0.5-0.4-0.7s-0.4-0.3-0.7-0.6l-1-0.8
				c-0.5-0.4-0.2,0-0.4-0.5c1.2,0.1,2.6,0.3,3.9,0.5c0.4,0,0.7,0.2,0.8-0.2c0.1-0.5-0.3-0.4-0.6-0.5c-1.4-0.2-8-1.5-8.3-1.8h-0.4
				L81.4,14.6z"/>
			<path class="st0" d="M39.6,48.9c0,0.5-0.1,0.4,0.2,0.6c0.1,0.1,0.1,0,0.3,0.1c0.1,0.1,0.1,0.1,0.2,0.2c1.3,0.2,5.1,3.4,6.9,2.2
				v-0.5c-0.7-0.4-4.5-1.7-5.8-2.2C40.6,49.1,40.2,48.8,39.6,48.9z"/>
			<path class="st0" d="M124.7,8.7c0.1-0.2,3.5-2.3,4.2-2.7c0.2-0.2,0.1,0,0.1-0.4c-1-0.1-1.3,0.3-2.1,0.4l0.5-1.8h-2.5
				c-0.2,0.3-0.2,1.8-0.1,2.3c0.7,0.1,1.2-0.3,1.9-0.3c-0.7,0.8-2,1.8-2.3,2.4C124.5,8.8,124.3,8.7,124.7,8.7L124.7,8.7z"/>
			<path class="st0" d="M231.1,36.2v-0.9c-0.4-0.4-0.6-0.2-1.2-0.1c-1.9,0.3-7.4-1.7-8.7-1.6c-0.1,0.7,0.2,0.7,0.7,0.8
				C222.9,34.8,230.5,36.4,231.1,36.2z"/>
			<path class="st0" d="M41.1,43.3c0.4,0,1.1,0.2,1.7,0.3c1.3,0.2,4.7-0.1,4.8-1.1h-0.5h-6.6h-0.2C40.4,43.1,40.7,42.9,41.1,43.3z"
				/>
			<path class="st0" d="M38.7,47.8c0.4,0.4,0.3,0.6,1.1,0.6c1.5,0,2.6-0.3,3.9-0.5c0.5-0.1,0.4,0,0.6-0.3c-0.1-0.4-0.1-0.4-1-0.4
				c-0.5,0-0.9,0-1.4-0.1c-0.9,0-2,0.2-2.8,0c-0.1,0.1,0,0-0.2,0.1c0,0-0.2,0-0.2,0.1C38.7,47.4,38.7,47.8,38.7,47.8z"/>
			<path class="st0" d="M134,143.9h-0.3c0,0.6,0.3,0.6,0.6,0.8c0.5,0.4,0.3,0.6,0.5,1.2h0.5c0,0,0,0,0.1-0.1l0.2-0.2c0,0,0,0,0-0.1
				l0.5-0.8c0.3-0.5,0.4-1.3-0.2-1.5l-1.3-0.2v0.8L134,143.9L134,143.9z"/>
			<path class="st0" d="M231.1,144.1v-4.7c-0.3,0-0.3,0-0.5,0.4c-0.1,0.2-0.2,0.4-0.2,0.6c-0.3,1.1-0.2,2.4,0.3,3.4
				C230.8,144.1,230.7,144.1,231.1,144.1L231.1,144.1z"/>
			<path class="st0" d="M121.7,7.1c0.4-0.5,0.7-0.9,1.1-1.3s1.1-0.9,1.2-1.4h-1.9c-0.3,0.4-0.1,1.2-0.4,1.8
				c-0.2,0.5-0.4,0.3-0.5,0.6C121,7.1,121.3,7.4,121.7,7.1L121.7,7.1z"/>
			<path class="st0" d="M105,28.6c-0.2,0.6-0.1,0.9,0.5,1c0.6,0.2,1.2,0.2,1.9,0.4c0.9,0.2,1.6,0.1,0.7-0.6c0,0,0,0-0.1-0.1
				c-0.4,0-1.1-0.4-1.5-0.6C105.7,28.4,105.6,28.3,105,28.6z"/>
			<path class="st0" d="M166.6,83.7c-0.1-0.2-0.9-0.9-1.3-0.9c-0.3,0-1,0.8-1.1,1.1c-0.2,0.6,0.5,1.1,1.1,0.7
				C165.9,84.4,166.5,84,166.6,83.7z"/>
			<path class="st0" d="M125.4,10.7v0.5c0.3,0,0.4-0.1,0.5-0.2c0.1-0.3,1.5-1.3,1.9-1.7c0.4-0.3,0.5-0.3,0.6-0.7
				c-0.8,0-1.4,0.2-2,0.6C125.7,9.8,125.9,9.9,125.4,10.7L125.4,10.7z"/>
			<path class="st0" d="M159.1,14.2l1.5,0.2v-0.6c-0.7-0.4-2.8-0.5-3.4-0.8h-0.5c-0.3,0.8,0.1,0.8,0.8,0.9
				C158,13.9,158.8,13.9,159.1,14.2z"/>
			<path class="st0" d="M21.1,37.7c-0.3,0.4-0.6,0.5,0.5,1.1c0.5,0.3,1.4,0.3,1.4-0.4l-0.9-0.1c0-0.5,0.3-0.8,0.4-1.3
				c-0.2-0.2,0.1,0-0.3-0.1C22.1,37.1,21.4,37.6,21.1,37.7z"/>
			<path class="st0" d="M178.1,30.7c0,0.4,0,0-0.1,0.3c-0.1,0.2-0.1-0.1-0.2,0.4c1.3,0,0.9,0,1.3-0.7c0.4,0,0.6,0.1,0.8,0.2l1.2,0.1
				c-0.1-0.3,0.2-0.2-0.6-0.6C178.8,29.5,178.8,30.3,178.1,30.7z"/>
			<path class="st0" d="M231.1,34.1v-0.7c-0.7-0.1-2.1,0.3-2.8-0.3c-0.7-0.1-0.3,0-0.4,0.1c0.2,0.5,0.8,0.8,1.3,0.9
				C229.7,34.3,230.7,34.4,231.1,34.1z"/>
			<path class="st0" d="M104.2,33.5c0.4,0,0.4-0.4,1.2-0.8c0.7-0.4,0.8-0.3,1.8-0.3c-0.1-0.4,0-0.3-0.3-0.5
				C105.7,31.3,104.2,32.5,104.2,33.5z"/>
			<path class="st0" d="M104,31.9c1.1,0.1,2.1-0.9,1.7-2c-0.5,0-0.7,0.6-0.9,0.9C104.5,31.1,104,31.4,104,31.9z"/>
			<path class="st0" d="M139.1,34.8c0.2-1.2-0.9-1.5-1.4-2c-0.3-0.3-0.2-0.5-0.7-0.5c-0.3,0.6,0.9,1.5,1.4,2
				C138.7,34.5,138.8,34.7,139.1,34.8z"/>
			<path class="st0" d="M21.1,30.8c-0.5,0.2-0.8,0.5-1.2,0.7c-0.3,0.1-0.5,0.2-0.6,0.5c-0.2,1.1,2.2-0.7,2.3-0.9
				C21.7,30.6,21.4,30.7,21.1,30.8z"/>
			<path class="st0" d="M43.5,63.7c0.5,0,1.7,0,2.1-0.2C45.3,62.9,43.4,61.9,43.5,63.7z"/>
			<path class="st0" d="M205.5,15.6l1.3,0.3c0.1-0.7-0.2-1.4-0.3-1.9c-0.5,0.1-0.4,0.2-0.6,0.7C205.6,15,205.5,15.1,205.5,15.6z"/>
			<path class="st0" d="M197.7,35c-0.3-0.2-2-1.5-1.8-0.6c0,0.1,0.9,0.7,1.1,0.8c0.2,0.1,1,1,1.1,0.2C198.2,35.2,198,35.2,197.7,35z
				"/>
			<path class="st0" d="M117.4,15.1c0.2,0.4,1.1,1.6,1,2h0.6v-0.5c-0.2-0.2-0.5-0.7-0.7-1c-0.3-0.4-0.3-0.7-0.8-0.9
				C117.4,14.9,117.4,14.9,117.4,15.1L117.4,15.1z"/>
			<path class="st0" d="M121.3,25.2L121.3,25.2c0.1,0.1,0.1,0.1,0.2,0.1c0.1,0.1,0.1,0.1,0.2,0.2c0.1,0.1,0.2,0.2,0.3,0.4
				c0.3,0.3,0.4,0.7,0.8,0.5c0.5-0.5-0.6-0.8-1-1.5C121.4,24.7,121.2,24.6,121.3,25.2z"/>
			<path class="st0" d="M41.8,53.5c0.4-0.1,0.2,0,0.5-0.3c0.5-0.7,0.6-0.9,0.3-1.5C41.7,51.8,41.8,52.6,41.8,53.5z"/>
		</g>
		<g>
			<path class="st0" d="M137.4,141.3c0.2-0.2,0.5-0.1,0.8-0.1c1.6,0.2,0.6,1-0.1,1.7c-0.2,0.2-0.3,0.4-0.4,0.5
				C136.8,144.1,137.1,141.6,137.4,141.3L137.4,141.3z M137,134.8L137,134.8c-0.4,0.4-0.5,0.5-0.3,0.8s0.4,0.2,0.7,0.5
				c0.4,0.1,1.2,0.6,1.7,0.8c0.4,0.2,1.3,0.6,1.7,0.9c-0.3,0.3-2.9-0.6-3.5-0.8c-0.9-0.3-2.8-0.7-3.4-1.1c-0.1-0.8,0.5-0.9,1.2-1.2
				c1.5-0.8,3.1-1.5,4.4-2.5c2.1-1.6,2.3-1.4,5.3,1.1l0.3,0.3c-0.6,0.4-3,0.6-3.9,0.6C140.2,134.4,137.4,134.9,137,134.8L137,134.8z
				 M137.4,129.7c0.4-0.2,6.9,0.5,6.9,0.5c-0.4,0.4-2.9,0.6-3.7,0.6c-0.6,0-1.3-0.1-1.8-0.3c-0.3-0.1-0.5-0.2-0.7-0.3
				C137.1,129.8,137.5,129.9,137.4,129.7L137.4,129.7z M220.8,127.5c-0.3,0.4-0.3,0.5,0.1,0.8c0.4-0.1,0.7,0,1.1,0
				c0,0.7,0,3.4-0.4,3.8c-0.6,0.4-2.3-1.9-2.6-2.3c-1.6-1.9-3-1.1-3.3-1.7c-0.1-0.6,0.2-0.8,0.2-1.5c0-0.6,0-1,0.1-1.6l1.3-9.1
				c0.4,0.2,2.8,4.5,3.2,5.3c0.9,1.7,2.2,4.6,0.6,6C220.8,127.6,221.1,127.4,220.8,127.5L220.8,127.5z M226.3,127.9
				c-0.6-0.4-0.4-2.1-0.3-2.7c0.1-1.1,0.5-1.6,0.8-2.6c0.3,0.2,0.3-0.3,0.2,0.6l-0.3,2C226.6,125.7,226.5,127.7,226.3,127.9z
				 M158.3,129.6c-0.1,1.2,1.5,1.8,0.9,3.2c-0.8,1.8-2.4,3.6-4.6,4c-1.2,0.2-3.4-0.2-4.1,0.1c0,0.7,1.1,0.8,1.4,1.4
				c-1.8,1.4-11.6-0.4-12.9-2.5c0.4-0.2,5.4-0.9,6.1-0.9c2,0,3.8,2.3,5,2.1c0-0.5-0.1-0.5-0.5-0.7l-5.1-3.7c-0.4-0.3-0.2,0-0.4-0.4
				l13-2.8c0-0.6-3.1-5.6-3.7-6.4c-0.3-0.6-0.6-1-0.9-1.6c-0.3-0.5-0.8-0.7,1-0.8c1.6-0.1,3.2-0.3,4.7-0.4c1.7-0.1,3-0.6,4.2,0.4
				c1.3,1.2,0.9,2.2,0.3,3.8c-0.5,1.2-0.9,2.4-1.5,3.6C160.7,129.6,160.7,129.6,158.3,129.6L158.3,129.6z M127.9,119.9
				c0.1,0.1,1.8,3.4,2.1,4c0.6,1.1,1.6,3.4,1.8,4.6c-1.6-0.1-9.2-2.1-10.4-3.2c0.1-0.4,4.6-6.7,5.3-7c1.1-0.6,0.3-0.9,0.8-1.5
				c0-0.4,0-0.1,0.2-0.5c0.5-0.9,1.7-2.9,2.6-3c0.6-0.1,4.9,0.4,5.7,0.5c2,0.3,2.5,1.4,3.2,3.1c0.3,0.7,2.1,3.8,2.1,4.2
				c-1.9,0.4-10.5-0.6-12.4-1.2l-0.7-0.1C127.7,119.7,127.9,119.4,127.9,119.9L127.9,119.9z M214.6,125.1c-0.2-0.3,0.1-1.3,0.2-1.8
				c0.2-1,0.8-5.6,1.1-5.9c0.4,0.5-0.2,3.6-0.3,4.1c-0.1,0.7-0.2,1.2-0.4,1.8C215,124.2,215,124.9,214.6,125.1L214.6,125.1z
				 M212.4,121.1c-0.3-0.3-0.1-0.9,0-1.6l0.5-4.1c0.1-0.4,0-0.5,0.4-0.5c0.4,0.8-0.3,3.7-0.5,4.7
				C212.7,120.3,212.7,120.8,212.4,121.1L212.4,121.1z M215.7,116.6c0.1-0.4,0.2-0.8,0.3-1.2c0.1-0.5,0-0.9,0.4-1
				c0,0.4,0.1,1.1,0,1.4C216.3,116.3,216.1,116.5,215.7,116.6L215.7,116.6z M128.5,112.5c-0.2,0.5-0.6,0.8-0.9,1.2l-1.4,1.7
				c-0.2,0.3-0.2,0.3-0.5,0.6c-0.2,0.2-0.3,0.3-0.5,0.6l-2.3,2.9c-0.3,0.5-0.6,0.8-0.9,1.2l-8.5,10.3c-1.2,1.4-1.8,1.8-3.6,2.6
				c-0.5,0.2-1,0.4-1.4,0.7c-2.7,1.2-4.2-1.1-5.8-2c-3.1-1.7-9.6-0.7-14.6-2c-1.1-0.3-2.1-0.6-3.1-1c-0.7-0.2-0.9-0.4-1.1-1
				c-0.6-1.5,1.8-1.8,3.8-2.4c4.8-1.4,11.6-3.4,15.8-5.1c1.9-0.8,3.9-1.6,6-2.3c2.1-0.7,4.2-1.3,6.3-2
				C119,115.5,125.3,112.6,128.5,112.5L128.5,112.5z M143.7,141.7c0.3-0.3,2.7-0.5,3.5-0.6c2.2-0.4,7.7-1.8,9.2-2.7
				c3.8-2.2,6.1-10.5,6.7-11.3c1.2-1.3,1.5-1.7,2.2-3.9c1.1-3.8,2.8-8.8,3.5-12.6c0.1-0.6,0.1-1.2,0.2-1.8c0-0.5-0.1-1.8,0.6-1.1
				c0.3,0.3,1.1,2.4,1.2,2.9c0.5,2.1-0.7,4.7-1.4,6.4c-1.9,5.4-7.3,17.1-10.1,22.1c-2.9,5.3-1.8,4.3-6.7,5.3
				c-3.3,0.6-2.8,0.1-6.1-1.3l-2.1-0.9c-0.1,0-0.3-0.1-0.4-0.1L143.7,141.7L143.7,141.7z M157.4,109.1c1.1-0.1,5.6,0,6.9,0
				c1,0.1,1.2,0,1.7,0.7c1.6,2.1,0.2,5.7-0.6,7.6c-0.5,1.3-1.7,2-2.9,0.8C161.3,117.1,157.3,109.5,157.4,109.1z M191.5,108.7
				c0.2-0.6,0.6-0.9,1-1.3c0.3-0.3,0.7-0.9,1.1-1c-0.1,0.5-0.4,0.7-0.9,1.3C192.3,108,192.2,108.4,191.5,108.7L191.5,108.7z
				 M208.5,108.4c0.3-0.8,2.6-3.1,3.8-3.2c-0.2,0.4,0,0.1-0.5,0.4C211,106.1,208.9,108.2,208.5,108.4z M204.7,108.2
				c0-0.3,4.4-3.8,5-4.2c0.3-0.2,0.6-0.4,0.9-0.7c0.4-0.3,0.5-0.6,1-0.7c-0.1,0.4,0.1,0.2-0.7,0.8l-1.8,1.4
				c-0.2,0.1-0.2,0.2-0.4,0.3C208.1,105.7,205.2,108.3,204.7,108.2L204.7,108.2z M191.3,112.3c0.2-0.3,0.3-0.4,0.4-0.9
				c0.1-0.4-0.1-0.7,0.1-1.1s1-1.1,1.5-1.2c0,0.8-0.5,1.2,0.5,1.1c0.3-0.6,3.5-3.6,4.2-4.1c0.9-0.8,2.5-1.8,3.6-2.7
				c0.4-0.3,0.9-0.8,1.4-0.8c-0.1,0.3-0.5,0.6-0.8,0.8l-10.5,9.3c-0.4,0.3-0.6,0.5-0.9,0.8c-0.5,0.5-1.3,1.4-1.9,1.6
				C189,114.6,190.8,112.6,191.3,112.3z M196.4,106.1c0-0.5,1.6-1.6,1.9-1.9c0.7-0.5,1.7-1.6,2.2-1.7c0,0.4-0.3,0.5-0.9,1
				C199.1,104.1,196.8,106,196.4,106.1z M196.7,103.8c-0.2,0.2-0.5,0.5-0.7,0.7c-0.3,0.3-0.4,0.5-0.8,0.6c0.1-0.6,1-1.1,1.4-1.5
				l0.6-0.6c0.2-0.2,0.4-0.4,0.7-0.4c0,0.3-0.3,0.4-0.4,0.6l-0.5,0.5C196.8,103.8,196.9,103.7,196.7,103.8L196.7,103.8z
				 M203.1,108.2c0.4-0.9,6.6-6.3,8.2-6.6c-0.2,0.3-0.7,0.7-1,0.9l-5.1,4.1C204.7,106.9,203.6,107.9,203.1,108.2z M205.2,102.9
				c0-0.4,0-0.4,0.3-0.6c0.5-0.4,1.2-1.4,1.6-1.4c0.1,0.4-0.1,0.4-0.3,0.6s-0.3,0.3-0.5,0.5C206.1,102.3,205.7,102.9,205.2,102.9z
				 M166.4,107.1c-0.6-0.1-0.8-0.7-1.3-1.7c-0.3-0.6-0.6-1.3-1-1.9c-0.7-1.4-2.2-3.6-0.6-3.9C165.8,99.4,168,103.6,166.4,107.1z
				 M200.7,108.1c-0.1,0.2,0,0.1-0.3,0.2c-0.2,0-0.4,0-0.6,0c-0.5,0-0.6,0.1-1.1,0.3c-0.4,0.4-2.3,1.9-2.7,2
				c0.1-0.5,1.8-1.8,2.3-2.3c0.2-0.2,0.2-0.2,0.4-0.3c0.2-0.3,0.1-0.2,0.4-0.5c0.3-0.3,1.1-1.1,1.4-1.1c-0.1,0.5-0.4,0.5-0.3,1.1
				c0.6,0.1,0.7-0.3,1.2-0.5c0.3-0.4,5-4,6.1-4.9c0.4-0.3,1.8-1.5,2.2-1.6c0,0.4,0,0.3-0.3,0.6l-1.8,1.4c-0.4,0.3-0.7,0.6-1.1,0.9
				L200.7,108.1L200.7,108.1z M202.7,101.2c0.1-0.5,0.4-0.6,1-1.1c0.4-0.3,0.7-0.8,1.2-0.8c-0.1,0.4-0.7,0.8-1,1
				C203.7,100.6,203.1,101.1,202.7,101.2L202.7,101.2z M168.8,99.5c0.8-0.3,4.6-0.7,5.6-0.5c0.9,0.2,1.6,0.6,2.2,1
				c0.8,0.5,1,1.1,1,2.3c-0.7-0.3-0.2-0.7-0.8-1c-0.4,0.6-0.4,2.5,0,3.2c0.5,1,4.8,6,4.9,6.5c-0.9,0.2-5.3,0.5-6.2,0.4
				c-1,0-1.4-1-1.8-1.6c-1.1-1.6-6.6-9.2-6.9-10c1,0.1,6.8,2.6,7.6,2.5C174.1,101.1,169.2,99.8,168.8,99.5z M197.4,100.4
				c-0.5-0.6-0.2-0.6,0.7-1.4c0.4-0.4,0.5-0.8,1-0.8c0.4,0.7-0.5,1.1-1,1.9C197.8,100.3,197.8,100.4,197.4,100.4z M198.6,102.3
				c0.1-0.6,3-2.8,3.6-3.2c0.3-0.2,0.9-1,1.3-0.8C203.4,98.6,199,102.3,198.6,102.3z M199.1,100.1c0-0.5,0.4-0.6,1-1.1
				c0.4-0.3,0.8-0.8,1.3-0.9c-0.2,0.6-0.4,0.5-1.1,1.1C200.1,99.5,199.6,100,199.1,100.1z M196.1,97c0-0.5,1-1.4,1.4-1.8
				c0.3-0.3,0.2-0.4,0.7-0.4c0,0.5-0.6,0.9-0.9,1.3C197,96.3,196.6,97,196.1,97L196.1,97z M205.9,96.8c0.1-0.5,0.7-0.9,1.3-1.4
				c0.5-0.4,1.1-1.1,1.6-1.2c-0.1,0.3-1.8,1.8-2,2C206.3,96.6,206.5,96.7,205.9,96.8z M200.7,97.3c0.1-0.6,1.2-1.3,1.8-1.8
				c0.5-0.4,1.6-1.4,2-1.4c0,0.4-0.5,0.6-0.7,0.8c-0.4,0.3-0.6,0.5-1,0.8C202.4,96.1,201.2,97.2,200.7,97.3z M76.9,93.6
				c0.6,0,1.6,0.6,2.1,0.9c0.4,0.2,1.8,0.7,2.1,1c0,0.4-0.3,1.2-0.8,1.2c-0.5,0-1.9-1.5-2.3-1.9C77.2,94.1,76.9,94.2,76.9,93.6z
				 M204.4,96.3c0.1-0.5,1.9-1.9,2.4-2.4c0.1-0.2,0.3-0.3,0.4-0.4c0.5-0.5,0.4-0.1,0.5-0.1c0,0,0.4,0-0.2,0.5
				c-0.2,0.2-0.2,0.2-0.4,0.4C206.6,94.6,204.7,96.2,204.4,96.3L204.4,96.3z M51.8,90.4c0.3-0.2,0.2,0,0.3-0.5l0.1-1.7
				c0-0.5,0.1-2.2,0.2-2.5c0.4,0.3,0.2,2.2,0.2,2.9c0,1,0.1,2,0.1,3c-0.4,0.3-0.5,0.1-1.1,1c-0.4,0.6-0.5,0.9-1.1,1.1
				c0.1-1,0.7-0.8,0.7-2.5c0-0.9-0.2-2.2,0.2-2.8c0.1,0.2,0.1,0.8,0.2,1.1C51.6,90.6,51.5,90.2,51.8,90.4z M122.3,89.9
				c0.3,0.1,0.3,0.2,0.6,0.5l1.9,1.8c2.7,2.3,4.8,5.3,6.5,8.1c1.2,1.9,2.5,4.2,3.8,6c0.6,0.9,3.9,5.2,4,5.9
				c-1.1,0.1-6.9-0.9-8.4-1.2c-0.9-0.1-3.3-0.5-4.1-0.8c-1-0.4-1.2-2.3-1.4-3.6C124.9,104.3,122.2,90.8,122.3,89.9z M200.8,93
				c0-0.5,0.3-0.5,0.7-0.8c0.7-0.5,2-1.8,2.4-1.8c0,0.3-0.4,0.6-0.6,0.7C202.7,91.6,201.2,92.9,200.8,93z M198.2,93.4
				c0.3-1,2.5-2.9,3.5-3.1c-0.2,0.3-0.2,0.3-0.4,0.5C200.4,91.5,198.6,93.3,198.2,93.4z M205.4,92.4c0.1-0.5,1-1,1.6-1.5
				c0.4-0.3,1.3-1.2,1.7-1C208.7,90.2,205.9,92.3,205.4,92.4z M146.6,97.7h-0.4c0,0-0.1,0-0.1,0.1c0,0.1,0,0.3,0,0.3
				c0.2,0.3,4.5,12.4,4.5,12.9c-1.3,0.7-1.8,0.1-4.1-0.7c-1.3-0.4-2.7-1-4-1.5c-2.7-1-2-1.3-2.6-5.5c-0.1-0.7-0.4-2,0.4-2.1
				c0.1-0.1,0.1-0.1,0.2-0.3c0,0-0.1-0.1-0.1,0l-0.4-0.3c0.1-0.5,2-2.9,2.4-3.5c0.9-1.2,1.8-2,2.7-3.2c0.4-0.6,0.7-1.3,1.1-1.9
				c0.4-0.5,1-1.1,1.5-1.4c1.1-0.7,3.1-1.2,4.5-1.4c2.4-0.7,5,0.3,5.2,1.4c-0.6,0.3-2.2-0.5-2.9-0.5c0,0.5,2.4,7.5,2.9,9
				c0.3,1,1.2,2.7,0.3,2.9C157.1,102,146.8,97.8,146.6,97.7z M124,89.3c0.5-0.1,3.5,2.2,4.1,2.5c1.4,1,2.6,1.8,4,2.7
				c0.7,0.5,1.3,0.9,2,1.3c2.8,1.5,3.5,1.7,3.8,5.4c0,0.6,0,0.5-0.1,0.8c-0.1-0.1,0,0-0.1-0.2l-0.3-1c-0.1-0.5-0.1-1-0.2-1.5
				c-0.2-0.8-0.8-1.5-1.5-1.9c-1.6-0.8-4.8-0.7-8.6-4.6c-0.6-0.6-1.1-1.1-1.6-1.8C124.9,90.2,124,89.7,124,89.3L124,89.3z
				 M205.7,89.5c0.1-0.5,0.6-0.7,0.9-1.1c0.3-0.3,0.6-0.8,1.2-0.8C207.7,88,206.1,89.5,205.7,89.5z M201.5,88.9
				c0.2-0.5,0.6-0.7,1.1-1c0.4-0.3,0.8-0.8,1.3-0.8C203.8,87.6,201.9,88.8,201.5,88.9z M199,89.7c0.1-0.8,0.8-1.4,1.3-1.8
				c0.4-0.4,1.4-1.1,1.9-1.2c-0.2,0.3-0.9,1-1.2,1.2C200.4,88.4,199.5,89,199,89.7L199,89.7z M178.7,85.2
				c-0.2,1.8-1.5,11.9-2.2,12.5c-0.4,0.3-2.2-0.2-3.1-0.2c-6.9,0.1-6.9,2.8-1.7-8.4c0.4-0.8,0.8-1.8,1.2-2.5
				c0.7-1.2,1.5-0.5,2.3-1.4c0.8-0.8,1.7-3.6,2.5-4.9c1.3-2.3,1,1.1,1,1.1C178.8,82.8,178.8,84,178.7,85.2L178.7,85.2z M210.7,86.2
				c-0.3-1.2,0-0.9,1.2-0.9c0.7,0,1.5,0,2.2,0c5.3-0.1,4-1.3,4.6-2c1.1-1.4,4.3-0.3,4.5,0.9c-0.2,0.3-1.8,1.5-2.2,1.6
				c-0.7,0.2-2.6,0.2-3.4,0.3C216,86,211.5,86.5,210.7,86.2z M90.1,85.4c-0.4-0.2-0.5-0.4-0.3-1.1c0.1-0.4,0.2-0.9,0.3-1.2
				c0.3,0.1,0.4,0.2,0.6,0.4C90.8,84.1,90.6,85.1,90.1,85.4z M204.8,85c0.1-0.4,2.5-1.9,3-1.8C207.7,83.7,205.1,85,204.8,85z
				 M200.1,85.1c0.2-0.6,0.7-0.8,1.1-1.2c0.5-0.5,0.9-0.9,1.4-0.9c-0.1,0.5-0.5,0.6-1.1,1.2C201,84.7,200.6,85.1,200.1,85.1z
				 M50,81.2c1.2,0.3,1.6,4.1,1.1,5c-0.4,0-0.3,0.1-0.4-0.4L50,81.2z M149.2,88c0.1-0.4,1.9-3,2.3-3.6c0.8-1.2,1.5-2.3,2.3-3.4
				c0.3-0.5,4.2-6.5,4.6-6.7c0.5,0.4,0.7,1.7,0.8,2.4c0.3,2.3-0.4,3.1-1.3,4.8c-0.3,0.7-0.6,1.4-0.9,2.1c-0.5,1.3-1.2,3.6-2.2,3.9
				C154.2,87.5,149.7,88,149.2,88z M51.1,78.8c0.5,0.9,1.1,2.4,0.6,3.4c-0.3-0.1-0.2,0-0.3-0.5c-0.2-0.9-1.1-3.5-1-3.7
				C51,78,50.6,77.9,51.1,78.8z M201.8,79.1c0-0.4,2-1.7,2.3-1.5c-0.1,0.3-0.1,0.3-0.5,0.5C203.2,78.4,202.3,79.1,201.8,79.1z
				 M200.8,76.3c0-0.5,0.6-0.8,1.2-1.4c0.2-0.2,1.1-1,1.4-1.1c0.1,0.5-0.2,0.5-0.5,0.8C202.5,74.9,201.2,76.2,200.8,76.3z
				 M40.3,72.7c0.3-0.2,0.8-0.7,1.3-0.7c0.1,0.6-0.4,5.4-0.4,6.5c-0.1,1.1,0,1.8-0.4,2c-0.3-0.2-0.2-0.3-0.2-0.8
				C40.5,78.4,40.5,74,40.3,72.7z M201.3,72.8c0.1-0.5,2-2.3,2.4-2.4c0,0.4-0.3,0.5-0.5,0.7C202.8,71.5,201.8,72.6,201.3,72.8z
				 M48.1,70.7c-0.2-0.5-0.3-0.5-0.2-1.1c0.1-1.1,0.1-0.9,0.3-1c0.3,0.1,0.2,0,0.3,0.5l0.5,4.2c0.2,1.5,0.1,2.5,0,4
				c0,0.7,0,0.8-0.3,1C48.5,77.4,48.4,71.6,48.1,70.7z M210.7,67.7c0.4,0.3,0.4,0.5,0.6,1c0.5,1.6,1.8,6.5,2.2,7.3
				c0.9,1.5,5.1,4.2,5.7,5.4c0,0.5,0,0-0.9,0.7c-1.6,1.2-0.8,2-2.7,2.1c-1.5,0-5.1,0.4-6.1-0.4c-0.6-0.4-2.9-4.7-3.7-6
				c-2.2-3.6,0-1.6-0.2-4c-0.1-0.7-0.2-1.4-0.4-2c-0.1-0.6-0.3-1.3-0.4-1.9c-0.4-1.9-0.4-0.9-0.8-1.6c0.9-1.5,2.3,0.6,3.3,0.8
				c1,0.2,1.7-0.7,2.5-1.3C210,67.9,210.9,67.2,210.7,67.7z M198.6,66.4c0,0.2-0.9,1.9-1.4,2.1c-0.2-0.6,0.4-0.6,0.5-1.4
				c-0.5-0.4-0.5-0.2-0.6-0.6L198.6,66.4L198.6,66.4z M204.1,66.8c1.2-1.6,2.3-0.2,2.8,0.1c1.9,0.9,2.1-1,3.1-0.8
				c-0.1,0.3-0.8,1.1-0.9,1.2c-1.3,1.1-2.4,0.2-3.3-0.1c-0.3-0.1-0.5-0.1-0.9-0.2L204.1,66.8C204.3,66.8,204.2,66.8,204.1,66.8
				C204.2,66.8,204.2,66.8,204.1,66.8L204.1,66.8z M170.4,68.6c-0.2,0.8-1.3,1-2,1.9c-0.6,0.7-0.8,1.8-1.1,2.8
				c-0.4,1.5-1.9,4.9-1.7,6.1c1.4,0.1,1.5-2.3,2-3.6c0.6-1.4,0.8-2.9,1.4-4.2c0.5-1.1,1.7-1.1,2.7-2.9c0.9-1.7,1-3.2,1.7-3.8
				c-0.1,1.3-0.8,3.4-1.3,4.4c-0.2,0.4-0.4,0.6-0.6,0.9c-0.2,0.3-0.3,0.5-0.6,0.8s-0.5,0.3-0.8,0.6c-1.5,1.6-3.6,8.7-3.1,9.1
				c0.5,0.3,0.5,0,0.7-0.4l1.2-3c0.4-1.2,0.8-2.9,1.4-4.1c0.3-0.7,0.8-0.9,1.3-1.4c2.4-2.4,2.1-4.7,2.7-5.5c0.6,0.2,0.8,0.8,1.1,1.4
				c0.3,0.5,0.7,1,1,1.5c2.1,3.2,0.5,5.4-0.4,7.7c-1.5,3.7-1.1,2.4-2.8,4.6c-1.9,2.3-3.1,5.4-4.3,8.1c-0.5,1.1-0.9,2.5-1.4,3.5
				l-0.1,0.8c0.3,0.1,0.4,0,0.6-0.1c0-0.2,4-8.6,4.2-8.8c0.1-0.6,0.4-1.1,0.7-1.6c0.4-0.7,0.5-0.6,1.1-0.9c1.6-0.9,2.2-3.5,2.9-5.1
				c0.2-0.5,1-2.5,1.3-2.7c0.3,0.3,0.2,0.5,0.2,1c-0.2,2.4-0.6,3-1.7,5.2c-0.6,1.2-1.5,3.4-2.4,3.6c-1,0.2-0.7,0.1-1.4,0.5l-2.9,5.8
				c-2.8,5.9-3,7.3-5.5,4.8c-1.4-1.5-3-2.9-4.3-4.3c-0.7-0.8-2.1-1.7-2.1-2.2c0.9,0,4.6,3.4,5.5,4.4c0.3,0.3,0.5,0.4,0.6,0.7
				l0.3-0.1c-0.1-0.6-1-1.5-1.5-1.9c-1-0.9-4.8-4.2-5.2-5.1c-0.5-1-0.5-1.8,0-2.8c0.9-2.1,2.5-5.3,3-7.1c0.6-2.3-0.3-4.1,0.2-6.2
				c0.5-2,1.6-3.1,2.5-4.3c0.9-1.2,1.8-2.7,2.7-4.1c0.7-1.2,1.3-2,2.2-2.9c0.5-0.5,0.3-0.7,0.6-1.1c0.9,0.2,1.4,1.2,1.9,2
				c2,3.3,2.1,2.1,0.9,5.4C171.4,66.7,171,68.3,170.4,68.6L170.4,68.6z M129.8,68.1c-0.1-0.1,0,0.1-0.1-0.2l1-6l0.1-0.4
				c0.2-0.5,0-0.2,0.3-0.4C131.2,63,130.7,66.8,129.8,68.1z M197,58.1c0.1-0.3,1-2,1.4-2.2c0.3,0.8,0.8,1.4,0.9,2.4
				c0.1,0.5,0,1-0.1,1.5c-0.2,0.5-0.3,0.8-0.8,0.9c0.1-0.6,0.2-0.4,0.3-0.9l-0.9-0.2c0.1-0.7,1.1-1.8,0.7-2.3
				C198,56.9,197.9,57.8,197,58.1L197,58.1z M209,65.4c-0.2,0.6-1.4,0.7-2,0.4c-0.8-0.4-0.6-0.9-2-0.7c-0.4,0.2-0.7,0.4-1.3,0.3
				c-0.5-0.3-2-8.5-1.8-9c0.7,0.1,1.8,1.5,2.2,2l3.9,4.3c0.3,0.4,0.6,0.7,0.8,1.3C209.2,64.2,209.5,65.1,209,65.4L209,65.4z
				 M38.7,56.9c0.1,0.1,0.8,1.1,1,1.4l1,1.5c1,2.1,2.4,1.7,2.7,2.3c0.1,0.9-0.5,0.7-0.1,1.6c0.2,0.5,0.4,0.9,0.7,1.4
				c0.5,1.2,1.2,1.1,1.7,2.5c0.5,1.2,0.7,6.1,0.6,7.8c-0.1,1.5-0.4,2.3,0.3,3.6c1.3,2.3,1.8,1,2.4,6c0.1,0.8,0.6,3,0.1,3.6
				c-0.4-0.1-0.2,0-0.5-1c-1-2.7-0.9-3.6-2-5.9c-0.6-1.3-2-6.4-2-7.4c0.1-0.9,0.8-1.9,0.1-2.4c-0.7-0.5-2,0-1.8-1.3
				c0.1-0.7,0.1-0.9-0.6-0.6c0,0.3-0.6,0.8-0.8,1.2c-0.2,0.4,0,0.3-0.6,0.5c-0.3,0.1-0.6,0.1-0.9,0.2c0-0.7,0.4-1.4,0.1-1.9
				c-0.3-0.6-0.4-0.7-0.6-1.6c-0.2-1.3-0.1-2.4-0.6-3.7c-0.3-0.7-1-2.5-1-3.3c0-1.6-0.1-0.6-0.5-1.6c-0.2-0.4-0.2-1.4,0.1-1.7v-0.4
				c-0.9-0.4-1.1-0.9-0.9-2.4c0.3-0.2,1.7-0.7,2.1-0.7c0.2,0.4,0.9,1.7,0.8,2C39.1,56.6,38.7,56.4,38.7,56.9z M189.7,48.2
				c0.3,0.2,0.1,0,0.4,0.4c1.1,1.6,2.8,3.9,2.2,6.3c-0.3,1.3-0.4,2.4-1.3,3.2c-0.9,0.9-2.2,0.5-3-0.3c-2.3-2.2-2.1-4.1-2.4-6.3
				c-0.3-1.6,0.2-2.4,1.1-3.1C187.7,47.8,189.3,47.2,189.7,48.2z M150.8,50.2c0-0.2,0.9-2.1,1.3-2.2l0.6,1.1
				C152.4,49.4,151.2,50,150.8,50.2L150.8,50.2z M139.1,60.5c-0.2,0.4-0.1,0.3-0.4,0.5c-0.2-0.4-0.1-0.2-0.1-0.6
				c0.2-1.4,0.5-2.7,0.7-4c0.3-1.4,0.6-2.6,0.8-4c0.3-1.9,0.6-1.9,2.1-2.7c0.5-0.2,2.8-1.5,3.2-1.6c-0.4,2-4.5,9.3-5.8,11.6
				L139.1,60.5C139.1,60.4,139.1,60.5,139.1,60.5z M148.8,50.7c0.1-0.5,2-4.1,2.5-5.1c0.2-0.4,0.1-0.5,0.6-0.5
				c0,0.5-1.7,3.5-2.1,4.4C149.2,50.3,149.3,50.6,148.8,50.7z M194.3,46.2c0.2-0.4,0.2-0.6,0.4-1.1c0.2-0.6,0.4-0.7,1-0.6
				c-0.3,0.5,0,0-0.2,0.3s-0.2,0-0.3,0.4c0.9,0.6,1.6-1.2,2.8,0.6c1.1,1.5-0.1,1.9-0.2,2.8c0.4,0.4,1.5,0.7,1.8,1.1l-0.4,0.3
				c-0.2,0.3-0.1,0-0.1,0.4c0,0.2,0.9,1.7-0.5,2.2c0.1-0.6,0.5-0.9,0.3-1.5c-0.5,0.1-0.6,0.3-0.8,0.7c-0.5,0.7-0.5,0.7-0.9,0.8
				c0.2-0.9,1-1.8,0.9-2.6c-0.7,0.1-1.1,0.9-1.9,0.6c-0.3-0.1-1.3-0.8-1.5-1.1c-0.1-0.9,1.2-2.1,1.2-3.1L194.3,46.2L194.3,46.2z
				 M145.4,52.2c0.1-1.1,1.3-3.8,1.7-4.7c0.3-0.6,1.9-4,2.2-4.2c0.6,0.1,0.8,0.4,0.5,1l-1.8,3.5C147.2,49.3,146.5,52,145.4,52.2z
				 M154.8,42.5c0.3,0.1,3.5,2.9,3.6,3.1c-0.6,0.3-1.9-0.6-2.3-1C155.6,44.2,154.9,43.3,154.8,42.5L154.8,42.5z M218.9,44
				c-0.8,0-4.7-1.3-5-1.8c0.1-0.1,0-0.3,0.7-0.1c2.2,0.5,2.2,0.6,3.8,1.5C218.9,43.8,218.8,43.7,218.9,44L218.9,44z M152.5,40.3
				c0.5,0,1.9,1.6,1.9,1.8C153.5,42.1,152.6,40.7,152.5,40.3z M171.4,39.8c-0.7-1.1-0.5-0.4-0.7-1.1c1.3-0.4,1,0.5,1.4,1.2
				c0.3,0.5,0.9,1,1.6,1.2c0.9,0.2,1.5-0.4,2-0.8c0.9-0.7,0.7-0.4,1.1-1.6c0.5,0,0.7,0.3,1.2,0.4c-0.1,1.7-2.1,2.3-3.9,2.6
				C172.4,42,172.1,41,171.4,39.8L171.4,39.8z M219.2,38.4c0.2-0.8,0.9-0.8,1.7-0.5c0.3,0.1,0.5,0.3,0.8,0.5
				c0.9,0.5,0.6,0.1,0.8,0.6C222.5,39,219.2,38.4,219.2,38.4z M171.8,36.7c0.7-0.4,1.4-0.2,2.2-0.3c0.9-0.1,0.2-0.4,1.8,0
				c0.5,0.1,1.4,0.3,1.8,0.5c0.7,0.3,0.6,1.2-0.6,0.8c-1.5-0.6-1.3,1.7-3,1.3C173.1,38.9,171.8,37.7,171.8,36.7z M128.4,38.4
				c-0.3-0.7-0.1-1.9,0.9-1.8c0,0.5-0.2,0.7-0.3,1.1C128.8,38.1,128.8,38.3,128.4,38.4z M212.3,36.5c0.2,0.3,0.4,0.3,0.5,0.8
				c-0.5-0.2-0.4-0.2-0.8-0.5c-0.4-0.3-0.5-0.1-0.4-0.7C212.1,36,211.9,36.1,212.3,36.5L212.3,36.5z M151,37.6
				c0.7,0.9,1.6,1.8,1.4,2.4c-0.4,0-0.4-0.2-0.6-0.5l-3.1-3.8c0.1-0.3,0.3-0.3,0.5-0.4C149.7,35.5,150.7,37.1,151,37.6L151,37.6z
				 M135.2,47.2c-0.1-0.1-0.2,0.2-0.1-0.4l3.3-10.2c0.3-1,0.2-1.2,0.6-1.4c0.1,0.2,0.1-0.2,0,0.4l-2.8,8.7
				C136.1,44.7,135.6,46.9,135.2,47.2z M198.8,35.4c0.8,0.4,0.9,0.3,1,0.8c-0.5,0-2.2-0.4-2.3-1.4C198,34.8,198.5,35.2,198.8,35.4
				L198.8,35.4z M127,48.8c-0.5-1-0.7-2.1-1.1-3.1c-0.4-1.2-1.2-2.1-1.1-3.7c0.1-1.7,1.7-6,2.3-7.2c0.7,0,0.7,0.1,0.4,0.7
				c-0.5,1.2-2.3,6.1-2.3,6.6c0.9,0.2,0.8-0.5,1.4-0.6c0.6,0.6,1.3,2.4,1.3,3.6c0.1,1.6-0.6,4.3-0.7,4.1c0,0,0,0-0.1,0.1L127,48.8
				L127,48.8z M230.2,34.5c0.6-0.1,3.6,1.5,3.7,1.5C232.9,36.8,230.2,36.2,230.2,34.5z M124.2,40c-0.1-1.2,1.1-4.5,1.7-5.7
				c0.3-0.6,0.3-0.5,0.5-0.5l-1.1,3.2C125.1,37.8,124.6,39.6,124.2,40z M156.5,33.8h1.5c-0.1,0.2-0.9,1.1-1,1.2L156.5,33.8z
				 M131.8,51.3c-0.4,1.3-0.2,2.2-0.2,3.5c0,1.2-0.1,2.4-0.3,3.6l-0.1-0.3c-0.2-0.6,0-1.6-0.3-2c-0.3,0.1-0.3,0.2-0.4,0.4
				c0.1,0.4,0,1.3-0.2,1.7c-0.4-0.3-1.7-4-2-4.8c-0.9-3.1-0.6-2.6,0.1-3.9c0.8-1.6,1.5-5.3,1.1-6.9c-0.2-1-0.7-1.5-0.4-2.8
				c0.1-0.7,0.6-1.8,1.1-2.3l2.6,2c0.7,0.5,2.2,2,2.6,1.6c0.5-0.6-1-4.4-1.3-5.2c-0.4-1.2-1.7-4.1-0.2-5.1c0.5,0.3,3.1,2.5,3.4,2.8
				c1,1.1-0.2,3.5-0.6,4.8c-0.3,1-2.2,6.2-2.4,7c-0.3,1.4,0.2,1.7,0.2,2.7C134.2,48.7,132.5,49.2,131.8,51.3z M208.9,33.7
				c-0.2-0.2-0.3-0.4-0.6-0.5c-0.3-0.2-0.4-0.1-0.3-0.5c0.2-0.1-0.2-0.1,0.2,0l0.4,0.3c0.6,0.7,1.4,1.1,1.4,1.5
				C209.6,34.5,209.2,33.9,208.9,33.7L208.9,33.7z M226.3,38.9c-1.9,0.1-12.6-5.1-13.1-6.1L226.3,38.9z M121.2,27.8
				c0.9,1.1,1.7,2.1,2.5,3.1c1.7,2,1.4,1.7,0.8,4c-1.2,4.3-2.7,3.1-3.7,3.4c-0.3,0.1-0.6,0.4-0.8,0.5c-1.3,0.8-1.5-0.1-1.6-0.8
				c-0.7-2.8-2.1-6.7-1.4-9.5c0.2-0.7,1.3-3.6,1.7-3.9C118.7,24.6,121.2,27.8,121.2,27.8z M133.9,38.9c-0.8,0-1.3-1.1-1.6-1.8
				c-1.5-3.1-1.3-2.2-2.4-1.9c0.3-2,1.9-0.7,0.2-3.7c-0.1-0.2-1-1.6-0.1-1.4s1.6,2.7,1.8,3.4l1.4,3.6
				C133.4,37.7,133.8,38.5,133.9,38.9L133.9,38.9z M186.7,33.3L186.7,33.3c-0.1,0-0.1,0-0.2,0.1c-0.5,0.1-3.7-0.5-4.2-0.6
				c-2.2-0.4-11-2.2-11.8-3.4c0.8-1.5,2.7,0,3.7,0.4c1.2,0.6,2.6,0.9,4.1,1.3C179.2,31.4,186.6,33.1,186.7,33.3L186.7,33.3
				L186.7,33.3z M154.9,35.9c-0.3-0.1-0.7-1.1-1-1.7c-1-1.9-1-2.5-0.2-4.1c0.5-0.9,0.4-1.2,1.8-1.1C155.3,30.3,155,34.7,154.9,35.9z
				 M167.2,30.7c-0.7,0.5-2.3-0.2-3-0.5c-1.2-0.5-0.9-0.4-1.8-1c-0.4-0.3-0.3-0.1-0.4-0.5l2.2,0.1c0.4,0.6,0.3,0.9,1.1,1.3
				C165.8,30.2,166.8,30.4,167.2,30.7L167.2,30.7z M189.4,28.5c0.3-0.1,1.7-0.3,2-0.3c0.8,0,1.1,0.5,1.5,0.8
				c0.7,0.5,7.3,5.6,7.5,6.1c-0.1,0.1,0,0.1-0.2,0.1c-0.3,0-8.7-5.3-9.6-5.8C190,28.9,189.5,28.8,189.4,28.5L189.4,28.5z M157.9,29
				c-0.7-0.4-1.4-0.6-1.5-1c0.4-0.3,0.5-0.1,0.9,0.1c0.7,0.4,1.6,0.8,2.4,1.1l6.4,2.5c1.9,0.7,1.9,0.1,3.5-0.4
				c1.1-0.3,2.7,0.4,3.7,0.7l7.3,1.7c2.6,0.6,3.5,0.3,4.1,0.4c-0.1,0.5-0.7,0.5-1.4,0.6c-1.2,0.2-11.8-0.4-13.4-0.4
				c-1.2,0-2.4,0.4-3.8,0.4c-2.4,0.1-2.2-0.8-3-1c-1.5-0.3-1.7-0.5-3.1-1c-0.9-0.3-2.4-0.5-3.3-0.7c-0.1-0.5,0.3-1.7,0.4-2.2
				c0.3,0.2,0.1-0.1,0.3,0.3c0.2,0.4,0.4,0.9,0.7,1.2c0.5-0.2,0.5-0.9,1.5-0.4c0.6,0.3,0.5,0.6,0.7,1.3c1.6,0,1-0.5,2.9,0.1
				c2.3,0.8,5.2,2.1,8,1.5c-0.1-0.3,0.1-0.2-0.5-0.3c-0.1,0-0.4-0.1-0.5-0.1C165.8,32.5,161.7,31,157.9,29z M141.5,33.6
				c0.1-0.2,0.1-0.3,0.1-0.5c-1-0.3-1.1,0.5-2.6-0.6c-1.8-1.4-3.5-3.3-5.1-4.4c-0.4-0.2-0.3-0.1-0.5-0.5c0.9-0.4,0.8-0.8,1.8-0.2
				c1.5,0.9,3.2,1.7,4.8,2.7c0.9,0.6,1.2-0.1,2,0.6c0.6,0.4,2.9,3.2,3.6,3.9l6.9,8c0.4,0.3,1,0.8,1.4,1.1c0.3,0.2,0.5,0.4,0.7,0.6
				c0.3,0.2,0.5,0.3,0.6,0.6c-0.4,0.3-1.4-0.1-1.7-0.6c-0.5-0.9-0.5-0.6-1.6-0.6c-0.5-0.4-0.3-0.8-1.1-1.4l-8-6.1
				c-0.7-0.7-0.3-0.8-0.4-1.7l-1.5-0.5C140.9,33.8,141.1,33.7,141.5,33.6z M176.5,29.4c-0.7-0.3-1.3-0.5-2-0.8
				c-0.3-0.1-0.6-0.3-1-0.4c-0.5-0.2-0.6-0.2-0.7-0.6c2-0.8,1.8,0.4,3.8,1.3l2.9,1.2c0.4,0.2,0.7,0.2,0.8,0.6
				C179.9,30.9,177.1,29.6,176.5,29.4L176.5,29.4z M199.6,31l-0.1,0.6l0.6,0.1c0,0,0.1,0.1,0.1,0h0.1c0.5-0.1,4.2,0.7,5,0.9
				c1,0.2,1.2,0.6,1.8,1.1l6.1,5.6c1.3,1.2,0.6,0.5,1.7,1.2c-0.1,0.5,0.1,0-0.6,0.6c-0.3,0.3-0.4,0.4-0.8,0.5
				c-0.7,0.3-1.6,0.1-2.2-0.1c-3.6-1.3-7-2.9-10.6-4.2c0.2-0.5,0.7-1.1,1.4-0.9c0.8,0.2,1.7,0.2,2.1-0.5c-0.4,0-0.8,0.1-1-0.2
				c-0.6,0-1.1-0.7-1.4-1.1c-0.5-0.6-0.7-0.6-1.4-1.1c-2.2-1.4-3.7-2.7-5.6-4.3c-1.7-1.4-1.3-1.3-0.9-2.4c0.1-0.3,0.1-0.7,0.2-1
				c0.3,0,1.1,0.7,1.3,0.8c0.5,0.3,0.8,0.6,1.3,0.8c-0.3,0.8-0.9,0.3-1.1,1c1.6,0.6,0.9-1.2,2.7,0.4C198.5,29.2,200.5,30.4,199.6,31
				L199.6,31z M149,30.3c0-0.7,0.4-1.9,0.5-2.5c0.1-0.4,0.4-2.5,0.4-2.5c0.6,0.3,1,1.6,0.5,2.8C149.8,29.2,149.8,30.1,149,30.3z
				 M156,26.2l0.4-0.1c0,0,5.2,2.1,5.3,2.2c-0.4,0.2-2.5-0.6-3-0.8s-0.9-0.4-1.4-0.6C157,26.8,156.2,26.5,156,26.2z M172.1,25.8
				c-1.2-0.6-1-0.3-1.1-0.8c0.4-0.2,2.2,0.9,2.3,1.2C173,26.4,172.5,26,172.1,25.8z M156,40.2c0.3,0.6,1.6,2.7,1.7,3.2
				c-0.7-0.3-1.3-1.3-1.7-2c-1.4-2.6-3.2-3.2-4.6-6c-1.2-2.5-0.8-1.3-0.8-2.6c0-0.5-0.2-1,0-1.6c0.2-0.8,1.4-2.1,1.3-4.1
				c-0.1-1.7-1-1.6-1-2.6c0.5,0.2,0.1-0.1,0.4,0.3c0,0,0.2,0.2,0.2,0.3c0.8,1.2,1.3,3,0.6,4.3c-1,1.9-1.4,0.3-0.2,3
				C153.3,35.6,154.2,37.2,156,40.2z M188.9,24.5c0.6,0,0.8,0.6,1.8,0.6c1,0,1.1-0.5,1.6-1c0.2,0.3,0.3,1,0.3,1.4
				c-0.5,0.3-1.7,0.5-2.4,0.2C189.8,25.6,189.1,24.8,188.9,24.5z M163.5,25.3c-0.2-0.1-0.4-0.2-0.5-0.3c-0.3-0.2-0.9-0.3-1.1-0.7
				c0.1-0.5,0.3-0.4,0.6-0.2c0.4,0.3,1.6,0.8,1.8,1.2C164.2,25.4,164.3,25.7,163.5,25.3z M202.8,29.9c1,0,1.3-0.1,2.1,0.2
				c0.4,0.2,1.3,0.6,1.3,1.1c-1.2,0.6-3.2,0.1-4.2-0.4c-1.1-0.6-1.7-1.4-2.7-2.2c-0.8-0.6-1.9-1.5-2.9-2.2c-0.5-0.4-2.5-1.5-1.9-2.8
				c0.4,0.1,4.9,4,5.3,4.4C201,28.9,201.8,29.9,202.8,29.9z M157.5,23.8c-0.3-0.2-0.7-0.2-0.8-0.6c0.9-0.6,2.5,0.7,3.9,1.4
				c1.2,0.6,2.5,1.1,3.8,1.8c0.6,0.3,1.4,1,1.8,1c1.3,0.3,3.8-0.9,4.5-0.9c0.7-0.1,1.6,0.3,1.9,0.8l-2.4,0.5
				c-3.5,0.6-3.7,0.7-6.5-0.7C161.9,26.4,159.2,24.8,157.5,23.8L157.5,23.8z M190.1,23.7c-0.5-0.3-0.6-0.4-0.2-1
				c0.3-0.5,0.3-0.6,0.9-0.5c0.4,0,2.4,0.2,2.6,0.4c-0.2,0.5-0.8,0.4-1.4,0.4c-0.5,0-1.2-0.1-1.7,0v0.5v0.1L190.1,23.7L190.1,23.7z
				 M187.9,25.5c0.8,0.6,1.3,0.8,1.3,1.2c-0.5,0.1-0.5-0.2-0.9-0.4l-3.8-2.9c-1.5-1.1-1.3-0.8-1.4-1.4C184,22.1,187.3,25,187.9,25.5
				z M186.4,31.7c0.3-1.1,1.4-0.1,2,0.2c0.5,0.3,1.2,0.4,1.8,0.2c0.4-0.1,0.3-0.1,0.4-0.3c-0.3-0.3-0.8-0.3-1.5-0.5
				c-0.6-0.2-1.2-0.2-1.5-0.5c0.2-0.8,0.7-0.1,1-0.8l-5.7-0.5c0.2,0.5,0,0.1,0.3,0.3c0.2,0.2,0.1,0,0.2,0.3c-0.7,0-1.4,0-1.9-0.4
				c-0.9-0.6,0-0.5-1.4-0.7c-2.2-0.3-6.1-3.5-8-4.8c-1.6-1.1-1.7-0.4-2.9,0.3c-3.8,2.2-6.2-2.7-8.7-1.8c-0.1,0-0.4,0.1-0.4,0.1
				l-0.4-0.1c0.5-0.5,1.6-0.7,2.4-0.6c2.1,0.3,3.4,2.5,6.6,1.6v-0.6c-1-0.6-1.5,0.3-2.8-0.2c-0.4-0.2-0.8-0.4-1.2-0.6
				c-0.6-0.2-1,0-1-0.7c0.6-0.4,0.7,0.2,1.3,0.2c0-0.5-0.3-0.5-0.2-1c2-0.2,3.2-0.4,5.1-0.9c5.2-1.2,12,4.6,16.1,7.2
				c1.1,0.7,2.4,1.5,3.6,2.3c1.2,0.9,2.2,1.7,3.5,2.5l3.6,2.2c-2,0-4.9-2.8-6.7-1.6c0.1,0.7,0.2,0,0.4,0.8
				C190.4,33.4,186.4,31.7,186.4,31.7z M174.8,18.9c0.5-0.2,0.9,0,1.4-0.1c0.6-0.1,0.4-0.3,1-0.4c2.3-0.6,2.9,0.4,3.5,0.5
				c3.7,1,2.5,0.4,3.3,0.1c0.2,0.4-0.2,1.1-0.2,1.7c-0.7,0-0.2-0.2-1.3-1c-0.8-0.5-0.9-0.5-2-0.5c0.1,0.5,0.2,0.5,0.5,0.8
				c0.3,0.2,0.4,0.3,0.5,0.7c-0.4-0.1-0.8-0.3-1.2-0.5c-0.2-0.1-0.4-0.2-0.6-0.3c-0.4-0.2-0.3,0-0.4-0.4c0.4-0.2,0.6-0.1,1.1-0.2
				v-0.4c-0.5-0.1-2.1-0.1-2.8-0.1c-0.1,0-0.5,0-0.5,0l-0.3,0.1h-0.1c0.1,0.4,1.5,1.1,1.9,1.4c0.6,0.4,1.5,0.9,1.9,1.4
				c-0.1,0.1,0,0.1-0.2,0.1c-0.3,0-1.1-0.4-1.3-0.5c-0.4-0.3-0.9-0.7-1.3-0.9C175.8,19.1,174.9,20.2,174.8,18.9L174.8,18.9z
				 M148.7,18.6c0.2-0.1,10,1.3,10.2,1.5c-0.2,0.3-2.7,0.7-3.2,0.7c0.2-0.5,0,0,0.1-0.3c0.3-0.4,0.3-0.2,0.3-0.6
				c-0.6-0.1-1.7,0.8-2,1.1c-0.9,0.9-1.8,0.2-1.6,1.5c0.2,1,2.1,3.6,1.7,4.3c-0.4,0-0.3,0-0.5-0.4c-0.7-1.5-1.2-2.5-2.1-4
				c-0.4-0.8-0.8-1.4-1.3-2.2C149.6,18.4,149.6,19.3,148.7,18.6L148.7,18.6z M187,17c0.5-1.2,2-1,2.4-0.2l-0.6,0.2
				c-0.2,0-0.4,0-0.6,0C187.8,16.9,187.4,17,187,17z M164.8,18.8c-0.2,0.2,0.3,0.3-1,0.3c-0.4,0-0.8,0-1.2,0
				c-3.5-0.1-11.1-1-13.7-2.3c0.6,0,1.2,0.3,1.8,0.4C155,18.3,160.4,18.3,164.8,18.8L164.8,18.8z M218.3,22.3
				c-1.2-0.1-2.3-0.3-3.4-0.5c-2.6-0.5-9.1-2.7-11.7-3.8c-0.9-0.4-1.8-0.8-2.7-1.2l-2.8-1.1c0-0.4,0.1-0.6,0.3-0.9
				c0.7,0.1,4,1.7,4.9,2.1c3.7,1.7,11.9,5.1,15.8,4.9c0-0.7-0.7-1-0.9-1.6c1.9,0,1-0.4,1.9-0.6c0.3,0.2,1.3,1.3,1.4,1.7
				C220.5,22.2,219.6,22.4,218.3,22.3L218.3,22.3z M158.2,17c-1.9,0.5-7.6-1-9.9-2c-0.9-0.4-0.9-0.2-1.1-0.7c1-0.1,7.7,1.6,9.6,2.1
				C158.3,16.8,157.9,16.5,158.2,17z M171.6,15.2c0.4-0.2,0.8-0.2,1.2-0.3c2.5-0.8,1.7-2.7,8.7-1.8c1.8,0.2,4,0.3,5.9,0.5
				c0.9,0.1,1.9,0.2,2.8,0.2c1,0.1,1.7,0.3,2.1,1c0.2,0,0.4-0.1,0.5-0.1h0.3h0.1c-1.3,1.4-2-0.1-2.1-0.3c-0.7-0.6-2.1-0.1-3,0
				c-3,0.4-2.6-0.2-6-0.5c-2.6-0.2-4.3-1-5.8-0.2c-0.6,0.3-0.5,0.5-0.9,0.8c-0.3,0.3-0.8,0.2-1.3,0.4
				C173.6,15.1,172.1,16.2,171.6,15.2z M215.6,10.4c0.5-0.2,2.9,1.1,3.1,1.3c-0.1,0.1-0.1,0.2-0.5,0.1l-1.3-0.5
				C215.8,10.8,215.5,10.9,215.6,10.4z M196.5,8.6c0.5,0.2,0.6,0.3,1,0.5c0.3,0.1,0.9,0.1,1,0.4c-0.2,0.4-0.6,0.2-1,0.1
				c-0.7-0.1-3-0.4-3.2-0.6C194.7,8.4,195.7,8.3,196.5,8.6L196.5,8.6z M194.9,6.6c2,0,8.9,0,10.2,0.5L191.7,7
				c-0.1-0.7,0.9-0.4,1.5-0.4C193.7,6.6,194.3,6.6,194.9,6.6L194.9,6.6z M207.3,6.4c0.5-0.1,1,0,1.5,0c2.2,0.5,3.6,0.5,5.8,0.6
				c0.7,0,2.4,0,2.9,0.5c-1,0-2-0.1-3-0.1c-3.1,0-5,0.3-8.2-0.5C206.4,6.7,206.8,6.5,207.3,6.4z M189.7,6.7c-0.1,0.1,0,0.1-0.6,0.2
				c-0.6,0.1-1.4,0.1-1.6-0.6L189.7,6.7z M143.6,1.8c0.1-0.5,0.4-0.6,1.1-0.6h4.7C148.9,2.4,144.5,2,143.6,1.8z M116.4,13.8
				c0.1,0.1,1.2,1.5,1.2,1.8c0.4,0.3,0.8,1,1.1,1.5c0.3,0.5,0.7,1,1.1,1.5l2.3,2.9c0.3,0,1.1,1.1,1.4,1.5c0.8,1,1.5,2.6,2.2,3.7
				c0.3,0.5,1,1.4,1.1,1.9c-0.7-0.1-0.9-0.5-1.5-0.4c-0.1,0.4,0,0.4,0.2,0.7c0.7,0,2.3,1.3,2.7,1.7c0.3,0.4,1.4,2.4,1.5,3
				c-1-0.2-4.3-4-4.9-4.8c-1.4-1.6-1.8-2.9-2-3.2c-0.4,0.2-0.1,0.4-0.5,0.8c-0.4-0.2-0.7-0.6-1-1c-0.3-0.3-0.6-0.6-0.8-1
				c-0.8-1-4.2-6.1-4.3-6.5c0.3-0.2,0.7-0.5,1-0.5c0.3-0.5,0.3-0.3,0.1-1c-0.2-0.2-0.7-1.2-0.8-1.5c-0.2-0.2,0,0-0.2-0.2l-0.1-0.1
				c-0.2-0.1,0.2-0.1-0.3-0.1c-0.2,0.4,0.5,1.7,0.3,2.7c-0.8,0.2-1.4-0.7-1.8-1.3c-0.4-0.6-0.9-1.1-1.3-1.7l-2.4-3.7
				c-0.8-1.2-1.7-2.5-2.5-3.6l-2.4-3.7c-0.3,0.1-0.3,0.1-0.5,0.3l0.1,0.6c0.2,0.2,2,3.5,2,3.8c-0.7-0.3-10.7-5.3-12.4-6.1
				c-0.1-0.1-0.3-0.2-0.4-0.2c-0.2-0.1-0.2-0.1-0.2-0.2l-0.4-0.1c-0.2,0.1-0.2-0.3-0.1,0.3c0.2,0.1,0.8,0.7,1.1,0.9
				c1,0.7,3,1.6,4,2.2c0.9,0.5,1.8,1,2.5,1.6c0.6,0.5,1.7,1.7,1.8,2.4c-2.2,0.2-3.3-3.4-4.5-3.2c-0.1,0.9,2.4,3.3,2.4,4.3
				c-0.5,0-0.5-0.3-0.8-0.7l-1.6-2.2c-1.5-2.2-0.9-1.5-2.4-2.5H96c0,0.6,1.2,1.9,1.6,2.3c1.9,2.3,1.1,1.4,0.8,2.4l0.4,0.2
				c0.3,0.1,0.1,0,0.3,0.2c1.2,0,2.8,2.3,4,3.3c0.4,0.3,0.9,1,1.5,0.8c0-0.5-1-1.7-1.6-2.4c-1.1-1.3,0.5-1.1,1.4-0.7
				c0.5,0.2,1.2,0.3,1.6,0.5c3.2,1,3.8,0.6,5.3,3c0.5,0.9,1,1.7,1.6,2.5c0.3,0.5,0.5,0.8,0.8,1.3c1.4,2.2,1.1,2.1,0.3,4.7
				c-0.3,1-1.9,5.7-2,6.2h-0.1c0,0.2-0.1,0.5,0,0.7c0.2,0.3,0,0.1,0.4,0.1c0.1-0.5,0.6-1.2,0.8-1.9c0.3-0.6,0.5-1.3,0.7-1.9
				c0.3-0.8,1-3.6,1.5-4c0,1.9-2.4,8.6-2,9.4c0.4,0.4,0.7-0.3,0.9-0.6c0.2-0.4,0.3-0.8,0.4-1.2c0.2-0.9,0.4-1.6,0.6-2.5
				c0.3-1.1,0.8-4.5,1.6-4.7c2.1,2.5-1.1,3.8-1.3,8.8c-0.2,4,2.6,8.3,2,9.3c-0.4-0.2-1.3-3.5-1.5-4.2c-0.6-1.8-0.8-3.8-1.7-4
				c-0.7,0.7,0.2,2.9,0.5,3.8c0.4,1.2,0.8,2.4,1.2,3.6c0.7,2,0.7,2.1-0.5,3.4l-3.5,3.6c-1.2,1.2-1.3,1.4-2.3,2.5l-6.2,7.8
				c-0.3,0.5-0.7,0.9-1,1.4c-3.5,5.4-5.8,9.7-7.5,16.1c-0.3,1.1-2,6.9-1.5,7.7c0.3-0.2,0.9-1.9,1-2.3c0.3-0.8,0.5-1.8,0.7-2.6
				c0.2-0.9,0.4-1.8,0.7-2.7c0.2-0.6,0.5-2.2,0.9-2.4c0.3,0.5-0.2,3.1-0.3,3.8c-0.2,1.4-0.2,2.7-0.1,4.1c0.1,1.3,0.3,2.6,0.5,3.9
				c0.2,1,0.4,2.7,1.5,2.7c0.7-1.9,0.1-3.8,0.4-5.8c0.5,0.1,0.3,0.1,0.7,0.4c0.5,0.4,3.8,2.6,3.9,2.9l0.6,0.1
				c0.1-0.5,0.1-0.3-0.1-0.7c-0.2-0.1-0.2-0.1-0.4-0.3c-0.1-0.1-0.2-0.2-0.4-0.4c-1.7-2-4.7-3.6-3.7-5.5c0.8,0,5.6,3.2,6.5,2.7
				c1-0.8,0.2-3,0.1-4.2c-0.2-2.7,1.7-1.8,1.7-3.3c-0.5,0-3.5,1.6-3.8,1.9c0.1,0.6,0.6,0.9,0.8,1.4c0.2,0.6-0.2,1.1-0.6,1.5
				c-0.8,0.7-2.9,0.3-2.6-1.1h1.5c0.3-0.6,0-1.4,0.1-2.1c0.1-0.4,0.7-1,0.9-1.2c4.5-4.8,7.3-4.6,7.8-4.9c-0.3-0.7-1.8-0.7-2.5-0.4
				c-0.8,0.3-1.5,0.8-2.1,1.3l-2,1.3c-0.2,0.1-0.3,0.2-0.5,0.4c-0.3,0.3-0.7,0.9-1.2,1.3c-0.3,0.3-0.7,0.7-1,1c-0.2,0.3-0.7,0.9-1,1
				c-0.5-0.5-0.6-1.4,0.2-1.5c0.2-0.2-0.1,0,0.3-0.2l0.2-0.1c0.3-0.1,0.2-0.1,0.5-0.1l0.3-0.5c0.2-0.6-0.2-1.1-0.4-1.6
				c-0.3-0.6-0.6-1.4-0.8-2.2c-0.2-1,0.1-1.8,0.5-2.5c3.4-6,9.4-13.4,14.3-18.4c3.6-3.7,2.7-3.7,5.3-0.4c1.9,2.4,3.9,5.7,5.2,8.6
				c0.6,1.4,0.8,2.1,0.7,3.9c-0.1,2-1.4,11-1.8,11.8c-0.5,3.2-1.7,3.9-3.1,5.3c-0.8,0.8-0.9,1-1.9,1.7c-0.3,0.2-0.3,0.3-0.6,0.6
				l-2,1.6c-3.1,2.4-6.2,4.8-9.8,6.5c-0.5,0.2-1.1,0.5-1.5,0.8c-0.7,0.4-1.3,0.5-1.4,0.9c0.3,0.2,0.7,0,1,0.2c0.4-0.1,2-0.1,2.6-0.2
				c2.2-0.3,3.7-1.7,5.4-2.9c2-1.3,6.2-4.3,7.9-5.9c0.5-0.5,1-0.8,1.5-1.3c2.4-2.2,3.3-3.1,5.5-5.7l2.3-3c0.1-0.4,0.3-0.4,0.3-0.7
				h-1.2c0.2-0.5,0.8-1.5,1.1-2.1c0.8-1.3,0.7-1.5-0.2-1.7c0-1.4,1.3-10.8,1.6-12.6c0.3-1.7,1.1-1.7,2.2-2.5
				c1.8-1.3,2.5-3.5,3.3-6.1l1.8-5.3c0.3-0.7,0.2-1.3,1-1.4c0.1,1.3-0.9,3.8-1.3,5c-0.3,1-1.4,3.9-1.5,4.7l0.1,0.3l0.7-0.2
				c-0.1-0.2-0.2,0.2-0.1-0.4c0.1-0.7,0-0.2,0.3-0.4c0.2-0.1,0.6-1.4,0.7-1.6c0.2-0.6,0.4-1.2,0.7-1.9c0.3-0.8,1.2-3,1.2-3.8
				c-0.1-0.5,0-0.2,0.2-0.6c0.1-0.2,0.2-0.4,0.3-0.6l0.6,0.7c0.3,0.3,1.2,0.1,1.5,0.8c0.5,0.8,0.4,0.4,0.7,0.7l-0.1,0.1
				c-0.1,0.1,0.1-0.2-0.1,0.1c-0.1,0.1-0.1,0.1-0.1,0.2c-0.1,0.3,0,0.4,0,0.6c0.2,0.1-0.2,0,0.3,0.1c0.3,0.1,0.4,0,0.7-0.2l0.2-0.1
				c0,0,0,0,0.1,0l1.9,1.5h-0.1h-0.1c-0.2,0.1-0.2,0.2-0.2,0.3l-0.3,0.8c-0.1,0.2-0.5,1.1-0.7,1.5c-1.8,3.9-4.2,3.2-7.6,5.5
				c-0.6,0.4-0.6,0.7-1,1.1c-0.8,4.2-1,7.4-1.6,11.3c-0.1,0.5-0.1,1.1-0.4,1.4c0,0.9-2.8,4.5-3.4,5.4c-0.3,0.5-0.6,0.9-0.9,1.3
				c-1.2,1.8-3,3.9-4.3,5.7c-0.2,0.2-0.3,0.3-0.5,0.6l-5,6.1c-0.2,0.3-0.3,0.5-0.5,0.7c-0.9,1-1.8,1.8-3.1,2.4
				c-2.7,1.4-19.9,7.6-22.6,7.9c0.2-0.4,0.9-1.1,1.3-1.6c0.3-0.3,0.3-0.7,0.1-0.7h-0.1L97,91.9c-0.3,0.2-0.5,0.4-0.8,0.7l-1.7,1.3
				c-1,0.7-2.4,1.6-3.7,2.2c-1.3,0.6-2.8,1.3-4.3,1.7c-1.9,0.6-2.3-0.1-4.2-1.2c0.1-0.8,0.6-1.3,1-1.8c0.9-1,0.5-0.5,2-0.7
				c-0.1-0.5-0.2-0.2-0.4-0.7c0,0,0.1,0,0.1-0.1c0.4-0.2,0.6-0.2,1.1-0.4l2.8-1c0.3-0.1,0.4-0.1,0.5,0c-0.6,0.5-1.9,0.9-2,2.1
				c-0.1,1,1.4,0.6,1.9,0c0.4-0.4,0.7-0.8,1.1-1.2c0.8-0.9,1.5-1.6,2.3-2.5c0.7-0.8,2.3-2.1,1.3-3c-0.3-0.3-0.7-0.4-1.3-1.1
				c-0.3-0.5-0.6-1-0.7-1.7c-0.3-1.8,1.3-9.5,1.7-12.4c0.2-1.3,0.3-2.8,0.6-4c0.1-0.8,0.3-1.8-0.1-2.5c-0.6-0.1-0.5,0.3-0.8,0.6
				c0,0.4-3.1,9.7-3.5,11c-0.3,1.7-3,10.6-3.5,11.1c-0.7-0.2-1.2-1.5-1.6-2.2l-2.7-4.7c-0.4-0.6-1.2-1.9-1.3-2.3
				c-0.1-0.1-0.2-0.4-0.8-0.3c0,0.5,0.1,0.7,0.3,1.1c0.3,0.5,0.8,1.7,1.2,2.4l2.7,4.7c0.5,0.8,1.1,1.5,1.1,2.6c-0.5-0.1-0.8-0.6-1-1
				l-5-8c-0.5-0.2-0.7-0.4-0.7,0.5c0.2,0.5,0.3,1.1,0.6,1.7l2.3,4.9c0.3,0.6,1.4,2.7,1.5,3.4c0.3,1.5-1.3,2.7-2.5,1.8
				c-0.8-0.6-1.2-2-1.7-3.2l-3.5-8.5c-0.4-1-0.5-1.3-1.1-1.3c-0.3,1.1,0.3,2.1,0.6,3.1c0.3,1.1,0.6,2.7-0.9,2.5
				c-1.4-0.1-2.8-3.2-4.3-3.4v0.6c0.3,0.1,1.8,2,2.2,2.5c2.5,2.7,4.9,3.5,5.9,6c0.2,0.7,0.6,1.2,0.4,1.6l-0.1,0.2
				c-0.3,0.2-4-2.5-4.5-2.9l-4.5-3.1c-0.4-0.2-0.4-0.3-0.9-0.3c-0.4,0.9,0.5,1.5,0.8,1.9c0.2,0.3,0.4,0.4,0.7,0.7
				c0.4,0.3,0.7,0.3,0.7,0.8c-0.3,0.1-3.4-0.8-4-1c-3.4-1.3-3.8-3.1-5.2-5.3c-1.4-2.2-5-6.8-6.6-9c-0.5-0.7-3.9-5.5-4.2-6.2
				c-0.2-0.1-0.8-0.9-0.8-1.3c0.5-0.1,0.9,0.5,1.1,0.8c0.2,0.2,0.7,0.8,0.8,1c0.3,0.2,0.6,0.7,0.9,1c2.3,2.5,4.1,2.7,7.4,4.2
				c1.9,0.8,2.9,1.3,4.1,2.8c0.5,0.6,1,1.1,1.6,1.8c0.8,0.9,1.2,1.6,1.8,1.7v-0.7c-0.1-0.1-1.2-1.6-1.3-1.9
				c-1.4-1.9-2.8-3.5-5.1-4.4c-2.8-1.1-6.1-2.8-8-4.6c-0.5-0.5-1.1-1-1.6-1.6l-4.2-5.4c-1-1.2-5.2-6.1-5.4-7.2
				c0.2-0.1,1.7-0.4,2-1.6c-0.2-0.3-0.4-0.3-0.8-0.5c-1.8-0.9-3.5,0.8-4.8,0.5C38,53,38,52.8,37.6,52.8c-0.2,0-0.6,0.2-0.9,0.3
				c-1.4,0.4-15.8,0.2-18.3,0.1c-2-0.1-2.2-0.3-3.3-1.3c-0.9-0.7-3-0.5-3.1,0.4c1,0.1,2.5-0.6,3,0.5c-0.2,0.1,0,0.1-0.3,0.1
				c-0.1,0-0.2,0-0.3,0l-7.7-0.5c0.3-0.2,1.7-0.5,2.1-0.6c1.5-0.5,5.3-1.6,6.5-0.7h0.4c0,0,0,0,0.1-0.1c-0.1-0.6-0.2-0.3-0.8-0.6
				l0.1-0.2c1.2-0.3,7.1-2.1,7.9-2.5v-0.5c-0.9-0.5-1.9,0-3.3-0.9c-0.9-0.6-1.6-1.1-2.6-1.6c-3.8-1.9-7.1-4.3-10.6-5.9
				c-1.1-0.5-4.8-2.1-5-3.3l-0.2-0.1c-0.3-0.1,0.1,0-0.2-0.1c-0.1,0,0,0-0.2-0.1v2l8.5,5.3c2.2,1.4,4.5,2.5,6.7,3.6
				c0.8,0.4,1.9,0.7,2.2,1.5c-0.4,0.7-2.5,1.1-3.4,1.3c-1.3,0.3-2.6,0.7-3.8,1c-1.3,0.3-2.5,0.6-3.8,1C7.2,51,4.1,51.8,3.8,52
				c-0.1,0.4,0.7,0.8,1.1,1c0.5,0.3,0.8,0.5,1.4,0.8c1.2,0.5,2.5,0.4,4,0.4c2.9,0,5.7,0.1,8.5,0.2c2.9,0.1,5.7,0.1,8.5,0.2
				c1.7,0.1,7.2-0.1,8.3,0.4c0.2,0.4,0.9,6.7,1,7.7c0.7,5.2,2.3,10,2.9,14.6c0.1,1.1,0.8,7.1,0.8,7.9c0.3,0.3,0,0.2,0.5,0.3
				c0.9-0.5,1.5-3.2,1.7-4.4c0.1-0.6,0.9-5,1-5.1c0.2,0.2,1,2.9,1.2,3.3c2,5.8,3.6,11.1,5.5,16.9l2.1,5.8c0.3,0.7,0.2,0.6,0.5,0.7
				c0.1-0.1,0,0,0.2-0.3c0.6-1.2,2.5-9.3,2.7-10.4c0.4-1.8,0.7-4,0.9-5.8c0.1-0.7,0.5-6.1,0.6-6.3c0.4,0.1,2.4,2.4,2.8,2.9
				c3.8,4.8,1.8,5.5,4.8,6.6c1.5,0.5,2.9,0.9,4.4,1.4c2.6,1,7.3,4.7,10.4,6.5c0.6,0.3,1.2,0.8,1.7,1.1c0.4,0.3,1.7,0.8,1.9,1
				c-0.1,0.2-0.7,0.5-0.9,0.8c-0.9,1.1-1,2.4-1.3,3.8c-0.4,1.9-0.7,3.9-0.9,5.9c-0.4,4.2-0.6,8.7-0.6,12.9c0,2.4-0.4,4.3,1.4,5.5
				c0.8,0.5,1.5,0.5,2.1,1.3c1.5,2,4.4,2.1,7.3,2.7c2.2,0.4,6.5,1.2,8.8,1.1c1.1,0,2.3-0.2,3.3,0.1c2.8,0.7,4.5,3.7,6.8,2.7
				c1.9-0.7,9.2-4.4,11.3-5.5c1.9-1,2.8-1.7,5.3-0.8c2.7,0.9,4.9,1.7,7.3,2.7c0.5,0.2,1.6,0.9,1.9,1.5c-2.1,1.7-3.9,2.2-0.3,3.5
				c0.5,0.2,2.2,0.6,2.6,0.9c-0.1,0.8-0.6,1.5-1,2.1c-0.5,0.7-4.4,3.5-5.2,4c-0.6,0.4-1.1,0.8-1.8,1.3c-0.3,0.2-0.5,0.4-0.8,0.6
				c-1,0.7-3.8,3-4.5,3.3v0.3h6.7c0.6-0.6,0.1-0.4,0.6-1.1c0.4-0.5,0.4-0.6,1.3-0.5l0.2-0.4c0-0.3,0,0,0.1-0.3l0.7-0.9
				c0.6-0.7,0.7-0.4,0.4-1.3c0.2-0.4,1.1-1.6,1.5-1.6l0.2,2.1c0.7,0,1.3-0.2,1.8-0.1l-0.1,1.3c0.8-0.1,0.6-0.6,1.3-0.7
				c0.8,1.7,0,1.6,1.5,3.5h43.3c0.2-0.3-0.6-8.5-0.6-9.6c-0.1-1.6-0.3-3.2-0.4-4.9c-0.1-1.4-1.4-3.8-0.6-4.5l0.5,0.1
				c0.2,0.1,0.3,0.2,0.5,0.3c2.6,1.5,0.8,1.1,2.9,2.4c3,1.9,4.5,0.6,5.3,1.7c0.3,0.4,2.2,6.3,2.7,7.7c0.2,0.7,0.9,2,0.9,2.7
				c0.2,0.2,0.2,0.3,0.3,0.6h0.6c0.1-0.3,0-0.7-0.1-1.2c0-0.7-1.2-4-1.4-4.9c-0.4-1.1-1.4-4-1.4-5c0.9,0.4,1.6,3.3,1.9,4.4
				c0.2,0.7,1.5,4.3,1.5,4.8c0.8,0.8-0.3,0.9,2.1,1.9c2.4,1,5.1,1.9,7.3,3.2c0.3,0.1,0.5,0.1,0.8,0.4h2.5v-0.3
				c-0.4-0.2-0.7-0.3-1-0.6c-0.5,0-5.8-2.5-6.9-3c-0.8-0.3-1.6-0.7-2.4-1c-1.5-0.7-1.9-2.5-2.4-4.3c-0.3-0.9-0.5-1.7-0.8-2.6
				c-0.2-0.6-0.9-2.2-0.7-2.7c1.1-0.2,2.5,4.7,2.7,5.3c0.3,1.2,0.4,2.1,1.2,2.8c0.9,0.8,2,0.7,2.8,1.2c1.5,0.2,9.6,3.9,11.3,3.9
				c-0.1-1-0.8-1.1-1.6-1.4l-6.6-2.7c-3.4-1.3-3-0.7-4.3-5.2c-0.2-0.6-0.7-2-0.7-2.5c0.8,0,2.6,0.5,3.5,0.7c0.8,0.1,2.8,0.6,3.5,0.6
				l0.2-0.5c-0.2-0.1-0.2-0.1-0.4-0.2c-0.3-0.1-0.1,0-0.3-0.2c-0.4,0-4.2-1.3-5-1.6c-4.8-1.6-8-2.7-13-3.6c-1.2-0.2-1.9-0.2-3.2-0.2
				c-0.5-0.8-0.5-1.9-1.4-2.4c-0.3-0.2-0.7-0.2-1-0.4l1.5-3.2c1.4-2.9,2.1-3.2,4.2-5.2c0.8-0.8,1.7-1.5,2.4-2.3
				c1.6-1.7,1.4-0.1,4.8,3.1c1.2,1.1,3.2,2.5,4.7,3.4c0.2,0.1,0.7,0.3,0.8,0.4l0.8,0.1c0.2-0.2,0.2,0.3,0.1-0.5
				c-0.8,0.1-4.4-3-5-3.7l-4.3-4.7c0.2-0.5,0.3-0.4,1.1-0.9l3.2-2.4c0.9-0.6,1.1-1,2.2-1.6c0.8-0.4,1.8-0.8,2.9-1
				c3-0.5,4-0.3,6.3,0.8c0.9,0.4,4.6,2,4.9,2.7c0.2,0.6-0.6,2.3-0.8,3l-1.9,6.1c-0.2,0.8-0.5,3-0.6,3.4c-0.6,0.1-1.7-0.3-2.3-0.4
				l-2.2-0.4c0,0.4-0.1,0.5,0.1,0.7l0.3,0.1c0.3,0.1,0.1,0,0.3,0.2c0.5,0,3.3,1.2,3.9,1.5c1.3,0.5,2.5,1.1,3.9,1.5
				c1.4,0.5,2.8,0.6,4,1.5c3.6,2.6,2.9,6.2,9.1,6.9c1.7,0.2,3.3,0.3,5,0.5c1.8,0.1,2.3,0.3,3.6-0.3c0.6-0.2,0.6-0.2,0.6-0.8
				c-1.7-0.5-5.2,0.7-6-1.2c-0.3-0.8-0.5-5-1.2-5.9c-0.8-0.1-1,0.3-0.8-0.7c0.3-1.7,0.4-2.8,0.6-4.6c0.2-2.2,0.1-4.2-0.3-6.1
				c-0.2-1.3-0.6-1.3-1.4-2c-0.9-0.8-2.8-2.1-3.6-3.1c-0.3-0.4-1-1.7-1.1-2.2c1.3-0.6,3.8-1.2,4.9-2c0.2-1.2-0.6-0.7-1.4-0.4l-9.8,3
				c-2.2,0.6-3.3-0.9-4-0.9c-0.4-0.6-0.3,0.1-0.5-0.7c1.3-0.3,1.1-0.5,1.8-1.2c0.3-0.3,1.3-1.2,1.4-1.5h-0.5l-0.9,0.3
				c-1.1,0.3-2.3,1.9-3.3,2c0.1-0.5,0.7-0.8,1.4-1.2c0.3-0.2,1.1-1,1.5-0.9c0.2-0.3,0-0.1,0.2-0.3c0.1-0.1,0.1-0.1,0.2-0.2
				c0.2-0.1,0.3-0.2,0.4-0.3c1.2-0.8,0.6-0.8,0.9-2.1c0.1-0.5,0.3-0.5,0.3-1.1l0.3-4.3c0-0.2,0.1-0.5,0.1-0.7c0-0.7,0-0.7-1.2-0.8
				c0-0.7,0.9-0.8,0.8-1.7h-0.5c-0.3,0.2-1.3,0.8-1.7,0.9c0.2-0.5,0.6-0.7,0.9-1c0.3-0.3,0.6-0.7,0.9-0.9c0.1-0.3,0.2-0.2,0.2-0.7
				h-0.5c-0.2,0.2-0.6,0.4-0.8,0.6c-0.4,0.2-0.6,0.5-1,0.4c0-0.4,0.1-0.4,0.7-0.8c0.3-0.2,0.7-0.5,1-0.6l0.1-0.2v-0.1
				c0.2-0.3,0.2-0.3,0.2-0.7c0-0.3-0.2-0.6-0.3-0.9c-0.2-0.5-0.5-1.1-0.7-1.6c-0.3-0.9-1.1-2.7-1.2-3.6c0.8-0.4,8.5-0.6,10-0.8
				c0.9-0.1,0.6-0.6,1.1-1c0.9-0.9,2.2-0.6,3.3,0c1.7,1,3.7,2.1,5.5,3.1c0.9,0.6,4.9,3.1,5.8,2.6V61.3c-0.5-0.5-1.9-3.5-2.2-4.1
				c-0.5-1.2-1.4-3.5-1.2-5c0.9,0.1,2.6,1.3,3.4,1.2v-1l-0.7-0.2c0,0,0,0-0.1,0c-1.8-0.1-3.2-1.8-3.6-3.3c-0.2-0.6-1.1-5.5-1-5.9
				c1.2,0,4.4,1,5.4,0.9v-1.2c-0.2-0.1-2.2-0.3-2.7-0.4c-0.9-0.2-1.6-0.4-2.4-0.6c-0.8-0.2-1.6-0.5-2.5-0.7
				c-0.7-0.2-2.1-0.5-2.3-0.7c1-0.5,3.9,0.7,4.9,0.9c0.8,0.2,1.8,0.3,2.6,0.4c1.4,0.2,1.9,0.6,2.4,0.6v-2.9c-0.8,0.2,0,0.4-0.9,0.6
				c0.1-0.5,0.1-0.5,0.5-0.9c0.3-0.3,0.2-0.3,0.4-0.6v-4l-10.2-1.5c0.1,0.5,1.2,1.3,1.4,1.9c-0.3,0.3-0.4,0.3-0.7,0.5v0.4
				c0.2,0,0.2,0,0.4,0.2c0.1,0.1,0.2,0.2,0.4,0.3c0.2,0.2,0.4,0.3,0.7,0.5l2.9,2.2c0.3,0.2,1.2,0.8,1.3,1.2
				c-0.3,0.1-1.4-0.4-1.8-0.5c-0.7-0.3-1-0.7-1.5-1.1c-0.5-0.5-0.8-0.8-1.4-1.2c-0.5-0.3-1.1-0.6-1.4-1c-0.2-0.1-0.3-0.2-0.5-0.1
				c-0.2,0.7,0.3,1,0.7,1.3c0.4,0.3,0.8,0.6,1.3,0.8c-0.1,0.1-0.1,0.4-0.8,0.1l-4.5-1.9c-1.8-0.8-3.3-1.6-5-2.4
				c-1.5-0.8-8.5-4.7-10-4.6c0,0.9,0.6,0.4,1.2,1.1c0.1,0.6,0,0.8,0.1,1.3c0.5,0.1,0.8-0.1,1.3,0.1c0,2.1,0.9,1.9,1.7,3.1
				c0.9,0.7,1.1,1.1,1.9,1.9l0.5,0.5c0,0,0,0,0,0.1c0.4,0.2,1.9,1.8,2.3,2.2c0.2,0.2,0.2,0.2,0.3,0.4c0,0.1,0,0.2,0.1,0.3
				c0.2,0.7,1.1,0.1,1.5,0.8c-0.1,0.1,0,0.2-0.7,0.1c-0.3-0.1-0.2-0.1-0.6-0.1c0.1,0.6,0.9,0.7,0.9,1.5c-0.7-0.2-4.7-3.9-5-4.5
				l0.7-0.2v-0.5l-1.9-2.2l-7-6.3c-2-1.8-1.7-0.2-3.3-0.6c-0.8-0.2-4.1-3.3-5-4c-0.2-0.2-0.4-0.4-0.6-0.5c-0.2-0.2-0.5-0.3-0.7-0.4
				c-0.3-0.2-0.8-0.9-0.7-1.6c0.1-0.6,0.5-1.1,0.7-1.6c0.7-1.3,0.4-1.1,0.6-1.6c0.4,0,3.4,1.3,4,1.5c1.3,0.5,2.7,1,4.2,1.4
				c2.9,0.8,5.7,1.8,8.4,2.7c2.1,0.7,6.5,2.2,8.6,2.4c0.9,0.1,1.9-0.1,2.8,0.1c0.7,0.1,1.4,0.4,2.1,0.6c0.7,0.2,1.4,0.4,2.1,0.6
				c0.7,0.2,0.5,0.1,0.8,0.6c0.3,0.4,0.5,0.2,0.8,0.6c0.8,0,2.6,1.4,3.4,0.6c0.4-0.6-1.3-1.1-2.4-1.6c-0.9-0.4-8-3.8-8.3-3.8
				c-0.5,0.4-0.5,0.8-1.4,0.9c-0.7,0.1-11-3-11.9-3.2c-2.8-0.8-7.1-2.2-9.7-3.3c-0.5-0.2-1-0.4-1.5-0.7c-0.5-0.2-0.9-0.4-1.4-0.6
				c0.4-1.3,4.4,0.9,5,1.1c1.6,0.8,3.2,1.4,5,2.1c1.8,0.6,3.5,1.1,5.4,1.7c1.8,0.5,3.6,1.1,5.5,1.5c4.9,1.1,2.8-1.7,5.5-0.3
				c1.9,1,7.6,3.9,9.4,4.4c0.9,0.2,2,0.4,2.5,0.9c0.4,0.4,0.4,0.5,1,0.8c0.5,0.2,0.8,0.5,1.1,0.3v-0.9c-1.9-1.4-0.7-0.7-3.5-2
				c-1.2-0.6-2.4-1.1-3.6-1.6c-2.6-1.2-3.8-1.9-6.1-3.1c-0.1,0-0.4-0.2-0.4-0.2c-0.4-0.2-0.2,0.1-0.3-0.4c0.4-0.3,1,0.2,1.8,0.6
				l5.2,2.4c0.7,0.3,6.3,3.1,6.9,3.1v-1.6c-1-0.2-1.2,0.3-3-0.6c-0.9-0.5-1.4-0.8-2.5-1.2c-1.5-0.6-7.7-4.2-9.5-5.2
				c-2.4-1.3-3-1.8-4.2,0c-0.1,0.1-0.1,0.1-0.2,0.2c-0.2,0.2-0.1,0.1-0.2,0.2c-0.2,0.2,0.2,0-0.4,0.2l-1.4,0.1
				c-1.8,0-3.4-0.6-4.9-1.3c-6.2-2.7-5.9-1.3-6-3.7c-0.8,0.1-0.8,0.9-2.2,0.5c-2.2-0.6-3.5-1.9-6.2-1.8c-2.8,0.6-0.6,2.4-4.3,2.3
				c-1.4,0-0.9-0.1-1.4,0.8c-0.4,0-0.2,0-0.5-0.3c-0.4-0.4-0.8-0.6-0.9-1c0.9,0,1.7,0.1,2.7,0c1.5-0.1,2.3-2,3.3-2.3
				c0.5-0.2,1.7-0.5,2.2-0.5c0.5-0.4,3.9-0.8,4.5-1.5c-0.1-0.4-0.2-0.4-0.6-0.6c-0.7-0.5-1.6-1-1.6-1.6c0.4-0.3,2.4-0.7,3-0.7
				l-0.2,0.7c0.5,0.1,4.4-0.2,5.8-0.1c3.3,0.2,5.6,2.1,8.4,3.3c1.1,0.4,3.5,0.9,4.4,1.4l0.1,0.8v0.1c0.4-0.1,0.2,0,0.4-0.3
				c1.1-1.4,1.4-0.9-1-3c-0.4-0.3-0.4-0.2-0.6-0.7l1.1,0.2c-0.1-0.5-0.3-0.5-0.8-0.8c-0.3-0.2-0.6-0.4-1-0.6c0.2-0.2-0.1-0.3,1-0.2
				c4.3,0.2,10.7-0.2,14.8,0h0.5c0-0.7-1.1-1.4-1.8-1.7c-0.4-0.1-0.9-0.2-1.4-0.3c-0.4,0-1.1,0-1.4-0.3c-0.8,0-4.8-2.4-5.6-2.8
				c-0.7-0.4-5-2.8-5.2-3c-0.7-0.2-1.1-0.8-1.8-0.8c-0.1,0-0.3,0-0.4,0c-0.5,0.1-0.1,0-0.3,0.1v0.1c-0.1,0.7,0,0.7,1.2,1.3
				c1.7,0.9,10.9,5.8,11.4,6.2c-0.5,0.3-0.3,0.1-0.3,0.1c-0.3,0-0.5-0.2-0.8-0.3c-0.6-0.2-4.8-0.3-5.4-0.5c-0.4-0.1-0.6-0.4-0.9-0.5
				c-0.4-0.1-1.8,0.2-2.6,0.1c-0.8-0.1-1.6-0.4-2.4-0.6c-1.2-0.3-8.1-1.3-10.1-1.6c-1-0.1-1.7-0.5-2.5,0c-1.5,0.8-3.2,0.7-5.1,0.6
				c-1.6-0.1-10.9,0.2-11.4-0.2c0-0.4,0.1-0.4,0.6-0.5c0.4-0.1,0.5-0.2,0.9-0.2c0.6-0.5,1.7-0.4,2.3-0.9c-0.3-1.1-1.8-1-3.1-1
				c-4.7-0.2-7.1-1.8-10.3-1.1c0.1-0.6,0.3-0.7,0.4-1.3h-5.6c-0.3,0.3-0.6,0.3-0.6,0.8c0.5,0.2,6.7,1.5,7,1.5l0.3-0.8
				c0.4,0.2,0.1-0.1,0.4,0.3c0.8,1.3,1.7,0.4,3.3,0.9l4,0.8c-0.4,0.5-1.8,0.8-2.6,1c-0.9,0.2-1.9,0.7-2.1,1.3c0.2,0.5,2.4,1.5,3,1.8
				c3.6,1.5,6.2,1.6,9.2,2.5c1.2,0.3,1.5,0.1,1.7,0.7c-0.9,0.3-6.3-0.5-7.7-0.9c-0.4-0.1-0.8-0.2-1.2-0.3c-0.8-0.2-0.6,0-1.1,0.4
				c0,0,0.1,0.4-0.6,0.1c-0.6-0.2-0.3-0.5-1.7-0.6l-5.6-0.5c-1-0.1-1.3-0.5-2.4-0.5c-2.5,0.1-6.5,1-8,0.9c-0.9-0.1-1.3-0.4-2.4-0.5
				c-1.5-0.1-7.2-1.8-9.7-2.2c-3.2-0.6-6.3-1.8-9.3-2.6c-0.4,0.7,0.2,0.8,0.7,1c1.7,0.9,5.8,1.6,7.7,2.1c0.6,0.1,1,0.3,1.6,0.4
				l1.5,0.6c0.5,0,3.1,1,3.9,1.2c1.4,0.3,2.8,0.6,4.2,0.8c1.1,0.2,3.7,0.6,4.7,0.5c0.9-0.1,1.7-0.8,2.6-1.2c1.2-0.6,1,0,1.1,0
				c-1.7,0.3-2.4,2.4-6.4,1.8c-2.2-0.3-5.9-1.4-6.8-1.1c0,0-0.1,0.1-0.1,0h-0.1c0.1,0.5-0.1,0.3,0.4,0.5l1.8,0.5
				c0.9,0.2,1.7,0.4,2.5,0.6c1.7,0.4,3.4,1,5.2,0.5c1.7-0.5,2.5-1.6,4.5-1.8c1.5-0.1,4,0.5,5.8,0.4c0-0.6-0.2-0.6-0.4-1.1l3.7,0.6
				c-0.1,0.2,0,0-0.2,0.1c-0.2,0.1-0.1,0-0.3,0.1c-0.6,0.1-1.2-0.1-1.7,0.2c0.3,0.4,5.1,1,5.1,1c0.4-0.2,0.1-0.7,0.8-1
				c0,0.4-0.1,0.7-0.3,1c-0.7,1-5.9-0.2-6.8-0.4c-8.9-1.6-7.8,1.3-11.2,1.6c-1.2,0.1-2.8-0.4-3.9-0.7c-1.8-0.4-6.1-0.8-7.2-1.6h-0.5
				c-0.1,0.8,1,1,1.7,1.2l6.9,1.8c-0.7,0.4-7.8-1.4-9.1-1c0,0.8,0.7,0.3,1.3,0.7c1.7-0.2,9.5,2.6,12.1,2c1.5-0.4,1.8-1.2,2.2-1.5
				c1.5-1.2,9.1,0.1,9.4,0.3l-5,1c-0.8,0.2-1.6,0.3-2.4,0.6c-0.7,0.2-1.4,0.6-2.2,0.8c-0.9,0.2-1.7,0.3-2.5,0.4
				c-3.1,0.5-2.8,1.2-7.4-0.1c-3.1-0.9-6.2-1.5-9.3-2.3c-1.7-0.5-2.9-0.9-4.5-1.4c-0.8-0.2-1.5-0.4-2.3-0.7
				c-3.1-0.9-0.7-1.1-3.2-0.9c-1-1-1.3-3-2.4-4c-0.6-0.6-2-3-2.3-4.3c0.5,0.1,0.7,0.4,1.3,0.4c0.3-0.4,1-1.2-0.2-1.1
				c-0.7,0.4-1.3,0.2-1.9,0.7c-0.3,0.5,1,2,1.1,2.4c0,0.3,0,0.2-0.1,0.4c-0.3-0.3-1.1-1.8-1.4-2.2c-0.3-0.5-1.2-1.8-1.3-2.2
				c0.7,0.1,1,0.6,1.7,0.8c0.6,0.1,1.6-0.1,2.1,0.1c1.5,0,8.9,0.5,10.1,0.2c0.5-0.1,0.7-0.4,1-0.7c0.3-0.4,0.3-0.8,0.7-0.9
				c0,0,0-0.2,0.6-0.2c0.4,0,1,0.3,1.6,0.2c-0.2-0.5-1.3-1-1.6-1.4h-0.6c-0.7,0.6-2.6,2.2-3.2,2.3c0.2-1.1,1.2-1.4,1.4-2.3h-11.9
				c0.1,0.1,0,0.1,0.2,0.2l0.7,0.2c1,0.1,0.8-0.1,1,0.2c-0.9,0.7-4.8-0.6-5.6,0.6c0,0.5,0.6,1.1,0.9,1.5c0.9,1.1,1.8,2.9,2.5,4.2
				c0.4,0.7,3.1,5.4,3.2,5.9l-0.7,0.2v0.5c1.5,0.5,1.6,0.6,2.2,2.1c0.8,2,4.6,7.5,4.3,8.3c-0.2-0.1-4.7-6.7-5.2-8
				c-0.5-1.2-1.8-1.7-1.9-2.5c-0.4-0.3-0.9-1.2-1.1-1.6l-2.9-4.8c-0.7-1.1-1.3-2.1-2-3.2c-0.4-0.5-0.8-1.1-1.1-1.5
				c-0.5-0.6-1-1.3-1.3-0.9c-0.2,0.3,0.4,1.1,0.8,1.7l3.1,4.9c1.5,2.3,2.8,4.2,4.1,6.5c1.3,2.3,2.9,4.2,4.3,6.3
				c2.8,4.4,1.9,3.7,0.4,5.1c-0.3,0.3-0.8,1-1.4,1.3l-1-0.2l0.1,0.5c0.2,0.3,0.3,0.7,0.4,1c0.5,1,1.3,1.8,1.8,2.6
				c1.2,1.7,2.2,2,2,3.8c-0.4-0.1-0.6-0.5-0.8-0.8l-4-4.3c-1.2-1.3-0.3-1.1-0.3-2.3c-0.6,0-0.7,0.2-1.1,0.2c-1,0,0-0.7-3.2-0.7
				c-1.3,0-2.8-0.7-3.7-1.6c0.1-0.4,0.6-0.8,0.9-1c0.4,0.1,1,0.7,1.4,0.9c1.8,1.1,3.3,1.1,5.7,1.2l0.4-0.1c-0.4-1.3-3.8-1.2-5.3-2.2
				c-0.7-0.5-1.1-1.4-1.6-2.2c-0.5-0.8-1.1-1.4-1.6-2.1c-1.3-1.5-6.3-7-6.7-8.3c0.6,0,0.9,0.1,1.3-0.3c0.3-0.3,0.6-0.6,0.4-1
				c-0.3-0.1-0.4,0-0.5,0l-0.3,0.2c-1.4,1.3-1.3,0.8-2.3,0.8c-0.1,0.2-0.1-0.1-0.1,0.4c0.1,0.1,0.3,0.5,0.4,0.7l5.5,6.9
				c0.4,0.5,1.8,2.1,2,2.6c1,0.6,0.6,2.1,0,2.8l-1.5-1.8c0.3-0.1,0.3,0,0.7,0.1c0.6,0.2,0.3,0.1,0.5,0.1l0.2-0.1
				c-0.2-0.4-0.7-0.6-0.9-0.8c-1.2-0.4-4.6-4-5.6-5.1l-1.6-1.1h-0.7c0.1,0.6,0.4,0.7,0.7,1c1.1,1.2,2.9,3.1,3.9,4.3
				c0.5,0.6,1.3,1.2,0.8,2.3v0.2c0.7,0,1-0.3,1.5,1.5c-0.5,0-1.4-0.4-1.8-0.5c0-0.5,0.1-0.4,0.2-0.9l-0.6-0.1
				c-0.9-0.2-0.8-0.8-1.6-0.9c0,0.7,0.5,1.1,0.4,1.8l-1.4-0.1c0.1,0.7,0.9,1.1,1,1.9c-0.8,0-0.9-0.4-1.5-0.4c-0.2,0.5,0.3,0.7,0.7,1
				c0.2,0.2,0.4,0.4,0.5,0.4c0.3,0.2,0.4,0.1,0.6,0.3c0.1,0.3,0.3,1.2,0.3,1.6c-0.4,0-0.8-0.2-1.1-0.4c-0.7-0.5-2.4-5.3-3.4-6.7
				c-1.3-2.1-3-1.5-5.8-5.8c-1-1.6-8.8-13.1-8.9-14c0.2,0,2.5,1.9,2.7,2.1c3.6,3,1.7,1.3,3.5,4c0.5,0.8,2.9,4.1,2.9,4.4
				c0.5,0.4,0.3,0.6,1,0.7c0-2.2-2.6-4.1-3.7-7.2c-0.1-1.4-0.7-0.6-1.7-1.4c-0.6-0.5-0.9-0.9-1.4-1.7c-0.6-0.8-2.8-3-2.9-3.3h-3.4
				c0,0.5,0.2,0.6,0.5,1C109.5,3.5,116.3,13.3,116.4,13.8L116.4,13.8z"/>
			<path class="st0" d="M40.8,15.1c0.4,1.6,0.9,2.8-0.4,2.4C39.5,17.1,40.4,15.3,40.8,15.1z M69.7,16c0-0.4,0.4-1.8,0.5-2.3
				c0.1-0.6,0.2-1.8,0.7-2.2c0.8,0.4,1,1.7,0.3,2.5c-0.2,0.3-0.5,0.7-0.8,1C70.2,15.4,70.1,15.9,69.7,16z M63,31.8L62.5,31
				c-0.6-1.4-0.4-1.6-0.5-3.2c-0.1-2.8-0.1-6.7-0.1-9.6c0-1.7-0.2-1.8,0.8-2.9c0.4-0.4,0.5-0.2,0.8-0.5c0-1.3-0.1-10.2,0.2-10.7
				c0.4,0.1,0.2,0,0.4,0.4c0.1,0.3,0.1,0.4,0.2,0.7c0.1,0.6,0,1.3,0.1,1.9c0.1,3.9-0.4,6.4-0.6,10.3c-0.1,2.4-0.2,4.8-0.2,7.1
				L63.5,30C63.3,30.8,63.5,31.5,63,31.8z M50.3,18h-0.5v0.6l0.3,1.1c-0.8-0.1-1.9-2.7-2.2-3.6c-0.6-1.6,1.8-2.8,2.1-3.7
				c-0.2-0.2-0.1-0.2-0.6-0.4c-0.4-0.2-0.3,0-0.5-0.3c0.8-0.5,1.9,0,1.8-0.8l-0.3-0.8c0-0.2,1.5-2,1.9-2.1c0.2,3.2-0.2,6.1-0.5,9.1
				c-0.1,1,0.1,2.4,0,3.2c-0.5-0.2-0.6-0.7-0.8-1.1C50.7,18.9,50.2,18.3,50.3,18z M54.3,5.3c1.9-0.2,1.3-1.2,1.6-2.4
				c0.2-0.9,0.4-0.7,0.6-0.8c0.2,0.4,0.1,0.5,0.2,1.1l0.6,7.1c0.2,2.7,0.6,5.7,0.7,8.3c-0.5-0.2-0.2,0-0.5-0.3l-0.6-1
				c-0.3-0.5-0.5-0.9-0.8-1.3c-1-2-4-8-1.7-9.4C54.4,6.2,54.2,5.8,54.3,5.3z M19.8,1.1c0.1,0.7,0,1.5,0.1,2.3
				c0.4,3.4,1.1,7.5,1.6,11c0.3,1.8,0.9,3.3-1.4,3.2c-1.6-0.1-18.6-1.1-18.5-1.3H1v2.2c0.4,0.2,0.9,0.4,1.4,0.4L3,18.8
				c-0.6-0.8-0.3,0.3-1.1-0.4c0-0.1,0,0,0-0.2C2.2,17.4,2,18,2.3,17.7c0.1-0.1,0.2-1.5,1.9-0.8c1.2,0.4,1.7-0.1,2.2,0.2l-0.6,0.2
				c0.1,0.4-0.1,0,0.9,0.1c0.6,0,0.2,0.1,0.8,0.2l0.7,0.2c0.6,0.2,0.5-0.1,0.8,0.4c0,0,0,0,0,0.1c0.4-0.1,0.2-0.2,0.5-0.3
				c0.4,0.5-0.1,0.3,0.5,0.3c0.2,0,0.4-0.1,0.7,0c0.5,0.1,0,0.2,0.7,0.2c1,0,0.1-0.2,0.7-0.2c-0.4,0.3,0.1,0.4,0.1,0.4
				c1-0.3,0.2-0.1,1-0.1l1.5-0.1v0.1c0,0,0,0,0,0.1c0.1,0.3,0,0.7,0.1,0.7l-0.1-0.6c0-0.1,0-0.2-0.3-0.2c-0.2,0-0.3,0-0.5,0
				c-0.5,0.8-0.5-0.3-1.2,0.5c0.3,0.2,0,0.1,0.6,0.3l1.3,0.6c0.2,0.1,0.2,0,0.4,0.1l0.3,0.3h-0.3c0,0-0.1,0-0.4,0c0.2,0,0,0,0.1,0.2
				c0.1,0.1,0.4,0.3,0.5,0.3l0.6-0.3c0.1-0.1,0.1-0.1,0.3-0.1c1-0.1,0.6,0,0.9-0.4c0.7,0,1.5,0.1,1.7,0c0.3-0.2,0,0,0.3-0.2
				c-0.1-0.2-0.1-0.4-0.4-0.3c0.3-0.2,0.3-0.5,0.4-0.9l-3,0.1c-0.5-0.2-0.2,0.1-0.4-0.4c1.4-0.5,3.2,0.2,4-0.1c0.6-0.3,0.1,0,1.2,0
				c1.2,0,0.9-0.3,1.5-0.2h0.3c0.2,0,0.8,0,1.1,0c0.5,0,0.8-0.1,1.2-0.1l0.1,0.3c-0.2,0.3-0.2,0-0.3,0.3c0.4,0,0.7-0.1,0.9,0.1
				c0.7,0.9-1.3,0.6-2.1,0.6c-1.2,0-2.4,0-3.7,0c0-0.6,0.2-0.6,0.3-0.8c-0.5,0.1-1.3,0.4-0.9,1c0.1,0.3-0.1,0.1,0.2,0.2
				c0.2,0,0.1,0,0.2,0c0.2-0.1-0.2,0,0.3-0.1c1.3,0,2.9,0.1,4.3,0.1c0.5,0,0.9,0.1,1.3,0.1c0.6,0,0.5-0.2,1.1,0.1
				c0.6,0.3,0.7,0.2,1.3,0.3c-0.1,0.1,0.1,0.3-1.2,0.3c-0.4,0-0.8-0.1-1.3-0.1v-0.1c0,0,0,0,0-0.1C25,19.9,24.3,19.9,24,20
				c-1,0.3-1,0.1-2,0v0.3c2.8,0,2.8,0.5,6.8,0.1c1.2-0.1,2.4,0.1,3.5,0.2c3.3,0.2,4-1,6.7,0c0.6,0.2,1,0.2,1.7,0.2s0.9,0.2,1.6,0.3
				c1.7,0.3,1.1-0.9,3.8,2.8l0.2,0.3c0,0,0,0,0,0.1v0.1c0.2,1.1-5.7-0.4-6.3-1c-1.1-0.1-3.4,0.8-3.5,1.6c1.2,0,1.2-0.2,2.8,0
				l0.6,0.1c0.3,0.1,0.1,0,0.2,0.1c0.6-0.1,1.8,0.4,2.4,0.6c1.1,0.2,1.6,0.1,2.6-0.1c3.1-0.5,2.8,1.8,4.1,1.9
				c-0.3-1.4-5-8.4-4.4-9.4c1.4,1,3.7,5.8,5.8,5.8l-0.1-0.5c-0.4-0.2-3.1-4-3.5-4.7c-0.4-0.6-0.9-1-0.9-1.9c0.5,0.2,0.1,0.1,0.6,0.7
				c0.7,0.9,4,4.8,4,5.2c0.2,0.1,0,0,0.3,0.2l0.7,0.8c0.1,0.2,0.2,0.4,0.5,0.4c0.9,0.1,0.4-2.4,0.4-4.2c0-1.3-0.1-2.6,0-3.9
				c0-0.6,0.2-2.9,0.7-3.4c0.3,0.1,0.1,0.1,0.4,0.7c0.1,0.3,0.3,0.5,0.4,0.8c0.9,1.9,1.4,2.9,2.6,4.7c2.1,3.4,1.3,3.9,1.8,8
				c0.2,2,0,4.4,1.2,6.1c0.5,0.7,0.8,0.8,1.2,1.3c0.5,0.6,1,4.8,1.2,6.1c0.1,0.6,0.2,1.8,0.9,1.5l0.1-0.2c0.1-0.5-0.2-3.1-0.3-3.7
				c-0.2-2,0-3.6-1.4-5c-0.3-0.3-0.8-0.6-1-1.2C59.9,30.9,59,20.9,59,20c-0.2-2.9,0.3-5.3,0.9-7.7c0.3,0.1,0.3,0,0.5,0.5
				c0.1,0.2,0.2,0.4,0.3,0.7c0.3,1.3,0.2,11.2,0.2,12.9c0,1.1,0,2.4,0.1,3.6c0.1,1.6,0.5,1.8,1.2,2.6c2.4,2.7,0.3,8,2.3,12.7
				c0.9,2.2,1.3,3,1.8,5.7c0.3,2.1,0.7,4.3,1,6.4c0.1,1.1,0.8,5.8,1.2,6.2c0.8-0.3,0.2-2.4,0.1-3.2c-0.4-3.4-1.1-7.1-1.4-10.3
				c-0.8-6.8,3.6-5.6,4-11.5V21.2c0-1.6,0.1-1.9-0.6-2c0,0.4-0.2,1-0.2,1.5l-0.1,5.7c0,2.6-0.1,5.2,0,7.7c0.1,3.7-0.2,6.4-2.3,9.3
				l-1.8,2.1c-0.3-0.2-0.1,0-0.3-0.3c-0.1-0.1-0.2-0.2-0.3-0.4c-1-1.5-1-6.2-0.9-7.9c0.1-6.6,0.3-13,0.8-19.6c0.2-2.8,0.1-6,0.1-8.8
				c0-0.8-0.1-1,0.2-1.2c0.6-0.5,1,1,1.6,1.6c0.6,0.5,1.5,1.1,0.9,2.2c-0.4,0.9-2.5,3.4-2,4.8c0.6,0,0.6-0.3,1-1.2
				c0.8-1.8,0.9-2,2.1-3.4c0.2-0.3-0.1,0,0.3-0.3c0.1-0.1,0.2-0.1,0.3-0.2c0.1,0.5-1.3,3.9-1.1,6.7c0.6,0.1,3.1-1.4,3.7-1.8
				c0.6-0.4,1.1-0.6,1.8-1.1c0.8-0.5,1.2-0.5,1.9,0.1c1.7,1.5,1.3,0.3,1.9,3.6c0.3,1.7,0.5,3.3,0.8,5c1,6.4,1.8,13.1,2.9,19.6
				c0.3,2,0.6,3,0,4.9l-4.2,12.7c-0.4,1.3-0.9,2.9-1.4,4.2c-0.7,1.8-1.3,2.3-0.9,4.5s1.2,5.7,1.9,7.8l0.4,0.9l0,0l0.6,0.1l0.1-0.6
				c-0.7-1.8-1.3-5.1-1.7-7.1c-0.5-2.5,0.7-5.1,1.4-7.2c1.5-4.5,2.9-8.9,4.5-13.4c1.3-3.7,1-3.6,0.4-7.4c-0.4-2.5-0.6-5.7-0.8-8.2
				c-0.1-2.2-1.4-15.9-1.1-16.7c0.7,0.1,2.6,1.1,3.1,0.8c0-0.6-0.4-0.6-1.5-1.2l-1.4-0.7c-0.4-0.2-0.3-0.1-0.4-0.4
				c0.5-0.2,3.8,0.7,4.8,0.7c0-0.4-0.1-0.4-0.4-0.6l-2-1.3c-0.9-0.5-1.8-1.1-2.6-1.6l-3.8-2.4c-0.4-0.3-0.8-0.8-1.4-0.7
				c-0.2,0.7,0.1,0.6,1.2,1.3l4.9,3.2c-0.4,0.2-5.4-1.5-6.1-1.8c-2.6-1-2.5-1.3-3.6-2.5c-0.3-0.3-0.7-0.7-1.1-1
				c-1.8-1.4-5.6-5.7-7.3-7.9c-0.2-0.3-0.3-0.3-0.5-0.6h-2.6v0.3c2.4,1.4,2.3,2.4,2.2,5.7c0,1.1,0.3,7.2,0,7.6
				c-0.4-0.1-0.4-0.3-0.5-1.2c-0.1-0.5-0.1-1-0.1-1.5c0-1.1,0-2.1-0.1-3.2c0-1.1-0.1-2.2-0.1-3.3c0-0.7,0-2.2-0.8-2.3
				c-0.6,1.1-1.8,9.3-2.3,9.9c-0.2-0.2-0.1,0-0.2-0.4V6.6c0-1.9,0.1-4.3,0-6.1H42.2c-0.3,0.6,0,1.6,0.1,2.3c0.2,0.8,0.2,1.4,0.4,2.2
				c0.4,1.4-0.3,1.2-0.5,2C41.9,7.9,42.7,8.8,42,9c-0.6,0.3-0.9-0.9-1.2-1.3l-2.6-5.1c0.3-0.3,0.2-0.1,0.5-0.3
				c-0.1-0.4-1.3-1.3-1.6-1.8h-4.5c-0.1,0.1-0.2,0.2-0.2,0.3c0,0,0,0-0.1,0.1l-0.2,0.2c0,0.5-0.7,1.8-1,2.3c-1,0-3.1-1.8-4.2-1.4
				c-0.5,0.8,0.1,2.3-0.4,3.2c-0.2,0.4-0.6,0.5-0.5,1.2c0.1,0.5,0.2,1,0.1,1.5l-1,0.2c0.1,0.8,1.1,0.8,0.9,2.5
				c-0.1,0.7-0.5,1.9-1.1,2.1l0.2-3.2c-0.4,0-0.2,0.1-0.7,0.2l-0.5-2.1c-0.2-0.7-0.3-1.3-0.5-2c-0.2-0.7-1-3.4-0.8-3.9
				c-0.2-0.2-0.2-0.8-0.3-1.2h-2.6L19.8,1.1L19.8,1.1z"/>
			<path class="st0" d="M82.2,2.3c0.2-0.2-0.1-0.1,0.3-0.1l1.3,0.9c0.5,0.3,4.4,3.1,4.5,3.3c-1.1,0-2.7-1-3.5-1.7
				c-0.5-0.3-1.1-0.8-1.5-1.1C82.5,3,81.8,2.7,82.2,2.3z M72,1.2c0.2,0.1,1.6,1.8,1.8,2c0.6,0.6,1.2,1.3,2,1.9
				c2,1.5,14.2,8.2,15.8,7.9c0-0.6-1-0.9-2-1.5c-4.6-2.4-6.8-3-11.8-6.2c-0.8-0.6-3.7-2.9-3.9-3.6c1.9,0.2,4.9,1.8,6.3,2.5
				c3.4,1.7,9,3.6,12,5.3c3.2,1.8,5.6,1.4,6.7,2c0,0.9-0.7,2.6-0.8,4c-0.1,1.5-0.3,3-0.4,4.6c-0.2,2.8-0.4,6.1-0.7,8.9
				c-0.1,2.1-0.4,4.3-0.5,6.4c-0.1,1.2-0.1,2.1,0.3,3.2c0.4,1.3,0.4,1.4,0.2,2.9c-0.2,1.5-1.8,11.3-1.4,11.9
				c1.2-0.7,3.4-13.7,3.1-15.9c-0.2-0.2,0-0.1-0.4-0.1c-0.2,0.2-0.4,0.1-0.7,0.1c-0.4-0.8,0-2.2,0.1-3.2l2.9-19.7
				c0.1-0.7,0.7-2.7,0.7-3.1c-0.7-0.4-1.8-0.8-2.6-1.2c-2.4-1.1-4.7-2.7-7-3.9c-2.6-1.4-5.9-2.8-8-4.9c-0.3-0.3-0.7-0.6-0.9-0.8
				h-1.5c0.1,0.8,0.6,0.6,0.8,1.3c-0.6,0.4-1.7,0.1-2.2-0.2l-1.5-1.2h-1.3c0,0.9,0.7,0.6,0.8,1.4c-0.4-0.1-2.7-1.2-2.9-1.4h-3.2
				C71.8,0.9,71.8,0.8,72,1.2L72,1.2z"/>
			<path class="st0" d="M1,31.5c0.4,0.4,3.4,1.2,4.1,1.4c-0.1,0.6-0.4,0.5-0.2,0.9c0.3-0.1,0.2-0.1,0.5-0.2c0.2-0.3,0.9-0.3,1.2-0.2
				c0.4,0.1,0.7,0.4,1,0.6c2,1.3,2.7,1.1,5,1.7c1.6,0.4,2,0.1,3.1-0.2c0.1-0.1,0.6-0.5,0.7-0.7c0.2-0.2,0.5-0.6,0.8-0.4
				c0.4,0.2,0.3,0.3,0.8,0.2c0.7-0.1,1.7-0.4,2.4-0.4c0.3,1.1-0.3,0.7,1.7,0.7c1.4,0,5.2,1.1,6.6,1.4c1.1,0.3,7.8,2.3,8.6,1.7
				c0.7-0.7-3.3-1.4-3.8-1.5c-4.2-1-8.9-2.6-12.9-4c-1.7-0.6-3.2-0.8-4.6,0.1c-1.3,0.9-2.2,1.5-4.2,1.3c-1.7-0.2-3-0.7-4.3-1.3
				c-0.7-0.3-1.2-0.7-1.8-1c-0.3-0.2-0.7-0.2-1-0.4c-0.6-0.3-0.3-0.5-0.7-0.8c-0.3,0.2-0.2,0.3-0.4,0.6c-0.9,0.1-2-0.6-2.7-0.5V31.5
				z"/>
			<path class="st0" d="M5.6,35.8C8.3,36,16,40.2,17.3,40.2c1.5,0,2.1-1.7,3.2-2.3c1.2-0.7,3.1,0.1,4.4,0.4c3.8,0.9,5.3,1.3,9.1,1.6
				c1.1,0.1,4.4,0.8,4.2-0.6c-0.7-0.2-0.4,0.4-2.3,0.1c-0.8-0.1-1.5-0.3-2.3-0.4c-3.6-0.6-5.5-0.5-9-1.8c-3.6-1.3-3.8-2.2-5.7-0.4
				c-2.2,2.1-2.3,1.9-5.8,0.8c-0.7-0.2-1.4-0.4-2.1-0.7c-1.2-0.4,0.3-0.3-1.8-0.9c-0.5-0.2-4-1.1-4.1-1.2H4.6
				C4.2,35.4,5.2,35.4,5.6,35.8z"/>
			<path class="st0" d="M91.4,17.2c-0.6,1.3-1.1,8.7-1.3,10.8c-0.1,1.8-0.9,10.1-0.7,11.2c0.9-0.1,0.4-1.7,0.8-2.3
				c-0.1-0.9,0.6-5.8,0.7-7c0.1-1.5,0.8-9.2,1.3-10.4c0.5-1.3,1-1.4,1.7-2.2c1.2-1.3,1.7-4.4,0.7-6.1c-1.4,0.1-0.8,3.3-2.2,4.7
				C91.9,16.5,91.7,16.5,91.4,17.2z"/>
			<path class="st0" d="M103.3,25.6l0.1,0.4c0.2-0.1,0.3-0.3,0.5-0.4c0-0.4,0.7-1.6,0.9-1.9c0.5-0.7,1.3-0.2,1.6-1.2
				c0.3-1.1-0.2-1.1,0.6-2.3c0.6-1,0.8-1.4,1.3-1.4c0,0.5-1,2.6-1.3,3.3c-0.7,2-0.9,1.8-2.3,2.2v0.6c0.6,0.4,2.6,0.6,3,0.9l0.6,0.1
				c0.4-0.7-0.9-0.7-1.1-1.8c1.3,0,1.8,0.7,2.6,0.7c-0.1-0.5-0.4-0.7-0.1-1.2c0.4-0.5,1.6-0.5,1.6-1.5c-0.8-0.1-2.6,0.8-3.5,1
				c0.4-1.8,1.1-0.3,2.1-1.7c0.4-0.6,1.4-1.6,0.6-1.5c-0.2,0-0.6,0.4-0.8,0.5c-0.4,0.3-0.7,0.7-1.1,0.6c0-0.6,1.6-2.9,1.6-3.6
				c-0.4,0-2.4,0.8-2.8,1c-0.6,0.4-1.5,1.4-1.9,2C104.1,22.3,103.7,25.1,103.3,25.6z"/>
			<path class="st0" d="M141.6,46c0.1-0.3,0.5-1.3,0.6-1.6c0.2-0.5,0.5-1.1,0.7-1.7c0.2-0.6,0.4-1.2,0.7-1.8l0.5-1.3
				c0.2-0.4,0-0.2,0.3-0.4c1.2,0.5,0,2.8-0.4,3.9C143.6,44.3,142.8,45.8,141.6,46L141.6,46z M142.5,38.9l0.2-0.1c0,0,0.1,0,0.1-0.1
				c0,1.9-1.8,6.6-2.8,7.7c-0.1-0.1,0,0-0.1-0.3c-0.3,0.2-0.2-0.2-0.3,0.4c-0.1,0.5,0,0.2,0.1,0.4l-0.7,0.2l-0.1-0.3
				c-0.3,0.3-0.5,1-0.5,1.4l1-0.2c0.2-0.2,2-0.8,2.4-1c1-0.3,1.8-0.7,2.3-1.3c0.9-1.1,1.3-4,2.5-4.6c0.3,0.1,0.6,0.4,0.8,0.6
				c0.4,0.3,0.5,0.4,0.4,1.1l0.3-0.8c0-0.1,0-0.2,0.2-0.3h0.1c0,0,0,0,0.1,0l-1.9-1.5h-0.1l-0.2,0.1c-0.3,0.2-0.4,0.3-0.7,0.2
				c-0.4-0.1-0.1,0-0.3-0.1c0-0.1-0.1-0.3,0-0.6c0-0.1,0-0.1,0.1-0.2c0.2-0.2,0,0,0.1-0.1l0.1-0.1c-0.2-0.4-0.2,0.1-0.7-0.7
				c-0.4-0.6-1.2-0.5-1.5-0.8l-0.6-0.7c-0.1,0.1-0.2,0.4-0.3,0.6C142.5,38.7,142.5,38.3,142.5,38.9L142.5,38.9z"/>
			<path class="st0" d="M198.7,134.2l0.8,0.1l-0.1-0.5c-0.3-0.1-0.2-0.5-1.4-1.2c-1.8-1.1-3-2.1-5.3-2.9c-1.4-0.5-2.4-1.3-3.1-2.3
				c-1.6-2.5-0.6-3.8-1.7-3.7c-0.4,0.8-0.1,1.7,0.1,2.4c0.2,0.7,0.3,1.7,0.5,2.2c0.5,1.2,1.9,1.8,3.1,2.4
				C193.8,131.8,197,133.2,198.7,134.2L198.7,134.2z"/>
			<path class="st0" d="M214.5,0.6H208c0.1,0.4,0.1,0.3,1.4,0.6c0.4,0.7,0.1,1.5,1.4,1.3c0-0.7-0.2-0.2-0.3-0.9
				c1.3,0.3,2.4,1.7,4.9,2c1.9,0.2,4.3,2,5.4,1.3c-0.1-0.4-2.8-1.8-3.2-2C216.6,2.3,215.2,1.2,214.5,0.6z"/>
			<path class="st0" d="M226.6,145.8c0.7,0.2,2.2,1.4,2.7,1.9l2.5,2h2.3c0-0.5-0.2-0.5-0.5-0.9c-0.1-0.2-0.3-0.5-0.5-0.9
				c-0.7-1.3-1.4-2-2.8-2.7c-0.6-0.3-1.4-0.4-1.9-0.7l-0.8-0.1l-0.1,0.9h-1L226.6,145.8z"/>
			<path class="st0" d="M186.8,50.7c0.2,0.6,0,1.4,0.1,2c0.1,0.7,0.4,1.1,0.5,1.7c0.5,0.3,0.5,0.6,1.3,1c0.8,0.3,1.2,0.5,1.9,0.1
				c0-0.2,0.3-0.7,0.4-0.9c0.4-0.5,0.5-0.2,1-0.4c0.2-1.3-2-1.8-2.4-2c-1.3-0.5-1.3-1-1.6-1.8c-0.2-0.4-0.3-0.3-0.5-0.6l-0.5-0.1
				L186.8,50.7C186.8,50.6,186.8,50.7,186.8,50.7z"/>
			<path class="st0" d="M237.1,21.8v-2.5c-0.5-0.2-0.7,0-1-0.4c0.4-0.3,0.5,0,1-0.1v-1.2l-0.6-0.1c-0.9,0.1-1.8,0-2.6-0.4
				c-0.4-0.3-0.5-0.5-0.9-0.7c-0.2-0.2-0.7-0.3-0.8-0.5c-0.5,0-0.2-0.1-0.4,0.1c0,1.5,0.9,2,2.4,3.2c2.4,2.1,1.2,1.8,1.8,2.3
				C236.2,21.6,236.8,21.8,237.1,21.8z"/>
			<path class="st0" d="M196.7,1.3c0.8,0,1.8,0.3,2.7,0.5c1.4,0.2,4.5,0.7,5.7,0.3c0.7-0.2,1.6-0.9,1.7-1.5h-11.8
				c0.1,0.3-0.1,0.1,0.3,0.3c0.1,0,0.4,0.1,0.5,0.1C196.1,1.1,196.4,1.1,196.7,1.3L196.7,1.3z"/>
			<path class="st0" d="M108.4,41.5c0.6-0.1,1.4-0.9,2.2-1.1c1-0.2,1.7,0.6,1.7,1.4c-0.7,0.7-1.7,0.6-1.9,1.4
				c0.5,1.1,2.3-0.2,2.8-0.6c0.7-0.5,1.6-1.6,0.7-2.7C112.3,38.1,108.6,40.2,108.4,41.5z"/>
		</g>
	</g>
</g>
</svg>
