<?xml version="1.0" encoding="utf-8"?>
<!-- Generator: Adobe Illustrator 24.0.2, SVG Export Plug-In . SVG Version: 6.00 Build 0)  -->
<svg version="1.1" id="Слой_1" xmlns="http://www.w3.org/2000/svg" xmlns:xlink="http://www.w3.org/1999/xlink" x="0px" y="0px"
	 viewBox="0 0 238.1 150.2" style="enable-background:new 0 0 238.1 150.2;" xml:space="preserve">
<g>
	<path d="M136.6,51.6c-0.4,0-0.9,0-1.5,0.1c1.5-1.4,3.1-2.5,4.2-4.1c-1.3-1.2-2.7-2.4-4-3.5c0.5-0.8,1.3-1,2-1
		c1.7-0.1,3.3-0.6,4.9-1.3c0.4-0.2,1-0.3,0.9-1.1c-0.4,0.5-1,0.9-1.6,1c-0.5,0.1-1.1,0.3-1.7,0.1c0.6-0.2,1.3-0.4,1.8-0.6
		c-0.6-2.5-0.6-4.9-1.1-7.3c1.1-0.6,1.9-0.1,2.9,0.2c0.3,0.1,0.8,0.3,1.1,0.4c0.5,0.1,1.2,0.2,1.8,0.4c0.1,0,0.2,0.1,0.3,0.2
		c0.3,0.5,1,0.6,1.5,0.6c0.8,0,1.5,0.1,2.3,0.5c-0.2-0.6-0.6-0.9-1.2-1.2c-0.3-0.2-0.5-0.4-0.5-0.9c-0.1-0.9,0-1.6,0.1-2.5
		c0.2-1.1,0.3-2.3,0.5-3.3c0-0.1,0.1-0.2,0.1-0.4c1.2,0.4,2.1,1,2.9,2c0.1,0.2,0.3,0.3,0.5,0.4c0.9,0.5,1.8,1,2.7,1.5
		c0.5,0.3,1.1,0.2,1.5-0.1c0.9-0.8,1.7-1.5,2.5-2.3c-0.6,0.1-1.1,0.4-1.5,0.9c-0.3,0.3-0.6,0.5-1,0.9c-0.2,0.2-0.5,0.4-1,0.2
		c0.3-1.1,1.3-1.6,2.3-2c0.9-0.3,1.8-0.6,2.6-1.2c1.3-0.8,1.8-0.5,2.4,0.9c0.4,1.1,1,2.1,1.4,3.3c0.2,0.6,0.8,1,1.4,0.9
		c1.1,0,2.1-0.1,3.2-0.2c0.9-0.1,1.6-0.3,2.5-0.4c0.4,0,0.9-0.2,1.2,0.2c0.2,0.4,0.2,1-0.1,1.4c-0.5,1-0.5,2-0.9,3.1
		c-0.1,0.4,0.1,0.5,0.6,0.5c1.3,0,2.7,0.1,4,0.1c0.6,0,1.3,0,1.8,0c0.3,0.3-0.4,0.9,0.4,1c-0.5,1.5-1.3,2.9-2,4.2
		c-0.2,0.5-0.5,1-0.9,1.4s-0.2,0.9,0,1.2c0.2,0.3,0.5,0.6,0.9,1c1,1,1.8,1.8,2.8,2.8c-0.1,0.2-0.1,0.3-0.2,0.5c-0.3,0-0.6,0-1,0
		c0.2,0.6,0.9,0.2,1.2,0.5c-0.6,0.4-2.7,0.5-3.6,0.2c0.3-0.1,0.6-0.1,1-0.2v-0.1c-0.2-0.1-0.5-0.1-0.8-0.2c0.1-0.2,0.1-0.4,0.2-0.6
		c-0.8-0.2-1.4-0.3-2.1-0.4c0.8,1.2,1.6,2.3,2.4,3.4c0.5,1,1.1,1.9,1.1,3c0,0.1,0,0.3,0,0.4c-1.1,0.1-1.8-0.2-2.6-1l0,0
		c-0.5-1-0.5-2.1-1-3.2c-0.2-0.6-0.4-1.2-1.1-1.5c-0.1,0-0.2,0-0.3,0c0.5,0.5,0.8,1.2,0.8,1.8c0.1,1.3,0.4,2.5,0.6,3.6
		c0,0.2,0,0.5,0.1,0.8c-0.5,0-0.6-0.4-0.8-0.8c-0.2-0.4-0.3-0.8-0.5-1.2c-0.2-0.5-0.4-0.9-0.9-1.2c-0.4-0.3-0.5-0.9-0.9-1.4
		s-0.5-1.1-0.9-1.6c-0.1-0.3-0.2-0.8-0.3-1.1c-0.1-0.5-0.2-1-0.2-1.5c-0.4,0.2-0.2,0.5-0.2,0.8c0.3,2.5,0.2,4.9,0.2,7.5
		c0,0.6,0,1.4-0.1,2c-1.4-3.6-2.6-7.5-5.1-10.7c-0.2,1,0.6,1.5,1.2,2.1c-5.7-0.2-11-0.2-16.5,0.1c0-0.1,0.1-0.2,0.1-0.2
		c-0.5-0.3-0.8-0.9-1.1-1.6c-0.1,0.5-0.1,0.9-0.2,1.2c-0.2,0.5-0.4,1.2-0.8,1.7c-1.1,1.6-1.8,3.4-2.6,5.3c-0.2,0.5-0.4,1-0.6,1.4
		c-0.3-1-0.1-6,0.3-9.3c-0.1,0.1-0.1,0.3-0.2,0.4c-0.8,1.3-1.5,2.6-2.1,3.9c-0.3,0.5-0.6,1.2-0.6,2c0.8-1.3,1.4-2.5,2-3.6
		c0,1.1-0.2,2.1-0.8,3.1c-0.3,0.5-0.6,1-0.9,1.5c-0.4,0.8-0.8,1.6-1.1,2.5c-0.1,0.2-0.2,0.4-0.3,0.9c-0.3-1.1,0-1.8,0-2.7
		c0.2-2.1,0.5-4.4,0.9-6.5c0-0.1,0-0.2,0-0.5c-0.6,1.3-1.8,1.4-2.9,1.6C137.7,51.4,137.2,51.5,136.6,51.6L136.6,51.6z M176.4,42.2
		L176.4,42.2c-0.6,0.5-1.3,1.3-1.8,1.9c0.1,0.3,0.2,0.5,0.3,0.8C175.4,44,176,43.1,176.4,42.2z M142.2,50.2c0.5-0.8,0.6-1.7,0.8-2.6
		C142.3,48.3,142.4,49.2,142.2,50.2z M140.9,47.4c0,0,0.1,0,0.2,0.1c0.2-0.4,0.4-0.8,0.6-1.2c0,0-0.1-0.1-0.2-0.1
		C141.3,46.5,141.1,47,140.9,47.4z M150,35h0.1c0-0.2,0-0.3,0-0.5c-0.1,0.1-0.1,0.2-0.1,0.2C149.9,34.6,150,34.8,150,35z"/>
	<path d="M186.2,149.9c-6.3,0-12.9,0-19.4,0c0-0.9-0.1-1.7,0-2.5c0.2-1.8,0.2-3.6-0.2-5.4c0-0.1,0-0.2,0-0.3
		c0.9-0.8,1.8-1.4,2.7-2.1c1-0.8,1.8-1.5,2.8-2.4c0.1-0.1,0.2-0.3,0.4-0.4c0.5-0.9,0.4-1.3-0.6-1.5c-0.1,0-0.2,0-0.3,0
		c0,0.1,0.1,0.2,0.1,0.2c1.1,0.1,1.2,0.2,0.5,1.1c-0.2,0.3-0.5,0.5-0.9,0.8c-1.3,1.1-2.6,2-4,3.1c-0.3-0.2-0.5-0.3-0.9-0.5
		c0.1-1.6,0.1-3.2,0.2-4.8c0-0.9,0.1-1.7,0.1-2.6c0-2.6,0.1-5.1,0.1-7.7c0-1.8,0.1-3.6,0.1-5.4c0-0.6,0.1-0.8,0.8-0.9
		c1.3-0.2,2.6-0.4,4-0.5c4.5,0,9.1,0,13.6,0c1,0,1.1,0,1.1,1.1c0,2,0,4.2,0,6.3c0,1.2-0.1,2.4-0.2,3.5c0,0.2-0.1,0.5-0.2,0.9
		c-0.3-0.6-0.3-1.3-0.2-1.8c0.3-1.7-0.1-3.3-1.1-4.7c-0.9-1.4-1.8-2.7-2.7-4c-0.3-0.4-0.8-0.6-1.4-0.8c0.8,0.5,1,1.2,1.2,1.9
		c0.6,1.9,1.3,3.9,1.9,5.8c0.5,1.7,1.1,3.5,1.5,5.3c0.8,2.9,0.9,6,0.9,9c0,1.1,0.1,2.1,0,3.1c-0.1,1,0,1.8,0,2.8
		c0,0.8,0.1,1.5,0.1,2.1c0,0.2,0,0.5,0,0.8C186.2,149.4,186.2,149.6,186.2,149.9z M169.2,141.1c0.1,0,0.2,0,0.2,0
		c1.5-1.1,2.9-2.3,4.2-3.6c0.5-0.5,1-1.1,1.2-2c-0.4,0.5-0.8,1.1-1.1,1.4c-1.3,1.4-2.7,2.6-4.2,3.9
		C169.4,140.7,169.3,140.9,169.2,141.1c-0.3,0.2-0.8,0.4-1.2,0.6l0.1,0.1C168.5,141.7,169,141.6,169.2,141.1z M173.7,118.2
		c0.2,1.4,0.5,2.7,0.6,4s-0.1,2.6-0.6,4C175.1,125,175,119.6,173.7,118.2z M184.8,142.7C184.7,142.7,184.7,142.7,184.8,142.7
		c0,1.2,0,2.4,0,3.5l0,0C184.8,145.1,184.8,143.9,184.8,142.7z M170.1,127C170.1,127,170.1,127.1,170.1,127c0.2,0.1,0.3,0,0.5,0
		c0,0,0,0,0-0.1C170.4,127,170.2,127,170.1,127z"/>
	<path d="M130.4,146.1c-0.1-0.9-0.1-1.5-0.2-2.1c-0.1-1-0.3-1.8-0.4-2.8c-0.1-0.5-0.2-1-0.2-1.5c0-1.7,0-3.3,0.1-5
		c0-0.8,0.2-1.5,0.2-2.3c0-0.9,0-1.8-0.1-2.7c-0.2-1.3-0.4-2.7-0.6-4.1c0-0.3-0.1-0.5-0.1-0.9c0-1.7,0-3.4,0-5.1
		c0-0.5,0.1-1.2,0.2-1.8c1-0.1,1.8,0,2.7,0s1.8,0,2.7,0c0.3,0,0.5,0,0.9,0c2.6,0,5.3,0,7.8,0c1.4,0,2.8,0.2,4.2,0.3
		c0.5,0.1,0.8,0.3,0.8,1c0,0.4,0,0.9,0,1.2c0,2,0,4.2,0.3,6.2c0.2,1.7,0.2,3.4,0.2,5.1c0,5.6,0,11.1,0,16.7c0,0.4-0.1,1-0.1,1.3
		c-0.8,0.2-17.6,0.2-18.4,0c0-0.2,0-0.4,0-0.5c0.5-1.8,1-3.6,1.6-5.5c0.6-1.8,1.7-3.5,2.8-5.1c1.6-2.5,3.2-4.9,4.5-7.6
		c0.2-0.5,0.5-1.1,0.6-1.7c-0.5,0.6-1.1,1.3-1.6,1.9c-1,1-2.3,1.5-3.6,1.7c-1.1,0.1-2-0.4-1.9-1.6c0.1-1.4-0.1-2.8,0.1-4.1
		c0.2-1.7,0.5-3.3,0.9-5c0.1-0.8,0.4-1.6,0.5-2.4c0.1-0.5,0.3-1.1,1-1.4c-1.7,0.3-3.5-0.1-5.3,0.3c-0.1,1.4-0.2,2.8,0,4.2
		c0,0,0,0.1,0,0.2c0.1,1.9,0.2,3.9,0.2,5.8c0,3.1,0,6.2,0,9.4c0,1.5,0.2,2.9,0.3,4.4C130.6,143.9,130.8,144.9,130.4,146.1z
		 M137.5,138h0.1c0-0.3,0-0.8,0.1-1.1c0-0.3,0.1-0.8,0.1-1.1h-0.1C137.7,136.6,137.6,137.2,137.5,138z M142.6,148.6
		C142.6,148.6,142.5,148.6,142.6,148.6C142.5,148.6,142.5,148.6,142.6,148.6c-0.2,0.2-0.3,0.3-0.5,0.8
		C142.5,149,142.5,149,142.6,148.6z"/>
	<path d="M149.3,69.8c-1.5,0.1-3.1,0.1-4.6,0.2c0-0.9,0.2-1.6-0.2-2.6c-0.1,0.4-0.1,0.8-0.1,1.1c-0.3-2-0.4-4-0.1-6
		c0.4,0.4,0.3,1.1,0.4,1.6c0.4-0.3,0.2-0.9,0.3-1.3c0.2,0.2,0.3,0.4,0.5,0.6c0.4-0.1,0.9-0.2,1.3-0.4c-0.4,1.5,0,2.7,0.8,3.9
		c0.3,0.5,1.1,0.8,1.7,0.8c1,0,1.9,0,3-0.1c-0.8-0.1-1.5-0.1-2.3-0.2c-0.8-0.1-1.5-0.1-2-0.8s-0.6-1.7-0.2-2.6
		c0.1,0.4,0.2,0.8,0.2,1.1c0.1,0.9,0.4,1.5,1.3,1.7c0.9,0.2,1.7,0.2,2.5-0.4c0.3-0.2,0.4-0.6,0.6-1.1c0.2,0.8,0.8,1.2,1.5,1.5
		c0.4,0.2,0.6,0.8,1,1.1c0.2-0.5-0.2-1.1-0.4-1.7c0.9,0.3,0.9,1.1,1,1.5c0.1,0.5,0,1.2,0,1.7c0.3-0.4,0.5-1.5,0.4-2.1
		c-0.1-0.9-0.3-1.7-0.4-2.6c-0.8-0.4-1.5-0.9-2.4-1.3c0.1-0.2,0.2-0.4,0.4-0.6c2.5,0,4.9,0,7.5,0c0.1,0.4,0.2,0.9-0.2,1.2
		c-0.6,0.4-1.3,0.8-2,0.2c0.4,1.6,1.3,1.8,2.9,0.6c-0.2,0.6-0.3,1.2-0.5,1.8c1-0.4,1.1-1.3,1.4-2c0.5,0.5,0.3,1.4,1.2,1.6
		c0.6,0.1,1.3,0.2,1.9,0.1c1.1-0.3,1.4-1.2,1.4-2.1c0.5,0.1,0.8,0.2,0.6,0.6c-0.1,0.5-0.3,1.1-0.5,1.5c-0.1,0.2-0.4,0.3-0.8,0.4
		c-0.8,0.1-1.6,0.2-2.4,0.2c-0.5,0-1.1,0-1.7,0.1c0.2,0.2,0.3,0.3,0.4,0.2c1.2,0,2.4,0,3.4-0.1c0.5,0,1-0.4,1.4-0.6
		c0.2-0.2,0.5-0.4,0.3-0.9c0-0.1,0-0.3,0.1-0.5c0-0.1,0.1-0.2,0.2-0.4c0.5-1.5,0-2.3-1.7-2.3c-1.1,0-2.3-0.2-3.3,0.4
		c0-0.4,0-0.5,0.3-0.6c0.4-0.1,0.8-0.2,1.2-0.2c1.8-0.2,3.6-0.4,5.5-0.6c0.8-0.1,1.1,0.2,1.1,1c0,2-0.1,4.1-0.2,6.2
		c-0.1,1.2-0.3,1.4-1.5,1.3c-1.3,0-2.7-0.1-4-0.1c0.3,0.2,0.8,0.3,1.2,0.4c1,0.1,1.9,0.2,2.9,0.3c0.3,0,0.6,0,0.9,0.1
		c-0.2,0.6-0.3,1.3-0.5,1.9c-0.1,0.5-0.5,0.8-1.1,0.5c-0.8-0.2-1.4-0.5-2.1-0.8c-0.6-0.2-1.4-0.2-2-0.1c1.5,0.5,3,1,4.6,1.5
		c-0.4,1-0.8,1.9-1.2,2.9c-1.2-1-2.5-1.7-4-1.9c0.5,0.3,1.2,0.6,1.7,1s1.1,0.6,1.7,1.1c-0.2,0.3-0.2,0.8-0.4,1
		c-1.3,1.6-2.5,3.2-4.1,4.6c-0.8,0.6-1.6,1.1-2.6,1.4c-0.1,0-0.2,0.1-0.3,0.1c0,0,0,0-0.1,0.1c0.9,0.1,1.6-0.2,2.4-0.6
		c1.5-1,2.7-2.1,3.8-3.5c0-0.1,0.1-0.1,0.2-0.2c0.1,0.8,0.1,1.5,0,2.3c0,0.5-0.4,0.8-0.8,1c-1.9,0.9-3.9,1.7-6.1,1.6
		c-0.5,0-1,0-1.5,0c-1.3,0.1-2.6-0.3-3.6-1.1c-1.8-1.2-3.4-2.5-4.8-4.2c-0.1-0.1-0.2-0.3-0.3-0.5c-0.2-0.3-0.4-0.8-0.6-1.1
		c-0.2-0.3-0.5-0.6-0.9-1c1.2-0.6,2.5-1.3,3.6-1.8c-0.5-0.1-1.1,0-1.6,0.3c-0.5,0.3-1.1,0.6-1.7,0.9c-0.4,0.2-0.8,0.1-1-0.2
		c-0.5-1-1.1-1.9-1.2-3c0-0.1,0-0.4,0-0.4c0.3-0.2,0.2-0.4,0.1-0.6c-0.2-0.6,0-1.1,0.6-1.3c0.5-0.1,1.1-0.1,1.5-0.2
		c0.5-0.1,1.1-0.2,1.6-0.3C149.4,69.9,149.4,69.9,149.3,69.8z M163.2,76.6c-0.5,0.2-0.9,0.4-1.3,0.5c-0.4,0.1-0.9,0-1.3,0
		c-0.2,0-0.4,0-0.6-0.1c-0.8,0-1.5-0.2-2.3-0.1c-1.7,0.2-3.5,0.3-5.3,0.3c-0.2,0-0.5,0-1.1,0c0.3,0.2,0.4,0.3,0.5,0.3
		c1,0.5,2.1,0.6,3.2,0.8c1.7,0.1,3.5,0,5.3,0C161.7,78.4,162.6,77.9,163.2,76.6z M150.5,72.5c-1.6-0.2-3.1,0.4-4.6,0.8
		c0.1,0.2,0.2,0.3,0.3,0.4C147.6,73.2,149,72.8,150.5,72.5z M155.8,80.2c1.4-0.1,2.7-0.2,4-0.3c0-0.1,0-0.1,0-0.2
		c-1,0-1.9-0.1-2.8-0.1C156.5,79.5,156,79.6,155.8,80.2z M159.7,74c-1.5,0-3,0-4.6,0C156.7,74.4,158.2,74.5,159.7,74z M159,75
		c0-0.1,0-0.1,0-0.2c-0.3,0-0.6,0.1-1,0.2c-0.3,0-0.6,0-1,0c0,0.1,0,0.1,0,0.2C157.8,75.1,158.4,75,159,75z M157.2,63.3
		c-0.3,0-0.5,0-1,0C156.7,63.5,157,63.7,157.2,63.3z M158,80.4L158,80.4c-0.3-0.1-0.8-0.1-1.1-0.1c0,0,0,0,0,0.1
		C157.2,80.4,157.6,80.4,158,80.4z M156.4,74.9v-0.1c-0.2,0-0.3,0-0.5,0c0,0,0,0,0,0.1C156,74.9,156.1,74.9,156.4,74.9z"/>
	<path d="M192.1,135.7c-0.2,0.5-0.3,1.1-0.6,1.5c-0.4,0.9-0.3,1.5,0.2,2.3c0.2,0.2,0.3,0.5,0.4,0.9c0.2,1,0.5,1.4,1.2,1.8
		c0.3-0.1,0.3-0.5,0.4-0.8c0.2-1.1,0.4-2.1,0.5-3.1c0.1-0.8,0.2-1.4,0-2.1c-0.1-0.6-0.4-1.2-1.1-1.5c0.1-0.2,0.2-0.4,0.3-0.5
		c0.1,0,0.2,0,0.2,0c1.5,2.6,3.5,4.7,5.9,6.4c0.4,0.3,0.6,0.6,0.5,1.1c-0.3,1.3-0.3,2.6-0.3,3.8c0,0.8-0.1,1.5-0.3,2.3
		c-0.2,0.6-0.4,1.2-0.5,1.8c-0.1,0.4-0.3,0.5-0.8,0.3c0-0.1-0.1-0.1-0.1-0.2c0.1-0.9-0.3-1.3-1.2-1.1c-0.8,0.2-1.1,0.4-1.7,1.3
		c-2.7,0-5.4,0-8.1,0c-0.1-0.5-0.3-1-0.3-1.4c0-3.9,0-7.8,0-11.7c0-0.1,0-0.2,0-0.3c0.2-0.2,0.8,0.2,0.9-0.3c0-0.1,0.3-0.1,0.5,0
		c1.3,0,2.5-0.1,3.6-0.4C191.7,135.6,191.8,135.7,192.1,135.7z M194.8,149.5c0.5-0.5,0.8-1.4,1-2.1c0.1-0.4,0.2-0.8,0.3-1.2
		c0.4-0.9,0.9-1.6,1.3-2.5c0.1-0.2,0.3-0.5,0.3-0.9c0.1-0.9-0.3-1.1-1.1-0.8c-0.2,0.1-0.4,0.2-0.6,0.3c-0.5,0.4-1.3,0.4-1.9,0.4
		c-0.9,0-1.6-0.2-2.4-0.5c-0.9-0.3-1.7-0.5-2.6-0.2c-0.3,0.1-0.6,0.2-0.8,0.8c0.5,0.1,1.1,0.2,1.5,0.3c0.6,0.1,1,0.4,1.2,1
		c0.1,0.2,0.1,0.4,0.2,0.6c0.3,1.3,0.8,1.5,1.8,0.6c0.4-0.3,1-0.8,1.4-1.2c0.5,0.3,0.5,0.8,0.5,1.2c0,0.6-0.1,1.3-0.1,1.9
		C194.8,148.1,194.8,148.8,194.8,149.5z"/>
	<path d="M148.3,60.4c0.1-0.1,0.2-0.2,0.3-0.2v-0.1c-0.4-0.2-0.6-0.5-0.9-1c0-0.2-0.2-0.3-0.3-0.4c-0.5-0.2-0.5-0.5-0.4-1.1
		c0.1-0.2,0.2-0.5,0.2-0.8c0.2-0.4,0.3-0.9,0-1.4c-0.2-0.5-0.1-1,0.4-1.3c0.3-0.2,0.6-0.5,1-0.9c-0.1,0-0.1-0.1-0.1-0.1
		c-1.3,0-1.4,0-1.7,1.3c-0.3,1.3-0.5,2.5-0.2,3.8c0.1,0.3,0,0.3-0.3,0.6c-0.3-1.2-0.3-2.3-0.1-3.3c0.1-0.6,0.2-1.3,0.4-1.8
		c0.2-0.8,0.6-1.1,1.4-1.1c2.7,0,5.5-0.1,8.1-0.1c2.4,0,4.7,0,7.1,0c0.8,0,1.5,0.1,2.3,0.2c0.6,0.1,1.1,0.4,1.3,1.2
		c0.2,1.5,0.4,3,0.2,4.5c0,0.3-0.1,0.6-0.1,1c-0.1,0.8-0.2,1-1.1,1.1c-1.3,0.2-2.6,0.4-4,0.5c-2.1,0.3-4.3,0.3-6.4,0.2
		c-2.4-0.1-4.6-0.4-7-0.6C148.5,60.6,148.4,60.5,148.3,60.4z M157.8,56.9c0,0.1-0.1,0.2-0.1,0.3c-0.2,0.4-0.6,0.6-1,0.4
		c-0.3-0.2-0.4-0.8-0.2-1.1c0.2-0.2,0.5-0.4,0.8-0.4c0.6-0.1,1.3,0.3,1.4,1.1c0.2,0.6-0.1,1.4-0.6,1.6c-0.8,0.3-1.5,0.2-2.3,0
		c-0.6-0.2-0.8-0.9-0.9-1.4c-0.2-1,0.4-2,1.3-2.3c0.4-0.1,1-0.1,1.4-0.1s1,0.1,1.4,0.1c0.8,0,1.3-0.4,1.6-1.3
		c-1.1,0.8-2,0.8-3.2,0.5c-1.4-0.1-2.4,0.5-2.9,1.7c0,0.1,0,0.2-0.1,0.2c-1.1,0.9-0.6,2.1-1,3.2c1.2,0,2.4,0.1,3.4,0.1
		c0.2,0,0.3,0,0.5,0c1.4-0.1,2.4-1.5,1.8-2.8c-0.2-0.9-1.2-1.3-2.3-1.3c-1,0-1.5,1.2-1.1,1.9c0.2,0.5,0.9,0.8,1.5,0.5
		C157.9,58,158,57.8,157.8,56.9z M154.1,60.6c-1-0.8-1-0.8-0.9-2c0-0.2,0-0.3,0-0.5c-0.1-1.4-0.1-2.7-0.2-4.1
		c-0.1-1.1-0.2-1.2-1.3-1.1c0.1,0.4,0.2,0.9,0.2,1.3c0,2,0,4.2,0.4,6.2C152.9,60.5,153.5,60.6,154.1,60.6z M165.7,59.7
		c0.5-0.1,0.8-0.2,0.9-0.8c0.1-0.4,0.1-1,0.1-1.4c0.1-1.3-0.4-2.5-0.3-3.8c0-0.3-0.3-0.5-0.8-0.6c-0.4-0.1-1-0.2-1.3,0.1
		c-0.1,0.1-0.1,0.2-0.1,0.3c-0.1,0.6-0.2,1.3-0.2,2c-0.1,1.1-0.2,2.1-0.3,3.3c0,0.4-0.1,0.8-0.2,1.3c0.2-0.2,0.2-0.2,0.3-0.2
		c0-0.1,0.1-0.2,0.1-0.3c0.3-1.7,0.8-3.3,0.6-5.1c0-0.3,0.1-0.6,0.1-1.1c0.4,0.2,0.8,0.4,1,0.6c0.5,0.3,0.5,0.9,0.3,1.5
		c0,0.2-0.1,0.3-0.1,0.5C165.8,57.3,165.8,58.6,165.7,59.7z M150.5,53.1c-0.1,0-0.2,0-0.2,0c0,0.5-0.2,1.1-0.1,1.5
		c0.1,1.4,0.2,2.7,0.3,4.1c0,0.4,0.1,0.9,0.2,1.3c0.1,0.3,0.2,0.6,0.6,0.6c-0.1-0.5-0.3-1-0.3-1.5c-0.1-1.8-0.2-3.6-0.3-5.4
		C150.7,53.5,150.6,53.3,150.5,53.1z M165.3,55c0,0-0.1,0-0.2,0c0,1.6-0.1,3.2-0.2,4.7C165.6,58.2,165.4,56.6,165.3,55z M162.1,58
		L162.1,58c-0.1,0.2-0.1,0.3-0.1,0.5c0,0,0,0,0.1,0C162.1,58.4,162.1,58.2,162.1,58z"/>
	<path d="M183.5,24.4c-0.2,0.2-0.3,0.3-0.5,0.5c-0.2-0.1-0.4-0.2-0.5-0.4c-0.6-0.8-1.4-0.6-2.1-0.1c-0.3,0.2-0.6,0.4-1,0.5
		c-0.2,0.1-0.5,0.2-0.8,0.3c-0.5,0.1-0.9-0.1-0.9-0.6c-0.1-1.3,0.1-2.6,1-3.6c0.8-1,1.2-2,1.2-3.3c0-0.5,0.2-1.1,0.4-1.6
		c0.2-0.5,0.6-0.8,1.2-0.3c1.1,1,2.4,1.2,3.6,1.3c0.9,0.1,1,0.1,0.9,1.1c0,0.8,0.1,1.5,0.1,2.4c0,0.6,0.1,1.3,0.2,2
		c0.1,1.4-0.4,2.6-0.8,3.8c-0.3,1.1-1,1.7-2.1,1.7c-0.5,0-1.1,0.1-1.6,0.1c-1.4,0-1.9,0.4-2.5,1.7c-0.9,2.3-1,4.5-0.3,6.9
		c0,0.1,0.1,0.3,0.1,0.4c0.1,0.5-0.1,0.8-0.6,0.9c-0.4,0-0.9,0-1.2,0c-1.3-0.1-2.6-0.2-4-0.3c-0.2-0.2,0.1-0.8-0.3-0.9
		c-0.1,0-0.1-0.4,0-0.6c0.2-0.4,0.5-0.8,1-0.8c1.7-0.2,2.7-1.3,3.3-2.7c0.4-0.9,1-1.8,1.5-2.9c-1.3,0.6-2.3,1.4-2.9,2.5
		c-0.3,0.6-0.9,1.2-1.6,1.7c-0.4-0.6-0.5-1.3-0.4-1.9c0-0.5,0-0.6-0.5-0.8c-1.1-0.1-2.1-0.2-3.3-0.3c-0.4,0-1-0.1-1.4-0.2
		c-1-0.2-1.6,0.1-2.1,0.8c-0.1,0.2-0.2,0.4-0.3,0.5c-0.1,0.1-0.3,0.2-0.5,0.1c-0.1,0-0.2-0.3-0.2-0.4c0.2-0.8,0.5-1.6,0.8-2.4
		c0.3-0.9,1.1-1.5,1.9-1.7c1.1-0.3,1.7-1.1,2.3-2c0.4-0.9,1-1.6,1.4-2.5c0.1-0.1,0.1-0.2,0.2-0.3c0.6,0.1,0.6,0.3,0.5,0.8
		c-0.3,0.8-0.6,1.4-1.2,2c-0.9,1.1-1.6,2.1-2.4,3.2c-0.3,0.4-0.8,0.9-1.2,1.3c0.5,0,1-0.1,1.3-0.5c0.6-0.9,1.3-1.6,1.8-2.6
		c0.5-0.8,1.1-1.2,2-1.2c1.4,0.1,2.9,0,4.2,0.3c0.5,0.1,1.2,0.4,1.7,0.4c0.9,0.1,1.8,0,2.7,0c0.8,0,1.5-0.1,2.3-0.2
		c0.4,0,0.6-0.2,0.8-0.6c0.4-1.1,0.5-2.1,0.4-3.3c-0.1-0.5-0.2-0.9-0.8-1.1c-0.3-0.1-0.8-0.3-1.1-0.5c-0.6-0.4-1.2-1-1.4-1.7
		c0.8,0.1,1.5,0.1,2.4,0.2c0.5,0.1,0.9,0.4,1.2,1.1c0.1-0.5-0.1-0.8-0.2-1.1c-0.2-0.4-0.5-0.8-0.5-1.3c0-0.2-0.3-0.4-0.5-0.4
		c-0.8-0.1-1.6-0.2-2.5-0.2c-0.5,0-0.9,0.3-1.1,0.8c-0.1,0.3-0.2,0.5-0.3,0.9c-0.2,1-0.6,1.7-1.4,2.4c-0.4,0.3-0.8,0.8-0.8,1.4
		c0.3-0.1,0.6-0.2,1-0.2c0.9,0,1.8,0.2,2.7,0.2c0.9,0.1,1.5,0.5,1.6,1.4C183.4,24.1,183.5,24.2,183.5,24.4z M173.1,26.1
		c0.8,0.1,0.9,0.2,1.1,1.1c0.1,0.4,0.2,0.8,0.2,1.2c0.2,0.5,0.4,1.2,0.6,1.8c0.2-0.2,0.3-0.2,0.4-0.3c0.4-0.8,1.2-1.1,2-1
		c0.3,0,0.8,0,1.1,0c0.2,0,0.4-0.2,0.5-0.4c0-0.2-0.1-0.4-0.2-0.5c-0.1-0.1-0.3-0.2-0.4-0.2c-0.6-0.3-1.4-0.6-2-0.9
		C175.3,26.3,174.3,25.7,173.1,26.1z M169.1,27.8c-1.3,0.6-2,1.4-2.1,2c0.6-0.5,1.2-1.1,1.8-1.6C168.9,28.1,169,27.9,169.1,27.8z
		 M172.1,29.7c0-0.6,0-1.2,0-1.9C171.7,28.5,171.8,29.1,172.1,29.7z"/>
	<path d="M136.6,51.6c0.3,0,0.6,0.2,1,0.2c1,0,1.9,0,2.9-0.5l0.1,0.1c-0.5,1-0.5,2-0.5,3.1c0,0.8-0.1,1.6-0.2,2.4
		c-0.1,0.4-0.3,1.1-0.6,1.3c-1.1,0.6-1.7,1.6-2.5,2.6c-3.1,3.8-5.3,8-6.4,12.8c-0.8,2.9-0.8,5.8-0.6,8.7c0.1,3.1,1,6,1.6,9
		c0,0.1,0,0.2,0.1,0.4c-0.4,0.4-1.1,0.5-1.6,0.6c-1.1,0-2,0.3-3,0.6c-0.2,0.1-0.5,0.1-0.8,0.1c-0.3-1.1-0.6-2.1-0.9-3.1
		c-0.4-1.9-0.8-3.9-1.1-5.7c-0.1-0.4-0.1-1-0.1-1.4c0-0.8-0.1-1.5-0.1-2.3c0-2.5,0.3-4.9,0.8-7.4c0.5-2.4,1.2-4.5,2.3-6.6
		c1.8-3.4,3.9-6.6,6.4-9.4c1-1,1.9-1.9,2.9-2.9c0.2-0.2,0.5-0.4,1-0.5c-0.3,0.6-0.8,1.3-1.3,1.8c-0.8,0.8-1.5,1.5-2,2.4
		c-0.3,0.4-0.8,0.9-1.1,1.2c-1.8,1.8-3.2,3.9-4.1,6.3c-0.2,0.5-0.5,1.1-0.9,1.6c-1.3,1.5-1.9,3.4-2.4,5.4c-0.4,2-0.8,4.2-0.8,6.4
		c0,2.8,0.1,5.5,0.5,8.3c0.2,1.3,0.5,2.6,1,3.9c1.2-0.1,2.4-0.3,3.4-0.4c-1.3,0.5-2.6,0.5-3.9,1.5c1,0.1,1.8,0,2.9-0.5
		c0.2,0.1,0.5,0.2,0.8,0.4c0.4,0.3,0.8,0.1,1.1,0c0.3-0.2,0.2-0.5,0.1-0.8c-0.4-1.6-0.9-3.3-1.3-4.9c-0.2-0.9-0.3-1.8-0.3-2.7
		c0-1.4,0-2.8,0-4.2c0-4,0.9-7.7,2.6-11.3c0.3-0.8,0.6-1.5,1.1-2.3c0.6-1.2,1.4-2.4,2.1-3.5c0.4-0.6,0.5-1.3,0.6-1.9
		c0.1-0.8,0.3-1.5,0.5-2.1c0.2-0.8,0.5-1.6,0.9-2.4c0.2-0.5,0.2-1.1,1.1-1.4c-0.8,2.5-1.4,4.8-2,7.1c0,0,0.1,0,0.1,0.1
		c0.1-0.3,0.3-0.6,0.4-1c0.5-1.5,1.1-3.1,1.6-4.7c0.2-0.8,0.5-1.4,0.8-2.1c0.2-0.6,0.1-0.8-0.5-0.8c-0.9,0-1.7,0-2.6,0
		c-0.1,0-0.2,0-0.3-0.2C135.7,52.1,136.2,51.8,136.6,51.6L136.6,51.6z"/>
	<path d="M204.7,143.7c1.5-1.8,3.6-2.9,5.7-4.1c1.2-0.8,2.3-1.6,3.1-2.8c0.3-0.4,0.6-1,0.8-1.5c0.5-1.6,0.5-3.3,0.3-5
		c-0.2-1.6-0.6-3.1-1.2-4.6c-0.2-0.6-0.6-1.3-0.9-1.9c-0.2-0.4-0.2-0.9-0.4-1.4c0,0,0.1,0,0.2-0.1c0.1,0.1,0.2,0.1,0.3,0.2
		c1.5,2.5,3.1,4.8,4.3,7.5c0.8,1.8,1.3,3.6,1.7,5.5c0.1,0.6,0.2,1.3,0.4,1.9c0.2,1.3,0,2.6-0.2,3.8c-0.3,1.4-0.4,2.8-0.8,4.2
		c-0.2,1.2-0.4,2.4-0.8,3.4c-0.2,0.9-0.2,1-1.2,0.9c-0.2,0-0.5,0-0.9-0.1c0.3-1.1,0.5-2,0.8-3.1c0.4-1.8,0.9-3.5,1.2-5.4
		c0.1-0.5,0.1-1.1,0.1-1.6c0-0.4-0.2-0.5-0.5-0.6c-0.8-0.2-1.5-0.1-2.3,0c-2.1,0.4-4.2,1.3-6.2,2.4c-1,0.5-1.8,1.3-2.8,1.9
		c-0.3,0.2-0.6,0.9-1.2,0.6c-0.5-0.2-0.5-0.9-0.5-1.3c-0.1-0.8,0-1.5,0.2-2.4c0.8-2.1,1.8-4.2,3-6.2c1.4-2.4,2.4-4.7,2.8-7.4
		c0-0.2,0.2-0.4,0.2-0.6c0.1,0,0.1,0,0.2,0c-0.1,0.6-0.1,1.3-0.2,2c-0.2,2.1-1.1,4.1-2.3,5.9c-0.6,1.1-1.3,2-1.9,3.1
		c-0.2,0.4-0.4,1.1-0.5,1.5c-0.2,0.6-0.3,1.3-0.5,1.9C204.5,141.6,204.7,142.7,204.7,143.7z"/>
	<path d="M128.1,138.5c-0.6-0.1-0.9-0.5-1-1c-0.6-1.5-1.9-1.6-3.2-1c-0.8,0.3-1.3,0.8-1.9,1.3c-0.9,0.9-1.6,1.8-2.3,2.9
		c-0.5,1.1-0.5,2.4-0.3,3.4c0.2,1,0.5,1.9,0.8,2.9c0.2,0.9,0.3,1.7,0.5,2.6c-1.1,0-2.1,0-3.2,0c-0.3-1.2-1.1-2.4-1.1-3.6
		s-0.1-2.6-0.1-3.9c0-0.5,0.1-0.9,0.4-1.3c0.4-0.5,0.5-1.2,0.8-1.8c0.1-0.4,0.3-0.9,0.6-1.1c1.2-1,2-2,2.9-3.3
		c0.4-0.6,1-0.9,1.7-0.5c1.4,0.5,2.9,0.6,4.4,0.6c0.4,0,1,0.1,1.4,0.1c0.2,0,0.5,0.2,0.5,0.5C128.8,136.6,128.7,137.7,128.1,138.5z"
		/>
	<path d="M126.6,147.2c1.2-1.2,2.5-4.5,2.1-5.7c-0.2,0.1-0.3,0.2-0.5,0.3c0-0.6,0.1-1.3,0.2-1.8c0-0.2,0.2-0.5,0.2-0.9
		c0.1,0.1,0.2,0.2,0.2,0.2c0.2,1,0.4,1.9,0.5,2.9c0.1,1.4,0.1,2.8,0,4.2c-0.1,1.1-0.4,2-0.8,3.1c-0.1,0.3-0.3,0.4-0.6,0.3
		c-0.5,0-1.2,0-1.7,0c-1.2,0-2.4,0-3.5,0c-0.1,0-0.3,0-0.4-0.1c-0.3-1.5-0.5-2.9-0.9-4.3c-0.1-0.4-0.1-0.8,0.1-1.2
		c0.2-0.4,0.3-1,0.5-1.5c0.3-1.1,1-2,1.8-2.9c0.2-0.2,0.5-0.4,0.8-0.5c0.9-0.3,1.6,0,1.8,0.9c0,0.2,0.1,0.3,0.1,0.5
		C126.6,143,126.6,145.1,126.6,147.2z M124.5,148.6L124.5,148.6c0,0.2,0,0.4,0,0.6l0,0C124.5,149,124.5,148.8,124.5,148.6z"/>
	<path d="M174.8,59.6c0.8,0.5,1.3,1.2,1.2,2.1c0,0.3,0,0.6,0,1c-0.2,1,0.3,1.7,1,2.4c1.4,1.5,2.9,2.9,4.3,4.3
		c0.5,0.5,0.8,1.2,1.2,1.8c0.3,0.5,0.6,1.2,1.1,1.7c1.2,1.5,1.7,3.3,2.1,5.1c0.5,2.5,0.5,5,0.4,7.5c0,1.3-0.3,2.7-0.5,4
		c0,0.4-0.1,0.8-0.1,1.2s0.2,0.6,0.8,0.8c0.8,0.1,1.4,0.2,2.1,0.2c0.8,0.1,0.9,0,1-0.8c0.2-1.3,0.5-2.6,0.6-3.9
		c0.1-1.6,0.3-3.3,0.1-4.9c-0.1-1.3-0.2-2.5-0.5-3.6c-0.8-3-1.9-5.9-3.8-8.5c-0.5-0.8-1-1.5-1.4-2.1c-0.1,0.1-0.2,0.2-0.3,0.3
		c-1.1-2.3-2.8-4-4.6-5.5c-0.6-0.5-1.4-1-2-1.5c-0.8-0.5-1.4-1.2-2-1.8c0,0,0.1-0.1,0.1-0.2c0.2,0,0.3,0.1,0.5,0.2
		c1.9,1,3.6,2.3,5.3,3.6c2.7,2.6,4.9,5.5,6.8,8.7c1.8,3.3,3.1,6.9,3,10.7c0,1.5,0,3.1-0.1,4.6c-0.1,1.5-0.4,3-0.6,4.5
		c-0.1,0.9-0.2,0.9-1.2,0.8c-1-0.1-2-0.2-3-0.4c-0.2,0-0.4-0.1-0.5-0.2c-0.4-0.2-0.8-0.4-0.6-1c0.1-0.8,0.2-1.6,0.4-2.4
		c0.6-2.3,0.6-4.4,0.4-6.8c-0.1-1.5-0.5-3-0.9-4.5c-0.4-1.7-1.4-3.3-2.4-4.8c-1.6-2.4-3.5-4.5-5.8-6.3c-0.5-0.4-0.8-0.9-0.8-1.5
		c0-0.8,0-1.4,0-2c0-1-0.2-1.8-0.6-2.6C174.9,59.8,174.9,59.7,174.8,59.6z"/>
	<path d="M132.6,39.8c1.5-1,2.9-1.8,4.4-2.7c0.5-0.3,1.2-0.5,1.7-0.9c0.2-0.1,0.5-0.1,0.9-0.1c0.5,0,0.8,0.2,0.9,0.8
		c0,0.3-0.2,0.5-0.8,0.8c-0.6,0.2-1.3,0.4-1.9,0.6c-1.9,0.8-3.5,1.9-4.9,3.4c-0.4,0.4-0.9,0.9-1.3,1.3c-0.4,0.3-0.9,0.5-1.4,0.5
		c-0.8,0-1.6,0-2.4,0c-0.4,0-0.8,0.2-0.8,0.6c-0.1,0.3-0.2,0.8-0.1,1.1c0.1,1.9-0.8,3.5-2,4.9c-0.8,0.8-1.6,1.4-2.6,2.1
		c-1.3,1-2.3,2.4-3,3.8c-0.2,0.4-0.4,0.8-0.6,1.2c-0.1,0.2-0.2,0.3-0.5,0.4c0-0.1,0-0.3,0-0.4c0.5-2.3,1.6-4.2,3.1-5.9
		c0.8-0.9,1.5-1.6,2.1-2.5c1.6-1.9,1.9-4.2,1.2-6.5c0-0.1,0-0.2-0.1-0.4c0.9,0.5,1.2,1.3,1.2,2c0,1.8-0.1,3.6-1.5,5.1
		c0,0,0,0.1,0,0.2c0.5-0.3,1.1-0.9,1.4-1.6c0.2-0.6,0.4-1.4,0.5-2.1c0.1-0.6,0.1-1.2,0.1-1.8c0-0.5-0.1-0.9-0.5-1.2
		c-0.4-0.3-0.9-0.8-1.3-1.1c0-0.1,0.1-0.1,0.2-0.2c0.5,0.2,1,0.4,1.5,0.5c0.9,0.2,1.8,0.5,2.7,0.8c0.3,0.1,0.8,0,1.1-0.2
		c0.5-0.2,0.6-0.5,0.3-1.1c-0.6-1.1-0.6-2.3-0.5-3.4c0-0.6,0.3-1,1.1-1c0.3,0,0.8,0,1.1,0c0.6,0,0.9,0.2,1,0.8c0,0.3,0,0.6,0.1,1
		C132.4,38.9,132.4,39.3,132.6,39.8z M131.3,41.4c0.6-0.3,1.2-0.6,1.8-1c-1.1,0-1.3-0.2-1.5-1.1c-0.1-0.4-0.1-0.9-0.2-1.3
		c0-0.2-0.1-0.4-0.2-0.4c-0.5-0.2-1.2,0.2-1.2,0.8c0,0.6,0.1,1.4,0.3,2c0.2,0.8,0.5,1.5-0.2,2.3C131.1,42.5,131.2,41.8,131.3,41.4z"
		/>
	<path d="M177.5,52.8c0.2,0.2,0.3,0.4,0.5,0.6c0.5,0.8,1.2,1.3,2,1.5c0.4,0.1,0.9,0.3,1.3,0.5c0.9,0.5,1.7,1.1,2.4,1.8
		c0.6,0.6,1.4,1.1,2.1,1.6c0.3,0.2,0.8,0.1,1.2,0.2c0,0,0-0.1,0.1-0.2c-0.4-0.5-0.9-1-1.3-1.5c-0.9-1-1.8-1.9-3.3-2.1
		c-0.2,0-0.4-0.2-0.9-0.4c0.4-0.1,0.6-0.2,1.1-0.2c-0.6-0.5-1.3-1.1-1.9-1.3c-0.6-0.3-1.5-0.4-2.4-0.6c0.4-0.1,0.6-0.1,1.1-0.2
		c-0.2-0.3-0.5-0.2-0.9-0.2s-0.6-0.1-1.1-0.1c-0.3,0-0.6-0.1-1-0.2c0.2,0,0.3-0.1,0.5-0.1c0.9,0,1.8,0,2.7,0.1
		c0.3,0,0.8,0.2,1.1,0.4c1.3,1.1,2.7,2,3.9,3.2c2.9,2.5,5,5.5,7,8.7c1.6,2.9,3,5.8,4.1,9c0.6,2.1,1.2,4.3,1.3,6.5
		c0,0.9,0.1,1.7,0,2.6c-0.1-0.9-0.2-1.6-0.3-2.5c-0.4-2.6-1.1-5.1-2.1-7.6c-1.2-2.6-2.6-5-4.3-7.3c-0.8-1-1.5-1.8-2.3-2.6
		c-2.4-2.7-5.3-4.7-8.4-6.4c-0.9-0.4-1.5-1.1-1.8-1.9c-0.1-0.3-0.3-0.6-0.5-1C177.4,52.8,177.5,52.8,177.5,52.8z M188.3,61.1
		c0.1-1.5-0.3-1.8-1.4-1.4c0.3,0.1,0.6,0.2,0.9,0.2C187.9,60.3,188.1,60.7,188.3,61.1z"/>
	<path d="M124.9,24.6c-0.5-0.1-0.4,0.5-0.9,0.6c0,0-0.1-0.1-0.1-0.2c0.1-0.9,0.3-1.7,0.4-2.6c0.1-0.8,0-1.5-0.3-2.4
		c-0.5-1.4-0.5-1.7,0.8-2.8c1-0.8,2-1.3,3.2-1.6c0,0.1,0.1,0.1,0.1,0.2c-0.8,0.5-1.6,1-2.4,1.5c0.6,0.9,1.1,1,1.9,0.6
		c0.3-0.1,0.8-0.4,1.1-0.5c0.2-0.1,0.4-0.3,0.6-0.4c0.2,0.3,0,0.5-0.2,0.8c-0.6,0.5-1.4,1-2,1.4c-0.3,0.2-0.8,0.4-1.1,0.8
		c-0.4,0.4-0.4,1.3,0,1.6c0.2,0.2,0.5,0.3,0.9,0.1c1.4-0.8,3-1,4.2-2c0.3-0.2,0.8-0.3,1.3-0.5c0,0.3,0,0.5,0,0.6
		c-0.1,0.4-0.2,0.8-0.2,1.2c-0.4,2.8,0.2,5.4,1.5,7.7c0.3,0.5,0.5,1,0.9,1.5c0.4,0.8,0.5,1.5,0.3,2.4c-0.4-0.2-0.2-1-0.9-0.9
		c0,0.2-0.1,0.5-0.1,1c-0.9-0.9-1.9-1.1-3-1.3c0-0.2,0-0.4,0.1-0.8c0.9,0.2,1.7,0.3,2.6,0.5c-0.1-0.8-0.5-1.5-0.9-2.3
		c-0.3-0.6-0.8-1.3-1.1-1.9c-0.8-1.3-0.8-2.8-0.9-4.2c0-0.4,0-0.8,0-1.3c-2.4,0.6-4.2,2.1-6,3.8C124.5,25,124.7,24.8,124.9,24.6
		c0.2-1,0.9-1.5,1.8-1.8c-1.2,0.1-1.2-0.9-1.6-1.7c0,0.4-0.1,0.8,0,1c0.1,0.8,0.1,1.4-0.2,2C124.8,24.1,124.9,24.4,124.9,24.6z
		 M124.6,18.9c0.6,0.5,1.1,0.2,1.5,0c-0.3-0.2-0.6-0.5-1.1-0.8C124.9,18.4,124.7,18.7,124.6,18.9z"/>
	<path d="M220.4,34.6c-0.1,0.2-0.1,0.5-0.3,0.6c-1.4,0.9-1.9,2.4-2.6,3.8c-0.4,1.1-0.8,2-1.2,3.1c-0.5,1.4-1.4,2.4-2.9,2.9
		c-1.4,0.5-2.8,1-4.2,1.1c-1.5,0.1-2.4-0.4-2.4-2.1c0-1.2,0.2-2.4,0.2-3.4c0-1,0.6-1.7,1.3-2.3c1.1-1,2.3-1.8,3.5-2.6
		c0.4-0.2,0.9-0.6,1.4-0.3c0.4,0.3,0.2,0.9,0.1,1.4c-0.2,1.2-0.9,1.9-1.9,2.1c-0.6,0.2-1.2,0.4-1.8,0.5c-1.1,0.3-1.6,1.1-1.7,2
		c-0.1,0.9-0.1,1.7,0,2.6c0,0.8,0.3,1,1.1,1.1c1.3,0.1,2.4-0.4,3.2-1.3c0.4-0.4,0.9-0.8,1.3-1.3c1.3-1.4,1.9-3,1.5-5
		c0-0.1-0.1-0.3-0.1-0.4c-0.2-1.1-0.1-1.3,1-1.4c1.3-0.2,2.5-0.4,3.4-1.3c0.2-0.2,0.5-0.2,0.9-0.2C220.3,34.4,220.3,34.5,220.4,34.6
		z M216,36.8c0,3-0.6,5.7-3.1,7.6c0.2,0,0.4-0.1,0.6-0.2c1-0.5,1.6-1.4,2-2.4c0.5-1.2,1.1-2.5,1.5-3.6c0.2-0.5,0.4-1,0.8-1.4
		c0.1-0.1,0.2-0.3,0.3-0.5C217.3,36.5,216.6,36.7,216,36.8z M210.7,37.2c0,0,0,0.1,0,0.2c0.4,0.1,0.8,0.9,1.4,0.4
		c0.5-0.3,0.6-1,0.6-1.6C212,36.6,211.4,37,210.7,37.2z M209.2,38.7c0.5-0.2,1.1-0.3,1.7-0.4C210.2,37.8,209.9,37.9,209.2,38.7z"/>
	<path d="M172.7,88.6c0.1,1.4-0.2,2.6-1.1,3.6c-1.5,2-3.1,4-5.5,4.9c-1.7,0.8-3.4,1.2-5.3,1.5c-0.2,0-0.3,0.1-0.5,0.1
		c-1.2,0.2-1.2,0.3-1.2,1.5c0,7.5,0,15,0,22.4c0,4.2,0,8.3,0,12.4c0,0.8-0.1,1.6-0.1,2.5c0,0.2-0.1,0.3-0.1,0.5c-0.1,0-0.1,0-0.1,0
		s0,0,0-0.1c0-12.8,0-25.6,0-38.4c0-0.4,0.1-0.9,0.2-1.3c0.5-0.1,1.2-0.1,1.7-0.2c2.7-0.2,5.1-1.1,7.3-2.7c0.9-0.6,1.5-1.5,2.4-2.3
		c0.2-0.2,0.4-0.4,0.8-0.5c0.8-0.4,1.2-1.3,1.3-2.1c0-0.8,0-1.5,0-2.5c0.4,0.3,0.9,0.6,1.3,1c0.5,0.4,0.5,1.1,0.4,1.7
		c-0.2,2.4-1.1,4.4-1.9,6.5c-0.4,1.1-1,2.1-1.5,3.3c-0.2-0.6-0.1-1.1,0.1-1.6c0.8-1.9,1.4-3.8,2-5.7c0.3-1,0.9-1.9,0.8-3.1
		C173.4,89.4,173.3,88.9,172.7,88.6z"/>
	<path d="M185.3,92.9c1.8-0.2,3.5,0.3,5.1,1c1.4,0.5,2.7,1.3,3.9,2.3c1.1,0.9,1.7,1.8,2.3,3c0.3,0.8,0.6,1.4,1,2.1
		c-0.2,0.3-0.4,0.8-0.6,1.1c-0.3,0.5-0.2,1.1,0.1,1.6c0.9,1.3,1.8,2.5,2.7,3.8c1.1,1.4,2.3,2.9,3.2,4.3c0.5,0.9,1.3,1.1,2.1,1.1
		c0.8,0,1.2,0.2,1.5,0.8c0.8,1.2,1.6,2.3,2.3,3.4c1.3,2.4,1.6,4.4,0.8,7.1c0-0.3,0-0.8,0-1.1c0.1-1.5-0.2-2.9-1-4.1
		c-1-1.6-2-3.2-3-4.7c-0.4-0.5-0.9-1-1.6-1c-0.3,0-0.8-0.2-1.1-0.5c-1.6-1.8-3.1-3.8-4.4-5.8c-0.3-0.5-0.8-1.2-1.2-1.7
		c-0.6-1-1.1-1.9-1.3-3.1c-0.9-3.5-2.8-6.1-6.1-7.7c-1.1-0.5-2.3-1-3.4-1.3C186.2,93.2,185.7,93,185.3,92.9z"/>
	<path d="M208.2,46.5c0.4,0.2,0.4,0.5,0.4,1c0,1.1-0.3,2-0.8,3c-0.3,0.8-0.6,0.9-1.5,0.8c-0.8-0.1-1.5-0.2-2.1-0.3
		c0.4,0.6,1.7,1.3,2.6,1.2c1-0.1,1.6-0.6,1.8-1.6c0.2-0.9,0.4-1.8,0.5-2.7c0.1-0.4,0-0.9-0.1-1.4c0.4,0.1,0.5,0.4,0.5,0.9
		c0.2,1.2-0.1,2.4-0.3,3.5c-0.5,2.3-3.2,2.6-4.5,1.6c-0.8-0.5-1.5-1.3-2.1-2c-0.4-0.4-0.9-0.6-1.4-0.8c-0.2,0-0.6,0-0.8,0.2
		c-0.1,0.2,0,0.5,0.1,0.8c0.3,0.4,0.8,0.9,1.2,1.3c0.3,0.3,0.6,0.8,1,1.1c0.2,0.3,0.4,0.8,0.5,1.1c0.1,1.1,0.2,2.1,0.3,3.2
		c-0.6,0.1-1-0.2-1.3-0.6c-0.4-0.8-0.8-1.5-0.8-2.4c-0.1-1.2-0.5-2-1.3-2.8c-0.5-0.4-1-1.1-1.4-1.5c-0.8-0.8-1.1-1.7-1.1-2.8
		c0.6,0.9,1.3,1.8,1.9,2.7c0.3-1.4,1.4-0.9,2.3-1.1c-0.3-0.3-0.3-0.4-1-0.5c-0.6-0.1-1.3-0.2-1.8-0.3c-0.5-0.1-1-0.4-1.1-1.1
		c0.8,0.1,1.5,0.2,2.1,0.4c1.1,0.2,2,0.6,2.9,1.4c0.5,0.5,1.2,1.2,1.9,1.4c0.5,0.1,1.1,0.2,1.5,0.2c0.4,0,0.8-0.2,1-0.6
		c0.2-0.5,0.4-1.2,0.2-1.8C207.4,47.2,207.4,47.1,208.2,46.5z M202,53.2c0.1,1.3,0.4,2.5,1,3.6C202.9,55.7,202.8,54.4,202,53.2z"/>
	<path d="M166.8,117.1c-0.2-1.2-0.3-2.4-0.5-3.6c-0.1-0.8-0.2-1.6-0.2-2.5c0-0.3-0.1-0.8,0.3-0.9c0.4-0.1,0.8,0,1.1,0.2
		c0.6,0.6,1.4,1.2,1.9,1.9c0.8,1,1.5,1.9,2.3,3c0.6,0.9,1.3,1.3,2.5,1.3c1.6-0.1,3.2,0,4.9,0.1c0.2,0,0.3,0,0.5,0.2
		c-0.1,0-0.2,0.1-0.4,0.1c-1.5,0-3,0-4.4,0c-1.4,0-2.8,0.1-4.2,0.2c-0.9,0.1-1.8,0.2-2.7-0.1C167.4,117.1,167.1,117.1,166.8,117.1z"
		/>
	<path d="M157.5,91.3c0.4,0.9,0.3,1.8,0.2,2.8c0,0.8-0.1,1.5-0.1,2.4c0,2.3,0,4.5,0,6.6c0,0.5,0.1,1.1,0.1,1.5c0,11.5,0,22.8,0,34.3
		c0,1.4,0.1,2.9,0.1,4.3c0,2.1-0.1,4.2-0.2,6.3c0,0.1-0.1,0.2-0.2,0.3c0-0.2-0.1-0.3-0.1-0.5c0-1,0.1-1.8,0.1-2.8
		c0-1.5-0.1-3-0.1-4.4c0-16.6,0-33.3,0-50c0-0.3,0-0.6,0-1C157.3,91.3,157.4,91.3,157.5,91.3z"/>
	<path d="M108.4,48.8c-0.2,0.9-0.5,1.5-0.8,2.4c-0.2-0.2-0.6-0.3-1-0.6c1.2-1.7,1.1-3.6,1.5-5.5c0.1,0.4,0.1,0.9,0.2,1.3
		c0.2,0.9,0.3,1.6,1.3,2c0.8,0.3,1.2,0.2,1.4-0.6c0.3-1,0.5-2,0.9-3c0.3-1.1,0.9-1.9,1.7-2.7c0.2,0.2,0.3,0.3,0.5,0.5
		c0,0.1,0,0.2-0.1,0.3c-0.6,1.9-0.9,4-0.8,6.1c0.1,1.3,0,2.6,0,3.9c0,0.4-0.1,0.8-0.5,1.1c-0.3,0.2-0.5,0.6-0.6,1.1
		c-0.2,1.1-0.3,2-0.5,3.1c0,0,0,0.1-0.1,0.2c-0.2-0.9-0.4-1.7-0.6-2.6c-0.2-1.1-0.4-2-0.3-3.2c0-0.6,0-1.3-0.1-1.9
		C110,49.8,109.4,49.2,108.4,48.8z M110.7,49.4c0.1,0.5,0.3,1,0.4,1.5c0.2,1.1,0.5,2.3,0.8,3.4c0.9-1,0.8-1.9,0.8-2.9
		c0-0.9-0.1-1.8-0.1-2.7c0-1.1,0-2.1,0-3.2c-0.1,0.2-0.2,0.3-0.3,0.5c-0.2,0.8-0.3,1.4-0.5,2.1C111.5,48.8,111.3,49.3,110.7,49.4z"
		/>
	<path d="M186.5,42.3c0.1-1,0.2-1.1,1.4-1.4c-0.4-0.2-0.8-0.4-1.1-0.6c-0.2,0.6-0.5,1.2-0.8,1.8c-0.1,0-0.1,0-0.2,0
		c0-0.2,0-0.4-0.1-0.6c0-0.5,0-1,0-1.5c-0.1-1-0.4-1.3-1.4-1.3c-1,0-1.8,0-2.7-0.4c0.5-0.2,1.1-0.1,1.5-0.2c0.5-0.1,1.1-0.2,1.5-0.2
		c0.5-0.1,1.1-0.2,1.6-0.3c0.1,0.4,0.2,0.8,0.2,1.1c0.1,0.8,0.5,1.3,1.3,1.5c1.4,0.4,2.9,0.4,4.3,0c0.6-0.2,1.2-0.3,1.8-0.5
		c0.6-0.2,1.4-0.3,2.3-0.5c-0.5,0.9-1.2,1.4-1.9,1.7c-0.8,0.3-1.5,0.5-2.4,0.8c0.6,0.4,1.3,0.5,1.9,0.6c0.2,0,0.5,0.1,0.8,0.1
		c0.5,0.2,0.6,0.3,0.6,0.9c0,0.5-0.2,1-0.2,1.5c0,0.6,0,1.2,0,1.8c-0.3,0-0.3-0.3-0.3-0.5c-0.1-0.8-0.2-1.5-0.3-2.4
		c0-0.2-0.1-0.4-0.4-0.3c0.1,0.6,0.2,1.2,0.2,1.8c0.2,1.2,0.1,1.4-1.2,1.7c0-0.1,0-0.2,0.1-0.3c0.8-1.1,0.4-2-0.1-3
		c-0.4-1-1.3-1.5-2.4-1.5c-1-0.1-1.9-0.1-2.9,0C187.4,41.6,187,42,186.5,42.3z"/>
	<path d="M179.1,16.3c0.1-0.8,0.2-1.4,0.3-2c0.2-1.2,1-1.3,1.8-0.8c0.4,0.2,0.9,0.5,1.3,0.9c1.4,1.1,3,1.5,4.7,1.6
		c0.9,0.1,1.8-0.2,2.7-0.4c0.8-0.1,1.4-0.3,2-0.5c0.1,0.5-0.1,1-0.5,1.3c-0.9,0.5-1.2,1.3-1.3,2.3c-0.1,1.3-0.6,2.5-1.4,3.6
		c-0.9,1.3-1.6,2.5-2.5,3.8c0,0.1-0.1,0.1-0.3,0.3c0.1-0.3,0.1-0.4,0.2-0.6c0.6-1.6,1-3.3,1.6-4.8c0.3-0.8,0.5-1.7,0.8-2.6
		c0.1-0.3,0-0.8,0-1.2c-0.9-0.1-1.6-0.3-2.5-0.4c-1.4-0.1-2.7-0.5-3.8-1.4c-0.1-0.1-0.3-0.2-0.5-0.3c-1-0.5-1.7-0.2-2.1,0.8
		C179.7,15.9,179.6,16.2,179.1,16.3z M189.9,16.7c-0.4,0.2-0.4,0.2-0.4,1.3C189.7,17.5,189.8,17.2,189.9,16.7z"/>
	<path d="M121,19.2c-0.1-1.4-0.2-2.8-0.2-4.1c0-1.4-0.8-2.6-1.2-3.9c0.1,0,0.2,0.1,0.3,0.2c0.8,0.5,1.4,1.1,2,1.6
		c0.3,0.2,0.5,0.8,0.6,1.1c0.2,0.3,0.2,0.8,0.4,1.2c0.2-0.1,0.4-0.2,0.5-0.3c1.3-1.2,2.8-1.8,4.5-2c0.5,0,1-0.1,1.5-0.1
		c0.6-0.1,0.9-0.2,1-0.9c0-0.2,0.1-0.3,0.1-0.5c-0.1-0.9,0.5-1.3,1-1.7c0.2,1.2,0.4,2.4,0.5,3.5c-0.1,0-0.2,0-0.3-0.1
		c-0.3,0.6-0.3,0.6-1,0.6c-1.8,0-3.4,0.5-5,1.3c-0.5,0.2-1,0.6-1.3,1c-0.9,0.9-1.6,1.7-2.5,2.6C121.7,19,121.3,19.1,121,19.2z
		 M122.7,16.2c-0.2-0.5-0.3-1.1-0.5-1.5c-0.2-0.4-0.5-0.9-0.8-1.4c0.2,0.9,0.3,1.5,0.4,2.3c0.1,0.8,0,1.4,0,2.1
		C122.1,17.1,122.4,16.6,122.7,16.2z"/>
	<path d="M177.3,88.6c-0.9-0.1-1.7-0.1-2.6-0.2c-0.4-0.1-0.9-0.2-1.3-0.4c-1-0.4-1.3-1-1.3-2c0.1-2.3,0-4.4-0.4-6.5
		c-0.1-0.6-0.1-1.5,0-2.1c0-0.6,0.5-1.1,1.1-1.2c1.1-0.2,2,0,2.8,0.8c1.3,1.3,2,2.9,2.4,4.6c0.3,1.9,0.3,4-0.1,6
		C177.6,87.7,177.5,88.1,177.3,88.6z M177.6,84.4c0.1-2-0.8-4.3-1.6-5.8c-0.4-0.9-1.1-1.4-2-1.6c-0.9-0.2-1.4,0.1-1.4,1
		c0,1,0.1,1.9,0.1,2.9c0,0.8,0.1,1.5,0.1,2.3c0,1.1,0,2.3,0,3.3c0,0.2,0.2,0.5,0.3,0.6c0.9,0.6,1.8,1,2.8,0.8
		c0.8-0.1,1.4-0.5,1.5-1.4C177.5,85.6,177.6,84.9,177.6,84.4z"/>
	<path d="M194.4,110.2c0.2,0.2,0.4,0.4,0.5,0.5c0.1,0.5,0.3,1.1,0.3,1.7c0.2,2.9-0.2,5.7-1.4,8.4c-0.5,1.1-0.4,2.1,0.1,3.2
		c1.1,1.9,2.1,3.9,3.2,5.8c0.6,1.1,1.4,2.1,2.5,2.9c1,0.6,1.5,0.5,2.3-0.4c0.2-0.2,0.3-0.4,0.5-0.8c0,1.9-1.5,2.9-3,2
		c-0.6-0.3-1.3-0.9-1.7-1.5c-1.8-2.8-3.5-5.7-5.1-8.6c-0.4-0.8-0.4-1.5,0-2.3c0.5-1.3,1.1-2.5,1.5-3.8c0.2-0.6,0.3-1.3,0.3-1.9
		c0-1.1,0-2.1,0-3.2C194.5,111.7,194.4,111.1,194.4,110.2z"/>
	<path d="M140.1,68c0.4,0.2,0.3,0.5,0.2,0.9c-0.3,0.8-0.6,1.5-1.1,2.4c-0.8,1.8-1.2,3.6-1.3,5.6c-0.1,1-0.1,1.9-0.2,2.9
		c0,0,0.1,0,0.2,0c0.5-1,1-1.9,1.5-2.9c0.6-1.2,1.3-2.4,2.1-3.3c0.9-1.1,0.8-2.1,0.1-3.2c-0.3-0.6-0.6-1.4-1.1-2
		c0,0,0.1-0.1,0.2-0.1c0.3,0.4,0.6,0.8,1,1.2c0.3,0.4,0.8,0.9,1.1,1.3c0.4,0.4,0.4,0.9,0.4,1.4c-0.1,0.9-0.4,1.5-1,2.3
		c-1.4,1.8-2.7,3.8-3.8,5.7c-0.2,0.3-0.3,0.6-0.8,0.8c-0.1,0-0.2,0.3-0.4,0.5c-0.3-0.3-0.3-0.8-0.3-1.1c-0.1-4.2,0.8-8.1,2.8-11.8
		C140,68.2,140,68.1,140.1,68z"/>
	<path d="M190.4,133.5c-0.2,0.1-0.4,0.1-0.6,0.2c-0.1-0.2-0.2-0.3-0.3-0.5c-0.1-0.5-0.2-1.2-0.3-1.8c-0.1-1-0.5-1.5-1.5-1.8
		c-0.4-0.2-0.4-0.2-0.8-0.6c1,0,1.7,0.2,2.5,0.6c0.9,0.5,1.7,1.1,2.6,1.7c0.1,0.1,0.3,0.2,0.4,0.3c0.8,0.9,0.6,1.5-0.2,2.1
		c-0.6,0.5-1.4,0.6-2.3,0.8c-0.2,0-0.5,0-0.8,0.1c-0.5,0.3-1.2,0.2-1.8,0.2c-0.5,0-0.9-0.3-1-0.9c-0.2-0.8-0.2-1.5-0.1-2.3
		c1,0.2,1.6,0.9,2.1,1.5c0.5,0.8,1.2,0.9,1.9,0.6c0.1,0,0.2-0.1,0.3-0.1C190.6,133.7,190.6,133.6,190.4,133.5z"/>
	<path d="M150.4,142c0.2-0.3,0.4-0.5,0.8-0.8c1-0.6,2-1.2,3.1-1.5c0.2-0.1,0.5-0.1,0.8-0.2c1-0.3,1.3-0.6,1.3-1.7
		c0-9,0.1-17.9,0.1-26.9c0-3.2,0-6.3,0-9.5c0-0.9-0.1-1.7-0.2-2.7c-1.7-0.1-3.3-0.3-4.6-1.3c0-0.1,0-0.1,0-0.2
		c0.5,0.1,1,0.2,1.5,0.3c0.9,0.1,1.7,0.3,2.6,0.4c0.8,0.1,0.9,0.2,1,1c0,0.3,0,0.6,0,1c0,2.3,0,4.5,0,6.8c0,2.4,0.1,4.7,0.1,7.1
		c0,4.2,0,8.5,0,12.7c0,3.8,0,7.5-0.1,11.4c0,0.5-0.1,1.1-0.1,1.5c0,0.4-0.2,0.6-0.5,0.9c-1.7,0.8-3.5,1.4-5.3,2
		C150.6,142.1,150.6,142.1,150.4,142z"/>
	<path d="M186.1,116.2c-0.1-0.3-0.2-0.6-0.3-1.1c-0.3-1.6-0.9-3.1-1.6-4.5c-0.6-1.2-1-2.5-1.2-3.8c-0.2-1.5-0.2-3.1-0.3-4.9
		c0.3,0.3,0.6,0.4,0.8,0.6c0.6,1.8,1.4,3.5,1.9,5.4c0.3,1.3,0.4,2.6,0.6,4c0.1,1.1,0.2,2,0.3,3.1c0,0.4,0,0.8,0,1.2
		C186.1,116.2,186.1,116.2,186.1,116.2z"/>
	<path d="M104.6,50.1c0-1.9-0.2-3.9,1.2-5.5c0.1,0,0.1,0,0.2,0c0,0.2,0,0.4,0,0.5c-0.8,1.6-0.6,3.3-0.6,4.9c0,0.4,0,0.9,0,1.3
		c0,0.2-0.1,0.4-0.2,0.8c-0.1-0.2-0.2-0.4-0.3-0.5c-0.3,0.4,0,0.6,0.1,1.1c-0.1-0.1-0.3-0.1-0.3-0.2c-0.2-0.6-0.5-1.3-0.6-1.8
		c-0.3-1.4-1-2.7-1.8-3.9c-0.2-0.3-0.4-0.6-0.6-1.1c0.6-0.1,1,0.3,1.4,0.5c0.3,0.2,0.5,0.8,1.1,0.4c0.5-0.2,0.4-0.8,0.3-1.2
		c-0.1-1.2-0.3-2.3-0.5-3.4c-0.1-0.9-0.3-1.6-0.5-2.5c-0.2-1-0.1-1.2,0.9-1.6c0.1,0.2,0.3,0.3,0.3,0.3c0,1-0.1,1.7,0,2.6
		c0.1,1.2,0.2,2.4,0.3,3.4c0,0.2,0,0.4,0.1,0.5c0.3,0.8,0.1,1.5-0.2,2.1c-0.3,0.4-0.3,0.9-0.2,1.4c0.1,0.5,0.2,1.1,0.3,1.5
		C104.4,50.1,104.5,50.1,104.6,50.1z"/>
	<path d="M139.4,99c1.3,1.1,2,2.5,3,3.9c-0.9,0.1-1.1-0.6-1.7-1.1c0.8,2.6,1.5,5,2.3,7.4c0.8,2.4,1.1,4.9,1.5,7.4
		c0.5,0.3,1.1,0.2,1.6,0.2s1.1,0,1.5,0.3c-1.1,0.1-2.3,0.2-3.3,0c-0.3-0.1-0.5-0.3-0.5-0.6c-0.1-0.9-0.3-1.6-0.4-2.5
		c-0.4-3.2-1.5-6.3-2.6-9.3C140.2,102.8,139.7,100.9,139.4,99z"/>
	<path d="M205,112.1c-0.9-0.1-1.3-0.8-1.7-1.3c-1.7-2.1-3.3-4.4-5-6.5c-0.2-0.2-0.3-0.6-0.4-1c-0.2-0.8,0.5-1.4,1.3-1.1
		c0.3,0.1,0.6,0.4,0.9,0.6c0.8,0.9,1.4,1.7,2,2.6c0.5,0.8,1.1,1.5,1.6,2.4c0.5,0.8,1.2,1.6,1.7,2.4c0.3,0.4,0.4,1,0.6,1.5
		c-0.1,0-0.1,0.1-0.2,0.1c-0.2-0.2-0.5-0.5-0.8-0.8c-1.8-2.3-3.5-4.6-5.4-6.9c-0.2-0.3-0.5-0.8-0.8-1.1c-0.1-0.2-0.3-0.3-0.8-0.5
		c0.1,0.8,0.4,1.3,0.8,1.7C201.1,106.8,203.1,109.4,205,112.1z"/>
	<path d="M193.2,103.9c1.1,5.6-0.8,10.5-3,15.4c-0.1,0.2-0.3,0.4-0.5,0.6c-0.1,0-0.1-0.1-0.2-0.1c0-0.2,0.1-0.5,0.2-0.8
		c1-2.7,1.7-5.5,2.3-8.1c0.3-1.8,0.6-3.8,1.1-5.7C193,104.9,193.1,104.4,193.2,103.9z"/>
	<path d="M186.8,10.5c-0.1,0.5-0.2,1.1-0.2,1.6c0,0.3,0,0.8,0.1,1c0.1,0.4,0.6,0.6,1.1,0.5c0.4,0,0.8-0.3,0.8-0.9
		c0-0.8-0.1-1.5-0.1-2.4c0-0.5-0.1-1,0-1.5c0-0.3,0.2-0.6,0.4-1c0.3-0.4,0.8-0.8,1.2-1.1c0.2,0.1,0.3,0.1,0.5,0.2
		c-0.2,0.2-0.3,0.4-0.4,0.6c-0.4,0.6-0.6,1.3-0.6,2c0,1.2,0,2.4,0,3.5c0,0.6-0.2,1-0.9,1.2c-1.2,0.4-2.9,0-3.5-1.1
		c-0.5-0.8-0.4-1.7-0.1-2.6C185.1,10.3,185.9,10.2,186.8,10.5z M185.8,10.8c0,0.1,0,0.1,0,0.2c0.1-0.1,0.2-0.1,0.3-0.2v-0.1
		C186.2,10.8,186.1,10.8,185.8,10.8z"/>
	<path d="M208.4,75.5c-0.1-3.1-0.2-6.1-0.3-9.1c0.4,0.5,0.4,1.3,0.9,1.9c0.6,0,1.1-0.4,1.5-0.9c0.9-0.9,1.8-1.5,2.8-2.1
		c0.2-0.1,0.4-0.1,0.6-0.1c0,0,0.1,0.1,0.1,0.2c-0.2,0.4-0.5,0.8-0.9,1.2c-0.2,0.4-0.5,0.8-0.9,1.1c-0.5,0.6-1.1,1.2-1.7,1.8
		c-0.8,0.8-1.1,1.6-1.3,2.6C209.2,73.1,209,74.3,208.4,75.5z M209.7,69c-0.6,0.2-0.6,0.2-0.5,0.8C209.3,69.4,209.5,69.2,209.7,69z"
		/>
	<path d="M143.4,103.3c-0.1-0.1-0.2-0.2-0.2-0.4c-0.5-1.9-1.1-3.9-1.5-5.8c-0.2-0.8-0.2-1.4,0.3-2c0.8-0.8,1.8-1,2.7-0.5
		c0.6,0.3,1.2,0.8,1.7,1.2c1.7,1.4,3.8,2.4,5.8,3.1c0.3,0.1,0.8,0.3,1.1,0.5c0,0.1,0,0.1,0,0.2c-0.2,0-0.3,0.1-0.5,0
		c-2.4-0.6-4.6-1.4-6.4-3c-0.4-0.3-0.9-0.8-1.3-1c-0.4-0.2-1-0.4-1.4-0.4c-0.8,0-1.3,0.6-1.2,1.4c0.1,1,0.3,1.8,0.5,2.8
		c0.2,1.1,0.4,2,0.6,3.1C143.7,102.8,143.7,103,143.4,103.3z"/>
	<path d="M141.3,80.3c0.2,0,0.3,0,0.5,0c0-0.3,0-0.6,0-1c0-0.3,0.2-0.5,0.4-0.9c0,0.2,0,0.3,0,0.5c0,1.1,0,2,0.1,3
		c0,0.9,0,1.7-0.2,2.5c-0.2,0.9-0.4,1.7-0.6,2.6c-0.2,1.3-1.1,2-2.4,2.5c-0.5-1-0.9-1.9-0.4-3.1c0.6-1.6,1.3-3.2,1.9-4.8
		C140.9,81.3,141.2,80.7,141.3,80.3z M140.1,87c0,0,0.1,0,0.2,0c-0.1,0.5-0.2,1.1-0.3,1.8c0.9-0.9,1.2-1.7,1.4-2.6
		c0.2-1.3,0.4-2.5,0.6-3.8c0.1-0.4,0-0.9,0-1.3c-0.1,0-0.1,0-0.2,0c-0.6,2.3-1.8,4.3-2,6.6C139.7,87.5,139.8,87.2,140.1,87z"/>
	<path d="M162.7,85.7c0.1,1.1,0.2,2.3,0.3,3.3c0.1,1.8,0.3,3.8,0.4,5.6c0,0.4-0.1,0.9-0.2,1.3c0,0.2-0.2,0.3-0.4,0.4
		c0-0.3-0.1-0.6,0-1c0.1-2.5-0.4-4.9-0.6-7.4c-0.1-0.8-0.1-1.5,0-2.3c0-0.4,0.3-0.6,0.8-0.8c0.4,0,0.6,0.2,0.8,0.6
		c0.1,0.8,0.3,1.5,0.3,2.3c0.2,1.7,0.3,3.3,0.5,5c0.1,0.8,0.2,1.5,0.3,2.3c0,0.5-0.2,0.9-0.9,1.1c0.5-1.9,0.1-3.9-0.2-5.7
		c-0.2-1.3-0.3-2.6-0.5-4c0-0.3-0.1-0.5-0.2-0.9C162.8,85.7,162.7,85.7,162.7,85.7z"/>
	<path d="M114.1,67.7c0.2-1.1,0.4-2,0.5-3c0.2-1.4,0.9-2.6,1.5-3.8c0-0.1,0.2-0.2,0.4-0.4c0,0.4,0,0.6,0,0.8c-0.3,1.2-0.6,2.4-1,3.5
		c-0.8,2.3-1.3,4.5-1.7,6.9c0,0.2-0.1,0.3-0.2,0.6c-0.4-0.9-0.4-1.6-0.2-2.4c0.1-0.4,0.1-0.9,0-1.4c-0.3-1.5-0.3-3.1-0.3-4.7
		c0-0.4,0-0.9,0-1.3c0.5-0.2,0.5,0.2,0.6,0.4c0.2,1.3,0.3,2.6,0.1,3.9c0,0.3,0,0.6,0,0.9C113.9,67.7,114,67.7,114.1,67.7z"/>
	<path d="M156.4,96c-0.1-1.2-0.2-2.4-0.2-3.4c0-0.3,0-0.6-0.2-0.9c-0.5-0.8-0.4-1.7-0.4-2.6c0-0.8,0-1.5,0-2.3c0-0.3-0.1-0.6-0.2-1
		c-0.8,3.3-0.6,6.8-1,10.1c0.2,0.2,0.5,0.5,1,0.9c-0.3,0-0.5,0.1-0.8,0c-0.6,0-0.8-0.2-0.8-0.8c0-1.8,0.1-3.8,0.2-5.6
		c0-1,0.1-1.9,0.2-2.9c0-0.5,0.1-1.1,0.2-1.5c0.1-0.3,0.2-0.8,0.8-0.8s1,0.2,1,0.8c0,0.5,0.1,1.2,0,1.7c-0.2,1.3-0.1,2.5,0.2,3.8
		C156.7,93,156.7,94.5,156.4,96z"/>
	<path d="M123.3,132.3c1.1-1.8,2.6-3.1,4.4-4.3c0.6-0.4,1.1-0.2,1.2,0.5c0.1,1.2,0.2,2.5,0.2,3.6c0,0.3,0,0.6-0.1,1.1
		c-0.2-0.2-0.2-0.3-0.3-0.4c-0.9,0.3-1.3,0.1-1.2-0.9c0-0.9,0.1-1.7,0.8-2.4c0.3-0.3,0.4-0.6,0.4-1.1c-1.6,0.9-2.8,2.1-4,3.3
		c-0.2,0.2-0.3,0.3-0.5,0.5C123.7,132.7,123.4,132.6,123.3,132.3z"/>
	<path d="M118.1,48.7c0,0,0,0.1,0,0.2c-1,0.8-1.3,1.8-1.3,2.9c-0.1,1-0.2,1.9-0.3,3c0.6-0.8,0.6-1.5,1.2-2.1
		c0.4-0.5,0.5-1.4,0.9-2.1c0.2-0.8,0.5-1.5,0.9-2.3c0.2,0.5,0.1,1.1,0,1.7c-0.4,2.3-1.4,4.2-2.6,6c-0.3,0.5-0.5,1-1.2,1.3
		c0-0.6,0-1.2,0.1-1.7c0.2-1.5,0.4-3,0.6-4.5c0-0.3,0.1-0.6,0.2-1C116.7,49.1,117.2,48.7,118.1,48.7z"/>
	<path d="M159.4,138.2c0.2-0.6,0.6-0.8,1.1-1c0.9-0.3,1.7-0.5,2.7-0.9c0.5-0.2,1.1-0.3,1.7-0.5c0.4-0.1,0.5-0.3,0.6-0.8
		c0-0.6,0.2-1.3,0.2-2c0.1-3.5,0.1-7,0.2-10.5c0-1.2,0-2.5,0.1-3.6c0,0.2,0.1,0.3,0.2,0.5c0,3.3,0,6.5,0,9.9c0,2-0.2,4-0.3,6
		c0,0.6-0.3,1.2-1.1,1.4c-1.5,0.4-3,1-4.6,1.4C159.9,138.2,159.7,138.2,159.4,138.2z"/>
	<path d="M140.2,21.1c0.5,1.4,1.1,2.8,1.1,4.3c0,1.6,0.1,3.3,0.1,4.9c0,0.3,0,0.5,0.1,0.9c-0.2,0.3-0.4,0.5-0.6,0.9
		c-0.2-0.1-0.4-0.1-0.8-0.2c-0.5-0.2-0.6-0.5-0.4-1.2c0.1-0.4,0.2-0.9,0.6-1.1c0.1-0.1,0.2-0.2,0.2-0.4c0.2-1.3,0.3-2.5,0-3.8
		c-0.3-1.4-0.4-2.9-0.6-4.4C140,21.1,140.1,21.1,140.2,21.1z"/>
	<path d="M159.5,85.6c0.1,0.8,0.2,1.5,0.2,2.1c0,1.4,0,2.7,0,4.1c0,1.2,0,2.3,0,3.3c0,0.3,0.1,0.5,0.1,0.9c0.9,0,1-0.1,1-0.8
		c0-0.9,0-1.8,0.1-2.7c0.1,0.1,0.2,0.2,0.2,0.3c0.1,1,0.2,2,0.3,3c0.1,0.8-0.1,1-0.9,1c-1.5,0-1.7,0.2-1.6-1.5
		c0.1-2.5,0.1-4.9,0.2-7.4c0-0.8,0-1.6,0-2.5C159.4,85.6,159.4,85.6,159.5,85.6z"/>
	<path d="M170.6,53.3c0.4,1.1,0.5,4.4,0.2,5.7c0.5-0.2,0.5-0.5,0.6-1.1c0.1-0.8,0.3-1.5,0.4-2.1c0.4-0.1,0.8,0,0.9,0.3
		c0.2,0.5,0.5,1.2,0.6,1.8c0.1,0.6-0.1,1.1-0.8,1.2c-1,0.2-1.8,0.3-2.8,0.4c-0.2,0-0.4-0.1-0.6-0.1c0-0.1,0-0.1,0-0.2
		c0.3,0,0.8,0,1.2,0C170.8,57.3,170.4,55.2,170.6,53.3z"/>
	<path d="M211.8,141.3c-1,1-1.8,1.8-2.8,2.9c-1.2,1.4-2.4,2.8-3,4.4c-0.1,0.3-0.3,0.6-0.4,1c-0.1,0.4-0.4,0.4-0.9,0.3
		C206,146.4,208.6,142.5,211.8,141.3z"/>
	<path d="M181.7,29.3c0.2,0,0.3,0,0.5,0c-0.8,1.3-1.7,2.4-2,3.8c-0.2,1.4-0.5,2.8-0.9,4.2c0-0.3,0-0.5,0-0.9
		c0.1-1.5,0.1-3.1,0.2-4.7c0-0.5,0.2-1.2,0.3-1.7c0.2-0.9,0.9-1.3,1.8-1.5c0.4,0,0.8-0.1,1.3,0C182.5,28.9,182.1,29.1,181.7,29.3
		c-0.4-0.1-0.8,0.1-0.8,0.5C181.1,29.7,181.3,29.5,181.7,29.3z"/>
	<path d="M166.1,94.8c-0.3-2.1-0.5-4.2-0.9-6.2c-0.2-1.2-0.4-2.4-0.6-3.5c-0.1-0.8-0.1-0.8,0.8-1.1c0.4,0.4,0.4,0.9,0.4,1.4
		c0,0.6,0,1.4,0,2c0.1,1.3,0.3,2.6,0.5,3.9c0.1,0.8,0.2,1.6,0.3,2.4C166.6,94.1,166.6,94.6,166.1,94.8z"/>
	<path d="M223.8,36.7c-0.1-1-0.1-1.8-0.2-2.6c0-0.2,0-0.3-0.1-0.5c-0.2-0.5-0.3-1.1-0.5-1.6c1.5-0.2,2.6,0.5,3.3,1.9
		C225.5,34.9,225.2,36.1,223.8,36.7z M224.5,33.1c0,0.6,0,1.3,0,1.9C225.2,34.2,225.3,33.7,224.5,33.1z"/>
	<path d="M183.7,97.4c0-1.1,0-2,0-3.1c0-0.1,0-0.3,0-0.4c0-0.6-0.2-1.3-1-1.5c-0.8-0.2-1.5-0.5-2.4-0.8c-1.2-0.3-2.5-0.8-3.6-1.1
		c-0.9-0.2-1-0.4-1.2-1.1c0.9,0.2,1.6,0.5,2.4,0.8c1.6,0.5,3.1,1,4.7,1.4c1.1,0.3,1.4,0.4,1.4,1.8C184.2,94.8,184.1,96.1,183.7,97.4
		z"/>
	<path d="M175.3,90.1c0.1,0.2,0.2,0.5,0.2,0.8c0.2,1.4,0,2.7-0.5,3.9c-0.6,1.5-1.5,3-2.5,4.3c-0.2,0.3-0.5,0.5-0.8,0.8
		c-0.1,0-0.1-0.1-0.2-0.1c0.2-0.5,0.5-1.1,0.8-1.5c0.6-1.3,1.4-2.7,2-4.1c0.5-1.1,0.8-2.3,0.6-3.4c0-0.1,0-0.3,0-0.4
		C175.2,90.1,175.2,90.1,175.3,90.1z"/>
	<path d="M122.4,4.6c1,0.4,1.7,1.6,1.7,2.5c-0.1,1.1,0.1,2.1,0.3,3.2c0.1,0.4,0.2,0.9,0.2,1.4c0,0.3,0,0.6-0.1,1.1
		c-0.3-0.3-0.2-0.9-0.8-0.8c0,0-0.2-0.3-0.2-0.5c-0.1-0.6-0.2-1.3-0.2-1.9c-0.1-1.5-0.2-2.9-0.9-4.3C122.4,5,122.4,4.8,122.4,4.6z"
		/>
	<path d="M184.3,114.8c-2.1-2.4-4.5-4.5-7-6.4c0,0,0-0.1-0.1-0.2c0.2,0.1,0.4,0.1,0.5,0.2c0.2,0.1,0.4,0.3,0.5,0.2
		c0.9-0.2,1.3,0.4,1.8,0.9c1.5,1.3,2.9,2.7,4.2,4.2C184.4,114,184.7,114.3,184.3,114.8z"/>
	<path d="M153.2,88.6c0,2.5-0.4,4.8-1,7.2c-0.2,0-0.4,0.1-0.6,0.1c-0.4,0-0.5-0.1-0.4-0.6c0.3-1.3,0.6-2.6,1-3.9
		c0.2-0.8,0.4-1.4,0.6-2.1c0.1-0.2,0.2-0.4,0.3-0.6C153,88.6,153.1,88.6,153.2,88.6z"/>
	<path d="M203.7,102.3c0.5-2,1.1-4,1.6-6.1c0.1,0.5,0.2,1,0.3,1.3c0.2,1,0.4,1.9,0.5,2.9c0.1,0.8-0.2,1.2-0.8,1.3
		c-0.1,0-0.2,0.1-0.2,0.1c-0.3,0-0.5-0.1-0.9,0C204.3,101.9,204.1,102.1,203.7,102.3z M205.1,100.5c0.1,0,0.1,0,0.2,0
		c0-0.2,0-0.3,0-0.5c-0.1,0-0.1,0-0.2,0C205.1,100,205.1,100.3,205.1,100.5z"/>
	<path d="M186.6,109.3c0.5,1.5,1,2.9,1.4,4.3c0.2,0.8,0.4,1.5,0.5,2.3c0.1,1.2,0.5,2.3,0.4,3.4c0,0.5-0.1,1.1-0.1,1.7
		c-0.1-0.2-0.2-0.4-0.2-0.5c-0.3-2.8-0.9-5.5-1.7-8.3C186.6,111.3,186.5,110.3,186.6,109.3z"/>
	<path d="M166,144.2c0,0.6,0,1.2,0,1.8c0,0.4-0.4,0.6-0.8,0.9c-1.1,0.5-2.3,1-3.3,1.5c-0.8,0.4-1.6,0.9-2.5,1.3
		c0.1-0.8,0.4-1.2,1-1.4c0.9-0.5,1.8-1,2.7-1.4c0.4-0.2,0.8-0.3,1.2-0.5c1-0.2,1.5-0.9,1.4-1.9c0-0.1,0-0.2,0.1-0.3
		C165.9,144.2,166,144.2,166,144.2z"/>
	<path d="M155,64.8c-0.5,0.3-1.1,0.1-1.5-0.2c-0.4-0.3-0.9-0.6-1.3-1c-1.3-1-2.8-1.1-4.4-0.8c-0.1,0-0.2,0-0.3,0.1c0,0,0,0-0.1,0
		c0-0.1,0-0.3,0-0.4c-1-0.1-1.8-0.1-2.8-0.8c0.2-0.1,0.4-0.2,0.5-0.2c1.6,0.2,3.2,0.4,4.9,0.8c0.9,0.1,1.7,0.5,2.4,1.1
		C153.1,64,153.9,64.7,155,64.8z"/>
	<path d="M203.1,136c0.4-0.5,0.9-1,1.3-1.5c1.2-1.6,2.4-3.1,3.5-4.7c0.3-0.4,0.5-0.9,0.8-1.3c-0.8,3.4-3.1,5.8-5.5,8.1
		c0,0-0.1,0-0.2-0.1C203.1,136.3,203.1,136.2,203.1,136L203.1,136z"/>
	<path d="M153.8,84.2c-1.3-0.5-2.5-0.9-3.6-1.5c-0.9-0.4-1.6-1.1-1.3-2.3c0.2-0.1,0.3-0.1,0.5-0.2c1.3,1.5,2.9,2.7,4.6,3.8
		C153.9,84.2,153.8,84.2,153.8,84.2z"/>
	<path d="M134.4,36.4c0.1-1,0.9-1.3,1.5-1.5c0.9-0.4,1.2-1.1,1.4-1.9c0.1-0.4,0.2-0.9,0.5-1.3c0,0.2,0.1,0.3,0.1,0.5
		c-0.1,0.9-0.1,1.6-0.2,2.5c0,0.5-0.3,0.9-0.8,1.1c-0.5,0.2-1,0.5-1.4,0.8C135,36.7,134.7,36.4,134.4,36.4z"/>
	<path d="M158.7,149.6C158.7,149.6,158.7,149.5,158.7,149.6c-0.2-2,0-2.4,1.6-3.4c1.5-1.1,3-2,4.4-3c0.3-0.2,0.6-0.4,1.2-0.1
		c-0.3,0.2-0.5,0.5-0.9,0.8c-1.1,0.6-2.1,1.3-3.2,1.9c-0.4,0.3-1,0.5-1.4,0.9c-0.8,0.5-1.2,1.3-1.4,2.3c-0.1,0.2-0.1,0.5-0.2,0.8
		C158.9,149.6,158.8,149.6,158.7,149.6z"/>
	<path d="M173.6,62.8c0.3,1.4,0.6,2.9-0.1,4.3c-0.3,0.5-0.8,1.1-0.8,1.8c0,0.3-0.4,0.6-0.8,1c-0.8,0.6-1.1,1.3-1.1,2.3
		c0,0.6-0.1,1.3-0.3,2c0-0.1-0.1-0.2-0.1-0.3c-0.2-1.4-0.3-2.8,0.9-3.8c0.6-0.5,1.1-1.2,1.2-1.9c0-0.2,0.1-0.5,0.3-0.8
		c0.6-1,0.8-2,0.5-3.2c-0.1-0.4,0-0.9,0-1.3C173.4,62.8,173.5,62.8,173.6,62.8z"/>
	<path d="M179.7,116.2c-0.9-0.5-2.7-4.9-3.1-7.8c0.1,0.1,0.3,0.2,0.3,0.2c1,2.4,1.8,4.8,2.8,7.2C179.7,116,179.7,116.1,179.7,116.2z
		"/>
	<path d="M159.7,28.3c-0.8,0.2-1.4,0.3-2,0.6c-0.6,0.3-1.2,0.8-1.8,1.1c-0.2-0.2-0.3-0.4-0.5-0.6c0.6-0.5,1.3-1,2-1.4
		c0.3-0.2,0.8-0.2,1.1-0.3C158.9,27.5,159.4,27.7,159.7,28.3z"/>
	<path d="M165.1,51.4c-3.8-0.3-7.4-0.4-11-0.4c-0.1,0-0.2,0-0.4-0.2c0.2,0,0.3-0.1,0.5-0.1c2,0,4.2-0.1,6.2,0c1.4,0.1,2.9,0,4.2,0.4
		C164.8,51.2,164.9,51.3,165.1,51.4z"/>
	<path d="M166.8,83.5c1.1,1.9,2.7,8,2.5,9c-0.3,0-0.3-0.2-0.4-0.5c-0.4-1.5-0.8-3.1-1.2-4.6c-0.2-1.1-0.5-2.1-0.8-3.3
		C166.8,84,166.8,83.7,166.8,83.5z"/>
	<path d="M149.8,124.8c0,0.4,0.2,0.8,0.2,1.2c0,3.2,0.1,6.5,0.1,9.8c0,0.9,0,1.8,0,2.7c-0.1,0-0.1,0-0.2,0c0-0.3-0.1-0.6-0.1-1
		c0-0.4,0-0.8,0-1.2c0-2.3-0.1-4.5-0.1-6.8c0-1-0.1-1.9-0.1-2.9c0-0.6,0.1-1.3,0.1-1.8C149.7,124.8,149.7,124.8,149.8,124.8z"/>
	<path d="M167.2,94.7c-0.5-2.7-0.8-5.5-0.6-8.3c0.1,0.4,0.2,0.9,0.4,1.3c0.2,0.4,0.1,0.9,0,1.3c-0.1,0.5,0,1.2,0.1,1.7
		c0.1,1,0.3,1.8,0.5,2.8C167.7,94.1,167.6,94.3,167.2,94.7z"/>
	<path d="M209,61.4c-0.2,0.9-0.4,1.6-0.6,2.5h-0.2c-0.2-0.5-0.8-0.8-1.3-0.6c-0.9,0.1-1.2-0.5-1.5-1.2
		C207.3,62.4,207.9,62.1,209,61.4z"/>
	<path d="M169.9,92c-0.8-3-1.6-5.9-2.4-8.9c0,0,0,0,0.1,0c0.1,0.1,0.2,0.2,0.2,0.4c1,2.5,1.8,4.9,2.3,7.5
		C170.1,91.4,170.1,91.7,169.9,92z"/>
	<path d="M142.2,60.9c0.9,0.1,0.9,0.1,1,1c0.1,1.4,0.1,2.8,0.1,4.2C142.6,64.5,142.1,62.7,142.2,60.9z"/>
	<path d="M140.2,61.4c0,0.2,0,0.5,0.1,0.8c0.1-0.2,0.2-0.3,0.3-0.6c0.1,0.2,0.2,0.3,0.2,0.4c-0.1,1.3-0.1,2.6-0.2,3.9
		c0,0.1-0.2,0.2-0.3,0.4C140,64.7,139.6,63.1,140.2,61.4z"/>
	<path d="M151.3,65c0.2,0.6,0.1,0.9-0.5,1.2c-1.2,0.4-1.9,0-2.1-1.2C149.5,65,150.4,65,151.3,65z"/>
	<path d="M203.2,136c-0.2,0.2-0.5,0.4-1,0.9c0.4-1.7,0.9-3.3,1.3-4.9c0,0,0.1,0,0.2,0c0,0.2,0.2,0.4,0.1,0.6
		c-0.1,1.2-0.2,2.4-0.6,3.3C203.1,135.9,203.1,136,203.2,136C203.1,136,203.2,136,203.2,136z"/>
	<path d="M168,60.6c0.1,0,0.3-0.1,0.4-0.1c1.3-0.3,2.7-0.6,4-0.9c0.6-0.1,1.2-0.4,1.2-1.2c0-0.1,0.1-0.2,0.2-0.3
		c0.2,1.1-0.1,1.7-1.1,1.9c-1.2,0.2-2.4,0.4-3.5,0.5c-0.4,0-0.8,0.1-1.2,0.1C168,60.7,168,60.6,168,60.6z"/>
	<path d="M101.4,43.4c-0.2-0.3-0.3-0.6-0.5-1c-0.2,0.1-0.3,0.1-0.5,0.2c-0.2-0.2-0.4-0.4-0.6-0.6v-0.1c0.1-0.4,0.1-0.8,0-0.9
		C101.3,41,102,41.9,101.4,43.4z"/>
	<path d="M141.9,67.3c0.2,0.3,0.4,0.5,0.5,0.9c0.4,0.8,0.9,1.5,1.4,2.1c0.5,0.6,0.5,1.5,0.5,2.3c0,0.1-0.2,0.2-0.3,0.4
		c0,0-0.1,0-0.2,0c0-0.5,0-1,0-1.4c0-0.4-0.1-0.9-0.4-1.2c-0.2-0.2-0.4-0.4-0.6-0.6c-0.6-0.6-0.6-1.5-1.1-2.3
		C141.7,67.3,141.8,67.3,141.9,67.3z"/>
	<path d="M174.9,62.8c0,0.1,0.2,0.2,0.2,0.4c-0.2,1.4-0.2,2.8-1,4c-0.2,0.2-0.3,0.4-0.5,0.8l-0.1-0.1c0.1-0.2,0.2-0.5,0.4-0.8
		c0.3-0.5,0.5-1.1,0.5-1.7c0-0.5,0-1,0-1.5C174.4,63.4,174.5,63,174.9,62.8z"/>
	<path d="M207.8,55.8c0.1-0.8,0.9-0.8,1.1-1.2c0.2-0.4,0.5-0.9,1-1.4c0.3,0.9,0,1.5-0.3,1.9C209.1,55.8,208.6,56,207.8,55.8z"/>
	<path d="M163.3,64.7c0.2,0.1,0.5,0.2,0.8,0.3c0.4,0.1,0.8,0.2,1.2,0c0.2-0.2,0.5-0.1,1-0.2c-0.2,0.9-0.8,1.3-1.5,1.2
		C163.6,65.8,163.2,65.4,163.3,64.7z"/>
	<path d="M158.3,90.3c-0.1-1.1-0.1-1.1-1-1.4c-0.1,0.2-0.3,0.3-0.5,0.6c-0.1-0.4-0.1-0.9,0.2-1.1c0.4-0.3,0.6,0.1,1.1,0.3
		c0.2-0.6-0.2-1.3,0.2-1.9C158.6,88,158.6,89.5,158.3,90.3z"/>
	<path d="M155.5,92.6c0.4,1.3,0.2,2.5,0.2,3.8c-0.5-0.5-0.3-1.2-0.3-1.8C155.3,93.9,155.2,93.2,155.5,92.6z"/>
	<path d="M149.6,122.5c-0.1-0.1-0.2-0.1-0.2-0.1c0-0.1-0.1-0.2-0.1-0.3c-0.1-1.5-0.1-3-0.1-4.5C149.8,119,149.5,120.7,149.6,122.5z"
		/>
	<path d="M169.5,74.4c-0.2,1.4-0.5,2.7-0.8,4.2C168.4,77.9,168.8,75.5,169.5,74.4z"/>
	<path d="M208.6,61c-0.8,1-2,1.1-3.1,0.2C206.5,61.1,207.5,61,208.6,61z"/>
	<path d="M120.8,44.7c0-1,0.2-1.7,0.6-2.4c0.6,0.3,0.6,0.3,0.5,0.9C121.7,43.9,121.3,44.3,120.8,44.7z"/>
	<path d="M205.9,93.5c-0.2-0.4-0.4-0.9-0.6-1.5c0.1-0.1,0.2-0.3,0.4-0.4c0.5-0.2,1,0.2,0.8,0.8c-0.1,0.4-0.2,0.8-0.4,1.1
		C206,93.5,206,93.5,205.9,93.5z"/>
	<path d="M128.3,82.8c-0.1-1.5-0.4-2.8,0-4.1C128.6,79.1,128.6,81.9,128.3,82.8z"/>
	<path d="M155.7,149.3c-0.9,0.8-1.1,0.8-2.6,0.6C153.8,149.4,155.1,149,155.7,149.3z"/>
	<path d="M209.6,56.8c-0.1,0.6-0.2,1.2-0.2,1.8c-0.2-0.1-0.3-0.2-0.4-0.3c0,0.2,0,0.3-0.1,0.5C208.2,57.8,208.4,57.5,209.6,56.8z"/>
	<path d="M171.2,90.8c-0.1-1.2-0.2-2.3-0.4-3.4c0.1,0,0.2,0,0.2,0c0.1,1.2,0.8,2.3,0.4,3.4C171.4,90.8,171.3,90.8,171.2,90.8z"/>
	<path d="M161.7,93c-0.1-1.3-0.6-2.5-0.4-4C161.6,89.6,161.8,92,161.7,93z"/>
	<path d="M175,55.3c0.2,0.9,1,1.1,1.6,1.2c0.4,0,0.8,0,1.1,0.5c-0.9-0.2-1.6-0.2-2.4-0.4C175,56.5,174.9,56.1,175,55.3L175,55.3z"/>
	<path d="M135.6,136c-0.5,1-1.1,2-1.9,2.8c0.4-1.1,1.1-2,1.6-3C135.3,135.7,135.5,135.9,135.6,136z"/>
	<path d="M145.2,76.6c-0.1-0.9-0.2-1.8-0.3-2.8c0.1,0,0.1,0,0.2,0c0.2,0.8,0.4,1.5,0.6,2.4C145.7,76.4,145.6,76.6,145.2,76.6z"/>
	<path d="M210.6,124.2c0.2-1,0.4-1.8,0.5-2.6C212,122,211.8,122.8,210.6,124.2z"/>
	<path d="M168.1,80.9c1.1,0.8,0.9,1.7,1,2.6C168.8,82.7,168.3,81.9,168.1,80.9z"/>
	<path d="M185,96.1c0-0.8,0.1-1.3,0.4-2c0.1,0.3,0.1,0.5,0.2,0.9C185.8,95.5,185.6,95.9,185,96.1z"/>
	<path d="M160.1,85.5c0.4,0.4,0.6,1.9,0.3,2.7C160.2,87.3,160.1,86.4,160.1,85.5z"/>
	<path d="M171.7,61.7c0.4,0.5,0.8,1.2,0.1,1.9C171.6,63,171.5,62.3,171.7,61.7z"/>
	<path d="M141.3,63.8c0,0.8-0.1,1.6-0.1,2.4c-0.1,0-0.1,0-0.2,0c0-0.8-0.1-1.6,0.1-2.4C141.2,63.7,141.3,63.8,141.3,63.8z"/>
	<path d="M113.3,85c0.2,1.2,0.2,1.7-0.1,2.3C112.8,86.5,113.2,85.9,113.3,85z"/>
	<path d="M169.5,84.5c0.6,0.6,0.5,1.4,0.8,2.1C169.9,86.1,169.7,85.5,169.5,84.5z"/>
	<path d="M126,131.6c-0.3,0.6-0.5,1.2-0.9,1.7C124.9,132.5,125.1,132.2,126,131.6z"/>
	<path d="M184.6,23.8c-0.2-0.8-0.4-1.4-0.5-1.9C184.6,22,184.8,22.4,184.6,23.8z"/>
	<path d="M182.1,20.6c-0.9-0.4-1-1.1-1.2-1.7c0,0,0.1-0.1,0.2-0.1C181.4,19.3,181.8,19.9,182.1,20.6z"/>
	<path d="M125.3,138.5c-0.5,0.2-1,0.4-1.4,0.5C124.1,138.4,124.4,138.3,125.3,138.5z"/>
	<path d="M120.8,145.5c0.1,0.8,0.2,1.5,0.4,2.3c0,0-0.1,0-0.2,0c-0.1-0.8-0.3-1.5-0.4-2.3C120.7,145.5,120.8,145.5,120.8,145.5z"/>
	<path d="M171.5,68.1c0.2,0.4,0.4,0.9-0.2,1.4c0.1-0.3,0.1-0.5,0.1-0.8C171.5,68.5,171.5,68.3,171.5,68.1z"/>
	<path d="M204.9,47.5c-0.6-0.3-0.3-0.6,0-1C204.9,47,204.9,47.2,204.9,47.5z"/>
	<path d="M152.8,96.1c0-0.2,0-0.4,0.1-0.6C153.1,95.6,153.1,95.9,152.8,96.1z"/>
	<path d="M164.3,28.3c0,0.2,0,0.4,0,0.6h-0.1c0-0.2-0.1-0.4-0.1-0.6C164.1,28.4,164.2,28.3,164.3,28.3z"/>
	<path d="M167.3,78.2c-0.1,0.2-0.2,0.4-0.2,0.6H167c0.1-0.2,0.1-0.4,0.2-0.6H167.3z"/>
	<path d="M143.4,68.5c0.1,0.2,0.1,0.4,0.2,0.6h-0.1c-0.1-0.2-0.1-0.4-0.2-0.5C143.3,68.6,143.3,68.5,143.4,68.5z"/>
	<path d="M171.6,65.4c0-0.3,0-0.5,0-0.8C171.9,64.8,171.9,65,171.6,65.4z"/>
	<path d="M140.1,60.9c0-0.2,0.1-0.3,0.2-0.5h0.1c0,0.2-0.1,0.3-0.1,0.5C140.2,61,140.2,60.9,140.1,60.9z"/>
	<path d="M154.7,77.6c2,0,4.1,0,6.1,0c-2,0.3-4.1,0.2-6.1,0.2C154.7,77.9,154.7,77.7,154.7,77.6z"/>
</g>
</svg>
