<?xml version="1.0" encoding="utf-8"?>
<!-- Generator: Adobe Illustrator 24.0.2, SVG Export Plug-In . SVG Version: 6.00 Build 0)  -->
<svg version="1.1"
	 id="Слой_1" image-rendering="optimizeQuality" shape-rendering="geometricPrecision" text-rendering="geometricPrecision" xmlns:xodm="http://www.corel.com/coreldraw/odm/2003"
	 xmlns="http://www.w3.org/2000/svg" xmlns:xlink="http://www.w3.org/1999/xlink" x="0px" y="0px" viewBox="0 0 238.1 150.2"
	 style="enable-background:new 0 0 238.1 150.2;" xml:space="preserve">
<style type="text/css">
	.st0{fill-rule:evenodd;clip-rule:evenodd;fill:#373535;}
</style>
<g id="Layer_x0020_1">
	<g>
		<path class="st0" d="M6.3,26c0.2,0.3,0.8,2.7,0.8,3.1C6.6,29.3,6.3,29.2,6,29C5.9,28.6,5.9,26.4,6.3,26z M45.8,146.8v1
			c-0.4-0.2-0.6-0.6-0.8-1c0.8-1.5,2-1.3,2.4-0.9c-0.2,0.3-0.4,0.5-0.7,0.6C46.4,146.8,46.4,146.8,45.8,146.8L45.8,146.8z
			 M24.5,144.5l-3.2,0.1c0-0.4,0.1-0.6,0.4-0.8c0.6-0.5,0.2,0,0.4-0.8l2.6-0.3C24.6,143.2,24.7,144,24.5,144.5L24.5,144.5z
			 M22.8,141.9c0.1-0.9,0.7-0.9,1.6-0.6l0.2,1.2h-1.5c-0.4,0-0.3,0-0.4-0.2l1.3-0.2L22.8,141.9z M30.6,140c1.1-0.1,0.5,0.2,1.1,0.3
			c0.3,0.1,1,0,1.3,0c0.1,0.5,0.1,1,0,1.4c-0.5,0.1-1.6-0.2-1.9,0.2l0.7,0.1c0.9,0,1.6-0.2,2.3,0.3c-0.3,0.4-1.3,0.3-1.6,0.3
			c-0.6,0.1-1.3,0.3-1.7,0.1C30.8,142.3,30.5,140.5,30.6,140z M24.3,139.4c0.2,0.3,0.2,0.6,0.2,0.9h-0.7
			C23.9,139.9,24.1,139.7,24.3,139.4z M43.5,137.3c0-0.7,0.1-1.2,0.6-1.3c0.2,0.1,0.4,0.4,0.3,0.9C44.3,137.1,44,137.2,43.5,137.3z
			 M30.6,139.3l0.6-0.1c-0.2-0.1,0-0.1-0.3-0.2c-0.5-0.2-0.5,0.1-0.9-0.2c0.1-0.2,0.4-0.3,0.6-0.4c-0.2-0.3-0.1-0.1-0.4-0.3
			c0-0.6,0.1-1,0.3-1.3c0.1-0.2,0.7-0.6,1.1-0.7c-0.3,1.7,0.4,2.3,1.1,3.1c0.6,0.7,0.8,0.7-0.4,0.8c-0.6,0.1-0.5,0.1-1-0.2
			C31,139.6,30.8,139.5,30.6,139.3L30.6,139.3z M32.4,136.6c-0.2-0.1-0.2,0-0.2-0.8c0-0.4,0-0.7,0-1.1l4.6,2.2
			c0.3,0.2,0.5,0.2,0.8,0.4c0.4,0.2,0.6,0.3,0.8,0.6c-3.3-0.3-5.4-2.6-5.9-2.6c0,0.5,0,0.3,0.1,0.7
			C32.8,136.8,32.7,136.4,32.4,136.6L32.4,136.6z M31.6,129.7c0.5,0.2,0.6,0.4,1,0.8c1.2,1,0.4-0.1,1.8,1.5c0.3,0.3,0.6,0.6,1,0.9
			c0.5,0.4,1.7,1.1,2.5,0.9c0.4-0.1,0.9-0.5,1.1-0.7c0.4-0.3,0.6-0.6,1-0.8c0.4,0.1,0.3,0.2,0.7,0.2c0-0.6-0.2-0.4-0.2-1
			c0.4-0.2,0.7-0.5,1-0.9c0.2-0.2,0.3-0.2,0.5-0.4c0.4-0.3,0.1-0.4,0.6-0.4c0.5,0.8-0.4,1.3-0.7,1.6l-2.8,2.5
			c-0.2,0.2-0.6,0.6-0.8,0.6c-0.5,0.1-0.4-0.4-0.9-0.2c-0.4,0.1-0.1,0.4-0.8,0.1c-1.9-1-3-2-4.3-3.7C31.7,130,31.9,130.5,31.6,129.7
			L31.6,129.7z M43,124.2c0,2.3,0.5,1.7,1.3,3.1c0.6,1.1-0.2,2.5-1.2,2.6c-1-1.1,0.1-1.1,0.4-1.9c-0.5-0.3-0.6,0.3-1-1.7
			c-0.1-0.6-0.1-1.1,0.1-1.6C42.8,124.3,42.8,124.3,43,124.2L43,124.2z M25.1,135c0.1-0.8,0.4-2,0.6-2.9c0.5-2.3,0.8-5.2,1.3-7.2
			c0.1-0.5,0.4-1.1,0.4-1.3c0.5,2.4-1.3,8-1.5,10.3C25.8,134.7,25.6,134.8,25.1,135z M36.8,121.4c0.1-0.6,2.3-5.4,2.5-5.7
			c0.3,0.3,0.7,1.8,0.9,2.2c0.3,1,0.6,1.6-0.2,2.1c-0.3-0.2-0.3-0.4-0.6-0.7C38.2,119.4,38,120.9,36.8,121.4L36.8,121.4z M42,119.1
			c-0.1-0.2-0.1-0.1-0.1-0.7c-0.7-0.1-1.4-0.2-1.4-0.9c0.5,0.1,1.3,0.4,1.7,0.1c0.3-0.2,0.6-1,1-1.3C43.2,117.2,42.5,118.7,42,119.1
			L42,119.1z M31,117.3c0-0.9,2.6-7,3.3-8.4l0.7-1.1l2,3.4c0.8,1.3,1.3,2.9-1,3c-0.1-1,0.6-2.8,0.4-3.5c-0.6,0-0.7,1.5-0.8,2.1
			c-0.2,0.9-0.3,1.7-0.6,2.6c-0.1,0.4-0.3,0.8-0.5,1.1c-0.2,0.2-0.7,0.5-1,0.5c-0.6,0-0.6-0.2-1.3,0C31.9,117.1,31.4,117.2,31,117.3
			z M36,108.2c0.3-0.2,0.6-0.2,1-0.2l-0.1,0.6l-0.7-0.1C36,108.3,36.2,108.4,36,108.2z M18.1,106c0.4,2,1,5.6,1.8,7.4
			c-0.6-0.4-1.3-2.7-1.6-3.6c-0.2-0.5-0.8-1.2-0.8-1.8c0-0.4,0.1-0.7,0.2-1.1l0.2-0.8C18,106,17.9,106.1,18.1,106z M39.3,108.9
			c0.3,0.2,1.2-0.1,1.5-0.7l0.2-0.2c0.2-0.2,0-0.1,0.3-0.3c0.3,0.7-0.3,1-0.7,1.3l0.8-0.3c-0.1,1-0.1,0.7-0.8,1.1
			c-0.4,0.2-0.8,0.4-0.9,0.8c0.4-0.1,0.3-0.3,0.6-0.4c0.6-0.2,0.3,0.1,0.8,0.2c0.4-0.5,0-0.3,0.6-0.5l-0.3,1l0.8-0.2
			c0.4,1,0.3,1,0.2,2c0.3-0.2,0.2-0.3,0.6-0.5c0.4,1,0.8,1.7,0.7,2.1c-0.2,0.7-0.5,0.3-0.8,1.3l-0.2,0.6c-0.1-0.2-0.1-0.5-0.2-0.7
			c-0.2,0.2-0.4,0.5-0.6,0.8c-0.5,0.9-0.2,0.7-0.7,0.7c-0.2-0.4,0-0.2,0-0.6c0-0.2,0-0.2,0-0.3v-0.2c0-0.3,0.3-0.4,0.5-0.5
			c0.3-0.2,0.4-0.2,0.5-0.5c-0.7,0.2-0.7,0.4-1.3,0.6c0.2-0.7,0.4-0.4,0.6-1l-0.9,0.3c0.1-0.6,0.2-0.2,0.6-0.7h-0.5
			c-0.2,0-0.2,0.1-0.4,0.1c0.1-0.3,0.4-0.5,0.7-0.8c0.4-0.3,0.6-0.3,0.7-0.9c-0.6,0.2-0.6,0.5-0.9,0.9c-0.6,0.8-0.8,0.1-1.1-0.1
			c-0.5,0.1-0.6,0.2-0.9-0.2c-0.3-0.3-0.3-0.4-0.7-0.7c0.1-0.6,0.1-0.1,0.3-0.6l-0.5-0.2c0.4-0.3,0.8,0,1.2-0.4
			c-0.5-0.2-1.3,0.1-1.5-0.2c0.4-0.3,1.1-0.3,1.4-0.6c-0.4-0.4-1.3,0-1.7,0c0.3-0.5,0-0.1,0.3-0.3c0.3-0.2,0.4,0.1,0.5-0.8l-0.6,0.1
			c0.1-0.3,0.2-0.2,0.3-0.6l-1.1,0.2c0.3-0.7,0.9-0.8,1.3-1.4l-0.3-0.3c-0.2-0.2-0.1,0-0.2-0.4c1.2-0.2,2-0.1,2.8-1.5
			c0.3-0.5,0-0.2,0.4-0.4l-0.1,1c0.4,0.3,0.7,0.1,0.8,0.7C41.5,108,40.2,108.2,39.3,108.9L39.3,108.9z M28,108.4
			c0.1-0.4,0.1-0.4,0.2-0.9c-0.4,0.1-0.4,0.2-0.9,0.2c0.1-0.4,0.8-0.9,1.3-1.3c0.2-0.2,0.4-0.4,0.7-0.6l2.4-2.1
			c0.2-0.2,0.2-0.1,0.3-0.3c0.3-0.3,0.4-0.5,0.9-0.6c0.2,1.5,0.2,1.3-2,3C30.6,106.2,28.4,108.2,28,108.4z M39,103.2
			c0.3-0.5-0.1-0.3,0.4-0.6c0.4-0.2,0.6-0.1,1.7-0.9c0.5-0.4,1.3-1.4,1.4-2c0.3,0.3,0.2-0.2,0.3,0.7c0,0,0,0.6,0,0.7
			c0,0.4-0.1,0.8-0.2,1.1c-0.2,0.5-0.6,1.3-0.9,1.5c-0.2,0.3-1,0.8-1.4,1.1c-0.6,0.3-1.1,0.5-1.7,0.6c-1.8,0.4-2.4,0.3-3.8-0.7
			c-1.3-1-1.4-1.2-1.6-3.3c0.6,0.3,0.8,1.2,2.4,1.5c1.2,0.3,2.3,0,2.7,0C38.8,102.9,38.5,103,39,103.2z M15.1,97.6
			c0.5,0.3,0.2,0.4,0.6,0.5c-0.1-0.2-0.3-0.3-0.1-0.6c0.6,1,0.2,1.1,1.3,1.3c0.7,0.1,0.6,1.3,0.7,2.1c-1,0-1.6-0.4-2-1.1
			C15.4,99.5,15.1,98.3,15.1,97.6z M39.5,94.2c0.6-0.3,0.4-0.5,1.2-0.6c0.3,0.7-0.1,0.4,0.7,0.7l0.1,2.6c1.3-0.5,1-2.1,1.3-2.6
			c0.2,2.5,1.2,4.7-2.7,6.9c-0.5,0.3-1.3,0.5-1.9,0.6c-1.7,0.1-1.5-0.2-2.1-0.3c-1.3-0.1-2.3-0.1-2.7-2.3c0.4,0.2,0.3,0.2,0.7,0.4
			c-0.1-0.7-0.5-0.5-0.8-1.3c0.7,0.2,1.3,1.4,3.4,1.1l0.4-1.1c0.2,3-0.9,1.3-2.2,1.6c-0.3,0.1-0.1,0-0.2,0.1
			c0.3,0.3,2.2,0.5,2.6,0.2c0.4-0.4,0.1-1.7,0-2.2c-0.1-0.7-0.4-1.4-0.3-2.1c0.3-0.3,1.3-0.7,1.6-0.7c0.1,0.2,0,0,0.1,0.3l0.3,1.7
			c0.1,0.6-0.1,1.6,0.1,2c0.7,0.6,1.4-0.4,1.4-1.2c0-0.5-0.1-1,0-1.4c0.1-0.4,0.3-0.6,0.4-1L40,95.9c-0.1,1,0.1,2.1-0.1,2.9
			l-0.5,0.1c0.2-1.1,0.6-2.4-0.1-3.4c0.4-0.3,0.2,0,0.3-0.3C39.4,94.6,39.5,94.7,39.5,94.2L39.5,94.2z M15.8,94.9
			c-0.2-0.6-0.2-0.1-0.4-0.8c0.9,0.2,0.3,0.4,1,0.6l-0.2,0.6c0.5,0.2,0.8,0.4,0.9,0.9c0.1,0.4,0.2,1.1,0.1,1.4
			c-0.7-0.2-1.1-0.7-1.4-1.3c-0.3-0.5-0.7-1.3-0.5-2C15.6,94.8,15.2,94.9,15.8,94.9z M41.6,93.6C41.7,93.6,41.7,93.5,41.6,93.6
			c0.4-0.6,0.5-0.1,0.3-0.5c-0.1-0.2-0.4-0.2-0.5-0.3c0-0.4,0.1-0.6,0.3-0.9c0.4,0,0.6,0.1,0.9,0.2c0.1,0.4,0.2,0.8,0,1.2
			c-0.3,0.6-0.3-0.1-0.2,1.1c0,0.7-0.1,1.5-0.7,1.8C41.7,95.5,42.4,94,41.6,93.6z M33.4,88.1c0-1,0.2-1,0.7-1.1L33.9,88
			c0.6-0.2,0.3-0.3,0.9-0.5c-0.1,0.4-0.4,0.7-0.7,1C34,88.3,33.4,88.1,33.4,88.1z M37.5,82.9c0.5-0.4,1.1-0.5,0.9-1.6
			c0.4,0.2,0.4,0.3,0.8,0.6l0.6,0.5l-0.7,0.2c0.1,0.4,0.4,1,0.7,1.1l0.3-0.7c0.2,0.2,0.3,0.2,0.4,0.5c0.1,0.4,0.1,0.4,0.1,0.7
			c0.1,1.6,0.9,2.5,0.9,3.7c0,0.8-0.8,2.9-0.9,3.8c-0.1,0.8,0.2,0.6,0.3,1.2L40,93.3c-0.3,0.2,0.2,0-0.4,0.2
			c0.1-0.7,0.7-1.6,0.8-2.4l-0.7-0.2c0-0.7,0.2-0.6,0.3-1.3c-1,0-1.5,0.1-2.4,0.4c-1,0.3-1.3,0.6-2-0.2c0.4-0.8,1-1.3,1.4-2
			c0.6-0.8,0.7-1.1,1.1-2.2h0.6v-1.2c-0.5,0.1-2.5,2.1-3.3,2.5c0.2-1,0.2-0.3,0.6-1.2c-0.2-0.4-0.6-0.5-0.9-0.9l0.6-0.4v0.1v0.1
			c0,0,0,0.1,0,0.2c0.1,0.3-0.1-0.1,0.1,0.3c0.2,0,0.3,0,0.6,0l0.4-0.2c-0.3-0.5-1.3-0.9-0.5-1.3s0.9,0.1,0.9,0.1L36.6,84
			c-0.3,0.1,0.1-0.2-0.3,0c0.2,0.5,1.1,0.5,1.5,0.6C37.9,83.7,37.5,83.7,37.5,82.9z M16.7,92.7c-0.6-0.2-1.3-1.3-1.3-2.2
			c-0.1-1.1-0.3-2-0.5-3.1c-0.7-3.2,0.9-4.7,1.1-5.8l0.5,0.7c-0.5,0.2-1,1.1-1.1,1.9c0.3,0.2,0,0,0.3,0.1c0.2,0.1,0.1,0,0.2,0.1
			c-0.3,0.5-0.7,0.6-0.8,1.1c0.5-0.1,0.5-0.3,0.9,0c-0.4,0.3-0.7,0.2-1,0.6c0.1,0.5-0.1,0.1,0.3,0.4c0.6,0.3,0.9,0,1.1,0.9
			c-0.6-0.1-0.2-0.2-0.8-0.4c-0.2,0.3-0.3,0.5-0.4,1c0.2,0.2,0.6,0.2,0.8,0.5c-0.1,0.5-0.5,0.6-0.7,1.2l0.8,0.5
			c0,0.7-0.2,0.7-0.2,1.3l0.8,0.3c-0.1,0.7-0.2,0-0.2,0.6C16.6,92.4,16.7,92.4,16.7,92.7z M27,82.8c-0.3,0.1-1.1,0.5-1.4,0.3
			c-0.5-0.2-2-2.5-2.3-3.2c0.7,0.4,0.7,1.1,3.3,2.4C27,82.5,27,82.7,27,82.8C27,82.7,27,82.7,27,82.8z M24.2,75.2
			c-0.2-1-0.1-0.3-0.4-0.8l1.1-0.1c0.2-0.2,0-0.2,0.1-0.5h0.5c0.1,0.9,0.1,1.2-0.5,1.5c-0.5,0.3-1,0.6-1.3,0c0,0,0,0,0.1,0
			C23.8,75.4,24.2,75.2,24.2,75.2z M24,76.8c0.2-0.4,0.7-0.5,1.1-0.7c0.4-0.2,0.8-0.4,1.2-0.6c0.8-0.4,6.5-3.4,7-3.4
			c-0.5,2.4-1,3.2,0,4.7c0.8,1.3,2.4,2.1,3,3.1c-0.8-0.2-1.3-0.8-1.9-0.2c-0.3,0.4-0.2,0.4-0.7,0.7c-0.6,0.3-2,0.9-2.7,1.2
			c-0.7,0.3-1.3,0.5-2,0.1c0.2-0.3,0,0,0.2-0.2c0.5-0.5,1.8-1.2,2-1.7c-0.4-0.2-1.9,0.4-2.5,0.5c0.1-0.3,0.2-0.3,0.5-0.5l2.5-2
			c0.3-0.3,0.8-0.5,0.9-0.9L31,76.8c0-0.4,0.2-0.5,0.3-0.9c0.1-0.6-0.1-0.4-0.2-1c0.4-0.2,1-0.5,1.1-0.9
			C30.7,73.3,26.3,76.5,24,76.8z M17.1,73c0-0.5-0.1-0.4,0.1-0.8l1-1.6c0.2-0.3,0-0.2,0.5-0.3c-0.2,0.9-0.6,1.3-0.8,1.9
			c0.9-0.1,1.8-0.9,2.7-1l-0.8,1.9c0.6-0.1,2.1-0.8,2.5-0.3c-0.3,0.4-2.5,0.6-3,0.7c0.1,0.6,1.7,2.5,1.9,3l-1,0.6
			c-0.4,0.2-0.7,0.4-1.1,0.5c-1,0.4-1.3,0.2-2.2,0.9c-0.8,0.6-1.9,3.1-2.2,4l0.7-2.6c0.2-0.5,0.1-0.5,0.4-0.9
			c0.4-0.5,0.7-0.8,1.1-1.3c0.2-0.2,0.3-0.4,0.6-0.6c0.2-0.2,0.4-0.2,0.4-0.6c-0.3-0.1-0.6,0-0.8-0.2c0.2-0.5,0.2-0.1,0.7-0.9
			c0.2-0.3,0.5-0.6,0.3-1.1c-0.5-0.3-0.7-0.1-1.3-0.2c-0.4-0.1-0.8-0.3-1-0.6L17.1,73z M11.1,57.3c0.2-0.3,0.4-0.7,0.8-0.8l-0.2,0.9
			C11.4,57.5,11.3,57.5,11.1,57.3z M9.8,54.6c0.5,0.1,0.9,0.3,1.5,0.2c0.9-0.2,0.4-0.7,1.1-0.5c0,0.6-1.1,2-1.8,2.2
			C10.2,56.2,10,55.4,9.8,54.6z M29.6,53.6l0.2,1.1c-0.5-0.2-0.6-0.5-1-0.8L29.6,53.6z M16.5,56.5c-0.7-0.1-2.1-1.4-2.4-1.9
			c-0.9-1.1-1-1.7-0.7-3.2c0.5,0.1,0.8,0.5,1.3,0.9c1.3,1.1,1.6,1.1,1.7,2.2C16.4,55.2,16.6,55.9,16.5,56.5z M13,50
			c-0.2-1.4-0.7-3.8,0.1-4.9c1.2,0.7,1.8,4.3,2,5.8C14.7,50.8,13.3,50.1,13,50z M10.3,46.7c-0.4-0.4-1.3-0.5-1.6-0.9
			C8.2,45.4,8,45,8.2,44.1c0.3,0.2,0.1,0.1,0.5,0.5c1.8,2,3.1,0.6,4.2,0.2l-0.5,1c-1.1,1.3-2,0.7-2.5,1.6l1.6-0.4
			c-0.3,0.5-0.6,0.3-0.7,0.8c0.7-0.1,0.7-0.6,1.4-0.9c-0.3,0.7-0.7,0.9-0.8,1.4c0.6-0.2,0.3-0.4,1-0.6l-0.2,1.6
			c-0.8-0.3-2-1.9-3-1.4c-0.7,0.5,0.4,3.9,0.9,4.3c0.4-0.1,0.5-0.3,0.8-0.4c0.3,0.3,1,0.8,1.1,1.1c-0.8,0-1.8-0.2-2.3-0.8l-0.6-1.1
			C8,49,8.7,48.6,7.8,47.8c-0.5-0.5-0.5-1.6,0-2.4C8.1,45.6,8.7,46.8,10.3,46.7z M12.5,43.6c0.2,0.2,0.3,0.5,0.2,0.8
			c-0.4,0.3-2.3,1-2.8,1c-0.2-0.8-0.8-1-1.3-1.4c-0.5-0.4-0.8-1.7,0.1-1.2c0.4,0.3,1.2,0.9,1.6,1C11.4,44,11.9,43.5,12.5,43.6z
			 M16.7,43.8C16,43.7,15.9,43,15.9,42C16.5,42.3,17,42.9,16.7,43.8z M12.3,43.3c-2.2,0.7-3.8-0.9-3.6-1.6c0.2-0.6,0.2,0.2,1.7,0.7
			C11.4,42.5,11.9,42.4,12.3,43.3z M14.4,44.2c0-0.8-0.4,0.2-1.9-1.4c-1.6-1.8-0.6-3.6,0.4-4.9c0.4-0.6,0.9-1.7,1.6-1.8
			c0.6,0.9,0.5,5.3,0.5,6.6c-0.4,0-0.6-0.2-0.9-0.3c-0.1,0.3-0.3,0.5-0.4,0.9c0.2,0.2,0.2,0.3,0.6,0.4c0.2-0.4,0-0.4,0.3-0.7
			c1.1,0.1,1.2,3,1,3.4c-1.2,0.4-1.8-0.5-1.9-1.5c0.3,0.2,0.4,0.4,0.6,0.5c0.4-0.7-0.1-0.6-0.6-1.4C13.9,44,14.4,44.2,14.4,44.2z
			 M10.4,41.7c-0.8-0.2-0.2-0.4-1.1-0.7c0.6-0.8,0.8,0.1,0.3-2.2c-0.1-0.4-0.1-0.5,0-0.7l0.2,0.3c0.2,0.5,0,0.6,0.4,1.1
			c0.2-0.3-0.1-0.6,0.1-1c0.3,0.2,0.1-0.3,0.5,0.9c0.2,0.7,0.9,2,1,2.7C11.2,42.1,11.3,42,10.4,41.7z M34.3,36.9
			c0.2,0.3,0.3,0.1,0.5,0.7c0,0,0,0.1-0.1,0.1c0,0,0,0-0.1,0.1c0,0,0,0-0.1,0.1c-0.5,0.4-0.7,0.5-1.1,0.5c-0.3,0-0.1,0-0.5,0.1
			c0.1-0.3,0.1-0.4,0-0.6c-0.4,0.2-0.4,0.3-0.9,0.4c0.1-0.3,0.1-0.3,0.3-0.5l-0.3-0.3c0.4-0.1,0.8-0.3,1.1-0.6
			c0.7-0.6,0.3-0.6,0.8-0.8C34.2,36.4,34.2,36.7,34.3,36.9z M10.7,37c0.5-0.4,0.9-0.9,1.4-1.1c-0.1,0.8-0.3,3.1-0.5,3.6
			c-0.5-0.2,0-0.5-0.7-1.1c-0.7-0.5-0.8-0.3-1.1-0.9C9.8,37.7,10.7,37,10.7,37z M12.3,37.3c0.1-0.9,0-1.6,0.6-2.1
			c0.4,0.2,0.2,0.1,0.5,0.6c0.2,0.3,0.2,0.3,0.3,0.7C12.6,37.1,12.8,37.3,12.3,37.3z M30.6,34.9c0.6-0.3,0.8-0.4,1.3-0.9
			c0.4-0.5,0.5-1,0.7-1.3c0.3,0.2,1.2,1.8,1.2,2.1l-0.4-0.3C32.2,33.4,31.7,35.4,30.6,34.9z M30.8,30.4c0.1-0.1,0.1-0.2,0.2-0.4
			c0.1-0.3,0.1-0.1,0.2-0.3c0.3,0.3,0.6,0.5,0.6,1.1c0,0-1.5,1.7-1.9,1.8C29.7,32.6,30.8,30.4,30.8,30.4z M25.1,30
			c0.1-0.4,0.4-0.5,0.6-0.7s0.4-0.4,0.8-0.4l0.3,1.4L25.1,30z M27.2,29.7c0.4-0.1,0.4,0.1,0.8-0.1c0.3-0.1,0.1-0.1,0.3-0.4
			c0.2,0.2,0.2,0.1,0.2,0.6l-1.3,0.4L27.2,29.7z M29.2,28.7C29.2,28.7,29.2,28.8,29.2,28.7c0.4,0,0.6,0,0.8-0.3
			c-0.4-0.4-0.3,0-0.7-0.3c0.1-0.2,0.1-0.2,0.1-0.4c0.1-0.2,0.1-0.1,0.2-0.3l0.3,0.6c0.4,0.9,0.9,0.5,0.6,1.5
			c-0.1,0.5-0.7,1.9-1,2.2c-0.2-0.1-1-0.7-1.2-0.9h0.1l0.2-0.1c0.2-0.1,0,0.1,0.2-0.1l-0.4-0.2c-0.2-0.1-0.1,0-0.4-0.1
			c0.1-0.2-0.3-0.2,0.4-0.2c0.4,0,0.7,0.3,1.3,0.3c0.2-0.4,0.4-0.7,0.3-1.3c-0.2,0-0.5,0.1-0.7,0.2C29,29.6,29,30.1,29,30v0.1
			c-0.3-0.3-0.4-1.1-0.4-1.7L29.2,28.7L29.2,28.7z M26.1,27c0.2-0.1,3.9-0.7,4.3-0.7c-0.3,0.4-1.9,1.4-2.5,1.6
			c-0.3,0.1-0.5,0.2-0.9,0c-0.2-0.1-0.1-0.1-0.2-0.1l0.3-0.2c0.4-0.2,0.8-0.1,0.8-0.7C27.1,26.9,26.8,27.2,26.1,27L26.1,27z
			 M4.1,25.9v0.8c0.4,0.6,0.8,1.9,0.7,2.8c-0.1,2.1,0.7,1.4,1,2.5c-0.5,0.1-1.3,0.3-1.6,0.6v8.4c0.6-0.1,0,0,0.8-0.8
			c0.3-0.3,0.6-0.5,0.9-0.9c0.5-0.5,1.1-1.4,1.8-1.6c0.6,0.4,0.6,0.8,1.2,1.1c0.3-0.3,0.2-0.3,0.7-0.4l-1.5,5.2
			c-0.2,0.9-0.5,1.8-0.7,2.7c-0.3,1.3,0.3,1.6,0.7,2.5c0.3,0.8,0,0.9,0,1.3l0,0c-0.6-0.5-1.2,0.1-1.4-0.9c0.4-0.1,0.4,0,0.6-0.4
			c-0.1-0.1,0.2-0.2-0.7-0.1c-0.4,0.1-0.5,0-0.8,0.2c0,0.1,0.1,0.2,0.3,0.4c-0.3-0.1-0.6-0.1-0.8-0.2C4.9,49,4.9,49,4.8,49
			c0.3-0.5,0.3-0.2,0.6-0.6c-0.1-0.2-0.2-0.3-0.7-0.4c-0.5,0.1-0.3,0.1-0.6,0.1v2c0.5-0.1,0.4-0.3,1-0.3c0.3,0,0.7,0,1.1,0
			c0.5,0.4,1.2,0.7,1.6,0.4c0.1,0.5,1.2,2.7,1.4,3.6c0.5,1.4,0.8,4.5,2.3,4.4c0.8-0.4,1.3-1.7,2-1.9c0.1,3.9,0.2,4.8-0.4,8.5
			c-0.2,1-0.4,1.6-0.4,2.7c0,1.9-0.7,3.3-1.4,4.6c-0.9,1.7,0.7,3.6,0.6,4.9c-0.1,0.6-0.4,0.3-0.4,1.1c0,0.6,0.3,0.7,0.2,1.3
			s-0.9,1.3-1,2.1c-0.1,0.7,0.6,1.3,0.9,2c1.5,3.6-1.3,8.6,0.9,10.3c0.9,0.7,1.4,0.4,2.2,0.8c0,0.7-0.1,1.4-0.1,2.1
			c0,0.9,0.4,3.2,0.9,3.8c1.2,1.3,0.4,1.6,1.3,3.3c0.4,0.7,0.8,1,0.8,1.5c0,0.3-0.8,3.6-0.9,3.8c-0.7,1.2-4.1,2.8-5.5,3.6
			c-1.7,0.9-1.2,1.1-3.2,0.5c-0.9-0.2-2.7-0.7-3.5-1.1c-0.1,0.1,0,0-0.2,0.2v7.8c0.7,0,0.5-0.5,1.6-1.1c0.6-0.3,1.8-0.2,2.2,0.3
			c-0.6,0.8-3.1,1.5-3.9,2.2v1.5c0.6,0,3.3-1.2,4-1.4c1.3-0.5,2.6-1.2,3.9-1.6c0.7-0.3,1.3-0.5,2-0.8c1.3-0.4,1.7-0.5,2.8-1.3
			c1.3-0.9,1.2-1.1,2.6-1.7c0.7-0.3,1.1-1.3,2.1-2l8.6-6.8c0.3-0.2,0.6-0.4,0.8-0.7c0.7-0.5,0.2-0.4,0.9-0.6
			c-0.1,0.4-1.6,2.1-1.8,2.5c-0.2,0.3-0.3,0.4-0.5,0.6l-1.8,2.4c-0.2,0.2-0.3,0.3-0.5,0.6l-2.8,3.7c-0.6,0.9-1.8,2.4-2.7,3.7
			c-1.1,1.5-2.4,3.8-3.8,4.8c-1.3,1.1-0.4,0.9-1.3,1.1l1-1.3c0.3-0.4,0.2,0,0.2-0.5c-0.8,0.1-2.3,2.1-2.8,2.6
			c-0.3,0.3-2.8,2.3-3.2,2.3c-0.6,0-1.3-0.9-1.5-1.2c-0.9-0.7-2.2-1.7-3.4-2.1c-0.6-0.2-2.3-0.1-2.5-0.2l-0.3-1.5
			c0,0.4,0,0.5-0.2,0.8v24.5h3.9c0.1-0.4,0.5-6.5,1.8-10.7c0.5-1.7,1.3-2.9,2.1-4c0.7-0.9-0.2-0.6,1.9-1.3c0.5-0.2,2-0.7,2.4-0.7
			l-1.2,3.6c-0.5,1.7,0,2.4,0.2,4.1c0.2,2,0.7,4.5,0.7,6.5c0,0.7-0.1,1.9-0.1,2.3h2.9c0.4-0.7,0.1-0.7,1-1.4c1-0.9-0.5-0.3,0.9-0.7
			l-0.2-0.4c0,0,0-0.1-0.1-0.1c0.5-0.1,0.7-0.7,1-1.2c0.2,0,3-0.1,3.3,0.3l-1.9,0.2l1.7,0.2c-0.1,0.5,0,0.2-0.3,0.6l0.2,0.1
			c0,0,0.1,0.1,0.2,0.1l0.2,0.2c-0.5,0.3-2.5-0.2-2.8,0.2c0.3,0.4,2.1-0.1,2.7,0.3c0.3,0.2,0.4,0.6,0.7,0.9s0.5,0.7,0.7,1h3.3
			c1.8-1.5,0.9,0.4,1.7-2.3c0.2-0.5,0.1-0.8,0.3-1.3c0.7-0.2,1.4,0,2.1-0.1c0.4,0,0.3,0,0.3-0.3h-2.4l-0.2-1.3
			c0.4-0.2,4-0.8,4.9-0.2c0,0,0,0,0.1,0.1c0,0,0,0.1,0.1,0.1c0,0,0,0,0.1,0.1c-1,0.1-2.9-0.2-3,0.2c0.7,0.2,3.1,0,3.5,0.3
			c-0.4,0.3-0.5,0-0.9,0.3c0.4,0.1,1.1,0.2,1.4,0.4c-0.5,0.5-1.6-0.2-2,0.3l0.2,0.1c0.4,0.1,0.5,0.1,0.9,0.1c1.3,0,0.9,0.1,1.1,0.5
			c0.3,0.5,0.8,1.2,0.8,1.7l-2.4,0.2c0.5,0.3,1.6,0,2.2,0.2c-0.1,0.3-0.7,0.5,0,1.1h11.2v-0.6c-0.1-1.1,0.5-3-1.9-3.1
			c-1.4,0-2.8,1.3-3.9,1.2c-0.2-1-0.3-3-0.1-3.9c0.2-1.3,1.3-2.1,1.5-2.8c-0.3-1.1-0.9-0.6-0.1-1.8c1.3-2.4,0-1.3-0.5-3.8
			c-0.7-3.6,2-4.5,1.1-6.5c-1-1.8-1.3-1.7-1.3-4.3c0.1-1.3,0.2-6.9,0.5-7.9c0.2-0.8,0.1-1.7-0.3-2.4c-0.4-0.9-1.4-1.3-1.9-3.6
			c-0.2-1-0.1-1.7-0.2-2.5c-0.2-0.9-0.8-1.4-0.8-2.1c0.5-0.2,0.9-0.5,1.2-1s0.6-0.8,0.9-1.4c0.9-1.8-0.1-2.5,0.1-3.9
			c0.2-1.6,0.2-2.6,0.1-4.3c-0.2-2.7-0.1-1.6-1.8-2.8c0-1.1,0.5-3.5,0.7-4.6c-0.5-0.8-0.4-0.7-0.6-1.5c-0.1-0.6-0.3-1.3-0.5-1.7
			c-0.7-1.2-2-2.4-3.2-3.2l-2.5-1.7c-0.3-0.2-0.3-0.3-0.5-0.6L35,77.5c-0.2-0.8,0-0.4,0.1-0.5c0.2,0.6,0.4,1.2,0.9,1.3
			c0.1-1.3,0.2-3.3-0.2-4.3c-0.2-0.6-0.3-1.2-0.5-1.8c-0.3-1-0.5-1.1,0-1.7c-0.2-0.1,0.2-0.1-0.6,0c0-0.8-0.2-1.7-0.1-2.5
			c0.2-1.2,0.3-1,0.1-2.2l0.9,0.4c-0.1-0.8-0.7-1.1-0.7-1.8h0.8c-0.1-0.5-0.8-0.6-1.1-1.3c0.3-0.6,1.2-1.5,1.3-2.2
			c-1.7-0.6-1.3-0.3-1.4-1.4l-1.3,0.3c0.2-2.3-0.1-2.1-1.3-4.2c-0.5,0.2-0.1,0.1-0.4,0.5c-0.3-0.5,0-0.6,0.2-1
			c0.2-0.5,0-0.8,0.1-1.2c0-0.6,0.3-0.3,0.4-0.9c0-0.3,0-1,0-1.3c0.2-3.1-0.2-1.7-0.9-2.8c-0.2-0.3-0.3-0.6-0.4-1
			c-0.5,0.1,0,0.1-0.2,0l0,0l-0.1-0.1c-0.1,0.2-0.3,0.3-0.5,0.4c0,1-0.1,1-0.1,1.4v0.2c0.2,0,0.3-0.1,0.4-0.4
			c0.1-0.2,0.1-0.4,0.2-0.6c0.4,0.4,0.4-0.5,0.2,0.6c-0.1,0.5-0.3,0.5-0.4,1.3L29.3,50c-0.2,0.8-1.2,1.3-1.4,1.3
			c-0.2-0.9-0.5-2.4-0.4-3.2c0.2-1-0.1-0.6-0.3-1.4c-0.1-0.5,0-1.1-0.1-1.5c-0.4,0.1-0.2,0.2-0.2,0.8c0.1-0.1,0.1,0,0-0.3l-0.1-0.5
			c0-0.1,0-0.1,0-0.1c0,0.7,0.1,1.8-0.1,2.4c-0.2,0.5,0.2,4.2,1,5.2c0.3,0.4,0.3,0.3,0.6,0.5c0.3,0.2,0.4,0.2,0.5,0.6
			c-0.3-0.1-0.1,0-0.4-0.1l-0.2-0.2c-0.4-0.4-2.1-1.9-2.5-2l1.1,3.4c-0.6-0.3-0.6-1.3-1.1-1.6c-0.3-0.1-2.2,0.3-2.4,0.7
			c0.7,0.2,1.6,0.1,2.3,0.3l0.1,0.6l-7-1.4c0.2,0.5,1.1,1.5,1.4,2c0.4,0.6,0.4,0.3,0.5,0.8c-0.6,0-2-0.3-2.5-0.1
			c0.2,0.4,0.4,0.4,0.9,0.9c0.3,0.2,0.7,0.7,0.8,0.9c-0.3,0.3-1.2,0.8-1.5,0.9c0-0.6,0.8-1.1,0.2-1.5c-0.3,0.5,0.1,0.2-0.4,0.6
			c0-0.4-0.1-1.3-0.1-1.4c0.1-0.9,0.6,0,0.5-1.1c0-1-0.2-1.9-0.2-3c-0.1-1.9-0.3-4.2-0.3-6.1c0.5,0.2,0.1,0,0.4,0.3
			c0.5,0.5,1.1,1.4,1.6,1.9c0.6,0.4,2.5,1.3,2.7,0.1c-0.5,0-1,0.1-1.5,0.1c-1.1,0-1.1-0.1-1.2-0.5l1.8,0.2c0.3,0,0.1,0,0.3-0.1
			l0.2-0.1c-0.3-0.3-0.7-0.2-1.3-0.4c0.1-0.6,0.1-0.1,0.3-0.5c-0.9-0.2-0.9,0-1.2-0.4c0.3-0.1,0.2,0,0.3-0.1h0.1l0.2-0.1h0.1
			c-0.8-0.5-2.4-0.7-2.5-1.7c-0.3-3.8,0.6-2.4,0.9-3.3c-0.3-0.1-0.8,0.1-1.1,0.3c-0.7,0.3-0.1,0.8-0.5,1.2l-0.3-4.9
			c0.6-0.1,1,0.2,1.6,0c2.5-0.6,2.7-1.8,3.5-1.9c0,0.5-0.3,0.8-0.6,1.3c-0.9,2.3-0.9,3.7-1.1,4.2l0.1,0.1v0.1
			c-0.5-0.2-0.2-0.2-0.6-1L19.3,39c-0.3-0.5-0.2-0.7-0.6-0.8c0,0.9,0.5,1.8,0.8,2.5c0.8,1.5,0.6,0.5,1.1,1.1
			c0.3,0.4,1.2,2.2,1.4,2.4c0.4,0.3,2.2,0.2,2.6-0.1c-0.1-0.2,0,0-0.4-0.1c-0.1,0-0.3-0.1-0.4-0.2c-0.2-0.3,0.2,0-0.4-0.3
			c-0.3,0.4-1.3,0-1.3-0.2c-0.2-0.4-0.6-1.1-0.7-1.6c0.7-0.3,1.3-0.2,2.1-0.3c0.1-1-0.4-0.3-1.2-0.7c-0.5-0.3-0.5-0.6-0.5-1.3
			c0.5,0.2,0.2,0.2,0.6,0.7c0.2,0.3,0.4,0.4,0.7,0.2c-0.1-0.3,0.1,0-0.1-0.2c-0.5-0.5-0.4,0.2-0.5-0.7c1,0.1,0.2,0.2,0.9,0.5
			c0.1-1.2-0.4-1.3-0.8-1.5c-0.2-0.2,0,0.2-0.2-0.2c0.4-0.4,0.3,0,0.5-0.6c0.1-0.4,0.1-0.6,0.3-1c0.6,0.6-0.1,1.3,0.8,1.7l-0.3-1.8
			c0.5-0.1,0.6-0.1,1.1-0.1c0.8,0,0.1-0.2,0.9-0.2c0.7,0,1.3-0.3,2-0.2c0.4-0.2,0.2,0,0.4-0.3c-0.7-0.4-3.1,0.2-3.9,0.3
			c0.2-0.4,0.4-0.4,1-0.7c0.5-0.3,0.5-0.3,1-0.4c0,0,0.2-1,1.9-1.1c0.8-0.1,1.2,0.8,1.8,1.1l-0.1,0.1c-0.5,0.3-0.4,0.2-0.5,0.2
			c0.1,0.2,0.1,0.2,0.1,0.3c1.4,0.8,1.9,3.6,2,3.7c0.1,0.2,0,0.1,0.2,0.2l0.3-0.8c0.2,0.1,0.3,0.2,0.4,0.5c0.6,1.6-1.7,2.9-2,4.2
			c0.4-0.3,1.4-1.8,1.8-2.3l0.4-0.3c-0.1,0.6-0.5,1-0.5,1.3v0.2c0.2-0.1,0.6-0.8,0.7-1.1c0.2-0.4,0.2-1,0.5-1.3
			c0.1,0.3,0.3,0.7,0.3,1.1c0,0.6-0.1,0.6-0.2,1c0,0.5,0,0,0,0.3c0.3-0.2,0,0,0.3-0.3l0.3-0.3l0.1,0.2V42c0.3,0.8,0.3,0.8,0.2,1.3
			l0.3-0.2c0.2-0.8-0.1-1.9-0.2-2.8c0.7,0.4,0.3,0.4,0.6,0.9c0.2,0.1,0.3,0,0.1,0.1l0.1-0.4l-0.1-0.7h0.6v-0.3l-1.5-0.3
			c-0.1,0-0.2,0-0.3-0.1c-0.2-0.1-0.2-0.1-0.3-0.1c0.2-0.3,0-0.1,0.3-0.2l0.7-0.2c0.4-0.1,0.7-0.3,1.1-0.3c0.1,0.2,0.2,0.4,0.3,0.6
			l0.2,0.4h0.1c0.1-1.1-0.8-2.4-1.2-3.4c-0.5-1.2-0.7-2.3-1.2-3.4c-0.5-1.3-1.1-1.8-1.2-3.4c-0.2-1.9-1.2-1.3-2.4-2
			c0-0.7,0.7-1,1.1-1.6c-0.5-0.2-1.5-0.3-2.1-0.5c-0.6-0.1-1.7-0.3-1.9-0.5c0.3-0.2,0.6-0.3,1-0.3c-0.2-0.3,0.1-0.1-0.8-0.1
			c-0.3,0-0.6,0-0.9-0.1l-0.1,0.2c-0.9,1.5-1.3,0.3-1.9,0.1c-0.4,0.4-0.5,0.9-0.8,1.1c-0.4-0.3-0.4-1.1-0.9-1.3
			c-0.2,0.3,0.1,0.9,0.2,1.3c0.3,0.6,0.5,0.4,0.9,0.8c-0.4,0.4-3.2,1.2-3.9,1.4c-2.7,1-2.9,0.2-3.5-1.1c-0.3-0.4-0.2-0.8-0.2-1.3
			v0.1l-0.4,1c0,0-0.1,0-0.2,0.2c0,0,0,0,0,0.1c0,0,0,0,0.1,0l0.2,0.4c-0.1,0-0.2,0-0.3,0c0.2-0.1,0.1,0.1,0-0.1
			c-0.2-0.2-0.1,0-0.2-0.2l-0.6,0.2c0.2-0.8,0.6-0.3,1-1l-0.6-0.2c-0.4-2.1-0.2-2.6-0.8-4.4l0.5-0.7c-0.2-0.5-0.4-0.8-0.6-1.3
			l1.1,0.6L15,21c0.8,1,0.4,0.8,0.6,2.1c0.1,0.6,0.1,0.6,0,1.3c-0.2,1.3,0.2,0.1,0.2,1.2l0.4-1v-0.1c0,0.5-0.1,1,0.2,1.3
			c-0.1-0.8,0-1.5,0.3-2.1c1.1,0,0.6,0.6,0.8,1l0.4-0.9c0.2,0.1,0.1,0,0.2,0.2l0.2,0.8c0.5-0.1,0.3-0.2,0.6-0.4
			c0.4,0.4,0.1,0.5,0.5,1.1l0.1-0.5c0-0.2,0-0.3-0.1-0.5c-0.3-1-1-1.3-1.2-2.3c1,0.3,0.9,1.2,1.3,1.8c0.7,0,0.5-0.9,2-1.3
			c0.5-0.1,0.9-0.2,1.3-0.4c0.7-0.2,1-0.2,1,0.6c0.5-0.2,0.2-0.3,0.7-0.6c0.2-0.1,0.7-0.2,1-0.3c0.6-0.2,1.1-0.6,1.6-0.9
			c-0.1-0.4-0.1-0.2-0.4-0.4c0.1-0.1,1.6-0.7,1.7-0.7c0,0-0.3,2.3-0.4,2.3c0.1,0.5-0.1,0.7-0.4,0.7c-0.4,0-0.8-0.1-1.2,0.2
			c0.3,0,0.6,0.1,0.9,0.1c0.9,0,0.6-0.2,0.8,0.1c0.4-0.3,0.4-0.3,0.6-0.8c1.1-3.6-0.7-3.2-1.3-4.5c-0.4-0.9,0.1-1.3,0.2-2.1
			c-0.3-0.6-0.5-0.3-0.5-1c0-0.5,0.1-0.8-0.2-1.1c-0.8-0.6-1.2-0.3-1.3-1.5c-0.2-1.4-0.1-1-1.3-1.4c-2.6-1.1-4.7-0.3-5.8-2.4
			c-0.5-0.9-1.4-3.2-1.3-4.3C16.9,4,17.2,4,16.8,4v3.3c-0.7-0.4-0.8-1.3-1.3-1.5c0.1,0.4,0.2,0.8,0.2,1.2c-0.5-0.1-0.6-0.4-1.1-0.4
			c0.1,0.3,0.3,0.6,0.4,0.9c0.2,0.4,0.4,0.7,0.6,1.1c-0.5-0.2-1-0.7-1.4-1c-0.4-0.1-0.5-0.3-0.8-0.5c-0.3-0.2-0.5-0.4-0.9-0.5
			c0.2,0.6,0.3,0.5,0,0.8l-0.1-0.1c0,0,0-0.1-0.1-0.1l-0.1-0.2c-0.1-0.2-0.2-0.3-0.3-0.4c-0.2-0.4-0.2-0.7-0.7-0.7
			c0,0.8,1.1,2.5,1.3,3.5L6.9,11c0.9,0.2,1.4,0.4,2,0.9c0.5,0.4,1.2,0.9,1.5,1.4l-1.3,1.1c-0.3,0.3-1.1,0.9-1.3,1
			c-0.3-1.2,0.4-0.9-1.5-2.1l-1.6-1.1c-0.3-0.3-0.1-0.3-0.6-0.3V16c0.3,0.1,0.2,0.1,0.6-0.1c-0.1,0.9,0.2,1.5,0.4,2.4
			c0.1,0.6,0.2,1.7,0.6,2c0.3-0.5-1-5.1-1-6.1c2.4-0.4,2.8,0.7,2.6,3.1c-0.1,1,0.4,1.8,0.3,2.9c-0.1,0.9-0.4,1.6-0.6,2.4
			c-0.2,0.8-0.5,1.6-0.7,2.4s-0.5,1.5-0.6,2.3c-0.5,2.5,0.7,2.2,2,2.1h1c0.4,0.1,0-0.4,0.3,0.2l0.5-0.5c-0.4,0-0.3,0.1-0.3-0.2
			c0-0.3,1.9-1.5,2.2-1.7c0.5,0.3,0.5,0.7,1.2,0.7c-0.3-1-1.2-0.6-0.2-2.4c0.3-0.5,1-1.8,1.3-2.1c0.3,0.6-0.4,1.6-0.5,2.5
			c0.2-0.3,0.5-1.3,0.9-1.4c0,0.3-0.3,3.2-1.2,3.7c-0.1,0.1-0.1,0.1-0.2,0.1l-0.3,0.2c0.2,0.1,0.2,0,0.3,0.2c0,0,0,0,0,0.1l0.1,0.4
			l0.6-0.1h0.1c0,0,0,0,0.1,0c0.1-0.1,0-0.1,0.4-0.2c0.3-0.7,1.3-1.2,2.1-1.2L16,27.9l-0.7,0.5c0.1,0.3,0,0,0.2,0.2
			c0.1,0.1,0.2,0,0,0.1c0.8,0,0.2,0,0.4,0.2c0,0.5,0,1.6,0.4,1.9c0.3-0.4,0.1-0.8,0.3-1.3c0.2,0.1,0.1,0,0.2,0.2l1.9,3.1l-2.9,0.4
			c0.1-0.5,0.4-0.5,0.4-1.1c-0.8,0.1-2.5,0.6-2.8,0.4c0.6-0.5,1.8-0.5,2.4-0.9c-0.2-0.5-1.3-0.6-1.7-0.9l0.1-0.8h-0.5
			c-0.4,0.1-0.3,0.1-0.4,0.2c0,0,0,0-0.1,0c0,0,0,0-0.1,0l-0.6,0.1l-0.1-0.4v-0.1c-0.1-0.2,0-0.1-0.3-0.2c-0.7-0.1-2.1,0.6-3,0.7
			l-0.5,0.5c-2.1,0.4-3.9,1.6-3.7-1.8c0.1-2.1,0.3-4.3,0.4-6.5l-0.6,0.2c0,0.7,0.1,3.8-0.1,4.1C4.3,26.7,4.6,25.6,4.1,25.9L4.1,25.9
			z M108.3,120.3c-0.4-0.5-0.1-0.6-0.1-1.3c-1,0.1-0.6,0.2-1.4,0c0.2,0.8,1.3,0.9,1.3,1.6l-2,0.2c-0.6-1.2,0.4-1.2-1.1-1.4h-0.1V118
			c0.7,0.2,1,0.8,2.1,0.7c0.9-0.1,1.3-0.6,1.9-0.8l-0.2,1.8C108.4,120.4,108.6,120.1,108.3,120.3z M104.7,117.3l-0.3,1.2
			c-0.2-0.3-0.1-0.9,0-1.3l0.3-1.1c0,0,0,0,0-0.1l0.1,0.1c0,0,0.1,0.1,0.1,0.2c0.2,0.4,0.2,0.5,0.5,0.8c1.3,1.3,2.7-0.3,3.6-0.4
			c-0.1,0.7-0.2,0.7-0.7,0.9c-0.4,0.2-0.8,0.3-1.3,0.4C105.1,118.3,105.6,117.4,104.7,117.3L104.7,117.3z M107.6,116.6
			c0-0.8,0.1-1.9,0.9-1.7C108.8,115.8,108.4,116.6,107.6,116.6z M106.6,116.8c-0.3-0.1-0.8-0.4-1-0.6c0.2-0.3,0.8-0.4,1.1-0.5
			L106.6,116.8L106.6,116.8z M119.2,105.7c0.8,0.3,0.6,0.5,1.3,1.3c0.8,1.1,0.2,1.5-0.1,1.9c0.2,1.3,0.6,1.4-0.9,1.6
			c0.2-0.8,0.6-0.5,0.7-1.1c0-0.2,0-2.2-0.4-2.8c-0.1-0.2-0.2-0.3-0.3-0.4C119.2,106,119.4,106.2,119.2,105.7z M52.8,90.5
			c0.3-0.9,1.6-0.8,1.6-0.5c-0.1,0.5,0.2-0.4,0,0.1l-0.1,0.2C53.8,90.7,53.3,90.7,52.8,90.5z M56,89c-0.1,0.1,0,0.1-0.2,0.2
			c-0.7,0.6-1.6,0.4-1.7-0.5C54.5,88.3,55.5,88.7,56,89z M129,97.4c0-1.6,0.8-1.1,1.1-2.2c0.1-0.5,0.1-1,0-1.4
			c-0.3-0.9-0.2-0.4,0-1.2l-0.7-0.2l0.3-0.5c-1.7-0.9-1-2-1.3-2.3l0.1,2.2l-1.8-1.4l1-2.2c0.9,0.1,2.1,0.8,2.9,0.8
			c0.2-0.8-0.3-0.5-0.9-0.7c0-0.6-0.1-0.1,0.2-0.5l1.2-0.8c0.3,1.9,0.4,4.1,0.4,6.3c0,0.8-0.5,1.7-0.8,2.5
			C130.5,96.4,129.7,97.4,129,97.4L129,97.4z M100.1,109.1c0-0.5,0.4-0.7,1.1-1.3c0.4-0.3,1.2-1.1,1.3-1.5c0.3-0.7,1.3-1.8,1.6-2.1
			l1-0.9c0.8-0.7,0.7-0.5,1.4-1.6c1.4-2.3,3.2-3.2,3.9-4.2c0.5-0.7,0.3-0.3,0.7-0.6c0.2-0.2,0.2-0.2,0.3-0.4
			c0.2-0.2,0.5-0.4,0.7-0.6l2.7-2.9c0.1-0.2,0.2-0.2,0.3-0.4l1.6-2.1c1.5-2.1,1.2-3,1.7-3.3c0.3,1.8-1.2,3.5-1.4,4.2
			c-1.3,3.3-0.6,2.3-0.8,4.8c-0.1,1-0.3,1.8-0.3,2.7c0.1,1.3,0.3,1.1-0.1,2.4c-0.5,1.4-0.6,3.5-0.7,5l-0.3,0.3
			c-0.5,0.5-0.2,0.1-0.6,0.3c-0.1,1.3,0.3,1.1,0.4,1.9l-0.7-0.7c-0.9-0.9-1.9,1-2.7-0.3c-0.4-0.6-0.4-1.4,0-2c0.2-0.3,0.4-0.5,0.3-1
			c-0.1-0.2-0.5-0.6-0.7-0.7c-0.5,0.2-0.4,0.4-0.8,0.7c-0.2,0.2-0.6,0.3-0.9,0.5c-0.5,0.5-0.5,1.3-0.9,1.7c-1.2-0.1-1.5-1.2-2.2-1.3
			c-0.2,0.5-0.4,1.5-1.8,1.7c0.1-0.7,0-1.3-0.2-1.9c-0.6,0.2-0.7,0.7-1,1c-0.8,0.5-0.4-0.1-1.5,1.2
			C101.6,108.2,100.9,109.2,100.1,109.1z M133.4,84.2c0.4,0.1,0.3,0.1,0.7,0.3c0.1,0.1,0.2,0.1,0.3,0.1c0.2,0.2,0.1,0.1,0.2,0.3
			l-1.1,0.2L133.4,84.2L133.4,84.2z M100.4,88.7c0.2-0.6,0.6-1.2,0.9-1.6c0.3-0.5,0.6-1,0.9-1.4l1-1.3c0.1-0.1,0.2-0.2,0.3-0.4
			l1.3-1.6c0,0,0.1-0.1,0.1-0.2c0.1-0.1,0.1-0.1,0.1-0.2l0.4-0.5c1.1-1.2,1-1.8,2.5-1.3c0.8,0.3,1,0.2,1.2,1.1l2.7-0.4
			c0.1,1.1,0.3,1.8,1.3,1.8c2.2-0.1,2.7-1.3,4.4,0.4c0.2,0.2,0.3,0.2,0.5,0.4c0.2,0.1,0.2,0.2,0.4,0.4c0.4,0.4,0.4,0.3,0.8,0.8
			c-0.1,0.3-0.3,0.6-0.5,0.9c-0.4,0.7-1.3,1.5-2.1,1.8c0.2-0.5,0.6-1.1,0.6-1.4c0.2-1.1-1.2-1.6-1.7-0.5c0.2,0.4,0.2,0.1,0.4,0.6
			c-0.2,0.4-3.3,4.5-3.5,4.7c-0.2-0.5,0.1-0.7-0.3-1c-0.3-0.2-0.5-0.2-0.7-0.5l0.7,0.2c0-0.4-0.1-0.8,0-1.2c0.1-0.6,0.4-0.3,0.4-1.1
			c-0.4,0.1-0.8,0.5-1.1,0.8c-0.7,0.8-0.9,0.2-1.3,0.7l-0.8,1c-0.4,0.5-0.3,0.8-0.2,1.4c0.1,0.8-0.3,1,0,1.7c0.3,1,0.3,0.5,0.9,1
			c-0.5,0.9-1.5,2.6-2.3,2.9c-0.2-1.8,0.2-2,0.6-3.1c-1.1,0.3-1.9,1.3-2.7,1.9l-1.5,1.4c-1.9,1.5-3.9,3.2-5.7,4.8
			c-0.2,0.2-0.3,0.2-0.5,0.4l-1.5,1.4c-0.2,0.2-0.2,0.1-0.4,0.4c-0.2,0.2-0.5,0.6-0.8,0.7c0-0.6,0.3-0.5,0.4-1.2
			c-0.4,0.2-0.6,0.5-0.8,0.9c-0.6-0.2,0,0-0.3-0.2c-0.6-0.4,0.2,0-0.3-0.2c-0.7,2.1-1.5,0.1-0.6-1.2l7.6-9.4c0,0,0,0,0.1-0.1l1-1.2
			c0.3-0.4,0.4-0.6,0.7-0.9c0.2-0.2,0.4-0.5,0.5-0.9c-0.6,0-1.8,1.9-2.3,2.5c-0.2,0.3-0.3,0.2-0.5,0.4c-0.3,0.3-0.5,0.8-0.8,1.1
			c-0.2-0.2-0.2,0.2-0.1-0.4c0.1-0.5,0.7-1.9,0.9-2.2c0.6-1.1,1.3-1.4,1.4-2l-0.9,0.6c-0.4,0.3-0.9,0.7-1.3,0.8
			c0.2-0.4,0.2-0.3,0.4-0.5l0.7-0.6c0.2-0.2,0.3-0.3,0.6-0.5l0.2-0.2c0,0,0,0,0.1,0c0.1-0.1,0.1-0.1,0.3-0.2c0-0.4-0.1-0.4-0.2-0.8
			c0.6,0.1,0.7,0.1,1.1-0.3c0.2-0.2,0.4-0.4,0.5-0.8c-0.3,0.1-0.6,0.4-0.8,0.4c-0.4,0-0.3-0.2-0.8-0.2
			C101.4,87.9,101.2,88.3,100.4,88.7L100.4,88.7z M83.8,96c0.3-0.7,0.6-0.8,1-1.1l2.6-2c1.4-1,0.2-0.9,1.3-1.3
			c0.5-0.2,0.8-0.4,1.2-0.7l7-3.9c0.8-0.6,3.9-2.2,4.8-2.4c-0.1,0.4-1.2,2-1.4,2.2c-0.5-0.2-0.8-0.5-1.3-0.6
			c0.2,0.9,1.3,0.8,0.9,1.4c-0.5,0.5-1.3-1.8-2-0.7c0.3,0.5,0.2-0.1,0.4,0.5c-0.5,0.4-0.4,0.4-0.8,0.9l-0.7,0.9
			c0.2,0.5,0.6,0.3,0.5,0.9c-0.1,0.4-0.3,0.6-0.4,1.1l1-0.3l-1.3,1.9c-0.4,0.7-0.9,1.2-1.2,1.8c-0.5-0.2-0.1-0.3-0.6-0.3
			c-0.5,0.7-0.6,2.3-1.2,2.6c-0.5,0.3-2.2,0.6-2.5,1.1c0.9,0.9,0.8-0.4,2.4-0.6l-0.3,1.6c-0.5-0.2-0.5-0.4-1.2-0.3
			c-2.1,0.1-0.9,1.8-0.9,2.3l-1-0.1c0.1,0.2,0.2,0.3,0.3,0.6c0,0.3-0.1,0.2-0.2,0.6c0.5-0.1,0.5-0.2,1-0.2l0.2,0.9l0.9-0.1l-0.8,4.3
			c-0.1,0.7-0.1,1.2-0.4,1.3c-0.4-1.3,0.5-1.7-0.9-2.9c-0.3-0.3-1-0.7-1.1-0.8c-0.4-0.4-0.1-0.8-0.8-1.2c-1.2,0-1.7,1.4-3.6,1.4
			c-1.2,0-3.2,0.3-4.3,0.6c0.7-1.3,0.9-0.2,0.7-2.4c0.5,0,2.1,0.4,2.1-0.2l-0.1-0.8c-2.7-0.5-1.9-0.1-2.7,0.3
			c-0.1-0.1-0.3,0.2-0.1-0.4l1.5-1.8c1.6-1.9,1-1.6,1.1-2.3c0.1-0.4,2-2.4,2.2-2.6c0.6-0.8,1.2-1.2,1.3-1.6L83.8,96L83.8,96z
			 M133.3,83.8c-0.8-0.5-0.8-0.8-0.4-1.2c0.5-0.5,1.5-1.3,1.8-0.2c-0.2,0.4-0.5,0.4-0.7,0.7C133.8,83.4,133.7,83.5,133.3,83.8z
			 M125.8,79.3l-0.5-1.9c0.3,0.1,1.3,1.6,1.3,1.8L125.8,79.3z M130.5,77.7c-0.2-0.3-0.2-0.2-0.4-0.4c2.3-0.5,1.9,3.1,3,3.9
			c0.3,0.2,0.3,0.1,0.5,0.6c-1.7,1.1-1.5,1.9-1.3,3.2c-1.4-0.3-0.4-1.3-1.7-2.6c-0.9-0.9-1.2-2.1-0.7-3.2l1.3,0.1
			c-0.2-0.4-0.4-0.3-0.8-0.6L130.5,77.7L130.5,77.7z M83.6,78.2c0.2-0.3,0-0.1,0.3-0.4c0.4-0.3,4.6-2.2,5.2-2.4
			c1.8-0.6,8.4-2.3,10.2-1.3c1,0.6,1-0.3,1.6,0.2l2.7,3.6c1.1,1.3,0.9,1.2,2.1,1.6l0.2,0.1h0.1c-0.4,0.5-1.4,1.2-1.8,1.5
			c-0.4,0.4-0.6,0.5-0.9,0.8c-0.4,0.4-0.4,0.6-1,0.5c-1.3-0.1-3,2-4.3,1.8c-0.1-0.3,0.1-1.2-1-2.2c-0.3,0.1-0.8,0.5-0.9,0.9
			c-0.1,0.7,0.4,0.8,0.3,1.3l-1.2,0.2c-0.1,1.4,0.7,1.3-0.7,2.2c-0.9-0.5-0.6-0.4-1.5,0.2c-2.6,1.5-3,1.2-4.9,2.1
			c-2.3,1.1-2.7,1.4-5,2c-0.9,0.2-1.1,0.7-1.6,0.9c-0.2-2.4-1.1-1-1.6-2.5c-0.7-1.6,0.4-2.5,1.3-3.4c0.6-0.7,0.4-0.8,0.6-1.7
			c0.1-0.4,0.6-1.2,0.9-1.5c0.3-0.6,0.4-1.1,1.2-1.1c0.5,0,1.1-0.6,1.3-0.9l1.1-1.2c-0.2-0.6-0.2-0.1-0.3-0.9c2-1.4,1.9-1.3,4.2-2.3
			c0.8-0.3,1.3-0.4,1.3-0.8C89.4,74.4,85.1,78.3,83.6,78.2z M108.3,77.8c0.5-0.5,0.9-0.9,1.3-1.3c0.3-0.4,0.4-0.3,0.7-0.6
			c0.2-0.3,0.4-0.5,0.7-0.8c1.3-1.4,2-0.5,3.9-0.1c0.5,0.1,1.9,0.4,2.3,0.3c0.5-0.1,1.9-1.3,2.3-1.7c1-1,1.7-1.2,1.9,0.8L122,74
			c0.3,1.6-0.8,5.2-1.6,6.1c-0.6-0.4-0.7-1.5-2.3-1c-1,0.3-1.5,0.8-2.6,0.1c-0.4-0.2-0.6-0.6-1.1-0.7c-0.5-0.1-2.7-0.1-3.3,0
			c-0.8,0.1-0.7,0.4-1.2,0.5C109.9,79,108.5,78.3,108.3,77.8z M75.2,80c0.9-0.6,4.2-3.1,4.7-3.3c0.5-0.2,1.1-0.1,1.7-0.3
			c0.5-0.2,1-0.3,1.4-0.5c0.8-0.2,2.4-0.9,3-0.9l-0.6,0.4c0.2,0.4,0.3,0.2,0.6,0.5c-0.5,0.4-6.5,3.9-6.9,4.5c-0.4,0.5,0,0.5-0.8,0.7
			c-0.5,0.1-0.6,0.2-1,0.5c-0.8,0.5-1.1,0.8-2,0.7c-0.9-0.1-1.8,0.7-3,1.3c-0.2,0.1-0.3,0.2-0.5,0.3c-0.5,0.3,0.2,0.2-0.5,0.3
			c0-0.5,0.4-0.9,0.7-1.1c1.9-1.8,0.5-0.1,2.5-1c0.4-0.2,0.9-0.4,1.2-0.5c-0.2-0.6-0.1,0-0.4-0.6c0.2,0,0.6,0,0.7-0.1
			C76,80.3,75.5,80.5,75.2,80L75.2,80z M109.1,71.2c0.4-0.4,0.1-0.3,0.3-0.7c0.6,0,0.6,0.4,0.9,0.6c0.5,0.5,0.4,0,1.1,0l0.2,2.3
			c-0.1,0.4-3.7,2.7-4.3,3.1c-0.8-0.5-0.9-1.6-1.7-2.6c-0.2-0.2-0.6-0.4-0.7-0.7c0.2-0.3,0.5-0.5,0.7-0.7c-0.1-0.2-0.2-0.2-0.3-0.4
			c0.5-0.7,0.5-0.9,1.4-1.2c0.8-0.3,1.4-0.3,2.2-0.3l0.1,0.2C109.1,71.3,108.8,71.1,109.1,71.2z M99.1,73.6c0.1-0.7,2-1.8,2.1-1.8
			c0.3-0.1,0.7,0.1,0.9,0.3c-0.2,0.2-0.4,0.4-0.7,0.6C100.2,73.7,100,74,99.1,73.6z M125.7,72.8c0,0,1.5-1.8,2-1.7
			c0,1.1-1.5,0.9-1.4,2.2C125.9,73,125.9,73,125.7,72.8z M92,70.8c-0.2,0.4,0,0-0.2,0.3l-0.4,0.3c-0.2,0.1-0.3,0.2-0.5,0.3
			c-1.6,1.1-0.6,1.3-0.3,2c-0.6,0.2-1,0.6-1.8,0.7h-1.7c-0.4,0-0.1,0.1-0.4-0.1c0.4-0.3,1.2-0.4,1.6-0.5c-0.1-1.1-0.7-0.4-1.3-0.8
			c0.1-0.5-0.1-0.1,0.3-0.4c0.7-0.5,2.1-0.3,2.8-1c-0.2-0.6-0.2,0-0.3-0.6L92,70.8L92,70.8z M129.4,70.5c-0.2-0.7-0.3-0.5-0.5-1.1
			c1.3,0,1.5,0.4,1.5,1.6c0,1-0.2,1.8-0.5,2.7c-0.5-0.2-0.1-0.2-0.7-0.9c-0.2,0.3,0.1,1.1,0.2,1.4l0.4,0.1c-0.3,1.7-0.6,1.9-1.6,2.1
			c-1.4,0.4-2.1,0.5-2.7-0.7c0.8,0.2,1.2,0.2,1.9,0c0.5-0.2,1.2-0.3,1.4-0.9c-1.3,0.1-2,0.9-3.4,0.4c-0.1-0.3-0.2-0.6-0.1-1
			c1.1-0.1,2,0.5,2.8-0.5c-0.4,0.1-0.8,0.2-1.3,0.2c-1.1,0.1-0.9,0.2-1.3-0.2c0.9-0.1,2.3-0.1,2.7-1
			C128.7,72.1,128.4,70.5,129.4,70.5L129.4,70.5z M129.4,67.7c0.3,0,1.3,0.3,1.5,0.5c0,0.4-0.2,0.7-0.3,1.1c-0.5,0-1.1-0.1-1.4-0.3
			L129.4,67.7z M116.7,69.6c-0.6,0.2-1.1,0.7-1.5,1.1c-0.5,0.4-0.9,0.8-1.4,1.2l-0.5-4.1l1.4-0.5c0.3,0.8,0.3,0.7,1.2,1.1
			c1.3,0.6,0.5-0.3,1.5-0.1C117.6,69.2,117.4,68.4,116.7,69.6L116.7,69.6z M116.7,69.6c0.7-0.4,1.7-1,1.8-1.6
			c-0.3,0.1,0,0.1-0.5,0.1v-1.3c0.5,0.1,0.1-0.1,0.5,0.2l0.8,1c-0.2,0.8-0.8,0.7-0.9,1.3c0,0.6,0.1,1.4,0.5,1.7
			c0.8,0.3,0.9-0.3,1.4-0.7c0.1,1.1,0.2,0.6-1.5,1.8c-0.7,0.5-1.2,1.2-1.6,1.7c-0.8-0.2-1.8-1.3-2.7-1.6
			C114.7,71.4,116.1,70.8,116.7,69.6z M91.1,68.9c0.2,0.3,0.2,0.2,0.4,0.5c-1.2,0.3-1.7-1.1-1.8-2.1C90,67.4,90.7,68.5,91.1,68.9z
			 M95.9,66.2c0.4,0.1,0.8,0.6,0.9,1l-0.5,0.3c-0.3,0.1-0.2,0.1-0.5,0.2C95.9,67.5,95.9,66.2,95.9,66.2z M123.3,68.6
			c-0.3,0.2-1.3,0.4-1.7,0.4c-0.6,0-1.1-0.4-1.3-0.7c-0.2-0.2-0.3-0.4-0.5-0.6c-0.8-1.3-1.2-1-1.2-1.9c0.6-0.5,0.7-0.5,1.5-0.3
			c1,0.2,1.4,0.2,2,1.1c0.2,0.2,0.2,0.4,0.4,0.6C123.2,67.8,123.4,67.4,123.3,68.6z M118,65.8c-0.4-0.5-0.3-0.8,0.3-1.2
			c0.3,0.1,0.4,0.3,0.6,0.5C118.6,65.4,118.4,65.7,118,65.8z M125,69.7c-0.5-0.7-0.3-1.1-0.9-1.7c-0.4-0.4-0.8-1.2-0.8-1.9
			c0.8-0.2,1.7-0.2,2.4-0.5c0.7-0.4,1.2-0.8,1.7-1.2c0-0.6-0.2-0.4-0.3-0.9c0.5-0.7,0.5,0.1,0.3-1.3c1.1,0.7,0.1,1.3,0.9,2.2
			c0.6,0.7,0.2,0.2-0.1,2.2l0.4,0.1c-0.1,0.5-0.5,2.2-0.8,2.4c-0.2-0.4-0.1-0.5-0.4-0.6c-0.2,0.4,0.1,0.5,0.2,1.3l-0.6,0.2
			c-0.2,0-0.3,0.1-0.5,0.1c-0.1,0-0.6,0.1-0.6,0.1c-0.2,0-0.1,0-0.3,0s-0.1,0-0.3-0.1c0.2-0.8,1.2-0.5,1.6-1
			c-0.5-0.3-0.3-0.1-0.3-0.1s-0.2,0-0.3,0.1c-0.2,0-0.3,0.1-0.5,0.2C125.5,69.6,125.3,69.7,125,69.7L125,69.7z M100.8,64.5
			c0.3-1.3,1.3-2.2,0.6-3.5c0.5,0.1,0.9,0.5,1.2,1c0.9,1.1,0.9,0.8,0.8,1.3c-0.3,0.1-0.6,0.1-0.9,0c-0.6,0-0.7,0-0.9,0.2
			c2,0,1.3,0.6,0.6,1.3C101.8,64.8,101.1,64.7,100.8,64.5L100.8,64.5z M100.5,64.1c-0.3,0.7-0.5,1-1.3,1.1c0.1-0.9,0.4-1.4,0.6-2.2
			c0.4-1.3-0.3-1.6-0.3-2.2c0.9-0.2,1.1,0.2,1.4,0.8h-0.1l-0.5,0.2h-0.1c0.2,0.4,0.4,0.3,0.7,0.6C101,62.8,100.7,63.6,100.5,64.1z
			 M120.5,62.8c-0.1-0.7,0.8-3.2,0.9-3.5l2.6,0.5c-0.5,0.7-0.4,0.2-0.3,1.3c0,0.4-0.1,0.5-0.1,0.9c0,0.5,0.1,0.4,0.1,0.8
			c0,0.6-1.3,1.4-1.9,1.7c0.2-0.6,0.5-1.1,0.4-1.7c-0.1-0.5-0.5-0.9-0.9-1.1c-0.7,0-0.6,1.3-0.6,1.3l-0.1,0.5L120.5,62.8z M115,64
			c0.1-0.4,0.3-0.5,0.6-0.8c0.3-0.3,0.3-0.5,0.6-0.7c0.9-0.8,0.6-1.3,1.4-1.1c2.1,0.6,0.5-0.7,2.2-1.5c0.3-0.1,0.7-0.3,1-0.3
			c-0.1,0.7-0.5,2.9-1,3.2c-1,0-2.1-0.4-3.1-0.3c0.1,0.5,0.6,1,0.8,1.3c-0.2,0.4-0.5,0.7-0.8,0.9c-0.5-0.1-0.3-0.3-0.8-0.5
			C115.6,64,115.2,64.1,115,64z M87.8,60.3c0-0.1,0-1.3-0.5-1.5l0.1,1.6c-0.3-0.2-0.1,0.1-0.4-0.3c-0.1-0.1-0.1-0.3-0.1-0.4
			c-0.1-0.5,0-0.6,0.2-1l-0.5-0.2c0.1-0.2,0,0,0.2-0.3l0.2-0.2c0.3-0.2,0.2-0.2,0.6-0.3c0.2,0.6,0.5,2.3,0.3,2.8
			c-0.2,0.4-0.8,0.6-1.2,0.7c0-0.7-0.3-1.4-0.2-2.1c0.4,0.4,0.1,0.9,0.4,1.6C87.4,60.7,87.6,60.6,87.8,60.3z M123.8,58.9
			c2-0.2,1.7,0.2,2.4-1.7l0.3,0.5c0.5-0.3,0-0.2,0.6-0.3v2c-0.9-0.1-0.6-0.5-0.9-0.8c-0.5,0.7-0.4,1.2-1.9,0.9
			C123.9,59.3,123.9,59.3,123.8,58.9z M121.9,58.5c0.3,0.3,0.1,0,0.3,0.4c-0.4-0.1-0.8-0.2-1.2-0.3c-0.5-0.2-0.6-0.2-0.5-0.9
			C121,57.7,121.3,58.1,121.9,58.5z M108.4,60.5c-0.3-0.3-0.3-0.4-0.6-0.6c-0.4-0.4-1.8-1-2.4-1.4l-0.8-0.7c0.6,0.2,2.4,1.2,2.9,1.4
			c1.4,1,2.1,0.7,3.7,0.3c-0.2,0.7-0.2,0.2-0.5,0.7c-0.1,0.2,0,0.9-1.2,1.3L108.4,60.5L108.4,60.5z M122.5,57.6
			c0.1-0.5,0.4-0.7,0.4-1.1s-0.3-0.6-0.5-1.1c1.1,0.2,0.7,0.1,1,1.2l0.8-0.1l0.2-0.7l1.7,0.7c-0.1,0.7-0.5,1.5-1.2,1.6
			c-1.1,0.1-1-0.7-1.3-1.2c-0.5,0.1-0.2,0-0.4,0.3C122.8,57.6,122.8,57.6,122.5,57.6z M92.9,59.9c0-0.8,0.1-2,0.1-2.8
			c0.1-2.9-0.7-2.5,0.9-4.6c0.3-0.3,0.2-0.1,0.7-0.7c0.2-0.4,0.3-0.5,0.7-0.7c0.3,0.2,0.3,0.2,0.6,0.5l3.2,2.9
			c1.1,0.8-0.1,0.8-0.2,1.9c-0.1,1.2,0.9,1.8,1.3,2.6c0.3,0.4,0.7,0.9,0.8,1.3c-1.6,0-1.7-0.6-2.8,0.7
			C98.2,60.9,92.9,59.9,92.9,59.9z M106.9,53.5c0.2-0.3,0.5-0.5,0.8-0.6c2.2-0.9,2,1.7,3.9,2.3c1.5,0.5,0.8,0.6,1.8,0.2
			c0.8,0.5,0.7,0.5,0.6,1.4C111.7,56.6,108,54.6,106.9,53.5z M116.7,54.8c-0.5,0-0.8-0.1-1.2-0.2c-0.6-0.2-0.5-0.2-0.7-0.8
			c0-0.1-1-1.3,0.2-2c0.4,0.6-0.6,1,0.1,2.2c0.8-0.1,0.9-1,1.4,0.2C116.7,54.5,116.8,54.5,116.7,54.8z M104.7,49.5
			c-0.2,0.6-1,1-1.6,1.5c-0.7,0.6-1.2,0.3-1.8-0.3c-0.4-0.3-0.5-0.4-0.2-1c0.7-1.1,1.8-1.3,3.1-1.3c0,0.3-0.1,0.4-0.4,0.7
			c-0.4,0.5-1.1,1.2-1.2,1.6C103.1,50.6,103.9,49.7,104.7,49.5z M107.9,48.2c0.7-0.1,1.5,0.3,2.6-0.3c2.4-1.3,0.8-0.3,2.6-0.8
			c0.5-0.1,1.2-0.2,1.6-0.2c0.9,0,0.9,0,1.1,0.9c0.2,1.3,0.4,1.8,0.5,3.2c0.3-0.3-0.1-0.2,0.5-0.3c0.4,1-0.8,2.2-1.3,2.4l0.4-2.4
			c0-0.2,0.1-0.5-0.1-0.8c-0.4,0.2-0.3,0.7-0.6,1.2l-1.7,1.6c-0.3,0.4-0.7,0.7-1-0.1c0.3-0.2,0.6-0.4,0.9-0.5
			c0.4-0.2,0.5-0.2,0.6-0.5c-0.6,0.1-1,0.9-1.9,0.4c0.5-0.7,2.7-0.7,3.2-2.3c-0.3,0.2-0.5,0.5-0.8,0.7l-3,1.3
			c-0.4-0.7,0.1-0.4-0.5-0.7c-0.2-0.1-0.2,0-0.4-0.2c-0.3-0.2-0.1,0-0.3-0.3c0.2-0.4,0.8-0.6,1.3-0.7l-0.2,1l0.8-1.4
			c-1.1,0-3.1,1.6-3.9-0.2c-0.3-0.7-0.4-0.4-0.8-1.1L107.9,48.2L107.9,48.2z M106.7,48.3c0.2-0.5,1.3-1.3,1.6-1.5
			c0.2-0.2,0.3-0.3,0.5-0.5c0.4-0.2,2.4,0.5,2.9,0.6c-0.3,0.4-1.6,0.9-2.3,0.9C108,47.9,107.9,48,106.7,48.3z M105.7,47.9
			c-0.7,0-1.7,0.1-2.5,0.2c-1.3,0.1-1.1,0.7-1.7,0.8c0.1-0.6,0.3-0.7,0.8-1c1-0.5,2.4-1.1,3.3-1.5c-0.1-0.5-0.1,0-0.2-0.6
			c1-0.7,2.3-0.8,3.2,0.2c-0.2,0.4-0.2,0.3-0.5,0.6c-1.1,1.1-2.6,2.6-4.1,2.9C104.2,48.6,105.4,48.4,105.7,47.9L105.7,47.9z
			 M121,43.3c0.4,0,0.7,0.4,0.8,0.8c0,0.2,0,0.4,0,0.6l-0.1,0.3c-0.2,0.2,0,0-0.2,0.2c-0.1-0.1-0.1,0-0.2-0.2
			C120.7,44.1,120.7,43.8,121,43.3z M118.1,45.1c0.3-0.7-0.9-2,1.1-1.5v1.2c0.3-0.4,0-0.2,0.4-0.4l0.3,0.7c0.2-0.3-0.1-0.6-0.2-1.2
			c0.5,0.1,1.1,0.8,1.2,1.3c0.1,0.4-0.2,1.3-0.1,1.9l0.2-0.7c0.3,0.2,0.5,0.5,0.6,1.1c-0.4,1-1,0.6-1.2,1.6
			c-0.2,0.7-0.8,1.3-1.3,1.6c0.3-1.5,1.2-1.2,1.3-2.5c-0.4,0.2-0.3,0.1-0.5,0.5l-0.8,1.2c-0.3,0.4-0.1,0.3-0.4,0.4
			c-0.2-0.2-0.7-1-0.9-1.3c-0.2-0.4-0.4-1-0.6-1.4c-0.3-1.1,0.1-2.5,0.6-3.3c0.1,0.1,0.1,0,0.1,0.2c0.2,0.4-0.2-0.4,0.1,0.3
			C118.1,45.2,117.8,44.9,118.1,45.1z M105.1,43.2c0-1.3,0.5-1.7,1.6-1.9c-0.1,0.2-0.6,0.8-0.7,1C105.6,42.6,105.5,43,105.1,43.2z
			 M120.5,40c0.3,0.5,0.7,1.3,0.5,1.6c-0.6,0,0,0.3-0.7-0.8c-0.2-0.4-0.4-0.7-0.4-1.2C120.4,39.7,120.3,39.6,120.5,40z M111.5,40
			c-0.1-0.2-0.2-0.2-0.2-0.5c-0.1-0.6,0.2-0.7,0.7-0.7c0.2,0.5,0.2,1.1-0.1,1.4C111.8,40.4,111.5,40,111.5,40z M119.3,41
			c-0.7-0.7,0.1-3,0.5-3.4c0.4,0.2,0.6,0.7,0.5,1.3c-0.1,0.5-0.2,0.7-0.5,0.9c-0.3,0.2,0.1-0.2-0.3,0.2
			C119.4,40.2,119.6,40.6,119.3,41z M112.9,38.5c0.1-0.6,0.2-0.9,0.8-1c0.6,0.5,0.2,0.8,0.2,0.8L112.9,38.5z M115.3,37.8
			c0.1-0.6,0.1-0.7,0.5-1c0.5,0.2,0.7,0.7,0.7,1.3L115.3,37.8L115.3,37.8z M109.5,41.1c0.2-0.2,0.3-0.3,0.5-0.5
			c0.2-0.2,0.2-0.3,0.4-0.6c0.5,0.2,1,0.7,1.3,1.1c0.9,0.8,0.3,0.8,0.1,1.5c0.2,0.6,0.5,0.5,0.4,1.4c-0.1,0.6-0.2,1-0.2,1.6
			c-1,0-4.2-1.7-4.8-1.8c-1.1-0.1-1.4,1-2.7,0.6c-0.8-0.2-1.3-1-1.5-1.7c0.7,0.3,1,1.5,3.2,1c-0.1-0.3,0.3,0.3-0.1-0.1
			c-0.4-0.4-0.2,0-0.4-0.4c0.5-0.2,0.6-0.6,0.9-1l0.8-0.9c0.2-0.2,0.4-0.4,0.5-0.8l-2.4,0.6c0.3-1.1,1.1-0.8,1.7-1.2
			c-0.5-0.4-1.2,0-1.5,0.3c-0.3,0.2-0.3,0.3-0.4,0.6c-0.3,0.6-0.2,0.5-0.6,0.7c0.2-1.3,1.2-2,2.4-2.6c2.5-1.2,2.7-0.4,3.4-0.6
			l0.2-0.1c-0.3-0.5-1.6-1.3-2.4-0.9c0.2,0.5,0.2,0.1,0.7,0.3c-0.1,0.3,0,0.2-0.5,0.3l-1.8,0.6c0.1-0.7,1.4-2.1,2-2.3
			c0.6-0.1,3.2,0.2,3.9,0.2c-0.1-0.6-1.7-2.2-2-3c0.7-0.1,1.4-0.1,2,0.1c0.4,0.1,1.1,0.7,1.3,0.7c0.3,0,2-1.5,2.5-1.7
			c0.7,0.5,1.7,3,1.9,3.9c0.2-0.3,0.1-0.2,0.6-0.3l0.2,1.2c-2-0.5-1.4,1.1-2.3,1.3l-0.2-2.4c-0.4,0.1-0.5,0.3-0.9,0.2
			s-0.3-0.2-0.7-0.4l-0.3,2.5c0.5-0.1,0.7-0.5,1.1-0.1c0.4,0.3,0.4,0.6,0.8,0.8c0.5-0.2,0.6-0.7,0.9-1.1c0.4-0.6,0.5-0.6,1.2-0.4
			c0,0.7-0.5,1.7-0.4,2.7c0.2,1.4,0.7,1,1.4,1.4l-0.1,0.9l0.6,0.1c-0.2,0.5-0.3,0.5-0.8,0.4c-0.4-0.1-0.9-0.2-1.2-0.2
			c-0.9,0-0.6,0.7-2,0.7c0.4,0.8,0.9,0.4,0.5,1.8c-0.3-0.3-0.1-0.6-0.6-0.7c-1.2-0.1-0.8,1.3-0.8,1.3c0,0.2,0,0.1-0.1,0.3
			c-0.8,0-0.5-0.3-0.8-0.8c-0.9,0-0.5,0.6-1.2,0.8c-0.1-1.6,0.2-1.2-0.8-1.4c-0.3-0.1-0.1,0-0.3-0.1c0.3-0.4,0.7-0.4,1.2-0.3
			c0.3,0.1,0.3,0.5,0.6,0.8c0.7,0,0.7-0.4,0.8-0.9c0.4-0.1,0.3,0,0.5-0.2h-3c0.2-0.6,0.4-0.5,1.1-0.5c0.4,0,0.9,0,1.3-0.2
			c-0.5-0.3-1.5,0-2-0.3c-0.5-0.3-0.5-1.3-0.3-1.8c0.5,0.3,0.1,0.3,0.5,0.6c0.4-1.1-2-1.5-0.3-2.8c0.6-0.5,0.3-0.4,0.7-0.9
			c0.5,0.1,0.4,0.2,0.8,0.2c0.3-1,0.2-1.6-0.4-2c-0.3,0.1-0.5,0.3-0.8,0.6c-0.5,0.4-0.4,0.3-1,0.2c0.2,0.7,0.9,1,0.5,1.6
			c-0.6-0.1,0-0.3-0.7-0.8c-0.2-0.2-0.8-0.4-1.1-0.5c0.2,0.6,0.4,0.3,0.2,0.9c-0.1,0.2-0.3,0.8-0.4,0.9
			C110.3,40.1,109.6,39.8,109.5,41.1L109.5,41.1z M85.7,63.5c-0.4,1.3-0.9,0.4-1.3,0.8c-0.4,0.4,0.2,0.5,0.2,0.9L84,65.5l0.3,0.1
			c2.7-0.1,2-1.4,3.6,1.5c0.4,0.8,1.1,2.1,1.7,2.7c0.7,0.5,0.7,0.2,0.9,0.7c-1.2,0.4-3.3,0.6-4.5,0.9c-1.4,0.3-2.9,0.7-4.3,1.1
			c-2.9,0.8-5.3,1.6-7.7,3c-1.7,0.9-5.2,3-6.7,4.1c-2.3,1.6-1.5,1.5-2.9,2.6c-0.8,0.7-1,1.3-1.8,2.1c-0.3,0.3-0.2,0.5-0.7,0.8
			c0.2-0.9,0.6-0.9,0.9-1.3c1.1-1.3,1.3-1.1,2.3-2.9c0.2-0.3,0.3-0.8,0.4-1.2c0.2-1.1-0.1-2,0.1-3c0.9-0.4,1-0.5,1.3-1.6
			c0.3-1,1.1-4,0.8-4.9c-0.3-0.9-1.1-0.7-1.6-1.3c-0.1-0.7,0.4-3.1,0.4-3.9c0.1-1.5-0.4-2.6,0.3-4c0.5-1.1,0.3-0.7,0.4-1.8
			c0.2-1.6,2.9-5.6,2.2-8.7c-0.5-2.1-1.2-2-0.6-3.3c0.2-0.5,0.4-1.3,0.8-1.4c0.5-0.3,0.6,0,0.7-1.4c0.1-0.9,0.3-3.4,0.1-4
			c-0.1-0.8-0.2-0.9-0.4-1.3c0.2-0.2,0.2-0.2,0.3-0.4c0.2-0.3,0.1-0.2,0.3-0.5c0.3-0.5,0.6-0.3,0.8-0.9c-0.6,0.1-1.4,0.8-2,1
			c0-0.6,0.5-1.3,0.4-2.4c-0.1-1.1-0.4-1.5-1.2-1.8c0.2,1.2,0.5,1.3,0.3,2.6c-0.1,0.8-0.3,1.7-1,1.8c-0.3-0.2-0.3-0.4-0.3-1.1
			c0-0.5,0-0.9-0.1-1.3c-0.3-1.1-0.9-0.9-1.2-1.4c0.5,0,1.3,0.7,1.6,1c0.1,0.9-0.2,1.4-0.2,2.2c0.3-0.5,0.4-0.9,0.6-1.4
			c0.3-0.9,0-1-0.5-1.3c-0.8-0.5-1.9-1.2-3-1.3c0.2,0.8,1,0.7,1.8,1.8c0.9,1.2,0.2,0.9,0.1,1c-0.1-0.5-0.8-1.1-1.3-1.3
			c-0.8-0.5-1.3-0.4-2.2-0.5c-3.2-0.3-2.2,0.4-4.1,1c0.1-0.5,1-1.7,1.1-2.3c-1,0.4-1.3,2.2-1.6,2.7c-1.9-0.8-1.1-3.8-1.3-4.1
			c-0.4,0.2-0.7,0.8-0.9,1.2c-0.7-0.2-0.5-1-1.3-1.2c0.1,1.1,1.1,2.9,1.3,4c-1.3-0.1-1.6-0.3-2.1-1.3c-0.5-0.9-0.3-0.6-0.6-0.8
			l0.3,1.6l-0.4,0.7c1.6,0.8,0.9,0.6,1.5,1.3c0.2,0.2,0.4,0.2,0.5,0.5c-0.5,0.1-2.1,0.4-2.6,0.3c-0.8-1.1-1.8-2.4-3.5-3.1
			c-3.5-1.4-10.2-0.4-7.9,6.6c0.4,1.1-0.5,1.5-0.8,2.3c0,0-3,3.2,0,4.4c0.9,0.4,1,1.9,4.2,2.9c0.6,0.2,1.2,0.4,1.7,0.6
			c1.5,0.5,1.6,0.7-0.5,3.4c-1.3,1.7-1.1,5-2,6.5c-0.3,0.5-0.9,1-1.5,1.1c-0.5-1.2-0.1-0.5,0.1-1.4c-1.3-0.5-1.3-0.1-1.3-0.7
			c1.6-0.3,1.1,0.8,1.9,0.9c0.7,0.1,1.2-1,1.2-1.7c-1-0.9-1.1,0.6-1.9,1c0.1-0.7,0.6-1.1,0.5-1.6c-0.5-0.1-1.2,0.5-1.5,0.3
			c-0.4-0.2-0.7-0.8-1.3-0.9c-0.6,1.3,0.6,1.3,0.8,2.6c-0.7-0.2-0.4-0.4-1.1-0.5c0,0.6,0.2,1,0,1.3c-0.3,0.2-1.1,0.4-1.5,0.4
			c-0.7,0-0.9-0.5-1.3-0.5c0,1,0,0.9,1,0.9c1.3,0.1,1-0.3,1.6-0.4l-0.4,1.5c-0.8-0.1-3.9-1.5-3.9-1.5c-0.6-0.1-0.1-0.1-0.3,0.1
			c0.3,0.4,2.9,1.5,3.2,1.6c0.6,0.2,0.8,0,1.3,0.4c-0.2,0.5-0.2,0-0.3,0.5l1.8-0.3c-0.4,2.2-1.7,3.5,0.3,7.5
			c1.1,2.1,2.1,3.9,3.8,5.3c0.8,0.7,1.6,1.2,2.8,1.6c0.7,0.3,0.8,0.7,0.8,1.5c0,2.3-0.4,3.6-1.6,5.3c-0.5,0.7-0.7,0.3-0.8,1.5
			c-0.1,0.5-0.1,1.4-0.6,1.7c-0.6,0.4-2.8-0.3-3.2,0.9h3.3l-0.1,0.9c-0.4,0.1-1.4-0.1-1.6,0.3c0.5,0.2,1.3-0.2,1.8,0.2
			c-0.2,0.3-0.1,0.3-0.6,0.2c-0.2,0.4,0.6,0.2,1.8,0.5c0.3,0.1,0.7,0.2,1,0.3c0.4,0.1,0.8,0.1,1.1,0.2c0.7,0.1,0.4,0.7,1.7,0.8
			c1.1,0.1,1-0.6,1.7-0.9l0.1-0.3c-0.6,0-1.2-0.3-1.7-0.6c0-0.7,2.2-4.2,2.3-4.7c0.1-1.3-0.5-1.4,0.8-1.5c-0.4-0.3-0.7-0.3-1.3-0.4
			l-1-0.3c0,0-0.1,0-0.2-0.1c-0.2-0.1-0.1,0-0.2-0.1c0.1-0.5,2.1-4.3,2.4-4.8c0.4-0.6,1.6-0.8,2.5-1.1c0.9-0.3,1.7-0.7,2.6-1
			c-0.1,1.1-0.9,2.3-0.3,4.8c0.6,2.1,1.1,2.6,1.6,4c0.6-0.2,0.4-0.4,0.6-0.1c-0.2,0,0-0.1-0.3,0.2c-1,1.1-0.3,1.3-2.5,1.3h-3.3
			c-0.4,0-0.7-0.1-0.8,0.2c0.4,0.2,4.5,0.1,5.3,0c-0.2,0.6-0.3,0.6-0.6,1c-0.7,1-1,0.8-2.9-0.2c-0.6-0.3-1.5-0.7-2-0.2
			c-0.8,0.7,0.1,1.3-1.7,1.2c0.1,0.3,0.1,0.3,0.1,0.6s-0.1,0.2,0,0.7c0.8,0.7,2.3,0.5,3.5,0.5c-0.1-0.1-0.1-0.1-0.2-0.1
			c-0.5-0.2-0.4,0-0.8-0.2c0.3-1.3,2.2-1.5,3.4-1.3c-0.1,0.5-0.1,0.2-0.3,0.5c-0.2,0.2-0.2,0.2-0.3,0.3c-0.2,0.2-0.5,0.4-0.7,0.6
			c-0.6,0.5,0.2,0.1-1,1c-0.3,0.3-0.2,0.1-0.2,0.3c-0.5,0.3-0.5,0.3-0.9,0.7c-1,1.1-1.8,0.6-3,0.6c-0.1,0-0.4,0-0.4,0
			c-0.5,0.1-0.1,0-0.4,0.2l1.8,0.2c0,0.6,0,0.2-1.1,0.9c-0.1,0.3-1.7,1.3-2,1.5c-1.2,0.8-2,0.7-2,1.4c0.5,0.4,2.1,0.5,2.8,0.5
			c2.2,0.2,2.2,0.4,2.7-0.4c0.3,0.1,0.2,0,0.5,0.3c0,0,0,0.1,0.1,0.1c0,0,0,0,0.1,0.1c1.2-0.2,0.9-1.2,1.5-1.9
			c0.5-0.6,1.2-1,1.5-1.7c0.4-0.8,0.3-0.4,1.2-0.7c0.3-0.1,0.7-0.5,1-0.7c1.3-1,1.7-1.2,2-0.2c0,0-0.1,0-0.1-0.1l-0.4-0.2l0,0l0,0
			l0,0c-0.1,0.3-0.4,2-0.2,2.3c0.1,0.2,0.5,0.4,0.7,0.7c0.3,0.3,0.2,0.4,0.8,0.4c2.9,0.3,2.8-0.6,3.9-1.3c-0.1-0.3,0-0.2-0.3-0.5
			c0.1-0.6,0-1.2,0.6-1.3c0.6-0.1,1.2,0.2,1.6-0.1c-0.1-0.3-0.1-0.2-0.5-0.3c-1.6-0.2-1.3,0.3-1.4-1.1c-0.5,0.1,0.1,0.2-0.8,0.3
			l-2.5-0.3c0.2-0.2,2.3-0.6,2.7-0.5c0.3,0.1,0.3,0.2,0.6,0.3c0.2,0.1,0.3,0.1,0.5,0.2c0.4,0.2,0.7,0.4,1.1,0.5
			c0.9,0.5,1.1,0.7,1.3,1.8c0.2,1.3,0.1,5-0.8,5.4c-0.8,0.4-1.9-0.1-2.5,0.5c-0.7,0.7-0.4,1.7,0.1,2.4c0.9,1.3,0.9,0.6,2,1
			c0.1,0.2,0.1-0.2,0,0.3c-0.1,0.6-1.3,1.9-1.4,2.3c-1.2,1.5-1.1,0.9-1,3.2c0,0.7-0.2,1.9,0.4,2.3h1.2c0.2,0.8-0.4,1.2,0.3,1.8
			c0.4,0.4,1,0.7,1.3,1.1c1,0.8,0.7,0,1.6,0c1.3,0,2.1-0.7,3.3-1.3c0.5-0.3,2.2-1.7,2.5-2.2c0.5-0.7,0.8-0.7,1.2-1.2
			c0.9-1.1,1.4-1.3,2.8-1.8c1.2-0.5,2.3-0.8,3.5-1.2c2.7-0.8,2.6-0.7,4.7-2.1c0.9-0.6,1.1-0.4,1.1,0.8c0.1,0.4,0.1,0.2,0.6,0.3
			c0,0.3,0,0.5,0.1,0.7c0.3,0.7,0.6,0.5-0.4,1.6c-0.8,1-1.3,2.1-2.2,3l-1.5,1.9c-0.3,0.4-0.6,0.6-0.9,1c-1.3,1.4-2.3,2.4-3.4,3.6
			l-0.9,0.9c-0.4,0.4-0.5,0.4-0.9,0.9c-0.5,0.6-1.3,1.3-1.4,2c0.4,0.3,0.9,0.3,1.2,0l0.7-0.6c0.4-0.4,1.5-1.6,2.1-1.8
			c0.4,0.2,0.7,0.7,1.4,0.3c0.7-0.4,1-1.1,1.3,0c-0.2,0.3-0.6,0.4-0.8,0.5c0.1,1.1,0.8,0.8,1.5,0.6c0.8-0.2,1.3-0.3,2.1-0.5
			c2.3-0.6,1.4-0.6,2.5-1.3c0.4-0.3,0.4-0.4,0.4-1l0.7-0.2c0.5-2.7,0.1-2.3,2.1-3.3c0.8-0.4,0.6-1.4,1.3-1.3
			c0.9,0.1-0.4,1.1,0.7,1.7c-0.1,0.4-0.5,1.1-0.7,1.4c-0.3,0.5-0.6,0.9-0.8,1.3c1.1-0.4,1.8-1.4,2.8-2c0.8-0.5,1.2-0.1,1.9-0.5
			c0.6-0.3,1.1-0.9,1.5-1c0.8,1,0.2,0.7,1.8,1.2c0.8,0.3,1.5,0.3,2.1,0.8c-0.1,0.5-0.1,0.5-0.5,0.8c0,0,0,0,0.1,0.1
			c0,0.2,0.1,0.1,0.1,0.3c0,0.3,0.1,0-0.2,0.3c0.4,0.1,0.4,0,0.4,0.5c0.1,0.4,0.1,1.3,0,1.7c-0.1,0.5-0.1,0.2-0.3,0.6
			c0.5,0.3,0.5,0.3,0.5,0.9l-2.2,0.2c0.6,0.3,1.8-0.2,2.2,0.3c-0.3,0.3-1.1,0.2-1.5,0.3c0.5,0.2,1.3,0,1.7,0.2
			c0.4,0.2,0.5,0.7,1.3,0.9c0.9,0.3,2.7-0.2,3.4-0.5v-0.1l0.3-0.9l0.8-0.2c-0.8-0.5-0.6,0-0.5-1.3c0.1-0.6-0.1-1.3,0.2-1.7
			c0.8-0.4,2.1,0,3-0.3c-0.3-0.2-1.1-0.1-1.4-0.1l-1.5-0.1c0.6-0.4,1.7,0,2.4-0.3h-2.6c0.5-0.7,0.4-0.1,0.8-0.7L110,116h-0.1
			c-0.2-0.1-0.1,0-0.3-0.1c-0.1-0.4-0.1-0.4,0-0.8c1.1-0.4,1.5,0.5,2.1,0.6c0.5,0.1,0.8-0.2,1.1-0.5c1.4-1.1,2.3-0.3,3.1-4.7
			c0.2-0.9,0.2-1.8,0.4-2.7c0.2-0.9,0.4-1.7,0.5-2.7c0.1-1,0.3-5.5,0.5-5.9c0.3,0.1,0.2,0.2,0.4,0.7l0.9,2.5
			c0.2,0.5,0.5,1.2,0.6,1.6c0.1,0.7-0.1,1.7,0,2.1c0.1,0.3,1.3,2.2,0.5,3.6c-0.8,1.2,0.3,1.6-0.5,3.7c-0.4,1.1-0.9,2.2-1.3,3.3
			c-0.5,1.4-0.7,2.2,0,3.7c1,1.9,0.9,1.2,1.4,1.9c0.9,1.3,0,0.6,1.7,1.6c0.4,0.2,0.4,0.4,0.6,0.5c0.3,0.2,0.1,0.1,0.4,0.1
			c0.2,0,0.5,0,0.5,0.2c0.2,0.8,0.2,2.4-0.2,3.1c-0.1,0.1-0.1,0.2-0.2,0.3l-0.2-0.2c0,0.2,0,0.2,0,0.3c-0.7,0.3-1.9,0.1-2.5,0.3
			l1.9,0.1c0.1,0,0.2,0,0.3,0c0.1,0.1,0.2,0.1,0.2,0.3l-1.3,0.2c0,0,0,0,0.1,0H120c0.5,0.3,1.4,0,1.8,0.5c-0.5,0.6-2.2-0.1-2.4,0.4
			c0.4,0.3,1.8,0.1,2.4,0.1l-0.1,0.9c-0.8,0.1-1.7,0-1.9,0.5c0.3,0.2,0.5,0.1,0.9,0.1h0.8c0.2,0,0.2,0.1,0.3,0.1
			c-0.7,0.6-1.3-0.2-1.5,0.9l1.5-0.3v1c-0.4,0-1.1-0.1-1.3,0.1c0.4,0.4,1.1-0.1,1.4,0.3c-0.4,0.3-0.7,0-1.1,0.1l-0.3,0.1
			c0.2,0.3-0.1,0.1,0.4,0.2l1.5,0.3h0.1l-0.4,0.2c-0.6,0.1-1.1-0.1-1.3,0.3c0.6,0.4,2-0.2,2.4,0.2c-0.7,0.2-1.5,0.1-2,0.4
			c0.3,0.1,3.1,0.2,3.4,0c-0.2-0.2-0.5-0.2-0.7-0.4c0.5-0.1,5,0,5.3,0c0.7-0.1-0.6,0.2,0.2-0.1h0.1c0,0,0.1,0,0.1-0.1l-3.5-0.2
			c0.5-0.6,3.1-0.6,3.7-0.9c-0.5-0.3-1.9,0.1-2.5,0.1c0.2-0.5-0.1-0.3,1.1-0.5c0.5-0.1,0.8-0.1,1.2-0.2h-1.8c0.2-0.8,0.6-1.7,1.2-2
			c0.6-0.6-0.2-0.5,1.1-0.8l-0.4-0.2c-0.2-0.1-0.1,0-0.2-0.1c0.6-0.5,1.9-0.2,2.6-0.7l-2.3,0.1c0.2-0.4,0-0.4,1.2-0.5
			c0.5,0,0.9,0,1.3,0v-0.2c0,0,0-0.1,0-0.2c0.2-0.6,0.2-0.2,0.4-0.5h-2.5c0.2-1,0.4-0.8,1.3-0.8c0.5,0,1.4,0,1.6-0.2
			c-0.5-0.3-2,0-2.7-0.2v-1.3c0.6-0.4,1.4-0.2,2-0.4c-0.4-0.2-1.6,0.1-2.2,0c-0.2-0.3,0-0.2-0.1-0.3c-0.2-0.4-0.2-0.2-0.6-0.5
			c-0.6-0.4-0.2-0.7-0.1-0.8c0-0.1,0-0.1,0.1-0.1c-1.2,0-2,0.5-2.2-0.3c-0.2,0.1-0.1,0.1-0.3,0.2c-0.2-1.1,0.3-0.2,0-2.5
			c-0.1-1.1-0.2-2.2-0.3-3.3c-0.3-3.7-0.2-3.3-0.2-6.8c0-1.3-0.2-2.2-0.3-3.4c-0.1-2.2,0.4-2,0.3-3.3c-0.2-2.2-0.6-4.1-0.7-6.5
			c-0.1-2.2,0-4.8-0.3-6.9c-0.3-2.4-1.5-7.8-1.6-9.1c0-0.7,0.2-1.3,0.1-1.7c-0.1-0.6-0.4-0.6-0.3-1.5l0.2-5.2c0-0.5-0.6-0.8-0.1-1.4
			c0.7,0.1,0.4,0.7,0.2,1.3c0.8,0.1,0.7,0.5,0.8,1.3c0.1,0.6,0.1,1.2,0.2,1.8c0.1,0.8,0,1.2,0.3,1.9c0.3,0.9,0,1.1,0.1,1.9
			c0.4,0.3,0.4,0.2,0.6,0.7c0.5,1.1,0.5,2.1,0.2,3.2c-0.6,2-1.1,2.2,0.6,3.3c0.8,0.5,0.9,0.6,0.4,1.5c-0.3,0.5-0.7,1.1-0.6,1.7
			c0,0.3,0.6,3.3,1.2,3.7c0.7-0.3,0.6-0.9,0.7-1.6c0.9,0.7,0.3,1.8,0.1,2.7c-0.4,1.3-1.2,1.2-0.4,2.5c0.6,0.1,1.2-0.1,1.7-0.3
			c0.7-0.2,0.8-0.4,1.1-1c1.9-4.1,0.8-3.9,0.9-7c0.1-3.2-0.6-2.2,0.3-3.5c-0.1-0.4-0.2-0.4-0.3-1c0.6,0.2,0.3,0.1,0.7,0.6l0.5,0.7
			c0.3,0.5,0.6,1.1,1.3,0.9c0.1-0.6,1-1.2,1.3-2.3c0.1-0.5,0.2-2.8,0-3.2c-0.3-0.6-1.7-1-2-1.5c-0.3-0.6,0-1.3-1-2.5
			c-1.1-1.4-1.7-0.8-2-1.4c-0.8-1.4,1.3-3.9,1.4-5.5c0.1-0.8,0.2-2.7-0.1-3.3l-2.5-0.5c-0.8-3.2-0.1-5.2-2-5.2
			c0.1-1.1,0.4-2,0.5-3.2c0.1-1.8,0.2-1.4-0.7-2.5c-0.2-0.2-0.6-1-0.8-1c-0.7-0.3-0.9,0.3-1.3-0.3c-0.9-1.1,0.2-1.6,0.1-2.6
			c-2.4-1.5-2.8,0.6-4.3,0.8c0-0.5,0.1-0.9-0.1-1.3c-0.1-0.2-0.2-0.4-0.3-0.5c-0.2-0.2-0.1-0.1-0.3-0.4c-0.1-0.5,0.8-1.5,1.1-1.8
			c0.4-0.4,1.1-1,1.2-1.4c-0.3-0.7-0.8-1.1-0.4-2.2c0.3-1,0.8-0.9,0.2-2c-0.6-1.3-0.2-1.2-0.5-2.3c-0.2-1-0.5-0.8-0.6-2.2
			c0-0.9-0.6-1-0.7-2c-0.1-0.9,0-1.6-1-1.7c-1.1-0.2-1-0.4-1.3-1.3c-0.3-0.6-0.6-1.3-0.9-1.8c-1.1,0.2-2.4,2.1-3.6,1.5
			c-1-0.5-0.9-0.5-2-0.3c-0.6,0.1-1.8,0.1-2.2,0.3c0.1,0.1,0,0.1,0.2,0.2c0.1,0.1,0.1,0.1,0.2,0.1c0.4,0.2,0.6,0.1,1.1,0.6
			c0.3,0.3,0.8,1,0.9,1.5c-1.2,0-2.3-0.2-3.3,0.4c-0.7,0.4-1.4,1.2-1.8,1.9c-0.8,1.6-1,1.1-1.7,2c-0.6,0.8,0.1,2.3,0.2,3.3
			c-0.9-0.1-1.7-1.7-2.6-2.1c0,1.4,0.6,2.3,1.5,3.2c0.3,0.3,0.2,0.1,0.3,0.4c-0.8,1-1.6,0.4-2.1,2.1c-1.5,0.1-1.3,0.3-1.6,1.5
			c-0.1,0.4-0.3,0.8-0.5,1.1c-0.3,0.3-0.6,0.5-0.7,0.9c0.4,0.4,0.9,0.6,1.3,0.9l1.3,0.9c0,0,0,0,0.1,0.1c-0.2,0.4-1.1,1.2-1.4,1.3
			c-0.3-0.5-1.5-1.3-2-1.9l-2-1.8c-0.1-0.1-0.9-1.3-1.5-1.2c-1,0.4-2,2.2-2.6,3.4c-1.6,3-1.2,1.3-0.6,4.4c0.6,3.3-0.7,4.1,1.6,4.2
			c3.5,0.2,2.2,0.2,4.7,1.1c0,1-0.4,0.6-0.2,2.7c-0.4-0.2-1.5-1.6-3.2,0.4c-1.1,1.3-0.1,3.2-0.8,4c-0.5-0.2-0.2-0.2-0.6-0.6
			l-1.5-1.7c-0.2-0.3-0.3-0.3-0.5-0.6c-0.2-0.2-0.2-0.4-0.5-0.6c-0.3-0.3-0.3-0.2-0.6-0.6c-0.2-0.3-0.2-0.3-0.5-0.6
			c-2.7-3.3-0.3-2.5-1.7-6.8c-0.5,0-1.2,0.4-1.4,0.7c-0.9,0.9,0.6,4.1,0.4,5.4L85.7,63.5L85.7,63.5z M122.5,129.7
			c0.2,0.2,0.3,0.4,0.7,0.6c0.4,0.2,1.1,0.3,1.6,0.1l0.1-0.3h-0.1h-0.3c-0.3,0-0.1,0-0.3-0.1c0.1,0,0.1,0,0.2,0
			c0.8-0.1,1.4-0.5,2-0.6c0.1,0.9,0.4,1.9,0.3,2.8c-0.8,0.6-2.2,1-3.3,0.4l0.1-0.9c-0.3,0.2-0.2,0.6-0.8,0.5c-0.3,0-0.6-0.4-0.7-0.6
			c-0.2-0.6-0.1-1.7,0.2-2.2C122.3,129.6,122.4,129.7,122.5,129.7L122.5,129.7z M123.7,129.6L123.7,129.6
			C123.6,129.5,123.6,129.5,123.7,129.6c-0.4-0.4-0.8-0.3-1-0.7c-0.4-0.6,0-0.7,0.2-1.2c0.4-1-0.7-1.2-0.2-2.7
			c0.8-0.1,1,0.3,1.9-0.2c0.5-0.3,1-0.8,1.5-0.9l0.2,0.9c0,0.2-0.1,0.4-0.1,0.7c-0.1,1.2,1.3,2-0.3,2.4c-0.9,0.2-0.8,0.2-1.2-0.4
			l-0.1,0.2v0.1c-0.2,0.5-0.1,0.7-1.2,0.5l0.1,0.1l0.2,0.1c0,0,0,0,0.1,0.1c0,0,0,0,0.1,0.1l0.2,0.2c0.3,0.2,0,0.1,0.3,0.1h0.3h0.1
			l-0.1,0.3c0.5-0.2,1.2-0.4,1.5-0.5c0.6-0.2,0.6-0.6,0.8-1c0,0,0,0,0.1-0.1c0,0,0-0.1,0.1-0.1c0.5,0.3,0.2,0.6,0.9,1.1
			c0-1-0.1-0.6,0.3-1.5c0.1-0.4,0.4-1.1,0.6-1.3c1.3,0.2,0.6,2.2,0.1,3c-0.6,1-0.6,0.5-1.2,1.2c-0.4,0.4-0.3,1.2-0.7,1.5v-0.1
			l-0.7-2.3C125.8,129.2,124.9,129.8,123.7,129.6L123.7,129.6z M151.6,109c0.4,0.1,0.1-0.1,1,0.7c0.9,0.9,1.7,1.9,2.7,2
			c2,0.3,3.6-1.1,5,0.5c-0.1,0.2,0,0.2-0.4,0.3c-0.2,0.1-0.3,0.1-0.5,0.2c0,0.9,0.4,1.4-0.1,2.2s-1.3,0.4-1.5,0.9
			c-0.4,0.6-0.8,3.9-0.4,4.5c0.5-0.1,0.3-0.2,0.8-1.1c0.3-0.5,0.5-0.9,0.7-1.3c0.4,0.4,0.2,0,0.2,0.5l-0.2,1.5
			c-0.2,1.3-0.1,0.8,0.2,1.7c-0.3,0.5-0.7,0.6-0.7,1.2c0,0.9,0.7,0.7,0.9,1c0.4,0.8,0.2,2.7-0.6,3c-0.6,0.3-2-0.1-2.6-0.4l-0.1-0.1
			c-0.4-0.3-0.2-0.6-0.5-1.3c-0.4,0.1-0.5,0.2-0.9,0.7c-0.1,0.2-0.2,0.3-0.3,0.5c0,0.1-0.1,0.1-0.1,0.2c0,0,0,0,0,0.1
			c0,0,0,0-0.1,0.1l-0.1,0.1c-0.3-0.3-0.6-0.9-0.8-1.2c-2.1-3.7-3.1-4.1,0.5-5.4c-0.1,0.7-0.7,1.4-0.6,2c0.3,0,0.4-0.2,0.5-0.6
			c0.3,0.3,0-0.1,0.2,0.6c0.1,0.3-0.1,0.1,0.1,0.2c0.4-0.2,0.3-0.4,0.5-0.7c0.4,0.6,0.2,1,0.7,1.3s1.3,0.4,1.6,0
			c-0.2-0.3-0.4-0.3-0.8-0.4c0.1-0.4,0-0.1,0.2-0.3c0.6-0.5,0.9-0.4,0.9-1c-0.6-0.1-1,0.7-1.9,1.2l0.1-1.8c0.6,0.1,1,0.7,1.3,0.5
			c-0.1-0.7-1-0.5-1.3-1.8s0.1-2.1,1-2.5c-0.2,0.6-0.3,0.4-0.4,1c0.5-0.2,0.9-0.9,1.3-1.5c0.1-0.1,0.1-0.2,0.2-0.3
			c0-0.1,0.1-0.1,0-0.4c-1-0.2-1.9,0.9-2.4,1.1c-0.2-0.2-0.6-0.9-0.7-1.2l0.1-0.1c0.1-0.1,0,0,0.1-0.1c0.1-0.2,0.1-0.1,0.2-0.4h-0.7
			c-0.2-0.1-0.1,0-0.2-0.1l-1.3-2.1C151.5,111.4,151.4,111,151.6,109L151.6,109z M168.4,107.4c0.3-1,4.9-6,6.1-9.9l0.3-0.8l0.2,0.5
			c0.4,1.5,1.3,4.9,2.2,5.9c0.3,0.3,1,0.7,1.3,1c0.8,0.6,3.3,2.2,3.1,3.2c-0.1,0.8-1.8,1.5-2.8,1.4s-2.2-0.7-3.3-0.9
			c-1.7-0.4-2-0.2-3.6,0.3C171.1,108.3,169,107.8,168.4,107.4z M185.5,107c-0.3,0.8-1.4,1.3-2.1,0.6c-0.9-1-1-0.7-0.9-2.6
			c0.8,0.4,0.6,1.5,0.8,2.1c0.4-0.2,0.4-0.4,0.7-0.7C183.9,106.4,185.5,107,185.5,107z M185.7,108.8c0-2,2-2.3,3.3-2.6
			c2.7-0.6,2.5-1.3,4-1.6c-0.2,1-0.9,2.5-1.2,3.6c-0.5,1.7,0.8,1.1-1.7,2.9c-1.3,0.9-1.6,0.8-3.2,1.3c-0.7,0.3-2.6,1.4-3.1,1.3
			c0.2-0.4,0.4-0.3,1-0.7c0.4-0.2,0.7-0.4,0.9-0.7c-0.4,0.1-0.8,0.2-1.1,0.4c-1.5,0.9-0.7,0.4-1,0.1c1.3-0.8,0.5-0.4,1.3-1.8
			c0.4-0.7,1.3-0.8,1.3-1.8C186.2,109.1,185.9,108.9,185.7,108.8L185.7,108.8z M151.9,108c0.1-0.9,0.5-1.3,0.5-2.4
			c0-0.9-0.2-1.6,0.2-2.5c0.5-1.2,1.3-2.8,2.7-2.6c-0.2,0.3-0.2,0.3-0.6,0.6c-1.7,1.2-1.6,1.4-1.7,2.8c0,1.1-0.9,2.3,0.8,2
			c0,0.3,0,0.1-0.1,0.4C153.2,107,152.7,107.8,151.9,108z M159.7,101.9c0.5-1.8,0.6-2.5,2.4-2c-0.1,0.3-0.7,1.3-0.9,1.4
			C161.1,101.5,160.3,101.9,159.7,101.9z M165.2,107.6c0.3,1.5,0.3,1.2-1.2,1.8c-0.6,0.2-3,1.5-3.4,1.5c-0.6,0-0.8-0.4-1-0.7
			c-0.3-0.4-1-0.9-1.3-1.8c-0.3-0.8-0.6-1.8-0.8-2.7c-0.5-1.9-1.1-2.2,0.2-3.7l1.4-1.9c0.8-0.9,0.7-0.7,1-0.7
			c-0.1,0.5,0,0.3-0.4,0.6l-2.2,2.8c-0.4,0.9,0.6,3.8,1,4.6c0.4,1,1.7,3,3.1,2.2C162.1,109.3,164.7,107.7,165.2,107.6z M156.4,100
			c0.5-0.6,1.7-0.6,2.6-0.9c-0.2,0.6-0.1,0.3-0.5,0.7c-0.3,0.5-0.9,1.3-1.3,1.5c-0.1-0.3-0.2-0.5-0.4-0.7c-0.1-0.2-0.2-0.2-0.3-0.4
			C156.4,100,156.6,100.3,156.4,100z M162.2,99.8c0-0.6-0.1-0.6,0.4-0.8c0.3-0.1,0.6-0.1,0.8-0.2C163.4,99.6,163,99.7,162.2,99.8
			L162.2,99.8z M184.9,101c-0.2-0.3-0.2-0.3-0.5-0.6c-0.5-0.4-1.1-0.9-1.1-1.9c0.4-0.2,1.7,0,2.1,0.1c0.7,0.3,0.9,0.7,1.1,1.5
			c-0.3-0.2-0.3-0.2-0.6-0.3C185.8,100.3,185.4,100.9,184.9,101z M187.1,98.3c0.2-0.2-0.4-0.4,0.5-0.1c0.9,0.3,2,1,2.3,1.9
			C188.5,99.9,187.8,98.7,187.1,98.3z M165.9,108.8c-0.1-0.5-0.3-1.5-0.3-1.8c0-0.8,0.7-1.2,1.3-1.7l0.8-0.7
			c0.5-0.3,0.6-0.2,0.7-0.8c0.3-1,0.9-1.7,1.4-2.6l1.5-2.4c1.5-2.3,1.5-7,1.9-10.2c0.1-0.8,0.5-0.7,1.2-0.8c0.6,0,1.2-0.2,1.8-0.2
			c0.2,0.4,1.3,9.4,1.4,10.7c0.4,3.5,1,1.9,1.6,2.9c0.2,0.2,0.4,0.7,0.6,0.9c1.3,1.7,2.3,1.1,1.9,3.6c-0.6-0.1-2-1.5-2.5-1.9
			c-1.2-1.3-1.8-1-2.3-2c-1.3-2.7-1.4-5.1-2-6.8c-0.5,0.1-0.8,1.3-1,1.9c-0.2,0.8-0.5,1.4-0.8,2.1c-0.8,1.9-2.1,3.8-3.4,5.3
			l-2.4,3.2C167,108.1,166.5,108.8,165.9,108.8L165.9,108.8z M164.1,94.4c-0.2-0.1-0.1-0.1-0.3-0.3l-0.1-0.3c-0.8-2-0.9-1.3-0.3-2.7
			c0.3-0.5,0.3-0.8,0.6-1C164.1,90.3,164.1,94.4,164.1,94.4z M159,88.4c0.3-0.5,0-0.1,0.4-0.4l0.9-0.7c0.5-0.4,0.9-0.8,1.3-0.9
			c0.3,0.3,0.9,2-0.3,2.3c-1.1,0.3-0.7,0.4-0.7,1.5l-1-0.5C159.4,88.3,159.7,89.3,159,88.4L159,88.4z M161.6,83.7
			c0-0.7-0.1-0.6,0.1-0.8l0.2,2c-0.6-0.1-0.3-0.5-1.3-0.2c-0.4,0.1-0.9,0.3-1.3,0.2C159.2,83.6,161.2,83.7,161.6,83.7z M158.8,80.8
			c0.2-0.5-0.1-0.2,0.4-0.6c0.6-0.5,2.4-1.7,2.9-1.7c0.1,0.7-0.5,2.2-0.6,3C160.3,81.4,160.4,80.5,158.8,80.8z M167.2,95.5
			c-0.6-0.6-0.7-0.3-1.3-1.2c-0.6-1-0.9-2.6-1.1-3.9l0.3-0.1c0.1,0,0.3,0,0.3-0.1c0.1-0.6,0.3-0.8,0.4-1.2c-0.1-0.4-1.4-1.6-1.6-2.7
			c0.8,0.1,1.7,1.2,2.5,1.5c0.3-0.7-0.4-0.4,1.9-1.7c0.3-0.2,0.8-0.5,1.1-0.7c0.9-0.5,0.9-0.3,1-0.8l-1.1-0.3
			c0.3-1.1,0.7-0.7,0.8-1.3c-0.2,0-0.7,0-0.8-0.2c0,0-0.1,0-0.1-0.1c0.5-0.2,0.6-0.1,0.7-0.7c-0.9,0.1-1,0.7-1.2,0.8
			c-1.3-0.1-2.8,0-3.9-0.5c-1-0.5-1.5-2-1.6-2.7c0.8,0,1.8,0.1,2.6,0c0.6-0.1,0.6-0.4,1-0.5c0.6-0.1,0.3,0.2,0.8,0.5l0.3-0.8
			c0.1-0.4,0.1-0.4,0.1-0.9l-1.3,0.6c0.1-0.7,0.1-0.3,0.5-0.8l0.1-0.2c0.1-0.1,0.1-0.1,0.2-0.2c0.7-0.7,0.9-1,1.9-1.2
			c2.4-0.4,2.4,0.3,2.4,2.5c0,1.5,0.2,3.3,0.3,4.8c0.3,3.4,0.3,1.7,2.7,2.1l0.1,1.4c-0.6,0.1-1.1,0.1-1.6,0.1
			c-1.6,0.2-0.7,1.1-1.3,2.3c-0.3,0.7-0.3,0.6-0.2,1.4c0.1,1.2-0.4,5.3-0.9,6.4c-0.4,0.9-2,3.5-2.7,4.4l-1.1,1.6
			c-0.4,0.6-1.6,1.9-2.2,2.1c-0.2-2.1,0.1-1.6,1.5-3c1.2-1.2,0.7-1.4,1.3-2.6l0.1-0.1c0.3-0.4,0.1,0.1,0.3-0.4
			c-0.4-0.6-1.4-1.7-2-2.8h1.4C168.1,96.5,167.4,95.8,167.2,95.5L167.2,95.5z M185.8,81.5c-0.5-0.2-0.4-0.8-0.3-1.3
			c0.2-2.2-0.7-1.7-1-2.5c0.8-0.4,1.7,0.6,2,1c0.8,0.9,0.9,1,0.2,2.2C186.6,81.2,186.4,81.8,185.8,81.5z M181.7,79.6
			c0.1,0.5-0.3,0.3,0.4,0.3c0.7,0,2.2-1.1,2.6-1l0.1,0.1c0.2,1,0.3,3-0.6,3.3c-0.4,0.1-1.4,0.1-1.9,0.1c-1.1,0-1.5-0.2-1.6,0.3
			c0.2,0.2,0.3,0.4,0.3,0.7c-1.3-0.1-1.5-0.5-2.4,0.2c-0.4,0.3-0.9,0.5-1.1,0.9c0.9,0.3,1.7,0.8,2.4,0c0.3-0.3,0.5-0.7,1.1-0.5
			c0.3,0.1,0.9,0.5,1,0.7c-0.3,0.3-0.1,0.1-0.4,0.3c-0.7,0.3-0.9,0.3-1,0.8c0.4-0.2,0.5-0.3,1.1-0.4c-0.4,0.6-0.9,0.6-1,1.1
			c0.4,0.1,1-0.5,1.1-0.7c0.3,0.2,0,0,0.2,0.3V86l0.1,0.2c0.8-0.7,0.7-0.8,1.3-1c-0.5,1.1-1.3,2-1.3,2.6c0.9-0.3,1.3-1.9,2.1-2.2
			c0,0.8,0.2,2.2-0.2,2.8c-0.5,0.7-1.3,0.9-1.6,1.4c0.4,0.2,0.4,0.1,0.8,0c-0.3,0.6-1,0.4-0.7,1.4c0.4,0.1,0.5-0.1,0.9-0.2
			c-0.1,0.5-0.8,1.9-1.1,2.4l-3,6.6c1.5,0.1,2.1-1.2,2.5-1.5c0.6-0.7,0.6-1.2,1.2-1.2c-0.1,0.7-1.2,2.6-1.5,6
			c-0.6-0.1-1.1-0.7-1.3-1c-0.6-0.6-0.5-1.1-0.4-1.9c-0.6,0-0.4,0.3-1.1,0.3c-0.6-0.5-0.6-1.3-0.7-2.1c-0.1-0.7-0.3-1.5-0.3-2.3
			c-0.2-1.6-0.5-3.2-0.7-4.8c-0.3-3.4-0.2-1.6-0.2-5c0-0.9-0.3-1.8-0.2-2.5c0.2-0.9,0.6-1.2,0.5-2.1c0.3-0.2,0.5-0.1,0.6-0.5
			c0-0.2,0-0.1,0-0.3c-0.3,0.1-0.3,0.1-0.5,0.3c0-0.4,0.3-0.9,0.4-1.3c0.4-1.3,0.2-0.9,0.6-1.2c0.6-0.3,0.5-0.3,0.8-0.9
			c0.4-1-0.2-1.1-0.3-1.3c-0.8-1.1,3.3-1.2,3.7,1.3c0.9-0.1,1.1,0,1.3,0.8L181.7,79.6L181.7,79.6z M158.9,79.7
			c0.1-1.3,0.5-2.1,1.1-2.8c0.3-0.4,1.4-1.3,2.3-1.3c0,1.3-0.4,2.1-1.1,2.8C160.9,78.5,159.2,79.6,158.9,79.7L158.9,79.7z
			 M185.2,75.2c1.4,0.3,2.1,2.9,2,3.7c-0.7-0.7-0.6-1-1.1-1.8C185.9,76.3,185.2,76.7,185.2,75.2z M166,76.4c0.2-1.3-0.3-1.7,1-2.2
			c2.8-1.3,6.1-0.3,8.2-0.4c2.9-0.1,3.6-1.4,7.5,0.5c1,0.5,1.1,0.6,1.1,1.9c-2.6-0.2-2-1.2-6.8-0.1c-1.4,0.3,0.1,1.8-1.3,3
			c-0.5,0.4-1.5,1.7-1.5,2.4c0.8-0.1,1.2-0.9,1.9-0.9c0.4,0.7,0.6,3.6,0.3,4.3c-0.5,0.2-2.5,0.5-2.9,0.4c-0.6-1.4-0.3-8.2-0.7-8.9
			c-0.5-0.9-2.8-0.7-3.8-0.4l-2.8,0.6c-0.1,0-0.4,0.1-0.5,0.1l-0.4-0.1C165.3,76.8,166,76.4,166,76.4z M169.1,67.7
			c-0.7-1.1-0.4-2.1,0.3-2.7c0.3,0.2,0.8,1,0.9,1.3l-0.9,1.1C169.2,67.7,169.5,67.5,169.1,67.7z M177.1,64.1
			c0.7,0.3,0.8,1.7,0.7,2.6c-0.6-0.2-0.7-0.8-1.3-0.8c0,0.5,0.9,1.2,1.5,1.9c0.4,0.5,1.3,1.3,1.4,1.9c-1.1,0.8-1.9,0.6-3.4,0.4
			l0.1-0.1c0.5-0.5,0.1-1.2-0.3-1.7c-0.2-0.3-0.9-1.4-1.2-1.4c-1.3,0.6,0,3.4,0.6,3.9c1.3,0.2,1.7-0.3,3,0.3c0.7,0.3,2.3,0,3.1,0
			c-0.3,0.7,0.1,0-0.2,0.3c-0.3,0.4-0.9,0.2-0.8,1.1c0.7,0,0.9-0.5,1.5-0.7c-0.5,0.8-0.8,0.4-1,1c1,0.6,1.9,0.1,2.9,0.4
			c0.6,0.2,1.5,1.1,1.8,1.4c-0.4,0.1-0.6-0.1-1-0.2c0,0.6,0.1,1.6-0.2,2c-0.8-0.4,0.2-1.6-1-2.1c-0.7-0.3-1.3-0.7-2-1
			c-2-0.9-2.9-0.4-5-0.1c-0.9,0.1-1.8,0.3-2.8,0.2s-1.5-0.4-2.6-0.4c-1.2,0-4.6,1-5.1,0.8c-0.1-1.3,0.6-1.3,1.5-1.6
			c0.7-0.2,1.3-0.8,2.1-1.1c1.3-0.6,1.6,0,2.7,0.1c0.6,0,0.8-0.1,1.2-0.4c0.7-0.5,0.7-0.4,0.8-0.8l-0.2-0.1h-0.1
			c-0.1,0-0.2,0-0.3,0.1c-0.6,0.2-1.1,0.5-1.7,0.4c-1-0.2-2.2,0.3-1.5-1.3c0.8-0.1,0.5,0.5,1.4,0.2c0.2-0.8-0.5-1.3-0.3-2.3
			c0.3-1.3-0.3-1.3,1.1-2c2.5-1.2,3,0.8,4.5,0.8L177.1,64.1L177.1,64.1z M168.5,65.1c-0.4-0.8,0-1.3,0.3-1.7
			c0.4-0.5,0.3-1.3,0.3-1.9c0.1-2.2,0.3-1.8,1.4-2.9c0.8-0.7,0.9-1.4,2.4-1.8c1.1-0.3,2.5,0.2,3.2,0.8c-0.5,0.5-0.9,0.4-1,1.6
			c0.4,0,0.9-0.1,1.3-0.2c0.3-0.1,0.3-0.1,0.5-0.2c0.4-0.4,0-0.2,0.4-0.5c1,2.3,0.5,2.2,0.2,3.6c0.5-0.1,0.5-0.2,0.8-0.1l0.1,2.4
			c-0.5-0.2-0.6-0.7-1-1.1c-1.1-1.2-3.1-1-4.5-0.9C169.3,62.5,169.4,64.8,168.5,65.1z M152.6,125.5c0.1,0,0.1,0,0.2,0.2
			c0.1,0.2,0,0.1,0.2,0.3c0.1,0.2,0.2,0.3,0.3,0.6c0.3,0.5,0.3,0.7,0.7,1.1c1.3,1.3,3.9,0.8,5-0.1c1-0.8,1-0.7,0.9-2.4
			c0-1.1,0-2.3-0.2-3.4c-0.2-1.3-0.5-1.7-0.3-3.1c0.2-1.9,1.1-3.8,1.8-5.1c0.3-0.5,0.3-0.9,0.9-1c0.3,0,1.1,0.2,1.3,0.3
			c1,0.2,1.9,0.2,3,0.4c1.1,0.1,1.8,0.5,2.9,0.5s1.9-0.2,2.9-0.5c3.2-1,2.9,0.3,5.5,0.4c2.4,0.1,3.7-1.6,4.8-1.9
			c0,0.4-0.3,1.3-0.4,1.8c-0.3,1.4-0.1,4.2-1.4,5.2l-4,4.5c-0.4,0.5-0.7,0.8-1,1.2l-3,3.6c-0.7,0.9-0.9,0.9-1.1,1.2
			c-0.2,0.3-0.1,0.4-0.4,0.8c-0.2,0.3-0.3,0.3-0.5,0.6c-0.4,0.5-1.4,1.8-1.5,2.7c-0.1,0.1-3.6,5.5-1.8,7.7c0.7,0.9,1.7,1.9,2.7,2.5
			c1.3,0.8,2.5,1,4.1,1c4.3-0.1,7.4-2.9,12.9-2.2c1.3,0.1,1.5,0.8,2.6,1.9c0.1,0.1,0.1,0.1,0.1,0.2c0.1,0.2,0,0,0.1,0.2
			c0.2,0.2,0,0,0.1,0.2v0.1v0.1c0.9,0.1,1-0.1,1.1,2.5c-0.9,0.1-1.9-0.4-2.6-0.1c-0.4,0.2-0.8,0.9-1.4,1.3c-0.1,0.2,0,0.1,0,0.3h4.2
			c0.1-0.2,0.1-0.1,0.1-0.3l0.1-1.3c0.1-0.6,0.1-1.2,0.2-1.7c1.3,0.3-0.3,0.6,2.5,2.1c1.5,0.9,2.2,0.1,3.8-0.1
			c-0.3,0.7-0.9,0.8-0.9,1.4h0.5c1.5-2.4,1.3-1.5,2.6-1.8c1.3-0.4,1.2-0.6,3.4-0.9c1.6-0.2,2.4,0,3.9,0.1c2.2,0.2,2-0.7,3-1.3
			c0.3,0.2,0.8,0.3,1,0.6l-0.4,0.1c-0.5,0.1-0.6-0.2-0.6,0.4c0.6,0.2,0.6-0.3,0.8,0.4c0.2,0.7,0,1.7,0.9,2.3h1
			c0-0.8-1.3-0.1-1.3-2.2c0.9,0,1.2,0.8,2.5,0.3c0.9-0.3,1.4-0.7,2.2-1.1c-0.1,1.8-0.8,2.1-2.1,2.7c0,0.4,0,0.1,0,0.3h0.7
			c0.5-0.4,1.3-0.6,1.7-2.2c0.7-2.6,0.7-1.1,2-1.8h-1.3c-0.2-0.6-0.5-1.7-0.2-2.3c0.2-0.4,1.9-2.4,2.3-2.9l0.1-0.1
			c0.3-0.3,0.2-0.1,0.6-0.6c0.2-0.3,0.3-0.5,0.5-0.8c1-1.6,1.8-6.5,1.9-8.6c0.1-2-0.2-2.9-0.5-4.7c-0.3-1.5-0.1-3.5-0.1-5.1
			c0.1-1.7-0.5-9.2,0-10c1.7,0.3,6,2.7,7.4,1.7c0.2-0.8-0.3-1.1-0.2-1.7c0.1-0.7,0.4-0.8,0.3-1.6c-0.2-1.7-1.1-1.4-1.5-2.4
			c0.2-0.8,0.7-1.1,1.1-1.7c0.4-0.8,0.3-1.2,0.8-1.8c1.1-1.5,0.9-1.3,0.4-4.1c-0.9-5,1.3-5.1,0.6-6.7c-0.4-1-0.3-1.4-0.3-2.5
			c0-1.5,0.2-3.6-0.3-5c-0.2-0.7-0.5-1.3-0.9-1.7l-0.5-0.5c-0.4-0.4-0.6-0.5-0.8-0.9c0.2-0.5,0.1-0.3,0.4-0.6c0-0.3-0.1-0.4-0.2-0.8
			c0.7,0.2,0.7,1.1,2.4-0.6c1-0.9,2.4-3.8,2.5-5c0.1-0.8-0.1-1,0.2-1.7c0.3-0.9,0.1-1.1,0.4-1.6V69c-0.4-0.5-0.2-0.5-0.2-1.1
			c0-0.6-0.2-0.6-0.4-1.1l-1.9-2.9c-0.4-0.7,0-1.4-0.1-2.2s-0.5-1-0.7-1.8c-0.2-1.1-1.4-2.2-2.2-2.8c-1.9-1.4-4.9-2.5-7.5-1.9
			c-3.2,0.7-2.8,2.7-4.4,3c-1.7,0.3-3.9,1-4.5,2.9c-1.3-0.3-0.2-0.8-1.6,0.7c-0.2,0.2-0.3,0.3-0.5,0.5c-1.7,2.1-1.1,2.7-2.2,3.9
			c-0.6,0.5-0.5,0.7-0.4,1.6c0.1,1.3,0.2,2.5,0.7,3.4l1-0.2c0.1,0.6,0.2,1,0,1.4c-0.3,0.7-0.2,0.8,0.1,1.3l2.1,3
			c0.2,0.4,0.4,0.6,0.7,1c0.9,1.2,0.7,1.5-0.3,2.2c-2.5,0.3-6.3-0.4-8.8,0.1c-1.1,0.3-2.2,1.1-2.9,1.5c-0.5,0.3-0.9,0.6-1.3,1
			c-0.6,0.4-0.9,0.5-1,1.3c0.6-0.1,1.5-0.7,2-1.1c2.7-1.9,3.5-2,6.5-1.6c-0.2,0.4-1.1,0.8-1.4,1.1c-0.5,0.3-1,0.6-1.4,0.9
			s-1,0.7-1.4,1.1l-2.4,1.8c-0.4,0.4-1.3,1.1-1.5,1.5c-2.5,3.8-2,3.1-0.8,4.6c0.4,0.5,0.7,0.9,1.1,1.3c1.2,1.4,1.6,1.3,1,3.4
			c-0.7,1.9-1.5,2.2-1.9,3c-0.4,1.1,0.2,1-0.9,1.5c-0.6,0.3-0.7,1.1-0.8,1.6c-0.3,0.1-0.3,0.4-0.8,0.6c-0.3,0.2-2.4,1-2.9,0.9
			c0.2-0.9,0.6-2.2,0.5-3.1c-0.1-1.4-0.8-1.8-1.3-2.3c-0.7-0.6-0.5,0-1.3-0.5c-0.5-0.2-0.6-0.4-1.2-0.6c-1.2-0.4-2.1-0.2-2.9-0.4
			c0.1-1.4,2.2-3.4,2.3-6.8c0-1.3,0.6-2.4,0.6-4c0-1.6-0.5-2.7-0.4-4.1c0.8-2.2,0.4-3.3-0.4-5.2c-0.3-0.8-0.6-1.8-0.9-2.5
			c-0.6-1.3-2.1-1.8-3.5-3c-0.2-0.1-0.2-0.2-0.4-0.4l-3.1-2.6c-2.3-1.8,0.2-3.2-0.9-8.3c-1-4.6-5.6-4.9-8-3.4
			c-1.3,0.9-1.7,2.2-2.3,4.3c-0.5,1.7-0.5,4.2,0,6c0.6,1.7,0.3,1.3-1,2.7l-3.1,2.6c-1.5,1.1-1.1,0.5-2.9,1.9
			c-0.8,0.7-1.7,1.6-2.2,2.6c-0.8,1.3-1.1,4-0.9,5.8c0.2,1.3,0.8,1.2,0.4,2.6c-0.2,0.9-0.4,1.8-0.6,2.7c-0.3,1.3-1.2,4.6-0.7,5.8
			l2.1,4.5c-2-0.1-2.3,0.2-3.7,1.2c-0.7,0.5-2,0-2.9,1.8c-0.7,1.5-1.2,1.5-1.2,3.7c0,2.8-1.9,5,0.1,8.1c0.9,1.3,2.3,2.7,2.6,4.6
			c0.2,1,0.2,1.3-0.7,1.7c-3.8,1.6-3.4,1.3-2.5,3.7c0.9,2.6,0.2,0.6,1,1.7c-1,0-1.6-0.2-1.7,0.2
			C151.1,125.3,152.3,124.8,152.6,125.5L152.6,125.5z M170.9,133.2c0.9-0.6,0.6-0.7,0.8-1.3l1.3-2.3c1-1.1,0.9-1.1,1-1.8
			c0-0.7,1.1-1.9,1.4-2.2c0.9-0.8,0.4-0.6,1-1.2c0.6-0.5,0.9-1,1.3-1.5s0.4-0.2,1.3-1.4l6.2-5.5c0,0,0,0,0.1-0.1l4.5-3.7
			c0.5-0.4,0.3-0.2,0.5-0.7v-0.1c0.2-0.3,0.6-0.6,0.9-0.8l1.5-1.3c0.4-0.2,0.5-0.3,0.8-0.6c3-2.1,5.1-3.2,8.4-4.9
			c1.3-0.7,1.9-1,3-1.8l-0.5,0.2c0.1-0.5,1.6-1.4,2-1.7c0.5-0.3,1.9-1.3,1.9-1.7c-0.8,0.1-1.9,1.6-2.5,1.5c-0.2-0.7,0-1,0.3-1.5
			c1-2.1,0.9-0.9,1.9-1.8c0.2-0.2,0.3-0.2,0.5-0.4c0.2-0.2,0.3-0.2,0.5-0.4c1.3-1.2,3.6-2.3,5.4-1.5c-0.1,0.6-0.6,0.6-0.2,1.1
			c0.7,0.4,0.6-0.9,1.8-0.7c-0.2,0.7-0.9,1-0.5,2h0.6c0.3,0,0.3,0,0.5-0.1c0.2-0.1,1.2-1.2,2.7-0.9c0.8,0.1,3.7,0.7,4.1,1
			c-0.3,0.6-0.6,0.1-1.1,0.2c-0.4,0-1,0.2-1.3,0.4h0.1l1.3-0.1c0,0,0,0.1-0.1,0.1l-0.1,0.2c-0.1,0.1-0.1,0.1-0.2,0.2
			c-0.3,0.2-0.1-0.1-0.3,0.3c0.7,0.5,1.3,0.7,2.1,0.4c-0.2,0.8-0.4,1.6-0.7,2.4c-0.3,0.8-0.6,1.3-1,1.8c-0.4,0.7-1.6,3.1-1.7,3.9
			c0.7-0.4,0.5-1.3,1.2-1.5c-0.3,2.7-4.9,11.6-5.1,12.8l0.6-0.8c-0.5,1.9-4.7,9.5-5.7,10.6c0.2-1,1.1-1.8,1.4-2.8
			c-0.3,0.2-2,3.3-2.4,3.9l-3.7,5.5c-0.4,0.6-0.9,1.2-1.3,1.7l-2,2.5c-0.3,0.4-0.5,0.4-0.6,0.9c0.7-0.5,1.3-1.6,1.8-1.8l1.2-1.5
			c0.2-0.2,0.2-0.2,0.4-0.4l3.2-4.2c1-1.2,3.8-5.7,4.3-6.5c0.7-1.2,1.3-2.3,1.9-3.5c1-1.8,2.8-5.6,3.6-7.4c0.3-0.7,1.3-3.5,1.6-3.9
			l-0.5,2.2c0.6-0.2,0.3-0.2,0.8-0.3c0.2,2.6-0.5,5.6-1.1,8.2c-0.3,1.3-1.2,4-1.8,5.1c-0.2,0.2-0.4,0.4-0.5,0.7
			c-0.5,0.8-0.2,0.8-0.2,0.8c0.1-0.2,0.2-0.3,0.4-0.5l0.6-0.5c-0.1,0.8-1,1.2-1.2,2c0.5-0.3,0.2-0.3,0.7-0.5
			c-0.2,0.6-0.7,0.7-0.7,1.4c0.7-0.2,1.3-1.5,1.6-2.2c1.1-2.3,1.8-7.5,2.3-8.9v-0.1l0.1-0.2c0-0.1,0-0.1,0.1-0.1
			c0.3,2-0.1,5.3-0.4,7.3c-0.2,1.2-0.2,1.3,0.3,2c-0.3,0.3-0.4,0.2-0.5,0.7c-0.4,2.1,0.8,0.7,0.5,2.9c-0.1,1.1,0.3,1.1-0.6,1.6
			c-0.6,0.4-0.9,0.6-1.3,1.1c-0.5,0.5-0.5,1-0.9,1.4c-1.3,0.2-1.7-0.2-2.2,1.2c-0.8,1.7,0.1,1.7,0.5,2.5c-0.1,0.7-0.6,1.3-1.3,1.2
			c-0.4,0-0.6-0.3-1.2-0.1c-0.4,0.1-0.4,0.3-0.7,0.4c-0.1-0.6,0-0.9-0.6-1.1c-1.3-0.4-1.8,0-2.2,1c-0.3,0.6-0.5,0.5-0.7,1.2l1-0.5
			c-0.2,0.9-1.4,0.3-1.2,1.7c0.3,1.3-0.4,0.8-0.8,1.9l-0.2-0.4c0,0,0,0,0-0.1c-0.9,0.9-0.5,0.8-1.3,0.8c0-0.7,0.4-1.6-1.4-1.6
			c0.1,0.6,0.1,0.1,0.3,0.7c-0.4,0.3-1.2,0.7-1.5,0.8c0.2-1,0.8-0.3,0.9-1.2l-1.1,0.2c0.3-0.4-0.3-0.1,0.5-0.4
			c0.4-0.2,0.7-0.2,1.3-0.6c-0.2-0.1,0.1-0.3-0.9,0.2c-0.3,0.2-0.5,0.3-0.8,0.4c0.1-0.4,0.2-0.5,0.9-0.8c0.6-0.2,0.9-0.1,1.5-0.1
			c-0.2-0.4-0.2-0.2-0.6-0.5c-0.4-0.3-0.1-0.3-0.3-0.7c-0.8,0.3-2.1,0.9-2.8,1c0.3-0.7,0.3-0.6,0.7-1c0.3-0.3,0.4-0.4,0.8-0.8
			c0.2-0.2,1.2-1.3,1.3-1.6l-1.1,1.2c-0.7,0.7-0.6,1-1.3,1.2c0.1-0.6,0.3-0.6,1.1-1.5c0.3-0.4,0.4-0.3,0.7-0.6
			c0.3-0.3,0.3-0.5,0.6-0.7l2.3-2.7l3-4.5c0.3-0.5,0.8-1,1-1.5c-0.1-0.1,0.2-0.2-0.2,0c0,0.3-0.4,0.7-0.6,1l-3.7,5.1
			c-0.6,0.9-1.3,1.6-2,2.5l-1.3,1.5c-0.3,0.4-2.3,2.5-2.9,2.9c-0.5-0.2-0.1-0.2-0.7-0.4c0,0.4,0.1,0.9-0.1,1.2
			c-0.3-0.3,0-0.4-0.3-0.9c-0.4,0.4,0,0.7-0.3,1.2c-0.3-0.4-0.1-0.2-0.2-0.6c-0.1-0.5,0.1-0.2-0.3-0.4v1c-0.3-0.2-0.2,0-0.3-0.5
			c-1.3,0-1.3,0.5-2.2,0.7c0.3-1.1,0.6,0.1,0.6-1.8l-0.5,0.2l-0.2-1.2c-0.4,0-0.1,0-0.5,0.3c-0.1-0.2-0.2-0.3-0.4-0.4
			c-0.1,0.4-0.1,0.6-0.3,1c-0.3-0.2-0.2-0.3-0.3-0.6l-0.6,0.2c0.2-0.4,0.2-0.3,0.2-0.5c-0.4,0.1-1.3,1.1-1.6,0.4
			c-0.2-0.3,1.9-4.1,2-4.6c-0.2,0.2,0,0-0.2,0.2l-1.3,2.1c-0.3,0.4-0.2,0.5-0.7,0.7c0.2-0.7,0.7-1.3,1-1.7c0.2-0.4,1-1.3,1-1.6
			c-0.5,0.3-1.4,2-2,2.6c0.2-0.5,0.3-0.7,0.6-1.1l1.8-3c0.5-0.7,2.3-3.4,2.3-4c-0.4,0.2-1.2,1.5-1.4,2.1l-4.1,6.7
			c-0.2-0.3-0.2,0-0.1-0.4l2.3-3.9c-0.4,0.1-0.9,1.1-1.2,1.4c-0.4,0.7-0.6,1.3-1.3,1.4c0.2-0.5,0.2-0.7,0.5-1.2
			c0.2-0.4,0.4-0.7,0.6-1.1c0.4-0.7,0.8-1.4,1.2-2c0.7-1.2,1.9-2.9,2.3-4.1c-0.6,0.5-3,4.7-3.7,5.9l-0.7,1c-0.1,0.2-0.1,0.3-0.3,0.5
			l-0.8,0.9c0.8-1.4,3.9-6.1,4.3-7.2c-0.5,0.2-3.2,4.6-3.8,5.6c-0.2,0.4-0.2,0.6-0.7,0.8c0-0.7,0.7-1.5,1.1-2.1
			c1-1.5,2.9-4.1,3.4-5.6c-0.8,0.7-6,9.5-6.7,9.9c0-0.6-0.1-0.1,0.2-0.6l1.9-3c0.5-0.9,1.8-2.6,2.1-3.5c-0.5,0.3-2,3-2.5,3.6l-2,3.2
			c-0.2,0.3-0.2,0.2-0.4,0.4c0-0.5,0.4-1,0.7-1.4c0.3-0.5,0.6-0.8,0.5-1.3v-0.1c-0.4,0.2-0.1,0-0.4,0.4c-0.1,0.2-0.2,0.3-0.2,0.4
			l-0.3-0.3c0,0,0,0-0.1-0.1c0,0,0,0-0.1-0.1c-0.2,0.3-0.2,0.2-0.3,0.4c-0.3,0.5-0.1,0.2-0.5,0.4c0.1-0.2,0.1-0.3,0.2-0.4
			c0.2-0.4,0.4-0.5,0.7-0.9l2.7-3.7c0.8-1.2,1.9-2.6,2.7-3.7c0.2-0.2,0.3-0.2,0.3-0.6c-0.4,0.1-0.4,0.2-0.6,0.5
			c-0.2,0.2-0.3,0.3-0.5,0.6l-4.5,6.1c-0.5,0.6-1.3,2.2-2,2.3l0.2-1c-0.4,0.2-0.6,0.4-1.1,0.6c-0.2-0.1,0,0-0.2-0.1l-0.1-0.1
			c0,0,0,0-0.1-0.1c-0.2,0.4-0.3,0.3-0.5,0.6c-0.3,0.5-0.1,0.4-0.7,0.7c0.4-0.9,1.3-1.9,1.1-2.3c-0.4,0.2-0.3,0.6-0.7,0.9v-0.1
			l-0.2-0.5l-2.1,1.9c-0.2,0.2-0.1,0.1-0.3,0.3c-0.1-0.6,0-0.3,0.3-0.6h0.1c0,0,0,0,0.1,0c-0.2-0.4-0.3-0.4-0.2-0.9
			c0-0.3,0.1-0.4,0-0.7L183,136c0.2-0.2,0.3-0.1,0.4-0.4c0.1-0.2,0-0.5-0.1-0.7c-0.1-0.1,0.2-0.1-0.3-0.1s-2.9,0.6-3.4,0.7
			c0.1-0.6,0.2-0.6,0.7-1c0.3-0.3,0.4-0.3,0.6-0.7c-0.4,0.1-0.6,0.3-0.8,0.5c-0.3,0.2-0.5,0.5-0.9,0.6c0.2-0.5,0.5-0.8,0.8-1.1
			c0.6-0.8,0.6,0,1.1-0.4c-0.1-0.2-0.1-0.1-0.3-0.2c0,0,0,0-0.1,0c0,0,0,0-0.1,0c0.3-0.9-0.2-0.3,0.5-0.9c-0.2-0.5-0.1,0.2-0.4-0.5
			c0.4,0,0.8,0,1.2-0.2l-1.5-0.4c-0.5,0.8,0,0.7-1,1c-1.1,0.3-1,1.6-1.9,2c-0.9,0.3-0.7-0.2-1.3-0.5c-0.2,0.2-0.2,0.6-0.3,0.7
			c-0.1,0.2-0.1,0.2-0.1,0.2l-0.2-0.3c-0.2-0.3,0.1,0-0.2-0.2c-0.2,0.4-0.1,1-0.3,1.4c-0.4-0.4-0.1-0.7-0.3-1.3
			c-0.7,0.6,0.1,1.3-1.5,1c-0.9-2,0.1-2.7,0.6-3.8c-0.4,0.2-0.4,0.3-0.6,0.7c-0.2,0.4-0.2,0.4-0.5,0.7l-0.1-0.6
			c-0.8,0.3-0.4,0.9-1.2,1.3C170.9,133.4,170.7,133.8,170.9,133.2L170.9,133.2z M192.2,109.4c0.2-1.3,0.7-0.7,1.1-1.5
			c-0.2-0.7-0.5-0.5-0.2-1.3c0.3,0.2,0.2,0.4,0.4,0.8c0.4,0.7,0.5,0.5,0.6,0.5v0.4C193.4,108.6,192.7,109.3,192.2,109.4L192.2,109.4
			z M194.3,106.7c-0.6-0.5-0.4-1.3,0.2-1.7c0.3-0.3,0.4-0.2,0.5-0.8c0.1-0.3,0.2-0.8,0.2-1.1v-0.1l0.1-0.2c0.3-0.7,0.3-1.5,1.1-1.4
			c0,0.4-0.5,1.4-0.7,1.9c-0.6,1.7-0.4,1.2,0,2h-1c0,0.7,0.3,1,0.5,1.6L194.3,106.7L194.3,106.7z M214.9,67.8
			c0.8,0.6,0.4,1.9,2.9,3.7c0.7,0.5,1.1,0.6,1.3,1.2C217.3,72.6,214.9,69.9,214.9,67.8z M228.4,68.2c0.3-0.5,1.3-1.8,1.6-2
			c0.2,0.5,0.7,1,0.8,1.3h-1.2c0.2,0.9,0.8,1.9,1.4,2.1c0.2-0.5,0.1-0.2,0.1-0.4c0-0.1,0-0.3,0-0.5c0.6,0.3,0.6,0.6,0.7,1.4
			c0.1,0.7,0.1,1.2,0,1.8c-0.6,0-0.9-0.9-1.3-1.3c-0.8-0.8-0.6-0.6-1.3-1.4C228.9,68.9,228.6,68.7,228.4,68.2L228.4,68.2z
			 M215.7,67.4c-0.4-0.9-0.8-1.6,0-2.2l0.3,0.6c0.3,0.6,1.4,2.2,1.7,2.4c0.4,0.4,0.5,0.3,0.7,0.9l-1.3-0.6c0.1,0.7,0.3,0.4,0.4,1
			l-1,0.1C216.3,69.1,215.9,67.8,215.7,67.4L215.7,67.4z M231.7,65.8l-0.1,1.4c-0.3-0.1-0.6-0.4-0.9-0.7c-0.1-0.1-0.1-0.1-0.2-0.2
			l-0.1-0.2C230.8,65.9,231.3,65.8,231.7,65.8L231.7,65.8z M212.9,68.1c0.7,0.5,1,0,1.3,1.1c0.8,2.9,0.9,2.5,2.4,5.1l2.8,4.6
			c0.5,0.9,0.6,0.8,0.7,2c-2,0-2-0.6-2.6-0.7c-1.5-0.2-0.2,0.2-1.8-0.6c-0.4-0.2-0.3-0.1-0.5-0.5c1.5-0.1,3.1,0.8,3.8,0.9
			c-0.1-0.7-1.3-0.9-2-1.1v-1c-0.4,0-0.4,0.3-0.7,0.6l-2.3-0.5c0,0.5,0.3,0.5,0.5,0.9c-0.5,0.1-1.1-0.3-1.4-0.6
			c-1.1-0.9-1.1-1.3-1.5-1.7l-2.4-3.1c-1.1-1.7,0.4-2.4-0.3-3.3c-0.3-0.4-1.1-0.4-1.5-0.7c-0.1-0.6-0.2-2.8,0-3.3
			c0.1-0.3,0.4-0.6,0.6-1.1c0.4-0.8,1-2,1.4-2.6c0.2-0.2,0.2-0.2,0.5-0.4c0.4-0.4-0.1-0.2,0.9-0.9c0.7-0.5,0.6-0.1,1.3-0.2
			c0.5-1.2,0-1.3,1.3-1.8c0.7-0.3,1.4-0.9,2.2-0.9c0.5,1.2,0.5,1.3-0.1,2.3c-0.8,1.4-0.7,2.9-1,5.1c-0.1,0.6-0.1,1-0.5,1.1
			C213.1,67.5,213,67.3,212.9,68.1L212.9,68.1z M220.6,57c0.2-0.4-0.2-0.7,0-1.3c0.1-0.3,0.5-0.6,0.9-0.4c0.6,0.2-0.2,1.2,1.3,1.3
			l-0.3-1.3c1,0.1,2.2,0.3,3,0.8c0.4,0.2,0.6,0.3,0.7,0.6l-0.5,0.5c0.8,1.7,2.3-0.2,3.5,1.8c0.2,0.4,0.2,0.8,0,1.1
			c-0.4,1.2,0.7,1-0.1,3.3c-0.6-0.3,0-0.4-1.5-0.4c0.2,0.4,0.3,0.2,0.4,0.6c-0.4-0.1-0.4-0.2-0.7,0.1c0.1,0.4,0.1,0.1,0.4,0.4
			c-0.2,0.6-0.5,0.2,0,1.1c0.2,0.3,0.1,0,0.1,0.3c0.1,0.4-0.1-0.1,0,0.2s-0.1,0.1,0.3,0.3c0.3-0.4-0.2,0.4,0.1-0.2
			c0.2-0.5,0.2-0.3,0.5-0.2c-0.2,0.6-0.8,0.7-1.4,0.7c-0.9,0-0.7,0.4-1.1,0.8c-0.4,0.1-0.9,0.1-1.3-0.1c-0.5-0.3-0.2-0.4-0.6-0.7
			c-0.6,0.5-0.1,1.1-2.3,0.7c-0.9-0.2-1-0.6-1.4-1.8c0.3-0.5,0.2,0,0.3-0.6c-1.1-0.8-1.7-0.4-2.7,0.1l-0.6,0.5c0,0,0,0,0,0.1
			c0.4,0.6,1.3,1.1,1.7,1.4c-0.5,0.2-1.1,0.6-1.6,0.5c-0.2-0.3-0.5-0.6-0.7-1c-0.6-1-1.3-2.4-1.3-3.6c0.2,0.2,0.1-0.1,0.4,0.7
			c0.2,0.5,0.6,1.4,1,1.6v-0.1v-0.2l-0.1-0.2c-0.2-0.5-0.6-1-0.6-1.6c0.1-1.2,0.1-0.3-0.3-1.1c-0.3-0.6,0.5-3,0.7-3.5
			c0.3-0.7,1-1.5,1.3-1.6C218.7,56.8,219.8,57.8,220.6,57L220.6,57z M215.5,80.7c0.6,0.1,1.5,0.1,2.1,0.2c0.8,0.2,1.1,0.4,2,0.4
			c0.9,0.1,4,0.1,4.6,0.4c-0.1,0.2,0.1,0.3-0.8,0.7c-0.4,0.2-0.8,0.3-1.2,0.3l0.1-0.8l-6.2,1.6c0,0-0.1-0.1-0.3-0.2
			c-0.1,0,0,0-0.3-0.1c-1.1-0.3-0.2,0.1-1.6-0.6c-0.7-0.3-1.5-0.5-2.2-0.7c-0.9-0.3-3.9-1.1-4.3-1.5
			C207.3,80.5,215.5,80.7,215.5,80.7z M216.1,83.9l1.7,0.5c-0.2,0.3-0.6,0.3-1.1,0.3c-0.5,0.1-0.8,0-1.2,0c-0.3-0.4-1.2-0.8-1.5-1.1
			c-0.3-0.2-0.6-0.3-0.9-0.5c-0.5-0.3-0.6-0.3-0.8-0.6c0.5,0.1,1.3,0.6,1.8,0.8C214.9,83.6,215.6,83.7,216.1,83.9z M215.3,84.8
			c1,0.6,1.6,0.3,2.8,0.1c2.8-0.5,4.5-0.2,5.9-2c0.3-0.4,1.1-1.3,1.3-1.4c0.2,0.5,0.2,0.9-0.2,1.3c-0.3,0.4-0.6,0.6-0.9,0.8
			c-0.1,0.3-0.1,0.2,0.1,0.3c0.8-0.2,1.2-0.8,1.3-1.4l0.2-1c0.9,0.3,0.7,0.9,0.8,1.8c0.1,0.7,0.6,1,0.7,1.7c0.1,1-0.2,3.7-0.3,4.8
			c1.2-0.6,0.8-4.2,0.8-5c0-0.8,0.6-0.5,0.7-1.3c-0.8-0.2-1-0.2-1.3-0.9c-0.2-0.4-0.6-1.3-0.6-1.7c0.5-0.2,0.6-0.2,1,0.2
			c0.7,0.9,1.3,1.1,1.7,2.8c0.3,1.2,0.5,1.3,0.2,2.5c-0.2,0.7,0.4,1.5,0.1,2.7c-0.1,0.7-0.2,1.3-0.4,2c-0.2,1-0.3,1-0.8,1.5
			c0.2,0.3,0.3,0.5,0.7,0.6c0.1-0.6,0.3-1.3,0.6-1.6c0.2,0.2,0.1-0.2,0.2,0.4s-1.3,2-1.6,2.2c-0.8,0.4-0.7,0-0.8,0.6
			c0.3,0.2-0.4,0.2,0.4,0.1l0.6-0.3c0.2,0,0.1,0,0.2,0.1c0.2,0.3,0.6,2.9,0.7,3.5c0.5,3,0.5,2.2-1.1,4.6c-0.8,1.3-1,1.1-2.6,1.3
			c-1,0.1-1.2,0.2-1.4-0.8c1.4,0.2,1.3,0,2.7-0.5l0.7-0.3c0,0,0,0,0.1-0.1l-1.7,0.4c-1.1,0.3-0.3,0.1-0.6-0.2
			c0.6-0.1,1.2-0.5,1.7-0.8c0.5-0.2,1.2-0.5,1.4-0.9c-1.2-0.1-3.8,1.6-4.5,0.4c0.2-0.4-0.1-0.1,0.4-0.3c0.5-0.2,2.3-0.6,2.7-1
			c-1.3,0-2,0.5-3.1,0.7c0.1-0.7,1.3-3,1.5-4.2c0.3-1,0.4-0.7,0.8-1.3c-0.7,0-1.2,0.4-1.6,0.7c-0.5,0.3-1.2,0.4-1.7,0.5
			c-1.8,0.2-6.1-1.8-9.8-2.3c-0.3,0-0.6,0-0.8-0.2l1.5-1.3c0.9-0.6,4.1-3.4,4.6-3.4v-0.3c-0.6,0.3-1.1,0.7-1.6,1c0,0,0-0.1,0.1-0.1
			l5.3-4.3c0.2-0.2,0.2-0.3,0.4-0.5c0.1-0.1,1.3-1.1,0.9-1.1c-0.4,0.1-1.4,1.2-1.8,1.4l-3.8,3.2c-0.9,0.7-5.6,3.9-5.9,4.4
			c0.8-0.2,3-2.1,3.9-2.4c-0.1,0-0.3,0.3-0.5,0.4l-2.1,1.6l-0.1,0.1l-1.6,1.3c-1.6,1.1-3.3,2.8-4.7,3.2V97l-0.1-0.4v-0.1
			c-1.7,0.7-0.1-0.1-1.2,0c-0.9,0.1-1,0.2-1.9-0.5c-0.3-0.2-0.8-0.5-1.1-0.7c-0.6-0.4-0.2-0.8-0.9-0.9c-1.2-0.3-1.6-0.5-2.3-1.2
			l-0.9-0.9c-0.8-0.7-0.5-0.3-0.2-1.3c-0.3-0.2-0.3-0.2-0.7-0.2c-0.3-0.7,0.3,0.1-0.1-0.7c-0.1-0.2-0.3-0.3-0.3-0.6
			c-0.1-0.7,0.6-1.6,1-2.4c0.4-0.6,0.4-0.9,0.9-1l-0.2,1c0.6-0.1,0.9-1,1.4-1.7l0.5-0.8c1.6-1.9,1-1.6,4.3-3.5
			c0.5-0.3,1.5-0.9,2.1-0.9c0.4,0,2,0.5,2.3,0.7c1.4,0.7,1,2.5,2.9,3.2c-0.2-0.8-1.5-1.8-1.6-2.6c0.4,0.1,1.4,0.9,2.4,1.3
			C213.6,84,214.5,84.4,215.3,84.8L215.3,84.8z M37.8,52.3c0.4,0.1,0.6,0.3,0.7,0.6c0.1,0.2,0.1,0.4,0.1,0.6c0,0.1,0,0.2-0.1,0.3
			c-0.1,0.2-0.1,0.1-0.2,0.2c-0.3-0.3-0.2-0.4-0.3-0.8C37.9,53,37.8,52.7,37.8,52.3z M32.9,50.1c-0.4-0.1-0.1,0-0.2,0.1
			c0.2,0.4,0.5,0.5,0.9,0.7c0.7,0.7,0.8,0.8,1.3,1.6c0.4,0.7,0.7,1.4,1.1,1.9c0.6,0.8,1.3,0.8,1.6,1.3c0.3,0.3,1.1,1.3,1.6,1.2
			c0.2-0.6-0.9-0.5-1.2-1.1c0.2-0.3,0.5-0.2,0.8-0.3c-0.2-0.6-0.8-0.5-0.4-1.2c0.3,0,0.2,0.1,0.7,0.1c0.2-0.5,0.5-0.6,0.5-1.3
			c-0.3-0.1-0.6-0.2-0.8-0.3c-0.1-0.4,0-0.4-0.1-0.7c-0.1-0.4-0.1-0.1-0.2-0.5l1,0.1L39.4,50c-1.3-0.1-0.6,0.4-1.3,0.7
			c-0.1-1,0.3-0.6-0.4-1.1c-0.2-0.2-0.2-0.1-0.3-0.4c0.4-0.2,0.8-0.5,0.8-1.2c-0.7-0.4-1-0.1-1.6-0.2c-0.6-0.1-0.9-0.5-1.6-0.1
			c-1,0.5-0.6,1.8-1.3,2.7C33.6,50.4,32.9,50.1,32.9,50.1z M4.1,56c1,1.2,1.1,2.7,1.2,4.2C5.9,60,6.2,59,6.2,58.3
			c-0.1-0.9-0.7-1.3-0.8-2.1c-0.1-0.5,0-4.2-1.3-4.5V56z M210.8,102.6c1.1-0.1,1.4-0.7,1.9-0.8s0.6,0.1,1-0.2
			c0.2-0.2,0.5-0.5,0.7-0.7c0.4-0.5,2.1-2.1,1.7-3.3c-1.6-0.2-1.2,1.3-1.8,1.9c-0.3,0.3-0.4,0.4-0.7,0.7
			C212.2,101.9,211.2,101.6,210.8,102.6z M36.3,73c0.4,0.2,1.1-0.1,1.4-0.3c-0.2-0.8-0.8-0.3-1-1c0.3-0.2,1-0.5,1-0.5l0.1-0.1
			c-0.2-0.3,0-0.1-0.8-0.6c-0.3-0.2-0.5-0.2-0.9,0.1c-0.4,0.3-0.3,0.4-0.2,1.1C36.2,72.5,36.1,72.7,36.3,73z M169.7,61.3
			c0.6,0.2,1.9-0.7,1.8-2.6C170.8,58.8,169.4,60.2,169.7,61.3z M214.1,70.3c-0.1-0.4-0.8-0.8-1.3-0.9c-0.5,0-0.9,0.6-1.1,1.1
			C211.4,71.8,213.7,71,214.1,70.3z M42.1,82l-0.6,0.4c0.2,0.3,1.3,1.1,1.7,1.1c0.1-0.7-0.5-0.8-0.7-1.4c0.4-0.6,0.5-0.3,1-0.6
			c0.2-0.1,0.5-0.5,0.5-0.8c0-0.4,0-0.2-0.1-0.4c-0.6,0.3-0.1,0.8-1.2,0.9C41.6,81.3,42,81,42.1,82z M55.2,82c0.7,0,1.2-0.1,1.4,0.5
			c-0.4,0.5-0.8,0.7-1.2,0.1C55.2,82.2,55.3,82.3,55.2,82z M54.3,82.1l0.5,0.3c0.2,0.7-0.2,0.6,0.6,0.8c0.7,0.1,1.7,0.4,1.5-1.1
			c-0.1-0.5-0.2-0.5-0.8-0.5C55.4,81.6,54.6,81.5,54.3,82.1z M156.1,114.5c1.3-0.2,0.6,0,1.3,0.2c0.4,0.1,0.8-0.3,1-0.6l-0.4-1
			C157,113.3,156.1,114,156.1,114.5z M173.1,103c0.4,0,1.1-0.3,1.3-0.6c0-0.5-0.2-0.6-0.4-1c0.6-0.6,0.4-0.1,0.5-0.7
			C172.9,101,173.1,102.4,173.1,103L173.1,103z M41.4,53.2c0.1-0.5,0.1-0.4-0.1-0.7l-1.4-0.4c0.1,0.4,0.2,0.4,0.2,0.6
			c0.1,0.4-0.3,1.3,1,1.3L41.4,53.2z M216.3,133.1c0.6,0.3,0.5,0.2,0.6,0.4l0.1,0.3c0.4,0,0.7,0.1,0.8-0.3
			C218.4,132,216.3,131.8,216.3,133.1L216.3,133.1z M168.3,118.2c0.7,0.4,1.4,0.2,1.6-0.4l-0.9-0.2l-0.2-0.7h-0.4
			C168.3,117.3,168.2,117.8,168.3,118.2z M124.4,57.8c0.8,0.1,1-0.2,1-0.9C124.3,55.9,123.5,56.6,124.4,57.8z M85.7,87.9
			c0.2,0,1-0.3,1.3-0.5c0.5-0.2,0.7-0.4,0.8-0.9C86.7,86.6,86,87.1,85.7,87.9z M167.8,75.3c0.3,0.3,0.6,0.3,1,0.3
			c0.2-0.4,0.6-0.9,0.6-1.4C169.1,74.3,167.9,75.1,167.8,75.3L167.8,75.3z M169.3,80.9c0.5,0.1,1.1-0.3,1.3-0.5
			c-0.1-0.4,0-0.1-0.3-0.5c-0.3-0.2-0.2-0.2-0.6-0.3C169.5,80.1,169.2,80.4,169.3,80.9z M169.1,92.6c0.9,0.3,1.3-0.7,1.4-1.4
			c-0.5,0.2-0.5,0.3-0.9,0.6C169.4,92,169.1,91.9,169.1,92.6z M180.7,91.7c0-0.5,0-0.6-0.3-0.9c-0.3-0.2-0.4-0.4-0.9-0.5
			C179.7,91.2,179.8,91.9,180.7,91.7z M183.5,120.9c-0.4,0.8-0.1,1.2,0.7,0.9C184.9,121.5,184.4,120.7,183.5,120.9z M166.1,93.5
			c0.3-0.1,0.7-0.3,0.8-0.5c0.1-0.2,0.4-0.7,0.5-1c-0.4,0.1-0.7,0.2-0.9,0.5c-0.1,0.1-0.2,0.2-0.3,0.4
			C166.1,93.1,166.1,93.3,166.1,93.5L166.1,93.5z M166.2,107.6c0.3,0.1,0.4-0.1,0.6-0.3c0.2-0.2,0.4-0.4,0.3-0.8
			C166.4,106.2,165.9,106.9,166.2,107.6z M4.1,104.7c0.2,0.1,0.5,0.1,0.8,0.1c-0.1-0.4-0.4-0.9-0.5-1.2H4.1
			C4.1,103.7,4.1,104.7,4.1,104.7z M210.3,90.9l-0.1,0.9c0.6,0,0.7-0.4,0.9-0.9H210.3z M211.7,145.6c0.7-1,1.9-0.9,2.3-1.3
			c0.9-0.9,1.2-1.7,1.9-1.1c1.4,1.1-0.7,2-0.7,2c-0.1,0.1-0.8,1.3-2.5,1.1l0.5-0.3c0.2-0.1,0.3-0.1,0.5-0.2
			c-0.1-0.1-0.1-0.2-0.6-0.1c-0.4,0.1-0.6,0.2-1.2,0L211.7,145.6L211.7,145.6z M177.1,141.2c-0.4-0.4-0.3,0-0.5-0.4
			c0.3-0.2,1.7-0.3,1.1,0.4c-0.2,0.2-0.4,0.3-0.7,0.4c-0.7,0.3-0.6,0.1-0.7,0C176.5,141.6,176.8,141.5,177.1,141.2L177.1,141.2z
			 M173.8,139.1c-0.4-0.8-0.8-0.3-1-1c0.3,0,0.9,0.3,1.2,0.5l0.9,0.3c0.2,0.1,0.1,0,0.1,0.2l-0.8,0.1l-0.2,0.5c-0.4,0-0.6-0.1-1-0.2
			c-0.8-0.3-0.6-0.3-0.7-0.5c0.1-0.1-0.1-0.2,0.6,0C173.3,139.1,173.4,139.1,173.8,139.1L173.8,139.1z M179,137.3
			c0.2-0.3,1-0.8,1.3-0.9c-0.1,0.6,0.1,0.2-0.3,0.6c0.2,0.5,0.2,0,0.2,0.6c-0.7,0.4-0.4,0-0.4,0.9c0.5,0,0.9-0.1,1.3-0.1
			c0.6,0.1,0.5,0.2,1.2,0.1c-0.2,0.3-0.3,0.3-0.7,0.4c0.1,0.5,0.3,0.3-0.1,0.8c-0.3,0.3-0.3,0.5-0.7,0.6c0-0.1-0.2-0.6-0.3-0.6
			c-0.3-0.3-0.6-0.2-0.6-0.3h-0.1c0.2-0.3,0-0.2,0.5-0.4c0.4-0.2,0.1,0.1,0.3-0.2c-1.7-0.1-1-0.2-1.4-1.1
			C179.2,137.4,179.3,137.7,179,137.3L179,137.3z M226.7,109.2c-0.3-0.7-0.8-0.4-1.3-0.9c0,0,0.1,0,0.1-0.1c0,0,0.1,0,0.1-0.1h0.1
			h0.4c1.5,0,1.9-0.1,2.4,2.4c-0.5-0.2-0.7-0.6-1.2-0.9c-0.5-0.4-0.6,0.1-1.3-0.7C226.2,109,226.7,109.2,226.7,109.2z M221.8,108.8
			c-0.1-0.5,0-1,0.1-1.3c0.5,0.3,0.5,1,0.4,1.5L221.8,108.8z M227.2,106.2c0.4,0,0.4,0.2,0.6,0.5c-0.1,0.5-0.2,0.6-0.7,0.7
			L227.2,106.2z M226.5,106.6c0.1,0.3,0.1,0.3,0.1,0.6l-0.1,0.6c-0.7,0.2-1.3-0.8-1.5-1.2C225.6,106.5,226.2,106.4,226.5,106.6z
			 M226.3,104.3l1.5-0.1c-0.2,0.5-0.4,0.6-0.7,1c-0.4,0.5-0.5,0.4-0.8,0l0.4-0.4L226.3,104.3L226.3,104.3L226.3,104.3z M196.6,105
			c-1.2-0.2-0.6-2.5,0-2.7V105z M199.2,96.3c0.3-0.7,0.4-0.4,0.8-0.8l-0.7-0.3l0.1-0.4c0.6-0.1,3,1.8,4.5,2.4
			c0.3,0.1,0.6,0.2,0.9,0.3c0.9,0.3,0.6,0.1,0.8,0.4l-2,1.4c-0.6,0.4-1.7,1.2-1.8,1.5c0.5,0,2.5-1.6,3.1-2c0.2-0.1,0.3-0.2,0.5-0.4
			c0.4-0.3,0.1-0.2,0.6-0.4c-0.1,0.7-0.9,2.4-1.2,2.8l-1.4,1.3c-2,1.9-2.1,0.4-3.6,0.8c-0.5,0.1-1.1,1.2-2.7,0.4
			c-0.1-0.9-0.1-2.7,0-3.7c0-0.6,0-0.6,0.5-0.9c0,1.3-0.3,2.2,0.4,2.5c0.8,0.3,1.8,0.7,1.8-0.5c-0.3-0.1-0.9-0.2-1.1-0.4
			c0.3-0.6,0,0.1,0.9-1c-0.2,0-0.3,0.1-0.5,0.1c-0.2,0-0.2,0-0.3,0c0.5-1,1.3,0.3,1.3-1.2c-0.4,0.1-0.7,0.4-1.1,0.4
			c0.2-0.5,0.9-0.6,1.2-0.9C200,97.1,199.3,96.5,199.2,96.3L199.2,96.3z M216.1,83.9v-0.3c-0.6-0.2-0.1,0,0,0
			C216.1,83.6,216.1,83.9,216.1,83.9z M51.2,87.7l-0.6-0.1c0.2-0.5,0-0.1,0.3-0.4c0.2-0.2,0.2-0.2,0.5-0.4
			C51.5,86.8,51.2,87.7,51.2,87.7z M64.7,80.6c-1-0.4-0.2-2.4,0-3c0.1-0.6,0-0.8,0.3-0.9C65.1,77.2,64.8,80.3,64.7,80.6z M65,71.9
			c0.5,0.2,0.6,0.3,0.8,0.6c-0.3,0.2-0.8,0.1-1.2,0.1C64.6,72.2,64.7,72.2,65,71.9z M65.3,69.6c0.3-0.2,1.1,0.2,1.4,0.4
			c0,1.1-0.6,2.7-0.7,3.8c-0.4-0.1-1.1-0.3-1.3-0.7c0.6,0,1.3,0.2,1.3-0.7c0-0.7-0.7-0.6-1-1.1h1.1C67.3,69.8,65.7,70,65.3,69.6z
			 M64.7,70c0.4,0,0.8-0.1,1.1,0.1c0.2,0.1,0.5,0.5,0.3,0.7c-0.2,0.2-0.7,0.2-1,0c-0.3-0.2-0.3-0.5-0.6-0.7c-0.4,0.8-0.1,2-0.3,2.9
			c-0.2,0.8-1,1.3-1.8,1.3l1.3-2.9c0.2-0.6,0.8-3.1,1-3.3C65.1,68.8,64.8,69.4,64.7,70z M39.9,63.7c0-0.4,0.2-0.8,0.4-1.2
			c0.3-0.5,0.3-0.5,0.8-0.7l0.1,0.3c0,0.1,0,0.1,0.1,0.3c0.3,0.7,0.8,0.3,1.3,0.6C41.9,63.7,40.9,64.8,39.9,63.7z M45.6,67.9
			c0.5,0.2,0.1,0.1,0.3-0.1v-0.4c-0.2-0.8-0.2-2.1,0.2-2.7c0.9,0.1,2.3,1,3.7,0.3c0.7-0.4,0.4-0.2,1.3-0.3c-0.2-0.6-0.2,0-0.5-0.8
			l3.2,0.8C53.5,65,53.4,65,53.1,65c-0.5,0.1-0.5,0-0.7,0.4c0.4,0.2,1.3-0.2,1.8-0.2c0.6,0.6,0.7,0.9,1.7,1.3
			c0.7,0.3,1.8,0.2,2.3,0.7c-0.2,0.4-0.9,0.7-1.6,1.4c0.5,0,3-1.7,3.2-2c0.2-0.2,0.1-0.2,0.3-0.4c0.2-0.2,0.2-0.2,0.3-0.4l1.6-1.7
			c0.5-0.5,0.1-0.2,0.6-0.4c-0.1,0.8-0.5,1.3-0.7,1.9c0.6-0.3,0.7-1.3,1.2-2c0.1,0.1,0.1,0.1,0.2,0.3c0.1,0.2,0.1,0.7,0.3,1.1
			c0.6,1.3,1.2,1.2,0.3,4.6c-0.6,2.1-1.7,5-3.3,6.1c-3.4,2.5-9.1,4.1-12.9,2.5c-1.1-0.5-2.5-1.5-3.2-2.4c-0.2-0.2-0.2-0.4-0.4-0.6
			c-0.7-0.8-1.3-1.8-1.9-2.8c-0.9-1.8-1.8-3.5-1.3-5.9c0.2-0.9,0.7-2.2,1.3-2.5l1.1-0.9c0.1-0.1,0.1-0.1,0.2-0.2
			c0.1-0.1,0.1-0.1,0.3-0.2c0.3-0.2,0.3-0.3,0.7-0.4c-0.6,1.9,0.8,1.4,0.9,2.6c0,0.6-0.2,1.1,0,1.8C45.2,67.3,45.5,67.6,45.6,67.9
			L45.6,67.9z M51.2,63.3c-0.1-0.5,0.6-2.3,0.8-2.9c0.5-1.5,0.2-1.8,1.9-1.4c1.6,0.4,1.5,0.1,1.2,1.9c-0.2,1-0.4,2.1-0.7,3
			C53.8,64,51.8,63.5,51.2,63.3z M43.4,60.9c0-0.6,0.3-1.3,0.9-1.3c0,0.8-0.1,0-0.3,1.1v0.1C43.9,60.7,43.4,60.9,43.4,60.9z
			 M41.6,60.1c0.2-0.5,0.7-0.8,1.1-1c0,0.4-0.1,0.7-0.3,0.9L41.6,60.1z M55,64.1c0-0.8,1-4.7,1.3-5.8c0.3-0.9,0.5-1,1.4-0.9
			c-0.3,1.1-0.7,0.5-1.3,3.5C55.8,62.7,55.9,64.2,55,64.1z M44.7,62.4c0-0.4,1.3-6.1,1.9-6.7l0.4,0.9c0.4,0.9-0.5,1.1-0.9,2.5
			c-0.2,0.7-0.3,1.3-0.5,1.9C45.4,61.8,45.4,62.2,44.7,62.4z M68.4,49.7C68.4,49.7,68.4,49.7,68.4,49.7c1.3,2.5-0.8,6.5-1.5,8.3
			c-0.4,1-0.2,1.4-0.4,2.2c-0.2,0.7-0.6,1-0.7,1.9c-0.1,0.9,0.2,1.9,0,2.7c-0.1,0.8-0.8,1-1,1.5c0.1,0.5,0.8,0.3,0.1,0.8l-1-2
			c-0.5-1-0.1-1.3-0.8-2.2c0.4-0.5,0.3,0.1,0.4-0.6c0-0.2,0-0.4,0-0.7c0.1-0.8,0.7-2.9,1-3.5c0.5-0.9,0.7-1,0.9-2.1
			c0.2-1.1-0.1-1.6,1.1-1.9c-0.1,0.5-0.1,0.3-0.2,0.7c0.4-0.1,1-0.7,1.1-1c-0.4-0.2-1,0.1-1.3,0.1C65.8,54,68.4,49.7,68.4,49.7z
			 M67.1,43c-0.4-0.2-0.5-0.6-0.7-0.9c-0.2-0.4-0.4-0.6-0.6-1C66.7,41.3,67.1,41.9,67.1,43z M67.8,40.2c0.2,0.3,0.5,0.3,0.4,1
			c-0.5,0-1.1-1-2.8-0.5c-1.3,0.2-1.7,0.5-3.2,0c-0.7-0.2-2-0.7-2.1-1.3c0.8-0.4,2.1,1,3.5,1.1C64.9,40.4,66.5,40,67.8,40.2z
			 M61.5,41.9l3.6,2.3c0.7,0.5,1,0.5,1.1,1c-1.4-0.5-5.1-3.5-6.9-3.4c-0.1-0.2-0.1-0.1-0.1-0.3C59.7,41.5,60.9,41.8,61.5,41.9z
			 M61.1,44.9c0.4,0.3,0.6,0.3,0.8,0.8c-0.3,0.4-0.7,0.4-0.8,0.9c1.2,0.1,1.6-0.6,3.2-0.4c-0.1,0.5,0,0.2-0.6,0.7l-1.8,1.4
			c0,0,0,0,0,0.1c-0.6,0.2-0.9-0.3-1.3-0.7c-0.3-0.3-0.8-0.6-1.2-1c-1.5-1.3-1.3-0.3-1.2-2.7C59.1,44.1,60.3,44.7,61.1,44.9z
			 M62.2,48.5c0.9-0.3,2-1.9,3.1-1.5c0.7,0.2,2.6,1.3,2.9,1.8c0,0.3-0.1,0.6-0.2,0.8c0,0-0.9,0.4-1.3,1.7c0.5-0.2,0.7-1.1,1-1.4
			c-0.2,0.6-0.8,1.5-1.2,2.1c-0.2,0.4-1,1.8-1.2,2c-0.2-0.2-0.2-0.5-0.3-0.8c-0.5-0.2-0.2,0.2-1.3-0.6c-0.3-0.2-0.9-0.6-1.2-0.9
			c-0.8-0.7-0.8-1-0.8-2.4c0-0.4,0-0.4,0.2-0.7C62,48.7,62,48.7,62.2,48.5C62,48.7,62.2,48.5,62.2,48.5z M62.1,52.2
			c0.4,0.6,1.1,0.5,1.3,1.3c0.2,0.8,0,1.7,0.8,1.8c-0.2-0.5-0.6-0.9-0.5-1.6c0.5,0.1,0.3,0.2,0.7,0.5c0.2-0.1,0,0,0.2-0.1l0.3-0.2
			c-0.1,0.9,0.1,1.9-0.1,2.7c-0.3,1-0.7,1.1-1,1.5c-0.3,0.6-0.2,1.4-0.5,2.1c-0.2,0.6-0.8,1.1-1.4,1C61,60.2,62.4,59,62,57.4
			c-0.2-0.6-0.4-1.2-0.5-1.8c-0.2-1-0.3-0.9-0.7-1.5c0-0.4,0.5-1.5,0.7-1.8C61.6,52.2,62.1,52.2,62.1,52.2z M58.1,54
			c-0.2,0.1-0.6,0.8-0.8,1.1c-0.2,0.3-0.5,0.7-0.7,1.1c-0.2,0.4-0.6,0.8-0.7,1.3c-0.1,0.7,0,0.8-0.3,1.4l-3.5-0.7
			c-0.1,0-0.1,0-0.3-0.1h-0.1c0,0-0.1,0-0.1-0.1c0.2-1.4,0.2-1.8-0.2-3.3c-0.2-0.6,0-1.2-0.3-1.5c-0.3-0.4-0.6-0.2-0.6-1.2
			c-0.1-1,0.6-1.3,1.4-1.5c1.1-0.3,1.6,0.3,2.6,0.5c1,0.2,1.4,0.8,1.9,1.3C57.2,52.9,58.1,53.4,58.1,54z M50.3,52.3
			c-0.2,0.4,0.1,0.1-0.3,0.3c0-0.4-0.6-2-0.7-2.3c-0.3-0.8-1.3-2.6-2-3.1c-0.4-0.3,0-0.2-0.7-0.7c-0.2-0.2-0.4-0.4-0.7-0.6
			c-0.6-0.5-0.9-0.8-1.3-1.2c-1.9-1.5-4.8-5.7-2.1-8.6c0.5-0.5,0.7-0.7,1.4-1.1c3-1.1,5.3-0.6,7.5,1.3c1.8,1.6,1.3,2.9,2.2,2.9
			l-0.1-0.8c0.6,0.1,0.8,0.2,0.9,0.8c-1.1,0.4-1.8,0.7-2.1-0.2c0.8,0.2,0.2,0.3,0.9,0.5c-0.1-0.7-0.6-1.3-1-1.7
			c-1.2-1.4-2.8-2.6-4.8-2.8c-3.2-0.4-5.9,1.3-5.2,4.9c0.3,1.5,1.2,2.6,1.8,3.4l4.5,5c0.6,0.8,0.8,1.1,1.2,2.1
			c0.1,0.3,0.3,0.6,0.4,0.9C50.2,51.7,50.2,51.9,50.3,52.3L50.3,52.3z M48.8,50.7l0.1,0.2l-0.2,0.2c-0.9-1.2-0.6-3.9-3.9-3.7
			c-0.7,0-1.2,0-1.8-0.1c-0.7-0.1-1-0.1-1.2-0.8c-0.5-1.7,0.8-1.9,1.1-2.7c-0.6,0.2-0.4,0.4-1,0.5c0.1-0.4,0.4-0.8,0.6-1.1
			c0.6,0.3,0.2,0.2,0.7,0.7l1.9,1.8c1.1,1,1.6,1.3,2.6,2.5C48.3,49,48.9,49.5,48.8,50.7z M48.6,51.6c0.3,0.3,0.8,0.6,1,1
			c-0.6-0.2-0.8-0.5-1.3-0.8c-0.5-0.3-1-0.4-1.4-0.6c-1.8-0.6-4.3-1.3-5.2-3.1c-0.8-1.4-0.2-2.3-0.3-3.8c0.2-0.3,0.4-1.1,0.6-1.5
			c0.3-0.5,0-0.3,0.4-0.3c0.3,0.7-0.8,1.3-0.8,3.4c0.1,3.6,3.1,4,5.6,5C47.7,51.1,48,51.4,48.6,51.6z M161.2,117.5
			c0.5,0.6,1.1-0.1,1.8,1.4c1,2.1,4.4,0.4,6.4,1.7c1,0.7,0.5,0.5,0.7,1l0.8,0.1c-0.2,0.4-0.2,0.1-0.3,0.6l1.1,0.2
			c0.1,0.4-0.3,0.6-0.6,0.8c0.2,0.3,0.2,0.2,0.5,0.6c0.2,0.3,0.2,0.3,0.3,0.7c-0.2,0-0.5,0-0.7,0.1c-0.2,0-0.1,0-0.3,0.1
			c-0.2,0.1-0.1,0.1-0.2,0.1c1.2,0.1,1.7-0.3,2,0.9h0.4c-0.2-1-1.3-1.6-1.2-2.5c0.3-0.4,0.8-0.4,0.7-1.3c-0.1-0.6-0.3-0.8-0.7-0.9
			c-0.1,0-0.1,0-0.2-0.1l-0.1-0.1c-0.2-0.1-0.2-0.1-0.6-0.1c-0.5,0.3-2-0.8-2.3-1c-1.7-0.9-3.5,1.1-5.4-1.3
			C162.3,117.6,162.9,117.6,161.2,117.5L161.2,117.5z M43.8,53.3L43,53.6l-0.2-0.9c-0.3-0.1-0.3,0-0.5,0.2c-0.2-0.3,0-0.3-0.3-0.4
			c-0.1,0.5,1.2,1.6,1.6,2.2c0.5,0.5,0.2,0.3,0.2,1.1c0.8-0.1,0.6-0.4,0.6-1c0.4,0,0.2,0.2,0.6-0.1c-0.2-0.5-0.3-0.3-0.7-0.6
			c0-0.6,0.3-0.8,0.8-1c0,0,0,0,0,0.1l0.1,0.3c0.1,0.2,0.1,0.2,0.1,0.4c0.2,0.3,0.2,0.4,0.6,0.5c-0.2-0.6-0.4-0.5-0.5-1.2
			c0.5,0.2,0.4,0.5,0.8,0.8c0-0.8-0.5-1-1.2-0.9c-0.1-0.6-0.4-1.1-0.9-1.2C44,52.4,44,52.9,44,53.5C43.5,53.5,43.9,53.5,43.8,53.3z
			 M222.6,95c0.2,0.5,0.7,1.3,1.3,1.1c0.2-0.1,0.3-0.2,0.6-0.4l0.2-0.1c0.3-0.2,0.4-0.3,0.6-0.6c0-0.1-0.6-1.1-0.6-1.2
			C223.4,93.5,223.1,94.2,222.6,95z M41.3,58c0.5-0.1,0.4-0.1,0.7-0.4c0.5,0.1,0,0,0.4,0.3c0.2-0.2,0.6-0.8,0.7-1.1
			c-0.3-0.2-0.4-0.1-0.8-0.3c0.2-0.5,0.3-0.5,0.4-1.2c-0.6,0.3-0.4,0.4-0.6,0.8l-0.2,0.2c0,0,0-0.1-0.1-0.1l-0.1-0.2
			c-0.4-0.8-0.6-1.7-1.1-1.9C40.6,55.4,41.5,55.2,41.3,58z M15.4,11.4c0.2,0.8,3.2,1.8,4.1,1.3c-0.2-0.3-1.6-0.9-1.6-0.9
			c-0.9-0.2,0,0-0.5,0.3C17.1,11.9,15.7,11.2,15.4,11.4z M119.4,74.3c-0.1,0.4,0,1,0.1,1.4l0.9,0.5c0.5-0.1,0.8-0.3,0.8-0.9
			c-0.3,0.1-0.4,0.2-0.7,0.4c0.1-0.6,0.2-0.7-0.2-1.1C120.2,74.4,119.8,74.1,119.4,74.3z M179.7,94.1c0.4,0.2,1,0.3,1.4,0.3l0.3-1.1
			c-0.1,0.1-0.7,0.4-0.9,0.5l0.6-0.8c0.4-0.5,0.5-0.1,0.7-0.8c-0.6-0.3-1.2,0.7-1.5,1.3C180,93.7,179.9,93.8,179.7,94.1z
			 M178.2,75.3c0.6,0,0.7-0.4,1.2-0.6c0.5,0.1,0.3,0.3,0.9,0.3c0.7-0.9-0.1-1.3-0.9-1.1C179.1,74.2,178.4,75.1,178.2,75.3
			L178.2,75.3z M207.1,93.1c1-0.2,0.3-0.6,0.8-0.8c0-0.3,0-0.5-0.6-0.3c-0.4,0.2-0.1,0.2-0.4,0.5c-0.4,0.4-1,0.1-1.4,0.1
			C205.6,93.5,206.9,93.3,207.1,93.1L207.1,93.1z M167.5,91.4c0-0.4-0.3-1.2-0.4-1.5c-0.1-0.3-0.2-0.5-0.2-0.8
			c-0.1-0.4,0-0.5-0.4-0.6C166.3,89.1,166.8,91.3,167.5,91.4z M115.5,33.6c0.4,0.3,0.7,0.3,0.9,0.8c0.2,0.4,0.2,0.8,0.6,1.2v-0.6
			c0-0.2-0.1-0.4-0.2-0.6c-0.1-0.5-0.2-0.9-0.3-1.3L115.5,33.6z M34.6,58.1c0.1,0.6,1,0.9,1.4,1C35.8,58.5,35.3,57.7,34.6,58.1z
			 M38,60.8c-0.1-0.4-1.1-1-1.3-1C36.7,60.8,37.2,60.9,38,60.8z M217.3,60.9c-0.3,0.6,0.1,0.8,0.8,0.9l0.1-0.7
			C217.9,60.9,217.7,60.8,217.3,60.9z M226.3,59.5c0-0.6-0.7-1.2-1.2-1.2c0.1,0.6,0.2,0.4,0.5,0.7C225.8,59.3,225.8,59.5,226.3,59.5
			z M173.1,67.5c-1-0.1-0.8,0.9-0.2,1.2C173.1,68.3,173.2,67.9,173.1,67.5z M176.6,61.2c0.1-0.4,0-0.8-0.2-1.1
			C175.7,60.3,175.7,61.1,176.6,61.2z M59.5,50.2l1-0.4l0.2,1.1C60,51,59.6,50.9,59.5,50.2z M50.8,50.1c0.1-0.6,0.2-0.3,0.5-0.7
			c0.3-0.4,0.2-0.4,0.6-0.8c0.3,0.2,0.5,0.6,0.6,0.9c-0.3,0.2-0.5,0.2-0.9,0.4C51.3,50,51.1,50.1,50.8,50.1z M43.1,48.7
			c0.5-0.1,2.1,0.1,2.6,0.2c0.9,0.2,1.2,0.8,1.3,1.7l-3.7-1.5C43.1,48.9,43.2,48.8,43.1,48.7z M58.4,47.7c0.3,0.1,0.8,0.6,1,0.8
			c0.3,0.3,0.7,0.6,0.9,0.9c-0.2,0.2-0.4,0.4-0.6,0.4c-0.4,0.1-0.4-0.1-0.6-0.5C58.8,48.9,58.4,48.2,58.4,47.7z M50.2,50.3
			c-0.4-0.5-0.2-1.7,0.1-2.2c0.2-0.4,0.3-0.6,0.5-0.9c0.5-0.8,0.4-0.7,0.7-0.7c0.7,1.4-0.2,2-0.8,3C50.4,49.8,50.4,50.1,50.2,50.3z
			 M42.4,47.7c1,0,3.4-0.1,4.1,0.4c0.7,0.4,1.5,1.7,1.7,2.8c-0.9-0.2-0.7-1.8-2-2.4c-0.9-0.4-2-0.2-3.1-0.3
			C42.2,48,42.5,47.9,42.4,47.7z M55.3,44.1c0.2,0.1,1.5,2.3,1.5,2.7c0.3,2.8,0.9,2.6,1,3.6c-1.1,0.2-1.1,0.2-1.6-0.5
			c-0.4-0.4-0.7-0.9-1-1.4C54.8,47.4,54.8,45.2,55.3,44.1z M58.1,46.5c0.9,0.2,2.5,1.7,3.2,2.8c1,1.6-0.2,3.3-0.6,4.8
			c-0.3-0.2-0.3,0.4-0.2-0.6c0.1-0.9,1-2.9,0.2-4.1c-0.4-0.7-0.9-0.9-1.3-1.3C58.9,47.4,58.2,47.2,58.1,46.5z M55,50.6
			c-1.4-0.2-2.4-1.4-2.9-2.8c-1.3-4.4,1.1-2.2,1.5-3.6c-0.7-0.2-0.6,0.3-1-0.2l1.5-0.5c-0.2,0.5-0.4,0.5-0.4,0.8
			c0,1.2-0.2,2.3-0.1,3.1C53.8,49,54.5,49.5,55,50.6z M44.6,43.2c0.8-0.5,2.1-0.8,3-1c1.1-0.3,2.2-0.7,3.2-0.1
			c0,0.6-0.3,1.1-0.3,1.9c0,1,0.5,1.1,0.7,1.5c-0.3,0.5-1.6,2.7-1.9,3c-0.2-0.2-1-1.4-1.6-2.1c-0.2-0.2-0.4-0.4-0.6-0.7
			C47.1,45.8,44.6,43.2,44.6,43.2z M56.8,45.8c-1.5-1.2-1.3-4.1,0.9-4.3c-0.1,0.8-1,0.9-1.3,1.8C55.9,44.4,56.8,45.1,56.8,45.8z
			 M43.4,42.2c0.2-1.1,2.5-2.1,3.4-2.4c1.5-0.5,3.3-0.3,4.6,0.3c0,0.4-0.1,0.5-0.3,0.8c-0.8-0.2-1-0.5-2.1-0.3
			C47,41,45.2,41.9,43.4,42.2z M63.7,39.9c-0.8,0.1-1-0.2-1.5-0.5l-1-0.6c-0.2-0.2-0.2-0.1-0.3-0.4c0.8,0,1.2,0.2,1.7,0.5
			C62.9,39.2,63.5,39.7,63.7,39.9L63.7,39.9z M58.2,53.7c-0.1-0.7-0.6-0.9-1.3-1.7c-0.3-0.4-0.4-0.4-0.7-0.8
			c-0.3-0.3-0.4-0.6-0.7-0.9c-1.1-1.3-1.7-2.1-1.5-4.6c0.1-1.3,0.5-1.8,1.1-2.7l2.2-3.1c0.4-0.5,0.9-1.3,1.7-1.3
			c0,0.5-1.4,1.7-2,2.2l-1.3,1.5c-1.6,2.7-1.7,5.4,0.2,7.9c0.5,0.6,0.9,1,1.3,1.5c0.4,0.6,1,1,1.3,1.7L58.2,53.7z M42.9,40.6
			c-0.7-0.8-1.2-5.3,3.8-5.3c2.1,0,3.6,1,4.9,2.3c0.5,0.5,0.9,0.7,0.4,1.4c-0.4,0-1.7-0.6-2.4-0.7C46,37.7,43.7,40.4,42.9,40.6z
			 M59.7,53.9c-0.5-0.2-0.9-1.9-1.1-2.5c-1.5-4.4-2-4.1-0.7-8.9c0.5-1.8,1.2-4.1,2.5-4.7c1.6-0.7,2.3,0.3,4.1,1.5
			c0.1,0.1,0.2,0.1,0.3,0.2l0.3,0.3c-1.3,0.6-3.9-4.3-6.1,0.5c-0.4,0.8-0.7,1.6-0.9,2.6c-0.6,2.1-0.9,3.8,0,5.8
			c0.4,0.9,0.7,1.5,1.1,2.4C59.5,51.6,59.9,53.4,59.7,53.9z M55.5,39c-0.2-0.4-0.2-0.5,0-0.9c0.6-1.3,0.9-0.8,1.2-0.7
			c0.7,0.2,1.1-0.7,0.6,1.5c-0.2,0-0.3,0-0.5-0.1l-0.2,0.6c-0.3,0-0.5-0.1-0.7-0.3c0.1-0.8,0.7-0.8,0.5-1.5l0.1-0.2
			c-0.3,0.2-0.1-0.1-0.5,0.8C55.9,38.6,55.8,38.9,55.5,39z M63.7,35.4c-0.2-0.2-0.2-0.1-0.3-0.2c-0.3-0.2,0,0.1-0.2-0.3
			c1.4-0.2,1.4,0.1,1.8,0.8l1.2,1.4c0.8,1.1,0.6,0.3,0.8,1.1c-0.8-0.3-1.3-0.9-1.5-1.5c-0.1-0.3-0.2-0.4-0.2-0.8c0,0-0.1,0-0.1,0.1
			l-0.4,0.2c-0.2,0-0.2,0-0.4,0C64,36.1,64,36,63.6,36.1c0,0-0.1,0.1-0.1,0h-0.1l1.8,0.8c-0.2,0.3-0.5,0.3-0.5,0.3h-0.1
			c0.2,0.3,0.5,0.7,0.7,0.9c0.3,0.3,0.5,0.5,0.6,0.9c-1.2-0.4-3.1-1.4-4-2c0.1-1.2,1.2-1.3,1.5-1.5L63.7,35.4z M62.5,34.8
			c0,0.3-0.7,2.3-1.6,2.5c-1.2,0.3-0.7,0.4-1.3,0.8c-0.5,0.3-0.4,0-0.9,0.1c-0.5,0.1-0.3,0.3-0.9,0.3c0.2-1.2,1.5-0.6,2-1.3
			c-0.3-0.2-0.4-0.1-0.4-0.1c-0.9,0-1.3,0.7-2-0.5c-0.1-0.1-0.1-0.2-0.2-0.3C57,36,57,36.1,56.8,35.7c-0.3-0.9-0.4-1.5-0.2-2.3
			c0.3,0.6,0,2,1.3,3.4c0.5,0.6,1.1,0.1,2.3-0.3c0.5-0.1,0.5-0.1,0.7-0.5l-1.5,0.2c0.2-0.5,0.3-0.6,1-0.7
			C61.9,35.2,59.7,35.2,62.5,34.8z M224.9,115.8c1.1-0.2,0.9-1.5,1.4-2.1c0.6-0.6,1.7-0.5,1.7-1.7c-0.5,0.4-0.5,0.8-1.4,1
			c-0.6,0.1-1.5,0-1.9,0.4c0.4,0.2,1.1,0.1,1.5,0.1c-0.4,1.1-2.2,0.6-2.6,1.2c0.4,0.2,1.3,0.1,1.9,0c-0.2,0.2-0.1,0.3-0.7,0.3
			c-0.5,0-1.3,0-1.5,0.4l1.8-0.2L224.9,115.8z M4.1,100.9c0.4,0.1,1.1,0.1,1.6,0.2c0.9,0.2,0.5,0.6,1.3,0.7
			c-0.1-0.6-0.2-0.2-0.3-0.8c2.1-0.1,2.6,1,3.2,0.9c0.5-0.1,0.3-0.6,0.3-1.2c-0.7,0.1-0.9,0.5-1.4,0.4c-1.3-0.3-0.3-0.5-3-0.5
			c-0.7,0-1.1-0.2-1.6-0.2C4.1,100.5,4.1,100.9,4.1,100.9z M20.6,25.1L20,25.2c0,0.4,0.1,0.7,0.3,1c0.5-0.5,0.2-0.4,0-0.8
			c0.5,0.1,0.3,0.2,0.6,0c0.2-0.6,0.3-0.5-0.1-0.9C20.9,24.6,20.6,25.1,20.6,25.1z M122.2,133.1c1,0.2,1.3,0.6,2.6,0.5
			c1.3,0,1.7-0.6,2.2-0.9c-0.2,1.8-2.9,1.6-4.3,0.8C122.3,133.3,122.5,133.4,122.2,133.1z M40.7,73.3c-0.1,0.1,0.1,0-0.3,0.2
			c-0.7,0.4-1.6-0.1-1.8-0.9l0.8-0.3c-0.2-0.4-0.3-0.4-0.5-0.6c-0.5,0.5-0.5,0.3-1.2,0.5c0.1,0.3,0.1,0.2,0.3,0.4
			c0.2,0.2,0.1,0.1,0.4,0.4c0.2,0.3,0.5,0.5,0.8,0.7c0.9,0.7,1.4,0.2,2-0.2c-0.1-0.5-0.3-0.5-0.6-0.8c-0.5-0.4-0.1-0.2-0.3-0.9
			c-0.4-0.2-0.5-0.3-1.1-0.2c0.2,0.4,0.1,0.2,0.4,0.5c0.6,0.5,0.2,0.2,0.2,0.4c0,0.1-0.3,0.1,0.2,0.4C40.5,73.2,40.4,72.9,40.7,73.3
			z M38,66.8c-0.2,0.4-0.2,0.2-0.4,0.6c0.2,0.4,0.9,1.3,1.6,0.9c-0.3-0.7-1.1-0.1-1.3-0.9c0.4-0.1,0.9-0.2,1.3-0.1l0.2,0.8
			c0.9-0.6,0.2-1.2-0.8-1.3c-0.9,0-0.5,0-1.1-0.5c-0.3-0.2-0.6-0.5-1-0.7C36.7,66.5,37.3,66.7,38,66.8z M8.7,62.3
			c0.1,0.5,0.7,0.2,1.4,0.6c-0.4,0.8-1.3,0.5-2,0.4c0.1,0.1,0.2,0.2,0.6,0.3c0.7,0.2,1.6,0.1,2-0.6C10.5,62.6,9.4,61.9,8.7,62.3z
			 M207.6,90.5c-0.2-0.3-0.5-0.3-0.9-0.5s-0.7-0.2-0.8,0.3l0.7,0.2c-0.5,0.5-0.6,0-0.8,0.7c0.4,0.3,1,0.3,1.1,0
			C207.2,90.6,206.7,90.7,207.6,90.5z M212,111.9c0.3-0.2,0.3-0.4,0.6-0.7c0.4,0.3,0,0.3,0.5,0.4c0-0.1-0.7-1.4-1.2-1.4
			c-0.3,0.4-0.2,0.5,0,1C212,111.5,211.9,111.7,212,111.9L212,111.9z M28.6,38.5c0.2,0.1,0,0,0.2,0.1c0.3,0.2-0.1,0,0.3,0.2
			c0.2-0.3,0.1-0.4,0.3-0.6c-0.2-0.3,0.1-0.3-0.4-0.2c0,0-0.4,0.1-0.4,0.2V38.5z M227.2,92.2c-0.1-0.4-0.5-0.6-0.9-0.8l0.3,0.9
			L227.2,92.2z M10.5,100.1v0.6c0.6-0.1,0.8-0.1,0.8-0.7C10.9,99.8,10.7,99.8,10.5,100.1z M6.8,24.8l3.5-0.3c0.3,0.4,1,1.9,1.1,2.3
			c-0.3,0.4-1.1,0.8-1.5,1.1c-0.4,0.2-1.3,1-1.6,1c-0.8,0.1-0.7-0.2-1.1-1.6C6.8,26.5,6.7,25.7,6.8,24.8z M11.4,23.8
			c0.2-0.3,2-1.5,2.2-1.5C13.4,23.4,12.6,23.8,11.4,23.8z M13.1,21.4c0.2,0.2,0.3,0.1,0.5,0.2c-0.2,0.3-2.3,1.4-2.7,1.6v0.7
			c-1.1,0.3-2.7,0.3-3.9,0.4l0.6-2.1l4.5-0.5c0-0.1,0,0-0.1-0.3c0.6-0.2,1-0.6,1.4-0.7C13.4,21.3,13.4,20.9,13.1,21.4z M7.9,21.6
			c0-2.5,0.1-2.2,1.3-1.8c0.6,0.2,2.3,0.5,2.7,0.8c-0.7,0.2-2.1-0.4-2.5-0.2c0.5,0.5,1.4,0.1,1.9,0.9l-1.6,0.6
			C9.1,21.9,8.3,21.7,7.9,21.6z M23.9,21.9c0.2-0.7,0.7-0.8,1.2-1.2c0.2-0.2,0.1-0.2,0.4-0.4c0.4-0.3,1.3-1.3,1.6-1.3
			C26.3,21.1,26.2,21.5,23.9,21.9z M15.1,20c-0.3-0.2-1-1.2-1-1.5C14.9,18.3,15.6,19.2,15.1,20z M17.2,20c0.5-0.6,4.8-0.8,5.9-1.1
			c0.9-0.3,1.6-0.7,2.3-1.2c0.4-0.2,0.8-0.4,1.1-0.7c0.1-0.1,0.3-0.3,0.3-0.5c0.2-0.6,0-0.4,0.3-0.7c0.1,0.6-0.2,1.3-0.2,2.1
			c-0.1,0.8-0.4,1.1-0.9,1.4c-1.1,0.8-4.1,3.2-5.4,2.9c-0.6-0.1-2.9-0.7-3.2-1c1.3-0.1,2.4,0.8,3.9,0.5c0.7-0.1,2.7-1.3,3-1.5
			c-0.4-0.2-2.7,0.8-3.3,1.1c-0.1,0-0.4,0.2-0.6,0.2c-0.3,0.1-0.4,0-0.6-0.1c0.9-0.5,2.1-0.8,2.8-1.3c-1.1,0-2,0.9-3.4,0.8
			c-0.1-0.3,0.3-0.1-0.3-0.4l-1.3-0.3l-0.3-0.1C17.5,20.2,17.2,20,17.2,20z M13.3,19.2c-1.9,0.6-3.3,0.2-4.9-0.6
			c-0.5-0.2-0.7-0.3-0.7-0.9c0-0.4-0.1-1.2,0.1-1.4c0.1-0.2,0.7-0.4,1-0.5c0.4,0,0.8,0.1,1.1,0.3c-0.2,0.5-1,1.2-1.5,1.7
			c1.1,0,3.2-1.3,4-0.4c-0.6,0.5-1.6,0.4-2,1c0.2,0.2,2.2,0.2,2.5,0c-0.2-0.4-0.3-0.1-0.6-0.3c0.5-0.2,1.8-0.7,2.2-0.2
			c-0.4,0.2-0.7,0-1,0.3C13.3,18.4,13.4,18.8,13.3,19.2z M9.1,15c0.1-0.2-0.1-0.2,0.6-0.5c1.4-0.5,1.7-0.1,3,0.7l1.1,0.7l-3.6-0.7
			c0.4-0.2,0.7,0.1,1.1-0.2c-0.2-0.1,0.1,0-0.2-0.1c-0.2,0-0.1,0-0.3,0c-0.2,0-0.4,0.1-0.6,0.1C9.8,15,9.4,15,9.1,15z M17.3,8.7
			c0.5-1.1,0.2-0.3,0-1.4c0.4,0.2,0.6,1,0.8,1.3c0.8,1.6,2.2,2,3.7,2.6c-0.1,0.4-0.1,0.2-0.3,0.6c0.6-0.1,1-0.3,1.4-0.5
			c-0.1,0.2-0.2,0.2-0.2,0.3v0.1c0,0,0,0,0,0.1l1.6-0.3c-0.2,0.2-0.1,0.3-0.6,0.4c-0.5,0.2-1.2,0.2-1.5,0.6c0.6,0.3,2.2-0.7,3-0.4
			c0.1,0.5,0.1,0.5-0.4,0.7c-0.7,0.3-2,0.3-2.2,0.8c0.8,0.1,2.3-0.4,3.4,1c-0.1,0.1,0.1,0.4-0.4,0.1c-0.1,0-0.3-0.5-1-0.7
			c-0.7-0.2-1.2,0-1.8,0.1c-1,0.1-3.4-0.4-4,0c0.5,0.2,3.1,0.9,3.8,0.8c0.7,0,2.7-1.2,3.1,0.6c-0.6,0.8-1.8,0.3-2.9,0.1l-2.3-0.4
			c-0.1,0-0.3-0.1-0.4-0.1h-0.2h-0.1l0.4,0.2c0.1,0,0.3,0.1,0.4,0.1c0.6,0.1,2.1,0.4,2.4,0.6c-1.2,0.1-2.4-0.3-3.4-0.8
			c0.6,1.1,3,1.2,4.3,1.1c-0.2,0.3,0,0.1-0.3,0.3c-0.1,0.1-0.2,0.1-0.3,0.2c-2.3,1.2-3.4-0.2-4.5-0.5c0.8,1.1,1.3,0.3,1.4,1.5
			c-0.9,0-1.4-0.4-2.3-0.1l-0.2,0.7c-0.4-0.5-0.9-0.7-1.2-1.3c0.4,0.1,0.6,0.4,1,0.6c-0.4-1.1-0.2-0.9-0.6-1.1
			c-0.4-0.2-0.7-0.3-1-0.7c0.7,0,2.2,1.2,2.6,0.9c-0.3-0.3-0.7-0.5-1-0.7c-0.5-0.3-0.6-0.5-1-0.8c-1.7-1.6-3.2-2.4-5.2-3.6
			c-0.8-0.2-1-0.2-1.1-0.6c0.2-0.1,0.2,0,0.4-0.1h0.1H11l0.2-0.1c-0.5-0.2-1.2-0.1-1.6-0.2c0.1-0.4,0-0.2,1-0.5
			c0.4-0.1,0.7-0.2,1.2-0.2c0.6-0.1,2.1,0.2,2.4,0c-0.2-0.4-1-0.9-1.3-1.6c0.6,0.2,0.1,0,0.5,0.3c0.9,0.8,0.9,0.7,1.5,0.7l-1.2-1.1
			c0.7,0.3,1,0.5,1.8,0.7c0.8,0.2,1.5,0.3,2.3,0.3C17.5,8.8,17.5,8.9,17.3,8.7z"/>
	</g>
</g>
</svg>
