<?xml version="1.0" encoding="utf-8"?>
<!-- Generator: Adobe Illustrator 24.0.2, SVG Export Plug-In . SVG Version: 6.00 Build 0)  -->
<svg version="1.1" id="Слой_1" xmlns="http://www.w3.org/2000/svg" xmlns:xlink="http://www.w3.org/1999/xlink" x="0px" y="0px"
	 viewBox="0 0 238.1 150.2" style="enable-background:new 0 0 238.1 150.2;" xml:space="preserve">
<g>
	<path d="M137.7,92.4c0.5-0.6,1-1.3,1.5-1.9c-1.7-1.3-3.7-1.4-6.5-0.4c0.2,0.7,0.4,1.4,0.6,2.1c0.4,1.4,0.7,2.7,0.4,4.2
		c-0.4,1.6,0.2,3.2,0.4,4.8c0.1,1,0.2,1.9,0.4,2.9c-0.5,0.2-0.8,0-0.9-0.4c-0.3-1.1-0.5-2.2-0.7-3.4c-0.1,0.2-0.3,0.4-0.4,0.5
		c-0.9,1.4-2.3,2.3-3.8,2.9c-0.6,0.3-1.3,0.5-1.9,0.7c-1.3,0.5-2.6,0.3-3.8-0.5c-2.3-1.4-4.6-2.9-7-4.1c-2.6-1.3-4.4-3.2-5.5-5.8
		c-0.7-1.8-1.4-3.6-2.1-5.3c-0.1-0.3-0.2-0.6-0.2-1c0.1-0.9-0.2-1.6-0.7-2.2c-0.8-0.9-0.6-1.9,0-2.8c0.3-0.4,0.4-0.8,0.7-1.2
		c0.1-0.2,0.3-0.4,0.5-0.4c1.1-0.3,2.2-0.7,2.8-1.8c0.3-0.5,1-0.8,1.6-1.3c-1.9-0.9-3.8-1.8-5.7-2.7c-3.7-1.7-7.4-3.3-11-5
		c-0.7-0.3-1.5-0.6-1.8-1.6c-0.3-0.9,0.1-1.6,0.5-2.2c0.6-0.8,1.4-1.4,2.5-1.7c1-0.3,1.9-0.2,2.8,0.3c3.2,1.6,6.5,3.1,9.8,4.6
		c2.1,1,4.1,2.1,6.4,3.2c0-1.2,0-2.2,0-3.2c0-0.3-0.1-0.6-0.1-0.8c0.2-1.8,0.1-1.8,1.8-2.3c0.8-0.2,1.5-0.6,2.3-0.9
		c0.2-0.1,0.4-0.1,0.6,0c1.2,0.4,2.4,0.5,3.6,0.3c0.7-0.1,1.5,0.2,2.4,0.4c-0.1-0.3-0.1-0.7-0.2-0.8c-0.8-0.8-1-1.7-0.7-2.8
		c0.6-2.7,1-5.3,1.6-8c0.1-0.5,0.5-0.9,0.8-1.2c0.7-0.8,1-1.8,0.8-2.8c-0.2-1.1,0-1.9,1.1-2.4c-0.5-0.4-0.8-0.8-1.2-1.1
		c-0.3-0.3-0.6-0.5-0.2-1c0.4-0.5,0.7-1.2,1-1.8c-0.5-0.3-0.9-0.3-1.4,0.1c-1,1.1-2.2,1.3-3.5,0.8c-0.7-0.3-1.3-0.4-2.1-0.6
		c-0.3,2.3-0.5,4.6-0.8,6.9c-0.1,0-0.1,0-0.2,0c-1.1-1.8-2.3-3.6-3-5.6c0.9,1.5,1.9,3.1,2.8,4.6c0.1,0,0.1,0,0.2-0.1
		c-0.1-0.3-0.1-0.7-0.3-1c-0.7-1-1.4-2.1-2-3.1c-0.3-0.4-0.6-0.9-0.9-1.4c0,0-0.1,0-0.1,0.1c0,0.1,0.1,0.3,0.1,0.4
		c-0.4-0.7-0.9-1.4-1.4-2.3c-0.3,1.5-0.6,2.8-0.8,4.2c-0.1,0-0.2,0-0.2,0c-0.4-1.3-0.8-2.7-1.2-4.1c-1.2,1.1-2.3,2-3.4,3
		c0,0-0.1-0.1-0.1-0.1c0.1-0.2,0.1-0.4,0.3-0.5c1.2-0.6,1.2-1.7,1.2-2.7c0-0.5,0-1,0-1.7c-0.4,1.5-0.7,2.8-1,4.1c-0.1,0-0.1,0-0.2,0
		c0.3-2,1.1-3.9,0.6-5.9c-0.1,0-0.1,0-0.2,0c0,0.3,0,0.6,0.1,1c0,0.3,0,0.7,0,1.2c-0.7-1.2-1.3-2.4-2-3.6c-1,2.3-0.7,4.6-1.1,6.8
		c-2-2.7-3.4-5.7-3.9-9.3c-1.9,1.6-3.6,3-5.4,4.4c-0.1,0-0.1-0.1-0.2-0.1c2-2.9,3.2-6.1,3.6-9.7c-1.6,0.2-3.1,0.3-4.8,0.5
		c0.7-0.6,1.2-1.2,1.9-1.6c1.2-0.8,1.9-2,2.4-3.3c0.1-0.3,0.1-0.7,0-1c-0.4-1.5-0.8-3.1-1.2-4.6c-0.2-0.6,0-1.1,0.5-1.4
		c1.9-1.2,3.8-2.6,5.8-3.7c0.7-0.4,1.1-0.8,1.2-1.6c0.1-0.6,0.2-1.2,0.3-1.9c0.1-0.6,0.3-0.8,0.9-0.8c1.1,0,2.1-0.2,3.2-0.3
		c0.2,0,0.4-0.2,0.6-0.4c0.4-0.3,0.9-0.6,1.3-0.9c0.9-0.5,1.2-0.4,1.9,0.3c0.9-0.5,1.8-1,2.7-1.3c0.7-0.3,1.5-0.9,2.3-0.1
		c0.1,0.1,0.3,0,0.5-0.1c1.3-0.2,2.6-0.4,3.9-0.6c1-0.2,1.9,0.2,2.8,0.6c1.8,0.7,3.6,1.4,5.4,2c0.1,0,0.3,0.1,0.4,0.1
		c2-0.5,4.2-0.6,5.5-2.6c0.4-0.6,0.7-1.1,1.1-1.8c0.2,3-0.3,5.7-1.7,8.3c2.7,0.7,5.3,0.9,7.9,0.9c0,0.1,0,0.1,0.1,0.2
		c-1.6,0.7-3.2,1.4-4.9,2.2c1.9,0.6,3.6,1.2,5.3,1.8c0,0.1,0,0.2,0,0.3c-1.2,0.4-2.4,0.9-3.8,1.4c1.1,0.7,2,1.4,3,2.1
		c0.4-1.2,0.7-2.2,1-3.3c0.1,0,0.1,0,0.2,0.1c-0.3,1-0.6,2.1-0.9,3.2c0.4,0.2,0.9,0.4,1.3,0.5c0.9-2,1.9-3.8,2.8-5.7
		c0.1,0,0.2,0,0.3,0c0,1,0.1,2,0.1,3c0.1,1,0.1,2,0.3,3c0.7-0.6,1-1.7,2.1-2c-0.1,0.4-0.1,0.6-0.2,0.9c1.8-1.6,3.6-2.7,5.7-3.5
		c0.1,0.1,0.2,0.1,0.2,0.2c-0.6,1.4-1.3,2.7-1.9,4.1c1.2-0.5,2.4-0.9,3.6-1.4c0.1,0.1,0.1,0.2,0.2,0.3c-0.6,0.5-1.2,1.1-1.9,1.7
		c2.7-1.2,5.3-2.2,7.9-3.3c-1.5,2.4-3.6,4.2-5.9,5.9c1.6,0.2,3.1,0.4,4.5,0.6c0,0.1,0,0.1,0,0.2c-0.2,0.1-0.4,0.2-0.8,0.4
		c1.8,0.4,3.5,0.5,5.2,0.5c1.7,0,3.4-0.2,5.1-0.9c-1.9,0.8-3.8,1.5-5.8,1.7c-2,0.2-4,0-6,0c1.4,1.2,3.2,1.8,5.1,2.6
		c-1,0.4-1.9,0.7-2.8,1.1c0,0.1,0,0.1,0,0.2c0.9,0.1,1.8,0.2,2.7,0.4c2.5,0.5,5.1,1,7.6,1.4c0.3,0.1,0.6,0,0.9,0c0.7,0,1.4,0,2,0.2
		c1.7,0.5,3.4,1.1,5.2,1.7c1.3,0.4,2.6,0.8,3.9,1.2c2.1,0.6,4.2,1.1,6.3,1.7c0.3,0.1,0.7,0,1,0c0.2,0.1,0.4,0.3,0.6,0.3
		c0.7,0.2,1.4,0.3,2.1,0.4c1.9,0.4,3.7,0.9,5.6,1.4c0.2,0,0.6-0.1,0.7-0.3c0.6-0.6,1.1-1.3,1.6-1.9c0,0,0.1,0.1,0.1,0.1
		c-0.5,0.7-1.1,1.5-1.7,2.3c2.3,0.4,4.5,0.8,6.7,1.2c0,0.1,0,0.2,0,0.3c-2.2-0.4-4.5-0.7-6.8-1.1c0.1,0.4,0.2,0.7,0.2,0.9
		c0.4,2.1,0.7,4.3,1.1,6.5c0,0.1-0.1,0.2-0.1,0.3c-1.5,1.7-3,3.3-4.5,5c-0.5,0.6-1.1,1.2-1.7,1.9c1.6,0.2,3,0.4,4.4,0.6
		c0,0.1,0,0.1,0,0.2c-1.7-0.2-3.3-0.4-5-0.6c0,0,0,0.1,0,0.2c-0.3,2.9-0.5,5.8-1.8,8.6c-0.1,0.3-0.3,0.6-0.6,0.8
		c-2.7,2.8-5.4,5.5-8.1,8.3c-0.7,0.7-1.3,1.5-2.1,2.5c0.8-0.3,1.4-0.5,2-0.7c2.3-0.7,4.6-1.4,6.9-2.1c1.4-0.4,2.9-0.9,4.3-1.4
		c0.8-0.3,1.6-0.6,2.3-1.1c1.3-0.9,2.6-1.9,3.5-3.4c0.9-1.3,1.6-2.7,2.1-4.2c1-2.9,1.9-5.8,3.8-8.3c1-1.3,2.1-2.5,3.1-3.8
		c-0.2,0.4-0.3,0.9-0.6,1.2c-2.8,2.8-4.6,6.3-5.7,10c-1,3.1-2.3,5.8-4.9,7.9c-0.1,0.1-0.1,0.1-0.2,0.2c0.6,0,1.2-0.2,1.7-0.4
		c2.7-1.2,4.9-3,7.1-4.8c1.4-1.1,2.5-2.4,3.2-4.1c2.2-4.7,4.6-9.3,6.8-13.9c1.8-3.8,3.4-7.8,4.5-11.9c0.2-0.8,0.1-1.6,0.2-2.4
		c-0.1,0-0.1,0-0.2-0.1c-0.3,0.2-0.5,0.5-0.8,0.7c0.1-0.3,0.3-0.5,0.5-0.7c0.4-0.3,0.6-0.6,0.4-1.1c-0.2-0.5-0.6-0.5-1.1-0.4l0,0
		c-0.2-0.1-0.4-0.2-0.6-0.2c-0.9,0-1.7,0-2.6,0.1c-0.9,0.1-2-0.2-2.8,0.5c0-0.1,0.1-0.3,0.1-0.5c-0.6,0-1.1,0.1-1.7,0.1
		c0.5,1.1,0.5,1.1,1.3,0.4c0,0,0.1,0,0.2-0.1c-0.2,0.2-0.3,0.5-0.5,0.7c-0.9,1-1.8,2-2.7,3c0,0.1,0.1,0.1,0.1,0.2
		c2.2-0.3,4.4-0.7,6.6-1c0.2,1.2,0.4,2.4,0.5,3.5c1.1-0.8,1-1.8,0.7-2.9c0.1,0,0.2,0,0.2,0c0.1,0.3,0.2,0.7,0.3,1.1
		c0.2-0.3,0.4-0.6,0.6-0.9c0.1,0,0.1,0.1,0.2,0.1c-0.8,1.1-1.5,2.3-2.3,3.4c-0.2-1.3-0.4-2.7-0.6-4.1c-1.9,0.3-3.7,0.6-5.5,0.8
		c-1.4,0.2-1.4,0.2-0.8,1.5c0,0,0.1,0.1,0.1,0.1c1.3-0.1,2.5-0.2,3.8-0.3c0,0.1,0,0.2,0,0.2c-1.2,0.1-2.4,0.3-3.7,0.4
		c0.1,0.4,0.3,0.8,0.4,1.1c0,0-0.1,0-0.1,0.1c-0.4-0.8-0.7-1.5-1.2-2.4c-1.3,1.8-2.1,3.6-3.8,4.9c0.1-0.3,0.2-0.5,0.4-0.7
		c0.9-1.3,1.8-2.6,2.8-3.9c0.3-0.5,0.5-0.9,0.2-1.4c0.2,0.1,0.4,0.2,0.6,0.3c0.7-0.9,1.5-1.8,2.2-2.8c0.3-0.5-0.1-1.6-0.7-1.5
		c-1.2,0.1-2.5,0.3-3.9,0.5c0.3,0.5,0.5,0.7,0.6,1c0.4,0.8,0.8,1.6,1.2,2.4c-0.5-0.8-0.9-1.6-1.4-2.3c-0.5-0.9-0.8-1-1.8-0.6
		c-0.4,0.2-0.5,0.3-0.2,0.7c0.8,1.1,1.2,2.6,3,2.5c0,0,0.1,0.1,0.1,0.1c0,0.1,0,0.1,0,0.2c-1.7-0.3-3.4-0.6-5.1-0.9
		c-0.4-0.1-0.6-0.4-1-0.6c-0.2-0.1-0.5-0.3-0.8-0.2c-1.4,0.4-2.9,0.8-4.3,1.3c-2.2,0.8-4.4,1.7-6.7,2.5c-0.5,0.2-1,0.3-1.4,0.4
		c1.7-1.5,3.7-2.5,5.9-2.9c2.5-0.5,4.9-1.4,7.2-2.2c2.9-1.1,5.9-2.1,9-2.3c2.1-0.1,4.2,0,6.4-0.1c0.5,0,1-0.1,1.5-0.1
		c1-0.1,1.5,0.6,1.6,1.6c0.1,2.1-0.5,4.1-1,6.1c-0.5,1.6-1.2,3.2-1.9,4.7c-1.6,3.7-3.2,7.3-4.8,10.9c-1.1,2.4-2.4,4.8-3.5,7.2
		c-0.7,1.6-1.8,2.9-3.2,4c-1.4,1-2.6,2.2-4,3.1c-1.3,0.9-2.8,1.8-4.2,2.5c-0.8,0.4-1.7,0.5-2.6,0.8c-2.2,0.7-4.3,1.6-6.5,2.3
		c-1.6,0.6-3.3,1-4.9,1.5c-1.6,0.5-3.2,1-4.7,1.6c-0.1,0-0.2,0.1-0.3,0.2c-1.4,1.7-2.9,3.4-4.3,5.1c-0.3,0.4-0.4,0.9,0.3,1.2
		c-0.2,0.1-0.3,0.2-0.5,0.3c0-0.3-0.1-0.6-0.1-1.1c-1.3,1.5-2.4,2.8-3.6,4.2c0.9,0.4,1.7,0.7,2.6,1.1c0.2,0.1,0.3,0.3,0.4,0.5
		c-0.2,0-0.5,0.1-0.6,0c-0.8-0.3-1.6-0.7-2.4-1c-0.3-0.1-0.6,0.2-1,0.2c0.2,0.2,0.3,0.4,0.5,0.6c0.2,0.2,0.5,0.4,0.8,0.6
		c-1.4-0.8-2.7-0.3-4.1,0c-2.5,0.6-5,1.2-7.5,1.9c-0.2,0.1-0.4,0.2-0.7,0.3c0,0.1,0,0.2,0,0.2c0.4,0,0.9,0,1.3-0.1
		c1.8-0.7,3.7-0.9,5.6-1.2c0.9-0.1,1.7-0.3,2.6-0.6c0.8-0.2,1.7-0.2,2.2,0.5c0.5,0.6,0.6,1.4,0.3,2.2c-0.3,0.9-0.5,1.9-0.6,2.9
		c0.8-0.5,1.2-1.3,1.5-2.1c0.3-0.8,0.5-1.7,0.8-2.6c0.1,1.6-0.4,3-1.3,4.3c-0.3,0.4-0.3,0.7-0.1,1.1c0.3,0.7,0.5,1.4,0.8,2.2
		c0.3-0.1,0.6-0.2,0.9-0.2c0.3,0,0.7,0.1,0.8,0.3c0.1,0.2,0.1,0.6-0.1,0.8c-0.6,0.7-1.3,1.4-0.6,2.5c10.1,4.8,19.6,11.2,29.6,16.7
		c-0.3,0.4-0.4,0.6-0.6,0.8c1,0.5,2,1,3,1.5c0.2,0.1,0.3,0.5,0.5,0.7c-0.3,0-0.5,0-0.8-0.1c-0.1,0-0.2-0.1-0.3-0.1
		c-1.1-0.6-1.1-0.6-1.9,0.4c-0.5-0.3-1.1-0.6-1.6-0.9c0.2-0.5,0.4-0.9,0.7-1.4c-0.4-0.1-0.7-0.3-1.1-0.5c0.2,1.6-0.9,0.7-1.6,0.8
		c0.9,0.8,1.6,1.5,2.5,2.3c-0.2,0.1-0.3,0.1-0.4,0.2c0,0,0,0,0,0c-0.7-0.5-1.5-0.6-2.4-0.4c-0.2,0.1-0.4,0.1-0.6,0.1
		c-0.5-0.1-0.9-0.2-1.4-0.3c-0.8-0.2-1.5-0.7-2.4-0.6c-0.9,0.1-2-0.4-2.8-0.9c-3.2-1.7-6.3-3.5-9.4-5.3c-0.9-0.5-1.9-1-2.9-1.5
		c-2.6-1.4-5.3-2.9-7.9-4.2c-5.9-3-11.8-5.9-17.6-8.9c-2-1-4-2.1-6-3.1c-0.5-0.2-1.1-0.3-1.6-0.4c0,0.1-0.1,0.2-0.1,0.3
		c5.8,2.9,11.6,5.9,17.4,8.9c-0.2,0.2-0.4,0.5-0.6,0.7c-2.1,1.2-4.2,2.5-6.6,2.9c-0.6,0.1-1.1,0.3-1.7,0.4c-0.2,0-0.5-0.2-0.5-0.4
		c0-0.5,0-1.1,0.1-1.6c0.1-0.3,0.4-0.5,0.6-0.6c0.5-0.3,1.1-0.4,1.6-0.7c0.9-0.5,1.1-1.2,0.8-2.1c-0.6-1.7-2-2.4-3.6-2.6
		c-0.9-0.1-1.9,0.3-2.7,0.8c-0.5,0.2-0.7,0.2-1-0.1c-1.8-1.1-3.6-2.1-5.4-3.2c-0.2-0.1-0.4-0.2-0.8-0.3c0.1,0.4,0.1,0.5,0.2,0.7
		c0.9,1.7,1.7,3.4,2.7,5.1c0.5,1,0.8,1.8,0,2.9c-0.4,0.6-0.4,1.4-0.6,2.1c-0.1,0.2-0.3,0.5-0.5,0.5c-1.2,0-2.3,0-3.5,0
		c-0.1-1.1,0-1.2,1.1-1.2c1.9,0.1,3-1.5,2.3-3.3c-0.6-1.6-1.6-2.9-3.3-3.5c-1.5-0.5-1.9-1.8-2.5-3c-0.4-0.7-0.7-1.5-0.8-2.4
		c-0.2-0.9-0.8-1.2-1.4-1.6c-0.3-0.2-0.5-0.4-0.9-0.7c-1.2,0.1-1.2,0.1-1.9-1c0.7,0.7,1.5,0.9,2.4,0.7c0.4,0.9,2.1,1.8,2.9,1.4
		c0.9-0.4,1.7-0.3,2.6,0.1c-0.8,0-1.7,0.1-2.6,0.1c1,1.3,2.8,1.5,4,0.6c0.8-0.5,1.8-0.7,2.6-1.2c2.2-1.4,4.4-2.8,6.5-4.3
		c1-0.7,1.8-1.7,2.8-2.4c1-0.7,2.1-1.1,3.2-1.7c-0.9-1-2.2-1.3-3.4-1.9c1.4,0,2.5,0.8,3.6,1.6c0.6,0.4,1.3,0.7,1.9,1
		c0.2,0.1,0.6-0.1,0.8-0.2c0.6-0.4,1.2-1,1.8-1.3c1-0.5,1.2-1.3,1.5-2.3c-2.2-0.5-4.3-1.1-6.2-2.2c2.4,0.7,4.9,1.4,7.3,2
		c1.1,0.3,2.2,0.6,2.9,1.7c0-0.8-0.2-1.4-1.1-1.7c-0.3-0.1-0.7-0.2-1-0.3c-2.3-0.7-4.5-1.4-6.8-2.1c-0.3-0.1-0.7-0.2-1-0.4
		c-0.7-0.4-0.7-0.9-0.1-1.4c0.6-0.5,1.2-0.9,1.8-1.3c1.9-1.3,3.9-2.5,5.9-3.8c2.5-1.7,5-3.4,7.5-5.1c2.2-1.4,4.4-2.7,6.6-4
		c1.8-1.1,3.2-2.5,3.9-4.6c-0.2,0-0.4,0-0.5,0.1c-2.3,0.9-4.7,1.7-7,2.8c-5,2.2-9.8,4.7-14.5,7.6c-0.3,0.2-0.6,0.2-1,0.4
		c0.3-1.3,0.6-2.2,1.9-2.7c3.4-1.4,6.8-2.8,10.2-4.4c1.5-0.7,2.9-1.7,4.3-2.6c1.1-0.7,2.2-1.5,3.2-2.2c0.9-0.7,1.7-1.4,2.6-2
		c0-0.1-0.1-0.1-0.1-0.2c-1.4,0.3-2.9,0.5-4.3,0.8c-0.1,0-0.2,0.1-0.3,0.2c-2,1.5-3.9,3-5.9,4.5c-2.9,2.3-6,4.3-9.6,5.3
		c-0.1,0-0.3,0-0.5,0c0.4-0.3,0.8-0.6,1.2-0.8c0.3-0.1,0.7-0.2,0.9-0.4c1.1-1.4,1.5-3.1,1.3-4.9c-0.1-1,0.4-1.8,1.5-1.9
		c2.4-0.4,4.6-1.1,6.8-2c0.3-0.1,0.6-0.3,0.9-0.4c-0.2-0.1-0.4-0.1-0.6-0.1c-2.7,0.7-5.4,1.4-8.1,2.2c-1.6,0.5-1.8,0.9-1.5,2.5
		c0.1,0.3,0.2,0.6,0.2,0.9c0,0.5,0.1,1.2-0.1,1.6c-0.4,0.9-0.9,1.7-1.4,2.5c0.4-0.8,0.7-1.6,1.1-2.4c0.2-0.5,0.3-0.9-0.4-1.2
		c-0.6-0.3-1.1-0.7-1.8-1.1c-0.7,0.2-2.8-0.8-4.1-2.1l0,0c0.2,0.1,0.5,0.1,0.7,0.2c0-0.2,0-0.4,0-0.6c-0.1-2.6,0-5.3-0.2-7.9
		c-0.2-2.5,0.5-4.6,2.1-6.5c0.4-0.5,0.7-1,1.1-1.7c-0.8,0.4-1.4,0.7-1.9,0.9c0.8-0.7,1.8-1.2,2.4-2c0.6-0.8,0.7-2,0.4-3.2
		c-0.6,0.9-1.1,1.8-1.7,2.6c-0.9,1.2-1.9,2.4-2.8,3.6c-0.2,0.2-0.4,0.6-0.4,0.8c0.1,1,0.3,2,0.5,3.1c0,0.1-0.1,0.1-0.2,0.3
		c0-1.1,0.1-2.2-1.2-2.6c-0.2,0.3-0.4,0.6-0.6,0.9c0.3,0.3,0.6,0.5,0.8,0.7c0,0-0.1,0.1-0.1,0.1c-0.3-0.2-0.6-0.4-1-0.7
		c-0.2,0.3-0.5,0.6-0.7,1c0.4,0.3,0.8,0.5,1.1,0.8c-0.5,0.5-0.6-0.3-0.9-0.3c-0.8-0.2-0.7-0.8-0.6-1.3c0.2-1.1,0.3-2.3,0.5-3.6
		c0.5,0.6,1,1.2,1.5,1.8c-0.4-0.3-0.9-0.7-1.4-1c-0.1,1.2-0.2,2.3-0.4,3.6c0.4-0.5,0.7-0.9,1-1.3c0.3-0.4,0.5-0.9,0.8-1.3
		c0.2-0.1,0.4-0.2,0.5-0.3c0.8-1,1.6-1.9,2.4-3c1-1.3,1.8-2.7,2.8-4.1c-0.4-0.1-0.7-0.1-1-0.2c0.3-0.1,0.5-0.2,0.8-0.4
		c-0.8-1.2-1.6-2.4-2.3-3.6c0,0,0.1-0.1,0.1-0.1c0.8,1.2,1.6,2.3,2.5,3.7c0.5-1,0.9-1.8,1.3-2.6c0.4-0.9,0.7-1.8,1-2.6
		c-0.5-0.8-1.2-0.9-2-1.1c-1.4-0.3-2.4-0.1-2.9,1.3c-0.1,0.3-0.4,0.5-0.6,0.8c-0.1-0.1-0.1-0.1-0.2-0.2c0.4-0.7,0.9-1.4,1.3-2.1
		c-0.1-0.1-0.2-0.1-0.2-0.1c-4.7-1.2-9.4-1.8-14.2-1.5c-2.1,0.1-4.4,0.1-6.2,1.5c-0.3,0.1-0.7,0.1-1,0.2c0,0,0,0,0-0.1
		c0.4-0.2,0.8-0.4,1.3-0.7c-1.1,0-2-0.1-3-0.1c0.2,0.2,0.3,0.4,0.4,0.5c1,1,1,1,2.2,0.2c-0.5,1-1.2,1.2-2.2,0.9
		c-1.7-0.5-3.4-1-5.1-1.5c-0.3,0.6-0.7,1.2-0.8,1.8c0,0.6,0.3,1.2,0.5,1.8c-0.3-0.2-0.7-0.3-1.2-0.6c-0.4,1.4-0.9,2.7-1.3,4.1
		c-1.1,1.7-1.9,3.5-1.3,5.6c0.1,0.4,0.1,0.9,0.2,1.1c0.3-0.2,0.7-0.5,0.9-0.7c0.9-0.8,1.8-1.6,2.6-2.5c0.2-0.2,0.2-0.5,0.4-0.8
		c0.5,0.1,0.5-0.2,0.5-0.5c0-0.7,0-1.3,0.1-2c0.1-0.6,0.2-1.1,0.3-1.7c0,1.1-0.1,2.2-0.2,3.3c-0.1,1,0.1,1.7,1.1,2.2
		c0.6,0.3,1.2,0.7,1.8,1.1c0,0.1-0.1,0.1-0.1,0.2c-0.8-0.6-1.7-1.1-2.6-1.7c-0.3-0.1-0.8-0.2-1-0.1c-1.2,1.1-2.4,2.3-3.6,3.5
		c-0.2,0.2-0.2,0.4-0.2,0.7c0.1,2.4,0.3,4.8,0.3,7.2c0,0.8,0.2,1.4,1,1.9c0.8,0.5,1.5,1.2,2.2,1.8c-0.1,0.1-0.1,0.1-0.2,0.2
		c-0.9-0.7-1.8-1.4-2.8-2.1c0.1,1.6,0.2,3.1,0.3,4.6c0.1,1,0.1,2.2,0.5,3.1c1.2,2.4,3.3,4.1,5.2,6c0.3-1.1,0.5-2.2,0.9-3.2
		c0.2-0.5,0.2-0.9-0.3-1.2l0,0c-0.1-0.2-0.2-0.4-0.4-0.6c-1.1-1.6-1.9-3.3-2.5-5.1c1.2,1.9,1.9,4.1,3.5,5.8c0.7-1.6,1.3-3.2,1.9-4.7
		c0.1,0,0.2,0.1,0.3,0.1c-0.4,1.2-0.9,2.3-1.3,3.5c-0.6,1.3-0.6,1.3,0.4,2.2c0.2,0.2,0.3,0.3,0.5,0.5c-0.5-0.3-1.1-0.6-1.6-1
		c-0.3,0.9-0.6,1.7-0.8,2.6c-0.1,0.6-0.5,1.2,0.2,1.8c2.1,1.8,4.2,3.6,6.3,5.5c0.3,0.3,0.8,0.5,1.2,0.8c0.1-1.1-0.2-1.8-1-2.3
		c-0.5-0.3-0.9-0.7-1.3-1.1c0.7,0.4,1.4,0.9,2.2,1.3c-0.1-1.1-0.2-2.3-0.3-3.4c0.1,0,0.2,0,0.3,0c0.2,1.7,0.4,3.4,0.5,5.1
		c0,0.6,0.2,0.8,0.7,1c0.4,0.2,0.7,0.4,1.1,0.5l0,0c1.2,0.6,2.4,1.2,3.5,1.8c0.8,0.4,1.3,0.2,1.9-0.3c-0.2-0.3-0.4-0.6-0.4-0.9
		c-0.3-1.7-0.6-3.4-0.9-5.1c0-0.3-0.2-0.6-0.4-0.7c-0.7-0.7-1.5-1.4-2.3-2.1c0,0,0.1-0.1,0.1-0.1c1.3,1.1,2.7,2.2,4,3.3
		c0,0,0,0.1-0.1,0.1c-0.4-0.2-0.7-0.4-1.2-0.7c0.3,1.7,0.5,3.2,0.7,4.8c0.7-0.4,1.2-0.7,1.8-1.1c-0.1-0.6-0.2-1.1-0.4-1.7
		c0.1,0,0.1,0,0.2,0c0.1,0.5,0.3,1,0.5,1.6c1.9-1.3,3.8-2.6,5.6-3.8c0-0.1-0.1-0.2-0.1-0.2c-1.9-0.3-3.6-1.4-5.2-2.4
		c-0.5-0.4-1.1-0.7-1.7-0.9c-0.7-0.2-1.2-0.5-1.6-1c-0.8-1-1.5-2.1-2.2-3.2c-0.2-0.2-0.2-0.5-0.4-0.8c0.6,0.3,0.5,1.3,1.5,1.1
		c-0.3-0.4-0.6-0.9-1-1.2c-1-0.6-2-1-3.1-1.5c-1.7-0.8-3.5-1.6-5.2-2.3c0-0.1,0.1-0.2,0.1-0.3c1,0.5,1.9,0.9,3.1,1.5
		c-1.1-2.1-1.3-4.7-4-5.5c1.3,0.4,2.5,0.9,2.9,2.4c0.3,1.1,0.8,2.1,1.3,3.1c0.1,0.1,0.2,0.2,0.3,0.3c1.1,0.5,2.2,0.9,3.3,1.4
		c0-0.1,0-0.2,0-0.2c-1.8-2.4-3.2-5.1-4-8c-0.1-0.3-0.1-0.8,0.1-1c1-1.5,2.1-2.9,3.1-4.4c0.1-0.1,0.2-0.3,0.2-0.5
		c0-0.8-0.1-1.7-0.1-2.5c-0.1-1.8-0.2-3.6-0.2-5.4c0.1,0,0.2,0,0.3,0c0.1,2.6,0.2,5.1,0.3,7.7c0.1,0,0.2,0,0.3,0
		c0.8-1.6,2.5-2.6,3-4.3c-0.1,2.5-0.3,5-0.4,7.6c0,0,0,0-0.1,0c0-2,0-4,0-6.2c-0.8,1.1-1.5,2-2.3,2.8c-0.4,0.4-0.4,0.7-0.3,1.2
		c0.4,1.3,0.7,2.7,1,4c-0.1,0-0.1,0-0.2,0c-0.4-1.4-0.8-2.9-1.2-4.5c-0.4,0.5-0.7,0.8-0.9,1.2c-0.5,0.7-0.9,1.6-1.5,2.2
		c-0.9,0.9-1,1.8-0.5,3c0.8,2.5,2.2,4.6,3.7,6.9c0.1-0.9,0.2-1.6,0.3-2.3c0-1,0.4-1.9,0.8-2.8c-0.3,1.6-0.6,3.2-0.9,4.8
		c-0.1,0.7,0.1,0.9,0.9,1c-0.5-1.1,0-2,0.2-3.1c0.2-1,0-2.1,0-3.3c-0.2,0.3-0.3,0.5-0.3,0.6c0.2-1.3,0.5-2.7,0.7-4
		c0-0.1,0.1-0.1,0.1-0.2c0,1.8,0,3.7,0,5.5c0.4-0.8,0.8-1.7,1-2.6c0.1-0.6,0-1.2-0.1-1.9c0-0.3-0.2-0.5-0.3-0.8c0.5,0.3,1,0.7,1.5,1
		c0,0.1-0.1,0.1-0.1,0.2c-0.3-0.2-0.5-0.4-0.9-0.7c0.1,0.9,0.1,1.5,0.2,2.2c0.1,0,0.2,0,0.3,0c0.1-0.4,0.2-0.7,0.3-1.1
		c0,0.1,0.1,0.1,0.1,0.2c0.6-0.5,1.1-1.1,1.8-1.8c-0.4,0.8-0.9,1.4-1.3,2c-0.9,1.1-1.4,2.5-2.1,3.7c-0.3,0.6-0.3,1.3-0.7,1.7
		c-0.4,0.5-0.5,1-0.3,1.6c0.2,0.6,0.4,1.2,0.7,1.7c0.4,0.8,0.8,1.6,1.3,2.4c-0.2-0.1-0.4-0.2-0.7-0.4c1.1,1.9,1.3,2,2.1,2
		c-0.5-0.6-1-1.1-1.5-1.7c0.5,0.4,0.9,0.8,1.3,1.1c-0.2-1.9-0.3-4-0.5-6c0.1,0,0.1,0,0.2,0c0.2,1.9,0.4,3.9,0.6,5.8
		c0.1,0.5,0.4,1.1,0.8,1.4c1.8,1,3.7,2,5.5,2.9c0.5,0.2,1.2,0.4,1.5-0.3c0.3-0.6,0.5-1.1,0.3-1.8c-0.3-0.9,0.2-1.3,1.4-1.2
		c-1.2,0.3-1.1,1-1.1,1.7c0,0.5-0.1,1.2-0.4,1.4c-1.6,1.3-3.3,2.6-5,3.8c-1.1,0.7-2.2,1.3-3.4,2c1.7,1,3.3,2,4.9,2.9
		c0,0.1-0.1,0.1-0.1,0.2c-1-0.6-2-1.1-2.9-1.6c-0.3-0.1-0.7-0.3-0.9-0.2c-1.2,0.5-2.3,1.1-3.5,1.7c1.8,1.6,3.5,3.1,5.2,4.5
		c-0.5-0.3-1-0.6-1.5-1c-0.5-0.4-1.1-0.8-1.5-1.3c-1-1.1-2.1-1-3.2-0.4c-0.2,0.1-0.6,0.1-0.8,0c-0.6-0.3-1.2-0.7-1.7-1.1
		c-1.3-1.4-2.8-1.9-4.6-2c-1-0.1-2,0.1-2.9,0c-0.5,0-1-0.2-1.5-0.4c-0.5-0.2-1-0.5-1.5-0.8c3,0.1,6-0.6,9.1-1.2
		c-0.2-0.2-0.3-0.3-0.5-0.3c-1.4-0.3-2.8-0.5-4.1,0.4c-1,0.7-2.2,0.5-3.2,0.8c0-0.1,0-0.1-0.1-0.2c1.5-1,3-2.1,4.5-3.1
		c0-0.1,0-0.2-0.1-0.3c-0.3,0-0.6-0.1-0.8,0.1c-1,0.6-2.1,1.2-3,1.8c-0.6,0.4-1.2,0.9-1.8,1.5c-0.1,0.1-0.1,0.4-0.1,0.6
		c-0.2,0-0.4,0-0.5,0.1c-0.7,0.6-1.3,0.2-1.9-0.2c-0.3-0.2-0.6-0.5-1-0.6c-0.3-0.1-0.8-0.1-1,0.1c-0.2,0.1-0.3,0.6-0.2,0.9
		c0.1,0.3,0.3,0.7,0.5,1c1,0.8,2,1.6,3.3,1.9c0.9,0.2,1.7,0.6,2.6,1c0.5,0.2,0.5,2.1,0.1,2.4c-0.8,0.7-1.6,1.5-2.5,2
		c-1.6,0.9-2.9,2.2-4.1,3.5C138.5,91.8,138.1,92.1,137.7,92.4C137.6,92.4,137.7,92.4,137.7,92.4z M99.6,68.6
		c-0.5-0.2-0.9-0.2-1.4,0.1c-0.1,0.1-0.3,0-0.5,0c-0.1,0-0.2,0-0.3,0c-0.1-0.1-0.3-0.3-0.3-0.3c0.2-0.4,1.3-0.7,1.7-0.5
		c0.1,0,0.2,0.1,0.3,0.1c0.6-0.1,1.5-1.3,1.5-2c-0.7-0.2-1.4-0.5-2.1-0.5c-1.5-0.1-2.5,1-3.5,1.9c-0.4,0.4-0.8,0.9-0.4,1.5
		c0.4,0.6,0.9,0.9,1.6,0.7c-0.4,0.4,0.1,0.4,0.3,0.5c2,0.9,3.9,1.7,5.9,2.6c1.8,0.8,3.6,1.6,5.4,2.5c2.3,1.1,4.6,2.4,7,3.5
		c3.4,1.6,6.8,3,10.2,4.6c1.3,0.6,2.5,1.3,3.8,1.9c0.2,0.1,0.5,0,0.6-0.2c0.2-0.2,0.4-0.6,0.6-0.9c0.1-0.1,0.2-0.4,0.3-0.4
		c1-0.3,2.1-0.5,3-0.8c0.2,0.8,0.4,1.7,0.6,2.7c0.4-0.2,0.9-0.5,1.3-0.7c0-0.1,0-0.1-0.1-0.2c-0.3,0.1-0.7,0.1-1,0.2
		c0.3-0.2,0.6-0.4,0.9-0.4c0.9-0.1,1-0.8,1.3-1.4c0.2-0.4,0.1-0.7-0.5-0.9c-2.8-1.2-5.7-2.4-8.5-3.7c-1.6-0.7-3.1-1.6-4.6-2.4
		c-2.1-1-4.3-1.9-6.5-2.9c-3.3-1.6-6.6-3.2-10-4.8c-1.7-0.8-3.5-1.6-5.1-2.3c-0.7,0.8-1.3,1.4-1.9,2C99.4,68.3,99.5,68.4,99.6,68.6
		L99.6,68.6z M175.7,36.7c-0.6-0.5-1.2-1-1.7-1.4c-0.6,1.5-1.1,2.9-1.7,4.5c0.8-0.5,1.5-0.8,2-1.3C174.8,38,175.2,37.3,175.7,36.7
		c0.6-0.4,1.1-0.9,1.7-1.3c0-0.1,0-0.1-0.1-0.2c-1.2-0.3-2.4-0.6-3.6-0.9c0.1,0.3,0.4,0.4,0.5,0.6C174.8,35.5,175.2,36.1,175.7,36.7
		z M130.4,44.1c0.5-0.8,1-1.6,1.6-2.4c0.7-0.8,0.8-1.5,0.2-2.4C131.3,40.9,130.5,42.3,130.4,44.1c-0.1,0.2-0.2,0.4-0.3,0.6
		c-0.3,0.6-0.5,1.2-0.8,1.8c0.1,0-0.1,0-0.2,0c0.1,0.3,0.4,0.5,0.5,0.7c0.6,0.7,1.1,1.4,1.6,2.1c0.2,0.2,0.4,0.6,0.5,0.6
		c0.4-0.1,0.8-0.4,1.1-0.7c0.1-0.1,0-0.6-0.1-0.8c-0.6-0.7-1.2-1.4-1.8-2.2c0.6-1,1.2-2.2,1.9-3.2c0.5-0.7,0.3-1.2,0-1.9
		c-0.4,0.5-0.7,1-1.1,1.4C131.3,43.2,130.8,43.6,130.4,44.1z M135.2,40.4c0.2-0.2,0.3-0.5,0.5-0.7c1.2-1.3,2.5-2.5,3.7-3.8
		c-1.1-1-1.3-1-2.3,0c-0.8,0.8-1.5,1.7-2.3,2.4c-0.9,0.9-0.5,1.9-0.7,3.1C134.7,40.9,135,40.6,135.2,40.4c-0.2,1.8-0.5,3.7-0.7,5.6
		c0.1,0,0.2,0,0.3,0.1c0.3-0.4,0.6-0.9,0.9-1.2c1.5-1.6,2.1-3.6,2.7-5.7c0.1-0.5,0-1,0-1.5c-0.1,0-0.2,0-0.3,0
		c-0.1,0.1-0.3,0.3-0.4,0.4C136.8,38.8,136,39.6,135.2,40.4z M125.9,90L125.9,90c-0.5-0.2-1.1-0.6-1.6-0.6c-1.6,0.2-2.9-0.2-4.4-0.7
		c-1.6-0.6-2.6-1.5-2.9-3.2c0-0.1-0.1-0.3-0.2-0.4c-0.7-1.5-0.7-2.9,0.5-4.1c-0.2,0.5-0.5,1-0.6,1.5c-0.1,0.4-0.1,0.9,0.1,1.3
		c0.3,0.6,0.8,1,1.3,1.5c-0.1,0.1-0.1,0.1-0.2,0.2c-0.3-0.5-0.6-0.9-1.1-1.5c0.5,2.6,3.3,4.9,5.2,4.4c-0.2-0.3-0.3-0.6-0.5-0.9
		c0.5,0.4,0.8,1.2,1.3,1.2c1.7,0.2,3.4,1.4,5.2,0.7c0.1-0.1,0.4,0,0.5,0c1.3,0.4,2.6-0.5,3.1-1.7c0.2-0.5,0.4-0.9,1-1.1
		c0.3-0.1,0.7-0.6,0.8-1c0.1-0.4,0-1-0.3-1.4c-0.1-0.2-0.7-0.3-1-0.3c-1.3,0.3-2.5,0.8-2.8,2.4c0,0.1-0.1,0.3-0.2,0.4
		c0,0-0.1,0-0.1,0c0-0.4,0.1-0.8,0.1-1.2c-0.6,0.2-1.2,0.4-1.9,0.6c0.8-1,0.7-1.2-0.3-1.7c-0.4-0.2-0.9-0.4-1.3-0.6
		c-2.4-1.1-4.8-2.3-7.2-3.4c-0.3-0.1-0.7-0.4-0.9,0.2c0-0.2,0-0.3,0-0.6c-1.8,1.9-2,2.1-1.7,4c-0.2-0.7-0.6-1.5-0.2-2.2
		c0.4-0.7,0.9-1.2,1.4-1.9c-1,0.8-1.9,1.6-2.8,2.5c-0.2,0.2-0.3,0.6-0.3,0.8c0.3,1.6,0.6,3.2,0.9,4.8c0.1,0,0.2,0,0.2,0
		c0.4-1.3,1-2.6,0.7-4c0.3,1.4,0.7,2.8,1,4.2c-0.1,0-0.1,0-0.2,0c-0.2-0.6-0.3-1.2-0.6-1.9c-0.4,1.1-0.7,2-1,2.9
		c-0.1,0-0.1-0.1-0.2-0.1c-0.4-1.5-0.8-2.9-1.2-4.4c-0.1,0.2-0.1,0.3-0.1,0.5c0,3.1,1.1,5.8,2.5,8.5c0.3,0.6,1,0.8,1.5,0.4
		c1-0.8,2.1-0.9,3.3-1.2c1-0.3,2.1-0.4,3.1-0.8c1.5-0.5,2.9-1.2,4.1-2.4C127.4,89.8,126.6,89.9,125.9,90z M131.6,62.9
		c-0.5-0.2-0.7,0-0.6,0.5c0.1,0.8,0.4,1.5,0.6,2.2c0.1,0.2,0.3,0.2,0.5,0.4c0.1-0.2,0.3-0.4,0.3-0.5c0-0.5-0.1-1.1-0.2-1.6
		c0.2,0,0.4,0,0.5,0c1.1-0.5,2.2-1,3.3-1.4c1.5-0.6,1.9-2.1,2.1-3.3c0.2-1.6-0.2-3.3-0.4-5.1c-0.2,0.2-0.3,0.3-0.4,0.5
		c-0.6,0.6-1.1,1.3-1.7,1.9c-0.3,0.3-0.8,0.5-0.9,0.1c-0.2-0.8-0.1-1.7,0-2.5c0-0.1,0.2-0.2,0.2-0.3c0.6-0.7,1.3-1.4,1.9-2.1
		c0.5-0.7,1.1-1.4,0.7-2.5c-1.8,2-2.8,4.4-4.1,6.6c-0.1-0.1-0.1-0.1-0.1-0.2c0-0.1,0-0.2,0.1-0.4c0.7-2.1,1.5-4,2.6-5.9
		c0.6-1,0.8-2.3,1.2-3.5c0-0.1-0.1-0.3-0.1-0.4c-0.1,0-0.2,0-0.3-0.1c-1,2.2-1.9,4.4-2.9,6.6c-0.3,0.7-0.7,1.4-1.1,2.1
		c-0.4,0.7-0.8,1.3-1.1,1.9c-1.3,2.3-1.8,4.8-1.6,7.4c0,0.8,0.4,1.6,0.6,2.4c0.1,0,0.2,0,0.3,0c0-0.3,0.1-0.6,0.1-0.9
		c-0.1-0.5-0.2-1-0.2-1.5c0-0.2,0.2-0.5,0.3-0.7C131.2,62.7,131.4,62.8,131.6,62.9z M175.2,95.9C175.2,95.9,175.3,95.9,175.2,95.9
		c-0.9-0.3-1.8-0.6-2.7-1c-0.7-0.3-1.6-0.1-2.2-0.9c-0.5-0.6-1.3-0.9-2.1-0.9c-0.5,0-1-0.1-1.5-0.3c-0.7-0.2-1,0-1.1,0.8
		c-1.7-0.2-3.4-0.5-5.1-0.7c-0.3,0-0.5,0-0.8,0c0,0.1,0,0.1,0,0.2c0.5,0.1,1,0.1,1.5,0.2c-0.3,0.1-0.7,0.2-1,0.1
		c-0.8-0.2-1.3,0.1-1.9,0.5c-1.2,0.9-2.4,1.7-3.6,2.4c-0.5,0.3-1.1,0.6-1.7,0.9c2.3,0.8,4.7,0.6,7,0.6c2.9,0.1,5.8,0.1,8.7,0.2
		c1.2,0.1,2.3,0.3,3.5,0.5c-0.2-0.2-0.3-0.5-0.5-0.7c0.1,0,0.1-0.1,0.2-0.1c0.2,0.3,0.4,0.6,0.6,1c0.1,0.1,0.1,0.3,0.2,0.3
		c1.1,0.4,2.1,0.8,3.2,1.2c0.1,0,0.4,0,0.5-0.1c0.1-0.1,0.1-0.4,0-0.5c-0.2-0.3-0.5-0.6-0.8-0.8c-0.5-0.5-1-1-1.6-1.4
		c0,0,0,0,0.1-0.1c0.8,0.5,1.5,1,2.2,1.4c0.1,0-0.1,0-0.4,0.1c0.4,0.3,0.7,0.6,0.9,0.6c0.6,0.1,1.3,0,1.9,0c-0.1-0.7-0.2-1.3-0.3-2
		c0-0.5-0.3-0.7-0.6-1C177,96,176.1,96,175.2,95.9z M138.2,80.2L138.2,80.2c-0.1-0.2-0.1-0.4-0.2-0.6c0.3,0.1,0.5,0.2,0.7,0.3
		c0.5-1.1-0.6-1.4-1-2c0.4-0.2,0.7-0.5,0.9-0.6c0.4,0.3,0.8,0.6,1.2,0.9c0.1-0.1,0.1-0.1,0.2-0.2c-0.3-0.3-0.6-0.7-0.8-1
		c0-0.1,0.1-0.1,0.1-0.2c0.3,0.2,0.7,0.4,1.1,0.6c0.5-1,0.7-2.1,1.6-2.9c0.6-0.6,0.3-1.1-0.3-1.4c0.4-0.9,0.7-1.7,1.1-2.5
		c0.4-0.8,0.1-1.2-0.6-1.6c-0.4,0.9-0.7,1.8-1.1,2.7c-0.3,0.6-0.5,1.4-1,1.8c-1.1,0.9-2.4,1.6-3.6,2.3c-0.3-0.4-0.6-0.7-0.9-1.1
		c-0.3,0.3-0.5,0.5-0.8,0.7c-0.1-0.1-0.1-0.1-0.2-0.2c0.6-0.7,1.2-1.4,1.8-2.1c0.8-0.8,1.7-1.5,2.5-2.3c0.5-0.4,0.7-1,0.3-1.6
		c-0.3-0.5-1.1-0.5-1.7-0.1c-0.1,0.1-0.3,0.2-0.4,0.3c-1.4,1.2-2.8,2.4-4.2,3.6c-0.9,0.7-1.8,1.5-2.7,2.2c-0.3,0.2-0.7,0.3-1.1,0.5
		c0,0,0-0.1,0-0.1c0.6-0.5,1.3-0.9,2-1.4c-0.4-0.3-0.7-0.5-1-0.8c-0.3,0.4-0.5,0.8-0.8,1.2c-0.1,0-0.1-0.1-0.2-0.1
		c0.3-0.5,0.7-1.1,1-1.6c0.3,0.4,0.5,0.7,0.8,0.9c0.4,0.3,0.6,0.2,0.6-0.3l0,0c0.7-0.4,1.4-0.9,2.3-1.4c-0.7-0.5-0.4-1.6-1.5-1.5
		c0.5-0.6,1.1-1.2,1.5-1.9c0.2-0.3,0.3-0.9,0.1-1.2c-0.2-0.3-0.7-0.3-1.2-0.3c-0.2,0-0.4,0.2-0.6,0.4c-1.5,1.5-3,3-4.5,4.5
		c-0.4,0.4-0.9,0.7-1.4,1.1c0.3-0.4,0.7-0.7,1-1.1c0.4-0.3,0.3-0.6-0.1-0.8c0.3,0.3,0.6,0.3,0.9-0.1c0.6-0.8,1.3-1.5,2-2.2
		c1.1-1.1,1.1-1.1,0.5-2.5c-0.6-1.4-1-2.8-1.5-4.1c-0.1,0.1-0.2,0.2-0.3,0.4c0.1-0.6,0.2-1.2,0.2-1.8c0-1.5,0-3-0.1-4.5
		c0-0.9,0.2-1.7,0.6-2.5c0.5-0.9,0.9-1.8,1.3-2.6c0.6-1.2,0.6-1.7-0.4-2.7c-1,0.8-0.9,0.8-0.8,1.9c0.1,1.2,0.1,2.5-1,3.4
		c-0.2,0.1-0.2,0.4-0.3,0.6c-0.4,1.7-0.7,3.5-1,5.2c-0.2,1.2-0.5,2.5-0.8,3.7c-0.1,0.6-0.1,1,0.3,1.5c0.4,0.4,0.7,0.9,1.1,1.4
		c0.1,0.1,0,0.2,0.1,0.3c-0.2-0.1-0.3-0.1-0.4-0.1c-0.1,0-0.1,0.1-0.2,0.1c0.2,0.5,0.5,1.1,0.7,1.6c-0.3-0.1-0.5-0.3-0.7-0.5
		c-0.8-0.9-1.9-1.1-3-1c-0.8,0.1-1.6,0.1-2.3-0.3c-0.4-0.2-0.9-0.4-1.3-0.3c-0.8,0.2-1.6,0.6-2.4,1c-0.7,0.3-1.1,0.8-1.2,1.6
		c-0.1,1.3-0.3,2.5-0.4,3.7c0,0.2,0.1,0.6,0.3,0.6c1.9,0.9,3.8,1.7,5.7,2.6c0.4,0.2,0.8,0.2,1.2-0.1c0,0,0.1,0,0.1,0.1
		c-0.1,0.1-0.2,0.3-0.4,0.4c1.2,0.5,2.4,0.9,3.6,1.4c2.1,0.9,4.1,1.8,6.2,2.8c0.4,0.2,0.5,0.2,0.9-0.2c0.7-0.7,1.6-1.4,2.4-2
		c0,0.1,0.1,0.1,0.1,0.2c-0.5,0.5-1.1,0.9-1.7,1.5c0.8-0.2,1.5-0.3,2.2-0.5c-0.9,0.7-2.2,0.4-3.2,1.4c0.6,0.2,1.1,0.6,1.5,0.5
		c0.9-0.1,1.7-0.5,2.6-0.8C138.6,80.4,138.6,80.2,138.2,80.2z M131.2,90c-0.2-0.1-0.5-0.1-0.7-0.2c-0.9-0.4-1.7-0.3-2.4,0.4
		c-1.5,1.4-3.3,2.2-5.3,2.6c-1.7,0.4-3.5,0.7-5.1,1.7c-0.5,0.3-1.6-0.1-1.8-0.6c-0.5-1.1-1.1-2.2-1.5-3.3c-0.6-1.9-0.9-3.9-1-5.9
		c-0.1-1.7,0.3-3,1.9-3.8c0.5-0.2,0.8-0.7,1.3-1.1c-1.2-0.5-2.2-0.9-3.3-1.4c-0.7,0.8-1.4,1.6-2.1,2.4c-0.3,0.3-0.7,0.7-1.2,0.8
		c-0.7,0.1-1.2,0.5-1.5,1.1c-0.2,0.4-0.6,0.7-0.9,1.1c-0.2,0.3-0.4,0.6-0.3,0.9c0.1,0.4,0.3,0.9,0.5,1.3c0.3,0.6,0.6,1.1,0.8,1.8
		c0.2,0.5,0.1,1.1,0.3,1.5c0.4,1,0.9,2,1.3,3c0.9,2.3,1.7,4.6,3.8,6c1,0.7,2.1,1.2,3.1,1.8c0.4,0.2,0.9,0.4,1.3,0.6
		c1.6,1,3.1,2,4.7,2.9c1.6,0.8,3.4,1.1,5.1,0c0.8-0.5,1.6-1.1,2.4-1.6c1.3-0.9,2.3-2,2.1-3.7c0-0.4,0-0.9,0.1-1.4
		c0.3-1.7,0-3.4-0.5-5.1C132.1,91,132.1,90.2,131.2,90c0.3-0.1,0.7,0,1.1-0.1c0.7-0.2,1.4-0.4,2.1-0.6c1.4-0.4,2.7-0.7,4.1-1.1
		c-0.2-0.2-0.4-0.3-0.5-0.2c-2.2,0.5-4.4,1.1-6.6,1.7C131.3,89.7,131.3,89.9,131.2,90z M114.6,35.2c0.2,0,0.5-0.2,0.7-0.1
		c0.6,0.2,1.2,0.4,1.6,0.8c0.1,0.2-0.3,1-0.6,1.4c-0.5,0.7-0.8,0.7-1.5,0.2c-0.1-0.1-0.3-0.2-0.4-0.3c-0.5,0.6-0.5,1.1,0.1,1.6
		c0.6,0.5,1,1.1,1.6,1.6c1.5,1.3,2.8,2.8,4.7,3.3c1.7,0.5,3.3,1,5,1.4c0.4,0.1,0.9,0,1.3-0.1c1.3-0.6,2.1-1.7,2.9-2.9
		c0.6-0.9,1.2-1.8,1.8-2.7c0.1-0.2,0.2-0.6,0.1-0.9c-0.5-1.6-1.1-3.3-1.7-4.9c-0.6-1.7-1.3-3.3-2.1-5.2c-1,2.2-1.9,4.3-2.8,6.3
		c-0.1,0-0.1,0-0.2,0c0-0.6,0.1-1.2,0.1-2.1c0.1,0.4,0.1,0.6,0.1,0.9c0.1-0.1,0.1-0.1,0.2-0.1c1.5-3.4,2.9-6.9,4.4-10.3
		c0.3-0.8,0.3-1.6,0-2.4c-0.8-1.8-1.5-3.7-2.3-5.5c-0.1-0.2-0.1-0.4-0.2-0.5c0.1,0,0.1-0.1,0.2-0.1c0.5,1.1,1.1,2.2,1.6,3.3
		c0.8,1.9,1.6,3.9,2.1,5.9c0.8,3,0.7,6.1,0.6,9.2c0,1.4-0.2,2.9,0.1,4.2c0.4,1.9,1.1,3.6,1.7,5.5c0.1-0.6,0.1-1.1,0.1-1.6
		c0.3-4,0.6-7.9,0.9-11.9c0.2-2.7,0-5.3-1.5-7.7c-1.7-2.8-3.4-5.7-4.8-8.2c0.4,0.4,1.3,1.1,2,1.8c1.3,1.5,2.6,3,3.9,4.5
		c2.2,2.6,4.4,5.3,6.7,7.9c1.4,1.6,2.9,3.2,4.4,4.8c0.2,0.2,0.5,0.3,0.8,0.5c0-0.1,0.1-0.1,0.1-0.2c-2.8-3.7-5.7-7.5-8.6-11.3
		c5.2,1.9,10.4,3.7,16,3.9c-5.5-2.3-11.3-3.9-16.7-6.5c0-0.1,0-0.2,0-0.3c3.1-1.1,6.1-2.3,9.3-3.5c-5.9-0.5-11.6-1.4-17-3.8
		c1.4,0.3,2.8,0.6,4.2,0.8c2.3,0.4,4.6,0.5,6.9-0.2c0.2-0.1,0.5-0.3,0.6-0.5c0.9-1.5,0.8-3.1,0.7-4.7c-1.1,2.2-3.1,3-5.2,3.6
		c-0.4,0.1-1,0.1-1.4,0c-1.8-0.6-3.6-1.2-5.4-1.9c-0.7-0.3-1.5-0.8-2.2-0.7c-1.5,0.1-3,0.5-4.6,0.7c0.9,1.1,1.6,2.1,2.4,3.1
		c-0.1,0-0.1,0.1-0.2,0.1c-0.1-0.1-0.2-0.1-0.3-0.2c-1-0.9-2-1.9-3-2.8c-0.2-0.2-0.7-0.3-1-0.2c-1.1,0.4-2.2,1-3.3,1.5
		c0.1,0.2,0.2,0.3,0.3,0.4c1.7,1.9,3.3,3.8,4.9,5.7c0.8,0.9,1.4,2,1.5,3.2c0.1,0.6,0.2,1.2,0.3,1.8c0.3,3.2,0.5,6.4,0.8,9.6
		c0,0.1,0,0.2,0,0.2c-0.1,0-0.1,0-0.2,0c0.1-3.3-0.9-6.2-2.6-9c-0.3,1.5-0.5,3-0.8,4.4c0.1,0.1,0.2,0.1,0.3,0.2
		c0.4-0.4,0.9-0.7,1.3-1.1c-0.1-0.1-0.1-0.2-0.2-0.3c-0.2,0.4-0.3,0.8-0.5,1.2c0.1,0,0.1-0.1,0.2-0.1c0.2,0.3,0.6,0.7,0.5,1
		c-0.3,1-0.7,2.1-1.1,3c-0.3,0.7-0.9,1.2-1.3,1.8c-0.1-0.1-0.1-0.1-0.2-0.2c0.4-0.5,0.8-1,1.1-1.5c-0.6-0.4-1.1-0.7-1.6-1
		c-1.1,0.7,0,1.8-0.5,2.9c-0.3-0.4-0.6-0.7-0.8-1c-0.1,0.1-0.2,0.3-0.3,0.4c-0.1-1.2,0.4-2.2,1.1-3.1c0.4-0.5,0.8-0.9,1.1-1.4
		c0.2-0.2,0.4-0.5,0.3-0.7c-0.5-1.8-1.1-3.5-1.7-5.3c-0.1,0-0.1,0-0.2,0c0,0.1-0.1,0.2-0.1,0.3c-0.8,2-1.6,4-2.4,6
		c-0.2,0.6-0.4,1.2-0.5,1.8c-0.2,1.8-0.3,3.5-0.5,5.3c-0.1,0-0.1,0-0.2,0.1c-0.8-1.5-1.6-2.9-2.4-4.4c-0.2,1.7-0.5,3.3-0.7,4.8
		c0.7-0.2,1.3-0.3,1.9-0.4C114.5,34.8,114.9,34.8,114.6,35.2c-0.9,0-1.5,0.4-2.1,1c-0.3,0.4-0.3,0.8,0.2,1c0.3,0.2,0.6,0.4,1,0.6
		c-0.1-0.9-0.1-1.7,0.7-2.1C114.5,35.7,114.5,35.4,114.6,35.2z M168.3,50.1c-0.1,0.2-0.3,0.3-0.4,0.5c-0.1,0.6-0.1,1.3-0.1,1.9
		c0,2.7,0,5.4,0.1,8.2c0,0.4,0.1,0.9,0.4,1.2c0.4,0.5,0.9,0.8,1.4,1.3c0.7,0.6,1.1,0.6,1.6-0.2c0.7-1.1,1.4-2.2,2.1-3.2
		c0.2-0.3,0.4-0.6,0.7-1c-0.3-0.1-0.6-0.1-0.8-0.2c-0.2-0.1-0.5-0.1-0.7-0.2c1.2,0.2,2.3,0.3,3.5-0.1c0.1,0,0.2,0,0.3-0.1
		c3.6-0.4,7.3-0.9,10.9-1.3c3.5-0.4,6.9-0.7,10.4-0.4c1,0.1,1.9,0,2.9,0c-0.4-2.4-0.8-4.7-1.2-7.1c0.1,0,0.1,0,0.2,0
		c0.4,2.3,0.8,4.5,1.3,6.9c0.3-0.4,0.6-0.8,0.9-1.1c0.9-0.7,1.2-1.4,0.8-2.5c0,0,0-0.1,0.1-0.2c0.1,0.5,0.3,0.9,0.4,1.3
		c0.6-0.3,0.7-0.8,0.6-1.4c-0.2-0.5-0.2-1.1-0.3-1.7c0.1,0,0.1,0,0.2,0c0.2,0.7,0.3,1.4,0.5,2.1c1-1.1,1.9-2.1,2.8-3.1
		c0.1-0.1,0.2-0.4,0.1-0.6c-0.1-1-0.3-1.9-0.4-2.8c-0.1-0.6-0.3-1.2-0.4-1.8c-1.5,1.5-2.9,2.9-4.3,4.3c-0.1-0.2-0.2-0.3-0.1-0.3
		c1.2-1.3,2.4-2.5,3.6-3.8c0.8-0.8,0.8-1.3,0.3-2.4c-1.8,2.3-3.8,4.4-5.9,6.3c0,0-0.1-0.1-0.1-0.1c2-2.1,4-4.3,6.2-6.5
		c-1.2-0.3-2.1-0.5-3.1-0.8c-1.9-0.4-3.9-0.9-5.8-1.3c-0.7-0.2-1,0.2-0.9,0.9c0,0.2,0.1,0.5,0.1,0.7c-0.1,0-0.1,0-0.2,0
		c-0.1-0.6-0.1-1.3-0.2-1.9c-0.5,0.1-0.9,0.4-0.8,0.8c0.1,0.9,0.3,1.7,0.5,2.6c-0.3,0.2-0.6,0.4-0.9,0.6c0.9-0.5,0.4-1.3,0.4-2
		c0-0.8-0.5-1.6,0.3-2.4c-3.1-0.8-6-1.5-9-2.3c0,0.4,0,0.6,0,0.8c1.1,0.5,2.1,1.1,3.1,1.5c0.7,0.3,1.2,0.6,1,1.5
		c-0.1,0.7,0.1,1.4,0.2,2c-0.1,0-0.2,0-0.2,0c0-0.7-0.1-1.5-0.1-2.2c0-0.3-0.1-0.6-0.3-0.7c-1.2-0.7-2.4-1.2-3.8-1.9
		c-0.1,1-0.2,1.7-0.2,2.5c0,0.2,0.1,0.5,0.3,0.6c1.1,0.6,2.1,1.1,3.3,1.7c0-0.8,0.1-1.5-0.2-2.1c-0.2-0.5-0.9-0.7-1.4-1
		c0.8,0.3,1.6,0.4,1.6,1.5c0,0.9-0.1,2,1.2,2.4c0,0,0.1,0.1,0.2,0.3c-1.8-0.9-3.5-1.8-5.3-2.7c0.1-1.1,0.2-2.2,0.4-3.3
		c0.2-0.9,0.2-0.9-0.7-1.2c-1.8-0.5-3.6-1-5.4-1.5c-0.3-0.1-0.8-0.1-1,0c-1.2,0.9-2.3,1.8-3.6,2.9c1.3,0.3,2.4,0.6,3.4,0.8
		c0,0.4-0.1,0.7-0.1,1.1c0,1.5,0,3,0.1,4.5c0,0.4,0.2,0.9,0.4,1.3c-0.6-0.2-0.5,0.3-0.5,0.6c0,2,0,4.1,0,6.1c0,0.2,0,0.3,0,0.5
		c-0.1,0-0.2,0-0.2,0c0-2.3,0-4.7,0-7.1c-0.3,0.2-0.5,0.2-0.7,0.4c-1.7,1.4-3.4,2.8-5.1,4.1c-0.5,0.4-0.7,0.9-0.5,1.5
		c0.2,0.8,0.4,1.7,0.6,2.6c-0.1,0-0.2,0-0.3,0.1c-0.3-1.1-0.5-2.2-0.8-3.2C170.4,50.9,169.4,50.5,168.3,50.1
		c0.9,0.2,1.8,0.5,2.7,0.7c0.3,0.1,0.7-0.1,0.9-0.3c1.9-1.6,3.8-3.1,5.7-4.7c0.2-0.2,0.5-0.6,0.5-0.9c0-1.7,0-3.4,0-5.1
		c0-0.5-0.2-0.6-0.6-0.7c-0.2-0.1-0.5,0-0.7-0.1c-1.4-0.6-2.3,0-3.2,1.1c-0.8,1-1.4,2-1.5,3.2c-0.1,0.4-0.2,0.8-0.4,1.2
		c-1,1.6-2.1,3.2-3.2,4.8C168.3,49.4,168.4,49.8,168.3,50.1z M121.1,25.8c0.1,0,0.2,0,0.2,0c0.3-1.5,0.6-3.1,0.8-4.6
		c0-0.2,0-0.5-0.1-0.7c-1.4-3.6-2.5-7.3-4.9-10.4c-0.7-0.9-1-1.1-1.9-0.4c-0.1,0.1-0.3,0.2-0.4,0.3c-0.6,0.6-1.3,1-2.2,1.1
		c-0.7,0.1-1.3,0.2-2,0.3c-0.6,0.1-0.7,0.4-0.8,0.9c-0.7,2.8-1.4,5.6-2.2,8.4c-0.3,1.3-0.7,2.7-1,4c-0.3,1.7,0.4,3.2,0.7,4.8
		c0.7,3.1,1.5,6.2,3.6,8.9c-0.1-0.2-0.1-0.4-0.1-0.5c-0.6-2.4-1.3-4.7-1.9-7.1c-0.5-2.1-1-4.3-0.4-6.5c0.5-1.8,0.4-3.6,0.6-5.5
		c0-0.3,0.2-0.6,0.2-0.9c0.1,0,0.2,0,0.2,0c0.1,6,3.2,11,5.6,16.3c0.1-0.1,0.1-0.2,0.1-0.3c-0.1-2.7,0.2-5.3,0.8-7.9
		c0.5-2,0.9-4.1,1-6.1c0.2-2.7,0.2-5.5-0.8-8.2c0-0.1,0-0.2,0.1-0.4c0.1,0.2,0.2,0.3,0.3,0.4c0.9,2,1.9,4.1,2.8,6.1
		c0.9,1.9,1.2,3.9,1.2,6C120.8,24.4,121,25.1,121.1,25.8z M205.6,120.7c-0.3-0.4-1.4-0.6-1.4-1.8c1,0.4,1.9,0.8,3,1.3
		c-0.2-0.4-0.3-0.6-0.4-0.8c0.7,0,1.2,0,2,0c-1.8-1-3.3-1.9-4.9-2.9c-5-3-9.9-6-14.9-8.9c-2.8-1.6-5.7-3.1-8.6-4.6
		c-1.9-0.9-3.9-1.7-5.8-2.6c-1.6-0.7-3.3-0.9-5.1-0.5C181.7,107,193.8,113.9,205.6,120.7z M103.9,26.5c1.2,4.8-0.8,8.5-2.9,12.3
		c0.2-0.1,0.3-0.3,0.5-0.4c1.6-2.5,3.1-5,3.8-7.9c0.1-0.5,0.1-1.1,0.1-1.7c-0.2-2.5-0.9-5-1.7-7.4c-0.2-0.5-0.2-1,0.3-1.4
		c1.5-1.4,2.9-2.7,4.4-4.1c0.2-0.2,0.4-0.5,0.7-0.8c-0.2,0-0.3-0.1-0.3,0c-2,1.4-4.2,2.6-5.9,4.4c-0.4,0.4-0.5,0.7-0.3,1.1
		c0.3,0.9,0.5,1.9,0.8,2.8c0.3,1.1,0.6,2.2,0,3.2c-0.3,0.6-0.7,1.1-1.1,1.6c-0.6,0.8-1.3,1.5-1.6,1.9
		C101.6,29.3,102.7,28,103.9,26.5z M159.3,28.7c0,0.1,0,0.2,0,0.2c2.9,1,5.7,1.9,8.6,2.9c0.5,0.2,1.1,0,1.7,0
		c-1.7-0.9-3.4-1.7-5.1-2.6C162.8,28.3,161.1,28.2,159.3,28.7z M136,81.6c0.3,0.2,0.5,0.3,0.7,0.5c0.3,0.2,0.6,0.5,0.7,0.8
		c0.4,0.7,0.2,1.4-0.4,1.9c-0.9,0.7-1.7,1.6-2.9,1.8c0.2-0.2,0.5-0.3,0.8-0.5c-0.8,0.2-1.5,0.2-2,0.5c-0.4,0.3-1.2,0.6-1.1,1.5
		c0.8-0.2,1.5-0.4,2.2-0.5c1.9-0.2,3.1-1.2,3.8-3c0.2-0.5,0.7-1,0.7-1.4c-0.1-0.5-0.7-0.8-1-1.3C137.1,81.2,136.6,81.2,136,81.6z
		 M137.3,81.2c0.8,0.9,1.6,1.7,2.2,2.4c-1,1.4-1.7,2.8-2.4,4.3c1.1-0.3,2.7-2.9,3.6-5.7c-0.6-0.5-1.2-1-1.8-1.5
		c0.1-0.1,0.1-0.1,0.2-0.2C138.5,80.8,137.9,81,137.3,81.2z M137.9,34.8c-1-0.6-2-1.2-3.1-1.9c-0.2,1.9-0.3,3.6-0.5,5.5
		c1.2-0.8,1.3-1.8,0.9-3c0.1,0,0.1,0,0.2,0c0.1,0.4,0.2,0.8,0.3,1.4C136.5,36.1,137.1,35.5,137.9,34.8z M106.4,32
		c0,2.1-0.2,4.1,0.1,6.1c0.2,2,1.3,3.7,2.3,5.3C108,39.7,107.2,35.9,106.4,32z M137.6,50.9c-0.9,1-1.6,1.9-2.5,2.8
		c-0.4,0.4-0.5,0.8-0.2,1.3c0.2-0.2,0.4-0.3,0.6-0.5c0.1,0.8-1.2,1.1-0.5,2.1c0.2-0.2,0.3-0.4,0.5-0.6c0.6-0.6,1.1-1.3,1.8-1.9
		c0.5-0.5,0.5-0.9,0.4-1.5c-0.3,0.3-0.6,0.5-0.9,0.8C136.8,52.4,138,52,137.6,50.9z M136.2,87.9c-0.1-0.1-0.2-0.1-0.2-0.2
		c0.1-0.2,0.2-0.4,0.2-0.5c-1.4,0.3-2.8,0.6-4.2,0.9c-0.2,0-0.3,0.2-0.4,0.3c0,0.1,0.1,0.1,0.1,0.2c1.3-0.3,2.6-0.6,3.9-0.9
		c-0.2,0.2-0.5,0.3-0.7,0.4c-1.1,0.3-2.1,0.5-3.2,0.7c-0.3,0.1-0.7,0.2-1,0.4c0,0.1,0.1,0.2,0.1,0.2c1.5-0.4,3-0.8,4.6-1.1
		c0.9-0.2,1.8-0.4,2.1-1.6c0.3-1,1-1.9,1.5-2.8c0.1-0.2,0-0.4,0.1-0.6c-0.1,0-0.1,0-0.2,0C137.9,84.9,137.1,86.4,136.2,87.9z
		 M139.2,88.1c0.8-1.5,1.6-3,2.3-4.4c0.4-0.8,0.4-0.8-0.5-1.2c-0.9,1.7-1.7,3.5-2.6,5.2C138.7,87.8,138.9,87.9,139.2,88.1z
		 M120.4,29.2c0.3,0.3,0.6,0.5,0.9,0.7c0.5,0.4,0.8,0.3,1.1-0.3c0.2-0.6,0.5-1.3,0.7-1.9c0-0.1,0-0.5-0.1-0.5
		c-0.2-0.1-0.7-0.2-0.8-0.1C121.5,27.7,121,28.4,120.4,29.2z M155,29.6c0-0.1,0.1-0.1,0.1-0.2c-1.7-0.5-3.4-1.1-5.1-1.6
		c0,0.1-0.1,0.2-0.1,0.3c1.2,1.1,2.4,2.1,3.6,3.2c0,0,0.1-0.1,0.1-0.1c-0.5-0.6-0.9-1.3-1.4-1.9c0-0.1,0.1-0.1,0.1-0.2
		C153.2,29.2,154.1,29.4,155,29.6z M131.6,51.3c-0.7,0.8-0.6,2.4,0.2,3.4C132.6,54,132.5,52.3,131.6,51.3z M213,36.2
		c-0.4-0.7-0.8-1.3-1.1-1.9c-0.6,0.2-1,0.4-1.5,0.6C210.7,35.9,211.2,36.1,213,36.2z M116.8,36.1c0-0.1,0-0.2,0-0.3
		c-0.4,0-0.9-0.2-1.2,0c-0.4,0.2-0.7,0.7-1,1.1c0.4,0.3,0.7,0.5,1.1,0.8C116.1,37,116.4,36.5,116.8,36.1z M142.3,85.3
		c0.8,0.3,1.6,0.5,2.3,0.8c-0.1-1.3-0.6-1.7-2.1-1.7C142.5,84.7,142.4,85,142.3,85.3z M137.7,30.7c0.6,1.9,1,3.9,2.7,5.2
		C139.5,34.1,138.6,32.4,137.7,30.7z M212.7,33.8c-0.1,0.2-0.3,0.4-0.3,0.6c0.4,1.4,1,2,1.8,1.9C213.7,35.5,213.2,34.7,212.7,33.8z
		 M136.9,82.6c-0.1,0.7-0.3,1.4-0.5,2.2C137.5,84.1,137.7,83.1,136.9,82.6z M133.2,83.2c-0.1-0.1-0.1-0.1-0.2-0.2
		c-0.8,0.7-2.1,0.3-3,1.2c1.1-0.2,2-0.4,2.9-0.6C133.1,83.6,133.2,83.4,133.2,83.2z M178.8,100.3c0-0.1,0-0.2,0-0.3
		c-0.6-0.1-1.2-0.1-1.8-0.2c0,0.1,0,0.2,0,0.2C177.6,100.2,178.2,100.3,178.8,100.3z"/>
	<path d="M105.2,75.5c1.1,0.3,1.6,0.8,1.7,1.8c0.1,1.4,0.4,2.7,0.5,4.1c0,0.3-0.1,0.6-0.2,0.8c-0.8,1.2-1.2,2.2-0.3,3.5
		c0.2,0.2,0.3,0.6,0.3,0.8c-0.1,1.8,0.7,3.3,1.3,5c0.4,1.2,1.1,2.4,1.6,3.6c0.6,1.3,1.4,2.3,2.5,3.2c0.7,0.5,1.1,1.3,1.3,2.1
		c0.8,2.5,1.9,4.7,3.4,6.8c2.3,3.1,4.7,6.1,7.1,9.1c1.2,1.6,2.4,3.2,3.8,4.6c1.1,1.3,2.4,2.5,3.8,3.5c1.8,1.2,3.4,2.6,4.6,4.4
		c1,1.5,2,3,3.1,4.4c0.9,1.1,2,2.1,3.1,3c0.3,0.3,0.8,0.3,1.2,0.4c0.5,0.1,1.1,0.1,1.7,0.2c0.8,0.1,1.3-0.4,1.4-1.2
		c0.1-1.5-0.9-2.4-1.8-3.2c-0.4-0.4-0.8-0.7-1.1-1.1c0.8,0.5,1.7,0.8,2.5,1.4c0.7,0.6,1.4,0.3,2.2,0.3c1.2-0.1,2.5-0.4,3.7-0.3
		c0.6,0,1.2,0.7,1.8,1.1c0.1,0.1,0.1,0.3,0.3,0.3c1.9,0.8,3.6,1.9,5.8,2c2.5,0.1,3.9-0.8,5.2-3c1-1.6,1.2-3.2,1.3-4.9
		c0-0.4-0.2-1-0.5-1.4c-0.6-0.7-1.3-1.4-2.3-1.3c-1,0.1-2.1,0-3,0.4c-1.5,0.6-1.9,1.9-1.2,3.4c0.4,0.9,1.1,1.5,2.1,1.9
		c-1.5,0.5-1.9,0.4-2.6-0.9c-0.1-0.2-0.2-0.4-0.3-0.6c-1.3-2.6,0.4-4.1,2.6-4.7c0.8-0.2,1.6-0.7,2.4-0.9c1.1-0.3,2.2-0.7,3.3-0.8
		c3.8-0.6,7.5-1.7,11-3.2c0.1-0.1,0.3-0.1,0.4-0.1c-4.4,2.5-9.2,3.9-14.2,4.8c1.4,1.2,2.8,0.9,4.3,0.3c3.4-1.5,6.9-2.8,10.3-4.3
		c1.7-0.8,3.4-1.8,5-2.8c0.8-0.5,1.4-1.4,2.2-2.2c1.3,0.7,2.6,1.4,4.1,2.2c-2.5,2-5.1,3.5-7.9,4.8c0,0.1,0.1,0.1,0.1,0.2
		c1.2-0.5,2.4-0.8,3.6-1.4c1.6-0.8,3-1.9,4.6-2.8c0.3-0.2,1.6,0,1.7,0.4c0,0.2-0.1,0.5-0.3,0.6c-2.4,1.9-4.9,3.6-7.7,5
		c-1.8,0.9-3.6,1.8-5.4,2.7c-0.6,0.3-1.4,0.1-1.7,0.9c0,0,0,0.1,0,0.1c2,0.3,3,1.5,3.1,3.5c0,1-0.4,1.5-1.4,1.5
		c-1.8,0.2-1.8,0.2-0.9,1.7c0.1,0.2,0.3,0.4,0.4,0.7c0.3,0.6,0.5,1.3,0.1,1.9c-0.5,0.6-1.2,0.8-2,0.7c-0.4-0.1-0.9-0.2-1.3-0.4
		c-0.2,0-0.3,0-0.6,0c0.2,0.4,0.4,0.6,0.6,0.9c0.4,0.7,0.5,1.4,0,2.1c-0.3,0.4-0.6,0.9-0.9,1.3c-0.9,1.4-2.1,2.2-3.8,2.1
		c-1.7-0.1-2.9-1-3.6-2.5c-0.1-0.2-0.2-0.4-0.2-0.4c-0.7,0.6-1.3,1.3-2.1,1.8c-0.3,0.2-0.8,0.4-1.1,0.3c-1-0.3-2-0.5-2.9-1
		c-0.9-0.5-1.7-0.6-2.6-0.3c-2.6,0.9-4.9,0.3-7-1.3c-0.2-0.1-0.5-0.1-0.7-0.1c-1.3,0.1-2.5,0.4-3.8-0.2c-0.3-0.1-0.7,0-1,0.2
		c-0.7,0.2-1.3,0.6-2,0.7c-2,0.6-4,0.4-5.7-0.7c-1.8-1.3-4-1.6-5.9-2.6c-0.1-0.1-0.5,0-0.6,0.2c-0.8,0.7-1.7,1-2.7,1
		c-1.1,0-2-0.4-2.7-1.2c-0.2-0.2-0.6-0.4-0.9-0.4c-1.9-0.4-3.9-0.6-5.8-1.3c-1.2-0.5-2-1.3-2.5-2.3c-0.9-1.7-1.7-3.4-2.6-5.1
		c-0.2-0.4-0.4-0.9-0.8-1.1c-2.9-1.9-5.1-4.4-6.9-7.4c-0.4-0.6-0.7-1.2-1.1-1.8c-0.2-0.3-0.4-0.4-0.6-0.7c-0.1,0-0.2,0.1-0.2,0.1
		c0.2,0.6,0.4,1.3,0.5,1.9c0.1,0.3,0,0.6,0,0.9c-0.2-0.1-0.5-0.3-0.7-0.4c-0.4-0.3-0.8-0.7-1.2-0.9c0.1,0.6-0.1,1.3,0.6,1.6
		c0.2,0.1,0.3,0.4,0.4,0.6c0.2,1,0.5,2.1,0.7,3.1c0.1,0.5,0,0.9-0.7,0.8c0.2-1.2,0-2.3-0.5-3.2c-0.3-0.6-1-1.2-1.1-2
		c-0.1-0.5,0-0.9,0.1-1.4c0.5,0,0.9,0.1,1.4,0.1c0.1,0,0.1,0,0.2,0c-0.1-0.7-0.6-1.5,0.4-1.9c-1.9-3.8-3.6-7.6-3.3-11.9
		c1.7,4.5,3,9,5.9,13c-0.4-1-0.8-1.9-1.2-2.9c-1.5-4.6-3.3-9.1-4.5-13.7c-1.1-4.2-1.1-8.6-1-13c0.1-4.7,1-9.2,2.1-13.8
		c0.2-0.7,0.4-0.9,1-0.5c0.1,0.1,0.2,0.1,0.3,0.2c0.7,0.2,0.8,0.6,0.7,1.2c-0.3,2.1-0.7,4.2-0.9,6.3c-0.6,5.7-0.6,11.3,0.5,16.9
		c0.3,1.5,0.6,3,1,4.7c-0.7-1.1-1.3-2-1.9-3c-0.2,3.7,4.7,16.7,7.4,19.5c0.3-0.5,0.4-1,0.1-1.5c-1.6-3.6-3.1-7.3-4.6-10.9
		c0-0.1-0.1-0.2,0-0.4c0.1,0.2,0.2,0.4,0.3,0.6c1.6,3.6,3.2,7.1,4.8,10.7c0.2,0.3,0.2,0.8,0.2,1.2c0,1.3-0.1,2.6,0.1,3.9
		c0.2,1.6,1.1,2.7,2.5,3.4c0.2,0.1,0.5,0.2,0.7,0.3c1.1,0.5,2.1,0.5,3-0.3c1-0.9,1.2-2,0.8-3.2c-0.3-0.9-0.7-1.7-1.1-2.5
		c-0.4-0.7-1.1-0.7-1.9-0.6c-0.2,0-0.4,0-0.5,0c0.5-0.5,1.2-0.6,1.8-0.3c0.8,0.4,1.7,0.8,2.4,1.4c2.3,2.1,4.6,4.3,6.8,6.6
		c1.6,1.7,3,3.5,4.3,5.3c1.5,2.1,3.6,3.5,5.7,4.9c0.6,0.4,1.2,1,1.9,1.4c0.4,0.3,0.8,0.5,1.2,0.6c1.8,0.4,3.5,0.3,5.2-0.4
		c0.7-0.3,1.4-0.6,2.1-0.7c0.4,0.1,0.8,0.4,1.1,0.4c1.8-0.1,3.7,0,5.4-0.9c1.2-0.6,2.1-1.4,2.3-2.5c-1.1-0.9-2.2-1.6-3.2-2.4
		c-0.1-0.1-0.2-0.1-0.3-0.1c-1.2,0.1-2.4,0.1-3.6,0.2c0,0.4,0.1,0.7,0,1c-0.2,1.2-0.7,1.6-1.9,1.8c-2.9,0.5-5.2-0.6-6.9-2.9
		c-0.9-1.2-2-2.1-3.5-2.8c-2.4-1.1-4.6-2.5-6.8-3.9c-4.3-2.7-8.2-6-12-9.5c-1.8-1.6-3.5-3.3-5-5.1c-1-1.1-1.6-2.5-2.3-3.8
		c-2.1-4.3-3.7-8.8-4.9-13.5c-0.1-0.3-0.1-0.7-0.1-1c0.8,2.2,1.7,4.5,2.5,6.7c0.1,0,0.1,0,0.2,0C105.1,92.7,104.5,84.2,105.2,75.5z
		 M169.2,129.4c-0.4,0.2-0.8,0.3-1.2,0.5c-0.1,0.1-0.2,0.4-0.1,0.5c0.5,1,0.1,1.8-0.6,2.5c-0.5,0.5-1,1-1.5,1.6
		c-1.3,1.6-3,2.5-5,2.7c-1.3,0.1-2.7-0.3-4.2-0.5c-1,1.7-2.2,3.5-4.8,3.9c1.9,1.2,3.6,1.9,5.7,1.1c1.1-0.5,2.1-0.4,3.2,0.1
		c0.7,0.4,1.5,0.7,2.2,1c0.7,0.3,1.3,0.1,1.7-0.4c0.4-0.4,0.8-0.8,1.1-1.3c0.7-1.2,2-1.8,3-1.2c-0.2,0.1-0.4,0.2-0.6,0.2
		c-0.6,0.2-0.8,0.9-0.6,1.4c1,2.3,4,2.8,5.6,0.9c0.4-0.4,0.6-0.9,0.9-1.4c0.7-0.8,0.7-1.5,0-2.4c-0.2-0.2-0.2-0.9,0-1.1
		c0.2-0.3,0.7-0.4,1.1-0.3c0.4,0,0.8,0.3,1.2,0.3c0.5,0,1.1-0.1,1.4-0.4c0.2-0.2,0-0.8-0.1-1.2c-0.2-0.4-0.5-0.8-0.8-1.2
		c-0.5-0.7-0.5-1.2,0.3-1.7c0.4-0.3,1-0.3,1.6-0.4c0.3-0.1,0.7-0.3,0.7-0.4c-0.1-0.8-0.1-1.7-0.5-2.3c-0.4-0.6-1.1-1.1-2-0.7
		c-0.5,0.2-0.9,0.1-1.2-0.4c-0.4-0.6-0.9-0.7-1.5-0.8c-1.1-0.2-2.1,0-3,0.5c-1.5,0.8-2,2.2-1.3,3.7c0.1,0.2,0.2,0.5,0.3,0.8
		C168.9,132.6,168.6,131.5,169.2,129.4z M130.8,138.1c0-0.1,0-0.2,0-0.3c-0.1-0.1-0.3-0.2-0.4-0.3c-3.8-2.3-7.7-4.5-11.3-7
		c-1.5-1-3-1.1-4.7-1.8c0.6,1.4,1,2.6,1.6,3.8c0.4,0.7,0.8,1.4,1.4,2c1.5,1.6,3.5,1.9,5.6,2.2c0.9,0.1,1.8,0.2,2.7,0.4
		c0.2,0,0.4,0.3,0.6,0.5c0.6,0.7,1.3,1.2,2.2,1.1C129.3,138.5,130,138.3,130.8,138.1z M136,129.7c-0.7-1.5-1.9-2.4-3.1-3.4
		c-2.6-2.2-5.1-4.4-7.3-7c-1.1-1.3-2.2-2.6-3.3-4C125.6,121.4,130.6,125.8,136,129.7z M115.4,109.5c0.2,2.4,2,4.6,3.5,4.2
		C118.1,112.1,116.8,110.8,115.4,109.5z M174.2,127.1c0.6,0.3,1.2,0.5,1.8,0.8c0.1,0,0.2,0,0.3,0c0.8-0.2,1.4-1.6,1-2.4
		C176.2,126.1,175.2,126.6,174.2,127.1z M171.6,126.5c0-0.1,0-0.1-0.1-0.2c-1.2,0.3-2.4,0.7-3.5,1.1c-0.1,0-0.1,0.2-0.2,0.3
		c0.1,0,0.3,0.2,0.4,0.1C169.3,127.4,170.4,127,171.6,126.5z"/>
	<path d="M147,109.5c0.8,1,0.4,1.8-0.4,2.8c1.5,0.1,2.9,0.3,4.3,0.3c3.6,0,7.3,0.1,10.9-0.3c3.3-0.4,6.4-1.6,9.2-3.5
		c0.2-0.2,0.5-0.4,0.7-0.6c0.2,0.1,0.4,0.2,0.6,0.3c-2.5,2.1-5.4,3.2-8.5,4c-1.1,0.3-2.2,0.5-3.3,0.6c-1.8,0.2-3.5,0.3-5.3,0.5
		c-3.1,0.3-6.1,0.1-9.1-0.7c-0.1,0-0.2,0-0.3,0c-0.1,0-0.1,0-0.4,0.1c1.9,0.7,3.7,1.4,5.4,2c1,0.4,2.1,0.6,3.1,1
		c1.9,0.7,3.7,0.6,5.6,0.1c2.7-0.7,5.4-1.2,8-2c2.6-0.7,4.9-2,6.8-4c0.3-0.3,0.5-0.5,1-0.3c1.7,1,3.4,1.9,5.2,2.8
		c0.1,0.1,0.2,0.2,0.3,0.3c-0.4,0.4-0.8,0.7-1.2,1.1c1.2-0.1,2.3-1.3,3.5,0.1c-0.6,0.2-1.1,0.5-1.7,0.7c-5,2-10.3,3.3-15.7,3.6
		c-3,0.1-6-0.2-9-0.5c-1.4-0.2-2.8-0.8-4.2-1.2c-2.2-0.7-4.4-1.4-6.5-2.3c-3.3-1.4-6.5-3-9.7-4.5c-0.1-0.1-0.2-0.2-0.3-0.4
		c0.5,0.2,0.9,0.4,1.4,0.6c1.9,0.8,3.8,1.7,6,1.8c0.9,0,1.9,0.3,2.7-0.4c0.5-0.4,0.8-0.8,0.7-1.5c-0.1-0.6,0.4-0.7,0.8-0.7
		c0.6,0,1.1,0,1.7,0.2c0.8,0.2,1.6-0.1,2.2-0.5c0.3-0.2,0.5-0.7,0.4-1c-0.2-1.5-2.1-3.5-3.9-3.2c-0.5,0.1-1.1,0-1.6,0
		c-1.2,0-2.1,0.7-2.4,2c0.5,0,0.9-0.1,1.4-0.1c0.4,0,0.9-0.1,1.3-0.1c0,0.1,0,0.2,0.1,0.2c-0.2,0.1-0.4,0.3-0.7,0.4
		c-1.1,0.4-2.2,0.5-3.3,0.3c-1-0.2-2.1-0.2-3.2-0.3c-2.4-0.1-4.8-0.5-7-1.3c-1.1-0.4-2.2-0.7-3.2-1c0-0.1,0-0.2,0-0.3
		c0.5,0,0.9-0.1,1.4,0c1.9,0.4,3.8,1,5.7,1.4c1,0.2,2,0.4,3,0.5c1,0.1,2,0.2,3,0.2c0.3,0,0.8-0.2,1-0.5c1.3-1.8,3.1-2.3,5.2-1.8
		c1.9,0.4,3,1.6,3.6,3.3c0.3,0.8,0.1,1.5-0.7,1.8c-0.7,0.3-1.4,0.4-2.2,0.4C148.6,109.8,147.9,109.6,147,109.5z"/>
	<path d="M181.7,101.7c0.8-1.6,1.6-3,2.3-4.5c0.7-1.6,1.2-3.3,1.9-4.9c1.7-4.2,3.3-8.3,4.3-12.7c0.1-0.5,0.3-0.9,0.5-1.4
		c0.1-0.1,0.2-0.3,0.4-0.3c2.4-0.7,4.8-1.5,7.2-2.2c0,0.2-0.1,0.4-0.1,0.6c-0.9,2.7-1.9,5.4-3,8c-1.6,3.8-3,7.6-4.6,11.5
		c-1.1,2.6-2.3,5.2-3.4,7.8c-0.3,0.6-0.7,0.6-1.2,0.5C184.8,103.9,182.4,102.5,181.7,101.7z"/>
	<path d="M198.3,22.9c-0.9-0.6-1.6-0.5-1.9,0.1c-0.3,0.6-0.4,1.4-0.7,2.1c0.4-1.7-0.7-2.7-1.7-3.7c-0.6-0.6-0.8-1.1-0.6-2
		c0.5-2.4-1.8-5.1-4.3-5.1c-1.2,0-2.3,0.1-3.4,0.6c-0.6,0.3-1,1.1-0.8,1.7c0.4,0.8,0.9,1.6,1.8,1.9c1.3,0.5,2.3-0.2,2.3-1.6
		c0-0.1,0-0.2,0-0.3c0.8,0.6,0.9,0.8,0.4,1.5c-1,1.3-2,1.5-3.7,0.2c-2.5-1.9-4.9-3.8-7.4-5.7c-0.5-0.4-1-0.7-1.5-1.1
		c2.8,1.4,5.2,3.2,7.5,5.4c0.2-0.8-0.1-1.2-0.6-1.6c-2.8-1.7-5.5-3.8-8.5-5.1c-4-1.7-8.1-3.4-12.6-3.5c-0.3,0-0.6-0.1-1-0.1
		c0-0.1,0-0.1,0-0.2c0.7,0,1.5,0,2.2,0c2.2,0,4.4-0.2,6.7-0.1c1.2,0,2.4,0.4,3.6,0.7c0.8,0.2,1.2,0.7,1.1,1.6
		c2.2,0.4,4.2,1.5,6.5,1.3c-0.2-0.7-0.3-1.4,0.5-2c0.8-0.6,1.3-0.6,2,0.2c0.5,0.5,0.7,0.5,1-0.1c0.3-0.5,0.6-1,1.3-0.9
		c0.7,0.1,1.1,0.5,1.3,1.1c0.1,0.2,0.2,0.4,0.2,0.4c0.5-0.3,0.9-0.7,1.4-0.8c1-0.1,2.1,0,3,0.7c1.1,0.8,1.2,1.7,0.5,3.2
		c0.2,0,0.3,0,0.4,0.1c1.4,0.1,2.3,0.9,2.3,2.4c0,0.7,0.4,1.2,0.9,1.5c1.2,0.8,1.7,2,1.8,3.3c0,0.1-0.1,0.4,0,0.4
		c1,0.7,1.2,2.2,2.3,2.8c1.6,0.9,2.5,2.3,2.6,4.2c0.1,1,0.4,2,0.7,2.9c0,0.1,0.3,0.3,0.4,0.3c1.4,0.6,1.8,1.3,1.9,2.8
		c0,0.6,0.5,1.2,0.8,1.7c0.1,0.2,0.1,0.4,0.2,0.6c-0.2-0.1-0.4-0.2-0.5-0.4c-0.3-0.5-0.7-1.1-0.9-1.6c-0.1-0.1-0.1-0.3,0-0.5
		c0.2-1.1-0.3-1.9-1.6-2.3c0.1,0.9,0.2,1.9,0.3,2.8c0.1,0.9,0.2,1.9,0.2,2.8c-1.4,0.3-2.7,0.6-4.1,0.8c0.1-0.4,0.2-0.8,0.3-1.3
		c0.5-1.4,1-2.8,1.4-4.2c0.2-0.8,0.3-1.7,0.4-2.5c0.1-1,0-1.9,0-2.9c0-0.2-0.1-0.5-0.2-0.7c-0.3-0.5-0.6-1.2-1.1-1.5
		c-1.7-0.9-2.5-2.5-3.7-3.8c-0.9-0.9-2-1.5-3.4-1.3c0,0.7,0,1.4,0,2.1c0,0.2,0.1,0.4,0.2,0.5c0.4,0.5,0.8,1,1.2,1.4
		C197.1,21.7,197.8,21.9,198.3,22.9L198.3,22.9z M191.4,11.3c0.5-0.1,1,0,1.3-0.3c0.5-0.4,0.4-1.3-0.1-1.9c-0.3-0.3-0.7-0.6-1.2-0.8
		c-0.5-0.2-1-0.2-1.6-0.2c-0.5-0.1-0.9,0-1.1,0.5c-0.3,0.5-0.9,0.5-1.2,0c-0.1-0.1-0.1-0.4-0.2-0.5c-0.3-0.3-0.5-0.7-0.8-0.8
		c-0.2,0-0.6,0.3-0.8,0.6c-0.6,1-1,1-1.9,0.2c-0.6-0.6-0.9-0.6-1.5,0c-0.4,0.4-0.4,1,0,1.5c0.2,0.2,0.2,0.5,0.3,0.8
		c0,0.2,0,0.4,0,0.5c0.6,1.9,2.8,2.4,4.2,1.1c0,0,0.1,0,0.2-0.1c0,0.7,0,0.7-1.5,1.4c0.3,0.2,0.5,0.3,0.7,0.5
		c0.5-0.6,1.2-0.6,1.8-0.5c0.6,0.1,1.2,0.2,1.8,0.4c1.8,0.5,3.2,1.5,3.9,3.3c0.1,0.2,0.2,0.4,0.4,0.4c1.3,0,2.6,0.3,3.7,1.1
		c0-1.4-0.4-2.1-1.5-2.9c-0.6-0.4-1-0.9-1.1-1.6c-0.1-1.6-0.7-2.1-2.2-2.1C192.3,12.1,191.7,11.9,191.4,11.3z M182.2,11.6
		c0,0,0.1-0.1,0.1-0.1c-0.2-0.4-0.3-0.9-0.6-1.1c-0.4-0.2-0.9,0-1.3,0c0,0.1,0,0.2,0,0.2C181,10.9,181.6,11.3,182.2,11.6z"/>
	<path d="M197.9,110.9c0.8-1.9,1.7-3.7,2.4-5.5c1.1-2.9,2.2-5.7,3.2-8.7c2-5.8,2.8-11.9,3.5-17.9c0.2-2.1,0.6-4.1,0.9-6.2
		c0-0.2,0.1-0.4,0.2-0.4c0.7-0.4,1.5-0.9,2.4-1.4c0,0.5-0.1,0.9-0.1,1.3c-0.4,2.9-0.7,5.7-1.1,8.5c-0.4,3-0.7,6.1-1.4,9.1
		c-0.8,3.3-2,6.5-3.2,9.7c-0.8,2.1-1.7,4.2-2.6,6.3c-0.7,1.6-1.5,3.2-2.4,4.8C199.1,111.6,199.1,111.6,197.9,110.9z"/>
	<path d="M206.5,75.7c-0.1,0.7-0.3,1.5-0.4,2.2c-1,4.3-1.9,8.6-3,12.9c-1.4,5.5-3.3,11-5.5,16.3c-0.4,0.8-0.7,1.7-1.1,2.5
		c-0.1,0.2-0.5,0.3-0.6,0.3c-1.5-0.9-3-1.8-4.4-2.7c1.1-1.2,2.1-2.4,3.3-3.6c1.3-1.4,2-3.1,2.7-4.8c1.7-4,3.4-8,5.1-12
		c1.5-3.5,2.9-7,3.7-10.8c0-0.1,0.1-0.2,0.1-0.2C206.3,75.7,206.4,75.7,206.5,75.7z"/>
	<path d="M213.1,90.2c0.5-0.9,0.9-1.8,1.5-2.6c0.4-0.7,0.9-1.3,1-2.2c0.1-0.9,1-1.2,1.8-1.3c1-0.1,1-0.2,0.6-1.1
		c-0.2-0.6-0.4-0.9,0.5-1.2c0.9-0.3,1.9-0.7,2.5-1.6c-0.4-0.5-0.9-0.9-0.9-1.3c0-1.2,0.4-2.2,1.1-3.1c0.2-0.3,0.5-0.5,0.8-0.7
		c0-0.1-0.1-0.2-0.1-0.2c-0.3,0.1-0.6,0.1-0.8,0.3c-0.3,0.3-0.6,0.6-0.8,1c-0.5,1-0.6,1-1.3,0.5c0.3-0.2,0.7-0.3,0.8-0.6
		c0.9-1.7,2.3-2,3.8-0.8c0.7,0.6,2.3,0.6,2.9-0.1c0.1-0.1,0.3-0.3,0.3-0.4c0.1-1.2,0.6-2.4-0.3-3.5c-0.4-0.5-0.8-1-1.2-1.4
		c-0.6-0.5-1.3-0.6-2.1-0.3c-0.9,0.4-1.8,0.5-2.7-0.2c-0.4-0.3-0.8-0.3-1,0.4c-0.1,0.5-0.4,0.8-0.9,0.4c0,0-0.1-0.1-0.1-0.1
		c-1.3-0.1-2.6-0.1-3.5,0.8c-0.8,0.8-0.6,1.9-0.5,2.9c0,0.2,0.1,0.4,0.2,0.6c1.3-0.8,2.5-1.5,3.9-2.4c0,0.4,0,0.7-0.1,0.8
		c-1.2,1.5-1.3,3.4-1.5,5.2c-0.4,2.5-1,4.9-2,7.2c-0.2,0.6-0.4,1.1-0.7,1.7c-0.5,1-0.6,2.3-1.6,3.1c-0.3,0.3-0.4,0.8-0.6,1.2
		c-0.4,0.7-0.8,1.3-1.2,2c-0.4,0.5-0.9,0.4-1.4,0.2c-0.1,0-0.3,0-0.6,0.1c0.3-0.3,0.4-0.6,0.5-0.6c0.8,0,0.8-0.7,1-1.2
		c2.3-4.9,2.4-10.3,4-15.4c0.2-0.6,0.2-1.1-0.2-1.7c-1.1-1.6-0.7-3.6,0.7-4.3c1-0.6,2.2-0.8,3.4-0.6c0.3,0,0.6,0.1,0.9,0.1
		c0.5-1,1-1,2-0.5c0.4,0.2,0.9,0.3,1.2,0.2c2.6-1.4,5.1,1.2,5.4,3.5c0.1,0.7,0.1,1.4-0.3,2.1c-0.9,1.5-2.9,1.3-4.2,0.7
		c-0.5-0.3-0.8-0.2-1.2,0.2c-0.8,0.8-1.1,1.7-1.2,2.8c0,0.3,0.2,0.7,0.4,0.9c0.6,0.6,0.7,1,0,1.5c-0.8,0.6-1.8,1.1-2.7,1.6
		c0-0.1,0,0,0,0c0.5,1.5,0.5,1.5-1.1,1.9c-1,0.2-1.2,0.6-1.3,1.6c0,0.1,0,0.3-0.1,0.4c-0.9,1.3-1.7,2.6-2.6,3.8
		C213.2,90.2,213.1,90.2,213.1,90.2z"/>
	<path d="M173.8,119.9c-0.7,0.3-1.5,0.6-2.2,0.8c-3.9,1.1-7.8,1.8-11.8,2c-2.5,0.1-5,0.4-7.5-0.2c-1-0.2-2-0.6-3.1-0.9
		c0.2,0.6,0.3,1.2,0.5,1.7c0.3,1.1-0.1,1.9-0.9,2.6c-3.2,2.4-8.5,0.6-9.3-3.4c-0.2-0.7,0-1.5,0-2.2c0.1,0,0.2,0,0.3,0
		c0.1,0.2,0.1,0.4,0.2,0.6c0.3,0.9,0.5,1.9,0.8,2.8c0.4,1,1.3,1.5,2.2,1.9c1.5,0.7,3,0.7,4.6,0.4c1.2-0.2,1.8-1.2,1.5-2.4
		c-0.3-1.5-0.8-2.9-1.9-4.1c-1.3-1.5-2.6-2.8-4.4-3.5c-0.7-0.3-1.6-0.5-2.4-0.6c-1.2-0.1-2.5-0.2-3.7-0.1c-0.8,0-1.4,0.4-1.7,1.2
		c-0.1,0.2-0.3,0.4-0.5,0.5c-1.1-1.2-2-2.4-3-3.4c-2-1.9-4.1-3.8-6.1-5.6c-1.5-1.3-2.9-2.6-4.4-3.9c-0.3-0.2-0.4-0.6-0.6-1
		c0.1,0,0.1-0.1,0.2-0.1c4.7,4.1,9.4,8.1,14,12.1c3.6-1.4,7.1-1.2,10.4,1c1.4,0.9,2.3,2.5,3.5,3.8c0.2,0.3,0.5,0.6,0.8,0.7
		c1.5,0.5,3.1,1,4.6,1.3c2.6,0.4,5.1,0,7.7-0.3c2.8-0.3,5.6-0.7,8.3-1.1c1-0.1,2-0.5,2.9-0.7c0.3-0.1,0.5-0.1,0.8-0.2
		C173.7,119.8,173.7,119.8,173.8,119.9z"/>
	<path d="M97.1,118.5c-1.3,0.8-2.5,1.5-3.7,2.2c-0.1,0.1-0.2,0.1-0.4,0.1c-2.2,0.7-3.3,0.1-3.8-2.2c-0.1-0.5-0.2-1-0.2-1.6
		c0-1.4,0.4-1.8,1.7-1.5c0-0.1,0-0.1,0-0.2c-0.6-1.7-0.3-2.5,1.5-3.6c1.2-0.7,1.8-1.5,1.3-3c-0.2-0.5-0.3-1.2,0.1-1.6
		c0.2,0.8,0.4,1.6,0.7,2.4c0.3,1.1,0.2,1.5-0.7,2.1c-0.5,0.4-1,0.8-1.5,1.1c-0.8,0.5-1,1.2-0.7,2c0.2,0.5,0.4,0.9,0.5,1.4
		c0,0.2,0,0.5-0.2,0.6c-0.2,0.1-0.5,0.1-0.7,0c-0.4-0.2-0.7-0.4-1.1-0.7c-0.1,0.3-0.2,0.5-0.2,0.7c0.1,0.8,0.2,1.7,0.5,2.5
		c0.2,0.8,0.8,1,1.6,0.8c1.1-0.2,2-0.6,2.8-1.3c0.4-0.3,0.8-0.6,1.2-1c1.2-1,2-0.7,2.4,0.7c0.4,1.3-0.1,2.6-1.4,3.2
		c-0.2,0.1-0.4,0.2-0.8,0.4c0.4,0.1,0.6,0.2,0.8,0.3c0.5,0.1,1.1,0.1,1,0.7c0,0.3-0.6,0.5-1.1,0.7c-0.2,1.1,0.1,2.1,0.9,3
		c0.8,0.8,1.7,0.5,2.5,0.2c0.4-0.2,0.9-0.4,1.2-0.8c0.6-0.7,1.1-1.3,2-0.7c0,0,0,0.2-0.1,0.2c-1.3,1-2.4,2.3-4.2,2.5
		c-1.2,0.1-2.1-0.3-2.7-1.3c-0.4-0.8-0.7-1.7-0.9-2.5c-0.2-0.6,0.1-1.3-0.5-1.9c-0.4-0.4,0.1-0.9,0.5-1.2c0.3-0.2,0.6-0.3,0.9-0.5
		C97.7,120.3,97.8,119.2,97.1,118.5z"/>
	<path d="M182.1,18.7c0,0.2,0.1,0.4,0,0.5c-0.5,0.6-0.1,1,0.2,1.5c1.9,2.6,2.5,5.7,3.3,8.7c0.5,1.9,0.7,4,0.9,6
		c-0.2-0.7-0.4-1.3-0.5-2c-0.2-1.2-0.8-2.2-1.6-2.9c-0.3-0.3-1.1-0.5-1.5-0.4c-0.6,0.2-0.8,0-1.1-0.4c-0.4-0.6-0.9-1.1-1.4-1.5
		c-0.3-0.3-0.7-0.2-1.1,0.2c-0.8,0.8-0.9,1.8-0.2,2.8c0.6,0.9,1.2,1.8,2.7,1.4c-0.4-0.5-0.7-0.9-1.1-1.3c1.1,0.2,2.1,1.4,3,3.9
		c-0.3-0.3-0.6-0.5-0.7-0.8c-0.4-0.8-0.9-1.3-1.9-1.4c-1.8-0.2-3.6-2.7-2-4.7c0.5-0.6,1-0.8,1.6-0.3c0.7,0.5,1.2,1.2,1.8,1.9
		c0.4-0.1,0.9-0.3,1.5-0.5c-1.1-2-2.5-3.9-3.9-5.7c2.3,1.5,3.6,3.7,4.7,6.2c-0.8-3.2-1.4-6.4-3.4-9.1c-0.2-0.2-0.6-0.4-0.8-0.4
		c-2,0.1-4-1.8-4.5-3.2c0-0.1,0-0.2,0-0.4c0.6,0.7,1,1.3,1.6,1.9c0.4,0.4,1,0.9,1.5,1.1C180.2,20,180.9,20.3,182.1,18.7z"/>
	<path d="M198.3,22.9c1.2,0.9,1.3,2,0.8,3.5c-0.3,1-0.3,1.9-0.2,2.9c0.3,2.4,0.3,4.9,0.5,7.3c0,0.2-0.1,0.4-0.2,0.4
		c-0.8,0.5-1.7,1-2.7,1.6c1.1-2.9,1.4-5.9,1.6-8.9c-0.1,0-0.2,0-0.3-0.1c-0.1,0.4-0.2,0.7-0.3,1.1c-0.3,2-0.6,3.9-0.9,5.9
		c-0.1,0.5-0.2,1-0.4,1.4c-0.1,0.2-0.3,0.2-0.5,0.4c0-0.2-0.2-0.4-0.1-0.6c0.2-0.6,0.4-1.1,0.6-1.7c0.2-1,0.5-2,0.5-3
		c-0.1-2.1,0.7-3.9,1.5-5.8c0.4-1,0.6-2.1,0.8-3.1c0-0.2-0.2-0.5-0.3-0.7C198.6,23.4,198.5,23.2,198.3,22.9
		C198.3,22.9,198.3,22.9,198.3,22.9z"/>
	<path d="M95.4,94.1c-0.4,1.1-0.8,2.1-1.2,3.2c-0.4,0.9-0.7,1.8-1.3,2.6c-0.9,1.3-2,1.2-2.8-0.2c-0.1-0.2-0.3-0.3-0.4-0.4
		C88.6,99,88,98.1,88,97c0-1,0.7-1.8,1.8-2.1c0.7-0.2,0.8-0.5,0.7-1.1c-0.2-1.2,0.1-2.2,1.3-2.7c0.1-0.1,0.3-0.3,0.3-0.4
		c0.2-1.9,1.1-3.5,2-5.1c0.5-0.9,0.9-1.9,1.4-2.8c0.2-0.4,0.4-0.7,0.6-1c0.9-1.1,0.9-2.2,0.5-3.5c-0.1-0.3-0.1-0.8,0-1.1
		c0.4-0.9,0.8-1.7,1.3-2.6c0.4-0.7,1.1-1.1,2.2-1.3c-0.3,0.3-0.4,0.4-0.6,0.5c-1.2,1-1.7,2.4-2.4,3.8c-0.1,0.1,0,0.3,0,0.4
		c0.6,1.3,0.1,2.5-0.6,3.6c-0.3,0.5-0.5,1-0.8,1.5c-0.5,0.9-1,1.8-1.4,2.7c-0.6,1.3-1.1,2.7-1.6,4.1c-0.1,0.2,0,0.4,0,0.6
		c0.1,0,0.2,0.1,0.2,0.1c0.5-0.8,1-1.6,1.5-2.3c0.1,0.7-0.7,2.5-1.3,2.8c-0.2,0.1-0.4,0.2-0.6,0.2c-1.2,0-2,0.6-1.8,1.7
		c0.3,1.3,0.2,2.1-1.3,2.4c-0.6,0.1-1,0.7-0.9,1.4c0.1,0.7,0.4,1.4,1.1,1.7c0.4,0.2,0.6,0.3,0.8,0.8c0.3,0.9,1.2,1.1,1.8,0.3
		c0.6-0.9,1.1-1.9,1.6-2.8c0.3-0.7,0.6-1.4,0.9-2.1c0.1-0.3,0.4-0.6,0.6-0.8C95.3,94.1,95.4,94.1,95.4,94.1z"/>
	<path d="M106,65.8c-0.4,0.3-0.9,0.5-1.4,0.9c0-0.5,0.3-0.8,0.7-1c0.7-0.3,0.7-0.7,0.6-1.3c-0.1-0.7-0.4-1.2-1.1-1.4
		c-0.9-0.2-1.9-0.3-2.6,0.5c-0.1,0.1-0.2,0.1-0.3,0.1c0,0-0.1,0-0.1-0.1c0.5-1.2,1.6-1.7,3-1.4c-0.6,0.1-1.1,0.3-1.7,0.4
		c0,0.1,0,0.1,0,0.2c0.6,0,1.2-0.1,1.7,0c1,0.2,1.6,0.9,1.6,2c0,0.5,0,1,0.1,1.4c0.1,0.2,0.3,0.5,0.5,0.6c0.7,0.3,0.9,0.1,1.1-0.6
		c0.3-1.7-0.5-3-2.1-3.5c-0.2-0.1-0.5-0.2-0.7-0.4c1.5,0,2.7,0.4,3.3,1.9c0.2,0.4,0.4,0.6,0.8,0.7c1.1,0.2,1.8,0.8,2.4,1.7
		c0.1,0.2,0.4,0.2,0.6,0.4c0.3,0.3,0.6,0.5,0.7,0.9c0.1,0.4-0.1,0.6-0.6,0.5c-0.7-0.2-1.4-0.4-2.2-0.5c-0.3,0-0.7,0.2-1,0.3
		c-0.3,0.1-0.6,0.5-0.7,0.5c-0.6-0.2-1.1-0.5-1.6-0.8c-0.3-0.2-0.4-0.6-0.6-0.9C106.3,66.4,106.2,66.1,106,65.8z"/>
	<path d="M191.5,34.3c-0.2,0.7-0.4,1.5-0.7,2.2c-0.1,0.2-0.3,0.3-0.4,0.5c0-0.2-0.2-0.4-0.1-0.6c0.1-0.5,0.2-1.1,0.3-1.6
		c-1.8-0.8-2.6-2.4-3.4-4c-0.5-1.2-0.2-2.4,0.3-3.5c0.8-1.6,0.3-3-0.7-4.2c-1.4-1.9-3-3.7-4.7-5.4c-1.2-1.3-2.5-2.4-3.7-3.5
		c0.8,0.2,4.1,3,5.8,4.9c1.7,2,3.6,3.8,4.3,6.7c1-1.5,2.2-1.6,3.4-0.7c1.3,0.9,2.1,2.5,1.8,3.7c-0.3,1.1-1.2,1.9-2.2,2
		c0.4-0.4,0.8-0.8,1.2-1.2c0.3-0.4,0.5-0.9,0.5-1.3c0.1-1.4-0.7-2.3-1.7-3.1c-0.6-0.5-1.3-0.4-1.9,0.1c-1.4,1.1-1.9,2.7-1.8,4.4
		c0,1.7,1,3,2.1,4.1C190.2,34,190.9,34.1,191.5,34.3z"/>
	<path d="M180.6,99c0-0.6-0.2-1,0-1.4c0.9-2.5,1.7-5,2.2-7.6c0.5-2.6,1.1-5.2,1.8-7.8c0.1-0.5,0.6-0.9,1-1.5
		C185.9,83.6,182.3,97.3,180.6,99z"/>
	<path d="M154,110.1c0.2-0.2,0.4-0.6,0.7-0.7c1-0.6,2-1.2,3-1.8c0.3-0.2,0.5-0.3,0.7-0.5c-0.7-1.2-0.4-2.4,0.9-3
		c0.9-0.4,1.8-0.5,2.7-0.2c1.2,0.3,1.9,1.1,2.1,2.4c0.1,0.7,0,1.3-0.9,1.5c-0.9,0.2-1.8,0.5-2.7,0.8c-1.5,0.5-2.9,1.1-4.4,1.6
		c-0.6,0.2-1.2,0.3-1.9,0.4C154.1,110.3,154.1,110.2,154,110.1z M161.3,106.5c-0.5,0.8-1.2,1-1.9,1c-0.5,0-1,0.4-1.1,0.8
		c1-0.3,2.1-0.5,3.2-0.8c0.7-0.2,1.3-0.6,1.9-0.9c0.1,0,0.1-0.2,0.1-0.3c0.1-0.7-0.6-1.7-1.3-1.8c-1-0.1-1.9-0.1-2.8,0.4
		c-0.7,0.4-0.5,0.9-0.4,1.4c0.2,0.6,0.6,0.7,1.1,0.5C160.4,106.6,160.8,106.6,161.3,106.5z"/>
	<path d="M89.7,84.9c0.4-3.8,0.9-7.5,3.1-10.9c-0.1,0-0.3-0.1-0.4-0.1c-1.8,2.3-2.3,5.2-3.2,7.9c-0.1,0-0.2,0-0.3-0.1
		c0.5-1.8,0.9-3.5,1.4-5.3c0.2-0.8,0.7-1.4,1-2.2c0.4-0.7,1-0.9,1.7-0.9c0.2,0,0.5,0.4,0.5,0.5c0,0.5-0.1,1.1-0.4,1.4
		c-1.2,1.6-1.6,3.6-2.2,5.4c-0.4,1.2-0.7,2.5-1.1,3.7C89.8,84.7,89.7,84.8,89.7,84.9z"/>
	<path d="M117.2,101.2c0.8,1.1,1.7,2.2,2.5,3.4c2.6,3.9,5.3,7.8,8.7,11c0.4,0.3,0.8,0.6,1.2,0.9c0.5,0.4,0.9,0.8,0.7,1.6
		c-0.3-0.2-0.6-0.3-0.8-0.5c-3.1-2.4-5.4-5.6-7.6-8.8c-1.5-2.2-2.9-4.4-4.4-6.6c-0.2-0.3-0.3-0.5-0.4-0.8
		C117.1,101.3,117.1,101.3,117.2,101.2z"/>
	<path d="M160.9,17.2c1.7-0.7,3.4-1.4,5-2.2c0,0.1,0.1,0.1,0.1,0.2c-1.8,0.9-3.7,1.8-5.5,2.6c0,0-0.1-0.1-0.1-0.1
		c1-2.4,1.9-4.7,2.9-7.1c0,0-0.1-0.1-0.1-0.1c-0.8,0.6-1.6,1.2-2.4,1.8c-1.2,0.9-2.4,1.8-3.5,2.8c-1.7,1.4-2.7,3.3-3.5,5.3
		c0,0.1-0.1,0.2-0.1,0.3c0,0-0.1,0-0.2,0.1c-0.2-2.8-0.4-5.6-0.6-8.4c0.1,0,0.2,0,0.3,0c0.1,1.1,0.2,2.2,0.2,3.4
		c0.1,1.1,0.1,2.3,0.2,3.6c0.2-0.4,0.4-0.6,0.4-0.8c0.5-1.9,2-3.1,3.5-4.2c2-1.5,4-2.9,6-4.4c0,0,0.1,0,0.3,0
		C162.7,12.4,161.8,14.8,160.9,17.2z"/>
	<path d="M173.6,19c-0.5,0.7-1,1.5-1.5,2.2c-1,1.1-2,2.2-3,3.3c2.3,0.8,4.7,1.6,7,2.4c0,0.1,0,0.1-0.1,0.2c-3-1-6.4-0.7-9.3-2.4
		C169.2,22.9,171.7,21.3,173.6,19C173.6,19,173.6,19,173.6,19z"/>
	<path d="M209.3,124.7c-0.4-0.4-0.8-0.8-1.4-1.3c0.4,0,0.6,0,0.8-0.1c0,0,0,0,0,0c1,0.2,2,0.4,2.9,0.7c0.8,0.2,1.6,0.6,2.3,1
		c0.2,0.1,0.2,0.7,0.2,1c0,0.1-0.4,0.3-0.5,0.3c-0.7-0.1-1.4-0.1-2.1-0.3C210.7,125.6,210,125.1,209.3,124.7L209.3,124.7z"/>
	<path d="M169.1,5.7c1.5-0.6,3-0.7,4.5-0.5c2,0.3,3.9,0.8,5.8,1.2c0.4,0.1,0.8,0.4,1.1,0.7c0.2,0.2,0.3,0.6,0.2,0.8
		c-0.1,0.2-0.4,0.5-0.7,0.5c-1.4,0.2-2.7-0.1-3.7-1.2c-0.9-1.1-2.1-1-3.3-1.2C171.7,5.9,170.4,5.8,169.1,5.7z M176.6,6.9
		c0,0,0,0.1,0,0.1c0.3,0.2,0.7,0.5,1,0.7c0.7,0.6,1.9,0.7,2.7,0.2c0.1-0.1,0.2-0.5,0.1-0.6c-0.5-0.3-0.9-0.7-1.5-0.9
		c-1.8-0.4-3.6-0.7-5.4-1c-0.4-0.1-0.8,0-1.1-0.1c-0.4,0-0.7,0-1.1,0c2.2,0.3,4.4,0.6,6.4,1.4c0,0.1,0,0.1,0,0.2
		C177.2,7,176.9,6.9,176.6,6.9z"/>
	<path d="M199.7,125.4c-1.6,1.7-3.1,3.5-4.7,5.2c2.3-1.2,3.8-3.3,5.5-5.1c0.1,0,0.1,0.1,0.2,0.1c-0.2,0.3-0.4,0.7-0.6,1
		c-1.1,1.9-2.6,3.4-4.5,4.5c-0.4,0.3-0.9,0.4-1.4-0.3c1.7-1.9,3.4-3.8,5.2-5.7C199.6,125.3,199.6,125.3,199.7,125.4z"/>
	<path d="M180.1,26.4c-0.2-0.1-0.5-0.1-0.7-0.2c-0.5-0.2-1-0.5-1.5-0.7c-0.7-0.3-1.3-0.6-2,0.1c-0.6,0.5-1.9-0.2-2.4-1.2
		c-0.4-0.8-0.2-1.7,0.7-2.1c0.2-0.1,0.7-0.1,0.9,0c1.6,1.2,3.3,2.4,4.9,3.5c0.1,0.1,0.2,0.2,0.3,0.3
		C180.1,26.3,180.1,26.3,180.1,26.4z M177.2,24.8c0.1-0.1,0.1-0.2,0.2-0.3c-0.9-0.6-1.7-1.2-2.6-1.7c-0.2-0.1-0.6-0.1-0.8,0.1
		c-0.2,0.2-0.4,0.7-0.3,0.9c0.2,0.7,0.7,1.3,1.5,1.4c0.2,0,0.6-0.2,0.8-0.4c0.1,0-0.1-0.4-0.2-0.6c-0.1-0.2-0.3-0.3-0.4-0.5
		c0.1-0.1,0.1-0.1,0.2-0.2C176.1,24,176.6,24.4,177.2,24.8z"/>
	<path d="M96.7,93.5c0,0.6,0,1.2,0,1.7c0,0.3-0.1,0.5-0.2,0.8c-1.3,2.8-1.4,5.8-1.3,8.9c0,0.5-0.2,1-0.2,1.5c-0.1,0-0.2,0-0.3,0
		c0-0.3,0-0.7,0-1c-0.3-2.2-0.2-4.3,0.2-6.5c0.2-0.9,0.5-1.8,0.8-2.7c0.3-0.9,0.6-1.7,0.9-2.6C96.6,93.5,96.7,93.5,96.7,93.5z"/>
	<path d="M161,7.1c3-0.3,12.5,4.7,13.6,7.1C170.5,10.9,166.2,8.1,161,7.1z"/>
	<path d="M176.4,14.6c-0.6,0.2-1.1,0.5-1.7,0.6c-1.6,0.5-3.3,1-4.9,1.5c-2,0.6-4,1.3-6,1.9c-0.2,0.1-0.4,0.1-0.6,0.2
		c-0.1,0-0.2,0.1-0.3,0.1c-0.1-0.1-0.1-0.1-0.2-0.2c0.8-1,1.5-2,2.3-3c0.1,0.1,0.1,0.1,0.2,0.2c-0.6,0.8-1.2,1.6-1.9,2.5
		c0.3-0.1,0.5-0.1,0.6-0.2c2.4-1.2,5-1.6,7.5-2.2c1.5-0.4,2.8-1,4.2-1.5c0.4-0.1,0.7-0.3,1.1-0.4c0,0.1,0.1,0.1,0.1,0.2
		C176.7,14.4,176.6,14.5,176.4,14.6C176.4,14.6,176.4,14.6,176.4,14.6z"/>
	<path d="M194.6,124.9c-1.9,2.4-8.7,5.4-9.8,4.4c0.1,0,0.2-0.1,0.3-0.1c0.7-0.1,1.4-0.1,2-0.4c2.2-1,4.3-2.2,6.5-3.3
		C193.9,125.3,194.2,125.1,194.6,124.9z"/>
	<path d="M122.8,142.9c-0.3,0-0.6,0.1-0.8,0c-1.2-0.7-2.5-1.4-3.7-2.2c-0.2-0.1-0.2-0.5-0.4-0.8c0.3,0,0.6-0.1,0.8,0
		c1.5,0.6,2.9,1.4,4,2.7C122.9,142.7,122.9,142.8,122.8,142.9z M121.3,142.2c0-0.1,0.1-0.2,0.1-0.2c-0.8-0.5-1.7-1-2.5-1.5
		c0,0.1-0.1,0.2-0.1,0.2C119.7,141.2,120.5,141.7,121.3,142.2z"/>
	<path d="M184.5,128.7c0.6-0.4,1.1-1,1.7-1.2c2.2-0.9,4.5-1.7,6.8-2.5c0.1,0,0.2,0,0.6,0c-3.1,1.3-6,2.5-9,3.8
		C184.5,128.8,184.5,128.8,184.5,128.7z"/>
	<path d="M109.9,132c0.2,0.1,0.3,0.3,0.6,0.5c-0.2,0-0.4,0-0.5,0c-0.1,0.1-0.1,0.1-0.2,0.2c1.1,1.3,2.3,2.6,3.4,4
		c0.1,0,0.1-0.1,0.2-0.1c-0.1-0.2-0.1-0.4-0.2-0.6c0,0,0.1-0.1,0.1-0.1c0.4,0.5,0.8,1,1.2,1.6c0,0.1-0.1,0.1-0.1,0.2
		c-0.1-0.1-0.3-0.1-0.4-0.2c-1.7-0.9-3-2.1-4-3.8C109.6,133.1,109.4,132.6,109.9,132z"/>
	<path d="M209.2,124.7c0.1,0.2,0.2,0.4,0.3,0.6c-0.3,0.2-0.7,0.3-0.9,0.5c-0.6-0.2-1.1-0.3-1.6-0.6c-0.5-0.3-0.8-0.7-1.2-1.2
		c0.4,0,0.8-0.1,1.2,0C207.7,124.1,208.5,124.5,209.2,124.7C209.3,124.7,209.2,124.7,209.2,124.7z"/>
	<path d="M211.8,94.8c-1.1,0.1-2,1.1-2.1,2.2c-0.1,0.9,0.3,1.4,1.4,1.4c0.8,0,1.2-0.4,1.2-1.3c0-0.5-0.1-0.9-0.1-1.4
		c0.5,0.6,0.7,2,0.3,2.4c-0.3,0.3-0.8,0.5-1.2,0.5c-1.5,0.1-2.2-1-1.6-2.4c0.3-0.6,0.9-1.1,1.4-1.5c0.2-0.2,0.5-0.1,0.8-0.2
		C211.8,94.7,211.8,94.7,211.8,94.8z"/>
	<path d="M131.8,107.9c-1.9-0.6-3.8-1.4-5.2-3c0.2,0,0.5,0,0.6,0.1c1.5,0.9,3,1.8,4.5,2.7C131.7,107.8,131.7,107.9,131.8,107.9z"/>
	<path d="M140,109.4c1.8-0.1,3.5-0.2,5.3-0.3C144.5,109.8,142,110,140,109.4z"/>
	<path d="M204,19.7c1.2,1.7,2.5,3.3,2.7,5.6C205.8,23.3,204.9,21.5,204,19.7z"/>
	<path d="M204.2,15.9c1.5,0.8,2.6,1.9,3.5,3.3c0.1,0.1,0,0.4-0.1,0.5C206.9,18.1,205.3,17.2,204.2,15.9z"/>
	<path d="M203.8,20c0.8,1.7,1.5,3.5,2.3,5.2C204.8,23.8,204.2,21.9,203.8,20z"/>
	<path d="M138.2,94c1.2,0,2.4-0.1,3.5-1c-0.2,0.6-0.4,1.2-0.6,1.9c-0.1-0.3-0.2-0.6-0.3-0.9c-0.5,0.1-1.1,0.3-1.7,0.3
		C138.8,94.3,138.5,94.1,138.2,94L138.2,94z"/>
	<path d="M149.5,18.6c-1.7-0.5-3.3-1-5-1.5c0-0.1,0-0.1,0.1-0.2c1.7,0.4,3.3,0.9,5,1.3C149.5,18.4,149.5,18.5,149.5,18.6z"/>
	<path d="M108.6,77.1c0.3,1,0.5,2,0.8,3c0,0.1-0.1,0.2-0.2,0.2c-0.1,0-0.2-0.1-0.3-0.2c-0.2-1-0.4-2-0.6-3
		C108.4,77.1,108.5,77.1,108.6,77.1z"/>
	<path d="M176.4,14.6C176.4,14.6,176.4,14.6,176.4,14.6c-0.8,1.5-1.4,3.2-2.8,4.4c0,0,0,0,0,0C174.5,17.5,175.5,16,176.4,14.6z"/>
	<path d="M142.7,103.2c-1.3,0.5-2.7,0.8-4.1,0.4C139.9,103.5,141.3,103.3,142.7,103.2z"/>
	<path d="M210.8,122.5c1-0.1,1.6,0.5,2.3,0.9C212.3,123.8,211.6,123.4,210.8,122.5z"/>
	<path d="M210.5,105.4c-0.4,0.3-0.9,0.6-1.2,1.1c-0.3,0.6-0.2,1.3,0.4,1.8c-0.7-0.2-1-0.9-0.7-1.7
		C209.2,105.7,209.8,105.3,210.5,105.4z"/>
	<path d="M193.9,36c-0.1,0.6-0.1,1.1-0.1,1.6c0,0.1-0.2,0.2-0.3,0.2c-0.1,0-0.2-0.1-0.2-0.1C193,37.3,193.3,36.4,193.9,36z"/>
	<path d="M182.9,31.2c1,0.4,1.5,1.4,1.9,2.3C184.2,32.7,183.6,32,182.9,31.2z"/>
	<path d="M204.3,16.5c0.9,0.8,1.7,1.6,2.6,2.5c-0.1,0.1-0.1,0.1-0.2,0.2c-0.9-0.8-1.7-1.6-2.6-2.5C204.2,16.7,204.2,16.6,204.3,16.5
		z"/>
	<path d="M210.6,33.5c-0.3,0.1-0.5,0.2-0.8,0.3c0.1-0.5,0.1-0.9,0.2-1.3c0.1,0,0.2,0,0.3,0C210.3,32.8,210.4,33.1,210.6,33.5z"/>
	<path d="M144.9,95.2c0.5-0.4,1-0.4,2.1,0.3C146.3,95.4,145.5,95.3,144.9,95.2z"/>
	<path d="M192.3,105c-0.6,0.5-1.2,1.1-1.8,1.6c-0.1-0.1-0.2-0.2-0.2-0.3c0.6-0.5,1.3-1,1.9-1.5C192.2,104.9,192.2,105,192.3,105z"/>
	<path d="M149.9,16.9c0.4-0.7,0.8-1.4,1.2-2.1c0.1,0,0.1,0.1,0.2,0.1c-0.4,0.7-0.8,1.4-1.2,2.1C150,17,149.9,17,149.9,16.9z"/>
	<path d="M138.2,94c-0.3-0.1-0.7-0.3-0.8-0.4c0-0.4,0.2-0.8,0.2-1.1c0,0,0,0,0,0C137.8,92.9,138,93.5,138.2,94
		C138.2,94,138.2,94,138.2,94z"/>
	<path d="M149.4,92.8c-0.4,0.9-0.9,1.1-1.6,1.2C148.2,93.6,148.7,93.3,149.4,92.8z"/>
	<path d="M97.3,69.1c0-0.1,0.1-0.3,0.1-0.4c0.1,0,0.2,0,0.3,0c0.2,0.8,0.9,0.6,1.4,0.7c0.1,0,0.3-0.5,0.5-0.8c0,0,0,0,0,0
		c1.1,0.5,2.1,0.3,3.1-0.4c-0.3,0.6-0.6,1.2-1,1.7c0,0-0.1,0-0.1,0c0.1-0.2,0.2-0.5,0.2-0.7c-1.4-0.4-2.2,0-2.4,1c0.5,0,1,0,1.5,0
		c0,0,0,0,0,0.1c-0.3,0-0.6,0.1-0.9,0.1c-0.3,0-0.6,0-1,0.1c0-0.3,0.1-0.5,0.1-0.8C98.3,70,98,69.1,97.3,69.1z"/>
	<path d="M160.8,62.9c0.1,0.9,0.2,1.7,0.3,2.5c-0.1,0-0.1,0-0.2,0c-0.1-0.8-0.2-1.6-0.4-2.4c-0.1-0.5-0.4-0.9-0.6-1.4
		c-0.1-0.2-0.1-0.4,0-0.5c1,1.3,2,2.6,3,3.9c0.6,0.8,1.3,1.6,1.8,2.5c0.2,0.3,0.1,0.7,0.1,1.1c0.1,1,0.3,2,0.3,3
		c-0.1-0.2-0.2-0.4-0.2-0.6c-0.1-0.8-0.3-1.6-0.3-2.3c0-1.3-1-2-1.6-3c-0.3-0.5-0.7-0.9-1.2-1.5c0,0.8,0.1,1.3,0.1,2.1
		C161.4,65.1,162,63.8,160.8,62.9z"/>
	<path d="M146.9,56.8c-0.1-0.7-0.3-1.5-0.4-2.2c-0.1-0.9-0.4-1.6-1.3-1.9c-0.2-0.1-0.3-0.2-0.5-0.3c0-0.3,0.1-0.6,0.1-0.8
		c-0.1-1.2-0.1-2.4-0.3-3.5c0-0.3-0.3-0.7-0.5-0.9c-0.5-0.5-1-0.9-1.5-1.4c0.7,0.5,1.3,1,2,1.5c0.1,0.1,0.1,0.2,0.1,0.3
		c0.1,1.3,0.2,2.7,0.2,4c0,0.8,0.4,1.2,1,1.4c0.5,0.2,0.6,0.3,0.6,0.9c0.1,1,0.3,2,0.5,3C147,56.8,146.9,56.8,146.9,56.8z"/>
	<path d="M154.9,66.2c-0.4,0.8-0.7,1.6-1.1,2.6c-2.4-0.8-4.8-1.5-7.2-2.3c0,0,0-0.1,0-0.1c0.9,0.2,1.8,0.4,2.6,0.7
		c1.3,0.4,2.5,0.9,3.8,1.4c0.4,0.1,0.6,0.1,0.8-0.3c0.2-0.7,0.6-1.3,0.9-1.9C154.8,66.2,154.9,66.2,154.9,66.2z"/>
	<path d="M153.1,63.1c-0.7-1.6-1.5-3.3-2.2-4.9c0.1,0,0.1-0.1,0.2-0.1c0.8,1.6,1.6,3.2,2.3,4.9C153.2,63,153.1,63,153.1,63.1z"/>
	<path d="M141.2,42.7c-0.4-0.3-0.9-0.5-1.2-0.9c-0.4-0.4-0.8-0.9-1.2-1.4c0.2,0.1,0.4,0.3,0.7,0.5c0.3-0.9,0.5-1.7,0.8-2.5
		c0,0,0.1,0,0.1,0c-0.2,0.6-0.4,1.3-0.5,1.9c-0.1,0.3-0.2,0.6-0.1,0.9c0,0.1,0.4,0.2,0.5,0.3C140.7,41.9,140.9,42.3,141.2,42.7z"/>
	<path d="M148.7,72.8c-1.1-0.3-1.4-0.7-1.4-1.8c0-1.1,0.1-2.1,0.1-3.2c0.6,0.4,0.2,1,0.2,1.6c0,0.8,0,1.5,0,2.3
		c0,0.2,0.3,0.4,0.4,0.5C148.2,72.5,148.5,72.7,148.7,72.8z"/>
	<path d="M164.7,74.1c-1.7-0.2-3.4,0.2-5-0.3c0-0.1,0-0.2,0-0.2C161.4,73.8,163,74,164.7,74.1z"/>
	<path d="M146,46c0.1,1.5,0.2,3.1,0.3,4.6c-0.1,0-0.1,0-0.2,0c-0.2-1.5-0.3-3.1-0.5-4.6C145.7,46,145.9,46,146,46z"/>
	<path d="M145,66.2c-0.3,0-0.7,0.1-1,0c-1.3-0.3-2.5-0.6-3.8-1c-0.1,0-0.2-0.1-0.3-0.3C141.6,65.4,143.3,65.8,145,66.2
		C145,66.2,145,66.2,145,66.2z"/>
	<path d="M160.5,34.5c-0.3,1.5-0.6,2.9-0.9,4.4c-0.1,0-0.1,0-0.2,0c0.3-1.5,0.6-2.9,0.9-4.4C160.4,34.5,160.4,34.5,160.5,34.5z"/>
	<path d="M151.2,37.9c0.2-1.5,0.4-2.9,0.6-4.3c0.1,0,0.1,0,0.2,0c-0.2,1.4-0.4,2.9-0.7,4.3C151.4,37.9,151.4,37.9,151.2,37.9z"/>
	<path d="M165,40.5c-0.1,1.1-0.2,2.1-0.3,3.2c-0.1,0-0.1,0-0.2,0c0.1-1.1,0.1-2.1,0.2-3.2C164.8,40.5,164.9,40.5,165,40.5z"/>
	<path d="M154.7,78.7c0.2-0.1,0.4-0.3,0.6-0.3c1,0.1,2,0.2,3,0.3C157.1,78.6,155.9,78.6,154.7,78.7
		C154.7,78.6,154.7,78.7,154.7,78.7z"/>
	<path d="M149.1,72c-0.1,0-0.3,0-0.3-0.1c-0.4-0.9-0.5-1.8-0.3-2.8C148.7,70.1,148.9,71.1,149.1,72L149.1,72z"/>
	<path d="M160.2,57.2c-0.1,1.1-0.2,2.3-0.3,3.4c-0.1,0-0.1,0-0.2,0c0.1-1.1,0.2-2.2,0.3-3.4C160.1,57.2,160.2,57.2,160.2,57.2z"/>
	<path d="M148.1,35.3c-0.1,1-0.2,2-0.3,3c-0.1,0-0.1,0-0.2,0c0.1-1,0.2-2,0.3-3C148,35.3,148,35.3,148.1,35.3z"/>
	<path d="M147.9,45.7c0.6-0.6,1.2-1.3,1.8-1.9c0.1,0.1,0.1,0.1,0.2,0.2c-0.6,0.6-1.2,1.3-1.8,1.9C147.9,45.8,147.9,45.8,147.9,45.7z
		"/>
	<path d="M158.7,44.3c0.1-0.8,0.2-1.7,0.3-2.6c0.2,0.2,0.4,0.3,0.5,0.5C158.6,42.6,159.1,43.6,158.7,44.3z"/>
	<path d="M166.8,61.9c-0.8-0.7-1.6-1.3-2.4-2c0,0,0,0,0-0.1C165.2,60.5,166,61.2,166.8,61.9C166.8,61.9,166.8,61.9,166.8,61.9z"/>
	<path d="M163.3,72.2c0.8,0.5,1.6,0.9,2.4,1.4c0,0.1-0.1,0.1-0.1,0.2c-0.8-0.5-1.6-1-2.4-1.5C163.3,72.3,163.3,72.3,163.3,72.2z"/>
	<path d="M164.7,58.2c0.2-1,0.5-1.9,0.7-2.9c0.1,0,0.1,0,0.2,0c-0.3,1-0.5,1.9-0.8,2.9C164.8,58.2,164.7,58.2,164.7,58.2z"/>
	<path d="M147.6,56c0.8,0.4,1.6,0.7,2.4,1.1c0,0.1-0.1,0.1-0.1,0.2c-0.8-0.4-1.6-0.7-2.4-1.1C147.6,56.1,147.6,56,147.6,56z"/>
	<path d="M149.1,72c0.6,0.5,1.2,1,1.8,1.4C150.2,73,149.3,72.9,149.1,72C149.1,72,149.1,72,149.1,72z"/>
	<path d="M142,46.6c0-0.9-0.1-1.8-0.1-2.6c0.1,0,0.1,0,0.2,0c0,0.9,0.1,1.8,0.1,2.6C142.1,46.6,142,46.6,142,46.6z"/>
	<path d="M139.9,53.4c0.6-0.5,1.1-1.1,1.7-1.6c0,0,0.1,0.1,0.1,0.1c-0.6,0.5-1.2,1.1-1.7,1.6C140,53.5,139.9,53.4,139.9,53.4z"/>
	<path d="M194.3,46.1c-0.5-0.3-0.9-0.6-1.4-0.9c0,1.6,0,3.3,0,4.9c-0.1,0-0.2,0-0.3,0c0-1.1,0-2.1,0-3.2c0,0,0-0.1,0-0.1
		c0-1.1,0.2-2.3-1.5-2.7c0.1-0.1,0.1-0.1,0.2-0.2c1,0.6,2,1.3,3.1,1.9C194.4,45.9,194.4,46,194.3,46.1z"/>
	<path d="M197.9,54.9c-0.2-1.1-0.5-2.2-0.7-3.2c0.1,0,0.2,0,0.3-0.1c0.2,1.1,0.5,2.2,0.7,3.2C198,54.8,197.9,54.9,197.9,54.9z"/>
	<path d="M187.8,55.8c1.1-0.8,2.2-1.5,3.3-2.3c0,0.1,0.1,0.1,0.1,0.2c-1.1,0.8-2.2,1.5-3.3,2.3C187.9,55.9,187.9,55.9,187.8,55.8z"
		/>
	<path d="M186.3,48c0.8-0.4,1.7-0.9,2.5-1.3c0,0.1,0.1,0.1,0.1,0.2c-0.8,0.4-1.7,0.9-2.5,1.3C186.4,48.1,186.3,48.1,186.3,48z"/>
	<path d="M203.9,48.5c0.7-0.8,1.3-1.5,2-2.3c0.1,0,0.1,0.1,0.2,0.1c-0.7,0.8-1.3,1.6-2,2.3C204,48.6,203.9,48.5,203.9,48.5z"/>
	<path d="M176.7,55c-0.4,0.7-0.7,1.3-1.1,2c-0.1,0-0.1-0.1-0.2-0.1c0.4-0.7,0.8-1.3,1.2-2C176.6,55,176.7,55,176.7,55z"/>
	<path d="M175.1,50.3c-0.4,0.4-0.9,0.8-1.3,1.1c0,0-0.1-0.1-0.1-0.1C174.1,51,174.6,50.7,175.1,50.3
		C175.1,50.3,175.1,50.3,175.1,50.3z"/>
	<path d="M116.8,32.4c-0.3-0.7-0.4-1.6,0-2.5c0.8-1.7,1.8-3.4,2.7-5.1c0.1-0.2,0.2-0.3,0.4-0.4C118.8,27.2,117.8,29.8,116.8,32.4z"
		/>
	<path d="M124.4,38.2c-1.2,1-2.8,1.4-3.5,3c-0.1,0-0.2-0.1-0.3-0.1c0.1-0.3,0.1-0.6,0.2-0.7C121.8,39.2,123.1,38.7,124.4,38.2z"/>
	<path d="M119,39.4c-1.1-0.9-2.3-0.8-3.6-0.7c0.1-0.4,0.1-0.7,0.7-0.5c0.3,0.1,0.7,0.1,1.1,0.1C117.9,38.3,118.6,38.6,119,39.4z"/>
	<path d="M124.6,40.1c-0.7,0.3-1.4,0.7-2.3,1.1c0.4,0.2,0.6,0.3,0.8,0.4c-0.1,0.1-0.1,0.1-0.2,0.2c-0.2-0.2-0.5-0.3-1-0.6
		c1-0.5,1.8-0.9,2.6-1.3C124.6,40,124.6,40.1,124.6,40.1z"/>
	<path d="M224.7,40.2c-2,3.6-4.5,6.8-7.6,9.5c-0.3,0.3-0.4,0.7-0.6,1.1c0-0.1,0-0.3,0-0.7c-1,0.8-1.9,1.5-2.9,2.2
		c0,0-0.1-0.1-0.1-0.1c0.2-0.2,0.4-0.4,0.5-0.6c-2.1-0.5-4.2-1.1-6.3-1.6c0-0.1,0.1-0.2,0.1-0.3c0.8,0.2,1.5,0.5,2.3,0.7
		c1.4,0.3,2.7,0.5,4.1,0.8c0.2,0,0.5-0.1,0.7-0.3c1.7-1.3,2.6-3.1,3.4-5c0.3-0.9,0.7-1.7,1-2.6c0.1-0.2,0.3-0.4,0.5-0.4
		c0.8-0.1,1.5-0.2,2.4-0.3c-0.3-0.9-0.5-1.8-0.8-2.7c0.1,0,0.2,0,0.2-0.1c0.2,0.7,0.4,1.4,0.6,2.1c0.1,0.2,0.2,0.5,0.4,0.7
		c0.2-0.2,0.4-0.5,0.7-0.7l0,0C223.7,41.3,224.2,40.8,224.7,40.2z M222.8,42.7c-1.1,0.1-1.9,0.3-2.7,0.3c-0.4,0-0.6,0.2-0.7,0.6
		c-0.5,1.4-1,2.8-1.6,4.2c-0.2,0.4-0.5,0.8-0.7,1.2C219.4,47.4,221,45.2,222.8,42.7z"/>
	<path d="M213,52.8c-2,1.4-4,2.8-6,4.2c0-0.1-0.1-0.1-0.1-0.2c2-1.4,4-2.8,6-4.3C212.9,52.7,213,52.8,213,52.8z"/>
	<path d="M223.3,41.9c-0.3-1-0.5-2-0.8-3c0.1,0,0.2,0,0.3-0.1C223,39.8,223.1,40.8,223.3,41.9C223.3,41.9,223.3,41.9,223.3,41.9z"/>
	<path d="M127.1,71.3c-0.2-0.1-0.5-0.1-0.6-0.2c-0.6-0.5-1.1-0.2-1.4,0.4c-0.4,0.8-0.7,1.7-1.1,2.6c0.1,0.1,0.2,0.2,0.3,0.2
		c0.4-0.2,0.9-0.5,1.3-0.7c0.2-0.1,0.5-0.2,0.7-0.3c-0.7,0.5-1.1,1.5-2.2,1.5c-0.2,0-0.3,0.4-0.5,0.6c0.4-1.7,0.4-3.5,2-4.8
		c0.4-0.3,0.5-1,0.5-1.6c0-0.4-0.8-0.6-1.2-0.2c-0.3,0.3-0.5,0.6-0.8,0.9c-0.3,0.3-0.6,0.8-1,0.9c-1.3,0.5-1.5,1.7-2,2.8
		c-0.2,0.4-0.3,0.8-0.5,1.2c-0.1,0-0.1,0-0.2-0.1c0.1-0.5,0.3-0.9,0.4-1.5c-0.3,0-0.5,0.1-0.7,0.1c0-0.1,0.1-0.1,0.1-0.1
		c0.6,0,0.9-0.4,1-0.9c0.2-0.7,0.6-1.2,1.3-1.5c0.4-0.2,0.7-0.6,1.2-0.9c-0.3-0.2-0.5-0.3-0.6-0.4c0.6,0.3,0.9-0.1,1.3-0.5
		c0.2-0.3,0.7-0.5,1.1-0.5c0.7,0,1,0.4,0.7,1C125.9,70.5,126.3,70.9,127.1,71.3z"/>
	<path d="M138.2,80.2c-1,0.2-2,0.5-3,0.7C136.2,80.5,137.1,79.9,138.2,80.2C138.2,80.2,138.2,80.2,138.2,80.2z"/>
	<path d="M131.5,73.6c-0.3-0.3-0.5-0.6-0.9-1c0.3-0.4,0.7-0.8,1-1.2c0,0,0.1,0.1,0.1,0.1c-0.3,0.3-0.5,0.6-0.8,0.9
		C131.2,72.9,131.4,73.3,131.5,73.6C131.5,73.6,131.5,73.6,131.5,73.6z"/>
	<path d="M226.9,32.6c-0.1,0.3-0.2,0.6-0.3,0.8c-0.5,0.8-1.1,1.6-1.7,2.3c-0.1-0.1-0.2-0.1-0.3-0.2
		C225.4,34.5,226.2,33.5,226.9,32.6C227,32.6,226.9,32.6,226.9,32.6z"/>
	<path d="M107.7,71.2c-0.6,2-1.2,2.5-2.8,2.2C104.9,72.2,105.6,71.6,107.7,71.2z M105.1,73.2c1.4,0.1,1.8-0.2,2.1-1.6
		C105.8,71.8,105.8,71.8,105.1,73.2z"/>
	<path d="M115,76.3c0.2-0.1,0.3-0.2,0.5-0.2c0.6-0.2,1.2-0.3,1.8-0.5c0.2,1.6-0.2,1.9-2.8,1.8C114.7,77,114.9,76.7,115,76.3
		c0,0.3-0.1,0.6-0.2,1c1.9,0.1,2.3-0.2,2.2-1.3C116.4,76.1,115.7,76.2,115,76.3z"/>
	<path d="M108.7,73.3c-0.2,0.4-0.3,0.8-0.5,1.3c0.7-0.2,1.4-0.1,1.9-0.4c0.4-0.2,0.5-0.8,0.8-1.3c0,1.2-0.2,1.5-1.3,1.7
		c-0.5,0.1-1,0.1-1.7,0.2C108.2,74.2,107.9,73.4,108.7,73.3z"/>
	<path d="M126.5,81.6c0.1-0.3,0.2-0.7,0.2-1c-1.3-0.2-2.1,0.2-2.6,1.3c0.1-0.4,0.2-0.8,0.3-1.3c0.8-0.1,1.5-0.3,2.5-0.4
		c-0.1,0.5-0.1,1-0.2,1.4C126.6,81.6,126.5,81.6,126.5,81.6z"/>
	<path d="M127.3,83.4c-0.3-0.3-0.1-1.2,0.3-1.2c0.8-0.2,1.7-0.3,2.7-0.4c-0.2,0.4-0.3,0.7-0.4,0.9c0,0,0,0,0,0c0-0.2,0-0.4,0-0.7
		c-0.5,0.1-1,0.3-1.5,0.3C127.5,82.3,127.3,82.8,127.3,83.4L127.3,83.4z"/>
	<path d="M102.5,71.7c0.3,0,0.6-0.1,0.9-0.1c0,0.1,0,0.1,0,0.2c-0.4,0.1-0.8,0.2-1.3,0.2c0.3-1.6,0.4-1.6,2.1-1.8
		C103.6,70.6,102.4,70.4,102.5,71.7z"/>
	<path d="M121.2,79.4c0.1,0,0.3,0,0.5-0.1c-0.1,0.3-0.1,0.6-0.2,1c0.7-0.1,1.2-0.2,1.8-0.2c0,0.1,0,0.1,0,0.2
		c-0.7,0.1-1.3,0.2-2,0.3C121.3,80.2,121.2,79.8,121.2,79.4z"/>
	<path d="M120.3,78.4c0-0.3,0.1-0.6,0.1-0.9c-0.6,0.1-1.2,0.3-1.8,0.4c0,0,0-0.1,0-0.1c0.7-0.2,1.3-0.4,2.1-0.7
		c-0.1,0.5-0.2,0.9-0.2,1.3C120.4,78.4,120.3,78.4,120.3,78.4z"/>
	<path d="M113.9,74.5c-0.6,0.1-1.2,0.2-1.7,0.3c0,0,0-0.1,0-0.1c0.6-0.2,1.3-0.3,2-0.5c-0.1,0.5-0.2,0.9-0.3,1.3c-0.1,0-0.1,0-0.2,0
		C113.8,75.2,113.8,74.9,113.9,74.5z"/>
	<path d="M113.4,76.1c-0.7,0.1-1.5,0.2-2.2,0.2c0-0.1,0-0.2,0-0.3c0.8-0.1,1.5-0.2,2.3-0.2C113.4,76,113.4,76,113.4,76.1z"/>
	<path d="M124.2,78.7c-0.1,0.4-0.2,0.7-0.3,1c0,0-0.1,0-0.1,0c0-0.2,0-0.4,0-0.6c-0.5,0.1-1,0.3-1.5,0.4c0,0,0-0.1,0-0.1
		C122.8,79.1,123.4,78.9,124.2,78.7z"/>
	<path d="M129.9,82.7c-0.1,0.2-0.1,0.5-0.2,0.6c-0.8,0.1-1.6,0.1-2.3,0.2c0,0,0,0,0,0C128.2,83.3,129.2,83.5,129.9,82.7L129.9,82.7z
		"/>
	<path d="M113.1,15.3c-0.5,4.7,0.2,9.4,0.9,14.2c-0.6-0.6-2-6.1-2.4-9.1c-0.3-2.1,0.5-8.1,1.2-9.1c1.5,1.5,4.2,7.4,3.3,10.1
		c-0.4-1-0.8-2.1-1.3-3.1c-0.5-1.1-1-2.1-1.4-3.1C113.3,15.2,113.2,15.3,113.1,15.3z"/>
	<path d="M170.8,97.3c-1-0.8-1.9-1.6-2.9-2.5c0-0.1,0.1-0.1,0.1-0.2c1,0.8,1.9,1.6,2.9,2.4C170.9,97.2,170.8,97.3,170.8,97.3z"/>
	<path d="M162.9,97.4c1.6,0,3.3,0,4.9,0c0,0,0,0,0,0.1C166.2,97.4,164.5,97.4,162.9,97.4C162.9,97.4,162.9,97.4,162.9,97.4z"/>
	<path d="M163.4,93.8c1,0.2,2.1,0.3,3.1,0.5c0,0.1,0,0.1,0,0.2c-1.1-0.2-2.1-0.4-3.2-0.5C163.4,93.9,163.4,93.8,163.4,93.8z"/>
	<path d="M175.2,95.9c0.2,0.1,0.4,0.2,0.7,0.4c-1.2-0.3-2.2-0.5-3.2-0.8c0,0,0-0.1,0-0.1C173.6,95.6,174.4,95.7,175.2,95.9
		C175.3,95.9,175.2,95.9,175.2,95.9z"/>
	<path d="M121.5,90.7c-1.3-0.2-2.6,0.4-3.9-0.3C118.9,90.5,120.2,90.6,121.5,90.7z"/>
	<path d="M125.9,90c-0.9,0.3-1.8,0.6-2.8,0.8c0-0.1,0-0.2-0.1-0.3C124,90.4,124.9,90.2,125.9,90C125.9,90,125.9,90,125.9,90z"/>
	<path d="M138.4,36c-1.2,1-2.3,2-3.5,2.9c0,0,0.1,0.1,0.1,0.1c1-1.1,2.1-2.2,3.1-3.3C138.2,35.9,138.3,35.9,138.4,36z"/>
</g>
</svg>
