<?xml version="1.0" encoding="utf-8"?>
<!-- Generator: Adobe Illustrator 24.0.2, SVG Export Plug-In . SVG Version: 6.00 Build 0)  -->
<svg version="1.1" id="Слой_1" xmlns="http://www.w3.org/2000/svg" xmlns:xlink="http://www.w3.org/1999/xlink" x="0px" y="0px"
	 viewBox="0 0 238.1 150.2" style="enable-background:new 0 0 238.1 150.2;" xml:space="preserve">
<g>
	<path d="M223.3,150.2c-0.2,0-0.3,0-0.5,0c0-2.5,0.1-5-0.4-7.5c-0.1-0.5-0.3-0.7-0.7-0.7c-0.8-0.1-1.6-0.2-2.4,0
		c-1.4,0.2-2.8,0.6-4.2,1c-0.1,0-0.3,0.2-0.4,0.3c-0.4,0.8-0.9,1.7-1.3,2.6c-0.6,1.4-1.4,2.8-1.3,4.4c-6.7,0-13.4,0-20.1,0
		c-2.4-2.3-4.7-4.6-7.1-7c-1.2-1.1-2.3-2.3-3.4-3.5c-1.8-1.9-3.5-3.8-5.3-5.7c-0.5-0.5-1.2-1-1.5-1.6c-0.8-1.4-1.3-3-2-4.4
		c-0.1-0.2-0.2-0.3-0.3-0.5c-0.2,0.7-0.6,1.4-0.2,2.1c0.6,1,0.7,2.1,0.3,3.3c-0.6,2-0.3,4,0,5.1c0-0.3,0-0.5,0-0.8
		c0.6,2.6-0.2,4.8-2,6.7c-0.1,0-0.3-0.1-0.4-0.1c0.3-0.4,0.6-0.9,1-1.3c0,0,0,0-0.1,0c-0.5,0.5-1,0.9-1.6,1.4
		c1.1,1.9,2.2,3.9,2.6,6.2c-13.4,0-26.7,0-40.1,0c-0.1-0.7-0.2-1.3-0.4-2c-0.2,0.2-0.3,0.4-0.4,0.7c-0.1-1.4,0.6-2.4,1.2-3.4
		c0.9-1.5,1.9-2.9,2.8-4.4c0.5-0.8,0.9-1.7,0.4-2.8c-0.1,0.2-0.1,0.3-0.1,0.4c0,0-0.1,0-0.1,0c0-0.3-0.1-0.6-0.1-1.1
		c-0.2,0.3-0.3,0.5-0.5,0.8c0.1-1.3,0.2-2.4,0.3-3.2c-0.8-0.8-1.4-1.4-2-2.1c-0.5-0.7-0.9-1.5-1.3-2.3c-0.1,0.1-0.1,0.2-0.2,0.3
		c0,0-0.1,0-0.1,0c0-0.5-0.1-1-0.1-1.3c-0.5,1.8-0.9,3.8-0.5,5.9c-0.1-0.5-0.1-0.9-0.2-1.4c0,0,0.1,0,0.1,0
		c-0.7,5.3-1.4,10.6-2.1,15.9c-0.1,0-0.2,0-0.3,0c0.1-0.5,0.1-1,0.2-1.5c0.3-2,0.6-3.9,0.8-5.9c0.2-1.9,0.5-3.9,0.6-5.8
		c0-0.4-0.1-0.9-0.3-1.3c-1.2-2.3-2.5-4.6-3.7-6.9c-0.8-1.5-1.4-3.1-2.1-4.8c-0.4,0.3-0.9,0.5-1.2,0.9c-1.1,1.4-2.2,2.8-3.3,4.3
		c-0.2,0.2-0.4,0.3-0.6,0.5c0.5-0.8,1.1-1.6,1.6-2.3c0.7-1,1.5-1.9,2.2-3c-0.3,0-0.5,0-0.7,0c-1.1,0.2-2.1-0.3-3-0.8
		c-1.5-0.8-1.9-3-1.1-4.5c1-1.9,1.9-3.9,2.4-6c0.1-0.5,0.4-1.1,0.7-1.5c1.9-2.1,3.9-4.2,5.9-6.3c0.6-0.6,1.1-1.4,1.7-2
		c-0.9-0.9-0.9-1,0.1-1.7c0.3-0.3,0.8-0.4,1.1-0.7c0.3-0.3,0.5-0.7,0.8-1.1c0-0.1-0.1-0.3-0.2-0.4c0.3-0.4,0.6-0.8,0.9-1.1
		c-0.4-0.7-1.8-0.9-0.9-2.1c-1-0.7-2.1-0.9-3.2-0.9c-2.7,0-5.1,0.9-7.3,2.3c-0.5,0.3-0.9,0.6-1.3,1c-0.6,0.7-0.5,1.5,0.2,2
		c1.5,1.1,3,2.3,4.4,3.4c-1.5,2-2.9,3.9-4.4,5.8c-2.7-3-5.7-5.6-9.9-6.6c1.7-1.6,2.7-3.5,3.4-5.6c0.8,0.3,1.6,0.6,2.4,0.8
		c-0.7-0.2-1.5-0.4-2.1-0.5c-0.9,1.7-1.8,3.4-2.7,5c3.7,1,6.1,3.9,8.9,6.2c1.1-1.7,2.3-3.4,3.5-5.2c-1.4-1.2-2.9-2.4-4.1-3.5
		c-0.5,0.4-0.8,0.7-1.2,0.9c-0.1,0.1-0.5-0.2-0.5-0.3c0-0.4,0.1-0.8,0.2-1.3c0,0-0.1-0.1-0.2-0.1c-0.6-0.4-1.2-0.7-1.9-1.1
		c0.8,0.3,1.6,0.6,2.4,1c0.1-0.1,0.3-0.3,0.5-0.5c2-1.6,4.2-3,6.7-3.6c1.2-0.3,2.5-0.5,3.8-0.2c0.8,0.2,1.6,0.5,2.4,0.8
		c0.3-0.3,0.6-0.6,0.3-0.9c0-0.5,0.1-0.7,0.1-1c0-0.6-0.1-1.3-0.1-1.9c0-0.5,0.1-0.8,0.6-0.8c0.2,0,0.5-0.3,0.6-0.5
		c0.2-0.3,0.2-0.7,0.4-0.9c0.7-1.2,0-2.3,0-3.6c-0.4,0.1-0.7,0.2-1,0.3c0.2-0.3,0.3-0.5,0.4-0.6c-0.5-0.2-1-0.4-1.6-0.7
		c0.3-0.1,0.4-0.1,0.4-0.1c-0.5-0.6-1.1-1.2-1.6-1.8c-0.5-0.6-0.8-1.2-1.7-1.2c-0.8,0-1.5-0.3-2.3-0.5c0.7-0.4,1.5-0.8,2.3-1.2
		c-1.7-0.2-2.9,0.6-4.2,1.3c0.1-0.5,0.2-0.9,0.2-1.3c0.4-2.2,1-4.4,2.1-6.3c0.1-0.2,0.1-0.5,0.1-0.9c-1.8,0.7-3.7,1.2-4.4,3.2
		c-0.1-1.8,0.8-3.1,2-4.1c-0.8-0.2-1.7-0.3-2.5-0.5c2.3-0.1,4.4-0.6,5.9-2.7c-3.7,0.7-9.8-0.5-11.3-2.3c0.2,0,0.3-0.1,0.5-0.1
		c0.9-0.1,1.4-0.5,1.7-1.5c0.9-2.7,2.2-5.2,4-7.5c0.5-0.7,1.1-1.4,1.6-2.1c-3.6,1.4-6.6,3.6-8.4,7.1c1.9-6.2,5.9-10.6,11.4-13.8
		c-11.4-1.6-16.4-7.8-18-13.7c0.2,0.3,0.4,0.7,0.7,1c0.7,0.8,1.4,1.7,2.3,2.2c1.1,0.5,2.3,0.3,3.5-0.2c1.7-0.8,3.4-1.7,5.2-2.4
		c1.9-0.8,3.8-1.4,5.5-2.1c-2.2-0.5-5.9,0.5-7.2,1.9c0.3-0.9,0.8-1.4,1.4-1.8c2.1-1.4,4.3-2.5,6.8-3.1c1.6-0.4,3.1-0.6,4.7-0.6
		c0.5,0,0.9,0.1,1.3,0.1c-1.5-1.2-3-2.5-4.6-3.7c-2.1-1.6-4.4-2.9-6.8-3.8c-1.9-0.7-3.7-1.5-5.8-1.3c6.3-2.9,12.9-3.2,19.8-2.2
		c-0.9-1.1-1.8-2.1-2.7-3.1c0,0,0.1-0.1,0.1-0.1c1.1,1,2.5,1.5,4,1.8c-0.4-0.9-0.8-1.7-1.1-2.6c-1.4-3.5-2.3-7.1-2.9-10.8
		c-0.2-1.1,0-2.2,0-3.3c0.2,0.7,0.4,1.5,0.7,2.1c0.3,0.7,0.6,1.4,1.1,1.9c0.8,1.1,1.6,2.2,2.5,3.2c2.2,2.5,4.6,4.8,7.5,6.6
		c0.8,0.5,1.8,0.9,2.7,1.4c-0.2-1-0.5-1.9-0.6-2.8c-0.3-2.9,0.3-5.7,1.5-8.4c0.8-1.9,1.9-3.6,3.1-5.3c1.4,0,2.8,0,4.3,0
		c0,0.1,0,0.2,0,0.3c0.8,1.4,1.6,2.7,2.5,4.1c0.9,1.3,1.9,2.5,2.7,3.8c0.7,1,1.2,2.1,1.9,3.3c0-0.3,0.1-0.5,0-0.7
		c-0.2-1.5-0.3-3-0.6-4.5C161.4,4,160.3,2,159.3,0c1.2,0,2.3,0,3.5,0c0.1,0.2,0.2,0.3,0.3,0.5c0.8,0.9,1.7,1.7,2.5,2.6
		c1.6,1.8,3.1,3.7,4.6,5.5c0.4,0.5,0.8,0.9,1.2,1.4c0.1-0.1,0.2-0.1,0.2-0.2c-0.5-0.9-1-1.9-1.5-2.8c1.8,1.7,2.5,4.1,4.2,5.9
		c-0.1-0.4-0.2-0.8-0.3-1.2c0,0,0.1,0,0.1,0c0.4,0.5,0.8,1.1,1.2,1.6c0.1,0,0.1-0.1,0.2-0.1c-0.8-1.4-1.7-2.8-2.6-4.3
		c3,3,4.7,6.5,4.9,10.7c0.2-1.6,0.2-3.2-0.3-4.7c-1.1-3.2-2.8-6-5.2-8.5c-2.1-2.1-4.4-3.9-7-5.3c-0.6-0.4-1.2-0.8-1.8-1.2
		c0.1,0,0.3,0,0.4,0c1.6,1,3.3,2,4.8,3.1c2.3,1.6,4.4,3.6,6,5.9c1.3,1.8,2.7,3.6,3.1,5.9c0.4-0.3,0.7-0.6,1-0.8c1-0.5,2-0.9,3-1.3
		c0.3-0.1,0.5-0.3,0.7-0.4c1.6-0.7,3.2-1.5,4.8-2.2c-1.2,1.5-2.4,3-3.5,4.4c0,0-0.1,0-0.3,0c0.3-0.5,0.5-0.8,0.7-1.2
		c-0.1,0-0.1-0.1-0.2-0.1c-1.9,2-3.7,4-5.6,6c-0.1,0.1-0.2,0.3-0.3,0.6c0.7-0.2,1.3-0.2,1.8-0.5c1-0.7,2-1.5,3-2.3
		c0.2,0,0.3,0,0.5,0c1.2-0.4,2.4-1,3.6-1.4c1.6-0.5,3.3-0.6,5.1-0.7c1.9-0.1,3.8,0.1,5.6,0.5c-0.3,0-0.6,0.1-0.8,0
		c-1.2-0.3-2.2-0.1-3.1,0.7c-1.2,0.9-2.3,1.9-3.4,2.9c-0.3,0.3-0.8,0.6-0.5,1.3c1.4-1,2.7-2.1,4.1-3c1.4-0.9,4-1.6,4.9-1.4
		c-3.5,0.6-6.3,2-8.5,4.8c0.2,0,0.2,0,0.3,0c2.4-0.4,4.8-0.7,7.2-1.3c1.5-0.4,3-1,4.4-1.8c2.1-1.2,3.6-3.1,4.7-5.2
		c0.2-0.4,0.4-0.8,0.6-1.2c0.1,0,0.1,0.1,0.2,0.1c-0.2,3.6-1.7,6.8-3.6,9.8c-1.9,3-4.2,5.7-6.8,8.1c1.1-0.4,2.2-0.8,3.4-1.2
		c0,0,0.1,0.1,0.1,0.1c-0.8,0.7-1.6,1.5-2.5,2.2c0.5,0.1,1,0.2,1.5,0.4c2.1,0.5,4.1,1.4,5.9,2.5c2.2,1.4,4,3.1,5.3,5.3
		c-0.2-0.2-0.5-0.5-0.7-0.7c-0.6-0.6-1.1-1.3-1.7-1.9c-1.5-1.4-3.1-2.6-5-3.5c-1.8-0.9-3.6-1.5-5.6-1.7c-0.5-0.1-1.1,0-1.6,0.1
		c0,0.1,0,0.1,0,0.2c0.2,0.1,0.4,0.4,0.7,0.4c0.4,0.1,0.9,0.2,1.4,0.3c1,0.2,2.1,0.3,2.9,0.8c1.4,0.8,2.8,1.7,4.1,2.7
		c1.4,1,2.8,2,4.1,3c0.2,0.2,0.5,0.4,0.7,0.6c-1.1-0.5-2.3-1.1-3.4-1.5c-1.4-0.5-2.8-0.7-4.4-0.7c2.9,2.1,5.3,4.2,7.1,7.1
		c-1.9-1.5-4.1-1.9-6.4-2.1c0,0.1-0.1,0.1-0.1,0.2c2.5,1.4,5.1,2.8,7.6,4.2c-0.1-0.1-0.2-0.1-0.4-0.2c-0.8-0.2-1.6-0.5-2.4-0.7
		c-0.8-0.2-1.6-0.2-2.3-0.4c-1.4-0.5-2.8-1.2-4.2-1.9c-0.6-0.3-1.1-0.5-1.7-0.8c0,0.1-0.1,0.1-0.1,0.2c0.9,0.7,1.8,1.4,2.7,2
		c-3.5-0.4-6.6-2.2-9.8-3.8c0,0.1-0.1,0.2-0.1,0.3c5.7,3.6,12,5.1,18.6,5.3c-1.3,0-2.7,0.1-4,0c-1.4-0.1-2.7-0.5-4.1-0.7
		c-1.3-0.2-2.6-0.5-3.9-0.7c0,0,0,0.1-0.1,0.1c1.3,0.9,2.5,1.9,3.8,2.6c1.3,0.7,2.8,1.3,4.2,1.9c0,0,0,0.1,0,0.1
		c-1.9-0.2-3.8-0.4-5.6-0.5c1.1,0.8,2.4,1.7,3.5,2.6c1.6,1.3,2.5,2.6,2.7,3.5c-0.4-0.6-0.6-1.1-1-1.5c-1.7-1.9-3.6-3.5-6-4.5
		c-1.7-0.8-3.4-1.5-5.2-2.2c-0.1-0.1-0.3,0-0.5,0c1.2,0.8,2.5,1.4,3.7,2.1c1.2,0.7,2.5,1.3,3.4,2.4c0,0.1-0.1,0.2-0.1,0.2
		c-1.8-0.9-3.7-1.7-5.5-2.6c0,0,0,0.1-0.1,0.1c3.6,2,7.3,4,10.9,6.1c0,0-0.1,0.1-0.1,0.1c-1.3-0.7-2.7-1.3-3.9-2
		c0.7,1.2,1.4,2.5,2.1,3.7c0,0-0.1,0-0.1,0c-0.8-0.7-1.7-1.4-2.5-2.1c3.6,5.2,4.7,10.9,4.1,17.1c-1.4-4.1-2.2-5.2-4.5-5.8
		c-0.7,0.6-1.4,0.2-2.1,0.3c1.5,1.6,2.9,3.1,3.4,5.2c-2-2.3-4.7-3.4-7.5-4.3c0.1,0.2,0.3,0.3,0.4,0.5c0.2,0.2,0.3,0.3,0.5,0.5
		c2,1.9,3.4,4.2,4,6.9c0.1,0.6,0.1,1.2,0.2,1.8c-0.1,0-0.1,0-0.2,0.1c-0.4-0.3-0.8-0.7-1.2-1c-0.4-0.3-0.8-0.6-1.2-0.9
		c-0.4-0.3-0.9-0.5-1.3-0.8c2,2,3.6,4.2,4,7.2c-2.5-2-5.1-3.4-8.2-3.9c1.1,1.4,2.1,2.9,2.5,4.6c-0.7-0.6-1.4-1.2-2-1.8
		c-0.1,0.4-0.2,0.7-0.4,0.9c-1,2-2.2,3.8-3.5,5.5c-0.9,1.1-1.9,1.9-3.3,2.1c-0.3,0-0.6,0.1-0.9,0.2c-0.9,0.3-1.7,0.7-2.2,1.6
		c-0.6,1.2-1.1,2.5-1.6,3.8c0.1,0.2,0.3,0.4,0.3,0.6c0.4,1.5,0.8,3,1,4.6c0.2,1.4,0.5,2.4,1.9,3.1c2.1,1,4,2.3,6,3.5
		c2.4,1.4,4.8,2.8,7.2,4.3c1.2,0.7,2.4,1.4,3.6,2.1c2,1.3,3.9,2.7,5.9,4c3.3,2.1,5.9,4.9,8.1,8.1c2.5,3.8,4.1,8,5.3,12.4
		C222.7,141.5,223.2,145.8,223.3,150.2z M212.1,128.9c0.6,1.1,1.2,2.2,1.7,3.3c0.1-0.2,0-0.3,0-0.4c0-0.2,0-0.4,0-0.6
		c0.2,0.1,0.4,0.1,0.5,0.3c0.4,0.6,0.9,1.2,1.2,1.9c0.6,1.3,1.1,2.7,1.7,4.1c1.2-0.3,2.5-0.6,3.7-0.9c-1.4-5.9-6.2-13.6-8.2-14.7
		c-1,1.4-2,2.8-3,4.3c0.7,0.8,1.4,1.5,2,2.2C211.8,128.6,212,128.7,212.1,128.9z M209.1,125.9c-0.5,0.6-1,1.2-1.5,1.8
		c-0.1-0.1-0.2-0.1-0.3-0.2c0.8-1.3,1.6-2.7,2.4-4c0.1,0,0.1,0.1,0.2,0.1c-0.2,0.4-0.4,0.7-0.6,1.1c0.6-0.7,1.1-1.4,1.7-2.1
		c0.4-0.5,0.9-0.8,1.4-1.2c-0.5,0.7-1,1.5-1.5,2.2c0.3-0.3,0.6-0.6,0.8-0.9c0.2-0.4,0.5-0.8,0.7-1.3c-0.1,0-0.2-0.1-0.3-0.1
		c-1.6-1.4-3.3-2.8-4.9-4.1c-0.7-0.6-1.4-1.3-2.4-1.4c-0.3,0-0.5-0.3-0.8-0.4c-0.6-0.4-1.1-0.9-1.7-1.3c-0.2,0.1-0.4,0.2-0.5,0.3
		c-1.8,1.5-3.4,3.2-4.9,5c-0.2,0.2-0.2,0.4,0.1,0.6c0.6,0.3,0.9,0.7,0.8,1.4c-0.1,0.7,0.2,1.2,1,1.4c0.1,0,0.2,0.1,0.3,0.2
		c1,0.9,2,1.7,3,2.6c0.3,0.3,0.5,0.7,0.3,1.2c-0.2,0.4-0.1,0.9-0.1,1.4c0,0.2,0,0.4,0,0.6c-0.2,0.9-0.5,1.7-0.7,2.6
		c-0.1,0.3,0.1,0.7,0.1,1c0,0.3,0.1,0.6,0.1,0.9c-0.2,1.1-0.4,2.3-0.6,3.4c1.4-2.6,2.1-5.6,3.6-8.1c-0.4,2.8-0.8,5.6-2.1,8.3
		c1.5-1.1,2-2.7,2.8-4c1.2-2,2.3-4,3.4-6.1C209,126.5,209,126.2,209.1,125.9c0.6-0.1,1.1-0.8,1.2-1.8
		C209.8,124.7,209.4,125.3,209.1,125.9z M180.2,66.1c0.1,0.2,0.2,0.4,0.2,0.4c-0.3,0-0.6-0.1-0.9-0.1c-1.6,0-3.2,0-4.8,0.1
		c-2.1,0.1-4.2,0.2-6.3,0.4c-1.8,0.2-3.6,0.7-5.4,1c0.2,1.7,0.5,3.3,0.7,4.8c0.8-0.4,1.6-0.8,2.4-1.2c0,0,0-0.1,0-0.1
		c-0.7,0.1-1.3,0.3-2.2,0.5c1.8-1.2,6.8-2,9.3-1.5c-0.3,0-0.6,0-1,0c-2.9,0.3-5.6,1-8.1,2.6c-0.5,0.3-0.7,0.7-0.5,1.3
		c0.2,0,0.3,0,0.5,0c2.2-0.6,4.5-0.5,6.7-0.5c2.5,0.1,4.9,0.2,7.4,0.2c0.4,0,1.1-0.1,1.3,0.2c0.3,0.5,0.8,0.4,1.2,0.5
		c0.2,0.1,0.4,0.1,0.6,0.2c-0.5,0.1-0.9,0.1-1.3,0.1c-0.3,0-0.7,0-0.9,0.1c-1.1,0.7-2.2,1.5-3.3,2.3c-0.7,0.3-1.5,0.7-2.2,1
		c0,0,0,0.1,0,0.2c-0.2,0-0.4,0-0.6,0c-0.3,0-0.6-0.1-0.9,0c-1.4,0.1-2.7,0-4-0.5c-0.3-0.1-0.7-0.2-1.1-0.3c1.9,1,3.9,1.3,6,0.8
		c-0.5,0.2-1.1,0.5-1.6,0.5c-1.3-0.1-2.6-0.3-3.8-0.4c1.7,0.5,3.6,1,5.7,0.6c-1.8,0.6-3.6,1-5.5,0.3c0.1-0.1,0.1-0.2,0.2-0.3
		c0.7,0.2,1.4,0.4,2.2,0.5c0-0.1,0-0.2,0-0.3c-0.7-0.1-1.5-0.2-2.2-0.3c-0.1-0.1-0.2-0.2-0.3-0.2c-0.9-0.6-1.9-1.2-2.9-1.8
		c-0.2-0.1-0.3-0.3-0.4-0.4c-0.3-0.4-0.6-0.8-0.9-1.2c-0.7,1.7-0.5,3.5-1.9,4.8c0.2,0.1,0.3,0.2,0.6,0.4c-0.3,0.1-0.5,0.1-0.6,0.2
		c-0.2,2.3,0.7,4.1,2.1,5.6c-0.5,1.5-1,2.9-1.4,4.3c0.1,0,0.4-0.1,0.6-0.1c0.1,0,0.4,0.2,0.4,0.3c0,0.8,0,1.7,0.1,2.5
		c0,0.2-0.1,0.4,0,0.6c0.2,1.6,1.3,2.6,2.8,3.1c1.2,0.3,2.3,0.8,3.5,1.2c-0.7,0-1.5,0-2.2-0.2c-0.7-0.1-1.5-0.4-2.3-0.6
		c0.1,0.2,0.2,0.3,0.2,0.3c0.3,0.2,0.6,0.4,0.9,0.6c0.9,0.5,0.9,0.5,0.3,1.5c0.6,0.5,1.1,1,1.7,1.5c0.2,0.2,0.5,0.3,0.5,0.5
		c0,0.7,0.4,0.6,0.8,0.4c0.3-0.1,0.7-0.3,0.9-0.2c1,0.6,1.9,1.3,2.8,2c0.4,0.3,0.2,0.7,0.1,1c-0.1,0.2-0.3,0.3-0.4,0.4
		c0.3,0.4,0.5,0.5,0.9,0.1c2.4-2.6,4.4-5.5,6.3-8.5c1.7-2.8,2.9-5.7,4-8.7c0.7-1.9,1.1-3.8,1.7-5.8c0.1-0.3,0.1-0.7,0.2-1.2
		c-1.1,1.2-1.3,2.8-2.7,3.8c0.1-0.6,0.2-1.2,0.4-1.7c0.8-2.6,1.6-5.2,2.3-7.8c0.4-1.6,0.8-3.2,0.8-4.8c-0.1-2.4-0.5-4.8-0.8-7.1
		c-0.4-2.4-1.3-4.6-3.1-6.5c-1-1-1.9-2.2-2.2-3.6c-0.2-1-1-1.4-1.6-2.1c-0.8-0.9-1.7-1.6-2.6-2.4c0-0.1,0.1-0.1,0.1-0.2
		c0.3,0.1,0.7,0.2,1,0.3c-0.6-0.7-1.9-0.6-2.2-1.7c-0.5,0-1.1-0.1-1.7-0.1c0,0,0-0.1,0-0.1c0.4,0,0.7-0.1,1.2-0.2
		c-1.2-0.7-2.6-0.1-3.7-0.6c-1.1-0.5-2.3-0.2-3.4-0.5c0.5,0,0.9-0.1,1.3-0.1c-0.3-0.1-0.6-0.2-0.9-0.2c-0.3-0.1-0.8,0-1-0.2
		c-0.4-0.4-0.8-0.5-1.2-0.4c-0.4,0-0.9,0.1-1.3,0.1c-0.2,0-0.5-0.2-0.7-0.1c-0.8,0.1-1.6,0.3-2.4,0.4c-0.9,0.1-1.8,0.3-2.7,0.4
		c-0.6,0.1-1.1,0.2-1.7,0.1c-1.1-0.2-2.2-0.4-3.3-0.6c-0.3-0.1-0.7-0.4-0.8,0.3c0,0.1-0.3,0.2-0.4,0.2c-0.6,0.1-1.2,0.2-1.8,0.3
		c0,0,0,0.1-0.1,0.1c-0.1,0.1-0.1,0.1-0.2,0.2c0.2,0.1,0.5,0.2,0.7,0.4c0,0.1,0,0.2-0.1,0.2c-1,0.1-2,0.4-2.9,0.4
		c-0.7,0-1.1,0.2-1.3,0.8c0.1,0.1,0.2,0.1,0.3,0.1c-0.6,0.3-1.2,0.3-1.8,0.5c-1.7,0.6-3.3,1.2-4.9,1.9c-1.1,0.5-2.1,1-3,1.7
		c-0.4,0.3-1,0.8-0.9,1.1c0.1,0.5-0.1,0.7-0.2,1c-0.2,0.5-0.4,1-0.6,1.6c0.2-0.1,0.4-0.1,0.6-0.2c-0.1,0.2-0.1,0.3-0.2,0.5
		c-0.3,0.9-0.3,1.8-0.8,2.5c-0.8,1.2-1,2.4-1,3.8c0.2-0.1,0.3-0.1,0.3-0.1c-0.7,3.2-0.8,6.6-0.6,10c1.5,0.2,2.8,0.3,4.1-0.6
		c0.7-0.5,1.3-1,2-1.3c0.9-0.5,1.9-0.9,2.8-1.3c-0.1-0.1-0.3-0.2-0.5-0.3c0,0,0-0.1,0-0.1c0.3,0,0.7,0,1.1,0.1
		c-0.4-0.4-0.8-0.7-1.1-1.1c0-0.1,0.1-0.1,0.1-0.2c0.7,0.2,1.3,0.4,2,0.7c1.4,0.6,2.9,1.2,4.5,1.1c0.4,0,0.9,0.1,1.3,0.2
		c1.2,0.3,2.3,0.4,3.6-0.2c2.5-1.3,4.4-3.2,6.4-5c1-0.9,1.4-0.9,1.8,0.5c0,0.1,0,0.2,0.1,0.2c0.2,0.6,0.4,1.3,0.6,1.9
		c2.3-0.6,4.6-1.3,6.8-1.8c1.8-0.4,3.6-0.5,5.4-0.8c0.7-0.1,1.4-0.3,2.1,0.2c0.3,0.2,0.6,0.4,0.9,0.6c0.2,0.1,0.4,0.2,0.5,0.3
		c0,0,0-0.1,0.1-0.1c-0.5-0.3-1-0.6-1.6-1c0.6,0.1,1.2,0.1,1.8,0.2C179.4,65.5,179.8,65.8,180.2,66.1z M134.3,118.3
		c0.3,0.1,0.5,0.2,0.7,0.4c0.7,0.6,1.5,0.7,2.4,0.5c1.6-0.4,3.3-0.7,5-0.3c2.1,0.4,4.2,0.7,6.4,1c0.7,0.1,1.5,0.2,2-0.4
		c1-1,0.2-3.2-1.2-3.4c-0.2,0-0.5-0.1-0.7-0.2c-2.1-0.8-4.1-1.7-6.3-2.2c-0.2,0-0.5-0.2-0.7-0.2c-1.1,0.1-2.3,0.2-3.4,0.3
		c-1.2,0.2-2.4,0.4-3.6,0.6c0.3-0.2,0.5-0.4,0.7-0.6c-0.4-0.5-0.7-0.9-1.1-1.4c0-0.1,0.1-0.1,0.1-0.2c0.7,0.9,1.7,0.7,2.5,0.6
		c1.8-0.2,3.5-0.5,5.3,0.3c1.1,0.5,2.2,0.7,3.3,1.1c1.1,0.4,2.2,0.9,3.4,1.3c0.8,0.3,1.4-0.1,1.5-0.7c-0.5,0.7-1.1,0.8-1.8,0.3
		c0.5-0.1,1.2,0.3,1.5-0.4c0.3-0.9,0-1.6-0.7-2.2c0.1,0.1,0.3,0.1,0.4,0.2c-0.2-0.3-0.5-0.4-0.7-0.6c-1.8-1.6-3.7-3.2-5.5-4.8
		c-0.3-0.3-0.7-0.4-1.1-0.5c-1.4-0.3-2.7-0.2-4.1-0.2c-2.4,0.1-4.8,0.4-7.1,1c-0.3,0.1-0.7,0.2-0.8,0.4c-0.7,1.6-1.3,3.3,0,5
		c0-0.1,0.1-0.2,0.1-0.3c0.1,0,0.1,0.1,0.2,0.1c-0.1,0.4-0.2,0.8-0.4,1.2c-0.5,1.2-1,2.4-0.9,3.7c0.1,0.9,0.8,1.4,1.8,1.2
		c-0.1,1-0.2,2-0.5,2.9c-0.3,1.1-0.2,2.2,0.3,3.3c0.6,1.4,1.1,2.9,1.1,4.4c0,1.8,0.7,3.2,1.8,4.5c1,1.1,2.2,1.5,3.6,0.5
		c0.8-0.6,1.6-1.1,2.5-1.4c2.5-1,5.1-1.8,7.7-2.8c1-0.4,2-1,2.9-1.6c0.5-0.3,0.6-1.1,0.4-1.7c-0.2-0.5-0.4-1.1-0.6-1.7
		c0,0-0.2,0-0.4-0.1c0.3-0.2,0.5-0.4,0.7-0.6c0-0.1-0.1-0.1-0.1-0.2c-1,0-2,0.1-3,0.2c-1.6,0.1-3.2,0.1-4.7,0.4
		c-1.7,0.4-3.4,1-5.1,1.5c-0.1,0-0.2,0.2-0.3,0.3c-0.4,0.4-0.6,0.9-1.3,1.1c-0.1-0.8,0.2-1.2,0.9-1.5c1.3-0.4,2.6-0.9,3.9-1.3
		c2.6-0.8,5.4-0.9,8.1-1c1,0,1.7-0.1,2.2-1c0.4-0.7,0.5-1.4,0.2-2c-0.3-0.5-1-1-1.6-1.1c-2.6-0.4-5.1-0.6-7.7-1
		c-1.3-0.2-2.6-0.2-3.8,0.2c-0.8,0.3-1.7,0.3-2.6,0.4C135.4,119.8,134.9,119,134.3,118.3z M166.9,121.1c-0.2,1.3-0.6,1.7-1.7,1.7
		c-0.7,0-1.4,0.1-2.1,0.1c-2.3,0-4.2,1-6.2,2c-1.3,0.7-2.5,1.7-3.9,2.3c-0.9,0.4-1.3,1-1.4,1.9c-0.2,1.1,0.4,2.4,2,2
		c1.9-0.6,3.7-1.2,5.5-1.8c0.8-0.3,1.6-0.7,2.4-0.8c1.4-0.2,2.8-0.1,4.3-0.2c0.6,0,1.1-0.1,1.5-0.6c0.3-0.3,0.6-0.6,1-0.8
		c0.1,0.1,0.1,0.1,0.2,0.2c-0.4,0.5-0.7,1.2-1.1,1.3c-1.1,0.3-2.3,0.3-3.4,0.3c-0.9,0.1-1.8,0-2.7,0.2c-1.4,0.4-2.8,0.9-4.2,1.4
		c-1.3,0.4-2.5,0.9-3.8,1.1c-1.9,0.2-2.2,2.3-1.3,3.5c0.2,0.3,0.6,0.5,1,0.5c1.4,0,2.9-0.1,4.3-0.3c3.1-0.5,6.2-0.1,9.2,0.5
		c0.7,0.1,1.2,0.5,1.2,1.4c-0.3-0.1-0.5-0.2-0.7-0.4c-0.4-0.3-0.8-0.7-1.3-0.9c-0.5-0.2-1.2-0.2-1.7-0.3c-1.6-0.1-3.2-0.3-4.7-0.2
		c-2,0.1-3.9,0.3-5.9,0.5c-0.5,0-0.8,0.2-0.9,0.7c-0.4,1.2,0.1,2.2,0.8,3.1c0.1,0.1,0.3,0.2,0.5,0.3c1.1,0.5,2.2,0.4,3.4,0.5
		c1.1,0.1,2.3,0.1,3.3,0.3c1.4,0.3,2.7,0.9,4,1.4c1.2,0.5,2.4,1,3.6,1.5c0.7,0.3,1.4,0.3,2-0.2c1.6-1.4,2.3-3.2,2.1-5.3
		c-0.1-1.6-0.2-3.1,0.2-4.7c0.4-1.3,0.3-2.6-0.3-3.8c-0.4-0.8-0.6-1.7-0.9-2.6c0.6,0.2,1.1,0,1.3-0.5c0.4-0.9,0.2-1.8-0.2-2.7
		c-0.4-0.8-0.9-1.5-1.4-2.2c-0.1-0.2-0.2-0.5-0.3-0.9c0.2,0.1,0.3,0.2,0.4,0.3c0.2-0.6,0.5-1.2,0.4-1.7c-0.1-0.8-0.5-1.5-0.8-2.3
		c-0.3-0.9-1-1.2-2-1.2c-2.9,0-5.8,0.1-8.6,0.7c-1.3,0.2-2.6,0.5-3.3,1.8c-0.3,0.5-0.7,1.1-1.1,1.6c-1.2,1.6-2.4,3.1-3.6,4.7
		c-0.4,0.5-0.4,1.3,0,1.8c0.4,0.5,0.8,0.3,1.2,0.1c0.1,0,0.2,0,0.3-0.1c0,0.1,0,0.1,0.1,0.2c-0.3,0.1-0.6,0.3-0.9,0.3
		c-0.3,0-0.6-0.1-0.9-0.2c-0.1,0-0.1,0.1-0.2,0.1c0.1,0.1,0.3,0.2,0.4,0.2c0.5,0,1,0.1,1.4-0.1c1.5-0.8,3-1.8,4.6-2.7
		c0.9-0.5,1.9-1.2,2.9-1.5c1.1-0.3,2.3-0.4,3.4-0.5C165.2,121.9,166.2,122.1,166.9,121.1z M193.1,107.7
		c-7.2,7.8-12.2,16.9-15.9,26.9c2.7,2.8,5.4,5.8,8.2,8.7c0.1-0.2,0.2-0.4,0.2-0.5c0.4-1.4,0.8-2.9,1.3-4.3c0.9-2.5,1.8-5.1,2.8-7.6
		c1.3-3.2,3-6.3,5-9.2c1.4-2.2,3.1-4.2,4.9-6c0.8-0.8,1.7-1.5,2.6-2.3C199.2,111.6,196.2,109.7,193.1,107.7z M162.9,91.7
		c-1.3,0.3-2.6,0.6-3.9,0.9c-2.9,0.5-5.9,0.9-8.9,0.9c-2.5,0-5,0-7.5-0.2c-3-0.2-6-0.6-8.9-1.6c-0.7-0.2-1.5-0.5-2.2,0
		c0,1.1,0.5,2.2-0.1,3.3c0.4,0.3,0.9,0.6,1.3,0.9c0,0,0,0.1-0.1,0.1c-0.4-0.2-0.8-0.4-1.1-0.5c-0.2,0.5-0.5,1-0.8,1.7
		c0.6,0.3,1.1,0.7,1.7,0.9c3.4,1.2,7,1.5,10.6,1.5c2.2,0,4.4-0.1,6.6-0.3c2-0.2,4-0.6,6-1c2.8-0.6,5.5-1.2,8.4-1.9
		c-0.4-0.8-0.8-1.6-1.2-2.3c-0.3,0.2-0.6,0.4-0.9,0.6C162.4,93.7,163.3,93,162.9,91.7z M148.4,101.1c0,0.1,0,0.1,0,0.2
		c-1.3,0.1-2.7,0.2-4,0.2c-4.1-0.1-8-0.9-11.7-2.7c-0.2-0.1-0.4-0.1-0.6,0c-0.4,0.2-0.7,0.4-1.1,0.7c0.5,0.5,1,1,1.6,1.4
		c1.8,1.3,3.7,2.2,5.8,2.9c2.6,0.9,5.3,1.4,8.1,1.5c3.1,0.1,6.1,0,9.1-0.7c2.8-0.6,5.5-1.5,8-2.8c1.1-0.5,2.1-1.2,2.7-2.3
		c-0.8-0.8-1.6-1.5-2.4-2.2c-0.1-0.1-0.3-0.1-0.4-0.1c-0.8,0.1-1.7,0.1-2.5,0.3c-1.9,0.4-3.7,1-5.6,1.4c-1.8,0.4-3.7,0.7-5.5,0.9
		c-1.7,0.2-3.3,0.3-5,0.4c-0.8,0.1-1.8-0.2-2.3,1c0.7-0.2,1.2-0.4,1.7-0.6c0,0,0,0,0,0.1c-0.2,0.1-0.3,0.2-0.6,0.4
		C145.3,101.1,146.8,101.1,148.4,101.1z M130.3,101.2c0.3,0.3,0.6,0.7,1,0.9c0.9,0.5,1.8,1,2.7,1.4c2.8,1.3,5.6,2.3,8.6,2.9
		c0.3,0.1,0.6,0,0.9,0.2c0.8,0.6,1.5,1.1,2.2,1.8c0.3,0.3,0.6,0.5,1,0.5c1.5,0.1,3,0.4,4.4,0.4c3.2,0,6.3-0.1,9.5-0.4
		c2.9-0.3,5.8-0.9,8.6-2c1.5-0.6,3-1.2,4.4-2.2c-1-0.6-1.8-1.2-2.7-1.8c-0.1-0.1-0.4,0.1-0.5,0.1c-0.6,0.3-1.1,0.6-1.7,0.8
		c-2.7,1-5.6,1.6-8.5,1.9c-2.3,0.3-4.5,0.5-6.8,0.5c-2.1,0-4.3-0.1-6.4-0.3c-2.3-0.2-4.6-0.7-6.8-1.3c-3.1-0.8-5.9-2.1-8.5-4
		c-0.1-0.1-0.3-0.1-0.4-0.1C131,100.8,130.7,101,130.3,101.2z M174,106.3c0.2,0.1,0.3,0.2,0.4,0.4c0.5,0.5,1,0.9,1.4,1.4
		c0.6,0.9,1,1.9,1.6,2.8c0.4,0.7,0.8,1.6,1.9,1.7c1.4-2.1,2.6-4.3,3.5-6.7c0.5-1.4,1-2.7,0.8-4.2c-0.3-1.4-0.4-2.8-0.7-4.2
		c-0.1-0.6-0.3-1.3-0.5-1.9C180.1,99.6,177.3,103.1,174,106.3z M192.8,107.7c-0.1-0.1-0.3-0.2-0.4-0.3c-1.6-1-3.1-1.9-4.7-2.8
		c-1-0.6-2-1-3-1.5c-0.4-0.2-0.7-0.1-0.8,0.5c-0.4,1.4-0.8,2.7-1.4,4c-0.2,0.5-0.4,0.9,0.1,1.3c-0.3,0-0.5,0-0.8-0.1
		c0.8,0.4,1.5,0.6,2.1,1c1.1,0.7,1.4,1,1.5,1.6c-0.4-0.1-0.9-0.2-1.3-0.3c0.2,0.2,0.5,0.4,0.8,0.6c0.4,0.4,0.9,0.7,1.1,1.3
		c0.2,0.5,0.9,0.9,1.4,1.3C189.2,111.9,190.7,109.6,192.8,107.7z M194.2,47.6c0,0.1-0.1,0.1-0.1,0.2c0.1,0.1,0.2,0.2,0.3,0.3
		c1.5,1.2,2.7,2.6,3.7,4.2c1.4,2.3,2.7,4.5,4,6.8c0.3,0.5,0.5,1,0.7,1.5c0.1,0.2-0.1,0.4-0.1,0.7c-0.2-0.1-0.4-0.2-0.5-0.3
		c-0.1-0.1-0.2-0.3-0.3-0.4c-1.6-1.1-3.2-2.1-4.8-3.2c-0.5-0.3-1-0.6-1.6-0.9c0,0-0.1,0.1-0.1,0.1c1.2,0.9,2.3,1.8,3.5,2.7
		c2.3,1.8,4.3,3.8,5.7,6.4c0.6,1.1,1.5,1.9,2.3,2.9c0.3-8.6-3.7-14.9-10.5-19.7c0.2-0.1,0.3-0.2,0.4-0.2
		C195.9,48.3,195.1,48,194.2,47.6z M197.2,24.3c0.1,0.1,0.1,0.1,0.2,0.2c1.4-1.2,2.8-2.3,4.1-3.5c-3.1,3.1-6.4,6.1-8.8,9.8
		c1.7-1.6,3.4-3.2,5.1-4.8c0,0,0,0,0.1,0.1c-0.9,1-1.7,1.9-2.6,2.9c-0.1,0.1,0,0.3-0.1,0.4c-0.4,0.4-0.7,0.8-1.2,1.1
		c-0.8,0.5-1.7,0.8-2.6,1.2c-0.6,0.3-1.1,0.5-1.7,0.8c1-0.1,1.9-0.3,2.8-0.6c0.1,0,0.3-0.1,0.4-0.2c2.5-1.3,4.7-2.9,6.6-5
		c1.3-1.5,2.6-3.1,3.8-4.6c1.7-2.2,2.8-4.7,3.7-7.3c0.2-0.4,0.3-0.9,0.3-1.1c-0.9,0.9-1.8,2-2.8,2.9c-1.8,1.8-3.7,3.5-5.5,5.4
		C198.4,22.7,197.8,23.5,197.2,24.3z M189.1,79.7c0,0.1-0.1,0.2-0.1,0.3c0.3,0.2,0.6,0.4,0.9,0.6c1.3,0.7,1.7,1.5,1.1,2.9
		c-0.1,0.3-0.2,0.6-0.4,0.9c-0.5,0.9-1.2,1.5-2.1,1.8c-0.3,0.1-0.8,0.3-1.1-0.3c-0.2-0.5-0.1-0.8,0.4-1c1.2-0.6,1.4-1.1,0.8-2.4
		c-0.1-0.2-0.2-0.4-0.3-0.6c-0.6,0.1-1.2,0.3-1.9,0.5c0.4-0.9,0.8-1.7,1.1-2.5c0.1-0.3,0.1-0.7,0.2-1.1c-0.1,0-0.2,0-0.3-0.1
		c-0.3,0.7-0.7,1.4-0.9,2.2c-0.4,1.4-0.6,2.8-1,4.2c-0.3,1.2-0.7,2.4-1.1,3.5c1.6,0.4,4.4-0.2,5.4-1.8c1.1-1.8,2.3-3.7,3.4-5.5
		c0.2-0.3,0.4-0.6,0-0.9c-0.4-0.2-0.8-0.4-1,0C191.3,80.2,190.2,80,189.1,79.7z M163.6,75.1c2.5,3.9,11.4,4.7,14.8-0.1
		c-1.6,0-3.1,0-4.6,0c-0.3,1-1.1,1.3-2.7,1.4c-0.9,0.1-1.6-0.5-2-1.6C167.3,74.9,165.5,75,163.6,75.1z M201.4,80.9
		c-0.6-2.1-1.4-4.2-3.3-5.3c-1.3-0.8-2.8-1.3-4.5-1.4c0.4,0.8,1.3,0.8,1.6,1.6c-1.1-0.1-2.1,0.2-3.1,0.8c0.5,0.4,0.8,0.7,1.2,0.9
		c1.2,0.4,2.5,0.5,3.6,1C198.5,79.1,200,80.1,201.4,80.9z M217.2,140.1c0.1,0.1,0.3,0.2,0.4,0.3c0.1,0.3,0.2,0.6,0.3,1
		c0.1,0.4,0.3,0.5,0.7,0.4c0.9-0.2,1.8-0.3,2.7-0.4c0.5-0.1,0.8-0.3,0.7-0.9c-0.3-1.2-0.6-2.3-0.9-3.6c-1.4,0.4-2.7,0.7-4,1
		c0,0.4,0.1,0.6,0.1,1c-0.3-0.4-0.4-0.6-0.6-0.8c0,0,0,0-0.1,0.1C216.8,138.9,217,139.5,217.2,140.1z M140,106.1
		c-0.1,0-0.2-0.1-0.3-0.1c-1.7-0.6-3.5-1.1-5.2-1.7c-1.6-0.7-3.2-1.5-4.8-2.3c-0.4-0.2-1.1-0.1-1.2,0.3c0,0.2,0.2,0.6,0.5,0.8
		c1.7,1.4,3.7,2.1,5.6,2.9c0.4,0.2,0.9,0.4,1.3,0.4C137.3,106.3,138.6,106.2,140,106.1z M198.1,34.6c1.9,1.8,4.5,2.7,6.2,4.8
		c-0.5-0.3-1-0.7-1.5-1.1c-0.5-0.3-1-0.6-1.5-0.9c0,0.1-0.1,0.1-0.1,0.2c1.5,1.3,3.1,2.7,4.6,4c0.1-0.1,0.1-0.1,0.2-0.2
		c-0.3-0.4-0.5-0.8-0.8-1.2c0.2,0,0.2,0,0.3,0.1c0.7,0.5,0.8,1.8,2,1.6c0,0,0.1,0.1,0.1,0.1c0.5,0.3,1,0.5,1.6,0.9
		C207.3,39.9,200.8,35.1,198.1,34.6z M163.6,108.9c0.4,2.2,0.9,4.3,1.3,6.5c1,0,2,0,3,0c0-0.1,0-0.1,0-0.2c-0.1-0.1-0.1-0.2-0.2-0.3
		c-1.1-1.4-1.7-3-2.1-4.8c-0.1-0.5-0.3-0.8-0.8-0.9C164.4,109.1,164,109,163.6,108.9z M205.3,48.9c-2.2-0.9-4.3-2-6.1-3.5
		c-1.2-1-2.2-2.1-4.1-2.2c0.4,0.4,0.8,0.8,1.2,1.1c1.1,0.9,2.2,1.7,3.3,2.6C201.2,48.3,203,49.2,205.3,48.9z M127.5,119
		c0.4-0.5,0.9-1,1.5-1.5c0.3-0.3,0.5-0.7,0.5-1.1c-0.1-0.6,0-1.2,0.5-1.7c0.6-0.7,0.3-1.4,0.1-2.1c-1.4,0.9-2.5,1.9-2.5,3.6
		C127.5,117.1,127.5,118.1,127.5,119z M201.3,76.7c0.1,0,0.1-0.1,0.2-0.1c-0.1-2-0.8-3.7-2.1-5.3c0.2,0.4,0.3,0.8,0.5,1.2
		c-0.8-0.9-1.6-1.8-2.8-2.1C198.4,72.6,199.9,74.7,201.3,76.7z M203.1,70.2c-0.5-1.8-4.3-5.3-6-5.4C198.8,67,200.7,68.8,203.1,70.2z
		 M204.1,65.9C204.2,65.9,204.2,65.8,204.1,65.9c-0.2-0.3-0.5-0.6-0.8-0.9c-0.9-0.8-2-1-3.2-0.9c-1.2,0.1-2.5,0.3-3.6-0.4
		c-0.3-0.2-0.8-0.2-1.2-0.3c0.5,0.6,7.3,2.5,8.4,2.6c0-0.1-0.1-0.2-0.2-0.4C203.8,65.7,204,65.8,204.1,65.9z M141.4,84
		c0,0.5,0,0.8-0.1,1.1c-0.5,1.2-2.9,1.5-3.7,0.4c-0.5-0.7-0.6-0.7-1.4-0.3c0.1,0.1,0.2,0.1,0.2,0.2c0.9,1.4,3.1,1.6,4.3,0.9
		c0.6-0.3,1-0.9,1.4-1.4c0.1-0.1,0-0.5-0.1-0.6C141.9,84.1,141.6,84.1,141.4,84z M154.7,81.4c0.2,1.1-0.6,1.6-1.4,2
		c-0.9,0.4-2.3,0.2-2.5-0.7c0-0.2-0.2-0.3-0.3-0.4c0,0-0.3,0.1-0.3,0.2c0,0.2,0,0.4,0.2,0.6c0.7,1,1.7,1.1,2.8,0.8
		c1.4-0.4,2.6-1.2,2.7-2.6C155.4,81.3,155.1,81.4,154.7,81.4z M172.7,75c-0.4,0.1-0.7,0.3-1.1,0.4c-0.4,0.2-0.7,0.3-1.1,0.5
		c1,0.6,2.5,0.1,2.6-1.1c-0.2,0-0.4,0-0.6,0c0,0,0,0.1,0,0.1C172.6,75,172.7,75,172.7,75z M135.9,88.5c0.9,0.8,1.9,0.9,2.3,0.4
		C137.5,88.8,136.7,88.7,135.9,88.5z M142.7,100.3c0-0.1,0-0.1-0.1-0.2c-0.6,0.2-1.2,0.4-1.7,0.7
		C141.6,101.1,142.2,100.8,142.7,100.3z M203.1,53.5c0,0,0.1-0.1,0.1-0.1c-0.5-0.5-1-0.9-1.5-1.4c0,0-0.1,0.1-0.1,0.1
		C202.1,52.6,202.6,53.1,203.1,53.5z"/>
	<path d="M119,129.7c-0.4,0.6,0,1.1,0.1,1.7c1.1,4.1,2.9,7.8,4.9,11.5c1.1,2.1,2.2,4.2,3.3,6.4c0.2,0.4,0.4,0.7,0.7,1
		c-4.7,0-9.4,0-14.2,0c0.4-2.2,0.8-4.5,1.2-6.7c0.5-2.5,0.9-5,1.4-7.5c0.5-2.1,1.1-4.2,2.3-6C118.8,129.9,118.9,129.8,119,129.7z
		 M114.8,148.4c0.1,0,0.1,0,0.2,0c0.1-0.3,0.2-0.5,0.2-0.8c0.1-0.8,0.2-1.5,0.4-2.3c0.3-0.9,0.1-2,0.9-2.8c0,0,0-0.1,0-0.2
		c0.6-1.6,0.7-3.3,1.3-4.9c0.4-1,0.6-2,0.8-3c0.2-0.7,0.3-1.5-0.2-2.2c-0.1-0.1-0.3-0.2-0.4-0.4c-0.1,0.1-0.2,0.2-0.3,0.4
		c-0.4,1.4-0.9,2.9-1.2,4.3c-0.5,2.1-0.8,4.2-1.2,6.3C115.2,144.7,115,146.5,114.8,148.4z"/>
	<path d="M211.7,128.4c-0.3-0.5-0.7-1.1-1-1.6c-0.2-0.4-0.3-0.8-0.5-1.2c1.2,0.4,3.4,3.3,3.6,4.7c-0.4-0.4-0.7-0.8-1-1.1
		c0,0,0,0-0.1,0c0.3,0.5,0.5,1,0.8,1.4c0,0-0.1,0-0.1,0.1c-0.5-0.6-0.9-1.1-1.4-1.7C212,128.7,211.8,128.6,211.7,128.4z"/>
	<path d="M179.1,65.2c1-0.2,1.8,0.4,1.9,1.4c-0.3-0.2-0.5-0.4-0.8-0.5C179.8,65.8,179.4,65.5,179.1,65.2z"/>
	<path d="M108.3,146.5c1.2-1.1,2.4-2.1,3.6-3.2c0.7-0.6,1.4-1.1,2.1-1.7c0.1-0.1,0.3-0.1,0.4-0.2c-2.6,2.3-5.3,4.7-7.9,7
		c-0.1-0.2-0.1-0.5-0.3-0.7c-1.8-2.1-3.6-4.2-5.4-6.3c-0.1-0.1-0.4-0.2-0.5-0.3c0.1-0.1,0.2-0.2,0.3-0.3c1.5,1.7,3,3.4,4.5,5.1
		c0.2-0.2,0.4-0.3,0.6-0.5c-0.1-0.1-0.3-0.2-0.3-0.3c0.4,0,0.9-0.1,1.4-0.1c-0.2,0.1-0.3,0.3-0.6,0.4c0.5,0.4,1,0.8,1.4,1.2
		c0,0.1-0.1,0.1-0.1,0.2c-0.5-0.4-1-0.8-1.5-1.3c-0.2,0.2-0.5,0.4-0.7,0.5c0.5,0.6,1,1.2,1.6,1.8C107.3,147.5,107.8,147,108.3,146.5
		C108.4,146.5,108.3,146.5,108.3,146.5z"/>
	<path d="M104.8,142.4c0.2,0.2,0.4,0.5,0.6,0.7c0.2,0.2,0.3,0.4,0.4,0.6c-1.2-1.1-2.3-2.2-3.4-3.2c0,0,0,0.1,0,0.2
		c0.1,0.1,0.2,0.2,0.3,0.4c0.2,0.4,0.4,0.8,0.6,1.1c0.1,0.2,0.4,0.3,0.6,0.5c-0.4,0.3,0,0.7,0.2,1.1c0.2,0.4,0.4,0.7,0.6,1.1
		c-0.1,0-0.2,0.1-0.2,0.1c-1-1.8-1.9-3.6-2.9-5.5c-0.6,0.4-1.1,0.8-1.7,1.2c0-0.1-0.1-0.1-0.1-0.2c1.2-0.8,2.5-1.7,3.7-2.5
		c0,0,0,0,0,0c-0.5,0.4-1.1,0.8-1.7,1.4C102.7,140.4,103.8,141.4,104.8,142.4C104.8,142.4,104.8,142.4,104.8,142.4z"/>
	<path d="M108.7,138.4c-0.3-0.4-0.5-0.7-0.8-1.1c-0.2-0.3-0.5-0.7-0.7-1.1c0.9-0.1,2.9,1.6,3.3,2.7c-0.4-0.4-0.8-0.7-1.1-1.1
		c-0.2,0.1-0.3,0.2-0.5,0.3c0.2,0.4,0.4,0.7,0.6,1c-0.6-0.2-1.1-0.3-1.8-0.6c0.3,0.5,0.4,0.8,0.6,1.1c-0.1,0-0.2,0.1-0.2,0.1
		c-0.4-0.7-0.9-1.5-1.3-2.2c0-0.1,0-0.2,0-0.3c0.1,0,0.3,0.1,0.4,0.1c0.1,0.1,0.1,0.2,0.2,0.3C107.5,138.4,107.9,138.7,108.7,138.4z
		 M109.3,137.7c-0.5-0.4-0.9-0.8-1.4-1.1c0,0-0.1,0.1-0.1,0.1c0.3,0.4,0.6,0.9,0.9,1.3C108.9,137.9,109,137.8,109.3,137.7z"/>
	<path d="M104.8,142.4c0.1-0.8-0.7-1-1.1-1.6c-0.2-0.3-0.5-0.5-0.7-0.7c0,0,0.1-0.1,0.1-0.1c0.5,0.5,1,1,1.7,1.6
		c-0.1-0.8-0.2-1.5-0.2-2.1c0,0,0.1,0,0.1,0c0.1,0.4,0.3,0.8,0.3,1.2c0.1,0.4,0,0.9,0,1.4c0.4-0.1,0.8-0.2,1.1-0.2
		c0.3,0,0.6,0.2,0.9,0.4c-0.5,0-1-0.1-1.7-0.1c0.3,0.5,0.6,0.8,0.9,1.2C105.7,142.9,105.3,142.6,104.8,142.4
		C104.8,142.4,104.8,142.4,104.8,142.4z"/>
	<path d="M111.2,135.7c0.4,0.2,0.8,0.4,1.1,0.6c0.1,0.1,0,0.6-0.1,0.7c-0.2,0.2-0.6,0.1-0.7-0.3c0-0.2-0.1-0.3-0.2-0.6
		c-0.1,0-0.3,0-0.5,0c0-0.1,0-0.2,0-0.2c0.1-0.3,0.2-0.7,0.2-1c0-0.2-0.2-0.4-0.4-0.5c-0.1,0-0.3,0.2-0.6,0.3c0-0.2,0-0.5,0.1-0.5
		c0.3,0,0.6-0.1,0.8,0C111.5,134.7,111.3,135.3,111.2,135.7z"/>
	<path d="M111.9,141.7c0.3-0.1,0.6-0.2,1-0.4c0,0.1,0,0.1,0.1,0.2c-0.3,0.2-0.7,0.4-1.1,0.6c0.1,0.1,0.1,0.3,0.3,0.7
		c-0.7-0.3-1.2-0.8-1.4-1.3c-0.1-0.2,0.2-0.4,0.2-0.7c0.2,0.1,0.5,0.2,0.6,0.3C111.7,141.2,111.8,141.4,111.9,141.7z"/>
	<path d="M108.9,145.5c-0.4-0.3-0.7-0.7-1.2-1.1c0.3-0.2,0.6-0.4,0.8-0.6c0,0,0,0.1,0.1,0.1c0.1-0.2,0.2-0.5,0.3-0.7
		c0.3,0.1,0.5,0.2,0.8,0.3c0.2,0.2,0.4,0.4,0.5,0.6c0,0-0.1,0.1-0.1,0.1c-0.3-0.3-0.6-0.6-1-0.9c-0.1,0-0.1,0.1-0.2,0.1
		c0.2,0.4,0.4,0.9,0.6,1.3c0,0-0.1,0.1-0.1,0.1c-0.1-0.2-0.3-0.3-0.4-0.5c-0.2-0.1-0.4-0.3-0.6-0.4c-0.1,0-0.1,0.1-0.2,0.1
		c0.3,0.4,0.5,0.7,0.8,1.1C109,145.4,109,145.5,108.9,145.5z"/>
	<path d="M105.3,137.8c1,1,1.9,2.1,2.9,3.2c0.1-0.2,0.3-0.4,0.5-0.6c0,0,0.1,0.1,0.1,0.1c-0.2,0.3-0.3,0.6-0.6,1
		c-1.1-1.2-2.1-2.3-3.1-3.5C105.2,137.9,105.2,137.9,105.3,137.8z"/>
	<path d="M109.6,135.4c1.2,1.6,2.5,3.1,3.7,4.7c-0.1,0-0.1,0.1-0.2,0.1c-1.2-1.6-2.5-3.1-3.7-4.7
		C109.5,135.5,109.6,135.4,109.6,135.4z"/>
	<path d="M103.4,138c0.5-0.4,1-0.7,1.6-1.1c1-0.6,1.9-1.1,2.9-1.7c0.2-0.1,0.4-0.2,0.7-0.1c-0.7,0.4-1.5,0.8-2.2,1.2
		c-0.8,0.5-1.6,1-2.4,1.4C103.8,137.9,103.6,137.9,103.4,138C103.4,138,103.4,138,103.4,138z"/>
	<path d="M109.1,142.5c0.2,0.2,0.4,0.3,0.5,0.4c0.2-0.2,0.4-0.4,0.6-0.4c0.5-0.1,0.6,0.5,0.7,0.8c0.1,0.2-0.1,0.5-0.3,0.7
		c0,0-0.3,0-0.4-0.1c-0.4-0.4-0.8-0.9-1.2-1.3C109,142.6,109,142.5,109.1,142.5z M109.9,142.8c0.2,0.4,0.4,0.7,0.6,1.1
		C110.8,143.2,110.7,142.9,109.9,142.8z"/>
	<path d="M107.6,142.1c-0.7-0.9-1.5-1.7-2.2-2.6c0,0,0.1-0.1,0.1-0.1c0.8,0.8,1.5,1.7,2.3,2.5C107.7,142,107.6,142.1,107.6,142.1z"
		/>
	<path d="M113.8,139.1c-0.6,0.2-0.6,0.2-0.5-0.5c0.5-0.1,0.5-0.1,1.3,1.4C114.5,139.9,114,139.4,113.8,139.1z"/>
	<path d="M108.4,146.5c-0.7,0.1-1-0.3-1.3-0.8c0.3,0.2,0.6,0.4,0.9,0.6c0.4-0.6,0.1-0.8-0.4-1.1c0.7,0.1,0.8,0.2,0.7,0.8
		C108.3,146.1,108.3,146.3,108.4,146.5C108.3,146.5,108.4,146.5,108.4,146.5z"/>
	<path d="M109.9,141.4c0.6,0.5,1.3,1,1.9,1.5c0,0.1-0.1,0.1-0.1,0.2c-0.6-0.5-1.3-1-1.9-1.5C109.8,141.5,109.8,141.4,109.9,141.4z"
		/>
	<path d="M185.9,13.9c0.2-0.3,0.3-0.6,0.5-0.9c0.3-0.5,0.7-1,1.1-1.5C186.9,12.3,186.4,13.1,185.9,13.9z"/>
	<path d="M139.4,65.9c1-0.7,1.9-0.3,2.9-0.1c1.1,0.2,2.2,0.2,3.2,0.4c2.3,0.5,4.6,1.1,7,1.6c0.5,0.1,1,0.3,1.4,0.4
		c0,0.1,0,0.1-0.1,0.2c-0.8-0.2-1.7-0.3-2.5-0.5c-2.9-0.7-5.8-0.8-8.8-0.9c-1.8,0-3.6-0.1-5.4-0.1c-0.2,0-0.4,0.2-0.7,0.4
		c0-0.1,0-0.2,0-0.4c-0.2,0.1-0.3,0.2-0.5,0.3c0,0-0.1,0-0.1-0.1c0-0.8,0.7-1.1,1.3-1.5c0.2-0.2,0.6-0.1,0.9-0.1c0,0.1,0,0.1,0,0.2
		c0.3-0.1,0.5-0.3,0.8-0.4c0,0.1-0.1,0.2-0.1,0.4c0.3-0.1,0.6-0.2,1-0.3C139.7,65.6,139.6,65.8,139.4,65.9z"/>
	<path d="M150,119.1c0.8-0.3,0.8-0.9,0.7-1.5c-0.1-0.8-0.6-1.2-1.5-1.2c0.4-0.2,0.9-0.2,1.1,0.2c0.5,0.6,0.7,1.3,0.5,2
		C150.8,119,150.5,119.3,150,119.1z"/>
	<path d="M151.6,121.6c-0.5-0.6-1.2-1-2-0.7C150.6,120.2,151.5,120.6,151.6,121.6L151.6,121.6z"/>
	<path d="M151.6,121.6c0.5,0.9,0.1,1.7-1,1.7C151.6,123.1,151.6,122.3,151.6,121.6C151.6,121.6,151.6,121.6,151.6,121.6z"/>
	<path d="M143.9,109.6c-0.2,0.1-0.4,0.2-0.5,0.3c0.1-0.4,0.1-0.9,0.2-1.4C143.7,108.9,143.8,109.3,143.9,109.6z"/>
	<path d="M153.2,130.5c-0.3,0.2-0.8,0.1-1.1-0.4c-0.4-0.7-0.2-1.4,0.1-2.1c0.2-0.5,0.7-0.5,1.2-0.5c-0.4,0.3-0.9,0.5-1,0.8
		c-0.2,0.4-0.2,1-0.1,1.4C152.4,130.1,152.9,130.3,153.2,130.5z"/>
	<path d="M154.5,139.4c-1.2,0-2.1-1.3-1.9-2.5c0.1-0.6,0.3-1,1.2-0.8c-0.9,0-0.9,0.7-0.9,1.1C152.8,138.3,153.3,139,154.5,139.4z"/>
	<path d="M152.4,134.6c-0.6-0.4-0.7-1.6-0.3-2.2c0.4-0.5,1.2-0.7,1.8-0.3C151.9,132.6,151.6,133.2,152.4,134.6z"/>
	<path d="M160,132.1c0.1,0.1,0.2,0.1,0.3,0.2c0.1-0.3,0.2-0.6,0.3-0.9c0,0,0.1,0,0.1,0c-0.1,0.6-0.2,1.2-0.3,1.7
		C159.8,132.9,159.8,132.9,160,132.1z"/>
	<path d="M148.8,97.3c4.1-0.4,8.1-1.1,12-2.4C159.2,96,151.5,97.6,148.8,97.3z"/>
	<path d="M157.2,96.7c-1.9,0.4-3.7,0.7-5.6,1.1c0,0,0-0.1,0-0.1c1.9-0.4,3.7-0.8,5.6-1.2C157.2,96.5,157.2,96.6,157.2,96.7z"/>
	<path d="M134.1,96.3c-0.8-0.4-1.6-0.8-2.4-1.2c0-0.1,0.1-0.1,0.1-0.2c0.8,0.4,1.6,0.8,2.4,1.2C134.2,96.2,134.2,96.2,134.1,96.3z"
		/>
	<path d="M117.8,103.6c0.2-0.4,0.3-0.7,0.6-1.2c0.3,0.5,0.4,0.9,0.6,1.2c0.1-0.1,0.3-0.2,0.6-0.4c0.4,0.5,0,0.8-0.1,1.1
		C118.9,104,118.4,103.8,117.8,103.6z"/>
	<path d="M117.2,103.2c0,0-0.3-0.3-0.3-0.4c0.2-0.4,0.4-0.7,0.7-1.1c0.2,0.2,0.5,0.4,0.5,0.5C118,102.7,118.2,103.3,117.2,103.2z"/>
	<path d="M112.4,100.5c0.2-0.5,0.3-1,0.5-1.5c0,0,0.1,0,0.1,0c0.1,0.3,0.1,0.6,0.2,0.9c0.1,0,0.1,0,0.2,0c0.1-0.2,0.2-0.4,0.4-0.6
		c0,0,0.1,0,0.1,0.1c-0.2,0.5-0.4,1-0.6,1.6c-0.1-0.4-0.2-0.6-0.3-0.9c-0.2,0.2-0.3,0.3-0.5,0.5
		C112.5,100.5,112.4,100.5,112.4,100.5z"/>
	<path d="M113.5,100.6c0.3-0.3,0.5-0.7,0.8-1c0.1,0,0.2,0.1,0.2,0.1c-0.1,0.5-0.2,0.9-0.3,1.4c0,0-0.1,0-0.1,0c0-0.1,0-0.3-0.1-0.5
		c-0.1,0.1-0.3,0.1-0.4,0.2C113.6,100.6,113.6,100.6,113.5,100.6z"/>
	<path d="M115.4,100.6c-0.3,0.2-0.6,0.5-1,0.8c0.2-0.6,0.3-1,0.5-1.4c0.1,0,0.1,0,0.2-0.1C115.2,100.2,115.3,100.4,115.4,100.6
		C115.4,100.6,115.4,100.6,115.4,100.6z"/>
	<path d="M119.1,105.9c0.4,0.2,0.6,0.3,1,0.4c-0.2,0.2-0.4,0.4-0.6,0.6c-0.1,0-0.3,0-0.3-0.1C119.2,106.5,119.2,106.3,119.1,105.9z"
		/>
	<path d="M113.5,102.6c-0.3-0.1-0.6-0.2-0.9-0.2c0-0.1,0-0.1,0-0.2c0.2,0,0.3,0,0.6,0.1c-0.1-0.2-0.2-0.4-0.4-0.7
		c0.3,0,0.5,0,0.6-0.1C113.4,102,113.4,102.3,113.5,102.6L113.5,102.6z"/>
	<path d="M117.9,105c-0.2,0.2-0.4,0.3-0.5,0.4c-0.1-0.2-0.3-0.4-0.4-0.6c0-0.1,0.2-0.2,0.3-0.4C117.5,104.7,117.7,104.8,117.9,105z"
		/>
	<path d="M114.9,103.5c0.3-0.3,0.4-0.4,0.6-0.6c0,0.3,0,0.5,0,0.8c0.2-0.2,0.3-0.3,0.4-0.4c0,0,0.1,0.1,0.1,0.1
		c-0.1,0.2-0.3,0.5-0.4,0.5C115.4,103.9,115.2,103.7,114.9,103.5z"/>
	<path d="M119.9,104.1c0.3,0,0.5,0.1,0.9,0.1c-0.3,0.3-0.6,0.6-1.1,1C119.8,104.7,119.9,104.3,119.9,104.1z"/>
	<path d="M113.4,102.6c0.1-0.2,0.2-0.4,0.3-0.6c0.7,0.5,0.7,0.5,0.2,1.1c0-0.2,0.1-0.3,0.1-0.4C113.8,102.7,113.6,102.7,113.4,102.6
		C113.5,102.6,113.4,102.6,113.4,102.6z"/>
	<path d="M116.8,104.9c-0.4-0.2-0.6-0.3-0.8-0.4c0,0,0-0.1,0-0.1c0.1,0,0.2,0,0.4,0.1c-0.1-0.2-0.1-0.3-0.2-0.5
		C116.7,103.9,116.7,103.9,116.8,104.9z"/>
	<path d="M115.4,100.6c0.1,0,0.3,0.1,0.4,0.1c-0.1,0.1-0.1,0.3-0.2,0.4c-0.2,0.2-0.4,0.3-0.8,0.5C115.1,101.3,115.2,101,115.4,100.6
		C115.4,100.6,115.4,100.6,115.4,100.6z"/>
	<path d="M199.1,25.2c0.4-0.3,0.7-0.7,1.1-1c0,0,0.1,0.1,0.1,0.1C199.9,24.6,199.6,24.9,199.1,25.2
		C199.2,25.2,199.2,25.2,199.1,25.2z"/>
	<path d="M181.8,16.9c0.6-0.7,1.1-1.3,1.7-2c0.1,0.1,0.1,0.1,0.2,0.2c-0.6,0.6-1.2,1.2-1.8,1.9C181.9,16.9,181.8,16.9,181.8,16.9z"
		/>
</g>
</svg>
