<?xml version="1.0" encoding="utf-8"?>
<!-- Generator: Adobe Illustrator 24.0.2, SVG Export Plug-In . SVG Version: 6.00 Build 0)  -->
<svg version="1.1" id="Слой_1" xmlns="http://www.w3.org/2000/svg" xmlns:xlink="http://www.w3.org/1999/xlink" x="0px" y="0px"
	 viewBox="0 0 238.1 150.2" style="enable-background:new 0 0 238.1 150.2;" xml:space="preserve">
<g>
	<path d="M59.8,150.5c0.2-0.1,0.3-0.3,0.5-0.3c2-0.4,3.7-1.3,5.4-2.4c0.4-0.3,0.8-0.3,1.3-0.2c0.9,0.2,1.8,0.3,2.7,0.2
		c1.1-0.1,1.4-0.9,1-1.9c-0.1-0.2-0.1-0.3-0.1-0.5c-0.1-3-0.2-6-0.2-9c0-2.2,0.3-4.4,0.4-6.6c0-1.2-0.2-2.4-0.2-3.5
		c0-1.1,0-2.1,0-3.2c0-0.2,0.1-0.4,0-0.5c-0.2-0.7,0-1.1,0.5-1.6c0.2-0.2,0.1-0.7,0-1c-0.1-0.2-0.3-0.5-0.5-0.6
		c-0.8-0.4-0.8-0.9-0.7-1.7c0.2-1,0.2-2,0.3-3c0-0.2-0.2-0.5-0.3-0.7c-0.1-0.1-0.2-0.3-0.2-0.4c-0.4-1.3-0.9-2.7-0.9-4.1
		c-0.1-4.8,0.5-9.6,1.4-14.3c0.9-4.8,1.7-9.7,2.6-14.5c0.6-3.1,1.4-6.1,2.1-9.1c0.2-0.8,0.2-1.7,0.4-2.5c0.1-0.3,0.2-0.7,0.4-1
		c1.3-1.4,1.3-3.1,1.6-4.9c0.2-1.3,0.7-2.7,1.1-4c0.2-0.4,0.6-0.7,0.9-1.1c-0.1-0.1-0.1-0.1-0.2-0.2c-0.1,0.1-0.2,0.3-0.4,0.5
		c0-0.1-0.1-0.2,0-0.2c0.5-1.4,1.1-2.7,1.6-4.1c0.1-0.3,0.1-0.7,0-0.9c-0.6-0.8-0.9-1.7-1-2.6c-0.1-0.7-0.5-1.4-0.7-2.1
		c-0.3-0.8-0.8-1-1.6-1c-1.7,0.2-3.5,0.2-5.2,0.3c-0.4,0-0.7,0-1.1-0.1c-0.7-0.2-1.1-0.6-1-1.4c0.1-1.5,0.1-2.9-0.7-4.2
		c-0.1-0.1-0.1-0.4,0-0.5c0.4-0.8-0.1-1.4-0.6-1.9c-0.4-0.5-0.8-0.9-0.4-1.6c0.3-0.5,0-1.1-0.5-1.5c-0.5-0.4-1.1-0.8-1.7-1.3
		c0.5-0.3,0.9-0.6,1.2-0.9c0.5-0.4,0.9-0.8,1.4-1.2c1-0.9,1.5-1.9,1-3.3c-0.2-0.6-0.2-1.3-0.2-2c-0.6,0.3-0.9,1.2-0.8,2.2
		c0.2-0.3,0.4-0.5,0.5-0.7c0,0,0.1,0,0.1,0c-0.2,0.8-0.4,1.5-0.6,2.3c0,0-0.1,0-0.1,0c-0.1-0.8-0.1-1.6-0.2-2.5c-0.1,0-0.1,0-0.2,0
		c-0.2,0.5-0.4,1-0.6,1.6c-0.1,0-0.1,0-0.2-0.1c0-0.3,0.1-0.7,0.1-1.1c-0.4,0.2-0.7,0.4-1,0.6c-0.1,0-0.1-0.1-0.2-0.1
		c1.8-1.9,1-4.2,1.2-6.4c-1.4,0.5-2.6,1-3.8,1.5c0-0.1,0-0.1-0.1-0.2c1.4-1.1,2.9-2.2,4.3-3.2c0-0.1,0-0.2-0.1-0.2
		c-1.1,0-2.1,0-3.2,0c0-0.1,0-0.2,0-0.3c0.7-0.1,1.4-0.1,2-0.3c0.6-0.2,1.3-0.5,1.8-0.9c0.6-0.4,1.1-0.9,1.8-1.5
		c-0.1,0.3-0.2,0.4-0.3,0.7c0.5-0.3,0.8-0.5,1.1-0.7c0.1,0.1,0.1,0.2,0.2,0.2c-1.2,0.8-2.5,1.6-3.9,2.5c0.4-0.1,0.6-0.1,0.9-0.2
		c0.2-0.1,0.5-0.2,0.8-0.2c-0.8,0.8-1.5,1.6-2.3,2.5c0.1,0.1,0.1,0.2,0.2,0.2c0.3-0.2,0.6-0.4,0.9-0.5c0.1,0.2,0.3,0.3,0.5,0.6
		c-0.1,1-0.3,2.2-0.5,3.3c0.1,0,0.1,0,0.2,0c0.2-0.3,0.3-0.6,0.5-1c0.1,0,0.1,0.1,0.2,0.1c-0.3,0.9-0.6,1.7-0.9,2.6
		c0,0,0.1,0.1,0.1,0.1c0.5-0.6,1.2-1.1,1.6-1.8c0.4-0.7,0.4-1.5,0.6-2.4c0.2,2-0.3,4,0.5,5.9c0.2-0.2,0.2-0.2,0.2-1.8
		c0.1,0.2,0.2,0.4,0.2,0.5c0,0.1,0.1,0.2,0.1,0.5c0.2-0.6,0.3-1,0.4-1.5c0.1,0,0.2,0,0.2,0c-0.1,0.8-0.2,1.7-0.3,2.4
		c-0.2,0.1-0.4,0.1-0.6,0.2c-1.2,1.3-2.4,2.6-3.6,3.9c-0.1,0.1-0.1,0.2-0.3,0.3c0.4,0.3,0.7,0.7,1.1,1c0.7,0.4,0.7,1,0.5,1.6
		c-0.3,1.2,0,1.7,1.2,2.2c0.4,0.2,0.8,0.3,1.2,0.5c0.3,0.1,0.5,0.4,0.7,0.6c0,0.1-0.1,0.1-0.1,0.2c-0.3-0.1-0.5-0.3-0.8-0.4
		c-0.4-0.1-0.9-0.1-1.1,0c-0.2,0.1-0.2,0.8-0.1,1c0.7,1.2,0.6,2.5,0.6,3.8c0,1,0.3,1.3,1.3,1.3c1.2,0,2.4-0.2,3.6-0.4
		c1.1-0.2,2.1-0.4,3.1-0.7c0.8,1.7,1.5,3.2,1.8,5c0.1,0.6,0.6,1,0.8,1.6c0.5,0.9,0.9,1.9,1.4,2.9c0.2-0.1,0.4-0.3,0.6-0.5
		c1.7-1.5,3.4-3.2,5.2-4.5c1.8-1.3,3.8-2.2,5.8-3.2c0.6-0.3,1.2-0.3,1.9-0.5c0.5-0.1,0.7-0.2,0.5-0.7c-0.2-1-0.6-1.8-1.3-2.5
		c-0.2-0.2-0.4-0.4-0.6-0.7c0.1-0.1,0.1-0.1,0.2-0.2c0.3,0.4,0.5,0.7,0.8,1.1c0.1-0.1,0.2-0.1,0.2-0.2c-0.2-0.7-0.5-1.3-0.7-2.1
		c0,0,0.1-0.2,0.2-0.5c0.1,0.3,0.1,0.6,0.2,0.8c0.1-0.1,0.1-0.2,0.2-0.3c0.2,0.9,0.5,1.7,0.7,2.6c0.3-0.9,0.7-1.8,1-2.7
		c0.1,0,0.2,0,0.2,0c0.2,0.2,0.4,0.5,0.5,0.7c0.1,0,0.1-0.1,0.2-0.1c-0.6-1.1-1.9-1.8-2.5-3c0.5,0.4,0.9,0.9,1.3,1.3
		c-0.4-1.2-0.8-2.5-1.2-3.7c0.1,0,0.2-0.1,0.3-0.1c0.5,1.6,1.1,3.3,2.2,4.7c0.4-0.8,0.4-1-0.2-1.7c-0.4-0.5-0.7-0.9-1-1.5
		c0.4,0.3,0.7,0.7,1.1,1c0.5,0.5,1,1,1.8,0.4c-0.1-0.1-0.2-0.3-0.3-0.6c-0.2,0.7-0.5,0.6-0.9,0.3c-1-0.8-1.4-1.9-1.6-3.1
		c0.6,1,0.9,2.2,2,3.1c0-0.5,0-0.9,0-1.2c0,0,0.1-0.1,0.1-0.1c0.2,0.3,0.4,0.6,0.5,0.9c0.1,0,0.1-0.1,0.2-0.1
		c-0.3-0.7-0.6-1.4-0.9-2.1c0,0,0.1-0.1,0.1-0.1c0.4,0.5,0.7,0.9,1.1,1.4c0.1-0.1,0.1-0.1,0.2-0.2c-1-1.7-2-3.5-3.1-5.2
		c0.1,0,0.2-0.1,0.2-0.1c0.8,1.4,1.5,2.8,2.3,4.2c0.1,0,0.1-0.1,0.2-0.1c0.1-0.6,0.1-1.2,0.2-2c0.2,0.2,0.4,0.3,0.6,0.5
		c0-1.7,0-3.3,0-5c0.1,0,0.1,0,0.2,0c0,0.5,0.1,1,0.1,1.5c0.1,0,0.1,0,0.2,0c0.1-0.7,0.2-1.4,0.3-2.1c0-0.2,0.2-0.4,0.3-0.6
		c0.2,0.1,0.5,0.3,0.6,0.4c0.3,0.4,0.6,0.8,1,1.1c0.2,0.2,0.4,0.4,0.5,0.6c0,0-0.1,0.1-0.1,0.1c-0.5-0.4-1.1-0.9-1.8-1.5
		c-0.3,2.6-1.5,4.9-0.4,7.5c-0.2-0.3-0.4-0.6-0.7-0.9c-0.2-0.3-0.4-0.6-0.6-1c-0.1,0-0.1,0-0.2,0c0.1,0.6,0,1.3,0.3,1.9
		c0.3,0.5,0.8,0.9,1.3,1.4c0,0.1-0.1,0.1-0.1,0.2c-0.5-0.2-1-0.4-1.7-0.8c0.2,0.8,0.4,1.3,0.5,1.9c0,0.2,0,0.3,0,0.5
		c-0.1,0-0.2,0-0.2,0c0,0.3,0,0.5,0,0.8c-0.1,0-0.1,0-0.2,0.1c-0.1-0.2-0.2-0.4-0.3-0.5c-0.2-0.2-0.5-0.5-0.7-0.5
		c-0.3,0.1-0.6,0.4-0.7,0.7c-0.2,1.3-0.4,2.7-0.5,4c-0.1,0-0.4-0.1-0.5,0c-0.4,0.3-0.8,0.6-1.1,0.9c-0.2,0.3,0.1,0.8,0.6,0.8
		c1,0,2.1,0,3.1-0.1c1.2-0.1,1.2-0.1,1.8,1l0,0c-0.2,0.6-0.5,1.1-0.6,1.7c-0.1,0.6,0,1.3,0.1,1.9c0.1,0.8,0.2,1.5,0.5,2.2
		c0.3,0.9,0.7,1.8,1.2,2.6c1.1,1.7,2.4,3.3,3.6,5.1c0.2-0.6,0.4-1.1,0.5-1.5c0.1,0,0.1,0,0.2,0c0,0.4,0,0.8-0.1,1.1
		c-0.2,0.6,0,1.1,0.4,1.5c0.2,0.2,0.4,0.5,0.7,0.7c1.5,1.7,2.1,3.7,2.1,6c0,2.9,0,5.8,0.2,8.7c0.1,1.3,0.4,2.6,0.6,3.9
		c0.1,1.1,0,2.3-0.1,3.4c-0.1,1.2-0.4,2.4-0.5,3.5c-0.1,1.4,0.1,2.8,0.7,4.2c1.3,2.6,2.3,5.3,3.4,8c0.5,1.2,0.3,2.5,0.2,3.8
		c-0.2,2.5-0.7,4.9-1,7.4c0,0.2-0.1,0.3-0.3,0.4c0.2-1.1,0.4-2.1,0.5-3.2c0.2-2.2,0.4-4.4,0.5-6.6c0-0.5-0.2-1.1-0.4-1.6
		c-0.8-1.6-1.6-3.1-2.5-4.8c-0.4,0.6-0.7,1.1-0.9,1.5c-0.1,0.1,0.1,0.4,0.3,0.6c0.6,0.8,1.4,1.6,1.9,2.5c0.8,1.3,0.9,2.6,0.1,4
		c-0.4,0.7-0.3,1.6-0.3,2.4c0,0.7-0.1,1.3-0.8,1.6c0.9,0.4,0.9,0.5,0.4,1.2c-0.4,0.6-0.2,1,0.1,1.6c0.6,1.1,0.4,1.6-0.8,2.1
		c-0.7,0.3-0.9,0.6-0.6,1.3c0.3,0.6,0.1,1.2-0.3,1.7c-0.5,0.8-1.1,1.5-1.7,2.2c-0.7,0.8-0.9,1.7-1,2.7c-0.1,0.3-0.3,0.6-0.6,0.9
		c0.1-0.3,0.1-0.6,0.2-0.9c-0.1,0-0.1,0-0.2,0c-0.1,0.6-0.3,1.3-0.4,1.9c0.4,0.1,0.6,0.1,0.9,0.1c-0.8,0.7-1.7,1.3-2.4,1.9
		c-0.3,0.3-0.5,0.6-0.8,1c-0.4,0.4-0.7,0.9-1.1,1.2c-0.7,0.7-0.9,1.2-0.7,2.2c0.2,0.9,0.4,1.8,0.4,2.7c0.2,1.9,0.3,3.9,0.4,5.9
		c0.1,2.1,0.1,4.2,0.1,6.4c0,1,0.1,1.2,1.1,0.8c1.2-0.5,2.4-1,3.6-1.6c1.6-0.8,3.2-1.5,4.8-2.3c1.7-0.8,3.4-0.4,5.1-0.1
		c4.2,0.7,8.3,1.8,12.2,3.2c1.4,0.5,2.9,1.2,4.3,1.7c0.8,0.3,1.2,0.1,1.5-0.7c0.2-0.4,0.4-0.7,0.6-1c2.4-3,4.4-6.2,4.1-10.2
		c-0.3-4.4-1.5-8.6-3.6-12.6c-3.5-6.9-7-13.8-10.2-20.8c-1.5-3.2-3-6.4-5.1-9.3c-1.4-1.9-1.9-4.1-2.4-6.3c-1.1-4.9-2.4-9.8-3.6-14.7
		c-0.6-2.3-0.6-4.5-0.5-6.8c0-1,0.5-1.8,1.1-2.5c1.2-1.5,2.2-3,2.8-4.9c0.2-0.6,0.2-1.2,0.3-1.8c0.1-0.7,0.3-1.4,0.4-2.1
		c0.1-0.8,0.2-1.7,0.3-2.5c-0.8,0.3-1-0.3-1.2-0.9c-0.3-0.8-0.5-1.5-0.9-2.4c-0.1,0.2-0.1,0.2-0.1,0.3c0.6,1.1-0.1,1.9-0.4,2.9
		c-0.3,1-0.6,1.9-1.3,2.8c-0.6,0.7-1,1.5-1.4,2.2c0,0-0.1,0-0.1-0.1c-0.3-1.2-0.7-2.3-0.9-3.5c-0.3-1.2-0.5-2.5-0.7-3.7
		c-0.2-1.2-0.6-2.5-0.8-3.7c-0.2-0.9-0.2-1.8-0.4-2.8c0-0.2-0.1-0.3-0.1-0.5c-0.1,0-0.2,0-0.2-0.1c-0.1,0.3-0.3,0.6-0.4,0.9
		c-0.2,2.9-0.4,5.8,0.1,8.6c0,0,0,0.1-0.2,0.2c-0.1-0.6-0.3-1.3-0.3-1.9c0-2.2,0-4.4,0-6.6c0-0.4,0.1-0.8-0.6-0.8
		c-0.6,0-1,0.1-1,0.8c0.1,1.2,0.1,2.4,0.2,3.6c0.1,1.1,0.2,2.2,0.3,3.3c-0.1,0-0.2,0-0.2,0c-0.2-2.2-0.4-4.4-0.7-6.7
		c-1.1,0.6-2.2,0.8-2.9,1.8c-0.2-0.1-0.4-0.3-0.5-0.4c-0.6,0.3-1,0.5-1.5,0.7c-0.5,0.3-0.9,0.6-1.4,0.9c0.2,0.7,0.3,1.3,0.5,1.9
		c-0.1,0-0.1,0-0.2,0.1c-0.2-0.5-0.4-1.1-0.6-1.7c-0.8,0.3-1.5,0.6-2.2,0.9c0.5-0.9,4-3,5.2-3.1c0-0.2,0.1-0.4,0.2-0.8
		c0.2,0.8,0.5,0.6,0.8,0.4c0.4-0.2,0.8-0.3,1.1-0.4c1-0.3,1.7-0.9,1.4-2.1c0.7,0,1.2,0.1,1.8,0.1c0,0,0,0.1,0,0.1
		c-0.4,0.1-0.9,0.1-1.5,0.2c1.3,0.4,1.9,0,2-1.1c0-0.4,0.1-0.9,0.2-1.3c0.1,0,0.2,0,0.2,0c0,0.7,0,1.3,0,2.1
		c0.2-0.1,0.3-0.1,0.3-0.1c0-1.3,0.1-2.6,0.1-3.8c0-0.8-0.4-1-1.1-0.6c-0.4,0.3-0.8,0.7-1.2,1c-0.9,0.6-1.8,1.1-2.7,1.7
		c-1,0.6-1.9,1.1-2.9,1.6c-0.5,0.3-1.1,0.4-1.6,0.6c-1.7,0.9-3.3,1.9-4.9,2.9c-0.1,0-0.2,0.1-0.2,0.1c0-0.1-0.1-0.1-0.1-0.2
		c0.3-0.3,0.6-0.6,0.9-0.8c1.8-1,3.7-2,5.5-3c1.4-0.7,2.8-1.4,4.2-2.1c0.6-0.3,1.2-0.8,1.8-1.2c0.6-0.4,1.3-0.8,2-1.1
		c0.5-0.2,0.6-0.6,0.5-1c-0.1-0.2-0.4-0.5-0.7-0.5c-2-0.2-2-0.3-2.4-2.1c-0.6-3.7-1.4-7.4-2-11.1c-0.2-1.3-0.8-2.7-0.4-4.1
		c0.1-0.5,0.3-0.9,0.9-1.1c2.5-1,4.9-2,7.4-3.1c0.2-0.1,0.4-0.1,0.5-0.2c1.5-0.7,1.3-0.8,0.5-1.8c-1.5-1.9-2.6-4-3.4-6.2
		c-0.6-1.6-0.4-2.2,1.1-2.9c1.4-0.7,2.9-1.1,4.3-1.7c0.1,0,0.3,0,0.4,0c-0.3,0.8-1.1,1.1-1.9,1.4c-0.7,0.2-1.4,0.6-2.1,0.9
		c-0.3,0.1-0.7,0.3-1,0.4c0,0,0,0.2-0.1,0.3c-0.4,0.8-0.3,1.6,0.1,2.3c0.8,1.4,1.7,2.8,2.6,4.1c0.3,0.5,0.8,1,1.1,1.6
		c0.8,1.8,1.9,3.3,3.2,4.7c0.2,0.2,0.3,0.4,0.5,0.7c-0.2,0.1-0.4,0.1-0.7,0.2c0.3,0.3,0.5,0.8,0.7,0.8c0.8-0.1,1.6-0.2,2-1.1
		c0.2,0.1,0.5,0.2,0.5,0.3c0.1,0.4,0.2,0.9,0,1.1c-0.6,0.5-0.7,0.7-0.4,1.5c0.3-0.2,0.6-0.4,1-0.6c0-1.2,0-2.5,0-4
		c-0.2,0.3-0.5,0.6-0.7,0.9c-0.4,0.6-0.8,0.8-1.5,0.4c0.1,0,0.2,0,0.3-0.1c0.8-0.2,0.9-0.3,0.4-1c-0.6-0.8-1.3-1.6-1.9-2.4
		c-0.1-0.2-0.4-0.4-0.4-0.6c-0.2-1-1.1-1.5-1.4-2.4c-0.3-1-1.2-1.9-1.8-2.8c-0.2-0.2-0.4-0.4-0.5-0.7c-0.5-0.9-0.5-1.9,0.2-2.7
		c0.3-0.4,0.6-0.9,1.1-1c1.9-0.7,3.8-1.4,5.8-2.1c0.9,0,1.7,0,2.6,0c0,0.1,0.1,0.2,0.1,0.3c1,2,2,4,3,5.9c0.3,0.7,1,0.7,1.5,0
		c-0.5-0.8-1-1.5-1.5-2.3c-0.6-1-1-2-1.6-2.9c-0.2-0.4-0.3-0.7,0-1c0,0,0.1,0,0.1,0c0.8,1.2,1.6,2.5,2.4,3.7c0.2,0.3,0.4,0.6,0.5,1
		c0.4,1,0.9,1.7,2.1,1.6c0.3,0,0.8,0.3,1.1,0.6c0.5,0.4,1.1,0.8,1.9,0.6c-0.1-0.3-0.2-0.5-0.4-0.9c0.3,0.2,0.6,0.3,0.7,0.5
		c0.4,0.6,0.9,0.9,1.6,1c0.9,0.2,1.8,0.3,2.7,0.5c0.5,0.1,1,0.3,1.5,0.5c1.3,0.3,2.6,0.6,3.9,1c-0.1-0.5-0.2-0.9-0.2-1.3
		c0.1,0,0.1,0,0.2-0.1c0.2,0.2,0.4,0.5,0.5,0.7c0.2,0.6,0.7,0.9,1.3,1c1.1,0.2,2.2,0.4,3.4,0.7c1.6,0.4,3.2,0.8,4.9,1.2
		c0.3,0.1,0.6,0.1,1.1,0.2c-0.2-0.6-0.3-1.1-0.4-1.6c0.1,0,0.1-0.1,0.2-0.1c0.3,0.4,0.7,0.8,1,1.3c0.3,0.5,0.7,0.7,1.2,0.9
		c0.9,0.2,1.8,0.4,2.7,0.6c0.4,0.1,0.8,0.1,0.7-0.6c1,1.3,2.4,1.2,3.7,1.5c0.7,0.2,1.4,0.3,2.3,0.5c-0.2-0.7-0.3-1.2-0.5-1.9
		c1.2,0.6,1.3,2.2,2.7,2.3c1.1,0.1,2.2,0.8,3.5,0.3c0.9,0.6,4.3,1.6,5.5,1.5c-0.2-0.6-0.3-1.3-0.5-1.9c0.1,0,0.2-0.1,0.2-0.1
		c0.2,0.3,0.5,0.6,0.7,1c0.5,1.1,1.4,1.7,2.6,1.9c0.6,0.1,1.2,0.3,1.8,0.4c0.2,0,0.5-0.1,0.7-0.2c2.1,1.2,4.5,1.3,6.9,1.9
		c0-0.7-0.1-1.3-0.1-2c0.1,0,0.1-0.1,0.2-0.1c0.3,0.6,0.7,1.1,0.9,1.7c0.2,0.5,0.5,0.6,0.9,0.7c1.6,0.3,3.2,0.7,4.9,1.1
		c0.1-0.3,0.2-0.4,0.2-0.7c0.8,1.1,2.1,1.1,3.2,1.4c1.1,0.3,2.3,0.5,3.5,0.8c-0.1-0.7-0.2-1.3-0.3-1.9c0.1,0,0.1-0.1,0.2-0.1
		c0.2,0.3,0.5,0.7,0.7,1c0.4,1,1.1,1.5,2.2,1.6c1.1,0.1,2.1,0.5,3.2,0.7c0.3,0.1,0.6-0.1,1.1-0.2c0.7,0.9,2,0.8,3.1,1.2
		c0.1,0,0.2,0,0.4,0.1c1.6,0.4,1.6,0.4,2.4-1c0.1-0.1,0.2-0.2,0.2-0.4c0.1-0.1,0.1-0.1,0.4-0.1c-0.1,0.6-0.3,1.2-0.4,1.9
		c0,0.2,0,0.5,0.2,0.7c0.9,0.9,1.9,1.8,2.8,2.8c0.4,0.4,0.7,0.9,1.6,0.6c-0.8,0.9-0.4,1.6-0.1,2.2c0.3,0.8,0.7,1.6,1,2.5
		c0.8-0.3,1.6-0.5,2.4-0.8c0,0.1,0.1,0.1,0.1,0.2c-0.6,0.4-1.1,0.8-1.7,1.2c-0.5,0.3-0.7,0.6-0.6,1.1c0.1,0.8,0,1.7,0,2.5
		c0,0.3,0.2,0.6,0.3,0.9c-0.3,0.9-0.7,1.9-1,2.9c-0.1,0.2,0.1,0.6,0.3,0.6c0.5,0.2,1,0.3,1.6,0.4c0,0.1,0,0.1,0.1,0.2
		c-0.4,0.1-0.9,0.3-1.3,0.2c-0.9-0.1-1.4,0.3-1.8,1.1c-0.3,0.6-0.7,1.1-1.1,1.7c-0.2,0.3-0.3,0.7-0.4,1.2c-0.9,0.1-1.7,0.8-2.5,1.4
		c-0.1,0.1-0.1,0.6,0,0.8c0.2,0.5,0.5,1,0.7,1.4c-0.1,0.1-0.1,0.1-0.2,0.2c-0.4-0.4-0.8-0.9-1.3-1.2c-0.3-0.2-0.6-0.4-1-0.4
		c-0.8-0.1-1.7,0-2.5,0c-0.1,0.5-0.1,0.9-0.1,1.5c-0.2-0.2-0.4-0.3-0.4-0.5c-0.3-1-1-1.3-1.9-1.6c-0.8-0.2-1.6-0.5-2.5-0.8
		c0,1,0,1.9,0,2.7c-0.1,0-0.2,0-0.3,0.1c-0.2-0.7-0.5-1.4-0.7-2.1c-0.1-0.4-0.2-1-0.5-1.2c-0.5-0.3-1.2-0.5-1.8-0.5
		c-0.2,0-0.5,0.5-0.8,0.8c-0.3-1.9-2-1.6-3.3-2.3c-0.1,0.8-0.2,1.5-0.3,2.2c-0.1,0-0.2,0.1-0.2,0.1c-0.4-1.7-0.8-3.3-3-3.3
		c0,0.2-0.1,0.4-0.1,0.7c-0.5-0.5-0.9-1-1.5-1.3c-0.6-0.3-1.2-0.4-2-0.7c-0.1,0.8-0.2,1.5-0.3,2.1c-0.1,0-0.2,0-0.2,0
		c-0.1-0.4-0.3-0.8-0.4-1.2c-0.2-1.1-0.8-1.7-1.8-1.9c-0.3-0.1-0.5-0.2-0.7-0.3c-0.8-0.2-0.9-0.2-1.3,0.8c-0.5-1.9-2.2-1.8-3.6-2.5
		c0,0.9,0,1.7,0,2.5c-0.1,0-0.1,0-0.2,0c-0.1-0.5-0.3-1.1-0.4-1.6c-0.3-1.2-1.5-2-2.7-1.9c-0.2,0-0.5,0.3-0.7,0.5
		c-0.6-1.7-2.3-1.6-3.8-2.2c0,0.9,0,1.6,0,2.3c-0.1,0-0.2,0-0.3,0.1c-0.2-0.5-0.4-1-0.6-1.5c-0.2-0.4-0.3-1-0.6-1.2
		c-0.7-0.4-1.5-0.6-2.2-0.7c-0.1,0-0.4,0.5-0.7,0.8c-0.5-1.3-1.7-2-3.2-2.2c0.1,0.8,0.1,1.6,0.2,2.3c-0.1,0-0.1,0-0.2,0.1
		c-0.3-0.5-0.6-1-0.8-1.6c-0.4-1.6-1.8-1.6-3-2c-0.1,0-0.4,0.4-0.6,0.6c-0.3-0.4-0.6-0.9-1-1.2c-0.5-0.3-1.1-0.4-1.8-0.6
		c0,0.8,0.1,1.5,0.1,2.3c0,0-0.1,0.1-0.1,0.1c-0.9-1.6-1.4-3.7-3.9-3.6c0,0.1-0.1,0.3-0.2,0.7c-0.6-1.4-1.7-1.6-3-2
		c0.1,0.9,0.2,1.7,0.3,2.6c0,0-0.1,0-0.1,0.1c-0.3-0.6-0.6-1.1-0.8-1.7c-0.4-1.5-1.5-1.8-2.8-2c-0.1,0.3-0.1,0.5-0.2,1
		c-0.6-1.2-1.3-1.9-2.6-2c0.1,1,0.2,2,0.2,3c-0.1,0-0.1,0.1-0.2,0.1c-0.2-0.5-0.6-0.9-0.7-1.4c-0.2-0.8-0.6-0.8-1.3-0.6
		c-1.7,0.5-3.4,0.9-5.1,1.4c-0.6,0.2-1.2,0.2-1.8-0.2c-0.8-0.5-1.1-0.4-1.4,0.5c-0.5,1.6-0.9,3.3-1.3,5c-0.2,0.6,1.2,2.5,1.9,2.9
		c0.7,0.4,1.5,0.8,2.1,1.3c1.2,1,2.5,1.7,3.8,2.5c1.9,1,3.7,2.2,5.6,3.2c2.1,1.1,4.2,2.1,6.3,3.2c0.6,0.3,1.2,0.8,1.8,1.2
		c0.3,0.2,0.5,0.5,0.8,0.6c1.8,1,2.2,2.8,2.6,4.6c0.2,0.8,0.4,1.5,0.6,2.3c0.1,0.2,0.2,0.4,0.3,0.5c0.8,0.4,0.8,1.2,0.8,1.8
		c0,1,0.4,1.8,1,2.4c0.6,0.6,0.9,1.3,1.1,2.2c0.4,1.5,1.1,2.9,1.7,4.4c0.5,1.1,1.1,2.2,1.6,3.4c0.6,1.4,0.9,2.9,1.6,4.2
		c0.4,0.8,0.9,1.9,2.3,1.9c0.9,0,1.2-0.1,1.6-0.9c0.3-0.7,0.5-1.3,0.8-2c0.1,0,0.1,0,0.2,0c0,0.2,0,0.5,0,0.7
		c-0.1,0.4-0.1,0.8-0.2,1.2c-0.2,1.3-0.2,1.3,0.9,2.1c0.4,0.3,0.8,0.6,1.2,0.9c0.3-0.2,0.6-0.5,1-0.8c-0.1,0.7-0.3,1.3-0.1,1.9
		c0.2,0.6,0.7,1,1.1,1.5c0.9-0.4,1.8-0.9,2.6-1.3c0,0.1,0.1,0.1,0.1,0.2c-0.6,0.5-1.2,1-1.8,1.4c-0.5,0.4-0.7,0.7-0.4,1.3
		c0.3,0.6,0.4,1.3,0.7,1.9c0.5-0.2,0.9-0.3,1.3-0.5c0,0.1,0.1,0.1,0.1,0.2c-0.2,0.2-0.4,0.5-0.6,0.7c-0.4,0.3-0.4,0.6-0.2,1
		c0.3,0.7,0.5,1.4,0.8,2.1c0.9-0.4,1.8-0.7,2.7-1.1c0.1,0.1,0.1,0.2,0.2,0.3c-0.2,0.2-0.5,0.4-0.7,0.6c-0.4,0.3-0.8,0.6-1.1,0.9
		c-0.4,0.3-0.5,0.6-0.3,1.1c0.3,0.7,0.5,1.5,0.7,2.3c0.5-0.2,1-0.4,1.5-0.5c0,0.1,0.1,0.1,0.1,0.2c-0.3,0.3-0.6,0.6-0.9,0.9
		c-0.3,0.3-0.4,0.5-0.2,0.9c0.4,0.9,0.7,1.7,1,2.6c0.2,0.7,0.6,0.7,1.1,0.5c0.4-0.2,0.7-0.3,1.1-0.5c0.3-0.1,0.5-0.1,0.8-0.2
		c0,0.1,0.1,0.1,0.1,0.2c-0.6,0.4-1.1,0.8-1.7,1.1c-0.5,0.3-0.7,0.6-0.5,1.2c0.3,0.9,0.5,1.7,0.8,2.6c0.5,0,0.9-0.1,1.4-0.1
		c-0.1,0.2-0.1,0.3-0.2,0.4c-0.8,0.6-0.7,1.2-0.4,2c0.4,0.9,0.7,1.9,1.1,2.9c0.9-0.3,1.8-0.6,2.6-0.9c0,0.1,0.1,0.1,0.1,0.2
		c-0.4,0.3-0.8,0.6-1.2,0.9c-0.3,0.2-0.6,0.3-0.9,0.6c-0.1,0.1-0.3,0.4-0.2,0.6c0.2,0.6,0.4,1.1,0.6,1.7c0.2,0.6,0.6,0.9,1.2,0.6
		c0.1,0,0.2,0,0.6,0c-0.3,0.4-0.6,0.6-0.8,0.9c-0.1,0.2-0.3,0.4-0.2,0.6c0.4,1.3,0.9,2.5,1.4,3.8c0.9-0.4,1.8-0.7,2.6-1
		c0,0.1,0.1,0.1,0.1,0.2c-0.2,0.2-0.4,0.4-0.7,0.6c-1.8,1-1.8,1-1.1,3c0,0.1,0.1,0.2,0.1,0.3c0.4,1.2,0.4,1.2,1.7,1
		c0.1,0,0.2,0,0.5,0c-0.3,0.3-0.4,0.5-0.7,0.6c-0.7,0.4-0.7,0.8-0.4,1.5c0.4,0.9,0.8,1.8,1.1,2.8c0.9-0.4,1.7-0.7,2.6-1.1
		c0,0.1,0.1,0.2,0.1,0.2c-0.3,0.3-0.6,0.5-1,0.8c-0.3,0.2-0.6,0.4-0.9,0.6c-0.4,0.3-0.6,0.6-0.3,1.1c0.2,0.5,0.3,1,0.5,1.5
		c0.3,0.9,0.4,0.9,1.3,0.7c0.1,0,0.3,0,0.5,0.1c-0.2,0.2-0.5,0.4-0.7,0.7c-0.1,0.2-0.3,0.5-0.3,0.6c0.4,1.2,0.8,2.3,1.2,3.6
		c0.9-0.3,1.8-0.6,2.6-0.9c0,0.1,0.1,0.1,0.1,0.2c-0.4,0.3-0.7,0.5-1.1,0.8c-1.3,0.8-1.3,0.8-0.8,2.1c0,0,0,0,0,0.1
		c0.2,0.5,0.3,1.1,0.6,1.5c0.4,0.7,1-0.2,1.5,0.1c-0.1,0.1-0.1,0.3-0.2,0.3c-0.8,0.5-0.8,1.2-0.4,2c0.3,0.6,0.5,1.2,0.7,1.9
		c0.9-0.3,1.7-0.6,2.5-0.9c0,0.1,0.1,0.1,0.1,0.2c-0.6,0.5-1.2,0.9-1.8,1.4c-0.4,0.2-0.5,0.5-0.3,0.9c0.3,0.7,0.5,1.5,0.8,2.3
		c0.4-0.1,0.7-0.1,1.1-0.2c0,0.1,0,0.2-0.1,0.2c-0.7,0.5-0.8,1.1-0.3,1.8c0.1,0.1,0.1,0.3,0.1,0.4c-0.6,0-1.2,0-1.9,0
		c-0.2-0.5-0.4-0.9-0.6-1.4c-1.2-3.2-2.3-6.4-3.5-9.6c-4-11.3-8.1-22.5-12.1-33.8c-2.3-6.5-4.7-13-7.1-19.4
		c-0.6-1.7-1.6-3.2-3.2-4.2c-0.6-0.3-1.2-0.6-2-0.5c0.1,0.2,0.1,0.4,0.2,0.4c1.1,0.8,1.4,2,1.8,3.2c0.4,1.2,0.7,2.4,1.6,3.3
		c0.3,0.3,0.3,1,1,1.1c0,0,0.1,0.2,0.1,0.3c-0.2,1.3,0.4,2.3,0.9,3.4c0.3,0.5,0.3,1,0.1,1.5c-0.6,1.4-0.5,2.8,0,4.2
		c0.7,1.9,1.6,3.7,2.2,5.6c0.7,2.5,1.1,5,1.5,7.5c1,5.6,2.9,11,4.3,16.5c0.6,2.4,1.7,4.6,2.5,7c0.6,1.9,0.8,3.9,1.6,5.7
		c0.3,0.7,0.5,1.4,0.9,2c1.6,2.2,3.2,4.4,4.9,6.6c0.1,0.2,0.1,0.4,0.2,0.6c-1.2,0-2.5,0-3.7,0c-0.8-2.3-1.5-4.7-2.3-7
		c-0.8-2.3-1.5-4.6-2.3-6.8c0.1,0,0.1,0,0.2-0.1c0.2,0.4,0.3,0.7,0.5,1.1c0.1,0,0.1,0,0.2-0.1c-0.2-0.6-0.3-1.2-0.5-1.7
		c-1.4-3.1-2.4-6.4-3.2-9.7c-0.9-3.6-2-7.1-2.9-10.6c-0.6-2.6-1.1-5.2-1.5-7.8c-0.6-3.6-2.3-6.8-3.5-10.1c0,0-0.1-0.1-0.2-0.1
		c-0.2,0.4-0.5,0.8-0.7,1.3c-0.4,1.1-1.2,1.6-2.3,1.9c-0.3,0.1-0.6,0.2-0.9,0.2c-1.5,0-2.3,1.1-3.3,2c1.8,2,2.7,4.3,3.5,6.7
		c0.8,2.6,1.9,5.1,1.8,7.8c-0.1,2.4-0.5,4.8-0.8,7.2c-0.1,0.7,0,1.4,0.4,2.1c2.3,3.8,4.5,7.7,6,11.9c0,0.1,0.1,0.1,0.2,0.2
		c0.1-0.1,0.1-0.2,0.1-0.4c0.5,0.7,1,1.3,1.5,2c-0.3,0.5-0.9,1.2-1.2,1.9c-0.6,1.7-1.6,3.2-2.7,4.6c-0.9,1.1-1.5,2.2-1.5,3.7
		c-0.1,0-0.2,0-0.3,0c-0.4-1.4,0.1-2.5,0.9-3.5c0.4-0.5,0.8-1,1.2-1.4c0.1-0.2,0.1-0.4,0.3-0.7c-0.6,0.2-1.1,0.4-1.6,0.5
		c0-0.1-0.1-0.1-0.1-0.2c0.3-0.3,0.7-0.7,0.9-1c0.1-0.2,0.3-0.5,0.2-0.7c-0.3-1.1-0.7-2.1-1.1-3.2c-1,0.5-2,1-3,1.5
		c0-0.1-0.1-0.1-0.1-0.2c0.5-0.4,0.9-0.7,1.4-1.1c1.4-1.1,1.4-1.1,0.8-2.9c-0.4-1.1-0.4-1.1-1.5-0.8c-0.1,0-0.1,0-0.3-0.1
		c0.2-0.3,0.5-0.6,0.7-0.8c0.1-0.2,0.3-0.4,0.3-0.5c-0.4-1.3-0.9-2.6-1.4-4c-0.4,0.3-0.7,0.4-1,0.6c-0.5,0.3-1,0.9-1.6,1
		c-1.1,0.2-1.5,1.1-2,1.8c-1,1.3-1.8,2.7-2.8,4c-1.9,2.6-4.2,4.9-5.2,8.1c0,0.1-0.2,0.2-0.2,0.2c-0.1,0-0.2-0.1-0.3-0.2
		c-0.1-0.3-0.2-0.7-0.3-1c-0.2-1.4,0.3-2.7,0.7-4c0.5-1.8,1.2-3.6,1.5-5.5c0.3-3.1,0.4-6.1,0.4-9.2c0-1.5-0.4-3-0.7-4.4
		c-0.1-0.5-0.4-0.6-0.8-0.6c-1.1,0-2.3,0-3.4,0.1c-1,0.1-1.8-0.2-2.6-0.6c-0.6-0.3-1.2-0.6-1.8-0.9c0,0.3,0,0.5,0.1,0.7
		c0.3,0.8,0.8,1.7,0.9,2.5c0.3,1.7,0.5,3.4,0.5,5.2c-0.1,2.4,0.1,4.7,0.3,7.1c0.1,1.1,0.3,2.3,0.4,3.4c0.2,1.1,0.5,2.1,0.6,3.1
		c0.2,1.9,0.4,3.8,0.6,5.7c0.1,0.8,0.2,1.6-0.2,2.3c-0.1,0-0.2,0-0.3,0c-0.1-0.9-0.1-1.7-0.2-2.7c-0.5,0.4-0.9,0.8-1.4,1.2
		c-0.4-0.8-0.2-1.5,0.2-2.1c1.2-2,0.4-4.1,0.3-6.1c-0.2,0-0.2,0-0.2,0c-0.1,0-0.2,0.1-0.2,0.2c-0.7,0.8-1.6,1.3-2.7,1.1
		c-0.1,0-0.2,0.1-0.3,0.1c-0.2,0.1-0.4,0.3-0.6,0.2c-1.3-0.4-2.4,0.2-3.6,0.5c-0.4,0.1-0.8,0.1-1.2,0.2c0-0.1,0-0.1,0-0.2
		c-0.9,0.7-2.1,1.1-3.2,0.8c0.9-0.4,1.8-0.8,2.8-1.1c0.6-0.2,1.3-0.2,1.9-0.4c0.7-0.2,1.5-0.4,2.2-0.5c1-0.1,2,0,2.9-0.2
		c1.7-0.2,2.4-1.4,1.8-3c-0.7-1.7-1.4-3.3-2.1-4.9c-0.3-0.6-0.1-0.9,0.5-1.1c0.3-0.1,0.6-0.3,0.9-0.4c0-0.1-0.1-0.2-0.1-0.3
		c-2,1-3.9,2.1-6.1,2.6c-0.1-0.3-0.1-0.5-0.2-0.7c-0.5,0.1-1,0.3-1.5,0.4c-0.5,0.1-1,0.2-1.5,0.3c-1.8,0.4-1.8,0.4-1.9,2.2
		c0,0.2-0.2,0.6-0.4,0.7c-0.2,0.1-0.5,0-0.8-0.2c-0.2-0.1-0.3-0.4-0.6-0.6c0.6-0.1,1-0.2,1.5-0.3c-0.1-0.7-0.1-1.4-0.2-2.1
		c-0.1-1.9-0.3-3.8-0.4-5.7c-0.1-1.7-1.5-2-2.6-1.6c-0.2,0.1-0.5,0.1-0.7,0.2c-1,0.1-1.4,0.6-1.1,1.6c0.5,0,1,0,1.3,0
		c0.2-0.6,0.4-1.1,0.6-1.6c0.1,0,0.1,0,0.2,0c0.1,0.2,0.2,0.5,0.2,0.7c0.7,2.7,0.8,5.5,0.8,8.2c0,0.4-0.3,0.8-0.4,1.1
		c-0.6-0.3-0.4-0.8-0.4-1.2c0-0.3,0.2-0.7-0.3-0.8c-0.5,0-0.7,0.3-0.7,0.7c0,0.3-0.1,0.7,0,0.9c0.1,0.2,0.5,0.3,0.7,0.5
		c-0.3,0.2-0.6,0.4-0.7,0.7c-0.4,1-0.7,2-1.1,3c-0.2,0.6-0.5,1.2-0.8,1.8c-0.6,1.1-1.3,2.2-2,3.3c-0.2,0.4-0.3,0.8,0.2,1.1
		c0.5,0.4,0.7-0.1,1-0.3c0.5-0.4,1-0.9,1.5-1.3c0.1,0.1,0.2,0.2,0.2,0.2c-0.4,0.4-0.7,0.8-1.1,1.2c-1.2,1.1-2.6,2.1-3,3.8
		c-1.2,0-2.4,0-3.6,0c-0.8-0.4-1.7-0.9-2.5-1.3c-1.6-0.7-3.2-1.3-4.8-1.9c-0.7-0.3-1.4-0.4-2-0.7c-0.2-0.1-0.4-0.4-0.6-0.6
		c0.1-0.1,0.1-0.2,0.2-0.3c3.5,0.9,6.9,2.4,10.2,4c-0.1-0.2-0.3-0.4-0.4-0.6c0.4,0,0.8,0.2,1.1,0.4c0.3,0.2,0.6,0.5,0.8,0.7
		c0.1-0.1,0.1-0.1,0.2-0.2c-0.6-0.7-1.2-1.4-1.8-2.2c-0.2,0.1-0.3,0.2-0.4,0.3c-0.5,0.5-0.9,0.5-1.3-0.1c-0.8-1-1.8-1.7-3.1-2
		c-1.7-0.4-3.3-0.8-5-1.2c-1.8-0.4-3.5-0.1-5,1.1c-0.2,0.2-0.4,0.3-0.6,0.4c-1.8,1.4-3.5,2.8-5.3,4.1c-3.7,0-7.4,0-11,0
		c0.1-0.2,0.2-0.5,0.2-0.7c0.1-0.8,0.4-1.6,0.2-2.3c-0.1-0.4-0.2-0.7-0.2-1.2c0-0.6-0.1-1.1-0.7-1.4c-0.5-0.3-0.8,0.1-1.2,0.3
		c-0.2,0.2-0.6,0.2-0.8,0.3c0-0.1-0.1-0.1-0.1-0.2c0.2-0.2,0.3-0.5,0.5-0.7c0.7-0.9,1.4-1.9,2.1-2.8c0.3-0.4,0.2-2.8-0.1-3.2
		c0-0.1-0.1-0.1-0.2-0.1c-0.6-0.2-0.4-0.5-0.1-0.8c0.4-0.4,0.2-0.7-0.1-1c-0.2-0.2-0.4-0.3-0.5-0.4c0.2-0.8,0.9-1.4,0.8-2.3
		c-0.5,0.5-1,1-1.4,1.6c-1.3,1.8-2.6,3.6-4,5.3c-0.6,0.7-1.3,1.3-2.1,1.8c-0.6,0.5-1.4,0.8-2,1.3c-1.5,1.3-3,2.6-4.5,4
		c0.3,0.3,0.6,0.5,0.8,0.6c0.3,0.2,0.6,0.3,0.8,0.6c0.6,0.6,0.6,0.9-0.1,1.3c-0.7,0-1.3,0-2,0c0-0.5,0-1-0.1-1.4
		c-1.2,0.5-2.3,1-3.4,1.4c-1.3,0-2.6,0-3.9,0c-0.1-0.5-0.2-1,0.4-1.3c0,0.2,0,0.3,0.1,0.4c0.2-0.1,0.3-0.2,0.4-0.3
		c1.9-1.8,3.9-3.7,5.8-5.5c3.6-3.5,7.4-6.7,10.7-10.5c1.8-2,3.7-4,5-6.4c0.2-0.4,0.2-0.8,0-1.2c-0.9-1.5-2.1-2.9-3.5-4
		c-2.2-1.7-4.5-2.9-7.4-2.9c-0.6,0-0.9,0.2-1.2,0.7c-1.6,2.8-3.2,5.6-4.8,8.3c-1.9,3.1-3.7,6.3-5.7,9.3c-1.1,1.7-2.4,3.3-3.7,4.8
		c-1,1.2-2.2,2.3-3.4,3.4c-0.5,0.5-1.1,0.8-1.5,1.4c-1.2,1.6-2.7,1.8-4.5,1.4c-0.5-0.1-1.2-0.1-1.6,0.1c-1.5,1-3.2,1.7-4.9,2.2
		C60.4,150.5,60.1,150.5,59.8,150.5z M119.8,35.3c-0.2-0.1-0.3-0.1-0.5-0.2c-0.1,0.1-0.1,0.1-0.2,0.2c0.1,0.3,0.2,0.7,0.4,0.9
		c0.2,0.2,0.6,0.2,1,0.3c0-0.1,0-0.1,0-0.2c-0.4-0.2-0.7-0.3-1.1-0.5c0-0.1,0-0.1,0.1-0.2c0.2,0.1,0.4,0.1,0.7,0.2
		c0-0.1,0.1-0.1,0.1-0.2C120.1,35.5,120,35.4,119.8,35.3c0.2-0.3,0.4-0.6,0.5-0.9c0-0.2-0.3-0.4-0.5-0.6c0,0-0.1,0.1-0.1,0.1
		c0.1,0.1,0.2,0.3,0.2,0.4C119,34.7,119.8,35,119.8,35.3z M111.7,110.7c0.4-0.6,0.6-1.1-0.1-1.5c-1.3-0.9-2.7-1.6-4.3-1.9
		c-1.9-0.4-3.7,0-5.6,0.3c-1.6,0.2-3.1,0.5-4.5,1.4c-1.3,0.9-2.7,1.6-4,2.5c-0.2,0.1-0.4,0.3-0.6,0.5c0,0.1,0.1,0.1,0.1,0.2
		c0.3,0,0.7,0,1-0.1c4.6-1.1,9.1-0.7,13.6,0.9c0.2,0.1,0.6,0.1,0.9-0.1c1.2-0.6,2.4-1.3,3.6-2c-1.1,0.8-2.1,1.6-3.2,2.3
		c0.7,0.2,1.4,0.4,2.2,0.6c0.7-1.3,1.5-2.6,2-4.1C112.3,110,112,110.3,111.7,110.7z M106.3,76.5c0.1,0.1,0.1,0.3,0.2,0.4
		c0.1-0.1,0.2-0.1,0.3-0.2c-1.1-3.4-2.2-6.7-2.8-10.2c0.2,0.3,0.3,0.6,0.4,0.9c0.7,2.4,1.4,4.8,2,7.2c0.6,2,1.4,3.8,3.4,4.8
		c0.3,0.1,0.4,0.4,0.7,0.6c0,0.1-0.1,0.1-0.1,0.2c-0.7-0.4-1.5-0.9-2.2-1.3c0.7,3.6,1.4,7.1,2,10.2c0.2-1.3,0.6-3,0.8-4.7
		c0.1-1,0.2-2,0-2.9c-0.6-2.1-0.6-4.2-0.7-6.4c-0.1-2,0-4.1,0-6.1c0-1.6-0.4-3.1-1.4-4.3c-0.8-1.1-1.8-2.1-2.6-3.3
		c-1.2-1.7-2.4-3.5-3.6-5.3c-0.7-1.1-1.4-1.7-2.9-1.4c-1.7,0.3-3.5,0.3-5.2,0.5c-1.3,0.1-1.5,0.4-1.3,1.7c0.4,2.5,1.1,4.9,2,7.3
		c1.4,3.4,2.9,6.8,3.1,10.6c0,0.5,0.3,0.7,0.8,0.6c1-0.2,1.9-0.5,2.9-0.7c1.7-0.4,3.2,0.2,4,1.8c-0.6-0.4-1.2-0.7-1.9-1.1
		c-1.2-0.7-2.3-0.4-3.6,0c0.3,0.1,0.4,0.1,0.7,0.2c-1.6,0.5-3.2,0.8-4.6,1.5c-1.4,0.7-2.5,1.9-3.7,2.8c0-0.2,0.1-0.4,0.3-0.6
		c1.4-1.5,2.6-3.1,4.9-3.4c-0.3-1.7-0.6-3.3-1-4.9c-0.4-1.6-1-3.2-1.6-4.8c0.2,0.1,0.3,0.2,0.4,0.3c-0.4-0.9-0.9-1.6-1.2-2.5
		c-0.3-0.8-0.9-1.5-1-2.4c0-0.9-0.4-1.9-0.6-2.8C93,57.9,92.8,57,92.6,56c-0.3,0.2-0.5,0.3-0.7,0.5c-1.6,1.3-3.1,2.6-4.7,3.8
		c-1.4,1-2.4,2.2-3.2,3.6c-1.4,2.6-2.6,5.2-3.9,7.9c-0.2,0.4-0.4,0.8-0.7,1.2c-0.1-0.1-0.2-0.1-0.3-0.2c1.7-3,3.1-6.2,4.1-9.6
		c-0.4,0.1-0.8,0.3-1.1,0.6c-0.9,0.8-1.7,1.7-2.5,2.6c-0.4,0.5-0.7,1.2-0.9,1.9c-0.5,2.5-1,5-1.5,7.6c-0.5,2.4-1,4.8-1.4,7.2
		c-0.4,3-0.7,6-1,9c-0.2,2.3-0.3,4.6-0.5,6.9c-0.1,1,0.3,1.9-0.1,2.9c-0.3,0.5-0.1,1.3-0.1,1.9c-0.1,2-0.2,4.1-1.2,6
		c-1.5,2.7-1.5,5.7-1.4,8.7c0,0.8,0.2,1.6,1.3,1.5c0.1,0,0.1,0,0.2,0.1c0.2,0.2,0.7,0.5,0.7,0.7c0,0.5-0.3,0.8-1,1
		c0.2-0.2,0.2-0.3,0.3-0.3c0.1-0.2,0.3-0.6,0.3-0.7c-0.2-0.2-0.5-0.4-0.8-0.4c-0.1,0-0.3,0.4-0.4,0.6c-0.1,0.1-0.1,0.3-0.1,0.4
		c-0.4,1-0.2,1.3,0.9,1.4c0.3,0,0.5,0,0.8,0c2.1-0.2,4.3-0.4,6.4-0.6c0.4,0,0.9-0.2,1.3-0.1c1.9,0.4,3.7,0.1,5.5-0.3
		c0.6-0.1,1.3-0.1,1.9-0.1c0.4,0,0.5-0.2,0.4-0.5c-0.2-0.7-0.6-1.3-1.3-1.6c-0.3-0.2-0.6-0.4-0.9-0.5c0-0.1,0.1-0.1,0.1-0.2
		c0.6,0.3,1.1,0.5,1.9,0.8c0.2-1.6,0.5-3,0.7-4.4c0.1,0,0.1,0,0.2,0c0,0.2,0.1,0.4,0.1,0.6c-0.2,1.2-0.4,2.4-0.6,3.6
		c-0.1,0.4,0,0.9-0.1,1.3c0.1,0,0.2,0,0.2,0.1c0.1-0.2,0.3-0.3,0.4-0.5c0.5-0.6,0.3-1.3,0.2-2.1c-0.2-1-0.1-1.1,0.8-1.3
		c0-0.2,0-0.5-0.1-0.7c-0.1-0.4-0.2-0.8,0.5-0.9c0.1,0,0.2-0.3,0.2-0.5c-0.1-0.5-0.2-1-0.3-1.5c-0.2-0.7-0.8-0.9-1.4-1.2
		c-0.4,1.3-0.2,1.8,0.8,2.8c-3.1-1.5-6.2-0.3-9.4-0.4c2.7-0.5,5.3-0.9,8-0.6c0-0.7,0.1-1.4,0.1-2c0-0.1,0-0.2,0-0.2
		c-0.7-0.8-0.2-1.6,0.1-2.3c0.5-1.3,1-2.7,1-4.1c0-3-0.1-5.9-1.7-8.6c-2.8-4.9-4.6-10.3-6.5-15.6c0,0,0-0.1,0.1-0.4
		c0.2,0.4,0.3,0.6,0.4,0.8c1.9,5.2,3.8,10.4,6.3,15.4c0.3,0.7,0.8,1.3,1.1,1.9c0.1,0,0.2,0,0.3,0c0.4-1.3,0.7-2.7,1.1-4
		c0.3-1,0.2-1.9-0.5-2.7c0,0-0.1-0.1-0.1-0.2c0.2,0.1,0.3,0.1,0.6,0.2c-0.1-0.4-0.2-0.7-0.3-0.9c-0.6-0.9-1.1-1.9-1.7-2.7
		c-2-2.4-3.5-5.1-4.7-8c-0.2-0.4-0.2-0.8-0.4-1.2c0.1,0,0.1-0.1,0.2-0.1c1.3,3.8,3.5,7.2,6.1,10.4c0-0.3,0-0.4,0-0.5
		c-0.4-1.9-0.7-3.8-1.1-5.7c-0.1-0.4-0.2-0.8,0-1.2c1.2-2.8,1.6-5.8,2-8.8c0.1-0.8,0.3-1.5,0.4-2.3c0.2,0.3,0.2,0.6,0.2,0.9
		c-0.6,3.3-1.3,6.6-1.9,9.9c-0.1,0.5-0.2,1-0.2,1.5c1.3-0.6,1.5-2.1,2.9-2.5c-0.8,1.1-1.6,2.1-2.4,3.1c-0.2,0.2-0.3,0.6-0.2,0.8
		c0.6,2.4,1.2,4.9,1.7,7.3c0.7,3,1.6,5.9,1.6,9c0,2.8,0.1,5.5-1.2,8.1c-0.2,0.4,0.1,1,0.2,1.5c0.1,0.4,0.4,0.4,0.7,0.2
		c0.9-0.5,1.8-1,2.7-1.6c1.3-0.9,2.7-1.6,4.3-1.9c0.5-0.1,1-0.2,1.5-0.3c-0.1-0.2-0.1-0.4-0.1-0.6c-0.6-2.4-1.4-4.7-1.8-7.1
		c-0.5-2.4-0.7-4.9-0.9-7.4c0-0.3,0.1-0.6,0.1-1c0.1,1.5,0.2,2.8,0.4,4.1c0.7,3.6,1.5,7.2,2.3,10.8c0.2,1.1,0.4,1.1,1.5,1
		c2.5-0.2,4.9-0.5,7.1,1.1c0,0,0.1,0,0.1,0c-1.1-1.6-2.1-3.3-3.2-4.9c0.1,0,0.1-0.1,0.2-0.1c0.3,0.4,0.5,0.8,0.8,1.2
		c0.5,0.7,0.9,1.5,1.5,2.2c0.5,0.7,1.1,1.4,1.7,2.1c0.5,0.6,1.1,0.4,1.3-0.4c0.1-0.4,0-0.8,0.1-1.1c0.1-0.7-0.1-1.5,0.2-2.1
		c0.8-1.7,0.2-3.1-0.9-4.4c-0.3-0.3-0.5-0.7-0.7-1c-0.9-1.3-2.1-2.5-2.8-4c-1.4-2.7-2.7-5.5-3.9-8.4c-0.9-2.3-1.6-4.8-2.4-7.2
		c1.3,3,2.3,6.2,3.6,9.2c1.3,3,2.8,6,4.8,8.7c1-1,1-2,0.7-3.1c-0.6-1.9-1.3-3.9-1.6-5.8c-0.7-3.5-1.1-7.1-2.3-10.5
		c-0.1-0.3-0.3-0.5-0.4-0.7C106.8,77.2,106.5,76.9,106.3,76.5z M134.6,53.5c-0.2,0.1-0.4,0.2-0.5,0.4c-0.8,0.8-1.3,1.4-0.2,2.3
		c0.3,0.3,0.8,0.6,0.8,1c0.1,1.1,0.8,1.8,1.4,2.6c0.4,0.6,0.8,1.3,1,2c0.5,2,0.8,4.1,1.4,6.1c0.7,2.2,1.7,4.4,2.6,6.6
		c0.2,0.5,0.5,0.9,0.8,1.4c0.9,1.7,1.8,3.5,2.7,5.2c0.1,0.1,0.2,0.2,0.4,0.4c0-2.2-1.4-3.5-2.5-5.1c0.7,0.6,1.4,1.3,2,2
		c0.8,1,1.6,1.8,2.9,2.1c0.7,0.2,1.3,0.5,2,0.9c0.3,0.2,0.5,0.5,0.7,0.7c-0.3,0.1-0.6,0.3-1,0.4c-0.6,0.1-1.1,0.1-1.9,0.2
		c1.6,1.8,2.9,3.7,3.6,5.8c0.7,2.1,1,4.3,0.9,6.5c-0.1,0-0.2,0-0.2-0.1c0-0.4-0.1-0.8-0.1-1.1c0.1-2.2-0.5-4.2-1.4-6.2
		c-0.7-1.6-1.5-3.2-2.8-4.4c-0.4-0.4-0.8-0.6-1.5-0.2c0.4,0.7,0.7,1.3,1,1.9c1.2,2.2,2.5,4.4,2.7,7c0.1,1.6,0.1,3.2,0.2,4.7
		c0.2,2.8,0.4,5.6,1.1,8.3c0.7,2.8,2.2,5,4.8,6.4c1.6,0.8,3.1,1.8,4.6,2.7c4.1,2.3,6,6.1,6.6,10.5c0.4,2.6,0.2,5.3,0.2,8
		c0,2.4-0.4,4.7-1.1,7c-0.5,1.6-1,3.1-1.4,4.7c-0.2,0.7,0,1.4,0,2.1c0.2-0.1,0.3-0.2,0.3-0.3c1-1.9,1.9-3.8,3.4-5.5
		c1.3-1.5,2.5-3.2,3.8-4.8c0.9-1.2,1.9-2.3,2.8-3.5c0.5-0.6,1-1.2,1.2-1.9c0.4-1.1,0.7-2.3,1-3.5c0.4-2,0.4-4.1,0.9-6.1
		c0.6-2.3,0.3-4.5-0.2-6.7c-1.1-4.7-2.9-9.1-6.3-12.6c-2.4-2.5-4.8-5.2-7.3-7.6c-3-2.9-5.3-6.3-6.9-10.1c-0.6-1.4-1.1-4.5-0.8-5.9
		c0.5,2.3,0.4,4.5,1.5,6.6c1,2,2.1,3.9,3.7,5.7c-0.1-0.4-0.1-0.5-0.2-0.7c-0.5-1.8-1.1-3.6-1.4-5.4c-0.6-2.9-1-5.9-1.5-8.8
		c-0.1-0.5-0.2-0.9-0.3-1.4c-0.1,0-0.1,0-0.2,0c-0.4,0.9-0.8,1.7-1.2,2.6c-0.1,0-0.1,0-0.2-0.1c0.2-0.6,0.4-1.2,0.7-1.8
		c1.3-2.4,1.8-5.1,2.2-7.7c0.6-3.9,1.1-7.8,1.7-11.8c0.1-0.6,0.1-1.1-0.6-1.3c-0.1,0-0.2-0.2-0.3-0.3c1.1,0,1.3-0.5,0.9-1.4
		c-0.1-0.2-0.3-0.4-0.5-0.5c-0.4-0.3-0.8-0.5-1.3-0.8c-2.2-1.2-4.5-2.4-6.7-3.6c-1.6-0.9-2.9-2.2-4.6-2.7c-1.8-0.6-3.5-1.4-4.7-3
		c-0.3-0.4-0.8-0.6-1.3-0.9c-0.1,0.1-0.1,0.1-0.2,0.2c0.7,1.3,1.4,2.6,2.2,3.9c0.1,0.1,0.2,0.2,0.3,0.3c1,0.6,2,1.3,3.2,1.8
		c1.3,0.6,2.2,1.9,3.8,2c0,0,0,0,0.1,0c0.4,0.2,0.9,0.4,1.3,0.6c1.2,0.5,2.5,0.9,3.7,1.5c1.2,0.6,2.3,1.4,3.4,2c0,0-0.1,0.1-0.1,0.1
		c-2.7-1.2-5.4-2.4-8.2-3.6c0,0.4,0,0.6,0,0.9c-0.4-0.4-0.1-1.2-1-1.2c0.1,0.7,0.2,1.3,0.3,2c-0.2-0.3-0.2-0.5-0.3-0.8
		c-0.2-0.6-0.3-1.3-0.7-1.6c-1.1-0.9-2.3-1.5-3.5-2.3c0,0-0.1,0-0.2,0.1c0,0.4-0.1,0.8-0.2,1.2c-0.1,0-0.2,0-0.2,0
		c0.1-1.1-0.2-2.1-1.4-2.5c0.4,0.7,0.7,1.4,1.1,2.1c-0.2-0.1-0.4-0.1-0.4-0.3c-0.4-0.8-1.2-1-2-1.3c-1.3-0.4-2.5-0.9-3.8-1.3
		c-0.2-0.1-0.5-0.1-0.9-0.2c0.1,0.5,0.2,0.7,0.3,1c0.8,2.7,1.7,5.5,2.5,8.2c0.1,0.4,0.1,0.8,0.2,1.4c-0.4-0.3-0.6-0.4-0.9-0.6
		c0.1,0.6,0.1,1.1,0.1,1.7c0,0.5,0.1,1,0.1,1.5c-0.8-2-2.4-3.3-4-4.8c-0.2,1.3-0.3,2.4-0.4,3.5c0,0.2,0,0.4,0.1,0.6
		c0.4,0.7,0.9,1.4,1.3,2.1c0.5,0.8,1,1.7,1.1,2.5c-0.8-1.4-1.6-2.8-2.5-4.2c-0.1,0-0.1,0-0.2,0c0,0.1,0,0.2,0,0.4
		c-0.1-0.1-0.2-0.1-0.2-0.2c0-0.5,0-1,0-1.5c0,0-0.1,0-0.1,0c-0.1,0.2-0.3,0.5-0.4,0.7c-0.1,0-0.1,0-0.2-0.1c0.8-1.4,1.4-2.8,1-4.4
		c-1.2,0.5-1.1,1.4-0.9,2.3C134.9,54.1,134.8,53.8,134.6,53.5z M136.4,8.8c0,0.1,0,0.2,0,0.3c0.7,0.3,1.4,0.7,2.1,1
		c0.2,0.1,0.4,0.2,0.5,0.3c0.7,0.7,1.3,1.4,2,2.2c3.8,4.3,6.9,9.1,9.4,14.3c0.2,0.4,0.6,0.8,1,1c6,2.1,12.1,4.1,18.1,6.1
		c11.3,3.8,22.6,7.6,33.9,11.3c3.5,1.2,6.9,2.3,10.4,3.4c2.2,0.7,5-0.3,6.2-1.8c1.4-1.7,2.2-3.6,2.7-5.7c0.8-3.6,0.5-6.9-1.7-10
		c-1.5-2-3.1-3.5-5.7-4c-3.3-0.7-6.6-1.5-9.9-2.2c-6-1.3-12-2.6-18-3.9c-2.7-0.6-5.3-1.3-8-1.8c-8-1.7-15.9-3.5-23.9-5.2
		c-4.6-1-9.2-2-13.8-3c-0.6-0.1-1.3-0.3-1.9-0.4c-0.5-0.1-0.6-0.4-0.5-0.8c0.4,0.2,0.7,0.6,1,0.6c1-0.1,1.9,0.3,2.8,0.5
		c0.7,0.2,1.5,0.4,2.3,0.6c0.1-0.7-0.3-0.8-0.7-0.9c-2.5-0.6-4.9-1.2-7.4-1.7C136.9,8.7,136.7,8.8,136.4,8.8z M142.8,88.8
		c0,0,0-0.1,0-0.1c0.1-0.1,0.2-0.1,0.3-0.2c0.9-0.5,1-0.7,0.7-1.7c-0.1-0.3-0.3-0.6-0.4-0.9c-0.8-1.5-1.6-2.9-2.3-4.5
		c-1.1-2.4-2-4.8-3-7.2c-0.3-0.8-0.7-1.1-1.5-1c-1.2,0.2-2.5,0.3-3.7,0.5c-1.8,0.4-3.3,0.1-4.7-1.2c-0.3-0.3-0.6-0.5-0.9-0.7
		c0.5-0.4,0.9-0.1,1.2,0.3c1.1,1.1,2.4,1.5,4,1.2c1.2-0.3,2.5-0.5,3.7-0.6c1.7-0.1,1.8-0.2,1.3-1.8c0-0.1,0-0.1-0.1-0.2
		c-0.3-1.2-0.7-2.4-0.9-3.6c-0.4-2.6-0.9-5.2-2.5-7.4c-0.1-0.1-0.1-0.2-0.1-0.3c-0.3-0.9-0.6-1.8-1-2.7c-0.4-0.8-0.6-1.5,0-2.3
		c0.1-0.1,0-0.2,0.1-0.3c-0.7,0.4-1.4,0.7-1.9,1.2c-0.5,0.4-1,1-1.4,1.6c-0.4,0.6-0.7,1.2-1,1.8c0.3-1.7,1-3,2.6-3.9
		c1.4-0.8,2-2.2,1.9-3.9c-0.1-0.8-0.1-1.7-0.2-2.5c-0.1-0.7-0.2-1.4-0.3-2.1c-0.1,0-0.1,0-0.2,0c-0.2,0.5-0.3,0.9-0.5,1.4
		c-0.1-0.7-0.1-1.4,0-2.1c0.1-0.9-0.4-1.5-1-2.1c-0.4-0.4-1-0.1-1.1,0.5c-0.1,0.4-0.1,0.8-0.2,1.1c-0.1,0.2-0.3,0.3-0.5,0.4
		c-0.1-0.2-0.3-0.5-0.3-0.7c0-0.1,0.1-0.3,0.2-0.5c-0.8,0.1-0.8,0.1-1,1.9c-0.5-0.4-0.8-0.7-1.2-1c0.5-0.6,1-1.2,1.5-1.7
		c0.1,0,0.1,0.1,0.2,0.1c-0.1-0.3-0.1-0.6-0.2-0.9c0.3,0.1,0.4,0.1,0.6,0.1c-0.7-0.7-1-0.7-1.4,0.1c-0.4,0.9-0.8,1.7-1.1,2.6
		c-0.3-0.3-0.3-0.8-0.1-1.3c0.5-1.3,0.9-2.6,2.2-3.4c0.1-0.1,0.2-0.3,0.1-0.5c0-0.1-0.3-0.2-0.2-0.2c-0.3,0.3-0.5,0.5-0.7,0.8
		c-0.4,0.4-0.7,0.8-1.1,1.2c-0.1,0.1-0.2,0.2-0.3,0.5c0-1.5,0-1.5-0.5-1.8c-0.2,1.2-0.4,2.3-0.5,3.5c-0.1,0-0.2,0-0.2,0
		c-0.2-0.9-0.4-1.7-0.5-2.6c-0.3,0.7-1.3,1.2-0.6,2.1c0,0,0,0,0,0.1c-0.1,0.6-0.2,1.2-0.3,1.8c-0.2,0.7-0.5,1.5-0.8,2.2
		c-0.2-0.2-0.2-0.4-0.2-0.6c0.1-1.5,0.2-3,0.4-4.5c0.1-0.7-0.2-1.3-0.9-1.8c-0.4,0.5-0.8,1-1.2,1.6c-0.1,0.2-0.3,0.4-0.4,0.5
		c-0.5,0.4-0.5,1,0.1,1.2c0.9,0.4,1,1.1,1,1.9c0,1.1-0.1,2.1-0.1,3.2c0,0.3,0,0.7,0.2,0.7c0.8,0.4,0.4,1,0.3,1.5
		c-0.2,1.2-0.5,2.5-0.8,3.7c0,0.2,0,0.6,0.2,0.8c0.8,0.7,1.6,1.3,2.4,1.9c0.1,0.1,0.2,0.3,0.4,0.5c-1.6,0-1.8-1.8-3.1-2.1
		c-0.2,0.4-0.4,0.7-0.5,1.1c-0.1,1.1-0.7,2-1.2,3c-0.2,0.5-0.3,1.1-0.4,1.6c0.1,0,0.1,0.1,0.2,0.1c0.2-0.1,0.4-0.3,0.6-0.5
		c0.1,0.2,0.3,0.3,0.4,0.5c-0.7,0.5-1.2,0-1.9-0.1c-0.1,0.3-0.2,0.7-0.3,1c-0.1,0.8-0.3,1.6-0.4,2.5c-0.2,2.4-0.4,4.7,0.1,7.1
		c0.9,4,1.9,7.9,2.9,11.9c0.1,0.3,0.3,0.5,0.5,0.8c0,0.4-0.1,0.8,0,1.2c0.5,2.2,1.2,4.3,2.6,6.2c1.3,1.8,2.6,3.6,3.4,5.7
		c2.6,6.7,5.9,13.1,9.2,19.5c0.1,0.2,0.3,0.6,0.4,0.6c0.7,0,0.5,0.3,0.4,0.7c0,0.2,0,0.4,0.1,0.6c0.5,1,1.1,2.1,1.6,3.1
		c0.1,0.2,0.2,0.3,0.4,0.4c0.2-0.3,0.3-0.4,0.4-0.6c0.1,0.2,0.1,0.4,0,0.6c-0.2,0.6-0.2,1.1,0.2,1.5c0.1,0.1,0.2,0.3,0.2,0.4
		c0.5,1.2,0.5,1.2,1.9,1.1c0.2,0,0.4,0,0.6,0c0.5,0,0.8-0.2,1.1-0.6c0.7-1,1.5-1.9,2.3-2.9c0,0,0.1,0,0.1,0.1
		c-0.6,1-1.2,2.1-1.8,3.2c2.8-0.3,5.4-0.6,7.2-2.9c0.6,0.3,2.1-0.2,2.3-0.8c0-0.1,0-0.2,0-0.3c0.1-1.4,0.3-2.8,0.5-4.3
		c0-0.4,0-0.6-0.4-0.8c-1.2-0.7-1.9-1.8-2-3.2c-0.1-1.2-0.6-2.2-1.2-3.2c-0.3-0.4-0.6-0.8-0.9-1.2c-1.1-1.4-2.1-2.8-2.3-4.6
		c-0.1,0-0.2,0-0.3,0c-0.1,0.9-0.2,1.7-0.4,2.6c-0.1,0-0.1,0-0.2,0c0.2-2.2,0.5-4.4,0.7-6.5c0.1-0.2,0.3-0.4,0.4-0.6
		c0.1-0.4,0.2-0.8,0.3-1.2c0.1-0.6,0.2-1.3,0.2-1.9c0-0.5,0-1.1-0.1-1.6c0,0,0.1,0,0.1,0c0.1,0.2,0.2,0.4,0.2,0.5c0,0,0.1,0,0.1,0
		c0-1,0-2.1,0-3.1c-0.3,0.2-0.4,0.5-0.5,0.7c-0.3,0.5-0.8,1-0.9,1.6c-0.2,0.7,0,1.5,0,2.2c0,0.2,0.1,0.4,0.1,0.5
		c-0.2,0.4-0.2,0.4,0,0.7c0.3,0.4,0.2,1-0.1,1.2c-0.4-1.4-0.8-2.8-1.2-4.2c0-0.1,0-0.2,0-0.3c0-0.6,0.1-1.2,0-1.7
		c-0.3-1.4-0.7-2.8-1.2-4.2c-0.3-1.1-0.5-1.1-1.6-0.8C143,88.8,142.9,88.8,142.8,88.8z M162,52.2c0,0.4-0.1,0.7-0.1,1
		c-0.3,2.2-0.5,4.5-0.8,6.7c-0.5,2.9-1,5.8-1.5,8.7c-0.2,1.2-0.4,2.5-0.5,3.8c-0.1,1.1,0,2.1,0,3.2c1-2.1,0.8-4.4,1.4-6.5
		c0,0.7,0,1.5-0.1,2.2c-0.3,1.9-0.7,3.7-1.1,5.6c-0.2,0.9,0.2,1.4,0.9,1.2c1-0.3,2.1-0.7,2.6-1.6c1.1-1.9,2.1-3.9,3.1-5.8
		c0.1-0.3,0.2-0.6,0.4-0.8c0.1,0,0.1,0.1,0.2,0.1c-0.1,0.4-0.2,0.8-0.4,1.1c-0.7,1.4-1.4,2.9-2.2,4.3c-0.9,1.6-2,2.9-3.9,3.3
		c-0.1,0-0.2,0.1-0.3,0.2c0.1,1.1,0.2,2.3,0.4,3.5c0.3,1.7,0.4,3.5,1.6,4.9c0.2,0.2,0.2,0.5,0.2,0.7c0.1,0.5,0.1,1,0.2,1.5
		c0.2,1.3,0.7,1.5,1.8,0.8c0.2-0.1,0.4-0.3,0.6-0.4c0.7-0.5,1.4-1.1,2.1-1.6c1.1-0.7,2.2-1.3,3.3-1.9c0,0,0,0.1,0.1,0.1
		c-2.3,1.5-4.6,3.1-7,4.7c0.6,0.6,1.1,1.7,1.8,1.9c1.2,0.3,2.7,0.6,3.7-0.7c0.1,0.4,0.2,0.6,0.3,0.9c1-0.3,1.9-0.6,2.9-0.9
		c0.2-0.1,0.4-0.3,0.4-0.5c0.1-0.4-0.6-1.4-1-1.7c-0.1,0.4-0.2,0.8-0.3,1.3c-0.1,0-0.2-0.1-0.3-0.1c0.2-0.6,0.3-1.1,0.5-1.7
		c0.1,0,0.2,0,0.4,0c0.4,0.8,0.9,1.6,1.4,2.6c0.5-0.4,1-0.9,1.5-1.4c0.1-0.1,0.1-0.3,0.1-0.4c-0.5-0.1-0.1-0.4-0.1-0.6
		c0.2-0.5,0.4-1,0.9-1.5c1.1-1,1.9-2.3,1.1-3.9c-0.2-0.3-0.3-0.7-0.3-1.1c-0.3-2-1.6-3.4-2.6-5.1c0.1,0.9,0.2,1.9,0.3,2.8
		c-0.4-1.4-0.6-2.8-0.9-4.3c-0.4-2-0.8-4.1-1.9-5.8c-1.2-1.8-1.7-3.7-2.4-5.7c-0.4-1-1.1-1.9-1.8-2.9c-1,5-3.1,9.4-5.4,13.6
		c0.4-1,0.8-1.9,1.2-2.8c1.3-2.7,2.6-5.4,3.1-8.4c0.3-1.7,0.4-3.5-1-4.9c-0.1-0.1-0.1-0.3-0.3-0.6c1.5,1.2,1.9,2.6,1.7,4.3
		c0.2-0.6,0-1.3,0.3-1.9c0.5-1.1,0-1.8-0.7-2.5c-0.9-0.8-1.7-1.7-2.6-2.6c-0.2-0.3-0.4-0.6-0.5-0.9c0.1-0.1,0.2-0.2,0.2-0.2
		c0.7,0.4,1.4,0.9,2.1,1.3C164,55,164.1,53,162,52.2z M134.6,21.8c0.1-0.1,0.2-0.2,0.4-0.2c0.1,0.2,0.3,0.4,0.4,0.6
		c0.8,1.2,1.6,2.3,2.3,3.6c0.7,1.2,1.2,2.5,1.8,3.8c0.1,0.2,0.3,0.4,0.5,0.6c0.1,0,0.1-0.1,0.2-0.1c0-0.3,0-0.7-0.1-1
		c-0.6-1.6-1.2-3.2-2-4.7c-0.9-1.6-2.1-2.9-3.2-4.4c-0.3-0.4-0.7-0.7-0.4-1.3c0.2,0.1,0.4,0.1,0.5,0.3c0.6,0.7,1.3,1.3,1.8,2
		c1.7,2.4,3.1,4.9,4.1,7.7c0.2,0.4,0.3,0.9,0.3,1.4c0,0.4,0.2,0.6,0.6,0.6c0.3,0,0.7,0,1.2,0c-0.7-1.7-1.4-3.2-2-4.8
		c0.1,0,0.2-0.1,0.2-0.1c0.4,0.9,0.8,1.8,1.1,2.6c0.4,0.9,0.7,1.7,1,2.6c0.1,0,0.2-0.1,0.3-0.1c-1.1-3.3-2.3-6.5-4.2-9.5
		c0.2,0.1,0.3,0.2,0.4,0.4c1.6,2.4,2.7,5,3.7,7.7c0.5,1.4,1.2,1.6,2.5,0.9c0.4-0.2,0.8-0.5,1.2-0.8c0.2,0.6,0.7,0.4,1.3,0.2
		c0.6-0.1,1.1-0.5,1.8-0.3c0.4,0.1,0.7-0.1,0.5-0.6c-0.1-0.2-0.1-0.5-0.2-0.7c-1.2-3-2.8-5.8-4.7-8.5c-0.2-0.3-0.3-0.6-0.5-0.9
		c-0.9-1.3-2-2.6-2.8-4c-0.7-1.2-1.7-2.1-2.7-2.9c-1.4-1.2-2.9-2.2-4.4-3.3c-1.4-1-2.8-1.4-4.5-0.8c-1.6,0.6-3.1,1.2-4.7,1.8
		c-1.4,0.5-1.4,0.7-0.4,1.7c1.6,1.7,1.9,3.7,1.2,5.8c-0.1,0.2,0.1,0.5,0.2,0.6c0.8,0.8,1.6,1.6,2.4,2.5c0.2,0.2,0.4,0.5,0.5,0.7
		c0.1,0,0.2-0.1,0.3-0.1c-0.1,1-0.3,2.1-0.5,3.1c-0.2,1.2-0.3,1.2,0.8,1.8c0.1,0.1,0.2,0.2,0.4,0.2c0.9,0.4,1.9,0.8,2.8,1.2
		c0-0.1,0.1-0.1,0.1-0.2c-0.3-0.4-0.6-0.8,0-1.3c0.3,0.5,0.7,1,0.9,1.4c0.3,0.5,0.6,1,1.5,1.1c-0.5-1-1-1.9-1.5-2.8
		c-0.2-0.3-0.2-0.7-0.3-1.1c0.1,0,0.2-0.1,0.3-0.1c0.2,0.3,0.4,0.5,0.6,0.8c0.6,1.1,1.1,2.2,1.6,3.3c0.2,0.4,0.6,0.8,1.3,0.8
		c-0.4-0.9-0.6-1.7-1-2.5c-0.7-1.3-1.6-2.6-2.4-3.9C134.9,22.6,134.8,22.2,134.6,21.8z M90.3,117.5c0.2,1.1,0.3,1.2,1.3,1
		c1.5-0.2,3-0.2,4.4,0.4c2.4,1,4.3,2.8,5.9,4.8c1,1.2,2.1,2.3,1.6,4.2c0.5-0.4,1-0.9,1.4-1.3c0.4-0.4,0.6-1,1.1-1.2
		c1.7-1,1.6-2.4,0.8-3.9c-0.4-0.6-0.9-1.2-1.4-1.7c-0.2-0.3-0.5-0.6-0.8-0.9c0.1-0.1,0.1-0.1,0.2-0.2c0.9,1.1,1.8,2.1,2.8,3.3
		c0.3-0.7,0.6-1.3,0.9-1.8c0.4-0.8,0.9-1.6,1.4-2.4c0.3-0.5,0.8-0.9,1.1-1.4c0.5-0.9,0.3-1.8-0.6-2.3c-0.5-0.3-1-0.4-1.5-0.6
		c-1-0.3-2-0.4-2.9-0.8c-3-1.1-6.2-1.1-9.3-1.1c-1.3,0-2.6,0.5-3.9,0.8c-0.2,0.1-0.6,0.1-0.6,0.3c-0.2,0.4-0.2,0.8-0.3,1.2
		c0.3-0.1,0.6-0.1,0.9-0.2c0.1,0,0.2-0.2,0.3-0.3c0.8-0.5,1.7-0.6,2.7-0.5c-1.1,0.3-2.3,0.4-3.2,1.3c0.9-0.3,1.8-0.5,2.7-0.8
		c0,0.1,0,0.1,0,0.2c-1,0.4-2,0.7-3,1.1c0,0.1,0,0.1,0.1,0.2c0.3,0,0.6,0,0.9,0c0,0.1,0,0.1,0.1,0.2c-0.3,0.2-0.5,0.4-0.8,0.5
		c0,0-0.1-0.1-0.1-0.1c0.1-0.1,0.2-0.2,0.4-0.3c-0.3,0-0.5,0.1-0.7,0.3c-0.2,0.2-0.3,0.4-0.4,0.5c-0.5,0.2-0.4,0.6-0.2,0.9
		c0.1,0.1,0.5,0.1,0.7,0c1.1-0.4,2.2-0.8,3.2-1.2c0,0.1,0.1,0.2,0.1,0.3C93.7,116.2,92.2,117.5,90.3,117.5z M101.6,54.3
		c-0.3-2.2-0.5-4.2-0.7-6.3c-0.1-0.6-0.3-0.7-0.8-0.7c-1.8,0.1-3.5,0.1-5.3,0.1c-0.3,0-0.5,0.1-0.8,0.2c-0.9,0.4-1.8,0.9-2.7,1.4
		c-4.1,2.2-7.3,5.6-10.7,8.7c-0.2,0.2-0.3,0.7-0.3,1.1c0.2,1.7,0.4,3.4-0.4,5.1c0,0.1,0,0.2,0,0.4c0.2-0.1,0.4-0.1,0.6-0.2
		c1.4-0.8,2.8-1.6,4.1-2.6c2.2-1.6,4.3-3.4,6.4-5.1c1.3-1,2.7-1.7,4.4-1.8c0.9,0,1.9-0.1,2.8-0.1C99.4,54.5,100.6,54.4,101.6,54.3z
		 M71.5,145.6c0.9-0.1,1.1-0.6,1.2-1.3c0-0.5,0.1-1,0.2-1.6c0.1,0,0.1,0,0.2,0c0.2,0.5,0.4,1,0.6,1.6c1.4-1.7,2.8-3.2,4.1-4.7
		c0,0-0.1-0.1-0.1-0.1c-0.5,0.3-1,0.7-1.7,1.1c0-0.7,0.1-1.2,0.1-1.8c0.9-0.1,1.7-0.2,2.6-0.3c-0.3-0.3-0.6-0.6-0.6-0.7
		c0.2-0.3,0.4-0.6,0.7-0.6c1.1-0.2,1.4-1.1,1.8-2c0-0.1,0-0.4-0.1-0.4c-0.6-0.1-0.3-0.4-0.2-0.7c0.4-1,0.8-2.1,1.2-3.1
		c0.1-0.2,0.3-0.4,0.4-0.4c1.5,0,2.2-1.1,3-2.3c-0.4-0.1-0.8-0.3-1.1-0.4c-0.7-0.1-1.5-0.2-2.2-0.2c-1.1,0-2.2-0.1-3.3-0.1
		c-0.2,0-0.4,0.2-0.5,0.3c-0.3,0.6-0.6,1.3-0.8,2c-0.5,2.2-0.9,4.5-0.8,6.7c0,0.2-0.2,0.5-0.3,0.7c-0.1-0.2-0.3-0.5-0.2-0.7
		c0.2-1.9,0.5-3.7,0.6-5.6c0.1-0.9,0.4-1.9-0.1-3c-0.3,0.3-0.5,0.5-0.6,0.7c-0.5,0.9-1.1,1.8-1.6,2.6c-0.1,0.2-0.4,0.4-0.6,0.6
		c-0.3-0.9,0.2-2.5,0.8-3c0.5-0.4,1-0.9,1.6-1.5c-0.7-0.1-1.1-0.1-1.5-0.2c-0.9-0.3-1.2-0.3-1.6,0.7c-0.2,0.5-0.3,1-0.5,1.6
		c0.4-0.2,0.6-0.4,0.8-0.5c0.1,0,0.1,0.1,0.2,0.1c-1.9,3.4-1.3,7.2-1.8,10.8c-0.1-1.6-0.2-3.2-0.2-4.8c0-1.6,0-3.2,0-4.8
		c-0.1,0.6-0.1,1.2-0.2,1.8c-0.3,2.6-0.3,5.3,0.1,7.9c0.2,1.1,0.2,2.3,0.3,3.4C71.6,144.2,71.5,144.9,71.5,145.6z M129.8,8
		c-1.1-2.1-2.2-4.1-3.3-6.1c-0.3-0.6-0.8-0.9-1.5-0.6c-2,0.7-4,1.4-6,2.2c-1,0.4-1.1,0.7-0.5,1.6c1,1.6,2,3.2,2.9,4.8
		c0.3,0.4,0.6,0.5,1,0.4c0.7-0.2,1.4-0.5,2.2-0.7C126.3,9.1,127.9,8.6,129.8,8z M119.3,44.4c-2.1-3.1-3.5-6.5-3.1-10.4
		c-0.3,0.3-0.4,0.5-0.5,0.8c-0.4,0.9-0.7,1.9-1.2,2.8c-1,1.8-0.9,3.6-0.6,5.5c0.4,2.3,0.9,4.5,1.3,6.7c0.2,1,0.4,2.1,0.6,3.2
		c1.3-1.3,2.5-2.4,2.7-4.2c0.1-0.9,0.7-1.7,1.1-2.6c0.1-0.3,0.3-0.7,0.5-1c1.2,0.9,1,2.4,1.2,3.7c0.1-0.8,0-1.6,0.1-2.4
		c0.1-1.1-0.5-1.7-1.4-2.1C119.7,44.4,119.5,44.4,119.3,44.4z M168.2,95.5c0,0.1,0,0.1,0,0.2c-0.5,0-1-0.1-1.6-0.2
		c0.1,0.2,0.1,0.3,0.2,0.3c1.7,1.6,3.6,3.1,5,5c0,0,0.1,0.1,0.1,0.1c0.5,0.5,1,0.6,1.7,0.3c0.7-0.3,1.5-0.4,2.2-0.6
		c0.8-0.2,1.7-0.4,2.7-0.7c-0.8-1.1-1.4-2-2.2-3.1c0,0.5,0.1,0.7,0.1,1c-0.3-0.6-0.4-1.3-0.8-1.8c-0.9-1.2-2-2.3-3-3.4
		c-0.1-0.1-0.4-0.2-0.6-0.1c-1,0.2-2,0.6-3.1,0.7c-1.2,0.2-2.5,0.3-3.7,0.4C165.6,94.9,166.8,95.4,168.2,95.5z M176.7,90.5
		c0-0.1,0-0.1,0-0.2c0.5,0,1.1,0,1.6-0.1c0.3-0.1,0.9-0.2,1-0.4c0.1-0.3,0-0.8-0.1-1.2c-0.1-0.2-0.2-0.4-0.4-0.5
		c-0.2-0.1-0.5-0.2-0.8-0.3c-0.2-2.5-0.6-4.2-1.4-4.8c0.1,1,0,2,0.7,2.8c0.4,0.5-0.4,2.6-1.2,3.2c0.4-0.9,0.7-1.7,1-2.5
		c-0.1,0-0.2-0.1-0.3-0.1c-0.6,1.1-1.3,2.2-1.8,3.4c-0.4,0.8-0.6,1.8-1.5,2.3c-0.6,0.3-0.6,0.7-0.2,1.1c0.3,0.4,0.6,0.7,0.9,1
		c1.1,1.3,2.3,2.7,3.4,4c0.4,0.5,0.7,1,1.1,1.6c0.2-0.2,0.3-0.4,0.4-0.6c0.7-1.5,1.4-3,2-4.5c0.1-0.3,0.1-0.8-0.1-1.1
		c-0.4-1-1-2-0.9-3.1c0-0.2-0.1-0.4-0.2-0.7C178.9,90.7,177.8,90.7,176.7,90.5z M146.5,134.3c0.5-0.1,0.8-0.1,1.1-0.1
		c2.8-0.5,5.5-1.3,7.8-2.9c0.5-0.3,0.7-0.8,0.5-1.3c-0.3-1-0.6-2-0.9-3c-0.3-0.9-0.8-1-1.7-0.7c-0.4,0.2-0.8,0.4-1.3,0.5
		c-1.7,0.5-3.5,1-5.2,1.4c-0.4,0.1-0.6,0.2-0.6,0.6C146.3,130.6,146.4,132.4,146.5,134.3z M142.4,42.6c-0.1-0.2-0.3-0.5-0.4-0.7
		c-0.6-1-1.2-2.1-1.9-3.1c-0.1-0.2-0.3-0.4-0.5-0.5c0.1-0.1,0.1-0.1,0.2-0.2c-2.3,0.4-4.6-0.2-7-0.7c-0.6,0.7-1.4,1.5-2.3,2.6
		c2.1,1.1,4,2.1,5.9,3.1c1.9,1,4,1.3,5.9,2.2c0-0.1,0.1-0.1,0.1-0.2c-0.9-0.7-1.9-1.4-2.8-2.1c0.1-0.1,0.1-0.2,0.2-0.2
		c1.3,0.9,2.6,1.7,4,2.7C143.5,44.3,142.5,43.6,142.4,42.6z M113.2,17.4c-0.1-0.2-0.1-0.3-0.2-0.3c-0.6-0.9-0.5-1.2,0.4-1.6
		c0.2-0.1,0.3-0.2,0.4-0.3c0.5-0.3,0.9-0.6,1.4-0.8c1-0.4,2-0.7,2.9-1.1c0.1-0.1,0.2-0.3,0.3-0.5c-0.2,0-0.4-0.1-0.5-0.1
		c-0.2,0-0.3,0.1-0.4,0.2c-1.4,0.7-2.7,1.4-4.1,2c-1.3,0.6-2.5,1.1-3.8,1.6c-0.3,0.1-0.5,0.4-0.6,0.6c-0.4,1-0.5,2.1,0.2,3.1
		c0.2,0.4,0.4,0.8,0.5,1.3c0.3,1.1,0.5,2.3,0.8,3.4c0.1,0.4,0.1,1,0.8,1c0.1,0,0.1,0.2,0.2,0.4c0.1,0.3,0.1,0.6,0.2,0.8
		c0.3,0.9,0.6,1.7,0.8,2.6c0.1,0.4,0.1,0.9-0.1,1.2c-0.4,0.7-0.3,2.2,0.3,2.6c0.9,0.6,2.7,0.4,3.2-0.4c0.6-0.8,0.1-1.6-0.1-2.4
		c-0.1-0.4-0.3-0.5-0.6-0.5c-0.6,0.1-1.1,0.1-1.7,0.2c0-0.4-0.1-0.6-0.1-0.9c-0.2-1.1-0.5-2.2-0.7-3.3c-0.3-1.7-0.8-3.3-1-5
		c-0.1-1.1,0.1-2.3,0.2-3.5C112.3,17.6,112.7,17.5,113.2,17.4z M134,42.3c0.1,3.5,0.2,7,0.3,10.5c0.5-0.5,0.8-1.2,0.8-1.9
		c0-1.2-0.1-2.5-0.2-3.7c-0.1-1-0.2-2-0.4-3c0.1,0,0.1,0,0.2,0c0.3,2.1,0.5,4.1,0.8,6.2c0.1,0.4,0.3,0.8,0.6,1c1,0.7,2,1.3,3,2
		c0.5,0.3,1,0.6,1.5,0.9c0-0.1,0.1-0.2,0.1-0.2c-0.9-3-1.8-6-2.8-9c-0.1-0.3-0.4-0.6-0.6-0.7c-0.9-0.5-1.8-1-2.7-1.5
		C134.4,42.5,134.2,42.4,134,42.3z M71.2,92.5c0.1-0.1,0.2-0.1,0.2-0.2c1.4-2.7,3-5.2,3.6-8.2c0.3-1.3,0.4-2.6,0.6-3.9
		c0.2-1.3,0.5-2.5,0.8-3.8c0.2-1.1,0.4-2.1,0.7-3.2c0.2-0.7,0.6-1.4,0.7-2.1c0.3-1.5,0.5-3,0.7-4.5c0-0.3-0.1-0.7-0.1-1
		c-0.1,0-0.2,0-0.3,0c-0.1,0.7-0.2,1.4-0.3,2.1c-0.1,0.7-0.3,1.5-0.5,2.2c0,0.1-0.3,0.2-0.5,0.3c-0.1-0.2-0.3-0.3-0.3-0.5
		c-0.1-0.3-0.1-0.5-0.2-0.7c-0.8,3.8-1.6,7.8-2.5,11.6C72.8,84.7,72.6,88.7,71.2,92.5z M90.8,100.1c-0.1,0-0.2,0.1-0.4,0.1
		c0.2,3,0.5,6.1,0.7,9.1c-0.2-0.4-0.2-0.7-0.3-1.1c0-0.2-0.2-0.3-0.4-0.4c-0.1,0.2-0.4,0.4-0.3,0.4c0.3,0.5-0.1,0.9-0.3,1.3
		c-0.6,1.4-0.3,2.2,1,3c0.7,0.4,0.9-0.3,1.4-0.5c0.1,0,0-0.6,0-0.9c-0.1-0.7-0.7-1.2-0.4-2c0.4-1,0.8-2.1,1-3.2
		c0.2-0.9,0.4-2,0.1-2.9C92.4,102.1,91.5,101.1,90.8,100.1z M85.9,125.9c0-0.3-0.1-0.5-0.1-0.6c0.3-1.1,0.2-1.4-0.9-1.5
		c-1.7-0.3-3.5-0.5-5.2-0.6c-2.7,0-2.6-0.6-2.3,2.5c0,0,0,0.1,0.1,0.1C80.3,125.9,83.1,125.9,85.9,125.9z M138.7,31.9
		c0.2-0.3,0.4-0.4,0.4-0.6c-0.1-0.4,0.4-1.1-0.2-1.3c-0.9-0.4-1.8-0.7-2.8-1.1c0,1.2,0,2.4,0,3.6c0,0-0.1,0-0.1,0
		c-0.1-0.6-0.1-1.2-0.2-1.8c-0.2,0.1-0.3,0.3-0.3,0.4c-0.2,1.6-0.4,3.2-0.6,4.9c0,0.4-0.1,0.8,0,1.1c0.1,0.2,0.6,0.2,1,0.3
		c0.7,0.3,0.9-0.1,1-0.6c0.1-1.3,0.2-2.6,0.3-3.8c0,0-0.1,0-0.1,0c-0.4,1.2-0.8,2.5-1.2,3.7c-0.1,0-0.1,0-0.2-0.1
		c0-0.4,0-0.9,0.2-1.2c0.8-1.6,1.1-3.3,1.3-5c0-0.1,0-0.3,0.1-0.4c0.1,0,0.1,0,0.2,0c0,1.8,0,3.5,0,5.3c0,0,0.1,0,0.1,0
		c0.4-1.6,0.7-3.1,1.1-4.7c0.1,0,0.1,0,0.2,0C138.8,30.9,138.8,31.3,138.7,31.9z M114.5,23.9c0,0,0.1,0,0.1,0c0-0.3,0-0.5-0.1-0.8
		c-0.4-1.2-0.8-2.4-1.2-3.6c-0.1-0.2-0.4-0.3-0.6-0.5c-0.1,0.2-0.3,0.5-0.4,0.7c-0.1,0.2,0,0.5,0.1,0.7c0.3,1.9,0.6,3.8,1,5.6
		c0.2,1.1,0.5,2.3,0.8,3.4c0.1,0.3,0.3,0.7,0.7,0.4c0.5-0.3,1-0.8,0.8-1.5c-0.1-0.4-0.2-0.9-0.3-1.3C115.1,26,114.8,24.9,114.5,23.9
		z M134.3,36.7c-0.1,0-0.2,0-0.3-0.1c0.1-0.6,0.1-1.1,0.3-1.7c0.1-0.5,0.4-1,0.5-1.5c0.3-1.1,0.5-2.2,0.7-3.3
		c0.3-1.1,0.2-1.3-0.8-1.8c-0.7-0.3-1.5-0.6-2.3-1c0.3,2.5,0.6,4.8,0.9,7.1c0.2-0.9,0.5-1.7,0.7-2.5c0,0,0.1,0,0.1,0
		c-0.2,1.7-0.5,3.4-0.7,5c1.3,0.2,1.6-0.1,1.3-1.5C134.5,35.9,134.4,36.3,134.3,36.7z M146.2,126.5c-0.1-0.1-0.1-0.1-0.2-0.2
		c-0.1,0.2-0.3,0.4-0.2,0.5c0.1,0.5,0.9,1,1.3,0.9c2.2-0.6,4.4-1,6.3-2.3c1-0.7,1-0.7,0.4-1.8c-0.3-0.5-0.5-0.6-0.9-0.1
		c-0.2,0.2-0.3,0.7-0.7,0.3c0,0-0.2,0.1-0.3,0.1c-0.4,0.5-1.1,0.7-1.6,1.1C149,126,147.6,126,146.2,126.5z M123.1,25
		c-0.1-0.9-0.3-2-1.1-2.9c-0.6-0.8-1.3-1-2-0.6c-0.7,0.4-1,1.3-0.6,2.2c0.2,0.5,0.4,1,0.7,1.4c0.3,0.4,0.7,0.9,1.2,1.1
		C122.2,26.7,123.1,26.2,123.1,25z M76.8,122.8c-0.1,0-0.2,0-0.3,0c-0.1,0.2-0.2,0.4-0.2,0.6c0,1.5,0.1,3,0.2,4.5
		c0,0.2,0.2,0.3,0.3,0.5c0.1-0.2,0.3-0.3,0.3-0.5c0.1-0.4,0-0.8,0-1.1c0.3,0.2,0.6,0.5,1,0.5c2.2,0,4.4,0,6.6-0.1
		c0.4,0,0.9-0.2,1.3-0.3c0-0.1,0-0.2,0-0.3c-2.5-0.1-4.9-0.2-7.4-0.3c-2-0.1-1.5,0.2-1.7-1.7C77,124.1,76.9,123.4,76.8,122.8z
		 M117.5,16.6c-0.5,0-1-0.1-1.3,0.1c-0.3,0.2-0.6,0.6-0.7,1c-0.1,0.6,1,1.5,2,1.5c-0.4-0.3-0.7-0.7-1-0.8c-0.9-0.1-0.5-0.6-0.3-0.9
		c0.4-0.6,1.3-0.6,1.6,0.1c0.3,0.5,0.3,1.1,0.5,1.6c0.1,0.3,0.2,0.6,0.3,0.9c0.1,0,0.2-0.1,0.3-0.1c0.2-1.2-0.5-2.2-1-3.2
		c0.1,0,0.1-0.1,0.2-0.1c0.3,0.5,0.7,1.1,1,1.7c-0.1-0.4-0.1-0.8-0.2-1.2c0.7,0.7,0.6,1.6,0.6,2.4c0.5-1,0.1-1.9-0.3-2.8
		c-0.1,0.1-0.1,0.1-0.2,0.2c-0.3-0.2-0.6-0.3-1-0.6c0.8-0.3,1.2-0.1,1.4,0.4c0.2,0.6,0.5,1.2,0.5,1.8c0,0.8-0.1,1.6-0.2,2.7
		c0.3-0.3,0.7-0.5,0.8-0.8c0.2-0.8,0.3-1.7,0.2-2.4c-0.1-0.6-0.6-1.2-1-1.8c-0.3-0.4-0.7-0.6-1.1-0.9c-0.4,0.2-1,0.5-1.6,0.7
		C117.3,16.2,117.4,16.4,117.5,16.6z M199.7,23.2c0,0,0.1-0.1,0.1-0.1c-0.2-0.2-0.4-0.4-0.6-0.5c-0.6-0.2-1.3-0.3-1.9-0.4
		c-7-1.5-14-3-21-4.6c-0.3-0.1-0.6-0.1-0.9-0.1c0,0.1,0,0.1,0,0.2c0.2,0.1,0.3,0.1,0.5,0.2c1.4,0.3,2.9,0.5,4.3,0.9
		c1.4,0.4,3,0.2,4.2,1.1c0.1,0.1,0.2,0,0.4,0.1c1.7,0.2,3.3,0.6,4.9,0.9C193.1,21.4,196.4,22.4,199.7,23.2z M93.1,102.7
		c0.1,0,0.1-0.1,0.2-0.1c-0.5-2.6-0.6-5.3-1.4-7.8c-0.3,1-0.4,2.1-0.8,2.9c-0.5,1.1-0.5,2,0.5,2.8C92.1,101.2,92.5,102,93.1,102.7z
		 M123.2,32.9c0.2-1.9-0.4-3.3-1.8-4.4c0.5,0.3,1.1,0.7,1.6,1c0.1-0.1,0.1-0.2,0.2-0.2c-0.8-0.7-1.7-1.4-2.6-2.1
		c-0.5,1.5-0.1,2.9,0.4,4.2C121.2,32.2,122.2,32.6,123.2,32.9z M102.9,131.6c0.2,5,0.5,10,0.7,14.9c0.1,0,0.2,0,0.3,0
		c0.1-0.7,0.3-1.4,0.2-2.1c-0.1-2.5-0.3-5-0.5-7.4c-0.1-0.9-0.2-1.7-0.2-2.6c0-0.8,0.1-1.5,0.1-2.3
		C103.6,131.6,103.3,131.4,102.9,131.6z M124,29.4c0.2,1.4,0.3,2.6,0.5,3.8c0.1,0.5,0.2,0.8,0.8,0.8c0.6-0.1,0.7-0.5,0.7-0.9
		c-0.1-1.1-0.1-2.1-0.2-3.2c0-0.2-0.2-0.4-0.4-0.5C124.9,29.3,124.5,29.4,124,29.4z M127.4,35.1c0-0.5-0.1-0.9-0.1-1.2c0-2,0-4,0-6
		c0-0.5-0.4-1.1-0.2-1.5c0.2-0.7-0.1-1-0.4-1.5c-0.2-0.4-0.4-0.3-0.6-0.1c0.2,0.3,0.3,0.6,0.5,0.9c-0.1,0-0.1,0.1-0.2,0.1
		c-0.3-0.2-0.6-0.5-0.9-0.7c-0.1,0.1-0.1,0.1-0.2,0.2c0.2,0.2,0.4,0.5,0.6,0.7c0.2,0.3,0.5,0.6,0.6,0.9c0.2,0.4,0.2,0.9,0.4,1.5
		c0.1,0-0.2,0-0.2,0.1c-0.1,0.8-0.1,1.7-0.2,2.5c0,0,0,0.1,0,0.1c0.4,0.5,0.4,0.6,0.1,1.1c-0.1,0.1-0.2,0.3-0.2,0.4
		c0,1.1,0,2.3,0,3.6c0.3-0.2,0.5-0.3,0.7-0.4c-0.2-0.2-0.3-0.3-0.4-0.4C127.2,35.2,127.3,35.1,127.4,35.1z M124.5,34.4
		c0.1,1.1,0.2,2.2,0.3,3.3c0.1,0.4,0.4,0.7,0.5,1c0.3-0.3,0.6-0.6,0.9-0.9c0.1-0.1,0.1-0.4,0.1-0.6c0-0.5-0.1-1.1-0.1-1.6
		C126.1,34.1,126.1,34.1,124.5,34.4z M139.1,34.9c-0.1,0-0.2,0-0.2,0c0-0.8,0-1.6,0-2.3c-0.1,0-0.1,0-0.2,0
		c-0.3,1.6-0.5,3.3-0.8,4.9c0.1,0,0.2,0.1,0.3,0.1c0.1-0.2,0.3-0.4,0.4-0.6c0.2-0.5,0.3-0.9,0.5-1.4c0.4-1.5,0.8-2.9,1.2-4.4
		c0.1-0.4,0.1-0.7-0.4-0.7c-0.6,0-0.4,0.4-0.5,0.7C139.3,32.4,139.2,33.7,139.1,34.9z M181.4,136.6c0,0.2,0,0.6,0.1,0.7
		c0.9,0.4,0.6,1.3,0.8,1.9c0.5,1.3,0.9,2.7,1.3,4c0.1,0,0.2,0,0.4,0c0-0.4,0.2-0.8,0.1-1.1c-0.5-1-1.3-1.9-1.3-3.3
		c0.3,0.4,0.6,0.7,0.8,1c0-0.3-0.1-0.6-0.2-0.8c-0.2-0.4-0.7-0.7-0.3-1.3c0.1-0.1-0.3-0.5-0.4-0.7c0,0-0.1,0.1-0.1,0.1
		c0.1,0.2,0.2,0.5,0.3,0.9c-1.2-0.6-0.6-1.8-1.3-2.5c-0.3,0.2-0.6,0.5-1,0.8C180.9,136.4,181.1,136.5,181.4,136.6z M128.9,30.9
		c-0.5,1.9-1,3.7-1.5,5.5c0,0.2,0.2,0.5,0.4,0.6c0.1,0.1,0.5-0.1,0.6-0.3c0.2-0.4,0.4-0.9,0.5-1.3c0.1-0.5,0.3-1.1-0.3-1.4
		c0.3-0.2,0.7-0.4,0.7-0.6C129.5,32.6,129.4,31.8,128.9,30.9z M119.7,40.9c0.3,0.1,0.5,0.2,0.8,0.3c0.5,0.2,0.7-0.1,0.8-0.5
		c0.1-0.2,0-0.7-0.1-0.7c-0.4-0.1-0.9-0.3-1.2-0.1c-0.3,0.1-0.3,0.6-0.8,0.8c-1,0.5-0.8,1.9,0,2.5c0.4-0.3,1-0.6,1.3-1
		C120.9,41.6,119.8,41.6,119.7,40.9z M145.8,89.5c0.1,1.2,0.2,2.5,0.4,4c0.3-0.4,0.5-0.5,0.6-0.8c0.4-0.7,0.7-1.4,1-2.1
		c0.1-0.1,0.1-0.4,0-0.5c-0.2-0.4-0.4-0.9-0.6-1.4c-0.1,0.2-0.2,0.4-0.3,0.6c-0.2-0.1-0.3-0.3-0.4-0.4
		C146.3,89.2,146.1,89.3,145.8,89.5z M142,129.6c0.3,1.7,0.5,3.2,0.7,4.7c0.7-0.3,1-3.7,0.5-5.3c-0.3,0-0.7,0-1.1,0
		c0.2,0.2,0.2,0.3,0.4,0.4C142.3,129.5,142.1,129.6,142,129.6z M119.1,30.5c-0.1-0.7-0.1-1.4-0.3-2.1c-0.1-0.6-0.4-1.1-0.7-1.6
		c-0.1-0.1-0.4-0.2-0.6-0.2c-0.1,0-0.2,0.4-0.2,0.5c0.1,0.8,0.2,1.7,0.4,2.5C117.9,30.5,118.2,30.7,119.1,30.5z M117.6,23.3
		c0,1.4,0.3,2.7,1.3,3.7c0.1,0.1,0.4,0.2,0.5,0.1c0.6-0.3,0.7-1.2,0.3-1.7c-0.4-0.4-0.9-0.8-1.4-1.3c0,0,0-0.1,0-0.1
		c0.2,0.1,0.5,0.2,0.7,0.3c0,0,0-0.1,0.1-0.1C118.7,23.9,118.2,23.6,117.6,23.3z M117.4,30.5c0,0.5,0,1.1,0.1,1.5
		c0.1,0.2,0.4,0.5,0.7,0.6c0.4,0.1,0.6-0.3,0.6-0.7c0-0.2,0-0.3,0-0.5c0.1,0,0.2,0,0.3,0c-0.1,0.6-0.1,1.2-0.2,1.7
		c-0.4,0-0.7,0-1.3,0.1c0.5,0.6,0.9,1.1,1.2,1.6c0.3-1.1,0.5-2.1,0.7-3.2c0-0.2-0.2-0.5-0.4-0.6C118.7,30.8,118.1,30.7,117.4,30.5z
		 M127.8,22.4c-0.1,0-0.2,0-0.2-0.1c0.6-0.7,0.6-1.5,0.3-2.2c-0.1-0.5-0.3-0.9-0.4-1.3c0-0.1-0.3-0.2-0.4-0.2
		c-0.1,0-0.2,0.2-0.3,0.3c-0.1,0.4-0.2,0.9-0.1,1.3c0.3,0.9,0.7,1.8,0.7,2.8c0,0.2,0.4,0.3,0.6,0.5c0.1-0.2,0.3-0.4,0.4-0.7
		c0.1-0.2,0-0.5-0.1-0.8C128.1,22.2,128,22.3,127.8,22.4z M125.4,27.5C125.4,27.5,125.4,27.5,125.4,27.5c0-0.4-0.1-0.9-0.1-1.3
		c0-0.4-0.3-0.7-0.7-0.5c-0.3,0.1-0.8,0.3-0.8,0.5c0,0.7,0,1.5,0.2,2.2c0.1,0.2,0.6,0.4,1,0.4c0.1,0,0.3-0.4,0.4-0.7
		C125.5,27.9,125.4,27.7,125.4,27.5z M212.6,25.9c0.1-0.4-0.4-0.4-0.7-0.5c-2.9-0.7-5.9-1.4-8.8-2.1c-0.8-0.2-1.7-0.4-2.5-0.6
		c1.1,0.5,2.2,0.9,3.3,1.2c1.9,0.5,3.9,0.9,5.8,1.4C210.6,25.6,211.6,25.7,212.6,25.9z M71.3,119.2c-0.3-2.6,0-5,0.4-7.5
		c-0.3,0.3-0.6,0.7-0.6,1.1c-0.2,1.7-0.4,3.4-0.6,5.2C70.4,118.5,70.6,119,71.3,119.2z M153.5,110.2c0.6,1.9,1.6,3.7,1.5,5.8
		c0,0.1,0,0.3,0.1,0.4c0.2,1.1,0.4,2.2,1.4,2.9c0.2,0.1,0.1,0.6,0.1,0.9c0,0.2-0.3,0.4-0.4,0.6c0.1,0.1,0.2,0.1,0.2,0.2
		c0.3-0.5,0.7-0.9,1-1.3c-0.3-0.3-0.5-0.7-0.9-1c-0.7-0.6-1.2-1.3-1.1-2.3C155.4,114.2,154.8,112.1,153.5,110.2z M224.5,39.7
		c0-1.2,0-2.3,0-3.4c0-0.4,0-0.7-0.1-1.1c-0.1-0.2-0.3-0.3-0.5-0.4c-0.1,0.2-0.2,0.3-0.2,0.5c0,0.7,0,1.4,0,2c0,0.8-0.1,1.5-0.1,2.3
		C223.8,39.7,224.1,39.7,224.5,39.7z M223.4,40.2c-0.1,0.8-0.3,1.6-0.4,2.4c0,0,0.2,0.1,0.3,0.2c-1,0.4-1.1,1.1-0.5,1.6
		c0.5-0.3,0.9-0.7,1.4-1c-0.2,0-0.4-0.1-0.6-0.2c0-1.1,1-1.9,0.5-3C223.9,40.2,223.7,40.2,223.4,40.2z M128.4,27c0.1,0,0.1,0,0.2,0
		c0.2,0.5,0.3,1.1,0.5,1.6c0.1,0,0.2,0,0.2-0.1c0.3-0.6,0.1-1.2-0.2-1.6c-0.4-0.7-0.4-1.4-0.5-2.2c0-0.2,0-0.4-0.1-0.6
		c-0.1-0.1-0.3-0.2-0.4-0.3c-0.1,0.1-0.2,0.3-0.2,0.4c0,0.5,0.1,0.9,0.2,1.4c0.1,0.4,0.3,0.8-0.2,1.2c-0.2,0.1,0,0.8,0,1.1
		c0,0.1,0.3,0.1,0.4,0.2C128.3,27.8,128.3,27.4,128.4,27z M86.4,125.5c0.1,0.1,0.1,0.1,0.2,0.2c0.5-0.9,1-1.8,1.5-2.8
		c0-0.1-0.1-0.1-0.1-0.2c-1,0.1-1.9,0.2-2.9,0.3C86.7,124.3,86.8,124.5,86.4,125.5z M117.6,36.2C117.6,36.2,117.7,36.2,117.6,36.2
		c0.3,0.2,0.5,0.5,0.7,0.8c0,0,0.1-0.1,0.1-0.1c-0.1-0.2-0.2-0.4-0.3-0.6c0.1-0.1,0.3-0.1,0.5-0.2c-0.4-0.8-0.7-1.7-1.1-2.5
		c-0.1,0-0.2,0-0.3,0c-0.1,0.4-0.1,0.7-0.2,1.1c0,0.2,0.1,0.4,0.1,0.7c0.1,0.8,0.2,1.6,0.3,2.3c0.3,0,0.5-0.1,0.8-0.1
		C118.1,37.2,117.9,36.7,117.6,36.2z M114.1,15.9c0.2,0.1,0.4,0.2,0.6,0.1c0.5-0.2,0.9-0.5,1.3-0.8c0.4-0.3,0.6-0.6,1-0.9
		c0.4-0.3,0.7-0.6,1.3-0.3c0.4,0.2,0.7-0.1,0.9-0.5C118.1,13.2,114.8,14.6,114.1,15.9z M121.7,20.9c1.2,1.3,1.7,2.9,1.8,4.8
		C124.7,24.2,123.7,21.8,121.7,20.9z M222.2,30.3c-0.9-1.3-1.9-2.3-3.3-3.1c-0.1,0.3-0.2,0.5-0.3,0.7c1.1,0.6,1.9,1.3,2.5,2.3
		C221.2,30.5,221.7,30.7,222.2,30.3z M127.1,40.1c0.3-0.7,0.6-1.3,0.9-1.9c0.3-0.5,0-0.7-0.3-0.9c-0.4-0.2-0.6,0-0.7,0.3
		c-0.3,0.9-0.6,1.9-1,2.9c0.3,0.1,0.6,0.2,0.8,0.3c0,0,0-0.1,0.1-0.1c-0.2-0.1-0.3-0.3-0.6-0.5C126.7,40.2,126.9,40.2,127.1,40.1z
		 M222.5,30.6c-0.4,0.2-1,0.1-0.6,0.8c0.5,1,1,2.1,1.6,3.1c0.5-0.1,0.6-0.4,0.4-0.9C223.4,32.7,223,31.7,222.5,30.6z M160.1,14
		c0,0.1-0.1,0.2-0.1,0.3c2.3,0.6,4.7,1.2,7,1.7c0.1-0.4-0.1-0.6-0.5-0.7c-0.6-0.1-1.3-0.2-1.9-0.4C163.2,14.7,161.6,14.3,160.1,14z
		 M146,10.9c0.1,0.6,0.4,0.7,1.1,0.9c1.3,0.3,2.6,0.6,4,0.8c0.2,0,0.4-0.1,0.7-0.1c0-0.1,0-0.2,0-0.3C149.8,11.7,148,11.3,146,10.9z
		 M120.6,37.4c-0.7,1.5-0.5,2,0.8,2.4c0.2-0.5,0.6-1,0.5-1.4C121.8,38,121.1,37.7,120.6,37.4z M174.8,17.5c0-0.1,0-0.2,0-0.3
		c-2.4-0.5-4.8-1.1-7.3-1.7c0.1,0.3,0.1,0.4,0.2,0.4c2.2,0.5,4.3,1,6.5,1.5C174.4,17.5,174.6,17.5,174.8,17.5z M152.2,133.4
		c0,0.1,0.1,0.1,0.1,0.2c0.3,0,0.5,0,0.8-0.1c0.8-0.3,1.6-0.5,2.3-0.8c0.8-0.3,0.8-0.5,0.3-1.2C154.5,132.1,153.4,132.8,152.2,133.4
		z M159.5,14.3c-0.5-0.7-6.7-2.1-7.5-1.7C154.5,13.1,157,13.7,159.5,14.3z M213.6,25.7c0,0.1-0.1,0.1-0.1,0.2
		c0.1,0.1,0.2,0.3,0.4,0.4c0.2,0.1,0.4,0,0.5,0.1c0.6,0.3,1.3,0.6,2,0.3c0.2-0.1,0.5,0.1,0.7,0.1c0.3,0.1,0.6,0.4,1,0.5
		c0.1,0,0.3,0,0.4-0.1c0-0.1,0-0.3-0.1-0.4c-0.1-0.1-0.3-0.3-0.5-0.3C216.4,26.3,215,26,213.6,25.7z M78.2,62.4
		c0.4-0.2,0.7-0.2,0.8-0.4c0.3-0.5,0.6-1,0.9-1.6c0.1-0.2,0-0.5-0.1-0.7c-0.3,0.1-0.8,0.1-0.9,0.3C78.6,60.7,78.5,61.4,78.2,62.4z
		 M148.7,106.8c0.1,0,0.1,0,0.2,0c0-0.2,0-0.5,0-0.7c0.1,0,0.2,0,0.3,0c0.1,0.4,0.1,0.8,0.3,1.5c0.3,0.6,0.8,1.5,1.2,2.4
		c0.1,0,0.1-0.1,0.2-0.1c-0.9-1.7-0.9-3.8-2.8-5.1C148.3,105.4,148.5,106.1,148.7,106.8z M124.6,22.3c0.1-0.1,0.2-0.1,0.3-0.2
		c-0.1-0.3-0.2-0.5-0.4-0.8c-0.3-0.4-0.6-0.7-0.8-1.1c-0.3-0.4-0.6-0.7,0.1-1.1c0.2-0.1,0.2-0.5,0.3-1c-1.1,0.5-0.7,1.4-0.8,2.1
		c-0.1,0-0.3,0-0.5,0C123.4,21,123.8,21.9,124.6,22.3z M202.2,141.3c-0.5-1.3-0.9-2.5-1.3-3.7c-0.1-0.2-0.3-0.4-0.5-0.5
		c0,0-0.3,0.1-0.2,0.2c0,0.3,0.1,0.6,0.2,0.8c0.4,0.8,1,1.6,1.1,2.5C201.5,141.3,201.7,141.3,202.2,141.3z M146.3,81.3
		c0.7,0.6,1.3,0.6,2.1,0.2c-1-0.4-1.9-0.8-2.7-1.1c-0.1,0.6-0.1,1.2-0.1,1.7C146.2,82.4,146.1,81.6,146.3,81.3z M122.7,36.5
		c-0.7-0.2-1.2-0.4-1.8-0.6c-0.4,1-0.2,1.6,0.8,1.8C122.6,37.9,122.3,36.9,122.7,36.5z M119.8,32.2c-0.1,1.1,0.1,1.3,1,1.4
		c0.7,0,1.4,0,2-0.1c0,0,0-0.1,0-0.1C121.9,32.9,120.8,32.6,119.8,32.2z M182.6,88.3c0.1,0,0.2-0.1,0.3-0.1c0-0.3,0-0.6-0.1-0.8
		c-0.1-0.5-0.3-0.9-0.5-1.4c-0.2-0.4-0.3-0.8-0.5-1.2c-0.1-0.1-0.3-0.1-0.5-0.1c0,0.1,0,0.3,0,0.4c0.1,0.2,0.4,0.4,0.4,0.6
		c0.2,0.6,0.2,1.3,0.4,1.9C182.2,87.9,182.5,88.1,182.6,88.3z M130.6,30c0.3-1-0.6-3.8-1.6-4.2c0.4,0.9,0.6,1.6,1,2.5
		C129.8,29,130,29.6,130.6,30z M178.3,81.9c0.6-0.6,0.6-1-0.1-1.1c-0.5-0.1-0.6-0.4-0.9-0.5c-0.3-0.1-0.6-0.1-0.8-0.1
		c-0.1,0-0.2,0.5-0.1,0.6c0.1,0.2,0.4,0.4,0.7,0.4C177.5,81.4,178.1,81.3,178.3,81.9z M97.3,42.5c-0.2,0.9-0.4,1.7-0.7,2.8
		C98.2,44.6,98.3,44.1,97.3,42.5z M138.8,37.5c0.1,0.1,0.2,0.2,0.3,0.2c0.2-0.2,0.6-0.3,0.6-0.5c0.2-1.1,0.3-2.2,0.4-3.3
		c-0.1,0-0.1,0-0.2,0C139.5,35.1,139.2,36.3,138.8,37.5z M123.7,42.1c0.1,0,0.2,0,0.2,0c-0.1-1.9-0.2-3.8-0.3-5.7
		c-0.1,0-0.1,0-0.2,0C123.3,38.3,123.4,40.2,123.7,42.1z M78.4,62.8c-0.1,0-0.2,0-0.3,0c-0.1,0.7-0.2,1.4-0.2,2
		c0,0.1,0.4,0.3,0.6,0.3c0.1,0,0.4-0.2,0.4-0.3C78.9,64.1,78.9,63.4,78.4,62.8z M199,132.7c-0.1,0.1-0.3,0.1-0.4,0.2
		c0.3,1.3,1.2,2.5,1.4,3.8c0.5-0.2,0.6-0.3,0.3-0.7c-0.4-0.7-0.6-1.4-0.8-2.1C199.5,133.4,199.2,133.1,199,132.7z M193.8,119.9
		c1,1.1,1.1,2.5,1.4,3.8c0.6-0.1,0.5-0.4,0.4-0.8c-0.3-1.1-1.1-2.1-1.2-3.3c0,0-0.1,0-0.1-0.1C194.1,119.6,194,119.7,193.8,119.9z
		 M187.5,100.4c0-0.1,0-0.2,0-0.3c-0.6-1-1.2-2-1.2-3.2c0-0.1-0.3-0.1-0.4-0.2c-0.1,0.2-0.2,0.4-0.2,0.6c0.4,1.1,0.8,2.1,1.2,3.2
		C187.1,100.4,187.3,100.4,187.5,100.4z M137.5,146.8c-1.1,0.8-1.5,2.3-0.7,3.2C137.1,148.9,137.3,147.9,137.5,146.8z M179,82
		c0.8,0.2,0.6,1.3,1.5,1.3c0.1,0.3,0.2,0.7,0.4,1.1c0.2-0.3,0.4-0.5,0.5-0.6c-0.3-0.4-0.5-0.8-0.6-1.1C180.4,82,179.7,81.6,179,82z
		 M75,126.1c0.1,0,0.2,0,0.3,0c0.5-0.9,0.4-1.8,0.2-2.7c0-0.1-0.2-0.2-0.4-0.2c-0.1,0-0.3,0.2-0.3,0.3
		C74.9,124.4,74.9,125.2,75,126.1z M195.4,124.2c0.7,1.2,1.6,2.3,1.2,3.9c0.4-0.1,0.6-0.1,0.8-0.1c-0.3-1.2-1.1-2.2-1.2-3.4
		C196.1,124.2,196,123.6,195.4,124.2z M121.5,34.1c-0.2,0.6-0.5,1.2-0.3,1.3c0.4,0.3,1,0.4,1.6,0.7
		C122.7,35.1,122.1,34.7,121.5,34.1z M72.3,123.1c0,1.3,0,2.5,0,3.8C72.9,126.7,73.1,124,72.3,123.1z M187.6,101.1
		c-0.1,0.1-0.2,0.2-0.2,0.3c0,0.3,0,0.6,0.2,0.8c0.6,0.7,1.1,1.4,0.8,2.4c0,0.1,0.3,0.3,0.5,0.5c0.1-0.2,0.2-0.3,0.2-0.5
		c-0.3-1-0.7-2-1.1-3C187.9,101.3,187.7,101.2,187.6,101.1z M185,95.9c0.3,0,0.6,0,0.8,0c0-0.2,0-0.5-0.1-0.6
		c-0.5-0.5-0.6-1.2-0.7-1.8c0-0.2-0.1-0.5-0.2-0.7c-0.1-0.1-0.3-0.2-0.5-0.3c0,0.2-0.2,0.4-0.1,0.5c0.2,0.4,0.4,0.8,0.5,1.2
		C184.9,94.7,185.5,95.1,185,95.9z M201.9,142c0.6,1.3,1.1,2.4,1.6,3.5c0.1,0,0.2-0.1,0.3-0.1c-0.5-1.2-0.9-2.4-1.4-3.7
		C202.2,141.8,202.1,141.9,201.9,142z M112.1,111.7c-0.3,0.7-0.7,1.4-1,2.2C112.5,113.5,112.8,112.8,112.1,111.7z M183.7,91.9
		c0.5,0,0.7-0.2,0.5-0.7c-0.2-0.7-0.5-1.4-0.7-2.2c-0.1-0.2-0.4-0.3-0.6-0.5c-0.1,0.1-0.1,0.1-0.2,0.2c0.2,0.4,0.2,0.9,0.5,1.2
		C183.9,90.6,183.7,91.2,183.7,91.9z M125.6,41.5c0.1-0.8,0.3-1.7,0.4-2.6C124.8,39.3,124.7,40,125.6,41.5z M203.7,145.9
		c-0.1,0-0.2,0.1-0.3,0.1c0.3,1,0.6,2.1,1,3.2c0.4,0.1,0.6-0.1,0.4-0.6c-0.3-0.8-0.6-1.7-0.9-2.5C204,146,203.8,146,203.7,145.9z
		 M131,34.9c-0.6,0.5-0.3,2.7,0.6,3.3C131.4,37.2,131.2,36.1,131,34.9z M161.7,53.3c-0.1,0-0.2,0-0.2,0c-0.3,2.4-0.6,4.9-0.9,7.3
		c0.1,0,0.1,0,0.2,0C161,58.2,161.3,55.7,161.7,53.3z M162.9,55.8c-0.1,0.1-0.1,0.1-0.2,0.2c0.8,0.8,1.5,1.6,2.3,2.4
		c0.1-0.1,0.2-0.1,0.2-0.2C164.8,57.1,163.8,56.5,162.9,55.8z M119.1,39.4c-0.3-0.3-0.5-0.5-0.8-0.8c-0.3,1-1,1.8-0.3,2.8
		c0.1,0,0.2,0,0.2,0c0.1-0.6,0.2-1.3,0.3-2C118.5,39.5,118.7,39.5,119.1,39.4z M222.4,44.7c-0.7,1-1.4,1.9-2,2.9
		C221.5,47.2,222.6,45.5,222.4,44.7z M116.5,23c-0.1,0-0.2,0-0.3,0.1c0.2,1,0.4,2,0.6,2.9c0.4-0.1,0.7-0.2,1-0.2
		c-0.3-0.3-0.5-0.6-0.7-0.8c-0.1,0-0.1,0.1-0.2,0.1c-0.1-0.3-0.1-0.7-0.2-1C116.7,23.7,116.6,23.3,116.5,23z M197.3,129.6
		c0.8,0.1,0.3,0.8,0.5,1.2c0.2,0.5,0.4,0.9,0.6,1.5c0.3-0.1,0.5-0.1,0.3-0.7c-0.3-0.8-0.9-1.5-0.8-2.4c0-0.2-0.1-0.4-0.2-0.6
		c-0.1,0-0.1,0-0.2,0C197.4,128.9,197.4,129.3,197.3,129.6z M138.7,73.3c0.5,1.2,1.8,1.4,2.7,2.4C140.9,74.3,139.7,74,138.7,73.3z
		 M131.3,42.2c0-0.1-0.1-0.2-0.1-0.3c-0.7,0.8-1.3,0.2-1.9,0.1c-0.2-0.1-0.5,0-0.7,0c0,0.1,0,0.2-0.1,0.3c0.5,0.1,1,0.3,1.5,0.4
		c-0.1,0.2-0.3,0.4-0.4,0.6c0,0,0.1,0.1,0.1,0.1C130.3,43,130.8,42.6,131.3,42.2z M88.1,145.9c-0.1,0-0.1-0.1-0.2-0.1
		c-0.8,0.5-0.9,1.9-2.1,1.9c0.2,0.5,0.3,0.6,0.7,0.3c0.5-0.4,1-0.9,1.5-1.5C88.1,146.4,88,146.1,88.1,145.9z M130.5,34.9
		c0.5-1,0.3-2-0.7-2.8C130,33,130.2,33.9,130.5,34.9z M111.2,26.4c-0.1,0-0.2,0.1-0.4,0.1c0.3,1.2,0.5,2.5,0.8,3.7
		c0.1,0,0.2,0,0.3-0.1C111.7,28.9,111.4,27.7,111.2,26.4z M157.5,123.8c-0.1,0-0.1-0.1-0.2-0.1c-0.8,0.7-1.6,1.4-2.5,2.1
		c0,0,0.1,0.1,0.1,0.1c0.3-0.1,0.5-0.2,0.8-0.3c0,0.3-0.1,0.5-0.1,0.7c0.4-1,0.4-1,1.1-1.6C157,124.4,157.3,124.1,157.5,123.8z
		 M129.1,21.1c0,1-0.3,1.9,0.3,2.9C129.9,23,129.8,21.8,129.1,21.1z M132.3,33.9c-0.1,0-0.2,0-0.3,0c0.1,1,0.2,2,0.3,3
		c0.1,0,0.1,0,0.2,0C132.8,35.9,132.7,34.9,132.3,33.9z M129.3,29.1c-0.3,0.5,0.1,2,0.6,2.4C130.2,30.8,129.9,29.8,129.3,29.1z
		 M73.4,123.6c-0.1,0-0.2,0-0.3,0c0,0.9,0,1.7,0,2.6c0.1,0,0.2,0,0.3,0C73.4,125.4,73.4,124.5,73.4,123.6z M120.8,26.6
		c0.6,0.8,1.7,1.3,2.3,0.9C122.7,26.9,122.6,26.9,120.8,26.6z M74.5,123.3c-0.1,0-0.1,0-0.2,0c0,1.1,0,2.1,0,3.2c0.1,0,0.1,0,0.2,0
		C74.5,125.5,74.5,124.4,74.5,123.3z M119.5,37.7c0.2-0.4,0.4-0.6,0.3-0.7c-0.1-0.3-0.3-0.6-0.6-1c-0.3,0.8-0.7,1.3-0.1,1.8
		c0.1,0.1,0.3,0.1,0.6,0.3C119.5,37.8,119.5,37.7,119.5,37.7z M175.5,131.7c1.8-1.3,1.9-1.9,1.3-2.5
		C176.4,130.1,175.9,130.9,175.5,131.7z M129.8,41.5c0.6,0,1.2,0,1.7,0c-0.4-0.5-0.8-0.9-1.2-1.3C130.1,40.6,130,41,129.8,41.5z
		 M71.6,126.4c0.4-1.1,0.2-2.2,0.1-3.3C71.3,124.2,71.6,125.3,71.6,126.4z M121.3,18.7c-0.1,0.6-0.1,1.1-0.1,1.6
		c0,0.1,0.1,0.3,0.2,0.3c0.1,0,0.2-0.1,0.3-0.1C122.1,20.1,122,19.2,121.3,18.7z M126.4,22.9c-0.4-0.3-0.7-0.5-1.2-0.9
		c0,0.4,0,0.7,0.1,0.7c0.8,0.3,0.3,0.7,0.1,1.1C125.7,24,125.7,24,126.4,22.9z M157.2,122.5c-0.1-0.1-0.2-0.2-0.3-0.3
		c-0.5,0.5-1,1-1.5,1.5c0,0,0.2,0.3,0.2,0.4C156.2,123.6,156.7,123,157.2,122.5z M117.7,20.4c0.2,0.3,0.3,0.5,0.5,0.7
		c0.2,0.1,0.6,0.1,0.8,0.1c0.1,0,0.2-0.3,0.3-0.4c-0.2-0.1-0.4-0.3-0.7-0.4C118.4,20.3,118,20.4,117.7,20.4z M156.8,116.1
		c0.1,0,0.1,0.1,0.2,0.1c0.3-0.7,0.5-1.4,0.8-2.2C157,114.3,156.7,115,156.8,116.1z M119.6,15.9c1.2,0.1,1.2,1.3,1.6,2.1
		c0.1-0.1,0.1-0.2,0.1-0.2c-0.1-0.4-0.2-0.9-0.4-1.3c-0.2-0.4-0.4-0.7-0.7-1C120,15.3,119.6,15.3,119.6,15.9z M125,12.1
		c0,0.8,0,1.3,0,1.9c0,0.1,0.2,0.2,0.3,0.2c0.1,0,0.2-0.1,0.2-0.2C125.7,13.7,125.5,12.7,125,12.1z M183,144.3c0.1,0,0.2,0,0.2-0.1
		c0.2-1.1-0.6-1.9-0.7-2.8c-0.1,0-0.2,0-0.2,0.1C182.5,142.4,182.7,143.3,183,144.3z M117.4,21.3c-0.4,0.5-0.4,1,0,1.5
		c0,0.1,0.4,0,0.5-0.1C118.1,22.2,117.9,21.6,117.4,21.3z M138,34.1c-0.3,1.1-0.6,2.3-0.9,3.4c0.1,0,0.2,0,0.3,0.1
		C137.9,36.5,137.9,35.3,138,34.1z M117.2,32c-0.1-0.8-0.1-1.4-0.2-2.2C116.3,30.5,116.4,30.8,117.2,32z M131.9,28.7
		c0,0-0.1,0-0.1,0c0,0.8,0,1.7,0,2.5c0.1,0,0.2,0,0.3,0C132.1,30.4,132,29.6,131.9,28.7z M124.1,11.1c-0.1,0.1-0.2,0.2-0.3,0.3
		c0.2,0.3,0.4,0.6,0.7,0.9c0.2-0.2,0.4-0.3,0.6-0.5C124.7,11.6,124.4,11.4,124.1,11.1z M116.6,21.1c-0.1-0.5-0.6-1-1-0.8
		c-0.1,0.1-0.2,0.3-0.2,0.4C115.4,21.2,116,21.4,116.6,21.1z M123.5,32.3c0.1,0,0.2,0,0.3,0c-0.1-0.9-0.3-1.8-0.4-2.8
		c-0.1,0-0.2,0-0.3,0C123.3,30.5,123.4,31.4,123.5,32.3z M140.4,33.5c0.1,0,0.1,0,0.2,0c0.2-0.9,0.3-1.8,0.5-2.6
		c-0.1,0-0.2,0-0.4-0.1C140.6,31.7,140.5,32.6,140.4,33.5z M124.3,41c0.1,0,0.2,0,0.3,0c-0.1-1-0.1-1.9-0.2-2.9c0,0-0.1,0-0.1,0
		C124.3,39.1,124.3,40.1,124.3,41z M114.3,19.3c0.1,0,0.2-0.1,0.3-0.1c-0.2-0.6-0.5-1.1-0.7-1.7c-0.1,0-0.2,0.1-0.2,0.1
		C113.6,18.2,113.7,18.8,114.3,19.3z M80.1,56.9c0.9-0.8,1.2-1.7,0.7-2.1C80.6,55.5,80.4,56.2,80.1,56.9z M136.1,8.7
		c-0.3-0.8-1.3-1.2-2-1.1C134.8,8,135.5,8.3,136.1,8.7z M153.1,49.6c0,0.1-0.1,0.1-0.1,0.2c1,0.4,2.1,0.8,3.1,1.3
		c0-0.1,0-0.1,0.1-0.2C155.2,50.4,154.1,50,153.1,49.6z M127.5,39.7c0.1,0.1,0.2,0.2,0.2,0.3c0.3-0.2,0.6-0.3,0.9-0.6
		c0.1-0.1,0.1-0.3,0-0.4c-0.1-0.1-0.3-0.1-0.4-0.1C128,39.2,127.8,39.5,127.5,39.7z M129.3,36.8c0.1,0,0.1,0,0.2,0
		c0.2-0.8,0.6-1.5,0.5-2.4c-0.1,0-0.1,0-0.2,0C129.6,35.2,129.5,36,129.3,36.8z M113.5,15.9c-0.2,1.1,0,1.3,0.9,1.1
		C114.1,16.6,113.8,16.2,113.5,15.9z M191.9,112.6c-0.1,0-0.2,0-0.2,0c0.1,0.5,0.3,1.1,0.4,1.6c0,0,0.3,0,0.5,0
		C192.3,113.6,192.1,113.1,191.9,112.6z M131.5,33.2c-0.1,0-0.2,0-0.3,0.1c0.2,0.7,0.3,1.4,0.5,2.1c0.1,0,0.1,0,0.2,0
		C131.7,34.7,131.6,33.9,131.5,33.2z M71.8,127.9c-0.1,0-0.2,0-0.3,0c0,0.7,0,1.3,0,2c0,0,0.1,0,0.1,0
		C71.7,129.2,71.8,128.5,71.8,127.9z M132.1,31.8c-0.1,0-0.2,0-0.3,0c0.1,0.6,0.1,1.1,0.2,1.7c0.1,0,0.1,0,0.2,0
		C132.3,32.9,132.5,32.3,132.1,31.8z M119.6,30.8c0.1,0,0.2,0,0.3,0c-0.1-0.8-0.2-1.5-0.3-2.3c-0.1,0-0.1,0-0.2,0
		C119.4,29.3,119.5,30,119.6,30.8z M123.8,11c-0.7-0.5-1.2-0.5-1.5,0.2C122.8,11.2,123.3,11.1,123.8,11z M130.9,30.8
		c-0.1,0-0.2,0.1-0.3,0.1c0.2,0.6,0.3,1.2,0.5,1.8c0.1,0,0.2,0,0.3-0.1C131.2,32,131,31.4,130.9,30.8z M74.6,126.9
		c0,0.1,0,0.1,0.1,0.2c0.3,0,0.6,0,0.9,0c0.1,0,0.3-0.2,0.4-0.3c-0.2-0.1-0.3-0.4-0.4-0.3C75.2,126.6,74.9,126.8,74.6,126.9z
		 M124.8,20.8c0.1-0.1,0.2-0.2,0.2-0.3c-0.4-0.3-0.8-0.6-1.1-0.9c-0.1,0.1-0.1,0.2-0.2,0.3C124.1,20.2,124.5,20.5,124.8,20.8z
		 M114.6,19.7c-0.1,0-0.2,0-0.3,0c-0.1,0.6,0.1,1.2,0.4,1.7c0.1,0,0.1,0,0.2,0C114.8,20.8,114.7,20.2,114.6,19.7z M180.2,135
		c0.2-0.1,0.3-0.2,0.5-0.3c0.1,0.2,0.2,0.5,0.3,0.8c0.3-0.8-0.1-1.1-0.5-1.5C180.4,134.4,180.3,134.6,180.2,135z M189.3,105.3
		c-0.4,0.9-0.3,1,0.4,1.3C189.5,106.1,189.4,105.7,189.3,105.3z M135,147.3c0.4,0.4,0.7,0.6,1,0.9C136.1,147.4,136,147.3,135,147.3z
		 M118.3,143.9c-0.1,0-0.3,0-0.4-0.1c0,0.4-0.1,0.8-0.1,1.1c0.1,0,0.2,0,0.3,0C118.2,144.7,118.2,144.3,118.3,143.9z M157.9,128.9
		c-0.1-0.1-0.2-0.1-0.2-0.2c-0.3,0.4-0.6,0.8-0.9,1.2c0.1,0.1,0.2,0.1,0.3,0.2C157.3,129.7,157.6,129.3,157.9,128.9z M72.5,99.1
		C72.5,99.1,72.6,99.1,72.5,99.1c0.1-0.6,0-1.1,0-1.7c-0.1,0-0.2,0-0.3,0c-0.1,0.3-0.2,0.6-0.3,0.9c0,0,0.1,0,0.1,0
		c0.1-0.1,0.1-0.2,0.2-0.4C72.4,98.4,72.4,98.8,72.5,99.1z M72.9,95.1c0,0-0.1,0-0.1,0c0,0.6,0,1.2,0,1.8c0,0,0.1,0,0.1,0
		C72.9,96.3,72.9,95.7,72.9,95.1z M190.9,109.7c-0.2-0.5-0.4-0.8-0.7-1.4C190.2,109.6,190.2,109.6,190.9,109.7z M120.2,31.5
		c-0.1,0.1-0.1,0.2-0.2,0.2c0.4,0.3,0.9,0.6,1.3,0.8c0-0.1,0.1-0.1,0.1-0.2C121.1,32.1,120.7,31.8,120.2,31.5z"/>
	<path d="M138.4,150.5c0.1-0.1,0.2-0.3,0.3-0.4c2.5-1.2,4.9-2.4,7.4-3.6c0.2-0.1,0.5-0.2,0.8-0.3c0,0.1,0.1,0.1,0.1,0.2
		c-0.3,0.3-0.7,0.6-1,0.9c-1.2,0.9-2.5,1.7-3.7,2.6c-0.2,0.1-0.4,0.4-0.5,0.6C140.6,150.5,139.5,150.5,138.4,150.5z"/>
	<path d="M143.7,150.5c0-0.1,0.1-0.3,0.1-0.3c0.4-0.1,0.9-0.2,1.3-0.2c1.5,0,3-0.1,4.5-0.1c0.2,0,0.4,0.1,0.5,0.3
		c-0.5,0.1-1.1,0.2-1.6,0.3C147,150.5,145.4,150.5,143.7,150.5z"/>
	<path d="M83.4,10.1c1.1,0.2,2.2,0.3,3.5,0.5c-0.8-0.8-1.4-1.5-2.2-2.4C85,8.3,85,8.3,85.1,8.4c1.8,2.1,4.4,2.9,6.9,3.8
		c0.6,0.2,1.3,0.4,1.6,0.8c1.2,1.5,2.9,2.2,4.3,3.4c0.9,0.8,1.7,1.7,2.6,2.4c1,0.9,2.1,1.6,3.2,2.4c0.2,0.1,0.4,0.3,0.6,0.4
		c0,0.1,0,0.1-0.1,0.2c-1.1-0.3-2.2-0.5-3.4-0.8c0.1,0.2,0.2,0.3,0.2,0.5c0.5,1,1,2,1.6,3c0.3,0.6,0.6,1.2,1.1,1.6
		c1,0.9,2.1,1.8,3.2,2.8c-0.5-0.2-1.1-0.3-1.6-0.5c-0.9-0.3-1.7-0.6-2.6-1c-0.3-0.2-0.6-0.5-0.9-0.8c0-0.1,0.1-0.1,0.1-0.2
		c0.8,0.4,1.6,0.7,2.6,1.2c-1.8-1.9-3.4-3.6-4.4-5.8c0.1-0.1,0.1-0.1,0.2-0.2c0.5,0.8,1.1,1.6,1.6,2.4c0.1,0,0.1-0.1,0.2-0.1
		c-0.7-1.2-1.3-2.4-2.1-3.7c0.7,0.3,1.4,0.5,2.1,0.8c-1.5-1.3-2.9-2.6-4.3-3.8c0.1-0.1,0.1-0.1,0.2-0.2c0.4,0.3,0.8,0.7,1.2,1
		c0-0.1,0.1-0.1,0.1-0.2c-0.7-0.5-1.4-1.1-2.2-1.6c-1.2-0.7-2.3-1.3-3.2-2.4c-0.4-0.5-1.2-0.8-1.8-1.1c-1.3-0.6-2.7-1.1-4.1-1.7
		c0,0.2,0,0.3,0,0.5c-0.5-0.2-0.9-0.3-1.4-0.5c0,0,0,0.1-0.1,0.1c0.5,0.5,1.1,0.9,1.6,1.4c0,0.1-0.1,0.1-0.1,0.2
		c-0.2,0-0.4,0-0.6-0.1c-2-0.5-4-0.5-6-0.2c-1.8,0.3-3.6,0.4-5.4-0.1c0.6,0.4,1.1,0.8,1.8,1.2c-0.9,0.4-1.6,0.6-2.3,1.1
		C75,15,74.2,15,73.8,15.7c-0.2,0.3-0.9,0.2-1.4,0.3c0.3,0.1,0.6,0.1,0.9,0.2c-0.9,0.4-1.7,0.8-2.5,1.2c0,0,0,0.1,0.1,0.1
		c0.7-0.3,1.5-0.5,2.2-0.8c0,0.1,0.1,0.2,0.1,0.3c-1.4,0.6-2.9,1.1-4.3,1.7c0,0,0-0.1-0.1-0.1c1-0.7,1.9-1.4,2.9-2
		c-1.5,0-2.8,0.5-4,1.3c0-0.1-0.1-0.1-0.1-0.2c0.2-0.2,0.4-0.4,0.6-0.5c1.2-0.5,2.4-0.9,3.6-1.4c0.9-0.3,1.7-0.7,2.6-1
		c0.9-0.4,1.8-0.8,2.7-1.2c-1.1-0.9-2.1-1.8-3.2-2.8c0.1-0.1,0.1-0.1,0.2-0.2c0.1,0.1,0.3,0.1,0.4,0.2c1.8,1.2,3.6,1.8,5.8,1.4
		c2.4-0.4,4.8-0.5,7.2,0.2c0-0.1,0.1-0.1,0.1-0.2c-0.6-0.3-1.2-0.7-1.9-1c-0.7-0.3-1.4-0.5-2.1-0.8C83.4,10.3,83.4,10.2,83.4,10.1z"
		/>
	<path d="M117.7,80.2c0.3,2,0.7,4,1,6c0.7-0.4,1.1-0.1,1.4,0.4c0.5,1,0.3,1.8-0.9,2.7c0.7,1.2,1.5,2.4,2.2,3.5
		c0.8,1.3,1.7,2.5,2.6,3.7c0.4,0.7,0.7,1.4,1,2.1c0.1,0.3,0.4,0.6,0.6,0.6c1,0.1,1.2,0.9,1.4,1.5c0.1,0.3-0.5,0.7-0.9,1.1
		c0.9,2,1.9,4.1,2.8,6.2c0.2,0.4,0.5,0.8,1.1,0.8c0.8,0,1.3,1.1,0.9,1.9c-0.2,0.4-0.5,0.7-0.7,1c1.3,2.6,2.5,5.3,3.8,7.9
		c-0.1,0-0.1,0.1-0.2,0.1c-3-5.6-5.2-11.5-7.7-17.4c-0.1,0.4-0.2,0.6-0.3,1c-0.4-3.8-2-7-4.2-9.9c-2.1-2.7-3.2-5.8-3.6-9.1
		c-0.2-1.4-0.4-2.9-0.6-4.3C117.6,80.3,117.7,80.2,117.7,80.2z M131,110.4c-0.4-0.4-0.6-0.7-0.9-0.9c0,0-0.6,0.4-0.5,0.4
		c0.2,0.3,0.4,0.6,0.7,0.9C130.3,110.9,130.6,110.6,131,110.4z M119.3,87.1c-0.1,0.2-0.2,0.3-0.4,0.6c0.3,0.3,0.6,0.5,0.9,0.7
		c0.3-0.8-0.1-1.6-1-1.7C119.1,86.9,119.2,87,119.3,87.1z M125.7,99.8c-0.4,0.3-0.3,0.6,0,0.9c0.2,0.3,0.5,0.4,0.8,0.2
		C126.2,100.6,126,100.2,125.7,99.8z"/>
	<path d="M92.6,34.4c-2.5-2.9-2.5-2.9-2.2-3.7c0.6,2.2,2.2,3.3,3.8,4.4c-1-1.3-2-2.6-3.1-3.9c0.1-0.1,0.2-0.1,0.3-0.2
		c0.9,1.8,2.7,3,3.5,5.1c-1.1-0.6-2.1-1.1-3.2-1.7c-0.1,0.7-0.1,1.3-0.2,1.8c-0.1,0.7-0.4,1.3-0.6,1.9c0,0.2-0.2,0.3-0.2,0.5
		c0,1.2-0.2,2.5,0.2,3.6c0.2,0.8,0.1,1.3,0,1.9c-0.1,0-0.1,0-0.2,0c-0.1-1.6-0.2-3.3-0.4-5.1c-0.6,0.3-0.9,0.6-1.3,0.8
		c-0.8,0.3-1.5,0.7-2.3,0.9c-0.7,0.1-1.2,0.4-1.6,1c-0.1,0.2-0.3,0.4-0.5,0.5c0.3-0.6,0.7-1.2,1-1.8c0.1-0.1,0.4-0.2,0.6-0.1
		c1.2,0.2,2.1-0.3,3-1c1.3-0.9,2.2-2,1.9-3.7c-0.1-0.3,0-0.6,0-0.9c-0.1-0.2-0.3-0.4-0.4-0.5c-0.1,0-0.1,0.1-0.2,0.1
		c0.1,0.2,0.2,0.5,0.3,0.7c-0.1,0-0.1,0.1-0.2,0.1c-0.5-0.7-1-1.5-1.4-2.2c-0.1,0-0.2,0.1-0.3,0.1c0.1,0.3,0.1,0.7,0.3,1
		c0.2,0.3,0.5,0.5,0.8,0.8c-1.3-0.5-1.3-0.5-1.3-1.8c0-0.7,0-1.3,0.2-2c0.2,0.9,0.2,1.9,1.2,2.5c0.8,0.5,1.7,0.9,2.5,1.3
		C92.6,34.5,92.6,34.4,92.6,34.4z"/>
	<path d="M87.2,33.2c0.4,1.9,1.1,3.1,1.9,3c-0.2-0.4-0.4-0.8-0.6-1.1c-0.2-0.4-0.3-0.8-0.4-1.2c1.2,0.9,1.2,2.2,1.2,3.8
		c0.4-0.4,0.6-0.6,0.8-0.9c0,0,0.1,0.1,0.1,0.1c-0.2,0.3-0.3,0.7-0.6,0.9c-0.6,0.3-1.3,0.6-2,0.8c-0.5,0.2-1.1,0.2-1.7,0.3
		c0.2-0.6,1.4-1.1,0.4-2.1c-0.2,0.6-0.4,1.2-0.6,1.8c-0.1,0-0.1,0-0.2,0c-0.3-0.6-0.5-1.1-0.9-1.9c0,0.6,0,1.1,0,1.6
		c-0.1,0-0.1,0-0.2,0c-0.3-1.1-0.7-2.2-1-3.2c0.1,0,0.2-0.1,0.2-0.1c0.2,0.4,0.3,0.9,0.5,1.3c0,0,0.1,0,0.1,0
		c0.1-0.7,0.1-1.5,0.2-2.2c0.1,0,0.1,0,0.2,0c0.2,1.2,0.5,2.5,0.7,3.8C86.8,36.4,86.5,34.6,87.2,33.2z M87.2,36
		c-0.1,0-0.1,0.1-0.2,0.1c0.1,0.5-0.2,1.3,0.8,1.4c0,0,0.1,0.1,0.1,0.2c0.2,0.5,0.6,0.6,0.9,0.2c0.2-0.2,0-0.6,0-0.9
		c-0.1,0-0.1,0-0.2,0c0,0.1,0,0.2,0,0.2C88.1,36.8,87.7,36.4,87.2,36z M87.2,34.5c-0.3,0.9-0.1,1.2,0.7,1.5
		C87.7,35.5,87.4,35,87.2,34.5z"/>
	<path d="M73.5,22.7c0.9,2.2,1.8,4.2,2.7,6.1c0,0-0.1,0-0.1,0.1c-0.3-0.5-0.6-1-0.9-1.5C75,27.2,74.6,27,74.4,27
		c-1.6,0-1.9,0.2-2.2,1.8C72,29.5,72,30.2,71.9,31c-0.8-0.7-0.5-6.3,0.3-7.5c-0.2,1.4-0.3,2.9-0.5,4.3c0.1,0,0.2,0,0.3,0.1
		C72.4,26.1,72.5,24.3,73.5,22.7z M74.7,26.5c-0.4-1-0.8-1.9-1.2-2.9c-0.1,0-0.2,0-0.3,0c-0.2,1.1-0.5,2.1-0.8,3.2
		C73.2,26.7,73.9,26.6,74.7,26.5z"/>
	<path d="M76.6,28.8c0.2,0.6,0.5,1.1,0.7,1.8c-0.9-0.7-2-0.5-3-0.6c-0.5,0-1-0.1-1.4-0.2c-0.2,0-0.4-0.3-0.5-0.5
		c1.3,0.1,2.7,0.2,4.2,0.4c-0.4-1.2-0.7-2.1-1-3c0.1,0,0.2-0.1,0.2-0.1c0.3,0.6,0.5,1.2,0.8,1.7c0.1,0,0.2-0.1,0.2-0.1
		c-0.4-0.9-0.7-1.9-1.1-2.8c0.1,0,0.1-0.1,0.2-0.1c0.8,2,1.5,3.9,2.3,6c0-0.2,0.1-0.3,0.2-0.7c0.3,0.6,0.5,1.2,0.8,1.5
		c0.7,0.6,0.4,1.3,0.4,2c-0.2-0.7-0.5-1.4-0.7-2.2c-0.1,0-0.1,0-0.2,0c-0.1,0.2-0.1,0.5-0.2,0.7c-0.1,0-0.1,0-0.2,0.1
		c-0.2-0.7-0.5-1.5-0.7-2.2C77.1,28.8,77.1,28.8,76.6,28.8z"/>
	<path d="M94.7,42.7c-0.2-0.1-0.3-0.2-0.5-0.3c-0.6,1.2,0.4,2.2,0.4,3.3c-0.8-0.4-2.4-3-2.4-4.1c0.6,1,1.1,1.9,1.6,2.9
		c0.1-1.8-0.6-2.9-1.7-3.9c0.1,0,0.1-0.1,0.2-0.1c0.5,0.5,1.1,0.9,1.6,1.4c0,0,0.1-0.1,0.1-0.1c-0.5-1.1-1.4-2.1-1.3-3.4
		C93.4,39.8,94.1,41.3,94.7,42.7z"/>
	<path d="M115.1,71.1c0.4,1.1,0.7,2.1,1.1,3.2c1-0.1,1.4,0.3,1.6,1.4c0.1,0.7-0.1,1-0.9,1.2c0.1,0.8,0.2,1.6,0.3,2.4
		c0,0-0.1,0-0.1,0C116.4,76.5,115.7,73.8,115.1,71.1C115.1,71.1,115.1,71.1,115.1,71.1z M117.1,74.6c-0.6,0.5-0.6,0.5-0.2,1
		c0.2-0.2,0.4-0.3,0.6-0.5C117.4,74.9,117.3,74.8,117.1,74.6z"/>
	<path d="M112,66.1c-0.1,0.2-0.1,0.3-0.1,0.4c-0.1,0-0.1,0-0.2,0.1c-0.1-0.2-0.2-0.5-0.2-0.7c0.2,0,0.5,0.2,0.6,0.1
		c0.8-0.2,1.1,0.5,1.7,0.6c0.3-1.1,0.5-2.1,0.8-3.1c0.1,0,0.2,0,0.4,0c-0.7,1.7-1.2,3.4,0.3,5c-0.2-0.2-0.3-0.3-0.7-0.6
		c0.1,0.8,0.2,1.5,0.3,2.1c0,0-0.1,0-0.1,0c-0.3-0.8-0.4-1.6-0.8-2.3C113.5,67,112.7,66.7,112,66.1z"/>
	<path d="M136,123.2c1.7,1.4,4.3,9.5,4,11.9c-0.5-2-0.8-4.1-1.5-6.1C137.8,127,136.8,125.1,136,123.2z"/>
	<path d="M81,29.1c0.2,0.9,0.4,1.8,0.6,2.7c0.1,0.5,0.5,0.9,0.6,1.3c0.1,1.1,0,2.2,0,3.3c0,0.3,0.1,0.6,0,0.9
		c-0.1,0.3-0.3,0.5-0.6,0.6c0.1-0.5,0.1-1,0.3-1.5c0.2-0.8,0.1-1.6-0.3-2.3c-0.2-0.4-0.5-0.7-0.2-1.3c0.2-0.3-0.1-0.9-0.2-1.3
		c-0.2-0.8-0.3-1.6-0.5-2.4C80.9,29.1,80.9,29.1,81,29.1z"/>
	<path d="M135,119.9c0.8,0,1.3,0.4,1.4,0.9c0.1,0.6-0.3,1.5-0.9,1.6c-0.5,0.1-0.8,0.1-0.9-0.5c-0.1-0.4-0.2-0.8-0.2-1.2
		C134.3,120.2,134.6,120,135,119.9z M134.8,120.9c0.3,0.3,0.5,0.6,0.7,0.8c0.2-0.2,0.6-0.5,0.6-0.7c-0.1-0.3-0.4-0.5-0.7-0.7
		C135.3,120.3,135.1,120.7,134.8,120.9z"/>
	<path d="M116.2,60.9c0,0.8,0.1,1.5,0,2.2c0,0.2-0.4,0.4-0.7,0.6c-0.1-0.2-0.4-0.4-0.4-0.7C114.9,62.2,114.9,61.3,116.2,60.9z"/>
	<path d="M119.7,52.2c0.3-0.4,0.4-0.7,0.6-1c0.7,1.1,0.7,2,0,2.8c-0.4-0.8-0.8-1.6-1.2-2.4c0.1,0,0.1-0.1,0.2-0.1
		C119.4,51.7,119.5,51.9,119.7,52.2z"/>
	<path d="M76.9,31.4c-0.2,0.2-0.4,0.3-0.6,0.5c-0.3,0.2-0.6,0.2-0.8,0.5c-0.6,0.9-1.4,0.7-2.2,0.6c-0.1,0-0.3-0.2-0.3-0.3
		c0-0.1,0.1-0.3,0.2-0.3c0.6-0.1,1.3-0.2,1.9-0.4c0.6-0.2,1.2-0.5,1.7-0.7C76.8,31.3,76.9,31.4,76.9,31.4z"/>
	<path d="M86,45.5c0-1.5-0.7-3.1-0.1-4.7c0.5,0.5,0.5,0.8,0.2,1.1c0.1,1.3,0.1,2.4,0.2,3.6C86.2,45.5,86.1,45.5,86,45.5z"/>
	<path d="M80.3,28.2c0.1,1.7,1,3.3,0.6,5.4c-0.4-0.8-0.7-1.5-0.9-2.1c0,0,0.1,0,0.1-0.1c0.1,0.2,0.3,0.3,0.4,0.5c0,0,0.1,0,0.1,0
		c-0.2-1.2-0.3-2.4-0.5-3.6C80.2,28.2,80.3,28.2,80.3,28.2z"/>
	<path d="M102,47.9c1.1,2.2,2,4.4,2.8,6.8c-0.1,0-0.1,0.1-0.2,0.1c-0.1-0.1-0.2-0.2-0.2-0.4c-0.8-2-1.5-3.9-2.3-5.9
		C102.1,48.3,102.1,48.1,102,47.9C102,47.9,102,47.9,102,47.9z"/>
	<path d="M140,136.2c-0.3,2.3-1.4,4.3-2.6,6.1C138.2,140.3,139.1,138.3,140,136.2z"/>
	<path d="M119.7,54.1c-0.6,2.3-1.5,4.3-3,6.1C117.7,58.2,118.7,56.1,119.7,54.1z"/>
	<path d="M103.1,28.1c0.8,0.8,1.7,1.5,2.5,2.3c0,0,0,0.1,0,0.1c-0.8-0.3-1.6-0.5-2.4-0.8c0-0.1,0.1-0.2,0.1-0.3
		c0.2,0,0.3,0.1,0.7,0.1c-0.4-0.5-0.6-1-0.9-1.4C103,28.1,103,28.1,103.1,28.1z"/>
	<path d="M93.4,27.8c-0.8-1-1.7-1.9-1.9-3.3c0.1,0.2,0.2,0.3,0.3,0.5c0.5,0.8,1.1,1.7,1.6,2.5c0.1,0.2,0.1,0.4,0.2,0.6
		c-0.2,0-0.5,0.1-0.6-0.1c-0.5-0.5-0.9-1-1.4-1.5c0.1-0.1,0.1-0.1,0.2-0.2c0.5,0.5,1,1,1.5,1.5C93.3,27.9,93.3,27.9,93.4,27.8z"/>
	<path d="M112.7,140.2c0.9-1.3,1.8-2.6,2.6-3.8C115.2,137.6,113.3,140.2,112.7,140.2z"/>
	<path d="M107,56.3c-0.1,0.6-0.2,1.2-0.3,1.8c-0.1,0-0.2,0-0.3,0c-0.1-1.2-0.1-2.4-0.2-3.6c0.1,0,0.2,0,0.2,0c0,0.7,0.1,1.3,0.1,2.1
		c0.1-0.1,0.2-0.2,0.2-0.2C106.9,56.3,107,56.3,107,56.3z"/>
	<path d="M83.2,34.7c0.5,1.1,0.2,2-0.5,2.9C82.4,36.5,82.7,35.6,83.2,34.7z"/>
	<path d="M92.4,43.7c-1.2-1.2-1.4-2.1-1.1-3.4C91.7,41.5,92.1,42.6,92.4,43.7z"/>
	<path d="M94.4,32.9c0.1,0,0.2,0,0.5,0.1c-0.6-0.8-1.1-1.5-1.6-2.2c0.1,0,0.1-0.1,0.2-0.1c0.7,0.9,1.5,1.9,2.2,2.8
		c-0.1,0.1-0.1,0.1-0.2,0.2C95.1,33.4,94.8,33.1,94.4,32.9C94.4,32.8,94.4,32.9,94.4,32.9z"/>
	<path d="M125.5,104.7c-0.5-0.9-0.4-1.8,0-2.7C125.5,102.9,125.5,103.8,125.5,104.7z"/>
	<path d="M127,109.1c-1.1-1-0.8-2.1-0.9-3.2c0.1,0.4,0.1,0.9,0.2,1.3c0.1,0.3,0.3,0.6,0.4,0.9C126.9,108.3,126.9,108.6,127,109.1z"
		/>
	<path d="M106.9,60.1c0.1-1,0.1-1.7,0.2-2.5C107.5,58.2,107.4,59.2,106.9,60.1z"/>
	<path d="M112.8,116.5c0.3-1,0.6-2,0.9-3c0.1,0,0.1,0,0.2,0.1c-0.3,1-0.6,2-0.9,3C113,116.6,112.9,116.5,112.8,116.5z"/>
	<path d="M102.8,48c0.7,0.5,1.5,0.9,2.3,1.4C104.4,49.5,103.6,49,102.8,48z"/>
	<path d="M105.9,126.4c0.6-0.5,1.2-1,1.8-1.5c0.1,0.1,0.1,0.1,0.2,0.2c-0.6,0.5-1.2,1.1-1.7,1.6C106.1,126.6,106,126.5,105.9,126.4z
		"/>
	<path d="M94.4,32.8c-0.7-0.6-1.5-1.2-2.2-1.7c0.1-0.1,0.2-0.2,0.2-0.3C93,31.5,93.7,32.2,94.4,32.8C94.4,32.9,94.4,32.8,94.4,32.8z
		"/>
	<path d="M94.3,41.2c-0.2-0.8-0.5-1.6-0.7-2.4c0.1,0,0.1,0,0.2-0.1c0.2,0.8,0.5,1.6,0.7,2.4C94.5,41.2,94.4,41.2,94.3,41.2z"/>
	<path d="M107.9,45.2c0.3,0.7,0.7,1.4,1,2.1c-0.1,0-0.1,0.1-0.2,0.1c-0.4-0.7-0.7-1.4-1.1-2.1C107.7,45.3,107.8,45.2,107.9,45.2z"/>
	<path d="M113.7,54.8c0-0.5-0.1-1-0.1-1.4c0.1,0,0.1,0,0.2,0c0.1,0.5,0.2,0.9,0.3,1.4C114,54.8,113.9,54.8,113.7,54.8z"/>
	<path d="M184,145.1c0.3-0.6,0.5-1.1,0.8-1.7c0.1,0,0.1,0.1,0.2,0.1c-0.3,0.6-0.5,1.1-0.8,1.7C184.2,145.2,184.1,145.2,184,145.1z"
		/>
	<path d="M70.2,148.9c-0.6,0.2-1.3,0.3-1.9,0.5c0-0.1-0.1-0.2-0.1-0.3c0.6-0.2,1.3-0.3,1.9-0.5C70.1,148.7,70.2,148.8,70.2,148.9z"
		/>
	<path d="M147.6,136.6c0.8-0.2,1.5-0.3,2.3-0.5c1.4-0.3,1.5-0.3,1.6-1.8c0.2,0.3,0.4,0.5,0.5,0.8c0.1,0.5,0.2,0.9,0.2,1.4
		c0,1.4,0.6,2.5,1.2,3.7c0.1,0,0.2,0,0.3-0.1c-0.2-1-0.5-2-0.7-3c0.8,1.1,1,2.3,1,3.7c0.1,0,0.2,0.1,0.2,0.1c0.5-0.5,1.1-1,1.6-1.5
		c0.1,0.1,0.1,0.1,0.2,0.2c-0.5,0.6-0.9,1.2-1.5,1.8c-1.8-0.7-3.5,0.5-5.2,0.9c0-0.1-0.1-0.2-0.1-0.2c0.9-0.5,1.9-1,2.9-1.5
		c-0.2-0.2-0.3-0.3-0.4-0.4c-0.4-0.2-0.4-0.4-0.2-0.7c0.2-0.6,0.2-1.2,0.3-2c0.7-0.5,0-1.4-0.1-2.3c0,0.6,0,1.3,0,1.8
		c-0.7-0.1-1.4-0.3-2-0.4c-0.7-0.1-1.4,0-2.1,0C147.6,136.7,147.6,136.7,147.6,136.6z"/>
	<path d="M142.4,144.2c-1.1,0.8-2.1,1.5-3,2.1C139.1,144.9,140.6,143.8,142.4,144.2z"/>
	<path d="M156.1,134c-1,0.7-2.1,1.3-3.2,2c-0.4-0.4-0.1-0.7,0.3-0.9c0.9-0.4,1.9-0.8,2.8-1.3C156,133.9,156,134,156.1,134z"/>
	<path d="M125.2,147.8c-0.6-0.2-1.2-0.3-1.8-0.5c-0.7-0.3-1.3-0.3-1.9,0c-0.8,0.4-1.6,0.7-2.4,1c0-0.1-0.1-0.1-0.1-0.2
		c0.9-0.6,1.8-1.2,2.7-1.8c0.1-0.1,0.4-0.2,0.5-0.1c1,0.4,2,0.8,3,1.1C125.3,147.6,125.3,147.7,125.2,147.8z"/>
	<path d="M120.3,13.5c0.4-0.3,0.8-0.5,1.2-0.8c0,0.4,0,0.7,0.1,1c-0.1,0-0.1,0-0.2,0c-0.1-0.1-0.2-0.3-0.3-0.4c-0.1,0-0.1,0-0.2,0.1
		c0.1,0.3,0.2,0.6,0.3,0.9c0,0-0.1,0.1-0.1,0.1C120.8,14.2,120.6,13.9,120.3,13.5z"/>
	<path d="M77,79.1c-0.1,2.4-0.1,4.8-0.3,7.2c-0.2,1.8-0.7,3.6-0.9,5.4c-0.2,1-0.1,2.1-0.2,3.1c-0.1,1.2-0.2,2.4-0.5,3.6
		c0-6.5,2.1-12.8,1.7-19.4C76.8,79.1,76.9,79.1,77,79.1z"/>
	<path d="M93.6,101.7c1.2-5.3,2.4-10.6,3.6-15.9c0.1,0,0.2,0,0.3,0.1c-1.2,5.3-2.4,10.6-3.6,15.9C93.7,101.7,93.6,101.7,93.6,101.7z
		"/>
	<path d="M75.7,121.3c-0.9-3.5-1.8-6.9-2.7-10.4c0.1,0,0.2,0,0.3-0.1c0.9,3.5,1.8,6.9,2.7,10.4C75.9,121.3,75.8,121.3,75.7,121.3z"
		/>
	<path d="M80,106.4c0.6,0,1.2-0.1,1.7,0.1c1,0.4,1.9,0.8,2.8,1.4c1.3,0.8,2.6,1.8,3.9,2.8c-2.7-1.5-5-4-8.4-4
		C80,106.6,80,106.5,80,106.4z"/>
	<path d="M82.9,80.4c1.7,2.8,3.4,5.6,5.1,8.3C87.1,88,83.2,81.8,82.9,80.4z"/>
	<path d="M79.5,118.4c-3.3-2.1-4-5.4-4.6-8.8c0.3,0.9,0.6,1.7,0.8,2.6c0.4,2,1.2,3.8,2.8,5.1C78.9,117.6,79.1,118,79.5,118.4z"/>
	<path d="M78.1,110.1c-1.8-2.3-2.9-4.9-3.4-7.8C75.5,105.1,76.6,107.7,78.1,110.1z"/>
	<path d="M90.2,70.6c-0.9,3.3-1.1,6.5-0.6,9.9C88.8,79.2,89.2,71.8,90.2,70.6z"/>
	<path d="M88.7,80c-0.4-1.9-0.8-3.8-1.2-5.7c-0.1-0.3,0-0.5,0.1-0.8c0.5,2.2,0.9,4.4,1.4,6.5C88.9,80,88.8,80,88.7,80z"/>
	<path d="M88.9,103.1c0-0.3,0-0.4,0.1-0.5c0.1,0,0.1,0,0.2,0c0.1,0.6,0.2,1.3,0.3,2.1c0.1-0.3,0.2-0.5,0.3-0.7
		c0.1,0.5,0.6,1.1-0.3,1.4c-0.4-1-0.7-2-1.1-3c0.1,0,0.1,0,0.2-0.1C88.7,102.5,88.8,102.7,88.9,103.1z"/>
	<path d="M81.2,112.7c-0.8-0.6-1.7-1.2-2.5-1.8c0-0.1,0.1-0.1,0.1-0.2c0.8,0.6,1.7,1.1,2.5,1.7C81.3,112.5,81.2,112.6,81.2,112.7z"
		/>
	<path d="M159.9,111.1c-0.9,0.1-1.3-0.9-2.2-0.6c-0.4-0.3-0.8-0.6-1.2-1c-1-0.8-2-1.6-3.1-2.3c-0.2-0.2-0.6-0.1-0.9-0.1
		c0,0.1-0.1,0.2-0.1,0.3c-0.2-0.2-0.3-0.4-0.6-0.8c0.2,0,0.3,0.1,0.5,0.1c-0.1-0.3-0.2-0.5-0.3-0.8c0.2,0.1,0.4,0.1,0.8,0.3
		c-1-2.9-1.5-5.7-1.4-8.5c0.2,1.4,0.4,2.8,0.6,4.2c0,0.3,0.2,0.5,0.4,0.7c-0.1,3.1,1.3,5.2,4.2,6.7
		C157.7,109.8,158.8,110.5,159.9,111.1z"/>
	<path d="M167.3,138.7c1.2-6.4,1.5-12.9-0.2-19.3C168.7,122.2,169.2,133.3,167.3,138.7z"/>
	<path d="M138.6,62.8c0.3,0.1,0.5,0.1,0.6,0.1c0.1-1.6,0.1-3.1,0.2-4.6c0.1,0,0.1,0,0.2,0c0,1.2,0,2.4,0,3.7c0,1.2,0,2.4,0,3.7
		C138.8,64.9,139.4,63.7,138.6,62.8z"/>
	<path d="M155.1,69.2c-0.3,1.6-0.6,3.3-0.9,4.9c-0.1,0-0.1,0-0.2,0C154.1,72.3,154.2,70.6,155.1,69.2z"/>
	<path d="M142.1,72.5c-0.6-1.7-1.3-3.3-1.9-5c0.1,0,0.2-0.1,0.3-0.1c0.6,1.7,1.2,3.4,1.8,5.1C142.2,72.5,142.1,72.5,142.1,72.5z"/>
	<path d="M152.6,79.6c0.7,0.8,1.4,1.6,1.4,2.7C153.3,81.7,152.5,80.3,152.6,79.6z"/>
	<path d="M144.8,78.4c-0.7-1.6-1.5-3.2-2.2-4.8c0.1,0,0.2-0.1,0.2-0.1c0.7,1.6,1.4,3.2,2.1,4.8C144.9,78.3,144.9,78.4,144.8,78.4z"
		/>
	<path d="M150.7,94c0.5,0.5,0.5,1,0,1.5C149.9,95,149.9,94.4,150.7,94z"/>
	<path d="M154.4,95.2c-0.2,0.9-0.3,1.9-0.5,2.9c-0.8-0.6,0.1-1,0-1.5c-0.1-0.5,0.1-1,0.2-1.5C154.1,95.2,154.3,95.2,154.4,95.2z"/>
	<path d="M161.3,113.1c0.6,0.3,1.2,0.6,1.8,0.9C162.4,114.5,161.8,114.2,161.3,113.1z"/>
	<path d="M147.7,84c0.2,0.4,0.3,0.8,0.4,1.1c-0.2,0-0.5,0.2-0.6,0.1C147.1,84.9,147.1,84.6,147.7,84z"/>
	<path d="M134.5,54.3c0.3,0.7,0.1,1.2-0.4,1.4c-0.2,0.1-0.4-0.2-0.7-0.4c0-0.1,0.1-0.1,0.1-0.2c0.1,0.1,0.1,0.2,0.2,0.3
		C134,55,134.2,54.7,134.5,54.3z"/>
	<path d="M152.3,101.9c0-0.7,0-1.3,0-2c0.1,0,0.1,0,0.2,0c0,0.6,0,1.3,0,1.9C152.4,101.9,152.4,101.9,152.3,101.9z"/>
	<path d="M138.8,64.3c0,0.4,0,0.9,0.1,1.3c-0.1,0-0.2,0-0.3,0c0-0.4-0.1-0.9-0.1-1.3C138.6,64.3,138.7,64.3,138.8,64.3z"/>
	<path d="M216.1,48.1c-0.3-0.2-0.6-0.3-0.8-0.4c-0.9-0.1-1.6-0.2-2.5-0.3c1.5-0.7,2.6-0.6,3.3,0.5C216.2,48,216.2,48.1,216.1,48.1z"
		/>
	<path d="M151.5,26.9c1-0.1,1.9-0.1,2.9-0.2c0,0.1,0,0.1,0,0.2c-1,0.1-2,0.2-2.9,0.3C151.5,27,151.5,27,151.5,26.9z"/>
	<path d="M137.9,102c-0.2,1-0.4,1.9-0.7,2.9c0,0.1-0.3,0.1-0.5,0.1c0,0.1-0.1,0.3-0.3,0.6c0.2,0,0.4,0.1,0.6,0.1
		c0,0.1,0,0.1,0.1,0.2c-0.2,0.1-0.4,0.2-0.6,0.2c-0.5-0.1-0.7-0.1-0.4,0.5c0.1,0.1,0,0.3,0,0.4c-0.8,0.6-0.4,1.5-0.5,2.3
		c-0.1,0.4-0.1,0.8-0.2,1.2c0-1.9-0.4-3.8,0.7-5.5c0.1-0.2,0.3-0.5,0.4-0.8c0.3-0.9,1.3-1.3,1.3-2.3C137.8,102,137.8,102,137.9,102z
		"/>
	<path d="M139.3,102.9c0.3-0.4,0.5-0.6,0.7-0.9c0,0,0.1,0.1,0.1,0.1c-0.7,0.9-1.3,1.9-2,2.8c-0.1,0-0.1,0-0.2,0
		c0.1-0.4,0.1-0.9,0.2-1.3c0.2,0,0.5-0.1,0.5-0.1c0-0.3,0-0.6-0.1-0.9c-0.3-0.9-0.6-1.8-0.9-2.6c0.1,0,0.2-0.1,0.3-0.1
		C138.3,100.8,138.8,101.8,139.3,102.9z"/>
	<path d="M130.9,84.5c3.6,1.1,7.2,2.3,10.8,3.4c0,0.1,0,0.1-0.1,0.2c-3.6-1.1-7.2-2.3-10.8-3.4C130.9,84.7,130.9,84.6,130.9,84.5z"
		/>
	<path d="M132.6,59.2c-0.8,0.5-1.6,1-2.3,1.6c0-0.1-0.1-0.1-0.1-0.2c0.4-0.4,0.8-0.7,1.2-1.1c0,0-0.1-0.1-0.1-0.1
		c-0.1,0.1-0.3,0.1-0.4,0.2c-0.1-0.1-0.2-0.2-0.2-0.3c0.5-0.3,1-0.6,1.6-0.8c-0.1-0.1-0.1-0.2-0.2-0.2c0.2,0.1,0.5,0.2,0.8,0.4
		c-0.3,0.2-0.6,0.4-0.9,0.6c0,0,0,0.1,0,0.1c0.3-0.1,0.6-0.1,0.8-0.2C132.6,59.1,132.6,59.2,132.6,59.2z"/>
	<path d="M127.7,92.8c0-1.5,0-2.9,0-4.5C128.3,88.8,128.3,91.5,127.7,92.8z"/>
	<path d="M128,55.5c-0.4,0.8-0.7,1.6-1.2,2.4c-0.2,0.3-0.7,0.4-1.1,0.5c-0.1,0-0.2-0.2-0.3-0.4c0.1-0.1,0.2-0.3,0.3-0.3
		c0.7,0.1,0.9-0.4,1.2-0.8c0.3-0.5,0.6-1,0.9-1.4C127.9,55.5,128,55.5,128,55.5z"/>
	<path d="M128.6,94.2c-0.2-0.2-0.3-0.3-0.4-0.3c0-0.1,0.1-0.1,0.1-0.2c1,0.4,2,0.9,3,1.3c0,0.1,0,0.1-0.1,0.2
		c-1.2-0.6-2.4-0.8-3.7-0.5c0-0.1-0.1-0.3-0.1-0.6C127.8,94.2,128.1,94.2,128.6,94.2z"/>
	<path d="M130.6,52c0.4-1.2,0.7-2.3,1.1-3.5c0.4,0.3,0.3,0.6,0.1,1c-0.1,0.1-0.3,0.3-0.2,0.4C131.9,50.9,130.9,51.3,130.6,52z"/>
	<path d="M127.9,80.5c0.6,1,1.3,1.9,2,3c-1.2-0.8-1.6-1.9-2.2-2.9C127.7,80.6,127.8,80.6,127.9,80.5z"/>
	<path d="M132.1,105.2c-0.7-0.3-1.5-0.6-2.2-0.9c0-0.1,0.1-0.2,0.1-0.3c0.7,0.3,1.5,0.6,2.2,0.9C132.2,105,132.2,105.1,132.1,105.2z
		"/>
	<path d="M137.6,97.8c0.6,0.3,0.6,0.3,0.3,1.6c-0.1,0-0.1,0-0.2,0C137.7,98.9,137.6,98.4,137.6,97.8z"/>
	<path d="M143.3,89c-0.5,0.6-0.9,1.2-1.5,1.9C142.2,89.5,142.5,89.2,143.3,89z"/>
	<path d="M126.4,80.1c0.3,0.9-0.3,1.3-0.5,1.9c-0.1,0-0.2-0.1-0.3-0.1C125.9,81.3,126.1,80.8,126.4,80.1z"/>
	<path d="M124.8,85c-0.4-0.1-0.9-0.3-1.3-0.4c0-0.1,0.1-0.2,0.1-0.3c0.5-0.2,1-0.1,1.3,0.4C124.9,84.8,124.9,84.9,124.8,85z"/>
	<path d="M138,96.8c-0.1,0.1-0.3,0.2-0.5,0.4c0.2,0.1,0.4,0.2,0.6,0.3c0,0.1,0,0.1-0.1,0.2c-0.3-0.1-0.7-0.2-1-0.4
		c-0.1,0-0.1-0.3,0-0.3c0.3-0.1,0.6-0.2,0.9-0.3C138,96.6,138,96.7,138,96.8z"/>
	<path d="M127.6,97.4c-0.7-0.8,0.2-1.4,0.1-2c0.1,0,0.2,0,0.2,0C127.8,96.1,127.7,96.7,127.6,97.4z"/>
	<path d="M127.3,79.6c0-0.5-0.1-1.1-0.1-1.6c0.1,0,0.2,0,0.3,0c0,0.5,0.1,1.1,0.1,1.6C127.5,79.5,127.4,79.6,127.3,79.6z"/>
	<path d="M126,64.4c0.4-0.1,0.8-0.2,1.2-0.3c0,0.1,0.1,0.2,0.1,0.3c-0.4,0.1-0.8,0.3-1.2,0.4C126.1,64.7,126.1,64.5,126,64.4z"/>
	<path d="M146.6,121.5c0.3-0.6,0.7-1.2,1-1.9c0.1,0,0.1,0.1,0.2,0.1c-0.3,0.6-0.6,1.2-1,1.9C146.7,121.6,146.6,121.5,146.6,121.5z"
		/>
	<ellipse cx="145.3" cy="97.1" rx="0.1" ry="1"/>
	<path d="M165,84.3c1.7-1.5,2.9-3.3,3.4-5.5C168.4,81.3,166.9,82.9,165,84.3z"/>
	<path d="M160.5,79.2c2.6-0.7,3.3-3,4.4-5.1C164.9,76.2,162.1,79.3,160.5,79.2z"/>
	<path d="M164.1,84.7c-1.2-0.3-2.4-0.6-3.7-0.9c0-0.1,0-0.2,0.1-0.3c1.2,0.3,2.4,0.6,3.6,0.9C164.1,84.5,164.1,84.6,164.1,84.7z"/>
	<path d="M134.5,16.7c1.3,0.2,1.6,1.6,2.6,2.2c-0.1,0.1-0.1,0.1-0.2,0.2c-0.9-0.8-1.7-1.5-2.6-2.3C134.5,16.8,134.5,16.8,134.5,16.7
		z"/>
	<path d="M127.9,14.2c0.4-0.4,0.8-0.9,1.3-1.4c0.3,0.2,0.6,0.4,0.9,0.6C129.4,13.6,128.6,13.9,127.9,14.2z"/>
	<path d="M127.8,9.5c0.8-0.3,1.6-0.6,2.6-1C129.6,9.5,128.8,9.6,127.8,9.5z"/>
	<path d="M126.8,10.9c-0.2-0.1-0.4-0.2-0.9-0.4c0.4-0.3,0.7-0.5,1.1-0.8C126.9,10.2,126.8,10.5,126.8,10.9z"/>
	<path d="M108.9,71.5c0.4,2.1,0.9,4.3,1.3,6.5C109.5,76.7,108.6,72.4,108.9,71.5z"/>
	<path d="M97.6,115.4c2.1-0.5,3.9,0.5,5.6,1.5c0,0.1,0,0.1-0.1,0.2c-0.9-0.4-1.8-0.9-2.7-1.2C99.5,115.6,98.5,115.6,97.6,115.4z"/>
	<path d="M99.2,113.1c1.3,0.3,2.7,0.5,4,0.8c0,0.1,0,0.2-0.1,0.3c-1.3-0.3-2.7-0.6-4-0.9C99.2,113.2,99.2,113.2,99.2,113.1z"/>
	<path d="M82.2,59.8c-0.2,0.8-0.5,1.6-0.7,2.4c-0.1,0-0.1,0-0.2-0.1c0.2-0.8,0.5-1.6,0.7-2.4C82.1,59.7,82.2,59.8,82.2,59.8z"/>
	<path d="M116.6,40.8c-0.3-0.7-0.5-1.4-0.8-2.1c0.1,0,0.2-0.1,0.2-0.1c0.2,0.7,0.5,1.4,0.7,2.1C116.7,40.7,116.6,40.7,116.6,40.8z"
		/>
	<path d="M174.3,100.2c0.6-0.5,1.2-1.1,1.9-1.7c-0.3,1-1.1,1.3-1.8,1.9C174.4,100.3,174.3,100.2,174.3,100.2z"/>
	<path d="M134.3,34.1c0-0.4-0.1-0.7-0.1-1.1c0-1.4,0-2.9,0.1-4.3C134.6,30.5,134.4,32.3,134.3,34.1z"/>
	<path d="M120.5,25c0.6-0.1,1.4,0.1,1.1-0.9c-0.2-0.7-0.8-1.1-1.4-0.9c-0.2-0.4,0-0.6,0.4-0.5c0.9,0.1,1.7,1.6,1.4,2.4
		C121.9,25.5,121.1,25.5,120.5,25z"/>
</g>
</svg>
