<?xml version="1.0" encoding="utf-8"?>
<!-- Generator: Adobe Illustrator 24.0.2, SVG Export Plug-In . SVG Version: 6.00 Build 0)  -->
<svg version="1.1" id="Слой_1" xmlns="http://www.w3.org/2000/svg" xmlns:xlink="http://www.w3.org/1999/xlink" x="0px" y="0px"
	 viewBox="0 0 238.1 150.2" style="enable-background:new 0 0 238.1 150.2;" xml:space="preserve">
<g>
	<path d="M207.1,59.9c-3.3,1.6-7,0.5-7.4-1.5c-0.9,0.2-1.2,0.9-0.6,1.6c0.3,0.3,0.6,0.7,0.9,1c0.7,0.7,1.4,1.4,2.2,2.1
		c-0.1-0.3-0.1-0.5-0.3-1c0.6,0.7,1,1.2,1.5,1.7c0,0,0,0,0,0c1.2,0.4,1.8,1.1,1.5,1.9c0.5,0.2,1,0.4,1.5,0.5c0,0.1,0,0.2-0.1,0.3
		c-2,0.5-4,0.9-6.1,1.4c0.5,1.2,1.1,1.3,2.1,1c1-0.3,2.2-0.1,3.2-0.3c0.5-0.1,1.2-0.2,1.5-0.6c0.5-0.8,1-0.5,1.6-0.4
		c0.3,0,0.6-0.1,1-0.3c2.5,0.5,4.5,1.9,6.4,3.5c-0.1,0.1-0.2,0.3-0.3,0.4c-0.5-0.3-1.1-0.7-1.7-1.1c0.1,0.3,0.2,0.4,0.3,0.6
		c0.7,0.9,1.3,1.8,1.3,3.1c0,1.3,0.7,2.6,1,4c0.2,0.7,0.2,1.4,0.2,2.1c0,0.5-0.2,0.8-0.8,0.5c0.8-0.5,0.8-1.9-0.2-2.9
		c0.1,1,0.1,1.9,0.2,2.9c-0.1,0.3-0.3,0.5-0.3,0.8c0.1,1.2,0.2,2.4,0.4,3.9c0.2-0.9,0.3-1.6,0.4-2.2c0.1,0,0.2,0,0.3,0
		c-0.2,1.3-0.4,2.6-0.7,3.9c0.1,0,0.1,0,0.2,0.1c0.3-1.1,0.6-2.2,0.9-3.4c0.1,0,0.1,0,0.2,0c-0.2,1-0.5,1.9-0.7,2.9
		c-0.5,2.7-1,5.5-1.6,8.2c-0.2,0.9-0.5,1.8-0.9,2.6c-0.8,1.5-1,3.2-1.3,4.9c-0.1,0.9,0.4,1.9,0.4,2.9c0,1.1-0.1,2.3-0.1,3.5
		c0,0.2,0,0.4-0.1,0.8c0.2-0.2,0.3-0.3,0.4-0.4c0.4-1.5,1.2-3,0.9-4.7c-0.2-1.2,0.2-2.2,0.9-3.2c0.5-0.7,0.7-1.7,1.3-2.1
		c1.1-0.7,1-1.8,1.4-2.7c0.1-0.2,0.1-0.5,0.3-0.7c0,0.3-0.1,0.7-0.1,1c-0.4,2-1.1,4-1,6c0.1,2-0.6,3.7-0.8,5.6
		c-0.2,1.9-0.7,3.8-1,5.7c-0.1,0.6-0.1,1.2-0.2,1.8c-0.1,1.1-0.1,2.2-0.5,3.4c-0.1-0.2-0.3-0.4-0.4-0.6c-0.1,0-0.1,0-0.2,0
		c0.1,0.8,0.2,1.5,0.3,2.3c0,0.3,0,0.6-0.1,1.1c-0.9-1.1-1.6-2-2.3-3c-0.7-0.9-1.3-1.8-2-2.6c-0.1,0.1-0.2,0.1-0.3,0.2
		c0-0.8,0-1.7,0-2.5c-0.1-0.1-0.2-0.1-0.3-0.2c-0.1,0.2-0.2,0.3-0.2,0.5c-0.7,1.8-1.8,3.5-1.2,5.6c0.2,0.6,0.3,1.2,0.7,1.6
		c1.6,1.8,1.9,3.9,1.8,6.2c0,0.9,0.2,1.7,0.2,2.6c0,0.5,0,1-0.1,1.5c-0.3,1.4-0.7,2.9-1.1,4.4c0-0.3,0-0.6-0.1-1.1
		c-1.5,1.7-2.8,3.2-5,3.9c0.1-0.3,0.2-0.4,0.2-0.5c-5.5,0-11.1,0-17,0c1.6-0.2,2.9-0.4,4.3-0.6c0-0.1,0-0.2,0-0.3
		c-1.9-0.6-4-0.9-6-0.9c-2,0-4,0.2-5.9,0.3c-0.3,0.6-0.5,0.9-0.7,1.3c-0.1,0-0.1,0-0.2-0.1c0.1-0.3,0.1-0.7,0.2-1
		c-1.1-0.4-1.1-0.4-1.6,1.5c0.3,0,0.6-0.1,1.1-0.1c-0.4,0.4-0.6,0.5-0.8,0.7c0,0,0.1,0.1,0.1,0.1c0.4-0.3,0.9-0.5,1.3-0.8
		c-0.9,0.8-1.2,2.1-2.6,2.4c-1.7,0.4-3.3,1.2-5.1,1.4c-1.3,0.2-2.7-0.2-4-0.6c-1.4-0.5-2.8-0.4-4.2-0.2c-0.5,0.1-1.1,0.1-1.6-0.1
		c-0.8-0.2-1.6-0.6-2.3-0.9c-1.8-0.9-3.3-0.3-5,0.5c-0.7,0.4-1.8,0.1-2.8,0.1c0.1-1.7-1-2.3-2.4-2.7c-2.5-0.7-5-0.9-7.5-0.4
		c-0.4,0.1-0.7,0-1.1-0.2c0.9-0.3,1.9-0.5,2.7-1c0.8-0.5,1.4-1.4,2-2.2c-0.4,0.3-0.8,0.6-1.3,0.8c0-0.1-0.1-0.1-0.1-0.2
		c0.3-0.2,0.5-0.5,0.8-0.7c2-1.6,3.9-3.2,5.9-4.8c0.3-0.3,0.4-0.8,0.6-1.3c0.2-0.5,0.3-1.1,0.4-1.7c0.1,0,0.2,0,0.3,0.1
		c0,0.5,0,1,0,1.6c0.6,0,1.5-1,1.7,0.4c0.5-0.2,0.9-0.3,1.5-0.5c-0.4,0.3-0.6,0.6-0.9,0.8c0,0.1,0.1,0.2,0.1,0.3
		c1.8,0.1,3.2-0.9,4.7-1.6c1.6-0.7,3.1-1.9,4.8-3c-0.1,0.8-0.1,1.6-0.2,2.4c0.1,0,0.1,0.1,0.2,0.1c0.3-0.5,0.7-1.1,1-1.6
		c0.1,0,0.2,0,0.3,0.1c0,0.8-0.1,1.6-0.1,2.3c0.1,0,0.2,0.1,0.2,0.1c0.4-0.9,0.7-1.8,1.1-2.7c0.2-0.4,0.4-0.8,0.7-1.1
		c0.8-0.8,1.7-1.5,2.4-2.3c0.8-0.9,1.4-1,2.4,0c0.8-1,1.5-2,2.2-3.1c2.1-3.3,4.1-6.6,6.1-9.9c0.4-0.7,0.6-1.5,1-2.2
		c0.4-0.7,0.9-1.2,1.4-1.8c0.1,0.1,0.2,0.1,0.3,0.2c0,0.5-0.1,1-0.1,1.5c0.1,0,0.1,0,0.2,0.1c0.5-1.1,1.1-2.3,1.6-3.4
		c0.1,0,0.2,0.1,0.3,0.1c1.4,3.6,2.8,7.2,2.5,11.2c-0.1,0.9,0.1,1.8,0.1,2.7c0,1.6-0.1,3.2-0.2,4.8c-0.3,2.5,0.3,5.1,0.6,7.7
		c0.1,0.5,0.5,1,0.8,1.4c1.4,1.8,2.9,3.6,4.3,5.3c0.3,0.3,0.8,0.4,1.2,0.5c0.5,0.2,1.1,0.3,1.9,0.5c-0.3-0.7-0.4-1.3-0.8-1.6
		c-0.9-1-1.9-2.2-3-3c-1.6-1.1-2.2-2.5-2.3-4.3c-0.2-3.6-0.4-7.1-0.6-10.7c-0.3-4.5-1.2-9-2.4-13.4c-0.5-1.9-1.6-3.5-3-4.9
		c-1-0.9-2-1.9-2.6-3.1c-0.7-1.4-1.7-2.5-2.7-3.9c0.5-0.6,1.2-0.9,2.1-0.4c1.3,0.6,2.7,0.2,3.5-0.9c0.1-0.1,0.2-0.3,0.3-0.4
		c1.4-1.5,1-3.1,0.5-4.7c0-0.1-0.2-0.2-0.2-0.3c0.1-2.5-1.7-3.6-3.3-5c-0.3-0.3-0.6-0.6-0.9-1c1-0.4,0.7-1.3,0.8-2
		c0.1-0.6,0.1-1.2,0.2-1.7c0.1-0.8,0.4-1.7,0.4-2.5c0-0.3-0.4-0.7-0.7-1.2c-0.5,1.2-0.9,2.1-2.2,1.9c-1-0.1-1.2-0.9-1.3-1.8
		c-1.2,0.4-1.7,2-1,3.1c0.2,0.3,0.5,0.7,0.7,1c0.2,0.3,0.3,0.7,0.4,1.1c-0.5,0-1-0.1-1.4,0c-1.2,0.2-1.6,1.2-2.2,2.1
		c-0.6,0.9-1.2,1.8-1.7,2.7c-0.3,0.5-0.5,1.2-0.4,1.7c0.4,1.8,0.6,3.6,2,5c0.2,0.2,0.1,0.8,0.2,1.2c0.2,0.6,0.4,1.3,0.7,1.8
		c0.6,0.9,1.2,1.7,1.9,2.5c1.6,2,2.2,4.2,1.2,6.8c-0.1,0.3-0.1,0.8-0.1,1.1c0,1.6-0.7,2.8-1.7,4c-2.3,2.9-4.7,5.7-6.7,8.8
		c-1.6,2.4-2.7,5.2-4,7.9c-0.1,0.3-0.3,0.5-0.5,0.7c0.5-2.6,1.1-5.2,1.7-7.9c-1.2,0.2-1.8,1-2,1.8c-0.3,0.9-0.5,1.9-0.4,2.8
		c0.1,1.1-0.2,1.7-1,2.2c-1,0.6-2,1.2-2.8,1.9c-0.6,0.6-1.3,0.7-1.9,1.1c-0.7,0.5-1.4,0.9-2.1,1.3c-0.1,0.1-0.3,0.1-0.5,0.1
		c-0.1-0.1-0.2-0.2-0.2-0.3c0.5-0.5,1.1-1,1.5-1.6c0.4-0.6,0.7-1.4,1.1-2c-0.1-0.1-0.2-0.1-0.3-0.2c-1.1,1-2.3,2-3.4,3
		c0,0-0.1-0.1-0.1-0.2c0.2-2.3,0.4-4.6,0.7-6.9c0.2-1.5,0.6-3,1.1-4.4c0.9-2.7,2-5.3,3-8c1.6-4.5,3.1-8.9,4.7-13.4
		c0.4-1.2,0.8-2.4,1.1-3.6c0.3-1.3,0-1.6-1.2-2c-2.2-0.6-4.3-1.4-6.5-2c-2.5-0.7-5.1-1.3-7.7-2c0.2,0.3,0.4,0.7,0.8,1.3
		c-0.6-0.1-1-0.2-1.4-0.3c-0.1,1,0.6,1.7,1.2,2.2c0.8,0.7,1.7,1.3,2.6,1.9c0.4,0.2,1,0.3,1.5,0.3c2.2,0,4.5,0,6.7,0
		c0.6,0,1.3-0.1,1.8-0.2c-0.1,0.4-0.2,0.7-0.1,0.9c0.3,0.8,0.1,1.4-0.3,2c-0.1,0.2-0.2,0.5-0.2,0.7c-0.3,1.7-0.6,3.3-1.6,4.8
		c-0.4,0.6-0.2,1.6-0.4,2.4c-0.1,0.6-0.1,1.2-0.4,1.7c-2.7,3.7-3.6,8.1-4.9,12.3c-0.8,2.5-1.5,5.1-2.1,7.7c-0.2,0.8-0.2,1.6-0.2,2.4
		c-0.1,0-0.2,0-0.3,0c-0.1-0.2-0.2-0.4-0.2-0.6c0.1-1.1,0.2-2.2,0.2-3.3c0-0.5,0.1-1,0-1.4c-0.2-1.1-0.4-2.1-0.6-3.2
		c-0.2-1-0.5-1.9-0.6-2.9c-0.2-1.5-0.5-3-0.5-4.5c-0.1-2.3,0-4.6,0-6.8c0-0.3-0.1-0.5-0.1-0.8l0,0c0.1-0.1,0.2-0.1,0.4-0.2
		c0.1,0.7,0.3,1.4,0.4,2.1c0.1,0,0.2,0,0.2,0c0-0.4,0-0.8,0-1.1c0.1-1.6,0.3-3.2,0.4-4.8c0-0.4,0-0.9,0-1.3c0-0.3-0.1-0.7-0.2-1
		c0.1-0.1,0.2-0.1,0.3-0.2c-0.6-0.1-1.2-0.2-1.9-0.4c0-0.1-0.1-0.4-0.1-0.6c0.5,0,0.9,0,1.4-0.1c0-0.1,0-0.2,0-0.3
		c-0.8-0.3-1.6-0.6-2.3-0.9c0.1-0.1,0.1-0.1,0.2-0.2c-0.3-0.3-0.5-0.7-0.9-1c-0.8-0.5-1.8-0.9-2.6-1.5c-1.3-0.9-1.8-2.5-1.3-3.9
		c0.3-0.9,0.8-1.8,1.3-2.6c1-1.6,2-3.1,3.1-4.7c0.2-0.3,0.5-0.6,0.7-0.9c0.5-0.5,1.1-0.9,1.4-1.5c1-2.3,3.1-3.3,5.3-3.9
		c1.3-0.4,2.1-1.1,2.9-2c0.5-0.5,1-0.9,1.7-1.3c-1.4,1.2-1,2.8-0.8,4.3c0.1,0.5,0.1,0.8-0.5,1c-1.3,0.6-1.4,1.2-0.7,2.5
		c0.6,1.4,1.1,2.9,1.7,4.3c-0.3,0-0.8,0.1-1.4,0.1c0,0.7,0.1,1.2,0.9,1c0.2,0,0.4-0.1,0.5-0.1c1.3,1.1,2.8,0.5,4.2,0.8
		c0.7,0.1,1.4-0.1,2.1-0.2c0.4-0.1,0.9-0.1,1.3-0.2c-0.2-2-1.6-3.3-2.7-4.7c-0.5-0.7-1.1-1.2-1.7-1.9c-0.2-0.3-0.3-0.6-0.2-1.1
		c-0.3-0.1-0.6-0.2-1-0.4c0.2-0.1,0.3-0.1,0.3-0.1c1.7,0.3,3.4,0.6,5.1,0.9c0.2,0,0.5,0.1,0.7,0.1c0.4,0,0.8-0.2,1.2-0.2
		c-0.3-0.1-0.7-0.3-1-0.4c-1.5-0.7-2.4-1.8-3.1-3.6c0.9,0,1.6,0,2.4,0c0.9,0,2,0,2.4-0.9c0.1-0.4-0.8-1.2-1.3-1.8
		c-1.4-1.7-3.3-1.6-5.3-1.4c-0.8,0.1-1.7,0.3-2.5,0.5c0,0.1,0,0,0,0c0.7-0.7,1.6-1,2.2-1.8c0.6-0.7,1.9-1,3-1.3
		c1.4-0.3,2.8-0.5,4.3-0.7c1.3-0.1,2.6,0,3.7,0c0,0-0.1,0.1-0.3,0.1c0,0.1,0.1,0.2,0.1,0.3c1-0.3,2.1-0.5,3.1-0.8
		c0,0.1,0.1,0.2,0.1,0.2c-0.1,0.2-0.3,0.3-0.4,0.5c-0.8,1-0.5,2,0.6,2.7c0.6,0.4,1.1,0.8,1.4,1.1c0,0.6,0,1,0,1.4
		c0.2-0.1,0.6,0,0.7-0.2c0.3-0.4,0.6-0.7,0-1.2c-0.5-0.5-0.9-1.1-1.2-1.8c-0.2-0.4-0.2-1.1,0.1-1.5c0.5-0.8,1.1-1.5,1-2.5
		c0-0.3,0.4-0.7,0.6-1.2c0.1,0.4,0.2,0.5,0.2,0.7c0.1,0,0.2,0,0.2-0.1c-0.3-1.3-0.7-2.6-1-4c-0.4,0.2-0.8,0.3-1.2,0.5
		c-0.2,0.1-0.6,0.2-0.6,0.4c-0.1,0.7-0.4,1.1-1.2,1c-0.5-0.1-1-0.1-1.5-0.1c-0.4-0.1-0.9-0.1-1.2-0.3c-1.1-0.8-1.2-1.4-0.6-2.7
		c0.2-0.5,0.5-1,0.9-1.7c-1.5,0.6-2.9,1.1-4.2,1.6c0.1,0.1,0.1,0.2,0.1,0.2c0.7,0.3,1.7,0.3,1.8,1.3c0.2,1-0.6,1.7-1.3,2.1
		c-1.2,0.8-2.5,1.4-3.7,2c-0.5,0.3-1,0.1-0.8-0.7c0.1-0.5,0.2-1,0.4-1.7c-1.3,0.5-2.3,1.3-3,2.5c-0.7,1.3-1.7,2.4-2.6,3.5
		c-0.2,0.3-0.6,0.4-1.1,0.6c-0.1-0.5-0.1-0.8-0.3-1.5c0.4,0.4,0.5,0.6,0.7,0.7c1.3-1.1,2.3-2.4,3.2-3.9c0.5-1,1.8-1.6,2.8-2.3
		c0.2-0.1,0.6,0,0.8,0.2c0.1,0.1,0,0.5-0.1,0.8c-0.1,0.5-0.3,0.9-0.5,1.4c0.1,0.1,0.1,0.2,0.2,0.2c1.4-0.8,2.8-1.6,4.1-2.5
		c0.4-0.2,0.8-1.1,0.6-1.3c-0.3-0.4-0.9-0.6-1.4-0.9c-0.1-0.1-0.3,0-0.4,0c-0.6,0-1.1-0.1-0.6-0.9c-1-0.2-1.9-0.4-2.8-0.6
		c0,0,0-0.1,0-0.1c0.7,0,1.3,0,2.2,0c-0.3-0.4-0.6-0.7-0.8-1c-1.4,0.8-2.9,1.5-4.3,2.3c-0.3,0.2-0.3,0.9-0.4,1.3
		c-0.1,0.4-0.1,0.9-0.1,1.3c-0.4-0.2-0.8-0.4-1.1-0.7c-0.3-0.2-0.4-0.5-0.7-0.8c-1,0.5-1.9,1-3,1.5c1.2,1.6,2.3,3.1,2.4,5.4
		c-0.4-0.6-0.7-1-1-1.4c-0.9,0.2-1.9,0.2-2.1,1.6c0.7,0,1.3,0,1.9,0c-0.7,0.3-1.6,0.9-2.1,0c-0.2-0.3,0.5-1.2,0.7-1.9
		c-1.3-0.4-1.9,1.1-3,1.5c1.4,1.7,0.7,3.1-0.6,4.3c-1.2,1.2-2.7,2.2-4.1,3.1c-0.5,0.3-1.2,0.5-1.8,0.5c-1.1,0-1.5-0.5-2-2.2
		c-0.3,1-0.5,1.8-0.8,2.4c-0.7,1.4-1.5,2.8-2.4,4.1c-0.4,0.7-0.6,1.2-0.2,2c0.3,0.6,0.2,1.4,0,2c-0.3,0.9-0.9,1.6-1.4,2.4
		c-0.4,0.7-0.4,1.4,0,2.2c0.9,1.7,0.9,3-0.1,3.9c-1.3,1.1-3.2,1.3-4.6,0c-1.1-1.1-1.9-2.6-2.8-3.9c-0.3-0.4-0.4-0.9-0.6-1.3
		c-0.1,0-0.2,0-0.3,0c-0.2,1.5-0.5,2.9-0.7,4.4c-0.3,2.8-0.2,5.6,0.6,8.3c0.2,0.6,0.5,1.2,0.8,1.7c0.6,0.9,1.5,1.3,2.5,1
		c0.9-0.3,1.8-0.7,2.7-1.1c2-0.9,3-0.4,3.2,1.8c0,0.7-0.1,1.4,0,2.1c0.1,0.8,0.3,1.6,0.7,2.3c0.7,1.2,0.7,3.6-0.2,4.6
		c-0.7,0.8-1.4,1.5-2.2,2.2c-0.7,0.5-0.9,1-0.7,1.8c0.1,0.3,0.1,0.7,0.2,1c0.2,1.6,0,1.9-1.6,2.3c-1.5,0.4-2,1-1.3,2.4
		c0.7,1.4,1.8,2.6,2.6,3.9c0.2,0.4,0.4,0.8,0.6,1.1c-0.4,0.1-0.8,0.3-1.3,0.3c-2.5-0.2-5-0.2-7.3,0.9c-1.8,0.9-3.1,2.2-4,4.3
		c2-0.9,3.9-1,5.6-0.1c1.8,0.9,2.8,2.2,2.7,4.4c0,0.4,0.4,0.9,0.4,1.4c0,0.7,0.1,1.6-0.3,2c-0.3,0.4-1.2,0.4-1.9,0.3
		c-0.8-0.1-1.5-0.5-2.3-0.7c-1.1-0.3-1.6,0-1.8,1.1c-0.2,0.8-0.3,1.7-0.4,2.6c-0.2,1.3-0.6,1.6-1.9,1.7c-1.1,0.1-2.3,0.2-3.4,0.3
		c-0.9,0.1-1.7,0.9-1.5,1.9c0.1,0.3,0.6,0.6,0.9,0.6c1.7,0,3.3-0.3,5-0.2c2,0.1,4.1,0.2,6.1,0.5c1.1,0.2,2,0.7,2.4,1.9
		c0,0.2,0.4,0.4,0.6,0.4c6.1-0.5,12,0.8,18.1,0.9c3,0.1,6.1,0.2,9.1,0.3c0.5,0,1,0.3,1.6,0.4c0.9,0.2,1.8,0.3,2.7,0.6
		c-0.7,0-1.5,0.2-2.1,0c-2.2-0.9-4.4-1-6.6-0.9c-5.8,0.1-11.6-0.6-17.3-0.9c-1.8-0.1-3.5,0.1-5.3,0c-0.4,0-0.9-0.3-1-0.6
		c-0.3-1.1-1.2-1.5-2.2-1.7c-2.9-0.8-5.8-0.5-8.7-0.3c-0.6,0-1.2,0.1-1.9,0.1c-0.8,0-1.6,0.1-1.7-1c-0.1-1,0.7-2.2,1.5-2.3
		c1.1-0.1,2.2-0.2,3.3-0.3c1.7-0.1,1.8-0.2,2.1-1.9c0.1-0.7,0.2-1.5,0.3-2.4c-1.6,0.5-3.2,0.5-4.6,1.5c-2.1,1.4-4.2,2.7-6.5,3.6
		c-5.5,2.2-11.1,4.2-16.6,6.3c-1.4,0.5-2.8,0.9-4.2,1.4c-0.2,0.1-0.4,0-0.7,0c0.3-0.5,0.5-0.9,0.7-1.3c-0.1-0.1-0.2-0.2-0.3-0.3
		c-1.2,0.5-2.4,1.1-3.6,1.6c-0.5-1.2,0.2-1.9,1-2.6c-1.2,0.4-2.4,0.9-3.7,1.3c-0.2,0.1-0.4,0-0.6-0.1c0-0.2,0.1-0.5,0.1-0.7
		c1-3.1,3.2-5.5,5.4-8c-0.9-0.7-0.3-1.4-0.1-2.1c0.2-0.7,0.5-1.4,0.6-2.2c-0.8,1.6-1.6,3.3-2.4,4.9c-0.2,0.4-0.2,0.9-0.9,0.7
		c-0.2,0-0.6,0.7-1.1,1.1c-0.9-1.8,0.7-2.9,0.9-4.3c-2.8,1-5.5,2.2-8,4.4c0.5-0.3,0.8-0.4,1.1-0.5c0.3-0.2,0.6-0.4,0.9-0.5
		c0.3-0.1,0.6,0,0.9,0c-0.1,0.3-0.1,0.7-0.3,0.8c-0.6,0.6-1.2,1.2-1.9,1.7c-0.3,0.2-0.7,0.3-1,0.4c-0.9,0.2-1.7,0.3-2.6,0.6
		c1.2,0.2,4.7-0.9,5.7-1.5c1.3-0.7,2.8-1.2,4.4-0.9c-0.7,0.8-1,1.9-2.2,2.1c-2.1,0.3-4.2,0.5-6.2,0.9c-1.7,0.3-3.5,0.7-5.2,1
		c-0.3,0.1-0.7,0-1,0c0-0.1,0-0.2-0.1-0.3c0.3-0.2,0.7-0.4,1-0.6c0-0.1-0.1-0.2-0.1-0.3c-2.6,0.6-5.1,1.1-7.7,1.7
		c-0.1-0.1-0.1-0.3-0.2-0.4c1-0.8,2-1.5,2.9-2.3c-0.3-0.2-0.7-0.5-1.1-0.8c-0.5,0.2-1.2,0.3-1.9,0.6c-0.7,0.3-1.2,0-1.4-0.5
		c-0.1-0.2,0.3-0.8,0.6-1c2.2-1.5,4.4-2.9,6.6-4.4c0.1-0.1,0.2-0.1,0.3-0.2c-0.3-0.1-0.5-0.2-0.9-0.3c4.1-3.7,9-6.4,11.5-11.6
		c-1.3-2.1-3.5-2.7-5.7-3.3c-0.8-0.2-1.7-0.1-1.9,0.5c-0.6,0-1-0.1-1.3,0c-1.3,0.4-2.5,0.9-3.8,1.4c3.1,2.6,8,3.4,9.4,1.8
		c0.9,0.1,1.6,0.2,2.3,0.2c0,0.1,0,0.2,0.1,0.3c-2.6,0.7-5.1,1.3-7.7,2c0.3,0.3,0.7,0.9,1.2,1.3c0.7,0.5,0.5,1.1,0.4,1.7
		c-0.2,0.7-0.7,1-1.4,1.1c-3.7,0.4-7.4,0.9-11.1,1.2c-3,0.2-6.1,0.2-9.1,0.3c-0.5,0-1.1-0.1-1.6-0.3c3.7-0.2,7.5-0.3,11.2-0.7
		c3.7-0.4,7.4-0.5,11.1-1.7c-0.7-0.2-1.4-0.4-2.1-0.6c0-0.1,0-0.2,0-0.3c0.7,0,1.4,0.1,2.1,0.1c0-0.1,0.1-0.1,0.1-0.2
		c-1-0.9-1.9-1.8-3-2.7c0,0,0.3-0.2,0.6-0.5c-0.9-0.7-1.9-1.4-2.8-2.1c-0.9-0.7-1.7-0.4-2.4,0.2c-0.5,0.4-1,0.8-1.7,1.4
		c0.2-1.5,1.4-1.8,2.2-2.6c-2.1-0.9-4.2-1.8-6.4-0.6c-0.4,0.2-0.7,0.8-1.2,1.3c0.7,0.1,1,0.2,1.5,0.3c-0.4,0.2-0.6,0.4-1,0.7
		c0.8,0.1,1.5,0.3,2.1,0.4c0,0.1,0,0.2,0,0.2c-0.6,0.1-1.2,0.2-2,0.4c3.2,1.6,6.7,1.1,9.9,2.2c-0.3,0.1-0.5,0.3-0.8,0.3
		c-0.6,0-1.1-0.1-1.7-0.1c-0.2,0-0.5,0.1-0.6,0.2c-0.8,0.8-1.6,0.9-2.8,0.1c0.4,0,0.6,0,0.9,0c0.2,0,0.5,0,0.7,0c0-0.1,0-0.2,0-0.3
		c-1-0.1-2-0.2-2.9-0.2c-2,0.1-4,0.1-6,0.4c-2.4,0.3-4.4,1.5-6.1,3.2c-0.1,0.1-0.1,0.4-0.2,0.7c-0.2-0.2-0.4-0.4-0.7-0.6
		c-0.1,1.2-1,1-1.9,1c0,0.1,0,0.2,0,0.3c1,0,2.1,0.1,3.4,0.2c-2,0.8-4.3,0.6-5.2-0.6c0.6-0.1,1.1-0.4,1.6-0.3c1,0.1,1.5-0.4,1.9-1.2
		c0.4-0.8,1-1.2,2-1.1c0.2,0,0.4,0,0.5-0.1c2.5-1.8,5.3-2.2,8.2-2.5c0.3,0,0.5-0.1,0.8-0.1c0-0.1,0-0.2,0-0.2
		c-0.7-0.5-1.9-0.9-2-1.4c-0.2-1.5-0.6-3.1,0.1-4.6c0.8-1.8,2.1-3.2,3.6-4.4c2.2-1.9,4.6-3.7,6.7-5.8c1.6-1.5,2.9-3.3,4.2-5.1
		c1.4-2,1.5-4.4,1.7-6.8c0.5-5.2,1.1-10.4,1.7-15.7c-0.6-0.1-1.2-0.4-1.9-0.4c-0.3,0-0.6,0.3-0.9,0.4c-0.4,0.2-0.8,0.5-1.2,0.7
		c0-0.4-0.1-0.9-0.1-1.3c0-0.1,0-0.2,0-0.4c-1.4-0.4-2.7,0-3.9,0.6c-0.2,0.1-0.3,0.3-0.5,0.4c-0.3,0.1-0.6,0.2-0.9,0.3
		c0-0.3-0.1-0.7,0-1c0.1-0.4,0.3-0.8,0.5-1.4c-0.7-0.2-1.4-0.4-2-0.5c-1.7-0.4-3.4-0.8-5.1-1.2c-0.8-0.2-1.5-0.5-2.3,0.1
		c-0.1,0.1-0.7-0.1-0.8-0.3c-0.7-1.2-1.6-1.3-2.5-0.2c-0.4,0.5-0.9,0.9-1.3,1.4c-0.1-0.1-0.3-0.2-0.4-0.3c0.2-0.8,0.4-1.5,0.6-2.6
		c-1.7-0.3-3.4-0.8-5.2-1c-2.7-0.3-5.1-1.6-7.7-2.2C47.5,76.3,47,76,46.5,76c-0.3-0.1-0.7,0.1-1.1,0.2c-0.7,0.2-1.4,0.5-2.1,0.6
		c-0.1,0-0.4-0.5-0.4-0.7c0.1-0.4,0.4-0.8,0.7-1.3c-2.2-1.1-4.4-2.2-6.5-3.3c0,0,0,0,0,0c-0.9-0.9-1.8-1.8-2.7-2.6
		c-0.3-0.3-0.6-0.6-0.8-1.1c-0.9-0.1-1.8-0.2-2.8-0.3c0-0.1,0-0.3,0-0.4c0.9-0.5,1.9-0.4,3-0.5c-0.1,0.3-0.2,0.4-0.2,0.6
		c0.1,0,0.1,0.1,0.2,0.1c0.1-0.2,0.3-0.4,0.3-0.6c-0.1-1.7,0.3-3.2,1.3-4.6c-0.1-0.1-0.2-0.2-0.3-0.2c-0.1-0.1-0.2-0.1-0.4-0.1
		c0,0.2-0.1,0.4-0.1,0.8c-0.8-0.5-1.4-1-2-1.4c0-0.1,0.1-0.2,0.1-0.3c1.2,0,2.5,0,4,0c-0.5-0.4-0.9-0.7-1.2-1
		c0.3,0.1,0.6,0.2,0.8,0.3c0.5,0.3,0.9,0.3,1.2-0.3c-1-0.5-2.1-0.9-3.3-1.4c0.6,0.7,1,1.1,1.4,1.5c-1.1-0.6-2.2-1.3-3.3-1.9
		c0.1-0.1,0.1-0.3,0.2-0.4c0.4,0.1,0.7,0.1,1.1,0.2c0.9,0.3,1.7,0.8,2.6,1.1c1.3,0.6,2.7,0.8,4.1-0.2c-0.5-0.7-1.1-1.3-1.6-2
		c0.1-0.1,0.1-0.2,0.2-0.3c0.4,0.2,0.8,0.3,1.2,0.6c1.2,0.9,2.5,1.3,4,1.4c1.5,0.2,2.9,0.9,4.4,1.3c1,0.3,1.9,0.5,2.8,0.7
		c0.6-0.8,1.1-1.6,1.7-2.4c0.1,0,0.2,0.1,0.4,0.1c0.1,0.8,0.1,1.6,0.2,2.3c-0.1,0-0.2,0.1-0.2,0.1c-0.1-0.3-0.3-0.5-0.4-0.7
		c-0.3,0.2-0.6,0.4-1.1,0.6c1.6,0.4,3,0.9,4.4,1.1c0.3,0.1,0.8-0.3,1.1-0.6c0.5-0.5,0.9-1.1,1.4-1.6c0.2-0.2,0.6-0.3,0.9-0.5
		c0.1,0.3,0.4,0.7,0.3,1c0,0.8-0.1,1.6-0.2,2.5c0.5,0.1,0.9,0.3,1.4,0.3c0.2,0,0.5-0.1,0.7-0.2c-0.1-0.2-0.2-0.4-0.2-0.7
		c0-0.2-0.1-0.5,0-0.8c0.4-0.8,0.8-1.6,1.3-2.6c-1.2-0.2-2.3-0.4-3.3-0.7c-0.4-0.1-0.8-0.1-1.2-0.3c-1.1-0.6-2-0.6-3,0.1
		c-0.5,0.4-1.1,1.2-1.7,0c-0.1-0.1-0.7,0-1,0.1c-0.4,0.1-0.7,0.4-1.1,0.6c-0.1-0.1-0.2-0.1-0.3-0.2c0.4-1,0.7-2.1,1.1-3.2
		c-1.2-0.4-2.4-1-3.6-1.2c-1.2-0.2-2.4,0.2-4,0.3c0.8-0.4,1.3-0.7,1.9-1.1c-1.8-1.5-3.9-2.4-6.4-2.3c0-0.1,0-0.3,0-0.4
		c0.7-0.2,1.4-0.5,2.2-0.7c-0.9-1.3-0.8-3.2-3.1-3.5c0.1-0.2,0.3-0.3,0.4-0.5c0.4,0.1,0.9,0.1,1.3,0.2c0.2,0,0.5-0.1,0.7-0.1
		c-0.1-0.2-0.2-0.5-0.3-0.6c-0.6-0.4-1.2-0.7-1.8-1.1c-0.3-0.2-0.5-0.4-0.7-0.6c0-0.1,0.1-0.2,0.1-0.3c1.7,0.3,3.3,0.6,5.1,0.9
		c-0.1-0.3-0.2-0.5-0.3-0.7c0.5-0.6,1.1-0.6,1.9-0.4c1.4,0.2,2.8,0.1,3.9,0.1c0.7-0.6,1.2-1.1,1.6-1.4c0.7,0.5,1.3,1,1.9,1.4
		c-0.2,0-0.6,0-1,0c0,0.1,0,0.1,0,0.2c1.1,0.2,2.3,0.7,3.4,0.5c1-0.2,1.9-1.2,2.9-1.9c0.1,0,0.2,0.1,0.3,0.1
		c-0.1,0.8-0.1,1.5-0.2,2.4c0.9,0.5,1.4,0.5,3.4-0.1c-0.4,1.4,0.7,1.3,1.5,1.6c0.3,0.1,0.6,0.1,0.9,0.3c1.6,0.7,3.1,0.8,4.6-0.4
		c0.1-0.1,0.3-0.1,0.5-0.2c0.1,0,0.1,0,0.4,0.1c-0.2,0.6-0.3,1.1-0.5,1.8c0.3-0.1,0.6-0.1,0.8-0.2c0.3-0.1,0.5-0.2,0.8-0.4
		c0.1,0.3,0.1,0.6,0.2,1c1.8,0.5,3.6,1.1,5.5,1.6c0.3,0.1,0.6-0.1,0.9-0.2c0.5-0.3,0.9-0.6,1.4-0.9c0.1,0,0.2,0.1,0.3,0.1
		c-0.1,0.5-0.1,1-0.3,1.8c0.6,0,1.2,0.1,1.9,0.1c0.3,0.2,0.7,0.5,1.2,0.9c0.3-1.2,1.9-2.2,3-2.2c1.8,0.1,3.6,0,5.4,0
		c0.2,0,0.3-0.2,0.5-0.2c2.3,0.5,3.5-1.6,5.2-2.3c0.8-0.3,1.2-1.4,2.3-1.6c0.3-0.1,0.5-1,0.5-1.5c0-0.6-0.4-1.1-0.9-1.7
		c-0.5,1.4-1.1,2.7-1.6,4.1c-0.1,0-0.2,0-0.3,0c-0.1-1-0.3-2-0.4-3.1c0.1,0,0.1-0.1,0.2-0.1c0.2,0.5,0.4,0.9,0.6,1.5
		c0.3-0.7,0.7-1.4,1-2.2c-1.5,0.3-3,0.6-4.4,0.9c0.3,1.3,0.5,2.5,0.8,3.9c0.4-1.2,0.8-2.3,1.2-3.4c0.1,0,0.2,0.1,0.2,0.1
		c-0.4,1.3-0.8,2.6-1.3,3.9c-0.1,0-0.2,0-0.3,0c-0.3-1.3-0.6-2.7-0.9-4c0-0.2-0.3-0.3-0.4-0.5c-0.5,0-1,0-1.7,0
		c0.3,0.5,0.6,0.9,0.8,1.2c0.3-0.4,0.7-0.8,1-1.2c-0.3,0.9-0.6,1.7-0.9,2.7c-0.3-0.7-0.6-1.4-1-2.3c-0.6,1.2-1.1,2.3-1.7,3.6
		c-0.3-0.9-0.6-1.6-0.9-2.3c-0.2-0.6-0.5-1.1-0.8-1.7c-0.5,0.5-1,0.9-1.4,1.4c-0.4,0.5-0.7,1.1-1.1,1.7c-0.1,0-0.2-0.1-0.4-0.1
		c0.3-1.1,0.5-2.3,0.8-3.4c-1,0.2-1.8,0.5-2.7,0.7c-0.1-0.1-0.1-0.2-0.2-0.2c0.3-0.5,0.5-1,0.9-1.7c-0.4-0.2-0.8-0.3-1.3-0.5
		c0-0.1,0-0.4,0-0.8c-1.2,0.5-2.4,1.1-3.5,1.6c-0.1-0.1-0.1-0.2-0.2-0.3c0.3-0.3,0.6-0.6,0.9-0.9c0.5-0.4,1-0.8,1.5-1.2
		c0.5-0.4,1-0.8-0.1-1.2c-0.9-0.3-0.5-1.1-0.1-2c-1.7,0-3.2,0-4.7,0c0-0.2,0-0.3-0.1-0.5c1.7-0.5,3.3-0.9,5.1-1.5
		c-0.5-0.5-0.9-0.9-1.6-1.5c0.7-0.1,1.1-0.2,1.5-0.3c0.4-0.1,0.8-0.4,1.2-0.5c-0.2-0.3-0.3-0.7-0.5-1c-0.3-0.5-0.8-0.9-1-1.5
		c0.3,0.1,0.6,0.1,0.9,0.2c0.5,0.2,1,0.4,1.5,0.6c0.3,0.1,0.6,0,0.9,0c0-0.3,0-0.5-0.1-0.8c-0.3-1-0.7-2.1-0.9-3.2
		c1.3,0.7,2.3,1.5,3.1,2.7c-0.9-0.7-1.7-1.3-2.7-2.1c0.4,1.1,0.7,2,1.1,3.1c0.6-0.4,1.1-0.7,1.6-1c0.6,0.1,0.9,0,0.7-0.7
		c-0.1-0.5-0.1-1-0.1-1.5c0.1,0,0.2-0.1,0.3-0.1c0.5,0.5,0.9,1,1.4,1.4c0.2,0.2,0.6,0.2,0.9,0.3c0.1-0.3,0.2-0.5,0.2-0.8
		c0-1.1,0-2.3,0-3.7c0.3,0.4,0.5,0.6,0.6,0.8c0.3,0.9,0.6,1.9,0.9,2.9c0.1,0.2,0.3,0.4,0.5,0.5c0.2-0.2,0.5-0.4,0.6-0.6
		c0.2-0.7,0.3-1.5,0.4-2.2c0.1,0,0.2,0,0.4,0c0.2,0.5,0.4,1.1,0.6,1.6c0.2,0.3,0.5,0.6,0.7,0.9c0.2-0.3,0.4-0.6,0.5-0.9
		c0.4-1.2,0.8-2.5,1.3-3.7c-0.4,1.5-0.7,3-1.1,4.6c0.8-0.1,1.4-0.2,2-0.2C96.1,26,96,25,95.9,24.1c-0.1-0.5-0.2-1-0.3-1.5
		c0.1-0.2,0.1-0.4,0.2-0.7c0.1,0,0.1,0,0.2,0c0.2,1.5,0.4,3.1,0.6,4.6c0.1,0,0.1,0,0.2,0c0.2-0.7,0.4-1.3,0.6-2c0.1,0,0.2,0,0.3,0
		c0.1,0.5,0.3,1.1,0.5,1.9c0.4-1.5,0.8-2.8,1.1-4c0.1,0,0.1,0,0.2,0c0,1.2,0,2.4,0,3.5c-0.1-0.5-0.2-1.1-0.4-2
		c-0.3,1.2-0.6,2.2-0.8,3.1c1,0.3,1.5-0.1,1.7-1c0.3-1,0.7-2,1-3c0.1,0,0.2,0,0.3,0c0.2,1,0.5,1.9,0.8,2.9c0.1,0.4,0.3,0.7,0.5,1
		c0.2-0.3,0.5-0.6,0.6-1c0.3-0.9,0.5-1.8,0.7-2.8c0.1,0,0.2,0,0.3,0c0.2,1.2,0.4,2.4,0.5,3.5c0.1,0,0.2,0,0.2,0c0.5-1.5,1-3,1.6-4.4
		c0.1,0,0.3,0,0.4,0.1c0.1,1.1,0.1,2.1,0.2,3.6c1-1.7,2.5-2,4-2.2c0.2,0,0.5-0.3,0.6-0.6c2.1-3.3,4.1-6.6,6.2-9.8
		c0.4-0.6,0.8-1.2,1.2-1.8c0.2-0.2,0.4-0.4,0.7-0.7c0.1,0.1,0.2,0.1,0.2,0.2c-1.3,3.2-2.5,6.3-3.8,9.5c0.1,0,0.1,0.1,0.2,0.1
		c0.3-0.4,0.6-0.9,0.8-1.3c0.1,0,0.2,0.1,0.3,0.1c-0.3,1.1-0.6,2.3-0.9,3.4c0.1,0,0.2,0.1,0.2,0.1c0.4-0.6,0.8-1.2,1.2-1.8
		c0.1,0,0.1,0.1,0.2,0.1c-0.1,0.4-0.3,0.9-0.4,1.2c0.8,0.1,1.6,0.2,2.4,0.3c0.7,0.1,1.4,0,1.8-0.7c0.3-0.4,0.6-0.9,0.9-1.3
		c0.6-0.6,1.2-1.1,1.8-1.7c0.1,0.1,0.2,0.2,0.3,0.2c-0.4,1-0.8,2.1-1.2,3.1c0.1,0,0.1,0.1,0.2,0.1c1-1.5,1.9-3,2.9-4.4
		c0.8-1.1,1.6-2.3,2.4-3.4c-0.1,0.3-0.2,0.6-0.4,0.9c-1.6,2.7-3.3,5.4-4.9,8.1c-0.2,0.3-0.3,0.7-0.5,1.1c-0.8,0.3-1.9-0.4-2.6,0.7
		c0,0-0.1,0-0.2,0c-2,0.1-3.9,0.2-5.9,0.3c-0.3,0-0.6-0.1-0.9-0.1c0.1-0.3,0.2-0.5,0.3-0.7c1.8,0,3.6,0,5.3,0c0-0.1,0-0.2,0-0.3
		c-1.8,0.1-3.5,0.2-5.3,0.3c-0.4,0-0.7,0-1.1,0.1c-0.7,0.1-1.2,0.3-1.7,1c-0.5,0.8-0.5,2.2-2.1,2c0.2,0.5,0.3,0.9,0.5,1.2
		c0.8,1.3,0.4,3.2-0.8,3.4c-0.9,0.2-1,0.7-1,1.4c0,0.7,0,1.4,0,2c-0.5,0.6-0.9,1.2-1.4,1.7c0.1,0.1,0.2,0.1,0.2,0.2
		c0.3-0.2,0.5-0.5,0.9-0.9c0.1,0.6,0.2,1.1,0.3,1.6c0.3-0.1,0.7-0.1,1-0.2c3.8-0.9,7.7-1.8,11.5-2.8c0.7-0.2,1.2-0.9,1.8-1.4
		c0.1,0.1,0.2,0.2,0.3,0.3c-0.2-1,0.8-2.3,1.6-2.3c0-0.4,0.1-0.8,0.1-1.3c-0.5,0.2-0.9,0.4-1.4,0.6c-1.1,0.4-1.5,1.4-0.9,2.5
		c-1-0.6-2-0.1-3,0.1c0.7-1.4,1.3-2.9,3.1-3.5c-0.8-0.5-1.4-1-2.1-1.3c-0.7-0.4-1.4-0.7-2.1-1c0-0.1,0.1-0.3,0.1-0.4
		c0.9,0.4,1.7,0.3,2.2-0.5c0-0.1,0.2,0,0.3,0c1.3,0.1,2.2-0.6,3.2-1.3c0.1,0.1,0.2,0.1,0.3,0.2c-0.4,1-0.9,2-1.4,3.2
		c0.9-0.6,1.6-1,2.3-1.4c0.3-0.2,0.8-0.3,0.9-0.2c0.3,0.3,0.7,0.8,0.6,1.1c-0.3,1.1,0.1,2.5-1.1,3.4c-0.1,0.1-0.1,0.3-0.2,0.5
		c0.9,0.3,1.3-0.1,1.4-0.9c0-0.2,0-0.5,0.1-0.7c0.4-1.5,0.4-3-0.1-4.4c-0.1-0.1-0.3-0.3-0.5-0.3c-1-0.2-1.9-1.8-1.6-3
		c0.2,0.2,0.4,0.4,0.6,0.5c0.1-0.2,0.1-0.6,0.3-0.7c1.6-0.8,1.8-2.4,2.2-3.9c0.3-1,0.6-2,1-3c0.3-0.8,0.8-1.6,1.2-2.4
		c-0.1,0-0.2-0.1-0.2-0.1c-0.1,0.1-0.3,0.2-0.4,0.3c0.4-0.8,0.9-1.6,1.3-2.4c0.1,0,0.2,0.1,0.3,0.1c-0.1,0.3-0.1,0.7-0.2,1
		c-1.3,3.7-2.6,7.5-3.8,11.2c-0.2,0.5,0.1,1.1,0.3,1.6c0.1,0.2,0.6,0.3,1,0.4c0.1-0.3,0.2-0.6,0.2-0.9c0-0.2,0-0.4-0.1-0.6
		c-0.3,0-0.6,0.1-0.9,0.1c0-0.1-0.1-0.2-0.1-0.3c0.3-0.2,0.6-0.6,0.9-0.7c0.2-0.1,0.6,0.2,0.7,0.4c0.2,0.6,0.4,1.2,0.5,1.8
		c0.1,0.3,0.2,0.7,0.1,1c-0.5,1.4-0.1,2.6,0.8,3.7c0.2,0.2,0.2,0.5,0.3,0.7c0.5-0.1,1-0.1,1.4-0.2c0,0.1,0.1,0.2,0.1,0.3
		c-0.2,0.2-0.4,0.5-0.6,0.8c1.8-0.5,3.2,0.2,4.3,1.2c1.1,1,1.9,2.3,2.8,3.5c0,0.1,0-0.1,0.1-0.1c0.4,0.2,0.8,0.4,1.2,0.6
		c1.6,0.5,3,1.2,4.4,2.5c-0.4,0-0.7,0.1-0.9,0.1c0.2,0.6,0.5,1.2,0.8,1.9c0.7-0.4,1.8-0.3,2-1.6c0-0.1,0.5-0.4,0.6-0.3
		c1.1,0.6,1.9-0.3,3-0.6c-0.8-0.6-1.4-1.1-2-1.6c1.7-1.2,2.7,1,4,0.5c0.1-0.4,0.1-0.8,0.3-1c0.2-0.2,0.5-0.1,0.8-0.1
		c0.5,0,1.1,0,1.6-0.2c1.9-0.8,3.7-1.7,5.8-2.7c-0.6-0.2-1-0.3-1.4-0.4c-0.2,0.7-0.2,0.7-1.8-0.1c0,0.4,0.1,0.9,0.1,1.3
		c-0.1,0-0.2,0.1-0.3,0.1c-0.2-0.6-0.5-1.2-0.6-1.8c0-0.1,0.4-0.6,0.6-0.5c1,0.2,2.1,0.4,3.1,0.9c1,0.4,1.6,0,2.2-0.7
		c-0.4,0.1-0.7,0.3-1.2,0.5c-0.1-0.2-0.2-0.5-0.3-0.9c0.3-0.1,0.7-0.3,0.9-0.2c1.9,0.9,3.3-0.5,4.9-1.2c-0.3-0.3-0.5-0.4-0.7-0.6
		c-0.1,0.3-0.2,0.6-0.4,1.1c-0.2-0.2-0.3-0.3-0.3-0.4c-0.1-0.6-0.2-1.2-0.3-1.7c0.6,0.3,1.2,0.5,1.8,0.8c0.2,0.1,0.3,0.3,0.5,0.4
		c0.8-0.3,1.5-0.6,2.3-1c0.5-0.2,1.1-0.4,1-1.3c-0.1-0.5,1.1-1,1.6-0.7c0.3,0.2,0.7,0.4,1,0.5c0.9,0.2,1.4-0.1,1.5-1
		c0-0.1,0-0.3,0-0.4c0.1-0.4,0.3-0.7,0.4-1.1c0.2,0.3,0.4,0.7,0.7,1c0.1,0.2,0.3,0.4,0.4,0.6c0.1,0.1,0.1,0.3,0.1,0.4
		c0.7,0.1,1.6,0.1,2.4,0.2c0.6,0.1,1,0,1.4-0.6c0.2-0.4,0.6-0.7,1.1-1.2c0.5,1.5-0.9,1.4-1.1,1.9c0.8,0.7,1.5,1.4,2.2,2.1
		c0.1,0.1,0.4,0.1,0.5,0.1c-0.1,1-0.1,2.1-0.2,3.2c0.8-0.9,0.9-2,0.2-3.2c0.2-0.3,0.3-0.6,0.4-0.8c-0.4-0.1-0.9-0.2-1.4-0.3
		c0.1-0.3,0.1-0.4,0.1-0.4c1.7-0.4,3.3-0.7,5-1c0.6-0.1,0.8,0.2,1.8,1.7c-0.4,0-0.8-0.1-1.1,0c-0.3,0.1-0.6,0.4-0.8,0.6
		c0.3,0.3,0.5,0.8,0.8,0.9c0.9,0.2,1.6-0.2,2.1-1c0.4-0.7,1-0.8,1.7-0.7c1.6,0.2,3,0.6,3.7,2.2c0.3,0.6,1.2,0.8,1.9,0.4
		c0.3-0.2,0.5-0.4,0.8-0.6c0.3,1,0.3,1-1.7,2c1,0.2,2,0.5,3,0.7c1.3,0.3,2,1.3,2.9,2.2c0.7,0.7,1.4,1.4,2.6,1.1
		c0.3,1.4,0.1,2.6-1,3.2c0.8,1.3,1.6,2.6,2.5,4c-0.4,0.2-0.7,0.3-1.2,0.5c0.7,0.5,1.3,0.8,2.1,1.3c-0.7,0.6-1.4,1.2-2.2,1.9
		c0.2,0.1,0.4,0.3,0.7,0.5c0.2,0.1,0.6,0.3,0.6,0.4c0,0.3-0.2,0.6-0.4,0.7c-0.5,0.4-1.2,0.6-0.7,1.5c0,0.1,0,0.4-0.1,0.4
		c-1.3,0.3-0.6,1.2-0.6,1.9c0,0.4,0.1,0.8,0,1.3c-0.3-0.3-0.7-0.6-1.1-1c-0.2,0.2-0.5,0.4-0.8,0.6c0.3,0.7,0.7,1.4,1,2.1
		c-0.9,0.1-1.8,0.2-2.7,0.3c0,0.2,0,0.4,0,0.5c0,1.9,0.4,2.5,2.4,2.5C204.4,60.3,205.7,60,207.1,59.9L207.1,59.9z M170.5,46.3
		c1,0,1.7-0.6,2.4-1.1c-0.1-0.1-0.2-0.3-0.3-0.4C171.9,45.3,171.2,45.8,170.5,46.3c-0.1-0.1-0.2-0.2-0.3-0.2
		c-1.2,0.6-2.4,1.1-3.6,1.7c0,0.1,0.1,0.2,0.1,0.3C168,47.5,169.3,46.9,170.5,46.3z M99.7,98.6c-0.1-0.6-0.2-1.2-0.3-2
		c-0.8,0.5-0.6,1.2,0.3,1.9c-0.3,0.9,0.4,1.4,0.8,2c0.1-0.1,0.3-0.2,0.4-0.2C100.5,99.8,100.1,99.2,99.7,98.6z M100.3,130.4
		c0.6-1.3,1.1-2.7,1.7-4c-0.1,0-0.2-0.1-0.3-0.1C101.2,127.7,100.8,129.1,100.3,130.4c-0.7,0.5-1.2,1.8-1,2.8
		C99.7,132.1,100,131.3,100.3,130.4z M99.4,127.7c-0.1,0.1-0.3,0.1-0.3,0.2c-0.5,1.3-1,2.6-1.5,3.9c0.6-0.8,1-1.7,1.4-2.6
		c0.2-0.5,0.2-1,0.3-1.4c0.8-0.4,0.9-1,0.9-1.7c-0.1,0-0.3-0.1-0.4-0.1C99.7,126.5,99.6,127.1,99.4,127.7z M116,78.9
		c1.7-0.7,3.4-1.4,5.2-2c0-0.1-0.1-0.2-0.1-0.3c-1.4,0.6-2.8,1.1-4.2,1.7C116.5,78.4,116.3,78.7,116,78.9c-0.1,0-0.3-0.2-0.5-0.1
		c-1.6,0.6-3.2,1.2-4.8,1.7c0,0.1,0.1,0.2,0.1,0.3C112.6,80.2,114.3,79.6,116,78.9z M105.3,75.1c1.1-0.4,2.1-0.9,3.2-1.3
		c0-0.1-0.1-0.2-0.1-0.3c-0.7,0.3-1.4,0.6-2.1,0.9C105.9,74.6,105.6,74.9,105.3,75.1c-1,0.3-1.9,0.5-2.9,0.7c0.2,0.4,0.3,0.7,0.4,1
		C103.7,76.2,104.5,75.6,105.3,75.1z M39.4,59.9c-0.3,0-0.7-0.1-1,0.1c-0.5,0.3-0.9,0.7-1.4,1c-2.5,1.8-3.6,5.5-1.2,8.2
		c1.3,1.4,2.9,2.5,4.5,3.1c-1.3-1.1-2.9-2.2-4.2-3.4c-0.9-0.8-1.2-1.9-0.9-3.1C35.7,63.2,37.2,61.4,39.4,59.9
		c1.5-0.4,3.1-0.8,4.4-1.1c-1.1-0.4-2.4-0.4-3.7,0.2C39.8,59.3,39.6,59.7,39.4,59.9z M104.3,79.9c1.4-0.8,2.9-1.7,4.3-2.5
		c0,0.1,0.1,0.1,0.1,0.2c-0.2,0.2-0.4,0.4-0.6,0.6c1.3-0.3,2.4-0.8,3.6-1.2c1.5-0.5,2.3-1.5,2.7-2.9c-1.2,0.1-2.3,0.6-3,1.6
		c-0.1,0.1-0.3,0.2-0.5,0.2c-2.1,0.5-4,1.4-5.7,2.7c-0.4,0.3-1,0.5-1.5,0.6c-0.9,0.2-1.9,0.4-2.8,0.3c-0.9-0.1-1.2,0.3-1.5,1.1
		c1,0,1.9,0,2.8,0c-0.3,0.6,0.1,0.7,0.5,0.6C103.6,81.1,104.1,80.7,104.3,79.9z M188.6,80.2c-1.2-0.1-2.5-0.2-3.7-0.4
		c0-0.1,0-0.2,0.1-0.3c1.5-0.2,3.1-0.3,4.4,0.5c1.6,0.9,3.2,2,4.8,3c0.4,0.3,0.8,0.5,1.3,0.7c0.1-0.1,0.2-0.1,0.3-0.2
		c-0.1-0.5,0-1.1-0.3-1.4c-1.2-1.1-2.4-2.1-3.7-2.9c-0.8-0.5-2-0.5-3-0.8c-0.6-0.1-1.2,0-1.7-0.3c-0.5-0.3-0.9-0.2-1.3,0.1
		c-0.8,0.7-1.6,1.3-2.3,2c-0.3,0.3-0.5,0.8-0.7,1.2c0.5,0.2,1,0.3,1.5,0.5c0.8,0.2,1.8,0.3,2.5,0.6c1,0.5,1.9,1.2,2.7,2
		c0.8,0.7,1.5,0.6,2.2-0.1C190.6,83,189.6,81.6,188.6,80.2c1.1,1.3,2.2,2.6,3.2,3.9c0.1,0.2-0.1,0.7-0.3,0.9
		c-0.6,0.6-1.6,0.6-2.6-0.2c-0.7-0.5-1.3-1.1-1.9-1.8c-0.9-0.9-1.9-0.7-3-0.4c0.1,0.2,0.1,0.3,0.2,0.3c0.1,0.1,0.3,0.1,0.5,0.2
		c1.5,0.6,2.9,1.3,4,2.5c0.5,0.6,1.2,0.9,1.9,1.3c0.2,0.1,0.7-0.4,0.9-0.3c1,0.6,1.7-0.2,2-0.8c0.6-1.1,1.4-0.8,2-0.7
		c0.2,0.4,0.3,0.7,0.4,1.1c0.3-0.3,0.6-0.5,0.8-0.8c0,0,0.1-0.1,0.1-0.2c0.1-1.2,0.7-2.1,1.6-2.9c0,0,0-0.1,0-0.2
		c-0.7-0.6-1.3-1.2-2-1.9c0.2,0.7,0.4,1.3,0.4,1.9c0.2,1.2-0.7,2.1-1.9,1.8c-0.5-0.1-0.9-0.4-1.3-0.7c-0.6-0.5-1-1.1-1.6-1.6
		C191.1,81.1,190.1,80.2,188.6,80.2z M78.2,63.3c0.5,0.5,1.7,0.2,1.4,1.5c-0.2,0.7,0.2,1.6,0.4,2.6c1.4,0.4,3,1,4.6,1.5
		c0,0.2-0.1,0.3-0.1,0.5c-2.1-0.6-4.1-1.2-6.2-1.8c0,0.1,0,0.2-0.1,0.3c2,0.6,4,1.2,6,1.7c0.3,0.1,0.7-0.3,1.1-0.5
		c-0.6-0.9,0.5-0.9,0.7-1.4c-0.1-0.1-0.2-0.3-0.3-0.4c0.3-0.1,0.6-0.3,1-0.4c-1.1,0-1.2-0.3-1-1.4c-1.9-0.9-1.9-0.9-3.4,0.4
		c-0.1,0.1-0.2,0.3-0.4,0.3c-0.3,0.1-0.6,0.1-0.9,0c-0.1-0.1-0.2-0.5-0.1-0.7c0.1-0.5,0.3-0.9,0.5-1.6
		C80.3,63.6,79.2,63.5,78.2,63.3c-0.5,0-1.1-0.4-1.4-0.2c-0.9,0.6-1.8,0.4-2.8-0.1c0.3-0.3,0.5-0.5,0.8-0.9
		c-0.6-0.2-1.2-0.3-1.7-0.4c-2.1-0.7-4.1-0.8-6.2,0c-0.2,0.1-0.5,0-0.7-0.1c0-0.2,0-0.5,0.1-0.6c0.2-0.2,0.5-0.4,0.8-0.4
		c0.3-0.1,0.5,0,0.8,0c-2.7-1.2-3.4-1-5.2,0.9c0.3,0.3,0.8,0.6,0.9,1c0.5,1.4,2.7,2,3.7,1c0.5-0.5,1-0.9,1.7-1.4
		c0.3,1.7-1.3,1.3-1.7,2.2c2.3,0.6,4.5,1.1,6.8,1.7c1.7,0.5,2.7,0,3.5-1.6C77.9,64,78.1,63.6,78.2,63.3z M87.2,96.1
		c1-3.7,4-3.1,6.8-3.3c-0.2-0.3-0.4-0.6-0.7-0.6c-2.3-0.4-4.5-0.8-6.9-1.2c0.2,1.6,0.3,3.3,0.5,5C86.9,96.1,87.1,96.1,87.2,96.1
		c0,1.1,0,2.2,0.1,3.3c0.1,1.7,0.4,3.4,0.6,5.1c0.1,0,0.1,0,0.2,0c0-0.3,0-0.6,0.1-1c0.1,0.3,0.2,0.5,0.3,0.8c0.1,0,0.3,0,0.4,0
		c0.1-0.7,0.4-1.3,0.4-2c0-0.8,0.2-1,0.9-0.8c1.8,0.5,3.7,1,5.5,1.5c1.4,0.4,2.8,0.8,4.2,1.2c-1.1-2.4-2.2-4.7-3.3-7.2
		c-0.9,0.4-1.8,0.9-2.6,1.2c-0.3,0.1-0.6,0.1-0.8,0.1c0-0.3,0-0.6,0.1-0.8c0.1-0.4,0.4-0.7,0.5-0.9c-1.3-0.3-2.4,0.5-3.5,1.1
		c0-1.7,1.6-2.1,2.5-3.3c-1.1,0.2-1.6-1.4-2.8-0.5c0.1,0.2,0.2,0.3,0.4,0.6c-0.2,0-0.4,0-0.6,0c0.3,1.3-0.8,1.5-1.3,1.9
		C87.7,96.3,87.5,96.2,87.2,96.1z M198.5,53.2L198.5,53.2c0.2-0.2,0.4-0.3,0.7-0.5c-0.5-0.3-0.5-0.3-3,2c0.2,0.2,0.4,0.3,0.5,0.5
		c-0.1,0.1-0.1,0.2-0.2,0.2c-0.3-0.1-0.5-0.3-0.8-0.4c-0.3,0.4-0.6,0.7-0.9,1.1c-0.7-0.5-1.3-1-2-1.5c0,0.1-0.1,0.1-0.1,0.2
		c0.2,0.3,0.4,0.5,0.6,0.8c-0.7-0.7-1.5-1.1-2.6-0.9c-0.5,0.1-1.2,0-1.7-0.2c-0.9-0.4-1.6-0.9-2.5-1.3c-0.3-0.2-0.8-0.2-1.2-0.3
		c0-0.1-0.2-0.3-0.3-0.6c-0.1,0-0.2,0-0.3,0c-0.2,1.4-0.4,2.9-0.6,4.3c0.6,0.1,1.2,0.1,1.9,0.2c-1.9,1.1-1.9,1.1-2.9,0.1
		c-0.2-0.2-0.2-0.7-0.3-1c-0.1-0.2,0-0.5-0.1-0.7c-0.1-0.3-0.3-0.7-0.3-0.8c-0.4,0.1-0.9,0.3-1.3,0.5c-0.1-0.5-0.2-1-0.3-1.4
		c-0.1,0-0.2,0-0.3,0c0,0.3-0.1,0.6,0,1c0.5,2.5,1,4.9,1.5,7.4c0.5,2.1,1.5,2.9,3.8,2.9c0.8,0,1.6-0.1,2.2-0.4
		c1.9-0.9,3.8-1.9,5.7-2.7c1-0.5,1.5-1.1,1.7-2.2c0.1-0.7,0.5-1.1,1.3-1c0.4,0,0.8-0.2,1.1-0.4c0.6-0.6,1.1-1.3,1.6-2.1
		C199.9,54.8,199.5,53.7,198.5,53.2z M92.2,126c0.6-0.3,1.2-0.7,1.7-1C93,125,92.4,125.2,92.2,126c-0.2,0.1-0.6,0-0.7,0.1
		c-0.7,0.7-1.3,1.4-1.9,2.2c-0.4,0.5-0.6,1.2-1,1.8c-1.1,1.5-2.2,3-3.3,4.5c-0.2,0.2-0.5,0.3-0.8,0.4c0.1-0.3,0.1-0.6,0.2-0.8
		c0.7-1.1,1.4-2.1,2.1-3.1c-0.1-0.1-0.2-0.1-0.3-0.2c-0.9,1.2-1.9,2.5-2.7,3.8c-1.3,2-3.5,3.2-5,5c-0.9,1.1-2.5,1.8-3.8,2.6
		c-0.6,0.4-1.3,0.7-2,1c0,0.1,0.1,0.2,0.1,0.3c1.7-0.6,3.3-1.1,5-1.7c1.6-0.6,3.1-1.4,4.8-2.2c-0.4,1.4-2.5,1.3-2,2.7
		c-2.2,1.3-4.3,2.5-6.4,3.7c0,0.1,0.1,0.2,0.1,0.3c1.4-0.3,2.9-0.7,4.3-1c0.9-0.2,2-0.2,2-1.6c0-0.1,0.1-0.2,0.2-0.2
		c2-1.9,4-3.7,6-5.6c2-1.8,4-3.5,6.1-5.2c0.3-0.2,0.7-0.2,1.1-0.2c-0.1,0.4-0.1,0.8-0.3,1.1c-0.6,0.8-1.3,1.5-1.9,2.2
		c-1.1,1.2-2.2,2.3-3.4,3.5c0.1,0.1,0.1,0.2,0.2,0.3c1.8-0.8,3.6-1.5,5.4-2.4c0.3-0.2,0.7-0.5,0.8-0.9c1.1-2.8,2.2-5.6,3.3-8.5
		c0.3-0.7,0.5-1.4,0.9-2.4c-1.1,0.1-2.2-0.1-2.8,0.3c-1.7,1.3-3.7,2.1-5.6,3c-0.2,0.1-0.6,0-0.8,0c0.1-0.3,0.2-0.6,0.4-0.9
		C91,127.3,91.6,126.7,92.2,126z M85.3,36.2c0.2-0.1,0.4-0.3,0.7-0.4c-0.2,0.4-0.4,0.8-0.7,1.2c-0.6,0.8-1.3,1.6-1.9,2.4
		c0.1,0.1,0.2,0.1,0.2,0.2c0.9-1.1,1.8-2.1,2.8-3.2c0,0,0.1,0.1,0.1,0.1c-0.9,1.1-1.8,2.3-2.7,3.4c0.1,0.1,0.2,0.1,0.3,0.2
		c0.8-0.8,1.6-1.7,2.4-2.5c0.1,0.1,0.1,0.1,0.2,0.2c-0.7,0.9-1.4,1.7-2.1,2.6c0.1,0.1,0.2,0.2,0.3,0.2c0.6-0.7,1.3-1.4,1.9-2.2
		c0.1,0.1,0.1,0.1,0.2,0.2c-0.6,0.7-1.2,1.4-1.7,2.1c0.1,0.1,0.2,0.2,0.3,0.3c0.9-0.8,1.8-1.7,2.7-2.5c0,0,0,0.1,0.1,0.1
		c-0.2,0.3-0.5,0.7-0.7,1c0.1,0.1,0.1,0.1,0.2,0.2c0.6-0.5,1.1-1,1.7-1.5c0,0,0.1,0.1,0.1,0.1c-0.3,0.4-0.6,0.7-1,1.3
		c1.3,0,2.3,0,3.4,0c0,0.1,0,0.2,0,0.3c-0.2,0-0.4,0-0.7,0c-1.4,0.2-2.9-0.6-4,0.9c0,0-0.1,0-0.2-0.1c0.2-0.3,0.3-0.5,0.5-0.7
		c-0.1,0-0.1-0.1-0.2-0.1c-0.4,0.3-0.7,0.7-1.3,1.2c5.1,0.8,9.7-0.2,14.3-1.3c-0.4-0.1-0.8-0.2-1.2-0.3c0-0.1,0-0.1,0-0.2
		c1.8-0.2,3.5-0.3,5.4-0.5c-0.5,0.2-0.8,0.4-1.2,0.5c-2.7,0.7-5.4,1.6-8.1,2c-3.9,0.6-7.8,1.1-11.5-1c0.3,0.4,0.6,0.7,1,0.9
		c1.9,0.9,3.9,1,5.9,1c5.1-0.2,10-1.3,14.8-3c0.4-0.1,0.8-0.5,0.9-0.8c0.5-1.3,0.9-2.6,1.2-3.9c0.4-2,0.8-4,1.9-5.9
		c0.1-0.2,0.2-0.5,0.3-0.9c-1.9,0.2-3.6,0.3-5.3,0.5c-4.9,0.5-9.7,0.9-14.6,1.5C87.8,30,85.8,29.6,85,32c-0.1-0.5-0.1-0.7-0.1-0.7
		c-2.6,1.7-2.9,4.2-2,7C84.2,38.1,84.5,36.8,85.3,36.2z M86,103.4L86,103.4c0-0.6-0.1-1.3-0.1-2c-0.1-2.1-0.2-4.3-0.3-6.4
		c0-3-0.9-6,0.4-9c-0.7-0.2-1.3-0.3-2-0.5C84,86.8,84,87.9,83.8,89c-0.5,4-1,8-1.5,12c0,0.2,0,0.4,0,0.6c0,1.2,0.3,2.4,0.1,3.5
		c-0.7,3.8-1.2,7.7-0.7,11.6c0,0.2-0.1,0.5-0.1,0.7c-0.1,0-0.2,0-0.3,0c-0.1-0.9-0.3-1.8-0.3-2.7c-0.1-0.9,0-1.8,0-3
		c-0.9,3.2-1.3,6.3-0.9,9.5c-1.5-4.2,0-8.2,0.6-12.6c-1.7,3.3-4.2,5.4-6.8,7.6c-1.5,1.3-3,2.5-4.4,3.8c-1.2,1.1-2.3,2.3-2.8,4.1
		c1.8-0.8,3.7-1,5.3-0.3c2.1,1,3.9,0.7,5.9-0.2c0.1-0.1,0.3-0.1,0.4-0.1c2-0.4,3.8-1.9,6-0.7c1.2,0.7,2.6,1.1,3.8,1.6
		c0.3-0.4,0.7-0.8,1.1-1.3c0,0.9,0,1.8,0,2.8c0.7-1,0.7-2,0-2.8c0.3-0.3,0.5-0.6,0.8-0.9c0.4-0.4,0.5-0.8,0.1-1.4
		c-0.7-1-1.3-2.2-1.8-3c-0.7,1-1.7,2.3-2.7,3.5c-0.3,0.3-0.9,0.4-1.4,0.6c-0.1,0-0.3-0.3-0.4-0.4c0.2-0.1,0.3-0.2,0.5-0.3
		c0.3-0.1,0.7-0.2,0.8-0.4c0.7-1,1.4-2,2-3c0.4-0.8,0.9-1.8,0.9-2.7c0.1-1.5-0.2-3-0.3-4.5c-0.1-1.2-0.2-2.4-0.4-3.6
		c-0.1-0.8-0.2-1.7-0.4-2.4C86.6,104.3,86.3,103.9,86,103.4z M88.6,64.6c1.4,0.4,2-1,3.3-1.3c-0.3,0.3-0.4,0.5-0.6,0.7
		c0.5-0.1,0.8-0.3,1.1-0.5c1.3-0.6,2.5-1.1,4.1-0.9c2.3,0.3,4.7,0.2,7.1,0.3c0.8,0,1-0.5,0.9-1.3c-1.1,0.4-2.1,0.8-3.1,1.2
		c0-0.1,0-0.1-0.1-0.2c0.3-0.2,0.6-0.4,0.9-0.6c0,0,0-0.1,0-0.1c-0.6,0.2-1.3,0.4-1.9,0.6c0.5-0.4,1.1-0.6,1.7-0.9
		c1.4-0.6,3.1-0.3,4.3-1.6c0.2-0.2,0.4-0.6,0.5-0.9c-0.4,0-0.7-0.1-1.1-0.1c-0.4,0-0.7,0.2-1.1,0.1c-1.5-0.4-2.9-0.9-4.3-1.4
		c0,0.1,0,0.1-0.1,0.2c1.8,0.7,3.5,1.4,5.3,2.1c-0.4,0.1-0.8,0-1.2-0.2c-4.8-1.6-9.7-3.3-14.5-4.8c-7-2.2-14-4.5-21.1-6.5
		c-5.5-1.6-11.1-2.9-16.7-4.2c-2.5-0.6-5.1-0.6-7.5,0.7c-2,1-2.2,2.7-0.4,4.1c1.1,0.8,2.2,1.6,3.4,2.1c6.1,2.8,12.4,4.9,18.9,6.7
		c6.9,1.8,13.7,3.8,20.5,5.8C87.5,63.9,88,64.3,88.6,64.6c-0.4,0.1-0.9,0.2-1.3,0.3c0,0.1,0,0.3,0,0.4c0.7,0.1,1.3,0.3,2,0.4
		c0-0.1,0.1-0.3,0.1-0.4C89.1,65.1,88.8,64.9,88.6,64.6z M172.1,30.6c0.2-0.2,0.4-0.5,0.6-0.5c1.6,0.3,2.8-0.8,4.3-1
		c-2.5-0.8-4.5,0.8-6.7,1.5c-0.2,0.1-0.3,0.4-0.5,0.7c0.7-0.1,1.2-0.2,1.6-0.3c-0.8,0.4-1.7,0.9-2.5,1.3
		c-7.8,3.6-15.6,7.2-23.3,10.8c-2.1,1-4.2,2-6.3,3c-8,3.8-16,7.6-24,11.5c-2.4,1.2-4.6,2.6-6.9,3.9c0.8,0.1,1.6,0.1,2.2-0.2
		c0.6-0.2,1-0.8,1.6-1.3c-0.2,0.6-0.3,0.9-0.4,1.3c1.7-0.4,3.1-1.1,4.5-1.1c1.8,0,2.6-1.1,3.7-2c0.2-0.2,0.3-0.4,0.5-0.5
		c1.9-1.5,3.3-3.8,6-4.1c0.3,0,0.5-0.3,0.8-0.4c-0.1-0.2-0.2-0.4-0.5-0.8c1.7,0.3,3.2,0.4,4.5,0.9c1.4,0.5,2.7,0.7,4.1,0.8
		c0.6,0,1.2,0.1,1.8,0.2c0.7,0.1,1,0.4,1,1.2c0,1.8,0,3.5,0,5.4c4.8-2.3,9.5-4.3,14.1-6.7c4.6-2.4,9-5.1,13.5-7.6
		c0,0.1,0.1,0.2,0.1,0.2c-2.7,1.5-5.4,3.1-8.1,4.6c0,0.1,0.1,0.2,0.1,0.3c6.3-3.3,12.7-6.6,19-9.9c0,0,0.1,0,0.1,0.1
		c-0.1,0.2-0.2,0.4-0.4,0.7c0.5,0,0.9,0.2,1.3,0.1c0.3-0.1,0.5-0.5,0.5-0.9c0-0.1-0.4-0.5-0.6-0.5c-1.6,0-1.8-0.4-1.6-1.9
		c0.4-0.1,1-0.1,1-0.2c0.1-0.5,0.1-1.1-0.1-1.5c-1-1.9-0.8-2.8,1.3-3.6l0,0c0,0.1,0,0.2-0.1,0.3c-1.6,1.4-1.7,1.4-0.8,3.5
		c0.4,1.1,0.1,1.8-1,2c0.1,0.6,0.1,1.2,1,1.1c0.4,0,1,0.1,1.1,0.3c0.2,0.3,0.2,1-0.1,1.2c-0.2,0.3-0.8,0.3-1.3,0.4
		c-0.4,0.1-0.8,0.1-1.3,0.2c0,0.1,0,0.2,0,0.2c0.1,0,0.3,0,0.5,0c-1.2,1.1-1.3,1.2-1,2.4c0.4-0.2,0.8-0.5,1.2-0.5
		c0.4,0,1.5,2.1,1.3,2.5c-0.3,0.7-0.7,1.5-1.1,2.3c1.3,0.4,1.3,1.4,1,2.7c-0.2,0.6,0.4,0.8,0.9,0.8c0.3-0.6,0.6-1.1,0.8-1.6
		c0.1,0,0.2,0.1,0.3,0.1c0.2,0.8,1.8,0.7,1.1,2.1c0.1,0,0.2,0,0.3,0.1c0.4-0.3,0.8-0.7,1.2-1.1c0.2,0.3,0.3,0.6,0.5,0.9
		c0.1-0.2,0.1-0.3,0.1-0.5c0.8,0.3,0.8-0.4,0.9-0.8c0.4-1.4,0.4-1.5,1.6-0.8c0.3-0.3,0.5-0.5,0.7-0.8c-0.1-0.5-0.1-1.1,0.1-1.5
		c0.1-0.2,0.7-0.2,1.1-0.3c0,0.1,0,0.2,0.1,0.3c0.2-0.3,0.4-0.5,0.6-0.8c-1-0.8-0.9-1.7,0.3-2.2c0.4-0.2,0.9-0.2,1.4-0.3
		c1.4-0.1,1.7-0.5,1.2-1.9c-0.2,0.1-0.5,0.3-0.7,0.4c-0.7,0.2-1.5,0.7-1.2-0.7c0-0.2-0.4-0.6-0.6-0.6c-1.4,0.4-1.7-1.1-2.5-1.6
		c0.4,0.4,0.9,0.7,1.5,1.2c-0.2-0.7-0.3-1.2-0.5-1.7c1,0.2,1.7,1.1,2.6,0.2c-1.1-1.7,0.4-1.7,1.4-2.1c0.3,0.3,0.6,0.5,0.9,0.8
		c0.1-0.1,0.1-0.1,0.2-0.2c-0.2-0.4-0.4-0.9-0.6-1.5c0.3,0.1,0.5,0.2,0.7,0.3c0-0.1,0.1-0.1,0.1-0.2c-0.5-0.4-0.9-0.7-1.4-1.1
		c0.1-0.1,0.1-0.1,0.2-0.2c0.2,0,0.4,0.1,0.7,0.1c-0.3-0.5-0.6-0.8-0.8-1.1c0.1,0,0.1-0.1,0.2-0.1c0.5,0.5,1,1.1,1.5,1.6
		c-1.1-1.8-1.1-1.8,0.1-2.7c-0.3-0.3-0.6-0.7-0.9-1c0,0,0.1-0.1,0.1-0.1c0.5,0.5,1.1,1,1.6,1.5c0,0,0.1-0.1,0.1-0.1
		c-0.3-0.5-0.7-0.9-1-1.4c0.5,0.1,0.9,0.3,1.3,0.4c0-0.3,0-0.4,0-0.5c-0.1-1.3,0.2-1.5,1.4-1.4c0.5,0,0.9-0.1,1.1-0.2
		c-0.6-0.2-1.6-0.3-1.9-0.8c-0.8-1.5-2.1-1.8-3.5-2.1c-0.6-0.1-1.1,0-1.5,0.6c-0.3,0.4-0.8,0.8-1.3,1c-1,0.4-2,0-2.2-0.9
		c-0.2-1,0.7-1.1,1.6-1.3c-0.3-0.3-0.4-0.7-0.6-0.8c-1.1-0.3-2.1-0.1-3,0.6c-0.9,0.6-1.4,1.4-1,2.6c0.1,0.4,0.1,0.9,0.1,1.3
		c-0.1,0.9-0.9,1.4-1.8,1.3c1.1-1,0.7-3.9-0.7-4.4c-0.2-0.1-0.6,0.2-1.1,0.5c-0.1,0-0.5-0.3-0.9-0.3c-1,0-1.9,0.1-2.9,0.2
		C174.8,30.2,173.4,30.5,172.1,30.6z M90.3,83.2c0-0.1,0-0.2,0-0.4c-2.2-0.6-4.4-1.3-6.6-1.9c1.2-0.6,2.3-0.2,3.4,0.1
		c1,0.3,2,0.5,3,0.7c0.4,0.1,0.9,0,1.3,0c0-0.1,0-0.2,0-0.3c-1.1-0.2-2.1-0.5-3.2-0.7c0-0.1,0-0.2,0.1-0.3c0.9,0.1,1.8,0.2,3,0.3
		c-0.5-0.3-0.9-0.6-1.2-0.6c-1.7-0.2-2.8-1.2-3.6-2.6c-0.6-1.2-1.4-1.4-2.7-1.1c-2,0.5-4,1-6,1.6c0-0.1,0-0.2-0.1-0.2
		c2.3-0.6,4.6-1.3,7.1-2c-0.4-0.5-0.8-1-1.1-1.4c-0.3-0.4-0.4-0.7,0.1-1c0.8-0.6,1.5-1.2,2.2-1.9c-0.1-0.1-0.1-0.2-0.2-0.3
		c-0.6,0.3-1.2,0.6-1.8,0.9c-1-0.5-0.9-1.2-0.2-1.9C83.5,70.2,83.3,70,83,70c-5.4-1.4-10.8-2.8-16.3-4.2c-7.2-1.9-14.3-3.8-21.5-5.6
		c-2.7-0.7-5.9-0.5-7.9,2.6c-2.1,3.2-1.8,5.3,1.4,7.5c0.3,0.2,0.6,0.4,1,0.6c4,2.4,8.5,3.6,12.8,5.1c3.3,1.1,6.8,1.8,10.3,2.5
		c2,0.4,3.9,1.4,5.7,1c0.3,0.2,0.4,0.5,0.6,0.5c1.8,0.4,3.6,0.9,5.4,1.2c2.2,0.5,4.5,0.7,6.6,1.3c4.3,1.2,8.6,2.6,12.9,3.7
		c8.8,2.1,17.7,4,26.5,6c2.2,0.5,4.3,0.9,6.5,1.3c0.9,0.2,1.9,0.2,2.8,0.3c0-0.2,0-0.4,0.1-0.6c-2-0.3-4-0.5-6-0.8
		c1.2-0.1,2.4-0.2,3.6,0c1.2,0.1,2.4,0.5,3.6,0.8c-0.3,0.1-0.6,0.2-0.8,0.3c0,0.1,0,0.2,0,0.3c0.8,0,1.7,0,2.4,0
		c0.2-2.8,0.4-5.6,0.6-8.3c-4.4-1.6-8.9-3.2-13.4-4.7c0-0.1,0-0.1,0-0.2c0.6,0.1,1.2,0.2,2.1,0.3c-0.5-0.3-0.8-0.6-1.1-0.7
		c-0.5-0.2-1.1-0.4-1.6-0.6c0.3-0.1,0.6-0.1,0.9,0c0.3,0.1,0.7,0.2,1,0.2c0-0.1,0.1-0.3,0.1-0.4c-0.6-0.2-1.2-0.6-1.8-0.5
		c-0.7,0-1.3,0.4-1.9,0.7c-0.6,0.3-1.4,0.6-1.7,1.1c-0.3,0.5-0.1,1.3-0.1,1.9c-0.2,0-0.3,0-0.5,0.1c-0.2-0.6-0.4-1.2-0.7-2
		c-0.6,0.8-1.2,1.5-1.8,2.3c-0.2-0.6-0.3-1-0.4-1.3c-1,0.2-2.1,0.5-3,0.4c-1.3-0.1-1.6,1.3-2.9,1.6c0.4-0.9,0.6-1.7,1-2.5
		c-0.5,0.2-1,0.3-1.4,0.5c-2.2,1.3-4.4,0.6-6.5-0.1c-1.2-0.4-2.2-0.6-3.3,0c0.3,0.2,0.5,0.4,0.8,0.6c-0.4,0.1-0.9,0.2-1.3,0.3
		c0,0.2-0.2,0.4-0.4,0.4c-0.7-0.1-1.4-0.2-2.2-0.3c0,0.1,0,0.2,0,0.3c1.3,0.4,2.6,0.7,3.9,1.1c0,0.1,0,0.2-0.1,0.2
		c-1.7-0.4-3.3-0.8-5-1.2c0,0.1-0.1,0.2-0.1,0.3c1,0.3,2,0.7,3.2,1.1c-1.8-0.1-3.2-1.3-5.1-0.6c0.7,0.4,1.3,0.7,1.8,1
		c0,0.1-0.1,0.2-0.1,0.3c-4.1-1-8.1-2-12-3.7c0.4-0.1,0.7-0.1,1,0c2.7,0.7,5.4,1.5,8.1,2.2C89.3,83.3,89.8,83.2,90.3,83.2z
		 M119.5,53.4c0,0.1,0.1,0.2,0.1,0.2c3-1.4,5.9-2.8,8.9-4.2c4.7-2.2,9.4-4.4,14.1-6.6c0.2-0.1,0.4-0.2,0.6-0.4
		c0.2-0.2,0.3-0.5,0.6-0.9c-0.1-0.1-0.2-0.6-0.5-0.8c-1.3-0.7-2.6-1.7-4-1.9c-2.6-0.4-5.2,0.3-7.5,1.5c0.4,0.6-0.1,1.7-0.7,1.6
		c-0.9-0.1-1.8-0.4-2.9-0.7c1-1,2.6-0.5,3.2-1.9c-0.6-0.1-1.1-0.1-1.6-0.3c-1.8-0.4-3.6-0.8-4.8,1.1c0,0.1-0.1,0.1-0.2,0.1
		c-1.9,1.3-3.8,2.6-5.4,4.4c-1.6,1.8-4,2.5-6.5,2.8c0.1-0.2,0.1-0.4,0.2-0.6c-2.2,0.7-4.3,1.6-6.6,1.8c1.8-1.5,0.2-2.5-0.6-3.6
		c0.6-0.2,1-0.3,1.4-0.5c-0.1-0.8-0.3-1.7-0.4-2.6c0.4,0,0.8-0.1,1-0.1c0.5-0.6,1-1.3,1.6-2c-0.1,0-0.3-0.2-0.5-0.2
		c-0.3,0-0.6,0.1-0.9,0.1c-1.2,0.1-2.3,0.3-2.3,1.9c0,0.3-0.4,0.7-0.7,1c-0.3-0.3-0.5-0.7-0.7-0.8c-0.1,0.7-0.2,1.6-0.4,2.8
		c-0.4-0.4-0.6-0.6-1-0.8c0,0.6-0.1,1.4,0.1,1.5c1.1,0.4,1,1.6,1.4,2.4c0.4,0.9,0.7,1.7,1.7,1.9c0.9,0.2,1.8,0.8,2.7,0.7
		c2.7-0.1,5.3-0.9,7.6-2.1c3.6-1.9,7.2-4,10.8-5.9c0.4-0.2,0.8-0.5,1.2-0.6c0.2-0.1,0.4,0,0.6,0.1c0.1,0.1,0.2,0.4,0.1,0.5
		c-0.3,0.4-0.7,1.2-0.9,1.1c-1.1-0.1-1.3,1-2.2,1.2c-1,0.1-1.9,0.9-2.9,1.4c-0.5,0.2-1.2,0.3-1.7,0.5c-2.5,1.1-5,2.3-7.5,3.5
		c-1,0.5-1.8,1.4-2.3,2.6c0.3,0.1,0.4,0.1,0.6,0.1c2.5,0.4,4.6-1,6.7-2c1.5-0.7,2.8-1.8,4.2-2.8c0.3-0.2,0.6-0.3,0.9-0.5
		c0.1,0.1,0.2,0.2,0.2,0.3c-1.3,1-2.7,1.9-3.9,2.8c0.4,0.3,0.7,0.5,1.1,0.7c0,0.1,0,0.2-0.1,0.3c1.5-0.7,3-1.3,4.5-2
		c0.1,0.1,0.1,0.3,0.2,0.4C123.9,51.1,121.7,52.3,119.5,53.4z M141.2,62.4c0.4,1-0.6,1-1.1,1.3c0.2,0.3,0.4,0.6,0.6,0.9
		c0.1,0.2,0,0.5,0,0.6c0,0.1-0.4,0.1-0.5,0c-0.7-0.4-1.4-0.9-2.2-1.3c-0.7,0.6-1.8,0.6-2.5,1.7c-0.6,1-1.8,1.7-2.9,2.5
		c-1.5,1.1-3,2.1-4.6,3.1c0.2,0.6-0.2,0.9-0.9,1.1c-0.5,0.1-0.9,0.5-1.4,0.8c0.1,0.1,0.1,0.2,0.2,0.2c0.1,0,0.1,0,0.2,0
		c7.1-3.3,14.1-6.6,21.2-9.9c1.6-0.7,3-1.4,3.3-3.3c0-0.1,0.1-0.1,0.2-0.2c-0.1,0.6-0.2,1.2-0.4,1.8c0.1,0,0.2,0.1,0.4,0.1
		c0.3-0.9,0.6-1.8,0.9-2.7c0.1,0,0.2,0.1,0.3,0.1c-0.2,0.6-0.4,1.3-0.6,2c1.8-0.2,1.3-2,2.3-2.8c-0.3,0.8-0.5,1.5-0.7,2
		c1.5-0.6,3-1.2,4.4-1.9c1.8-0.9,3.5-1.9,5.3-2.9c0.3-0.2,0.7-0.3,0.9-0.4c0.2,0.3,0.4,0.5,0.4,0.6c0.6-0.3,1.1-0.6,1.6-0.8
		c2-0.9,4-1.7,6-2.6c1.3-0.6,2.6-1.1,3.7-1.9c1-0.7,1.7-1.7,2.5-2.5c0.1-0.1,0.1-0.4,0-0.6c-0.3-0.6-0.7-1.1-1.2-1.8
		c-0.7,1-1.6,0.9-2.4,0.8c-0.5-0.1-1-0.3-1.4-0.2c-0.5,0.1-1.2,0.4-1.2,0.7c-0.4,1.7-0.5,1.3-1.7,1.3c-0.6,0-1.3,0.2-1.9,0.2
		c0,0.1-0.1,0.3-0.1,0.4c1,0.9,2.1,1.7,3.1,2.6c0.9-0.4,1.7-0.8,2.5-1.2c0,0.1,0.1,0.2,0.1,0.3c-1.8,0.9-3.6,1.7-5.3,2.6
		c0-0.1-0.1-0.2-0.1-0.2c0.6-0.3,1.3-0.6,2.1-1.1c-1.5-0.4-2.8-0.6-4-1.1c-1.2-0.5-2.1-0.4-2.8,0.6c0.4,0.7,0.2,1.8-0.5,1.8
		c-0.9,0-1.9,0-2.8,0c0.2-0.2,0.4-0.4,0.6-0.6c-0.8,0.3-1.9,0.2-1.8,1.6c0,0.1-0.7,0.4-1.1,0.5c-0.4,0.1-0.9-0.1-1.3,0.1
		c-1.5,0.7-3,1.5-4.4,2.3c-0.1,0-0.1,0.1-0.1,0.1c0.1,0.3,0.1,0.6,0.2,1c-2.1-0.4-3.5,0.1-4.5,2.2c-0.2,0-0.6-0.1-0.9-0.1
		c-0.4,0-0.8-0.1-1.1,0.1C144.2,60.9,142.7,61.6,141.2,62.4z M117.1,116.6c0.3-2.7,0.6-5.2,1-7.8c0.3-1.9,0.2-2.4-1.6-2.9
		c-2.4-0.6-4.8-1-7.3-1.4c-0.4-0.1-0.9,0.5-1.3,0.8c-0.3,0.3-0.5,0.8-0.9,0.9c-0.6,0.3-0.6,0.4-0.2,0.9c0.2,0.2,0.1,0.6,0,1
		c0,0.3-0.3,0.6-0.3,0.8c0,1.1,0,2.2,0,3.3c0,0.9,0.7,1.5,1.5,1.1c1-0.5,1.8-0.1,2.7,0.3C112.8,114.7,114.8,115.6,117.1,116.6z
		 M89,113.9c1.2-1.6,2.6-1.1,3.9-0.8c1.9,0.4,3.8,0.7,5.7,1c0.3,0,0.9-0.1,1-0.3c0.7-2.2,1.3-4.5,1.9-6.7c-0.2-0.1-0.3-0.2-0.4-0.2
		c-2.7-0.7-5.4-1.3-8.1-2c-2.1-0.5-4,0.4-4.8,2.4c-0.1,0.2-0.1,0.4,0,0.6C88.4,109.8,88.7,111.7,89,113.9z M107.8,94.5
		c-0.4,0.8-0.1,1.2,0.7,1.4c1,0.2,2,0.5,3.1,0.7c-1.6,0.1-3.3,0.4-4.7-1c-0.2,0.3-0.4,0.5-0.6,0.8c0.1,0,0.2,0,0.3,0.1
		c0,0.4,0,0.8-0.1,1.2c0,0.2-0.2,0.4-0.2,0.7c0,1.5,0.1,2.9,0.2,4.3c0.5,0.2,0.9,0.3,1.3,0.5c0.3-0.4,0.4-1,0.8-1.3
		c0.4-0.3,1-0.7,1.4-0.5c1.5,0.5,3,1.2,4.5,1.8c1.3,0.5,2.4,1.8,4.2,1.2c0.3-2.2,0.5-4.4,0.8-6.7c0.2-1.4-0.1-1.7-1.5-1.9
		c-1.9-0.3-3.8-0.5-5.7-0.7C110.8,94.8,109.3,94.7,107.8,94.5z M110.1,136.3c0.9-0.7,2.2-1.3,2.4-2.1c0.3-1.4,1.3-2.1,1.9-3.2
		c0.4-0.8,1.1-1.4,1.6-2.2c0.1-0.1-0.1-0.7-0.3-0.7c-1.8-0.5-3.6-0.9-5.5-1.3c-0.2,0-0.6,0.2-0.8,0.5c-0.2,0.2-0.3,0.6-0.2,0.8
		c0.2,0.5,0.5,0.8,0.7,1.3c0.4,0.9,1,1,1.8,0.6c0.3-0.2,0.7-0.2,1-0.3c0,0.1,0.1,0.2,0.1,0.3c-0.1,0.1-0.2,0.2-0.4,0.3
		c-1.5,0.4-2.3,1.5-3.1,2.7c-0.6,1.1-1.4,2-2.2,3c-0.4,0.5-0.7,0.5-1.1-0.2c-0.5-1-0.3-1.6,0.2-2.2c-0.3-0.5-0.7-0.9-0.8-1.3
		c-0.1-0.5,0.1-1,0.2-1.5c-0.3,0.6-0.6,1.2-0.7,1.8c-0.3,1.8-1.7,2.7-2.7,4c-2.6,3.1-5.2,6.2-7.8,9.3c-0.5,0.6-1,1.2-1.5,1.8
		c0.1,0.1,0.2,0.2,0.3,0.2c1.6-1,3.5-1.8,4.8-3.1c1.3-1.3,2.1-3.1,3.1-4.7c0.1,0.1,0.3,0.2,0.4,0.3c-0.5,0.9-1,1.8-1.5,2.5
		c1.4-0.7,2.8-1.6,4.3-2.3c2.3-1.2,4.2-2.7,5.2-5.1c0,0,0.1,0,0.3-0.1C109.9,135.8,110,136,110.1,136.3z M120.2,60.6
		c0.1,0,0.2,0,0.2-0.1c0.1,0.4,0.3,0.8,0.4,1.2c0.2,0.8,0.3,1.6,0.4,2.4c0.1,0.6,0.3,1.2,0.2,1.9c-0.1,0.7,0.1,1,0.8,0.9
		c0.4-0.1,0.8-0.3,1.1-0.3c0.9,0,1.9,0,2.5-0.7c1.5-1.6,2.9-3.1,4.3-4.8c0.3-0.3,0.3-0.9,0.4-1.4c0.1-0.3,0.2-0.8,0.4-1
		c0.5-0.6,1-1.1,1.6-1.6c0.6-0.5,0.3-1.1,0.1-1.4c-0.1-0.2-0.8-0.2-1.2-0.1c-0.5,0.1-1,0.4-1.6,0.6c-1.5,0.5-2.9,1.4-4.6,1
		c-0.3-0.1-0.6,0.2-0.7-0.4c-0.1-0.7,0.2-0.8,0.6-0.9c0.3-0.1,0.6-0.2,0.9-0.3c0.2-0.1,0.5-0.2,0.7-0.4c-3.8,0.2-5.4,3.7-8.1,5.3
		c0.4,0.7,0.7,1.2,1.2,1.9C120,61.4,120.1,61,120.2,60.6z M93,77.8c0.5-0.2,0.8-0.4,1-0.3c0.9,0.2,1.9,0.5,2.8,0.8
		c1.1,0.2,2.2,0.5,3.2,0.5c0.9,0.1,1.1-0.5,0.6-1.2c-0.9-1.4-0.9-2.7-0.3-4.2c0.2-0.6,0.4-1.3,0.5-1.9c0.3-1.9,0.7-3.9,0.9-5.8
		c0.1-0.4,0-0.8-0.2-1.2c-0.3-0.5-3.9-0.4-4.2,0.1c-0.4,0.7-0.8,1.5-1.1,2.3c-1.2,3.1-2.3,6.1-3.5,9.2C92.4,76.7,92.6,77.3,93,77.8z
		 M211,77.5c-1.1,1-1.7-0.5-2.9-0.4c0.6-0.8,1.2-1.6,1.9-2.6c-1.1,0.2-2,0.4-2.9,0.6c0-0.1,0-0.2-0.1-0.3c0.8-0.7,2.1-1.1,2.5-2.5
		c-1.3,0.7-2.4,1.2-3.4,1.8c-0.4,0.3-0.8,0.7-1.1,1c-0.5,0.7-1,1.4-1.5,2.1c-0.1,0.2-0.2,0.3-0.3,0.5c-0.5,1.3-1,2.7-1.6,4
		c-0.1,0.3-0.6,0.5-0.9,0.8c-0.7,0.8-1.7,1.5-2.1,2.4c-0.5,1.2-1.2,2.1-2.2,2.9c-0.6,0.5-1.1,1.3-1.7,1.9c0.1,0.1,0.2,0.2,0.3,0.3
		c0.5-0.3,0.9-0.6,1.4-0.9c0.9-0.5,1.8-1,2.9-0.5c1.1,0.6,2.2,0.4,3.1-0.4c0.2-0.2,0.3-0.6,0.4-0.7c-0.8-0.2-1.9-0.2-2-0.5
		c-0.2-0.6,0.2-1.4,0.3-2.1c0,0,0-0.1,0-0.1c0.7-1.1,1.4-1.3,2.6-0.7c0.2,0.1,0.5,0.2,0.6,0.1c0.8-0.4,1.1,0.1,1.5,0.6
		c0.2,0.3,0.6,0.6,0.9,0.6c0.8,0,1.7-1.1,1.7-1.9c-0.6-0.2-1.3-0.3-1.6-0.7c-0.6-0.9,0-2,1-2.4c0.4-0.1,0.7-0.2,1.1-0.3
		C210.4,80.1,211.3,78.7,211,77.5z M110.3,62.1c-0.2,0-0.5,0.1-0.8,0.1c-1.7,0.4-3.4,1-5.1,1.2c-1.2,0.2-1.6,0.9-1.6,1.9
		c-0.1,1.3-0.1,2.5-0.1,3.8c0,2,0,4.1,0,6.1c1.8-0.8,3.8-1.7,5.8-2.5c0.7-0.3,0.9-0.7,0.9-1.4C109.5,68.4,109.9,65.3,110.3,62.1z
		 M129.8,74.2c4.1,0.6,8,1.2,11.9,1.8c0-0.1,0.1-0.3,0.1-0.4c-1.6-0.8-3.2-1.6-4.9-2.4c0.4-0.2,0.8-0.2,1.2-0.1
		c1.2,0.6,2.3,1.2,3.5,1.8c0.9,0.4,1.8,1.3,2.9,0.3c-0.1,0.3-0.1,0.5-0.1,0.7c0.1,0,0.2,0,0.2,0.1c0.7-1.9,1.4-3.8,2.1-5.6
		c-0.5-0.2-0.9-0.4-1.4-0.5c-1.2-0.3-2.3-0.7-3.5-0.9c-1.3-0.2-2.5,0.6-2.7,1.6c-0.1,0.4-0.4,0.7-0.5,1.1c-0.3-0.3-0.6-0.5-0.9-0.8
		c-0.1-0.1-0.1-0.2-0.2-0.2c-1.9,0.7-1.9,0.7-2.5,2.4c-0.1,0.2-0.3,0.5-0.5,0.5c-0.2,0-0.4-0.3-0.6-0.4c-0.1-0.2-0.2-0.4-0.3-0.7
		C132.4,73,131.2,73.6,129.8,74.2z M106.5,116.7c-0.1,0-0.2,0-0.3,0c0.2,1.3,0.3,2.6,0.5,4c0.9-0.1,2-1.2,2.6,0.5
		c-0.4,0.3-0.8,0.5-1.2,0.9c1.3,0.4,2.4,0.8,3.6,1.2c0.1,0,0.3,0,0.4-0.1c0.5,0,1-0.1,1.5-0.1c0.4,0,0.8,0.2,1.3,0.3
		c0-0.1,0.1-0.2,0.1-0.3c-1.1-0.6-2.2-1.1-3.3-1.7c-0.2-0.1-0.3-0.3-0.4-0.5c0.2-0.1,0.4-0.2,0.6-0.2c0.9,0.3,1.8,0.6,2.6,1
		c1.3,0.6,2.5,1.2,3.8,1.9c0.2-1.1,0.4-2,0.4-2.9c0-0.3-0.1-0.8-0.4-1c-0.4-0.2-0.9-0.2-1.5-0.3c-0.4-0.3-1-0.7-1.6-1
		c-1-0.5-2-1-3-1.5c-1.1-0.6-2.2-1.1-3.4-1.6c-0.2-0.1-0.6,0.1-0.7,0.3c-0.5,0.5-1,1.2-1.5,1.8C106.7,117,106.6,116.9,106.5,116.7z
		 M90.5,77.2c1-2.6,1.9-5.2,3-7.8c0.3-0.8,0.6-2,1.2-2.3c0.9-0.4,1-1,1.2-1.6c0.3-0.6,0.3-1.2,0.5-1.9c-0.4-0.1-0.8-0.2-1.2-0.3
		c0,0.1,0.1,0.2,0.1,0.3c-0.3,0.3-0.6,0.8-1,1c-0.4,0.2-1,0.1-1.7,0.2c-2.3,3-4.8,6.2-7.1,9.3C87,74.9,88.6,76,90.5,77.2z
		 M111.2,71.4c0-0.1-0.1-0.2-0.1-0.3c0.2-0.1,0.4-0.2,0.7-0.4c2.4-1.2,4.8-2.4,7.2-3.6c0.2-0.1,0.6-0.5,0.5-0.7
		c-0.4-1.7-0.9-3.3-1.4-4.9c-2.1,0.4-4.2,0.7-6.3,1c-0.2,1.3-0.3,2.8-0.5,4.3c-0.2,1.6-0.4,3.1-0.6,4.9c0.8-0.2,1.3-0.3,1.8-0.4
		c0-0.1,0-0.2,0-0.2C112.1,71.3,111.7,71.3,111.2,71.4z M98.2,45.6c-1.5,1.1-1.8,2.6-0.9,4.1c0.1,0.1,0.2,0.3,0.2,0.5
		c0,1.3,0.6,2.2,1.6,2.9c0.4,0.3,0.9,0.4,1.4,0.7c1.6,0.9,3.1,1.9,4.9,2.9c-0.2-0.5-0.3-0.7-0.5-1.1c0.3,0.1,0.6,0.1,0.7,0.2
		c0.4,0.7,1,0.7,1.5,0.4c1.8-0.8,4.2-0.2,5.5-2.2c0.1-0.1,0.3,0,0.5,0c0.6-0.1,1.2-0.3,1.7-0.4c0-0.1,0-0.2-0.1-0.3
		c-1.5,0.2-2.9,0.3-4.4,0.5c-0.3,0.1-0.7-0.1-1.1-0.2c-3.1-0.2-5.9-1.3-8.5-2.7C99.1,49.9,97.8,47.4,98.2,45.6z M169.1,54.4
		c0.4,0.4,0.8,0.7,1.1,1c0.6,0.7,1.2,0.8,2,0.4c0.9-0.4,1.9-0.8,2.8-1.1c0.3-0.1,0.7-0.1,1-0.1c-0.5,1.1-0.9,2-1.4,2.9
		c-0.4,0.8,0.1,1.4,0.7,1.6c0.6,0.2,1.3,0.2,2,0.2c0.4,0,0.8-0.2,1.2-0.3c0.4-0.2,0.7-0.5,1.1-0.8c0.3-0.3,1-0.5,1-0.8
		c0-1.5-0.2-3-0.4-4.4c-0.1,0-0.2,0-0.3,0c-0.1,0.4-0.2,0.7-0.3,1.1c-1.5,0-1.8-0.3-1.5-1.6c0.1-0.6,0.3-1-0.3-1.4
		c-0.6-0.4-1.1-0.4-1.7-0.1c-0.5,0.3-1.1,0.6-1.6,0.9c-0.5,0.2-0.8,0.5-0.7,1.2c0,0.2-0.1,0.5-0.1,0.8c-0.3-0.1-0.6-0.1-0.9-0.2
		c-0.4-0.1-0.9-0.3-1.2-0.2C170.5,53.6,169.9,54,169.1,54.4z M99.1,115.9c-2.5-0.5-4.8-1-7.2-1.5c-1-0.2-2,0-2.7,0.8
		c0.2,1.5,0.9,2.5,2.4,3c0.5,0.2,1.2,0.2,1.5,0.5c1.6,1.5,3.8,1.4,5.7,2c0.6,0.2,1.6-0.8,1.3-1c-1-0.9-0.1-1.7-0.1-2.5
		c0-0.3,0.1-0.6,0.1-0.9c-0.1,0-0.1,0-0.2,0c-0.2,0.7-0.5,1.3-0.7,2c-0.1,0-0.3-0.1-0.4-0.1C98.8,117.4,98.9,116.8,99.1,115.9z
		 M135.6,83.9c1,0.9,1.1,1.2,0.7,1.8c-0.3-0.4-0.7-0.8-1.1-1.3c-0.1,0.1-0.2,0.1-0.3,0.2c0.6,1.1,1.2,2.3,1.9,3.4
		c0.7,1.1,1.7,2,3.1,2.2c1,0.1,1.8-0.2,2.5-1c0.6-0.8,0.6-1.6,0.1-2.4c-0.7-1.2-1-2.4-0.3-3.5c-1.4-0.1-2.9-0.3-4.3-0.4
		c-0.2,0-0.4-0.1-0.5-0.1C136.9,83.2,136.3,83.5,135.6,83.9z M197.7,75.8c0.5-1.2,0.5-1.2-0.5-1.9c-0.2-0.2-0.3-0.5-0.4-0.8
		c-0.4-0.8-1.1-1.1-1.9-1.1c-0.6,0-1.1,0.3-1.2,1.1c0,0.3-0.4,0.6-0.7,0.9c-0.1,0-0.2,0-0.3,0c0.3-1.5-0.9-2-1.8-2.8
		c0.2,1,0.3,1.8,0.5,2.7c-0.5-0.6-0.9-1-1.3-1.4c-0.2-0.2-0.4-0.2-0.6-0.3c-0.1,0.3-0.2,0.5-0.2,0.8c0,0.3,0.3,0.5,0.2,0.8
		c0,0.4,0,0.9-0.3,1.1c-0.2,0.2-0.8,0.5-1.1,0.3c-0.8-0.5-1.3-0.1-1.7,0.4c-0.9,1.1-1.8,2.2-2.7,3.3c-0.3,0.4-0.6,0.8-0.9,1.2
		c0.5-0.2,0.9-0.5,1.3-0.8c1.2-0.9,2.1-2.5,4-2c0.1,0,0.2-0.1,0.3-0.1c1.5-0.9,3.1-1.3,4.9-1C194.8,76.3,196.2,75.9,197.7,75.8z
		 M102.5,41.2c-0.1,0.5-0.1,1.1-0.3,1.5c-0.2,0.6-0.5,1.1-0.8,1.6c-0.2-0.5-0.5-1-0.7-1.5c-0.5,0.8-1.3,1.7-1.8,2.6
		c-0.3,0.5-0.4,1.4-0.1,1.8c0.8,1.2,1.7,2.6,2.9,3.2c2.1,1,4.5,1.5,6.8,2.2c0.4,0.1,0.8-0.2,1.3-0.3c-0.7-0.6-0.7-0.6,0.1-1.3
		c-0.1,0-0.1-0.1-0.2-0.1c-0.2,0-0.4,0-0.6,0.1c-1.5,0.6-2.7,0-3.8-0.9c-0.6-0.5-1.2-1.1-1.7-1.7c-1.1-1.3-1.7-4.1-0.9-5.3
		C103.1,42.5,103.1,41.9,102.5,41.2z M128.2,133.4c0.9,1,1.7,1.6,2.2,2.5c0.4,0.8,0.9,0.7,1.5,0.8c0.7,0.1,1.4,0.1,2.1,0.2
		c0.7,0.1,1.3,0.4,2,0.6c1.1,0.2,1.6-0.3,1.4-1.4c-0.2-1.1-0.5-2.2-0.8-3.3c0,0.1-0.1,0.3-0.1,0.3
		C133.8,133.1,131.1,133.3,128.2,133.4z M93.8,53.4c0.1-0.1,0.1-0.1,0.2-0.2c-0.8-0.7-1.8-1.3-2.4-2.2c-0.8-1.2-1.9-1.1-3.1-1
		c-0.8,0.1-1.7,0.1-2.5,0.2c-0.3,0-0.7,0.2-0.9,0.4c-0.3,0.3-0.4,0.7-0.6,1c0.3,0.1,0.8,0.1,1.1,0.3c0.9,0.5,1.6,0.6,2.4-0.2
		c0.5-0.5,0.9-0.2,1,0.5c0.1,0.4,0.2,0.7,0.4,1.1c1.2-0.9,1.2-0.9,1.6,0.2c0,0.2,0.2,0.4,0.4,0.4c0.6,0.2,1.2,0.4,1.8,0.6
		c3.3,1.2,6.6,2.3,9.9,3.6c0.6,0.2,0.8,0.1,0.9-0.5c-1.4-0.7-2.7-2.1-4.5-1.4c-0.1,0-0.2,0-0.3-0.1c-1.9-0.6-3.8-1.3-5.7-2
		c-0.3-0.1-0.5-0.3-0.8-0.5c0.2-0.1,0.2-0.2,0.3-0.2C93.2,53.4,93.5,53.4,93.8,53.4z M105,145.1c0.1,0.1,0.1,0.2,0.2,0.3
		c3.6-0.7,6.2-3.5,9.4-5c-0.9,0.8-1.8,1.6-2.7,2.4c2.3,0.1,5.8-3.6,6.5-6.5c-0.2,0.2-0.6,0.6-0.7,0.5c-0.8-0.5-1.1,0.3-1.5,0.5
		c-1.8,1.1-3.1,2.7-5,3.7C109,142.3,107.1,143.8,105,145.1z M207.8,106.5c2-0.7,4-7.1,3-8.8c-2.1,2.6-4.2,5.2-6.5,7.9
		C205.7,105.7,207,105.3,207.8,106.5z M142.8,78.9c-0.6,0.3-0.9,0.5-1.1,0.6c-1.4-1.4-3.1-0.7-4.6-0.9c-1.5-0.2-3.1,0-4.7,0
		c0,0.1,0,0.2,0,0.3c1.3,0.5,2.6,0.9,3.8,1.5c1.1,0.5,2,1.2,3.2,1.9c1-0.2,2.4-0.5,3.9-0.9c0.4-0.7,0.5-1.5-0.3-2.4
		c-0.1,0.4-0.3,0.7-0.4,1.1c-0.1,0-0.1,0-0.2-0.1C142.5,79.7,142.6,79.5,142.8,78.9z M161.5,85.4c-1.1-0.6-2.1-1.1-3-1.8
		c-0.4-0.3-0.7-0.7-1.4-0.3c-0.2,0.1-0.7-0.2-0.9-0.4c-0.5-0.6-1-1.3-1.5-1.9c-0.7-0.8-1.6-1-2.3-0.5c0.3,0.2,0.6,0.5,1,0.8
		c-1,0.6-1.5,0-2.1-0.4c-0.8-0.6-1.1-0.6-1.6,0.2c0.3,0.2,0.5,0.4,0.9,0.7c-0.5,0.1-0.8,0.2-1,0.2c0.5,0.5,0.9,1.1,1.4,1.3
		c1.2,0.3,2.3,1.7,3.8,0.8c0.1-0.1,0.3,0,0.4,0c1.3,0.4,2.5,0.9,3.8,1.3C159.8,85.7,160.6,86,161.5,85.4z M120.5,42.4
		c-0.3-0.2-0.5-0.3-0.5-0.3c-0.7,0.6-1.5,0.4-2.3,0.5c-2,0.3-4,0.8-6,1.3c-0.2,0.1-0.5,0.2-0.6,0.4c-0.3,0.5-0.5,0.9-0.7,1.5
		c-0.1,0.4-0.1,0.8-0.2,1.4C113.8,45.5,117.6,45,120.5,42.4z M196.3,76.5c2.3,1.2,2.8,3.2,3.1,5.4c1.5-0.7,2.8-3,2.6-4.5
		c-0.2-1-1.5-2.1-2.5-1.9c-0.3,0-0.4,0.4-0.8,0.8C198.1,76.3,197.4,76.4,196.3,76.5z M175.9,127.2c-0.1,0-0.4,0-0.5,0.1
		c-1.1,1.4-2.5,1.1-3.9,0.7c-0.7-0.2-1.1,0-1.4,0.6c0,0-0.1,0-0.2,0c0.1-0.2,0.2-0.4,0.3-0.7c-0.1-0.1-0.1-0.1-0.2-0.2
		c-0.4,0.4-0.8,0.8-1.3,1.2c0-0.2-0.1-0.3-0.1-0.4c-1-0.1-1.7,1.5-2.9,0c-0.3,0.9-0.5,1.6-0.8,2.6c0.9-0.2,1.6-0.2,2.1-0.6
		c1.2-0.8,2.4-1.1,3.8-0.8c0.1,0,0.3,0,0.4,0c1.4-0.2,2.9,0,4.3-0.5c0.2-0.1,0.5,0.1,0.9,0.2c0-0.4,0.1-0.8,0-1.1
		C176.4,128,176.2,127.7,175.9,127.2z M43.7,49.4c-0.2-0.3-0.4-0.5-0.5-0.7c-1.1-1.3-1-2.6,0.5-3.6c0.6-0.4,1.4-0.8,2.1-1
		c2.9-0.8,5.8-0.4,8.6,0.3c3.7,0.9,7.4,1.9,11.2,2.8c0.2,0.1,0.5,0,0.8-0.1c-0.1-0.3-0.2-0.4-0.3-0.4c-4.2-1.1-8.4-2.3-12.7-3.2
		c-2.6-0.6-5.3-0.7-7.9,0.3c-1.7,0.6-3.3,1.2-3.3,3.5C42,48.3,42.7,49.4,43.7,49.4z M120.6,105.9c0.4-2.8,0.7-5.5,1.1-8.2
		c0.1-0.7,0-1.3-0.8-1.4c-0.8-0.1-0.8,0.6-0.9,1.2c-0.2,2.1-0.4,4.2-0.7,6.3C119.1,105,119.5,105.5,120.6,105.9z M119.4,115.3
		c0.2-2,0.4-3.9,0.7-5.8c0.2-1.1-0.1-1.8-1.3-2c-0.4,3-0.8,6-1.2,9c0,0.2,0.1,0.5,0.2,0.6c0.4,0.4,0.8,0.7,1.2,0.9
		c0.4-0.9,0.1-1.9-0.9-3.1C118.9,115.1,119.1,115.2,119.4,115.3z M125.7,70.9c-0.6-0.8-1.2-1.1-2-0.6c-1.2,0.7-2.4,1.2-3.6,1.7
		c-0.5,0.2-1.1,0.5-1.6,0.7c0,0.1,0.1,0.2,0.1,0.3c0.6-0.1,1.1-0.2,1.8-0.3c-0.1,0.3-0.2,0.5-0.2,0.8c-0.8-0.1-1.5,0-2.2-0.2
		c-1.6-0.3-2.6,0.8-2.2,2.4c2.3-0.8,4.6-1.8,6.7-3.4c0.7-0.2,1.6-0.6,2.7-1c-0.5-0.2-0.7-0.4-0.9-0.5c0,0,0-0.1,0-0.1
		C124.6,70.7,125.1,70.8,125.7,70.9z M122,76.2c2-0.2,25-11.4,26.6-12.8C139.7,67.6,130.9,71.9,122,76.2z M137.1,60.5
		c-1,0.4-1.1,0-1.1-0.6c0-1.1,0-2.2,0-3.2c-0.1,0-0.2-0.1-0.3-0.1c-0.8,1.3-1.6,2.6-2.3,3.7c1,1,1.9,2,2.9,3
		C137.4,62.7,136.5,61.5,137.1,60.5z M66.6,47.2c0,0,0,0.1,0,0.1c9.6,3,19.1,5.9,28.7,8.9c-0.7-0.4-1.5-0.7-2.3-0.9
		c-5.5-1.7-10.9-3.5-16.4-5.2c-3-1-6-1.9-9-2.9C67.4,47.1,67,47.2,66.6,47.2z M95,52c0.6-0.2,1.5,0.2,2,1.2c0.4,0.7,0.7,0.7,1.1,0.4
		c-0.8-1.8-1.6-3.6-2.4-5.4c-0.4,0.2-0.9,0.5-1.3,0.7c-0.9,0.4-0.8,1-0.3,1.7C94.4,51,94.7,51.5,95,52z M195.9,81.6
		c-0.3-2.5-0.9-3.7-3.7-4.2c0.1-0.2,0.1-0.4,0.2-0.6c-0.3-0.1-0.5-0.2-0.8-0.2c-0.7,0.2-1.4,0.5-1.9,0.7
		C191.8,78.8,194,80.3,195.9,81.6z M168.1,89c-0.8,0.1-1.5,0.1-2.2,0.2c0.9,1.7,2,3.2,2.7,4.9c0.7,1.7,0.9,3.5,1.3,5.3
		c0.2,0,0.3-0.1,0.5-0.1C170.1,95.7,168.6,92.4,168.1,89z M109.4,27.3c-3.4-0.4-21.1,1.3-22.7,2.2C94.3,28.8,101.8,28.1,109.4,27.3z
		 M62.3,57.5c-0.1-0.1-0.2-0.2-0.4-0.2c-5.2-1.7-10.3-3.4-15.2-5.9c-0.5-0.2-1-0.2-1.5-0.3c0,0.1,0,0.2-0.1,0.3
		C50.6,54,56.3,56.1,62.3,57.5z M124.4,73.8c-0.4,0.2-0.9,0.3-1.3,0.5c-2.2,0.9-4.4,1.9-6.6,2.6c-2.8,0.8-5.4,1.7-7.7,3.7
		C114.1,78.6,119.4,76.4,124.4,73.8z M142.4,60.3c0,0.1,0.1,0.2,0.1,0.3c6.6-3.2,13.2-6.4,19.8-9.6c-0.1-0.1-0.1-0.3-0.2-0.4
		C155.6,53.9,149,57.1,142.4,60.3z M104.6,62.4c0.1,0.1,0.2,0.3,0.3,0.4c1.1-0.4,2.1-0.8,3.2-1.3c0.9-0.4,1.7-1,2.5-1.5
		c2.1-1.2,4.3-2.4,6.4-3.6c-0.5,0-0.9,0.2-1.3,0.4c-2.1,1-4.2,2.1-6.3,3.1c-0.2,0.1-0.5,0.3-0.5,0.2c-0.4-0.7-0.7,0-1,0.1
		c-0.7,0.5-1.4,1-2.4,1.8c0.3-0.6,0.5-0.9,0.6-1.3c-0.1,0-0.2-0.1-0.2-0.1C105.5,61.3,105,61.9,104.6,62.4z M194,77
		c0.1,0,0.3-0.1,0.4-0.1c1.3,1.5,2.7,3.1,4.1,4.8c0.1-2.7-1-4.2-3.4-4.8C194.8,76.7,194.4,76.9,194,77z M137.8,37.3
		c-1-1.9-5.4-2.7-7.3-1.4c1.2,0.4,2.5-0.4,3.7,0.4c0.8,0.5,0.3,0.7,0.1,1C135.8,38,136.1,38,137.8,37.3z M122.7,118.8
		c0.3-2.9,0.7-5.7,1-8.5c-0.1,0-0.2,0-0.2-0.1c-0.1,0.1-0.2,0.3-0.3,0.4c-0.1-0.1-0.1-0.3-0.3-0.6c-0.3,2.6-0.6,5-1,7.4
		C121.8,118.1,122,118.5,122.7,118.8z M123.5,108.1c0.1,0,0.3,0,0.4-0.1c0.3-2.6,0.7-5.2,1-7.8c0-0.2-0.4-0.5-0.7-1
		c-0.4,2.7-0.7,5.1-1,7.5C123.3,107.2,123.4,107.6,123.5,108.1z M129.4,81.2c-2.3-0.7-4.5-1.3-6.7-1.9c-0.2-0.1-0.5,0.1-0.8,0.2
		c1.6,0.9,3.3,1.5,5,2.2C127.8,82.1,128.5,81.9,129.4,81.2z M103.9,129.8c-0.1,0-0.2,0.1-0.3,0.1c-1.3,2.5-2.7,5-4,7.6
		c0.9-0.9,1.6-1.9,2.5-2.8c1.1-1.1,1.3-2.6,1.9-3.9C104.1,130.5,103.9,130.1,103.9,129.8z M83,40.3c0.1-0.1,0.2-0.2,0.3-0.2
		c-1.9-3.1-1.4-6.2,0.1-9.3c-0.8,1.1-1.4,2.3-2,3.5c-0.8,1.6,0.3,3,0.5,4.5C82,39.3,82.6,39.8,83,40.3z M130.5,129.8
		c0.8,0.9,1.6,1.4,3,1.6c0.9,0.1,1.9-0.1,2.5,0.8c0.1,0.1,0.3,0,0.5,0C135.2,130,132.7,129.1,130.5,129.8z M122,109.3
		c-0.1,0-0.2,0.1-0.3,0.1c-0.3,2.5-0.7,4.9-1,7.4c0,0.3,0.3,0.5,0.4,0.8c0.6-2.6,0.9-5.1,1.2-7.6C122.3,109.7,122.1,109.5,122,109.3
		z M123.3,98.4c-0.4,2.6-0.8,5.2-1.2,7.8c0,0.1-0.1,0.2,0,0.3c0.1,0.2,0.2,0.5,0.4,0.9C123.2,105.6,123.8,99,123.3,98.4z M99.6,88.2
		c0,0.1-0.1,0.2-0.1,0.3c1.3,0.4,2.6,0.7,4,1.1c2.7,0.7,5.3,1.5,8,2.2c0.3,0.1,0.7,0,1,0c0-0.1,0-0.2,0-0.3
		C108.2,90.3,103.9,89.2,99.6,88.2z M160.3,35.6c0,0.1,0.1,0.2,0.1,0.3c0.5-0.2,1-0.5,1.5-0.7c2.4-1,4.7-2,7.1-3
		c0.3-0.1,0.6-0.5,0.8-0.7c-0.1-0.1-0.2-0.3-0.3-0.4C166.4,32.5,163.3,34.1,160.3,35.6z M140.3,61.4c-0.1-0.1-0.2-0.1-0.3-0.2
		c1.2-0.6,2.5-1.3,3.7-1.9c-1.7,0.5-3.3,1.3-4.9,1.9c-1,0.4-1.3,1-1,2c0.8-0.3,1.5-0.6,2.2-1C140.3,62,140.3,61.6,140.3,61.4z
		 M135.3,76.8c-2.5-0.2-4.9-0.3-7.2-0.5c0,0.1,0,0.2,0,0.3C130.4,77.8,132.8,77.7,135.3,76.8z M104.8,107.9c-0.1,0-0.2,0.1-0.3,0.1
		c0.9,2.3-0.6,4.4-0.5,6.6c0.2-0.4,0.4-0.9,0.6-1.4c0.1,0,0.2,0.1,0.3,0.1c-0.1,0.6-0.2,1.1-0.2,1.7c0.3-0.3,0.5-0.6,0.5-0.9
		c0-1.9,0-3.7,0-5.6C105.2,108.3,105,108.1,104.8,107.9z M81.4,84.4c0-0.1,0.1-0.2,0.1-0.4c-4.3-1-8.7-2-13-3.1
		c0,0.1-0.1,0.2-0.1,0.3C72.7,82.3,77.1,83.4,81.4,84.4z M121.4,121c-0.3,1.3-0.5,2.7-0.8,4.1c0.5,0,0.9,0,1.2,0
		c0.2-1.1,0.3-2.1,0.4-3.1C122.4,121.3,122.2,121,121.4,121z M148.1,70.6c0.4,0.6,0.6,1.3,1.1,1.5c0.8,0.3,1.7,0,2.5-0.7
		c-1.1-0.7-2-1.3-2.9-1.9c-0.1,0.1-0.1,0.2-0.2,0.3c0.3,0.2,0.6,0.4,0.9,0.5c0,0.1,0,0.2,0,0.2C149,70.6,148.7,70.6,148.1,70.6z
		 M162,56.7c-0.1,0-0.2-0.1-0.3-0.1c-2.6,1.4-5.3,2.9-8.1,4.4c0.4,0.1,0.5,0.1,0.5,0.1c2.5-1.3,5.1-2.5,7.6-3.8
		C161.9,57.2,161.9,56.9,162,56.7z M125.3,108.7c0.1,0,0.2,0,0.3,0.1c0.5-2,1.5-3.9,0.9-6.1c-0.1,0-0.2,0-0.3,0
		C125.9,104.6,125.6,106.6,125.3,108.7z M134.7,64.2c-0.7-0.4-1.2-0.7-1.6-0.9c-0.6-0.3-1.3-0.1-1.5,0.5c-0.1,0.4-0.2,0.9-0.3,1.5
		C132.5,64.9,133.5,64.6,134.7,64.2z M131.7,48.8c0.1,0.1,0.1,0.2,0.2,0.4c3.6-1.7,7.3-3.4,10.9-5.1c0-0.1-0.1-0.2-0.1-0.3
		C139,45.5,135.4,47.1,131.7,48.8z M99.9,102.7c0.1,0,0.3-0.1,0.4-0.1c-0.1-0.3-0.1-0.6-0.2-0.9c-0.6-1.3-1.2-2.6-1.8-3.9
		c-0.1-0.3-0.5-0.4-0.7-0.7c-0.1,0.1-0.1,0.1-0.2,0.2C98.2,99.2,99.1,100.9,99.9,102.7z M81.2,144.2c1.1,0.3,3.9-2.2,4-3.5
		C83.8,142,82.5,143.1,81.2,144.2z M85.5,140.5c0.1,0.2,0.3,0.3,0.4,0.5c1.6-1.6,3.3-3.2,4.9-4.8c-0.1-0.1-0.1-0.1-0.2-0.2
		C89,137.5,87.2,139,85.5,140.5z M87.8,43c0.3,1,0.7,2,1,3.2c0.5-1.1,0.9-2.1,1.3-3.2C89.3,43,88.6,43,87.8,43z M119.5,71.3
		c1.3-0.6,2.4-1.1,3.8-1.7c-0.4-0.1-0.6-0.2-0.7-0.3c-0.8-0.3-1.4,0.5-2,0.5C119.4,69.8,119.4,70.3,119.5,71.3z M130.3,34.5
		c1.3-0.2,2.5-0.4,3.6-0.6c0-0.1,0-0.2,0-0.3c-1.2-0.2-2.3-0.4-3.6-0.5C130.4,33.7,130.3,34,130.3,34.5z M102.1,114.6
		c1.2-0.2,1-1.3,1.3-2c0.7-2.2,0.7-2.2,0.1-2.7C103,111.5,102.5,113.1,102.1,114.6z M118.6,132.2c-0.1-0.1-0.2-0.3-0.3-0.4
		c-1.7,1.3-3.4,2.6-5.1,4c0.1,0.1,0.1,0.2,0.2,0.3C115,134.5,117.2,134,118.6,132.2z M120,124.8c0.3-1.3,0.5-2.5,0.7-3.6
		c0-0.2-0.2-0.4-0.2-0.7c-0.2,0.2-0.4,0.3-0.5,0.5c-0.2,0.6-0.2,1.2-0.4,1.8c-0.1,0.4-0.3,0.8-0.5,1.3
		C119.3,124.3,119.6,124.5,120,124.8z M124.6,68.7c0.1,0.1,0.1,0.1,0.2,0.2c1.1-0.5,2.3-1,3.4-1.5c-0.7-0.1-1.2-1.4-2-0.4
		C125.7,67.6,125.1,68.2,124.6,68.7z M122.7,97.7c-0.1,0-0.3,0-0.4,0c-0.4,2.8-0.7,5.7-1.1,8.5c0.1,0,0.2,0,0.3,0
		C121.9,103.4,122.3,100.6,122.7,97.7z M78.4,128.1c0.3,0.5,0.6,1.2,0.8,1.2c1.3,0,2.7-0.3,4-0.4c0-0.1,0-0.1,0-0.2
		C81.6,128.5,80.1,128.3,78.4,128.1z M57.1,56.8c-1.5-0.5-2.9-1.1-4.3-1.6c-0.2,0.7-0.3,1.3-0.5,1.8c0,0,0,0.1,0,0.1
		c2.3-1.2,2.5-1.2,2.7-0.2C55.7,56.9,56.3,56.9,57.1,56.8z M111.2,39c0.3,1.2,0.5,2.2,0.7,3.2c0.1,0,0.2,0,0.2,0
		c0.2-1.1,0.4-2.3,0.7-3.5C112.2,38.8,111.8,38.9,111.2,39z M103.3,120.9c0.1,0.1,0.2,0.1,0.3,0.2c0.5-1.2,1-2.4,1.5-3.7
		c-0.9-0.3-1-0.3-1.1,0.4C103.7,118.8,103.5,119.9,103.3,120.9z M101.9,26.8c-0.3-1.1-0.5-2-0.8-3.3c-0.4,1.3-0.8,2.3-1.1,3.4
		C100.6,26.9,101.2,26.8,101.9,26.8z M130.1,82.5c0,0.1,0,0.2,0,0.3c0.7,0.4,3.7,0.3,3.7-0.1c-0.2-0.1-0.4-0.2-0.8-0.3
		c0.4-0.1,0.6-0.1,0.9-0.1c0-0.1,0-0.2,0-0.3C132.7,82.2,131.4,82.3,130.1,82.5z M122.6,131c-0.1,0-0.2,0.1-0.3,0.1
		c-0.5,1.4-1.1,2.9-1.6,4.3c0.4-0.4,0.7-1,1-1.5c0.2-0.4,0.5-0.7,0.7-1.1c0.2-0.3,0.5-0.6,0.6-0.9C123,131.6,122.7,131.3,122.6,131z
		 M111.3,124.9c-2-1.8-3-2-4.4-1.1C108.3,124.2,109.8,124.5,111.3,124.9z M102.5,77.9c0.1,0.1,0.1,0.3,0.2,0.4
		c0.7-0.2,1.5-0.2,2.1-0.5c0.7-0.3,1.3-0.9,1.9-1.4c-0.1-0.1-0.1-0.1-0.2-0.2c-1.1,0.6-2.2,1.1-3.5,1.8c0.1-0.5,0.2-0.6,0.2-0.8
		c-0.1,0-0.1-0.1-0.2-0.1C102.9,77.4,102.7,77.6,102.5,77.9z M75.5,67.1c0.1-0.1,0.1-0.3,0.2-0.4c-2.3-0.7-4.7-1.3-7.1-1.6
		C70.9,65.7,73.2,66.4,75.5,67.1z M59.1,62.3c0-0.9,0.1-1.7,0.1-2.7c-0.8,0.8-1.5,1.4-2.3,2.2C57.8,62,58.4,62.2,59.1,62.3z
		 M148.9,68.3c1.6,0.8,2.9,1.5,4.3,2.1C153.2,69.7,150.2,68,148.9,68.3z M105,92.5c-1.7,0.6-1.7,0.6-1.1,2.4
		c0.1-0.3,0.3-0.6,0.4-0.9c0.2,0.2,0.5,0.4,0.7,0.6C105.1,93.9,105,93.2,105,92.5z M210.3,70.7c-0.4-0.5-0.7-1.1-1.1-1.2
		c-0.4-0.1-0.9,0.4-1.3,0.6c0.7,0.5,1.2,0.9,1.7,1.3C209.7,71.3,210,71,210.3,70.7z M131.4,67.2c0-0.1-0.1-0.2-0.1-0.3
		c-1.1,0.5-2.3,1-3.5,1.4C128.3,69.2,129.7,68.7,131.4,67.2z M147,65.9c-0.1-0.1-0.3-0.1-0.4-0.2c-0.4,0.4-0.8,0.9-1.1,1.3
		c0.6,0.2,1.2,0.4,1.8,0.6C147.2,67.1,147.1,66.5,147,65.9z M103.7,99.8c-0.1,0-0.2,0-0.4,0.1c0.4,1.8,0.7,3.6,1.1,5.4
		c0.1,0,0.2,0,0.3-0.1C104.4,103.4,104.1,101.6,103.7,99.8z M113.1,38.7c0.2,0.9,0.4,1.8,0.6,2.7c0.1,0,0.1,0,0.2,0
		c0.2-0.9,0.4-1.9,0.7-2.9C114,38.6,113.6,38.6,113.1,38.7z M168.4,50.5c-0.3-0.6-0.6-1.1-0.9-1.7c-0.7,0.4-1.3,0.7-2.1,1.2
		C166.5,50.2,167.4,50.3,168.4,50.5z M124.7,107.5c0.4-2,1.1-4.1,0.8-6.2C125.2,103.3,124.9,105.4,124.7,107.5z M85.3,80.9
		c1.6,1,5.5,1.9,6.2,1.7C89.4,82,87.3,81.4,85.3,80.9z M101.6,113.2c0.1,0,0.2,0.1,0.2,0.1c0.5-1.8,1-3.6,1.5-5.5
		c-0.1,0-0.2-0.1-0.3-0.1C102.6,109.5,102.1,111.4,101.6,113.2z M127.9,66c0.7,0,1.4,0.3,1.6-0.5c0.1-0.2-0.2-0.7-0.3-0.8
		C128.3,64.5,128,65.1,127.9,66z M108.7,125.6c-0.4-0.1-0.8-0.2-1.1-0.3c-0.9,0.7-0.3,1.4,0.1,2.3
		C108,126.8,108.3,126.2,108.7,125.6z M115.2,40.9c0.1,0,0.1,0,0.2,0c0.2-0.9,0.4-1.9,0.6-2.9c-1-0.1-1.3,0.4-1.1,1.2
		C115,39.8,115.1,40.3,115.2,40.9z M120,116.2c0.1,0,0.1,0,0.2,0c0.3-2.4,0.6-4.8,0.9-7.2c-0.1,0-0.1,0-0.2,0
		C120.6,111.3,120.3,113.7,120,116.2z M101.8,110c-0.1,0-0.2-0.1-0.3-0.1c-0.4,1.5-0.8,2.9-1.2,4.4c0.1,0,0.2,0.1,0.3,0.1
		C101,112.9,101.4,111.4,101.8,110z M118.1,37.6c-0.1-0.1-0.2-0.2-0.2-0.2c-0.4,0.1-0.9,0.3-1.3,0.4c0.1,0.6,0.1,1.1,0.2,1.6
		c0.1,0,0.2,0.1,0.3,0.1C117.3,38.9,117.7,38.3,118.1,37.6z M100.8,120.7c0.1,0,0.2,0,0.3,0.1c0.3-1.2,0.7-2.3,1-3.5
		c0-0.2,0-0.4-0.1-0.6c0,0-0.3-0.1-0.3,0c-0.1,0.2-0.1,0.4-0.2,0.5c-0.1,0.6-0.2,1.2-0.3,1.8C101.1,119.6,100.9,120.1,100.8,120.7z
		 M121.7,141.3c0.9-0.8,1.9-1.6,2.8-2.4C123.2,139.3,122,139.8,121.7,141.3z M130.6,63.1c0.7-0.4,1.3-0.7,1.9-1.1
		c-0.4-0.3-0.7-0.5-1-0.8C131.2,61.8,130.3,62.1,130.6,63.1z M77.4,35.5c1.2,0.1,2.1,0.2,3.1,0.3c0-0.4,0-0.7,0-1.1
		C79.5,35,78.6,35.2,77.4,35.5z M129.4,74.7c-0.2,0-0.4-0.1-0.5,0c-0.3,0.1-0.6,0.3-0.9,0.4c0.3,0.2,0.6,0.5,0.9,0.6
		c0.8,0.1,1.6,0.2,2.4,0.2c0,0,0-0.1,0-0.1c-0.8-0.1-1.6-0.3-2.6-0.5C129.1,75,129.3,74.9,129.4,74.7z M109.4,43.1
		c-0.3,1-0.6,1.9-1,3.1C109.7,44.8,109.9,44,109.4,43.1z M112.4,144.5c0,0.1,0.1,0.2,0.1,0.3c0.9-0.3,1.7-0.6,2.6-1
		c0-0.1-0.1-0.2-0.1-0.3C113.8,143.1,113.3,144.3,112.4,144.5z M101.9,101.4c0.1-1.3-0.7-3.2-1.4-3.2
		C101,99.2,101.4,100.2,101.9,101.4z M106.4,24.1c-0.3,0.8-0.6,1.6-0.9,2.4C106.7,26.8,106.6,26.6,106.4,24.1z M114.5,71.6
		c0-0.1-0.1-0.1-0.1-0.2c-1.2,0.6-2.5,1.2-3.7,1.9c0.1,0.1,0.1,0.2,0.2,0.3C112.1,72.9,113.3,72.3,114.5,71.6z M53.1,77.7
		c0-0.1,0.1-0.2,0.1-0.3c-1.7-0.5-3.4-1-5.1-1.5c0,0.1,0,0.1-0.1,0.2C49.7,76.6,51.4,77.2,53.1,77.7z M127.2,34.9
		c0-1-0.8-0.5-1.1-0.4c-0.3,0.1-0.5,0.6-0.8,1c0.1,0.1,0.2,0.1,0.3,0.2C126.1,35.4,126.7,35.1,127.2,34.9z M151.6,103.9
		c-0.1,0-0.2,0-0.3,0c0.1,1.9,0.2,3.7,0.3,5.6c0,0,0,0,0.1,0C151.6,107.6,151.6,105.7,151.6,103.9z M124.2,116.5c0.1,0,0.1,0,0.2,0
		c0.3-1.7,0.6-3.5,0.9-5.2c-0.1,0-0.2,0-0.2,0C124.7,113,124.4,114.8,124.2,116.5z M126,77.8c-0.6-0.5-1.1-0.9-1.5-1.2
		c-0.4,0.2-0.7,0.4-1.1,0.7C124.2,77.4,125,77.6,126,77.8z M112.9,91.6c0,0.1,0,0.2,0,0.4c1,0.1,1.9,0.3,2.9,0.4
		C114.9,91.9,113.9,91.5,112.9,91.6z M122.3,94.1c0-0.2,0-0.3,0-0.5c-0.9-0.1-1.8-0.1-2.8-0.2c0,0.1,0,0.2,0,0.4
		C120.4,93.9,121.4,94,122.3,94.1z M113,40.2c-0.1,0-0.1,0-0.2,0c-0.1,0.7-0.3,1.4-0.4,2.3c0.4-0.1,0.8-0.2,1.1-0.2
		C113.4,41.5,113.2,40.8,113,40.2z M102.8,40.4c0.3,0.7,0.6,1.3,0.9,2c0.1-0.9,0.2-1.6,0.2-2.4C103.4,40.2,103.1,40.3,102.8,40.4z
		 M114.7,40c-0.1,0-0.1,0-0.2,0c-0.2,0.7-0.4,1.4-0.6,2.2c0.5-0.1,0.8-0.2,1.2-0.3C114.9,41.2,114.8,40.6,114.7,40z M122.1,37.9
		c-0.3,0-0.5-0.1-0.8-0.1c0,0.6,0,1.3,0,2c0.1,0,0.2,0,0.3,0.1C121.8,39.1,122,38.5,122.1,37.9z M110.8,39.8
		c-0.1,2.4-0.1,2.4,0.7,2.5c-0.2-0.7-0.3-1.4-0.5-2.1C111,40.1,111,40.1,110.8,39.8z M125.7,137.7c0.6-0.2,1.2-0.5,2-0.8
		C125.8,136.6,125.6,136.7,125.7,137.7z M63.3,58.8c-0.2,0.6-0.4,1-0.6,1.6c0.8-0.5,1.3-0.8,1.9-1.2C64.2,59.2,63.8,59,63.3,58.8z
		 M112.5,50.6c-1.4,0.2-1.7,0.6-1.5,1.6C111.5,51.7,111.9,51.2,112.5,50.6z M175.7,43.8c-0.1-0.1-0.1-0.2-0.2-0.4
		c-0.8,0.4-1.6,0.9-2.3,1.3c0.1,0.1,0.1,0.2,0.2,0.4C174.1,44.7,174.9,44.2,175.7,43.8z M115.4,41.9c0.5-0.1,0.9-0.1,1.3-0.2
		c-0.1-0.5-0.2-1-0.3-1.4c-0.1,0-0.2,0-0.3-0.1C115.9,40.7,115.7,41.2,115.4,41.9z M142.4,68c1.4,0.3,1.8,0.1,1.8-0.9
		C143.6,67.4,143.1,67.7,142.4,68z M194.2,37.2c-0.8-1.2-0.9-1.3-1.7-0.7c0.4,0.3,0.7,0.6,1.2,0.9c-0.1-0.3-0.2-0.5-0.4-0.9
		C193.7,36.9,193.9,37.1,194.2,37.2z M104,24.9c-0.1,0-0.1,0-0.2,0c-0.2,0.6-0.4,1.2-0.6,1.9c0.4-0.1,0.7-0.1,1-0.2
		C104.1,25.9,104.1,25.4,104,24.9z M111.2,81.1c-1.1-0.1-2.2-0.2-3.2-0.2C109,81.7,110.1,81.4,111.2,81.1z M118.7,41.4
		c1.3-0.8,0.6-1.8,0.8-2.6C119.2,39.6,119,40.4,118.7,41.4z M192.4,51.6c-1.1-0.5-1.8-0.7-2.4,0.5C190.8,51.9,191.5,51.8,192.4,51.6
		z M132.6,67.2c0.5-0.4,0.9-0.6,1.3-0.9c0.4-0.3,0.7-0.5,1.1-0.8C133.4,66,132.7,66.4,132.6,67.2z M93.8,78.8c0.8,1.5,1,1.6,1.8,1.4
		C95.1,79.8,94.5,79.3,93.8,78.8z M124.9,94.4c0-0.1,0-0.3,0.1-0.4c-0.7-0.1-1.4-0.2-2.1-0.3c0,0.1,0,0.3-0.1,0.4
		C123.5,94.2,124.2,94.3,124.9,94.4z M92.9,27.5c-0.2-0.6-0.4-1.1-0.6-1.6c-0.1,0-0.1,0-0.2,0c-0.1,0.5-0.2,1-0.3,1.6
		C92.2,27.6,92.5,27.5,92.9,27.5z M83.4,63.4c0,0.1,0,0.1,0,0.2c1.2,0.3,2.4,0.6,3.7,0.9c0-0.1,0-0.2,0.1-0.2
		C85.8,64,84.6,63.7,83.4,63.4z M187.6,68.1c0.1-0.1,0.3-0.2,0.4-0.2c-0.3-0.6-0.7-1.1-1-1.7c-0.1,0.1-0.3,0.1-0.4,0.2
		C187,66.9,187.3,67.5,187.6,68.1z M115.5,20.9c-0.1,0-0.1-0.1-0.2-0.1c-0.4,0.7-0.8,1.5-1.2,2.2c0.1,0.1,0.3,0.1,0.4,0.2
		C114.9,22.4,115.2,21.6,115.5,20.9z M104.5,80.4c1.9-0.3,2.2-0.4,2.2-1.1C106,79.7,105.2,80,104.5,80.4z M75,83.3
		c-0.1,0.5-0.2,0.9-0.3,1.5c0.6-0.5,1.1-0.8,1.6-1.2C75.7,83.5,75.4,83.4,75,83.3z"/>
	<path d="M147.6,139.3c-0.2,0.3-0.3,0.5-0.4,0.6c1,0,1.9-0.1,2.8,0c0.4,0,0.7,0.3,1.1,0.5c0,0.1-0.1,0.2-0.1,0.3
		c-0.2,0.1-0.4,0.1-0.7,0.2c0.1,0.2,0.1,0.5,0.2,0.7c0.6,1.3,0.4,1.8-1.1,2.3c-0.4,0.1-0.7,0.4-1.1,0.6c-0.9,0.4-1.8,1-2.8,1.3
		c-1,0.3-1.3,0-1.3-1.1c0-0.3,0-0.7,0-1c-1.8,0.2-3.5,0.8-5.3,0c-0.5-0.2-1.1,0.2-1.7,0.2c-0.4,0-0.9-0.1-1.1-0.3
		c-0.2-0.2-0.1-0.8,0.1-1c0.7-1,1.4-1.9,2.1-2.8c0.2-0.2,0.5-0.4,0.8-0.4C141.8,139.3,144.6,139.3,147.6,139.3z"/>
	<path d="M165.5,145.9c0.4-0.1,0.8-0.3,1.3-0.4c0-0.1,0-0.2-0.1-0.3c-0.5,0.1-1.1,0.2-1.6,0.3c-1.5,0.1-2.9,0.1-4.4,0.1
		c-1.1,0-2.2,0.1-3.3,0.2c-0.9,0-1.8,0.1-2.7,0c-0.8-0.1-0.9-0.5-0.5-1.2c-0.6,0.5-1.2,1.1-1.8,1.4c-0.7,0.3-1.6,0.2-2.4,0.2
		c0.7-1.2,0.8-3,2.3-3.3c2.2-0.4,4.5-1.7,6.8-0.7c1.9,0.8,3.9,0.5,5.9,0.5c1.1,0,2.2,0.2,3.2,0.4c0.6,0.1,1.1,0.6,1.8,0.1
		c0.2-0.1,0.8,0.5,1.3,0.8c-0.3,0.2-0.6,0.5-0.9,0.6c-0.8,0.3-1.6,0.5-2.3,0.8c-0.8,0.3-1.6,0.5-2.4,0.8
		C165.6,146.2,165.5,146,165.5,145.9z"/>
	<path d="M168.8,147.5c0.2,0.1,0.4,0.2,0.6,0.4c-0.2,0.4-0.3,0.8-0.5,1.2c-0.2-0.5-0.5-1-0.6-1.5c-0.2-0.7,0.8-1.5,1.7-1.4
		c1,0.2,2,0.6,3,0.7c1,0.1,2,0.1,3,0c2.5-0.3,5-0.7,7.5-1.1c0.2,0,0.4,0,0.7-0.2c-0.2-0.1-0.4-0.2-0.5-0.2c0-0.1,0-0.2,0-0.2
		c0.3-0.1,0.6-0.2,0.9-0.3c4.8-1.2,9.5-1.9,14.5-1.7c3.4,0.1,6.8-0.2,10.2-0.4c0.1,0,0.4,0,0.4,0c0.7-1.2,1.6-0.3,2.4-0.3
		c0.8,0,1.6,0,2.3-0.1c0.3-0.1,0.6-0.6,0.9-0.9c-1.4-0.6-3.1-0.2-4.2-1.8c4.2-0.5,8.1-1,12.1-1.5c0-0.1,0-0.2,0-0.4
		c-0.9-0.2-1.8-0.3-2.7-0.5c0-0.1,0-0.2,0-0.3c2.6,0.2,5.2,0.4,7.9,0.6c-1.1-2.9-3.4-3.7-6.1-4c-0.9-0.1-1.8-0.1-2.7,0
		c-0.9,0.1-1.1-0.3-1.3-1c-0.2-0.7,0-1.2,0.7-1.4c0.8-0.2,1.5-0.4,2.3-0.6c0.2,0,0.3,0,0.5-0.1c2.5-0.5,3.1-1.3,2.5-3.9
		c-0.2-0.8-0.4-1.6-0.7-2.5c-0.9,1.1-1.9,1.9-3.3,1.6c-0.3-0.1-0.5-0.4-0.7-0.7c1.9,1.1,2.8-0.4,4.1-1.7c0.6,2,1.6,3.8,1.1,5.8
		c-0.2,0.6-0.9,1.1-1.6,1.4c-1.1,0.4-2.2,0.5-3.3,0.7c-1.3,0.3-1.4,0.5-0.9,1.9c2.6-0.2,5.2-0.4,7.5,1.2c1.1,0.8,1.8,2.1,2.9,3.4
		c-0.6,0.1-0.8,0.2-1,0.2c-0.7,0-1.3-0.1-2-0.1c-1,0-1.9-0.1-2.9,0.4c-1.4,0.7-3,0.7-4.6,0.9c-2.3,0.3-4.5,0.5-6.9,1
		c1.3,0.3,2.7,0.6,4.1,0.9c-1.3,1.8-2.4,2.2-4.4,1.7c-0.4-0.1-0.8,0.1-1.3,0.2c-1.2,0.1-2.3,0.4-3.5,0.4c-4.3,0.1-8.7,0-13,0.3
		c-2.6,0.1-5.2,0.7-7.8,1.1c0,0.1,0,0.2,0,0.3c0.3,0.1,0.6,0.2,0.9,0.3c0,0.1,0,0.2,0,0.3c-0.7,0.1-1.4,0.3-2,0.4
		c-3.2,0.5-6.4,1.1-9.6,1.4c-1.4,0.1-2.8-0.4-4.3-0.5C170.3,146.8,169.4,146.1,168.8,147.5z"/>
	<path d="M207,59.9c0.8-0.5,1.6-0.9,2.2-1.4c0.3-0.3,0.4-0.8,0.7-1.4c0.8,0,1.8,0.4,2.6,1.2c0.2,0.2,0.2,0.7,0,1
		c-0.2,0.4-0.6,0.7-0.9,1c-0.7,0.9-0.5,1.5,0.6,1.8c0.2,0.1,0.5,0.1,0.7,0.1c0.8,0.1,1.2,0.4,1.1,1.3c-0.1,1.1,0.7,1.8,2,1.8
		c2.9,0,5.6-2.7,5.8-5.7c0-0.4,0-0.8,0-1.2c0.1-0.1,0.2-0.1,0.3-0.2c0.2,0.3,0.6,0.6,0.7,0.9c2.4,4.5,2.4,11.6-2.4,15.9
		c0,0,0,0.1-0.1,0.2c0.3,0.2,0.5,0.4,0.8,0.6c0.5,0.4,0.7,0.8,0.3,1.3c-0.5,0.7-0.1,1,0.5,1.2c0.2,0.1,0.3,0.1,0.5,0.1
		c1.1,0.3,1.2,0.6,0.6,1.5c-0.4,0.7-0.9,1.3-1.3,2c-1.1,1.8-0.8,2.2,1.2,2.3c0.6,0,1.2,0,1.8-0.1c1.3-0.1,2.6-0.3,2.9-2.1
		c1.3,1.3,1.5,2.8,1.5,4.3c0.1,4.8-2.1,8.1-6.4,10.2c0.1,0.3,0.3,0.6,0.4,0.9c-1.1-0.9-1.1-1.2,0.2-1.9c4.4-2.3,6.5-7.8,4.6-12.4
		c-1.7,1.9-3.9,1.7-6.1,1.4c-1.1-0.1-1.5-1-1-2c0.6-1.2,1.4-2.3,2.2-3.5c-0.5-0.2-1-0.3-1.5-0.5c-0.5-0.2-1-0.7-0.7-1.3
		c0.5-0.8,0.1-1.2-0.5-1.5c-0.3-0.1-0.5-0.3-0.8-0.5c4.7-4.5,5.2-9.7,2.8-15.5c-0.1,0.2-0.1,0.4-0.1,0.6c-0.5,2.8-3,5.1-5.7,5.3
		c-2.1,0.2-3.1-0.7-3-2.9c-0.6-0.1-1.2-0.2-1.8-0.4c-1.2-0.4-1.5-1.3-0.7-2.3c0.4-0.5,0.8-0.9,1.3-1.5c-0.8-0.4-1.5-0.8-2.3-1.2
		C209.7,58.8,208.6,59.6,207,59.9C207.1,59.9,207,59.9,207,59.9z"/>
	<path d="M223,98.4c-0.1,0.2-0.1,0.4-0.2,0.7c0.7-0.2,1.2-0.5,1.8-0.6c1.6-0.5,3.2,0,3.9,1.5c1.6,2.9,1.5,6,0.3,9
		c-0.4,1-1,1-1.7,0.1c-0.4-0.5-1-1-1.6-1.7c0,0.9-0.8,2.4-1.3,2.8c-0.3,0.3-0.7,0.6-1.1,0.7c-0.9,0.3-1,0.8-0.7,1.5
		c0.3,0.7,0.6,1.3,1.1,2.3c-0.7-0.1-1.1-0.1-1.5-0.2c0-0.1,0-0.1,0-0.2c0.3,0,0.6,0.1,1,0.1c-0.4-0.7-0.7-1.2-1-1.8
		c-0.5-1-0.2-1.6,0.8-2c0.8-0.4,1.5-0.9,2.2-1.3c0,0,0-0.1,0-0.1c0-0.6,0.1-1.1,0.1-1.7c0.5,0.3,1.1,0.5,1.5,0.9
		c0.4,0.3,0.6,0.6,1.1,1.2c0.3-0.6,0.6-1,0.7-1.4c0.5-2,0.6-4.1,0.1-6.2c-0.7-2.9-2.5-3.8-5.3-2.6c-0.3,0.1-0.6,0.1-0.9,0.1
		c0-0.3,0-0.6,0.1-0.9C222.8,98.5,222.9,98.5,223,98.4z"/>
	<path d="M205.8,139.8c-0.5,0.1-0.9,0.4-1.4,0.4c-3.4,0-6.9,0-10.3-0.1c-0.7,0-1.5-0.1-2.2-0.1c0-0.1,0-0.2,0-0.3
		c4.6,0,9.2,0,13.8,0C205.7,139.7,205.7,139.8,205.8,139.8z"/>
	<path d="M37.1,71.4c-0.1,0.4-0.1,0.7-0.2,1.1c-0.1,0.3-0.3,0.7-0.5,1c1-0.2,2-0.5,3-0.7c0,0.1,0.1,0.2,0.1,0.3
		c-0.9,0.4-1.8,0.9-2.8,1.3c-0.3,0.1-0.6,0-1,0.1c0-0.4,0-0.8,0.1-1C36.2,72.7,36.7,72.1,37.1,71.4C37.2,71.4,37.1,71.4,37.1,71.4z"
		/>
	<path d="M44.8,58c-0.2-0.6-0.5-1.2-0.7-1.7c0.1-0.1,0.2-0.1,0.3-0.2c1.1,1,2.1,1.9,3.2,2.9c0,0.1-0.1,0.1-0.1,0.2
		c-0.8-0.5-1.6-1-2.3-1.5c0,0,0,0.2-0.1,0.3C44.9,58,44.8,58,44.8,58z"/>
	<path d="M221,119.8c-0.4-0.6-1-1.2-1.2-1.9c-0.2-0.7,0-1.5,0.1-2.2c0.1,0,0.2,0,0.3,0c0,0.8-0.2,1.7,0.1,2.3c0.3,0.6,1.1,1,1.7,1.5
		C221.7,119.5,221.3,119.6,221,119.8L221,119.8z"/>
	<path d="M203.3,64C203.3,64,203.4,63.9,203.3,64c0-0.2-0.1-0.4-0.3-0.9c1.6,0.5,3.1,0.9,4.5,1.3c0,0.1,0,0.2,0,0.3
		c-0.3,0-0.7-0.1-1-0.2c-0.8-0.2-1.6-0.6-2.4-0.8C203.9,63.7,203.6,63.9,203.3,64z"/>
	<path d="M151,101.6c-0.1-0.2-0.3-0.3-0.3-0.5c0.1-1.5,0.3-3,0.4-4.5c0.1,0,0.2,0,0.4,0c-0.1,0.7-0.3,1.4-0.4,2.2
		C151,99.8,151,100.7,151,101.6C151,101.6,151,101.6,151,101.6z"/>
	<path d="M221,119.8c-0.2,0.3-0.4,0.7-0.6,1c0.6,0.2,1.2,0.4,1.8,0.7c-0.2,0.7-0.9,0.3-1.3,0.1c-0.4-0.2-0.7-0.7-0.8-1.1
		C220.1,120.1,220.3,119.5,221,119.8C221,119.8,221,119.8,221,119.8z"/>
	<path d="M135.6,149.9c0.6-0.7,1.2-1.5,1.8-2.2c0,0,0.2,0.3,0.4,0.6c-0.7,0.6-1.4,1.2-2.1,1.8C135.7,150,135.6,150,135.6,149.9z"/>
	<path d="M219.5,124.4c-0.1-1.1,0.9-1.8,2.7-1.6c-0.4,0.1-0.7,0.1-1,0.3c-0.3,0.1-0.7,0.3-1,0.5
		C219.8,123.7,219.7,124.1,219.5,124.4z"/>
	<path d="M85.3,36.2c0.7-0.9,1.4-1.8,2.1-2.6c0.3-0.4,0.8-0.7,1.2-1c0.1,0.1,0.2,0.2,0.3,0.3c-1,1-1.9,2-2.9,3
		C85.8,35.9,85.5,36,85.3,36.2z"/>
	<path d="M74.4,78.5c1.8-0.7,3.6-1.4,5.5-2.1c0,0.1,0.1,0.1,0.1,0.2c-1.8,0.7-3.6,1.4-5.4,2.1C74.5,78.7,74.5,78.6,74.4,78.5z"/>
	<path d="M184.4,50.9c-0.5-0.2-0.7-0.3-0.9-0.4c-0.5,0.3-0.9,0.6-1.3,0.9c-0.1,0-0.2,0-0.3-0.1c0.1-0.3,0.1-0.6,0.2-1
		c0,0-0.3,0.1-0.6,0c-0.2,0-0.3-0.1-0.5-0.2c0.1-0.2,0.2-0.4,0.3-0.5C182.1,49.4,183.7,49.9,184.4,50.9z"/>
	<path d="M178.5,34.3c0.1-0.1,0.2-0.1,0.3-0.2c0.6-0.3,1.3-0.6,1.6-1.1c0.2-0.3-0.2-1.1-0.3-1.5c1,0.2,1.7,0.9,1.8,1.9
		c-0.2-0.4-0.5-0.7-0.7-1.1c-0.4,0.5-0.6,1.2-1,1.5C179.7,34.2,179.1,34.1,178.5,34.3C178.5,34.2,178.5,34.3,178.5,34.3z"/>
	<path d="M141.6,53.2c-0.3-0.1-0.6-0.1-0.9-0.2c0,0.2,0,0.4-0.1,0.7c-0.5-0.2-0.9-0.3-1.3-0.4C140.2,53.9,140.8,51.8,141.6,53.2z"/>
	<path d="M98.5,62.3c0.8-0.3,1.6-0.6,2.6-1c-0.8-0.4-1.3-0.7-1.8-1c0-0.1,0.1-0.2,0.1-0.3c0.6,0.3,1.2,0.6,1.8,0.8
		c0.2,0.1,0.5,0.2,0.7,0.1c0.6-0.2,1.3-0.4,1.9-0.6c0.2-0.1,0.5,0,0.9,0c-2.2,0.8-4.2,1.5-6.2,2.2C98.5,62.5,98.5,62.4,98.5,62.3z"
		/>
	<path d="M85.9,62.8c1.5-1,2.3-1,3-0.1c-0.5,0.2-1,0.5-1.5,0.7c0,0-0.1-0.1-0.1-0.1c0.3-0.3,0.5-0.6,0.9-1c-0.5,0.1-0.9,0.3-1.2,0.3
		C86.6,62.7,86.2,62.7,85.9,62.8z"/>
	<path d="M96.6,58.1c-0.9-0.1-1.9-0.1-2.9-0.2C94.7,56.9,95,57,96.6,58.1z"/>
	<path d="M86,103.4c0,0.3,0,0.6,0,0.9c-2.1-5.1-2.7-10.4-1.7-15.8C84.2,93.6,84.4,98.6,86,103.4C86,103.5,86,103.4,86,103.4z"/>
	<path d="M104.9,33.8c-0.1,0.7-0.2,1.5-0.3,2.2c0.4-0.1,0.9-0.1,1.6-0.3c-1,0.8-1.9,1.4-2.8,2.1c0.1-0.3,0.1-0.4,0.3-0.7
		c-1.1,0.3-2.1,0.9-2.9,0.7c-1-0.3-1.9,0.1-2.8,0c1.4-0.4,2.7-0.8,4.1-1.2c0.4-0.1,0.8-0.5,1.2-0.7c-0.1-0.1-0.1-0.2-0.2-0.3
		c-1.1,0.2-2.1,0.5-3.2,0.7c1.5-1.1,3.9-0.3,4.8-2.6C104.8,33.7,104.9,33.8,104.9,33.8z"/>
	<path d="M101.5,30.8c0.1,0.1,0.2,0.2,0.2,0.2c-1.5,0.2-3.1,0.4-4.7,0.7c-0.2-1.2-1.3-0.2-2-0.7c2.3-0.2,4.4-0.3,6.6-0.5
		C101.6,30.6,101.5,30.7,101.5,30.8z"/>
	<path d="M82.8,37.3c2.1-2.2,4.2-4.3,6.3-6.5c0.1,0.1,0.1,0.1,0.2,0.2c-2.1,2.2-4.2,4.4-6.3,6.5C83,37.4,82.9,37.4,82.8,37.3z"/>
	<path d="M102.7,32c-1.9,0.2-3.7,0.5-5.6,0.7c0-0.1,0-0.3,0-0.4c1.9-0.3,3.7-0.5,5.6-0.8C102.7,31.7,102.7,31.9,102.7,32z"/>
	<path d="M93.3,40.2c-1.7,1.3-4,1.5-4.9,0.4c0.2,0.1,0.3,0.2,0.4,0.2C90.3,40.4,91.9,41.5,93.3,40.2z"/>
	<path d="M102.4,33.7c-2,0.4-4,0.8-6,1.1c0-0.1,0-0.2-0.1-0.3c2-0.3,4-0.7,6-1C102.4,33.5,102.4,33.6,102.4,33.7z"/>
	<path d="M103.6,32.4c-1.8,0.3-3.6,0.7-5.4,1c0,0-0.1,0-0.3-0.2c2-0.3,3.8-0.6,5.7-0.9C103.5,32.3,103.6,32.3,103.6,32.4z"/>
	<path d="M102.4,38.7c-1.3,0.2-2.6,0.3-4,0.5c0-0.1,0-0.2,0-0.4c1.3-0.1,2.7-0.3,4-0.4C102.4,38.4,102.4,38.6,102.4,38.7z"/>
	<path d="M134.7,43.1c0.4-0.9,1-1.3,2-1.1c-0.4-0.1-0.7-0.3-1.2-0.4c0.9-0.6,1.6-0.1,2.3,0.2c0.1,0,0.1,0.6-0.1,0.7
		c-0.4,0.3-0.8,0.5-1.3,0.6C136,43.2,135.4,43.1,134.7,43.1z"/>
	<path d="M130.2,45.8c-0.5,0.5-0.8,1-1.4,1.4c-0.5,0.3-1.2,0.5-1.6-0.5c0.9-0.4,1.8-0.7,2.7-1C130,45.7,130.1,45.8,130.2,45.8z"/>
	<path d="M121.8,50.1c0.5-0.3,1-0.5,1.5-0.8c0.1,0.1,0.1,0.2,0.2,0.3c-0.5,0.3-0.9,0.7-1.4,1C122,50.5,121.9,50.3,121.8,50.1z"/>
	<path d="M188.5,59.7c-0.6-0.1-1.1-0.2-1.5-0.3c-1.2,0-2.3,0-3.5,0c-0.6,0-1-0.9-0.8-2.1c0.2,2,1.6,1.7,2.7,1.8
		c1,0.1,2.2,0.4,3.1-0.7c0.2,0.2,0.5,0.3,0.8,0.6C188.9,59.4,188.6,59.6,188.5,59.7z"/>
	<path d="M198.5,53.2c0,0.3-0.2,0.6-0.1,0.8c0.4,1.1-0.1,1.9-0.9,2.5c-0.1-0.1-0.2-0.1-0.3-0.2c0.3-0.6,0.6-1.1,1-1.8
		C197.9,54.1,197.6,53.5,198.5,53.2C198.5,53.2,198.5,53.2,198.5,53.2z"/>
	<path d="M183.7,60.7c0.7,0.1,1.4,0.1,2.3,0.2C185,61.7,184.3,61.4,183.7,60.7z"/>
	<path d="M138.5,85c-0.2-0.2-0.4-0.3-0.8-0.6c0.5,0.2,0.8,0.2,1,0.4c0.1,0.1,0.2,0.5,0.2,0.5c-0.5,0.3-1,0.5-1.5,0.8
		c-0.1-0.1-0.1-0.2-0.2-0.3C137.5,85.5,137.9,85.3,138.5,85z"/>
</g>
</svg>
