<?xml version="1.0" encoding="utf-8"?>
<!-- Generator: Adobe Illustrator 24.0.2, SVG Export Plug-In . SVG Version: 6.00 Build 0)  -->
<svg version="1.1" id="Слой_1" xmlns="http://www.w3.org/2000/svg" xmlns:xlink="http://www.w3.org/1999/xlink" x="0px" y="0px"
	 viewBox="0 0 238.1 150.2" style="enable-background:new 0 0 238.1 150.2;" xml:space="preserve">
<g>
	<path d="M56.7,0c-0.9,4.1-1.8,8.1-2.6,12.2c-0.4,2.2-0.7,4.5-1,6.8c-0.1,0.7,0,1.4,0,2.1c0,0.3-0.2,0.5-0.3,0.8
		c-0.2-0.2-0.4-0.4-0.5-0.6c-0.7-2-1.4-4-2.1-6c-0.1-0.2-0.2-0.5-0.4-0.7c-0.1,0-0.2,0.1-0.2,0.1c0.5,2.3,1.1,4.5,1.6,6.8
		c-0.1,0.1-0.2,0.1-0.3,0.2c-0.2-0.3-0.4-0.7-0.5-1c-0.7-3.2-1.4-6.3-2.2-9.5c-0.1-0.3-0.1-0.6-0.3-0.9c-0.7,7.7-1,15.5-0.6,23.2
		c-0.1,0-0.2,0-0.4,0c-0.1-0.9-0.2-1.8-0.4-2.7c-0.1,0-0.2,0-0.3,0c0,2.9,0,5.8,0,8.7c-0.1,0-0.2,0.1-0.3,0.1
		c-0.7-1.2-1.4-2.5-2.3-3.9c0,1.2,0,2.2,0,3.3c1.6-0.2,1.4,1.3,1.7,2.2c1.3,4.1,2.3,8.4,3.5,12.5c0.9,3.2,1.8,6.4,2.9,9.5
		c1.2,3.3,2.6,6.5,3.8,9.7c0.7,1.9,1.4,3.8,2.1,5.7c1.3,3.5,2.6,7.1,4.1,10.5c1.4,3.3,2.9,6.6,4.5,9.8c1.7,3.2,4,5.8,6.3,8.5
		c5,5.8,10.7,10.4,16.5,15c3,2.4,5.9,4.9,9,7c5.6,3.8,11.3,7.3,17.3,10.3c1.6,0.8,3.3,1.7,5,2.3c2.5,0.8,5.1,0.6,7.7-0.2
		c4.4-1.4,8-4.6,11.7-7.4c4.7-3.6,9.3-7.2,13.7-11.1c5.3-4.6,10.6-9.3,15.7-14.2c3.1-2.9,6.1-5.9,8.4-9.6c1.3-2.1,2.2-4.5,3.4-6.6
		c2-3.4,3.2-7.2,4.5-11c1.7-5,3.3-10.1,4.8-15.2c0.8-2.5,1.3-5.1,2.1-7.7c0.8-2.6,1.8-5,2.5-7.6c0.8-3.1,1.4-6.3,2.1-9.4
		c0.1-0.3,0.1-0.7,0.2-1c0.3-1.1,0.2-2.1-0.1-3.1c-0.6-2.4-1.2-4.8-1.5-7.3c-0.8-5.5-1.5-11.1-3.2-16.4c0-0.1-0.1-0.3-0.2-0.4
		c-0.1,0-0.2,0-0.2,0.1c0.6,5.8,1.2,11.6,1.8,17.4c-0.1,0-0.3,0.1-0.4,0.1c-0.1-0.4-0.3-0.9-0.3-1.3c-0.5-4.5-1-8.9-1.6-13.4
		c-0.4-3.1-0.9-6.3-1.4-9.4c-0.1-0.4-0.3-0.8-0.6-1.2c0,0.3-0.1,0.6-0.1,0.9c0.1,4.2-0.1,8.3-0.7,12.4c0,0.3-0.2,0.6-0.3,1
		c-0.2-0.2-0.3-0.3-0.3-0.4c0.4-2.1-0.5-4-1.2-5.8c-1.3-3.7-2.8-7.4-4.2-11c-0.2-0.6-0.6-1.1-1-1.6c0.8,3.4,2.2,6.6,2.4,10.2
		c-1.3-3.9-2.7-7.7-4-11.6c10.7,0,21.4,0,32.2,0c-0.1,0.4-0.3,0.8-0.4,1.2c-0.5,1.5-0.5,1.6,0.7,2.4c2.7,1.7,3.6,4.7,3.9,7.7
		c0.5,6.5,0.3,13.1-0.7,19.6c-0.4,3-1.2,5.8-2.2,8.5c-0.8,2-1.8,4-2.7,5.9c-0.6,1.1-1.2,2.2-1.9,3.2c-2.3,3.6-4.7,7.2-6.9,10.8
		c-2.1,3.4-4.1,7-6.3,10.3c-1.5,2.2-3.5,3.7-5.9,4.4c-0.3,0.1-0.7,0.6-0.9,0.9c-0.8,2.2-1.5,4.5-2.3,6.7c-0.5,1.5-0.5,1.5,0.8,2
		c0.1,0,0.2,0,0.3,0.1c2.4,0.9,4.8,1.7,7.2,2.8c2.5,1.1,5.1,2.3,7.5,3.5c3.6,1.9,7.2,3.9,10.8,5.9c0.5,0.3,0.9,0.8,1.1,1.4
		c0.4,1.3,0.7,2.7,1,4c0.6,3,1.7,5.8,3.4,8.1c3.5,4.8,7.8,8.7,13.3,10.2c0.5,0.1,1.1,0.5,1.5,1c0.8,0.9,1.4,1.8,2.1,2.8
		c0.9,1.4,1.8,2.8,2.7,4.2c0,7.7,0,15.4,0,23c-0.6,0-1.2,0-1.9,0c-0.2-0.1-0.4-0.1-0.7-0.2l0,0c-0.7-0.1-1.4-0.2-2.1-0.3
		c0,0.1,0,0.1,0,0.2c0,0.1,0,0.2,0,0.3c-3.7,0-7.3,0-11,0c-0.2-0.1-0.4-0.1-0.7-0.2l0,0c-0.3-0.1-0.7-0.2-1-0.4
		c-0.5-0.3-0.5-0.1-0.5,0.4c-0.2,0-0.5,0-0.7,0l0,0c-0.3,0.1-0.6,0.1-1,0.2c-0.6,0-1.1,0-1.7,0c-0.4-0.1-0.7-0.2-1.1-0.3
		c0,0,0,0,0,0c0-0.4-0.1-0.9-0.1-1.3c0-0.2,0-0.5-0.2-0.6c-0.1-0.1-0.4,0.1-0.6,0.1c-0.4,0.1-0.8,0.3-1.2,0.5
		c-0.2,0.1-0.5,0.2-0.6,0.3c0.1,0.6,0.2,1,0.3,1.4c-0.1,0-0.1,0-0.2,0c-0.2,0-0.4,0-0.6,0c-1.3,0-2.6,0-3.9,0
		c0.1-0.3,0.3-0.5,0.4-0.8c0.2-0.2,0.3-0.3,0.5-0.5c-0.3-0.3-0.6-0.5-0.8-0.8c0.1,0.1,0.1,0.2,0.2,0.3c-0.3,0.1-0.6,0.3-1,0.4
		c0,0.2,0,0.3,0,0.5c0.6-0.7,1-0.7,1.1,0.1c-0.4,0.1-0.8,0.2-1.3,0.3c0-0.1,0-0.1,0-0.2c-0.4,0.2-0.9,0.4-1.3,0.7
		c-0.1,0-0.1,0-0.2,0c-0.2,0-0.4,0-0.6,0c-0.6,0-1.1,0-1.7,0c-0.2-0.1-0.4-0.1-0.7-0.2c-0.1,0-0.2,0-0.3,0c-0.3,0-0.5,0-0.8,0
		c-0.2,0-0.4,0-0.5,0c-0.2,0-0.4,0-0.6,0l0,0c-0.4,0.1-0.8,0.1-1.2,0.2c-0.9,0-1.9,0-2.8,0c-0.2,0-0.4,0-0.6,0c-0.6,0-1.1,0-1.7,0
		c-0.2,0-0.4,0-0.6,0c-1.4,0-2.7,0-4.1,0c-0.2,0-0.4,0-0.6,0c-1.2,0-2.4,0-3.5,0c0-0.1,0.1-0.3,0.1-0.4c0.9-1.9,1.9-3.8,2.6-5.8
		c1.1-3.2,1-6.6,1.1-9.9c0-0.1-0.1-0.3-0.2-0.5c-0.5,0.5-1,1-1.5,1.3c-1.2,0.7-2.5,1.4-3.7,2.1c-0.9,0.5-2,0.8-2.2,2.3
		c-0.1,0.7-0.7,1.2-1.6,1.2c-0.9,0.1-1.7,0.3-2.6,0.5c-0.2,0-0.4,0-0.8-0.1c0.5-0.4,0.7-0.8,1-0.9c0.7-0.2,1.5-0.4,2.2-0.5
		c0.5-0.1,1-0.1,1.1-0.7c0.2-1.1,0.9-1.5,1.7-1.9c2.3-1.2,4.7-2.4,6.5-5c-0.8-0.5-1.5-1.1-2.3-1.5c-1.9-1.1-4-1-6-1
		c-1.2,0-2.3,0.3-3.3,1.2c-4.4,3.9-9.4,6.5-14.4,8.9c-5.8,2.7-11.8,4.3-18.1,5.2c-5.1,0.7-10.2,0.9-15.3,0.8
		c-4.7-0.1-9.3-0.3-14-0.3c-5.1,0-10.3-0.2-15.4-0.8c-5-0.5-10.1-0.6-15-1.9c-3.2-0.8-6.5-1.3-9.7-2.5c-3-1.1-5.8-2.7-8.6-4.3
		c-2.9-1.6-5.5-3.8-7.7-6.7c-0.2-0.3-0.6-0.6-0.7-0.6c-1.1,0.5-2.5-0.1-3.2,1.5c-1.3-0.7-1.9-0.5-2.5,0.8c-0.3-0.1-0.7-0.4-1-0.3
		c-0.8,0.2-1.6,1.5-1.5,2.4c0.3,2.7,0.6,5.4,1,8.1c0.5,3,1.1,6,1.6,9c-18,0-35.9,0-53.9,0c0-2.2,0-4.3,0-6.5
		c0.1-0.1,0.2-0.2,0.2-0.3c-0.1,0-0.2-0.1-0.2-0.1c0-1.7,0-3.4,0-5c0.4-0.6,0.8-1.2,1.2-1.9c-0.1-0.1-0.1-0.1-0.2-0.2
		c-0.4,0.3-0.7,0.5-1.1,0.8c0-0.3,0-0.7,0-1c1.5-1.2,3.1-2.3,4.6-3.6c4.3-3.6,8.1-7.7,10.8-13.1c1.6-3.2,3.3-6.2,3.9-9.8
		c0.4-2,1.2-3.7,2.9-5c2.8-2,5.9-3.3,8.7-5.4c3.3-2.5,7-4.3,10.6-6.4c3.5-2,7.1-3.9,10.6-5.7c1.8-0.9,3.7-1.7,5.5-2.5
		c0.4-0.2,0.9-0.2,0.6-1c-1.2-3.2-2.3-6.4-3.5-9.6c-0.2-0.6-0.6-0.8-1.2-0.8c-2.3,0.1-4.3-1-5.7-2.9c-1.7-2.1-2.9-4.6-4.4-6.9
		c-1.6-2.4-3.1-4.9-4.9-7.1c-4.5-5.3-8.8-10.7-10.8-17.8c-0.3-1-0.7-2.1-0.7-3.1c-0.2-4.7-0.4-9.4-0.4-14.1c0-5-0.2-10,0.8-14.9
		c0.3-1.2,0.1-2.8,1.1-3.6c0.9-0.8,1.1-1.6,0.9-2.7c0-0.2,0-0.3,0-0.5C38.6,0,47.7,0,56.7,0z M53.8,117.1c-0.2,0.1-0.4,0.1-0.3,0.1
		c-0.1,0.7-0.1,1.2-0.2,1.8c0.2,0.1,0.4,0.4,0.7,0.7C53.9,118.7,53.8,117.9,53.8,117.1c-0.1-0.6-0.3-1.2-0.4-2c0,0,0.1-0.2,0.2-0.4
		c-0.1-0.1-0.1-0.1-0.2-0.2c-0.2,0.3-0.5,0.6-0.7,0.8C53.1,116,53.4,116.6,53.8,117.1z M215.2,139.8c0.1,0.5,0.3,1.1,0.4,1.6
		c0.1,0,0.2-0.1,0.3-0.1c-0.1-0.8-0.2-1.6-0.3-2.4c-0.1,0-0.3,0-0.4,0.1C215.2,139.2,215.2,139.4,215.2,139.8
		c-0.5-0.6-1-1.1-1.6-1.6c-0.3,0.3-0.5,0.6-0.7,0.9c0.8-0.4,1.3-0.2,1.7,0.6C214.6,139.8,215,139.7,215.2,139.8z M159.5,126.3
		L159.5,126.3c-0.5,1.4-1.1,2.8-1.6,4.3c1.9-0.2,3.2-1.2,4.3-2.5c0.2-0.2,0.3-0.7,0.3-1c-0.2-2.6,0.4-5.1,0.9-7.6
		c0.2-1.2,0.4-2.4,0.7-3.9c-1.5,1.3-2.6,2.6-4,3.5c-0.9,0.6-1.2,1.3-1.5,2.3c-0.5,1.9-1.1,3.7-1.7,5.5c0-1.9,1.3-3.6,1-5.6
		c-0.9,0.7-1.7,1.3-2.4,2c-0.5,0.4-0.9,0.8-1.4,1.3c-0.2,0.2-0.4,0.4-0.5,0.6c-0.2,0.6-0.4,1-1,0.9c-0.1,0-0.3,0.2-0.5,0.3
		c-1,0.5-1.3,1.5-1.7,2.5c-0.2-0.9-0.7-0.5-1-0.2c-0.3,0.3-0.6,0.7-1,1c-0.5,0.4-1.2,0.8-1.5,1.3c-0.6,1.2-1,2.5-1.4,3.7
		c0,0.1,0.2,0.5,0.4,0.6c0.7,0.1,0.9-0.5,1.1-1.1c0.4-1.3,0.8-2.5,1.2-3.8c0.1,0,0.2,0.1,0.3,0.1c-0.3,1.1-0.7,2.3-0.9,3.4
		c-0.1,0.3,0.1,0.6,0.1,0.9c0.3-0.2,0.7-0.2,0.9-0.5c0.3-0.5,0.3-1,0.5-1.6c0.5-1.3,0.9-2.6,1.4-3.9c-0.4,1.5-0.7,3-1.1,4.5
		c-0.1,0.3,0.1,0.7,0.1,1c0.3-0.2,0.7-0.2,1-0.5c0.2-0.2,0.3-0.7,0.4-1c0.5-1.6,1-3.2,1.4-4.7c0.1,0,0.2,0.1,0.3,0.1
		c-0.1,0.4-0.1,0.8-0.3,1.1c-0.4,1.2-0.8,2.5-1.2,3.7c-0.1,0.2,0.1,0.5,0.2,0.8c0.3-0.1,0.6-0.2,0.8-0.4c0.1-0.1,0.1-0.4,0.2-0.6
		c0.5-1.8,1-3.6,1.4-5.4c0.1,0,0.2,0.1,0.3,0.1c-0.1,0.5-0.2,0.9-0.3,1.4c-0.2,1.2-0.5,2.4-0.7,3.7c0,0.2,0.2,0.5,0.3,0.6
		c0.5,0.2,1.9-0.9,2.1-1.4c0.3-1.3,0.7-2.7,1.1-4c0.1,0,0.1,0,0.2,0.1c-0.3,1.4-0.6,2.8-0.9,4.4c1-0.3,1.2-0.8,1.4-1.6
		C157.6,128.9,157.8,127,159.5,126.3z M41.6,44.1c-0.1-0.4-0.2-0.8-0.3-1.2c-0.5-2.4-0.1-5-1.3-7.2c-0.1-0.1-0.1-0.3,0-0.4
		c0.4-1.3,0.7-2.7,1.2-3.9c0.2-0.5,0.4-0.8,0.2-1.4c-0.7-2.7-1.4-5.3-2.1-8c-0.3-1.1-0.5-2.2-0.7-3.2c-0.1,0-0.2,0-0.3,0.1
		c0.1,1.6,0.1,3.3,0.2,4.9c-0.5-2.7-0.8-5.4-1.2-8.2c-0.1-1-1.4-2.1-2.1-1.7c-1,0.6-1.8,1.5-2.2,2.7c-0.2,0.6-0.5,1.2-0.8,1.8
		c0.1-2.1,1.2-3.6,2.3-5.3c-0.4-0.1-0.7-0.1-1-0.2c-0.9-0.3-1.3,0-1.5,1.2c-0.2,1.3-0.6,2.6-0.8,3.9c-0.1,0.6,0,1.2,0,1.8
		c0.1,0,0.2,0,0.3,0c0.2-0.5,0.5-1,0.7-1.4c-0.3,2.2-0.7,4.5-1,6.7c0,0.3-0.3,0.5-0.4,0.8c-0.1,0-0.2-0.1-0.3-0.1c0-1-0.1-2,0-3
		c0.2-2.6,0.5-5.2,0.8-7.8c0.1-0.9,0.2-1.8,0.5-2.6c0.1-0.4,0.7-0.8,1-0.8c0.9,0.2,1.8,0.5,2.7,0.9c0.5,0.3,1,0.8,1.6,1.3
		c0-0.6,0-1,0-1.4c-0.1-1.6-0.3-3.2-0.4-4.8c0-1-0.3-1.6-1.1-1.9C34,5,32.5,4.3,30.9,3.6c-0.7-0.3-1.3-0.2-1.6,0.8
		c-0.2,0.6-0.5,1.1-0.6,1.7c-0.3,2.3-0.8,4.7-0.9,7c-0.2,4.6-0.2,9.2-0.2,13.8c0,5.8,0.5,11.4,3.4,16.4c1.4,2.5,2.9,5,4.7,7.1
		c3.7,4.4,7.1,9,9.9,14.1c1.6,2.9,3.7,5,6.3,6.6c0.5,0.3,1,0.4,1.8,0.7c-0.1-0.6-0.2-0.8-0.2-1.1c-1-3.3-2.2-6.6-3.1-9.9
		c-0.7-2.3-1.6-4.3-3.4-5.7c-2-1.5-4.4-2.3-6-4.4c-0.3-0.4-0.6-0.8-0.9-1.2c0.1-0.1,0.2-0.2,0.3-0.3c0.5,0.3,1,0.7,1.5,1
		c-0.6-1.5-1.2-3-1.7-4.4c-0.1-0.3-0.2-0.7-0.1-0.9c1-1.2,0.3-2.2-0.2-3.2c-0.8-1.8-0.4-3.5-0.1-5.3c0.2,1,0.3,2,0.4,2.9
		c0.2,1.8,0.4,3.5,0.6,5.3c0.2,1.4,0.2,2.9,1.4,4.2C41.9,47.2,41.8,45.7,41.6,44.1c0.3,1.5,0.6,3,0.9,4.5c0.3,1.1,0.7,2.2,1.1,3.4
		c0.1,0,0.2-0.1,0.3-0.1C43,45.7,42,39.6,41.1,33.5c-0.1,0-0.2,0-0.3,0c0,0.5-0.1,1.1-0.1,1.6c0.1,1.4,0.3,2.8,0.5,4.2
		c0,0.1,0,0.3,0.1,0.4C41.4,41.2,41.5,42.6,41.6,44.1z M189.5,71.7c0.1,0.1,0.1,0.1,0.2,0.2c0.2-0.1,0.4-0.1,0.6-0.2
		c3.6-1.8,6-5.1,8-8.8c3.1-5.5,6.3-10.9,9.9-16c3.5-4.9,6-10.5,6.7-16.8c0.7-5.7,1-11.5,0.6-17.3c-0.2-2.4-1-4.6-2.1-6.6
		c-0.9-1.6-2.7-2.2-4.1-1.1c-1.8,1.3-4,2.4-4.1,5.5c0,1.3,0,2.6,0,3.9c0.1,0,0.2,0,0.2,0c1.6-1.7,3.1-3.5,4.7-5.1
		c0.4-0.4,0.7-1.1,1.3-1c-0.1,0.6-0.4,1-0.3,1.4c0.3,1.3,0.8,2.6,1.1,3.9c0.1,0.4,0,0.8,0,1.2c-0.1,0-0.2,0.1-0.3,0.1
		c-0.1-0.3-0.3-0.6-0.4-0.9c-0.2-0.9-0.4-1.8-0.6-2.7c-0.3-1-0.6-1.1-1.3-0.4c-0.7,0.7-1.4,1.4-2,2.2c-0.2,0.2-0.2,0.4-0.3,0.7
		c2.4,1.3,3.9,3.4,3.6,5.3c-0.4-0.9-0.7-1.8-1.2-2.5c-0.5-0.8-1.1-1.6-1.8-2c-1.1-0.6-2.5,0.4-2.7,2.1c-0.5,3.6-0.5,7.2,0.4,10.8
		c0.2,0.9-0.2,1.3-0.7,1.7c-0.6,0.4-0.8-0.2-1.1-0.6c-0.2-0.3-0.4-0.7-0.5-1.1c-0.3-2.3-0.6-4.7-0.8-7c-0.1-0.5-0.1-1-0.2-1.6
		c-0.2,0.2-0.2,0.2-0.2,0.2c-0.9,4.9-1.9,9.8-2.8,14.7c-0.1,0.3,0.3,0.7,0.5,1c0.4,0.5,0.9,0.9,1.3,1.3c-0.1,0-0.3,0.1-0.4,0.1
		c-0.1,0.5-0.3,1.2-0.2,1.4c0.7,0.5,0.5,1.2,0.4,1.9c-0.7,3.3-1.4,6.6-2,9.9c-0.2,1-0.2,2.1-0.3,3.1c0.1,0.1,0.3,0.1,0.4,0.2
		c0.2-0.5,0.6-1,0.7-1.5c0.5-2.9,1-5.9,1.5-8.8c0.1-0.4,0.3-0.9,0.4-1.3c1,1.1,0.8,2.2,0.6,3.5c-0.1-0.6-0.2-1.1-0.3-1.6
		c-0.1,0-0.2,0-0.3,0c-0.5,2.7-1,5.3-1.5,8c0.1,0.1,0.2,0.1,0.3,0.2c0.3-0.5,0.6-0.9,0.8-1.4c0.2-0.7,0.2-1.4,0.3-2.1
		c0.1-0.3,0.2-0.6,0.4-0.9c0.1,0,0.2,0.1,0.3,0.1c0,0.4,0,0.8,0,1.2c0.4-0.2,0.6-0.4,0.7-0.7c0.6-1.1,1.1-2.2,1.7-3.2
		c0.2-0.3,0.5-0.5,0.7-0.8c0.1,0.1,0.1,0.1,0.2,0.2c-0.4,0.7-0.8,1.4-1.1,2.1c-1,2.5-2.2,4.8-4,6.8c-0.3,0.3-0.4,0.7-0.6,1.1
		c-0.1,0.2-0.3,0.4-0.5,0.5c-0.3,0.2-0.8,0.2-1,0.4c-1.1,0.8-2.1,1.8-3.2,2.5c-1.2,0.8-1.9,2-2.3,3.4c-0.8,2.9-1.5,5.8-2.3,8.7
		C190.2,69.5,189.8,70.6,189.5,71.7z M83.8,120.3c-0.1,0.1-0.2,0.1-0.3,0.2c0,0.2,0,0.5,0,0.7c0.4,1.7,0.8,3.5,1.3,5.2
		c0.5,1.5,0.9,3.1,2.4,3.9c0.6,0.4,1.2,1,1.7,1.5c0.2,0.2,0.5,0.3,0.7,0.4c-0.2-0.8-0.4-1.4-0.7-2c-0.3-0.6-0.8-1.2-0.1-2
		c1.2,3.7,1.7,4.5,2.6,4.8c0-0.3,0.1-0.6,0-0.8c-0.7-2.4-1.4-4.8-2.2-7.2c-0.2-0.6-0.8-1-1.2-1.5c-0.1,0.1-0.2,0.1-0.3,0.2
		c0.1,0.4,0.1,0.9,0.2,1.3c0.1,0.4,0.2,0.8,0.4,1.2c-0.6-1-1-2.1-1.4-3.1c-0.4-0.9-0.9-1.2-1.6-0.9C84.8,121.7,84.3,121,83.8,120.3z
		 M197.6,50.1c0.2,0.3,0.3,0.5,0.4,0.8c0.1,0,0.2-0.1,0.3-0.1c-0.1-0.7-0.5-1.5-0.4-2.2c0.2-2.1,0.7-4.2,1-6.3c0.1-1,0-2,0.1-3
		c0-0.5-0.1-1.1,0.1-1.6c0.3-1,0.3-2-0.2-2.6c-0.2,2-0.3,3.9-0.5,5.7c0,0-0.1-0.1-0.2-0.1c-0.1,0.4-0.2,0.8-0.2,1.2
		c0,0.8,0.2,1.8-0.1,2.5c-0.6,1.8-0.5,4-1.6,5.6c-0.1,0.1,0,0.3,0,0.4c0.1,0.8,0.1,1.5,0.2,2.3c0,0.4,0.1,0.8,0.1,1.2
		c0.1,0,0.2,0,0.2,0C197,52.6,197.3,51.4,197.6,50.1z M44.6,51.3c0.2,0,0.3-0.1,0.5-0.1c-1.3-6.2-1.5-12.6-3-18.8
		C42.4,38.8,42.7,45.2,44.6,51.3z M80.6,123.3c-2.9-2.7-14.9-2.7-18-0.2c3-0.4,6-1.1,9-1.2C74.7,121.7,77.7,122.3,80.6,123.3z
		 M44.1,39.6c-0.7,2.2,1.2,13,2.6,14.1C45.8,49,45,44.3,44.1,39.6z M90.5,125.6c-0.1,0.1-0.2,0.1-0.3,0.2c0,0.2-0.1,0.4,0,0.6
		c0.6,2.2,1.1,4.4,1.8,6.6c0.1,0.3,0.4,0.6,0.7,0.8c0.1,0.1,0.5,0.1,0.6,0c0.1-0.1,0.1-0.4,0.1-0.6c-0.5-2-1-3.9-1.7-5.8
		C91.3,126.7,90.8,126.2,90.5,125.6z M96.3,129.9c-0.1,0.1-0.3,0.1-0.4,0.2c0.4,1.4,0.7,2.9,1.1,4.3c-0.1,0-0.2,0.1-0.3,0.1
		c-0.1-0.1-0.2-0.3-0.2-0.4c-0.4-1.4-0.8-2.9-1.3-4.3c-0.1-0.4-0.5-0.7-0.7-1c-0.1,0.1-0.2,0.1-0.3,0.2c0,0.3,0.1,0.7,0.1,1
		c0.3,1.1,0.6,2.2,0.9,3.4c0.2,1.1,0.8,1.7,1.8,1.9c0.7,0.1,0.9-0.1,0.7-0.9c-0.3-1.1-0.6-2.2-0.9-3.3
		C96.7,130.6,96.5,130.3,96.3,129.9z M92.5,127.4c-0.1,0.2-0.2,0.3-0.2,0.4c0.5,2,1,4,1.5,6c0.1,0.3,0.6,0.4,0.9,0.6
		c-0.4-2.2-0.9-4.1-1.5-6c0-0.1,0-0.2-0.1-0.3C93,127.9,92.8,127.7,92.5,127.4z M97.5,131.1c0.2,0.9,0.3,1.6,0.5,2.3
		c0.2,0.6,0.4,1.3,0.8,1.8c0.1,0.2,0.5,0.2,0.8,0.3c0-0.3,0.1-0.6,0.1-0.8c-0.2-0.8-0.4-1.5-0.6-2.3
		C98.9,131.6,98.5,131.1,97.5,131.1z M175.2,132.5c-1.6-2.2-5.7-4-6.9-3.5C170.5,130.2,172.9,131.4,175.2,132.5z M81.2,134.2
		c-0.3,0-0.4-0.1-0.5-0.1c-2,1.2-4,2.3-6,3.5c-0.1,0.1-0.2,0.4-0.2,0.7c0.2,0,0.5,0.1,0.7-0.1c0.6-0.4,1.1-0.8,1.7-1.2
		C78.3,136.2,79.7,135.2,81.2,134.2z M45.9,46.6c0.3,2.7,0.9,5.4,1.9,8C48.2,54,46.9,48.6,45.9,46.6z M153.3,142.4
		c-0.1,0.1-0.2,0.3-0.3,0.4c0.1-1.4-2.2-3.9-3.7-4.3C150.5,139.7,151.9,141,153.3,142.4z M103.3,138.1c-1.5,1.3-3.3,4.8-2.9,5.9
		C101.4,142,102.3,140.2,103.3,138.1z M146.1,131.6c-0.4,0.2-0.6,0.2-0.7,0.3c-0.5,1.1-1,2.2-1.4,3.3c0,0.1,0.1,0.4,0.2,0.4
		c0.2,0,0.4-0.1,0.5-0.2C145.1,134.3,145.5,133.1,146.1,131.6z M207.4,122.2c0.3,0.2,0.5,0.5,0.8,0.7c0.1-0.1,0.1-0.1,0.2-0.2
		c-0.2-0.3-0.3-0.5-0.5-0.8c0.1,0,0.2,0,0.2-0.1c0-0.3-0.1-0.6-0.1-0.9c0-0.2,0-0.5,0.1-0.7c0.2-0.3,0.4-0.6,0.6-0.8
		c-0.4-0.6-0.8-1.2-1.3-1.8c-0.3,0.5-0.5,0.9-0.8,1.3c1-0.7,1.1-0.6,1.4,0.3C207.8,120.3,207.6,121.2,207.4,122.2z M101.2,136.1
		c0.1-1.8-0.7-3.7-1.5-3.7C100,133.7,100,135.1,101.2,136.1z M144,133.5c-0.2-0.1-0.3-0.2-0.5-0.3c-0.4,0.7-0.9,1.4-1.3,2.2
		c-0.1,0.2,0,0.4,0,0.7c0.2,0,0.6,0,0.6-0.1C143.3,135.1,143.7,134.3,144,133.5z M226.8,144.1c-0.1,0-0.2,0.1-0.3,0.1
		c0.1,0.5,0,1.3,0.3,1.5c0.5,0.3,1.1,0.2,1.7,0.2c0.1,0,0.2-0.6,0.3-1C227.7,145.9,227.3,144.7,226.8,144.1z M212.1,145.5
		c0.9,0.2,1.5,0.3,2.4,0.5c-0.6-0.8-1-1.4-1.5-2C212.7,144.5,212.5,145,212.1,145.5z M74.9,115.1c0,0.1,0,0.2-0.1,0.3
		c1.4,0.4,2.7,0.9,4.1,1.3c0-0.1,0-0.2,0.1-0.3C77.7,115.6,76.3,115.3,74.9,115.1z M195.7,51c0.2,1.4-1.2,2.4-0.7,3.9
		C195.8,54.3,196.1,52.3,195.7,51z M185.4,85.2c0.8,0.6,1.5,1,2.1,1.5c0.1-0.1,0.2-0.2,0.3-0.2c-0.2-0.3-0.3-0.7-0.5-1
		C186.8,84.9,186.2,84.9,185.4,85.2z M102.7,136.1c0.2-1.1-0.3-2.3-1.1-2.6C101.5,134.6,102,135.8,102.7,136.1z M13,127.1
		c-0.1-0.1-0.1-0.2-0.2-0.2c-1,1.2-2,2.3-3,3.5c0.1,0.1,0.2,0.2,0.3,0.3C11,129.5,12,128.3,13,127.1z M220.5,136.9
		c-0.5,1.4-0.4,1.7,0.8,2.2C220.9,138.5,221.7,137.4,220.5,136.9z M217.1,147.7c-0.6-1.1,0.3-1.5,0.6-1.7c0-0.8,0-1.4,0-1.9
		c-0.3,0.2-0.6,0.6-0.5,0.8c0.4,1-0.3,1.5-1,2.1C216.6,147.2,216.8,147.5,217.1,147.7z M231.4,138.8c-0.1,0-0.2,0.1-0.3,0.1
		c1.2,1.1-0.2,1.4-0.4,2.2c0.2,0.3,0.4,0.5,0.7,0.9c0.2-0.8,0.4-1.5,0.6-2.3C231.8,139.5,231.6,139.1,231.4,138.8z M199.7,42.6
		c-0.1,0-0.2,0-0.3-0.1c-0.8,2.4-0.9,3.1-0.4,4C199.2,45.2,199.4,43.9,199.7,42.6z M223.3,120.9c0.1-0.1,0.1-0.1,0.2-0.2
		c-0.8-1-1.6-2-2.4-3c-0.1,0.1-0.2,0.2-0.3,0.3C221.7,119,222.5,120,223.3,120.9z M172.1,121.6c0-0.1,0-0.2-0.1-0.4
		c-1.1,0.3-2.2,0.6-3.2,0.9c0,0.1,0.1,0.3,0.1,0.4C170,122.2,171,121.9,172.1,121.6z M196.7,139.8c0-0.7-0.1-1.1-0.1-1.6
		c-0.3,0.2-0.6,0.4-1,0.7c0.3,0.2,0.4,0.4,0.7,0.6c-0.2,0.2-0.4,0.4-0.5,0.6c0,0.1,0.1,0.2,0.1,0.2
		C196.2,140.2,196.5,140,196.7,139.8z M177.1,121c0,0.1,0,0.1,0,0.2c0.6,0.1,1.2,0.1,1.9,0.2c0.6,0.1,1.2,0.2,1.8,0.2
		c0-0.2,0-0.3,0-0.5C179.5,121.2,178.3,121.1,177.1,121z M224.5,118.3c0.1-0.1,0.2-0.2,0.2-0.3c-0.9-0.9-1.8-1.8-2.6-2.7
		c0,0,0-0.1,0.1-0.1C223,116.3,223.8,117.3,224.5,118.3z M198.9,109.7c1.3-0.3,0-1.6,0.6-2.1c-0.2-0.2-0.4-0.5-0.6-0.7
		C198.9,107.8,198.9,108.7,198.9,109.7z M26.5,141.7c-0.2-0.4-0.3-0.7-0.5-1c-0.1,0.1-0.1,0.2-0.2,0.2c0.1,0.2,0.3,0.5,0.5,0.8
		c-0.5,0.2-0.9,0.4-1.3,0.6C25.5,143.1,25.9,142.9,26.5,141.7z M41.9,110.4c-0.5,0.7-1,1.3-1.4,1.9c0.4,0.3,0.7,0.5,0.8,0.6
		C41.5,112.1,41.7,111.4,41.9,110.4z M22.5,141c0-0.1-0.1-0.1-0.1-0.2c-0.6,0.7-1.3,1.4-1.9,2.1c0.1,0.1,0.1,0.1,0.2,0.2
		C21.3,142.4,21.9,141.7,22.5,141z M103.7,134.3c-0.1,0.1-0.3,0.2-0.4,0.3c0.2,0.6,0.4,1.1,0.7,1.6c0,0,0.3-0.2,0.5-0.2
		C104.2,135.4,104,134.9,103.7,134.3z M13,129.7c-0.1-0.1-0.2-0.2-0.3-0.3c-0.6,0.8-1.2,1.6-1.8,2.4c0.1,0.1,0.1,0.1,0.2,0.2
		C11.8,131.3,12.4,130.5,13,129.7z M3.9,135.5c0.1,0.2,0.3,0.3,0.4,0.5c0.6-0.7,1.2-1.5,1.8-2.2c-0.1-0.1-0.1-0.2-0.2-0.2
		C5.3,134.2,4.6,134.8,3.9,135.5z M215.6,145.5c-0.1,0-0.2-0.1-0.3-0.1c-0.2,0.3-0.5,0.6-0.8,1c1.3,0.3-0.1,1,0.3,1.6
		c0.3-0.4,0.5-0.7,0.8-1c-0.2-0.2-0.3-0.4-0.4-0.6C215.4,146,215.5,145.8,215.6,145.5z M24.6,113.4c0.1,0.1,0.1,0.1,0.2,0.2
		c0.6-0.8,1.2-1.5,1.8-2.3c0,0,0,0,0,0C26,112,25.3,112.7,24.6,113.4z M66.8,112.5c0.1,0,0.2,0,0.3-0.1c-0.2-2.1-0.2-2.1-0.7-2.5
		c0.1,0.5,0.3,0.8,0.3,1.1C66.8,111.6,66.7,112.1,66.8,112.5z M39.6,101.9c0.6-0.5,1.1-1,1.7-1.5C40.1,100.4,39.5,100.9,39.6,101.9z
		 M14.9,123.2C14.9,123.2,14.9,123.2,14.9,123.2c0.7-0.7,1.4-1.4,2.1-2.1c-0.1-0.1-0.1-0.1-0.2-0.2
		C16.2,121.7,15.5,122.4,14.9,123.2z M141.5,135c-0.4,0.3-0.7,0.5-1,0.9c-0.1,0.1,0.1,0.6,0.2,0.6
		C141.1,136.6,141.6,135.8,141.5,135z M202.4,108.1c-0.1,0.6-0.1,1.1-0.2,1.7c0.4-0.3,0.7-0.6,1.1-0.9
		C202.9,108.5,202.6,108.3,202.4,108.1z M45.4,94.1c0.3-0.3,0.6-0.6,0.8-0.8c0.2-0.2,0.4-0.5,0.6-0.7c0,0-0.1-0.1-0.1-0.1
		c-0.6,0.4-1.1,0.7-1.7,1.1C45,93.6,45.2,93.8,45.4,94.1z M228.7,136c-0.4,0-0.8-0.2-1.2-0.1c-0.3,0.1-0.6,0.3-1.1,0.6
		c0.8,0,1.3,0,1.9,0C228.3,136.4,228.5,136.1,228.7,136z M3.9,136.4c-0.1-0.1-0.2-0.2-0.3-0.3c-0.6,0.7-1.2,1.5-1.9,2.2c0,0,0,0,0,0
		C2.5,137.7,3.2,137.1,3.9,136.4z M57.5,105.4c0.4,0.4,0.7,0.8,1,1.1c0.1-0.1,0.1-0.1,0.2-0.2c-0.4-0.5-0.8-0.9-1.2-1.5
		c-0.3,0.3-0.6,0.6-0.8,0.8c0.1,0.1,0.1,0.1,0.2,0.2C57,105.7,57.2,105.5,57.5,105.4z M182.8,105.1c0.1-0.4,0.3-0.7,0.4-1.1
		c-0.2,0-0.3-0.1-0.5-0.1c0,0.6-0.1,1.1-0.1,1.7c0,0.1,0.3,0.2,0.4,0.2c0,0,0.1-0.1,0.1-0.2C183,105.4,182.9,105.3,182.8,105.1z
		 M215.5,107.3c-0.1,0.1-0.2,0.2-0.3,0.3c0.5,0.6,1,1.2,1.5,1.7c0.1-0.1,0.2-0.2,0.2-0.2C216.4,108.5,215.9,107.9,215.5,107.3z
		 M3.2,150.2c0-0.1,0.1-0.1,0.1-0.2c-0.2-0.3-0.5-0.6-0.7-0.9c0.1,0.1,0.1,0.3,0.2,0.4c-0.4,0.2-0.8,0.3-1.3,0.5
		c0.1,0.1,0.2,0.2,0.3,0.3c0.2-0.2,0.5-0.4,0.7-0.5C2.8,149.9,3,150.1,3.2,150.2z M20,141.3c-0.4,0.3-1,0.8-1.6,1.3
		c0.1,0.1,0.2,0.2,0.2,0.2C19.2,142.3,19.7,141.7,20,141.3z M36.1,142.4c0.5-0.4,1-0.9,1.5-1.4C36,142,36,142,36.1,142.4z
		 M42.5,140.6c0.3-0.4,0.5-0.8,0.6-1c-0.5,0-0.9,0-1.4,0C41.9,139.9,42.2,140.2,42.5,140.6z M223.5,138c0.1,0,0.1,0.1,0.2,0.1
		c0.1-0.4,0.4-0.8,0.4-1.1c0-0.3-0.4-0.5-0.5-0.8C223.5,136.9,223.5,137.5,223.5,138z M220.2,132.6c-0.5,0-1,0-1.5,0
		c0.3,0.3,0.6,0.6,0.8,0.8C219.7,133.1,219.9,132.9,220.2,132.6z M227.5,120.4c0.1-0.1,0.2-0.2,0.2-0.3c-0.5-0.5-1-1-1.5-1.4
		c-0.1,0.1-0.1,0.2-0.2,0.2C226.5,119.4,227,119.9,227.5,120.4z M64.2,104.8c-0.4,0.4-0.4,0.9-0.2,1.5c0,0.1,0.2,0.2,0.4,0.3
		c0-0.2,0.1-0.4,0.1-0.5C64.4,105.8,64.3,105.5,64.2,104.8z M208.8,139.7c0.4,0.4,0.6,0.6,0.9,0.9c0-0.1,0.1-0.1,0.1-0.2
		c-0.1-0.3-0.3-0.6-0.4-0.9c0.2-0.2,0.4-0.4,0.6-0.6c-0.1-0.1-0.1-0.2-0.2-0.3C209.4,139,209.2,139.3,208.8,139.7z M57.9,101.6
		c-0.7,0.7-0.6,1.2,0.1,1.8C58,102.8,58,102.2,57.9,101.6z M198.9,127.9c0.1,0,0.2,0,0.3,0.1c0.1-0.6,0.1-1.3,0.2-1.9
		c0,0-0.1-0.1-0.1-0.1c-0.2,0.2-0.4,0.3-0.7,0.5c0.1,0,0.2,0.1,0.3,0.1C198.9,127.1,198.9,127.5,198.9,127.9z M47.4,142.6
		c0.1-0.1,0.2-0.1,0.3-0.2c-0.4-0.6-0.8-1.1-1.2-1.7c-0.1,0.1-0.2,0.1-0.3,0.2C46.6,141.5,47,142.1,47.4,142.6z M35.1,135.8
		c-0.2-0.8-0.7-1.3-1.2-1.7c-0.1,0.1-0.1,0.2-0.2,0.3C34.2,134.9,34.6,135.3,35.1,135.8z M59.9,90.1c-0.1,0.2-0.3,0.5-0.4,0.7
		c0.1,0.1,0.1,0.1,0.2,0.2c0.2-0.3,0.4-0.5,0.6-0.8c-0.3-0.4-0.5-0.8-0.7-1.2c-0.1,0-0.2,0.1-0.2,0.1C59.6,89.3,59.8,89.7,59.9,90.1
		z M229.7,129.6c0.1-0.1,0.2-0.2,0.3-0.4c-0.5-0.5-1-0.9-1.5-1.4c0,0-0.1,0.1-0.1,0.1C228.7,128.5,229.2,129,229.7,129.6z
		 M170.8,110.2c0.3,0.3,0.5,0.5,0.6,0.6c0-0.7,0.1-1.2,0.1-1.8c-0.2,0.1-0.3,0.3-0.4,0.4C171.1,109.7,171,109.9,170.8,110.2z
		 M25.8,110.1c-0.1-0.1-0.2-0.2-0.2-0.3c-0.5,0.6-1.1,1.1-1.6,1.7c0.1,0.1,0.1,0.2,0.2,0.2C24.7,111.2,25.2,110.6,25.8,110.1z"/>
	<path d="M119,0c0.6,2.5,1.1,5.1,1.6,7.6c0.7,3.2,1.3,6.4,2,9.6c0,0.2,0.1,0.5-0.1,0.8c-1.3-3-1.8-6.3-2.6-9.5
		c0.5,4.3,0.4,8.8,1.7,13c-0.1,0.1-0.1,0.1-0.2,0.2c-0.2-0.2-0.4-0.4-0.6-0.6c-1.1-1.4-2-3-3.2-4.3c-2.7-3.1-4.6-6.7-6.4-10.4
		c-1-2-2-4.2-2.9-6.2C111.8,0,115.4,0,119,0z M114.9,11.8c0.1-0.1,0.2-0.2,0.4-0.2c-1.2-2.1-2.3-4.1-3.5-6.2
		c-0.1,0.1-0.2,0.1-0.3,0.2C112.7,7.7,113.8,9.8,114.9,11.8z"/>
	<path d="M124.5,0c0.6,3.5,1.2,7,1.8,10.5c0.2,1.4,0.5,2.7,0.8,4c-0.1,0.1-0.2,0.2-0.3,0.3c-0.4-0.4-0.9-0.7-1.1-1.2
		c-1.1-2.7-2.2-5.4-3.2-8.1c-0.7-1.8-1.3-3.7-1.9-5.5C121.9,0,123.2,0,124.5,0z"/>
	<path d="M77.3,0c-0.5,2.1-0.8,4.1-1.4,6.2c-0.4,1.4-0.6,2.5,0.7,3.5c-0.1-0.1-0.3-0.1-0.4-0.2c-0.3-0.2-0.6-0.3-0.8-0.5
		c-0.1,0.3-0.2,0.7-0.3,1c-0.2,0.6,0.2,1.4-0.7,1.8c-0.1-0.4-0.2-0.7-0.2-1C74,7.3,73.9,3.9,73.7,0.5c0-0.2-0.1-0.3-0.1-0.5
		C74.9,0,76.1,0,77.3,0z"/>
	<path d="M160.4,0c0.5,3.8-0.4,7.8,1.4,11.3c-0.5,0.2-0.8,0.3-1.3,0.4c-0.4-4.2-2.6-7.9-4.3-11.7C157.7,0,159.1,0,160.4,0z"/>
	<path d="M216.5,0c0.2,1,0.4,2.1,0.7,3.1c0.2,0.7,0.4,1.4,0.6,2.1c-0.1,0.1-0.2,0.1-0.3,0.2c-0.7-0.9-1.4-1.7-2.1-2.6
		c-0.1,0-0.2,0.1-0.3,0.1c0.2,0.6,0.4,1.2,0.6,1.9c-0.1,0.1-0.2,0.1-0.4,0.2c-0.7-1.7-1.4-3.3-2.1-5C214.3,0,215.4,0,216.5,0z"/>
	<path d="M23.8,0c-1.5,2.1-3.1,4.2-4.6,6.3c-0.1,0-0.1,0-0.2,0C19,6,19,5.6,19.1,5.3c0.5-1.8,1-3.5,1.5-5.3C21.7,0,22.7,0,23.8,0z"
		/>
	<path d="M107.4,0c1.2,2.5,2.4,4.9,3.6,7.4c0.9,1.8,1.7,3.5,2.5,5.3c0.1,0.3,0.2,0.5,0.2,0.8c-0.1,0-0.1,0.1-0.2,0.1
		c-0.3-0.6-0.7-1.1-1-1.7c-1.9-3.8-3.7-7.5-5.5-11.3c-0.1-0.2-0.1-0.5-0.2-0.7C107.1,0,107.3,0,107.4,0z"/>
	<path d="M58.2,0c-0.5,4-1,8.1-1.4,12.1c-0.1,1.1-0.3,2.2-0.5,3.4c-0.1,0-0.2,0-0.2,0c0-0.2-0.1-0.5-0.1-0.7c0.4-3.7,0.7-7.3,1.1-11
		c0.1-1.3,0.4-2.5,0.6-3.8C57.8,0,58,0,58.2,0z"/>
	<path d="M28.3,0c-1,1.5-2,3-3,4.5c-0.1-0.1-0.3-0.2-0.4-0.2C25,2.8,25.6,1.4,26,0C26.8,0,27.5,0,28.3,0z"/>
	<path d="M73.1,0c-0.1,2.5-0.2,5-0.3,7.5c0,0.8,0,1.6-0.2,2.4c-0.8-3.3-0.3-6.6-0.3-9.9C72.6,0,72.8,0,73.1,0z"/>
	<path d="M150.4,0c0.8,2.3,1.7,4.5,2.6,7c-0.9-0.4-2.9-5.2-3.2-7C150,0,150.2,0,150.4,0z"/>
	<path d="M86.8,150.8c-1.8-0.3-3.5-0.6-5.3-0.8c-0.5-0.1-0.9,0-1.4-0.1c-0.3,0-0.6-0.2-0.9-0.4c0-0.1,0-0.2,0-0.3
		c0.2,0,0.5-0.2,0.7-0.1c3.1,0.5,6.3,1,9.4,1.5c0.3,0,0.6,0.1,0.9,0.2C89.2,150.8,88,150.8,86.8,150.8z"/>
	<path d="M161.9,0c0.5,2.3,1.1,4.5,1.6,6.8c0.1,0.4,0.1,0.9,0.2,1.4c-0.1,0-0.2,0-0.3,0.1c-0.2-0.7-0.3-1.5-0.5-2.2
		c-0.5-1.9-1-3.7-1.5-5.6c0-0.2,0-0.3,0-0.5C161.5,0,161.7,0,161.9,0z"/>
	<path d="M213.6,150.8c-0.1-0.4-0.2-0.8-0.3-1.4c0.2-0.1,0.4-0.2,0.6-0.3c0.4-0.2,0.8-0.3,1.2-0.5c0.2-0.1,0.5-0.2,0.6-0.1
		c0.1,0.1,0.1,0.4,0.2,0.6c0.1,0.4,0.1,0.9,0.1,1.3c0,0,0,0,0,0c-0.3,0.1-0.5,0.2-0.8,0.3C214.6,150.8,214.1,150.8,213.6,150.8z"/>
	<path d="M126.8,0c0.5,1.7,1,3.3,1.5,5c0.1,0.3,0.1,0.7,0,1.1c-1.1-1.9-1.6-4-2.2-6.1C126.3,0,126.5,0,126.8,0z"/>
	<path d="M233.5,150.2c0.3,0.2,0.6,0.4,0.9,0.6c-0.2,0-0.4,0-0.6,0c-0.1-0.1-0.3-0.2-0.4-0.3C233.5,150.4,233.5,150.3,233.5,150.2z"
		/>
	<path d="M202,150.6c0.2,0,0.4,0,0.5,0c0,0.1,0.1,0.1,0.1,0.2c-0.2,0-0.5,0-0.7,0C201.9,150.7,201.9,150.6,202,150.6z"/>
	<path d="M200.9,150.8c0.1-0.1,0.3-0.1,0.4-0.2c0,0,0,0,0,0c0,0.1,0.1,0.1,0.1,0.2C201.3,150.8,201.1,150.8,200.9,150.8z"/>
	<path d="M203.3,150.6c0.1,0,0.2,0,0.3,0c0,0.1,0.1,0.1,0.1,0.2c-0.2,0-0.4,0-0.6,0C203.2,150.7,203.2,150.6,203.3,150.6z"/>
	<path d="M215.6,150.8c0.1-0.1,0.2-0.2,0.3-0.3c0,0,0,0,0,0c0,0,0,0,0,0c0.1,0.1,0.2,0.2,0.4,0.3C216,150.8,215.8,150.8,215.6,150.8
		z"/>
	<path d="M219.2,150.8c0.1-0.1,0.3-0.1,0.4-0.2c0,0,0,0,0,0c0,0.1,0.1,0.1,0.1,0.2C219.5,150.8,219.3,150.8,219.2,150.8z"/>
	<path d="M221.4,150.8c0.1-0.1,0.3-0.1,0.4-0.2c0,0,0,0,0,0c0,0.1,0.1,0.1,0.1,0.2C221.8,150.8,221.6,150.8,221.4,150.8z"/>
	<path d="M235.1,150.8c0.1-0.1,0.3-0.1,0.4-0.2c0,0,0,0,0,0c0,0.1,0.1,0.1,0.1,0.2C235.5,150.8,235.3,150.8,235.1,150.8z"/>
	<path d="M220.3,150.8c0-0.1,0-0.2,0-0.2c0.1,0.1,0.3,0.2,0.4,0.2C220.5,150.8,220.4,150.8,220.3,150.8z"/>
	<path d="M143.5,39.6c-0.9,0.4-1.8,0.9-2.7,1.3c-0.3,0.1-0.6,0.1-0.9,0.1c0.2-0.3,0.3-0.7,0.5-0.8c1.8-0.8,3.6-1.5,5.4-2.2
		c2.3-0.9,4.6-1.7,7-2.4c0.8-0.2,1.6-0.2,2.5-0.2c1.4-0.1,2.4-1.4,2.5-3c0-0.3,0.1-0.6,0.2-0.9c-0.7-0.3-1.2,0.2-1.5,0.7
		c-0.6,0.9-1.2,1.5-2.3,0.8c-0.4-0.3-1.2-0.2-1.8,0.1c-3.5,1.5-6.9,3.3-10.7,4c-2.3,0.5-4.5,1.3-6.7,1.8c-0.6,0.2-1.3,0-2-0.1
		c-3.1-0.3-5.3-1.9-6.3-5.5c-0.1-0.4-0.7-0.6-1.2-1c0.1-0.9,0.2-2,1.5-2.5c0.5-0.2,0.9-0.8,1.5-1.2c0,1.7-1.8,1.7-2.1,3.2
		c0.6-0.2,1.3-0.4,1.9-0.6c0,0.1,0.1,0.2,0.1,0.3c-0.1,0.1-0.2,0.2-0.3,0.3c-0.6,0.3-0.7,0.6-0.2,1.3c0.5,0.7,0.7,1.8,1.2,2.5
		c0.8,0.9,1.7,1.9,2.7,2.3c1,0.4,2.3,0.1,3.5-0.1c2.2-0.5,4.5-1.1,6.7-1.8c3-1,6-2.1,8.9-3.3c1-0.4,1.8-1.5,2.6-2.3
		c0.3-0.3,0.5-0.8,0.8-1.2c0.1,0.1,0.3,0.3,0.4,0.4c-0.3,0.5-0.7,1-1.2,1.7c0.5-0.1,0.7,0,0.9-0.1c0.7-0.4,1.4-0.7,2.1-1.1
		c1.4-0.8,1.8-1.6,1.5-3.4c0-0.2-0.2-0.6-0.3-0.6c-0.2,0-0.5,0.1-0.6,0.3c-0.4,0.4-0.7,1-1.1,1.4c-0.1-0.1-0.2-0.2-0.3-0.3
		c0.8-1.1,1.6-2.1,2.4-3.2c2.1-2.7,4.2-5.4,6.2-8.1c1.2-1.6,2.3-3.3,3.5-5c0.7-0.9,1.4-1.8,2.1-2.7c0.2-0.3,0.6-0.3,0.9-0.5
		c-0.1,0.4-0.1,0.8-0.4,1c-1.6,1.4-2.5,3.4-3.2,5.4c-0.8,2.3-0.6,4.8,0,7.2c0.4,1.5,1.3,2,2.8,1.1c2.3-1.5,4.5-3.1,6.8-4.7
		c0.2-0.1,0.5-0.2,0.7-0.2c0,0.1,0.1,0.2,0.1,0.3c-0.7,0.5-1.3,1.1-2,1.6c-2.3,1.6-4.6,3.2-6.9,4.7c-0.2,0.1-0.5,0.1-0.7,0.2
		c-0.5,0.1-0.9,0.3-1.1,1c-0.1,0.6-0.6,1.1-1,1.6c-0.1-0.1-0.2-0.1-0.3-0.2c0.2-0.4,0.4-0.8,0.5-1.2c-1,0.6-2.3,0.7-2.8,2.1
		c-0.1,0.2,0,0.5,0,0.8c0.2,0,0.5,0,0.7,0c0.9-0.3,1.7-0.6,2.6-0.8c0.4-0.1,0.9,0.3,1.4,0.3c1.4-0.2,2.7-0.6,4.1-0.9
		c0.3-0.1,0.6,0,0.9,0c-2.7,1.7-6.5,0.8-8.4,4.5c0.2,0.1,0.3,0.2,0.5,0.2c2.1-0.3,4.1-0.7,6.2-1c2.4-0.4,4.8-0.8,7.2-1.3
		c1.2-0.2,2.3-0.6,3.5-0.8c1-0.1,2-0.1,3-0.1c0.2,0,0.5,0.6,0.4,0.9c-0.2,1.1-0.5,2.2-0.8,3.2c-0.8,2.4-1.4,5-2.5,7.3
		c-2.5,5.1-5.7,9.5-10.8,11.7c-0.7,0.3-1,1.3-0.9,2.1c0,0.3,0,0.5,0,0.9c0.3-0.1,0.5-0.2,0.9-0.4c-0.1,0.5-0.1,0.8-0.2,1.3
		c0.4,0.3,1,0.7,1.4,1.2c0.1,0.2,0.2,0.8,0,0.9c-0.9,0.7-2,1.2-3.2,0.9c-0.1,0-0.3-0.1-0.4-0.1c-0.1,0-0.1-0.1-0.3-0.5
		c0.5-0.1,1-0.3,1.3-0.2c0.7,0.3,1.1,0,1.6-0.7c-1.5-0.7-3-1.2-4.6-0.1c0-0.1,0-0.2,0-0.3c0.3-0.4,0.6-0.8,0.9-1.2
		c-1.6-0.2-2.3,0.4-1.9,1.5c0.2,0.6,0.2,1,0.2,1.6c0,0.9-0.8,1.5-1.6,1.4c0.2-1.1,0.3-2.1,0.5-3.3c-0.9,0.1-1.4-0.3-1.5-1.5
		c-0.1-0.6-0.6-1.2-1.1-1.7c-0.2-0.2-0.7-0.2-1.1-0.2c-2.8-0.3-5.6-0.6-8.4-0.9c-0.2,0-0.5-0.2-0.7-0.3c0-0.1,0-0.3,0-0.4
		c0.4-0.1,0.8-0.2,1.3-0.2c4.1,0,8.1,0.2,12.2-0.1c2.1-0.1,4.2-0.9,6.2-1.6c2.1-0.8,3.6-2.6,4.8-4.6c1.6-2.5,3.1-5,4.4-7.7
		c0.8-1.5,1.1-3.3,1.7-5c0.2-0.7,0-1.1-0.7-0.9c-4.3,0.8-8.5,1.6-12.8,2.4c-0.7,0.1-0.9,0.6-1.1,1.3c-0.9,3.6-2.6,6.8-6,7.9
		c-1.9,0.6-4,0.5-6-0.2c-2-0.7-3.5-2-4.5-4.1c-0.4-0.8-1-0.6-1.5-0.4c-1.5,0.5-3,1-4.5,1.7c-1,0.4-1.9,1-2.8,1.6
		c-0.1,0.1-0.2,0.2-0.3,0.1c-0.4-0.1-0.8-0.1-1.2-0.2c0.2-0.3,0.4-0.7,0.7-0.9c0.4-0.3,0.9-0.6,1.4-0.9
		C143.6,39.8,143.5,39.7,143.5,39.6z M159.4,25.5c0.1,0.7,0.1,1.3,0.2,1.9c0.1,0.2,0.5,0.6,0.6,0.5c0.6-0.3,1.2-0.7,1.6-1.2
		c1.2-1.6,1.2-3.4,0.9-5.3c-0.1-0.5-0.4-1-0.7-1.5c-0.3,0.4-0.6,0.7-0.9,1.1c-0.1,0.2-0.3,0.4-0.4,0.6
		C159.9,22.8,159.3,24,159.4,25.5z M157.3,36.5c0.5,1.3,1.7,2.1,2.7,1.8c1.5-0.4,2.4-1.3,2.4-2.7C160.7,35.9,159.1,36.2,157.3,36.5z
		 M162,42.4c-0.4-0.9-0.6-1.7-1.6-1.8c-1.4-0.2-1.7,0.8-2,2.1C159.5,42.5,160.7,42.4,162,42.4z M158.6,39.8c1.2,0.5,2.3,0.3,2.8-0.2
		c0.5-0.6,1-1,1.5-1.6c0.2-0.3,0.4-0.6,0.7-0.9c-0.1-0.1-0.2-0.2-0.3-0.4C162.4,38.9,160.4,39,158.6,39.8z M164.6,30.5
		c0-0.1-0.1-0.2-0.1-0.4c-0.4,0.1-1,0.1-1.2,0.4c-0.4,0.8-0.5,1.8-0.8,2.8c0.5,0,0.9-0.1,1.4-0.1C163,31.8,163.9,31.2,164.6,30.5z
		 M167.1,54.9c1.2-0.3,2.1-0.7,2.7-1.9c-0.4-0.2-0.7-0.4-0.9-0.5C168.2,53.4,167.7,54,167.1,54.9z M158.3,34.1c0.9,0.6,1.1,0.5,2-1
		c-1,0.5-2.3-0.1-2.9,1.6C157.8,34.4,158.1,34.2,158.3,34.1z M156,38.4c-0.1,0.1-0.2,0.3-0.3,0.4c0.6,0.5,1.2,1.1,1.8,1.6
		c0.1-0.1,0.2-0.3,0.3-0.4C157.2,39.5,156.6,38.9,156,38.4z"/>
	<path d="M93.6,52.3c-1.5,0.5-3,1.1-4.6,1.5c-3,0.8-6,1.2-9,1.2c-6.3,0-11.9-2.2-16-7.8c-2.5-3.4-4.2-7.4-5.2-11.7
		c-0.5-2.1-0.6-4.3-0.8-6.4c-0.1-1.7-0.1-3.4-0.1-5.1c0-0.6,0.1-1.2,0.2-1.8c0.2-0.9,0.7-1.2,1.6-1.3c3.6-0.3,6.9,1.3,10.2,2.3
		c3.7,1.1,7.4,2.4,11,3.8c3.6,1.3,7.1,2.8,10.7,4.2c3.1,1.2,6.2,2.2,9.3,3.3c0.3,0.1,0.6,0.3,0.8,0.4c0.4,0.2,0.8,0.4,1.2,0.5
		c0.1-0.1,0.1-0.2,0.2-0.3c-0.2-0.2-0.4-0.4-0.6-0.6c-1.7-1.6-3.4-3.3-5.2-4.7c-1.1-0.9-2.5-1.5-3.8-2.1c-1.3-0.6-2.6-1.2-3.9-1.9
		c1.8,0.1,3.3,0.9,4.9,1.7c0.1-0.1,0.1-0.2,0.2-0.3c-5.6-5.4-11.2-10.7-16.8-16.1c0.1-0.1,0.1-0.2,0.2-0.3c0.2,0.1,0.5,0.2,0.7,0.3
		c1.7,1.5,3.5,3,5.2,4.5c2.5,2.4,5,4.8,7.6,7.2c2.4,2.3,4.8,4.6,7.2,6.9c1,1,2,2,3.1,3c0.3,0.3,0.6,0.7,1.1,0.1
		c0.1-0.1,0.5,0,0.8,0.1c2.1,1,4.2,1.9,6.3,2.9c0.2,0.1,0.4,0.1,0.7-0.2c-0.5-0.3-1-0.6-1.6-1c0.8-0.4,2.8,0.2,3.3,1
		c-0.4,0.1-0.7,0.2-1,0.3c0,1.1-0.3,1.4-1.1,1c-2.1-0.9-4.1-1.9-6.1-2.9c-0.1-0.1-0.3-0.1-0.4-0.1c1.4,1.3,3.1,2.2,4.9,2.9
		c0.8,0.3,1.7,0.7,2.5,0.9c0.5,0.1,1.2,0,1.4-0.3c0.7-0.8,1.1-1.8,1.7-2.7c0.2-0.4,0.5-0.7,0.7-1.1c0.1,0,0.2,0.1,0.2,0.1
		c0,0.2,0.1,0.5,0,0.6c-0.8,2.1-1.6,4.1-3.8,4.6c-0.8,0.2-1.8-0.3-2.7-0.5c-0.3-0.1-0.6,0-1-0.1c-0.4,0-0.8-0.1-1.2-0.2
		c0,0.1,0,0.2,0,0.2c0.2,0.3,0.3,0.6,0.5,0.9c-0.3-0.1-0.6-0.1-0.9-0.2c-1.4-0.5-2.7-1-4.1-1.6c-2.3-0.9-4.5-1.8-6.8-2.7
		c-0.9-0.4-1.9-0.7-2.8-1.1c-0.5-0.2-0.7-0.1-0.9,0.5c-0.5,1.1-1,2.2-1.5,3.3c-2.6,5-9.9,4.5-12.5,1.2c-1.3-1.6-2.4-3.2-3.2-5.1
		c-0.8-1.8-0.7-3.7-0.3-5.6c0.1-0.7,0-1.1-0.7-1.3c-3.5-1.1-7-2.2-10.5-3.2c-1.5-0.4-1.8-0.2-1.9,1.5c-0.2,2.4-0.5,4.8-0.5,7.2
		c0,4.4,1.5,8.3,3.4,12c1.3,2.6,3,5,5.3,6.6c3.3,2.3,6.9,3.3,10.8,3.2c2.6-0.1,5.2-0.5,7.7-0.9c1.6-0.3,3.2-1,4.8-1.5
		c0.4-0.1,0.8,0,1.2,0C93.6,52,93.6,52.1,93.6,52.3z M83.2,35.5c1.2,0,2.4-1,2.8-2.2c0.2-0.6,0.3-1.3-0.3-1.8
		c-0.5-0.4-1.1-0.8-1.7-1c-0.9-0.3-1.8-0.4-2.8-0.6c-0.7-0.1-1.4,0.5-1.5,1.2C79.5,33.2,81.3,35.5,83.2,35.5z M78.9,38.2
		c-0.3,1,0,1.4,0.9,1.4c0.2,0,0.4,0.1,0.5,0.2c1,0.2,1.9,0.4,2.9,0.7c0-0.1,0-0.1,0-0.2c-0.2-0.1-0.5-0.2-0.7-0.3
		c0-0.1,0-0.2,0.1-0.3c0.3,0,0.6,0.1,0.9,0.1c0.3-0.1,0.5-0.3,0.7-0.5c-0.2-0.2-0.4-0.4-0.6-0.4c-1.4-0.4-2.9-0.8-4.3-1.2
		c-0.7-0.2-1.2-0.4-0.6-1.4c0.1-0.1,0-0.4,0-0.7C77.1,37,77.7,37.3,78.9,38.2z M84.3,37.7c-1.3-1.2-2.7-1.8-4.7-1.2
		C81.2,37.5,82.8,37.5,84.3,37.7z M84.9,39.4c0,0.1,0.1,0.2,0.1,0.3c1.4-0.2,2.7-0.6,3.6-1.9c0-0.1-0.1-0.2-0.1-0.3
		C87.2,38.1,86.1,38.7,84.9,39.4z M76.7,33.6c-0.1,0.1-0.1,0.1-0.2,0.2c0.3,0.8,0.6,1.5,1,2.5c0.3-0.7,0.5-1.3,0.7-1.8
		c-0.4-0.1-0.7-0.1-0.9-0.3C77.1,34.1,76.9,33.9,76.7,33.6z M79.3,34c0.1,1.2,1,2.1,1.9,1.8C80.5,35.2,79.9,34.6,79.3,34z"/>
	<path d="M95.4,110.4c0.6-0.4,1.2-0.9,1.9-1c4-0.9,7.9-1.8,11.9-2.5c2.4-0.4,4.9-0.4,7.4-0.7c5-0.6,9.9-1.2,14.9-1.8
		c2.5-0.3,5-0.8,7.5-1.1c3.6-0.4,6.9-1.7,10.4-2.8c3-0.9,5.7-2.6,8.4-4.4c0.6-0.4,1.1-0.9,1.6-1.4c0.4-0.5,0.6-1-0.2-1.3
		c-0.3-0.1-0.4-0.5-0.6-0.8c0.3,0,0.6-0.2,0.9-0.1c0.4,0,0.7,0.1,1.1,0.3c1.1,0.6,1.2,1.4,0.4,2.3c-0.4,0.5-0.7,1-1,1.5
		c-1.1,2.1-2.6,3.8-4.2,5.4c-1.1,1-2,2.2-3.1,3.1c-2.1,1.9-4.6,3-7.3,3.7c-2.4,0.6-4.8,1.3-7.2,1.7c-4.7,0.9-9.3,1.4-14.1,1.1
		c-6.5-0.4-13-0.7-19.6-0.9c-2.7-0.1-5.4,0.1-8.1,0.2c-0.3,0-0.5,0-0.8,0C95.5,110.8,95.5,110.6,95.4,110.4z M136.1,109.7
		c-0.2-0.3-0.2-0.5-0.3-0.6c-0.9-0.9-1.7-1.9-2.7-2.7c-0.4-0.4-1.1-0.6-1.6-0.6c-1,0-2,0.3-2.9,0.4c-3.4,0.3-6.8,0.6-10.2,0.9
		c-0.6,0.1-1.1,0.2-1.8,0.3c0.4,0.6,0.6,1,0.9,1.4c-1.2-0.9-2.3-1.5-3.8-1.4c-1.6,0-2.5,0.9-3.2,2.4c0.3,0,0.5,0.1,0.7,0.1
		c2.3,0,4.5,0,6.8,0.1c2,0.1,3.9,0.2,5.9,0.4c1.2,0.1,2.1-0.5,2.7-1.6c0.2-0.3,0.4-0.6,0.7-0.8c0.1,0.1,0.1,0.1,0.2,0.2
		c-0.2,0.4-0.5,0.8-0.7,1.2c-0.1,0.2-0.3,0.6-0.2,0.7c0.1,0.2,0.4,0.3,0.6,0.3c2-0.1,4-0.1,6-0.3C134.2,110,135.1,109.8,136.1,109.7
		z M133.2,105.7c0.8,0.8,1.6,1.6,2.4,2.3c1.2,1.1,2.5,1.8,4.2,1c0.4-0.2,0.8-0.2,1.2-0.2c1.1-0.2,2.1-0.6,2.6-1.8
		c0.3-0.6,0.7-1.1,1.1-1.7c0.5-0.8,1-1.5,1.6-2.3C141.9,103.9,137.7,104.8,133.2,105.7z M143.8,107.6c0.1,0.1,0.1,0.2,0.2,0.3
		c0.4-0.1,0.8-0.1,1.2-0.2c0.5-0.1,1-0.2,1.5-0.5c1.9-0.9,3.7-1.9,5.6-2.9c0.2-0.1,0.3-0.6,0.2-0.8c-1-2-1.7-2.3-3.6-1.7
		c-0.7,0.2-1.5,0.4-1.9,0.9C145.9,104.3,144.9,106,143.8,107.6z M151.4,101c0.6,0.6,1.1,1.1,1.5,1.7c0.3,0.4,0.6,0.4,0.9,0
		c0.6-0.7,1.2-1.3,1.7-2.1c0.8-1,1.5-2.1,2.2-3.2c-0.1-0.1-0.1-0.1-0.2-0.2C155.6,98.5,153.6,99.7,151.4,101z M103.1,109.2
		c0.2,0.3,0.3,0.4,0.4,0.4c1.9,0.1,3.9,0.2,5.8,0.2c0.7,0,1.8-1.4,1.8-2.1C108.5,107.9,105.8,108.5,103.1,109.2z"/>
	<path d="M185.2,54.5c0.3,0.5,0.6,0.9,1,1.4c-0.7,0.9-1.5,1.9-2.3,2.8c0.1,0.1,0.2,0.2,0.3,0.3c0.6-0.7,1.2-1.3,1.8-2
		c0.1,0.1,0.2,0.2,0.3,0.3c-1.2,1.5-2.3,3-3.5,4.5c0.1,0.1,0.1,0.2,0.2,0.3c0.6-0.5,1.3-0.9,1.9-1.4c0,0,0.1,0.1,0.1,0.1
		c-0.4,0.5-0.7,1-1.2,1.6c0.5,0,0.8,0,1.1,0c0.3,0.3,0.6,0.7,0.9,1.1c-0.9,0.7-2.3,0.5-2.9,2.1c0.6-0.1,1-0.2,1.5-0.3
		c0,0.1,0.1,0.2,0.1,0.2c-0.3,0.3-0.5,0.6-0.8,0.9c0.4,0.8,0.8,0.8,1.1,0.1c0.1-0.3,0.2-0.6,0.4-0.9c0.1-0.1,0.3-0.2,0.4-0.3
		c0,0.2,0.1,0.4,0,0.5c-0.2,0.5-0.7,1.1-0.6,1.6c0.1,0.5,0.7,0.9,1,1.3c0.1,0.1,0.3,0.2,0.3,0.4c0.1,0.2,0.1,0.4,0.2,0.6
		c-0.2,0.1-0.4,0.1-0.5,0.2c-0.3,0.1-0.6,0.3-0.8,0.5c0.2,0.2,0.3,0.5,0.5,0.6c0.5,0.3,0.5,0.7,0.2,1.2c-0.8,1.3-1.5,2.7-2.3,4.1
		c-0.2,0.3-0.5,0.4-0.7,0.7c-0.2,0.2-0.3,0.4-0.4,0.6c0.1,0.1,0.1,0.2,0.2,0.3c0.6-0.4,1.2-0.7,1.7-1.1c0.1,0,0.1,0.1,0.2,0.1
		c-0.2,0.3-0.3,0.7-0.5,1c-0.1,0.3-0.2,0.6-0.3,0.8c-0.1,0.3-0.3,0.5-0.4,0.7c-0.1-0.3-0.3-0.6-0.4-0.9c0-0.1,0.1-0.3,0.1-0.3
		c-0.8,0.1-1.6,0.1-2.4,0.2c-0.6,0-0.5-1.1,0-1.9c0.2-0.4,0.6-0.8,1.1-1.1c-0.2,0.5-0.4,1-0.6,1.6c-0.1,0.2,0,0.4,0,0.6
		c0.2,0,0.4,0,0.5-0.1c0.7-1,1.4-2,2.1-3.1c0.1-0.2,0.1-0.7,0.1-0.7c-0.9-0.6-0.5-1.4-0.2-2.4c-0.5,0.1-0.8,0.2-1.5,0.4
		c0.5-1.1,0.8-2,1.3-2.9c-0.7,0-1.4,0.1-1.3-0.9c-0.3,0-0.6-0.2-0.8-0.1c-0.5,0.3-1,0.8-1.5,1.2c-0.1-0.1-0.2-0.2-0.2-0.3
		c0.4-0.4,0.7-0.8,1.1-1.1c0.5-0.3,1-0.5,1.6-0.9c-1.7-0.6-0.2-1.2-0.1-1.9c-0.5,0.1-1,0.2-1.5,0.3c0-0.1-0.1-0.2-0.1-0.2
		c0.1-0.1,0.3-0.3,0.4-0.4c0.2-0.3,0.3-0.6,0.4-1c0.2-0.7,0.3-1.5,0.4-2.2c0.1-0.7,0.3-1.4,0.4-2.2c0.1-0.7,0.2-1.4,0.3-2.1
		c0-0.2,0.2-0.4,0.2-0.7C183.5,54.7,183.5,54.7,185.2,54.5z M184.4,70.3c0.4-0.4,0.7-0.7,1.1-1c-0.2-0.2-0.5-0.5-0.6-0.5
		C184.4,69,184,69.3,184.4,70.3z M184.5,73.4c0.2,0.1,0.3,0.1,0.5,0.2c0.2-0.5,0.3-1,0.5-1.5c-0.2-0.1-0.6-0.2-0.6-0.1
		C184.7,72.4,184.6,72.9,184.5,73.4z"/>
	<path d="M173.5,72.3c0.2,0.2,0.4,0.5,0.7,0.7c0.4-0.2,0.7-0.4,1-0.6c0.1,0.1,0.1,0.2,0.2,0.3c-0.7,0.7-1.4,1.3-2.2,2
		c0.2,0.2,0.4,0.3,0.7,0.6c-0.3,0.2-0.5,0.6-0.7,0.6c-0.4,0.1-0.8-0.1-1.1-0.2c0.1-0.4,0.1-0.7,0.2-1.2c-0.7-0.9-0.6-0.9,0-2.1
		c0.1-0.2,0.1-0.6,0-0.8c-0.3-0.5-0.5-1.1-1-1.5c-0.8-0.7-0.7-1.5-0.3-2.3c0.4-0.9,0.8-1.7,1.2-2.5c0.5,0.5,0.9,1,1.3,1.3
		c0.5,0.4,0.6,0.8,0.4,1.4c-0.1,0.3,0,0.7,0,1c0.1,0,0.2,0.1,0.3,0.1c-0.2,0.3-0.5,0.6-0.7,0.9c-0.1,0.2-0.2,0.6-0.3,0.9
		c0.3,0,0.6-0.1,0.9-0.2c0.2-0.1,0.3-0.2,0.5-0.3c0.1,0.1,0.2,0.2,0.2,0.3C174.4,71.2,174,71.7,173.5,72.3z"/>
	<path d="M135,121.2c-0.8,0.5-1.6,1.1-2.5,1.4c-1.1,0.4-2.2,0.5-3.3,0.6c-3.6,0.1-7.3,0.2-10.9,0.2c-1.8,0-3.6-0.3-5.3-1.1
		c-0.2-0.1-0.5-0.2-0.6-0.4c-0.1-0.1-0.2-0.4-0.2-0.6c0.2-0.1,0.4-0.2,0.6-0.2c0.5,0.2,0.9,0.5,1.4,0.6c1.8,0.4,3.6,0.8,5.5,0.9
		c1.8,0.2,3.7,0.2,5.5,0.1c2.5-0.2,5.1-0.6,7.6-0.9c0.5-0.1,0.9-0.5,1.4-0.8c0.3-0.1,0.6-0.2,0.8-0.3
		C134.8,120.9,134.9,121,135,121.2z"/>
	<path d="M151,68.4c0.2,0,0.4-0.1,0.6-0.1c1.5,0.3,3,0.5,4.3,1c1,0.4,1.8,0.8,2.8,0c0.9-0.6,2.1,0.4,2.3,1.8c0.3,0,0.7,0,1.1,0
		c0.3,0,0.6,0,0.9,0.1c0,0.1,0,0.2,0,0.3c-0.6,0.1-1.2,0.2-1.8,0.3c-0.4,0.1-0.9,0.2-1.2,0.5c-0.8,0.9-1.5,0.5-2.3,0
		c-1.6-1-3.3-2-4.9-2.9c-0.6-0.3-1.2-0.5-1.8-0.7C151,68.7,151,68.5,151,68.4z M158,70.6c0.6,0.3,1,0.2,1.3-0.2c0.1-0.1,0-0.4,0-0.5
		c-0.4,0.1-0.7,0.2-1.1,0.4C158.1,70.3,158.1,70.5,158,70.6z"/>
	<path d="M168.9,83.9c-0.1,0.3-0.2,0.7-0.3,1c0.1,0,0.1,0.1,0.2,0.1c0.7-1.2,1.4-2.3,2.1-3.5c0.1,0.1,0.2,0.1,0.3,0.2
		c-0.5,0.9-0.9,1.8-1.4,2.7c1.2,0.6,1.9-1.5,3.2-0.5c-0.4,0.8-1.8,0.6-1.6,1.9c0.9-0.2,1.7-0.4,2.6-0.5c0,0.2,0,0.5,0.1,0.7
		c-1-0.2-2.3,0.3-3.2,1.8c-0.6,0-1.2,0.1-1.9,0.1c0.5-0.9,2-1,1.4-2.6c-0.3,0.3-0.6,0.4-0.7,0.7c-0.3,0.6-0.6,0.9-1,0
		c-0.1-0.2-0.4-0.4-0.6-0.6c0.3-0.5,0.5-1.1,0.8-1.6C168.8,83.9,168.9,83.9,168.9,83.9z"/>
	<path d="M143.3,66.4c-2.3-0.5-4.7-1-7-1.4c-0.5-0.1-1.1,0-1.6,0.2c-0.7,0.2-2.8-0.8-3-1.6c0-0.2,0.1-0.5,0.2-0.6
		c0.4-0.1,1-0.4,1.3-0.2c2.3,1.4,4.9,1.5,7.4,2.3c0.9,0.3,1.8,0.7,2.7,1C143.4,66.3,143.3,66.4,143.3,66.4z"/>
	<path d="M131.8,36.5c4.2-0.7,8.1-1.4,12.1-2.1C143.1,35.6,133.1,37.4,131.8,36.5z"/>
	<path d="M172.3,90.9c0.8-0.3,1.6-0.6,2.5-1c-0.8,0.9-2.1,1.4-2.2,3c-0.5-0.1-0.9-0.2-1.3-0.3c0-0.1-0.1-0.3-0.1-0.4
		c0.3-0.2,0.5-0.3,0.8-0.5c-0.1-0.2-0.1-0.3-0.1-0.3c-0.3-0.2-0.6-0.3-0.9-0.5c0.3-0.3,0.6-0.6,0.8-0.8c0.4-0.3,0.7-0.6,1.1-0.9
		c-0.7-0.9-1.1,0-1.6,0.2c-0.5,0.2-1,0.4-1.5,0.6c0.4-0.8,2.5-1.9,3.1-1.7c0.5,0.2,0.6,0.6,0.3,1c-0.3,0.4-0.6,0.9-0.9,1.3
		C172.2,90.7,172.3,90.8,172.3,90.9z"/>
	<path d="M74.1,81.4c0.1,0.7,0.3,1.3,0.4,2c0.2,1.7,0.3,3.4,0.5,5c0.1,0.4,0.5,0.7,0.8,1.1c0.3-0.4,0.6-0.7,0.8-1.2
		c0.1-0.4,0-0.9,0-1.3c0-0.3,0.2-0.6,0.3-1c0.7,1.2,0.2,3.6-0.7,4.1c-0.6,0.4-1.3,0.1-1.5-0.9c-0.2-0.9-0.3-1.9-0.4-2.9
		c-0.1-1.6-0.2-3.3-0.3-4.9C74,81.4,74,81.4,74.1,81.4z"/>
	<path d="M150.9,53.3c-1.1,0.2-2.2,0.5-3.3,0.7c-0.2,0-0.6-0.3-0.6-0.5c-0.2-1.3,0.5-2.7,1.6-3c-0.2,0.5-0.5,0.8-0.6,1.2
		c-0.1,0.4-0.1,0.8-0.1,1.3c0.4,0,0.8,0.2,1.1,0.1c0.2-0.1,0.3-0.6,0.4-0.9c0.1-0.2,0-0.5,0.1-0.7c0.2-0.2,0.4-0.3,0.7-0.5
		c0.1,0.3,0.3,0.6,0.2,0.8C149.9,52.6,150,53.1,150.9,53.3z"/>
	<path d="M175.7,78.3c1.4-0.3,1.8-1.5,2.2-2.7c0.1,0,0.2,0.1,0.2,0.1c-0.1,0.4-0.2,0.8-0.3,1.3c1.5,0,1.9-1.6,2.9-2.3
		c-0.8,0.9,0,2.3-0.8,3.1c-0.2,0.2-0.3,0.4-0.5,0.6c-0.4-1.1-1.1-1.2-2-0.4C176.6,78.7,176.6,78.7,175.7,78.3z"/>
	<path d="M120.8,85c0.1,0.3,0.2,0.5,0.2,0.8c0.1,0.8,0.5,1.2,1.2,1.1c0.7,0,0.8-0.6,0.8-1.3c0-0.4,0-0.7,0.2-1.1
		c0.1,0.8,0.3,1.7,0.4,2.5c-1.9,0.4-3.7,0.4-4.2-1c0.9,0.3,1.4,0.1,1.1-1.2C120.6,85,120.7,85,120.8,85z"/>
	<path d="M114.7,39.2c-0.1-0.1-0.3-0.2-0.3-0.3c0-0.2,0-0.3,0.1-0.5c0.6-0.9,1.2-1.8,1.7-2.8c0.5-1,0.8-2.1,1.2-3.1
		c0.1-0.2,0.2-0.3,0.4-0.5c0.1,0.2,0.3,0.4,0.3,0.6c0,0.4-0.1,0.8-0.3,1.1c-0.9,1.7-1.8,3.4-2.6,5C115,38.8,114.9,39,114.7,39.2z"/>
	<path d="M120.1,36.8c-1.9,1.7-3.7,3.4-5.8,4.7c-0.1-0.1-0.1-0.2-0.2-0.3c1.9-1.6,3.8-3.2,5.7-4.8C119.9,36.6,120,36.7,120.1,36.8z"
		/>
	<path d="M79.6,21c2.3,1,4.7,2.1,7,3.1c-0.1,0.2-0.1,0.3-0.2,0.5c-2.3-1.1-4.7-2.2-7-3.2C79.5,21.3,79.5,21.2,79.6,21z"/>
	<path d="M77,20.3c-1.9-0.7-3.8-1.3-5.9-2.1C72.1,17.6,76,19.1,77,20.3z"/>
	<path d="M143.5,23.3c0.9-1.2,1.8-2.5,2.7-3.8c0.1,0.1,0.1,0.1,0.2,0.2c-0.7,1.5-1.4,2.9-2.1,4.4C144,23.7,143.7,23.5,143.5,23.3z"
		/>
	<path d="M128.5,25.7c0,0.1,0,0.3-0.1,0.4c-0.9,1-1.8,2.1-2.7,3.1c-0.2,0.2-0.5,0.1-0.7,0.2c0.1-0.3,0.1-0.6,0.3-0.8
		c0.7-0.9,1.5-1.7,2.3-2.5c0.2-0.2,0.5-0.4,0.8-0.6C128.4,25.5,128.5,25.6,128.5,25.7z"/>
	<path d="M163,80.4c0.3-0.2,0.6-0.5,0.9-0.7c0,1.1-0.4,1.6-1.2,1.9c-0.4-1.4-1.3-2.8,0-4.4c0,1,0,2.1,0,3.1
		C162.8,80.3,162.9,80.3,163,80.4z"/>
	<path d="M143.4,22.5c-0.8-1.2,0.9-4.6,2.7-5.8C145.3,18.8,143.3,19.9,143.4,22.5z"/>
	<path d="M136.5,34.5c-0.6,0.6-3.1,1.1-3.6,0.8c-0.1-0.1-0.2-0.3-0.2-0.4c0-0.1,0.2-0.3,0.3-0.3C134,34.5,135.2,34.5,136.5,34.5z"/>
	<path d="M177.7,80.9c1.3-1.8,3.1-1,4.4-1.9c0,0.1,0.1,0.2,0.1,0.4C180.8,79.9,179.3,80.4,177.7,80.9z"/>
	<path d="M176.6,60.5c0.4-0.3,0.7-0.5,1.1-0.7c0.2-0.1,0.5,0,0.6,0.1c0.2,0.4,0.3,0.9,0.4,1.3c-0.2,0-0.4,0-0.7,0
		c-0.4,0-0.8-0.1-1.1-0.2C176.8,60.8,176.7,60.6,176.6,60.5z"/>
	<path d="M129.7,39.6c-0.8-0.4-1.6-0.8-2.4-1.3c0,0,0-0.5,0.1-0.6c0.3-0.2,2.2,1.1,2.4,1.5C129.8,39.4,129.8,39.5,129.7,39.6z"/>
	<path d="M125.2,82.5c0,0.5,0.1,1.1,0.1,1.6c0,0.7-0.1,1.5,1.3,1.2c-0.4,0.5-0.6,0.8-0.8,0.9c-0.5,0.4-0.8,0.3-0.8-0.5
		c0-1.1,0-2.1,0-3.2C125,82.6,125.1,82.6,125.2,82.5z"/>
	<path d="M142.4,19.7c-0.4-0.9,0.3-2.4,1.6-3.3C143.4,17.5,142.9,18.6,142.4,19.7z"/>
	<path d="M175.1,84.7c0.6-0.4,1.4-1,2.1-1.4c0.2-0.1,0.6,0,0.8,0C177.4,85.1,176.1,84.6,175.1,84.7z"/>
	<path d="M150.2,116.9c-0.5,1-1,2-1.5,2.9C148.2,118.8,148.9,117.3,150.2,116.9z"/>
	<path d="M72.2,59c-0.6-0.4-1.1-0.7-1.6-1.1c-0.1-0.1-0.2-0.3-0.2-0.5c0-0.1,0.2-0.3,0.3-0.3C71.3,57,72.3,58.2,72.2,59z"/>
	<path d="M154.1,109.9c0.4-1,1.8-1.5,2.8-1C155.8,109.3,154.9,109.6,154.1,109.9z"/>
	<path d="M118.2,92.6c0.9-0.4,2.1,0.4,2.4,1.7C119.8,93.7,119,93.2,118.2,92.6z"/>
	<path d="M149.5,120.8c-0.3-0.7,0.4-2.2,1.7-2.9C150.7,118.9,150.1,119.9,149.5,120.8z"/>
	<path d="M145.5,24.1c0.7-0.5,1.4-0.9,2.1-1.4c0-0.1-0.1-0.2-0.1-0.3c-0.1,0.3-0.1,0.8-0.2,1c-0.4,0.5-0.6,1.3-1.5,1.1
		C145.7,24.4,145.6,24.3,145.5,24.1z"/>
	<path d="M69.3,60.7c0.8-0.3,1.3,0.3,1.9,0.7c0,0-0.2,0.5-0.2,0.5c-0.6-0.2-1.2-0.5-1.9-0.8C69.2,61,69.3,60.8,69.3,60.7z"/>
	<path d="M146.8,118.1c0.6-0.8,1.3-1.7,1.9-2.5c0.1,0.1,0.2,0.2,0.4,0.3c-0.7,0.8-1.3,1.6-2,2.5C147,118.3,146.9,118.2,146.8,118.1z
		"/>
	<path d="M145.8,11.2c0.3-0.9,1.5-1.4,2.6-1C147.6,10.5,146.8,10.8,145.8,11.2z"/>
	<path d="M124.9,94c0.7-0.5,1.3-0.9,2-1.4c0.1,0,0.3,0.1,0.3,0.1c0,0.1,0,0.4-0.1,0.5c-0.7,0.4-1.4,0.8-2,1.2
		C125.1,94.3,125,94.1,124.9,94z"/>
	<path d="M180.9,81.9c-0.4,0.5-0.7,1-1.1,1.6c-0.6-0.5-0.2-1.2,0.9-1.8C180.7,81.8,180.8,81.8,180.9,81.9z"/>
	<path d="M139.2,71.2c-0.6,0.5-1.3,0.9-1.9,1.4c-0.1-0.1-0.1-0.2-0.2-0.4c0.4-0.8,1.3-0.8,2-1.3C139.1,71.1,139.1,71.2,139.2,71.2z"
		/>
	<path d="M184.6,80.9c-0.3,0.5-0.8,0.6-1.2,0.3c-0.1-0.1-0.1-0.4-0.1-0.5c0.4,0,0.9-0.1,1.3-0.1C184.6,80.6,184.6,80.8,184.6,80.9z"
		/>
	<path d="M125.4,24.6c0.8-0.3,1.7-0.7,2.5-1c0,0.1,0.1,0.2,0.1,0.2c-0.8,0.4-1.6,0.8-2.4,1.3C125.5,24.9,125.5,24.8,125.4,24.6z"/>
	<path d="M152.5,12.2c0.2,0.3,0.4,0.6,0.6,0.9c-0.1,0.1-0.4,0.4-0.4,0.3c-0.3-0.2-0.6-0.4-0.8-0.7c-0.1-0.1,0.1-0.4,0.2-0.7
		C152.3,12.1,152.4,12.2,152.5,12.2z"/>
	<path d="M174.1,76.5c-0.1,0.4-0.1,0.9-0.2,1.7c-0.4-0.5-0.8-0.8-0.7-1c0.1-0.3,0.4-0.6,0.7-0.9C174,76.4,174.1,76.4,174.1,76.5z"/>
	<path d="M179.5,83.7c0.3,0.6,0.5,0.9,0.7,1.4c-0.4,0.1-0.7,0.2-1.3,0.3C179.2,84.7,179.3,84.3,179.5,83.7z"/>
	<path d="M155.8,111.7c-0.6,0-1.2,0-1.8,0c0-0.1,0-0.2,0-0.3C154.7,110.8,155.2,111.6,155.8,111.7z"/>
	<path d="M173.6,79.7c-0.6,0.5-1.1,0.9-1.6,1.3C172,80.2,172.5,79.8,173.6,79.7z"/>
	<path d="M176.5,81.3c-0.4,0.4-0.7,0.8-1.1,1.2C175.6,81,175.7,80.9,176.5,81.3z"/>
	<path d="M167.8,94.7c-0.1,0.4-0.1,0.8-0.3,1.1c-0.1,0.2-0.2,0.4-0.4,0.5c-0.1,0-0.3-0.1-0.3-0.2c0-0.2,0-0.6,0.2-0.7
		C167.2,95.1,167.5,94.9,167.8,94.7z"/>
	<path d="M151.6,16.7c0.5,0.3,1,0.6,1.5,0.8c-0.1,0.1-0.1,0.3-0.2,0.4c-0.5-0.2-1-0.5-1.5-0.7C151.4,17,151.5,16.9,151.6,16.7z"/>
	<path d="M52.5,133.1c0.7,0.7,1.4,1.5,2.2,2.1c1.3,1.1,2.6,2.3,3.9,3.3c1,0.8,2.1,1.3,3.1,2c0.6,0.4,1.1,1,1.5,1.7
		c0.4,0.7,0.8,0.9,1.5,0.5c0.2-0.2,0.7-0.1,1,0.1c1.6,1,3.2,2,4.8,3c0.3,0.2,0.8,0,1.2,0.2c0.5,0.3,1.3,0.6,1.5,1.2
		c0.6,1.7,1.4,2.2,3,1.6c0.3-0.1,0.7-0.2,1-0.3c0,0.1,0.1,0.2,0.1,0.3c-0.2,0.2-0.3,0.6-0.6,0.6c-1.1,0.3-2.2,0.5-3.2-0.2
		c-0.4-0.2-0.6-0.9-0.9-1.3c-0.3-0.4-0.5-1-0.8-1c-1.7,0-2.9-1.3-4.3-2.1c-0.5-0.3-1-0.8-1.6-1.1c-0.3-0.2-0.8-0.3-1.1-0.1
		c-0.8,0.4-1.4,0.2-1.8-0.5c-1.2-2.2-3.4-3-5.1-4.3c-1.3-1-2.5-2.1-3.8-3.2c-0.5-0.4-1-0.9-1.5-1.4c-0.2-0.2-0.4-0.5-0.5-0.7
		C52.3,133.3,52.4,133.2,52.5,133.1z"/>
	<path d="M180.8,143.7c1-1.2,1.9-2.4,2.9-3.6c0.1,0.1,0.2,0.2,0.3,0.3c-1,1.2-1.9,2.4-2.9,3.6C181.1,143.9,181,143.8,180.8,143.7z"
		/>
	<path d="M164.2,147.3c1.4-0.8,2.7-1.5,3.9-2.2C168.2,145.9,165.7,147.3,164.2,147.3z"/>
	<path d="M180.9,145.5c0.9-0.9,1.7-1.9,2.6-2.8c0.1,0.1,0.2,0.3,0.4,0.4c-0.9,0.9-1.7,1.9-2.6,2.8
		C181.2,145.8,181.1,145.7,180.9,145.5z"/>
	<path d="M59.1,141.3c-0.9-0.6-1.8-1.2-2.7-1.8c0.8-0.3,2.2,0.5,2.8,1.6C59.2,141.2,59.1,141.2,59.1,141.3z"/>
	<path d="M183.7,145.5c-0.9,1-1.7,1.8-2.5,2.7C181.2,147.1,182.5,145.7,183.7,145.5z"/>
	<path d="M56.2,140.6c0.9,0.5,1.8,1,2.7,1.5c-0.1,0.1-0.1,0.3-0.2,0.4c-0.9-0.5-1.8-1-2.7-1.5C56.1,140.9,56.1,140.8,56.2,140.6z"/>
	<path d="M171.9,143.9c1-0.5,2-0.9,3-1.5c-0.2,0.8-0.5,0.9-2.9,1.7C172,144.1,172,144,171.9,143.9z"/>
	<path d="M57.2,147.1c0.7-0.4,1.2,0,1.6,0.8c-0.6-0.2-1.1-0.3-1.7-0.5C57.2,147.3,57.2,147.2,57.2,147.1z"/>
	<path d="M56.9,142.6c0.6,0.3,1.1,0.6,1.7,0.9c-0.1,0.1-0.1,0.2-0.2,0.4c-0.5-0.3-1.3-0.2-1.7-0.9C56.8,142.8,56.9,142.7,56.9,142.6
		z"/>
	<path d="M58.4,145.7c-0.5-0.2-1-0.3-1.5-0.4C57.4,144.5,58,144.7,58.4,145.7z"/>
	<path d="M207.1,37.3c-0.1-2.4-0.2-4.6-0.3-6.8C207.9,31.1,208.2,35.6,207.1,37.3z"/>
	<path d="M211.4,22.4c0,1.7,0,3.5,0,5.3C210.8,27.2,210.8,23.6,211.4,22.4z"/>
	<path d="M211.5,21.6c0.2-1.6,0.4-3.2,0.7-4.9C212.9,17.3,212.7,20.1,211.5,21.6z"/>
	<path d="M210.1,29.2c0.6-1,0.7-1,1.8-0.1C211.2,29.1,210.8,29.2,210.1,29.2z"/>
	<path d="M33.9,41.6c0.2-1.1,0.4-2.3,0.6-3.4c1.8,3.5,3.4,6.9,5.1,10.3c0,0.1-0.1,0.1-0.1,0.2c-0.2-0.2-0.4-0.3-0.6-0.6
		c-0.9-1.7-1.8-3.4-2.7-5.1c-0.2-0.3-0.5-0.6-0.7-1c-0.2-0.3-0.3-0.6-0.4-0.9c-0.1-0.2-0.3-0.4-0.4-0.6c-0.1,0.2-0.2,0.4-0.3,0.6
		c-0.1,0.2-0.1,0.4-0.2,0.6C34.1,41.7,34,41.6,33.9,41.6z"/>
	<path d="M32.6,39.8c0.4-1.3,0.8-2.6,1.1-4c0.1,0,0.2,0.1,0.2,0.1c-0.3,1.4-0.6,2.7-0.9,4.1C32.9,39.9,32.8,39.8,32.6,39.8z"/>
	<path d="M159.5,126.3c0.2-0.7,0.4-1.4,0.6-2.1c0.3-0.9,0.6-1.9,0.9-2.8c0.3-0.8,0.7-1.7,1.1-2.5c0.1,0.1,0.2,0.1,0.4,0.2
		c-0.2,0.6-0.3,1.3-0.6,1.9C161.1,122.8,160.3,124.6,159.5,126.3C159.5,126.3,159.5,126.3,159.5,126.3z"/>
	<path d="M155.8,126.2c-0.5,1.9-1,3.8-1.5,5.8c-0.1,0-0.2-0.1-0.3-0.1c0.1-2,1.1-3.8,1.5-5.8C155.6,126.1,155.7,126.1,155.8,126.2z"
		/>
</g>
</svg>
