<?xml version="1.0" encoding="utf-8"?>
<!-- Generator: Adobe Illustrator 24.0.2, SVG Export Plug-In . SVG Version: 6.00 Build 0)  -->
<svg version="1.1" id="Слой_1" xmlns="http://www.w3.org/2000/svg" xmlns:xlink="http://www.w3.org/1999/xlink" x="0px" y="0px"
	 viewBox="0 0 238.1 150.2" style="enable-background:new 0 0 238.1 150.2;" xml:space="preserve">
<g>
	<path d="M120.2,83.5c-0.9,0.6-1.8,1.1-2.6,1.7c-0.2,0.2-0.3,0.6-0.4,0.9c-0.1,0.9-0.1,1.7-0.2,2.6c0,0.1,0,0.2,0,0.3
		c-0.1,0.3-0.2,0.5-0.4,0.8c-0.2-0.2-0.5-0.3-0.6-0.5c-0.8-1.5-1.5-2.9-2.2-4.4c-0.2-0.4-0.2-1-0.1-1.4c0.2-1,0.4-2,0.7-3
		c0.2-0.6,0.5-1.2,0.7-1.7c0-0.1,0.1-0.2,0.1-0.4c-0.4,0.3-0.8,0.6-1.2,0.9c-0.4,0.3-0.8,0.6-1.2,0.9c-0.1,0.1-0.3,0.1-0.5,0.2
		c0-0.2,0-0.4,0-0.5c0.4-0.8,0.9-1.6,1.4-2.3c1.5-2.3,3.5-4.1,6-5.3c0.1,0,0.1-0.1,0.2-0.1c-0.1,0-0.2-0.1-0.3-0.1
		c-2.7-0.7-5-2-7.1-3.8c-0.3-0.2-0.5-0.5-0.7-0.8c-0.2-0.4,0-0.7,0.4-0.7c0.2,0,0.4,0.1,0.6,0.1c1.2,0,2.5,0.1,3.7,0.1
		c0-0.1,0-0.1,0-0.2c-0.2-0.1-0.4-0.2-0.5-0.3c-0.1-0.1-0.2-0.2-0.3-0.4c0.1-0.1,0.3-0.1,0.4-0.2c0.1,0,0.2,0,0.3-0.2
		c-0.2-0.1-0.5-0.2-0.7-0.4c-1.9-0.9-3.8-1.8-5.4-3.2c-1.4-1.1-2.1-2.7-2.7-4.3c0-0.1,0-0.1,0-0.3c2.9,0.4,5.6-0.3,8.1-1.8
		c-0.1-0.1-0.5-0.2-0.5-0.4c0-0.3,0.1-0.6,0.2-0.8c1.3-1.9,2.6-3.8,3.9-5.8c1.3-1.9,3.2-3,5.3-3.7c0.1,0,0.2,0,0.4-0.1
		c-0.2-0.1-0.4-0.2-0.5-0.2c-1.3-0.3-2.7-0.5-4-0.8c-0.4-0.1-0.8-0.1-0.5-0.8c-1.6,0.4-3.1,0.7-4.6,1.1c-0.1,0-0.2,0.1-0.2,0.1
		c-0.2,0-0.4,0-0.5-0.1c0-0.2,0-0.4,0.1-0.5c0.4-0.5,0.8-1.1,1.2-1.6c1.8-1.8,3.8-3.5,6-4.8c1.3-0.8,2.8-1,4.2-1.1
		c0.8,0,1.6,0,2.5,0c0.1,0,0.3-0.1,0.4-0.1c0-0.1,0-0.3-0.1-0.4c-0.5-0.6-1.1-1.2-1.6-1.9c-0.3-0.4-0.5-1-0.6-1.5
		c-0.3-1.6-0.4-3.3-0.6-4.9c0-0.1,0-0.3,0-0.6c0.6,0.6,1.1,1.2,1.7,1.6c0.6,0.4,1.3,0.7,2,1.1c-0.1-0.5-0.1-0.9-0.1-1.4
		c-0.1-0.9-0.1-1.8-0.2-2.7c0-0.1,0.1-0.2,0.2-0.2c0.1,0,0.3,0.1,0.3,0.2c0.4,0.5,0.7,1.1,1.1,1.7c0.1,0.1,0.1,0.2,0.3,0.4
		c0-0.2,0-0.3,0-0.4c-0.2-2.6-1.3-4.8-2.9-6.7c-1-1.2-1.8-2.4-2.4-3.9c0.1,0,0.3,0,0.4,0c1.5,0.7,3,0.5,4.6,0.3
		c1.6-0.1,3.3,0,4.7,0.8c1.4,0.8,2.4,1.9,3.4,3c0.3,0.3,0.5,0.6,0.8,0.9c0.1-0.4,0.2-0.7,0.1-1c0-0.8,0-1.6-0.2-2.3
		c-0.6-1.8-1.5-3.4-3-4.7c-0.2-0.2-0.4-0.3-0.6-0.4c-0.1-0.1-0.2-0.2-0.3-0.4c0-0.1,0.1-0.1,0.1-0.2c0.3,0.1,0.6,0.1,0.9,0.2
		c2.2,0.6,4.3,1.2,6.4,2.1c1.6,0.7,2.6,2,3.5,3.4c0.3,0.5,0.5,1,0.7,1.4c0.6-1.1,1.2-2.3,1.8-3.4c2-3.4,4.8-5.8,8.5-7.2
		c0.8-0.3,1.6-0.5,2.4-0.8c0.2-0.1,0.4-0.1,0.6-0.1c0.8-0.1,1.6-0.1,2.4-0.2c0.1,0,0.2,0,0.5,0c-0.2,0.3-0.4,0.5-0.6,0.7
		c-0.6,0.6-1.3,1.1-1.9,1.7c-0.2,0.2-0.3,0.3-0.3,0.6c0,0.2-0.1,0.4-0.2,0.6c-0.4,0.9-0.8,1.7-1.2,2.6c0,0.1,0,0.2,0.1,0.3
		c0.1-0.2,0.3-0.3,0.4-0.5c1.2-1.5,2.4-3,4.1-3.9c1.1-0.6,2.4-1,3.6-1.5c2.1-0.8,4.4-1.4,6.3-2.7c1-0.7,2-1.4,2.9-2.2
		c0.5-0.4,0.9-1,1.4-1.5c0.1-0.1,0.1-0.1,0.3-0.1c-0.1,0.8-0.1,1.5-0.2,2.3c-0.4,2.7-1.7,5-3,7.4c-0.8,1.4-1.6,2.8-2.5,4.2
		c-0.1,0.2-0.2,0.4-0.3,0.6c0.2-0.1,0.3-0.1,0.4-0.2c1.8-1.4,3.5-2.8,4.7-4.8c0.1-0.1,0.2-0.2,0.3-0.3c0.1,0.1,0.3,0.3,0.2,0.4
		c0,0.7-0.1,1.3-0.1,2.1c0.4-0.1,0.8-0.2,1.2-0.3c1.4-0.3,2.7-0.5,4.1-0.3c0.2,0,0.5,0.3,0.7,0.4c-0.2,0.2-0.4,0.4-0.6,0.5
		c-1,0.5-2.2,0.8-3.1,1.4c-1.3,0.8-2.4,1.9-3.6,2.9c0,0,0.1,0.1,0.1,0.1c0.1,0,0.2,0,0.3-0.1c1.2-0.5,2.5-0.9,3.7-1.5
		c1.7-0.7,3.3-0.6,5-0.3c3.6,0.8,7.2,1,10.8,0.8c0.5,0,1.1-0.1,1.7-0.2c-1.1,1.9-2.8,3.1-4.4,4.5c0.4,0.2,0.8,0.5,1.2,0.7
		c0.1,0.1,0.2,0.2,0.3,0.3c-0.1,0-0.3,0.2-0.4,0.1c-1.6-0.2-2.9,0.4-4.2,1.1c-0.4,0.2-0.9,0.5-1.3,0.8c0.9,0.1,1.8,0.1,2.7-0.3
		c0.3-0.1,0.7-0.3,1-0.4c0.1,0,0.3,0,0.5,0c0,0.2,0,0.4-0.1,0.5c-0.3,0.4-0.7,0.8-1.1,1.2c0.4,0,0.7-0.1,1-0.1
		c1.8-0.3,3.6,0,5.3,0.5c1.4,0.4,2.8,0.9,4.2,1.4c1.7,0.6,3.3,0.4,5-0.3c0.2-0.1,0.3-0.2,0.4-0.2c0.2,0,0.5,0.1,0.7,0.2
		c0.1,0,0,0.4-0.1,0.5c-1.1,1.7-2.8,2.8-4.5,4c-1.3,0.9-2.6,1.7-3.9,2.6c0,0-0.1,0.1-0.2,0.2c0.3,0,0.4-0.1,0.5-0.1
		c1-0.4,2.1-0.8,3.1-1.2c0.1,0,0.2-0.1,0.3-0.1c0.1,0,0.2,0,0.3,0c0,0.1,0,0.3-0.1,0.3c-1.1,1-2.2,2-3.7,2.4c-0.2,0-0.3,0.1-0.6,0.2
		c0.5,0.3,1,0.6,1.4,0.8c1,0.5,1.7,1.3,2.4,2.1c0.3,0.3,0.6,0.6,0.9,0.9c0.1,0.1,0.1,0.3,0.2,0.4c-0.1,0-0.3,0.1-0.4,0.1
		c-1.3-0.2-2.6-0.4-3.9-0.6c-0.2,0-0.3,0-0.5,0c1.6,0.8,3.4,0.9,5.2,1.1c1.8,0.2,3.5-0.1,5.3-0.4c1.8-0.3,3.1-1.6,4.8-2.2
		c-3.2,4.1-6.9,7.4-11.3,10c0.7,0.1,1.4,0,2-0.2c0.6-0.2,1.1-0.5,1.7-0.8c0.2-0.1,0.3-0.1,0.5-0.1c-0.1,0.2-0.1,0.4-0.3,0.5
		c-0.9,0.8-1.8,1.5-2.8,2.3c-0.1,0.1-0.2,0.1-0.3,0.3c0.7,0.1,1.3,0.2,1.9,0.4c2.3,0.6,4.3,1.7,6.1,3.3c0.4,0.4,0.8,0.7,1.2,1.1
		c0.1,0.1,0.1,0.3,0.1,0.4c-0.1,0-0.3,0-0.4-0.1c-1.3-0.9-2.7-1.4-4.2-1.6c-1.1-0.2-2.1-0.2-3.2-0.4c0,0.1,0,0.1-0.1,0.2
		c0.3,0.2,0.7,0.5,1,0.7c1.4,1.1,2.9,2.2,3.9,3.7c0.7,1,0.9,2.2,1.2,3.3c0.4,1.1,0.8,2.1,1.2,3.2c0.1,0.3,0.4,0.7-0.1,1
		c-0.6-0.5-1.2-1-1.9-1.4c-1.2-0.8-2.4-1.5-3.6-2.2c-1.6-1-3.4-0.8-5.2-0.3c0.1,0.1,0.1,0.2,0.2,0.3c0.2,0.3,0.1,0.4-0.2,0.4
		c-0.2,0-0.4,0.1-0.5,0.1c-0.2,0-0.3,0.1-0.6,0.1c0.3,0.3,0.4,0.7,0.7,1c0.9,0.9,1.8,1.8,2.7,2.5c1.7,1.3,3.7,1.8,5.8,1.2
		c0.2-0.1,0.5-0.1,0.7-0.1c0,0,0.1,0.1,0.1,0.1c-0.1,0.1-0.2,0.3-0.3,0.4c-0.6,0.7-1.5,1.1-2.3,1.4c-1.6,0.6-3.3,0.9-5,0.9
		c-0.8,0-1.7-0.2-2.5-0.3c-0.1,0-0.2,0-0.5-0.1c0.1,0.2,0.2,0.3,0.2,0.4c0.8,0.9,1.7,1.7,2.9,2.2c0.7,0.3,1.4,0.1,2.1-0.1
		c0.1,0,0.2-0.1,0.4-0.1c-0.3,0.6-1.9,1.3-4.6,2c0.2,0.4,0.4,0.9,0.6,1.3c0.6,1.3,1.2,2.6,1.3,4c0.1,1,0,2,0,3.1
		c0,0.1-0.1,0.3-0.2,0.3c-0.1,0-0.2-0.1-0.3-0.2c-0.3-0.3-0.5-0.7-0.7-1c-0.5-0.6-1-1.1-1.5-1.6c-0.1,0-0.1,0.1-0.2,0.1
		c0.1,0.3,0.2,0.6,0.3,0.9c0.1,0.3,0.2,0.5,0.2,0.8c0,0.2,0,0.3-0.1,0.5c-0.1-0.1-0.3-0.2-0.4-0.3c-0.5-0.7-1-1.4-1.5-2.1
		c-0.2-0.2-0.4-0.4-0.6-0.5c0,1.3,0.3,2.5,0.9,3.6c0.6,1.1,1.2,2.1,1.8,3.2c0.1,0.1,0.1,0.3,0.2,0.5c-0.2,0-0.4,0.1-0.6,0.1
		c-0.5-0.2-1-0.4-1.5-0.6c0,0.1,0.1,0.1,0.1,0.2c0.1,0.1,0.1,0.3,0.1,0.4c-0.1,0-0.3,0-0.4,0c-0.8-0.3-1.6-0.6-2.4-0.9
		c-0.2,1-0.4,2-0.6,3c-0.3,1-0.4,2-1.2,2.8c-0.4-0.1-0.5-0.4-0.5-0.8c0-0.7,0-1.4-0.1-2.2c-0.2,0.2-0.4,0.5-0.5,0.7
		c-1,1.5-2,3-3.1,4.4c-0.8,1.1-1.7,2-2.7,3c-0.5,0.5-1.1,0.9-1.9,0.8c-0.2,0-0.5,0-0.7,0.1c-0.4,0.1-0.7,0.3-0.7,0.8
		c0,0.6-0.1,1.3-0.1,1.9c0,0.2,0,0.4,0,0.7c-0.6-0.3-1.1-0.5-1.7-0.8c0,3,0,6,0,8.9c0.8-0.2,1.7-0.5,2.7-0.8
		c1.1-0.3,2.1-0.5,3.2-0.8c0.3-0.1,0.5-0.2,0.7-0.6c0.3-0.6,0.7-1.2,1.1-1.8c0.2-0.2,0.4-0.5,0.6,0c0,0.1,0.2,0.1,0.2,0.1
		c1.5,0.1,2.9,0.7,4.2,1.4c0.2,0.1,0.4,0.1,0.8,0.2c0.3,1.5,0.2,3.1,0.1,4.5c1.1,0.6,2.2,1.2,3.2,1.8c1,0.5,2,0.4,2.9-0.1
		c0.3-0.1,0.6-0.4,0.9-0.3c0.5,0.1,1,0.5,1.5,0.7c0.1,0.1,0.1,0.3,0.1,0.5c0,0.2-0.1,0.3-0.2,0.4c-0.3,0.5-0.2,0.8,0.2,1.1
		c0.1,0.1,0.3,0.2,0.5,0.3c0.1-0.4,0.3-0.7,0.3-1.1c0.1-0.6,0.3-0.8,0.9-0.7c0.7,0.2,1.3,0.5,1.9,0.9c0.3,0.2,0.4,0.5,0.4,0.9
		c0,0.3-0.1,0.7,0,1c0.1,0.6,0.6,0.8,1,0.5c0,0,0.1,0,0.1-0.1c1.5-0.9,2.4-0.6,2.8,1.1c0.2,0.6,0.4,1,0.8,1.4c0.3,0.3,0.3,0.6,0.2,1
		c-0.2,0.6-0.5,1.1-0.3,1.8c0.1,0.2-0.1,0.5-0.3,0.6c-0.2,0.1-0.4-0.1-0.8-0.1c0,0.2,0,0.5,0,0.7c0.1,0.3,0.2,0.7,0.3,1
		c0.1,0.1,0.2,0.3,0.3,0.3c2.3,1.2,3.6,3.1,4.3,5.5c0.1,0.2,0.2,0.4,0.4,0.5c1.3,1.1,2.5,2.4,3.3,3.9c1,1.9,1.1,3.9,1,6
		c0,0.3,0,0.6-0.1,1c-0.1,0-0.2,0-0.3,0c-2.7,0-5.4,0.1-8.1,0.1c-2.1,0-4.3-0.2-6.4-0.3c-3.1,0-6.3,0-9.4,0c-2.5,0-5,0.2-7.5,0.3
		c-2.1,0.1-4.2,0.2-6.3,0.3c-1.9,0.1-3.8,0.3-5.7,0.5c-3.1,0.3-6.3,0.6-9.4,0.9c-1.9,0.2-3.7,0.3-5.5,0.7c-1,0.2-2.1,0.7-3,1.1
		c-1.7,0.8-3.5,1.1-5.3,1.3c-1.8,0.2-3.6,0.2-5.3,0.1c-2-0.1-4.1-0.3-5.7-1.5c-1.2-0.9-2.4-1.1-3.8-1.1c-4.5,0.1-9,0.1-13.5,0.2
		c-0.9,0-1.7,0.1-2.6,0.1c-0.6,0-0.7-0.1-0.5-0.7c0.3-0.9,0.7-1.7,1.2-2.5c2.3-3.8,5.7-6.6,9.6-8.8c0.9-0.5,0.9-0.5,0.7-1.6
		c-0.7-3.5-1.4-6.9-2.1-10.4c-0.1-0.3,0-0.6,0-0.9c0.3-1.5,0.6-2.9,1.2-4.2c0.3-0.8,0.6-1.6,0.8-2.4c0.3-0.9,0.7-1.3,2-1.3
		c0.7-0.1,1.2,0.2,1.6,1c0.4,1,0.8,2,1.1,3c0,0.1,0.1,0.2,0.1,0.3c1.2-0.8,2.3-1.7,3.4-2.5c0.4-0.3,0.8-0.6,1.2-0.8
		c0.3-0.2,0.4-0.4,0.3-0.7c-0.1-2.3-0.9-4.3-1.7-6.4c-0.1-0.2-0.2-0.5-0.3-0.7c-0.6,0.2-0.6,0.9-1,1.4c-0.8-1-1-2.2-1.4-3.4
		c-0.7,0.9-1.2,1.9-2.2,2.6c-0.1-0.3-0.1-0.5-0.1-0.7c0-1.9-0.6-3.7-1.3-5.5c0-0.1-0.2-0.2-0.3-0.2c-1.8,0.5-3.1-0.2-4.2-1.6
		c-1.7-2.2-3.5-4.3-5.2-6.5c0,0-0.1,0-0.1-0.1c-1,0.5-1.8,1.3-2.4,2.2c-0.8,1.1-1.2,2.3-1.1,3.7c0,0.1,0,0.2,0,0.2
		c0,0.1-0.1,0.2-0.1,0.3c-0.1-0.1-0.2-0.1-0.3-0.2c0,0-0.1-0.1-0.1-0.2c-0.4-1.8-1.3-3.5-2.3-5.1c-0.9-1.5-0.8-3.1-0.2-4.7
		c0.3-0.7,0.6-1.4,0.9-2.3c-0.7,0.3-1.2,0.5-1.8,0.7c-1.1,0.5-2.2,0.5-3.3,0.5c-0.1,0-0.3-0.1-0.3-0.2c0-0.1,0-0.3,0.1-0.4
		c0.6-0.5,1.2-1,1.8-1.5c0.4-0.3,0.7-0.7,1.1-1.1C120.3,83.6,120.3,83.6,120.2,83.5z M132.8,82.2C132.8,82.2,132.8,82.3,132.8,82.2
		c-0.1,0.1-0.1,0.2,0,0.3c0.4,1.2,1.1,2.2,1.9,3.2c0.3,0.4,0.5,0.7,0.4,1.3c-0.1,0.5-0.1,1-0.2,1.5c-0.1,0.6,0,1.1,0.6,1.3
		c1.2,0.6,2.3,1.4,2.5,2.9c0,0.1,0.1,0.3,0.2,0.4c1.1,2.7,2.5,5.3,4.2,7.7c1.6,2.2,3.7,3.9,6.1,5.2c3.4,1.9,7,3.4,10.9,4.3
		c2.5,0.6,5,0.6,7.5-0.3c1.7-0.6,3.2-1.5,4.7-2.5c2.6-1.7,5.3-3.3,7.8-5.1c2.5-1.8,4.1-4.3,5.3-7.1c2.2-5,3.6-10.1,4.3-15.5
		c0-0.2,0-0.5,0.1-0.7c0,0-0.1,0-0.1,0c-0.4,0.6-0.9,1.2-1.3,1.8c0,0-0.1,0-0.1,0c0.7-5.2-0.1-10.3-1.5-15.3c-0.5,0.7-1.1,1.3-1.6,2
		c1.5,2.2,2.2,4.6,1.9,7.3c0.1,0,0.1,0,0.2,0c0.1-0.8,0.3-1.6,0.4-2.4c0.1,0.2,0.2,0.3,0.2,0.5c-0.1,0.6-0.1,1.3-0.2,1.9
		c-0.3,1.3-0.9,2.6-0.7,3.9c0,0.1-0.1,0.1-0.2,0.3c-0.1-0.3-0.1-0.6-0.1-0.8c0,0-0.1,0-0.1,0c-0.3,0.8-0.6,1.6-0.9,2.4
		c0,0-0.1,0-0.1,0c0-0.2,0-0.4,0-0.6c-0.6,1-1.1,1.9-1.9,2.5c0,0-0.1-0.1-0.1-0.1c0.2-0.3,0.5-0.7,0.7-1c-0.1,0-0.2,0-0.3,0.1
		c-0.8,0.8-1.9,1.3-3,1.4c-2.1,0.3-4.1,0.3-6.1-0.2c-0.8-0.2-1.7-0.4-2.5-0.7c-0.5-0.2-0.6-0.5-0.5-1c0.1,0,0.2,0,0.2,0.1
		c1,0.7,2.2,1,3.3,1.1c1.4,0.2,2.8,0.1,4.2,0.1c2.4-0.1,4.3-1.2,5.5-3.3c1.2-2,1.7-4.2,1.2-6.5c-0.3-1.4-0.8-2.7-1.9-3.8
		c-0.7,0.9-1.4,1.7-2,2.6c-0.1,0.1-0.2,0.2-0.3,0.3c-0.1,0-0.1-0.1-0.2-0.1c0-1.3,0-2.5,0-3.8c0-1.1-0.2-1.3-1.2-1.7
		c-1.5-0.5-3-0.5-4.5-0.4c-1.1,0.1-2.1,0.3-3,1c-1.4,1-2.6,2.2-3.4,3.8c-0.1,0.1-0.2,0.3-0.3,0.4c0,0-0.1,0-0.1-0.1
		c0.3-0.9,0.6-1.8,0.9-2.7c0,0-0.1,0-0.1-0.1c-0.3,0.4-0.6,0.9-1,1.3c-0.1-0.1-0.1-0.2-0.1-0.3c0.4-1,1-1.9,1.9-2.6
		c0.7-0.5,1.4-0.9,2.1-1.2c2.3-1.1,4.7-1.7,7.3-0.9c0.3,0.1,0.6,0.2,0.9,0.2c0,0,0.1-0.1,0.1-0.1c-0.7-1.5-1.5-3.1-2.2-4.7
		c-0.2,0.1-0.3,0.1-0.4,0.2c-2.6,1.9-5.4,3.7-7.8,5.9c-0.6,0.5-1.2,1.1-1.9,1.6c-0.6,0.5-1.3,0.4-1.6-0.3c-0.2-0.6-0.3-1.3-0.4-2
		c0,0,0.1,0,0.1,0c0.2,0.3,0.3,0.5,0.5,0.7c0.4,0.6,0.6,0.6,1.2,0.3c0.4-0.2,0.9-0.5,1.2-0.8c1.6-1.3,3.2-2.7,4.7-4
		c0.8-0.7,1.7-1.4,2.6-2.2c-2.5-2.4-4.3-5.2-5.2-8.6c-0.1,0.2-0.2,0.3-0.2,0.5c-0.4,1.1-0.7,2.3-1.2,3.4c-1.2,2.7-1.1,5.5-0.8,8.3
		c0.1,0.6,0.4,1.1,0.5,1.7c-1.4-1-2.3-2.4-2.9-3.9c-0.7-1.5-1.2-3.1-1.9-4.8c-0.7,3.6-0.6,7,0.5,10.5c-0.1-0.1-0.2-0.2-0.3-0.3
		c-1.2-1.2-2.3-2.5-3.6-3.5c-1.2-0.9-2.2-1.9-3.2-2.9c-0.1-0.1-0.3-0.3-0.4-0.4c0.1,0.6,0.3,1.1,0.4,1.6c0,0.2,0,0.3,0,0.5
		c-0.2-0.1-0.4-0.1-0.5-0.2c-0.5-0.6-1-1.1-1.4-1.7c-1.2-1.4-1.9-3-2.3-4.7c-0.1-0.6-0.2-1.1-0.3-1.7c-1.8,3.3-4.6,5.6-7,8.4
		c0.1,0.1,0.2,0.2,0.4,0.2c2.5,1.3,5.1,2.6,7.6,3.9c0.5,0.2,1,0.4,1.5,0.3c0.5-0.1,1-0.2,1.3-0.8c0.3,1-0.5,2-1.4,1.9
		c-0.6,0-1.2-0.1-1.8-0.4c-1.1-0.5-2.1-1-3.1-1.6c-1.7-0.9-3.4-1.7-5.1-2.6c-0.5,0.6-0.9,1.1-1.4,1.6c-0.1,0.1-0.1,0.2-0.1,0.2
		c0.2,0.4-0.2,0.7-0.3,1.1c-0.1,0.3-0.3,0.6-0.4,0.9c2-0.9,4.1-0.9,6.1-0.5c2.1,0.5,4.8,1.8,5.4,2.9c-0.3-0.1-0.5-0.3-0.9-0.4
		c0.5,0.8,0.8,1.5,1.2,2.1c0,0-0.1,0-0.1,0c-0.2-0.2-0.4-0.4-0.6-0.5c0,0-0.1,0.1-0.1,0.1c0.4,0.9,0.8,1.9,0.8,2.9
		c-0.2-0.3-0.3-0.7-0.5-1c-1.1-3.1-3.3-5-6.8-4.8c-1.1,0-2.2,0.3-3.3,0.5c-1.3,0.2-2.1,0.8-2.4,2.2c-0.1,0.7-0.4,1.3-0.6,1.9
		c0,0-0.1,0-0.1,0c-0.2-0.7-0.3-1.5-0.5-2.3c-0.4,0.3-0.7,0.6-1,0.9c-1.2,1.4-2,2.9-2.3,4.7c-0.3,2.1,0,4.1,1.4,5.8
		c1.1,1.4,2.3,2.7,4.1,3c0.9,0.2,1.9,0.3,2.8,0.3c2.7-0.1,5.3-0.8,7.7-2.1c0.1-0.1,0.3-0.1,0.4-0.2c0,0.1,0.1,0.1,0.1,0.2
		c-1.9,1.5-4.2,2.3-6.6,2.8c-2.5,0.5-4.8,0.1-7-1c0,0,0,0.1-0.1,0.1c0.4,0.4,0.9,0.7,1.3,1.1c-0.6,0-1-0.4-1.5-0.7
		c-0.6-0.5-1.3-1-2-1.5c-0.6-0.5-1.2-1-1.8-1.6c-0.1-0.1-0.1-0.2-0.1-0.2c0,0,0,0,0.1,0c0.5,0.3,0.9,0.7,1.4,1c0,0,0.1-0.1,0.1-0.1
		c-0.1-0.2-0.3-0.4-0.4-0.6c-1-1.3-1.7-2.7-1.7-4.4c0-0.2,0.1-0.4,0.1-0.5c0.1,0,0.1,0,0.2,0c0.1,0.5,0.1,1,0.3,1.5
		c0.1,0.5,0.3,1,0.5,1.5c0.2,0.4,0.4,0.9,0.8,1.2c-1.5-3.3-1.5-6.5,0.2-9.7c-0.1,0.1-0.2,0.1-0.3,0.2c-0.7,0.8-1.4,1.6-2.1,2.4
		c-0.5,0.5-0.7,1.1-0.8,1.7c-0.3,1.8-0.4,3.5-0.2,5.3c0.1,1.1,0.2,2.2,0.4,3.2c0.3,1.5,0.9,2.9,2,4c-0.5,0-1.2-0.4-1.6-0.9
		c-0.9-1-1.8-2.1-2.6-3.1C133.2,82.7,133,82.5,132.8,82.2z M148.1,131c0.3-0.1,0.5-0.1,0.7-0.2c0.7-0.2,1.3-0.4,2-0.6
		c1.4-0.4,2.8-0.7,4.1-1.1c2.2-0.7,4.4-1.5,6.6-2.2c0.4-0.1,0.5-0.3,0.5-0.7c0-0.9,0-1.9,0.2-2.8c0.4-2.2,0.9-4.3,1.3-6.4
		c0-0.2-0.1-0.4-0.2-0.5c-2.3-1.3-4.6-2.7-6.9-3.9c-0.7-0.4-1.5-0.7-2.3-1c-0.5-0.2-1-0.3-1.5-0.5c-0.3-0.1-0.5,0-0.7,0.3
		c-1.2,2.1-2.4,4.3-2.9,6.8c-0.5,2.4-0.9,4.8-0.9,7.2C148.1,127.1,148.1,129,148.1,131z M164.2,143.9c-2.3-5.4-2.4-11-2.2-16.7
		c-1.4,0.5-2.6,1-3.9,1.4c-1.3,0.5-2.6,0.8-3.9,1.3c-2,0.8-3.6,2.1-5.1,3.6c-0.4,0.4-0.7,0.9-0.5,1.6c0.3,1.1,0.6,2.3,0.9,3.5
		c0.7,2.4,1.4,4.7,2.1,7.1c0.2,0.8,0.2,0.9,1.1,0.9c2.4,0.1,4.8-0.1,7.1-0.9C161.3,145.2,162.7,144.5,164.2,143.9z M163.6,63.4
		c0,0,0.1,0,0.1,0c0-0.3-0.1-0.7-0.1-1c-0.2-1.7-0.3-3.4,0-5.1c0.4-2.1,0.7-4.1,1.2-6.2c0.6-3.1-0.2-5.8-2.2-8.1
		c-1.2-1.4-2.6-2.7-4.2-3.7c-0.8-0.5-0.9-0.8-0.2-1.6c0.1-0.1,0.1-0.2,0.2-0.2c0.6-0.4,1.1-0.9,1.7-1.2c0.9-0.5,1.8-1,2.7-1.4
		c0.4-0.2,0.6,0,0.9,0.3c1.1,1.1,1.6,2.6,2.3,4c0.1,0.2,0.1,0.3,0.2,0.5c0,0-0.1,0.1-0.1,0.1c-0.3-0.2-0.7-0.4-1-0.6
		c0,0-0.1,0.1-0.1,0.1c0.4,0.5,0.8,1.1,1.3,1.7c0.1-0.2,0.2-0.3,0.3-0.5c2.1,1.8,4.1,3.6,6.2,5.4c0-0.2,0.1-0.2,0-0.3
		c0-0.1-0.1-0.2-0.1-0.3c-1.2-2.4-2.4-4.9-3-7.6c0-0.2-0.3-0.4-0.4-0.4c-0.9-0.3-1.8-0.7-2.7-0.8c-1.2-0.2-1.7-1.3-2.4-2.1
		c0.4-0.1,0.7-0.2,1-0.3c0.4-0.1,0.3-0.3,0.2-0.5c-0.3-0.3-0.5-0.7-0.8-0.9c-0.4-0.4-0.6-0.8-0.4-1.4c0.1-0.4,0.1-0.8,0.2-1.2
		c0.2-1.6,0.5-3.2,1.6-4.6c1.3-1.6,2.7-3.1,4.5-4.2c2.3-1.3,4-3.1,5.6-5.1c0.3-0.4,0.6-0.9,0.8-1.4c-0.1,0-0.1-0.1-0.2-0.1
		c-0.1,0.1-0.1,0.3-0.2,0.4c-0.9,0.8-1.8,1.6-2.8,2.4c-0.8,0.6-1.7,1-2.5,1.5c-1.3,0.8-2.6,1.6-3.8,2.6c-1.7,1.5-2.7,3.6-3.3,5.8
		c-0.3,1.3-0.4,2.6-0.6,4c-1.1-1.2-2.9-1.5-3.7-3c0,1.7,1.3,2.8,1.7,4.1c-0.4,0.4-0.9,0.6-1.2,1c-1.1,1.7-2,3.5-3,5.3
		c-0.1,0.1-0.1,0.4,0,0.6c1.5,2.5,2.4,5.1,2.3,8.1c0,2.3-0.1,4.6-0.1,7c0,0.7,0.1,1.4,0.3,1.9c0.9,1.9,1.9,3.8,2.8,5.8
		C163,62.2,163.3,62.8,163.6,63.4z M204.3,51.6c-0.2,0.1-0.3,0.3-0.4,0.3c-0.7,0.4-1.4,0.8-2.1,1.1c-2.5,1.4-5.2,1.7-8,0.8
		c-0.3-0.1-0.6-0.3-0.8-0.3c-1-0.1-2,0-3.1-0.1c-0.2,0-0.5-0.1-0.6-0.2c-0.8-0.8-1.5-1.5-2.2-2.3c-0.6-0.7-1.2-1.5-1.8-2.3
		c0,0.1,0,0.2,0,0.3c0.1,1,0.3,2,0.4,3c0.1,0.9,0.2,1.8,0.2,2.7c0,0.2-0.2,0.4-0.2,0.5c-0.1-0.1-0.3-0.2-0.4-0.4
		c-0.9-1.6-2.1-2.9-3.4-4c-0.4-0.3-0.8-0.5-1.4-0.8c0.6,1.5,1,2.8,1.6,4.1c0.5,1,1.3,1.7,2.2,2.4c0.2,0.2,0.5,0.4,0.7,0.6
		c0,0.1-0.1,0.1-0.1,0.2c-1.1-0.2-2.2-0.4-3.3-0.6c0,0,0,0.1,0,0.1c0.5,1.4,1,2.8,1.5,4.2c0.9,2.2,0.7,4.3-0.1,6.5
		c-0.2,0.4-0.2,0.8-0.4,1.3c0.1,0,0.1,0.1,0.2,0.1c0-0.1,0.1-0.1,0.1-0.2c0.8-1,1.6-2,2.4-3c1.1-1.3,1.9-2.7,1.9-4.4
		c0-0.3-0.1-0.7-0.3-1c-0.1-0.2-0.3-0.4-0.4-0.7c0.1,0,0.1-0.1,0.2-0.1c1.1,1.3,2.3,2.5,2.9,4.2c0.1-0.3,0.2-0.5,0.2-0.7
		c0-1,0-2.1,0-3.1c0-1.2-0.5-2.3-1.2-3.3c-0.1-0.2-0.2-0.3-0.3-0.5c-0.1-0.1-0.1-0.3-0.2-0.4c0.1,0,0.3-0.1,0.4-0.1
		c0.5,0,0.9,0,1.4,0c0.5,0,0.7-0.2,0.8-0.6c0.2-0.8,0.2-0.7,1-0.7c1,0,1.7,0.4,2.2,1.2c0.3,0.4,0.6,0.7,0.9,1.1
		c0.8,1.1,1.9,1.8,3.2,2.3c0.8,0.3,1.5,0.2,2.3-0.2c-1.3-1-2.5-2.1-3.6-3.4c0.1-0.1,0.2-0.1,0.2-0.1c0.2,0.1,0.4,0.2,0.6,0.3
		c1.9,1.3,4.1,1.5,6.3,1.1c1.2-0.2,2.3-0.3,3.4,0.4c0.4,0.2,0.7,0.4,1.1,0.7c1.4,1,2.8,2,3.9,3.4c0-0.2-0.1-0.5-0.2-0.7
		c-0.6-0.8-1.1-1.7-1.8-2.5c-1.2-1.4-2.7-2.4-4.2-3.4c-0.4-0.2-0.7-0.5-1.1-0.8c0.2-0.1,0.3-0.2,0.4-0.2c2.3,0.1,4.6,0.4,6.8,1
		c-0.1-0.1-0.1-0.1-0.1-0.2c-0.2-0.1-0.3-0.2-0.5-0.4c-1.6-1-3.4-1.6-5.2-2.1c-0.9-0.3-1.8-0.6-2.8-0.9c1.2-0.5,2.3-0.9,3.2-1.6
		c-0.2,0-0.4,0.1-0.6,0.1c-1.3,0.3-2.5,1-3.8,1.1c-0.9,0-1.9,0-2.8-0.2c-1-0.2-1.9-0.7-2.8-1.1c-1.6-0.7-3.1-1.5-4.4-2.7
		c-0.4-0.3-0.8-0.6-1.2-0.9c0,0-0.1,0-0.1,0.1c0.1,0.3,0.2,0.7,0.3,0.9c0.8,1.4,1.7,2.7,2.2,4.3c0.2,0.5,0.6,1,1.3,1
		c1.2,0,2.5,0,3.7-0.1C200.2,51.2,202.2,51.3,204.3,51.6z M183.3,32.8c0.2-0.1,0.3-0.2,0.5-0.3c1.2-0.8,2.4-1.5,3.6-2.3
		c0.1-0.1,0.3-0.1,0.5-0.2c0,0.1,0.1,0.1,0.1,0.2c-0.4,0.3-0.7,0.7-1.1,1c-0.4,0.4-0.7,0.7-1.1,1.1c0,0,0.1,0.1,0.1,0.1
		c0.3-0.2,0.5-0.4,0.8-0.5c0.6-0.3,1.2-0.7,1.8-0.8c0.9-0.1,1.8,0.1,2.6,0.2c0.7,0.1,1.4,0.1,2.1-0.1c0.5-0.2,1-0.3,1.5-0.5
		c0,1.5-0.7,2.9-1.8,3.7c-1.3,1-2.8,1.6-4.4,2.3c-1.5,0.6-3.1,1.1-4.8,1.2c-0.7,0-1.4,0.1-2.1,0.1c0.1,0.1,0.2,0.2,0.3,0.2
		c1.9,0.8,3.7,1.6,5.6,2.4c0.7,0.3,1.4,0.7,2.1,0.9c0.1,0.1,0.4,0,0.4-0.1c0.8-1.1,1.7-2.3,2.5-3.4c0.2-0.3,0.3-0.5,0.5-0.8
		c0.6,0.5,1.2,0.9,1.8,1.4c0.1,0.1,0.1,0.3,0.1,0.4c-0.3,0.8-0.7,1.7-1,2.5c0,0.1-0.1,0.2-0.1,0.3c1.8,0.9,3.6,1.9,5.4,2.8
		c0.2,0.1,0.4,0.1,0.6,0c2.1-0.7,4.1-1.4,6.1-2.1c0.4-0.2,0.9-0.2,1.4-0.3c0.5-0.1,1-0.1,1.5-0.2c0,0,0-0.1,0-0.1
		c-0.1,0-0.2-0.1-0.3-0.1c-0.6,0-1.2,0.1-1.8,0.2c-0.7,0.1-1.4,0.2-2.1,0.2c-0.7,0-1.4-0.2-2-0.4c-1.8-0.4-3.4-1.2-5-2.2
		c-0.4-0.2-0.7-0.5-1.2-0.9c1.4-0.4,2.6-0.7,3.8-1c0-0.1,0-0.1,0-0.2c-0.3,0-0.6-0.1-0.9-0.1c-0.9,0-1.7,0.1-2.6,0.1
		c-1.2,0.1-2.1-0.5-2.8-1.2c-0.1-0.1-0.1-0.3-0.1-0.4c0.8-1.8,1.6-3.5,2.3-5.3c0.1-0.3,0.3-0.5,0.6-0.5c1.1-0.3,2.2-0.6,3.4-1
		c0.2,0,0.4-0.1,0.5-0.1c0,0,0.1,0.1,0.1,0.1c-0.6,0.8-1.9,1.2-1.8,2.5c0.1,0,0.2,0,0.2,0c1.5-0.4,3-0.8,4.5-1.2
		c1.1-0.3,2.2-0.7,3.3-1.2c0.3-0.1,0.6-0.4,0.8-0.6c-0.6,0-1.1,0.2-1.5,0.2c-1.4-0.1-2.8-0.2-4.1-0.5c-1.9-0.4-3.7-1.1-5.5-1.6
		c-0.8-0.2-1.6-0.3-2.3-0.2c-1.7,0.2-3.3,0.5-4.9,1.1c-0.1,0.1-0.4,0-0.6-0.1c0.1-0.1,0.2-0.3,0.4-0.4c0.8-0.4,1.5-0.8,2.3-1.2
		c0.3-0.2,0.6-0.4,0.9-0.6c-0.1-0.1-0.2-0.1-0.2-0.1c-1.3,0.5-2.6,0.6-3.9,0.6c-0.5,0-0.9,0.3-1.2,0.8c0.9-0.2,1.6-0.3,2.4-0.5
		c0,0.1,0.1,0.2,0.1,0.2C186.8,27.9,184.5,29.7,183.3,32.8z M182.9,43.1c0,0,0-0.1,0-0.1c-0.4-0.1-0.8-0.1-1.1-0.2
		c-2.3-0.7-4.4-1.7-6-3.7c-0.7-0.9-1.1-1.9-1-3.1c0.1-0.5,0.1-1,0.1-1.6c0-0.8,0.3-1.4,0.9-1.9c0.2-0.2,0.5-0.4,0.7-0.6
		c2.1-2,4.2-3.9,6.6-5.4c0.2-0.1,0.4-0.3,0.7-0.5c-1.4-0.6-2.8-0.5-4.2-0.6c-1.4-0.1-2.8-0.2-4.3-0.3c0.3-0.3,0.4-0.5,0.6-0.7
		c1.6-1.2,3.2-2.5,4.8-3.7c0.3-0.3,0.9-0.4,1.3-0.4c1.6,0,3.3,0.1,4.9,0.1c2,0,4.1-0.1,6-0.6c0.9-0.2,1.7-0.7,2.6-1
		c0,0,0-0.1-0.1-0.1c0,0-0.1,0-0.1,0c-1.5-0.1-3.1-0.1-4.6-0.2c-1.1-0.1-2.3-0.2-3.4-0.5c-1.6-0.4-3.2-0.6-4.8-0.3
		c-0.9,0.2-1.7,0.6-2.6,1c-2.2,0.9-4.4,2-6.1,3.7c-0.5,0.5-1.1,1.1-1.7,1.6c-1.5,1.3-3,2.5-4.6,3.8c-0.1,0.1-0.1,0.1-0.2,0.2
		c0.5-0.2,0.9-0.4,1.3-0.6c0.6-0.3,1.2-0.3,1.8,0.2c0.2,0.2,0.6,0.3,0.9,0.4c0.9,0.1,1.7,0.1,2.6,0.1c0.3,0,0.5-0.1,0.8-0.1
		c0,0,0,0.1,0,0.1c-1.5,1.1-3.4,1.2-5,2.1c0.3,0.1,0.5,0.2,0.8,0.3c1,0.3,1.6,1,1.9,2c0.4,1.3,0.9,2.7,1.2,4
		c0.4,1.4,1.1,2.5,2.1,3.4c0.9,0.9,1.9,1.7,2.9,2.5c0.1,0.1,0.1,0.2,0.2,0.4c-0.1,0-0.3,0.1-0.4,0.1c-0.2,0-0.3-0.1-0.5-0.1
		c-0.7-0.1-1.4-0.3-2.2-0.4c0,0,0,0.1-0.1,0.1c0.7,0.5,1.2,1.3,2.2,1.4c1,0.1,1.9,0.3,2.9,0.1C181.6,43.9,182.3,43.5,182.9,43.1z
		 M130.1,50.5c0-0.1,0-0.1-0.1-0.2c-0.7,0.2-1.4,0.4-2,0.7c-2.2,1-4.2,2.1-6,3.7c-0.2,0.1-0.4,0.1-0.6,0.2c0.1-0.2,0.1-0.5,0.2-0.6
		c0.6-0.7,1.2-1.3,1.7-2c1.5-1.8,3-3.5,4.9-5c0.4-0.4,0.9-0.8,1.3-1.1c-0.3-0.4-0.8-0.4-0.9-1c1.7,0.6,3.3,1.1,5,1.7
		c-0.6-1.1-1.2-2-1.6-3c-0.7-1.5-1.4-3-2.1-4.5c-0.1-0.2-0.2-0.4-0.5-0.4c-0.9,0.1-1.8,0.2-2.6,0.4c-2.8,0.9-5.6,1.9-8.5,2.9
		c-0.5,0.2-0.9,0.4-1.4,0.6c0.1,0.1,0.2,0.1,0.4,0c2.4-0.7,4.9-1.3,7.4-1c0.2,0,0.4,0,0.5,0.1c0.1,0,0.1,0.2,0.1,0.2
		c0,0.1-0.1,0.1-0.2,0.2c-0.1,0-0.2,0-0.3,0c-0.9,0-1.6,0.2-2.4,0.6c0.2,0.1,0.3,0.1,0.5,0.1c1.2,0.3,2.5,0.6,3.7,1
		c0.4,0.1,0.8,0.5,1.2,0.8c0.1,0.1,0.1,0.3,0.1,0.4c-0.1,0-0.3,0-0.4,0c-0.3,0-0.5-0.1-0.8,0c-0.8,0.2-1.5,0.5-2.3,0.7
		c-1.4,0.4-2.6,1.2-3.4,2.4c-1.3,1.9-2.6,3.8-3.9,5.8c-0.1,0.1-0.1,0.2-0.2,0.4c1.1-0.5,2.1-0.9,3-1.3c0,0.1,0.1,0.1,0.1,0.2
		c-3,3.1-6.4,5.2-11,4.8c0.3,0.5,0.3,0.5,0.9,0.6c1.9,0.3,3.8,0.3,5.7,0.2c2.4-0.1,4.6-0.4,6.8-1.3c0.9-0.4,1.6-0.9,2.3-1.7
		c1.3-1.6,2.8-3,4.2-4.4C129.1,51.3,129.6,50.9,130.1,50.5z M192.3,141.6c0.5,0,1,0,1.5,0c2.5-0.1,4.9-0.3,7.4-0.3
		c3-0.1,5.9-0.1,8.9-0.1c0.3,0,0.5,0,0.4-0.4c-0.1-1-0.2-2-0.3-3c-0.4-2.9-1.7-5.3-3.5-7.5c-0.2-0.3-0.4-0.3-0.8-0.2
		c-2.5,0.8-4.7,2.1-6.8,3.8c-1.3,1.1-2.5,2.4-3.7,3.6C194.1,138.5,193.2,140,192.3,141.6z M188.8,141.6c0.8,0,1.5,0,2.3,0
		c0.1,0,0.2-0.1,0.3-0.2c1-1.3,1.9-2.7,2.9-4c1.7-2.1,3.6-3.9,5.9-5.4c2.4-1.5,5-2.6,7.7-3.4c1.8-0.5,3.6-0.8,5.4-0.2
		c1.1,0.3,2.2,0.9,3.3,1.4c0.2,0.1,0.5,0.2,0.8,0.4c-0.1-0.3-0.1-0.5-0.1-0.7c-0.4-1.2-1.1-2.1-2.1-2.8c-1.5-1.1-3.2-1.6-5-1.8
		c-2.1-0.3-4.3-0.3-6.4,0.2c-3,0.8-5.5,2.4-7.6,4.6c-2.8,2.9-5.1,6.3-6.7,10C189.2,140.4,189,141,188.8,141.6z M143.8,25.6
		c-0.1-0.2-0.1-0.3-0.1-0.4c-0.3-1.1-0.8-2.1-0.5-3.3c0-0.1,0-0.3-0.1-0.4c-0.6-1.7-1.5-3.4-2.6-4.9c-0.4-0.5-0.9-1-1.4-1.5
		c0,0-0.1,0.1-0.1,0.1c1.8,2.5,2.1,5.3,1.4,8.3c-0.1-0.1-0.3-0.2-0.4-0.4c-0.3-0.4-0.6-0.8-0.9-1.2c-1.2-1.7-2.7-3-4.6-3.9
		c-1-0.5-2.1-0.6-3.1-0.5c-0.7,0-1.4,0.1-2,0.1c-0.8,0-1.6-0.1-2.5-0.1c0.3,0.3,0.5,0.6,0.8,0.7c0.6,0.4,1.3,0.8,2,1.1
		c1.6,0.7,3.2,1.3,4.6,2.3c1.4,1,2.6,2.1,3.1,3.8c0.4,1.2,0.6,2.4,0.7,3.7c0.2,1.3,0.3,2.5,1.2,3.5c0.4,0.5,0.9,1,1.4,1.5
		c1,0.9,2,1.7,3,2.6c-0.1-0.9-0.5-1.7-1-2.4c-0.4-0.6-0.9-1.1-1.3-1.7c-0.6-0.9-0.8-1.8-0.8-2.9c0.2,0,0.3,0.1,0.4,0.2
		c0.7,0.8,1.7,1.2,2.6,1.6c0.2,0.1,0.5,0.1,0.8,0.1c0.9-0.1,1.7-0.4,2.6-0.5c0.6-0.1,1.2,0,1.9,0c0,0,0-0.1,0.1-0.1
		c-2-1.9-3.9-3.8-5.9-5.7c0,0,0.1-0.1,0.1-0.1C143.2,25.2,143.5,25.4,143.8,25.6z M211.5,120c0-0.1,0-0.1,0-0.2
		c-0.2-0.1-0.4-0.2-0.6-0.3c-0.7-0.5-1.3-1-1.4-1.9c0-0.5,0.1-1,0.1-1.4c0-0.2,0-0.4-0.1-0.5c-0.6-0.3-1.2-0.6-1.7-0.8
		c-0.1,0.5-0.2,1-0.4,1.4c-0.1,0.2-0.5,0.4-0.7,0.4c-0.7,0-1.2-0.4-1.6-1c-0.3-0.6-0.2-1.1,0.3-1.5c-0.6-0.3-1.2-0.8-1.9-0.1
		c-0.2,0.2-0.4,0.2-0.7,0.3c-0.3,0.1-0.6,0.1-1,0.1c0.3,0.2,0.5,0.4,0.7,0.6c0.2,0.2,0.4,0.3,0.6,0.5c0.1,0.2,0.2,0.4,0.3,0.6
		c0,0-0.1,0.1-0.1,0.1c-0.3-0.2-0.6-0.5-0.9-0.7c-1.1-0.9-2.3-1.5-3.8-1.1c-0.5,0.1-1.2,0-1.5,0.3c-0.3,0.3-0.2,1-0.3,1.5
		c0,0,0,0.1,0,0.1c0,0,0,0.1,0,0.1c2.3,0.4,4.6,0.9,6.9,1.3c-0.4,0.1-0.9,0.2-1.3,0.4c-0.5,0.2-0.6,0.4-0.4,0.9
		c0.1,0.1,0.1,0.3,0.2,0.6c-2.1,0-3.6-1.5-5.7-2c0.1,0.4,0.1,0.6,0.2,0.8c0.1,0.3,0.2,0.5,0.3,0.8c0.3,0.7,0.5,1.5,0.8,2.2
		c0.3,0.7,0.9,1.1,1.6,1c0.7,0,1.2,0.3,1.7,0.7c0.3,0.3,0.6,0.6,0.9,0.9c0.3,0.3,0.7,0.4,1.2,0.3c0.7-0.2,1.3-0.3,2-0.4
		c2.2-0.2,4.5-0.2,6.6,0.6c0.4,0.2,0.9,0.3,1.4,0.5c0-0.1,0-0.2,0-0.3c-0.1-0.4-0.3-0.8-0.4-1.2c0,0,0-0.1-0.1-0.1
		c-0.5-0.2-0.5-0.6-0.6-1c-0.1-0.3-0.3-0.4-0.6-0.5c-0.5-0.1-1-0.2-1.5-0.4c-0.6-0.3-1.2-0.7-1.7-1.1c-0.1-0.1-0.1-0.3-0.1-0.5
		c0.1,0,0.3-0.1,0.4-0.1c0.2,0,0.4,0.1,0.6,0.1C210.1,119.9,210.8,120,211.5,120z M147.1,112.3c0,0.2-0.1,0.3,0,0.4
		c0.1,0.6-0.2,0.9-0.7,1.2c-1.3,0.9-2.6,1.9-3.8,2.9c-1.3,1.1-2.1,2.5-2.3,4.3c-0.2,1.8-0.3,3.5-0.5,5.3c-0.1,0.5,0.1,0.8,0.5,1.1
		c1.5,1.1,3.2,1.9,4.9,2.6c0.7,0.3,1.3,0.6,2.1,0.9c-0.3-6.8,0.6-13.4,3.8-19.6C149.9,112.1,148.5,112.2,147.1,112.3z M168.8,124.5
		c-0.1,0-0.1,0-0.2,0c-1.9,0.7-3.8,1.5-5.6,2.3c-0.1,0.1-0.2,0.3-0.3,0.4c-0.1,0.8-0.1,1.6-0.1,2.4c-0.1,3.9,0.3,7.7,1.4,11.4
		c0.2,0.8,0.5,1.5,0.8,2.3c1.3-0.8,2.5-1.5,3.7-2.2c0.2-0.1,0.3-0.4,0.3-0.7c0-1,0-2.1-0.1-3.1c-0.1-0.7,0.1-1.2,0.6-1.6
		c0.3-0.2,0.3-0.5,0.3-0.8c-0.2-2-0.4-3.9-0.6-5.9C169,127.6,168.9,126.1,168.8,124.5z M150.9,146.5c-0.4-1.7-0.9-3.3-1.3-4.9
		c-0.9-3.2-1.8-6.3-2.1-9.6c0-0.1-0.2-0.3-0.3-0.4c-2.2-0.8-4.3-1.8-6.2-3.1c-0.2-0.1-0.4-0.3-0.8-0.5c0,0.7,0,1.3,0.1,1.9
		c0.3,2.3,0.6,4.6,1.1,6.9c0.4,1.9,1,3.8,1.9,5.5c0.9,1.7,2.1,3.1,4.1,3.6C148.5,146.1,149.6,146.4,150.9,146.5z M156.3,24.9
		c0.1,0,0.1,0,0.2,0c0.1-0.2,0.2-0.5,0.2-0.7c1.1-4.3,3.7-7.4,7.6-9.4c1.6-0.8,3.2-1.6,4.7-2.5c2.6-1.6,4.8-3.8,6.7-6.3
		c0.1-0.1,0.2-0.3,0.3-0.4c-0.2,0-0.3,0.1-0.5,0.2c-0.9,0.6-1.8,1.3-2.8,1.7c-1.5,0.7-3.1,1.3-4.6,1.8c-3,1-5.4,2.7-7.3,5.1
		c-0.4,0.5-0.9,1.1-1.3,1.6c-0.1,0.1-0.4,0.1-0.6,0.2c-0.1-0.2-0.2-0.3-0.2-0.5c0-0.7,0.1-1.5,0.1-2.3c-0.1,0.1-0.2,0.1-0.3,0.2
		c-0.2,0.1-0.3,0.1-0.5,0.2c0-0.2,0-0.4,0-0.6c0.6-1.4,1.5-2.5,2.7-3.5c0.4-0.3,0.7-0.6,1.1-0.9c-0.9,0.1-1.7,0.4-2.4,0.7
		c-1.5,0.8-2.9,1.8-3.6,3.4c-0.7,1.6-1.4,3.1-2,4.8c-0.3,0.8-0.4,1.7-0.5,2.5c0,1,0.1,2,0.2,3.1c0,0.5,0.1,1,0.2,1.6
		c0.4-1.5,0.8-2.9,1.2-4.2c0.4-1.4,1.2-2.6,2.2-3.7c-0.2,1.3-0.5,2.6-0.7,3.9C156.4,22.2,156.4,23.6,156.3,24.9z M178.1,142.4
		c0.3-0.7,0.5-1.4,0.9-1.9c0.8-1.2,1.6-2.3,2.5-3.4c3.7-4.4,8.1-7.8,13.6-9.6c1.9-0.7,3.8-1.4,5.8-2.1c0.4-0.1,0.8-0.3,1.2-0.5
		c0,0,0-0.1,0-0.1c-2.1-0.3-4.3-0.7-6.3-1c-0.1,0.6-0.2,1.1-0.4,1.5c-0.2,0.4-0.5,0.6-0.9,0.9c-0.7,0.5-1.4,0.9-2.1,1.3
		c-3.5,2-7.1,3.7-10.9,4.9c-0.2,0.1-0.4,0.3-0.4,0.5c-0.1,1-0.6,1.8-1.4,2.4c-1,0.8-2,1.6-3.1,2.3c-2.2,1.4-4.4,2.7-6.6,4
		c-1.1,0.6-2.2,1.2-3.3,1.9c-0.1,0.1-0.2,0.2-0.4,0.3c0,0,0,0.1,0,0.1C170.2,143.3,174.2,142.9,178.1,142.4z M196.3,128.5
		c-0.1,0-0.2,0-0.3,0c-2.1,0.4-4,1.1-5.8,2.1c-2.5,1.4-4.5,3.4-6.6,5.4c-1.3,1.2-2.4,2.6-3.2,4.1c-0.4,0.7-0.6,1.4-1,2.2
		c1.2-0.1,2.3-0.2,3.4-0.2c1.5-0.1,3-0.2,4.6-0.3c0.1,0,0.3-0.2,0.4-0.3c1.6-4.2,4-7.9,6.9-11.3
		C195.2,129.6,195.7,129.1,196.3,128.5z M129.7,77.5c-0.3,0.3-1.4,2-1.4,2.6c-0.1,1-0.2,2.1-0.1,3.1c0.2,2,0.4,4,0.3,6
		c0,0.8,0.2,1.4,0.7,2c1.3,1.6,2.6,3.3,4,4.9c0.6,0.7,1.1,1.4,1.7,2c0.6,0.6,1.3,0.9,2.1,0.6c0.8-0.3,1.5-0.7,2.3-1.1
		c-0.8-2-1.6-4-2.4-5.9c-0.1,0-0.1,0-0.2,0c-0.1,0.5-0.3,0.9-0.4,1.4c-0.1,0.6-0.1,1.2-0.2,1.7c-0.1,0.7-0.3,0.8-0.8,0.4
		c-0.3-0.2-0.6-0.4-0.9-0.7c-0.2-0.2-0.6-0.2-0.4-0.6c0-0.1,0.5,0,0.7,0.1c0.6,0.2,0.7,0.1,0.9-0.4c0.3-0.8,0.6-1.7,0.9-2.6
		c-0.2-0.2-0.4-0.1-0.6,0.1c-0.2,0.2-0.4,0.3-0.6,0.5c-0.6-0.8-1.2-1.5-1.7-2.3c-0.1-0.2-0.2-0.5-0.1-0.7c0.2-0.6,0.5-1.2,0.7-1.8
		c0.1-0.2,0.1-0.4,0-0.6c-0.3-0.4-0.6-0.8-0.9-1.1c-0.1-0.1-0.4-0.2-0.5-0.2c-0.4,0.3-1.2,0.3-1.3,1c0,0,0,0,0,0
		c0.2,0.9,0.3,1.9,0.5,2.8c0.1,0.5,0.3,1.1,0.4,1.7c-1.2-1-1.6-2.3-2-3.6c-0.2-0.9-0.1-1.7,0.4-2.4c0.2-0.3,0.5-0.6,0.7-0.9
		c0.7-0.8,0.8-1.2,0.2-2.2c-0.3,0.3-0.6,0.6-1,0.8c-0.6,0.5-1,1.1-1.2,1.9c-0.1,0.5-0.2,1-0.3,1.4c0,0.1-0.2,0.2-0.3,0.4
		c-0.1-0.1-0.2-0.3-0.2-0.4c0-0.7,0.1-1.5,0.2-2.2c0.2-1.3,0.4-2.7,0.7-4c0-0.2,0.3-0.6,0.4-0.6c0.2,0,0.5,0.2,0.6,0.4
		c0.3,0.4,0.6,0.8,0.8,1.1c0.1,0.1,0.1,0.2,0.1,0.3c0.1,0,0.1-0.1,0.2-0.1c-0.1-0.9-0.2-1.8-0.3-2.7C131,77.7,130.4,77.6,129.7,77.5
		z M184.9,96.4c0.8,0.2,1.6,0.4,2.4,0.5c0.1,0,0.3,0,0.5-0.1c0.5-0.4,1.1-0.7,1.5-1.1c1.5-1.7,2.9-3.5,4.1-5.5
		c0.9-1.4,1.4-3,1.6-4.6c0.2-1.5,0.2-2.9,0.2-4.4c0-1.3-0.1-2.5-0.5-3.7c-0.2-0.7-0.9-0.9-1.5-0.6c-0.1,0-0.2,0.2-0.2,0.2
		c0,0.6,0.1,1.3,0.1,1.9c0.4,0,0.7-0.1,1.1-0.1c0.5,1.1,0.4,5.8-0.1,6.3c-0.2-0.8-0.3-1.5-0.5-2.3c-0.2-0.7-0.4-1.5-0.9-2.2
		c-0.2,1-0.1,2.5,0.3,3.3c0.5,1.1,0.4,2.1-0.3,3.1c-0.1,0.1-0.2,0.1-0.2,0.2c0,0-0.1-0.1-0.1-0.1c0.1-0.2,0.2-0.5,0.3-0.7
		c0.4-1,0.2-1.9-0.7-2.5c-0.1-0.1-0.4-0.2-0.5-0.1c-0.7,0.3-1.3,0.7-0.9,1.7c0.1,0.2,0.2,0.4,0.3,0.6c0.2,0.3,0.2,0.7,0,1
		c-0.3,0.4-0.5,0.9-0.7,1.4c-0.1,0.2-0.3,0.5-0.4,0.7c-0.1-0.2-0.2-0.5-0.3-0.7c-0.4,0.2-0.4,0.3-0.3,1c0.2,0.9,0.3,1.7-0.5,2.4
		c0.1,0.2,0.2,0.3,0.4,0.5c0.5-0.5,1-1,1.4-1.4c0.1,0,0.1,0.1,0.2,0.1c-0.5,0.6-1,1.2-1.5,1.8c-0.1,0.1-0.4,0.1-0.4,0
		c-0.2-0.3-0.5-0.3-0.8-0.2c-0.4,0.1-0.7,0-0.7-0.5c0-0.2,0-0.4,0-0.6c0.1-1,0.8-1.7,1.2-2.5c0.4-0.7,0.6-1.5,0.9-2.2
		c0-0.1,0-0.2-0.1-0.3c-0.2-0.5-0.3-1,0-1.5c0.4-1,0.8-2,1.2-2.9c0.3-0.7,0-1.3-0.3-1.9C188.8,85.8,187,91.1,184.9,96.4z
		 M180.7,112.2c0.1-0.1,0.2-0.3,0.3-0.4c0.4-0.5,0.8-1.1,1.3-1.5c0.4-0.3,0.6-0.7,0.6-1.2c0-2.4,0.1-4.7,0.1-7.1c0-0.2,0-0.4,0-0.6
		c-0.4,0.4-0.7,0.9-1.1,1.3c-0.8,0.9-1.7,1.9-2.6,2.8c-0.6,0.7-1.3,1.4-2,2c-0.1,0.1-0.3,0.2-0.4,0.3c0,0-0.1-0.1-0.1-0.1
		c0.7-1,1.4-2.1,2.1-3.1c-0.1,0-0.1-0.1-0.2-0.1c-1.3,2-3,3.5-4.7,5.1c1.1-1.5,2.2-2.8,3.1-4.5c-1.2,0.7-2.4,1.4-3.5,2
		c0,0.6,0.2,1.1,0,1.4c-0.5,0.9-1.1,1.9-2.1,2.5c-0.2,0.1-0.3,0.2-0.4,0.4c0,0,0,0.1,0.1,0.1c0.4-0.2,0.8-0.3,1.2-0.5
		c0.6-0.3,1.1-0.3,1.8-0.2c0.8,0.2,1.6,0.2,2.3-0.4c0.4-0.3,0.7-0.2,1.1,0C178.7,111.1,179.7,111.6,180.7,112.2z M167.8,115.2
		c-0.1,0-0.1,0-0.2,0c-1.1,0.4-2.1,0.7-3.2,1.1c-0.1,0-0.3,0.2-0.3,0.4c-0.3,1.2-0.6,2.4-0.8,3.7c-0.2,1.3-0.3,2.6-0.5,4
		c-0.1,0.6-0.1,1.3-0.1,2c2-0.9,3.8-1.7,5.6-2.4c0.3-0.1,0.4-0.3,0.4-0.7c-0.2-1.4-0.3-2.7-0.4-4.1
		C168.1,117.8,168,116.5,167.8,115.2z M191.7,71.6c0.1,0.3,0.2,0.7,0.4,0.9c1,0.8,2.1,1.5,3.1,2.3c0.2,0.2,0.5,0.4,0.6,0.7
		c0.4,0.8,0.7,1.7,1.1,2.5c1,2.1,2,4.2,3,6.3c0.2,0.3,0.4,0.6,0.6,0.9c0,0,0.1-0.1,0.1-0.1c0-0.1-0.1-0.2-0.1-0.2
		c-0.8-1.5-1.3-3-1.5-4.7c0-0.3,0-0.8-0.2-1c-0.8-0.5-1-1.3-1.4-2c-0.7-1.3-1.3-2.5-1.9-3.8c-0.7-1.6-1.1-3.4-1.1-5.1
		c0-0.5-0.2-0.9-0.7-1.2c-0.6-0.3-1.1-0.8-1.6-1.2c-0.3-0.2-0.5-0.5-0.7-0.7c-0.2,4.8-1,9.3-2.8,13.7c0.9-1.1,1.4-2.3,1.9-3.5
		C190.9,74.1,191.5,72.9,191.7,71.6z M127.8,144.2c0.2,0,0.4,0,0.6,0c1.1,0,2.2-0.1,3.3-0.1c0.4,0,0.9,0.1,1.1-0.1
		c0.3-0.2,0.3-0.7,0.5-1c1-2.6,2.3-5.1,4.3-7.1c0.1-0.1,0.2-0.2,0.2-0.3c-0.1-0.3-0.3-0.7-0.5-1.1c-1.3,0.8-2.6,1.5-3.7,2.3
		c-1.8,1.3-3.2,3.1-4.5,4.8C128.5,142.4,128,143.2,127.8,144.2z M170.3,134.8c0.9-0.6,1.8-2,2.1-2.9c0.6-1.8,1.1-3.6,1-5.5
		c0-1.5-0.1-2.9-0.1-4.4c-0.2,0.1-0.4,0.2-0.5,0.3c-1,0.6-2,1.2-3.1,1.8c-0.3,0.2-0.4,0.3-0.4,0.6c0.2,2.6,0.4,5.1,0.7,7.7
		C170.1,133.1,170.2,133.9,170.3,134.8z M208.2,68.5c-0.1,0-0.2-0.1-0.3-0.1c-2.6-0.8-4.6-2.3-6.1-4.6c-0.2-0.3-0.6-0.6-0.3-1.1
		c0,0,0-0.1-0.1-0.2c-0.3-0.5-0.7-0.6-1.3-0.4c0.2,0.7,0.3,1.4,0.5,2.1c0.1,0.4,0.4,0.7,0.8,0.8c0.5,0.2,1,0.4,1.5,0.6
		c0.1,0.1,0.2,0.3,0.2,0.4c-0.1,0-0.3,0.1-0.4,0c-1-0.4-1.9-0.9-2.8-1.4c-1.6-0.9-2.7-2.3-3.8-3.6c-0.3-0.4-0.7-0.7-1-1.1
		c-0.1,0.2-0.1,0.3,0,0.4c0.1,0.6,0.3,1.1,0.4,1.7c0,0.1-0.1,0.3-0.1,0.5c-0.1-0.1-0.3-0.1-0.4-0.3c-0.1-0.1-0.2-0.3-0.2-0.4
		c-0.6-1-1.2-2.1-2.1-2.8c-0.1-0.1-0.3-0.2-0.4-0.2c0,0.4,0.2,0.8,0.3,1.1c0.9,2.1,2.3,3.8,3.5,5.6c0.1,0.1,0.3,0.2,0.5,0.3
		c1.2,0.6,2.5,0.6,3.9,0.5c0.3,0,0.6,0,0.8,0.1c0.7,0.4,1.5,0.8,2.2,1.2C204.7,68.3,206.4,68.7,208.2,68.5z M170.9,113.8
		c-0.7,0.3-1.4,0.6-2,0.8c-0.3,0.1-0.4,0.3-0.3,0.6c0.1,1.3,0.3,2.5,0.4,3.8c0.2,1.4,0.3,2.8,0.5,4.3c0.1,0,0.1,0,0.2,0
		c1.2-0.6,2.3-1.3,3.5-1.9c0.1-0.1,0.2-0.3,0.2-0.4c-0.2-1.1-0.4-2.3-0.6-3.4C172.2,116.3,171.6,115.1,170.9,113.8z M204.1,73.1
		c-1.6-0.8-2.6-2-3.6-3.3c-0.2-0.2-0.5-0.3-0.7-0.5c-1.2-0.7-2.4-1.4-3.6-2.1c-0.3-0.2-0.8-0.2-1,0.1c-0.2,0.3-0.1,0.6,0.1,0.8
		c0.3,0.3,0.6,0.6,0.9,0.8c1.7,1.2,3.4,2.3,5.3,2.9c0.3,0.1,0.5,0.3,0.9,0.5c-2.5,0.9-4.7,0.2-7-0.6c0.2,0.5,0.4,0.9,0.6,1.3
		c0.7,1.5,0.2,1.3,2,1.3c0.1,0,0.1,0,0.2,0c1.3-0.1,2.3,0.4,3,1.5c0.7,1.2,1.3,2.4,1.9,3.6c0.2,0.3,0.3,0.7,0.5,1.1
		c0,0,0.1,0,0.1-0.1c-0.6-2.3-1.1-4.6-2.4-6.7C202.4,73.6,203.2,73.4,204.1,73.1z M173.9,120.9c1-0.6,1.8-1.2,2.6-1.8
		c0.1-0.1,0.2-0.2,0.1-0.3c-0.6-2.1-1.5-4-2.6-5.8c-0.1-0.1-0.3-0.2-0.4-0.2c-0.7,0.3-1.5,0.6-2.2,0.9
		C172.8,115.9,173.4,118.3,173.9,120.9z M138.8,138.1c-1.7,1.7-2.8,3.6-3.5,6c2.7,0.1,5.3,0.1,7.9,0.2c0,0,0-0.1,0.1-0.1
		c-0.5-0.4-0.9-0.9-1.4-1.3c-0.2-0.1-0.5-0.1-0.7-0.1c-0.7,0.1-1.5,0.2-2.2,0.3c-0.2,0-0.6-0.1-0.7-0.2c-0.1-0.1,0-0.5,0.2-0.7
		c0.4-0.6,0.8-1.1,1.2-1.7c0.1-0.1,0.2-0.3,0.1-0.4C139.5,139.3,139.2,138.7,138.8,138.1z M174.5,126.5c0.7-0.6,1.4-1.2,2-1.8
		c0.5-0.4,1.2-0.8,1.3-1.4c0.2-0.6-0.1-1.3-0.2-1.9c-0.1-0.7-0.3-1.3-0.5-2c-1,0.7-1.9,1.3-2.7,1.9c-0.1,0.1-0.2,0.3-0.2,0.4
		c0,0.4,0.1,0.9,0.1,1.3C174.3,124.2,174.4,125.3,174.5,126.5z M140.2,135.9c0,0,0.1,0,0.1-0.1c0-0.1,0-0.1,0-0.2
		c-0.3-2.4-0.6-4.7-0.7-7.1c-0.1-0.8-0.3-1.3-1-1.8c-0.4-0.2-0.7-0.5-1.1-0.8c-0.1,1.7,0.1,3.3,0.3,4.9c0.2,1.5,0.4,3,1.7,4.1
		c0.1,0.1,0.2,0.3,0.3,0.4C139.9,135.5,140,135.7,140.2,135.9z M174,112.5c1.5,1.8,2.4,3.9,3.3,6c0.5-0.4,0.9-0.7,1.3-1.1
		c0.1-0.1,0.2-0.4,0.1-0.5c-0.7-1.4-1.5-2.8-2.2-4.2c-0.2-0.3-0.5-0.6-0.7-0.9C175.2,112,174.6,112.2,174,112.5z M181.3,115.2
		c-0.2-0.3-0.4-0.6-0.5-0.8c-0.8-1.3-1.8-2.3-3.1-3c-0.7-0.4-1-0.3-1.6,0.2c0.6,0.8,1.3,1.6,1.8,2.5c0.6,0.9,1,1.8,1.5,2.7
		C180,116.2,180.7,115.7,181.3,115.2z M139.3,126.6c0-2.5,0.2-4.9,0.9-7.3c-0.5,0.1-0.9,0.3-1.3,0.4c-0.9,1.5-1.2,3.2-1.4,5
		c0,0.2,0.1,0.4,0.2,0.5C138.2,125.7,138.7,126.1,139.3,126.6z M146,106.2c0,0-0.1,0-0.1,0c0,0,0,0.1,0,0.1c0.4,1.6,0.7,3.3,1.1,4.9
		c0,0.1,0.3,0.3,0.4,0.4c1,0.1,1.9-0.1,2.8-0.5c0.2-0.1,0.3-0.2,0.5-0.3c-0.1,0-0.1,0.1-0.2,0.1c-1-1.1-2.1-2.2-3.1-3.4
		c0,0.1,0,0.2,0,0.3c0.3,0.6,0.6,1.3,0.9,1.9c0.1,0.1,0,0.3,0.1,0.5c-0.1-0.1-0.3-0.2-0.4-0.3c-0.2-0.4-0.4-0.8-0.6-1.2
		C146.9,107.8,146.4,107,146,106.2z M173.8,111.6c0,0,0-0.1-0.1-0.1c-0.2,0-0.4,0-0.6,0.1c-0.8,0.3-1.6,0.7-2.5,1
		c-1.1,0.5-2.2,0.9-3.3,1.4c-0.7,0.3-1.3,0.6-2.1,0.7c-0.5,0.1-0.8,0-1.1-0.4c-0.1-0.1-0.2-0.3-0.4-0.3c-0.9,0-1.8,0-2.7,0.1
		c0.9,0.7,1.7,1.2,2.6,1.8c0.1,0,0.2,0,0.3,0c0.5-0.2,1.1-0.4,1.6-0.6c2.5-1.1,4.9-2.1,7.4-3.2C173.3,111.9,173.5,111.7,173.8,111.6
		z M138,117.3c-0.1,0.1-0.2,0.2-0.3,0.4c-0.1,0.1-0.2,0.2-0.2,0.4c-1,1.5-1.4,3.3-1.9,5.1c0,0.1,0,0.3,0,0.4
		c0.4,0.4,0.8,0.8,1.4,1.3c0-0.4,0-0.6,0-0.8c0-1.7,0.4-3.3,1.1-4.9C138.4,118.4,138.4,117.9,138,117.3z M138.2,136.4
		c-2.2,2.1-3.7,4.7-4.5,7.6c0.6,0.1,0.9,0.1,1-0.5c0-0.3,0.2-0.5,0.3-0.8c0.8-1.8,1.9-3.4,3.1-4.8
		C138.6,137.2,138.6,137.2,138.2,136.4z M179.2,117.7c-0.5,0.4-1,0.7-1.4,1.1c-0.1,0.1-0.2,0.4-0.1,0.5c0.2,0.8,0.5,1.6,0.7,2.5
		c0.1,0.3,0.2,0.6,0.3,0.9c0.5-0.4,1-0.7,1.4-1.1c0.1-0.1,0.1-0.3,0.1-0.4C179.9,120.1,179.6,118.9,179.2,117.7z M223,141.7
		c0-1.5-0.4-5.2-1.2-5.9c-0.1,1-0.2,1.9-0.3,2.9c-0.1,0.9-0.2,1.9-0.3,2.9C221.9,141.6,222.4,141.6,223,141.7z M137.3,115.9
		c-2.2,2-3.2,5.2-2.1,6.9c0.1-0.2,0.1-0.4,0.1-0.5c0.3-1.8,1-3.4,2-5C137.7,116.6,137.8,116.6,137.3,115.9z M181.5,115.6
		c-0.6,0.5-1.1,0.9-1.6,1.4c-0.2,0.2-0.3,0.3-0.2,0.6c0.4,1.1,0.7,2.2,1,3.2c0,0,0,0,0.1,0.1C181.4,120.5,181.9,116.6,181.5,115.6z
		 M135.5,124c0,0-0.1,0-0.1,0c0.5,2.3,1.1,4.7,1.6,7c0.1-0.1,0.1-0.2,0.1-0.3c-0.1-1.7-0.1-3.5-0.2-5.2c0-0.1,0-0.2-0.1-0.3
		C136.4,124.8,135.9,124.4,135.5,124z M183,13.9c0,0-0.1,0-0.1,0c-1.4,0.2-2.8,0.7-4.1,1.2c-1.3,0.4-1.3,1.6-1.8,2.5
		c1-0.7,1.8-1.6,2.8-2.2C180.8,14.7,182,14.3,183,13.9z M186.3,109.6c0,0-0.1-0.1-0.1-0.1c-0.7,0.2-1.5,0.4-2.2,0.6
		c-0.2,0.1-0.5,0.3-0.5,0.4c0,0.6,0,1.2,0.1,1.8C184.3,111.2,185.2,110.3,186.3,109.6z M140.7,66.7c-0.6,0.9-1.1,1.7-1.6,2.6
		c0.6-0.5,1-1.1,1.5-1.7C141,67.3,141,67.1,140.7,66.7z"/>
	<path d="M147.4,74c0-1.3,0.3-2.5,1.1-3.6c0.5-0.6,1.1-1,1.9-1.2c1.2-0.2,2,0.3,2.6,1.2c0.5,0.8,0.7,1.7,0.7,2.6
		c0,0.2-0.2,0.4-0.3,0.6c-0.2-0.1-0.4-0.2-0.5-0.3c-0.3-0.2-0.6-0.5-1-0.3c-0.4,0.2-0.5,0.6-0.3,1.1c0.1,0.2,0.2,0.4,0.4,0.5
		c0.1,0.1,0.3,0.2,0.5,0.2c0.9,0.2,1,0.3,0.6,1.2c-0.4,0.9-1,1.5-1.8,1.9c-0.8,0.4-2.3-0.1-3-1C147.6,76.1,147.4,75.1,147.4,74z
		 M152.9,75.6c0-0.1,0-0.1-0.1-0.2c-0.5,0.1-1,0-1.4,0.2c-0.8,0.4-1.1,0.4-1.6-0.3c-0.3-0.5-0.6-1.1-0.8-1.6c-0.6,0.1-1,0.3-1,0.7
		c0,1.5,1,2.6,2.4,2.8C151.6,77.3,152.2,76.4,152.9,75.6z M151.5,74.9c0,0,0-0.1,0-0.1c-0.4-0.6-0.6-1.2,0-1.9
		c0.1-0.1,0.1-0.3,0-0.3c-0.2-0.2-0.4-0.5-0.6-0.5c-0.2,0-0.5,0.2-0.7,0.4c-0.5,0.7-0.5,1.5-0.1,2.2
		C150.5,75.4,150.8,75.4,151.5,74.9z M153.1,73.2c0.6-1.2-0.4-3.1-1.6-3.1c-0.2,0.6,0.1,1.4,0.6,1.3c0.5-0.1,0.6,0.1,0.6,0.4
		c0.1,0.4,0.1,0.7,0.2,1.1C153.1,73,153.1,73.1,153.1,73.2z"/>
	<path d="M176.6,72.4c-0.1,0.7-0.4,0.9-1,0.6c-0.4-0.2-0.8-0.3-1.1,0c-0.2,0.1-0.3,0.4-0.3,0.6c0,0.2,0.2,0.5,0.4,0.5
		c0.4,0.2,0.8,0.3,1.2,0.4c0.6,0.2,0.7,0.6,0.3,1c-0.4,0.5-0.9,1-1.4,1.2c-1.4,0.7-2.9,0.1-3.5-1.4c-0.6-1.7-0.7-3.4,0.1-5.1
		c0.9-1.9,2.4-2.1,4.1-1.2c0.2,0.1,0.5,0.4,0.5,0.7C176.2,70.7,176.4,71.6,176.6,72.4z M172.2,73.4c-0.9,0.2-1.1,0.5-0.8,1.2
		c0.4,1,1.8,1.9,2.8,1.9c0.6,0,0.9-0.4,1.2-0.9c0.1-0.1,0-0.4,0-0.4c-0.4-0.2-0.9-0.4-1.4-0.4c-0.8,0-1.1,0-1.5-0.6
		C172.4,73.9,172.3,73.7,172.2,73.4z M173.6,74.2c0.1-0.5,0.2-1.1,0.3-1.6c0-0.2,0-0.4-0.1-0.6c-0.1-0.1-0.2-0.4-0.3-0.3
		c-0.2,0-0.4,0.2-0.4,0.3c-0.3,0.6-0.2,1.2,0,1.8C173.2,74.1,173.3,74.3,173.6,74.2z M175.5,70.4c0-0.4-0.6-1-0.9-0.9
		c-0.2,0-0.3,0.3-0.4,0.4c0,0.3,0.6,0.8,0.9,0.8C175.3,70.6,175.4,70.5,175.5,70.4z"/>
	<path d="M153.2,97.4c0.2-0.2,0.3-0.4,0.5-0.5c2-1.5,4.3-2.4,6.8-3.1c3-0.9,6.1-1,9.2-0.9c1.2,0,2.3,0.4,3.4,0.5
		c0.1,0,0.2,0,0.3,0.1c0.1,0.1,0.2,0.2,0.3,0.4c-0.1,0-0.3,0.1-0.4,0.1c-1.2-0.1-2.5-0.2-3.7-0.2c-1.9,0-3.8,0-5.6,0.3
		c-3.5,0.6-7.1,1.3-10.3,3.3c-0.1,0.1-0.3,0.1-0.4,0.2C153.3,97.5,153.2,97.4,153.2,97.4z"/>
	<path d="M164.2,79.7c-0.3,0.1-0.4,0.2-0.5,0.2c-0.1,1.3-0.3,2.6-0.4,3.9c-0.7,0-0.9-0.2-0.7-0.9c0.2-0.8,0.3-1.6,0-2.3
		c-0.1-0.2-0.3-0.4-0.4-0.5c-0.1,0.2-0.2,0.3-0.3,0.5c-0.1,0.1-0.3,0.2-0.3,0.2c-0.3-0.2-0.4,0-0.5,0.2c-0.2,0.3-0.5,0.5-0.8,0.8
		c-0.3-0.3-0.3-0.6-0.1-0.8c0.3-0.5,0.5-1.1,1-1.5c0.1-0.1,0.2-0.4,0.3-0.5c0.4-0.4,1.2-0.4,1.6-0.1
		C163.4,79.1,163.8,79.3,164.2,79.7z"/>
	<path d="M164.3,100.5c-1-0.1-1.8-0.2-2.5-0.7c-0.2-0.1-0.2-0.3-0.3-0.5c0.2-0.1,0.3-0.1,0.5-0.2c1.5-0.2,3-0.3,4.5-0.5
		c0.3,0,0.5,0,0.5,0.3c0,0.1-0.2,0.4-0.3,0.5c-0.5,0.3-1,0.6-1.6,0.8C164.8,100.4,164.5,100.4,164.3,100.5z"/>
	<path d="M167.2,69.2c-1.2,0.3-2.5-0.3-2.9-1.3c-0.1-0.2-0.1-0.5,0-0.6c0.2-0.1,0.4-0.1,0.6,0c0.2,0,0.3,0.2,0.5,0.3
		C165.9,68.3,166.3,69.1,167.2,69.2z"/>
	<path d="M158.2,67.9c0.3,1.2-0.7,3-1.6,3.1C157.1,70,157.6,69,158.2,67.9z"/>
	<path d="M142.6,87.8c0-0.4,0.3-0.8,0.6-0.8c0.3,0,0.6,0.4,0.6,0.7c0,0.4-0.4,0.8-0.7,0.8C142.8,88.5,142.6,88.2,142.6,87.8z"/>
	<path d="M182,85.7c0-0.4,0.3-0.7,0.7-0.7c0.3,0,0.7,0.3,0.7,0.6c0,0.3-0.4,0.7-0.7,0.8C182.3,86.4,182,86,182,85.7z"/>
	<path d="M147.2,89.8c0,0.7-0.3,1.1-0.6,1c-0.4,0-0.5-0.3-0.5-0.7c0-0.4,0.4-0.8,0.7-0.7C147,89.5,147.1,89.8,147.2,89.8z"/>
	<path d="M143.9,92.9c0,0.6-0.3,1.1-0.5,1.1c-0.4,0-0.4-0.3-0.5-0.6c0-0.4,0.3-0.9,0.6-0.8C143.7,92.6,143.8,92.8,143.9,92.9z"/>
	<path d="M185.1,89c-0.4-0.1-0.7-0.4-0.7-0.7c0-0.3,0.2-0.5,0.5-0.5c0.3,0,0.6,0.2,0.6,0.6C185.4,88.6,185.2,88.8,185.1,89z"/>
	<path d="M183.1,90.7c-0.3,0.3-0.5,0.5-0.8,0.6c-0.4,0-0.5-0.3-0.5-0.6c0-0.3,0.1-0.6,0.5-0.5C182.6,90.2,182.8,90.5,183.1,90.7z"/>
	<path d="M140.1,90.8c0.3-0.3,0.5-0.6,0.7-0.6c0.3-0.1,0.5,0.3,0.4,0.5c-0.1,0.2-0.3,0.4-0.5,0.6C140.5,91.2,140.3,91,140.1,90.8z"
		/>
	<path d="M178.9,87.4c0.1,0.2,0.3,0.4,0.3,0.6c0,0.2-0.3,0.3-0.4,0.5c-0.1-0.2-0.4-0.4-0.4-0.6c0-0.2,0.2-0.4,0.3-0.6
		C178.8,87.4,178.9,87.4,178.9,87.4z"/>
	<path d="M166.2,70.9c-0.5-0.1-0.9-0.5-0.8-1.1c0.3,0.4,0.6,0.7,0.9,1C166.3,70.8,166.2,70.8,166.2,70.9z"/>
	<path d="M153.7,127.2c0.1-0.3,0.3-0.5,0.4-0.8c0.3-0.6,0.3-1-0.3-1.4c-1.2-0.7-0.9-2.4-0.2-3.1c0.1-0.1,0.1-0.1,0.2-0.2
		c0.2-0.1,0.5-0.2,0.6-0.1c0.1,0.1,0.1,0.4,0.2,0.6c0,0.1,0,0.2,0,0.2c0.5,0.2,1,0.3,1.4,0.5c0.9,0.5,0.9,1.7,0.1,2.4
		c-0.1,0.1-0.2,0.2-0.3,0.1c-0.5-0.1-0.7,0.3-0.9,0.6c-0.3,0.4-0.6,0.9-0.9,1.3C153.8,127.3,153.8,127.2,153.7,127.2z"/>
	<path d="M155.5,114.9c0,0.4-0.1,0.7-0.1,1c0.6,0.1,1.1,0.1,1.6,0.3c0.5,0.1,0.9,0.3,1.3,0.5c0.2,0.1,0.3,0.6,0.2,0.8
		c-0.1,0.2-0.4,0.5-0.6,0.5c-1.4-0.2-2.8-0.5-4-1.4c-0.3-0.3-0.7-0.6-0.5-1.1c0.2-0.4,0.7-0.8,1.2-0.8
		C154.9,114.8,155.2,114.9,155.5,114.9z"/>
	<path d="M157.8,132.7c-0.2,1.2-0.6,2.1-2.1,2c0.1,0.2,0.3,0.4,0.3,0.5c0,0.1,0,0.3,0,0.5c-0.2,0-0.3,0.1-0.4,0
		c-0.7-0.4-1.3-1.4-1.2-2.1c0.1-1.1,0.9-2.2,1.7-2.4c0.6-0.2,1.2,0.1,1.6,0.5c0.8,0.7,0.8,2.1,0,2.8c0.1-0.3,0.2-0.5,0.2-0.8
		c0-0.3,0-0.6,0-0.8C158,132.7,157.9,132.7,157.8,132.7z"/>
	<path d="M158.1,141c-0.4,0.6-0.6,1.1-1,1.5c-0.2,0.2-0.6,0.4-0.8,0.3c-0.3-0.1-0.7-0.5-0.7-0.8c-0.3-1.1,0.2-2.7,1.7-3
		c1.2-0.3,1.8,0.5,1.6,1.6c0,0.2-0.3,0.3-0.5,0.4C158.3,141,158.2,141,158.1,141z"/>
	<path d="M143.6,123.3c-0.1-0.7-0.8-0.1-1.1-0.5c0.4-0.4,1.2-0.5,1.8-0.2c0.5,0.2,0.7,0.6,0.7,1.1c0,1.1-0.8,2.5-1.8,2.8
		c-0.2,0.1-0.6,0.1-0.7-0.1c-0.2-0.1-0.3-0.5-0.2-0.7c0.1-0.9,0.5-1.7,1.2-2.3C143.6,123.4,143.6,123.3,143.6,123.3z"/>
	<path d="M143.2,119.4c0.6-0.6,1.2-1.2,1.7-1.8c-0.3-0.1-0.5-0.1-0.8-0.2c0.1-0.2,0.1-0.5,0.3-0.7c0.3-0.3,0.6-0.6,1-0.9
		c0.3-0.2,0.6-0.1,0.7,0.4c0,0.2,0,0.4-0.1,0.5c-0.5,1.2-1.2,2.1-2.4,2.7c-0.1,0.1-0.3,0.1-0.4,0.1
		C143.2,119.5,143.2,119.5,143.2,119.4z"/>
	<path d="M144.3,140.9c0.3-0.5,0.5-0.9,0.8-1.4c0.1-0.1,0.5-0.2,0.6-0.1c0.6,0.8,1.4,1.4,1.8,2.4c0.2,0.6-0.1,0.9-0.7,0.8
		c-0.5-0.1-0.8-0.3-1.1-0.8c-0.2-0.3-0.3-0.6-0.5-0.8C145,140.9,144.6,140.9,144.3,140.9z"/>
	<path d="M145.5,133.8c-0.1,0.2-0.1,0.4-0.2,0.5c-0.2,0.4-0.6,0.5-0.9,0.1c-0.3-0.4-0.5-0.8-0.7-1.2c-0.2-0.3-0.3-0.5-0.7-0.2
		c-0.1,0.1-0.3,0.1-0.4,0.1c-0.1-0.1-0.2-0.3-0.2-0.4c0-0.5,0.3-1,0.7-1.1c0.5-0.2,0.9,0.1,1.2,0.4c0.3,0.4,0.6,0.9,0.9,1.3
		C145.4,133.4,145.4,133.6,145.5,133.8z"/>
</g>
</svg>
