<?xml version="1.0" encoding="utf-8"?>
<!-- Generator: Adobe Illustrator 26.0.3, SVG Export Plug-In . SVG Version: 6.00 Build 0)  -->
<svg version="1.1" id="Слой_2" xmlns="http://www.w3.org/2000/svg" xmlns:xlink="http://www.w3.org/1999/xlink" x="0px" y="0px"
	 viewBox="0 0 239.5 150.2" style="enable-background:new 0 0 239.5 150.2;" xml:space="preserve">
<style type="text/css">
	.st0{fill:#030303;}
</style>
<g>
	<path class="st0" d="M231.9,138.4c-3.8-3.3-8.8-4.6-13.1-7.3c0.7-5.1,0.3-10.3,1.5-15.3c0.5-4.4,0.9-8.9,1.1-13.3
		c0-0.8,0.6-1.5,0.3-2.2c0.3-7.2,0.8-14.4,0.7-21.6c0-1.9,0.8-3.7,1.3-5.4c2.3-7.5,2.3-15.5,0.9-23.2c-0.2-4.9-0.1-9.8-0.8-14.7
		c-1.3-11.4-4.3-22.6-8.2-33.3c-0.1-0.5-0.6-0.7-0.9-0.9c0.4,1.8,1.1,3.5,1.7,5.2c4,11.7,6.7,23.9,7.4,36.3
		c-1.2-0.3-1.2-1.5-1.6-2.5c-1.3-4.4-3-8.7-4.9-12.9c-0.2-0.6-0.9-0.8-1.3-1.1c-1.4-7.9-3.4-15.7-6.3-23.1c-0.4-0.7-0.5-1.8-1.4-2
		c1.4,4.1,2.9,8.1,4.1,12.2l-0.6,0.1c0.1,0,0.4,0,0.6-0.1c4.3,15.8,6.2,32.1,8,48.3c1,3.5-0.2,7.1,0.9,10.6c0.2,0.7,0.3,1.5,0.1,2.2
		c-0.1,1.5,0.1,3,0.3,4.5c0.3,2.7,0,5.4-0.1,8.1c-0.3,6.3-0.6,12.6-1.1,19l-0.4,0.1c0-4.6,0.3-9.2,0-13.8c0.1-4.2-0.3-8.4-0.3-12.6
		c-0.1-4.3-0.5-8.6-1.1-12.9c-0.7-5-1.3-10-2.3-15c-0.2,0.1-0.5,0.4-0.6,0.5c0.6,3.2,1,6.5,1.6,9.7c-0.3,0.5-0.7,1.2,0.1,1.5
		c0.3,1.3,0.4,2.6,0.4,4c0.3,5.3,0.9,10.6,1.3,16c0.6,16,0.1,31.9-1.1,47.8c-4.4-2.3-8.7-4.9-12.6-8c0.1-2.7,0.2-5.4,0-8.1
		c-0.7-4.3,0-8.6-0.2-12.9c0.1-14.5-0.5-29-2.3-43.4c-0.1-0.8-0.3-1.6-0.8-2.3c-0.1-1.4,0.3-2.9-0.3-4.2c0-0.4-0.2-1.2-0.2-1.6
		c-1.4-10.3-3.1-20.6-6.4-30.5c-2.1-6.5-4.8-12.8-8.3-18.6c-0.2-0.5-0.7-0.7-1.1-0.9c0.1,0.8,0.3,1.6,0.7,2.3
		c2.9,6.3,5.7,12.6,8.4,19c0.5,2.1,1.8,3.8,2.2,6c1.2,4.6,2,9.4,2.9,14.1c0.5,3.3,0.8,6.7,1.5,10c0.1,1.3,0.2,2.6,0.3,3.9l-0.3,0
		c-1.3-4.1-3.2-8-4.9-11.9c-0.6-2.6-1.2-5.2-1.7-7.8c-0.9-2.9-1.5-6-2.6-8.8c-1.4-4.7-3.4-9.1-5.6-13.5c-0.9-1.4-1.4-3.1-2.7-4.2
		c5.4,9.1,9,19.2,11.3,29.5c1.7,6.7,2.3,13.8,1.5,20.7c-0.1-0.1-0.4-0.4-0.6-0.6c-0.8-3.5-2-7.1-3.9-10.1c-0.4-0.3-0.7-0.6-1-0.9
		c0.1,2.3,0.5,4.6,0.1,6.9l-1,0c-0.2-2-0.4-3.6-0.6-5.5c-0.2-1.6-0.9-3.1-0.8-4.7c0.1-2.5-0.8-4.8-1.5-7.2
		c-2.7-7.3-6.6-14-10.7-20.5c-1.2-1.8-2.3-3.7-3.8-5.2c0.4,1.4,1.1,2.6,1.7,3.9c4,7.7,8,15.4,11.4,23.3c3,6.7,4.6,14.1,3.6,21.4
		c-1.1-1-1.3-2.5-1.6-3.8c-0.1-0.7-0.3-1.5-0.6-2.2c-0.2-1.4-0.7-2.8-1.1-4.2c-3-9.2-7.6-17.9-13.1-25.9c-0.4-0.6-0.9-1.1-1.4-1.5
		c3.7,5.4,7.1,10.9,9.9,16.8c-0.2,0-0.5,0-0.7,0c0.2,0,0.6,0.1,0.8,0.1c2.2,4.9,4.3,9.9,5.4,15.1c-2.6-2-4.8-4.4-6.9-6.9
		c-2,1-4.2,1.5-6.1,2.6c-1.2-3.1-2.4-6.2-3.2-9.4c2.3,2.6,5.1,4.8,8,6.7c0.2-0.2,0.5-0.4,0.7-0.6c-5-5.5-8.7-11.9-12.5-18.2
		c2.9,10.9,5.7,22,11.7,31.7c-0.9-0.2-1.7-0.6-2.4-1.1c-3.3-2.6-6.1-5.8-8.5-9.2c0.2,1.2,0.8,2.2,1.3,3.2l0.4-0.1
		c0,2.1,1.8,3.7,2.6,5.6l-0.9-0.2c-2.2-1.7-3.9-4-5.9-5.9c-3-3.1-3.8-7.5-6-11.1c1.7,3.7,3.1,7.6,5.3,11c0.1,0.8,0.4,1.6,0.6,2.4
		c0.4,0.3,0.7,0.5,1.1,0.8c-0.6-0.9-1.2-1.8-1.3-2.8c0.8,0.6,1.6,1.4,2.2,2.2c0.2,0.6-0.3,1.1-0.6,1.6c0.8,1.3,1.6,2.5,2.4,3.8
		c-0.1,0.3-0.2,0.9-0.2,1.3c-1-0.4-1.7-1.3-2.5-2c-0.8-0.9-2-1.6-2.1-2.8c-0.9-1-2-1.8-2.6-3.1c-0.2,0.2-0.2,0.4-0.5,0.6
		c1.9,1.5,3,3.6,4.8,5.2c2,2,4.2,3.8,6.5,5.3c-2.4-2.4-3.7-5.4-5.6-8.2c0.4-0.1,1.1-0.4,1.4-0.5c1.8,1.8,3.7,3.6,5.9,4.8
		c-1.4-2.7-3.6-4.8-4.4-7.8c2.6,3.1,5.4,5.7,8.7,8.1c-2.5,1.5-5.2,3.1-6.7,5.7c-0.4,0.7-0.3,1.5-0.3,2.2c2.6-2.7,5.5-5,8.8-6.7
		c0.5,0.3,0.9,0.6,1.4,1c-0.1-0.3-0.3-1.1-0.4-1.4c2.3-0.8,4.6-1.7,7-1.9c0.2,1.9,0.3,2.2,0.5,3.3c0.3-1,0.6-2.1,0.8-3.2
		c0.6-0.1,1.1-0.2,1.7-0.2c0.1,0.3,0.2,0.6,0.3,1c0.5-1.9,2.8-0.9,4.2-1.2c0,0.8-0.1,1.7-0.1,2.5c0.1,0,0.3,0,0.4,0.1
		c0.7-3.5,1-7,0.9-10.6c1.7,2.1,3.5,4.2,4.8,6.5c0.5,2.3,0.5,4.7,0.8,7.1c-0.2,0.2-0.6,0.5-0.8,0.6l0.1-1.2c-1.6,0.3-3.3,1.2-5,0.5
		c0.5-0.6,0.9-1.2,1.4-1.9c-1.6,0.6-3.1,1.5-4.9,1.9c0.4-0.6,0.9-1.1,1.3-1.7c-0.1-0.6-0.1-1.1-0.2-1.7c-1.2,1.2-2.4,2.8-4.3,3
		c0-0.3,0-0.9,0-1.2c-2.8,1.3-5.9,2-8.6,3.5c-2.7,1.7-6,2.1-8.6,4c0.2,0.1,0.7,0.4,0.9,0.5c-1.4,0.9-3,2.1-4.8,1.4
		c1.1,0.6,2.2,1.3,3.5,1.4c0.6-0.2,1.2-0.2,1.8-0.3c0.2-0.2,0.4-0.3,0.7-0.5c3-2.4,6.8-3.6,10.6-3.5c0-0.3,0-0.8,0-1
		c0.7-0.1,1.4-0.1,2.1-0.1c0.1-0.2,0.4-0.5,0.5-0.7c1.7,0,3.4-0.3,5.2-0.1c0.1-0.2,0.2-0.7,0.3-1c1.8,0.5,3.2,0.6,4.9-0.1
		c0,0.4,0.4,0.5,0.4,0.9c-2.7,0.8-5.3,2-8.1,2c3.1,0.8,6.3-0.8,9.1-2c-0.3-0.3-0.5-0.5-0.8-0.8c1.2-0.2,2.3-0.5,3.4-0.9
		c0.2,3,0.5,6,0.6,9c0.9,12.1,0.9,24.3,0.6,36.5c-0.2,2.8-1.7,5.1-3,7.4c-2.8-2.1-5.3-4.5-7.6-7.1c-3.6-3.7-7.6-7.1-11.9-10
		c-4.4-3.1-7.9-7.4-10.1-12.3c-1.1-2.5-2.7-4.8-3.4-7.5c-0.8-3.2-2.2-6.2-3.8-9.1c-1.1-1.8-1.4-3.8-1.9-5.8c0.9,0,1.9,0.1,2.9,0.1
		c-1-0.7-2.1-1.4-3.1-2.2c0-3.7-0.6-7.5-1.1-11.2c0,0,0.2-0.7,0.5-0.7c-1.3-1.2-2.2-2.8-3.4-4.1c0-0.6,0-1.2,0-1.9
		c-2.8-2.2-3.5-5.9-4.6-9.1c-0.1-0.1-0.3-0.2-0.4-0.3c-0.1,0.4-0.2,1.1-0.2,1.5c-3.4-7.6-6.3-15.4-8.3-23.5
		c-0.1-0.5-0.3-1.1-0.8-1.3c1.2,6.3,3.7,12.2,5.8,18.3c0.5,4.5,1.5,9,2.5,13.5c-2.8-0.5-5.7,0.1-8.4-0.6c-0.3-0.4-0.6-0.8-0.9-1.2
		c0.1,0.3,0.2,1,0.2,1.3c-1.1-0.1-2.2-0.1-3.3-0.1c-2.2-4-3.5-8.4-5.1-12.7c0,0.6,0,1.2,0.2,1.7c1.2,3.7,2.6,7.3,4.3,10.8
		c-3.5-1.1-7.2-1.1-10.8-1.8c-1.7-4.1-3.5-8.2-4.6-12.6c-0.3-1-0.3-2.1-1-2.9c0.7,5.5,3,10.6,5.1,15.6c-2.2,0-4.4-0.6-6.4-1.5
		c-0.4-3.3-1.6-6.4-2.1-9.7c-1.8-8.8-2.2-17.8-1.5-26.7c0.1-2.2,0.9-4.4,0.8-6.7c-1.4,3.5-1.3,7.3-1.5,11c-0.4,0.5-0.7,1.2-0.7,1.9
		c-0.6,7-0.9,14-1,21c0.6,2.7,0,5.4-0.1,8.1c-0.2,0-0.5,0-0.7,0c-0.1-3.4-0.5-6.7-0.5-10.1c-0.6,1-0.2,2.3-0.2,3.5
		c0.2,2.2,0.2,4.4,0.2,6.6c-3.4-0.4-6.8-0.6-10.2-1.1c0.2-6,0.4-12,1.6-17.8c0.1-3.3,1.1-6.5,1.8-9.7c-0.5,0.3-0.8,0.8-1,1.3
		c-1.7,3.7-2.5,7.7-3,11.7c-0.4,2.9-0.8,5.8-1,8.7c-1-1.7-1.9-3.4-3.2-4.9c1.2-1,3.6-1.4,3.4-3.4c0.4-1.8-0.8-3.3-2-4.6
		c-1.8-1.9-3.1-4.3-5.2-5.9c0.7-1,1.4-2.1,1.5-3.4c-0.1-1.2-1.1-2-1.9-2.8c-3.8-3.6-7.9-6.9-12.3-9.9c0.4,0.5,0.7,1,1.2,1.4
		c4,3,7.9,6,11.4,9.6c0.6,0.6,1.2,1.3,0.9,2.1c-0.5,1.8-1.8,3.1-2.8,4.5c-0.3,0-0.8,0-1.1,0c0.1,0.1,0.4,0.3,0.6,0.5
		c-3.5,3.8-6.6,8-9.4,12.5c-0.9,1.5-2.8,1.4-4.3,1.3c-2.7-0.3-5.4-0.3-8,0.6c-0.7,0.4-1.3-0.2-2-0.4c-2,0.8-4.4,1.8-6.5,0.9
		c-0.6-0.9-0.3-2.3,0.2-3.2c2.2-1.7,5-2.7,7.7-2.2c-2.8-0.9-5.5,0.5-7.8,2c-0.8,0.9-0.5,2.3-0.6,3.4c-0.9-0.7-2.4-1.3-2-2.7
		c0.5-4,4.3-6.2,7.6-7.8c0.7-0.2,1.7-1.1,2.1-0.2c2.2-0.6,4.4-0.6,6.6-0.3c0.6-2.8,1.4-5.7,3.7-7.6c0.2,0.1,0.5,0.4,0.6,0.6
		c0.4-1.2,1.6-1,2.6-1.1c-2.6-1.3-5.4-1.8-8.1-2.8c-1.7-0.4-3.2-1.5-4.9-1.4C70.9,8,70.5,6,71.3,4.3c-0.1-0.3-0.2-0.6-0.3-0.9
		c-0.4,2.2-0.9,4.5-0.2,6.7c-2,1.1-2.3,3.6-1.8,5.6c0.6-0.2,1.8,0.5,0.7,0.8c-3.2,0.8-6.4,2-9.1,4c0.2-1.5,0.3-3.1,0.8-4.6
		c-0.1,0-0.3-0.1-0.5-0.1c-0.5,2.1-0.6,4.3-1.2,6.5c-1.1,0.8-2.1,2-2.3,3.4c0.1,1.1,0.5,2.1,1.1,3c-1.7,1.5-3.2,3.1-4.4,5
		c-0.4,1.6,0.5,3.1,2,3.8c0,0.7,0.1,1.4,0.1,2.2c0.4,0.9,1.1,1.5,2,1.7c1.9,0.5,3.8,0.7,5.8,0.8c-3.2,3.1-3.9,8-3.3,12.2
		c-1.3-0.1-2.6,0-3.9,0.3c2.7,3.8,5.3,8,5.7,12.8c-0.2,3.4,2.3,6.1,4.7,8.3c0.6,0.8,1.6,1.3,1.9,2.3c1.4,3.7,3.5,7.1,5.2,10.7
		c1.3,5.9,0.6,11.9,0.2,17.9c0,1.9-1.8,3-2.3,4.8c-0.5,0.2-1.1,0.3-1.6,0.5c-0.4,0-1.2,0.1-1.6,0.1c-3.4-1.4-4.1-5.6-4.5-8.8
		c-0.7-2.5-1.1-5.1-2.5-7.3c-1-1.2-2.4-2.2-3.1-3.7c-1.2-2.4-3.7-3.7-4.7-6.2c-0.6-1.7-1.9-3-3.1-4.4c-3.3-4.4-8.2-7.1-12.5-10.4
		c-2.4-1.2-5.1-1.8-7.6-2.7c-2.1-1.2-4.1-2.8-5.3-4.9c-2.1-3.7-5.7-6.4-8.2-9.8c-3.3-3.6-7-7-11.1-9.8c0.3,0.4,0.9,1.1,1.2,1.4
		c-1.2-0.1-2.3-0.2-3.5-0.3c-0.1-0.6-0.1-1.1-0.2-1.7c-0.5-0.9-0.6-2.1-1.4-2.8c0.4,1.3,1.3,2.5,1.1,3.9C3,46.2,2.5,48,0.8,48.7
		c-1.2,0.4-0.6,1.8-0.7,2.7c1.7-1.6,4.1-2.3,6.3-2.9c1.2-0.3,2.3,0.5,3.6,0.6c1,0.1,2.2,0,3,0.8c2,1.8,3.9,3.7,5.5,5.8
		c2.3,2.8,5.2,5.1,7,8.3c1.2,2.3,3.4,4,5.7,5.3c2.6,0.9,5.3,1.4,7.7,2.8c2.2,1.8,4.6,3.2,6.9,5c0,0.3,0.5,0.7,0.6,0.6
		c2.4,1.7,4.1,4.2,6.1,6.2c1.2,1.1,1.5,2.8,2.4,4.1c1.1,1.8,3,2.9,3.9,4.8c0.9,1.8,2.7,2.8,3.8,4.4c1.5,3.2,1.9,6.7,2.7,10.1
		c0.6,2.6,2.5,5.9,5.7,5.2c0.7-0.2,2.5-1.5,2.5,0c0,2.9,2.9,4.8,5.5,5.2c1,10.7,2.3,21.5,3.7,32.2c4.3,0.2,8.6-0.1,12.9-0.1
		c0.3-0.3,0.6-0.7,0.9-1l-0.4,0.1c0-6.1-0.3-12.2-0.4-18.3c4,5.2,8.6,10,14.1,13.8c-2.8,1.6-5.7,3.2-8.1,5.4
		c4.1-0.3,8.1-0.4,12.2-0.3c2.3,0.5,4.7,0.1,7.1,0.4c-0.6-1.8-0.9-3.7-0.7-5.6c0.2-0.5-0.1-1.5,0.6-1.6c3.9-1.1,8-1.8,12.1-2.3
		c2-0.7,4.1-1.2,6.2-1.1c2.6,0.1,5.1-0.6,7.6-0.8c1.3-0.2,3-0.4,3.6-1.8c-5.8-0.1-11.9,0-17.2,2.5c-4.1,1.5-8.5,1.7-12.7,3
		c-1.9-2.5-2.7-5.6-3.1-8.7c6-3.4,12.2-7.1,19-8.4c-0.1-2,1.6-3.5,2.3-5.3l-1.2,0.2c-1.3,1.4-2.8,2.7-4.6,3.3
		c-5.4-2.2-11.4-2-17.1-2.3c-1.9-0.1-3.8,0.6-5.7,0.1c-0.4,0.3-0.9,0.4-1.4,0.3c-4.7,0-9.2-1.6-13.9-1.6c-4.8-0.6-9.7-0.3-14.3-2.1
		c-2.7-0.7-6.1-1.6-6.7-4.8c2.8,1.5,5.9,1.6,9,1.3c0-0.1-0.1-0.4-0.2-0.5c-3.2,0.7-7.1,0.3-9.4-2.3c0.2-0.9,0.7-1.7,1.5-2
		c3-1.5,6.5-0.3,9.5-1.4c3,0.6,6,0.1,9,0.2c6.5,0.1,13.1-0.4,19.6-1.1c9,2.2,18.4,2,27.6,0.9c1.9-0.5,3.7-1.4,5.6-1.3
		c1.9-0.2,3.6,1,5.5,1.3c2,0.3,4-0.1,6,0.3c1.5,0.2,2.8,0.9,4.3,1.1c3.3,0.3,6.5,1.4,9.6,2.4c1.4,0.1,2.7,0.2,4,0.6
		c3.3,1.2,6.8,0.9,10.2,1.2c-1.4-2.1-4.2-1.8-6.4-2.4c-5.6-1.4-10.9-3.6-16.7-4.2c-0.8-1.9-2.3-3.4-3.3-5.1c-2.2-3.8-3.8-8-4.6-12.4
		c-0.5-2.5-0.1-5.2-1.1-7.7c-1-2.3-2.2-4.5-2.8-6.9c-0.2-4.3,0.5-8.6,1.1-12.9c0.1-2.5,1.9-4.5,3.7-5.9c-0.2,2.9-0.2,5.7,0.3,8.6
		c0.1,0,0.3,0.1,0.4,0.1c-0.1-0.4-0.2-0.8-0.2-1.1c-0.6-2.4-0.4-4.9-0.3-7.4c0.7-1.4,2.5-2.5,4.1-2.2c0.8,0.5,1.2,1.5,1.4,2.4
		c0.6,3.5,0.7,7.1,1,10.6c-1.6-1.3-3.6-1.8-5.5-2.3c1,2.2,3.5,2.9,5.6,3.6c0.7,3.3,2.1,6.4,3.9,9.3c-0.4,0.2-0.7,0.3-1.1,0.5
		c0.3,0,0.9-0.1,1.2-0.2c0.5,1.5,1.2,3,1.6,4.6c0.7,2.9,2.3,5.5,3.6,8.3c2.3,4.9,5.8,9.1,10.2,12.3c5.1,3.5,9.9,7.7,14.1,12.3
		c5.3,5.3,11.4,9.9,18,13.6c0,0.2,0,0.7,0,1c0.3-0.1,0.6-0.3,0.9-0.4c2.4,1.7,5.1,2.8,7.5,4.2c3.2,1.5,6.6,2.8,9.3,5.1
		c2.4,2.1,4.9,4,7.6,5.7c0-0.2,0.1-0.4,0.1-0.6C236.7,142.1,234.2,140.4,231.9,138.4z M216.4,26.9c0.6,0.8,0.9,1.7,1.3,2.6
		c2.3,5.4,4.2,11,5.5,16.7c0.3,1.6,0.8,3.2,0.7,4.9c-1.3-3-2.4-6.1-3.8-9c-0.6-1.7-1.9-3.1-2-4.9C217.6,33.7,216.8,30.4,216.4,26.9z
		 M221,60.7c-0.2-3-0.7-5.9-1-8.9C223,53.6,223.4,58.4,221,60.7z M180.9,61.8c-2.5-2.5-4-5.8-5.5-9c2-1.1,4.1-2.2,6.3-2.6
		c2.1,1.4,3.4,3.8,5.7,5c0.9,1.6,0.7,3.3,1.4,5C186.1,59.6,183.5,61.2,180.9,61.8z M190.5,60.1c0-1.6,0.1-3.2,0-4.7l1.1-0.1
		c-0.2,1.5,0.2,3,0.5,4.5C191.7,59.9,190.9,60,190.5,60.1z M192.5,59.8c-0.7-3.6-0.3-7.3-0.6-11c1,0.6,1.1,1.8,1.6,2.8
		c1.2,2.6,2,5.3,2.7,8C195,59.7,193.7,59.8,192.5,59.8z M118.4,121.6c4.3,0.1,8.7,0.4,12.9,1.7l-0.3,0.5c-3.9,1.6-7.4,3.9-11.2,5.8
		c-1.5,0.1-2.2,1.6-3.3,2.4c-2.2-3.2-4.1-6.7-6-10.1C113.1,121.9,115.7,121.1,118.4,121.6z M103.1,121.4c2.1,4.2,5.6,7.4,8.8,10.7
		c0.9,3.4,1.4,6.9,1.7,10.5c-0.6-0.4-1.1-0.9-1.6-1.4c-3.7-4.1-7.8-8-10.2-13.1c0,2.1,1.7,3.6,2.7,5.3c2.4,3.4,5.5,6.2,8,9.5
		c-0.9,0.4-1.8,0.8-2.7,1.1c-5.7-3.9-10.7-8.9-14.5-14.7c-0.2-3,0-6-0.3-8.9C97.8,120.5,100.5,120.7,103.1,121.4z M94.4,120.2
		c0.3,1.8,0.3,3.7-0.1,5.6c-0.8-1.8-1.1-3.7-1.2-5.6C93.5,120.2,94.1,120.2,94.4,120.2z M92.4,119.9c1.3,9.7,1.8,19.5,2.8,29.2
		c-4.1,0.3-8.1,0.1-12.2,0.2c-1.4-10.4-2.7-20.8-3.6-31.3C83.6,119.5,88,119.9,92.4,119.9z M154.6,47.1c-0.4,0-1.2-0.1-1.5-0.1
		c-0.1-0.9-0.3-1.9-0.3-2.8C153.4,45.1,154,46.1,154.6,47.1z M120.3,37.9c1.1,1.5,0.9,3.5,1.6,5.2c-1.1-0.2-2.2-0.4-3.3-0.6
		C119.2,41,119.7,39.5,120.3,37.9z M57,40.4c-0.9-0.5-0.4-1.7,0.1-2.3c-0.9-0.9-0.2-2.1,0.2-3.1c0.6-1.4,2-2.3,3.3-2.8
		c1.5,1.5,3.7,1.6,5.7,1.3c1.6-0.3,3.2-1.5,4.8-0.6c3-1.1,6.4-0.8,9.5-0.4c1,0,2.2-0.1,3.1-0.8c3.2-5.2,6.8-10.2,11.1-14.6
		c1.2,1.5,2.5,3.2,4.4,3.7c1.9,1.7,4.6,4.2,3.1,7c-1.5,1.3-3.4,2-5,3.1c-4,3.3-6.4,7.9-9.3,12c-0.8,1.1-1.7,2.4-3.2,2.3l0,0.4
		c-4.5-0.4-8.8-1.7-13.1-2.5c-1.4-0.4-2.9-0.7-4.3-0.5C64.1,41.2,60.1,42.5,57,40.4z M64.3,59.9c-1.9-0.7-2-3.3-0.5-4.5
		c2.2-1.8,5.1-3,7.9-2.8c-3-0.8-5.9,0.8-8.2,2.5c-1.3,0.9-0.7,2.7-1.7,3.8c-0.2-1.5-0.2-3,0.4-4.4c1.3-2.4,3-4.5,5-6.3
		c3.1-2.3,7-3,10.8-3.4c1.6,0.1,3.2,0.7,4.9,0.7c0.8,0.4,1.8,0.2,2.6,0.1c1.5-0.5,2.4-1.8,3.3-3c2.7-4.2,5.3-8.5,9.2-11.8
		c1.6,1.7,2.8,3.8,4.4,5.5c0.5,1.4,0.2,2.9,0.1,4.3c-1.2-0.2-2.7,0.3-3.5-0.8c-3.3,4.7-6.5,9.6-8.6,14.9c-1.5,1.1-3.4,1.4-5.3,1.4
		c-3,0.4-6.1,0.7-9.1,0.9c-1.6,0.4-3.3,0.9-5,0.5C68.7,58.4,66.6,59.6,64.3,59.9z M69,74.6l-0.5,0c-0.5-2.1-1.7-3.9-2.2-6
		c-0.1-1.3,0.2-2.6,0.4-3.8c0.3-2.5,2.7-3.7,4.1-5.6c0.6-0.6,2.1-2,2.6-0.6C72,63.9,68.7,68.9,69,74.6z M70.3,79.5
		c-1.2-2.2-0.7-4.9-0.8-7.3c0.2-2.1,0.8-4.4,2.3-6c0.9-1,2.3-1.2,3.5-1.5c0,1.3,0.1,2.5,0.2,3.8c-1.1-1.2-2.6-1.4-4-0.7
		c-0.6,1.6-0.4,3.2-0.3,4.9c0.1,0.2,0.4,0.5,0.5,0.6c0.1-1.8-0.8-4.3,1-5.5c1.4-0.4,2.2,0.9,2.9,1.8c0.2,2.1-0.9,4-1.4,6
		c-0.4,3.4,0.3,6.9-0.5,10.3C72.3,83.9,71.3,81.7,70.3,79.5z M73.8,86.7c1.1-3.1,0.5-6.5,0.8-9.7c0.7,1.4,0.6,3,0.8,4.5
		c0.4,3.3,0.7,6.6,0.8,9.9c0,0.9,0.1,1.9-0.3,2.8c-0.1,0-0.3,0-0.5,0C75.3,91.6,75.4,88.9,73.8,86.7z M76.4,107
		c-0.5-0.8-1.3-1.6-1.2-2.7c0-3.1,0.4-6.1,0.5-9.2c0.7,0.9,1.5,1.9,1.5,3.1c0.2,3,0.6,6,0.6,9C77.5,107.2,76.8,107.1,76.4,107z
		 M83.7,106.8c-1.7-0.2-3.4,0-5.1,0.2c-0.9-9.9-1.8-19.9-2.3-29.8c0-0.2,0-0.6,0-0.8c-0.4-6.3-0.6-12.6-0.7-18.9
		c3.8-0.2,7.5-0.8,11.3-1c1.4-0.3,2.7-1,4.1-0.9c-1.1,17-0.3,34,0.7,51C89.1,106.8,86.4,107.1,83.7,106.8z M94.5,106.4
		c-0.5,0-1.6,0.1-2.2,0.2c-1.1-17-1.8-34-0.7-51c1.9,0.5,3.9,0.3,5.8,0.3c-1.3,5.3-1.6,10.7-2,16.1c-0.4,7-0.6,14-0.7,20.9
		C94.8,97.4,94.3,101.9,94.5,106.4z M152.1,84.8c0.6,3.6,0.6,7.3,0.8,10.9c0.1,3.4,1.4,6.6,2.1,9.9c-2.6-0.9-5.3-1.4-8-1.8
		c-2.8-0.2-5.5,1-8.2,1.7c-4.5,0-8.9,0.3-13.3,0.7c-3.8,0.5-7.7,0.5-11.5-0.2c-3.7-0.9-7.6-0.5-11.4-0.4c-2.4-7.1-4.9-14.2-7-21.4
		c-0.2-3.3,0.1-6.6,0.2-9.9c0.5-3.5,1.5-6.9,2.7-10.3c0.1-0.2,0.4-0.6,0.5-0.7c-0.7-2.4-0.8-4.9-1.3-7.4c0.1-0.2,0.2-0.5,0.3-0.6
		c-2.5,0.6-4.7-0.3-7.3-0.2c1.6-4.1,4.1-7.7,6.3-11.4c6.6,0.1,12.8,0.2,19.4-0.1c2.4,1.2,4.9,2.1,7.6,2.4c4,0.3,8,0.1,11.9,0.2
		c5,0.9,10.2,0.7,15.2,1c2.3,0.4,4.8-0.1,7,0.8c0,1,0.3,2-0.1,3c-1,1.7-2.7,2.8-4.2,3.8c-2.2,1.5-4.9,1.9-7.4,2.3
		c-6.5,0.7-13,0.5-19.6,0.4c-1.8-0.1-3.5-0.6-5.3-1c-4.4-1.1-8.9-0.9-13.4-1.1c0.2,0.1,0.6,0.4,0.8,0.5l0.3,0.2
		c0,4,0.9,7.9,1.4,11.8c-2.2-3.3-3.5-7.1-4.4-10.9l-0.5-0.5c0,0.9,1,2.4-0.6,2.7c0.5,0.4,1,0.8,1.5,1.2c0.8,2.4,1.8,4.7,3.1,6.9
		c-0.6,0.6-1.3,1.1-1.9,1.7c0.8-0.3,1.5-0.7,2.3-1.1c0.5,0.7,1,1.5,1.5,2.2c0-0.9-0.1-1.8-0.2-2.7c1.2-0.5,2.4-1,3.6-1.4
		c0.7,0.8,1.5,1.5,2.3,2.2c-2.1,0.8-4.3,1.3-6.2,2.5c-1.4-0.1-2.8-0.5-4.2-1c0.6,0.6,1.3,1.2,1.9,1.8c-1.5,1.4-3.5,0.1-5.2-0.1
		l-0.2,0.3c0.6,0.5,1.1,0.9,1.7,1.5c-2,0.8-4.2,0.3-6.3,0.5c0.5,0.4,1.2,0.7,1.9,0.9c-0.8,0.2-1.5,0.6-2.1,1.1
		c1.6,0.1,3.2,0.1,4.8,0c0.3,1.4,0.7,2.8,1.3,4.2c-0.4,0-1.2,0-1.7,0.1c0.6,0.1,1.3,0.4,1.9,0.4c0.9,1.3,1.7,2.2,3,3.2
		c0.9,0.6,1.7,1.1,2.6,1.7c1.4,0.2,2.7,0.6,4.1,0.8c-0.1,0.3-0.4,0.9-0.5,1.2c0.2-0.2,0.7-0.7,0.9-1c1.6,0.1,3.2,0.1,4.9,0.2
		c0.1,0.5,0.3,1.1,0.4,1.6c0-0.4,0-1.1,0-1.4c1.5-0.2,3-0.2,4.5-0.3c0.1,0.3,0.2,0.9,0.2,1.2c0-0.5,0.1-1,0.1-1.5
		c2-0.5,3.9-1.3,5.7-2.3c0.1,0.2,0.4,0.7,0.5,0.9c-0.6-1.8,1.6-2.5,2.7-1.4c-0.3-0.2-0.8-0.7-1.1-1c0.8-0.7,1.6-1.4,2.6-2
		c1.3-0.4,2.7-0.5,4-0.8c0.3-1.2-0.8-2.3-1.8-2.7c-0.1-0.3-0.2-0.4-0.4-0.7c0.9-0.1,1.7-0.2,2.6-0.2c-1.3-1.1-2.1-2.7-3.7-3.3
		c0.4-0.4,0.9-0.8,1.3-1.2c-1.9-0.1-3.9-0.2-5.6-1c0-0.2-0.1-0.6-0.1-0.9c1.1,0.3,2.1,0.7,3.2,1c-0.3-0.4-1-1.1-1.4-1.4
		c0.3-0.5,0.6-1,0.8-1.5c0.9,0.7,1.8,1.3,2.9,1.7c-2.2-4.2-7.2-5.8-11.7-6.2c0.8,0.3,1.6,0.6,2.4,0.9c-0.1,0.2-0.3,0.7-0.3,1
		c2.3,0.4,4.4,1.4,6.5,2.4c-0.8,0.6-1.7,1.4-2.7,1c-3.9-0.9-7.9-1.6-12-1.2c-0.3-1-0.6-1.9-1-2.9c2.2-0.7,4.6-0.7,6.9-0.5
		c-1.6-0.8-3.4-0.7-5.1-0.7c-0.7,0.1-1.4,0.3-2,0.2c-0.6-1.8-1-3.7-1.5-5.6c3.9-1,7.9-0.4,11.9-0.1c2.8,3.4,5.5,6.9,8.7,9.9
		c2.1,1.7,4.5,4,7.4,3.6c-4.7-3.1-7.7-8.1-10-13.1c0.8,0.2,1.8,0.1,2.5,0.6c3.6,3,6.9,6.7,11.2,8.7c-0.3,2.9-0.4,5.8-0.2,8.7
		C149.2,79.3,150.9,82,152.1,84.8z M147.7,63.7c-2.3-1.4-4-3.4-6-5c1.6,2.5,3.7,4.7,5.1,7.3c-2.1-1.3-4-3-5.9-4.6
		c-1.2-1.1-2.5-2.1-3.4-3.4c2.7,0.1,5.3-0.1,8-0.2c1.2,2,2.5,4,3.8,5.9c0,0.2,0,0.5,0,0.7C148.7,64.4,148.2,64,147.7,63.7z
		 M149.5,65.3l-0.1,0.4c-0.1,0.4-0.4,1.2-0.5,1.6c-1-1.2-2.2-2.3-2.7-3.8C147.2,64,148.4,64.6,149.5,65.3z M134.4,58.1
		c2.3,4.7,5,9.4,9,12.9c-1.6-0.4-3.1-1.4-4.4-2.5c-3.6-3.1-6.6-6.8-9.5-10.6C131.1,58.1,133,57.5,134.4,58.1z M127.5,71.2
		c3.2,0.9,6.1,2.7,9.1,4.1c-1.5,1-0.6,2.8-0.8,4.3c-2.4,2.3-5.2,4.3-8.4,5.4c-3.2,1.3-6.7,1.4-10,1.1c-3.7-0.1-7.6-1.2-10.3-3.9
		c-1.9-1.7-2.6-4.3-3.2-6.7c2.9-0.7,5.8-1.8,8.5-3c-0.8,3.1-0.7,6.9,1.7,9.3c1.9,1.8,4.7,3,7.4,2.4c2-0.5,4-1.3,5.4-2.8
		c1-1.2,1.3-2.8,1.6-4.3C128.9,75.1,128,73.1,127.5,71.2z M139.3,78.7c-0.5,1.2-2.2,0.9-3.2,1.1c0-1.2,0-2.4,0.1-3.6
		C137.2,77,138.5,77.6,139.3,78.7z M127.5,77.2c-0.1,1.5-1.1,2.7-1.8,3.9c-2.3,2-5.7,2.9-8.5,1.6c-0.5-0.3-1.3-0.5-1.5-1.2
		c-1.4-1-2.2-2.7-2.6-4.3c-0.6-1.9,0.4-3.6,0.7-5.5c1.1-0.4,2.2-0.7,3.4-0.9c-0.7,0.9-1.9,1.4-2.3,2.5c-1.3,2.5-0.5,5.6,1.3,7.7
		c1.7,0.9,3.7,1.6,5.7,1.1c1.2-0.5,2.2-1.3,3.2-2c0.9-1.8,1.5-3.8,0.8-5.7c-0.4-1.8-2-2.9-3.3-4c1.1,0.3,2.7-0.2,3.3,1.1
		C127.1,73.1,127.6,75.2,127.5,77.2z M124.9,73.5c0.7,2.2,0.7,4.8-1,6.6c-2,1.5-5.1,1.7-7.2,0.1c-1-0.7-1.3-2.1-1.6-3.2
		c-0.8-3.1,1.9-6.5,5.1-6.4C122.2,70.5,123.9,71.9,124.9,73.5z M115.2,61.2c-0.9,1.6,0.4,3.2,0.7,4.7c-0.3-0.3-0.9-0.9-1.2-1.2
		c-1.8-2.7-3.2-5.7-4.2-8.8c1.8,0,3.7,0.1,5.5,0.1c0.2,0.8,0.4,1.6,0.6,2.5c0.8,3.7,2,7.2,3.3,10.8C116.9,67.6,116,64.2,115.2,61.2z
		 M114.6,65.6c-1.1,0.3-2.2,0.7-3.2,1.1c-0.5-2.6-1.1-5.1-1.1-7.7l0.5-0.3C111.9,61.1,113.2,63.4,114.6,65.6z M120.1,56.8
		c-1.1,0.2-2.3,0.3-3.4,0.4C116.9,55.7,119.2,56.2,120.1,56.8z M150.3,62.3c-0.1,0.3-0.3,0.8-0.4,1c-1.6-1.8-2.9-3.8-4.1-5.9
		c0.3,0,0.9,0,1.2,0c1.3,1.2,2.4,2.6,3.8,3.7C150.7,61.5,150.5,61.9,150.3,62.3z M150,59.7c-0.9-0.8-1.6-1.7-2.4-2.6
		c0.5-0.1,1.4-0.3,1.8-0.4c0.7,1,1.8,1.9,2,3.2C151.4,61.2,150.5,60,150,59.7z M156.8,54.2c-1.9,1.3-3.6,3-4.8,4.9
		c-0.7-0.8-1.3-1.6-1.8-2.5c3.3-0.9,6.7-2.8,8.4-5.9c0.9,0.9,1.6,2,2.4,3.1C159.7,53.3,158,53.3,156.8,54.2z"/>
	<path class="st0" d="M12.6,0.3c-1.8,0-3.5,0.5-5.2,0.9c-2.4,0.6-4.8,1.1-7,2.3c0.3,0.9,0.4,1.8,0.4,2.7C4.7,4.3,9,2.9,12.6,0.3z"/>
	<path class="st0" d="M117.8,78.8l0.4,0.4c1.5,0.9,3.4,1,4.6-0.4c1.9-1.9,0.5-6.4-2.5-5.9C117.3,72.9,116,76.7,117.8,78.8z
		 M122.9,75.3c0.3,1.7-0.6,4.1-2.6,4.1c-2.4-0.3-3.5-4.1-1.4-5.5C120.3,73.2,122.4,73.7,122.9,75.3z"/>
	<path class="st0" d="M119.8,77c0.3,0,1,0,1.3,0.1c0.1-0.6,0-1.2-0.3-1.7C119.7,74.9,119.1,76.3,119.8,77z"/>
	<path class="st0" d="M60.6,13.7c0.1,0,0.3-0.1,0.4-0.1c-0.6-1.9-1.8-3.8-3.7-4.5C58.6,10.4,60.2,11.7,60.6,13.7z"/>
	<path class="st0" d="M18.8,33.2c2.3,0.7,4.8,0.6,7.2,0.4c4.8-0.4,9.7-1.4,13.9-4c2.7-1.6,5.6-3.1,7.6-5.7c1.9-2.1,4.6-3.1,7.1-4.2
		c-3.6,0.3-6.5,2.8-8.8,5.4c-2.4,2.1-5.1,3.6-7.9,5.1c-4.8,2.5-10.4,2.9-15.8,3.2c-2.2,0.1-4.9-1.9-6.7,0.2
		C16.5,33.2,17.7,32.8,18.8,33.2z"/>
	<path class="st0" d="M153.6,38.1l0.1-0.2c-0.6-1.9-0.8-4.1-2-5.7c0.1,1.9,0.9,3.8,1.4,5.6C153.2,37.9,153.5,38.1,153.6,38.1z"/>
	<path class="st0" d="M100.4,77c0.5,0.4,1.6,0.4,1.9-0.3C102.1,76,100.4,76.3,100.4,77z"/>
	<path class="st0" d="M102.6,66.2c0.2-2,0.8-4,1.5-5.9l1.1,0.1c-0.3-0.5-0.6-1-0.9-1.4c0.4-1,0.8-1.9,1.1-2.9
		c-0.1-0.1-0.3-0.3-0.4-0.5c-1,0-2,0-3.1,0c-0.2,2.8-0.4,5.7-0.2,8.5C101.9,64.8,102.2,65.5,102.6,66.2z"/>
</g>
</svg>
