<?xml version="1.0" encoding="utf-8"?>
<!-- Generator: Adobe Illustrator 26.0.3, SVG Export Plug-In . SVG Version: 6.00 Build 0)  -->
<svg version="1.0" id="Слой_1" xmlns="http://www.w3.org/2000/svg" xmlns:xlink="http://www.w3.org/1999/xlink" x="0px" y="0px"
	 viewBox="0 0 239.5 150.2" style="enable-background:new 0 0 239.5 150.2;" xml:space="preserve">
<g>
	<path d="M192.6,61.6c-0.2-0.2-0.4-0.4-0.5-0.6c-0.3,0-0.5-0.1-0.8-0.1c0.1,0.3,0.1,0.5,0.2,0.8C191.9,61.7,192.3,61.7,192.6,61.6z"
		/>
	<path d="M228.6,77.4c-5.3-2.4-11-3.9-16.8-4.4c-0.1,0-0.3,0-0.5,0c-0.7,0-1.5-0.1-2.2-0.2c0.3-0.5,0.9-0.3,1.4-0.3
		c0.2-0.7,0.6-1.4,1-2c0-0.1-0.1-0.4-0.2-0.5c0.1,0,0.4,0,0.5,0c0.1-0.8-0.8-1.1-1.2-1.6c0.1-0.3,0.1-0.6,0.2-0.9
		c-2-0.3-4.1,0-6.1,0.6c-0.6,0.2-1.2,0.5-1.7,0.8c0-0.4,0.1-0.9,0.1-1.3c0.1-1.1,0.4-2.1,0.7-3.2c0.2-1.2,0.6-2.3,0.8-3.4
		c0-0.8-0.2-1.8,0.4-2.5c1.3-2,2-4.3,2.6-6.5c0.5-2,1-4,1.1-6.1c0.2-3,0.6-6.1-0.2-9.1c-0.2,0-0.6,0.1-0.9,0.1
		c-1.2,1.3-2,2.9-2.7,4.5l-0.1-0.2c-1.3,3.4-2.5,7-3.1,10.7c-0.1,0.8-0.1,1.6-0.1,2.4c-0.9-0.7-1.8-1.4-2.8-2
		c-3.3-2.1-7.4-2.7-11.2-2.1c-1-1-1.9-2.1-3-3c-1.3-1-2.5-2-3.9-2.8c-2.1-1.2-4.1-2.5-6.4-3.3c-2.2-0.8-4.4-1.7-6.7-1.8
		c2.1,3.5,4.9,6.6,8.2,9c1.9,1.6,4.1,3,6.5,3.9c0.5,0.2,1.1,0.4,1.6,0.6c-0.2,0.3-0.5,0.6-0.7,0.9c-0.7,1.2-1.4,2.5-2,3.7
		c-0.1,0.3-0.3,0.7-0.4,1c-0.1,0.3-0.2,0.6-0.3,0.9c-0.8,1-1.6,2-2.1,3.1c-0.3,1.4,0,2.9,0.4,4.3c0.3,1.2,0.8,2.3,1.3,3.4
		c-2.1-0.2-4.4-0.1-6,1.3c-0.8,0.7-1.3,1.7-1.5,2.8c-0.1,2.5,1.8,4.7,4.1,5.4c-1.5,4.1-3.1,8.1-4.6,12.2c-0.4,1.5-0.2,3.1,0.7,4.3
		c0.3,0.3,0.6,0.6,0.8,0.9c-0.2,0.1-0.6,0.2-0.8,0.3c-0.1,0-0.3,0.1-0.5,0.2c-1,0.5-2.1,0.8-2.9,1.6c-0.1,0.3-0.1,0.6-0.1,1
		c0.4,0.1,0.9,0.2,1.3,0.3c2.5,0,5-0.5,7.4-0.8c0.7,0,1-0.6,1.3-1.1c1.7-0.1,3.5-0.4,5.2-0.2c3,0.6,6,1.4,9,1.9
		c0.2,0.4,0.3,1,0.8,1.1c2,0.5,4.1,0.9,6,1.6c1,0.4,2.2,0.9,3.3,0.3c0.1-0.4,0-0.7-0.2-1.1c-0.5-0.6-1.1-1-1.8-1.4
		c-0.7-0.5-1.5-0.9-2.2-1.3c-0.2-0.1-0.5-0.2-0.6-0.3c0.5-0.6,1.1-1.3,1.2-2.1c0.4-1.5,0-3-0.4-4.4c1.2,0.3,2.3,0.8,3.4,1
		c0.2-1.6,0.4-3.2,0.5-4.9c0.9,0.3,1.8,0.6,2.6,0.8c1.2-2.1,2.6-4.1,3.8-6.2c0.6,0.2,1.1,0.3,1.6,0.5c3.3,1,6.5,2.2,9.7,3.1
		c2.8-2.8,5.7-5.5,8.6-8.2C229.9,78,229.3,77.7,228.6,77.4z M179.7,61.2c0.4-0.4,0.6-1.1,1.1-1.2c1,0.4,0.9,1.8,0.9,2.7
		c0,1.5-0.8,3.4-2.5,3.5C178.9,64.5,178.6,62.6,179.7,61.2z M176.4,78.7c-1.7-0.8-3.2-2.4-3.3-4.3c0.1-1.3,0.6-2.6,1.8-3.3
		c1.4-0.9,3.2-1.2,4.8-0.9c2.3,0.1,4.7,0.9,6.4,2.5c0.3,0.3,0.7,0.5,1.1,0.6c-0.3,0.7,0.5,1.1,0.8,1.5c-0.2,0-0.7,0.1-0.9,0.1
		l0.1,0.2l-0.1,0.1c0.1,0.2,0.3,0.5,0.5,0.6c-0.7,0-0.9,0.4-0.6,0.9c-0.3,0.1-0.5,0.2-0.8,0.2c0,0.2-0.1,0.5-0.1,0.7
		c-0.3,0-0.7-0.3-1-0.1c-1.2,0.4-2.3,1-3.5,1.3C180.1,79.1,178.2,79.3,176.4,78.7z M198.9,98.5c-0.1,0.1-0.3,0.3-0.5,0.4
		c0.1,0,0.4,0.1,0.6,0.1c0.5,0.2,0.9,0.4,1.3,0.7c0.2,0.1,0.4,0.3,0.6,0.5c-0.2,0.3-0.5,0.5-0.7,0.8c0.3,0.2,0.6,0.4,0.9,0.6
		c0.6,0.3,1.2,0.6,1.8,0.8c-0.2-0.6-0.7-0.8-1.2-1.1c0.6,0.3,1.3,0.4,1.6,1.1c0.1,0,0.3,0.1,0.5,0.2v0.1c-0.2-0.1-0.6-0.2-0.8-0.2
		v0.1c0,0.1,0.1,0.3,0.1,0.4c-0.9-0.1-1.8-0.4-2.7-0.7c-1.2-0.3-2.4-0.6-3.6-0.9c-0.9-0.3-2-0.3-2.5-1.1c1.1-0.2,2.5,0.2,3.4-0.6
		c-2.8,0.7-5.6-0.4-8.4-0.9c-0.8-0.1-1.7-0.3-2.5-0.5c0.8-0.1,1.5-0.1,2.3-0.1c-0.1-0.2-0.2-0.3-0.5-0.3c-3.6-0.4-7.2,0.3-10.8,0.3
		c0,0.1-0.1,0.4-0.1,0.5c0.4-0.1,0.9-0.2,1.4-0.2c-0.3,0.9-1.4,0.8-2.1,0.9c-2.1,0.2-4.1,0.5-6.2,0.6c0.7-0.4,1.5-0.7,2.2-0.9
		c0-0.1,0-0.3,0-0.4c-0.5,0.1-1,0.2-1.4,0.3c0.4-0.3,0.8-0.6,1.1-0.9c-0.7,0.2-1.3,0.4-1.9,0.6c-0.1,0.1-0.4,0.4-0.5,0.6
		c0.2,0,0.5-0.2,0.7-0.2c0.1-0.1,0.2-0.2,0.3-0.3l0.2,0.1v0.2c-0.1,0-0.3,0.1-0.4,0.1c-0.4,0.2-0.7,0.4-1.1,0.7c0-0.3,0.1-0.7,0.1-1
		c0.2-0.1,0.4-0.1,0.6-0.2c0.6-0.7,1.5-0.8,2.3-1.2l0.3-0.1c0.8-0.5,1.6,0.2,2.3,0.5c0.2-0.1,0.5-0.1,0.7-0.2
		c-0.1,0-0.4-0.1-0.5-0.2c-1-0.3-1.9-0.8-2.5-1.6c-0.5-0.8-0.8-1.6-0.8-2.6c-0.1-1.5,0.7-2.9,1.2-4.3c0-0.1,0.1-0.4,0.2-0.5
		c1.1-3,2.4-5.9,3.4-9c1.7,0.2,3.5,0.2,5.1-0.2c1.1-0.3,2.1-0.8,3.1-1.2c0.4,0,0.7,0.2,1.1,0.2c0-0.3,0.1-0.6,0.1-0.9
		c0.2,0,0.6,0,0.8,0l0.1-0.2c-0.1-0.3-0.1-0.5-0.2-0.8c0.3-0.1,0.5-0.3,0.8-0.4c0.3,0.4,0.9,0.5,1.4,0.4c0.9-0.1,1.6-0.6,2.3-1.1
		c-0.1-0.3-0.5-0.3-0.7-0.4c-0.9-0.2-1.8-0.3-2.7-0.6c-0.3-0.2-0.6-0.3-0.9-0.5c0.1-0.3,0.1-0.6,0.2-0.9c-1-0.1-1.6-0.9-2.4-1.4
		c-1.2-0.8-2.5-1.3-3.8-1.6c-0.3-0.1-0.8-0.1-0.9-0.4c-0.6-1-0.9-2-1.3-3.1c0.2-0.1,0.5-0.2,0.7-0.2c1.1-0.2,1.6-1.3,1.9-2.2
		c0.3-1.3,0.4-2.7-0.3-3.9c-0.2-0.4-1-0.7-0.7-1.3c0.6-0.7,0.9-1.6,1.2-2.5c0.6-1.6,1.6-3.1,2.8-4.3c-0.1-0.1,0.6-0.6,0.5-0.6
		l-0.9,0.8c-3.1-0.5-5.6-2.5-8.2-4.1c-0.9-0.5-1.1-1.5-1.2-2.4c-0.1-0.3-0.1-0.6-0.2-0.9c0-1.1,0-2.2,0-3.3c1.9,0.7,3.6,1.7,5.3,2.7
		c2.5,1.6,5,3.4,6.9,5.6c-0.1,0.1-0.3,0.4-0.3,0.6c0.3,0,0.6,0,0.8,0c4.5-0.8,9.5,0.2,13,3.3l0.1,0.1c0.9,0.6,1.5,1.6,2.4,2.2
		c-0.1-0.6-0.7-1-1-1.5c-0.1-1,0-1.9,0.1-2.9c0.4-2.8,1.1-5.5,2.1-8.1c0.2-0.6,0.5-1.2,0.8-1.8c1.3,1.1,2.3,2.4,3,3.9
		c0,2.2-0.7,4.4-1.1,6.5c-0.5,2.1-1.3,4.1-2.3,6c-0.2,0-0.5,0-0.7,0c0.2,1.1,0.3,2.2,0,3.3c-0.5,2-1.1,3.9-1.3,5.9
		c-2.3-0.3-4,1.8-4.5,3.8c-0.3,0.9,0.4,1.7,0.9,2.3c-1.3,0.7-2.7,1.4-4.1,1.8c0,0-0.1,0.1-0.1,0.2c0.1,0,0.3,0,0.4,0
		c1.6-0.5,3.2-1.1,4.6-2.1c1.5-1,2.7-2.5,3-4.3c2.2-1.3,4.8-1.6,7.4-1.5c-0.1,0.5-0.1,1-0.2,1.5c0.1,0.1,0.3,0.3,0.5,0.3
		c0-0.2,0-0.6,0-0.8c0.3,0.2,0.5,0.4,0.8,0.6c-0.1,0.4-0.2,0.7-0.3,1.1c-0.3,0.5-0.6,1.1-0.8,1.7c-0.3,0-0.7-0.1-1-0.1
		c-0.5,0.8-1.1,1.7-1.8,2.4c-1.3,1.5-2.6,3.1-4.3,4.4c-1.5,1.2-3.1,2.4-4.9,3.1c-0.1,0.1-0.2,0.3-0.3,0.4h0.2c0.2,0,0.5,0,0.6,0
		c-0.4,1.9-0.2,3.9-0.3,5.8c0.1,0.5,0.2,1,0.3,1.6c0.3,1.1,0.7,2.2,0.9,3.3v0.1C200.7,94.9,200.5,97.3,198.9,98.5z M200.2,72.9
		c-0.4,0.3-1,0.3-1.2-0.2c-0.7-1-0.2-2.3,0.5-3.2c0.7-1,1.9-2.1,3.3-1.7C202.9,69.8,201.8,71.7,200.2,72.9z M201.2,90.1
		c-0.7-0.2-1.3-0.3-1.9-0.7c-0.7-2.3-0.1-4.8,0-7.2c0-0.5,0.6-0.6,0.9-0.9c2.4-1.4,4.5-3.4,6.5-5.3c-0.7,2.9-1.4,5.7-2,8.6
		c-1.3-0.2-2.6-0.5-3.8-0.8c0,0.1-0.1,0.3-0.1,0.4C200.8,86.2,201,88.2,201.2,90.1z M222,86.1c-0.3,0.4-0.8,0.1-1.1-0.1
		c-0.2-0.3-0.4-0.6-0.7-0.9c-2-1.7-4.1-3.5-6.5-4.7c-1.7-0.9-3.4-2.1-5.1-3c-0.8,1.2-0.8,2.6-1.2,3.9c-0.5,2.2-1.2,4.4-1.6,6.7
		c-0.1,0-0.2,0-0.3,0c-0.7,0.2-1.3-0.5-1.9-0.2V88c0,0.4,0,0.9-0.2,1.3c-0.1,0.1-0.2,0.2-0.2,0.3c-0.1-0.3-0.2-0.5-0.3-0.8
		c-0.2,0.2-0.4,0.3-0.6,0.5c-0.1-0.3-0.1-0.7-0.2-1c-0.1,0.4-0.2,0.7-0.3,1.1c-0.1-0.3-0.3-0.6-0.4-0.8c-0.5-1.4-0.3-2.8-0.4-4.3
		c0.3,0.1,0.7,0.2,1,0.3c0.9,0.2,1.9,0.5,2.8,0.6c0.7-2.8,1.3-5.5,2-8.3c0.1-1.5,1.4-2.5,2.2-3.7c2,0.2,3.9,0.4,5.9,0.6
		c3.3,0.5,6.5,1.4,9.6,2.4c1.8,0.7,3.8,1.3,5.4,2.4c-0.2,0.2-0.5,0.4-0.7,0.6v0.1C226.8,81.5,224.5,83.9,222,86.1z"/>
	<path d="M187.3,56.9c-0.5-0.7-1.5-0.7-2.2-0.4c-1.2,0.4-1.7,2.1-0.9,3.1c0.5,0.8,1.6,0.9,2.4,0.5C187.8,59.6,188.2,57.8,187.3,56.9
		z M186,58.3c-0.2,0-0.4-0.2-0.4-0.7c0.1-1,1.8-1,1.7,0.1C187.3,58.4,186.5,58.5,186,58.3z"/>
	<path d="M200.2,64.6c1.3-0.6,1.4-2.6,0.3-3.4c-0.4-0.5-1.1-0.6-1.8-0.5c-0.8,0.3-1.4,1-1.4,1.9C197.2,64,198.9,65.3,200.2,64.6z
		 M199.1,61c0.3-0.1,0.6,0.1,0.7,0.4c0.2,0.4,0.1,1.3-0.7,1.2C198.2,62.5,198.2,61.1,199.1,61z"/>
	<path d="M196.1,64.9c-0.6,0-1.2,0.2-1.7-0.1c-1.1-0.4-1.9-1.4-2.9-2.1c-1.4-0.2-3.2,0.8-4.4-0.4c-0.1,0-0.2-0.1-0.3-0.1
		c0,0.1,0.1,0.2,0.2,0.3c0.1,0.2,0.2,0.5,0.4,0.7c-0.2,2.5-0.5,5.2,0.4,7.7c0.3,1,1.5,1.4,2.3,0.9c2.2-1.2,3.6-3.5,4.8-5.7
		C195.2,65.5,195.7,65.2,196.1,64.9z M193.3,68L193.3,68c-1,1.3-2.1,2.8-3.7,3.4c-0.7,0.3-1.4-0.4-1.6-1.1c-0.4-1.4-0.5-2.9-0.4-4.4
		c0-0.3,0.1-0.6,0.1-1c2-1.5,5.4-0.4,6,2C193.6,67.4,193.4,67.7,193.3,68z"/>
	<g>
		<path d="M148.4,15.1c0.2,0.7,0.4,1.4,0.5,2.2c0.1,0.7,0.2,1.5,0.2,2.2c-1.3,2.6-2.7,5.1-4.6,7.3c-0.4,0.8-1,1.4-1.6,2l-0.1,0.1
			c0.3,0.1,0.6,0.3,0.8,0.6c0.2,0.2,0.5,0.5,0.7,0.8c0.7,0.7,1.2,1.4,1.7,2.2c0.6,0.9,1.2,2,1.9,2.9c0.2,0.2,0.3,0.3,0.5,0.5
			c-1.3,1-0.9,2.7-0.4,4c0.3,1,1.1,1.9,2.2,2c-0.4,2.1-1.1,4.2-2.2,6c-0.1,0.4-0.2,0.7-0.2,1.1c0.1-0.1,0.3-0.2,0.4-0.2
			c1-2.3,2.1-4.5,2.5-7c0.1-0.9,0.1-1.9,0.1-2.8c0.4-0.7,1-1.1,1.5-1.7c0.2-0.2,0.4-0.5,0.6-0.7c0.6-0.1,1.5-0.7,1.9,0.1
			c0.2,0,0.5,0,0.6,0c0.1,0.2,0.2,0.5,0.3,0.6c0.2,0,0.6,0.1,0.8,0.1c0,0.1,0.1,0.4,0.1,0.6c0.2,0.1,0.4,0.2,0.6,0.4
			c-0.8,1.3-0.7,2.8-0.8,4.2c0.1,0.1,0.2,0.3,0.2,0.4c0.1-0.9,0.3-1.8,0.2-2.7c-0.1-0.7,0.5-1.3,0.7-2c-0.1-0.1-0.4-0.3-0.6-0.4
			c0-0.2-0.1-0.5-0.1-0.6c-0.3,0-0.6-0.1-0.9-0.1c0-0.1-0.1-0.4-0.2-0.6c-0.1,0-0.3,0-0.4-0.1c-0.1,0-0.3-0.1-0.4-0.1
			c-0.4-0.6-1-0.4-1.5,0c-0.2,0-0.4-0.1-0.7-0.2h-0.1c-0.1,0.5-0.4,0.9-0.7,1.3c-0.1,0.1-0.4,0.2-0.5,0.3c-0.3,0.3-0.5,0.6-0.9,0.8
			c0-0.1-0.1-0.3-0.1-0.4c-0.2-0.9-0.9-1.6-1.7-2.1c-0.4-0.6-0.9-1.1-1.3-1.8c-0.4-0.6-0.8-1.3-1.2-2c-0.4-0.6-0.8-1.1-1.2-1.7
			c-0.5-0.6-1.1-1.2-1.7-1.7c2.1-2.5,3.8-5.2,5.4-8.1c0.1-0.3,0.3-0.7,0.4-1c0.9-1.7,1.6-3.5,2.1-5.3c0.3-1.2,0.7-2.5,0.8-3.8
			c-1.7,0.7-3.1,1.4-4.4,2.6c-0.1,0.1-0.2,0.2-0.3,0.2c-0.1,0.8-0.9,1.2-1.1,2c0.4-0.6,1.1-1.1,1.3-1.8
			C147.9,14.1,148.2,14.6,148.4,15.1z M150.2,38.8c0.4,0.9,0.2,1.8,0,2.7c-1.7-0.1-2.3-2-2.3-3.4v-0.3v-0.2c0.2-0.3,0.3-0.8,0.8-0.8
			c0.4,0.4,0.8,0.8,1.1,1.2C150.1,38.2,150.2,38.5,150.2,38.8z"/>
		<path d="M124.1,34.6c0.2-0.2,0.3-0.3,0.5-0.4c1.4-2.1,3.6-3.6,5.9-4.7c2.8-1.3,6-1.8,9-1.6c0.1-0.1,0.3-0.2,0.3-0.2
			c-0.2,0-0.6,0-0.8,0c1.1-3,2.6-5.8,4.4-8.5c0.4-0.6,0.8-1.2,1.2-1.7c0.5-0.6,1-1.1,1.3-1.8c-0.8,0.5-1.3,1.4-1.9,2.1
			c-2.2,3-4.1,6.3-5.4,9.9c-1.5,0.2-3,0.2-4.4,0.4c-4,0.8-7.8,3-10.2,6.3c-1,0.1-1.9,0.2-2.9,0.3C122.2,34.9,123.1,34.4,124.1,34.6z
			"/>
		<path d="M115.7,36.1c1.8-0.7,3.7-0.8,5.5-1.4c-1.4-0.1-2.7,0.4-4,0.7c-2.1,0.5-4.1,1.3-6.1,2.1c-0.6,0.3-1.4,0.5-1.8,1.1
			c1.7-0.7,3.2-1.6,5-2.1C114.7,36.4,115.2,36.2,115.7,36.1z"/>
		<path d="M156.5,73c0.6-1.5,0.6-3.1,0.4-4.6c-0.3-2.7-1.7-5-2.8-7.4c-0.7-1.6-1.3-3.3-1.9-4.9c-0.1-0.6-0.4-1.2,0-1.7
			c2.3-3.4,3.5-7.4,4.2-11.3l-0.2-0.1c-0.3,1.5-0.6,2.9-1,4.4c-0.3,1-0.6,2.1-1.1,3c-0.6,1.4-1.2,2.8-2.2,4
			c-0.2-0.6-0.3-1.2-0.5-1.9c-0.1-0.3-0.1-0.6,0-0.9c-0.1,0-0.3,0-0.4-0.1c0.5,2.6,1.2,5.1,2.1,7.5c1.1,2.9,2.8,5.6,3.5,8.7
			c0.3,1.3,0.2,2.7,0.1,4c-0.4,1.8-1.3,3.5-2.4,5c-1.1,1.4-2.7,2.2-4.4,2.5v0.1c0.4,0,0.6,0.5,0.7,0.8c0,0.2,0.1,0.5,0.1,0.7
			c0.3,0.9,0.3,1.9,0.6,2.8c0.2-0.8-0.1-1.5-0.2-2.3c-0.1-0.6-0.3-1.3-0.3-2c0.9-0.5,2-0.8,2.7-1.5C154.9,76.6,155.8,74.8,156.5,73z
			"/>
		<path d="M120.8,62.1c0,0.1,0,0.4,0,0.6c0,0,0,0.1-0.1,0.2c-0.4,0.9-0.5,2-0.7,2.9c-0.2,1.5-0.7,3-0.8,4.5c0,0-0.1,0.1-0.2,0.2
			c0,0.2-0.1,0.7-0.1,0.9c0.6-0.2,1.2-0.5,1.8-0.7c0.7-0.4,1.5-0.7,2.3-1c0.7-0.3,1.4-0.6,2.1-0.9c-0.1,1.6-0.1,3.1-0.2,4.7l0.2,0.1
			c1.1-0.6,2.3-1.2,3.4-1.8c0.1,0.2,0.3,0.5,0.4,0.8c0.3,0.5,0.6,0.9,1.2,1.1c-0.9-1-1.7-2.2-2.2-3.4c-0.2-0.6-0.4-1.2-0.5-1.9
			c0.5-0.1,1.7,0.3,1.6-0.6c-0.2-0.3-0.5-0.7-0.8-1c-0.2-0.3-0.4-0.6-0.6-0.9c-0.3-0.5-0.3-1-0.3-1.6c0-1.2,0-2.3,0.3-3.5l0.3,0.1
			c0.4,0.1,0.8,0.3,1.2,0.5c0.1,0,0.4-0.1,0.5-0.1c-1.1-0.6-1.8-1.2-3-1.9c0,0-1.7-1.1-2-1.5c-0.8-0.8-1.5-1.6-2.2-2.6
			c-0.4-0.4-0.7-0.9-1-1.4c-0.5-0.8-0.9-1.5-1.3-2.3c0,0-0.1-0.1-0.2-0.1c-0.3-0.2-0.5-0.4-0.8-0.6c0.1-0.1,0.2-0.4,0.3-0.5
			l-0.1-0.1c-0.1-0.1-0.2-0.4-0.2-0.5c0.3-0.5,0.5-1,0.4-1.5c0.6-0.2,1.2-0.6,1.3-1.3c0.2,0.1,0.5,0.2,0.7,0.4
			c0.1-0.1,0.2-0.3,0.2-0.4c0.1-0.6,0.9-0.6,1.1,0c4.4,1,8.1,3.7,11.3,6.7v-0.4c-1-1.2-2.3-2.1-3.5-3c0.7-0.5,1.4-1.1,1.7-2
			c1-2.3-1.7-5-4-4.1c-1.5,0.4-2.4,1.8-2.3,3.3c-0.5-0.2-1.1-0.4-1.6-0.6c-0.7-1.6-1.2-3.4-1.4-5.1c0-0.1-0.1-0.2-0.1-0.3
			c-0.1-0.5,0-1-0.3-1.5c-0.3,1.9,0.3,3.8,0.8,5.6c0.1,0.3,0.3,0.7,0,1c-0.5,0-0.9-0.4-1.3-0.7c-0.2,0.3-0.4,0.5-0.7,0.8
			c-0.4,0-0.7,0-1.1,0c0,0.3,0,0.5,0,0.8c-0.4,0.2-0.8,0.4-1.3,0.5c0.1,0.3,0.2,0.6,0.2,0.9c-0.6,0.1-1.3,0.3-1.8,0.5
			c-3.9,1.2-7.7,2.5-11.6,3.8c-0.3,0.1-0.6,0.3-0.8,0.5c0.2,0,0.7-0.1,1-0.2c0.2-0.1,0.4-0.2,0.7-0.2c4-1.4,8-2.7,12-4
			c0.2,0.5,0.3,1.1,0.1,1.7c0.4,0.4,0.9,0.7,1.2,1.3c0.8,1.4,1.6,2.7,2.6,4c0.3,0.3,0.5,0.6,0.8,0.9c-1,0.9-2.2,1.5-3.3,2.2
			c-1.1,0.6-2.1,1.4-3.1,2.1c-2.9,1.8-5.5,3.9-8.2,5.9c-0.4,0.3-2.7,2-2.8,2.4c-0.2-0.6-0.4-1.2-0.5-1.8c-0.8-2.5-1.6-5-2.1-7.6
			v-0.1c-0.6-1.7-0.9-3.5-1.3-5.3c0.7-0.3,1.5-0.5,2.2-0.7h0.1c0.1,0,0.2-0.1,0.3-0.1c0.1-0.1,0.4-0.2,0.5-0.2v-0.3
			c-1.1,0.3-2,0.8-3.1,1c-0.1,0.1-0.1,0.3-0.2,0.4c0.2,1,0.4,2,0.6,3c0.1,0.5,0.3,1,0.4,1.5c1,3.5,1.9,7.1,3.1,10.5
			c4.6-2.6,9.2-5.2,13.8-7.9C120.2,62.3,120.5,62.2,120.8,62.1z M129.3,44.5c1-0.1,2,0.4,2.5,1.2c0.7,0.7,0.7,2,0.4,2.7
			c-0.3,0.8-0.9,1.2-1.7,1.3c-0.7-0.3-1.3-0.9-2.1-1.2c-0.6-0.3-1.4-0.5-1.5-1.3C126.7,45.8,128,44.7,129.3,44.5z M126.3,59.7
			c0.4,0.2,0.8,0.5,1.2,0.7h0.1c-0.2,0.7-0.2,1.2-0.2,2c0,0-0.2,2.2-0.2,3.1c-0.3,0.1-0.6,0.1-0.8,0.2c-0.6,0.3-1.2,0.5-1.8,0.7
			c0.1-0.4,0.2-0.8,0.3-1.2c0.6-1.6,0.9-3.3,1.5-4.9C126.2,60.2,126.3,59.9,126.3,59.7z M125,58.6c0.3,0.4,1.2,0.7,0.9,1.3
			c-0.7,2.2-1.3,4.4-2,6.6c0.1,0.1,0.2,0.2,0.3,0.3c0.9-0.4,1.8-0.6,2.7-0.9c0,0.2,0,0.5,0,0.6c0,0.6,0.1,1.1,0.2,1.7
			c0,0.1,0,0.3,0,0.4c-0.2,0.3-0.3,0.6-0.5,0.9l-0.2,0.1c0-0.1-0.1-0.4-0.1-0.5c-0.1,0.1-0.4,0.2-0.6,0.3c-0.2-0.2-0.3-0.4-0.5-0.5
			c0-0.1,0.1-0.4,0.1-0.5c0.3-0.7-0.2-1.8-1.1-1.3c-0.4,0.1-0.8,0.2-1.3,0.3C123.9,64.5,124.3,61.5,125,58.6z M112.3,66.5
			c0.1-0.1,0.2-0.1,0.3-0.2C112.5,66.4,112.4,66.4,112.3,66.5z"/>
		<path d="M131.5,65.5l-0.1,0.1c-0.3,0.4-0.5,0.9-0.6,1.3c0.7-0.8,1.3-1.7,2.3-2.2c0.1,0.4,0.2,0.8,0.2,1.1c0.1,0.3,0.1,0.7,0.2,1
			c0,0.1,0,0.3,0,0.3c0.9,2.7,2.1,5.3,3.7,7.6c0.5,0.4,1,0.7,1.6,0.9c0.2-0.4,0.5-0.8,0.6-1.2c0.1-1.4-0.2-2.9-0.5-4.2
			c-0.3-0.7-0.5-1.4-0.7-2.1c-0.4-1.1-1-2.2-1.4-3.3c0.8,0.4,1.4,1,2,1.6l0.1-0.1c0-0.1,0.1-0.2,0.2-0.2c-0.6-0.5-1.3-1-2-1.5
			c-0.4-0.2-0.7-0.5-0.9-0.8c-0.3-0.4-0.6-0.9-0.9-1.3c-0.1,0,0.1,0.5,0.1,0.5c0.7,1.1,1.3,2.2,1.8,3.3c0.9,1.7,1.5,3.5,1.8,5.4
			c0.2,1,0.4,2,0.2,3c0.1,0.4-0.5,0.6-0.8,0.4c-0.8-0.5-1.3-1.3-1.8-2.2c-0.1-0.1-0.2-0.4-0.3-0.5c-0.8-1.4-1.4-2.8-1.9-4.3
			c-0.5-1.9-1.2-3.8-1.1-5.8c0.3,0.5,0.6,1.2,0.8,1.8c0.1,0.2,0.2,0.6,0.3,0.8c0.1-0.1,0.2-0.3,0.2-0.4c-0.3-0.8-0.7-1.5-1-2.3
			c0.5,0.2,1,0.3,1.5,0.5c-0.3-0.6-1-0.9-1.6-0.9c-0.2,0.2-0.4,0.4-0.6,0.6c0,0.7,0.1,1.4,0,2.1C132.5,64.8,132,65.1,131.5,65.5z"/>
		<path d="M137.2,77.3c0.9,0.1,1.9,0.3,2.8,0.2c-1.1-0.4-2.2-0.3-3.3-0.6c-1.4-0.2-2.7-0.9-4-1.5c-0.9-0.4-1.7-1.2-2.5-1.8
			c0,0.1,0.1,0.3,0.1,0.4C132.2,75.8,134.7,76.9,137.2,77.3z"/>
		<path d="M147.6,81.4c0.7,1.4,1.3,3,2.3,4.2c-0.6-1.4-1.3-2.6-1.9-4c-0.3-0.7-0.7-1.5-0.9-2.2c0.3,0.1,0.5,0.1,0.8,0.2
			c-0.1-0.1-0.2-0.4-0.3-0.5c-2.3-0.4-4.4-1.3-6.7-1.6c-0.1,0-0.4,0-0.5,0.1c1.9,0.7,3.8,0.9,5.7,1.5
			C147.2,79.4,147.2,80.7,147.6,81.4z"/>
		<path d="M144.3,36.3c0.9,0,1.4-1.1,1.1-1.9c-0.2-0.8-0.9-1.5-1.5-1.7c-0.4-0.2-0.6-0.2-0.9-0.2c-0.6,0-1,0.5-0.9,1.1
			C142.2,34.9,143,36.1,144.3,36.3z M142.3,33.2c0-0.2,0.3-0.5,0.7-0.5c0.5,0.1,0.6,0.3,0.8,0.7c0.2,0.3,0.1,1.2-0.5,1.1
			C142.5,34.7,142.3,33.9,142.3,33.2z"/>
		<path d="M140.1,36.9c-0.6,0.1-1.1,0.3-1.6,0.5C139,38,139.8,37.5,140.1,36.9z"/>
		<path d="M135,64.5c0.1-0.1,0.2-0.2,0.2-0.2c-0.1-0.3-0.3-0.6-0.4-0.9c-0.2-0.3-0.4-0.6-0.6-0.9c0.1,0.5,0.3,0.9,0.5,1.4
			C134.8,64,134.9,64.3,135,64.5z"/>
		<path d="M128.7,37.8c-0.2,0.3-0.5,0.6-0.7,0.9c-0.6,1.1-0.2,2.7,1,3.2c1,0.6,2.5,0,2.9-1c0.6-1.1,0-2.5-0.9-3.3
			C130.3,37,129.4,37.2,128.7,37.8z M131.1,39.3c-0.6,0.6-1.9,0-1.7-0.9c0.3-0.8,0.9-1,1.6-0.6C131.5,38.3,131.4,38.8,131.1,39.3z"
			/>
		<path d="M114.6,42.6c0.1,0,0.4-0.1,0.5-0.1c2.7-0.6,5.3-1.7,7.8-2.7c0.4-0.2,0.9-0.4,1.3-0.6c0.1-0.2,0.3-0.5,0.4-0.7
			c-0.6,0.7-1.5,1.1-2.3,1.4c-0.7,0.3-1.3,0.6-2,0.9c-0.3,0.1-0.5,0.2-0.8,0.3c-2,0.7-4.1,1.5-6.2,1.6c-1.9-0.6-3.7-1.7-4.8-3.4
			c0.3-0.2,0.6-0.3,0.9-0.5c-0.5,0-0.9,0.4-1.4,0.6c-1.5,0.9-3,2-4.2,3.4c0,0.1,0.1,0.3,0.1,0.4C107.3,43.6,111,43.3,114.6,42.6z"/>
		<path d="M135.8,41.1c-0.1,0.1-0.2,0.2-0.3,0.2c0.5,0.3,0.7,1,1,1.5c0.9,2.1,2,4.3,3.7,5.9c0.5,0.5,1.5,1.2,2,0.3
			c0.9-2,0.8-4.4,0.7-6.6c-0.1-1.3-0.3-2.5-0.3-3.8c-0.4,0.3-0.7,0.8-1.3,0.8c-0.5,0-1-0.2-1.5-0.4c-0.9,0.9-1.9,2-3.2,2.2
			C136.4,41.5,136.1,41.2,135.8,41.1z M142.6,42.4c0,0.2,0,0.7,0,0.9c0.1,1.6-0.1,3.9-0.7,5.7c-1,0-1.7-0.8-2.3-1.6
			c-0.8-1.1-1.7-2.3-2.1-3.7c-0.1-0.5-0.3-1-0.4-1.5C138.6,41.2,141.1,41,142.6,42.4z"/>
		<path d="M143.5,53.5c0.6-1,1.4-1.9,1.6-3.1c-1.1,0.5-2.1,1.1-3.2,1.4c-0.9,0.3-1.5,0.4-2.6,0.5c-0.5,0.1-1,0-1,0.1
			c0.4,0.7,2.5,1.2,3.2,1.5C142.1,54.3,143.1,54.4,143.5,53.5z"/>
		<path d="M151.5,85.2c0-0.4,0-0.8-0.3-1.2c-0.1,0.4-0.1,0.8-0.2,1.1c-0.1-0.8-0.3-1.7-0.5-2.5c-0.1,0.5-0.2,0.9-0.4,1.4
			c-0.2-0.6-0.2-1.3-0.8-1.6c0.1,0.6,0.3,1.2,0.5,1.9c0,0.4,0,0.9,0.1,1.3c0,0.1,0,0.3,0,0.4C150.6,86,151.1,85.6,151.5,85.2z"/>
	</g>
	<g>
		<path d="M120.4,109.2c0.1-0.3,0.2-0.5,0.3-0.8c-0.1,0.1-0.3,0.3-0.3,0.4c-0.2,0.3-0.4,0.6-0.5,1c-0.8-1.7-1-3.7-1.1-5.6
			c-0.1-1,0-1.9,0.1-2.9c0-0.2,0-0.4,0-0.6c0-2.5,1.5-4.8,3.4-6.3l0,0c0.5,0,1,0,1.5,0c0.5,3,0.1,6.1,0.1,9.1c0.1,0,0.2,0.1,0.3,0.1
			l0.1,0.1c-0.1-0.6-0.1-1.1,0-1.7c0.2-2.7,0.1-5.4-0.1-8.1c-0.1-1.4-0.3-2.8-0.4-4.2v-0.1c-0.1-0.7-0.4-1.4-0.6-2.1
			c-1.1,0.8-1.8,2-2.4,3.2c-1.3,2.8-1.8,5.9-2.2,9c-0.3,3.5-0.4,7.1,1,10.4c-0.1,1.4-0.3,2.8,0,4.2c0.3,1.2,0.5,2.3,0.6,3.5
			c0.1,0.8,0,1.6,0.4,2.3C121,116.5,118.7,112.7,120.4,109.2z"/>
		<path d="M190.6,116.5c-0.3-0.2-0.5-0.5-0.8-0.7c-3.5-3-7.1-5.8-11.2-7.9c-0.1,0.2-0.3,0.3-0.4,0.5c-0.8,1.1-1.5,2.3-2.3,3.4
			c-1,1.4-1.9,2.8-2.8,4.1c-0.1,0.1-0.2,0.3-0.3,0.4l0,0c-0.8,1.3-2.1,3.1-3,4.4c-0.6-0.4-1.1-1-1.6-1.5c-0.8-0.6-1.3-1.7-2.3-2
			c-0.8,1.3-1.1,2.9-1.8,4.3c-0.6-0.5-1.1-1.1-1.7-1.6c-0.3,0.5-0.6,1-0.9,1.4c-0.1-0.4-0.2-0.7-0.3-1.1c-0.3-1.3-0.8-2.5-1.3-3.6
			c-0.4-0.8-0.9-1.4-1.4-2.1c-1.2-1.5-2.7-2.5-4.4-3.5c-2.5-1.5-5.3-1.9-8.1-2.4c-0.4,0-0.9,0-1.1-0.5c-0.8-1.5-2-2.6-2.9-3.9
			c2.9-0.4,5.6-1.5,8.3-2.6c2.6-1.1,5.3-2.2,7.6-3.9c0.2-0.2,0.4-0.4,0.5-0.6c-0.6-0.2-1.3-0.3-1.9-0.3c-1.2-0.3-2.5,0-3.7-0.2
			c-5.9,0-12,1-17,4.1c-1.1,0.5-2.4,0.1-3.5,0.3c-2.8,0.2-5.6,1.2-7.8,3.1l-0.1,0.2c-0.2-0.2-0.3-0.4-0.5-0.6c0.1,1-0.7,1.6-1.3,2.3
			c-0.1,0.2-0.1,0.4-0.2,0.7c0.1-0.1,0.3-0.3,0.4-0.4c0.7-0.6,1.3-1.3,2-1.9c1.5-1.3,3.3-2.1,5.2-2.6c0.2,0,0.5-0.1,0.7-0.1
			c1.6-0.4,3.2-0.2,4.8-0.2c0.8-0.3,1.4-0.8,2.1-1.2c2.5-1.3,5.2-2.2,8-2.6c1.3-0.2,2.6-0.5,4-0.5c0.7-0.1,1.4-0.2,2.1-0.3
			c0.3,1.4-0.7,2.5-1.5,3.5c-0.7,0.8-1.4,1.8-2.5,2c-2,0.6-4,1.3-6.1,1.6c-0.2,0.1-0.5,0.1-0.7,0.2c1.2-0.2,1.9,0.9,2.6,1.7
			c2.4,2.8,3.5,6.5,3.2,10.2c0.1,0,0.2-0.1,0.3-0.2c0.1-2-0.3-3.9-0.9-5.8l-0.1-0.2c-0.2-0.4-0.3-0.8-0.5-1.3
			c0.6,0.1,1.2,0.2,1.8,0.3c0.8,0.9,1.6,1.9,2.3,2.9c0.3,0.3,0.6,0.8,1,0.6c0.5-0.8,0.2-1.9,0-2.8c1,0.3,1.9,0.7,2.9,1.1
			c0.1,0.2,0.2,0.5,0.3,0.7c0.5,1,0.9,1.9,1.4,2.9c0.8-0.1,0.8-1,1.2-1.5h0.1c2.5,1.8,4,4.7,4.7,7.6c0.5,1.8,0.4,3.7-0.1,5.5
			c-0.3,1.1-0.8,2.1-1.5,2.9c-1.7,1.8-4.1,3.1-6.6,3.2c0.1-2.3,0-4.7-0.5-7c-0.3-1.6-1.3-3.1-1-4.7c0.3-1.4,1-2.7,2.1-3.7
			c-0.3,0.1-0.7,0.2-1,0.4c-0.3,0.1-0.6,0.1-0.9,0.2c0.1,0.1,0.3,0.2,0.4,0.2c-0.4,1-0.8,2-1.4,2.9c-0.3-0.3-0.6-0.7-0.9-1
			c0.6,1.6,1.5,3.1,1.9,4.8c0.6,2.2,1,4.6,0.9,6.9c0,1-0.2,1.9-0.1,2.9c-0.2,0-0.5,0-0.6,0c0,0.2,0,0.6,0,0.8c-0.3,0-0.6,0-0.9,0.1
			c-0.1,0.2-0.1,0.4-0.2,0.6c-0.3-0.1-0.6,0-0.9,0.3c-0.2-0.1-0.4-0.1-0.6-0.2c-0.1,0.1-0.4,0.2-0.5,0.3c-1-0.9-2-1.9-3.1-2.8
			c-0.1,0.4,0.1,0.7,0.4,1c-0.2,0.1-0.4,0.3-0.6,0.4c-0.3,0.2-0.6,0.4-0.9,0.6c-0.2,0.2-0.4,0.3-0.6,0.4c-0.4,0-0.4-0.4-0.5-0.7
			c0-0.1-0.1-0.3-0.2-0.3c-0.7-1.4-1.5-2.6-2.4-3.9c-0.4-0.3-0.7-0.7-1.1-1c-0.1,0-0.4,0-0.5,0c1.3,1.3,2.5,2.6,3.3,4.3
			c0.4,0.9,0.9,1.9,1.4,2.8c-0.1,0.1-0.2,0.3-0.3,0.4c-0.1,0.5-0.2,1-0.3,1.5c-0.4,0-0.9,0-1.3,0.1c-0.2,0.2-0.3,0.6-0.4,0.9
			c-0.9-0.4-1.9-0.3-2.7-0.8c-1.3-0.8-2.9-1.1-4.1-2.1c-1.3-1.1-2.8-1.9-3.8-3.2c-1.4-1.7-2.8-3.4-3.3-5.6c1.4,0,2.7,0.5,4,0.8
			c0.5,0.2,1-0.1,1.5-0.3l0.1-0.1c-2.7-0.3-5.4-0.8-7.8-2c1.7-1.9,1-5.3-1.4-6.2c-1.3-0.5-3.3-0.2-3.6,1.3l0.3-0.1
			c0.1-0.2,0.2-0.8,1.3-1.1c0.8-0.1,1.8-0.1,2.5,0.5c1.1,0.8,1.6,2.2,1.6,3.5c0.1,0.8-0.6,1.3-1,1.8c-0.7-0.2-1.3-0.5-1.9-0.9
			c-1.1-1-2.4-2-2.5-3.6c-0.2,0-0.4,0-0.2,0.8c1,2.7,3.8,4,6.3,5c0.6,1.2,1.1,2.5,1.9,3.6c0.6,0.7,0.3,1.7,0.4,2.5
			c-0.7-0.1-1.4-0.4-2-0.6c-0.6-0.1-1.1-0.1-1.3,0.4c0,0.7,0.1,1.5,0.6,2c1,1.2,2.3,2.2,3.6,2.9c0.5,0.3,0.6,0.4,1.3,0.8
			c0.4,0.3,0.8,0.3,1,0.4c0.4,0.2,0.5,0.2,0.9,0.4c1,0.3,1.9,0.7,2.8,1.2c0.3,0.2,0.9,0.3,1.2,0.5c1,0,1.2-0.3,1.6-0.9
			c0.1-0.5-0.2-1,0.1-1.4c1,0,1.8,0.7,2.8,0.8c0.4-0.1,0.7,0,1-0.2c0,0,0-0.3,0-0.4c0-0.3,0-0.4,0.1-0.5s0.9-0.1,1-0.1
			c0-0.2,0-0.7,0-0.9c0.1,0,0.4,0,0.5-0.1c-0.1-0.2-0.1-0.4-0.2-0.6c0.1-0.2,0.2-0.6,0.3-0.8c-0.1-0.2-0.2-0.5-0.3-0.7
			c0.6-0.3,1.3-0.7,1.9-1.1c0.3,0,0.6,0,1,0c0.6,0.6,1.2,1.2,1.7,1.9c0.7-0.3,1.4-0.4,2.1-0.2c0.1-0.2,0.2-0.5,0.2-0.6
			c0.5-0.2,1-0.4,1.5-0.5c0.6-0.5,0.3-1.3,0.4-1.9c1.2-0.7,2.7-0.9,4-1.4c1.1-0.4,2.4-1.5,3-2.4l0,0l0,0l0,0l0,0
			c0.9-1.5,1.7-3.3,1.8-5.1c0-0.7,0.5-1.2,0.9-1.7c0.2,0.3,0.5,0.6,0.7,0.9l0.1,0.2c0.5,0.5,0.7,1.4,1.3,1.6
			c0.7-1.2,1.2-2.4,1.7-3.6c0.3,0.2,0.6,0.5,1,0.5c-0.1-0.1-0.3-0.3-0.4-0.4c-0.3-0.3-0.4-0.5-0.7-0.6c-0.1,0.1-0.4,0.6-0.5,0.7
			c-0.3-0.2-0.5-0.6-0.8-0.8c0.4-1,0.8-2.1,1.2-3.1c0.4,0.3,0.7,0.6,1,1c0.2,0.2,0.3,0.4,0.4,0.6c0.7,0.7,1.4,1.4,2.1,2.1
			c1.1-1.2,1.9-2.6,2.8-3.9c0-0.1,0-0.2,0.1-0.3c0.2-0.2,0.4-0.5,0.6-0.7c1.8-2.7,3.7-5.4,5.5-8.1c3.5,1.6,6.6,4,9.6,6.5l0.1,0.1
			c0.7,0.6,1.5,1.2,2.1,1.9c0.7,0.4,1.3,1,1.8,1.6c2.8,2.8,5.6,5.5,7.9,8.7c0.1,0.1,0.3,0.4,0.4,0.5c0.2,0.3,0.4,0.5,0.6,0.8
			c-0.7,0.3-1.4,0.5-1.9,0.9l0.1-0.1c-1.4,0.3-2.6,1-4,1.4c-2.7,1-5.5,2.2-8.3,3c-0.1-0.2-0.3-0.5-0.4-0.6c-0.1-0.1-0.2-0.3-0.2-0.4
			c-2.5-3.6-5-7.2-7.6-10.7c-1-1.1-1.8-2.2-2.9-3.1c-1.6,1.7-3.1,3.5-4.7,5.1c-0.4,0.2-0.5,1-1.1,0.8c-0.8-0.9-1.5-1.9-2.3-2.7
			c-0.1-0.1-0.3-0.3-0.4-0.4c-0.1,0.5,0.4,0.8,0.6,1.2c0.8,0.8,1.4,1.8,2.3,2.5c0.9-1.2,2-2.3,3-3.5c0.8-0.9,1.7-1.8,2.5-2.7
			c2.3,2.1,4,4.7,5.8,7.1c1.8,2.5,3.5,5,5.2,7.6c1.9-0.5,3.7-1.2,5.5-1.9c1.6-0.6,3.2-1.2,4.7-1.8c0.7-0.3,1.4-0.4,1.9-0.9l0,0
			c0.5-0.1,1-0.3,1.5-0.5c0.1,0,0.2-0.1,0.3-0.1c0.3-0.1,0.5-0.3,0.8-0.4c-1-1.5-2.1-2.9-3.3-4.2C195.8,121.7,193.3,119,190.6,116.5
			z M150.2,112.2c-0.6-0.2-0.9-0.8-1.2-1.2c-0.5-0.6-1-1.2-1.4-1.9c0.9,0.2,1.9,0.2,2.5,0.9C150.3,110.6,150.2,111.4,150.2,112.2z
			 M155.1,113.9c-0.4-0.9-0.9-1.7-1.2-2.7c0.7,0.3,1.3,0.7,1.9,1C155.6,112.9,155.7,113.6,155.1,113.9z M137.8,140.5
			c-0.8,0.5-1.7-0.1-2.5-0.5c-2.3-0.6-4.2-1.8-6.3-2.9l-1-0.6c-3.2-2.6-0.3-1.3,0.1-0.4c0.2,0,0.6,0.1,0.6,0.1
			c-0.1-0.1-0.7-0.5-0.8-0.6l-0.3-0.3c-0.6-0.5-0.7-0.6-1.2-1.2l-0.5-0.5c0.3-0.3,0.5-0.1,0.7,0.2c0.4,0.6,0.9,1,1.3,1.5l1.1,0.6
			c0.2,0.1-0.2-0.4-0.4-0.5c-0.4-0.5-0.9-0.9-1.4-1.3l-0.5-0.7c0.4-0.1,0.9,0.1,1.2,0.4l0.5,0.2c0.2,0,0.5,0.1,0.7,0.2
			c0.8,0.2,1.4,0.9,2.3,0.8c-0.7-0.4-1.3-0.9-2.1-1.2c0-0.5,0-1,0-1.5c0.8,0.9,1.6,1.8,2.4,2.7h0.1c0.3,0.3,0.6,0.5,1,0.8
			c1.6,1.3,3.4,2.3,5.2,3.1C137.8,139.3,138.5,140.1,137.8,140.5z"/>
		<path d="M157.8,123.8c0-1.2-0.3-2.4-0.5-3.6c-0.4-1.1-0.6-2.8-1.9-3.2c-0.5,0.1-0.9,0.5-1,1c-0.4,1.3-0.3,2.7-0.4,4.1
			c0.1,2.1,0.3,4.2,1,6.2c0.3,0.7,0.6,1.5,1.4,1.7c0.9-0.1,1.2-1.2,1.4-1.9c0-0.3,0-0.7,0-1c-0.1,0.1-0.2,0.2-0.2,0.3
			c-0.3,0.7-0.3,1.6-0.9,2.2c-0.5,0-0.9-0.5-1.1-0.9c-0.8-1.7-0.9-3.6-1.1-5.4c-0.3-1.8-0.1-3.6,0.2-5.4c0.3,1.1,0,2.3,0.2,3.4
			l0.2-0.2c0.1-1.2-0.1-2.5,0.4-3.7c0.3,0.9,0.4,1.9,0.4,2.9c0,0.5,0.4,0.7,0.5,0.1c-0.2-1-0.4-1.9-0.5-2.9c0.7,0.9,0.9,2,1.1,3.1
			C157.3,121.7,157.3,122.8,157.8,123.8z"/>
		<path d="M142.4,128.5c-0.2-0.4-0.5-0.7-0.7-1.1c0.4,1.6,1.6,2.9,2.4,4.3c0.4,0.4,0.8,0.9,1.4,1.1c-1-1.4-2.1-2.6-2.9-4.1
			C142.5,128.7,142.5,128.6,142.4,128.5z"/>
		<path d="M142.1,118.1c2.2,0.6,4.3-2,3.5-4c-0.4-1.5-2.1-2.6-3.6-2c-1,0.3-1.9,1.2-2.1,2.3C139.5,116,140.5,117.8,142.1,118.1z
			 M142.4,112.4c1.7-0.5,3.3,1.3,3,3c-0.1,2.1-3.1,3.3-4.4,1.6C139.5,115.5,140.4,112.8,142.4,112.4z"/>
		<path d="M136.3,107.5c-0.6,0.4-1.1,0.9-1.3,1.7c-0.4,1.4,0.8,3,2.2,3c1.3,0.2,2.6-0.9,2.7-2.3C140.2,108,137.9,106.4,136.3,107.5z
			 M136.5,108.2c0.9,0.1,1.3,1,0.9,1.6c-0.4,0.6-1.3,0.7-2-0.2C135.2,109.1,135.7,108.2,136.5,108.2z"/>
		<path d="M128.4,114.5c0.4,0,0.7,0,1-0.1c0.1-0.3,0.1-0.5,0.2-0.8C129.1,113.7,128.5,113.9,128.4,114.5z"/>
		<path d="M127.3,117.8c-0.1,0-0.2,0.1-0.2,0.2h0.2c0.2,0,0.6,0,0.9,0c1.3,2.2,2.9,4.2,4.8,5.9c0.7,0.5,1.8,1.3,2.5,0.4
			s-0.4-5.6-1-8.3c-0.2-0.5,0.2-0.8,0.4-1.2c0,0-0.1-0.1-0.1-0.2c-1,1.6-3.1,1.4-4.8,1.3c-0.6,0.6-1.3,1.2-1.9,1.8
			C127.9,117.8,127.5,117.8,127.3,117.8z M130.8,116.5c1.1-0.1,2.2-0.4,3.3-0.6c0.2,0.7,0.5,1.2,0.6,1.9l0.1,0.3
			c0.4,1.5,0.6,3,0.8,4.6c0,0.5-0.2,1.1-0.5,1.5c-0.6,0.2-1-0.1-1.1-0.6c0,0.1,0,0.3,0,0.4c-1.5-0.8-2.7-2.1-3.7-3.5
			c-0.4-0.4-0.2-1-0.3-1.5C130,118.2,130.3,117.3,130.8,116.5z M130,116.7c0,0.9-0.3,1.7-0.4,2.6c-0.4-0.4-0.9-0.9-0.9-1.5
			C129.1,117.4,129.5,117.1,130,116.7z"/>
		<path d="M124.7,117c0.8-0.9,0.7-2.3,0.3-3.4c-0.3-1-1.5-1.4-2.4-0.9c-1.6,1-1.5,3.7,0.1,4.7C123.4,117.7,124.3,117.6,124.7,117z
			 M123.2,113.2c0.5-0.3,1,0.2,1.2,0.6c0.1,0.5,0.1,0.8-0.2,1.1c-0.3,0.2-0.9,0-1.2-0.4C122.7,114.1,122.7,113.4,123.2,113.2z"/>
	</g>
</g>
</svg>
