<?xml version="1.0" encoding="utf-8"?>
<!-- Generator: Adobe Illustrator 26.0.3, SVG Export Plug-In . SVG Version: 6.00 Build 0)  -->
<svg version="1.0" id="Слой_1" xmlns="http://www.w3.org/2000/svg" xmlns:xlink="http://www.w3.org/1999/xlink" x="0px" y="0px"
	 viewBox="0 0 239.5 150.2" style="enable-background:new 0 0 239.5 150.2;" xml:space="preserve">
<g>
	<path d="M134.8,43.5c0-4.4-1.7-9.1-5.3-11.8c0.9,1.9,2.1,3.6,2.9,5.5C133.3,39.2,133.8,41.4,134.8,43.5z"/>
	<path d="M183.8,65.7c-4,0.5-7.8,3.1-9.4,6.9c1.7-1.4,3.3-2.9,5.2-4.2C180.9,67.4,182.4,66.7,183.8,65.7z"/>
	<path d="M197.5,70.3c-3.7-1.7-8-1.6-11.9-0.5c-3.1,1.2-6.2,2.6-8.8,4.8c-0.8,0.7-2,1.1-2.3,2.2c1.4-0.1,2.6-1.1,3.9-1.6
		c4.2-1.6,8.4-3.4,13-3.2c3.5-0.2,6.8,1.3,9.5,3.5c1.6,1.3,2.7,3.1,4.2,4.4C204.2,75.7,201.2,72.2,197.5,70.3z"/>
	<path d="M140.5,88.7c0.1-1.1,0.2-2.7-1.3-2.8C139.1,87,139.5,88,140.5,88.7z"/>
	<path d="M153.7,87.8c-1.1,0.1-2.3,0.6-2.3,1.9C152.5,89.6,153.6,89,153.7,87.8z"/>
	<path d="M115.6,79.6c3.2,0,6.5-0.4,9.7,0.5c0.7,0.2,1.5,0.6,2.3,0.4c2-7.8,3.2-15.8,3.2-23.8c-0.1-5.8-0.9-11.9-4.7-16.5
		c-4.7-5.2-13.7-5-18.6-0.2c-4.6,5-5.4,12.1-5.6,18.6c0,7.4,0.9,14.8,2.6,21.9C108.2,80.2,111.9,79.7,115.6,79.6z M117.4,45.2
		c0.7-1.5,2.7-2.6,4.2-1.5c2.3,2.4,2.6,5.8,2.2,8.9c-0.5,1.8-1.3,4.3-3.5,4.4c-1.5,0.3-2.5-1.1-3.2-2.2
		C116,51.7,115.8,48.1,117.4,45.2z M118.4,41.6c-0.8,1.1-1.8,2-2.4,3.3c-1.1,3.3-1.6,8.5-0.4,11.9c1,1.9-0.2,4.5,0.3,6.6
		c0.5,2,1.1,4,2.4,5.6c0.8,0.9,1.9,1.7,3.2,1.4c1.3-0.2,2.2-1.4,3-2.4c0.6,0.3,1,0.9,0.9,1.5c-0.1,1.8-0.3,3.6-0.8,5.3
		c-0.4,0.7-1.3,0.6-2,0.8c-2.5,0.4-5,1-7.5,0.4c-1.4-0.1-2.2-0.4-2.6-2.5c-0.3-5.1-0.2-10.2-0.2-15.3c0-2-0.6-4-0.3-6
		c0.2-1.4,0.3-2.8,0.6-4.1c0.8-3.8,2.6-5.4,5.4-6.8C118.1,41.3,118.3,41.5,118.4,41.6z M108,43.9c1.6-2.5,4.2-4.2,7.1-4.7
		c0.6,0,1.3,0,1.9,0c-3,2.2-4.9,5.8-5.3,9.4c-1,6.4-0.9,12.9-0.6,19.3c0,2.9,0.7,5.8,0.6,8.7c-0.2,0.1-0.6,0.4-0.9,0.5
		c-1.4,0-2.8,0.1-4.2,0.1c-1.3-6.3-2-12.8-2-19.2C104.8,53.2,105.5,48.1,108,43.9z"/>
	<path d="M186.3,96.9c-5.3-1.3-10.7-2.2-16.1-2.7c-8.4-0.6-17-0.4-25,2.3c-1.8-0.6-3.4-2-5.2-2.5c-10.5-3.6-21.8-3.3-32.8-3.8
		c-1.4-0.1-2.7-0.9-4.1-0.9c-1.5-0.9-3-1.9-4.4-3c1,1.2,2.1,2.6,3.7,3.2c1,0.8,2.3,1.1,3.4,1.5c0.5,2,0.4,4.3,1.2,6.3
		c1.8,5.8,6.6,10.2,11.8,13.1c9.3,4.6,19.7,7.6,30.1,7.3c9.1,0.1,18.2-0.7,27-2.9c3.5-1,6.6-3,9.5-5.1c3.7-2.6,6.9-6,9.4-9.8
		c2.8-0.6,5.9-0.1,8.4-1.7C197.6,98.8,191.8,98.4,186.3,96.9z M191.1,101.6c-1.7,1.7-3.1,3.8-5.1,5.3c-2.1,1.6-4.1,3.4-6.6,4.3
		c-0.2-0.2-0.6-0.7-0.8-1c-0.4-0.1-0.7-0.2-1.1-0.3c-13.2-5.8-27.8-8.9-42.2-7.8c-4.4,0.5-8.9,1.3-13.1,2.9
		c-1.1,0.4-2.3,0.8-3.5,1.1c-0.3,0.4-0.5,0.8-0.8,1.2c-4-2.4-7.5-6-8.9-10.5c-0.4-1.5-1-3.2-0.7-4.8c1.5-0.5,3.1-0.1,4.6-0.1
		c8.9,1.2,18.1,1.6,26.6,4.9c1.9,0.6,3.3,2.1,5,2.9c1.2-0.1,2.2-0.8,3.3-1c9.1-2.3,18.7-2.4,28.1-1.3c5.5,0.4,10.9,1.8,16.4,2.3
		C192.2,100.4,191.6,101,191.1,101.6z"/>
</g>
</svg>
