<?xml version="1.0" encoding="utf-8"?>
<!-- Generator: Adobe Illustrator 26.0.3, SVG Export Plug-In . SVG Version: 6.00 Build 0)  -->
<svg version="1.0" id="Слой_1" xmlns="http://www.w3.org/2000/svg" xmlns:xlink="http://www.w3.org/1999/xlink" x="0px" y="0px"
	 viewBox="0 0 239.5 150.2" style="enable-background:new 0 0 239.5 150.2;" xml:space="preserve">
<g>
	<path d="M217.3,70c0.4,0,0.9-0.1,1.2-0.4c-0.1-0.7-0.1-1.4-0.1-2.1v-0.1c0.1-0.2,0.1-0.3,0.2-0.5c0.3,0.1,0.7,0.3,1,0.2
		c0.3-0.7-0.1-1.5,0-2.2c0.2-0.1,0.5-0.2,0.7-0.3c-0.2-0.4-0.4-0.7-0.7-1.1c-0.5-0.6-0.6-1.5-1-2.2c-0.2-0.5-0.6-0.6-1-0.9
		c-0.3-0.4-0.5-0.9-0.9-1.3c0.2-0.1,0.4-0.1,0.5-0.3c-0.5,0-1,0-1.4-0.1c-0.5-3.7-0.9-7.5-1.4-11.2c-0.2-1.6-0.4-3.3-0.7-4.9
		c-5.4,0-10.9,0-16.3,0c-0.1,1.2-0.4,2.5-0.5,3.7c-0.2-0.2-0.4-0.5-0.7-0.7c-0.7-0.1-1.5,0.2-2.2,0c-1.3-0.4-2.8-0.5-4,0.1
		c-0.5,0.2-1.1,0.2-1.7,0.2c-0.3,0.2-0.6,0.6-0.9,0.8l-0.2,0.1c0,0.2-0.1,0.4-0.1,0.7c-0.9-0.1-1.8-0.5-2.6-0.1
		c0,0.4-0.1,0.9,0.2,1.3c0.2,0.3,0.6,0.7,0.2,1c-0.5,0.3-1.2-0.2-1.8,0.1c-0.7,0.3-1.4,0.8-1.8,1.5c-0.6,0.9-0.8,2.2-0.3,3.1
		c0.2,0.4,0.2,0.9,0.2,1.4c0.6,0.4,1.1,0.9,1.8,1.2c0.3,0.1,0.5,0.2,0.8,0.3c0.3,0.2,0.5,0.6,0.8,0.8c0.6,0.2,1.3-0.1,1.9-0.1
		c0.2,0.2,0.2,0.5,0.4,0.7c0-0.1,0-0.2,0-0.3c0.2,0,0.6,0,0.8,0c0,1.6,0.1,3.2,0.1,4.8c0,1.4-0.3,2.8-0.8,4.2l0,0h-0.1
		c-0.4-0.2-0.9-0.5-1.5-0.3c-1.1,0.1-2,0.8-2.8,1.6c-0.5,0.4-1.2,0.9-1.9,0.5c-0.1-0.1-0.2-0.3-0.3-0.4c-0.4,0.5-0.6,1.1-1,1.6
		c-0.8,0.9-1.5,1.9-2,2.9c0,0.3-0.2,0.5-0.3,0.7c-0.4,0.8-1,1.5-1.4,2.4c0.5,0.3,1,0.2,1.6,0.4c0.3,0.4,0.1,0.9,0.2,1.4
		c0.3,0.4,0.9,0.4,1.3,0.5c0.6,0.1,1,0.4,1.5,0.7c0.4,0.3,0.9,0.1,1.3,0.3c0.3,0.2,0.5,0.5,0.9,0.7h0.2c1.4,0.2,2.7,0,4.1,0.1
		c0,0.1,0.1,0.3,0.2,0.4c0.1,0.1,0.2,0.2,0.3,0.2c0.1,0.1,0.2,0.2,0.3,0.2c0-0.1,0-0.2,0-0.3c0.9,0.1,1.7,0.6,2.4,1.1
		c0.7,0,1.4-0.3,2-0.5c0.1,0,0.2-0.1,0.3-0.1c0.3-0.2,0.7-0.3,1-0.6c0.2-0.4,0.2-0.8,0.2-1.3c0.3-0.3,0.6-0.6,0.8-0.9
		c0.3,0.1,0.7,0.2,1,0.2c0.5-0.1,1-0.7,1.6-0.4c0.7,0.5,1.2,1.4,0.9,2.3c-0.1,0.5-0.3,1-0.7,1.4c-0.4,0.3-0.9,0.3-1.4,0.5
		c-0.3,0.4-0.6,0.8-1,1.1c-0.7,0.5-1.4,0.9-2.1,1.2c-0.3,0.1-0.6,0-0.9-0.1c0.2-1.2,0.3-2.3,0.5-3.5c-0.1,0-0.2,0.1-0.3,0.1
		c-0.2,1.1-0.3,2.2-0.5,3.3l0,0c-0.1,0-0.3-0.1-0.4-0.1c-0.3,0.2-0.6,0.4-0.9,0.6c-0.5,0.3-1-0.1-1.5-0.3c-0.1,0.4-0.3,0.8-0.3,1.2
		c0,0.5,0.6,0.8,0.5,1.4c-0.1,0.2-0.3,0.4-0.5,0.6l0,0c-0.3,0.2-0.5,0.5-0.8,0.7c0-2.5,0-5.1,0-7.6c-0.1-0.1-0.2-0.2-0.3-0.2
		c0,2.6,0,5.2,0,7.9c0,0.4-0.5,0.5-0.8,0.6c-0.6,0.1-1.2-0.3-1.7-0.5c0.2,0.3,0.5,0.7,0.7,1.1c0.2,0.6,0.2,1.1,0.2,1.7l0,0
		c-0.3,0.2-0.6,0.4-0.9,0.6l0,0c-0.4,0.3-0.8,0.7-0.9,1.2l0,0c-0.4,0.1-0.8,0.1-1.1,0.3c-0.2,0.4,0.1,0.7,0.1,1.1
		c-0.4,0.1-0.9,0.2-1.3,0.3c-0.4,0.3-0.7,0.8-1.1,1.1c-0.5,0.2-1.1-0.1-1.3-0.6c0.3,0.8-0.4,1.2-1,1.5c-0.3,0.3-0.5,0.9-1,0.9
		c-0.7-0.4-1.3-1-2.1-1.1c0.1,0.9,0.5,1.8,0.8,2.6c-0.2,0.5-0.5,0.9-0.7,1.4c0,0.5,0.6,0.3,0.9,0.3c0.4-0.1,0.7,0.3,1,0.5l0,0
		c0.4,0.5,1.2,0.7,1.7,0.3c0.4-0.3,0.5-0.8,0.8-1.2l0,0c0.2-0.3,0.4-0.5,0.6-0.8v-0.1c0.1-0.1,0.2-0.2,0.3-0.3
		c0.4,0,0.9-0.1,1.3-0.2c-0.1-0.6-0.4-1.3-0.2-2c0.3-0.6,1.1-0.6,1.6-1c0.7-0.4,1-1.2,1.6-1.7c0.6-0.3,1.3-0.1,1.9-0.4
		c0.3-0.3,0.4-0.6,0.7-0.9c0,1.4,0,2.8,0,4.2c0,1.6-0.1,3.1,0.2,4.7c0.1,1.1,0.6,2.1,0.8,3.1c-4,0-8.1,0.1-12.1,0.1
		c-0.3,0-0.5-0.2-0.8-0.4c-0.7-0.7-0.9-1.7-0.9-2.7c0-8.2,0-16.3,0-24.5c0-0.9-0.2-1.8-0.6-2.6c-0.2-0.6-0.8-1-1.4-1.1
		c0.4-0.8,1.3-0.4,2-0.2c-0.1-0.5-0.1-1-0.2-1.4c-0.9,0.1-1.3,1.1-2.2,1.2c-1.1,0.2-2.1,0.8-3.2,1.1l0,0c-0.5-0.1-1-0.4-1.4-0.7
		c0,0.5,0.1,1.1-0.3,1.5c-0.5,0.3-1,0.5-1.6,0.6c-0.5,0-0.9-0.2-1.4-0.3c-0.5,0.2-0.9,0.5-1.3,0.8c-0.5,0.3-0.7,0.9-1.1,1.3
		c-0.6,0.1-1.3,0-1.8-0.4c0.7-0.8,1.4-1.6,2.5-1.9l0,0c1.4-0.4,2.8-0.6,4-1.6c-0.1-0.3-0.2-0.7-0.2-1c-0.5,0.2-1,0.6-1.6,0.5
		c-0.4,0-0.9-0.1-1.2,0.3c-0.3,0.6-0.8,1.1-1.4,1.6l0,0c-0.1,0.1-0.3,0.2-0.4,0.3c-0.4-0.1-0.9-0.2-1.3-0.4l0,0c0-0.3,0-0.5,0.1-0.8
		c-0.1,0-0.2-0.1-0.3-0.2c0,0,0,0-0.1,0l0,0l0,0c-0.3-0.1-0.6-0.1-0.9-0.2c0-1.1,0-2.2,0-3.3c0.6-0.5,0.7-0.9,1-1.5v-0.3
		c0.7-0.4,1.4-0.5,2.2-0.7c0-0.1,0-0.4,0-0.5c0.6,0.1,1.2,0.2,1.8,0.1c0.1-0.8,0-1.5-0.2-2.3c0.1,0,0.3-0.1,0.5-0.1
		c-0.6-0.8-1.2-1.6-2-2.1c0.1-0.6,0.4-1.1,0.2-1.7c-0.5-0.3-1-0.3-1.5-0.6c-0.4-0.3-0.7-0.7-1-1.1l0,0c0-0.4,0-0.7-0.1-1.1
		c-0.2-0.3-0.6-0.2-0.9-0.3c0-5.3-0.1-10.7-0.1-16c8.3,0,16.5,0,24.8,0c1.9,0.2,3.2,1.9,3.7,3.6l0.2-0.1c-0.4-2.1-2.5-4-4.7-3.8
		c-8.1,0-16.1,0-24.2,0c0,5.2,0.1,10.4,0.1,15.6c0,0.2,0,0.5,0.1,0.7c-0.5,0.6-1.1,1-1.8,1.3c-0.4,0.2-0.9-0.1-1.2-0.4
		c0-5.7,0-11.5,0-17.3c-2.7,0-5.4,0-8.1,0v0.2c2.6,0,5.2,0,7.9,0c0,5.6,0,11.2,0,16.7c-0.7-0.2-1.1,0.3-1.7,0.5c-1-0.2-2-0.2-3-0.1
		c-0.5-0.3-1.1-0.6-1.1-1.2v-0.2c0.5-0.7,0.6-1.6,0.7-2.4c-0.3-1-0.8-1.9-1-3c0-0.6,0.3-1.2-0.1-1.7c-0.3-0.6-0.6-1.2-0.8-1.9
		c-0.1-0.6-0.7-0.9-1.1-1.2l0.1-0.1c0.4-0.3,0.9-0.6,1-1.2c-0.1-0.8-0.5-1.5-0.9-2.2c-0.4-0.5-0.1-0.9,0-1.5v-0.3c0-0.1,0-0.3,0-0.4
		v-0.2c0-0.4-0.1-0.7-0.1-1.1c0.3-1.3,0.2-2.9-0.7-3.9c-0.1-0.5-0.1-0.7-0.2-1.2V36c-0.5-0.5-1.3-0.7-1.6-1.4
		c0.2-0.1,0.2-0.3,0.2-0.5c-0.1,0.1-0.2,0.2-0.3,0.3c-0.1-0.4-0.2-0.9-0.4-1.3c-0.5-0.1-0.8,0.4-1.2,0.6c-0.6,0-1.2-0.1-1.8,0.1
		c-0.8,0.1-1.6,0.5-2.2,1.1c-0.5,0.5-1.2,0.5-1.8,0.7c-0.9-0.1-1.4,0.8-2,1.3s-0.2,1.3-0.3,2c-1.3-0.2-3-0.3-3.9,0.9
		c-0.3,0.9,0,1.7,0.4,2.4l0.1,0.1c-1.2,0-2.4,0-3.6,0c-1,3.4-1.9,6.8-2.8,10.2h-0.1c0-3.4,0-6.8,0-10.2c-4.3,0-8.6,0-12.9,0
		c0,3.3,0,6.6,0,9.9c-0.8,0-1.6,0.3-2.4,0c-0.3-0.2-0.6-0.3-0.8-0.5c-0.4,0.3-0.7,0.7-1.2,0.7s-0.9-0.1-1.4-0.2
		c-0.7,0-1.3-0.4-2-0.2h-0.2c0,0-0.1,0.1-0.2,0.1c-0.8,0.2-1.7,0.1-2.5,0.4c-0.4,0.2-0.9,0.1-1.3,0.3c-0.2,0.3-0.3,0.6-0.5,0.9
		c-0.2,0.2-0.5,0.1-0.8,0.2c-0.8,0.1-1.6,0.3-2.3,0.5c-0.5,0.2-1.1,0-1.7,0c-0.5,0.2-0.8,0.8-1.3,1c-0.8,0.4-1.7,0.5-2.5,0.8
		c-0.7,0.4-1.3,0.8-2,1c-0.4-0.4-0.7-1-1.3-1.2c-0.5,0.1-1,0.4-1.6,0.4c-0.4-0.1-0.7-0.4-1-0.7l0,0c0.6-4.4,1.3-8.8,1.9-13.3
		c5.3,0,10.6,0,15.9,0c0.5,3.2,0.8,6.4,1.3,9.6h0.2c-0.4-3.3-0.8-6.5-1.2-9.8c-0.9-0.1-1.8,0-2.7,0c-4.5,0-9.1,0-13.6,0
		c-0.6,4.4-1.3,8.9-1.8,13.3c-0.6-0.2-1.2,0.3-1.6,0.7s-0.9,0.7-1.1,1.2c-0.2,0.4-0.4,0.8-0.9,1c-0.3,0.2-0.6,0.3-0.9,0.4L80.5,59
		c-0.3,0.1-0.4,0.2-0.7,0.3c0,0.6,0.4,1.4-0.2,1.8c0,0-0.1,0.1-0.2,0.2l-0.1,0.1c-0.3,0.2-0.6,0.4-0.9,0.5c0.2,0.1,0.5,0.1,0.7,0.3
		c0.1,0.3,0.1,0.6,0.2,0.9l0,0l-0.1,0.1L79,63.4l-0.1,0.1c-0.2,0.2-0.4,0.6-0.7,0.5c-0.7,0-1.3-0.1-2,0c-0.2,0-0.3,0.1-0.5,0.1
		c-0.1,0.2-0.3,0.3-0.4,0.5c0,0.2,0,0.4,0.1,0.5c0.4,0.4,0.8,0.6,1.2,1l0.1,0.1c0.2,0.5,0.8,1,0.6,1.6c0.3,0.6,1.1,0.6,1.5,1
		c0.3,0.4,0.2,0.9,0.4,1.4c0.2,0.4,0.6,0.6,1,0.8c0.3,0,0.6-0.1,0.9-0.1c0.4,0.2,0.7,0.5,1.1,0.7s0.8,0.6,1.2,0.6
		c-0.4,0-0.8-0.4-1.2-0.6c0.2,0.3,0.6,0.5,0.9,0.7c-1.6,11.2-3.1,22.4-4.7,33.6c1,0,2,0,2.9,0c-0.1,0.2-0.1,0.4-0.2,0.5l0,0
		c-0.2,0.2-0.2,0.5-0.2,0.8c-0.1,0-0.2,0.1-0.3,0.2c0.1,0.1,0.2,0.2,0.2,0.3c0,0.1-0.1,0.2-0.2,0.3c0,0,0.1,0.1,0.2,0.2l0,0
		c-0.3,0.8-0.7,1.6-0.8,2.5c0,0.7,0.6,1.2,0.5,1.9c-0.1,0.5,0,1.1,0.3,1.5c-0.2,0.4-0.5,0.8-0.7,1.2c0.3-0.2,0.7-0.4,1-0.5
		c0.6-0.2,1.3,0.5,1.8,0c0.5-0.4,1.2-0.7,1.5-1.3h0.1c0.3,0.3,0.6,0.6,1,0.8c0.8,0.1,1.6,0.2,2.3,0.2c-0.4-1-0.4-2.1-0.1-3.1
		c0.2-0.5,0.5-1,0.4-1.5c-0.1-0.7,0.1-1.3,0.6-1.8c0.1,0,0.3,0,0.4,0l0,0c0.3,0.3,0.6,0.6,1,0.9c0.1-0.5,0.1-1.1,0.3-1.6
		c0.2-0.5,0.7-0.7,1.2-0.8c0.5-0.1,1,0.1,1.6,0c0.7-0.2,0.9-0.9,1.2-1.5c0.2-0.5,0.1-1.1,0.5-1.5c0.8-0.5,1.7-0.8,2.5-1.3
		c0.4-0.3,0.3-0.8,0.6-1.2c0.1-0.1,0-0.3,0-0.4c0.2-0.2,0.3-0.3,0.4-0.5c0,0.1,0.1,0.2,0.2,0.2l0,0c0.1,1.8,0.4,3.6,0.6,5.4
		c4.2,0,8.4,0,12.6,0c-0.9-7-1.7-14.1-2.7-21.1l0,0c0.2-0.4,0.5-0.6,0.9-0.9c0.3-0.2,0.6,0,0.8,0.2c0.3,0.3,0.9,0.2,0.9-0.3
		c0.2-0.8,0.5-1.5,1.1-1.9c0,8,0,16.1,0,24.1c4.4,0,8.8,0,13.2,0c0-2.5,0-5,0-7.6c0-0.3-0.1-0.7,0.1-1c0.7,2.9,1.5,5.7,2.2,8.6
		c4.5,0,9.1,0,13.6,0c-1-3.3-1.9-6.6-2.9-9.9c0.2,0,0.5,0,0.7,0.1c-0.6-0.1-0.9-0.8-1.6-1c0.2,0.2,0.5,0.3,0.6,0.7
		c0.9,3.3,1.9,6.6,2.8,9.9c-4.3,0-8.7,0-13,0c-0.8-3-1.6-6-2.4-9c-0.1-0.3-0.2-0.7-0.5-0.9c-0.1,3.3,0,6.6,0,9.9
		c-4.2,0-8.4,0-12.7,0c0-8,0-16,0-24.1l0,0c0.6-0.6,1.6-0.7,2.1-1.4c0.2-0.5-0.1-0.9,0-1.4c0.3-0.5,0.8-0.8,1.1-1.3
		c0.7-0.9,1.1-2.1,2-2.8c0.5-0.6,1.1-1.3,1.9-1.4c0.5-0.2,0.5-0.9,0.8-1.3c0.6-0.7,1.4-1.2,2.2-1.8l0,0c0.4-0.3,0.9-0.4,1.3-0.7
		c0.2-0.4,0.3-0.8,0.5-1.1c0.2-0.4,0.7-0.6,0.9-1c0.1-0.6-0.4-1.1,0-1.7c0.2-0.4,0.2-0.8,0.1-1.2c-0.2-0.5-0.4-1-0.5-1.5
		s-0.5-0.9-0.9-1.3c-0.4-0.4-0.2-1-0.4-1.5c-0.3-0.4-0.8-0.4-1.2-0.6c0,0.2,0.1,0.5,0.1,0.7l-0.1-0.1l0,0c-0.2-0.3-0.3-0.6-0.4-1
		c-0.1-0.5,0-1.1-0.1-1.6c-0.1-0.2-0.3-0.4-0.5-0.7l0,0c-0.5-0.7,0.2-1.5,0-2.2c-0.4-0.7-0.7-1.3-1.1-1.9c-0.4,0.1-0.9,0.2-1.3,0.2
		c-0.6-0.1-0.9-0.9-1.5-0.7c-1,0.2-2,0.1-2.9-0.4c-0.6-0.4-1.2,0.1-1.8,0.1l0,0c0-3.2,0-6.4,0-9.6c4.1,0,8.2,0,12.3,0
		c0,3.9,0,7.7,0,11.6c0.4-0.2,0.4-0.6,0.5-0.9c1-3.5,2-7,2.9-10.5c1.2,0,2.4,0,3.6,0c0.3,0.6,0.9,1.1,0.7,1.8
		c-0.1,1.1-0.6,2.3,0.2,3.2c0.3,0.6,1.1,0.8,1.4,1.4c0.6,0.8,0,1.9,0.5,2.8c0.3,0.4,0.5,1,0.5,1.5c0.1,0.3,0.3,0.6,0.5,0.9
		c-0.3,0.6-0.7,1.3-0.3,2c0.5,0.7,0.6,1.5,1.1,2.2l0,0c-1.6,4.7-3.2,9.3-4.8,14c-0.1,0.3,0,0.6,0.1,0.8c1.4,4.9,2.8,9.8,4.2,14.6
		l0,0c-0.4-0.1-0.8-0.2-1.2-0.3c-0.6,0.3-1,0.8-1.5,1.1c-0.4,0.2-0.9,0.4-1,0.9c-0.2,0.6-0.4,1.1-0.8,1.7c-0.3,0.3,0.1,0.6,0.3,0.9
		l0,0c0.1,0.6,0.1,1.3,0.1,1.9c-0.2,0.3-0.5,0.6-0.7,1c0.5-0.1,1-0.4,1.5-0.5c0.2,0,0.5,0.2,0.7,0.3l0,0c0.6,0.3,1.1,0.5,1.7,0.6
		c0.5-0.1,0.9-0.5,1.4-0.7c0.4,0,0.8,0.2,1.2,0.3c0.7,0.1,1,0.8,1.6,1c0.4-0.3,0.6-0.7,0.9-1c0.7-0.5,1.4-0.9,2.2-1
		c0.1,0,0.2-0.1,0.3-0.1c0.6-0.6,1.3-0.9,2-1.3c0.5-0.6,1-1.2,1.6-1.7c0.2-0.2,0.4-0.4,0.6-0.6c0.5-0.7,1.5-0.3,2.1-0.8
		c0.8-0.3,1.3-1,1.9-1.5l0.1,0.1c-0.1,0.8-0.3,1.6-0.3,2.5c0,0.4,0.3,0.7,0.5,1l0,0c0.5,0.7,1.2,1.2,2,1.5c0.3,0.5,0,1.2,0.3,1.7
		c0.3,0.7,0.4,1.5,0.7,2.2c0.4,0.6,1,1.1,1.2,1.8l0,0c0,0.5,0,0.7,0,1.2v0.4c-0.5,0.3-0.4,1-0.4,1.5c0.1,0.1,0.3,0.1,0.4,0.2v0.1
		c0,1.2,0,2.3,0,3.5c-4.2,0-8.4,0-12.6,0c0-3.9-0.1-7.7-0.1-11.6c-0.1,0-0.2,0.1-0.3,0.1c0,3.9,0.1,7.9,0.1,11.8c4.4,0,8.8,0,13.1,0
		c-0.1-1.2,0.1-2.5-0.1-3.7l0,0c1,0.3,0.5,1.4,0.8,2.1l0,0c0.4,0.6,1,1.1,1.6,1.3c0.2,0.1,0.6,0.2,0.7,0.4c0.3,0.7,0.5,1.5,0.7,2.2
		c0.3,0.7,0.7,1.4,1.2,2c0.3,1-1,1.3-1.1,2.2c-0.1,0.5-0.2,1.1,0.2,1.5s0.2,0.9,0.2,1.4c0.5,0,1.1-0.2,1.5,0s0.8,0.3,1.2,0.3
		c0.1,0.3,0.1,0.7,0.3,0.9c0.2,0.2,0.6,0.1,0.9,0.1c0.6-0.1,1.3,0.1,1.8,0.4c0.4,0.3,0.5,0.9,1,1.1c0.7,0.3,1.7,0.6,2.2-0.2
		c0.5-0.8-0.7-1.3-0.7-2c0-0.6-0.1-1.3-0.1-1.9c0.2-0.8-0.4-1.4-0.4-2.1l0,0c-0.3-0.5-0.4-1.1-0.4-1.7s-0.4-0.7-0.8-1.1l-0.1-0.3
		c-0.1-1,0-2-0.6-2.9c0-0.1-0.1-0.2-0.2-0.3c-0.5-0.7-0.7-1.5-1.1-2.2c-0.3-0.6-0.2-1.2-0.2-1.9c-0.1-0.5-0.4-0.9-0.6-1.3
		c-0.3-0.9-0.5-1.9-0.9-2.8c-0.3-0.3-0.8-0.5-1-0.9c-0.1-0.2-0.1-0.5-0.2-0.7c-0.1-0.9-0.7-1.7-1.1-2.6c-0.4-0.6-0.2-1.3-0.2-2
		c-0.1-0.3-0.3-0.5-0.4-0.8c0.1-0.2,0.3-0.3,0.4-0.5c-0.4-0.5-0.4-1.2-0.6-1.8c-0.3-0.9-0.5-1.7-0.6-2.7c0.1-0.5,0.5-0.8,0.6-1.3
		c-0.2-0.5-0.6-0.9-0.8-1.3c-0.4-1.1,0.4-2.4,1.6-2.5c0.4,0.2,0.6,0.6,1,0.9c0.5,0.3,1.1,0.1,1.5-0.2c0.2-0.6,0.2-1.2,0.4-1.8
		c0.6,0,1.2,0.1,1.7-0.2l1.4-1.2c0.6-0.1,1.2-0.1,1.7-0.3c0.3-0.3,0.5-0.7,0.9-1c0.2-0.2,0.5-0.2,0.8-0.2c0.6-0.1,1-0.5,1.4-0.8
		c-0.1,10,0,20,0,30.1c-1.9,0-3.9,0-5.8,0c0,0.1,0.1,0.2,0.2,0.3c2,0,3.9,0,5.9,0c0-10.2,0-20.4,0-30.5c0.2-0.2,0.4-0.5,0.6-0.8l0,0
		c0.4,0,0.8,0,1,0.3c0.7,0.8,0.8,1.9,0.9,2.9c0,5.7,0,11.3,0,17c0,0.4,0,0.9,0.1,1.3c-0.2-0.3-0.6-0.5-0.9-0.7
		c-0.1,0.3-0.3,0.6-0.4,0.9c0.3,0.2,0.6,0.5,1,0.4l0,0l0,0l0.3-0.1c0,2,0,4,0,6.1c0,1.2,0.5,2.4,1.5,3.1c0.3,0.2,0.8,0.1,1.2,0.1
		c8.1-0.1,16.1-0.1,24.2-0.2c0.2-3.9,0.4-7.7,0.6-11.6l0,0c0-1.6,0.2-3.3,0.2-4.9c1.8,0,3.6,0,5.4,0c0.6,5.5,1.2,10.9,1.8,16.4
		c4.2,0.1,8.4,0,12.7,0C220.3,94,218.8,82,217.3,70z M93.7,72.5L93.7,72.5c0.3-0.6,0-1.2,0.1-1.8c0.2,0,0.4,0,0.7,0
		c0,0.2,0.1,0.5,0.1,0.7l0,0c0.4,3.3,0.9,6.7,1.3,10c-1,0-2,0-3,0c0.2-2.6,0.5-5.2,0.7-7.8C93.5,73.3,93.6,72.8,93.7,72.5z
		 M108.7,86.9c0.8,6.3,1.6,12.6,2.4,18.8c-4,0-8.1,0-12.1,0c-0.2-1.9-0.4-3.8-0.7-5.7l0,0c0-0.1,0-0.2,0-0.3c0.4-0.6,1-0.9,1.7-1.2
		c0.8-0.4,1.6-1,2.4-1.4c0.3-0.1,0.7-0.2,1-0.3c0.3,0,0.6-0.2,0.8-0.4c0.7-0.6,1.3-1.2,1.8-1.9c0.2-0.4,0.6-0.4,0.9-0.5
		c0.1-0.5,0.3-0.9,0.1-1.4c-0.3-0.7-0.1-1.6-0.4-2.3l0,0c-0.3-0.8,0.6-1.3,0.5-2c0-0.4-0.1-0.8-0.1-1.3
		C107.5,86.9,108.1,86.9,108.7,86.9z M113.2,63.4L113.2,63.4c0.3-0.2,0.7-0.3,1-0.2c0.4,0.1,0.6,0.6,0.5,1.1
		c-0.1,0.7-0.9,1.1-1.2,1.8c-0.2,0.5-0.3,1.1-0.9,1.2c-0.1,0-0.2,0-0.3,0c-0.3,0-0.6,0-0.8,0.2c-0.4,0.4-0.7,1-1.2,1.4
		c-0.7,0.5-1.2,1.2-1.9,1.8c-0.2,0.1-0.4,0.2-0.6,0.3c-0.6,0.1-1.3,0.1-1.9,0.1c-0.1,0.3-0.1,0.6-0.1,1c-0.5,0-1-0.1-1.5-0.2
		c-0.4-0.2-0.5-0.8-0.9-1c-0.6-0.6-1.6-0.5-2.3-0.1c-0.6,0.5-1,1.2-1.4,1.8c-0.5,0.6,0.3,1.3-0.1,2c-0.4,0.6-0.6,1.2-0.7,1.9
		c-0.2,0.3-0.5,0.6-0.6,1c-0.1,0.5,0.1,1.1-0.2,1.6c-0.3,0.7-0.9,1.3-1.4,2c-0.7,0.8-0.8,1.8-1.3,2.7c-0.4,0.8-0.5,1.7-0.9,2.5
		c-0.5,1-0.4,2.1-0.6,3.1c0,0.1,0,0.2,0,0.3c0,0.1,0,0.4,0,0.5c0.1,0.3-0.1,1.3-0.9,2.2c-0.9,0.9-0.1,1.3-0.4,2.3s-1.4,1.1-1.4,1.1
		l-0.2,0c0.1-2.1,0.3-4.2,0.5-6.3c0.8,0,1.7,0,2.5,0c0-0.1,0-0.2,0-0.3c-0.9,0-1.9,0-2.8,0c-0.2,2-0.3,4.1-0.5,6.1l0,0
		c0,0.3,0,0.6-0.1,0.9c-0.4,0.4-0.8,0.9-1.4,1.2c-0.3,0.2-0.6,0.3-0.7,0.6c-0.3,0.8-0.5,1.6-0.9,2.3c-0.4,0.3-0.9,0.4-1.2,0.7
		c-0.3,0.3-0.6,0.6-0.9,0.9l-0.2,0.1c-0.8,0.2-1.1,0.7-1.7,1.1c0.1-0.4,0.2-0.7,0.4-1.1c-0.1,0-0.4,0-0.6,0c-0.4,0.5-1,0.9-1.6,1
		c-0.4,0.1-0.6,0.3-0.8,0.6l-0.1,0.1c-0.5,0.6-0.2,1.3,0.1,1.9l0,0c-0.9,0-1.8,0-2.8,0c1.6-11.1,3.1-22.1,4.6-33.2
		c0.2-0.1,0.4-0.2,0.5-0.3l0,0c0.7-0.4,1.5-0.8,2.3-0.4c0.6,0.2,0.9,0.8,1.4,1.1c0.6,0.3,1.2,0,1.8,0.2l0.2,0.1
		c0.6,0.5,1.4,0.8,2.2,1.1c0.4,0,0.8-0.1,1-0.4c0.1-0.4,0-0.9,0.1-1.3c0.2-0.1,0.4-0.1,0.6-0.1c-0.4,3-0.6,6.1-0.8,9.2
		c1.2,0,2.4,0,3.6,0c-0.4-3.6-1-7.2-1.4-10.8l0.1-0.1c0.1,0,0.3,0.1,0.4,0.1l0.1,0.1c0.3,0.2,0.5,0.3,0.8,0.5
		c0.3-0.9,0.4-1.9,0.4-2.9c0.8-0.3,1.7-0.4,2.5-0.6c0.1-0.5,0.1-1,0.6-1.3c0.7-0.6,1.6-0.1,2.3,0.1c0.6,0.3,1.4,0.2,2,0
		c0.4-0.2,0.6-0.8,1.1-0.7c0.1,0.1,0.3,0.4,0.4,0.5l0,0c0.1,0.1,0.1,0.2,0.2,0.2c0.2-0.2,0.3-0.5,0.5-0.7c0.2,1.6,0.4,3.1,0.6,4.7
		c-0.2,0.1-0.4,0.2-0.5,0.3c0.6,0,1.3,0,1.9-0.1c-0.4,0-0.7,0-1.1,0v-0.2c-0.2-2-0.5-4-0.8-6l0,0v-0.2l0.2,0.1
		c0.3,0.2,0.6,0.6,0.9,0.7c0.4,0,0.7-0.1,1.1-0.3c0.5-0.3,0.5-1.2,1.2-1.2c0.9,0.3,1.9,0.6,2.9,0.5c0,1,0,1.9,0,2.9
		c0.1,0,0.2,0,0.3,0c0-1,0-2.1,0-3.1C112.9,63.9,113,63.6,113.2,63.4z M144.9,82.6c-0.4,0.1-0.8,0-1.2,0c-0.4,0.1-0.7,0.3-1.1,0.6
		c0-1.5,0-3,0-4.5l-0.2,0.1c0,1.5,0,3,0,4.6l0,0c-0.1,0.4-0.1,0.8-0.3,1.1c-0.8,0.7-1.9,0.9-2.8,1.5c-1,0.5-1.9,1.3-2.8,2l0,0
		c-0.1,0-0.2-0.1-0.3-0.1c-1.3-5-2.9-9.9-4.2-14.9c0.5-1.7,1.1-3.3,1.7-5c1-3,2-5.9,3.1-8.9c0.2,0.6-0.1,1.3,0.3,1.8
		c0.2,0.4,0.4,0.8,0.5,1.2c0.1,0.7,0.8,1.1,1,1.8c0,0.4-0.2,0.7-0.4,1l0,0c-0.5,0.1-1,0-1.4,0.3c-0.3,0.5-0.6,1-0.9,1.5
		c-0.6,0.7-0.8,1.7-1.4,2.4c-0.3,0.4-0.7,0.8-1,1.3c-0.3,0.7-0.4,1.4-0.2,2.1c0.1,1.1,1,1.8,1.5,2.7v0.2c-0.1,0.3-0.1,0.7-0.2,1
		c0.6,0.8,1.5,1.1,2.2,1.7c0.7,0.5,1.3-0.2,1.8-0.6l0.1,0.1c0.3,0.3,0.5,0.7,0.9,0.9c0.6,0.1,1.1-0.3,1.7,0c0.4,0.2,0.9,0.3,1.3,0.3
		l0.2-0.1c0.6-0.4,1.2-0.7,1.9-0.7l0,0c0.1,0,0.3,0.1,0.4,0.2c0,0.7,0.2,1.3,0.6,1.9c0.3,0.6,1,1,1.5,1.4
		C146.5,81.9,145.7,82.3,144.9,82.6z M156.9,74.7c-0.1-0.1-0.2-0.2-0.3-0.4c0-0.8-0.1-1.5,0.1-2.3c0.1-0.2,0.1-0.6,0.3-0.6
		s0.5,0.1,0.7,0.1c0.4-0.1,0.8-0.1,1.2-0.2c0,1.1,0,2.2,0,3.4C158.2,74.8,157.5,74.9,156.9,74.7z M194.5,64.1
		c-0.5-0.1-1-0.4-1.5-0.1c-1.2,0.6-2,1.7-3,2.6c-0.8,0.4-1.7,0.6-2.5,0.6c0.5-1.5,0.8-3.2,0.7-4.8c-0.1-1.4-0.1-2.8-0.1-4.2h0.1
		c0.3,0.3,0.5,0.7,0.9,0.9c0.4,0.1,0.7,0.1,1.1,0.2c0.5,0,0.9-0.1,1.4,0.1c0.4,0.2,0.7,0.5,1,0.7c0.9-0.2,1.7-0.7,2.6-0.6
		C194.9,61,194.7,62.5,194.5,64.1L194.5,64.1z M197.8,62L197.8,62c-0.6,0.2-1.3,0.1-1.9-0.1c0,0.5,0.5,1.2,0,1.6l0,0
		c-0.3,0.2-0.5,0.4-0.8,0.6l0,0c-0.1-0.1-0.2-0.2-0.3-0.3c0.1-1.5,0.4-3,0.6-4.5l0,0c0.4,0,0.9-0.2,1.2-0.5c0.5-0.4,1-0.5,1.6-0.6
		s1.1,0.6,1.8,0.3s1.5-0.5,2.3-0.6c0.6-0.1,0.9-0.6,1.4-0.9c0.6-0.4,1.2-0.6,1.9-0.8c0.9-0.4,1.8-1,2.4-1.7l0,0
		c0.2-0.2,0.3-0.3,0.5-0.5h0.1c0.2,0,0.3-0.1,0.4-0.1l0,0c0.5-0.1,1-0.4,1-1c-0.2-0.1-0.4-0.1-0.6-0.2c-0.3-0.1-0.6-0.2-0.9-0.2
		c0-0.4-0.1-0.8,0.1-1.1c0.5-0.7,1.1-1.6,0.6-2.5c0.1-0.1,0.2-0.3,0.3-0.4c-0.2-0.2-0.4-0.3-0.6-0.5l0,0c0,0,0-0.1,0-0.2
		c0.2-0.3,0.4-0.6,0.6-0.9c0.1-0.5-0.3-1.1-0.8-1.3c-0.6,0-1.2,0.4-1.8,0.6c-0.1-0.1-0.3-0.1-0.4-0.2c0,0.1-0.1,0.3-0.1,0.4
		c-0.5,0-1.1,0.1-1.5-0.3c-0.3-0.2-0.7-0.7-1.2-0.5c-1,0.4-2.2,0.9-3.1,0.3c-0.5-0.3-1-0.7-1.6-0.6c-0.5,0.2-0.8,0.9-1.4,0.9
		c0,0-0.1-0.1-0.2-0.2l0,0c0.2-1.2,0.4-2.5,0.5-3.7c5.3,0,10.6,0,15.8,0c0.3,1.5,0.4,3,0.6,4.5c0.5,4.1,1.1,8.1,1.5,12.2h0.1
		c0.1-0.2,0.1-0.4,0.1-0.6c0.2,0.1,0.4,0.1,0.6,0.2l0,0c0,0.1,0.1,0.3,0.2,0.4c-0.4,0.2-0.8,0.3-1.2,0.3c0,0,0-0.1,0-0.2
		c0-0.1,0-0.2-0.1-0.2c-1-0.3-1.9-1.1-3-1.2c-0.2,0.5-0.5,0.9-0.9,1.3l0,0c-0.4,0-0.9,0-1.3-0.1c-0.5-0.1-0.8-0.5-1.2-0.7
		c-0.7,0-1.2,0.5-1.9,0.7c-0.8,0.2-1.7,0.3-2.5,0.5l-0.1,0.1c-0.2,0.2-0.5,0.2-0.7,0c-0.2-0.1-0.5-0.3-0.7-0.4
		c0,0.1-0.1,0.4-0.2,0.5c-0.1,0.2-0.2,0.4-0.2,0.7c-0.3-0.1-0.6-0.2-1-0.3c-0.6-0.3-1.3,0.1-1.9,0.1c-0.5,0-1-0.1-1.5-0.1
		c0.1,0.5,0.2,1.1,0,1.7l0,0C198.1,62,198,62,197.8,62z M205.9,78.5c0.1,1,0.3,1.9,0.4,2.9c-1,0-2,0-3,0c0-0.5,0.1-0.9,0.1-1.4l0,0
		c0.4-0.2,0.9-0.2,1.4-0.4C205.2,79.3,205.6,78.9,205.9,78.5L205.9,78.5z M188,103.7c-0.4-1.6-0.4-3.3-0.4-5s0-3.4,0-5.1l0,0
		c0.4,0,0.7,0,1.1-0.1c0.6-0.6,1-1.5,1.9-1.6c-0.7,4.6-1.3,9.3-2,13.9C188.4,105.1,188.2,104.4,188,103.7z M209.4,105.7
		c-0.7-5.5-1.2-11-1.8-16.5c-2,0-3.9,0-5.9,0c-0.1,1.3-0.1,2.7-0.2,4c0,0.1,0,0.2,0,0.4c-0.2,3.7-0.4,8.4-0.6,12.1c-4,0-8,0-12,0
		c0.7-4.6,1.3-9.2,1.9-13.9l0,0c0.5,0,0.9-0.1,1.3-0.4c0.5-0.3,0.9-0.9,1.6-0.8c1,0.1,2-0.1,2.9-0.6c0.4-0.5,0.2-1.2,0.5-1.7l0,0
		c0.3-0.2,0.5-0.4,0.8-0.6c0.1,0.1,0.2,0.2,0.3,0.3c0-0.1,0-0.4,0-0.5c0.5-0.8,1.2-1.7,1.5-2.7c0.2-0.7,0.9-1.2,1.3-1.9
		c0.1,0,0.3,0.1,0.4,0.1c-0.1-0.1-0.2-0.2-0.2-0.2c0.3-0.2,0.6-0.4,0.8-0.7c0.2-0.4,0.2-0.9,0.3-1.3l0,0c0.2-0.3,0.5-0.5,0.8-0.7
		c0,0.5-0.1,1-0.1,1.5c1.2,0,2.4,0,3.6,0c-0.1-1-0.2-2-0.4-3c-0.1-1.4,1.1-2.5,2.3-2.8l0,0l0,0c0.4-0.1,0.8-0.2,1.1-0.5
		c0.4-0.3,0.9-0.6,1.1-1.1c0.2-0.4,0.4-0.8,0.8-1.1c0.6-0.4,0.9-1.1,1.6-1.5c0.3-0.4,0.4-0.9,0.8-1.3c0.3,0,0.5,0.1,0.7,0.1
		c0.4,0.1,0.8,0,1.1,0c0.5,0,0.7-0.6,1.2-0.6c1.4,11.9,3,23.8,4.5,35.7C217.5,105.7,213.5,105.7,209.4,105.7z"/>
	<path d="M161.7,73.6c-0.7,0.2-1.1,0.8-1.6,1.3c0.1,0,0.2,0.1,0.3,0.2c0.1-0.2,0.2-0.3,0.3-0.5c1.9-0.9,3.8-1.6,5.6-2.7
		c-0.9,0.2-1.7,0.7-2.6,1C163,73.1,162.3,73.4,161.7,73.6z"/>
	<path d="M89.1,109.7c-0.1-0.1-0.3-0.2-0.4-0.3c-0.1,0.1-0.2,0.3-0.3,0.4c0.1,0.1,0.3,0.3,0.4,0.4C89,110.1,89,109.9,89.1,109.7z"/>
	<path d="M196.9,60.8c-0.2,0.7,1.3,0.8,1.1,0C197.9,60.4,197.2,60.5,196.9,60.8z"/>
	<path d="M183.6,92.1c0-0.3,0-0.5,0-0.8c-0.2,0.1-0.3,0.2-0.5,0.3c-0.3,0-0.5,0-0.8,0.1c-0.2,0.3-0.3,0.6-0.6,0.9
		C182.4,93,183.2,92.7,183.6,92.1z"/>
	<path d="M179.6,94.3c0-0.1,0-0.2,0-0.3c-0.4-0.5-0.9,0.1-1.3,0.3c0,0.1,0,0.2,0,0.3C178.7,94.8,179.2,94.5,179.6,94.3z"/>
	<path d="M169.2,74.4c0.7-1.1,1.9-1.8,2.9-2.5c0.8-0.6,1.8-0.7,2.5-1.3c0.4-0.3,0.5-0.7,0.5-1.2c-1.5,0.1-2.5,1.5-3.8,2.1
		c-1,0.4-1.4,1.6-2.6,1.5C168.8,73.5,168.6,74.2,169.2,74.4z"/>
	<path d="M174.5,62.5c0-4,0-8,0-12c-0.1-1.1-0.3-2.3-1-3.2c-0.4-0.6-1.2-0.8-1.9-0.8c0,6.5,0,13.1,0,19.6
		C173.1,65.5,174.5,64.2,174.5,62.5z M171.9,65.7c0-6.3,0-12.6,0-18.9c0.5,0.1,1,0.2,1.4,0.6c0.7,0.9,1,2,1,3.1c0,4,0,8,0,12
		C174.2,64,173.1,65.1,171.9,65.7z"/>
	<path d="M170.4,70.3c-0.3,0-0.5,0.2-0.7,0.3c-0.2,0.1-0.3,0.1-0.5,0.2c-0.4,0.2-0.9,0.4-1.3,0.7c-0.1,0.2-0.2,0.4-0.3,0.6
		c0.4,0,0.9,0,1.3-0.2c0.2-0.1,0.4-0.2,0.6-0.4l0,0C169.9,71.1,170.2,70.7,170.4,70.3z"/>
	<path d="M90.2,109.3c-0.1,0.4,0.1,0.7,0.4,0.9c0.3-0.2,0.6-0.4,0.8-0.7C91.1,109.1,90.7,109.2,90.2,109.3z"/>
	<path d="M89.1,111.3c-0.2,0.1-0.4,0.2-0.6,0.4c-0.4,0.3-0.3,0.9-0.1,1.4c0.6-0.7,1.4-1.2,1.9-2C89.9,110.7,89.4,110.9,89.1,111.3z"
		/>
	<path d="M89.1,92.6c-0.3,0.2-0.2,0.6-0.1,0.8c0.6,0.2,0.8-0.3,1.1-0.7C89.8,92.6,89.4,92.4,89.1,92.6z"/>
	<path d="M85.4,96.6c-0.2,0.5-0.5,1-0.5,1.5c0.1,0,0.2,0.1,0.2,0.1c0.6-0.4,0.9-1.1,1.3-1.7c0.1-0.5,0.3-1,0.2-1.5
		C86,95.3,85.7,96,85.4,96.6z"/>
	<path d="M86.3,94.1c-0.2-0.4-0.5-0.7-0.9-0.6c-0.1,0.3,0,0.6,0.1,0.9C85.7,94.4,86,94.3,86.3,94.1z"/>
	<path d="M84.2,99.7c-0.2,0.3-0.2,0.7-0.3,1.1c0.2,0.1,0.3,0.2,0.5,0.3c0.2-0.2,0.5-0.4,0.6-0.7c0-0.3,0-0.5,0-0.8
		C84.7,99.6,84.4,99.5,84.2,99.7z"/>
	<path d="M83.1,97.3c-0.3,0.4,0.1,0.7,0.3,0.9c0.4-0.3,0.6-0.8,0.7-1.3C83.9,96.3,83.3,96.8,83.1,97.3z"/>
</g>
</svg>
