<?xml version="1.0" encoding="utf-8"?>
<!-- Generator: Adobe Illustrator 26.0.3, SVG Export Plug-In . SVG Version: 6.00 Build 0)  -->
<svg version="1.0" id="Слой_1" xmlns="http://www.w3.org/2000/svg" xmlns:xlink="http://www.w3.org/1999/xlink" x="0px" y="0px"
	 viewBox="0 0 239.5 150.2" style="enable-background:new 0 0 239.5 150.2;" xml:space="preserve">
<g>
	<g>
		<path d="M184.1,17.7c3-2.2,5.7-5,9.3-6.1c-0.2,2.1-0.6,4.2-0.5,6.3c1.1-0.6,2.3-1.1,3.4-1.5c-0.6,1.2-1.3,2.3-2.1,3.4
			c3.1,0,6.3-0.4,9.4-0.4c-0.9,1.6-2.2,2.8-3.2,4.2l0.1,0.4c1.8,1.2,3.9,1.8,5.9,2.6c-0.7,1.7-2.8,1.8-3.9,3
			c1.7,1.2,3.3,2.6,4.4,4.3c-1.7,0.2-3.5,0.1-5.1,0.6c0.9,1,1.7,2,2.4,3.1c-0.2-0.1-0.6-0.2-0.8-0.3c-0.7-1.1-1.8-2-2.4-3.2
			c1.5-0.8,3.2-0.6,4.8-1c-1.4-1.3-3-2.4-4.2-3.9c1.1-1,2.4-1.6,3.6-2.4c-1.9-1.1-4.3-1.3-5.7-3.2c0.7-1.4,2-2.5,3-3.8
			c-3.1,0.2-6.2,0.5-9.3,0.4c0.6-0.9,1.2-1.9,1.8-2.9c-0.9,0.4-1.8,0.8-2.8,1.1c-0.1-2.1-0.1-4.3,0.4-6.3c-3.2,1.7-6,4.1-8.8,6.4
			c-0.8-1.8-0.2-3.8-0.5-5.6c-1.9,1.5-3.7,3.1-5.4,4.8c-1.4,1.3-2.2,3.1-3.7,4.3c-0.8-2-1-4.1-1.4-6.2c-2.8,3.9-4,8.6-5.3,13.1
			c-1.6-0.4-2.9-1.5-4.1-2.6c0.7,2.4,2,4.6,2.7,7c-1,1.3-2,2.6-3,3.9c0.6-0.2,1.7-0.7,2.3-0.9c0,1.7-0.5,3.4-0.7,5.1
			c0.7-0.8,1.6-1.6,1.5-2.8c0-1.3,0.3-2.6,0.5-3.8c0.2,0,0.5,0,0.6,0c-0.7,3.5-0.1,7-0.7,10.5c0.2,0,0.5,0,0.7,0
			c0.3-1.9,0.9-3.7,1.5-5.5c0.5-1.9-0.6-3.8-0.2-5.7c0.9,1.8,0.8,3.8,1.2,5.7c0.4,1.3,0.8,2.6,1.1,3.9c0.1,0,0.4,0,0.6-0.1
			c-0.6-3.4-0.5-6.9-0.7-10.3c4-2.5,8.7-3.7,13.4-3.8c1.7-0.1,3.4,0.1,5.1,0.1c1.7,3.4,3.4,6.7,5.1,10.1c0-2.8-0.6-5.6-1.2-8.4
			c1,0.7,1.3,2.1,2.1,3c1.2,1.6,2.1,3.5,3.6,4.9c-0.5-2.1-1.1-4.2-1.9-6.1c-0.4-1.1-1-2.1-1.1-3.3c0.5,0.7,0.9,1.5,1.4,2.2
			c1.2,1.2,2.7,2,3.6,3.4c0.2,0.9-0.3,1.8-0.4,2.7c1.2,0.1,2.6-0.6,3.7,0.2c-1.3,0.2-2.6,0.2-3.8,0.5c0.2,0.6,0.4,1.1,0.6,1.7
			c0.5,0.4,1.2,0.6,1.6,1.1c2.1-1.4,4.7-2.4,6.4-4.3c2.1-2.3,3.4-5.1,5.1-7.6c1.1-1.6,2.3-3.2,3.5-4.8v0.2c1-1.1,2.2-2.1,3.3-3.1
			c1.4-1.3,3.2-1.9,4.8-2.9c1.2-0.7,2.4-1.5,3.8-1.9c1.6-0.4,3.1,0.3,4.6,0.5c0.2,0.2,0.3,0.4,0.5,0.5c-5.1,1.3-9.9,3.6-14.5,6.2
			c-1.4,0.8-2.9,1.7-3.5,3.3c-1.5,3.7-2.7,7.6-5.2,10.8c-2,2.2-4.9,3.4-7.7,4.2l-0.1,0.6c1.6-0.1,3.2-0.2,4.8-0.7
			c4.7-1.7,9.5-3.3,13.7-6c5.3-3.7,10.7-7.6,17-9.6c0,1.1,0,2.3,0,3.4C230,35,221,40,211.3,43.1c-2.7,1-5.5,0.2-8.2,0.9
			c0.2,1.3,0.1,2.6-0.2,3.8c0.5,0.7,1.2,1.4,1.7,2.1c-0.3,0-0.8,0.1-1,0.1c0.3-0.7-0.8-2-1.3-1.3c0.1,0.8,0.8,1.1,1.3,1.6
			c2.8,0.1,5.7,0.7,8.5,1.2c4.6,0.8,9.1,2.4,12.9,5.3c4.3,3.8,7.8,8.4,10.8,13.3c1.1,2.2,3,4.1,3.6,6.5c-2.5-2-3.4-5.2-5.1-7.7
			c-1.3,1.6-2.9,2.9-4.3,4.3c-1,1-1,2.5-1.3,3.8c-0.6,2.5-1.1,5.1-1.7,7.6c-0.2,0.9-0.1,1.9,0,2.8c0.2,1.9,0.1,3.7,0.2,5.6
			c0.8-0.3,1.6-0.6,2.2-1.2c2.3-2.4,4.4-5.1,6.9-7.4c0.4,0,0.8,0,1.1,0.1c0.1,0.1,0.4,0.3,0.5,0.4c-1.8,2-3.8,3.9-5.9,5.5
			c-1.9,1.2-3,3.2-4.7,4.7c-0.5,2.7-0.6,5.4-0.6,8.1c4.3-0.8,8.5-2.2,12.6-3.7c0.4,3.2,0.1,6.4,0.2,9.6c-1.9,0.1-3.7,0.3-5.5,0.9
			c1.8,0.5,3.8-1.1,5.4,0.1c-1.5,0.1-3,0.4-4.5,0.7c-1.1,0.2-2.3-0.4-3.3,0.4c-3.4-2.5-6.8-4.9-10.5-6.8c-2.9-1.2-5.7-2.6-8.2-4.4
			c-0.2,0-0.7,0.1-1,0.2c0-0.2,0-0.5,0-0.7c-2.3-1.1-5-1.5-7.4-0.8c-0.2,0.1-0.6,0.4-0.8,0.5c-0.7,0.1-1.3,0.1-2,0.1
			c-0.4,0.3-0.7,0.6-1.1,1c0.3,0.2,0.7,0.6,1,0.8c-0.2,0.2-0.7,0.5-0.9,0.6c-0.6,2-1,4.2,0.1,6.2c0.1-0.5,0.3-1,0.4-1.5
			c1.7,0,1,2,1.1,3.1c-0.1,0.1-0.3,0.4-0.4,0.6c0.1,0.1,0.3,0.3,0.4,0.4c-0.8,1-0.9,2.2-1,3.4c-0.2,0.1-0.5,0.3-0.7,0.4l-0.1,0.7
			c0.3,0,0.9,0,1.2,0.1c0.2,2.3,0.2,4.6,0,6.9c-0.8,2.3-0.7,4.8-1.1,7.2c0,5.5-0.8,10.9-0.2,16.4c0.1,1,0.1,2.1,0.1,3.1
			c2.6-1.1,4.8-3,7.5-4.1c2.6-0.8,5.3-1.1,8-1.1c1.5-0.2,3.1-0.2,4.6-0.1c0-0.3-0.1-1-0.1-1.4c-0.1-3.6-1.2-7-1.6-10.6
			c1.4,1.7,1,4.2,2.1,6.1c0.5,1.9,0.3,3.9,0.8,5.8c0.2,0.1,0.7,0.2,0.9,0.2c-0.3-1.5-0.8-3-1-4.6l-0.3,0.1c0-0.7-0.1-1.5-0.3-2.2
			c-0.4-1.9-0.9-3.8-1.2-5.7c0.5-3.5,0.7-7.1,0.2-10.6c-0.3-1.3-0.4-2.6-0.4-3.8c-1.9-2.9-4.7-5-6.5-7.9c-0.8-1.2-1.7-2.4-2-3.8
			c0.4,0.3,0.8,0.6,1,1c1,1.8,2,3.7,3.5,5.1s2.6,3.2,4,4.7c0-0.4,0.1-1.3,0.1-1.7c0.2,0.4,0.3,0.8,0.5,1.1c-1,0.5-0.3,1.1,0.3,1.6
			c-0.8,2,0.5,3.9,1.9,5.2c4.7,4.3,10.5,7.4,16.6,9.2c0,3.5-0.1,7,0.1,10.5c0,0.5-0.3,1-0.5,1.4c-0.9,0-1.8,0-2.7,0
			c0,1.1,0.1,2.2,0,3.3c-0.6,0.8-1.3,1.4-2,2.1c0.2,0.4,0.4,0.9,0.6,1.3c-2.7,0.1-5.3-0.4-8-0.2c-2.4,0.3-4.9,0.1-7.3,0.2
			c-0.7-1.9-0.3-4-0.8-5.9c-3,0.4-6.1,0.6-9.1,0.9c-0.6,0.3-1.3,0.6-2,0.8c-0.9,0.5-1.7,1.1-2.6,1.6c0.3,0.7,0.6,1.4,0.8,2.1
			c0,0.2-0.1,0.7-0.1,1c-2,0.1-4,0.2-5.8-0.5c-0.8-5.9-1.2-11.8-1.6-17.7c-2.2-1.4-4.7-2.1-6.7-3.8c-0.4,2.4-2,4.4-3.3,6.3
			c-0.7,1.3-0.9,2.7-0.9,4.2c1.3-1.1,2.1-2.8,3.8-3.4c0.3,0.1,0.8,0.4,1.1,0.5c-0.3,2.1-1.3,4.2-2.5,5.9c-1.5,1.6-2.6,3.7-4.8,4.6
			c-0.2,1.1-0.4,2.2-0.6,3.3c-2.5-0.2-5.1-0.2-7.6-0.2c0.2-1.3,0.8-2.5,0.5-3.8c-0.3-1.4-0.5-2.9-0.5-4.4c0.1,0.1,0.3,0.3,0.4,0.4
			c0,0.9,0.7,1.3,1.5,0.8c0.4,1.5,1.4,2.8,2.4,3.9c1.1-0.2,2.2-0.4,3.2-0.8c-0.3-0.2-0.9-0.6-1.2-0.8c-0.4,0.2-0.7,0.5-1.1,0.7
			c0.2-0.4,0.3-0.8,0.5-1.2c-1.4-1.7-3-3.3-4.2-5.2c1,0.4,1.5,1.3,2.2,2.1c1.3,1.7,2.8,3.2,4.6,4.2c1.2-0.3,2.7-1.6,2.1-3
			c1.1,0.5,1.6-0.7,2.1-1.5c0.7-1.6,2.5-3.2,1.9-5.1c-1.4,0.9-2.1,2.4-3.6,3.2c0.4,0.6,0.8,1.2,1.1,1.8c-0.8-0.1-1.1-0.9-1.5-1.5
			c-0.5-1-1.2-1.8-1.9-2.7c0.4,0.2,0.8,0.4,1.3,0.6c0.3-3.9,4.3-6.3,4.2-10.3c1.1-0.5,2.2-1,3.3-1.4c-1.4-1.7-3-3.2-4.6-4.8
			c-0.3,0.2-0.9,0.5-1.2,0.7c-1.5,1.1-3.4,1.8-4.6,3.3c-2.8,3.9-4.8,8.4-7.9,12c0.1,0.5,0.1,1,0.2,1.6c1.2,1,2.2,2.4,2.1,4
			c-0.3-0.5-0.5-1-0.8-1.5c-1.1-0.9-1.6-2.2-2.3-3.3c-0.5-0.3-1.1-0.4-1.7-0.6c-3.7-0.8-7.5-1.5-11.2-1.9c-3.8-0.1-7.6-0.7-11.5-0.4
			c-0.1,0.1-0.4,0.4-0.6,0.5c-0.8,4.9-1.7,9.9-2.6,14.8c-1.2,0-2.5,0-3.7,0c-0.4-4.7-0.1-9.5-0.2-14.3c0.1-3.1-0.2-6.2,0.2-9.2
			c0.4-2.5-0.1-5.1,0.3-7.6c0.3-1.4-0.1-2.9,0.4-4.3c0.8-2.3,0.5-5.1,2.1-7.1c0.7-0.4,1.5-0.6,2.3-0.8c0.3-1,0.6-2.1,0.9-3.2
			c0.6-1.4,1.9-2.4,3-3.4c0.8-0.7,0.8-1.7,1.1-2.6c0.3-0.1,0.7-0.3,1-0.4c0-0.8-0.1-1.6,0.1-2.4c0.7-0.9,1.8-1.4,2.3-2.4
			c0.6,0,1.2,0,1.9,0c0.4-1.2,0.9-2.3,1.7-3.2c-0.3-1.6-1-3.6,0.2-5c1.4-1.6,3.3-2.4,5.2-3.3c0.4-2,0.1-4.1,0.6-6.1
			c0.3-1.4,1.7-1.9,2.9-2.3c0.9-2.2,1.4-4.7,2.8-6.7c0.9-1.5,2.2-2.7,3.6-3.8c-0.9-1.2-1.5-2.6-2.6-3.6c-0.8-0.7-1.4-1.6-2-2.4
			c1,0.2,1.3,1.3,2.2,1.7c-0.3-0.7-0.7-1.4-1.1-2c-0.4,0-0.8-0.1-1.2-0.1c-0.2-0.6-0.5-1.2-0.8-1.8l0.6,0.1v-0.2l-0.9,0.1
			c0.2-0.6,0.4-1.1,0.6-1.7l-0.5,0.2c-0.4-1.5-1.8-2.7-1.3-4.3c-0.6-1.1-0.5-2.3-0.4-3.5c-0.1,0-0.3,0-0.4,0
			c-0.3,1.5-0.8,2.9-1.1,4.4l-0.4-0.5c-0.6-2.4-0.4-4.8-0.5-7.2c-0.6,0.8-1.2,1.6-2,2.1c-0.2-1.9,0.2-3.7,0.6-5.5
			c-0.8,0.4-1.7,0.9-2.4,1.4c-0.2,0-0.5,0.1-0.6,0.1c1.1-1.9,2.5-3.6,3.8-5.4c-0.7-2.7-2.6-5.1-2.6-8c1.5,0.9,2.7,2.3,4.4,2.9
			c0.9-4,2.2-8,4.4-11.5c0.5-0.7,1-1.6,1.9-1.9c0.3,2.1,0.4,4.3,1.1,6.3c2-3,4.6-5.5,7.3-7.8c0.5-0.5,1.1-0.8,1.7-1.1
			C184.4,14.1,184.1,15.9,184.1,17.7z M174.8,36c-1.3,0.5-1.5,2-1.5,3.2c1.5,0.8,3,1.5,4.7,1.9c0.2-1.4,0.1-3,1.1-4.1
			c0.6-0.7,1.6-0.7,2.5-0.8c0.1-0.2,0.4-0.7,0.6-1c0.8,0.8-0.1,1.6-0.7,2.1c-1.4-0.8-2.9,1-2.4,2.4c0.4,0.7,0.9,1.3,1.8,1.3
			c1.3-0.3,2.1-2.3,0.4-2.7c0.1-0.2,0.3-0.4,0.4-0.7c1.1,0.5,1.6,1.7,1.1,2.8c-0.3,1.3-1.9,1.1-2.8,1.2c0.9,1,2.3,0.6,3.4,0.4
			c2.3-0.5,4.6-0.8,6.9-1.1c0.5-1.1,0.3-2.2,0.3-3.4c-0.6,0-1.1-0.3-1.4-0.8c0.3,0,1,0,1.4,0c-0.2-0.6-0.3-1.2-0.5-1.7
			c-0.3,0-0.8,0-1.1,0c0-0.3,0-0.8-0.1-1.1C184.2,33.3,179.2,34,174.8,36z M200.3,41.8c-0.1,0.8-0.2,1.5-0.4,2.2
			c0.1,0.1,0.4,0.3,0.6,0.3c0.3-1.2,0.8-2.2,1.5-3.2C201.4,41.4,200.8,41.6,200.3,41.8z M197.8,42c0.1,2.7,0.6,5.3,0.6,8
			c0.2,0.1,0.5,0.2,0.7,0.2c0.1-2.7,0.6-5.4,0.5-8.2C199,42.1,198.4,42,197.8,42z M192.4,42.5c-1.5,0.1-2.4,1.4-3.7,1.9
			c0.1,0.1,0.3,0.3,0.4,0.4c1.5-1.3,3.5-1.4,5.4-1c0,0.8,0,1.5-0.1,2.3c-0.2-0.5-0.4-1-0.7-1.6c-0.3-0.1-0.9-0.4-1.2-0.5
			c0.2,0.4,0.5,1.3,0.7,1.8c-0.4,0-0.8,0-1.2-0.1c-0.2,1.1-0.9,0.8-1.2-0.1c-0.2,0.2-0.4,0.5-0.6,0.7c0.4,0.4,0.8,0.7,1.3,1
			c0.5-0.4,1-1.2,1.8-0.8c-0.5,0.6-1.1,1.2-1.7,1.9c0.9-0.3,1.8-0.8,2.5-1.4c0,0.3,0.1,0.5,0.1,0.8c-1.6,1.3-3.8,1.4-5.8,1.1
			c0.8-0.7,1.9-0.6,3-0.6c-1.2-0.6-2-1.8-1.7-3.2c-1.1,0.8-1.2,2.3-2.4,3c0.1-0.8,0.4-1.5,0.9-2.1c-0.2-0.2-0.4-0.3-0.5-0.5
			c-0.6,0.8-1.5,1.5-2.5,1.7c-0.8-0.3-1.5-0.9-1.8-1.7c0.6,0.3,1.2,0.7,1.7,1c1-1.2,2.2-2.2,3.3-3.3c-3.6,0.4-7.3,1-10.7,2.1
			c0.5,0.3,1,0.6,1.5,0.8c-0.3,0.2-0.8,0.6-1,0.8c0.3-0.1,0.9-0.4,1.2-0.5c0.5,0.2,1,0.5,1.6,0.7c0,0.2,0.1,0.5,0.1,0.6
			c-0.8,0-1.5,0.1-2.2,0.5c0.4,0.4,0.8,0.9,1.2,1.3c-0.5-0.2-1-0.5-1.5-0.9c0,0.3-0.1,0.8-0.2,1.1l-0.6,0.3c0.2,0.2,0.4,0.3,0.6,0.5
			c0.3-0.1,0.9-0.3,1.2-0.4c-0.6,1-1.8,1.2-2.9,1.6c-1,0.3-2-0.1-2.7-0.9c1,0.1,2,0.4,3,0.6c0.1-0.2,0.4-0.6,0.5-0.8
			c-0.4,0-1.2,0-1.6,0c-1-0.6-0.5-1.9-0.7-2.9c-0.9,0.3-1.8,0.8-1.6,2c-0.2-0.6-1-1.4-0.2-1.9c1.3-0.9,3.3-1.3,4.6-0.2
			c0.3,0.1,1,0.2,1.3,0.2c-0.7-0.4-1.5-0.7-2.2-1c0-0.1,0.1-0.2,0.2-0.3c0.2-0.1,0.6-0.2,0.8-0.3c-0.4-0.3-0.9-0.6-1.4-0.9
			c-0.1,0.1-0.2,0.4-0.3,0.6c-1.7-0.2-3.3,0.7-5,1.1c-0.1,0.2-0.2,0.7-0.3,1h-0.2c-0.2-0.2-0.5-0.5-0.7-0.7
			c-0.3,0.8-0.9,1.6-0.6,2.5c0.1-0.3,0.4-1,0.5-1.4c0.1,0,0.2,0,0.3,0c0.4,1.7,0.9,3.3,1.4,5l0.1-0.4c0-0.3,0.1-0.8,0.2-1.1
			c0.8-0.3,0.5,1,0.6,1.5l-0.1,0.2c0,0.1,0,0.3,0,0.4c1.2-0.1,2.4-0.6,3.6-0.7c-0.9,0.8-2.1,0.9-3.1,1.3c0.3,0.8,0.6,1.6,1,2.3
			c0.6-0.3,1.2-0.5,1.9-0.8c0,0.2,0,0.4,0.1,0.7c-0.6,0.2-1.3,0.5-1.9,0.7c0.6,1.1,1.3,2.2,2,3.3c0.6-0.7,1.1-1.7,2.1-1.7
			c-0.6,0.6-1.3,1.2-2,1.7c1.1,2,3.2,3,5,4.3c1,0.6,2,1.3,3.2,1.7c2.6-0.7,4.9-2.2,7.7-2.3c0.4-0.4,0.9-0.9,1.3-1.3
			c1.2-1.9,2.7-3.7,3.6-5.8c-1.4-0.6-2.9-0.9-4.3-1.5c1.6-0.6,3.1,0.7,4.7,1c0.3-0.6,0.6-1.3,0.9-1.9c0.2,0.2,0.5,0.5,0.7,0.7
			c0.1-0.3,0.2-0.5,0.3-0.8c-0.3,0-0.8,0-1.1,0.1c0.2-0.7,0.3-1.5,0.5-2.2c1.7,0.8,2.3-1.1,2.6-2.4c0.6,0.8,1.3,1.5,2,2.1
			c-0.3-1-0.5-2-0.9-3l-0.4,1c-0.1-0.2-0.2-0.4-0.4-0.6c0.1-0.3,0.2-0.9,0.3-1.1c-0.5,0.1-0.7,0.6-1.1,0.8c0.3-0.7,0.6-1.5,0.8-2.2
			c-0.6-0.4-1.2-0.7-1.8-1c-0.1,1,0.4,1.9,0.7,2.7l-0.9-0.7l-0.1,0.9c0.2-0.1,0.7-0.2,0.9-0.2c-0.1,0.3-0.2,0.9-0.2,1.2l0.3,1
			c-0.3-0.1-0.8-0.4-1-0.5c0.1,0.3,0.3,0.8,0.4,1.1c-0.6-0.2-1.2-0.1-1.7,0.3c0-0.4,0.1-1.2,0.2-1.6c-1.6,0.1-3.2,0.1-4.8,0
			c1.3-0.9,3.1-0.3,4.6-0.3c-0.1-2.7-0.6-5.4-0.6-8.1C195.7,42.1,194.1,42.2,192.4,42.5z M201.7,42c-0.5,1.4-1.2,2.8-1.6,4.2
			c0.9,0.3,1.7,0.7,2.5,1.2C202.6,45.6,203.1,43.4,201.7,42z M175.7,49c0.3,0.5,0.7,0.9,1.1,1.2c0.3-0.2,1-0.5,1.3-0.7
			c-0.3,0-0.8-0.1-1.1-0.2C176.7,49,176.2,48.9,175.7,49z M196.5,60c0.7,0.4,1.4-1,0.7-1.2C196.7,58.9,196.1,59.6,196.5,60z
			 M195.7,60.9c-0.7,1.2-1.9,2.2-2,3.6c0.3-0.4,0.5-0.8,0.7-1.3c0.5-0.4,0.9-0.8,1.4-1.2c0.1-0.4,0.1-0.8,0.2-1.2
			C195.9,60.9,195.7,60.9,195.7,60.9z M190,65.4c0.7,0.9,1.2,1.9,1.8,2.8c1,1.1,2.5,2.1,2.5,3.7c-0.3,0.9-1,1.7-1.4,2.6
			c1.7-1.3,2.6-3.4,4-5c-0.6-0.6-1.1-1.3-1.9-1.7c-1-0.5-2.3-0.8-2.8-1.9C192,64.9,190.7,65.5,190,65.4z M209.7,66.1
			c-3.2,2.6-2.9,8,0.1,10.6c1.3,1.2,3.2,0.8,4.7,0.7c1.2-0.8,2.5-1.6,3.2-3c1.4-2.2,0.1-4.7-0.3-7C216.2,64.5,211.8,64,209.7,66.1z
			 M192.5,65.4c0.5,1.3,1.8,1.5,2.9,2c0.9,0.4,1.4,1.2,2,1.9c0.1-0.3,0.3-1,0.4-1.4C196.2,66.9,194.3,66.2,192.5,65.4z M178.5,69.6
			c-2.1,0.7-2.7,3.1-3.8,4.8c0.4,1.3-0.2,3.2,1.4,3.9c1.3,0.6,2.5,1.7,3.9,1.8c0.8-1.3,1.8-2.4,2.8-3.5c-1.9,0.1-2.8,1.9-4.4,2.6
			c0.3-0.9,1.1-1.5,1.9-2c-0.3-0.4-0.6-0.7-0.9-1.1c1.1,0.4,2.2,0.5,3.3,0c1.1-1.2,2.4-2.3,3.6-3.5c-0.3,0-0.9,0-1.3,0
			c-0.2-0.2-0.4-0.4-0.5-0.6c0.3,0,0.8,0,1.1,0.1c0-0.7,0.1-1.4,0.4-2c0.1,0.6,0.2,1.2,0.2,1.8c0.6,0.7,1.8,1.2,1.9,2.2
			c-0.3,0.9-0.9,1.7-2,1.4c-0.4,0.6-0.7,1.1-1,1.7c1-0.3,2.1-0.3,3.1-0.5c1.1-0.7,2.2-1.4,3.1-2.4c-1.2-2.3-3-4.3-3.3-7
			c1.1,0.7,0.8,2.2,1.6,3.1c0.8,1.6,2.4,2.9,2,4.8c0.7-1.2,1.5-2.2,2.1-3.5c-0.6-1-1.4-2-2.2-2.8c-1-0.9-1.2-2.4-2.3-3.1
			C185.7,67.1,182.1,68.4,178.5,69.6z M198,69.4c-0.8,1.4-2.5,2.2-2.9,3.9c1.5-0.8,2.8-1.8,4-2.9c-0.2-0.3-0.3-0.7-0.5-1
			C198.4,69.4,198.1,69.4,198,69.4z M184.1,75.7c1.1-0.2,2-0.9,3.1-1.1c0.2-0.3,0.4-0.6,0.5-0.8c-0.2-0.2-0.7-0.6-0.9-0.8
			C185.9,73.8,184.8,74.6,184.1,75.7z M185.6,88.2c-1.2,0.9-2.4,1.7-3.5,2.7c-1.3,1.6-2.1,3.6-3.7,5.1c-1.1,1-1.8,2.4-2.9,3.4
			c-0.2,0.3-0.7,0.5-0.5,1c2.4,0.6,5,1.4,6.4,3.5c0,1.5-0.2,3.1-0.4,4.6c1,0.6,1.2,1.8,1.8,2.8c1.3,0.7,2.8,0.9,4,1.6
			c0.8,0.8,1.2,1.8,1.7,2.7c1.5,0.3,3.1,0.2,4.5-0.3c0-0.3,0.1-0.7,0.1-1c0-1.4,0.1-2.8-0.1-4.1c-0.1-1.3-0.3-2.6,0.2-3.8
			c0.2-0.5,0.1-1.1,0.5-1.5c1-0.9,1.9-2.1,3.1-2.6c0-0.9,0-1.9,0-2.8c0.3-0.1,0.8-0.2,1.1-0.2c0.5-0.2,1-0.3,1.5-0.4
			c0,0.2,0,0.5,0,0.6c-0.3,0-0.9,0-1.2,0c-0.5,0.3-0.9,0.7-1.3,1.1c1.7,0.6,2.6-1.3,4.2-1.4c0.3-0.3,0.6-0.5,0.9-0.8
			c-0.3-0.6-0.3-1.5-1-1.8c-2.1-0.7-4.4-1.1-6.4-2.1c-1.6-1.1-2.8-2.7-4.2-4.1c-1-0.7-2.2-1.1-3.2-1.8
			C186.9,88.4,186.2,87.7,185.6,88.2z M197.2,102.2c0.3,0,0.8-0.1,1.1-0.1c-0.1-0.5-0.1-0.9-0.2-1.4
			C197.7,101.2,197.4,101.7,197.2,102.2z M177.3,143.8c0.1,0.6,0.2,1.3,0.3,1.9c0.2,1.1,1.6,0.4,2.3,0.7c-0.7-1.1-1.5-2.2-1.9-3.5
			C177.8,143.2,177.5,143.5,177.3,143.8z"/>
	</g>
	<path d="M179.3,38.7c0.5-0.6,1.2-1,1.9-1.1c-0.3,0.5-0.6,0.9-0.9,1.4c0,0.2,0.1,0.5,0.1,0.6c0.4-0.2,0.6-0.7,1.1-0.7
		c0.6,0.6-0.2,1.2-0.8,1.5C179.9,40.3,179.6,39.4,179.3,38.7z"/>
	<path d="M171.3,48.4c0.8,0.4,0.5,1.9,0.9,2.7l-0.2,0.1c-0.8-0.4-0.6-1.6-0.9-2.4C171.1,48.8,171.2,48.5,171.3,48.4z"/>
	<path d="M180.5,48.4c1.4,0.8,2,2.5,1.8,4.1c-0.4-0.5-0.6-1.2-0.7-1.8C181.3,49.9,180.8,49.2,180.5,48.4z"/>
	<path d="M193.2,53.2c1.6-0.6,3.5-0.3,5,0.5C196.5,53.7,194.8,53.5,193.2,53.2z"/>
	<path d="M181.1,60.7c3.6-1.8,7.8-1.3,11.4-3.1c-0.5,1.5-2.2,1.4-3.5,1.7C186.4,59.6,183.8,60.5,181.1,60.7z"/>
	<g>
		<path d="M212.2,65.9c1.4-0.4,2.9,0.3,3.9,1.3c1.4,1.6,1.8,4,1,6c-0.8,2.4-3.6,4.1-6.1,3.4c-1.4-0.6-2.2-2-2.5-3.4
			C207.6,70.3,208.9,66.3,212.2,65.9z M214.5,66.8V67c0.9,0.6,1.7,1.5,1.8,2.6c0.6,2.2-1.1,4.5-3.3,5.1c-0.3-0.1-0.9-0.3-1.2-0.4
			c0.6,1.2,2.3,1.3,3.4,0.9c1.7-1.4,1.9-3.8,1.8-5.8C216.4,68.4,216,66.6,214.5,66.8C214.2,65.6,213.2,67.2,214.5,66.8z M209,73
			c0.2-2.1,0.3-5.2,2.8-5.9c-0.5,0.6-1.1,1.1-1.5,1.7c-0.3,0.8-0.5,1.7-0.7,2.5c0.2,1.2,0.5,2.4,0.8,3.5c-0.2-0.3-0.7-0.8-1-1
			l-0.3,0.1c0.4,0.3,0.8,0.6,1.2,0.9c0.7,0.9,1.6,1.7,2.9,1.5c-0.9-0.8-2-1.6-2.5-2.8c-0.2-1.8-0.4-3.9,1.1-5.3c1.1,0,2.7-0.3,3,1.2
			c0.7,1.4-0.1,2.9-1.2,3.7c-0.2,0-0.6-0.1-0.8-0.1c-0.1-1.1,0-2.2,0-3.3c-0.7,0.8-1.3,1.9-0.8,3c-0.7,0.5-0.3,1.3-0.2,2l0.2-0.2
			l0.4-0.5l-0.6-0.2c0.1-0.3,0.3-0.6,0.4-0.9c0.1,0.3,0.4,0.8,0.5,1.1c3,0.1,4.3-4,2.4-6c-0.9-1.3-2.7-0.8-4-1.2
			C209.2,68.3,208.2,70.8,209,73z M212,68.6c-0.7,0.6-1,1.4-0.8,2.3c0.4-0.6,0.7-1.2,1.1-1.8c0.5,0.1,0.8,0.5,1.1,0.7
			c-0.2,0.8-0.3,1.7-0.3,2.5c1.4-0.4,1.2-2.1,1.2-3.3C213.8,68.3,212.7,68.2,212,68.6z"/>
	</g>
	<g>
		<path d="M121,65.1c4.8-1.6,9.8-3.2,14.9-3.6c2-0.1,4.6,0,5.6,2.1c-0.2,1.1-0.5,2.4-1.7,2.7c0,0.3,0,1,0,1.3c1.1,0,2.5,0.5,2.7-1
			c0.1,0.1,0.2,0.4,0.2,0.5c2.9,1.5,4.5,5.2,3.9,8.5c-0.1,1.9-1.4,3.3-2.5,4.8c-1.6,1.3-3.3,3.1-5.5,2.7c-1.6-0.1-2.6-1.5-3.5-2.6
			c1.1,0.5,2.3,1.2,3.6,0.9c1.7-0.4,3-1.7,4.3-2.8c0.8-1.3,1.9-2.4,2.1-4c0.6-2.6-0.1-5.8-2.4-7.3c-0.4,1.2,1,1.6,1.4,2.5
			c0.8,1.9,0.8,4.1,0.1,5.9c-0.6,1.1-1.5,2.1-2.2,3.2c-1.5,0.9-3.3,2.4-5.2,1.4c-2-0.8-1.6-3.2-2-4.8c-0.4-1,0.4-2,0.7-2.9
			c-0.7,0.4-1.3,0.8-1.7,1.4c0.3-0.8,0.4-1.5,0.1-2.3c-0.1,0-0.3,0-0.4,0c-0.4,2.5-0.6,5-0.8,7.6c0,0.8-0.7,1.7-1.5,1.7
			c-1.2-1-0.8-2.7-0.9-4.1c0-2.1,0.7-4.3-0.4-6.2c-0.6,0-1.2-0.1-1.8-0.2c-0.6-1.3,0.4-2.6,1.4-3.4c0.8,0,1.7,0,2.5-0.1
			c0.3-0.6,0.8-1,1.5-1.1c0.6,1,1.5,1.7,2.2,2.6c-0.2,0.3-0.5,0.9-0.7,1.2c-0.3,0.1-0.9,0.2-1.2,0.3c0,0.3,0,0.9,0,1.3
			c0.6-0.4,1.2-0.8,1.8-1.2c-0.4,0.9-0.4,1.7,0.3,2.4c0.4-1.6,0.5-3.8,2.2-4.8c-0.2-0.2-0.4-0.4-0.7-0.6c0.2-0.2,0.6-0.5,0.8-0.6
			c0,0.3-0.1,0.9-0.1,1.2h1.5c0-0.4,0-1.3,0-1.7c-0.4,0-1.1,0.1-1.5,0.1c-0.3-1.2-0.8-2.6-2.2-2.7c-3.2-0.5-6.4,0.5-9.5,1.1
			c-2.4,0.4-4.5,2-7,1.5c-0.9,0.9-1.5,1.9-2.2,2.9C117.5,67,119.2,65.7,121,65.1z M138.5,72c-0.7,1.8-0.7,3.8-0.5,5.7
			c1.5,0.4,2.5-0.9,3.2-2.1c0.9-1.4,0.9-3.3-0.1-4.6C140.3,70.4,138.9,71,138.5,72z"/>
	</g>
	<path d="M96.3,65.4c0.2-0.4,0.5-0.9,0.7-1.3c1,1.6,2.1,3.1,3.1,4.7c0.3,1.3-0.5,2.5-0.8,3.8c-0.2,0.9-0.9,1.5-1.5,2.1
		c-0.3,1.6-0.4,3.2-0.9,4.8c-0.2,1.1-1.5,1.1-2.3,1.5c-1.2-1.3-2.1-2.8-2.8-4.3c-1.9,1.1-0.6,3.8-2.4,5c-1.9,1-1.1-2-1.2-2.9
		c-0.4,0.2-0.7,0.5-1.1,0.7c0-0.8,0-1.5,0-2.2c-0.5,1.8,1.3,0.8,1.2,0.1c0.4-2.6,1-5.1,0.6-7.7c0.4-0.5,0.8-1,1.2-1.5
		c1.1-0.1,2.3-0.6,3.2,0.2c-0.2,0.8-0.5,1.5-0.7,2.3c0.6,1.6,1.2,3.3,2.1,4.8c0.8-2.5,0.2-5.1,1.1-7.5l-0.4,0.1
		c-1.2,1.1-1.2,3-0.7,4.5c-1.7-0.1-1.1-2.2-0.9-3.2c0.5-1.1-0.7-1.9-1.2-2.7c0.8,0.5,1.4,1.2,2.1,1.9c0.1-0.5,0.3-1,0.4-1.5
		c0.1,0.2,0.4,0.5,0.5,0.7c0.8,0.1,1-2,1.8-1c1.3,2,0.3,4.5,0.1,6.6c0.2,0,0.7,0.1,0.9,0.2c0-1.8,0.2-3.5,0.3-5.3
		c-0.3-1.1-1-2-1.4-3.1C97.2,65.3,96.6,65.4,96.3,65.4z"/>
	<g>
		<path d="M101.8,66.3c0.8-0.5,1.7-0.9,2.6-1.2c0.8,0.7,1.6,1.5,2.2,2.3c0.2,0.2,0.6,0.5,0.7,0.7c0,0.9,0.1,1.8,0.2,2.7
			c0.5-1.6,0.2-3.8,2.2-4.5c-0.3-0.2-0.5-0.4-0.8-0.7c0.7-0.3,1.3-0.6,2-0.8c-0.4,0.2-1.1,0.5-1.5,0.7c1.7,0.9,3.7,0.3,5.2,1.5
			c0.3-0.2,0.5-0.4,0.8-0.6c0.2,0.1,0.7,0.3,1,0.4c-0.3,0.3-0.7,0.5-1,0.8c1.3,0.4,1.8,1.7,1.5,2.9c-0.9,2-2.9,2.9-4.7,3.9
			c-0.1,0.1-0.2,0.4-0.2,0.5c3,2.1,6,4.4,8.9,6.6c0.7,0.3,1.5,1.6,0.1,1.7c-3.5-1.4-6.9-3.1-10.1-5.1c-1,0.4-0.9,1.9-1.4,2.8
			c-0.5-0.4-1.1-0.8-1.5-1.4c-0.3-1.1,0.1-2.2-0.1-3.3c-0.3-0.7-0.8-1.3-1.2-2c-0.2,1.6-0.2,3.2-0.4,4.8c-0.4,0.8-1,1.4-1.5,2.1
			c-0.9-1.5-0.7-3.2-0.8-4.9c-1,0-2.2,0.1-2.8,1.1c-0.4,1.1-0.5,2.3-0.9,3.4c-0.8,0.9-1.8,0.3-2.4-0.4c0.9-1.8,0-3.9,1.1-5.6
			c1-1.8,1.8-3.8,2.1-5.9c0-1,1-1.5,1.8-1.8c0-0.2,0-0.6,0-0.8c-1,0.2-1.6,1.2-2.4,1.8C100.8,67.6,101.4,66.9,101.8,66.3z
			 M102.7,65.9c0.8,0.4,1.7,0.6,2.6,0.9c0,0.3,0.1,1,0.1,1.4c1,1.2,1,2.7,1.1,4.1c0.2,0.1,0.7,0.2,1,0.2c0,0.1,0,0.2,0,0.3l-1.1-0.1
			c0.3,0.8,0.7,1.6,1.2,2.3c0.3-0.9,0.8-1.8,1-2.9c-1.5-1.4-2.2-3.4-2.7-5.4C104.9,66,104,64.9,102.7,65.9z M110.8,68.5
			c-0.1,1.1-0.1,2.2-0.1,3.3c1-0.5,2.2-0.9,2.6-2.1C112.6,69.2,111.7,68.8,110.8,68.5z M102.3,74c0.6-0.1,1.1-0.2,1.7-0.3
			c-0.1-0.5-0.2-1.1-0.3-1.6C102.7,72.3,102.5,73.2,102.3,74z"/>
	</g>
	<path d="M127.9,65.4c1.4-0.2,2.8-0.2,4.2,0c-1,0.2-2,0.2-3.1,0.2c-0.3,0.4-0.7,0.9-1.1,1.3l0.8,0.5c-0.8-0.1-1.5-0.4-2.2-0.7
		c1.7,3.1-1.4,6.3-0.4,9.4h-0.7c-0.1,1.6,0.7,3.8-1.2,4.7c-0.8,0.7-1.3-0.7-2-1c-0.6,0.2-1.2,0.5-1.8,0.7c-0.6-0.3-1.1-0.7-1.5-1.2
		c-1.1-3.1-0.6-6.4-0.8-9.6c-0.1-1,0.6-1.8,1.2-2.4c0.3,0.4,0.9,1.3,1.1,1.7c0.3-0.3,0.5-0.5,0.8-0.8l-0.9-0.5
		c0.8-0.5,1.7-0.8,2.6-0.8c-0.2,0.8-0.8,1.4-1.5,1.9c0.5,0.4,1,0.9,1.6,1.3c-0.5,1.7-0.9,3.5-1.2,5.3c-1.4-1.7,0-4.1-0.2-6.1
		c-0.2-0.1-0.6-0.3-0.8-0.4c0.1,2.8-1,5.9,0.5,8.5c1.7-3,2.2-6.5,2.9-9.8c0.6-0.5,1.3-0.9,1.9-1.4c-0.2-0.2-0.6-0.7-0.8-0.9
		c0.9,0.3,1.8,0.7,2.4,1.5C127.8,66.5,127.8,65.8,127.9,65.4z"/>
	<path d="M111.5,69.7c0.7-0.2,0.9,0,0.6,0.7C111.5,70.6,111.3,70.4,111.5,69.7z"/>
	<path d="M126.4,75.5c0.3-1.5,0.7-3,1.1-4.5c0.7,0.3,1.5,0.5,2.2,0.6c0,0.5,0,1.6,0,2.2c-0.3-0.3-0.8-0.9-1.1-1.2
		c-0.4,2.7-1.6,5.3-0.8,8.1c-0.5,1-1.3,1.7-2.1,2.5c-0.4,0.1-1.1,0.2-1.4,0.3c-0.4-0.4-0.9-0.7-1.3-1.1c0.7,1.1,1,2.4,0,3.4
		c-3.8-1-7.4-2.9-10.7-5.1c-0.3,0.6-0.5,1.2-0.8,1.8c-0.3,0.2-0.8,0.5-1,0.7c-0.8-0.4-1.5-0.8-2.3-1.3c0.6-0.3,1.2-0.6,1.9-0.7
		c0.5-0.7,0.8-1.5,1-2.3c2.7,2,5.9,3.1,8.9,4.6c0.7,0.3,1.5,0.3,2.3,0.2c0.2-1.1-0.2-2.2-0.7-3.2c0.8,0.1,1.5,0.5,2,1.2
		c1.3-0.4,2.3-1.3,2.9-2.5C126.5,78.2,126.3,76.8,126.4,75.5z"/>
	<path d="M139.1,72.1c0.5-0.3,1-0.6,1.6-0.9c0.2,0.7,0.5,1.4,0.7,2c-0.3,0.1-0.9,0.4-1.2,0.6c0.2,0.6,0.3,1.2,0.5,1.9
		c-0.6,0.6-1.2,1.1-1.9,1.6c-0.1-1.2-0.3-2.4,0.3-3.5C139,73.2,139,72.7,139.1,72.1z"/>
	<path d="M113.1,75c1.5-1,3.1-2,4.3-3.4c0,1.1,0,2.3,0,3.4c-1,0.1-1.7,0.8-2.3,1.6C114.5,76.1,113.8,75.5,113.1,75z"/>
	<path d="M133.6,74.6c0.9,1.6,0.6,3.6,1.3,5.3c-0.4,1.3-0.9,2.6-2.1,3.3c0,0.3-0.2,1-0.2,1.3c-0.8-1.3-2.1-2.1-2.9-3.5
		c0.6,0.3,1.2,0.5,1.8,0.8c0.8-0.8,1.7-1.5,1.9-2.6C133.7,77.8,133.4,76.2,133.6,74.6z"/>
	<path d="M100.6,81.7c0.9-1.5,0.5-3.9,2.4-4.7c0.5,2-0.3,3.9-0.9,5.7c-0.3,1-1.6,0.9-2.4,1.2c-0.5-0.4-1-0.8-1.6-1.2
		c-0.9-0.1-1.6,0.5-2.4,0.7c-1.1-1-2.1-2.1-3.2-3.2c0.1,0.4,0.2,1.2,0.3,1.6c-0.3,0.5-0.6,1.1-0.9,1.7c-0.8,0.3-1.7,0.7-2.5,1.1
		c-0.1-0.1-0.4-0.3-0.5-0.4c-0.6-0.8-1.2-1.7-1.5-2.7c0.4,0.4,0.9,0.8,1.3,1.3c1.2-0.3,2.1-1.2,2.7-2.3c-0.5-0.9,0.2-1.8,0.4-2.7
		c0.8,1.5,1.4,3.2,2.9,4c0.7-0.3,1.5-0.7,2.3-1c0.6,0.5,1.2,1,1.9,1.5C99.5,82.2,100,82,100.6,81.7z"/>
	<path d="M104.2,82.6c1.2-0.9,2-2.2,2.9-3.4c0.4,0.7,0.9,1.5,1.4,2.2c-0.2,0-0.7,0-0.9,0c-0.2,1-1,1.8-1.7,2.5
		c0.5-0.1,1.1-0.2,1.6-0.3l-0.4-0.7c1.1-0.5,1.9,0.4,2.6,1.2c-1,0.4-2,0.6-3,0.8C105.9,84.1,104.9,83.5,104.2,82.6z"/>
	<path d="M100.5,84.7c2.1-0.3,2.2-2.5,3.7-3.6c-0.2,0.3-0.5,0.8-0.7,1.1c0.4,0.9,1.1,1.7,1.7,2.5C103.8,85.6,102,85.2,100.5,84.7z"
		/>
	<path d="M111.7,83.6c0.4-0.6,0.8-1.2,1.1-1.8c0.4,0.4,0.7,0.8,1.1,1.2C113.2,83.2,112.4,83.4,111.7,83.6z"/>
	<path d="M93.7,82.7c0.7,0.6,1.4,1.2,2.2,1.8c0,0.3,0,0.8,0.1,1.1c1.9,1.7,4.8,1.7,7.2,1.3c3-0.4,6-1.1,8.9-2.1
		c1.4-0.4,2.7-1.1,4.1-1.2c-1.3,1.2-3.2,1.5-4.8,2.1c-4.8,1.5-9.7,2.9-14.7,2.9c-1.4,0-3-0.3-3.9-1.5C92,85.6,93,84.1,93.7,82.7z"/>
	<path d="M219.5,108.8c1.9,0.1,3.4,1.6,5.2,2.1c-0.2,0.2-0.4,0.3-0.6,0.5C222.6,110.5,220.8,110,219.5,108.8z"/>
	<path d="M225.4,112.2c-0.1-0.2-0.3-0.7-0.4-1c1.3,0.6,2.6,1.3,3.6,2.3C227.4,113.5,226.5,112.7,225.4,112.2z"/>
	<path d="M232,111.5c2.2,0.2,4.4,0,6.6,0c0.8-0.1,0.6,0.9,0.5,1.3c-1.2,0.2-2.5,0.2-3.7,0.6c0.8,0.7,1.5,1.3,2.3,2
		c0.2-0.1,0.7-0.4,0.9-0.5c0.1,0.1,0.4,0.2,0.5,0.3c0,0.7,0,1.3,0,2c-1.1-1-2.4-1.8-3.5-2.7C234.4,113.5,233.3,112.4,232,111.5z"/>
	<path d="M231.9,114.5c2.5,1.1,4.8,2.5,7.2,3.8c0,0.2-0.1,0.6-0.1,0.8c-2.2-1.5-4.6-2.8-7-4C232,115,232,114.7,231.9,114.5z"/>
	<path d="M218.3,123c0.2,0,0.5,0.1,0.7,0.2c-0.1,2.1,1,4.3-0.2,6.2C218.5,127.3,218.4,125.1,218.3,123z"/>
	<path d="M181,139.1c2.6,0,3.6,2.9,5.9,3.4c-0.3,0.5-0.5,1.1-0.7,1.7c-0.1,0.1-0.4,0.2-0.5,0.3c0.1-0.6,0.1-1.1,0.1-1.7
		C184.5,141.3,182.6,140.3,181,139.1z"/>
</g>
</svg>
