<?xml version="1.0" encoding="utf-8"?>
<!-- Generator: Adobe Illustrator 26.0.3, SVG Export Plug-In . SVG Version: 6.00 Build 0)  -->
<svg version="1.0" id="Слой_1" xmlns="http://www.w3.org/2000/svg" xmlns:xlink="http://www.w3.org/1999/xlink" x="0px" y="0px"
	 viewBox="0 0 239.5 150.2" style="enable-background:new 0 0 239.5 150.2;" xml:space="preserve">
<g>
	<path d="M186.6,79.2c-0.4-0.2-0.8-0.1-1.2,0c-0.1,0.9,0.4,1.6,0.9,2.3c0.8,1,1.8,2.1,3.2,2c0-0.4,0-0.8-0.1-1.1
		C188.8,81,187.9,79.8,186.6,79.2z"/>
	<path d="M117.9,100.4c-1.1-0.3-2.6-0.3-3.4,0.7c0.6-0.2,1.1-0.5,1.7-0.5C116.8,100.5,117.4,100.5,117.9,100.4z"/>
	<path d="M221.3,75.9c0.6-0.1,0.9-0.7,1.1-1.2c0.3-1.2,0.5-2.5,0-3.7c-0.2-0.6-0.6-1.4-1.3-1.5c-0.6,0.1-0.7,0.8-1,1.2
		c-0.3,0.4-0.3,0.8-0.3,1.2v0.5C220.4,73.6,220.2,75.2,221.3,75.9z"/>
	<path d="M218.8,76.1c0.9-1.7,0.6-3.9-0.6-5.4c-0.2-0.3-0.6-0.5-1-0.3c-0.3,0.2-0.4,0.5-0.4,0.8c-0.2,1.5,0.3,2.9,0.9,4.3
		C217.9,75.8,218.3,76.6,218.8,76.1z"/>
	<path d="M192.5,82.4c0.4,0.1,0.8-0.2,0.8-0.6c0-1.4-0.4-2.9-1.3-4.1c-0.3-0.4-0.9-0.8-1.4-0.6c-0.5,0.5-0.7,1.2-0.6,1.9
		c0,0.9,0.5,1.6,1,2.3C191.4,81.7,191.9,82.2,192.5,82.4z"/>
	<path d="M230.5,80.9c0-0.5,0-1.1-0.1-1.6c0-0.1,0-0.2,0-0.3c0-1.2-0.4-2.3-0.5-3.4c-0.1-0.5-0.1-1-0.3-1.4
		c-0.3-0.4-0.6-0.8-0.7-1.4c0.2,0.3,0.3,0.7,0.5,1c0-0.1,0.1-0.3,0.1-0.4c-0.3-0.9-0.5-1.9-0.9-2.8c-0.8-2.3-1.9-4.5-3.1-6.6
		c-0.4-0.7-1.1-1.3-1.4-2.2c-0.3-0.9-0.7-1.7-1.1-2.5c-0.5-1.3-1.5-2.4-2.4-3.3c-0.4-0.3-0.8-0.6-1.2-0.8c-0.6-0.3-1.1-0.6-1.7-0.8
		c-0.7-0.1-1.3,0-2,0.1c-0.6-0.8-1.8-0.6-2.6-0.5c-0.6,0-1.3,0-1.9,0.1c-0.5,0.1-0.8,0.4-1.2,0.7c-0.6,0.4-1.3,0.9-1.5,1.6
		c-0.4,1.1-0.8,2.2-0.4,3.3c-0.5,1.3-0.6,2.8-0.2,4.1c0.2,1.1,0.9,2.1,1.5,3c0.7,1.1,1.8,2,2.7,3c1.6,1.4,3.4,2.7,4.6,4.5
		c0.3,0.4,0.4,0.9,0.5,1.4c0.1,2.6-1.1,4.9-1.5,7.4c-0.2,0.9-0.1,1.9,0.1,2.8c0.4,0.7,1,1.4,1.7,1.7c1.1,0.4,2.3,0.7,3.5,0.6
		c0.2,1.2,0.1,2.4-0.2,3.5c-0.3,1.2-0.6,2.4-1.3,3.5c-1.3,2.1-3.1,3.8-4.8,5.5c-0.8,0.7-1.5,1.4-2.4,2c-0.1-0.4-0.2-0.8-0.3-1.1
		c-0.3-0.9-0.6-1.8-0.9-2.7c-0.7-1.6-1.1-3.4-1.9-5c-0.2-0.5-0.6-1-0.7-1.6c0-1.2,0.5-2.5,0.1-3.7c-0.3-1.2-1-2.5-2.3-2.8
		c-0.5-0.2-1.1,0-1.5,0.2c-0.3-1.2-1.2-2.1-1.7-3.2c-0.8-1.4-1.8-2.8-2.8-4.1c-0.9-1.3-1.8-2.6-2.8-3.7c-1.1-1.2-2.2-2.3-3.3-3.4
		c-0.7-0.7-1.5-1.3-2.1-2c-1.3-1.7-2.9-3.1-4.8-4c-0.8-0.4-1.6-0.7-2.5-0.8c-0.1,0-0.2,0-0.3-0.1c-1-0.1-2-0.1-2.8,0.6
		c-1.9-0.5-4-0.7-5.9,0.2c-0.9,0.3-1.6,1-1.9,1.9c-0.7,1.2-0.3,2.6,0.1,3.9c0.4,0.8,0.4,1.6,0.5,2.4c0.7,2,2.1,3.6,3.9,4.7
		c1.3,0.7,2.5,1.5,3.8,2l0.1,0.1c1.5,0.6,2.9,1.3,4.3,2c1.1,0.5,1.9,1.5,2.3,2.6c0.7,1.6,1.2,3.4,1.5,5.1c0.3,1.1,0.4,2.4,1.3,3.2
		c0.5,0.6,1.3,0.8,2,0.9c0.6,0.1,1.4,0.1,1.8-0.5c0,0.1-0.1,0.3-0.1,0.4c0.6-0.1,1.3-0.3,1.9-0.5c0.2-0.1,0.3-0.1,0.5-0.2
		c0.3,0.3,0.6,0.7,1,1c0,0.4,0,0.8-0.1,1.3c-0.3,1.1-0.3,2.3-0.3,3.5c0.1,1.1,0.6,2.3,1.6,2.9c0.6,0.3,1.2,0.3,1.9,0.3
		c-0.1,0.9-0.1,1.8-0.2,2.7c-0.3,1.8-0.7,3.7-1.4,5.4c-0.2,0.5-0.5,0.9-0.7,1.4c-0.5,1.2-1,2.4-1.5,3.6c-0.3,0.6-0.4,1.3-0.6,2
		c-1.4-0.4-3-0.5-4.1-1.4c-2.1-1.6-4.3-3.1-6.5-4.6c-1.1-0.7-2.3-1.5-3.4-2.2c-1.8-1.1-3.7-2.3-5.6-3.2c-1.6-0.7-3.3-1.4-5-1.9
		c-2-0.7-4.2-1-6.3-1.2c0.5-1.8,0.8-3.7,0.7-5.6c0-0.6,0-1.3-0.2-1.9c-0.3-1.2-1-2.3-1.9-3.1c-0.5-0.3-1-0.7-1.6-0.7
		c-0.3,0.1-0.6,0.3-0.6,0.6c-0.1,1-0.1,2,0.2,2.9c0,0.1,0,0.4,0,0.6c-1.3-1.3-2.5-2.8-4.3-3.6c-1-0.6-2.1-0.9-3.2-1.2
		c-1-0.2-2.1,0-3.1,0.1c-0.7,0.1-1.2,0.6-1.7,0.9v0.1c0,0.2,0.1,0.4,0.1,0.6c0.4,0.1,0.7,0.1,1.1,0.2c-1.2,0.2-2.5,0.3-3.7,0.6
		c-1.9,0.6-3.4,1.8-4.7,3.3c-1.5,1.7-2.8,3.8-3.3,6.1c-0.4,1.5-0.3,3.2,0.2,4.7c0.3,1.1,1.4,2,2.6,2c1.1,0.1,2.2-0.2,3.3-0.2
		c0.1,0.6,0.1,1.2,0.2,1.8c-0.9,0.6-0.9,1.8-1.5,2.6c-0.2,0.4-0.4,0.7-0.6,1.1c0.1,0,0.4-0.1,0.6-0.1c-0.4,0.1-0.8,0.2-0.9,0.6
		c-0.6,1.4-1.1,2.8-1.5,4.2c-1-0.9-1.9-1.9-2.7-2.9c-0.4-0.5-1-0.9-1.3-1.5c0-0.5,0.1-0.9,0.1-1.4c-0.2-0.7-0.5-1.3-1.1-1.6
		c-0.3-0.1-0.7-0.2-1-0.2c-0.3-0.1-0.6,0-0.8-0.3c-0.5-0.5-0.9-0.9-1.5-1.3c-1.2-0.9-2.7-1.2-4.1-1.1c-0.9,0-1.6,0.4-2.4,0.7
		c0.5-0.5,1.1-0.9,1.6-1.3c1.2-1,2.3-2.1,3.3-3.3c0.9-1.2,1.7-2.5,2.2-4c0.5-1,0.6-2.2,0.2-3.3c0.3,0.1,0.6,0.2,1,0.2
		c0.4-0.9-0.1-1.9-0.6-2.7c-0.7-1.2-1.7-2.2-2.9-3c0-0.2,0-0.5,0-0.7c-1.6-1.3-3.7-1.4-5.7-1.6c0.3-1.4,1-2.7,1.4-4.1
		c0.4-1.1,0.8-2.1,1.1-3.3c0.2,0.1,0.4,0.1,0.6,0.2c0.9-0.9,0.9-2.3,1.2-3.5c0.3-1.6,0.1-3.3-0.1-4.9c-0.1-0.7-0.2-1.3-0.4-2
		c-0.2-1.5-0.9-2.8-1.9-3.9c-0.4-0.4-0.7-0.7-1.1-1c-0.2-0.2-0.4-0.3-0.7-0.5c-1.2-0.6-2.4-1.4-3.8-0.9c0.2-0.1,0.5-0.2,0.7-0.3
		c-1.1-0.4-2.3-0.5-3.5-0.6c-2.7-0.3-5.5,0.1-8,1c-0.1,0-0.3,0-0.5-0.1c0.1-0.3,0-0.6,0-1c-0.9-0.4-2-0.2-2.9,0
		c-1.9,0.6-3.8,1.5-5.2,2.9c-1,0.9-1.8,2-2.5,3.1c-0.4,0.7-0.8,1.3-1.2,2c0.3-2.1,0.9-4.2,1.6-6.2c0.5-1.7,1-3.7,0.2-5.4
		c-0.3-0.7-0.8-1.3-1.4-1.7c-0.8-0.7-2-0.9-3-1.1c-1.4-0.1-2.9,0-4.3,0.3c-1.6,0.4-3.3,0.8-4.7,1.6c-1.1,0.5-2.3,1-3.2,1.9
		c-1.2,0.8-2.2,2-3.3,3c-0.4,0.4-0.7,1-1.1,1.3c-2.5,0.1-4.8,1-7,2.2c-2.4,1.1-4.5,2.8-6.4,4.5c-0.5,0.5-1,1.1-1.5,1.6
		c-0.2,0.2-0.3,0.4-0.5,0.6c-1.1,1.2-1.9,2.7-2.8,4c-0.5,0.9-1,1.8-1.5,2.8c-1.3,2.9-2.1,6.1-1.6,9.3c0.1,1.1,0.3,2.2,0.6,3.3
		c0.1,0.4,0.2,0.7,0.3,1c0.4,0.9,0.7,1.7,1.1,2.6c0.5,1.2,1.1,2.4,1.8,3.5c0.5,0.8,1,1.5,1.5,2.3s1.3,1.5,1.9,2.3
		c1.4,2,3.2,3.7,4.6,5.6c1.1,1.7,2.4,3.2,3.5,4.8c0.5,1,1.4,1.8,2,2.7c0.8,1,1.5,2.1,2.2,3.2c0.1,0.2,0.2,0.3,0.3,0.5
		c-0.3,0.3-0.7,0.2-1,0.4c-0.3,0-0.6,0.3-0.9,0.4c-0.8,0.6-2,1-2.3,2.1c0,0.9,1,1.4,1.7,1.8c0.8,0.2,1.7,0.3,2.5,0.3
		c0.1,0.5,0.2,1.1,0.5,1.6c0.2,0.3,0.5,0.7,0.9,0.7s0.8-0.1,1.2-0.1c0.3-0.2,0.7-0.5,1-0.7c0.8-0.8,1.4-1.8,1.9-2.8
		c0-0.1,0.1-0.2,0.1-0.2c0.7-0.3,1.4-0.8,2-1.2c0.7-0.5,1.3-1.2,1.9-1.8c1.2-1.2,1.8-2.7,2.6-4.1c0.4-0.7,0.6-1.5,0.8-2.3
		c0.1-0.5,0.2-1,0.5-1.3c0.6,0.2,1,0.6,1.5,0.9c0.6,0.3,1.2,0.6,1.8,0.9c1.2,0.3,2.3,0.9,3.4,1.4c0.5,0.2,1.1,0.5,1.6,0.8
		c-0.5,0.3-1.1,0.6-1.3,1.2c-0.3,0.6-0.1,1.2,0.1,1.8c0.2,0.1,0.4,0.3,0.6,0.4c-0.4,0.6-1,0.9-1.6,1.3c-0.7,0.6-1.5,0.9-2.2,1.4
		c-0.3,0.2-0.7,0.3-1.1,0.5c-1,0.4-2,0.8-3,1c-1.3,0.5-2.7,0.9-4,1.3c-1.8,0.6-3.7,1.3-5.1,2.6c0,0-0.1,0.1-0.2,0.1
		c-0.9,0.8-1.7,1.8-2.2,2.9c-0.3,0.6-0.5,1.3-0.5,1.9c-0.1,1.2-0.1,2.5,0.7,3.5c1,1,2.4,1.5,3.7,1.6c1.9,0.4,3.8,0.2,5.6-0.3
		c1-0.3,2-0.6,3-1c1.6-0.7,3.1-1.8,4.7-2.5c0.9-0.4,1.8-1,2.7-1.5c2.2-1.2,4.1-2.9,6-4.6c0.6-0.5,1.1-1.1,1.6-1.7
		c0.6-0.5,0.9-1.3,1.6-1.8c0.6,0,1.2,0,1.8,0.3c0,0.9-0.2,1.8-0.2,2.7c0,1.4-0.2,2.8,0.3,4.2c0.3,1,1,1.8,1.7,2.5
		c0.4,0.5,1,0.8,1.5,1.1c0.1,0.1,0.3,0.2,0.4,0.2c0.3,0.1,0.6,0.3,0.9,0.4c0.4,0.4,1,0.8,1.6,0.8c1.9,0.3,3.9,0.4,5.8-0.1
		c0.8-0.3,1.8-0.4,2.4-1.1c0.9-0.4,1.8-0.8,2.6-1.4c0.9-0.7,1.6-1.6,2.2-2.5c0.7,0,1.4,0,2.1-0.2c1.2,0.2,2.3,0.1,3.5,0.3
		c1.8,0.1,3.6-0.1,5.3-0.3c0.8,1.1,1.9,2,2.9,2.9c0.9,0.7,1.9,1.1,2.9,1.5c0.9,0.3,2,0.3,2.9,0.5c1.5,0.2,3.1-0.2,4.5-0.8
		c0.8-0.4,1.5-0.9,2.1-1.5c0.6-0.7,0.6-1.6,0.5-2.4c1.2,0,2.4,0,3.6,0.1c1.6,0.1,3.3,0.1,4.9,0c1.1,0,2.3,0,3.4-0.2
		c3.8-0.1,7.5-0.7,11.2-1.2c1.4-0.2,2.7-0.6,4.1-0.7c1,0.2,1.8,0.6,2.7,0.9c1.1,0.4,2.3,0.8,3.5,1.1c2,0.5,4,0.8,6,0.8
		c2.5,0.1,5-0.3,7.5-0.1c1.4,0.1,3-0.2,4.1-1.1c0.4-0.3,0.7-0.7,1.1-1.2c0-0.1,0.1-0.1,0.1-0.2c0.2-0.4,0.4-0.8,0.6-1.2
		c0.5-1,0.9-2,1.4-3c0.3-0.6,0.5-1.3,0.8-2c0.1-0.2,0.1-0.5,0.2-0.7c0.2-0.5,0.3-1.1,0.4-1.7c0.1-0.6,0.3-1.2,0.4-1.9
		c1.1-1.3,2.1-2.7,3.1-4c1.1-1.7,2.3-3.3,3.3-5.1c0.9-1.3,1.5-2.8,2.2-4.2c0.3-0.5,0.6-1.1,0.8-1.6c0.5-0.8,0.9-1.7,1.1-2.6
		c0.4-1,0.9-1.9,1.2-2.9c0.8-2.4,1.7-4.7,2.4-7.2c0.3-1.3,0.7-2.5,1-3.8c0.3-1.2,0.4-2.5,0.6-3.7c0.5-1.3,0.5-2.7,0.6-4
		C230.6,84,230.5,82.4,230.5,80.9z M216.2,84.7c-0.1-2.6,0.9-5,1.2-7.6c0.1-0.6,0-1.2-0.1-1.8c-0.5-1.6-1.8-2.7-2.9-3.8
		c-1.8-1.4-3.3-3-4.5-5c-0.5-1-1.1-2-1.3-3.2c-0.1-0.8-0.1-1.6,0.2-2.4c0.1,0,0.2,0,0.3,0.1c0,0.8,0.3,1.6,0.7,2.3
		c0.7,1.3,1.7,2.3,2.7,3.4c1.2,1.1,2.7,2.3,4.5,2.1c-1.1-0.4-2.2-0.8-3.1-1.5c-0.7-0.6-1.5-1.2-2-2c-0.9-1.2-1.6-2.6-2-4
		c-0.5-1.4-0.5-3,0.1-4.5c0.3-0.8,1-1.5,1.7-1.9c1-0.4,2,0,2.9,0.3c-0.5,1.1-1.1,2.3-0.9,3.6c0.1,0.7,0,1.4,0.4,2.1
		c0.4,0.6,0.5,1.4,0.9,2.1c0.9,1.6,2.2,3,3.6,4c0.9,0.7,2,1.2,3.1,1c0-0.1,0.1-0.2,0.1-0.3c-0.9,0-1.8-0.2-2.6-0.6
		c-1-0.7-2-1.4-2.7-2.4c-0.9-1.1-1.5-2.4-1.9-3.8c-0.3-0.8-0.2-1.6-0.2-2.3c0-0.9,0.5-1.6,0.9-2.3c0.3-0.3,0.7-0.7,1.1-0.8
		c0.4-0.1,0.8,0,1.2,0l0.1,0.1c0.8,1,1.8,2,2.8,2.8c0.9,1.1,1.8,2.2,2.5,3.4c0.5,0.8,0.6,1.6,1.1,2.4c0.1,0.1,0.2,0.2,0.2,0.3
		c0,0.5,0.1,1,0.2,1.5v0.1c0.1,1.2,0.2,2.5,0.3,3.7c0.1,1.9,0,3.8,0.1,5.7c0.2,1.6,0.1,3.2,0.3,4.8c0.1,1.1,0,2.2-0.2,3.2
		c-0.1,1.2-1,2.2-2.1,2.7c-1.6,0.8-3.5,0.8-5.2,0.2C216.9,85.9,216.2,85.4,216.2,84.7z M196.9,93.1c-0.2,0.1-0.7,0.2-0.9,0.3
		c-1.3,0.2-2.7,0.5-3.8-0.3c-1.1-1-1.3-2.5-1.7-3.9c-0.6-1.7-1.2-3.5-2-5.1c-0.3-0.7-1.1-1.1-1.7-1.6c-1.3-0.8-2.7-1.5-4.1-2.2
		c-0.2-0.1-0.3-0.2-0.5-0.3c-1.7-1-3.5-1.7-5-3c-0.8-0.7-1.4-1.7-1.9-2.7c1.1,1.1,2.4,2,3.9,2.5c0.9,0.3,1.8,0.8,2.8,1.1
		c0.8,0.2,1.7,0.5,2.5,0.3c-0.6-0.2-1.2-0.3-1.8-0.4c-0.9-0.2-1.8-0.5-2.6-0.9c-0.9-0.4-1.7-0.9-2.4-1.4s-1.3-1.2-2-1.6
		c-0.1-0.9-0.8-1.6-1.1-2.4c-0.3-0.7-0.4-1.5-0.5-2.3c0.1-1.6,1.5-2.8,3-3.1c1.2-0.3,2.4-0.1,3.6,0.1c-0.2,0.4-0.4,0.9-0.5,1.4
		l-0.2-0.1c0,0.1,0,0.2,0,0.3c-0.1,1.1,0.3,2.2,0.8,3.2s1.2,2,2,2.7c1.4,1.2,3.1,2.4,5,2.6c1.3,0.1,2.7,0.1,3.6-0.9
		c-1.3,0.4-2.7,0.7-4,0.5c-1.9-0.4-3.5-1.6-4.7-3c-0.8-1-1.3-2.2-1.6-3.4c-0.1-0.7-0.1-1.4,0-2c0.2-0.9,0.9-1.6,1.7-1.9
		c0.6-0.1,1.2,0,1.7,0c1.9,0.4,3.5,1.3,4.9,2.6c0.5,0.5,1.1,0.9,1.4,1.6c0,0,0.1,0.1,0.1,0.2c2,2.3,2.8,5.3,3.7,8.2
		c1.1,3.5,2.7,6.8,3.9,10.3c0.2,0.7,0.4,1.5,0.5,2.2c0.1,0.6-0.2,1.1-0.4,1.6c-0.2,0.1-0.4,0.2-0.7,0.3
		C197.6,92.8,197.5,92.8,196.9,93.1z M198.4,93.6c-0.1-0.1-0.2-0.2-0.2-0.3c1-0.5,1.9-1.2,2.8-2c0.6-0.6,1.1-1.2,1.4-2
		c-0.9,0.9-1.6,2-2.8,2.6c-0.1,0-0.2,0.1-0.3,0.1c0.5-1.3,0.1-2.7-0.4-4c-1.3-3.7-3.2-7.2-4.1-11c-0.3-1.6-0.8-3.1-1.4-4.6
		c1.2,1,2.3,2.1,3.2,3.3c0.3,0.5,0.7,0.9,1,1.3c1.3,1.5,2.4,3.1,3.5,4.6c0.6,0.8,0.9,1.7,1.5,2.5c0.7,0.9,1.1,2.1,1.7,3
		c0.3,0.4,0.4,0.9,0.4,1.4c0.2,2.3-0.4,4.6-1.5,6.6c-0.7,1-1.4,2.1-2.4,3c-0.4-0.8-0.7-1.6-1.1-2.3C199.4,95,198.9,94.3,198.4,93.6z
		 M199.1,95.6c0.4,0.6,0.5,0.9,0.9,1.6c0.2,0.4,0.4,0.8,0.6,1.3c-0.4,0.2-0.9,0.4-1.3,0.6c-0.2-0.1-0.3-0.2-0.5-0.3
		c0-0.3,0.1-0.6,0.1-0.9C198.9,97.3,199.2,95.7,199.1,95.6z M200.7,101.9c-1.2-0.5-1.8-1.6-2.1-2.8c0.1,0,0.3,0.1,0.4,0.2
		c0.6,0.2,1.3-0.2,1.8-0.5c1-0.7,1.9-1.7,2.6-2.8c1.4-2.4,2.2-5.1,1.9-7.9c-0.1-0.4-0.1-0.7-0.2-1.1c0.5,0.1,1,0.1,1.4,0.3
		c0.5,0.3,0.9,0.7,1.1,1.2c0.5,1.2,0.7,2.5,0.3,3.8c-0.1,0-0.2,0-0.3,0c0.3,0.4,0.1,0.9,0,1.4c-0.4,2.1-1.4,4-2.6,5.8
		c-0.8,0.9-1.6,1.8-2.7,2.4C201.7,101.8,201.2,101.9,200.7,101.9z M197,118.5c0,0.2-0.1,0.5-0.1,0.7c-0.5-0.4-0.9-0.7-1.4-1.1
		C196,118.2,196.5,118.3,197,118.5z M142.1,109c-0.7-0.5-1.1-1.3-1.3-2.2c-0.3-1.5,0-3,0.3-4.4c0.7-1.7,1.5-3.3,2.8-4.6
		c1.3-1.3,2.6-2.7,4.4-3.2c1.2-0.5,2.6-0.7,3.9-0.7c1.8,0,3.5,0.4,5.2,0.9c-0.8-0.8-2.1-0.8-3.1-1c-0.9-0.2-2-0.1-2.7-0.8
		c0.4-0.2,0.7-0.5,1.2-0.6c1.7-0.4,3.6-0.2,5.2,0.6c0.8,0.4,1.4,0.9,2.1,1.3c1.1,0.7,1.9,1.8,2.8,2.8c0.2,0.2,0.3,0.4,0.5,0.6
		c0,0,0.1-0.1,0.1-0.2c-0.1-1.3-0.4-2.6-0.3-3.9c0.5,0.2,0.9,0.5,1.3,0.8c0.1,0.1,0.2,0.1,0.3,0.2c0.8,1,1.3,2.3,1.3,3.6
		c0,0.7,0,1.5,0,2.2c-0.1,1-0.2,2-0.5,3c-0.6,0-1.2,0-1.8-0.1c0.1-1.2-0.2-2.4-0.6-3.5c-0.2-0.2-0.4-0.4-0.6-0.5
		c-0.3-0.1-0.5,0-0.8,0.1c0,0.5,0,1,0,1.5c-1.2-1.1-2.3-2.4-3.9-3.1c-1-0.4-2.2-0.7-3.3-0.7c-0.4,0-0.8,0.3-0.9,0.7
		c0.2,0.5,0.6,0.9,1,1.3c-2.2-0.5-4.5,0-6.3,1.2c-1.7,1.1-3.4,2.5-4.4,4.3c-0.6,1-1.3,2.1-1.1,3.4c0,0.6,0.5,1.1,0.8,1.5
		C143.3,109.5,142.6,109.4,142.1,109z M146.1,109.3c-0.8,0.2-1.8,0.1-2.3-0.6c-0.5-1-0.2-2.1,0.2-3.1c0.6-1.1,1.3-2.2,2.2-3.1
		c0.5-0.5,1-0.9,1.6-1.3c1.5-1.2,3.4-2,5.3-1.9c1-0.1,1.9,0.4,2.9,0.2c-0.6-0.6-1.5-1-1.7-1.9c0.6-0.1,1.2-0.2,1.8-0.1
		c0.8,0.2,1.7,0.4,2.5,0.8c1.1,0.6,2,1.4,2.8,2.4c0.5,0.6,0.8,1.2,1.3,1.7c0-1-0.4-1.9-0.3-2.9c1,0.9,1.1,2.4,1.1,3.7
		c-0.4,0-0.8,0.1-1.1,0.1c-1.3,0-2.6,0.1-3.9,0.5c-1.6,0.3-3.1,0.7-4.4,1.6c-0.1-1-0.3-2-0.8-2.9c-0.4-0.7-1-1.3-1.8-1.3
		c-1.1,0.1-2.1,0.7-2.9,1.4c-0.4,0.4-0.7,0.9-1,1.3C146.5,105.6,145.9,107.4,146.1,109.3z M149.3,112.4c-0.1-0.2-0.3-0.4-0.5-0.6
		c0.8,0.2,1.7,0.3,2.5,0.6c1.3,0.3,2.5,1,3.8,0.9c1.3,0,2.5-1,2.7-2.2c0-0.3,0-0.8-0.5-0.6c-0.1,0.7-0.6,1.2-1,1.6
		c-2-1.1-4.3-0.8-6.5-0.6c-0.2,0-0.5,0-0.7,0c-0.1,0-0.4-0.1-0.6-0.1l-0.2-0.1c0.3-0.2,0.5-0.5,0.8-0.6c1.8-1,3.8-1.6,5.8-1.3
		c0.7,0,1.4,0.1,2,0.4s1.3,0.6,1.8,1.2c0.3,0.6,0.5,1.2,0.2,1.8c-0.3,0.8-0.8,1.5-1.4,2c-0.6,0.5-1.3,1-2.1,1
		c-1.7,0.1-3.2-1.1-4.3-2.3c0.5,0.1,0.9,0.4,1.3,0.6C151.7,113.2,150.5,112.7,149.3,112.4z M148.5,118.9c-0.2-1.4-0.4-2.9-0.9-4.3
		c-0.1-0.3,0.2-0.6,0.4-0.4c0.8,1,1.7,2.2,2,3.5c0.3,0.7,0.6,1.4,0.7,2.2c0.1,0.3,0.2,0.6,0.2,0.9c0.3,0.7,0.3,1.4,0.3,2.1
		c-0.8-0.3-1.6-0.3-2.4-0.3C148.9,121.4,148.6,120.1,148.5,118.9z M147.4,114.1c-0.3-0.2-0.6-0.4-0.9-0.6c0-0.3,0-0.7,0-1
		c0.4-0.3,0.7-0.5,1.2-0.7c0.2,0.5,0.3,1.1,0.2,1.7C147.7,113.8,147.6,113.9,147.4,114.1z M148.2,112.1c0.4,0.1,0.7,0.4,1.1,0.6
		c0.1,0.7,0,1.4-0.5,2C147.9,114.1,148.3,113,148.2,112.1z M152.2,124.4c0-1-0.4-1.9-0.3-2.9c0.2,0.2,0.3,0.4,0.4,0.6
		c1.1,2.8,1.9,5.8,2.1,8.9c-0.7-0.6-1.2-1.3-1.9-1.9c-1.4-1.4-3-2.6-4.5-3.9c0.2-0.3,0.5-0.5,0.8-0.8c0.2-0.2,0.4-0.4,0.6-0.5
		C150.2,123.3,151.2,124.3,152.2,124.4z M151.5,121.1c0.1-0.2,0.3-0.2,0.4-0.1C152.1,121.4,151.5,121.5,151.5,121.1z M154,125.7
		c-0.6-1.3-0.9-2.8-1.5-4.1c0-0.1-0.1-0.3-0.2-0.4c-0.1-0.4-0.3-0.7-0.5-1.1c-0.4-0.8-0.7-1.6-1.2-2.3c-0.5-1-1.2-1.8-1.7-2.8
		c0.3,0.1,0.6,0.2,0.8,0.4c1.7,1.4,3.1,3.2,4.6,4.9c-0.3-1-1.1-1.7-1.7-2.5c-0.8-0.9-1.4-1.8-2.3-2.6c-0.3-0.3-0.8-0.6-0.8-1.1
		c0.3,0.1,0.6,0.3,0.8,0.5c1.8,1.3,3.6,2.7,5.5,3.8c0.7,0.5,1.5,0.8,2.3,1.2c1.5,0.8,3.2,1.4,4.8,1.8c0.7,0.5,1.4,0.9,2.1,1.5
		c0.5,0.4,1.1,0.8,1.6,1.1c0,0.2,0.1,0.5,0,0.7c-0.6,0.9-1.1,2-1.9,2.7c-1.6,1.5-3.1,3.2-5,4.3c-1,0.8-2.1,1.4-3.3,2
		c0-0.1-0.1-0.2-0.2-0.2c-0.3-0.4-0.6-0.8-0.9-1.2c-0.3-0.3-0.6-0.7-0.8-1.1C154.7,129.4,154.3,127.6,154,125.7z M150.7,111.9
		c1.1-0.4,2.4-0.4,3.5,0.1c0.2,0.1,0.3,0.3,0.4,0.5c-0.6,0.3-1.3,0-2-0.1C152,112.2,151.3,112.1,150.7,111.9z M148.1,111.2
		c-0.1,0-0.3,0.1-0.4,0.2c0.1-0.4,0.3-0.8,0.5-1.1c0.4-0.5,0.9-1,1.3-1.5c0.6-0.6,1.4-1.1,1.7-1.9c0.2-0.6,0-1.2-0.2-1.8
		c0.3-0.1,0.5-0.2,0.8-0.2c0.4,0.2,0.7,0.4,1,0.6c-0.1-0.4-0.1-0.8-0.5-1.1c-0.3-0.2-0.8-0.3-1.1,0c-1.4,0.9-2.4,2.2-3,3.7
		c-0.1,0.3-0.3,0.7-0.4,1c-0.1,0.4-0.2,0.8-0.3,1.3c-0.1,0.3-0.2,0.6-0.3,1c-0.2,0-0.5-0.1-0.7-0.1c0-0.2,0-0.5,0-0.7
		c0-0.3-0.1-0.6-0.1-0.9c0-0.1,0-0.2,0-0.3c0-0.5,0.1-1.1,0.2-1.6c0.3-1.2,0.8-2.3,1.5-3.4c0.7-0.9,1.6-1.6,2.6-2
		c0.9-0.3,1.8,0.3,2.2,1.1c0.3,0.8,0.6,1.7,0.6,2.6l0.1-0.1c-0.1,0.6-0.3,1.3-0.7,1.7c-0.8,0.8-1.9,1.3-2.8,2
		C149.5,110.2,148.8,110.6,148.1,111.2z M148.5,108.7c0.3-1.2,1-2.2,1.9-3c0.3,0.4,0.4,1,0,1.5C149.9,107.8,149.3,108.5,148.5,108.7
		z M143.3,119.1c0.8-1.8,1.8-3.6,2.9-5.2c0.3,0.2,0.6,0.3,0.8,0.5c0.3,0.4,0.4,0.8,0.5,1.2c0.5,2,0.7,4.1,0.7,6.2
		c0,0.6,0,1.2,0.1,1.9c0.2,0,0.5,0,0.7,0c-0.2,0.2-0.4,0.3-0.5,0.5c-0.3,0.2-0.6,0.4-0.9,0.6c-0.5-0.4-1-0.8-1.5-1.3
		c-0.9-1-2-1.8-3-2.7l-0.1,0.1C142.8,120.3,143.1,119.7,143.3,119.1z M137.3,113.6c0.6,0.5,0.6,1.4,0.5,2.2
		c-0.6,1.8-2.2,3.2-3.9,3.8c-0.6,0.2-1.3,0.4-1.9,0.3c-0.3-0.1-0.5-0.3-0.7-0.4c0-0.3-0.1-0.7,0.1-0.9c0.5-0.3,1-0.5,1.4-0.8
		c1.2-0.8,2.4-1.9,3-3.2c-0.2-0.4-0.4-0.8-0.8-1.1C135.7,113.1,136.7,113,137.3,113.6z M135.1,123.9c-0.9-0.3-1.8-0.7-2.7-1.1
		c-2.4-1.1-4.9-2.2-6.9-4c1.6,0.1,3.2,0.2,4.7,0c0.1,0.4,0.2,0.9,0.5,1.3c0.7,0.7,1.7,0.4,2.6,0.4
		C134,121.5,134.6,122.7,135.1,123.9z M133.6,111.1c0.6,0.4,1.2,0.9,1.7,1.4c-0.3,0.2-0.5,0.3-0.7,0.5c0-0.1-0.1-0.2-0.1-0.3
		c-1.7-0.7-3.4-1.3-5.1-1.8C130.7,110.4,132.3,110.5,133.6,111.1z M128.4,111.4c2.2,0.4,4.4,0.8,6.4,2c0.2,0.4,0.4,0.8,0.5,1.2
		c-1.1-0.8-2.4-1.1-3.6-1.5c-1.1-0.3-2.3-0.5-3.5-0.6c-0.2-0.1-0.4,0.1-0.6,0.3c0.7,0.1,1.3,0.1,2,0.2c1.5,0.2,2.9,0.7,4.3,1.3
		c0.5,0.2,0.9,0.5,1.3,0.8c-0.2,0.3-0.5,0.6-0.7,0.9c-0.2-0.1-0.5-0.2-0.7-0.3c-1.5-0.6-3.1-0.7-4.7-0.7c-0.3,0-0.5,0.1-0.8,0.3
		c1.7,0,3.4,0,5.1,0.5c0.3,0.1,0.6,0.2,0.9,0.4c-0.5,0.5-1,0.9-1.6,1.3c-0.9,0.6-1.9,0.8-3,1c-1.1,0.1-2.3,0.1-3.4,0.1
		c-1.2,0-2.3-0.1-3.5,0c-0.8,0-1.6,0.1-2.3,0.4c-1.2,0.5-2.4,1-3.3,2c-0.6,0.5-1.1,1-1.7,1.4c-0.3,0.2-0.6,0.2-0.9,0.1
		c-0.5-0.7-0.3-1.6-0.2-2.4c0.3-0.6,0.6-1.1,0.8-1.7c0.9-0.9,1.9-1.8,3.2-2c1.7-0.3,3.5-0.1,5-1.2c0-0.1,0.1-0.2,0.1-0.3
		c-1.1,0.7-2.5,0.8-3.7,0.9c0.1-0.2,0.2-0.3,0.3-0.5c0.4-0.5,0.7-1.1,1.2-1.6c0.6-0.6,1.4-0.9,2.2-1.1c-0.1-0.1-0.3-0.2-0.4-0.3
		c0.5-0.5,1.1-1.1,1.9-1.2C126,110.9,127.2,111.2,128.4,111.4z M122.7,131.2c0.5,1.2,1.3,2.2,2.1,3.1c-1.2,0.2-2.5,0-3.7-0.3
		c-2-0.6-3.7-2-4.8-3.7c-1.1-1.5-1.8-3.3-2.1-5.2c-0.1-0.5-0.2-1.1-0.3-1.6c0.2,0,0.5,0,0.7,0s0.5-0.1,0.7-0.2
		c-0.3,0.4-0.6,0.9-0.5,1.4c0.1,0.7,0.9,0.8,1.4,0.9c1.5,0.1,2.9-0.8,3.9-1.8c1.2-1.3,1.5-3.1,1.6-4.8c0.5-0.1,1-0.2,1.4-0.2
		c0.4,1.2,1,2.5,1.2,3.8c0.7,3.1,0.2,6.3,1.1,9.3c0.3,1.1,0.9,2,1.5,2.9c-1-0.1-1.7-1-2.4-1.6c-1.3-1.4-2.2-3.2-2.7-5
		c-0.2-0.7-0.2-1.4-0.5-2C121.1,127.9,122,129.6,122.7,131.2z M115.8,123.2c0.4-0.6,1-1.2,1.5-1.7c1.1-0.9,2.3-1.9,3.7-2.3
		c0,0.1,0.1,0.4,0.2,0.5c0,0.2-0.1,0.3-0.1,0.5c-0.1,0.9-0.4,1.8-1.1,2.5c-0.9,1.1-2.2,1.9-3.7,1.9
		C115.6,124.5,115.5,123.7,115.8,123.2z M101.6,72.4c1.2-1.8,2.7-3.5,4.6-4.6c1.2-0.6,2.6-1.2,4-0.8c-0.6,1.2-1.8,1.9-2.9,2.5
		c-1.2,0.7-2.3,1.7-3.4,2.7c-0.6,0.6-1.3,1.1-1.7,1.8c0.7-0.4,1.2-1,1.8-1.6c1.6-1.4,3.3-2.7,5.2-3.5c1.1-0.4,2.1-1,3.2-1.2
		c0.1,0,0.2-0.1,0.3-0.1c1.3-0.3,2.7-0.5,4.1-0.7c0.1,0,0.2,0,0.3,0c1,0,1.9,0,2.9,0c2.1,0,4.2,0.5,6.1,1.5c0.9,0.6,1.9,1.3,2.6,2.2
		c0.3,0.4,0.5,0.7,0.8,1.1c0.9,1.7,1.3,3.7,1.1,5.6c-0.1,0.9-0.2,1.9-0.4,2.8c-0.1,0.4-0.2,0.8-0.4,1.2c-0.1-0.3-0.2-0.7-0.2-1
		c-0.1-0.8-0.2-1.5-0.4-2.2c-0.1-0.5-0.4-1-0.7-1.5c-1-1.9-2.2-3.7-3.7-5.3c-0.9-1-2.1-1.8-3.2-2.4c-0.7-0.3-1.5-0.4-2.1,0.1
		c0.9,0.4,1.8,0.7,2.7,1.1c0.9,0.4,1.7,1.1,2.5,1.8c1.8,1.4,3,3.4,3.5,5.6c0.5,1.5,0.4,3.2,0.4,4.8c-0.6,3-1.7,5.9-2.6,8.9
		c-0.1,0.9-0.1,1.8,0,2.8c-0.5-0.4-0.9-0.8-1.3-1.3c-0.7-0.8-1.5-1.5-1.9-2.4c-0.2-0.7-0.4-1.4-1-1.9c-0.8-1-2.1-1.6-3.3-2.1
		c-1.1-0.3-2.3-0.7-3.5-0.5c0.4,0.3,0.9,0.3,1.4,0.4c1.5,0.3,2.9,1.1,4.1,2.1c-0.1,0-0.3,0-0.4,0c-1.2-0.5-2.6-0.9-3.9-0.9
		c-0.4,0-0.8-0.1-1.2-0.2c-1.5-0.3-3.3-0.2-4.6-1c0.7,0.1,1.5,0.3,2.2,0c-0.1-0.5-0.4-0.9-0.8-1.2c-1.8-1.3-4.1-1.6-6.2-1.5
		c-0.5,0-1.1,0-1.5,0.5c0.9,0,1.9-0.1,2.8-0.2c1.1,0.2,2.3,0.4,3.4,1c0.4,0.2,0.6,0.5,0.8,0.8c-1.8,0.1-3.5-0.6-5.2-0.7
		c0,0.1,0,0.2,0,0.2c1.4,0.1,2.8,0.7,4.1,1.4c1.5,0.8,2.7,2,4,3.2c0.1,0.1,0.2,0.3,0.3,0.4c-0.6,0.1-1.3,0.1-1.9,0.1
		c-1.4-0.2-2.8-0.4-4-1.1c-0.9-0.6-1.8-1.2-2.6-1.9c-1.2-1-2.3-2.1-3.6-2.9c-0.6-0.4-1.2-0.8-1.8-1.1c-0.2,0-0.5,0-0.7,0.1
		c0.6,0.2,1.2,0.4,1.7,0.8c-0.9,0-1.8,0-2.7,0.3c-1.2,0.3-2.4,0.8-3.5,1.5s-1.8,1.7-2.3,2.9c-0.5,1.5-0.3,3-0.2,4.5
		c0.1,0.7,0.3,1.5,0.4,2.2c-0.3,0-0.6,0.1-1,0s-1-0.3-1-0.9c-0.1-2-0.6-3.9-0.3-5.9c0.3-1.7,0.8-3.5,2-4.8c1-1.3,2.3-2.2,3.5-3.2
		c-0.5,1-1.3,1.7-1.7,2.7c1.3-1,2-2.6,2.9-3.9c0.6-0.9,1.1-1.9,1.7-2.9c0.2-0.5,0.8-0.4,1.2-0.5c-0.2,0-0.5,0-0.7,0l0.1-0.2
		C100.1,74.5,100.9,73.5,101.6,72.4z M93.5,97.9c0,0.2,0.1,0.6,0.1,0.7h-0.2c-0.6,0.1-1.1,0.1-1.7,0.1c0-0.3-0.1-0.5-0.1-0.8
		C92.3,98,92.9,98,93.5,97.9z M91.5,97.1c-0.1-0.5-0.1-1.1-0.2-1.6c0.6,0.2,1.2,0.5,1.9,0.7c0.1,0.3,0.1,0.5,0.2,0.8
		C92.7,97.1,92.1,97.2,91.5,97.1z M93.5,96.4c0.2,0,0.4-0.1,0.6-0.1c0.3,0,0.6,0,1,0c-0.4,0.3-0.9,0.4-1.4,0.6
		C93.7,96.7,93.6,96.6,93.5,96.4z M92,99.2c0.6,0,1.1,0,1.7-0.1c0.2,0.7,0.3,1.4,0.3,2.1c-0.7-0.1-1.3-0.1-2-0.1
		c-0.1-0.7-0.2-1.3-0.2-2L92,99.2z M94,98.5c0-0.2-0.1-0.4-0.1-0.6c0.8-0.2,1.5-0.5,2.2-0.8c-0.2,0.3-0.5,0.5-0.7,0.7
		C95,98,94.5,98.2,94,98.5z M96.9,97.9c0.1,0,0.2,0.1,0.3,0.2c0.5,1.6,1.4,3.1,2.5,4.4c-1.7-0.7-3.5-1.1-5.3-1.3
		c-0.1-0.7-0.3-1.5-0.4-2.2C95.1,98.9,96.1,98.5,96.9,97.9z M99.8,101.7c-1.2-1.4-2.1-3.2-2.4-5c-0.2-0.9-0.2-1.9,0.4-2.8
		c1-1.1,2.3-1.9,3.7-2.3c-0.5,0.9-0.8,1.9-0.7,3c0.2,1.5,0.8,2.9,1.7,4.1c1,1.2,2.4,2,3.9,2.1c1.3,0,2.4-0.8,3.1-1.9
		c0.1-0.5,0.2-1,0.3-1.5c0.6,1.4,0.7,2.9,0.6,4.4c-0.1,0.7-0.4,1.4-0.9,1.9c-0.9,0.9-2.3,1.2-3.5,1.1c-0.3,0-0.6,0-1,0
		c-0.9-0.2-1.8-0.5-2.6-0.9C101.4,103.3,100.5,102.6,99.8,101.7z M101.7,90.2c-1.5,0.1-2.9,0.9-4.2,1.7c0.3-0.9,0.6-2,1.6-2.3
		c1.8-0.5,3.6,0.3,5.3,1c0.1,0.2,0.2,0.4,0.3,0.5C103.8,90.6,102.8,90.3,101.7,90.2z M105.9,92.5C107,93,108,94,108.6,95
		c0.8,1,1,2.5,0.6,3.7c-0.4,0.8-1.1,1.4-1.9,1.6c-1.3,0.4-2.6-0.2-3.6-1c-0.7-0.7-1.4-1.3-1.8-2.2c-0.6-1.4-1-3-0.4-4.5
		c0.1-0.4,0.5-0.7,0.8-1c0.7-0.1,1.4,0,2,0C104.7,91.9,105.5,92,105.9,92.5z M110.9,100c-0.2-1.4-0.7-2.7-1.2-4
		c-0.2-0.5-0.6-1-1-1.4c0.4,0.2,0.9,0.4,1.4,0.6c-0.4-0.4-0.8-0.6-1.2-1c-1-0.9-1.9-1.9-2.9-2.8c-0.4-0.4-1-0.7-1.5-1
		c-1.5-1.2-3.6-1.5-5.5-1c-1.3,0.4-1.6,1.9-2.1,3c-0.5,0.9-1.1,1.8-1.5,2.7c-0.6,0.2-1.3,0.3-1.9,0.3c-0.1-0.5-0.3-0.9-0.3-1.4
		c-0.3-1.4-0.3-2.8-0.2-4.2c0.1-1.4,1-2.6,2-3.5c1.1-1,2.6-1.4,4-1.9c0.9-0.2,1.9-0.1,2.9-0.2c2.8,2.2,5.3,5,8.7,6.3
		c1.2,0.5,2.5,0.4,3.8,0.3c0.5-0.1,1-0.2,1.5-0.4c0-0.1-0.1-0.2-0.2-0.3c-1-1.2-2.3-2.3-3.6-3.1c0.7,0.1,1.5,0.2,2.2,0.3
		c0.5,0.1,1.2,0.1,1.6,0.4c0.9,1.3,1.4,2.9,2,4.4c0.8,2.2,1.1,4.5,2.2,6.6c0.3,0.5,0.7,1,1.2,1.4c-0.1,0.1-0.2,0.3-0.3,0.4
		c-0.1,0.1-0.3,0.3-0.4,0.5c-0.2,0.2-0.3,0.4-0.4,0.6c0,0.1-0.1,0.2-0.1,0.2c-1.4,0.1-2.7,0.7-3.6,1.8c-1.3-0.1-2.5-0.1-3.8-0.1
		c-0.7,0-1.4,0.1-2.1,0C111,102.5,110.9,101.2,110.9,100z M120.6,93.2c-0.3-1.1-0.7-2.1-1.4-2.9c-0.4-0.5-1-0.9-1.7-0.8
		c-0.1,0-0.2,0.1-0.3,0.1c0.1-0.4,0.2-0.8,0.4-1.1c0.3,0,0.6,0,0.9,0.1c2.5,1.6,3.7,5.1,2.6,7.8c-0.1,0.5-0.7,0.4-1,0.2
		c-0.6-0.4-0.9-1-1.3-1.5c0.4,0.2,0.9,0.5,1.4,0.4C120.9,94.9,120.8,94,120.6,93.2z M118.7,90.5c-0.1,0.5-0.4,0.9-0.7,1.3
		c-0.2-0.6-0.6-1.1-0.5-1.8C118.1,89.6,118.7,90,118.7,90.5z M120.5,99c-0.5-0.7-0.8-1.6-1.1-2.4c0.4,0.1,0.7,0.4,1.1,0.5
		s0.7-0.3,0.9-0.6c0.6-1.2,0.5-2.6,0.3-3.8c-0.3-1.3-1-2.5-1.9-3.6c0.1,0,0.2,0.1,0.3,0.1c0.5,0.1,0.8,0.5,1.1,0.9
		c1,1.4,1.3,3,1.7,4.6c0.2,1,0.1,1.9,0,2.9c-0.2,0.7-0.5,1.4-1,1.9C121.3,99.5,120.8,99.4,120.5,99z M89.9,103.7
		c-0.2,0.2-0.5,0.4-0.8,0.4c-0.7-2.6-1.3-5.2-1.6-7.8c0.5,0.3,1.1,0.5,1.6,0.7s0.9,0.3,1.4,0.5c0,0.3,0,0.7,0,1
		c-0.4,0-0.8-0.1-1.3-0.1c0,0.1,0.1,0.2,0.1,0.3c0.4,0.1,0.8,0.2,1.2,0.3c0.1,0.8,0.1,1.6,0.1,2.4c-0.4,0.3-0.9,0.6-1.2,1.1
		c-0.2,0.2-0.3,0.5-0.4,0.7C89.3,103.5,89.6,103.6,89.9,103.7z M86.3,108.4c0.1,0.2,0.3,0.5,0.4,0.7c0.3,0,0.5-0.1,0.8-0.1
		c-0.2,0.6-0.4,1.2-0.5,1.8c-0.1,0.6,0,1.2,0,1.8c0.2,0.9,0.6,1.8,1,2.6c0.2,0.4,0.3,0.7,0.5,1.1c-0.3,0.8-0.6,1.5-1,2.3
		s-0.7,1.6-1.3,2.3c-0.3-1.8-0.4-3.6-1-5.3c-0.1-1.2-0.7-2.4-0.9-3.6c-0.5-2.5-1.3-4.9-2.1-7.3c-0.5-1.9-1.2-3.6-1.7-5.5
		c-0.2-0.9-0.4-1.9-0.6-2.8c-0.4-1.5-0.2-3.2,0.1-4.7c0.7-3.2,2.1-6.2,4.1-8.8c0.3-0.4,0.6-0.8,0.8-1.2c0.3-0.1,0.6-0.2,0.9-0.3
		c-0.1,1.3,0,2.7,0,4c0,0.1,0,0.3,0,0.3c-0.1,1,0.3,1.9,0.2,2.8c-0.1,2.4,0.5,4.7,0.8,7.1c-0.4-0.3-0.8-0.6-1.2-0.9
		c0.3,0.5,0.7,0.8,1.1,1.1c0.3,0.2,0.3,0.6,0.4,0.9c0.2,1.7,0.5,3.4,0.9,5.1c0.2,0.9,0.2,1.8,0.5,2.7c-0.1,0.1-0.3,0.3-0.4,0.4
		C87.3,105.9,86.2,107,86.3,108.4z M79.1,89.7c0.2,0.1,0.3,0.1,0.5,0.2c0.2-1.5,0.4-2.9,0.9-4.3c0.3-1.1,0.7-2.1,1.3-3.1
		c0.3-0.5,0.5-1.1,1-1.4c0.3,0,0.7,0,1,0.1c0.1,0.1,0.3,0.2,0.4,0.3c-0.2,0.1-0.4,0.3-0.5,0.5c-0.3,0.7-0.6,1.3-1,2
		c-1.1,2.3-2.2,4.6-2.9,7.1c-0.2,0.6-0.3,1.2-0.5,1.8c0.1-0.8,0.2-1.7,0.2-2.5C79.4,90.1,79.2,89.9,79.1,89.7z M95,77.8
		c-1.1,0.8-2.2,1.6-3,2.7c-0.5,0.5-0.8,1.2-1.3,1.6c-0.2,0-0.3,0-0.5,0c-0.2-1.4,0.9-2.6,1.9-3.5c1.8-1.7,4.2-3,6.7-2.7
		c0,0.1,0,0.3-0.1,0.4C97.4,76.5,96.1,77.1,95,77.8z M98.5,76.8c-0.9,1.1-1.1,2.6-2.4,3.4c-1.4,0.9-2.6,2-3.6,3.3
		c-0.2,0.2-0.4,0.4-0.5,0.6c-0.2-0.2-0.5-0.3-0.7-0.5c-0.2-0.8,0.3-1.6,0.6-2.3c1.2-1.9,3.1-3.3,5.1-4.2
		C97.4,76.9,97.9,76.7,98.5,76.8z M90.3,83.2c0,0.3,0,0.7,0,1c0.3,0.3,0.7,0.6,1.1,0.9c-0.4,0.8-0.6,1.6-0.9,2.5
		c-0.6,2.3-0.4,4.6-0.3,6.9c-0.4-0.4-0.8-0.7-1.3-1.1c0.3,0.7,0.9,1.1,1.4,1.6c0.1,0.5,0.1,1,0.2,1.6c0,0.1,0,0.3-0.1,0.4
		c-0.3-0.1-0.6-0.1-0.8-0.2c-0.4-0.1-0.8-0.2-1.2-0.4c-0.3-0.2-0.6-0.3-1-0.5c-0.8-4.3-1.3-8.8-0.6-13.2c0.1-0.4,0.2-0.7,0.3-1.1
		c0.3-0.1,0.6,0,0.9,0c0.4,0.2,0.9,0.3,1.1,0.7C89.4,82.7,89.9,82.9,90.3,83.2z M82.3,66.5c1.5-1.5,3.2-2.9,5.1-3.8
		c-0.1-0.1-0.3-0.2-0.4-0.3c0.3,0,0.6,0.2,0.9,0c1.9-1,4-1.5,6.1-1.9c1.9-0.1,3.9-0.1,5.5,0.9c1.1,0.6,2,1.8,1.9,3.1
		c0,2.2-0.8,4.2-1.3,6.3c-0.4,1.5-0.9,3-1,4.5c-1.6-0.2-3.2,0.2-4.7,0.8c-0.2,0.1-0.4,0.3-0.6,0.4c-0.8-1-1.7-1.8-2.5-2.7
		c-1-0.9-1.9-1.9-3-2.7c-0.7-0.5-1.3-1.1-2-1.6c-1.4-1-3.1-1.7-4.8-1.9C81.7,67.3,81.9,66.9,82.3,66.5z M79.4,127.4
		c-0.1,0.4-0.1,0.9-0.2,1.3c-0.5,0-0.9,0-1.4,0c-0.8-0.1-1.8-0.4-1.9-1.3c0.5-1,1.7-1.4,2.6-1.9c0.3-0.1,0.5-0.3,0.8-0.4
		C79.6,125.8,79.5,126.6,79.4,127.4z M84.2,127.2c-0.1,0.3-0.3,0.7-0.5,1c-0.3,0.6-0.8,1.2-1.2,1.7c-0.4,0.4-0.9,0.8-1.5,0.9
		c-0.3,0-0.5-0.2-0.7-0.4c-0.4-1-0.3-2.1-0.2-3.1v-0.2c0.1-0.8-0.1-1.6-0.1-2.3c-0.3-1.1-1.1-2.1-1.7-3c-1.1-1.3-2-2.7-3-4.1
		c-2.2-2.8-4.4-5.6-6.6-8.4c-0.9-1.2-2-2.3-2.8-3.6c-0.6-1-1.2-2-1.8-2.9c-0.5-1-1-1.9-1.5-2.9c-0.5-1.3-1.1-2.6-1.4-4
		c-0.5-2-0.9-4-0.8-6.1c0.3-1.9,0.7-3.8,1.5-5.6c0.4-1,0.8-2,1.4-3c0.9-1.5,1.8-3,3-4.3c0.5-0.6,1-1.1,1.5-1.7
		c1.7-1.8,3.7-3.2,5.9-4.4c1.7-0.9,3.5-1.5,5.3-1.9c3.1-0.5,6.3,0.7,8.7,2.7c1.8,1.4,3.3,3,4.8,4.5c0.3,0.3,0.5,0.6,0.8,1
		c-0.6,0.4-1.1,0.7-1.6,1.1c-1,0.8-1.9,1.8-2.5,3c-1.2-0.2-2.3-0.4-3.5-0.5c-0.3,0-0.5,0-0.8-0.1c-2.1-0.1-4.1-0.4-6.2-0.1
		c-2.3,0.1-4.6,0.5-6.8,1.2c-1.6,0.4-3.2,1.1-4.5,2.2c1.1-0.4,2-1.1,3.1-1.3c-0.8,1.4-1.6,2.8-2.1,4.3c0.1,0,0.3,0.1,0.4,0.1
		c-0.1,0-0.3,0-0.5,0c-0.4,1.7-1,3.5-1.1,5.3c-0.1,1-0.2,2.1-0.1,3.1c0.2,2.1,0.7,4.2,1.7,6.1c0.4,0.9,1.2,1.6,1.7,2.5
		c0.4,0.6,0.9,1.2,1.4,1.7c0.8,0.7,1.3,1.7,2.1,2.5c0.7,0.8,1.4,1.7,2.2,2.5c0.8,0.8,1.6,1.7,2.3,2.6c0.9,1.2,1.8,2.4,2.7,3.7
		c0.6,0.9,1,1.9,1.5,2.9c0.5,1.3,0.6,2.7,0.7,4.1c0.1,0,0.2-0.1,0.3-0.1c0-1.1-0.1-2.3-0.4-3.3c-0.1-0.5-0.1-1,0-1.6
		c0.2-1.2,0.2-2.4,0.1-3.5c-0.2-2.3-0.7-4.5-1.4-6.7c-0.4-1.8-1.3-3.5-1.9-5.3c-1.8-4.4-3-9.2-2.5-13.9c0.3-1.6,0.5-3.1,0.9-4.6
		c0.4-1.2,0.6-2.4,1.2-3.5c0.5-0.4,1.2-0.1,1.8-0.2c-0.2,0.3-0.3,0.6-0.5,0.9c-1.1,2.2-1.8,4.6-2.2,7.1c-0.2,1.1-0.2,2.3-0.2,3.5
		c0,1.4,0.4,2.8,0.6,4.2c0.2,0.9,0.5,1.8,0.8,2.7c0.4,1.7,1.1,3.4,1.5,5.2c0.1,0.3,0.2,0.7,0.3,1c0.3,0.8,0.6,1.6,0.9,2.5
		c0.7,2,1.4,4.1,1.7,6.3c0.2,0.7,0.4,1.4,0.5,2.2c0.2,1,0.4,2.1,0.5,3.1s0,2.1-0.1,3.1C85,124,84.9,125.9,84.2,127.2z M76.9,88.2
		c0.1,1.4-0.1,2.8,0.1,4.1c0.2,1,0.1,2,0.4,3c0.3,1.9,0.9,3.8,1.6,5.6c0.2,0.9,0.5,1.8,0.9,2.6c0.5,1.5,0.8,3,1.4,4.5
		c0.6,1.9,1.1,3.8,1.3,5.7c0.1,1.1,0.2,2.3,0,3.4c-0.2-0.3-0.4-0.6-0.6-0.9c-1-1.4-2-2.8-3.1-4.2c-1.3-1.5-2.6-2.8-3.9-4.3
		c-1.9-2-3.8-4.1-5.4-6.4c-1.2-1.6-1.5-3.7-1.8-5.6c-0.2-2.3,0-4.7,0.8-6.9c0.5-1.8,1.4-3.4,2.3-5c0.3-0.6,0.8-1.2,1.2-1.9
		c0.8-0.5,1.8-0.5,2.7-0.7c1.5-0.4,3.1-0.3,4.7-0.5c-0.3,0.8-0.7,1.6-1,2.5c-0.2,0.7-0.7,1.2-0.9,1.8C77,86.1,76.8,87.2,76.9,88.2z
		 M90.5,121.3c-0.6,1.3-1.5,2.4-2.5,3.4c-0.1,0.1-0.3,0.3-0.4,0.4c-0.6,0.5-1.3,1-1.9,1.5c-0.3,0.2-0.5,0.4-0.8,0.5
		c0.7-0.9,1-2.5,1.3-3.5c0.1-0.7,0.2-1.5,0.6-2.2c0.5-0.8,0.9-1.6,1.2-2.5c0.4-0.8,0.6-1.6,0.8-2.4c0.4,0.4,0.8,0.8,1.3,1.1
		c0.5,0.1,1.1,0.1,1.7,0.2C91.6,119,91.1,120.2,90.5,121.3z M92,116.6c-0.8,0.1-1.7,0-2.4-0.5c-1-1.3-2-2.8-2.1-4.5c0-0.5,0-1,0-1.5
		c0.3-1.2,0.9-2.3,1.7-3.2c0.3-0.3,0.5-0.6,0.6-0.9c-0.3,0.2-0.6,0.4-0.9,0.6c-0.4,0.4-0.8,0.9-1.2,1.2c-0.2,0.1-0.3,0.2-0.5,0.3
		c0-1,0.5-2,1.2-2.7c0.4-0.5,1-0.9,1.5-1.3c0.3-0.2,0.6-0.4,0.9-0.5c0.8-0.4,1.6-0.7,2.5-0.9c-0.2-0.1-0.4-0.1-0.5-0.2
		c-0.8,0.1-1.7,0.3-2.5,0.2c0.4-0.3,0.9-0.6,1.4-0.8c0.9-0.3,1.9-0.5,2.8-0.4c1.3,0.1,2.5,0.3,3.7,0.7c1.1,0.4,2.1,0.8,3.1,1.4
		c0.4,0.2,0.7,0.5,1.1,0.7c0.7,0.3,1.5,0.6,2.3,0.7c1.5,0.2,3,0.1,4.3-0.6c0.2-0.1,0.4-0.2,0.6-0.3c1.9-0.4,3.8-0.3,5.7-0.3
		c1.2,0,2.4,0.4,3.7,0.6c0.4,0.1,0.6-0.3,0.9-0.5c0.3-0.4,0.8-0.8,1-1.2c0-0.5-0.5-0.7-0.7-1c0.6-0.2,1.3-0.1,1.9,0.3
		c0.2,0.2,0.4,0.6,0.3,0.9c-0.2,0.7-0.4,1.5-1.1,1.8c-1,0.4-2.1,0.5-3.1,0.9c-0.9,0.4-1.8,1-2.7,1.4c-0.5,0.3-1,0.3-1.5,0.1
		c-0.4-0.2-0.5-0.7-0.6-1.1c0.4-0.3,1-0.2,1.5-0.2c-0.5-1.1-2-0.7-2.9-0.4c-0.3,0.1-0.6,0.1-0.9,0.2c-1.4,0.2-2.6,0.8-3.9,1.5
		c-0.5,0.3-0.9,0.7-1.3,1.1c0.2,0,0.3-0.1,0.5-0.2c1.6-1.2,3.5-2,5.5-2.1c0.3,0,0.6,0.1,0.8,0.4c0.2,0.8,0.8,1.4,1.6,1.5
		c0.6,0.1,1.2-0.2,1.7-0.4c0.1,0.5,0,1.2,0.5,1.6c0.6,0.4,1.4,0.2,2.1,0.2c0.8-0.2,1.3-0.9,1.6-1.6c0.3-0.6,0.5-1.3,0.6-2
		c0.4-0.1,1,0,1.3-0.4c0.5-0.6,0.8-1.4,0.9-2.3c0.1-0.5-0.3-0.8-0.5-1.2c1-0.6,2.1-0.9,3.3-1.1c0.7-0.1,1.5,0.1,2.2,0.1
		c-0.8-0.6-1.8-0.5-2.8-0.4c-1,0.2-2,0.6-3,1.1c-0.5,0.4-1.1,0-1.7-0.1c0.1-0.1,0.2-0.3,0.4-0.5c0.5-0.5,0.7-0.6,1-1.1
		c0.4-0.5,0.6-1,0.7-1.6c0.3-1.1,0.1-2.2,0.7-3.2c0.2-0.4,0.3-0.9,0.5-1.3c-0.5,0.4-0.6,1-0.9,1.5c-0.1-1.2-0.3-2.4-0.8-3.6
		c0.7,0.6,1.1,1.3,1.7,2c0.2,0.3,0.5,0.5,0.8,0.8c0.4,0.4,0.8,0.8,1.3,1.2l0.1,0.1c0.2,0.1,0.4,0.2,0.7,0.3
		c-0.3-1.4-0.6-2.8-0.5-4.2c1.6-0.6,3.2,0.1,4.7,0.6c0,0.1,0,0.2,0,0.3c-0.1,0-0.3,0-0.4,0c-0.6-0.1-1.2-0.2-1.8-0.1
		c0.4,0.4,1.1,0.4,1.6,0.5c1.2,0.1,2.2,0.9,3,1.7c0.7,0.8,1.5,1.8,1.4,2.9c-0.8-0.5-1.4-1.3-2.1-2c0.9,1.4,1.5,3,1.4,4.6
		c-0.2,1.4-0.7,2.7-1.4,3.9c-1.3,2.4-3.1,4.6-5.4,6.1c-0.4,0.4-0.9,0-1.3-0.1c0.5-0.3,0.9-0.6,1.4-0.8c-1.6,0.4-3,1.3-4.3,2.3
		c-0.9,1.3-2.6,1.8-3.4,3.1c0,0.1-0.1,0.1-0.1,0.2c-0.2,0.2-0.3,0.5-0.5,0.7c-0.5,0.1-1,0.1-1.4,0.1c-0.5,0.2-1,0.4-1.4,0.6
		c-0.1,0-0.3,0.1-0.5,0.1c-0.4,0.4-0.9,0.8-1.3,1.3c-0.3,0.5-0.7,1.1-0.9,1.6c-0.7-0.2-1.4-0.4-2.1-0.7c-0.4-0.2-0.8-0.3-1.2-0.4
		c-0.7-0.2-1.4-0.5-2-0.7c-0.7-0.3-1.4-0.6-2.2-0.9c-0.9-0.4-1.8-1-2.5-1.7c-1.7-2.1-2.5-4.7-3.9-7.1c-0.4-1-1.4-2.2-2.6-2
		c-0.7,0.3-0.9,1-1.2,1.7c-0.4,1.3,0.1,2.6,0.8,3.7c0.8,1.4,2.1,2.3,2.9,3.7c-0.6,0-1.2-0.1-1.7-0.5c-1.1-0.6-2-1.6-2.6-2.7
		c-0.7-1.3-0.9-2.8-1.8-4c-0.4-0.6-1-1.1-1.7-1.3c-0.5-0.2-0.9,0.2-1.1,0.6c-1,1.9-0.7,4.2,0.2,6.1c0.3,0.5,0.4,1.2,0.6,1.8
		c0.2,0.5,0.5,1,0.7,1.4C92.1,116.4,92,116.6,92,116.6z M120.3,105.4c-0.1,1.2-0.6,2.5-1.6,3.2c-0.6,0.2-1.4,0.4-1.9-0.1
		c-0.1-0.5-0.1-1.1-0.2-1.6C117.7,106.2,118.9,105.6,120.3,105.4z M92,114.6c0.6,0.5,1.1,1.1,1.8,1.5c0.7,0.4,1.5,0.7,1.8,1.5
		c0.3,0.5,0.7,0.9,1.1,1.4C94.7,118.2,92.8,116.7,92,114.6z M100.2,120.3c-1.6-0.6-3.3-1.3-4.3-2.8c0.6,0.2,1.2,0.6,1.8,0.9
		c-1.1-1.1-2.5-1.7-3.7-2.6c-0.9-0.7-1.7-1.5-2.3-2.4c-0.4-0.9-0.8-1.9-0.9-2.9c0-1-0.1-2.1,0.4-3c0.4-0.3,1.1-0.4,1.5,0
		c1.1,0.9,1.4,2.3,1.9,3.5c0.5,1.3,1.3,2.4,2.3,3.4c0.5,0.5,1.1,0.8,1.7,1c0.5,0.1,0.9,0.2,1.4,0.2c0,0.3,0.1,0.7,0.2,1
		c0-0.5,0-1-0.1-1.4c-0.1-0.6-0.6-0.9-0.9-1.4c-0.8-1.1-1.9-2-2.4-3.3c-0.5-0.9-0.6-2-0.2-3c0.1-0.3,0.2-0.5,0.4-0.8
		c0.5-0.1,0.9-0.1,1.4,0c0.4,0.4,0.8,0.8,1.1,1.3c0.2,0.3,0.4,0.7,0.6,1c1.1,1.9,1.8,4,3.1,5.6c1.4,1.3,3,2.3,4.8,3.1
		c0.5,0.2,0.9,0.6,1.1,1.2c0.2,0.9,0.1,1.9-0.1,2.8c-0.9-0.3-1.7-0.8-2.7-0.9c-0.4-0.1-0.9-0.1-1.2-0.4c-1-1.1-1.9-2.4-3.2-3.1
		c0.1,0.2,0.3,0.4,0.5,0.6c0.9,0.8,1.8,1.7,2.5,2.6c-0.7,0-1.5,0-2.2,0c-1.5-1-3.1-2-4.6-3c0.4,0.8,1.4,1.2,2.1,1.7s1.6,0.9,2.2,1.5
		C101.5,121.1,100.9,120.6,100.2,120.3z M101,122.2c0.4-0.3,0.8-0.7,1.2-0.8l0.1,0.1v-0.1c1-0.3,2-0.4,3-0.1
		c0.8,0.2,1.7,0.2,2.4,0.6c0.9,0.4,2,1,2.2,2.1c-0.1,0.9-1,1.3-1.8,1.4c0-0.1-0.1-0.3-0.1-0.4c-0.6-0.2-1.2-0.6-1.8-0.8
		c-1.4-0.5-3-0.7-4.6-0.5c-0.3,0.1-0.6,0.3-0.9,0.5C100.4,123.6,100.4,122.7,101,122.2z M99.2,137.4c-0.6,0.4-1.2,0.8-1.7,1.2
		c-1.8,1.2-3.8,2-5.8,2.8c-1.4,0.5-2.8,0.6-4.3,0.8c-1.7,0.1-3.5-0.1-4.7-1.3c-0.6-0.5-1.1-1.2-1.1-2c-0.1-1.1,0.2-2.2,0.6-3.2
		c0.5-1.2,1.6-2.1,2.6-2.9c0.4-0.3,0.9-0.6,1.3-0.9c0.4-0.2,0.8-0.3,1.1-0.5c0.4-0.2,0.9-0.4,1.3-0.6c1.7-0.7,3.3-1.4,5.1-1.9
		c2.8-1.1,5.6-2.3,7.7-4.4c0.4-0.5,1.1-0.6,1.7-0.6c1.6,0.1,3.2,0.5,4.5,1.4c-0.1,0.4-0.3,0.9-0.5,1.3c-0.9,2.2-2,4.4-3.5,6.3
		C102.5,134.7,100.9,136.1,99.2,137.4z M113,132.8c-0.1,0.8,0.1,1.6-0.3,2.3c-0.5-1.7-0.3-3.5-0.3-5.2c0.1-1.6,0.1-3.3-0.8-4.7
		c0.2,1.2,0.7,2.4,0.4,3.6c-1.4-0.1-3.2-0.1-4.2,1.2c0.5-0.2,1.1-0.4,1.7-0.5c-0.3,0.5-0.7,1-1.1,1.4c-0.1,0.1-0.2,0.2-0.3,0.2
		c-1,1.1-2.1,2.1-3.4,2.9c-1.1,0.8-2.2,1.8-3.5,2.3c0.6-0.7,1.2-1.3,1.8-2c1.9-2.4,3.4-5.2,4.5-8.1c1.1-0.1,2.1-0.6,2.8-1.5
		c0.2-1-0.4-1.9-1-2.6c0.5-1.1,0.6-2.3,0.7-3.4c0.5,0.3,1,0.5,1.5,0.6c0.2,0.9,0.4,1.7,0.5,2.6c0.4,2.6,0.8,5.1,1,7.7
		C113.2,130.8,113.1,131.8,113,132.8z M128.2,138.9c-0.8,0.7-1.6,1.3-2.6,1.6c-2.6,0.9-5.6,0.8-8.2,0c-0.3-0.1-0.5-0.2-0.8-0.3
		c-0.8-0.4-1.5-1-2.1-1.6s-0.9-1.4-1.2-2.1c-0.1-1.5-0.1-3,0.2-4.5c0.1-0.9,0.1-1.8,0-2.6c-0.2-1.4-0.2-2.7-0.4-4.1
		c-0.2-1.1-0.3-2.2-0.5-3.3c-0.2-0.7-0.3-1.4-0.4-2.2c0.1,0,0.2-0.1,0.3-0.1c0.7,0.2,0.6,1,0.6,1.6c0,0.7,0.3,1.3,0.4,1.9
		c0.4,2.3,0.8,4.7,2.1,6.7c0.5,0.7,1,1.4,1.5,2.1c1.6,1.7,3.8,2.8,6.2,2.9c0.7,0,1.4-0.2,2.1-0.3c0.7,0.7,1.6,1.3,2.6,1.5
		c0.6,0.2,1.3,0.4,1.9,0.5C129.4,137.4,129,138.3,128.2,138.9z M132.7,135.8c-1,0.2-2,0.2-3,0.1c-1.4-0.2-2.6-1.2-3.3-2.5
		c-1-1.8-1.3-4-1.3-6.1c-0.2-1.3-0.1-2.5-0.3-3.8c-0.1-1-0.4-2-0.7-3.1c-0.2-0.6-0.4-1.2-0.6-1.8c0.5,0,1,0,1.4,0.1
		c0.9,0.6,1.6,1.4,2.5,2c1.5,0.7,3,1.6,4.6,2.2c1,0.5,2,0.9,3,1.3c0.2,0.1,0.5,0.2,0.6,0.4c0.5,0.9,0.9,1.8,1.3,2.8
		c0.5,1,0.9,2.1,1.4,3.1c0.3,0.4,0.5,0.8,0.7,1.3c-0.2,0.2-0.3,0.3-0.5,0.5c-0.5,0.6-1,1.2-1.6,1.6c-0.8,0.5-1.7,1-2.7,1.3
		C133.7,135.5,133.2,135.7,132.7,135.8z M136.6,135.9c-0.1-0.1-0.2-0.3-0.2-0.3c0.8-0.4,1.5-1,2.2-1.6c0.3-0.3,0.7-0.6,1-0.9
		c0.7,0.9,1.3,1.9,1.9,2.8C139.9,136.3,138.2,136.1,136.6,135.9z M156.1,139.5c-1.1,0.8-2.5,1.2-3.8,1.3c-1.7,0.2-3.4-0.2-4.9-0.9
		c-1.8-0.9-3.3-2.2-4.6-3.7c-0.5-0.5-1.1-0.9-1.4-1.6c-1-1.6-2.1-3.1-2.9-4.7c-0.8-1.4-1.4-3-2.1-4.5c-0.8-1.7-1.6-3.5-2.4-5.2
		c0.7-0.4,1.4-0.9,2-1.4c0.8-0.7,1.5-1.5,2-2.3c0.7,0.5,1.2,1.2,1.8,1.8c1,0.9,1.9,1.9,3,2.8c2.2,2,4.4,4,6.5,6.1
		c1.6,1.4,3.1,3.1,4.5,4.7c0.7,0.7,1.2,1.5,1.8,2.3c0.1,0.2,0.2,0.3,0.4,0.5c0,0.1-0.1,0.2-0.1,0.2l0.1-0.1c0.5,0.9,1,1.9,1,3
		C157,138.6,156.6,139.1,156.1,139.5z M179.6,135c-3.6,0.3-7.1,0.6-10.7,0.7c-0.1,0-0.4,0-0.5,0.1c-2,0.1-4,0-6,0
		c-1.5-0.1-3-0.1-4.6-0.2c-0.2-0.3-0.5-0.7-0.7-1.1c0.1-0.1,0.2-0.2,0.2-0.3c1.1-0.6,2.2-1.2,3.3-2c2.7-1.7,5.3-3.7,7.1-6.4
		c0.1-0.2,0.3-0.4,0.4-0.5c0.3-0.1,0.5,0.1,0.7,0.2c1.3,0.9,2.6,1.7,3.9,2.5c3.6,2.3,7.4,4.2,11.1,6.1
		C182.6,134.7,181.1,134.8,179.6,135z M213.1,124.2c-0.2,0.9-0.4,1.9-0.7,2.8c-0.1,0.5-0.3,1-0.5,1.5c-0.1,0.4-0.3,0.7-0.4,1.1
		c-0.1,0.2-0.1,0.4-0.2,0.6c-0.2,0.5-0.5,0.9-0.7,1.4c-0.5,1.2-1.3,2.3-1.9,3.4c-0.5,0.5-0.9,1.1-1.6,1.3c-1.4,0.5-2.9,0.5-4.4,0.4
		c-1.7,0.2-3.4,0.3-5.1,0.2c-1.4-0.2-2.9-0.4-4.3-0.6c-1.2-0.4-2.5-0.6-3.7-1.1c-0.8-0.3-1.5-0.6-2.3-0.8c-0.1,0-0.3-0.1-0.4-0.1
		c-0.7-0.1-1.3-0.5-2-0.8c-0.5-0.2-1.1-0.3-1.6-0.6l-0.1-0.1c-0.5-0.3-1-0.5-1.6-0.8c-0.7-0.3-1.2-0.6-2.3-1.1
		c-0.9-0.6-1.3-0.8-2.1-1.2c-1.4-0.7-2.7-1.5-4.1-2.3c-1.7-0.9-3.3-2.1-5-3.1c-0.4-0.3-0.9-0.6-1.3-0.9c-1.2-0.8-2.5-1.5-3.6-2.4
		c-1.3-0.9-2.6-1.9-4-2.8c0.6,0.7,1.3,1.3,1.8,2c-1-0.3-2-0.8-2.9-1.3c-1.2-0.7-2.5-1.3-3.6-2.1c-1.5-0.9-2.9-2-4.3-3
		c-0.3-0.2-0.7-0.5-0.6-0.9c0.8,0,1.4,0.6,2,1.1c1,0.9,2.1,1.7,3.4,2.1c0.7,0.1,1.5,0,2.1-0.3c1.3-0.8,2.4-2,2.8-3.5
		c0.2-0.7,0-1.4-0.5-2c-0.5-0.5-1.1-0.9-1.8-1.2c-0.1,0-0.3-0.1-0.4-0.1c-0.5-0.1-1-0.3-1.5-0.3c-1.6-0.3-3.3,0.1-4.8,0.5
		c0.8-0.6,1.7-1.1,2.4-1.9c0.4-0.4,0.6-0.9,1.1-1.1c0.9-0.5,2-0.8,3-1.3c1.5-0.4,3-0.6,4.6-0.8c1.8-0.2,3.7-0.1,5.5,0.1l0.5,0.1
		c0.9,0,1.8,0.3,2.7,0.4c1.6,0.4,3.2,0.9,4.8,1.5c3.9,1.2,7.2,3.7,10.7,5.8c1,0.7,2,1.2,3,1.9c2,1.4,3.9,2.9,5.9,4.3
		c2.3,1.6,4.5,3.3,6.9,4.7c0.4,0.2,0.8,0.3,1.3,0.5c-0.6-0.6-1.4-0.9-2.1-1.4c-0.9-0.5-1.8-1.2-2.6-1.9c-0.2-0.3-0.4-0.7-0.7-1
		c0-0.5,0-0.9,0.2-1.4c-0.1-0.2-0.1-0.3-0.2-0.5c0.3-2,1.3-3.8,1.9-5.6c1.1-2.8,1.8-5.8,1.7-8.8c0-0.3,0.1-0.5,0.1-0.8
		c0.3-0.2,0.6-0.4,0.9-0.5c0.5-0.3,1-0.7,1.4-1.2c1.6-2.1,3-4.4,3.7-7c0-0.1,0.1-0.2,0.2-0.3c0.6,1.1,1,2.2,1.4,3.3
		c0.8,1.7,1.3,3.4,1.9,5.2c0.5,1.5,0.8,3,1.1,4.6c0.5,1.6,0.6,3.3,0.9,4.9c0.1,0.7,0.2,1.4,0.3,2.1c0,0.3,0,0.6,0.1,0.9
		c0.1,0.9,0,1.9,0.1,2.9C213.9,119.6,213.7,122,213.1,124.2z M229.8,85c0,1.2,0,2.3-0.2,3.5c-0.2,1.6-0.5,3.3-0.9,4.9
		c-0.5,2.7-1.5,5.2-2.4,7.8c-1.2,2.9-2.3,5.7-3.8,8.4c-0.4,0.6-0.7,1.3-1.1,1.9c-0.4,0.8-0.9,1.5-1.3,2.3c-0.7,1.1-1.3,2.2-2,3.3
		c-0.3,0.3-0.5,0.7-0.7,1c-0.5,0.7-0.9,1.4-1.4,2.1s-1,1.3-1.5,2c0-0.1,0-0.2,0-0.3c0-1,0.3-2,0.2-2.9c-0.1-1-0.1-2-0.1-3
		c0-0.2,0-0.4,0-0.6c-0.1-1.1-0.2-2.2-0.3-3.3c-0.5-2.9-1-5.8-1.9-8.7c0.1,0.1,0.3,0.1,0.5,0.2c0.9-0.9,1.6-1.8,2.6-2.6
		c2.4-2.5,5.2-5.1,6-8.6c0.4-1.2,0.4-2.5,0.6-3.8c1.3-0.4,2.7-0.1,3.8-0.9c-1.1,0.2-2.1,0.4-3.2,0.4c-2,0-4.4-0.1-5.7-1.8
		c0.4,0.1,0.8,0.3,1.2,0.4c0.9,0.3,1.8,0.2,2.8,0.2c0.9,0,1.8-0.3,2.6-0.7c0.6-0.3,1.2-0.8,1.5-1.4c0.4-0.7,0.5-1.6,0.6-2.3
		c0.1-1.3-0.1-2.7-0.1-4c-0.1-1.4-0.1-2.8-0.2-4.2c0-1.9,0-3.7-0.2-5.6c0-0.3,0-0.7,0-1c0.1-0.8-0.1-1.7,0.2-2.4
		c0.4,0.7,0.8,1.4,1.2,2.1c0.2,0.4,0.4,0.9,0.6,1.3c0.5,1.1,1,2.2,1.3,3.4c0.6,2,1.3,4,1.4,6.1c0.1,1.4,0.3,2.8,0.3,4.3
		C229.8,83.2,229.8,84.1,229.8,85L229.8,85z"/>
	<path d="M218.7,79.1c-0.4,1.3-0.6,2.7-0.1,4c0.2,0.3,0.5,0.8,0.9,0.6c1-0.6,1.3-1.8,1.5-2.9c0.1-1,0.2-2.2-0.6-3
		C219.6,77.7,218.9,78.4,218.7,79.1z"/>
	<path d="M191.9,84.6c-0.3-0.4-1-0.6-1.2-0.1c-0.4,1.7,0.4,3.4,1.3,4.9c0.3,0.4,0.7,0.6,1.2,0.7c0.4-0.6,0.3-1.4,0.3-2.2
		C193.2,86.7,192.7,85.5,191.9,84.6z"/>
	<path d="M99,85.1c-0.9,0.1-1.7,0.7-2.4,1.4c-0.7,0.7-0.8,1.7-1.1,2.6c0.1,0,0.3-0.1,0.4-0.1c-0.2,0.2-0.5,0.4-0.5,0.7
		c-0.5,1.6-0.7,3.3-1.2,4.8c0,0.1,0,0.3,0,0.4c0.1-0.1,0.1-0.3,0.2-0.4c0.6-1.7,0.7-3.5,1.6-5.1c0.7-1.4,2.1-2.7,3.7-2.9
		c0.9-0.2,1.8-0.1,2.7-0.2c0-0.1,0-0.3,0.1-0.4c-0.3-0.2-0.6-0.3-0.9-0.5C100.8,85,99.9,85,99,85.1z"/>
	<path d="M102.9,95.5c0.5,1.3,1.3,2.4,2.4,3.2c0.9,0.6,2.4,0.2,2.7-0.9c0.3-1-0.1-2-0.5-2.9c-0.3-0.8-1-1.4-1.7-2
		c-0.4-0.2-0.8-0.5-1.3-0.6c-0.6-0.1-1.3,0.1-1.6,0.5C102.4,93.4,102.5,94.6,102.9,95.5z M103.4,93.1c0.4-0.5,1.2-0.6,1.7-0.2
		c0,0.3,0.2,0.6,0.1,1c-0.1,0.5-0.6,0.8-1.1,0.8c-0.2,0.3-0.6,0.2-0.9,0.2C103.1,94.3,103,93.6,103.4,93.1z"/>
	<path d="M115.3,102c1.3-0.7,2.7-0.5,4.1-0.7v-0.1c-1.1-0.1-2.2-0.1-3.2,0.1c-0.8,0.2-1.5,0.7-2.2,1.1c-0.1,0.2-0.1,0.5-0.1,0.7
		C114.6,103.1,114.7,102.2,115.3,102z"/>
	<path d="M118.2,112.1c1.6-0.5,2.6-1.9,3.2-3.4c0-0.1,0-0.2,0.1-0.3c-0.4,0.5-0.7,1.1-1.1,1.6c-0.4,0.6-1.1,1-1.7,1.3
		c-0.5,0.2-0.9,0.3-1.4,0.5c0,0.1,0,0.4,0,0.5C117.6,112.2,117.9,112.2,118.2,112.1z"/>
</g>
</svg>
