<?xml version="1.0" encoding="utf-8"?>
<!-- Generator: Adobe Illustrator 26.0.3, SVG Export Plug-In . SVG Version: 6.00 Build 0)  -->
<svg version="1.1" id="Слой_1" xmlns="http://www.w3.org/2000/svg" xmlns:xlink="http://www.w3.org/1999/xlink" x="0px" y="0px"
	 viewBox="0 0 239.5 150.2" style="enable-background:new 0 0 239.5 150.2;" xml:space="preserve">
<style type="text/css">
	.st0{fill:#010101;}
</style>
<g>
	<g>
		<path class="st0" d="M196.5,0.3c0.9-0.7,2.2-0.9,3.3-0.4c1,0.5,1.6,1.5,2.2,2.4c0.4,0.7,0.9,1.3,1.2,2c0.1-0.7,0.5-1.4,1.1-1.8
			c0.6,0.6,0.6,1.4,0.3,2.1c0.2,0.3,0.3,0.7,0.4,1.1c0.5,0.2,1,0.4,1.4,0.8c1.1,1.3,1,3.1,2,4.5c0.4,0.5,0.9,0.9,1.2,1.5
			c1.6-1,3.5-1.3,5.4-1.7c1-0.3,1.8-0.9,2.8-1.2c1,0.3,1.9,0.7,2.7,1.3c0.3-0.2,0.6-0.3,0.9-0.5c-0.1-0.7-0.1-1.5-0.1-2.2h0.1
			c0.1,0.8,0.2,1.6,0.3,2.4c-0.6,0.4-1.2,0.8-1.4,1.5c-0.3,0.6,0.1,1.2,0.3,1.8c-0.2-0.3-0.5-0.5-0.6-0.8c-0.1-0.5,0-0.9,0-1.4
			c-0.5,0.7-0.4,1.5-0.2,2.3c-0.5-0.5-0.4-1.2-0.5-1.8c-0.3-0.9-0.8-1.7-1.3-2.4c-1.2,0.5-2.2,1.4-3.5,1.8c-1.3,0.5-2.9,0.2-4.1,1
			c1.8,0.3,3.6,0.7,5.4,1.1c0,0.5,0,0.9,0,1.4c0.3-0.4,0.5-0.8,1-1c0.4,0.7,0.7,1.4,1,2.1c0.2-0.1,0.3-0.3,0.5-0.4
			c0.1,0.2,0.3,0.5,0.4,0.7c-0.2-0.1-0.4-0.3-0.6-0.4c-0.1,0.5-0.1,0.9,0.1,1.4c0.7-0.6,1.5-1.2,2.3-1.7c-0.3-0.5-0.7-1-0.9-1.5
			c0.2,0.2,0.5,0.4,0.7,0.7c0.2-0.2,0.4-0.3,0.6-0.5c0.3,0.2,0.5,0.4,0.8,0.5c0.5-0.1,1-0.4,1.5-0.4c-0.1,0.3-0.1,0.5-0.2,0.8
			c0-0.2,0-0.4,0-0.6c-0.8,0.2-1.7,0.8-1.8,1.7c0.2,0.8,0.7,1.4,1.1,2.1c0.1,0.6,0.4,1.2,0.8,1.7c0,1,0.1,2,0,3
			c0.1,0.4,0.3,0.8,0.4,1.2c-0.8-1.2-1.7-2.2-2.9-3c-0.5-0.3-0.9,0.2-1.3,0.4c-0.3,0.2-0.5,0.7-0.3,1c0.7,1,1.4,1.9,1.8,3
			c-0.8-0.7-1.2-1.7-1.8-2.5c-0.5-0.3-1.1,0.2-1.5,0.5c-0.6,0.3-0.1,1,0.2,1.4c-0.2,0.5,0,1,0.5,1.1c0.4-0.2,0.4-0.7,0.5-1.1
			c0,0.2,0,0.5,0,0.7c-0.1,0.4-0.5,0.6-0.5,0.9c0.1,0.3,0.2,0.6,0.2,1c-0.5-0.6-0.7-1.4-1.3-1.8c0-0.4,0-0.8-0.2-1.2
			c-0.6,0.8-1.1,1.8-0.8,2.8c0.3,1.9,1.8,3.2,2.6,4.9c1.9-1.1,3.7-2.5,5.3-3.9c-0.2-0.4-0.3-0.9-0.5-1.3c-0.6,0.2-1.2,0.4-1.8,0.6
			c-0.5,1-1.2,2-2.2,2.6c0.2,0.2,0.5,0.4,0.7,0.6c-0.4,0.1-0.9,0.2-1.3,0.4c-0.2-0.3-0.5-0.6-0.8-0.9c0.8-0.5,1.9-0.3,2.4-1.2
			c-0.5,0-0.8,0.2-1.2,0.5c-0.5,0.3-1.1,0.3-1.6,0.2c0.7-0.2,1.4-0.2,2-0.6c-0.6-0.1-1.1-0.2-1.7-0.3c0.3-0.4,0.8-0.5,1.3-0.6
			c0.5-0.2,1-0.6,1.5-0.9c-0.3,0.5-0.8,0.9-1.1,1.3c0.4,0,0.8,0,1.1-0.2c0.2-0.3,0.3-0.8,0.4-1.1c0.2,0,0.4,0,0.7-0.1
			c-0.1-0.2-0.2-0.4-0.3-0.6c0.6-0.4,1.4-0.7,2-1.3c-0.3,0.7-1.1,1.1-1.7,1.5c0.7,0,1.3-0.5,1.9-0.9c-0.4,0.6-1,0.9-1.6,1.2
			c0.6,0,1.1-0.2,1.5-0.6c0.3-0.5,0.2-1.1,0.3-1.7c0.5-0.1,1.1-0.1,1.5-0.4c0.5-0.4,0.3-1.1,0.2-1.6c-0.2,0.2-0.4,0.5-0.6,0.8
			c0.3-1.1,0.7-2.3,0.7-3.5c-0.5,0.4-1.1,0.8-1.7,0.9c0.2-0.2,0.5-0.4,0.7-0.5c-0.3,0-0.6,0.1-1,0.1c0.5-0.6,1.3-0.7,1.8-1.2
			c0-0.4-0.5-0.4-0.8-0.4c-0.5,0.3-0.9,0.8-1.4,1.2c0.2-0.9,1.2-1.8,2.2-1.3c0.6,1.2,0.3,2.5,0.4,3.8c0.6-0.8,0.6-1.8,1.1-2.7
			c-0.3,0.1-0.6,0.1-0.9-0.1c0.2-0.3,0.4-0.6,0.6-0.9c-0.1-0.4-0.4-0.8-0.6-1.2c-0.3,0.2-0.5,0.4-0.8,0.6c0.1-0.4,0.4-0.8,0.7-1.1
			c-0.3-0.3-0.5-0.7-0.7-1c-0.2,0.3-0.5,0.5-0.7,0.8c0.3,0.5,0.5,1,0.8,1.5c-0.8-0.2-1.4,0.4-2.1,0.8c0.3-0.6,0.9-1,1.6-1.1
			c-0.4-0.5-0.7-0.9-1-1.4c-0.3,0.4-0.6,0.9-1.1,1.1c0.3-0.4,0.6-0.8,1-1.1c-0.1-0.2-0.1-0.7-0.4-0.8c-0.2,0.4-0.3,0.9-0.8,1
			c-0.7,0.1-1.2-0.6-1.5-1.2c0.2-0.2,0.5-0.3,0.8-0.5c0.3,0.2,0.6,0.2,1,0c-0.2,0.2-0.4,0.4-0.6,0.6c-0.1-0.2-0.3-0.3-0.4-0.5
			c-0.1,0.1-0.3,0.2-0.4,0.3c0.3,0.3,0.6,0.7,1,0.9c0.3,0,0.6-0.1,0.6-0.4c0.3-0.7,0-1.5,0.3-2.2c0.2-0.5,0.9-0.7,0.7-1.2
			c-0.1-0.7-0.5-1.3-0.9-1.9c0.5-0.4,1.1-0.8,1.7-0.9c-0.3,0.4-0.7,0.7-1.1,1c0.2,0.5,0.4,1,0.7,1.4c0.6,0.2,1.3,0.3,2,0.5
			c1.1,0.5,2.2,0.8,3.4,1.2c1.1,0.4,1.8,1.4,2.1,2.5c0.5,1.5,0.3,3.1,0.5,4.6c0.1,1,0.4,1.9,0.6,2.8c0.1,0.7,0.6,1.3,0.6,2.1
			c-0.2,0.4-0.6,0.5-0.9,0.8c0.2,0.2,0.5,0.3,0.7,0.5c0.1,0.5-0.3,0.9,0,1.4c0.5,0.9,0.3,2,0.4,3c0.1,0.7-0.3,1.3-0.7,1.9
			c1.1,1.5,2.3,3,3.4,4.5c1,1.6,2.2,3.1,3.1,4.7v1.1c-0.9-1.3-1.7-2.7-2.6-4c-1.2-1.9-2.7-3.7-4-5.5c-0.8-1.1-1.8-2-2.5-3.1
			c-0.6,1.1-1.5,2-2.4,2.9c-0.1,0.2-0.5,0.3-0.3,0.6c0.7,2.3,2.1,4.6,1.9,7.1c-0.2,1.5-0.9,2.8-1.7,4.1c0.1-1.2,0.1-2.4-0.2-3.5
			c-0.4-1.3-0.7-2.5-1.3-3.7c0.2,1.4,0.9,2.7,1,4c0.1,0.8,0.2,1.7,0.1,2.6c0,0.2,0,0.4,0,0.7c-0.9,0.2-1.9,0.2-2.8,0.3
			c0.3,0.3,0.7,0.7,1,1c0.6,0.6,0.8,1.5,1.4,2.1c0.6,0.5,1.4,0.9,2,1.4c-0.1,0-0.3,0.1-0.5,0.2c0.6,0.7,1,1.5,1.5,2.2
			c1.4,1.7,2.6,3.6,4,5.4c0.6,0.7,0.9,1.5,1.5,2.2c0.7,1.1,1.6,2.2,2.3,3.4c0.6,0.7,1.2,1.5,1.7,2.3v1.1c-0.6-0.9-1-1.9-1.6-2.8
			c-0.5-0.6-0.8-1.4-1.3-2c-1.3-1.5-2.5-3.2-3.7-4.7c-1.6-2.3-3.2-4.6-4.9-6.9c-0.5-0.7-1.3-1.3-1.8-2.1c-0.8-1.2-1.4-2.7-2.9-3
			c-1.2-0.2-1.7-1.4-2.4-2.2c-0.6-0.7-1.2-1.3-1.6-2.1c0.9,3.2,1.9,6.4,3.5,9.4c0.9,1.7,2.3,3.2,3.7,4.6c0.1,0.4-0.1,0.8,0,1.1
			c0.4,0.7,0.9,1.3,1.4,2c1-0.5,2.1-1.2,3.3-0.8c1,0.4,1.9,1.2,2.4,2.2c0.8,1.5,1.7,3,2.5,4.6c0.5,1.2,1,2.4,1.5,3.6
			c0.4,1.2,1.5,1.9,2.1,3V118c-0.8-1.5-1.6-3.1-2.6-4.6c-1.8,0.6-3.5,1.4-5.2,2.2c1,1.2,1.6,2.8,2.5,4.1c0.8,1.3,1.3,2.7,2.1,4
			c0.2,0.4,0.5,0.9,0.4,1.5c-0.4,0.7-1.1,1.1-1.9,1.1c-0.2,0-0.4-0.3-0.5-0.4c-0.4-0.6-0.7-1.2-1-1.8c-1.2-2.5-2.3-5-3.7-7.4
			c-1.4,0.7-2.8,1.5-4.2,2.3c0.4,0.7,0.6,1.4,1.1,2.1c1.4,2.2,2.4,4.6,3.7,6.9c0.5,0.7,0.9,1.5,1.2,2.3c2.4-1.1,4.7-2.4,7.2-3.1
			c-0.6,0.4-1.3,0.7-2,1c-1.7,0.8-3.5,1.7-5.2,2.5c-1.5,0.8-2.9,1.8-4.5,2.4c0.2-0.3,0.5-0.5,0.8-0.7c1-0.7,2.1-1.3,3.2-1.9
			c-0.5-1.3-1.4-2.5-2-3.8c-1-1.9-1.7-3.9-2.8-5.7c-0.4-0.6-0.5-1.4-0.9-2c-1.2,0.6-2.2,1.3-3.4,1.9c-2.8,1.5-5.5,3.3-8,5.2
			c-1,0.7-2,1.4-2.9,2.2c2.3,3.4,4.5,6.9,6.7,10.3c1-0.6,1.9-1.1,2.9-1.7c-1,0.8-2.1,1.5-3.1,2.3c0.3,0.1,0.5,0.2,0.8,0.3
			c2.9-2.2,6-4.1,9.2-5.9c1.5-0.9,3-1.8,4.6-2.5c0-0.1,0-0.3-0.1-0.5c0.2,0.1,0.3,0.2,0.5,0.3c1-0.6,2-1.1,3.1-1.6
			c1.4-0.7,2.7-1.3,4.1-2v23.1h-23.1c-0.4-1.1-0.6-2.3-1.1-3.4c-0.6-1.4-0.9-2.8-1.1-4.3c-0.8,0.7-1.8,1.3-2.6,2
			c-0.4,0.3-0.1,0.7,0,1c0.6,1.5,1,3.1,1.5,4.7h-14.4c-1.6-2.2-3.5-4.4-4.3-7c-0.7-2-0.7-4.1-0.3-6.1c-1.2,0.4-2.3,1.3-2.9,2.4
			c-0.1,2,0.6,3.9,1.5,5.6c1.3,1.8,2.3,3.8,4.1,5.2H196c-1.3-1.2-2.2-2.8-3.2-4.3c-1-1.4-1.8-3.1-2-4.8c-2.1,1-4.6,1-6.8,0.8
			c1.2,2.4,2.6,4.8,4.3,6.9c0.3,0.4,0.7,0.8,0.9,1.2c-0.9,0-1.3-0.8-1.9-1.3c-1.1-1.3-1.9-2.9-2.8-4.4c-0.8-1.2-1.3-2.5-1.8-3.8
			c-0.6,0.4-1.4,0.7-2.1,0.6c-0.4-0.2-0.8-0.5-1.2-0.7c-0.7-0.1-1.5-0.1-2.2-0.5c-0.5-0.3-1-0.6-1.6-0.5c1.2,1.8,2.4,3.7,3.4,5.6
			c0.8,1.7,1.7,3.3,2.2,5.2h-0.5c-0.5-1.4-1.3-2.7-1.8-4.1c-1.1-2.2-2.2-4.4-3.4-6.5c-0.6,0.1-1.2,0.2-1.6,0.6
			c-0.5,0.7-1,1.4-1.3,2.2c-0.2,0.7-0.7,1.4-0.7,2.1c1.7,1.4,3.4,2.8,5.2,3.9c1.1,0.6,2.2,1.3,3.3,1.8h-1.7c-1.4-0.6-2.7-1.5-4-2.5
			c-1.2-0.9-2.2-2.2-3.4-3.1c0.4,0.8,1.2,1.4,1.7,2.2c0.8,1.1,1.4,2.4,2.3,3.4h-0.8c-1.1-1.5-2-3.2-3-4.8c-0.1-0.2-0.2-0.5-0.5-0.5
			c-0.8,0.2-1.5,0.6-2.3,0.4c-1.6-0.2-3.2-0.6-4.6-1.4c1.7,0.4,3.5,0.9,5.3,0.9c0.7-0.1,1.3-0.1,2-0.3c0.2-1.3,0.7-2.6,1.4-3.8
			c-1.5,0.9-3.1,1.4-4.6,2.3c0.2-0.5,0.5-0.9,0.8-1.4c-0.5,0.3-1,0.5-1.5,0.7c-0.2-0.6-0.3-1.2-0.4-1.8c-0.4,0-0.7,0-1.1,0
			c-0.1,0.3-0.1,0.8-0.5,0.7c-0.9-0.1-1.7,0.1-2.6,0.2c0.1,0.6,0.2,1.2,0.3,1.9c0,1.1,0.3,2.1,0.7,3c0.8,1.5,1.6,3,3,4h-1
			c-0.9-0.7-1.5-1.7-2.1-2.7c-0.8-0.4-1.7-0.7-2.6-0.6c-1,0.2-1.5,1.2-1.9,2c0-0.7,0.1-1.3,0.1-2c0-1.7,0-3.4-0.4-5
			c-0.3-0.2-0.6-0.3-1-0.5c-0.9-0.3-1.7,0.5-2.7,0.2c-1.3-0.1-2.3-1.1-3.5-1.5c0.2-0.9,0.2-1.9,0.1-2.8c0.3-0.4,0.7-1.1,1.3-0.9
			c0.3,0,0.8,0,1,0.4c0,0.1,0,0.4,0,0.5c0.8,0.3,1.7,0.2,2.5,0.7c0,0.3,0.1,0.6,0.1,0.9c0.3,0,0.5,0.1,0.7-0.1
			c0.6-0.4,1.4-0.7,1.9-1.3c0.4-0.3,0.7-0.6,1.1-0.9c-0.9-0.4-1.8-0.7-2.8-0.6c0.2,0.8,0.5,1.5,0.3,2.3c-0.5-0.8-0.5-1.8-1-2.6
			c-0.3-0.3-0.6-0.6-0.9-0.9c-0.3-0.3-0.4-0.8-0.8-0.9c-1-0.4-1.9-1.2-2.3-2.3c-0.3-0.8,0.1-1.6,0.2-2.4c-0.8-0.1-1.8-0.1-2.3-0.8
			c-0.8-1.1-0.3-2.5,0-3.6c0.1-0.5,0.5-1.1,0-1.5c-0.4-0.4-0.8-0.8-1-1.3s-0.8-0.7-1.2-0.9c-0.6-0.4-1-1-1.3-1.7s-0.8-1.3-1.1-2
			c-0.4-0.8-0.5-1.7-0.6-2.6c0.6,0.4,1.1,0.8,1.7,1.2c0.1-0.3,0.3-0.6,0.4-1c-0.3-0.6-0.6-1.2-1.1-1.7c-0.4-0.3-0.9-0.4-1.3-0.7
			c0-0.2,0-0.4,0-0.6c-0.3-0.1-0.5-0.2-0.8-0.4c0.7-0.2,1.4,0,2.1-0.1c0.3,0.3,0.5,0.6,0.8,1c0.8,0.1,1.6,0.3,2.4,0.4
			c1-0.5,2.2-0.9,3.3-0.7c-0.3-0.9-0.7-1.7-0.9-2.6c0.6,0.2,1.2,0.6,1.6,1.1c1,1,2,2.1,2.6,3.3c0.2,0.4,0.4,0.8,0.8,1
			c0.7,0.1,1.4,0.2,2.1,0.6c0.8-0.1,1.6-0.3,2.2-0.7c0.9-1.2,1.8-2.4,2.6-3.6c-0.3-0.1-0.7-0.2-0.9-0.4c-0.2-0.4,0.1-0.9,0.5-0.9
			c0.7-0.2,1.4-0.6,2.1-0.9c-0.7,0.8-1.7,1-2.6,1.4c0.3,0.4,0.9,0.4,1.4,0.4c-0.4,0.7-0.8,1.3-1.1,2c0.3,0.1,0.5,0.2,0.8,0.3
			c-0.3,0.4-0.6,0.7-0.9,1.1c0.2,0.3,0.4,0.7,0.6,1c-0.7,0.5-1.5,1-2.4,1.2c-0.7,0.1-1.2-0.5-1.9-0.4s-1.3-0.2-2-0.3
			c0.6,1,1.7,1.7,2.8,2c1.4-0.1,2.9-0.4,4.3,0c0.5-1,1.5-1.7,2.3-2.5c1.1-2.1,2.1-4.4,3.8-6c-0.2-0.4-0.4-0.8-0.5-1.1
			c-0.3,0.2-0.6,0.4-1,0.5c-0.3-0.2-0.7-0.5-1-0.7c-1.3-1-3-1.5-4.1-2.7c-0.3-0.3-0.5-0.8-0.9-1c-0.5-0.3-1-0.8-1.2-1.5
			c-0.1-0.4-0.3-0.8-0.6-1.1c-0.2,0.3-0.2,0.6-0.2,1c0,1.2-0.2,2.6-1.1,3.4c-1.5,0.7-3.4,0.7-4.9-0.2c1.1-0.1,2.2,0.4,3.4,0.2
			c0.6,0,1.4,0,1.6-0.7c0.4-1,0.9-2.1,1-3.2c-0.6,0.4-1.3,0.7-1.7,1.3c-0.2,0.4-0.7,0.4-1,0.5c0-0.2,0-0.4,0.1-0.6
			c-0.2,0-0.5,0.1-0.7,0.1c0.8-0.7,2-0.7,2.8-1.3c0.4-0.2,0.5-0.8,0.4-1.2c-0.2-0.8-0.5-1.7-0.7-2.5c-0.5,0.5-1.1,1.1-1.2,1.8
			c-0.2,0.6-0.1,1.2-0.1,1.8c-0.7-0.6-1.4-1.4-1.6-2.3c-0.1-0.7,0.2-1.4,0.4-2.1c-0.8,0.7-1.4,1.6-1.8,2.5c-0.2-2.1,0.2-4.5,1.9-6
			c0.7-0.7,1.6-0.9,2.5-1.3c-1-0.2-2.1,0-3.1,0.4c0.4-0.7,1.1-1.1,1.7-1.6c-1.2,0-2.5,0.4-3.6-0.5c-0.6,0.2-1.3,0.1-1.9-0.2
			c-0.3,0.1-0.5,0.2-0.8,0.2c0.8,0.6,1.5,1.3,2.1,2.1c0.3,0.6,0.1,1.4,0,2c0,1.1-0.1,2.1-0.2,3.2c0,0.4-0.2,0.9-0.4,1.2
			c-1,1.5-2.3,2.7-3.2,4.2c-0.6,0.9-1.1,1.8-1.5,2.8c0.6,0,1.2,0.1,1.8,0.2c0.8,0.3,1.1,1.4,2,1.6c0.9-0.1,1.8-0.3,2.7-0.5
			c-1-0.3-2.2-0.5-3-1.3c0.5,0.1,1,0.3,1.5,0.4c0.9,0.2,1.8,0.7,2.8,0.6c0.6-0.3,1-0.8,1.6-1.2c-0.3,0.7-0.9,1.3-1.6,1.6
			c-0.3,0-0.5-0.1-0.8-0.2c-0.2,0.2-0.4,0.5-0.7,0.6c-0.8,0.3-1.8,0.5-2.6,0.3c-0.7-0.4-1.2-1.1-1.9-1.6c-0.6-0.1-1.3,0-1.9-0.2
			c0-0.3,0.1-0.6,0.1-0.9c-0.4,0-0.7,0-1.1-0.1c-0.4-0.4-0.6-1-0.9-1.5c-0.3-0.1-0.6-0.1-1-0.2c-0.3,0.8-0.1,1.6-0.2,2.4
			c-0.2,0.5-0.7,0.7-0.9,1.2c-0.3,1.2-0.5,2.4-0.7,3.6c-0.3-0.3-0.2-0.8-0.2-1.2c0.1-0.8,0.1-1.6,0.3-2.4c0.2-0.5,0.7-0.8,1.1-1.2
			c0-0.9,0.1-1.9,0.4-2.8c-0.1-0.6-0.3-1.2-0.4-1.9c-0.3-0.1-0.5-0.1-0.8-0.2c0.1-0.9,0.3-1.8,0.2-2.7c0.1,0.1,0.3,0.3,0.4,0.3
			c0,0.7-0.2,1.4-0.3,2.1c0.6,0,1.3,0.1,1.9,0.2c0,0,0,0.1,0,0.2c-0.4,0-0.8,0-1.1,0c0.1,0.3,0.1,0.6,0.2,1c0.4-0.3,0.9-0.3,1.3-0.3
			c0,0.1-0.1,0.3-0.1,0.4c0.6,0.1,1.4,0.1,1.8-0.5c0.7-0.9,0.9-2.1,1.5-3c0.8-1.5,2.3-2.7,2.7-4.4c0.4-1.1,0-2.3-0.6-3.3
			c-0.1,0.1-0.2,0.2-0.3,0.2c-0.1-0.4-0.2-0.8-0.3-1.2c0.4,0,0.8,0,1.2,0.1c0-0.2-0.1-0.6-0.1-0.8c-0.7,0-1.3,0.3-1.9,0.7
			c0.3,0.4,0.6,0.9,0.6,1.4c-0.4-0.1-0.9-0.5-1.4-0.3c-0.6,0.2-1.2,0.3-1.8,0.7c-0.1,0.6-0.2,1.3-0.5,1.9c0-0.7,0-1.4,0.2-2
			c0.6-0.7,1.5-0.9,2.4-1.1c0.2-0.3,0.2-0.7,0.5-0.9c0.5-0.4,1.1-0.4,1.7-0.5c0.1-0.6,0.5-0.9,0.9-1.2c0.4,0.4,0.9,0.9,1.6,0.8
			c0.4,0,0.8-0.4,0.9-0.8c0.2-0.7,0.2-1.3,0.4-2c0.1-0.4,0.6-0.6,0.9-0.4c0.5,0.4,0.4,1.2,0.8,1.7c0.3,0.2,0.7,0.1,1,0.1
			c0-0.4,0.1-0.8,0.3-1.1c0.3-0.6,1-0.9,1.1-1.6c0.2-0.7-0.4-1.3-1.1-1.3c-0.4,0-1.1,0.1-1.3-0.4c-0.2-0.7,0.5-1.3,0.9-1.7
			c-0.8-0.3-1.7-0.6-2.5-0.8c-0.2,0.5-0.5,1-1,1.2c-0.8,0.4-1.6,0.3-2.4,0.1c0.2,1.1,0.4,2.2,0.3,3.3c0.6-0.5,1.3-0.5,2-0.4
			c0.6-0.7,0.5-1.6,0.5-2.4c0.3,0.7,0.4,1.4,0,2.1c-0.2,0.5-0.7,0.6-1.1,0.7c-0.1,0.6-0.3,1.1-0.7,1.5s-0.4,0.9-0.5,1.4
			c-0.4-1.1,0.6-1.9,1-2.9c-0.4,0-0.8,0.1-1.1,0.2c-0.1,0.7-0.1,1.5-0.4,2.2c-0.2,0.5-0.8,0.7-1.2,0.9c-1.1,0.6-2.5,0.7-3.7,0.3
			c-0.7-0.2-1-0.9-1.4-1.4c-0.4-0.2-0.9-0.3-1.3-0.5c-0.6-0.3-1-0.7-1.5-1.2c-0.7,1-1.3,2.1-1.7,3.2c0.3,0.2,0.7,0.2,0.9,0.6
			c0.3,0.6,0.3,1.6-0.5,1.9c-0.6,0.3-1.7,0.4-1.9-0.4c-0.3-0.7,0.2-1.3,0.7-1.7c-0.4-1.3-0.4-2.8-0.1-4.2c0.2-1.2,0.9-2.2,1.9-2.9
			c-0.1-2.2,1.5-4.3,3.6-4.8c0.1-0.9,0.5-1.7,1-2.4c-0.3-0.3-0.7-0.5-0.8-0.9c-0.1-0.5,0.1-1.1,0.4-1.5c0.7-1,1.1-2.1,1.6-3.1
			c0.7-1.3,0.8-2.8,1.3-4.1c-1-0.4-2.1-0.8-2.5-1.8c-0.2-1.1,0.3-2.2,0.9-3.1c-0.6-0.3-1.3-0.5-2-0.6c-0.3-1.2,0-2.3,0.4-3.4
			c-0.1-0.9-0.3-1.8-0.4-2.7c-1,0-2-0.1-2.9-0.4c-1-0.3-1.6-1.4-1.8-2.5c-0.2-1.4,0.1-2.9,0.6-4.2c0.6-1.6,1.4-3.2,2.6-4.4
			c-0.7-0.6-1.5-1.1-1.8-2c-0.2-0.8-0.4-1.7,0-2.5c0.3-0.5-0.1-1.1,0.1-1.7c0.1-0.5,0.5-0.8,0.8-1.2c0-0.5,0-1,0.3-1.5
			c0.3-0.6,1-0.7,1.5-0.9c0.5-0.6,0.9-1.3,1.3-1.9c0.4-0.9-0.1-2.2,0.8-2.7c-1.6-1.3-2.7-3.1-4.1-4.6c-0.9-0.9-1.6-1.9-2.3-2.9
			c-0.7-1.2-1.1-2.5-1.3-3.9c-0.2-1,0.1-1.9,0.4-2.8c0.3-1,1-1.8,1.7-2.6c0.9-1.1,2.2-1.9,3.6-2.1c1,0,1.9,0,2.9,0.2
			c1.5,0.5,2.8,1.3,3.9,2.4c2,1.8,3.9,3.8,5.8,5.8c0.2-0.8,0.2-1.7,0.7-2.4c0.8-0.3,1.6,0,2.4,0.1c0.8-1.9,1.3-4,2.7-5.6
			c0.9-1,2.2-1.5,3.6-1.5c1.8,0,3.2,1.1,4.6,2c1.5,1.1,2.2,2.8,3.5,4.1c0.6,0.5,1.1,1.2,1.9,1.4c1-0.7,2.2-1.1,2.9-2.1
			c-0.1-0.6-0.6-0.9-0.8-1.4c0.2-0.2,0.8-0.3,0.7-0.7c0-1.5-0.1-3-0.6-4.4c-0.6-1.3-1.3-2.7-2.6-3.4c-0.7-0.5-1.8-0.4-2.4,0.2
			c-0.6,0.9-0.9,2.1-0.3,3.1c0.5,0.5,1.4,0.4,1.8-0.1c0.4-0.4,0.3-1,0.4-1.5c1,0.5,0.8,1.9,0.2,2.7c-0.8,1.4-3,1.7-4.1,0.5
			c-0.7-0.8-1-1.9-0.8-3c0.2-0.6-0.3-1-0.5-1.5c0.3,0.3,0.5,0.6,0.7,0.8c0.4,0.1,0.6-0.3,0.9-0.5c-0.5-0.6-1.4-0.2-1.8-0.7
			c0.4,0,0.8,0.1,1.2,0.1c0.1-0.5,0.5-0.9,0.8-1.4c0.1-0.4,0.1-0.9,0.1-1.3c0.3,0.1,0.6,0.2,0.9,0.3c0.9-0.2,1.9-0.4,2.8-0.4
			c0.5,0.1,0.9,0.3,1.4,0.5c0.8,0.3,1.4,0.8,2,1.3c0.4,0.2,0.9,0.4,1.3,0.5c-0.1,0.5-0.4,1-0.6,1.5c0,0.2,0.2,0.4,0.3,0.6
			c0.7,1.2,0.9,2.6,1.2,4c0.3,1.1,0.1,2.3,0.7,3.4c1.6,0.6,2.9,1.9,3.4,3.5c0.6,1.8,0.6,3.8,0.2,5.6c0.5-0.4,1.1-0.6,1.5-1.1
			c0.8-1,1.8-1.7,2.7-2.7c-0.5,1.1-1,2.2-1.8,3.1c0.2-0.5,0.4-1,0.6-1.6c-0.5,0.4-0.9,0.9-1.4,1.4c0.5,0.8,1.3,1.4,2,1.9
			c0-1.3,0.2-2.5,0.5-3.8c0.1-0.3,0.4-0.3,0.6-0.3c0.6,0,1.1,0.2,1.6,0.4c-0.7,0-1.3-0.1-2-0.2c-0.3,1.3-0.5,2.6-0.5,4
			c-0.4,0-0.8,0-1.1,0c0.6,0.4,1.3,0.8,1.6,1.5c-0.7,0.8-1.7,1.5-2.7,1.6c-0.7,0-1.4-0.2-2.1-0.3c0.5,0.8,1.2,1.5,1.4,2.4
			c0.2,0.8,0.6,1.5,1,2.2c-0.4,0-1.1-0.3-1.3,0.2c-0.2,0.2,0.2,0.4,0.3,0.6c0.6,0.5,1.2,1.1,2,1c-0.3-0.5-0.6-1-1.2-1.3
			c0.1,0.2,0.2,0.5,0.3,0.7c-0.2-0.3-0.5-0.5-0.7-0.8c-0.1,0-0.4-0.1-0.5-0.2c0.6-0.2,1.3-0.1,1.7,0.4c0.6,0.7,1.5,1.2,2.2,1.7
			c-0.2,0-0.5,0.1-0.6,0.1c0.6,0.8,1.1,1.8,2.1,2.2c0.8,0.3,1.5,0.5,2.3,0.6c1,0.1,1.9-0.6,2.7-1.1c-0.1-0.2-0.2-0.5-0.3-0.7
			c0.3-0.2,0.5-0.3,0.8-0.5c0.1,0.1,0.2,0.2,0.3,0.3c-0.3,0-0.6,0.1-0.9,0.1c0.2,0.2,0.5,0.4,0.8,0.1c0.7-0.5,0.8-1.5,0.9-2.3
			c-0.4,0.5-0.8,1.1-1.4,1.3c-0.3,0-0.6-0.1-0.9-0.1c-0.7,0.5-1.4,1.1-2,1.7c0.1-0.3,0.7-0.7,0.2-0.9c0.4-0.4,1-0.7,1.5-1
			c0.1-0.3-0.3-0.4-0.5-0.2c-0.6,0.7-1.5,0.8-2.3,0.9c0.5-0.3,1-0.5,1.5-0.9c0.4-0.3,0.7-0.6,1.2-0.6c0.5,0.2,0.8,0.8,1.4,0.8
			c0.4-0.2,0.7-0.6,1-1c0.3-0.5,0.7-1,0.6-1.6c-0.2-0.5-0.7-0.7-1.1-1c0-0.7,0.2-1.4-0.2-2c-0.3-0.5-1.1-0.8-1.5-0.3
			c-1.4,1.1-0.4,3.3-1.7,4.5c0.6-1.2,0.2-2.6,0.8-3.8c0.2-0.5,0.7-0.9,1.3-1.1c-0.1-0.6,0.1-1.2-0.2-1.7c-0.2-0.3-0.6-0.5-0.9-0.7
			c-0.3,0.3-0.6,0.6-0.9,0.8c0.5,0.3,0.7,0.9,0.7,1.5c0.2-0.1,0.3-0.2,0.5-0.4c-0.2,0.4-0.5,1-1,1.2c-0.6,0.3-1.2,0.2-1.8,0
			c-0.3-0.2-0.7,0.1-1,0.1c0.5,0.5,0.9,1.1,1.4,1.6c0.1-0.7-0.6-1.1-1-1.6c0.5,0.2,1.1,0.4,1.3,1c0.2-0.1,0.3-0.1,0.5-0.2
			c0.1,0.2,0.5,0.5,0.3,0.7s-0.4,0.4-0.6,0.6c0.1-0.4,0.7-0.8,0.2-1.1c-0.4,0.2-0.5,0.8-0.7,1.2c-0.1-0.6-0.4-1.1-0.9-1.4
			c-0.5-0.2-0.5-0.8-0.7-1.2c0.3,0,0.5,0.1,0.8,0.1c0.4-1.1,0.4-2.3,1-3.3c0.5-0.2,0.9-0.4,1.3-0.7c-0.1,0.4-0.1,0.7-0.2,1
			c0.3-0.1,0.5-0.1,0.8-0.2c-0.1-0.4,0-0.8-0.4-1c-0.5-0.4-0.9-1-1.4-1.4c-0.7-0.2-1.4-0.3-2.1-0.4c-0.4,1-0.4,2.1-1.1,2.9
			c0.4-1.4,0.6-2.9,1.4-4.2c-0.1,0.3-0.2,0.6-0.3,0.9c0.9,0,1.8,0.7,2.7,0.2c0.4-0.5,0.5-1.2,0.5-1.9c-0.2,0.3-0.5,0.6-0.7,0.8
			c0.3-0.8,0.3-1.6-0.1-2.3c-0.2,0.5-0.3,1-0.5,1.4c0-0.1,0-0.4,0-0.5c-1-0.3-2-1.1-3.1-0.8c0.3-0.3,0.9-0.5,1.3-0.3
			c0.7,0.3,1.2,0.8,1.9,1.1c0-0.5,0-1-0.1-1.4c0.5,0.3,1,0.7,1.3,1.2c0.4,0.9,0,1.9-0.1,2.9c0.1,0.9,1,1.5,1.1,2.4
			c0.4,0,0.6-0.5,0.7-0.8c0.5-1.2,1.2-2.3,2-3.3c-3.4-2.3-6.7-4.5-10.3-6.5c-0.6-0.4-1.1-0.7-1.8-0.9c0-0.3,0-0.5,0-0.8
			c-0.7,0.2-1.4,0.3-2-0.2c-1.2-1-1-3.1,0.3-3.8c0.7-0.3,1.5-0.1,2.1,0.2c0.6,0.3,0.7,1,0.7,1.6c0.3,0,0.5,0,0.8-0.1
			c-0.9,0.7-1.6,1.7-1.7,2.8c3,1.3,5.5,3.2,8.3,4.9c1.9,1.1,3.6,2.5,5.4,3.8c0.8-0.9,1.7-1.7,2.7-2.3c-0.8,1.3-2,2.2-3,3.2
			c0.1,0.3,0.4,0.6,0.6,0.8c0.5,0.6,1.4,0.2,2.1,0.6c1.1,0.6,2,1.4,2.8,2.3c-1-0.7-2-1.5-3.1-2.1c-0.5-0.2-1.1-0.2-1.6-0.3
			c0.5,0.8,1,1.5,1.4,2.4c0-0.4,0-0.9,0-1.3c0.7,1,0.1,2.3,0.3,3.4c0.1,0.4,0.4,0.7,0.6,1c0.3-1.2,0.6-2.5,0.5-3.8
			c0.6,1.4,0.2,2.9-0.4,4.2c-0.4-0.3-0.8-0.6-0.9-1.1c-0.2-0.6-0.2-1.3-0.4-1.9c-0.6,0.8,0.1,1.8,0.4,2.6c-0.2-0.3-0.5-0.6-0.7-0.9
			c-0.2,1.1,0.9,1.9,1.7,2.4c0.6-0.1,1.3-0.3,1.9-0.3c1,0,1.9-0.6,2.5-1.3c0.2-1.2-0.5-2.3-0.9-3.4c0.5,0.2,0.9-0.2,1.3-0.5
			c0.2,0.3,0.5,0.5,0.8,0.7c-0.1-0.8-0.2-1.6-0.8-2.2c-0.9,0.4-1.9,0.6-2.8,0.7c0.7-0.4,1.3-0.7,2.1-1c-0.2-0.2-0.3-0.3-0.5-0.5
			c-1.1,0-2.1,0.2-3.2,0.3c0.7-0.5,1.5-0.6,2.3-0.7c-0.1-0.4-0.3-0.8-0.5-1.3c-1.1,0.2-2,0.8-3,1.3c0.3-0.7,0.8-1.2,1.4-1.7
			c0,0.2-0.1,0.4-0.1,0.7c0.2-0.1,0.5-0.2,0.7-0.3c-0.3-0.8-0.6-1.5-1.1-2.2c0.8,0.4,1.2,1.3,1.2,2.2c0.4,0,0.7,0.1,1.1,0.1
			c0.3,0.4,0.4,0.9,0.5,1.3c0.3,0,0.5,0.1,0.8,0.1c0.1,0.2,0.3,0.5,0.4,0.8c0.4,0.1,0.8-0.1,1.1,0.2c0.5,0.6,0.8,1.5,0.7,2.3
			c1.6,1.1,3,2.5,4.6,3.6c-0.5-1.1-0.8-2.4-0.2-3.6c-1.2-0.6-2.4-1-3.6-1.6c1.3,0.1,2.6,0.7,3.9,1.2c0.2-0.1,0.3-0.2,0.5-0.3
			c-1.3-1.2-3-2.1-4.5-3.2c-2.8-2-6-3.6-9.3-4.6c0,0.6,0.2,1.2,0.5,1.8c-0.2-0.1-0.4-0.2-0.5-0.4c-0.2,0.2-0.3,0.4-0.5,0.5
			c0.4,0.3,0.8,0.6,1.1,1c-0.9-0.4-1.7-1.1-2.5-1.7c-1.4-1-2.7-2.1-4-3.2c-1.1-0.9-2.3-1.7-3.3-2.7c-1-0.8-1.9-1.7-2.5-2.8
			c0.7,0.5,1.3,1.2,2,1.8c1.4,1.3,3,2.4,4.5,3.6c1.6,1.2,3,2.6,4.6,3.7c0.2-0.2,0.4-0.4,0.5-0.6c-0.1-0.5-0.1-1.1,0.2-1.5
			c-0.4-0.6-0.8-1.5-1.6-1.7c-0.8-0.3-1.4-1-1.9-1.6c-0.2,0.3-0.3,0.7-0.7,0.7c-1,0.1-2.2-0.2-2.7-1.1c-0.3-0.5,0-1,0.2-1.5
			c-0.5-0.4-1.1,0.1-1.7,0.2c-0.5,0.1-0.7-0.5-0.8-0.9c-0.2-0.5,0.2-1,0.5-1.4c-0.5-0.6-1.3-1.1-1.8-1.8c-0.3-0.7,0-1.6,0.3-2.3
			c0.5-1.1,1-2.1,1.8-3C195,1.4,195.7,0.9,196.5,0.3z M197.1,0.4c-2.2,1.4-4.1,3.5-4.7,6.1c0,0.3-0.1,0.6,0.2,0.7
			c0.5,0.4,0.9,0.8,1.4,1.3c0.2-0.4,0.4-0.7,0.6-1c-0.6-0.6-1-1.3-0.9-2.2c0.3,0.7,0.5,1.4,1.1,1.9c0.7-0.7,1.1-1.5,1.8-2.2
			c1.3-1.4,2.7-2.6,4.5-3.3c-0.4-0.6-0.8-1.2-1.5-1.5C198.8-0.1,197.8,0,197.1,0.4z M176.1,2.1c-0.7,0.5-1.3,1.2-1.9,1.9
			c0.2,0.2,0.4,0.4,0.7,0.6c-0.1,0.5-0.5,0.8-0.9,1c-0.2,1.2,0.2,2.5,1.2,3.1c0.8,0.5,1.9,0.8,2.6,0.1c0.5-0.6,1.1-1.3,0.9-2.1
			c-0.3,0.4-0.4,1-0.9,1.2c-0.5,0.4-1.1,0.3-1.7,0.2c-0.6-0.8-0.9-1.8-0.6-2.7c0.3-1.2,1.5-2,2.6-1.9c1,0.2,1.9,0.9,2.5,1.7
			c0.8,0.8,1.2,1.9,1.6,3c0.4-0.3,0.5-0.7,0.8-1c0.1,0.6-0.3,1-0.8,1.4c0.1,0.1,0.2,0.4,0.2,0.5c0.2-0.3,0.4-0.7,0.7-0.9
			c0,0.5-0.3,0.9-0.8,1.2c0,0.2,0,0.4,0,0.6c0.5-0.2,0.7-0.7,0.9-1.1c0,0.6-0.3,1.2-0.9,1.4c0.1,1.2-0.1,2.4-0.1,3.6
			c0.8-0.5,1.6-0.9,2.5-0.7c-0.3-0.8-0.6-1.5-0.6-2.4c0.1-0.5-0.2-1-0.3-1.6c-0.1-1.4-0.7-2.7-1.2-3.9c-0.4,0-0.9,0.1-1.2-0.3
			c-0.4-0.5-0.2-1.3,0.3-1.8c-0.9-0.9-2.1-1.5-3.3-1.7C177.8,1.7,176.9,1.6,176.1,2.1z M175.3,1.7c-0.2,0.1-0.1,0.7,0.2,0.5
			C175.8,2.1,175.7,1.6,175.3,1.7z M199.6,2.9c-1.9,1.2-3.2,2.9-4.6,4.5c0.6,0.2,1.2,0.5,1.8,0.2c1.5-0.5,3-0.8,4.4-1.5
			c0.8-0.2,1.4-0.6,2-1c-0.4,0.8-1.4,1-2.2,1.4c-1.7,0.9-3.7,1.1-5.4,2c-0.6,0.3-1.4,0.6-1.7,1.3c0,0.4,0.2,0.8,0.3,1.3
			c0.4,0,0.7-0.1,1.1-0.2c0.5-0.1-0.1-0.5-0.3-0.5c0.3-0.3,0.5-0.6,0.9-0.8c2-1.1,4.2-1.7,6.1-2.8c1.3-0.7,2.5-1.9,2.4-3.5
			c0.1-0.3-0.3-0.4-0.5-0.2c-0.4,0.6-0.7,1.2-1,1.8c-0.6-0.9-1.3-1.8-1.8-2.8C200.7,2.2,200.2,2.6,199.6,2.9z M182,3.4
			c-0.1,0.4-0.2,0.8-0.2,1.2c0.1,0.3,0.5,0.4,0.7,0.5c0.3-0.5,0.5-1,0.8-1.4C182.9,3.5,182.5,3.2,182,3.4z M203,7.6
			c0.8-0.4,1.8-0.3,2.5-1c-0.1,0.8-0.9,1-1.6,1c0.2,0.1,0.5,0.3,0.8,0.4c0.3,0,0.8-0.4,1-0.1c0.3,0.4,0.4,1,0.1,1.4
			c-0.5,0.6-1.3,1-2,0.9c-0.4-0.2-0.6-0.6-0.6-1.1c0.3,0,0.6,0,0.9,0c-0.2,0.1-0.4,0.2-0.5,0.3c0.1,0.2,0.1,0.4,0.4,0.5
			c0.7-0.1,1.3-0.3,1.8-0.8c0.2-0.4,0-0.9,0-1.3c-0.4,0.1-0.7,0.3-1.1,0.3c-0.5,0-0.8-0.4-1.2-0.6c-0.3,0.9-0.6,1.8-1,2.5
			c-0.4,0.7-1.3,0.9-2.1,0.8c-0.7-0.1-1.3-0.5-1.9-0.8c0-0.8,0.6-1.4,1.2-1.8c-0.7,0.3-1.5,0.6-2.2,0.9c0.3,0.9,0.9,1.6,1.3,2.4
			c-0.4-0.1-0.8-0.3-1.2-0.3c-0.4,0.1-1,0.1-1.1,0.6c-0.2,0.3,0.1,0.7,0.3,0.9c0.6,0.5,1.5,0.8,2.3,0.7c0.3-0.2,0.3-0.6,0.4-0.9
			c0.6,0.6,1.1,1.4,1.9,1.7c1.6,0.2,3.3,0.2,5,0.2c0.7-0.2,1.5,0,2.1-0.6c0.5-0.5,1.1-1,0.9-1.8c-0.6-0.6-1.4-1.2-1.6-2.1
			c-0.3-1-0.6-2.1-1-3c-0.3-0.3-0.6-0.7-1.1-0.6c-0.1-0.2-0.2-0.3-0.3-0.5c-0.1,0.9-1.1,1.1-1.8,1.3c0.3-0.7,0.6-1.5,1.3-2
			c0-0.1-0.1-0.2-0.2-0.3C203.7,5.7,203.4,6.7,203,7.6z M203.8,7c0.3-0.1,0.7-0.3,0.9-0.6c0-0.2,0-0.5,0-0.7
			C204.3,6,204,6.5,203.8,7z M200.2,8.1c0.7-0.1,1.4-0.2,2.1-0.4c0.5-0.1,0.7-0.6,0.9-0.9C202.2,7.4,201.2,7.7,200.2,8.1z
			 M198.3,10.1c0.9,0.5,2,0.8,2.9,0.4c1.1-0.4,1.3-1.8,1.7-2.8C201.4,8.5,199.2,8.4,198.3,10.1z M186.9,9.2c0.4,0.4,0.9,0.6,1.5,0.6
			c-0.2,0.3-0.4,0.5-0.6,0.8c0.6,0.1,1.2-0.2,1.8-0.2c0.7-0.4,0.5-1.4,0-1.8C188.7,7.7,187.2,8.1,186.9,9.2z M166,10.3
			c-1.3,1.6-1.9,3.6-2.8,5.4c0.5-0.1,1-0.2,1.5-0.3c-1,0.8-2.4,0.6-3.6,0.5c-0.2,0-0.6-0.1-0.7,0.2c-0.1,0.5-0.1,1-0.1,1.5
			c-0.1,1,0.1,2,0.3,3c0.1,0.5,0.3,1.1,0.8,1.3c1.2,0.4,2.4-0.2,3.6-0.5c-0.3-0.6-0.7-1.2-0.6-1.8c-0.5,0-0.9,0.1-1.4,0.1
			c1.2-0.6,2.5-0.8,3.8-1.1c0.8-1.1,0.7-2.6,1.6-3.7c0.3-0.5,1.1-0.4,1.4,0c0.8,0.8,1.2,1.8,2,2.6c0.5,0.5,1,1.3,1.9,1.3
			c0.8,0,1.4-0.7,1.5-1.4c0.3-1,0.1-2.2-0.4-3.1c0,0.6-0.3,1.2-0.7,1.6c-0.5,0.2-1-0.4-1.2-0.8c-0.4-1.1-0.2-2.5-1.1-3.4
			c-1-1-2.5-1.7-3.9-1.4c-0.7,0.2-1,1-1.4,1.5c0.2-0.8,0.6-1.7,1.4-1.9c1.1-0.4,2.2,0,3.2,0.5c1,0.4,1.6,1.4,1.7,2.4
			c0.2,1-0.1,2.4,1.1,2.8c0.4-0.5,0.6-1.1,0.7-1.7c0.6,0.3,0.7,1,0.9,1.6c0.2,1,0.3,2.3-0.5,3c0.2,0.6,0.5,1.1,0.4,1.7
			c-0.1,1.1-0.1,2.2-0.5,3.2c-0.2,0.8-0.7,1.8-0.2,2.6c0.3,0.6,1,0.7,1.5,1c1.4,0.8,3.1,0.7,4.7,0.6c1.3-0.2,2.6-0.3,3.7-0.9
			c1.3-0.8,2.4-2,3-3.5c0.4-1.2,0.9-2.3,0.8-3.6c-0.1-1.9-0.6-4-2.2-5.3c-0.7-0.8-1.8-0.8-2.8-0.5c-1,0.4-1.6,1.3-2.5,1.7
			c-0.5,0.3-1.1,0.3-1.5,0.7c1,0.4,2.1-0.1,3.1,0.2c-1.4,0.5-3,0.4-4.4-0.3c-1.5-1-2.6-2.4-3.6-3.8c-0.4-0.5-0.7-1.1-1.3-1.5
			c-1.3-0.9-2.6-1.9-4.1-1.9C168.1,9,166.8,9.4,166,10.3z M187.6,11.4c0.5,0.1,1.3,0.3,1.7-0.2c-0.6,0.1-1.4,0.1-1.8-0.5
			c0-0.2,0-0.4,0.1-0.6c-0.3-0.3-0.6-0.6-0.9-0.9C186.3,10,186.7,11.2,187.6,11.4z M195.7,10.1c0,0.5,0.5,0.8,0.9,1.1
			c0.4-0.1,0.8-0.2,1.3-0.1c-0.4-0.5-0.6-1.1-0.7-1.8C196.6,9.6,196.1,9.8,195.7,10.1z M145.6,10.9c-0.8,0.5-1.6,1.1-2.3,1.8
			c-1.1,1.1-1.5,2.8-1.2,4.4c0.2,1.1,0.6,2.2,1.2,3.2c0.9,1.4,1.9,2.8,3,4c1,1.4,2.3,2.6,3.2,4c0.3,0.1,0.7-0.2,1.1-0.3
			c0.3-0.6,0.6-1.3,1.1-1.8c-0.8-0.8-1.5-1.7-2.2-2.6c-0.4-0.5-0.8-1-1.4-1.3c-0.8-0.3-1.6-0.6-2.1-1.4c0.1-0.1,0.3-0.3,0.4-0.4
			c-0.8-1-1.9-2-1.8-3.3c0.1-1.3,0.7-2.6,1.7-3.4c1-0.7,2.3-1.3,3.5-0.8c1.1,0.5,2,1.3,2.7,2.3c0.1-0.1,0.3-0.3,0.4-0.5
			c0.6,0.5,1.1,1.3,1.4,2c0.2,0.3,0,0.7-0.1,1c1.1,1.1,2.4,2,3.4,3.1c0.6-0.5,1.5-0.6,2.2-0.9c-0.1-0.5-0.1-1-0.3-1.4
			c-1.8-1.6-3.3-3.3-5.1-4.9c-1.5-1.2-3.1-2.7-5.1-3.1C148.3,10.2,146.9,10.1,145.6,10.9z M218.7,10.3c0.3,0.5,0.5,1,0.7,1.6
			c0.3-0.3,0.6-0.6,0.9-1C219.8,10.7,219.2,10.5,218.7,10.3z M181.8,12.6c-0.2,0.2,0,0.6,0.3,0.4C182.3,12.8,182.1,12.3,181.8,12.6z
			 M146.6,14.1c-0.8,0.8-1.3,1.8-1.4,2.9c-0.2,1.3,0.8,2.3,1.5,3.2c0.1,0.2,0.4,0.1,0.6,0.1c0.1-0.4,0.3-0.8,0.5-1.2
			c-0.3,0.2-0.7,0.4-1.1,0.6c0.2-0.4,0.4-0.8,0.7-1.2c0.5-0.1,0.9,0.1,1.4,0.1c0.5,0.1,1-0.3,1.2-0.7c-0.2,0.1-0.4,0.2-0.7,0.2
			c-0.1-0.2-0.1-0.5-0.2-0.7c0.2,0.1,0.4,0.2,0.6,0.3c0-0.3,0-0.5,0-0.8c0.2,0.3,0.3,0.7,0.4,1c0.4-0.8,0.5-1.7,0.4-2.6
			c0.4-0.2,0.8-0.3,1.3-0.4c-0.2,0.2-0.5,0.5-0.6,0.8c0.2,0,0.5,0,0.7,0c0.2-0.2,0.3-0.5,0.4-0.8c-0.2-0.4-0.6-0.6-0.9-0.9
			c-0.5-0.4-1-0.9-1.6-1C148.6,12.9,147.4,13.4,146.6,14.1z M209.3,13.1c-0.1,0.6,0.6,0.8,1.1,1c1.1,0.6,2,1.4,3,2
			c1.3,1.1,2.4,2.3,3.3,3.8c0.7,1,1.1,2.2,1.8,3.2c0.2-0.4,0.2-0.8,0.3-1.1c0.4-0.6,1-1.1,1.7-1.3c0.5-1.6-0.4-3.1-0.6-4.6
			c-0.5,0.6-1.2,1.1-1.8,1.6c0.4,1,0.6,2,0.8,3.1h-0.1c-0.1-0.7-0.4-1.3-0.6-1.9c-0.4-1.6-0.7-3.3-1.5-4.8c-0.2,0.1-0.2,0.4-0.4,0.6
			c-0.2,0.5-0.7,0.8-1,1.2c0.2-0.7,0.3-1.5,0.2-2.2c-1.5-0.1-2.9-0.4-4.3-0.4C210.5,13.2,209.9,12.9,209.3,13.1z M224.4,13
			c0,0.2,0,0.5,0,0.7c1.4,0.3,0.9,2.1,1.6,3c0.6,0.8,1.1,1.6,1.4,2.5c0.5-1.1,1.7-1.7,1.8-2.9c-0.5,0.2-0.8,0.6-1.3,0.9
			c0.2-0.6,0.7-1.3,1.4-1.3c0.1,0.8-0.4,1.5-0.7,2.2c0.5-0.3,0.9-0.7,1.5-0.9c-0.8,0.8-1.7,1.6-2.5,2.3c-0.1,0.6-0.2,1.3,0,1.9
			c0.2,0.9,0.3,1.8,0.4,2.6c0.1,0.8-0.2,1.5-0.1,2.3c0.8-0.2,1.5-0.5,2.3-0.6c1.1-0.1,2.2,0.3,3.3,0.5c-0.7-1.7-1.3-3.3-1.6-5.1
			c-0.2-1.4-0.5-2.8-0.5-4.2c0-1.1-0.9-2.2-2.1-2.3C227.5,14.5,226.1,13.4,224.4,13z M223.6,15.3c0.4-0.3,1-0.6,1.1-1.1
			C224.1,13.8,223.6,14.7,223.6,15.3z M224,15.2c0.2,0.3,0.4,0.6,0.7,0.7c0.3-0.5,0.4-1,0.2-1.6C224.6,14.7,224.3,15,224,15.2z
			 M220.3,15C220.2,15.1,220.2,15.1,220.3,15C220.4,14.9,220.4,14.9,220.3,15z M220.8,14.9c-0.3,0.1-0.5,0.8,0,0.5
			C220.9,15.3,221.1,14.7,220.8,14.9z M167.7,17.6c-0.4,1.4-2,1.8-3.2,2c0.7,1.1,1.2,2.5,2.6,2.9c0.8-0.5,1.7-1,2.7-0.6
			c0,0.1-0.1,0.2-0.1,0.3c-0.5,0-1,0-1.5,0.2c0.3,0.3,0.7,0.1,1.1,0.1c-0.2,0.5-1.3,0.8-1.2,0.1c-0.1,0-0.3,0.1-0.4,0.1
			c0.3,0.3,0.8,0.4,1,0.9c0.4,0.7,1,1.3,1.8,1.4c1.2,0.1,2.4,0.2,3.6-0.1c0.5-1.1,0.9-2.2,0.9-3.4c0.1-0.9,0.3-1.8-0.3-2.6
			c-0.7,0.5-1.6,0.5-2.3,0c-0.4,0.5-0.8,0.9-1.2,1.3c-0.3-0.8-0.4-1.8,0.1-2.6c-0.2-0.3-0.5-0.5-0.7-0.8c-0.3,0.6-0.3,1.2-0.3,1.8
			c-0.2,0-0.4,0.1-0.6,0.1c0.1-0.7,0.2-1.6,0.8-2.1c-0.5-0.6-0.8-1.3-1.4-1.7C168.1,15.4,168,16.6,167.7,17.6z M202.2,15
			c0.3,0.4,0.6,0.8,0.9,1.1c1-0.2,1.9-0.6,2.8-1C204.7,15.2,203.4,15,202.2,15z M207.4,15c0,0.4,0,0.8,0.1,1.2
			c0.3,0.3,0.9,0.3,1.3,0.5c0.2-0.2,0.3-0.4,0.5-0.6c-0.3-0.4-0.3-0.8-0.7-1.2C208.2,14.9,207.8,15,207.4,15z M220.8,15.4
			c-0.1,0.6,0.7,0,0.5-0.3C221.1,15,221,15.3,220.8,15.4z M153.1,15.6c0.4,0.6,0.8,1.2,1.3,1.7c0-0.9-0.6-1.5-1.1-2.2
			C152.9,15,152.9,15.4,153.1,15.6z M152.6,15.5c-0.2,0.4,0,0.7,0.2,1c0.3,0.8-0.4,1.7-1.1,2c0.4,0.5,0.7,1.1,0.6,1.7
			c-0.6,0-1.1,0-1.7,0c0.3-0.5,1-0.4,1.5-0.4c-0.3-0.6-0.7-1.3-1.4-1.4c-0.2,0.1-0.4,0.3-0.6,0.5c0.3,0.9-0.3,2-1.2,2.2
			c-0.6,0.2-1.1-0.3-1.6-0.5c0.2,0.6,0.8,1,1.2,1.5c1.1,0,2.5,0.1,3.2,1.1c-0.7-0.1-1.2-0.6-1.9-0.6c0.7,0.5,1.6,0.7,2.4,1.1
			c0.3,0.1,0.6,0.4,0.9,0.2c0.9-0.8,2-1.5,2.7-2.4c0-0.5-0.4-1-0.5-1.4c-0.2-0.3-0.2-0.7-0.5-0.9c0,0.1,0,0.4,0,0.6
			c-0.4-0.7-0.5-1.6-0.6-2.4C153.6,16.6,153.1,16,152.6,15.5z M224.9,16.1c-0.2,0-0.5,0-0.7,0c0,0.3,0,0.6,0.1,0.8
			c0.4-0.1,0.7-0.4,1.1-0.6c-0.1-0.3-0.1-0.5-0.2-0.8C225.1,15.7,225,15.9,224.9,16.1z M220.1,16.4c0.2,1.1,0.8,2.1,0.9,3.2
			c0,0.5-0.2,0.9-0.4,1.3c0.6,0.2,1.1,0.6,1.7,0.9c0.2-0.7,0.4-1.5-0.1-2.1c-0.3-0.4-0.1-0.9-0.4-1.2c-0.5-0.6-0.7-1.4-0.8-2.2
			c0-0.2-0.1-0.4-0.2-0.5C220.4,15.9,220.2,16.2,220.1,16.4z M208.9,16.8c0.3,0.9,0.7,1.8,1,2.7c0.3,0.8,1.1,1,1.7,1.4
			c1.7,1.2,3.6,2.1,5.1,3.6c0-0.3,0-0.6,0.2-0.8c0.3-0.3,0.7-0.4,1.1-0.6c-0.7-1.6-1.5-3.2-2.7-4.6c-0.9-0.8-2-1.5-3.1-1.9
			c-0.8-0.2-1.6-0.4-2.4-0.4C209.3,16.1,209.2,16.6,208.9,16.8z M151.1,16.8c0,0.3-0.1,0.6,0.1,0.9c0.3,0.5,1.2-0.2,0.9-0.7
			C151.9,16.6,151.4,16.7,151.1,16.8z M154.4,18c0,0.4,0,0.8,0.3,1.1c0-0.1,0.1-0.3,0.1-0.4c0.3,0.6,0.5,1.1,0.8,1.7
			c0.2-0.2,0.3-0.5,0.5-0.7C155.5,19.1,155,18.5,154.4,18z M171.6,18c-0.1,0.4-0.6,1,0,1.2C172.2,19,172.2,18.2,171.6,18z
			 M148.3,19.4c-0.1,0.4,0,1.2,0.6,1.1c0.5,0,0.5-0.6,0.5-1C149.1,19.2,148.7,19.2,148.3,19.4z M171.3,19.3c-0.1,0.3,0,0.3,0.2,0.2
			C171.6,19.3,171.6,19.2,171.3,19.3z M226.8,19.6c-0.1,0.3,0,0.3,0.2,0.2C227.2,19.6,227.1,19.5,226.8,19.6z M224.8,20.7
			c0.5-0.1,0.9-0.4,1-0.9C225.4,20.1,225.1,20.4,224.8,20.7z M159.7,22.6c-0.6,1.6-1.9,2.8-3.2,3.9c-1.6,1.1-3.5,1.3-5.3,1.7
			c-0.7,0.1-1.4,0.4-2,0.8c-0.1,0.5-0.1,0.9-0.1,1.4c0.8-0.9,2.1-0.7,3.2-0.9c1.3,0.1,2.4-0.3,3.7-0.5c1.4-0.2,2.8-0.8,3.7-1.9
			c1.1-1.3,1.5-2.9,1.9-4.5c-0.9-0.3-1.1-1.3-1.3-2.1C159.9,21.1,160,21.9,159.7,22.6z M146.4,20.8c0.3,0.6,1,0.9,1.6,1.2
			c-0.3-0.5-0.8-0.9-1.2-1.3C146.7,20.7,146.5,20.8,146.4,20.8z M198.8,24.1c0.2,0.2,0.3,0.5,0.4,0.8c-0.3-0.1-0.5-0.9-0.8-0.5
			c0.1,0.3,0.4,0.5,0.8,0.5c0,0.1,0,0.3,0,0.5c0.6-0.1,1.2,0.2,1.7,0.4c1,0.5,2.3,0.7,2.8,1.8c-1.2-0.9-2.7-1.5-4.2-1.9
			c0,0.4-0.1,0.8-0.1,1.3c0.4,0.3,0.9,0.6,1.2,1c0.4,0.6,0.1,1.3,0.1,2c0.6,0.1,1,0.5,1.2,1c0.8,0,1.5-0.1,2.3,0
			c0.5,0.1,0.9-0.2,1.3-0.4c-0.8-0.5-1.6-1.2-2-2.1c-0.3,0.7-0.2,1.5-0.5,2.2c-0.1-0.9,0-1.9,0.3-2.8c0.2,0.1,0.4,0.1,0.7,0.2
			c0.5-0.7-0.1-1.6,0.5-2.2c-0.4-1.1-1.2-2-1.6-3.1c-0.1-0.3-0.2-0.6-0.4-0.8c-0.4-0.3-0.9-0.5-1.3-0.7
			C200.2,22.1,199.7,23.2,198.8,24.1z M190.1,21.7c-0.9,0.4-1.5,1.2-2,2.1c-0.4,0.6-0.4,1.3-0.6,2l-0.2,0.1c0-0.3,0-0.6,0-1
			c-0.9,1.1-1.8,2.3-3.1,2.9c-1,0.7-2.1,1-3.2,1.1c0.7,1,1.3,2,2.1,2.8c1.5,0,3.2-0.2,4.4-1.3c-0.7-0.9-1.3-1.8-1.6-2.8
			c0.6,0.8,1.1,1.7,1.7,2.5c0.2-0.2,0.4-0.5,0.6-0.8c-0.5-0.8-1.4-1.6-1.2-2.6c0.1-0.3,0-0.7,0.3-0.9c0,0.5,0,1,0.1,1.4
			c0.1-0.9,0.4-1.7,0.6-2.6c0.3-1.3,1.3-2.4,2.6-2.8C190.5,21.8,190.4,21.5,190.1,21.7z M227.1,21.7c0,0.6-0.3,1.2-0.9,1.5
			c0.1,0.6,0,1.1-0.2,1.6c0.5,1,1.2,2,1.8,2.9c0.1-0.4,0-0.8-0.3-1.1C227.4,25,227.7,23.3,227.1,21.7z M161.8,22.6
			c-0.1,0.6-0.2,1.1-0.3,1.7c-0.2,1.1-0.8,2-1.4,2.9c-1.2,1.4-3,2.1-4.8,2.3c-1.8,0.4-3.6,0.3-5.4,0.5c-0.6,0.6-1.1,1.3-1.5,2.1
			c2.4-0.2,4.9,0,7.3-0.6c-0.7,0.4-1.5,0.5-2.3,0.6c-1.7,0.2-3.5,0.2-5.2,0.3c-0.3,0.4-0.7,0.9-0.9,1.4c0.2,1.1,0.7,2.1,1.2,3.1
			c0.5,1.1,1.4,2,2.1,3c0.6,0.7,1.3,1.3,2.1,1.7c0.2,0.1,0.4,0,0.6-0.2c0.5-0.6,0.9-1.2,1.4-1.7c1.2-1.7,2.4-3.3,3.4-5.1
			c0.7-1.6,1.8-3,2.1-4.8c-1,0.6-2.1,1.2-3.3,1.4c0.3-0.4,0.8-0.4,1.1-0.6c1.8-0.6,3.2-2,4.2-3.6c0.6-1.1,1-2.3,1.3-3.5
			c0-0.2,0.1-0.3,0.3-0.4c-0.1,0.9-0.4,1.8-0.7,2.7c-0.4,1.4-1.4,2.5-2.4,3.5c0.3,1.7,0.3,3.3,0.4,5c0.1-0.9,0.3-1.8,0.4-2.6
			c0.3,0.5,0.5,1,0.6,1.6c0.4,2,0.7,4.1,0.9,6.2c0.3,2,1,3.9,1.6,5.8c0.8-0.4,1.4-1.1,2.2-1.5c-0.4-0.6-0.8-1.2-1-1.8
			c-0.5-1.3-0.5-2.8,0.2-4c0.8-1.5,2.5-2.3,4.2-2.2c1.2,0,2.3,0.7,3.2,1.5h0.1c0.8-1.1,1.6-2.1,2.3-3.2c0.2-0.3-0.1-0.6-0.2-0.8
			c-0.7-0.8-1-1.9-1.5-2.9c-0.6-0.3-1.3,0.2-1.8,0.5c-0.4,0.4-1,0-1.4,0.4c-1.4,0.8-2.6,2-4.2,2.6c-0.1-0.6,0.1-1.2,0.5-1.5
			c0.6-0.5,1.1-1.2,1.9-1.4c-0.3-0.6-1-0.4-1.4-0.9c0.5-1,1.9-0.5,2.6-1.2c0.5-0.5,0.9-1.1,1.5-1.5c0.3-0.2,0.7-0.1,1.1-0.1
			c-0.2-0.6-0.4-1.3-0.7-1.9c-1,0.1-2-0.1-2.9-0.4c-0.7-0.3-1-1-1.3-1.6c-0.4-0.3-0.9-0.3-1.4-0.3c-0.3-0.5-0.8-0.9-1.3-1.2
			C164.2,22.1,163.1,22.5,161.8,22.6z M149.6,22.9c0.4,0.4,0.8,0.8,1.1,1.3c0.4-0.1,0.7-0.2,1-0.4C151,23.5,150.3,23.1,149.6,22.9z
			 M151.6,24.2c0.3,0.5,0.8,0.7,1.2,1.1c-0.4,0.9-1.1,1.6-1.5,2.5c0.1,0,0.4-0.1,0.5-0.1c0.4-0.9,1.1-1.6,1.2-2.6
			c-0.2-0.4-0.4-0.7-0.8-0.9C152.1,24,151.7,23.9,151.6,24.2z M224.4,25.6c-0.2,0.5-0.2,1.1-0.6,1.6c0.1,0.2,0.2,0.4,0.3,0.6
			c0.2,0,0.4,0,0.7,0c0.2,0.6,0.4,1.2,0.5,1.8c0.2,0.1,0.4,0.1,0.6,0.3c0.3,0.7,0.4,1.4,0.8,2c0.6,0.9,0.8,2,1.3,3
			c1-1.1,2-2.3,2.9-3.6c-0.8-0.3-1.6-0.8-2.2-1.4c-1.3-1.4-2.2-3.2-2.8-5C225.3,25.1,224.8,25.2,224.4,25.6z M172.6,25.4
			c0.3,0.7,0.5,1.5,0.8,2.2c0.1-0.8,0-1.6,0-2.4C173.2,25.2,172.9,25.3,172.6,25.4z M209.8,25.6c0.3,0.6,0.9,0.8,1.4,1.2
			c1.1,0.8,2,1.8,3.2,2.4c0.8,0.1,1.5,0.4,2.3,0.8c-0.6-0.8-1.5-1.2-2.2-1.8c-1.3-1.1-2.7-1.9-4-3C210.3,25.2,210,25.4,209.8,25.6z
			 M196.5,25.8c-0.4,0.2-0.9,0.5-0.9,1c-0.1,0.6,0.5,1,1,0.9c0.6,0.1,1.1-0.4,1-1C197.7,26,197,25.6,196.5,25.8z M232.8,26.4
			c0,0.1-0.1,0.2-0.2,0.2C232.8,27.2,233.5,26.3,232.8,26.4z M174.9,26.7c0,0.3-0.1,0.5-0.1,0.8c-0.4,1.6,0.4,3.3,1.6,4.3
			c1.6,1.4,3.5,2.6,5.1,4.1c0.7,0.5,1.5,1,2,1.8c0-1.3,0.4-2.6,0.9-3.8c-0.9-0.8-1.7-1.7-2.5-2.7c-0.7-0.9-1.1-1.9-1.8-2.8
			c-0.9-0.1-1.9-0.1-2.8-0.4C176.5,27.8,175.8,27.1,174.9,26.7z M227.7,27.7c0.1,0.2,0.2,0.5,0.3,0.7c0.6-0.5,1.4-0.6,2.2-0.5
			c0.2,0.7,0.5,1.4,0.4,2.1c-0.3-0.6-0.4-1.3-0.7-2c-0.3-0.1-0.6,0.1-0.9,0.2c0.1,0.5,0.3,1,0.3,1.6c0.5,0.4,1.2,0.6,1.7,1.1
			c0.3,0.2,0,0.5-0.1,0.7c0.6,0.5,1.5,0.5,2.1,0.9c-0.4,0.1-0.8,0-1.2-0.1c0.4,0.4,0.8,0.9,1.2,1.3c0.2-0.4,0.4-0.7,0.6-1.1
			c0-0.6-0.2-1.2-0.2-1.8c0-0.4,0-0.8-0.1-1.2c-0.2-0.6-0.8-1-1.3-1.4c0.1,0.6,0.2,1.3,0.2,1.9c-0.5-0.7-0.2-1.9-1.1-2.5
			c0.7,0.2,1.3,0.5,1.9,0.7c0.1-0.1,0.2-0.3,0.3-0.4c-0.6-0.4-1.2-1-1.9-1.1C230.1,26.8,228.7,26.8,227.7,27.7z M210.5,26.9
			c0.2,0.5,0.4,1.1,0.2,1.7c-0.1,0.6-0.6,0.8-1.1,1c1.3-0.1,2.7-0.2,4-0.7C212.5,28.3,211.5,27.6,210.5,26.9z M172,27.8
			c-0.8,0.4-1.2,1.3-2,1.7c-0.7,0.2-1.4,0.2-2.1,0.5c0.6,0.5,1.3,0.1,1.9-0.1c0.5-0.2,1,0.1,1.5,0.1c0.3-0.2,0.6-0.4,1-0.6
			c-0.1,0.4-0.4,0.7-0.8,0.8c-0.3,0-0.6-0.1-0.9-0.1c-0.6-0.1-1.2,0.1-1.6,0.5c0.9,0.1,1.9,0.1,2.8,0.2c0.8-0.6,1.7-0.9,2.5-1.6
			c0-0.4,0-0.7,0.1-1.1C173.8,27.8,172.9,27.6,172,27.8z M223.6,29.6c-1.6,1.4-3.3,2.7-5.3,3.5c-0.3,0.1-0.7,0.1-1,0.1
			c0.5,0.5,0.9,1,1.1,1.6c0.7-0.3,1.4-0.6,2-1.1c1.7-1,3.4-2.1,4.8-3.5c-0.3-0.6-0.5-1.3-0.7-2C224.3,28.7,224,29.2,223.6,29.6z
			 M228.5,28.4c-0.2,0.2,0.2,0.6,0.4,0.6C229,28.8,228.8,28.2,228.5,28.4z M188,30.5c0.1,0.2,0.2,0.4,0.4,0.5
			c-0.2-0.1-0.4-0.2-0.5-0.3c-0.8,1.1-2.3,1.4-3.6,1.5c0.1,0.3,0.3,0.7,0.5,1c0.2-0.3,0.3-0.5,0.5-0.8c0.8,0.7,1.2,1.7,1.6,2.6
			c0.1-0.5,0.3-1,0.6-1.5c0.3,0.6,0.4,1.3,0.7,2c0.7,1.4,1.3,2.8,1.9,4.3c0.8-0.3,1.6-0.1,2.4-0.2c0.3-0.4,0.6-0.8,0.8-1.2
			c0.2-0.9,0.2-1.8,0.6-2.6c-0.8-0.6-1.2-1.5-1.8-2.3c-0.6,1.3-1.2,2.6-2.4,3.4c0.3-0.8,0.8-1.4,1.2-2.1c0-0.1,0-0.2,0-0.2
			c-0.5,0.2-0.8,0.8-1.4,1.1c0.3-0.6,0.8-1,1.3-1.4c0.1,0,0.2,0.1,0.2,0.2c0.4-0.3,0.7-0.8,0.9-1.2c-0.2-0.1-0.3-0.4-0.5-0.3
			c-1,0.2-2-0.5-2.5-1.4c-0.2-0.4,0.2-0.8,0.4-1.1c-0.3-0.3-0.7-0.6-1-0.9C188.3,29.8,188,30.1,188,30.5z M174.4,30.5
			c0.4,0.9,0.8,1.9,1.4,2.7c-0.1-0.6-0.2-1.3-0.4-1.9C175.2,30.9,174.8,30.7,174.4,30.5z M218.9,30.5c0,0.1,0,0.4,0,0.5
			c0.1,0,0.4,0,0.5,0C219.5,30.6,219.2,30.6,218.9,30.5z M168.5,31.6c-0.2,0.1-0.3,0.2-0.3,0.4c0.9-0.3,1.8-0.4,2.6-1
			C170,31,169.2,31.3,168.5,31.6z M201.4,31.9c0,0.6,0.2,1.3-0.1,1.9c-0.4,0.7-0.8,1.4-1.1,2.1c0.1,0.2,0.2,0.4,0.4,0.4
			c0.4-0.9,1-1.8,1.2-2.8c0.1-0.6-0.1-1.2,0-1.7c0.8,1.6-0.3,3.3-1,4.7c1.2,0.5,2.6,0.5,3.4,1.6c-0.5-0.2-1-0.5-1.5-0.7
			c0.2,0.6,0.4,1.2,0.5,1.9c1.5,0.5,2.6,1.7,3.7,2.9c-0.7-2-1.5-3.9-2.4-5.8c-0.9-1.6-1.3-3.5-2.5-4.9
			C201.7,31.5,201.5,31.7,201.4,31.9z M175.8,31.9c0.2,1,0.5,1.9,0.7,2.9c0.1,0.7,0.7,1.3,1.4,1.3c0.9,0,1.9,0.2,2.6-0.4
			C178.9,34.4,177.3,33.2,175.8,31.9z M167.9,32.3c-0.1,0.3-0.3,0.6-0.4,0.9c0.4-0.2,0.7-0.5,1-0.8
			C168.4,32.4,168.1,32.4,167.9,32.3z M166.8,33.7c0.4-0.2,0.7-0.6,0.6-1.1C167.1,32.9,166.9,33.3,166.8,33.7z M184.6,34.5
			c-0.3,0.9-0.7,1.9-0.7,2.8c0,0.7,0,1.5,0,2.2c1-0.2,2-0.7,3.1-0.9c0.3-0.1,0.6,0.1,0.8,0.4c0.6,0.8,1.6,1.4,2.1,2.3
			c0.3,0.3,0.4,0.8,0.9,0.9c-0.2-0.6-0.6-1.1-0.8-1.7c-0.8-1.7-1.3-3.4-2.1-5.1c-0.2-0.5-0.3-1-0.5-1.4c-0.3,1.1-0.2,2.3-0.7,3.3
			c-0.1-0.7,0-1.3,0-2c-0.3-1-0.8-2-1.4-2.9C185,33.2,184.8,33.9,184.6,34.5z M146,34.4c-0.2,1.3,0.4,2.5,1.1,3.5
			c0.7,0.8,1.5,1.6,2.2,2.3c0.3-0.2,0.6-0.3,0.9-0.4c-0.1,0.3-0.3,0.6-0.4,0.8c0.7,0.9,1.8,1.2,2.8,1.7c0.1-0.2,0.5-0.5,0.2-0.6
			c-1.9-0.9-3.3-2.5-4.4-4.2c-0.7-1.3-1.6-2.6-1.3-4.1C146.6,33.7,146.1,33.9,146,34.4z M173.7,37.7c0.4,0.7,0.8,1.6,0.8,2.5
			c0.1,1-0.3,1.9-0.8,2.8c2.8-1.3,5.8-1.9,8.7-2.8c-0.6-0.5-1.2-1-1.8-1.5c-0.7-0.5-1.5-1.1-2-1.9c-0.5-0.1-1.1-0.1-1.5-0.4
			c-0.7-0.4-0.6-1.3-0.9-2C175.4,35.5,174.7,36.7,173.7,37.7z M217.4,35.4c-0.1,0.3,0.3,0.5,0.5,0.7c0.5,0.7,0.8,1.5,1.4,2.2
			c0.7,1.2,1.3,2.4,1.7,3.7c0.5,1.2,0.8,2.6,1.8,3.6c-0.5-1-0.7-2.1-1.1-3.1c-0.5-1.2-0.8-2.4-1.5-3.4c-0.7-1.1-1.2-2.4-2.1-3.4
			c0.7-0.6,1.5-0.9,2.2-1.3C219.3,34.8,218.4,35.2,217.4,35.4z M158.9,37.5c-0.7,1.8-1.9,3.3-3.2,4.8c-1.2,1.4-2.5,2.7-3.6,4.1
			c-0.6,0.7-1.2,1.3-1.8,1.9c-0.6,0.5-1.3,1-2.1,1.1c-0.4-0.1-0.8-0.2-1.1-0.5c-0.3-0.7-0.2-1.6-0.2-2.3c-0.4,1-0.5,2.1-0.7,3.2
			c0,0.6-0.1,1.5,0.6,1.8c0.7,0.2,1.3-0.2,2-0.4c0.7-0.3,1.5-0.3,2.3-0.1c0.7-2.3,1.8-4.5,3.2-6.5c0.8-1.1,1.9-2.1,3.2-2.7
			c0.7-0.3,1.5-0.2,2.3,0.1c0-0.9,0.2-1.7,0.1-2.6c-0.1-0.8-0.1-1.7-0.2-2.5c-0.1-0.4,0-0.8,0.1-1.2
			C159.4,36.2,159.2,36.9,158.9,37.5z M145.2,37.4c0.3,1.6,1.4,2.9,2.5,4.1c0.4-0.3,0.9-0.6,1.3-0.9c-1.6-1.1-2.7-2.9-3.2-4.8
			C145.3,36.2,145,36.8,145.2,37.4z M193.9,36.1c0,0.9-0.2,1.9-0.3,2.8c0.4,1,0.9,2,1.4,3c0.6,1.4,1.6,2.5,2.6,3.7
			c0.8-0.1,1.7-0.1,2.5-0.2c0.3,0,0.5,0,0.8,0c-1.1,0.1-1.8,1-2.9,1.4c1.1,0.9,2.4,1.4,3.8,1.6c0.9,0.1,1.7,0.4,2.6,0.5
			c0.8,0.1,1.5,0.4,2.1,0.8c-0.6-0.1-1.2-0.4-1.8-0.4c-1.6-0.2-3.3-0.3-4.9-1c-0.8-0.3-1.5-0.8-2.2-1.3c0.5-0.5,1.1-0.8,1.7-1.1
			c-0.7-0.1-1.7,0.3-2.2-0.4c-0.8-0.7-1.5-1.5-2.1-2.3c-0.8-1.3-1.2-2.8-1.9-4.2c0,0.1-0.1,0.4-0.2,0.5c-0.4,1.4-1.8,2.3-1.9,3.8
			c0.7,1.3,1.3,2.7,1.8,4.1c0.4,1.1,1.3,2,2,3c0.7,0.9,1.2,1.9,1.9,2.9c0.8,1.3,1.2,2.7,1.9,4.1c0.6,0.5,1.2,0.9,1.8,1.4
			c1.8,1.1,3.6,2.2,4.9,3.8c0.6,0,1.2,0.1,1.8,0.2c-0.7,0.2-1.4,0.2-2.1,0.1c0.3,0.2,0.7,0.4,1,0.6c0.2,0.4,0.1,0.9,0.2,1.4
			c0.2,0.2,0.4,0.4,0.6,0.6c0.2,0,0.4,0.1,0.6,0.1c0,0.1-0.1,0.3-0.1,0.4c1,0,2,0,2.9,0c0.5-0.1,0.8,0.3,1.1,0.6
			c0.9-0.1,1.7,0.1,2.6,0.2c1.1,0.2,2.3,0.2,3.4,0.4c0.1-0.9,0.2-1.8,0.2-2.8c-0.8-0.1-1.7,0.1-2.5-0.2c-1.1-0.3-2.2-0.8-2.8-1.7
			c-0.3-0.7-0.6-1.3-0.8-2c-0.3-0.3-0.6-0.4-0.9-0.7c-0.4-0.3-0.6-0.8-1.1-0.8c0.1-0.1,0.2-0.2,0.3-0.3c-0.4-0.6-0.6-1.3-0.8-2.1
			c-0.3-0.3-0.7-0.6-1-0.9c-0.7-0.6-1.3-1.4-2-2.1c1.1-0.1,2.2-0.2,3.3-0.4c0.3-0.9,0.8-1.7,1.4-2.4c-0.5-0.7-1.3-1.2-2-1.7
			c-1.2-0.8-2.5-1.6-3.8-2.4c-1.3-0.7-2.4-1.9-3.6-2.8c-1.4-1-2.5-2.3-3.9-3.3C195.9,39.6,195,37.7,193.9,36.1z M198.7,36.4
			c-1.1,0.3-2.3,0.3-3.4,0c1.5,0.8,3.3,0.3,4.9,0C199.9,35.7,199.2,36.4,198.7,36.4z M168.8,36.3c-1.3,0.3-2.4,1.2-2.8,2.4
			c-0.6,1.3-0.3,3,0.6,4.1c1.3,1.6,3.9,2,5.6,0.8c1.5-1,2.2-3,1.5-4.7C173.1,36.9,170.8,35.8,168.8,36.3z M179.4,36.6
			c1,1.3,2.5,2.1,3.6,3.3c0.2-0.1,0.4-0.2,0.7-0.3c-0.1-0.6,0.1-1.4-0.4-1.8c-0.6-0.5-1.2-1-1.9-1.5
			C180.7,36.4,180.1,36.6,179.4,36.6z M200.6,37c0,0.5,0,1.1-0.1,1.6c0.6,0.4,1.2,0.9,1.9,1.1c-0.2-0.5-0.6-1-0.9-1.4
			C201.2,37.8,201,37.3,200.6,37z M144.7,39.6c0.1,1.2,1,2.2,1.9,2.9c0.3-0.3,0.6-0.6,0.9-0.9c-0.6-0.6-1.3-1.1-1.8-1.9
			c-0.3-0.5-0.5-1-0.7-1.5C144.8,38.7,144.6,39.2,144.7,39.6z M186.6,39c-2.1,1.5-4.6,1.9-6.9,2.8c-1.4,0.4-2.7,0.8-4.1,1.2
			c-1.4,0.3-2.6,1-3.9,1.5c-1.1,0.5-2,1.3-3,1.9c1.6,0.3,3.3,0.3,4.8,1.2c1,0.5,1.9,0.9,2.8,1.6c0.8,0.7,1.7,1.1,2.5,1.8
			c1,0.9,1.9,1.9,2.9,2.7c-0.2,0.7-0.5,1.4-0.7,2.1c-0.3,1.2-0.8,2.2-1.4,3.3c0.6-1.8,1.2-3.5,1.9-5.3c-1.5-0.5-2.5-1.7-3.7-2.6
			c-0.7-0.5-1.5-1-2.3-1.6c-1-0.9-2.2-1.3-3.4-1.9c-1.6-0.7-3.3-1-5.1-1.2c0.2,0.6,0.5,1.1,0.7,1.7c0.1,0.6,0.1,1.1,0.2,1.7
			c1.4,0.4,2.8,0.9,3.8,1.9c1.2,1.3,2.4,2.5,3.3,4.1c1.2,2.2,2.5,4.3,3.6,6.5c0.9,1.5,1.8,3,2.7,4.5c0.6,1.2,1.2,2.5,1.8,3.7
			c0.8,1.6,1.7,3.1,2.5,4.8c0.4,0.7,0.6,1.5,0.9,2.3c0.2,0,0.4,0.1,0.6,0.1c-0.8-2.1-1.8-4.1-2.7-6.2c-1.7-3.9-3.8-7.6-5.3-11.5
			c0.7,0.5,1.3,1.2,2.1,1.8c1.1,1,2.3,1.9,3.3,3c0.4-0.9,1-1.6,1-2.6c0-1.4,0.3-2.7,0.4-4.1c0-1-0.1-2-0.2-3.1
			c-0.1-0.7,0.2-1.4,0.1-2.1c0.1,0,0.2,0,0.2,0c0,2,0.5,3.9,0.3,5.9c-0.1,1.1-0.1,2.3-0.4,3.4c0.6-0.7,1.3-1.3,2.1-1.9
			c1.1-0.8,2.4-1.1,3.7-1.3c-0.2-1.6-0.8-3.1-1-4.7c-0.3-1.4-0.4-2.8-0.7-4.1c-0.1-2.8-0.8-5.5-1.5-8.2c-0.2-1-0.6-2-1.1-2.8
			C187.4,38.9,186.9,38.7,186.6,39z M190.3,40c0.2,0.7,0.5,1.3,0.7,1.9c0.4-0.7,0.7-1.4,1.2-2C191.6,39.9,190.9,39.9,190.3,40z
			 M202.4,39.7c0.2,2.3,1.3,4.4,2.2,6.5c0.5,0.7,1.4,0.8,2.1,1.3c0.9,0.5,1.6,1.1,2.4,1.6c-0.8-1.3-1.7-2.5-2.6-3.7
			c-1.1-1.8-2.4-3.5-3.6-5.2C202.8,40,202.6,39.8,202.4,39.7z M188.5,40.3c0.7,1.5,1,3.2,1.3,4.8c0.6,2.2,0.7,4.5,1,6.8
			c0.3,2.4,0.7,4.8,1,7.2c0.5,0,0.9,0,1.4,0c-0.3-0.7-0.5-1.4-0.7-2.1c-0.4-1.7-0.7-3.5-0.9-5.3c0.9,0.7,1.3,1.8,2,2.7
			c1.1,1.9,2.3,3.7,3.4,5.6c1.4,2,2.3,4.3,3.8,6.3c-0.2-0.8-0.6-1.5-0.8-2.2c-0.5-2.1-1.2-4-1.9-6c-0.6-1.7-1.3-3.4-2.3-4.9
			c-0.8-1.3-1.5-2.6-2.3-3.8c0.3,1,0.6,2,0.5,3c-0.5-1.4-0.8-2.8-1.5-4.2c-1-2-1.7-4.1-2.8-6C189.4,41.6,189.1,40.8,188.5,40.3z
			 M149.6,41c-0.2,0.4-0.4,0.9-0.5,1.3c0.8,0.4,1.6,0.5,2.5,0.7c0.4,0.1,0.6-0.4,0.9-0.7C151.4,42.2,150.4,41.7,149.6,41z M149,42.7
			c-0.1,0.3-0.2,0.6-0.2,1c0.6,0.3,1.3,0.4,1.9,0.3c0.3-0.2,0.7-0.4,0.9-0.7C150.7,43.1,149.8,43.1,149,42.7z M155.6,44.9
			c-0.7,0.9-1.5,1.9-2,2.9c-0.9,1.8-1.9,3.7-2.2,5.7c-1.1,0.4-2.2,0.6-3.3,0.7c0.1,1,0.3,2,0.5,3c-0.5,1-0.2,2-0.3,3
			c0.5-0.3,1-0.8,1.6-0.8c1.4-0.3,2.9,0,4.3-0.4c0.4-0.2,0.7-0.5,1-0.9c0.7-1.2,1-2.6,1.2-3.9c0.3-1.2,0.6-2.4,1.1-3.5
			c0.9-0.9,2.3-1,3.5-0.9c-0.1,1.5-0.2,3.1-0.7,4.6c-0.2,0.7-0.8,1.2-1.4,1.6c-0.7,0.6-1.7,0.7-2.5,1.2c-0.4,0.3-0.9,0.8-1.1,1.3
			c0,0.5,0.1,1,0,1.5c-0.2-0.4-0.2-0.8-0.3-1.2c-0.2,0.1-0.4,0.3-0.6,0.4c0,0.6,0,1.2,0,1.7c0,0.9,0.4,1.7,0.7,2.6
			c0.5,1.3,1.4,2.5,1.8,3.9c0.2,0.5,0.4,1.1,0.4,1.7c0.7-1.7,0.8-3.6,0.7-5.5c-0.2-1.3-0.3-2.7,0-3.9c0,0.9,0.3,1.7,0.6,2.5
			c1.1-1.2,2.3-2.5,2.9-4.1c0.5-1.2,1-2.4,1.4-3.6c-0.3,0.1-0.7,0.3-1,0.4c0.5-0.5,1.1-0.9,1.6-1.3c0.5,0.3,0.8,0.9,1,1.4
			c-0.4-0.2-0.7-0.6-1-0.9c0.3,1.1,0.6,2.1,0.8,3.2c0.5,2.6,1.6,5.1,2.7,7.6c0.5,1.1,1.2,2.2,1.2,3.5c0,1.1-0.9,2-1.7,2.6
			c-0.9,0.8-1.9,1.4-3,1.8c0.4-0.4,0.9-0.7,1.4-1c0.8-0.5,1.5-1.1,2.2-1.7c0.6-0.6,1-1.5,0.6-2.3s-0.4-1.9-1.1-2.5
			c-0.1,1.3-0.7,2.6-1.7,3.4c0.1,0.2,0.3,0.5,0.4,0.7c-0.2-0.1-0.4-0.2-0.7-0.4c-0.3,0.3-0.7,0.5-0.9,0.9c-0.5,0.1-1,0.2-1.5,0.4
			c0.5,0.3,1,0.7,1.4,1c0.2,0.2,0.6,0.3,0.7,0c0.4-0.3,0-0.7-0.1-1c0.4,0.2,0.8,0.3,1.2,0.3c0.1-0.2,0.3-0.5,0.4-0.7
			c-0.1-0.2-0.2-0.4-0.4-0.5c0.3,0.1,0.7,0.2,1,0.3c0.5-0.2,0.7-0.7,0.7-1.2c0.1,0,0.3,0,0.4,0c-0.2,0.5-0.3,1-0.7,1.4
			c-0.3,0.1-0.6,0.1-0.9,0.1c-0.1,0.4-0.1,0.8-0.5,1c-0.2,0-0.4,0-0.6,0c-0.1,0.2-0.2,0.5-0.4,0.7c-0.3,0.2-0.7,0.1-1,0
			c0.1,0.6,0,1.2-0.3,1.7c1.1-0.7,2.2-1.4,3.3-2.1c0.9-0.6,1.8-1.4,2.1-2.5c0-0.7,0.1-1.4-0.2-2c-0.5-1.2-1-2.3-1.5-3.4
			c-0.4-0.9-0.9-1.7-1-2.7c0.8,1.4,1.3,2.9,2.1,4.3c0.6,1.1,1.1,2.4,1,3.7c-0.1,1.1-0.8,1.9-1.6,2.6c-1.2,0.8-2.5,1.5-3.8,2.3
			c0.7,0.2,1.3,0.5,1.8,1c0.4-0.6,0.7-1.5,1.5-1.7c0.6-0.1,1.3-0.2,2,0c-0.8,0.1-1.6,0.1-2.3,0.5c-0.6,0.5-1,1.2-1,2s-0.1,1.6,0,2.4
			c1.1-0.1,2.2-0.4,3.1-1.1c0.9-0.7,1.8-1.6,1.8-2.8c0-3.4-0.8-6.8-0.7-10.2c0.1-1.8,0.8-3.7,0-5.4c-0.7-1.9-2-3.4-3.1-5
			c-0.4-0.7-1.1-1.3-1.3-2.1c0.6,0.5,1.1,1.2,1.6,1.7c0.9-1.3,0.6-3,0.2-4.4c-0.4-0.9-0.9-2-1.9-2.3c-0.4-0.2-0.8,0.2-1,0.5
			c-0.5,0.9-0.4,2-0.2,3c0.1,0.4-0.1,0.7-0.2,1c-0.5-1.3-1.5-2.6-3-2.7c-0.3-1.4-0.5-3.1-1.9-4C157.8,43.4,156.4,44,155.6,44.9z
			 M148.6,44c-0.1,0.4-0.1,0.7-0.2,1.1c0.3-0.1,0.5-0.1,0.8-0.2C149.1,44.5,148.9,44.2,148.6,44z M165.4,45.2
			c0.6,0.3,1.1,0.7,1.6,1.2c0.4,0,0.9,0,1.3,0c0.5-0.6,1.2-0.9,1.7-1.4c-1.1,0-2.1-0.3-3-1C166.5,44.5,166,44.8,165.4,45.2z M219,46
			c-0.4,0.9-1,1.7-1.7,2.4c-0.9-0.2-1.9,0-2.8,0.3c-2.1,0.9-3.8,2.5-4.8,4.5c0.8-1,1.5-2,2.6-2.7c1.3-1,3.1-1.3,4.8-1
			c1.1,0.3,2.1,1.1,2.6,2.1c0.4,1,1,2.1,0.9,3.2c0,0.4-0.2,0.9-0.2,1.3c0.8,0.8,0.9,1.9,1.1,3c0.3-1,0.6-2,0.5-3
			c-0.2-1.9-0.5-3.9-1.7-5.5c-0.1-0.4-0.1-0.8-0.3-1.3c-0.3-1.1-0.3-2.2-0.9-3.2C219.1,46,219,46,219,46z M157.9,51.9
			c0.7,0.2,1.3,1,1,1.8c-0.7,0.2-1.1-0.3-1.4-0.8c-0.2,0.9-0.2,1.9-0.5,2.7c0.9-0.3,1.8-0.8,2.1-1.7c0.3-1.1,0.6-2.2,0.8-3.4
			C159.2,50.9,158.5,51.3,157.9,51.9z M167,52.8c0.4,0.4,0.7,0.9,1.1,1.4c0.3,0,0.6,0,0.9-0.1c-0.3-0.4-0.5-0.8-0.7-1.2
			c0.6,0.4,0.9,1,1.2,1.6c-0.4-0.1-0.8-0.2-1.3-0.2c0.2,0.2,0.4,0.5,0.5,0.7c0.9-0.1,1.8,0.2,2.6,0.7c-0.1-0.1-0.2-0.3-0.3-0.3
			c-1.3-0.7-2-2.1-2.6-3.4c0.5,0.4,0.8,1.1,1.2,1.6s0.9,0.9,1.5,1.2c-0.4-1.9-1.7-3.4-3.2-4.5C167.7,51.2,167.9,52.3,167,52.8z
			 M169.1,50.7c0.5,0.5,1.1,0.9,1.5,1.5c0.8,1.2,1.3,2.7,1.3,4.1c0.3,1.8-0.2,3.9-1.7,5.1c0,1.8,0.4,3.6,0.6,5.3
			c0.2,0.9,0.4,1.8,0.7,2.7c0.1,0.3,0.3,0.4,0.5,0.6c0.2-1.4,0.2-2.7,0.3-4.1c-0.1-0.7,0.1-1.5-0.3-2.1c-0.3,0.9-0.2,1.8-0.5,2.7
			c0-0.6,0-1.3-0.1-1.9c-0.2-1.1,0-2.2-0.4-3.3c1.3,0.2,2.5,0.3,3.8,0.4c0.8,0.2,1.8,0.2,2.6,0.5c-1.1-0.1-2.2,0.1-3.3,0.4
			c0.5,0.2,1,0.3,1.5,0.5c1.3,0.4,2.5,1.2,3.8,1.8c-0.3-0.7-0.6-1.4-1-2c-0.8-1.2-1.5-2.5-2.3-3.7c-1-1.7-1.8-3.6-3.2-5.1
			C171.8,53,170.7,51.6,169.1,50.7z M216.2,52.4c-1.3,0.9-1.9,2.6-1.4,4c1.3,0.3,2.8-0.1,3.4-1.3c0.6-1.3,0.2-2.7-0.1-3.9
			C217.4,51.5,216.9,52,216.2,52.4z M157.9,52.5c0.1,0.4,0.3,0.8,0.7,0.9C158.5,53,158.3,52.7,157.9,52.5z M206.7,54
			c0.7,0.7,1.4,1.4,2.1,2c0-0.3,0-0.7,0-1c-0.5-0.2-1.2-0.3-1.4-0.8c0.5,0.1,0.9,0.4,1.4,0.5c0.1-0.3,0.1-0.5,0.2-0.8
			C208.3,54.1,207.5,54,206.7,54z M169.2,55.7c1,1,1.6,2.4,2.1,3.7c0.1-1,0.7-2.3-0.1-3.2C170.6,55.6,169.8,55.7,169.2,55.7z
			 M216.6,58c-0.7,0.1-1.5-0.1-2.2,0.1c0,0.4-0.2,0.9-0.1,1.3c0.4,0.1,0.8,0.1,1.1,0.4c-0.4,0.1-0.7,0-1.1,0c-0.3,1-1.3,1.5-2.2,1.8
			c0.4,0.7,0.9,1.4,1.7,1.7c1.1,0.5,2.3,0.9,3.5,1.1c0.2,0.1,0.4-0.1,0.6-0.2c0.7-0.4,1.3-0.8,1.9-1.3c0.6-0.5,0.8-1.2,1.1-1.9
			c0.2-0.6,0.5-1.1,0.4-1.7c-0.1-0.8-0.3-1.6-0.6-2.4c-0.1-0.3-0.4-0.5-0.7-0.7C219.1,57.2,217.9,57.9,216.6,58z M163.5,56.4
			c-0.1,0.3-0.1,0.6-0.2,0.9c-0.1-0.2-0.2-0.4-0.3-0.6c0,0.2-0.1,0.6,0.2,0.7c0.4,0.4,0.6,0.8,0.9,1.2
			C164.3,57.8,164.2,56.9,163.5,56.4z M209.4,57.2c0.2,0.6,0.3,1.2,0.8,1.6c0.1-0.5,0.1-0.9,0.4-1.3c0,0.3,0,0.5,0,0.8
			c0.7-0.4,1.4-0.4,2.2-0.3c-0.4,0.5-1.1,0.3-1.6,0.5c0.2,0.2,0.4,0.4,0.7,0.4c0.5-0.2,0.7-1,1.3-0.9c-0.2,0.5-0.6,1.1-1.1,1.4
			c-0.6,0.2-1.1,0-1.7-0.1c0.3,0.7,1.2,1.1,1.9,0.8c0.8-0.4,1.1-1.3,1.2-2.1C212.2,57.3,210.8,56.7,209.4,57.2z M161.2,59.8
			c-0.8,1-1.6,2-2.6,2.7c0.1,0.2,0.1,0.4,0.2,0.7c1.6-1.7,3.3-3.5,3.8-5.8C162,58.1,161.7,59.1,161.2,59.8z M162.8,57.5
			c-0.1,0.3-0.1,0.7-0.1,1c-0.1,0.1-0.3,0.2-0.4,0.2c0.6,0.6,0.8,1.5,1.2,2.3c0.2-0.6,0.5-1.3,0.5-1.9
			C163.8,58.5,163.6,57.7,162.8,57.5z M198.9,58c0.4,1.4,1,2.7,1.3,4.1c0.9,0.5,1.9,1,2.8,1.4c1,0.4,1.9,1,2.9,1.4
			c-0.1-0.4-0.1-0.9-0.3-1.2c-0.3-0.3-0.6-0.5-0.9-0.7c0.1-0.2,0.2-0.3,0.3-0.5c-1.5-1.2-3.2-2-4.7-3.1
			C199.8,59,199.5,58.4,198.9,58z M210.5,58.9c0.3,0.1,0.6,0.1,0.9,0.2c-0.1-0.2-0.2-0.4-0.4-0.5C210.8,58.7,210.6,58.8,210.5,58.9z
			 M222,58.6c-0.4,1.8-1.1,3.6-2.6,4.8c0.3,0.6,0.7,1.1,0.9,1.7c0.2,0.5,0.2,1,0.4,1.4c0.4-0.6,0.8-1.3,1.3-1.8
			c-0.3,0.9-1.1,1.6-1.4,2.5c0.9-0.8,1.5-1.8,2.5-2.6c-0.6,1.1-1.5,2-2.5,2.8c-0.8,1.3-1.5,2.6-2.2,3.9c-0.3,0.6-0.1,1.2,0.1,1.8
			c0,0,0.1,0,0.2,0c0.1-0.4,0.2-0.9,0.4-1.3c0.1,0.7,0,1.5-0.1,2.2c1.4-0.4,2.9-0.9,4.3-1.1c0.1-0.8,0.1-1.7,0.1-2.5
			c0.1,0.1,0.2,0.3,0.2,0.4c0.1,0.7,0,1.3-0.1,2c2.4-0.3,4.9,0,7.3,0.2c0.2-0.6,0.4-1.2,0.5-1.9c0.1-0.7-0.3-1.4-0.6-1.9
			c-0.4-0.7-0.8-1.4-1.3-2.1c-0.7-0.8-1.1-1.8-1.5-2.7c0.7,0.8,1.2,1.7,2.1,2.4c0.4-0.8,0.8-1.6,1.3-2.3c0.7-1,1.9-1.7,3.2-1.6
			c-0.3-0.6-0.4-1.4-0.9-1.9c-0.4-0.4-0.8-0.9-1.1-1.3c-0.4-0.5-1-0.7-1.6-0.9c-1.1-0.3-2.1,0.3-3,0.7c-1.3,0.9-2.2,2.2-3.5,3
			c0-0.2,0.1-0.4,0.1-0.6c-0.4-0.2-0.9-0.3-1.2-0.8C222.9,60.5,222.5,59.5,222,58.6z M162.2,59.1c-0.3,0.5-0.7,1.1-0.5,1.7
			c-0.2,0-0.4,0-0.6,0c-0.7,1-1.4,1.9-2.4,2.5c0.1,1,0.1,2.1-0.1,3.1c0.4-0.2,0.7-0.4,1.1-0.6c1-0.9,2.2-1.6,2.8-2.8
			c-0.1-0.2-0.1-0.5-0.2-0.7c0.1,0.1,0.3,0.3,0.4,0.4c0.2-0.5,0.7-0.9,0.5-1.5C163,60.5,162.8,59.6,162.2,59.1z M152.7,61.2
			c-0.6,0.8-1.7,0.4-2.5,0.1c-0.3,0.7-0.7,1.5-0.7,2.3c-0.1,0.7,0.5,1.3,1.1,1.5c1.8,0.8,3.7,1,5.5,1.7c-0.4-1.2-1.6-2.1-2.8-2
			c-0.7,0-1.4-0.3-2.2-0.5c0.2,0.2,0.4,0.4,0.5,0.6c-0.6,0.4-0.9-0.4-1-0.8c0.5-0.1,1.1-0.2,1.6-0.3c-0.2,0.1-0.4,0.2-0.6,0.4
			c0.9,0.1,1.9,0,2.9,0.2c0.4,0.2,0.5,0.7,0.9,0.9c-0.2-0.4-0.5-0.7-0.6-1.2c-0.3-0.9-0.7-1.7-0.8-2.6c0-0.7,0.2-1.5,0.3-2.2
			C153.4,59.6,153.3,60.6,152.7,61.2z M189.6,60.2c-1,0.4-1.8,1.1-2.6,1.8c-1.1,1.1-2.1,2.2-2.6,3.7c-0.2,0.8-0.4,1.6-0.3,2.4
			c0.6-2,1.6-3.9,3.3-5.3c2.1-1.8,4.8-3,7.6-2.7c-0.3-0.2-0.7-0.5-1.1-0.5C192.3,59.4,190.9,59.7,189.6,60.2z M149.8,59.8
			c0.7,0.3,1.4,0.8,2.1,0.9c0.4-0.3,0.7-0.7,0.9-1.1c-0.5,0-0.6,0.9-1.2,0.7C151.1,60,150.5,59.7,149.8,59.8z M171.3,61.6
			c0.2,0.6,0.3,1.2,0.6,1.8c0.5,0.5,1.1,0.8,1.6,1.1c0.1-0.1,0.3-0.3,0.4-0.3c-0.3-0.6-0.6-1.1-0.9-1.7
			C172.8,61.7,171.9,61.9,171.3,61.6z M163.2,63.4c-0.4,0.5-0.3,1.2-0.7,1.7c0-0.4,0.1-0.9,0.1-1.3c-0.3,0.2-0.6,0.3-0.8,0.6
			c-0.6,1.2-0.1,2.8,1.1,3.5c0.4,0.1,0.7-0.2,0.8-0.5c0.4-0.9,0.7-1.9,1-2.8c0,0.7-0.3,1.4-0.4,2.1c0.2,0.5,0.4,0.9,0.4,1.4
			c0.5-0.5,1-0.9,1.2-1.6c0.3-0.9,0.7-2,0.2-2.9c-0.3-0.7-1.1-0.9-1.7-1C163.9,62.4,163.5,63,163.2,63.4z M200.5,62.8
			c0.4,1.7,0.9,3.4,1.4,5.1c0.6,1.1,1.4,2.2,2.1,3.2c0.2,0.4,0.8,0.5,1.2,0.6c-0.4-1.5-0.6-3.2-0.1-4.7c0.2-0.7,0.7-1.1,1.2-1.6
			c-0.5-0.3-1-0.5-1.6-0.7C203.2,64.4,201.8,63.6,200.5,62.8z M173.7,63c0.2,0.3,0.3,0.7,0.5,1c1,0.8,2.1,1.5,3.2,2.3
			c0.7,0.6,1.6,1.1,2.1,2c0.5,0.8,0.7,1.7,0.7,2.6h-0.1c-0.1-0.3-0.2-0.7-0.2-1c-0.4,0.4-0.9,0.8-1.4,0.7c-0.3-0.4-0.2-0.9-0.3-1.4
			c-0.1-1-0.7-1.9-1.3-2.7c-0.6-0.5-1.1-1-1.8-1.4c0.3,0.7,0.5,1.5,1,2c1.2,1.4,2.1,3.1,2.3,4.9c1,0.2,2.1-0.1,2.8-0.8
			c0.6-0.6,0.4-1.6,0-2.2c-0.9-1.6-2.2-3.1-3.8-4.1C176.2,64.2,174.9,63.6,173.7,63z M193.6,69.3c1-0.3,2-0.5,2.8-1.2
			c0.7-1.4,0.3-3.1,0.5-4.6C195.5,65.3,194.7,67.4,193.6,69.3z M172.5,64.2c0,1.1,0.3,2.2,0.2,3.4c0,0.9-0.1,1.9-0.1,2.8
			c0,1.4,0,2.8,0.8,4c0.6,0.5,1.5,0.5,2.3,0.5c0.7,0,1.4-0.1,2-0.2c-0.2,0.2-0.5,0.4-0.4,0.8c0.1,1.5,0.4,3,1.1,4.4
			c0.5-0.3,1-0.5,1.5-0.7c-0.6-1.4-1.3-2.8-1.4-4.3c0-0.3-0.2-0.6-0.2-0.8c-0.1-2-0.7-4-1.8-5.7c-0.8-1.1-1.7-2.2-2.7-3.1
			c0.3,0.8,0.6,1.7,0.8,2.5c0.7,1,1.8,1.7,2,2.9c0.1,1,0.3,2-0.1,2.9c0.5,0,0.9-0.1,1.2-0.4c-0.5,0.7-1.4,0.8-2.2,0.6
			c-0.4-0.1-0.8-0.3-0.9-0.7c-0.6-2.2-0.2-4.6-0.9-6.8C173.4,65.6,173.1,64.8,172.5,64.2z M230.9,66.2c0.4,0.5,0.9,0.9,1,1.4
			c0,0.4-0.3,0.9,0,1.4c0.5,1,1.5,1.6,2.1,2.5c0.6,1.3,1,2.6,1.3,4c0.2,0.1,0.4,0.2,0.6,0.4c-0.5-1.6-0.4-3.4-1-5
			c-0.4-1-1.4-1.6-2.1-2.5c-0.4-0.5,0-1.2-0.3-1.7c-0.3-0.6-0.6-1.2-0.8-1.8C231.5,65.3,231.2,65.7,230.9,66.2z M217.8,65.1
			c0,0.8,0.1,1.6-0.4,2.3c-1.9,0-3.9-0.1-5.8-0.3c0.4,0.6,1.2,0.7,1.7,1.1c-0.4,0.1-0.9-0.1-1.2,0.2c-0.2,0.5,0.3,0.8,0.6,1.1
			c-0.7-0.1-1.1-0.9-0.5-1.5c-0.3-0.2-0.6-0.5-0.9-0.8c-0.3,0.5-0.7,0.9-1.2,1.1c0.3-0.4,0.8-0.8,1.1-1.2c0-0.5-0.6-0.8-1-0.6
			c-1,0.3-2,0-2.9-0.1c-0.6,1.4-1.1,3-1,4.6c1.1,0.6,2.2,1,3.1,1.9c0.5-1.1,0.8-2.2,1.2-3.3c-0.1-0.1-0.4-0.2-0.6-0.3
			c0.2-0.1,0.4-0.2,0.6-0.4c0.7,0.4,1.5,0.8,2.4,0.7c0.4-0.4,0.6-0.9,0.8-1.4c0.1,0,0.2-0.1,0.3-0.1c-0.1,0.7-0.5,1.4-1.2,1.8
			c-0.8,0.2-1.6-0.2-2.3-0.7c0,0.9-0.3,1.8-0.5,2.7c-0.3,0.9-0.8,1.8-1.5,2.5c0.3,0.8,0.4,1.6,0.6,2.3c1.9-0.1,3.6-0.8,5.4-1.2
			c1.2-0.4,2.4-0.9,3.6-1.3c0.4,0,0.5-0.6,0.1-0.8c-0.8-0.6-0.7-1.8-0.3-2.6c0.5-0.9,0.9-1.9,1.5-2.7
			C219.1,67.2,218.7,66,217.8,65.1z M152.3,66.3c-0.2,0.8-0.5,1.5-0.8,2.3c-0.4,1.2-1.1,2.3-1.6,3.5c-0.4,1-1.5,1.6-1.4,2.7
			c0.2,0.6,0.8,1,1.4,1.3c0.6,0.3,0.9,0.8,1.5,1.1c2.5,1.5,5.2,2.9,8,3.9c1.3,0.6,2.7,1,4.1,1.4c1.3,0.6,2.9,0.4,4.3,1.1
			c-0.8,0-1.6-0.2-2.3-0.3c0.8,0.6,1.6,1.1,2.5,1.5c0.9,0.1,1.8,0.2,2.8,0.3v0.1c-0.6,0-1.1,0.1-1.7,0.2c0.9,0.8,1.9,1.5,2.9,2.2
			c0.5,0.3,0.9,0.8,1.5,1.1c1.8,0.1,3.3-1.5,3.4-3.2c-0.3-0.4-0.7-0.7-1-1c-0.7-0.8-1.2-1.8-1.6-2.8l-0.1-0.1
			c-1.3-0.4-2.6-0.9-3.9-1.1c-2-0.6-4.2-0.3-6.3-0.5c-2.5,0-4.9-0.1-7.3-0.8c-1.4-0.5-2.7-1.1-3.9-1.8c-0.5-0.3-1.1-0.4-1.4-0.8
			c0.6,0.2,1.2,0.5,1.8,0.7c2.1,0.9,4.4,1.6,6.7,1.8c1.2,0.3,2.4,0.2,3.5,0.3c1.9,0,3.7-0.1,5.6,0.2c1.5,0.1,2.9,0.7,4.2,1.2
			c1.1,0.3,2.1,0.7,3.2,0.8c1.8,0.2,3.5,0.1,5.3,0.2v0.1c-1.2,0.1-2.4,0.3-3.6,0.3c0.6,0.5,1.4,0.8,1.9,1.3c-0.3,0-0.7-0.1-1-0.2
			c0.6,0.8,0.8,1.8,0.9,2.8c0,0.2,0.2,0.3,0.4,0.4c0.3-0.7,0.5-1.4,0.8-2.1c0.6-1.4,1.5-2.6,2.3-3.9c-0.9-1.2-1.8-2.3-3-3.2
			c0.1,0.3,0.3,0.7,0.4,1c-0.1,0-0.4,0.1-0.5,0.1c0.1,0.3,0.2,0.6,0.3,0.9c-0.7,0.2-1.3,0.6-1.9,0.9c-1.1-1.4-1.3-3.2-1.5-4.9
			c-1.3,0.1-2.8,0.3-4-0.5c-0.7-1.4-0.9-2.9-0.8-4.5c-0.6-0.3-1.1-0.7-1.6-1.1c0,0.1,0,0.3,0,0.4c0.4,0.3,1,0.6,1.1,1.2
			c0.1,1-0.1,2.1-0.6,3c-0.3,2.5-2.9,4.6-5.5,4.2c-0.4-0.1-0.4-0.5-0.4-0.8c-0.2-0.9,0-1.9,0.1-2.9c-0.7-0.4-1.5-0.5-2.2-0.8
			c0-0.7,0.1-1.4,0-2.1c-1.6-1.3-3-2.9-5-3.6c0,0.1,0,0.3,0,0.4c0.5,1,1.3,2,1.9,3c0.7,1.4,1.8,2.4,2.6,3.8c0.6,0.1,1.3-0.1,1.9-0.1
			c-0.6,0.3-1.3,0.4-1.9,0.3c-0.5-0.4-0.9-0.9-1.4-1.3c-1.5-1.5-2.3-3.5-3.2-5.5c-0.2,0.4-0.3,0.8-0.6,1.1c-0.3-0.7-0.5-1.5-0.8-2.2
			c-0.1-0.4-0.6-0.4-0.9-0.4C154.4,66.7,153.4,66.5,152.3,66.3z M158.2,67.7c1.5,0.3,2.6,1.6,3.8,2.5c0-0.2,0.1-0.4,0.1-0.6
			c-1.1-1-2.4-1.8-3.6-2.7C158.4,67.2,158.3,67.4,158.2,67.7z M194.6,73.8c-0.2,0.1-0.5,0.1-0.7,0.1c-1.3,0-2.5,0.4-3.7,0.6
			c-1.2,0.4-2.5,0.6-3.7,0.9c0.5,0.7,1.5,1.1,2.1,1.8c0.8,1,1.6,2,2.5,3c1,1.1,1.7,2.3,2.7,3.3c1.6-0.3,3-1,4.4-1.9
			c1.9-0.9,3.8-2.1,5.3-3.7c0.1-0.2,0.3-0.4,0.2-0.6c-1.4-3.2-3-6.5-3.2-10.1C198,69,196,71.2,194.6,73.8z M174.8,68.8
			c0.1,1.2-0.1,2.5,0.3,3.7c0.3,0.4,0.8,0.5,1,1c-0.4-0.2-0.7-0.4-1.1-0.7c0,0.6,1.2,1.3,1.3,0.4C176.3,71.6,175.8,70,174.8,68.8z
			 M178.4,69c0,0.4,0,0.9,0.1,1.3c0.3,0,0.6-0.2,0.8-0.3C179,69.7,178.7,69.3,178.4,69z M182.1,70.2c-0.1,0.7-0.4,1.4-1,1.8
			c0.3,0.4,0.6,0.9,0.9,1.2c-0.1,0.1-0.3,0.2-0.4,0.4c0.1,0.2,0.2,0.4,0.3,0.5c-0.6,0.4-1.2,0.8-2,0.8c-0.5-0.8-0.7-1.7-1.1-2.5
			c0,0.7,0.2,1.4,0.4,2.1c0.4,1,0.7,2.1,1.6,2.8c0.6,0.7,1.5,1.2,1.9,2.1c1.3-0.3,2.3-1.4,3.1-2.4c-0.4-0.8-0.8-1.6-1.3-2.4
			C183.8,73.2,182.8,71.7,182.1,70.2z M185.3,70.2c0.2,0.2,0.4,0.5,0.7,0.6c0.8,0.5,1.4,1.2,2.3,1.6c0.4,0.2,0.8-0.1,1.1-0.3
			c0.6-0.4,1.1-0.8,1.6-1.3c-0.5,0-1.1,0-1.6,0C188,70.6,186.6,70.5,185.3,70.2z M192.6,70.5c0,1-0.1,2-0.2,3c0.6-0.1,1.3-0.1,1.9,0
			C193.8,72.5,193.1,71.6,192.6,70.5z M232,71.2c-0.1,0.7-0.3,1.5-0.7,2.1c0.8,0.4,1.5,0.8,2.3,1.3C233.5,73.4,232.7,72.3,232,71.2z
			 M206.3,71.9c-0.1,0-0.3-0.1-0.4-0.2c-0.2,0.2-0.4,0.4-0.6,0.5c-0.2-0.2-0.5-0.3-0.8-0.3c0.6,1.1,1.6,2,2.4,3
			c0.6,0.6,1.3,1.2,1.9,1.7c-0.1-0.6-0.4-1.2-0.6-1.8c0-0.3,0.3-0.6,0.3-0.9c-0.2-0.6-0.4-1.1-0.7-1.7c-0.4-0.2-0.8-0.4-1.2-0.6
			C206.6,71.7,206.4,71.8,206.3,71.9z M179.4,72.8c0.2,0.7,0.5,1.4,0.7,2.1c0.5-0.3,1-0.5,1.5-0.7c-0.4-0.6-0.8-1.2-1.1-1.9
			C180.1,72.4,179.7,72.6,179.4,72.8z M208.4,72.6c0.1,0.4,0.2,0.8,0.3,1.2c0.2-0.3,0.3-0.5,0.5-0.8
			C208.9,72.9,208.7,72.8,208.4,72.6z M226.9,73.4c-2.4,0.3-4.7,0.7-7.1,1.2c-0.6,0.2-1.2,0.2-1.7,0.6c1.1,0.1,2.3-0.2,3.2,0.5
			c0,0.5,0.1,1-0.3,1.4c-1.5,1.4-3,2.7-4.7,3.7c-2.9,1.7-5.8,3.4-8.9,4.7c-0.9,0.4-1.9,0.7-2.8,1.1c1.2-0.2,2.3-0.5,3.5-0.7
			c1.9-0.6,3.8-0.9,5.6-1.7c1.7-0.7,3.7-1.1,5.2-2.1c0.8-0.6,1.7-1,2.4-1.6c2.7-2.2,5.3-4.5,7.5-7.1
			C228.2,73.3,227.6,73.3,226.9,73.4z M149.1,75.9c-0.4,0.8-0.5,1.6-0.8,2.4c0.5,0.2,1,0.5,1.5,0.5c-0.3-0.2-0.7-0.3-1.1-0.5
			c0.1-0.8,0.3-1.6,0.9-2.2C149.5,76.1,149.3,76,149.1,75.9z M185,78.9c-0.6,0.4-1.3,0.7-2,1c0.1,0.3,0.5,0.5,0.3,0.8
			c-0.3,0.6-0.7,1.2-0.9,1.8c1.9-0.2,3.3-1.5,4.8-2.7c-0.8,1.2-2,2.1-3.3,2.6c-0.5,0.2-1.1,0.2-1.6,0.4c-0.3,0.6-0.6,1.3-1,2
			c1.8,0.6,3.6,0.8,5.5,0.7c-0.5,0.3-1.1,0.3-1.6,0.4c-0.8,0.2-1.5-0.1-2.3-0.1c-0.6-0.2-1.2-0.5-1.7-0.7c-0.2,0.5-0.4,1-0.5,1.5
			c0.3,0.2,0.6,0.4,0.8,0.7c-0.4,0.1-0.8,0-1.1,0.1c0.1,0.4,0.5,0.7,0.6,1.1c0.3,0.2,0.6,0.4,0.9,0.7c-0.6,0.5-1.4,0-2.1-0.1
			c0,1.1,0,2.2,0,3.4c-0.2-0.4-0.2-0.8-0.3-1.2c-0.7,0.1-1.3,0.3-1.9,0.5c0,0.5,0.3,1,0.6,1.4c0.8,0.4,1.7,0.3,2.5,0.7
			c0.6,0.3,1.4,0.4,1.7,1.1c0.3,0.5,0,1.2-0.4,1.5c-0.1,0.7,0,1.4-0.4,2c0-0.8,0.3-1.7,0.2-2.5c-0.1-0.4-0.4-0.5-0.7-0.6
			c0,0.7,0,1.4-0.4,2.1c0.3,0.4,0.6,0.8,0.8,1.3c0.1,0.7,0.2,1.7-0.6,2.1c0.1,0.3,0.1,0.6,0.1,0.9c0.2,0,0.5-0.1,0.7-0.1
			c0.4-0.8,0.7-1.6,1.2-2.3c0.6-0.9,1.3-1.8,1.9-2.7c1-1.5,2.1-2.9,3.3-4.3c1.1-1.2,2.1-2.4,3.5-3.3c-0.9-1.9-1.5-3.9-2.3-5.9
			c-0.7-1.6-1.3-3.2-2-4.8c-0.3,0-0.5,0-0.8,0c-0.1-0.2-0.2-0.4-0.3-0.6C185.7,77.9,185.5,78.5,185,78.9z M151.9,78
			c-0.1,0.3-0.2,0.6-0.4,0.8c0.9,0.5,1.8,1.1,2.2,2.1c0.2,0.4,0.3,0.8,0.6,1.2c0.6,0.2,1.2,0.4,1.8,0.4c0.6-0.2,1.3-0.6,1.4-1.3
			c-1.3-0.6-2.7-1-3.9-1.8C153.1,79,152.5,78.5,151.9,78z M147.9,78.4c-0.9,0.3-1.6,1-2.2,1.7c-0.2,0.2-0.1,0.5,0,0.7
			c0.4-1.2,1.5-2,2.7-2.2C148.3,78.5,148.1,78.3,147.9,78.4z M188,79c0.5,1.4,1.2,2.7,1.7,4.1c0.7,1.6,1.2,3.3,1.8,4.9
			c0.1,0.3,0.2,0.5,0.2,0.8c-0.3,0.5-0.7,1-1,1.5c-0.7,1-1.7,1.8-2.5,2.8c1.1-0.7,2.1-1.4,3.3-2c2-1.1,4.1-1.9,6.2-2.6
			c-1.2,0-2.5,0.2-3.7-0.1c-0.2,0-0.4-0.2-0.5-0.4c-0.4-0.6-0.8-1.1-1.1-1.7c-0.9-1.6-2-3.1-2.8-4.8C189,80.8,188.6,79.8,188,79z
			 M149.5,79.8c-1.3,0.5-2.2,1.6-2.9,2.8c-0.6,1.1-1.2,2.3-1.2,3.6c0.6-0.9,1.6-1.4,2.5-1.7c-0.3-1.2,0-2.4,0.6-3.4
			c0.9-0.6,2-0.4,3,0c0.2,0.7,0.1,1.5-0.1,2.2c-0.7,0.8-1.8,1.1-2.6,1.8c-0.7,0.6-0.3,1.5-0.3,2.2c0.1,0.4-0.3,0.8,0,1.1
			c0.8,1.1,2.4,1.2,3.6,0.9c0.7-0.2,1.4-0.4,2-0.8c0.4-1.9,0.2-4-0.4-5.8c-0.1-0.3-0.4-0.5-0.6-0.8c-0.8-0.6-1.5-1.3-2.3-1.9
			C150.4,79.5,149.9,79.6,149.5,79.8z M144.4,83.3c-0.6,0.4-0.9,1.1-1.2,1.7c-0.7,1.6-0.8,3.5-0.3,5.1c-0.3,0.4-0.7,0.8-0.6,1.4
			c0.5,0.7,1.9,0.5,1.8-0.5c0.1-0.5-0.4-1.4-1-0.9c0.2-0.9,0.6-1.8,1-2.7c0.2-0.5,0.6-0.8,1-1.2c-0.3-0.7-0.6-1.4-0.7-2.1
			c0.3,0.4,0.4,1,0.7,1.4c0.2-0.8,0.3-1.6,0.7-2.3c0.2-0.3,0.4-0.6,0.5-1c-0.4-0.5-0.7-1-0.9-1.6C144.8,81.4,144.6,82.4,144.4,83.3z
			 M149.1,81.9c-0.4,0.5,0.5,1.1,0.8,0.6c0.3-0.2,0.3-0.6,0.3-0.9c0.1,0.1,0.3,0.2,0.5,0.3c-0.1-0.1-0.1-0.3-0.2-0.4
			C150,81.7,149.3,81.3,149.1,81.9z M174.5,81.7c0.2,0.4,0.5,0.7,0.8,1.1c1-0.3,2.1,0,3.1,0.2c-0.5-0.3-1-0.6-1.5-0.9
			C176,82,175.3,81.8,174.5,81.7z M160.6,82.2c-0.5,0.4-1,0.9-1,1.6c0.6,0,1.3-0.3,1.9,0.1c0.7,0.5,0.7,1.5,0.4,2.2
			c0.3,0.1,0.6,0.2,0.8,0.5c0.1,0.3,0.1,0.7,0.1,1.1c0.6,0.5,1.2,1,2,0.9c0.6-0.1,1.2-0.2,1.7-0.6c0.7-0.6,1-1.6,0.8-2.5
			c-0.1-0.3-0.5-0.5-0.7-0.6c-1.1-0.7-2.1-1.6-3.4-1.9C162.2,82.8,161.4,82.5,160.6,82.2z M148.7,82.4c0,0.4,0,0.8,0.2,1.1
			c0.3,0,0.4-0.5,0.6-0.7C149.3,82.7,149,82.6,148.7,82.4z M146.9,85.5c-0.2,0.2-0.4,0.4-0.5,0.5c0.1,0.4,0.4,0.8,0.8,1
			c0.1-0.2,0.1-0.3,0.2-0.5c-0.2-0.1-0.4-0.2-0.6-0.3c0.2,0,0.5,0,0.6,0c0.1-0.4,0.4-0.6,0.5-0.9C147.5,85.4,147.2,85.4,146.9,85.5z
			 M161.5,86.7c-0.6,0.2-1.1,1.3-0.4,1.6c0.9,0.6,1.9-0.9,1.2-1.6C162,86.6,161.7,86.6,161.5,86.7z M173.6,89.2c0,0.5-0.1,1-0.1,1.6
			c0.4,0.3,0.8,0.6,1.2,0.9c0.6-0.4,1.3-0.6,2-0.6c0,0.2,0.1,0.5,0.1,0.7c0.3-0.3,0.6-0.6,0.8-0.9c-0.4-0.6-0.8-1.3-1.6-1.4
			c0.1,0.4,0.6,0.6,0.8,0.9c0,0.2,0.1,0.4,0.1,0.6c-0.3-0.3-0.4-0.8-0.9-0.9c-0.5-0.2-0.9,0.3-1.4,0.4c0.5-0.6,1.2-0.9,1.6-1.6
			c0.3-0.5,1-0.9,1-1.6c0-0.3-0.1-0.6-0.3-0.9C176.6,87.9,175.3,89.4,173.6,89.2z M177.5,87.3c0.3-0.1,0.6-0.2,1-0.3
			c0.4,0,0.8,0.2,1.2,0.3c-0.2-0.2-0.3-0.4-0.5-0.5c0.5,0.1,1,0.2,1.5,0.2c-0.6-0.5-1.4-0.4-2.1-0.4
			C178.2,86.7,177.7,86.9,177.5,87.3z M177.5,87.6c0.4,0.1,0.8,0.1,1,0.3c0.8,0.6,1.7,1.1,2.7,1.2c-0.5-0.6-1.4-0.7-2-1.3
			c0.4,0.1,0.8,0.2,1.1,0.3c-0.3-0.4-0.8-0.5-1.3-0.7C178.6,87.4,178.1,87.5,177.5,87.6z M177.4,88c0,0.1,0,0.2,0.1,0.3
			c0.4,0.3,0.8,0.6,1.2,1c0-0.3,0.1-0.5,0.1-0.8C178.4,88.2,177.9,88,177.4,88z M176.5,89.1c0.6,0.4,1.4,0.8,1.5,1.6
			c0.2-0.3,0.7-0.6,0.4-1c-0.2-0.5-0.7-0.8-1.1-1.1C177,88.8,176.7,89,176.5,89.1z M165.8,89.2c-0.2,0.5-0.5,0.9-0.8,1.4
			c1.6,0.1,3.3,0.6,4.8,0c0.6,1.1,1.3,2.1,1.8,3.2c0.2,0.5,0.8,0.6,1.3,0.9c-0.5-1.5,0.6-3,0.3-4.5c-1.1-0.2-2.1-0.6-3.2-1
			c-0.6,0.1-1.3,0.4-1.9,0.4C167.3,89.6,166.6,89.4,165.8,89.2z M154.3,89.8c-0.3,0.7,0.6,1.3,1.2,1.2c0.3-0.2,0.5-0.6,0.6-1
			c-0.4-0.2-0.8-0.5-1.3-0.7C154.6,89.3,154.4,89.6,154.3,89.8z M158.5,89.7c0.5,0.5,0.8,1.1,1.3,1.6c0,0.1-0.1,0.3-0.1,0.4
			c1-0.8,2.3-1.1,3.5-1.3c-0.5-0.1-1.1-0.2-1.6,0c-0.6,0.1-1.1,0.5-1.6,0.8C159.5,90.8,159.2,90,158.5,89.7z M198.1,90.8
			c-4.2,2.7-8,6.1-11.1,10c-1.3,1.8-2.7,3.6-3.5,5.7c-0.6,1.3-1,2.7-1.4,4.1c-0.1,1.7-0.2,3.5,0.3,5.2c0.3,1.1,0.5,2.2,1.1,3.1
			c0.6,1,1.6,1.7,2.5,2.6c0-0.3,0-0.5,0.1-0.8c0,0.1,0.1,0.2,0.2,0.3c0.1,0.7,0.2,1.5,0.4,2.2c0.2,1.3,0.9,2.5,1.4,3.7
			c0.7,1.2,1.4,2.4,2.4,3.5c0.7,0.7,1.5,1.2,2.1,2c0.3,0.4,0.8,0.6,1.3,0.9c-0.6,0.8-0.9,1.7-1.3,2.6c-0.5,1-0.7,2.1-0.8,3.2
			c0.7-0.8,1.4-1.7,2.5-2.2c2.5-0.9,5.1-0.9,7.7-1.1c1.4,0.1,2.8,0.4,4.2,0.9c-0.3-0.7-0.7-1.5-1-2.2c-0.2-0.3,0-0.7,0-1.1
			c-1.2-2.5-2.7-4.9-4.4-7c-0.8-1-1.8-1.8-2.8-2.7c-1.3-1.1-2.6-2.2-3.2-3.8c-0.4-0.1-0.9-0.1-1.3-0.2c-1.1-0.2-2.1-0.8-3.1-1.4
			c-0.9-0.8-1.8-1.6-2.5-2.6c-0.7-0.7-0.9-1.7-1.3-2.6c-0.7-1.4-0.9-3-1.1-4.6c0-1.2-0.2-2.5,0.1-3.7c-0.1,1.1,0.1,2.2,0.2,3.3
			c0.3,2.6,1.2,5.1,2.8,7.2c0.8,1,1.6,2.2,2.7,2.9c1.2,0.7,2.5,1.1,3.8,1.3c0.6,1.2,1.7,2,2.7,2.9c1,0.7,1.9,1.7,2.8,2.5
			c1.2,1.1,1.9,2.5,2.9,3.8c1,1.1,1.7,2.4,2.7,3.6c0.4-0.3,0.1-0.7,0-1c0.2-0.4,0.4-0.9,0.8-1.1c0.4-0.2,0.9-0.2,1.3,0
			c1.1-1.1,2.4-1.9,3.6-2.9c2-1.4,3.9-2.9,5.9-4.2c-0.8-1.2-2-2.1-2.8-3.3c-1.2-1.2-2.6-2.5-3.2-4.2c-0.3-0.8-0.8-1.5-1-2.4
			c0.8,1.2,1.6,2.5,2.4,3.8c0.6,0.8,1.3,1.5,2,2.2c1,1.2,1.8,2.5,2.7,3.8c2.1-1.3,4.2-2.5,6.3-3.8c1.8-1,3.5-2,5.3-2.9
			c0.5-0.3,0.6-0.9,1.1-1.2c0.4-0.4,1,0.2,1.5-0.1c1.7-0.7,3.3-1.5,5-2.1c-0.7-1.1-1.6-2.1-2.4-3.1c-1.1-1.4-2.4-2.7-3.5-4.1
			c-1.3-1.6-2.9-3-4.4-4.6c-0.4-0.4-0.7-0.9-1.3-1.1c-1.2,0.5-2.3,1.2-3.6,1.5c-2.2,0.6-4,2-6.1,2.7c0.6-0.6,1.4-0.9,2-1.3
			c1.6-1.1,3.4-1.7,5-2.7c0.6-0.4,1.2-0.7,1.8-1.1c-0.6-0.6-1.2-1.1-1.8-1.5c-1.4-0.9-2.6-2.2-4.2-2.9c-1.3-0.9-2.8-1.7-4.3-2.4
			c-1-0.5-2.1-0.7-3.1-1c0.4,0.7,0.8,1.3,1.1,2c0.2,0.7,0.2,1.5-0.1,2.2c-0.7,1.7-2,3-3.3,4.3c-1.5,1.4-3.2,2.6-5.1,3.5
			c-1.4,0.8-2.9,1.5-4.5,1.5c-1.1,0.2-2.3-0.2-3.3-0.7s-1.5-1.6-1.8-2.6c-0.1-1-0.2-2.2,0.3-3.1c0.8-2,2.2-3.7,4-5
			c0.5-0.4,1.1-0.6,1.6-1c0.9-0.7,2-1.1,3-1.6c0.7-0.4,1.6-0.5,2.4-0.7c-1.2,0.1-2.3-0.2-3.5-0.1C200.6,89.9,199.2,90.1,198.1,90.8z
			 M205.8,90.4c-1.8,0.3-3.6,1-5.2,1.9c-0.9,0.7-2.1,1.2-2.8,2.1c-1.1,1-1.9,2.3-2.5,3.6c-0.6,1.4-0.7,3.1,0.1,4.5
			c0.5,1.3,2,1.7,3.2,1.9c2.4,0,4.6-1.3,6.6-2.5c2.4-1.5,4.4-3.5,6-5.8c1-1.5,0.5-3.7-0.9-4.8C208.8,90.7,207.3,90.3,205.8,90.4z
			 M173.6,91.3c-0.3,1.4-0.3,2.8,0,4.2c0.4,0.7,0.5,1.6,1,2.2c1.3,1.8,3.7,2.5,5.8,2.2c0.1,0.1,0.3,0.3,0.4,0.4
			c0.3-0.3,0.3-0.8,0.2-1.2c-0.2-1-1-1.9-2-2.3c0.7,0.9,1.6,1.8,1.5,3c-0.6-1-1.1-2.1-2.1-2.8c-0.7-0.4-1.4-0.9-2-1.3
			c0.8-0.4,1.4-1,2.2-1.5c0.5-0.3,1-0.3,1.5-0.5c-1.5-0.3-3.2,0-4.5-0.9C175,92.4,174.5,91.7,173.6,91.3z M175.1,91.8
			c0.2,0.2,0.5,0.4,0.8,0.5c0.3-0.1,0.5-0.3,0.8-0.4c0-0.2-0.1-0.5-0.1-0.6C176.1,91.5,175.6,91.7,175.1,91.8z M176.2,92.5
			c0.1,0.5,0.9,0.4,1.2,0.6c-0.1-0.4-0.3-0.8-0.4-1.2C176.8,92.1,176.5,92.3,176.2,92.5z M164.5,96.2c-0.4,0.5-0.7,1.1-1,1.7
			c-0.8,0-1.5,0.2-2.2,0.6c0.3,1.1,0.6,2.1,1,3.2c1.2-0.1,2.5-0.2,3.6-0.8c0.3-0.2,0.4-0.5,0.5-0.9c0.2-1.1,0.1-2.3,0.6-3.3
			c0.2-0.5,0.8-0.7,1.3-0.6c0.8,0,1.8,0.5,1.9,1.4c0.3,1,0.3,2.3-0.6,3.1c-0.9,0.7-2.2,0.7-3.3,1c0.2,0.7,0.5,1.3,0.5,2
			c0.3,0,0.5-0.1,0.8-0.1c0.1-0.3,0.3-0.6,0.6-0.7c-0.2,0.2-0.3,0.4-0.5,0.6c0.1,0,0.4,0.1,0.5,0.1c-0.5,0.4-1.1,0.5-1.7,0.3
			c-0.1-0.6-0.1-1.1-0.2-1.7c-0.3,0.4-0.3,0.9-0.5,1.4c-0.2,0.7-0.8,1.2-1.5,1.2c0.5,0.5,1.1,0.7,1.6,1.1c0.7,0.4,1.3,0.8,2,1.2
			c0.7,0.4,1.3,1,1.8,1.7c1.3-0.9,2.8-2,3.3-3.6c0.4-1.2,0.8-2.4,0.6-3.7c-0.4-1.1-0.6-2.3-1.3-3.2c0.6,0.1,0.4-0.6,0.2-0.9
			c-0.1-0.3-0.5-0.2-0.7-0.2c0-0.6-0.2-1.3,0.3-1.8c-0.1,0.4-0.2,0.9-0.2,1.3c0.4,0.1,0.8,0.3,0.9,0.7c0.2,0.5-0.3,0.9-0.1,1.3
			c0.3,0,0.4-0.4,0.5-0.6c0.4-0.9,0-2-0.6-2.8c-0.3-0.4-1-0.5-1.3,0c-0.4,0.4-0.3,1-0.3,1.5c-1.1-0.7-2.1-1.7-3-2.7
			c0.1-0.5,0.1-1,0.2-1.5C166.7,93.3,165.6,94.8,164.5,96.2z M178.1,95c0.6-0.1,1-0.4,1.6-0.5c0.7-0.1,1.5,0.1,1.9,0.7
			c0.1,0.3,0.2,0.6,0.3,0.9c0.4-0.6,0-1.5-0.6-1.8C180.2,94.1,179,94.3,178.1,95z M178.7,95.1c-0.1,0.3-0.1,0.7-0.2,1
			c0.3,0.1,0.6,0.2,0.9,0.2c0.1-0.5,0.2-0.9,0.3-1.4C179.3,95,179,95.1,178.7,95.1z M179.6,94.9c0,0.5,0.1,1-0.2,1.5
			c0.4,0.2,0.7,0.4,1.1,0.6c0.1-0.6,0.2-1.2,0.3-1.8C180.5,94.8,180,95,179.6,94.9z M177,95.6c0.4,0.2,0.9,0.3,1.3,0.4
			c0-0.2,0.1-0.6,0.1-0.8C177.9,95.4,177.5,95.5,177,95.6z M167.9,97.5c-0.3,0.8-0.4,1.7-0.7,2.5c0.5-0.3,1.2-0.5,1.7-0.8
			c0.4-0.6,0.2-1.3,0.2-1.9C168.7,97.3,168.1,97,167.9,97.5z M152.4,98.8c0.1,0,0.4,0,0.6,0c0.3-0.4,0.5-0.8,0.5-1.2
			C153,97.8,152.7,98.4,152.4,98.8z M173.9,97.7c0,0.2,0,0.5,0.1,0.7c0.8,1.2,1.7,2.3,2.4,3.5c0.2,0.4,0.5,0.8,0.8,1.2
			c1.1-0.7,2.3-1.2,3.5-1.6c-0.1-0.5-0.2-0.9-0.4-1.4c-0.9,0.3-1.9,0.4-2.8,0.1c-1.1-0.3-2.2-0.8-2.9-1.7
			C174.5,98.3,174.3,97.8,173.9,97.7z M154.4,98.3c-0.1,0.3-0.3,0.7-0.4,1c0.1,0.1,0.4,0.2,0.6,0.2c0.2-0.4,0.3-0.8,0.3-1.1
			C154.8,98.4,154.5,98.4,154.4,98.3z M173,98.7c0.4,1,1.2,1.9,1,3c0.3-0.3,0.6-0.5,0.9-0.7c-0.6-0.8-0.9-1.7-1.4-2.5
			C173.3,98.6,173.2,98.6,173,98.7z M151.7,99.8c0.2,0,0.5,0.1,0.6,0.2c0.1-0.3,0.7-0.9,0.1-1.1C152.1,99,151.9,99.4,151.7,99.8z
			 M154,99.6c-0.1,0.3,0,0.4,0.3,0.3C154.4,99.7,154.3,99.6,154,99.6z M151.4,100.1c-0.1,0.3-0.2,0.6-0.3,0.9c0.3,0,0.5,0.1,0.8,0.1
			c0.2-0.3,0.4-0.6,0.5-0.9C152.1,100.2,151.8,100.1,151.4,100.1z M151,101.3c-0.1,0.3-0.2,0.5-0.3,0.8c0.5-0.1,0.9-0.4,0.9-0.9
			C151.4,101.3,151.2,101.3,151,101.3z M163.3,102.5c0.3,0.2,0.7,0.4,1.1,0.4c0.6,0,0.8-0.7,1.1-1.1
			C164.8,102,164,102.3,163.3,102.5z M179.5,104.1c-1.5,1.5-2.7,3.2-3.9,4.9c-0.4,0.5-0.8,1-1,1.7c0.9-1,1.7-2.2,2.8-3.1
			c1-0.9,2.2-1.7,3.3-2.5c0.2-1,0.4-2,0.6-2.9C180.6,102.9,180.1,103.5,179.5,104.1z M162.7,102.6c0.2,0.6,0.6,1,1,1.3
			c-0.1-0.3-0.1-0.7-0.2-1C163.3,102.8,163,102.7,162.7,102.6z M150.8,104c0.6-0.1,0.8-0.9,1.2-1.3
			C151.3,102.7,151.1,103.6,150.8,104z M159.8,103.2c-0.2,0.1-0.3,0.2-0.1,0.4C160,103.4,160,103.3,159.8,103.2z M146.9,103.1
			c0.1,0.3,0,0.7,0.2,1c0.4,0.2,0.8,0.2,1.1,0.5c0.4,0.5,0.6,1.1,0.9,1.6c0.4,0,0.4-0.5,0.6-0.7c-0.1-0.1-0.2-0.3-0.3-0.4
			c0.2-0.5,0.6-1.1,1.1-1.4c-0.4-0.2-0.9-0.5-1.4-0.3c-0.5,0.1-1.1,0-1.6-0.1c0.1,0.2,0.1,0.4,0.2,0.7
			C147.4,103.7,147.2,103.4,146.9,103.1z M150.1,104.1c-0.1,0.3-0.3,0.7-0.5,1c0.2,0.1,0.5,0.3,0.7,0.4c0.2-0.4,0.4-0.9,0.6-1.3
			C150.7,104.2,150.4,104.1,150.1,104.1z M149.8,105.6c-0.3,0.1-0.2,0.6,0.2,0.6C150.3,106.1,150.1,105.5,149.8,105.6z M178.6,107.3
			c-1.4,1.2-2.7,2.5-3.9,3.8c-0.6,0.7-1.1,1.5-2,1.9c-0.3,0-0.7,0.1-1,0.2c-1.3,0.6-2.5,1.4-3.6,2.2c-1.3,1-2.6,2.3-3,4
			c-0.2,1.2-0.2,2.5,0.2,3.7c0.3-0.5,0.3-1.1,0.5-1.7c0.4-1.6,1-3.2,2-4.5c1-1.4,2.4-2.4,3.8-3.4c0.3-0.2,0.5-0.4,0.8-0.4
			c-0.4,0.6-1.1,1-1.7,1.5c-1.2,0.9-2.1,2-2.9,3.2c-0.7,1-0.5,2.2-0.4,3.4c0.2,0.8,0.7,1.6,1.1,2.4c1,1.8,2.6,3,4.1,4.3
			c1.4,1,2.9,1.8,4.3,2.9c0.7,0.5,1.2,1.2,1.8,1.8c0.5-0.7,1-1.4,1.6-2.1c0.4-0.3,0.3-0.9,0.6-1.3c0.4-0.5,0.8-0.9,1.2-1.4
			c-0.3-0.5-0.7-0.9-1-1.3c-0.6-0.6-1.3-1-1.9-1.6c-0.5-0.5-1-1.1-1.3-1.8c0.4,0.3,0.7,0.7,1.1,1.1c0.7,0.6,1.5,1,2.1,1.8
			c0.4,0.6,0.8,1.2,1.1,1.8c0.7-0.3,1.3-0.6,2-0.8c0.5-0.2,0.9-0.7,1.4-0.9c0.3-0.2,0.9-0.4,0.7-0.9c-0.4-1.1-0.6-2.2-0.5-3.3
			c-1.5-0.4-2.7-1.5-3.4-2.8c-0.4-1-0.7-2.1-0.9-3.2c-0.9,0.3-1.9,0.3-2.8,0c-0.9-0.3-1.4-1.2-1.9-1.9c-1.2-2.6,0.6-6,3.5-6.4
			c0-0.6,0.1-1.3,0.1-1.9C179.9,106,179.3,106.8,178.6,107.3z M177.6,110c1,1.8,1.8,3.7,2.6,5.6c0.4-0.1,0.7-0.2,1.1-0.3
			c-0.2-0.8-0.5-1.5-0.8-2.3c0.4,0.2,0.8,0.5,1.3,0.5c-0.1-0.6-0.2-1.3-0.8-1.6c0.2-1.2-0.3-2.4-0.3-3.6
			C179.3,108.1,178.1,108.9,177.6,110z M169.6,112.4c-0.6,0.9-1.3,1.7-1.8,2.7c0.4-0.2,0.8-0.4,1.2-0.7c0.4-0.2,0.4-0.7,0.6-1
			c0.5-1.2,1.3-2.2,1.9-3.4C170.7,110.7,170.2,111.6,169.6,112.4z M152.9,110.2c0.4,0.9,0.7,1.8,0.9,2.7c-0.9-0.5-1.9-0.1-2.8,0.2
			c-1.3,0.6-2.4,1.6-3,2.9c-0.5,0.6-0.5,1.4-0.4,2.2c0.1-1.5,0.9-2.8,2-3.8c0.8-0.8,1.9-1.2,3.1-1.2c1.5,0.1,2.9,1,3.7,2.3
			c0.4,0.7,0.8,1.3,0.9,2.1c-0.6,0.4-1.1,0.9-1.7,1.2c-0.9,0.5-2,0.4-3,0.9c-0.4,0.6-0.5,1.3-0.7,1.9c-0.2,0.5-0.7,0.9-1.1,1.3
			c1.2,0.9,2.8,0.9,4.3,1.1v0.1c-1,0.4-2.2,0.1-3.3-0.1c0,1.2-0.6,2.3-0.4,3.5c0.2,0.9,1.1,1.5,2,1.4c0.1-0.6,0.2-1.2,0.6-1.6
			c0.4-0.3,0.9-0.3,1.4-0.5c0.4-0.4,0.9-0.7,1.1-1.2c-0.3-0.6-0.8-1.1-1.3-1.6c0.3-0.4,0.7-0.6,0.9-1.1c0.8-1.6,1.3-3.4,1.1-5.2
			c0.1,0.2,0.2,0.4,0.3,0.6c0-1.3-0.2-2.6-1-3.6c-0.7-0.9-1.3-1.9-2-2.7C154,111.5,153.6,110.7,152.9,110.2z M146.1,112.6
			c0.4,0.3,0.9,0.5,1.4,0.8c0.3,0.5,0.5,1.1,0.7,1.6c0.4-0.7,1.1-1.2,1.7-1.7c-0.7-0.2-1.5-0.1-2.2-0.2c-0.4-0.2-0.5-0.7-0.8-1
			C146.4,112.1,146.1,112.2,146.1,112.6z M162.6,114.8c-0.4,0.6-1.1,0.9-1.7,1.3c0.2,0.1,0.4,0.3,0.6,0.2c0.9-0.2,1.7-0.4,2.5-0.9
			c-0.2-0.3-0.5-0.7-0.7-1c0.3-0.2,0.6-0.5,0.9-0.7c-0.2-0.1-0.3-0.2-0.5-0.3C163.4,113.8,163,114.3,162.6,114.8z M152.5,118.4
			c1.3,0.2,2.9-0.8,2.7-2.2c-0.1-0.6-0.3-1.3-0.9-1.5C152.8,115.1,152,116.9,152.5,118.4z M230,115.7c0,0.3,0,0.6,0.1,0.8
			c1,1.6,1.9,3.3,2.8,5c0.7,1.4,1.3,3,2.2,4.3c0.6,0,1.1-0.4,1.3-0.9c-0.2-0.9-0.8-1.5-1.1-2.3c-0.8-1.8-1.7-3.6-2.6-5.4
			c-0.4-0.7-0.8-1.6-1.7-1.8C230.6,115.2,230.3,115.5,230,115.7z M146.2,115.7c0.2,1,0.4,1.9,0.9,2.8c0-0.7,0.2-1.3,0.3-2
			C147.1,116.1,146.7,115.9,146.2,115.7z M157.6,116.3c0.2,0.9,0.4,1.8,0.3,2.6c0,1.6,0.2,3.4,1.4,4.7c0.7,0.9,1.9,1.4,3.1,1.2
			c1.2-0.3,1.9-1.3,2.6-2.3c-0.4-1.4-0.4-3,0.2-4.3c-1.5-0.5-3,0.3-4.5,0.2C159.2,118.4,158.4,117.2,157.6,116.3z M148.5,119.3
			c-0.2,0.2-0.7,0.5-0.3,0.8c0.2,0.6,0.8,0.1,1-0.2c0.3-0.4,0.8-0.6,1.2-0.8C149.8,119,149.1,119,148.5,119.3z M149.8,119.7
			c0,0.3,0.1,0.6,0.3,0.8c0.3-0.1,0.6-0.1,0.9-0.2c-0.4,0.7-1.3,0.7-2,0.7c0.4,0.4,1.1,0.6,1.6,0.3c0.5-0.2,0.6-0.9,0.9-1.4
			c-0.1-0.1-0.2-0.2-0.2-0.2c0,0.1-0.1,0.4-0.1,0.6C150.8,119.8,150.4,119.4,149.8,119.7z M165.7,122.9c-0.4,1.4-0.2,2.9-0.7,4.3
			c-0.2,0.6-0.7,1.1-1,1.7c1,0.7,2.1,1.1,3.3,1.4c1.3,0.4,2.6,0.6,3.9,0.3c0.4-0.1,0.9-0.2,1.3-0.5c0.4-0.3,0.3-0.9,0.5-1.3
			c-1-0.6-2-1.3-2.9-2.1c-1.3-1.4-2.4-3.1-2.9-5c-0.1-0.7,0-1.4-0.1-2C166.4,120.6,166,121.8,165.7,122.9z M149.4,120
			c0,0.2-0.1,0.5-0.1,0.7c0.3,0.1,0.6,0.1,0.9,0C149.9,120.5,149.7,120.3,149.4,120z M157.4,121.9c-0.1,0.9-0.3,2.2-1.4,2.5
			c0.4,0.6,1.3,1.3,0.8,2.1c0-0.1-0.1-0.3-0.1-0.5c-0.4,0-0.6,0.6-0.9,0.9c0.6,0,1.3,0,1.9,0.2c-1.2,0.1-2.4,0.1-3.5,0.7
			c-0.3,0.4-0.4,0.8-0.5,1.2c0.8-1,2.2-1.2,3.4-1.3c0.7,0,1.4,0.1,2,0c0.4-0.9,1.1-1.6,1.8-2.3c-0.3-0.1-0.6-0.1-0.9-0.3
			C158.7,124.7,158,123.2,157.4,121.9z M164.8,122.8c-0.4,1.1-1.3,2-2.3,2.5c-0.4,0.2-0.9,0.1-1.3,0.3c-0.6,0.6-1.1,1.3-1.6,2
			c-0.4,0.6-1.2,0.7-1.8,0.8c-1.1,0.1-2.2,0.2-3.3,0.4c-0.8,0.7-1.3,1.8-1,2.9c0.4,1,1.2,1.6,2.1,2.2c0-0.8,0-1.5-0.1-2.3
			c-0.1-0.5-0.4-1-0.5-1.5c0.4,0.2,0.6,0.7,0.8,1.1c0.4,0.7,0.2,1.4,0.3,2.2c0,0.9,0.4,1.9,1.3,2.3c0.7,0.5,1.7,0.3,2.5,0.2
			c0.6-0.1,1.1-0.6,1.6-0.9c-0.2,0.4-0.4,0.7-0.7,1.1c0.9,0.4,1.5,1.3,1.7,2.2c1,0.1,1.9,0,2.8-0.3c0-1.5-0.2-3-0.5-4.4
			c-0.7,0.1-1.4,0-2-0.4c0.7,0,1.3-0.1,1.9-0.5c0-0.9,0-1.8,0.1-2.6c-0.3-0.2-0.7-0.4-1-0.7c0.1-0.7,0.8-1.2,0.6-1.9
			c-0.6-0.4-1.3-0.6-2-0.8c-0.4,0.8-0.7,1.7-1.2,2.5c-0.3-0.1-0.6-0.3-0.8-0.4c0,0.3,0.1,0.6,0.1,0.9c-0.3,0.3-0.7,0.5-1,0.1
			c0,0.3,0,0.6-0.1,0.9c-0.7,0.1-1.5-0.1-2.2-0.1c-0.1,0.7-0.2,1.4-0.2,2.1c0.3-0.2,0.5-0.5,0.8-0.7c0.4,0.1,0.8,0.3,1.2,0.4
			c0.4-0.4,1.1-0.8,1.7-0.5c0.5,0.2,1.2,0.4,1.4,1c-1-0.4-2.3-1.2-3.1-0.2c-0.4-0.1-0.7-0.3-1.1-0.3c-0.4,0.2-0.7,0.7-1.1,0.9
			c-0.1-1-0.1-2,0.3-2.9c0.7-0.2,1.5,0.2,2.2,0.2c0-0.5,0-1.1,0-1.6c0.3,0.2,0.5,0.5,0.7,0.8c0.2-0.1,0.4-0.3,0.5-0.4
			c-0.1-0.3-0.2-0.6-0.3-1c0.4,0,0.8,0.2,1.2,0.4c0.3-0.8,0.6-1.8,1.3-2.4c0.8,0,1.5,0.6,2.2,1c0.4-1.1,0.4-2.3,0.6-3.4
			C165.3,123.5,165,123.1,164.8,122.8z M185.1,127.1c0.9,0.4,1.8,0.7,2.4,1.5c0.6,0.6,0.9,1.4,1,2.2c0.2-0.1,0.3-0.3,0.5-0.4
			c-1-1.3-1.7-2.8-2.2-4.4C186.2,126.4,185.7,126.7,185.1,127.1z M183.8,127.7c-1.3,0.2-2.3,1.2-2.8,2.4c-0.4,1.9,0.6,4.2,2.5,4.9
			c0.8,0.2,1.8,0.2,2.6-0.2c1.1-0.5,1.8-1.6,2.1-2.7c0.1-1.4-0.5-2.8-1.6-3.8C185.8,127.8,184.8,127.5,183.8,127.7z M208.2,130.6
			c0.5,0.9,1,1.8,1.4,2.8c0.7,1.4,1.6,2.8,2.2,4.3c0.4,0.8,0.9,1.5,1.2,2.4c0.2,1-1,2-1.9,1.4c-0.7-0.9-1.1-1.9-1.7-2.9
			c-0.9-1.6-1.5-3.2-2.4-4.8c-0.3-0.5-0.5-1-0.7-1.5c-0.5,0.4-0.9,1-1.4,1.5c0.6,1.1,1.2,2.1,1.7,3.2c0.4,1.4,1.3,2.7,1.9,4
			c0.5,1.1,1.1,2.1,1.4,3.3c2.4-1.7,4.6-3.7,7.1-5.3c0.3-0.1,0-0.4-0.1-0.5c-1.2-1.9-2.4-3.8-3.7-5.7c-0.8-1.5-1.7-2.9-2.5-4.4
			C210,129.2,209.1,129.9,208.2,130.6z M173.2,129c0,0.4-0.1,0.7-0.1,1.1c-0.7,0.4-0.6,1.2-0.8,1.8c1.1,0.2,1.8,1.1,2.9,1.4
			c0.5,0.2,1,0.2,1.4-0.1c0.6-0.3,1.3-0.4,1.9-0.4c-0.8-0.8-1.8-1.5-2.7-2.1C175,130.2,174.1,129.5,173.2,129z M165.1,130.2
			c-0.2,1.9,0.5,3.8,0.6,5.7c0.1,0.8-0.1,1.5-0.1,2.3c0.4,0.2,0.8,0.4,1.2,0.5c0.1-2.3,0.9-4.9,3-6.2c0.6-0.5,1.4-0.4,2.2-0.4
			c0.1-0.5,0.2-0.9,0.3-1.4c-0.6,0.2-1.1,0.5-1.7,0.6C168.7,131.6,166.7,131,165.1,130.2z M206.2,131.4c0.4,0.7,0.7,1.5,1.1,2.1
			c1.1,1.7,1.9,3.6,2.9,5.4c0.4,0.8,0.8,1.6,1.3,2.2c0.7,0.1,1.4-0.8,1.1-1.5c-0.4-0.9-1-1.8-1.4-2.8c-0.9-1.8-1.9-3.6-2.9-5.4
			c-0.2-0.5-0.6-0.8-0.8-1.3C206.8,130.2,206.3,130.8,206.2,131.4z M188.6,131c0.2,1.1-0.4,2.2-1,3c-0.9,1.2-2.5,1.7-4,1.5
			c-0.5,0.7-1.2,1.2-1.7,1.8c0.1,0.6,0.5,1.2,0.8,1.8c0.5,0.8,0.7,1.8,1.2,2.6c0.8,0.2,1.6,0,2.4-0.1c1.5,0,3.1-0.3,4.5-0.8
			c-0.1-2.6,0.9-5.2,2.3-7.4c-1.5-0.3-2.7-1.4-3.7-2.6C189.1,130.9,188.8,131,188.6,131z M179.3,132.5c1,1.3,1.9,2.6,2.9,4
			c0.4-0.4,0.7-0.7,1.1-1.1c-1.7-0.7-2.7-2.5-2.7-4.3C180.1,131.5,179.7,131.9,179.3,132.5z M168.9,134c-0.8,0.9-1.1,2-1.4,3.2
			c-0.4,1.7-0.2,3.5,0.1,5.2c0.9-0.6,1.9-1.2,3-1.5c-0.6,0.5-1.2,1-1.6,1.6c1.1-0.7,2.4-1.2,3.5-1.9c1-0.7,2-1.2,3.2-1.5
			c-0.1-0.6-0.2-1.1-0.3-1.7c0.6,1.1,1.4,2.3,2.6,2.8c0.8,0.2,1.7,0.2,2.6,0.1c0.4,0.1,0.6,0.4,0.9,0.7c-0.5,0.1-1-0.6-1.5-0.2
			c0.3,0.2,0.6,0.6,1,0.5c0.6-0.1,1.2-0.4,1.5-0.9c0-0.7-0.5-1.1-1-1.5c-0.1,0.3-0.1,0.6-0.3,0.9c0-0.4-0.1-0.9-0.2-1.3
			c-0.1-0.3,0.2-0.7-0.1-1c-0.7-1-1.5-2-2.2-3.1c-0.2-0.3-0.4-0.6-0.4-1c-0.7,0.3-1.4,0.5-2.2,0.7c-0.6,0.2-1.2,0-1.7-0.2
			c-0.9-0.3-1.5-1.2-2.5-1.4C170.8,132.4,169.6,133,168.9,134z M178.8,133.6c0.9,1.3,1.9,2.5,2.7,3.9c0.2-0.3,0.4-0.6,0.6-0.9
			c-1.1-1.3-2-2.6-2.9-4C179.1,132.9,178.5,133.2,178.8,133.6z M159.6,136.3c0.5,0.3,0.9,0.5,1.5,0.7c-0.3-0.3-0.6-0.6-0.9-0.8
			C160,136.2,159.8,136.2,159.6,136.3z M152.4,137.2c0.1,0.2,0.3,0.3,0.4,0.5c-0.3,0-0.5,0-0.8,0c0.2,0.8,0.3,1.7,0.1,2.5
			c1.2,0.6,2.5,1.3,3.9,1.3c0.8,0.1,1.6-0.5,2.4-0.2c1.3,0.4,2.7,0.8,4.1,0.7c0.1-0.4-0.2-0.7-0.4-1c0.9,0,1.9,0.1,2.8-0.1
			c0-0.9-0.4-1.8-0.5-2.6c-0.8,0.1-1.6,0.3-2.5,0.1c0.2,0.8,0.4,1.6,0.2,2.4c-0.3-0.5-0.2-1.2-0.3-1.7s0.1-1-0.2-1.4
			c-0.2-0.4-0.7-0.4-1.1-0.4c-0.5,0.3-0.7,0.9-1.2,1.3c-0.5,0.5-1.3,0.7-2,0.9c0.1,0.4,0.2,0.7,0.2,1.1c-0.2-0.3-0.3-0.8-0.7-0.9
			c-0.6-0.2-1.2-0.1-1.7,0.1c0.2-0.4,0.5-0.7,0.7-1.1c0,0.3,0.2,0.4,0.5,0.4c0-0.1,0.1-0.4,0.1-0.5c-0.4-0.3-0.8-0.5-1.3-0.6
			c-0.1,0.5-0.2,1-0.5,1.4c0.1-0.5,0.2-0.9,0.3-1.3c-0.2,0-0.5,0-0.7,0c0,0.6-0.2,1.2-0.6,1.7c0.1-0.6,0.3-1.2,0.4-1.8
			c-0.3,0-0.6-0.1-1-0.1c0.2,0.7,0.2,1.4-0.2,2c0-0.7,0-1.4,0-2.1c0.2-0.4,0.7-0.1,1-0.2c0-0.1-0.1-0.3-0.1-0.5
			C153.4,137,152.9,137.1,152.4,137.2z M181.3,137.7c0,0.4,0.1,0.8,0.5,0.8C181.7,138.2,181.7,137.8,181.3,137.7z M164.5,138.1
			c0.2,0.9,0.6,1.9,0.6,2.9c0.1,0,0.4,0.1,0.5,0.1c-0.1-1-0.4-2-0.4-3C165,138.1,164.7,138.1,164.5,138.1z M166.9,140.2
			c0-0.4-0.1-0.8-0.1-1.2c-0.4-0.1-0.8-0.3-1.3-0.4C165.3,139.4,166.1,140.2,166.9,140.2z M211,144.4c0.2,0.1,0.5,0.1,0.7,0.2
			c0.9-0.8,1.9-1.5,2.8-2.2c1.1-1,2.4-1.8,3.6-2.6c-0.2-0.1-0.4-0.3-0.7-0.4C215.3,141,213.1,142.6,211,144.4z M159.3,142.3
			c0.4,1.8,0.2,3.7,0.2,5.6c0.5-0.5,0.9-1.2,1.7-1.4c0.8-0.3,1.6,0.2,2.3,0.6c-0.7-1.5-0.9-3.2-0.9-4.9
			C161.5,142.6,160.4,142.6,159.3,142.3z"/>
	</g>
	<path class="st0" d="M180.5,3.5c0.4,0.2-0.3,0.7-0.5,0.3C179.8,3.5,180.3,3.5,180.5,3.5z"/>
	<g>
		<path class="st0" d="M199,9.7c0.7-1,2.2-1.1,3.3-1.4c-0.4,0.7-0.7,1.8-1.7,1.9C200,10.3,199.5,10,199,9.7z M199.6,9.5
			c0.4,0.2,1,0.5,1.5,0.3c0.4-0.3,0.6-0.7,0.9-1.1C201.1,8.8,200.3,9.1,199.6,9.5z"/>
	</g>
	<path class="st0" d="M223.1,10.3c0.1-0.7,0.7-1.2,1.1-1.8C224,9.2,223.6,9.8,223.1,10.3z"/>
	<path class="st0" d="M223.3,10.8c0.5-0.7,1.3-1.1,2-1.6C224.7,9.9,224,10.4,223.3,10.8z"/>
	<path class="st0" d="M204.4,11.5c0.5-0.2,0.9-0.5,1.4-0.7c-0.8,0.9-2,1.6-3.2,1.4C203.1,11.8,203.8,11.9,204.4,11.5z"/>
	<g>
		<path class="st0" d="M222.5,11c0.2,0.5,0.5,0.9,0.8,1.3c-0.1,0.2-0.1,0.4-0.2,0.6c0.3,0.2,0.6,0.4,0.8,0.7c-0.4,0-0.9-0.1-1.1,0.3
			c-0.5,0.1-1,0.3-1.3,0.8c0-0.4,0-0.7-0.1-1.1c-0.2-0.1-0.4-0.2-0.6-0.3c0-0.1-0.1-0.3-0.1-0.4c0.3,0.3,0.7,0.5,1.1,0.8
			c0.1-0.2,0.2-0.5,0.3-0.7c-0.5-0.2-1-0.4-1.5-0.4c0.2-0.3,0.3-0.7,0.6-1c0.2-0.2,0.5-0.2,0.8-0.2c-0.3,0.3-0.8,0.5-1.1,0.9
			c0.4,0.1,0.9,0.2,1.3,0.3C222.3,11.9,222.4,11.4,222.5,11z M222.7,11.9c-0.1,0.2-0.1,0.6,0.2,0.7C223.2,12.6,223,11.9,222.7,11.9z
			 M222.3,13.1c0,0.2,0.2,0.3,0.4,0.1C222.7,13,222.5,13,222.3,13.1z"/>
	</g>
	<path class="st0" d="M189.6,11.5c1.4,0.4,2.7,1.1,3.9,1.9c0.9,0.8,1.8,1.5,2.7,2.3c0.7,0.6,1.5,1,2.1,1.7c-1.4-0.7-2.6-1.8-4-2.6
		C192.7,13.6,190.9,12.8,189.6,11.5z"/>
	<path class="st0" d="M196.4,12.3c0.5-0.9,1.8-0.5,2.2,0.2c-0.3-0.1-0.6-0.1-0.9-0.2c0.2,0.3,0.5,0.4,0.8,0.7
		c-0.4,0-0.8-0.1-1.1-0.2c0-0.2-0.1-0.5-0.1-0.7C197,12.2,196.7,12.3,196.4,12.3z"/>
	<g>
		<path class="st0" d="M210.4,18.4c0.5-1,1.8-1.6,2.9-1.2c0.4,0.2,1,0.5,1,1.1c0.1,0.6-0.6,0.9-0.7,1.4c0.3,0.2,0.6,0.4,0.9,0.6
			c-0.2,0.3-0.6,0.7-1,0.5c-0.6-0.2-1-0.7-1.3-1.2c0.3-0.5,0.9-0.8,1-1.4c-0.4-0.8-1.3-0.4-1.8,0c0.2,0.3,0.6,0.5,0.5,0.8
			c-0.1,0.4-0.7,0.6-1.1,0.5C210.3,19.4,210.3,18.9,210.4,18.4z M211.8,17.5c-0.6,0.2-1.3,0.6-1.2,1.3c0,0.3,0.3,0.8,0.6,0.6
			c0.3,0,0.4-0.3,0.5-0.6c-0.2,0-0.5-0.1-0.7-0.1c0.2-0.4,0.4-0.8,0.9-0.9c0.5-0.3,1.4-0.1,1.5,0.5c0,0.6-0.6,1-1,1.4
			c0.3,0.4,0.7,0.8,1.2,1c0.2-0.1,0.6-0.2,0.5-0.5c-0.3-0.2-0.6-0.4-0.9-0.6c0.3-0.6,1-1.1,0.6-1.8
			C213.4,17.4,212.5,17.2,211.8,17.5z"/>
	</g>
	<path class="st0" d="M203.5,19.6c0.1-0.5,0.2-1.2,0.7-1.5c0.5,0,0.8,0.6,0.8,1c-0.3-0.2-0.5-0.5-0.7-0.7
		C204,18.9,203.8,19.3,203.5,19.6z"/>
	<path class="st0" d="M151.5,22c0.5-1,1.3-1.9,2.3-2.2c-0.4,0.4-0.8,0.7-1.2,1.1C152.3,21.2,152,21.7,151.5,22z"/>
	<g>
		<path class="st0" d="M166.3,21.9c0.1-0.9,1-1.3,1.8-1.4c-0.1,0.2,0.1,0.6-0.3,0.7c-0.4,0.1-0.7,0.1-1.1,0.1
			C166.6,21.5,166.4,21.7,166.3,21.9z"/>
	</g>
	<g>
		<path class="st0" d="M215.1,20.9c0.3-0.1,0.7,0,0.9,0.3c0.1,0.8-1,1.5-1.6,0.9C214.1,21.6,214.6,21,215.1,20.9z M214.7,22
			c0.5,0,1.1-0.2,1.1-0.8c-0.2-0.1-0.5-0.1-0.7-0.1C214.8,21.3,214.5,21.6,214.7,22z"/>
	</g>
	<g>
		<path class="st0" d="M194,23.2c0.4-0.3,0.7-0.6,1-1c-0.1,0.2-0.1,0.5-0.2,0.7c0.3-0.1,0.6-0.2,0.8-0.3c0,0.3-0.1,0.5-0.3,0.6
			c-0.3,0.1-0.4-0.2-0.6-0.3c-0.2,0.6-0.4,1.2-0.6,1.8c-0.1,0.2-0.3,0.3-0.5,0.4c0.2-0.3,0.4-0.6,0.4-1
			C193.9,23.8,193.6,23.4,194,23.2z M194.2,23.2c-0.2,0.1-0.2,0.3,0,0.4C194.4,23.5,194.4,23.4,194.2,23.2z"/>
	</g>
	<g>
		<path class="st0" d="M172.2,22.6c0.4-0.1,0.9-0.2,1.3-0.2c0.2,0.6,0.5,1.4,0,1.9c-0.2,0.4-0.6,0.5-1,0.6c-0.1-0.2-0.3-0.4-0.4-0.7
			c-0.3,0-0.8,0.1-0.9-0.3c-0.1-0.3,0.3-0.4,0.5-0.6C172,23.2,172.1,22.9,172.2,22.6z M172.4,22.9c-0.2,0.3-0.4,0.7-0.8,0.8
			c-0.3,0.1-0.1,0.5,0.2,0.4c0.5-0.3,0.8-0.7,1.1-1c0,0.2,0,0.5,0,0.7c-0.3,0.1-0.6,0.2-0.9,0.3c0.3,0.2,0.5,0.5,0.7,0.7
			c0.3-0.2,0.7-0.4,0.8-0.7c0-0.4-0.1-0.8-0.1-1.3C173.1,22.7,172.7,22.7,172.4,22.9z"/>
	</g>
	<path class="st0" d="M170.5,23.1c0.1-0.4,0.6-0.3,0.9-0.5C171.4,23.1,170.9,23.1,170.5,23.1z"/>
	<path class="st0" d="M194.1,26.4c0.2-1.1,0.5-2.2,1.3-2.9c-0.3,0.7-0.6,1.4-0.9,2.1c-0.1,0.2,0,0.4,0,0.6c-0.3,0.4-0.5,0.8-0.7,1.3
		c0-0.1,0-0.4,0-0.6c-0.8,0.1-0.6-1-1.1-1.4c0.2,0.1,0.4,0.2,0.6,0.3c0,0.2,0,0.5,0.1,0.7C193.6,26.4,193.9,26.4,194.1,26.4z"/>
	<g>
		<path class="st0" d="M165.9,25.6c0.1-0.8,1.2-1.2,1.8-0.7c0.8,0.7,0.9,1.8,1.5,2.5c-0.8,0.3-1.5,0.9-2.2,1.3
			c-0.8,0.5-1.6-0.5-1.4-1.2c0-0.4,0.3-0.7,0.6-0.9C166,26.3,165.8,25.9,165.9,25.6z M166.2,25.6c-0.1,0.4,0.1,0.7,0.3,1
			c-0.9,0.3-0.8,1.8,0.1,2c1-0.2,1.5-1.2,2.5-1.3c-0.5-0.6-0.9-1.4-1.3-2.1C167.3,24.6,166.3,24.9,166.2,25.6z"/>
	</g>
	<path class="st0" d="M181.1,25.8c0.8-0.2,1.6-0.2,2.3-0.4C182.7,25.9,181.9,26,181.1,25.8z"/>
	<path class="st0" d="M218.8,26.1c0.4,0.2,0.7,0.1,1-0.2c-0.1,0.2-0.2,0.6-0.6,0.6C219,26.7,218.9,26.3,218.8,26.1z"/>
	<path class="st0" d="M207.6,26.1c0,0,0.1,0,0.2,0c0.2,1.1-0.1,2.2-0.6,3.1c-0.1,0-0.3,0.1-0.3,0.2
		C207.1,28.4,207.5,27.3,207.6,26.1z"/>
	<path class="st0" d="M196,26.6c0.3-0.6,1.1,0.2,0.9,0.7C196.4,27.4,196.1,27.1,196,26.6z"/>
	<path class="st0" d="M193.3,28.3c0.2-0.2,0.3-0.4,0.5-0.7c-0.1,0.5-0.3,1-0.7,1.3c-0.3,0.2-0.8,0.1-1.2,0.1c0,0.2-0.1,0.5-0.1,0.7
		c0.6-0.3,1.2-0.7,1.8-1c-0.2,0.5-0.2,1.5-1,1.4c0.2-0.3,0.5-0.5,0.7-0.8c-0.3,0.2-0.7,0.5-1.1,0.5c0.1,0.1,0.3,0.2,0.4,0.3
		c-0.5-0.1-1,0-1.5,0.2c0.5-0.4,0.7-0.9,0.8-1.4c-0.5-0.1-1.1,0-1.4,0.4c0.2-0.4,0.3-0.9,0.6-1.2C191.8,28.2,192.5,28.6,193.3,28.3z
		"/>
	<g>
		<path class="st0" d="M198.8,28.3c0.5-0.3,1.2,0,1.3,0.6c0,0.5,0,1,0.1,1.5c0.1,0.1,0.3,0.3,0.4,0.4c-0.5,0.5-1,1-1.5,1.4
			c0.8,0.1,1.3-0.5,1.8-1.1c-0.1,0.7-0.7,1-1.1,1.5c-0.7-0.2-1.4-0.7-2.2-0.4c-1.2,0.1-1.7,1.3-2.5,2c0.2-0.6,0.5-1.1,0.7-1.7
			c0.1-0.4,0.5-0.4,0.8-0.6c-0.3,0.4-0.8,0.5-0.8,1.1c0.6-0.3,1.2-0.7,1.7-1.2c0.4-0.6,0.3-1.3,0.5-2
			C198.1,29.3,198.2,28.6,198.8,28.3z M198.2,29.7c0.4-0.1,0.8-0.3,1.1-0.6c0-0.2,0-0.5,0-0.7C198.8,28.5,198.3,29,198.2,29.7z
			 M199.1,29.5c-0.1,0.2-0.1,0.3,0.1,0.4C199.4,29.7,199.3,29.6,199.1,29.5z M198.3,30.9c-0.2,0.4-0.4,0.8-0.7,1.2
			c0.3-0.1,0.5-0.1,0.8-0.2c0-0.2,0-0.4,0-0.6c0.2-0.2,0.4-0.4,0.5-0.6c0-0.3,0-0.9-0.4-1C198.1,30,198.1,30.4,198.3,30.9z
			 M199.4,30.6c0.2,0.3,0.3,0.6,0.5,0.8c0.1-0.1,0.2-0.3,0.3-0.5C199.9,30.8,199.6,30.7,199.4,30.6z M198.5,31.4
			c0.1,0.2,0.2,0.5,0.4,0.7c0.3-0.1,0.6-0.3,0.8-0.6c-0.1-0.2-0.3-0.4-0.5-0.6C199,31.1,198.7,31.3,198.5,31.4z"/>
	</g>
	<path class="st0" d="M194,28.5c0.3,0.3,0.2,0.7,0.3,1c0.2,0.3,0.5,0.5,0.8,0.7c-0.1,0.3-0.2,0.6-0.3,1c-0.2-0.3,0-0.6,0.2-0.9
		c-0.3-0.2-0.7-0.4-1-0.6C193.9,29.3,194,28.9,194,28.5z"/>
	<path class="st0" d="M195.9,30.9c0.3,0.1,0.5-0.3,0.7-0.4c0,0.4,0,0.8,0.2,1.2c-0.5-0.3-1.1-0.5-1.6-0.6
		C195.3,30.9,195.6,30.9,195.9,30.9z"/>
	<path class="st0" d="M230.1,39.6c-0.2-1.2,0.5-2.3,1.2-3.2c-0.3,1-0.7,2-1.1,2.9c0.6,0.6,1.3,1,1.7,1.7c0.8,1.2,1.5,2.4,2.2,3.6
		c0.8,1.7,2.1,3,3.1,4.6c0.9,1.3,1.7,2.8,2.6,4.1v1c-1.8-3.1-3.7-6-5.8-8.9c-0.9-1.3-1.7-2.7-2.6-4C231,40.8,230.4,40.3,230.1,39.6z
		"/>
	<path class="st0" d="M167.6,41.9c-0.9-1.1-0.6-3,0.7-3.7c-0.2,0.5-0.6,0.9-0.7,1.4c-0.1,0.8,0.1,1.8,0.7,2.4c0.6,0.4,1.3,0.5,2,0.5
		c0.9-0.2,1.6-0.9,1.8-1.8c0.2-0.9-0.2-1.7-0.4-2.5c1.2,1,1.2,3,0.1,4.1C170.6,43.4,168.5,43.2,167.6,41.9z"/>
	<path class="st0" d="M233.7,38.6c0.6,0.4,0.9,1,1.3,1.6c1.1,1.5,2.4,3,3.1,4.8c-1-1.3-1.9-2.7-2.9-4
		C234.7,40.2,234.1,39.4,233.7,38.6z"/>
	<path class="st0" d="M183.9,41.7c0.9-0.3,1.8-0.8,2.7-1.2c-1.1,0.9-2.3,1.5-3.6,2c-1.2,0.5-2.3,1.1-3.4,1.5c-1,0.4-1.8,1-2.8,1.4
		c-0.8,0.4-1.7,0.5-2.4,0.9c-0.5,0.2-0.8,0.6-1.3,0.7c0.9-0.9,2.1-1.4,3.3-1.9c1.4-0.6,2.7-1.5,4.1-2
		C181.5,42.6,182.7,42.1,183.9,41.7z"/>
	<path class="st0" d="M229.5,45.4c0.7,0.6,1.1,1.5,1.6,2.2c1.2,2,2.4,3.9,3.6,5.9c0.7,1.2,1.6,2.3,2.2,3.5c-1.7-2-3-4.3-4.4-6.5
		C231.7,48.8,230.5,47.2,229.5,45.4z"/>
	<path class="st0" d="M165.2,49.4c-0.3-1.1-0.4-2.2,0-3.3c0.1,0.5,0.1,1,0.3,1.5c0.6,0,0.9,0.6,1.1,1.2c-0.4-0.3-0.6-0.8-1.1-0.9
		c-0.2,0.5,0.3,0.9,0.5,1.4c0.1,0.4,0.4,0.6,0.7,0.9c0.1,0.3,0.1,0.7,0,1c-0.2-0.3-0.1-0.9-0.6-1C165.6,50.1,165.3,49.8,165.2,49.4z
		"/>
	<path class="st0" d="M219,46.4c0.4,0.5,0.1,1.2,0.2,1.8c-0.1,0.6,0.3,1,0.5,1.6c-0.6-0.1-1.2-0.6-1.1-1.2
		C218.7,47.9,218.9,47.2,219,46.4z"/>
	<path class="st0" d="M154.6,51.9c0.2-1,0.4-1.9,0.9-2.8c-0.5,1.7-0.6,3.4-0.7,5.1c0,1.1-0.5,2.3-1.4,3c0.3-0.6,0.7-1.1,0.8-1.7
		C154.5,54.4,154.3,53.1,154.6,51.9z"/>
	<path class="st0" d="M163,52c1-0.4,2.2,0.2,2.5,1.2C164.9,52.5,164,51.9,163,52z"/>
	<g>
		<path class="st0" d="M215.6,55.3c0.6-1.2,1.8-2,2.6-3c0,0.9-0.3,1.7-0.5,2.5c-0.3,1-1.3,1.6-2.3,1.4c0.3-0.6-0.3-1.2-0.1-1.8
			c0.1-0.5,0.4-0.9,0.8-1.2C215.7,53.9,215.4,54.6,215.6,55.3z M215.8,56c0.4,0,0.8-0.2,1.1-0.4c-0.3,0-0.5-0.1-0.6-0.2
			c0.2-0.1,0.4-0.1,0.7-0.1c0.5-0.3,0.7-0.9,0.4-1.4C216.6,54.3,216.1,55.1,215.8,56z"/>
	</g>
	<path class="st0" d="M180.9,58.3c1.8-1.7,3.1-4,4.8-5.8c-0.3,0.6-0.7,1.2-1.1,1.7c-1.4,1.8-2.7,3.8-4.6,5.2
		c-0.1,0.1-0.3,0.2-0.5,0.3C179.9,59.1,180.5,58.8,180.9,58.3z"/>
	<path class="st0" d="M150.2,57.2c1.2,0,2.4-0.5,3.5-1C152.8,57,151.5,57.3,150.2,57.2L150.2,57.2z"/>
	<path class="st0" d="M157.5,58c0.3-0.5,1.2-0.9,1.6-0.3c0.2,0.7,0.1,1.5-0.2,2.2c0,0.2-0.2,0.3-0.3,0.3c0.2-0.8,0.3-1.7-0.2-2.5
		c-0.8,0.6-1,1.7-1.1,2.6h-0.2C157.1,59.6,157.1,58.7,157.5,58z"/>
	<g>
		<path class="st0" d="M218.3,59.2c0.4-0.3,0.7-0.7,1.1-1c-0.6,0.8-0.7,1.9-1,2.8c-0.4,0.9-1.3,1.5-2.2,1.5c-0.4,0-0.8-0.2-1.2-0.5
			c-0.2,0.1-0.4,0.1-0.5,0.2c0.7-0.6,1.2-1.4,1.9-1.9C216.9,59.9,217.6,59.7,218.3,59.2z M216.9,61.2c-0.5,0.4-1.2,0.6-1.7,1
			c1,0.5,2.2-0.1,2.8-1c0.3-0.6,0.5-1.2,0.6-1.8C218.1,60,217.6,60.7,216.9,61.2z M215.3,61.7c1-0.4,1.9-1,2.6-1.8
			C216.9,60.3,215.9,60.8,215.3,61.7z"/>
	</g>
	<path class="st0" d="M209.8,67.8c0-0.4,0.2-0.7,0.5-0.9C210.2,67.2,210,67.6,209.8,67.8z"/>
	<path class="st0" d="M150.1,73.9c1.1-2.6,2.9-4.8,4.9-6.9c-0.7,1.2-1.6,2.2-2.4,3.4C151.7,71.6,151,72.8,150.1,73.9z"/>
	<path class="st0" d="M192,77.3c1.9-2.3,4.3-4.5,7.4-5.1c-0.9,0.6-1.9,1-2.8,1.6c-1.5,0.9-2.9,1.9-4.1,3.1
		C192.4,77.1,192.2,77.2,192,77.3z"/>
	<path class="st0" d="M171,75.4c1.4,0.2,2.7,0.7,4.1,1c0.5,0.1,1,0.3,1.3,0.7c-0.6-0.1-1.2-0.4-1.9-0.4c-1.1-0.1-2-0.7-3-1
		C171.4,75.7,171.1,75.6,171,75.4z"/>
	<path class="st0" d="M182.4,83.2c0.3,0.5,0.4,1,0.5,1.5C182.4,84.4,182.4,83.8,182.4,83.2z"/>
	<g>
		<path class="st0" d="M150.7,85.7c0.6-0.6,1.3-1.1,1.8-1.8c0.4,1,1,2.3,0.3,3.3c-0.4,0.5-0.7,1.3-1.5,1.2c-0.4-0.4-0.8-0.7-1.4-0.5
			C149.9,87.2,150.2,86.4,150.7,85.7z M150.3,87.6c0.3,0.1,0.7,0.4,1,0.3c1-0.8,1.4-2.2,1.2-3.5C151.6,85.4,150.6,86.3,150.3,87.6z"
			/>
	</g>
	<path class="st0" d="M157.4,85.3c0.2-0.4,0.3-0.9,0.4-1.3c0.1,0.9-0.2,2.2-1.3,2.2C156.8,85.9,157.2,85.6,157.4,85.3z"/>
	<path class="st0" d="M148.9,85.3c0.1,0.2,0.2,0.4,0.3,0.6c0.2,0,0.4-0.1,0.6-0.1c-0.1,0.4-0.5,0.5-0.9,0.5
		C149,86,148.9,85.6,148.9,85.3z"/>
	<path class="st0" d="M181.8,86.2c0.4,0,0.7,0,1.1-0.2c0.1,0.1,0.2,0.2,0.3,0.3c1.2,0.2,2.4-0.1,3.6-0.1c0.4,0,0.7-0.1,1.1-0.2
		c-1.4,0.6-2.9,0.7-4.3,0.7c0,2,0.2,3.9,0.5,5.9c0.1,0.7,0.2,1.3,0.1,2c-0.3-1.5-0.8-3-1.1-4.6c-0.1-1.1,0.2-2.2,0.2-3.4
		C182.7,86.5,182.2,86.4,181.8,86.2z"/>
	<path class="st0" d="M203.4,91.7c1-0.9,2.4-1,3.7-1c1.1,0,2.1,0.8,2.7,1.7c0.6,1,1,2.3,0.5,3.4c-0.2,0.8-0.8,1.5-1.5,2
		c0-0.7,0.3-1.5-0.3-2c-0.3-0.1-0.7-0.2-1,0.1c-0.6,0.5-0.7,1.3-0.7,2.1c-0.3-0.2-0.7-0.5-1-0.6c-1.2,0.8-1,2.4-1,3.7
		c-1-0.4-1.8-1.2-2.9-1.3c-0.6,0.1-0.6,0.8-0.8,1.2c-0.5-0.2-0.9-0.6-1.5-0.6c-0.7,0.3-0.9,1.3-0.5,2c0.3,0.5,0.8,0.7,1.3,0.9
		c-1,0.5-2.2,0.6-3.3,0.1c-1.1-0.3-1.5-1.5-1.7-2.5c-0.2-2.1,0.7-4.4,2.5-5.7c-0.2,0.7-0.6,1.6,0,2.3c0.7,1,2.3,0.2,2.4-0.8
		c-0.1-0.9-0.3-1.8-0.4-2.7c0.5,0.2,0.9,0.7,1.3,1.1c0.3-0.1,0.6-0.3,0.9-0.4c-0.1-0.6-0.3-1.1-0.4-1.6c0.7,0.3,1.2,1.1,1.9,1.5
		c1,0.5,2.4-0.5,2-1.6C205.3,91.9,204.2,91.8,203.4,91.7z"/>
	<g>
		<path class="st0" d="M151,97.5c-0.1-1.6-0.2-3.3,0.4-4.8c0,0.1,0.1,0.4,0.1,0.5c0.6,0.4,0.9,1,1,1.7c0.2,0.7-0.4,1.4-0.8,1.9
			c-0.3,0.4-0.6,0.9-1,1.3c-0.8,0.1-1.6-0.5-1.8-1.3c0.3-0.1,0.6-0.2,0.9-0.3c-0.2-0.4-0.3-0.9-0.4-1.3c0.3,0.5,0.5,1.1,0.8,1.6
			c-0.3,0-0.5,0-0.8,0c0.3,0.4,0.8,0.7,1.2,1C150.8,97.8,150.9,97.6,151,97.5z M151.4,93.6c-0.1,0.9-0.1,1.8,0,2.7
			c0.3-0.3,0.7-0.7,0.9-1.1C152.1,94.6,151.8,94,151.4,93.6z"/>
	</g>
	<path class="st0" d="M174.2,93.7c0.1-0.5,0.5-0.8,0.9-0.9C175,93.2,174.5,93.4,174.2,93.7z"/>
	<path class="st0" d="M146.6,95.9c0.7-0.9,1.6-1.8,2.5-2.4c-0.6,1.3-2.1,1.9-2.7,3.1c0.1,1,0,2.1-0.7,2.8c0-0.6,0.3-1.1,0.4-1.7
		C146.2,97.1,146.1,96.4,146.6,95.9z"/>
	<path class="st0" d="M174.8,94.1c0.3-0.3,0.7-0.5,1.1-0.8c0.3,0,0.5,0.2,0.6,0.4c-0.3,0-0.6-0.1-0.8-0.1c0.1,0.3,0.3,0.5,0.5,0.8
		c-0.4-0.2-0.7-0.4-1.1-0.3c-0.2,0.5,0,1,0.2,1.5C174.6,95.3,174.5,94.6,174.8,94.1z"/>
	<path class="st0" d="M165.4,98.8c0-1.2,0.1-2.6,1-3.5C166,96.4,165.9,97.7,165.4,98.8z"/>
	<g>
		<path class="st0" d="M176.6,97c0.4-0.3,1-0.5,1.3,0c0.5,0.6-0.4,1.5-0.9,1C176.5,97.9,176.5,97.4,176.6,97z M176.7,97.3
			c-0.2,0.2,0.2,0.5,0.4,0.3C177.3,97.4,176.9,97.1,176.7,97.3z"/>
	</g>
	<path class="st0" d="M147.2,98.9c0.5,0,0.9-0.1,1.4-0.2c-0.7,0.5-1.6,0.5-2.4,0.6C146.3,98.8,146.8,98.9,147.2,98.9z"/>
	<g>
		<path class="st0" d="M148.8,98.8c0.5,0,1-0.1,1.5,0.1c0.4,0.5-0.3,0.9-0.6,1.2c-0.3,0.5-0.5,1.1-1.1,1.4c-0.8,0.3-1.7-0.5-2.3,0.2
			c0.3-0.6,0.7-1.2,1.4-1.3c0.8-0.2,1.7-0.3,2.4-0.8c0-0.1,0.1-0.2,0.1-0.3C149.8,99,149.3,99,148.8,98.8z M147.3,100.8
			c0.4,0.2,0.9,0.3,1.3,0.3c0.3-0.3,0.5-0.5,0.7-0.8C148.7,100.5,148,100.6,147.3,100.8z"/>
	</g>
	<path class="st0" d="M170,101.5c0.2-0.3,0.6-0.4,0.9-0.4c-0.1,0.2-0.3,0.2-0.5,0.3c-0.3,0.8-0.6,1.7-1.1,2.4
		c-0.5,0.6-1.1,1.1-1.8,1.6c0.6-1.1,1.6-2,2.3-3C170,102.1,169.9,101.8,170,101.5z"/>
	<path class="st0" d="M160.4,103.7c0.3-0.2,0.3,0.3,0.1,0.3C160.2,104.2,160.2,103.7,160.4,103.7z"/>
	<path class="st0" d="M210.2,106.9c0.7-0.4,1.5-0.7,2.3-1c-0.9,0.8-1.9,1.3-2.9,2c-2,1.2-3.7,2.9-5.7,4.2c-2,1.5-3.8,3.2-5.7,4.6
		c-0.6,0.4-1.1,1-1.8,1.4c0.9-1.1,2-1.9,2.9-2.9c1-1,2.2-1.9,3.3-2.9c1-0.8,2.1-1.5,3-2.3C207.1,108.9,208.5,107.7,210.2,106.9z"/>
	<g>
		<path class="st0" d="M147.2,109.4c0-0.7,0.4-1.4,1-1.7c0.6-0.2,0.8,0.6,0.6,1c-0.4,0.5-0.9,1-1.3,1.5c0.3,0.4,0.6,0.7,1,1
			c-0.4-0.1-0.8-0.2-1.1-0.4c-0.3-0.4,0.1-0.9,0.3-1.2C147.5,109.5,147.4,109.5,147.2,109.4z M147.4,109.2c0.5,0,1-0.3,1.3-0.6
			c-0.2-0.2-0.2-0.6-0.5-0.6C147.8,108.2,147.4,108.7,147.4,109.2z"/>
	</g>
	<path class="st0" d="M214.6,108.8c1.6-0.5,3.3-0.8,5-0.9c0,0,0,0.1,0,0.2c-2.1,0.3-4.2,0.6-6.2,1.5
		C213.6,109.1,214.2,109,214.6,108.8z"/>
	<path class="st0" d="M164.5,109.4c0.4-0.5,1.1-0.7,1.7-0.8C165.7,109.1,165.1,109.3,164.5,109.4z"/>
	<path class="st0" d="M178.9,109.8c0.4-0.3,0.9-0.6,1.3-0.2c0.5,0.6,0,1.5-0.5,1.9C179.5,111,179,110.5,178.9,109.8z"/>
	<path class="st0" d="M206,114.5c0.7-0.9,1.5-1.9,2.6-2.4c-0.4,0.7-1,1.3-1.5,2c-1.5,2-3.1,3.9-3.9,6.3c-0.1-0.8,0.4-1.5,0.7-2.3
		C204.3,116.8,205.1,115.6,206,114.5z"/>
	<g>
		<path class="st0" d="M172.1,115.1c0.9-0.9,1.7-2,2.8-2.7h0.2c0.2,0.5,0.4,0.9,0.4,1.4c-0.8,0.9-1.6,1.8-2.5,2.4
			c-0.5,0.3-0.8,0.9-1.4,1.1c-0.2-0.4-0.3-0.8-0.4-1.2C171.4,115.7,171.7,115.4,172.1,115.1z M171.4,116c0.1,0.4,0.2,0.8,0.3,1.2
			c1.1-1.2,2.3-2.3,3.4-3.4c0.1-0.4-0.1-0.8-0.2-1.2C173.9,113.8,172.6,114.9,171.4,116z"/>
	</g>
	<g>
		<path class="st0" d="M173.4,117.6c0.9-1,1.8-2.1,2.9-2.9c0.4,0.6,0.8,1.4,0.8,2.1c-1.2,1.3-2.6,2.5-4,3.5
			c-0.3-0.5-0.6-0.9-0.8-1.4C172.5,118.4,173,118.1,173.4,117.6z M172.6,118.7c0.1,0.5,0.4,0.9,0.6,1.4c0.4-0.4,0.8-0.8,1.2-1.1
			c0.9-0.7,1.6-1.5,2.4-2.2c-0.2-0.5-0.3-1.1-0.5-1.6C175,116.2,173.9,117.6,172.6,118.7z"/>
	</g>
	<g>
		<path class="st0" d="M152.9,117c0.2-0.9,1.4-0.9,1.9-1.6c0.3,1.1-0.3,2.4-1.4,2.7c0.2-0.2,0.4-0.4,0.6-0.6
			c-0.3-0.2-0.6-0.4-0.9-0.6c-0.1,0.4,0,0.8,0,1.2C152.6,118,152.9,117.4,152.9,117z M153.9,116.3c-0.3,0.2-0.5,0.7-0.2,0.9
			c0.4,0.3,0.8-0.1,0.8-0.5C154.6,116.4,154.1,116.2,153.9,116.3z"/>
	</g>
	<g>
		<path class="st0" d="M177.8,118.1c0.4,0.5,0.8,0.9,1.1,1.5c0.1,0.4-0.3,0.7-0.5,0.9c-1,1-2.1,2-3.3,2.8c-0.4-0.5-1.2-1-1-1.7
			c0.7-0.8,1.6-1.4,2.3-2.2C176.9,118.9,177.4,118.5,177.8,118.1z M174.4,121.6c0.3,0.4,0.5,0.9,0.8,1.3c1.2-1,2.3-2.1,3.5-3.1
			c-0.2-0.5-0.5-1-0.7-1.5C176.8,119.5,175.6,120.6,174.4,121.6z"/>
	</g>
	<g>
		<path class="st0" d="M153,122.6c0.3-1.3,1.7-1.9,2.6-2.7c-0.1,1.1,0.3,2.6-0.9,3.3C154,123.6,153.5,122.9,153,122.6z M153.6,122.7
			c0.2,0.4,0.8,0.5,1.1,0.1c0.6-0.5,0.7-1.4,0.7-2.2C155.1,121.5,154.7,122.7,153.6,122.7z M153.5,122.5c0.3,0,0.7,0,1-0.2
			c0.3-0.4,0.5-1,0.6-1.5C154.5,121.3,153.9,121.9,153.5,122.5z M154,121.5l0.1-0.1C154.1,121.4,154,121.4,154,121.5z M153.8,121.6
			c0,0,0.1-0.1,0.2-0.2C154,121.5,153.9,121.6,153.8,121.6z M153.7,121.8c0,0,0.1-0.1,0.2-0.2C153.8,121.7,153.7,121.7,153.7,121.8z
			 M153.5,121.9C153.4,122.1,153.4,122.1,153.5,121.9l0.1-0.1C153.6,121.8,153.6,121.9,153.5,121.9z"/>
	</g>
	<path class="st0" d="M152.3,120.9c0.4-0.1,0.8-0.1,1.3-0.3c-0.2,0.2-0.3,0.4-0.5,0.5C152.8,121.3,152.5,121.1,152.3,120.9z"/>
	<path class="st0" d="M162.8,129.5c-0.3-0.9,0.2-2,1.3-1.9c-0.3,0.4-0.8,0.5-1,1c-0.2,0.3,0,0.7,0,1.1c-0.4,0.2-0.9,0.5-1.2,1
		s-0.2,1-0.3,1.5c-0.3-0.5-0.2-1.2,0.1-1.8C161.9,129.9,162.4,129.7,162.8,129.5z"/>
	<path class="st0" d="M163,134.1c0.9,0.4,1.8,1.2,1.9,2.2C164.3,135.5,163.7,134.7,163,134.1z"/>
</g>
</svg>
