<?xml version="1.0" encoding="utf-8"?>
<!-- Generator: Adobe Illustrator 26.0.3, SVG Export Plug-In . SVG Version: 6.00 Build 0)  -->
<svg version="1.0" id="Слой_1" xmlns="http://www.w3.org/2000/svg" xmlns:xlink="http://www.w3.org/1999/xlink" x="0px" y="0px"
	 viewBox="0 0 239.5 150.2" style="enable-background:new 0 0 239.5 150.2;" xml:space="preserve">
<g>
	<path d="M168.2,82.7c0.1-1.8,0-3.5-0.1-5.3l-0.1-0.1c-0.5,1.3-0.7,2.6-0.8,4c-0.1,0.7,0,1.5,0.6,2C167.9,83.1,168,82.9,168.2,82.7z
		"/>
	<path d="M166.1,84c-0.9,1.7-1.2,3.7-1,5.5c0.1,0.4,0.2,0.8,0.4,1.2c0,0,0.1,0,0.2,0c0.5-0.7,0.4-1.5,0.4-2.3
		C166.1,87,166.4,85.5,166.1,84z"/>
	<path d="M162.9,96.7c-0.1-1.6-0.1-3.2-0.1-4.8c0,0-0.1,0-0.1,0.1c-0.6,1.1-0.8,2.4-0.8,3.6c0,0.8,0.1,1.6,0.6,2.2
		C162.7,97.4,162.9,97,162.9,96.7z"/>
	<path d="M159.5,96.6c0-0.1,0.1-0.2,0.1-0.3c0.1-0.2,0-0.5,0-0.7c-0.1-1.1-0.2-2.3-0.3-3.4c-0.2,0.1-0.3,0.4-0.4,0.7
		c-0.4,1.1-0.5,2.3-0.1,3.4c0.1,0.2,0.2,0.5,0.5,0.6C159.4,96.8,159.5,96.7,159.5,96.6z"/>
	<path d="M176.1,93.6c0-0.2-0.1-0.3-0.2-0.5c-0.1,0.3-0.1,0.7-0.1,1c-0.1,1.1-0.3,2.2,0,3.2c0.1,0,0.2,0,0.2,0
		c0.1-0.1,0.1-0.3,0.2-0.4C176.7,96,176.3,94.7,176.1,93.6z"/>
	<path d="M171.2,100.6c0,0.7,0.1,1.3,0,2c0,0.8-0.1,1.6,0.3,2.3c0.1,0.2,0.2,0.4,0.5,0.4c0.2-0.4,0.1-0.9,0.2-1.3
		c0.1-1.2-0.2-2.3-0.7-3.4C171.4,100.6,171.3,100.6,171.2,100.6z"/>
	<path d="M159.8,128.5c0.5-0.1,0.8-0.5,0.9-1c-0.4,0-0.9,0-1.3,0c-1.3,0.2-2.6,0.3-3.9,0.4c-0.2,0-0.3,0.1-0.5,0.1
		c0.3,0.3,0.8,0.5,1.2,0.6C157.4,129,158.6,128.8,159.8,128.5z"/>
	<path d="M204.6,56L204.6,56c-0.5-1.9-1-3.7-1.6-5.5c-0.1,1-0.2,1.9-0.2,2.9c0.2,0.8,0.4,1.6,0.6,2.4c-0.4,0.6-0.9,1.3-1.3,1.9
		c0.3,1.1,0.5,2.2,0.8,3.3c0,0.7-0.5,1.4-0.4,2.1c0.1,1,0.3,2.1,0.3,3.1c0,0.7-0.3,1.4-0.4,2.1c0.2,0.7,0.5,1.5,0.7,2.2
		c0,0.9-0.3,1.8-0.3,2.8c0.2,0.9,0.5,1.7,0.7,2.5c-0.2,0.1-0.4,0.2-0.6,0.4c-0.3,0.2-0.5,0.3-0.8,0.5c-1-0.7-2.3-0.7-3.4-0.1
		c-1.1,0.6-1.9,1.8-2.5,2.9c-0.1,0-0.2-0.1-0.3-0.1c0.2-0.7,0.7-1.4,1.2-1.9c0.8-0.8,1.4-1.8,1.7-2.9c0.1-0.7,0-1.4-0.3-2
		c-0.2-0.4,0-0.8,0.2-1.1c0.2-0.4,0.5-0.8,0.8-1.2c0.2-1.2,0.1-2.4,0.5-3.5c0.2-0.8-0.2-1.6-0.2-2.4c0.3-0.9,0.5-1.9,0.1-2.8
		c-0.2-0.4-0.4-0.7-0.3-1.1c0.3-1.3,0.4-2.6,0.5-3.9c0-0.4-0.3-0.7-0.2-1.1c0.1-0.6,0.2-1.2,0.2-1.8c1-0.6,1.5-1.8,1.6-2.9
		c0-0.4-0.1-0.8-0.1-1.2c0.3-0.8,0.6-1.6,0.4-2.4c0-0.3-0.1-0.6-0.1-0.9c0.1-0.9,0.3-1.7,0.5-2.6c0.1-0.8-0.3-1.5-0.3-2.2
		s0-1.5,0.1-2.2c0-0.9-0.3-1.7-0.1-2.6c0.1-0.4,0.1-0.8,0.2-1.2c-0.1-0.6-0.5-1.1-0.4-1.7c0.1-0.9,0.2-1.8,0.3-2.8
		c0.1-0.7-0.4-1.4-0.5-2.1c0-0.6,0.2-1.1,0.1-1.7c-0.1-0.5-0.3-0.9-0.5-1.3c-0.2,1.1-0.7,2.2-0.6,3.4c-0.1,0.8,0.2,1.5,0.3,2.2
		c0,0.9-0.3,1.8-0.3,2.8c0.2,0.9,0.5,1.7,0.7,2.6c-0.1,1.1-0.4,2.2-0.6,3.3c0.1,0.6,0.5,1.2,0.7,1.8c-0.1,1.1-0.3,2.1-0.4,3.1
		c0.1,0.5,0.3,1,0.5,1.4c-0.3,0.4-0.7,0.8-1.2,1.1c-0.8-0.6-1.9-0.8-2.8-0.3c-0.8,0.4-1.4,1.2-2.4,1c0.5-0.5,1.1-0.7,1.7-1.2
		c1.2-1,2-2.5,1.9-4.1c0-0.7-0.3-1.4-0.5-2.1c0-0.8,0-1.6-0.3-2.4c0.2-0.7,0.4-1.4,0.6-2.1c-0.1-0.7-0.4-1.3-0.5-2
		c-0.2-1.1-0.1-2.3-0.1-3.4c0-0.5-0.1-1-0.2-1.5c0-0.5,0.1-1,0.1-1.5c0-0.6-0.2-1.1-0.3-1.7c-0.2-0.7,0.3-1.3,0.4-2
		c-0.2-0.7-0.6-1.3-0.8-2c0-0.9,0.2-1.7,0.2-2.6c-0.2-0.7-0.4-1.3-0.7-2c-0.2,0.5-0.4,1-0.6,1.4c0,0.7,0.2,1.4,0.1,2.1
		c-0.1,0.6-0.4,1.2-0.5,1.9c-0.1,0.2,0.1,0.4,0.1,0.6c0.3,0.8,0.6,1.6,0.9,2.4c-0.1,0.5-0.3,1-0.4,1.5c0.1,1.2,0.7,2.4,0.3,3.7
		c0,0.1-0.1,0.3-0.1,0.4c0.3,1.1,0.6,2.3,0.9,3.4c0.2,0.5-0.3,1-0.5,1.4c0.2,0.6,0.5,1.2,0.7,1.8c-0.3,0.4-0.6,0.8-1,1.2
		c-1-0.3-2.1-0.3-3,0.2c-0.6,0.3-1.1,0.8-1.4,1.4c-0.6,1.1-0.5,2.5-1.2,3.5c-0.3,0.1-0.6-0.3-0.9-0.4c0.7-0.9,1.5-1.7,1.8-2.9
		s-0.2-2.4-1-3.3c0-0.5,0.6-1,0.3-1.5c-0.1,0.4-0.5,0.8-0.6,1.2c-0.4-0.2-0.9-0.4-1.4-0.6c0.5-0.5,1.3-1,2-0.6l0.1-0.2
		c0.3-0.5,0-1,0.1-1.5c0.1-0.7,0-1.3-0.1-2c0.1-0.8,0.5-1.6,0.6-2.5c0-0.5,0.1-1,0.1-1.4c0.1-0.8-0.6-1.4-0.5-2.2
		c0.1-0.5,0.1-1,0-1.6c-0.2-1-0.3-2.1-0.4-3.1c0-0.5,0.2-1,0.2-1.5c-0.1-0.7-0.4-1.4-0.5-2.2c0.1-0.6,0.3-1.1,0.4-1.7
		c0-1.3-0.3-2.7-0.8-3.9c-0.1,0.8,0,1.7-0.1,2.5c-0.3,0.7-0.7,1.4-0.9,2.1c0.1,0.5,0.3,1,0.5,1.6c-0.1,0.5-0.3,1-0.4,1.4
		c0,0.5,0.3,1,0.4,1.5c0.2,0.5,0,1,0,1.4c-0.1,0.6,0.2,1.1,0.4,1.7s-0.3,1.2,0,1.7c0.2,0.6,0.5,1.2,0.6,1.8
		c-0.3,0.4-0.6,0.7-0.9,1.1c0.3,0.4,0.7,0.8,1,1.3c-0.2,0.6-0.6,1.1-0.6,1.7c-0.1,0.9-0.1,1.9,0.1,2.8c0.1,0.3,0.3,0.6,0.5,0.9
		c-0.4,0-0.8,0-1.2,0.2c-0.4,0.1-0.6,0.5-0.9,0.7c-0.3,0.1-0.6,0.1-0.9,0.1c-1.4,0.2-2.6,1.2-3,2.6c-0.3,0.8-0.3,1.7-0.3,2.6
		c0,0.9,0.4,1.8,0.4,2.7c0,0.4-0.2,0.9-0.5,1.2c0.1-0.7,0.3-1.4,0.1-2.2c-0.1-0.6-0.7-1-1.2-1.4c0.2-0.3,0.3-0.6,0.5-1
		c0.2-0.8,0-1.7,0.3-2.5c0.1-0.4,0.4-0.8,0.6-1.2c-0.1-0.7-0.4-1.4-0.5-2c-0.1-0.7-0.1-1.5-0.2-2.2c0.2-0.3,0.3-0.6,0.5-0.9
		c-0.2-0.8-0.5-1.6-0.5-2.4c-0.1-0.5,0.3-1,0.3-1.5s-0.1-1.1-0.1-1.6c0.1-0.4,0.3-0.7,0.3-1c-0.1-0.6-0.3-1.2-0.3-1.8
		c0-1,0-2-0.3-2.9c-0.1-0.4-0.2-0.9-0.4-1.3c-0.1,0.8-0.1,1.5-0.3,2.3c-0.2,0.7,0.3,1.2,0.5,1.8c-0.3,0.6-0.7,1.1-1,1.7
		c-0.1,0.5,0,0.9,0,1.4c0,0.4,0.4,0.6,0.6,0.9c-0.1,0.6-0.1,1.1-0.2,1.7c0,0.6-0.3,1.1-0.3,1.7c0.1,0.6,0.4,1.1,0.6,1.7
		c-0.2,0.6-0.4,1.2-0.6,1.7c0.2,0.3,0.4,0.5,0.7,0.7c-0.1,1.1-0.2,2.2-0.3,3.3c-0.2,0.8,0.3,1.4,0.5,2.1c-0.2,0-0.3,0.1-0.5,0.1
		c-0.6,0.2-1.1,0.5-1.6,0.9c-0.3,0.3-0.8,0.4-1.2,0.7c-0.4,0.2-0.7,0.5-0.9,0.9c-1.7-1.9-3.9-3.4-6.5-3.7c-1.2-0.1-2.6-0.2-3.6,0.6
		c-0.7,0.5-1,1.3-1.3,2.1c-1.7-1.2-3.8-1.8-5.9-2.1c-1.3,0-2.7-0.1-3.9,0.4c-1,0.5-1.6,1.6-1.5,2.8c0.1,1.9,1,3.7,2,5.3
		c-0.6,0.4-1.2,0.8-1.7,1.3c-1.4-1.6-3.5-2.6-5.7-2.7c0.5-0.7,1-1.4,1.2-2.2s0.3-1.7,0.1-2.5c1.1-0.4,2-1.4,2.2-2.5
		c0.3-1.4,0.2-3.7-0.9-4.7c-0.5-0.6-1.8-1.1-2.6-0.8c-0.6-0.4-0.8-0.4-1.5-0.6c0-0.8-0.1-1.5-0.1-2.3c0.1-1,0.2-2.1,0.3-3.1
		c0.1-0.9-0.3-1.7-0.4-2.6c0.1-1,0.3-1.9,0.3-2.9c-0.1-0.4-0.3-0.7-0.4-1.1c0.1-1.1,0.8-2.1,0.5-3.3c-0.1-0.3-0.1-0.6-0.2-0.9
		c-0.3-0.4-0.7-0.7-1.1-1c0.1,0.4,0.3,0.7,0.4,1c0.2,1.3-0.1,2.6-0.7,3.8c-0.2,0.4,0,0.8,0.1,1.2c0.2,0.8,0.3,1.6,0.3,2.3
		c0,0.7-0.2,1.3-0.2,2c0.2,0.9,0.3,1.8,0.5,2.8c0,1,0,1.9-0.2,2.9c-0.1,0.5,0.2,0.9,0.2,1.4c0.4,0.4,0.7,0.8,0.9,1.3
		c-0.7,0.5-1.2,1.3-1.2,2.2c0,0.3,0.1,0.6-0.1,0.8c-0.4-2.1,0.2-5.3-0.9-7.2c-0.4-0.7-1.1-1.2-1.9-1.5c-0.4-0.1-0.9-0.1-1.3-0.1
		c-0.8-0.7-2.1-0.3-3.1-0.4c0.1-0.3,0.2-0.6,0.2-1c-0.1-1-0.2-1.9-0.4-2.9s0-2,0.2-3c0.1-0.9,0-1.7-0.1-2.6
		c-0.2-0.7,0.5-1.2,0.5-1.8c0.1-0.7-0.3-1.3-0.5-1.8c0.2-0.6,0.5-1.3,0.5-1.9c0-0.7-0.2-1.5-0.3-2.2h0.1c-0.2,0.4-0.8,0.8-0.6,1.3
		c0.2,0.9,0.2,1.7,0,2.6c-0.2,0.5-0.5,0.8-0.6,1.3c0.1,1.1,0.3,2.2,0.4,3.3c0,0.6,0.1,1.1,0.1,1.7s-0.4,1.1-0.3,1.7
		c0.1,0.8,0,1.7,0.2,2.5c0.1,0.5,0.2,0.9,0.2,1.4c0,0.6-0.2,1.2-0.3,1.8c0.3,0.2,0.6,0.3,0.8,0.7c0.2,0.4,0.4,0.8,0.6,1.2
		c-0.4,0.5-0.9,1-1,1.6c-0.2,0.8,0,1.6,0.4,2.3c0.6,1,1.1,1.1,1.8,1.9c-0.4,0.3-0.1,0.8-0.5,1.1c-0.2-0.5-0.4-1-0.7-1.5
		c-0.6-1.1-1.5-2.1-2.6-2.7c-1-0.5-3-0.2-4,0.3c-0.7-0.4-1-0.6-1.5-1.1c0.1-1.2,0.2-2.4,0.3-3.6c0-0.5-0.3-1-0.3-1.6
		c0-0.7,0-1.5,0.3-2.2c0.5-1.4-0.2-2.8-0.1-4.3c0-0.8,0.5-1.5,0.4-2.3c0-0.6-0.1-1.1-0.2-1.7c-0.3-0.8-0.4-1.7-0.7-2.5
		c-0.1,0.5,0.2,1,0.2,1.6c-0.1,0.6-0.3,1.1-0.4,1.6c-0.1,0.5-0.4,0.9-0.6,1.4c0,0.7,0.1,1.5,0,2.2c0.2,0.3,0.5,0.5,0.6,0.8
		c-0.2,1.2-0.6,2.4-0.8,3.7c0.2,1.3,0.8,2.6,0.9,3.9c-0.1,1-0.1,1.9-0.1,2.9c0,1.1,0.6,2,1.2,2.8c-0.5,1-0.7,2.1-0.2,3.1
		c0.4,1,1.3,1.7,2.2,2.2s1.8,0.9,2.8,1.2c-0.2,0.5-0.3,1.1-0.6,1.5c-1-0.7-2.1-1.5-3.3-1.6c-0.8,0-1.6,0.1-2.3,0.6
		c-0.8-0.3-1.4-1-2-1.6c0.2-1,0.1-2,0.1-2.9c0.1-1,0.5-1.9,0.5-2.9c0-0.6,0-1.2-0.3-1.8s0.1-1.2,0.1-1.8c0-1,0-1.9-0.3-2.9
		c-0.2-0.6-0.1-1.2-0.1-1.8c-0.3,0.6-0.6,1.2-0.7,1.8c0.2,0.4,0.6,0.8,0.6,1.3c0,0.4,0.1,0.8,0,1.3c-0.2,0.9-0.4,1.9-0.8,2.8v0.1
		c0.2,0.5,0.5,0.9,0.5,1.4c0.1,0.4,0.1,0.9,0.2,1.3c-0.1,0.2-0.2,0.4-0.3,0.6c-0.1,1.1,0.1,2.3,0.3,3.4c-0.2,1.3,0.5,2.6,1.4,3.5
		c-0.2,1.2,0.2,2.4,1,3.3c0.9,0.9,2,1.5,3.3,1.6c-0.2,0.4-0.4,0.9-0.7,1.3c0.2,0.6,0.4,1.2,0.3,1.8c-0.1,0.4-0.4,0.8-0.5,1.3
		c-0.2,0.7,0.4,1.3,0.6,1.9c-0.2,0.6-0.4,1.3-0.6,2c0.1,0.6,0.2,1.2,0.2,1.9c-0.2,0.4-0.5,0.8-0.7,1.2c0.2,0.5,0.5,0.9,0.7,1.4
		c0.1,0.4,0,0.9,0,1.3c0,0.8-0.4,1.6-0.4,2.4c0.1,0.5,0.3,1,0.4,1.4c0.1,0.4,0.2,0.9,0.4,1.3c0.3,0.5,0.6,1.1,0.8,1.7
		c-0.8,1.3-0.7,3.1,0.3,4.4c0.5,0.8,1.3,1.5,1.4,2.5c-0.4-0.5-0.6-1.1-1.1-1.6c-0.5-0.6-1.1-1.3-1.9-1.6c-0.9-0.4-2-0.5-2.9-0.1
		c-0.5-0.4-1.1-0.7-1.7-0.8c0.1-0.3,0.3-0.6,0.4-0.9c0.1-0.6,0-1.2,0.2-1.8c0.1-0.5,0.3-0.9,0.4-1.4c-0.2-0.4-0.5-0.9-0.7-1.3
		c0.1-0.5,0.3-1,0.4-1.6c0.2-0.8,0.6-1.5,0.9-2.2c-0.2-0.4-0.6-0.8-0.8-1.2c0.1-0.6,0.3-1.2,0.1-1.8c-0.1-0.5-0.4-1.1-0.4-1.6
		c0.1-0.6,0.4-1.2,0.5-1.8c-0.2-0.4-0.4-0.8-0.5-1.2c0.1-0.7,0.4-1.4,0.5-2.1c0-0.4-0.1-0.8,0-1.2c0.1-0.7,0.3-1.5,0.4-2.2
		c-0.2-0.4-0.4-0.9-0.6-1.3c0.2-0.3,0.4-0.6,0.7-0.9c-0.2-0.4-0.4-0.7-0.6-1c-0.1-0.4,0.1-0.8-0.2-1.1c-0.3-0.4-0.5-0.9-0.9-1.3
		c0,0.8-0.3,1.6-0.5,2.4c0.1,0.4,0.3,0.8,0.3,1.2c-0.1,0.8,0.3,1.5,0.4,2.2c0,0.4-0.2,0.8-0.3,1.2c0,0.6,0.2,1.1,0.2,1.7
		c-0.1,0.7-0.4,1.3-0.5,1.9c-0.1,0.5-0.1,1-0.1,1.4c-0.1,0.9,0.2,1.7,0.4,2.6c0.1,0.8-0.5,1.6-0.1,2.4s0.4,1.6,0.4,2.4
		c-0.1,1.2-0.5,2.3-0.8,3.4c0,0.8,0.4,1.5,0.5,2.2c-0.1,0.4-0.2,0.7-0.3,1.1c0.2,1.4,0.2,2.2,0.5,3.6c-0.6,1.4,0,3.6,1.1,4.7
		c1,1,2.3,1.6,3.6,2.1c0.1,0.9,0.2,1.7,0.5,2.5c0.4,1.3,1.1,2.6,2.3,3.3c0.6,3.3,1.2,6.7,2.6,9.8c0.7,1.5,1.5,3,2.8,4.1
		c0.7,0.6,1.7,0.8,2.6,0.5c0.9-0.3,1.6-0.9,2-1.8c1.3,1.8,2.7,3.6,4.7,4.7c2.5,1.5,5.3,2.4,8.2,2.4c0.1,0.4,0.3,0.7,0.6,1
		c0,2.8,1.6,5.3,1.7,8.1c0.1,1.3-0.1,2.6-0.9,3.7c-0.9,1.2-2.5,1.8-4,1.8c-1.6-0.1-3.2-0.7-4.7-1.4c-1.6-0.9-3.5-1.2-5.3-1
		c-1.4,0.1-2.7,0.6-3.8,1.5c-1.7,1.4-2.9,3.6-2.8,5.9c0,1.3,0.5,2.5,1.1,3.6c1.1,2.1,2.9,3.8,5,4.7c2.6,1.2,5.4,1.9,8.2,2h1.9
		c2.6-0.1,5.2-0.9,7.6-1.8c3.5-1,6.4-3.4,8.3-6.4c1.3-2.1,1.7-4.7,1.4-7.2c-0.2-2.3-1.3-4.4-2.2-6.5c-0.8-2.1-2.3-4-2.4-6.3
		c0.9-0.1,1.7-0.3,2.5-0.5c3.7-1,7.3-2.9,9.9-5.9c0.5-0.4,0.8-0.9,1.2-1.3c0.5,0.4,0.9,0.8,1.6,1c1,0.2,2.1,0,2.9-0.6
		c0.9-0.6,1.4-1.5,2-2.3c1.3-2.2,2.1-4.6,3-7c0.3-0.6,0.2-1.4,0.6-1.9c0.4-0.3,0.8-0.5,1.1-0.8c1.5-1.5,2.1-4,1.3-6
		c1.3-0.4,2.5-1.1,3.7-1.9c0.6-0.4,1-1,1.2-1.6c0.2,0,0.2-0.1,0.2-0.2c0-0.6,0.2-1.1,0.1-1.7c-0.1-0.4,0.1-0.8,0.2-1.1
		c0.2-0.6,0.2-1.2,0.2-1.8c0.3-0.9,0.6-1.7,0.8-2.6c-0.1-0.6-0.4-1.2-0.4-1.8c0-1.1-0.2-2.2-0.3-3.3c0.1-1.1,0.3-2.1,0.4-3.2
		c-0.2-0.8-0.6-1.5-0.8-2.3c0.1-0.9,0.3-1.8,0.4-2.6c0-0.8-0.1-1.6,0-2.4C204,57,204.4,56.5,204.6,56z M190.2,75.6
		c0.4-1,1.4-2,1.5-3c0-0.5-0.1-1.1-0.4-1.5c0.3-0.5,0.7-1,1.1-1.4c0-0.7,0.3-1.3,0.4-2c0-0.5-0.3-0.9-0.3-1.3c0.2-1.3,0.6-2.7,0.9-4
		c0.1-0.1-0.1-0.3-0.1-0.4c-0.3-0.3-0.6-0.6-0.8-1c-0.1-0.8,0.2-1.7,0.3-2.5c0.1-0.5-0.2-1-0.3-1.5c1.1-0.4,2.1-1.1,2.8-2
		c0.3-0.4,0.5-0.8,0.8-1.1c0.5-0.1,1,0.2,1.5,0.2c0.5,0.1,0.9,0,1.4-0.1c0,0.4,0.1,0.9,0,1.3c-0.3,0.3-0.6,0.6-0.8,0.9
		c0.2,0.4,0.4,0.8,0.5,1.2s0.1,0.9,0.2,1.3c0,0.5-0.1,1-0.1,1.6c0,0.8,0.1,1.6,0.2,2.4c0.1,0.4-0.1,0.8-0.2,1.2
		c-0.2,0.6-0.4,1.2-0.4,1.9c0,0.6,0.1,1.2,0.1,1.8c0.2,0.8,0.4,1.6,0.6,2.4c-1-0.2-2,0.1-2.9,0.6c-1-0.1-2-0.2-2.9,0.4
		c-1.1,0.7-1.5,2-1.7,3.2c-0.2,1-0.3,1-0.7,1.9L190.2,75.6z M184.9,76.9c0.4,1.8-0.2,3.2-0.3,5.1c-1-0.1-1,0.1-1.9,0.6
		c-0.5-1-0.6-1.4-1.1-2.4c0.7-2.2,1.7-4.2,2.7-6.3c0.4-0.9,1.1-1.6,1.5-2.5c0.9-1.6,1.6-3.3,2-5.2c0.2-1.4,0.8-2.8,1.3-4.1
		c0.7-1.7,1.4-3.3,2.3-4.8c0.1,0.6,0.2,1.2,0.2,1.9c0,0.6-0.3,1.2-0.3,1.8c0.1,0.4,0.3,0.9,0.4,1.3c-0.1,0.5-0.4,1-0.5,1.6
		c0,0.7,0.2,1.4,0.3,2.1c-0.1,0.7-0.2,1.3-0.2,2c0.2,0.5,0.5,1,0.7,1.5c-1-0.1-2,0.1-2.7,0.7c-1.3-0.1-2.6,0.7-3.4,1.7
		c-0.4,0.5-0.8,1-1,1.6C184.6,74.5,184.6,75.8,184.9,76.9z M180.8,43.8c0.8-0.5,1.9-0.8,2.8-0.4c0.2,0.1,0.3,0.2,0.4,0.3
		c0.5,0.7,0.5,1.6,0.3,2.3c0,0.4-0.3,0.9-0.1,1.3c0.8-0.2,1.4-0.7,1.8-1.4c0.2-1.2-0.2-2.3-0.3-3.4c-0.1-1.3-0.1-2.8,0.9-3.7l0,0
		c0.5-0.4,0.9-0.8,1.5-0.9c0.8-0.2,1.7,0,2.4,0.5c0.4,0.3,0.7,0.7,0.9,1.1c0.2,0.6,0.2,1.3,0,1.8c-0.4,1-1.2,1.8-1.6,2.7
		c-0.1,0.2-0.3,0.1-0.4,0.1c0.9,0.6,1.8,1.1,2.7,1.6l0,0c-0.1-0.1-0.2-0.2-0.3-0.3c-0.3-0.3,0.2-0.4,0.2-0.6
		c0.5-1.1,0.3-2.5,1.1-3.5c0.6-0.8,1.6-1.3,2.6-1.4c0.8,0,1.6,0.4,2,1.1c1,1.6,0.7,3.8-0.6,5.1v0.1c-0.6,0.7-1.4,1.2-2.3,1.5v-0.1
		l-0.1,0.2c0.2,0.6,0.5,1.2,0.7,1.7c0-0.1,0-0.4,0.1-0.5c0.6-0.1,1.1-0.4,1.6-0.7c0.5-0.4,1.1-0.9,1.8-0.9s1.3,0.6,1.6,1.2l0,0
		c0.2,0.4,0.3,0.8,0.4,1.3V50c0,0.1,0.1,0.2,0.1,0.3c0,1.1-0.6,2.3-1.6,2.8c-1.2,0.6-2.6,0.4-3.9,0.1c-0.4,0.8-0.7,1.6-1.4,2.2
		c-0.7,0.8-1.8,1.2-2.9,1c-1.3,1.8-1.9,4-3,5.9c-0.1-0.4-0.1-0.8-0.1-1.1c-0.2-1.9-0.6-3.7-1.5-5.4c-0.3-0.5-0.6-0.9-0.8-1.3
		c0.3-0.2,0.6-0.2,1-0.2c2.3-0.3,4.5,0.4,6.7,0.7c-0.1-0.5-0.6-0.8-1-1c-0.2,0-0.4-0.1-0.5-0.1l0,0c-0.6-0.1-1.2-0.3-1.8-0.3
		s-1.2,0-1.7,0c-0.9,0.2-1.8,0.3-2.7,0.6c-0.2,0.1-0.4-0.2-0.5-0.3c0.6-0.4,1.5-0.5,2.2-0.7c0.6-0.1,1.2-0.3,1.8-0.2h-0.1
		c1.2-0.2,2.3-0.1,3.5-0.2c-0.1-0.5-0.6-0.7-1-0.9c-1.4-0.1-2.7,0.3-4,0.7c-0.8,0.4-1.5,0.7-2.3,1.1c-0.2,0.2-0.6-0.2-0.4-0.4
		c0.9-0.7,1.9-1.4,2.9-1.9l0,0c1.1-0.6,2.2-1.2,3.4-1.9c-0.3-0.4-0.8-0.3-1.2-0.2c-2,1-3.8,2.4-5.3,4c-0.6-0.5-1.2-1-1.8-1.5
		c-0.3-0.1-0.5-0.2-0.7-0.4c0-0.5-0.1-1.1-0.1-1.6c-0.4-1.9-1.1-3.8-2.2-5.4C180.4,44.1,180.6,43.9,180.8,43.8z M169.2,42.5
		c0.1-0.3,0.3-0.5,0.4-0.7c0,0.7,0,1.3,0,2h0.1c0.1,1.1,0.3,2.2,0.9,3.1c0.1-0.7,0.1-1.3,0.1-2c0-1,0-1.9,0.1-2.9
		c0-0.1,0.1-0.3,0.2-0.4c0.1,0.4,0.2,0.8,0.2,1.2v-0.1c0.3,1.2,0.6,2.5,1.1,3.6c0.1,0.1,0.2,0.3,0.3,0.4c0.1-0.8,0-1.6,0-2.3
		c-0.2-0.7-0.1-1.4-0.2-2.1c0.9,1.1,1.2,2.6,1.8,3.9c0.2,0.4,0.3,0.9,0.7,1.2c0.1-0.8-0.1-1.5-0.2-2.3c-0.2-0.6-0.4-1.2-0.5-1.9
		c0.3,0.4,0.5,0.8,0.7,1.3c0.2,0.1,0.2,0.3,0.3,0.5c0.7,1.5,1.2,3,1.9,4.5c0,0.1,0.1,0.2,0.2,0.3c0-1.4-0.4-2.8-0.8-4.2
		c0.2,0.1,0.3,0.4,0.4,0.6c0.7,1.5,1.4,3.1,1.8,4.8c-0.5-0.1-1,0.1-1.5,0.4c-0.4-1.5-1.5-2.7-2.8-3.4c-1.2-0.6-2.6-0.6-3.9-0.4
		c-0.5,0.1-1,0.3-1.6,0.3C168.6,46.1,168.7,44.2,169.2,42.5z M168.8,48.6c1.7-0.8,3.7-1,5.4-0.2c1.3,0.6,2.1,1.8,2.6,3.1
		c0.7,1.8,0.5,3.9,0.3,5.8c-0.2,2.4-1.1,4.7-2.3,6.7c0,0.1-0.1,0.2-0.2,0.3c-0.3,0-0.6,0.1-0.9,0.1c-1.7,0.2-3.4,0.2-5.1,0.2
		c-0.3,0.1-0.7,0-1.1,0c-1.9,0-3.8,0-5.7-0.3c-0.4-2.9,0.1-5.8,1.1-8.5c0.3-0.7,0.5-1.4,0.9-2C164.8,51.7,166.5,49.6,168.8,48.6z
		 M157.4,53.8c0.6-1.1,1.3-2.1,2.1-3c0.4-0.5,0.8-1.1,1.4-1.4c1.7-1.4,4-2.3,6.2-1.8c0.5,0.1,1,0.2,1.3,0.6c-0.1,0-0.2,0.1-0.3,0.1
		c-0.7,0.5-1.4,0.9-2,1.5c-1.9,1.7-3.1,4.1-3.9,6.5c-0.5,1.5-1,3-1.1,4.6c-0.1,1.1,0,2.2,0.1,3.3c-1.1-0.1-2.1-0.2-3.1-0.4
		c-0.9-0.1-1.9-0.3-2.7-0.7c-0.1-0.9-0.2-1.8,0-2.7C155.6,58.1,156.3,55.8,157.4,53.8C157.3,54,157.4,53.9,157.4,53.8L157.4,53.8z
		 M156.1,63.9c0.8,0.2,1.5,0.4,2.3,0.6c0.3,0.1,0.6,0.3,0.9,0.4c0.6,0.2,1.3,0.2,2,0.1c0.1,0.3,0.2,0.5,0.2,0.8
		c-1-0.2-2-0.1-2.8,0.5c-0.3,0.2-0.4,0.4-0.7,0.6c-0.5-0.1-0.9-0.5-1.3-0.8c-0.7-0.6-1.2-1.4-1.4-2.2
		C155.6,63.7,155.9,63.9,156.1,63.9z M162.4,67.1c-0.1,0.1-0.2,0.3-0.4,0.3c-0.7,0.1-1.4-0.1-2.1-0.3c0-0.1,0-0.2-0.1-0.3
		C160.6,66.6,161.6,66.6,162.4,67.1z M158.3,67.9c0.4,0.1,0.8,0.2,1.2,0.4c1,0.6,2.3,0.4,3.4,0.1c0.3-0.1,0.5-0.3,0.7-0.6
		c0,0.3-0.2,0.6-0.4,0.9c-0.9,0.6-2.1,0.7-3.1,0.5c-0.7-0.2-1.5-0.4-1.8-1.1L158.3,67.9z M163,66.4c-0.2-0.2-0.5-0.2-0.7-0.4
		c-0.2-0.3-0.2-0.6-0.3-0.9c1.2,0.1,2.4,0.1,3.6,0.1c0.2,0,0.4,0.1,0.5,0.2c1,0.5,2.1,0.6,3.1,0.2c0.4-0.1,0.7-0.4,1.1-0.4
		c1.3,0,2.5-0.1,3.7-0.2c0,0.3-0.2,0.5-0.4,0.7c-1.6,1.6-3.9,2.4-6.1,2.4C165.9,68,164.2,67.4,163,66.4z M168.4,43.5
		c0,0.1,0,0.3,0,0.4l0,0c-0.2,1.1-0.2,2.2-0.2,3.3c-0.2-0.2-0.4-0.5-0.6-0.8c-0.7-1.1-1.7-2.1-2.6-3c-0.6-0.4-1.1-0.9-1.7-1.3
		c-0.4-0.2-0.8-0.4-1.2-0.7C164.3,41.6,166.6,42.2,168.4,43.5z M157.9,43.6c0.2,0.1,0.2,0.4,0.3,0.6c0.4,1.2,0.9,2.4,1.7,3.5
		c0.2,0.2,0.3,0.4,0.6,0.6c-0.1-0.6-0.3-1.2-0.4-1.7c-0.1-0.2-0.2-0.4-0.2-0.7c-0.2-0.6-0.4-1.3-0.5-1.9c0.4,0.6,0.7,1.2,1.1,1.8
		c0.3,0.4,0.6,0.8,1,1.2c0-0.2,0-0.4,0-0.7c-0.3-1.1-0.9-2.1-1.1-3.3c0.8,0.8,1.3,1.7,2.1,2.5c0.3,0.3,0.5,0.6,0.9,0.7
		c-0.4-1.2-1.1-2.3-1.6-3.4c1.1,0.7,2,1.8,2.9,2.8l0,0c0.3,0.3,0.7,0.6,1,0.8c-0.4-1.3-1.4-2.3-2.1-3.4c1.1,0.8,2.2,1.7,3,2.8
		c0.4,0.4,0.7,0.9,1.1,1.4c-0.4-0.1-0.8-0.1-1.1-0.2c-1,0-1.9,0-2.8,0.3c-0.8,0.2-1.4,0.7-2.2,1.1c-0.4,0.4-0.9,0.8-1.4,1.1
		c-0.3-0.2-0.4-0.5-0.5-0.8C158.7,47,157.9,45.4,157.9,43.6z M158.1,51c0.5-0.4,0.9-0.9,1.4-1.1c-0.3,0.5-0.8,0.9-1.2,1.4
		c-0.4,0.6-0.9,1.2-1.3,1.9c-0.1,0.2-0.2,0.4-0.3,0.5c-0.7,1.4-1.3,2.8-1.7,4.3c-0.1,0.6-0.2,1.1-0.4,1.7c-0.3-0.3-0.6-0.7-1.1-0.8
		c-0.4-0.1-0.8,0-1.3,0c0.1-0.2,0.2-0.3,0.3-0.5c0.2-0.5,0.4-1,0.8-1.4c-0.1,0.3-0.1,0.7-0.1,1.1c0.4-0.1,0.6-0.5,0.9-0.8
		c0.2-0.3,0.3-0.7,0.5-1c0.3-0.9,0.8-1.6,1.2-2.4c-0.4,0.2-0.6,0.6-1,0.9C155.8,53.3,156.9,52,158.1,51z M155.5,52.2
		c0.2,0,0.2,0.3,0.1,0.4c-1.1,1.2-2,2.5-2.8,3.9c-0.4-1.3-0.8-2.6-1.1-4C153,52.1,154.3,52,155.5,52.2z M151.5,51.6
		c0-0.3-0.2-0.6-0.1-0.9c1.7-0.2,3.7-0.3,5.2,0.8c-0.2,0.2-0.3,0.3-0.5,0.5C154.6,51.4,153,51.3,151.5,51.6z M157,50.5
		c0.5,0.2,0,0.9-0.4,0.8c-0.3-0.1-0.5-0.4-0.8-0.5c-1.5-0.7-3.1-1.2-4.7-1c-0.1-0.4-0.2-0.6-0.2-1C153,49,155.3,49.1,157,50.5z
		 M137.4,62c0.2-0.6,0.5-1.2,0.7-1.8c-0.1-0.5-0.3-1.1-0.4-1.6c0-0.7,0.2-1.4,0.2-2.1c-0.1-0.3-0.2-0.6-0.3-0.9
		c0-0.6,0.2-1.1,0.2-1.7c0-0.4-0.1-0.9-0.1-1.3c0.2-0.3,0.3-0.7,0.4-1c-0.1-0.4-0.2-0.8-0.3-1.3c0.6,0,1.2-0.1,1.7-0.3
		c0.2,0.4,0.5,0.8,0.8,1.2c0.7,0.9,1.9,1.4,3,1.5c0.1,0.2,0.2,0.5,0.4,0.7c-0.2,0.7-0.4,1.5-0.6,2.2c0.2,0.3,0.4,0.7,0.6,1
		c-0.3,0.8-0.2,1.6-0.1,2.4c0.1,0.4-0.2,0.8-0.3,1.2c0.2,0.5,0.5,0.9,0.7,1.4c0,0.6-0.3,1.2-0.3,1.8c0,0.7,0.2,1.3,0.2,1.9
		c0,0.5-0.4,1-0.2,1.4c0.4,0.9,0.7,1.8,1.2,2.7c0.1,0.3,0.1,0.5,0.2,0.8c-0.7,0.6-1.1,1.4-1.2,2.3c-0.3-0.9-0.9-1.8-1.7-2.4
		c-0.6-0.6-1.5-0.7-2.3-0.7c-0.1,0-0.2-0.1-0.2-0.1c-0.7-0.4-1.5-0.7-2.4-0.6c0-0.5,0-1,0.1-1.5c0.1-0.7-0.1-1.4-0.1-2.1
		c0.1-0.7,0.5-1.4,0.6-2.1C137.8,62.9,137.5,62.5,137.4,62z M147.2,64c0.6,2.5,1.3,5.1,2,7.6c-0.2-0.2-0.4-0.5-0.6-0.7
		c-0.4-0.4-1-0.5-1.3-1c-0.6-0.7-1.4-1.2-2.3-1.4c0.1-0.8,0-1.6,0.2-2.4c0.1-0.4,0.2-0.8,0.2-1.1c-0.1-0.3-0.4-0.6-0.5-0.9
		c0-0.6,0.2-1.2,0.2-1.8c0-0.4-0.2-0.7-0.3-1c0.2-0.6,0.5-1.1,0.6-1.7c0-0.4-0.2-0.8-0.3-1.2c-0.2-0.5,0-1,0-1.6
		c-0.1-0.4-0.3-0.7-0.4-1.1c0-0.3,0.1-0.6,0.2-0.9c0,0.2,0.1,0.3,0.1,0.5C145.6,58.1,146.3,61.1,147.2,64z M190.9,71
		c0,0.7,0,1.4-0.3,2c-0.4,1-1,2-0.8,3.1c0.1,0.1,0.3,0.2,0.4,0.3c0.2,0.1,0.4,0.1,0.7,0.2c0.4-0.8,0.6-1.7,0.8-2.5
		c0.4-1.3,0.8-1.4,1.9-2.3c1.3-0.9,2.5-1.2,3.5,0c0.5,0.6,0.9,0.7,0.8,1.4c-0.2,0.8-0.7,1.5-1.3,2.1c-0.4,0.4-0.9,0.8-1.2,1.3
		c-0.3,0.4-0.3,0.9-0.4,1.4c-0.1,0.7-0.3,1.6,0.1,1.9c0.3-0.5,1.1,0.7,1.4,0.3c0.4-0.6,1.8-2.2,2.4-2.5c0.8-0.5,1.3-1.1,2.2-0.9
		c0.8,0.2,1.4,0.7,1.5,1.4c0.6,2,0,1.9-0.4,2.6c-0.2,0.5-0.6,0.9-1,1.2c-1.1,0.9-2.4,1.4-3.6,2c0.1,0.2,0.3,0.4,0.3,0.7
		c0.1,1.1,0.1,2.2-0.4,3.2c-0.4,1-1.1,2-2.2,2.5c-0.3,0.1-0.6,0.2-1,0.3c0.2,0.1,0.4,0.1,0.6,0.2c-0.1,0.4-0.2,0.9-0.4,1.3
		c-0.9,2.7-1.8,5.3-3.3,7.7c-0.3,0.5-0.6,1-1,1.3c-0.7,0.6-1.6,1.1-2.5,0.9c-0.7-0.1-1.3-0.5-1.9-0.9c0.6-1,1.5-2.2,1.1-3.4
		c-0.3,0.9-0.8,1.7-1.2,2.5c-1.3,1.7-2.8,3.3-4.5,4.5c-0.9,0.7-2,1.2-3,1.8c-1.1,0.7-2.3,1-3.5,1.4c-1,0.3-2,0.5-3,0.6
		c0-0.8,0.1-1.7-0.1-2.5c-0.5,0.6-0.7,1.3-0.7,2.1c-0.1,1.3,0.4,2.5,0.8,3.6c1,2.5,2.3,4.9,3.2,7.4c1,3,1.1,6.5-0.4,9.4
		c-1.2,2.1-2.9,3.9-5,5.1c-3.2,1.6-6.7,2.8-10.2,3c-1.8,0.1-3.5,0-5.2-0.3c-1.2-0.2-2.5-0.5-3.6-1.1c0.5,0,0.9,0,1.4,0
		c0,0-0.1-0.1-0.2-0.1c-1.4-0.7-2.8-1.3-4.2-2.1c-1-0.5-1.9-1.2-2.7-2.1c1.1,0.6,2.3,1.2,3.5,1.6c1,0.3,2.1,0.6,3.1,0.7
		c-1.6-0.9-3.2-1.8-4.7-2.8c-0.9-0.5-1.7-1.1-2.5-1.7c1.1,0.3,2.2,0.7,3.3,1.1c1.4,0.4,2.7,0.9,4.1,0.9c-1.5-0.9-3.1-1.7-4.6-2.6
		c-1-0.6-1.9-1.1-2.9-1.7c0.7,0,1.3,0.2,2,0.3c2.1,0.4,4.1,1,6.3,1.2c-1.8-1.2-3.9-1.9-6-2.7c-0.4-0.1-0.8-0.3-1.2-0.5
		c0.8-0.1,1.5,0,2.3,0c2.2,0.1,4.4,0.5,6.7,0.8c0.1,0,0.3,0,0.4,0c-1.8-1.3-4-1.9-6.1-2.4c-0.6-0.1-1.2-0.2-1.8-0.4
		c0.2,0,0.5-0.1,0.7-0.1c2-0.2,4,0,6,0.3c0.7,0.1,1.3,0.2,2,0.4l0.1-0.1c-1.4-0.9-2.9-1.4-4.5-1.8c-0.3-0.1-0.7-0.1-0.9-0.3
		c2.2-0.2,4.3,0.7,6.4,1.4h0.1c-0.1-0.1-0.2-0.3-0.3-0.4c1.1,0.2,2.2,0.6,3.3,0.6c1.8,0,3.6-0.9,4.6-2.4c0.7-1.3,0.8-2.8,0.6-4.2
		c-0.3-2.4-1.4-4.6-1.7-7c-0.1-1,0.3-1.9,0.6-2.9h-0.1c-0.3,0.2-0.5,0.5-0.7,0.8c-0.1,0.3-0.1,0.6-0.4,0.8c-0.3-0.9,0.1-1.8,0.4-2.6
		c-0.2,0.2-0.4,0.3-0.5,0.5c-0.2,0.4-0.3,0.8-0.4,1.2c-1.9-0.1-3.9-0.5-5.7-1.2c-1.8-0.8-3.5-1.8-4.9-3.2c-1.7-1.6-2.7-3.8-3.3-6
		c-0.2-0.7-0.3-1.5-0.4-2.3c0,0.1-0.1,0.2-0.1,0.3c-0.3,1.7,0.4,3.3,1,4.9c0,0.2-0.1,0.5-0.2,0.7c-0.3,0.7-0.9,1.3-1.7,1.4
		s-1.5-0.2-2.1-0.7c-0.5-0.5-1-1.1-1.4-1.8c-2-3.3-2.7-7.1-3.4-10.9c-0.1-0.2-0.1-0.5-0.3-0.6c-0.5-0.5-1-0.9-1.4-1.4
		c-0.5-0.6-0.8-1.4-0.9-2.2c-0.1-0.8-0.2-1.5-0.2-2.3c-1.5-0.5-3.1-1.1-4.2-2.3c-0.1-0.1-0.3-0.3-0.4-0.4c-0.2-0.3-0.2-0.4-0.4-0.9
		c-0.3-1.6,0.5-2.6,2.1-2.7c0.6,0,0.7,0,1.8,0c0.6,0.1,1.1,0.6,1.2,0.7c0.8,0.6,1.1,0.9,1.5,1.8c0.1,0.2,0.5,1,0.6,1.2
		c0.3-0.1,0.7-0.2,1-0.4c-0.1-0.7-0.7-2.1-1.1-2.7c-0.4-0.5-0.8-1.1-1.1-1.7c-0.6-1.1-0.4-2.6,0.4-3.6c0.6-0.8,1.8-1.1,2.7-0.7
		c0.1,0,0.2,0.1,0.4,0.2c0.1,0.1,0.2,0.2,0.3,0.2c0.6,0.4,1,1,1.2,1.7c0.7,1.4,0.9,3.7,1.1,5.3c0.3,0,0.7,0,1,0.1
		c0-0.1-0.1-1-0.1-1.1c0-0.5-0.1-1-0.1-1.5c-0.2-1-0.5-1.9-0.4-2.9c0.1-0.5,0.3-1.1,0.8-1.4c0.7-0.4,1.5-0.3,2.2-0.1
		c0.6,0.2,1,0.8,1.3,1.4c0.4,0.7,0.5,1.5,0.5,2.3c0,1.7-0.9,3.3-1,5c-0.1,0.6,0,1.3,0,1.9l-0.2,0.1c-0.8,0.3-1.5,0.9-2.1,1.5
		c-0.7,0.9-1.2,2-1.6,3c-0.2,0.5-0.6,0.8-0.8,1.2c-0.4,0.7-0.8,1.6-0.7,2.5h0.1l0,0c0.1-0.5,0.2-0.9,0.4-1.4
		c0.1-0.4,0.3-0.8,0.6-1.1c-0.1,1-0.3,2-0.1,3c0.2,0.3,0.3,0.6,0.5,0.8c-0.2-1.2-0.1-2.4,0.2-3.6c0,0.5,0,0.9,0.1,1.4
		c0.1,0,0.2-0.1,0.2-0.1c0.6-1,0.5-2.2,0.7-3.3c-0.2,0.3-0.5,0.6-0.7,0.9c0.1-0.5,0.2-1.1,0.5-1.5c0.5-1.2,1.4-2.2,2.6-2.7
		c0.7-0.2,1.7-0.2,2.2,0.3c1.2,1.1,1.3,2.5,1.5,4.1c0,0.2,0.1,0.4,0.1,0.7V87c0,0,0.1,0,0.1,0.1c0.1-0.9,0.2-1.8,0-2.7
		c-0.1-0.5-0.2-0.9-0.3-1.4c0-0.3,0.2-0.6,0.3-0.9c0.1-0.4,0.4-0.7,0.5-1.2c-0.2-1.1-0.5-2.1-0.8-3.2c-0.7-2.4-1.2-4.8-1.9-7.2
		c-0.3-1-0.6-2-0.9-3.1c-1.2-4.8-2.5-9.5-3.8-14.3c-0.1-0.3-0.2-0.6-0.2-1c0-0.3,0-0.5,0-0.8c-0.8,0.1-1.6,0.3-2.4,0
		c-1.2-0.3-1.9-1.5-2.5-2.6c-0.4,0.1-0.7,0.3-1.1,0.3c-1.5,0.3-3.2-0.1-4.2-1.2c-0.7-0.8-1.4-1.8-1.2-2.9c0.4-1.4,1.8-1.4,3.2-1
		c0.7,0.2,1.3,0.6,1.9,1c0.4,0.3,0.7,0.3,1.1,0.5c0.3-0.9,0.8-2.3,1.1-3.2c-0.1-0.1-0.2-0.1-0.4-0.2c-0.4-0.1-0.7-0.3-1-0.4
		c-0.8-0.4-1.7-0.7-2.4-1.3c-0.7-0.5-1.4-1.2-1.5-2.1c-0.2-1.1,0.4-2.2,1.3-2.7c0.8-0.6,1.9-0.6,2.8-0.2c0.2,0.1,0.5,0.2,0.7,0.4
		c1.3,0.9,2.2,2.3,2.8,3.7c0.1,0,0.2,0,0.3,0c0.5-0.6,1-1.1,1.7-1.4c-0.5-0.9-1.4-1.4-2-2.2c-0.5-0.5-0.8-1.2-0.9-1.9
		c-0.2-1.8,1.8-3.3,3.4-2.9h0.2c0.8,0.1,1.5,0.6,1.9,1.3c1,1.9,0.7,4.1,1.1,6.1c0.1,0.5,0.3,1.1,0.7,1.5c0.2,0.2,0.5,0.3,0.8,0.5
		c0.3-0.4,0.1-0.9,0-1.3c-0.2-0.7-0.4-1.4-0.2-2.1c0.1-0.6,0.7-1.1,1.3-1.4c0.8-0.3,1.7,0,2.3,0.5c2.1,1.4,1.7,5.1-0.6,6
		c-0.2-0.1-0.4-0.1-0.5-0.2c0.4,1.6,0.3,3.5-0.8,4.7c-0.4,0.6-2,1.5-2.6,1.8c0.1,0,1.4,0.3,1.5,0.4c0,0.4,0.1,0.8,0.1,1.2
		c-1,0.1-2.6,0.7-3,1.1c0.9-0.2,2.5-0.2,3.2-0.2c0.1,0.3,0.1,0.6,0.2,0.9c-0.9,0.1-2.6,0.4-3,1.1c0.1,0,0.9-0.2,1-0.2
		c0.6-0.2,1.6-0.1,2.2,0c0.3,1.2,0.6,1.7,1,2.8c0.1,0.4,0.5,0.9,0.2,1.3c-0.3,0.4-0.6,0.9-0.8,1.3c-0.2,0.5-0.6,0.7-1,1
		c-1.1,1-1.3,2.9-0.4,4.2c0.1,0.7-0.1,1.4,0,2c0,1.3,0.1,2.7,0.6,3.9c0.4,0.8,0.5,1.6,0.9,2.4c1.4,2.2,3.7,3.7,6.3,4.1
		c0.8,0.1,1.6,0,2.4,0c0.1,0.1,0.1,0.2,0.2,0.3c0.3,0.6,0.8,1.2,1.5,1.3c-0.3-0.6-0.9-1-1.1-1.6c0.7,0.3,1.3,0.8,2.1,0.9
		c-0.5-0.6-1.2-1.1-1.8-1.5c-1-0.8-2-1.6-2.9-2.5c0,0,0,0.1,0,0.2c0.4,1,1.4,1.6,2,2.5c-0.8,0.1-1.6,0-2.4-0.1
		c-0.6-0.1-1.3-0.3-1.9-0.6c0.2,0,0.5-0.1,0.7-0.1c-0.4-0.8-1.2-1.2-1.9-1.7c-0.9-0.6-1.6-1.5-2.5-2.2c0.2,1,1,1.7,1.6,2.6
		c-1.4-1-2.2-2.6-2.7-4.3c0.2,0.2,0.4,0.4,0.6,0.6c0.1-0.3,0.2-0.7,0.2-1.1c-0.1-1.3-0.6-2.5-0.7-3.8l-0.1-0.1
		c-0.2,0.7-0.2,1.5-0.3,2.3c-0.2-1-0.1-2-0.1-2.9c0.5,0,0.9,0,1.4-0.1l0.1-0.1c-0.7,0-1.4-0.1-1.9-0.7c-0.7-1.1-0.6-2.7,0.4-3.6
		c0.7-0.6,1.6-0.9,2.5-0.8c0.6,0.3,1.2,0.8,1.1,1.5c0,0.7,0,1.3,0,2c0.1,1,0.3,2.9,0.9,3.8c0.4,0.4,0.7,0.8,1.2,1.1
		c0.3,0.2,0.6,0.3,1,0.4l0.1,0.4c0.3,0.7,0.4,1,1,1.3c0.2,0.1,0.6,0,0.5,0.1c-0.5,0.2-0.9,0.6-1.3,0.9c-0.3,0.3-0.5,0.6-0.7,0.9
		c-1.6-0.8-3-2.2-3.7-3.8c-0.5-1.1-0.8-2.4-0.6-3.6c0.1-0.7,0.3-1.4,0.5-2.1c-0.2,0.3-0.3,0.8-0.7,1c-0.2-0.3-0.1-0.7,0-1
		c0,0,0-0.1,0-0.2c-0.2,0.3-0.5,0.6-0.4,0.9c0,0.2,0.2,0.4,0.3,0.6c0,0.6-0.2,1.2-0.2,1.7c0,0.8,0.1,1.6,0.4,2.4
		c0.7,1.8,2,3.4,3.7,4.3c0.2,0.1,0.5,0.1,0.8,0.2c0.7-0.9,1.6-1.2,2.7-1.8c1,1.1,2.2,1.5,3.6,2.1c3.1,1.3,6.8,1.5,10,0.3
		c1.7-0.6,3-2,3.8-3.6c0.6-1.5,1-3.1,0.6-4.7c0-0.2-0.1-0.4-0.2-0.6c0.2-0.2,0.5-0.3,0.6-0.6c0.1-0.4-0.2-0.8-0.4-1.1
		c0.1,0.4,0.3,0.9-0.1,1.2c-0.2-0.1-0.3-0.1-0.5,0c-0.1-0.1-0.2-0.2-0.3-0.2c0.7,1.7,0.5,3.6-0.2,5.3c-0.2,0.5-0.4,1-0.7,1.5
		c-0.7,0.9-1.6,1.7-2.7,2.1c-2.3,1-5,1.1-7.5,0.6c-2.1-0.5-4-0.8-5.5-2.4c1,0,2.2,0.3,3-0.9c0.1-0.2,0-0.6,0.1-0.8c0,0,0,0,0-0.1
		c0-0.3,0-0.2,0-0.4c1.7,1,4.2,1.5,6.2,1c1.8-0.4,3.6-1.7,4.8-3.2c1.4-1.7,1.7-4.2,2.4-6.3c1.1-0.4,2.4-0.2,3.3,0.5
		c0.7,0.7,1.2,1.6,1.2,2.6c0,0.6-0.1,1.3-0.5,1.8c-0.6,0.7-1.5,1-2.4,0.8c0.4,0.2,0.8,0.3,1.3,0.3c-0.3,0.5-0.8,0.4-1.3,0.6
		c0.4,0,0.8,0.2,1.1-0.1c0.3-0.3,0.5-0.6,0.8-0.7c0.9-0.5,1.5-1.5,1.5-2.5c0.1-1.2-0.5-2.3-1.3-3.1c-1-0.9-2.4-1-3.6-0.7
		c0.4-2.4,0.8-3.8,0.2-6.2c-0.1-0.5,0.4-0.6,0.7-0.7c0.3-0.1,0.6-0.2,1.1,0.2c0-0.9-0.4-2.5-0.7-3.4c-0.9-2.7-0.9-3-2.5-5.6
		c-0.3-0.3-0.7-1.2-1-1.5c2.5,1.4,3.6,1.9,5,4.2c1.1,1.8,1.8,3.2,2.1,5.3c0.1,0.2,0,0.5,0.1,0.9c0,0.3,0.3,0.2,0.3,0
		c0,0.1,0.1,0.2,0.1,0.3s0.1,0.2,0.1,0.2c0.2,0.4,0.5,0.8,0.8,1.2c0.8,0.7,1.4,1.6,1.9,2.5c0.3,0.5,0.6,1,1,1.4c0,0,0-0.1,0-0.2
		c-0.2-1.6-0.7-1.8-1.6-3c1.2,1.1,1.5,1.5,2,3c0,0,0,0.1,0.1,0.2c0.3,0.8,0.5,1.7,0.5,2.6c-0.1-0.2-0.2-0.5-0.4-0.7
		c-0.1-0.2-0.2-0.4-0.4-0.7c-0.2,0.2-0.3,0.4-0.3,0.6c-0.1,1.1,0.2,2.2,0,3.2c-0.1,0.9-0.1,1.7-0.1,2.6c0,0.4,0,0.9,0,1.3
		c0.1-0.1,0.2-0.3,0.3-0.4c0.6-1.2,0.7-2.6,0.9-3.9c0.2,1.4-0.3,2.8-0.5,4.2c-0.1,0.6-0.3,1.2-0.5,1.7c-0.4,1.1-0.9,2.2-1.6,3.2
		c-1.1,1.7-2.7,3-4.6,3.7c0.3-0.3,0.7-0.6,0.8-1c-0.2,0-0.5-0.1-0.7-0.1c-0.3,0.1-0.5,0.1-0.8,0.2c-1.3,0.5-2.7,0.7-4.1,0.9
		c-0.5,0.1-0.9,0.1-1.4,0.2c1.2,0.7,2.6,0.5,3.9,0.5c-2.3,0.5-4.7,0-7-0.7c0.2,0.3,0.5,0.5,0.8,0.6c0,0.1,0,0.2,0.1,0.2
		c-0.6-0.1-1.2-0.5-1.7-0.8c0.4,0.6,1.1,1,1.8,1.2c0.5,0.1,1-0.1,1.5,0.1c1.6,0.4,3.4,0.4,5,0.1c1.6-0.4,3.2-1.1,4.5-2.1
		c-0.6,1.7-1.5,3.4-2,5.2c0,1,0.6,1.8,0.9,2.7c0.2,0.5,0.7,1.1,0.3,1.6c-0.6,0.8-0.9,1.7-1.2,2.7c-0.2,0.9-0.4,2.1,0.2,2.9
		c0-0.2,0-0.4,0.1-0.7c0.1-1.6,0.4-3.2,1.4-4.5c0,0,0.1-0.1,0.1-0.2c0.4,0.1,0.8-0.2,1.2-0.4c0.7-0.3,1.4-0.5,2.2-0.6
		c-0.4-0.2-0.9-0.3-1.3-0.4c1.2-0.2,2.2,0.5,2.8,1.5c-0.3-0.2-0.6-0.5-0.9-0.7c-0.1,0.1-0.1,0.2-0.2,0.2c0.6,1,1.1,2,1.6,3
		c0.1-0.4,0-0.9,0-1.3c0.4,1.1,0.6,2.3,0.5,3.4c-0.1-0.2-0.2-0.4-0.4-0.6l-0.1,0.1c-0.2,0.8,0.1,1.6,0.1,2.5c0,0.1,0,0.2,0,0.3
		c0.1-0.2,0.2-0.5,0.3-0.7c0.1,0.6,0.1,1.2,0.1,1.8c0.4-0.9,0.4-2,0.5-2.9c0.1-0.8-0.1-1.6-0.1-2.4c0.7,1,0.6,2.3,0.6,3.5
		c0.4-1,0.3-2.1,0-3.1c-0.2-0.6-0.6-1-0.8-1.6c-0.3-1.2-0.9-2.5-2-3.2c-0.1,0-0.2-0.1-0.2-0.2l-0.1-0.1c0-2.2-0.5-4.3-1.1-6.4
		c-0.4-1.3,0.1-1.6,1-2.7c0,0,0.1-0.1,0.1-0.2c0.3-0.4,0.7-0.8,1.2-1.1c0.7-0.5,1.6-0.6,2.4-0.4L190.9,71z M144.3,74.4
		c0.4,0.7,0.3,1.6,0.3,2.4c-0.2-0.2-0.2-0.5-0.2-0.8C144.4,75.5,144.3,75,144.3,74.4z M150,75c0-0.1,0-0.2,0-0.3
		c0.5,2.1,1.2,4.2,1.7,6.3c-0.2,0.5-0.4,0.7-0.6,1.2c-0.7-1-1.5-1.2-2.4-1.1C148.7,78.7,150,77.2,150,75z"/>
	<path d="M183.8,56.5c0.4,0.4,0.7,0.8,1.1,1.2c-0.1-0.5-0.2-0.9-0.4-1.3c-0.4-1.1-1-2.2-2.1-2.7l-0.1,0.1c-0.2,0.3,0,0.6,0.1,1
		C182.9,55.4,183.4,55.9,183.8,56.5z"/>
	<path d="M168.9,83.1c0.3-0.2,0.6-0.5,0.6-0.9c0-0.2,0-0.3,0.1-0.5c0.1-1.4,0-2.8-0.3-4.1c-0.4,1.1-0.6,2.3-0.7,3.5
		c0,0.4,0,0.9,0,1.3C168.7,82.7,168.8,82.9,168.9,83.1z"/>
	<path d="M175,88.8c0.1-1,0.1-2-0.3-2.9h-0.1c-0.5,1.2-0.5,2.5-0.3,3.8C174.7,89.5,174.8,89.1,175,88.8z"/>
	<path d="M162.5,100.8c-0.3,0.6-0.4,1.3-0.4,2c0,0.6-0.1,1.2,0.1,1.8c0.1,0.4,0.4,0.6,0.6,0.9c0.1-0.2,0.2-0.4,0.2-0.6
		c0-0.9-0.1-1.8-0.2-2.6C162.9,101.8,162.9,101.3,162.5,100.8z"/>
	<path d="M161.4,101c-0.5,0.2-0.5,0.7-0.6,1.1c-0.1,1-0.2,2.2,0.4,3.1c0.1,0.1,0.3,0.2,0.4,0.3c0.1-0.7,0-1.4,0-2.2
		C161.5,102.6,161.6,101.8,161.4,101z"/>
	<path d="M167.8,121.8C167.8,121.9,167.9,121.9,167.8,121.8c0.1-0.1,0.2-0.3,0.2-0.4c0.3-1.2,0.3-2.6-0.4-3.7
		c-0.1-0.3-0.4-0.4-0.6-0.6h-0.2c0,0.3,0,0.5,0.1,0.8c0.2,0.7,0.3,1.3,0.5,2C167.6,120.5,167.5,121.2,167.8,121.8z"/>
	<path d="M164.1,126.8c-0.3,0.3-0.7,0.6-0.8,1c1-0.2,1.9-0.7,2.6-1.4c0.5-0.5,1-1.1,1.3-1.8c0-0.2,0.1-0.4,0.1-0.6
		c-0.2-0.1-0.3-0.3-0.5-0.3c-0.2,0.1-0.4,0.3-0.5,0.5C165.7,125.2,164.9,126.1,164.1,126.8z"/>
	<path d="M168.2,125.9c0.3-0.6,0.7-1.3,0.4-2c-0.2,0-0.4,0.1-0.6,0.1c-0.5,1-1,2-1.8,2.8c-0.4,0.4-0.7,0.7-1.2,1
		c-0.5,0.4-1.2,0.5-1.7,0.9c-0.1,0.1-0.2,0.2-0.2,0.3c1,0,1.9-0.3,2.8-0.8S167.6,126.9,168.2,125.9z"/>
	<path d="M159.2,126.9c0.4-0.2,0.9-0.4,0.9-0.9H160c-0.5,0-1,0-1.5,0.1c-0.8,0.2-1.6,0.3-2.4,0.5c0,0.1,0,0.2,0,0.2
		C157.1,127.2,158.2,127.2,159.2,126.9z"/>
	<path d="M182,56.1c0.4,0.6,1,1.1,1.6,1.6c0-0.1,0-0.3-0.1-0.4c-0.1-0.2-0.2-0.4-0.2-0.5s-0.1-0.2-0.1-0.3c-0.3-0.6-0.6-1.2-1.2-1.5
		h-0.2C181.8,55.3,181.7,55.7,182,56.1z"/>
	<path d="M180.8,69.9c0.9-0.5,1.5-1.4,1.6-2.4c-0.4,0.2-0.8,0.4-1.1,0.7c-0.4,0.5-0.7,1.2-1,1.9C180.5,70,180.7,69.9,180.8,69.9z"/>
	<path d="M158.9,78.7c-0.2-0.2-0.2,0.1-0.3,0.2c-0.1,0.2-0.1,0.3-0.1,0.5c-0.2,0.5,0,1.1,0.3,1.5C159.3,80.3,159,79.4,158.9,78.7z"
		/>
	<path d="M155,56.1c-0.2,0.5-0.5,0.9-0.5,1.5c0.2-0.2,0.5-0.3,0.7-0.5c0.2-0.4,0.3-0.9,0.4-1.4C155.3,55.7,155.1,55.9,155,56.1z"/>
	<path d="M178.4,93.9c-0.2,0.8-0.2,1.7,0,2.6c0,0.2,0.1,0.3,0.2,0.5c0,0,0.1-0.1,0.1-0.2c0.6-1,0.3-2.1,0-3.1
		C178.5,93.7,178.4,93.8,178.4,93.9z"/>
	<path d="M154.5,101.5c-0.1-0.2-0.2-0.5-0.3-0.7c-0.3,0.8-0.3,1.7,0,2.5c0.1,0.1,0.1,0.2,0.2,0.4c0,0,0.1,0,0.2,0v-0.1
		C154.5,102.9,154.5,102.2,154.5,101.5z"/>
	<path d="M181.3,55.9c0,0.7,0.5,1.2,1,1.6C182.3,56.9,182,56.2,181.3,55.9z"/>
	<path d="M153.4,60.4c0-0.2,0-0.3,0-0.5c-0.2,0-0.3,0-0.5,0.1c0.1,0.1,0.1,0.3,0.2,0.4C153.2,60.4,153.4,60.4,153.4,60.4z"/>
	<path d="M178.3,60.4c-0.1,0-0.2,0-0.2,0c0.1,0.2,0.1,0.4,0.2,0.6c0.2-0.2,0.3-0.4,0.4-0.6C178.6,60.4,178.4,60.4,178.3,60.4z"/>
	<path d="M151.7,61.2c0.1-0.2,0.1-0.5,0.2-0.7c-0.2,0-0.3,0.1-0.5,0.2C151.5,60.8,151.6,61,151.7,61.2z"/>
	<path d="M180.3,61.2c-0.2,0-0.3-0.1-0.5-0.1c0,0.2,0,0.4,0.1,0.6C180.2,61.8,180.2,61.4,180.3,61.2z"/>
	<path d="M147.3,84.9c0.1,0.2,0.3,0.1,0.5,0.1c0.2-0.2,0.3-0.3,0.5-0.5v-0.1c-0.1,0-0.2,0-0.2,0C147.7,84.4,147.4,84.6,147.3,84.9z"
		/>
	<path d="M183.7,85.2c0,0.1,0,0.2,0,0.2c0.5-0.1,1-0.2,1.3-0.6C184.5,84.7,184,84.9,183.7,85.2z"/>
	<path d="M149.6,85.5l-0.1,0.1c0.1,0.4,0.3,0.7,0.5,1l0.1-0.1c0-0.2,0-0.4,0-0.6C149.9,85.8,149.8,85.5,149.6,85.5z"/>
	<path d="M186.4,86.1c0,0.1,0,0.3,0,0.4c0.1,0.2,0.2,0.4,0.3,0.5s0.2,0.2,0.2,0.2C187,86.8,186.8,86.3,186.4,86.1z"/>
	<path d="M187,90.6c0,0.4,0.1,0.7,0.2,1.1c0.1-0.1,0.1-0.2,0.2-0.3C187.3,91.1,187.4,90.7,187,90.6z"/>
	<path d="M180.9,95.7c0.3-0.5,0.1-1.1,0-1.6c-0.4,0.3-0.3,0.8-0.3,1.2C180.7,95.5,180.7,95.8,180.9,95.7z"/>
	<path d="M185,64.5c0,0.4,0,0.8,0.1,1.2c0.3-0.4,0.4-0.9,0.6-1.3c0-0.2,0.1-0.4,0.1-0.6c0.2-1.1,0.2-2.3-0.5-3.2c0,0-0.1,0-0.2,0
		c-0.1,0.4-0.2,0.7-0.3,1.1C184.9,62.7,185,63.6,185,64.5z"/>
	<path d="M166.2,83c0.2-0.3,0.4-0.6,0.5-1c0-1.5,0.1-3,0-4.5c-0.4,0.6-0.5,1.3-0.7,2c-0.2,0.8-0.3,1.6-0.1,2.4
		C165.9,82.3,166,82.7,166.2,83z"/>
	<path d="M168.5,90.9c0.5-0.3,0.8-0.9,0.8-1.4c0-1.4,0-2.8-0.3-4.2c-0.1-0.3-0.2-0.5-0.3-0.8c-0.1,0.2-0.2,0.4-0.2,0.7
		c-0.1,0.8-0.2,1.6-0.2,2.4c0,0.1,0,0.2,0,0.2C168.1,88.8,168.1,89.9,168.5,90.9z"/>
	<path d="M164.4,97.8c0.2-0.8,0.2-1.5,0.2-2.3c0-1.3,0-2.6-0.2-3.8c-0.1,0.2-0.2,0.4-0.3,0.5c-0.2,0.9-0.4,1.7-0.5,2.6
		c0,0.8-0.2,1.6,0.1,2.3c0.1,0.4,0.3,0.7,0.6,1C164.3,98,164.3,97.9,164.4,97.8z"/>
	<path d="M168.8,98.9c0.3-0.5,0.6-1.1,0.4-1.7c-0.1-1.2-0.2-2.5-0.3-3.8c-0.1-0.5-0.2-1-0.2-1.5c0,0.1-0.1,0.1-0.1,0.2
		c-0.5,1.6-0.5,3.3-0.5,5C168.2,97.8,168.4,98.4,168.8,98.9z"/>
	<path d="M170.2,93.3c-0.1-0.3-0.2-0.7-0.4-1c-0.1,0.3-0.1,0.5-0.1,0.8c0,1.2-0.1,2.3-0.1,3.5c0,0.7,0.2,1.3,0.5,2
		c0,0,0.1-0.1,0.1-0.2c0.2-0.4,0.5-0.7,0.5-1.1C170.7,96,170.6,94.6,170.2,93.3z"/>
	<path d="M171.8,93.5c-0.1-0.3-0.2-0.6-0.4-0.8c-0.1,0.5-0.2,1-0.2,1.5c0,1.1-0.2,2.1,0.1,3.2c0.1,0.3,0.2,0.6,0.5,0.7
		c0.1-0.5,0.5-1,0.5-1.5l0,0C172.1,95.6,172.1,94.5,171.8,93.5z"/>
	<path d="M173.1,98c0.2-0.4,0.4-0.8,0.5-1.2c0.1-1.3-0.2-2.7-0.7-3.9c-0.3,0.4-0.2,0.8-0.3,1.3c0,1.1-0.1,2.3,0.2,3.4
		C172.9,97.7,173,98,173.1,98z"/>
	<path d="M174.7,97.4c0.5-1.4,0.2-3-0.4-4.4c-0.2,0.4-0.3,0.7-0.3,1.2c-0.1,1-0.1,2.1,0.2,3.1c0.1,0.2,0.1,0.4,0.2,0.5
		C174.7,97.9,174.7,97.5,174.7,97.4z"/>
	<path d="M164.3,101c-0.1,0-0.2-0.1-0.2-0.2c-0.4,1.1-0.5,2.4-0.4,3.6c0.1,0.7,0.3,1.4,0.8,1.9c0.4-0.9,0.1-1.9,0.1-2.8
		C164.5,102.6,164.6,101.8,164.3,101z"/>
	<path d="M158.4,101.4c-0.1-0.1-0.1-0.4-0.3-0.3c-0.3,0.6-0.3,1.4-0.3,2.1c0,0.6,0.2,1.2,0.6,1.6c0.1-0.4,0.2-0.8,0.2-1.2
		C158.6,102.9,158.7,102.1,158.4,101.4z"/>
	<path d="M169.1,127.1c0.1-0.3,0.4-0.7,0-1c-0.2-0.1-0.4,0-0.6,0.1c-0.9,1.5-2.3,2.6-3.7,3.6l0,0c0.6,0,1.2-0.1,1.7-0.4
		C167.5,128.9,168.5,128.2,169.1,127.1z"/>
	<path d="M184.1,64.9c0.4-0.9,0.7-1.8,0.4-2.8c-0.1-0.3-0.2-0.5-0.4-0.7c0,0.1-0.1,0.3-0.1,0.4c-0.3,0.9-0.1,1.9,0,2.8
		C184,64.8,184,64.8,184.1,64.9z"/>
	<path d="M157.7,87.8c0.1-0.2,0.1-0.4,0.2-0.6c0-0.9,0-1.8-0.3-2.7c-0.5,1-0.7,2.2-0.1,3.2C157.5,87.7,157.6,87.8,157.7,87.8z"/>
	<path d="M168.8,113.1c0-0.4-0.1-0.7-0.2-1.1c-0.1-0.4-0.1-0.8-0.1-1.2c-0.1-0.7,0-1.5-0.4-2.1c-0.1,0.1-0.2,0.3-0.3,0.5
		c-0.2,1.3,0.2,2.6,0.9,3.7C168.6,113,168.7,113.1,168.8,113.1z"/>
	<path d="M183.4,62.8c0-0.1-0.1-0.2-0.2-0.3c-0.4,0.5-0.1,1.1-0.1,1.7c0.1-0.1,0.2-0.2,0.3-0.3C183.4,63.5,183.4,63.2,183.4,62.8z"
		/>
	<path d="M151.6,63c0.2,0,0.2-0.3,0.3-0.5c-0.2,0-0.3,0-0.5,0C151.5,62.7,151.5,62.8,151.6,63z"/>
	<path d="M169.7,104.2c0,0.5,0.2,1,0.4,1.4c0,0,0.1,0.1,0.2,0.1c0,0,0-0.1,0.1-0.2c0.3-0.6,0.2-1.3,0.1-1.9
		c-0.2-1.1-0.1-2.2-0.8-3.2C169.5,101.7,169.6,103,169.7,104.2z"/>
	<path d="M167.7,111.3c-0.2-1-0.1-2.1-0.2-3.2c0-0.2-0.1-0.6-0.4-0.6c-0.2,0.1-0.4,0.2-0.6,0.4c-0.1,1.4,0.1,2.9,0.6,4.2
		c0.3,0.7,0.6,1.6,1.2,2.2C168.2,113.2,167.8,112.3,167.7,111.3z"/>
	<path d="M169.5,117c-0.1,0.1-0.2,0.2-0.2,0.2c-0.2-0.8-0.6-1.5-1.4-1.8c0.1,0.8,0.1,1.6,0.3,2.3c0.4,1.7,0.7,3.4,0.5,5.2
		c0.1,0,0.2-0.1,0.2-0.1c0.7-1,0.6-2.2,0.7-3.3c0.2,0.9,0.3,1.8,0.4,2.7c0.1,0,0.2-0.1,0.2-0.3c0.4-0.9,0.3-2,0.2-2.9
		C170.4,118.2,170.2,117.4,169.5,117z"/>
	<path d="M180.3,63.2c-0.2,0-0.4,0-0.6-0.1c0,0.3,0.1,0.5,0.2,0.8C180.1,63.7,180.2,63.5,180.3,63.2z"/>
	<path d="M172.8,67.4c-1,0.6-2.1,1-3.2,1.2c-1,0.3-2,0.3-3.1,0.3c0,0.1,0,0.2,0,0.3c1.2,0.1,2.4,0.1,3.5-0.2
		c0.9-0.1,1.8-0.6,2.6-0.9c0.9-0.4,1.5-1.2,2.2-1.8c-0.1-0.2-0.1-0.3-0.2-0.5C174,66.3,173.5,67,172.8,67.4z"/>
	<path d="M152.3,66.3c-0.1,0.4-0.1,0.8,0,1.2c0.1,0.2,0.1,0.4,0.2,0.7c0.3,0.1,0.3-0.3,0.4-0.5c0-0.5-0.3-1-0.4-1.5
		C152.4,66.2,152.4,66.3,152.3,66.3z"/>
	<path d="M184.5,68c-0.6,1.1-1.2,2.2-2.1,3.1c-0.5,0.6-0.9,1.2-1.3,1.8c1.1-0.2,1.9-1.1,2.6-1.8c0.9-1.1,2.1-2.3,1.9-3.9
		c0-0.1-0.1-0.2-0.1-0.3c-0.2,0.1-0.3,0.2-0.5,0.4S184.6,67.8,184.5,68z"/>
	<path d="M150.2,82.9c-0.1,0-0.3,0-0.4,0c0.1,0.3,0.2,0.5,0.3,0.8c0.5,0.9,0.7,2,1.2,2.9c0.1-0.4,0.1-0.8,0.1-1.3
		C151.4,84.4,151,83.5,150.2,82.9z"/>
	<path d="M166.7,97.6c0,0,0,0.1,0,0.2c0.2,0.3,0.4,0.6,0.6,0.9c0,0,0.1,0,0.2,0c0.1-0.3,0.2-0.7,0.2-1c-0.1-1.8-0.1-3.5-0.4-5.3
		c0-0.3-0.1-0.5-0.2-0.8c-0.2,0.5-0.3,1.1-0.4,1.6C166.5,94.7,166.5,96.2,166.7,97.6z"/>
	<path d="M165.8,106.2c0.1-0.2,0.2-0.3,0.3-0.5c0.1-0.7,0-1.5-0.1-2.2l0,0c-0.2-0.9,0-1.8-0.1-2.7l-0.1-0.1c0-0.1-0.2-0.2-0.2-0.2
		c-0.6,1.4-0.6,3-0.5,4.5C165.2,105.4,165.5,105.9,165.8,106.2z"/>
	<path d="M183.9,68.2c0-0.3,0-0.6,0-0.9c-0.2,0.1-0.3,0.2-0.5,0.3c-0.3,0.2-0.5,0.5-0.7,0.8c-0.4,0.7-0.9,1.3-1.4,1.9
		c-0.2,0.4-0.5,0.7-0.7,1.1c0,0,0.1,0,0.2,0C182.2,70.7,183.5,69.6,183.9,68.2z"/>
	<path d="M181.1,67.8c-0.2,0-0.4,0.1-0.6,0.1c0,0.1-0.1,0.2-0.1,0.3c-0.1,0.2-0.2,0.4-0.3,0.6L180,69
		C180.5,68.8,181,68.4,181.1,67.8z"/>
	<path d="M154.4,71c0.1,0.6,0.6,1,0.9,1.5c0.3,0.2,0.7,0.5,1.2,0.4c-0.1-0.3-0.2-0.7-0.4-0.9C155.6,71.6,154.9,71.4,154.4,71z"/>
	<path d="M163.7,82.4c0.5-0.5,0.4-1.2,0.3-1.8c-0.1-0.8,0-1.7-0.2-2.5l-0.2,0.1c-0.3,1-0.7,2.1-0.5,3.1
		C163.3,81.7,163.3,82.3,163.7,82.4z"/>
	<path d="M162.5,82c0.1-0.1,0.1-0.2,0.2-0.4c0.1-1.1,0-2.2-0.2-3.2c0,0,0-0.1-0.1-0.1c-0.5,0.9-0.7,2-0.5,3
		C162.1,81.6,162.2,82,162.5,82z"/>
	<path d="M160.9,97.4c0.2-0.3,0.3-0.5,0.5-0.8c-0.1-1.4-0.1-2.9-0.2-4.3c0-0.1,0-0.3-0.2-0.2c-0.2,0.4-0.5,0.9-0.5,1.4
		C160.3,94.8,160.2,96.2,160.9,97.4C160.8,97.4,160.8,97.4,160.9,97.4z"/>
	<path d="M177.4,72.2c-0.1-0.1-0.3-0.2-0.4-0.3c-0.4,0.1-0.8,0.2-1.2,0.3c-0.1,0.1-0.3,0.1-0.4,0.2
		C176.1,72.6,176.9,72.6,177.4,72.2z"/>
	<path d="M178.4,73.5c0.4-0.2,0.9-0.4,1-0.9c-0.8-0.2-1.6,0.1-2.4,0.2c-0.2,0-0.4,0.1-0.6,0.1c-0.6,0.1-1.2,0.3-1.7,0.7
		C175.9,73.8,177.2,73.9,178.4,73.5z"/>
	<path d="M165,82.8c0-0.1,0.1-0.2,0.1-0.3c0.3-0.7,0.1-1.5,0.2-2.3c0-0.8-0.1-1.6-0.1-2.4c-0.1,0.1-0.2,0.1-0.2,0.3
		c-0.4,1-0.7,2.2-0.6,3.3C164.4,81.9,164.6,82.5,165,82.8z"/>
	<path d="M173.6,88.9c0.2-1.2,0-2.4-0.4-3.6c-0.3,0.4-0.3,0.9-0.4,1.4c-0.2,1-0.3,2.2,0.2,3.1C173.3,89.7,173.5,89.3,173.6,88.9z"/>
	<path d="M178,100.1c-0.2,0.3-0.1,0.7-0.1,1c0,0.8-0.1,1.6,0.4,2.2c0.5-0.9,0.4-2,0-2.9C178.2,100.3,178.2,100.1,178,100.1z"/>
	<path d="M159.6,101.1c-0.4,0.9-0.4,1.8-0.3,2.8c0,0.4,0.2,0.8,0.5,1.1c0.1,0.1,0.1,0.2,0.2,0.2c0.4-1.1,0.2-2.3,0-3.5
		C159.9,101.5,159.8,101.3,159.6,101.1z"/>
	<path d="M156.8,130.7c-0.8-0.1-1.5-0.1-2.3,0.1c0.2,0.2,0.5,0.4,0.7,0.5s0.4,0.1,0.6,0.2c1.1,0.2,2.3,0.2,3.5,0
		c0.4-0.1,0.7-0.3,0.9-0.5c-0.2-0.1-0.4-0.3-0.6-0.3C158.6,130.6,157.7,130.8,156.8,130.7z"/>
	<path d="M170.8,77.9c-0.6,1.4-0.8,2.9-0.8,4.5c0,0.3,0.1,0.6,0.1,0.8c0.1-0.1,0.2-0.2,0.4-0.3c0.2-0.4,0.4-0.7,0.5-1.1
		C171.2,80.5,171,79.2,170.8,77.9L170.8,77.9z"/>
	<path d="M161.5,84.2c-0.2,0.4-0.4,0.8-0.5,1.3c0,0.2-0.1,0.4-0.1,0.6c-0.2,1.1-0.1,2.2,0.5,3.2c0.2-0.2,0.3-0.4,0.4-0.7
		c0-0.6,0-1.1,0-1.7C161.6,86,161.8,85.1,161.5,84.2z"/>
	<path d="M179.9,102.7c0.3-0.9,0.4-2-0.3-2.8C179.4,100.8,179.3,101.9,179.9,102.7z"/>
	<path d="M160.3,129.1c-0.4,0.1-0.7,0.1-1.1,0.1c-1.2,0.1-2.5,0.2-3.7-0.1c-0.7-0.1-1.4-0.3-2.1-0.2c0.6,0.5,1.2,0.9,2,1.1
		c1.5,0.4,3.2,0.5,4.7,0.2c0.5-0.1,1-0.4,1.3-0.9C161.1,129.1,160.7,129,160.3,129.1z"/>
	<path d="M172.1,78.2c-0.4,0.6-0.4,1.4-0.6,2.1c-0.1,0.8-0.1,1.7,0.1,2.5c0,0,0.1-0.1,0.2-0.1h0.1c0.7-1,0.6-2.3,0.4-3.4
		C172.3,78.9,172.2,78.6,172.1,78.2z"/>
	<path d="M159.9,81.5l0.1-0.2c0.5-0.9,0.1-2,0-3c-0.3,0.4-0.4,1-0.5,1.5s0,1.1,0.3,1.5L159.9,81.5z"/>
	<path d="M158.1,80.3c0-0.3,0-0.7,0-1s-0.1-0.5-0.2-0.8c-0.4,0.7-0.7,1.7-0.1,2.4C157.9,80.7,158,80.5,158.1,80.3z"/>
	<path d="M161.3,81.6c0.5-1,0.1-2.1,0.1-3.1c-0.4,0.2-0.4,0.6-0.6,1c-0.1,0.6-0.1,1.2,0,1.8C160.9,81.4,161,81.7,161.3,81.6z"/>
	<path d="M174.9,81.5c0.3-0.5,0.2-1,0.2-1.5c-0.1-0.3-0.1-0.6-0.2-0.8c0-0.2-0.1-0.4-0.2-0.5c0,0.1-0.1,0.3-0.2,0.4
		c-0.4,1.1-0.3,2.2-0.2,3.3C174.7,82.2,174.8,81.8,174.9,81.5z"/>
	<path d="M173,100.3c-0.3,0.8-0.1,1.7-0.1,2.6c0,0.7,0,1.5,0.6,2c0.1-0.5,0.3-1,0.3-1.5C173.7,102.4,173.6,101.2,173,100.3z"/>
	<path d="M156.5,133.6c-0.3,0.1-0.6,0.1-0.8,0.3c0.9,0.4,2,0.4,3,0c0.2-0.1,0.4-0.2,0.4-0.4C158.2,133.3,157.3,133.5,156.5,133.6z"
		/>
	<path d="M173.5,78.5l-0.2,0.1c-0.4,1-0.6,2.2-0.4,3.3c0.1,0.2,0.2,0.4,0.3,0.5c0.1-0.2,0.3-0.4,0.4-0.6c0.3-0.9,0.1-1.9,0-2.8
		C173.6,78.9,173.5,78.7,173.5,78.5z"/>
	<path d="M157,80.1c0.1-0.4,0-0.9-0.1-1.3c-0.3,0.3-0.4,0.8-0.2,1.1C156.6,80.1,156.8,80,157,80.1z"/>
	<path d="M166.3,117.9h-0.1c0,0.1-0.1,0.2-0.2,0.2c0.2,1,0.5,2,0.8,2.9l0.1-0.1C167.1,119.9,167.2,118.7,166.3,117.9
		C166.4,117.9,166.3,117.9,166.3,117.9z"/>
	<path d="M177.1,81.6c0.3-0.2,0.5-0.6,0.6-0.9c0.1-0.5-0.1-1-0.3-1.4c-0.2,0.1-0.3,0.4-0.4,0.6c-0.1,0.5-0.1,0.9,0,1.4
		C177,81.4,177.1,81.6,177.1,81.6z"/>
	<path d="M146.8,83.1c-0.4,0.4-0.8,0.7-0.8,1.3l0.2-0.1c0.2-0.2,0.5-0.4,0.8-0.4c-0.1,0.2-0.3,0.5-0.4,0.7c0.1,0,0.3,0,0.4,0
		c0.4-0.1,0.7-0.4,0.9-0.6s0.4-0.4,0.6-0.6c-0.5,0-1,0.1-1.4,0.4v-0.1c0.5-0.5,1.1-0.8,1.7-1.2l0.2-0.1
		C148.3,82.1,147.5,82.5,146.8,83.1z"/>
	<path d="M159,85.7c-0.1-0.4-0.1-0.8-0.2-1.2c-0.2,0.1-0.3,0.3-0.3,0.5c-0.3,1-0.5,2.2,0.3,3.1C159.2,87.4,159,86.5,159,85.7z"/>
	<path d="M170.7,117.6c-0.2,0.9,0.3,1.7,0.4,2.6c0.1,0.4,0.1,0.8,0.4,1.1c0.2-1,0.3-2-0.1-3C171.2,118,171,117.6,170.7,117.6z"/>
	<path d="M178.7,80.6c0-0.3-0.1-0.7-0.3-1c-0.4,0.5-0.4,1.1-0.2,1.6C178.5,81.1,178.7,80.9,178.7,80.6z"/>
	<path d="M176.1,81.8c0.1-0.2,0.2-0.4,0.3-0.6l0,0c0.1-0.7,0-1.5-0.2-2.2c-0.5,0.7-0.6,1.7-0.5,2.5C175.7,81.7,176,82.1,176.1,81.8z
		"/>
	<path d="M179.8,86.4c-0.2,0.6-0.5,1.5,0,2C180.1,87.7,180,87,179.8,86.4z"/>
	<path d="M167.6,85.4c0-0.5-0.1-1-0.2-1.4c-0.6,1.7-0.8,3.6-0.8,5.4c0.1,0.6,0.2,1.4,0.6,1.9c0.3-0.5,0.5-1.1,0.5-1.7
		C167.6,88.2,167.7,86.8,167.6,85.4z"/>
	<path d="M169.1,105.6c0.1-1.3-0.1-2.7-0.4-4c-0.1-0.4-0.2-0.9-0.6-1.1v0.2c-0.1,1.2,0.1,2.5,0.1,3.7c0,0.6,0.1,1.4,0.7,1.7
		C169,105.9,169.1,105.8,169.1,105.6z"/>
	<path d="M183.5,84.8c0,0.1,0,0.2,0,0.2s0.1,0,0.2,0c0.6-0.2,1.1-0.5,1.6-0.8l0.1-0.1C184.7,83.9,183.9,84.1,183.5,84.8z"/>
	<path d="M162.4,89c0.1,0.2,0.2,0.6,0.5,0.6c0.1-0.3,0.3-0.5,0.3-0.8c0-1.6,0.3-3.2-0.2-4.7C162.3,85.6,162,87.4,162.4,89z"/>
	<path d="M175.7,87.3c-0.1,0.7-0.2,1.4,0.2,2c0.5-0.5,0.6-1.3,0.5-2c-0.1-0.5-0.2-1-0.4-1.4C176,86.3,175.8,86.8,175.7,87.3z"/>
	<path d="M159.8,85c-0.4,0.9-0.3,2-0.2,3c0.2,0.3,0.3,0.5,0.6,0.8c0.5-1.4,0.2-3,0.1-4.5C160.1,84.5,159.9,84.7,159.8,85z"/>
	<path d="M164.5,84.3c-0.4,0.8-0.7,1.6-0.8,2.5c-0.1,1-0.2,2.1,0.1,3.2c0.4,0,0.2,0.3,0.1,0.5c0.4,0,0.6-0.5,0.8-0.8
		c0.1-1,0-1.9,0-2.9C164.7,85.9,164.8,85.1,164.5,84.3z"/>
	<path d="M150.1,84.5c-0.1,0-0.3-0.1-0.3-0.1c0,0.2,0,0.4,0.1,0.7c0.2,0.5,0.5,1,0.8,1.4C150.7,85.8,150.6,85,150.1,84.5z"/>
	<path d="M156.5,87.4c0.2-0.7,0-1.4-0.1-2.1c0-0.3-0.1-0.6-0.2-0.8c-0.4,0.9-0.5,1.9-0.1,2.8C156.2,87.3,156.3,87.4,156.5,87.4z"/>
	<path d="M178.5,86.5c-0.3,0.7-0.3,1.4-0.1,2.1c0.2-0.1,0.4-0.3,0.4-0.5C178.9,87.5,178.8,86.9,178.5,86.5
		C178.7,86.3,178.6,86.4,178.5,86.5z"/>
	<path d="M156.6,92.1c-0.5,0.8-0.8,1.8-0.6,2.7c0,0.2,0.1,0.5,0.3,0.6c0.1-0.3,0.4-0.5,0.4-0.8C156.7,93.7,156.7,92.9,156.6,92.1z"
		/>
	<path d="M152.8,100.8c-0.2,0.8-0.2,1.6,0.3,2.2l0.1,0.1v-0.3C153.2,102.1,153.5,101.2,152.8,100.8z"/>
	<path d="M154.5,86.6c0-0.7-0.2-1.3-0.4-1.9c-0.2,0.5-0.3,1.1-0.1,1.6C154.1,86.4,154.3,86.6,154.5,86.6z"/>
	<path d="M172.5,120.6c0.1-0.6,0.1-1.3-0.1-1.9c-0.2-0.4-0.4-0.9-0.9-1.1c0,0.4,0.1,0.7,0.3,1.1C172,119.3,172,120.1,172.5,120.6z"
		/>
	<path d="M155.3,86.8c0-0.1,0.1-0.3,0.1-0.4c0-0.3,0-0.5,0-0.8c-0.1-0.3-0.1-0.6-0.2-0.9c-0.3,0.1-0.3,0.4-0.4,0.6
		C154.8,85.9,154.9,86.5,155.3,86.8z"/>
	<path d="M170.7,89.7c0-0.9,0-1.8-0.1-2.8c-0.1-0.7-0.2-1.3-0.4-1.9c-0.4,0.4-0.3,1-0.4,1.5c-0.2,1.4-0.3,2.8,0.2,4.2
		C170.5,90.6,170.5,90,170.7,89.7z"/>
	<path d="M186.5,85.1c0,0.3,0.1,0.5,0.2,0.8c0.2,0.4,0.4,0.8,0.7,1.2l0.1,0.2C187.7,86.4,187.3,85.3,186.5,85.1z"/>
	<path d="M177.1,86.8c-0.2,0.7-0.2,1.3,0,2v0.1c0.4,0,0.5-0.5,0.6-0.7c0.1-0.7,0.1-1.5-0.3-2.1C177.3,86.3,177.2,86.5,177.1,86.8z"
		/>
	<path d="M145.5,87.5c-0.1,0.4-0.3,1,0.1,1.3c0.5-0.5,0.3-1.3,0.4-1.9v-0.1C145.7,86.9,145.7,87.3,145.5,87.5z"/>
	<path d="M146.1,89c0.5-0.1,0.4-0.8,0.4-1.2c-0.1,0-0.2,0.1-0.2,0.1C146.1,88.2,146,88.6,146.1,89z"/>
	<path d="M171.5,90.3c0.1-0.1,0.2-0.2,0.3-0.3c0.1-0.2,0.2-0.4,0.3-0.6c0.2-1.4-0.1-2.9-0.5-4.2c0,0-0.1,0.1-0.1,0.2
		c-0.1,0.5-0.1,1.1-0.2,1.6c-0.1,0.8-0.2,1.6,0,2.3C171.3,89.6,171.4,90,171.5,90.3z"/>
	<path d="M187.7,91.6c0,0.1,0.1,0.2,0.1,0.3c0.1-0.6,0.4-1.4-0.1-1.9C187.3,90.5,187.5,91.1,187.7,91.6z"/>
	<path d="M165.6,98.7c0.2-0.7,0.5-1.4,0.5-2.1c-0.1-1.6-0.1-3.2-0.1-4.7c-0.1,0.1-0.2,0.2-0.3,0.4c-0.4,0.9-0.6,1.9-0.7,2.8
		C164.8,96.2,164.8,97.6,165.6,98.7z"/>
	<path d="M154.1,92.2c-0.1,0.1-0.1,0.2-0.2,0.3c-0.2,0.6-0.1,1.4,0.3,1.8C154.4,93.6,154.3,92.8,154.1,92.2z"/>
	<path d="M158.1,95.4c-0.1-1.1-0.2-2.1-0.3-3.2c-0.1,0.1-0.2,0.1-0.2,0.3c-0.4,0.8-0.5,1.8-0.4,2.7c0.1,0.2,0.2,0.4,0.3,0.6
		c0.1,0.1,0.2,0.2,0.3,0.3C158,95.8,158.2,95.6,158.1,95.4z"/>
	<path d="M155.5,94.3c-0.1-0.7,0-1.4-0.3-2.1l-0.1,0.3c-0.3,0.6-0.3,1.4-0.2,2.1C155.1,94.9,155.4,94.5,155.5,94.3z"/>
	<path d="M177,96.1c0.1,0.3,0,0.7,0.4,0.8c0.1-0.4,0.3-0.9,0.3-1.3c0-0.7-0.3-1.4-0.5-2.1C176.8,94.3,176.9,95.3,177,96.1z"/>
	<path d="M179.8,96.3c0.2-0.6,0.2-1.3,0.1-1.9c0-0.2-0.1-0.3-0.2-0.4c0,0.1-0.1,0.2-0.1,0.3c0,0.1-0.1,0.3-0.1,0.4
		c-0.1,0.6-0.1,1.3,0.3,1.8C179.8,96.5,179.8,96.4,179.8,96.3z"/>
	<path d="M180.7,99.8c0,0.5,0,1.1,0,1.6c0,0.1,0.1,0.2,0.1,0.2c0.1,0.1,0.2,0.3,0.3,0.4c0.2-0.5,0.2-1,0.1-1.5
		C181.1,100.3,181.1,99.9,180.7,99.8z"/>
	<path d="M176.3,102.6c0,0.5,0,1.3,0.5,1.4c0.6-1.2,0.3-2.6-0.3-3.8C176.1,100.9,176.4,101.8,176.3,102.6z"/>
	<path d="M169.3,128.7c0.1-0.3,0.3-0.5,0.3-0.8c0-0.2,0-0.4-0.3-0.4c-0.5,0.3-0.8,0.8-1.2,1.3c-0.5,0.6-1.2,1.1-1.6,1.8
		c0.7-0.1,1.4-0.5,2-1C168.8,129.4,169.1,129.1,169.3,128.7z"/>
	<path d="M159.1,132.1c-1-0.1-2.1,0-3.1,0.1c-0.3,0-0.5,0.1-0.8,0.1l0.1,0.1c0.4,0.3,0.8,0.4,1.2,0.5c1,0.1,2.1,0.1,3-0.5
		C159.6,132.2,159.2,132.2,159.1,132.1z"/>
	<path d="M167.1,106.6c0.1,0.2,0.3,0.5,0.5,0.3c0.2-0.4,0.1-0.9,0.1-1.3c0-0.6-0.1-1.2-0.1-1.8c-0.1-0.9-0.2-1.8-0.3-2.6
		c0-0.3-0.2-0.6-0.3-0.8c-0.2,0.3-0.2,0.6-0.2,1c-0.1,1.1-0.1,2.3-0.1,3.4C166.7,105.3,166.7,106.1,167.1,106.6z"/>
	<path d="M174.8,100.5c-0.3,0.5-0.1,1-0.2,1.6c0,0.8-0.2,1.8,0.4,2.5c0.1-0.4,0.5-0.8,0.4-1.2C175.4,102.4,175.4,101.3,174.8,100.5z
		"/>
	<path d="M155.4,101c0,0.1-0.1,0.3-0.1,0.3c-0.2,0.9-0.3,2,0.4,2.7c0.1-0.8,0.2-1.5,0.1-2.3C155.7,101.5,155.5,101.2,155.4,101z"/>
	<path d="M156.7,101.2L156.7,101.2c-0.2,0.8-0.4,1.7-0.1,2.5c0.1,0.1,0.1,0.2,0.2,0.4c0.1,0.1,0.2,0.2,0.2,0.3l0,0h0.2
		c0-1.1,0.1-2.2-0.2-3.2C156.9,101.2,156.7,101.2,156.7,101.2z"/>
	<path d="M166.6,112.9c0.1-0.6-0.1-1.3-0.2-1.9c-0.1-0.8-0.3-1.5-0.5-2.3c-0.1,0-0.3-0.1-0.4-0.1c-0.1,0.2-0.2,0.4-0.2,0.6
		c0,0.9,0.4,1.8,0.7,2.6C166.3,112.3,166.4,112.6,166.6,112.9z"/>
	<path d="M165,109.3l-0.2-0.1c-0.3,0.5-0.2,1.1,0.1,1.7c0.2,0.4,0.4,0.7,0.6,1C165.5,111,165.4,110.1,165,109.3z"/>
	<path d="M169.3,112.1c0,0,0.1,0.1,0.2,0.1c0-0.1,0-0.3,0-0.4c-0.1-0.8,0-1.6-0.3-2.3c0,0-0.1,0-0.2,0c-0.2,0.5-0.2,1.1-0.1,1.6
		C169,111.5,169.2,111.8,169.3,112.1z"/>
	<path d="M166.1,120.4c0.1-0.7,0-1.6-0.6-2C165.5,119.1,165.7,119.9,166.1,120.4z"/>
	<path d="M164.6,123.3v-0.2c-0.8,0.5-1.3,1.4-1.7,2.2c0.1,0,0.2-0.1,0.3-0.1C163.9,124.8,164.5,124.1,164.6,123.3z"/>
	<path d="M165.4,124.5c0.2-0.4,0.3-0.9,0-1.3c-0.7,0.6-1.1,1.5-1.7,2.2c-0.3,0.3-0.5,0.7-0.6,1.1c0.1,0,0.2,0,0.3,0
		C164.2,126,164.9,125.4,165.4,124.5z"/>
	<path d="M159.5,125.3c0.2-0.1,0.4-0.2,0.5-0.4c-0.5-0.1-1-0.1-1.6-0.1c-0.5,0.1-0.9,0.3-1.3,0.6c0.1,0.1,0.3,0.2,0.5,0.2
		C158.3,125.7,158.9,125.6,159.5,125.3z"/>
	<path d="M169.5,129.2c-0.3,0.2-0.5,0.5-0.7,0.8s-0.5,0.7-0.7,1c0.3,0,0.6-0.1,0.9-0.3c0.5-0.4,1-1,0.9-1.7
		C169.8,129,169.6,129.1,169.5,129.2z"/>
</g>
</svg>
