<?xml version="1.0" encoding="utf-8"?>
<!-- Generator: Adobe Illustrator 26.0.3, SVG Export Plug-In . SVG Version: 6.00 Build 0)  -->
<svg version="1.1" id="Слой_23" xmlns="http://www.w3.org/2000/svg" xmlns:xlink="http://www.w3.org/1999/xlink" x="0px"
	 y="0px" viewBox="0 0 239.5 150.2" style="enable-background:new 0 0 239.5 150.2;" xml:space="preserve">
<style type="text/css">
	.st0{fill:#0F0F0F;}
	.st1{fill:none;stroke:#0F0F0F;stroke-miterlimit:10;}
</style>
<g>
	<g>
		<path class="st0" d="M90.4,8.6c-1.1,1-2.3,1.7-3.5,2.6c-1.8,1.3-3.6,2.7-5.3,4.2c-0.7,0.6-1.7,0.6-2.4,1.3c-0.7,0.8-1.3,1.6-2,2.4
			c-0.7,0.8-1.4,1.5-2,2.4c-0.5,0.8-0.3,1.9-1,2.5c-2,2.2-3.8,4.6-5.5,7.1c-0.8-0.7-1.6-1.3-2.5-1.9c-2.7-1.8-5.5-3.5-8.7-4.2
			c-1.1-0.2-2.2-0.3-3.3-0.6c-1.4-0.4-2.9-0.5-4.3-0.9c-2.2-0.6-4.5-0.4-6.8-0.4c-2,0-3.9,0.9-6,1.1c-3.9-0.1-7.8,0.8-11.3,2.6v0.5
			c2.5-1.2,5.1-2.2,7.8-2.5c1.7,0,3.4-0.2,5.1,0.1c1.6,0.3,3.2,0.5,4.8,0.9c6.6,1.6,12.6,5.3,17.4,10c0.5,0.5,1.1,1,1.5,1.6
			c-0.1,0.2-0.2,0.4-0.3,0.6c-2.4-2.5-5-4.9-8.1-6.5c2.8,2.1,5.6,4,7.9,6.7c-0.7,0.9-1.6,1.8-1.6,3.1c1-1.4,1.9-2.9,3-4.1
			c0.8-0.9,1.3-2.1,2.5-2.6c2.4-0.5,5-0.6,7.4,0.3c2.1,0.9,3.8,2.6,4.8,4.6c0.7,1.1,1,2.5,0.6,3.7c-1.1,1.7-2.8,2.8-4.3,4.2
			c-0.5,0.5-1.1,0.6-1.7,0.7c0.4-0.4,0.8-0.8,1.1-1.4c0.2-0.7,0.1-1.5-0.3-2.1c-0.8-1-1.8-1.9-3-2.4c-2.1-0.9-4.4-1.5-6.7-1.6
			c-1.2,0-2.9,0.1-3.3,1.5c0.2,0,0.5,0,0.7,0c-0.9,1.2-1.6,2.5-2.4,3.8c-0.2-0.1-0.5-0.2-0.6-0.3c0.2,0.2,0.4,0.3,0.5,0.5
			c-0.2,0.3-0.4,0.6-0.6,0.9c-2-2.9-4.2-5.8-6.6-8.4c-2.3-2.4-5-4.2-7.9-5.7c-2.7-1.7-6-2.6-9.2-2.6c-1.6,0-3.1,0-4.7,0.3
			c-1.3,0.3-2.6,0.3-3.8,0.6v0.3c2-0.1,4.1-0.2,6.1,0.1c3,0.5,5.9,1.3,8.6,2.6c3.3,1.5,6.1,3.9,8.6,6.4c-1.3-1.8-3-3.4-4.8-4.7
			c-3.2-2.4-7-3.6-10.8-4.4c-1.1-0.3-2.3-0.2-3.3-0.8c1.9-0.1,3.7-0.1,5.6,0c2.4,0.3,4.9,1,7.1,2.1c2.5,1.3,5,2.9,7.1,4.8
			c3,2.8,5.5,6.1,7.8,9.5c0.4,0.4,0,1,0,1.5c-0.5,1.5,0,3.1,0.2,4.7c-2-3-4.4-5.7-7.3-7.9c-4.6-3-10-5-15.5-5.2
			c-1.5-0.1-3-0.1-4.4,0.3c1.1,0.3,2.3,0.1,3.4,0.1c1.5-0.1,3,0.1,4.4,0.4c-0.3,0-0.6,0.1-0.9,0.1l0,0.2c1.7,0.1,3.4,0.2,5,0.7
			c2.7,0.9,5.3,2.1,7.7,3.7c2.2,1.7,4.2,3.8,5.9,6.1c-2.1-1-4.4-1.9-6.8-1.8c-0.9,0-1.9,0.3-2.7-0.1c-1.4-0.6-2.8-1.1-4.2-1.5
			c0-0.2-0.1-0.6-0.1-0.7c-1.1-0.8-2.2-1.7-3.5-2.2c0.6,0.7,1.3,1.2,2.1,1.7c-1.1-0.1-2.1-0.1-3.2,0c-0.9-0.6-1.9-1-2.8-1.7
			c1.4-0.5,3,0,4.4-0.4c1.3-0.4,2.7-0.3,4-0.5c-1.7-0.5-3.5,0.1-5.2,0.3c-1.4,0-2.8-0.1-4.1,0.4c-1.3,1.1-1.5,3-1.7,4.6
			c0,1.7-0.2,3.4,0.2,5.1c-2.7,3-4.9,6.3-6.8,9.9v0.7c2-3.8,4.5-7.3,7.3-10.6c1.3,0.8,2.7,1.5,4.1,2.1c0.9-0.2,1.9-0.6,2.9-0.1
			c-4.5,4.4-8.3,9.7-10.6,15.7c-1.1,3.1-2,6.2-2.8,9.4c-0.3,1.1-0.2,2.3-0.2,3.4c-0.2,4.1-0.2,8.3,0.9,12.4c0.8,3.2,2.3,6.2,4.1,8.9
			c-1.4-0.6-2.8-1.3-4-2.1c-0.8-0.5-1.2-1.4-1.7-2.2v0.9c0,0,0,0,0,0l0,0v0.6c1,0.8,2,1.7,2.8,2.6c0-0.1,0-0.4,0-0.6
			c2.3,1.3,4.9,2.4,7.6,2.6c1.5,0,3,0.1,4.3-0.4c1.3-0.5,2.6-1.1,3.7-2.1c1,1.2,2.1,2.3,3.4,3.3c-0.1,0.6-0.2,1.1-0.3,1.7
			c-0.1,0-0.4,0.1-0.6,0.1c0.1,1.7-1,3.1-1.9,4.5c-0.7,1.1-1.7,2.1-2.4,3.3c1.8-1.3,3-3.3,4.1-5.2c-0.3,2.3-1.1,4.5-2.9,6.1
			c-2.5,2.3-5.9,3.5-9.3,3.4c-2.9,0.1-5.9-0.1-8.7-1.1v0.5c2.8,0.9,5.8,1.3,8.7,1.3c2.3,0.1,4.5-0.5,6.6-1.4
			c2.6-1.2,5.1-3.4,5.7-6.4c0.3-1.2,0.1-2.5,0.4-3.8c0.3-0.9,0.6-1.8,0.7-2.7c0.1,1,0,2.1,0.5,3c1.2,2.6,1.2,5.7-0.1,8.2
			c-0.9,1.7-2.6,2.9-4.4,3.8c-2.2,1-4.5,1.7-6.9,1.8c-3.9,0.4-8-0.2-11.4-2.1v0.5c2.7,1.4,5.7,2.2,8.7,2.4c-2.8,0.9-5.8,1-8.7,0.8
			v0.3c1.5,0.4,3.1,0.2,4.6,0.2c2,0,3.8-0.6,5.6-1.2c1.8-0.3,3.7-0.3,5.4-0.9c-1.5,1.6-2.8,3.4-4.8,4.5c-1.1,0.6-2.4,1.1-3.7,0.8
			c-2.5-0.3-4.9-1.4-7.2-2.6v0.5c2.2,1.1,4.6,2.2,7,2.5c1.5,0.2,2.9-0.3,4.1-0.9c2.2-1.2,3.6-3.3,5.3-5c0.8-0.6,1.9-0.8,2.8-1.3
			c1.9-1.1,3.8-2.7,4.5-4.9c0.5-1.5,0.5-3.1,0.3-4.6c-0.3-1.8-1.3-3.5-1.4-5.4c4,2.4,8.4,4.5,13.1,5.1c2.7,0.3,5.4,0.4,8.1-0.3
			c2.5-0.4,5-0.9,7.4-1.8c3.9-1.4,7.6-3.2,11.2-5.3c0.2,0.6,0.5,1.2,0.7,1.9c0.4-0.1,0.8-0.2,1.2-0.3c0.3-0.3,0.3-0.9,0.5-1.3
			c0.3,0.1,0.6,0.2,0.9,0.2c-0.4,1.5-0.7,3.1-1,4.6c-0.2-0.1-0.4-0.2-0.7-0.3c-0.1-0.9-0.6-1.8-1.5-2.2c0.1-0.3,0.2-0.6,0.3-0.9
			c-0.1-0.3-0.3-0.6-0.5-0.9c-0.3,0.7-0.4,1.6-0.5,2.4c0.7,0.1,1.2,0.5,1.5,1.1c-6.5,5.3-13,10.7-19.5,16c-1,0.9-2.2,1.5-3.1,2.5
			c-2.4-0.1-4.4,1.6-5.4,3.6c-0.5,1.1-0.2,2.4,0.4,3.5c1,1.9,2.4,3.9,4.6,4.7c2.4,0.8,5-0.5,6.3-2.5c0.4-0.7,0.4-1.5,1-2.1
			c6.4-5.7,12.7-11.5,19.1-17.2c0.5,0.4,1,0.8,1.7,1c3.4,5.7,7.7,10.9,13.2,14.6c4.2,2.8,9.2,4.5,14.3,4.7c2.2,0.2,4.5,0.1,6.6-0.4
			c1.1-0.3,2.1-0.7,3.1-1c3.9,1.3,8,2.2,12.1,2.2c2,0,4,0.1,5.9-0.2c3.6-0.6,6.8-2.4,10-4.1c2.2-1.3,4.3-2.6,6.2-4.2
			c3.9-2.9,8.5-5.6,13.6-5.4c1.9-0.1,3.9,0.6,5.4,1.8c0.3,1.1,0,2.4-0.9,3.2c-1.5,1.3-3.6,1.6-5.5,1.5c-1.3-0.2-2.2-1.1-2.9-2.2
			c0,0.7,0.3,1.3,0.7,1.8c-0.4-0.1-0.9-0.2-1.3-0.2c1.2,0.8,2.7,1.1,4,1.5c2.7,0.7,5.9,0.4,8.1-1.5c1.1-0.9,1.6-2.5,1-3.8
			c-0.4-1.1-1.6-1.6-2.5-2.4c-3-2.1-6.8-3.3-10.5-2.8c-0.9,0.2-1.8-0.1-2.7,0.2c-2.6,0.6-5.1,1.4-7.5,2.5c0-1.5-0.3-3-0.3-4.5
			c0.5-0.6,1.1-1,1.6-1.5c1.3-1.2,2.4-2.6,4.1-3.2c1.3-0.4,2.8-0.4,3.8,0.5c0.9,0.7,1.3,1.8,1.8,2.9c-1.4,1.4-3.5,1.8-5.4,1.7
			c-1.1,0-2-0.6-3-1.1c0.6,0.7,1.3,1.2,2.1,1.5c0.9-0.2,1.7,0.2,2.6,0.1c1.5-0.2,3.2-0.6,4-2c0.5-0.6,0.5-1.4,0.2-2.1
			c-0.1,0.4-0.1,0.9-0.2,1.3c-0.4-0.9-0.9-1.9-1.7-2.6c-1.6-1.3-4.1-1-5.7,0.1c-1.4,1-2.4,2.2-3.6,3.4c0.5-1.3,1-2.6,1.8-3.7
			c-1.3,1.1-2,2.6-2.7,4.1c0-1.2-0.4-2.4-0.3-3.6c0.3-0.7,1-1.3,1.5-1.8c1-1,2.2-2.1,3.6-2.5c0.9,0,1.8,0.6,2.7,0.9
			c-1.1,0-2.3-0.1-3.4,0.4c-1.1,0.6-2.3,1.2-3.1,2.2c1.7-0.9,3.2-2.3,5.2-2.3c1.5-0.1,2.8,0.8,3.9,1.7c-0.3-0.4-0.6-0.9-1-1.3
			c1.1,0.4,2.3,0.7,3.3,1.4c0.7,0.9,1.2,2,1.6,3.1c0.4,1.1,0.1,2.5-0.9,3.1c-2.1,1.1-4.7,1.1-6.9,0.3c-0.2,0.1-0.3,0.2-0.4,0.3
			c2,0.6,4.1,0.7,6.1,0.4c1.3-0.3,2.7-1.2,2.8-2.6c0.2-1.6-0.9-3-1.6-4.4c10.4,4.1,20.9,8.2,31.3,12.3c2.6,1,5.2,2.1,7.8,3
			c-0.1-1.5-0.1-3.1-0.3-4.6c-0.6-4.1-2.6-7.9-5.2-11.2c-0.9-1.1-1.7-2.4-3.1-2.9c-8.3-3.3-16.8-6.3-25.2-9.5
			c-6.6-2.5-13.1-5-19.8-7.4c3.5-2.4,6.9-5,9.9-8.1c0.7-0.7,1.3-1.4,2.1-2c1-0.6,2.3-0.7,3.5-0.8c1.2,0,2.5-0.1,3.6,0.6
			c2.5,1.5,4.4,3.9,6.2,6.1c0.1,1.7,0.4,3.5,0.3,5.2c0,1.3,0.2,3,1.5,3.7c0.9,0.5,0.8,1.6,1.2,2.3c1,1.7,2.6,3,4.4,3.7
			c1.4,0.6,2.8,1.3,4.3,1.7c0-0.2-0.1-0.5-0.1-0.7c1.1,0.5,2.2,1.1,3.2,1.7c1,0.6,2.1,1.1,3.3,0.9c1-0.3,1.7-1.1,2.3-1.9
			c2.2,0.7,4.3,1.7,6.3,2.7c2.3,1.1,4.4,2.5,6.6,3.7V115c-2.2-1.4-4.5-2.7-6.8-3.9c-1.9-1-3.9-1.5-5.9-2.5c0.2-0.3,0.4-0.6,0.5-0.9
			c0.6,0.1,1.3,0.4,1.9,0.2c0.8-0.3,1.4-0.9,1.8-1.6c0.5-0.9,0.6-2,1.1-3c0.4-0.9,0.8-1.8,1.2-2.7c0.3-0.8,0.8-1.4,1.1-2.2
			c0.3-1.4,0.5-2.8,0-4.1c1.2-1,1.6-2.5,2.3-3.8c1.1-1.8,1.9-3.8,2.6-5.7v-1.6c-0.6,1.5-1,3-1.8,4.5c-1.4-2.3-2.6-4.8-4-7.1
			c-0.4-0.7-0.9-1.2-1.5-1.6c1.6,2.4,2.9,4.9,4.3,7.4c0.4,0.8,1.2,1.5,1,2.4c-0.7-1-1.1-2.3-1.6-3.4c-0.8-1.5-1.7-3-2.9-4.2
			c-0.5-0.5-1-1.1-1.2-1.8c-0.2-0.7-0.2-1.6-0.9-1.9c-1.3-0.6-2.7-0.8-3.9-1.5c-0.3-0.9-0.7-1.7-1.2-2.4c1.8,0.5,3.6,1.1,5.4,1.5
			c2.3,0.6,4.7,1.2,6.9,2.1c0.9,0.2,1.2,1.2,1.6,1.9v-1.6c-0.1-0.2-0.2-0.5-0.3-0.7c0.1-0.5,0.2-1.1,0.3-1.6c-0.2,0-0.4,0.1-0.6,0.1
			c0,0.4-0.1,0.9-0.1,1.3c-0.9-0.2-1.7-0.5-2.6-0.8c-3.1-1-6.3-1.6-9.4-2.7c-0.3,0-0.4-0.4-0.6-0.6c1.1,0.4,2.2,1,3.3,1.2
			c1.3,0.3,2.7,0.4,4.1,0.3c2-0.2,3.9-1,5.6-2c0,0.9-0.1,1.8-0.1,2.7c0.1,0.1,0.3,0.2,0.4,0.3v-4c-2.1,1.3-4.5,2.6-7.1,2.3
			c-2.8-0.2-5.6-0.9-7.8-2.7c-2.3-2-3.7-5.2-3.4-8.3c0.2-2.9,1.6-5.5,3.5-7.6c2.4,0.7,4.7,1.6,6.9,2.9c0.8,0.4,1.6,1.1,2.5,1.2
			c0.9-0.4,1.6-1.1,2.4-1.5c0.9-0.5,2-0.8,2.9-1.3v-0.6c-2.1,0.7-4.1,1.6-5.7,3c-2.3-1.7-4.9-3-7.6-3.8c2.4-2,5.6-2.9,8.7-2.4
			c1.6,0.3,3.1,1.1,4.6,1.7v-0.4c-1.7-0.9-3.6-1.7-5.6-1.8c-2.1-0.1-4.3,0.3-6.2,1.4c-0.9,0.5-1.6,1.3-2.6,1.5
			c2.1-2.1,5.2-3.1,8.1-3.2c2.3-0.2,4.4,0.7,6.3,1.9v-0.6c-1-0.7-2.1-1.1-3.3-1.4c0.4-1.1,0.9-2.1,0.9-3.3c0-1.2-0.5-2.2-1-3.2
			c-0.7-1.5-0.7-3.2-1.5-4.7c-0.4-0.6-1-1.1-1.6-1.4c2.3,0,4.5-1,6.5-2v-0.5c-2.1,1-4.3,2-6.7,2.2c-0.5-1.1-0.9-2.4-2-2.9
			c-1.6-0.7-3.5-0.5-5.2-0.2c0.5,0.1,1.1,0.2,1.6,0.2c-0.7,0.3-1.3,0.6-1.9,1c-0.4-0.3-0.8-0.6-1.3-0.9c0.2-0.2,0.4-0.3,0.6-0.5
			c-1.1,0.3-2.3,0.3-3.4,0.4c-2.1,0.5-4,1.7-6,2.4c-0.8,0.3-1.7,0.5-2.3,1.1c-0.6,0.9-0.5,2.1-0.7,3.2c-0.4,0.6-0.9,1.1-1.1,1.8
			c-0.2,1-0.1,2.1-0.1,3.1c-3.9,2-7.2,5.4-11.6,6.3c-1.8-0.1-3.6-0.7-5.4-1c6.8-5.5,13.6-11,20.3-16.6c0.5-0.4,1-1,1.3-1.6
			c1.9-4.5,3.1-9.4,2.2-14.3c-0.3-1.6-0.6-3.2-1.3-4.7c-3.2,2.5-6.2,5.2-9.3,7.8c-10.1,8.5-20.1,17-30.2,25.5
			c-1.5,0.9-2.6,2.3-4.1,3.3c-0.4-0.7-0.6-1.5-0.8-2.3c-0.4-1.4-1.2-2.6-2.1-3.6c-0.9-1-1.9-1.9-3.2-2.4c-1.2-0.4-2.4-1.1-3.6-1.4
			c-2.2-0.5-4.5-0.2-6.7,0.2c-2.4,0.3-4.8,1.1-6.7,2.5c-1.6,1.2-2.3,3.1-3.3,4.7c-0.7,1.5-1.9,2.6-2.7,4c-0.2,0.3-0.4,0.7-0.7,1
			c-1,0.2-2,0.4-3.1,0.5c-1.2-0.6-2-1.9-2.4-3.2c0.1-0.8,0.8-1.5,0.7-2.4c-0.2-1.4-0.8-2.6-1.1-3.9c-0.3-0.9-0.4-1.8-0.8-2.6
			c-0.6-0.4-1.4-0.6-2.1-0.8c-0.8-2.4-1.3-4.9-2.1-7.3c-0.8-2.3-1.7-4.6-2.6-6.9c-1.4-3.5-3.6-6.6-5.9-9.6c-2.5-3.3-5.5-6.3-8.5-9.2
			c-0.9-1-2.3-0.9-3.5-1.1C92.6,7.9,91.2,7.7,90.4,8.6z M78.9,17.5c0.6-1.2,1.9-1.2,3-1.5c1.5-0.2,3.1,0,4.6,0.4
			c1.5,0.4,3.1,0.9,4.2,2.1c1.7,1.5,3.4,3.3,3.9,5.7c0.5,1.8,0.5,3.8,0.2,5.6c-0.2,1.5-1.5,2.6-2.6,3.6c-1.1,1.1-2.5,1.9-3.9,2.5
			c1.5-1.8,1.5-4.3,1.3-6.5c-0.4-2.5-2.4-4.5-4.5-5.8c-2.4-1.5-5.3-2.6-8.2-2.2c-0.8,0.2-1.4,0.8-2,1.4
			C75.8,20.6,77.8,19.4,78.9,17.5z M61.3,28.1c-1.3-1.3-2.9-2.1-4.6-2.8c4.3,1,8.1,3.5,11.6,6.2c-0.6,0.8-1.2,1.5-1.9,2.2
			c-1-0.8-2-1.7-3.2-2.3c0.7,0.9,1.6,1.3,2.4,2.1c0.3,0.2,0.4,0.5,0.4,0.8c-0.8-0.4-1.4-1.1-2-1.7c-2.1-1.8-4.4-3.4-6.9-4.7
			c-1.8-0.9-3.5-2.1-5.4-2.8c-0.7-0.3-1.4-0.4-1.9-0.8C54,24.2,57.8,26.1,61.3,28.1z M65.3,34.3c-0.5,0.2-0.8,0.7-1.1,1.1
			c-0.4,0.6-0.9,1.1-1.3,1.8c-4.1-5-9.7-8.7-15.7-10.9c-2.7-0.9-5.5-1.5-8.3-1.8c2-0.7,4.1-0.7,6.2-0.8c1.2,0,2.4,0.4,3.6,0.6
			c0-0.1,0.1-0.4,0.1-0.6c0.2,0,0.6,0.1,0.8,0.2c-0.2,0.2-0.4,0.5-0.5,0.7c2.1,0.5,4.1,1.6,6,2.6c2.8,1.4,5.4,3,7.9,5
			C63.7,32.8,64.6,33.4,65.3,34.3z M75.9,35.8c-1.7-1.1-3.6-1.8-5.6-1.9c-1.2-0.1-2.3,0-3.5,0.1c2.1-2.4,3.8-5.1,5.9-7.5
			c1-1.3,2.2-2.4,3.1-3.7c0.7-1.2,2.3-1,3.5-0.9c2.4,0.4,4.8,1.5,6.7,3c1.3,0.9,2.3,2.2,2.9,3.7c0.5,1.2,0.4,2.5,0.4,3.8
			c0,1.1-0.5,2.1-1,3.1c-2.3,0.8-4.2,2.3-6.1,3.7c-1,0.7-1.9,1.5-2.8,2.3C78.7,39.2,77.5,37.3,75.9,35.8z M78.7,44.2
			c0.7,1.2,1.5,2.3,2.2,3.5c2,3.3,3.2,7,4.3,10.7c0.2,0.7,0.5,1.5,0.8,2.2c-0.3-2.3-1.1-4.4-1.8-6.5c-1.2-3.6-3.1-7-5.3-10
			c0.3-0.7,0.4-1.4,0.5-2.1c1.2-1.2,2.6-2.1,4-3.2c1.2-1,2.6-1.7,4-2.4c0.4,0.1,0.9,0.3,1.4,0.1c1.5-0.7,2.8-1.7,4-2.8
			c-0.1,4.3,1.4,8.5,3.2,12.4c0.5,0.8-0.6,1.4-0.4,2.2c0.2,2,0.6,3.9,1,5.8c0,0.5,0.4,0.8,0.8,1c-0.1,3.8,0.2,7.6,1.6,11.1
			c0.8,2.3,2.1,4.5,4,6c-0.3,0.8-0.5,1.5-0.6,2.4c-3-1.2-5.9-2.7-8.9-3.9c-0.5-0.3-1.1-0.4-1.5-0.8c-0.6-1-1.1-2.1-1.7-3.1
			c0.3-2.2,0.2-4.5-0.6-6.5c-0.3-0.7-1.1-1.3-1.9-0.8c-1.3,0.9-2.2,2.2-3,3.5c-0.5,1-1.1,2-1.1,3.2c-1-0.5-2-0.9-3-1.4
			c-0.7-0.3-0.8-1.2-1.2-1.8c-0.6-1.2-0.8-2.7-1.5-3.9c-0.5-1-1.4-1.8-2-2.7c-0.7-1-1.5-1.9-2.1-3c-0.4-1.5-0.9-3-1.3-4.5
			c0.4-0.1,0.8,0,1.1-0.2C75.8,47.3,77.2,45.7,78.7,44.2z M111.2,48.5c0.1,1.6,0.3,3.2,0.4,4.8l0.3,0c-0.1-0.7-0.1-1.4,0-2.1
			c0.5,2.2,2,3.9,3.2,5.8c-3.4-1.1-6.5-2.7-9.7-4.3c2.2,1.9,4.9,3.1,7.6,4.2c1.1,0.5,2.3,0.7,3.4,0.7c-4.4,2.9-8.3,6.6-11.6,10.7
			c-0.7,1-1.2,2.2-1.6,3.3c-3.4-3.1-4.7-7.9-5.2-12.4c-0.1-2-0.4-3.9-0.3-5.9c0.3-1.3,1.4-2.2,2.5-2.8c1.8-0.9,3.8-1.5,5.8-1.8
			C107.7,48.4,109.5,48.5,111.2,48.5z M100.4,82.7c-2.3-1-4.5-2-6.8-3c0,0.1,0,0.2-0.1,0.3c2.2,1.2,4.5,2.1,6.7,3c0,0.1,0,0.4,0,0.6
			c-1.4-0.3-2.7-0.6-4.1-0.9c-1.1-0.8-1.8-2.1-3.1-2.5c0.1,0,0.2-0.1,0.2-0.2c0-0.1-0.1-0.4-0.2-0.6c-1.2-0.2-2.1-1.1-3.1-1.5
			c-1.2-0.5-2.3-1.1-3.6-1.3c0.4-1.5,0.5-3.1,1-4.6c1.2,1,2.9,1.3,4.4,1.7c2.1,0.5,4.4,1,6.2,2.3c1.8,1.3,3.2,3.3,5.4,3.9
			c0,0.1,0.1,0.4,0.1,0.5c0.4,0.5,0.8,1,1.4,1.4c0.1,0.2,0.2,0.4,0.2,0.5C103.4,82.7,101.8,82.3,100.4,82.7z M101.8,84.1
			c0.3,0.8,0.6,1.6,0.8,2.5c0.7,3.8,0.8,7.8-0.3,11.5c-1.8,0.7-3.5,1.4-5.2,2.1c-0.5,0.2-1,0.4-1.3,0.8c2.2-0.7,4.3-1.6,6.4-2.6
			c-0.3,0.9-0.6,1.8-0.9,2.7c-0.7-0.1-1.4-0.3-2.1-0.3c0,0.2,0,0.5-0.1,0.7c-1,0.1-2.1-0.1-3,0.4c-1.2,0.5-2.3,1.2-3.2,2.1
			c-0.5,0.6-1.4,0.7-2.1,0.9c2.7-2.7,5.7-5.1,7.8-8.4c1.6-2,3.6-4.2,3.4-6.9c0.2-1.4-0.9-2.5-1.8-3.4c-1.2-1-2.4-2.1-3.5-3.2
			C98.4,83.8,100.1,84.4,101.8,84.1z M99.4,101.4c0.4,0,0.9,0,1.3,0.1c3,0.7,6,1.3,9,1.9c0.5,0.1,1.1,0.1,1.3,0.6
			c-3.1-0.5-6.2-1.3-9.3-1.9C100.9,102,100,102,99.4,101.4z M101.8,101.4c1-2.9,1.9-5.8,1.8-8.9c0.1-1.7-0.1-3.4-0.4-5
			c-0.3-1.5-0.9-2.8-1.4-4.2c-0.1,0.2-0.3,0.5-0.4,0.7c-0.3-0.1-0.7-0.2-1-0.3c0.1-0.2,0.2-0.4,0.4-0.6c1.5,0,3,0,4.5,0.1
			c0.5,0.1,1.1,0.1,1.4,0.5c0.8,0.3,0.9,1.1,1,1.8c0.3,2.2,0.6,4.4,0.6,6.6c0.2,3.5,0.2,7.4-2,10.3
			C104.9,102,103.4,101.6,101.8,101.4z M92.4,81C93.2,80.7,92.5,81.8,92.4,81L92.4,81z M77.9,83.1c-0.4-0.1-0.8-0.2-1.1-0.4
			c-2.9-1.7-5.8-3.5-8.4-5.7c-1.4-1.1-2.5-2.5-3.7-3.8c1.5-1.1,3.5-1.4,5.3-1.2c2,0.6,3.9,1.5,5.8,2.3c0,1.3,0.4,2.6,0.7,3.9
			c0.2,0.8,0.5,1.6,0.9,2.4c0.8,0.8,1.6,1.5,2.6,2c0.4-2-0.3-4-1.5-5.5c-0.5-0.7-1.4-1.1-2-1.6c-0.2-0.4-0.3-0.7-0.4-1.1
			c2.5,0.3,4.8,1.3,7.2,1.9c1.9,0.6,4.1,0.9,5.5,2.5c1,1.2,2.3,2.2,2.6,3.7c-1.5,0-2.9,0-4.4,0.2c-2.8,0.3-5.6,1.5-8.4,0.6
			c0-1-0.7-1.9-1.1-2.8l-0.1,0c-0.2-0.2-0.5-0.4-0.7-0.6C77,81,77.7,81.9,77.9,83.1z M57.7,58.2C57,59.4,55.5,60,55,61.4
			c-0.2,1.8,0.2,3.6,0.4,5.3c-0.5-0.5-1.3-0.9-1.2-1.7c0-1.3,0.1-2.6-0.2-3.8c0.6-1,1.2-2,1.5-3.2c0.1-0.6,0.3-1.1,0.7-1.6
			C56.9,56.9,57.6,57.4,57.7,58.2z M57.7,56.8c0.4-0.2,0.8-0.3,1.1-0.5c0.2,0.3,0.4,0.5,0.6,0.8c-0.5,0.2-0.9,0.5-1.3,0.8
			C57.9,57.6,57.8,57.2,57.7,56.8z M55.4,62.1c-0.1-1.1,0.8-1.8,1.5-2.5c0.9-0.7,1.5-1.6,2.5-2.2c1.2,0.7,0.7,2.3,0.6,3.4
			c-0.6,1.3-1.9,2.6-1.6,4.2c0.3,1.5,0.3,3,0.5,4.5c-0.9-0.4-2.3-0.5-2.7-1.6C55.6,66,55.5,64,55.4,62.1z M58.9,65.2
			c-0.2-1,0.1-2.1,0.7-2.9c0.7-1,1.2-2.1,1.8-3.1c0.1-0.3,0.5-0.4,0.8-0.6c0.6,0.7,0.9,1.6,1,2.5c0.1,0.7,0.4,1.5,0,2.3
			c-0.3,0.7-0.7,1.4-0.8,2.2c0,1.6,0.4,3.2,0,4.8c-1.1,0.1-2.1,0.2-3.1,0.3C59.2,68.8,59.3,67,58.9,65.2z M63.1,70.3
			c0-1.3,0-2.6-0.1-3.9c-0.1-0.6,0-1.2,0.2-1.8c0.7-1.4,1.3-2.9,1.6-4.4c0.5,0.2,1.1,0.3,1.3,0.9c0.8,1.7,0.6,3.8-0.2,5.5l0.4,0
			c0,0.3,0.1,0.7,0.1,1c0.1-0.2,0.3-0.5,0.4-0.7c0.2,0.7,0.3,1.3,0.6,2c-0.2,0.6-0.4,1.3-0.8,1.8C65.4,70.4,64.2,70.3,63.1,70.3z
			 M67.9,68.9c1.1,0.4,2.1,0.9,3.2,1.4c-0.4,0.4-0.7,1-1.2,1.1c-0.9-0.1-1.9-0.4-2.8-0.6C67.7,70.4,68,69.7,67.9,68.9z M82.4,70.4
			c0.3-0.2,0.5-0.5,0.8-0.7c-0.4,1.7-0.9,3.4-1,5.2c-1.1-0.5-2.3-1-3.4-1.6c0-0.8,0.1-1.5,0.2-2.3c0.1-0.3,0-0.6-0.2-0.8
			c-0.2,1-0.2,2-0.2,3.1c-0.8-0.4-1.8-0.7-2.5-1.3c0-1.4,0-2.9,0.4-4.3C78,69.1,80,70.7,82.4,70.4z M84.2,66.5
			c0.3-2.9,1.9-5.4,4.1-7.3c0.3,0.1,0.5,0.2,0.8,0.3c-0.9,0.5-1.4,1.3-2,2c-0.8,1.1-1.5,2.3-1.9,3.6c-0.4,3.4-1.4,6.7-1.7,10.1
			c-0.3-0.1-0.5-0.2-0.8-0.3C83,72.1,83.8,69.4,84.2,66.5z M83.1,69.5c-0.5-1.5-1.1-2.9-1.8-4.2c0.8,0.4,1.6,0.7,2.4,1
			C83.6,67.3,83.4,68.4,83.1,69.5z M89.8,68.6c0.1-0.6,0.2-1.1,0.2-1.7c0.6,0.8,1,1.6,1.4,2.5C90.9,69.1,90.4,68.8,89.8,68.6z
			 M101.4,74.3c0.3,0.2,0.7,0.3,1,0.5c0.6,1.5,0.6,3.2,0.8,4.8c-2.2-1-3.5-3.1-5.6-4.3c-2.7-1.7-6.1-1.8-9-2.9
			c-0.5-0.2-0.8-0.6-1.2-0.9c0.3-1,0.5-2.1,0.7-3.1C92.5,70.3,96.9,72.3,101.4,74.3z M89.4,68.4c-0.6-0.3-1.2-0.6-1.8-0.8
			c-0.3,3-1.2,5.8-1.6,8.8c-0.8-0.2-1.6-0.5-2.4-0.9c0.8-3.6,1.4-7.2,2.1-10.8c0.7-1.9,2-3.5,3.5-4.9c0.6,1.4,0.8,3,0.9,4.5
			C90,65.7,89.6,67.1,89.4,68.4z M82,75.2c-0.5-0.1-0.9-0.2-1.3-0.4c-1.8-0.8-3.6-1.6-5.2-2.7c1.3,0.6,2.5,1.2,3.8,1.8
			C80.1,74.4,81.2,74.5,82,75.2z M75.9,71.9c-1-0.4-2-0.9-3-1.3c0.1-1.5-0.1-3.1,0.2-4.6c0.6,0,1.3-0.1,1.8-0.3
			c-1.1-0.2-2.3-0.1-3.2,0.6c-1,0.7-1.7,1.8-2.3,2.9c-0.5-0.5-0.4-1.3-0.4-1.9c0.1-0.9,0-1.8,0.3-2.6c1.1-1,2.6-1.4,4-1.3
			c1.3,1,2,2.5,2.7,3.9C75.7,68.8,75.6,70.3,75.9,71.9z M72.8,70.5c-1-0.4-2-0.8-3-1.3c0.7-1.3,1.6-2.6,3-3.2
			C72.5,67.5,72.5,69,72.8,70.5z M71.5,70.5c0.9,0.5,1.9,0.7,2.7,1.3c1.4,1.1,3,1.9,4.6,2.6c-1.7-0.4-3.4-0.7-5-1.5
			c-1-0.5-2.2-0.8-3.2-1.3C70.8,71.2,71.2,70.8,71.5,70.5z M76.4,76c1.5,0.7,2.4,2.3,2.9,3.9c0.2,0.7,0.2,1.4,0.2,2.1
			c-0.7-0.5-1.4-1-1.8-1.7C77.1,78.9,76.8,77.4,76.4,76z M103.6,79.5c0.1,0,0.3-0.1,0.4-0.1c-0.1-0.2-0.2-0.3-0.3-0.5
			c0.6-0.3,0.7-0.9,0.9-1.4c0.4-1,1-1.9,1.3-3c-1.2,1.1-1.3,3-2.3,4.1c-0.1-1-0.1-2.1-0.4-3.1c-0.2-0.8-0.3-1.6-0.1-2.4
			c0.8-2.6,2.4-4.9,4.1-7c1.6-1.8,3.4-3.4,5.2-5c0.1,0,0.2,0,0.3-0.1c-0.1,0.3-0.3,0.4-0.5,0.6c-1.8,1.7-3.5,3.5-5.1,5.4
			c-0.3,0.4-0.6,0.8-0.9,1.3c2.3-2.5,4.8-5,7.1-7.5c-0.1,0-0.2-0.1-0.3-0.2c0,0,0.1-0.1,0.1-0.1c2.3-1.7,4.6-3.2,7.2-4.3
			c1.4-0.6,2.9-1.3,4.5-1.3c-1.3,1.9-2.7,3.8-4.2,5.4c-0.5,0.5-1.1,0.9-1.7,1.3c-3.8,2.6-7.4,5.5-10.3,9.1c-1.4,2.3-2.7,4.6-3.7,7.1
			c-0.3,0.7-0.4,1.5-0.3,2.2c0.2,0.4,0.2,0.8,0.2,1.2C104.2,80.9,103.8,80.2,103.6,79.5z M58.1,52.6c-0.3-1.2-0.3-2.5-0.1-3.7
			c0.5-2.6,2.3-4.6,3.4-6.9L61.1,42c0.3-0.3,0.6-0.6,1-0.7c1.9-0.2,3.7,0.2,5.6,0.6c2.2,0.4,4.4,1.5,5.6,3.5c0,0.7,0,1.4-0.3,2
			c-0.2-0.4-0.5-0.9-0.8-1.3c0,0.4,0.1,0.8,0.2,1.1c-0.3-0.4-0.7-0.8-1.1-1.2c0.2,0.7,0.7,1.4,0.9,2.1c0.3,1.1,0.6,2.2,0.8,3.4
			c0.6,2.2,2.2,3.8,3.5,5.5c0.8,1,1.7,2,2,3.3c0.5,1.8,1.1,3.5,2.3,5c0.9,1.1,1.4,2.6,1.9,3.9c0.2,0.4-0.2,0.7-0.4,0.9
			c-2.1-0.1-4.1-1.2-5.4-2.8c-0.7-0.8-1.1-1.8-1.7-2.7c-0.5-0.7-1.3-1.3-1.9-2c-1-0.9-1.9-1.9-3.2-2.3c-1.3-0.4-2.5-1.1-3.7-1.8
			c-1-0.5-1.9-1.3-2.7-2.1c-0.5-0.6-0.8-1.2-1.3-1.7c0.1,1,1,1.7,1.6,2.5c-1.6-0.5-3-1.3-4.5-1.9c-0.6-0.2-0.9-0.9-1.2-1.4
			C58.3,53.5,58.2,53,58.1,52.6z M56.5,52.6c0.5,0.3,0.9,0.8,1.3,1.3c0,0.2-0.1,0.5-0.1,0.6c-3.2-1.5-6.5-2.7-9.8-4
			C50.9,50.4,53.9,51.1,56.5,52.6z M32.9,54.6c-0.2-0.9-0.2-1.9-0.1-2.9c0.2-1.8,0.1-3.8,1-5.5c0.2-0.3,0.6-0.9,1-0.5
			c0.9,0.6,1.9,1.2,2.9,1.8c-0.6,1.1-1.2,2.2-1.4,3.5c-0.4,1.8-0.2,3.6,0.1,5.4C35.2,55.8,34,55.2,32.9,54.6z M37,56.6
			c-0.6-1-0.4-2.3-0.4-3.5c-0.1-2,0.4-3.9,1.5-5.6c1,0,1.9,0,2.9,0c0.5,0,1.1,0.1,1.3,0.7C41,47.9,39.7,48,38.5,48
			c-1.2,2.2-1.6,4.8-1.2,7.3c0,0.8,0.9,0.9,1.5,1.1C38.2,56.5,37.5,57,37,56.6z M37.8,55.7c-0.5-1.1-0.3-2.4-0.2-3.6
			c0.3-1.2,0.5-2.6,1.1-3.7c1.6-0.5,3.3,0,4.7,0.8c1.9,0.9,3.9,1.5,5.9,2.4c-1.1,0-2.3-0.1-3.4,0.1c-0.4,0.3,0.5,0.5,0.7,0.5
			c1.3,0.4,2.4,1.1,3.7,1.4c0,0.1,0,0.4,0,0.6c1.1-0.3,2.3-0.4,3.5-0.5c-1-0.6-2.2,0.1-3.3-0.2c-1.2-0.5-2.4-1.1-3.6-1.6
			c1.4,0,3-0.5,4.3,0.3c1.9,0.8,3.8,1.3,5.6,2.4c1.6,0.7,3.2,1.3,4.7,2.1c0.9,0.4,1.8,1,2.8,1.3c1.3,0.4,2.4,1.4,3.7,2
			c1.8,0.7,3.5,1.7,5.1,2.9c-1.3,0.2-2.5,0.6-3.5,1.3c0.1-0.4,0.2-0.7,0.3-1.1c0.6-0.3,1.3-0.6,1.9-0.9c-0.7,0-1.4,0.3-2,0.7
			c-0.8,1.9-1,3.9-0.7,5.9c-0.4-0.1-0.7-0.3-1.1-0.4c-0.2-0.9-0.7-1.7-1-2.6c0.3-1.3,0.5-2.6,0.2-4c0.6-0.4,1.3-0.8,2-1.1
			c-0.8,0.1-1.6,0.4-2.1,1c-0.3-0.9-1-1.7-2-1.8c-0.6,0.5-0.6,1.4-0.9,2c-0.4-1.3-0.4-2.9-1.6-3.7c-1,0-1.4,1.1-1.7,1.8
			c0-0.6,0.3-1.4,0-2c-0.4-0.7-0.9-1.3-1.3-2c-0.6,0.1-1.3,0.2-1.9,0.5c-0.3-0.2-0.7-0.4-1-0.7c-1.3,1.4-1.3,3.5-2.6,4.9
			c-0.1-1.9,0.5-3.7,1.6-5.3c0.7-0.1,1.4-0.1,2.1-0.5c-0.7-0.1-1.4,0-2.1,0.2c-0.6,0.8-1.3,1.6-1.5,2.6c-0.6,1.5-0.4,3.1-0.3,4.7
			c-0.9-0.4-2-0.7-2.9-1.1c-3-1.4-6-2.8-8.9-4.2C40.3,56.7,39.1,56,37.8,55.7z M38.8,107.9c-2.1,0.1-4.3,0-6.2-0.8
			c-0.7-0.6-1.1-1.4-1.5-2.2c-2-3.5-3.4-7.4-3.7-11.4c-0.4-2.5-0.2-5-0.2-7.5c0.3-3,0.6-6,1.6-8.8c1.2-4.1,3-8.1,5.4-11.7
			c1.8-2.8,4.1-5.3,6.5-7.7c0.2-0.3,0.6-0.1,0.9,0.1c4.1,2,8.2,3.9,12.4,5.6c0,0.8-0.2,1.7,0.2,2.4c0.3,0.7,1.1,1,1.6,1.5
			c0.1,0.4,0.1,0.8,0.3,1.2c0.7,0.9,1.9,1.1,2.9,1.2c0.1,0.4,0.2,0.7,0.3,1.1c-1.8,0.4-3.6,1.1-5.3,1.8c-1.6,0.4-3,1.3-4.2,2.3
			c-3,2.8-5.7,6-7.7,9.6c-1.4,2.8-2,6-1.7,9.2c-0.1,3.1,0.8,6.1,2.1,8.8c0.5,1.2,1.3,2.2,1.9,3.4C42.5,106.9,40.7,107.8,38.8,107.9z
			 M85.4,108.5c-2.6,1.3-5.3,2.6-8.1,3.6c-3.2,1.3-6.6,1.9-10,2.4c-3.8,0.2-7.6-0.2-11.2-1.5c-1.9-0.7-3.7-1.5-5.5-2.5
			c-2-1.4-4.2-2.6-5.5-4.6c1.1-1.3,2.7-2,4.2-2.6c3.1-1.3,6.4-2.4,9.8-2l0.1,0.3c0.1-0.2,0.2-0.4,0.3-0.6c-4.6-0.4-9.2,1.3-13.2,3.5
			c-0.6,0.3-1,1-1.7,1.1c0.7-0.9,1.6-1.6,2.6-2.1c3.8-2,8.1-3.1,12.4-3.1c-0.7-0.5-1.6-0.2-2.4-0.2c-2.7,0.1-5.2,0.9-7.7,1.8
			c-1.8,0.8-3.8,1.6-5.1,3.2c-1.6-2.4-2.8-4.9-3.5-7.7c-0.3-1-0.1-2-0.2-2.9c-0.5-3.7,0.1-7.7,2-10.9c1.8-3,4.1-5.7,6.7-8.1
			c0.7-0.7,1.7-0.7,2.6-1c1.3-0.5,2.6-0.8,4-0.8c-0.3-0.2-0.7-0.3-1.1-0.4c0.2,0,0.4,0,0.7,0c0.3-0.4,0.8-0.3,1.3-0.3
			c1,0.1,1.9,0,2.9,0c0.8,0.1,1.5,0.4,2.3,0.6c-0.6-0.1-1.2-0.2-1.8-0.3c0.6,0.8,1.6,0.8,2.5,1.2c0.8,0.4,1.5,0.8,2.4,1.1
			c-0.4-0.4-0.8-0.7-1.2-1c0.1,0,0.3-0.1,0.4-0.1c-2.6-2.1-6.3-2.4-9.4-1.6c-1.1,0.2-2.2,0.7-3.3,1.1c1.2-0.7,2.6-1.1,3.9-1.6
			c3.7-1.3,7.9-2.1,11.8-1c-1.3,0.2-2.5,0.7-3.5,1.6c1.9,2,3.8,4,6,5.7c1.6,1.2,3.2,2.3,5,3.3c0.8,0.5,1.6,1.1,2.5,1.4
			c-0.1,0.2-0.3,0.5-0.4,0.6c0.4-0.1,0.8-0.3,1.2-0.5c3.7,1.3,7.5-0.7,11.3-0.6c0.7,0,1.4,0.1,2-0.2c0.5-0.6,0-1.2-0.3-1.8
			c-0.6-1.1-1.6-1.9-2.4-2.9c1.6,0.8,3.4,1.5,4.7,2.8c-0.6-0.2-1.1-0.4-1.7-0.6l0,0.3c-0.2,0-0.5,0.1-0.7,0.1c1.3,0.7,2.6,1.4,3.9,2
			c-0.4-0.7-1.2-1-1.8-1.5c1.9,0.7,3.4,2.1,4.7,3.6c-1-0.3-1.9-1.3-3-1.1c1.6,1,3.6,1.4,4.9,2.8c0.5,0.6,1.1,1.1,1.5,1.8
			c0.5,2.4-0.7,4.7-2.2,6.4c-0.5,0.4-1.1,0.5-1.6,0.9c0.3,0,0.8-0.1,1-0.1c-0.7,0.6-0.9,1.6-1.6,2.2c-2.5,2.6-5,5-7.5,7.6
			C88.2,106.8,86.9,107.8,85.4,108.5z M62.2,73.8c0.5,0.1,1.1,0.3,1.6,0.5l0,0.3C63.3,74.4,62.7,74.1,62.2,73.8z M89.3,108.8
			c-0.2-0.6-0.4-1.1-0.6-1.7c0.6-0.5,1.1-1,1.8-1.5c0.5-0.2,1.1-0.3,1.7-0.4c-0.2,0.7-0.4,1.4-0.6,2c-0.3-0.6-0.5-1.3-1.1-1.6
			c0.2,0.6,0.5,1.2,0.8,1.8c-0.3-0.1-0.7-0.2-1-0.3C90,107.8,90.1,108.7,89.3,108.8z M72,138c0.5,0,0.2,0.8,0.1,1
			c-0.9,1.2-2.1,2.3-3.7,2.5c-1.1,0.1-2.3,0.2-3.2-0.5c-1.5-1.1-2.5-2.7-3.3-4.3c-0.4-0.8-0.6-1.8-0.2-2.6c1-1.7,2.7-3,4.6-3.2
			c0.1,2.2,1,4.3,2.7,5.7C69.9,137.2,70.9,138,72,138z M75.4,134.8c-1.6-0.7-3-2-3.9-3.5c-0.6-1-0.7-2.2-0.8-3.4
			c-0.6,1.4-0.1,3,0.8,4.2c0.9,1.3,2.1,2.3,3.5,3c-1,0.9-2,2-3.4,2.4c-2.4-1.1-4.1-3.3-4.6-5.9c1.3,1.4,3.3,2.3,5.2,1.8
			c-1.8-0.2-3.9-0.6-5.1-2.2c0.4-1.1,1.5-1.7,2.3-2.5c1.5-1.1,2.8-2.4,4.3-3.5c0.3,2.9,2.6,5.2,5.2,6.3
			C77.8,132.6,76.5,133.6,75.4,134.8z M80.3,130.4c-0.3,0.4-0.7,0.6-1.1,0.9c-0.9-0.5-1.8-1-2.5-1.6c-1.3-1.1-2.2-2.7-2.8-4.4
			c0.1-0.5,0.6-0.7,0.9-1.1c2.1,2.6,5.7,3.4,9,3C82.6,128.2,81.4,129.2,80.3,130.4z M85.8,125.3c-0.5,0.5-1.1,0.1-1.5-0.2
			c-1-0.7-2.1-1.5-2.7-2.6c-0.5-0.8-0.8-1.7-1.1-2.5c0,2.8,2.2,5,4.6,6c-1.6,1.3-3.7,1.2-5.6,0.7c-1.7-0.4-3.5-1.1-4.5-2.6
			c1-1,2.3-1.8,3.3-2.8c1.8-1.5,3.6-3,5.4-4.4c0.1,1.8,1.4,3.3,2.8,4.3c0.7,0.6,1.5,1.1,2.4,1.3c-1.1-1-2.5-1.6-3.4-2.7
			c-0.8-0.8-1.3-2-1.5-3.2c1.7-1.3,3.3-2.7,4.9-4c0.5,0.2,0.9,0.3,1.4,0.4c-0.2,0.8-0.4,1.6-0.4,2.4c0.4,1.6,1.1,3.1,2.2,4.3
			C90,121.5,88,123.4,85.8,125.3z M93.7,120.6c-1.5-1.5-2.6-3.3-3.3-5.3c0.6-2.4,1.1-4.9,1.6-7.3c0.2-1,0.3-2,0.7-2.9
			c0.9-1.1,2.1-1.9,3.4-2.5c1.7-0.9,3.7-0.5,5.4,0c2.5,0.5,5,1.1,7.5,1.6c1.8,0.4,3.6,1.1,5.5,1.2c0.1,0.2,0.2,0.5,0.3,0.7
			c-5.5-1-11-2.4-16.6-3.5c0,0.1,0.1,0.4,0.2,0.5c-2,0.3-3.4,1.8-4.7,3.1c-0.6,2.5-1.1,4.9-1.6,7.4c-0.4,1.4,0.3,2.8,1.1,3.9
			c0.9,1.2,2,2.2,3.2,3.1c3.4,0.8,6.9,1.7,10.3,2.3c1.4,0.3,2.9,0.4,4.3,0.8c-0.3,0.2-0.5,0.4-0.8,0.6
			C104.7,123,99.2,121.8,93.7,120.6z M133.6,106.9c-1.7,0.9-3.4,1.6-4.9,2.7c-1.6-0.5-3.2-0.8-4.8-1.2c-0.2-0.3-0.4-0.7-0.7-1
			c-0.6-0.3-1.2-0.4-1.9-0.5c-0.8-0.1-1.4,0.5-2.2,0.3c-0.8-0.2-1.6-0.4-2.4-0.6c2.2-1.3,4.8-1.5,7.3-1.8c3.2-0.1,6.5-0.1,9.7,0.5
			c2.1,0.3,4.1,0.9,6.1,1c0.3,0.2,0.6,0.3,0.9,0.4c-0.4,0-0.8,0-1.2-0.2C137.6,106.1,135.5,106.2,133.6,106.9z M143.9,107.3
			c0,0.6,0.1,1.2-0.1,1.9c-0.6,0.8-1.5,1.4-2.4,1.7c-0.9,0.3-1.7,0.8-2.6,1.1c-1.3,0.4-2.6,0.4-4,0.4l0,0.2c0.4,0.1,0.8,0.1,1.2,0.2
			c-0.2,0.1-0.4,0.2-0.7,0.3c-1.3-0.6-2.8-0.6-4.2-0.9c0.1-0.1,0.3-0.3,0.4-0.4c-0.2-1.2-1.3-1.9-2.5-1.8c0.8-0.6,1.8-0.8,2.6-1.3
			c1.5-0.9,3.1-1.8,4.8-1.7C139,107,141.5,107.5,143.9,107.3z M123.2,128.9c0.7,2,1.9,3.8,2.5,5.9c-2.9-1.2-5.5-2.7-8.1-4.4
			c-1.8-1.1-3.4-2.5-5.2-3.5c0.3-0.4,1,0.2,1.4,0.3c1.3,0.7,2.9,0.2,4.2,1C119.6,129,121.5,129.1,123.2,128.9z M104.5,123.9
			c-1.1-0.1-2.1-0.4-3.1-0.5c0-0.1,0-0.4,0-0.6c2.3,0.6,4.6,0.9,6.9,1.6c1.2,0.7,2.3,1.5,3.4,2.3c-0.2,0-0.5-0.1-0.7-0.1
			c0.7,0.8,1.6,1.4,2.4,2c4.6,3.6,9.5,6.8,14.8,9.3c-6-0.3-11.3-3.4-16.1-6.8c-1.7-1.2-3.3-2.5-4.9-3.8c-1.1-1-2.1-2-3.3-3
			c0.2,0,0.6,0.1,0.8,0.1C104.6,124.4,104.6,124.1,104.5,123.9z M119.2,128c-1.1-0.4-2.2-0.8-3.1-1.5c-0.8-0.5-1.5-1.1-2.4-1.4
			c0.6,0.9,1.6,1.4,2.4,2.1c-2.3-0.2-4.5-1.1-6.4-2.5c0.8,0,1.5,0.1,2.3,0.4c-0.4-0.2-0.7-0.5-1.1-0.7c0.5-0.1,1-0.4,1.5-0.2
			c0.9,0.3,1.9,0.5,2.9,0.7c0.4,0.3,0.6,0.7,0.9,1c0.9,0.2,1.8,0.3,2.6,0.6c0.3-0.2,0.6-0.5,0.9-0.7c0.8,0.2,1.8,0.1,2.6,0.6
			c0.4,0.7,0.6,1.4,0.9,2.1C121.8,128.4,120.5,128.5,119.2,128z M115.8,125c1.1,0.1,2.3,0.4,3.4,0.6c-0.5,0.6-1.4,0.2-2,0.1
			C116.7,125.5,116.1,125.5,115.8,125z M113.3,124c-0.7-0.1-1.3-0.3-1.9-0.5c0.2-0.6,0.3-1.3,0.4-1.9c3.9,0,7.8-0.1,11.7-0.2
			c1.5-0.1,3.2,0.4,4.4-0.7c1.5-1.1,1.8-3.4,0.7-4.9c-0.6-1-1.8-1.3-2.8-1.8c-3.5-1.9-7.1-3.7-10.8-5.3c-0.1-0.6,0.2-1.3,0.3-1.9
			c3,0.6,5.9,1.6,8.9,2.2c2,0.4,3.9,0.9,5.8,1.4c0.4,0.1,1,0.4,0.9,0.9c-1,4.9-2.2,9.7-3.2,14.6c-0.7,0.4-1.6,0.9-2.4,0.5
			C121.4,125.5,117.3,124.9,113.3,124z M107.8,112.3c1.8,0.3,3.5,0.8,5.3,1.2c-0.2,0.9-0.5,1.8-0.5,2.7c-1.8-0.3-3.5-0.8-5.3-1.1
			C107.6,114.1,107.8,113.2,107.8,112.3z M103.5,117.6c-2.8,1-6-0.9-6.8-3.7c-0.3-1.2-0.3-2.5,0.2-3.6c0.8-2,2.8-3.3,5-3.3
			c2.1-0.1,4.1,1.2,4.9,3.1c0.5,1.1,0.5,2.3,0.4,3.5C106.8,115.5,105.3,117.1,103.5,117.6z M114.7,109.1c4.3,1.8,8.4,4.1,12.6,6.2
			c1.5,0.9,1.8,3.2,0.7,4.6c-0.5,0.5-1.1,1-1.9,1c-4.8,0.3-9.5,0-14.3,0.4C112.8,117.2,113.7,113.1,114.7,109.1z M120.6,107.6
			l-0.2-0.3c0.9,0,1.7,0.2,2.6,0.3c0.1,0.2,0.2,0.5,0.4,0.7C122.4,108.1,121.4,107.9,120.6,107.6z M131.3,112.5
			c2.7,0.7,5.4,1.1,8,1.8c-0.8,0.7-1.5,1.5-2.1,2.3c-2.2-0.6-4.4-1-6.5-1.6C130.9,114.2,131.1,113.4,131.3,112.5z M129.2,121.7
			c1.9,0.3,3.7,0.7,5.5,1.1c-0.9,0.5-1.9,1-2.6,1.7c-1.1-0.3-2.2-0.6-3.4-0.7C128.9,123.1,129.1,122.4,129.2,121.7z M129.4,120.8
			c0.5-1.8,0.8-3.5,1.2-5.3c3.9,1,7.8,1.9,11.6,2.9c1.3,0.4,2.8,0.5,4.1,1c0.1,1.7-0.7,3.3-1.1,4.9
			C139.9,123.4,134.6,122.1,129.4,120.8z M137.6,116.8c0.7-0.9,1.6-1.7,2.5-2.4c0.5,0,1.2,0.2,1.6-0.2c-0.2,0-0.7-0.1-1-0.2
			c1-0.6,2.2-0.9,3.4-0.6c0.9,0.4,1.2,1.5,1.2,2.4c-0.1,0.9-0.4,1.8-0.6,2.7C142.3,118.1,140,117.3,137.6,116.8z M140,113.8
			c-1.3,0-2.5-0.4-3.7-0.6c0.6-0.5,1.3-0.4,2-0.6c1-0.1,1.8-0.5,2.7-0.8C140.7,112.5,140.5,113.2,140,113.8z M113.2,112.9
			c-1.8-0.2-3.6-0.8-5.4-1c-0.3-1.6-1-3.1-2.3-4c-1.5-1.2-3.6-1.6-5.3-1c-2.1,0.6-3.8,2.5-4.1,4.6c-0.1,1.1-0.1,2.3,0.4,3.4
			c0.9,2.1,3.1,3.6,5.4,3.5c1.7,0.1,3.5-0.7,4.5-2.1c0.2-0.2,0.4-0.5,0.6-0.7c1.8,0.2,3.5,0.8,5.3,1.1c-0.3,1.6-0.7,3.2-1,4.9
			c-0.1,0.6-0.2,1.3-0.6,1.9c-2-0.6-4.1-0.9-6.2-1.4c-2.4-0.6-4.8-1.1-7.2-1.6c-1.1-0.2-1.9-1.1-2.7-1.8c-1-1.1-2.1-2.4-2.2-3.9
			c0.4-2.3,1-4.5,1.5-6.8c0.1-0.6,0.2-1.2,0.6-1.7c1.5-1.6,3.5-2.9,5.7-2.6c4.8,1.1,9.5,2.1,14.3,3.2
			C114.1,108.7,113.5,110.8,113.2,112.9z M127,139.9c-4.3,0.5-8.6,0-12.7-1.3c-5.4-1.5-9.8-5.3-13.5-9.3c-2.1-2.5-4.1-5.1-5.8-7.9
			c1.3,0.2,2.6,0.6,3.9,1c1.8,2.2,3.6,4.3,5.7,6.2c3.3,2.9,6.8,5.8,10.8,7.7c1.7,0.8,3.5,1.1,5.3,1.3c-1.4-0.3-2.9-0.6-4.3-1.2
			c-3.1-1.3-5.9-3.3-8.5-5.3c-3.1-2.5-6.1-5.4-8.6-8.5c0.5,0.1,1,0.2,1.5,0.3c0,0.2-0.1,0.7-0.1,0.9c0.8,0.3,1.6,0.3,2.3,0.6
			c1.4,1.2,2.7,2.5,4,3.7c3.4,2.7,6.9,5.3,10.7,7.3c3.4,1.8,7.1,3,11,3c0.7,0,1.4,0.4,2,0.7C129.6,139.3,128.3,139.8,127,139.9z
			 M187.6,129.5c0.5,0.9,0,2.1-0.6,2.9c-1.4,1.5-3.5,2-5.5,2.1c0.1,0.1-0.9,0-0.5-0.1c1.4,0,2.8-0.7,3.7-1.7c0.7-0.7,0.8-1.8,1-2.7
			c0.3,0.3,0.5,0.6,0.8,0.9c-0.2-0.5-0.6-0.8-0.9-1.3c-0.3-0.8-0.6-1.7-1-2.4C185.7,127.7,186.7,128.5,187.6,129.5z M176.5,124.8
			c2.5-0.1,5,0.7,7.2,1.7c0.4,0.7,0.8,1.4,1,2.1c-1.6-1-3.4-2-5.4-2c-4.6-0.1-8.9,2-12.5,4.6c-2.4,1.9-5,3.6-7.6,5.2
			c-1,0.8-2.2,1.2-3.3,1.8c-2.2,1.1-4.6,1.8-7,2.2c-6,0.5-12.1-0.1-17.7-2.2c-1.2-0.5-2.4-0.8-3.5-1.3c-4-1.9-8-4.1-11.6-6.8
			c-0.9-0.6-1.7-1.2-2.6-1.8l0-0.2c3.9,2.9,7.9,5.5,12.4,7.3c0.9,0.4,1.6,1.3,2.5,1.6c1.2,0.5,2.5,0.1,3.7,0.4
			c4.3,1.1,8.8,1.2,13.2,0.8c3-0.4,5.9-1.3,8.7-2.4c2-1.2,4-2.2,5.9-3.6c0.8-0.6,1.7-1.2,2.6-1.5c1.2-0.5,2.2-1.5,2.2-2.9
			C168.4,126.1,172.3,124.7,176.5,124.8z M141.3,138c0.5-0.2,0.9-0.4,1.4-0.6c1,0.1,2,0.1,2.9,0.4C144.2,138,142.7,137.9,141.3,138z
			 M147.6,137.4c1.1-0.7,2.4-1.6,3.8-1.2C150.1,136.8,148.8,137,147.6,137.4z M163.7,121.8c0.2,2.4,0.8,4.8,0.3,7.1
			c-0.4,1-1.6,1.2-2.4,1.7c-1.5,1-3.1,1.7-4.6,2.8c-1.3,1-2.8,1.6-4.3,2.4c-0.7-0.1-1.3-0.2-2-0.4c-1.6,0.2-2.8,1.3-4.3,1.9
			c-1.2-0.3-2.5-0.1-3.7-0.6c-1,0.4-2,1.2-3.2,1c-1.4,0-2.7-0.7-4-1c-2.2-0.5-4.5,0.3-6.7-0.1c-0.9-0.2-1.4-0.9-2-1.5
			c-1-0.8-1-2.2-1.6-3.2c-0.7-1-1.1-2.2-1.5-3.4c0.2,0,0.6-0.1,0.8-0.1c-0.3,0-0.6-0.1-0.9-0.1c-0.3-0.7-0.6-1.4-1-2.1
			c1.6,0.2,3.3,1.2,4.9,0.3c1-0.4,0.8-1.6,1.1-2.4c1.1,0.1,2.1,0.4,3.2,0.6c-0.5,0.5-1,1-1.5,1.6c-0.8,0.2-1.5,0.5-2.2,1
			c0.6,0,1.2-0.1,1.7-0.4c-0.8,0.8-1.6,1.7-1.9,2.9c0.5-0.6,0.9-1.2,1.4-1.7c-0.2,0.6-0.4,1.2-0.4,1.8c0.6-1,1-2.2,1.7-3.2
			c1-1.3,2.2-2.4,3.6-3.3c-0.1,0.8-0.3,1.5,0,2.3c0.2-1,0.5-2,0.8-3c2.6,0.6,5.2,1.2,7.8,1.6c-0.4,1.5-1.2,3-1.6,4.5
			c-0.2,1.1-1.3,1.8-2.1,2.5c-1.1,0.7-2,1.6-3.2,2.1c-0.9,0.4-1.4,1.3-2,2.1c0.8-0.1,1.2-0.9,1.9-1.4c1.6-1.1,3.3-2.1,4.8-3.5
			c0.6-0.5,1-1.2,1.2-2c0.1-0.8,0.6-1.4,0.9-2.1c-0.3,0.7-0.2,1.4,0.1,2c0.1-0.1,0.3-0.3,0.4-0.4c0.1,0.5,0.6,0.7,1,1
			c-1-1.3-1.5-3.1-0.9-4.6c0.7,0.2,1.4,0.3,2.1,0.4c1.1-1.8,1.8-3.8,1.4-5.9c-0.5-0.1-1-0.2-1.5-0.3c0.3-1.3,0.8-2.7,0.5-4.1
			c-0.1-1.1-1.2-1.9-2.3-2c-0.9,0-1.7,0.3-2.5,0.5c0.3-0.7,0.4-1.5,1.2-1.8c1-0.5,1.9-1.2,2.4-2.3c1.4-0.2,2.6,0.5,3.8,1.1
			c0.6,0.3,1.3,0.6,1.4,1.3c0.3,1.3,0.6,2.6,0.7,3.9c0,3.9,0.5,7.7,1.1,11.5c0,1.9-1.3,3.6-2.9,4.5c-1.2,0.6-2.3,1.5-3.4,2.4
			c-0.6,0.5-1.2,1.1-1.4,1.8c1.2-0.7,2.1-1.9,3.3-2.6c1.2-0.6,2.2-1.5,3.2-2.4c0.8-0.7,1.1-1.7,1.6-2.6c-0.3-3.7-0.9-7.4-1.1-11.2
			c0-0.9,0-1.8-0.2-2.7c-0.2-0.8-0.4-1.6-0.3-2.5c0.9-0.7,2.1-0.9,3.1-0.5c1.1,0.4,2.4,0.7,3,1.8c1,2.1,1,4.4,1.4,6.6
			c0.4,2.6,1,5.3,0.8,8c-0.1,0.7-0.6,1.2-1.1,1.6c-1.1,0.9-2.4,1.5-3.4,2.4c-1.2,0.8-2.8,1.7-2.9,3.4c0.8-0.5,1.2-1.6,2-2.1
			c1.8-1.2,3.5-2.4,5.1-3.8c0.6-0.5,0.9-1.3,0.9-2.1c0-2,0.1-4.2-0.6-6.1c-0.4-2.2-0.7-4.4-1.1-6.6c1.5-0.1,3.1,0.2,4.2,1.3
			c0.5,0.5,1.2,1.1,1.2,1.9C163.3,118.9,163.5,120.4,163.7,121.8z M163.6,117.6c-0.1-0.5-0.1-0.9-0.2-1.4c-0.2-0.2-0.5-0.4-0.7-0.6
			c1.6-1.2,3.6-1.8,5.5-2C166.4,114.6,165,116,163.6,117.6z M163,97.2c4.3,1.7,8.6,3.2,12.9,4.9c10.7,4.2,21.5,8.3,32.3,12.4
			c0.5,0.2,1,0.4,1.3,0.8c2.1,2.9,4.3,5.9,5.4,9.4c0.7,2.2,1.1,4.4,0.9,6.7c-14.2-5.5-28.4-11-42.5-16.5c-1.7-0.7-3.5-1.4-5.2-2
			c0,0.1-0.1,0.4-0.1,0.5c-0.4-0.1-0.8-0.2-1.1-0.1c-1.6,0.3-3.1,1-4.4,1.9c-1.3-1.2-3.1-1.5-4.8-1.4c-0.3-0.7-0.5-1.4-1.1-1.9
			c-0.6-0.6-1.4-0.7-2.2-1c-0.6-0.2-1.2-0.6-1.9-0.6c-0.7,0-1.4,0.3-2,0.6c-0.3-0.4-0.7-0.9-1.2-1.1c-1.4-0.7-2.9-1.5-4.6-1.3
			c0-0.4-0.1-0.7-0.1-1.1c1-0.1,1.9-0.6,2.7-1.3c0.4-0.2,0.7-0.8,1.2-0.5c6.3,2.5,12.6,4.9,18.9,7.4c0.2-0.1,0.3-0.2,0.4-0.4
			c-5.1-1.8-10.1-3.9-15.2-5.8c-1.4-0.5-2.7-1.1-4.1-1.5c1.2-0.9,2.5-1.6,3.5-2.7c1-0.4,2-0.7,2.9-1.1c2.4-1.2,4.8-2.3,6.9-3.8
			C162.1,97.4,162.5,96.9,163,97.2z M197.9,107.9c0.1-0.1,0.2-0.3,0.3-0.4c-0.3-0.1-0.7-0.2-1.1-0.3c0.1,0.1,0.4,0.4,0.5,0.6
			c-1.1-0.4-2.1-0.8-3.1-1.3c-2-1.3-3.6-3.5-3.5-6c-0.1-1,0.4-1.8,0.8-2.6c0.2-0.1,0.5-0.2,0.7-0.2c-0.3-0.5-0.9-0.4-1.3-0.1
			c0-0.2,0.1-0.5,0.1-0.6c-1,0.7-1.5,1.9-1.6,3.1c0.2-0.1,0.5-0.2,0.6-0.3c0.1,0.5,0.1,1,0.2,1.5c-1.4-0.6-1.5-2.2-1.5-3.5
			c0-1.6-0.2-3.2-0.3-4.9c1,1.1,2.1,2,2.8,3.3c1,1.3,1.9,2.8,3.2,3.9c-0.1,0-0.4,0.1-0.6,0.1c-0.3,1.6-0.4,3.3,0.1,4.8
			c0.1-0.1,0.3-0.2,0.4-0.3c1.3,1.5,3.3,2.2,4.4,3.8C198.7,108.3,198.3,108.1,197.9,107.9z M190.3,99.6c0-0.7,0.3-1.4,0.8-1.9
			C190.9,98.4,190.7,99.1,190.3,99.6z M194.8,100.7c0.1,0.8,0.3,1.5,0.9,2.1c-0.3,0.5-0.6,1-0.9,1.4
			C194.4,103.1,194.5,101.9,194.8,100.7z M206.4,110.7c-0.3-0.5-0.9-0.4-1.4-0.6c-1.8-0.6-3.3-1.8-5-2.6c0.5,0.5,1.1,0.9,1.8,1.3
			l0,0.1c-0.9-0.6-2.1-0.7-2.8-1.6c-1.1-1.2-2.7-1.8-3.7-3c0.2-0.4,0.5-0.9,0.7-1.3c1.6,1.2,3.4,2.1,5.3,3c0.7,0.4,1.5,0.2,2.2,0.2
			c0.2-0.2,0.3-0.3,0.5-0.5c1.7,0.4,3.4,0.9,5.1,1.6C208.4,108.7,207.7,110,206.4,110.7z M216.4,97.3c-2.8-0.9-5.4-2.2-8.2-3.2
			c0.6,0.7,1.6,1,2.4,1.4c1.9,0.8,3.7,1.7,5.7,2.1c0,1.5-1.5,2.6-1.5,4.2c-0.2,0.2-0.4,0.4-0.5,0.6c-0.5-0.5-0.9-1-1.3-1.5
			c0.4,0.3,0.8,0.7,1.1,1.2c0.1-0.1,0.3-0.3,0.4-0.4c-1.7-1.6-3.3-3.4-5-5.1c-0.3-0.3-0.6-0.5-1-0.7c0.7,1.1,1.7,2,2.6,3.1
			c-0.7-0.6-1.3-1.2-1.9-2c-0.1,0.1-0.3,0.3-0.4,0.4c1.8,1.7,3.5,3.6,5.2,5.4c-0.5,1.1-0.7,2.3-1.1,3.4c-0.7,0.7-1.4,1.7-2.5,1.3
			c-1.7-0.6-3.4-1.5-5.3-1.8c0.4-0.1,0.8-0.1,1.2,0c0-0.1,0-0.4,0-0.5l-0.5,0c0.2,0,0.4-0.1,0.5-0.3l0-0.1c-0.1,0-0.4,0-0.6,0
			c0,0.2,0,0.5,0,0.6c-0.5,0-1.1,0.1-1.6,0.1c0.5-1.2,1.6-1.9,2.2-3.1c1-1.9,1.2-4,1.8-5.9c0.3,0.3,0.5,0.6,0.8,0.9
			c0-0.2,0-0.5,0-0.7c-0.2-0.2-0.4-0.4-0.7-0.6c-0.1-0.7-0.1-1.4-0.5-2c-1.4-0.8-3-0.9-4.4-1.7c-0.5-1.2-1.1-2.5-1.6-3.7
			c-0.2-0.5-0.8-0.4-1-0.1c-0.2,0.8,0.3,1.6,0.5,2.3c0.2,0.7,0.7,1.2,1.4,1.6c1.5,1,3.3,1.3,4.9,1.9c0.2,0.6,0.3,1.3,0.1,1.9
			c-0.4,1.7-0.8,3.4-1.3,5.1c-0.5,1.7-2.3,2.7-2.8,4.4c-0.6,0-1.2,0-1.8,0c-1-0.4-1.9-0.9-2.7-1.5c1.4,0.5,2.6,1.6,4.2,1.4
			c1.1-1.2,1.3-2.8,2.4-4c0.5-1.9,1.1-3.8,1-5.7c-0.9-2.2-3.7-2.2-5.2-3.7c-0.2-0.4-0.3-0.7-0.5-1c-0.4,1.4,1.1,2.1,2.1,2.6
			c1.2,0.6,2.9,0.9,3.3,2.4c-0.1,1.7-0.6,3.3-1,5c-0.9,1.3-1.2,2.9-2.3,4c-1.3,0-2.4-0.7-3.4-1.2c-1.2-0.6-1.9-1.9-3.2-2.3
			c0.7,1,1.8,1.7,2.6,2.5c-1-0.5-1.9-1-2.7-1.8c-0.7-0.6-0.6-1.7-0.7-2.6c-0.3-1.7,0.9-3,1.5-4.5c1.1-2.4,2.3-4.8,3.8-7
			c0.6-0.2,1.1-0.2,1.7-0.1c0.1,0.3,0.3,0.6,0.4,1c0,0.1-0.1,0.3-0.1,0.4c1.1,1.2,2.6,1.8,4.2,2c0.9,0.1,1.7,0.7,2.7,0.7
			c2.2,0.2,4.3,0.8,6.2,1.9C216.5,95,216.6,96.2,216.4,97.3z M202.7,92.1c-1.2-0.6-1.7-2.1-1.7-3.4C201.8,89.7,202,91,202.7,92.1z
			 M218.9,88.4c0.1,0.4-0.4,0.4-0.7,0.5c-1.5,0.4-3,0.8-4.5,1.1c-0.3,0.4,0.5,0.5,0.8,0.4c1.5-0.4,3.3-0.4,4.4-1.6
			c0.1,0,0.3,0.1,0.4,0.1c-0.7,1.6-1.5,3.2-2.4,4.7c-0.6,0.3-1.3-0.1-1.9-0.3c-1.8-1-3.8-1.3-5.8-1.5c0.7-0.6,1.3-1.9,2.4-1.4
			c-0.3,0.1-0.6,0.3-1,0.4c0.9,0.3,1.9-0.1,2.8,0c0-0.1-0.1-0.4-0.1-0.5c-0.5,0-1,0-1.4,0c2.3-0.5,4.6-1.1,6.8-1.9
			C218.7,88.3,218.8,88.4,218.9,88.4z M217.1,85c0.5,1,1,1.9,1.5,2.9c-2.6,0.9-5.2,1.7-8,2.2c1.1-2,1.8-4.2,2.4-6.4
			c0.4-1,0.7-2,0.9-3.1C215.1,82,216.3,83.4,217.1,85z M212.8,77.9c0.6,1.9,0.4,3.9-0.3,5.8c-0.8,2.5-1.5,5.1-3.1,7.2
			c-1.7,0.5-3.5,0-5-0.7c-0.8-0.3-1-1.2-1.4-1.9c-0.5-1.2-1.1-2.3-1.3-3.6c0.1-1,0.7-1.9,0.8-2.9c0.2-1.5,0.9-2.9,1.5-4.3
			c0.6-1.2,1-2.5,1.7-3.7c0.7,0.7,1.2,1.5,1.8,2.2l0.1-0.4C209.2,76.9,211,77.4,212.8,77.9z M208.4,75.6c-0.9-0.4-1.5-1.3-2.1-2
			c0.3,0,0.6,0,1,0C207.7,74.2,208.1,74.8,208.4,75.6z M216.8,41.5c0.5,1,1,2.1,1.2,3.2c0.2,1.1,0.8,2.2,0.7,3.3
			c0.1,1.1-0.5,2.1-0.8,3.2c-1.2-0.3-2.4-0.3-3.6-0.1c-2.6,0.2-5.2,1.2-7.2,2.9c-1.1,0.9-1.9,2.1-2.8,3.2c0.7-1.5,1-3.1,0.9-4.8
			c1.7-0.6,3.4-1.2,5.2-1.7c0.1-2-0.2-4-0.9-5.8c-0.6-1.2-1.2-2.4-2.1-3.4c1.4,0,2.7-0.3,4-0.3C213.4,41.3,215.1,41.1,216.8,41.5z
			 M203.6,57.2c0.4-1.5,0.6-3,1.2-4.4c0.1,1.3-0.1,2.5-0.5,3.7C204.2,56.8,203.9,57,203.6,57.2z M215.3,39.3c0.6,0.4,1,1,1.3,1.7
			c-0.2,0-0.6,0-0.8,0c0-0.1,0.1-0.3,0.1-0.4c-2.1-0.4-4.3-0.2-6.4-0.1c0.4,0.3,0.8,0.4,1.3,0.4c-0.6,0-1.2,0.2-1.7-0.1
			c-0.3,0-0.7,0-1,0c0.2,0.1,0.4,0.3,0.6,0.4c-0.8,0-1.7,0.4-2.2-0.3c2.2-0.9,4.6-1.1,6.9-1.5C214,39.2,214.6,39.3,215.3,39.3z
			 M195.5,39.1c0.9-0.5,1.9-0.7,2.8-1.1c1.3-0.5,2.5-1.4,4-1.7c1.2-0.3,2.7-0.4,3.7,0.4c0.3,0.2,0.6,0.4,0.8,0.6
			c-0.1-0.8-0.8-1.2-1.4-1.5c0.5,0.1,1,0.3,1.4,0.5c0,0.4,0,0.8,0.3,1.2c0.4,0.5,0.6-0.4,0.5-0.7c0.9-0.4,1.7-1,2.6-1.4
			c1.1-0.1,2.1,0.2,3.1,0.4c0.4,1,0.8,1.9,1.2,2.9c-2.8,0.3-5.7,0.5-8.3,1.7c-1.4-0.5-2.9-0.1-4.3,0.3c0-0.5,0-0.7,0-1.1
			c-0.4,0.4-0.3,0.7-0.3,1.2c-0.2,0-0.5,0-0.7,0c0-0.4,0-0.8,0-1.2c1.9-0.6,3.8-1.3,5.7-1.8c-0.3-0.2-0.5-0.5-0.9-0.3
			c-1.6,0.6-3.4,0.7-4.9,1.7c-0.6,0.4-0.5,1.2-0.5,1.9c-0.3,0.1-0.6,0.2-0.8,0.3c0.2-0.7,0.5-1.5,0.7-2.2c-1.5-0.1-3.1-0.3-4.6,0
			c0.4,0.3,0.9,0.2,1.3,0.3c0.9,0,1.8,0,2.7-0.1c-0.4,0.9-0.6,1.9-0.7,2.9c0.1,0.2,0.3,0.3,0.4,0.4c0.1-0.8,0.8-1.3,1.6-1.5
			c1.4-0.3,2.8-0.7,4.2-0.8c0.7,0.3,1.2,0.9,1.8,1.3c1.1,0.7,1.6,2,2.2,3.1c0.4,1.8,0.9,3.6,0.9,5.4c-1.8,0.3-3.4,1-5.1,1.7
			c-0.6,0.2-0.9,0.7-1.1,1.3c-0.3,1.1-0.6,2.2-0.8,3.4c-1-2.3-1.9-4.6-2.9-6.9c-0.5-1.1-1-2.3-1.1-3.5c0-1.1,0.3-2.1,0.2-3.2
			c-0.2,0-0.5,0-0.6,0c0.1,0.5,0.1,0.9,0.2,1.4c-1.1,0.3-2.2,0.3-3.3,0.3c-0.2-0.2-0.4-0.4-0.5-0.6
			C194.7,42.6,194.8,40.7,195.5,39.1z M194.3,42.8c0.1,0.7,0.2,1.4,0.6,2c0.3,0.3,0.8,0.5,1.2,0.7c-0.9,0.4-1.7,0.8-2.5,1.3
			C193.7,45.4,193.5,43.9,194.3,42.8z M184.6,53.1c5.1-2.1,8.8-6.7,14.2-8c0.1,1.3,0.1,2.5,0.4,3.7c-3.6,0.1-7,1.1-10.3,2.5
			c-1.3,0.5-2.5,1.2-3.8,1.6l0,0.2C185.1,53.1,184.8,53.1,184.6,53.1z M164.4,44.7c11.3-9.5,22.7-19,34-28.5c0.9,1.8,1,3.8,1.3,5.8
			c0.3,3.7-0.8,7.3-1.8,10.8c-0.2,0.6-0.3,1.3-0.8,1.7c-7.1,5.9-14.4,11.7-21.4,17.7c-4.2-1.4-8.5-3.5-13.1-2.7
			c-2,0.2-3.8,1.2-5.8,1.7C159.3,48.9,161.9,46.9,164.4,44.7z M127.1,53c1.6-2.4,2.8-5,4.5-7.3c1.5-1.5,3.5-2.1,5.5-2.7
			c0.1,0,0.3,0.1,0.4,0.2c0.9-0.3,1.8-0.4,2.7-0.5c0.8,2,1.9,3.9,2.3,6c0.4,0.1,0.9,0,1.4,0c2.8-0.2,5.6,0.5,8,1.9
			c0.7,0.4,1.5,0.7,1.9,1.4c-0.2-0.3-0.3-0.7-0.6-1c-2.8-2.3-6.7-3.2-10.3-2.8c-0.4-2-1.1-4.1-2.6-5.7c1.9,0,3.9-0.2,5.7,0.4
			c2.4,0.8,4.7,2.2,6.4,4.2c1.3,1.6,1.6,3.7,1.8,5.7c-2.3-2.2-5.5-3.2-8.6-3.5c-1-0.2-2.1,0.2-3.1-0.2c-1.2-2-1.4-4.6-2.8-6.5
			c0.2,1.4,0.9,2.7,1.3,4c0.4,1,0.6,2.2,1.4,2.9c2.1-0.3,4.3,0.2,6.3,0.8c2,0.6,3.9,1.6,5.6,2.9c-0.3,1.8-0.3,3.6,0.4,5.3
			c-0.1-1.5-0.2-2.9-0.1-4.4c0-0.3,0.2-0.6,0.3-0.9c3.2-1.3,6.4-2.6,9.9-2.8c1.1,0,2.3-0.1,3.4,0.1c1.7,0.2,3.2,0.9,4.8,1.3
			c-0.7,0.1-1.4,0.1-2.1,0.1c-3.9,0.4-7.5,2.5-10.2,5.3c0.5-0.1,0.8-0.4,1.2-0.8c3.3-2.9,7.7-4.6,12.1-4.3c1.8,0.4,3.6,0.8,5.5,1.1
			c1.7,0.3,3.3,0.7,5,0.6c-0.4-0.4-1-0.3-1.5-0.4c0.7-0.6,1.6-0.1,2.4-0.4c1.2-0.4,2.3-0.9,3.4-1.4c3.4-1.5,7.1-2.3,10.8-2.8
			c1.3,2.7,2.3,5.6,3.6,8.4c0.4,0,0.7,0,1.1,0.1c-1.6,2.9-1.9,6.5-0.6,9.6c0.7,1.7,2,3.1,3.4,4.4c0.5,0.4,1.3,0.7,1.2,1.5
			c-0.9,0-2-0.6-2.7,0.3c-0.8,1.1-1.3,2.4-1.8,3.6c-1.1,2.4-1.6,5-2.4,7.5c-0.4,1.1,0.3,2.2,0.7,3.2c-0.6,0-1.2,0.1-1.7,0.3
			c-0.4,0.9-1,1.6-1.5,2.4c-0.9,1.4-1.4,3.1-2.3,4.5c-0.7,1.4-1.6,2.8-1.9,4.4c-1.7-1.7-2.9-3.9-4.6-5.6c-2.4-2.6-4.6-5.5-7.6-7.5
			c-1.2-0.8-2.7-0.6-4.1-0.6c-0.9,0-1.8,0.2-2.7,0.3c0.5-0.5,1-0.9,1.5-1.3c-0.8,0.2-1.2,0.8-1.8,1.3c-1.1,0.9-2,1.9-3,2.8
			c-3.5,3.3-7.3,6.2-11.3,8.8c-3.4,2.3-7.3,3.8-11.2,5.1c-2.3,0-4.8,0-7-0.8c-2.4-0.9-4.8-1.6-7.3-2c0.7-0.4,1.5-0.7,2.1-1.2
			c-1,0.1-1.8,0.8-2.8,1c-1.7-0.1-3.4-0.4-5.1-0.5c-2.4,0-4.9-0.1-7.3,0.1c0,0.1,0,0.4,0,0.6c2.3-0.2,4.6-0.2,6.9,0
			c2.7,0.1,5.3,0.5,8,1c2.9,0.5,5.6,1.7,8.5,2.2c1.6,0.1,3.3,0.2,4.9,0c-1.7,1.1-3.1,2.4-4.8,3.4c-1,0.7-2.2,0.5-3.3,0.3
			c-2.7-0.6-5.4-1.1-8-1.7c-3.2-0.6-6.4-0.7-9.7-0.6c-2.8,0-5.5,0.7-8.2,1.5c0.6-0.5,1.4-0.6,1.9-1.2c-1,0.3-2.4,0.7-2.5,2
			c-0.6-0.3-0.9-1-1.3-1.5c-1.3-0.4-2.6-0.5-3.9-0.8c0.1-0.4,0.2-0.8,0.6-0.9c3-1.9,6.6-2.6,10-3.5c0.3-0.1,0.5-0.3,0.6-0.6
			c-1.7,0.2-3.4,0.8-5.1,1.1c0.8-1,1.7-1.9,2.6-2.8c2.1-2,5-2.4,7.5-3.7c2.6-1.7,4.8-4,6.7-6.4c1,1.9,2.3,3.7,3.9,5.1
			c0.3,0.1,0.5,0.1,0.8,0.1c0.4-0.4,0.9-0.9,1.4-1.2c1.9-1.1,4-2,6.1-2.8c2.4-0.9,4.9-1.6,7.1-2.9c0.4-0.2,0.6-0.8,0.5-1.2
			c-0.5-2.7-1.4-5.4-2.6-7.9c-0.4-0.8-0.9-1.7-1.2-2.5c1.9-0.6,3.9-0.2,5.6,0.6c1.8,0.7,3.4,1.9,5.1,2.9c-0.2-0.2-0.3-0.5-0.5-0.7
			c-0.1-0.1-0.4-0.2-0.5-0.2l0.3-0.1c-0.5-0.1-1-0.5-1.4-0.8c-2.2-1.4-4.6-2.4-7.2-2.5c-0.8-0.1-1.5,0.1-2.2,0.5
			c1.5,2.1,2.4,4.5,3.3,6.9c0.5,1.4,0.6,2.9,1.1,4.2c-0.6,0.8-1.7,1.1-2.6,1.5c-4.3,1.6-8.8,3-12.5,5.8c-2-1.4-3.1-3.7-4.5-5.6
			c0,0.2,0,0.5,0,0.7c-1.4,1.1-2.4,2.5-3.7,3.7c-1,0.9-2,2-3.3,2.5c-2.1,1-4.4,1.5-6.3,2.9c-1.4,1-2.6,2.3-3.7,3.7
			c-0.4,0.6-1.1,0.7-1.8,0.9c1.4-1.5,2.8-2.9,4.2-4.4c2.4-1.8,5.4-2.5,7.8-4.3c2.6-2.2,5.2-4.4,7.3-7.1c0.9,2.2,2.3,4.1,3.9,5.9
			c0.3,0,0.5-0.1,0.8-0.1c3.8-2.7,8.5-3.8,12.8-5.4c0.3-0.2,0.7-0.4,0.9-0.8c-0.2-1.2-0.7-2.2-1.1-3.3c-0.9-3-1.9-6-3.5-8.7
			c-0.2,0.9,0.4,1.7,0.7,2.4c1.2,2.5,1.8,5.1,2.8,7.6c0.2,0.6,0.4,1.3,0.5,2c-1,0.7-2.1,1-3.3,1.4c-3,1-5.9,2-8.7,3.5
			c-0.6,0.4-1.2,0.8-1.9,1c-1.6-1.8-2.9-3.9-4-6c-0.6,1-1.7,1.7-2.5,2.7c-2.7,2.5-5.3,5.3-8.8,6.8c-1.3,0.5-2.4,1.2-3.5,1.9
			c0.5-1.7,0.6-3.4,0.6-5.2c0.1-1.9,0.3-3.7,0.2-5.6c-0.2-1.2,0.9-2.1,1.1-3.3c-0.9,0.5-1.2,1.4-1.6,2.3c-0.2,1.9,0,3.7-0.2,5.6
			c0,2.1,0,4.2-0.4,6.2c-1.5,1.8-3.8,2.9-4.8,5.1c-1.3,0.5-2.6,1-3.6,2c-1.3-0.3-2.6-0.6-3.9-0.9c1.3-1.6,1.9-3.6,2.2-5.7
			c0.2-2.7-0.1-5.3-0.3-8c-0.2-1.7-0.4-3.4-0.9-5.1c1.5,0.1,2.9-0.3,4.4-0.5c1.3-0.2,2.7-0.3,3.9-0.9c-2.9,0.2-5.8,0.8-8.8,1.1
			c-0.6-0.5-1.4-0.8-2.2-1c0.1-0.5,0.1-0.9,0.2-1.4c0-0.1-0.1-0.3-0.1-0.4c0.1-0.2,0.2-0.5,0.3-0.7c-0.1,0-0.3,0-0.5,0
			c0-0.3,0-0.7-0.2-0.9c0.2-1,0.8-1.9,1.2-2.8c0.8-1.5,1.5-3.1,2.6-4.5c2.4-3.4,5.8-6,9.1-8.4l0.1,0.4c2.4-1.6,4.2-3.8,5.9-6.1
			c0,0.7,0.1,1.4,0.3,2.1c-2.6,3.3-5.8,6.2-9.2,8.7c-1.2,0.9-2,2.2-3.1,3.2c-2.7,1.9-5.1,4.4-6.6,7.3c0.2-0.1,0.7-0.3,1-0.4
			c0-0.1-0.1-0.3-0.1-0.4c0.2-0.2,0.3-0.4,0.5-0.7c0,0.2,0,0.5,0,0.6c0.8-1,1.6-2.1,2.6-2.9c1.3-1.3,3.1-1.9,4.5-3.1
			c0.8,0.9,1.4,1.8,2.1,2.8c1,1.5,2.2,2.8,3.2,4.3c0.6,0.9,1.3,1.8,2.4,1.8c-0.4-0.7-1.1-1-1.7-1.6c-0.9-0.9-1.5-2.1-2.3-3.1
			c-1.2-1.5-2.2-3.2-3.6-4.5c0.9-1.2,1.9-2.3,3.1-3.1c1.5-1,2.9-2.3,4.2-3.6c1.5-1.5,2.7-3.3,3.9-5.1c0.2-0.3,0.1-0.6,0-1
			c-0.2-0.9-0.2-1.8-0.1-2.7C125.5,55.1,126.3,54,127.1,53z M124,60.6c-1.8,2.9-4.5,5.3-7.2,7.4c-1.5,1-2.4,2.4-3.6,3.7
			c-0.7,0.8-1.7,1.2-2.6,1.7c-1,0.6-1.8,1.4-2.6,2.2l-0.1-0.1c1.2-1.4,2.5-2.5,4-3.6c1.4-1.3,2.5-2.8,4.1-3.9
			c2.9-2.1,5.5-4.6,7.7-7.4L124,60.6z M121.6,55.3c-1.4,0.5-2.8,1.1-4.1,1.8c-0.7,0.4-1.8,0.2-2.2-0.6c-0.7-1.1-1.5-2.1-2.1-3.2
			c-0.7-1.5-1.3-3.1-1.6-4.7c2.3,0.1,4.6,0.3,6.7,1.3C119,51.8,119.8,54,121.6,55.3z M92.9,8.5c1,0,2,0,3,0.3c2.7,2.2,5,4.7,7.3,7.3
			c2.9,3.5,5.7,7.1,7.5,11.3c0.9,2.1,1.7,4.2,2.4,6.3c1,2.7,1.5,5.5,2.4,8.2c-2.7-0.9-5.6-0.6-8.4-0.6c0.3,0.3,0.7,0.6,1.2,0.5
			c3.2-0.2,6.6,0,9.6,1.3c0.4,1.2,0.7,2.4,1.1,3.6c0.3,1.1,0.9,2.2,0.7,3.4c-0.1,0.4-0.4,0.7-0.7,1.1c0-0.5,0.4-1,0-1.4
			c-1.1-1.2-2.9-1.2-4.5-1.6c-2.4-0.5-4.8-0.3-7.2-0.3c-3,0.2-5.9,1.1-8.5,2.7c-1.2,0.7-1.7,2.1-1.6,3.4c-0.4-0.3-0.4-0.9-0.5-1.3
			c-0.3-1.5-0.6-3.1-0.8-4.6c-0.1-0.8,0.4-1.5,1-2.1c0.7-0.6,1.3-1.3,2.1-1.8c2.5-1.4,5.4-2.2,8.2-2.4c-0.3-0.2-0.5-0.6-0.9-0.5
			c-2.9,0.4-5.9,1.2-8.3,3.1c-0.5,0.4-1,0.9-1.5,1.3c-0.5-0.8-0.7-1.7-1-2.6c-0.4-0.5-0.6-1-0.8-1.6c-0.9-2.8-1.5-5.7-1.5-8.7
			c0.8-0.8,1.4-1.7,2.3-2.4c0.9-1,1.5-2.4,2.3-3.5c0.6-0.9,1.3-1.8,1.5-2.9c-0.5,0.5-0.8,1.1-1.1,1.7c0.3-1.1,0.5-2.3,0.6-3.4
			c-0.9,2.6-1.4,5.6-3.5,7.6c0.8-2.5,0.4-5.3-0.6-7.7c-1-1.6-2.3-3-3.6-4.5c-0.8-0.8-2-1.1-3-1.6c0-0.1,0.1-0.3,0.1-0.4
			c1.9-1.3,4.1-2.2,6.1-3.3c-2.2,0.6-4.2,1.8-6.1,3.1c-0.1,0.1-0.2,0.4-0.2,0.5c-1.9-0.6-3.8-1-5.8-0.8c2.7-2.4,5.7-4.3,8.5-6.5
			C91.3,8.4,92.2,8.5,92.9,8.5z"/>
		<path class="st0" d="M25.9,115.7v0.3c1.8,0.8,3.8,1.5,5.8,1.5c-0.9-0.5-1.9-0.5-2.9-0.8C27.8,116.4,26.8,116,25.9,115.7z"/>
		<path class="st0" d="M41.2,109.2c-1.3,0.5-2.5,1.2-3.9,1.3c-3.9,0.4-7.7-0.3-11.4-1.5v0.3c3.4,1.4,7.1,1.9,10.7,1.7
			C38.2,110.9,40,110.5,41.2,109.2z"/>
		<path class="st0" d="M31.9,48.5c0.3-0.2,0.8-0.4,0.8-0.9c-1.2,0.5-2.1,1.4-3.1,2.1c-1.3,1.1-2.6,2.2-3.6,3.5v0.4
			C27.7,51.7,29.7,49.9,31.9,48.5z"/>
		<path class="st0" d="M37.4,41.1c-1.3-0.4-2.7-0.1-4.1-0.2c-2.7,0.2-5.2,1.5-7.5,2.8v0.4c2.1-1.4,4.5-2.3,7-2.8
			C34.3,41.1,35.9,41.3,37.4,41.1z"/>
		<path class="st0" d="M41.7,118.7c-1.1,0.3-2.1,0.8-3.1,1.1c-3.5,1-7.2,0.9-10.7,0.2c-0.5-0.1-0.9-0.1-1.4-0.1c2.4,1,5.1,1,7.6,1
			C36.8,121,39.4,119.9,41.7,118.7z"/>
		<path class="st0" d="M45,109.7c-0.9,0.4-1.8,1-2.8,1.3c-1.5,0.6-3.1,1-4.8,1.1c-3.5,0.3-7,0-10.4-0.9c2.7,1.1,5.8,1.5,8.7,1.4
			c2.3,0.1,4.5-0.4,6.6-1.2C43.4,111.1,44.3,110.5,45,109.7z"/>
		<path class="st0" d="M44.7,114c0.7-1,1.6-1.9,1.8-3.1c-1.2,1.5-2.1,3.3-3.7,4.4c-2.5,1.8-5.7,2.6-8.8,2.7l0,0.3
			c1.1,0,2.2,0,3.2-0.2C40.1,117.5,42.9,116.3,44.7,114z"/>
		<path class="st0" d="M54.1,47c0.8,1,1.5,2.2,2.4,3.2c-0.3-0.8-0.7-1.5-1.2-2.2c-2.9-4.4-7-7.9-11.3-10.8c-1.6-1-3.2-2.2-5-2.8
			c2.9,1.9,5.8,3.7,8.5,5.8C50,42.2,52.1,44.5,54.1,47z"/>
		<path class="st0" d="M43.2,31.9c-1.4-0.6-2.8-1.3-4.3-1.3c2.3,0.8,4.7,1.7,6.8,2.9C45,32.8,44.1,32.3,43.2,31.9z"/>
		<path class="st0" d="M42.6,50.3c1,0.4,1.9,1,2.9,1.3c-0.6-0.7-1.7-0.7-2.4-1.2c0.5-0.2,1-0.2,1.5-0.2V50c-0.8,0-1.6,0-2.4-0.1
			c-0.7-0.3-1.4-0.7-2.2-0.9c0.8,0.4,1.7,0.8,2.5,1.2c-0.8,1.3-1.7,2.8-1.4,4.4c0.2-0.8,0.2-1.6,0.7-2.3
			C42.1,51.7,42.4,51,42.6,50.3z"/>
		<path class="st0" d="M44.8,48.5c0.8-0.2,1.7-0.3,2.5-0.6c-1.3-0.2-2.6,0.3-3.8,0.5C43.9,48.8,44.4,48.6,44.8,48.5z"/>
		<path class="st0" d="M44.5,56c-0.2,0.8-0.2,1.5,0,2.3C44.6,57.5,44.6,56.7,44.5,56z"/>
		<path class="st0" d="M44.6,55.9c0.3-1.2,0.7-2.3,1.1-3.4C44.9,53.5,44.5,54.7,44.6,55.9z"/>
		<path class="st0" d="M52.1,57.1c0.7-0.5,1.5-0.7,2.2-1.2c-2,0.3-3.6,1.7-4.9,3.1c0-1.4,0.3-2.8,0.7-4.2c-1.3,1.6-1.1,3.8-0.9,5.7
			C49.7,59,50.9,57.9,52.1,57.1z"/>
		<path class="st0" d="M58,45.4c-0.6-1.2-1.6-2.1-2.3-3.2c-1.6-1.8-3.1-3.6-4.9-5.1c0.6,0.8,1.4,1.5,2.1,2.2
			C54.6,41.2,56.2,43.4,58,45.4z"/>
		<path class="st0" d="M60.4,73.6c-0.4-0.5-1.1-0.4-1.7-0.4c-0.8,0-1.6,0-2.4,0.1c0.1,0.3,0.3,0.4,0.6,0.2
			C58.1,73.5,59.2,73.6,60.4,73.6z"/>
		<path class="st0" d="M90.5,98.3c0.2-0.3,0.4-0.7,0.8-0.7c1.2,0,2.4-0.4,3.5-0.6c0.8-0.2,1.8-0.3,2.5-0.9c-0.9,0.1-1.7,0.6-2.6,0.5
			c0.2,0,0.6-0.1,0.8-0.1l0-0.3c-1.3,0.4-2.7,0.7-4.1,0.7c0-0.9-0.4-1.7-1.1-2.4c-2.1-1.9-4.6-3.6-7.4-4.1c-2-0.4-3.9-0.9-5.7-1.7
			c-0.4-0.2-0.9-0.2-1.4-0.1c-4.5,0.9-8.5,3.5-11.6,6.8c-1.6,1.9-3.3,3.9-4.2,6.3c0,0.1,0,0.4,0.1,0.5c1.3,1.8,3.1,3.2,4.9,4.3
			c3.7,2.1,8.1,2.4,12.3,2.1c2.4-0.3,4.3-1.8,6.2-3C86.4,103.5,88.6,101,90.5,98.3z M93.5,97c-0.8,0.2-1.7,0.3-2.5,0.5
			c0.1-0.2,0.2-0.5,0.3-0.7C92,96.7,92.8,96.9,93.5,97z M74.2,107.8c-1.2,0-2.4,0-3.6-0.2c-3.8-0.8-7.5-2.8-9.9-5.9
			c0.4-1.9,1.8-3.3,3-4.8c3.2-3.9,7.6-7,12.6-8.1c0.9,0,0.9,1.3,0.8,1.9c-0.7,1.1-1.7,1.9-2.4,3c1.1-0.7,2.1-1.6,2.8-2.7
			c0.4-0.8,0.1-1.6-0.5-2.2c1.1,0.7,2.5,1,3.7,1.4c2,0.5,4.1,0.8,5.9,1.9c1.1,0.7,2.2,1.4,3.3,2.3c0.7,0.4,0.8,1.3,1.1,2
			c-0.9,2.2-2.7,3.8-4.2,5.6c-1.9,2.4-4.5,3.9-7.2,5.1C77.8,107.9,75.9,107.8,74.2,107.8z"/>
		<path class="st0" d="M63.1,43.6c-0.7,0.4-1.2,1.1-1.6,1.9c-0.5,1.2-0.9,2.5-0.8,3.8c0.4-1.2,0.6-2.4,1.1-3.5
			C62.1,45,62.7,44.3,63.1,43.6z"/>
		<path class="st0" d="M63.3,43.2c0.2-0.5,0.4-1.1,0.5-1.7C63.2,41.9,63.4,42.6,63.3,43.2z"/>
		<path class="st0" d="M77.7,100.1c0.9-0.8,1.2-2.1,1.2-3.2c0.2-1.3,0.1-2.7,0.2-4c0.3-0.3,0.7-0.7,0.7-1.1c-1.4,1.1-3.3,1.6-4.5,3
			c-1.3,2.1-1.1,4.7-1.2,7c0,1-0.5,1.8-1,2.6c1-0.3,1.3-1.4,1.6-2.2C75.8,101.5,76.7,100.8,77.7,100.1z M75.9,94.9
			c0.6-1,1.8-1.3,2.8-1.8c-0.1,1.5-0.3,3-0.4,4.4c-0.1,0.7-0.3,1.5-0.8,2c-0.9,0.8-1.8,1.5-2.8,2.2C74.7,99.4,74.6,96.9,75.9,94.9z"
			/>
		<path class="st0" d="M76.5,52c-0.2-0.3-0.5-0.5-0.8-0.7c0.6,1,1.3,1.8,1.9,2.8c1.3,2.1,2.2,4.4,3.3,6.6c0.4,0.7,0.6,1.5,0.8,2.3
			c-0.3-1.6-1-3.1-1.6-4.6C79.1,56.2,77.9,54,76.5,52z"/>
		<path class="st0" d="M81.5,56.9c0.1-0.1,0.3-0.3,0.4-0.4c-1.7-2.9-3-6.1-5.3-8.5c0.7,1.4,1.6,2.6,2.4,3.9
			C79.8,53.5,80.8,55.1,81.5,56.9z"/>
		<path class="st0" d="M81.6,55.3c-0.4-2.1-1.3-4-2.3-5.8c-0.6-1-1.2-2.1-2.1-2.8c1.2,1.9,2.5,3.8,3.3,6
			C80.8,53.6,80.9,54.6,81.6,55.3z"/>
		<path class="st0" d="M80.5,122.7c-1-0.4-2-0.5-3-0.6C78.4,122.8,79.5,122.8,80.5,122.7z"/>
		<path class="st0" d="M82.1,57c-0.1,0-0.4,0-0.5,0c0.5,0.9,0.8,1.8,1.3,2.7C82.7,58.8,82.4,57.9,82.1,57z"/>
		<path class="st0" d="M88.2,113.4c-0.3,0.3-0.5,0.7-0.3,1.2c0.5,1.9,1.6,4,3.5,4.8C89.6,118,88.2,115.8,88.2,113.4z"/>
		<path class="st0" d="M90.5,99c1.6,0.1,3-0.7,4.5-1c-1.4,0.9-3.1,1-4.6,1.6c0.3,0,0.6,0,1,0c1.8-0.4,3.6-1,5.1-2l-0.5-0.1
			c0.3-0.3,0.6-0.5,1-0.8c-1.2,0.4-2.3,1-3.5,1.4C92.4,98.4,91.4,98.5,90.5,99z"/>
		<path class="st0" d="M91.7,82.2c0.1,0.1,0.3,0.4,0.4,0.5c0.9,0.3,1.8,0.8,2.6,1.2c0.3-0.1,0.6-0.3,0.9-0.4
			C94.3,83,93,82.6,91.7,82.2z"/>
		<path class="st0" d="M99.2,94.5c-0.9,0.4-2,0.6-2.7,1.3C97.5,95.6,98.5,95.2,99.2,94.5z"/>
		<path class="st0" d="M99.1,21.3c-0.1-0.9-0.4-1.8-0.5-2.7c-0.2,0-0.3-0.1-0.5-0.1c0.5,1,0.5,2.1,0.8,3.2
			C98.9,21.5,99,21.4,99.1,21.3z"/>
		<path class="st0" d="M105.3,111.5c-0.6-1.7-2.6-2.9-4.4-2.3c-1.8,0.5-3.1,2.6-2.5,4.4c0.3,1.2,1.3,2.2,2.6,2.6
			c1.3,0.5,2.7-0.1,3.6-1.1C105.4,114.1,105.6,112.7,105.3,111.5z M104.8,113.6c-0.5,1.7-2.7,2.7-4.3,1.8c-0.8-0.4-1.4-1.1-1.7-1.9
			c-0.6-1.9,1-4.2,3.1-4C104,109.4,105.6,111.7,104.8,113.6z"/>
		<path class="st0" d="M103.4,26.8c2.5,2.9,4.1,6.4,5.7,9.8c0.1,0.1,0.2,0.3,0.3,0.3c-1.5-4.2-3.5-8.4-6.7-11.6
			c-0.5-0.5-1.1-1-1.8-1.2C101.7,25.1,102.6,25.8,103.4,26.8z"/>
		<path class="st0" d="M104.5,87.8c-0.1-1.1-0.4-2.4-1.1-3.3c0.3,1.3,0.7,2.5,0.8,3.8c0.3,1.6,0.1,3.2,0.3,4.8
			C104.7,91.4,104.6,89.6,104.5,87.8z"/>
		<path class="st0" d="M108,125.3c0.1-0.3,0.3-0.5,0.4-0.8c-1.1,0.5-2.2-0.2-3.3-0.3c-0.2,0.1-0.3,0.3-0.5,0.4
			C105.8,124.8,106.9,125,108,125.3z"/>
		<path class="st0" d="M107.7,89.5h-0.3c0.5,3.9-0.3,7.7-1.1,11.5c1.1-2,1.2-4.3,1.5-6.6C108.1,92.8,107.8,91.1,107.7,89.5z"/>
		<path class="st0" d="M107.9,70.7c2.1-2.6,4.7-4.9,7.4-6.9c0.9-0.8,1.9-1.5,2.7-2.4c-1.6,1-3,2.2-4.4,3.3c-2.8,2.3-5.5,4.8-7.3,8
			C106.9,72.2,107.4,71.4,107.9,70.7z"/>
		<path class="st0" d="M107.4,82.4c1.9-0.1,3.8-0.4,5.6-1c-1.4,0.1-2.8,0.4-4.1,0.6C108.4,82,107.9,82.1,107.4,82.4z"/>
		<path class="st0" d="M108.7,99.7c1.3-0.5,2.4-1.3,3.5-2c0.8-0.6,1.7-1.1,2.4-1.9c-1,0.4-1.9,1.1-2.8,1.7
			C110.7,98.2,109.6,98.8,108.7,99.7z"/>
		<path class="st0" d="M110.5,41c-0.1-1.3-0.3-2.6-1-3.7c0.2,1.3,0.5,2.6,0.7,3.9L110.5,41z"/>
		<path class="st0" d="M109.8,94.9c0.4-0.1,0.9-0.2,1.3-0.5c2.1-1.2,4.1-2.7,5.7-4.5c0.3-0.3,0.5-0.7,0.6-1.1c-1.6,1.4-3,2.8-4.7,4
			C111.8,93.6,110.7,94.1,109.8,94.9z"/>
		<path class="st0" d="M110.3,109.9c0.4,0.6,1.2,1,1.8,0.6c1.2-0.5,0.5-2.5-0.7-2.3C110.5,108.1,109.9,109.2,110.3,109.9z
			 M112.4,109.7c-0.4,0.2-0.9,0.3-1.3,0.5c-0.2-0.3-0.4-0.6-0.5-0.9c0.4-0.3,0.7-0.5,1.1-0.7C112,108.9,112.2,109.2,112.4,109.7z"/>
		<path class="st0" d="M118.2,115.8c0.1-1.1-0.9-2.1-2-2c-0.8,0-1.3,0.7-1.7,1.2c0,0.4,0,0.8,0,1.3c0.4,0.5,0.8,1.1,1.4,1.2
			C117,117.8,118.2,116.9,118.2,115.8z M116,114.3c-0.1-0.4,0.7-0.4,0.5,0C116.5,114.3,116.2,114.3,116,114.3z M114.8,115.5
			c0-0.5,0.4-0.9,0.8-1.2c0.4,0.4,0.9,0.3,1.4,0.5c0.2,0.2,0.3,0.5,0.5,0.8c-0.1,0.3-0.2,0.6-0.3,0.9c-0.3,0.1-0.6,0.3-0.9,0.4
			c-0.3-0.2-0.6-0.3-1-0.5c0.2,0.2,0.5,0.5,0.6,0.7C115.2,117,114.8,116.2,114.8,115.5z M116,117.1c0.6-0.1,1.1-0.3,1.6-0.6
			c-0.1-0.3-0.1-1,0.3-1.1c0.2,0.3,0.1,0.8-0.2,1.1l-0.1,0c-0.3,0.6-1,0.7-1.6,0.8L116,117.1z"/>
		<path class="st0" d="M122.1,100.3c-1,0-2.1,0.2-3.1,0.6c-0.1,0-0.4,0.1-0.5,0.1c-1.4,0.5-2.9,0.7-4,1.6c1.8-0.5,3.6-1.2,5.4-1.6
			C120.6,100.8,121.4,100.7,122.1,100.3z"/>
		<path class="st0" d="M117.5,54c-0.8-1.1-1.9-1.8-2.9-2.6C115.3,52.5,116.4,53.4,117.5,54z"/>
		<path class="st0" d="M124.9,115.6c-0.9-1.5-3.4-1.5-4.4-0.1c-0.6,0.7-0.6,1.6-0.4,2.5c0.4,1.5,2.2,2.3,3.6,1.6
			C125.3,118.9,125.8,116.9,124.9,115.6z M120.5,117.4c-0.2-1.1,0.6-2.2,1.7-2.5c1.4-0.4,2.9,0.9,2.8,2.3c-0.1,0.8-0.6,1.7-1.5,1.9
			C122.2,119.7,120.6,118.8,120.5,117.4z"/>
		<path class="st0" d="M124.5,117.3c0.2-1.1-0.9-2.1-2-2c-1.1,0-2,1.3-1.7,2.4c0.4,1,1.5,1.6,2.6,1.2
			C124,118.5,124.6,118,124.5,117.3z M121.2,117.4c-0.3-1.1,1.1-2.2,2.1-1.7c0.7,0.3,1.1,1,1,1.7c-0.2,0.6-0.8,1.1-1.4,1.2
			C122,118.7,121.3,118.2,121.2,117.4z"/>
		<path class="st0" d="M130.2,103.6c-2.1-0.3-4.3-0.2-6.4-0.1c-0.3,0-0.6,0.1-0.8,0.2c2.6,0.4,5.3,0,7.9,0.3
			C130.6,103.8,130.4,103.6,130.2,103.6z"/>
		<path class="st0" d="M132.8,70.2c-1.7,1-3.6,1.5-5.6,1.4c0.3,0.6,1.1,0.3,1.7,0.3C130.3,71.7,131.8,71.3,132.8,70.2z"/>
		<path class="st0" d="M136.3,66.4c-2.4,2.6-4.4,5.6-5.7,8.9c-0.4,1.1-1,2.3-1.1,3.5c0.8-1.1,1-2.4,1.6-3.5c1.4-3.6,3.6-6.7,6.2-9.5
			C136.9,65.9,136.6,66.1,136.3,66.4z"/>
		<path class="st0" d="M133.9,100.9c0.1-0.1,0.3-0.3,0.4-0.4c-1-0.1-1.9-0.4-2.9-0.1C132.2,100.6,133,100.8,133.9,100.9z"/>
		<path class="st0" d="M142.4,102.7c-0.7-0.7-1.7-0.9-2.6-1.1c-1.7-0.4-3.4-0.7-5.1-1c0,0.1,0,0.4,0,0.5
			C137.3,101.3,139.9,101.9,142.4,102.7z"/>
		<path class="st0" d="M138.3,128.4c-1.2-0.2-2.2-1.1-3.2-1.6c0.6,0.9,1.6,1.4,2.5,1.8c0.9,0.4,2.2,0.6,3-0.3
			C139.8,128.5,139.1,128.6,138.3,128.4z"/>
		<path class="st0" d="M158.5,70.8c1,1.7,1.7,3.5,2,5.4c0.1,0.3,0,0.5-0.1,0.7c0,0.6,0.3,1.1,0.3,1.7c0.1,2.4,0,4.8-0.7,7.2
			c-1.8,5.3-6.2,9.9-11.8,11.3c-1.8,0.3-3.6,0.6-5.4,0.5c-0.4,0-0.8,0-1,0.3c2.9,0.4,5.9,0,8.6-1c3.3-1.2,6.1-3.5,8-6.4
			c0.1,0,0.3,0.1,0.4,0.2c0.5-1.8,1.4-3.5,1.9-5.3c0.6-1.6,0.3-3.3,0.5-5c1.8,0.1,3.6,0.2,5.4-0.3c2.9-0.8,5.4-2.5,7.6-4.4
			c-0.1-0.1-0.2-0.2-0.4-0.4c-1.7,1.5-3.7,2.7-5.8,3.6c-2.1,1-4.5,1.2-6.8,1.1c0-3-0.4-6.1-2-8.7c-0.9-1.5-2-3-3.5-3.9
			C156.6,68.7,157.9,69.5,158.5,70.8z"/>
		<path class="st0" d="M145.3,70.6c0.1-1.6,0.2-3.2,0.1-4.8c0-1.9-0.2-4.1-1.4-5.6c0.4,1.2,1,2.4,1.1,3.7
			C145.2,66.1,144.9,68.3,145.3,70.6z"/>
		<path class="st0" d="M147.9,103.5c-0.9-0.2-1.8-0.2-2.7-0.5c-0.3-0.2-0.6-0.1-0.9,0C145.4,103.6,146.6,103.8,147.9,103.5z"/>
		<path class="st0" d="M148.2,62.9c-0.2-2.1-1-4-1.6-5.9c-0.2-0.6-0.5-1.2-0.9-1.7c0.3,1.1,0.7,2.3,1.2,3.4
			C147.5,60,147.6,61.5,148.2,62.9z"/>
		<path class="st0" d="M160.2,76.5c-1.1-1.2-2.6-2-4-2.7c-2.4-1.1-5.2-1.5-7.6-0.6c1.4,0.1,2.7-0.1,4.1,0.1c2.7,0.4,5.1,1.7,7.2,3.3
			c0.1,0,0.2,0,0.2,0L160.2,76.5z"/>
		<path class="st0" d="M149.4,67.2c-0.4-2.4-0.1-4.9-0.3-7.3c-0.2,1.9-0.4,3.7-0.2,5.6c0.1,1.6,0.1,3.3,0.7,4.9
			C149.6,69.3,149.5,68.2,149.4,67.2z"/>
		<path class="st0" d="M150.5,57.7c0.4,2.2,0.9,4.5,1.9,6.6c-0.2-1.5-0.9-2.9-1.2-4.4c-0.3-1.2-0.5-2.5-0.6-3.7
			C150.4,56.7,150.3,57.2,150.5,57.7z"/>
		<path class="st0" d="M164.1,57.5c1.6-0.6,3.2-1,4.9-1c3.8-0.4,7.5,0.7,11.1,2c3.5,1.4,7,3.2,10.8,3.3c1.1,0.2,2.1,0.6,3.2,0.3
			c0.7-0.3,1.6-0.5,1.8-1.4c0.2-0.4-0.4-0.5-0.6-0.8c-0.1,0.4,0.1,0.9-0.3,1.1c-0.7,0.6-1.7,0.4-2.5,0.4l0-0.2
			c0.9-0.3,1.8-0.2,2.6-0.7c-1.6-0.3-3.1,0.8-4.7,0.7c-1.8-0.1-3.5-0.6-5.1-1.2c-2.1-0.7-4.1-1.9-6.3-2.4c-2-0.7-4.1-1.6-6.3-1.7
			c-2.6-0.1-5.3-0.1-7.8,0.8c-1.3,0.5-2.7,1-3.7,2.1C162.1,58.5,163,57.9,164.1,57.5z"/>
		<path class="st0" d="M161.8,59.5c1.8,0.5,3.7,0.8,5.5,1.5c2.3,0.9,4.4,2.1,6.4,3.5c1.5,1,2.9,2.3,4.4,3.3c-2.8-2.9-6.2-5.3-9.9-7
			C166.1,60.2,164,59.4,161.8,59.5z"/>
		<path class="st0" d="M174.8,75.3c1.6-1.1,3.6-1.5,5.5-1.4c6.2,3.2,12.4,6.1,18.7,9.1c0.6,0.3,1.3,0.5,2,0.7c0,0.1,0.1,0.3,0.2,0.5
			c0-0.1,0-0.4,0-0.6c-4.6-2.2-9.2-4.5-13.8-6.7c-2.5-1.2-5-2.5-7.7-3.4c-1.9-0.3-3.6,0.6-5.3,1.4C174.5,75.1,174.7,75.2,174.8,75.3
			z"/>
		<path class="st0" d="M180.4,45.9c0.9-0.9,2-1.6,2.8-2.6c-1.9,1.3-3.4,2.9-5.2,4.3c-0.9,0.8-1.9,1.4-2.7,2.3
			C177.2,48.9,178.8,47.3,180.4,45.9z"/>
		<path class="st0" d="M192.9,103.9c-0.4-0.7-0.9-1.4-1.4-2C191.6,102.8,192.2,103.5,192.9,103.9z"/>
		<path class="st0" d="M193.9,105c-0.2-0.4-0.4-0.8-0.6-1.3c-0.3,1.1,0.8,1.6,1.6,2.2c0.7,0.5,1.4,1.1,2.2,1.1l0.3,0
			C196.3,106.3,195.1,105.6,193.9,105z"/>
		<path class="st0" d="M196.4,101.7c0.5-0.9,0.5-2,1.1-3c0.7-1.2,1.2-2.3,1.7-3.6c-0.6,1-1,2.1-1.6,3.1
			C197,99.3,196.1,100.4,196.4,101.7z"/>
		<path class="st0" d="M203.3,50.4c0-0.1,0.1-0.2,0.2-0.2c-0.5-1.5-0.8-3.1-1.5-4.5c-0.5-0.9-0.6-2.4-1.9-2.6
			c0.7,0.7,1.1,1.7,1.5,2.6C202.3,47.1,202.8,48.7,203.3,50.4z"/>
		<path class="st0" d="M208.6,45.5c0.5,1.3,1,2.8,0.8,4.2c-1,0.7-2.3,0.9-3.4,1.4c-0.6,0.3-1.5,0.4-1.8,1c1.9-0.7,3.8-1.3,5.6-2.1
			c0.4-3.5-1.5-7-4.2-9.2c-0.6-0.2-1.2,0.2-1.7,0.3c-1.3,0.4-2.7,0.5-3.8,1.4c1.8-0.4,3.6-1.2,5.5-1.3
			C206.7,42.5,207.9,43.8,208.6,45.5z"/>
		<path class="st0" d="M202.3,101.9c0.4,0.1,0.8,0.1,1.2,0.1c0.2-0.2,0.4-0.5,0.5-0.8c0.1-0.7-0.8-1.1-1.4-0.9
			C202.3,100.8,202.2,101.3,202.3,101.9z M203.7,101.4c-0.4,0.1-0.7,0.1-1.1,0.2c0.1-0.4,0.1-0.8,0.2-1.2
			C203.3,100.6,203.6,100.9,203.7,101.4z"/>
		<path class="st0" d="M206.3,77.5c-0.5,0.6-0.8,1.2-1.1,1.9c-0.7,2.2-1.4,4.4-1.8,6.7c-0.1,0.4,0,0.9,0,1.4
			c0.4-0.8,0.5-1.7,0.7-2.5C204.7,82.4,205.6,80,206.3,77.5z"/>
		<path class="st0" d="M211.1,85.9c-0.1-0.3-0.3-0.7-0.4-1c-0.2,0-0.6,0-0.8,0c-0.2,0.3-0.4,0.6-0.4,1c0.1,0.4,0.3,0.7,0.5,1
			c0.2-0.1,0.5-0.2,0.7-0.3c-0.6,1.2-0.9,2.7-2.2,3.4c-1.6,0.3-3.2-0.5-4.7-0.9c0.4,0.7,1.2,0.8,1.8,1c1.1,0.3,2.3,0.6,3.3,0.1
			c1.2-0.8,1.5-2.2,2-3.4c0.8-1.7,1.4-3.4,1.6-5.3c0.1-0.8-0.1-1.7,0.3-2.5c-0.7-1-2-1.2-3.1-1.5c-0.9-0.3-1.8-0.6-2.7-0.9
			c1.4,1.2,3.4,1.4,5,2.3C212.5,81.3,211.6,83.6,211.1,85.9z M210.6,85.5c0,0.3-0.1,0.7-0.2,1C209.7,86.4,209.9,85.1,210.6,85.5z"/>
		<path class="st0" d="M204.9,42c-0.3,0.8,0.6,0.9,1.2,0.9C206.1,42.2,205.4,41.2,204.9,42z"/>
		<path class="st0" d="M206.8,104.7c0.3,0.4,0.9,0,1.1,0.3c-0.4,0.1-0.9,0-1.3,0.1c0.1,0.3,0.3,0.4,0.6,0.3c0.8-0.1,1.7-0.1,2.4-0.5
			c-0.3-0.1-0.6-0.1-0.9-0.2c0.8-0.2,1.5-0.4,2.3-0.3c0.8-0.4,1.7-0.5,2.4-1c-1.4,0-2.7,0.6-4.1,0.8
			C208.6,104.4,207.7,104.4,206.8,104.7z"/>
		<path class="st0" d="M206.9,70.1c2.5,1.8,5.4,2.9,8.5,2.7c2.2-0.2,4.5-0.8,6.3-2.2v-0.8c-1.7,1.2-3.6,2.1-5.6,2.4
			c-3,0.6-6-0.5-8.5-2c2.9-2.3,5.6-4.9,8.7-7c1.9,0.7,3.7,1.7,5.5,2.5V65c-1.6-0.9-3.2-1.9-5.1-2.2c-1-0.2-1.7,0.6-2.5,1.2
			C211.6,66,209.1,67.9,206.9,70.1z"/>
		<path class="st0" d="M207.7,48.2c-0.1,0.3-0.2,0.7-0.2,1.1c0.3,0.1,0.7,0.1,1,0.2c0.3-0.4,0.2-0.9,0-1.3
			C208.4,48.2,207.9,48.2,207.7,48.2z M208.4,48.6c0.2,0.3-0.3,0.6-0.5,0.3C207.7,48.6,208.2,48.3,208.4,48.6z"/>
		<path class="st0" d="M210.1,36.9l0.5-0.2c-0.2-0.1-0.3-0.3-0.5-0.4c-0.7,0.4-1.3,0.8-1.9,1.3c1.2,0.1,2.3-0.4,3.4-0.8
			C211.2,36.7,210.7,36.8,210.1,36.9z"/>
		<path class="st0" d="M212,50.1c0,0.1,0,0.4,0,0.6c-0.8,0.2-1.6,0.4-2.4,0.8c2-0.1,3.9-0.9,5.9-1.1c0.7,0,1.4-0.3,2.1-0.5l-0.3-0.1
			c0.4-0.3,0.7-0.6,1-0.9c-2,0.9-4.2,1.4-6.3,1.8c1.5-2.1,3.4-3.9,5.2-5.7C215,46,213.5,48.1,212,50.1z"/>
		<path class="st0" d="M210.1,104.7c0,0.4,1,0.3,1.1,0C210.8,104.5,210.4,104.5,210.1,104.7z"/>
		<path class="st0" d="M211.8,35.9c-0.3-0.1-0.7,0-1,0.1c0,0.1,0,0.2,0,0.3C211.1,36.4,211.7,36.3,211.8,35.9z"/>
		<path class="st0" d="M213.7,46.8c-1,1.2-2,2.4-2.7,3.7c1.2-0.7,1.8-1.9,2.6-2.9c1-1.2,2.1-2.3,3.1-3.5
			C215.5,44.8,214.6,45.9,213.7,46.8z"/>
		<path class="st0" d="M211.5,104.6c0.3,0.2,0.5,0.1,0.6-0.2C211.7,104.2,211.5,104.3,211.5,104.6z"/>
		<path class="st0" d="M215.1,65.5c-1.2,0.8-1.7,2.5-1.3,3.9c0.8,0.2,1.6,0.7,2.4,0.3c1.2-0.6,1.3-2.3,0.7-3.3
			C216.7,65.6,215.8,65.1,215.1,65.5z M216.6,68.7c-0.5,0.9-2.1,0.9-2.5-0.1c-0.1-1.1,0.5-2.2,1.3-3
			C216.8,65.9,217.1,67.6,216.6,68.7z"/>
		<path class="st0" d="M215.6,52.9c-1.1-0.1-2.1,1-1.8,2.1c0.2,1.2,1.4,1.9,2.5,1.8c1-0.4,0.8-1.5,0.8-2.4
			C217.2,53.5,216.4,52.8,215.6,52.9z M216.6,53.9c0.2,0.8,0.1,1.7-0.2,2.5c-0.5-0.1-1.2,0-1.6-0.4c-0.8-0.6-0.9-2.1,0.1-2.5
			C215.5,53.3,216.3,53.2,216.6,53.9z"/>
		<path class="st0" d="M217.3,79.3c1.2,0.3,2.3,0.8,3.4,1.2c-0.3-0.7-1.1-0.9-1.8-1.2c-1.6-0.5-3.3-1.1-5-1.2
			C215.1,78.7,216.2,78.9,217.3,79.3z"/>
	</g>
	<rect x="25.9" y="7.9" class="st1" width="195.8" height="134.3"/>
</g>
</svg>
