<?xml version="1.0" encoding="utf-8"?>
<!-- Generator: Adobe Illustrator 26.0.3, SVG Export Plug-In . SVG Version: 6.00 Build 0)  -->
<svg version="1.0" id="Слой_1" xmlns="http://www.w3.org/2000/svg" xmlns:xlink="http://www.w3.org/1999/xlink" x="0px" y="0px"
	 viewBox="0 0 239.5 150.2" style="enable-background:new 0 0 239.5 150.2;" xml:space="preserve">
<g>
	<path d="M183.6,14.9L183.6,14.9L183.6,14.9L183.6,14.9z"/>
	<path d="M178.2,10.2c-1.7-0.1-2.8,1.5-3.8,2.7c1.2,0.5,1.4,2.4,2.9,2.3c1.5-0.2,2.5-1.5,3.7-2.4c-0.4,1.1-1.8,1.6-1.8,2.9
		c0,1.5,1.1,2.8,1.4,4.2c0.8-0.9,1.9-1.5,2.6-2.4c0.6-0.7,0.4-1.8,0.4-2.6c-0.1,0-0.1,0-0.2,0c-0.4-0.7-0.9-1.5-0.8-2.3
		c0.4,0.6,0.6,1.3,0.9,2c0.1,0.1,0.2,0.2,0.4,0.1c-0.4-0.8-0.5-1.8-1.1-2.5c-0.5,0-0.7,0.5-0.6,0.9c0.2,1,1.1,1.9,0.9,3
		c0,1.5-1.6,2.1-2.5,3c-0.4-1.1-1.1-2.1-1.2-3.2c-0.1-1.1,1-1.7,1.6-2.5c0.3-0.4,0-1-0.1-1.4c-1,1.1-2,2.3-3.5,2.7
		c-1.3,0.2-1.7-1.4-2.6-2.1c0.7-0.7,1.4-1.6,2.3-2c1.2-0.3,2.3,0.2,3.5,0.2c0.5,0,1.3-0.3,1-0.8c-1-0.6-2.2-1-2.8-2.1
		c-0.2-1,0.4-2,0.5-2.9c1.1,0,2.4,0.3,3.1,1.3c0.8,0.9,0.7,2.1,0.6,3.2c0.6-0.6,1.1-1.3,1.8-1.7c0.7-0.5,1.6-0.6,2.5-0.7
		c0,1.3,0.1,2.9-1,3.8c-0.5,0.6-1.3,0.6-2,0.7c1,0.8,2.2,1.2,3.2,2c0.8,0.7,0.9,1.8,1,2.8c-1.4-0.6-3.1-0.1-4.2-1.2
		c-0.2-0.2-0.4-0.2-0.7-0.3c0.5,0.7,1.2,1.3,2.1,1.4c1.1,0.1,2.2,0.2,3.3,0.7c0-1.1,0-2.3-0.6-3.2c-0.7-0.9-1.9-1.4-2.9-1.9
		c0.6-0.2,1.1-0.5,1.5-1c0.9-1.2,0.9-2.7,0.8-4.1c-1.5,0-3.1,0.5-4.2,1.6c0-0.8-0.2-1.7-0.8-2.3c-0.9-1.1-2.4-1.5-3.7-1.3
		c-0.1,1.1-0.8,2.2-0.6,3.3c0.4,1.2,1.8,1.7,2.9,2.3C180.2,10.7,179.2,10.1,178.2,10.2z"/>
	<path d="M166.5,11.2c0.3,0.9,0.6,2,1.6,2.3c1.1,0.2,2-0.5,2.9-0.9c1.7-1,3.4-2,4.9-3.3c0.8-0.7,0.8-2,0-2.7c-1.1-1-2.6-0.8-3.9-0.7
		c-1.7,0.2-3.3-0.8-5.1-0.6c-0.7,0.1-1.5-0.2-2.2-0.1c-1,0.3-1.4,1.5-1,2.4C164.2,9,166,9.6,166.5,11.2z M164.4,5.7
		c0.4-0.4,0.9-0.1,1.3-0.1c0.8,0.1,1.6-0.1,2.4,0.1c1,0.2,2,0.5,3.1,0.6s2.2-0.2,3.4,0c0.7,0.2,1.6,0.7,1.6,1.5
		c0,0.8-0.6,1.3-1.1,1.7c-1.4,1.1-3,2.1-4.6,3c-0.7,0.4-1.5,0.8-2.3,0.6c-0.9-0.4-1-1.5-1.4-2.3c-0.5-1.4-2.2-2.1-2.7-3.5
		C163.8,6.7,163.9,6.1,164.4,5.7z"/>
	<path d="M148.8,13.1c-0.8,0.8-0.5,2.5,0.7,2.8c1.5,0,2.6-1.5,4.2-1.5c0,0.2,0,0.6,0,0.8c-0.7,0.9-2.2,0.6-2.6,1.7
		c-0.4,1.3,1.3,2.4,2.4,1.7c1.5-0.6,1.6-2.5,2.6-3.6c0.5-0.6,1.4-0.2,1.4,0.5c0.1,1.3-1.6,1.9-1.5,3.3c0.2,1.2,1.9,1.5,2.7,0.6
		c1.1-1,1-2.6,1.6-3.8c0.6-0.5,1.5-0.1,1.9,0.5c0.6,1.2,0,2.5,0.2,3.8c0,0.5,0.7,0.5,1,0.3c0.5-0.4,0.8-1.1,0.7-1.7
		c0-1.3-0.9-2.3-1-3.6c0-1.2,1-2.3,0.7-3.5c-0.3-0.9-1.4-1.2-2.2-0.8c-1.1,0.4-1.4,1.7-2.4,2.2c-0.3-1.5,1.7-2,1.5-3.4
		c-0.2-1-1.4-1.5-2.3-1.1c-1.3,0.5-1.4,2.2-2.4,3c-0.4-2,2.4-2.7,2.2-4.7c-0.3-1.4-2.3-1.9-3.3-1c-1.5,1.1-1.5,3.1-1.7,4.8
		c-0.5-1-0.9-2.2-2-2.6c-1.2-0.5-2.8,0.7-2.4,2c0.5,1.3,2.3,1.5,2.8,2.8C150.6,12.7,149.5,12.4,148.8,13.1z M151.6,12
		c-0.8-0.9-2.3-1.2-2.6-2.4c-0.1-1.1,1.2-1.8,2.1-1.3c1.3,0.5,1,2.3,2.3,2.7c0.2-1.7,0-3.9,1.6-5.1c0.9-0.8,2.8-0.2,2.7,1.1
		c-0.3,1.3-1.7,1.9-2.1,3.1c-0.3,0.5,0,1,0,1.6c-0.2,0.3-0.8,0.7-0.1,1c-0.2,0.3-0.3,0.6-0.5,0.9c-0.1-0.1-0.3-0.2-0.4-0.3
		c-0.4-0.6-0.8-1.1-1.3-1.6c-0.4,0.9,0.1,1.8,1,2.1c0.3-0.2,0.7-0.2,1-0.2c0.3,0.3,0.6,0.7,1.1,0.4c0.1-0.5-0.2-0.8-0.6-1
		c0.4-0.1,0.8-0.2,1.1-0.3c0.1,0.3,0.3,0.5,0.5,0.7c0.1,0.7,0.4,1.3,0.9,1.8c0.8,0.3,0.6-0.9,0.4-1.3c-0.2,0.3-0.3,0.6-0.3,0.9
		c-0.2-0.3-0.3-0.5-0.5-0.8c0.4-0.3,0.5-0.8,0.8-1.3c-0.5-0.4-1.3-0.8-1.8-0.2c0-0.2-0.1-0.5-0.2-0.6c-0.2-0.1-0.4-0.2-0.6-0.3
		c1.1-0.8,1.1-2.5,2.4-3c0.7-0.4,1.7,0.2,1.8,1c-0.3,1-1.4,1.5-1.6,2.5c-0.1,0.5,0.4,1.2,0.9,0.8c0.8-0.6,1.2-1.7,2.2-2.1
		c0.6-0.2,1.4,0,1.5,0.7c0.3,1.1-0.6,2.1-0.7,3.2c-0.1,1.5,1.2,2.7,0.9,4.2c0,0.5-0.5,0.9-0.9,1.1c-0.1-1.4,0.5-3-0.3-4.3
		c-0.5-0.9-1.9-1.1-2.5-0.2c-0.5,1.2-0.5,2.8-1.6,3.7c-0.6,0.4-1.9,0.2-1.8-0.7c0.2-1,1.4-1.6,1.5-2.7c0.1-0.7-0.5-1.6-1.3-1.5
		s-1.2,1-1.5,1.7c-0.4,1-0.9,2.1-2,2.4c-0.8,0.4-1.8-0.4-1.6-1.2c0.5-1,2-0.7,2.6-1.7c0.3-0.5,0-1.4-0.6-1.4
		c-1.3,0.1-2.2,1.2-3.5,1.5c-1,0-1.3-1.5-0.7-2.1c0.5-0.7,1.4-0.4,2.1-0.4C151.7,13.1,151.9,12.4,151.6,12z"/>
	<path d="M192.2,12.3c-0.7,0.3-1.6,0.7-1.8,1.5c-0.3,0.8,0.1,1.8,1,1.9c1.2,0.2,2.3-0.4,3.4-0.7c-0.2,1.3-1.4,3-0.3,4.2
		c1.4,1.4,4,0.6,4.7-1.2c0.5-1.1,0.2-2.3-0.1-3.4c1.2,0.5,2.2,1.7,3.6,1.8c0.9,0.1,2-0.4,2.2-1.4c0.1-1.2-0.8-2.4-1.9-2.9
		c-0.7-0.3-1.5-0.3-2.2-0.3c0.9-1,2.7-0.8,3.3-2.2c0.6-1.3-0.6-2.8-2-2.6c-1.4,0.2-2.2,1.6-3.1,2.5c0-0.8,0.1-1.6,0-2.4
		c-0.1-1.3-1.6-2.2-2.8-1.8c-0.8,0.3-1.4,1-1.5,1.9c-0.1,1.1,0.8,1.9,1,2.9c-0.6-0.5-0.9-1.3-1.5-1.8c-1.2-0.7-3-0.5-3.8,0.6
		c-0.4,0.6-0.4,1.4,0,2C190.6,11.7,191.4,12,192.2,12.3z M194.9,8c-0.5-1.5,1.4-3,2.7-1.9c1.5,1,0.1,3,1.1,4.3
		c0.9-0.9,1.6-2.1,2.9-2.7c1.1-0.4,2.4,0.7,1.9,1.8c-0.3,1.1-1.7,1.1-2.5,1.7c-0.6,0.3-0.8,0.9-0.9,1.5c-0.4-0.1-0.8-0.2-1.1-0.3
		c0.4-0.4,1.3-1,0.6-1.6c-0.8-0.6-1.5,0.5-1.9,1c-0.2-0.7-0.1-1.8-1-2c-0.2,0-0.5,0.1-0.7,0.1c0.2,0.1,0.5,0.2,0.7,0.3
		c0.8,0.3,0.1,1.9,1.2,1.9c0.5-0.3,0.9-1.5,1.6-0.9c-0.2,0.5-0.7,0.8-1.1,1.2c0.6,0.5,1.4,0.5,2,0.9c0,0.1,0,0.4,0.1,0.5
		c-0.9,0.2-1.7-0.4-2.6-0.4c-0.6,0.2-0.4,0.9-0.4,1.3c0.1,0.5-0.4,0.9-0.7,1.2c-0.7-0.7,0.1-2-0.9-2.4c-0.8,0.3-1.5,0.8-2.3,0.7
		c0.3-0.7,1.1-0.8,1.6-1.2c-0.5-0.5-1.3-1-1.1-1.9c0.5,0.2,1,0.7,1.6,0.7c0.6-0.2,0.5-0.9,0.6-1.4C195.6,9.8,195.3,8.8,194.9,8z
		 M190.5,9.1c0.6-0.7,1.7-0.9,2.6-0.7c1.3,0.2,1.3,2.3,2.8,2.1c-0.1,0.3-0.2,0.6-0.3,0.9c-0.6-0.2-1.3-1.1-1.9-0.4
		c-0.4,0.7,0.4,1.4,0.8,1.9c-0.4,0.2-1,0.4-1.2,0.9c-0.1,0.6,0.6,0.9,1.1,0.7c0.6-0.1,1.1-0.4,1.6-0.6c0.1,0.8-0.1,2.2,1,2.3
		c0.9-0.5,1-1.6,0.9-2.5c0.9,0.1,1.8,0.7,2.7,0.4c0.7-0.3,0.2-1.1-0.3-1.3c1.6-1.2,4,0.1,4.1,2c0,0.9-1,1.4-1.8,1.3
		c-1.4-0.1-2.3-1.3-3.5-1.7c-0.2,0.1-0.4,0.2-0.6,0.4c0.5,1.3,0.7,3-0.4,4.1c-1,1.1-3.4,1.2-3.8-0.5c0-1.2,0.6-2.4,0.9-3.6
		c-0.3-0.1-0.5-0.2-0.8-0.3c0,0.1-0.2,0.2-0.2,0.3c-1,0.2-1.9,0.8-3,0.6c-0.9-0.2-0.9-1.3-0.4-1.9c0.6-0.7,1.6-0.7,2.4-1.1
		c-0.9-0.4-2-0.6-2.6-1.4C190.2,10.4,190.1,9.6,190.5,9.1z"/>
	<path d="M122.5,16.8c1.1-0.1,2-0.8,3.1-1c1.5-0.1,2.5,1.6,4,1.4c1.2-0.3,1.5-1.6,1.5-2.7c0-1.7,0.2-3.5-0.2-5.1
		c-0.3-1.4-1.4-2.4-2.6-2.9c-1.5-0.7-3.2-0.6-4.8-0.7c-1.2-0.1-2.4-0.2-3.6-0.2c-0.9,0.1-1.7,0.7-2.3,1.4c-1.2,1.6-1.5,3.9-1,5.8
		C117.3,15.3,119.9,17,122.5,16.8z M117,8.8c0.4-1.1,1.1-2.2,2.2-2.7c1.7-0.4,3.4,0,5.1,0.1c1.9,0.1,4,0.3,5.4,1.8
		c1.1,1.2,0.9,2.9,0.9,4.5c-0.1,1.2,0.1,2.4-0.3,3.5c-0.2,0.6-0.7,1-1.4,0.9c-1.1-0.2-1.9-1.3-3.1-1.4c-1.3-0.1-2.4,0.9-3.7,0.9
		c-2,0.2-4-1-5-2.8C116.6,12.1,116.5,10.4,117,8.8z"/>
	<path d="M210.1,15c0.8,0.8,1.2,2,1.8,2.9s1.5,1.6,2.6,1.8c1.5,0.3,3-0.5,3.9-1.7c1.2-1.6,1.3-3.7,1-5.5c-0.3-1.7-0.8-3.4-1.8-4.7
		c-1.2-1.5-3.2-2.4-5.1-2c-0.9,0.2-1.8,0.7-2.6,1.1c-0.8,0.3-1.6,0.7-2.2,1.3c-0.8,0.9-1.2,2.1-1.4,3.3c-0.1,0.6-0.1,1.3,0.4,1.8
		C207.5,14.3,209.1,14.1,210.1,15z M206.8,10.8c0.3-1.3,1.1-2.6,2.4-3.2c1.1-0.5,2.2-1.1,3.4-1.5c1.5-0.3,3.1,0.3,4.2,1.4
		c1.3,1.3,1.8,3.2,2.1,5c0.3,1.7,0.2,3.6-0.8,5.1c-0.7,1-1.8,1.8-3,1.8c-1.1,0-2.1-0.5-2.8-1.3c-0.8-1-1.1-2.4-2-3.3
		c-1-0.9-2.6-0.7-3.5-1.7C206.4,12.4,206.7,11.5,206.8,10.8z"/>
	<path d="M134.8,12.2c-0.3,1-1.1,1.8-1.2,2.8c-0.2,1.9,1.4,3.7,3.3,3.9c1.3,0.2,2.6-0.4,3.7-1c0.6,0.6,1.1,1.3,1.9,1.5
		c1.5,0.6,3.4-0.1,4.1-1.7c0.7-1.5,0.2-3.4-1.1-4.4c0.4-0.5,1-0.9,1.2-1.5c0.6-1.4,0.2-3.3-1.2-4.2c-0.8-0.4-1.8-0.5-2.6-0.1
		c-0.7,0.3-1,1.1-1.6,1.6c-0.5,0-0.8-0.4-1.1-0.7c-1.2-1.4-3-2.4-4.8-2.2c-1.5,0.2-2.4,1.9-2.1,3.3
		C133.5,10.5,134.4,11.2,134.8,12.2z M135,6.6c1.6-0.5,3.2,0.4,4.4,1.4c0.6,0.5,1,1.5,1.9,1.5c0.8-0.3,0.9-1.3,1.7-1.6
		c1-0.5,2.5-0.2,3.1,0.8c0.8,1.2,0.7,3-0.5,3.9c-0.4,0.3-0.7,0.8-0.2,1.2c1.2,1.1,1.5,3.1,0.4,4.4c-0.9,1.1-2.8,1.3-4,0.5
		c-0.5-0.3-0.7-0.9-1.3-1.1c-0.9,0.2-1.6,0.9-2.5,1c-1.4,0.2-2.9-0.3-3.6-1.5c-0.6-0.9-0.7-2.1-0.1-3.1c0.3-0.6,0.7-1.1,0.9-1.7
		c-0.3-1-1.2-1.7-1.4-2.8C133.6,8.3,134,7,135,6.6z"/>
	<path d="M121.2,14.2c1.3,0.6,2.4-0.6,3.7-0.8c1.2-0.3,2.4,0.2,3.4,0.9c0.3-0.2,0.6-0.4,0.6-0.8c0.3-1.4-0.2-3-1.1-4.1
		c-0.8-1-2-1.5-3.1-2c-0.8-0.3-1.6,0.1-2.4,0.3c-0.7,0.2-1.4,0.2-2,0.5c-1.2,0.6-1.7,2.2-1.2,3.4C119.5,12.5,120.1,13.7,121.2,14.2z
		 M121.1,8.3c1.1-0.1,2-0.7,3.1-0.7c1.3,0.4,2.6,1,3.5,2.2c0.9,1.1,1.2,2.7,0.7,4.1c-1.1-0.8-2.6-1.3-4-0.7c-1,0.3-2,1.2-3.1,0.7
		c-1-0.6-1.6-1.7-1.9-2.7C119,9.8,119.8,8.3,121.1,8.3z"/>
	<path d="M168.4,9.9c0.1,0.7,0.5,1.6,1.4,1.5c1.3-0.2,2.4-0.9,3.5-1.5c0.8-0.4,0.7-1.6-0.1-2c-1.2-0.8-2.6-0.2-3.9-0.2
		c-0.7,0.1-1.3-0.3-2-0.4c-0.4,0-0.7,0.6-0.6,1C166.9,9.1,168.3,8.9,168.4,9.9z M167.2,7.7l0.2-0.1c1.3,0.6,2.8,0.3,4.3,0.2
		c0.8,0,1.7,0.3,1.8,1.1c-0.2,0.7-1,0.9-1.6,1.3c-0.8,0.3-1.7,1-2.6,0.7c-0.7-0.5-0.2-1.7-1.1-2C167.7,8.6,166.7,8.4,167.2,7.7z"/>
	<path d="M136.4,16.7c1,0.5,2.2,1,3.3,0.4c0.5-0.3,0.7-0.9,1-1.4c0.8,0.4,0.8,1.6,1.6,2c1.4,0.7,3.1-0.8,2.8-2.2
		c-0.1-1-0.9-1.5-1.6-2c0.7-0.5,1.5-1.1,1.9-1.9c0.2-0.9-0.3-1.9-1.1-2.3c-0.7-0.3-1.5,0.1-2,0.6s-0.5,1.2-0.7,1.9
		c-1-1.3-1.9-2.7-3.2-3.5c-0.7-0.5-1.7-0.5-2.4,0.1c-0.6,0.7-0.5,1.8,0,2.5c0.6,0.7,1.5,1,2.1,1.6c-0.9,0.4-2.1,0.7-2.7,1.5
		C134.8,14.9,135.4,16.2,136.4,16.7z M135.9,13.9c0.7-0.6,1.7-0.9,2.5-1.2c-0.2-0.9-1.1-1.3-1.8-1.8c-0.9-0.5-1-2.2,0-2.6
		c0.5-0.1,1.1,0,1.5,0.3c1.4,0.9,2.2,2.3,3.2,3.6c0.3-0.2,0.8-0.4,0.8-0.9c0-1,0.9-1.7,1.8-1.7c0.7,0.2,1.1,1,1.1,1.7
		c-0.3,1.1-1.5,1.5-2,2.3c0.6,0.5,1.5,0.8,1.7,1.7c0.4,1.2-0.8,2.4-2,2.2c-0.9-0.4-1-1.5-1.7-2.2c-0.6-0.2-0.8,0.5-1.1,0.9
		c-0.3,0.5-0.9,0.8-1.5,0.8c-0.9-0.1-1.8-0.4-2.5-1.1C135.5,15.4,135.4,14.4,135.9,13.9z"/>
	<path d="M213,14.2c0.4,0.8,0.7,1.8,1.4,2.4c0.5,0,1,0,1.4-0.3c1-0.7,1.2-2,1.1-3.2c-0.1-1.7-0.6-3.4-1.8-4.6c-1-0.8-2.3,0-3.4,0.1
		c-1.7,0.2-2.5,1.9-3.3,3.3c0.3,0.3,0.6,0.7,0.9,1C210.4,13.8,212.2,13,213,14.2z M209.6,10.8c0.5-0.7,1.1-1.6,2-1.7
		c0.8-0.2,1.7-0.4,2.5-0.6c0.6-0.1,1,0.4,1.3,0.8c0.9,1.3,1.3,3,1.2,4.6c0,0.8-0.3,1.6-0.9,2.1c-0.3,0.3-0.9,0.4-1.2,0.1
		c-0.7-0.7-0.7-1.8-1.5-2.5c-1-0.9-2.7-0.1-3.5-1.2C209,11.9,209.3,11.2,209.6,10.8z"/>
	<path d="M154.9,11.7c0.3-0.3-0.2-0.6-0.2-0.8c-0.3,0.1-0.7,0.2-1,0.3C153.5,11.9,154.6,12.3,154.9,11.7z"/>
	<path d="M140.5,12.2c-0.1-0.3-0.3-0.4-0.6-0.4c0.2,0,0.3,0.1,0.4,0.2C140.4,12,140.5,12.1,140.5,12.2z"/>
	<path d="M139.2,14.6c0.1,0.6,0.7,0.7,1.2,0.7c0-0.2,0-0.5,0-0.6c-0.3,0.8-1.2-0.2-0.8-0.5c0.1-0.3,0.5-0.1,0.7-0.1
		c0.1,0.3,0.2,0.7,0.4,1c0.3-0.6,0-1.2-0.5-1.5c0.1-0.2,0.2-0.3,0.4-0.5c0.1,0.4,0.2,0.9,0.5,1.3c0.2-0.1,0.3-0.2,0.5-0.3l-0.4-0.2
		c-0.4-0.7,0.8-1,0.9-0.2c-0.2,0.3-0.5,0.6-0.7,0.9c0.7,0.1,1.3-0.8,0.9-1.3c-0.3-0.5-1.1-0.6-1.5-0.1c0-0.3,0-0.8-0.3-1
		c0.2,0.4,0,1-0.5,0.9c-0.8,0.1-1-1.1-0.2-1.3c0,0,0,0,0.1,0c-0.6-0.1-1.2,0.5-1.2,1.1c0.1,0.1,0.7,0.4,1.1,0.6
		C139.5,13.8,139,14.1,139.2,14.6z"/>
	<path d="M168.5,29.5c-3.1,1-5.2,4.3-4.6,7.5c0.2,1.2,1,2.5,2.3,2.7c1.4,0.2,2.6-0.6,3.8-1.3c0.9-0.6,2.1-1,3.2-0.4
		c0.8,0.5,0.7,1.8,1.5,2.2c0.7,0.3,1.4-0.1,1.8-0.7c0.8-1,0.9-2.4,0.9-3.7c0-4.2-0.5-8.5-0.9-12.7c-0.3-2.4-0.6-5-1.8-7.2
		c-0.6-1.1-1.9-1.5-3-1.3c-2.8,0.3-5.1,2.5-6.3,5c-1.4,3-1.8,6.4-1.3,9.6c1.4,0.5,3.3,0.2,4.1-1.2c0.4-0.7,0.4-1.5,0-2.2
		c-0.7-1.2-1.1-2.7-0.7-4.1c0.3-1.4,2-2.4,3.4-1.9c1.1,0.4,1.3,1.7,1.5,2.7c0.2,1.6,0.4,3.3-0.2,4.8C171.5,28.7,169.8,29,168.5,29.5
		z M172.7,22.8c-0.2-1-0.4-2-1.1-2.8c-1.1-1-2.9-0.7-3.8,0.3c-1,0.9-1.2,2.4-0.9,3.7c0.2,0.9,0.7,1.7,1,2.6c0.3,0.7-0.1,1.6-0.8,2
		c-0.8,0.6-1.9,0.5-2.9,0.5c-0.3-3.2,0-6.5,1.4-9.3c1-2,2.8-3.8,5-4.4c0.9-0.2,1.8-0.3,2.7,0c0.7,0.4,1.1,1.2,1.4,2
		c0.9,2.3,1.1,4.7,1.4,7.1c0.4,4,0.8,8,0.8,12c0,1.1-0.2,2.5-1.1,3.3c-0.4,0.3-1,0.5-1.3,0c-0.4-0.7-0.5-1.6-1.3-1.9
		c-1-0.7-2.3-0.4-3.2,0.2c-1.2,0.7-2.5,1.6-4,1.3c-1.1-0.4-1.6-1.6-1.8-2.8c-0.2-2.8,1.6-5.7,4.3-6.6c1.4-0.5,3.2-0.9,3.9-2.3
		C173.1,26.2,172.9,24.4,172.7,22.8z"/>
	<path d="M206.8,41.7c0.3,0.8,1.3,1,1.9,0.6c0.8-0.3,1.2-1.3,1.4-2.1c0.6-3,0.5-6.1,0.7-9.2c0.1-3.1,0.3-6.2,0-9.3
		c-0.1-1.4-0.4-2.8-1.3-3.9c-0.7-0.9-2-1.3-3.1-1.1c-1.3,0.2-2.5,1-3.5,1.9c-2.6,2.4-4.2,5.7-4.5,9.3c-0.1,0.9,0.1,1.8,0.7,2.4
		c0.7,0.6,1.8,0.8,2.6,0.3c0.7-0.4,1.1-1.2,1.1-2c0-1.1-1-1.9-0.9-3c0.4-1.3,0.8-2.6,1.8-3.5c0.5-0.4,1.2-0.9,1.8-0.7
		c0.5,0.2,0.7,0.8,0.8,1.4c0.5,2.4,0.5,5,0,7.5c-0.1,0.6-0.4,1.2-1,1.3c-1.4,0.3-3-0.3-4.4,0.3c-1.8,0.7-3,2.4-3.5,4.2
		c-0.4,1.3-0.6,2.8,0.2,4c0.6,1,1.9,1.4,3,1.3c1.8,0,3.4-1.1,5.2-1.1C206.6,40.4,206.5,41.3,206.8,41.7z M200.5,41
		c-1,0-2.1-0.4-2.6-1.3c-0.6-1.3-0.3-2.9,0.2-4.2c0.6-1.5,1.7-2.8,3.3-3.3c1.3-0.4,2.7,0.2,4-0.2c0.7-0.2,1.2-0.8,1.3-1.4
		c0.6-2.6,0.6-5.4,0-8c-0.2-0.8-0.7-1.7-1.6-1.5c-1.4,0.2-2.4,1.5-2.9,2.7c-0.4,0.9-1,2-0.5,3c0.4,0.9,1,1.8,0.5,2.8
		c-0.5,1.1-2.1,1.3-2.9,0.4c-0.6-0.6-0.5-1.5-0.5-2.2c0.4-3.5,2.1-6.8,4.7-9.1c0.9-0.7,1.9-1.3,3-1.5s2.3,0.3,2.9,1.3
		c1.1,1.8,1,3.9,1.1,5.9c0,3.8-0.2,7.7-0.3,11.5c-0.1,1.6-0.2,3.3-0.7,4.9c-0.2,0.9-1.2,1.6-2.1,1.2c-0.7-0.6-0.5-1.8-1.4-2.1
		C204.1,39.8,202.4,41,200.5,41z"/>
	<path d="M116.8,33.7c1.9,0.3,3.7-1.5,3.9-3.4c0.2-2.3-1.1-4.5-0.9-6.8c0.1-1.3,1.1-2.3,1.1-3.5c0-1.3-1.6-2.2-2.8-1.8
		c-0.8,0.2-1.5,0.8-1.9,1.6c-1.5,3.3-2.2,7.1-1.6,10.7C115,31.7,115.5,33.1,116.8,33.7z M116.6,19.9c0.3-0.6,0.8-1,1.3-1.3
		c1-0.5,2.6,0.1,2.6,1.3c-0.1,1.2-0.9,2.1-1.1,3.3c-0.4,2.5,1.1,4.8,0.8,7.3c-0.2,1.6-1.8,3.1-3.5,2.7c-1-0.6-1.4-1.8-1.7-2.9
		C114.4,26.9,115.1,23.2,116.6,19.9z"/>
	<path d="M126.9,22.1c0.2-1.1-0.3-2.3-1.2-3c-0.5-0.4-1.2-0.2-1.7,0c-1.9,0.9-2.8,3.3-2.5,5.3c0.3,2.1,0.6,4.2,1.2,6.3
		c0.1,0.6,0.9,1.2,1.5,0.7c0.8-1.1,0.7-2.5,0.9-3.7C125.3,25.7,126.7,24.1,126.9,22.1z M124,31c-0.4,0.6-0.9-0.1-1-0.5
		c-0.5-2.2-0.9-4.4-1.1-6.6c-0.1-1.9,0.9-4.3,3-4.7c0.8-0.1,1.3,0.8,1.5,1.5c0.5,2.1-0.9,3.9-1.5,5.7C124.4,27.9,124.8,29.6,124,31z
		"/>
	<path d="M147.3,30.7c0.1,3.1-0.7,6.1-0.6,9.1c0,0.9,0.2,1.9,1.1,2.5c0.8,0.4,1.7,0,2.2-0.6c1-1.1,1.7-2.5,2-3.9
		c0.3-1.2,0.2-2.6,1-3.6c0.7-0.9,1.8-1.2,2.9-1.5c0,2.2-0.7,4.6,0.3,6.7c0.6,1.5,2.6,2.5,4.2,1.7c1.3-0.8,1.5-2.6,1.1-4
		c-0.5-2.1-0.8-4.2-0.7-6.3c0.1-2.6,1.1-5.2,0.6-7.8c-0.2-1.2-0.9-2.5-2.1-2.9c-0.9-0.3-1.8,0.3-2.1,1.1c-0.9,1.9,0.1,4.1-0.7,6
		c-0.5,1.2-1.7,1.9-2.8,2.4c-0.8,0.3-1.6,0.7-2.5,0.7c-0.2-2.9,0.2-5.8-0.2-8.6c-0.1-0.9-0.5-1.9-1.3-2.3c-0.7-0.3-1.6-0.1-2.1,0.4
		c-0.8,0.7-1,1.8-1.1,2.8C146.5,25.3,147.2,28,147.3,30.7z M148.1,19.9c0.5-0.4,1.3-0.5,1.8-0.1c0.7,0.6,0.8,1.6,0.9,2.5
		c0.3,2.5-0.1,5.1,0.1,7.6c0,0.5,0.5,0.8,0.9,0.7c1.9-0.5,3.9-1.2,5-3c1-1.8,0.2-3.9,0.6-5.8c0.2-0.6,0.5-1.2,1.1-1.4
		c1.1-0.2,1.9,0.7,2.3,1.6c0.8,2,0.3,4.2,0,6.2c-0.5,2.4-0.5,4.9,0,7.3c0.2,1,0.5,2.1,0.5,3.2c-0.1,1-0.6,2-1.6,2.3
		c-1.4,0.3-2.8-0.7-3.2-2.1c-0.8-2.2,0-4.5-0.1-6.7c-1.3,0.3-2.8,0.7-3.6,1.8c-1,1.4-0.7,3.1-1.3,4.6c-0.5,1.3-1.1,2.6-2.3,3.3
		c-0.8,0.5-1.7-0.3-1.8-1.1c-0.4-2.7,0.2-5.5,0.4-8.2c0.3-3.5-0.8-6.9-0.6-10.3C147,21.4,147.3,20.4,148.1,19.9z"/>
	<path d="M184,19c-0.5-0.3-1.1-0.1-1.5,0.1c-0.6,0.3-1,0.9-1.2,1.5c-0.5,1.3-0.9,2.6-1.1,3.9c-0.5,3.4,0.2,6.9,0.3,10.3
		c0,0.8,0.1,1.8,0.7,2.4c0.5,0.5,1.2,0.9,1.9,0.7c0.8-0.3,1.2-1,1.5-1.8c1-2.3,1-4.8,1.8-7.1c0.4-1,1-2.1,2.1-2.4
		c0.9-0.3,2.1,0.1,2.3,1.2c0.2,2.2-0.3,4.4-0.8,6.5c-0.3,1.3,0.1,3,1.4,3.5c1.2,0.5,2.5-0.5,3-1.7c0.5-1.4,0.4-2.9,0.5-4.4
		c0.1-2.4,0.5-5-0.5-7.2c-0.7-1.8-2.4-3.2-4.4-3.1c-1.5-0.1-2.8,0.7-4.3,0.8C184.3,21.8,185.1,19.8,184,19z M187.2,22.4
		c1.6-0.6,3.5-0.8,5,0.2s2.2,2.9,2.3,4.6c0.1,2.1-0.1,4.2-0.2,6.4c-0.1,1.2-0.1,2.4-0.8,3.4c-0.5,0.7-1.6,1.1-2.3,0.5
		c-1-0.7-1-2.1-0.8-3.2c0.5-2.1,1-4.4,0.7-6.6c-0.2-1.2-1.6-1.6-2.7-1.4c-1,0.2-1.7,1.1-2.1,1.9c-1.2,2.5-1,5.4-2.1,8
		c-0.3,0.6-0.6,1.1-1.2,1.4c-0.9,0.3-1.7-0.5-1.9-1.3c-0.3-1.2-0.2-2.5-0.3-3.7c-0.3-3.6-0.8-7.3,0.6-10.8c0.3-1.1,0.8-2.4,2.1-2.5
		c0.4-0.1,0.6,0.3,0.8,0.6c0.3,0.9,0.1,2.1,1,2.7C185.8,23,186.6,22.6,187.2,22.4z"/>
	<path d="M125.8,30c-0.7,3.3-1,6.8-0.3,10.1c0.7,3.4,2.6,6.7,5.7,8.5c0.9,0.5,2,0.7,3.1,0.3c2.8-1,5.6-2.8,7-5.5
		c1.8-3.5,3.1-7.3,3-11.2c-0.1-4.2-2.7-8.3-6.5-10.3c-1.5-0.8-3.3-1.2-5-0.9c-1.4,0.2-2.7,0.9-3.7,1.9
		C127.2,24.8,126.3,27.5,125.8,30z M129.8,22.8c0.9-0.7,1.9-1.2,3.1-1.4c1.8-0.3,3.6,0.2,5.2,1.1c3.4,2,5.7,5.7,5.8,9.7
		c0.2,3.8-1.1,7.6-2.9,10.9c-1.4,2.8-4.1,4.5-7,5.5c-1.4,0.5-2.9-0.3-4-1.2c-2.5-2.1-4-5.2-4.4-8.4c-0.5-3.4,0-6.8,0.8-10
		C127,26.6,128,24.3,129.8,22.8z"/>
	<path d="M216.7,21.7c-2,0.6-4,2.3-3.7,4.5c0.1,1.6,1.7,2.3,2.8,3.2c1.8,1.7,0.7,4.6,2.3,6.4c0.6,0.6,1.6,0.3,2-0.4
		c0.6-0.9,0.5-2,0.7-3c0.2-2.9,0.1-5.9-0.6-8.8C220,22,218.1,21.4,216.7,21.7z M219.9,23.7c0.7,3.3,0.8,6.7,0.4,10.1
		c-0.1,0.7-0.3,1.5-0.9,1.9c-0.4,0.3-1,0.1-1.2-0.3c-1-1.7-0.5-3.8-1.5-5.5c-0.7-1.2-2.3-1.5-3-2.7c-0.5-1-0.3-2.2,0.3-3.1
		s1.7-1.5,2.7-1.9C217.9,21.8,219.6,22.3,219.9,23.7z"/>
	<path d="M118.9,30.7c0.6-2.4-0.2-5.2-1.8-7c-1.2,2.3-1.8,5.3-0.4,7.7C117.3,32.4,118.8,31.7,118.9,30.7z M117.2,24.4
		c1.1,1.7,1.8,3.8,1.4,5.9c-0.1,0.5-0.4,1.2-1,1.3c-0.6,0.1-0.8-0.6-1-1C115.9,28.5,116.3,26.2,117.2,24.4z"/>
	<path d="M217.6,27.5c0.8,0.7,0.6,1.9,1.2,2.6c0.7,0.3,1.1-0.7,1-1.3c-0.2-1.7-0.8-3.3-1.7-4.7c-0.3-0.3-0.8-0.7-1.1-0.3
		c-0.5,0.8-0.9,1.7-0.9,2.7C216.2,27.3,217,27.2,217.6,27.5z M217.3,23.9c1.1,1.4,1.7,3.1,2,4.7c0.1,0.5-0.1,0.9-0.3,1.3
		c-0.4-0.8-0.5-1.9-1.1-2.6c-0.4-0.5-1.2-0.3-1.5-0.8C216.3,25.6,216.9,24.7,217.3,23.9z"/>
	<path d="M131,44.7c0.2-0.4,0.4-0.8,0.5-1.3c1.1-3.9,2.3-7.8,3.5-11.7c0.4-1.5,0.9-3.1,0.7-4.7c-0.1-0.8-0.5-1.7-1.2-2.2
		c-0.8-0.4-1.7,0.1-2.2,0.6c-2,1.8-3.3,4.2-3.8,6.8c-0.8,3.6-0.2,7.4,0.9,10.9C129.5,43.9,130.2,44.4,131,44.7z M129.7,29.4
		c0.8-1.6,1.9-3.3,3.5-4.2c0.7-0.4,1.5,0.1,1.7,0.7c0.8,1.7,0.3,3.7-0.2,5.5c-1.3,4.2-2.5,8.5-3.8,12.8c-0.7-0.2-1.1-0.8-1.3-1.5
		C128.2,38.4,127.7,33.6,129.7,29.4z"/>
	<path d="M134.2,40.6c-0.1,1.3,0.5,2.7,1.4,3.6c0.5,0.5,0.9-0.1,1.2-0.5c1.3-1.7,2.5-3.5,3.7-5.3c1.4-2.1,1.1-4.7,0.5-7
		c-0.4-1.3-0.7-2.6-1.4-3.7c-0.3-0.5-0.9-0.9-1.4-0.5c-1.6,2.2-2.2,5-2.7,7.6C135.2,36.7,134.4,38.6,134.2,40.6z M138,28.1
		c0.2-0.3,0.5-0.6,0.8-0.8c1.1,1,1.3,2.6,1.8,3.9c0.6,2.2,1.1,4.9-0.3,6.9c-1.3,2-2.7,4-4.2,5.9c-0.8-0.8-1.4-1.8-1.4-3
		c0-2,0.8-3.9,1.1-5.8C136.2,32.8,136.8,30.3,138,28.1z"/>
	<path d="M170.5,31.4c-1.4,0.1-2.8,0.7-3.7,1.9c-0.7,0.9-0.7,2.5,0.4,3.2c1.5,0.9,3.6,0.4,4.7-0.9c1-1.1,1-3-0.1-4
		C171.5,31.3,171,31.4,170.5,31.4z M172.3,33.8c-0.1,2.3-3.3,3.5-5.1,2.2c-0.7-0.7-0.6-1.9,0-2.6c1-1.3,2.8-1.8,4.4-1.6
		C172,32.4,172.4,33,172.3,33.8z"/>
	<path d="M205.5,33.7c-0.5-0.4-1.1-0.5-1.6-0.4c-1.8,0.3-3.6,1.6-3.9,3.5c-0.2,0.7,0.1,1.6,0.8,1.9c1.7,0.8,4.1,0.1,5-1.7
		C206.3,35.9,206.1,34.6,205.5,33.7z M205.5,36.6c-0.7,1.7-3,2.4-4.6,1.7c-0.6-0.3-0.8-1-0.6-1.6c0.3-1.3,1.4-2.4,2.7-2.8
		c0.6-0.2,1.4-0.4,2,0C205.6,34.6,205.8,35.7,205.5,36.6z"/>
	<path d="M216.6,35.5c-0.6-0.4-1.4-0.6-2.1-0.5c-1,0.1-2,0.7-2.5,1.7c-0.7,1.1-0.4,2.4-0.1,3.5c0.7,2.2,1.4,4.6,3.1,6.3
		c0.7,0.7,1.7,0.7,2.6,0.5c0.7-0.1,1.4-0.8,1.1-1.5c-0.3-1.5-1.5-2.7-1.6-4.2c0-1,0.6-2,0.6-3C217.9,37.2,217.5,36,216.6,35.5z
		 M216.7,41c-0.1,1.8,1.4,3.1,1.6,4.7c0,0.5-0.5,0.8-1,0.9c-0.7,0.1-1.6,0.2-2.1-0.4c-1.3-1.4-2-3.2-2.6-5c-0.4-1.1-0.9-2.3-0.7-3.5
		c0.1-1.1,1-2,2.1-2.3c1.3-0.4,2.9,0.4,3.2,1.8C217.6,38.6,216.9,39.8,216.7,41z"/>
	<path d="M121.1,49.3c0.9-0.8,2.3-0.5,3-1.4c0.9-1.1,0.7-2.7,0.5-4.1c-0.3-2.3-0.9-4.5-1.9-6.6c-0.6-1.3-2.1-2-3.4-1.6
		c-1.9,0.5-2.9,2.4-3.3,4.2c-1,4.2-1.9,8.5-1.4,12.8c0.1,0.8,0.2,1.6,0.7,2.2c0.5,0.5,1.2,0.3,1.7-0.1
		C118.9,53.2,119.3,50.7,121.1,49.3z M117,54.3c-0.3,0.3-0.7,0.5-1.2,0.3c-0.6-0.5-0.6-1.3-0.7-2.1c-0.5-4,0.3-8,1.2-11.9
		c0.4-1.8,1.1-4,3.1-4.6c1.4-0.6,2.8,0.4,3.3,1.7c1,2.4,1.7,5,1.8,7.6c0,1-0.1,2.2-1.1,2.7c-0.8,0.3-1.8,0.4-2.5,1
		C119.1,50.3,118.7,52.8,117,54.3z"/>
	<path d="M129.3,73.6c0.1,0,0.2,0,0.3-0.1c-0.2,0-0.3,0-0.5-0.1C129.2,73.5,129.2,73.6,129.3,73.6z"/>
	<path d="M158.4,60.3c-0.1,0.1-0.2,0.2-0.3,0.3c0,0,0,0,0.1,0c1.2-0.7,2.6,0,3.8-0.4c0.3-0.1,0.5-0.3,0.6-0.6
		C161.3,60.5,159.6,59.4,158.4,60.3z"/>
	<path d="M159.3,56.6c0.6-0.5,1.4-0.7,1.8-1.4c0,0,0,0,0-0.1c-0.5,0.4-1.2,0.6-1.6,1.1C159.4,56.3,159.4,56.5,159.3,56.6z"/>
	<path d="M158.6,57.6c0.2,0.4,0.3,0.9,0.8,1.1c1,0,1.4-1.2,2.2-1.5c0.4-0.2,0.9,0.1,1,0.5c0.3,0.6,0.3,1.4,0,1.9
		c0.1,0,0.1-0.1,0.2-0.1c0.9-0.9,0.9-2.8-0.3-3.5c-1.3-0.4-1.8,1.2-2.9,1.5c-0.3-0.2-0.4-0.6-0.3-0.9
		C159,56.9,158.7,57.2,158.6,57.6z"/>
	<path d="M154.6,53.7c-0.3-0.2-0.4-0.6-0.5-0.9c0,0.2,0,0.5,0.1,0.7c0.3,0.6,1,1,1.3,1.5C155.6,54.4,155,54.1,154.6,53.7z"/>
	<path d="M155,51.6c0.8-0.3,1.4,0.4,1.6,1.1c0.4,1.1,0.4,2.5,1.4,3.2c0.9-0.5,0-2,1.1-2.2c0.9-0.4,2.3,0.4,2,1.4
		c0.1,0,0.1-0.1,0.2-0.1c0.4-0.4,0.5-1,0.3-1.5c-0.4-1.1-1.9-1.3-2.8-0.8c-0.7,0.4-0.4,1.3-0.5,2c-1-1.1-0.6-2.8-1.6-3.8
		c-0.5-0.6-1.5-0.6-2.1-0.1s-0.7,1.3-0.5,2C154.1,52.3,154.4,51.7,155,51.6z"/>
	<path d="M202.5,86.4c0.1,0,0.2,0,0.4,0c-0.1-0.1-0.1-0.2-0.2-0.3C202.6,86.2,202.5,86.3,202.5,86.4z"/>
	<path d="M197.4,135c1.8,0.1,3.4,1.4,5.3,1.2c1.4-0.1,2.5-1.5,2.4-2.9c-0.1-2-2.4-3.5-4.2-2.7c-0.7,0.2-1.5,0.7-2.2,0.1
		c0.5-0.3,1-0.6,1.5-0.8c1.4-0.6,2.3-2,2.4-3.4c0-1-0.5-1.9-1.4-2.3c-0.8-0.5-1.8-0.4-2.7-0.1c-0.2-0.5-0.4-1-0.7-1.5
		c1.9-0.4,3.7-1.4,4.8-3c0.9-1.2,0.7-2.9,0.1-4.2c-0.7-1.6-1.4-3.5-3-4.4c-1.8-0.9-3.6-1.7-5.5-2.4c-1.2-0.4-2.7-1.2-3.9-0.2
		c-0.2-0.2-0.3-0.5-0.5-0.7c3.7-0.6,7.4,0.6,10.8,1.9c1.5,0.6,3.2,1.1,4.6,2.1c0.4,0.3,1,0.6,1.5,0.3c0.5-0.4,0.1-1-0.3-1.3
		c-4-3.2-9.2-4.5-14.2-4.8c-1.6-0.1-3.1-0.2-4.7,0.1c-1.7-1.2-3.9-1.1-5.8-1.8c-0.4-0.1-0.9-0.9-0.3-1c1.3,0.4,2.5,1.7,4,1.3
		c1.4-0.5,1.8-2.2,1.4-3.5c-0.4-1.5-1.2-2.9-1.3-4.4c0.6-0.6,1.1-1.3,1.6-2c2.1,2.1,0.8,5.2,1.8,7.7c1.5-0.7,3-1.4,4.5-2.1
		c0.9-0.4,1.7-0.9,2.7-1c0.1,0.6,0.1,1.2-0.3,1.7c-1.5,1.7-3.9,2.1-6,2.8c1.6,0.8,3.3,1.1,5,1.4c2.1,0.3,4.1,0.5,6.2,0.2
		c1.4-0.2,2.8-0.7,3.8-1.8c1.5-1.6,1.3-4.4-0.3-5.8c-0.6-0.5-1.4-0.9-1.8-1.6c-0.5-1-0.2-2.2-0.7-3.3c-0.7-1.6-2.6-2.4-4.3-2
		c-1.8,0.3-3.2,1.5-4.2,3c-0.4,0.5-0.9,1.2-1.6,1.1c-0.7-0.2-0.9-1-1.3-1.6c1.6-1,3.2-2,4.1-3.7c0.4-0.9,0-1.8-0.6-2.5
		c0.6,0.1,1.2,0.2,1.8,0.1c0.8-0.1,1.4-0.8,2.2-1l-0.1,0.1c0.1-0.1,0.2-0.1,0.3-0.2c1-0.3,0.8-1.6,1.5-2.2c-0.1,0-0.2,0-0.4,0
		c0.5-0.3,1.1-0.3,1.6-0.7c-0.2-0.2-0.4-0.4-0.7-0.6c0.2-0.3,0.3-0.6,0.5-0.9c0.5,0.3,1,0.4,1.3,0c0.4-0.6,0.4-1.5,1.2-1.9
		c0.6-0.4,1.6,0.1,1.3,0.9c-0.3,1-1.4,1.9-0.8,3c0.3-0.1,0.7,0,0.9-0.3c1-0.9,1.1-2.3,2-3.2c0.8-0.7,2,0.1,2,1
		c0.1,1.2-0.7,2.1-1.7,2.7c-0.5,0.3-1.3,0.8-1,1.5c0.8-0.2,1.8-0.6,2.6,0c0.9,0.5,0.9,2.3-0.3,2.5s-1.9-1.1-2.9-1.1
		c1.1,0.3,1.8,1.4,3,1.2c1.4-0.3,1.6-2.4,0.5-3.2c-0.7-0.6-1.7-0.4-2.5-0.3c1.1-0.8,2.6-1.6,2.7-3.2c0.2-1.2-1.1-2.5-2.3-2
		c-1,0.5-1.2,1.8-1.8,2.7c-0.3,0.4-0.5,1-1.1,0.9c-0.1-1.1,1-1.8,1-2.8s-1.3-1.6-2-1c-0.9,0.4-0.8,1.7-1.6,2.3
		c-0.1-0.5-0.1-1,0.2-1.5c0.5-1.2,0.9-2.4,1.2-3.6c2.5-0.5,4.1-2.8,5.1-4.9c1-2.2,0.4-4.8-1.3-6.5c-1.1-1.2-2.6-1.7-4.2-1.9
		c-0.1-0.3-0.2-0.6-0.3-1h-0.1c-0.3-0.7-0.6-1.5-0.9-2.2c1.2,0,2.6,0.1,3.7-0.6c0.9-0.5,1.5-1.6,1.3-2.6c-0.3-1.1-1.4-1.8-2.5-1.9
		c-1.7-0.1-3.4,0.4-5,1c-0.4-0.5-0.8-1.1-1.2-1.6c1.5-1.4,2.9-2.9,4.8-3.4c2.3-0.5,4.8-0.4,6.8,0.9c1.3,0.9,1.8,2.5,1.8,4
		c0,1.6-0.1,3.2-1,4.6c-0.6,1-1.7,1.6-2.9,1.9c0.7-0.2,1.5-0.5,2.1-0.9c1.7-1.2,2.2-3.5,2.2-5.5c0-1.8-0.5-3.7-2-4.7
		c-2.1-1.5-4.9-1.6-7.3-1c-1.9,0.5-3.3,2-4.6,3.4c-0.5-0.5-1-1.1-1.5-1.6c1.8-1.6,3.5-3.3,5.4-4.8c0.8-0.6,1.4-1.4,2.4-1.7
		c0.6-0.1,1.4,0.5,1.8-0.2c0.5-0.8,0.8-1.7,1-2.6c-2.8,1-5.6,2.1-8.1,3.6c-1.8,1.1-3.3,2.5-4.6,4.2c-0.2-0.1-0.5-0.1-0.7-0.2
		c1-1.8,1.9-3.6,2.3-5.7c0.2-1.5-0.5-2.9-1.5-4c-0.9-1-1.9-2.3-3.3-2.6c-2-0.3-3.7,1.6-5.7,1.3c-1.3-0.2-2.6-0.9-4-0.7
		c-1.8,0.3-3.1,1.9-3.7,3.5c-0.9,2.6-0.5,5.6,0.9,8c0.5,0.9,1.3,1.6,1.6,2.6c-1.6,0.2-2.8-0.9-4.3-1.3c-1.4-0.4-2.8-0.4-4.2-0.4
		c0.7-0.5,1.1-1.5,0.7-2.3c-0.3-1-1.4-1.3-2.2-1.8c0.7-0.4,1.5-0.4,2.1-0.8c0.7-0.2,1.3-1.1,0.8-1.8c-0.4-0.7-1.2-1.3-2-1.4
		c-0.9,0-1.3,1-1.9,1.4c0.1-1,1-2,0.4-3c-0.5-0.9-1.9-0.9-2.5-0.1c-0.9,0.9-0.5,2.3-0.6,3.4c-0.6-0.6-1.1-1.4-2-1.6
		c-1.4-0.4-2.6,2-1.2,2.7c0.4,0.3,1.3,0.4,1.3,1c-0.8,0.2-1.8,0.1-2.4,0.8c-0.7,0.8-0.2,2.3,0.9,2.3c0.8-0.1,1.5-0.7,2.3-0.8
		c-0.4,0.6-1.2,1-1.1,1.8c0,1,1.2,1.7,2.1,1.4c1-0.3,1.6-1.3,1.7-2.3c0.4,0.5,0.8,1,1.4,1.3c0,0,0,0-0.1,0c-1.4,0.2-2.8,1-3.1,2.4
		c-0.3,1.2,0.5,2.2,0.5,3.4c-0.2,1.3-1.3,2.4-1,3.8c0.1,0.8,0.6,1.5,1.2,2.1c-0.6-0.7-0.9-1.6-0.7-2.5s0.8-1.7,0.9-2.7
		c0.2-1.2-0.8-2.4-0.4-3.6c0.5-1.3,1.9-1.9,3.2-2c2.5-0.2,5.1-0.4,7.3,0.8c1,0.5,2.3,1.1,3.4,0.4c-0.3-1.3-1.4-2.2-1.9-3.3
		c-1.2-2.2-1.4-5-0.6-7.4c0.5-1.5,1.7-2.9,3.3-3.2c1.7-0.3,3.2,0.9,4.9,0.7s3.1-1.7,4.9-1.3c1.4,0.5,2.2,1.8,3.2,2.9l-0.3,0.1
		c0.1,0,0.3,0,0.4,0c0.7,1,1.2,2.2,0.9,3.4c-0.4,1.9-1.3,3.6-2.2,5.3c-1.7,0-2.8,1.4-3.7,2.7c-1-1.3-1.6-2.8-2.5-4.1
		c-0.3-0.5-0.8-0.9-1.4-0.7c-0.7,0.2-1,1.1-1,1.8c0,2.4,0.4,4.8,1,7.1c0.3,0.7-0.6,1.4-1.3,1.3c-0.8-0.1-1.5-0.7-2.2-1
		c-2-1-4.5-1.8-6.7-1.1c-1.1,0.3-2,1.5-1.5,2.6c0.5,1,1.7,1.2,2.7,1.2c2.3-0.1,4.5-0.1,6.8,0.2c0.9,0.1,1.9,0.6,2.1,1.5
		c0.3,1.2-0.3,2.4-1.1,3.2c-1.1,1.1-2.4,2.2-2.9,3.7c-0.4,1.2,0.2,2.6,1.1,3.4c0.5,0.4,1.2,0.4,1.6,0c0.9-0.7,1.3-1.8,1.9-2.7
		c0,0.8,0.1,1.6,0,2.4c-0.5,1.4-1.2,2.7-1.8,4c-1.2-2.1-2.8-4.1-4.8-5.6c-1.1-0.8-2.4-1.6-3.8-1.5c-0.9,0.1-1.8-0.5-2.7-0.7
		c0.4-1.3,1.1-2.5,2.4-3.1c1.5-0.8,3.4,0,4.9-1c0.5-0.3,1-0.9,1-1.6c-0.1-0.1-0.2-0.2-0.4-0.2c-0.4,0.5-0.7,0.9-1.2,1.1
		c-1.3,0.5-2.8,0-4.2,0.6c-1.5,0.6-2.4,2-2.8,3.5c-1.7-0.4-3.4-0.7-5.1-0.8c-0.3-0.6-0.8-1.2-1.5-1.4c-1.2-0.4-2.4-0.1-3.5,0.1
		c-0.3-0.2-0.6-0.5-1-0.7c0.2,0,0.3-0.1,0.5-0.1c0.2-0.1,0.3-0.2,0.4-0.3c-0.5,0.3-1.2,0.3-1.7-0.1c0,0.2,0,0.4,0,0.5
		c-1-0.1-2-0.5-2.9,0.2c-1,0.8-0.3,2.2,0.2,3.1c-0.1,0.2-0.3,0.5-0.4,0.6c-0.8-0.7-1.6-1.5-2.7-1.7c-0.6-0.2-1.3-0.2-1.9-0.5
		c-0.5-0.3-0.8-1-0.4-1.5c0.7-0.6,1.7-0.5,2.5-1c0.4-0.3,0.6-0.8,0.5-1.3c-0.2-0.5-0.7-0.8-1.2-0.7c-0.7,0.1-1.4,0.5-2.2,0.5
		c-0.4-0.1-0.6-0.4-0.9-0.6c0.4-0.8,1.2-1.4,2.1-1.5c0.8-0.1,1.6-0.3,2-1.1c0-0.1-0.1-0.3-0.1-0.4c-0.1,0.9-1.3,0.9-2,1
		c-1.1,0.4-2.4,1.2-2,2.4c0.3,0.2,0.6,0.3,0.9,0.4c1,0.2,2-0.8,3-0.3c0.4,0.5-0.1,1.2-0.6,1.3c-0.8,0.3-1.8,0.3-2.3,1
		c-0.5,0.6-0.1,1.5,0.5,1.9c0.8,0.6,1.9,0.4,2.8,0.9c0.7,0.3,1.2,0.8,1.7,1.4c-0.5,0.5-1,1-1.6,1.3c-2.4,1-4.2,3-5.6,5.1
		c-0.7-3.1-0.9-6.2-0.6-9.4c0.5-2.1,1-4.2,1.4-6.4c1.3-0.3,2.6-0.9,4-1c0.1,0.1,0.3,0.2,0.4,0.3c-0.1-0.2-0.2-0.4-0.4-0.5
		c-0.4-0.3-0.9,0-1.3,0c-1,0.3-2,0.6-3,0.8c0.2-1.3,0.3-2.6,0.5-3.9c1.8-0.3,2.9,1,4.4,1.3c0.6,0.2,0.8-0.6,0.6-1
		c0-0.1-0.1-0.1-0.1-0.2c0,0,0,0,0,0.1l-0.2,0.1c-1.4-0.3-2.6-1.5-4.1-1.2c0.2-2.3,0.2-4.7-0.4-7c-0.3-1.1-0.8-2.1-1.7-2.8
		c-0.8-0.6-1.9-0.6-2.9-0.4c-2.1,0.5-3.9,1.7-5.5,3c-1.3,1.1-2.5,2.3-3.3,3.7c-0.5,0.8-0.4,1.9-0.7,2.8c-0.2,0.5-0.2,1.1-0.2,1.6
		c0-0.4,0.1-0.8,0.3-1.2c0.5,0.8,1.5,1.4,1.5,2.5c-0.6,0-1.1,0.1-1.7,0.1c0-0.2-0.1-0.4-0.1-0.6c-0.8,0.2-1.5,0.4-2.1,0.9
		c-0.4,0.4-0.8,0.2-1.3,0.1c0,0.1,0,0.3-0.1,0.4c0.2,0.1,0.5,0.2,0.7,0.2c-0.4,0.7-0.8,1.4-1.2,2.1c-0.4,0-0.8,0-1.1,0
		c-0.1,0.3,0,0.6,0.1,0.9c0,0,0,0-0.1,0c-0.2,0.3,0.1,0.7,0.3,0.5c0,0.1,0.1,0.1,0.1,0.2c-0.3,0.8-0.3,2.1-1.4,2.1
		c-0.8,0-1.7-0.6-1.8-1.4c-0.1-0.7,0.1-1.5,0-2.2c-0.3-0.1-0.6,0-0.7,0.3c-0.5,1-0.6,2.3-1.7,3c-0.6,0.5-1.6,0.5-2.1-0.2
		c-0.9-1.1-0.3-2.8,0.8-3.4c0.4-0.3,1.3-0.8,0.9-1.4c-0.9-0.3-1.7,0.1-2.6,0.3c-1,0.3-2.2-0.3-2.6-1.3c-0.3-0.7,0-1.5,0.7-1.7
		c1.3-0.4,2.4,0.6,3.7,0.5c0.5-0.1,0.5-0.7,0.3-1.1c-0.4-0.6-1.1-1-1.5-1.6c-0.5-1,0.3-2.7,1.5-2.4s1.5,1.6,2.1,2.5
		c0.3,0.6,1.4,1,1.8,0.3c0.6-0.9,1.5-1.8,2.7-1.8c1.1,0,2.6,0.8,2.3,2.1c-0.3,1.5-2.2,1.5-2.9,2.6c0,0.8,1.1,0.9,1.6,0.5
		c-0.4-0.1-0.8-0.2-1.2-0.3c-0.1-0.3,0.4-0.4,0.6-0.6c0.6-0.4,1.2-0.6,1.7-1.1c0.7-0.7,0.9-1.9,0.2-2.7c-1.1-1.3-3.3-1.3-4.5,0
		c-0.5,0.4-0.7,1.1-1.3,1.2c-0.9-0.3-0.9-1.4-1.5-2c-0.5-0.7-1.2-1.3-2-1.2c-1.5,0.2-2.2,2.5-1,3.4c0.5,0.5,1.1,0.9,1.3,1.5
		c-1.2,0.1-2.3-0.8-3.6-0.5c-0.9,0.1-1.6,0.9-1.5,1.7c0.1,1.1,1.1,2,2.2,2.2c1.1,0.1,2.1-0.6,3.3-0.5c-0.6,0.8-1.7,1.1-2.1,2.1
		c-0.5,1.1-0.3,2.5,0.8,3.2c0.8,0.5,1.9,0.1,2.5-0.6c0.8-0.7,1-1.8,1.3-2.8c0,0.9-0.3,1.9,0.3,2.7c0.5,0.8,1.6,1,2.4,0.8
		c-0.7,2.3-1,4.7-1.3,7.1c-0.1,0-0.3,0.1-0.4,0.2c0-0.2-0.1-0.5-0.2-0.7c-0.2-0.6-1-0.7-1.5-0.5c0-0.6-0.7-1.2-1.2-0.6
		c-0.9,0.5,0.1,1.7,0.8,1.3c0,0,0,0,0,0.1c-0.1,0.4,0.1,0.6,0.3,0.9c0,0.5,0.6,0.9,1.1,0.5c0.1-0.1,0.2-0.3,0.2-0.4
		c0.2-0.1,0.3-0.3,0.4-0.6c0.4,0.3,0.7,0.7,0.9,1.1c-0.6,0.1-1.4,0.4-1.2,1.2c0,0.3,0.2,0.5,0.4,0.6c-0.1-0.1-0.2-0.3-0.3-0.4
		c0.3-0.4,1.1-0.8,1,0.2c0.2-0.4,0.3-0.8,0.2-1.2c-0.4-2.6,0.2-5.2,0.8-7.7c0.7-2.4,1.6-4.9,3.2-6.8c1.4-1.3,3.5-1.1,5.3-1.2
		c-0.5-0.9-1.2-1.7-1.9-2.5c-0.7-0.7-0.5-1.9,0-2.7c0.7-1.2,1.7-2.2,2.7-3.2c1.8-1.5,3.8-2.9,6.1-3.3c0.8-0.1,1.8-0.1,2.5,0.5
		c1.2,1,1.4,2.6,1.7,4c0.2,1.7,0.2,3.4,0,5.1c-0.2,0.2-0.5,0.5,0,0.6c-0.2,3-0.7,5.9-1.4,8.8c-0.2,0.9-0.5,1.8-0.6,2.7
		c-0.1,3.2,0.2,6.4,0.9,9.6c1.3-1.8,2.6-3.6,4.5-4.8c0.7-0.6,1.7-0.8,2.4-1.4c1-0.8,1.8-1.8,2.5-2.9c0.4-0.6,0.8-1.4,1.6-1.4
		c0.6-0.1,1.1,0.5,1.4,0.9c1.4-0.4,2.9-0.8,4.2,0c0.5,0.3,0.5,1.2,1.1,1.1c2.5,0,5,0.6,7.4,1.5c1.7-0.2,3.3,0.7,4.6,1.7
		c1.9,1.5,3.4,3.5,4.6,5.6c0,0,0.1,0,0.2,0c0.5-1,0.9-2,1.4-2.9c0.4-0.8,0.8-1.7,0.8-2.7c-0.1-3.5,0-7.1,0.8-10.5
		c0.5-2.6,1.3-5.2,2.7-7.4c0.7-1,1.5-2,2.8-2.1c0.9,0,1.7,0.5,2.3,1c1.4,1,2.5,2.4,3.6,3.8c2.7,3.7,4.3,8.1,4.8,12.6
		c0.1,1.6,0.1,3.3,0,4.9c-0.6,4.8-2.4,9.6-5.7,13.3c-1,1.1-2.7,0.5-3.9,0.4c0.6,0.9,1.7,1.9,1,3c-1.8,2.6-4.9,4.3-8,4.7
		c0.1,0,0.3,0,0.4,0c-0.8,1.5-2.3,2.3-3.3,3.7c-0.8,1.7-1.4,3.5-2.5,5.1c-0.5,0.5,0.1,1.1,0.5,1.4c1.6,0.7,3.5,0.7,5.1,1.4
		c2.2,1.1,4,3,5.2,5.1c1.9,3.1,2.5,6.8,2.6,10.4c1.2,0.2,2.5,0.4,3.2,1.5c1.1,1.7,0.7,3.9,0,5.6c-0.8,1.8-2.3,3.3-4.2,3.8
		c-0.6,0.1-0.8,0.8-1.2,1.2c-1.4,1.9-3.5,2.9-5.4,3.8c0.1,0.1,0.3,0.2,0.4,0.3c0.9-0.5,1.9-0.8,2.8-1.4c0.4,0.1,0.9,0.4,1.3,0.2
		c0.9-0.3,1.3-1.3,1.9-2c0.1,0,0.3,0.1,0.4,0.2c0.1,1-0.1,2.4,1,3c0.7,0.5,1.6-0.2,1.7-1c0.1-1.1-0.2-2.1-0.2-3.2
		c1.1-0.1,2.1,0.3,3.2,0.1c0.6-0.3,0.4-1.2-0.1-1.5c-0.7-0.5-1.4-0.4-2.2-0.3c0.4-0.6,0.7-1.2,0.6-1.9c0.8-1.6,1.3-3.5,1.1-5.3
		c1.2-0.5,2.8-0.1,3.4,1.1c0.5,1.2-0.1,2.7-1.1,3.5c-0.7,0.6-1.6,0.6-2.3,1.2c-0.4,0.4,0.1,1.1,0.6,1.1c0.9,0,1.7-0.6,2.6-0.7
		c1.4,0,2.8,1.1,2.9,2.6c0.1,1.2-0.9,2.5-2.2,2.5c-1.8,0-3.3-1.2-5-1.2c-0.9,0.4,0,1.3,0.3,1.8c0.7,1,1,2.4,0.7,3.5
		c0.6-0.9,0.8-2.1,0.5-3.1C198.6,136.9,197.8,136,197.4,135z M166.2,51.4c-0.7,0.7-2.1,0.3-2.2-0.7c-0.1-0.9,1.2-1.1,1-1.9
		c-0.9-0.9-1.9,0.8-2.9,0.4c-0.6-0.4-0.6-1.3-0.1-1.7c0.6-0.7,2,0,2.4-1c-0.3-0.8-1.3-0.9-1.9-1.5c-0.6-0.9,0.5-2.2,1.5-1.7
		c0.8,0.5,1.2,1.3,2,1.8c0.5-1.2-0.3-2.7,0.6-3.7c0.6-0.7,2-0.5,2,0.5c-0.1,0.9-0.5,1.8-0.8,2.7c-0.2-0.4-0.7-0.7-1.1-0.5
		c-0.5,0.2-0.5,0.8-0.6,1.3c-0.4-0.4-1.2-0.6-1.5,0.1c-0.4,0.5,0.2,0.9,0.6,1.2c-0.6,0-1.3,0.6-0.9,1.2c0.1,0.4,0.6,0.2,0.9,0.3
		c-0.1,0.6,0.3,1,0.8,1.2c0.4-0.2,0.7-0.5,1-0.8c0,0,0.1,0,0.1,0.1C167,49.6,167.1,50.8,166.2,51.4z M169.7,50.9
		c-1.3,0-1.9-1.4-2.5-2.2c0.5,0.2,1.1,0.3,1.4-0.1c0.6-0.5,0.2-1.3-0.4-1.7c0.4-0.2,1.1-0.4,1-1c-0.1-0.7-1-0.8-1.6-1
		c-0.1,0.4-0.1,0.8-0.2,1.2c0.4-0.2,0.8-0.5,1.2-0.8c0.2,0.2,0.5,0.4,0.6,0.7c-0.4,0.3-1,0.3-1.4,0.8c0.2,0.2,0.6,0.4,0.9,0.8
		c0,0.4-0.2,0.7-0.6,0.7c-0.5-0.1-0.8-0.7-1.1-1c0,0.6-0.4,1.8-1.2,1.2c0.1-0.4,0.4-0.7,0.5-1.1c-0.5-0.4-1.4,0.7-1.4-0.2
		c0.4-0.2,0.8-0.3,1.2-0.5c-0.1-0.5-0.6-0.6-0.9-0.9c0.1-0.2,0.2-0.4,0.3-0.6c0.4,0.3,0.8,0.6,1.3,0.9c0.1-0.5,0.1-1,0.2-1.5
		c0.2-0.2,0.5-0.2,0.7-0.1c0,0.1,0,0.3-0.1,0.4c0.4-0.2,1-0.2,1.3-0.6c0.4-0.4,0.8-0.9,1.3-1.2c0.8,0.3,1.7,0.8,1.8,1.8
		c-0.3,1.5-2.3,0.8-3,1.9c0.4,0.9,1.8,0.7,2.2,1.5C172,49.4,171,51,169.7,50.9z M159.8,65.3c-1,0.3-1.3,1.5-1.9,2.2
		c-0.4-0.7-0.8-1.4-0.5-2.2c0.5-0.9,1.8-0.6,2.7-0.4C160,65,159.9,65.2,159.8,65.3z M185.5,68.7c-0.2,0.6-0.6,1.1-0.9,1.6
		c-0.4,0.7-0.8,1.5-1.6,1.9c-0.6,0.2-1.1-0.4-1.4-0.9c-0.6-0.8-0.6-1.9-0.2-2.8c0.8-1.8,2.7-2.7,3.5-4.4c0.5-1.1,0.6-2.3,0.1-3.1
		c-0.4-0.7-1.3-1.1-2.1-1.2c-2.2-0.3-4.4-0.3-6.6-0.2c-0.8,0-1.8,0-2.4-0.6c-0.5-0.5-0.3-1.5,0.2-1.9c0.6-0.6,1.5-0.7,2.4-0.7
		c1.7,0,3.3,0.5,4.8,1.3c0.8,0.4,1.5,0.9,2.4,1.1c0.8,0.1,1.7-0.4,1.7-1.2c0-0.7-0.3-1.3-0.4-1.9c-0.4-1.8-0.6-3.5-0.7-5.3
		c0-0.6,0.1-1.3,0.7-1.6c0.3-0.2,0.7,0,0.9,0.3c1,1.4,1.5,3.1,2.7,4.4C186.2,58.2,185.5,63.5,185.5,68.7z M195.5,51.8
		c-0.5-0.3-1-0.7-1.5-1c1.1-1.2,2.2-2.5,3.6-3.4c2.5-1.7,5.4-2.8,8.2-4c-0.2,0.7-0.5,1.4-0.9,2c-0.5-0.1-1-0.2-1.4-0.2
		c-0.7,0.2-1.3,0.7-1.9,1.1C199.5,48.1,197.4,49.9,195.5,51.8z M198.9,56c1.4-0.6,2.9-1,4.4-1c0.9,0,1.9,0.3,2.3,1.2
		c0.5,0.9-0.1,2-0.9,2.6c-1.1,0.7-2.5,0.6-3.8,0.6C200.3,58.2,199.6,57.1,198.9,56z M202.5,63.7c1.5,0.2,3,0.7,3.9,1.9
		c1.4,1.5,1.9,3.8,1.1,5.8c-0.9,2.1-2.4,4.2-4.7,4.8C203.8,72.1,203.6,67.8,202.5,63.7z M190.5,93.8c0.3,0.6,0.6,1.6,1.5,1.8
		c0.8,0.1,1.4-0.5,1.8-1.1c0.9-1.3,2.1-2.4,3.6-2.9s3.3,0,4.2,1.4c0.7,1.1,0.2,2.6,0.9,3.8c0.6,0.8,1.5,1.1,2.1,1.9
		c1.1,1.4,1.1,3.6-0.1,4.9c-1.1,1.2-2.8,1.6-4.3,1.7c-3.2,0.2-6.3-0.3-9.3-1.3c1.8-0.6,3.8-1.2,5.2-2.6c0.5-0.6,0.8-1.6,0.2-2.1
		c-0.5-0.4-1.1-0.1-1.6,0.2c-1.9,0.9-3.7,1.7-5.6,2.6c-0.3-1.5-0.2-3-0.3-4.5c-0.1-1-0.5-2-1.1-2.8
		C188.7,94.6,189.6,94.2,190.5,93.8z M183.8,98.5c0.4,0.7,0.7,1.5,0.3,2.2c-0.4,0.2-0.8,0-1.2-0.1C183.2,99.9,183.5,99.2,183.8,98.5
		z M182.7,101c0.5,0.1,1.2,0.4,1.6,0c0.6-0.9,0.1-2-0.4-2.9c0.4-0.4,0.8-0.8,1.2-1.1c0.3,1.5,1,2.9,1.4,4.4c0.3,1.1-0.2,2.8-1.5,2.9
		c-1.2,0-2.2-0.9-3.3-1.3C182.1,102.3,182.4,101.7,182.7,101z M189.5,107.5c-0.5-0.3-0.9-0.7-1.3-1.1c1.1-0.2,2.3,0,3.6,0
		c4.7,0.3,9.6,1.3,13.5,4c0.5,0.4,1.2,0.8,1.4,1.5c-1.1-0.1-1.9-1-2.9-1.4C199.3,108.7,194.4,106.6,189.5,107.5z M194.1,115.9
		c-0.6-2.5-1.7-4.8-3.3-6.9c2.4,1.2,4.9,2.5,6,5c0.5,1,0.5,2.5-0.6,3.1C195.3,117.7,194.2,116.8,194.1,115.9z M197.5,122.3
		c-0.8-0.5-1.7-0.8-2.6-0.9c-0.1-1.4-0.2-2.8-0.5-4.2c1.1,1.1,3,0.1,3.1-1.4c0.2-2.1-1.3-3.9-2.9-5c-1.1-0.9-2.5-1.4-3.6-2.3
		c0.6-0.1,1.4,0,2,0.3c2.1,0.7,4.3,1.6,6.3,2.6c1.2,0.6,2,1.8,2.5,3s1.1,2.4,1,3.7c-0.1,1.2-0.9,2.1-1.8,2.8
		C200,121.6,198.8,122.3,197.5,122.3z M196.7,131.4c0.1,0.1,0.2,0.2,0.3,0.3c-0.2,0-0.3,0-0.5,0c0.5,0.6,1.3,0.2,1.9,0.4
		c0.5,0.1,1.2,0.6,0.7,1c-1.1,0.2-2.4-0.7-3.3,0.2c-0.1,1.1,0.3,2.1,0.2,3.2c-0.1,0.5-0.7,1.1-1.1,0.7c-0.9-0.6-0.5-1.9-0.8-2.8
		c-0.2-0.6-1-0.5-1.3,0c-0.6,0.7-1.1,1.9-2.2,1.5c1-0.8,2-1.7,2.7-2.7c0.6-0.4,1.4-0.5,1.9-0.9c0.9-0.5,1.5-1.3,2.2-2
		C197.3,130.7,197,131.1,196.7,131.4z"/>
	<path d="M199.8,83.9L199.8,83.9c0.2,0,0.4,0,0.6,0.1C200.3,83.8,200,83.7,199.8,83.9z"/>
	<path d="M199.8,88.8c-0.4-0.9,0.1-1.8,0.6-2.5c0.5-0.5,0.9-1.3,0.4-2c-0.1-0.2-0.2-0.3-0.4-0.3c0.2,0.3,0.3,0.7,0.1,1
		c-0.5,0.9-1.5,1.7-1.3,2.9c0,0.6,0.5,1.2,1.1,1.4C200.1,89.2,199.9,89,199.8,88.8z"/>
	<path d="M202,62L202,62c0.5,0.1,1,0.2,1.6,0.3C203,62.2,202.5,62.1,202,62z"/>
	<path d="M200.3,89.3c0.4,0.3,1,0.3,1.4-0.1C201.2,89.5,200.7,89.5,200.3,89.3z"/>
	<path d="M205.3,89.2c-0.3,0.7-1.4,0.6-1.7,0c-0.2-0.8,0.1-1.6-0.2-2.3c-0.1-0.2-0.3-0.4-0.6-0.5c0.6,0.8-0.2,2.1,0.6,2.9
		c0.6,0.7,1.8,0.6,2.2-0.3c0.5-0.8-0.3-1.4-0.5-2.2H205C204.2,87.6,205.8,88.4,205.3,89.2z"/>
	<path d="M205.1,86.8c0.1,0,0.2,0,0.2,0C205.3,86.7,205.2,86.7,205.1,86.8C205.1,86.7,205.1,86.8,205.1,86.8z"/>
	<path d="M202.2,86.6c-0.3,0.8-0.1,1.6-0.4,2.4c0,0.1-0.1,0.1-0.2,0.2c0.1,0,0.1-0.1,0.2-0.1c0.7-0.7,0.4-1.9,0.7-2.7
		C202.4,86.4,202.3,86.5,202.2,86.6z"/>
	<path d="M154.8,58.5L154.8,58.5L154.8,58.5L154.8,58.5z"/>
	<path d="M157.9,62.3c1.1,0.8,2.4-0.5,3.5,0.1c0.6,0.3,0.8,1.1,0.5,1.7c0.4-0.2,0.7-0.6,0.7-1.1c0.2-1-0.7-1.9-1.7-1.9
		c-0.9-0.1-1.7,0.6-2.5,0.2c-0.3-0.1-0.3-0.4-0.3-0.7C157.6,61,157.3,61.9,157.9,62.3z"/>
	<path d="M206.5,62.2c0.1,0,0.2-0.1,0.3-0.1c-0.6,0.1-1.3,0.2-2,0.2C205.4,62.3,206,62.3,206.5,62.2z"/>
	<path d="M176.9,62.4c-2.5,1.1-5.2,1.8-7.9,1.5c-1-0.1-1.9-0.5-2.7-1.2c0.1,0.1,0.2,0.2,0.3,0.3c1,1,2.5,1.2,3.9,1.2
		c2.5-0.1,4.8-0.8,7-1.9c0.8-0.4,2-0.6,2.8-0.2c0,0,0-0.1,0.1-0.1C179.2,61.2,178,61.9,176.9,62.4z"/>
	<path d="M188.3,137.9c-0.4,0-0.7-0.1-1.1-0.3c-0.2,0.1-0.5,0.3-0.7,0.4c1,0.8,2.3,0.9,3.4,0.4c0.9-0.4,1.6-1.2,2.3-1.9
		c0-0.2,0-0.4,0-0.6C191.2,137,189.9,138,188.3,137.9z"/>
	<path d="M143.5,133.3c0,0.2,0.1,0.4,0.3,0.6c0-0.1-0.3,0.1-0.3,0C143.4,133.8,143.4,133.4,143.5,133.3z"/>
	<path d="M143.9,131.3c-0.1-0.5-0.2-1.1-0.5-1.6c0,0,0,0,0-0.1c0-0.2-0.1-0.3-0.1-0.4c-0.1,0-0.1,0-0.2,0c-0.5-1-0.5-2.1-0.7-3.2
		c0.2-1.2,0.2-2.5,0.6-3.6c0.2-0.8-0.1-1.7,0.3-2.4c-0.6,1.1-0.3,2.4-0.7,3.6c-0.1,1.3-0.5,2.7-0.2,4c0.1,0.6,0.2,1.1,0.3,1.7
		c-0.8,0.1-1.6-0.1-2-0.8c0,0-0.1-0.1-0.1-0.2c0,0.3,0.1,0.6,0.3,0.9c0.4,0.5,0.9,0.7,1.5,0.9c-0.7,0.1-1.5,0.3-2.2,0.6
		c-0.8,0.4-1.7,0.9-2,1.8c0.4,0.1,0.8,0.2,1.1,0.3c-0.2,0.2-0.4,0.3-0.6,0.5c1.5,0.2,3.1,0.3,4.6,0.4c-0.3-0.7-1.2-0.4-1.8-0.7l0,0
		c0.4,0,0.7,0.1,1.1,0.1c0.1,0.1,0.3,0.1,0.4,0c0.1,0,0.2,0,0.3,0c0.1,0.1,0.1,0.1,0.2,0.2l0,0C143.3,132.6,143.7,131.9,143.9,131.3
		z"/>
	<path d="M197.3,141.2c-1.5,0.8-3.6,0.4-4.5-1.1c-0.1-0.2-0.2-0.4-0.3-0.5c0.1,0.5,0.2,1,0.5,1.4c1,1.7,3.9,1.8,5,0.1
		c0.3-0.3,0.5-0.7,0.6-1.2C198.3,140.5,197.8,140.9,197.3,141.2z"/>
	<path d="M133.5,123.1c-0.4,0.3-0.9,0.6-1.1,1.1c-0.1,0.2-0.1,0.3-0.1,0.5c0.3-0.5,0.8-0.9,1.4-0.9c0.2,0.1,0.4,0.2,0.5,0.4
		C134.1,123.8,133.9,123.4,133.5,123.1z"/>
	<path d="M134.6,125c-0.1-0.3-0.2-0.6-0.4-0.8c0.2,1.1-0.4,2.3-0.2,3.4c0,0.4,0.2,0.8,0.4,1.1C134.1,127.5,134.9,126.2,134.6,125z"
		/>
	<path d="M136.7,129.6c-0.9,0.3-1.8-0.2-2.3-0.9c0,0.1,0,0.2,0.1,0.3c0.3,1,1.7,1.7,2.6,0.9c0.3-0.3,0.5-0.7,0.6-1.1
		C137.5,129.2,137.1,129.5,136.7,129.6z"/>
	<path d="M132.5,130.1c0.1-0.1,0.1-0.2,0.2-0.4c0.6-1.6-0.7-3.3-0.4-5c-0.1,0.2-0.3,0.5-0.3,0.8
		C131.6,127.1,132.7,128.5,132.5,130.1z"/>
	<path d="M140.4,125.5c-0.1-0.1-0.1-0.2-0.2-0.3c0,0.2,0,0.4,0,0.6c-0.1,0.8-0.2,1.8,0.4,2.5C140.5,127.4,140.9,126.4,140.4,125.5z"
		/>
	<path d="M137.7,128.8c0.4-0.6,0.5-1.3,0.5-2c0-0.4,0-0.9,0.1-1.3c-0.2,0.4-0.3,1-0.4,1.4C137.8,127.5,137.8,128.2,137.7,128.8z"/>
	<path d="M192.6,136.1c-0.2,0.1-0.3,0.3-0.4,0.4c-0.1,1,0,2.1,0.4,3C192.4,138.4,192.6,137.2,192.6,136.1z"/>
	<path d="M139.2,124c-0.1,0-0.1,0.1-0.1,0.1c-0.3-0.7-1.2-1-2-1.1c-0.2,0.1-0.3,0.2-0.4,0.4c0.3,0.8,1.2,1.2,2,1
		c-0.2,0.3-0.4,0.7-0.4,1.1c0.2-0.3,0.4-0.5,0.7-0.7c0.4-0.2,0.9,0,1.2,0.4C140.1,124.6,139.8,124.1,139.2,124z M137,123.4
		c0.6,0.1,1.3,0.3,1.8,0.8C138.1,124.2,137.5,123.9,137,123.4z"/>
	<path d="M176.5,145.3c-0.1,0.3,0-0.7-0.2-1c0.5-0.1,2.2-0.2,3.2-0.6c0.2,0.3,0.3,0.4,0.5,0.8C179.4,144.7,177.1,145.2,176.5,145.3z
		"/>
	<path d="M171,143.8c-0.2-0.3-0.3-1-0.8-1.3c0.4,0,0.8,0.1,1.1,0.2c0.6,0.3,1.1,0.8,1.8,1.1c0.4,0.2,0.8,0.3,1.1,0.4
		c-0.1,0.2-0.4,0.6-0.6,0.8C172.5,144.6,172.1,144.3,171,143.8z"/>
	<path d="M128.4,131.2c-0.3-0.2-0.5-0.5-0.8-0.8c0.3,0.8,0.9,1.5,1.8,1.8c1.3,0.4,2.8-0.5,3.1-1.8c0-0.1,0-0.2,0-0.3
		C131.8,131.6,129.8,132.2,128.4,131.2z"/>
	<path d="M174.5,144.7c0.1,0.2,0.1,0.4,0.2,0.6c0.4-0.1,0.8-0.3,1.2-0.6c0.2-0.1,0.3-0.3,0.4-0.4c-0.7,0-1.4-0.1-2.1-0.2
		C174.3,144.3,174.4,144.5,174.5,144.7z"/>
	<path d="M180.1,143.9c0.6-0.3,1.1-0.6,1.6-0.9c0.1,0.4,0.1,0.8,0.1,1.2c0.5-0.6,0.5-1.4,0.4-2.1c-0.8,0.7-1.6,1.2-2.6,1.6
		C179.7,143.8,179.9,143.8,180.1,143.9z"/>
	<path d="M182,141.6c0.1,0.2,0.1,0.3,0.1,0.5c0.3-0.2,0.5-0.5,0.8-0.8c0.4-0.1,0.8-0.2,1.2-0.4c0.2-0.3,0.3-0.7,0.5-1
		C183.5,140.2,182.7,140.8,182,141.6z"/>
	<path d="M184.1,140.9c-0.4,0.8-0.6,1.8,0.1,2.5c0-1.3,0.8-2.5,2-2.8c2.2-0.7,4.2,0.8,5.8,2.2c0.5,0.5,1.3,1,1.7,1.7
		c0.1,0,0.2,0,0.2-0.1c0.8-0.3,0.3-1.4-0.1-1.8c-1.2-1.2-2.5-2.4-4-3.2c-1.4-0.8-3.2-0.9-4.6,0.1c-0.1,0.2-0.3,0.5-0.4,0.7
		C184.6,140.5,184.4,140.7,184.1,140.9z"/>
	<path d="M185,139.6c0.1,0,0.1-0.1,0.2-0.1c0.3-0.7,0.7-1.3,1.1-1.9c0.2-0.1,0.3-0.2,0.5-0.3c-0.1-0.1-0.3-0.2-0.4-0.2
		C185.9,137.9,185.5,138.8,185,139.6z"/>
	<path d="M153.1,138.3c0,0.2,0,0.3,0,0.5c0.1,0,0.2,0,0.3,0.1c0-0.2,0.1-0.5,0.1-0.7C153.4,138.1,153.2,138.2,153.1,138.3z"/>
	<path d="M151.7,136.7c-1,0.4-2.1,0.2-3.1-0.2c-1.1,0.5-2.4,1.5-3.6,0.9c-1.1-0.5-1.1-1.9-0.7-2.9c-0.2-0.2-0.4-0.4-0.5-0.6
		c-0.1,0.3-0.2,0.7-0.3,1c-0.7-0.1-1.4-0.3-2.1-0.6c-1.6-0.8-3.5-0.8-5.1-0.2c-0.7,0.3-1.5,0.6-1.8,1.3c0.4,0.3,0.8,0.6,1.2,0.8
		c-0.2,0.1-0.4,0.3-0.6,0.4c1.2,0.8,2.5,1.4,3.9,1.7c-0.4,0-0.9-0.1-1.3-0.1c-1.6-0.2-3.4,0.1-4.6,1.1c0.2,0.5,0.6,0.7,1.1,1
		c0.1,0.1,0.2,0.1,0.2,0.2c0.6,0.5,1.3,1,1.9,1.4c0.5,0.5,1.1,0.7,1.8,0.8c0.5,0.1,1,0.1,1.5,0c0.8-0.1,1.4-0.6,1.9-1.2
		c0.6-0.5,1.2-1.1,1.8-1.5l0,0c0.1,0.3,0.2,0.5,0.2,0.8c0,0.7-0.4,1.3-0.6,2c-0.2,0.7,0,1.4,0.3,2c0.2,0.5,0.5,0.9,0.8,1.3
		c1.1-0.6,1.9-1.6,2.5-2.6c0.1-0.1,0.2-0.3,0.2-0.4c0.6-1.4,0.7-2.9,0.9-4.3c0.4-0.2,1,0,1.3,0.4c0.1,0.2,0.2,0.4,0.2,0.6
		c0.2,1,0.1,2.2,0.3,3.3c0.2,0.4,0.5,0.7,0.7,0.9c1.1-0.6,1.9-1.6,2.4-2.8c0.3-0.8,0.5-1.6,0.6-2.4c-0.3-0.1-0.6-0.2-0.8-0.5
		C151.9,137.9,151.9,137.3,151.7,136.7z M150.5,137.6c0.3,1.3,0.5,2.7,0,4c-0.3-1.5-0.6-3-1.5-4.3
		C149.5,137.4,150,137.5,150.5,137.6z M143,139.4c-1.1,0.7-1.9,1.8-3.1,2.3c-1.2,0.6-2.9,0.5-3.6-0.7l0,0c2.2-0.4,4.9,0,6.4-1.9
		c-0.9-1.8-3.1-1.6-4.6-2.2c-0.1-0.5,0.6-0.5,0.9-0.5c1.8,0.1,3.4,1.3,5.3,1.1c0.4,0.3,0.8,0.5,1.2,0.6c-0.5,1.3-0.1,2.6,0.2,3.9
		c0.3,0.8,0.1,1.6-0.4,2.2c-0.2-1.3,0-2.6-0.4-3.8C144.7,139.6,143.7,138.9,143,139.4z"/>
	<path d="M165.3,142.7c-1.1,0.9-2.6,1.7-3.9,1c-0.9-0.4-1.1-1.5-0.8-2.3c-0.4-0.2-0.7-0.5-1.2-0.7c-0.1,0-0.1,0-0.2,0
		c-0.2,0.5-0.3,1.1-0.2,1.7c0,0.4,0.2,0.8,0.4,1.2c0,0.3,0.1,0.6,0.2,0.9c0.7,1.7,2.9,2.5,4.5,1.5c0.8-0.5,1.3-1.4,1.6-2.3
		c0-0.1,0.1-0.1,0.1-0.2c0.8,0.4,1.8,0.8,2.7,0.6c0.8-0.1,1.4-0.6,1.8-1.3c-0.2,0-0.3-0.1-0.5-0.1c0.1-0.1,0.2-0.2,0.3-0.3
		c-0.7-0.1-1.5-0.2-2.1-0.7C167.3,142.4,166.3,142.6,165.3,142.7z M163.8,144.1c-0.9,0.9-2.4,0.9-3-0.2
		C161.7,144.3,162.8,144.4,163.8,144.1z M168.8,142.7c-0.3,0.7-1.1,0.4-1.7,0.2c0.4-0.2,0.7-0.5,1.1-0.7
		C168.4,142.4,168.6,142.5,168.8,142.7z"/>
	<path d="M154,138.9c-0.2,0-0.4-0.1-0.6-0.1c-0.1,0.5-0.1,1,0.1,1.5c0.1,0.1,0.1,0.3,0.2,0.4C153.6,140.1,153.8,139.5,154,138.9z"/>
	<path d="M156.3,141.4c-1,0.4-2.1,0.1-2.6-0.7c0,0.1,0,0.3,0.1,0.4c0.3,1,1.3,1.5,2.2,1.1c1.1-0.4,2-1.3,3.2-1.5
		c0.1-0.3,0.2-0.6,0.4-0.8C158.4,140.1,157.4,140.9,156.3,141.4z"/>
	<path d="M125.6,92.2c1.1,1.1,2.8,1.3,4.3,1.1c2.4-0.3,4.9-0.3,7.1,0.6c0.3,0.2,0.5,0.5,0.4,0.8c0.2-0.2,0.4-0.5,0.5-0.9
		c0-0.8-0.8-1.3-1.4-1.5c-1.8-0.5-3.8-0.7-5.7-0.5c-1.3,0.1-2.7,0.3-4-0.2c-1-0.4-1.8-1.3-1.6-2.5l-0.1,0.1
		C124.5,90.1,124.7,91.5,125.6,92.2z"/>
	<path d="M131,105.4c0.8,0.2,1.5-0.4,2.2-0.8c2.2-1.4,4-3.2,5.4-5.4c0.6-0.8,1.1-1.8,2.1-2.1c1.1-0.5,2.4,0.2,3.1,1
		c1.2,1.5,1.4,3.4,2.2,5.1c0.6,1.3,1.5,2.5,2.9,3c1.6,0.6,3.6-0.1,4.2-1.7c0.4,0.3,0.8,0.6,1.2,0.9c0.1-0.2,0.3-0.3,0.4-0.5
		c-0.7-0.5-1.3-1-1.9-1.5c-0.4,1.3-1.9,1.9-3.2,1.7c-0.9-0.1-1.6-0.7-2.2-1.3c0.1-0.2,0.3-0.5,0.1-0.8c-0.2,0.1-0.3,0.2-0.5,0.3
		c-0.9-1.5-1.4-3.3-2-4.9c-0.6-1.5-2.1-2.9-3.9-2.7c-1.7,0.3-2.5,1.9-3.3,3.2c-1.6,2.1-3.5,3.9-5.9,5.1c-0.7,0.4-1.5-0.2-1.7-0.9
		c-0.3-0.8-0.1-1.6,0.2-2.4c-0.5,0.8-0.8,1.6-0.8,2.5C129.6,104.1,130.1,105.1,131,105.4z"/>
	<path d="M130.9,99.7c-0.2,0.3-0.4,0.6-0.5,1c0.2-0.3,0.4-0.7,0.7-1c1.6-1.8,3.8-2.7,5.7-4c0.3-0.2,0.6-0.7,0.6-1
		c-0.3,0.4-0.8,0.7-1.2,0.9C134.3,96.8,132.2,97.8,130.9,99.7z"/>
	<path d="M137.6,91.8c-1.7-0.9-2.6-2.6-4.1-3.7c-1.6-1.2-3.7-1.7-5.6-1.3c-1.2,0.3-2.4,1-2.7,2.2v0.1c0.6-0.8,1.6-1.5,2.6-1.7
		c2.2-0.4,4.6,0.3,6.3,1.7c1.4,1.2,2.4,3,4.2,3.6c0.1-0.1,0.3-0.3,0.4-0.4c0-0.1-0.1-0.2-0.1-0.3C138.2,92.1,137.9,91.9,137.6,91.8z
		"/>
	<path d="M136.5,54.9c0,0.3,0,0.5,0,0.8h0.1C136.6,55.4,136.5,55.2,136.5,54.9z"/>
	<path d="M120.9,83.9c2.5-1.2,5.5-0.9,8,0.2c2.1,0.9,3.9,2.3,5.7,3.6c1.6,1.1,3.2,2.5,4,4.3c0.2,0,0.3-0.1,0.4-0.2
		c0.4-0.3,0.1-0.9-0.1-1.3c-1.2-2.4-3.6-3.8-5.7-5.3c-2.2-1.7-4.8-3.1-7.6-3.4c-1-0.1-2,0-3,0.2c0.3-0.1,0.6-0.2,0.8-0.5
		c0.6-0.7,0.2-1.7-0.3-2.2c-1.3-1.4-3-2.4-4.6-3.3c-1.1-0.5-2.3-0.9-3.5-0.5s-1.8,1.7-1.8,2.9c0,1.6,0.5,3.1,1.2,4.5
		c0.1,0.4,0.4,0.9,1,0.9c0.7,0,1.2-0.6,1.8-1c1-0.8,2.3-1,3.5-0.8c0.5,0.1,1.1,0.2,1.6,0c-0.9,0.2-1.8,0.6-2.6,1.3
		c-2.5,1.9-3.6,5.5-2.6,8.6c0,0,0,0.1,0.1,0.1C116.5,88.9,117.9,85.4,120.9,83.9z M121.4,81.7c-1-0.1-1.9-0.3-2.9-0.1
		s-1.7,0.9-2.4,1.5c-0.4,0.3-1,0.3-1.2-0.1c-0.7-1.5-1.3-3-1.3-4.7c0-0.9,0.3-2,1.3-2.4c0.9-0.4,2-0.1,2.9,0.2
		c1.7,0.8,3.2,1.9,4.6,3.1c0.5,0.5,1,1,0.8,1.7C122.9,81.6,122.1,81.8,121.4,81.7z"/>
	<path d="M130.9,111.4c-3.4,0.6-7.1-1-8.6-4.1c-0.1-0.3-0.2-0.5-0.3-0.8c0.1,0.5,0.2,1,0.4,1.4c1.3,2.8,4.4,4.4,7.4,4.2
		c2.7-0.2,5.2-1.9,6.7-4.2C135.1,109.7,133.1,111,130.9,111.4z"/>
	<path d="M124.8,99.5c2.4-1.4,5.1-1.7,7.6-2.6c0.6-0.2,1.5-0.7,1.3-1.5c0-0.2-0.1-0.3-0.2-0.4c0,0.1-0.1,0.2-0.2,0.2
		c-1.4,0.8-3.1,1.1-4.6,1.5c-1.8,0.6-3.8,1.1-5.2,2.5c-1.8,1.9-2.4,4.8-1.5,7.3C121.5,103.9,122.4,100.9,124.8,99.5z"/>
	<path d="M133,94.3c-2.4,0.5-4.3,2-6.6,2.6c-3.8,0.9-7.9-1.2-9.2-4.9c0.1,0.5,0.3,1.1,0.5,1.6c1.6,3.1,5.6,4.8,9,3.7
		c1.9-0.7,3.6-1.8,5.6-2.4c0.4-0.1,0.9-0.1,1.2,0.1C133.7,94.7,133.5,94.1,133,94.3z"/>
	<path d="M151.2,101.7c-2.1-2.3-4-4.8-4.9-7.8c-0.7-0.3-1.3-0.7-2-1.1c0,0.1-0.1,0.1-0.1,0.2c0.7,0.4,1.4,0.8,2.1,1.2
		c1.2,3.6,3.6,6.8,6.5,9.2l0,0C152.4,102.7,151.7,102.3,151.2,101.7z"/>
	<path d="M154.3,105.4L154.3,105.4c-0.7,0.8-1.4,1.6-2,2.5C152.9,107,153.6,106.2,154.3,105.4z"/>
	<path d="M152,108.4L152,108.4c0.1-0.1,0.1-0.2,0.2-0.3C152.1,108.2,152.1,108.3,152,108.4z"/>
	<path d="M136.1,85.6c-2.5-3.2-4.6-6.8-5.5-10.8c-0.2-0.5-0.2-1.1-0.4-1.6c-0.2,0-0.4,0.2-0.6,0.3c0.2,0,0.4,0,0.6,0
		c0.2,1.1,0.5,2.2,0.9,3.2c-1.9-1.3-4.1-2.5-6.5-2.7c0.1,0.5,0.3,0.9,0.6,1.2c2,0.3,3.8,1.3,5.5,2.5c0.6,0.3,0.7,0.9,0.9,1.4
		c0.8,1.8,1.8,3.5,2.9,5.1c1.6,1.8,3.4,3.5,4.6,5.6c1.5,1.4,3,2.6,4.7,3.7c-0.1,0.2-0.1,0.4-0.2,0.6c0.3-0.3,0.5-0.7,0.6-1.1
		C141.1,91.1,138.4,88.5,136.1,85.6z"/>
	<path d="M136.9,107.2c-0.1,0.2-0.3,0.5-0.4,0.7c0.8-1.1,1.4-2.3,1.7-3.6c0.3-1.3,0.6-2.8,1.4-4c-0.2,0.3-0.4,0.6-0.6,0.9
		C137.9,103,138,105.3,136.9,107.2z"/>
	<path d="M127.3,127.2c0.7-1.6,2.7-2.1,3.3-3.8c0.2-0.6,0-1.5-0.5-1.7c0.1,0.2,0.1,0.5,0,0.7c-0.7,1.7-2.9,2.2-3.4,4
		c-0.3,1.3,0.1,2.9,0.9,4c0-0.1-0.1-0.2-0.1-0.3C127.1,129.2,126.9,128.1,127.3,127.2z"/>
	<path d="M138.3,116.5c-0.3,0.8-0.9,1.5-0.9,2.4C137.7,118.2,138.3,117.4,138.3,116.5z"/>
	<path d="M137.1,120.5c-0.3,0.6-1,0.1-1.5,0.4c-0.4,0.1-0.5,0.5-0.6,0.8c0.8,0.5,1.6,0,2.1-0.7c0.1,0,0.2,0,0.2,0
		c0.6,0.5,1.4,1,2.2,0.7c1-0.3,1.4-1.5,1.4-2.4c0.1-1.1,0-2.4,0.9-3.1c1.1-0.8,2.5,0.3,2.7,1.4c-0.6,0.7-0.8,1.6-1.2,2.4
		c0.5-0.7,0.6-1.6,1.1-2.2c0.7-1,2.3-1.3,3.2-0.5c0.5,0.4,1.1,0.6,1.7,0.9c0.4,0.3,0.6,0.8,0.8,1.2c0.7-0.8,1.6-1.3,2.4-1.8
		c0.2-0.4,0.4-0.9,0.1-1.3l0,0c-0.5,0.8-1.5,1.1-2.2,1.6c-0.4-0.5-0.9-1-1.5-1.2c-0.6-0.3-1.1-0.8-1.8-1c-0.8-0.3-1.6,0.1-2.3,0.5
		c-0.3-0.7-0.7-1.3-1.4-1.6c-0.8-0.4-1.9-0.1-2.3,0.7c-0.9,1.4-0.2,3.2-1.1,4.5c-0.7,1-2.5,0.5-2.6-0.7V119
		C137.2,119.5,137,120,137.1,120.5z M135.3,121.4c-0.1-0.4,0.6-0.6,0.9-0.4C136.3,121.5,135.6,121.6,135.3,121.4z"/>
	<path d="M127.5,115.5c0.4,1.1,1.7,1.6,2.4,2.6C129.4,116.9,128.3,116.5,127.5,115.5z"/>
	<path d="M125,118.7c1.5-0.1,2.8,1,4.3,0.9c0.4-0.1,1-0.2,1-0.7c-0.1-0.3-0.2-0.6-0.4-0.8c-1.6,0.7-3.1-0.7-4.7-0.7
		c-1.1-0.1-2.4,0.6-2.7,1.8c-0.2,1.1,0.2,2.3,0.9,3.1c-0.2-0.5-0.4-1-0.4-1.5C122.8,119.6,124,118.7,125,118.7z"/>
	<path d="M130,113.7c1.5,0.8,1.9,2.6,2.5,4.1c0.2,0.6,1,1.3,1.6,0.8c0.6-0.4,0.7-1.3,0.7-1.9c-0.1-1.2-0.8-2.3-0.7-3.5
		c0.1-0.5,0.6-0.8,1.1-0.7c1.8,0.3,3.1,2,3.1,3.8c0,0.1,0,0.2,0,0.2l0,0c1-2.3-0.7-5.3-3.2-5.6c-0.7-0.1-1.5,0.4-1.5,1.2
		c-0.1,1.4,0.9,2.7,0.7,4.2c-0.1,0.5-0.4,0.9-0.8,1.2c-0.8-0.6-1-1.7-1.4-2.6c-0.4-1.1-1.1-2.2-2.3-2.6c-0.9-0.4-2.2-0.1-2.6,0.8
		c-0.4,0.6-0.2,1.4,0.1,2.1c0.1,0.1,0.2,0.2,0.2,0.3c-0.1-0.2-0.1-0.4-0.1-0.6C127.3,113.6,129,113.1,130,113.7z"/>
	<path d="M126.6,123c-0.8,0.4-1.8,0.5-2.6-0.1c-0.2-0.2-0.4-0.4-0.6-0.6c0.5,1,1.3,1.8,2.4,1.6c1.5-0.3,2.4-1.8,3.8-2.3
		c0.2,0,0.4,0,0.5,0.1c-0.1-0.2-0.2-0.4-0.2-0.7C128.5,121.2,127.7,122.4,126.6,123z"/>
	<path d="M151.5,113.6c0.2,1,0.6,1.9,1.1,2.7c0-0.1,0.1-0.1,0.1-0.2C152.2,115.4,151.8,114.5,151.5,113.6z"/>
	<path d="M152,108.4c-0.1,0.2-0.2,0.3-0.3,0.5c-0.5,1-0.7,2.3-0.6,3.7h0.1c0.1,0.3,0.2,0.6,0.3,1C151.1,111.8,151.2,110,152,108.4z"
		/>
	<path d="M142.6,109.4c-0.7-0.7-1.3-1.6-1.6-2.6c0.4,1.3,1.1,2.4,1.9,3.4c2.2,2.1,5.2,3.1,8.2,3c0-0.2,0-0.4,0-0.6
		C148,112.8,144.8,111.7,142.6,109.4z"/>
	<path d="M141.2,100.5c0.1-0.3-0.1-0.6-0.3-0.7c0,1.4-0.4,2.7-0.4,4c-0.1,1.1,0.1,2.1,0.5,3c-0.1-0.2-0.1-0.4-0.2-0.5
		C140.5,104.3,141.2,102.4,141.2,100.5z"/>
	<path d="M140.5,99.1c-0.4,0.4-0.7,0.8-0.9,1.2c0.2-0.3,0.5-0.5,0.8-0.7c0.2,0,0.4,0,0.5,0.2c0-0.2,0-0.4,0-0.6
		C140.8,99.2,140.6,99.1,140.5,99.1z"/>
	<path d="M213.7,39.6c0,1.3-0.1,2.7,0.6,3.8c0.3,0.5,1,0.5,1.6,0.4c-0.1-0.7-0.3-1.5,0-2.3c0.2-0.9,0.6-2.2-0.3-2.9
		C214.9,38,213.6,38.7,213.7,39.6z M215.2,42.2c0,0.5,0.1,0.9,0.1,1.4c-1.2-0.3-1.2-1.8-1.3-2.8c0.1-0.6-0.3-1.6,0.5-1.9
		c0.4-0.3,0.9,0.1,1.1,0.5C215.9,40.4,215.3,41.3,215.2,42.2z"/>
	<path d="M120.6,40c-0.3-0.5-0.8-1.1-1.5-0.9c-1.1,0.4-1.6,1.6-1.9,2.6c-0.6,2.6-1.4,5.4-0.8,8.1c0,0.5,0.6,0.6,0.9,0.3
		c0.9-0.9,1.1-2.3,1.9-3.3c0.8-1.1,2-1.9,2.4-3.3C121.9,42.2,121.3,41,120.6,40z M119.1,46.3c-1,1-1.1,2.6-2.2,3.6
		c-0.7-2.7,0-5.5,0.7-8.1c0.3-1,0.8-2.1,1.9-2.3c1,0.7,1.5,1.9,1.8,3C121.6,44.1,120,45.2,119.1,46.3z"/>
	<path d="M167.6,44.9L167.6,44.9L167.6,44.9L167.6,44.9z"/>
	<path d="M199.4,43.5c0.1,0.3,0.1,0.6,0.2,0.9c0.5,0.4,1.4,0.5,1.7-0.2c0.4-0.9-1.2-1.6-1.6-0.7c-0.1-0.3-0.2-0.7-0.4-1.1
		c-0.2-0.3-0.7-0.3-1-0.4c-0.3,0.3-0.7,0.8-0.5,1.3c0.1,0.4,0.5,0.4,0.8,0.6c-0.2,0.4-0.7,0.8-0.4,1.3s1.2,0.5,1.3-0.1
		C199.9,44.5,198,44,199.4,43.5z"/>
	<path d="M204.5,48.4c1.1,0.6,2.2-0.5,3.3,0.1c0.9,0.4,1.7,1.3,2.8,1.4c0.5,0.1,0.8-0.5,0.6-0.9c-0.3-1.1-1.3-1.7-2.3-2.2
		c0.8-0.2,1.5,0.1,2.2,0.3c0.9-0.3,0.5-1.5-0.2-1.8c-0.8-0.5-1.7-0.1-2.4,0.4c0.2-0.6,0.8-1.4,0.3-2c-0.5-0.3-1.2-0.2-1.4,0.3
		c-0.4,0.8-0.6,1.6-1.2,2.3C205.7,47.2,204.8,47.6,204.5,48.4z M210.5,45.7c0.4,0.1,0.9,0.7,0.5,1c-0.7-0.2-1.4-0.5-2.1-0.3
		c-0.1-0.1-0.3-0.2-0.4-0.3C209.1,45.9,209.8,45.4,210.5,45.7z M208.2,44c0.1,0.1,0.3,0.3,0.4,0.3c-0.2,0.7-0.5,1.4-0.8,2.1
		c0.4,0.1,0.7,0.4,0.9,0.8c1,0.4,2,1.1,2.2,2.3c-1.3-0.1-2.1-1.1-3.2-1.5c-0.9-0.4-1.8,0.1-2.7,0.2c0.8-0.8,1.7-1.5,2.1-2.6
		C207.4,45.1,207.5,44.2,208.2,44z"/>
	<path d="M147.9,126.4c0.1,0.9-0.5,1.6-1,2.4c0.6-0.4,1.4-0.8,1.5-1.6c0.3-1.1-0.5-2.7-1.8-2.7C147.4,124.8,148,125.5,147.9,126.4z"
		/>
	<path d="M146.6,124.5L146.6,124.5L146.6,124.5z"/>
	<path d="M194.2,131c2.2-1.3,3.4-4.1,2.8-6.6c-0.5-1.5-2.4-1.4-3.7-1.8c0-2.2-0.2-4.4-0.7-6.5c-0.9-3.5-2.9-6.9-6-8.7
		c-1.7-1-3.8-0.8-5.5-1.6c-0.9-0.4-1.2-1.4-1.7-2.2c1.3-1.5,2.1-3.3,2.8-5.1c0.7-2.1,3.1-2.9,3.8-5c2.8-0.4,5.6-1.7,7.4-4
		c0.4-0.4-0.1-0.8-0.3-1.2c-0.8-1-1.4-2.1-1.8-3.3c1.6,0.5,3.2,1,4.9,1c0.8-0.5,1.3-1.4,1.9-2.2c2.5-3.7,4-8.2,4-12.7
		c0.2-6-2.1-12-6.1-16.5c-1-1.1-2.1-2.2-3.6-2.7c-0.7,0.3-1.3,0.9-1.7,1.5c-1.1,1.7-1.8,3.7-2.3,5.7c-0.9,3.5-1.1,7.2-1,10.8
		c0,0.8,0.1,1.7-0.2,2.5c-1,2.7-2.7,5.1-2.9,8c-0.8-2.2-1.7-4.3-3.2-6.1c-1.3-1.6-2.8-3.1-4.8-3.9c-0.5-0.3-1.2-0.2-1.7,0
		c-2.6-1.2-5.4-1.7-8.2-1.7c-0.4-0.5-1-0.5-1.6-0.6c0.2-0.1,0.5-0.3,0.6-0.3c-0.3-0.2-0.6-0.4-0.9-0.4c-1.6-0.1-3.2,0.6-4.5,1.5
		c0.3-0.7,0.6-1.4,0.6-2.1c-0.3,0.1-0.6,0.2-0.7,0.5c-1.2,1.8-2.6,3.7-4.7,4.6c-0.9,0.5-1.7,1.1-2.4,1.8c-1.7,1.8-3.1,3.9-4,6.2
		c-0.3-2.4-1-4.8-1.3-7.2c-0.3-2.3-0.4-4.6-0.2-6.9c1.2-4.9,2.2-10,2-15.1c-0.2-1.6-0.2-3.5-1.6-4.5c-1-0.4-2.1,0.1-3.1,0.5
		c-2.4,1.1-4.5,2.8-6,5c-0.3,0.5-0.7,1.1-0.3,1.6c1.1,1.3,2.3,2.7,2.6,4.5c-1.6,0.1-3.2,0-4.8,0.3c-0.6,0.1-1.1,0.4-1.5,0.9
		c-0.8,1-1.3,2.2-1.8,3.4c-1.1,2.8-1.8,5.9-1.8,8.9c0.4,5,2.7,9.7,5.7,13.6c2.8,3.7,6.4,6.9,10.6,8.9c1.3,4.8,5,8.7,9.1,11.2
		c-1.3,1.8-3.2,3.2-3.8,5.4c-0.4,1.9-0.2,4,1,5.7c0.6,0.8,0.2,1.9-0.1,2.7c-0.1,0.3-0.5,0.4-0.7,0.5c-1.2,0.5-2,1.5-2.7,2.5
		c-0.4-0.6-1-1.1-1.2-1.9c-0.2-0.5-0.8-0.6-1.2-0.8c-0.5-0.3-1-1-1.7-0.6c-0.9,0.4-0.9,1.5-1.5,2.3c-0.5,0.7,0.1,1.5-0.3,2.2
		c-0.5,1.7-0.7,3.6-0.3,5.3c0,0.6,0.5,1,0.8,1.5c0.2,0.7,0.3,1.5,0.6,2.2c-0.3,0.5-0.9,1-0.6,1.6c0.4,0.5,1.1,0,1.6-0.1
		c0.2,0.2,0.4,0.3,0.6,0.5c-0.6,0.3-1.2,0.6-1.5,1.2c-0.3,0.5-0.4,1.3,0.3,1.5c1.2-0.1,2.2-1.2,3.4-1.3c0.4,0.3,0.8,0.7,1.3,0.6
		c1.1-0.1,2-0.6,3.1-0.9c1.1-0.3,2.3-0.2,3.4-0.1c-0.2,0.3-0.2,0.8-0.6,0.7c-0.6,0-1.3-0.2-1.9,0.1c-0.7,0.3-1.3,0.8-1.5,1.6
		c0.1,0.4,0.4,0.7,0.8,0.5c1.1-0.1,2.2-0.6,3.3-0.7c0.3,0.1,0.6,0.3,0.9,0.5c-1.5,0.3-2.9,1.3-3,2.9c-0.2,0.5,0.5,0.9,0.9,0.6
		c1.2-0.8,2.6-1.6,4.1-1.5c0.4,0.2,0.8,0.5,1.2,0.7c0.4,0.1,0.8-0.2,1.2-0.3c0.1,0.2,0.3,0.4,0.4,0.6c-0.4,0.6-1.1,1.1-1,1.9
		c1.1,0.9,2.4-0.3,3.3-1c1,0.1,2.1-0.1,2.6-1c0.3,0,0.7-0.1,1-0.1c0.8,1.2,2.4,0.6,3.5,1.3c3,2.7,8,1.6,10.2-1.6
		c0.4,0,0.8,0,1.1-0.1c0.6-0.4,0.6-1.2,1.1-1.7c0.3-0.4,0.5-0.9,0.6-1.3c1.9-1.1,4-1.8,5.6-3.3c0.6-0.5,1-1.2,1.4-1.9
		C192.8,131.4,193.5,131.4,194.2,131z M187,108.5c3.8,3.1,5.5,8,5.9,12.7c-0.8-0.1-1.9-0.1-2.1-1c-0.2-1.1,0.6-2.2,0.6-3.3
		c0-1.5-0.5-3.1-1.8-3.9c-1.2-0.8-2.9,0-4-1.1c-1.4-1.5-2.2-3.5-3.2-5.2C183.9,107,185.7,107.3,187,108.5z M179.7,105.2
		c-0.6,0-1.2,0-1.7-0.2c0.3-0.3,0.6-0.6,0.9-0.9C179.1,104.4,179.4,104.8,179.7,105.2z M184.6,94.6c-0.7,0.8-1.5,1.5-2.1,2.3
		c-0.1-0.6-0.1-1.1-0.5-1.6c0.7-0.8,1.5-1.6,1.9-2.6c0.3-0.6-0.1-1.3-0.6-1.7c-1.2-1.1-2.7-1.7-4.1-2.2c-2.8-0.9-5.8-1.2-8.7-1.1
		c0-0.5,0.1-1,0.1-1.4c2.8,0,5.1-2.3,6.1-4.7c0.6,2.1,1.6,4.1,3.3,5.5c1,0.8,2.5,1.1,3.6,0.3c0.9-0.6,1.1-1.8,1.3-2.8
		c0.4,2.2,0.8,4.3,0.7,6.4C185.5,92.2,185.4,93.6,184.6,94.6z M180.4,97.5c-0.2,0.4-0.4,0.8-0.6,1.2c-0.3-0.7,0.1-1.3,0.2-1.9
		c-0.5-0.6-0.9-1.4-1.8-1.4c-0.8-0.1-0.4,0.9-0.5,1.4c-0.6-0.7-1-1.5-1.8-2.1c-1-0.8-2.4-1-3.6-0.9c-2.1-3-7.1-3-9.4-0.1
		c-0.3-0.1-0.6-0.2-0.9-0.3c0.2-1.6,1-3,1.5-4.4c0.2,0,0.5-0.1,0.6-0.1c0.6,1.1,1.6,2.5,3,2.2c0.9-0.7,1.3-1.8,1.9-2.8
		c0.6,0,1.1-0.1,1.7-0.1c0.4,0.9,0.5,1.9,1.3,2.5c1,0.4,1.8-0.5,2.4-1.1c0.6,1.2,0.6,2.5,1.1,3.7c0.2,0.6,0.9,0.8,1.5,0.6
		c0.7-0.2,1.2-0.7,1.7-1.2c0.1,0.3,0.2,0.6,0.4,0.9c0.5,0.4,1.1-0.1,1.5-0.4c0.2,0.2,0.4,0.4,0.6,0.5c1-0.4,1.6-1.4,2.3-2.2
		c0.4,1.3-0.7,2.2-1.4,3.1c-0.7,0.7-1.1,1.7-1.8,2.5C180.3,97.2,180.4,97.4,180.4,97.5z M170.7,102.6c-0.8,0.2-1.1,1.1-1.5,1.8
		c-0.5,0-1.1,0-1.6,0c-0.3-0.6-0.6-1.5-1.3-1.6c-0.7,0.1-1.2,0.7-1.7,1.2c-0.4-0.1-0.7-0.3-1.1-0.4c-0.3-1.2-0.3-2.6-1-3.7
		c-0.8-0.6-1.8,0.2-2.6,0.5c0-0.7,0-1.4-0.1-2.1c-0.8-0.3-1.6-0.1-2.4,0.2c0-0.5,0.2-0.9,0.1-1.4c-0.2-0.4-0.7-0.4-1-0.6
		c0.3-1,0.9-1.8,1.8-2.3c0.8,0.6,1.8,1.3,2.9,1c0.6-0.1,0.8-0.7,1-1.1c1.9,0.6,3.4,1.8,5.2,2.6c0.7,0.3,1.4,0.3,2.1,0.4
		c-0.1-0.1-0.2-0.2-0.3-0.3c-0.2,0.1-0.4,0.1-0.5,0.2c-0.7-0.2-1.3-0.5-2-0.9c2.3-0.4,4.3-1.8,6.6-1.6c1.6,0.1,3,1.1,3.9,2.4
		c-0.1,0.5-0.1,1-0.1,1.5c-0.5,0-1.3,0.1-1.1,0.8c0.1,0.2-0.1,0.6,0.1,0.8c-0.4-0.3-0.8-0.6-1.3-0.6c-0.6,0.1-0.8,0.8-0.9,1.3
		c-0.2,1-0.6,2-0.9,3c-0.2,0.1-0.5,0.2-0.7,0.3C171.9,103.4,171.4,102.8,170.7,102.6z M172,105.3c-0.8,0.1-1.6,0.3-2.5,0.3
		c-0.1-1.1,0.4-2.1,1.2-2.7C171.5,103.4,172.3,104.2,172,105.3z M169.2,105.7c-0.6,0-1.2,0-1.8,0c0.1-0.3,0.2-0.6,0.2-1
		c0.5,0,1,0,1.4,0C169.1,105,169.2,105.3,169.2,105.7z M167.2,105.4c-0.4,0.5-1.1,0.1-1.7,0.1c-0.4-0.1-1.1,0-1.2-0.6
		c0.4-0.8,1-1.4,1.7-1.8c0.3-0.2,0.5,0.1,0.6,0.3C167.1,104,167.3,104.7,167.2,105.4z M156.7,93.3c-0.2,0.3-0.5,0.3-0.8,0.2
		c-0.9-0.4-1.6-1.2-2.1-2c0.9-0.1,1.7-0.4,2.5-0.6C156.4,91.7,157.4,92.5,156.7,93.3z M156.5,90.9c2.3-0.8,4.5-1.4,6.7-1.9
		c-0.5,1.3-1.3,2.5-1.5,3.9c-0.1,0.5-0.2,1-0.5,1.4c-0.6,0.3-1.3,0.2-1.9-0.1C158,93.5,156.9,92.3,156.5,90.9z M154.3,92.7
		c-0.3,0.3-0.5,0.7-0.9,0.8c-0.8-0.3-1.1-1.1-1.4-1.8c0.5,0,1-0.1,1.6-0.1C153.8,92,154.1,92.3,154.3,92.7z M153.3,93.9
		c0.6,0,0.9-0.6,1.2-1.1c0.6,0.6,1.3,1.2,2.1,1.2c0.4-0.1,0.5-0.7,0.8-1c0.2,0.2,0.4,0.4,0.5,0.6c-1,0.6-1.5,1.6-1.8,2.7
		c-0.1,0.1-0.4,0.2-0.5,0.3c0.2-0.6,0.4-1.1,0.3-1.7c-1-0.4-2,0-2.8,0.7c-0.5,0-0.9,0-1.4,0.1c-0.8-1.4-1.4-2.9-1.6-4.5
		c0.5,0.2,1,0.3,1.5,0.4C151.9,92.5,152.3,93.6,153.3,93.9z M152.7,95.9c-0.1,0.8,0.3,1.4,0.8,2c0,0.2,0,0.5,0,0.7
		c-0.7-0.8-1.3-1.7-1.8-2.7C152,95.9,152.4,95.9,152.7,95.9z M152.9,96.7c0.3-1.1,1.5-1.8,2.6-1.4c0.1,0.4-0.2,0.9-0.3,1.3
		c-0.6,0.3-1.1,0.6-1.5,1C153.4,97.3,153.1,97,152.9,96.7z M154,97.9c0.6-1,2-1.3,3-1c0.3,0.4,0.1,1,0.1,1.4c-0.8,0.5-1.6,1.1-2,2
		C154.5,99.7,153.5,98.9,154,97.9z M159.4,98.3c0.1,0.8,0.3,1.9-0.4,2.5c-0.5,0.5-0.7,1.2-0.8,1.8c-1.1-0.5-2-1.2-2.7-2.1
		C155.8,98.9,157.9,98.4,159.4,98.3z M158.9,101.5c0.6-0.7,1.4-1.2,2.2-1.5c0.4-0.1,1-0.3,1.2,0.2c0.4,1,0.5,2,0.7,3
		c0.2,0.8-0.8,1.5-1.5,1.2c-0.8-0.3-1.6-0.7-2.3-1.1C158.6,103,158.4,102.1,158.9,101.5z M163.5,103.8c0.2,0.1,0.5,0.2,0.6,0.3
		c0,0.4-0.1,0.7-0.2,1.1c-0.5-0.1-1.1-0.3-1.6-0.4C162.8,104.5,163.2,104.2,163.5,103.8z M163.3,93.9c2-2.5,6.5-2.7,8.5,0
		c-1.9,0.5-3.8,1.7-5.9,1.5C165,95,164.2,94.4,163.3,93.9z M172.7,103.9c0.2,0.2,0.4,0.4,0.5,0.6c-0.1-1.1,0.8-2.2,0.9-3.4
		c0.1-0.5,0.3-1,0.7-1.4c0.9,0.4,1.6,1.3,1.8,2.3c0.1,0.5,0.1,1.1-0.4,1.4c-1.2,0.9-2.7,1.3-4.1,1.8
		C172.2,104.8,172.3,104.2,172.7,103.9z M176.3,100.2c-0.1,0-0.1-0.1-0.1-0.1S176.2,100.1,176.3,100.2c0.1-0.5,0-1.1,0.4-1.4
		c1.1-0.1,1.8,1.1,2.2,2.1c-0.4,0.9-1.1,1.5-1.7,2.2C177,101.9,176.7,101,176.3,100.2z M177.4,98.3c0-0.4-0.1-0.8,0-1.2
		c1.1-0.2,1.8,0.9,2.3,1.8c-0.2,0.6-0.4,1.1-0.7,1.6C178.7,99.6,178.1,98.8,177.4,98.3z M177.9,95.7c1.1-0.2,1.9,1,1.7,2.1
		c-0.5-0.4-1-0.9-1.6-1.2C178,96.3,178,96,177.9,95.7z M164.5,88.7c1.4-0.2,2.8-0.3,4.1-0.5c-0.5,0.8-0.8,1.9-1.7,2.3
		C165.8,90.5,165.1,89.6,164.5,88.7z M179.5,93.3c-0.3-0.3-0.4-0.6-0.6-0.9c0.6-0.8,1.1-1.8,1.3-2.8c0.6,0.3,1.3,0.6,1.9,0.9
		C181.6,91.7,180.7,92.8,179.5,93.3z M182.3,90.7c0.2,0.3,0.6,0.5,0.7,0.8c-0.4,0.7-0.9,1.3-1.6,1.7c-0.1,0.3-0.8,0-0.4-0.3
		C181.5,92.2,182,91.5,182.3,90.7z M176.9,93.3c-0.6,0.3-1.2-0.2-1.3-0.8c-0.3-1.1-0.7-2.3-1.1-3.4c0.2-0.2,0.3-0.9,0.8-0.7
		c1.6,0.2,3.1,0.6,4.6,1.1C179.4,91.1,178.5,92.7,176.9,93.3z M172.3,90.2c-0.7-0.4-0.9-1.3-1.2-2c1.2,0,2.5,0,3.7,0.2
		C174.1,89.2,173.4,90.3,172.3,90.2z M163.7,80.8c0.3-0.2,0.4-0.8,0.9-0.9c0.7-0.1,1.1,0.5,1.5,1c1,1.5,1.5,3.3,2.6,4.8
		c-2.1-0.8-4.3-2.2-5-4.4c-0.1,0-0.2-0.1-0.3-0.2c-0.7-1.9-0.2-4.1,1.2-5.6c2.7-2.9,7.8-2.8,10.4,0.1c1.2,1.3,1.6,3.2,1.5,5
		c-0.3-0.3-0.5-0.6-0.8-0.9c-1,1-1.1,2.4-1.7,3.6c-0.2,0.6-0.6,1.2-0.8,1.8c0.6-1,1.1-2,1.5-3.1c0.3-0.6,0.4-1.4,1.1-1.8
		c0.4,2-0.9,3.9-2.6,5c0-0.1,0-0.1,0-0.2c0,0.1-0.1,0.1-0.1,0.2v-0.1c-1,1.1-2.6,1-3.9,0.7c-1.5-1.6-1.9-3.9-3.1-5.6
		c-0.3-0.4-0.7-0.8-1.3-0.8C164.1,79.3,163.4,80.1,163.7,80.8z M186,93.1c0-0.9,0.4-1.7,0.9-2.4c1.8,0.2,3.7-0.1,5.4-0.8
		C190.5,91.5,188.3,92.6,186,93.1z M188.9,58.5c0.5-2,1.2-4,2.5-5.6c0.3-0.4,0.9-0.9,1.4-0.5c1.4,0.8,2.4,2.2,3.4,3.4
		c3.4,4.6,5.4,10.4,5,16.2c-0.3,4.6-2.1,9.1-4.8,12.8c-0.2,0.2-0.3,0.5-0.7,0.6c-1.7,0-3.3-0.6-5-0.8c0.1,1.7,1.1,3.1,2.1,4.4
		c-1.7,1.2-3.9,1.4-5.9,1.3c1.1-3,1.2-6.3,1.1-9.5c-0.1-3.9-0.4-7.8-0.5-11.7C187.7,65.6,188,62,188.9,58.5z M187.2,72.9
		c0.2,1.6,0.1,3.3,0.2,5c0.1,3.5,0.2,7-0.5,10.4c-0.2,0.9-0.4,1.9-1,2.7c0.1-0.4,0.2-0.7,0.2-1.1c-0.1-2.7-0.8-5.3-1.6-7.9
		C184.5,78.7,186.2,75.9,187.2,72.9z M179.1,72.9c3,2.9,4.5,6.9,5.5,10.8c0,0.9-0.1,1.9-0.6,2.8c-0.7,1.1-2.3,1.3-3.4,0.6
		c-2-1.2-3-3.4-3.7-5.5c-0.2-0.5,0-1.1,0-1.6c0.1-1.1-0.2-2.1-0.6-3.1c-0.3-0.7-0.8-1.3-0.8-2.1c0-1,0-2.4,1.1-2.9
		C177.6,71.6,178.5,72.3,179.1,72.9z M148.2,83.3c0.7-2.7,1.9-5.2,3.5-7.5c1-1.2,2.3-2.2,3.8-2.7c1-0.2,2.1-0.2,3,0.5
		c1.2,0.8,1.9,2.2,2.4,3.5s1,2.6,1.1,4c0.1,0.8-0.4,1.4-0.9,2c-1.4,1.6-3.1,3-5.1,3.8c-1.9,0.7-4,1-5.9,0.2
		C148.7,86.5,148.1,84.8,148.2,83.3z M134.3,79.3c-1.7-3.3-2.8-7.1-2.4-10.8c0.4-2.9,1.2-5.8,2.6-8.4c0.4-0.6,0.7-1.4,1.4-1.6
		c1.7-0.6,3.6-0.4,5.4-0.6c0-2-1.4-3.6-2.6-5.1c0.3-0.7,0.7-1.3,1.2-1.9c1.4-1.6,3-3,4.9-3.9c0.8-0.4,1.6-0.7,2.5-0.7
		c0.6,0.3,0.8,1.1,1,1.7c0.4,1.8,0.4,3.7,0.3,5.5c-0.3,5.6-1.5,11.1-3.4,16.4c-1.2,3.3-2.5,6.6-2.6,10.1c-0.1,2.6,0.3,5.2,1.4,7.6
		c-1.6-1.1-3.4-1.8-5-2.8C137.1,83.4,135.4,81.5,134.3,79.3z M147.7,91.5c-0.1,0-0.2-0.1-0.3-0.1c0,0.6,0.1,1.1,0.1,1.7
		c-1-0.5-2-1.1-2.9-1.8c-2.8-2.1-5.4-4.6-7.4-7.5c0.7,0.5,1.4,1,2.1,1.5c1.6,1,3.5,1.6,5,2.8c0.9,1,1.3,2.4,2.5,3.1
		c-0.7-0.9-1.4-1.8-1.8-2.8c-2-4.3-2-9.3-0.6-13.7c0.8-2.5,1.6-5.1,2.4-7.6c0,1.3-0.1,2.6,0,3.9c0.1,3.1,0.9,6,1.3,9.1
		c0.2,1-0.3,2-0.5,3c-0.4,1.5-0.4,3.1-0.2,4.7c0.1,0.1,0.2,0.3,0.2,0.3c0-1.1,0-2.2,0.2-3.3h0.2c0.2,0.9,0.7,1.8,1.5,2.3
		c1.4,0.9,3.1,1,4.7,0.7c2.2-0.3,4.2-1.6,5.9-3.1c0.8-0.7,1.5-1.5,2-2.4c0.4-0.7,0.2-1.5,0-2.2c-0.6-2.3-1.4-4.7-3.1-6.5
		c-0.6-0.6-1.3-1.3-2.2-1.3c-1.1-0.1-2,0.5-2.9,1c1.1-1.1,2.7-2.1,4.2-1.5c1.3,0.4,1.9,1.7,2.6,2.8c-0.3-1.8-1.9-3.4-3.8-3.3
		c1.2-1,2.1-2.2,3.1-3.5c-0.3,0.9-0.8,1.7-1.2,2.5c1.5-1.5,3.5-2.6,5.7-2.6c0,0,0,0,0,0.1c-1.3,0.5-2.7,0.8-3.6,1.8
		c1.5-0.8,3.2-1.4,5-1.1c-1.2,0.5-2.5,0.2-3.6,0.9c4-0.9,8.3-0.4,12,1.3c0,0.7-0.2,1.4,0.1,2.1c0.1-0.6,0-1.4,0.5-1.9
		s1.2-0.1,1.8,0.1c-0.4,0.2-1,0.3-1.1,0.8c-0.5,1.1-0.3,2.2-0.2,3.4c-2.3-2.4-6.1-2.9-9.1-1.5c-1.9,0.9-3.4,2.6-3.7,4.7
		c-0.2,1.4,0.2,2.9,1.1,4.1c1.6,2.1,4.1,3.5,6.7,3.9c0,0.5-0.1,0.9-0.2,1.4c-1.3,0.2-2.6,0.2-3.9,0.4c-3.8,0.5-7.4,1.6-11.1,2.6
		c-1.6,0.4-3.3,0.7-4.9,0.2c0.1-0.3,0.3-0.5,0.4-0.8c-0.4,0.3-0.9,0.6-0.9,1.1c-0.1,0.8,0.3,1.6,0.5,2.3c-0.9,0.7-1.1,1.9-1.1,2.9
		C148.3,95,147.9,93.2,147.7,91.5z M150,98.1c-1-1.2-0.6-3.1,0.2-4.2c1.5,3.5,3.9,6.7,7,8.9c3.9,2.9,9.1,3.9,13.8,3.2
		c2.9-0.4,5.7-1.8,7.4-4.1c0.8-1,1.4-2.3,1.9-3.5c0.4-0.9,0.7-1.9,1.4-2.7c0.2,0.6,0.4,1.3,0.2,2c-1,2.6-2.4,5.2-4.6,7
		c-2.8,2.4-6.6,3.3-10.3,3.1C160.4,107.3,153.9,103.6,150,98.1z M157.6,115.2c0-1.7,0.9-3.2,1.8-4.5c-1.1,0.7-1.6,2-2.5,3
		c-0.4-1.9,0.7-3.6,1.8-5.1c-1.2,0.2-1.9,1.2-2.9,1.8c0.3-1.1,1-2,2-2.6c0.6-0.4,1.2-0.8,1.8-1.2c0.6,0.1,1.2,0.4,1.8,0.6
		c1.8,0.7,3.7,1,5.7,1.1c-1.3,1.9-2.4,4.2-2.3,6.7c0,1.2,0.5,2.4,0.8,3.5c-0.2,0.8-0.6,1.6-1.1,2.3c-0.8,1.2-1.5,2.4-2.3,3.5
		c-0.8-1.9-2-3.5-2.8-5.4c-1-2.1-0.9-4.7-0.1-6.8C158.4,112.9,158.3,114.3,157.6,115.2z M157.8,107.4c0.1-0.5,0.3-1.1,0.4-1.6
		c0.4,0.2,0.8,0.4,1.2,0.6C158.9,106.8,158.4,107.1,157.8,107.4z M145.7,131.7c-0.1-0.7-0.3-1.2-0.4-1.8c0.2,0,0.6,0.1,0.8,0.1
		c-0.8-0.4-1.5-1-1.7-2c0.7,0.1,1.5,0.4,2-0.2c0.9-0.9,0.7-2.3,0.2-3.3c-0.1,0-0.1,0-0.2,0c-0.7-0.5-1.5-0.5-2.2-0.1
		c0-0.9,0.6-1.7,0.4-2.6c0-0.4,0-0.7,0-1.1c0.2,0.2,0.4,0.4,0.6,0.7c0.8,0,1.7,0,2.4-0.6c0.4-0.4,0.1-1,0.1-1.5
		c0.3,0.2,0.7,0.4,0.7,0.9c0.1,0.6-0.3,1.1-0.4,1.7c0.3-0.4,0.6-0.8,0.9-1.2c0.3,0.5,0.6,0.9,0.8,1.4c-0.1,0.7-0.5,1.3-0.5,2
		c0.3-0.5,0.5-1,0.7-1.5c0.7-1.2,1.7-2.2,3-2.7c-1,2.5-2.4,5.1-1.9,7.8c0.1,1,1,1.6,1.6,2.4c0.3,0.4,0,0.8-0.4,0.9
		c-0.8-0.2-1.3-0.9-2.1-1c-0.8,0.1-1.3,0.9-1.7,1.6C147.5,131.6,146.6,131.5,145.7,131.7z M152.9,134.7c-1.1,0.2-2.1,0.8-3.2,0.4
		c0.2-0.6,0.5-1.5-0.3-1.8c0.3-0.7,0.9-1.6,1.8-1.4c1,0.1,2.1,0.9,2.9,0c-0.3,0.1-0.5,0.1-0.8,0.2c-0.9-0.2-1.7-0.7-2.5-0.7
		c-1,0.1-1.4,1.1-1.8,1.9c-0.2-0.1-0.3-0.3-0.5-0.4c0.2-0.9,0.7-1.9,1.6-2.4c0.9-0.2,1.6,0.8,2.5,0.7c0.4-0.2,0.7-0.6,0.8-1
		c-0.3-1-1.2-1.6-1.4-2.6c-0.5-1.9,0.1-3.9,0.8-5.7c0.6-1.7,1.5-3.3,1.8-5.1c-0.1-1.1-0.9-1.9-1.1-2.9c-0.4-1.7-0.4-3.6,0.6-5.1
		c0.9-1.4,2-2.5,2.9-3.8c0.3,0.2,0.6,0.4,0.9,0.6c0.1,0.7,0,1.4-0.3,2c-0.8,0.8-2,1.7-1.9,3c0.1,0.1,0.2,0.3,0.3,0.4
		c0.8-0.4,1.3-1.2,2-1.7c-0.8,1.3-1.6,2.7-1.4,4.2c0.1,0.5,0.4,0.9,0.9,0.5c-0.1,0.6-0.1,1.2,0,1.8c0.1,0,0.3,0,0.4,0
		c0.2-0.3,0.3-0.6,0.5-0.9c-0.2,1.4,0,2.9,0.6,4.2c0.9,1.8,2.2,3.5,2.8,5.5c0.2,0.4-0.1,0.8-0.3,1.1c-0.6,1.2-1.1,2.4-1.3,3.8
		c-0.1,0.7-0.2,1.4,0.2,2s1.1,0.9,1.5,1.6c0.2,0.4,0.5,1.1-0.2,1.1c-1,0.4-1.6-0.5-2.2-1.1c-1.1-0.3-1.9,0.6-2.5,1.4
		C155.7,134.5,154.3,134.4,152.9,134.7z M182.4,137.7c0.2,0.5,0.8,0.6,1.3,0.8c-0.2,0.6-0.4,1-0.8,1c-0.5,0.2-0.9-0.3-1.1-0.7
		c0,0-0.1,0.1-0.2,0.1c0.1,0.3,0.5,0.6,0.2,1c-2.1,2.8-6.6,3.6-9.3,1.4c-0.5-0.4-1.2-0.2-1.7-0.6c-0.7-0.6-1.3-1.4-1.6-2.3
		c-0.1-0.5,0.3-0.9,0.5-1.3c0.3,0.7,0.7,1.4,1.3,1.9c-0.7-1.3-1.1-2.7-0.9-4.2c-0.3-0.3-0.7-0.6-0.9-1c-0.1-0.4,0-0.8,0-1.2
		c0.6,0.1,1.2,0.4,1.7,0c1-0.8,1.4-2.3,0.8-3.4c0.4,0,0.8-0.2,1.1,0.1s0.3,0.9,0.5,1.3c0.1-0.5,0.1-1,0.1-1.5
		c0.4-0.2,0.9-0.4,1.3-0.6c0.1,0.5,0.4,0.9,0.7,1.3c0-0.5-0.1-0.9-0.1-1.4c0.4-0.4,0.9-0.7,1.4-0.9c-0.2,0.3-0.3,0.6-0.5,0.9
		c0.8,1,2.1,1.4,3.4,1.3c0.7,0,0.5-0.9,0.7-1.3c0.3,0.4,0.6,0.7,0.6,1.2c0.1,0.6-0.4,1-0.7,1.4c0.4-0.2,0.7-0.3,1-0.5
		c0.4,0.8,0.8,1.6,1.1,2.4c-0.3,0.4-0.5,0.8-0.5,1.3c0.3-0.4,0.6-0.9,1.2-0.8c0.6,0.1,0.9,0.7,1.2,1.2c-0.5,0-1-0.3-1.4,0.1
		C182.2,135.5,181.8,136.7,182.4,137.7z M191.7,130.6c-1,2.9-4,4.4-6.6,5.8c-0.4-0.7-0.6-1.5-0.8-2.3c-0.2-0.7-0.9-1-1.6-1.2
		c-0.4-0.9-0.8-1.9-1.4-2.7c0.2-1.1-0.9-1.7-1.5-2.5c-0.5-0.7-1.6-1.1-2.4-0.6s-1.8,0.3-2.6,0.9c-0.8,0.4-1.7,0.9-2.6,0.8
		c1-2.7,3.7-4.5,6.5-5c2.7-0.4,5.3,0.9,7.4,2.4c0-0.1-0.1-0.2-0.1-0.3c-2.2-1.6-4.7-3.1-7.5-2.7c0.1-2.1-1-4-1-6
		c0-0.5,0.2-0.9,0.4-1.3c-0.1,0-0.2-0.1-0.3-0.1c-0.2,0.8-0.5,1.5-0.4,2.3c0.2,1.7,1.1,3.5,0.5,5.2c-2.7,0.8-5,2.9-5.9,5.5
		c-0.6,0.3-1.2,0.4-1.8,0.5c-1.2,0.4-1.7,1.7-1.3,2.9c-0.6,1-0.4,2.4,0.6,3.1c0,0.5,0.1,1,0.2,1.6c-1.1,0.7-0.9,2.1-1.3,3.2
		c-0.3,0-0.7,0.1-1,0.1c-0.5,0.6-1.1,0.9-1.9,0.8c0.3-0.7,0.6-1.6,0-2.3c-1,0.3-1.8,1-2.6,1.6c-0.1-0.3-0.2-0.5-0.2-0.7
		c0.6-1.1,1.6-2.2,3-2.3c0.9-0.1,1.2,0.8,1.7,1.3c-0.1-0.9-0.9-1.8-1.9-1.7c-1.5,0.2-2.5,1.4-3.3,2.5c-0.7,0.7-1.6,0.1-2.3-0.2
		c0-0.6,0-1.1-0.1-1.7c-0.2-0.1-0.5-0.2-0.7-0.2c0.2-0.9,0.7-1.6,1.5-2c0.7,0.4,1.4,0.6,2.1,0.8c0.1,0,0.2-0.1,0.2-0.2
		c-0.8-0.1-1.5-0.6-2.3-0.9c-1.2,0.2-1.9,1.5-2.2,2.6c-0.3-0.2-0.6-0.3-0.8-0.6c0.1-0.5,0.2-1,0.3-1.6c-0.2,0-0.5-0.1-0.7-0.1
		c0.5-0.8,1.2-1.7,2.2-1.6c0.5,0.3,0.8,0.8,1.4,0.9c0.6,0.1,1.2-0.1,1.7-0.3c0.1-1-0.5-1.8-1.1-2.5c-0.6-0.6-0.6-1.5-0.5-2.3
		c0.7-3.5,2.7-6.4,4.5-9.5c0.5-0.8,1-1.8,0.6-2.7c-0.7-2-0.8-4.4,0.1-6.4c0.4-0.9,1-1.8,1.6-2.6c3.6,0.1,7.3-0.9,10-3.3
		c0.6,0.4,1.4,0.4,2.1,0.4c0.6,0.5,1.4,0.9,2.1,1.1c0.8,1.5,1.5,3,2.4,4.4c0.5,0.7,1,1.4,1.8,1.7c1,0.4,2.2,0,3.2,0.6
		c1.2,0.7,1.6,2.2,1.7,3.5c0.1,1.3-0.9,2.4-0.6,3.6c0.3,1,1.5,1.1,2.4,1.2c0,1.4,0.2,2.9-0.3,4.2c0.1,0,0.3,0,0.4,0
		c0.1-1,0.3-1.9,0.3-2.9c1.2,0.4,3,0.3,3.3,1.8c0.4,2.7-1.4,5.7-4.2,6.3c0.1-0.7,0.3-1.3,0.4-2C192,129.3,192.1,130.1,191.7,130.6z"
		/>
	<path d="M212.3,65.5c1.1,0.5,2.3,0,3.2-0.6c1.9-1.3,3.8-2.7,4.8-4.8c0.7-1.6,0.5-3.3,0.2-5c-0.2-1.6-0.7-3.2-1.7-4.5
		c-0.6-0.7-1.5-1.3-2.5-1.2c-1.4,0.3-1.7,2-2.2,3.1c-1,2.4,0.1,5.1-1,7.5c-0.4,1.2-1.4,2.1-1.8,3.3C211,64.1,211.4,65.2,212.3,65.5z
		 M212.7,61.7c0.7-1,1.2-2.2,1.4-3.5s-0.1-2.6,0.1-3.9c0.2-1.2,0.6-2.3,1.1-3.4c0.2-0.5,0.5-1,1.1-1.1c1-0.1,1.9,0.6,2.5,1.4
		c1.3,1.8,1.5,4.2,1.6,6.3c0,2.3-1.5,4.3-3.3,5.7c-1.1,0.8-2.1,1.7-3.4,2.1c-0.9,0.3-2.1-0.2-2.2-1.2
		C211.6,63.2,212.2,62.5,212.7,61.7z"/>
	<path d="M215.3,62.9c2.1-0.7,3.6-3,3.4-5.2c-0.1-1.1-0.6-2.2-1.2-3.1c-0.3-0.5-0.9-1.1-1.5-0.7c-0.2,0.1-0.3,0.3-0.3,0.5
		c-0.3,1.6,0.3,3.3-0.4,4.8c-0.3,0.9-0.8,1.8-1.1,2.8C214,62.6,214.7,63.2,215.3,62.9z M216,58.1c0.1-1.4-0.2-2.7,0.2-4.1
		c0.3,0.1,0.8,0.2,1,0.6c0.5,1,1.1,2.1,1.1,3.3c0.1,1.8-1.1,3.6-2.7,4.4c-0.3,0.2-0.7,0.1-1.1,0.1C214.8,60.9,215.7,59.6,216,58.1z"
		/>
	<path d="M131.6,58.7c0.2-0.9-1-1.1-1.5-1.6c0.3-0.3,0.6-0.5,0.8-0.9c0.2-0.6-0.4-1.4-1-1.3c-0.8,0-1.1,0.8-1.4,1.4
		c-0.6-0.7-1-1.6-1.7-2.1c-0.6-0.4-1.3,0.6-0.8,1.1s1,0.9,1.4,1.4c-0.7,0-1.5-0.3-2.1,0.1c-0.1,1.2,1.4,0.7,2.1,0.7
		c-0.3,0.7-1.1,1.5-0.5,2.2c0.8,0.4,1-0.8,1.4-1.3c0.5,0.7,0.5,1.8,1.4,2.1c0.9-0.3,0.4-1.3,0.2-1.9
		C130.3,59.1,131.3,59.5,131.6,58.7z M129.6,58.4c-0.5,0.6,0.3,1.3,0,2c-0.6-0.6-0.5-1.8-1.4-2.1c-0.6,0.2-0.8,1-1.2,1.4
		c-0.1-0.7,0.4-1.3,0.7-1.9c-0.1-0.2-0.2-0.4-0.3-0.6c0.1-0.2,0.4-0.5,0.2-0.7c-0.4-0.6-1.1-1-1.6-1.6c0.1-0.1,0.4-0.2,0.6-0.3
		c0.7,0.6,1.1,1.4,1.7,2.1c0.6-0.1,0.8-0.6,1.1-1c0.2-0.4,1-0.5,1.2,0c0.4,0.7-1,0.9-0.6,1.6c0.2,0.7,1.5,0.6,1.4,1.4
		C130.7,59,130.2,58.3,129.6,58.4z"/>
	<path d="M156.1,58.3c0.3-0.4,0.7-0.8,0.6-1.3c-0.3-0.7-1.3-0.2-1.2,0.5C155.5,57.9,155.8,58.1,156.1,58.3z"/>
	<path d="M157.8,58.7c0.1,0,0.4-0.2,0.6-0.3c-0.1-0.4-0.3-0.9-0.6-1.3c-0.2-0.2-0.5-0.7-0.8-0.4C156.7,57.5,157.2,58.2,157.8,58.7z"
		/>
	<path d="M119.2,63.6c0.4-0.5,0.9-1.1,0.8-1.8c-0.4-1.3-1.1-2.4-2.1-3.1c-0.5-0.3-1.1-0.4-1.6-0.2s-0.6,0.8-0.8,1.3
		c-0.4,1.6-0.5,3.3-0.4,5c0,0.7,0.7,1.3,1.4,1C117.6,65.3,118.5,64.5,119.2,63.6z M116.4,65.4c-0.5,0.3-0.9-0.4-0.9-0.8
		c0-1.6,0-3.3,0.5-4.9c0.1-0.5,0.6-1,1.2-0.8c0.9,0.3,1.6,1.1,1.9,2c0.2,0.4,0.8,0.9,0.4,1.5C118.8,63.6,117.7,64.7,116.4,65.4z"/>
	<path d="M155.9,58.5c-0.5,0.4-0.8,1.2-0.4,1.7C156.6,60.7,157.1,58.2,155.9,58.5z"/>
	<path d="M157.8,60.6c0.5-0.6-0.1-1.3-0.7-1.6C156.2,59.3,157,60.7,157.8,60.6z"/>
	<path d="M156.6,61.1c-0.2-0.1-0.4-0.4-0.6-0.6c-0.8,0.2-0.9,1.2-0.4,1.7c0.5,0.1,0.5-0.4,0.7-0.7c0.1,0.6,0.3,1.3,1,1.5
		c0.1-0.1,0.3-0.3,0.5-0.3C157.6,62.1,157.4,61,156.6,61.1z"/>
	<path d="M117.1,61.1c-0.3,0.6-0.4,1.3-0.5,1.9c0.3,0.1,0.6,0.3,0.8,0.1c0.6-0.4,1.2-1.2,0.9-1.9C118.2,60.7,117.3,60.6,117.1,61.1z
		 M117,63c0.2-0.6,0.1-1.8,1-1.8C118.3,62,117.6,62.6,117,63z"/>
	<path d="M118.8,67.9c-0.5,0.1-0.9,0.7-0.5,1.2c0.8,0.8,1.9,1.3,2.7,2c-0.3,0-0.8-0.1-1.1-0.1l0,0c-1.1-0.1-1.6-1.1-2.5-1.5
		c-1,0.4-0.8,1.9,0,2.4c1,0.7,2.2-0.1,3.3,0.1c-0.2,0.2-0.4,0.5-0.6,0.7c-0.5,0-1.1-0.2-1.4,0.3c-0.6,0.8-0.1,1.9,0.6,2.4
		c0.8-0.5,1-1.5,1.5-2.2c0.8-0.7,2.1-0.7,3-0.2c0.3,0.2,0.7-0.4,0.5-0.6c-0.3-1.2-1.9-1.2-2.5-2.1c-0.3-0.6,0.1-1.3,0.3-1.9
		C121,67.8,119.9,67.5,118.8,67.9z M121.7,70.7c0.8,0.7,2,0.8,2.4,1.9c-1-0.5-2.3-0.5-3.3,0.1c-0.7,0.6-0.9,1.5-1.5,2.2
		c-0.3-0.5-0.8-1.3-0.2-1.8c0.4-0.1,0.9,0,1.3-0.1c0.3-0.2,0.5-0.6,0.8-0.9c-1-1.2-2.8,0.5-3.7-0.7c-0.4-0.5-0.3-1.1-0.1-1.6
		c0.6,0.7,1.3,1.3,2.1,1.6c0.1-0.1,0.2-0.2,0.3-0.3c0,0.1,0.1,0.4,0.2,0.5c0.4-0.1,1.4,0.1,1.4-0.6c-0.8-1-2.1-1.4-3-2.4
		c0.9-0.7,2.2-0.5,3.2-0.1C121.3,69.2,121.1,70.1,121.7,70.7z"/>
	<path d="M219.8,80.3c-0.1-0.9,0.4-1.7,0.9-2.3c1-1.2,1.4-2.8,1.2-4.3c-0.1-0.8-0.3-1.6-1-2c-0.7,1.1-1.1,2.5-1.7,3.6
		c0.1,0.2,0.2,0.3,0.3,0.5c0.5-1.2,1-2.5,1.6-3.7c0.8,1.8,0.6,4.1-0.7,5.7c-0.7,0.8-1.2,1.9-0.8,3c1.1-0.5,1.6-1.7,2.7-2.3
		c0.1,1.5-0.4,2.9-1.1,4.1c-0.9,1.6-1.5,3.3-2.3,4.9c-0.2-0.4-0.2-0.9-0.5-1.2c-0.7-0.5-1.5-0.7-2.3-0.8c0.1-0.1,0.2-0.3,0.3-0.4
		c0.5-0.2,1-0.5,1.5-0.7c0.6,0.1,1,0.6,1.5,1c-0.1-1.9,1.9-2.9,2.1-4.7c-0.9-0.5-1.3,0.9-2.1,1c-0.2-0.6-0.2-1.2-0.1-1.8
		c0.2-1.5,1.5-2.7,1.7-4.2c0-0.4,0-1-0.4-1.2c-0.7,1-1,2.2-1.8,3.1c-0.3,0.4-0.9,0.6-1.4,0.3c-0.7-0.6-0.7-1.6-0.6-2.5
		c0-0.2,0.1-0.4,0.2-0.5c-0.1,0.4,0,0.9,0.3,1.2c0.5,0.5,1.2,0.2,1.6-0.2c-0.1-0.2-0.2-0.4-0.3-0.5c-0.1,0.2-0.4,0.5-0.5,0.7
		c-0.4-0.1-0.9-0.3-0.9-0.8c0-0.9,0.7-1.5,1.2-2.1c1.6-1,2-2.9,1.6-4.6c-0.1-0.3-0.2-0.7-0.6-0.6c-1.6,1-2.5,2.6-3.5,4.1
		c-0.1-0.8,0.4-1.5,0.6-2.3c0.6-1.3,0.9-2.8,0.3-4.2c-1,0.6-1.9,1.2-2.8,1.9c-0.8,0.6-1.6,1.5-1.7,2.6c0,1.3,1.1,2.2,1.4,3.4
		c-1.2,0.1-1.9-1.1-3-1.4c-0.7-0.2-1.5-0.1-2.1,0.3c0.1,1.6,1.3,2.9,2.6,3.7c0.9,0.6,2,0.8,2.8,1.5c-0.3,0.9-1.4,0.4-2.1,0.2
		c-1.1-0.4-2.3-0.6-3.3,0.1c0.6,2,2.3,3.7,4.4,4c1.1,0.2,2.3-0.2,3.2,0.6c-1.4,0.3-2.9,0.3-4.3,0.6c0.1,1.2,0.9,2.1,1.9,2.6
		c0.2-0.1,0.4-0.2,0.5-0.3c-1-0.2-1.8-1-2.1-2c1.4-0.3,3.1-0.1,4.4-0.9c-0.6-1.1-2-0.9-3-1c-2.1,0.1-4.1-1.5-4.7-3.5
		c1.1-0.5,2.3,0,3.4,0.4c0.6,0.2,1.6,0.2,1.8-0.6c0.2-0.8-0.8-1-1.4-1.3c-1.8-0.7-3.5-2-4-4c0.5-0.1,1.1-0.2,1.6-0.1
		c1,0.2,1.6,1.4,2.7,1.4c0.4,0.1,1-0.3,0.7-0.8c-0.3-1.2-1.7-2.3-1.1-3.7c0.7-1.6,2.5-2.3,3.8-3.3c0.5,1.6-0.3,3.2-0.9,4.6
		c0.1-0.5,0.2-1,0.3-1.4s0.3-1-0.2-1.3c-0.2,1.8-1.2,3.6-0.3,5.3c0.1,0.1,0.2,0.2,0.3,0.2v0.1c0.2-0.1,0.4-0.2,0.5-0.3h0.1
		c1.2-0.6,1.4-2.1,2.4-2.9l0,0c0.1,1.9-2,2.9-2.3,4.8c-0.3,1.2,0.1,3,1.5,3.1c1.5-0.2,1.8-2,2.6-3.1c0,1.7-1.5,2.9-1.7,4.5
		c-0.1,0.8-0.1,1.6,0.4,2.3c0.8-0.1,1.2-0.7,1.8-1.2c-0.4,1.4-1.7,2.3-2,3.7c-0.4-0.2-0.7-0.5-1.1-0.5c-1,0.3-1.7,1.2-2.8,1.1
		c-0.4,0-0.6-0.4-0.8-0.7c1-0.6,2.3-0.4,3.3-1.1c0.7-0.4,1-1.4,0.6-2.1c-0.3-0.6-1.1-0.7-1.7-0.7c-1.7-0.1-3.5-0.1-5-1.1
		c1.2,0,2.4,0.2,3.6-0.1c0.8-0.2,1.3-1.1,1.1-1.9c-0.2-1.1-1.2-1.8-2.2-2c-1.1-0.2-2.5,0.1-3.2-1c1,0.2,2,0.6,3,0.7
		c-1.1-0.1-2.2-0.7-3.5-0.8c0,0.9,0.9,1.6,1.8,1.7c1.1,0.1,2.5,0,3.3,0.9c0.6,0.6,0.6,2-0.4,2.3c-1.5,0.4-3,0.1-4.4,0
		c0.4,0.7,1.1,1.2,1.9,1.5c1.5,0.6,3.1,0.4,4.7,0.6c0.5,0,0.7,0.6,0.9,1c-0.4,1.5-2,1.5-3.2,1.7c-0.6,0.1-1.2,0.7-0.7,1.3
		c0.5,0.5,1.5,0.9,2,0.2c-0.1,0.2-0.1,0.4-0.2,0.6c-0.3-0.1-0.9-0.2-1.2-0.2c0,0.1,0.1,0.4,0.1,0.5c1.2-0.2,2.3,0.1,3.4,0.6
		c0.2,0.5,0.3,1.2,0.9,1.4c0.9-1.8,1.6-3.7,2.6-5.4c0.7-1.6,1.1-3.2,1-4.7C221.3,78.2,220.7,79.6,219.8,80.3z"/>
	<path d="M213.8,75c-0.1,0-0.1,0-0.2,0C213.7,75,213.8,75,213.8,75L213.8,75z"/>
	<path d="M215.2,73.7c-0.4-1.2-1.1-2.4-1-3.8c0-0.8,0.5-1.5,1.2-2c-1,0.2-1.7,1.3-1.7,2.4c-0.1,1.4,0.7,2.5,1,3.8
		c0.2,0.5-0.4,0.8-0.9,0.9c0,0,0,0,0.1,0C214.6,75,215.3,74.5,215.2,73.7z"/>
	<path d="M215.6,67.9L215.6,67.9c-0.1-0.1-0.1,0-0.2,0C215.4,67.9,215.5,67.9,215.6,67.9C215.5,67.9,215.6,67.9,215.6,67.9z"/>
	<path d="M126.6,71.4c0.3-0.8-0.8-1.7-1.4-1.1c-0.4,0.3-0.5,0.8-0.3,1.2C125.2,72.2,126.4,72.1,126.6,71.4z"/>
	<path d="M168.9,71.2c-0.5-0.4-1.2-0.3-1.8-0.3c-1.4-0.1-2.7,0.6-3.6,1.7c0.3-0.1,0.6-0.3,0.9-0.6C165.8,71.2,167.4,71,168.9,71.2z"
		/>
	<path d="M165.4,72.7c-0.6,0.3-1.3,0.5-1.6,1.2c0.6-0.3,1.1-0.8,1.8-1c1.4-0.7,3.1-0.8,4.6-0.5c0.6,0.1,1.1,0.4,1.7,0.4
		C169.9,71.7,167.4,71.5,165.4,72.7z"/>
	<path d="M122.2,73.4c-1.2,0.2-0.4,2.1,0.6,1.5C123.6,74.5,123.1,73.1,122.2,73.4z"/>
	<path d="M124.3,76.2c0.5-0.6-0.3-1.6-1-1.3c-0.5,0.2-0.8,0.8-0.4,1.3C123.2,76.7,124,76.7,124.3,76.2z"/>
	<path d="M121.2,75.2c-0.7,0.3-0.7,1.4,0,1.6c0.5,0.3,1.1,0,1.3-0.6C122.8,75.6,121.9,74.7,121.2,75.2z"/>
	<path d="M178.5,82.8c0.6,1,1.3,2,2.5,2.3c0.9,0.1,1.8-0.5,2-1.3c0.5-1.7,0.1-3.5-0.5-5.1c-0.6-1.4-1.3-2.8-2.7-3.5
		c-0.8-0.4-1.7,0.1-1.9,0.9c-0.8,1.8-0.6,3.8-0.3,5.7C178.1,81.8,178.2,82.4,178.5,82.8z M180.4,76.3c0.9,0,1.4,1.2,1.2,2
		c-0.1,0.7-1,0.9-1.4,0.3C179.6,78.1,179.4,76.7,180.4,76.3z"/>
	<path d="M153.3,84.4c1.4,0.5,3,0.4,4.2-0.4c1.4-0.8,2.2-2.2,2.8-3.6c0.1,0.4-0.1,1,0.3,1.3c0.1-2.4-0.9-5.1-3.3-6
		c-3.1-0.9-6.5,2-6.3,5.2C151.2,82.3,151.9,83.8,153.3,84.4z M156.8,77.4c0.1-0.2,0.2-0.4,0.4-0.5c0.8-0.4,2.2,0.2,2,1.2
		C158.7,79.3,156.4,78.7,156.8,77.4z"/>
	<path d="M118,77.6c-0.8-0.4-1.8-0.3-2.5,0.2c-0.3,0.7-0.4,1.5-0.2,2.3c0,0.6,0.5,1.1,1.1,1c0.8-0.3,1.6-1.1,2.6-0.8
		c0.5,0.2,1.1,0.4,1.7,0.1c-0.1-0.4-0.2-0.8-0.5-1.1C119.6,78.6,118.9,78,118,77.6z M118.8,79.9c-0.9-0.2-1.7,0.6-2.5,0.8
		c-0.7-0.1-0.7-0.9-0.7-1.4s-0.1-1.2,0.4-1.4c0.9-0.5,2-0.1,2.7,0.5c0.6,0.5,1.3,1.1,1.6,1.9C119.8,80.2,119.3,80,118.8,79.9z"/>
	<path d="M177.7,82.1c-0.2,0.3-0.1,0.5,0.2,0.5C178.1,82.3,178,82.2,177.7,82.1z"/>
	<path d="M201.6,82.3c-0.4,0.5,0,1,0.4,1.5C202.4,83.4,202.4,82.1,201.6,82.3z"/>
	<path d="M203,84.5c0.3,0.3,0.5,0.3,0.7,0.1c0-0.5-0.2-1-0.4-1.4c-0.2,0.1-0.5,0.2-0.6,0.2c0,0.3,0.1,0.6,0.2,0.8
		c-0.1,0.1-0.2,0.2-0.4,0.3l-0.1-0.4c-0.3,0.1-0.5,0.3-0.8,0.5c0.2,0.6,0.9,0.3,1.4,0.4C203,84.9,203,84.6,203,84.5z"/>
	<path d="M204.5,84c-0.1,0.5-0.1,1-0.2,1.5c-0.3-0.4-0.8-0.3-1.3-0.2c0.1,0.3,0,0.8,0.5,0.9c0.7,0,1.2-0.6,1.7-0.9
		C205.3,84.7,205,84.2,204.5,84z"/>
	<path d="M159.5,86.8c0.4-0.5,1-1,1.1-1.7c-0.5,0.6-1,1.3-1.6,1.8c-0.6,0.6-1.5,0.8-2.3,1.1C157.8,88.2,158.8,87.5,159.5,86.8z"/>
	<path d="M178.2,86.4c-0.3-0.4-0.5-1-0.9-1.3c0.4,1.3,1.2,2.6,2.6,2.9C179.3,87.4,178.6,87,178.2,86.4z"/>
	<path d="M217.6,99.1c2-0.5,3-3.1,2-4.9c-0.5-0.9-1.3-1.3-2.1-1.8c0.2-2-1.4-4.3-3.5-4.3c-1.5,0.3-2.3,1.8-2.8,3.1
		c-0.4,0-0.8-0.1-1.3-0.1c-1.9-0.2-3.6,2-2.9,3.7c0.6,1.2,2.1,1.3,3.2,1.3c-0.5,1.3-0.9,2.7-0.5,4.1c0.3,1.2,1.1,2.3,2.3,2.7
		c1.3,0.4,2.8-0.2,3.5-1.3c0.6-0.8,0.8-1.8,0.7-2.8C216.6,99,217.1,99.2,217.6,99.1z M215.9,98.3c0,0.9,0.1,1.8-0.3,2.6
		c-0.6,1.4-2.3,2.3-3.7,1.6c-1.1-0.6-1.7-1.8-1.8-3c-0.1-1.3,0.4-2.5,0.8-3.7c-1.1-0.1-2.5,0.2-3.2-0.8c-0.7-0.9-0.1-2.3,0.7-2.9
		c0.8-0.8,2-0.4,3.1-0.3c0.5-1.1,1-2.3,2.1-3c1.1-0.5,2.4,0.3,3,1.2c0.6,0.8,0.5,1.9,0.7,2.8c0.5,0.5,1.5,0.7,1.9,1.6
		c1.1,1.7-0.1,4.4-2.2,4.4C216.6,98.6,216.3,98.3,215.9,98.3z"/>
	<path d="M212,94.7c-0.4,0-0.9,0.2-1.3,0.2C211.2,94.9,211.6,94.8,212,94.7z"/>
	<path d="M217,93.4c-0.7-0.1-1.2-0.2-1.7-0.4c0.6-0.7,1.4-1.7,0.9-2.7c-0.9-1.3-3.3-0.9-3.7,0.6c0,0.5,0.2,1.1,0.1,1.6
		c-0.7-0.2-1.5-0.6-2.2-0.3c-1,0.2-1.5,1.7-0.7,2.4c0.2,0.2,0.5,0.3,0.8,0.3c-0.2,0-0.3-0.1-0.5-0.2c-0.7-0.5-0.2-1.7,0.6-1.8
		c0.6-0.2,1.2,0.1,1.8,0.3c-0.1,0.4-0.1,0.8,0,1.2c0.5,0.1,1.3,0.4,1.6-0.2c0.5-0.7-0.2-1.6-1-1.5c-0.1-0.5-0.2-1-0.2-1.5
		c0.5-1.2,2.4-1.5,3-0.4c0.3,0.9-0.5,1.6-1,2.3c0.6,1,2,0.5,2.8,1.3c0.6,0.4,0.9,1.5,0.4,2.2c-0.4,0.6-1.3,0.9-2,0.6
		c-0.6-0.4-1-1.3-1.9-1.1c0.1-0.2,0.3-0.4,0.4-0.6c0.4,0.6,1.3,0.4,1.3-0.3c0-0.6-0.5-1.7-1.2-1.2c-0.1,0.2-0.4,0.5-0.5,0.7
		c0.2-0.1,0.5-0.2,0.7-0.2v-0.3c0.4,0.4,0.8,0.9,0.5,1.4c-0.4-0.2-0.7-0.5-0.7-1c-0.2,0.2-0.3,0.4-0.5,0.6c-0.4,0.1-0.7-0.1-1.1-0.1
		l0,0l0,0h-0.1c-0.2,0.5-0.6,1.1-0.1,1.5c0.4,0.5,1.1,0.1,1.5-0.2c-0.1,1.3,0.6,2.9-0.5,3.9c-0.7,0.7-1.9,0-2.1-0.8
		c-0.3-1.1,0-2.2,0.4-3.3c0.1-0.5,0.4-1.1-0.1-1.5c-0.2,1.2-0.9,2.4-0.8,3.7c0,0.8,0.5,1.8,1.3,2.1c0.7,0.3,1.5,0,1.9-0.6
		c0.7-1.1,0.3-2.4,0.3-3.6c0.4,0.4,0.7,0.8,1.2,1.1c1,0.5,2.5-0.1,2.8-1.2C219,95,218.2,93.7,217,93.4z"/>
	<path d="M119.1,96.7c-0.5-0.8-1.4-1.3-2.3-1c-1.5,0.4-2.2,2.1-2.1,3.6c0.2,2.5,0.3,5.1,1.3,7.5c0.3,0.8,1.3,1.2,2.1,1.1
		c0.7,0,1-0.8,1-1.3c-0.1-1.3-0.6-2.6-0.6-4c0.1-1,0.7-1.8,0.9-2.8C119.7,98.8,119.7,97.6,119.1,96.7z M118.3,101.8
		c-0.5,1.7,0.6,3.4,0.4,5.2c-0.1,0.7-0.9,0.5-1.4,0.4s-0.8-0.5-1-0.9c-0.8-2-1-4.2-1.2-6.3c-0.2-1.4,0-3,1.2-3.9
		c1.1-0.8,2.6,0.2,2.8,1.4C119.5,99.1,118.7,100.5,118.3,101.8z"/>
	<path d="M117.2,98.9c-0.4,0.2-0.8,0.4-1,0.8c-0.3,1-0.4,2-0.4,3c0,0.6,0.2,1.5,0.9,1.6c0.6,0.1,0.5-0.6,0.5-0.9
		c0-1.2,1-2.3,0.8-3.5C118,99.5,117.5,99.2,117.2,98.9z M117.3,101.7c-0.4,0.8-0.5,1.6-0.5,2.4c-0.2-0.3-0.5-0.5-0.5-0.9
		c-0.1-1.1,0-2.2,0.3-3.3c0.1-0.3,0.3-0.5,0.6-0.7C118,99.8,117.6,101,117.3,101.7z"/>
	<path d="M220.9,103.8c-0.7-0.7-1.8-0.7-2.7-0.4c-1.5,0.5-3.1,1.7-3.2,3.4c0,1.4,0.3,2.7,0.8,4c0.3,0.9,1.1,1.7,1.4,2.6
		c0.8,1.7,0.5,3.6,0.9,5.4c0.1,0.6,1,1,1.4,0.5c0.7-0.8,1-1.8,1.3-2.8c0.8-3.5,1-7.2,0.7-10.8C221.4,104.9,221.3,104.2,220.9,103.8z
		 M220.6,115.6c-0.3,1.3-0.7,2.6-1.6,3.6c-0.2-0.2-0.5-0.4-0.5-0.7c-0.3-1.7-0.1-3.6-0.8-5.2c-0.4-1.1-1.3-1.9-1.6-3
		c-0.3-1.2-0.7-2.5-0.6-3.7c0.2-1.3,1.3-2.2,2.4-2.6c0.8-0.3,1.8-0.5,2.6,0c0.5,0.3,0.6,1,0.6,1.5
		C221.4,108.8,221.2,112.2,220.6,115.6z"/>
	<path d="M218.1,106.2c-0.9,0.4-1.6,1.3-1.5,2.2c0.1,0.8,0.9,1.2,1.4,1.7c0.8,0.6,0.4,1.9,1.1,2.6c0.5,0.1,0.9-0.3,1-0.8
		c0.5-1.6,0.5-3.4-0.2-5C219.7,106.3,218.8,105.9,218.1,106.2z M219.4,112.5c-0.4-0.6-0.4-1.4-0.7-2c-0.3-0.9-1.5-1.2-1.8-2.1
		c0-1,0.9-2.1,1.9-1.8c0.8,0.3,0.9,1.3,1.1,2.1C220.2,110,220.2,111.4,219.4,112.5z"/>
	<path d="M208.1,109.3c0.3,0.8,1.7,0.6,1.8-0.3c0.1-0.6-0.7-0.9-1.2-0.8C208.4,108.4,207.9,108.9,208.1,109.3z M208.8,108.7
		c0.3-0.1,0.6-0.1,0.8,0.2c-0.1,0.4-0.5,0.7-0.9,0.5C208.3,109.3,208.4,108.8,208.8,108.7z"/>
	<path d="M206.5,108.5c-0.1,0.3-0.2,0.7-0.2,0.9c0.1,0.4,0.5,0.5,0.9,0.6c0,0.4-0.1,0.8,0.2,1.1c0.5,0.5,1.5,0.1,1.4-0.6
		c0.1-0.5-0.4-0.7-0.8-1c0.1-0.5-0.2-0.9-0.6-1.2c0.3-0.2,0.7-0.3,1.1-0.5c-0.2-0.2-0.3-0.4-0.3-0.6c-0.4-0.5-1-0.5-1.5-0.3
		c-0.3,0.5-0.4,1.2,0.3,1.5c0.1-0.1,0.2-0.3,0.2-0.5l-0.5-0.2c0.2-0.6,1-0.8,1.2-0.1c-0.3,0.2-0.5,0.5-0.7,0.8
		c0.1,0,0.1-0.1,0.2-0.1c-0.1,0.3,0.1,0.7,0.2,1c-0.2,0.2-0.5,0.2-0.7,0.2c-0.4-0.2,0.1-0.6,0.1-0.9
		C206.9,108.6,206.6,108.5,206.5,108.5z M207.6,110.2c0.4-0.5,1.1,0.3,0.7,0.7C207.8,111.3,207.1,110.6,207.6,110.2z"/>
	<path d="M213.8,116.2c0.6,0.3,1.3-0.3,1.1-0.9c-0.4-1.1-1.7-1.4-2.6-1.8c0.4-0.2,1-0.3,1.2-0.8c0.3-0.6-0.4-1.1-1-1
		c-0.6,0.2-1,0.6-1.5,0.9c-0.7-0.2-1.4-0.8-2-0.5c-0.6,0.4,0.1,0.9,0.4,1.2c0.6,0.5,0.4,1.2,0.3,1.9c-0.1,0.5,0.5,1.1,1,0.8
		c0.5-0.5,0.2-1.4,0.3-2C212.1,114.6,212.8,115.7,213.8,116.2z M210.7,113.8c-0.1,0.7-0.1,1.4-0.2,2.1c-0.7-0.2-0.4-1-0.4-1.6
		c0.1-0.8-0.7-1.3-1.1-2c0.6,0.2,1.1,0.4,1.7,0.6c0.9,0.2,1.5-1.2,2.4-0.7c0,0.8-1,0.8-1.5,1.2c0.2,0.6,0.9,0.6,1.3,0.8
		c0.8,0.2,1.6,0.8,1.6,1.6C212.9,116,212.3,113.6,210.7,113.8z"/>
	<path d="M115.2,127.8c0.6,1,1.9,1.6,3.1,1.4c0.9-0.2,1.6-1.1,1.9-1.9c0.8-2.1-0.3-4.4,0.4-6.5c0.5-1.4,1.3-2.4,2.3-3.1
		c0.6-0.4,1.1-1.1,0.9-1.9c-0.4-1.4-1.6-2.2-2.8-2.7c-1.2-0.6-2.3-1.6-3.7-1.2c-1,0.3-1.3,1.4-1.6,2.3c-0.8,3-1.5,6.1-1.5,9.3
		C114.2,125,114.4,126.5,115.2,127.8z M116,114.5c0.3-0.9,0.5-1.9,1.4-2.3c1-0.2,1.9,0.5,2.8,0.9c1,0.6,2.1,1,2.8,1.9
		c0.3,0.4,0.6,1,0.4,1.6c-0.4,0.7-1.2,1.1-1.7,1.7c-0.9,1-1.5,2.2-1.6,3.5c-0.2,1.9,0.6,3.9-0.3,5.6c-0.4,1.1-1.7,1.7-2.8,1.2
		c-1.5-0.6-2.1-2.3-2.3-3.8C114.4,121.3,115.1,117.9,116,114.5z"/>
	<path d="M206,116.1c0.6,0.5,1.4-0.2,1.3-0.9c-0.2-0.2-0.4-0.4-0.5-0.6c0.3-0.4,0.6-0.9,0.2-1.3c-0.4-0.7-1.5-0.4-1.6,0.4
		c-0.1,0.4,0.3,0.7,0.5,1C205.6,115.1,205.4,115.8,206,116.1z M206.5,116c-0.6-0.1-0.5-0.7-0.3-1.1C206.8,115,207.3,115.8,206.5,116
		z M205.8,113.8c0.2-0.2,0.4-0.4,0.6-0.5c0.2,0.3,0.6,0.5,0.4,0.9C206.4,114.6,205.7,114.3,205.8,113.8z"/>
	<path d="M208.8,114.9c0.4-0.9-1-1.6-1.5-0.8c-0.5,0.3,0.3,0.8,0,1.1C207.9,115.4,208.6,115.5,208.8,114.9z M208,114.1
		c0.2,0.1,0.5,0.3,0.7,0.4c-0.3,0.2-0.5,0.8-0.9,0.4C207.3,114.7,207.6,114.3,208,114.1z"/>
	<path d="M117.6,126.4c0.4-0.3,0.8-0.5,1-0.9c0.6-1.8-0.9-3.7,0-5.5c0.8-1.1,2-2,2.5-3.3c0.4-0.8,0-1.6-0.7-2
		c-1.2-0.2-2.4,0.6-2.7,1.8c-0.7,2.3-1,4.8-1.3,7.2C116.3,124.7,116.4,126.1,117.6,126.4z M117.8,117.6c0.2-1.1,0.7-2.3,2-2.5
		c0.7-0.3,1.2,0.7,1,1.3c-0.5,1.3-1.8,2.2-2.5,3.3c-0.8,1.4,0,3,0.1,4.5c0.1,0.6,0,1.5-0.8,1.7c-0.8-0.1-0.8-1.1-0.8-1.7
		C117,122,117.4,119.8,117.8,117.6z"/>
	<path d="M215.7,125.7c-0.9,0.1-1.8,0.6-2.7,0.4c-0.2-0.5,0.1-1.1,0.6-1.2c1-0.2,2.1-0.1,3-0.5c0.6-0.2,1-0.8,1.4-1.2
		c-0.8-0.6-1.7-1.2-2.6-1.7c-0.6-0.4-1.3-0.8-2-0.6c-1.4,0.3-2.2,1.7-3.6,2.1c-0.5,0.1-1.2-0.2-1-0.8c0.2-0.9,1.2-1.1,1.9-1.3
		c0.7-0.2,1.3-0.6,1.7-1.3c-1.1-0.8-2.6-1.1-3.9-0.8c-0.9,0.2-1.7,0.8-2.5,1.2c-0.8,0.1-1.6-0.1-2.5,0c0.6,2.1,0,4.2-0.1,6.4
		c-0.1,1,0,2.2,0.8,3c0.4,0.5,1.3,0.6,1.8,0.1c0.6-0.7,0.4-1.7,0.6-2.6c0.2,0.4,0.2,0.8,0.2,1.2c0,2,0.4,4,1.4,5.8
		c0.3,0.5,0.9,1.1,1.6,1.1c0.6-0.1,0.9-0.8,0.8-1.4c-0.2-1.3-0.6-2.6-0.2-3.9c0.5,1.1,0.4,2.3,0.6,3.4c0.2,1.3,0.1,2.7,0.9,3.7
		c0.6,0.6,1.6,0.9,2.3,0.2c0.5-0.6,0.6-1.3,0.5-2c0.1,0.1,0.2,0.2,0.3,0.1c0.2,1,0.7,2.1,1.6,2.6c0.6,0.3,1.4,0,1.7-0.7
		c1.1-2,0.7-4.7-0.9-6.3c-0.5-0.5-1-1-1.4-1.6c1.4,0.1,2.8,0.1,4.2-0.4c0.4-0.1,0.7-0.6,0.4-0.9
		C219.3,126.5,217.5,125.4,215.7,125.7z M215.5,128.7c0.2,0.8,0.8,1.5,1.4,2.1c1.5,1.4,2,3.9,1.2,5.8c-0.2,0.5-0.7,1.1-1.3,0.8
		c-0.8-0.3-1.2-1.2-1.3-2c-0.1-0.1-0.4-0.2-0.5-0.3c0.1,0,0.1-0.1,0.2-0.1c0-0.1-0.1-0.4-0.1-0.5H215c0-0.8-0.1-1.5-0.1-2.3
		c-1.5,1.1,0.1,3.2-1,4.5c-0.5,0.5-1.3,0.2-1.7-0.3c-0.6-0.8-0.6-1.9-0.7-2.8h0.2c0.4,0.6,0.5,1.5,1,2.1c0.1,0,0.3,0,0.4,0
		c0.1-1.4,0.2-2.9,0.2-4.3c0-0.4,0.1-0.7,0.3-1.1c1.3,0.8,1.7,2.4,2,3.7c0.2,0.9,0.3,2,1.2,2.5c0.4-0.3,0.8-0.6,0.9-1.1
		c0.3-2-0.7-4.1-2.3-5.4c-0.5-0.4-1-1-0.6-1.6c0.5-0.3,1.2-0.2,1.8-0.3c0-0.1,0-0.2,0-0.3v-0.1c-0.7,0-1.5,0.1-2.2,0.3
		c-0.3,0.6-0.2,1.4,0.3,1.8c1.1,0.9,2,2,2.4,3.4c0.2,0.9,0.5,2.1-0.3,2.8c-1.2-1.9-0.7-4.6-2.7-6c-0.4-0.4-1,0-1.1,0.5
		c-0.2,1.4-0.1,2.9-0.3,4.3c-1.1-2,0-4.4-1-6.4c-0.4-0.9-1.3-1.7-2.4-1.6c-0.6,0-1,0.7-1,1.3c0,0.9,0.3,1.7,0.4,2.6
		c0.1-0.2,0.2-0.4,0.3-0.6c-0.2-0.8-0.5-1.7-0.2-2.6c0.7-0.7,1.8-0.1,2.2,0.6c1,1.5,0.6,3.4,0.6,5.1l-0.2-0.1
		c-0.5-1.1-0.1-2.5-0.7-3.6c-0.2-0.2-0.5-0.3-0.8-0.4c-0.4,0.8-0.3,1.7-0.3,2.5c-0.1,0.2-0.3,0.3-0.4,0.5c-0.1-0.5-0.2-1-0.2-1.6
		c-0.1,0.2-0.2,0.3-0.4,0.5c0,0.3,0.1,0.8,0.2,1c-0.1-0.1-0.3-0.4-0.4-0.5c-0.8-2.1,0-4.5-1-6.5c-0.3-0.4-0.6-1.1-1.2-1
		c-0.7,0.1-0.7,1-0.9,1.5c-0.2-1.5-0.4-2.9-0.8-4.3c0.6,0.2,1.2,0.6,1.9,0.6c1.1-0.6,1.7-2,3.1-1.9c-0.7,0.7-1.9,0.7-2.4,1.6
		c-0.6,0.8-0.7,2,0.1,2.6c1,0.8,2.4,0.6,3.5,0c1.2-0.6,2.5-1.4,4-1c-1,0.1-2.1,0.2-2.9,0.8c-0.8,0.6-1.4,1.9-0.7,2.9
		c0.6,1,1.9,1.1,2.9,1c1.2-0.2,2.4-0.4,3.6-0.3c-0.2,0.1-0.7,0-0.7,0.4c0.5,0.4,1.2,0.1,1.6-0.2c-0.4-0.2-0.9-0.5-1.4-0.6
		c-1.4-0.3-2.8,0.5-4.3,0.3c-0.7-0.1-1.3-0.5-1.5-1.1c-0.2-1,0.5-2.1,1.4-2.4c1.1-0.4,2.3-0.2,3.4-0.3c-0.9-0.9-2.4-1.1-3.6-0.7
		c-1.2,0.4-2.3,1.4-3.6,1.4c-0.7,0.1-1.4-0.3-1.7-0.9c-0.3-0.8,0.2-1.6,0.8-2.1s1.6-0.5,2-1.3c0.1-0.5-0.6-0.5-0.9-0.4
		c-1.2,0.2-1.7,1.3-2.6,1.9c-0.8,0-1.5-0.5-2.2-0.7c0.3,2.1,0.9,4.1,0.7,6.2c0.3-0.2,0.8-0.3,0.9-0.8c0.2-0.6-0.1-1.6,0.7-1.7
		c1.4,1.3,1.1,3.5,1.2,5.2c0.1,1.1,0.2,2.7,1.5,2.9v-0.4c0.2,0,0.4,0,0.7,0c0,0.6,0.2,1.1,0.2,1.7c0,0.3-0.3,0.7-0.7,0.5
		c-0.6-0.1-0.9-0.7-1.1-1.1c-0.8-1.6-1.2-3.3-1.2-5.1c0-0.5,0-0.9-0.1-1.4c-0.1-0.3-0.6-0.7-0.8-0.3c-0.3,0.7-0.2,1.5-0.4,2.2
		c-0.2,0.4-0.7,0.7-1.1,0.4c-0.6-0.4-0.9-1.2-0.9-1.9c-0.1-2.3,0.7-4.7,0.2-7c0.7,0.1,1.4,0.2,2.1,0.1c0.9-0.3,1.6-1,2.6-1.2
		c1.1-0.2,2.4-0.2,3.2,0.6c-0.9,1-2.7,0.7-3.3,2c-0.4,0.7,0.1,1.6,0.9,1.6c1.7,0.1,2.5-1.7,4-2.1c0.7-0.2,1.3,0.3,1.9,0.6
		c0.7,0.5,1.5,0.9,2.2,1.4c-0.9,1.3-2.6,1.1-3.9,1.3c-0.9,0.1-1.5,1.5-0.6,2c0.9,0.2,1.7-0.3,2.5-0.4c1.8-0.5,3.7,0.6,4.6,2.2
		C218.8,129,217.1,128.8,215.5,128.7z"/>
	<path d="M134.4,120.1c-0.7-0.6-1.6-0.3-2.4,0c-0.5,0.2-0.4,0.9,0.1,1C133,121,134.1,121,134.4,120.1z M132,120.5
		c0.7-0.2,1.4-0.3,2.1-0.4C133.5,120.7,132.6,120.8,132,120.5z"/>
	<path d="M133.6,122.1c0.3,1.2,1.5,1.9,2.7,1.9c0.1-0.3,0.1-0.6,0.1-0.8C135.8,122.3,134.6,122.1,133.6,122.1z M134.1,122.5
		c0.8,0.2,1.6,0.3,2.1,1C135.3,123.8,134.7,123,134.1,122.5z"/>
	<path d="M140.6,122.1c-0.8-0.2-1.8-0.3-2.4,0.4c-0.2,0.2-0.1,0.5,0.1,0.6c0.8,0.5,1.8,0.4,2.7,0
		C140.9,122.7,141.1,122.2,140.6,122.1z M138.4,122.7c0.7-0.5,1.5-0.4,2.3-0.2C140.2,123.3,139.2,123,138.4,122.7z"/>
	<path d="M125.2,132c-1.3-0.3-2.6,0.4-3.6,1.2c-0.1-0.1-0.3-0.3-0.4-0.4c0.2-0.1,0.3-0.3,0.5-0.4c-0.2,0-0.5,0-0.7,0
		c-1.2-1.2-3.2-1.6-4.8-0.9c-1.1,0.7-2.1,2.2-1.7,3.6c0.4,1.1,1.5,1.6,2.3,2.4c-1,0.4-2.1,1-2.7,2c-0.7,1.2-1,2.8-0.5,4.1
		c0.4,1,1.4,1.6,2.4,1.5c1.5,0,2.7-1,3.6-2l0.3,0.4c-0.2,0.1-0.3,0.2-0.5,0.4l0.6-0.3l-0.1,0.7c0.1-0.2,0.2-0.3,0.3-0.4
		c0.7,1.2,2.1,2.3,3.6,2.2c1.6-0.2,2.8-1.6,3.1-3.2c0.2-1.5-0.3-2.9-1-4.2c0.4-0.3,0.9-0.5,1.2-1C128.5,135.9,127.4,132.7,125.2,132
		z M126.7,137.7c-0.3,0.5-0.9,0.6-1.4,0.8c0.9,1.5,1.6,3.2,1.1,4.9c-0.4,1.4-1.8,2.6-3.3,2.3s-2.4-1.6-3.1-2.8
		c-0.2-0.4-0.5,0-0.7,0.2c-0.9,0.9-2.1,1.8-3.5,1.7c-1,0-1.9-0.9-2-1.9c-0.2-1.4,0.2-2.8,1.2-3.8c0.7-0.7,1.7-1,2.6-1.4
		c-0.8-0.8-1.9-1.3-2.6-2.4c-0.6-1,0-2.1,0.7-2.8c1.1-1.2,3-1,4.3-0.3c0.8,0.4,1.2,1.2,1.4,2c0.9-1.2,2.3-2.1,3.8-1.7
		C127.2,133.1,128,136,126.7,137.7z"/>
	<path d="M174.7,131.8c-2.6,0.8-3.8,3.9-3.1,6.4c0.4,1.4,1.4,2.6,2.7,3.1c1.6,0.7,3.7,0.3,4.8-1.1c1.8-2,1.8-5.2-0.1-7.2
		C178,131.9,176.3,131.3,174.7,131.8z M178.1,140.8c-1.7,1.1-4.1,0.6-5.3-0.9c-1.9-2.3-1.2-6.4,1.7-7.7c1.6-0.7,3.5-0.1,4.5,1.2
		C180.9,135.5,180.5,139.2,178.1,140.8z"/>
	<path d="M175.4,133.5c-0.6,0.6-0.6,1.4-0.7,2.2c-0.1,1.5,0.7,2.9,1.8,3.8c-0.2-0.6-0.7-1-0.9-1.5C175,136.5,175,134.9,175.4,133.5z
		"/>
	<path d="M122.5,137.1c0.4-0.9-0.6-1.9-1.5-1.6c-0.8,0.2-1.2,1.4-0.6,2C121,138.2,122.3,137.9,122.5,137.1z"/>
	<path d="M216.4,142.1c-3-1.2-5.3-3.6-8.2-4.9c-1.3-0.5-2.7-0.9-4.1-0.5c-1,0.3-1.9,1.1-2,2.1c-0.1,1.2,1.2,2,0.9,3.2
		c-0.8,0.4-1.8,0.4-2.6,0.9c-0.6,0.4-0.4,1.3,0.1,1.7c0.7,0.7,1.8,0.9,2.8,1.1c4.4,0.8,8.9,0.6,13.2-0.5c0.8-0.2,1.7-0.8,1.6-1.7
		C217.9,142.8,217.1,142.4,216.4,142.1z M216.2,145c-4.6,1.2-9.4,1.3-14.1,0.2c-0.7-0.2-1.6-0.6-1.7-1.4c0.5-1.2,2.2-0.7,3-1.6
		c0.4-1.1-0.7-2-0.9-3.1c0-0.9,0.7-1.7,1.6-2c1.9-0.5,3.8,0.3,5.4,1.2c2.3,1.3,4.4,3.1,6.9,4.2c0.5,0.3,1.2,0.5,1.4,1.1
		C217.7,144.4,216.8,144.8,216.2,145z"/>
	<path d="M122.8,138.4c-0.7-0.5-1.5-0.1-2,0.4c0-0.8-0.9-1.5-1.7-1.1c-0.9,0.3-0.9,1.8,0,2.2c0.6,0.3,1.2-0.1,1.6-0.5
		c0,0.9,0.9,1.7,1.8,1.4C123.5,140.6,123.8,139,122.8,138.4z"/>
	<path d="M210.7,141.5c-1.5-0.9-3.1-2.2-4.9-2c-0.4,0.1-1,0.3-1,0.8c0,1,1.3,1.3,1.2,2.3c-0.2,0.6-1.1,0.5-1.6,0.9
		c-0.3,0.5,0.2,0.9,0.7,1.1c1.3,0.5,2.7,0.2,4.1,0.1c1.4-0.1,2.8-0.1,4.2-0.3c0.5,0,0.9-0.6,0.5-1
		C212.9,142.8,211.8,142.2,210.7,141.5z M208.7,144.5c-1.4,0-2.9,0.3-4.1-0.5c0.6-0.4,1.7-0.4,1.7-1.3c0.1-0.9-0.7-1.5-1.1-2.1
		c0-0.6,0.7-0.6,1.1-0.6c1,0.1,1.9,0.5,2.7,1c1.2,0.7,2.4,1.5,3.6,2.2c0.4,0.2,0.8,0.5,1.1,0.9C212.1,144.3,210.3,144.3,208.7,144.5
		z"/>
	<path d="M190.1,143.3c-1.2-0.5-2.2-1.8-3.6-1.2c-0.5,0.2-1.3,0.7-0.9,1.3c0.8,0.5,1.7,0.7,2.5,1c0.9,0.3,2,0.6,2.9,0.1
		C191.5,143.8,190.5,143.5,190.1,143.3z M188.9,144.3c-1.1-0.3-2.2-0.6-3.1-1.1c0.5-0.9,1.7-1,2.4-0.5c0.9,0.6,1.8,1,2.7,1.6
		C190.3,144.5,189.6,144.5,188.9,144.3z"/>
</g>
</svg>
