<?xml version="1.0" encoding="utf-8"?>
<!-- Generator: Adobe Illustrator 26.0.3, SVG Export Plug-In . SVG Version: 6.00 Build 0)  -->
<svg version="1.0" id="Слой_1" xmlns="http://www.w3.org/2000/svg" xmlns:xlink="http://www.w3.org/1999/xlink" x="0px" y="0px"
	 viewBox="0 0 239.5 150.2" style="enable-background:new 0 0 239.5 150.2;" xml:space="preserve">
<g>
	<polygon points="152.5,102.6 151.3,99.6 150.6,100.8 148.8,89.4 149.4,88.2 153.6,88.3 151.2,85.3 155.2,83.1 151.1,81.6 152,77 
		147.9,79.2 144.8,76 144.4,79.8 100.2,31.5 103.3,30.4 100.5,28.6 100.4,25.4 97.9,27.4 94.7,26.6 95.9,29.6 94,32.5 97.3,32.1 
		99.4,34.8 100.1,31.7 144.4,80.1 144.4,80.3 140.1,80.1 142.1,83 139.7,85.5 143.3,85.9 143.1,89.7 146.1,87.7 147.8,91.4 
		148.7,89.7 150.4,101.1 149.7,102.3 146.3,102.6 148.5,105.1 147.6,108.4 150.1,107.2 146.1,120.3 143.6,118.2 143.4,121.5 
		140.5,123.3 143.7,124.3 144.4,127.6 146.4,125 149.8,125.3 148,122.5 149.2,119.5 146.3,120.3 150.3,107.1 150.6,106.9 
		153.5,108.8 153.1,105.5 155.7,103.4 	"/>
</g>
<path d="M224.1,118.3c-0.8-1.1-2.1-1.8-3.4-2.1c-2.9-0.7-5.4,1.2-7,3.4c-1.7,2.3-2.7,5.4-3.5,8.1c-0.3,1.1-0.6,2.1-0.9,3.2
	c-0.3-1.1-0.6-2.2-0.9-3.2c-0.9-2.8-1.9-5.7-3.5-8.1c-1.7-2.4-4.1-4-7-3.4c-1.2,0.2-2.4,1-3.2,2c-0.9,1-2,2.9-1.1,4.2
	c0.4,0.7,1.6,0.8,2,0c0.2-0.4,0.3-0.9,0.5-1.3c0.2-0.5,0.6-0.9,1-1.2c0.6-0.6,1.5-0.9,2.3-0.9c2,0.1,3.4,2.5,4.2,4
	c2.4,4.7,3.4,10.1,4.5,15.3c0,0.1,0.1,0.2,0.1,0.3c0,0,0,0,0,0.1c0.1,0.1,0.1,0.2,0.2,0.3c0.1,0.1,0.1,0.1,0.2,0.2
	c0.1,0,0.1,0.1,0.2,0.1c0.1,0,0.1,0.1,0.2,0.1h0.1c0.1,0,0.2,0,0.3,0s0.2,0,0.3,0h0.1c0.1,0,0.1-0.1,0.2-0.1c0.1,0,0.2-0.1,0.2-0.1
	c0.1-0.1,0.1-0.1,0.2-0.2c0.1-0.1,0.2-0.2,0.2-0.3c0,0,0,0,0-0.1c0.1-0.1,0.1-0.2,0.1-0.3c1.1-5.2,2.2-10.5,4.5-15.3
	c0.7-1.5,2.1-3.8,4-4c0.9-0.1,1.7,0.2,2.4,0.7c0.4,0.3,0.7,0.7,1,1.2s0.4,1,0.6,1.5c0.4,0.8,1.5,0.7,2,0
	C225.9,121.1,224.9,119.3,224.1,118.3z"/>
</svg>
