<?xml version="1.0" encoding="utf-8"?>
<!-- Generator: Adobe Illustrator 26.0.3, SVG Export Plug-In . SVG Version: 6.00 Build 0)  -->
<svg version="1.0" id="Слой_1" xmlns="http://www.w3.org/2000/svg" xmlns:xlink="http://www.w3.org/1999/xlink" x="0px" y="0px"
	 viewBox="0 0 239.5 150.2" style="enable-background:new 0 0 239.5 150.2;" xml:space="preserve">
<path d="M217.1,114.2c-1-0.1-1.7,0.4-2.4,0.9c-0.6,0.4-1.3,0.6-2,0.9c-1.7,0.6-3.3,0.8-5.1,0.7c-1.6-0.1-3.4-0.5-4.9-1
	c-0.7-0.2-1.4-0.6-2.1-0.7c-0.6-0.1-1.1-0.5-1.7-0.1c-0.5,0.3-0.6,1-0.3,1.5c0.2,0.6,0.9,1.1,1.5,1.4c0.8,0.4,1.7,0.8,2.5,1.1
	c0.3,0.1,0.5,0.2,0.8,0.3c0,0.5,0.1,1,0.1,1.5c0,0.9,0.1,1.9,0.1,2.8c0,1.9,0,3.8,0,5.8c0.1,1.6,0.1,3.2,0.1,4.8
	c0,0.5,0,1.1,0.1,1.6c-0.5,0.3-1,0.6-1.4,1c-0.7,0.5-1.5,1.1-2.1,1.8c-0.6,0.9,0,1.9,1.1,1.7c0.7-0.1,1.3-0.6,1.9-0.9
	c0.6-0.4,1.3-0.8,2-1.1c1.2-0.6,2.7-0.9,4.1-1c1.3-0.1,2.6,0.4,3.7,1c0.6,0.3,1.2,0.6,1.7,1c0.6,0.5,1,1.1,1.6,1.5
	c1.2,0.8,2.4-0.6,2.2-1.8c-0.4-1.7-2.3-2.7-3.8-3.4c-0.2-0.1-0.4-0.2-0.5-0.2l0,0c0-2.9,0-5.7,0-8.6c0-1.4-0.1-2.8-0.2-4.3
	c-0.1-0.8-0.1-1.5-0.2-2.3c0-0.1,0-0.3,0-0.4c0.2-0.1,0.4-0.1,0.6-0.2c1.8-0.6,4-1.6,4.2-3.8C218.3,114.7,217.7,114.2,217.1,114.2z
	 M211,121.8c0,1.5,0,3,0.1,4.5c0.1,2.5,0,5.1,0.1,7.6c-0.5-0.1-1-0.1-1.6-0.2c-1,0-2.1,0.2-3.1,0.5l0,0c0-0.3,0-0.7,0-1
	c0-1.8,0-3.5-0.1-5.3c0-1.7,0-3.5-0.1-5.2c0-0.8-0.1-1.7-0.2-2.5c0-0.1,0-0.3,0-0.4c0.7,0.1,1.4,0.2,2.2,0.3c0.9,0.1,1.9,0,2.9-0.1
	C211,120.6,211,121.2,211,121.8z"/>
<path d="M209,91.6l0.6-3l-2.7,1.2l-2.5-1.4l0.4,2.6l-16.7-11.4l3.1-0.3l-2-2.1l1.2-3.1l-2.9,1l-0.6-3.6l-2.2,2.6l-9.1-19l1.8-0.2
	l-1.3-1.3l0.4-1.9l-1.7,0.8l-1.6-0.9l0.1,0.8l-7.4-8.7l2.5-0.2l-2.1-2.1l0.6-3h-0.1l6.3-10.3l0.7,1.5l0.8-1.7l1.9-0.2l-1.3-1.3
	l0.4-1.9l-1.7,0.8l-1.6-0.9l0.3,1.8l-1.4,1.3L173,28l0,0l-6.5,10.7l-2.3,1l-2.5-1.4l0.4,2.8l-2.2,2.1l1.6,0.3l-9.4,4.7l0.4-0.5
	l-3-0.1l-1.7-2.4l-0.9,2.7L144,49l2.3,1.6l-30.5,12.9l0.4-2.1l-2.3,1.1l-2.2-1.2l0.4,2.4l-1.8,1.8l1.8,0.3l-8.9,7.9h-1.3l-1.7-2.4
	L99.3,74l-2.9,0.9l2.4,1.7v0.3L92.7,81l-2.8,1l-0.8-4.7l-2.9,3.5l-4.3-2.5l0.9,4.8l-4.3,2l4.1,2l-1.7,4.1l3.6-1l1.6,3.3l1.7-3.4
	l0.9,0.4l7.9,21.5l-0.5,1.6l-4.3,1.3l3.5,2.5l-0.1,4.5l3.4-2.7l4.2,1.6l-0.8-2.2l6.4,3.4l-0.7,0.2l1.8,1.3l-0.1,2.3l1.7-1.4l2.1,0.8
	l-0.7-2.1l1.4-1.8h-0.6l12.3-8.7l-0.1,2.2l2.3-1.8l2.9,1.1l-1-2.8l1.9-2.4h-0.8l14.9-9.7l1.1,0.1l1.6,2.6l1-2.8l3-0.6l-2.3-1.9l0,0
	l31.4-16.9l-1.1,2.6l2.8-0.7l1.2,2.5l1.3-2.6l2.8,1.2l-0.7-2.6l16.9,11.5l-2.2,2.1l2.9,0.5l1.2,2.8l1.3-2.7l3-0.3L209,91.6z
	 M150.2,96.1l0.3-2.7l-2.6,1.6l-2.7-1.1l0.7,2.8l-2,2.3l1.5,0.1l-14.9,9.7h-1.8l-1.7-2.4l-0.9,2.7l-2.9,0.9l2.4,1.7v0.5l-12.7,9
	h-1.3l-1.2-1.8l-0.6,2.1l-1.2,0.4l-6.8-3.6l-0.6-1.6l2.7-3.5l-4.4-0.1l-2.4-3.5l-0.7,2.1l-7.7-21l2.5,1L90.3,88l4.3-0.5L92,84.8
	l1.6-4.1h-0.1l5.2-3.3l-0.1,2.5l2.3-1.8l2.9,1.1l-1-2.8l1.9-2.4h-1.4l8.9-7.8l0.5,0.1l1.1,2.4l1-2.3l2.6-0.3l-1.9-1.8v-0.2l30.6-13
	l-0.1,3l2.3-1.9l2.9,1.1l-1-2.8l1.2-1.5l10.1-5.1l0.9,0.2l1.3,2.8l1.3-2.7h0.3l7.7,9.1l0.1,0.5l-1.4,1.3l1.9,0.3l0.8,1.8l0.8-1.5
	l8.9,18.7l-3-1.8L182,76l-3.3,1.5l3.1,1.5l-0.1,0.2L150.2,96.1z"/>
</svg>
