<?xml version="1.0" encoding="utf-8"?>
<!-- Generator: Adobe Illustrator 26.0.3, SVG Export Plug-In . SVG Version: 6.00 Build 0)  -->
<svg version="1.0" id="Слой_1" xmlns="http://www.w3.org/2000/svg" xmlns:xlink="http://www.w3.org/1999/xlink" x="0px" y="0px"
	 viewBox="0 0 239.5 150.2" style="enable-background:new 0 0 239.5 150.2;" xml:space="preserve">
<g>
	<path d="M195.1,129.9c0.1,0,0.4,0.1,0.5,0.1c0.4,0.1,0.7,0.1,1.1,0.1c0.9,0,1.7,0.1,2.5,0.1s3.6,0.1,3.7,0.1c0.1,0,0.1,0,0.1,0
		c0.4,0,0.7-0.1,1-0.4c0.2-0.1,0.3-0.3,0.3-0.5c0.1-0.7-0.1-1.4,0-2.1c0.1-0.8,0.5-1.5,0.9-2.1c0.9-1.3,2.3-2.1,3.9-2.3
		c1.6,0.1,2.9,1,3.9,2.3c0.4,0.6,0.7,1.2,0.9,1.9c0.2,0.8-0.1,1.5,0.1,2.3c0,0.2,0.2,0.4,0.3,0.5c0.3,0.3,0.6,0.4,1,0.4
		c0,0,0,0,0.1,0s0.2,0,0.3,0c0.3,0,5-0.1,5.9-0.1c0.4,0,0.7,0,1.1-0.1c0.1,0,0.2,0,0.3,0s0.6-0.2,0.2-0.1c0.8-0.3,0.8-1.3,0-1.6
		c-0.1,0-0.4-0.1-0.5-0.1c-0.4-0.1-0.8-0.1-1.2-0.1c-0.9-0.1-1.8-0.1-2.7-0.1c-0.8,0-1.6,0-2.3,0c0-0.4,0-0.9-0.1-1.3
		c-0.2-1-0.7-2-1.3-2.9c-1.3-1.9-3.2-3.1-5.5-3.3c-0.1,0-0.2-0.1-0.4,0c-0.1,0-0.2,0-0.4,0c-2.3,0.3-4.1,1.4-5.5,3.3
		c-0.6,0.8-1.1,1.9-1.3,2.9c-0.1,0.4-0.1,0.8-0.1,1.3c-0.7,0-1.5,0-2.2,0c-0.9,0-1.8,0-2.7,0.1c-0.4,0-0.8,0-1.2,0.1
		c-0.1,0-0.2,0-0.3,0.1c-0.1,0-0.6,0.2-0.2,0.1C194.4,128.6,194.3,129.6,195.1,129.9z M202.5,130.1
		C202.5,130.2,202.5,130.2,202.5,130.1C202.5,130.2,202.5,130.1,202.5,130.1z"/>
	<path d="M195.1,129.9L195.1,129.9C195,129.9,195,129.9,195.1,129.9z"/>
	<path d="M223,128.3L223,128.3C223.1,128.3,223.2,128.3,223,128.3z"/>
	<path d="M222.1,131.9c-2.7,0-5.4,0.2-8,0.3c-4.5,0.2-15.7,0.5-16.8,0.6c-0.8,0-1.5,0.1-2.2,0.3c-0.8,0.3-0.9,1.5,0,1.7
		c1.2,0.4,2.7,0.2,3.9,0.2c2.1,0,21.9-0.4,23.1-0.4C223.8,134.5,223.8,131.9,222.1,131.9z"/>
</g>
<path d="M171.8,54.8l-4.2,1.3l-0.7-5.1l-3.3,3.7l-4.5-2.9l0.5,3.9l-31.3-25.4l3.3-0.6l-3-2.8l0.5-3.9l-3.4,2l-3.8-1.7l0.9,4l-2.9,3
	l4.1,0.2l0.3,0.5l-6.8,16l-0.5,0.3l-1.7-0.8l0.4,1.8l-1.3,1.3h0.3l-9.3,4.9l0.3-0.8l-1.7,0.5l-1.4-1.2v1.6L85.7,40.5h0.5l-1-1.5
	l0.7-1.7l-1.7,0.5l-1.4-1.2v1.8l-1.6,0.9l1.7,0.6l0.4,1.8l1.2-1.4l0.7,0.1l17.1,14.4l-1.5,0.8l1.7,0.6l0.4,1.8l1.2-1.4l1.8,0.1
	l-1-1.5l0.2-0.5l10-5.3l1,0.1l0.9,1.6l0.7-1.7l1.8-0.3l-1.3-1.2l0.2-1.7l-0.6,0.3l6.6-15.5l1.5,2.9l0.9-2.1l23.4,61.8l-1.2-0.5
	l0.9,4l-2.9,3h0.2l-17.6,9.2l0.3-2.4l-2.2,1.3l-2.5-1.1l0.6,2.6l-1.9,2l2.7,0.2l0.3,0.7l-3.7,17.9l-0.4,0.2l-2.5-1.1l0.6,2.6l-1.9,2
	l2.7,0.2l1.3,2.4l1-2.5l2.7-0.5l-1.9-1.8l0.3-2.6l-1.5,0.9l3.5-17.3l0.7,1.4l1-2.5l2.7-0.5l-1.8-1.7l18-9.5l3.3,0.2l1.9,3.7l1.6-3.8
	l4.1-0.7l-3-2.8l0.5-4l-2.3,1.3l8.4-27.4l0.6,1.3l2-3.6l3.9,1.8l-0.9-4l4.6-0.3l-2.7-3L171.8,54.8z M153.6,94.5l-0.8,0.4l-2.2-1
	L127,31.6l0.5-1.3l0.5-0.1l31.7,25.7l0.1,1l-4.7,2l4.4,2.3l-2,4.4l3.9-0.9l0.8,1.9L153.6,94.5z"/>
</svg>
