<?xml version="1.0" encoding="utf-8"?>
<!-- Generator: Adobe Illustrator 26.0.3, SVG Export Plug-In . SVG Version: 6.00 Build 0)  -->
<svg version="1.0" id="Слой_1" xmlns="http://www.w3.org/2000/svg" xmlns:xlink="http://www.w3.org/1999/xlink" x="0px" y="0px"
	 viewBox="0 0 239.5 150.2" style="enable-background:new 0 0 239.5 150.2;" xml:space="preserve">
<path d="M218.3,138.5c0.1-0.9-0.6-1.9-0.8-2.7c-0.3-0.9-0.5-1.9-0.7-2.8c-0.3-1.4-0.4-2.9-0.5-4.4c0.3,0,0.6,0,0.9,0
	c0.3,0,0.6,0,0.8,0.1c0,0,0.6,0.1,0.4,0c1.7,0.4,2.4-2.2,0.7-2.6c-0.5-0.1-1-0.1-1.5-0.1c-0.4,0-0.8,0-1.3-0.1
	c0.1-1.7,0.2-3.4,0.5-5.1c0.2-1,0.4-2,0.7-3s0.6-2,0.7-3c0.1-0.6-0.6-1.1-1.1-0.6c-0.8,0.7-1.1,1.7-1.5,2.7s-0.8,2.1-1.1,3.1
	c-0.6,1.9-0.8,3.9-0.9,5.8c-0.6,0-1.2,0-1.9,0c-0.3,0-0.6,0-0.9,0c-0.1-1.9-0.4-3.8-0.9-5.6c-0.3-1-0.7-2.1-1.1-3.1
	c-0.4-1-0.8-2.1-1.6-2.9c-0.5-0.5-1.2,0-1.1,0.7c0.2,0.9,0.5,1.9,0.7,2.8c0.3,1,0.5,2,0.8,3c0.4,1.7,0.5,3.5,0.6,5.3c0,0,0,0-0.1,0
	c-0.6,0-1.2,0.2-1.8,0.3c-0.3,0.1-0.6,0.1-1,0.2c-0.5-0.2-1-0.1-1.3,0.4s0.1,1.2,0.5,1.5c0.4,0.2,1,0.3,1.5,0.2
	c0.6-0.1,1.2,0,1.8-0.1c0.1,0,0.3,0,0.4,0c0,1.5-0.1,2.9-0.3,4.4c-0.2,1-0.4,1.9-0.7,2.9c-0.1,0.4-0.3,0.9-0.5,1.3
	c-0.2,0.5-0.5,1-0.4,1.6c0.1,0.9,1,1.4,1.8,1c1-0.5,1.4-1.8,1.7-2.8s0.6-2,0.8-3c0.3-1.8,0.4-3.6,0.4-5.4c0.2,0,0.3,0,0.5,0
	c0.7,0,1.3,0,2,0.1c0,1.7,0.2,3.4,0.4,5.1c0.2,1,0.5,2,0.8,3s0.7,2.5,1.8,3C217.3,140,218.2,139.4,218.3,138.5z"/>
<g>
	<polygon points="178.7,113.8 180.7,110.3 177,111 175.6,107.1 173.6,110.6 170.6,109.8 158.1,97.7 159.3,97.6 158.2,96.5 158.5,95 
		157.1,95.7 155.8,95 143.8,80.4 146.8,80 144.7,77.9 145.2,74.9 142.5,76.2 139.8,74.7 139.9,75.3 137.1,71.8 138.6,71.6 
		137.5,70.5 137.8,69 136.4,69.6 134.5,55.8 134.7,55.3 136.9,56.8 136.7,54.5 139.1,53.2 136.8,52.3 138.2,49.8 135.5,50.3 
		134.5,47.4 134.2,48 134.3,43.2 134.8,42.2 136.3,42 135.3,40.9 135.5,39.4 134.2,40.1 132.8,39.3 133.1,40.8 131.9,41.9 
		133.4,42.1 134.1,43.5 134,48.3 133,50 130.3,49.2 131.4,51.7 129,53 131,53.9 130.4,56.1 132.6,55.2 133.7,57.4 134.3,56.1 
		136.2,69.5 135,68.9 135.3,70.4 134.1,71.5 135.7,71.7 136.3,73.1 137,72 140,75.8 140.3,77.7 138,79.8 141,80.3 142.3,83.1 
		143.7,80.6 155.8,95.2 156,96.4 154.8,97.5 156.4,97.7 157,99.2 157.8,97.8 157.8,97.8 170.2,109.6 169.8,109.5 171.4,113 
		170.1,113.6 147.7,109.7 147,109 147.3,107.5 145.9,108.2 144.5,107.4 144.8,108.9 144.7,109 133.3,107 134.7,105.9 131.4,105.2 
		132.8,101.5 129.3,102.8 127.3,99.2 125.9,103 122,102.5 124.1,105.6 123.4,106.1 113.3,106.3 113.1,106.2 113.4,104.6 112,105.3 
		110.6,104.6 110.9,106.1 109.7,107.2 111.2,107.4 106.2,112.9 106.2,112.4 104.9,113.1 103.5,112.3 103.8,113.8 103.7,113.8 
		88.5,105.6 90.2,105.4 88.1,103.3 88.7,100.2 86,101.6 83.2,100.1 83.8,103.1 81.5,105.2 84.5,105.7 85.8,108.5 87.3,105.8 
		88.1,105.7 103.6,114 102.6,114.9 104.1,115.1 104.8,116.6 105.5,115.2 107,115 106,113.9 106.1,113.3 111.3,107.5 112,108.8 
		112.7,107.5 114.2,107.3 113.5,106.5 123.1,106.4 121.1,107.8 124,108.7 123.8,111.7 126.4,110 128.4,112.7 129.3,109.7 
		132.5,111.2 131.8,108.2 133.1,107.1 144.5,109.2 143.6,110 145.2,110.2 145.8,111.6 146.6,110.3 148.1,110.1 148,110 169.8,113.8 
		168.1,114.6 170.9,116 170.1,118.9 173,117.7 174.5,120.6 175.9,117.8 178.8,119.8 178.6,116.7 181.8,115 	"/>
	<polygon points="122.1,27 121.3,29.9 124.2,28.7 125.7,31.7 127.1,28.9 130,30.9 129.8,27.8 133,26 129.9,24.8 131.9,21.4 
		128.2,22 126.8,18.2 124.8,21.7 121,20.6 122.6,24 119.3,25.7 	"/>
	<polygon points="144.3,25.2 145.1,23.8 146.6,23.6 145.5,22.6 145.8,21 144.4,21.7 143,20.9 143.3,22.5 142.1,23.5 143.7,23.7 	"/>
	<polygon points="143.4,44.7 144.2,43.3 145.7,43.1 144.6,42.1 144.9,40.5 143.5,41.2 142.1,40.4 142.4,42 141.2,43 142.8,43.3 	"/>
	<polygon points="129.7,38.3 128.8,37.8 129,38.8 128.2,39.5 129.2,39.6 129.6,40.6 130.1,39.7 131.1,39.6 130.4,38.9 130.6,37.8 	
		"/>
	<polygon points="145.4,31.9 146.7,33.9 145.7,36 148,35.5 149.7,37.1 150,34.7 151.9,33.6 149.8,32.8 149.3,30.4 147.8,32.2 	"/>
	<polygon points="133.7,22.5 134.4,21.1 135.9,20.9 134.9,19.9 135.1,18.3 133.8,19 132.4,18.2 132.7,19.8 131.5,20.8 133,21 	"/>
</g>
</svg>
