<?xml version="1.0" encoding="utf-8"?>
<!-- Generator: Adobe Illustrator 26.0.3, SVG Export Plug-In . SVG Version: 6.00 Build 0)  -->
<svg version="1.0" id="Слой_1" xmlns="http://www.w3.org/2000/svg" xmlns:xlink="http://www.w3.org/1999/xlink" x="0px" y="0px"
	 viewBox="0 0 239.5 150.2" style="enable-background:new 0 0 239.5 150.2;" xml:space="preserve">
<path d="M201.8,135.4c0.1-3.4,0.3-6.6,0.3-10c0-0.4,0-0.8,0-1.2c0.6-0.6,1.1-1.3,1.6-1.9c0.4-0.5,0.8-1,1.2-1.4
	c0.2-0.2,0.6-0.7,0.9-0.5c1.1,0.5,1.1,1.9,1.2,2.9c0,0.7,0.1,1.4,0.1,2.2c0,0.8,0,1.5-0.1,2.3c-0.1,1.5-0.1,3.1-0.1,4.6
	c0,1.4-0.1,2.8-0.1,4.2c0,0.5,0.3,1,0.8,1.2c0.6,0.2,1.4-0.1,1.5-0.8c0.3-1.7,0.2-3.4,0.2-5.1c0-0.8,0-1.6,0-2.4
	c0-1.4,0.2-2.8,0.1-4.2c0-0.7-0.1-1.4-0.1-2.1c0.6-0.9,1.1-1.9,2.3-2.2c0.4-0.1,0.9,0.1,1.2,0.3c0.4,0.2,0.6,0.5,0.8,0.9
	c0.4,0.8,0.6,1.9,0.7,2.7c0.1,1.5,0,3,0,4.5c0,1.8-0.1,3.6-0.1,5.4c0,1.5,0.1,3.1,0.9,4.4c0.9,1.5,2.5,1.9,4.1,1.5
	c0.8-0.2,1.4-0.5,1.9-1c0.2,0.9,1.6,1,1.9,0c0.3-0.8,0.2-1.6,0.2-2.5c-0.1-0.8-0.1-1.6-0.9-2c-0.6-0.2-1.2-0.1-1.7,0.1
	c-0.6,0.2-1.3,0.3-1.8,0.7c-0.4,0.2-0.6,0.9-0.2,1.2c0.4,0.4,0.9,0.4,1.3,0.3c-0.5,0.5-1.2,1-1.9,0.8c-1.2-0.2-1.2-2.1-1.2-3
	c-0.1-3.4,0.3-6.8,0.1-10.2c-0.1-2.3-0.7-5-2.9-6.1c-1.4-0.7-3-0.7-4.3,0.1c-0.4,0.2-0.7,0.5-1,0.8c-0.6-1.1-1.7-2-3-2
	c-1.5,0.1-2.6,1.5-3.4,2.7c-0.1,0.1-0.2,0.2-0.3,0.3c0-0.5,0-0.9-0.1-1.4c-0.1-0.7-0.1-1.3-0.4-1.9c-0.4-1.2-1.3-1.5-2.6-1.3
	c-1.7,0.2-3,1.9-3.2,3.6c-0.1,1.1,1.4,1.4,1.9,0.6c0.3-0.4,0.5-0.9,0.9-1.2c0.1-0.1,0.3-0.3,0.5-0.3c0,0.1,0,0.2,0,0.3
	c0,0.2,0.1,0.7,0.1,0.8c0,0.5,0.1,0.9,0.1,1.4c0.1,1,0.1,2.1,0.1,3.1c0.1,3.6-0.1,7.1-0.1,10.7c0,0.1,0,0.1,0,0.1
	C199.3,137,201.8,137.1,201.8,135.4z"/>
<polygon points="111.5,128 109.2,130.6 108.6,127.7 105.8,127.7 107.6,125.4 105.3,123.3 107.3,122.9 95.2,116.6 95,116.7 
	94.3,118.4 93.5,116.8 91.6,116.8 92.8,115.4 92.3,113.7 93.2,114 89.6,102 88.6,103.1 88.3,100.8 86.1,99.8 88.1,98.6 88.4,96.3 
	89.8,97.7 96.3,79.8 94,79.7 95.5,77.9 94.9,75.6 97.1,76.4 99,75.2 99,75.6 106.9,66.6 105.3,66.5 106.9,64.7 106.2,62.4 
	108.4,63.3 110.4,62 110.2,64.3 112,65.8 111.1,66 122,71.1 124,70.6 125.4,67.2 127.2,70.4 131,70.7 128.6,73.3 145,78 144.5,76.4 
	146.4,77.1 147.9,76.1 147.8,77.6 158.2,72.4 159.8,70.3 156.9,67.6 160.6,66.9 159.1,62.8 162.7,64 165.8,60.8 166.2,64.9 
	168.6,64.2 171.5,61.1 170,60.4 171.5,59.7 171.7,57.9 172.9,59.1 173.1,59.1 181.8,44.6 181.2,41.6 177.6,41.6 179.9,38.6 
	177.8,36.7 169.1,35.9 166.9,36.9 166.3,40.1 164.3,37.7 161.1,38.2 162.7,35.5 162.1,34.2 154.4,30.7 154.4,32.6 152.9,31.4 
	151.1,32.1 151.7,30.3 150.5,28.8 152.4,28.7 153.5,27.2 154,29 155.9,29.5 154.7,30.4 161.8,33.7 161.3,32.6 164.4,33.1 166.6,31 
	166.9,34.1 169.7,35.6 177.4,36.3 176.9,35.9 180.6,35.1 179.2,31 182.8,32.3 185.8,29.1 186.3,33.1 191,31.8 189,36 193.2,38.8 
	188.4,40.1 188.4,42.2 197,52.4 198.2,52.8 199.8,51.8 199.6,53.7 201.1,54.9 199.3,55.4 198.6,57.2 197.6,55.5 195.7,55.5 
	196.9,54 196.4,52.3 188.4,42.8 188.5,44.9 184.9,42 181.9,45.3 181.9,45.2 173.6,59 174.6,58.8 173.8,60.2 174.6,61.8 173,61.5 
	171.8,62.8 171.6,61.6 169.3,64 170.9,63.6 169,67.8 173.1,70.6 168.3,71.9 168.4,76.6 164.9,73.7 161.9,77.1 161.2,73.4 
	157.5,73.4 157.7,73.1 147.9,78 149.3,79.2 147.4,79.6 146.7,81.5 145.8,79.8 143.8,79.7 145,78.4 128.5,73.7 129.4,77.2 126,75.5 
	122.8,77.6 123.3,73.9 120.3,71.5 121.4,71.2 110.5,66.2 109.8,66.4 108.9,68.6 107.7,66.6 107.4,66.6 98.9,76.2 98.8,77.4 
	100.7,79 98.4,79.5 97.6,81.8 96.6,80.1 90.1,97.9 92.4,97.5 91.4,99.6 92.5,101.7 90.2,101.3 89.9,101.6 93.6,114.2 94,114.3 
	95.5,113.3 95.3,115.1 96.7,116.2 95.8,116.5 107.9,122.8 108.2,122.7 107,119.6 109.8,120.5 112.2,118.1 112.5,121.2 116.1,120.2 
	115.6,121.4 125.5,115.6 123.1,114.3 125.7,113.3 126.2,110.6 128.1,112.6 130.7,112.3 129.3,114.5 130.5,117.1 127.8,116.5 
	125.8,118.4 125.6,116 115.3,122 114.6,123.4 117.8,125.6 114.2,126.6 114.2,130.2 "/>
</svg>
