<?xml version="1.0" encoding="utf-8"?>
<!-- Generator: Adobe Illustrator 26.0.3, SVG Export Plug-In . SVG Version: 6.00 Build 0)  -->
<svg version="1.0" id="Слой_1" xmlns="http://www.w3.org/2000/svg" xmlns:xlink="http://www.w3.org/1999/xlink" x="0px" y="0px"
	 viewBox="0 0 239.5 150.2" style="enable-background:new 0 0 239.5 150.2;" xml:space="preserve">
<path d="M196.9,118.5c-0.2,1.2,1.4,1.5,2,0.7c0.4-0.6,1-1.4,1.6-1.6c0,0.1,0,0.1,0,0.2c0.1,0.4,0.1,0.7,0.1,1.1c0,0.2,0,0.4,0,0.7
	c0,0,0,0.3,0,0.2c0,0.1,0,0.2,0,0.2c0,1.1,0.1,2.2,0.1,3.2c0,3.4-0.1,6.8-0.3,10.2c-0.1,0.4,0,0.9,0.3,1.3c0,0,0,0,0,0.1v-0.1
	c0.7,0.9,2.3,0.8,2.4-0.6c0.4-3.7,0.4-7.5,0.5-11.2c0-0.5,0-1,0-1.6c0.4-0.7,0.9-1.4,1.6-1.9c0.9-0.6,1.4-0.1,1.8,0.7
	c0.9,1.6,1,3.7,0.9,5.2c0,2.9-0.2,5.8-0.6,8.6c-0.1,0.7,0.6,1.4,1.3,1.5c0.8,0.1,1.4-0.5,1.5-1.3c0.2-1.6,0.3-3.3,0.4-4.9
	c0.1-1.8,0.2-3.7,0.1-5.5c0-0.4-0.1-0.8-0.1-1.3c0.5-1,1.2-2.1,2.2-2.7c0.4-0.2,0.9-0.5,1.3-0.2c0.4,0.3,0.5,1.1,0.6,1.5
	c0.3,1.4,0.2,2.9,0.2,4.4s-0.1,3.1-0.2,4.6c-0.1,1.7,0.5,3.4,1.2,4.9c0,0.1,0.1,0.1,0.1,0.2c-1.3,1.1-3,1.9-4.4,2.9
	c-0.7,0.5-0.7,1.5-0.2,2.1s1.4,0.6,2.1,0.2c1-0.8,2.1-1.4,3.2-2.1c0.4-0.2,0.7-0.5,1-0.8c0.9,1,2.1,1.7,3.3,2.2c1.7,0.7,2.7-2,1-2.7
	c-0.9-0.4-1.7-0.9-2.3-1.6l0.1-0.1c1.4-1.8,2.8-4,2.8-6.4c0-1.6-0.6-3.2-2.2-3.7c-0.8-0.3-1.8-0.3-2.6,0c0-1.2,0-2.5-0.1-3.7
	c-0.2-1.6-0.7-3.4-2.1-4.3c-1.5-1.1-3.5-0.4-4.9,0.7c-0.4,0.3-0.8,0.7-1.1,1.2c-0.5-1-1.3-1.9-2.4-2.4c-1.3-0.6-2.7,0.1-3.8,0.9
	c0-0.2-0.1-0.5-0.1-0.7c-0.1-0.7-0.4-1.5-1-1.9c-1.6-1-3.5,0-4.5,1.2C197.3,117,197,117.7,196.9,118.5z M218.2,128.3l0.3-0.2
	c-0.1,0.1,0.2,0,0.2,0c0.1,0,0.3,0,0.3,0c0.1,0,0.2,0,0.3,0l0.3,0.1l0,0c0,0,0,0,0.1,0.1c0,0.1,0.1,0.2,0.1,0.3l0,0c0,0,0,0,0,0.1
	s0.1,0.3,0.1,0.4v0.1c0,0,0,0,0,0.1c0,0.3,0,0.6-0.1,0.9l-0.1,0.3c-0.1,0.2-0.1,0.4-0.2,0.6c-0.1,0.4-0.3,0.7-0.5,1.1
	c-0.3,0.5-0.6,0.9-0.9,1.3c-0.1-0.1-0.1-0.3-0.2-0.4c-0.1-0.2-0.1-0.3-0.1-0.4c-0.1-0.2-0.1-0.4-0.2-0.6c-0.1-0.3-0.1-0.6-0.1-0.9
	c0-0.1,0-0.2,0-0.2c0-0.3,0-0.6,0.1-0.9c0-0.2,0-0.5,0-0.7C217.8,128.7,218,128.5,218.2,128.3z"/>
<path d="M158.3,43.1l-1.9,1.5l-2.4-0.7l1,2.1l-1.5,2l2.4-0.1l-10.3,15.8l-0.6-1.9l-1.5,2.1l-2.7-0.1l1.4,1.8l-14.5-1.1l-1.1-0.7
	l-0.1-1.9l-1.4,1.1l-0.5-0.2l-3.3-7.2l0.2-0.6l1.7-0.6l-1.5-1l-0.1-1.9l-1.4,1.1l-1.1-0.3l-5.7-6.3l0.1-0.2l1.7-0.6l-1.5-1l-0.1-1.9
	l-1.4,1.1l-1.8-0.6l0.4,0.9l-16.3-9.2l-1.8-2.6l2.5-2.4l-3.4-0.3l-0.5-3.3l-2.1,2.4l-2.4-2v2.6l-2.5,0.4l2,1.8l-1.7,2.2l2.6,0.1
	l-0.5,3l2.3-1.3l2.5,1.8l-0.2-2.8l2.8,0.3l17,9.6l0.2,0.5l-1.1,1.5l1.9-0.1l1.1,1.5l0.4-1.3l5.3,5.9l-0.3-0.1l0.7,1.7l-1.1,1.5
	l1.9-0.1l1.1,1.5l0.3-0.8l3.1,6.8l-1-0.3l0.7,1.7l-1.1,1.5l1.8-0.1l-5.8,23l-0.7,0.8l-2.3-1.9v2.5l-0.7,0.1L96.9,77.4l-0.2-0.7
	l1.2-1.4L96,75.2l-0.5-0.8l0.7-4.1l1.1,1.5l0.8-2.5l2.4-0.8l-2.2-1.4l-0.1-2.7L96.1,66l-2.4-1l0.8,2l-11.3-4v-0.1l1.2-1.4l-1.9-0.1
	l-1-1.7L81,61.5l-1.9,0.4l1.5,1.2L80.3,65l1.6-1l1.7,0.7l-0.4-1.4l11.4,3.9l0.1,0.2l-1.6,2.2l2.7-0.2l0.3,0.4L95.4,74l-0.3-0.5
	l-0.6,1.8l-1.9,0.4l1.5,1.2l-0.2,1.9l1.6-1l1.7,0.7L97,77.7l17.9,12.5l-1.4,0.2l1.9,1.7l-1.6,2.1l2.5,0.1l-0.5,2.8l2.2-1.2l2.4,1.7
	l-0.2-2.7l3.2,0.3l-1.7-2.5l2.4-2.3l-2.2-0.2l9.7-6.6l1-0.1l1.1,1.5l0.5-1.8l1.7-0.6l-0.2-0.2l15.9,0.1l-0.8,1.1l1.9-0.1l1.1,1.5
	l0.5-1.6l9.2,7.2l0.2,1l-2.3,2.2l3.1,0.4l1.3,2.9l1.4-2.8l3.1-0.4l-1.3-1.4l19.6-0.5l-1.7,2.2l3.1,0.1l-0.6,3.5l2.8-1.5l2.9,2.2
	l-0.2-3.4l4,0.4l-2.1-3.1l3-2.9l-4.1-0.4l-0.6-3.9l-2.5,2.9l-2.9-2.3v3.1l-3,0.5l2.3,2.2l-0.2,0.2l-20,0.5l-0.6-0.7l0.6-3l-2.7,1.4
	l-2.8-1.5l0.3,1.7l-9.1-7.1l1.7-0.6l-1.5-1l-0.1-1.9l-1.4,1.1l-0.7-0.2l-6.3-12l0.1-2.4l2.1-1.5l-2.4-0.8l-0.1-0.4L156,48l1.3,1.8
	l0.7-2.3l2.2-0.8l-1.9-1.3V43.1z M151.2,80.6l0.7,1.7l-0.2,0.3l-16.4-0.1l-0.9-0.6l-0.1-1.9l-1.5,1.2l-1.8-0.6l0.7,1.7l-1.1,1.5h0.4
	l-9.6,6.5l-0.7-0.1l-0.5-3.1l-1,1.1l5.6-22.4l1,1.3l0.5-1.8l1.7-0.6h-0.1l14.3,1.1l0.1,0.1l-1,2.5l2.5-0.9l1.9,1.5l6.2,11.8
	L151.2,80.6z"/>
</svg>
