<?xml version="1.0" encoding="utf-8"?>
<!-- Generator: Adobe Illustrator 26.0.3, SVG Export Plug-In . SVG Version: 6.00 Build 0)  -->
<svg version="1.1"
	 id="Слой_1" image-rendering="optimizeQuality" text-rendering="geometricPrecision" shape-rendering="geometricPrecision" xmlns:xodm="http://www.corel.com/coreldraw/odm/2003"
	 xmlns="http://www.w3.org/2000/svg" xmlns:xlink="http://www.w3.org/1999/xlink" x="0px" y="0px" viewBox="0 0 238.1 150.2"
	 style="enable-background:new 0 0 238.1 150.2;" xml:space="preserve">
<g>
	<path d="M154.8,53.5"/>
	<path d="M152.1,58.7l0.2,0c0,0.1-0.1,0.4-0.1,0.5l-0.2-0.1C152,59,152.1,58.8,152.1,58.7z"/>
	<path d="M148.9,63.6"/>
	<path d="M144.9,64.1c0,0,0.1-0.1,0.2-0.2C145,63.9,144.9,64,144.9,64.1z"/>
	<path d="M187.2,65.4c0,0,0.1-0.1,0.1-0.1C187.3,65.3,187.2,65.4,187.2,65.4z"/>
	<path d="M187,66c0,0,0.1-0.1,0.1-0.2C187.1,65.9,187.1,66,187,66z"/>
	<path d="M186.5,66.5c0.1-0.1,0.3-0.2,0.4-0.2l-0.1,0.2L186.5,66.5z"/>
	<path d="M187.4,68.1c0,0,0.1-0.2,0.2-0.2C187.5,68,187.4,68.1,187.4,68.1z"/>
	<path d="M189.1,67.8"/>
	<path d="M187.2,68.3c0.1-0.1,0.2-0.2,0.2-0.2C187.3,68.2,187.2,68.3,187.2,68.3z"/>
	<polygon points="187,68.4 187.2,68.3 187.1,68.5 186.9,68.5 	"/>
	<path d="M186,68.7l0.2,0c-0.1,0-0.2,0.1-0.2,0.1L186,68.7z"/>
	<path d="M185.7,69c0.1,0,0.2-0.1,0.2-0.1l-0.1,0.1L185.7,69z"/>
	<path d="M184.5,69.5c0.1,0,0.2,0,0.2,0l-0.1,0.1L184.5,69.5z"/>
	<path d="M185.3,70.4l0.1,0c-0.1,0-0.2,0-0.2,0.1L185.3,70.4z"/>
	<path d="M184,71.9l0.1,0c-0.1,0-0.2,0.1-0.2,0.1L184,71.9z"/>
	<path d="M133.6,72.3"/>
	<path d="M183.7,72.2c0,0,0.2-0.1,0.2-0.2l0,0.2L183.7,72.2z"/>
	<path d="M179.7,72.8c0,0,0.1-0.1,0.2-0.2C179.8,72.6,179.7,72.7,179.7,72.8z"/>
	<path d="M179.5,73c0.1,0,0.2-0.1,0.2-0.2C179.6,72.8,179.5,72.9,179.5,73z"/>
	<path d="M185.7,72.9c0,0,0.1-0.1,0.1-0.1C185.8,72.8,185.7,72.9,185.7,72.9z"/>
	<path d="M167.7,73.3"/>
	<path d="M186.2,73.7"/>
	<path d="M185.2,74C185.3,74,185.3,74,185.2,74C185.3,74,185.3,74,185.2,74z"/>
	<path d="M178.3,74.2c0,0,0.1-0.1,0.1-0.2l0,0.2L178.3,74.2z"/>
	<path d="M115,74.3l0.1,0c0,0-0.1,0.1-0.1,0.2L115,74.3z"/>
	<path d="M184.4,74.5c0,0,0.1-0.1,0.2-0.2C184.5,74.4,184.4,74.4,184.4,74.5z"/>
	<path d="M150.4,74.6l0.2,0c0,0.1,0,0.3,0,0.4l-0.2,0C150.3,74.9,150.4,74.7,150.4,74.6z"/>
	<path d="M184.2,74.8c0-0.1,0.1-0.3,0.2-0.4C184.3,74.6,184.2,74.8,184.2,74.8z"/>
	<path d="M185,74.7c0,0,0.1-0.1,0.1-0.2C185,74.6,185,74.7,185,74.7z"/>
	<path d="M114.3,75.3c0.1,0,0.3,0,0.4-0.1c-0.1,0.1-0.4,0.2-0.5,0.2L114.3,75.3z"/>
	<path d="M169.2,76.1"/>
	<path d="M117,76.4l0.2,0c-0.1,0-0.2,0.1-0.3,0.1L117,76.4z"/>
	<path d="M117.5,76.7"/>
	<path d="M117.5,76.7"/>
	<path d="M193.4,77c0.3,0.1,0.3,0.7,0.2,1C193.2,78,193.3,77.3,193.4,77z"/>
	<path d="M113.5,78.2c0.1-0.1,0.2-0.2,0.3-0.2L114,78c-0.1,0.1-0.2,0.2-0.3,0.2L113.5,78.2z"/>
	<path d="M154.8,78.5"/>
	<path d="M145.8,80.5"/>
	<path d="M153.9,81.8l0.2,0c-0.1,0-0.2,0.1-0.3,0.1L153.9,81.8z"/>
	<path d="M152.8,83.2c0-0.1,0.1-0.2,0.2-0.2C153,83,152.9,83.1,152.8,83.2z"/>
	<path d="M152.6,83.4c0.1,0,0.2-0.2,0.2-0.2C152.8,83.3,152.7,83.4,152.6,83.4z"/>
	<path d="M149.9,84.1c0,0,0.1-0.1,0.2-0.1l-0.1,0.1L149.9,84.1z"/>
	<path d="M146.9,85.2c0.1-0.1,0.2-0.2,0.3-0.2C147.1,85,147,85.1,146.9,85.2z"/>
	<path d="M146.6,85.4c0.1-0.1,0.2-0.2,0.3-0.2C146.8,85.2,146.7,85.4,146.6,85.4z"/>
	<path d="M95.8,86.1c0.1-0.1,0.3-0.2,0.4-0.3c-0.1,0.1-0.2,0.3-0.3,0.4L95.8,86.1z"/>
	<path d="M100.5,87.1c0-0.1,0.1-0.2,0.1-0.3C100.7,86.9,100.6,87,100.5,87.1z"/>
	<path d="M84.9,91.4c0.1,0,0.3,0,0.4,0c-0.1,0-0.4,0.1-0.5,0.2L84.9,91.4z"/>
	<path d="M83.9,41.4c0.1,0,0.2,0.1,0.3,0.1c0,1.6,0.1,3.2,0.1,4.8c-0.1,3.5,0,6.9,0,10.4c-0.2,2.1,0,4.1-0.1,6.2
		c0,2.9,0,5.8,0.1,8.7c0.3,1.5,0.1,3,0.3,4.4c0.1,2.3-0.1,4.6,0,6.9c-0.4,1.9,0.1,3.9-0.1,5.8c-0.1,0-0.3-0.1-0.4-0.2
		c0.1-1.8-0.1-3.5,0.2-5.3c-0.1-1.1-0.1-2.2,0-3.2c0-2.1,0.1-4.1-0.2-6.2c-0.1-1.5,0-3.1-0.2-4.6c-0.2-2.5,0-5,0-7.5
		c0-1.4-0.1-2.7,0-4.1c0.3-1.1,0.1-2.2,0-3.3c0.2-2.1-0.2-4.1,0.1-6.2C84.2,45.9,83.9,43.6,83.9,41.4z"/>
	<path d="M85.9,41.4c0.2,0.1,0.3,0.3,0.2,0.5c-0.1,1.4,0.2,2.8,0,4.2c-0.2,1.2-0.1,2.5-0.1,3.7c-0.1,5.9,0,11.9,0.1,17.8
		c0.1,1.6,0.1,3.3,0.1,5c-0.1,1.7,0.3,3.3,0.1,4.9c0.1,1.5,0.1,3,0,4.5c0.1,1.5,0.1,3.1,0.1,4.7c-0.1,0.4,0.1,1-0.3,1.3
		c-0.2-0.5-0.1-1-0.1-1.5c-0.1-2.7,0.3-5.4,0-8.2c0.1-1.8-0.1-3.6,0-5.4c0.1-1.4,0.2-2.8-0.1-4.2c-0.1-3.2,0-6.4-0.1-9.6
		c0-4.1-0.1-8.2,0.1-12.3C86.1,44.9,85.9,43.2,85.9,41.4z"/>
	<path d="M87.6,41.4c0.1,0,0.3,0,0.4,0c-0.4,1.1,0.1,2.2-0.1,3.4c-0.2,1.6-0.2,3.2-0.1,4.7c0.4,2.3-0.2,4.6,0,6.9
		c-0.2,4.4,0,8.7-0.1,13.1c0.1,1.2,0.2,2.5,0,3.7c0.2,2.2,0.2,4.5,0,6.7c-0.1,2,0.3,3.9,0.2,5.9c-0.1,0-0.3,0.1-0.4,0.1
		c0-4,0.1-8.1-0.1-12.1c0.1-1.1,0.1-2.1,0-3.2c0.2-4.9,0.1-9.7,0.1-14.6c0-3.3,0-6.6,0-9.9C87.7,44.6,87.7,43,87.6,41.4z"/>
	<path d="M94.1,41.4c0.1,0,0.2,0.1,0.2,0.1c0.1,0.9,0,1.7,0.1,2.6c0.2,1.3-0.1,2.7,0.2,4.1c0.1,1.1,0.1,2.2,0.1,3.4
		c-0.1,1.4,0.1,2.8-0.1,4.2c-0.3,1.6,0,3.3-0.3,4.9C94,68.1,93.9,75.6,94.5,83c-0.1-0.1-0.3-0.2-0.4-0.2c-0.4-6.5-0.3-13-0.3-19.4
		c0.5-6.9,0.7-13.8,0.2-20.7C94.1,42.2,94,41.8,94.1,41.4z"/>
	<path d="M99,41.4c0.5,0.2,0.1,0.8,0.2,1.3c0.1,0.5,0.2,1,0.2,1.5c0.1,4.7,0.2,9.4,0,14.1c-0.4,3.7,0.1,7.4-0.1,11.1
		c-0.2,3.8,0.6,7.6,0.1,11.4l-0.3,0c0.1-2,0.2-4,0.1-6c-0.3-2.8,0.1-5.6-0.1-8.4c-0.2-3.9,0.2-7.7,0.2-11.6c-0.1-3.1,0.2-6.2,0-9.4
		C99,44.1,99,42.7,99,41.4z"/>
	<path d="M100.9,41.9c0-0.3,0.1-0.4,0.4-0.4c-0.4,1.4,0.3,2.8-0.1,4.2C100.9,44.4,101,43.1,100.9,41.9z"/>
	<path d="M217.1,42.9c0-0.5-0.1-1.1,0.3-1.5c0,1.8,0.1,3.7,0,5.5c0.1,3.1,0,6.3,0.2,9.4c0.3,2.2,0.1,4.4,0.3,6.7
		c-0.1,4.9,0.2,9.7,0.6,14.6c-0.1,2.2,0.2,4.5,0.3,6.7c-0.1-0.1-0.2-0.2-0.2-0.3c-0.3-1.5-0.2-3.1-0.3-4.7c0-2.1-0.3-4.1-0.3-6.2
		c0-1.7-0.3-3.3-0.2-4.9c-0.2-2.1,0.1-4.3-0.1-6.4c0-2.7-0.4-5.4-0.3-8.2c0-1.8,0.2-3.7-0.1-5.5C217.1,46.3,217.3,44.6,217.1,42.9z"
		/>
	<path d="M89,41.6l0.3,0c0,1.9-0.2,3.8,0.1,5.7c-0.1,1.1,0.2,2.2-0.1,3.3c-0.1,0-0.2,0.1-0.2,0.2c0.1-2.6-0.1-5.3,0-7.9
		C89.1,42.4,89.1,42,89,41.6z"/>
	<path d="M90.8,41.6l0.3,0c0.3,2.4,0,4.8,0.4,7.2c-0.1,1.9,0.1,3.8-0.2,5.7c0,0.8,0.2,1.6,0,2.5c0,4,0,7.9-0.1,11.9
		c-0.4,4.1-0.1,8.2-0.4,12.4c0.1,0.8,0.2,1.6,0,2.4c-0.1,0-0.2-0.1-0.3-0.2c0.1-3.3,0.2-6.6,0.2-9.9c0.3-3.1,0.2-6.3,0.4-9.4
		c0-3.2,0-6.4,0-9.7C91.3,50.2,91.1,45.9,90.8,41.6z"/>
	<path d="M92.5,41.9c0.1,0,0.2-0.2,0.2-0.2c0,1.4-0.1,2.8,0.1,4.2c0,2.6,0.1,5.2,0.1,7.9c0.1,2.6-0.1,5.3,0.1,7.9
		c0,2.5-0.4,4.9-0.4,7.4h-0.1c-0.2-2.6,0.4-5.2,0.3-7.9C92.9,54.7,92.6,48.3,92.5,41.9z"/>
	<path d="M95.7,41.6l0.3,0c-0.2,3.8,0.3,7.6-0.1,11.4c0,2.4-0.1,4.8,0.1,7.2c-0.2,2.6-0.2,5.3-0.1,7.9c0.2,1.4,0,2.8,0,4.2
		c0.2,3.2,0.1,6.4,0.3,9.7c-0.1,0.1-0.3,0.2-0.3,0.2c-0.2-6.3-0.1-12.5-0.2-18.8c0.1-3.9,0-7.7,0.1-11.6
		C95.8,48.4,95.8,45,95.7,41.6z"/>
	<path d="M97.2,41.6c0.1,0,0.3,0.1,0.4,0.2c0,1.5,0.3,3.1,0.1,4.6c0.3,1.5-0.2,3.1,0.1,4.6c0.2,0.7-0.1,1.3-0.1,2
		c-0.1,0.3,0.1,0.8-0.1,1c0-3,0-5.9,0-8.9C97.3,43.9,97.3,42.8,97.2,41.6z"/>
	<path d="M102.9,42.9c0.1-0.4-0.5-1.2,0.1-1.2c0.1,1.7-0.1,3.4,0.2,5.1c0,2,0.1,4,0,6c-0.3,1.1,0,2.2-0.1,3.4c0,5.3,0,10.7-0.2,16
		c-0.2,1.6-0.3,3.2-0.2,4.7l-0.3,0.1c0-2.2,0.3-4.3,0.3-6.5c0.2-5.4,0.1-10.7,0.1-16.1C103.2,50.6,102.9,46.8,102.9,42.9z"/>
	<path d="M104.4,41.7c0.1,0,0.2,0,0.3,0c0.4,8,0.4,16.1-0.1,24.2c-0.3,1.1,0.1,2.3-0.2,3.5c0.2,2.6,0,5.3-0.1,7.9
		c-0.7,0-0.2-0.8-0.3-1.3c0.2-3.2-0.1-6.4,0.4-9.6c-0.1-1.7,0.1-3.5,0.2-5.2c0.2-4.5,0.1-9,0.2-13.6
		C104.6,45.6,104.8,43.7,104.4,41.7z"/>
	<path d="M106.1,41.9c0.1-0.1,0.2-0.2,0.2-0.3c0,0.8,0.3,1.7,0,2.5c0,0.4-0.2,0.9,0.2,1.1c-0.4,0.2-0.1,0.7-0.1,1
		c0.2,1.8,0,3.5,0.1,5.3c0.1,1.2-0.1,2.5,0.1,3.7c0,1.7,0.3,3.5,0.1,5.2c-0.1,0.9-0.1,1.7-0.1,2.6c0,0-0.1,0-0.2,0
		c0.1-3.8-0.1-7.5-0.1-11.3c-0.2-1.1-0.1-2.1,0-3.2C106.1,46.4,106.4,44.1,106.1,41.9z"/>
	<path d="M109.6,41.9c0-0.1,0.1-0.2,0.2-0.2c0.1,2.2,0,4.5,0.2,6.7c0,2,0.3,4,0.1,5.9c0,3.4,0,6.9-0.3,10.3c0,1.2-0.4,2.3-0.2,3.5
		c-0.3,2.3-0.2,4.7-0.3,7l-0.3,0c-0.1-1.9,0.1-3.8,0.3-5.7c0.1-2,0.3-3.9,0.4-5.9c-0.1-1.7,0.3-3.4,0.2-5.2c0-2.9,0.1-5.8-0.1-8.7
		C109.7,47,109.4,44.5,109.6,41.9z"/>
	<path d="M111.3,41.9c0.1-0.1,0.2-0.2,0.2-0.2c0.1,2.6,0.2,5.1,0.1,7.7c0.1,1.9,0.2,3.8,0.1,5.7c0.3,2.8-0.1,5.6-0.1,8.4
		c-0.5,3.3-0.3,6.7-0.3,10.1c-0.4,0-0.4-0.4-0.4-0.7c0-2.7,0-5.5,0.3-8.2c0.4-3.9,0.4-7.9,0.2-11.9
		C111.3,49.1,111.6,45.5,111.3,41.9z"/>
	<path d="M112.9,41.8c0.1-0.1,0.2-0.2,0.3-0.2c0,0.9-0.2,1.9-0.1,2.8c0.2,2.2,0.1,4.5,0.2,6.7c0,0.3,0,0.5-0.1,0.8
		c-0.4-2.3-0.1-4.6-0.4-6.8C112.8,43.9,112.9,42.8,112.9,41.8z"/>
	<path d="M114.5,41.5l0.3,0.1c0.2,1.9-0.3,3.7,0.1,5.6c0.1,2.8,0.1,5.5,0.2,8.3c-0.2,2.7,0,5.4-0.2,8.2c-0.1,2.6,0.1,5.3,0.1,7.9
		c-0.1,0-0.2-0.1-0.3-0.1c0.1-3.3-0.2-6.5,0.2-9.8c0-3.3,0-6.6-0.1-9.9C114.4,48.4,114.7,45,114.5,41.5z"/>
	<path d="M119.5,41.6c0.4,0.9,0.2,1.8,0.3,2.7c0,3.1,0.5,6.3,0.3,9.4c-0.1,1.2,0.1,2.4,0.2,3.7c-0.5,1.5,0.3,3,0.1,4.5
		c-0.3,1.9-0.1,3.8-0.2,5.7c0,0.3,0.2,1-0.4,0.9c-0.1-0.7,0.1-1.4,0.1-2.2c-0.1-2,0.4-4,0.2-5.9c-0.2-1.6,0.1-3.1,0-4.7
		c0-2.5-0.1-4.9-0.2-7.4C119.5,46.1,119.5,43.9,119.5,41.6z"/>
	<path d="M121.3,41.7c0.1,0,0.2,0,0.3,0c-0.3,2-0.1,3.9,0,5.9c0,3.2,0.2,6.4,0.1,9.6c0.4,2.5-0.1,5,0.2,7.4
		c-0.2,0.6,0.3,1.5-0.4,1.9c0-0.8,0.1-1.6,0.1-2.3c-0.2-2.2,0.2-4.5,0-6.7c-0.1-3.1,0-6.3-0.1-9.4C121.1,46,121.2,43.8,121.3,41.7z"
		/>
	<path d="M122.7,42.4c0-0.3-0.1-0.8,0.4-0.7c-0.2,3.1,0.2,6.2,0.1,9.3c0.2,2.1,0.3,4.1,0.3,6.2c0.2,3.3,0.3,6.6,0.2,9.9
		c-0.6,0-0.3-0.7-0.3-1c0-1.7,0.2-3.5,0-5.2C123.3,54.8,122.6,48.6,122.7,42.4z"/>
	<path d="M127.7,41.8c0.1,0,0.2-0.1,0.3-0.1c0.1,2.9-0.1,5.8,0.1,8.6c-0.1,1.4,0.2,2.8,0.2,4.2c-0.1,1.7,0.2,3.3,0.1,5
		c-0.1,0.1-0.2,0.2-0.2,0.2C128.1,53.7,127.7,47.7,127.7,41.8z"/>
	<path d="M129.4,41.6c0.3,0.3,0.2,0.7,0.2,1c-0.2,2.9,0.2,5.8,0.2,8.7c0.1,1.7,0,3.4,0,5.2c0.1,1.5,0.2,3,0.2,4.4
		c0.1,1.3,0.4,2.6,0.1,3.9c0.1,1.1,0.1,2.1,0.2,3.2c-0.3,0.1-0.5-0.1-0.4-0.4c-0.1-1.9,0.2-3.9-0.1-5.8c-0.3-4.7,0-9.5-0.4-14.2
		C129.2,45.6,129.2,43.6,129.4,41.6z"/>
	<path d="M130.9,41.6c0.4,0.9,0,2,0.2,3c0.2,1.6,0,3.3,0.3,5c0.1,3.2,0.1,6.4,0.1,9.6c-0.1,2.6,0.2,5.1,0.1,7.7l-0.3,0
		c0.1-2.3,0-4.7,0-7c0.2-1.2,0-2.5,0-3.7c0.1-4.7-0.4-9.4-0.4-14.1C130.8,42,130.9,41.8,130.9,41.6z"/>
	<path d="M132.6,41.8c0.1,0,0.2,0,0.3,0c0,1.5,0,2.9,0.1,4.4c-0.1,1.1,0,2.2,0.1,3.2c0.2,5.6-0.3,11.2,0,16.8
		c-0.1,0.1-0.2,0.2-0.3,0.2c-0.2-0.7-0.1-1.5-0.1-2.2c-0.2-5.5,0.4-11-0.1-16.6C132.7,45.6,132.5,43.7,132.6,41.8z"/>
	<path d="M137.5,42.4c0-0.3,0-0.5,0.1-0.8c0.2,0.6,0,1.2,0.1,1.8c0,1.5,0,3,0,4.5c0.1,0.9,0.1,1.8,0.1,2.7c0.1,2.5,0.1,5-0.1,7.4
		c-0.1,1.8,0,3.6-0.1,5.3c-0.1,0.1-0.2,0.3-0.3,0.4c0-2.1,0-4.3,0.3-6.4c0.2-3.3,0.1-6.6,0-9.9C137.5,45.7,137.6,44,137.5,42.4z"/>
	<path d="M208,41.6c0.8,1,0.4,2.4,0.7,3.6c0.2,2.3,0.3,4.7,0.2,7.1c-0.1,0.9-0.2,1.8-0.1,2.7c0.2,3.4,0.1,6.8,0.2,10.1
		c0,2.2,0.3,4.5,0.2,6.7c0,0.7,0.4,1.5,0,2.2c-0.4-3.9-0.3-7.7-0.4-11.6c0-2,0.1-4-0.1-6c-0.1-1-0.1-2,0-3.1c0.3-1.9,0-3.8-0.1-5.7
		c0-1.8-0.3-3.5-0.5-5.2C208,42.2,208,41.8,208,41.6z"/>
	<path d="M211.3,42c0.1-0.1,0.2-0.2,0.3-0.3c0.2,1.2,0.2,2.3,0.3,3.5c-0.2,2.2,0.4,4.4,0.1,6.6c0.3,2.3,0,4.7,0.3,7.1
		c0.2,0.9,0.1,1.9,0.2,2.9c0.2,1.7,0.1,3.4,0.2,5.2c0.1,1.2-0.2,2.3,0,3.5c0.3,2.3,0.3,4.7,0.4,7c-0.1,0-0.2,0-0.3,0
		c0-1.8,0-3.6-0.1-5.4c-0.3-1.9,0-3.8-0.2-5.7c-0.1-2.7-0.2-5.4-0.5-8.1c-0.1-1.7,0.2-3.5-0.2-5.2c-0.2-1.3,0.1-2.6,0-4
		C211.5,46.7,211.8,44.3,211.3,42z"/>
	<path d="M213.6,41.7l0.2-0.1c0.1,4.4,0.1,8.8,0.3,13.2c-0.2,3.7,0.5,7.3,0.4,11c0.1,2.2,0.1,4.5,0.2,6.7c-0.4-0.2-0.5-0.6-0.4-1.1
		c0.2-1.6-0.1-3.3,0-4.9c0-2.1,0-4.3-0.2-6.4c-0.2-2-0.1-4-0.2-6c-0.1-2.8-0.1-5.6-0.1-8.4C213.7,44.5,213.5,43.1,213.6,41.7z"/>
	<path d="M219,41.6l0.2,0.1c0.2,1.7,0.1,3.5,0.2,5.2c0.1,3.7,0.5,7.5,0.3,11.2c0.4,3.8,0,7.6,0.4,11.4c0.1,2.5,0.1,4.9,0.4,7.4
		c0,2.7,0.1,5.5,0.3,8.2h-0.3c-0.3-2-0.1-3.9-0.2-5.9c0.1-1.7-0.3-3.3-0.3-5c-0.2-2.1-0.1-4.3-0.4-6.4c-0.1-3.5,0.1-7.1-0.3-10.6
		c-0.1-0.6,0.3-1.1,0.2-1.7c-0.1-2.4-0.2-4.9-0.4-7.3C219.2,46,219.1,43.8,219,41.6z"/>
	<path d="M221,41.5c0.5,0.6,0.1,1.4,0.2,2.1c0.2,3.9,0.1,7.9,0.5,11.9c-0.1,2.2-0.1,4.3,0.1,6.5c-0.1,0.7,0.2,1.6-0.2,2.2
		c-0.5-5.3,0-10.7-0.6-16C221.2,46,220.9,43.7,221,41.5z"/>
	<path d="M108.1,41.9c0.1,0,0.2,0.1,0.3,0.1c0,4.4,0.3,8.8-0.2,13.2c-0.1,1,0.1,2,0,3c-0.1,0.8,0.2,1.5,0,2.3
		c-0.3,0.8,0.1,1.6-0.1,2.4c-0.2,1.1,0.2,2.2-0.1,3.2c-0.2,0.9,0.1,1.8-0.1,2.7c-0.4,2,0.1,4-0.2,5.9c-0.1,0.6,0.1,1.2-0.3,1.7
		c-0.1-1.6,0.2-3.1,0-4.7c0.3-4.1,0.6-8.2,0.5-12.4c0.1-1.2,0-2.5,0.1-3.7c0.2-1.1,0.1-2.1,0.1-3.2C108.3,49,108.2,45.4,108.1,41.9z
		"/>
	<path d="M118.3,49.1c0-2.4-0.5-4.8-0.2-7.2c0.2,1.7,0.2,3.5,0.4,5.2c0.3,2.5,0,5.1,0.2,7.7c-0.1,1.8,0.1,3.6,0,5.5
		c-0.2,1.8,0.2,3.6,0.2,5.4c-0.2,1.5,0.1,2.9-0.2,4.4c-0.1,0-0.3,0-0.3,0c0.2-2.2,0.3-4.4,0.2-6.7c-0.1-1.1-0.2-2.1,0-3.2
		c0.2-1.6-0.1-3.3,0-5C118.2,53.2,118.5,51.1,118.3,49.1z"/>
	<path d="M124.3,42c0.1-0.1,0.2-0.2,0.3-0.2c0,2.3-0.1,4.7,0.1,7c0.2,2,0.1,4.1,0.2,6.2c-0.2,1-0.1,2,0,3c0,2.6,0.1,5.3,0.2,7.9
		c0.1,0.9,0.3,1.8,0.2,2.7c-0.1,0-0.3-0.1-0.4-0.1c-0.2-4.1-0.3-8.2-0.3-12.3C124.8,51.5,124.1,46.8,124.3,42z"/>
	<path d="M125.8,41.8l0.3,0c-0.2,2.2,0.3,4.5,0.2,6.7c0.4,4.4,0.1,8.9,0.5,13.3c-0.1,2.2,0.2,4.4,0.2,6.6c-0.4,0.1-0.3-0.4-0.3-0.6
		c-0.1-3.3-0.2-6.6-0.3-9.9c0.1-2.6-0.2-5.1-0.2-7.7C125.9,47.5,126,44.6,125.8,41.8z"/>
	<path d="M134.1,41.9c0.3,0,0.4,0.1,0.4,0.4c-0.3,3.1,0.2,6.2,0.1,9.3c-0.3,1.2,0.1,2.4,0,3.6c0,3.4-0.1,6.9,0,10.3
		c-0.1,0-0.2,0-0.3,0c-0.1-4.1,0.1-8.2,0-12.3c0.1-2.1,0.1-4.1-0.1-6.2C134,45.4,134.3,43.7,134.1,41.9z"/>
	<path d="M135.7,41.8l0.3,0c-0.3,1.3-0.1,2.7-0.1,4c0.2,3,0.1,6.1,0.2,9.1c0,1-0.2,2-0.2,3c0.2,2.2,0.1,4.5,0.1,6.7l-0.3,0
		c0.1-2.4,0.1-4.8,0.1-7.3c0.1-1.6,0.2-3.1,0.1-4.7c-0.1-2.5,0-5-0.2-7.4C135.6,44.2,135.7,43,135.7,41.8z"/>
	<path d="M139.2,42l0.2-0.1c0,4.3,0.1,8.7-0.1,13c-0.3,1.7-0.2,3.4-0.4,5.1c-0.1,1.4-0.2,2.9-0.3,4.3c-0.5-0.1-0.4-0.5-0.4-0.9
		c0.4-3.5,0.5-7.1,0.9-10.6C139.1,49.2,139.3,45.6,139.2,42z"/>
	<path d="M140.5,42c0.1,0,0.2,0,0.3,0c-0.1,2.5,0,5.1-0.1,7.6c0,3,0,6.1-0.2,9.1c-0.2,1.4-0.4,2.8-0.4,4.2c0,0.3,0.1,0.8-0.4,0.8
		c-0.1-2.3,0.5-4.5,0.6-6.8C140.5,52,140.5,47,140.5,42z"/>
	<path d="M141.8,42c0.1-0.1,0.3-0.2,0.4-0.3c-0.2,1.8-0.1,3.5-0.1,5.3c-0.2,3.3,0.2,6.6-0.1,9.9c-0.3,0.9,0.1,1.8-0.2,2.7
		c-0.2,0.8,0,1.6-0.2,2.4c-0.1,0-0.2,0-0.3,0c0.4-3.5,0.5-7,0.5-10.5C141.7,48.4,141.9,45.2,141.8,42z"/>
	<path d="M143.3,41.9c0.2,0.4,0.1,0.9,0.1,1.3c0,1.5,0,3,0,4.5c-0.3-0.4,0-1-0.1-1.5C143,44.7,143.1,43.3,143.3,41.9z"/>
	<path d="M147.2,41.9c0.1,0,0.2,0.1,0.3,0.1c-0.2,1.3,0,2.6-0.1,3.8c-0.1,3-0.1,6-0.1,8.9c-0.1-0.1-0.2-0.2-0.3-0.2
		C147.3,50.3,147.1,46.1,147.2,41.9z"/>
	<path d="M148.7,41.9c0.1,0,0.3,0,0.4,0c-0.2,3.5-0.3,6.9-0.5,10.4c-0.3-0.7-0.1-1.5-0.1-2.3C148.3,47.3,148.7,44.6,148.7,41.9z"/>
	<path d="M152.4,42c0.1,0,0.2,0,0.3,0c0.1,1.5-0.1,2.9,0,4.4c0,0.3,0,0.6-0.3,0.7C152.2,45.4,152.6,43.7,152.4,42z"/>
	<path d="M153.4,44c0.1-0.7-0.4-1.6,0.3-2.1c0,0.7,0.1,1.4,0,2.2C153.6,44.1,153.5,44,153.4,44z"/>
	<path d="M154.4,42c0.1,0,0.2,0,0.3-0.1c0,0.6,0.1,1.2,0.1,1.8C154.1,43.6,154.5,42.5,154.4,42z"/>
	<path d="M159.5,41.9c0.1,0.1,0.2,0.2,0.3,0.2c0.1,1.7,0.1,3.5,0.1,5.2c-0.3-0.2-0.4-0.4-0.4-0.7C159.6,45,159.6,43.5,159.5,41.9z"
		/>
	<path d="M160.7,42.7c0-0.3-0.1-0.9,0.3-0.7c0,2-0.1,3.9,0,5.8c0,0.2-0.1,0.4-0.2,0.5C160.6,46.4,161,44.5,160.7,42.7z"/>
	<path d="M163.5,41.9c0,0.1,0.1,0.2,0.2,0.3c0.1,2.1,0,4.3-0.1,6.4c-0.3,0-0.4-0.1-0.4-0.4C163.4,46,163.4,43.9,163.5,41.9z"/>
	<path d="M166,41.9c0.3,0.2,0.2,0.7,0.3,1c0,1.6-0.2,3.1-0.1,4.7l-0.2,0.1l-0.1-0.1C165.9,45.7,165.9,43.8,166,41.9z"/>
	<path d="M168.2,42c0.4-0.1,0.4,0.4,0.4,0.7c0,1.3,0.2,2.6-0.1,3.9c-0.1,0-0.2,0-0.3,0C168.3,45,168.5,43.5,168.2,42z"/>
	<path d="M169.6,41.9l0.3,0.1c0,1.6,0.1,3.3,0,4.9c-0.1,0-0.2-0.1-0.3-0.1C169.5,45.1,169.7,43.5,169.6,41.9z"/>
	<path d="M170.9,42c0.1,0,0.2-0.1,0.3-0.1c0,1.7,0,3.4,0,5.1c-0.1,0-0.2,0.1-0.3,0.1C170.9,45.4,171,43.7,170.9,42z"/>
	<path d="M178.1,42l0.2-0.1c0.2,2.8-0.1,5.6,0,8.4c0.1,3.7,0,7.4,0,11.1c-0.1,0-0.3,0-0.4,0c0.1-1.5,0-3,0.2-4.4
		c0.1-2.1,0.1-4.1,0-6.2C177.8,47.9,178.2,44.9,178.1,42z"/>
	<path d="M179.5,43.9c0-0.7-0.2-1.4,0.1-2c0,4.6,0.1,9.1,0,13.7c-0.1-0.1-0.2-0.2-0.2-0.3C179.6,51.5,179.5,47.7,179.5,43.9z"/>
	<path d="M197.1,42.2c0.1-0.1,0.2-0.2,0.3-0.3c0,2.1,0,4.3-0.1,6.4c0.2,2.3,0,4.6,0.2,6.9c-0.1,3.1,0.2,6.2,0.1,9.3
		c-0.1,0-0.3,0.1-0.4,0.1c-0.1-1.3,0.1-2.7,0.1-4c-0.2-2.4,0.1-4.8-0.1-7.2c0-2.2-0.2-4.4-0.1-6.7C197.2,45.3,197.2,43.8,197.1,42.2
		z"/>
	<path d="M202.8,41.9c0,0.1,0.1,0.2,0.1,0.2c-0.2,2.2,0.2,4.5,0,6.7c0.1,1.9-0.2,3.7,0.1,5.6c0.2,3.3,0,6.7,0.1,10
		c-0.2,0.9,0.1,1.9,0,2.8c-0.6-0.2-0.3-1.1-0.5-1.6c0.2-1.4,0-2.8,0.1-4.2c0.1-2.4,0-4.8-0.1-7.2c-0.3-1.6,0-3.3-0.1-5
		C202.7,46.8,202.8,44.4,202.8,41.9z"/>
	<path d="M206.3,42c0.1,0,0.2-0.1,0.3-0.2c-0.1,1.4,0.2,2.7,0.3,4.1c-0.1,0.8,0,1.6,0.1,2.4c-0.1,1.2-0.2,2.3-0.1,3.5
		c0.3,2.5,0.1,4.9,0.3,7.4c0.2,2,0.1,4,0.2,5.9c-0.1,2.6,0.4,5.2,0.3,7.8l-0.2,0c0-0.8,0-1.6-0.1-2.4c-0.1-1.6-0.2-3.2-0.1-4.8
		c-0.3-2.8-0.1-5.6-0.3-8.4c0-3-0.2-6.1-0.1-9.1C206.7,46.2,206.3,44.1,206.3,42z"/>
	<path d="M209.8,42.9c0-0.4-0.2-0.8,0.2-1.1c0,0.2,0,0.5,0,0.6c0.2,3.8,0.4,7.6,0.2,11.3c0.2,3.3,0,6.6,0.2,9.9
		c0.2,2,0.2,4.1,0.2,6.2c0.2,2,0.3,4,0.3,6l-0.2-0.2c-0.2-1.8-0.2-3.7-0.3-5.6c-0.1-1.8,0.1-3.7-0.2-5.5c-0.2-2.9,0-5.9-0.2-8.8
		c-0.3-2.6,0.4-5.3,0-7.9C209.9,46.2,210.1,44.5,209.8,42.9z"/>
	<path d="M215.3,42.9c0-0.4,0.1-0.7,0.2-1c0.1,2.4,0.2,4.9,0.3,7.3c0.1,2.4-0.1,4.9,0.1,7.3c0,1.2,0,2.3,0.1,3.5c-0.2,2,0,4,0.1,5.9
		c0.1,2.7,0,5.4,0.1,8.1c0.2,1.7,0.1,3.5,0.2,5.2c0.1,0.9,0.3,1.7,0.4,2.6l-0.2-0.2c-0.5-2.4-0.4-4.9-0.5-7.4
		c-0.3-3.2,0-6.4-0.3-9.6c-0.3-2.9-0.1-5.8-0.1-8.6c-0.2-2.3,0.1-4.6-0.2-6.9C215.4,47,215.4,44.9,215.3,42.9z"/>
	<path d="M144.4,42c0.1,0.1,0.3,0.2,0.4,0.2c-0.4,1.2-0.2,2.4-0.1,3.6c0.2,4.4-0.1,8.7-0.1,13.1c-0.1,0.3,0,0.9-0.4,1
		C144.5,54,144.5,48,144.4,42z"/>
	<path d="M149.9,42.2c0.1,0,0.2,0.1,0.3,0.1c-0.1,2,0.1,4-0.1,6c-0.1,1,0.2,2.2-0.4,3C150,48.3,150,45.2,149.9,42.2z"/>
	<path d="M151.1,42.1c0.5-0.2,0.3,0.4,0.3,0.6c-0.2,2.4,0,4.8-0.2,7.2c-0.1,0-0.3-0.1-0.3-0.1C151.3,47.2,150.9,44.6,151.1,42.1z"/>
	<path d="M155.8,42c0.1,0.1,0.2,0.2,0.3,0.2c0,0.7,0,1.4,0.1,2.1c-0.3,0-0.4-0.1-0.4-0.4C155.9,43.3,155.7,42.6,155.8,42z"/>
	<path d="M157,42.1l0.3,0c0,1,0.1,2,0.1,3c-0.3,0-0.4-0.2-0.4-0.4C157.1,43.8,157.1,42.9,157,42.1z"/>
	<path d="M158.2,42c0.1,0.1,0.2,0.2,0.3,0.2c0,1.2,0,2.5,0.2,3.7c-0.1,0-0.3-0.1-0.4-0.2C158.2,44.5,158.3,43.3,158.2,42z"/>
	<path d="M162,42.2c0.1,0,0.3,0,0.3-0.1c0.1,1.7,0.1,3.4,0,5.1c-0.1,0-0.2,0-0.3,0C162.1,45.6,162.3,43.9,162,42.2z"/>
	<path d="M164.7,42.2c0.1,0,0.2,0,0.3,0c-0.1,2.4-0.1,4.8-0.4,7.1l-0.3,0.1C164.5,47,164.8,44.6,164.7,42.2z"/>
	<path d="M167,42.2c0.1,0,0.3,0,0.4,0c-0.1,1.5-0.1,3.1-0.1,4.6c-0.1,0-0.3-0.1-0.4-0.2C166.9,45.1,167,43.6,167,42.2z"/>
	<path d="M172.2,42.3c0.1,0,0.3-0.1,0.3-0.1c0.1,1.7-0.1,3.3-0.1,5c0,0.3-0.1,0.6-0.3,0.7C172.1,46,172.4,44.1,172.2,42.3z"/>
	<path d="M175.6,42.1c0.4,0.3,0.1,1,0.2,1.5c0.2,4.2-0.1,8.4,0,12.6c0,1.7,0,3.4-0.1,5.1c-0.1,0-0.2,0-0.3,0
		c0.3-5.1,0.1-10.2,0.2-15.3C175.6,44.8,175.4,43.4,175.6,42.1z"/>
	<path d="M176.7,42.7c0-0.2,0.1-0.4,0.3-0.5c-0.2,4.3,0.1,8.5,0.1,12.8c0.1,2.3,0.1,4.7,0.2,7.1l-0.4,0c0.1-2.4-0.1-4.9,0-7.3
		C176.7,50.7,176.5,46.7,176.7,42.7z"/>
	<path d="M180.8,42.2c0.5,0,0.2,0.7,0.2,1c-0.1,5.8-0.2,11.6-0.2,17.4l-0.3,0.1c0.1-5.1,0-10.2,0.3-15.3
		C180.7,44.3,180.8,43.2,180.8,42.2z"/>
	<path d="M182,42.1c0.1,0,0.2,0.1,0.3,0.1c0.1,4.3,0.2,8.7-0.2,13c0,1.6-0.1,3.2-0.1,4.8c-0.4,0.1-0.4-0.4-0.4-0.6
		c0.1-4.4,0.6-8.9,0.4-13.4C182.1,44.8,182,43.5,182,42.1z"/>
	<path d="M183.4,42.1l0.2,0.1c0.2,1.7,0,3.3,0.2,5c-0.1,0-0.2,0.1-0.3,0.2C183.5,45.6,183.5,43.8,183.4,42.1z"/>
	<path d="M184.6,42.2c0.1,0,0.2,0,0.3,0c-0.1,5.1-0.1,10.2-0.3,15.3c-0.2,1.3-0.1,2.6-0.2,4l-0.3,0c-0.1-2.9,0.4-5.8,0.4-8.7
		c0.2-3.1-0.1-6.3,0.1-9.4C184.6,43,184.6,42.6,184.6,42.2z"/>
	<path d="M185.8,42.3c0.1,0,0.2-0.1,0.3-0.1c-0.2,2.4,0.1,4.8-0.2,7.2c-0.3,3.9-0.6,7.9-0.5,11.9c-0.5,0-0.2-0.7-0.3-1
		C185,54.2,186.1,48.3,185.8,42.3z"/>
	<path d="M187,42.2c0.5,0,0.4,0.6,0.3,0.9c-0.3,2.8,0.1,5.6-0.4,8.4c-0.1,3.6-0.4,7.2-0.6,10.8c-0.1,0-0.3,0.1-0.4,0.2
		c0.2-2.5,0.3-5,0.6-7.5c-0.1-2.2,0.3-4.3,0.4-6.4C186.9,46.4,187,44.3,187,42.2z"/>
	<path d="M188.2,42.1c0,0.1,0.1,0.2,0.2,0.2c-0.1,2.1,0,4.2-0.1,6.2c-0.3,3.9-0.4,7.9-0.7,11.8c0,0.2-0.1,0.3-0.3,0.4
		c-0.1-0.8,0-1.6,0.2-2.4c0-1.8,0.2-3.6,0.3-5.4c0.1-3.1,0.4-6.2,0.4-9.4C188.2,43.1,188.1,42.6,188.2,42.1z"/>
	<path d="M190.6,42.1c0.5,0,0.2,0.7,0.2,1c0,0.7,0,1.3,0,2C190.6,44.2,190.7,43.1,190.6,42.1z"/>
	<path d="M191.9,42.1c0,0.1,0.1,0.2,0.2,0.3c-0.4,2.7-0.1,5.4-0.3,8.2c0,2.5-0.1,5-0.4,7.6c-0.1,0-0.2,0.1-0.3,0.1
		c0.2-1.5,0.3-3.1,0.3-4.7C191.9,49.7,191.4,45.9,191.9,42.1z"/>
	<path d="M193,42.4c0.1-0.1,0.2-0.2,0.3-0.2c-0.1,1.4-0.1,2.8-0.1,4.2c-0.5-0.1-0.3-0.6-0.3-1C193.1,44.4,192.9,43.4,193,42.4z"/>
	<path d="M195.8,42.2c0.1,0,0.4,0,0.5,0c-0.5,1.6-0.2,3.3-0.3,5c-0.1,1.7,0.3,3.3,0.2,5c-0.2,3.7-0.1,7.4,0,11c-0.1,0-0.3,0-0.3,0
		c-0.1-2,0-4.1-0.1-6.1c0-2.7,0.3-5.4-0.1-8.2C195.7,46.6,195.9,44.4,195.8,42.2z"/>
	<path d="M199.8,42.2c0.1,0,0.3,0.1,0.4,0.1c-0.1,0.3-0.2,0.6-0.2,0.9c0.2,3.6-0.1,7.3,0.2,10.9c0.2,2.9,0.4,5.9,0.2,8.8
		c-0.1,0-0.3,0.1-0.4,0.2c0.2-3.8-0.1-7.6-0.3-11.5c0.1-2.5-0.2-5,0-7.4C199.8,43.5,199.8,42.8,199.8,42.2z"/>
	<path d="M201.1,42.8c-0.1-0.3,0-0.5,0.3-0.6c0.1,1.7-0.1,3.5,0.1,5.2c0.2,3.2,0,6.4,0.1,9.6c-0.1,2.7,0.3,5.4,0.2,8.1
		c-0.1,0-0.3-0.1-0.4-0.2c0-1.8,0.1-3.6-0.1-5.4c-0.3-4.3,0-8.6-0.2-12.9C201.1,45.3,201.4,44,201.1,42.8z"/>
	<path d="M203.7,47.3c0.2-1.7,0-3.6,0.5-5.3c0,1.8-0.1,3.5-0.2,5.3c0.3,2.4,0.1,4.8,0.3,7.2c0,2.1,0.3,4.1,0.4,6.1
		c0.3,2.2,0.1,4.5,0.2,6.7c0,1,0.2,2.1,0,3.1l-0.2,0.2c0-0.2,0-0.5,0-0.7c0-1.4-0.2-2.9-0.1-4.3c0.1-3.9-0.5-7.7-0.6-11.6
		C203.8,51.8,203.8,49.6,203.7,47.3z"/>
	<path d="M173.4,42.4c0.1,0,0.3,0,0.3,0.1c-0.1,2,0,3.9,0,5.9c0,0.2-0.1,0.4-0.3,0.5C173.4,46.7,173.5,44.5,173.4,42.4z"/>
	<path d="M189.2,42.4c0.4,0.3,0.2,0.8,0.3,1.3c-0.2,3.8-0.1,7.6-0.5,11.4c-0.2,1.6-0.1,3.3-0.2,4.9c0,0.2-0.1,0.4-0.3,0.5
		c-0.1-1.2,0.2-2.5,0.2-3.7c0-1.7,0.4-3.3,0.4-5C189.3,48.6,189.1,45.5,189.2,42.4z"/>
	<path d="M194.4,43.1c0-0.3-0.1-0.9,0.4-0.8c-0.4,2.2-0.1,4.4-0.2,6.5c0.3,4.4-0.1,8.7,0.1,13.1c-0.1,0-0.3-0.1-0.4-0.1
		c-0.1-4,0.2-8,0-12C194.3,47.6,194.5,45.4,194.4,43.1z"/>
	<path d="M198.6,42.4c0.1,0,0.2,0.1,0.3,0.2c-0.4,3.1,0.1,6.2-0.2,9.2c0,4.1,0.7,8.1,0.3,12.1l-0.3,0c0.2-3.6-0.2-7.1-0.3-10.7
		c0.1-2.2,0.1-4.3,0-6.5C198.4,45.3,198.7,43.9,198.6,42.4z"/>
	<path d="M205,42.6c0.1-0.1,0.2-0.3,0.2-0.4c0.2,1.6,0,3.2,0.1,4.8c0,2.9,0.2,5.8,0.1,8.7l-0.2-0.1c-0.1-2.2,0.1-4.4-0.2-6.6
		C205.1,46.9,205,44.8,205,42.6z"/>
	<path d="M190.4,45.6c0.1,0.1,0.2,0.2,0.3,0.2c-0.1,2.3,0.1,4.7-0.2,7c-0.2,0.9,0,1.8-0.1,2.7c-0.2,1.2,0.1,2.5,0,3.7
		c0,0.3-0.1,0.4-0.4,0.4c0.3-2.8,0-5.6,0.4-8.3C190.4,49.4,190.4,47.5,190.4,45.6z"/>
	<path d="M101,45.8c0.2,0.2,0.3,0.5,0.3,0.8c-0.1,2.1,0.2,4.3-0.1,6.4c-0.1,2.8,0.2,5.6,0,8.4c0,1.8,0.2,3.6,0,5.4
		c0,3.9-0.2,7.7-0.2,11.6c0,0.3-0.1,0.7-0.4,0.7c0.2-4.2,0.2-8.4,0.4-12.5c0-4,0-7.9,0-11.9C101,51.8,101,48.8,101,45.8z"/>
	<path d="M193,47.1c0.1-0.1,0.2-0.2,0.2-0.3c-0.1,2.7,0.1,5.5,0.2,8.2c-0.1,1.6,0,3.1-0.2,4.7c-0.1-0.1-0.2-0.2-0.2-0.3
		c0.1-2.7,0.2-5.5,0-8.2C192.9,49.9,193.3,48.5,193,47.1z"/>
	<path d="M183.4,56.8c0,1.3,0.2,2.5-0.1,3.7c-0.1,0.1-0.2,0.2-0.3,0.2c0.3-4.3,0.5-8.7,0.6-13c0.1,0.1,0.2,0.2,0.3,0.3
		c-0.2,2.9-0.1,5.7-0.3,8.6L183.4,56.8z"/>
	<path d="M143.2,50.3c0.1-0.7-0.2-1.5,0.1-2.2c0.2,2.5-0.3,4.9-0.1,7.4c0,2.2,0.2,4.3,0.1,6.5c-0.5-1.6-0.2-3.3-0.4-5
		C143,54.8,142.9,52.5,143.2,50.3z"/>
	<path d="M89.3,51.3c0.3,0.2,0.1,0.7,0.2,1c0,2.9,0,5.7,0,8.6c0.2,1.9,0.1,3.8,0.1,5.7c0,0.1-0.1,0.2-0.2,0.3
		C89.4,61.7,89.3,56.5,89.3,51.3z"/>
	<path d="M113.1,52.3c0.2,0.5,0.1,1,0.1,1.5c-0.1,3.7,0,7.4,0,11.1c-0.2,2,0.2,4.1-0.5,6.1c-0.1,0-0.2,0-0.3,0
		c0.6-1.8,0.4-3.7,0.5-5.6c0.2-3.3-0.1-6.6,0.1-9.9C113.1,54.4,113,53.4,113.1,52.3z"/>
	<path d="M97.3,54.5c0.2,0.3,0.1,0.7,0.1,1c0.1,3.2,0,6.4,0,9.6c0.3,3.4,0,6.7,0.3,10.1c-0.2,2.1,0.2,4.2,0,6.2l-0.3,0
		c0-2.9-0.1-5.8-0.1-8.7C97.4,66.7,97.1,60.6,97.3,54.5z"/>
	<path d="M179.3,56c0.5,0,0.1,0.7,0.2,1c0,1.3-0.2,2.7-0.2,4c-0.1,0.1-0.2,0.2-0.3,0.2C179,59.5,179.3,57.7,179.3,56z"/>
	<path d="M172.1,56.1l0.2,0.1c0,0.8,0.1,1.6-0.1,2.4c-0.1,0-0.2,0-0.3,0C172,57.8,172.1,57,172.1,56.1z"/>
	<path d="M205.4,56.2c0.3,0.5,0.2,1,0.2,1.6c0.1,2.1-0.2,4.3,0.1,6.4c0.1,2.6,0.4,5.2,0.5,7.7c-0.1,0-0.2-0.1-0.3-0.2
		c-0.1-1,0-2-0.2-3c-0.2-1,0.1-2-0.2-3c0-1.3-0.2-2.7-0.1-4c0-1.4,0.1-2.8,0-4.2C205.4,57,205.4,56.6,205.4,56.2z"/>
	<path d="M149.2,56.7"/>
	<path d="M149.4,57.1C149.4,57.1,149.5,57.1,149.4,57.1C149.5,57.1,149.4,57.1,149.4,57.1z"/>
	<path d="M171,57.1c0.1,0,0.2-0.1,0.3-0.1c0,0.6-0.1,1.1,0,1.7c-0.1,0-0.3,0-0.4,0C170.9,58.1,170.9,57.6,171,57.1z"/>
	<path d="M150.9,57.5"/>
	<path d="M149.7,58.1c0.3,0,0.8-0.1,1-0.1c0,0.2-0.1,0.7-0.1,1c-0.6,0.2-0.5,1-1.1,1.2c0.1-0.2,0.2-0.6,0.2-0.8
		C149.6,59,149.7,58.5,149.7,58.1z"/>
	<path d="M150.7,59c0.1-0.2,0.2-0.5,0.3-0.7c0,0.2,0.1,0.6,0.1,0.8c0.1-0.1,0.2-0.3,0.3-0.4c0.1,0.1,0.2,0.2,0.2,0.3
		c0.1-0.1,0.4-0.2,0.5-0.2c0,0.1-0.1,0.3-0.1,0.4c-0.3,0.7-0.7,1.4-1,2.1c0.1,0.4,0.5,0.7,0.5,1.2c-0.2,0.8-0.5,1.7-1,2.4
		c0-0.2-0.1-0.5-0.1-0.6c0.3-0.3,0.4-0.6,0.5-1c-0.1,0-0.3,0-0.4,0c0.1-0.3,0.2-0.7,0.3-1c0.1,0.1,0.4,0.4,0.5,0.5
		c-0.1-0.4-0.2-0.8-0.3-1.2c-0.4,0.8-0.7,1.5-0.9,2.3c-0.2,0.4-0.5,0.7-0.7,1c0.1-0.8,0.7-1.5,0.8-2.4c0.4-0.8,0.7-1.6,1-2.4
		c0.2-0.4-0.1-0.7-0.1-1.1c0,0.1-0.1,0.4-0.2,0.6c-0.1,0.1-0.4,0.3-0.6,0.4C150.4,59.7,150.5,59.4,150.7,59z"/>
	<path d="M147.9,58.8"/>
	<path d="M148.2,60.2c-0.5-0.2-0.1-0.7,0.1-1c0,0.2,0.1,0.5,0.1,0.7c0.2-0.2,0.6-0.5,0.8-0.6c0,0.6-0.7,0.9-0.7,1.4
		c-0.1,0.1-0.4,0.3-0.5,0.3C147.9,60.7,148,60.4,148.2,60.2z"/>
	<path d="M128.2,59.9c0.2,0.2,0.3,0.5,0.3,0.8c-0.1,2.4,0.2,4.8,0,7.2c-0.1,0.4,0.4,1.2-0.3,1.2c-0.1-1.3,0.1-2.6,0.1-3.9
		C128.1,63.4,128.2,61.6,128.2,59.9z"/>
	<path d="M149.3,60.5c0.1-0.1,0.2-0.2,0.3-0.3c0,0.1-0.1,0.4-0.1,0.5L149.3,60.5z"/>
	<path d="M150.6,60.3"/>
	<path d="M149.9,60.5l0.2,0c0,0.1,0,0.3,0,0.4l-0.2,0C149.9,60.8,149.9,60.6,149.9,60.5z"/>
	<path d="M147.4,61.7c-0.1-0.3,0.1-0.8,0.4-0.7C148,61.2,147.7,61.6,147.4,61.7z"/>
	<path d="M149.7,61l0.2,0c0,0.1,0,0.3-0.1,0.4l-0.2,0C149.6,61.3,149.6,61.1,149.7,61z"/>
	<rect x="146.9" y="61.2" transform="matrix(0.9995 -3.173005e-02 3.173005e-02 0.9995 -1.8707 4.6949)" width="0.2" height="0.2"/>
	<path d="M150.1,61.2l0.2,0l0.1,0.2c-0.1,0.1-0.2,0.2-0.3,0.3C150.1,61.5,150.1,61.3,150.1,61.2z"/>
	<path d="M145.9,63.4c0.4-0.6,0.8-1.5,1.5-1.7C147.1,62.4,146.6,63,145.9,63.4z"/>
	<path d="M106.5,63.5c0.1,0,0.2,0,0.2,0c-0.3,0.6,0,1.3-0.2,1.9c-0.1,1.6,0,3.1,0,4.7c-0.1,2.3-0.3,4.7-0.4,7l-0.3,0
		c0-2,0.4-4,0.4-6c0.1-1.5-0.1-3,0.1-4.4C106.5,65.6,106.3,64.5,106.5,63.5z"/>
	<path d="M150.4,63.6c0,0.1,0.1,0.4,0.1,0.6c-0.2,0.1-0.3,0.2-0.4,0.4c0-0.2-0.1-0.5-0.1-0.7C150.1,63.8,150.3,63.7,150.4,63.6z"/>
	<path d="M143.2,64.6c-0.1-0.4,0.4-0.8,0.8-0.7C143.9,64.2,143.6,64.7,143.2,64.6z"/>
	<path d="M145.1,63.9c0.1,0,0.4-0.1,0.5-0.1c-0.1,0.5-0.5,0.9-0.9,1.1c0-0.3,0.1-0.6,0.2-0.8C144.9,64,145,63.9,145.1,63.9z"/>
	<path d="M174.5,64.7c0.3,0.1,0.4,0.3,0.2,0.6C174.4,65.2,174.3,65,174.5,64.7z"/>
	<path d="M221.8,66.4c0-0.6-0.1-1.2,0.2-1.7v9.7C221.8,71.7,221.9,69,221.8,66.4z"/>
	<path d="M186.1,65.6"/>
	<path d="M184.9,67.7c0.7-0.8,1.4-1.7,2.3-2.3c0,0.1,0,0.3-0.1,0.4c0,0-0.1,0.1-0.1,0.2c0,0.1-0.1,0.2-0.2,0.3
		c-0.1,0.1-0.3,0.2-0.4,0.2C185.8,66.7,185.5,67.4,184.9,67.7z"/>
	<path d="M187.9,66.4"/>
	<path d="M185.2,66.6"/>
	<path d="M187.4,66.8"/>
	<path d="M89.4,67.1c0.1,0,0.2,0,0.3,0.1c0.1,3.5-0.2,7-0.2,10.5c-0.1,0-0.2-0.1-0.3-0.2C89.4,74.1,89.4,70.6,89.4,67.1z"/>
	<path d="M186.2,67.3"/>
	<path d="M186.1,68.7c0.6-0.4,1-0.9,1.5-1.4c0,0.2-0.1,0.5-0.1,0.6c0,0-0.1,0.2-0.2,0.2c-0.1,0.1-0.2,0.2-0.2,0.2l-0.2,0l-0.1,0.1
		c-0.4,0.4-0.9,0.8-1.3,1.2c0-0.2,0-0.5,0-0.7l0.1,0l0.1-0.1C186,68.8,186.1,68.8,186.1,68.7z"/>
	<path d="M187.6,67.9c0.2-0.1,0.5-0.3,0.8-0.4c0,0.1-0.1,0.3-0.1,0.5c-0.5,0.3-0.7,0.8-1.2,1.1c0-0.1,0-0.4,0-0.6l0.2,0l0.1-0.2
		c0.1-0.1,0.2-0.2,0.2-0.2C187.4,68.1,187.5,68,187.6,67.9z"/>
	<path d="M183.8,69.7c0.6-0.7,1.2-1.4,1.9-2c-0.2,0.7-1.1,0.9-1,1.7c0,0-0.1,0-0.2,0c-0.4,0.4-0.8,0.9-1.3,1.3
		C183.2,70.3,183.5,70,183.8,69.7z"/>
	<path d="M184.7,69.4c0.6-0.4,1-1,1.5-1.5c0,0.2,0,0.5,0,0.7l-0.2,0l-0.1,0.2c-0.1,0-0.2,0.1-0.2,0.1c-0.5,0.4-0.9,0.8-1.4,1.3
		c0-0.2,0.1-0.6,0.1-0.8L184.7,69.4L184.7,69.4z"/>
	<path d="M184,68.4"/>
	<path d="M182.1,69.9c0.3-0.5,0.6-1.1,1.2-1.4c0,0.2-0.1,0.5-0.1,0.6c-0.3-0.1-0.5,0.1-0.4,0.4C182.6,69.6,182.3,69.8,182.1,69.9z"
		/>
	<path d="M183.2,69.1c0.1-0.1,0.4-0.2,0.5-0.3c0.1,0.3-0.2,0.6-0.5,0.7C183.2,69.5,183.2,69.2,183.2,69.1z"/>
	<path d="M130.6,69.6c-0.2-0.4,0.4-0.6,0.7-0.4c-0.1,0.1-0.2,0.3-0.3,0.4C130.9,69.6,130.7,69.6,130.6,69.6z"/>
	<path d="M185.4,70.4c0.5-0.4,0.9-1,1.5-1.3c0,0.1,0,0.3,0,0.4c-1.2,0.9-2,2.4-3.1,3.4c0-0.2-0.1-0.5-0.1-0.6l0.2,0l0-0.2
		c0.1,0,0.2-0.1,0.2-0.1c0.4-0.4,1-0.8,1.1-1.5C185.3,70.5,185.4,70.4,185.4,70.4z"/>
	<path d="M92.3,69.3c0.1,0.1,0.2,0.2,0.2,0.2c-0.1,4.8,0.2,9.6-0.1,14.4c-0.1,0-0.3-0.1-0.3-0.1C92.3,79,92.3,74.2,92.3,69.3z"/>
	<path d="M130.4,69.7c0,0,0.1-0.1,0.1-0.1C130.5,69.6,130.5,69.7,130.4,69.7z"/>
	<path d="M182.8,69.5c0.1,0,0.3,0,0.4,0c-0.6,0.8-1.2,1.6-2.1,2.1C181.5,70.8,182.5,70.4,182.8,69.5z"/>
	<path d="M187.5,70c0.2-0.2,0.4-0.3,0.7-0.4c0,0.5-0.4,0.9-0.8,1C187.4,70.5,187.5,70.1,187.5,70z"/>
	<path d="M184.7,70.7c0.1-0.4,0.4-0.7,0.8-1c0,0.2,0,0.5,0,0.7l-0.1,0l-0.1,0.1c-0.3,0.3-0.6,0.5-0.8,0.8l-0.1-0.2
		c-0.1-0.2-0.2-0.3-0.3-0.5c-0.2,0.5-0.6,0.9-1.1,1.2c0-0.2,0.1-0.5,0.1-0.6c0.6-0.2,0.9-0.7,1.2-1.1l0.1,0.1
		C184.5,70.4,184.6,70.6,184.7,70.7z"/>
	<path d="M187.9,70.6"/>
	<path d="M180.2,71.8c0-0.3,0.2-0.5,0.6-0.5C180.7,71.6,180.6,71.8,180.2,71.8z"/>
	<path d="M182,73.4c0.9-0.6,1.5-1.5,2.3-2.2c0,0.2-0.1,0.6-0.1,0.8l-0.1,0l-0.1,0.1c-0.1,0-0.2,0.1-0.2,0.2
		c-0.5,0.5-1.1,1.1-1.6,1.6c-0.1,0-0.2,0-0.2-0.1C181.9,73.7,182,73.5,182,73.4z"/>
	<path d="M179.9,72.6c0.3-0.2,0.6-0.4,1-0.6c-0.4,0.7-0.9,1.2-1.5,1.6c0-0.2,0.1-0.5,0.1-0.7c0.1,0,0.2-0.1,0.2-0.2
		C179.7,72.7,179.8,72.6,179.9,72.6z"/>
	<path d="M181.9,74.7c0.6-0.6,1-1.6,1.9-1.9c-0.5,0.7-1.1,1.3-1.6,1.9L181.9,74.7z"/>
	<path d="M214.5,72.7l0.3,0.1c0.2,2.5,0.4,4.9,0.4,7.4c-0.1-0.1-0.2-0.2-0.2-0.3C214.9,77.5,214.7,75.1,214.5,72.7z"/>
	<path d="M134.7,73.9c0.1-0.3,0.3-0.5,0.5-0.6c0,0.2,0,0.5,0.1,0.6c-0.2,0.2-0.3,0.3-0.5,0.5C134.8,74.3,134.7,74,134.7,73.9z"/>
	<path d="M185,74.7c0.4-0.3,0.7-0.7,1.2-1c-0.2,0.6-0.7,1.2-1.3,1.5C184.9,75.1,185,74.9,185,74.7c0,0,0-0.1,0-0.1L185,74.7z"/>
	<path d="M185.3,73.9L185.3,73.9c-0.1,0.2-0.2,0.5-0.2,0.6c0,0-0.1,0.1-0.1,0.2c-0.4,0-0.6,0.4-0.9,0.6c0-0.1,0.1-0.4,0.1-0.5
		c0-0.1,0.1-0.3,0.2-0.4c0,0,0.1-0.1,0.2-0.2C184.7,74.2,185.1,74,185.3,73.9z"/>
	<path d="M116.5,75.5c0.3,0,0.6-0.2,0.8-0.4c0.1,0.4,0.1,0.8-0.1,1.2l-0.2,0l-0.1,0.1c-0.1,0-0.4,0-0.5,0c0.2-0.2,0.3-0.4,0.5-0.6
		C116.8,75.8,116.6,75.7,116.5,75.5z"/>
	<path d="M116,76.5c0.1,0,0.3,0,0.4,0c-0.1,0.3-0.4,0.5-0.5,0.8c-0.1,0-0.3-0.1-0.4-0.1C115.6,76.9,115.9,76.7,116,76.5z"/>
	<path d="M102.3,83.4c4-2.4,8.1-4.8,12.2-6.9c-0.1,0.2-0.4,0.6-0.5,0.8c-2.1,0.8-4,2.2-6,3.2c-1.9,1-3.6,2.1-5.4,3.2
		c-2.5,1.7-5,3.3-7.5,4.9c-1.4,0.5-2.5,1.4-3.8,2.1c-1.3,0.8-2.5,1.7-3.8,2.4c-1.1,0.7-2.3,1.3-3.2,2.3c-0.1,0-0.3,0-0.4,0
		c0.3-0.6,0.9-0.9,1.4-1.2c1.2-0.8,2.4-1.5,3.7-2.3c2.5-1.7,5.1-3.1,7.7-4.6C98.5,85.8,100.4,84.6,102.3,83.4z"/>
	<path d="M114,77.2c0.1,0,0.3,0,0.4,0c-0.1,0.3-0.3,0.6-0.5,0.8l-0.2-0.1c-0.1,0.1-0.2,0.2-0.3,0.2c-1.1,0.6-2.1,1.2-3.2,1.7
		c0,0.1,0,0.3,0,0.5c1.1-0.7,2.5-1,3.2-2.1l0.2,0.1c0.1-0.1,0.2-0.2,0.3-0.2c0.5-0.3,1-0.8,1.6-0.8c-0.1,0.5-0.6,0.7-0.9,0.9
		c-0.9,0.5-1.6,1.2-2.5,1.7c-2,0.9-3.8,2.1-5.6,3.3c-0.6,0.3-1.1,1-1.7,0.7c0.8-0.6,1.7-1.1,2.6-1.7c0.9-0.6,1.8-1.3,2.8-1.7
		c-0.1-0.1-0.2-0.2-0.4-0.3c-3.2,2.2-6.7,4-9.9,6.2c-1.5,0.7-2.7,2-4.1,2.8c-0.9,0.7-2,1.3-3,2c-1.5,0.8-2.6,2-4.1,2.8
		c-1,0.6-1.7,1.9-2.9,2c2-1.6,3.9-3.2,6-4.6c2.2-1.5,4.5-2.9,6.6-4.5c1.5-0.9,2.9-1.8,4.3-2.8c2.3-1.3,4.5-2.8,6.8-4.1
		C111.1,79.1,112.7,78.4,114,77.2z"/>
	<path d="M109.5,77.6l0.2,0l0,0.2C109.6,77.7,109.5,77.6,109.5,77.6z"/>
	<path d="M108,78.7c-0.4-0.8,0.9-0.6,1.2-1.1C109.4,78.2,108.4,78.4,108,78.7z"/>
	<path d="M88.8,84.9c0-2.3-0.1-4.7,0.4-7c0.3,0.5,0,1.2,0,1.8c-0.1,1.7,0,3.4,0,5.2C89.1,84.9,88.9,84.9,88.8,84.9z"/>
	<path d="M150.9,81.2c1.1-0.8,1.9-2,3-2.8c0,0.2-0.1,0.6-0.2,0.8c-0.1,0-0.2,0-0.2,0c-0.9,0.8-1.6,1.9-2.6,2.6
		C150.8,81.6,150.8,81.3,150.9,81.2z"/>
	<path d="M103.9,80c0.6-0.2,1.2-1,1.9-0.5c-1.4,0.4-2.5,1.3-3.8,1.9c-1.8,1.1-3.7,2.1-5.5,3.2c-1.7,1.2-3.6,2.2-5.6,3
		c-1.5,0.9-3.1,1.7-4.4,2.8c-0.4,0.3-1,0.6-1.1,1.2c-0.1,0-0.3,0-0.4,0l-0.1,0.2c-0.3-0.1-0.7,0.1-0.7,0.5c0.3,0.1,0.7-0.1,0.7-0.5
		c0.1,0,0.4-0.1,0.5-0.2c0.6-0.2,1.1-0.7,1.6-1c0.8-0.4,1.6-0.7,2.2-1.2c0.4-0.4,0.8-0.8,1.3-0.9c1.4-0.4,2.5-1.3,3.8-1.9
		c1.1-0.7,2.2-1.1,3.2-2c0.7-0.7,1.6-0.9,2.4-1.3c1-0.5,1.7-1.3,2.7-1.8c0.8-0.4,1.6-0.8,2.5-1.2l0.2,0.3c-1.4,0.8-3,1.3-4.1,2.4
		c-1.4,0.8-3,1.4-4.2,2.7c-0.2,0.1-0.4,0.2-0.6,0.4c-0.1,0.1-0.3,0.2-0.4,0.3c-1,0.1-1.7,0.8-2.6,1.2c-1.2,0.8-2.7,0.9-3.7,2
		c-0.9,0.7-2.1,1-3,1.8c-0.9,0.7-2.3,0.9-2.9,2c-0.1-0.2-0.3-0.3-0.4-0.5c-0.1,0.1-0.4,0.2-0.6,0.3v-0.3c1.3-0.9,2.6-1.9,3.9-2.9
		c0.9-0.7,2-1.1,2.9-1.8c1.4-1,3.1-1.5,4.6-2.3c1.2-0.6,2.3-1.6,3.5-2.2C99.7,82.4,101.7,81,103.9,80z"/>
	<path d="M149.5,79.1c0.1,0.1,0.3,0.2,0.4,0.4c-0.9,0.5-1.6,1.3-2.3,2.1c-0.1-0.1-0.3-0.3-0.4-0.4C148.2,80.7,148.8,79.8,149.5,79.1
		z"/>
	<polygon points="151.4,80 151.6,79.9 151.5,80.1 151.3,80.2 	"/>
	<path d="M151.1,80.3l0.2-0.1c-0.1,0.1-0.2,0.2-0.2,0.3L151.1,80.3z"/>
	<polygon points="150.9,80.5 151.1,80.5 151,80.6 150.8,80.7 	"/>
	<polygon points="150.7,80.8 150.8,80.7 150.8,80.8 150.7,80.9 	"/>
	<path d="M149.2,82c0.5-0.4,0.9-1,1.5-1.1c-0.3,0.5-0.8,0.9-1.3,1.4c-0.5,0.6-1,1.2-1.8,1.5C148.1,83.1,148.7,82.7,149.2,82z"/>
	<path d="M154,81.8c0.3-0.3,0.6-0.7,1-0.9c-0.2,0.3-0.4,0.6-0.5,0.9c-0.2,0.2-0.4,0.4-0.7,0.6c0-0.1,0-0.4-0.1-0.5
		C153.9,81.9,154,81.8,154,81.8z"/>
	<path d="M150.4,82.5c0.7-0.3,1.1-1.1,1.8-1.5c-0.1,0.4-0.4,0.8-0.7,1.1c-0.3,0.3-0.6,0.6-0.9,0.9C150.5,82.9,150.5,82.7,150.4,82.5
		z"/>
	<path d="M153.8,81.2l0.4-0.1c0,0.2-0.1,0.5-0.1,0.7l-0.2,0l-0.1,0.1c-0.4,0.2-0.7,0.6-0.8,1c0,0.1-0.1,0.2-0.2,0.2
		c-0.1,0-0.2,0.2-0.2,0.2c-0.2,0.1-0.5,0.2-0.6,0.3c0.3-0.6,1-1,1-1.7c-0.8,0.7-1.6,1.5-2.1,2.5c-0.2-0.1-0.3-0.2-0.5-0.4
		c-0.1,0.1-0.2,0.4-0.3,0.5c0.2,0,0.5,0,0.6,0c-0.4,0.3-0.7,0.6-1,1c-0.1-0.1-0.4-0.3-0.5-0.4c0.2-0.4,0.4-0.8,0.7-1.1l0.1,0
		l0.1-0.1c0.5-0.5,1.4-1.1,1.5-1.9c0.2,0.1,0.4,0.2,0.7,0.2c0.3-0.4,0.7-0.7,1.1-1l0,0.5C153.5,81.6,153.6,81.4,153.8,81.2z"/>
	<path d="M114.3,81.8"/>
	<path d="M113.3,82.5c0.4-0.2,0.6-0.7,1.1-0.6c0,0.4-0.5,0.6-0.8,0.9c-1.8,1.1-3.6,2.2-5.5,3.2c-2.5,1.1-4.8,2.7-6.8,4.6
		c-2.1,1.8-4.3,3.5-5.6,6l-0.3,0.1c0-0.6,0.5-1.1,0.8-1.6c1.4-1.7,3-3.1,4.6-4.5c1.7-1.5,3.5-3,5.5-4.1
		C108.8,85.3,111,83.8,113.3,82.5z"/>
	<polygon points="150.4,83 150.6,83 150.5,83.2 150.3,83.2 	"/>
	<path d="M143,83.4"/>
	<path d="M149.5,84.1c0.1-0.4,0.5-0.8,0.9-0.9c0,0.3-0.1,0.6-0.3,0.9c0,0-0.1,0.1-0.2,0.1C149.8,84.1,149.6,84.1,149.5,84.1z"/>
	<path d="M137.8,83.7c0.4-0.1,0.5,0.1,0.5,0.5C137.8,84.3,137.7,84.1,137.8,83.7z"/>
	<path d="M151.9,83.8c0,0,0.1-0.1,0.1-0.1C151.9,83.7,151.9,83.8,151.9,83.8z"/>
	<path d="M101,86.2c1.2-0.8,2.4-1.7,3.8-2.4l0.1,0.3c-0.5,0.4-1.1,0.6-1.6,1.1c0.4-0.1,0.7-0.2,1.1-0.4l0,0.3
		c-0.6,0.5-1.7,0.5-1.9,1.4c-0.2-0.2-0.4-0.4-0.5-0.6c-0.1,0.4,0.2,1.1-0.5,1.2c0-0.2,0-0.5,0-0.7c-0.2,0.1-0.4,0.3-0.7,0.4
		c0,0.1-0.1,0.2-0.1,0.3c-1.6,0.5-2.8,1.8-4.1,2.8c-1,0.8-2,1.7-3,2.4c-1.1,0.8-1.9,2-3,2.8c-0.5,0.4-0.8,1.2-1.5,1.2
		c0.7-1,1.6-1.7,2.5-2.5c1.7-1.8,3.7-3.3,5.6-4.8C98.3,87.9,99.6,87,101,86.2z"/>
	<polygon points="147.5,83.9 147.6,83.9 147.6,84.1 147.4,84 	"/>
	<path d="M150.9,85.2c-0.1-0.6,0.6-1,1-1.4c0,0.1,0.1,0.3,0.1,0.5C151.6,84.6,151.2,84.9,150.9,85.2z"/>
	<path d="M146.1,85.5c0.3-0.7,0.8-1.1,1.4-1.5c0,0.2,0,0.6-0.1,0.8c0,0-0.2,0.1-0.2,0.1c-0.1,0.1-0.2,0.2-0.3,0.2
		c-0.1,0.1-0.2,0.2-0.3,0.2C146.5,85.4,146.2,85.5,146.1,85.5z"/>
	<path d="M104.3,84.8c0.1-0.1,0.2-0.2,0.3-0.2l0.2,0.1l-0.1,0.2C104.6,84.9,104.4,84.8,104.3,84.8z"/>
	<path d="M145.9,85.5l0.1,0c-0.1,0-0.2,0.1-0.2,0.1L145.9,85.5z"/>
	<path d="M96.2,85.8c0.2,0.1,0.4,0.2,0.5,0.3c-1.3,0.6-2.4,1.4-3.6,2.1c-3.4,2.1-7,4-10.5,6v-0.3c3.2-2,6.7-3.5,9.8-5.6
		c1.1-0.7,2.4-1.2,3.3-2.2l0.2,0C96,86.1,96.1,85.9,96.2,85.8z"/>
	<path d="M100.7,86.8c0.2,0.1,0.4,0.2,0.6,0.3c-0.2,0.1-0.5,0.2-0.6,0.3c-2.4,2-4.7,4.1-7,6.3c-0.9,0.9-1.6,1.8-2.5,2.6
		c-0.1-0.6,0.6-0.8,0.9-1.3c2.6-2.9,5.6-5.4,8.5-8.1C100.6,87,100.7,86.9,100.7,86.8z"/>
	<path d="M82.6,93.1l0.3-0.1c0,0.1,0.1,0.3,0.1,0.4c-0.1,0-0.3,0.1-0.4,0.1V93.1z"/>
	<path d="M105.9,94.4l0.3-0.1c-0.1,0.6-0.6,1-0.8,1.6c-0.1,0-0.2,0.1-0.3,0.1C105.3,95.4,105.7,94.9,105.9,94.4z"/>
	<g>
		<path d="M116.3,42.4c0.1-0.3-0.1-0.8,0.3-0.9c-0.1,2.1,0,4.1,0.1,6.2c0.2,1.5,0.1,3,0.2,4.4c0,1.9,0.2,3.8,0,5.7
			c0.3,1.9,0.1,3.8,0.1,5.7c-0.3,2.7,0.1,5.5,0.1,8.3c1.8-1.1,3.4-2.7,4.7-4.3c1,0.5,2,1,3,1.5c0.5,0.3,1.1,0.1,1.6,0
			c0.4,0.3,0.9,0.7,1.3,1.1c1.8-1,3.5-2.1,5.2-3.3c0.7-0.5,1.6-0.5,2.4-0.8c0.7-0.4,1.2-1.1,1.9-1.5c1.1,0.7,2.6,0.4,3.6-0.4
			c0.5-0.4,0.9-1,1.3-1.6c0.3,0.1,0.5,0.2,0.8,0.3c0.7-0.6,1.1-1.5,1.7-2.2c0.2-0.4,0.7-0.1,1-0.1c0.1-0.3,0.6-0.5,0.4-0.9
			c-0.1,0-0.4-0.1-0.5-0.2c0.2-3.1,0.2-6.3,0.4-9.4c0-2.8-0.1-5.5,0.1-8.3c0.1,0.1,0.2,0.3,0.2,0.3c-0.2,5,0,10.1-0.3,15.1
			c0,0.7-0.1,1.5,0.2,2.2c0.4-0.1,0.5-0.7,0.7-1c0.2-1.2,0.2-2.5,0.7-3.7c1.5-1.5,2.9-3.1,4.2-4.8c1.3-1.6,1.5-3.8,2.4-5.6
			c1.7,0.5,3.3,1.6,4.5,2.8c0.8,0.7,1.2,1.7,2,2.4c0.5-0.3,1.1-1.1,1.7-0.7c0.8,0.8,1.4,1.8,2,2.7c0.2-1.8,1.8-3.1,3.4-3.6
			c1.1-0.4,2.2-0.3,3.3-0.1c0.9,0.2,1.6,0.9,2.1,1.7c0.5,0.6,0.5,1.5,1,2.1c0.2-2,0.1-4.1,0.3-6.1c0.1-1,0-2,0.1-3
			c0.2,0.3,0.1,0.7,0.1,1.1c0,2.6,0,5.3-0.2,7.9c0,3.2-0.2,6.3-0.2,9.5l-0.3-0.2c-0.1-2.4,0.1-4.9,0.1-7.3c-0.5,0.3-0.5,1-0.9,1.5
			c0.3,1.5,0,3,0.1,4.5l-0.3,0c0-1.4,0.1-2.7,0.1-4.1c-1.2,0.8-2.4,1.7-3.9,1.8c0.3,1,0.9,1.8,1.8,2.3c0.6,0.2,1.3,0.3,1.8,0.9
			c0.6,0.5,0.7,1.5,1.5,1.7c0.9,0.4,1.7,1,2.6,1.5c1-0.6,2.2-1.2,3.4-1.3c0.7-0.1,1.2-0.6,1.8-0.9c0.6,0.5,1,1.2,1.8,1.3
			c0.4,0.1,0.8-0.2,1.2-0.1c0.5,0.4,0.6,1.4,1.2,1.5c0.6-0.4,0.7-1.2,1.1-1.8c1-0.6,2.6-0.5,3.1-1.8c0.2-0.3,0.4-0.8,0.8-0.5
			c0.6,0.4,1.2,0.8,1.7,1.3c0.4,0.6,0.5,1.2,0.9,1.8c0.3,0.7,1,1,1.6,1.4c0.9,0.6,1.6,1.5,2.6,2.1c0.6-0.6,1.2-1.2,1.8-1.8
			c0.5,0.3,1,0.7,1.4,1.1c0.9,0.6,0.6,2.1,1.6,2.5c0.6,0.3,0.6,1.1,0.9,1.7c0.8,1.6,1.8,3,3.2,4c0.4-0.2,1-0.8,1.4-0.3
			c0.8,1.3,2.1,2.1,2.9,3.3c0.5,1,1.5,1.4,2.2,2.2c0.8,0.6,0.9,1.8,1.8,2.4c1.4,1,2.3,2.5,3.6,3.6c1,0.8,2,1.7,3.2,2.3v0.9
			c-1.2-0.8-2.5-1.5-3.5-2.5c-1.2-1-2.3-2.2-3.2-3.4c-0.3,1.1,0.7,2.1,0.2,3.1c-0.4-1.2-0.8-2.4-1.1-3.6c-0.4-0.9-0.8-1.9-1.8-2.3
			c0,0.8,0.3,1.6,0.3,2.5c-0.4-0.1-0.4-0.6-0.5-0.9c-0.5-1.9-1.3-3.8-2.9-5c-0.7-0.5-1-1.3-1.7-1.8c-0.8,1-1.6,2-2.6,2.7
			c0-0.1,0-0.4,0-0.5c0.6-0.5,1.3-1.1,1.5-2c-1.5-1-2.5-2.6-3.6-4.1c-0.3-0.6-0.6-1.3-0.9-1.9c-0.4,0.5-0.5,1.2-1.2,1.5
			c0.1-0.7,0.6-1.3,0.5-2c0.1-0.9-0.5-1.6-1.1-2.2c-0.1,0-0.2,0-0.3,0c-0.2,0.8,0,1.6,0,2.4c-0.3,0.4-0.9,0.9-0.3,1.3
			c-0.1,0.2-0.2,0.5-0.3,0.7c0.4,0.2,0.7,0.5,1,0.8c0.8,0.1,1.5,0.7,2.1,1.2c0.3,0.2,0.4,0.6,0.4,1c-1.4,0-2.7-0.5-3.8-1.3
			c-0.5-0.4-1.3-0.4-1.9-0.7c-0.6-0.4-0.8-1.3-0.4-1.9c0.4-0.7,0.4-1.5,0.4-2.3c-0.3-0.3-0.7-0.7-1-1c0.2,0.6,0.5,1.2,0.3,1.9
			c-0.6-0.4-0.5-1.3-0.8-2c-0.1-0.8-1-1.1-1.5-1.6c0.1,1.2,0.7,2.4,0.7,3.6c-0.5-0.5-0.6-1.3-0.8-2c-0.5-1.6-1.1-3-1.9-4.5
			c-0.3-0.4-0.8-0.7-1.2-1.1c-0.1,0.8,0.1,1.7,0,2.5c-0.4,0.9-1.3,1.4-2,1.9c-0.1,0.3,0.4,0.4,0.6,0.6c-0.1,0.2-0.1,0.4-0.2,0.7
			c0.6-0.1,1,0.3,1.3,0.7c0.3-0.1,0.6-0.1,0.9,0c0.3,0.3,0.3,0.7,0.4,1c0.4,0,0.7,0,1.1,0c0.4,0.6,0.7,1.3,1.1,1.9
			c0.3,0.5,0.9,0.6,1.3,0.9c0.4,0.6,0.7,1.4,1.1,2.1c0.4,0.6,1.2,0.7,1.7,1.3c0.5,0.6,1.2,0.9,1.7,1.6c-0.9-0.4-1.6-1.1-2.3-1.7
			c-0.1,0-0.4-0.1-0.5-0.1c0.4,0.7,1,1.1,1.4,1.8c-1.6-1.1-2.4-3-3.3-4.7c-0.9-0.5-1.6-1.2-2-2.1c-1.1,0.5-1.9,1.5-3.1,1.7
			c-0.5,0.3-1.1,0.5-1.5,0.9c0.8,1,2.2,1.4,3.1,2.4c0.9,0.6,1.7,1.6,2.9,1.3c1.3-0.5,2.3,0.8,3.2,1.5c1.1,0.5,2.2,1.1,3.3,1.6
			c1,0.3,2.1,0.2,3.1,0.5c0.8,0.2,1.5,0.5,2.3,0.8c0.5,0.1,0.2,0.7-0.1,0.8c-1.9,0.6-3.9,0.2-5.8-0.2c-1.3-0.3-2.4-1.1-3.7-1.3
			c0.3,0.6,1.1,0.8,1.6,1.2c0.7,0.6,1.7,0.7,2.5,1.2c0,0.1,0.1,0.3,0.1,0.4c-0.9-0.1-1.8-0.5-2.6-1c-1-0.7-2.2-1-3.3-1.4
			c-1.9,0-3.4-1.3-5.2-1.6c-1.6,0.5-2.8,1.7-4.4,2.1c0.5-1,2.1-0.9,2.4-2c-1-0.3-2-0.4-2.9-0.7c0.3,0.4,0.8,0.6,1,1.1
			c-0.5,0.2-0.8-0.3-1.1-0.5c-0.9-1-2.2-1.8-3.5-1.5c-0.7,0.2-1.5-0.1-2.2,0.3c-0.4,0.2-0.9,0.3-1.4,0.1c0.4-0.2,0.9-0.3,1.3-0.5
			c-1-0.9-2.4-1.1-3.6-1.7c-1.2-0.7-2.7-0.8-4-1.4c-0.8-0.3-1.5-0.9-2.3-0.9c0,0.3,0,0.6,0,0.9c0.2,0.1,0.4,0.3,0.6,0.4
			c-0.1,0.3-0.1,0.6-0.2,0.8c0.9,0.8,2.1,1.2,3.3,1.3c0,0.3,0,0.7-0.1,1c0.5,0.2,1,0.2,1.4,0.3c0.4,0.1,0.6,0.5,0.9,0.8
			c0.9-0.1,1.8,0.2,2.3,0.9c0,0.1-0.1,0.3-0.2,0.4c-1.2,0-2.5,0-3.7-0.6c-0.2,0.7,0.5,1.2,0.7,1.9c0.3,0.8,0.8,1.4,1,2.1
			c-0.4-0.3-0.7-0.7-1.1-1c0.1,0.6,0.2,1.1,0.2,1.7c-0.7-0.8-0.3-2.2-0.8-3.1c-0.7-0.9-1.3-1.9-2.1-2.6c-0.7-0.2-1.4-0.3-2.1-0.6
			c0.4,0.8,0.8,1.6,1.2,2.4c-1-0.4-1-1.7-1.8-2.3c-0.9-0.6-1-2-2-2.4c0.1,0.4,0.2,0.8,0.2,1.1c-0.3-0.7-0.5-1.6-1.3-1.8
			c-0.9-0.3-2-0.8-2.9-0.2c-0.6,0.3-0.9,0.8-1.3,1.3c0-0.3,0-0.6,0-0.9c0.4-0.3,0.9-0.6,1.3-0.8c-0.7-0.9-1.5-1.8-2.3-2.7
			c-0.5-0.5-1.2-0.9-1.7-1.4c0,0.1-0.1,0.3-0.1,0.3c0.7,0,0.7,0.6,0.4,1c0.4,0,0.8,0,1.2,0.1c0.3,0.6-0.1,1.2-0.6,1.4
			c-0.7,0.3-1.4,0.7-1.7,1.4c0.3,0.5,0.9,0.6,1.4,0.6c0.5,1,1.6,1.5,2.2,2.4c0.4,0.6,1.3,0.4,1.8,0.9c0.3,0.5,0.5,1.2,1.1,1.4
			c0.4,0.2,0.8,0.5,1,0.9c1.1,0.4,2.3,0.7,3.4,1.1c-1,0.3-2-0.2-3-0.5c-0.7-0.1-1-0.9-1.6-1.1c-0.9-0.4-0.9-1.7-2-1.9
			c0.1,1.3,1.2,2.1,1.6,3.3c-0.4-0.3-0.6-0.8-0.9-1.2c-0.2,0.9-0.1,1.7,0.4,2.5c0,0.1-0.1,0.2-0.2,0.2c-0.3-0.7-0.8-1.4-0.7-2.3
			c0.2-2.1-1.6-3.6-3-4.9c-0.8,0.9-2,0.7-3,1.2c-0.4,0.4-0.7,1-1.2,1.3c-0.4,0.2-0.9,0.4-1.3,0.6c1.1,0.6,2.4,0.6,3.3,1.5
			c0.8,0.7,1.8,0.8,2.7,1.2c0.7,0.3,1.2,0.9,1.8,1.4c0.4,0.4,0.8,0.8,1.2,1.2c1.2-0.1,2.2,0.7,3.4,0.7c1.2-0.1,1.9,1.2,2.9,1.5
			c0.7,0.4,1.9,0.3,2.2,1.3c1.2,0.4,2.3,1,3.5,1.3c1.6,0.1,3.3-0.1,4.8,0.5c1.2,0.8,2.5,1.4,3.9,1.7c1.2,0.2,2.2,0.8,3.4,0.9
			c1.2,0.1,2.4,0.6,3.5,1c-0.5,0-0.9-0.1-1.4-0.3c-1.3-0.5-2.7-0.3-4-0.9c-1-0.4-2.1-0.5-3.2-0.9c-0.7-0.2-1.4-0.7-2.1-1
			c-0.5-0.3-1,0-1.5,0.1c-1.7,0.5-3.6,0.8-5.1,1.8c-1.1,0.6-2.2,1.3-3.3,1.9c-1.7,0.9-3.7,0.6-5.4,1.2c-1.8,0.3-3.7,0.3-5.6-0.2
			c-2.6-0.9-4.9-2.2-7.1-3.9c-0.9-0.5-1.8-1.1-2.9-1.1c-1.3-0.3-2.5-0.9-3.6-1.4c0.4,0.5,0.8,1,1.4,1.2c0.8,0.2,1.2,1.1,1.7,1.7
			c-0.6,0.2-0.9-0.6-1.3-1c-1.5,0-2.4-1.4-3.2-2.4c-0.9-1-1.8-2.1-2.6-3.1c-0.2-0.2-0.5-0.6-0.8-0.3c-0.9,0.9-1.9,1.7-2.8,2.6
			c-0.1,0-0.2,0-0.3-0.1c0.7-0.8,1.4-1.7,2.2-2.5c0.1-0.4-0.4-0.6-0.6-0.8c-0.7-0.6-1.2-1.4-1.9-2c-0.1,0.9,0.6,1.7,0.6,2.6
			c-0.6-0.6-0.7-1.5-1-2.3c-0.4-1.6-1.5-2.9-2.2-4.4c-0.6-0.8-1.2-1.6-1.9-2.3c-0.3-0.5-1-0.1-1.2,0.3c-0.3,1.2,0.7,2.1,0.9,3.2
			c0.1,0.8,0.6,1.5,0.8,2.3c-0.2-0.1-0.6-0.3-0.7-0.4c0,1.1,0.1,2.1,0.3,3.2c0.1,0.3,0,0.5-0.2,0.7c-0.6-1.3-0.5-2.7-0.6-4.1
			c0-1.7-0.7-3.2-1.4-4.6c-0.4-0.6-1-1.2-1.4-1.7c-1-1.1-1.9-2.3-3.1-3.2c0.2,0.3,0.3,0.6,0.4,0.9c-1.3-0.8-2.7-1.3-4-2.1
			c0,0.5,0,1.1,0,1.7c-0.2,0.8-0.5,1.6-0.7,2.4c-0.9,0.8-1.9,1.6-2.7,2.5c0.8,0,1.6-0.3,2.4-0.5c0.8,0.8,1.6,1.6,2.5,2.3
			c0.6,0.5,0.7,1.4,1.4,1.8c0.8,0.4,1.3,1.2,2.1,1.7c0.6,0.8,1.2,1.5,1.9,2.3c0.8,1.3,2.2,2.2,3,3.6c-2.1-1.5-3.4-3.9-5.2-5.7
			c-0.7-0.4-1.2-1.1-1.9-1.5c-0.8-0.4-0.8-1.4-1.5-1.9c-0.7-0.6-1.2-1.3-2-1.7c-1.1,1.3-2.6,2.2-4,3.2c-0.9,0.6-2,0.8-2.7,1.6
			c0.7,0,1.4-0.3,2-0.7c0.6,0.3-0.3,0.9-0.4,1.3c0.6,0.2,1.2,0.6,1.9,0.4c0.9-0.2,1.9-0.1,2.9-0.2c0.7-0.1,1.5,0.1,2.2,0.3
			c0.5,0.5,0.7,1.3,1.5,1.4c1.1,0,2.1,0.4,3,1c0.6,0.5,0.9,1.2,1.5,1.7c2.3,1,4.3,2.6,6.6,3.7c-0.1,0-0.2,0.1-0.3,0.1
			c-0.9-0.3-1.8-0.8-2.7-1.2c0.1,0.6,0.6,1.1,1.1,1.3c0.8,0.4,1.5,1.1,2.2,1.6c-0.1,0.1-0.2,0.1-0.3,0.2c-0.7-0.9-1.7-1.3-2.6-1.9
			c-0.6-0.5-0.8-1.3-1.3-1.9c-1-0.6-2-1.1-3-1.6c-0.7-0.6-1.1-1.6-2-1.9c-0.8-0.4-1.6-0.5-2.5-0.7c-0.9-0.1-1.1-1.3-2-1.5
			c-0.8-0.3-1.6-0.2-2.5,0c0,0.3,0,0.6,0,0.9c-1,1-2.3,1.6-3.6,2.2c-1.2,0.4-2.6,0.6-3.9,0.6c-0.3,0-0.5,0.1-0.8,0.2
			c0.7,0.3,1.6,0.1,2.3,0.4c0.8,0.1,1.2,0.8,1.9,1.2c0.5,0.3,1,0.5,1.4,0.8c1,0.7,2.1,0.9,3.2,1.5c0.5,0.2,0.8,0.7,1.3,1
			c1.7,0.2,3.2,1,4.6,1.8c0.3,0.2,0.8,0.2,0.8,0.6c-1.2,0-2-1-3.1-1.3c-0.8-0.5-1.8-0.5-2.7-0.8c-1.1-1.3-3-1.6-4.4-2.6
			c-0.3-0.2-0.6-0.3-1-0.4c0.5,0.9,1.5,1.2,2.2,1.8c0.5,0.5,1.1,0.7,1.6,1.2c-0.7-0.2-1.4-0.6-2-1c-0.7-0.6-1.7-0.9-2.2-1.8
			c-0.3-0.7-1-1.2-1.6-1.6c-0.1,0.2-0.3,0.5-0.3,0.7c-0.6,0.2-1.2,0.4-1.7,0.7c-0.4,0.4-0.5,1-1,1.2c-0.7,0.3-1.4,0.5-2.1,0.8
			c-1.1,0.2-2.2,0-3.2,0.6c-0.9,0.3-1.7,1-2.5,1.5c0,0.2,0,0.5,0.1,0.7c1.9,0.7,3.8,1.7,5.9,1.8c1.6,0.2,3.3,0.2,4.9,0.1
			c1.9,0.4,3.8,1,5.6,1.5c1.9,0.5,3.8,0.4,5.7,0.8c1.5,0.3,3-0.2,4.4,0.2c0,0.4,0.2,0.6,0.6,0.7c-0.5,0-1,0-1.5-0.2
			c-0.7,0.4-1.4-0.4-2,0.1c-2.9-0.8-6-0.5-8.9-1.5c-1.1-0.4-2.3-0.5-3.4-1.1c0,0.1-0.1,0.4-0.1,0.6c-0.2-0.2-0.4-0.5-0.7-0.7
			c-0.4,0-0.3,0.6-0.5,0.8c-0.2-0.4-0.2-0.9-0.8-0.8c0,0.2-0.1,0.6-0.1,0.8c-0.1-0.2-0.2-0.5-0.3-0.7c-0.2,0-0.5,0-0.6,0
			c-0.1,0.3-0.2,0.5-0.3,0.8c-0.1-0.3-0.2-0.5-0.2-0.8c-0.2,0-0.5,0-0.7,0c-0.1,0.3-0.2,0.6-0.3,0.8c-0.1-0.3-0.2-0.6-0.2-0.9
			c-0.2,0-0.6,0-0.8,0c-0.1,0.4,0,0.9-0.4,1.1c0-0.4,0.1-0.8,0.1-1.2c-0.9-0.4-1,0.6-1.3,1.2c-0.3-0.4,0.1-0.8,0.2-1.2
			c-0.2-0.1-0.5-0.2-0.7-0.3c-0.4,0.5-0.4,1.2-0.9,1.6c0.1-0.5,0.3-1.1,0.4-1.6c-0.6,0-1.2-0.4-1.8-0.4c-0.3,0.7-0.5,1.5-1,2.1
			c-0.1,0-0.2,0.1-0.3,0.1c0.2-0.9,0.9-1.6,1.1-2.5c-0.9,0.4-1.2,1.5-1.7,2.2c-0.1,0-0.3,0-0.3,0c0.4-0.8,0.9-1.6,1.4-2.3
			c-0.1-0.1-0.4-0.3-0.5-0.3c-0.9,0.9-1.5,2.1-2.3,3c-0.2-0.6,0.4-1,0.7-1.4c0.4-0.7,1.2-1.2,1.2-2c-1.6,0.9-2.7,2.4-3.7,3.9
			c0-0.1-0.1-0.3-0.2-0.3c1-1.3,2-2.6,3.3-3.6c0.1-0.4,0-0.7,0.2-1.1c0.7-0.5,1.4-1.1,2.2-1.5c1.1-0.5,1.9-1.4,3-1.9
			c1.2-0.5,2.2-1.2,3.1-2c0.1-0.1,0.2-0.3,0.2-0.5c-0.7-0.1-1.2,0.4-1.8,0.7c-2.1,1.1-4.2,2.3-6.1,3.8c-2.3,1.7-4.2,3.8-6.3,5.9
			c-0.3,0.4-0.7,0.8-1,1.2c0.2-1,1.1-1.5,1.7-2.2c2-2.4,4.3-4.5,6.9-6.3c1.8-1.2,3.6-2.1,5.5-3.2c1.4-0.7,2.5-1.9,3.8-2.9
			c0.5-0.6,1.4-1.2,1.4-2.1c-0.4,0.5-0.7,1.1-1.3,1.4c0.1-0.2,0.3-0.7,0.4-1c-1.4,1.4-3.2,2.1-4.9,3c-1.6,0.9-3.3,1.5-4.8,2.6
			c-2.2,1.2-4.1,2.9-5.9,4.5c-2,1.5-3.1,3.9-4.7,5.7c0.2-0.6,0.5-1.2,0.9-1.7c0.9-1.2,1.7-2.6,2.8-3.6c2.1-1.9,4.2-3.8,6.6-5.2
			c1.4-1,3.1-1.6,4.7-2.5c1.7-0.9,3.6-1.6,5-2.9c-0.1-0.1-0.3-0.3-0.3-0.4c-2.2,1.5-4.5,2.7-6.9,3.9c-2,1.1-3.9,2.3-5.8,3.6
			c-2.1,1.8-4.4,3.4-6,5.7c-0.9,1-1.5,2.1-2.3,3.1c0-0.4,0.2-0.8,0.4-1.1c1.7-2.4,3.6-4.7,6-6.5c2-1.8,4.2-3.2,6.6-4.5
			c-0.1-0.1-0.3-0.3-0.4-0.4c-0.1,0.5-0.6,0.6-1,0.6c0.3-0.8,1.7-0.7,1.7-1.6c0.4,0.2,0.7-0.1,1-0.3c1.3-0.8,2.5-1.7,3.9-2.3
			c1.1-0.5,2.1-1.2,3.1-1.9c0.6-0.4,1.2-0.8,1.5-1.4c0.4,0,0.9-0.4,1-0.8c0.1,0,0.2-0.1,0.3-0.1c0.2-0.2,1-0.6,0.6-0.8
			c-0.1,0.1-0.4,0.2-0.5,0.3c-0.1-0.4,0-0.8,0.1-1.2c0.1,0,0.2-0.1,0.3-0.2c0.2-0.2,0.2-0.2,0,0c-0.1,0-0.2,0.1-0.3,0.2
			c-0.3,0.3-0.9,0.4-1,0.8c-0.1,0.1-0.4,0.2-0.6,0.3c0.1,0.1,0.3,0.2,0.4,0.2c-0.1,0.1-0.2,0.3-0.3,0.4c-0.6,0-1,0.7-1.6,0.7
			c0.1-0.2,0.3-0.4,0.4-0.6l-0.4-0.1c0.5-0.5,1.1-0.9,1.8-1.3c-0.1-0.1-0.2-0.2-0.4-0.3c-1.3,1.2-3,1.5-4.4,2.6
			c-1.9,0.9-3.6,2.2-5.5,3.1c-2.9,1.9-6.1,3.3-9,5.4c0-0.1-0.1-0.4-0.2-0.5c0.4,0.1,0.7-0.2,1-0.4c2-1.3,4.2-2.4,6.3-3.6
			c1.1-0.8,2.3-1.5,3.6-2.1c1.9-1.2,3.9-2.2,5.8-3.3c0.1-0.1,0.2-0.2,0.2-0.3l0.2,0.1c0.1-0.1,0.2-0.2,0.3-0.3
			c0.1-0.1,0.4-0.2,0.5-0.2c0.1-0.1,0.4-0.2,0.5-0.3c0-0.1,0.1-0.2,0.2-0.2c0.3,0.1,0.8-0.1,0.7-0.5c-0.3-0.1-0.6,0.2-0.7,0.5
			c0,0.1-0.1,0.2-0.2,0.2c-0.1,0.1-0.4,0.2-0.5,0.3c-0.1,0-0.3,0.1-0.4,0.1l-0.1,0.2c-0.1,0.1-0.4,0.2-0.5,0.2
			c-0.8,0.3-1.6,0.6-2.3,0.9c-0.6,0.3-1.1,0.8-1.8,0.9c0.1-0.2,0.3-0.5,0.4-0.7c-0.5,0.3-1.1,0.5-1.6,0.7c-0.4,0.4-0.6,0.8-0.8,1.3
			c-0.8,0.4-1.6,0.9-2.4,1.3l-0.3-0.1c0.6-0.4,1.2-0.6,1.7-1.1c-0.4,0-0.9,0.2-1-0.3c-1.2,0.6-2.4,1.2-3.5,1.8
			c-0.1-0.1-0.3-0.2-0.3-0.3c-0.3,0.3-0.6,0.6-0.8,0.9c-2.1,1.3-4.4,2.2-6.5,3.6c-1.7,1.1-3.6,1.8-5.3,2.8c-1.3,0.4-2.2,1.7-3.4,2.3
			c-1.2,0.7-2.1,1.6-3.2,2.3v-0.8c0.6-0.6,1.2-1.2,2-1.5c1.5-0.8,2.3-2.4,3.9-3.1c0.9-0.3,1.4-1.3,2.3-1.8c0.5,0,1,0.3,1.5,0.5
			c2-1.7,4.3-2.9,6.6-3.9c1.2-0.6,2.2-1.5,3.1-2.5c0.2,0.1,0.5,0.2,0.7,0.2c1-0.4,2-0.9,3-1.3c0.5,0.1,0.9,0.3,1.3,0.3
			c0.7-0.9,1.5-1.7,2.3-2.5c0.9-0.7,1.9-1.2,2.6-2.1c0.5-0.7,1.1-1.3,1.9-1.7c0.6,0.7,1.4,1.3,2.3,1.6c0.5-0.5,0.9-1,1.2-1.5
			c-0.3-0.2-0.4-0.4-0.4-0.8c0-2.3-0.1-4.6,0.1-6.9c0.1-2.2,0.1-4.4,0-6.7c0.1-3.1-0.1-6.1-0.2-9.2
			C116.3,46.4,116.3,44.4,116.3,42.4z M154.8,45.4c0.1,0.8,0.2,1.6,0.1,2.4c0.2,0,0.5,0,0.7,0.1c0.2,1.3-0.7,2.4-1,3.6
			c0.4,0,0.8,0.3,1.2,0.4c0.5,0,0.9-0.5,1.5-0.5c1.1,0.5,2.1,1.4,2.4,2.6c0.2,0.6,0.7,1,0.8,1.6c0.2,1.2,1.2,2,1.6,3.1
			c0.2,0.6,0.9,0.9,1.1,1.4c-0.6-0.3-1.1-0.8-1.4-1.4c-0.6-1.1-1.5-2-1.7-3.3c-0.8-1.1-1-2.6-2.3-3.3c-0.4,0.7-0.7,1.5-1.5,1.8
			c-0.9,0.3-1.7,0.7-2.4,1.3c0.3-0.1,0.7-0.2,0.9,0.1c0.8,0.7,1.7,1.2,2.5,1.8c0.2,0.4,0.4,0.8,0.5,1.1c1.4,0.5,2.1,1.9,2.9,3
			c1.2,1,2.3,2,3.7,2.7c0.5,0.4,1,0.8,1.7,0.9c-0.1,0.2-0.3,0.3-0.5,0.2c-0.7-0.3-1.2-0.9-2-1.1c0.4,0.8,1.3,1.3,1.6,2.1
			c0.4,1,1.4,1.4,1.9,2.3c-0.8-0.6-1.7-1.3-2.2-2.3c-0.5-1-1.5-1.6-2.1-2.6c-0.8-0.8-1.8-1.4-2.6-2.1c-0.7-0.7-1.7-0.8-2.4-1.5
			c-0.5-0.5-1.5-0.6-1.8,0.1c0.1,1.4-1.6,1.7-2.2,2.6c0.6,0.3,1,0.8,1.7,0.8c0.7,1.1,2.4,1.2,3,2.4c-0.8-0.5-1.6-1-2.5-1.4
			c-0.4-0.4-0.8-0.8-1.4-0.8c-0.2-0.2-0.4-0.3-0.6-0.5c-0.7,0.5-0.8,1.6-1.5,2c-0.3,0.2-0.7,0.4-0.9,0.8c0.5,0.1,0.7,0.7,1.2,0.9
			c0.7,0.2,1.4,0.6,2.2,0.8c0.5,0.1,1.1,0,1.5,0.5c-0.9,0.1-1.8-0.2-2.6-0.3c-0.1,0.3-0.3,0.6,0,0.9c0.2,0,0.5-0.1,0.7-0.1
			c0.6,0.5,1.3,0.8,1.9,1.1l0,0.2c-0.7-0.1-1.2-0.5-1.9-0.6c0.1,1.1-0.2,2.3-1.1,3.1c0.8,0,1.6-0.5,2.4-0.2c0.3-0.8,0.4-1.8,1-2.4
			c0.6-0.7,1-1.6,1.7-2c1.3,0.9,2.6,2,3.6,3.2c0.9,0.9,2,1.9,3.4,1.8c0.9-0.4,1.9-0.7,2.6-1.4c0.3-0.4,0.8-0.6,1.3-0.3
			c1.4,0.9,3.1,1.4,4.6,2c0.6,0.2,1.1,0.2,1.6,0.5c1.2-0.9,2.4-1.9,3.4-3c-0.2-0.5-0.6-0.7-1-1c-0.3-0.6-0.7-1.2-0.7-1.9
			c0.1-0.5,0.4-1,0.3-1.5c-0.5-0.5-1.2-0.9-1.2-1.8c-0.7-0.6-1.5-1.2-2.4-1.3c-0.5,0.7,0.1,1.6-0.2,2.4c-0.6-0.3-0.3-1-0.5-1.5
			c0-1.3-0.7-2.4-1.5-3.4c-0.8-0.2-1.5-0.5-2.1-1c0.2,1.1,0.9,2,0.6,3.2c-0.4-0.6-0.3-1.4-0.7-2c-0.7-1.3-0.7-2.9-1.6-4.1
			c-0.8-0.7-1.1-1.7-1.6-2.6c-0.3,0.1-0.5,0.4-0.8,0.4c-0.3-0.2-0.5-0.5-0.8-0.6c-0.4,1,1,2.1,0.3,3c-0.2-0.8-0.5-1.6-0.8-2.4
			c-0.1-1-0.5-1.8-0.9-2.7c-0.4-0.7-1-1.3-1.4-2c-0.4-0.1-0.9,0-1,0.5c-0.1,0.7,0.3,1.3,0.5,2c0.3,0.8,1.1,1.3,1.4,2.1
			c0.3,0.8,0.6,1.6,1.1,2.4c0.5,0.6,1,1.2,1.2,1.9c-0.6-0.1-0.9-0.9-1.2-1.3c-1-1.2-1.1-3.1-2.6-3.9c-0.4-0.8-0.8-1.7-1.2-2.5
			c-0.8-0.6-0.9-1.6-1.5-2.3c-0.6-0.9-1.6-1.4-2.4-2.1C155.9,45.9,155.3,45.7,154.8,45.4z M166,49.7c-0.9,0.5-1.1,1.7-1.1,2.6
			c0.2,0.5,0.6,1,1.1,1.1c0.2-0.2,0.5-0.6,0.9-0.4c0.7,1,1,2.3,2,3.1c1.2,0,2.4-0.5,3.4-1.2c0.9-0.9,1.6-2.3,1.1-3.6
			c-0.2-1.3-1.1-2.2-2.2-2.8C169.4,47.9,167.4,48.5,166,49.7z M154.8,48.6 M154.8,53.5 M154.1,53.8c0,0.1,0,0.3,0,0.4l0.2,0
			c0-0.1,0-0.3,0-0.4L154.1,53.8z M152.1,55.7l0,0.1l-0.2-0.1c-0.2,0.4-0.2,0.9-0.6,1.1c0-0.2,0.1-0.6,0.1-0.8
			c-0.4,0.2-0.4,0.8-0.4,1.2l-0.3,0c0,0.2,0.1,0.5,0.1,0.6c-0.1-0.1-0.4-0.4-0.6-0.5l0,0.4l-0.5,0c0.2-0.5,0.5-1,0.7-1.5
			c-0.4,0.1-0.4,0.6-0.9,0.7c0.2-0.5,0.6-0.9,0.7-1.5c-0.2,0.2-0.6,0.5-0.8,0.7c0.1-0.4,0.1-0.7-0.1-1c-0.3,0.3-0.7,0.1-1.1,0.1
			c0,0.2,0.1,0.4,0.1,0.6c0.2-0.2,0.5-0.4,0.9-0.4c0.1,0.6-0.6,1-0.7,1.5c0.2-0.1,0.5-0.3,0.7-0.4c-0.1,0.4-0.3,0.8-0.4,1.2
			c0.2-0.2,0.6-0.5,0.8-0.6c-0.2,0.7-0.7,1.2-1,1.9l-0.3,0c0.2-0.3,0.3-0.6,0.4-0.9c-0.2,0.1-0.5,0.3-0.6,0.4c0.1-0.6,0.6-1,0.7-1.5
			c-0.9,0.9-1.3,2.2-1.9,3.3c0.7-0.1,0.5-1.1,1.1-1.2c0,0.2-0.1,0.7-0.1,0.9l-0.4-0.1c0.2,0.2,0.7,1.1,0,0.9c0-0.1-0.1-0.4-0.1-0.5
			c-0.3,0.5-0.6,1-1,1.4l0.6-0.2c-0.2,0.5-0.5,0.8-0.9,1.2c-0.1,0.5-0.7,0.7-0.9,1.1c0,0-0.1,0.1-0.2,0.2c-1.1,1.2-2.6,2.2-3.5,3.6
			l0.3,0.1c1-0.7,1.5-1.9,2.6-2.5c-0.5,1-1.5,1.7-2.1,2.6c0.3,0.1,0.7,0.2,1,0.2c1.6-1.8,2.8-3.8,4.3-5.6c0.3-0.6,1-1.1,0.9-1.9
			l0.1,0.1c0.1-0.1,0.4-0.4,0.5-0.5c-0.1,0.5-0.3,1-0.6,1.4c-1.6,2.3-3.5,4.5-5,6.9c0.4,0,0.8,0,1.3-0.1c1.3-1.8,2.3-3.8,3.5-5.6
			c0.4-0.7,0.8-1.4,1.1-2.1l0.3,0c-0.1,0.5-0.4,0.9-0.4,1.3c0.1-0.1,0.2-0.4,0.3-0.5l0.3-0.1c0,0.2-0.1,0.6-0.1,0.8
			c0.2-0.2,0.4-0.4,0.6-0.6c0,0.2,0,0.7,0,0.9l-0.2-0.2c-1,2.4-2.2,4.8-3.3,7.1l0.5,0c0.6-1,1-2.1,1.5-3.1c0.3-0.5,0.3-1.1,0.7-1.5
			c0,0.2,0,0.6-0.1,0.8c0.6,0,0.4-0.9,0.9-1.1c0,0.2,0,0.5,0,0.7c0.2-0.1,0.3-0.3,0.5-0.5c-0.2,1.3-0.8,2.6-1.4,3.8
			c-0.8,2.3-2,4.6-3,6.8c-0.2,0.4-0.6,0.9-0.5,1.4c0.4,0,0.5-0.4,0.7-0.7c1.6-3.6,3.2-7.2,4.5-10.9c0.8-1.8,1.1-3.8,2-5.5
			c-0.2-0.2-0.5-0.3-0.8-0.5c0-0.1,0.1-0.4,0.1-0.5c0.1,0,0.2-0.1,0.2-0.1c-0.4,0.1-0.7-0.9-0.8-0.1l-0.2,0.1c0-0.2,0-0.5,0-0.6
			c0.4,0,0.4-0.5,0.6-0.8c0.1,0,0.2-0.1,0.3-0.1c0-0.4,0-0.7,0.1-1C152.4,56,152.3,55.8,152.1,55.7c0.3-0.2,0.6-0.6,0.4-0.9
			C152.2,54.8,152,55.4,152.1,55.7z M150.7,55.3c-0.2,0.2-0.4,0.6-0.3,0.8C150.7,56.3,151.2,55.4,150.7,55.3z M155,55.8
			c-0.2,0.3-0.3,0.6-0.6,0.7c-0.6,0.4-1.1,0.9-1.8,1.2c0.4,0.2,0.5,0.6,0.4,1c0.2,0,0.5,0,0.7,0c0.7,0.6,1.7,0.9,2.6,0.5
			c0.7-0.3,1.5,0,1.9,0.5c0.4,0.5,1.1,0.5,1.6,0.8c-0.3-0.5-0.7-1-1-1.4c-0.4-0.4-1.2-0.5-1.4-1.1C157.1,56.9,155.9,56.5,155,55.8z
			 M145.7,61.7c-0.2-0.1-0.3-0.3-0.4-0.4c-0.1,0.2-0.3,0.3-0.5,0.5c0.2,0.1,0.4,0.2,0.5,0.4c-1.3,0.7-2.1,2.1-3.3,2.9
			c-0.2-0.1-0.4-0.3-0.6-0.4c-0.1,0.1-0.3,0.2-0.3,0.3c0.1,0.1,0.3,0.2,0.3,0.3c-0.1,0.1-0.3,0.2-0.4,0.3l0.5-0.1
			c-0.1,0.5-0.6,0.7-1,0.9c0-0.1,0-0.4,0-0.5c-0.1,0.1-0.4,0.2-0.5,0.3c0-0.1,0-0.4,0-0.5c-0.1,0.1-0.3,0.2-0.4,0.3
			c-0.2-0.2-0.4-0.3-0.7-0.3c0.3,0.2,0.3,0.7,0.6,0.7l0-0.4c0.4,0.2,0.8,0.4,1.3,0.6c0.5-0.6,1.2-1,1.7-1.5c0.2-0.2,0.5-0.7,0.8-0.4
			c-0.7,0.7-1.5,1.4-2.3,2c-0.4,0.1-0.2,0.7,0.2,0.6c1.5-1.6,3.3-2.9,4.6-4.7l0.3,0.1c0-0.2,0.1-0.6,0.1-0.8
			c-0.2,0.1-0.6,0.4-0.8,0.6c0.3-0.6,1-1,1.2-1.6C146.1,61.1,145.7,61.3,145.7,61.7z M153.3,61c-0.1,0.4-0.2,0.9-0.2,1.4
			C153.6,62.3,153.8,61.1,153.3,61z M149,61.9c-1.3,2.2-2.5,4.4-4,6.5c-0.2,0.4,0.3,0.7,0.7,0.7c0.1,0.2,0.3,0.5,0.4,0.7
			c0.6-1,1.1-2.1,1.6-3.1c0.4-1.1,1-2,1.2-3.1c-0.4,0.1-0.4,0.6-0.5,0.8c-0.8,1.6-1.6,3.1-2.5,4.7l-0.2-0.2c1.2-1.9,2.2-4,3.2-6
			c0.1-0.3,0.4-0.6,0.3-0.9L149,61.9z M152.1,64.4c0.4-0.4,0.2-1.2,0.7-1.6c0,0.2,0,0.7,0,0.9c0.2-0.2,0.2-0.5,0.3-0.8
			c-0.5-0.1-0.3-0.6-0.4-1C152.4,62.7,152,63.5,152.1,64.4z M149.4,62.2c-0.4,0.5,0.6,0.5,0.2,0L149.4,62.2z M182.1,62.2
			c-0.4,0.6-0.8,1.1-1.2,1.7c0.4,0.3,1,0.2,1.5,0.3c0,0.3,0,0.6,0,0.9c-0.3,0.3-0.6,0.6-1,0.9c0,0.4,0.2,0.9-0.1,1.3
			c-0.5,0.7-0.4,1.7-1.1,2.2c0,0,0.1,0,0.2,0c1.3-1.8,3.1-3,4.7-4.6c-0.2-0.6-0.4-1.2-0.8-1.7c-0.4,0-0.8-0.1-1.2-0.1
			c-0.3,0.2-0.6,0.5-1,0.4c0.1-0.3,0.4-0.5,0.6-0.7C182.6,62.6,182.4,62.4,182.1,62.2z M187.3,65.3c0.1-0.2,0.2-0.6,0.3-0.8
			c-0.4,0.1-0.7,0.5-1,0.7c0-0.1,0-0.4,0-0.6c-0.9,0.9-2,1.8-2.7,2.9l-0.3,0l0,0.4l0.5-0.2c-0.2,0.3-0.4,0.6-0.7,0.7l0.1-0.5
			c-1.1,0.7-1.8,2-2.9,2.7c0.1-0.1,0.2-0.4,0.2-0.5c-0.7,0.2-1.2,0.8-1.5,1.4c0.1,0,0.4-0.1,0.6-0.1c-0.4,0.7-1.2,1.2-1.8,1.9
			L178,73c-0.3,0.3-0.5,0.5-0.9,0.7c0.1,0.2,0.4,0.3,0.6,0.5c0.8-0.7,1.5-1.6,2.3-2.3c0,0.2-0.1,0.5-0.2,0.6c0,0-0.1,0.1-0.2,0.2
			c-0.1,0-0.2,0.1-0.2,0.2c-0.4,0.3-0.9,0.6-1.1,1.1c0.1,0,0.4-0.1,0.6-0.1c-0.3,0.3-0.4,0.6-0.3,0.9c0.1,0,0.3-0.1,0.5-0.1
			c1.1-1.3,2.2-2.7,3.6-3.7c-0.2,0.7-0.9,1-1.4,1.5c-0.7,0.8-1.5,1.6-2.2,2.5c0.7,0.1,1-0.8,1.5-1.1c0.7-0.4,1-1.4,1.8-1.7
			c-0.1,0.1-0.4,0.4-0.6,0.5c0,0.2,0,0.5,0,0.7c-0.9,0.3-1.4,1.3-2.1,1.9c0.2,0,0.6-0.1,0.8-0.1c0.3-0.5,0.6-1,1.2-1.3
			c-0.1,0.6-0.6,0.8-0.8,1.4c0.4,0,0.6-0.3,0.8-0.6c0,0.2,0.1,0.5,0.2,0.6c0.2-0.2,0.4-0.3,0.6-0.5c1.4-1.7,2.9-3.2,4.3-5l0-0.3
			l0.2,0.3c0.4-0.3,0.6-1.1,1.2-1c0-0.2-0.1-0.5-0.1-0.7l0.2,0.2c0.3-0.4,0.7-0.7,0.8-1.2c-0.3,0.1-0.6,0.3-0.8,0.5
			c0-0.2-0.1-0.6-0.2-0.7c0.3-0.3,0.6-0.6,0.8-0.9c-0.4,0-0.6-0.2-0.6-0.6c-0.8,0.4-1.2,1.2-1.8,1.7c0-0.1-0.1-0.4-0.1-0.5l0.2,0
			l0.1-0.2c0-0.1,0.1-0.2,0.2-0.3c0,0,0.1-0.1,0.1-0.2c0.1,0.1,0.2,0.2,0.2,0.2c0.5-0.8,1.1-1.8,2.1-1.9c0.8-0.4,1.1-1.2,1.2-2
			C189.3,63,188.5,64.3,187.3,65.3z M187.9,63.2c0,0.6-0.9,0.8-1.1,1.4c0.6,0,1-1.3,1.5-0.7c-0.2-0.8,0.6-1,0.9-1.6
			C188.6,62.4,188.4,63.2,187.9,63.2z M187.6,62.8c-0.2,0.4-0.1,0.5,0.3,0.4C188,62.8,187.9,62.7,187.6,62.8z M149.1,63 M148.9,63.6
			 M177.7,64.2c-0.4,0-0.5,0.4-0.7,0.7c0.8,0,1.5-0.7,2.3-0.8c-0.4,0.5-1.1,0.6-1.7,0.9l0,0.4c0.2-0.1,0.5-0.2,0.7-0.2l-0.1,0.3
			l-0.3,0.1c0.2,0.5,0.7,0,1-0.1c-0.3,0.3-0.6,0.6-0.7,1c0.3,0,0.6-0.2,0.9-0.4c-0.2,0.6-1,0.8-1,1.5c0.4-0.1,0.6-0.6,1-0.7
			c-0.2,0.7-1.1,0.9-0.9,1.7c0.5-0.5,1.4-1.1,1.3-1.8l-0.4,0c0.2-0.5,1.7-1.2,0.8-1.6l0,0.3l-0.3,0.1c0.1-0.4,0.2-0.7,0.3-1.1
			c-0.3-0.1-0.5-0.2-0.6-0.5c0.4-0.1,0.6-0.3,0.7-0.6C179.3,63.6,178.5,63.9,177.7,64.2z M137.3,65.5c-0.2,0.4-0.6,0.9-0.6,1.4
			c0.8,0.9,1.7,1.7,2.5,2.5c1,0.1,1.6,1,2.4,1.5c0,0.1,0.1,0.4,0.1,0.6c-0.2-0.2-0.3-0.5-0.5-0.6c-0.7-0.3-1.2-1.3-2.1-1.1
			c-0.5-0.7-1.2-1.3-1.8-1.9c-1.1,0.8-2.5,1.1-3.6,1.8c1.2,0.2,2.5-0.1,3.6,0.5c1,0.7,2.2,1.1,3.3,1.7c0,0.1,0.1,0.3,0.1,0.4
			c-1.1-0.4-2.2-1-3.4-1.4c-0.2,0.4-0.6,0.7-0.5,1.2c1.1,0.1,2.3,0,3.4,0.3c1,1.1,1.9,2.2,2.7,3.5c0.3,0.5,0.9,0.7,1.2,1.2
			c-0.6-0.1-1.1-0.3-1.4-0.8c-0.7-1-1.4-2-2.2-2.9c0,0.6,0,1.2,0,1.8c-0.2,0.6-0.8,0.7-1.2,1c0,0.5,0.4,0.9,0.8,1
			c1.1,0.4,2.2-0.2,3.3,0.2c0.5,0.1,0.9,0.4,1.3,0.7c0.7,0.1,1.4,0.1,2.1,0.1c-0.1-0.3-0.4-0.5-0.7-0.8c-1.3,0-2.2-1.2-2.6-2.3
			c0.3-0.5,0.4-1.3,1-1.6c1.2-0.5,1.8-1.8,2.8-2.6c-0.1-0.2-0.2-0.5-0.3-0.7c-0.4,0.1-0.9,0.4-1.3,0.1c-0.5-1-1.7-1-2.6-1.1
			c0-0.3-0.2-0.6-0.6-0.6c-0.9-0.2-1.7-0.7-2.5-1.3c-0.4-0.2-0.9,0-1.2-0.2c-0.2-0.4-0.4-0.9-0.7-1.3
			C137.7,65.6,137.5,65.6,137.3,65.5z M149.9,65.3c-0.2,0.9-0.8,1.7-0.9,2.7l0.2-0.1c0.3-0.8,0.8-1.7,0.9-2.5L149.9,65.3z
			 M149.1,66.4c0.3-0.1,0.4-0.4,0.2-0.7C149,65.8,148.9,66,149.1,66.4z M148.9,66.4c0,0.1,0,0.3,0,0.4l0.2,0c0-0.1,0-0.3,0-0.4
			L148.9,66.4z M147.3,70.2c0.1,0,0.4,0.1,0.6,0.2c0,0.4-0.2,0.7-0.4,1c-0.5,0.8-0.8,1.8-1.3,2.7c-0.3,0.5-0.5,0.9-0.6,1.5
			c-0.1,0-0.4,0-0.5,0c0.1-0.2,0.4-0.7,0.5-0.9c-0.4,0.4-0.8,0.9-0.9,1.5l0.2-0.4c0.4,0.2,0.4,0.5,0,0.8c0.1,0,0.3,0,0.4,0
			c1.4-2.6,2.7-5.3,3.6-8c-0.6,0.3-0.6,1.2-0.8,1.8c-0.1-0.1-0.3-0.3-0.4-0.5c0.5-0.9,1.1-1.9,1.2-3C148.1,67.8,147.7,69,147.3,70.2
			z M150.6,66.9l-0.1,0.2C150.6,67.8,151.2,66.8,150.6,66.9z M134.9,67.8c-0.1-0.1-0.2-0.4-0.3-0.5c-1.2,0.5-2.2,1.3-3.3,2
			c0.1-0.2,0.2-0.5,0.3-0.7c-0.7,0.3-1.4,0.8-1.9,1.4c0.2-0.1,0.6-0.2,0.8-0.2c-0.5,0.5-1,1-1.6,1.4c0.1-0.4,0.3-0.7,0.7-1
			c-0.4,0-0.7,0.4-1.1,0.6c0.2,0.2,0.4,0.4,0.6,0.7c0.8-0.4,1.3-1.2,2.2-1.6c-0.1,0-0.2-0.1-0.2-0.2c0.2,0,0.5,0,0.7,0
			c0.6-0.9,1.7-1.2,2.5-1.8c0.1,0.1,0.2,0.2,0.4,0.4c-0.9,0.2-1.7,0.7-2.4,1.3l0.2,0.2l0.1,0.1c0.8-0.6,1.7-1,2.4-1.7
			c0.3-0.2,0.5-0.5,0.9-0.4l-0.1-0.2l0.3-0.1l0-0.3C135.6,67.1,135.2,67.5,134.9,67.8z M189.3,67.6c0.3,0,0.5-0.2,0.5-0.5
			C189.5,67.1,189.3,67.3,189.3,67.6z M135.8,67.6c-0.2,0.2-0.5,0.4-0.5,0.7c0.4-0.2,0.8-0.5,1.2-0.9
			C136.2,67.5,136,67.6,135.8,67.6z M149.5,70.2l0.3-0.2c0.3-0.9,0.8-1.7,0.9-2.6C150,68.2,149.7,69.3,149.5,70.2z M150.9,68.3
			c0.3-0.1,0.3-0.4,0.2-0.7C150.8,67.7,150.7,68,150.9,68.3z M189.1,67.8C188.9,68.1,188.9,68.1,189.1,67.8c0-0.1,0.1-0.2,0.2-0.2
			C189.3,67.7,189.2,67.8,189.1,67.8z M188.3,69.5c0.1-0.5,0.6-0.8,0.7-1.3c-0.3,0.1-0.5,0.3-0.7,0.5c-1.3,1.5-2.5,3.1-3.9,4.6
			c-0.6,0.6-1.1,1.3-1.7,2c0.1,0,0.3,0,0.4,0.1c0.9-1,1.8-2.1,2.7-3.1c0.5-0.5,0.8-1.2,1.4-1.5c0,0.2,0,0.6-0.1,0.8
			c0.1-0.2,0.4-0.5,0.5-0.6c0,0.1,0.1,0.3,0.2,0.4c0.3-0.2,0.5-0.5,0.8-0.9c0.1,0,0.4,0,0.6,0c0.6-0.5,1.4-0.7,1.8-1.5
			c0-0.4,0.1-0.9,0.5-1.1c-0.6-0.2-0.9,0.3-1.1,0.7l0-0.4c-0.5,0.3-0.7,0.8-1,1.2c0.4,0.3-0.1,0.6-0.4,0.8l0.1-0.5l-0.3,0
			c-0.1,0.4-0.3,0.6-0.7,0.6c0.6-1.1,1.8-1.8,2.2-2.9C189.3,67.5,189.1,68.9,188.3,69.5z M148.9,67.9c0,0.1,0,0.3,0,0.4l0.2,0
			c0-0.1,0-0.3,0-0.4L148.9,67.9z M152.4,68.2c-0.4,1.3-0.9,2.6-1.1,3.9c0.3-0.1,0.3-0.5,0.4-0.8c0.3-1.1,0.7-2.1,0.8-3.2
			L152.4,68.2z M179.1,68.1c-0.2,0.1-0.6,0.7-0.2,0.8C179.1,68.7,179.4,68.1,179.1,68.1z M197.6,69.6c0.3-0.1,0.7-0.1,1-0.1
			c0-0.4,0.5-0.6,0.4-1.1c-0.3,0.2-0.4,0.5-0.5,0.7c-0.4-0.2-0.4-0.5-0.1-0.9C197.7,68.5,198,69.2,197.6,69.6z M150.6,68.6l-0.1,0.2
			C150.7,69.5,151.2,68.5,150.6,68.6z M179.5,69.2 M150.4,69.4c0,0.1,0,0.3,0,0.4l0.2,0c0-0.1,0-0.3,0-0.4L150.4,69.4z M129.3,71.6
			c0,0.1,0,0.3,0,0.4c0.1,0,0.3,0,0.3-0.1c0.7-0.6,1.3-1.2,2-1.7c0.2-0.2,0.6-0.4,0.6-0.7C131.1,69.7,130.3,71,129.3,71.6z
			 M131.8,70.6c-0.7,0.5-1.3,1.1-1.9,1.7c0.1,0.1,0.2,0.4,0.2,0.5c1-1,2.2-1.8,3-3C132.5,69.8,132.2,70.3,131.8,70.6z M150.2,69.9
			c-1.1,2.5-2.1,5.1-3.2,7.6l0.1,0.3l0.2-0.1c0.7-1.4,1.2-2.9,1.8-4.3l0.3,0c-0.5,1.6-1.2,3.1-1.9,4.6c0.5-0.2,1-0.6,1.1-1.1
			c0.4-1.4,1-2.8,1.5-4.2l0.2-0.1c-0.2-0.3,0.3-0.9-0.2-1c-0.3,0.6-0.4,1.4-1,1.9c0.2-1.3,1-2.4,1.1-3.6L150.2,69.9z M132.6,71
			c0.4,0.1,0.7-0.3,0.6-0.7C133,70.3,132.4,70.7,132.6,71z M157.8,71c0.3,0.1,0.8-0.4,0.7-0.7C158.1,70.1,157.7,70.7,157.8,71z
			 M135.4,72c0.4-0.4,0.6-1,1-1.3C135.8,70.5,135.6,71.5,135.4,72z M133.3,71.7c0.4,0,0.8-0.6,0.7-0.9
			C133.6,70.8,133.2,71.4,133.3,71.7z M134.9,70.8c-0.5,0.9-1,1.7-1.3,2.6c-0.1-0.1-0.3-0.3-0.4-0.4c0.1-0.2,0.3-0.5,0.4-0.7
			c-0.2,0.2-0.4,0.3-0.7,0.3c0.1-0.2,0.3-0.7,0.4-0.9c-0.4,0.1-0.5,0.6-0.8,0.9c0.2,0.1,0.4,0.3,0.6,0.5l-0.5,0.4
			c0.1,0,0.4,0.1,0.6,0.2c0.1,0.1,0.2,0.3,0.2,0.4c0.2-0.3,0.3-0.6,0.5-0.9c0.1-0.3,0.3-0.5,0.4-0.8c0.1,0.2,0.3,0.4,0.4,0.5
			c0.1-0.2,0.2-0.6,0.3-0.9c-0.1-0.1-0.2-0.3-0.3-0.4c0.1-0.3,0.2-0.6,0.3-0.9L134.9,70.8z M131.3,72.1c-0.3,0.3-1,0.6-0.8,1.2
			c0.5-0.3,0.8-0.8,1.4-1.1c-0.1,0.6-0.9,0.8-0.8,1.4c0.7-0.2,1.1-1,1.5-1.6c-0.1,0-0.3,0-0.4,0c0.2-0.3,0.4-0.6,0.5-0.9
			C132.1,71.2,131.8,71.8,131.3,72.1z M150.4,72.6c-0.4,1.5-1.2,2.9-1.3,4.4c0.3-0.4,0.4-0.9,0.5-1.3l0.2,0.1l-0.1-0.3
			c0.4-1.5,1.2-3,1.4-4.7C150.7,71.3,150.7,72,150.4,72.6z M152.4,71.1 M132.8,71.4 M187,71.2c-0.4,0.5-0.8,1-1.2,1.6
			c0,0-0.1,0.1-0.1,0.1c-0.5,0.3-0.9,0.8-1.1,1.4c0,0-0.1,0.1-0.2,0.2c0,0.1-0.1,0.3-0.2,0.4l-0.1-0.1c-0.2,0.2-0.7,0.5-0.6,0.9
			c0.1,0,0.4-0.1,0.5-0.2c0,0.1,0,0.4,0,0.6c0.2-0.3,0.5-0.5,0.8-0.7c-0.1,0.2-0.2,0.5-0.3,0.7c0.2-0.1,0.5-0.3,0.7-0.4
			c0,0.1,0.1,0.4,0.1,0.5c0.2-0.1,0.7-0.5,0.4-0.7c-0.1,0-0.3,0.1-0.4,0.1c0.1-0.3,0.3-0.5,0.6-0.7l0,0.4c0.1-0.1,0.4-0.2,0.5-0.3
			c0,0.6-0.6,0.9-0.7,1.4c0.5,0.1,0.9-0.2,1.2-0.6c0,0.2-0.1,0.5-0.1,0.7c0.2,0.7,1,0.3,1.4,0.7c-0.2-0.5,0.3-1.1,0.6-1.5
			c-0.1,0.4-0.2,0.9-0.4,1.3l0.3,0c0.3-0.8,0.7-1.5,0.8-2.3c-0.1,0.1-0.4,0.3-0.5,0.4c0-0.2,0.1-0.6,0.1-0.7
			c-0.6,0.1-0.5,0.8-0.7,1.1c-0.1-0.1-0.3-0.2-0.4-0.3c-0.4,0.5-0.1,1,0,1.5c-0.3,0-0.7,0-1,0c0.4-0.9,1.1-1.7,1.4-2.6
			c-0.2,0.1-0.5,0.3-0.6,0.4c-0.2-0.3-0.2-0.7-0.6-0.8c0.2-0.3,0.5-0.6,0.7-1l-0.4,0l0,0.4l-0.3-0.1l0,0.3l-0.3,0l0,0.4
			c-0.5,0.1-0.4-0.5-0.5-0.8c0.5-0.3,0.9-0.9,1.1-1.5c-0.2,0.1-0.6,0.4-0.8,0.5c0-0.1,0.1-0.3,0.2-0.4L187,71.2z M119.6,73.1
			c0-0.1-0.1-0.4-0.1-0.5c-0.3,0.1-0.5,0.3-0.6,0.5c0.1,0,0.4,0.1,0.5,0.1c-0.5,0.8-1.3,1.3-1.8,2.1c0.6-0.3,0.9-0.9,1.5-1.3
			c0.7-0.7,1.6-1.3,2-2.2C120.5,72,120.3,72.9,119.6,73.1z M147.9,73.6c-0.5,1.1-0.9,2.3-1.6,3.4c0.1,0,0.3,0,0.4,0
			c0.9-1.7,1.6-3.4,2.1-5.2C148.4,72.2,148.3,73,147.9,73.6z M120,72.1 M133.6,72.3 M135.3,72.1c0,0.1,0,0.3,0,0.4l0.2,0
			c0-0.1,0-0.3,0-0.4L135.3,72.1z M145.6,74l-0.3,0c0.1,0.2,0.2,0.5,0.2,0.6l0.1,0.1c0.4-0.8,0.8-1.7,1.1-2.6
			C146,72.6,145.9,73.4,145.6,74z M151.2,72.4c-0.2,0.4-0.5,0.9-0.3,1.4c0.2-0.2,0.3-0.4,0.4-0.7C151.4,72.9,151.5,72.4,151.2,72.4z
			 M117.4,74.1c0.5-0.2,0.8-0.6,1.2-1c0-0.1,0-0.4,0-0.5C118.4,73.3,117.6,73.5,117.4,74.1z M136.1,72.5c-0.1,0.6-0.6,1.2-0.3,1.9
			c0.4-0.2,0.3-0.6,0.4-0.9C136.3,73.1,136.3,72.8,136.1,72.5z M134.7,73.9L134.7,73.9c-0.3,0.2-0.6,0.7-0.4,1.1
			c0.2-0.1,0.4-0.3,0.5-0.5c0,0.4-0.1,0.8-0.2,1.1c0.1,0,0.2,0,0.3,0c0.1-0.5,0.5-1,0.4-1.6l0.2,0.1c0-0.5-0.1-1-0.2-1.4
			C134.7,72.8,134.8,73.5,134.7,73.9z M136.5,73.5l-0.3-0.1l0.2,0.2c-0.3,0.9-0.4,1.9-0.6,2.8c0,0.3-0.2,0.9,0.2,1
			c0.1-1.2,0.5-2.4,0.6-3.6c0.6,0.6-0.1,1.4,0,2.1c-0.1,0.9-0.7,2.1,0.2,2.7c-0.2-0.5-0.4-1.1-0.3-1.6l0.3,0.1
			c0,0.2,0.1,0.7,0.1,0.9c0.3-0.8-0.4-1.7,0-2.6c0.3,0.4,0.2,0.9,0.2,1.3c0.4-0.4,0.2-1.1,0.3-1.6c0.1,0.4,0.2,0.7,0.3,1.1
			c0.1-0.6-0.1-1.3,0.2-1.9c0.2-0.4,0.3-0.9,0-1.1c0,0.2-0.2,0.6-0.2,0.7c-0.2-0.3-0.3-0.7-0.5-1c0,0.2-0.1,0.6-0.1,0.8
			c-0.1-0.1-0.3-0.2-0.4-0.2c0-0.1,0.1-0.4,0.1-0.5C136.6,72.4,136.3,73.3,136.5,73.5z M152.9,72.9c-0.2,0.2-0.2,0.8,0.2,0.9
			C153.1,73.5,153.2,72.9,152.9,72.9z M153.9,72.9c0,0.1-0.1,0.3-0.1,0.4C153.9,74,154.4,72.8,153.9,72.9z M156,73.8
			c-0.2,0.1-0.5,0.3-0.7,0.4c0.2,0,0.5,0,0.7,0l0,0.4c-0.6,0.3-1.1,0.7-1.5,1.3c0.2-0.1,0.6-0.2,0.7-0.2c-0.2,0.4-0.6,0.6-0.7,1
			c1.2-0.6,1.8-1.9,2.9-2.6l-0.1,0.5c0-0.6,0.4-0.1,0.7-0.1c0.2,0,0.5-0.1,0.7-0.2c0,0,0-0.1,0-0.1c-0.6,0.2-0.6-0.7-1.1-0.6
			c-0.6,0.4-1,1-1.7,1.3c0.2-0.5,0.4-1.5,1.1-1.2l-0.1-0.3c0.1-0.1,0.4-0.2,0.5-0.2c-0.2-0.1-0.3-0.2-0.5-0.3c0,0.7-0.9,0.5-0.6-0.1
			C156,73,156.1,73.4,156,73.8z M188.5,73.4c0.4,0,0.9-0.1,1.4,0.1c0.7,0.3,1.2,1,2,1c-0.4-0.2-0.7-0.6-1.1-0.9
			c-0.5-0.3-1-0.5-1.5-0.9C189,72.9,188.7,73.1,188.5,73.4z M133.9,73.2c0.6,0.4-0.8,1.1,0,1.4c0.3-0.5,0.5-1,0.7-1.5
			C134.4,73.1,134.2,73.1,133.9,73.2z M138.5,73.2c-0.1,0.9-0.2,1.7,0,2.6c0.4-0.8,0.2-1.7,0.2-2.5L138.5,73.2z M151.3,73.1
			c0.1,1-0.6,2-0.8,2.9c0.1,0.1,0.2,0.2,0.3,0.2c0-0.4,0.1-0.7,0.4-0.9c0,0.2,0,0.5,0,0.6c0.6-0.4,0.3-1.2,0.2-1.7
			C151.6,74,151.9,73.3,151.3,73.1z M167.7,73.3 M139.4,74.9c-0.3-0.3-0.2-0.7-0.3-1.1c-0.5,0.2-0.2,1-0.1,1.4
			c0.8-0.1,0.6-1.1,0.6-1.7C139.4,73.9,139.5,74.4,139.4,74.9z M144.2,75.5c0.6-0.2,0.7-1,1.1-1.5c0-0.1,0.2-0.4,0.2-0.5
			C144.7,73.8,143.9,74.6,144.2,75.5z M113.6,73.8 M112.4,75.1c0.1,0.1,0.4,0.2,0.5,0.3c-0.8,0.4-1.9,0.6-2.5,1.3
			c0.5,0,0.9-0.4,1.3-0.6c0.7-0.3,1.4-0.5,2-0.9c0-0.1-0.1-0.4-0.1-0.6c0.5,0.5,1.2,0.3,1.5-0.2c-0.2,0-0.7,0-1,0
			c0.4-0.2,0.9-0.3,1.1-0.7C114.2,73.9,113.3,74.7,112.4,75.1z M150.5,74.5c0.3-0.2,0.4-0.4,0.3-0.8
			C150.5,73.9,150.4,74.2,150.5,74.5z M116.4,74.9c0.4,0.2,1-0.4,1-0.8C117,74,116.4,74.5,116.4,74.9z M152.7,74.1
			c-0.2,0.3-0.3,0.8-0.1,1.1C152.8,75,153.1,74.1,152.7,74.1z M178.3,74.2l0.1,0l0-0.2C178.4,74.1,178.3,74.2,178.3,74.2z M115,74.3
			l0,0.2c0,0,0.1-0.1,0.1-0.2L115,74.3z M135.5,74.3c0,0.7-0.8,1.6-0.2,2.2c0.1-0.7,0.4-1.4,0.4-2.1L135.5,74.3z M112.1,74.6
			c-0.3,0.2-0.7,0.2-0.9,0.5C111.4,75.8,113.1,74.4,112.1,74.6z M150.4,74.6c0,0.1,0,0.3,0,0.4l0.2,0c0-0.1,0-0.3,0-0.4L150.4,74.6z
			 M190.1,74.8 M138.1,74.8c-0.1,1.7-0.5,3.4-0.5,5.1c0.1,0,0.2,0,0.3,0C137.7,78.2,138.4,76.5,138.1,74.8z M189.9,75.5
			c0.3-0.1,0.4-0.4,0.2-0.7C189.8,74.9,189.8,75.1,189.9,75.5z M190.9,75.9c-0.3-0.2-0.6-0.5-0.3-0.9c-0.3,0.5-0.5,1.1-0.5,1.7
			l0.2-0.2l0.1-0.5c0.6,0.3,0,0.8,0.3,1.2c0.3-0.7,0.3-1.5,0.6-2.2C190.8,74.8,191,75.7,190.9,75.9z M149.8,75.8c0,0.2,0,0.5,0,0.6
			c0.3-0.1,0.5-0.8,0.4-1.2C150.1,75.4,149.9,75.6,149.8,75.8z M191.3,75.2c0,0.7-0.1,1.4-0.2,2.1l0.3,0c0.2-0.6,0.3-1.3,0.2-2
			L191.3,75.2z M191.9,75.3c0,0.7-0.5,1.8,0.2,2.3c0-0.8,0-1.6,0.1-2.4C192.2,75.3,192,75.3,191.9,75.3z M192.5,75.6
			c-0.1,0.7,0.1,1.5,0.1,2.2l0.4,0.1c0-0.8-0.1-1.5-0.2-2.3L192.5,75.6z M154.3,76C154.1,76.2,154.1,76.2,154.3,76
			c0,0,0.1-0.1,0.2-0.2C154.4,75.9,154.3,76,154.3,76z M193.1,75.9l-0.1,0.2C193.1,76.8,193.7,75.7,193.1,75.9z M115.5,76.1
			 M169.2,76.1 M196,75.9c0,0.5,0,0.9,0.3,1.3c0.6,0.1,1.1,0.1,1.7,0.2C197.2,77.1,196.9,76.1,196,75.9z M108.8,77.3
			c0.4-0.4,1.3-0.5,1.5-1.1C109.6,76.3,109.1,76.7,108.8,77.3z M194.3,76.3c-0.2,0.3-0.1,0.6,0.2,0.7
			C194.7,76.6,194.6,76.4,194.3,76.3z M194.9,76.3c0,0.1-0.1,0.3-0.1,0.5C195.1,77.4,195.4,76.2,194.9,76.3z M117.5,76.7
			C117.3,77,117.3,77,117.5,76.7C117.7,76.5,117.7,76.5,117.5,76.7z M152.3,78l0.5-0.1c-0.1,0.1-0.2,0.4-0.2,0.5
			c0.4,0,0.4-0.4,0.8-0.5l0-0.2l-0.5,0.1c0.3-0.6,0.9-0.9,1.3-1.4l-0.2-0.1C153.3,76.9,152.6,77.4,152.3,78z M138.4,76.8
			c0.1,0.2,0.2,0.4,0.4,0.7c-0.2,1,0.2,2.3-0.4,3.2c0.2-0.1,0.4-0.1,0.6-0.2c0-1,0.1-2.1,0.1-3.1C138.8,77.2,138.7,76.9,138.4,76.8z
			 M172.6,76.8 M194,77.5c0-0.2,0-0.6,0-0.7C193.7,76.7,193.7,77.5,194,77.5z M137.3,77.1c-0.2,0.3-0.2,0.6,0,0.9
			C137.6,77.9,137.6,77,137.3,77.1z M193.4,77c-0.1,0.3-0.2,0.9,0.2,1C193.7,77.7,193.7,77.2,193.4,77z M149.3,78.2
			c0.5-0.2,0.9-0.6,1.3-0.9C150,77.4,149.6,77.8,149.3,78.2z M149.3,79c-1.4,0.9-2.6,2.1-3.9,3.1c-0.6-0.3-1,0.2-1.3,0.6
			c0.5,0,0.7-0.6,1.2-0.6c-0.4,0.5-0.9,0.8-1.3,1.2c-0.3,0.1-0.4-0.3-0.1-0.4c-0.5,0.2-1,0-1.4,0.4c0.1,0,0.4,0,0.6,0
			c-0.2,0.2-0.3,0.5-0.2,0.7c0.2-0.3,0.4-0.4,0.7-0.3c-0.2,0.2-0.4,0.4-0.6,0.7c0.1,0.1,0.3,0.3,0.4,0.4c0.7-0.2,1-0.9,1.6-1.3
			c0.8-0.6,1.4-1.3,2.2-2c0,0.1,0,0.4,0,0.6c-1.3,0.8-2.2,2.1-3.5,2.9c0.1,0.2,0.2,0.4,0.5,0.4c0.7-0.8,1.5-1.7,2.3-2.4
			c0.6-0.5,1-1.2,1.8-1.5c-0.6,1-1.6,1.5-2.3,2.4c-0.5,0.6-1,1.1-1.5,1.6c0,0.1,0,0.3,0,0.4c0.4-0.1,0.6-0.5,0.9-0.8
			c2.2-2.2,4.4-4.5,6.7-6.7l0.1-0.2c-0.2,0.1-0.6,0.2-0.8,0.3l0.3-0.6c-0.4,0.2-0.5,0.5-0.8,0.8l0.6-0.1c-0.3,0.6-0.8,1-1.4,1.3
			c0.1-0.2,0.4-0.6,0.5-0.8c-0.1,0-0.4-0.1-0.5-0.2c0.6-0.5,1.2-1,1.6-1.6C150.8,77.8,150.2,78.5,149.3,79z M194.6,77.1
			c0.2,0.4,0,0.7-0.3,1l-0.2-0.5c-0.1,0.3,0,0.6,0.2,0.8c0.2-0.3,0.6-0.1,0.9-0.1c0.3,0.2,0.7-0.7,0.8,0.2c0.3-0.2-0.1-0.5-0.2-0.7
			c-0.1,0.2-0.3,0.4-0.4,0.5C194.9,78,194.9,77.4,194.6,77.1z M138.3,77.8c-0.2,0.4-0.1,0.9,0,1.4C138.6,79,138.7,77.9,138.3,77.8z
			 M139.5,77.7c-0.1,0.8-0.2,1.7-0.2,2.5c0.1,0,0.4,0,0.5,0c0-0.9,0-1.7,0-2.6L139.5,77.7z M140,77.7c0,0.8,0,1.5,0.1,2.3
			c0.1,0,0.3,0,0.5,0C140.4,79.2,140.6,78.2,140,77.7z M141.9,77.8c0.2,0.4,0.2,0.9,0.5,1.3c-0.2-0.4,0.1-0.7,0.3-0.9
			c0.1,0.4,0,1.1,0.6,1.2c-0.1-0.5-0.2-1.1-0.5-1.5C142.5,78,142.1,78.1,141.9,77.8z M151.6,77.9 M140.7,77.9c0,0.6,0.1,1.2,0.1,1.8
			c0.1,0,0.4,0,0.6,0C141.1,79.1,141.3,78.2,140.7,77.9z M141.4,77.8c0.1,0.6,0.2,1.2,0.4,1.8c0.1,0,0.2,0,0.3,0
			C141.9,79,141.9,78.1,141.4,77.8z M152.1,78.2c0,0,0.1-0.1,0.1-0.2C152.2,78.1,152.2,78.1,152.1,78.2z M152.4,79.1
			c0-0.2,0.1-0.5,0.1-0.6c-1.1,0.7-1.9,1.9-2.9,2.8c-0.2,0.3-0.8,0.4-0.4,0.8l-0.3-0.1c-1.1,1-2.1,2.2-3.2,3.3
			c-0.3,0.4-0.8,0.6-0.8,1.1c0.2-0.2,0.5-0.3,0.8-0.5c0,0.1-0.1,0.4-0.1,0.5c0.4,0,0.9-0.5,1-0.9c0.1-0.1,0.2-0.2,0.3-0.2
			c0.1-0.1,0.2-0.2,0.3-0.2c0.1,0,0.2-0.1,0.2-0.1c1.2-1,2.1-2.1,3.3-3c-0.1,0.2-0.2,0.5-0.2,0.7l0-0.2c-1.4,1.4-2.8,2.8-4.3,4.1
			c0.1,0.1,0.4,0.3,0.5,0.3c0.9-1,1.7-2.1,2.8-2.8c-0.6,1-1.5,1.8-2.3,2.7c0,0.1,0,0.3,0,0.4c0.5-0.4,1-1,1.6-1.4
			c-0.1,0.2-0.2,0.5-0.2,0.7l0.3-0.1l0.1-0.2c0.3-0.1,0.4-0.3,0.5-0.6l0.4,0.1c-0.5,0.6-1,1.2-1.5,1.8c0.1,0.1,0.4,0.2,0.6,0.2
			c0.5-0.9,1.2-1.7,1.9-2.5l0.3,0.1c-0.5,1-1.4,1.7-1.9,2.7c0.8-0.1,1.1-0.9,1.5-1.5c0.4-0.7,1.1-1.3,1.4-2.1l0.1,0.1
			c0.2-0.3,0.6-0.5,0.6-0.9c0.1,0,0.2-0.2,0.2-0.2c0-0.1,0.1-0.2,0.2-0.2c0.3-0.1,0.5-0.5,0.9-0.6c-1.4,1.8-2.8,3.7-4,5.7
			c0.2,0,0.5,0,0.7,0c1.2-2.1,2.8-3.9,4.1-5.9l-0.1-0.3l0.2,0.2c0.2-0.4,0.5-0.7,0.8-0.9c0-0.1,0.1-0.3,0.1-0.4
			c-0.1,0-0.4,0.1-0.5,0.2c0-0.1-0.1-0.3-0.1-0.4c-0.1,0.1-0.4,0.3-0.6,0.4l0.1-0.5c-0.2,0.2-0.6,0.4-0.7,0.8
			c-0.3,0.1-0.7,0.1-1.1,0.1c0.1-0.3,0.4-0.8,0.8-0.8c0.1,0.1,0.2,0.2,0.2,0.3l0-0.4l0.3,0.1l0.1-0.3c-0.4,0.1-0.8,0.1-1.2,0.1
			c0.2-0.3,0.4-0.6,0.6-1c0.2,0.1,0.3,0.3,0.5,0.4c0.2-0.3,0.5-0.6,0.7-0.9c-0.4,0.2-0.5,0.6-1,0.3c0.3-0.2,0.7-0.5,0.9-0.9
			c-0.2,0-0.5,0.1-0.6,0.1c0-0.1-0.1-0.3-0.1-0.4C153.3,78.3,153,78.8,152.4,79.1z M196.3,78 M137.1,78.3c-0.2,0.3-0.2,0.8,0,1.1
			C137.4,79.3,137.4,78.4,137.1,78.3z M143.5,78.5 M143.9,78.6c-0.2,0.2,0.1,0.8,0.4,0.6C144.5,78.9,144.2,78.5,143.9,78.6z
			 M154.8,78.5 M111.1,81.1c-1.6,0.9-3.1,1.9-4.7,2.8c0,0.1-0.1,0.4-0.1,0.5c3.1-1.7,6.4-3.1,9-5.5l0.2-0.4
			C114,79.3,112.7,80.5,111.1,81.1z M144.7,78.7l-0.1,0.2C144.7,79.6,145.2,78.6,144.7,78.7z M142.4,79 M156.4,79
			c0.1,0.6-0.9,0.7-0.8,1.2c0.7,0.3,1.4-0.1,2.1-0.1C157.4,79.5,156.9,79.2,156.4,79z M200.5,79c0,0.8,0.9,0.4,1.3,0.7
			c-0.1-0.3-0.2-0.6-0.5-0.7C201.2,79.8,200.8,79.2,200.5,79z M145.8,80.5C145.7,80.7,145.7,80.7,145.8,80.5
			c0.5-0.3,1.2-0.7,1.5-1.3C146.8,79.6,146.1,79.9,145.8,80.5z M202,79.3c-0.1,0.4,0,0.5,0.4,0.5C202.5,79.4,202.3,79.2,202,79.3z
			 M142.5,82.7c0.8-0.4,1.4-1.3,2.2-1.7c0,0.1,0.1,0.3,0.1,0.5c0.1-0.1,0.2-0.3,0.2-0.4l-0.1-0.1c-0.1-0.5,0.7-0.5,0.7-1
			C144.5,80.8,143.3,81.6,142.5,82.7z M147.1,80.2C146.9,80.4,146.9,80.4,147.1,80.2C147.3,80,147.3,80,147.1,80.2z M155.5,81.1
			c0.1,0.4-0.3,0.7-0.5,1c-1.3,2.1-3,4-4.2,6.2c0.1,0,0.4,0,0.5,0.1c1.3-2,2.6-3.9,3.9-5.9c0.2-0.2,0.3-0.7,0.6-0.6
			c-0.2-0.4,0.4-0.6,0.4-1.1C156,81,155.6,81.1,155.5,81.1z M156.3,81.7c0.3,0.1,0.6-0.4,0.4-0.7C156.4,80.9,156.1,81.4,156.3,81.7z
			 M160.5,80.9c0,0.2,0,0.6,0,0.8c-0.4,0.5-1.2,0.6-1.5,1.2c0.6,0.5,1.5,0.4,2,1.1c0.4,0.6,1.2,0.9,1.5,1.5c0.3,0.7,1.2,0.7,1.8,1
			c1.6-0.1,3.2-0.7,4.9-0.5c0.7,0.1,1.4,0.2,2.1,0.1c-0.9-0.6-2.1-0.5-2.9-1.3c-0.3-0.2-0.5-0.8-0.9-0.5c0.3,0.2,0.5,0.5,0.7,0.8
			c-0.6-0.1-0.9-0.7-1-1.2c-1.1-0.3-2.3-0.2-3.3-0.9c-0.4,0-0.8,0.1-1.1-0.1C162,82.2,161.3,81.4,160.5,80.9z M116.2,81.5
			 M116.5,82.3c-0.2-0.1-0.3-0.3-0.4-0.4c-0.2,0.3-0.5,0.5-0.7,0.9c0.2-0.4,0.6-0.4,1-0.3c-0.5,0.5-0.9,1.1-1.3,1.7
			c-0.1,0-0.4,0-0.5,0c0.1-0.2,0.3-0.6,0.4-0.8c-0.5,0.3-0.9,0.9-1.3,1.3c0.5-0.3,1.1-0.2,1.6-0.3c0.5-1,1.4-1.8,1.6-2.9
			C116.7,81.6,116.5,81.9,116.5,82.3z M155.8,82c0,0.1,0,0.3,0,0.4c0.3,0,0.6-0.4,0.5-0.7C156.1,81.8,155.9,81.9,155.8,82z
			 M114.6,82.8c-0.7,0.6-1.5,1.2-2.2,1.9c1.3,0.3,1.6-1.5,2.6-1.7c0.1-0.3,0.2-0.7,0.5-1C115.1,82.1,114.9,82.5,114.6,82.8z
			 M155.3,83.2c0.3,0,0.6-0.5,0.5-0.8C155.4,82.4,155.2,82.9,155.3,83.2z M115,82.9c0,0.1,0,0.3,0,0.4c0.3,0,0.4-0.1,0.4-0.5
			C115.3,82.9,115.1,82.9,115,82.9z M117.5,82.9c0,0.1,0,0.3,0,0.4l0.2,0c0-0.1,0-0.3,0-0.4L117.5,82.9z M154.8,83.9
			c0.3,0.1,0.6-0.4,0.4-0.7C155,83.1,154.7,83.6,154.8,83.9z M116.7,83.5c0,0.1,0,0.3,0,0.4l0.2,0c0-0.1,0-0.3,0-0.4L116.7,83.5z
			 M158.3,83.5c-1.2,2.5-2.2,5.1-3.3,7.6c0.2,0,0.5,0,0.6,0c0.8-2.6,2-5.1,2.9-7.6L158.3,83.5z M116,83.9l0,0.2l0.2,0l0-0.2
			L116,83.9z M154.6,83.9c-1,1.5-1.9,3-3,4.5c-0.1,0.4,0,0.5,0.4,0.4c0.7-1.2,1.5-2.4,2.1-3.6c0.2-0.5,0.7-0.8,0.7-1.4L154.6,83.9z
			 M157.9,86c-0.6,1.7-1.4,3.3-1.9,5.1c-0.2,0.5,0.4,0.7,0.8,0.8c0.6-2.7,1.8-5.3,2.3-8C158.4,84.4,158.3,85.3,157.9,86z M159.4,84
			c-0.6,2.7-1.7,5.2-2.4,7.8l0.1,0.2c0.8,0.4,1.8,0.5,2.7,0.8c0.1-2.2,0.7-4.4,0.9-6.6c0.1-0.3,0.1-0.7,0.4-1c0,1-0.3,2-0.4,3.1
			c0,0.8-0.4,1.6-0.4,2.4c0,0.7-0.1,1.3-0.2,2c0.2,0.1,0.4,0.2,0.6,0.4c0.4,0.1,0.9,0.1,1.3,0c0.2-1.9,0.1-3.9,0.2-5.9
			c0-0.6,0.2-1.3-0.3-1.8c0,1.4-0.3,2.8-0.3,4.3c-0.2,1.1-0.3,2.2-0.1,3.3c-0.2-0.2-0.6-0.5-0.4-0.9c0.1-2.3,0.5-4.6,0.6-7
			c-0.1-0.1-0.4-0.2-0.5-0.2c-0.1-0.2-0.2-0.4-0.4-0.5c-0.5,1.8-0.7,3.7-1.2,5.5c-0.2,0.8,0,1.7-0.6,2.3c0.2-1.5,0.7-3,0.8-4.5
			c0.1-1.2,0.7-2.4,0.6-3.7l-0.2,0c-0.2,1-0.5,2-0.7,3c-0.2,1.3-0.9,2.6-1.1,3.9c-0.1,0.4-0.1,0.8-0.5,1c0.5-2.8,1.7-5.4,2-8.2
			C159.6,83.9,159.5,84,159.4,84z M109.7,87.6c-0.8,0.6-1.9,0.8-2.6,1.6c0.7-0.1,1.6,0.1,2.2-0.5c0.7-0.7,1.7-1.2,2.2-2.1
			c0.1,0.1,0.3,0.3,0.4,0.4c-0.7,0.6-1.4,1.1-1.9,1.7c1.4-0.1,1.7-1.5,2.6-2.3l-0.4,0.1c0-0.1-0.1-0.4-0.2-0.6
			C111.2,86.5,110.5,87.1,109.7,87.6z M148.3,86.6c0,0,0.1-0.1,0.2-0.2C148.5,86.5,148.4,86.6,148.3,86.6z M148.1,86.8
			c0.1,0,0.2-0.1,0.2-0.2C148.3,86.7,148.2,86.8,148.1,86.8z M154.6,86.6c-0.5,1.1-1.4,2.1-1.6,3.2c0.1,0,0.3-0.1,0.3-0.2
			c0.6-1.1,1.1-2.2,1.6-3.3L154.6,86.6z M162.4,86.7c-0.2,1.6-0.3,3.3-0.2,4.9c0.1,0.5-0.4,1.8,0.5,1.6c0-2.2,0.1-4.4,0-6.6
			L162.4,86.7z M166.4,86.7c0.1,0.8,0.4,1.5,0.6,2.3c0.5,1.1,0.9,2.3,1.3,3.4c0.2-0.1,0.5-0.2,0.7-0.2c-0.6-1-0.8-2.1-1.4-3.1
			C167.3,88.3,167.1,87.3,166.4,86.7z M167.1,86.6c0.1,0.8,0.5,1.5,0.8,2.2c0.6,1,0.9,2.1,1.4,3.1c0.3,0.2,0.5-0.2,0.7-0.2
			c-0.8-1.2-1.3-2.7-2-4C167.7,87.3,167.7,86.7,167.1,86.6z M167.9,86.6c0.2,0.5,0.4,1.1,0.7,1.6c0.7,1.1,1.1,2.3,1.8,3.4
			c0.2-0.1,0.4-0.3,0.6-0.5c-0.8-1.3-1.5-2.7-2.2-4.1C168.5,86.7,168.2,86.3,167.9,86.6z M169.6,86.6c0.8,1.3,1.6,2.7,2.6,3.9
			c0.1-0.1,0.2-0.2,0.3-0.3c-0.9-1.1-1.6-2.3-2.5-3.5C169.9,86.7,169.7,86.6,169.6,86.6z M89.6,86.9 M147.7,87.3
			c0.3,0,0.5-0.2,0.4-0.5C147.7,86.8,147.6,87,147.7,87.3z M163,87c0,2.1-0.3,4.2,0.1,6.2c0.3-0.1,0.7-0.1,1-0.1
			c-0.3-2-0.2-4.2-0.8-6.2C163.3,86.9,163.1,87,163,87z M164.7,87c-0.1,0.7,0.1,1.3,0.3,2c0.5,1.2,0.6,2.4,0.9,3.6
			c0.3,0,0.6,0,0.9-0.1c-0.7-1.8-0.9-3.8-1.8-5.6C165,86.9,164.8,87,164.7,87z M165.6,86.9c0.2,2,1.1,3.8,1.6,5.7
			c0.3,0,0.6-0.1,0.9-0.2c-0.6-1.8-1.3-3.6-2-5.5C165.9,86.9,165.7,86.9,165.6,86.9z M169,86.7c0.2,1,0.9,1.8,1.3,2.7
			c0.3,0.5,0.5,1.3,1.1,1.6c0.6-0.1,0.3-0.6,0-0.9C170.5,89,170,87.7,169,86.7z M170.7,86.9c-0.1,0.4,0.1,0.5,0.4,0.4
			C171.2,87,171,86.9,170.7,86.9z M171.4,86.9c0.3,0.7,0.8,1.3,1.3,1.9c0.3,0.3,0.6,0.9,1.1,0.8C172.9,88.8,172.5,87.4,171.4,86.9z
			 M163.9,87.1c0.1,1.9,0.3,3.8,0.5,5.8c0.4,0,0.7-0.1,1.1-0.1c-0.2-1.9-0.7-3.8-1.2-5.6C164.2,87.2,164,87.1,163.9,87.1z
			 M171.1,87.3l0,0.2c0.6,0.8,1.1,1.8,2,2.4c0-0.5-0.9-0.7-0.4-1.2l-0.3,0.2C171.9,88.5,171.7,87.7,171.1,87.3z M172.6,87.4
			c0.5,0.7,0.9,1.7,1.8,2c-0.4-0.7-0.9-1.4-1.4-2C172.9,87.4,172.7,87.4,172.6,87.4z M173.8,87.7c0.2,0.6,0.6,1.3,1.2,1.4
			c0-0.1,0.1-0.4,0.1-0.5c0.2,0.1,0.5,0.2,0.7,0.2c-0.1-0.4-0.5-0.6-0.8-0.8c0,0.2,0,0.5-0.1,0.6C174.6,88.3,174.2,88,173.8,87.7z"
			/>
	</g>
</g>
</svg>
