<?xml version="1.0" encoding="utf-8"?>
<!-- Generator: Adobe Illustrator 26.0.3, SVG Export Plug-In . SVG Version: 6.00 Build 0)  -->
<svg version="1.0"
	 id="Слой_1" image-rendering="optimizeQuality" text-rendering="geometricPrecision" shape-rendering="geometricPrecision" xmlns:xodm="http://www.corel.com/coreldraw/odm/2003"
	 xmlns="http://www.w3.org/2000/svg" xmlns:xlink="http://www.w3.org/1999/xlink" x="0px" y="0px" viewBox="0 0 238.1 150.2"
	 style="enable-background:new 0 0 238.1 150.2;" xml:space="preserve">
<style type="text/css">
	.st0{fill:#1D1D1B;}
</style>
<g>
	<path class="st0" d="M168.4,107.6c-1-1.2-2.1-2.5-3.2-3.7c-1.9-0.1-3.5-1.8-3.5-3.8c-0.3,0-1,0.1-1.5,0.3
		C162.1,103.4,164.4,106.8,168.4,107.6z"/>
	<path class="st0" d="M173.3,107.6c0.3-0.1,0.1,0,0.6-0.1c-2.4-1.8-3.5-4.4-5.2-6.6c-0.1,0.3-0.3,0.9-0.6,1.2c1.2,2.1,2.9,4.1,5,5.4
		h0.1V107.6z"/>
	<path class="st0" d="M172.2,108.2c-1.9-1.5-3.5-3.2-4.9-5.2c-0.3,0.1-0.9,0.3-1.2,0.6c1.8,2.4,4.1,4.9,7.1,5.7
		C172.8,108.8,172.4,108.4,172.2,108.2z"/>
	<path class="st0" d="M146.3,119.3c2.1,2.9,4.6,5.9,7.5,8.4C152.1,124.1,149.6,121.2,146.3,119.3z"/>
	<path class="st0" d="M219.8,120.3c-0.1,0.9,1.5,1.5,1.9,0.9C222,120.3,220.2,119.9,219.8,120.3z"/>
	<path class="st0" d="M196.4,120.3c-0.7,0.9-1.5,1.9-2.1,2.8c1-0.3,2.1-0.7,3.2-1C197.1,121.5,196.7,121,196.4,120.3z"/>
	<path class="st0" d="M161.8,125.4c0.7,0,1.5-0.9,1-1.6C162.1,123.2,160.6,125,161.8,125.4z"/>
	<path class="st0" d="M199.3,137.1c0.3-1.2,0.9-2.5,1.2-3.5c-1-0.7-2.4-1.2-3.4-1.9C198.9,133.2,199.6,135,199.3,137.1z"/>
	<path class="st0" d="M188.9,132.8c-3.4-1.9-7.5-2.6-11.3-1.9c1.2,1,2.5,2.1,3.8,2.8c2.1,0.7,4.4,1,6.2,2.6c0.9,0.7,1.8,1.6,2.6,2.4
		c1.2-0.1,2.5-0.3,3.7-0.7C192.7,136,190.9,134.3,188.9,132.8z"/>
	<path class="st0" d="M191.8,70c2.5,0.1,2.1-4.1-0.1-3.5C189.3,66.4,189.4,70,191.8,70z"/>
	<path class="st0" d="M175.9,71.7c0.6,1.2,0.3,2.5,0.6,3.8c1.9,1,3.7,2.6,5.4,3.8c1.2,0.9,0.7,2.5,0.9,3.7c-0.9-0.6-1.6-1.2-2.6-1.2
		c-1.5,1.2-0.3,2.9,0.3,4.3l0.7-0.1c0.3-0.1,1.2-0.3,1.8-0.3c0.3-0.1,2.4,0,1.2,0.7c-0.9,0.3-1.9,0.1-2.9,0c2.4,0.9,5.3,0.3,6.8-1.9
		c2.1-3.2,0.7-7.9-2.5-9.7c-1-5.2-7.5-6.8-11.9-5.3C174.4,70,175.3,70.7,175.9,71.7z M178.4,69.1c0,0.9-2.4,0.9-2.5,0
		C176.6,68.5,177.7,68.6,178.4,69.1z"/>
	<path class="st0" d="M151.3,75.1c0.6-2.4,2.1-4.9,4.9-4.3c0.6,0.1,0.9,1,1.2,1.5c0-1.2-0.3-2.6-2.4-2.9c-3.4-0.3-4.9,0.7-6.6,2.4
		c-0.7,0.7-1.5,1.6-2.1,2.5c-0.1,0.6-0.6,0.9-0.3,1.9C147.9,75.4,149.6,75.1,151.3,75.1z"/>
	<path class="st0" d="M159,78.9c1.2,0.1,2.4,0.1,3.5,0.3c1.5-1.9,3.2-3.7,5.3-4.9c0.3-0.7,0.9-1.5,1.2-2.1
		C164.6,72.3,161,75.3,159,78.9z"/>
	<path class="st0" d="M157.7,72.5c-0.9,1.5-2.5,0.3-3.4-0.6c-0.9,0.9-1.8,1.9-1.9,3.2c1.9,1.2,3.2,2.9,3.7,5.2
		c1.9-1,2.6-3.2,4.1-4.6c2.6-3.2,7.5-5.4,11.3-2.9c0.1,0.9,0.6,1.9,0,2.9c-0.7-0.6-0.7-2.5-1.8-1.9c-1.2,0.7-0.9,2.5,0,3.2
		c1,1,2.6,0.7,3.8,0.7l0,0c1.6-1.6,1.9-3.8,1.2-6l-0.3,0.1c-0.9-0.7-1.6-1.5-1.9-2.6c-1-2.6-4.1-3.7-6.8-3.7c-3.5,0-6.9,1.5-9.9,3.2
		C157.2,69.4,159.1,70.8,157.7,72.5z"/>
	<path class="st0" d="M163.3,79.7c0.7,1,1,2.4,1.2,3.7c0.1-0.1,0.7-0.3,0.9-0.6c0.7-2.1,2.4-3.8,3.8-5.4c-0.6-0.6-1-1.2-1.6-1.8
		C165.9,76.4,164.4,78.1,163.3,79.7z"/>
	<path class="st0" d="M169.9,78.1c-3.8,2.8-5,7.9-5.2,12.5l0.3,0.3c0.6,0.3,1,0.9,1.6,1.2c0.1-4.9,1.9-9.7,6-12.5
		c1.6-1.2,3.7-1.8,5.7-2.1c-0.9-0.3-1.6-0.9-2.5-1.2C174.4,78.1,172.2,78.9,169.9,78.1z"/>
	<path class="st0" d="M182.2,81c-1.8-2.6-5.4-2.4-7.9-0.9c-4.3,2.8-6.8,7.9-6.2,13c0.6,2.1,1,4.3,1.6,6.3c0.9,2.9,2.9,5.9,5.7,7.7
		c-0.7-2.1-2.6-3.7-3.5-5.7c-2.5-4.4-2.6-10.3,0.1-14.7C174,83.2,177.7,80.1,182.2,81z"/>
	<path class="st0" d="M149,91.2c0.3-0.1,0.9-0.3,1-0.6c0.9-0.3,1.8-0.7,2.6-1c1.2,0,2.5-0.1,3.7-0.1c0.1-2.5,1-5.2,2.9-6.8
		c0.7-0.3,1.2-0.7,1.8-0.3c0,0.3,0.1,1.2,0.3,1.6c0.6,0.3,1.2,0.1,1.8-0.3c-0.1-0.9,0.1-2.4-0.7-2.8c-1.5-1.2-2.6-0.9-4.3-0.7
		c-0.9,0.1-1.9,0.9-2.1,1.2c-0.7,1.5-1.5,2.6-2.8,3.4l0,0c-0.9,0-1.6,0-2.5,0C149.7,86.7,149,89,149,91.2z"/>
	<path class="st0" d="M147.2,89.1h0.7c0.3-1.6,1-3.2,1.9-4.6c-0.6-0.9-0.9-1.6-1.5-2.5C147.2,83.9,147.1,86.6,147.2,89.1z"/>
	<path class="st0" d="M148.4,92.5c-0.3-0.6-0.7-1.2-1-1.8c-1.2-1.8-1-4.1-0.9-6.2c0.6-1,1-2.1,1.5-2.9c1-0.6,2.1-1,3.2-1.5
		c0.9,0.1,1.2,1.2,1.9,1.8c-0.9-0.1-1.8-0.3-2.6-0.7c-1.2,1.6,0.9,2.6,2.4,2.8c2.8-1.2,2.8-5.2,0.7-7.1c-1.6-1-3.8-1-5.9-0.3
		c-3.2,1-5.2,4.1-6.2,7.1c-1.2,3.7-0.6,7.8,1.5,11.3C144.4,94.1,146.3,93.2,148.4,92.5z"/>
	<path class="st0" d="M160.2,83.8l-0.6-0.1c-1.9,1.6-2.1,4.1-2.5,6.3c1,0.1,2.1,0.1,3.2,0.1C160.2,88.1,161.2,85.7,160.2,83.8z"/>
	<path class="st0" d="M161.6,85.4c0,1.6,0,2.9,0,4.6c0.7,0.1,1.6,0.3,2.4,0.6c0-2.1,0.1-4.1,0.9-6c-0.1-0.3-0.3-0.7-0.6-1
		C163.5,84.5,162.7,84.8,161.6,85.4z"/>
	<path class="st0" d="M200,87.3c0.7-2.1-1.8-4.3-3.8-3.4c-1.9,0.7-2.5,3.4-0.9,4.9C196.7,90.3,199.7,89.4,200,87.3z"/>
	<path class="st0" d="M152.2,95.4c0.6,1,0.7,2.1,1,3.4c2.6-1.5,5.9-2.4,8.7-1.5c1.6,0.6,2.1,2.4,2.9,3.7c-0.9-0.1-1.8-0.6-2.6-0.7
		c0.6,0.9,0.7,2.1,1.8,2.5c1.8,0.6,3.7-1,4.1-2.8c0.6-2.9-0.9-6.3-3.5-7.8c-1.8-1-3.8-0.9-5.9-0.6c-2.5-1.5-5.7-1-8.1,0.3
		c-0.7,0.3-1.2,0.7-1.9,1.2C149.9,93.5,151.3,94.2,152.2,95.4z"/>
	<path class="st0" d="M187.7,92.9c-0.1-1-0.9-2.4-2.1-2.4c-1.8-0.3-3.4,0.9-4.4,2.1c0,0.3-0.1,1-0.1,1.2c-3.4,1.9-3.4,6.3-1.6,9.4
		c1.8-0.7,3.4-1.2,5.2-1.6c-1.6-2.4-2.1-5.7-0.6-8.1c0.7-1,1.9-1.5,2.9-1c-0.3,0.3-1,1.2-1.6,1.8C186.1,94.1,187.2,94.1,187.7,92.9z
		"/>
	<path class="st0" d="M144.4,112.5c0.1-1-0.3-2.1-0.6-2.9c-1.5-3.5-0.3-8.1,2.6-10.6c0.9-0.9,2.1-0.9,3.4-0.9
		c-0.3,0.6-0.7,1.2-1.2,1.8c0.3,0.3,0.9,0.9,1.2,1.2c0.7-0.6,1.5-0.9,1.9-1.5c0.9-2.1-0.6-4.6-2.6-5.2c-2.1-0.7-4.4,0.3-6,1.8
		c-2.1,2.4-2.6,5.4-2.5,8.7C140.9,107.6,141.9,110.7,144.4,112.5z"/>
	<path class="st0" d="M186.9,96.9c-1,1.5-0.7,3.2-0.6,4.6c1.2,0.1,2.6,0.3,3.8,0.6c-0.7-1.5-1-3.5,0.7-4.4c1.6-0.9,2.6,0.9,2.9,1.9
		c0.1-1,0.7-2.1,0-2.9C192.4,94.2,188.6,94.5,186.9,96.9z"/>
	<path class="st0" d="M163.1,99c-2.8-1.9-6.8-0.9-9.6,0.7c-4.3,3.2-5.7,8.8-5,14c1,0.6,2.4,1.2,3.4,1.9c-0.7-4.4-0.6-9.6,2.6-13.1
		C156.6,100.1,159.9,98.8,163.1,99z"/>
	<path class="st0" d="M147.5,99.3c-1.6,1.6-2.9,3.7-2.9,6c-0.6,2.9,1,6,2.9,8.4c-0.1-4.1,0.3-8.4,2.8-11.6
		C148.8,101.5,147.9,100.4,147.5,99.3z"/>
	<path class="st0" d="M182.7,135.2c0.7,1,1.5,2.4,2.1,3.5c0,0.1,0.1,0.3,0.1,0.3c1.5,0,2.6-0.1,4.1-0.1c-0.9-0.7-1.6-1.6-2.5-2.4
		C185.2,136,184,135.7,182.7,135.2z"/>
	<path class="st0" d="M153.2,106.5c3.2-0.7,6.6-1,9.9-0.6c-1.5-1.8-2.8-3.5-4.1-5.4C156.5,101.6,154.6,103.8,153.2,106.5z"/>
	<path class="st0" d="M191.5,103.4c-6-2.1-12.8,0.7-17.2,5c-0.6,0.7-1,1.2-1.6,1.9c1.6,1.8,2.9,3.8,4.1,6c0.9-3.5,2.9-6.9,6.6-8.4
		c2.8-1.6,6-0.6,9-1.2c1.9-0.3,4.3-1,6.2,0.1c2.1,1,4.3,3.5,3.2,6c-0.1-0.6-0.7-1.5-0.9-1.9c-0.3,0-1-0.1-1.5-0.1
		c-1,2.4,1.6,5,3.8,3.5c3.4-1.9,2.4-7.5-1.2-8.4C199.7,102.5,195,101.6,191.5,103.4z"/>
	<path class="st0" d="M220.1,107.1c1.2-1.8-0.9-4.3-2.8-3.2c-1,0.3-1.8,1.6-1.5,2.6C216.1,108.4,219.2,108.8,220.1,107.1z"/>
	<path class="st0" d="M163.7,117.2c1.8-0.6,3.7-0.9,5.7-1.2c-1.5-3.5-4.1-6.9-7.7-8.7c-1.6-0.9-3.5-0.6-5.4-0.6
		C160,109.3,162.7,113.1,163.7,117.2z"/>
	<path class="st0" d="M175.6,116c-2.1-4.9-6.8-7.8-11.6-9c2.8,2.5,5.2,5.3,6.6,8.7C172.1,116,173.8,115.9,175.6,116z"/>
	<path class="st0" d="M181.6,117.6c0.7,0.6,1.6,1,2.5,1.6c0.6-2.9,1.8-6.2,4.1-8.1c2.1-2.1,5-2.9,7.8-3.7
		C190,107.5,183.1,111.2,181.6,117.6z"/>
	<path class="st0" d="M162.8,117.5c-1.2-4.1-3.5-8.8-8.1-10.2c-1.5-0.7-2.6,1.5-1.5,2.4c2.9,2.8,4.3,6.9,4.9,10.7
		C159.7,119.4,161.2,118.4,162.8,117.5z"/>
	<path class="st0" d="M177.7,116.6c0.9,0.3,1.9,0.7,2.9,0.9c0.9-4.4,4.4-7.2,7.9-9.6C183.6,107.6,178.8,111.5,177.7,116.6z"/>
	<path class="st0" d="M185.5,118.5c0,0.1-0.1,0.7-0.1,0.9l0.6,0.1l0.3-0.3c0.7-0.7,1.5-1.2,2.1-1.9c0.7-1.9,1-4.1,2.6-5.3
		c2.1-2.4,5.3-2.8,8.4-3.4C193.1,107.3,185.9,111.9,185.5,118.5z"/>
	<path class="st0" d="M210.6,112.8c2.6-0.6,0.6-5-1.6-2.9C207.5,110.9,208.9,113.7,210.6,112.8z"/>
	<path class="st0" d="M198.7,109.7c-2.4,0.6-4.6,0.9-6.3,2.4c-1.6,1-2.4,2.8-2.9,4.4c1.2-0.1,2.4-0.3,3.5-0.6
		c0.1-0.1,0.7-0.6,0.9-0.6c1.2-1,2.8-1.5,4.4-1.6c-0.1-1-0.1-2.1,0.1-3.2L198.7,109.7z"/>
	<path class="st0" d="M157.1,119.6c-0.7-3.4-1.8-6.9-4.4-9.3c0,1.9,0,4.1,0.6,5.9C154.4,117.5,155.7,118.5,157.1,119.6z"/>
	<path class="st0" d="M162.8,130.7c-2.4-8.7-10.3-14.7-18.4-17.7c-0.6-0.1-1.6-0.6-2.1-0.7c1,1.8,1.8,4.1,3.7,5.3
		c3.8,2.4,7.1,5.9,9,9.9c1,2.5,3.7,3.4,5.9,5c0.6-0.1,1.5-0.7,1.8-1C162.7,131.5,162.7,130.9,162.8,130.7z"/>
	<path class="st0" d="M201.8,120.7c0-1.6,0.1-3.4-0.9-4.6c-1.5-1.8-4.1-1.6-5.9-0.7c-0.6,0.6-1,1-1.8,1.5c-3.7-0.3-6.9,2.4-8.5,5.4
		c-1,2.4-1,5-0.7,7.5c1,0.3,2.1,0.7,3.2,0.9c0.9-0.7,1.8-1.2,2.6-1.9c0-1.8-0.3-3.7,0.3-5.4c1.2-2.9,4.3-5.2,7.5-5.3
		c1.2-0.1,1.9,1,2.6,1.9c-0.7-0.1-1.5-0.3-2.1-0.6c-0.1,0.3-0.7,1.2-0.9,1.6C199,122.1,200.6,121.8,201.8,120.7z"/>
	<path class="st0" d="M161.9,119.3c-1.2,0.7-2.9,1.5-2.9,3.2c7.5-5.2,19-3.7,24.1,4.1c0.3-2.1,0.9-4.1,1.9-5.9
		C178.1,116.3,169,115.4,161.9,119.3z"/>
	<path class="st0" d="M207.7,119.7c3.2,1.6,6.2,3.7,8.4,6.8c1.5-1.8,3.7-2.5,5-4.4c-2.6-1.8-6-1.6-9-0.7c0.3-0.6,0.6-0.9,0.9-1.5
		c1.8-0.3,3.5-0.1,5.3-0.7c1.5,0.1,2.9,0.1,4.4,0.6c0.7-1,1.5-2.1,2.1-2.9C219,114.4,212,115.3,207.7,119.7z"/>
	<path class="st0" d="M203.1,119.6c-0.3,0.7-0.7,1.5-1,2.1v0.1c4.3,1,8.4,3.5,10.2,7.8l0.1,0.6c1-0.9,2.1-1.8,3.2-2.6
		C212.4,123.5,208,120.4,203.1,119.6z"/>
	<path class="st0" d="M183.4,129.7c-1.5-4.3-5-7.7-9.4-8.7c-3.4-1-6.9-1-10.3,0c-1.5,0.6-2.9,1-3.8,2.5c1.6-0.6,1.9-1,4.6-1h1.5
		c5,0,8.7,3.4,10.4,7.8C178.8,129.7,181.1,129.4,183.4,129.7z"/>
	<path class="st0" d="M190.9,128.4c0.6-0.1,1.6-0.3,2.1-0.3c-0.6-2.9,0.3-5.9,2.4-8.1C192.1,121.3,190.3,124.9,190.9,128.4z"/>
	<path class="st0" d="M200.9,122.9c-2.8-0.1-6.6,0.3-7.5,3.4c3.4-1.6,7.9-2.4,10.7,0.7c1.5,1.8,3.2,3.2,5.2,4.4l0.3,0.1
		c0.7-0.3,1.2-0.9,1.9-1.2c-0.1-0.3-0.6-0.9-0.7-1.2C208.9,125.6,205,123.1,200.9,122.9z"/>
	<path class="st0" d="M167.1,125.7c1.5-0.7,2.1,0.9,2.6,1.9c1.6-2.9-2.6-5.3-5-3.7c-2.5,1.5-1.6,4.6-0.9,6.8
		c0.9-0.1,1.6-0.6,2.5-0.7C165.8,128.4,165.3,126.3,167.1,125.7z"/>
	<path class="st0" d="M167.7,129.3c2.5,0,5.2,0,7.7,0.7c-1-1.8-2.5-3.4-4.1-4.6c-0.3,1-0.3,2.8-1.8,2.9c-1.2,0.3-1.6-1.5-1.9-2.1
		C166.8,127.2,166,129,167.7,129.3z"/>
	<path class="st0" d="M204.9,129.1c-2.4-3.2-7.5-4.1-10.4-1.5c2.6,0,5.2,0.6,7.5,1.9C202.7,129.3,203.7,129.1,204.9,129.1z"/>
	<path class="st0" d="M199.6,129.4c-3.7-1.6-8.1-0.7-11.2,1.9c0.3,0.3,1.2,0.9,1.8,1.2c1.2,0.9,2.5,2.1,3.4,3.4
		c0.6-0.6,0.7-1.8,1.8-1.8c1.5-0.3,1.2,1.5,1.5,2.4c-0.3-0.3-1.2-0.9-1.6-1.2c-1.6,1.2,1.2,3.2,2.4,1.6c2.1-2.4-1-5.2-3.5-5
		c-1-0.1-2.5,0.9-3.2-0.3c3.8-1.6,9.3-1.2,11.5,2.8c-0.3,0.6-0.7,0.9-0.9,1.5l-0.6-1c0,0.3-0.1,1-0.1,1.5c1.5,0,2.9-0.6,2.8-2.4
		C202.5,132.4,201.5,130.2,199.6,129.4z"/>
	<path class="st0" d="M175.9,131.6c-4.4-1.9-9.7-1.5-13.8,1.2c-0.1,0-0.3,0.1-0.6,0.3c0.7,0.3,1.6,0.9,2.4,1.2
		c1.9-0.9,3.8-1.6,6-1.6c4.1-0.1,7.9,2.1,10.3,5.3c0.7,1.5,2.1,0.9,3.4,0.7C181.8,135.7,179.4,132.8,175.9,131.6z"/>
	<path class="st0" d="M202.5,130.2c0.6,0.9,0.9,1.6,1.5,2.5c0.3,0.6,0.7,1.2,1,1.8c1.5-0.7,2.6-1.5,4.1-2.4l-1-0.6
		C206.5,130.6,204.5,130.2,202.5,130.2z"/>
	<path class="st0" d="M165.9,134.4c0,0.1,0,0.6,0,0.7c4.4,1.9,9.3,3.2,14,3.7C176.8,134.4,171.1,132.5,165.9,134.4z"/>
</g>
</svg>
