<?xml version="1.0" encoding="UTF-8"?>
<!DOCTYPE svg PUBLIC "-//W3C//DTD SVG 1.0//EN" "http://www.w3.org/TR/2001/REC-SVG-20010904/DTD/svg10.dtd">
<!-- Creator: CorelDRAW -->
<svg xmlns="http://www.w3.org/2000/svg" xml:space="preserve" width="84mm" height="53mm" version="1.0" style="shape-rendering:geometricPrecision; text-rendering:geometricPrecision; image-rendering:optimizeQuality; fill-rule:evenodd; clip-rule:evenodd"
viewBox="0 0 8400 5300"
 xmlns:xlink="http://www.w3.org/1999/xlink"
 xmlns:xodm="http://www.corel.com/coreldraw/odm/2003">
 <defs>
  <style type="text/css">
   <![CDATA[
    .fil0 {fill:black}
   ]]>
  </style>
 </defs>
 <g id="Слой_x0020_1">
  <metadata id="CorelCorpID_0Corel-Layer"/>
  <path class="fil0" d="M1650.63 502.29l5134.75 0c4.64,0 8.36,-3.33 8.36,-7.47 0,-4.09 -3.72,-7.43 -8.36,-7.43l-5134.75 0c-4.64,0 -8.41,3.34 -8.41,7.43 0,4.14 3.77,7.47 8.41,7.47zm1079.32 2607.06c0,14.41 6.24,27.93 17.55,38.11 23.39,21.04 61.39,21.04 84.75,0 23.35,-20.99 23.35,-55.2 0,-76.23 -23.36,-21 -61.36,-21 -84.75,0 -11.31,10.19 -17.55,23.74 -17.55,38.12zm143.79 0c0,19.34 -8.19,38.65 -24.55,53.37 -32.71,29.46 -85.91,29.46 -118.62,0 -15.87,-14.23 -24.58,-33.17 -24.58,-53.37 0,-20.16 8.71,-39.1 24.58,-53.38 32.71,-29.41 85.91,-29.41 118.62,0 16.36,14.72 24.55,34.07 24.55,53.38zm197.31 -126.64c0,29.76 26.86,53.9 59.9,53.9 33.04,0 59.93,-24.14 59.93,-53.9 0,-29.73 -26.89,-53.91 -59.93,-53.91 -33.04,0 -59.9,24.18 -59.9,53.91zm143.79 0c0,41.63 -37.63,75.48 -83.89,75.48 -46.26,0 -83.87,-33.85 -83.87,-75.48 0,-41.6 37.61,-75.5 83.87,-75.5 46.26,0 83.89,33.9 83.89,75.5zm-2.15 -306.55c0,14.37 6.23,27.93 17.56,38.12 11.31,10.18 26.36,15.8 42.37,15.8 16.01,0 31.05,-5.62 42.37,-15.8 11.32,-10.19 17.53,-23.75 17.53,-38.12 0,-14.41 -6.21,-27.93 -17.53,-38.11 -11.32,-10.19 -26.36,-15.8 -42.37,-15.8 -16.01,0 -31.06,5.61 -42.37,15.8 -11.33,10.18 -17.56,23.7 -17.56,38.11zm143.79 0c0,20.16 -8.73,39.11 -24.56,53.38 -15.84,14.24 -36.9,22.11 -59.31,22.11 -22.42,0 -43.48,-7.87 -59.32,-22.11 -15.84,-14.27 -24.58,-33.22 -24.58,-53.38 0,-20.2 8.74,-39.14 24.58,-53.37 32.7,-29.46 85.92,-29.46 118.63,0 15.83,14.23 24.56,33.17 24.56,53.37zm-284.54 -306.92c0,29.75 26.89,53.94 59.92,53.94 33.04,0 59.92,-24.19 59.92,-53.94 0,-29.73 -26.88,-53.92 -59.92,-53.92 -33.03,0 -59.92,24.19 -59.92,53.92zm143.81 0c0,41.63 -37.65,75.48 -83.89,75.48 -46.25,0 -83.88,-33.85 -83.88,-75.48 0,-41.6 37.63,-75.46 83.88,-75.46 46.24,0 83.89,33.86 83.89,75.46zm-484.5 -127.46c0,14.42 6.23,27.94 17.55,38.13 11.3,10.19 26.36,15.79 42.37,15.79 16,0 31.04,-5.6 42.36,-15.79 11.34,-10.19 17.55,-23.71 17.55,-38.13 0,-14.4 -6.21,-27.93 -17.55,-38.11 -11.32,-10.19 -26.36,-15.8 -42.36,-15.8 -16.01,0 -31.07,5.61 -42.37,15.8 -11.32,10.18 -17.55,23.71 -17.55,38.11zm143.77 0c0,19.35 -8.18,38.66 -24.53,53.39 -15.85,14.23 -36.92,22.1 -59.32,22.1 -22.41,0 -43.47,-7.87 -59.32,-22.1 -15.85,-14.29 -24.57,-33.23 -24.57,-53.39 0,-20.14 8.72,-39.1 24.57,-53.37 15.85,-14.23 36.91,-22.11 59.32,-22.11 22.4,0 43.47,7.88 59.32,22.11 16.35,14.72 24.53,34.03 24.53,53.37zm-484.85 126.65c0,29.71 26.89,53.92 59.93,53.92 33.03,0 59.91,-24.21 59.91,-53.92 0,-29.71 -26.88,-53.92 -59.91,-53.92 -33.04,0 -59.93,24.21 -59.93,53.92zm143.81 0c0,41.64 -37.64,75.48 -83.88,75.48 -46.27,0 -83.89,-33.84 -83.89,-75.48 0,-41.64 37.62,-75.49 83.89,-75.49 46.24,0 83.88,33.85 83.88,75.49zm-285.45 306.58c0,13.8 5.85,27.58 17.54,38.13 11.33,10.18 26.37,15.79 42.38,15.79 15.99,0 31.03,-5.61 42.35,-15.79 23.37,-21.05 23.37,-55.25 0,-76.25 -23.36,-21.04 -61.36,-21.04 -84.73,0 -11.69,10.5 -17.54,24.28 -17.54,38.12zm143.76 0c0,19.31 -8.17,38.66 -24.55,53.39 -15.84,14.23 -36.89,22.1 -59.29,22.1 -22.42,0 -43.48,-7.87 -59.33,-22.1 -32.69,-29.45 -32.69,-77.32 0,-106.76 32.71,-29.45 85.93,-29.45 118.62,0l0.02 0c16.34,14.67 24.53,34.03 24.53,53.37zm-3.03 306.89c0,29.72 26.88,53.92 59.93,53.92 33.04,0 59.9,-24.2 59.9,-53.92 0,-29.71 -26.86,-53.91 -59.9,-53.91 -33.05,0 -59.93,24.2 -59.93,53.91zm143.82 0c0,41.63 -37.64,75.49 -83.89,75.49 -46.26,0 -83.9,-33.86 -83.9,-75.49 0,-41.63 37.64,-75.48 83.9,-75.48 46.25,0 83.89,33.85 83.89,75.48zm535.71 -1727.14c110.57,78.04 182.41,193.1 199.59,318.32 -39.94,-12.05 -82.62,-18.68 -127.01,-18.68 -45.13,0 -88.54,6.77 -129.04,19.22 -9.14,2.8 -19.12,0.53 -25.94,-5.6l-0.11 -0.1c-104.59,-94.12 -274.75,-94.12 -379.34,0 -0.88,0.81 -1.77,1.6 -2.63,2.41 -6.77,6.31 -17.03,8.5 -26.21,5.47 -85.91,-28.03 -180.4,-28.78 -266.82,-2.36 17.09,-125.35 88.96,-240.56 199.65,-318.68 164.24,-115.87 393.62,-115.87 557.86,0zm-2091.59 1420.58l0 0.53c0.01,15.83 5.91,31.18 16.76,43.63l194.34 223c30.5,35.01 66.05,66.01 105.31,92.35 -13.47,30.16 -20.98,63.03 -20.98,97.46 0,108.05 73.06,201.02 177.03,241.09 -3.9,24.11 -6.01,48.44 -6.01,72.92 0,19.84 1.32,39.72 3.97,59.55l37.69 280.15c2.18,16.25 10.32,31.32 23.16,42.89 12.58,11.34 29.05,18.55 46.71,20.46l311.95 33.99c49,5.34 98.38,4.62 146.77,-1.69 14.16,29.98 34.7,58.05 61.8,82.42 84.97,76.51 209.81,95.77 314.9,57.83 29.31,35.32 63.72,67.3 102.65,94.8l248.48 175.3c13.48,9.52 30.03,15.08 47.16,15.22 0.55,0 1.09,0 1.63,0l0.26 0c17.12,-0.05 33.67,-5.65 47.16,-15.17l248.55 -175.35c38.75,-27.36 73.06,-59.22 102.27,-94.36 33.68,12.28 70.42,19.14 108.95,19.14 120.34,0.04 223.84,-65.93 268.26,-159.83 48.32,6.31 97.66,7.03 146.61,1.69l314.65 -34.29c16.9,-1.84 32.61,-8.73 44.66,-19.54l0.38 -0.36c12.06,-10.8 19.74,-25 21.77,-40.21l38.06 -283.09c2.69,-19.97 4.06,-40.29 4.06,-60.54 0,-23.75 -2.02,-47.41 -5.78,-70.81 33.53,-12.72 64.93,-31.32 92.18,-55.83 85.22,-76.64 106.53,-189.41 63.92,-284.11 39.11,-26.29 74.55,-57.16 104.95,-92.08l196.66 -225.66c10.18,-11.7 15.72,-26.11 15.77,-41.01l0 -0.49c-0.05,-14.86 -5.59,-29.28 -15.77,-40.97l-196.66 -225.66c-30.19,-34.7 -65.36,-65.44 -104.16,-91.6 13.59,-30.33 21.21,-63.39 21.21,-97.99 0.05,-108.49 -73.61,-201.81 -178.22,-241.63 3.83,-23.66 5.9,-47.6 5.9,-71.66 0,-20.24 -1.37,-40.56 -4.06,-60.5l-38.04 -283.09c-2.05,-15.21 -9.73,-29.4 -21.8,-40.26l-0.38 -0.36c-12.07,-10.81 -27.8,-17.7 -44.73,-19.56l-314.57 -34.22c-48.63,-5.29 -97.64,-4.66 -145.66,1.52 -14.17,-29.93 -34.71,-58 -61.81,-82.39 -85.21,-76.68 -210.52,-95.86 -315.78,-57.51 -29.33,-35.4 -63.83,-67.48 -102.84,-94.97l-249.6 -176.1c-13.23,-9.35 -29.55,-14.42 -46.37,-14.46l-1.63 0.04c-16.69,0.05 -32.89,5.07 -46.01,14.37l-249.63 176.15c-38.68,27.27 -72.93,59.03 -102.08,94.08 -33.45,-12.09 -69.9,-18.81 -108.07,-18.81 -120.35,0 -223.86,65.97 -268.26,159.87 -48.68,-6.45 -98.4,-7.17 -147.71,-1.79l-311.92 33.95c-17.68,1.91 -34.13,9.12 -46.73,20.47l-0.39 0.35c-12.59,11.34 -20.57,26.1 -22.71,42.03l-37.76 280.69c-5.93,44.04 -5.14,88.42 1.87,131.93 -33.12,12.72 -64.17,31.14 -91.16,55.43 -84.94,76.47 -106.34,188.75 -64.21,283.27 -39.48,26.47 -75.18,57.56 -105.82,92.75l-194.34 222.94c-10.85,12.46 -16.75,27.85 -16.76,43.69zm2510.96 -1273.15l1.08 0.98c30.87,28.12 17.23,75.44 -24.37,88.12 -60.21,18.37 -117.06,45.91 -167.48,81.76 -7.44,-57.12 -25.84,-112.41 -53.68,-163.48 -19.24,-35.23 7.91,-77.12 51.55,-77.66 69.75,-0.94 139.79,22.5 192.9,70.28zm221.03 91.22c207.17,22.55 369.38,168.56 394.45,354.93l2.84 -0.31 -2.84 0.36c16.82,125.62 -22.75,252.45 -108.76,351.81 -18.78,-34.02 -43.79,-65.88 -75.22,-94.16 -31.94,-28.78 -67.99,-51.6 -106.46,-68.59 -8.63,-3.79 -13.82,-11.75 -13.82,-20.43l0 -0.13c0,-133.09 -120.31,-241.36 -268.22,-241.36 -1.24,0 -2.49,0.04 -3.73,0.04 -9.85,0.18 -18.78,-4.93 -22.94,-12.94 -38.7,-74.34 -104.78,-134.92 -186.5,-171.21 110.55,-77.54 251.69,-113.18 391.2,-98.01zm494 553.07c50.11,43.73 81.37,104.94 81.32,172.64 0,0.54 0,1.11 0,1.69 -0.3,39.59 -47.02,64.51 -86.45,46.98 -57.25,-25.45 -119.37,-42.22 -183.49,-48.94 39.9,-45.32 70.59,-96.3 91.15,-150.31 14.13,-37.09 66.16,-49.37 97.47,-22.06zm165.65 378.15c128.78,147.77 128.78,354.17 0,501.95 -86.6,99.36 -214.29,164.01 -353.28,179.53 13.54,-36.08 20.97,-74.69 20.97,-114.86 0,-40.61 -7.51,-79.66 -21.35,-116.1 -3.12,-8.23 -0.61,-17.17 6.23,-23.31l0.13 -0.13c104.56,-94.09 104.56,-247.19 0,-341.32 -0.91,-0.8 -1.81,-1.59 -2.7,-2.35 -7.07,-6.15 -9.42,-15.39 -6.09,-23.67 16.05,-39.76 24.08,-81.59 24.08,-123.39 0,-39.2 -7.11,-78.38 -21.19,-115.92 138.96,15.56 266.64,80.2 353.2,179.57zm-85.03 705.45c0.94,62.69 -25.11,125.63 -78.17,173.35 -0.57,0.5 -1.13,0.98 -1.69,1.51 -31.34,27.67 -83.81,15.71 -97.99,-21.7 -20.58,-54.23 -51.33,-105.42 -91.39,-150.93 63.92,-6.67 125.79,-23.34 182.86,-48.62 39.18,-17.35 85.78,7.12 86.38,46.39zm-180.18 372.68c-25.07,186.43 -187.28,332.37 -394.45,354.93l0.13 0 -0.16 0.04c-139.41,15.17 -280.54,-20.46 -391.07,-97.95 38.52,-17.21 74.12,-40.03 105.41,-68.18 31.92,-28.75 57.24,-61.18 76.11,-95.73 4.24,-7.79 13.13,-12.51 22.78,-12.51l0.15 0c147.91,0 268.24,-108.27 268.24,-241.31 0,-1.16 -0.02,-2.23 -0.03,-3.34 -0.18,-8.89 5.5,-16.99 14.44,-20.73 82.26,-34.7 149.37,-93.81 189.72,-166.94 85.98,99.29 125.58,226.19 108.73,351.72zm-614.82 444.71c-48.58,44.7 -116.3,72.5 -191.09,72.46 -0.73,0 -1.41,0 -2.13,0 -43.97,-0.31 -71.64,-42.26 -52.2,-77.75 28.02,-51.21 46.55,-106.72 54,-164.06 50.26,35.72 106.86,63.17 166.85,81.53 41.36,12.68 55.12,59.71 24.57,87.82zm-420.02 148.92c-164.24,115.88 -393.63,115.88 -557.86,0 -110.7,-78.11 -182.57,-193.37 -199.66,-318.75 40.36,12.31 83.5,19.12 128.41,19.12 45.14,0 88.52,-6.76 129.03,-19.22 9.14,-2.8 19.11,-0.53 25.95,5.61l0.12 0.13c104.56,94.08 274.73,94.08 379.3,0 0.84,-0.75 1.65,-1.51 2.48,-2.27 6.82,-6.36 17.11,-8.45 26.34,-5.42 43.4,14.19 89.69,21.61 137.25,21.61 44.29,0 87.42,-6.53 128.2,-18.86 -17.21,125.09 -89.04,240.08 -199.56,318.05zm-976.16 -147.51l-1.28 -1.2c-30.8,-28.11 -17.24,-75.32 24.29,-88.08 59.92,-18.37 116.49,-45.77 166.67,-81.49 7.44,57.07 25.85,112.36 53.66,163.39 19.26,35.31 -7.99,77.35 -51.7,77.7 -69.34,0.63 -138.86,-22.82 -191.64,-70.32zm-222.07 -91.14c-207.17,-22.6 -369.4,-168.54 -394.46,-354.97 -2.56,-18.94 -3.85,-38.3 -3.85,-57.43 0,-106.89 40.11,-210.8 113.38,-295.01 19.11,34.66 44.46,66.68 75.74,94.79 31.58,28.43 67.53,51.43 106.45,68.69 8.61,3.77 13.82,11.69 13.82,20.33l0 0.14c0,133.08 120.34,241.36 268.23,241.36 1.29,0 2.59,0 3.86,-0.05 9.77,-0.13 18.67,4.9 22.81,12.86 38.56,74.15 104.34,134.6 185.71,170.91 -110.61,77.8 -252.01,113.56 -391.69,98.39l0 -0.01zm-494.21 -554.25c-49.21,-43.64 -79.75,-104.27 -79.75,-171.17l0 -0.89c0.17,-39.77 47.12,-64.73 86.76,-47.25 56.62,24.92 117.92,41.42 181.21,48.09 -39.43,44.89 -69.72,95.51 -90.13,149.07 -14.23,37.4 -66.8,49.9 -98.09,22.15zm-165.52 -376.9c-128.75,-147.78 -128.75,-354.18 0,-501.95l0.02 0c86.9,-99.78 215.17,-164.5 354.68,-179.71 -13.56,36.11 -21.01,74.77 -21.01,114.98 0,40.57 7.51,79.63 21.34,116.11 3.11,8.18 0.6,17.22 -6.24,23.35l-0.11 0.09c-104.59,94.08 -104.59,247.24 0,341.32 0.83,0.75 1.66,1.46 2.48,2.23 7.07,6.12 9.42,15.39 6.07,23.65 -15.79,39.07 -24.04,80.74 -24.04,123.54 0,40.08 7.31,79.17 21.22,116.05 -139.42,-15.34 -267.55,-80.03 -354.41,-179.66zm86.33 -706.35c-0.64,-62.32 25.4,-124.81 78.14,-172.28l0.68 -0.62c31.22,-27.89 83.91,-15.57 98.14,21.88 20.43,53.83 50.87,104.63 90.44,149.69 -63.17,6.67 -124.37,23.13 -180.89,47.99 -39.35,17.31 -86.14,-7.25 -86.51,-46.66zm1408.7 -544.11c1.09,0.98 2.2,2 3.29,2.98 42.57,39.27 58.15,95.63 43.36,148.88 -7.73,27.85 -11.85,56.99 -11.85,87.01 0,4.8 0.14,9.61 0.37,14.37 -86.04,4.58 -168.58,21.09 -245.71,47.54l0 -8.08c0,-141.11 -66.02,-276.02 -181.36,-371.48 132.31,-42.66 286.12,-16.42 391.9,78.78zm61.12 252.18c-0.19,-4.41 -0.35,-8.86 -0.35,-13.3 0,-42.21 8.74,-82.61 24.58,-119.88 17.91,42.75 25.82,88.12 23.79,133.23 -8.13,-0.22 -16.3,-0.36 -24.48,-0.36 -7.89,0 -15.71,0.14 -23.54,0.31zm317.4 40.52l0 7.6c-76.42,-26.06 -158.16,-42.35 -243.36,-47.01 0.23,-4.99 0.39,-9.93 0.39,-14.86 0,-28.7 -3.79,-57.34 -11.33,-85.32 -14.67,-54.45 1.7,-111.92 45.54,-151.69 67.91,-61.56 161.96,-99.77 265.75,-99.77 43.73,0 85.68,6.84 124.72,19.3 -115.53,95.42 -181.71,230.5 -181.71,371.75zm28.67 4.68l0 -4.67c0,-65.79 14.81,-129.8 43.95,-190.25 11.13,-23.09 36.15,-26.21 54.67,-19.32 18.54,6.91 33.8,25 23.52,48.45 -26.89,61.25 -66.75,115.97 -118.46,162.49l-3.68 3.3zm403.05 -58.5l0 1.11c-0.2,55.39 -32.68,107.11 -85.51,135.5 -27.68,14.85 -53.79,33 -77.6,54.44 -3.93,3.52 -7.67,7.17 -11.41,10.81 -62.53,-49.95 -133.43,-91.63 -210.65,-122.99l6.05 -5.43c104.4,-93.94 164.27,-224.02 164.27,-356.88 0,-6.86 -0.19,-14.02 -0.58,-21.67 127.18,53.96 215.42,170.42 215.42,305.11l0.01 0zm385.2 684.42c-1.14,1.01 -2.27,2.04 -3.41,3.02 -43.6,38.25 -106.19,52.31 -165.22,39.01 -31.02,-6.99 -63.46,-10.72 -96.84,-10.72 -5.35,0 -10.67,0.13 -15.98,0.31 -5.11,-77.18 -23.32,-151.24 -52.58,-220.46l8.07 0c157.14,0 307.41,-59.65 413.48,-163.83 14.67,36.83 22.07,75.53 22.07,114.24 -0.01,86.34 -36.53,172.68 -109.59,238.43zm8.89 129.4c-33.78,-28.61 -33.07,-76.61 0.69,-105.21 2.97,-2.54 5.91,-5.07 8.78,-7.7 32.36,-29.08 57.92,-62 76.86,-97.14 2.73,2.27 5.42,4.54 8.05,6.89 95.24,85.72 95.24,225.13 0,310.84 -1.57,1.39 -3.21,2.67 -4.81,4.06 -21.73,-42.31 -52.3,-80.21 -89.57,-111.74zm-334.85 211.78l-8.07 0c29.14,-68.86 47.31,-142.57 52.52,-219.39 5.49,0.18 11.01,0.31 16.53,0.31 32.76,0 64.88,-3.51 95.87,-10.36 61.05,-13.48 126,3.15 170.16,43.42 66.86,60.89 108.23,144.52 108.23,236.68 0,39.68 -7.74,77.76 -21.77,113.16 -106.11,-104.17 -256.36,-163.82 -413.47,-163.82zm-59.46 621.02c16.45,-40.26 24.8,-82.6 24.8,-124.95 0,-3.42 -0.06,-6.81 -0.18,-10.19 -1.32,-42.08 36.51,-76.11 83.27,-74.82 4.01,0.14 8.01,0.18 12.06,0.18 45.75,0 89.71,-6.98 130.7,-19.74 0.17,3.28 0.27,6.57 0.27,9.96 0,121.17 -109.55,219.74 -244.26,219.74 -2.23,0 -4.44,-0.13 -6.66,-0.18zm-214.62 158.01c0,-132.88 -59.87,-262.95 -164.27,-356.88l-6.05 -5.43c76.93,-31.24 147.59,-72.69 209.94,-122.43 26.37,25.81 56.82,48.18 90.44,66.25 51.57,27.7 82.83,78.28 83.4,132.33 0,1.02 0,2.1 0,3.2 0,86.29 -36.52,172.68 -109.57,238.38 -30.88,27.81 -66.17,50.13 -104.47,66.46 0.39,-7.74 0.58,-14.99 0.58,-21.88zm-188.21 -341.89l3.68 3.28c51.68,46.49 91.55,101.15 118.48,162.49 10.26,23.4 -4.99,41.51 -23.51,48.4 -18.54,6.9 -43.54,3.84 -54.7,-19.25 -29.14,-60.46 -43.95,-124.51 -43.95,-190.3l0 -4.62zm-237.87 297.31c-1.13,-0.97 -2.24,-2.04 -3.37,-3.07 -42.5,-39.23 -58.09,-95.5 -43.32,-148.66 7.75,-27.89 11.89,-57.06 11.89,-87.14 0,-4.81 -0.14,-9.57 -0.34,-14.33 85.54,-4.58 167.62,-20.91 244.34,-47.1l0 7.61c0,141.37 66.26,276.55 181.98,371.96 -39.98,12.81 -82.51,19.53 -126.21,19.53 -100.08,0 -194.17,-35.1 -264.97,-98.8zm-61.12 -252.18c0.21,4.45 0.35,8.85 0.35,13.3 0,42.35 -8.78,82.83 -24.67,120.19 -15.9,-37.76 -24.32,-78.15 -24.32,-119.7 0,-4.63 0.15,-9.25 0.37,-13.83 8.21,0.22 16.45,0.4 24.73,0.4 7.88,0 15.73,-0.14 23.54,-0.36zm-318.73 -40.51l0 -8.05c76.78,26.33 158.89,42.79 244.5,47.46 -0.2,4.94 -0.36,9.91 -0.36,14.9 0,29.45 3.93,58.36 11.54,86.25 14.67,53.82 -1.59,110.63 -44.86,150.04 -67.95,61.97 -162.29,100.44 -266.47,100.44 -44.08,0 -86.38,-6.94 -125.7,-19.61 115.33,-95.37 181.35,-230.34 181.35,-371.43zm-28.68 -4.63l0 4.62c0,64.99 -14.44,128.29 -42.91,188.17 -11.05,23.16 -36.15,26.28 -54.79,19.29 -14.47,-5.38 -26.92,-17.47 -26.92,-33.58 0,-4.67 1.04,-9.65 3.4,-14.95 26.92,-60.41 66.49,-114.32 117.56,-160.27l3.66 -3.28zm-401.7 58.44c0,-0.98 0,-2 0.01,-3.02 0.53,-55.29 34.22,-105.57 86.84,-134.2 27.41,-14.9 53.02,-32.92 76.25,-53.84 3.93,-3.51 7.65,-7.15 11.4,-10.81 62.26,49.79 132.86,91.33 209.71,122.65l-6.44 5.79c-110.87,99.76 -170.01,237 -163.68,378 -126.47,-54.22 -214.09,-170.32 -214.09,-304.57zm-385.2 -684.41c1.1,-0.98 2.22,-2.01 3.34,-2.98 43.63,-38.3 106.29,-52.32 165.41,-39.02 30.98,6.99 63.37,10.68 96.72,10.68 5.33,0 10.65,-0.13 15.96,-0.31 5.1,77.18 23.31,151.23 52.57,220.46l-9.36 0c-156.79,0 -306.69,59.39 -412.74,163.12 -14.24,-35.94 -21.67,-74.24 -21.67,-113.52 0,-90.08 38.98,-174.73 109.77,-238.43zm-8.91 -129.4c33.82,28.6 33.07,76.63 -0.73,105.24 -2.93,2.5 -5.85,5.07 -8.74,7.65 -31.93,28.74 -57.76,61.53 -77.01,97.02 -2.69,-2.18 -5.32,-4.44 -7.91,-6.76 -95.24,-85.68 -95.24,-225.13 0,-310.81 1.58,-1.41 3.24,-2.71 4.85,-4.08 21.72,42.29 52.27,80.15 89.54,111.74zm333.56 -211.79l9.36 0c-29.17,68.95 -47.33,142.75 -52.52,219.62 -38.6,-1.43 -77.38,2.14 -115.03,10.67 -58.82,13.3 -121.13,-2.98 -164.26,-41.32 -68.78,-61.17 -111.45,-146 -111.45,-239.64 0,-39.32 7.59,-77.08 21.4,-112.17 106.02,103.56 255.82,162.84 412.5,162.84zm60.49 -621.02c-16.18,39.5 -24.7,81.62 -24.7,125 0,3.38 0.05,6.75 0.16,10.14 1.32,42.07 -36.47,76.07 -83.26,74.82 -3.94,-0.09 -7.89,-0.18 -11.86,-0.18 -45.77,0 -89.74,6.99 -130.71,19.75 -0.16,-3.29 -0.29,-6.59 -0.29,-9.91 0,-121.22 109.57,-219.8 244.26,-219.8 2.15,0 4.27,0.13 6.4,0.18zm680.61 181.09l-88.74 62.58c-27.73,19.58 -50.45,44.31 -66.85,72.11 -20.33,34.48 -64.39,50.89 -105.85,39.46 -33.46,-9.21 -68.98,-12.23 -103.98,-8.4l-110.59 12.05c-4.6,-5.7 -9.39,-11.25 -14.34,-16.69 131.46,-104.88 301.02,-171.92 487.45,-181.8 0.74,6.98 1.72,13.84 2.9,20.69zm23.78 -16.47c-0.24,-1.73 -0.47,-3.45 -0.68,-5.24 6.63,-0.17 13.29,-0.26 19.95,-0.26 -6.85,0.26 -13.53,2.17 -19.27,5.5zm43.3 0.72c-6.03,-3.82 -13.26,-5.96 -20.87,-6.22 7.25,0 14.43,0.09 21.61,0.26 -0.21,2.01 -0.47,3.96 -0.74,5.96zm514.02 177.44c-4.88,5.3 -9.55,10.72 -14.06,16.24l-112.01 -12.18c-35.01,-3.83 -70.51,-0.81 -103.94,8.4 -41.46,11.43 -85.53,-4.98 -105.86,-39.46 -16.4,-27.8 -39.13,-52.53 -66.87,-72.11l-87.47 -61.69c1.26,-7.17 2.27,-14.33 3.06,-21.53 186.35,10.1 355.82,77.27 487.15,182.33zm34.08 0.27c3.47,-3.38 7.03,-6.76 10.67,-10.05 33.19,-29.85 71.11,-52.85 111.58,-69.13 -21.03,41.82 -51.24,79.09 -88.34,109.74 -10.99,-10.5 -22.27,-20.69 -33.91,-30.56zm-14.95 15.53c3.79,3.25 7.58,6.49 11.31,9.78 -4.39,-2.85 -9.32,-5.02 -14.67,-5.96 1.12,-1.24 2.23,-2.54 3.36,-3.82zm-51.23 74.46c4.16,-8.28 8.75,-16.42 13.66,-24.43 4.69,3.87 9.15,7.96 13.42,12.18 -8.83,4.41 -17.82,8.5 -27.08,12.25zm175.46 440.6c-36.03,-16.11 -69.33,-37.47 -98.61,-63.79 -29.9,-26.92 -54.07,-57.6 -72.06,-90.84 6.28,-4.63 12.33,-9.52 18.08,-14.73 2.74,-2.44 5.5,-5.03 8.44,-7.95 64.28,5.02 123.84,33.97 163.66,79.61 20.5,23.59 33.54,50.54 39.12,78.43 -20.22,5.07 -39.81,11.52 -58.63,19.27zm151.02 34.64c0.25,-7.38 0.4,-14.81 0.4,-22.24 0,-7.11 -0.15,-14.14 -0.37,-21.22 4.92,-0.17 9.86,-0.31 14.82,-0.31 47.03,0 92.02,7.92 133.52,22.24 -41.92,14.29 -86.83,21.85 -133.03,21.85 -5.13,0 -10.24,-0.14 -15.34,-0.32zm-130.28 86.03l-1.25 1.43c-39.8,45.63 -99.37,74.59 -163.63,79.62 -8.17,-8.1 -16.94,-15.52 -26.2,-22.42 36.48,-66.41 96.53,-120.5 170.27,-153.42 18.87,7.74 38.39,14.15 58.44,19.18 -5.62,26.86 -18.14,52.8 -37.63,75.61zm-196.65 345.36c9.04,3.69 17.95,7.7 26.71,12.05 -4.23,4.18 -8.68,8.15 -13.35,11.92 -4.76,-7.82 -9.28,-15.79 -13.36,-23.97zm65.97 89.9c11.65,-9.88 22.96,-20.06 33.95,-30.52 3.78,3.12 7.52,6.32 11.18,9.61 33.17,29.86 58.75,63.96 76.85,100.4 -46.49,-18.91 -87.9,-46.13 -121.98,-79.49zm-18.82 -20.02c5.97,-0.67 11.45,-3.07 16.34,-6.27 -4.09,3.6 -8.22,7.16 -12.4,10.72 -1.33,-1.47 -2.64,-2.98 -3.94,-4.45zm-505.74 180.83l88.4 -62.38c7.96,-5.64 15.57,-11.69 22.67,-18.1 17.76,-15.96 32.68,-34.29 44.34,-54.26 20.15,-34.43 64.37,-50.58 105.75,-39.2 33.4,9.22 68.89,12.24 103.91,8.42l110.72 -12.06c4.69,5.83 9.62,11.47 14.67,17.03 -131.47,104.94 -301.04,171.93 -487.45,181.8 -0.77,-7.16 -1.78,-14.23 -3.01,-21.25zm-23.75 16.59c0.27,1.9 0.54,3.82 0.76,5.74 -6.84,0.17 -13.69,0.27 -20.57,0.27 7.1,-0.27 14.03,-2.32 19.81,-6.01zm-43.51 -0.45c5.93,4.01 13.14,6.14 20.7,6.46 -7.18,-0.05 -14.33,-0.14 -21.47,-0.32 0.23,-2.04 0.5,-4.08 0.77,-6.14zm-513.79 -177.27c4.96,-5.38 9.72,-10.89 14.25,-16.54l111.42 12.15c35,3.82 70.52,0.8 103.98,-8.42 41.44,-11.42 85.5,4.99 105.85,39.46 16.39,27.81 39.12,52.54 66.85,72.1l87.74 61.89c-1.27,7.15 -2.3,14.4 -3.08,21.7 -186.31,-10.1 -355.71,-77.31 -487.01,-182.34zm-34.06 -0.26c-3.46,3.43 -6.99,6.77 -10.64,10.05 -32.8,29.5 -70.61,52.76 -111.68,69.35 21,-41.89 51.27,-79.23 88.42,-109.92 10.96,10.46 22.27,20.64 33.9,30.52zm14.92 -15.52c-4.04,-3.43 -8.03,-6.85 -11.98,-10.36 4.58,3.01 9.82,5.29 15.62,6.26 -1.21,1.39 -2.4,2.76 -3.64,4.1zm51.06 -74.37c-4.09,8.23 -8.63,16.28 -13.49,24.24 -4.7,-3.82 -9.17,-7.87 -13.43,-12.05 8.78,-4.36 17.73,-8.5 26.92,-12.19zm-175.43 -440.6c35.68,15.84 69.15,37 98.81,63.7 30.15,27.13 54.03,57.78 71.72,90.47 -9.4,6.95 -18.33,14.51 -26.59,22.69 -64.29,-5.03 -123.88,-33.99 -163.65,-79.62 -20.43,-23.45 -33.41,-50.22 -39.04,-77.98 20.27,-5.08 39.89,-11.52 58.75,-19.26zm-150.84 -34.48c-0.25,7.31 -0.42,14.65 -0.42,22.02 0,7.08 0.15,14.15 0.38,21.18 -4.91,0.17 -9.84,0.3 -14.79,0.3 -46.91,0 -91.81,-7.87 -133.25,-22.1 47.53,-16.15 97.96,-23.26 148.08,-21.4zm131.14 -88.08c5.75,-6.62 12.02,-12.98 18.6,-18.89 38.78,-34.93 90.27,-56.41 145.1,-60.63 8.25,8.18 17.16,15.69 26.55,22.64 -36.48,66.45 -96.6,120.63 -170.45,153.55 -19.1,-7.79 -38.75,-14.18 -58.74,-19.17 5.68,-27.54 18.62,-54.19 38.94,-77.5zm195.9 -343.39c-9.31,-3.78 -18.44,-7.96 -27.42,-12.41 4.34,-4.27 8.9,-8.37 13.67,-12.24 4.92,8.06 9.57,16.24 13.75,24.65zm489.57 -158.06c-17.62,32.11 -41.14,62.24 -70.8,88.93 -29.86,26.81 -63.88,48.53 -100.74,64.71 -7.73,-8.49 -16.18,-16.59 -25.35,-24.06 4.73,-49.34 28.61,-95.68 67.39,-130.56 6.59,-5.91 13.69,-11.56 21.03,-16.77 26.15,-18.46 56.07,-30.15 87.01,-35.18 5.67,18.28 12.85,35.94 21.46,52.93zm14.34 -29.62c-3.58,-8.5 -6.75,-17.17 -9.6,-25.98 6.38,-0.27 12.76,-0.22 19.12,0.09 -2.79,8.72 -5.93,17.34 -9.52,25.89zm14.41 29.72c8.69,-17.18 15.77,-34.84 21.32,-52.81 30.5,5.16 59.93,16.77 85.72,34.96 50.72,35.82 82.9,89.42 88.48,147.29 -9.07,7.43 -17.43,15.39 -25.12,23.8 -73.75,-32.83 -133.85,-86.87 -170.4,-153.24zm113.07 294.02c-40.02,-13.12 -82.97,-20.64 -127.96,-20.64 -45.13,0 -88.23,7.56 -128.36,20.78 -0.66,-43.55 -15.28,-85.68 -41.42,-121.48 37.77,-17.13 72.72,-39.68 103.49,-67.36 26.96,-24.24 49.14,-51.19 66.8,-79.75 38.82,62.76 97.88,114.06 169.17,146.75 -26.28,35.9 -41.01,78.12 -41.72,121.7zm18.29 -0.97c0.62,-27.04 6.93,-53.34 18.78,-78.29 4.14,-8.76 13.33,-9.92 20.59,-7.25 7.24,2.71 12.85,9.38 8.89,18.19 -11.2,25.23 -27.43,47.87 -48.26,67.35zm193.62 175.27c-37.4,-71.58 -101.73,-129.41 -181.37,-162.95 33.67,-31.23 56.5,-70.42 66.15,-112.37 39.7,11.88 82.1,18.38 126.19,18.38 38.03,0 74.78,-4.89 109.69,-13.84 -10.12,31.89 -15.42,65.21 -15.42,99.29 0,38.66 6.83,76.38 19.76,112.1 -46.72,8.62 -90.22,29.09 -125,59.38l0 0.01zm101.6 -6.15c-28.02,10.89 -57.6,16.72 -88.05,17.26 21.95,-18.95 47.43,-33.67 75.85,-43.78 9.84,-3.47 17.22,1.51 20.22,8.01 2.97,6.45 1.67,14.68 -8.02,18.51zm-12.26 324.64c-28.39,-10.06 -53.87,-24.79 -75.78,-43.73 30.36,0.54 59.96,6.31 87.99,17.26 9.65,3.77 10.92,12 7.99,18.51 -2.98,6.48 -10.37,11.47 -20.2,7.96zm15.39 140.3c0,34.31 5.46,67.49 15.46,98.93 -76.9,-19.7 -159.1,-18.37 -235.29,3.97 -9.54,-42.09 -32.34,-81.28 -66,-112.64 79.6,-33.58 143.91,-91.42 181.24,-163.07 34.79,30.29 78.3,50.7 125,59.3 -13.21,35.71 -20.41,73.88 -20.41,113.51zm-298.33 2.35c21.04,19.7 37.38,42.61 48.62,68.14 3.85,8.86 -1.67,15.53 -8.9,18.2 -7.22,2.67 -16.36,1.48 -20.56,-7.21 -12.1,-25.17 -18.57,-51.77 -19.16,-79.13zm-292.98 0c-0.58,27.31 -7.07,53.96 -19.22,79.22 -4.21,8.72 -13.36,9.88 -20.56,7.21 -5.57,-2.04 -10.15,-6.53 -10.15,-12.54 0,-1.74 0.38,-3.65 1.26,-5.61 11.23,-25.63 27.59,-48.54 48.67,-68.28zm-193.44 -175.39c37.25,71.67 101.51,129.53 181.08,163.21 -33.7,31.28 -56.44,70.46 -66.02,112.46 -39.57,-11.79 -81.85,-18.24 -125.77,-18.24 -38.12,0 -74.97,4.94 -109.91,13.92 10.26,-32.43 15.46,-65.88 15.46,-99.37 0,-38.03 -6.72,-75.97 -19.95,-112.45 46.74,-8.64 90.31,-29.15 125.11,-59.53zm-106.1 9.02c1.46,-1.29 3.25,-2.35 5.37,-3.15 27.75,-10.68 57.01,-16.32 87.03,-16.86 -21.65,18.68 -46.79,33.27 -74.81,43.37 -9.82,3.55 -17.24,-1.48 -20.24,-7.96 -2.05,-4.45 -2.44,-10.82 2.65,-15.4zm16.64 -327.38c28.37,10.1 53.82,24.78 75.78,43.73 -30.41,-0.54 -59.96,-6.32 -87.96,-17.21 -6.75,-2.67 -9.45,-7.48 -9.45,-12.34 0,-2.13 0.52,-4.22 1.43,-6.22 0.91,-1.95 2.25,-3.78 3.88,-5.25 2.54,-2.27 8.03,-5.69 16.32,-2.71zm429.6 -141.69c194.5,0 352.76,142.4 352.76,317.43 0,175 -158.26,317.39 -352.76,317.39 -194.52,0 -352.74,-142.39 -352.74,-317.39 0,-175.03 158.22,-317.43 352.74,-317.43zm-165.89 -80.1c12.12,25.18 18.59,51.78 19.19,79.13 -21.03,-19.7 -37.38,-42.66 -48.64,-68.19 -0.89,-2.05 -1.25,-3.91 -1.25,-5.6 0,-4.37 2.47,-7.44 4.3,-9.07 1.65,-1.47 3.67,-2.68 5.85,-3.48 7.21,-2.71 16.35,-1.55 20.55,7.21zm-278.7 81.83c0,-34.24 -5.45,-67.3 -15.38,-98.7 35.44,9.08 72.47,13.88 110.33,13.88 42.99,0 84.89,-6.14 124.61,-17.79 9.64,41.99 32.48,81.14 66.25,112.35 -79.6,33.59 -143.87,91.42 -181.21,163.04 -34.72,-30.34 -78.21,-50.85 -124.91,-59.51 13.14,-35.64 20.31,-73.72 20.31,-113.27zm-83.17 108.82c-41.55,-44.48 -60.9,-102.84 -53.15,-160.44 3.97,-29.59 15.86,-56.81 33.67,-79.99 18.3,9.36 37.34,17.35 56.98,23.98 12.7,33.8 19.69,70.01 19.69,107.64 0,38.39 -7.21,75.28 -20.41,109.66 -12.15,-1.07 -24.43,-1.38 -36.78,-0.85zm-123.36 206.41c69.88,-34.97 126.94,-88.21 163.25,-152.45 39.86,23.62 86.79,36.79 135.24,37.41 -14.64,36.12 -23.05,74.91 -23.05,115.52 0,40.44 8.34,79.14 22.9,115.12 -48.35,0.62 -95.23,13.88 -135.1,37.5 -18.73,-33.53 -43.51,-65.03 -74.58,-92.97 -26.95,-24.28 -56.86,-44.21 -88.66,-60.13zm-156.79 -0.9c0.02,-6.4 0.14,-12.81 0.34,-19.16 2.14,0.22 4.27,0.44 6.4,0.67 -4.13,5.45 -6.44,11.86 -6.74,18.49zm6.43 20.47c-2.04,0.22 -4.08,0.44 -6.13,0.62 -0.19,-6.15 -0.28,-12.32 -0.3,-18.51 0.29,6.37 2.5,12.59 6.43,17.89zm60.13 -28.12c9.69,2.53 19.32,5.35 28.81,8.59 -9.45,3.2 -19.08,6.04 -28.85,8.62 -0.3,-5.73 -0.28,-11.47 0.04,-17.21zm250.11 214.68c26.51,70.28 26.57,146.88 0.2,217.21 -19.57,6.62 -38.42,14.59 -56.44,23.75 -17.69,-23.13 -29.48,-50.22 -33.44,-79.71 -7.69,-57.61 11.61,-115.97 53.15,-160.41 12.25,0.53 24.45,0.23 36.53,-0.84zm557.54 300.43c-26.66,23.98 -49,50.8 -66.88,79.63 -38.92,-62.86 -98.14,-114.18 -169.62,-146.84 26.25,-35.89 41.04,-78.34 41.82,-121.58 40.13,13.17 83.23,20.74 128.37,20.74 44.99,0 87.96,-7.52 127.98,-20.6 0.8,43.55 15.52,85.68 41.78,121.48 -37.32,16.82 -72.35,39.19 -103.45,67.17zm-52.54 105.25c17.89,-32.43 41.63,-62.37 70.89,-88.7 30.21,-27.23 64.36,-48.7 100.79,-64.63 7.63,8.32 15.95,16.29 24.96,23.62 -5.55,57.83 -37.76,111.43 -88.48,147.28 -26.06,18.37 -55.89,30.07 -86.75,35.15 -5.63,-18.2 -12.81,-35.82 -21.41,-52.72zm-14.34 29.54c3.56,8.44 6.73,17.08 9.56,25.85 -6.38,0.25 -12.74,0.25 -19.12,-0.05 2.81,-8.72 5.95,-17.31 9.56,-25.8zm-121.85 -11.88l0.1 -0.09c-50.74,-35.8 -82.94,-89.41 -88.48,-147.28 3.21,-2.62 6.11,-5.12 8.81,-7.52 5.72,-5.16 11.14,-10.54 16.24,-16.15 73.9,32.78 134.15,86.88 170.77,153.29 -8.63,17.04 -15.75,34.61 -21.35,52.67 -30.6,-5.11 -60.14,-16.78 -85.99,-35.01l-0.1 0.09zm649.78 -422.49c41.54,44.49 60.88,102.99 53.14,160.41 -3.97,29.66 -15.94,56.97 -33.84,80.24 -18.19,-9.2 -37.03,-17.08 -56.27,-23.56 -12.78,-33.91 -19.81,-70.16 -19.81,-107.93 0,-38.48 7.26,-75.49 20.54,-109.95 11.97,1.02 24.07,1.32 36.24,0.79zm123.64 -206.01c-69.78,34.96 -126.79,88.17 -163.08,152.31 -39.79,-23.66 -86.67,-36.96 -135.15,-37.68 14.57,-35.98 22.94,-74.64 22.94,-115.12 0,-40.61 -8.42,-79.45 -23.08,-115.52 47.99,-0.71 95.07,-13.97 134.91,-37.5 19.02,34.08 44.12,65.61 74.94,93.32 26.65,24.03 56.47,44.14 88.52,60.19zm156.89 0.58c-0.01,6.59 -0.12,13.16 -0.35,19.71 -2.33,-0.23 -4.67,-0.49 -7.01,-0.76 4.58,-5.38 7.05,-12.01 7.36,-18.95zm-6.41 -20.2c2.03,-0.22 4.05,-0.45 6.1,-0.61 0.17,5.95 0.28,11.96 0.3,17.96 -0.32,-6.18 -2.5,-12.23 -6.4,-17.35zm-60.55 28.25c-9.68,-2.54 -19.26,-5.38 -28.66,-8.59 9.4,-3.24 19.03,-6.08 28.77,-8.67 0.3,5.79 0.22,11.52 -0.11,17.26zm-249.99 -215.16c-12.99,-34.51 -19.87,-71.09 -19.87,-108.58 0,-37.36 6.83,-73.8 19.73,-108.18 19.64,-6.64 38.51,-14.59 56.57,-23.8 17.51,23.04 29.21,49.99 33.14,79.27 7.74,57.65 -11.6,115.96 -53.14,160.44 -12.22,-0.53 -24.4,-0.22 -36.43,0.85zm-1045.56 -321.97c1.27,1.39 2.5,2.8 3.73,4.18 -5.9,0.93 -11.35,3.38 -16.24,6.68 4.14,-3.65 8.3,-7.3 12.51,-10.86zm-48.82 14.94c-3.76,-3.11 -7.51,-6.31 -11.15,-9.55 -32.79,-29.54 -58.65,-63.57 -77.08,-100.49 46.58,18.9 88.08,46.12 122.19,79.53 -11.63,9.87 -22.97,20.06 -33.96,30.51zm21.51 16.51c-1.42,-1.02 -2.84,-2.05 -4.24,-3.07 3.73,-3.56 7.49,-7.07 11.31,-10.59 -3.34,4.09 -5.9,8.68 -7.07,13.66zm173.73 -26.15c64.03,-6.99 128.94,10.45 178.28,47.81 -0.62,11.13 -0.27,22.2 0.94,33.14 -38.35,11.7 -78.95,17.89 -120.65,17.89 -41.51,0 -81.99,-6.15 -120.23,-17.75 -7.39,-17.8 -16.31,-34.87 -26.59,-51.2 25.63,-15.8 55.67,-26.38 88.25,-29.89zm-372.73 231.88l-5.18 0c-73.04,0 -144.11,-13.29 -211.28,-39.45 -17.97,-7.03 -25.02,-20.16 -25.02,-33.1 0,-5.56 1.3,-11.12 3.61,-16.11 7.67,-16.67 27.78,-30.42 53.8,-21.17 68.06,24.2 128.74,60.06 180.4,106.54l3.67 3.29zm177.19 -191.54c5.88,4.36 11.88,8.54 17.98,12.59l-13.49 100.48c-4.27,31.45 -0.92,63.43 9.35,93.56 12.64,37.09 -5.23,76.81 -43.39,94.97 -22.25,10.58 -42.83,24.2 -60.81,40.34 -7.04,6.37 -13.66,13.12 -19.76,20.06l-68.9 79.09c-7.83,-1.12 -15.72,-1.99 -23.59,-2.71 11.17,-167.71 85.85,-320.24 202.61,-438.38zm-180.87 776.46c-51.64,46.48 -112.33,82.33 -180.37,106.54 -26.02,9.25 -46.13,-4.5 -53.82,-21.18 -2.28,-5.02 -3.59,-10.54 -3.59,-16.11 0,-12.94 7.06,-26.06 25.02,-33.09 67.15,-26.15 138.21,-39.45 211.25,-39.45l5.18 0 -3.67 3.29zm-21.83 -250.98c7.84,-0.67 15.59,-1.57 23.29,-2.67l69.28 79.53c21.75,24.96 49.24,45.41 80.1,60.15 38.3,18.32 56.55,57.96 43.86,95.28 -10.23,30.07 -13.61,62.06 -9.35,93.5l13.44 99.91c-6.35,4.13 -12.51,8.45 -18.55,12.95 -116.6,-118.34 -191.1,-270.91 -202.07,-438.65zm231.36 466.88c-3.94,-3.64 -7.84,-7.29 -11.71,-10.98 1.56,-1.11 3.13,-2.22 4.69,-3.34 1.05,5.3 3.6,10.1 7.02,14.32zm78.02 -17.9c10.29,-16.47 19.08,-33.46 26.3,-50.85 37.67,-11.53 77.97,-17.84 119.92,-17.84 42.64,0 83.63,6.5 121.85,18.36 -1.16,10.82 -1.54,21.77 -0.94,32.75 -49.37,37.37 -114.28,54.81 -178.28,47.83 -32.85,-3.57 -63.08,-14.24 -88.85,-30.25zm1078.7 4.26c1.51,1.07 3.05,2.14 4.56,3.25 -3.75,3.56 -7.53,7.12 -11.34,10.58 3.35,-4.13 5.88,-8.76 6.78,-13.83zm-173.83 25.99c-64,6.98 -128.89,-10.46 -178.28,-47.83 0.62,-10.89 0.27,-21.75 -0.88,-32.52 78.07,-23.83 163.2,-23.88 241.33,-0.17 7.29,17.52 16.12,34.38 26.24,50.48 -25.67,15.88 -55.76,26.47 -88.41,30.04zm371.82 -231.54l5.2 0c73.01,0 144.08,13.3 211.2,39.45 25.7,10.01 29.13,32.52 21.41,49.2 -7.67,16.68 -27.78,30.43 -53.78,21.18 -68.01,-24.25 -128.73,-60.06 -180.35,-106.54l-3.68 -3.29zm-175.87 191.58c-6.05,-4.44 -12.16,-8.76 -18.44,-12.86l13.54 -100.57c4.27,-31.48 0.9,-63.47 -9.33,-93.54 -12.66,-37.23 5.29,-77.01 43.57,-95.15 22.13,-10.5 42.51,-23.94 60.27,-39.91 7.19,-6.44 13.94,-13.29 20.1,-20.37l68.5 -78.6c8.08,1.16 16.21,2.1 24.39,2.8 -11.22,167.61 -85.88,320.06 -202.6,438.2zm179.55 -776.5c51.65,-46.48 112.37,-82.34 180.46,-106.57 26,-9.26 46.11,4.48 53.78,21.16 7.72,16.73 4.25,39.19 -21.42,49.25 -67.14,26.16 -138.23,39.45 -211.3,39.45l-5.2 0 3.68 -3.29zm23.13 250.99c-7.87,0.66 -15.65,1.55 -23.36,2.66l-69.61 -79.89c-21.76,-24.95 -49.24,-45.42 -80.09,-60.13 -38.29,-18.34 -56.51,-57.97 -43.82,-95.28 10.23,-30.09 13.59,-62.07 9.3,-93.52l-13.35 -99.32c6.47,-4.19 12.71,-8.59 18.86,-13.13 116.6,118.28 191.09,270.86 202.07,438.61zm-231.59 -467.08c4.02,3.7 7.99,7.43 11.95,11.17 -1.65,1.2 -3.27,2.36 -4.93,3.51 -0.82,-5.38 -3.49,-10.28 -7.02,-14.68zm-77.84 17.97c-10.32,16.42 -19.19,33.5 -26.51,51.06 -37.61,11.43 -77.82,17.76 -119.64,17.76 -42.79,0 -83.9,-6.55 -122.24,-18.52 1.19,-10.9 1.54,-21.92 0.92,-32.96 49.39,-37.36 114.28,-54.8 178.28,-47.81 32.98,3.56 63.35,14.36 89.19,30.47zm-863.78 -402.71c28.48,59.87 42.92,123.17 42.92,188.17l0 4.67 -3.66 -3.3c-51.1,-45.99 -90.67,-99.95 -117.56,-160.31 -10.44,-23.44 4.87,-41.59 23.5,-48.53 18.64,-6.99 43.74,-3.87 54.8,19.3zm18.98 207.78l6.46 5.83c-76.56,31.18 -146.92,72.51 -209.02,122.01 -26.4,-25.84 -56.9,-48.25 -90.57,-66.32 -51.57,-27.66 -82.86,-78.24 -83.43,-132.29 -0.02,-1.02 -0.02,-2.09 -0.02,-3.11 0,-90.08 39,-174.78 109.77,-238.43 30.85,-27.81 65.83,-49.6 103.13,-65.66 -6.44,140.87 52.87,278.24 163.68,377.97zm-836.27 227.53c60.12,-114.14 189.35,-193.24 338.78,-193.24 1.11,0 2.24,0 3.38,0 61.46,0.49 117.3,30.79 149.13,78.17 16.58,24.64 36.58,47.68 59.82,68.58 3.93,3.52 7.97,6.91 12.02,10.27 -55.55,56.24 -101.86,120.07 -136.69,189.56l-6.71 -6.06c-110.76,-99.69 -263.34,-153.11 -419.73,-147.28zm419.73 772l6.71 -6.05c34.7,69.22 80.79,132.78 136.05,188.87 -28.72,23.76 -53.61,51.21 -73.71,81.5 -30.75,46.44 -86.97,74.6 -147,75.08 -1.16,0 -2.32,0 -3.51,0 -100.08,0 -194.19,-35.05 -264.96,-98.75 -30.68,-27.62 -55.38,-59.16 -73.51,-93.41 156.45,5.87 309.11,-47.56 419.93,-147.24zm23.7 566.09c-134.69,0 -244.26,-98.57 -244.26,-219.78 0,-1.92 0.15,-3.84 0.21,-5.75 43.89,14.54 90.72,22.19 138.89,22.19 3.78,0 7.53,-0.04 11.29,-0.13 46.77,-1.15 84.55,32.83 83.15,74.92 -0.11,3.55 -0.18,7.11 -0.18,10.67 0,41.19 7.77,80.74 21.96,117.61 -3.67,0.18 -7.36,0.27 -11.06,0.27zm907.26 213.97c-95.23,85.67 -250.19,85.67 -345.43,0 -1.57,-1.43 -3.02,-2.94 -4.51,-4.37 46.99,-19.57 89.1,-47.06 124.18,-80.6 31.77,-30.39 85.13,-29.75 116.93,0.63 2.79,2.67 5.61,5.29 8.52,7.92 31.96,28.72 68.39,51.95 107.84,69.29 -2.44,2.4 -4.92,4.77 -7.53,7.13zm1017.49 -632.82c-60.12,114.1 -189.36,193.27 -338.8,193.27l-1.27 0c-61.51,-0.22 -119.04,-29.44 -150.58,-76.95 -16.52,-24.91 -36.66,-48.39 -60.48,-69.84 -3.93,-3.51 -7.99,-6.89 -12.04,-10.23 55.32,-56.05 101.5,-119.57 136.28,-188.73l5.77 5.24c111.14,99.95 264.25,153.38 421.12,147.24zm-421.12 -771.96l-5.77 5.21c-34.66,-68.86 -80.61,-132.21 -135.64,-188.07 28.69,-23.71 53.56,-51.12 73.63,-81.36 31.01,-46.75 87.77,-74.65 148.23,-75 96.74,-0.58 193.68,32.25 267.34,98.53 31.05,27.93 55.46,59.65 73.3,93.45 -156.84,-6.17 -309.96,47.24 -421.09,147.24zm-22.36 -566.13c134.68,0 244.26,98.62 244.26,219.79 0,2.06 -0.14,4 -0.22,6 -48.58,-16.05 -99.95,-23.48 -151.1,-22.06 -46.39,1.25 -83.64,-33.18 -82.23,-74.9 0.14,-3.66 0.2,-7.31 0.2,-10.95 0,-41.2 -7.76,-80.73 -21.96,-117.61 3.66,-0.14 7.36,-0.27 11.05,-0.27zm-907.25 -213.92c95.24,-85.71 250.18,-85.71 345.41,0 1.59,1.38 3.02,2.89 4.53,4.32 -46.97,19.57 -89.08,47.06 -124.13,80.6 -31.82,30.38 -85.2,29.76 -117.03,-0.66 -2.75,-2.67 -5.59,-5.29 -8.45,-7.88 -32.36,-29.09 -68.93,-52.14 -107.94,-69.16 2.48,-2.45 4.99,-4.86 7.61,-7.22zm-1151.65 322.68c0,-19.17 1.29,-38.52 3.85,-57.52 25.08,-186.37 187.29,-332.38 394.46,-354.93 139.68,-15.21 281.11,20.6 391.75,98.44 -37.81,16.91 -73.3,39.42 -104.76,67.71 -31.59,28.42 -57.15,60.77 -76.32,95.82 -4.21,7.7 -13.01,12.41 -22.59,12.41l-0.16 0c-147.9,0 -268.23,108.26 -268.23,241.37 0,1.15 0.02,2.31 0.03,3.46 0.19,8.76 -5.44,16.77 -14.28,20.51 -82.63,34.79 -149.99,94.26 -190.31,167.79 -73.3,-84.21 -113.44,-188.17 -113.44,-295.06zm619.59 -501.9c48.57,-44.79 116.34,-72.64 191.26,-72.64l0.97 0c43.99,0.13 71.66,42.26 52.23,77.76 -27.99,51.2 -46.51,106.66 -53.98,163.96 -49.99,-35.59 -106.32,-62.94 -165.99,-81.31 -41.3,-12.72 -54.98,-59.66 -24.49,-87.77zm4815.64 1207.45c0,-10.54 -9.58,-19.17 -21.3,-19.17 -11.76,0 -21.31,8.63 -21.31,19.17 0,10.59 9.55,19.17 21.31,19.17 11.72,0 21.3,-8.58 21.3,-19.17zm-44.25 0c0,-11.34 10.28,-20.59 22.94,-20.59 12.6,0 22.89,9.25 22.89,20.59 0,11.4 -10.29,20.64 -22.89,20.64 -12.66,0 -22.94,-9.24 -22.94,-20.64zm22.94 12.72c-7.82,0 -14.14,-5.69 -14.14,-12.72 0,-7.02 6.32,-12.67 14.14,-12.67 7.81,0 14.15,5.65 14.15,12.67 0,7.03 -6.34,12.72 -14.15,12.72zm21.31 115.61c0,-10.53 -9.58,-19.17 -21.3,-19.17 -11.76,0 -21.31,8.64 -21.31,19.17 0,10.59 9.55,19.18 21.31,19.18 11.72,0 21.3,-8.59 21.3,-19.18zm-44.25 0c0,-11.33 10.28,-20.58 22.94,-20.58 12.6,0 22.89,9.25 22.89,20.58 0,11.4 -10.29,20.64 -22.89,20.64 -12.66,0 -22.94,-9.24 -22.94,-20.64zm22.94 12.73c-7.82,0 -14.14,-5.68 -14.14,-12.72 0,-7.02 6.32,-12.67 14.14,-12.67 7.81,0 14.15,5.65 14.15,12.67 0,7.04 -6.34,12.72 -14.15,12.72zm34.31 -76.87c0,-17.04 -15.43,-30.87 -34.31,-30.87 -18.94,0 -34.3,13.83 -34.3,30.87 0,16.99 15.36,30.83 34.3,30.83 18.88,0 34.31,-13.84 34.31,-30.83zm-71.18 0c0,-18.33 16.5,-33.23 36.87,-33.23 20.36,0 36.87,14.9 36.87,33.23 0,18.28 -16.51,33.19 -36.87,33.19 -20.37,0 -36.87,-14.91 -36.87,-33.19zm36.87 22.08c-13.54,0 -24.53,-9.88 -24.53,-22.07 0,-12.18 10.99,-22.11 24.53,-22.11 13.53,0 24.52,9.93 24.52,22.11 0,12.19 -10.99,22.07 -24.52,22.07zm7.56 71.35l-7.56 1041.88 -7.58 -1041.88 15.14 0zm0 -186.84l-7.56 -1041.88 -7.58 1041.88 15.14 0zm-961.37 7.3c0,-14.15 -12.82,-25.67 -28.58,-25.67 -15.73,0 -28.58,11.52 -28.58,25.67 0,14.18 12.85,25.71 28.58,25.71 15.76,0 28.58,-11.53 28.58,-25.71zm-59.28 0c0,-15.22 13.76,-27.63 30.71,-27.63 16.95,0 30.75,12.41 30.75,27.63 0,15.25 -13.8,27.66 -30.75,27.66 -16.95,0 -30.71,-12.41 -30.71,-27.66zm30.71 17.08c-10.44,0 -18.93,-7.66 -18.93,-17.08 0,-9.4 8.49,-17.05 18.93,-17.05 10.48,0 18.92,7.65 18.92,17.05 0,9.42 -8.44,17.08 -18.92,17.08zm28.58 155.12c0,-14.2 -12.82,-25.71 -28.58,-25.71 -15.73,0 -28.58,11.51 -28.58,25.71 0,14.18 12.85,25.71 28.58,25.71 15.76,0 28.58,-11.53 28.58,-25.71zm-59.28 0c0,-15.26 13.76,-27.67 30.71,-27.67 16.95,0 30.75,12.41 30.75,27.67 0,15.26 -13.8,27.67 -30.75,27.67 -16.95,0 -30.71,-12.41 -30.71,-27.67zm30.71 17.03c-10.44,0 -18.93,-7.6 -18.93,-17.03 0,-9.44 8.49,-17.05 18.93,-17.05 10.48,0 18.92,7.61 18.92,17.05 0,9.43 -8.44,17.03 -18.92,17.03zm46.03 -103.12c0,-22.82 -20.68,-41.41 -46.03,-41.41 -25.37,0 -45.99,18.59 -45.99,41.41 0,22.82 20.62,41.37 45.99,41.37 25.35,0 46.03,-18.55 46.03,-41.37zm-95.53 0c0,-24.56 22.22,-44.57 49.5,-44.57 27.29,0 49.53,20.01 49.53,44.57 0,24.55 -22.24,44.53 -49.53,44.53 -27.28,0 -49.5,-19.98 -49.5,-44.53zm49.5 29.64c-18.21,0 -32.93,-13.3 -32.93,-29.63 0,-16.37 14.72,-29.62 32.93,-29.62 18.19,0 32.91,13.25 32.91,29.62 0,16.33 -14.72,29.63 -32.91,29.63zm10.13 95.68l-20.27 0 10.14 1397.7 10.13 -1397.7zm0 -250.63l-10.13 -1397.69 -10.14 1397.69 20.27 0zm1365.08 51.02c81.07,49.78 196.57,66.33 257.17,71.72 1.88,0.17 2.58,1.15 2.27,1.99 0.31,0.81 -0.39,1.78 -2.27,1.96 -61.39,5.48 -179.12,22.33 -260.34,73.71 -13.34,8.46 -35.6,9.16 -50.68,1.69 -1.07,-0.53 -2.22,-1.07 -3.39,-1.65 -15.88,-7.42 -24.97,-16.94 -28.29,-26.77 -3.21,-9.66 -7.96,-18.87 -13.64,-27.54 -4.01,-6.14 -6.28,-13.21 -6.28,-20.82 0,-6.99 1.92,-13.56 5.29,-19.3 5.82,-9.84 11.06,-19.93 14.79,-30.57 3.37,-9.74 12.41,-19.07 28.13,-26.46l0.49 -0.22c16.99,-8.01 41.72,-6.98 56.75,2.26zm-295.32 498.21l16.1 -14.81 8.05 -7.43 7.88 -7.56c5.18,-5.07 10.47,-10.06 15.66,-15.17l15.22 -15.53c20.13,-20.85 39.4,-42.43 57,-65.03 17.65,-22.59 33.68,-46.31 46.47,-71.44 3.38,-6.22 6.05,-12.67 8.91,-19.12 0.73,-1.56 1.33,-3.2 1.92,-4.85l1.83 -4.93 1.83 -4.9c0.65,-1.65 1.04,-3.33 1.58,-4.99 4.31,-13.25 6.82,-27 7.32,-40.82 0.45,-13.8 -1.49,-27.73 -6.68,-40.75 -5.04,-13.08 -13.98,-24.83 -25.05,-34.35 -11.08,-9.61 -24.77,-16.5 -39.15,-21.34 -14.4,-4.89 -29.71,-7.22 -45.05,-7.7 -15.38,-0.58 -30.8,1.19 -45.58,4.94 -1.88,0.39 -3.66,0.97 -5.48,1.55 -1.84,0.58 -3.66,1.11 -5.44,1.69 -3.51,1.43 -7.17,2.58 -10.52,4.27 -6.93,2.98 -13.33,6.94 -19.24,11.25 -5.94,4.41 -11.02,9.7 -15.36,15.4 -4.18,5.82 -7.18,12.27 -9.12,18.95 -3.49,13.52 -1.92,27.8 2.77,40.93 4.84,13.11 12.31,25.39 21.16,36.64l1.63 2.14c0.54,0.71 1.14,1.38 1.74,2.08l3.51 4.1 3.5 4.14c1.18,1.34 2.48,2.62 3.71,3.96l7.51 7.83 7.96 7.52c21.71,19.53 41.94,40.43 59.38,63.16 17.36,22.78 32.12,47.2 42.92,73.09 5.42,12.9 9.98,26.12 13.43,39.54 3.46,13.48 5.89,27.14 7.37,40.88 2.91,27.49 1.68,55.29 -3.02,82.56 -4.74,27.32 -12.95,54.09 -23.72,79.94 -10.78,25.84 -24.27,50.8 -39.7,74.64 -7.76,11.92 -16.02,23.57 -24.76,34.92 -8.82,11.34 -18,22.42 -28.03,32.87 0,0 3.83,-3.87 10.48,-11.53 6.62,-7.64 16.01,-19.12 26.79,-34.42 10.77,-15.3 22.93,-34.48 34.54,-57.38 11.58,-22.86 22.7,-49.56 30.52,-79.54 7.91,-29.94 12.29,-63.25 10.13,-98.04 -1.14,-17.35 -3.75,-35.05 -8.41,-52.71 -4.69,-17.62 -11.18,-35.19 -19.53,-52.36 -16.86,-34.29 -41.16,-66.64 -70.58,-95.73 -7.37,-7.24 -15.05,-14.36 -22.99,-21.26 -4.15,-3.68 -8.32,-7.38 -12.47,-11.07 -4.34,-3.74 -8.31,-7.92 -12.41,-12.02l-3.04 -3.02c-1.06,-1.06 -1.99,-2.18 -2.94,-3.24l-5.82 -6.55c-2,-2.09 -3.72,-4.49 -5.53,-6.8 -1.78,-2.32 -3.67,-4.58 -5.35,-7.03 -6.77,-9.69 -12.9,-20.1 -17.46,-31.63 -4.29,-11.61 -6.91,-24.42 -6.03,-37.77 0.85,-13.29 5.68,-26.9 13.75,-38.25 8.01,-11.47 18.89,-20.51 30.5,-27.4 11.62,-6.89 24.09,-11.83 36.73,-15.21 25.35,-6.72 51.52,-7.66 76.68,-3.74 12.61,2.01 24.91,5.3 36.74,10.02 11.74,4.62 22.87,10.97 32.71,18.62 9.83,7.66 18.35,16.78 24.88,26.74 6.67,9.97 10.86,20.87 13.58,31.58 0.59,2.71 1.29,5.39 1.8,8.1 0.28,2.67 0.63,5.34 0.92,8.01 0.4,2.72 0.4,5.34 0.44,7.96 0,2.63 0.15,5.25 0.07,7.83 -0.6,10.28 -1.88,20.33 -4.36,29.76 -4.64,19.04 -12.15,36.25 -20.47,52.13 -4.45,7.78 -8.64,15.52 -13.5,22.64 -1.14,1.83 -2.31,3.61 -3.46,5.43 -1.18,1.78 -2.31,3.56 -3.6,5.25 -2.43,3.42 -4.89,6.81 -7.26,10.18 -19.59,26.66 -40.3,48.81 -59.35,67.76 -2.36,2.36 -4.68,4.67 -7,6.98 -2.32,2.22 -4.64,4.4 -6.98,6.58 -4.48,4.22 -8.91,8.36 -13.18,12.41 -8.71,7.74 -16.57,14.9 -23.88,21.22 -6.92,5.92 -13.41,11.43 -19.6,16.72 -5.08,4.28 -9.87,8.28 -14.57,12.19 -7.91,6.63 -11.95,10.32 -11.95,10.32zm20.47 -1156.14c10.03,10.46 19.21,21.57 28.03,32.88 8.74,11.33 17,22.99 24.76,34.91 15.43,23.89 28.92,48.81 39.7,74.64 10.77,25.84 18.98,52.63 23.72,79.95 4.7,27.26 5.93,55.06 3.02,82.55 -1.48,13.75 -3.91,27.41 -7.37,40.88 -3.45,13.44 -8.01,26.7 -13.43,39.6 -10.8,25.84 -25.56,50.3 -42.92,73.03 -17.44,22.73 -37.67,43.69 -59.38,63.21l-7.96 7.48 -7.51 7.87c-1.23,1.29 -2.53,2.58 -3.71,3.95l-3.5 4.11 -3.51 4.08c-0.6,0.72 -1.2,1.38 -1.74,2.09l-1.63 2.13c-8.85,11.31 -16.32,23.54 -21.16,36.71 -4.69,13.12 -6.26,27.35 -2.77,40.88 1.93,6.67 4.94,13.11 9.12,18.94 4.34,5.7 9.42,11 15.36,15.39 5.91,4.36 12.31,8.33 19.24,11.31 3.35,1.69 7.01,2.85 10.52,4.22 1.78,0.62 3.6,1.16 5.44,1.69 1.82,0.58 3.6,1.16 5.48,1.56 14.78,3.73 30.2,5.52 45.58,4.98 15.34,-0.53 30.65,-2.84 45.05,-7.74 14.38,-4.8 28.07,-11.7 39.15,-21.35 11.07,-9.52 20.01,-21.21 25.05,-34.34 5.19,-12.99 7.13,-26.97 6.68,-40.75 -0.5,-13.79 -3.01,-27.53 -7.32,-40.79 -0.54,-1.69 -0.93,-3.38 -1.58,-5.03l-1.83 -4.89 -1.83 -4.93c-0.59,-1.61 -1.19,-3.25 -1.92,-4.85 -2.86,-6.41 -5.53,-12.9 -8.91,-19.13 -12.79,-25.09 -28.82,-48.79 -46.47,-71.4 -17.6,-22.64 -36.87,-44.17 -57,-65.08l-15.22 -15.48c-5.19,-5.11 -10.48,-10.14 -15.66,-15.21l-7.88 -7.57 -8.05 -7.42 -16.1 -14.77c0,0 4.04,3.65 11.95,10.28 4.7,3.9 9.49,7.96 14.57,12.23 6.19,5.25 12.68,10.81 19.6,16.73 7.31,6.26 15.17,13.47 23.88,21.21 4.27,4.01 8.7,8.15 13.18,12.41 2.34,2.13 4.66,4.32 6.98,6.55 2.32,2.31 4.64,4.67 7,7.02 19.05,18.9 39.76,41.11 59.35,67.75 2.37,3.34 4.83,6.72 7.26,10.14 1.29,1.73 2.42,3.47 3.6,5.29 1.15,1.78 2.32,3.61 3.46,5.39 4.86,7.16 9.05,14.9 13.5,22.68 8.32,15.89 15.83,33.1 20.47,52.09 2.48,9.48 3.76,19.49 4.36,29.81 0.08,2.58 -0.07,5.21 -0.07,7.83 -0.04,2.62 -0.04,5.25 -0.44,7.91 -0.29,2.67 -0.64,5.33 -0.92,8.05 -0.51,2.67 -1.21,5.34 -1.8,8.05 -2.72,10.73 -6.91,21.63 -13.58,31.59 -6.53,10.01 -15.05,19.12 -24.88,26.78 -9.84,7.65 -20.97,13.97 -32.71,18.64 -11.83,4.66 -24.13,7.96 -36.74,9.96 -25.16,3.91 -51.33,3.03 -76.68,-3.74 -12.64,-3.38 -25.11,-8.26 -36.73,-15.22 -11.61,-6.89 -22.49,-15.91 -30.5,-27.35 -8.07,-11.38 -12.9,-24.95 -13.75,-38.26 -0.88,-13.39 1.74,-26.2 6.03,-37.76 4.56,-11.52 10.69,-21.97 17.46,-31.67 1.68,-2.4 3.57,-4.67 5.35,-7.03 1.81,-2.27 3.53,-4.67 5.53,-6.8l5.82 -6.54c0.95,-1.07 1.88,-2.19 2.94,-3.2l3.04 -3.08c4.1,-4.08 8.07,-8.23 12.41,-11.95 4.15,-3.75 8.32,-7.44 12.47,-11.13 7.94,-6.85 15.62,-13.97 22.99,-21.26 29.42,-29.05 53.72,-61.39 70.58,-95.73 8.35,-17.13 14.84,-34.7 19.53,-52.36 4.66,-17.66 7.27,-35.36 8.41,-52.71 2.16,-34.78 -2.22,-68.1 -10.13,-98 -7.82,-29.98 -18.94,-56.66 -30.52,-79.58 -11.61,-22.91 -23.77,-42.03 -34.54,-57.33 -10.78,-15.3 -20.17,-26.83 -26.79,-34.48 -6.65,-7.65 -10.48,-11.52 -10.48,-11.52zm-1631.84 634.1c-107.13,65.79 -259.64,87.59 -339.67,94.7 -2.53,0.28 -3.43,1.51 -3.02,2.63 -0.41,1.12 0.49,2.4 3.02,2.63 81.06,7.25 236.54,29.53 343.82,97.33 17.65,11.16 47.05,12.14 66.94,2.27 1.43,-0.72 2.91,-1.43 4.49,-2.18 20.96,-9.84 32.98,-22.39 37.37,-35.38 4.26,-12.75 10.55,-24.9 18.06,-36.37 5.24,-8.06 8.29,-17.49 8.29,-27.5 0,-9.21 -2.56,-17.88 -7.06,-25.48 -7.68,-12.99 -14.59,-26.34 -19.48,-40.35 -4.44,-12.86 -16.41,-25.26 -37.18,-35.01l-0.63 -0.26c-22.5,-10.59 -55.08,-9.26 -74.95,2.97zm363.05 1065.23c-13.28,-13.79 -25.46,-28.42 -37.07,-43.37 -11.58,-14.94 -22.5,-30.33 -32.73,-46.09 -20.41,-31.52 -38.25,-64.45 -52.5,-98.61 -14.3,-34.11 -25.16,-69.48 -31.39,-105.56 -6.27,-36.08 -7.85,-72.81 -4.04,-109.16 1.91,-18.15 5.13,-36.21 9.68,-54 4.6,-17.75 10.64,-35.23 17.79,-52.31 14.25,-34.17 33.76,-66.5 56.7,-96.57 23.03,-30.02 49.8,-57.69 78.39,-83.5l10.55 -9.87 9.88 -10.37c1.64,-1.72 3.35,-3.43 4.94,-5.2l4.61 -5.43 4.64 -5.43c0.75,-0.93 1.54,-1.82 2.28,-2.76l2.13 -2.84c11.67,-14.86 21.55,-31 27.93,-48.35 6.23,-17.31 8.26,-36.04 3.7,-53.87 -2.61,-8.82 -6.56,-17.26 -12.07,-24.96 -5.72,-7.47 -12.34,-14.46 -20.16,-20.23 -7.86,-5.74 -16.25,-10.95 -25.42,-14.86 -4.45,-2.23 -9.23,-3.79 -13.82,-5.61 -2.38,-0.8 -4.8,-1.52 -7.16,-2.26 -2.44,-0.76 -4.81,-1.53 -7.29,-2.05 -19.48,-4.94 -39.84,-7.26 -60.07,-6.54 -20.22,0.71 -40.47,3.73 -59.46,10.14 -18.89,6.41 -36.98,15.48 -51.56,28.2 -14.64,12.54 -26.4,27.98 -33.08,45.24 -6.86,17.16 -9.39,35.54 -8.81,53.74 0.6,18.23 4.01,36.34 9.65,53.87 0.69,2.18 1.24,4.4 2.07,6.57l2.38 6.5 2.42 6.5c0.81,2.13 1.59,4.31 2.57,6.4 3.75,8.45 7.32,17.04 11.77,25.22 16.87,33.19 38,64.51 61.26,94.35 23.27,29.89 48.73,58.36 75.23,85.94l20.16 20.5c6.78,6.77 13.76,13.4 20.69,20.06l10.32 10.02 10.63 9.78 21.27 19.63c0,0 -5.29,-4.94 -14.8,-14.56 -4.74,-4.75 -10.62,-10.67 -17.3,-17.75 -7.11,-7.72 -14.64,-15.92 -22.64,-24.64 -8.3,-9.33 -17.21,-19.88 -27.04,-31.22 -4.74,-5.87 -9.69,-11.88 -14.73,-18.11 -2.57,-3.11 -5.15,-6.32 -7.75,-9.56 -2.54,-3.29 -5.15,-6.63 -7.72,-10.06 -21.06,-27.13 -43.61,-58.5 -64.13,-94.03 -2.51,-4.45 -5.08,-8.94 -7.61,-13.47 -1.34,-2.27 -2.57,-4.58 -3.7,-6.94 -1.19,-2.33 -2.39,-4.68 -3.56,-7 -5,-9.33 -9.04,-19.07 -13.56,-28.86 -8.05,-19.79 -14.87,-40.52 -18.32,-61.7 -1.89,-10.54 -2.44,-21.18 -2.34,-31.67 0.05,-2.62 0.4,-5.2 0.61,-7.78 0.17,-2.58 0.33,-5.2 0.89,-7.7 0.44,-2.54 0.88,-5.07 1.36,-7.6 0.61,-2.5 1.4,-4.94 2.1,-7.39 0.34,-1.24 0.57,-2.49 1.06,-3.7l1.45 -3.51 1.4 -3.5c0.23,-0.63 0.44,-1.21 0.73,-1.79l0.87 -1.69c1.21,-2.23 2.37,-4.49 3.53,-6.72 1.43,-2.13 2.81,-4.27 4.24,-6.36 6.04,-8.27 13.5,-15.74 22.25,-22.15 17.45,-13 40.5,-21.35 65.06,-24.96 24.53,-3.65 50.93,-2.62 74.93,3.69 23.96,6.14 45.64,17.88 57.36,33.68 5.79,7.87 9.25,16.64 10.28,26.3 1.05,9.64 -0.49,20.23 -3.91,30.95 -3.75,10.76 -9.32,21.57 -16.07,32.16 -1.67,2.62 -3.64,5.21 -5.42,7.83 -1.89,2.58 -3.56,5.3 -5.75,7.79l-6.13 7.65c-1.02,1.23 -2.02,2.58 -3.09,3.82l-3.38 3.69c-4.54,4.94 -8.84,9.97 -13.78,14.64 -4.87,4.85 -9.39,9.43 -14.89,14.76 -10.64,10.28 -20.81,20.82 -30.55,31.73 -39,43.36 -70.25,91.66 -90.23,141.76 -9.87,25.09 -17.03,50.49 -21.6,75.62 -4.55,25.18 -6.12,50.04 -5.77,74.11 0.34,24.11 3.15,47.37 7.32,69.52 4.15,22.2 9.93,43.24 16.65,63.08 13.34,39.73 30.39,74.51 47.41,104.26 17.05,29.77 34.1,54.55 48.94,74.43 14.87,19.93 27.53,34.92 36.39,44.97 8.84,10.05 13.93,15.12 13.93,15.12zm27.01 -1527.05l-31.9 29.36 -10.32 10.01c-6.93,6.72 -13.91,13.3 -20.69,20.06l-20.16 20.5c-26.5,27.59 -51.96,56.05 -75.23,85.95 -23.26,29.84 -44.39,61.16 -61.26,94.35 -4.45,8.23 -8.02,16.77 -11.77,25.22 -0.98,2.09 -1.76,4.27 -2.57,6.45l-2.42 6.49 -2.38 6.49c-0.83,2.15 -1.38,4.37 -2.07,6.55 -5.64,17.53 -9.05,35.68 -9.65,53.87 -0.58,18.18 1.95,36.6 8.81,53.77 6.68,17.26 18.44,32.7 33.08,45.25 14.58,12.67 32.67,21.79 51.56,28.15 18.99,6.46 39.24,9.48 59.46,10.14 20.23,0.71 40.59,-1.59 60.07,-6.54 2.48,-0.53 4.85,-1.29 7.29,-2.04 2.36,-0.76 4.78,-1.43 7.16,-2.22 4.59,-1.88 9.37,-3.39 13.82,-5.6 9.17,-3.97 17.56,-9.18 25.42,-14.87 7.82,-5.82 14.44,-12.76 20.16,-20.28 5.51,-7.7 9.46,-16.15 12.07,-24.95 4.56,-17.79 2.53,-36.57 -3.7,-53.87 -6.38,-17.31 -16.26,-33.5 -27.93,-48.36l-2.13 -2.84c-0.74,-0.94 -1.53,-1.82 -2.28,-2.72l-4.64 -5.43 -4.61 -5.43c-1.59,-1.82 -3.3,-3.46 -4.94,-5.24l-9.88 -10.32 -10.55 -9.93c-28.59,-25.79 -55.36,-53.45 -78.39,-83.49 -22.94,-30.07 -42.45,-62.36 -56.7,-96.57 -7.15,-17.08 -13.19,-34.52 -17.79,-52.31 -4.55,-17.79 -7.77,-35.86 -9.68,-54 -3.81,-36.34 -2.23,-73.09 4.04,-109.12 6.23,-36.07 17.09,-71.43 31.39,-105.6 14.25,-34.16 32.09,-67.08 52.5,-98.58 10.23,-15.74 21.15,-31.14 32.73,-46.12 11.61,-14.95 23.79,-29.58 37.07,-43.38 0,0 -5.09,5.08 -13.93,15.17 -8.86,10.05 -21.52,25.05 -36.39,44.94 -14.84,19.88 -31.89,44.69 -48.94,74.46 -17.02,29.76 -34.07,64.5 -47.41,104.22 -6.72,19.84 -12.5,40.88 -16.65,63.08 -4.17,22.16 -6.98,45.45 -7.32,69.53 -0.35,24.06 1.22,48.97 5.77,74.1 4.57,25.14 11.73,50.54 21.6,75.63 19.98,50.13 51.23,98.43 90.23,141.8 9.74,10.85 19.91,21.44 30.55,31.67 5.5,5.34 10.02,9.96 14.89,14.77 4.94,4.72 9.24,9.75 13.78,14.68l3.38 3.69c1.07,1.26 2.07,2.54 3.09,3.84l6.13 7.6c2.19,2.53 3.86,5.21 5.75,7.79 1.78,2.63 3.75,5.2 5.42,7.82 6.75,10.63 12.32,21.44 16.07,32.17 3.42,10.76 4.96,21.3 3.91,30.96 -1.03,9.65 -4.49,18.41 -10.28,26.32 -11.72,15.76 -33.4,27.49 -57.36,33.64 -24,6.31 -50.4,7.34 -74.93,3.68 -24.56,-3.55 -47.61,-11.96 -65.06,-24.9 -8.75,-6.45 -16.21,-13.88 -22.25,-22.16 -1.43,-2.13 -2.81,-4.26 -4.24,-6.35 -1.16,-2.28 -2.32,-4.55 -3.53,-6.77l-0.87 -1.69c-0.29,-0.53 -0.5,-1.16 -0.73,-1.73l-1.4 -3.56 -1.45 -3.52c-0.49,-1.19 -0.72,-2.45 -1.06,-3.64 -0.7,-2.49 -1.49,-4.89 -2.1,-7.39 -0.48,-2.53 -0.92,-5.06 -1.36,-7.6 -0.56,-2.49 -0.72,-5.12 -0.89,-7.74 -0.21,-2.58 -0.56,-5.16 -0.61,-7.79 -0.1,-10.5 0.45,-21.08 2.34,-31.68 3.45,-21.12 10.27,-41.89 18.32,-61.64 4.52,-9.79 8.56,-19.58 13.56,-28.87 1.17,-2.36 2.37,-4.72 3.56,-7.03 1.13,-2.36 2.36,-4.66 3.7,-6.89 2.53,-4.55 5.1,-9.04 7.61,-13.53 20.52,-35.54 43.07,-66.86 64.13,-94.03 2.57,-3.39 5.18,-6.76 7.72,-10.06 2.6,-3.25 5.18,-6.4 7.75,-9.56 5.04,-6.19 9.99,-12.22 14.73,-18.1 9.83,-11.31 18.74,-21.89 27.04,-31.19 8,-8.76 15.53,-16.9 22.64,-24.69 6.68,-7.07 12.56,-12.94 17.3,-17.74 9.51,-9.57 14.8,-14.51 14.8,-14.51zm-4999.83 -1430.21c12.94,5.2 24.21,11.3 34.43,18.64 7.09,5.07 13.06,11.16 17.22,17.62 0.75,1.15 1.05,2.26 1.05,3.29 0,1.95 -1.1,3.64 -2.47,4.8 -2.03,1.73 -5.82,3.11 -9.81,1.2l-0.18 -0.09c-9.07,-4.31 -17.24,-10.81 -25.73,-20.46 -6.13,-6.98 -11.66,-14.82 -16.41,-23.39 -0.4,-0.72 0.13,-1.21 0.29,-1.34 0.17,-0.18 0.79,-0.58 1.61,-0.27zm706.9 -198.04l-932.43 0c-2.51,0.02 -4.73,0.87 -6.24,2.35 -1.81,1.34 -2.79,3.26 -2.79,5.44l0 793.35c0,4.71 4.34,7.15 8.64,7.15 4.29,0 8.64,-2.44 8.64,-7.15l0 -557.68c4.67,-1.87 9.74,-3.47 15.09,-4.77 13.68,-3.24 28.5,-4.35 43.05,-3.2 -0.2,0.49 -0.38,0.94 -0.59,1.43 -3.76,9.43 -7.97,22.02 -7.61,35.32 0.75,23.44 12.27,43.06 30.78,52.35 20.54,10.37 47.78,6.73 64.74,-8.62 8.11,-7.33 12.94,-16.47 13.58,-25.71 0.91,-13.27 -8.37,-25.14 -15.42,-32.92 -14.32,-15.84 -36.38,-27.62 -62.25,-33.28 4.54,-10.36 9.18,-20.5 13.8,-30.24 2.56,-5.39 5.54,-11.76 8.44,-18.29l5.45 0.58c27.05,2.81 55.69,6.09 82.65,13.44 4.78,11.29 10.23,21.16 16.63,30.16 8.97,12.55 17.89,21.92 27.26,28.63 11.56,8.28 24.62,13.58 37.84,15.31 0.61,0.09 1.14,0.36 1.49,0.81 0.34,0.39 0.46,0.89 0.35,1.37 -0.11,0.45 -0.22,0.89 -0.33,1.34 -1.11,4.04 -4.82,7.96 -7.5,10.54 -5.37,5.2 -11.34,8.63 -18.19,10.37 -2.13,0.52 -4.61,0.74 -7.53,0.61l-0.89 0c-2.47,-0.09 -3.22,-0.17 -4.24,-1.24 -1.42,-1.56 -2.1,-3.65 -2.73,-5.78 -0.76,-2.54 -2.78,-4.41 -5.58,-5.07 -3.06,-0.76 -6.65,0 -8.97,1.9 -2.15,1.79 -2.94,4.28 -2.18,6.86 2.73,9.29 8.52,15.44 16.32,17.3 7.02,1.7 16.31,1.02 24.84,-1.77 13.58,-4.45 25.48,-14.15 31.84,-25.85 1.59,-2.94 2.63,-6.68 3.12,-11.03 0.53,-0.05 1.07,-0.1 1.61,-0.14 7.04,-0.84 12.99,-2.75 18.79,-6.13 8.87,-5.11 20.27,-14.06 24.21,-27.41 1.31,-4.4 2.99,-12.77 -0.52,-19.35 -2.94,-5.47 -9.6,-9.46 -19.3,-11.51 -5.42,-1.16 -9.3,1.86 -10.36,5.46 -1.03,3.52 0.71,7.65 6.02,8.77 2.37,0.53 5.56,1.2 7.35,2.8 1.07,0.93 1.02,2.63 0.93,4.36l-0.03 0.71c-0.13,4.49 -1.83,8.94 -5.05,13.22 -2.72,3.64 -6.74,7.16 -11.35,9.87l-0.35 0.23c-2.1,1.23 -4.48,2.66 -6.77,3.41 -0.96,0.32 -2.07,0.58 -3.38,0.76 -0.55,0.09 -1.11,0 -1.56,-0.27 -0.46,-0.31 -0.78,-0.71 -0.87,-1.19 -0.6,-3.17 -1.47,-6.28 -2.64,-9.22 -4.38,-11.25 -12.29,-21.52 -22.82,-29.75 -16.68,-12.95 -37.48,-23.36 -61.86,-30.83 -1.69,-4.49 -3.18,-8.98 -4.47,-13.4 -5.97,-20.41 -9.05,-41.98 -11.75,-61.19 7.99,-2.59 15.98,-5.39 23.72,-8.06 3.06,-1.07 6.13,-2.13 9.14,-3.16 6.99,-2.4 13.81,-4.76 20.8,-6.88l3.5 -1.13c8.97,29.8 30.65,52.89 59.74,63.48 23.42,8.55 47.51,-3.77 58.31,-19.7 12.44,-18.34 7.92,-41.55 -10.75,-55.21 -17.11,-12.49 -43.4,-17.92 -68.61,-14.1 -8.8,1.3 -17.32,3.61 -25.29,5.96 -2,-17.47 1.31,-35 9.41,-49.56l0.08 -0.12 655.04 0c5.5,0 8.41,-3.74 8.41,-7.39 0,-3.65 -2.91,-7.34 -8.41,-7.34zm-839.23 240.34c13.49,3.87 25.51,9.61 34.72,16.59 5.34,4.05 9.87,8.46 13.46,13.08 3.35,4.32 7.05,9.39 8.29,14.68 3.27,14.01 -11.33,27.04 -27.04,30.43 -8.78,1.87 -18.81,0.31 -26.8,-4.18 -6.62,-3.78 -12.37,-10.41 -15.79,-18.28 -3.49,-8.06 -5,-16.78 -4.51,-25.99 0.33,-6.05 1.88,-12.63 4.86,-20.68 0.84,-2.27 2.72,-4.13 5.16,-5.21 2.39,-1.01 5.06,-1.19 7.53,-0.49l0.61 -1.5 -0.49 1.55zm-71.73 -72.28c18.87,1.12 42.32,2.49 56.7,4 3.92,0.36 7.31,2.28 9.32,5.16 1.99,2.89 2.29,6.32 0.83,9.39l-2.62 5.51c-3.08,6.42 -6.28,13.04 -9.21,19.58 -1.42,3.16 -2.8,6.35 -4.31,9.6 -22.29,-2.31 -44.34,-0.13 -63.94,6.27l0 -60.32c4.02,0.27 8.48,0.54 13.23,0.81zm227.99 -98.08c-2.56,0.75 -5.1,1.5 -7.61,2.36 -7.55,2.44 -15.19,5.11 -22.57,7.64 -2.99,1.02 -5.98,2.05 -8.95,3.08 -3.64,1.24 -7.66,0.97 -11.04,-0.71 -3.38,-1.74 -5.59,-4.63 -6.07,-7.93 -1.73,-12.23 -3.38,-32.6 -4.73,-48.97 -0.32,-3.83 -0.62,-7.48 -0.88,-10.72l71.03 0c-1.24,2.66 -2.32,5.33 -3.23,7.95 -5.06,14.6 -6.51,30.7 -4.26,46.81l-1.69 0.49zm112.29 30.25c0.43,1.82 0.65,3.64 0.65,5.47 0,5.55 -1.99,10.98 -5.9,16.23 -4.61,6.19 -11.78,10.94 -19.17,12.72 -3.95,0.98 -7.7,1.2 -11.24,0.62 -6.11,-0.94 -12.03,-4 -17.09,-6.79 -20.12,-11.13 -30.33,-28.56 -35.35,-41.25 -0.86,-2.18 -0.63,-4.44 0.59,-6.49 1.29,-2.14 3.59,-3.74 6.29,-4.41 1.69,-0.44 3.4,-0.84 5.1,-1.24 12.96,-2.93 23.37,-3.69 33.72,-2.45 11.06,1.34 20.56,4.36 28.27,9.03 7.36,4.49 12.4,11.08 14.13,18.56zm-181.05 8.09l0.93 6.23c2.59,17.79 5.88,38.3 12.09,58 -23.78,-5.47 -47.66,-8.23 -75.92,-11.12 1.21,-3.06 2.28,-5.91 3.29,-8.76 4.77,-13.62 7.32,-24.78 7.97,-35.01 1.23,-0.05 2.44,-0.09 3.61,-0.18 14.72,-1.12 30.04,-4.04 48.03,-9.16zm-70.08 -6.14c-1.87,-0.27 -3.71,-0.67 -5.46,-1.12 -0.7,-0.18 -1.4,-0.35 -2.1,-0.57l-1.05 -0.31 -1.67 -0.58 -1.25 -0.49c-0.64,-0.27 -1.27,-0.54 -1.92,-0.84 -1.43,-0.67 -2.86,-1.38 -4.18,-2.19l-1.21 -0.75c-0.65,-0.45 -1.3,-0.89 -1.92,-1.38 -1.27,-0.98 -2.51,-2 -3.66,-3.11 -0.65,-0.63 -1.28,-1.25 -1.91,-1.92l-1.58 0.89 1.42 -1.07 -0.74 -0.88c-1.06,-1.29 -2.08,-2.67 -3.03,-4.14 -1.97,-3.03 -3.64,-6.27 -5.05,-9.93 -0.24,-0.62 -0.05,-1.28 0.49,-1.77 0.25,-0.18 0.89,-0.62 1.92,-0.35 4.53,1.24 7.52,2.35 11.41,4.22 1.73,0.85 3.37,1.69 4.87,2.57l1.26 0.77 0.3 0.22c0.59,0.4 1.15,0.85 1.74,1.24 1.45,1.11 2.81,2.27 4.04,3.47 0.5,0.45 0.98,0.98 1.48,1.48l0.7 0.79c1.83,2.26 3.4,4.71 4.66,7.21l0.33 0.76 0.35 0.8c0.27,0.66 0.51,1.38 0.73,2.04 0.46,1.33 0.87,2.76 1.21,4.18l0.19 0.85 -0.37 -0.09zm59.68 -87.45c0.32,3.78 0.67,8.09 1.02,12.67 1.23,15.48 2.74,34.79 4.37,46.35 1.64,11.71 -7.25,22.69 -20.65,25.54l-0.25 0.04c-8.83,1.86 -16.37,3.03 -23.08,3.47 -1.08,0.09 -2.14,0.14 -3.22,0.18 -1.69,-11.17 -6.39,-20.69 -13.96,-28.29 -10.11,-10.23 -26,-17.08 -47.25,-20.38 -4.02,-0.62 -7.83,0.81 -9.61,3.56 -2.24,1.79 -3.27,4.5 -2.69,7.26 1.01,4.62 2.2,8.71 3.63,12.45 5.84,15.39 16.07,26.87 29.59,33.28 6.79,3.19 14.71,5.33 23.56,6.31 -0.24,3.74 -0.76,7.47 -1.59,11.48 -0.74,3.46 -1.62,7.08 -2.67,10.67 -3.33,11.62 -16.39,19.31 -30.42,17.88 -13.96,-1.42 -36.84,-2.76 -55.23,-3.86 -4.9,-0.27 -9.52,-0.55 -13.6,-0.81l0 -137.8 162.05 0zm192.34 141.34l0 0.07 0 0.03 0 0.04c0.01,0.77 0.16,1.59 0.44,2.33 0.71,1.87 2.13,3.33 4.03,4.05 9.55,3.78 19.5,6.1 29.58,6.8 33.09,2.32 67.61,-13.83 85.93,-40.22 1.57,-2.26 1.65,-4.75 0.24,-6.93 -1.56,-2.31 -4.78,-3.91 -8.02,-3.96 -2.99,-0.04 -5.63,1.29 -7.22,3.6 -17.23,24.78 -56.45,42 -92.24,27.8 -4.47,-1.77 -9.36,-0.58 -11.65,2.81 -0.7,1.1 -1.08,2.31 -1.09,3.58zm188.66 -80.5c-18.17,12.42 -30.5,29.46 -42.43,45.95l-2.75 3.84c-12.77,17.7 -25.98,35.99 -44.52,49.95 -10.4,7.83 -21.37,13.3 -32.6,16.24 -10.81,2.89 -21.73,4.04 -32.46,3.55 -21.54,-1.02 -39.51,-9.92 -49.31,-24.42 -1.57,-2.31 -4.16,-3.6 -7.11,-3.6 -3.21,0 -6.44,1.55 -8.03,3.92 -0.73,1.06 -1.07,2.18 -1.07,3.34 0,1.24 0.39,2.49 1.19,3.64 2.87,4.22 6.21,8.14 9.91,11.57 13.49,12.5 34.38,19.93 57.27,20.36 10.81,0.22 22.21,-1.1 32.96,-3.86 12.15,-3.07 23.62,-8.23 35.05,-15.8 20.74,-13.74 35.53,-32.69 47.78,-49.41 2.35,-3.21 4.69,-6.51 7.02,-9.74 9.25,-13.04 18.81,-26.52 31.38,-37.42 9.61,-8.35 24.92,-18.59 43.38,-19.89 15.99,-1.1 32.06,3.88 44.05,13.66 10.69,8.72 17.6,20.51 18.45,31.54 0.98,12.32 -4.6,23 -16.09,30.79 -3.8,2.57 -11.48,6.67 -20.17,5.06 -7.17,-1.33 -13.01,-5.78 -15.65,-11.87 -2.59,-6.01 -1.78,-13.53 2.05,-19.13 3.7,-5.42 10.46,-8.67 18.52,-8.9 3.17,-0.09 5.81,-1.46 7.25,-3.78 1.51,-2.44 1.43,-5.6 -0.24,-7.87 -1.53,-2.05 -4.07,-3.15 -7.13,-3.06 -6.34,0.22 -11.96,1.32 -17.21,3.41 -9.06,3.61 -15.98,10.41 -19.49,19.18 -3.86,9.69 -3.03,20.64 2.23,29.31 5.02,8.32 14.1,14.38 24.92,16.64 10.84,2.32 22.24,0.57 31.31,-4.8 16.66,-9.84 26.28,-24.02 27.08,-40.04 0.68,-14.24 -5.65,-29.05 -17.87,-41.58 -12.56,-12.96 -30.94,-21.36 -50.4,-23.1 -24.43,-2.18 -44.64,7.65 -57.27,16.32zm-497.74 234.76c-1.57,-3.66 -5.73,-5.66 -9.88,-4.67 -2.13,0.47 -4.05,1.86 -5.13,3.64 -0.57,0.98 -0.89,1.95 -0.89,2.98 0,0.67 0.16,1.34 0.43,1.96 5.64,13.21 15.73,24.38 29.17,32.25 12.55,7.39 27.86,11.66 44.22,12.37 8.9,0.35 18.05,-0.45 27.16,-2.45 4.95,-1.07 6.54,-4.98 5.55,-8.23 -1.02,-3.34 -4.69,-6.18 -9.77,-5.07 -30.02,6.58 -68.47,-3.87 -80.86,-32.78zm359.08 -207.74c-0.82,-13.97 -5.83,-26.96 -14.51,-37.67 -9.25,-11.4 -22.37,-19.98 -37.91,-24.84 -1.84,-0.57 -3.91,-0.38 -5.8,0.41 -2.1,0.94 -3.7,2.57 -4.29,4.37 -0.18,0.61 -0.27,1.24 -0.27,1.82 0,2.89 2.21,5.51 5.77,6.62 33.96,10.54 46.26,43.24 38.54,68.77 -1.31,4.36 2,7.47 5.95,8.33 3.83,0.84 8.38,-0.5 9.65,-4.72 2.35,-7.74 3.31,-15.53 2.87,-23.09zm159.8 -63.15l0 0.04 0 0.03 0 0.07c0,1.27 0.36,2.48 1.08,3.53 2.26,3.43 7.15,4.63 11.64,2.85 35.81,-14.18 75.01,2.98 92.24,27.8 1.6,2.31 4.23,3.61 7.22,3.61 3.23,-0.04 6.43,-1.65 7.99,-4.01 1.43,-2.13 1.35,-4.67 -0.22,-6.9 -5.21,-7.51 -11.5,-14.13 -18.68,-19.7 -13.23,-10.18 -28.88,-16.89 -45.2,-19.43 -17.48,-2.72 -35.3,-0.76 -51.63,5.69 -1.89,0.75 -3.33,2.22 -4,4.05 -0.29,0.76 -0.44,1.55 -0.44,2.37zm-550.79 490.05l0 0.2c0.01,4.3 0.47,8.59 1.4,12.83 2.98,13.94 10.91,27.22 22.87,38.48 6.5,6.1 14.28,11.47 23.12,15.93 4.69,2.36 9.33,0.45 11.48,-2.67 2.22,-3.2 1.94,-7.69 -2.88,-10.14 -29.18,-14.63 -49.37,-48 -32.69,-78.47 2.07,-3.79 0.68,-7.96 -3.33,-9.92 -2.05,-0.98 -4.71,-1.2 -7.11,-0.53 -2.17,0.58 -3.85,1.82 -4.75,3.43 -5.38,9.83 -8.11,20.32 -8.11,30.86zm108.3 -117.78l0 0.06c0.02,1.4 0.51,2.75 1.35,3.98 2.14,3.11 6.78,5.02 11.47,2.63 8.85,-4.41 16.63,-9.79 23.13,-15.89 11.95,-11.25 19.87,-24.56 22.88,-38.47 3.19,-14.86 0.87,-30.03 -6.73,-43.9 -0.9,-1.65 -2.57,-2.86 -4.75,-3.44 -2.4,-0.66 -5.05,-0.43 -7.11,0.54 -4,1.95 -5.39,6.1 -3.32,9.91 16.66,30.48 -3.53,63.84 -32.7,78.48 -2.97,1.52 -4.22,3.78 -4.22,6.1zm106.01 -77.63c-4.06,-18.59 -17.14,-34.52 -35.85,-43.68 -2.69,-1.34 -5.67,-1.39 -8.2,-0.09 -2.76,1.33 -4.61,4.09 -4.61,6.8 0,2.54 1.54,4.72 4.24,6.05 4.71,2.32 8.66,4.9 12.14,7.89 12.74,10.97 18.63,28.14 16.12,47.05 -1.39,10.59 -5.4,20.73 -11.59,29.4 -6.13,8.63 -14.31,16.64 -25,24.51 -13.97,10.28 -30.06,18.68 -45.63,26.78 -6.69,3.47 -13.6,7.07 -20.28,10.77 -15.32,8.54 -34.43,20.55 -46.47,38.12 -7.02,10.23 -10.63,21.7 -10.63,32.83 0,6.58 1.26,12.99 3.8,18.98 6.37,15.04 18.79,27.72 34.96,35.73 16.08,8 34.52,10.45 50.6,6.81 8.72,-2.01 17.01,-5.92 24,-11.35 8.8,-6.8 14.57,-14.85 16.3,-22.6 2,-9.16 -0.4,-18.46 -6.62,-25.53 -7.01,-7.96 -17.68,-12.81 -30.04,-13.66 -10.98,-0.75 -22.09,2.15 -30.52,7.88 -8.53,5.87 -13.49,14.85 -13.92,25.31 -0.14,2.67 1.15,4.8 3.6,6.1 2.66,1.41 6.38,1.5 9.25,0.17 2.7,-1.2 4.31,-3.47 4.44,-6.14 0.16,-3.73 1.13,-6.85 3.03,-9.61 3.51,-5.11 10.09,-8.36 18.01,-8.97 8.43,-0.68 16.43,1.81 21.44,6.7 4.34,4.23 5.86,10.51 3.98,16.29 -1.69,5.21 -6.76,10.94 -13.58,15.39 -10.18,6.67 -23.94,8.63 -37.73,5.38 -13.47,-3.15 -26.22,-11.07 -34.13,-21.26 -9.44,-12.14 -11.97,-26.92 -6.9,-40.52 4.5,-12.06 14.7,-23.36 31.13,-34.58 11.43,-7.73 24.3,-14.32 36.72,-20.67 8,-4.1 16.28,-8.37 24.09,-12.85 25.6,-14.78 42.55,-29.37 53.36,-46 10.83,-16.6 14.75,-38.08 10.49,-57.43zm226.09 -26.15c-14.43,30.96 -6.99,63.29 1.79,84.95 1.13,2.8 0.35,5.69 -2.06,7.79 -2.43,2.04 -5.85,2.71 -9.15,1.73 -25.47,-7.47 -63.47,-13.79 -99.84,-1.51 -3.07,1.03 -6.41,0.49 -8.85,-1.42 -1.99,-1.56 -3.7,-4.45 -2.47,-7.83 2.13,-5.83 3.96,-11.61 5.42,-17.3l1.65 -6.32 -0.57 0c0.46,-0.8 0.8,-1.65 0.95,-2.53 3.98,-19.76 3.5,-37.69 -1.42,-53.34 -0.93,-2.9 -4.15,-4.72 -7.63,-4.36 -1.32,-5.83 -3.45,-11.26 -6.34,-16.28 5.88,2.48 12.27,4.31 19.11,5.42 -0.41,2.94 1.7,5.7 5.14,6.46 18.36,4.18 39.45,4.62 62.69,1.24 1.02,-0.13 2,-0.45 2.92,-0.8l0 0.48 7.45 -1.41c6.68,-1.25 13.51,-2.8 20.34,-4.63 3.94,-1.02 7.35,0.39 9.18,2.09 2.29,2.09 2.92,4.95 1.69,7.57zm-150.09 -24.34c23.61,20.06 18.78,50.97 10.58,73.34 -2.24,6.19 -0.21,12.72 5.37,17.14 1.68,1.33 3.59,2.36 5.67,3.11 -1.11,3.79 -2.37,7.6 -3.75,11.39 -2.44,6.63 -0.21,13.75 5.8,18.51 5.91,4.67 14.21,6 21.66,3.46 32.92,-11.11 67.84,-5.21 91.36,1.7 7.71,2.26 16.04,0.61 21.75,-4.23 5.72,-4.89 7.61,-11.97 4.98,-18.5 -8.12,-20.03 -15.03,-49.79 -1.98,-77.77 2.96,-6.35 1.39,-13.38 -4.08,-18.4 -5.58,-5.16 -13.93,-7.04 -21.78,-4.95 -4.46,1.16 -8.94,2.23 -13.37,3.16 -0.86,-1.78 -2.08,-3.37 -3.64,-4.8 -5.16,-4.76 -12.87,-6.49 -20.11,-4.59 -26.32,6.99 -62.65,11.09 -86.23,-8.98l-4.32 -3.64 -12.22 10.36 4.31 3.69zm-88.05 3894.51c-0.16,-0.17 -0.69,-0.66 -0.29,-1.37 4.75,-8.54 10.28,-16.42 16.41,-23.35 8.49,-9.7 16.66,-16.19 25.73,-20.51l0.18 -0.09c3.99,-1.86 7.78,-0.54 9.81,1.2 1.37,1.16 2.47,2.86 2.47,4.8 0,1.07 -0.3,2.18 -1.05,3.3 -4.16,6.44 -10.13,12.54 -17.22,17.62 -10.22,7.34 -21.49,13.43 -34.43,18.63 -0.82,0.35 -1.44,-0.09 -1.61,-0.23zm-130.22 -40.48l-0.61 -1.54c-2.47,0.71 -5.14,0.53 -7.53,-0.5 -2.44,-1.02 -4.32,-2.93 -5.16,-5.2 -2.98,-8.05 -4.53,-14.59 -4.86,-20.65 -0.49,-9.2 1.02,-17.97 4.51,-26.01 3.42,-7.83 9.17,-14.51 15.79,-18.24 7.99,-4.53 18.02,-6.1 26.8,-4.24 15.71,3.39 30.31,16.42 27.04,30.48 -1.24,5.25 -4.94,10.32 -8.29,14.64 -3.59,4.63 -8.12,9.02 -13.46,13.08 -9.21,6.98 -21.23,12.71 -34.72,16.64l0.49 1.54zm-85.45 71.49l0 -60.27c19.6,6.36 41.65,8.54 63.94,6.22 1.51,3.25 2.89,6.46 4.31,9.62 2.93,6.53 6.13,13.16 9.21,19.61l2.62 5.48c1.46,3.07 1.16,6.49 -0.83,9.38 -2.01,2.89 -5.4,4.8 -9.32,5.2 -14.38,1.47 -37.83,2.85 -56.7,3.96 -4.75,0.31 -9.21,0.58 -13.23,0.8zm242.9 97.83c-2.25,16.05 -0.8,32.2 4.26,46.75 0.91,2.62 1.99,5.33 3.23,8l-71.03 0c0.26,-3.3 0.56,-6.89 0.88,-10.77 1.35,-16.36 3,-36.73 4.73,-48.93 0.48,-3.33 2.69,-6.22 6.07,-7.91 3.38,-1.75 7.4,-2 11.04,-0.76 2.97,1.02 5.96,2.05 8.95,3.12 7.38,2.53 15.02,5.16 22.57,7.65 2.51,0.8 5.05,1.55 7.61,2.31l1.69 0.54zm96.47 -12.24c-7.71,4.71 -17.21,7.73 -28.27,9.03 -10.35,1.24 -20.76,0.49 -33.72,-2.45 -1.7,-0.35 -3.41,-0.8 -5.1,-1.2 -2.7,-0.71 -5,-2.31 -6.29,-4.45 -1.22,-2 -1.45,-4.31 -0.59,-6.44 5.02,-12.68 15.23,-30.13 35.35,-41.28 5.06,-2.81 10.98,-5.88 17.09,-6.82 3.54,-0.52 7.29,-0.35 11.24,0.63 7.39,1.78 14.56,6.54 19.17,12.72 3.91,5.25 5.9,10.68 5.9,16.24 0,1.82 -0.22,3.64 -0.65,5.52 -1.73,7.47 -6.77,14.05 -14.13,18.5zm-214.94 -35.78c-1.17,-0.09 -2.38,-0.17 -3.61,-0.21 -0.65,-10.23 -3.2,-21.4 -7.97,-35.02 -1.01,-2.81 -2.08,-5.69 -3.29,-8.76 28.26,-2.89 52.14,-5.65 75.92,-11.12 -6.21,19.7 -9.5,40.21 -12.09,58l-0.93 6.24c-17.99,-5.12 -33.31,-8.01 -48.03,-9.13zm-21.68 15.16l-0.19 0.9c-0.34,1.43 -0.75,2.81 -1.21,4.13 -0.22,0.72 -0.46,1.39 -0.73,2.06l-0.35 0.79 -0.33 0.76c-1.26,2.54 -2.83,4.98 -4.66,7.2l-0.7 0.81c-0.5,0.54 -0.98,1.02 -1.48,1.51 -1.23,1.2 -2.59,2.35 -4.04,3.43 -0.59,0.44 -1.15,0.85 -1.74,1.23l-0.3 0.23 -1.26 0.76c-1.5,0.89 -3.14,1.78 -4.87,2.58 -3.89,1.87 -6.88,2.98 -11.41,4.22 -1.03,0.32 -1.67,-0.13 -1.92,-0.35 -0.54,-0.44 -0.73,-1.11 -0.49,-1.78 1.41,-3.64 3.08,-6.89 5.05,-9.91 0.95,-1.48 1.97,-2.86 3.03,-4.14l0.74 -0.85 -1.42 -1.11 1.58 0.93c0.63,-0.67 1.26,-1.33 1.91,-1.95 1.15,-1.12 2.39,-2.14 3.66,-3.12 0.62,-0.49 1.27,-0.93 1.92,-1.37l1.21 -0.76c1.32,-0.76 2.75,-1.51 4.18,-2.19 0.65,-0.26 1.28,-0.57 1.92,-0.84l1.25 -0.49 1.67 -0.57 1.05 -0.31c0.7,-0.19 1.4,-0.41 2.1,-0.58 1.75,-0.45 3.59,-0.81 5.46,-1.12l0.37 -0.1zm-102.75 87.6l0 -137.85c4.08,-0.23 8.7,-0.49 13.6,-0.8 18.39,-1.07 41.27,-2.44 55.23,-3.88 14.03,-1.41 27.09,6.28 30.42,17.89 1.05,3.61 1.93,7.2 2.67,10.72 0.83,3.95 1.35,7.74 1.59,11.42 -8.85,0.99 -16.77,3.12 -23.56,6.33 -13.52,6.4 -23.75,17.93 -29.59,33.27 -1.43,3.78 -2.61,7.88 -3.63,12.5 -0.58,2.71 0.45,5.47 2.69,7.21 1.78,2.76 5.59,4.22 9.61,3.61 21.25,-3.34 37.14,-10.19 47.25,-20.38 7.57,-7.65 12.27,-17.18 13.96,-28.34 1.08,0.05 2.14,0.14 3.22,0.18 6.71,0.48 14.25,1.6 23.08,3.47l0.25 0.04c13.4,2.85 22.29,13.84 20.65,25.53 -1.63,11.58 -3.14,30.87 -4.37,46.4 -0.35,4.54 -0.7,8.85 -1.02,12.68l-162.05 0zm-8.64 -793.62c-4.3,0 -8.64,2.49 -8.64,7.16l0 793.35c0,2.18 0.98,4.1 2.79,5.43 1.53,1.55 3.8,2.41 6.35,2.41l932.32 0c5.5,0 8.41,-3.74 8.41,-7.39 0,-3.66 -2.91,-7.34 -8.41,-7.34l-655.04 0 -0.08 -0.18c-8.1,-14.54 -11.41,-32.07 -9.41,-49.5 7.97,2.35 16.49,4.62 25.29,5.95 25.21,3.79 51.5,-1.59 68.61,-14.14 18.67,-13.66 23.19,-36.88 10.75,-55.2 -10.8,-15.93 -34.89,-28.25 -58.31,-19.72 -29.09,10.59 -50.77,33.68 -59.74,63.49l-3.5 -1.07c-6.99,-2.18 -13.81,-4.54 -20.8,-6.9 -3.01,-1.06 -6.08,-2.13 -9.14,-3.2 -7.74,-2.67 -15.73,-5.43 -23.72,-8.05 2.7,-19.18 5.78,-40.79 11.75,-61.16 1.29,-4.45 2.78,-8.94 4.47,-13.44 24.38,-7.48 45.18,-17.84 61.86,-30.83 10.53,-8.22 18.44,-18.5 22.82,-29.71 1.17,-2.98 2.04,-6.05 2.64,-9.25 0.09,-0.49 0.41,-0.9 0.87,-1.16 0.45,-0.32 1.01,-0.4 1.56,-0.32 1.31,0.23 2.42,0.45 3.38,0.77 2.29,0.75 4.67,2.17 6.77,3.43l0.35 0.22c4.61,2.76 8.63,6.26 11.35,9.87 3.22,4.31 4.92,8.71 5.05,13.21l0.03 0.71c0.09,1.79 0.14,3.43 -0.93,4.41 -1.79,1.55 -4.98,2.26 -7.35,2.75 -5.31,1.11 -7.05,5.25 -6.02,8.77 1.06,3.61 4.94,6.62 10.36,5.47 9.7,-2.04 16.36,-6.05 19.3,-11.53 3.51,-6.53 1.83,-14.94 0.52,-19.34 -3.94,-13.35 -15.34,-22.24 -24.21,-27.4 -5.8,-3.34 -11.75,-5.3 -18.79,-6.1 -0.54,-0.09 -1.08,-0.14 -1.61,-0.18 -0.49,-4.36 -1.53,-8.05 -3.12,-11.02 -6.36,-11.71 -18.26,-21.36 -31.84,-25.85 -8.53,-2.8 -17.82,-3.48 -24.84,-1.78 -7.8,1.87 -13.59,8 -16.32,17.31 -0.76,2.57 0.03,5.11 2.18,6.84 2.32,1.91 5.91,2.71 8.97,1.96 2.8,-0.66 4.82,-2.54 5.58,-5.12 0.63,-2.14 1.31,-4.22 2.73,-5.73 1.02,-1.12 1.77,-1.16 4.24,-1.25l0.89 -0.04c2.92,-0.14 5.4,0.08 7.53,0.63 6.85,1.77 12.82,5.16 18.19,10.35 2.68,2.63 6.39,6.54 7.5,10.55 0.11,0.43 0.22,0.88 0.33,1.33 0.11,0.49 -0.01,1.03 -0.35,1.42 -0.35,0.4 -0.88,0.67 -1.49,0.76 -13.22,1.77 -26.28,7.07 -37.84,15.35 -9.37,6.71 -18.29,16.06 -27.26,28.65 -6.4,8.97 -11.85,18.85 -16.63,30.1 -26.96,7.34 -55.6,10.68 -82.65,13.44l-5.45 0.57c-2.9,-6.53 -5.88,-12.9 -8.44,-18.26 -4.62,-9.72 -9.26,-19.9 -13.8,-30.26 25.87,-5.65 47.93,-17.44 62.25,-33.23 7.05,-7.83 16.33,-19.67 15.42,-32.91 -0.64,-9.26 -5.47,-18.42 -13.58,-25.72 -16.96,-15.39 -44.2,-18.99 -64.74,-8.67 -18.51,9.34 -30.03,28.92 -30.78,52.4 -0.36,13.3 3.85,25.84 7.61,35.32 0.21,0.44 0.39,0.93 0.59,1.38 -14.55,1.2 -29.37,0.08 -43.05,-3.21 -5.35,-1.29 -10.42,-2.89 -15.09,-4.76l0 -557.68c0,-4.67 -4.35,-7.16 -8.64,-7.16zm363.04 652.1l0 0.03 0 0.04 0 0.07c0.01,1.25 0.39,2.52 1.09,3.57 2.29,3.38 7.18,4.58 11.65,2.8 35.79,-14.18 75.01,3.03 92.24,27.85 1.59,2.31 4.23,3.61 7.22,3.56 3.24,0 6.46,-1.6 8.02,-3.96 1.41,-2.14 1.33,-4.67 -0.24,-6.94 -18.32,-26.37 -52.84,-42.52 -85.93,-40.17 -10.08,0.72 -20.03,2.98 -29.58,6.76 -1.9,0.76 -3.32,2.18 -4.03,4.06 -0.28,0.76 -0.43,1.54 -0.44,2.33zm188.66 80.67c-18.17,-12.45 -30.5,-29.49 -42.43,-46l-2.75 -3.78c-12.77,-17.7 -25.98,-36.03 -44.52,-49.95 -10.4,-7.84 -21.37,-13.3 -32.6,-16.28 -10.81,-2.84 -21.73,-4.06 -32.46,-3.56 -21.54,1.03 -39.51,9.91 -49.31,24.42 -1.57,2.32 -4.16,3.65 -7.11,3.65 -3.21,0 -6.44,-1.6 -8.03,-3.96 -0.73,-1.03 -1.07,-2.19 -1.07,-3.34 0,-1.21 0.39,-2.44 1.19,-3.64 2.87,-4.24 6.21,-8.1 9.91,-11.53 13.49,-12.54 34.38,-19.97 57.27,-20.41 10.81,-0.18 22.21,1.15 32.96,3.86 12.15,3.07 23.62,8.23 35.05,15.84 20.74,13.7 35.53,32.69 47.78,49.38 2.35,3.24 4.69,6.49 7.02,9.78 9.25,13 18.81,26.47 31.38,37.41 9.61,8.32 24.92,18.55 43.38,19.84 15.99,1.11 32.06,-3.86 44.05,-13.65 10.69,-8.73 17.6,-20.51 18.45,-31.54 0.98,-12.32 -4.6,-22.95 -16.09,-30.79 -3.8,-2.58 -11.48,-6.66 -20.17,-5.03 -7.17,1.35 -13.01,5.74 -15.65,11.84 -2.59,6.01 -1.78,13.53 2.05,19.17 3.7,5.39 10.46,8.64 18.52,8.85 3.17,0.09 5.81,1.47 7.25,3.79 1.51,2.44 1.43,5.6 -0.24,7.87 -1.53,2.09 -4.07,3.16 -7.13,3.07 -6.34,-0.17 -11.96,-1.29 -17.21,-3.38 -9.06,-3.65 -15.98,-10.46 -19.49,-19.22 -3.86,-9.65 -3.03,-20.64 2.23,-29.31 5.02,-8.28 14.1,-14.37 24.92,-16.64 10.84,-2.31 22.24,-0.53 31.31,4.8 16.66,9.84 26.28,24.06 27.08,40.04 0.68,14.27 -5.65,29.05 -17.87,41.64 -12.56,12.93 -30.94,21.35 -50.4,23.08 -24.43,2.19 -44.64,-7.69 -57.27,-16.32zm-497.74 -234.79c-1.57,3.68 -5.73,5.64 -9.88,4.67 -2.13,-0.49 -4.05,-1.83 -5.13,-3.65 -0.57,-0.92 -0.89,-1.96 -0.89,-2.98 0,-0.66 0.16,-1.34 0.43,-1.96 5.64,-13.21 15.73,-24.37 29.17,-32.25 12.55,-7.38 27.86,-11.65 44.22,-12.31 8.9,-0.41 18.05,0.44 27.16,2.44 4.95,1.06 6.54,4.94 5.55,8.19 -1.02,3.37 -4.69,6.17 -9.77,5.07 -30.02,-6.59 -68.47,3.9 -80.86,32.78zm359.08 207.78c-0.82,13.92 -5.83,26.95 -14.51,37.63 -9.25,11.43 -22.37,20.02 -37.91,24.82 -1.84,0.58 -3.91,0.45 -5.8,-0.4 -2.1,-0.94 -3.7,-2.54 -4.29,-4.36 -0.18,-0.62 -0.27,-1.2 -0.27,-1.81 0,-2.86 2.21,-5.48 5.77,-6.6 33.96,-10.54 46.26,-43.28 38.54,-68.81 -1.31,-4.32 2,-7.43 5.95,-8.32 3.83,-0.84 8.38,0.53 9.65,4.71 2.35,7.79 3.31,15.58 2.87,23.14zm159.8 63.02l0 0.06 0 0.04 0 0.03c0,0.77 0.15,1.55 0.44,2.33 0.67,1.87 2.11,3.28 4,4.04 16.33,6.46 34.15,8.46 51.63,5.7 16.32,-2.54 31.97,-9.25 45.2,-19.44 7.18,-5.56 13.47,-12.15 18.68,-19.67 1.57,-2.27 1.65,-4.79 0.22,-6.93 -1.56,-2.36 -4.76,-3.96 -7.99,-3.96 -2.99,-0.04 -5.62,1.25 -7.22,3.55 -17.23,24.82 -56.43,42.05 -92.24,27.85 -4.49,-1.78 -9.38,-0.58 -11.64,2.8 -0.72,1.06 -1.08,2.32 -1.08,3.6zm-550.79 -490.17l0 0.2c0,10.58 2.73,21.09 8.11,30.87 0.9,1.64 2.58,2.85 4.75,3.43 2.4,0.66 5.06,0.48 7.11,-0.54 4.01,-1.9 5.4,-6.1 3.33,-9.91 -16.68,-30.48 3.51,-63.84 32.69,-78.47 4.82,-2.45 5.1,-6.95 2.88,-10.15 -2.15,-3.07 -6.79,-4.97 -11.48,-2.62 -8.84,4.45 -16.62,9.79 -23.12,15.88 -11.96,11.3 -19.89,24.6 -22.87,38.47 -0.93,4.26 -1.39,8.59 -1.4,12.84zm108.3 117.97l0 0.07c0,2.26 1.25,4.53 4.22,6.04 29.17,14.64 49.36,48.04 32.7,78.47 -2.07,3.83 -0.68,8 3.32,9.92 2.06,1.03 4.71,1.2 7.11,0.54 2.18,-0.58 3.85,-1.78 4.75,-3.39 7.6,-13.87 9.92,-29.09 6.73,-43.94 -3.01,-13.88 -10.93,-27.18 -22.88,-38.48 -6.5,-6.1 -14.28,-11.44 -23.13,-15.88 -4.69,-2.36 -9.33,-0.45 -11.47,2.62 -0.84,1.23 -1.33,2.63 -1.35,4.03zm106.01 77.64c-4.06,18.6 -17.14,34.52 -35.85,43.69 -2.69,1.33 -5.67,1.37 -8.2,0.13 -2.76,-1.38 -4.61,-4.1 -4.61,-6.86 0,-2.53 1.54,-4.71 4.24,-6.04 4.71,-2.31 8.66,-4.85 12.14,-7.87 12.74,-11 18.63,-28.12 16.12,-47.03 -1.39,-10.58 -5.4,-20.76 -11.59,-29.44 -6.13,-8.59 -14.31,-16.64 -25,-24.51 -13.97,-10.27 -30.06,-18.64 -45.63,-26.74 -6.69,-3.46 -13.6,-7.07 -20.28,-10.8 -15.32,-8.5 -34.43,-20.55 -46.47,-38.12 -7.02,-10.24 -10.63,-21.72 -10.63,-32.83 0,-6.55 1.26,-12.99 3.8,-19 6.37,-15.03 18.79,-27.71 34.96,-35.72 16.08,-7.96 34.52,-10.45 50.6,-6.76 8.72,1.95 17.01,5.87 24,11.3 8.8,6.85 14.57,14.85 16.3,22.59 2,9.17 -0.4,18.47 -6.62,25.53 -7.01,7.97 -17.68,12.86 -30.04,13.67 -10.98,0.75 -22.09,-2.1 -30.52,-7.88 -8.53,-5.87 -13.49,-14.81 -13.92,-25.31 -0.14,-2.62 1.15,-4.76 3.6,-6.1 2.66,-1.37 6.38,-1.46 9.25,-0.17 2.7,1.2 4.31,3.47 4.44,6.18 0.16,3.7 1.13,6.81 3.03,9.56 3.51,5.12 10.09,8.41 18.01,9.04 8.43,0.66 16.43,-1.88 21.44,-6.77 4.34,-4.22 5.86,-10.44 3.98,-16.27 -1.69,-5.21 -6.76,-10.95 -13.58,-15.4 -10.18,-6.67 -23.94,-8.63 -37.73,-5.38 -13.47,3.16 -26.22,11.12 -34.13,21.27 -9.44,12.18 -11.97,26.95 -6.9,40.52 4.5,12.1 14.7,23.39 31.13,34.56 11.43,7.79 24.3,14.36 36.72,20.73 8,4.09 16.28,8.32 24.09,12.86 25.6,14.72 42.55,29.35 53.36,45.95 10.83,16.59 14.75,38.07 10.49,57.42zm224.4 33.72c-1.83,1.69 -5.24,3.11 -9.18,2.09 -6.83,-1.82 -13.66,-3.38 -20.34,-4.62l-7.45 -1.38 0 0.48c-0.92,-0.39 -1.9,-0.67 -2.92,-0.84 -23.24,-3.33 -44.33,-2.94 -62.69,1.25 -3.44,0.75 -5.55,3.5 -5.14,6.49 -6.84,1.11 -13.23,2.94 -19.11,5.38 2.89,-4.98 5.02,-10.46 6.34,-16.28 3.48,0.4 6.7,-1.42 7.63,-4.36 4.92,-15.62 5.4,-33.58 1.42,-53.33 -0.15,-0.89 -0.49,-1.74 -0.95,-2.5l0.57 0 -1.65 -6.35c-1.46,-5.65 -3.29,-11.48 -5.42,-17.31 -1.23,-3.38 0.48,-6.22 2.47,-7.82 2.44,-1.92 5.78,-2.45 8.85,-1.44 36.37,12.28 74.37,5.97 99.84,-1.5 3.3,-0.98 6.72,-0.32 9.15,1.78 2.41,2.04 3.19,4.93 2.06,7.78 -8.78,21.67 -16.22,54 -1.79,84.97 1.23,2.62 0.6,5.42 -1.69,7.51zm-152.71 20.47l12.22 10.39 4.32 -3.68c23.58,-20.06 59.91,-15.97 86.23,-8.99 7.24,1.92 14.95,0.18 20.11,-4.54 1.56,-1.46 2.78,-3.07 3.64,-4.84 4.43,0.93 8.91,1.99 13.37,3.21 7.85,2.04 16.2,0.17 21.78,-4.94 5.47,-5.03 7.04,-12.1 4.08,-18.42 -13.05,-28.03 -6.14,-57.74 1.98,-77.76 2.63,-6.58 0.74,-13.66 -4.98,-18.5 -5.71,-4.9 -14.04,-6.5 -21.75,-4.22 -23.52,6.88 -58.44,12.76 -91.36,1.63 -7.45,-2.48 -15.75,-1.15 -21.66,3.48 -6.01,4.76 -8.24,11.87 -5.8,18.54 1.38,3.79 2.64,7.61 3.75,11.39 -2.08,0.72 -3.99,1.78 -5.67,3.12 -5.58,4.36 -7.61,10.94 -5.37,17.08 8.2,22.42 13.03,53.34 -10.58,73.4l-4.31 3.65zm6823.11 -3898.16c0.21,0.13 0.67,0.62 0.29,1.34 -4.74,8.57 -10.28,16.41 -16.36,23.39 -8.5,9.65 -16.72,16.15 -25.77,20.46l-0.19 0.09c-3.96,1.91 -7.77,0.53 -9.79,-1.2 -1.38,-1.16 -2.46,-2.85 -2.46,-4.8 0,-1.03 0.29,-2.14 1.03,-3.29 4.2,-6.46 10.14,-12.55 17.25,-17.62 10.19,-7.34 21.45,-13.44 34.42,-18.64 0.84,-0.31 1.44,0.09 1.58,0.27zm232.98 602.83l0 -793.35c0,-2.18 -1,-4.1 -2.81,-5.44 -1.51,-1.48 -3.7,-2.33 -6.21,-2.35l-932.44 0c-5.52,0 -8.4,3.69 -8.4,7.34 0,3.65 2.88,7.39 8.4,7.39l655.03 0 0.11 0.12c8.05,14.56 11.36,32.09 9.39,49.56 -7.96,-2.35 -16.51,-4.66 -25.33,-5.96 -25.21,-3.82 -51.46,1.61 -68.62,14.1 -18.62,13.66 -23.18,36.87 -10.72,55.21 10.78,15.93 34.91,28.25 58.35,19.7 29.05,-10.59 50.77,-33.68 59.71,-63.48l3.51 1.13c6.97,2.12 13.79,4.48 20.76,6.88 3.07,1.03 6.08,2.09 9.16,3.16 7.76,2.67 15.75,5.47 23.71,8.06 -2.67,19.21 -5.77,40.78 -11.71,61.19 -1.33,4.42 -2.81,8.91 -4.5,13.4 -24.38,7.47 -45.19,17.88 -61.84,30.83 -10.54,8.23 -18.44,18.5 -22.84,29.75 -1.13,2.94 -2.02,6.05 -2.62,9.22 -0.1,0.48 -0.4,0.88 -0.89,1.19 -0.43,0.27 -0.99,0.36 -1.53,0.27 -1.33,-0.18 -2.43,-0.44 -3.43,-0.76 -2.27,-0.75 -4.64,-2.18 -6.75,-3.41l-0.35 -0.23c-4.61,-2.71 -8.61,-6.23 -11.36,-9.87 -3.22,-4.28 -4.91,-8.73 -5.07,-13.22l0 -0.71c-0.08,-1.73 -0.14,-3.43 0.94,-4.36 1.79,-1.6 5.01,-2.27 7.33,-2.8 5.33,-1.12 7.08,-5.25 6.03,-8.77 -1.04,-3.6 -4.94,-6.62 -10.39,-5.46 -9.67,2.05 -16.35,6.04 -19.27,11.51 -3.52,6.58 -1.84,14.95 -0.54,19.35 3.95,13.35 15.38,22.3 24.26,27.41 5.78,3.38 11.72,5.29 18.75,6.13 0.53,0.04 1.09,0.09 1.62,0.14 0.49,4.35 1.55,8.09 3.13,11.03 6.38,11.7 18.23,21.4 31.83,25.85 8.55,2.79 17.85,3.47 24.88,1.77 7.8,-1.86 13.58,-8.01 16.3,-17.3 0.74,-2.58 -0.05,-5.07 -2.18,-6.86 -2.32,-1.9 -5.93,-2.66 -8.99,-1.9 -2.77,0.66 -4.8,2.53 -5.59,5.07 -0.61,2.13 -1.29,4.22 -2.72,5.78 -0.98,1.07 -1.76,1.15 -4.26,1.24l-0.89 0c-2.92,0.13 -5.38,-0.09 -7.51,-0.61 -6.86,-1.74 -12.8,-5.17 -18.19,-10.37 -2.67,-2.58 -6.37,-6.5 -7.47,-10.54 -0.14,-0.45 -0.25,-0.89 -0.34,-1.34 -0.1,-0.48 0,-0.98 0.34,-1.37 0.35,-0.45 0.86,-0.72 1.49,-0.81 13.19,-1.73 26.3,-7.03 37.81,-15.31 9.41,-6.71 18.29,-16.08 27.3,-28.63 6.37,-9 11.86,-18.87 16.62,-30.16 26.98,-7.35 55.6,-10.63 82.64,-13.44l5.45 -0.58c2.9,6.53 5.88,12.9 8.44,18.29 4.61,9.74 9.26,19.88 13.8,30.24 -25.86,5.66 -47.91,17.44 -62.23,33.28 -7.09,7.78 -16.32,19.65 -15.44,32.92 0.65,9.24 5.49,18.38 13.59,25.71 16.95,15.35 44.21,18.99 64.73,8.62 18.53,-9.29 30.04,-28.91 30.8,-52.35 0.33,-13.3 -3.87,-25.89 -7.63,-35.32 -0.19,-0.49 -0.39,-0.94 -0.59,-1.43 14.55,-1.15 29.37,-0.04 43.06,3.2 5.33,1.3 10.43,2.9 15.08,4.77l0 557.68c0,4.71 4.35,7.15 8.65,7.15 4.3,0 8.65,-2.44 8.65,-7.15zm-102.73 -562.35l0.59 1.5c2.48,-0.7 5.14,-0.52 7.53,0.49 2.46,1.08 4.35,2.94 5.18,5.21 2.98,8.05 4.49,14.63 4.86,20.68 0.49,9.21 -1.05,17.93 -4.52,25.99 -3.39,7.87 -9.18,14.5 -15.82,18.28 -7.95,4.49 -17.99,6.05 -26.78,4.18 -15.71,-3.39 -30.3,-16.42 -27.05,-30.43 1.3,-5.29 4.95,-10.36 8.32,-14.68 3.6,-4.62 8.1,-9.03 13.44,-13.08 9.25,-6.98 21.26,-12.72 34.74,-16.59l-0.49 -1.55zm85.43 -71.54l0 60.32c-19.63,-6.4 -41.63,-8.58 -63.91,-6.27 -1.5,-3.25 -2.87,-6.44 -4.3,-9.6 -2.97,-6.54 -6.15,-13.16 -9.26,-19.58l-2.61 -5.51c-1.43,-3.07 -1.13,-6.5 0.83,-9.39 2.03,-2.88 5.4,-4.8 9.34,-5.16 14.34,-1.51 37.82,-2.88 56.66,-4 4.75,-0.27 9.23,-0.54 13.25,-0.81zm-242.89 -97.76c2.24,-16.11 0.79,-32.21 -4.24,-46.81 -0.93,-2.62 -2.02,-5.29 -3.27,-7.95l71.04 0c-0.24,3.24 -0.53,6.89 -0.88,10.72 -1.35,16.37 -2.97,36.74 -4.75,48.97 -0.44,3.3 -2.67,6.19 -6.03,7.93 -3.42,1.68 -7.42,1.95 -11.03,0.71 -3,-1.03 -5.97,-2.06 -8.99,-3.08 -7.37,-2.53 -14.98,-5.2 -22.54,-7.64 -2.53,-0.86 -5.09,-1.61 -7.61,-2.36l-1.7 -0.49zm-96.48 12.18c7.71,-4.67 17.21,-7.69 28.27,-9.03 10.37,-1.24 20.76,-0.48 33.72,2.45 1.74,0.4 3.42,0.8 5.09,1.24 2.71,0.67 5.05,2.27 6.33,4.41 1.23,2.05 1.43,4.31 0.59,6.49 -5.05,12.69 -15.23,30.12 -35.36,41.25 -5.08,2.79 -11.01,5.85 -17.09,6.79 -3.56,0.58 -7.33,0.36 -11.23,-0.62 -7.4,-1.78 -14.57,-6.53 -19.18,-12.72 -3.94,-5.25 -5.87,-10.68 -5.87,-16.23 0,-1.83 0.19,-3.65 0.63,-5.47 1.73,-7.48 6.72,-14.07 14.1,-18.56zm214.94 35.82c1.18,0.09 2.38,0.13 3.61,0.18 0.65,10.23 3.22,21.39 8.02,35.01 0.98,2.85 2.06,5.7 3.25,8.76 -28.29,2.89 -52.15,5.65 -75.93,11.12 6.21,-19.7 9.5,-40.21 12.11,-58l0.93 -6.23c18.01,5.12 33.3,8.04 48.01,9.16zm21.7 -15.21l0.21 -0.85c0.28,-1.42 0.69,-2.85 1.17,-4.18 0.21,-0.66 0.5,-1.38 0.75,-2.04l0.35 -0.8 0.33 -0.76c1.25,-2.5 2.83,-4.95 4.66,-7.21l0.69 -0.79c0.5,-0.5 1,-1.03 1.47,-1.48 1.25,-1.2 2.64,-2.36 4.08,-3.47 0.54,-0.39 1.13,-0.84 1.71,-1.24l0.31 -0.22 1.22 -0.77c1.56,-0.88 3.16,-1.72 4.91,-2.57 3.91,-1.87 6.86,-2.98 11.42,-4.22 0.98,-0.27 1.67,0.17 1.88,0.35 0.58,0.49 0.73,1.15 0.49,1.77 -1.39,3.66 -3.07,6.9 -5.05,9.93 -0.94,1.47 -1.98,2.85 -3.02,4.14l-0.74 0.88 1.44 1.07 -1.58 -0.89c-0.65,0.67 -1.28,1.29 -1.93,1.92 -1.13,1.11 -2.37,2.13 -3.66,3.11 -0.59,0.49 -1.24,0.93 -1.92,1.38l-1.19 0.75c-1.34,0.81 -2.78,1.52 -4.2,2.19 -0.65,0.3 -1.3,0.57 -1.94,0.84l-1.23 0.49 -1.67 0.58 -1.05 0.31c-0.68,0.22 -1.38,0.39 -2.08,0.57 -1.77,0.45 -3.6,0.85 -5.48,1.12l-0.35 0.09zm102.73 -87.55l0 137.81c-4.09,0.26 -8.7,0.54 -13.58,0.81 -18.41,1.1 -41.29,2.44 -55.22,3.86 -14.06,1.43 -27.11,-6.26 -30.47,-17.88 -1.03,-3.59 -1.92,-7.21 -2.62,-10.67 -0.84,-4.01 -1.38,-7.74 -1.63,-11.48 8.84,-0.98 16.77,-3.12 23.59,-6.31 13.5,-6.41 23.73,-17.89 29.56,-33.28 1.48,-3.74 2.61,-7.83 3.65,-12.45 0.56,-2.76 -0.44,-5.47 -2.67,-7.26 -1.82,-2.75 -5.63,-4.18 -9.64,-3.56 -21.25,3.3 -37.11,10.15 -47.25,20.38 -7.57,7.6 -12.27,17.12 -13.96,28.29 -1.08,-0.04 -2.16,-0.09 -3.2,-0.18 -6.73,-0.44 -14.29,-1.61 -23.1,-3.47l-0.23 -0.04c-13.4,-2.85 -22.3,-13.83 -20.66,-25.54 1.63,-11.56 3.16,-30.87 4.33,-46.35 0.42,-4.58 0.76,-8.89 1.05,-12.68l162.05 0zm-354.41 141.49l0 -0.04 0 -0.03 0 -0.07c0,-1.27 -0.35,-2.48 -1.08,-3.58 -2.27,-3.39 -7.16,-4.58 -11.61,-2.81 -35.84,14.2 -75.04,-3.02 -92.25,-27.8 -1.64,-2.31 -4.24,-3.64 -7.26,-3.6 -3.22,0.05 -6.45,1.65 -7.97,3.96 -1.45,2.18 -1.35,4.67 0.2,6.93 18.33,26.39 52.84,42.54 85.91,40.22 10.09,-0.7 20.08,-3.02 29.62,-6.8 1.88,-0.72 3.31,-2.18 4.01,-4.05 0.29,-0.74 0.43,-1.56 0.43,-2.33zm-188.65 -80.64c18.2,12.42 30.5,29.46 42.46,45.95l2.72 3.84c12.75,17.7 26.02,35.99 44.55,49.95 10.37,7.83 21.34,13.3 32.57,16.24 10.82,2.89 21.75,4.04 32.49,3.55 21.49,-1.02 39.48,-9.92 49.28,-24.42 1.58,-2.31 4.14,-3.6 7.13,-3.6 3.19,0 6.42,1.55 8.04,3.92 0.7,1.06 1.03,2.18 1.03,3.34 0,1.24 -0.38,2.49 -1.17,3.64 -2.87,4.22 -6.19,8.14 -9.9,11.57 -13.49,12.5 -34.39,19.93 -57.29,20.36 -10.78,0.22 -22.19,-1.1 -32.97,-3.86 -12.16,-3.07 -23.59,-8.23 -35.05,-15.8 -20.71,-13.74 -35.5,-32.69 -47.75,-49.41 -2.39,-3.21 -4.71,-6.51 -7.02,-9.74 -9.25,-13.04 -18.8,-26.52 -31.39,-37.42 -9.6,-8.35 -24.93,-18.59 -43.36,-19.89 -16.02,-1.1 -32.09,3.88 -44.06,13.66 -10.71,8.72 -17.59,20.51 -18.46,31.54 -1,12.32 4.59,23 16.09,30.79 3.81,2.57 11.48,6.67 20.18,5.06 7.16,-1.33 12.99,-5.78 15.63,-11.87 2.6,-6.01 1.81,-13.53 -2.04,-19.13 -3.71,-5.42 -10.43,-8.67 -18.55,-8.9 -3.15,-0.09 -5.75,-1.46 -7.2,-3.78 -1.54,-2.44 -1.43,-5.6 0.24,-7.87 1.48,-2.05 4.05,-3.15 7.12,-3.06 6.32,0.22 11.96,1.32 17.21,3.41 9.05,3.61 15.96,10.41 19.47,19.18 3.86,9.69 3.08,20.64 -2.23,29.31 -5.03,8.32 -14.09,14.38 -24.92,16.64 -10.82,2.32 -22.24,0.57 -31.28,-4.8 -16.66,-9.84 -26.3,-24.02 -27.1,-40.04 -0.68,-14.24 5.64,-29.05 17.86,-41.58 12.6,-12.96 30.94,-21.36 50.43,-23.1 24.42,-2.18 44.64,7.65 57.24,16.32zm513.64 236.76l0 -0.03 0 -0.03 0 -0.05c-0.01,-1 -0.31,-1.97 -0.87,-2.93 -1.1,-1.78 -3.02,-3.17 -5.15,-3.64 -4.16,-0.99 -8.31,1.01 -9.88,4.67 -12.39,28.91 -50.82,39.36 -80.84,32.78 -5.1,-1.11 -8.74,1.73 -9.8,5.07 -0.97,3.25 0.62,7.16 5.56,8.23 9.14,2 18.28,2.8 27.18,2.45 16.36,-0.71 31.64,-4.98 44.19,-12.37 13.45,-7.87 23.54,-19.04 29.22,-32.25 0.23,-0.6 0.38,-1.25 0.39,-1.9zm-374.96 -209.74c0.79,-13.97 5.82,-26.96 14.48,-37.67 9.3,-11.4 22.4,-19.98 37.92,-24.84 1.83,-0.57 3.91,-0.38 5.83,0.41 2.09,0.94 3.67,2.57 4.26,4.37 0.19,0.61 0.29,1.24 0.29,1.82 0,2.89 -2.23,5.51 -5.79,6.62 -33.96,10.54 -46.27,43.24 -38.5,68.77 1.27,4.36 -2.02,7.47 -5.99,8.33 -3.8,0.84 -8.36,-0.5 -9.63,-4.72 -2.38,-7.74 -3.33,-15.53 -2.87,-23.09zm-160.23 -65.52c0.29,0.79 0.45,1.6 0.45,2.44 0,1.29 -0.4,2.54 -1.09,3.6 -2.27,3.43 -7.16,4.63 -11.67,2.85 -35.79,-14.18 -75,2.98 -92.23,27.8 -1.59,2.31 -4.23,3.61 -7.23,3.61 -3.23,-0.04 -6.42,-1.65 -8.01,-4.01 -1.39,-2.13 -1.35,-4.67 0.26,-6.9 5.17,-7.51 11.5,-14.13 18.66,-19.7 13.27,-10.18 28.88,-16.89 45.2,-19.43 17.5,-2.72 35.35,-0.76 51.61,5.69 1.92,0.75 3.35,2.22 4.05,4.05zm551.2 492.62l0 -0.2c0,-10.55 -2.7,-21.03 -8.1,-30.86 -0.88,-1.61 -2.55,-2.85 -4.75,-3.43 -2.41,-0.67 -5.08,-0.45 -7.11,0.53 -4,1.96 -5.39,6.13 -3.31,9.92 16.66,30.47 -3.56,63.84 -32.74,78.47 -4.78,2.45 -5.08,6.94 -2.86,10.14 2.18,3.12 6.77,5.03 11.49,2.67 8.83,-4.46 16.58,-9.83 23.12,-15.93 11.97,-11.26 19.88,-24.54 22.89,-38.48 0.88,-4.24 1.37,-8.53 1.37,-12.83zm-108.3 -117.92l0 -0.06c0,-2.32 -1.24,-4.58 -4.22,-6.1 -29.16,-14.64 -49.38,-48 -32.73,-78.48 2.13,-3.81 0.7,-7.96 -3.31,-9.91 -2.02,-0.98 -4.69,-1.2 -7.11,-0.54 -2.17,0.58 -3.86,1.79 -4.75,3.44 -7.56,13.86 -9.9,29.04 -6.67,43.9 2.97,13.91 10.89,27.22 22.84,38.47 6.52,6.1 14.28,11.48 23.13,15.89 4.7,2.39 9.36,0.48 11.47,-2.63 0.84,-1.23 1.33,-2.58 1.35,-3.98zm-106.03 -77.69c4.1,-18.59 17.14,-34.52 35.88,-43.68 2.67,-1.34 5.68,-1.39 8.21,-0.09 2.78,1.33 4.59,4.09 4.59,6.8 0,2.54 -1.53,4.72 -4.24,6.05 -4.71,2.32 -8.67,4.9 -12.13,7.89 -12.75,10.97 -18.63,28.14 -16.1,47.05 1.38,10.59 5.38,20.73 11.58,29.4 6.12,8.63 14.31,16.64 25,24.51 13.94,10.28 30.06,18.68 45.64,26.78 6.66,3.47 13.57,7.07 20.25,10.77 15.33,8.54 34.46,20.55 46.47,38.12 7.02,10.23 10.63,21.7 10.63,32.83 0,6.58 -1.23,12.99 -3.8,18.98 -6.38,15.04 -18.79,27.72 -34.96,35.73 -16.05,8 -34.5,10.45 -50.58,6.81 -8.74,-2.01 -17.03,-5.92 -24.02,-11.35 -8.8,-6.8 -14.57,-14.85 -16.27,-22.6 -2.01,-9.16 0.37,-18.46 6.59,-25.53 7.01,-7.96 17.7,-12.81 30.06,-13.66 10.98,-0.75 22.1,2.15 30.5,7.88 8.55,5.87 13.49,14.85 13.94,25.31 0.14,2.67 -1.18,4.8 -3.6,6.1 -2.67,1.41 -6.4,1.5 -9.26,0.17 -2.73,-1.2 -4.3,-3.47 -4.45,-6.14 -0.14,-3.73 -1.13,-6.85 -3.01,-9.61 -3.55,-5.11 -10.09,-8.36 -18.05,-8.97 -8.39,-0.68 -16.41,1.81 -21.4,6.7 -4.35,4.23 -5.88,10.51 -4,16.29 1.68,5.21 6.76,10.94 13.58,15.39 10.2,6.67 23.95,8.63 37.73,5.38 13.45,-3.15 26.21,-11.07 34.12,-21.26 9.49,-12.14 12,-26.92 6.91,-40.52 -4.5,-12.06 -14.68,-23.36 -31.15,-34.58 -11.42,-7.73 -24.27,-14.32 -36.68,-20.67 -8.01,-4.1 -16.27,-8.37 -24.13,-12.85 -25.56,-14.78 -42.51,-29.37 -53.34,-46 -10.81,-16.6 -14.73,-38.08 -10.51,-57.43zm-224.41 -33.72c1.89,-1.7 5.24,-3.11 9.2,-2.09 6.84,1.83 13.69,3.38 20.36,4.63l7.42 1.41 0 -0.48c0.95,0.35 1.94,0.67 2.92,0.8 23.24,3.38 44.35,2.94 62.75,-1.24 3.39,-0.76 5.52,-3.52 5.08,-6.46 6.88,-1.11 13.3,-2.94 19.13,-5.42 -2.91,5.02 -5.04,10.45 -6.33,16.28 -3.46,-0.36 -6.73,1.46 -7.6,4.36 -4.96,15.65 -5.39,33.58 -1.45,53.34 0.15,0.88 0.49,1.73 0.95,2.53l-0.6 0 1.67 6.32c1.44,5.69 3.27,11.47 5.4,17.3 1.25,3.38 -0.44,6.27 -2.41,7.83 -2.48,1.91 -5.8,2.45 -8.85,1.42 -36.38,-12.28 -74.41,-5.96 -99.86,1.51 -3.33,0.98 -6.72,0.31 -9.15,-1.73 -2.43,-2.1 -3.22,-4.99 -2.09,-7.79 8.81,-21.66 16.23,-53.99 1.79,-84.95 -1.24,-2.62 -0.59,-5.48 1.67,-7.57zm152.71 -20.46l-12.21 -10.36 -4.3 3.64c-23.58,20.07 -59.9,15.97 -86.21,8.98 -7.28,-1.9 -14.93,-0.17 -20.13,4.59 -1.52,1.43 -2.76,3.02 -3.65,4.8 -4.4,-0.93 -8.91,-2 -13.35,-3.16 -7.86,-2.09 -16.21,-0.21 -21.79,4.95 -5.45,5.02 -7.04,12.05 -4.07,18.4 13.06,27.98 6.15,57.74 -1.97,77.77 -2.67,6.53 -0.74,13.61 4.99,18.5 5.7,4.84 14.05,6.49 21.7,4.23 23.53,-6.91 58.48,-12.81 91.42,-1.7 7.42,2.54 15.72,1.21 21.62,-3.46 6.02,-4.76 8.26,-11.88 5.82,-18.51 -1.37,-3.79 -2.66,-7.6 -3.76,-11.39 2.08,-0.75 3.99,-1.78 5.69,-3.11 5.54,-4.42 7.62,-10.95 5.34,-17.14 -8.15,-22.37 -13,-53.28 10.57,-73.34l4.3 -3.69 -0.01 0zm82.17 3898.42c-12.96,-5.2 -24.23,-11.29 -34.42,-18.63 -7.11,-5.08 -13.05,-11.18 -17.25,-17.62 -0.74,-1.12 -1.03,-2.23 -1.03,-3.3 0,-1.94 1.08,-3.64 2.46,-4.8 2.02,-1.74 5.83,-3.06 9.79,-1.2l0.19 0.09c9.05,4.32 17.27,10.81 25.77,20.51 6.08,6.93 11.62,14.81 16.36,23.35 0.38,0.71 -0.08,1.2 -0.29,1.37 -0.14,0.14 -0.74,0.58 -1.58,0.23zm234.57 190.25l0 -793.35c0,-4.67 -4.35,-7.16 -8.65,-7.16 -4.3,0 -8.65,2.49 -8.65,7.16l0 557.68c-4.65,1.87 -9.75,3.47 -15.08,4.76 -13.69,3.29 -28.51,4.41 -43.06,3.21 0.2,-0.45 0.4,-0.94 0.59,-1.38 3.76,-9.48 7.96,-22.02 7.63,-35.32 -0.76,-23.48 -12.27,-43.06 -30.8,-52.4 -20.52,-10.32 -47.78,-6.72 -64.73,8.67 -8.1,7.3 -12.94,16.46 -13.59,25.72 -0.88,13.24 8.35,25.08 15.44,32.91 14.32,15.79 36.37,27.58 62.23,33.23 -4.54,10.36 -9.19,20.54 -13.8,30.26 -2.56,5.36 -5.54,11.73 -8.44,18.26l-5.45 -0.57c-27.04,-2.76 -55.66,-6.1 -82.64,-13.44 -4.76,-11.25 -10.25,-21.13 -16.62,-30.1 -9.01,-12.59 -17.89,-21.94 -27.3,-28.65 -11.51,-8.28 -24.62,-13.58 -37.81,-15.35 -0.63,-0.09 -1.14,-0.36 -1.49,-0.76 -0.34,-0.39 -0.44,-0.93 -0.34,-1.42 0.09,-0.45 0.2,-0.9 0.34,-1.33 1.1,-4.01 4.8,-7.92 7.47,-10.55 5.39,-5.19 11.33,-8.58 18.19,-10.35 2.13,-0.55 4.59,-0.77 7.51,-0.63l0.89 0.04c2.5,0.09 3.28,0.13 4.26,1.25 1.43,1.51 2.11,3.59 2.72,5.73 0.79,2.58 2.82,4.46 5.59,5.12 3.06,0.75 6.67,-0.05 8.99,-1.96 2.13,-1.73 2.92,-4.27 2.18,-6.84 -2.72,-9.31 -8.5,-15.44 -16.3,-17.31 -7.03,-1.7 -16.33,-1.02 -24.88,1.78 -13.6,4.49 -25.45,14.14 -31.83,25.85 -1.58,2.97 -2.64,6.66 -3.13,11.02 -0.53,0.04 -1.09,0.09 -1.62,0.18 -7.03,0.8 -12.97,2.76 -18.75,6.1 -8.88,5.16 -20.31,14.05 -24.26,27.4 -1.3,4.4 -2.98,12.81 0.54,19.34 2.92,5.48 9.6,9.49 19.27,11.53 5.45,1.15 9.35,-1.86 10.39,-5.47 1.05,-3.52 -0.7,-7.66 -6.03,-8.77 -2.32,-0.49 -5.54,-1.2 -7.33,-2.75 -1.08,-0.98 -1.02,-2.62 -0.94,-4.41l0 -0.71c0.16,-4.5 1.85,-8.9 5.07,-13.21 2.75,-3.61 6.75,-7.11 11.36,-9.87l0.35 -0.22c2.11,-1.26 4.48,-2.68 6.75,-3.43 1,-0.32 2.1,-0.54 3.43,-0.77 0.54,-0.08 1.1,0 1.53,0.32 0.49,0.26 0.79,0.67 0.89,1.16 0.6,3.2 1.49,6.27 2.62,9.25 4.4,11.21 12.3,21.49 22.84,29.71 16.65,12.99 37.46,23.35 61.84,30.83 1.69,4.5 3.17,8.99 4.5,13.44 5.94,20.37 9.04,41.98 11.71,61.16 -7.96,2.62 -15.95,5.38 -23.71,8.05 -3.08,1.07 -6.09,2.14 -9.16,3.2 -6.97,2.36 -13.79,4.72 -20.76,6.9l-3.51 1.07c-8.94,-29.81 -30.66,-52.9 -59.71,-63.49 -23.44,-8.53 -47.57,3.79 -58.35,19.72 -12.46,18.32 -7.9,41.54 10.72,55.2 17.16,12.55 43.41,17.93 68.62,14.14 8.82,-1.33 17.37,-3.6 25.33,-5.95 1.97,17.43 -1.34,34.96 -9.39,49.5l-0.11 0.18 -655.03 0c-5.52,0 -8.4,3.68 -8.4,7.34 0,3.65 2.88,7.39 8.4,7.39l932.31 0c2.56,0 4.8,-0.86 6.34,-2.41 1.81,-1.33 2.81,-3.25 2.81,-5.43zm-102.24 -232.5c-13.48,-3.93 -25.49,-9.66 -34.74,-16.64 -5.34,-4.06 -9.84,-8.45 -13.44,-13.08 -3.37,-4.32 -7.02,-9.39 -8.32,-14.64 -3.25,-14.06 11.34,-27.09 27.05,-30.48 8.79,-1.86 18.83,-0.29 26.78,4.24 6.64,3.73 12.43,10.41 15.82,18.24 3.47,8.04 5.01,16.81 4.52,26.01 -0.37,6.06 -1.88,12.6 -4.86,20.65 -0.83,2.27 -2.72,4.18 -5.18,5.2 -2.39,1.03 -5.05,1.21 -7.53,0.5l-0.59 1.54 0.49 -1.54zm71.69 72.23c-18.84,-1.11 -42.32,-2.49 -56.66,-3.96 -3.94,-0.4 -7.31,-2.31 -9.34,-5.2 -1.96,-2.89 -2.26,-6.31 -0.83,-9.38l2.61 -5.48c3.11,-6.45 6.29,-13.08 9.26,-19.61 1.43,-3.16 2.8,-6.37 4.3,-9.62 22.28,2.32 44.28,0.14 63.91,-6.22l0 60.27c-4.02,-0.22 -8.5,-0.49 -13.25,-0.8zm-227.95 98.09c2.52,-0.76 5.08,-1.51 7.61,-2.31 7.56,-2.49 15.17,-5.12 22.54,-7.65 3.02,-1.07 5.99,-2.1 8.99,-3.12 3.61,-1.24 7.61,-0.99 11.03,0.76 3.36,1.69 5.59,4.58 6.03,7.91 1.78,12.2 3.4,32.57 4.75,48.93 0.35,3.88 0.64,7.47 0.88,10.77l-71.04 0c1.25,-2.67 2.34,-5.38 3.27,-8 5.03,-14.55 6.48,-30.7 4.24,-46.75l1.7 -0.54zm-112.28 -30.2c-0.44,-1.88 -0.63,-3.7 -0.63,-5.52 0,-5.56 1.93,-10.99 5.87,-16.24 4.61,-6.18 11.78,-10.94 19.18,-12.72 3.9,-0.98 7.67,-1.15 11.23,-0.63 6.08,0.94 12.01,4.01 17.09,6.82 20.13,11.15 30.31,28.6 35.36,41.28 0.84,2.13 0.64,4.44 -0.59,6.44 -1.28,2.14 -3.62,3.74 -6.33,4.45 -1.67,0.4 -3.35,0.85 -5.09,1.2 -12.96,2.94 -23.35,3.69 -33.72,2.45 -11.06,-1.3 -20.56,-4.32 -28.27,-9.03 -7.38,-4.45 -12.37,-11.03 -14.1,-18.5zm181.04 -8.14l-0.93 -6.24c-2.61,-17.79 -5.9,-38.3 -12.11,-58 23.78,5.47 47.64,8.23 75.93,11.12 -1.19,3.07 -2.27,5.95 -3.25,8.76 -4.8,13.62 -7.37,24.79 -8.02,35.02 -1.23,0.04 -2.43,0.12 -3.61,0.21 -14.71,1.12 -30,4.01 -48.01,9.13zm70.06 6.13c1.88,0.31 3.71,0.67 5.48,1.12 0.7,0.17 1.4,0.39 2.08,0.58l1.05 0.31 1.67 0.57 1.23 0.49c0.64,0.27 1.29,0.58 1.94,0.84 1.42,0.68 2.86,1.43 4.2,2.19l1.19 0.76c0.68,0.44 1.33,0.88 1.92,1.37 1.29,0.98 2.53,2 3.66,3.12 0.65,0.62 1.28,1.28 1.93,1.95l1.58 -0.93 -1.44 1.11 0.74 0.85c1.04,1.28 2.08,2.66 3.02,4.14 1.98,3.02 3.66,6.27 5.05,9.91 0.24,0.67 0.09,1.34 -0.49,1.78 -0.21,0.22 -0.9,0.67 -1.88,0.35 -4.56,-1.24 -7.51,-2.35 -11.42,-4.22 -1.75,-0.8 -3.35,-1.69 -4.91,-2.58l-1.22 -0.76 -0.31 -0.23c-0.58,-0.38 -1.17,-0.79 -1.71,-1.23 -1.44,-1.08 -2.83,-2.23 -4.08,-3.43 -0.47,-0.5 -0.97,-0.97 -1.47,-1.51l-0.69 -0.81c-1.83,-2.22 -3.41,-4.66 -4.66,-7.2l-0.33 -0.76 -0.35 -0.79c-0.25,-0.67 -0.54,-1.34 -0.75,-2.06 -0.48,-1.32 -0.89,-2.7 -1.17,-4.13l-0.21 -0.9 0.35 0.1zm-59.68 87.5c-0.29,-3.83 -0.63,-8.14 -1.05,-12.68 -1.17,-15.53 -2.7,-34.82 -4.33,-46.4 -1.64,-11.69 7.26,-22.68 20.66,-25.53l0.23 -0.04c8.81,-1.87 16.37,-2.99 23.1,-3.47 1.04,-0.04 2.12,-0.13 3.2,-0.18 1.69,11.16 6.39,20.69 13.96,28.34 10.14,10.19 26,17.04 47.25,20.38 4.01,0.61 7.82,-0.85 9.64,-3.61 2.23,-1.74 3.23,-4.5 2.67,-7.21 -1.04,-4.62 -2.17,-8.72 -3.65,-12.5 -5.83,-15.34 -16.06,-26.87 -29.56,-33.27 -6.82,-3.21 -14.75,-5.34 -23.58,-6.33 0.24,-3.68 0.78,-7.47 1.62,-11.42 0.7,-3.52 1.59,-7.11 2.62,-10.72 3.36,-11.61 16.41,-19.3 30.47,-17.89 13.93,1.44 36.81,2.81 55.22,3.88 4.88,0.3 9.49,0.57 13.58,0.8l0 137.85 -162.05 0zm-192.35 -141.38l0 -0.07 0 -0.04 0 -0.03c0,-0.79 -0.14,-1.57 -0.43,-2.33 -0.7,-1.88 -2.13,-3.3 -4.01,-4.06 -9.54,-3.78 -19.53,-6.04 -29.62,-6.76 -33.07,-2.35 -67.58,13.79 -85.91,40.17 -1.55,2.27 -1.65,4.8 -0.2,6.94 1.52,2.36 4.75,3.96 7.97,3.96 3.02,0.05 5.62,-1.25 7.26,-3.56 17.21,-24.82 56.41,-42.03 92.25,-27.85 4.45,1.78 9.34,0.58 11.61,-2.8 0.73,-1.05 1.08,-2.32 1.08,-3.57zm-188.65 80.53c18.2,-12.45 30.5,-29.49 42.46,-46l2.72 -3.78c12.75,-17.7 26.02,-36.03 44.55,-49.95 10.37,-7.84 21.34,-13.3 32.57,-16.28 10.82,-2.84 21.75,-4.06 32.49,-3.56 21.49,1.03 39.48,9.91 49.28,24.42 1.58,2.32 4.14,3.65 7.13,3.65 3.19,0 6.42,-1.6 8.04,-3.96 0.7,-1.03 1.03,-2.19 1.03,-3.34 0,-1.21 -0.38,-2.44 -1.17,-3.64 -2.87,-4.24 -6.19,-8.1 -9.9,-11.53 -13.49,-12.54 -34.39,-19.97 -57.29,-20.41 -10.78,-0.18 -22.19,1.15 -32.97,3.86 -12.16,3.07 -23.59,8.23 -35.05,15.84 -20.71,13.7 -35.5,32.69 -47.75,49.38 -2.39,3.24 -4.71,6.49 -7.02,9.78 -9.25,13 -18.8,26.47 -31.39,37.41 -9.6,8.32 -24.93,18.55 -43.36,19.84 -16.02,1.11 -32.09,-3.86 -44.06,-13.65 -10.71,-8.73 -17.59,-20.51 -18.46,-31.54 -1,-12.32 4.59,-22.95 16.09,-30.79 3.81,-2.58 11.48,-6.66 20.18,-5.03 7.16,1.35 12.99,5.74 15.63,11.84 2.6,6.01 1.81,13.53 -2.04,19.17 -3.71,5.39 -10.43,8.64 -18.55,8.85 -3.15,0.09 -5.75,1.47 -7.2,3.79 -1.54,2.44 -1.43,5.6 0.24,7.87 1.48,2.09 4.05,3.16 7.12,3.07 6.32,-0.17 11.96,-1.29 17.21,-3.38 9.05,-3.65 15.96,-10.46 19.47,-19.22 3.86,-9.65 3.08,-20.64 -2.23,-29.31 -5.03,-8.28 -14.09,-14.37 -24.92,-16.64 -10.82,-2.31 -22.24,-0.53 -31.28,4.8 -16.66,9.84 -26.3,24.06 -27.1,40.04 -0.68,14.27 5.64,29.05 17.86,41.64 12.6,12.93 30.94,21.35 50.43,23.08 24.42,2.19 44.64,-7.69 57.24,-16.32zm513.64 -236.7l0 -0.04 0 -0.04 0 -0.02c-0.01,-0.64 -0.16,-1.29 -0.39,-1.9 -5.68,-13.21 -15.77,-24.37 -29.22,-32.25 -12.55,-7.38 -27.83,-11.65 -44.19,-12.31 -8.9,-0.41 -18.04,0.44 -27.18,2.44 -4.94,1.06 -6.53,4.94 -5.56,8.19 1.06,3.37 4.7,6.17 9.8,5.07 30.02,-6.59 68.45,3.9 80.84,32.78 1.57,3.68 5.72,5.64 9.88,4.67 2.13,-0.49 4.05,-1.83 5.15,-3.65 0.56,-0.91 0.86,-1.93 0.87,-2.94zm-374.96 209.69c0.79,13.92 5.82,26.95 14.48,37.63 9.3,11.43 22.4,20.02 37.92,24.82 1.83,0.58 3.91,0.45 5.83,-0.4 2.09,-0.94 3.67,-2.54 4.26,-4.36 0.19,-0.62 0.29,-1.2 0.29,-1.81 0,-2.86 -2.23,-5.48 -5.79,-6.6 -33.96,-10.54 -46.27,-43.28 -38.5,-68.81 1.27,-4.32 -2.02,-7.43 -5.99,-8.32 -3.8,-0.84 -8.36,0.53 -9.63,4.71 -2.38,7.79 -3.33,15.58 -2.87,23.14zm-160.23 65.48c0.29,-0.8 0.45,-1.61 0.45,-2.4 0,-1.3 -0.4,-2.58 -1.09,-3.66 -2.27,-3.38 -7.16,-4.58 -11.67,-2.8 -35.79,14.2 -75,-3.03 -92.23,-27.85 -1.59,-2.3 -4.23,-3.59 -7.23,-3.55 -3.23,0 -6.42,1.6 -8.01,3.96 -1.39,2.14 -1.35,4.66 0.26,6.93 5.17,7.52 11.5,14.11 18.66,19.67 13.27,10.19 28.88,16.9 45.2,19.44 17.5,2.76 35.35,0.76 51.61,-5.7 1.92,-0.76 3.35,-2.17 4.05,-4.04zm551.2 -492.43l0 -0.2c0,-4.25 -0.49,-8.58 -1.37,-12.84 -3.01,-13.87 -10.92,-27.17 -22.89,-38.47 -6.54,-6.09 -14.29,-11.43 -23.12,-15.88 -4.72,-2.35 -9.31,-0.45 -11.49,2.62 -2.22,3.2 -1.92,7.7 2.86,10.15 29.18,14.63 49.4,47.99 32.74,78.47 -2.08,3.81 -0.69,8.01 3.31,9.91 2.03,1.02 4.7,1.2 7.11,0.54 2.2,-0.58 3.87,-1.79 4.75,-3.43 5.4,-9.78 8.1,-20.29 8.1,-30.87zm-108.3 117.84l0 -0.07c-0.02,-1.4 -0.51,-2.8 -1.35,-4.03 -2.11,-3.07 -6.77,-4.98 -11.47,-2.62 -8.85,4.44 -16.61,9.78 -23.13,15.88 -11.95,11.29 -19.87,24.6 -22.84,38.48 -3.23,14.85 -0.89,30.07 6.67,43.94 0.89,1.61 2.58,2.81 4.75,3.39 2.42,0.66 5.09,0.49 7.11,-0.54 4.01,-1.92 5.44,-6.09 3.31,-9.92 -16.65,-30.43 3.57,-63.83 32.73,-78.47 2.98,-1.51 4.22,-3.78 4.22,-6.04zm-106.03 77.57c4.1,18.6 17.14,34.52 35.88,43.69 2.67,1.33 5.68,1.37 8.21,0.13 2.78,-1.38 4.59,-4.1 4.59,-6.86 0,-2.53 -1.53,-4.71 -4.24,-6.04 -4.71,-2.31 -8.67,-4.85 -12.13,-7.87 -12.75,-11 -18.63,-28.12 -16.1,-47.03 1.38,-10.58 5.38,-20.76 11.58,-29.44 6.12,-8.59 14.31,-16.64 25,-24.51 13.94,-10.27 30.06,-18.64 45.64,-26.74 6.66,-3.46 13.57,-7.07 20.25,-10.8 15.33,-8.5 34.46,-20.55 46.47,-38.12 7.02,-10.24 10.63,-21.72 10.63,-32.83 0,-6.55 -1.23,-12.99 -3.8,-19 -6.38,-15.03 -18.79,-27.71 -34.96,-35.72 -16.05,-7.96 -34.5,-10.45 -50.58,-6.76 -8.74,1.95 -17.03,5.87 -24.02,11.3 -8.8,6.85 -14.57,14.85 -16.27,22.59 -2.01,9.17 0.37,18.47 6.59,25.53 7.01,7.97 17.7,12.86 30.06,13.67 10.98,0.75 22.1,-2.1 30.5,-7.88 8.55,-5.87 13.49,-14.81 13.94,-25.31 0.14,-2.62 -1.18,-4.76 -3.6,-6.1 -2.67,-1.37 -6.4,-1.46 -9.26,-0.17 -2.73,1.2 -4.3,3.47 -4.45,6.18 -0.14,3.7 -1.13,6.81 -3.01,9.56 -3.55,5.12 -10.09,8.41 -18.05,9.04 -8.39,0.66 -16.41,-1.88 -21.4,-6.77 -4.35,-4.22 -5.88,-10.44 -4,-16.27 1.68,-5.21 6.76,-10.95 13.58,-15.4 10.2,-6.67 23.95,-8.63 37.73,-5.38 13.45,3.16 26.21,11.12 34.12,21.27 9.49,12.18 12,26.95 6.91,40.52 -4.5,12.1 -14.68,23.39 -31.15,34.56 -11.42,7.79 -24.27,14.36 -36.68,20.73 -8.01,4.09 -16.27,8.32 -24.13,12.86 -25.56,14.72 -42.51,29.35 -53.34,45.95 -10.81,16.59 -14.73,38.07 -10.51,57.42zm-226.08 26.21c14.44,-30.97 7.02,-63.3 -1.79,-84.97 -1.13,-2.85 -0.34,-5.74 2.09,-7.78 2.43,-2.1 5.82,-2.76 9.15,-1.78 25.45,7.47 63.48,13.78 99.86,1.5 3.05,-1.01 6.37,-0.48 8.85,1.44 1.97,1.6 3.66,4.44 2.41,7.82 -2.13,5.83 -3.96,11.66 -5.4,17.31l-1.67 6.35 0.6 0c-0.46,0.76 -0.8,1.61 -0.95,2.5 -3.94,19.75 -3.51,37.71 1.45,53.33 0.87,2.94 4.14,4.76 7.6,4.36 1.29,5.82 3.42,11.3 6.33,16.28 -5.83,-2.44 -12.25,-4.27 -19.13,-5.38 0.44,-2.99 -1.69,-5.74 -5.08,-6.49 -18.4,-4.19 -39.51,-4.58 -62.75,-1.25 -0.98,0.17 -1.97,0.45 -2.92,0.84l0 -0.48 -7.42 1.38c-6.67,1.24 -13.52,2.8 -20.36,4.62 -3.96,1.02 -7.31,-0.4 -9.2,-2.09 -2.26,-2.09 -2.91,-4.89 -1.67,-7.51zm150.08 24.33c-23.57,-20.06 -18.72,-50.98 -10.57,-73.4 2.28,-6.14 0.2,-12.72 -5.34,-17.08 -1.7,-1.34 -3.61,-2.4 -5.69,-3.12 1.1,-3.78 2.39,-7.6 3.76,-11.39 2.44,-6.67 0.2,-13.78 -5.82,-18.54 -5.9,-4.63 -14.2,-5.96 -21.62,-3.48 -32.93,11.13 -67.88,5.25 -91.42,-1.63 -7.65,-2.28 -16,-0.68 -21.7,4.22 -5.73,4.84 -7.66,11.92 -4.99,18.5 8.12,20.02 15.03,49.73 1.97,77.76 -2.97,6.32 -1.38,13.39 4.07,18.42 5.58,5.11 13.93,6.98 21.79,4.94 4.44,-1.22 8.95,-2.28 13.35,-3.21 0.89,1.77 2.13,3.38 3.65,4.84 5.2,4.72 12.85,6.46 20.13,4.54 26.31,-6.98 62.63,-11.07 86.21,8.99l4.3 3.68 12.21 -10.39 -4.3 -3.65 0.01 0zm391.89 344.87l0 -4499.03 -7514.48 0 0 4499.03 7514.48 0zm42.74 36.74l0 -4572.47 -7600 0 0 4572.47 7600 0zm-6371 -98.03l5134.77 0c4.59,0 8.36,-3.34 8.36,-7.48 0,-4.09 -3.77,-7.43 -8.36,-7.43l-5134.77 0c-4.64,0 -8.4,3.34 -8.4,7.43 0,4.14 3.76,7.48 8.4,7.48zm6239.91 -3429.9l0 2483.34c0,2.27 3.91,4.09 8.74,4.09 4.85,0 8.75,-1.82 8.75,-4.09l0 -2483.34c0,-2.27 -3.9,-4.05 -8.75,-4.05 -4.83,0 -8.74,1.78 -8.74,4.05zm-7337.8 2483.33l0 -2483.34c0,-2.27 -3.91,-4.05 -8.74,-4.05 -4.83,0 -8.75,1.78 -8.75,4.05l0 2483.34c0,2.27 3.92,4.09 8.75,4.09 4.83,0 8.74,-1.82 8.74,-4.09z"/>
 </g>
</svg>
