<?xml version="1.0" encoding="utf-8"?>
<!-- Generator: Adobe Illustrator 24.0.2, SVG Export Plug-In . SVG Version: 6.00 Build 0)  -->
<svg version="1.1"
	 id="Слой_1" shape-rendering="geometricPrecision" image-rendering="optimizeQuality" text-rendering="geometricPrecision" xmlns:xodm="http://www.corel.com/coreldraw/odm/2003"
	 xmlns="http://www.w3.org/2000/svg" xmlns:xlink="http://www.w3.org/1999/xlink" x="0px" y="0px" viewBox="0 0 238.1 150.2"
	 style="enable-background:new 0 0 238.1 150.2;" xml:space="preserve">
<style type="text/css">
	.st0{fill-rule:evenodd;clip-rule:evenodd;}
</style>
<g id="Layer_x0020_1">
	<path class="st0" d="M58.1,75.4c0-0.2-0.1-0.4-0.1-0.6c-1.6,0-3.2,0-4.8,0c0,0.3,0,0.5,0,0.7c1.2,0.1,2.5,0,3.8,0.1
		C57.3,75.5,57.7,75.7,58.1,75.4z M61.6,74.1c-0.1-0.2-0.1-0.4-0.2-0.7c-0.8-2.8-3.8-4.5-6.8-3.8c-3.3,0.7-4.8,3.9-4.3,6.3
		c0.5,2.4,2.7,4.3,5.2,4.4c2.7,0.1,5-1.4,5.8-3.8C61.6,75.8,61.6,75.1,61.6,74.1z M51.3,79.3c-1.3-1.3-1.9-2.8-1.9-4.5
		c0-3.3,2.9-6,6.3-6.1c3.1-0.1,5.7,1.9,6.5,4.5c0.8,2.5-0.2,5.2-2.4,6.8c-2.3,1.6-5.3,1.6-7.6,0.1C51.9,79.8,51.6,79.6,51.3,79.3z
		 M90.4,78.6c0.1,0.1,0.1,0.2,0.3,0.3c0.3,0.2,0.6,0.2,0.8,0c0.2-0.2,0.3-0.6,0.1-0.9c-0.1-0.2-0.3-0.4-0.5-0.4
		c-0.3,0-0.6,0.1-0.7,0.4C90.3,78.2,90.4,78.3,90.4,78.6z M92.4,78.9c-0.3,0.8-0.9,1-1.6,0.9c-0.7-0.1-1.1-0.5-1.3-1.2
		c-0.2-0.6,0.1-1.2,0.7-1.6c0.6-0.3,1.4-0.3,1.8,0.1c0.1,0.1,0.2,0.3,0.3,0.5C92.5,78,92.6,78.4,92.4,78.9z M90.9,71.2
		c-0.3,0.1-0.5,0.3-0.5,0.6c0,0.2,0.1,0.4,0.3,0.6c0.2,0.1,0.4,0.2,0.7,0.1c0.3-0.2,0.5-0.5,0.4-0.9C91.6,71.2,91.3,71.1,90.9,71.2z
		 M91.6,70.5c0.5,0.2,0.8,0.5,0.8,1c0.1,0.5-0.1,1-0.4,1.5c-0.2,0.3-0.5,0.4-0.9,0.5c-0.8,0.1-1.6-0.4-1.8-1.1
		c-0.2-0.6,0.2-1.4,0.9-1.7C90.8,70.3,91.2,70.3,91.6,70.5z M92.1,83.4c-0.1-0.1-0.2-0.2-0.3-0.2C91.5,83,91.2,83,91,83.2
		c-0.2,0.2-0.3,0.5-0.1,0.9c0,0.1,0.1,0.2,0.2,0.2c0.2,0.3,0.5,0.3,0.8,0.2c0.3-0.1,0.5-0.4,0.4-0.8C92.3,83.7,92.2,83.6,92.1,83.4
		L92.1,83.4z M90.5,82.6c1.2-0.5,2.1-0.2,2.6,0.8c0.3,0.7,0.2,1.3-0.4,1.7c-0.6,0.5-1.4,0.5-2,0.1c-0.7-0.5-0.9-1.5-0.5-2.2
		C90.3,82.8,90.4,82.7,90.5,82.6z M91.5,65.6c-0.4,0.1-0.6,0.4-0.7,0.7c-0.1,0.3,0,0.5,0.2,0.7c0.2,0.2,0.5,0.2,0.7,0
		c0.3-0.2,0.6-0.5,0.6-0.8C92.3,65.8,92,65.6,91.5,65.6z M91.8,64.7c0.2,0.1,0.4,0.1,0.5,0.2c0.7,0.4,1,1,0.9,1.6
		c-0.2,0.8-0.9,1.4-1.7,1.5c-0.8,0.1-1.5-0.5-1.6-1.2C89.8,65.7,90.4,64.9,91.8,64.7z M110.9,46.7c0.2-0.1,0.4-0.1,0.6-0.2
		c0.2-0.1,0.3-0.3,0.3-0.4c-0.1-0.2-0.2-0.2-0.4-0.2c-0.2,0-0.5,0.1-0.7,0.1c-3.7,1.1-7.4,2.3-11.1,3.4c-0.2,0.1-0.4,0.2-0.7,0.3
		c-0.2,0.1-0.3,0.3-0.2,0.5c0.1,0.2,0.3,0.3,0.5,0.2c0.3-0.1,0.6-0.2,1-0.3c2.7-0.8,5.4-1.7,8.2-2.6
		C109.2,47.2,110.1,46.9,110.9,46.7z M105.4,102.7c1.8,0.5,3.6,1.1,5.3,1.6c0.3,0.1,0.5,0.1,0.8,0.1c0.1,0,0.2-0.1,0.3-0.2
		c0-0.1,0-0.2-0.1-0.3c-0.2-0.1-0.3-0.2-0.5-0.3c-3.9-1.2-7.7-2.4-11.6-3.6c-0.2-0.1-0.4-0.1-0.6-0.1c-0.1,0-0.3,0.1-0.3,0.2
		c0,0.1,0,0.3,0.1,0.4c0.1,0.1,0.2,0.2,0.3,0.2c0.3,0.1,0.7,0.3,1.1,0.4C102,101.6,103.7,102.1,105.4,102.7z M225.9,45
		C225.9,45,225.8,45,225.9,45c-0.1-0.1-0.1-0.1-0.1-0.1c0,0.1-0.1,0.2-0.1,0.3c-0.1,0.5-0.5,0.7-1,0.7c-0.1,0-0.3,0-0.4,0
		c-1.8,0-3.6,0-5.4,0c-0.2,0-0.5,0-0.7,0c-0.4,0-0.7-0.2-0.8-0.6c0-0.1,0-0.3-0.3-0.3c0,1,0,1.9,0,2.9c0,0,0.1,0.1,0.1,0.1
		c0,0,0.1-0.1,0.1-0.1c0.1-0.6,0.5-0.7,1-0.7c0.1,0,0.2,0,0.3,0c1.9,0,3.8,0,5.7,0c1.1,0,1.1,0.1,1.6,1.1c0.1-0.6,0-1.2,0-1.8
		C225.9,45.9,225.9,45.5,225.9,45L225.9,45z M217.9,41.1c0.1,0,0.3,0,0.4,0c2,0,3.9,0,5.9,0c1.1,0,1.1,0.1,1.6,1c0-0.2,0-0.4,0-0.5
		c0-0.9,0-1.8,0-2.9c-0.2,0.3-0.2,0.3-0.2,0.4c-0.1,0.5-0.4,0.8-1,0.8c-0.1,0-0.2,0-0.3,0c-2.1,0-4.1,0-6.2,0
		c-0.2,0-0.4-0.1-0.6-0.1c0-0.4,0-0.8,0-1.2c0-0.6,0.3-1,0.9-1.3c0.1-0.1,0.3,0,0.4-0.3c-0.6,0.1-1.2-0.1-1.8,0.2c0,0.8,0,1.5,0,2.2
		c0,0.8,0,1.5,0,2.3c0,0.7-0.1,1.5,0.1,2.3c0.5,0,1,0,1.4,0c0.1,0,0.2,0,0.2-0.1c0-0.1,0-0.1,0-0.1c-1-0.3-1.3-0.9-1.2-1.9
		c0-0.1,0-0.1,0-0.3C217.6,41.3,217.6,41.1,217.9,41.1z M217,112.4c0,0.2-0.1,0.5,0.2,0.8c0.2,0,0.4,0.1,0.6,0.1c0.2,0,0.4,0,0.6,0
		c0.2,0,0.4,0.1,0.6-0.2c-0.2-0.1-0.4-0.2-0.6-0.3c-0.3-0.2-0.6-0.4-0.7-0.8c-0.1-0.5-0.1-1.1,0-1.6c0.1,0,0.2-0.1,0.3-0.1
		c2.2,0,4.5,0,6.7,0c0.6,0,1,0.2,1.1,0.8c0,0.1,0.1,0.1,0.2,0.2c0-1.1,0-2.1,0-3.1c0,0,0-0.1,0-0.1c0,0-0.1,0-0.1,0
		c0,0-0.1,0.1-0.1,0.1c-0.1,0.5-0.4,0.8-1,0.8c-0.1,0-0.3,0-0.4,0c-2,0-4.1,0-6.1,0c-0.2,0-0.4-0.1-0.6-0.1c0-0.4,0-0.7,0-1.1
		c0-0.7,0.3-1.2,1.1-1.5c0.1,0,0.3,0,0.2-0.3c-0.3,0-0.6,0-0.9,0c-0.3,0-0.6-0.1-0.9,0.2c0,0.5,0,1,0,1.6
		C217,109.6,217,111,217,112.4L217,112.4z M223.6,68.9c0.4,0.3,0.6,0.4,0.9,0.6c0.6,0.4,0.9,0.9,1,1.6c0,0.6,0,1.2,0,1.8
		c0,0.5-0.2,0.7-0.8,0.7c-0.8,0-1.7,0-2.5,0c-0.2,0-0.4-0.1-0.6-0.1c0-0.7,0-1.4,0-2.1c0-0.4,0.2-0.8,0.7-0.9c0.1,0,0.4,0,0.3-0.3
		c-0.9,0-1.7,0-2.6,0c0.1,0.3,0.3,0.3,0.5,0.4c0.3,0.1,0.5,0.4,0.5,0.7c0.1,0.4,0,1.8-0.1,2.3c-1,0.2-2.6,0.1-3.4-0.1
		c0-0.8,0-1.6,0-2.5c0-0.6,0.3-1,0.9-1.2c0.1,0,0.3-0.1,0.3-0.3c-0.6,0-1.1-0.1-1.6,0.1c-0.1,1-0.1,5.5,0.1,6.3
		c0.1-0.2,0.1-0.4,0.2-0.5c0.1-0.3,0.3-0.5,0.7-0.5c0.2,0,0.3,0,0.5,0c2,0,4,0,6,0c0.7,0,1.1,0.2,1.2,0.9c0,0,0.1,0.1,0.2,0.1
		c0-0.4,0-0.7,0-1.1c0-1.5,0-3.1,0-4.6c0-0.2,0.1-0.5-0.3-0.7C224.9,69.3,224.4,69,223.6,68.9L223.6,68.9z M225.9,89.9
		c-0.6-0.2-1.2-0.4-1.8-0.6c-0.1,0-0.2,0-0.4,0c0.2,0.3,0.5,0.4,0.8,0.6c0.4,0.3,0.8,0.7,0.8,1.2c0,0.8,0,1.6,0,2.4
		c0,0.1-0.1,0.2-0.2,0.3c-0.9,0.2-2.8,0.2-3.7,0c-0.1-0.6-0.1-1.3,0-1.9c0-0.6,0.3-1,0.9-1.1c0.1,0,0.1-0.1,0.3-0.2
		c-1-0.1-1.8-0.1-2.8,0c0.2,0.1,0.2,0.2,0.3,0.2c0.6,0.2,0.8,0.6,0.8,1.2c0,0.5,0,0.9,0,1.4c0,0.2-0.1,0.4-0.1,0.6c-1,0-1.9,0-2.8,0
		c-0.2,0-0.4-0.1-0.6-0.1c0-0.9,0-1.7,0-2.6c0-0.5,0.2-0.9,0.8-1.1c0.2-0.1,0.4,0,0.4-0.3c-0.6,0-1.1-0.1-1.7,0.1
		c-0.1,0.9-0.1,5.3,0,6.1c0.1,0,0.1,0,0.2-0.1c0.1-0.6,0.5-0.7,1-0.7c0.2,0,0.5,0,0.7,0c1.7,0,3.4,0,5.1,0c0.3,0,0.5,0,0.8,0
		c0.4,0,0.6,0.2,0.8,0.5c0.1,0.1-0.1,0.4,0.3,0.4c0-0.1,0-0.3,0-0.5C225.9,93.7,225.9,91.8,225.9,89.9z M217,85
		C217,85,217,85.1,217,85c0.1,0.1,0.1,0.1,0.1,0.1c0,0,0.1-0.1,0.1-0.1c0.1-0.6,0.5-0.8,1.1-0.8c2.1,0,4.1,0,6.2,0
		c0.8,0,0.9,0.1,1.2,0.9c0,0,0.1,0,0.1,0.1c0.1-1.6,0.1-2.5-0.1-3.2c0,0-0.1,0.1-0.1,0.1c-0.1,0.6-0.5,0.9-1.1,0.9c-0.7,0-1.4,0-2,0
		c-0.3,0-0.5,0-0.8-0.1c-0.1-0.9-0.1-3,0-3.8c0.2,0,0.4-0.1,0.6-0.1c0.6,0,1.2,0,1.8,0c1.1,0,1.2,0,1.7,1c0.1-1.1,0.1-2.1,0-3.2
		c-0.1,0.1-0.2,0.1-0.2,0.2c-0.3,0.8-0.4,0.8-1.2,0.9c-0.1,0-0.2,0-0.3,0c-1.8,0-3.6,0-5.4,0c-0.2,0-0.5,0-0.7,0
		c-0.4,0-0.6-0.2-0.7-0.6c0-0.1,0-0.3-0.2-0.3c-0.2,1.3-0.1,2.6,0.1,3.1c0.1-0.2,0.1-0.3,0.1-0.4c0.1-0.4,0.4-0.5,0.7-0.6
		c1,0,1.9-0.1,2.9,0c0.2,0.4,0.1,0.8,0.1,1.3c0,0.5,0,0.9,0,1.4c0,0.4,0.1,0.8-0.2,1.3c-0.8,0-1.6,0-2.4,0c-0.7,0-1.2-0.2-1.4-0.9
		c0,0-0.1,0-0.1,0c0,0-0.1,0-0.1,0c0,0.4,0,0.7,0,1.1C217,83.9,217,84.5,217,85L217,85z M217.3,105.6c0-1.1,0.7-1.1,1.3-1.1
		c0.7,0,1.4,0,2.1,0c1.3,0,2.5,0,3.8,0c0.9,0,0.9,0.1,1.2,0.9c0,0,0.1,0.1,0.1,0.1c0.1-1.3,0.1-2.5-0.1-3.2c0,0.1-0.1,0.2-0.1,0.3
		c-0.1,0.5-0.5,0.7-1,0.7c-0.6,0-1.3,0-1.9,0c-0.3,0-0.7,0-1,0c-0.2-1-0.1-3.1,0-3.8c0.9,0,1.7,0,2.6,0c0.8,0,1.2,0.2,1.4,1
		c0,0,0.1,0,0.2,0c0-0.9,0-1.9,0-2.8c0-0.1,0-0.2-0.1-0.5c-0.1,0.2-0.2,0.3-0.2,0.4c-0.1,0.5-0.5,0.7-1,0.7c-0.2,0-0.3,0-0.5,0
		c-1.8,0-3.5,0-5.3,0c-0.2,0-0.5,0-0.7,0c-0.4,0-0.7-0.2-0.8-0.6c0-0.1,0-0.3-0.3-0.2c0,1,0,1.9,0,2.9c0,0,0.1,0.1,0.1,0.1
		c0,0,0.1-0.1,0.1-0.1c0.1-0.6,0.6-0.8,1.2-0.8c0.7,0,1.4,0,2,0c0.2,0,0.4,0,0.6,0.1c0.2,1,0.2,3.1,0,3.8c-1,0-2,0-3,0
		c-0.3,0-0.5-0.2-0.6-0.4c-0.1-0.2,0-0.4-0.3-0.5c0,0-0.1,0-0.1,0c0,0.7,0,1.4,0,2.1C217,104.8,216.9,105.1,217.3,105.6L217.3,105.6
		z M220.1,63.3c-0.3,0-0.6-0.1-0.9-0.1c-0.9,0.1-1.5,0.7-1.6,1.5c0,0.4-0.1,0.8,0.1,1.2c0.9,0.2,2.8,0.2,3.5,0
		C221.5,64.7,221.2,64,220.1,63.3L220.1,63.3z M217,66.4c0-1,0.1-1.8,0.1-2.7c0-0.4,0.2-0.8,0.5-1.1c0.9-1.1,2.6-1.1,3.5,0.1
		c0.2,0.3,0.3,0.6,0.5,1c0.1-0.1,0.3-0.1,0.4-0.2c0.9-0.6,1.7-1.2,2.5-1.8c0.6-0.4,1-0.9,1.1-1.6c0-0.3,0-0.6,0-0.9
		c-0.1-0.4-0.3-0.6-0.8-0.6c-0.2,0-0.5,0-0.7,0c-1.8,0-3.5,0-5.3,0c-0.2,0-0.3,0-0.5,0c-0.5,0-0.9,0.2-1,0.7c0,0.1-0.1,0.1-0.1,0.2
		c-0.1-0.1-0.1-0.1-0.1-0.1c0-0.6,0-1.3,0-2c0.2-0.1,0.5-0.3,0.7-0.4c1.8-0.8,3.6-1.6,5.3-2.4c0.2-0.1,0.5-0.2,0.8-0.4
		c-2.3-1.1-4.6-2-6.8-3c0-0.4,0-0.7,0-1.1c0-0.3,0-0.7,0-1.2c0.1,0.2,0.2,0.2,0.2,0.3c0.1,0.6,0.5,0.7,1,0.7c1.1,0,2.2,0,3.2,0
		c0.9,0,1.9,0,2.8,0c1,0,1.1-0.1,1.4-0.9c0,0,0.1,0,0.1,0c0,0,0,0.1,0,0.1c0,1,0,2,0,3c-0.1,0-0.2,0-0.2,0c-0.1-0.7-0.5-0.9-1.2-0.9
		c-1.8,0-3.7,0-5.5,0c-0.1,0.3,0.1,0.3,0.2,0.4c1.9,0.8,3.8,1.7,5.7,2.5c0.3,0.1,0.6,0.3,1,0.5c-0.8,0.6-1.6,0.8-2.3,1.1
		c-0.8,0.4-1.6,0.7-2.4,1.1c-0.8,0.3-1.5,0.6-2.2,1c0,0.2,0.2,0.2,0.3,0.2c1.7,0,3.4,0,5.1,0c0.1,0,0.2,0,0.3,0c0.6,0,0.9-0.2,1-0.8
		c0-0.1,0-0.1,0.1-0.2c0.2,0.5,0.3,3.1,0.1,5.1c-0.5,0.3-1,0.7-1.5,1c-0.7,0.5-1.4,0.9-2.1,1.4c-0.5,0.4-0.5,0.4-0.4,1.2
		c0.2,0,0.4,0.1,0.7,0.1c0.7,0,1.4,0,2,0c0.8,0,0.9-0.1,1.1-0.9c0-0.1,0.1-0.1,0.2-0.2c0.1,0.4,0.1,0.7,0.1,1c0,0.4,0,0.8,0,1.2
		c0,0.3,0,0.7,0,1.1c-0.1,0-0.2,0-0.2,0c-0.3-1.1-0.6-0.9-1.5-1c-1.9,0-3.8,0-5.7,0c-0.1,0-0.3,0-0.4,0c-0.5,0-0.8,0.2-0.9,0.7
		c0,0.1-0.1,0.1-0.1,0.2c-0.1,0-0.1,0-0.1-0.1C217,67.5,217,67,217,66.4z M172.8,97.5c0.2-0.2,0.4-0.4,0.6-0.6
		c-0.9-0.4-1.7-0.7-2.5-1c-0.3,0.2-0.3,0.5-0.2,0.8c0.3,0.1,0.6,0.3,1,0.4C172,97.2,172.4,97.4,172.8,97.5L172.8,97.5z M119.5,111.9
		c0-0.1-0.1-0.2-0.2-0.3c-0.1-0.1-0.2,0-0.4,0c-0.1,1.2-0.1,2.3,0,3.4c0,0.1,0.1,0.1,0.1,0.2c0.5,0,0.5,0,0.5-0.4c0-0.5,0-1.1,0-1.7
		C119.5,112.6,119.5,112.3,119.5,111.9z M170.5,53.7c0.1,0.2,0.2,0.4,0.2,0.5c0,0,0.1,0,0.1,0c1.2-0.3,2.4-0.8,2.4-1.1
		c-0.2-0.1-0.3-0.3-0.5-0.5c-0.2,0.1-0.4,0.2-0.7,0.2C171.5,53.2,171,53.3,170.5,53.7z M118.6,38.4c0,0.1,0.1,0.2,0.2,0.3
		c0.2-0.1,0.5-0.1,0.7-0.2c0-1.1,0.1-2.3,0-3.4c-0.3-0.1-0.6-0.1-0.9,0.1c0,0.6,0,1.2,0,2C118.6,37.6,118.6,38,118.6,38.4z
		 M155.6,51.8c-0.8,0.5-1.6,1-2.4,1.5c-0.1,0-0.1,0.2-0.2,0.3c0.2,0.2,0.3,0.3,0.5,0.5c1-0.6,2-1.2,2.9-1.8c0.1,0,0.1-0.2,0-0.3
		C156.2,51.7,156,51.6,155.6,51.8z M79.6,59.3c0.1-0.2,0.2-0.4,0.4-0.7c-1.1-0.5-2.1-0.9-3.1-1.3c0,0-0.1,0-0.2,0
		c-0.1,0.2-0.1,0.4-0.2,0.6c0.4,0.2,0.7,0.3,1.1,0.5C78.2,58.8,78.9,59.2,79.6,59.3z M76.7,92.8c0.9-0.2,2.6-0.9,3.3-1.4
		c-0.1-0.2-0.2-0.4-0.4-0.6c-1,0.4-2,0.8-3,1.3c-0.1,0-0.1,0.1-0.1,0.2C76.5,92.5,76.6,92.6,76.7,92.8z M153.5,96.2
		c-0.2,0.2-0.3,0.4-0.5,0.5c0.6,0.6,2.2,1.5,3,1.9c0.1-0.2,0.5-0.2,0.5-0.6c-0.7-0.4-1.3-0.8-2.1-1.3
		C154.1,96.5,153.9,96.3,153.5,96.2z M102.6,110.7c0.2,0.1,0.4,0.3,0.6,0.4c0.5-0.8,1.5-2.9,1.6-3.6c-0.6-0.3-0.6-0.3-0.9,0.3
		C103.5,108.8,103,109.7,102.6,110.7L102.6,110.7z M103.1,39.1c-0.1,0.1-0.3,0.2-0.5,0.3c0.4,1.1,1.2,3,1.7,3.5
		c0.2-0.1,0.3-0.1,0.6-0.3C104.4,41.2,103.4,39.2,103.1,39.1z M87.5,104.9c0,0,0,0.1,0,0.2c0.2,0.1,0.4,0.2,0.6,0.3
		c0.2-0.2,0.3-0.3,0.5-0.4c0.8-0.8,1.7-1.6,2.5-2.4c0,0,0-0.1,0-0.2c-0.2-0.1-0.4-0.2-0.6-0.3c-0.3,0.2-0.5,0.5-0.8,0.7
		C88.9,103.5,88.2,104.2,87.5,104.9z M143.5,40.1c0,0,0-0.1,0-0.2c-0.2-0.1-0.4-0.2-0.6-0.2c-1,1.3-2.6,3.6-2.6,4
		c0.2,0.1,0.3,0.2,0.6,0.3c0.5-0.7,1-1.4,1.5-2.2C142.8,41.2,143.1,40.7,143.5,40.1z M142.8,110.5c0.3-0.1,0.6-0.1,0.7-0.4
		c-0.9-1.3-1.7-2.6-2.6-3.9c-0.3,0.1-0.7,0.1-0.6,0.6C141.2,108.1,142,109.3,142.8,110.5z M197.6,88.3c-0.1,0.3-0.1,0.5-0.2,0.7
		c0.4,0.1,0.6,0.2,0.9,0.2c0.9,0.2,1.9,0.3,2.8,0.5c0.7,0.1,1.4,0.2,2.1,0.3c0.1,0,0.2,0,0.3-0.1c0-0.2,0-0.4,0-0.7
		c-0.7-0.1-1.4-0.3-2.2-0.4C200,88.7,198.9,88.4,197.6,88.3z M200.7,60.6c-1,0.2-2.1,0.4-3.1,0.6c-0.1,0-0.1,0.1-0.3,0.2
		c0.1,0.2,0.2,0.4,0.3,0.6c2-0.3,3.9-0.6,5.8-1c0-0.3,0-0.5,0-0.7c-0.3,0-0.6,0-0.9,0.1C201.9,60.4,201.3,60.5,200.7,60.6
		L200.7,60.6z M188.2,62.7c-0.9,0.1-1.7,0.3-2.6,0.5c-0.1,0-0.1,0.1-0.3,0.2c0.1,0.2,0.2,0.4,0.3,0.6c2-0.3,4-0.6,5.9-1
		c0.1-0.3,0.2-0.5,0-0.8c-0.8,0.1-1.6,0.3-2.4,0.4C188.8,62.6,188.5,62.7,188.2,62.7z M191.7,88c0-0.2,0-0.3,0-0.4
		c0-0.1-0.1-0.2-0.1-0.3c-1.7-0.4-5.3-1-6-1c-0.1,0.2-0.2,0.4-0.3,0.6c0.8,0.3,1.5,0.3,2.3,0.5C189,87.6,190.4,87.9,191.7,88z
		 M37.5,75.6c1.9,0,3.8,0,5.8,0c0.1,0,0.3,0,0.4-0.1c0-0.2,0-0.4,0-0.6c-0.1,0-0.2-0.1-0.2-0.1c-2,0-4,0-6.1,0c0,0-0.1,0-0.1,0
		c-0.3,0-0.4,0.2-0.4,0.6C37.1,75.5,37.3,75.6,37.5,75.6z M76.9,13.8c0.2-0.2,0.4-0.3,0.6-0.5c-1.1-1.6-2.2-3.3-3.3-4.9
		c-0.3,0-0.6,0-1,0c1.1,1.7,2.1,3.2,3.2,4.8C76.7,13.4,76.8,13.6,76.9,13.8z M77.5,136.9c-0.2-0.2-0.4-0.3-0.6-0.5
		c-0.1,0.1-0.2,0.2-0.3,0.3c-1.1,1.6-2.1,3.2-3.2,4.8c0,0,0,0.1,0,0.2c0.5,0.2,0.8,0.1,1.1-0.3c0.5-0.8,1.1-1.7,1.7-2.6
		C76.7,138.2,77.2,137.6,77.5,136.9L77.5,136.9z M90,48.3c0.2-0.1,0.4-0.2,0.6-0.2c0.2-0.1,0.4-0.1,0.4-0.3
		c-0.8-0.9-2.5-2.5-3.1-2.9c-0.3,0.2-0.6,0.3-0.8,0.7c0.4,0.4,0.7,0.7,1.1,1.1C88.9,47.2,89.5,47.7,90,48.3z M173.4,84.2
		c0,0.2-0.1,0.4-0.1,0.7c0.2,0,0.3,0.1,0.4,0.1c1.2,0.2,2.3,0.4,3.5,0.6c0.9,0.1,1.7,0.3,2.6,0.4c0.1,0,0.2,0,0.3-0.1
		c0-0.2,0.1-0.4,0.1-0.6c-0.1-0.1-0.1-0.1-0.1-0.1c-1.2-0.2-2.4-0.4-3.8-0.7C175.3,84.5,174.4,84.2,173.4,84.2z M180.3,64.8
		c0-0.1,0-0.2-0.1-0.3c0-0.1-0.1-0.2-0.2-0.3c-1.6,0.1-6.5,1-6.7,1.2c0,0.2,0.1,0.4,0.1,0.6c1.8-0.3,3.6-0.6,5.4-0.9
		C179.4,65,179.9,65.1,180.3,64.8L180.3,64.8z M62.3,85.4c0.1,0,0.3-0.1,0.4-0.2c-0.2-0.5-0.6-0.6-1.1-0.5c-2,0.3-3.9,0.7-5.9,1
		c-0.1,0-0.2,0.1-0.4,0.2c0.1,0.2,0.1,0.4,0.2,0.7c1.5-0.2,2.9-0.5,4.4-0.7C60.8,85.6,61.6,85.5,62.3,85.4z M61.8,65.6
		c0.5,0.1,0.6,0,0.9-0.7c-2.4-0.4-4.8-0.8-7.2-1.2c0,0.3-0.1,0.5-0.1,0.8c1.2,0.3,2.3,0.4,3.5,0.6C59.9,65.3,60.8,65.4,61.8,65.6z
		 M119.4,135.6c-0.2,0-0.4,0-0.6,0c0,2.4,0,4.7-0.1,7.1c0,0.2,0,0.4,0,0.7c0.3,0,0.5,0,0.8,0c0-2.2,0-4.3,0-6.5
		C119.5,136.4,119.7,136,119.4,135.6L119.4,135.6z M15.1,74.8c-1.4,0-2.9,0-4.3,0c-0.7,0-1.4,0-2.1,0c-0.1,0-0.2,0.1-0.3,0.1
		c0,0.2,0,0.4,0.1,0.7c2.1,0,4.2,0,6.3,0C15.4,75.5,15.5,75.4,15.1,74.8z M91.7,15.4c0.3,0,0.5-0.1,0.8-0.1
		c-0.2-0.9-0.7-1.7-1.1-2.5c-0.4-0.8-0.7-1.7-1.1-2.5c-0.4-0.8-0.7-1.7-1.2-2.4c-0.2,0-0.4,0-0.5,0c-0.1,0-0.1,0.1-0.2,0.2
		c0.2,0.7,0.6,1.4,0.9,2.2C90.1,11.9,90.9,13.6,91.7,15.4z M119.5,120.6c0-0.1-0.1-0.2-0.1-0.3c-0.2,0.1-0.4,0.1-0.6,0.2
		c0,0.2,0,0.4,0,0.6c0,0.5,0,0.9,0,1.4c0,2.4,0,4.8,0,7.3c0,0.3-0.1,0.6,0.2,0.9c0.2,0,0.3,0,0.5,0c0.1-0.1,0.1-0.1,0.1-0.2
		c0-2.4,0-4.8,0-7.3C119.5,122.2,119.5,121.4,119.5,120.6z M92.5,135c-0.3,0-0.6-0.1-0.8-0.1c-0.9,1.7-3.1,6.7-3.3,7.4
		c0.7,0.2,0.7,0.2,0.9-0.3c0.4-0.9,0.9-1.9,1.3-2.9C91.3,137.7,92,136.4,92.5,135z M194.9,43.6c-0.1,0-0.1,0.1-0.2,0.2
		c0.1,0.2,0.3,0.3,0.4,0.5c1.3-0.4,7.7-3.1,8.4-3.5c0-0.2,0-0.4,0-0.6c-0.1,0-0.2,0-0.3,0c-2.5,1-5,2-7.6,3.1
		C195.3,43.4,195.1,43.5,194.9,43.6z M127.3,115.6c-0.2-0.9-0.3-1.8-0.5-2.7c0-0.1-0.1-0.2-0.2-0.3c-0.2,0.1-0.4,0.1-0.6,0.2
		c0,0.2,0,0.3,0,0.4c0.4,1.9,0.7,3.8,1.1,5.7c0.1,0.8,0.3,1.6,0.5,2.4c0,0.1,0.1,0.2,0.2,0.3c0.2,0,0.4-0.1,0.7-0.1
		c-0.1-0.3-0.1-0.6-0.2-1C127.9,118.9,127.6,117.2,127.3,115.6L127.3,115.6z M128,30.7c0.1-0.7,0.3-1.4,0.3-2.1c-0.3,0-0.5,0-0.8,0
		c-0.6,2.8-1,5.6-1.6,8.3c0,0.2,0,0.3,0,0.5c0.2,0,0.5,0.1,0.7,0.1c0.3-1.6,0.6-3.1,0.9-4.7C127.8,32,127.9,31.4,128,30.7L128,30.7z
		 M195.1,105.8c-0.2,0.2-0.3,0.4-0.4,0.6c0.2,0.1,0.4,0.2,0.7,0.3c2.5,1,4.9,2,7.4,3c0.2,0.1,0.4,0.1,0.6,0.2c0,0,0.1,0,0.2-0.1
		c0-0.2,0-0.4,0-0.7c-2.1-0.9-4.2-1.7-6.3-2.6C196.4,106.3,195.7,106.1,195.1,105.8L195.1,105.8z M119.6,14.2c0-0.7,0-1.4,0-2.1
		c0-1.6,0-3.2,0-4.8c0-0.2-0.1-0.3-0.1-0.5c-0.3,0-0.5,0-0.8,0c-0.1,0.1-0.1,0.2-0.1,0.2c0,2.4,0,4.8,0,7.2c0,0.3,0.2,0.4,0.6,0.4
		C119.5,14.6,119.6,14.4,119.6,14.2z M93.3,36.7c-0.3,0.2-0.4,0.4-0.6,0.5c1.8,2.6,3.5,5.3,5.3,7.9c0.3-0.1,0.5-0.2,0.8-0.3
		c-0.2-0.3-0.4-0.6-0.6-0.9C96.5,41.5,94.9,39.2,93.3,36.7z M98.6,105.5c0,0,0-0.1,0-0.2c-0.2-0.1-0.4-0.1-0.7-0.2
		c-1.8,2.6-3.5,5.2-5.3,7.9c0.2,0.2,0.4,0.3,0.7,0.5c1.5-2.3,3-4.5,4.6-6.8C98.2,106.2,98.4,105.9,98.6,105.5z M83.8,97.5
		c-0.2-0.2-0.3-0.4-0.5-0.5c-0.1,0-0.2,0-0.3,0.1c-2.8,1.7-5.5,3.4-8.3,5c-0.1,0-0.1,0.1-0.1,0.2c0.1,0.2,0.2,0.5,0.5,0.5
		c1.7-1,3.3-2,5.1-3.1C81.5,99,82.7,98.3,83.8,97.5z M83.8,52.7c-0.3-0.2-0.5-0.4-0.8-0.5c-2.2-1.4-4.4-2.7-6.7-4.1
		c-0.4-0.2-0.8-0.5-1.2-0.7c0,0-0.1,0-0.2,0c-0.1,0.2-0.2,0.4-0.4,0.6c2.9,1.8,5.7,3.5,8.6,5.2C83.5,53.1,83.6,52.9,83.8,52.7z
		 M31.7,74.8c-0.2,0-0.4,0-0.5,0c-3.2,0-6.5,0-9.7,0c-0.2,0-0.3,0-0.5,0c-0.3,0-0.4,0.2-0.4,0.4c0,0.2,0.1,0.4,0.4,0.4
		c0.3,0,0.5,0,0.8,0c1.7,0,3.3,0,5,0c1.4,0,2.8,0,4.3,0c0.3,0,0.6,0.1,0.9-0.2C31.8,75.1,31.7,75,31.7,74.8z M182.7,74.6
		c-0.1,0-0.3,0-0.4,0c-2.6,0-5.1,0-7.7,0c-0.2,0-0.4,0-0.6,0.1c0,0.3,0,0.5,0,0.8c0.3,0,0.5,0.1,0.8,0.1c2.5,0,4.9,0,7.4,0
		c0.2,0,0.5,0,0.7,0c0.1,0,0.2-0.2,0.2-0.4C183.1,74.8,183,74.6,182.7,74.6z M112.8,109.8c-0.3-0.1-0.5-0.2-0.7-0.2
		c-0.1,0.3-0.2,0.6-0.2,0.9c-0.5,2.9-1.1,5.8-1.6,8.7c0,0.2,0,0.4,0,0.7c0.2,0,0.4,0.1,0.6,0.1c0.2-0.4,0.3-0.8,0.3-1.2
		c0.2-1,0.4-2,0.6-3C112,113.7,112.5,111.8,112.8,109.8z M111.6,34c-0.2-1.2-0.4-2.5-0.7-3.7c-0.3,0.1-0.5,0.1-0.7,0.1
		c0,0.2,0,0.4,0,0.6c0.6,3.2,1.2,6.4,1.8,9.6c0.3-0.1,0.5-0.1,0.8-0.2c0-0.9-0.3-1.8-0.4-2.8C112,36.4,111.8,35.2,111.6,34z
		 M189.3,46.8c-0.2-0.3-0.4-0.4-0.5-0.6c-1.7,0.6-9.4,3.8-10.1,4.2c0.2,0.2,0.3,0.4,0.5,0.6c2.6-1.1,5.1-2.1,7.7-3.2
		C187.8,47.4,188.5,47.1,189.3,46.8z M188.8,104.1c0.1-0.1,0.2-0.2,0.3-0.3c0.1-0.1,0.1-0.2,0.1-0.2c-0.7-0.4-8.9-3.8-10-4.1
		c-0.2,0.1-0.4,0.3-0.5,0.6c0.2,0.1,0.3,0.2,0.5,0.3C182.5,101.5,185.6,102.8,188.8,104.1z M119.5,19.7c0-0.1-0.1-0.1-0.1-0.2
		c-0.2,0-0.5,0.1-0.8,0.1c0,0.3-0.1,0.5-0.1,0.7c0,3.1,0,6.2,0,9.4c0.3,0.1,0.5,0.1,0.8,0.2c0.1-0.1,0.1-0.2,0.1-0.2
		c0-2,0-4,0.1-6.1C119.5,22.2,119.5,20.9,119.5,19.7L119.5,19.7z M139.5,121.6c0.3,0,0.5-0.1,0.9-0.1c-0.1-0.3-0.2-0.6-0.3-0.8
		c-1.1-2.4-2.2-4.8-3.3-7.3c-0.5-1.1-1-2.2-1.5-3.4c0-0.1-0.2-0.2-0.3-0.3c-0.2,0.2-0.4,0.3-0.6,0.5c0.7,1.6,1.4,3.2,2.2,4.9
		C137.6,117.3,138.6,119.4,139.5,121.6L139.5,121.6z M134.6,39.5c-0.1,0.2-0.1,0.4-0.1,0.5c0.2,0.2,0.4,0.4,0.7,0.3
		c1.7-3.8,3.5-7.7,5.2-11.6c-0.4,0-0.6,0-0.9,0c-1,2.3-2.1,4.6-3.2,7C135.7,37,135.2,38.3,134.6,39.5L134.6,39.5z M21.5,57.9
		c-3.7-0.6-7.4-1.3-11.1-1.9c-0.3-0.1-0.6-0.1-0.9-0.1c-0.2,0-0.3,0.1-0.4,0.3c0,0.2,0.1,0.4,0.3,0.5c0.3,0.1,0.5,0.1,0.8,0.2
		c3.9,0.7,7.9,1.3,11.8,2c0.2,0,0.3,0,0.5,0c0-0.2,0-0.3,0-0.5C22.3,57.9,21.9,58,21.5,57.9z M22.5,92c0.1-0.2,0.2-0.4-0.1-0.7
		c-0.3,0-0.6,0.1-1,0.1c-3.7,0.6-7.5,1.3-11.2,1.9c-0.3,0-0.5,0.1-0.8,0.2c-0.2,0.1-0.3,0.2-0.3,0.4c0,0.2,0.2,0.4,0.5,0.3
		c0.2,0,0.3,0,0.5-0.1c1.6-0.3,3.1-0.5,4.8-0.8C19.1,92.8,21.5,92.3,22.5,92z M21.8,115.4c0.1-0.1,0.3-0.2,0.4-0.3
		c-0.2-0.2-0.3-0.4-0.4-0.6c-4.2,1.7-8.3,3.4-12.4,5.1c0,0.2-0.1,0.3-0.1,0.4c0,0.1,0.1,0.2,0.2,0.4C13.7,118.7,17.7,117,21.8,115.4
		z M21.8,35.7c0.1-0.2,0.3-0.4,0.4-0.6C22.1,35,22.1,35,22,34.9c-4.1-1.7-8.2-3.4-12.3-5.1c-0.1,0-0.2,0-0.3,0c0,0.3,0,0.5,0,0.8
		c1.3,0.5,2.6,1.1,3.9,1.6C16.2,33.4,19,34.6,21.8,35.7z M178.6,132.5c0.2,0.1,0.4,0.3,0.7,0.5c2.1,2,4.3,4.1,6.4,6.1
		c0.5,0.5,1.1,1,1.6,1.5c0.5,0.5,1,0.6,1.8,0.6c-0.2-0.3-0.4-0.5-0.6-0.6c-2.9-2.8-5.9-5.6-8.8-8.4c-0.2-0.2-0.4-0.3-0.6-0.4
		C178.7,131.9,178.5,132,178.6,132.5z M73.3,118.3c-0.2,0.2-0.5,0.5-0.7,0.7c0,0,0,0.1,0,0.1c0,0,0,0.1,0,0.2
		c0.1,0.1,0.3,0.2,0.4,0.4c1.2-1,10.9-10.2,11.4-10.9c-0.2-0.1-0.4-0.2-0.6-0.3c-0.5,0.3-0.8,0.7-1.2,1
		C79.5,112.5,76.4,115.4,73.3,118.3L73.3,118.3z M184.9,11.8c-0.7,0.7-1.4,1.4-2.1,2.1c-0.7,0.7-1.4,1.4-2.1,2.1
		c-0.7,0.7-1.5,1.3-2.1,2.1c0.2,0.2,0.4,0.3,0.6,0.5c0.3-0.3,0.5-0.5,0.8-0.7c1.1-1,2.2-2.1,3.3-3.1c1.9-1.8,3.9-3.7,5.8-5.5
		c0.1-0.1,0.4-0.2,0.3-0.5c-0.7-0.2-1.2,0-1.6,0.5c-0.2,0.2-0.4,0.4-0.6,0.6C186.3,10.4,185.6,11.1,184.9,11.8L184.9,11.8z
		 M94.7,20.1c-0.3,0-0.5,0.1-0.7,0.1c0,0.1,0,0.1,0,0.1c0,0.1,0.1,0.3,0.1,0.4c2.1,4.7,4.2,9.3,6.3,14c0,0,0,0,0.1,0.1
		c0,0,0.1,0,0.2,0.1c0.2,0,0.4,0,0.7-0.1c-2.1-4.7-4.2-9.3-6.3-13.9C95,20.6,94.8,20.4,94.7,20.1z M96.1,124.9
		c-0.7,1.6-1.4,3.2-2.1,4.8c0,0,0,0.1,0,0.2c0.2,0.2,0.5,0.2,0.8,0.1c0.1-0.2,0.2-0.5,0.3-0.8c1.5-3.4,3-6.7,4.6-10.1
		c0.5-1.2,1-2.3,1.5-3.5c0-0.1,0-0.2,0-0.3c-0.2,0-0.5,0-0.8-0.1c-1.2,2.6-2.4,5.2-3.6,7.9C96.7,123.8,96.4,124.3,96.1,124.9
		L96.1,124.9z M194.2,75.6c1,0,2.1,0,3.1,0c1.1,0,2.2,0,3.2,0c1,0,2.1,0.1,3.1-0.1c0.1-0.3,0.2-0.6-0.1-0.9c-0.3,0-0.6,0-1,0
		c-4.2,0-8.4,0-12.6,0c-0.3,0-0.5,0-0.8,0c-0.1,0-0.1,0.1-0.2,0.1c-0.1,0.4-0.1,0.4,0.1,0.8c0.5,0,1.1,0,1.8,0
		C192.1,75.6,193.1,75.6,194.2,75.6z M161.4,101c-0.1,0.2-0.2,0.4-0.4,0.5c0.8,0.6,14.3,8.9,15,9.1c0.2-0.2,0.2-0.5,0-0.8
		C169.9,106,162.2,101.3,161.4,101z M175.2,40.9c0.3-0.2,0.6-0.4,0.8-0.5c0,0,0.1,0,0.1-0.1c0,0,0-0.1,0.1-0.2c0-0.2,0-0.4-0.1-0.7
		c-0.3,0.1-0.5,0.2-0.7,0.4c-1.1,0.7-2.2,1.3-3.3,2c-3.4,2.1-6.8,4.1-10.2,6.2c-0.3,0.2-0.7,0.3-0.9,0.7c0.1,0.2,0.3,0.3,0.5,0.5
		c1.7-1.1,3.4-2.1,5.1-3.1C169.5,44.3,172.4,42.6,175.2,40.9L175.2,40.9z M129.6,127.7c-0.1-0.5-0.4-0.7-0.9-0.7
		c0,1,0.3,1.8,0.4,2.8c0.1,0.9,0.4,1.8,0.5,2.8c0.2,0.9,0.3,1.8,0.5,2.8c0.2,1,0.4,1.9,0.5,2.9c0.2,0.9,0.3,1.8,0.5,2.8
		c0.2,0.9,0.3,1.8,0.5,2.7c0.3,0.1,0.5,0.2,0.8,0c0-0.2-0.1-0.5-0.1-0.8c-0.2-1.3-0.5-2.6-0.7-3.9c-0.4-2.1-0.8-4.1-1.2-6.3
		C130.1,130.9,129.9,129.3,129.6,127.7L129.6,127.7z M130.3,18.3c0.6-3.4,1.3-6.7,1.9-10.1c0.1-0.5,0.2-1,0.2-1.5
		c0,0-0.1-0.1-0.1-0.2c-0.2,0-0.4,0.1-0.7,0.1c-0.2,1.3-0.5,2.5-0.7,3.7c-0.8,4.1-1.6,8.2-2.3,12.3c0,0.2,0,0.4,0,0.6
		c0.6,0,0.9-0.3,0.9-0.8c0.2-1.2,0.4-2.5,0.7-3.8C130.3,18.5,130.3,18.4,130.3,18.3L130.3,18.3z M12.5,9.2c-0.2-0.1-0.5-0.3-0.7-0.4
		c-0.2-0.1-0.4,0-0.5,0.2c-0.1,0.2-0.1,0.3,0.1,0.4c0.2,0.2,0.5,0.4,0.7,0.5c3.3,2,6.6,4,9.9,6c1.4,0.8,2.8,1.7,4.2,2.5
		c0,0,0.1,0,0.2,0c0.1-0.1,0.3-0.3,0.4-0.4c-0.1-0.1-0.1-0.2-0.1-0.2c-1.7-1-3.4-2.1-5.2-3.2C18.5,12.9,15.5,11,12.5,9.2z
		 M11.4,140.7c-0.2,0.1-0.2,0.3-0.1,0.5c0.1,0.2,0.3,0.2,0.5,0.1c0.2-0.1,0.4-0.2,0.6-0.3c4.6-2.8,9.2-5.6,13.8-8.4
		c0.2-0.1,0.3-0.2,0.5-0.3c0,0,0-0.1,0.1-0.2c-0.2-0.1-0.3-0.3-0.5-0.4c-4.9,3-9.8,6-14.7,9C11.5,140.6,11.5,140.7,11.4,140.7z
		 M87.8,30c0.7,1,1.2,2,2,2.9c0.2-0.1,0.4-0.3,0.7-0.4c-3.2-4.8-6.5-9.6-9.7-14.4c-0.1-0.1-0.2-0.2-0.3-0.4
		c-0.2,0.2-0.4,0.3-0.6,0.5c2,3,4,5.9,6,8.9C86.5,28.1,87.1,29,87.8,30z M79.8,132.1c0.2,0.2,0.4,0.3,0.6,0.5
		c0.1-0.1,0.2-0.2,0.3-0.3c1.4-1.9,9.3-13.8,9.6-14.5c-0.2-0.2-0.4-0.5-0.8-0.2C86.3,122.4,83.1,127.2,79.8,132.1z M67.9,107.2
		c0.6-0.4,1.2-0.8,1.9-1.2c0,0,0.1-0.1,0.1-0.2c-0.1-0.1-0.2-0.3-0.4-0.5c-5.2,3.2-10.4,6.3-15.6,9.5c-0.1,0.1-0.3,0.2-0.4,0.3
		c0.2,0.2,0.3,0.3,0.5,0.5c0.1,0,0.2,0,0.3,0c2.8-1.7,5.6-3.4,8.4-5.1C64.5,109.3,66.2,108.3,67.9,107.2z M106.6,7.3
		c-0.3,0-0.5,0-0.8,0c0,0.3,0,0.6,0.1,0.9c0.1,0.4,0.2,0.8,0.2,1.2c0.7,3.9,1.5,7.8,2.2,11.7c0.2,1.2,0.4,2.3,0.7,3.5
		c0,0.1,0.1,0.3,0.2,0.5c0.2-0.1,0.5-0.2,0.7-0.3c-0.1-0.8-0.3-1.6-0.4-2.4C108.5,17.3,107.6,12.3,106.6,7.3z M108.1,130.2
		c-0.7,3.5-1.3,7-2,10.6c-0.1,0.7-0.4,1.4-0.3,2.1c0.3,0.2,0.5,0.2,0.7,0c0.9-3.8,3.2-16.6,3.2-17.5c-0.2-0.1-0.4-0.2-0.7-0.1
		c0,0.1-0.1,0.3-0.2,0.5C108.6,127.3,108.4,128.8,108.1,130.2L108.1,130.2z M60.4,99.5c1.3-0.5,2.6-1.1,3.9-1.6
		c1.3-0.5,2.6-1.1,3.9-1.6c1.3-0.5,2.6-1,3.9-1.7c-0.1-0.2-0.2-0.4-0.3-0.6c-0.1,0-0.2,0-0.3,0c-0.1,0-0.3,0.1-0.4,0.1
		c-5.6,2.3-11.1,4.6-16.7,6.9c0,0-0.1,0-0.1,0.1c0,0,0,0.1-0.1,0.1c0.1,0.1,0.2,0.3,0.4,0.5c0.5-0.2,1-0.4,1.6-0.6
		C57.8,100.6,59.1,100.1,60.4,99.5z M143.7,19.3c-0.6,1.3-1.1,2.5-1.7,3.8c0,0.1,0,0.2,0,0.3c0.3,0,0.5-0.1,0.8-0.1
		c0.2-0.3,0.3-0.6,0.4-0.9c1.8-3.9,3.5-7.8,5.3-11.7c0.6-1.2,1.1-2.5,1.7-3.7c0,0,0-0.1,0-0.2c-0.2,0-0.5,0-0.8,0
		c-1.8,4-3.6,8-5.5,12.1C143.8,19.1,143.8,19.2,143.7,19.3L143.7,19.3z M69.6,44.8c0.1-0.2,0.2-0.4,0.4-0.6
		c-0.1-0.1-0.2-0.2-0.4-0.3c-5.1-3.1-10.3-6.2-15.4-9.4c0,0-0.1,0-0.1,0c0,0-0.1,0-0.2,0c-0.1,0.1-0.3,0.3-0.4,0.4
		c0.1,0.1,0.1,0.2,0.2,0.2c4.5,2.7,8.9,5.5,13.5,8.2C68,43.9,68.7,44.5,69.6,44.8z M71.8,56.2c0.3-0.2,0.4-0.4,0.3-0.7
		c-1.2-0.6-16.5-6.9-17.3-7c-0.1,0.2-0.2,0.4-0.3,0.5c0.1,0.1,0.1,0.2,0.2,0.2c4.3,1.8,8.7,3.6,13.1,5.4
		C69.1,55.1,70.5,55.7,71.8,56.2z M142.7,126.7c-0.3,0.1-0.5-0.2-0.8,0.1c0,0.1,0,0.2,0.1,0.3c2.4,5.4,4.9,10.8,7.3,16.2
		c0,0,0,0,0.1,0.1c0,0,0.1,0,0.1,0.1c0.2,0,0.4,0,0.6,0c0-0.1,0-0.2,0-0.2c-2.3-5.2-4.6-10.3-7-15.6
		C143,127.3,142.9,127,142.7,126.7z M83.4,41.9c0.4-0.1,0.7-0.2,1-0.5c-0.2-0.2-0.4-0.4-0.6-0.6c-3.4-3.2-6.7-6.4-10.1-9.5
		c-0.2-0.2-0.4-0.4-0.6-0.5c0,0-0.1,0-0.3-0.1c-0.2,0.2-0.4,0.4-0.6,0.6c0.9,0.9,1.8,1.7,2.7,2.6C77.8,36.5,80.6,39.2,83.4,41.9z
		 M157.3,112c0.2-0.2,0.4-0.4,0.6-0.7c-3.3-3.2-6.6-6.3-9.8-9.4c-0.1-0.1-0.3-0.2-0.4-0.3c-0.4,0.2-0.6,0.4-0.9,0.7
		c3.4,3.2,6.8,6.4,10.2,9.6C157.1,112,157.2,112.1,157.3,112L157.3,112z M157.9,38.8c-0.3-0.3-0.5-0.5-0.7-0.8
		c-0.2,0.2-0.4,0.3-0.5,0.4c-3.2,3-6.4,6-9.6,9c-0.1,0.1-0.2,0.3-0.4,0.4c0.3,0.3,0.6,0.5,0.8,0.6c1.9-1.7,3.7-3.4,5.5-5.2
		C154.8,41.9,156.3,40.4,157.9,38.8z M35.4,126.1c-0.8,0.5-1.5,0.9-2.3,1.4c-0.8,0.5-1.5,0.9-2.3,1.5c0.3,0.2,0.4,0.3,0.7,0.5
		c0.3-0.2,0.6-0.4,0.9-0.5c5.2-3.2,10.5-6.4,15.7-9.6c0.4-0.2,0.8-0.5,1.2-0.7c0,0,0-0.1,0.1-0.2c-0.1-0.1-0.3-0.3-0.5-0.5
		c-3.7,2.2-7.3,4.5-11,6.7C36.9,125.1,36.2,125.6,35.4,126.1L35.4,126.1z M32.2,21.2c-0.2-0.1-0.4-0.2-0.6-0.4c0,0-0.1,0-0.1,0
		c0,0-0.1,0-0.2,0c-0.1,0.1-0.3,0.2-0.5,0.4c0.6,0.5,17.2,10.6,18.1,11c0.1-0.1,0.3-0.3,0.5-0.5c-3.2-2-6.3-3.8-9.5-5.8
		C37.3,24.3,34.7,22.7,32.2,21.2z M173.7,22.4c-3.9,3.7-7.9,7.4-11.8,11.2c-0.2,0.2-0.4,0.4-0.6,0.6c0.2,0.3,0.4,0.5,0.5,0.8
		c0.8-0.6,12.5-11.9,13-12.5c-0.2-0.1-0.4-0.3-0.6-0.4C174,22.1,173.8,22.3,173.7,22.4z M174.2,128.2c0.4-0.1,0.6-0.2,0.7-0.6
		c-4.2-4-8.3-8-12.5-12c-0.1-0.1-0.2-0.2-0.4-0.3c0,0-0.1,0-0.1,0c0,0-0.1,0-0.1,0c-0.2,0.2-0.3,0.5-0.5,0.8c3.2,3,6.3,6,9.5,9
		C172,126.2,173.1,127.2,174.2,128.2L174.2,128.2z M44.9,88.3c0.9-0.2,1.8-0.3,2.7-0.5c0.9-0.2,1.9-0.2,2.8-0.6
		c-0.1-0.3-0.1-0.5-0.2-0.7c-0.2,0-0.3,0-0.4,0c-2.4,0.4-4.8,0.8-7.2,1.2c-4.3,0.7-8.7,1.5-13,2.2c-0.2,0-0.4,0.1-0.7,0.2
		c0.1,0.2,0.1,0.5,0.2,0.6c0.2,0,0.3,0,0.4,0c1.6-0.3,3.2-0.5,4.8-0.8c2.6-0.4,5.1-0.9,7.8-1.3C43,88.6,43.9,88.5,44.9,88.3z
		 M47,62.2c-5.8-1-11.6-2-17.4-2.9c-0.2,0-0.4,0-0.6,0c0,0.3,0,0.5,0,0.7c1.2,0.2,2.3,0.4,3.4,0.6c4,0.7,8,1.4,12.1,2
		c1.6,0.3,3.3,0.6,4.9,0.8c0.3,0,0.6,0.2,0.9-0.1c0-0.2,0-0.4,0-0.6c-0.9-0.2-1.8-0.3-2.7-0.5C47.3,62.3,47.1,62.3,47,62.2z
		 M182.7,113.9c-0.2,0.2-0.3,0.4-0.5,0.6c0.4,0.2,0.7,0.4,1,0.6c3.8,2.3,7.5,4.6,11.3,6.9c2.7,1.7,5.5,3.3,8.2,5
		c0.2,0.1,0.4,0.3,0.7,0.3c0.2-0.5,0-0.8-0.4-1.1c-0.4-0.2-0.9-0.5-1.3-0.8C195.2,121.5,189,117.7,182.7,113.9L182.7,113.9z
		 M202.9,24c0.5-0.3,0.6-0.6,0.4-1.1c-0.1,0-0.2,0-0.2,0c-6.9,4.2-13.8,8.4-20.7,12.6c-0.1,0-0.1,0.1-0.2,0.3
		c0.2,0.2,0.3,0.3,0.5,0.5c5.7-3.5,11.4-6.9,17.1-10.4C200.9,25.2,201.9,24.6,202.9,24z M48.5,46.6c0.4,0.2,0.8,0.3,1.1,0.4
		c0.1,0,0.1,0,0.2-0.1c0-0.2,0-0.4,0.1-0.7c-7.5-3.1-15-6.1-22.4-9.2c-0.3,0.1-0.5,0.3-0.6,0.6c1.1,0.5,2.2,0.9,3.4,1.4
		C36.4,41.7,42.4,44.2,48.5,46.6z M49.9,103.9c0-0.3,0.1-0.5-0.2-0.8c-0.3,0.1-0.7,0.2-1,0.4c-6.3,2.6-12.7,5.2-19,7.8
		c-0.9,0.4-1.7,0.7-2.6,1.1c-0.1,0-0.1,0.1-0.2,0.2c0.2,0.2,0.3,0.3,0.5,0.5c5.1-2.1,10.1-4.1,15.3-6.2
		C45.1,105.8,47.5,104.8,49.9,103.9z M69,123.4C69,123.4,69,123.4,69,123.4c0-0.1,0-0.1,0.1-0.2c-0.1-0.1-0.3-0.2-0.5-0.4
		C62,129,55.5,135.2,49,141.4c0,0,0,0.1-0.1,0.2c0.5,0.1,1,0.1,1.3-0.3c0.1-0.2,0.3-0.3,0.5-0.5c3.8-3.6,7.6-7.3,11.5-10.9
		C64.5,127.7,66.7,125.6,69,123.4z M67.5,26.7c0.2,0.2,0.5,0.5,0.7,0.7c0.1,0.1,0.2,0.1,0.3,0.1c0.2-0.2,0.4-0.4,0.6-0.6
		c-0.3-0.3-0.5-0.5-0.8-0.8C63,21,57.7,16,52.4,10.9c-0.7-0.7-1.4-1.3-2.1-2c-0.5-0.5-1-0.5-1.7-0.4c0.2,0.3,0.4,0.4,0.6,0.7
		C55.4,15.1,61.5,20.9,67.5,26.7z M146.2,34.6c-0.1,0.2-0.2,0.4-0.3,0.6c0.2,0.3,0.4,0.4,0.7,0.4c6.2-9.3,12.4-18.6,18.6-27.9
		c0,0,0-0.1,0-0.2c-0.3-0.1-0.6-0.2-0.9,0.1C158.3,16.6,152.3,25.6,146.2,34.6L146.2,34.6z M164.3,142.5c0.3,0.4,0.5,0.4,1,0.1
		c-0.1-0.1-0.1-0.2-0.2-0.3c-6.2-9.2-12.3-18.3-18.5-27.5c0,0,0,0-0.1-0.1c0,0-0.1,0-0.1,0c-0.2,0.1-0.5,0.2-0.6,0.5
		c5.9,8.8,11.8,17.6,17.7,26.4C163.9,141.9,164.1,142.2,164.3,142.5L164.3,142.5z M75.4,75.6c0.1,0.9,0.1,1.8,0.2,2.7
		c0.2,1.3,0.4,2.7,0.6,4c0.1,0.5,0.3,0.7,0.8,0.7c0.2,0,0.4,0.1,0.6,0c0-0.1,0-0.2,0-0.3c-0.4-1.6-0.7-3.3-0.8-5
		c-0.3-3.4,0-6.8,0.8-10.2c0-0.2,0-0.4,0-0.6c-0.3,0.1-0.5,0.1-0.8,0.1c-0.3,0-0.5,0.2-0.5,0.5c0,0.1,0,0.3-0.1,0.4
		C75.7,70.5,75.5,72.9,75.4,75.6z M96.1,77.3c0-2.1,0-4.1,0-6.2c0.1-2.7,0.4-5.5,0.9-8.2c0.2-1,0.4-2,0.6-2.9c0-0.2,0.1-0.5-0.1-0.7
		c-0.3-0.1-0.6-0.1-0.9,0.1c-0.2,0.2-0.3,0.4-0.4,0.6c-0.1,0.2-0.1,0.4-0.2,0.6c-0.7,2.7-1.1,5.4-1.2,8.2c-0.2,4.1-0.2,8.2,0,12.3
		c0.2,2.8,0.5,5.5,1.2,8.2c0.1,0.3,0.2,0.6,0.3,0.9c0.2,0.5,0.6,0.6,1.3,0.3c-0.1-0.6-0.2-1.1-0.3-1.7
		C96.6,85.2,96.1,81.4,96.1,77.3L96.1,77.3z M145,62.2c0,0.1,0.1,0.3,0.1,0.4c-0.1,0.3,0,0.6,0,0.9c0.7,2.7,1.1,5.4,1.3,8.1
		c0.3,4.5,0,8.9-0.8,13.3c-0.1,0.6-0.2,1.1-0.4,1.7c-0.2,0.6,0,1.1-0.1,1.7c0.5,0.1,0.9,0.2,1.4,0.4c0.1-0.1,0.2-0.2,0.2-0.3
		c0.1-0.4,0.3-0.8,0.4-1.2c0.9-3.6,1.3-7.3,1.4-11c0.1-2.6-0.1-5.2-0.4-7.7c-0.2-2.1-0.6-4.1-1.2-6.2c-0.1-0.2-0.1-0.5-0.4-0.7
		C145.8,61.7,145.3,61.6,145,62.2z M68.8,70.3c0.2-1,0.3-2,0.5-3c0.2-1,0.5-2,0.8-3c-1-0.1-1.8,0.3-2.4,0.9c0,0.2,0,0.3,0,0.4
		c-0.3,1.3-0.4,2.7-0.5,4c0,0.1,0,0.1,0,0.2c0,0.2-0.2,0.3-0.4,0.3c-0.2,0-0.3-0.1-0.3-0.3c0-0.2,0-0.4,0-0.6
		c0.1-0.9,0.2-1.7,0.2-2.6c0-0.1,0-0.3,0-0.5c-0.2,0.2-0.3,0.2-0.4,0.3c-0.1,0.2-0.3,0.4-0.4,0.6c-0.2,0.6-0.5,1.2-0.6,1.7
		c-0.4,2.3-0.6,4.5-0.6,6.8c0,1.1,0.1,2.3,0.2,3.4c0.1,1.2,0.3,2.4,0.6,3.5c0.2,0.8,0.5,1.5,1.1,2c0.1,0.1,0.2,0.1,0.4,0.2
		c-0.2-0.7-0.3-1.3-0.4-1.9c0-0.2-0.1-0.3,0-0.5c0-0.1,0.2-0.2,0.3-0.2c0.1,0,0.3,0,0.3,0.1c0.1,0.2,0.2,0.4,0.2,0.5
		c0.3,1,0.5,1.9,0.8,2.9c0.6,0.4,1.2,0.6,1.9,0.5c0-0.1,0-0.3-0.1-0.4c-0.7-1.9-1-3.9-1.3-6c-0.3-2.1-0.5-4.2-0.3-6.4
		C68.5,72.3,68.6,71.4,68.8,70.3L68.8,70.3z M106.5,58.3c5.9,7.2,11.7,14.5,17.6,21.6c2.7,3.2,5.3,6.5,7.9,9.7
		c1.2,1.4,2.3,2.9,3.5,4.3c0.3,0.4,0.7,0.4,1,0c0.2-0.2,0.3-0.5,0.3-0.8c0.1-0.5-0.2-0.8-0.5-1.1c-2.1-2.6-4.2-5.1-6.4-7.7
		c-3.5-4.2-7.1-8.5-10.6-12.7c-4.1-5-8.2-10-12.4-15c-0.1-0.2-0.3-0.3-0.5-0.5c-0.2-0.2-0.4-0.2-0.7-0.1c-0.2,0.1-0.5,0.4-0.4,0.7
		c0,0.2,0.1,0.4,0.2,0.6C106,57.7,106.2,57.9,106.5,58.3z M72.1,65.4c0.2-0.3,0.1-0.6-0.3-0.8c-0.2-0.1-0.5-0.2-0.8-0.3
		c-0.1,0.4-0.3,0.7-0.4,1c-0.3,1-0.5,2-0.7,3c-0.4,2.3-0.7,4.5-0.7,6.8c0,2.3,0.3,4.6,0.7,6.9c0.2,1.1,0.4,2.3,0.9,3.4
		c0.1,0.2,0.2,0.3,0.3,0.5c0.7-0.2,1.2-0.6,1.6-1.1c-0.2-0.6-0.5-1.2-0.6-1.7c-0.3-1.3-0.5-2.6-0.7-3.9c0-0.1,0-0.2,0-0.3
		c0-0.2,0.1-0.3,0.3-0.3c0.1,0,0.3,0.1,0.4,0.3c0.1,0.1,0.1,0.2,0.1,0.3c0.1,0.4,0.1,0.8,0.2,1.2c0.2,1.1,0.4,2.2,0.8,3.2
		c0.1,0.2,0.1,0.4,0.4,0.5c0.6-0.4,1.2-0.9,1.8-1.3c-0.5-1.8-0.7-3.7-0.8-5.5c0-1.5,0-2.9,0-4.4c0-1.7,0.2-3.3,0.6-5
		c0-0.2,0.1-0.4,0.1-0.5c-0.8-0.6-1.5-1.1-2.3-1.7c-0.1,0.3-0.2,0.5-0.2,0.8c-0.3,1.3-0.5,2.6-0.5,3.9c0,0.2,0,0.4,0,0.6
		c0,0.2-0.1,0.3-0.4,0.3c-0.2,0-0.3-0.1-0.3-0.3c0-0.2-0.1-0.4-0.1-0.6C71.5,68.7,71.6,67.1,72.1,65.4z M62.4,80.3
		c0.4-0.6,0.8-1.1,1.2-1.7c0.2-0.3,0.3-0.6,0.2-1c-0.1-1.7-0.1-3.5,0-5.2c0-0.4-0.1-0.8-0.2-1.1c-1.5-3-5.1-5.3-9.6-4.4
		c-4,0.8-6.9,4.3-6.8,8.4c0.2,5,5.2,8.9,10.7,7.6C59.7,82.5,61.2,81.7,62.4,80.3z M94.6,62.7c-1.6,0.1-3.2,0.1-4.8-0.4
		c-0.5,1.3-0.6,2.6-0.8,3.9c-1,7.2-1.1,9.9,0.2,18.8c0.1,0.9,0.2,1.8,0.6,2.6c0.1,0,0.2,0,0.2,0c1.4-0.3,2.9-0.5,4.3-0.3
		c0.1,0,0.2,0,0.4-0.1c0-0.3-0.1-0.6-0.1-0.9c-0.2-1.4-0.4-2.9-0.5-4.3c-0.3-3.2-0.3-6.4-0.2-9.7c0.1-2.7,0.2-5.4,0.6-8.1
		C94.6,63.9,94.6,63.4,94.6,62.7L94.6,62.7z M82.1,81.6c0-0.1,0-0.2,0-0.3c0.1-0.1,0.2-0.2,0.3-0.3c0.2,0,0.3,0.1,0.4,0.2
		c0.1,0.1,0.1,0.3,0.1,0.5c0.1,0.5,0.1,1,0.2,1.5c0.1,0.6,0.2,1.1,0.5,1.7c0.4,0,0.9,0.1,1.3-0.1c0-0.2-0.1-0.4-0.1-0.6
		c-0.3-1.2-0.5-2.4-0.5-3.6c0-0.3,0-0.5,0.3-0.6c0.2-0.1,0.4,0.2,0.5,0.6c0.1,0.7,0.1,1.4,0.3,2.1c0.1,0.8,0.2,1.5,0.6,2.2
		c0.8,0,1.5,0.1,2.3-0.1c-0.2-1.7-0.4-3.4-0.6-5.1c-0.1-1.5-0.3-3-0.3-4.4c-0.1-2.2,0.2-4.4,0.5-6.6c0.1-1.1,0.3-2.2,0.4-3.4
		c-0.8-0.2-1.6-0.1-2.3-0.1c-0.1,0.1-0.2,0.2-0.2,0.4c-0.3,1.2-0.6,2.4-0.7,3.6c0,0.3-0.1,0.5-0.1,0.7c0,0.1-0.2,0.2-0.3,0.2
		c-0.1,0-0.3-0.1-0.3-0.2c-0.1-0.2-0.1-0.4,0-0.7c0-1.2,0.2-2.3,0.5-3.4c0-0.2,0.1-0.4,0.1-0.6c-0.5-0.1-0.9-0.1-1.4,0
		c-0.1,0.3-0.2,0.5-0.2,0.8c-0.2,0.8-0.3,1.5-0.4,2.3c0,0.2-0.1,0.4-0.2,0.6c0,0.1-0.2,0.1-0.3,0.1c-0.1,0-0.3-0.1-0.3-0.2
		c0-0.4,0-0.7,0-1.1c0.1-0.7,0.2-1.4,0.4-2.1c0-0.2,0-0.4,0-0.6c-0.4,0-0.7,0-1.1,0c-0.1,0.1-0.2,0.3-0.2,0.4
		c-0.2,0.9-0.3,1.7-0.5,2.6c-0.1,0.4-0.1,0.8-0.2,1.1c0,0.1-0.2,0.2-0.3,0.2c-0.1,0-0.2-0.1-0.3-0.2C80,69.1,80,68.9,80,68.8
		c0-0.6,0.1-1.3,0.2-1.9c0.1-0.5,0.2-1.1,0.3-1.6c-0.9-0.2-0.9-0.2-1.2,0.4c-0.3,0.7-0.6,1.4-0.8,2.2c-0.6,2.1-0.9,4.3-0.9,6.5
		c-0.1,2.5,0.1,4.9,0.7,7.3c0.3,1.1,0.6,2.2,1.2,3.2c0,0.1,0.1,0.1,0.2,0.2c0.2,0,0.5,0,0.8,0c0-0.2,0-0.4-0.1-0.5
		c-0.2-0.9-0.4-1.9-0.4-2.9c0-0.2,0-0.4,0-0.6c0-0.2,0.1-0.3,0.3-0.3c0.1,0,0.2,0.1,0.3,0.2c0.1,0.1,0.1,0.2,0.1,0.4
		c0,0.4,0.1,0.7,0.1,1.1c0.1,0.9,0.2,1.7,0.6,2.6c0.4,0.1,0.8,0.2,1.1,0C82.4,83.9,82.2,82.8,82.1,81.6z M155.2,70
		c0-0.7,0-1.4-0.1-2.1c-0.3-2.3-0.6-4.5-0.9-6.8c0-0.3-0.1-0.6-0.2-0.9c0-0.1-0.2-0.3-0.3-0.3c-0.1,0-0.3,0-0.5,0.1
		c0,0.2,0.1,0.4,0.1,0.6c0.4,1.7,0.5,3.4,0.5,5.2c0,0.2,0,0.4-0.1,0.6c-0.1,0.2-0.2,0.3-0.4,0.2c-0.1,0-0.3-0.2-0.3-0.2
		c0-0.3,0-0.6-0.1-0.9c0-1.7-0.2-3.3-0.6-5c0-0.2-0.1-0.4-0.2-0.5c-0.5,0-0.9,0-1.3,0c-0.2,0-0.4,0.1-0.6,0.1
		c0.1,0.4,0.2,0.8,0.3,1.2c0.4,1.5,0.5,3.1,0.6,4.7c0,0.3,0,0.5-0.1,0.8c0,0.2-0.2,0.3-0.4,0.2c-0.1,0-0.2-0.1-0.3-0.2
		c-0.1-0.2,0-0.4-0.1-0.6c-0.1-1.7-0.3-3.5-0.8-5.2c-0.1-0.3-0.1-0.6-0.4-0.8c-0.4,0.1-0.7,0.2-1.1,0.4c-0.6,0.3-0.7,0.4-0.5,1.1
		c0,0.1,0,0.2,0.1,0.3c1,3.8,1.5,7.6,1.6,11.5c0.1,2.3,0,4.6-0.2,6.9c-0.2,1.9-0.4,3.7-0.8,5.6c-0.2,1.1-0.5,2.3-0.8,3.4
		c-0.1,0.3,0,0.5,0.2,0.7c0.5,0.3,1,0.5,1.6,0.5c0.1-0.1,0.1-0.2,0.1-0.3c0.1-0.2,0.1-0.4,0.2-0.6c0.4-1.7,0.7-3.4,0.8-5.1
		c0-0.2,0-0.4,0.1-0.7c0-0.1,0.1-0.2,0.2-0.2c0.1,0,0.3,0.1,0.3,0.2c0.1,0.3,0.1,0.6,0.1,0.9c0,1.6-0.2,3.2-0.6,4.7
		c-0.1,0.4-0.2,0.7-0.3,1.2c0.7,0.2,1.3,0.2,2,0.1c0.1-0.2,0.2-0.4,0.2-0.5c0.4-1.6,0.6-3.3,0.6-5c0-0.3,0-0.6,0.1-0.9
		c0-0.1,0.2-0.3,0.3-0.2c0.1,0,0.3,0.1,0.4,0.2c0.1,0.2,0.1,0.4,0.1,0.6c0,1.8-0.1,3.5-0.5,5.3c0,0.2,0,0.4-0.1,0.5
		c0.6,0.1,0.7,0,0.8-0.3c0.1-0.4,0.2-0.8,0.2-1.1c0.1-0.7,0.2-1.3,0.3-2c0.2-1.7,0.5-3.4,0.7-5.2C155.4,77.9,155.5,74,155.2,70
		L155.2,70z M144.2,50.1c-0.4-0.3-0.7-0.6-1.1-0.9c-3.7-3-7.7-5.4-12-7.5c-1.3-0.6-2.6-1.1-4-1.4c-0.5-0.1-1-0.1-1.5,0.1
		c-12.5,4.1-25,8.2-37.4,12.2c-0.6,0.2-1.1,0.5-1.5,1.1c-2,3-3.7,6.1-4.6,9.5c-0.1,0.3-0.1,0.7-0.2,1c0.4,0.2,0.7,0.2,1,0
		c0-0.1,0.1-0.1,0.1-0.2c0.7-2.6,1.8-5,3-7.5c0.1-0.1,0.2-0.3,0.2-0.4c0.1-0.1,0.2-0.2,0.4-0.2c0.2,0,0.3,0.3,0.2,0.5
		c-0.1,0.2-0.1,0.4-0.2,0.5c-0.6,1.3-1.2,2.6-1.7,3.9c-0.4,1-0.7,2.1-1.1,3.1c0,0,0,0.1,0.1,0.2c0.3,0,0.6,0,0.9,0
		c0.1-0.3,0.2-0.5,0.3-0.8c0.5-1.2,0.9-2.5,1.4-3.7c0.7-1.7,1.7-3.3,2.9-4.7c0.5-0.6,1.1-1,1.9-1.2c6.1-2,12.1-4,18.1-5.9
		c4.9-1.6,9.8-3.2,14.8-4.8c1.1-0.4,0.9-0.4,2.1,0.1c0.8,0.3,1.6,0.7,2.4,1c4.6,2,9,4.4,13,7.5c2.7,2.1,5.2,4.4,7.2,7.2
		c0.1,0.1,0.1,0.2,0.2,0.2c0.4,0,0.7,0.1,1-0.2c0-0.1-0.1-0.2-0.1-0.2c-0.3-0.4-0.6-0.7-0.9-1.1c-3.2-4-7-7.5-11.5-10.3
		c-0.4-0.2-0.7-0.5-1.1-0.7c-0.1-0.1-0.3-0.2-0.4-0.3c-0.2-0.1-0.2-0.4,0-0.5c0.1-0.1,0.3-0.2,0.5-0.1c0.1,0.1,0.3,0.2,0.4,0.3
		c0.8,0.5,1.5,1,2.2,1.5c3,2,5.7,4.3,8.1,7c1.1,1.2,2.1,2.5,3.1,3.8c0.2,0.3,0.4,0.5,0.6,0.7c0.7,0,1.3,0,1.9,0c0,0,0.1,0,0.1,0
		c0,0,0-0.1,0.1-0.2C150.4,55.8,147.5,52.8,144.2,50.1L144.2,50.1z M87.3,91.9C86.8,91,86.3,90,86,89c-0.4-1-0.7-2.1-1.1-3.1
		c-0.4-0.1-0.7-0.1-1,0.1c0,0.2,0,0.4,0.1,0.5c0.3,0.9,0.7,1.9,1,2.8c0.5,1.3,1.1,2.6,1.7,3.9c0.1,0.2,0.2,0.4,0.2,0.6
		c0,0.1-0.1,0.2-0.2,0.3c-0.1,0-0.2,0-0.3-0.1c-0.1-0.1-0.2-0.3-0.3-0.5c-1.1-2.3-2.2-4.6-2.9-7c-0.1-0.2-0.1-0.5-0.2-0.7
		c-0.6-0.1-0.6-0.1-1,0.1c0,0.1,0,0.2,0,0.3c0.9,3.8,2.6,7.2,4.9,10.4c0.3,0.5,0.8,0.7,1.4,0.9c12.5,4.1,25,8.1,37.4,12.2
		c0.6,0.2,1.1,0.2,1.7,0.1c1.4-0.3,2.6-0.8,3.9-1.4c4-2,7.8-4.3,11.3-7c3.8-3,7.2-6.4,10.6-9.8c0.1-0.1,0.1-0.2,0.2-0.4
		c-0.5,0-0.9,0-1.3,0c-0.2,0-0.5,0-0.7,0c-0.4,0.5-0.8,1-1.2,1.5c-3.6,4.7-8,8.5-13.1,11.7c-0.3,0.2-0.6,0.2-0.7,0.1
		c-0.2-0.2-0.1-0.5,0.3-0.7c0.7-0.5,1.5-1,2.2-1.5c2.9-1.9,5.5-4,7.7-6.5c1.2-1.4,2.4-2.8,3.6-4.2c0.1-0.1,0-0.2,0.1-0.3
		c-0.3,0-0.6-0.1-0.9-0.1c-0.1,0.2-0.3,0.3-0.4,0.5c-0.9,1.2-1.9,2.3-2.9,3.3c-3.3,3.2-7,5.9-11,8.2c-2.9,1.6-5.9,2.9-8.9,4.2
		c-0.4,0.2-0.7,0.2-1.2,0c-1.2-0.4-2.4-0.8-3.6-1.2c-9.9-3.2-19.8-6.5-29.7-9.7c-0.8-0.3-1.4-0.6-1.9-1.2
		C88.7,94.2,88,93.1,87.3,91.9z M141.5,52.6c-3.3-2.6-6.9-4.9-10.8-6.6c-1.5-0.7-3.1-1.4-4.6-2.1c-0.8-0.4-0.8-0.3-1.6-0.1
		c-3.9,1.3-7.8,2.6-11.7,3.8c-7.1,2.3-14.2,4.7-21.3,7c-0.7,0.2-1.3,0.6-1.7,1.2c-0.1,0.1-0.2,0.2-0.2,0.3c-1.7,2.3-2.9,4.9-3.7,7.7
		c0,0.1,0,0.3,0,0.4c1.2,0.2,1.9,0.1,2.5-0.1c0.2-0.7,0.3-1.3,0.5-2c0-0.2,0.1-0.3,0.2-0.5c0.1-0.2,0.4-0.3,0.6-0.3
		c0.2,0,0.3,0.1,0.5,0.1C91.5,62,92.7,62,94,62c0.3,0,0.7,0,1-0.3c0.1-0.1,0.1-0.3,0.2-0.5c0.2-0.5,0.3-1.1,0.5-1.6
		c0.3-0.9,1.5-1.4,2.4-0.9c0.3,0.2,0.5,0.4,0.5,0.7c0,0.2,0.1,0.4,0.1,0.7c1.1-0.4,2.1-0.8,3.1-1.2c1-0.4,2.1-0.8,3-1.3
		c-0.1-0.3-0.1-0.5-0.2-0.7c0-0.7,0.2-1.2,0.8-1.5c0.6-0.3,1.1-0.1,1.6,0.2c0.2,0.1,0.3,0.3,0.5,0.4c0.2,0.1,0.3,0.3,0.5,0.4
		c4.5-1.7,9-3.5,13.5-5.2c1.1,0.5,2.1,1,3.1,1.5c1,0.5,2,0.9,3,1.4c1,0.5,2,1,3.1,1.5c1,0.5,2,1,3,1.4c0.1-0.1,0.2-0.1,0.2-0.2
		c0.3-0.3,0.5-0.7,0.8-1c0.6-0.7,1.5-0.8,2.1-0.2c0.4,0.4,0.7,0.8,0.8,1.4c0.1,0.6,0,0.7-0.3,1.5c2.2,1,4.3,2.1,6.4,3
		c0.6-0.3,1.2-0.5,1.7-0.7c0.6-0.2,1.1-0.3,1.4-0.8c0.2-0.2,0.5-0.3,0.7-0.5c0.2-0.1,0.3-0.2,0.5-0.3c-0.3-0.6-0.7-1-1.1-1.4
		C145.5,56,143.6,54.3,141.5,52.6L141.5,52.6z M93.5,88.2c-1.1,0-2.2,0-3.2,0.4c-0.9,0.3-1.2,0-1.3-0.7c-0.1-0.7-0.3-1.3-0.5-1.9
		c-1-0.2-1.9-0.1-2.6,0.1c0,0.2,0,0.4,0.1,0.5c0.4,1.2,0.8,2.5,1.3,3.6c0.7,1.6,1.6,3,2.7,4.4c0.3,0.4,0.7,0.8,1.3,0.9
		c0.1,0,0.3,0.1,0.4,0.1c10,3.3,20,6.6,30,9.8c1.2,0.4,2.4,0.8,3.7,1.2c1.9-0.9,3.8-1.7,5.7-2.6c4.4-2.1,8.5-4.7,12.1-7.9
		c1.5-1.3,3-2.7,4.2-4.3c0.3-0.3,0.5-0.7,0.7-1c-0.5-0.3-1-0.6-1.4-0.9c-0.3-0.4-0.7-0.5-1.2-0.7c-0.4-0.1-0.8-0.2-1.1-0.4
		c-0.5-0.3-0.8-0.3-1.3,0c-1.8,0.9-3.6,1.7-5.4,2.6c-0.1,0.1-0.3,0.2-0.4,0.3c0.4,0.7,0.4,0.7,0.3,1.4c0,0.5-0.3,1-0.7,1.4
		c-0.7,0.7-1.6,0.6-2.3-0.1c-0.3-0.4-0.6-0.8-1-1.1c-0.3,0.1-0.6,0.2-0.8,0.4c-1.6,0.8-3.3,1.6-4.9,2.3c-2,0.9-3.9,1.9-5.9,2.8
		c-0.4,0.2-0.8,0.3-1.2,0c-0.1-0.1-0.3-0.1-0.5-0.2c-3.8-1.5-7.6-3-11.5-4.4c-0.3-0.1-0.6-0.2-0.9-0.3c-0.3,0.2-0.5,0.4-0.7,0.6
		c-0.2,0.1-0.4,0.3-0.6,0.4c-0.7,0.3-1.3,0.2-1.8-0.4c-0.3-0.4-0.4-0.8-0.3-1.3c0-0.2,0.1-0.4,0.1-0.6c-1.1-0.4-2.1-0.8-3.1-1.3
		c-1-0.4-2-0.9-3.1-1.2c0,0.3,0,0.5-0.1,0.6c-0.1,0.5-0.4,0.8-0.9,0.9c-1,0.2-1.7-0.3-2-1.2c-0.2-0.7-0.4-1.4-0.6-2
		c-0.1-0.1-0.2-0.1-0.2-0.1C94.4,88.3,94,88.2,93.5,88.2L93.5,88.2z M170.2,84.5c0.3-2,0.5-4,0.6-6.1c0.1-3.6,0.1-7.3-0.3-10.9
		c-0.4-3.3-1-6.6-1.9-9.8c-0.6-2-1.3-3.9-2.2-5.8c-0.1-0.2-0.1-0.5-0.5-0.5c-0.1,0.1-0.2,0.3-0.4,0.4c-0.2,0.2-0.3,0.5-0.5,0.7
		c0.5,0.6,0.7,1.3,1,2c0.9,2.4,1.3,4.9,1.5,7.4c0,0.2,0,0.3,0,0.5c0,0.1-0.2,0.2-0.3,0.2c-0.2,0-0.3-0.1-0.4-0.2
		c0-0.1,0-0.3-0.1-0.4c-0.1-0.9-0.2-1.8-0.4-2.7c-0.3-1.7-0.7-3.4-1.4-5c-0.1-0.3-0.2-0.7-0.4-0.8c-0.7,0.6-1.4,1.2-2.1,1.8
		c0,0.1,0,0.2,0.1,0.3c0.9,2.3,1.3,4.6,1.6,7c0,0.4,0,0.8,0,1.2c0,0.2-0.1,0.3-0.3,0.3c-0.2,0-0.3-0.1-0.4-0.3c0-0.1,0-0.3-0.1-0.4
		c-0.1-0.6-0.1-1.3-0.2-1.9c-0.3-1.7-0.6-3.3-1.2-4.9c-0.1-0.2-0.2-0.5-0.3-0.7c-0.7,0.4-1.3,0.6-1.9,1c0.1,0.3,0.2,0.5,0.2,0.8
		c0.6,2,1,4.1,1.2,6.3c0,0.2,0,0.5,0,0.7c0,0.2-0.2,0.3-0.4,0.2c-0.1,0-0.2-0.1-0.3-0.2c-0.1-0.1-0.1-0.3-0.1-0.5
		c-0.3-2.2-0.7-4.3-1.4-6.4c-0.1-0.2-0.2-0.3-0.3-0.5c-0.5,0.1-1,0.2-1.4,0.4c0.2,1,0.5,2,0.7,3c0.2,1.2,0.3,2.4,0.5,3.5
		c0,0.3,0,0.6-0.1,1c0,0.1-0.2,0.2-0.3,0.2c-0.1,0-0.3-0.1-0.3-0.2c-0.1-0.1-0.1-0.2-0.1-0.4c-0.1-1.8-0.5-3.6-0.9-5.4
		c-0.1-0.5-0.3-0.9-0.4-1.4c-0.6,0.2-1,0.5-1.4,0.9c-0.4,0.4-0.5,0.8-0.3,1.3c0.4,1,0.6,2,0.7,3c0.3,2.7,0.6,5.5,0.6,8.2
		c0.1,4.4,0.1,8.7-0.4,13c-0.2,1.9-0.4,3.7-1,5.5c0,0.1-0.1,0.3-0.1,0.4c0,0.2,0,0.3,0.1,0.5c0.4,0.6,0.9,1.1,1.7,1.4
		c0.1-0.2,0.2-0.4,0.2-0.6c0.3-1.4,0.6-2.8,0.9-4.3c0.1-0.7,0.2-1.5,0.2-2.2c0-0.2,0.2-0.4,0.4-0.4c0.3,0,0.4,0.2,0.4,0.4
		c0,0.3,0,0.6,0,1c-0.2,2-0.5,4-1.1,5.9c0,0.1-0.1,0.3-0.1,0.5c0.5,0.2,0.9,0.4,1.5,0.3c0.1-0.2,0.1-0.3,0.2-0.5
		c0.5-1.7,0.9-3.4,1.2-5.2c0.1-0.5,0.1-1.1,0.2-1.6c0-0.1,0.2-0.3,0.3-0.3c0.2-0.1,0.4,0.1,0.4,0.3c0,0.2,0,0.4,0,0.6
		c-0.2,2.2-0.6,4.3-1.3,6.3c-0.1,0.2-0.1,0.5-0.2,0.7c0.3,0.2,0.6,0.3,0.9,0.5c0.3,0.1,0.6,0.4,1,0.5c0.1-0.4,0.3-0.7,0.4-1
		c0.6-2.1,1.1-4.2,1.3-6.3c0-0.2,0-0.4,0.1-0.6c0.1-0.1,0.3-0.2,0.4-0.2c0.1,0,0.2,0.2,0.3,0.3c0,0.3,0,0.6,0,1
		c-0.2,2.4-0.7,4.7-1.5,6.9c-0.1,0.2-0.1,0.4-0.2,0.6c0.7,0.7,1.4,1.3,2.1,2c0.2-0.6,0.5-1,0.7-1.5c0.8-1.9,1.1-3.9,1.4-5.9
		c0.1-0.5,0.1-1.1,0.2-1.6c0-0.2,0.1-0.3,0.3-0.3c0.2,0,0.4,0.2,0.4,0.4c0,0.2,0,0.3,0,0.5c-0.2,1.3-0.3,2.7-0.6,4
		c-0.4,1.8-0.9,3.6-1.9,5.2c0.5,0.8,0.5,0.8,1,1.2c0.1-0.2,0.2-0.4,0.3-0.6c0.5-1.1,1-2.2,1.4-3.3C169,91.5,169.7,88.1,170.2,84.5
		L170.2,84.5z M128.2,69.4c-0.7,0.8-1.3,1.6-2,2.4c-0.1,0.2-0.3,0.4-0.5,0.5c-0.2,0.2-0.5,0.2-0.6,0.1c-0.2-0.2-0.2-0.3,0-0.5
		c0.2-0.2,0.4-0.5,0.5-0.7c1.9-2.3,3.8-4.6,5.7-6.9c1.7-2,3.4-4.1,5.1-6.1c0.4-0.5,0.5-1.1,0.2-1.6c-0.4-0.7-0.9-0.6-1.2-0.1
		c-0.1,0.1-0.2,0.2-0.2,0.3c-1.1,1.3-2.2,2.7-3.3,4c-2.6,3.2-5.2,6.4-7.8,9.6c-0.2,0.2-0.3,0.4-0.5,0.6c-0.2,0.2-0.4,0.2-0.5,0
		c-0.2-0.2-0.2-0.3-0.1-0.5c0.1-0.1,0.1-0.2,0.2-0.3c0.2-0.3,0.4-0.5,0.6-0.8c2.9-3.6,5.9-7.2,8.8-10.8c0.2-0.3,0.5-0.5,0.6-0.9
		c-0.3-0.2-0.6-0.3-0.9-0.5c-3.1-1.5-6.2-2.9-9.3-4.4c-0.3-0.1-0.6-0.4-1-0.3c-0.1,0.8,0,1.6,0,2.3c0,0.8,0,1.5,0,2.3
		c0,0.8,0,1.5,0,2.3c0,0.8,0,1.5,0,2.3c0,0.8,0,1.5,0,2.3c0.2,0.1,0.4,0.2,0.5,0.2c0.7,0.2,1.5,0.4,2.2,0.6c0.2,0.1,0.5,0.1,0.7,0.2
		c0.1,0.1,0.2,0.3,0.2,0.4c0,0.2-0.2,0.3-0.4,0.3c-0.2,0-0.3-0.1-0.5-0.1c-0.7-0.2-1.4-0.4-2-0.6c-0.2,0-0.4,0-0.6-0.1
		c0,0.2,0,0.4,0,0.6c0,1.2,0,2.5,0,3.7c0,0.3,0,0.6,0,0.9c0,0.2-0.1,0.4-0.4,0.4c-0.2,0-0.4-0.2-0.5-0.4c0-0.3,0-0.5,0-0.8
		c0-1.3,0-2.5,0-3.8c0-0.2-0.1-0.4-0.1-0.7c-0.4,0.1-0.7,0.1-1,0.1c-0.7,0.1-1.3,0.3-2,0.4c-0.2,0-0.3,0.1-0.5,0.1
		c-0.2,0-0.3-0.1-0.4-0.3c0-0.1,0.1-0.3,0.2-0.4c0.2-0.1,0.5-0.2,0.8-0.2c0.7-0.2,1.5-0.3,2.2-0.4c0.3-0.1,0.5-0.2,0.8-0.3
		c-0.1-3.9-0.1-7.8-0.2-11.7c-0.2,0.1-0.4,0.1-0.6,0.2c-3.8,1.5-7.6,3-11.5,4.4c-0.1,0.1-0.3,0.2-0.4,0.3c0.2,0.2,0.3,0.4,0.5,0.6
		c4.1,4.9,8.2,9.9,12.2,14.8c1.7,2.1,3.4,4.1,5.1,6.1c3.3,3.9,6.6,7.9,9.8,11.8c0.1,0.2,0.3,0.3,0.5,0.5c2.2-1.1,4.4-2.1,6.6-3.1
		c0.3-0.2,0.5-0.4,0.6-0.7c0.5-1.8,0.9-3.6,1.1-5.4c0-0.1,0-0.3-0.1-0.4c-0.2,0-0.3,0-0.4,0c-3.7,0.7-7.4,1.4-11.1,2.2
		c-0.3,0.1-0.7,0.1-1,0.1c-0.2,0-0.4-0.1-0.4-0.3c0-0.2,0.1-0.4,0.3-0.4c0.2-0.1,0.5-0.1,0.7-0.2c3.5-0.7,7.1-1.4,10.6-2.1
		c0.5-0.1,1-0.1,1.4-0.3c0.3-1.1,0.3-1.7,0.2-2.5c-0.2,0.1-0.3,0.1-0.5,0.2c-3.3,1.6-6.8,2-10.5,1.7c-0.8-0.1-1.7-0.2-2.5-0.4
		c-0.3-0.1-0.7-0.2-1-0.3c-0.2-0.1-0.4-0.2-0.3-0.4c0-0.1,0.1-0.3,0.3-0.4c0.2-0.1,0.5-0.2,0.7-0.3c0.7-0.3,1.5-0.6,2.2-0.9
		c0.1-0.1,0.2-0.2,0.4-0.4c-1.1-0.1-2-0.2-2.9-0.3c-1.6-0.2-3.2-0.4-4.8-0.3c-0.2,0-0.3,0-0.5,0c-0.5-0.1-0.6-0.5-0.3-0.9
		c0.2-0.2,0.3-0.3,0.5-0.4c1.1-0.7,2.3-1.4,3.4-2c1.9-1,3.9-1.7,6.1-1.8c0.5-0.6,0.5-0.6,1.1-0.7c0.3,0,0.7,0,1,0
		c2.4,0.2,4.7,0.6,6.9,1.6c0.1,0.1,0.3,0.1,0.5,0.1c0-0.8,0-1.5-0.3-2.1c-1.4-0.3-2.8-0.6-4.2-0.8c-2.7-0.5-5.4-1-8.1-1.6
		c-0.2,0-0.5-0.1-0.7-0.2c-0.1,0-0.1-0.2-0.1-0.3c0-0.1,0.1-0.2,0.2-0.3c0.2,0,0.4,0,0.6,0c1.6,0.3,3.2,0.6,4.8,0.9
		c2.1,0.4,4.2,0.8,6.4,1.2c0.3,0.1,0.6,0.2,1,0.1c0-0.4,0-0.7-0.1-1c-0.2-1.6-0.6-3.1-1-4.6c-0.1-0.4-0.4-0.7-0.8-0.9
		c-1.9-0.9-3.7-1.8-5.5-2.6c-0.3-0.1-0.6-0.3-1-0.5C133.9,62.5,131.1,65.9,128.2,69.4L128.2,69.4z M112.9,67.5
		c-0.1-0.1-0.1-0.2-0.2-0.2c-2.4-3-4.8-5.9-7.2-8.9c0,0-0.1,0-0.1,0c0,0-0.1,0-0.1,0c-2.1,0.8-4.2,1.7-6.3,2.5
		c-0.5,0.2-0.7,0.5-0.8,1c-0.2,1-0.4,2-0.5,3c-0.2,1.4-0.3,2.9-0.5,4.3c0,0.2,0,0.4,0.1,0.6c0.3-0.1,0.5-0.1,0.8-0.1
		c1.9-0.4,3.8-0.9,5.7-1.3c2.1-0.5,4.3-1,6.4-1.5c0.2,0,0.4-0.1,0.6-0.1c0.1,0,0.3,0.2,0.3,0.3c0,0.1,0,0.3-0.1,0.3
		c-0.2,0.1-0.5,0.2-0.8,0.3c-4.1,1-8.1,1.9-12.2,2.9c-0.3,0.1-0.6,0.1-0.8,0.3c-0.2,1.8-0.2,7.7,0.1,8.7c0.5,0.1,1.1,0.3,1.6,0.4
		c3.7,0.9,7.5,1.8,11.2,2.6c0.3,0.1,0.5,0.1,0.8,0.2c0.2,0.1,0.3,0.3,0.2,0.5c-0.1,0.1-0.3,0.2-0.4,0.2c-0.3,0-0.7-0.1-1-0.2
		c-3.8-0.9-7.7-1.8-11.5-2.7c-0.3-0.1-0.6-0.1-0.9-0.1c0,0.7,0,1.2,0.1,1.8c0.2,2.1,0.6,4.1,1,6.1c0.1,0.5,0.3,0.7,0.8,0.9
		c2,0.8,4,1.6,6,2.4c0.1,0.1,0.3,0.1,0.5,0.1c0.2-0.3,0.5-0.5,0.7-0.8c2.6-3.2,5.3-6.5,7.9-9.7c1.2-1.5,2.4-3,3.7-4.5
		c0.2-0.2,0.4-0.4,0.6-0.5c0.1-0.1,0.3,0,0.4,0c0.1,0.1,0.2,0.2,0.1,0.3c0,0.1-0.1,0.3-0.2,0.4c-0.3,0.3-0.5,0.7-0.8,1
		c-3.7,4.6-7.5,9.2-11.2,13.8c-0.3,0.4-0.6,0.7-0.8,1.1c-0.2,0.3-0.2,0.6-0.1,0.9c0.2,0.3,0.5,0.5,0.8,0.2c0.3-0.2,0.6-0.5,0.8-0.7
		c4-4.8,8-9.7,12-14.5c0.1-0.2,0.3-0.4,0.5-0.5c0.1-0.1,0.3-0.1,0.5-0.1c0.2,0,0.3,0.3,0.2,0.5c-0.2,0.3-0.4,0.5-0.6,0.8
		c-3.5,4.3-7,8.5-10.5,12.8c-0.2,0.2-0.3,0.5-0.5,0.7c0.8,0.5,5.9,2.5,11.7,4.6c0.2,0.1,0.4,0.1,0.7,0.2c0-0.1,0.1-0.2,0.1-0.3
		c0.1-3.6,0.1-7.3,0.1-10.9c0-0.1,0-0.2-0.1-0.3c-0.3-0.3-0.6-0.3-0.9-0.4c-0.8-0.2-1.6-0.4-2.5-0.6c-0.2-0.1-0.4-0.1-0.5-0.2
		c-0.1-0.1-0.1-0.2-0.1-0.3c0-0.1,0.2-0.2,0.3-0.3c0.2,0,0.3,0,0.5,0c0.9,0.2,1.8,0.5,2.8,0.7c0.2,0,0.4,0,0.6,0.1
		c0-0.4,0-0.6,0-0.9c0-1.3,0-2.5,0-3.8c0-0.3,0-0.5,0.1-0.8c0-0.1,0.2-0.2,0.4-0.3c0.2,0,0.3,0.1,0.4,0.3c0,0.3,0,0.6,0,0.9
		c0,1.3,0,2.6,0,4c0,0.2,0,0.4,0.1,0.6c0.7-0.1,1.2-0.3,1.8-0.4c0.3-0.1,0.5-0.1,0.8-0.1c0.2,0,0.5,0.2,0.4,0.3
		c0,0.1-0.1,0.3-0.2,0.4c-0.3,0.1-0.6,0.2-1,0.3c-0.6,0.1-1.2,0.3-1.9,0.4c0,0.4,0,0.7,0,1c0,1.8,0,3.5-0.1,5.3
		c0,1.5-0.1,3.1-0.1,4.6c0,0.2-0.1,0.5,0.3,0.6c3.5-1.7,7.1-3.4,10.7-5.1c0.1-0.1,0.2-0.1,0.4-0.3C126.5,84.2,119.7,75.9,112.9,67.5
		z M86.3,97.2c-2.6-3.4-4.4-7.1-5.3-11.2c-0.4-0.3-0.8-0.2-1.2-0.2c-1.2,0-1.1,0-1.5-1c-0.3-0.9-1-1.2-1.9-1.2c-0.3,0-0.6-0.1-1-0.1
		c-0.3,0.1-0.6,0.4-1,0.7c-0.5,0.4-1,0.9-1.5,1.3c-1.5,1.4-3.7,1.6-5.5,0.5c-0.6-0.4-1.1-0.8-1.7-1.3c-0.7-0.6-1.1-1.3-1.3-2.2
		c-0.2-0.7-0.3-1.5-0.5-2.2c0-0.2-0.1-0.4-0.2-0.7c-0.4,0.5-0.7,0.8-1,1.2c-0.4,0.4-0.8,0.7-1.2,1.1c-0.4,0.3-0.8,0.6-1.3,0.8
		c-0.4,0.2-0.9,0.4-1.4,0.6c-0.5,0.2-1,0.3-1.6,0.4c-0.5,0.1-1,0.2-1.5,0.2c-0.5,0-1.1,0-1.6-0.1c-0.5-0.1-1-0.2-1.5-0.3
		c-0.5-0.1-1-0.3-1.4-0.6c-0.5-0.2-0.9-0.5-1.4-0.8c-0.4-0.3-0.8-0.6-1.1-1c-3.6-3.6-3.5-9.2,0.1-12.7c0.8-0.8,1.8-1.4,2.8-1.9
		c1-0.4,2.1-0.7,3.2-0.8c1.2-0.1,2.3,0.1,3.4,0.4c1.1,0.3,2.1,0.8,3,1.4c0.9,0.6,1.6,1.5,2.4,2.4c0.1-0.2,0.1-0.3,0.2-0.4
		c0.2-0.8,0.3-1.5,0.5-2.3c0.2-0.8,0.6-1.5,1.2-2.1c0.7-0.7,1.5-1.2,2.4-1.6c1.5-0.7,3.4-0.4,4.6,0.7c0.4,0.4,0.9,0.8,1.3,1.2
		c0.4,0.4,0.9,0.7,1.3,1c0.4-0.2,0.7-0.2,1.1-0.2c0.4,0,0.7-0.1,1.1-0.3c0.2-0.1,0.3-0.3,0.4-0.4c0,0,0.1-0.1,0.1-0.2
		c0.7-1.4,0.4-1.2,2-1.2c0.2,0,0.5,0,0.8,0c0.1-0.2,0.1-0.4,0.2-0.5c0.8-3.5,2.3-6.7,4.3-9.6c0.3-0.5,0.7-0.9,1-1.3
		c0.4-0.5,0.8-0.7,1.4-0.9c4.1-1.3,8.1-2.6,12.2-4c8.4-2.8,16.9-5.5,25.3-8.3c0.7-0.2,1.3-0.3,2-0.1c1.5,0.3,3,0.9,4.4,1.6
		c4.9,2.4,9.4,5.3,13.5,8.8c2.9,2.5,5.6,5.1,8.2,7.8c0.2,0.3,0.5,0.5,0.8,0.8c0,0,0.1,0,0.2,0.1c0.1,0,0.2-0.1,0.2-0.1
		c0.7-0.8,1.7-1.3,2.7-1.6c0.4-0.1,0.7-0.2,1.1-0.3c2.2-0.7,4.1-1.9,5.5-3.8c0.4-0.5,0.8-1.1,1.2-1.6c0.3-0.3,0.6-0.6,1-0.8
		c0.3-0.1,0.5,0,0.6,0.2c0.1,0.2,0.2,0.3,0.3,0.5c1.6,3.4,2.7,6.9,3.5,10.5c0.7,3.4,1.1,6.7,1.3,10.2c0.1,2.7,0.1,5.4-0.1,8.1
		c-0.4,5.8-1.4,11.5-3.6,17c-0.4,1-0.8,1.9-1.3,2.8c-0.2,0.3-0.4,0.4-0.7,0.3c-0.3-0.2-0.6-0.4-0.9-0.7c-0.3-0.4-0.6-0.8-0.9-1.2
		c-1.6-2.3-3.8-3.7-6.5-4.5c-0.5-0.1-0.9-0.3-1.3-0.4c-0.8-0.3-1.4-0.8-1.9-1.4c-0.2,0.1-0.4,0.2-0.5,0.3c-0.4,0.3-0.7,0.7-1,1.1
		c-3.1,3.3-6.4,6.4-10,9.2c-3.5,2.7-7.3,5.1-11.4,7c-1.4,0.7-2.9,1.2-4.5,1.5c-0.5,0.1-0.9,0.1-1.4-0.1c-2.8-0.9-5.6-1.8-8.4-2.8
		c-9.6-3.1-19.3-6.3-28.9-9.4c-0.1,0-0.2-0.1-0.3-0.1C87.3,98.3,86.7,97.9,86.3,97.2L86.3,97.2z M227.9,3.7c0.1,1,0.6,1.7,1.5,2.2
		c1,0.6,2,1,3.2,1.1c0.2,0,0.4,0.1,0.6-0.1c0.1-1.1,0.1-2.8-0.1-3.5c-0.1,0-0.2,0-0.4,0c-1.4,0-2.8,0-4.3,0
		C228.3,3.5,228.1,3.5,227.9,3.7z M233.2,144.5c0-0.5,0.1-1-0.1-1.4c-1.6,0.1-3,0.6-4.2,1.5c-0.7,0.5-1,1.2-0.9,2.1
		c0.6,0,1.2,0,1.8,0c0.6,0,1.1,0,1.7,0c0.6,0,1.1,0.1,1.8-0.1C233.2,146,233.2,145.4,233.2,144.5z M10.2,3.9c0-0.2,0-0.3-0.2-0.4
		c-0.1,0-0.2,0-0.3,0c-1.5,0-3,0-4.5,0C5.1,3.5,5,3.6,4.9,3.6c-0.2,1-0.1,2.7,0,3.4c0,0,0.1,0,0.1,0c0.1,0,0.2,0,0.3,0
		C6.5,7,7.6,6.6,8.6,6C9.4,5.5,9.9,4.9,10.2,3.9z M7.6,146.7c0.4,0,0.8,0,1.2,0c0.4,0,0.9,0.1,1.3-0.1c0-0.9-0.3-1.5-1-2
		c-1.2-0.9-2.5-1.4-4-1.5c-0.1,0-0.2,0.1-0.3,0.1c-0.2,0.9-0.2,2.8,0.1,3.5C5.8,146.7,6.6,146.7,7.6,146.7L7.6,146.7z M210.9,53.2
		c0,28.9,0,57.7,0.1,86.6c0,2,0,4,0,6c0,0.3-0.1,0.6,0.1,0.9c0.8,0.1,13.7,0.1,14.7,0c0.2-0.4,0.5-0.9,0.8-1.3
		c0.3-0.4,0.7-0.8,1-1.2c1.3-1.4,2.9-2.1,4.9-2.3c0.2,0,0.4-0.1,0.7-0.1c0-0.4,0-0.8,0-1.1c0-14.4,0-28.8,0-43.2
		c0-24.4,0-48.8,0-73.1c0-5,0-9.9,0-14.9c0-0.3,0.1-0.7-0.1-1.1c-3.6-0.1-5.8-2-7.3-4.9c-0.4,0-0.8,0-1.1,0c-2.2,0-4.5,0-6.7,0
		c-2,0-4.1,0-6.1,0c-0.3,0-0.6-0.1-0.9,0.2C210.9,20.1,210.9,36.5,210.9,53.2z M4.7,39.4c0,11.2-0.1,22.4-0.1,33.6
		c0,19.2,0.1,38.3,0.1,57.5c0,3.4,0,6.8,0,10.3c0,0.3-0.1,0.7,0.2,1.1c1.6,0,3.1,0.3,4.4,1.3c1.3,0.9,2.3,2.1,2.9,3.6
		c0.4,0,0.8,0,1.2,0c64.8,0,129.6,0,194.4,0c0.4,0,0.7,0,1.1,0c0.2,0,0.4-0.1,0.6-0.1c0-0.4,0-0.7,0-1.1c0-12.9,0-25.8,0-38.7
		c0-34,0-68,0-102c0-0.3,0-0.5,0-0.8c0-0.2-0.1-0.4-0.1-0.5c-65.8,0-131.5,0-197.3,0C11.6,5,10.6,6.1,9.3,7.1C8,8.1,6.5,8.3,4.8,8.4
		C4.7,18.7,4.7,29,4.7,39.4z M65,2.3c56.5,0,113-0.1,169.4-0.1c0.1,0,0.1,0.1,0.2,0.1c0,0.1,0,0.3-0.1,0.4c-0.3,0.5-0.3,1-0.3,1.6
		c0,7.4,0,14.8,0,22.2c0,21.1,0,42.2,0,63.3c0,18.5,0,37.1,0,55.6c0,0.8,0,1.5,0.4,2.3c0,0,0,0.1,0,0.2c-0.3,0.2-0.6,0.1-1,0.1
		c-2,0-3.9,0-5.9,0c-27.3,0-54.6-0.1-81.8-0.1c-26.7,0-53.5,0-80.2,0c-20.1,0-40.1,0-60.2,0c-0.6,0-1.3,0.1-1.9-0.1
		c-0.1-1.1-0.1-2.1-0.1-3.2c0-1.1,0-2.2,0-3.3c0-1.1,0-2.1,0-3.2c0-1.1,0-2.2,0-3.3c0-1.1,0-2.1,0-3.2c0-1.1,0-2.1,0-3.2
		c0-1.1,0-2.2,0-3.3c0-1.1,0-2.1,0-3.2c0-1.1,0-2.2,0-3.3c0-1.1,0-2.1,0-3.2c0-1.1,0-2.1,0-3.2c0-1.1,0-2.2,0-3.3c0-1.1,0-2.1,0-3.2
		c0-1.1,0-2.2,0-3.3c0-1.1,0-2.1,0-3.2c0-1.1,0-2.1,0-3.2c0-1.1,0-2.2,0-3.3c0-1.1,0-2.1,0-3.2c0-1.1,0-2.2,0-3.3c0-1.1,0-2.1,0-3.2
		c0-1.1,0-2.1,0-3.2c0-1.1,0-2.2,0-3.3c0-1.1,0-2.1,0-3.2c0-1.1,0-2.2,0-3.3c0-1.1,0-2.1,0-3.2c0-1.1,0-2.1,0-3.2c0-1.1,0-2.2,0-3.3
		c0-1.1,0-2.1,0-3.2c0-1.1,0-2.2,0-3.3c0-1.1,0-2.1,0-3.2c0-1.1,0-2.1,0-3.2c0-1.1,0-2.2,0-3.3c0-1.1,0-2.1,0-3.2c0-1.1,0-2.2,0-3.3
		c0-1.1,0-2.1,0-3.2c0-1.1,0-2.1,0-3.2c0-1.1,0-2.2,0-3.3c0-1.1,0-2.1,0-3.2c0-1.1,0-2.2,0-3.3c0-1.1,0-2.1,0-3.2c0-1.1,0-2.1,0-3.2
		c0-1.1,0-2.2,0-3.3c0-1.1,0-2.1,0-3.2c0-1.1,0-2.2,0-3.3c0-1.1,0-2.1,0-3.2c0.3,0,0.6-0.1,0.9-0.1c5.8,0,11.5,0,17.3,0
		C36.1,2.3,50.5,2.3,65,2.3L65,2.3z"/>
</g>
</svg>
