<?xml version="1.0" encoding="utf-8"?>
<!-- Generator: Adobe Illustrator 24.0.2, SVG Export Plug-In . SVG Version: 6.00 Build 0)  -->
<svg version="1.1"
	 id="Слой_1" shape-rendering="geometricPrecision" image-rendering="optimizeQuality" text-rendering="geometricPrecision" xmlns:xodm="http://www.corel.com/coreldraw/odm/2003"
	 xmlns="http://www.w3.org/2000/svg" xmlns:xlink="http://www.w3.org/1999/xlink" x="0px" y="0px" viewBox="0 0 238.1 150.2"
	 style="enable-background:new 0 0 238.1 150.2;" xml:space="preserve">
<style type="text/css">
	.st0{fill-rule:evenodd;clip-rule:evenodd;}
</style>
<g id="Layer_x0020_1">
	<path class="st0" d="M125.8,67.6c0.4-0.2,0.4-0.2,0.3-0.8C125.8,66.9,125.6,67.1,125.8,67.6z M126.4,68.3c-0.5,0.3-1,0.2-1.3-0.2
		c-0.3-0.4-0.3-0.8-0.2-1.2c0-0.1,0.1-0.1,0.1-0.2c0.3-0.6,1-0.9,1.5-0.7c0.5,0.2,0.8,0.9,0.5,1.6C126.9,67.8,126.7,68,126.4,68.3
		L126.4,68.3z M128.5,57.9c0.1-0.2,0.1-0.4,0-0.5c-0.1-0.1-0.2-0.2-0.3-0.1c-0.2,0.1-0.4,0.2-0.4,0.5c0,0.1,0.1,0.3,0.2,0.4
		C128.1,58.3,128.3,58.2,128.5,57.9z M127.4,56.8c0.1-0.1,0.1-0.1,0.1-0.1c0.5-0.3,0.9-0.3,1.4,0c0.4,0.3,0.6,0.8,0.5,1.4
		c-0.2,0.5-0.5,0.9-1.1,1c-0.8,0.2-1.6-0.6-1.4-1.4C127,57.4,127.2,57.1,127.4,56.8z M127.3,63c0-0.1,0.1-0.2,0.1-0.3
		c0-0.4-0.1-0.7-0.4-0.7c-0.2,0-0.5,0.3-0.5,0.6c0,0.1,0,0.2,0.1,0.3C126.7,63.3,126.8,63.3,127.3,63z M127,64.1
		c-0.7,0-1.1-0.3-1.3-0.8c-0.2-0.6-0.1-1.1,0.3-1.5c0.6-0.7,1.6-0.6,2,0.2c0.3,0.6,0.2,1.4-0.4,1.9C127.5,63.9,127.3,64,127,64.1z
		 M126,82.6c0.3,0,0.3-0.2,0.2-0.3c-0.1-0.2-0.2-0.3-0.3-0.5c0,0-0.1,0-0.2,0c-0.2,0.2-0.1,0.3,0,0.5
		C125.8,82.4,125.9,82.5,126,82.6L126,82.6z M126.5,83.4c-0.5,0.2-0.9,0-1.2-0.3c-0.3-0.3-0.5-0.7-0.4-1.2c0.1-0.4,0.2-0.7,0.7-0.9
		c0.4-0.1,0.8,0,1.1,0.2c0.3,0.3,0.5,0.7,0.5,1.1C127.1,82.8,127,83.2,126.5,83.4L126.5,83.4z M127.9,91.4c-0.1,0.2-0.1,0.5,0.1,0.7
		c0.1,0.1,0.2,0.1,0.3,0.1c0.1,0,0.2-0.1,0.3-0.2C128.7,91.6,128.5,91.3,127.9,91.4z M129.4,91.9c0,0.2-0.1,0.3-0.1,0.4
		c-0.2,0.4-0.6,0.7-1.1,0.7c-0.5,0-0.9-0.3-1.1-0.7c-0.2-0.3-0.3-0.6-0.2-0.9c0.1-0.5,0.5-0.9,0.9-1c0.5-0.1,0.9,0.1,1.2,0.4
		C129.3,91.1,129.5,91.4,129.4,91.9z M127,87.3c0.2,0,0.4-0.2,0.4-0.3c0.1-0.2,0-0.5-0.1-0.6c-0.1-0.1-0.3-0.2-0.4-0.2
		c-0.1,0-0.2,0.1-0.3,0.2C126.4,86.8,126.6,87,127,87.3L127,87.3z M126.7,88.1c-0.6-0.2-0.9-0.6-1-1c-0.1-0.4,0-0.8,0.2-1.2
		c0.4-0.7,1.3-0.8,1.9-0.2c0.5,0.4,0.6,1.2,0.3,1.8C127.8,88,127.4,88.2,126.7,88.1z M116.9,78.9c-0.2-0.2-0.5-0.2-0.7-0.1
		c-0.1,0.1-0.2,0.3-0.2,0.5c0,0.2,0.2,0.5,0.5,0.5c0.2,0,0.3-0.1,0.5-0.3C117,79.2,117,79,116.9,78.9z M106.9,78.6
		c0.3,0.1,0.5,0,0.7-0.2c0.2-0.3,0.1-0.6-0.2-0.8c-0.2-0.1-0.5-0.1-0.7,0.1c-0.1,0.1-0.1,0.3-0.1,0.5
		C106.7,78.5,106.8,78.6,106.9,78.6z M110.3,84.1c-0.2,0.1-0.3,0.4-0.2,0.6c0.1,0.2,0.4,0.4,0.6,0.4c0.2,0,0.4-0.2,0.5-0.4
		c0-0.2,0-0.4-0.3-0.5C110.7,84.1,110.5,84.1,110.3,84.1z M107.4,80.1c-0.2,0.1-0.3,0.3-0.2,0.6c0.1,0.3,0.3,0.4,0.6,0.4
		c0.3,0,0.4-0.2,0.5-0.4c0-0.1-0.1-0.3-0.2-0.5C107.8,79.9,107.6,79.9,107.4,80.1z M113,78.7c0-0.3-0.2-0.6-0.5-0.6
		c-0.3,0-0.5,0.1-0.6,0.4c-0.1,0.3,0,0.6,0.4,0.7c0.1,0,0.3,0,0.5,0C112.8,78.9,113,78.8,113,78.7L113,78.7z M113.6,86.5
		c0.3,0,0.5-0.2,0.6-0.4c0.1-0.2-0.1-0.5-0.3-0.6c-0.2-0.1-0.5,0-0.7,0.2c-0.1,0.2-0.1,0.3,0,0.6C113.3,86.4,113.5,86.5,113.6,86.5
		L113.6,86.5z M116.6,83c0.2-0.1,0.3-0.3,0.2-0.6c-0.1-0.2-0.2-0.4-0.5-0.4c-0.3,0-0.4,0.1-0.6,0.3c-0.2,0.3,0,0.5,0.2,0.7
		C116.2,83.1,116.4,83.1,116.6,83z M107.2,82.7c-0.2-0.1-0.4-0.2-0.6,0c-0.2,0.1-0.3,0.3-0.3,0.6c0,0.2,0.3,0.4,0.6,0.4
		c0.3,0,0.4-0.1,0.6-0.4C107.4,83,107.4,82.9,107.2,82.7z M111.9,82.3c0.3,0,0.5-0.2,0.5-0.5c0-0.3-0.1-0.6-0.5-0.6
		c-0.3-0.1-0.6,0-0.8,0.4C111.4,82.1,111.6,82.3,111.9,82.3z M108.3,87.1c-0.2,0.1-0.2,0.3-0.2,0.5c0.1,0.3,0.4,0.5,0.8,0.4
		c0.3-0.1,0.5-0.3,0.4-0.6c0-0.1-0.1-0.2-0.2-0.4C108.7,86.9,108.5,86.9,108.3,87.1z M116.8,87.2c0.2,0.2,0.4,0.3,0.7,0.2
		c0.3-0.1,0.5-0.4,0.4-0.7c-0.1-0.3-0.3-0.4-0.6-0.4c-0.2,0-0.3,0.1-0.5,0.2C116.7,86.8,116.7,87,116.8,87.2z M117.5,90.1
		c-0.1-0.2-0.3-0.3-0.4-0.4c-0.2-0.1-0.5,0-0.7,0.2c-0.2,0.2-0.1,0.5,0.1,0.7c0.2,0.2,0.5,0.2,0.8,0.1
		C117.5,90.5,117.7,90.3,117.5,90.1z M106.2,86.2c0.3-0.3,0.3-0.5,0.1-0.8c-0.2-0.2-0.5-0.3-0.8-0.2c-0.3,0.1-0.4,0.5-0.2,0.7
		c0.1,0.2,0.3,0.3,0.6,0.3C106,86.3,106.1,86.2,106.2,86.2z M112.4,89.3c0.1,0.3,0.5,0.5,0.9,0.5c0.4-0.1,0.6-0.5,0.4-0.8
		c-0.1-0.2-0.3-0.3-0.7-0.3C112.4,88.9,112.3,89,112.4,89.3L112.4,89.3z M107.7,68.4c-0.3,0-0.4,0.1-0.5,0.4c-0.1,0.2,0,0.5,0.2,0.6
		c0.2,0.1,0.6,0.1,0.7-0.1c0.1-0.1,0.1-0.3,0.1-0.6C108,68.5,107.8,68.4,107.7,68.4z M106.5,65.8c-0.2,0.1-0.3,0.4-0.2,0.6
		c0.1,0.2,0.4,0.4,0.6,0.4c0.2,0,0.4-0.2,0.5-0.4c0-0.2,0-0.4-0.3-0.5C106.9,65.8,106.7,65.8,106.5,65.8z M107.7,71.3
		c0-0.3-0.2-0.4-0.4-0.5c-0.2-0.1-0.5,0-0.6,0.2c-0.1,0.2-0.1,0.4,0,0.6c0.1,0.2,0.4,0.3,0.7,0.2C107.6,71.6,107.7,71.5,107.7,71.3z
		 M111.9,70.6c-0.1,0.3,0,0.5,0.2,0.6c0.3,0.1,0.6,0.1,0.8-0.2c0.2-0.2,0.1-0.5-0.1-0.7c-0.1-0.1-0.3-0.1-0.5-0.1
		C112.1,70.4,111.9,70.5,111.9,70.6z M114.2,63.5c0-0.3-0.2-0.5-0.4-0.5c-0.3-0.1-0.5,0.1-0.7,0.3c-0.1,0.2-0.1,0.5,0.2,0.7
		c0.2,0.1,0.4,0.2,0.6,0C114.1,63.8,114.2,63.6,114.2,63.5z M111,64.4c-0.2-0.1-0.4-0.2-0.6,0c-0.2,0.1-0.3,0.4-0.2,0.6
		c0.1,0.2,0.3,0.3,0.5,0.3c0.3,0,0.4-0.1,0.6-0.4C111.3,64.7,111.2,64.6,111,64.4z M115.8,66.6c-0.2,0.3-0.1,0.5,0.2,0.7
		c0.2,0.1,0.5,0.1,0.7-0.1c0.2-0.2,0.2-0.5-0.1-0.7c-0.1-0.1-0.3-0.1-0.5-0.1C115.9,66.5,115.8,66.5,115.8,66.6z M116.9,69.9
		c-0.2-0.2-0.5-0.3-0.7-0.2c-0.3,0.1-0.4,0.4-0.3,0.6c0.1,0.2,0.3,0.4,0.6,0.4c0.1,0,0.3-0.1,0.5-0.3C117.1,70.2,117,70,116.9,69.9z
		 M106.1,64.1c0.3-0.2,0.4-0.5,0.2-0.7c-0.2-0.3-0.5-0.4-0.8-0.3c-0.3,0.1-0.4,0.3-0.3,0.9C105.6,64.3,105.8,64.3,106.1,64.1z
		 M109.1,62.3c0.2-0.2,0.2-0.4,0.1-0.6c-0.1-0.2-0.3-0.3-0.5-0.3c-0.3,0-0.5,0.1-0.7,0.3c-0.1,0.3-0.1,0.5,0.2,0.7
		C108.7,62.5,108.9,62.5,109.1,62.3z M111.5,67.3c-0.2,0.2-0.3,0.4-0.2,0.7c0.1,0.3,0.4,0.4,0.8,0.3c0.3-0.1,0.4-0.3,0.4-0.6
		c0-0.3-0.2-0.4-0.5-0.5C111.8,67.2,111.6,67.2,111.5,67.3z M117.5,59.5c0.1-0.2,0.2-0.3,0.1-0.5c-0.1-0.2-0.2-0.3-0.5-0.3
		c-0.2,0-0.5,0-0.6,0.2c-0.2,0.3-0.2,0.5,0.1,0.8C117,59.9,117.2,59.8,117.5,59.5z M117.4,62c-0.3,0-0.6,0.2-0.7,0.5
		c0,0.2,0.1,0.5,0.4,0.6c0.1,0,0.3,0.1,0.5,0c0.3-0.1,0.4-0.3,0.4-0.7C117.8,62.1,117.7,62,117.4,62z M112.4,60.4
		c0.1,0.2,0.2,0.4,0.5,0.4c0.3,0,0.6,0,0.8-0.3c0.1-0.2,0.1-0.3,0-0.5c-0.1-0.2-0.3-0.3-0.5-0.3c-0.3,0-0.6,0.1-0.8,0.4
		C112.4,60.2,112.4,60.3,112.4,60.4L112.4,60.4z M149.4,94.9c-0.5,2.1-0.9,4.3-1,6.5c0,0.2,0,0.5,0.1,0.7c0,0.1,0.2,0.2,0.4,0.2
		c0.1,0,0.3-0.1,0.3-0.2c0.1-0.3,0.1-0.6,0.2-0.9c0.1-0.9,0.2-1.9,0.3-2.8c0.4-2.7,1.1-5.4,2-8c1.1-3.2,2.5-6.4,4.2-9.3
		c0.1-0.2,0.3-0.5,0.4-0.8c0-0.1-0.1-0.3-0.1-0.3c-0.1-0.1-0.3-0.1-0.5,0c-0.2,0.2-0.3,0.3-0.4,0.5c-0.7,1.3-1.4,2.5-2.1,3.9
		C151.5,87.8,150.2,91.3,149.4,94.9L149.4,94.9z M154.5,90.8c-1,2.9-1.6,6-2,9c-0.2,1.4-0.3,2.9-0.3,4.4c0,0.2,0,0.4,0,0.7
		c0,0.1,0.2,0.2,0.3,0.2c0.1,0,0.4-0.1,0.4-0.2c0.1-0.2,0.1-0.4,0.1-0.6c0.1-1,0.1-2.1,0.2-3.1c0.3-3.3,0.9-6.6,1.9-9.8
		c1.2-3.8,2.8-7.4,5.2-10.7c0.1-0.1,0.1-0.2,0.1-0.3c0.1-0.2,0-0.3-0.2-0.4c-0.1,0-0.3,0-0.4,0c-0.2,0.2-0.5,0.5-0.6,0.7
		c-0.6,1-1.3,2-1.9,3.1C156.1,86.1,155.2,88.4,154.5,90.8L154.5,90.8z M160.5,90.7c1-3.3,2.2-6.5,4.2-9.3c0.1-0.1,0.1-0.2,0.2-0.2
		c0.1-0.2,0.1-0.4-0.1-0.5c-0.2-0.1-0.4,0-0.5,0.1c-0.2,0.2-0.4,0.5-0.5,0.7c-1.5,2.2-2.5,4.6-3.4,7.1c-1,2.8-1.6,5.7-2.2,8.6
		c-0.3,1.5-0.6,3-0.6,4.5c0,1.9,0,3.9,0,5.8c0,0.2,0,0.3,0.1,0.5c0.1,0.1,0.3,0.2,0.4,0.2c0.1,0,0.2-0.1,0.3-0.2
		c0-0.4,0.1-0.8,0.1-1.1c-0.1-2.8-0.1-5.6,0.4-8.4C159.2,95.7,159.7,93.1,160.5,90.7L160.5,90.7z M149.2,47.9c0-0.2-0.1-0.4-0.1-0.6
		c0-0.1-0.2-0.2-0.3-0.2c-0.1,0-0.3,0.1-0.3,0.2c-0.1,0.2-0.1,0.4-0.1,0.6c0.1,1.6,0.3,3.2,0.6,4.7c0.7,3.5,1.8,6.9,3.2,10.2
		c0.9,2.1,1.8,4.1,3,6c0.1,0.2,0.3,0.4,0.4,0.6c0.1,0.2,0.4,0.2,0.5,0.1c0.1-0.1,0.2-0.2,0.1-0.4c-0.1-0.2-0.2-0.3-0.3-0.5
		c-0.3-0.5-0.6-1-0.8-1.5c-2.4-4.4-4.1-9-5.2-13.9C149.6,51.3,149.3,49.6,149.2,47.9L149.2,47.9z M153.2,48.4
		c-0.1-1.1-0.1-2.2-0.2-3.2c0-0.2,0-0.5-0.1-0.6c0-0.1-0.3-0.2-0.4-0.2c-0.1,0-0.2,0.1-0.3,0.2c-0.1,0.2,0,0.4,0,0.7
		c0,1.7,0.2,3.5,0.4,5.2c0.4,3.5,1.3,6.9,2.5,10.2c1,2.7,2.2,5.4,4,7.8c0.2,0.3,0.4,0.6,0.7,0.8c0.1,0.1,0.2,0.2,0.3,0.2
		c0.2,0.1,0.5-0.1,0.4-0.3c0-0.1-0.1-0.3-0.2-0.4c-1-1.3-1.8-2.8-2.6-4.3C155.2,59.3,153.7,54,153.2,48.4z M157.4,43.6
		c0,2.2-0.1,4.3,0.3,6.5c0.4,2.6,0.9,5.2,1.6,7.7c0.6,2.4,1.4,4.8,2.5,7.1c0.6,1.2,1.2,2.3,1.9,3.3c0.1,0.2,0.3,0.4,0.5,0.6
		c0.1,0.1,0.3,0.1,0.4,0c0.1-0.1,0.1-0.2,0.1-0.3c-0.1-0.2-0.2-0.3-0.3-0.5c-1.2-1.8-2.1-3.7-2.9-5.7c-1-2.7-1.8-5.5-2.4-8.4
		c-0.3-1.5-0.6-3-0.8-4.5c-0.3-2.2-0.3-4.4-0.2-6.6c0-0.3,0-0.7,0-1c0-0.1-0.1-0.3-0.2-0.4c-0.2-0.1-0.4,0-0.5,0.2
		C157.5,42.3,157.4,42.9,157.4,43.6z M224.3,88.7c-0.5,1-0.2,1-1.6,1.1c-0.1,0-0.2,0-0.3,0c-1.6,0-3.2,0-4.8,0c-0.3,0-0.5,0-0.8,0
		c-0.6,0-0.9-0.3-1-0.8c0,0-0.1,0-0.1,0c-0.1,1-0.1,2.3,0.1,3c0.1-0.1,0.1-0.2,0.1-0.3c0.1-0.5,0.4-0.7,0.9-0.7c0.4,0,0.9,0,1.3,0
		c1.7,0,3.3,0,5,0c0.7,0,0.8,0.1,1,0.8c0,0,0.1,0.1,0.2,0.2c0.1-0.6,0-1.1,0-1.7C224.3,89.7,224.4,89.2,224.3,88.7z M222.6,125.9
		c1.2,0,1.2,0,1.7,1c0-1.1,0-2.1,0-3.1c-0.2,0-0.2,0.2-0.2,0.3c-0.1,0.4-0.4,0.6-0.8,0.6c-0.1,0-0.3,0-0.4,0c-2.1,0-4.1,0-6.2,0
		c-0.2,0-0.4-0.1-0.6-0.1c0-0.5,0-0.9,0-1.3c0-0.5,0.3-1,0.9-1.2c0.1,0,0.3-0.1,0.4-0.2c-0.6-0.2-1.2-0.2-1.8,0
		c0,0.2-0.1,0.3-0.1,0.4c0,2,0,3.9,0,5.9c0,0.1,0.1,0.3,0.1,0.4c0.3,0,0.6,0,0.8,0.1c0.3,0,0.6,0.1,0.9-0.1
		c-0.3-0.1-0.5-0.2-0.7-0.3c-0.2-0.1-0.4-0.3-0.5-0.5c-0.2-0.6-0.3-1.2,0-1.9c1.1,0,2.2,0,3.4,0
		C220.7,125.9,221.7,125.9,222.6,125.9L222.6,125.9z M215.7,21.5c0,0.1-0.1,0.3-0.1,0.4c0,1.9,0,3.9,0,5.8c0,0.1,0.1,0.3,0.1,0.4
		c1.2,0.2,1.3,0.2,1.8,0c-0.3-0.1-0.5-0.2-0.7-0.3c-0.2-0.1-0.4-0.3-0.5-0.6c-0.2-0.4-0.2-1.1,0-1.8c0.3,0,0.6,0,1,0
		c1.6,0,3.3,0,4.9,0c0.3,0,0.6,0,0.9,0c0.8,0.1,0.8,0.1,1.1,0.9c0,0,0.1,0,0.1,0c0.1-1.3,0.1-2.4-0.1-3c0,0-0.1,0.1-0.1,0.1
		c-0.2,0.7-0.3,0.7-0.9,0.8c-0.1,0-0.2,0-0.3,0c-2,0-4.1,0-6.1,0c-0.2,0-0.4-0.1-0.6-0.1c0-0.4,0-0.8,0-1.2c0-0.6,0.3-1.1,1-1.3
		c0.1,0,0.3,0,0.3-0.3c-0.1,0-0.3,0-0.5,0C216.5,21.4,216.1,21.3,215.7,21.5L215.7,21.5z M218.6,42.3c-0.3,0.2-0.7,0.2-1,0.5
		c0.9,0.4,1.8,0.7,2.7,1.1c0.1,0,0.2,0.1,0.4,0.1c0.1,0,0.1,0,0.3-0.1c0-0.8,0.1-1.7,0-2.6C220.1,41.6,219.4,42,218.6,42.3z
		 M216.9,41.7c1.8-0.7,3.5-1.4,5.2-2.1c0.3-0.1,0.5-0.2,0.8-0.3c0.6-0.2,1.1-0.5,1.2-1.2c0.2,0.5,0.3,1.4,0.1,2.9
		c-0.1,0-0.1,0-0.2,0c-0.4-0.6-0.5-0.7-1.1-0.4c-0.5,0.2-1,0.4-1.6,0.6c0,1.1,0,2.1,0,3.2c0.6,0.3,1.2,0.6,1.8,0.8
		c0.4,0.1,0.6,0.1,0.8-0.3c0.1-0.1,0.1-0.2,0.1-0.4c0.2,0.6,0.2,1.4,0.1,2.3c-0.5-0.7-0.6-0.8-1.7-1.2c-2.1-0.9-4.2-1.7-6.2-2.5
		c-0.3-0.1-0.7-0.2-0.8-0.5C215.8,42,216.4,42,216.9,41.7z M215.7,87.6C215.7,87.6,215.7,87.6,215.7,87.6c0.1,0,0.1,0,0.1,0
		c0.1-0.7,0.5-0.8,1.1-0.8c2,0,4,0,6,0c0.8,0,0.9,0,1.2,0.9c0,0,0.1,0,0.1,0c0.1-1.5,0.1-5.5-0.1-6.2c-0.3-0.1-0.6-0.2-0.9-0.3
		c-0.6-0.2-0.6-0.2-1-0.1c0.3,0.2,0.5,0.3,0.7,0.5c0.6,0.4,1,0.9,1,1.7c0,0.6,0,1.1,0,1.7c0,0.5-0.2,0.7-0.7,0.7c-0.8,0-1.7,0-2.5,0
		c-0.2,0-0.4-0.1-0.6-0.1c-0.1-0.7-0.1-1.4,0-2.1c0-0.4,0.3-0.7,0.7-0.8c0.1,0,0.3,0,0.4-0.2c-0.1,0-0.1-0.1-0.2-0.1
		c-0.7,0-1.5,0-2.2,0c-0.1,0-0.3,0-0.3,0.2c0.1,0,0.1,0.1,0.2,0.1c0.6,0.1,0.9,0.5,0.9,1.1c0,0.5,0,1,0,1.4c0,0.2-0.1,0.3-0.1,0.6
		c-1.1,0-2.2,0.1-3.3-0.1c-0.1-1-0.1-1.9,0-2.8c0-0.4,0.2-0.7,0.6-0.8c0.1-0.1,0.3-0.1,0.5-0.2c0.1,0,0.2-0.1,0.1-0.3
		c-0.5,0-1.1-0.1-1.7,0.2c0,1.9,0,3.8,0,5.8C215.7,87.5,215.7,87.6,215.7,87.6L215.7,87.6z M219,58c-0.5-0.2-1-0.2-1.5-0.1
		c-0.5,0.1-1,0.4-1.2,0.9c-0.2,0.5-0.3,1,0,1.5c1.2,0.1,2.8,0.1,3.5,0C220.2,59.4,220.1,58.7,219,58z M222.3,60.4c0.4,0,0.6,0,0.9,0
		c0.5,0,0.9-0.2,0.9-0.8c0,0,0.1-0.1,0.1-0.1c0.2,0.7,0.2,2.2,0,3.1c-0.1-0.1-0.1-0.2-0.1-0.3c-0.1-0.5-0.4-0.6-0.9-0.7
		c-0.2,0-0.5,0-0.7,0c-1.7,0-3.4,0-5.1,0c-0.2,0-0.4,0-0.6,0c-0.5,0-0.9,0.2-1,0.7c0,0-0.1,0.1-0.1,0.1c-0.1-0.8-0.1-3.3,0-4
		c0.1-0.5,0.3-1,0.7-1.3c1.2-1.2,3.4-0.7,3.9,0.9c0.2,0.5,0.2,1,0.1,1.5c0,0.2-0.1,0.5-0.1,0.8c0.2,0,0.4,0.1,0.6,0.1
		C221.3,60.5,221.7,60.4,222.3,60.4L222.3,60.4z M223,110.9c0.6,0,1,0,1.2,0.9c0,0,0.1,0,0.2,0.1c0-0.2,0-0.4,0-0.6
		c0-1.8,0-3.6,0-5.4c0,0,0-0.1,0-0.1c0,0,0,0-0.1-0.1c-0.6-0.2-1.2-0.5-2-0.6c0.4,0.3,0.6,0.4,0.8,0.6c0.6,0.4,1,1,0.9,1.7
		c0,0.5,0,1,0,1.5c0,0.7-0.1,0.8-0.9,0.9c-0.8,0-1.6,0-2.4,0c-0.2,0-0.4-0.1-0.6-0.1c0-0.7,0-1.4,0-2c0-0.4,0.2-0.7,0.7-0.9
		c0.1,0,0.3,0,0.4-0.2c-1-0.2-2-0.1-2.6,0.1c0.2,0.1,0.4,0.2,0.5,0.2c0.3,0.1,0.4,0.3,0.4,0.6c0.1,0.4,0,1.7-0.1,2.3
		c-1.1,0.1-2.1,0.1-3.3,0c0-0.9,0-1.8,0-2.7c0-0.4,0.3-0.8,0.7-0.9c0.2-0.1,0.4-0.1,0.5-0.3c-0.6-0.1-1.1-0.1-1.6,0.1
		c0,0.2-0.1,0.3-0.1,0.4c0,1.8,0,3.6,0,5.4c0,0.1,0.1,0.2,0.1,0.3c0.5-1.1,0.4-0.8,1.4-0.9c0.2,0,0.4,0,0.6,0c1.4,0,2.7,0,4.2,0
		C222.3,110.9,222.6,110.9,223,110.9L223,110.9z M216.6,34.9c-0.2,0.2-0.5,0.4-0.7,0.5c-0.1,0.1-0.2,0.2-0.3,0.4
		c-0.1,0.3,0,1.4,0.1,1.9c0.1-0.1,0.1-0.2,0.1-0.3c0.4-1,0.6-1.1,1.7-1.1c1.6,0,3.3,0,4.9,0c0.3,0,0.5,0,0.8,0
		c0.5,0,0.7,0.2,0.8,0.7c0,0.1,0.1,0.2,0.2,0.4c0-1,0-1.8,0-2.7c-0.1,0.2-0.2,0.2-0.2,0.3c-0.1,0.5-0.4,0.7-0.9,0.7
		c-0.1,0-0.2,0-0.3,0c-1.6,0-3.2,0-4.8,0c-0.1,0-0.2-0.1-0.4-0.1c0.4-0.4,0.8-0.7,1.2-1c0.4-0.3,0.7-0.6,1.1-0.8
		c0.4-0.3,0.8-0.6,1.2-0.9c0.4-0.3,0.8-0.6,1.2-0.9c0.4-0.3,0.7-0.6,1.1-0.8c0.4-0.3,0.8-0.5,1.1-1c-0.4-0.2-0.7-0.1-0.9-0.1
		c-2,0-4.1,0-6.1,0c-0.3,0-0.6,0-0.9,0c-0.3,0-0.6-0.2-0.7-0.5c0-0.1,0-0.3-0.2-0.3c-0.1,0.8-0.1,1.5,0,2.4c0.4-0.9,0.4-1,1.3-1
		c1.5,0,2.9,0,4.4,0c0.2,0,0.3,0,0.4,0.3C220,32.3,218.3,33.6,216.6,34.9L216.6,34.9z M218.9,70.2c0.7,0,1.4,0,2.1,0
		c0.8,0,1.5-0.3,2.1-0.7c0.7-0.5,1-1.1,1-1.9c0-1.1-0.6-1.8-1.7-2.3c-0.6-0.3-1.2-0.3-1.9-0.4c-1.1-0.1-2.3,0-3.3,0.5
		c-0.9,0.4-1.3,1.1-1.4,2.1c0,1,0.4,1.7,1.3,2.2C217.7,69.9,218.2,70,218.9,70.2L218.9,70.2z M220.2,63.5c1.2,0.1,2.2,0.4,3,1.2
		c1.2,1.1,1.6,2.4,1.2,3.9c-0.4,1.5-1.4,2.4-2.9,2.9c-0.9,0.3-1.8,0.3-2.8,0.1c-1.6-0.3-3.3-1.8-3.3-3.8c0-1.8,1.2-3.5,3.1-4
		C219,63.5,219.6,63.5,220.2,63.5L220.2,63.5z M224.3,112.9c-0.1,0.1-0.2,0.1-0.2,0.1c-0.1,0.6-0.5,0.8-1.1,0.8c-0.4,0-0.9,0-1.3,0
		c-1.6,0-3.1,0-4.7,0c-0.6,0-1-0.2-1.2-0.8c0,0-0.1,0-0.2-0.1c0,1-0.1,1.9,0,3c0.1-0.1,0.2-0.1,0.2-0.2c0.1-0.6,0.5-0.8,1.1-0.8
		c0.7,0,1.4,0,2.1,0c0.2,0,0.4,0,0.5,0.1c0.2,1.1,0.1,3.1-0.1,3.8c-0.8,0-1.7,0-2.6,0c-0.6,0-1-0.2-1.1-0.8c0,0-0.1,0-0.2-0.1
		c0,1-0.1,2,0.1,3c0.1-0.1,0.2-0.1,0.2-0.2c0.1-0.5,0.4-0.8,0.9-0.8c0.3,0,0.6,0,0.9,0c1.5,0,3,0,4.5,0c0.3,0,0.6,0,0.9,0
		c0.8,0.1,0.8,0.1,1,0.9c0,0,0.1,0,0.2,0c0-1,0.1-2.1-0.1-3.1c-0.1,0.1-0.1,0.1-0.2,0.2c-0.3,0.7-0.3,0.8-1,0.8c-0.8,0-1.5,0-2.3,0
		c-0.2,0-0.4,0-0.5-0.1c-0.2-1-0.2-3.1,0-3.8c1,0,2,0,3.1,0c0.4,0,0.6,0.2,0.7,0.6c0,0.1,0.1,0.2,0.1,0.3c0,0,0.1-0.1,0.1-0.2
		C224.3,114.7,224.4,113.8,224.3,112.9L224.3,112.9z M220.2,49.6c0.2,0,0.4-0.1,0.5-0.1c0.7,0,1.4,0,2.1,0c0.7,0,1.2,0.2,1.4,0.9
		c0,0,0.1,0,0.1,0c0-1,0-2,0-3.1c-0.1,0-0.2,0.1-0.2,0.1c-0.1,0.7-0.6,0.8-1.2,0.8c-0.7,0-1.5,0-2.2,0c-1.3,0-2.5,0-3.8,0
		c-0.6,0-1-0.2-1.1-0.8c0,0-0.1,0-0.2-0.1c-0.1,1-0.1,2,0,3c0.1-0.1,0.2-0.1,0.2-0.2c0.1-0.6,0.5-0.8,1.1-0.8c0.6,0,1.2,0,1.8,0
		c0.3,0,0.6,0,0.8,0.1c0.2,1,0.2,3.1,0,3.8c-1,0-2,0-3,0c-0.3,0-0.5-0.2-0.6-0.4c-0.1-0.1,0-0.4-0.2-0.4c-0.1,0.9-0.1,2.3,0,3
		c0,0,0.1-0.1,0.1-0.1c0.1-0.6,0.5-0.8,1-0.8c0.3,0,0.5,0,0.8,0c1.4,0,2.9,0,4.3,0c0.4,0,0.7,0,1.1,0c0.8,0.1,0.8,0.1,1.1,0.9
		c0,0,0.1,0,0.2,0.1c0-1.1,0.1-2.1-0.1-3.3c-0.1,0.2-0.2,0.3-0.2,0.4c-0.1,0.5-0.5,0.7-1,0.7c-0.7,0-1.4,0-2.1,0
		c-0.3,0-0.5,0-0.8-0.1c-0.1-1,0-2.1-0.1-3.2C220.1,50,220.2,49.8,220.2,49.6L220.2,49.6z M216.3,77.9c1.3,0.1,2.8,0.1,3.5-0.1
		c0.1-0.6,0-1.2-0.3-1.7c-0.4-0.7-1.1-1-1.9-0.8c-0.8,0.2-1.4,0.7-1.4,1.5C216.1,77.1,216.2,77.4,216.3,77.9z M222.2,75.8
		c-0.6,0.5-1.2,0.9-1.8,1.3c0,0.3,0,0.5,0,0.7c0.1,0.1,0.1,0.1,0.2,0.1c0.9,0,1.7,0,2.6,0c0.6,0,1-0.2,1-0.8c0,0,0.1-0.1,0.2-0.1
		c0.1,1,0.1,2,0,3.1c-0.1,0-0.2-0.1-0.2-0.1c-0.3-0.8-0.4-0.8-1.1-0.8c-2,0-4.1,0-6.1,0c-0.7,0-0.8,0.1-1.2,0.9
		c0-0.1-0.1-0.2-0.1-0.3c0-1.2,0-2.5,0.1-3.7c0-0.4,0.1-0.8,0.3-1.1c0.4-0.7,1-1.1,1.8-1.1c0.8,0,1.5,0.4,1.9,1
		c0.2,0.3,0.3,0.6,0.4,0.9c0.2-0.1,0.4-0.2,0.5-0.3c0.6-0.4,1.2-0.8,1.8-1.2c1.1-0.8,1.2-0.9,1.7-2c0,0,0.1,0,0.1,0c0,0,0,0.1,0,0.1
		c0,0.2,0,0.4,0,0.6c0,0.4,0,0.9,0,1.4C223.6,74.8,222.9,75.2,222.2,75.8L222.2,75.8z M224.3,98c-0.1,0.1-0.2,0.1-0.2,0.2
		c-0.1,0.6-0.5,0.8-1.1,0.8c-0.8,0-1.5,0-2.3,0c-0.2,0-0.4-0.1-0.6-0.1c0-1.2,0-2.4,0-3.6c0.1-0.1,0.1-0.1,0.2-0.1c1,0,2,0,3,0
		c0.4,0,0.6,0.2,0.7,0.6c0,0.1-0.1,0.3,0.3,0.4c0-1,0.1-2.1-0.1-3.3c-0.1,0.2-0.2,0.3-0.2,0.4c-0.1,0.5-0.5,0.7-1,0.7
		c-0.1,0-0.3,0-0.4,0c-1.8,0-3.6,0-5.4,0c-1.1,0-1,0.1-1.6-0.9c-0.1,0.8-0.1,2.2,0,3c0,0,0.1-0.1,0.1-0.1c0.1-0.6,0.5-0.8,1.1-0.8
		c0.7,0,1.4,0,2.1,0c0.2,0,0.4,0.1,0.6,0.1c0,0.6,0,1.2,0,1.8c0,0.6,0.1,1.3-0.1,1.8c-0.1,0-0.2,0.1-0.3,0.1c-0.7,0-1.3,0-2,0
		c-1.1,0-1.1,0-1.6-0.9c-0.2,1-0.1,2.4,0.1,3c0.1-0.8,0.6-1,1.3-1c0,0,0.1,0,0.1,0c1.8,0,3.7,0,5.5,0c1.1,0,1.1,0,1.6,0.9
		c0-0.1,0.1-0.1,0.1-0.2c0-0.8,0-1.5,0-2.4C224.3,98.3,224.3,98.1,224.3,98L224.3,98z M81.2,8.3c0.2,0.1,0.3,0.3,0.7,0.2
		C82,8.2,82.1,8,82.1,7.7C81.4,7.7,81.4,7.7,81.2,8.3z M81.2,141.2c0.1,0.5,0.3,0.6,1,0.4c-0.1-0.2-0.2-0.4-0.4-0.6
		c0-0.1-0.2,0-0.4,0C81.3,141.1,81.2,141.2,81.2,141.2z M191.5,16c0.3,0,0.4-0.2,0.4-0.4c0.1-0.4-0.2-0.7-0.6-0.7
		c-0.4,0-0.7,0.2-0.7,0.6c0,0.1,0.1,0.2,0.2,0.4C191.1,15.9,191.3,16,191.5,16z M19,8.6c0.2-0.1,0.4-0.2,0.7-0.3
		c-0.2-0.4-0.4-0.8-0.5-1.1c-0.3,0-0.5,0-0.8,0c0.2,0.4,0.3,0.6,0.4,1C18.8,8.3,18.9,8.4,19,8.6z M18.4,142.4c0.2,0,0.4,0,0.7,0
		c0.2-0.4,0.4-0.8,0.6-1.2c-0.2-0.1-0.4-0.2-0.7-0.2c-0.1,0.2-0.2,0.4-0.3,0.6C18.5,141.8,18.3,142,18.4,142.4z M191.2,134.2
		c-0.3,0.1-0.5,0.3-0.5,0.6c0,0.3,0.2,0.5,0.4,0.6c0.3,0.1,0.6,0,0.8-0.3c0.1-0.1,0.1-0.3,0.1-0.5
		C191.7,134.2,191.5,134.1,191.2,134.2L191.2,134.2z M192.1,128.6c-0.1-0.4-0.4-0.6-0.8-0.6c-0.4,0-0.8,0.3-0.8,0.7
		c0,0.3,0.2,0.6,0.6,0.7c0.2,0,0.4,0,0.7,0C192,129.1,192.2,128.8,192.1,128.6L192.1,128.6z M191.8,22.1c0.3-0.2,0.4-0.6,0.2-0.9
		c-0.2-0.3-0.7-0.4-1-0.3c-0.4,0.2-0.5,0.5-0.4,0.8c0.1,0.2,0.2,0.3,0.4,0.5C191.4,22.3,191.6,22.3,191.8,22.1z M38.5,57.1
		c-0.3-0.4-0.4-0.4-1,0c0.6,0.9,1.2,1.8,2,2.7c0.2-0.2,0.4-0.3,0.6-0.4c-0.2-0.3-0.4-0.6-0.7-1C39.1,58,38.9,57.5,38.5,57.1z M38,93
		c0.4-0.6,0.9-1.2,1.3-1.8c0.1-0.2,0.3-0.4,0.4-0.7c-0.2-0.1-0.4-0.2-0.6-0.4c-0.1,0.1-0.2,0.2-0.2,0.2c-0.5,0.8-1.1,1.5-1.6,2.3
		c-0.1,0.2-0.2,0.3,0.1,0.5C37.7,93.3,37.9,93.2,38,93z M33.8,71.2c-0.1,0.2-0.1,0.4-0.2,0.6c0.4,0.1,0.7,0.2,1,0.2
		c0.6,0.1,1.1,0.2,1.7,0.3c0.6,0.2,1,0,1.5-0.4c-0.2-0.1-0.4-0.1-0.6-0.2C35.9,71.5,34.9,71.2,33.8,71.2z M37.7,77.5
		c-0.4-0.5-0.8-0.6-1.4-0.5c-0.7,0.2-1.5,0.3-2.3,0.4c-0.2,0-0.3,0.1-0.5,0.2c0,0.3,0,0.5,0.4,0.6C35.3,78,36.5,77.9,37.7,77.5z
		 M50.2,141.1c0,0.3,0,0.6,0,0.9c0,0.3,0.2,0.3,0.5,0.2c0-0.2,0.1-0.5,0.1-0.7c0-1.6,0-3.2,0-4.7c0-0.2,0-0.3,0-0.5
		c-0.1-0.3-0.2-0.3-0.4-0.1c0,1-0.1,1.9-0.1,2.9C50.2,139.8,50.2,140.4,50.2,141.1L50.2,141.1z M50.4,13.2c0,0.2,0.2,0.3,0.4,0.2
		c0.1-0.9,0.1-5.4,0-6.1c-0.2-0.1-0.4,0-0.5,0.2c0,0.2,0,0.3,0,0.5c0,1.1,0,2.2,0,3.4C50.3,12.1,50.3,12.6,50.4,13.2z M53.4,90.6
		c0,0,0.1,0.1,0.2,0.1c0.2-0.1,0.3-0.1,0.5-0.2c-0.1-1.3-0.7-3.9-1-4.6c-0.2,0-0.4,0.1-0.7,0.1c0.2,1.1,0.4,2.2,0.7,3.3
		C53.2,89.8,53.3,90.2,53.4,90.6z M54.1,59c-0.1-0.1-0.2-0.1-0.4-0.2c-0.1,0-0.2,0-0.4,0c-0.4,1.5-0.7,3.1-1,4.7
		c0.3,0,0.5,0,0.7,0.1c0.4-1.2,0.5-2.4,0.8-3.6C54,59.5,54.1,59.3,54.1,59z M47.3,58.7c-0.3,0.1-0.5,0.2-0.7,0.2
		c0.3,1.5,0.6,3,0.9,4.4c0,0.1,0.2,0.2,0.2,0.3c0.1,0,0.3-0.1,0.5-0.1c0-0.4-0.1-0.8-0.1-1.2c-0.2-0.8-0.3-1.7-0.5-2.6
		C47.5,59.4,47.4,59.1,47.3,58.7z M47.6,85.8c-0.4,1.6-0.7,3.1-1,4.7c0.3,0.1,0.5,0.1,0.7,0.2c0.2-1.1,0.5-2.2,0.7-3.2
		c0.1-0.5,0.1-1,0.1-1.6C47.9,85.9,47.8,85.8,47.6,85.8z M10,57c0,0-0.1,0-0.2,0.1c0,0.2,0,0.4,0,0.6c1.7,0.7,3.3,1.4,5.1,2.1
		c0.1-0.3,0.2-0.5,0.3-0.7c-0.7-0.3-1.3-0.6-2-0.9C12.1,57.9,11.1,57.5,10,57z M9.8,91.7c0,0.3,0,0.5,0,0.7c0.7-0.2,4.2-1.6,5.2-2.1
		c0,0,0.1-0.1,0.1-0.2c-0.1-0.1-0.2-0.3-0.3-0.5c-0.5,0.2-0.9,0.4-1.4,0.6C12.2,90.7,11,91.1,9.8,91.7z M11.9,129.6
		c0.4-0.5,0.8-1,1.1-1.6c-0.2-0.2-0.3-0.3-0.5-0.5c-1,1.4-1.9,2.7-2.8,4c-0.3,0.4-0.2,0.5,0,1.2c0,0,0.1,0,0.1,0
		c0.4-0.5,0.7-1,1.1-1.5C11.2,130.6,11.6,130.1,11.9,129.6L11.9,129.6z M12.8,22.3c0.2-0.2,0.3-0.4,0.5-0.6
		c-1.2-1.7-2.4-3.3-3.6-4.9c0,0-0.1,0-0.2-0.1c-0.2,0.5-0.1,1,0.3,1.5c0.8,1.1,1.6,2.2,2.4,3.3C12.4,21.8,12.5,22,12.8,22.3z
		 M31.6,71.4c0.1-0.2,0.2-0.4,0.3-0.6c-0.3-0.1-0.5-0.2-0.8-0.2c-1.1-0.2-2.3-0.4-3.4-0.6c-0.6-0.1-1.2-0.2-1.9-0.3
		c-0.1,0-0.2,0-0.3,0.1c0,0.2,0,0.4,0,0.6c1.6,0.4,3.1,0.6,4.8,0.9C30.7,71.3,31.1,71.4,31.6,71.4z M31.8,78.6
		c-0.1-0.6-0.2-0.7-0.6-0.6c-1.5,0.3-2.9,0.6-4.4,0.8c-0.5,0.1-1,0.2-1.5,0.3c0.1,0.3,0.1,0.5,0.2,0.7c1.5-0.3,3-0.6,4.6-0.9
		C30.7,78.9,31.3,78.9,31.8,78.6z M50.9,107.8c0-0.8,0.1-1.7-0.1-2.6c-0.2,0-0.4,0.1-0.6,0.1c-0.1,1.3-0.1,7.6,0.1,8.3
		c0.1,0,0.3,0,0.5,0c0-1.1,0-2.2,0-3.3C50.9,109.5,50.9,108.7,50.9,107.8z M50.9,38.7c0-0.7,0.1-1.5-0.1-2.2c-0.3-0.1-0.5,0-0.6,0.3
		c0,0.2,0,0.4,0,0.6c0,2.3,0,4.5,0,6.8c0,0.2,0,0.3,0,0.5c0,0.4,0.1,0.4,0.6,0.3c0-0.1,0.1-0.1,0.1-0.2c0-1.2,0-2.4,0-3.7
		C50.9,40.2,50.9,39.4,50.9,38.7z M67.2,63.6c-0.6,0.4-1.2,0.8-1.8,1.2c-0.6,0.4-1.3,0.7-1.8,1.3c0.3,0.4,0.7,0.4,1.1,0.1
		c1.6-1,3.1-2,4.7-3.1c0.1-0.1,0.2-0.2,0.3-0.3c-0.1-0.2-0.3-0.3-0.5-0.4C68.5,62.8,67.9,63.2,67.2,63.6z M36.5,139.5
		c-0.2,0.9-0.3,1.7-0.5,2.6c0,0.1,0.1,0.2,0.1,0.3c0.2,0,0.4-0.1,0.6-0.1c0.2-1,0.5-2,0.6-3c0.2-1,0.5-2,0.6-3.1
		c-0.2-0.1-0.4-0.2-0.7-0.2c-0.1,0.6-0.3,1.2-0.4,1.9C36.7,138.5,36.6,139,36.5,139.5L36.5,139.5z M191.2,120c0,0,0-0.1,0-0.1
		C191.2,119.9,191.1,119.9,191.2,120z M190.6,118.7c0.5-0.2,0.9-0.1,1.3,0.2c0.3,0.2,0.5,0.4,0.5,0.8c0.1,0.6-0.2,1.2-0.7,1.4
		c-0.5,0.3-1.1,0.2-1.6-0.2c-0.4-0.4-0.5-1.1-0.2-1.6C190.1,119.1,190.4,118.9,190.6,118.7L190.6,118.7z M191.7,31.4
		c0.7-0.3,1-1.1,0.7-1.7c-0.4-0.7-1.2-0.9-1.9-0.6c-0.7,0.4-0.9,1.2-0.5,1.8c0.1,0.2,0.4,0.3,0.6,0.5
		C191,31.6,191.4,31.6,191.7,31.4L191.7,31.4z M137,58.7c1-0.1,6-1,6.8-1.3c-0.1-0.2-0.1-0.4-0.2-0.6c-2.3,0.4-4.5,0.8-6.8,1.3
		C136.6,58.4,136.8,58.6,137,58.7z M44,69.2c0.3-0.1,0.5-0.2,0.7-0.3c-0.1-0.1-0.1-0.3-0.2-0.3c-0.9-0.9-3.9-3.7-4.5-4.1
		c-0.2,0.1-0.3,0.3-0.5,0.4c0,0.1,0.1,0.2,0.1,0.3c0.8,0.8,1.6,1.6,2.5,2.4C42.8,68.1,43.4,68.7,44,69.2z M143.7,92.6
		c0.1-0.2,0.1-0.4,0.2-0.7c-2.3-0.5-4.6-0.9-6.8-1.3c-0.1,0.2-0.2,0.4-0.3,0.6c0.8,0.3,1.6,0.3,2.5,0.5
		C140.7,92.1,142.1,92.4,143.7,92.6L143.7,92.6z M122.7,43.5c-1,0.4-2,0.8-2.9,1.3c0.1,0.2,0.2,0.4,0.4,0.6c2.2-0.9,4.4-1.8,6.5-2.8
		c0.1,0,0.1-0.1,0.2-0.2c-0.1-0.2-0.2-0.3-0.3-0.5c-0.3,0.1-0.6,0.2-0.9,0.4C124.6,42.7,123.6,43.1,122.7,43.5L122.7,43.5z
		 M63.6,83.4c0.6,0.5,4,2.8,5.8,3.9c0.1,0.1,0.2,0.1,0.4,0.1c0.1-0.2,0.2-0.3,0.4-0.5c-2-1.3-3.9-2.5-5.9-3.8
		C64,83.2,63.8,83.3,63.6,83.4z M58.3,111.2c-0.2,0.1-0.4,0.1-0.6,0.2c0.5,2.3,0.9,4.5,1.4,6.8c0.3,0,0.5-0.1,0.8-0.1
		c-0.4-1.9-0.7-3.7-1.1-5.5C58.6,112.1,58.6,111.6,58.3,111.2L58.3,111.2z M36,7.1c0.4,2.2,0.9,4.3,1.3,6.5c0,0.1,0.1,0.3,0.2,0.5
		c0.2-0.1,0.4-0.2,0.7-0.3c-0.4-2.1-0.9-4.3-1.3-6.4C36.5,7,36.5,7,36,7.1z M39.2,84.8c0,0,0,0.1,0,0.2c0.2,0.1,0.4,0.2,0.6,0.4
		c0.2-0.2,0.5-0.4,0.7-0.6c1.2-1.2,2.5-2.4,3.7-3.6c0.2-0.2,0.4-0.4,0.5-0.6c0,0,0-0.1,0-0.2c-0.2-0.1-0.5-0.1-0.8-0.2
		c-0.8,0.8-1.6,1.6-2.4,2.4C40.7,83.4,39.9,84.1,39.2,84.8z M126.8,107.7c0.3-0.2,0.5-0.3,0.4-0.6c-0.3-0.1-0.6-0.3-0.9-0.4
		c-1.6-0.7-3.1-1.3-4.7-2c-0.5-0.2-1-0.4-1.5-0.6c0,0-0.1,0-0.2,0c-0.1,0.1-0.1,0.3-0.2,0.5c0.6,0.3,1.2,0.5,1.8,0.8
		C123.4,106.2,125.1,107,126.8,107.7z M42.8,112.9c0.1-0.7,0.4-1.5,0.4-2.2c-0.2-0.2-0.4-0.2-0.7,0c-0.5,2.3-1,4.7-1.4,7
		c0,0.1,0,0.2,0,0.4c0.3,0,0.5,0,0.7,0c0.2-1,0.4-1.9,0.6-2.9C42.5,114.4,42.7,113.7,42.8,112.9z M59,31.3c-0.1,0.2-0.1,0.5-0.2,0.7
		c-0.3,1.6-0.7,3.2-1,4.9c-0.1,0.6-0.3,1.2-0.3,1.8c0.6,0.2,0.7,0.2,0.8-0.3c0.3-1.3,0.5-2.6,0.8-3.9c0.2-0.9,0.4-1.9,0.6-2.8
		c0-0.2,0.1-0.4-0.2-0.5C59.3,31.2,59.1,31.1,59,31.3L59,31.3z M43.2,63.7c-0.5-0.6-0.9-1.3-1.4-1.9c-0.2,0.2-0.4,0.3-0.6,0.4
		c0.5,0.9,4.1,5.9,4.6,6.4c0.2-0.1,0.4-0.2,0.6-0.3c-0.6-0.9-1.3-1.8-1.9-2.7C44.1,64.9,43.7,64.3,43.2,63.7z M39.3,19.6
		c-0.3,0-0.5,0-0.8,0c0.5,2.6,1,5.2,1.6,7.7c0,0,0.1,0.1,0.2,0.2c0.1,0,0.3-0.1,0.5-0.2c0.1-0.6-0.2-1.1-0.3-1.8
		C40.1,23.6,39.8,21.6,39.3,19.6z M18.4,75.2c0.3,0,0.5,0,0.8,0c0.1,0,0.1-0.1,0.2-0.1c0-0.1,0-0.2,0-0.3c0-0.1-0.1-0.2-0.1-0.2
		c-1.1-0.1-8.3-0.2-9.2-0.1c0,0.2,0,0.4,0,0.6c0.6,0.1,1.2,0.1,1.8,0.1C14.1,75.2,16.2,75.2,18.4,75.2z M154.1,141.3
		c-0.8-0.5-1.6-1-2.4-1.5c-0.8-0.5-1.6-1.1-2.5-1.5c-0.3,0.2-0.4,0.3-0.3,0.6c0.4,0.3,0.9,0.6,1.4,0.9c1.6,1.1,3.3,2.1,4.9,3.2
		c0.6,0.4,0.9,0.4,1.8,0.2c-0.2-0.1-0.3-0.1-0.4-0.2C155.8,142.3,154.9,141.8,154.1,141.3L154.1,141.3z M41.8,31.5
		c0-0.2-0.2-0.3-0.5-0.3c-0.1,0-0.2,0.1-0.4,0.2c0.5,2.6,1,5.1,1.5,7.6c0,0.2,0.1,0.4,0.2,0.7c0.2-0.1,0.4-0.1,0.7-0.2
		c-0.4-2.2-0.9-4.3-1.3-6.5C41.9,32.4,41.9,31.9,41.8,31.5z M45.2,83c0.4-0.6,0.8-1.2,1.2-1.7c0,0,0-0.1,0-0.2
		c-0.2-0.1-0.4-0.1-0.6-0.2c-1.5,2.1-3,4.2-4.5,6.2c-0.1,0.2-0.3,0.4-0.4,0.6c0,0,0,0.1,0,0.1c0,0,0,0.1,0,0.1
		c0.5,0.2,0.5,0.2,0.9-0.2C42.9,86.1,44.1,84.6,45.2,83z M63,57.1c-0.1-0.1-0.3-0.2-0.4-0.3c0,0-0.1,0-0.2,0c-1,1.2-5.1,6.9-5,7.2
		c0.2,0,0.4,0.1,0.7,0.2c1.5-2.1,2.9-4.1,4.4-6.2C62.7,57.7,63,57.5,63,57.1z M38.8,128.3c-0.1,0.7-0.4,1.5-0.4,2.3
		c0.3,0,0.5,0,0.7,0c0.1-0.1,0.1-0.2,0.1-0.2c0.5-2.6,1.1-5.2,1.6-7.7c0-0.2,0-0.4,0-0.6c-0.2-0.1-0.4-0.1-0.6-0.2
		c-0.4,1.4-0.6,2.8-0.9,4.2C39.1,126.9,38.9,127.6,38.8,128.3z M149,11.4C149,11.4,149,11.4,149,11.4c2.7-1.7,5.2-3.3,7.8-5
		c0.1-0.1,0.1-0.2,0.2-0.3c-0.8-0.1-1.4,0.1-1.9,0.5c-2,1.3-4.1,2.6-6.2,4C148.3,11.1,148.3,11.1,149,11.4L149,11.4z M13.6,81.3
		c-1.2,0.2-2.4,0.4-3.6,0.7c0,0.3,0.1,0.5,0.1,0.7c1.2-0.1,8.7-1.5,9.5-1.8c0-0.2-0.1-0.4-0.1-0.6c-0.7,0.1-1.4,0.3-2.2,0.4
		C15.9,80.9,14.7,81.1,13.6,81.3z M58.1,85.3c-0.3,0-0.6,0-0.7,0.2c0,0.1,0,0.2,0.1,0.2c1.7,2.4,3.5,4.9,5.2,7.3
		c0,0,0.1,0.1,0.2,0.1c0.2-0.1,0.3-0.2,0.5-0.4c-1.1-1.5-2.1-3-3.2-4.5C59.5,87.2,58.8,86.2,58.1,85.3z M12.5,67.1
		c-0.7-0.1-1.5-0.3-2.3-0.4c-0.1,0-0.2,0.1-0.3,0.1c0,0.2,0.1,0.4,0.1,0.6c2.7,0.6,8.6,1.7,9.5,1.7c0.1-0.2,0.1-0.4,0.1-0.6
		C17.2,68,14.8,67.6,12.5,67.1z M50.8,124c0-0.8,0-1.6,0-2.4c0-0.8,0.1-1.5-0.1-2.3c-0.3-0.1-0.5,0-0.5,0.3c0,0.3,0,0.5,0,0.8
		c0,1.5,0,3,0,4.5c0,2.3,0,4.6,0,6.9c0,0.2-0.1,0.5,0.2,0.5c0.2,0,0.3-0.1,0.3-0.6c0-1.7,0-3.5,0-5.3
		C50.8,125.6,50.8,124.8,50.8,124z M20.9,117.1c-0.2-0.2-0.4-0.3-0.6-0.5c-1.8,2.5-3.6,5.1-5.4,7.6c-0.1,0.1-0.2,0.3-0.3,0.5
		c0.3,0,0.6,0,0.9,0.1c0.6-0.9,1.2-1.7,1.8-2.6C18.5,120.4,19.7,118.8,20.9,117.1L20.9,117.1z M20.7,33.3c0.2-0.2,0.4-0.3,0.6-0.4
		c-1.9-2.7-3.8-5.4-5.7-8c-0.3,0.1-0.6,0.1-0.6,0.5c1.4,1.9,2.7,3.8,4.1,5.8C19.6,31.8,20,32.7,20.7,33.3z M50.8,18.1
		c0-0.3,0-0.5,0-0.8c0-0.3-0.1-0.3-0.5-0.2c0,0.1,0,0.2,0,0.4c0,4.2,0,8.4,0,12.5c0,0.2,0,0.3,0,0.5c0,0.2,0.2,0.3,0.5,0.2
		c0-0.1,0.1-0.1,0.1-0.2c0-1.7,0-3.5,0-5.3C50.8,22.9,50.8,20.5,50.8,18.1z M102.6,108.8c0,0,0.1,0,0.2,0c0-0.2,0-0.5,0-0.8
		c-0.4-0.3-0.8-0.5-1.2-0.8c-0.4-0.3-0.9-0.6-1.3-0.9c-0.4-0.3-0.8-0.5-1.2-0.8s-0.8-0.5-1.2-0.8c-0.4-0.3-0.8-0.5-1.2-0.8
		c-0.4-0.3-0.9-0.6-1.3-0.8c-0.4-0.2-0.8-0.6-1.3-0.7c-0.2,0.3-0.3,0.5-0.1,0.8C96.8,105.1,99.7,106.9,102.6,108.8z M79.9,115.9
		c-0.2,0.2-0.3,0.3-0.5,0.5c2,2.8,3.9,5.5,5.9,8.2c0.3,0,0.6,0,0.9-0.1c-1.9-2.6-3.7-5.2-5.6-7.8C80.4,116.5,80.3,116.2,79.9,115.9z
		 M142.6,35.9c-0.1-0.3-0.2-0.4-0.3-0.7c-3.4,1.4-6.8,2.9-10.2,4.3c0.1,0.3,0.2,0.5,0.3,0.7c1.9-0.8,3.8-1.6,5.8-2.4
		C139.7,37.2,141.1,36.6,142.6,35.9L142.6,35.9z M102.8,41.4c0-0.3,0-0.5-0.1-0.9c-1.2,0.7-2.2,1.4-3.2,2.1c-1,0.7-2,1.3-3,2
		c-1,0.7-2.1,1.3-3.1,2.1c0.1,0.2,0.3,0.4,0.4,0.6c2.2-1.5,4.4-2.9,6.7-4.3C101.3,42.4,102.1,41.9,102.8,41.4z M132.7,109.3
		c-0.1,0-0.2,0-0.3,0c0,0.2-0.1,0.4-0.1,0.6c0.8,0.5,1.7,0.8,2.5,1.1c0.8,0.4,1.7,0.7,2.6,1.1c0.9,0.4,1.8,0.8,2.6,1.1
		c0.8,0.3,1.7,0.8,2.6,1c0.1-0.2,0.2-0.4,0.4-0.6c-0.1-0.1-0.2-0.1-0.3-0.2c-2.6-1.1-5.1-2.2-7.7-3.3
		C134.2,109.9,133.4,109.6,132.7,109.3z M79.2,33.3C79.2,33.3,79.2,33.4,79.2,33.3c0,0.1,0,0.1,0,0.2c0.1,0.1,0.3,0.2,0.5,0.4
		c0.2-0.2,0.3-0.3,0.4-0.5c1.9-2.7,3.9-5.4,5.8-8.1c0.1-0.1,0.2-0.3,0.3-0.4c0,0,0-0.1,0-0.2c-0.3,0-0.5,0-0.8,0
		c-0.2,0.3-0.4,0.6-0.7,0.9C82.8,28.3,81,30.8,79.2,33.3z M20.6,137.3c0.3,0.2,0.3,0.2,0.6,0.3c0.5-0.7,4.5-9.4,4.7-10.2
		c-0.2-0.1-0.4-0.2-0.7-0.2c-0.5,1.1-1,2.2-1.5,3.3C22.7,132.9,21.6,135.1,20.6,137.3L20.6,137.3z M22.2,15.6c1,2.1,1.9,4.1,2.9,6.2
		c0.1,0.1,0.2,0.3,0.3,0.4c0.2-0.1,0.4-0.2,0.6-0.3c-0.5-1.5-4.4-9.6-4.8-10.2c-0.2,0.1-0.4,0.2-0.6,0.4c0.2,0.4,0.3,0.7,0.5,1.1
		C21.4,14,21.8,14.8,22.2,15.6z M79.5,137.7c0.3-0.1,0.5-0.2,0.6-0.3c0-0.1-0.1-0.2-0.1-0.3c-1.5-3.2-3-6.4-4.5-9.6
		c0-0.1-0.2-0.2-0.2-0.3c-0.2,0.1-0.4,0.2-0.6,0.3c0.5,1.2,1.1,2.3,1.6,3.5C77.4,133.3,78.4,135.5,79.5,137.7L79.5,137.7z
		 M79.2,12.3c-1.4,3-2.8,6-4.2,9c-0.1,0.2-0.1,0.3-0.2,0.5c0.1,0.1,0.2,0.2,0.2,0.2c0.1,0.1,0.2,0.1,0.4,0.1
		c0.6-1.1,1.1-2.3,1.6-3.4c0.5-1.1,1.1-2.3,1.6-3.4c0.5-1.1,1.1-2.2,1.5-3.4c-0.2-0.1-0.3-0.2-0.4-0.2
		C79.3,11.8,79.3,12.1,79.2,12.3z M115.9,47.2c0.2-0.1,0.4-0.2,0.6-0.4c-0.1-0.2-0.3-0.4-0.4-0.5c-0.3,0.1-0.6,0.3-0.9,0.4
		c-2.4,1-4.8,2-7.2,3c-0.8,0.3-1.6,0.7-2.4,1c0,0-0.1,0.1-0.1,0.2c0.1,0.2,0.2,0.3,0.3,0.6c1.7-0.7,3.4-1.4,5.1-2.2
		C112.7,48.6,114.3,47.9,115.9,47.2L115.9,47.2z M106.2,99c1.2,0.5,2.4,1,3.6,1.5c2.1,0.9,4.1,1.7,6.2,2.6c0,0,0.1,0,0.2,0
		c0.1-0.2,0.1-0.4,0.2-0.6c-3.6-1.5-7-3-10.5-4.4c0,0-0.1,0-0.1,0c0,0-0.1,0-0.1,0.1c-0.1,0.1-0.1,0.3-0.2,0.5
		C105.8,98.7,106,98.9,106.2,99z M191.4,111c0.1-0.1,0.2-0.2,0.2-0.4c0.1-0.4-0.2-0.7-0.5-0.8c-0.3-0.1-0.7,0.1-0.8,0.4
		c-0.1,0.3,0,0.7,0.4,0.8C190.9,111.1,191.1,111.1,191.4,111L191.4,111z M192.9,110.4c-0.1,0.8-0.4,1.4-1.2,1.7
		c-0.9,0.4-2,0-2.4-0.9c-0.4-0.9-0.1-1.9,0.8-2.4c0.9-0.5,2-0.2,2.5,0.7C192.7,109.8,192.8,110.1,192.9,110.4L192.9,110.4z
		 M87.2,40.2c0.9-0.9,1.8-1.8,2.7-2.6c0,0,0-0.1,0-0.1c0,0,0-0.1,0-0.2c-0.2-0.1-0.4-0.3-0.5-0.4c-1,0.8-7.7,7.2-8.2,7.8
		c0.1,0.3,0.2,0.5,0.5,0.5c0.1,0,0.1,0,0.2-0.1c1-1,2-1.9,3.1-2.9C85.8,41.5,86.5,40.9,87.2,40.2z M191.7,39.6
		c-0.1-0.1-0.2-0.3-0.4-0.4c-0.3-0.2-0.7-0.1-0.9,0.2c-0.2,0.2-0.1,0.6,0.1,0.8c0.3,0.3,0.7,0.3,1,0
		C191.5,40.1,191.6,39.9,191.7,39.6L191.7,39.6z M191.9,38.2c0.3,0.3,0.6,0.5,0.7,0.7c0.4,0.7,0.2,1.5-0.4,2.1
		c-0.6,0.6-1.6,0.7-2.3,0.3c-0.7-0.4-1.1-1.2-0.9-2c0.2-0.8,0.9-1.4,1.8-1.4C191.2,38,191.6,38.1,191.9,38.2z M44.5,45.3
		c-0.2,0-0.4,0.1-0.7,0.1c0.7,3.8,1.5,7.4,2.3,11.1c0,0.1,0.1,0.3,0.2,0.5c0.2-0.1,0.4-0.2,0.7-0.3c-0.2-0.8-0.3-1.5-0.4-2.2
		c-0.5-2.5-1-5-1.6-7.6C44.8,46.4,44.8,45.8,44.5,45.3z M22,74.6c0,0.2,0,0.3,0,0.5c0.2,0,0.3,0.1,0.4,0.1c4.1,0,8.2,0,12.4,0
		c0.1,0,0.2-0.1,0.3-0.1c0-0.5,0-0.5-0.3-0.6c-0.3,0-0.6,0-0.9,0c-3.5,0-7-0.1-10.7-0.1C22.8,74.5,22.4,74.5,22,74.6z M42.7,69.6
		c-0.9-0.7-10.2-6.7-11-7.1c-0.1,0.2-0.2,0.3-0.4,0.5c0.2,0.2,0.4,0.3,0.6,0.4c0.7,0.5,1.5,1,2.2,1.4c2.6,1.7,5.2,3.3,7.8,5
		C42.3,69.8,42.6,69.8,42.7,69.6z M44.6,100c-0.2,0.8-0.3,1.6-0.5,2.4c-0.1,0.8-0.4,1.5-0.4,2.4c0.3,0,0.5,0,0.7,0
		c0.3-1,2.4-11.4,2.5-12.2c-0.2-0.1-0.4-0.1-0.7-0.2c-0.4,1.7-0.7,3.4-1.1,5.2C45,98.4,44.8,99.2,44.6,100z M54.9,51.5
		c-0.3,1.6-0.7,3.2-1,4.9c-0.1,0.5,0,0.6,0.6,0.7c0-0.1,0.1-0.2,0.1-0.3c0.8-3.9,1.6-7.8,2.4-11.7c0-0.1,0-0.2,0-0.4
		c-0.5-0.2-0.5-0.2-0.8,0.2C55.8,47.1,55.3,49.3,54.9,51.5z M30.8,86.7c0.2,0.2,0.3,0.3,0.5,0.5c0.2-0.1,0.3-0.1,0.4-0.2
		c3.6-2.3,7.1-4.6,10.7-6.9c0.1-0.1,0.2-0.2,0.3-0.3c-0.4-0.3-0.8-0.4-1.2-0.1c-0.1,0.1-0.3,0.2-0.5,0.3c-3.2,2.1-6.4,4.1-9.6,6.2
		C31.2,86.5,31,86.6,30.8,86.7z M190.1,49.6c-0.1,0.3,0,0.5,0.1,0.7c0.3,0.4,0.9,0.5,1.3,0.3c0.4-0.2,0.5-0.8,0.3-1.2
		c-0.2-0.4-0.8-0.6-1.3-0.3C190.4,49.1,190.3,49.3,190.1,49.6z M193.1,49.4c0,0.4,0,0.8-0.1,1.1c-0.3,0.8-1.3,1.4-2.2,1.3
		c-1-0.1-1.8-0.9-1.9-1.8c-0.1-0.9,0.5-1.8,1.4-2.1c0.9-0.3,1.9,0,2.5,0.7C192.9,48.8,193,49.1,193.1,49.4z M56.6,105.8
		c0.2-0.1,0.4-0.1,0.6-0.1c0-0.2,0-0.3,0-0.4c-0.9-4.3-1.7-8.5-2.7-12.8c-0.3,0.1-0.5,0.1-0.7,0.2c0,0.3,0,0.5,0.1,0.7
		c0.2,0.8,0.3,1.6,0.5,2.4c0.5,2.5,1,5,1.6,7.6C56.2,104.2,56.2,105,56.6,105.8L56.6,105.8z M19.3,104.9c0,0,0.1-0.1,0.1-0.2
		c-0.2-0.3-0.2-0.3-0.5-0.5c-0.2,0.1-0.3,0.3-0.5,0.4c-0.6,0.6-1.2,1.1-1.8,1.7c-2.2,2.1-4.4,4.2-6.6,6.3c-0.2,0.2-0.4,0.3-0.4,0.6
		c0,0.3-0.1,0.5,0.1,0.9c1.1-0.9,2-1.9,3-2.8C14.9,109.1,17.1,107,19.3,104.9z M190.3,99.8c-0.1,0.2-0.2,0.4-0.2,0.6
		c0,0.5,0.5,0.9,1,0.8c0.5,0,0.8-0.4,0.8-0.9c0-0.5-0.4-0.9-1-0.8C190.8,99.6,190.6,99.7,190.3,99.8z M189.9,98.7
		c0.6-0.3,1.1-0.4,1.7-0.3c0.9,0.2,1.5,1,1.6,1.9c0,0.9-0.5,1.7-1.4,2c-0.9,0.3-1.9,0-2.5-0.7c-0.5-0.7-0.5-1.7,0-2.4
		C189.4,99,189.6,98.9,189.9,98.7z M51,87.1c0-0.3,0-0.5,0-0.8c0-0.2-0.1-0.2-0.5-0.2c-0.2,1.2-0.3,14.8-0.2,15.7
		c0.2,0,0.4,0,0.5-0.1c0-0.1,0.1-0.2,0.1-0.2c0-3,0.1-6.1,0.1-9.2C51,90.5,51,88.8,51,87.1z M50.3,47.7c-0.1,1.1,0,12.5,0.1,15.3
		c0,0.1,0,0.2,0.1,0.3c0.2,0.1,0.4,0.1,0.5-0.1c0-0.2,0-0.4,0-0.6c0-4.9,0-9.7-0.1-14.7C50.7,47.6,50.5,47.6,50.3,47.7z M90.5,112.4
		c-0.1-0.1-0.1-0.2-0.2-0.3c-2.8-2.6-5.5-5.2-8.3-7.9c0,0-0.1,0-0.1,0c0,0-0.1,0-0.2,0c-0.1,0.1-0.3,0.3-0.4,0.5
		c2.8,2.7,5.5,5.3,8.3,7.9C90,112.9,90,112.9,90.5,112.4z M103.9,24.3c0.1-0.1,0.1-0.2,0.2-0.3c-0.2-0.2-0.4-0.3-0.5-0.5
		c-0.8,0.6-9.2,8.6-9.6,9.2c0.2,0.1,0.4,0.3,0.7,0.5c2.5-2.4,4.9-4.7,7.4-7.1C102.6,25.6,103.3,25,103.9,24.3z M97.6,119.1
		c-0.4-0.4-0.9-0.9-1.3-1.3c-0.4-0.4-0.9-0.9-1.4-1.3c-0.2,0.2-0.5,0.4-0.5,0.8c2.8,2.7,5.7,5.4,8.6,8.2c0.1,0.1,0.2,0.2,0.4,0.3
		c0,0,0.1,0,0.1,0c0,0,0.1,0,0.2,0c0.1-0.1,0.3-0.3,0.5-0.4c0-0.1,0-0.2-0.1-0.2c-1.6-1.6-3.3-3.1-5-4.8
		C98.5,119.9,98,119.5,97.6,119.1L97.6,119.1z M163.9,122.5c-0.1-0.1-0.3-0.2-0.5-0.3c-4.5-1.9-9-3.8-13.5-5.7
		c-0.2-0.1-0.4-0.1-0.7-0.2c-0.1,0.3-0.1,0.5-0.2,0.7c0.3,0.1,0.5,0.2,0.8,0.3c4.4,1.9,8.8,3.7,13.2,5.6c0.2,0.1,0.4,0.2,0.6,0.2
		c0.1,0,0.3-0.1,0.5-0.2C164,122.8,164,122.6,163.9,122.5L163.9,122.5z M119.1,30.8c-0.1-0.3-0.1-0.5-0.2-0.7
		c-0.2,0.1-0.4,0.2-0.6,0.3c-4.6,2.9-12.2,7.9-12.9,8.5c0.2,0.1,0.3,0.3,0.5,0.5c1.3-0.9,2.7-1.7,4-2.6
		C113.1,34.8,116.1,32.8,119.1,30.8L119.1,30.8z M96.4,140.3c0.3-0.1,0.5-0.2,0.8-0.3c-0.2-0.3-0.4-0.6-0.6-0.8
		c-1-1.3-1.9-2.7-2.9-4c-1.8-2.5-3.6-5-5.3-7.5c-0.1-0.2-0.2-0.5-0.6-0.5c-0.1,0.1-0.3,0.3-0.4,0.5c1.3,1.8,2.6,3.6,3.9,5.5
		C93.1,135.6,94.8,137.9,96.4,140.3z M94.9,11.3c-2.5,3.5-4.9,6.9-7.4,10.4c0,0,0,0.1,0,0.1c0,0,0,0.1,0,0.2
		c0.1,0.1,0.2,0.2,0.4,0.4c0.2-0.3,0.4-0.5,0.6-0.7c2.2-3,4.3-6.1,6.5-9.1c0.7-1,1.4-1.9,2.1-2.9c0,0,0-0.1,0-0.2
		c-0.2-0.1-0.4-0.1-0.7-0.2c-0.4,0.6-0.8,1.2-1.3,1.8C95,11.1,95,11.2,94.9,11.3z M118.9,119.4c0.1-0.3,0.2-0.5,0.2-0.8
		c-4.4-2.9-8.8-5.7-13.2-8.5c-0.2,0.2-0.4,0.3-0.5,0.5c0,0.1,0,0.1,0.1,0.2c2.6,1.7,5.3,3.4,8,5.2
		C115.3,117,117.1,118.2,118.9,119.4L118.9,119.4z M163.2,27.2c0.2-0.1,0.5-0.2,0.7-0.4c0.1-0.1,0.1-0.3,0.1-0.4
		c0-0.2-0.2-0.2-0.4-0.2c-0.3,0.1-0.6,0.2-0.8,0.3c-3.7,1.6-7.5,3.2-11.2,4.7c-0.9,0.4-1.8,0.8-2.7,1.2c-0.1,0-0.2,0.1-0.3,0.2
		c0.2,0.2,0.3,0.4,0.4,0.6c3.1-1.3,6.1-2.6,9.3-3.9C159.9,28.6,161.6,27.9,163.2,27.2L163.2,27.2z M17.5,44c0.5,0.4,0.9,0.9,1.4,1.3
		c0.4-0.1,0.6-0.3,0.6-0.6c-3.2-3.1-6.4-6.1-9.6-9.2c0,0-0.1,0-0.2,0c-0.2,0.6-0.1,1,0.4,1.4c2,1.9,4,3.8,6.1,5.8
		C16.6,43.1,17,43.5,17.5,44z M66.6,81.4c-0.3,0.1-0.5,0.3-0.6,0.5c0.3,0.1,0.6,0.3,0.9,0.4c3.3,1.4,6.6,2.8,10,4.2
		c1.5,0.6,2.9,1.2,4.4,1.8c0.1,0,0.2,0,0.3,0c0.1-0.2,0.1-0.4,0.2-0.6c-2.7-1.2-5.4-2.3-8.1-3.4C71.3,83.4,68.9,82.4,66.6,81.4z
		 M80.5,62.2c0.5-0.2,1-0.3,1.4-0.7c-0.1-0.2-0.2-0.4-0.3-0.5C81.3,61,81.2,61,81,61.1c-4.7,2-9.5,4-14.2,6
		c-0.2,0.1-0.4,0.2-0.6,0.3c0,0,0,0.1-0.1,0.2c0.2,0.1,0.3,0.3,0.5,0.4c4.1-1.7,8.2-3.4,12.3-5.2C79.5,62.6,80,62.4,80.5,62.2z
		 M72,121.6c0.4,0.8,0.7,1.6,1.1,2.3c0,0.1,0.1,0.2,0.2,0.3c0.2-0.1,0.4-0.3,0.6-0.4c-0.2-0.3-0.3-0.6-0.4-0.9
		c-0.8-1.6-1.5-3.3-2.3-4.9c-1.4-3-2.8-6-4.2-9c-0.1-0.3-0.2-0.6-0.5-0.8c-0.2,0.1-0.3,0.2-0.5,0.3c1.5,3.3,3.1,6.6,4.6,9.9
		C71.1,119.6,71.5,120.6,72,121.6z M101.9,97.1c0.2-0.2,0.4-0.3,0.3-0.6c-0.3-0.1-0.6-0.3-0.9-0.4c-3-1.3-6-2.5-9-3.8
		c-2-0.9-4.1-1.7-6.1-2.6c-0.1,0-0.2,0-0.3,0c-0.1,0.2-0.2,0.4-0.2,0.6c4.6,1.9,9.1,3.9,13.7,5.8C100.2,96.4,101,96.8,101.9,97.1z
		 M32.1,114.4c0.9-1.9,1.8-3.8,2.7-5.7c0,0,0-0.1,0-0.2c-0.2-0.1-0.4-0.1-0.6-0.2c-0.2,0.3-0.3,0.6-0.4,0.8c-1.5,3.3-3,6.6-4.6,9.8
		c-0.7,1.6-1.5,3.2-2.2,4.8c0,0,0,0.1,0,0.2c0.2,0.1,0.4,0.1,0.6,0.2c0.6-1.4,1.2-2.7,1.9-4C30.3,118.2,31.2,116.3,32.1,114.4z
		 M71.7,30.3c0.4-0.8,0.8-1.6,1.1-2.4c0.3-0.8,0.8-1.5,1-2.3c-0.2-0.2-0.4-0.4-0.6-0.3c-0.5,0.9-7,14.9-7.2,15.6
		c0.2,0.1,0.4,0.2,0.6,0.3c1.3-2.8,2.6-5.6,3.9-8.5C71,31.9,71.3,31.1,71.7,30.3z M34.2,41.2c0.2-0.1,0.4-0.2,0.6-0.3
		c-2.4-5.2-4.8-10.4-7.3-15.7c-0.3,0.1-0.5,0.2-0.7,0.3c2.1,4.6,4.3,9.2,6.4,13.8C33.6,40,33.7,40.7,34.2,41.2z M85.6,59.2
		c0,0.3,0,0.6,0.3,0.7c1.8-0.8,3.6-1.5,5.5-2.3c1.8-0.8,3.6-1.5,5.4-2.3c1.8-0.8,3.6-1.5,5.5-2.4c-0.2-0.2-0.3-0.4-0.4-0.6
		c-4.3,1.8-8.5,3.6-12.8,5.4C87.9,58.2,86.8,58.7,85.6,59.2z M76.2,38.9C76.2,38.9,76.2,38.9,76.2,38.9c0-0.1,0-0.1,0-0.2
		c-0.1-0.1-0.3-0.2-0.6-0.3c-3.4,4.7-6.7,9.3-10,14c-0.1,0.2-0.2,0.3-0.3,0.5c0.5,0.5,0.5,0.5,0.9,0C69.6,48.2,72.9,43.6,76.2,38.9z
		 M66.4,96.8c0-0.1-0.2-0.1-0.3-0.2c-0.1,0.2-0.3,0.3-0.5,0.5c3.4,4.8,6.9,9.6,10.3,14.4c0.4,0,0.6,0,0.7-0.3
		c-2.4-3.3-4.7-6.6-7.2-10C68.4,99.7,67.4,98.2,66.4,96.8z M74.5,58.8c-0.6,0.4-1.2,0.8-1.8,1.2c0,0,0,0.1,0,0.2
		c0.2,0.1,0.3,0.2,0.5,0.3c1.4-0.8,15-9.7,15.6-10.2c-0.1-0.2-0.3-0.3-0.5-0.5c-2,1.3-4,2.6-6,3.9C79.6,55.5,77.1,57.2,74.5,58.8z
		 M34.6,90.3c0.2-0.2,0.5-0.5,0.7-0.7c0,0,0-0.1,0-0.1c0,0,0-0.1,0-0.2c-0.1-0.1-0.3-0.3-0.5-0.5c-4.2,4-8.3,7.9-12.4,11.8
		c-0.1,0.1-0.2,0.2-0.3,0.4c0,0,0,0.1,0,0.1c0,0,0,0.1,0,0.1c0.1,0.2,0.3,0.4,0.6,0.4c1.3-1.3,2.7-2.6,4.1-3.9
		C29.5,95.2,32.1,92.8,34.6,90.3z M75.7,90.4c-0.7-0.5-1.5-0.9-2.2-1.4c0,0-0.1,0-0.2,0c-0.1,0.1-0.2,0.3-0.3,0.5
		c0.6,0.5,14.9,9.8,15.8,10.3c0.2-0.1,0.3-0.3,0.6-0.5c-3.4-2.2-6.7-4.3-10-6.5C78.1,92,76.9,91.2,75.7,90.4z M23.6,111.9
		c0.3,0.1,0.4,0.2,0.7,0.3c0.2-0.3,0.4-0.5,0.6-0.8c3.3-4.6,6.6-9.2,9.8-13.8c0.1-0.2,0.3-0.4,0.4-0.6c0,0,0-0.1-0.1-0.2
		c-0.3,0-0.5,0-0.8,0.1c-3.3,4.6-6.5,9.1-9.8,13.7C24.2,111.1,23.8,111.5,23.6,111.9z M30.8,47.6c0.4,0.6,0.9,1.3,1.3,1.9
		c0.5,0.7,0.9,1.3,1.4,2c0.5,0.6,0.9,1.3,1.5,2c0.2-0.2,0.3-0.3,0.5-0.5c-0.2-0.3-0.3-0.5-0.5-0.7c-3.4-4.8-6.9-9.6-10.3-14.5
		c0,0,0,0-0.1-0.1c0,0-0.1,0-0.1,0c-0.2,0.1-0.4,0.1-0.5,0.5c1.7,2.4,3.5,4.9,5.3,7.4C29.9,46.3,30.3,47,30.8,47.6z M189.5,59.7
		c-0.4,0.7-0.2,1.3,0.3,1.8c0.5,0.5,1.1,0.6,1.7,0.3c0.6-0.2,0.9-0.6,0.9-1.2c0-0.7-0.3-1.2-0.9-1.5
		C190.8,58.8,190.2,58.9,189.5,59.7L189.5,59.7z M191,57.8c0.3,0.1,0.6,0.1,0.9,0.2c1.2,0.4,1.9,1.6,1.8,2.8
		c-0.1,1.1-1.1,2.1-2.4,2.3c-1.4,0.2-2.9-0.8-3.2-2.2c-0.3-1.3,0.6-2.6,1.9-2.9C190.4,57.9,190.7,57.8,191,57.8L191,57.8z M96,66.4
		c0-0.2,0-0.4,0-0.6c-0.4-0.1-0.7,0-1,0.1c-1.6,0.3-3.1,0.6-4.7,0.9c-4.5,0.8-9,1.7-13.5,2.5c-0.2,0-0.5,0.1-0.7,0.2
		c0.7,0.4,1.4,0.5,2.2,0.3c1.9-0.4,3.8-0.7,5.7-1.1c3-0.6,6-1.1,9.1-1.7C94,66.8,95,66.7,96,66.4z M85.2,80.9
		c-2.4-0.5-4.9-0.9-7.3-1.4c-0.7-0.1-1.2,0.1-1.9,0.4c6.6,1.2,13.1,2.5,19.6,3.7c0.1,0,0.3,0,0.4,0c0-0.2,0-0.4,0.1-0.7
		c-2-0.4-3.9-0.7-5.9-1.1C88.4,81.5,86.8,81.2,85.2,80.9z M189.5,89c-0.1,0.1-0.1,0.2-0.2,0.3c-0.2,0.7,0.1,1.3,0.6,1.6
		c0.6,0.4,1.4,0.3,1.9-0.2c0.6-0.5,0.7-1.3,0.3-1.9c-0.4-0.6-1.3-0.9-2-0.5C190,88.6,189.8,88.8,189.5,89z M189,87.8
		c0.3-0.2,0.6-0.4,0.9-0.5c1.5-0.6,3,0.1,3.6,1.5c0.5,1.3-0.3,2.9-1.7,3.4c-1.6,0.5-3.2-0.3-3.6-1.9c-0.2-0.6,0-1.2,0.3-1.7
		C188.6,88.3,188.8,88.1,189,87.8L189,87.8z M60.6,122c0,0-0.1-0.1-0.2-0.1c-0.2,0.1-0.4,0.2-0.6,0.2c0.5,3.2,3.8,18.7,4.1,19.6
		c0.2,0,0.4,0,0.7,0c0-0.3,0-0.4-0.1-0.6c-0.6-2.7-1.1-5.4-1.7-8c-0.5-2.5-1-5-1.6-7.6C61.1,124.2,60.9,123.1,60.6,122L60.6,122z
		 M64.5,8.6c0.1-0.3,0.2-0.5,0-0.9c-0.2,0-0.4,0-0.7,0.1c-1.3,6.5-2.7,13-4,19.5c0,0,0,0.1,0,0.1c0,0,0,0.1,0.1,0.1
		c0.2,0,0.4,0.1,0.6,0.2c0.1-0.3,0.2-0.5,0.2-0.7c0.4-2.1,0.8-4.1,1.3-6.2c0.5-2.5,1-5,1.6-7.5C63.9,11.6,64.2,10.1,64.5,8.6z
		 M64.2,104.7c0.3-0.1,0.5-0.2,0.7-0.2c-0.2-0.8-8.2-17.9-8.8-18.9c-0.2,0-0.4,0.1-0.7,0.1c0.1,0.3,0.2,0.5,0.3,0.8
		c2.6,5.5,5.2,11.1,7.8,16.7C63.7,103.7,63.9,104.2,64.2,104.7z M61.3,52.7c1.1-2.4,2.2-4.8,3.3-7.1c0.1-0.2,0.3-0.4,0.1-0.7
		c-0.2,0-0.3-0.1-0.6-0.1c-0.1,0.3-0.3,0.6-0.4,0.8c-1.9,4.2-3.9,8.3-5.8,12.5c-0.8,1.8-1.7,3.6-2.5,5.4c0,0.1,0,0.2,0,0.3
		c0.2,0,0.4,0.1,0.7,0.1c0.2-0.4,0.4-0.8,0.6-1.2C58.3,59.3,59.8,56,61.3,52.7z M9.7,48.2c-0.2,0.4-0.2,0.7,0.2,1
		c0.2,0.1,0.4,0.3,0.6,0.4c5.5,3.5,10.9,7.1,16.4,10.6c0.2,0.1,0.4,0.3,0.6,0.4c0.3-0.1,0.5-0.2,0.7-0.5c-5-3.3-10-6.5-15-9.7
		C12,49.6,10.9,48.9,9.7,48.2z M17.3,95.5c-2.4,1.5-4.7,3.1-7.1,4.6c-0.4,0.3-0.7,0.6-0.4,1.1c0.1,0,0.2-0.1,0.3-0.1
		c6-3.9,12-7.8,18.1-11.7c-0.3-0.2-0.5-0.3-0.7-0.5c-2.5,1.6-4.9,3.2-7.4,4.8C19.1,94.3,18.2,94.9,17.3,95.5z M129,23.5
		c-1.8,1.2-3.6,2.3-5.4,3.5c0,0.2,0.1,0.4,0.1,0.5c0,0.1,0.1,0.1,0.2,0.2c0.3-0.2,0.5-0.3,0.8-0.5c5.6-3.6,11.2-7.3,16.8-10.9
		c0.2-0.1,0.4-0.3,0.6-0.5c0,0,0-0.1,0.1-0.2c-0.2-0.1-0.3-0.3-0.5-0.4c-2.4,1.6-4.8,3.1-7.2,4.7C132.7,21.1,130.8,22.3,129,23.5z
		 M35.3,60.9c0.2-0.2,0.4-0.3,0.5-0.5c-0.2-0.4-0.5-0.6-0.8-0.9c-3.9-3.7-7.8-7.5-11.7-11.2c-0.2-0.2-0.4-0.4-0.6-0.5
		c0,0-0.1,0-0.2-0.1c-0.3,0.1-0.4,0.2-0.5,0.6c3.6,3.4,7.3,6.9,11,10.4C33.8,59.5,34.5,60.2,35.3,60.9z M129,125
		c-1.6-1.1-3.3-2.1-4.9-3.2c-0.1,0-0.2-0.1-0.3-0.1c-0.1,0.2-0.1,0.4-0.2,0.7c0.3,0.2,0.6,0.4,0.9,0.6c5.6,3.7,11.3,7.3,16.9,11
		c0.1,0.1,0.3,0.2,0.4,0.3c0.2,0.1,0.4,0.2,0.5,0.1c0.2,0,0.4-0.1,0.4-0.4c-1-0.7-2.1-1.3-3.1-2.1C136.1,129.6,132.5,127.3,129,125
		L129,125z M120.1,141.8c0.5,0.5,0.7,0.5,1.6,0.3c-0.2-0.2-0.4-0.4-0.6-0.6c-4.1-3.9-8.2-7.8-12.3-11.7c-0.2-0.2-0.4-0.6-0.9-0.7
		c-0.2,0.2-0.3,0.4-0.5,0.6c2.1,2,4.2,4,6.3,6C115.9,137.8,118,139.8,120.1,141.8z M119,9.9c0.8-0.8,1.7-1.6,2.5-2.4
		c0,0,0-0.1,0.1-0.1c0,0,0-0.1,0-0.2c-0.2,0-0.4,0-0.5,0c-0.2,0-0.4,0-0.6,0c-1.2,1-12.6,11.9-13.1,12.5c0.2,0.2,0.3,0.5,0.7,0.5
		c1.9-1.8,3.9-3.7,5.9-5.6C115.8,13.1,117.4,11.5,119,9.9z M20.6,87.1c-0.6,0.3-1.2,0.4-1.7,0.8c0.1,0.2,0.1,0.4,0.2,0.5
		c0.4,0,0.7-0.2,1-0.3c5.5-2.3,11-4.6,16.4-6.9c1.5-0.6,3-1.3,4.6-1.9c0,0,0.1-0.1,0.1-0.2c-0.2-0.1-0.5-0.2-0.7-0.4
		c-6,2.5-12,5.1-18,7.6C21.7,86.6,21.2,86.9,20.6,87.1z M37.1,69.3c0.9,0.4,1.9,0.8,2.8,1.2c0.5,0.2,0.9,0.2,1.3-0.3
		c-0.4-0.2-0.7-0.3-1-0.5c-6-2.5-11.9-5-17.9-7.6c-0.9-0.4-1.8-0.8-2.7-1.1C19.5,61,19.2,61,19,61c0,0.2-0.1,0.4-0.1,0.6
		c0.4,0.2,0.7,0.3,1,0.4C25.7,64.5,31.4,66.9,37.1,69.3z M46.2,84.1c0.3-0.6,0.5-1.2,0.1-1.9C46,82.3,46,82.7,45.8,83
		c-2.5,5.4-5,10.7-7.5,16.1c-0.8,1.7-1.6,3.5-2.4,5.2c0,0,0,0.1,0,0.2c0.2,0.1,0.4,0.1,0.6,0.2c1.7-3.6,3.3-7.1,5-10.7
		C43.1,90.6,44.7,87.4,46.2,84.1z M46,66.7c0.1,0.2,0.2,0.4,0.3,0.6c0.4-0.7,0.2-1.3-0.1-1.9c-2.1-4.5-4.2-9-6.3-13.6
		c-1-2.2-2.1-4.5-3.1-6.7c-0.1-0.1-0.2-0.3-0.3-0.4c-0.2,0.1-0.4,0.1-0.5,0.2c0,0.1-0.1,0.2,0,0.2c1.2,2.7,2.5,5.4,3.8,8.2
		C41.8,57.8,43.9,62.3,46,66.7z M78.6,48.4C78.6,48.4,78.6,48.4,78.6,48.4c0.1-0.1,0.1-0.1,0.1-0.3c-0.1-0.1-0.3-0.3-0.5-0.5
		c-0.3,0.3-0.5,0.5-0.8,0.7C71.9,53.6,66.4,58.8,61,64c-0.2,0.2-0.4,0.4-0.5,0.6c0,0,0,0.1-0.1,0.2c0.2,0.1,0.5,0.2,0.8,0.2
		c1.6-1.5,3.2-3.1,4.9-4.6C70.2,56.4,74.4,52.4,78.6,48.4z M63.6,86.7c-0.8-0.8-1.6-1.6-2.5-2.4c-0.3,0.1-0.5,0.2-0.8,0.3
		c0.3,0.3,0.5,0.5,0.7,0.7c2,1.9,3.9,3.7,5.9,5.6c3.5,3.3,7,6.7,10.5,10c0.2,0.2,0.4,0.6,0.9,0.6c0.2-0.2,0.3-0.3,0.4-0.5
		c0-0.1-0.1-0.2-0.1-0.2c-4.1-3.9-8.2-7.9-12.4-11.9C65.2,88.3,64.4,87.5,63.6,86.7z M54.1,72.6c-0.1-0.1-0.1-0.2-0.2-0.3
		c-0.3-0.2-0.7-0.4-1-0.5c-0.1-0.1-0.3-0.2-0.5,0c0,0.3,0.1,0.7,0.3,1C53.2,72.9,53.6,72.7,54.1,72.6z M53.5,76.8
		c0.2,0.3,0.3,0.7,0.6,0.9c0.3-0.3,0.6-0.5,0.9-0.8c0.1-0.1,0.3-0.2,0.1-0.4c-0.5,0-1,0-1.5-0.1C53.6,76.4,53.5,76.5,53.5,76.8z
		 M44.5,74.3c0.1,0.2-0.1,0.4,0.3,0.4c0.3-0.4,0.7-0.8,0.9-1.3c-0.3-0.3-0.6-0.7-1.1-1C44.6,73.1,44.5,73.6,44.5,74.3z M41.9,76.3
		c0.9,0.4,1.8,0.9,2.8,1.3c0,0,0.1,0,0.1-0.1c-0.1-0.2-0.2-0.4-0.4-0.6c-0.3-0.4-0.6-0.7-1.1-0.8c-0.7-0.2-1.5-0.4-2.2-0.5
		c-0.1,0-0.3-0.1-0.4,0.1C41,75.9,41.4,76.1,41.9,76.3z M50.1,72.9c0.5,0,1,0,1.5,0c0.1-0.5-0.1-0.9-0.3-1.3c-0.1,0-0.2-0.1-0.3-0.1
		c-1.8,0.1-3.5,0.2-5.3,0.3c-0.1,0-0.2,0.1-0.4,0.2c0.2,0.3,0.5,0.5,0.6,0.7c0.2,0.3,0.6,0.4,1,0.4C48,72.9,49,72.9,50.1,72.9z
		 M41.4,74.8c0.8,0.1,1.5,0.4,2.3,0.5c0.1-1.1,0-2.5-0.1-3c-1.6,0.6-3.2,1.2-4.8,1.8c-0.1,0-0.2,0.1-0.4,0.2
		C39.5,74.5,40.4,74.6,41.4,74.8z M55.5,73.2c-0.9,0.1-1.8,0.3-2.7,0.4c-0.1,0.6-0.1,1.2,0.1,1.8c0.7,0.2,3.3,0.3,3.8,0.2
		c0.1,0,0.2,0,0.3-0.1c0.3-0.1,1-0.8,1.4-1.3c-0.8-0.3-1.5-0.7-2.3-1C56,73.3,55.8,73.3,55.5,73.2z M45.7,76.6c-0.1,0-0.2,0-0.4,0.1
		c0.2,0.3,0.2,0.5,0.4,0.6c0.2,0.3,0.4,0.6,0.6,0.9c0.2,0,0.3,0.1,0.4,0c2.1-0.1,4.2-0.2,6.4-0.3c0,0,0.1,0,0.1,0c0,0,0,0,0.1-0.1
		c-0.1-0.2-0.2-0.4-0.3-0.6c-0.1-0.2-0.3-0.5-0.5-0.7C50.2,76.7,48,76.7,45.7,76.6z M48.1,75.9c1.3,0,2.6,0,3.9-0.2
		c0-0.7,0.1-1.3-0.2-2c-1.8,0.1-3.5,0.1-5.1,0.2c-0.5,0.6-1,1.2-1.4,1.9C46.1,75.9,47,75.8,48.1,75.9z M50.7,70.7
		c0.9-0.1,1.6,0,2.3,0.3c2.1,1,4.1,1.9,6.2,2.8c0.1,0,0.2,0.1,0.3,0.1c0.4,0.2,0.4,0.5,0,0.8c-0.3,0.2-0.5,0.4-0.8,0.6
		c-0.6,0.5-1.2,1-1.9,1.3c-0.4,0.2-0.8,0.5-1.2,0.9c-0.5,0.4-1,0.8-1.5,1.2c-2.2,0.1-4.3,0.2-6.3,0.4c-1.9,0.1-1.9,0.2-3.6-0.7
		c-2.2-1.1-4.3-2.1-6.5-3.2c-0.3-0.1-0.5-0.3-0.8-0.4c-0.4-0.3-0.3-0.7,0.1-0.8c0.2-0.1,0.5-0.2,0.7-0.3c2.1-0.8,4.2-1.6,6.3-2.4
		c0.4-0.1,0.8-0.2,1.2-0.2C47,70.9,48.8,70.8,50.7,70.7L50.7,70.7z M134.6,72.5L134.6,72.5C134.6,72.6,134.7,72.6,134.6,72.5z
		 M125.8,78c0-0.2,0-0.5-0.4-0.5c-0.2,0.3-0.1,0.5,0,0.7C125.5,78.3,125.6,78.2,125.8,78z M125.7,71.2c-0.3-0.1-0.3,0.1-0.4,0.3
		c0,0.2-0.1,0.4,0.2,0.4C125.7,71.8,125.8,71.6,125.7,71.2L125.7,71.2z M179.2,72.2c0-0.2,0-0.4-0.1-0.6c-0.1-0.1-0.2-0.3-0.3-0.3
		c-0.3-0.1-0.7-0.3-1-0.1c0.1,0.4,0.2,0.9,0.5,1.2C178.5,72.5,178.9,72.6,179.2,72.2z M178.1,77.1c-0.1,0.4-0.4,0.7-0.3,1.1
		c1,0,1.5-0.2,1.3-1.3C178.8,76.9,178.5,76.8,178.1,77.1z M132.7,59.8c0.2-0.2,0.5-0.3,0.7-0.5c0-0.6-0.2-1.1-0.5-1.7
		c-0.3,0.8-0.6,1.6-0.7,2.4C132.4,60,132.5,59.9,132.7,59.8z M132.3,89.9c0.2,0.6,0.3,1.3,0.7,1.9c0.3-0.6,0.4-1.1,0.5-1.7
		c-0.3-0.3-0.7-0.5-1.1-0.6C132.3,89.6,132.3,89.6,132.3,89.9z M132.9,60.7c-0.2,0.1-0.4,0.3-0.7,0.4c-0.5,0.3-0.7,0.7-0.6,1.3
		c0.8-0.3,1.4-0.7,2-1.2c0-0.3,0-0.6-0.1-0.9C133.3,60.4,133.2,60.5,132.9,60.7L132.9,60.7z M132.3,88.4c0.4,0.2,0.8,0.6,1.3,0.7
		c0-0.2,0.1-0.3,0.1-0.4c0-0.2,0-0.3,0-0.4c-0.7-0.4-1.3-0.8-2.1-1.2C131.6,87.5,131.6,88,132.3,88.4L132.3,88.4z M132.3,63.1
		c-0.3,0.2-0.5,0.3-0.8,0.5c-0.4,0.3-0.5,0.7-0.4,1.2c1-0.6,2-1.1,2.9-1.7c0-0.2,0-0.4-0.1-0.6c0-0.1-0.1-0.2-0.2-0.3
		C133.3,62.4,132.9,62.7,132.3,63.1L132.3,63.1z M132,85.2c-0.3-0.2-0.6-0.3-0.9-0.5c-0.1,0.6,0.1,1,0.6,1.3c0.6,0.3,1.1,0.7,1.7,1
		c0.1,0.1,0.2,0.2,0.5,0.1c0-0.2,0.1-0.5,0.1-0.8C133.4,86,132.8,85.6,132,85.2z M133.2,85c0.3,0.1,0.5,0.4,0.9,0.4
		c0.2-0.7,0.2-0.7,0-1.2c-1.1-0.6-2.3-1.1-3.4-1.7c0,0-0.1,0-0.1,0c0,0,0,0-0.1,0.1c0.1,0.3,0.1,0.6,0.2,1
		C131.5,84,132.3,84.4,133.2,85L133.2,85z M130.9,67c0.6-0.3,1.1-0.5,1.7-0.8c0.6-0.3,1.2-0.5,1.7-0.9c0-0.6,0-0.6-0.2-1.1
		c-0.1,0-0.2,0.1-0.4,0.1c-1,0.6-2,1.1-3,1.7c-0.1,0.3-0.1,0.7-0.2,1C130.5,66.9,130.7,67,130.9,67L130.9,67z M134.7,70.7
		c0-0.1-0.1-0.2-0.1-0.3c-1,0.4-3.6,1.6-4.3,2.2c0,0,0.1,0.1,0.1,0.1c0.6,0,1.2,0,1.8,0c0.2,0,0.4,0,0.6-0.1c0.6-0.3,1.3-0.6,1.9-1
		C134.7,71.3,134.7,71.1,134.7,70.7L134.7,70.7z M131.5,76.7c-0.4,0-0.8-0.1-1.4,0.1c0.6,0.3,1.1,0.6,1.6,0.8
		c0.5,0.2,0.9,0.5,1.4,0.7c0.5,0.2,0.9,0.6,1.5,0.6c0.1-0.4,0.2-0.8,0-1.2c-0.5-0.2-0.9-0.5-1.4-0.7
		C132.8,76.8,132.2,76.7,131.5,76.7L131.5,76.7z M80.4,74.5c0-0.3-0.1-0.6-0.3-0.8c-0.7,0-1.4-0.1-2.1,0.1c0,0.4-0.1,0.7-0.1,1
		c0,0.3-0.1,0.6,0,1c0.8,0,1.5,0.1,2.2,0C80.4,75.4,80.4,75,80.4,74.5z M133.8,83c0.2,0,0.4,0.1,0.6,0.2c0-0.4,0-0.7,0.1-1.1
		c-1.4-0.7-2.8-1.5-4.3-2.2c-0.1,0.5,0.1,0.9,0.2,1.3c0.1,0.1,0.1,0.1,0.1,0.1C131.5,81.9,132.6,82.4,133.8,83z M133,68.1
		c0.5-0.3,1-0.5,1.5-0.8c0-0.4,0.1-0.7-0.1-1.1c-0.8,0.2-3.3,1.5-4.1,2c0,0.4-0.3,0.7-0.1,1.2C131.1,69.1,131.9,68.6,133,68.1z
		 M131,71.2c0.6-0.3,1.2-0.6,1.8-0.9c0.6-0.3,1.3-0.5,1.8-0.9c0-0.4,0.1-0.8-0.2-1.1c-0.9,0.3-3.9,1.9-4.6,2.4
		c0.1,0.3-0.2,0.6,0.1,1C130.3,71.5,130.6,71.4,131,71.2z M74,74.5c0,0.4,0,0.7-0.1,1.1c0.9,0.1,1.9,0.1,2.7,0
		c0.2-0.6,0.2-1.2,0.1-1.8c-0.8-0.2-2.1-0.2-2.8,0C74,74,74,74.2,74,74.5z M72.8,75.2c0.1-0.5,0.1-1-0.3-1.5c-0.7,0-1.3,0-2,0
		c-0.2,0-0.4,0-0.6,0.1c0,0.3,0,0.6-0.1,1c0,0.3-0.1,0.6-0.1,1c0.9,0.1,1.8,0,2.7,0C72.6,75.7,72.8,75.6,72.8,75.2z M130.8,78.1
		c-0.3-0.1-0.5-0.4-0.9-0.3c0,0.2,0,0.3,0,0.5c0,0.2,0.1,0.4,0.1,0.5c1.5,0.9,3.8,2,4.6,2.3c0.1-0.4,0.2-0.8,0.1-1.2
		C133.3,79.4,132.1,78.8,130.8,78.1L130.8,78.1z M134.8,59.4c-0.4-1.2-0.6-2.4-1.2-3.5c-0.4,0.2-0.3,0.4-0.2,0.7c0.5,1,0.8,2,1,3.1
		c0.1,0.4,0.1,0.8,0.2,1.2c0.2,1.2,0.4,2.3,0.5,3.5c0.2,1.8,0.3,3.7,0.4,5.5c0.1,0.8,0.1,1.6,0.1,2.4c0,0.1,0,0.3,0.2,0.2
		c0.2-0.4,0.1-0.7,0.1-1.1c-0.1-2.3-0.2-4.6-0.3-6.8C135.6,62.9,135.3,61.2,134.8,59.4L134.8,59.4z M135.3,81.8
		c-0.1,2-0.3,4-0.7,6.1c-0.3,1.7-0.5,3.5-1.3,5.1c0,0.1-0.1,0.1-0.1,0.2c0,0.1,0.1,0.3,0.2,0.4c0.1-0.1,0.2-0.1,0.2-0.2
		c0.1-0.1,0.2-0.3,0.2-0.4c0.7-1.9,1.3-3.9,1.5-5.9c0.3-2.6,0.5-5.3,0.5-8c0-0.6,0-1.1,0-1.7c0-0.1,0-0.3-0.2-0.4
		c-0.1,0.3-0.1,0.5-0.1,0.8C135.5,79,135.4,80.3,135.3,81.8L135.3,81.8z M126.2,94.3c0.2,0.2,0.2,0.5,0.5,0.6
		c0.2-0.3-0.1-0.5-0.2-0.6c-0.5-1-1-2.1-1.4-3.1c-1.6-4.5-2.5-9.2-2.8-14c0-0.2,0-0.3-0.2-0.4c-0.2,0-0.3,0.2-0.3,0.4
		c0,0,0,0.1,0,0.1c0.3,3.1,0.6,6.1,1.3,9.1C123.9,89.1,124.8,91.7,126.2,94.3L126.2,94.3z M122.4,67.9c-0.2,1.5-0.3,2.9-0.5,4.4
		c0,0.1,0,0.1,0,0.2c0.1,0.2,0.2,0.2,0.4,0.1c0-0.1,0-0.3,0.1-0.4c0.2-2.2,0.3-4.4,0.8-6.6c0.8-3.7,1.7-7.3,3.5-10.7
		c0-0.1,0-0.2,0.1-0.5c-0.2,0.2-0.4,0.4-0.4,0.5c-0.3,0.5-0.6,1-0.9,1.6C123.8,60.1,122.9,63.9,122.4,67.9z M128.8,77.1
		C128.8,77.1,128.8,77.1,128.8,77.1c-0.1-0.1-0.1-0.1-0.1-0.1c0,0.7,0,1.3,0,2c0.3,2.8,0.7,5.7,1.4,8.5c0.4,1.5,0.8,3.1,1.2,4.6
		c0.2,0.7,0.5,1.3,0.8,1.9c0.1,0.2,0.2,0.2,0.7,0.1c0-0.1-0.1-0.2-0.1-0.3c-0.7-1.8-1.2-3.7-1.7-5.6C130,84.6,129.2,80.9,128.8,77.1
		L128.8,77.1z M130.7,62.3c0.3-1.2,0.6-2.3,1-3.5c0.4-1.2,0.8-2.3,1.1-3.5c-0.3-0.2-0.5-0.2-0.6,0c-0.4,0.7-0.7,1.4-0.9,2.1
		c-0.7,2.4-1.3,4.9-1.8,7.4c-0.4,2.4-0.8,4.8-0.9,7.2c0,0.1,0,0.3,0.1,0.4c0.4-1.7,0.6-3.3,0.9-5C129.9,65.8,130.3,64.1,130.7,62.3z
		 M186.1,74.2c0,0.3,0,0.6,0,0.9c0,0.3-0.1,0.6-0.1,1c1,0.1,1.9,0,2.8,0c0.9,0,1.8,0.1,2.8-0.1c0.5-1,0.3-1.9-0.4-2.8
		c-1.7,0-3.4,0.1-5.1,0.1c0,0-0.1,0.1-0.2,0.2C186,73.6,186,73.8,186.1,74.2L186.1,74.2z M170.7,79.2c0.3-0.8,0.7-1.5,1-2.4
		c-0.4,0-0.8-0.1-1.2,0.1c-0.5,0.9-0.8,1.9-1.1,2.9c-1.5,4.7-2.6,9.5-3.2,14.3c-0.2,1.7-0.4,3.5-0.4,5.2c-0.1,2.3,0,4.6,0.1,6.9
		c0.2,2.8,0.5,5.6,1.1,8.4c0.3,1.5,0.7,2.9,1.2,4.3c0.2,0.5,0.2,0.5,0.9,0.4c0-0.1,0-0.2-0.1-0.4c-0.8-2.8-1.3-5.6-1.8-8.5
		c-0.5-3-0.6-5.9-0.5-8.9c0.1-1.7,0.2-3.4,0.2-5c0.1-1.9,0.3-3.7,0.6-5.6C168,87,169.1,83.1,170.7,79.2L170.7,79.2z M167.3,57.3
		c-0.1-1.2-0.3-2.3-0.4-3.5c-0.1-2-0.2-4.1-0.3-6.1c-0.1-2.2,0-4.3,0.2-6.5c0.2-1.4,0.4-2.8,0.6-4.2c0.4-2.2,0.8-4.4,1.4-6.5
		c0-0.1,0.1-0.3,0.1-0.4c-0.7-0.1-0.7-0.1-0.9,0.3c-0.1,0.1-0.1,0.3-0.2,0.4c-0.6,1.7-1,3.4-1.3,5.1c-0.4,2.5-0.7,5-0.9,7.6
		c-0.3,4.5-0.1,8.9,0.5,13.4c0.5,3.1,1.1,6.3,2,9.3c0.5,1.8,1.1,3.5,1.6,5.3c0.1,0.4,0.2,0.8,0.6,1.1c0.4,0,0.7,0.1,1.1-0.1
		c-0.6-1.7-1.3-3.3-1.9-4.9c-0.6-1.6-1-3.3-1.5-4.9C167.8,60.9,167.5,59.2,167.3,57.3L167.3,57.3z M170.7,36.1
		c-0.5,2.6-0.9,5.3-1,7.9c-0.1,2.5-0.1,5,0,7.4c0.1,1.8,0.2,3.6,0.4,5.3c0.2,2,0.6,4,0.9,5.9c0.5,3.1,1.4,6.1,2.6,9
		c0.1,0.2,0.2,0.4,0.3,0.6c0.1,0.1,0.2,0.2,0.4,0c-0.2-0.7-0.4-1.5-0.7-2.3c-0.8-2.6-1.5-5.2-2-7.9c-0.4-2.2-0.6-4.5-0.8-6.7
		c-0.3-3.6-0.3-7.2-0.1-10.8c0.1-2,0.3-4,0.7-6c0.5-2.9,1.3-5.8,2.5-8.5c0.1-0.2,0.1-0.4,0.2-0.7c-0.7-0.1-1.3,0-1.9,0.1
		c-0.2,0.5-0.3,0.9-0.5,1.4C171.5,32.8,171.1,34.4,170.7,36.1L170.7,36.1z M173.4,119.8c0.3,0,0.5,0,0.7,0c0-0.1,0.1-0.1,0-0.2
		c-0.1-0.2-0.2-0.5-0.3-0.7c-1.2-2.8-2-5.6-2.5-8.5c-0.6-3.7-0.8-7.5-0.7-11.3c0.1-2.6,0.2-5.1,0.4-7.7c0.3-3.2,0.9-6.4,1.8-9.5
		c0.4-1.5,0.9-3.1,1.3-4.6c0-0.1,0-0.2,0-0.4c-0.4,0.2-0.4,0.2-0.5,0.5c-0.9,2.1-1.6,4.2-2.1,6.4c-0.5,2.3-0.9,4.6-1.3,6.9
		c-0.4,2.4-0.6,4.8-0.7,7.2c-0.1,2.4-0.1,4.8,0,7.2c0.1,1.7,0.2,3.4,0.5,5c0.3,2.5,0.9,5,1.5,7.5c0.2,0.7,0.3,1.4,0.7,2
		C172.7,119.7,173,119.8,173.4,119.8L173.4,119.8z M172.8,77.8c0.1-0.3,0.2-0.5,0.3-0.8c-0.2-0.2-0.4-0.2-0.5,0
		c-0.1,0.2-0.2,0.4-0.3,0.6c-0.4,0.9-0.7,1.8-1.1,2.7c-1.3,3.4-2.3,6.8-2.9,10.4c-0.5,3.3-0.8,6.7-0.8,10.1
		c-0.1,3.5-0.1,6.9,0.6,10.3c0.4,2.3,0.9,4.5,1.4,6.8c0.1,0.6,0.2,1.1,0.6,1.7c0.4,0,0.8,0,1.2,0.1c0-0.2,0-0.4,0-0.5
		c-0.2-0.8-0.4-1.7-0.7-2.5c-0.9-3.4-1.4-6.8-1.7-10.2c-0.2-3.2-0.2-6.5,0-9.7c0-0.9,0.1-1.8,0.2-2.8c0.3-2.1,0.6-4.3,0.9-6.4
		C170.6,84.2,171.4,81,172.8,77.8L172.8,77.8z M171.2,69.2c0.4,0.9,0.7,1.8,1.1,2.7c0.1,0.2,0.1,0.4,0.3,0.5
		c0.1,0.2,0.3,0.2,0.5,0.1c0,0,0-0.1,0-0.1c-0.1-0.2-0.1-0.5-0.2-0.7c-0.8-1.7-1.4-3.5-1.8-5.3c-0.5-2.2-0.9-4.4-1.3-6.5
		c-0.3-1.6-0.5-3.3-0.6-4.9c-0.2-1.8-0.2-3.5-0.3-5.3c-0.1-3.5,0-7,0.5-10.5c0.4-2.9,1.1-5.8,1.9-8.7c0-0.2,0-0.4,0.1-0.6
		c-0.5,0-0.9-0.1-1.3,0.2c-0.1,0.3-0.2,0.7-0.3,1c-0.8,2.8-1.3,5.7-1.8,8.6c-0.4,2.7-0.5,5.4-0.4,8.2c0,2.4,0.2,4.8,0.4,7.2
		c0.2,2.1,0.5,4.2,0.9,6.3C169.4,63.9,170.2,66.5,171.2,69.2L171.2,69.2z M126.2,58c0,0.1-0.1,0.2-0.1,0.3
		c-1.6,4.4-2.5,8.9-2.8,13.6c0,0.2,0,0.5,0,0.7c0.8,0.1,0.8,0.1,1.3-0.1c-0.1-0.3-0.1-0.6-0.2-0.8c0-0.4,0.2-0.8,0.5-1.1
		c0.5-0.4,1.2-0.3,1.5,0.2c0.2,0.4,0.2,0.7,0.1,1.1c-0.1,0.2-0.2,0.4-0.3,0.7c0.5,0,0.9,0.1,1.4-0.1c0-0.4,0.1-0.8,0.1-1.2
		c0.2-1.6,0.3-3.2,0.5-4.7c0.4-2.2,0.8-4.4,1.3-6.6c0.4-1.6,0.8-3.1,1.5-4.6c0-0.1,0-0.2,0-0.3c-1.1-0.2-2.3-0.4-3.4-0.4
		C127.2,55.7,126.7,56.8,126.2,58L126.2,58z M123.6,81.3c0.3,2.5,0.9,4.9,1.6,7.3c0.6,1.9,1.2,3.8,2.2,5.6c0.1,0.2,0.3,0.4,0.4,0.6
		c1.3,0,2.8-0.2,3.5-0.5c-0.3-0.7-0.6-1.5-0.9-2.2c-0.8-2.4-1.3-4.8-1.7-7.2c-0.4-2.3-0.8-4.6-0.9-6.9c0-0.4,0-0.8-0.2-1.1
		c-0.4-0.1-0.9-0.2-1.3,0.1c0.1,0.3,0.2,0.5,0.3,0.7c0.1,0.2,0.1,0.5,0,0.7c-0.1,0.5-0.4,0.8-0.8,0.8c-0.4,0.1-0.8-0.2-1-0.5
		c-0.3-0.4-0.4-0.8-0.3-1.2c0-0.2,0.1-0.4,0.2-0.6c-0.7-0.1-0.7-0.1-1.4,0.1c0,0.4,0,0.7,0.1,1.1C123.4,79,123.5,80.1,123.6,81.3z
		 M176.4,32.2c0.5-1.6,1.1-3.2,1.9-4.7c-0.7-0.3-0.8-0.3-1.8-0.2c-0.1,0.2-0.3,0.4-0.4,0.6c-0.6,1.3-1.2,2.7-1.8,4
		c-1.7,4.4-2.4,8.9-2.6,13.5c-0.2,4,0,7.9,0.3,11.9c0.2,2.6,0.6,5.1,1.2,7.6c0.6,2.2,1.2,4.5,1.9,6.7c0.1,0.2,0.2,0.5,0.3,0.7
		c0.6,0.1,1.1,0.1,1.8,0c-0.1-0.3-0.2-0.6-0.3-0.9c-0.3-0.8-0.6-1.6-0.8-2.4c-0.6-1.9-1-3.8-1.3-5.7c-0.5-2.7-0.8-5.4-0.9-8.1
		c-0.1-4.2,0-8.3,0.4-12.5c0.1-1.3,0.3-2.5,0.5-3.8C175.1,36.7,175.7,34.6,176.4,32.2L176.4,32.2z M177.2,122.2c0.4,0,0.7,0,1.1-0.3
		c-0.3-0.7-0.7-1.5-1-2.2c-1.4-3.7-2.3-7.5-2.8-11.4c-0.3-2.9-0.5-5.9-0.6-8.8c0-2.4-0.1-4.9,0.1-7.3c0.2-2.3,0.5-4.6,0.9-6.9
		c0.5-2.4,1-4.8,1.9-7.1c0.1-0.3,0.2-0.5,0.3-0.8c0-0.1,0-0.3,0-0.5c-0.6,0-1.2-0.1-1.7,0.1c-0.1,0.3-0.2,0.6-0.3,0.9
		c-0.2,0.8-0.5,1.6-0.7,2.4c-1.1,3.5-1.8,7-2.2,10.6c-0.3,3.2-0.5,6.4-0.5,9.6c0,3.2,0.2,6.3,0.7,9.5c0.6,3.9,1.9,7.7,3.6,11.2
		c0.1,0.2,0.2,0.4,0.3,0.6C176.4,122.2,176.7,122.2,177.2,122.2L177.2,122.2z M66.9,77c-0.4,0.3-0.9,0.5-1.3,0.8
		c-0.8,0.5-1.5,1-2.3,1.5c-0.2,0.1-0.5,0.3-0.7,0.3c-0.1,0-0.3-0.1-0.4-0.2c-0.1-0.1-0.1-0.3,0.1-0.4c0.1-0.1,0.1-0.1,0.2-0.2
		c1-0.7,2-1.3,2.9-2c0.7-0.5,1.5-0.8,2.3-1.1c0.8-0.2,1-0.4,1-1.2c0-0.3,0-0.6,0-0.8c-0.1-0.1-0.2-0.1-0.3-0.1
		C67.1,73.5,66,73,65,72.3c-0.8-0.6-1.7-1.1-2.5-1.7c-0.1-0.1-0.2-0.1-0.3-0.2c-0.1-0.1-0.1-0.3-0.1-0.3c0.1-0.1,0.3-0.2,0.4-0.2
		c0.3,0.1,0.5,0.2,0.7,0.3c0.8,0.5,1.6,1.1,2.4,1.7c0.5,0.3,1,0.6,1.5,0.9c0.4,0.2,0.8,0.3,1.3,0.3c3,0,5.9,0,8.9,0
		c0.1,0,0.3,0.1,0.4-0.2c-0.6-0.2-1.3-0.5-1.9-0.7c-1.2-0.4-2.5-0.6-3.8-0.6c-0.5,0-1.1,0.1-1.6,0.1c-1.3,0.2-2.5-0.1-3.5-0.7
		c-0.5-0.3-0.9-0.6-1.4-0.9c-1.3-1-2.8-1.7-4.4-2.3c-1.3-0.5-2.7-0.8-4-1.1c-2.1-0.4-4.3-0.6-6.5-0.4c-0.2,0-0.4-0.1-0.5,0.3
		c0.2,0.1,0.5,0.2,0.7,0.3c1.2,0.5,2.5,0.9,3.7,1.3c2,0.7,4,1.6,5.9,2.6c1.8,0.9,3.4,2.1,4.7,3.6c0.4,0.4,0.4,0.8,0,1.2
		c-1.2,1.3-2.5,2.4-4,3.3c-1.9,1-3.8,2-5.8,2.7c-1.6,0.6-3.1,1.1-4.7,1.7c-0.2,0.1-0.4,0.2-0.7,0.3c0.4,0.3,0.8,0.2,1.2,0.2
		c2.2,0.1,4.4-0.2,6.5-0.6c3-0.6,5.7-1.7,8.1-3.5c0.4-0.3,0.9-0.6,1.4-0.9c0.7-0.4,1.5-0.6,2.4-0.5c0.5,0,1,0.1,1.5,0.1
		c0.8,0,1.5,0,2.3,0c1.4-0.1,2.8-0.6,4.1-1.2c0,0,0-0.1,0.1-0.2c-0.3,0-0.7,0-1,0c-2.6,0-5.1,0-7.7,0C68.3,76.5,67.6,76.6,66.9,77
		L66.9,77z M159,76c7,0,14.1,0,21.1,0c1.3,0,2.6,0,3.9,0c0.2,0,0.4-0.1,0.6-0.1c0.3-1,0.3-1.9-0.3-2.7c-34.2,0.1-68.3,0.2-102.4,0.3
		c-0.1,0-0.3,0-0.4,0.1c0,0.7,0,1.3,0,1.9c0.3,0.2,0.6,0.1,1,0.1c2.6,0,5.2,0,7.8,0c10.4,0,20.8,0,31.2,0.1
		C133.9,75.9,146.3,76,159,76L159,76z M122,85c0.2-0.6-0.1-1.2-0.2-1.8c-0.5,0.1-1,0.1-1.5,0.2c-0.2,0-0.4,0-0.6,0
		c-0.1,0-0.2-0.2-0.2-0.3c0-0.1,0.1-0.3,0.2-0.3c0.1-0.1,0.3-0.1,0.5-0.1c0.5-0.1,1-0.1,1.6-0.3c-0.1-0.7-0.2-1.4-0.3-2.1
		c-0.4-0.1-0.8,0-1.1,0.1c-0.2,0-0.3,0-0.5,0c-0.1,0-0.2-0.2-0.2-0.3c0-0.1,0.1-0.3,0.2-0.3c0.1-0.1,0.3-0.1,0.5-0.1
		c0.4-0.1,0.7-0.1,1.1-0.1c0.1-0.5,0-0.9-0.1-1.4c-0.1-0.5,0-0.9-0.2-1.4c-0.4-0.1-0.7-0.1-1.1-0.1c-6.8,0-13.6,0-20.4-0.1
		c-0.2,0-0.5,0-0.7,0c-0.1,0-0.3,0-0.3,0.2c0.4,0.3,0.9,0.5,1.3,0.8c0.5,0.3,1.1,0.6,1.6,0.9c0.2,0.1,0.4,0.2,0.3,0.5
		c-0.1,0.2-0.3,0.3-0.7,0.1c-0.9-0.5-1.8-0.9-2.6-1.4c-0.5-0.3-1-0.6-1.2-1.2c-0.5,0-1,0-1.4,0c0,0-0.1,0.1-0.2,0.1
		c0.1,0.3,0.3,0.4,0.5,0.5c1,0.7,1.9,1.4,2.9,2.1c1.3,0.9,2.5,2,3.8,2.8c0.1,0.1,0.2,0.1,0.2,0.2c0.1,0.1,0.2,0.3,0,0.4
		c-0.1,0.1-0.2,0.1-0.3,0.1c-0.2,0-0.4-0.1-0.5-0.2c-0.6-0.4-1.2-0.8-1.8-1.2c-1.8-1.3-3.5-2.5-5.2-3.8c-0.4-0.3-0.7-0.6-1.1-1
		c-0.4,0-0.9,0-1.4,0c-0.2,0-0.3-0.1-0.4,0.3c0.2,0.1,0.4,0.3,0.6,0.4c1.2,1.1,2.5,2.2,3.7,3.3c1.3,1.2,2.5,2.5,3.8,3.7
		c1.9,1.7,3.7,3.4,5.9,4.9c2.7,1.8,5.6,3.1,8.8,3.7c3.1,0.6,6.3,0.7,9.5,0.5c0.1,0,0.2-0.1,0.3-0.1c-0.2-0.7-0.5-1.3-0.8-1.9
		c-0.3,0-0.6,0-0.8,0c-1.1,0-2.1-0.2-3.2-0.4c-0.3-0.1-0.5-0.3-0.4-0.5c0.1-0.2,0.3-0.3,0.5-0.3c0.1,0,0.3,0,0.4,0.1
		c0.5,0.1,1.1,0.2,1.6,0.2c0.5,0.1,1,0.1,1.6,0c-0.1-0.6-0.3-1.2-0.6-1.8c-0.6,0-1.2,0-1.8,0c-0.3,0-0.5,0-0.8-0.1
		c-0.2,0-0.3-0.2-0.3-0.3c0-0.1,0.1-0.2,0.2-0.3c0.3,0,0.6,0,0.9-0.1c0.5-0.1,1,0.1,1.5-0.2c-0.1-0.7-0.2-1.3-0.5-1.9
		c-0.7,0-1.4,0.1-2.1,0.1c-0.2,0-0.5-0.2-0.4-0.3c0-0.1,0.2-0.3,0.3-0.3c0.2-0.1,0.5-0.1,0.7-0.1C121.1,85.2,121.5,85.2,122,85
		L122,85z M120.3,60.8c0.9,0,1.7-0.1,2.6-0.1c0.2-0.5,0.5-1.1,0.5-1.7c-0.2,0-0.4-0.1-0.6,0c-0.9,0.1-1.7,0.2-2.6,0.2
		c-0.2,0-0.4,0-0.6,0c-0.1,0-0.2-0.2-0.2-0.3c0-0.1,0.1-0.3,0.2-0.3c0.1-0.1,0.3-0.1,0.5-0.1c1-0.2,2-0.4,3.1-0.4
		c0.3,0,0.5,0,0.8-0.1c0.3-0.7,0.6-1.2,0.7-1.9c-0.2,0-0.3-0.1-0.4-0.1c-2.1-0.2-4.3-0.2-6.4,0c-2.2,0.2-4.4,0.7-6.5,1.5
		c-2.9,1.1-5.6,2.7-7.9,4.7c-1.6,1.4-3.2,2.9-4.8,4.4c-2,1.9-3.8,3.8-6,5.5c-0.1,0.1-0.2,0.1-0.2,0.2c-0.1,0.1-0.3,0.2-0.2,0.4
		c0.6,0,1.2,0,1.9,0c0.3-0.5,0.9-0.9,1.4-1.2c1.1-0.8,2.2-1.6,3.3-2.4c1-0.7,2.1-1.5,3.1-2.2c0.2-0.2,0.5-0.3,0.8-0.4
		c0.1,0,0.3,0.1,0.3,0.1c0.1,0.1,0.1,0.3,0,0.3c-0.1,0.1-0.2,0.2-0.4,0.3c-0.5,0.3-0.9,0.6-1.4,0.9c-1.9,1.4-3.7,2.7-5.5,4.1
		c-0.1,0.1-0.3,0.2-0.2,0.4c0.5,0,1,0,1.6,0c0.2-0.4,0.5-0.7,0.9-0.9c1-0.5,2-1.1,3-1.6c0.1-0.1,0.3-0.1,0.5-0.1
		c0.1,0,0.2,0.1,0.2,0.2c0,0.1,0,0.2,0,0.3c-0.2,0.2-0.3,0.3-0.5,0.4c-0.8,0.5-1.7,0.9-2.5,1.4c-0.1,0.1-0.3,0.2-0.1,0.4
		c0.3,0,0.7,0,1.1,0c5.6,0,11.2,0,16.8-0.1c1.3,0,2.5,0,3.8,0c0.3,0,0.5-0.1,0.8-0.1c-0.1-1,0.3-1.8,0.2-2.8c-0.4,0-0.8-0.1-1.2-0.1
		c-0.2,0-0.3-0.1-0.4-0.2c-0.1,0-0.1-0.2-0.1-0.3c0-0.1,0.1-0.2,0.2-0.2c0.2,0,0.3-0.1,0.5-0.1c0.4,0,0.8,0.1,1.3,0.1
		c-0.1-0.8,0.3-1.4,0.1-2.2c-0.5-0.1-1-0.1-1.5-0.2c-0.1,0-0.3,0-0.4-0.1c-0.1-0.1-0.3-0.2-0.3-0.4c0-0.1,0.2-0.3,0.3-0.3
		c0.4,0,0.9,0.1,1.3,0.1c0.3,0,0.5,0.1,0.8-0.1c0-0.5,0.3-1.1,0.2-1.7c-0.4-0.2-0.9-0.1-1.4-0.2c-0.2,0-0.5,0-0.7-0.1
		c-0.1,0-0.2-0.2-0.2-0.3c0-0.1,0.1-0.3,0.2-0.3c0.3,0,0.6,0,0.9,0c0.5,0,0.9,0.1,1.4,0c0.2-0.6,0.4-1.2,0.4-1.9
		c-0.3,0-0.6-0.1-0.8-0.1c-0.5,0-1,0-1.5-0.1C120.1,61.4,120,61.3,120.3,60.8L120.3,60.8z M166.1,115c-0.3-1.7-0.6-3.4-0.8-5.1
		c-0.3-2.5-0.4-4.9-0.5-7.4c0-2.4,0.1-4.8,0.3-7.1c0.3-3.1,0.8-6.1,1.6-9.1c0.7-3,1.5-6.1,2.7-9c0-0.1,0.1-0.2,0.1-0.4
		c-0.2,0-0.3-0.1-0.4-0.1c-5.4,0-10.9,0-16.3,0c-0.3,0.5-0.6,0.9-0.8,1.4c-3.3,6.6-5.8,13.5-6.9,20.8c-0.3,2.2-0.5,4.4,0,6.6
		c0.3,0.2,0.6,0.4,0.9,0.5c3.8,2.3,7.7,4.6,11.5,6.9c2.9,1.8,5.9,3.5,8.8,5.3c0.3,0.2,0.5,0.4,0.9,0.4
		C166.7,117.5,166.4,116.4,166.1,115z M153.8,72.6c4.8,0,9.7,0,14.5,0c0.2,0,0.5,0,0.7,0c0.1,0,0.3-0.1,0.4-0.1
		c-0.4-1.2-0.8-2.3-1.2-3.4c-1.4-4.7-2.5-9.5-3.1-14.3c-0.3-2.8-0.5-5.5-0.4-8.3c0.1-2.1,0.2-4.2,0.4-6.4c0.3-3,0.8-6,1.7-9
		c0-0.1,0-0.3,0.1-0.5c-0.2,0.1-0.3,0.2-0.4,0.2c-7.2,4.3-14.4,8.6-21.6,12.9c0,0,0,0-0.1,0.1c0,0,0,0.1,0,0c-0.2,1.4-0.3,2.7-0.2,4
		c0.1,1.5,0.3,3,0.6,4.5c1.3,6.6,3.6,12.9,6.7,19c0.2,0.4,0.4,0.8,0.7,1.2C153,72.6,153.3,72.6,153.8,72.6L153.8,72.6z M127.5,53.7
		c1.8,0.2,3.5,0.4,5.1,0.6c0.7,0.1,1.2,0.4,1.5,1c0.3,0.5,0.5,1,0.7,1.5c0.9,2.5,1.5,5.1,1.7,7.7c0.2,2.4,0.3,4.9,0.3,7.3
		c0,0.2,0,0.4,0,0.7c0.2,0,0.4,0.1,0.6,0.1c4.6,0,9.1,0,13.7,0c0.2,0,0.3,0,0.6-0.1c-0.1-0.2-0.2-0.4-0.2-0.6
		c-2.7-4.9-4.6-10-6-15.3c-0.7-2.6-1.2-5.3-1.5-8c-0.1-1.4-0.2-2.7,0-4.1c0.1-0.4,0.1-0.8,0.1-1.3c0.3-0.2,0.6-0.4,1-0.6
		c6.7-4,13.4-8,20.2-12.1c0.6-0.4,1.2-0.7,1.8-1.2c0.4-0.2,0.8-0.3,1.2-0.4c2.1-0.1,4.3-0.3,6.4-0.4c0.1-0.2,0.3-0.4,0.4-0.6
		c0.2-0.3,0.4-0.7,0.6-1c0.2-0.4,0.6-0.7,1.1-0.6c0.5,0.1,1,0.1,1.5,0.1c0.4,0,0.7,0.3,0.9,0.6c0,0.1,0,0.2-0.1,0.4
		c-1.2,2.4-1.9,4.9-2.6,7.4c-0.8,3-1.2,6.1-1.4,9.2c-0.2,3.2-0.4,6.3-0.3,9.5c0.1,5.1,0.8,10.1,2.2,15.1c0,0.1,0,0.1,0,0.2
		c0.1,0.9,0.6,1.5,1.7,1.5c0.8,0,1.3,0.5,1.4,1.3c0,0.1,0,0.1,0,0.2c0.1,0.4,0.3,0.5,0.7,0.5c0.3,0,0.5,0,0.8,0c3.3,0,6.5,0,9.8,0
		c0.4,0,0.7,0,1,0c0.9,1.1,1,3.2,0.3,4.4c-0.2,0-0.5,0.1-0.7,0.1c-3.5,0-7.1,0-10.6-0.1c-1.1,0-1.1,0-1.4,1
		c-0.2,0.6-0.6,0.9-1.2,1.1c-0.5,0.1-0.9,0.2-1.4,0.3c-0.2,0.4-0.3,0.8-0.4,1.2c-0.6,2.1-1.1,4.3-1.5,6.5c-0.7,4.3-0.9,8.7-0.7,13
		c0.1,2.8,0.2,5.5,0.6,8.3c0.4,3.8,1.3,7.5,2.7,11.1c0.3,0.7,0.6,1.5,0.9,2.2c0.1,0.2,0.2,0.4,0.3,0.6c-0.2,0.4-0.5,0.6-0.9,0.7
		c-0.5,0.1-0.9,0.1-1.4,0.1c-0.6,0.1-1-0.1-1.2-0.6c-0.2-0.4-0.4-0.8-0.7-1.2c-0.1-0.1-0.2-0.3-0.3-0.4c-0.8-0.1-1.6-0.1-2.4-0.2
		c-1.3-0.1-2.7-0.2-4-0.2c-0.5,0-0.9-0.2-1.3-0.4c-7.3-4.4-14.7-8.8-22-13.2c-0.3-0.2-0.6-0.4-0.9-0.6c-0.3-1.9-0.4-3.7-0.2-5.5
		c0.5-5,1.9-9.8,3.6-14.5c1.1-3,2.3-5.9,3.9-8.6c0.1-0.1,0.1-0.3,0.2-0.4c0-0.1,0-0.1-0.1-0.2c0,0-0.1,0-0.1,0
		c-4.5,0-9.1,0-13.6-0.1c-0.3,0-0.5,0-0.8,0c-0.1,0-0.1,0.1-0.2,0.1c0,0-0.1,0-0.1,0.1c0,0.6,0,1.1-0.1,1.7
		c-0.1,2.4-0.2,4.8-0.4,7.1c-0.2,2.4-0.8,4.8-1.7,7c-0.2,0.4-0.4,0.9-0.6,1.3c-0.3,0.5-0.8,0.9-1.4,0.9c-1.9,0.2-3.8,0.4-5.7,0.7
		c-0.2,0-0.5,0-0.7,0c-0.4-0.5-0.7-1.1-1.1-1.6c-0.6,0-1.2,0.1-1.9,0.1c-2.9,0.2-5.7,0-8.6-0.5c-3.4-0.7-6.6-2.1-9.4-4.1
		c-2.2-1.5-4.1-3.3-6-5c-1.8-1.7-3.7-3.5-5.5-5.3c-0.6-0.5-1.2-1-1.8-1.5c-0.3-0.3-0.6-0.5-0.9-0.7c-0.5-0.3-1-0.5-1.7-0.5
		c-2.3,0-4.7,0-7,0c-1.1,0-2.2,0.1-3.2,0.5c-0.8,0.3-1.6,0.6-2.4,0.9c-2,0.8-4.2,1.1-6.4,0.8c-1.2-0.2-2.4,0.1-3.4,0.7
		c-0.2,0.2-0.5,0.3-0.7,0.5c-2.5,1.8-5.2,3-8.3,3.6c-2.4,0.5-4.7,0.8-7.1,0.6c-0.9-0.1-1.8-0.2-2.7-0.4c-0.2,0-0.3-0.1-0.5-0.2
		c-0.2-0.1-0.2-0.5,0-0.6c0.2-0.1,0.3-0.2,0.5-0.2c2.3-0.8,4.6-1.6,6.8-2.4c1.9-0.7,3.8-1.6,5.6-2.6c0.9-0.5,1.6-1.1,2.4-1.7
		c0.5-0.4,0.9-0.9,1.3-1.5c-0.2-0.5-0.6-0.8-1-1.2c-0.9-0.8-1.8-1.5-2.9-2.1c-2.1-1.1-4.2-2.1-6.4-2.9c-2-0.7-4-1.4-6-2.1
		c-0.3-0.1-0.5-0.2-0.6-0.5c0-0.2,0.1-0.4,0.6-0.5c0.6-0.1,1.2-0.3,1.9-0.3c3.7-0.3,7.4,0.2,10.9,1.4c1.8,0.6,3.4,1.5,4.9,2.5
		c0.5,0.4,1.1,0.7,1.7,1.1c0.8,0.4,1.6,0.6,2.5,0.5c0.6-0.1,1.3-0.1,1.9-0.1c1.5-0.1,3,0.2,4.4,0.7c0.8,0.3,1.5,0.6,2.3,0.9
		c1.3,0.5,2.7,0.8,4.1,0.7c2.2-0.1,4.3-0.1,6.5,0c0.9,0,1.6-0.2,2.2-0.7c0.7-0.6,1.4-1.1,2-1.7c1.5-1.4,2.9-2.8,4.4-4.2
		c1.6-1.5,3.3-3.1,5-4.6c2.5-2.2,5.4-3.9,8.5-5c1.9-0.7,4-1.1,6-1.3c1.5-0.1,3.1-0.2,4.6-0.2c1,0,2.1,0.1,3.2,0.2
		c0.3-0.4,0.6-0.7,0.8-1.1c0.2-0.4,0.6-0.6,1.1-0.5C127.2,53.7,127.3,53.7,127.5,53.7L127.5,53.7z M229.3,7.7
		c0.7,0.2,1.4,0.4,2.1,0.3c0.1-1.1,0.1-2.8,0-3.4c-1-0.1-4.3-0.1-5,0c0,0.9,0.3,1.5,0.9,2C227.9,7.1,228.5,7.4,229.3,7.7z
		 M231.5,143.3c0-0.4,0.1-0.8-0.1-1.2c-1.6,0.1-2.9,0.6-4.1,1.5c-0.6,0.5-0.9,1.2-0.9,2c0.6,0.1,1.2,0,1.7,0.1c0.6,0,1.1,0,1.7,0
		c0.6,0,1.1,0.1,1.7-0.1C231.6,144.9,231.5,144.2,231.5,143.3L231.5,143.3z M11.2,4.6c-1.5,0-3,0-4.5,0c0,0-0.1,0-0.1,0
		c0,0,0,0-0.1,0.1C6.4,5.5,6.4,7.2,6.6,8c0.1,0,0.2,0.1,0.3,0.1C8.4,8,9.7,7.5,10.9,6.5c0.5-0.4,0.8-1,0.9-1.7
		C11.8,4.6,11.6,4.6,11.2,4.6z M7.4,142.2c-0.3,0-0.6-0.1-0.8,0.1c-0.2,1-0.1,2.7,0.1,3.4c1.2,0.1,4.5,0.1,5.2-0.1
		c0-0.8-0.3-1.5-1-2C9.8,142.8,8.8,142.3,7.4,142.2z M231.5,105.2c0-2.6,0-5.3,0-7.9c0-24.1,0-48.1,0-72.2c0-4.9,0-9.8,0-14.7
		c0-0.3,0.1-0.7-0.2-1c-3.5-0.1-5.7-2-7.1-4.8c-0.4,0-0.7,0-1.1,0c-2.3,0-4.7,0-7,0c-1.9,0-3.8,0-5.7,0c-0.3,0-0.5-0.1-0.8,0.2
		c0,0.3,0,0.8,0,1.2c0,9.1-0.1,18.1-0.1,27.2c0,35.2,0,70.5,0,105.7c0,2,0,3.9,0,5.9c0,0.3-0.1,0.6,0.1,0.9c0.9,0.1,13.6,0.1,14.5,0
		c0.1-0.1,0.2-0.3,0.2-0.4c0.6-1.3,1.6-2.3,2.8-3.2c1-0.7,2.1-1,3.3-1.1c0.3,0,0.6,0.1,0.9-0.2C231.5,128.9,231.5,117.1,231.5,105.2
		z M6.4,124.8c0,1.4,0,2.8,0,4.2c0,3.6,0,7.2,0,10.8c0,0.3-0.1,0.7,0.2,1.1c3.5,0,5.8,1.9,7.3,4.8c0.4,0,0.8,0,1.2,0
		c63.8,0,127.6,0,191.4,0c0.4,0,0.8,0,1.2,0c0.2,0,0.4-0.1,0.6-0.1c0-0.4,0-0.8,0-1.2c0-43.8,0-87.6,0-131.4c0-2.5,0-5.1,0-7.6
		c0-0.3,0.1-0.6-0.2-0.8c-0.9-0.1-193.5,0-194.3,0.1c-0.3,0.4-0.5,0.9-0.8,1.3c-0.3,0.4-0.7,0.8-1,1.2c-1.3,1.4-2.9,2.1-4.8,2.2
		C7,9.4,6.8,9.4,6.5,9.4c0,0.4,0,0.7,0,1C6.4,31.3,6.3,52.1,6.3,73C6.3,90.2,6.4,107.4,6.4,124.8z M110.4,3.4
		c40.8,0,81.5,0,122.3-0.1c0.1,0,0.1,0.1,0.2,0.1c0,0.1,0,0.3-0.1,0.4c-0.3,0.5-0.3,1-0.3,1.6c0,7.3,0,14.6,0,21.8
		c0,19.4,0,38.8,0,58.3c0,19.6,0,39.3,0,58.9c0,0.8,0,1.5,0.4,2.2c0,0,0,0.1,0,0.2c-0.3,0.2-0.6,0.1-0.9,0.1c-1.9,0-3.9,0-5.8,0
		c-26.9,0-53.8-0.1-80.7-0.1c-26.3,0-52.6,0-78.8,0c-19.8,0-39.6,0-59.3,0c-0.7,0-1.3,0.1-2-0.1c-0.1-1-0.1-2.1-0.1-3.1
		c0-1.1,0-2.2,0-3.2c0-1,0-2.1,0-3.1c0-1.1,0-2.2,0-3.2c0-1,0-2.1,0-3.1c0-1,0-2.1,0-3.1c0-1.1,0-2.2,0-3.2c0-1,0-2.1,0-3.1
		c0-1.1,0-2.2,0-3.2c0-1,0-2.1,0-3.1c0-1,0-2.1,0-3.1c0-1.1,0-2.2,0-3.2c0-1,0-2.1,0-3.1c0-1.1,0-2.2,0-3.2c0-1,0-2.1,0-3.1
		c0-1,0-2.1,0-3.1c0-1.1,0-2.2,0-3.2c0-1,0-2.1,0-3.1c0-1.1,0-2.2,0-3.2c0-1,0-2.1,0-3.1c0-1,0-2.1,0-3.1c0-1.1,0-2.2,0-3.2
		c0-1,0-2.1,0-3.1c0-1.1,0-2.2,0-3.2c0-1,0-2.1,0-3.1c0-1,0-2.1,0-3.1c0-1.1,0-2.2,0-3.2c0-1,0-2.1,0-3.1c0-1.1,0-2.2,0-3.2
		c0-1,0-2.1,0-3.1c0-1,0-2.1,0-3.1c0-1.1,0-2.2,0-3.2c0-1,0-2.1,0-3.1c0-1.1,0-2.2,0-3.2c0-1,0-2.1,0-3.1c0-1,0-2.1,0-3.1
		c0-1.1,0-2.2,0-3.2c0-1,0-2.1,0-3.1c0-1.1,0-2.2,0-3.2c0-1,0-2.1,0-3.1c0-1,0-2.1,0-3.1c0-1.1,0-2.2,0-3.2c0-1,0-2.1,0-3.1
		c0-1.1,0-2.2,0-3.2c0-1,0-2.1,0.1-3.2c0.2,0,0.5-0.1,0.8-0.1c3.6,0,7.1,0,10.7,0c17.5,0,34.9,0,52.4,0C82.9,3.4,96.6,3.4,110.4,3.4
		L110.4,3.4z"/>
</g>
</svg>
