<?xml version="1.0" encoding="utf-8"?>
<!-- Generator: Adobe Illustrator 24.0.2, SVG Export Plug-In . SVG Version: 6.00 Build 0)  -->
<svg version="1.1"
	 id="Слой_1" shape-rendering="geometricPrecision" image-rendering="optimizeQuality" text-rendering="geometricPrecision" xmlns:xodm="http://www.corel.com/coreldraw/odm/2003"
	 xmlns="http://www.w3.org/2000/svg" xmlns:xlink="http://www.w3.org/1999/xlink" x="0px" y="0px" viewBox="0 0 238.1 150.2"
	 style="enable-background:new 0 0 238.1 150.2;" xml:space="preserve">
<style type="text/css">
	.st0{fill-rule:evenodd;clip-rule:evenodd;}
</style>
<g id="Layer_x0020_1">
	<path class="st0" d="M4.7,72.7c0.9-1.4,2.5-2.3,4.3-2.3c1.9,0,3.5,1,4.4,2.4c-0.9-3.6-3.7-6.5-4.4-7.1C8.4,66.4,5.7,69.1,4.7,72.7z
		 M116,81.3c1.3,0.8,2.9,1.3,4.7,1.3c4.7,0,8.5-3.5,8.5-7.9c0-4.4-3.8-7.9-8.5-7.9c-1.7,0-3.3,0.5-4.6,1.3c0.1-0.2,0.1-0.4,0.2-0.6
		c2.5-1.3,5.1-1.5,7.8-0.5c0.1,0.1,0.1,0.1,0.1,0.1c0-0.2-0.2-0.3-0.3-0.4c-0.8-0.3-1.6-0.5-2.5-0.6c-1.3-0.1-2.6,0-3.9,0.4
		c-0.2,0.1-0.4,0.1-0.6,0.2c0,0-0.1,0-0.1,0c-0.1-0.3,0.2-0.4,0.1-0.6c0.1-0.1,0.2-0.1,0.3-0.1c2.2-0.6,4.4-0.5,6.7,0.1
		c0.3,0.1,0.6,0.2,0.9,0.2c-0.7-0.5-1.5-0.6-2.3-0.8c-0.8-0.2-1.7-0.3-2.6-0.2c-0.8,0-1.7,0.1-2.5,0.2c0.1-0.5,0.1-0.6,0.5-0.6
		c2.2-0.2,4.3,0,6.4,0.5c0.2,0,0.3,0.1,0.5,0.1c0.2,0,0.1,0,0.1,0c0-0.3-0.3-0.3-0.5-0.3c-1.5-0.5-3.1-0.8-4.7-0.8
		c-0.6,0-1.2,0-1.7,0c0-0.2,0.1-0.3,0.3-0.3c4.8-0.7,9.9,1.3,12.5,5.1c1.1,1.6,1.7,3.4,1.7,5.4c0,0.8,0,1.7-0.2,2.5
		c-0.4,1.7-1.1,3.2-2.3,4.5c-3,3.2-6.9,4.6-11.4,4.1c-0.2,0-0.4,0-0.5-0.3c1.3-0.1,2.5,0.1,3.7-0.2c1.2-0.2,2.4-0.4,3.4-1.1
		c-0.8,0.2-1.7,0.4-2.5,0.5c-0.8,0.1-1.7,0.2-2.5,0.3c-0.9,0.1-1.7,0-2.6-0.2c0-0.1-0.1-0.3-0.1-0.4c0.1,0,0.1-0.1,0.2-0.1
		c0.3,0,0.5,0,0.8,0.1c2.1,0.3,4,0,6-0.6c0.1,0,0.2-0.1,0.3-0.1c0.1,0,0.1-0.1,0.3-0.2c-0.3,0-0.4,0.1-0.6,0.1
		c-1.3,0.4-2.7,0.6-4.1,0.6c-1,0-2-0.2-3.1-0.4c-0.1-0.2-0.2-0.4-0.3-0.7c0.1,0,0.2-0.1,0.2-0.1c0.4,0.1,0.9,0.3,1.3,0.4
		c1.9,0.5,3.8,0.4,5.6-0.4c0-0.1,0-0.1,0-0.1c-0.4,0.1-0.8,0.2-1.2,0.3c-1.6,0.3-3.2,0.2-4.7-0.3c-0.5-0.2-0.9-0.4-1.5-0.6
		C116.1,81.8,116.1,81.6,116,81.3L116,81.3z M126.8,85.4c0.1,0,0.1,0,0.2,0C126.9,85.4,126.9,85.4,126.8,85.4
		C126.8,85.4,126.8,85.4,126.8,85.4C126.7,85.4,126.7,85.4,126.8,85.4z M126.4,85.6c0.2,0,0.3,0,0.3-0.2c0,0,0,0,0,0
		C126.5,85.5,126.5,85.5,126.4,85.6C126.3,85.6,126.3,85.6,126.4,85.6L126.4,85.6z M125.4,62c0,0.1,0.1,0.1,0.1,0.1c0,0,0-0.1,0-0.1
		C125.5,62,125.5,62,125.4,62C125.4,61.9,125.5,61.9,125.4,62L125.4,62z M125.9,59.8c0,0,0-0.1,0.1-0.1c-0.1,0-0.2-0.1-0.3-0.1
		C125.7,59.7,125.8,59.7,125.9,59.8L125.9,59.8z M125.8,89.8c-0.1,0-0.2,0.1-0.3,0.1c0,0,0,0,0,0.1c0.1,0,0.2,0,0.3,0
		C125.9,89.9,125.8,89.8,125.8,89.8z M125.1,91.4c0.4,0.1,0.6,0,0.7-0.2c0,0-0.1-0.1-0.2-0.1C125.4,91.2,125.3,91.3,125.1,91.4
		L125.1,91.4z M125.2,58.2c0.2,0.1,0.3,0.2,0.5,0.2c0,0,0.1,0,0.1-0.1c0-0.1-0.1-0.1-0.1-0.2C125.5,58.1,125.3,58,125.2,58.2z
		 M124.8,60.4c-0.1-0.1-0.2-0.2-0.3-0.2c-1-0.4-1.9-0.6-3-0.6c-0.2,0-0.4,0-0.7,0c-0.1,0-0.2,0.1-0.3,0.3c0.3,0,0.4,0,0.6,0.1
		C122.5,59.9,123.7,60.2,124.8,60.4z M121,89.5c-0.2,0-0.3,0-0.3,0.2c0.3,0.3,0.7,0.2,1.1,0.2c1-0.1,2-0.2,3-0.8
		c-0.9,0.1-1.7,0.3-2.6,0.4C121.8,89.5,121.4,89.5,121,89.5z M124.9,65.4c0.1,0,0.1,0.1,0.2,0.1C125,65.5,124.9,65.4,124.9,65.4
		C124.9,65.4,124.8,65.4,124.9,65.4C124.8,65.4,124.8,65.4,124.9,65.4z M124.1,67.1C124.2,67.1,124.2,67.1,124.1,67.1
		c0.1,0,0.2,0,0.2-0.1c0,0,0,0-0.1,0C124.3,67.1,124.3,67.1,124.1,67.1C124.1,67.1,124.2,67.1,124.1,67.1z M124.3,82.6
		c0.1-0.1,0.1-0.1,0.1-0.1c0,0-0.1,0-0.1,0C124.3,82.5,124.3,82.6,124.3,82.6C124.3,82.6,124.3,82.6,124.3,82.6L124.3,82.6z
		 M124.3,82.6c-0.2,0-0.4,0.1-0.6,0.1c0,0,0,0,0.1,0C124,82.7,124.1,82.6,124.3,82.6C124.3,82.6,124.3,82.6,124.3,82.6z M126.8,81.8
		c-0.3,0.3-0.5,0.4-0.6,0.6C126.6,82.2,126.6,82.2,126.8,81.8z M126.1,67.2c0.2,0.1,0.4,0.3,0.7,0.4c0.1-0.3-0.2-0.3-0.3-0.5
		C126.3,67.1,126.2,67,126.1,67.2z M125.8,81.4c0.1,0.1,0.2,0.1,0.2,0.1c0.4-0.1,0.6-0.4,0.8-0.7c0,0,0-0.1,0-0.3
		c-0.2,0.2-0.4,0.3-0.7,0.5C126.1,81.2,126,81.3,125.8,81.4L125.8,81.4z M126.7,68.9c0.1,0.1,0.2,0.3,0.4,0.1
		c-0.6-0.8-0.7-0.9-1.2-1c0,0.3,0.2,0.3,0.4,0.5C126.5,68.7,126.6,68.8,126.7,68.9z M36.5,75c0,0.1,0.1,0.2,0.2,0.2
		c0.1,0,0.2-0.1,0.2-0.2c-0.1-0.2,0.1-0.5-0.2-0.7C36.4,74.5,36.5,74.7,36.5,75z M55,124.7c-0.6-0.4-0.9-1-1.2-1.6
		c-0.2,0.5,0,0.9,0.3,1.3C54.3,124.6,54.5,124.8,55,124.7z M53.8,26.4c0.2-0.7,0.7-1.1,1.2-1.7c-0.5,0-0.8,0.2-1.1,0.6
		C53.6,26,53.6,26,53.8,26.4z M75.7,98.1c0,0.1,0,0.1,0.1,0.2c0,0,0.1-0.1,0.1-0.1C75.8,98.2,75.8,98.1,75.7,98.1
		C75.7,98.1,75.7,98.1,75.7,98.1z M75.7,98c-0.4-1.1-1.3-2-1.9-2.9c0.1-0.2,0.2-0.5,0.3-0.7c0,0,0,0-0.1-0.1
		c-0.1,0.1-0.2,0.1-0.3,0.2c-0.5,0.6-0.5,0.7,0,1.2c0.6,0.7,1.2,1.4,1.8,2.1C75.6,98,75.7,98,75.7,98C75.7,98.1,75.7,98.1,75.7,98z
		 M88.7,113.2c0.4,0.4,0.7,0.4,1.2,0.2c0.1-0.1,0.3-0.2,0.6-0.4c-0.5,0.1-0.8,0.1-1.1,0.2c-0.4-0.4-0.7-0.7-1.1-1.1
		c-0.3-0.3-0.7-0.6-1-0.9c-0.7-0.6-0.7-0.6-1.1-0.8c0.6,0.6,1.2,1.3,1.9,2C88.2,112.6,88.4,112.9,88.7,113.2z M80.3,104.8
		c0.1,0.2,0.3,0.4,0.5,0.6c1.1,0.8,2.1,1.5,3.2,2.3c0.1,0.1,0.2,0.2,0.4,0.1c-0.1-0.1-0.1-0.2-0.2-0.3c-0.8-0.9-1.8-1.6-2.8-2.3
		c-0.3-0.2-0.6-0.4-0.7-0.7c-0.8-1.3-1.7-2.5-2.7-3.7c-0.1-0.2-0.3-0.3-0.4-0.4c0.2,0.6,0.6,1.1,0.9,1.6
		C79.2,103,79.7,103.9,80.3,104.8z M75.8,51.4c0-0.1,0-0.1,0-0.2C75.8,51.3,75.7,51.3,75.8,51.4C75.7,51.4,75.7,51.4,75.8,51.4
		C75.7,51.5,75.7,51.5,75.8,51.4z M85.9,39.4c0.1-0.1,0.2-0.1,0.2-0.2C85.9,39.2,85.8,39.2,85.9,39.4z M77.8,48.7
		c-0.1,0.2-0.4,0.2-0.2,0.5C77.7,49,77.8,48.9,77.8,48.7C77.8,48.7,77.8,48.7,77.8,48.7z M75.7,51.5c-0.7,0.7-1.3,1.5-1.9,2.2
		c-0.5,0.6-0.5,0.7,0,1.3c0.1,0.1,0.3,0.2,0.4,0.3c0,0,0.1,0,0.1-0.1c-0.2-0.3-0.3-0.6-0.5-0.9c0.6-0.8,1.1-1.5,1.6-2.3
		C75.6,51.9,75.6,51.7,75.7,51.5C75.7,51.5,75.7,51.5,75.7,51.5z M88.3,36.8c-0.2,0.2-0.4,0.5-0.6,0.7c-0.4,0.4-0.8,0.9-1.2,1.3
		c0,0-0.1,0.1,0,0.1c0,0,0,0,0.1,0.1c1.1-0.8,2-1.7,2.8-2.6c0.2,0.1,0.4,0.1,0.5,0.1c0.1,0,0.3,0.2,0.4,0c-0.9-0.6-1.1-0.6-1.9,0.2
		C88.3,36.8,88.3,36.8,88.3,36.8z M77.9,48.7c1-1.1,1.9-2.3,2.6-3.5c0.2-0.4,0.5-0.7,0.9-1c1-0.7,2-1.4,2.7-2.3
		c0.1-0.1,0.2-0.2,0.1-0.3c-0.1,0.1-0.2,0.1-0.3,0.2c-1.1,0.8-2.2,1.5-3.2,2.3c-0.2,0.1-0.3,0.4-0.5,0.6c-0.8,1.2-1.6,2.5-2.4,3.7
		c-0.1,0.1-0.1,0.2-0.1,0.3C77.8,48.7,77.8,48.7,77.9,48.7z M70.9,66.1c0.2-1,0.4-1.9,0.6-2.9c0.4-0.2,0.8-0.3,1.2-0.5
		c-0.2-0.1-0.3-0.1-0.5-0.1c-0.4,0.1-0.7,0.2-1.1,0.2c-0.3,0.9-0.4,1.9-0.4,2.9C70.7,65.9,70.6,66.1,70.9,66.1z M71.1,86.6
		c0.3,0.1,0.5,0.1,0.8,0.2c0.2,0,0.4,0.1,0.8,0c-0.5-0.2-0.8-0.4-1.2-0.5c-0.1-0.4-0.1-0.7-0.2-1c-0.1-0.3-0.1-0.7-0.2-1
		c-0.1-0.3,0-0.6-0.4-1c0,0.4,0,0.7,0,1.1C70.7,85.2,70.8,86,71.1,86.6L71.1,86.6z M70.4,73.7c0.1-0.4,0.2-0.8,0.3-1.1
		c0.1-0.9,0.3-1.8,0.2-2.7c-0.2,0.3-0.2,0.6-0.3,0.8c-0.1,0.5-0.2,1-0.3,1.5c-0.2,0.7-0.4,1.5-0.6,2.2c-0.1,0.3-0.1,0.6,0,0.9
		c0.4,1.3,0.8,2.7,0.9,4c0,0.1,0.1,0.3,0.2,0.4c0.1-0.2,0.1-0.3,0.1-0.5c0-1.1-0.2-2.2-0.5-3.4C70.1,75,70.2,74.4,70.4,73.7z
		 M60.2,120.5c0-0.1,0-0.1-0.1-0.1c0,0-0.1,0.1-0.1,0.1C60.2,120.5,60.2,120.5,60.2,120.5C60.2,120.5,60.2,120.5,60.2,120.5z
		 M157.3,50.9c0.1,0,0.1,0,0.2,0c0,0,0,0,0-0.1C157.5,50.8,157.4,50.8,157.3,50.9C157.3,50.9,157.3,50.8,157.3,50.9z M157.2,98.5
		c0.1,0.1,0.2,0.2,0.4,0.3C157.5,98.5,157.4,98.4,157.2,98.5C157.2,98.5,157.2,98.5,157.2,98.5L157.2,98.5z M86.4,103.5
		c0-0.1,0-0.1-0.1-0.2c0,0-0.1,0.1-0.1,0.1C86.3,103.4,86.3,103.5,86.4,103.5C86.4,103.5,86.3,103.5,86.4,103.5z M111.7,64.6
		c0.1,0,0.1,0,0.2-0.1C111.8,64.5,111.7,64.5,111.7,64.6C111.7,64.6,111.6,64.6,111.7,64.6C111.6,64.6,111.6,64.6,111.7,64.6z
		 M111.8,84.7c0,0.1,0,0.1-0.1,0.2c0,0,0.1,0,0.1,0C111.8,84.8,111.8,84.7,111.8,84.7C111.8,84.7,111.8,84.6,111.8,84.7
		C111.8,84.6,111.8,84.6,111.8,84.7z M93.3,80c0.1,0,0.1,0,0.2,0C93.5,80,93.4,79.9,93.3,80C93.3,79.9,93.3,80,93.3,80
		C93.3,80,93.3,80,93.3,80z M92.8,68c0.1,0,0.1,0,0.1,0c0,0,0,0,0.1,0C93,68,92.9,68,92.8,68C92.9,68,92.8,68,92.8,68
		C92.8,68,92.8,68,92.8,68z M93.2,80c-0.2,0.1-0.3,0.1-0.4,0.1c0,0,0,0,0.1,0C93.1,80.2,93.3,80.2,93.2,80C93.3,80,93.3,80,93.2,80z
		 M92.6,81.8c0.1,0,0.1,0,0.2,0C92.7,81.8,92.6,81.7,92.6,81.8C92.6,81.7,92.5,81.8,92.6,81.8C92.5,81.8,92.5,81.8,92.6,81.8z
		 M90.4,63.3c0.1,0,0.2,0,0.2,0C90.6,63.3,90.5,63.2,90.4,63.3C90.5,63.2,90.4,63.2,90.4,63.3C90.4,63.2,90.4,63.2,90.4,63.3z
		 M139.2,69.8c0-0.1-0.1-0.1-0.1-0.2c0,0.1,0,0.1,0,0.2C139.1,69.9,139.2,69.9,139.2,69.8C139.2,69.9,139.2,69.9,139.2,69.8z
		 M136.5,82.6c-0.1,0.1-0.1,0.1-0.1,0.2C136.4,82.7,136.4,82.7,136.5,82.6C136.5,82.6,136.5,82.6,136.5,82.6
		C136.5,82.6,136.5,82.6,136.5,82.6z M136.4,67c0-0.1,0-0.2,0-0.2C136.3,66.8,136.4,66.9,136.4,67C136.4,67,136.4,67,136.4,67
		C136.4,67.1,136.4,67.1,136.4,67L136.4,67z M136.6,82c-0.1,0.2-0.1,0.4-0.1,0.5c0,0,0,0,0-0.1C136.6,82.3,136.6,82.2,136.6,82
		C136.7,82,136.7,82,136.6,82L136.6,82z M90.8,65.3c0.2,0.1,0.3,0.3,0.6,0.2C91.2,65.3,91,65.3,90.8,65.3
		C90.8,65.2,90.8,65.2,90.8,65.3z M91.1,84.2c0.2,0,0.4-0.1,0.4-0.4C91.2,84,91.1,84.1,91.1,84.2C91,84.2,91,84.2,91.1,84.2z
		 M91.2,88.5c0.2-0.1,0.3-0.1,0.3-0.4C91.4,88.3,91.3,88.4,91.2,88.5C91.2,88.5,91.2,88.5,91.2,88.5z M91.8,89.4
		c0.2-0.1,0.3-0.2,0.4-0.3C92.1,89.2,91.8,89.1,91.8,89.4C91.8,89.4,91.8,89.4,91.8,89.4z M106.4,39.6c0.3,0,0.5,0,0.7,0
		c0,0,0,0,0-0.1C106.8,39.6,106.6,39.6,106.4,39.6C106.3,39.6,106.3,39.6,106.4,39.6z M111.3,84.1c0.1,0.5,0.2,0.5,0.5,0.5
		c0,0,0,0-0.1,0C111.5,84.4,111.6,84.1,111.3,84.1C111.3,84,111.3,84,111.3,84.1z M91.6,60c0.2,0.2,0.4,0.4,0.7,0.4
		C92.1,60.1,91.9,60,91.6,60C91.6,60,91.6,60,91.6,60z M92,67.4c0.3,0.2,0.6,0.4,0.8,0.6c0,0,0,0,0-0.1C92.6,67.6,92.4,67.4,92,67.4
		C92,67.4,92,67.4,92,67.4z M146,60.8c-0.4-0.6-0.4-0.6-0.9-0.7c0.2,0.2,0.3,0.3,0.5,0.5C145.8,60.7,145.8,60.9,146,60.8z
		 M144.7,90.1c0.5-0.3,0.9-0.8,1.1-1.3c-0.4,0.4-0.8,0.8-1.2,1.2C144.6,90,144.7,90.1,144.7,90.1z M144.4,73.9
		c0-0.1-0.1-0.3-0.3-0.6c0,1,0,1.9,0,2.8c0.4-0.4,0.3-0.8,0.4-1.2C144.4,74.5,144.4,74.2,144.4,73.9z M90.2,61.3
		c-0.5-0.3-0.9-0.6-1.3-0.9c-0.4-0.3-0.8-0.7-1.2-1c-0.1,0.3,0,0.5,0.2,0.7c0.4,0.3,0.8,0.6,1.3,1C89.6,61.1,89.8,61.4,90.2,61.3z
		 M87.7,89.9c0,0.1,0,0.2,0,0.3c0.4-0.4,0.8-0.7,1.2-1c0.4-0.3,0.9-0.6,1.3-1c-0.1,0-0.2-0.1-0.2-0.1c-0.4,0.3-0.9,0.5-1.4,0.8
		C88.2,89.2,87.9,89.5,87.7,89.9z M142.1,77.4c0.7-1.1,0.7-4.2-0.1-5.5c0.1,0.9,0.1,1.7,0.1,2.4c0,0.8-0.1,1.6-0.1,2.5
		C142.1,77.1,142.1,77.2,142.1,77.4z M139.2,69.9c0,0.3,0.1,0.5,0.1,0.7c0.2,0.7,0.4,1.4,0.5,2.1c0.2,2.2,0.2,4.3-0.6,6.4
		c-0.1,0.2-0.1,0.4-0.2,0.8c0.1-0.2,0.2-0.2,0.2-0.3c1.1-2.4,1.5-4.8,0.9-7.3C139.8,71.5,139.7,70.6,139.2,69.9
		C139.2,69.9,139.2,69.9,139.2,69.9L139.2,69.9z M108.2,69.4c-1.3,2.4-1.3,8.9,0,10.6c-0.1-0.7-0.3-1.4-0.4-2.1
		c-0.3-1.8-0.2-3.5-0.1-5.4C107.9,71.5,108,70.5,108.2,69.4z M136.7,82c0.9-2,1.3-4.1,1.4-6.3c0-1.8,0-3.7-0.5-5.5
		c-0.3-1-0.6-1.9-0.9-2.8c0-0.1-0.1-0.4-0.3-0.4c0,0,0,0,0,0.1c0,0.1,0,0.2,0.1,0.2c1.1,3,1.2,6.2,1.1,9.3c0,0.1,0,0.3,0,0.4
		c-0.2,1.5-0.4,3-0.9,4.4C136.6,81.7,136.7,81.9,136.7,82C136.7,82,136.7,82,136.7,82L136.7,82z M111.3,83.9
		c-0.1-0.5-0.3-0.9-0.4-1.4c-0.6-2-0.9-4-1-6.1c-0.2-2.3,0-4.6,0.4-6.8c0.3-1.5,0.6-3,1.3-4.4c0.1-0.2,0.1-0.5,0-0.7c0,0,0,0,0,0.1
		c-1.2,2.4-1.9,4.9-2.2,7.4c-0.3,2.2-0.2,4.5,0.2,6.7c0.3,1.6,0.7,3.2,1.4,4.8C111,83.7,111.1,83.9,111.3,83.9
		C111.3,84,111.3,84,111.3,83.9L111.3,83.9z M144.2,90.7c0.1-0.1,0.3-0.2,0.1-0.4c-0.5,0.4-1,0.9-1.4,1.3c-2.9,2.7-6.1,5.2-9.3,7.6
		c-2.6,1.9-5.2,3.7-8.1,5.2c-0.6,0.3-1.2,0.6-1.8,0.9c-0.1,0.1-0.2,0.2-0.4,0.4c0.3,0,0.5,0,0.6-0.1c0.6-0.2,1.2-0.5,1.8-0.8
		c1.6-0.7,3-1.6,4.4-2.6c3.8-2.6,7.4-5.4,10.9-8.5C142.1,92.7,143.1,91.7,144.2,90.7L144.2,90.7z M123.3,43.8
		c0.1,0.3,0.4,0.3,0.6,0.4c1.7,0.8,3.3,1.7,4.9,2.7c3.8,2.4,7.3,5.1,10.7,8c1.6,1.3,3.1,2.8,4.7,4.2c0.1,0.1,0.2,0.2,0.3,0.3
		c0.1,0.1,0.1,0.2,0.4,0.1c-0.2-0.2-0.4-0.5-0.7-0.7c-2.9-2.9-6.1-5.6-9.4-8.2c-2.4-1.8-4.9-3.6-7.6-5.2
		C125,44.2,124,43.8,123.3,43.8L123.3,43.8z M124.5,95.1L124.5,95.1C124.4,95.1,124.5,95.1,124.5,95.1z M124.8,54.5
		C124.8,54.5,124.8,54.4,124.8,54.5C124.8,54.4,124.7,54.4,124.8,54.5c-0.1-0.1-0.2-0.1-0.2,0C124.6,54.5,124.6,54.5,124.8,54.5z
		 M121.7,93.5c-0.1-0.1-0.2-0.1-0.4-0.3c0.3,0.5,0.3,0.5,0.7,0.7C122,93.8,121.9,93.7,121.7,93.5z M125.4,61.9c0,0,0,0-0.1,0
		c-0.1,0-0.2,0-0.3,0c-1.9-0.6-3.8-0.8-5.7-0.5c-0.2,0.2-0.4,0.4-0.3,0.7c0.3,0,0.5,0,0.8,0c0.5,0,1.1,0,1.6,0
		c1.8,0.3,3.5,0.8,5.1,1.6c0.1,0,0.2,0.1,0.2,0.1c0,0,0.1,0.1,0.3,0.3c-2.8-1.3-5.5-2-8.5-1.5c-0.1,0.2-0.2,0.5-0.4,0.7
		c0.3,0,0.4,0,0.6,0c3-0.3,5.7,0.3,8.2,1.8c4.3,2.5,6.5,6.5,5.6,11.6c-0.4,2.3-1.6,4.3-3.5,5.9c-2.8,2.4-6,3.5-9.8,3.3
		c-0.3,0-0.7-0.1-1.1,0c0.2,0.3,0.3,0.5,0.4,0.7c1.6,0.3,3.1,0.2,4.7-0.1c1.1-0.2,2.2-0.6,3.2-1.1c0,0,0,0,0,0.1
		c-0.5,0.4-1.1,0.6-1.7,0.8c-1.8,0.6-3.6,1.1-5.6,0.8c0,0-0.1,0.1-0.2,0.1c0.1,0.2,0.3,0.5,0.4,0.7c1.1,0,2.1,0.1,3.1,0
		c1-0.1,2.1-0.4,3.2-0.6c-0.3,0.1-0.4,0.2-0.5,0.3c-1.6,0.6-3.3,0.9-5,0.8c-0.1,0-0.3-0.1-0.4,0.2c0.5,0.7,0.9,1.4,1.4,2.1
		c1.1,0,2-0.3,3-0.3c-0.1,0.1-0.3,0.3-0.5,0.3c-0.6,0.1-1.1,0.3-1.7,0.4c-0.1,0-0.3,0.1-0.4,0.2c0.1,0.4,0.3,0.6,0.7,0.5
		c0.3-0.1,0.7-0.1,1-0.1c0.1,0,0.3,0,0.6,0c-0.6,0.4-1.2,0.4-1.7,0.6c0.2,0.2,0.3,0.4,0.4,0.6c0.8-0.1,1.5-0.2,2.4-0.4
		c-0.7,0.5-1.4,0.5-2.1,0.8c0.1,0.2,0.3,0.3,0.3,0.5c0.4,0.1,0.9-0.1,1.4,0.1c-0.4,0.1-0.7,0.2-1.1,0.4c0.6,0.5,1.2,0.1,1.7,0.3
		c1-1.1,1.9-2.3,2.7-3.5c2.8-4,4.8-8.3,5.6-13c0.2-1.2,0.4-2.4,0.3-3.7c-0.1-2.9-0.7-5.7-1.7-8.4c-1.5-4-3.8-7.6-6.5-10.9
		c-0.1-0.2-0.3-0.3-0.3-0.4c-0.4,0-0.7,0-0.9,0.1c-0.3,0-0.6-0.2-0.7,0.2c0.2,0.3,0.7,0.1,0.9,0.5c-0.4,0-0.8,0-1.3-0.1
		c-0.1,0.2-0.2,0.3-0.3,0.5c0.3,0.1,0.6,0.1,0.9,0.2c0.3,0.1,0.6,0.1,0.9,0.4c-0.8-0.1-1.5-0.2-2.1-0.3c-0.2,0.2-0.5,0.4-0.4,0.7
		c1.1,0.3,1.1,0.3,1.5,0.6c-0.7-0.1-1.3-0.2-1.9-0.2c-0.1,0.2-0.2,0.4-0.4,0.6c0.9,0.3,1.9,0.2,2.7,0.9c-1.1-0.2-2.1-0.3-3.1-0.5
		c-0.5,0.8-1.1,1.4-1.4,2.3c0.4,0,0.7,0,0.9,0c1.5,0,2.9,0.3,4.2,0.8C125.1,61.7,125.3,61.8,125.4,61.9L125.4,61.9z M121.1,56.7
		c0.1-0.1,0.3-0.3,0.4-0.4c0.1-0.2,0.3-0.3,0.3-0.6c-0.4,0.3-0.7,0.6-1,1c-0.2,0.2-0.3,0.3-0.5,0.5c-0.9,1.1-1.8,2.2-2.6,3.4
		c-2.4,3.3-4.3,6.8-5.2,10.8c-0.3,1.3-0.6,2.7-0.5,4c0.2,2.1,0.7,4.1,1.4,6.1c1.6,4.2,4.2,7.8,7.2,11.3c0,0,0.1,0.1,0.1,0.1
		c0.1,0,0.1,0.2,0.3,0.1c-0.2-0.2-0.3-0.4-0.5-0.6c-1.5-1.8-2.8-3.7-4-5.8c-1.3-2.4-2.3-4.9-3-7.5c0-0.2-0.2-0.4,0.1-0.5
		c0.1,0.2,0.2,0.5,0.2,0.7c1.4,4.9,4,9.3,7.4,13.2c0.1,0.1,0.1,0.3,0.4,0.2c-0.2-0.3-0.5-0.7-0.7-1c-1.3-1.8-2.4-3.6-3.4-5.5
		c-1.3-2.4-2.4-4.9-2.9-7.6c-0.3-1.6-0.5-3.2-0.3-4.9c0.2-2.1,0.7-4.2,1.5-6.2c1.1-2.6,2.4-5.2,4-7.6c0.5-0.7,1-1.5,1.5-2.2
		c0.1-0.1,0.2-0.2,0-0.4c-3.6,4.2-6.3,8.8-7.7,14c0-0.2,0-0.4,0-0.6c0.3-1.3,0.7-2.6,1.2-3.8c1.3-3.4,3.2-6.4,5.6-9.3
		C120.7,57.2,120.8,56.9,121.1,56.7L121.1,56.7z M133,83c0,0,0,0.1,0,0.1c0,0,0-0.1,0.1-0.2c0.2-0.2,0.1-0.3,0.2-0.5
		c0.1-0.1,0.3-0.3,0.3-0.4c0.4-1.1,0.9-2.3,1.2-3.4c0.5-1.6,0.7-3.2,0.6-4.8c-0.2-2.5-1-4.7-2.1-7c-0.1-0.1-0.2-0.2-0.4-0.3
		c0,0,0.1,0,0.1-0.1c0,0-0.1,0.1,0,0.2c0.3,1,0.6,2.1,0.9,3.1c0.4,1.7,0.7,3.5,0.7,5.3c0,1.2-0.2,2.3-0.4,3.5
		c-0.3,1.3-0.5,2.7-1.1,4.1C133,82.7,133,82.9,133,83L133,83z M114.3,84.2c-0.5-1.2-1-2.4-1.5-3.6c-0.3-0.8-0.7-1.6-0.9-2.5
		c-0.5-2.6-0.6-5.2,0.2-7.7c0.6-1.8,1.3-3.6,2.2-5.3c1.9-3.5,4.2-6.8,7.1-9.8c0.5-0.6,1.1-1.1,1.7-1.6c0.3-0.2,0.6-0.4,1-0.5
		c0.2-0.1,0.5,0,0.6,0.2c0.2,0.4,0.6,0.7,0.9,1.1c1.4,1.4,2.5,3,3.6,4.6c1.5,2.1,2.7,4.2,3.9,6.5c1.2,2.4,2.2,4.8,2.7,7.4
		c0.2,1.2,0.2,2.5-0.1,3.8c-0.9,4.5-3.1,8.4-5.6,12.2c-1.3,2-2.7,3.9-4.4,5.7c-0.4,0.4-0.8,0.8-1.1,1.3c-0.1,0.2-0.4,0.3-0.6,0.2
		c-0.3-0.1-0.5-0.2-0.8-0.4c-0.4-0.3-0.7-0.6-1.1-0.9c-1.3-1.2-2.4-2.4-3.4-3.8c-1.5-2-3-4-4.2-6.2
		C114.6,84.7,114.5,84.5,114.3,84.2z M91.4,79.5c0,0.1,0,0.2,0,0.2c1-0.4,1.1-0.4,1.4-0.9c-0.3,0-0.5,0-0.8,0c-0.2,0-0.3,0-0.5,0.1
		C91.5,79.1,91.4,79.2,91.4,79.5z M91.4,69.8c0,0.3,0,0.6,0.1,0.8c0.5,0,0.9,0.1,1.2,0c0-0.1,0-0.1,0-0.1
		C92.3,70.2,91.9,70,91.4,69.8z M56.4,119.8c-0.1-0.1-0.2-0.2-0.2-0.3c-0.3,0.2-0.3,0.5-0.1,0.7c0.5,0.6,0.9,1.2,1.4,1.8
		c0.5,0.5,1.1,1,1.6,1.4c0.1,0.1,0.3,0.2,0.4,0C58.3,122.4,57.2,121.3,56.4,119.8z M55.9,29.7c0.1,0.1,0.1,0.2,0.2,0.3
		c0.5-0.7,1-1.5,1.5-2.1c0.5-0.6,1.2-1.2,1.8-1.8c-0.2-0.1-0.3,0-0.4,0.1C57.7,27,56.7,28.2,55.9,29.7z M79.8,41.2
		c-0.5,0.4-1,0.9-1.4,1.3c0,0,0,0.1,0,0.1c0,0,0,0,0.1,0c1.2-0.4,2.5-1.2,3.5-2c-0.3-0.2-0.6-0.3-0.9-0.1
		C80.6,40.7,80.2,40.9,79.8,41.2z M79.9,107.5c-0.5-0.2-0.9-0.4-1.4-0.6c0,0-0.1,0-0.3,0c0.8,0.8,1.6,1.6,2.7,2.1
		c0.4,0.2,0.6,0.1,1-0.2C81.3,108.3,80.7,107.9,79.9,107.5z M77.4,105.8c0.2,0.2,0.3,0.5,0.6,0.6c-0.3-1.6-1.2-3.7-1.6-3.8
		c-0.1,0.2-0.3,0.4-0.5,0.6C76.4,104.1,76.9,104.9,77.4,105.8z M76.1,46.5c0.1,0.1,0.2,0.4,0.5,0.3c0.5-1.2,1.2-2.4,1.4-3.8
		c-0.1,0.1-0.2,0.1-0.3,0.2c-0.7,0.9-1.2,1.9-1.7,2.9C76,46.2,76,46.3,76.1,46.5z M40.9,74.9c0-0.4,0-0.8,0-1.3
		c0-0.4,0.1-0.9,0.1-1.4c-0.3,0.2-0.4,0.3-0.5,0.4c-0.1,0.1-0.1,0.3-0.1,0.4c-0.2,1.2-0.2,2.3,0,3.5c0,0.1,0.1,0.3,0.1,0.4
		c0.1,0.2,0.3,0.3,0.5,0.3C41,76.5,40.9,75.8,40.9,74.9z M66.1,72.9c-0.4,1.6-0.2,3.1,0.2,4.6c0.1,0.2,0.1,0.5,0.2,0.7
		c0,0.1,0.1,0.1,0.3,0.1c-0.1-0.9-0.3-1.6-0.4-2.4c-0.1-0.8-0.1-1.6,0-2.3c0.1-0.8,0.2-1.6,0.4-2.5c-0.2,0.2-0.4,0.3-0.4,0.4
		C66.3,71.9,66.2,72.3,66.1,72.9z M42.1,74.7c0.1-0.9,0.1-1.8,0.2-2.8c-0.5,0-0.6,0-0.6,0.2c-0.1,0.7-0.3,1.4-0.3,2
		c-0.1,1.1,0.1,2.1,0.3,3.1c0.1,0.3,0.3,0.4,0.6,0.3C42.2,76.7,42.1,75.8,42.1,74.7z M37.8,73.1c-0.1-0.1-0.1-0.2-0.2-0.2
		c-1.1,0.3-1.8,1.6-1.2,2.6c0.2,0.4,0.5,0.8,1,1c0.1,0.1,0.3,0.1,0.4,0.1C37.8,75.4,37.8,74.3,37.8,73.1z M57.5,28.7
		c-0.5,0.6-0.9,1.2-1.1,1.9c0.1,0.1,0.2,0.3,0.3,0.4c0.6-0.9,1.2-1.7,1.9-2.5c0.7-0.8,1.4-1.5,2.1-2.2c-0.4-0.2-0.4-0.2-0.7-0.1
		C59.1,27,58.3,27.8,57.5,28.7z M59.7,122.1c-1-1.1-2-2.2-2.7-3.5c0,0,0-0.1-0.1-0.1c0,0-0.1,0-0.1,0c-0.1,0.1-0.2,0.3-0.3,0.5
		c0.2,0.4,0.4,0.8,0.6,1.2c0.7,1.1,1.6,2,2.7,2.8c0.2,0.1,0.3,0.2,0.5,0.3c0.2,0.1,0.4,0.1,0.5-0.1
		C60.4,122.8,60.1,122.5,59.7,122.1z M56.1,124.5c-0.3-0.3-0.5-0.5-0.8-0.8c-0.2-0.3-0.4-0.5-0.6-0.8c-0.2-0.3-0.4-0.6-0.7-0.9
		c-0.5,0.2-0.6,0.7-0.7,1.1c-0.1,0.5,0.1,1,0.4,1.3c0.4,0.4,0.8,0.7,1.4,0.8c0.5,0.1,0.9-0.1,1.2-0.4
		C56.3,124.7,56.2,124.7,56.1,124.5L56.1,124.5z M54.4,27.1c0.2-0.3,0.4-0.6,0.6-0.8c0.2-0.3,0.5-0.6,0.7-0.8
		c0.2-0.3,0.5-0.4,0.7-0.7c-0.6-0.5-1.2-0.6-1.8-0.3c-0.6,0.3-1,0.7-1.2,1.3c-0.2,0.6-0.1,1.1,0.4,1.6C53.9,27.5,54,27.5,54.4,27.1z
		 M75.9,45.2c0.2-0.4,0.5-0.8,0.7-1.2c0.6-1.1,1.4-2,2.4-2.8c0.4-0.3,0.8-0.6,1.3-1c0,0,0-0.1,0-0.2c-0.2-0.1-0.5-0.2-0.7-0.3
		c-1.5,0.9-2.7,2.2-3.7,3.5c-0.4,0.5-0.8,0.9-0.9,1.6c0.2,0.3,0.3,0.6,0.7,0.8C75.7,45.5,75.8,45.4,75.9,45.2z M75.2,105.2
		c1.2,1.8,2.6,3.3,4.5,4.5c0.3-0.1,0.5-0.2,0.7-0.3c0,0-4.7-5.5-4.8-5.6c-0.2,0.2-0.3,0.4-0.5,0.6C74.9,104.6,75,104.9,75.2,105.2z
		 M39.4,77.6c0.1,0.2,0,0.4,0.3,0.6c0.3-0.3,0.4-0.5,0.3-0.9c-0.1-0.5-0.2-0.9-0.2-1.4c0-1.2-0.1-2.5,0.2-3.7
		c0.1-0.4-0.1-0.6-0.3-0.9c-0.2,0.3-0.2,0.6-0.3,0.9c0,0.3,0,0.6-0.1,0.9c0,0.1,0,0.3-0.3,0.3c0-0.7,0-1.4,0-2.2
		c-0.3,0.1-0.4,0.2-0.4,0.4c-0.1,0.6-0.2,1.2-0.3,1.9c-0.3,1.5,0,3,0.3,4.5c0,0.1,0.1,0.2,0.2,0.3c0,0,0.1,0,0.2,0
		c0-0.2,0-0.5,0-0.7c0-0.3,0-0.5,0-0.8c0-0.2-0.1-0.4,0.1-0.7c0.1,0.1,0.2,0.1,0.2,0.2C39.3,76.6,39.3,77.1,39.4,77.6z M55.2,121.8
		c-0.4-0.5-0.8-1.1-1.2-1.6c-0.3,0-0.4,0.2-0.3,0.4c0.2,0.5,0.5,0.9,0.8,1.3c0.8,1.3,1.9,2.4,3.2,3.3c0.3,0.2,0.5,0.4,0.8,0.4
		c0.2-0.1,0.1-0.3,0-0.4c-0.4-0.4-0.8-0.8-1.2-1.2c-0.1-0.1-0.3-0.2-0.1-0.4c0.6,0.3,0.9,0.9,1.5,1c0.1-0.4,0-0.7-0.3-0.9
		c-0.9-0.7-1.6-1.5-2.3-2.3c-0.3-0.4-0.6-0.8-0.9-1.2c-0.1-0.1-0.1-0.2-0.2-0.3c-0.1-0.1-0.3-0.1-0.4,0c0,0-0.1,0.2,0,0.3
		c0.3,0.5,0.6,0.9,0.8,1.4c0.1,0.1,0.3,0.2,0.2,0.5C55.5,122.1,55.4,122,55.2,121.8L55.2,121.8z M55.2,27.8c0.1-0.1,0.2-0.3,0.6-0.4
		c-0.5,0.8-1.1,1.4-1.2,2.2c0.3,0.1,0.5,0.1,0.7-0.2c0.3-0.4,0.5-0.9,0.9-1.3c0.7-0.8,1.4-1.6,2.3-2.3c0.3-0.2,0.5-0.5,0.3-1
		c-0.7,0.2-1.1,0.8-1.7,1.1c0-0.2,0.1-0.3,0.2-0.4c0.4-0.4,0.8-0.7,1.1-1.1c0.1-0.1,0.2-0.2,0.2-0.3c0,0-0.1-0.2-0.1-0.2
		c-0.2,0-0.3,0.1-0.4,0.1c-0.8,0.5-1.5,1.1-2.1,1.7c-0.9,0.9-1.6,2-2.2,3.1c-0.1,0.3-0.1,0.3,0.3,0.5C54.5,28.8,54.8,28.3,55.2,27.8
		z M85.3,110.8c0.6,0.6,1.3,1.2,1.9,1.8c0.6,0.6,1.1,1.4,1.6,2.1c1.1-0.6,2.2-1.2,3.3-1.8c-0.1-0.1-0.2-0.2-0.3-0.3
		c-1.4-0.9-2.7-2-3.8-3.2c-1.8-1.9-3.6-3.7-4.3-6.2c-0.1-0.4-0.4-0.7-0.7-0.9c-1.4-0.9-2.6-2-3.8-3.1c-1.9-1.8-3.3-3.9-4-6.4
		c0-0.1-0.1-0.2-0.2-0.3c-0.6,0.4-2,2-2.7,2.8c3,3.2,5,7,6.3,10.9c0.9,0.5,1.8,1,2.6,1.5C82.6,108.6,83.9,109.6,85.3,110.8z
		 M91.8,36.5c-1-0.5-1.9-1.1-2.9-1.6c0,0-0.1,0-0.1,0c0,0-0.1,0-0.1,0c-0.2,0.3-0.5,0.7-0.8,1.1c-0.6,0.9-1.3,1.6-2.1,2.3
		c-0.9,0.7-1.8,1.5-2.7,2.2c-1.4,1-2.9,2-4.4,2.7c-1.4,4.1-3.4,7.8-6.4,11.1c0.9,0.9,1.7,1.9,2.7,2.9c0.1-0.3,0.2-0.4,0.2-0.6
		c0.5-1.7,1.4-3.2,2.5-4.6c1.4-1.7,3-3.2,4.9-4.5c0.6-0.4,1-0.9,1.2-1.6c0.4-1.2,1-2.2,1.8-3.2c1.8-2.2,3.7-4.3,6.2-5.9
		C91.9,36.8,92,36.7,91.8,36.5z M71.8,87.6c0.7,0,1.3,0.3,2,0.2c0-0.2-0.1-0.3-0.1-0.4c-1.2-3.4-1.4-6.9-0.6-10.4
		c0.2-0.7,0.5-1.5,0.5-2.2c0-0.8-0.3-1.5-0.5-2.3c-0.2-1-0.4-2-0.4-3c-0.2-2.5,0.2-5,1-7.5c0-0.1,0.1-0.3,0-0.4
		c-1.3,0.1-3.2,0.5-3.8,0.7c0,0.1-0.1,0.1,0,0.2c0.1,1.2,0,2.3,0,3.5c-0.2,2.7-0.7,5.2-1.9,7.7c-0.3,0.7-0.3,1.3,0,2
		c0.3,0.7,0.6,1.5,0.9,2.2c0.9,2.9,1.3,5.9,1,8.9c0,0.1,0,0.2,0.1,0.3C70.4,87.3,71,87.4,71.8,87.6L71.8,87.6z M170.6,72.7
		c-0.8,0-1.5,0-2.3-0.1c-0.3,0-0.5,0-0.8,0c0,0-0.1,0-0.1,0c0,0,0,0.1-0.1,0.2c0.4,0.6,1.1,0.9,1.5,1.6c0.2,0,0.3,0,0.5,0
		c2,0,3.9,0.1,5.9,0.1c8.2,0,16.4,0,24.6-0.1c0.2,0,0.5,0,0.7,0c0,0,0.1-0.1,0.1-0.1c-0.1-0.2-0.3-0.2-0.4-0.3
		c-1.8-0.9-3.7-1.8-5.5-2.7c-0.4-0.2-0.7-0.2-1.1-0.2c-5.6,0-11.2-0.1-16.8-0.1c-1.6,0-3.2,0-4.8,0c-1.9,0-3.7,0-5.6,0
		c-0.2,0-0.4-0.1-0.5,0.2c0.3,0.3,0.5,0.6,0.8,0.9c0.2,0,0.4,0,0.5,0c2.5,0.1,5,0.2,7.4,0.3c0.3,0,0.6,0,0.9,0.1
		c0.1,0,0.2,0.1,0.3,0.2C174.1,72.7,172.5,72.7,170.6,72.7L170.6,72.7z M197,77.1c0.6-0.3,1.3-0.6,1.9-0.9c0.6-0.3,1.3-0.6,1.8-1
		c-10.6-0.1-21.2-0.2-31.9-0.1c-0.4,0.7-1.1,1-1.5,1.7c1,0.2,1.9,0,2.8,0c0.9,0,1.9,0,2.8,0c0.9,0,1.9-0.1,2.9,0
		c-0.1,0.1-0.2,0.2-0.3,0.2c-0.3,0-0.6,0.1-1,0.1c-2.4,0.1-4.8,0.2-7.2,0.3c-0.2,0-0.4,0-0.7,0c-0.3,0.3-0.6,0.6-0.8,1.1
		c0.3,0.2,0.7,0.1,1,0.1c2.8,0,5.5,0,8.3-0.1c4,0,7.9,0,11.9,0c2.1,0,4.1,0,6.2,0c0.7,0,1.3-0.1,1.9-0.4
		C195.8,77.6,196.3,77.4,197,77.1L197,77.1z M65,37c0.3-0.5,0.6-1,1.2-1.4c-0.1,0.3-0.2,0.5-0.3,0.6c-0.2,0.3-0.4,0.7-0.6,1
		c0,0.1,0.1,0.2,0.2,0.4c0.2-0.3,0.3-0.5,0.5-0.7c0.1-0.2,0.2-0.4,0.6-0.5c-0.2,0.4-0.4,0.7-0.5,1c0,0.1,0,0.2,0,0.3
		c0.1,0.1,0.2,0.1,0.3,0.1c0.4-0.3,0.4-0.8,1-1c-0.1,0.4-0.3,0.7-0.5,1c-0.1,0.2,0,0.3,0.2,0.4c0.4-0.1,0.4-0.6,0.8-0.7
		c0.1,0.4-0.4,0.6-0.3,1c0.4,0.2,0.5-0.4,0.9-0.4c-0.1,0.2-0.2,0.4-0.3,0.6c-0.1,0.2,0,0.3,0.3,0.3c0.3-0.1,0.3-0.5,0.8-0.5
		c-0.1,0.3-0.3,0.5-0.3,0.7c-0.1,0.2,0.1,0.3,0.3,0.4c0.1-0.1,0.2-0.2,0.3-0.3c0.1-0.1,0.1-0.4,0.4-0.3c0.1,0.3-0.5,0.6-0.2,1
		c0.4,0,0.4-0.6,0.9-0.5c-0.1,0.2-0.2,0.4-0.3,0.6c-0.1,0.2,0,0.4,0.3,0.5c0.3-0.1,0.3-0.4,0.7-0.5c-0.1,0.2-0.2,0.4-0.3,0.6
		c0,0.1-0.1,0.2,0.1,0.3c0.4-0.1,0.4-0.6,0.9-0.7c-0.2,0.4-0.3,0.6-0.5,0.9c-0.1,0.2,0,0.3,0.2,0.4c0.2-0.2,0.5-0.5,0.7-0.7
		c0,0.3-0.2,0.6-0.3,0.8c-0.1,0.2-0.1,0.3,0.4,0.5c0.3-0.3,0.6-0.7,0.9-1c0.1,0.2,0.1,0.3,0,0.4c-0.2,0.3-0.4,0.6-0.5,1
		c-0.1,0.2,0,0.3,0.2,0.3c0.4-0.4,0.6-1,1.1-1.4c0.1,0.3-0.1,0.5-0.2,0.7c-0.2,0.3-0.4,0.6-0.5,0.9c-0.1,0.2-0.1,0.3,0.3,0.5
		c0.4-0.6,0.8-1.3,1.6-1.8c-0.2,0.6-0.5,0.8-0.7,1.1c-0.2,0.4-0.4,0.7-0.7,1.1c0.1,0.1,0.2,0.2,0.2,0.3c0.1,0.1,0.2,0.1,0.2,0.2
		c0.2-0.3,0.3-0.6,0.6-0.8c1.1-1.2,2.1-2.5,3.3-3.6c0.1-0.1,0.2-0.2,0.4-0.4c-0.3-0.1-0.5-0.2-0.7-0.3c-0.7,0.4-1.2,1-1.6,1.5
		c-0.1,0.1-0.2,0.3-0.4,0.1c0.1-0.1,0.1-0.3,0.2-0.4c0.4-0.4,0.8-0.9,1.2-1.3c0,0,0-0.1,0-0.2c-0.2-0.1-0.4-0.2-0.6-0.3
		c-0.3,0.2-0.5,0.4-0.7,0.6c-0.2,0.2-0.4,0.4-0.6,0.5c-0.1,0.1-0.2,0.1-0.4-0.1c0.4-0.4,0.8-0.9,1.2-1.3c-0.1-0.2-0.3-0.3-0.4-0.2
		c-0.2,0.1-0.5,0.3-0.7,0.5c-0.1,0.1-0.2,0.2-0.3,0c0-0.4,0.5-0.5,0.6-0.9c-0.1-0.1-0.2-0.1-0.3-0.2c-0.2,0.2-0.5,0.3-0.7,0.5
		c-0.1,0.1-0.2,0.2-0.3,0c0.2-0.2,0.3-0.5,0.5-0.7c-0.1-0.2-0.3-0.3-0.5-0.2c-0.2,0.1-0.4,0.4-0.8,0.4c0.2-0.3,0.4-0.5,0.6-0.8
		c-0.2-0.1-0.3-0.2-0.4-0.3c-0.3,0.1-0.4,0.5-0.9,0.4c0.2-0.3,0.3-0.5,0.5-0.7C73,36,72.9,35.9,72.7,36c-0.3,0.2-0.4,0.4-0.7,0.5
		c-0.1-0.5,0.4-0.6,0.4-1c-0.1,0-0.3-0.1-0.4-0.1c-0.2,0-0.3,0.2-0.5,0.3c0,0-0.1,0-0.2,0c0.1-0.2,0.3-0.4,0.4-0.7
		c-0.1-0.1-0.2-0.2-0.3-0.1c-0.2,0.1-0.3,0.2-0.5,0.2c0,0-0.1,0-0.2,0c0.1-0.2,0.2-0.4,0.3-0.6c0-0.1-0.1-0.1-0.1-0.1
		c-0.1,0-0.2,0-0.3,0c-0.2,0.1-0.4,0.4-0.7,0.2c0.1-0.2,0.2-0.3,0.4-0.5c0.1-0.2,0.1-0.3-0.2-0.4c-0.1,0.1-0.2,0.2-0.4,0.3
		c-0.1,0.1-0.2,0.2-0.4,0.3c-0.1-0.4,0.4-0.6,0.4-0.9c-0.1-0.2-0.2-0.2-0.4-0.1c-0.2,0.2-0.4,0.4-0.7,0.5c-0.1,0.1-0.1,0.2-0.3,0
		c0.2-0.3,0.5-0.7,0.8-1.1c-0.1-0.1-0.2-0.1-0.3-0.2c-0.5,0.1-0.7,0.6-1.3,0.7c0.1-0.5,0.6-0.7,0.8-1.1c-0.1-0.2-0.2-0.4-0.5-0.4
		c-0.3,0.3-0.7,0.6-1.1,0.9c-0.1-0.2,0-0.4,0-0.5c0.2-0.3,0.4-0.5,0.6-0.8c0,0,0-0.1,0-0.2c-0.1-0.1-0.2-0.2-0.4-0.3
		c-0.4,0.4-0.7,0.7-1.2,1.1c0.1-0.7,0.6-1,0.8-1.5c-0.2,0-0.3-0.1-0.4-0.1c-0.3,0.2-0.6,0.5-0.9,0.7c-0.1,0.1-0.2,0.3-0.4,0.2
		c0.2-0.3,0.3-0.5,0.5-0.8c0.1-0.1,0.3-0.3,0.3-0.4c0.1-0.2,0-0.3-0.2-0.4c-0.1,0.1-0.3,0.2-0.4,0.3c-0.2,0.1-0.3,0.3-0.5,0.4
		c-0.1,0.1-0.2,0.3-0.5,0.2c0.3-0.5,0.7-0.9,1-1.3c-0.4-0.4-0.4-0.4-0.7-0.1c-0.2,0.2-0.5,0.4-0.7,0.6c-0.1,0.1-0.1,0.2-0.3,0.1
		c0.2-0.5,0.6-0.8,0.9-1.3c-0.1-0.1-0.2-0.1-0.4-0.2c-0.3,0.2-0.5,0.4-0.7,0.6c-0.2,0.2-0.4,0.4-0.7,0.6c-0.1-0.2,0-0.3,0-0.4
		c0.3-0.3,0.5-0.7,0.8-1c0,0,0-0.1,0-0.2c0,0-0.1-0.1-0.2-0.1c-0.1,0-0.2-0.1-0.3-0.1c-0.5,0.5-1.1,1-1.8,1.6
		c0.2-0.5,0.4-0.8,0.6-1.1c0.2-0.3,0.6-0.5,0.7-0.9c-0.1,0-0.2,0-0.2,0c-0.7,0.5-1.3,1.1-2,1.6c-0.1-0.2,0-0.3,0.1-0.4
		c0.5-0.5,0.9-1,1.4-1.5c0,0,0-0.1,0.1-0.2c-0.1-0.1-0.3-0.1-0.4-0.2c-1.5,0.9-3.7,3.3-4.3,5c0.1,0.1,0.2,0.2,0.4,0.4
		c0.3-0.3,0.5-0.6,0.6-0.8c0.2-0.2,0.3-0.4,0.5-0.6c0.2-0.2,0.4-0.5,0.9-0.6c-0.2,0.3-0.4,0.5-0.5,0.7c-0.3,0.5-0.6,0.9-0.9,1.4
		c-0.2,0.3-0.1,0.3,0.3,0.6c0.2-0.3,0.4-0.6,0.7-1c0.2-0.3,0.4-0.7,0.8-0.8c0.1,0.3-0.1,0.4-0.2,0.5c-0.3,0.5-0.6,0.9-0.9,1.4
		c-0.1,0.2,0,0.4,0.2,0.5c0.3-0.2,0.5-0.5,0.7-0.8c0.4-0.4,0.4-0.5,0.8-0.6c-0.3,0.5-0.6,1.1-0.9,1.6c0,0.1,0,0.2,0,0.3
		c0,0.1,0.2,0.2,0.4,0.1c0.4-0.5,0.5-1.1,1.2-1.6c-0.1,0.2-0.1,0.4-0.1,0.4c-0.2,0.4-0.4,0.7-0.6,1.1c-0.1,0.1-0.1,0.2-0.1,0.3
		c0,0.1,0.1,0.1,0.2,0.2c0.4-0.4,0.5-0.9,1.1-1.3c-0.3,0.6-0.4,1-0.6,1.4c-0.1,0.2,0,0.3,0.2,0.3c0.4-0.5,0.6-1.1,1.3-1.6
		c-0.2,0.5-0.4,0.8-0.5,1.1c-0.1,0.2-0.2,0.5-0.3,0.8c0,0.1,0.1,0.2,0.1,0.2c0.1,0,0.2,0,0.2-0.1c0.2-0.3,0.4-0.7,0.6-1
		c0.1-0.1,0.1-0.2,0.3-0.1c-0.2,0.4-0.4,0.9-0.6,1.3c-0.1,0.3-0.1,0.3,0.4,0.4c0.3-0.4,0.5-1,1-1.5c-0.1,0.7-0.6,1.2-0.7,1.8
		c0.1,0.1,0.2,0.2,0.4,0.3c0.2-0.3,0.4-0.6,0.6-0.9c0.2-0.3,0.4-0.6,0.9-0.8c-0.4,0.7-0.8,1.3-1,1.9C64.5,37,64.7,37.1,65,37L65,37z
		 M52.9,77.6c0-0.3,0-0.3,0.2-0.7c0,0.3,0,0.5,0.1,0.7c0,0.1,0.2,0.2,0.3,0.2c0.1,0,0.2-0.1,0.3-0.2c0.1-0.2,0.1-0.5,0.1-0.7
		c0,0,0.1,0,0.1,0c0,0.2,0.1,0.5,0.1,0.8c0.2,0,0.4,0,0.6,0c0.2-0.3-0.1-0.7,0.2-1.1c0.1,0.4,0.2,0.7,0.3,1.1
		c0.2-0.1,0.4-0.1,0.5-0.1c0-0.3,0.1-0.6,0.1-1c0.2,0.4,0.3,0.7,0.4,0.9c0,0,0.1,0,0.2,0.1c0-0.2,0.1-0.4,0.2-0.8
		c0.1,0.3,0.2,0.4,0.3,0.6c0.1,0.3,0.3,0.3,0.5,0.1c0-0.2-0.1-0.5,0.2-0.8c0.2,0.3,0.1,0.6,0.3,0.8c0.1,0,0.3,0,0.4,0
		c0.2-0.3,0-0.6,0.4-0.8c0,0.2,0.1,0.4,0.1,0.6c0,0.1,0.2,0.2,0.3,0.2c0.1,0,0.2-0.1,0.3-0.2c0.1-0.1,0.1-0.3,0.2-0.6
		c0.1,0.3,0.2,0.5,0.3,0.7c0,0.1,0.2,0.1,0.3,0.1c0,0,0.1-0.1,0.1-0.1c0-0.2,0.1-0.4,0.2-0.8c0.1,0.4,0.2,0.5,0.3,0.7
		c0.1,0.2,0.2,0.2,0.4,0.1c0.1-0.3-0.1-0.7,0.1-1c0.3,0.3,0.2,0.6,0.3,0.9c0.1,0.3,0.2,0.3,0.6,0.2c0.1-0.4-0.1-0.9,0-1.4
		c0.3,0.4,0.3,0.8,0.3,1.2c0.1,0.2,0.1,0.4,0.5,0.3c0.1-0.5-0.2-1.1,0.2-1.7c0,0.3,0.1,0.5,0.1,0.6c0.1,0.3,0.1,0.7,0.2,1
		c0.1,0.2,0.1,0.2,0.5,0.1c0-0.5,0-1,0-1.5c0-0.1,0-0.3,0.2-0.3c0,0.3,0,0.5,0.1,0.8c0,0.4,0.1,0.7,0.2,1.1c0.1,0.3,0.3,0.3,0.6,0.2
		c0-0.3-0.1-0.6-0.1-0.9c0-0.4,0-0.7,0-1.1c0-0.1,0.1-0.2,0.2-0.5c0,0.4,0,0.6,0.1,0.8c0.1,0.5,0.1,1.1,0.2,1.6
		c0,0.2,0.2,0.4,0.5,0.2c-0.1-0.7-0.2-1.4-0.2-2.1c0-0.8,0-1.5,0-2.3c0-0.7,0.3-1.4,0.2-2.1c-0.3,0-0.5,0.1-0.5,0.4
		c-0.1,0.6-0.2,1.2-0.2,1.8c0,0.1,0,0.3-0.1,0.5c-0.4-0.8,0-1.6-0.1-2.4c-0.3,0-0.5,0-0.5,0.3c-0.1,0.4-0.1,0.8-0.2,1.2
		c0,0.2,0,0.4-0.1,0.8c-0.4-0.8,0-1.5-0.2-2.1c-0.3-0.1-0.4,0-0.5,0.2c-0.1,0.2-0.1,0.5-0.2,0.7c-0.1,0.2,0,0.5-0.2,0.7
		c-0.3-0.5,0-1.1-0.1-1.5c-0.3-0.1-0.4,0.1-0.4,0.2c-0.1,0.3-0.1,0.5-0.2,0.8c0,0.1-0.1,0.3-0.3,0.6c0-0.6,0-1,0-1.4
		c-0.3-0.2-0.4-0.1-0.5,0.1c-0.1,0.3,0,0.7-0.4,1c0-0.5,0-0.8,0-1.2c-0.6-0.1-0.3,0.5-0.7,0.6c0-0.2-0.1-0.4-0.1-0.6
		c-0.7-0.1-0.4,0.5-0.7,0.6c-0.1-0.2-0.1-0.4-0.2-0.6c-0.2-0.1-0.4-0.1-0.5,0.1c-0.1,0.2-0.1,0.4-0.2,0.6c0,0-0.1,0-0.1,0
		c-0.1-0.3-0.1-0.6-0.2-0.9c-0.2,0-0.3,0-0.5,0c-0.2,0.3,0,0.6-0.4,0.8c0-0.3-0.1-0.6-0.1-0.9c-0.1,0-0.3,0-0.4,0.1
		c-0.1,0.2-0.2,0.4-0.4,0.8c0-0.3-0.1-0.5-0.1-0.7c0-0.1-0.1-0.2-0.2-0.2c-0.3,0.2-0.1,0.6-0.5,0.8c0-0.3-0.1-0.6-0.1-0.9
		c-0.2,0-0.3,0-0.5,0c-0.3,0.3-0.1,0.7-0.4,1c0-0.4-0.1-0.7-0.1-1c-0.1,0-0.2-0.1-0.3-0.1c-0.1,0-0.2,0-0.3,0.1
		c-0.1,0.3-0.1,0.5-0.1,0.8c-0.2-0.3-0.2-0.5-0.2-0.8c0-0.2-0.3-0.2-0.5-0.1c-0.2,0.2,0.1,0.6-0.3,0.7c0-0.3-0.1-0.6-0.1-0.8
		c-0.2,0-0.3-0.1-0.4-0.1c-0.3,0.3-0.1,0.6-0.4,0.9c-0.1-0.3-0.1-0.6-0.1-0.9c-0.3,0-0.4,0.1-0.5,0.3c0,0.1,0,0.3-0.1,0.4
		c0,0.1,0,0.3-0.2,0.3c-0.1-0.3,0-0.6-0.1-0.9c0-0.1-0.1-0.2-0.2-0.3c-0.2-0.1-0.5,0-0.5,0.2c-0.1,0.3-0.1,0.6-0.2,1
		c-0.3-0.4-0.1-0.9-0.2-1.3c-0.4,0-0.4,0-0.5,0.2c0,0.3-0.1,0.6-0.1,0.9c0,0.1,0,0.2-0.3,0.2c0-0.5-0.1-0.9-0.1-1.4
		c-0.3-0.1-0.5,0-0.5,0.3c0,0.2,0,0.4-0.1,0.6c-0.1,0.2,0,0.5-0.2,0.7c-0.2-0.6,0-1.2-0.1-1.7c-0.3-0.1-0.5-0.1-0.6,0.2
		c-0.1,0.4-0.1,0.8-0.2,1.2c0,0.2,0,0.3,0,0.5C47,72.8,47,72.5,47,72.2c0-0.2,0-0.5,0-0.7c0-0.1-0.1-0.1-0.1-0.2c-0.2,0-0.3,0-0.6,0
		c-0.1,0.5-0.2,0.9-0.2,1.4c0,0.1-0.1,0.2-0.1,0.3c-0.1-0.3-0.1-0.6-0.2-0.8c0-0.2,0.1-0.5-0.1-0.8c-0.4,0.1-0.4,0.4-0.4,0.6
		c-0.1,0.2-0.1,0.4-0.2,0.6c-0.1,0.2,0,0.5-0.2,0.8c-0.4-0.7,0.2-1.3-0.1-1.9c-0.4-0.1-0.7,0.1-0.8,0.4c-0.1,0.5-0.2,1.1-0.3,1.6
		c0,0.2,0.1,0.4-0.2,0.5c-0.3-0.8,0.1-1.6,0-2.3c-0.4,0-0.7,0.1-0.7,0.4c-0.3,1.6-0.3,3.3-0.1,4.9c0,0.3,0.1,0.6,0.2,0.8
		c0.3,0.1,0.5,0.2,0.7,0.1c0-0.3-0.1-0.6-0.1-1c0-0.4,0-0.7,0-1.1c0-0.1,0-0.2,0.2-0.2c0.1,0.8,0.2,1.7,0.6,2.5
		c0.2,0,0.4,0.1,0.7,0.1c0-0.4-0.1-0.7-0.1-1c-0.1-0.5-0.1-0.5,0.2-0.9c0,0.2,0.1,0.3,0.1,0.5c0.1,0.4,0.2,0.8,0.3,1.2
		c0,0.2,0.2,0.3,0.4,0.1c0.1-0.5,0-1,0.2-1.7c0.2,0.7,0,1.3,0.3,1.8c0.2,0,0.4,0,0.6,0c0-0.5,0-1,0-1.5c0-0.1,0.1-0.2,0.1-0.3
		c0.1,0.3,0.1,0.5,0.1,0.7c0,0.3,0.1,0.6,0.2,0.9c0.1,0.3,0.3,0.3,0.6,0.1c0-0.5,0-1,0.1-1.7c0.1,0.2,0.2,0.3,0.2,0.4
		c0.1,0.4,0.1,0.7,0.2,1.1c0,0.3,0.1,0.3,0.6,0.2c0-0.1,0-0.3,0-0.4c0-0.2,0-0.4,0-0.5c0-0.1-0.1-0.3,0.2-0.4c0,0.2,0.1,0.4,0.1,0.6
		c0,0.2,0,0.4,0.1,0.6c0.1,0.2,0.2,0.2,0.4,0.1c0.1-0.4-0.1-0.8,0.2-1.3c0,0.3,0.1,0.5,0.1,0.8c0.1,0.4,0.2,0.5,0.8,0.3
		c0-0.2,0-0.5,0-0.8c0-0.1,0.1-0.2,0.2-0.4c0.1,0.5,0.1,0.8,0.2,1.1c0,0.1,0.2,0.1,0.2,0.1c0.1,0,0.2-0.1,0.2-0.1
		c0-0.3,0.1-0.6,0.1-0.9c0,0,0.1,0,0.1,0c0.1,0.3,0.2,0.6,0.3,1C52.6,77.8,52.7,77.8,52.9,77.6L52.9,77.6z M175.3,30.3
		c-4.5,3.3-9.1,6.7-13.6,10c-4.5,3.4-9.1,6.7-13.6,10.1c0.2,0.4,0.5,0.7,0.9,0.9c2-1.4,4-2.9,6-4.3c0,0,0.1,0,0.2,0.1
		c-0.5,0.4-0.9,0.8-1.4,1.1c-1.3,1-2.6,2-3.9,3.1c-0.2,0.1-0.3,0.3-0.5,0.5c0.4,0.4,0.7,0.8,1.2,1.1c0.5-0.3,0.9-0.6,1.3-0.9
		c7.7-5.7,15.4-11.4,23-17c2.5-1.9,5-3.7,7.5-5.6c0.2-0.1,0.5-0.2,0.4-0.6c-0.2,0-0.5,0-0.7,0c-1.8,0.3-3.7,0.6-5.5,0.8
		C176.1,29.8,175.7,29.9,175.3,30.3L175.3,30.3z M155.2,102.4c-0.2,0.1-0.3,0-0.4-0.1c-1.7-1.2-3.4-2.5-5.1-3.7
		c-0.2-0.2-0.5-0.3-0.7-0.5c-0.3,0.3-0.7,0.5-0.8,0.9c0.4,0.3,0.7,0.6,1.1,0.8c4.6,3.4,9.3,6.9,13.9,10.3c4,3,8.1,6,12.1,9
		c0.5,0.3,0.9,0.6,1.6,0.6c1.8,0.2,3.6,0.5,5.4,0.8c0.2,0,0.4,0,0.6,0c0-0.1,0-0.1,0-0.1c0,0,0-0.1-0.1-0.1
		c-9.5-7.1-19-14.1-28.6-21.2c-1.2-0.9-2.4-1.7-3.6-2.6c0,0-0.1,0-0.1,0c0,0-0.1,0-0.1,0c-0.4,0.3-0.8,0.7-1,1.2
		c0.6,0.5,1.2,1,1.9,1.5C152.6,100.3,153.9,101.3,155.2,102.4L155.2,102.4z M85.4,45.6c-0.1,0.1-0.1,0.1-0.2,0.2
		c-0.1-0.2,0-0.3,0-0.4c0.2-0.5,0.4-1,0.5-1.4c0-0.1,0-0.2-0.1-0.3c-0.1,0-0.3,0.1-0.3,0.1c-0.7,0.9-1.1,1.9-1.4,2.9
		c0,0.1,0.1,0.1,0.1,0.1c0,0,0,0,0.1,0.1c0,0,0,0,0.1,0.1c0,0,0,0,0.1,0.1c4,3,8,6.1,12,9.1c0.2,0.2,0.4,0.3,0.6,0.5
		c0.1,0.1,0.2,0.1,0.2,0.2c0,0,0,0,0.1,0.1c0,0,0.1,0.1,0.1,0.1c0,0,0,0.1,0,0.1c0,0,0,0.1,0,0.1c-2.3-1.6-4.6-3.3-6.8-4.9
		c-2.3-1.6-4.5-3.3-6.7-4.9c-1.1,0.5-2.4,1.6-2.9,2.3c0.7-0.3,1.3-0.8,2-1c-0.4,0.5-1.1,0.8-1.5,1.3c0.1,0.2,0.2,0.3,0.4,0.2
		c0.3-0.1,0.5-0.3,0.8-0.4c0.1-0.1,0.3-0.2,0.4-0.1c-0.2,0.3-0.7,0.4-0.9,0.9c0.1,0.1,0.2,0.2,0.4,0.3c0.3-0.2,0.6-0.3,0.8-0.4
		c0,0,0.1,0.1,0.1,0.1c-0.2,0.2-0.3,0.4-0.5,0.6c0.1,0.1,0.1,0.2,0.2,0.2c0.1,0.1,0.2,0.1,0.3,0.1c0.2-0.1,0.5-0.2,0.7-0.3
		c0,0,0.1,0,0.2,0.1c-0.2,0.2-0.3,0.4-0.5,0.6c0.5,0.1,0.7,0.5,1,0.7c0.3,0.2,0.7,0.5,1,0.7c0.3,0.2,0.7,0.5,1,0.7
		c0.3,0.2,0.7,0.5,1,0.7c0.3,0.2,0.7,0.5,1,0.7c0.3,0.2,0.7,0.5,1,0.7c0.3,0.2,0.6,0.5,0.9,0.7c0.3,0.2,0.7,0.5,1,0.7
		c0.3,0.2,0.7,0.5,1,0.7c0.3,0.2,0.7,0.5,1,0.7c0.3,0.2,0.7,0.5,1,0.7c0.3,0.2,0.7,0.5,1,0.7c0.3,0.2,0.7,0.5,1,0.7
		c0.3,0.2,0.6,0.5,1,0.7c0.2-0.4,0.4-0.8,0.5-1.2c-0.4-0.3-0.7-0.6-1.1-0.8c-0.3-0.3-0.7-0.5-1-0.8c-0.3-0.3-0.7-0.6-1-0.8
		c-0.3-0.3-0.7-0.5-1-1c0.4,0.1,0.5,0.2,0.7,0.4c1,0.7,1.9,1.4,2.9,2.1c0.3,0.2,0.5,0.4,0.9,0.5c0.9-0.8,1.7-1.5,2.6-2.3
		c-0.3-0.2-0.5-0.4-0.7-0.6c-1.4-1.2-2.9-2.4-4.3-3.6c-0.1-0.1-0.3-0.2-0.1-0.4c1.9,1.4,3.7,2.9,5.7,4.3c0.6-0.4,1-0.8,1.3-1.3
		c-0.1-0.1-0.1-0.2-0.2-0.2c-4.4-3.3-8.8-6.5-13.2-9.8c-0.1-0.1-0.3-0.1-0.4-0.2c-0.2,0.1-0.3,0.4-0.6,0.4c0-0.2,0.1-0.4,0.1-0.6
		c0.1-0.3-0.1-0.4-0.3-0.4c-0.3,0.3-0.4,0.7-0.9,1.1c0.2-0.5,0.3-0.9,0.4-1.3c0.1-0.2,0-0.4-0.3-0.4c-0.1,0.2-0.3,0.4-0.5,0.6
		c-0.2,0.2-0.2,0.6-0.6,0.7c0.2-0.6,0.4-1.1,0.6-1.7c-0.1-0.1-0.3-0.2-0.5-0.3C85.9,44.6,85.7,45.1,85.4,45.6L85.4,45.6z M74.7,71
		c-0.2,0.3-0.1,0.7,0,1c0.1,0.3,0.2,0.6,0.1,1c-0.3-0.3-0.3-0.7-0.5-1c-0.1-0.4-0.1-0.8-0.4-1.1c-0.1,0-0.3,0-0.5,0.1
		c0.2,1.2,0.4,2.2,0.7,3.3c0.2,0,0.3,0,0.5,0c4,0,8.1,0,12.1,0c0.4,0,0.7,0,1.1,0c0.1,0,0.3,0,0.3,0.2c-0.1,0-0.2,0-0.4,0
		c-3,0.1-5.9,0.1-8.9,0.2c-1.3,0-2.6,0-4,0c-0.2,0-0.5,0.1-0.7,0.1c-0.4,1.4-0.6,2.8-0.6,3.5c0.2,0,0.4,0.1,0.5-0.1
		c0.1-0.2,0.1-0.5,0.2-0.7c0.2-0.4,0.2-0.9,0.5-1.3c0.2,0.3,0,0.6,0,0.8c0,0.4-0.1,0.7-0.1,1.1c0,0.1,0.1,0.2,0.1,0.3
		c0.2,0,0.4,0,0.6,0c0.2-0.5,0.3-1,0.6-1.5c0.2,0.6-0.2,1.1,0,1.6c0.2,0,0.4,0,0.6,0c0.1-0.3,0.2-0.6,0.3-0.8c0-0.1,0.2-0.2,0.4-0.4
		c0,0.4-0.1,0.7-0.1,1c0,0.1,0.1,0.2,0.1,0.3c0.2,0,0.4,0,0.6,0c0.2-0.2,0.3-0.4,0.4-0.6c0.1,0.3,0.2,0.4,0.3,0.6
		c3.6,0,7.2-0.1,10.8-0.1c6.4,0,10.1-0.1,10.8-0.3c0-0.3,0-0.5,0-0.8c0-0.3,0.1-0.6-0.1-0.9c-1.1,0-2.2,0-3.3,0c-1.1,0-2.2,0-3.3,0
		c1.1-0.2,2.2-0.2,3.4-0.3c1.1-0.1,2.3,0,3.4-0.1c0.2-0.6,0.4-1,0.6-1.5c0.2-0.5,0.5-0.9,0.5-1.5c-1.4,0-2.8,0-4.2,0
		c-1.4,0-2.9,0-4.4-0.1c0.3-0.2,0.5-0.2,0.8-0.2c2.5-0.1,5-0.1,7.4-0.2c0.2,0,0.4,0,0.7-0.1c0.2-0.4,0.3-0.7,0.3-1.2
		c-1.6-0.1-3.1,0-4.6,0c-1.6,0-3.2,0-4.7,0c-1.5,0-3.1,0-4.6,0c-1.6,0-3.2-0.1-4.7-0.1c-1.5,0-3.1-0.1-4.6,0
		c-0.1,0.2-0.1,0.5-0.3,0.6c-0.1-0.2-0.2-0.4-0.3-0.6c-0.3,0-0.5,0-0.7,0c-0.2,0.4,0.1,0.7-0.1,1.1c-0.3-0.3-0.3-0.8-0.6-1.1
		c-0.2,0-0.4,0-0.6,0.1c0,0.3,0.1,0.5,0.1,0.8c0,0.2,0.2,0.4-0.1,0.6c-0.2-0.4-0.4-0.8-0.5-1.2C75.3,71,75.1,71,74.7,71L74.7,71z
		 M90.4,63.2c0,0,0,0-0.1,0c-0.7-0.5-1.5-0.9-2.3-1.4c0,0.8,0.3,1.4,1,1.9c0.5,0.3,0.9,0.7,1.3,1c0.2,0.1,0.3,0.3,0.4,0.5
		c0,0,0,0-0.2,0c-0.6-0.4-1.3-0.8-1.9-1.2c0,0.1,0,0.2,0,0.3c0.1,0.6,0.4,1,0.9,1.3c0.7,0.5,1.3,0.9,2,1.4c0.1,0.1,0.4,0.2,0.3,0.4
		c0,0,0,0-0.1,0c-0.7-0.4-1.3-0.8-2-1.2c-0.1-0.1-0.2-0.2-0.4-0.1c0.2,0.7,0.5,1.2,1.1,1.6c0.8,0.5,1.6,1,2.4,1.5
		c0.2,0.1,0.3,0.2,0.5,0.3c-0.2,0-0.4-0.1-0.6-0.2c-0.2-0.1-0.4-0.2-0.6-0.3c-0.2-0.1-0.4-0.2-0.7-0.4c-0.2-0.1-0.4-0.2-0.6-0.3
		c-0.2-0.1-0.3-0.3-0.6-0.2c0.1,0.4,0.3,0.8,0.7,1c0.7,0.4,1.4,0.8,2.1,1.2c0.3,0.2,0.6,0.2,1,0.2c2.3,0,4.7,0.1,7,0
		c0.2,0,0.3-0.1,0.6-0.1c-0.2-0.7-0.3-1.3-0.5-2c0.8,1.2,1.3,2.4,0.8,3.7c-0.2,0.6-0.4,1.2-0.6,1.8c-0.2,0.5-0.4,0.9-0.5,1.4
		c-0.5,1.7-0.6,3.4,0.1,5c0,0.1,0,0.2,0.1,0.3c-0.5-0.6-0.7-1.3-1-2c-0.3,0-0.6,0-0.9,0c-1.1,0-2.1,0-3.2,0c-0.6,0-1.3,0-1.9,0.1
		c-0.3,0-0.6,0.1-0.9,0.2c-0.7,0.4-1.5,0.9-2.2,1.3c-0.4,0.2-0.5,0.6-0.7,1.1c0.9-0.5,1.7-0.9,2.5-1.3c0,0,0,0,0,0.1
		c-0.3,0.2-0.5,0.4-0.8,0.5c-0.6,0.4-1.3,0.8-1.9,1.2c-0.5,0.3-0.7,0.8-0.8,1.5c0.7-0.4,1.2-0.8,1.8-1.1c0.4-0.2,0.8-0.4,1.2-0.6
		c0,0,0,0,0,0.1c-0.8,0.5-1.6,1.1-2.4,1.6c-0.3,0.2-0.6,0.4-0.9,0.7c-0.4,0.3-0.5,0.8-0.5,1.4c0.6-0.4,1.1-0.8,1.6-1.1
		c0.2-0.1,0.4-0.3,0.7-0.3c0,0,0,0,0,0.1c-0.7,0.5-1.4,1.1-2.1,1.6c-0.6,0.5-0.8,1.1-0.9,1.8c1-0.6,1.8-1.3,2.8-1.7
		c-0.1,0.2-0.3,0.3-0.4,0.4c-0.6,0.4-1.1,0.8-1.7,1.2c-0.7,0.5-1.2,1.1-1.2,1.9c0,0.4-0.2,0.8-0.3,1.1c0,0.1,0,0.3,0,0.5
		c0.2-0.1,0.3-0.2,0.4-0.2c1-0.8,2.1-1.5,3.1-2.3c0.2-0.1,0.3-0.3,0.6-0.3c0,0,0,0,0,0.1c-0.3,0.2-0.5,0.4-0.8,0.6
		c-1,0.8-2,1.7-3,2.5c-0.4,0.3-0.5,0.6-0.3,1.1c0.2-0.1,0.3-0.2,0.5-0.3c1.2-0.9,2.4-1.9,3.7-2.8c0.2-0.1,0.4-0.4,0.7-0.3
		c0,0,0,0,0,0.1c-0.3,0.2-0.5,0.4-0.8,0.6c-1.3,1-2.6,2.1-3.8,3.2c-0.4,0.4-0.4,0.5-0.1,1.1c0.6-0.4,9.4-6.9,10.2-7.5
		c0-0.7-0.3-1.3-0.2-2.1c0.1,0.1,0.2,0.2,0.2,0.3c0.1,0.2,0.1,0.5,0.2,0.7c0.2,1.7,0.9,3.2,2.4,4.3c0.7,0.5,1.3,1,1.9,1.5
		c0.8,0.6,1.4,1.3,1.8,2.1c0.3,0.5,0.5,1,0.4,1.7c-0.4-0.2-0.3-0.6-0.5-0.9c-0.2-0.3-0.3-0.6-0.7-0.9c-2.8,2.1-5.5,4.1-8.2,6.2
		c0.5,1.2,0.9,2.3,1.6,3.3c0.9,1.2,1.9,2.4,3,3.4c1.4,1.3,3,2.2,4.9,2.7c0.8,0.2,1.6,0.4,2.5,0.6c-0.8,0.1-1.5-0.1-2.2-0.2
		c-2.4-0.5-4.4-1.6-6-3.2c-1.7-1.6-3.2-3.3-4-5.5c-0.1-0.2-0.1-0.5-0.5-0.6c-0.8,0.6-1.6,1.2-2.5,1.9c-0.1,0,0,0.2-0.1,0.3
		c0.3,0,0.6,0.1,0.9,0.1c0.1,0,0.2,0.1,0.2,0.3c-0.4,0-0.9,0-1.3,0c-0.6-0.1-0.9,0.3-1.3,0.8c0.7,0,1.2,0.1,1.8,0.1
		c-0.1,0.3-0.4,0.2-0.5,0.2c-0.6,0.1-1.2,0.1-1.7-0.1c-0.3,0.1-0.5,0.2-0.5,0.5c0.8,0.3,1.6,0.1,2.6,0.3c-0.9,0.2-1.7,0.1-2.5,0.2
		c-0.1,0.3,0.1,0.5,0.4,0.6c0.3,0.1,0.6,0.1,0.9,0.1c0.7,0,1.3,0,2.1,0.1c-1,0.4-1.9,0.2-2.8,0.3c0.1,0.3,0.2,0.5,0.4,0.7
		c0.8,0,1.6,0.1,2.5,0.1c-0.7,0.3-1.4,0.2-2.1,0.3c0.1,0.4,0.2,0.7,0.7,0.7c0.7,0,1.3,0.1,2,0.1c0.2,0,0.4,0,0.6,0.1
		c-0.4,0.1-0.8,0.2-1.2,0.2c-0.4,0-0.9,0-1.4,0c0.2,0.5,0.4,0.8,1,0.8c0.4,0,0.8,0,1.2,0c0.2,0,0.4,0,0.6,0c0,0,0,0.1,0,0.1
		c-0.6,0.1-1.1,0.1-1.7,0.2c0.3,0.5,0.6,0.7,1.2,0.7c0.5,0,0.9-0.1,1.5,0.1c-0.6,0.2-1.1,0-1.5,0.3c0.3,0.4,0.6,0.7,1.1,0.6
		c0.4,0,0.9-0.1,1.4,0c-0.3,0.4-0.8,0.2-1.2,0.4c0.4,0.4,0.8,0.7,1.4,0.6c0.2,0,0.4,0,0.6,0c0.2,0,0.4,0,0.6,0c0,0,0,0.1,0,0.1
		c-0.3,0.1-0.7,0.2-1.1,0.3c0.4,0.4,0.8,0.7,1.3,0.6c0.2,0,0.4,0,0.6,0c0,0,0.1,0,0.1,0.1c-0.2,0.1-0.3,0.2-0.5,0.3
		c0.3,0.3,0.6,0.4,0.9,0.4c0.3,0,0.5,0,0.8,0c0,0,0.1,0.1,0.1,0.1c-0.2,0.1-0.3,0.1-0.6,0.2c0.5,0.6,1,0.5,1.6,0.4
		c-0.1,0.2-0.2,0.3-0.3,0.5c0.6,0.2,1.2,0.5,1.8,0.7c1.6,0.5,3.3,0.9,5.1,1.2c3.1,0.5,6.2,0.3,9.3-0.3c0.3-0.1,0.5-0.2,0.6-0.5
		c0-0.1,0.1-0.2,0.2-0.4c0.1,0.2,0.1,0.4,0.2,0.6c0.6-0.1,0.6-0.1,1-0.6c0.3,0.4,0.5,0.4,0.8,0c0.1-0.2,0.2-0.4,0.4-0.8
		c0,0.4,0,0.6,0.1,0.9c0.8-0.1,0.7-0.8,1.1-1.2c0,0.3,0,0.6,0,0.9c0.4,0.1,0.7-0.1,0.8-0.4c0.1-0.4,0.3-0.7,0.5-1.1
		c0.3,0.4-0.1,0.8,0.1,1.2c0.4,0,0.6-0.1,0.8-0.5c0.2-0.4,0.2-0.8,0.5-1.2c0,0.3-0.1,0.7-0.1,1c0,0.1,0,0.2,0.1,0.3
		c0.3-0.1,0.5-0.2,0.7-0.3c0.4-0.6,0.3-1.2,0.7-1.8c0,0.6,0,1.1,0,1.5c0.5,0,0.8-0.2,0.9-0.7c0.1-0.4,0.2-0.8,0.3-1.1
		c0-0.1,0.1-0.2,0.2-0.2c0,0.5-0.2,1,0,1.5c0.3-0.1,0.6-0.2,0.8-0.3c0.4-0.9,0.3-1.8,0.8-2.8c0,0.9-0.2,1.7-0.2,2.4
		c0.6,0,0.9-0.3,1-0.8c0.1-0.7,0.3-1.3,0.5-2.1c0.2,0.8-0.2,1.5-0.1,2.3c0.4-0.1,0.7-0.3,0.8-0.6c0-0.2,0.1-0.5,0.2-0.7
		s0.1-0.5,0.2-0.7c0.1-0.3,0-0.5,0.3-0.9c0,0.5-0.1,0.9-0.1,1.2c0,0.3-0.1,0.7,0,1.1c0.8-0.3,1.4-0.7,1.4-1.5c0-0.3,0.1-0.6,0.2-0.9
		c0.1-0.3,0.2-0.7,0.2-1c0.1,0.4,0.1,0.8,0,1.2c-0.1,0.4-0.2,0.7-0.1,1.1c0.9-0.2,1.3-0.7,1.3-1.5c0-0.5,0.1-1,0.2-1.5
		c0-0.1,0-0.2,0.2-0.3c0,0.4-0.1,0.7-0.1,1.1c0,0.4-0.1,0.8,0,1.1c0.9-0.4,1-0.4,1.2-1.2c0.1-0.4,0.1-0.7,0.2-1.1
		c0.1-0.4,0.1-0.8,0.3-1.2c0.1,0.3,0.1,0.5,0,0.8c0,0.3-0.1,0.6-0.1,0.9c0,0.2-0.1,0.5,0,0.8c0.6-0.1,0.9-0.5,1-1
		c0.1-0.6,0.2-1.2,0.3-1.8c0-0.2,0.1-0.5,0.2-0.7c0,0,0.1,0,0.1,0c-0.1,0.9-0.2,1.7-0.3,2.6c0.8-0.3,1.3-0.7,1.5-1.5
		c0.1-0.6,0.3-1.2,0.4-1.9c0.1-0.3,0.2-0.6,0.2-0.9c0.1,1-0.1,1.9-0.2,2.9c1.2-0.6,1.4-0.9,1.7-2c0.1-0.4,0.2-0.8,0.2-1.2
		c0.1-0.3,0.2-0.7,0.2-1c0.2,0.9-0.2,1.7-0.2,2.7c0.7-0.4,1.2-0.8,1.3-1.5c0.1-0.7,0.3-1.4,0.4-2c0-0.1,0.1-0.2,0.1-0.4
		c0,0,0.1,0,0.1,0c-0.1,0.8-0.2,1.6-0.3,2.5c0.7-0.4,1.2-0.8,1.2-1.5c0.1-0.8,0.2-1.6,0.3-2.4c0-0.1,0-0.3,0.2-0.4
		c0,0.2,0,0.5,0,0.7c0,0.2,0,0.5,0,0.7c0,0.2,0,0.5-0.1,0.7c0,0.2-0.1,0.4,0,0.7c0.8-0.5,1.3-1,1.4-1.9c0-0.1,0-0.1,0-0.2
		c0.2-0.9,0.3-1.9,0.5-2.8c0.1,0.3,0.1,0.5,0.1,0.8c0,0.3,0,0.5-0.1,0.8c0,0.3-0.1,0.6-0.1,0.9c0,0.3-0.1,0.5,0,0.8
		c0.6-0.4,1.1-0.8,1.2-1.4c0-0.2,0.1-0.5,0.2-0.7c0.1-0.9,0.3-1.7,0.4-2.6c0.2,1.1-0.2,2.1-0.1,3.2c0.7-0.4,1-0.9,1.1-1.6
		c0.1-0.8,0.2-1.6,0.3-2.4c0-0.3,0-0.6,0.3-0.9c-0.1,1.2-0.2,2.3-0.3,3.4c0.5-0.3,0.7-0.7,1.1-1c0.3-0.3,0.5-0.7,0.6-1.1
		c0.1-0.6,0.3-1.2,0.4-1.8c0.2-0.8,0.3-1.5,0.4-2.3c0,1.3-0.2,2.5-0.3,3.8c0.5-0.5,1-1,1.4-1.5c0.3-0.4,0.5-0.8,0.6-1.2
		c0.1-0.8,0.3-1.5,0.4-2.3c0-0.3,0.1-0.5,0.2-0.8c0.1-0.2-0.1-0.5,0.2-0.7c0,1.2-0.3,2.3-0.3,3.6c0.5-0.4,0.7-0.7,1-1
		c0.1-0.1,0.1-0.2,0.1-0.2c0.2-0.9,0.4-1.8,0.6-2.7c0.1-0.3,0.1-0.5,0.1-0.8c0-0.3,0.1-0.5,0.1-0.8c0.3,1.2-0.1,2.3-0.2,3.5
		c0.1,0,0.2,0,0.2,0c0.7-0.8,1.4-1.6,1.6-2.7c0-0.2,0.1-0.4,0.2-0.6c0.1-0.6,0.3-1.2,0.4-1.8c0.1,0.2,0.1,0.5,0.1,0.7
		c-0.1,0.5-0.2,0.9-0.3,1.4c0,0.1-0.1,0.3,0.1,0.4c0.6-0.7,1.2-1.3,1.3-2.2c0.1-0.6,0.3-1.2,0.5-1.8c0.1-0.2,0.2-0.5,0.2-0.7
		c0.1,0.2,0.1,0.4,0.1,0.5c-0.1,0.4-0.2,0.9-0.3,1.3c0,0.1-0.1,0.3,0.1,0.4c0.7-0.8,1.6-1.6,1.8-2.7c0-0.1,0.1-0.3,0.2-0.4
		c0,0,0.1,0,0.2-0.1c0,0.3,0,0.5-0.1,0.7c0.9-0.7,0.9-0.8,1.3-1.6c0.1-0.3,0.2-0.6,0.4-0.9c0,0,0.1,0,0.1,0c0,0.1,0,0.3,0.1,0.5
		c0.5-0.6,1-1.2,1.4-1.7c0.5-0.6,1-1.1,1.5-1.7c0.5-0.5,1-1,1.5-1.5c-1.7-1.4-3-3.1-4.4-4.8c-0.1,0.2-0.1,0.4-0.2,0.7
		c-0.4-1.1-0.7-2.1-1.7-2.7c-0.2,0.2,0.2,0.5-0.2,0.8c-0.2-1.4-1-2.4-2.2-3.4c0.1,0.5,0.2,0.9,0.2,1.3c0.1,0.3,0.3,0.7,0.1,1.2
		c-0.3-1.1-0.6-2-0.8-3c-0.2-0.8-0.8-1.3-1.4-2c0,1,0.4,1.8,0.3,2.7c-0.2-0.6-0.4-1.3-0.5-1.9c-0.2-1.2-0.7-2.2-1.6-3.1
		c-0.1-0.1-0.2-0.1-0.3-0.2c0.1,1.2,0.5,2.3,0.3,3.5c-0.1-0.1-0.1-0.1-0.1-0.2c-0.1-1.3-0.4-2.6-0.8-3.9c-0.2-0.6-0.6-1-1.2-1.5
		c0.1,1.3,0.4,2.4,0.3,3.6c-0.1-0.1-0.1-0.2-0.1-0.3c-0.2-1.1-0.3-2.1-0.5-3.2c-0.1-0.4-0.2-0.8-0.4-1.2c-0.2-0.3-0.5-0.6-0.7-0.9
		c-0.3-0.3-0.5-0.7-1-1c0.1,0.5,0.1,0.9,0.2,1.3c0.1,0.4,0.1,0.9,0.2,1.3c0.1,0.4,0.2,0.8,0.1,1.3c-0.2-1.3-0.4-2.3-0.7-3.4
		c-0.4-1.6-0.1-1.1-1.3-2.4c-0.1-0.1-0.3-0.3-0.5-0.4c0.1,1.2,0.2,2.3,0.3,3.5c-0.3-0.4-0.3-0.8-0.3-1.1c-0.1-0.9-0.3-1.8-0.4-2.7
		c-0.1-0.6-0.5-1-1.1-1.2c0,0.3,0.1,0.5,0.1,0.8c0,0.3,0.1,0.5,0.1,0.8c0,0.3,0.1,0.5,0.1,0.8c0,0.2,0.1,0.5-0.1,0.7
		c0-0.1,0-0.3-0.1-0.4c-0.2-0.9-0.4-1.9-0.5-2.9c-0.1-0.7-0.6-1.1-1.3-1.6c0,1.2,0.4,2.3,0.1,3.4c-0.1-0.2-0.1-0.3-0.1-0.5
		c-0.2-1-0.3-2-0.5-2.9c-0.1-0.7-0.7-1.1-1.4-1.5c0.2,1.1,0.2,2,0.2,3.1c-0.2-0.3-0.2-0.5-0.2-0.7c-0.1-0.8-0.3-1.5-0.3-2.3
		c-0.1-0.7-0.5-1.1-1.2-1.5c0,0.9,0.2,1.7,0.2,2.5c-0.1-0.2-0.2-0.4-0.2-0.6c-0.2-0.7-0.3-1.5-0.5-2.2c-0.1-0.6-0.6-0.8-1.2-1.1
		c0,0.9,0.4,1.7,0.2,2.6c-0.2-0.8-0.4-1.7-0.6-2.5c-0.2-0.8-0.7-1.3-1.6-1.6c0.1,0.9,0.3,1.8,0.3,2.8c-0.1-0.3-0.2-0.6-0.3-0.9
		c-0.1-0.6-0.3-1.2-0.4-1.9c-0.1-0.8-0.7-1.2-1.5-1.6c0.1,0.5,0.1,0.9,0.1,1.4c0,0.4,0.2,0.8,0,1.3c-0.1-0.3-0.2-0.6-0.2-0.9
		c-0.1-0.6-0.2-1.2-0.4-1.9c-0.1-0.5-0.3-0.6-1-0.7c0,0.8,0.3,1.6,0.1,2.4c-0.1-0.4-0.2-0.9-0.3-1.3c-0.1-0.4-0.1-0.8-0.3-1.2
		c-0.1-0.5-0.5-0.8-1.1-0.9c0,0.2,0,0.4,0,0.6c0,0.2,0,0.4,0,0.5c0,0.2,0,0.4,0.1,0.6c0,0.1,0.2,0.3-0.1,0.5c0-0.2-0.1-0.4-0.1-0.6
		c-0.1-0.5-0.1-1.1-0.3-1.6c0-0.2-0.2-0.5-0.3-0.6c-0.2-0.2-0.5-0.4-1-0.5c-0.1,0.8,0.3,1.6,0.1,2.4c-0.1-0.1-0.1-0.2-0.1-0.3
		c-0.1-0.6-0.3-1.3-0.4-1.9c-0.2-0.7-0.5-1-1.5-1.2c0,0.3,0.1,0.6,0.1,0.9c0,0.3,0.1,0.6-0.1,1c-0.1-0.2-0.1-0.3-0.1-0.4
		c-0.1-0.5-0.2-1.1-0.3-1.6c-0.1-0.4-0.4-0.6-0.8-0.6c-0.1,0.7,0.3,1.4,0.1,2.2c-0.2-0.8-0.4-1.4-0.5-2.1c-0.1-0.5-0.5-0.8-1-0.8
		c0,0.7,0.2,1.4,0.1,2.2c-0.2-0.8-0.4-1.7-0.6-2.5c-0.3-0.2-0.6-0.4-1-0.3c0,0.3,0,0.5,0,0.7c0,0.2,0.2,0.5,0,0.9
		c-0.2-0.6-0.3-1.1-0.4-1.6c-0.1-0.4-0.4-0.7-0.9-0.7c-0.2,0.4,0.1,0.9-0.1,1.4c-0.2-0.7-0.4-1.2-0.6-1.8c-0.3-0.1-0.6-0.3-0.8-0.2
		c-0.2,0.4,0.3,0.8,0,1.3c-0.2-0.4-0.3-0.8-0.4-1.2c-0.1-0.4-0.4-0.5-0.8-0.5c0,0.2,0.1,0.4,0.1,0.6c0,0.2,0.2,0.4-0.1,0.6
		c-0.2-0.4-0.3-0.8-0.5-1.1c-0.1-0.3-0.4-0.4-0.8-0.4c0,0.3,0,0.5,0,1c-0.3-0.5-0.4-0.8-0.6-1.1c-0.1-0.2-0.3-0.3-0.6-0.1
		c0,0.2,0,0.4,0,0.7c-0.2-0.4-0.4-0.7-0.5-0.9c-0.2-0.2-0.4-0.2-0.6,0.1c0,0-0.1,0.1-0.2,0.1c-0.2-0.4-0.4-0.7-1-0.6
		c0,0.2-0.1,0.3-0.1,0.6c-0.2-0.3-0.3-0.5-0.5-0.8c-1.4-0.3-2.9-0.5-4.4-0.6c-2.1-0.1-4.2,0-6.3,0.4c-1.7,0.3-3.5,0.7-5.1,1.4
		c-0.2,0.1-0.5,0.2-0.7,0.3c-0.3,0.1,0.1,0.3-0.1,0.5c-0.5-0.2-1-0.1-1.4,0.3c0.3,0.1,0.5,0.2,0.8,0.3c-0.4,0.1-0.7,0-1.1,0
		c-0.4,0-0.5,0-0.9,0.5c0.1,0.2,0.5,0.1,0.6,0.3c-1.6,0-1.6,0-2.1,0.6c0.4,0.1,0.7,0.2,1,0.2c-0.1,0.1-0.2,0.1-0.3,0.1
		c-0.4,0-0.7,0-1.1,0c-0.5,0-0.8,0.2-1,0.7c0.4,0.1,0.9,0,1.2,0.4c-0.5,0-0.9-0.1-1.4-0.1c-0.5,0-0.9,0.2-1.2,0.7
		c0.3,0,0.6,0.1,0.8,0.1c0.2,0,0.5,0,0.7,0.3c-0.6,0-1.1,0-1.7,0c-0.5,0-0.8,0.2-1,0.7c0.6,0.1,1.2,0,1.9,0.4c-0.9,0-1.7,0-2.4,0.1
		c-0.2,0.2-0.3,0.5-0.5,0.8c1,0.1,1.9-0.1,2.7,0.2c-0.4,0-0.7,0-1.1,0c-0.5,0-1.1,0-1.6,0.1c-0.5,0.1-0.5,0.2-0.6,0.8
		c0.7,0.1,1.4,0,2.2,0.2C92.1,43,91.7,43,91.3,43c-0.3,0-0.6,0-1,0c-0.5,0.1-0.6,0.2-0.7,0.8c0.8,0.1,1.7-0.1,2.6,0.3
		c-0.4,0-0.8,0-1.1,0c-0.6,0-1.2,0.1-1.7,0.1c-0.3,0-0.4,0.1-0.4,0.6c0.4,0,0.8,0,1.1,0c0.4,0,0.8-0.1,1.1,0.2
		c-0.8,0.1-1.7,0-2.5,0.3c0.2,0.3,0.4,0.5,0.8,0.4c0.6-0.2,1.3-0.1,2.1,0c-0.4,0.2-0.7,0.1-1,0.2c-0.3,0.1-0.6,0-1,0.2
		c0.1,0.1,0.2,0.2,0.4,0.3c0.1,0.1,0.3,0.2,0.4,0.3c0.3,0,0.6,0,0.9,0c0.3,0,0.6,0,1,0c-0.4,0.3-0.9,0.2-1.2,0.4
		c0.6,0.6,2,1.7,2.7,2c0.1-0.3,0.3-0.6,0.4-0.9c0.4-0.7,0.7-1.4,1.2-2.1c0.9-1.3,2-2.5,3.2-3.5c1.6-1.3,3.4-2.3,5.5-2.8
		c0.7-0.1,1.3-0.2,2-0.3c0,0,0,0-0.1,0.1c-0.4,0.2-0.8,0.2-1.3,0.3c-1.8,0.4-3.4,1.1-4.9,2.3c-1.6,1.3-3,2.7-4.1,4.4
		c-0.6,0.9-1,1.9-1.4,3c0.1,0.1,0.2,0.1,0.3,0.2c2.5,1.9,5.1,3.8,7.6,5.7c0.1,0.1,0.3,0.1,0.4,0.2c0.6-0.5,0.6-1.2,1.1-1.8
		c0,0.7-0.1,1.3-0.4,1.8c-0.5,0.8-1.1,1.6-1.9,2.2c-0.8,0.6-1.6,1.3-2.4,1.9c-0.9,0.7-1.4,1.7-1.7,2.8c-0.1,0.4-0.1,0.8-0.2,1.2
		c0,0.2-0.1,0.4-0.3,0.6c0-0.8,0.2-1.4,0.2-2.1c-3.4-2.5-6.7-4.9-10-7.4c0,0-0.1,0-0.2,0c-0.2,0.5-0.1,0.8,0.3,1.2
		c1.2,1.1,2.4,2.1,3.7,3.1c0.2,0.2,0.5,0.4,0.7,0.6c0,0,0,0-0.2,0c-1.6-1-3-2.2-4.4-3.3c-0.2,0.5,0,0.8,0.3,1.1
		c1.2,1.2,2.6,2.2,3.9,3.2c0.1,0.1,0.3,0.1,0.3,0.4c-0.4-0.2-0.8-0.4-1.1-0.7c-0.4-0.2-0.7-0.5-1.1-0.8c-0.4-0.3-0.7-0.5-1.1-0.8
		c-0.3-0.3-0.7-0.5-1-0.8c0,0.1-0.1,0.2-0.1,0.2c0.2,0.8,0.3,1.5,0.5,2.3c0,0.2,0.2,0.3,0.3,0.4c0.6,0.7,1.4,1.2,2.1,1.7
		C90.2,62.9,90.4,63,90.4,63.2z M86.4,103.5c0,0,0,0,0.1,0c0.3,0.3,0.4,0.8,0.8,1c0.3-0.1,0.3-0.3,0.2-0.5c-0.1-0.4-0.3-0.7-0.3-1.2
		c0.4,0.3,0.5,0.8,0.8,1.1c0.7-0.2,0-0.7,0.3-1.1c0.2,0.2,0.3,0.3,0.5,0.5c0.2-0.1,0.3-0.2,0.4-0.2c4.4-3.3,8.8-6.6,13.2-9.9
		c0,0,0,0,0.1-0.1c0,0,0-0.1,0-0.1c-0.3-0.5-0.7-0.9-1.3-1.2c-0.3,0.2-0.5,0.3-0.7,0.5c-0.2,0.2-0.5,0.3-0.7,0.5
		c-0.3,0.2-0.5,0.4-0.8,0.6c-0.2,0.2-0.4,0.3-0.7,0.5c-0.2,0.2-0.4,0.3-0.7,0.5c-0.2,0.2-0.4,0.3-0.7,0.5c-0.2,0.2-0.5,0.4-0.7,0.6
		c-0.2,0.2-0.4,0.4-0.9,0.5c0.3-0.3,0.5-0.5,0.7-0.7c1.3-1.1,2.7-2.2,4-3.3c0.2-0.2,0.5-0.3,0.6-0.6c-0.8-0.7-1.7-1.5-2.5-2.3
		c-0.4,0.1-0.7,0.3-1,0.6c-1,0.7-1.9,1.4-2.9,2.1c-0.1,0.1-0.2,0.2-0.4,0c0.7-0.5,1.3-1.1,2-1.6c0.7-0.6,1.4-1,2-1.7
		c-0.3-0.4-0.3-0.8-0.7-1.1c-0.5,0.4-0.9,0.7-1.4,1c-0.5,0.3-0.9,0.7-1.4,1s-0.9,0.7-1.4,1c-0.5,0.3-0.9,0.7-1.4,1
		c-0.5,0.3-0.9,0.7-1.4,1c-0.5,0.3-0.9,0.7-1.4,1c-0.5,0.3-0.9,0.7-1.4,1c-0.5,0.3-0.9,0.7-1.4,1c-0.5,0.3-0.9,0.7-1.4,1
		c-0.5,0.3-0.8,0.7-1.3,1.1c0.1,0.1,0.2,0.2,0.2,0.3c0.1,0.1,0.3,0.2,0.1,0.4c-0.3-0.1-0.6-0.3-0.9-0.4c-0.1,0.1-0.3,0.2-0.3,0.3
		c0,0.3,0.4,0.4,0.4,0.8c-0.3-0.2-0.6-0.3-0.9-0.5c-0.1,0.1-0.2,0.2-0.4,0.4c0.3,0.3,0.6,0.5,0.9,0.8c-0.2,0.1-0.3,0-0.4,0
		c-0.3-0.1-0.5-0.3-0.7-0.4c-0.2-0.1-0.3-0.1-0.4,0.3c0.2,0.2,0.5,0.4,0.7,0.6c0.2,0.2,0.6,0.2,0.7,0.6c-0.2-0.1-0.4-0.2-0.6-0.3
		c-0.4-0.2-0.7-0.5-1.1-0.7c-0.1-0.1-0.2,0-0.3,0.2c0.9,0.8,1.8,1.5,2.9,2.1c0.3-0.2,0.5-0.3,0.7-0.5c2.4-1.7,4.8-3.5,7.1-5.2
		c1.7-1.2,3.4-2.5,5.1-3.7c0.1-0.1,0.3-0.3,0.5-0.1c-0.3,0.2-0.6,0.5-0.9,0.7c-3.9,2.9-7.7,5.8-11.6,8.7c-0.3,0.2-0.6,0.4-0.8,0.7
		c0.3,1,0.7,2,1.4,2.9c0.1,0.1,0.2,0.2,0.3,0.1c0.1,0,0.1-0.2,0.1-0.2c-0.1-0.3-0.2-0.5-0.3-0.8c-0.1-0.4-0.2-0.7-0.4-1.1
		c0,0,0.1,0,0.1-0.1c0.3,0.6,0.7,1.1,1.1,1.7c0.2-0.1,0.3-0.2,0.5-0.4c-0.1-0.3-0.2-0.6-0.3-0.9C86.4,103.9,86.4,103.7,86.4,103.5
		L86.4,103.5z M157.2,98.5c0,0,0,0-0.1,0c-0.3-0.2-0.7-0.4-1-0.6c-1.1-0.8-2.2-1.5-3.4-2.3c-0.3-0.2-0.5-0.3-0.8-0.5
		c-0.4,0.4-0.7,0.7-0.9,1.1c0.8,0.8,27.1,20.4,32,23.8c0.1,0.1,0.2,0.1,0.5,0.3c-0.1-0.4-0.2-0.6-0.3-0.7c-0.8-1.7-1.6-3.5-2.4-5.2
		c-0.2-0.4-0.5-0.8-0.9-1c-8.6-6.3-17.2-12.7-25.8-19c-0.3-0.2-0.5-0.4-0.8-0.6c-0.4,0.3-0.7,0.6-0.9,1.1c0.2,0.2,0.4,0.3,0.5,0.4
		c1.3,1,2.6,1.9,3.9,2.9C156.9,98.2,157.1,98.2,157.2,98.5L157.2,98.5z M157.3,51c-0.2,0.2-0.4,0.4-0.7,0.5c-1.3,1-2.6,2-3.9,2.9
		c-0.2,0.1-0.3,0.3-0.5,0.4c0.3,0.4,0.5,0.7,1,0.9c0.3-0.2,0.5-0.4,0.8-0.6c3.7-2.7,7.4-5.5,11.2-8.2c4.9-3.6,9.7-7.2,14.6-10.8
		c0.4-0.3,0.7-0.5,0.8-1c0.8-1.8,1.7-3.6,2.6-5.5c0.1-0.1,0.1-0.3,0.1-0.4c-0.8,0.5-30,22-32,23.6c-0.1,0.1-0.2,0.2-0.3,0.3
		c0.3,0.4,0.6,0.7,1,1c0.3-0.2,0.5-0.4,0.8-0.5c0.8-0.5,1.5-1.1,2.3-1.6c0.7-0.5,1.5-0.9,2.2-1.4C157.3,50.9,157.3,50.8,157.3,51
		L157.3,51z M60.2,120.5c0,0,0,0,0.1,0c0.6,0.5,1.2,1.1,1.8,1.6c0.1,0.1,0.2,0.2,0.4,0c-0.2-0.3-0.5-0.5-0.7-0.8
		c-0.2-0.3-0.5-0.6-0.7-1c0.5,0.3,0.7,0.6,0.9,0.8c0.3,0.3,0.6,0.6,1,0.8c0.2-0.1,0.3-0.2,0.4-0.3c-0.3-0.5-0.8-0.9-0.9-1.5
		c0.2,0.1,0.3,0.2,0.4,0.3c0.3,0.2,0.5,0.5,0.8,0.7c0.1,0.1,0.3,0.2,0.4,0c0.1-0.1,0-0.2,0-0.3c-0.2-0.3-0.4-0.5-0.6-0.8
		c-0.1-0.1-0.3-0.2-0.1-0.5c0.4,0.3,0.7,0.6,1.1,0.9c0.3,0.2,0.3,0.2,0.7-0.1c-0.2-0.2-0.3-0.4-0.5-0.6c-0.2-0.2-0.4-0.4-0.4-0.8
		c0.5,0.4,0.8,0.7,1.2,1c0.2,0.1,0.4,0.1,0.4-0.2c-0.2-0.3-0.4-0.6-0.7-0.9c0-0.1,0-0.2-0.1-0.4c0.4,0.3,0.7,0.6,1,0.9
		c0.2,0.2,0.3,0,0.4-0.2c-0.1-0.2-0.3-0.4-0.4-0.6c-0.1-0.2-0.3-0.4-0.3-0.8c0.3,0.3,0.6,0.6,0.9,0.9c0.3,0.3,0.4,0.2,0.7-0.2
		c-0.2-0.3-0.5-0.6-0.7-1c-0.1-0.1,0-0.2,0-0.4c0.5,0.3,0.8,0.8,1.3,1c0.1-0.1,0.2-0.3,0.4-0.4c-0.3-0.3-0.5-0.5-0.7-0.8
		c-0.1-0.1-0.2-0.2,0-0.3c0.3,0.2,0.7,0.5,1.1,0.8c0.1-0.1,0.2-0.2,0.3-0.3c-0.2-0.4-0.7-0.6-0.7-1.2c0.3,0.2,0.5,0.4,0.7,0.6
		c0.1,0.1,0.1,0.1,0.2,0.2c0.1,0,0.2,0,0.3,0c0.1,0,0.1-0.2,0.1-0.2c-0.1-0.3-0.5-0.4-0.4-0.8c0.3,0.2,0.6,0.4,0.8,0.5
		c0.2-0.1,0.3-0.2,0.2-0.4c-0.1-0.2-0.3-0.3-0.3-0.6c0.3,0.2,0.6,0.3,0.9,0.4c0-0.1,0.1-0.3,0-0.3c-0.1-0.2-0.4-0.3-0.2-0.6
		c0.2,0.1,0.3,0.2,0.5,0.3c0.2,0.1,0.3,0,0.4-0.1c0-0.3-0.4-0.4-0.3-0.8c0.3,0.2,0.5,0.3,0.8,0.4c0.1-0.1,0.2-0.2,0.3-0.3
		c-0.2-0.2-0.3-0.4-0.4-0.6c-0.1-0.1-0.1-0.2,0-0.3c0.2,0.2,0.4,0.3,0.7,0.5c0.1,0.1,0.3,0.1,0.4-0.1c0-0.3-0.4-0.4-0.3-0.8
		c0.3,0.2,0.5,0.4,0.7,0.5c0.2-0.1,0.3-0.2,0.4-0.3c-0.1-0.3-0.5-0.5-0.4-0.9c0.3,0.2,0.6,0.4,0.9,0.6c0.1-0.1,0.2-0.2,0.3-0.3
		c-0.2-0.2-0.3-0.4-0.4-0.5c-0.1-0.1-0.2-0.2,0-0.3c0.3,0.2,0.5,0.3,0.8,0.5c0.2,0.1,0.3,0,0.4-0.2c-0.2-0.2-0.3-0.4-0.5-0.6
		c-0.1-0.1-0.1-0.2-0.1-0.4c0.4,0.3,0.7,0.5,1.1,0.7c0.2,0.1,0.4,0.1,0.4-0.2c-0.3-0.4-0.7-0.8-1-1.2c-0.1-0.1-0.1-0.2,0-0.3
		c0.4,0.3,0.8,0.7,1.2,1c0.4,0.3,0.4,0.3,1-0.1c-0.1-0.2-0.3-0.3-0.4-0.5c-0.3-0.4-0.7-0.8-1-1.2c0,0,0-0.1,0-0.3
		c0.7,0.6,1.3,1.3,2.1,1.8c0.2-0.1,0.4-0.2,0.6-0.3c0-0.1,0-0.2-0.1-0.2c-0.7-0.6-1.4-1.3-2-2.1c-0.1-0.1-0.2-0.2-0.3-0.3
		c-0.7-0.6-1.3-1.3-1.8-2.1c0,0-0.1,0-0.2-0.1c-0.1,0.1-0.2,0.3-0.4,0.4c0.1,0.3,0.2,0.5,0.4,0.7c0.1,0.2,0.3,0.5,0.5,0.7
		c0.1,0.2,0.4,0.4,0.5,0.9c-0.8-0.6-1.2-1.2-1.7-1.9c-0.1,0.1-0.3,0.2-0.4,0.3c0.1,0.7,0.8,1.1,0.8,1.9c-0.4-0.1-0.5-0.4-0.7-0.7
		c-0.2-0.2-0.3-0.6-0.7-0.9c0,0.2-0.1,0.3-0.1,0.4c0.2,0.3,0.4,0.6,0.5,1c0,0.1,0,0.2,0.1,0.5c-0.4-0.5-0.7-0.9-1-1.2
		c-0.3,0.1-0.4,0.3-0.3,0.5c0.1,0.1,0.2,0.3,0.2,0.4c0.1,0.1,0.2,0.2,0.1,0.4c-0.4-0.1-0.4-0.6-0.9-0.7c-0.2,0.5,0.4,0.8,0.3,1.3
		c-0.3-0.3-0.5-0.6-0.8-0.8c-0.3,0.4,0.3,0.6,0.1,1c-0.2-0.2-0.4-0.4-0.6-0.5c-0.3,0.1-0.4,0.2-0.3,0.4c0.1,0.2,0.2,0.4,0.3,0.6
		c-0.2,0-0.3-0.1-0.4-0.2c-0.1-0.1-0.2-0.2-0.3-0.3c0,0-0.1,0-0.2,0c0,0-0.1,0.1-0.1,0.2c0.1,0.2,0.2,0.3,0.2,0.5
		c0,0.1,0.1,0.2,0.2,0.5c-0.4-0.4-0.6-0.6-0.9-0.9c-0.1,0.1-0.2,0.2-0.3,0.3c0,0.3,0.3,0.5,0.3,0.9c-0.3-0.3-0.5-0.5-0.8-0.7
		c-0.1,0.2-0.2,0.3-0.2,0.4c0,0.2,0.3,0.4,0.2,0.7c-0.3-0.1-0.4-0.5-0.8-0.5c-0.3,0.5,0.4,0.7,0.2,1.2c-0.3-0.3-0.5-0.6-0.8-0.9
		c-0.1,0.1-0.2,0.2-0.2,0.4c0,0.1,0.1,0.3,0.2,0.4c0.1,0.2,0.3,0.4,0.2,0.8c-0.3-0.4-0.6-0.8-0.9-1.1c-0.3,0.3-0.4,0.3-0.3,0.4
		c0.1,0.3,0.3,0.5,0.4,0.8c0.1,0.1,0.2,0.2,0,0.3c-0.5-0.2-0.5-0.7-0.9-1.1c-0.1,0.1-0.2,0.3-0.2,0.3c0.2,0.4,0.4,0.7,0.6,1.1
		c0.1,0.1,0.3,0.2,0.1,0.4c-0.5-0.4-0.8-0.9-1.1-1.4c-0.4,0.2-0.4,0.2-0.7,0.5c0.3,0.5,0.6,1.1,0.9,1.6c-0.7-0.3-0.9-1-1.4-1.5
		c-0.2,0.1-0.3,0.2-0.4,0.3c0.2,0.6,0.5,1.1,0.7,1.7c-0.6-0.3-0.7-1-1.1-1.4c-0.4,0.2-0.4,0.2-0.3,0.5c0.1,0.3,0.3,0.6,0.4,0.9
		c0,0.1,0,0.2,0.1,0.4c-0.6-0.3-0.5-0.9-1.1-1.3c0,0.2-0.1,0.4,0,0.5c0.2,0.4,0.4,0.8,0.6,1.1c0.1,0.1,0.2,0.2,0,0.4
		c-0.3-0.5-0.7-1-1.1-1.6c-0.1,0.1-0.2,0.3-0.2,0.3c0.1,0.3,0.3,0.7,0.4,1c0,0.1,0,0.2,0.1,0.3c0,0-0.1,0-0.1,0
		c-0.3-0.4-0.6-0.8-0.8-1.1c-0.2,0.1-0.3,0.2-0.3,0.4c0.2,0.5,0.5,0.9,0.7,1.4c0.1,0.1,0.3,0.3,0.2,0.5c-0.6-0.4-0.9-1.2-1.3-1.8
		c-0.1,0.1-0.3,0.2-0.4,0.3c0.1,0.2,0.1,0.4,0.2,0.5c0.1,0.2,0.2,0.3,0.3,0.5c0.1,0.2,0.2,0.3,0.3,0.5c0.1,0.1,0.3,0.2,0.2,0.5
		c-0.4-0.1-0.5-0.5-0.7-0.7c-0.2-0.3-0.4-0.6-0.8-0.8c-0.2,0.1-0.4,0.2-0.2,0.4c0.3,0.5,0.6,0.9,0.9,1.4c0.1,0.1,0.3,0.3,0.1,0.5
		c-0.7-0.5-1-1.2-1.5-1.8c-0.4,0.2-0.5,0.4-0.3,0.7c0.4,0.6,0.8,1.1,1.2,1.7c0.1,0.1,0.1,0.2-0.1,0.3c-0.2-0.2-0.5-0.5-0.7-0.7
		c-0.3-0.4-0.6-0.7-0.9-1.1c0,0-0.1-0.1-0.2-0.1c-0.1,0.1-0.3,0.3-0.4,0.4c0.7,1.7,2.8,4.1,4.3,4.9c0.1-0.1,0.2-0.1,0.4-0.3
		c-0.2-0.2-0.5-0.5-0.7-0.7C60.9,121.5,60.4,121.1,60.2,120.5L60.2,120.5z M68,77.8c0,0.3,0.1,0.5,0.4,0.8c0-0.3-0.1-0.6-0.3-0.9
		c0,0-0.1,0-0.1-0.2c0-0.2-0.1-0.4-0.2-0.7c0-0.1-0.1-0.2-0.1-0.3c-0.2-0.6-0.8-1.2-0.6-1.9c0.1-0.7,0.5-1.3,0.7-1.9
		c0-0.1,0.1-0.1,0.1-0.3c0-0.2,0-0.4,0.2-0.6c0-0.3,0.3-0.6,0.1-1c-0.1,0.3-0.1,0.7-0.3,1.1c0,0.2,0,0.4-0.1,0.6
		c-0.1-0.1-0.2-0.1-0.3-0.2c0-0.3,0.1-0.5,0.1-0.7c0-0.2,0.2-0.4,0-0.7c-1.2,1.7-1.2,5.9,0,7.6c0.1-0.6-0.2-1-0.1-1.5
		c0.2,0,0.3,0,0.3,0.1C67.9,77.3,67.9,77.5,68,77.8L68,77.8z M88.7,43.1c0.2-0.3,0.4-0.6,0.5-0.8c1.1-2,2.6-3.6,4.6-4.8
		c1.5-1,3.1-2,4.7-2.9c1.9-1.1,4-1.7,6.1-2.1c2.9-0.6,5.8-0.7,8.7-0.5c3,0.2,5.9,0.9,8.7,1.8c0.3,0.1,0.6,0.1,0.8,0.2
		c2.9,1.2,5.9,2.2,8.7,3.8c1.3,0.7,2.5,1.5,3.7,2.3c2.1,1.4,4.1,3,6,4.6c1.9,1.6,3.8,3.2,5.6,4.8c0.2,0.2,0.4,0.4,0.6,0.5
		c0.4,0,0.7-0.3,0.9-0.5c3.1-2.3,6.1-4.5,9.2-6.8c5.8-4.3,11.5-8.5,17.3-12.8c0.4-0.3,0.9-0.6,1.4-0.7c2.4-0.3,4.7-0.7,7.1-1
		c0.3,0,0.6-0.1,0.8,0.2c0,0.2-0.1,0.4-0.2,0.5c-0.9,2-1.9,3.9-2.7,5.9c-0.4,0.8-0.9,1.4-1.6,1.9c-8.5,6.2-17,12.5-25.4,18.8
		c-0.3,0.2-0.5,0.4-0.8,0.6c0.1,0.1,0.1,0.3,0.2,0.4c3.7,4,7,8.4,10.4,12.6c0.3,0.3,0.5,0.6,0.8,0.9c0.2,0.2,0.4,0.3,0.6,0.3
		c0.3,0,0.6,0,1,0c6.9,0,13.8,0.1,20.7,0.1c2.1,0,4.2,0,6.3,0c0.6,0,1.1,0.1,1.7,0.4c2.2,1.1,4.3,2.1,6.5,3.2
		c0.3,0.1,0.5,0.3,0.7,0.4c0.1,0.3-0.2,0.4-0.4,0.5c-1.1,0.6-2.3,1.1-3.4,1.7c-1.1,0.6-2.3,1.1-3.4,1.7c-0.4,0.2-0.9,0.3-1.4,0.3
		c-2.7,0-5.4,0-8,0.1c-6.5,0-13,0.1-19.5,0.1c-0.1,0-0.3,0-0.4,0c-0.4,0-0.7,0.1-1,0.5c-0.9,1.2-1.9,2.4-2.8,3.6
		c-2.6,3.3-5.3,6.6-8.1,9.8c-0.1,0.1-0.2,0.3-0.4,0.5c0.3,0.2,0.5,0.4,0.7,0.6c5.9,4.4,11.9,8.8,17.8,13.2c2.7,2,5.4,4,8.1,5.9
		c0.5,0.3,0.8,0.7,1,1.3c0.9,2,1.8,4,2.8,6c0.1,0.3,0.3,0.5,0.3,0.8c-0.1,0.2-0.4,0.3-0.6,0.2c-0.5-0.1-1-0.1-1.4-0.2
		c-1.9-0.3-3.9-0.6-5.8-0.8c-0.5-0.1-1-0.3-1.4-0.6c-5.9-4.4-11.7-8.7-17.6-13c-3-2.2-6-4.4-9-6.7c-0.2-0.2-0.5-0.3-0.8-0.5
		c-0.2,0.2-0.5,0.4-0.7,0.5c-2.6,2.2-5.2,4.5-7.9,6.7c-4.3,3.6-9.2,6.3-14.6,8.2c-0.2,0.1-0.4,0.1-0.6,0.2c-0.4,0.2-0.7,0.4-1.1,0.5
		c-2.2,0.6-4.4,1.4-6.7,1.7c-2.9,0.4-5.8,0.6-8.8,0.2c-3.7-0.5-7.1-1.4-10.2-3.3c-0.9-0.5-1.7-1.1-2.6-1.6c-2.2-1.4-4.1-3.2-5.3-5.4
		c-0.4-0.7-0.9-1.4-1.3-2.1c-0.7,0.4-1.3,0.9-1.9,1.4c0.5,0.7,1,1.3,1.6,1.9c0.5,0.6,1.1,1.1,1.7,1.6c0.6,0.5,1.2,1.1,1.9,1.6
		c0.6,0.5,1.4,0.8,1.9,1.3c-0.1,0.1-0.1,0.2-0.2,0.3c-1.2,0.6-2.4,1.3-3.6,1.9c-0.2,0.1-0.4,0.1-0.6,0.2c-0.1-0.2-0.3-0.3-0.3-0.4
		c-1.3-2.1-3.2-3.6-5.1-5.1c-0.3-0.2-0.6-0.3-0.9-0.2c-0.7,0.2-1.4,0.3-2.1,0.6c-2.5,1-4.7,2.3-6.8,3.9c-0.8,0.6-1.5,1.2-2.2,1.9
		c-1.3,1.2-2.6,2.4-3.9,3.6c-1.1,0.9-2.2,1.8-3.3,2.6c-1.2,0.9-2.6,1.6-4.2,2c0,0.8,0,1.6-0.9,2c-0.7-0.1-1.1-0.6-1.7-1
		c-0.2,0.1-0.5,0.3-0.7,0.4c-0.5,0.3-1,0.3-1.5,0.1c-1.5-0.4-2.2-1.9-1.6-3.2c0.2-0.4,0.5-0.7,0.7-1.1c-0.1-0.3-0.2-0.7-0.3-1
		c-0.1-0.3,0-0.5,0.3-0.7c0.3-0.2,0.6-0.3,1-0.3c0.2,0,0.4,0,0.7,0.1c0.3-0.4,0.5-0.8,0.8-1.2c0.7-0.9,1.5-1.6,2.4-2.3
		c1.7-1.3,3.5-2.5,5.3-3.6c1.1-0.6,2.2-1.3,3.3-1.9c1.9-1.1,3.7-2.5,5.3-3.9c1.5-1.3,2.7-2.9,3.7-4.6c-0.3-0.8-0.8-1.6-1.3-2.3
		c-0.5-0.8-1-1.6-1.5-2.3c-0.5-0.7-1.2-1.3-1.8-2c0.4-0.7,1.1-1.3,1.7-1.9c0.6-0.6,1.1-1.3,1.8-1.8c0.4,0.7,0.5,1.5,0.8,2.2
		c0.4,0.7,0.7,1.4,1.1,2.1c0.4,0.7,0.9,1.3,1.5,1.9c0.5,0.6,1.1,1.2,1.7,1.7c0.7-0.4,5-3.6,5.8-4.3c0-5.7,1.5-11.2,4.4-16.3
		c-0.3,0-0.5,0-0.7,0c-5.4,0-10.9,0.1-16.3,0.2c-0.3,0.7-0.2,1.3-0.2,1.9c0,0.6,0,1.2,0.1,1.8c0.1,0.6,0.1,1.3,0.2,1.9
		c0.1,0.6,0.3,1.2,0.4,1.8c0.2,0.6,0.4,1.2,0.6,1.8c-0.1,0.2-0.3,0.2-0.5,0.2c-1-0.2-2.1-0.4-3.1-0.5c-0.3-0.1-0.7-0.1-1-0.2
		c-0.5-0.1-0.6-0.3-0.5-0.7c0.2-2.3,0-4.6-0.5-6.9c-0.1-0.4-0.3-0.6-0.7-0.8c-1.8-0.6-3.6-1.1-5.5-1.3c-1.7-0.2-3.3-0.2-5-0.1
		c-1,0.1-1.9,0.1-2.9,0.2c-1.7,0.2-3.4,0.3-5.1,0.5c-2.4,0.2-4.8,0.1-7.1-0.4c-0.7-0.1-1.3-0.3-1.9-0.5c-0.7,1.2-0.9,1.3-2.2,0.9
		c-0.1-0.2-0.2-0.4-0.2-0.6c-0.1-0.2-0.1-0.4-0.2-0.7c-0.2-0.1-0.4-0.2-0.7-0.3c-0.4-0.2-0.8-0.5-1.1-0.8c-0.3-0.3-0.4-0.7-0.5-1.2
		c-0.1-1.3,0.5-2.1,1.6-2.6c0.2-0.1,0.4-0.2,0.6-0.3c0.1-0.3,0.2-0.6,0.3-1c0.1-0.3,0.3-0.5,0.7-0.5c0.7-0.1,1,0.1,1.4,0.7
		c0.1,0.1,0.1,0.3,0.2,0.4c0.1,0,0.1,0,0.2,0c3.2-1.1,6.4-1.1,9.7-0.8c1.8,0.2,3.5,0.4,5.3,0.5c2.1,0.1,4.2,0.3,6.4,0.1
		c2.1-0.2,4.1-0.6,6.1-1.3c0.4-0.1,0.6-0.3,0.7-0.7c0.5-2.3,0.7-4.6,0.5-6.9c0-0.5,0.1-0.7,0.6-0.8c1.4-0.2,2.7-0.5,4.1-0.7
		c0.1,0,0.2,0,0.3,0c0.1,0,0.1,0.1,0.2,0.2c-1.2,2.9-1.5,5.9-1.3,9.1c0.3,0,0.5,0.1,0.8,0.1c1,0,2,0,3,0c4.1,0,8.3,0.1,12.4,0.1
		c0.3,0,0.6,0,1,0c-0.4-0.9-1-1.7-1.3-2.6c-0.4-0.9-0.7-1.7-1.1-2.6c-0.3-0.9-0.6-1.8-0.9-2.8c-0.2-0.9-0.5-1.8-0.6-2.7
		c-0.2-0.9-0.3-1.8-0.4-2.8c-0.1-0.9-0.1-1.9-0.1-2.8c-0.6-0.6-5.1-3.9-5.8-4.3c-0.7,0.5-1.2,1.1-1.7,1.7c-0.5,0.6-1,1.2-1.5,1.9
		c-0.4,0.7-0.8,1.4-1.1,2.1c-0.4,0.7-0.5,1.5-0.8,2.2c-0.1-0.1-0.3-0.1-0.3-0.2c-1-1.1-2.1-2.2-3.1-3.2c-0.1-0.1-0.1-0.2-0.1-0.2
		c0.6-0.7,1.3-1.3,1.8-2c0.6-0.7,1-1.5,1.5-2.2c0.5-0.8,0.9-1.5,1.3-2.3c-0.5-1-1.1-1.9-1.9-2.8c-0.7-0.7-1.4-1.5-2.1-2.1
		c-1.9-1.7-4.1-3.2-6.3-4.5c-1.7-1-3.5-2-5.1-3.1c-0.6-0.4-1.1-0.8-1.7-1.2c-1.5-1.1-2.9-2.3-3.7-4c-0.2,0-0.4,0.1-0.6,0.1
		c-0.4,0-0.8-0.1-1.2-0.3c-0.2-0.2-0.3-0.4-0.3-0.6c0.1-0.3,0.2-0.7,0.3-1.1c-0.2-0.3-0.4-0.6-0.6-0.9c-0.6-1-0.4-2.1,0.5-2.9
		c0.8-0.7,1.7-0.7,2.7-0.2c0.1,0.1,0.3,0.2,0.4,0.3c0.6-0.3,1.1-0.9,1.9-1c0.8,0.4,1,1.1,0.8,1.9c0.1,0.1,0.2,0.1,0.3,0.2
		c1.6,0.5,3.1,1.3,4.4,2.2c1.5,1.1,2.8,2.2,4.1,3.4c1.5,1.4,2.9,2.7,4.4,4c2.1,1.8,4.5,3.3,7.2,4.3c0.6,0.3,1.3,0.4,2,0.6
		c0.5,0.1,0.9,0,1.3-0.3c2-1.5,3.8-3.1,5.1-5.2c0,0,0.1-0.1,0.2-0.2c0.1,0,0.3,0,0.5,0.1c1.2,0.6,2.4,1.2,3.6,1.9
		c0.1,0.1,0.2,0.2,0.3,0.2c-0.1,0.3-0.4,0.4-0.6,0.6c-2.5,1.5-4.5,3.6-6.3,5.8c0.3,0.5,1,1,1.9,1.5C88.1,44.1,88.4,43.6,88.7,43.1
		L88.7,43.1z M40.9,9.9V9.5h67.6v0.4H40.9z M40.9,140.8v-0.4h67.6v0.4H40.9z M127.8,9.9V9.5h67.6v0.4H127.8z M127.8,140.8v-0.4h67.6
		v0.4H127.8z M7,9.1c-0.3,0-0.6-0.3-0.6-0.6S6.6,7.9,7,7.9c0.3,0,0.6,0.3,0.6,0.6S7.3,9.1,7,9.1z M7,12.6c-0.3,0-0.6-0.3-0.6-0.6
		s0.3-0.6,0.6-0.6c0.3,0,0.6,0.3,0.6,0.6S7.3,12.6,7,12.6z M7,16.1c-0.3,0-0.6-0.3-0.6-0.6c0-0.3,0.3-0.6,0.6-0.6
		c0.3,0,0.6,0.3,0.6,0.6C7.6,15.8,7.3,16.1,7,16.1z M7,19.6c-0.3,0-0.6-0.3-0.6-0.6c0-0.3,0.3-0.6,0.6-0.6c0.3,0,0.6,0.3,0.6,0.6
		C7.6,19.3,7.3,19.6,7,19.6z M7,23.1c-0.3,0-0.6-0.3-0.6-0.6c0-0.3,0.3-0.6,0.6-0.6c0.3,0,0.6,0.3,0.6,0.6C7.6,22.8,7.3,23.1,7,23.1
		z M7,26.6c-0.3,0-0.6-0.3-0.6-0.6c0-0.3,0.3-0.6,0.6-0.6c0.3,0,0.6,0.3,0.6,0.6C7.6,26.3,7.3,26.6,7,26.6z M7,30.1
		c-0.3,0-0.6-0.3-0.6-0.6c0-0.3,0.3-0.6,0.6-0.6c0.3,0,0.6,0.3,0.6,0.6C7.6,29.8,7.3,30.1,7,30.1z M7,33.6c-0.3,0-0.6-0.3-0.6-0.6
		c0-0.3,0.3-0.6,0.6-0.6c0.3,0,0.6,0.3,0.6,0.6C7.6,33.3,7.3,33.6,7,33.6z M7,37.1c-0.3,0-0.6-0.3-0.6-0.6C6.4,36.2,6.6,36,7,36
		c0.3,0,0.6,0.3,0.6,0.6C7.6,36.9,7.3,37.1,7,37.1z M7,40.6c-0.3,0-0.6-0.3-0.6-0.6c0-0.3,0.3-0.6,0.6-0.6c0.3,0,0.6,0.3,0.6,0.6
		C7.6,40.4,7.3,40.6,7,40.6z M7,44.1c-0.3,0-0.6-0.3-0.6-0.6C6.4,43.2,6.6,43,7,43c0.3,0,0.6,0.3,0.6,0.6C7.6,43.9,7.3,44.1,7,44.1z
		 M7,47.6c-0.3,0-0.6-0.3-0.6-0.6c0-0.3,0.3-0.6,0.6-0.6c0.3,0,0.6,0.3,0.6,0.6C7.6,47.4,7.3,47.6,7,47.6z M7,51.1
		c-0.3,0-0.6-0.3-0.6-0.6C6.4,50.2,6.6,50,7,50c0.3,0,0.6,0.3,0.6,0.6C7.6,50.9,7.3,51.1,7,51.1z M7,54.6c-0.3,0-0.6-0.3-0.6-0.6
		c0-0.3,0.3-0.6,0.6-0.6c0.3,0,0.6,0.3,0.6,0.6C7.6,54.4,7.3,54.6,7,54.6z M7,58.2c-0.3,0-0.6-0.3-0.6-0.6C6.4,57.3,6.6,57,7,57
		c0.3,0,0.6,0.3,0.6,0.6C7.6,57.9,7.3,58.2,7,58.2z M7,61.7c-0.3,0-0.6-0.3-0.6-0.6c0-0.3,0.3-0.6,0.6-0.6c0.3,0,0.6,0.3,0.6,0.6
		C7.6,61.4,7.3,61.7,7,61.7z M7,65.2c-0.3,0-0.6-0.3-0.6-0.6S6.6,64,7,64c0.3,0,0.6,0.3,0.6,0.6S7.3,65.2,7,65.2z M7,86.2
		c-0.3,0-0.6-0.3-0.6-0.6c0-0.3,0.3-0.6,0.6-0.6c0.3,0,0.6,0.3,0.6,0.6C7.6,86,7.3,86.2,7,86.2z M7,89.7c-0.3,0-0.6-0.3-0.6-0.6
		c0-0.3,0.3-0.6,0.6-0.6c0.3,0,0.6,0.3,0.6,0.6C7.6,89.5,7.3,89.7,7,89.7z M7,93.2c-0.3,0-0.6-0.3-0.6-0.6c0-0.3,0.3-0.6,0.6-0.6
		c0.3,0,0.6,0.3,0.6,0.6C7.6,93,7.3,93.2,7,93.2z M7,96.7c-0.3,0-0.6-0.3-0.6-0.6c0-0.3,0.3-0.6,0.6-0.6c0.3,0,0.6,0.3,0.6,0.6
		C7.6,96.5,7.3,96.7,7,96.7z M7,100.2c-0.3,0-0.6-0.3-0.6-0.6c0-0.3,0.3-0.6,0.6-0.6c0.3,0,0.6,0.3,0.6,0.6
		C7.6,100,7.3,100.2,7,100.2z M7,103.8c-0.3,0-0.6-0.3-0.6-0.6c0-0.3,0.3-0.6,0.6-0.6c0.3,0,0.6,0.3,0.6,0.6
		C7.6,103.5,7.3,103.8,7,103.8z M7,107.3c-0.3,0-0.6-0.3-0.6-0.6c0-0.3,0.3-0.6,0.6-0.6c0.3,0,0.6,0.3,0.6,0.6
		C7.6,107,7.3,107.3,7,107.3z M7,110.8c-0.3,0-0.6-0.3-0.6-0.6c0-0.3,0.3-0.6,0.6-0.6c0.3,0,0.6,0.3,0.6,0.6
		C7.6,110.5,7.3,110.8,7,110.8z M7,114.3c-0.3,0-0.6-0.3-0.6-0.6c0-0.3,0.3-0.6,0.6-0.6c0.3,0,0.6,0.3,0.6,0.6
		C7.6,114,7.3,114.3,7,114.3z M7,117.8c-0.3,0-0.6-0.3-0.6-0.6c0-0.3,0.3-0.6,0.6-0.6c0.3,0,0.6,0.3,0.6,0.6
		C7.6,117.5,7.3,117.8,7,117.8z M7,121.3c-0.3,0-0.6-0.3-0.6-0.6c0-0.3,0.3-0.6,0.6-0.6c0.3,0,0.6,0.3,0.6,0.6
		C7.6,121,7.3,121.3,7,121.3z M7,124.8c-0.3,0-0.6-0.3-0.6-0.6s0.3-0.6,0.6-0.6c0.3,0,0.6,0.3,0.6,0.6S7.3,124.8,7,124.8z M7,128.3
		c-0.3,0-0.6-0.3-0.6-0.6c0-0.3,0.3-0.6,0.6-0.6c0.3,0,0.6,0.3,0.6,0.6C7.6,128,7.3,128.3,7,128.3z M7,131.8c-0.3,0-0.6-0.3-0.6-0.6
		c0-0.3,0.3-0.6,0.6-0.6c0.3,0,0.6,0.3,0.6,0.6C7.6,131.6,7.3,131.8,7,131.8z M7,135.3c-0.3,0-0.6-0.3-0.6-0.6
		c0-0.3,0.3-0.6,0.6-0.6c0.3,0,0.6,0.3,0.6,0.6C7.6,135.1,7.3,135.3,7,135.3z M7,138.8c-0.3,0-0.6-0.3-0.6-0.6s0.3-0.6,0.6-0.6
		c0.3,0,0.6,0.3,0.6,0.6S7.3,138.8,7,138.8z M7,142.3c-0.3,0-0.6-0.3-0.6-0.6c0-0.3,0.3-0.6,0.6-0.6c0.3,0,0.6,0.3,0.6,0.6
		C7.6,142.1,7.3,142.3,7,142.3z M231.2,9.1c-0.3,0-0.6-0.3-0.6-0.6s0.3-0.6,0.6-0.6c0.3,0,0.6,0.3,0.6,0.6S231.5,9.1,231.2,9.1z
		 M231.2,12.6c-0.3,0-0.6-0.3-0.6-0.6s0.3-0.6,0.6-0.6c0.3,0,0.6,0.3,0.6,0.6S231.5,12.6,231.2,12.6z M231.2,16.1
		c-0.3,0-0.6-0.3-0.6-0.6c0-0.3,0.3-0.6,0.6-0.6c0.3,0,0.6,0.3,0.6,0.6C231.8,15.8,231.5,16.1,231.2,16.1z M231.2,19.6
		c-0.3,0-0.6-0.3-0.6-0.6c0-0.3,0.3-0.6,0.6-0.6c0.3,0,0.6,0.3,0.6,0.6C231.8,19.3,231.5,19.6,231.2,19.6z M231.2,23.1
		c-0.3,0-0.6-0.3-0.6-0.6c0-0.3,0.3-0.6,0.6-0.6c0.3,0,0.6,0.3,0.6,0.6C231.8,22.8,231.5,23.1,231.2,23.1z M231.2,26.6
		c-0.3,0-0.6-0.3-0.6-0.6c0-0.3,0.3-0.6,0.6-0.6c0.3,0,0.6,0.3,0.6,0.6C231.8,26.3,231.5,26.6,231.2,26.6z M231.2,30.1
		c-0.3,0-0.6-0.3-0.6-0.6c0-0.3,0.3-0.6,0.6-0.6c0.3,0,0.6,0.3,0.6,0.6C231.8,29.8,231.5,30.1,231.2,30.1z M231.2,33.6
		c-0.3,0-0.6-0.3-0.6-0.6c0-0.3,0.3-0.6,0.6-0.6c0.3,0,0.6,0.3,0.6,0.6C231.8,33.3,231.5,33.6,231.2,33.6z M231.2,37.1
		c-0.3,0-0.6-0.3-0.6-0.6c0-0.3,0.3-0.6,0.6-0.6c0.3,0,0.6,0.3,0.6,0.6C231.8,36.9,231.5,37.1,231.2,37.1z M231.2,40.6
		c-0.3,0-0.6-0.3-0.6-0.6c0-0.3,0.3-0.6,0.6-0.6c0.3,0,0.6,0.3,0.6,0.6C231.8,40.4,231.5,40.6,231.2,40.6z M231.2,44.1
		c-0.3,0-0.6-0.3-0.6-0.6c0-0.3,0.3-0.6,0.6-0.6c0.3,0,0.6,0.3,0.6,0.6C231.8,43.9,231.5,44.1,231.2,44.1z M231.2,47.6
		c-0.3,0-0.6-0.3-0.6-0.6c0-0.3,0.3-0.6,0.6-0.6c0.3,0,0.6,0.3,0.6,0.6C231.8,47.4,231.5,47.6,231.2,47.6z M231.2,51.1
		c-0.3,0-0.6-0.3-0.6-0.6c0-0.3,0.3-0.6,0.6-0.6c0.3,0,0.6,0.3,0.6,0.6C231.8,50.9,231.5,51.1,231.2,51.1z M231.2,54.6
		c-0.3,0-0.6-0.3-0.6-0.6c0-0.3,0.3-0.6,0.6-0.6c0.3,0,0.6,0.3,0.6,0.6C231.8,54.4,231.5,54.6,231.2,54.6z M231.2,58.2
		c-0.3,0-0.6-0.3-0.6-0.6c0-0.3,0.3-0.6,0.6-0.6c0.3,0,0.6,0.3,0.6,0.6C231.8,57.9,231.5,58.2,231.2,58.2z M231.2,61.7
		c-0.3,0-0.6-0.3-0.6-0.6c0-0.3,0.3-0.6,0.6-0.6c0.3,0,0.6,0.3,0.6,0.6C231.8,61.4,231.5,61.7,231.2,61.7z M231.2,65.2
		c-0.3,0-0.6-0.3-0.6-0.6s0.3-0.6,0.6-0.6c0.3,0,0.6,0.3,0.6,0.6S231.5,65.2,231.2,65.2z M231.2,86.2c-0.3,0-0.6-0.3-0.6-0.6
		c0-0.3,0.3-0.6,0.6-0.6c0.3,0,0.6,0.3,0.6,0.6C231.8,86,231.5,86.2,231.2,86.2z M231.2,89.7c-0.3,0-0.6-0.3-0.6-0.6
		c0-0.3,0.3-0.6,0.6-0.6c0.3,0,0.6,0.3,0.6,0.6C231.8,89.5,231.5,89.7,231.2,89.7z M231.2,93.2c-0.3,0-0.6-0.3-0.6-0.6
		c0-0.3,0.3-0.6,0.6-0.6c0.3,0,0.6,0.3,0.6,0.6C231.8,93,231.5,93.2,231.2,93.2z M231.2,96.7c-0.3,0-0.6-0.3-0.6-0.6
		c0-0.3,0.3-0.6,0.6-0.6c0.3,0,0.6,0.3,0.6,0.6C231.8,96.5,231.5,96.7,231.2,96.7z M231.2,100.2c-0.3,0-0.6-0.3-0.6-0.6
		c0-0.3,0.3-0.6,0.6-0.6c0.3,0,0.6,0.3,0.6,0.6C231.8,100,231.5,100.2,231.2,100.2z M231.2,103.8c-0.3,0-0.6-0.3-0.6-0.6
		c0-0.3,0.3-0.6,0.6-0.6c0.3,0,0.6,0.3,0.6,0.6C231.8,103.5,231.5,103.8,231.2,103.8z M231.2,107.3c-0.3,0-0.6-0.3-0.6-0.6
		c0-0.3,0.3-0.6,0.6-0.6c0.3,0,0.6,0.3,0.6,0.6C231.8,107,231.5,107.3,231.2,107.3z M231.2,110.8c-0.3,0-0.6-0.3-0.6-0.6
		c0-0.3,0.3-0.6,0.6-0.6c0.3,0,0.6,0.3,0.6,0.6C231.8,110.5,231.5,110.8,231.2,110.8z M231.2,114.3c-0.3,0-0.6-0.3-0.6-0.6
		c0-0.3,0.3-0.6,0.6-0.6c0.3,0,0.6,0.3,0.6,0.6C231.8,114,231.5,114.3,231.2,114.3z M231.2,117.8c-0.3,0-0.6-0.3-0.6-0.6
		c0-0.3,0.3-0.6,0.6-0.6c0.3,0,0.6,0.3,0.6,0.6C231.8,117.5,231.5,117.8,231.2,117.8z M231.2,121.3c-0.3,0-0.6-0.3-0.6-0.6
		c0-0.3,0.3-0.6,0.6-0.6c0.3,0,0.6,0.3,0.6,0.6C231.8,121,231.5,121.3,231.2,121.3z M231.2,124.8c-0.3,0-0.6-0.3-0.6-0.6
		s0.3-0.6,0.6-0.6c0.3,0,0.6,0.3,0.6,0.6S231.5,124.8,231.2,124.8z M231.2,128.3c-0.3,0-0.6-0.3-0.6-0.6c0-0.3,0.3-0.6,0.6-0.6
		c0.3,0,0.6,0.3,0.6,0.6C231.8,128,231.5,128.3,231.2,128.3z M231.2,131.8c-0.3,0-0.6-0.3-0.6-0.6c0-0.3,0.3-0.6,0.6-0.6
		c0.3,0,0.6,0.3,0.6,0.6C231.8,131.6,231.5,131.8,231.2,131.8z M231.2,135.3c-0.3,0-0.6-0.3-0.6-0.6c0-0.3,0.3-0.6,0.6-0.6
		c0.3,0,0.6,0.3,0.6,0.6C231.8,135.1,231.5,135.3,231.2,135.3z M231.2,138.8c-0.3,0-0.6-0.3-0.6-0.6s0.3-0.6,0.6-0.6
		c0.3,0,0.6,0.3,0.6,0.6S231.5,138.8,231.2,138.8z M231.2,142.3c-0.3,0-0.6-0.3-0.6-0.6c0-0.3,0.3-0.6,0.6-0.6
		c0.3,0,0.6,0.3,0.6,0.6C231.8,142.1,231.5,142.3,231.2,142.3z M231.2,5.7c-0.3,0-0.6-0.3-0.6-0.6s0.3-0.6,0.6-0.6
		c0.3,0,0.6,0.3,0.6,0.6S231.5,5.7,231.2,5.7z M227.5,5.7c-0.3,0-0.6-0.3-0.6-0.6s0.3-0.6,0.6-0.6c0.3,0,0.6,0.3,0.6,0.6
		S227.9,5.7,227.5,5.7z M223.9,5.7c-0.3,0-0.6-0.3-0.6-0.6s0.3-0.6,0.6-0.6c0.3,0,0.6,0.3,0.6,0.6S224.2,5.7,223.9,5.7z M220.2,5.7
		c-0.3,0-0.6-0.3-0.6-0.6s0.3-0.6,0.6-0.6c0.3,0,0.6,0.3,0.6,0.6S220.5,5.7,220.2,5.7z M216.5,5.7c-0.3,0-0.6-0.3-0.6-0.6
		s0.3-0.6,0.6-0.6s0.6,0.3,0.6,0.6S216.9,5.7,216.5,5.7z M212.8,5.7c-0.3,0-0.6-0.3-0.6-0.6s0.3-0.6,0.6-0.6c0.3,0,0.6,0.3,0.6,0.6
		S213.2,5.7,212.8,5.7z M209.2,5.7c-0.3,0-0.6-0.3-0.6-0.6s0.3-0.6,0.6-0.6c0.3,0,0.6,0.3,0.6,0.6S209.5,5.7,209.2,5.7z M205.5,5.7
		c-0.3,0-0.6-0.3-0.6-0.6s0.3-0.6,0.6-0.6c0.3,0,0.6,0.3,0.6,0.6S205.8,5.7,205.5,5.7z M201.8,5.7c-0.3,0-0.6-0.3-0.6-0.6
		s0.3-0.6,0.6-0.6c0.3,0,0.6,0.3,0.6,0.6S202.2,5.7,201.8,5.7z M198.1,5.7c-0.3,0-0.6-0.3-0.6-0.6s0.3-0.6,0.6-0.6s0.6,0.3,0.6,0.6
		S198.5,5.7,198.1,5.7z M194.5,5.7c-0.3,0-0.6-0.3-0.6-0.6s0.3-0.6,0.6-0.6s0.6,0.3,0.6,0.6S194.8,5.7,194.5,5.7z M190.8,5.7
		c-0.3,0-0.6-0.3-0.6-0.6s0.3-0.6,0.6-0.6c0.3,0,0.6,0.3,0.6,0.6S191.1,5.7,190.8,5.7z M187.1,5.7c-0.3,0-0.6-0.3-0.6-0.6
		s0.3-0.6,0.6-0.6c0.3,0,0.6,0.3,0.6,0.6S187.5,5.7,187.1,5.7z M183.5,5.7c-0.3,0-0.6-0.3-0.6-0.6s0.3-0.6,0.6-0.6
		c0.3,0,0.6,0.3,0.6,0.6S183.8,5.7,183.5,5.7z M179.8,5.7c-0.3,0-0.6-0.3-0.6-0.6s0.3-0.6,0.6-0.6c0.3,0,0.6,0.3,0.6,0.6
		S180.1,5.7,179.8,5.7z M176.1,5.7c-0.3,0-0.6-0.3-0.6-0.6s0.3-0.6,0.6-0.6c0.3,0,0.6,0.3,0.6,0.6S176.4,5.7,176.1,5.7z M172.4,5.7
		c-0.3,0-0.6-0.3-0.6-0.6s0.3-0.6,0.6-0.6s0.6,0.3,0.6,0.6S172.8,5.7,172.4,5.7z M168.8,5.7c-0.3,0-0.6-0.3-0.6-0.6s0.3-0.6,0.6-0.6
		s0.6,0.3,0.6,0.6S169.1,5.7,168.8,5.7z M165.1,5.7c-0.3,0-0.6-0.3-0.6-0.6s0.3-0.6,0.6-0.6c0.3,0,0.6,0.3,0.6,0.6
		S165.4,5.7,165.1,5.7z M161.4,5.7c-0.3,0-0.6-0.3-0.6-0.6s0.3-0.6,0.6-0.6c0.3,0,0.6,0.3,0.6,0.6S161.8,5.7,161.4,5.7z M157.7,5.7
		c-0.3,0-0.6-0.3-0.6-0.6s0.3-0.6,0.6-0.6c0.3,0,0.6,0.3,0.6,0.6S158.1,5.7,157.7,5.7z M154.1,5.7c-0.3,0-0.6-0.3-0.6-0.6
		s0.3-0.6,0.6-0.6s0.6,0.3,0.6,0.6S154.4,5.7,154.1,5.7z M150.4,5.7c-0.3,0-0.6-0.3-0.6-0.6s0.3-0.6,0.6-0.6s0.6,0.3,0.6,0.6
		S150.7,5.7,150.4,5.7z M146.7,5.7c-0.3,0-0.6-0.3-0.6-0.6s0.3-0.6,0.6-0.6s0.6,0.3,0.6,0.6S147.1,5.7,146.7,5.7z M143,5.7
		c-0.3,0-0.6-0.3-0.6-0.6s0.3-0.6,0.6-0.6c0.3,0,0.6,0.3,0.6,0.6S143.4,5.7,143,5.7z M139.4,5.7c-0.3,0-0.6-0.3-0.6-0.6
		s0.3-0.6,0.6-0.6c0.3,0,0.6,0.3,0.6,0.6S139.7,5.7,139.4,5.7z M135.7,5.7c-0.3,0-0.6-0.3-0.6-0.6s0.3-0.6,0.6-0.6
		c0.3,0,0.6,0.3,0.6,0.6S136,5.7,135.7,5.7z M132,5.7c-0.3,0-0.6-0.3-0.6-0.6s0.3-0.6,0.6-0.6s0.6,0.3,0.6,0.6S132.4,5.7,132,5.7z
		 M128.4,5.7c-0.3,0-0.6-0.3-0.6-0.6s0.3-0.6,0.6-0.6c0.3,0,0.6,0.3,0.6,0.6S128.7,5.7,128.4,5.7z M110,5.7c-0.3,0-0.6-0.3-0.6-0.6
		s0.3-0.6,0.6-0.6c0.3,0,0.6,0.3,0.6,0.6S110.3,5.7,110,5.7z M106.3,5.7c-0.3,0-0.6-0.3-0.6-0.6s0.3-0.6,0.6-0.6
		c0.3,0,0.6,0.3,0.6,0.6S106.7,5.7,106.3,5.7z M102.6,5.7c-0.3,0-0.6-0.3-0.6-0.6s0.3-0.6,0.6-0.6c0.3,0,0.6,0.3,0.6,0.6
		S103,5.7,102.6,5.7z M99,5.7c-0.3,0-0.6-0.3-0.6-0.6s0.3-0.6,0.6-0.6c0.3,0,0.6,0.3,0.6,0.6S99.3,5.7,99,5.7z M95.3,5.7
		c-0.3,0-0.6-0.3-0.6-0.6s0.3-0.6,0.6-0.6c0.3,0,0.6,0.3,0.6,0.6S95.6,5.7,95.3,5.7z M91.6,5.7c-0.3,0-0.6-0.3-0.6-0.6
		s0.3-0.6,0.6-0.6c0.3,0,0.6,0.3,0.6,0.6S92,5.7,91.6,5.7z M87.9,5.7c-0.3,0-0.6-0.3-0.6-0.6s0.3-0.6,0.6-0.6c0.3,0,0.6,0.3,0.6,0.6
		S88.3,5.7,87.9,5.7z M84.3,5.7c-0.3,0-0.6-0.3-0.6-0.6s0.3-0.6,0.6-0.6s0.6,0.3,0.6,0.6S84.6,5.7,84.3,5.7z M80.6,5.7
		c-0.3,0-0.6-0.3-0.6-0.6s0.3-0.6,0.6-0.6c0.3,0,0.6,0.3,0.6,0.6S80.9,5.7,80.6,5.7z M76.9,5.7c-0.3,0-0.6-0.3-0.6-0.6
		s0.3-0.6,0.6-0.6c0.3,0,0.6,0.3,0.6,0.6S77.3,5.7,76.9,5.7z M73.3,5.7c-0.3,0-0.6-0.3-0.6-0.6s0.3-0.6,0.6-0.6s0.6,0.3,0.6,0.6
		S73.6,5.7,73.3,5.7z M69.6,5.7c-0.3,0-0.6-0.3-0.6-0.6s0.3-0.6,0.6-0.6s0.6,0.3,0.6,0.6S69.9,5.7,69.6,5.7z M65.9,5.7
		c-0.3,0-0.6-0.3-0.6-0.6s0.3-0.6,0.6-0.6c0.3,0,0.6,0.3,0.6,0.6S66.2,5.7,65.9,5.7z M62.2,5.7c-0.3,0-0.6-0.3-0.6-0.6
		s0.3-0.6,0.6-0.6c0.3,0,0.6,0.3,0.6,0.6S62.6,5.7,62.2,5.7z M58.6,5.7c-0.3,0-0.6-0.3-0.6-0.6s0.3-0.6,0.6-0.6s0.6,0.3,0.6,0.6
		S58.9,5.7,58.6,5.7z M54.9,5.7c-0.3,0-0.6-0.3-0.6-0.6s0.3-0.6,0.6-0.6c0.3,0,0.6,0.3,0.6,0.6S55.2,5.7,54.9,5.7z M51.2,5.7
		c-0.3,0-0.6-0.3-0.6-0.6s0.3-0.6,0.6-0.6c0.3,0,0.6,0.3,0.6,0.6S51.6,5.7,51.2,5.7z M47.5,5.7c-0.3,0-0.6-0.3-0.6-0.6
		s0.3-0.6,0.6-0.6c0.3,0,0.6,0.3,0.6,0.6S47.9,5.7,47.5,5.7z M43.9,5.7c-0.3,0-0.6-0.3-0.6-0.6s0.3-0.6,0.6-0.6
		c0.3,0,0.6,0.3,0.6,0.6S44.2,5.7,43.9,5.7z M40.2,5.7c-0.3,0-0.6-0.3-0.6-0.6s0.3-0.6,0.6-0.6c0.3,0,0.6,0.3,0.6,0.6
		S40.5,5.7,40.2,5.7z M36.5,5.7c-0.3,0-0.6-0.3-0.6-0.6s0.3-0.6,0.6-0.6c0.3,0,0.6,0.3,0.6,0.6S36.9,5.7,36.5,5.7z M32.8,5.7
		c-0.3,0-0.6-0.3-0.6-0.6s0.3-0.6,0.6-0.6c0.3,0,0.6,0.3,0.6,0.6S33.2,5.7,32.8,5.7z M29.2,5.7c-0.3,0-0.6-0.3-0.6-0.6
		s0.3-0.6,0.6-0.6c0.3,0,0.6,0.3,0.6,0.6S29.5,5.7,29.2,5.7z M25.5,5.7c-0.3,0-0.6-0.3-0.6-0.6s0.3-0.6,0.6-0.6
		c0.3,0,0.6,0.3,0.6,0.6S25.8,5.7,25.5,5.7z M21.8,5.7c-0.3,0-0.6-0.3-0.6-0.6s0.3-0.6,0.6-0.6c0.3,0,0.6,0.3,0.6,0.6
		S22.2,5.7,21.8,5.7z M18.2,5.7c-0.3,0-0.6-0.3-0.6-0.6s0.3-0.6,0.6-0.6c0.3,0,0.6,0.3,0.6,0.6S18.5,5.7,18.2,5.7z M14.5,5.7
		c-0.3,0-0.6-0.3-0.6-0.6s0.3-0.6,0.6-0.6c0.3,0,0.6,0.3,0.6,0.6S14.8,5.7,14.5,5.7z M10.8,5.7c-0.3,0-0.6-0.3-0.6-0.6
		s0.3-0.6,0.6-0.6c0.3,0,0.6,0.3,0.6,0.6S11.1,5.7,10.8,5.7z M7.1,5.7c-0.3,0-0.6-0.3-0.6-0.6s0.3-0.6,0.6-0.6
		c0.3,0,0.6,0.3,0.6,0.6S7.5,5.7,7.1,5.7z M231.2,145.7c-0.3,0-0.6-0.3-0.6-0.6c0-0.3,0.3-0.6,0.6-0.6c0.3,0,0.6,0.3,0.6,0.6
		C231.8,145.4,231.5,145.7,231.2,145.7z M227.5,145.7c-0.3,0-0.6-0.3-0.6-0.6c0-0.3,0.3-0.6,0.6-0.6c0.3,0,0.6,0.3,0.6,0.6
		C228.1,145.4,227.9,145.7,227.5,145.7z M223.9,145.7c-0.3,0-0.6-0.3-0.6-0.6c0-0.3,0.3-0.6,0.6-0.6c0.3,0,0.6,0.3,0.6,0.6
		C224.5,145.4,224.2,145.7,223.9,145.7z M220.2,145.7c-0.3,0-0.6-0.3-0.6-0.6c0-0.3,0.3-0.6,0.6-0.6c0.3,0,0.6,0.3,0.6,0.6
		C220.8,145.4,220.5,145.7,220.2,145.7z M216.5,145.7c-0.3,0-0.6-0.3-0.6-0.6c0-0.3,0.3-0.6,0.6-0.6s0.6,0.3,0.6,0.6
		C217.1,145.4,216.8,145.7,216.5,145.7z M212.8,145.7c-0.3,0-0.6-0.3-0.6-0.6c0-0.3,0.3-0.6,0.6-0.6s0.6,0.3,0.6,0.6
		C213.5,145.4,213.2,145.7,212.8,145.7z M209.2,145.7c-0.3,0-0.6-0.3-0.6-0.6c0-0.3,0.3-0.6,0.6-0.6c0.3,0,0.6,0.3,0.6,0.6
		C209.8,145.4,209.5,145.7,209.2,145.7z M205.5,145.7c-0.3,0-0.6-0.3-0.6-0.6c0-0.3,0.3-0.6,0.6-0.6c0.3,0,0.6,0.3,0.6,0.6
		C206.1,145.4,205.8,145.7,205.5,145.7z M201.8,145.7c-0.3,0-0.6-0.3-0.6-0.6c0-0.3,0.3-0.6,0.6-0.6c0.3,0,0.6,0.3,0.6,0.6
		C202.4,145.4,202.2,145.7,201.8,145.7z M198.1,145.7c-0.3,0-0.6-0.3-0.6-0.6c0-0.3,0.3-0.6,0.6-0.6s0.6,0.3,0.6,0.6
		C198.8,145.4,198.5,145.7,198.1,145.7z M194.5,145.7c-0.3,0-0.6-0.3-0.6-0.6c0-0.3,0.3-0.6,0.6-0.6c0.3,0,0.6,0.3,0.6,0.6
		C195.1,145.4,194.8,145.7,194.5,145.7z M190.8,145.7c-0.3,0-0.6-0.3-0.6-0.6c0-0.3,0.3-0.6,0.6-0.6c0.3,0,0.6,0.3,0.6,0.6
		C191.4,145.4,191.1,145.7,190.8,145.7z M187.1,145.7c-0.3,0-0.6-0.3-0.6-0.6c0-0.3,0.3-0.6,0.6-0.6c0.3,0,0.6,0.3,0.6,0.6
		C187.7,145.4,187.5,145.7,187.1,145.7z M183.5,145.7c-0.3,0-0.6-0.3-0.6-0.6c0-0.3,0.3-0.6,0.6-0.6c0.3,0,0.6,0.3,0.6,0.6
		C184.1,145.4,183.8,145.7,183.5,145.7z M179.8,145.7c-0.3,0-0.6-0.3-0.6-0.6c0-0.3,0.3-0.6,0.6-0.6c0.3,0,0.6,0.3,0.6,0.6
		C180.4,145.4,180.1,145.7,179.8,145.7z M176.1,145.7c-0.3,0-0.6-0.3-0.6-0.6c0-0.3,0.3-0.6,0.6-0.6s0.6,0.3,0.6,0.6
		C176.7,145.4,176.4,145.7,176.1,145.7z M172.4,145.7c-0.3,0-0.6-0.3-0.6-0.6c0-0.3,0.3-0.6,0.6-0.6s0.6,0.3,0.6,0.6
		C173,145.4,172.8,145.7,172.4,145.7z M168.8,145.7c-0.3,0-0.6-0.3-0.6-0.6c0-0.3,0.3-0.6,0.6-0.6s0.6,0.3,0.6,0.6
		C169.4,145.4,169.1,145.7,168.8,145.7z M165.1,145.7c-0.3,0-0.6-0.3-0.6-0.6c0-0.3,0.3-0.6,0.6-0.6c0.3,0,0.6,0.3,0.6,0.6
		C165.7,145.4,165.4,145.7,165.1,145.7z M161.4,145.7c-0.3,0-0.6-0.3-0.6-0.6c0-0.3,0.3-0.6,0.6-0.6c0.3,0,0.6,0.3,0.6,0.6
		C162,145.4,161.8,145.7,161.4,145.7z M157.7,145.7c-0.3,0-0.6-0.3-0.6-0.6c0-0.3,0.3-0.6,0.6-0.6c0.3,0,0.6,0.3,0.6,0.6
		C158.4,145.4,158.1,145.7,157.7,145.7z M154.1,145.7c-0.3,0-0.6-0.3-0.6-0.6c0-0.3,0.3-0.6,0.6-0.6s0.6,0.3,0.6,0.6
		C154.7,145.4,154.4,145.7,154.1,145.7z M150.4,145.7c-0.3,0-0.6-0.3-0.6-0.6c0-0.3,0.3-0.6,0.6-0.6s0.6,0.3,0.6,0.6
		C151,145.4,150.7,145.7,150.4,145.7z M146.7,145.7c-0.3,0-0.6-0.3-0.6-0.6c0-0.3,0.3-0.6,0.6-0.6c0.3,0,0.6,0.3,0.6,0.6
		C147.3,145.4,147.1,145.7,146.7,145.7z M143,145.7c-0.3,0-0.6-0.3-0.6-0.6c0-0.3,0.3-0.6,0.6-0.6c0.3,0,0.6,0.3,0.6,0.6
		C143.7,145.4,143.4,145.7,143,145.7z M139.4,145.7c-0.3,0-0.6-0.3-0.6-0.6c0-0.3,0.3-0.6,0.6-0.6c0.3,0,0.6,0.3,0.6,0.6
		C140,145.4,139.7,145.7,139.4,145.7z M135.7,145.7c-0.3,0-0.6-0.3-0.6-0.6c0-0.3,0.3-0.6,0.6-0.6c0.3,0,0.6,0.3,0.6,0.6
		C136.3,145.4,136,145.7,135.7,145.7z M132,145.7c-0.3,0-0.6-0.3-0.6-0.6c0-0.3,0.3-0.6,0.6-0.6c0.3,0,0.6,0.3,0.6,0.6
		C132.6,145.4,132.4,145.7,132,145.7z M128.4,145.7c-0.3,0-0.6-0.3-0.6-0.6c0-0.3,0.3-0.6,0.6-0.6s0.6,0.3,0.6,0.6
		C129,145.4,128.7,145.7,128.4,145.7z M110,145.7c-0.3,0-0.6-0.3-0.6-0.6c0-0.3,0.3-0.6,0.6-0.6c0.3,0,0.6,0.3,0.6,0.6
		C110.6,145.4,110.3,145.7,110,145.7z M106.3,145.7c-0.3,0-0.6-0.3-0.6-0.6c0-0.3,0.3-0.6,0.6-0.6c0.3,0,0.6,0.3,0.6,0.6
		C106.9,145.4,106.7,145.7,106.3,145.7z M102.6,145.7c-0.3,0-0.6-0.3-0.6-0.6c0-0.3,0.3-0.6,0.6-0.6c0.3,0,0.6,0.3,0.6,0.6
		C103.3,145.4,103,145.7,102.6,145.7z M99,145.7c-0.3,0-0.6-0.3-0.6-0.6c0-0.3,0.3-0.6,0.6-0.6s0.6,0.3,0.6,0.6
		C99.6,145.4,99.3,145.7,99,145.7z M95.3,145.7c-0.3,0-0.6-0.3-0.6-0.6c0-0.3,0.3-0.6,0.6-0.6c0.3,0,0.6,0.3,0.6,0.6
		C95.9,145.4,95.6,145.7,95.3,145.7z M91.6,145.7c-0.3,0-0.6-0.3-0.6-0.6c0-0.3,0.3-0.6,0.6-0.6c0.3,0,0.6,0.3,0.6,0.6
		C92.2,145.4,92,145.7,91.6,145.7z M87.9,145.7c-0.3,0-0.6-0.3-0.6-0.6c0-0.3,0.3-0.6,0.6-0.6s0.6,0.3,0.6,0.6
		C88.6,145.4,88.3,145.7,87.9,145.7z M84.3,145.7c-0.3,0-0.6-0.3-0.6-0.6c0-0.3,0.3-0.6,0.6-0.6c0.3,0,0.6,0.3,0.6,0.6
		C84.9,145.4,84.6,145.7,84.3,145.7z M80.6,145.7c-0.3,0-0.6-0.3-0.6-0.6c0-0.3,0.3-0.6,0.6-0.6c0.3,0,0.6,0.3,0.6,0.6
		C81.2,145.4,80.9,145.7,80.6,145.7z M76.9,145.7c-0.3,0-0.6-0.3-0.6-0.6c0-0.3,0.3-0.6,0.6-0.6s0.6,0.3,0.6,0.6
		C77.5,145.4,77.3,145.7,76.9,145.7z M73.3,145.7c-0.3,0-0.6-0.3-0.6-0.6c0-0.3,0.3-0.6,0.6-0.6c0.3,0,0.6,0.3,0.6,0.6
		C73.9,145.4,73.6,145.7,73.3,145.7z M69.6,145.7c-0.3,0-0.6-0.3-0.6-0.6c0-0.3,0.3-0.6,0.6-0.6c0.3,0,0.6,0.3,0.6,0.6
		C70.2,145.4,69.9,145.7,69.6,145.7z M65.9,145.7c-0.3,0-0.6-0.3-0.6-0.6c0-0.3,0.3-0.6,0.6-0.6c0.3,0,0.6,0.3,0.6,0.6
		C66.5,145.4,66.2,145.7,65.9,145.7z M62.2,145.7c-0.3,0-0.6-0.3-0.6-0.6c0-0.3,0.3-0.6,0.6-0.6c0.3,0,0.6,0.3,0.6,0.6
		C62.8,145.4,62.6,145.7,62.2,145.7z M58.6,145.7c-0.3,0-0.6-0.3-0.6-0.6c0-0.3,0.3-0.6,0.6-0.6s0.6,0.3,0.6,0.6
		C59.2,145.4,58.9,145.7,58.6,145.7z M54.9,145.7c-0.3,0-0.6-0.3-0.6-0.6c0-0.3,0.3-0.6,0.6-0.6c0.3,0,0.6,0.3,0.6,0.6
		C55.5,145.4,55.2,145.7,54.9,145.7z M51.2,145.7c-0.3,0-0.6-0.3-0.6-0.6c0-0.3,0.3-0.6,0.6-0.6c0.3,0,0.6,0.3,0.6,0.6
		C51.8,145.4,51.6,145.7,51.2,145.7z M47.5,145.7c-0.3,0-0.6-0.3-0.6-0.6c0-0.3,0.3-0.6,0.6-0.6c0.3,0,0.6,0.3,0.6,0.6
		C48.2,145.4,47.9,145.7,47.5,145.7z M43.9,145.7c-0.3,0-0.6-0.3-0.6-0.6c0-0.3,0.3-0.6,0.6-0.6s0.6,0.3,0.6,0.6
		C44.5,145.4,44.2,145.7,43.9,145.7z M40.2,145.7c-0.3,0-0.6-0.3-0.6-0.6c0-0.3,0.3-0.6,0.6-0.6c0.3,0,0.6,0.3,0.6,0.6
		C40.8,145.4,40.5,145.7,40.2,145.7z M36.5,145.7c-0.3,0-0.6-0.3-0.6-0.6c0-0.3,0.3-0.6,0.6-0.6c0.3,0,0.6,0.3,0.6,0.6
		C37.1,145.4,36.9,145.7,36.5,145.7z M32.8,145.7c-0.3,0-0.6-0.3-0.6-0.6c0-0.3,0.3-0.6,0.6-0.6c0.3,0,0.6,0.3,0.6,0.6
		C33.5,145.4,33.2,145.7,32.8,145.7z M29.2,145.7c-0.3,0-0.6-0.3-0.6-0.6c0-0.3,0.3-0.6,0.6-0.6c0.3,0,0.6,0.3,0.6,0.6
		C29.8,145.4,29.5,145.7,29.2,145.7z M25.5,145.7c-0.3,0-0.6-0.3-0.6-0.6c0-0.3,0.3-0.6,0.6-0.6c0.3,0,0.6,0.3,0.6,0.6
		C26.1,145.4,25.8,145.7,25.5,145.7z M21.8,145.7c-0.3,0-0.6-0.3-0.6-0.6c0-0.3,0.3-0.6,0.6-0.6c0.3,0,0.6,0.3,0.6,0.6
		C22.4,145.4,22.2,145.7,21.8,145.7z M18.2,145.7c-0.3,0-0.6-0.3-0.6-0.6c0-0.3,0.3-0.6,0.6-0.6c0.3,0,0.6,0.3,0.6,0.6
		C18.8,145.4,18.5,145.7,18.2,145.7z M14.5,145.7c-0.3,0-0.6-0.3-0.6-0.6c0-0.3,0.3-0.6,0.6-0.6c0.3,0,0.6,0.3,0.6,0.6
		C15.1,145.4,14.8,145.7,14.5,145.7z M10.8,145.7c-0.3,0-0.6-0.3-0.6-0.6c0-0.3,0.3-0.6,0.6-0.6c0.3,0,0.6,0.3,0.6,0.6
		C11.4,145.4,11.1,145.7,10.8,145.7z M7.1,145.7c-0.3,0-0.6-0.3-0.6-0.6c0-0.3,0.3-0.6,0.6-0.6c0.3,0,0.6,0.3,0.6,0.6
		C7.7,145.4,7.5,145.7,7.1,145.7z M11.2,116.3c0,0.2,0.2,0.4,0.4,0.4c0.2,0,0.4-0.2,0.4-0.4c0-0.2-0.2-0.4-0.4-0.4
		C11.4,115.9,11.2,116,11.2,116.3z M12.5,116.3c0,0.4-0.4,0.8-0.9,0.8c-0.5,0-0.9-0.4-0.9-0.8c0-0.4,0.4-0.8,0.9-0.8
		C12.1,115.4,12.5,115.8,12.5,116.3z M11.2,34c0,0.2,0.2,0.4,0.4,0.4c0.2,0,0.4-0.2,0.4-0.4c0-0.2-0.2-0.4-0.4-0.4
		C11.4,33.6,11.2,33.8,11.2,34z M12.5,34c0,0.4-0.4,0.8-0.9,0.8c-0.5,0-0.9-0.4-0.9-0.8c0-0.4,0.4-0.8,0.9-0.8
		C12.1,33.2,12.5,33.6,12.5,34z M10.2,141.9c0.5,0,1.7-0.1,2.4-0.8c0.7-0.7,0.7-1.8,0.7-2.2c-0.5,0-1.7,0.1-2.4,0.8
		C10.2,140.4,10.2,141.5,10.2,141.9z M13.7,139.1c0,0.6-0.1,1.6-0.8,2.3c-1,1-2.8,0.9-2.9,0.9c-0.1,0-0.2-0.1-0.2-0.2
		c0-0.1-0.2-1.8,0.8-2.7c1-1,2.8-0.9,2.9-0.9c0.1,0,0.2,0.1,0.2,0.2C13.7,138.7,13.7,138.9,13.7,139.1L13.7,139.1z M13.3,11.4
		c0-0.4,0-1.6-0.7-2.2c-0.7-0.7-1.9-0.8-2.4-0.8c0,0.4,0,1.6,0.7,2.2l-0.2,0.1l0.2-0.1C11.6,11.3,12.8,11.4,13.3,11.4z M13.7,11.2
		c0,0.3,0,0.4,0,0.4c0,0.1-0.1,0.2-0.2,0.2c-0.1,0-1.9,0.1-2.9-0.9c-1-1-0.8-2.7-0.8-2.7C9.8,8.1,9.9,8,10,8c0.1,0,1.9-0.1,2.9,0.9
		C13.6,9.6,13.7,10.6,13.7,11.2z M15.3,24.3c0,0.6-0.2,1.2-0.6,1.8c-0.3,0.5-0.8,0.9-1.3,1.4c-1.1,1-2.2,2.1-2,3.4
		c0.1,0.6,0.8,1.3,1.3,1.3c0.3,0,0.5-0.2,0.5-0.6c0-0.2-0.1-0.4-0.3-0.5c-0.2-0.1-0.4-0.1-0.4-0.1l0,0c0,0.1-0.1,0.2-0.3,0.2
		c-0.1,0-0.2-0.1-0.2-0.2c0.1-0.3,0.3-0.4,0.6-0.3c0.5,0.1,1,0.6,0.9,1.1c-0.2,0.8-0.7,0.9-1,0.9c-0.7,0-1.6-0.9-1.8-1.7
		c-0.2-1.5,1-2.7,2.1-3.8c0.5-0.4,0.9-0.9,1.3-1.3c0.6-0.8,0.9-2-0.1-3c-0.6-0.5-1.6-0.7-2.3-0.3c-0.5,0.3-0.7,0.7-0.6,1.3
		c0,0.2,0.1,0.4,0.3,0.5c0.3,0.3,0.6,0.4,1,0.3c0.2,0,0.5-0.2,0.5-0.6c0-0.2,0-0.4-0.2-0.5c-0.1-0.1-0.1-0.1-0.2,0
		c-0.1,0-0.2,0-0.3-0.1c0-0.1,0-0.2,0.2-0.2c0.2-0.1,0.5,0,0.6,0.1c0.2,0.2,0.3,0.5,0.3,0.8c-0.1,0.5-0.4,0.8-0.8,0.9
		c-0.5,0.1-1.1,0-1.4-0.4c-0.2-0.2-0.3-0.5-0.4-0.7c-0.2-0.8,0.1-1.4,0.8-1.8c0.9-0.4,2.1-0.3,2.8,0.4C15,23,15.3,23.6,15.3,24.3z
		 M15.3,126c0,0.6-0.3,1.3-0.8,1.7c-0.7,0.7-2,0.8-2.8,0.4c-0.7-0.3-1-1-0.8-1.8c0.1-0.3,0.2-0.5,0.4-0.7c0.4-0.4,0.9-0.5,1.4-0.4
		c0.5,0.1,0.8,0.5,0.8,0.9c0.1,0.3-0.1,0.6-0.3,0.8c-0.2,0.1-0.4,0.2-0.6,0.1c-0.1,0-0.2-0.1-0.2-0.2c0-0.1,0.2-0.2,0.3-0.1
		c0.1,0,0.2,0,0.2,0c0.1-0.1,0.2-0.3,0.2-0.5c-0.1-0.4-0.4-0.6-0.5-0.6c-0.3-0.1-0.7,0-1,0.3c-0.1,0.1-0.2,0.3-0.3,0.5
		c-0.1,0.6,0.1,1.1,0.6,1.3c0.7,0.4,1.7,0.2,2.3-0.3c1-0.9,0.7-2.2,0.1-3c-0.3-0.4-0.8-0.8-1.3-1.3c-1.1-1.1-2.4-2.2-2.1-3.8
		c0.1-0.8,1-1.6,1.8-1.7c0.3,0,0.8,0.1,1,0.9c0.1,0.5-0.5,1-0.9,1.1c-0.3,0.1-0.6-0.1-0.6-0.3c0-0.1,0-0.2,0.2-0.2
		c0.1,0,0.2,0,0.3,0.2l0,0c0,0,0.2,0,0.4-0.1c0.2-0.1,0.4-0.3,0.3-0.5c-0.1-0.4-0.3-0.6-0.5-0.6c-0.5,0-1.2,0.7-1.3,1.3
		c-0.2,1.3,0.9,2.4,2,3.4c0.5,0.5,1,0.9,1.3,1.4C15.1,124.8,15.3,125.4,15.3,126L15.3,126z M23.8,137.8c0,0.3-0.1,0.7-0.2,1
		c-0.6,1.2-1.8,1.9-3.3,1.7c-0.7-0.1-1.5-0.5-1.9-1.1c-0.3-0.4-0.4-0.9-0.3-1.5c0.1-0.3,0.2-0.6,0.5-0.9c0.2-0.2,0.5-0.4,0.8-0.5
		c0.3-0.1,0.6-0.1,0.9,0c0.4,0.1,0.9,0.3,1,0.8c0.2,0.5-0.2,1-0.6,1.2c-0.4,0.2-0.8,0.1-1.1-0.2c-0.1-0.1-0.1-0.2,0-0.3
		c0.1-0.1,0.2-0.1,0.3,0c0.2,0.2,0.4,0.1,0.5,0.1c0.3-0.1,0.5-0.5,0.4-0.8c-0.1-0.3-0.5-0.5-0.8-0.6c-0.2-0.1-0.5-0.1-0.7,0
		c-0.2,0.1-0.5,0.2-0.6,0.3c-0.2,0.2-0.3,0.5-0.4,0.7c-0.1,0.5,0.1,0.9,0.2,1.1c0.3,0.5,0.9,0.8,1.6,0.9c1.3,0.2,2.4-0.4,2.8-1.4
		c0.3-0.6,0.3-1.2,0-1.8c-0.4-0.8-1.2-1.4-2.2-1.7c-1.8-0.5-3.9,0.2-5,1.7c-0.5,0.7-0.7,1.4-0.6,2.1c0,0.2,0.2,0.5,0.3,0.6
		c0.2,0.1,0.3,0.1,0.5,0.1c0.3-0.1,0.5-0.3,0.5-0.5c0-0.1,0-0.1-0.1-0.2c-0.1-0.1-0.2-0.1-0.2-0.1c-0.1,0-0.2,0-0.3-0.1
		c0-0.1,0-0.2,0.2-0.2c0.2-0.1,0.5,0,0.6,0.1c0.2,0.1,0.2,0.3,0.2,0.5c-0.1,0.4-0.4,0.7-0.8,0.8c-0.3,0.1-0.6,0-0.9-0.1
		c-0.3-0.2-0.5-0.5-0.5-0.9c-0.1-0.9,0.3-1.7,0.6-2.2c-0.5,0.3-1.4,0.7-2.5,0.6c-0.4,0-0.7-0.2-0.9-0.5c-0.2-0.2-0.2-0.5-0.1-0.8
		c0.1-0.4,0.5-0.7,0.9-0.8c0.2,0,0.4,0,0.6,0.2c0.2,0.2,0.2,0.4,0.2,0.6c0,0.1-0.2,0.2-0.3,0.1c-0.1,0-0.2-0.1-0.2-0.2
		c0-0.1,0-0.2-0.1-0.2c0,0-0.1-0.1-0.2-0.1c-0.3,0-0.5,0.2-0.6,0.5c-0.1,0.2,0,0.4,0.1,0.5c0.1,0.2,0.4,0.3,0.6,0.3
		c0.7,0.1,1.5-0.1,2.2-0.6c1.7-1,2.5-3,1.9-4.7c-0.3-1-1-1.8-1.8-2.1c-0.6-0.3-1.2-0.3-1.9,0c-1.1,0.4-1.7,1.5-1.6,2.6
		c0.1,0.6,0.4,1.2,0.9,1.5c0.3,0.2,0.7,0.3,1.2,0.2c0.3-0.1,0.5-0.2,0.8-0.4c0.2-0.1,0.3-0.3,0.4-0.6c0.1-0.2,0-0.4,0-0.6
		c-0.1-0.3-0.3-0.6-0.6-0.7c-0.3-0.1-0.7,0.1-0.8,0.3c-0.1,0.1-0.2,0.3,0.1,0.6c0.1,0.1,0.1,0.2,0,0.3c-0.1,0.1-0.2,0.1-0.3,0
		c-0.3-0.3-0.4-0.7-0.1-1.1c0.2-0.4,0.8-0.6,1.3-0.5c0.5,0.2,0.8,0.6,0.9,1c0.1,0.3,0.1,0.6,0,0.8c-0.1,0.3-0.3,0.6-0.5,0.8
		c-0.3,0.2-0.6,0.4-1,0.5c-0.5,0.1-1.1,0-1.5-0.3c-0.6-0.4-1-1.1-1.1-1.8c-0.2-1.4,0.5-2.6,1.8-3.1c0.7-0.3,1.5-0.3,2.2,0
		c0.9,0.4,1.7,1.3,2.1,2.4c0.4,1.2,0.2,2.6-0.6,3.7c1.2-0.7,2.7-1,4.1-0.6c1.1,0.3,2.1,1.1,2.5,2C23.7,137.1,23.8,137.4,23.8,137.8
		L23.8,137.8z M23.8,12.5c0,0.4-0.1,0.7-0.2,1c-0.4,0.9-1.4,1.6-2.5,2c-1.4,0.4-2.9,0.2-4.1-0.6c0.7,1.1,1,2.5,0.6,3.7
		c-0.3,1.1-1.1,2-2.1,2.4c-0.7,0.3-1.5,0.3-2.2,0c-1.3-0.5-2-1.7-1.8-3.1c0.1-0.7,0.5-1.4,1.1-1.8c0.5-0.3,1-0.4,1.5-0.3
		c0.3,0.1,0.7,0.2,1,0.5c0.2,0.2,0.4,0.5,0.5,0.8c0.1,0.3,0.1,0.6,0,0.8c-0.1,0.4-0.4,0.8-0.9,1c-0.5,0.2-1.1-0.1-1.3-0.5
		c-0.2-0.4-0.2-0.8,0.1-1.1c0.1-0.1,0.2-0.1,0.3,0c0.1,0.1,0.1,0.2,0,0.3c-0.3,0.2-0.1,0.5-0.1,0.6c0.1,0.2,0.5,0.4,0.8,0.3
		c0.3-0.1,0.5-0.5,0.6-0.7c0.1-0.2,0.1-0.4,0-0.6c-0.1-0.2-0.2-0.4-0.4-0.6c-0.2-0.2-0.5-0.3-0.8-0.4c-0.5-0.1-0.9,0.1-1.2,0.2
		c-0.5,0.3-0.8,0.9-0.9,1.5c-0.2,1.2,0.4,2.2,1.6,2.6c0.6,0.2,1.3,0.2,1.9,0c0.8-0.4,1.5-1.2,1.8-2.1c0.6-1.7-0.2-3.7-1.9-4.7
		c-0.7-0.4-1.5-0.6-2.2-0.6c-0.3,0-0.5,0.2-0.6,0.3c-0.1,0.1-0.1,0.3-0.1,0.5c0.1,0.2,0.3,0.4,0.6,0.5c0.1,0,0.2,0,0.2-0.1
		c0.1-0.1,0.1-0.1,0.1-0.2c0-0.1,0-0.2,0.2-0.2c0.1,0,0.2,0,0.3,0.1c0.1,0.2,0,0.4-0.2,0.6C13.3,15,13,15,12.8,15
		c-0.5-0.1-0.8-0.4-0.9-0.8c-0.1-0.3,0-0.6,0.1-0.8c0.2-0.3,0.5-0.5,0.9-0.5c1.1-0.1,2,0.3,2.5,0.6c-0.3-0.5-0.7-1.3-0.6-2.2
		c0-0.4,0.2-0.7,0.5-0.9c0.3-0.2,0.6-0.2,0.9-0.1c0.4,0.1,0.7,0.4,0.8,0.8c0,0.2,0,0.4-0.2,0.5c-0.2,0.1-0.4,0.2-0.6,0.1
		c-0.1,0-0.2-0.1-0.2-0.2c0-0.1,0.1-0.2,0.3-0.1c0.1,0,0.2,0,0.2-0.1c0,0,0.1-0.1,0.1-0.2c-0.1-0.3-0.2-0.5-0.5-0.5
		c-0.2,0-0.4,0-0.5,0.1c-0.2,0.1-0.3,0.3-0.3,0.6c-0.1,0.6,0.1,1.4,0.6,2.1c1.1,1.5,3.2,2.3,5,1.7c1-0.3,1.9-1,2.2-1.7
		c0.3-0.6,0.3-1.2,0-1.8c-0.5-1-1.6-1.6-2.8-1.4c-0.6,0.1-1.2,0.4-1.6,0.9c-0.2,0.2-0.4,0.6-0.2,1.1c0.1,0.3,0.2,0.5,0.4,0.7
		c0.2,0.2,0.4,0.3,0.6,0.3c0.2,0,0.4,0,0.7,0c0.3-0.1,0.6-0.2,0.8-0.6c0.1-0.3-0.1-0.6-0.4-0.8c-0.1-0.1-0.4-0.1-0.5,0.1
		c-0.1,0.1-0.2,0.1-0.3,0c-0.1-0.1-0.1-0.2,0-0.3c0.3-0.3,0.7-0.4,1.1-0.2c0.4,0.2,0.8,0.7,0.6,1.2c-0.2,0.5-0.7,0.7-1,0.8
		c-0.3,0.1-0.6,0.1-0.9,0c-0.3-0.1-0.6-0.2-0.8-0.5c-0.3-0.3-0.4-0.6-0.5-0.9c-0.1-0.5,0-1,0.3-1.5c0.4-0.6,1.1-1,1.9-1.1
		c1.5-0.2,2.7,0.4,3.3,1.7C23.7,11.8,23.8,12.1,23.8,12.5z M35.9,11.3c0,0.3-0.1,0.7-1,0.9c-0.6,0.1-1.1-0.4-1.2-0.9
		c-0.1-0.3,0.1-0.5,0.3-0.6c0.1,0,0.2,0,0.3,0.2c0,0.1,0,0.2-0.2,0.2l0,0c0,0,0,0.2,0.1,0.4c0.1,0.2,0.3,0.3,0.5,0.3
		c0.4-0.1,0.6-0.3,0.6-0.5l0,0c0-0.5-0.8-1.2-1.4-1.3c-1.4-0.2-2.6,0.9-3.7,1.9c-0.5,0.5-1,0.9-1.4,1.2c-1.3,0.9-2.8,0.8-3.7-0.1
		c-0.7-0.7-0.9-1.9-0.4-2.7c0.4-0.6,1.1-0.9,1.9-0.7c0.3,0.1,0.5,0.2,0.8,0.4c0.4,0.3,0.6,0.9,0.4,1.3c-0.1,0.4-0.5,0.7-1,0.8
		c-0.3,0-0.7-0.1-0.9-0.3c-0.2-0.2-0.2-0.4-0.1-0.6c0-0.1,0.2-0.2,0.3-0.1c0.1,0,0.2,0.1,0.1,0.2c0,0.1,0,0.1,0,0.2
		c0.1,0.1,0.3,0.2,0.5,0.1c0.4-0.1,0.6-0.3,0.6-0.5c0.1-0.3,0-0.7-0.3-0.9c-0.2-0.1-0.4-0.2-0.6-0.3c-0.6-0.1-1.2,0.1-1.4,0.5
		c-0.4,0.7-0.2,1.6,0.3,2.2c1,1,2.3,0.7,3.2,0.1c0.5-0.3,0.9-0.7,1.4-1.2c1.1-1.1,2.4-2.2,4.1-2C35,9.7,35.9,10.5,35.9,11.3
		C35.9,11.2,35.9,11.3,35.9,11.3z M35.9,139L35.9,139c0,0.7-0.9,1.5-1.8,1.7c-1.7,0.2-2.9-1-4.1-2c-0.5-0.4-0.9-0.9-1.4-1.2
		c-0.8-0.6-2.2-0.9-3.2,0.1c-0.6,0.6-0.7,1.5-0.3,2.2c0.3,0.5,0.8,0.7,1.4,0.5c0.2,0,0.4-0.1,0.6-0.3c0.3-0.2,0.4-0.6,0.3-0.9
		c0-0.2-0.2-0.4-0.6-0.5c-0.2,0-0.4,0-0.5,0.1c-0.1,0.1-0.1,0.1,0,0.2c0,0.1,0,0.2-0.1,0.2c-0.1,0-0.2,0-0.3-0.1
		c-0.1-0.2,0-0.4,0.1-0.6c0.2-0.2,0.6-0.3,0.9-0.3c0.5,0.1,0.9,0.4,1,0.8c0.1,0.5,0,1-0.4,1.3c-0.2,0.2-0.5,0.3-0.8,0.4
		c-0.8,0.2-1.5-0.1-1.9-0.7c-0.5-0.8-0.3-2,0.4-2.7c1-0.9,2.4-1,3.7-0.1c0.5,0.3,1,0.8,1.4,1.2c1.1,1,2.2,2.1,3.7,1.9
		c0.6-0.1,1.4-0.8,1.4-1.3c0-0.3-0.2-0.4-0.6-0.5c-0.2,0-0.4,0.1-0.5,0.3c-0.1,0.2-0.1,0.3-0.1,0.4l0,0c0.1,0,0.2,0.1,0.2,0.2
		c0,0.1-0.1,0.2-0.3,0.2c-0.3-0.1-0.4-0.3-0.3-0.6c0.1-0.4,0.6-1,1.2-0.9C35.8,138.3,35.9,138.8,35.9,139L35.9,139z M37.1,140
		c0,0.2,0.2,0.4,0.4,0.4s0.4-0.2,0.4-0.4s-0.2-0.4-0.4-0.4S37.1,139.8,37.1,140z M38.4,140c0,0.4-0.4,0.8-0.9,0.8
		c-0.5,0-0.9-0.4-0.9-0.8c0-0.4,0.4-0.8,0.9-0.8C38,139.2,38.4,139.5,38.4,140z M37.1,10.3c0,0.2,0.2,0.4,0.4,0.4s0.4-0.2,0.4-0.4
		c0-0.2-0.2-0.4-0.4-0.4S37.1,10.1,37.1,10.3z M38.4,10.3c0,0.4-0.4,0.8-0.9,0.8c-0.5,0-0.9-0.4-0.9-0.8c0-0.4,0.4-0.8,0.9-0.8
		C38,9.5,38.4,9.9,38.4,10.3z M200,140c0,0.2,0.2,0.4,0.4,0.4c0.2,0,0.4-0.2,0.4-0.4s-0.2-0.4-0.4-0.4
		C200.2,139.6,200,139.8,200,140z M201.3,140c0,0.4-0.4,0.8-0.9,0.8c-0.5,0-0.9-0.4-0.9-0.8c0-0.4,0.4-0.8,0.9-0.8
		C200.9,139.2,201.3,139.5,201.3,140z M200,10.3c0,0.2,0.2,0.4,0.4,0.4c0.2,0,0.4-0.2,0.4-0.4c0-0.2-0.2-0.4-0.4-0.4
		C200.2,9.9,200,10.1,200,10.3z M201.3,10.3c0,0.4-0.4,0.8-0.9,0.8c-0.5,0-0.9-0.4-0.9-0.8c0-0.4,0.4-0.8,0.9-0.8
		C200.9,9.5,201.3,9.9,201.3,10.3z M213.4,139c0,0.4-0.1,0.7-0.3,1c-0.4,0.6-1.1,0.9-1.9,0.7c-0.3-0.1-0.6-0.2-0.8-0.4
		c-0.4-0.3-0.6-0.9-0.4-1.3c0.1-0.4,0.5-0.7,1-0.8c0.3,0,0.7,0.1,0.9,0.3c0.2,0.2,0.2,0.4,0.1,0.6c0,0.1-0.2,0.2-0.3,0.1
		c-0.1,0-0.2-0.1-0.2-0.2c0-0.1,0-0.1,0-0.2c-0.1-0.1-0.3-0.2-0.5-0.1c-0.4,0.1-0.6,0.3-0.6,0.5c-0.1,0.3,0,0.7,0.3,0.9
		c0.2,0.1,0.4,0.2,0.6,0.3c0.6,0.1,1.2-0.1,1.4-0.5c0.4-0.7,0.2-1.6-0.3-2.2c-1-1-2.3-0.7-3.2-0.1c-0.5,0.3-0.9,0.7-1.4,1.2
		c-1.1,1.1-2.4,2.2-4.1,2c-0.9-0.1-1.8-0.9-1.8-1.6c0-0.3,0.1-0.8,1-0.9c0.6-0.1,1.1,0.4,1.2,0.9c0.1,0.3-0.1,0.5-0.3,0.6
		c-0.1,0-0.2,0-0.3-0.2c0-0.1,0-0.2,0.2-0.2l0,0c0,0,0-0.2-0.1-0.4c-0.1-0.2-0.3-0.3-0.5-0.3c-0.4,0.1-0.6,0.3-0.6,0.5
		c0,0.5,0.8,1.2,1.4,1.3c1.4,0.2,2.6-0.9,3.7-1.9c0.5-0.5,1-0.9,1.4-1.2c1.3-0.9,2.8-0.8,3.7,0.1C213.2,137.8,213.4,138.4,213.4,139
		L213.4,139z M213.4,11.3c0,0.6-0.2,1.2-0.7,1.6c-1,0.9-2.4,1-3.7,0.1c-0.5-0.3-1-0.8-1.4-1.2c-1.1-1-2.2-2.1-3.7-1.9
		c-0.6,0.1-1.4,0.8-1.4,1.3v0c0,0.2,0.2,0.4,0.6,0.5c0.2,0,0.4-0.1,0.5-0.3c0.1-0.2,0.1-0.3,0.1-0.4l0,0c-0.1,0-0.2-0.1-0.2-0.2
		c0-0.1,0.1-0.2,0.3-0.2c0.3,0.1,0.4,0.3,0.3,0.6c-0.1,0.4-0.6,1-1.2,0.9c-0.9-0.2-1-0.7-1-0.9c0-0.7,0.9-1.5,1.8-1.6
		c1.7-0.2,2.9,1,4.1,2c0.5,0.4,0.9,0.9,1.4,1.2c0.8,0.6,2.2,0.9,3.2-0.1c0.6-0.6,0.7-1.5,0.3-2.2c-0.3-0.5-0.8-0.7-1.4-0.5
		c-0.2,0-0.4,0.1-0.6,0.3c-0.3,0.2-0.4,0.6-0.3,0.9c0,0.2,0.2,0.4,0.6,0.5c0.2,0,0.4,0,0.5-0.1c0.1-0.1,0.1-0.1,0-0.2
		c0-0.1,0-0.2,0.2-0.2c0.1,0,0.2,0,0.3,0.1c0.1,0.2,0,0.4-0.1,0.6c-0.2,0.2-0.6,0.3-0.9,0.3c-0.5-0.1-0.9-0.4-1-0.8
		c-0.1-0.5,0-1,0.4-1.3c0.2-0.2,0.5-0.3,0.8-0.4c0.8-0.2,1.5,0.1,1.9,0.7C213.3,10.6,213.4,10.9,213.4,11.3L213.4,11.3z
		 M226.5,131.9c0,0.1,0,0.3,0,0.4c-0.1,0.7-0.5,1.4-1.1,1.8c-0.5,0.3-1,0.4-1.5,0.3c-0.3-0.1-0.7-0.2-1-0.5
		c-0.2-0.2-0.4-0.5-0.5-0.8c-0.1-0.3-0.1-0.6,0-0.8c0.1-0.4,0.4-0.8,0.9-1c0.5-0.2,1.1,0.1,1.3,0.5c0.2,0.4,0.2,0.8-0.1,1.1
		c-0.1,0.1-0.2,0.1-0.3,0c-0.1-0.1-0.1-0.2,0-0.3c0.3-0.2,0.1-0.5,0.1-0.6c-0.1-0.2-0.5-0.4-0.8-0.3c-0.3,0.1-0.5,0.5-0.6,0.7
		c-0.1,0.2-0.1,0.4,0,0.6c0.1,0.2,0.2,0.4,0.4,0.6c0.2,0.2,0.5,0.3,0.8,0.4c0.5,0.1,0.9-0.1,1.2-0.2c0.5-0.3,0.8-0.9,0.9-1.5
		c0.2-1.2-0.4-2.2-1.6-2.6c-0.6-0.2-1.3-0.2-1.9,0c-0.8,0.4-1.5,1.2-1.8,2.1c-0.6,1.7,0.2,3.7,1.9,4.7c0.7,0.4,1.5,0.6,2.2,0.6
		c0.3,0,0.5-0.2,0.6-0.3c0.1-0.1,0.1-0.3,0.1-0.5c-0.1-0.2-0.3-0.4-0.6-0.5c-0.1,0-0.2,0-0.2,0.1c-0.1,0.1-0.1,0.1-0.1,0.2
		c0,0.1,0,0.2-0.2,0.2c-0.1,0-0.2,0-0.3-0.1c-0.1-0.2,0-0.4,0.2-0.6c0.2-0.2,0.4-0.2,0.6-0.2c0.5,0.1,0.8,0.4,0.9,0.8
		c0.1,0.3,0,0.6-0.1,0.8c-0.2,0.3-0.5,0.5-0.9,0.5c-1.1,0.1-2-0.3-2.5-0.6c0.3,0.5,0.7,1.3,0.6,2.2c0,0.4-0.2,0.7-0.5,0.9
		c-0.3,0.2-0.6,0.2-0.9,0.1c-0.4-0.1-0.7-0.4-0.8-0.8c0-0.2,0-0.4,0.2-0.5c0.2-0.1,0.4-0.2,0.6-0.1c0.1,0,0.2,0.1,0.2,0.2
		c0,0.1-0.1,0.2-0.3,0.1c-0.1,0-0.2,0-0.2,0.1c0,0-0.1,0.1-0.1,0.2c0.1,0.3,0.2,0.5,0.5,0.5c0.2,0,0.4,0,0.5-0.1
		c0.2-0.1,0.3-0.3,0.3-0.6c0.1-0.6-0.1-1.4-0.6-2.1c-1.1-1.5-3.2-2.3-5-1.7c-1,0.3-1.9,1-2.2,1.7c-0.3,0.6-0.3,1.2,0,1.8
		c0.5,1.1,1.6,1.6,2.8,1.4c0.6-0.1,1.2-0.4,1.6-0.9c0.2-0.2,0.4-0.6,0.2-1.1c-0.1-0.3-0.2-0.5-0.4-0.7c-0.2-0.2-0.4-0.3-0.6-0.3
		c-0.2,0-0.4,0-0.7,0c-0.3,0.1-0.6,0.2-0.8,0.6c-0.1,0.3,0.1,0.6,0.4,0.8c0.1,0.1,0.4,0.1,0.5-0.1c0.1-0.1,0.2-0.1,0.3,0
		c0.1,0.1,0.1,0.2,0,0.3c-0.3,0.3-0.7,0.4-1.1,0.2c-0.4-0.2-0.8-0.7-0.6-1.2c0.2-0.5,0.7-0.7,1-0.8c0.3-0.1,0.6-0.1,0.9,0
		c0.3,0.1,0.6,0.2,0.8,0.5c0.3,0.3,0.4,0.6,0.5,0.9c0.1,0.5,0,1-0.3,1.5c-0.4,0.6-1.1,1-1.9,1.1c-1.5,0.2-2.7-0.4-3.3-1.7
		c-0.3-0.7-0.3-1.4,0-2.1c0.4-0.9,1.4-1.6,2.5-2c1.4-0.4,2.9-0.2,4.1,0.6c-0.7-1.1-1-2.5-0.6-3.7c0.3-1.1,1.1-2,2.1-2.4
		c0.7-0.3,1.5-0.3,2.2,0C225.8,129.7,226.5,130.7,226.5,131.9L226.5,131.9z M226.5,18.4c0,1.2-0.7,2.2-1.9,2.6
		c-0.7,0.3-1.5,0.3-2.2,0c-0.9-0.4-1.7-1.3-2.1-2.4c-0.4-1.2-0.2-2.6,0.6-3.7c-1.2,0.7-2.7,1-4.1,0.6c-1.1-0.3-2.1-1.1-2.5-2
		c-0.3-0.7-0.3-1.4,0-2.1c0.6-1.2,1.8-1.9,3.3-1.7c0.7,0.1,1.5,0.5,1.9,1.1c0.3,0.4,0.4,0.9,0.3,1.5c-0.1,0.3-0.2,0.6-0.5,0.9
		c-0.2,0.2-0.5,0.4-0.8,0.5c-0.3,0.1-0.6,0.1-0.9,0c-0.4-0.1-0.9-0.3-1-0.8c-0.2-0.5,0.2-1,0.6-1.2c0.4-0.2,0.8-0.1,1.1,0.2
		c0.1,0.1,0.1,0.2,0,0.3c-0.1,0.1-0.2,0.1-0.3,0c-0.2-0.2-0.4-0.1-0.5-0.1c-0.3,0.1-0.5,0.5-0.4,0.8c0.1,0.3,0.5,0.5,0.8,0.6
		c0.2,0.1,0.5,0.1,0.7,0c0.3-0.1,0.5-0.2,0.6-0.3c0.2-0.2,0.3-0.5,0.4-0.7c0.1-0.5-0.1-0.9-0.2-1.1c-0.3-0.5-0.9-0.8-1.6-0.9
		c-1.3-0.2-2.4,0.4-2.8,1.4c-0.3,0.6-0.3,1.2,0,1.8c0.4,0.8,1.2,1.4,2.2,1.7c1.8,0.5,3.9-0.2,5-1.7c0.5-0.7,0.7-1.4,0.6-2.1
		c0-0.2-0.2-0.5-0.3-0.6c-0.2-0.1-0.3-0.1-0.5-0.1c-0.3,0.1-0.4,0.3-0.5,0.5c0,0.1,0,0.1,0.1,0.2c0.1,0.1,0.2,0.1,0.2,0.1
		c0.1,0,0.2,0,0.3,0.1c0,0.1,0,0.2-0.2,0.2c-0.2,0.1-0.5,0-0.6-0.1c-0.2-0.1-0.2-0.3-0.2-0.5c0.1-0.4,0.4-0.7,0.8-0.8
		c0.3-0.1,0.6,0,0.9,0.1c0.3,0.2,0.5,0.5,0.5,0.9c0.1,0.9-0.3,1.7-0.6,2.2c0.5-0.3,1.4-0.7,2.5-0.6c0.4,0,0.7,0.2,0.9,0.5
		c0.2,0.2,0.2,0.5,0.1,0.8c-0.1,0.4-0.5,0.7-0.9,0.8c-0.2,0-0.4,0-0.6-0.2c-0.2-0.2-0.2-0.4-0.2-0.6c0-0.1,0.2-0.2,0.3-0.1
		c0.1,0,0.2,0.1,0.2,0.2c0,0.1,0,0.2,0.1,0.2c0,0,0.1,0.1,0.2,0.1c0.3,0,0.5-0.2,0.6-0.5c0.1-0.2,0-0.4-0.1-0.5
		c-0.1-0.2-0.4-0.3-0.6-0.3c-0.7-0.1-1.5,0.1-2.2,0.6c-1.7,1-2.5,3-1.9,4.7c0.3,1,1,1.8,1.8,2.1c0.6,0.3,1.2,0.3,1.9,0
		c1.1-0.4,1.7-1.5,1.6-2.6c-0.1-0.6-0.4-1.2-0.9-1.5c-0.3-0.2-0.7-0.3-1.2-0.2c-0.3,0.1-0.5,0.2-0.8,0.4c-0.2,0.1-0.3,0.3-0.4,0.6
		c-0.1,0.2,0,0.4,0,0.6c0.1,0.3,0.3,0.6,0.6,0.7c0.3,0.1,0.7-0.1,0.8-0.3c0.1-0.1,0.2-0.3-0.1-0.6c-0.1-0.1-0.1-0.2,0-0.3
		c0.1-0.1,0.2-0.1,0.3,0c0.3,0.3,0.4,0.7,0.1,1.1c-0.2,0.4-0.8,0.6-1.3,0.5c-0.5-0.2-0.8-0.6-0.9-1c-0.1-0.3-0.1-0.6,0-0.8
		c0.1-0.3,0.3-0.6,0.5-0.8c0.3-0.2,0.6-0.4,1-0.5c0.5-0.1,1.1,0,1.5,0.3c0.6,0.4,1,1.1,1.1,1.8C226.5,18.1,226.5,18.3,226.5,18.4
		L226.5,18.4z M227.2,23.5c0,0.1,0,0.3,0,0.4c-0.1,0.3-0.2,0.5-0.4,0.7c-0.4,0.4-0.9,0.5-1.4,0.4c-0.5-0.1-0.8-0.5-0.8-0.9
		c-0.1-0.3,0.1-0.6,0.3-0.8c0.2-0.1,0.4-0.2,0.6-0.1c0.1,0,0.2,0.1,0.1,0.2c0,0.1-0.2,0.2-0.3,0.1c-0.1,0-0.2,0-0.2,0
		c-0.1,0.1-0.2,0.3-0.2,0.5c0.1,0.4,0.4,0.6,0.5,0.6c0.3,0.1,0.7,0,1-0.3c0.1-0.1,0.2-0.3,0.3-0.5c0.1-0.6-0.1-1.1-0.6-1.3
		c-0.7-0.4-1.7-0.2-2.3,0.3c-1,0.9-0.7,2.2-0.1,3c0.3,0.4,0.8,0.9,1.3,1.3c1.1,1.1,2.4,2.2,2.1,3.8c-0.1,0.8-1,1.6-1.8,1.7
		c-0.3,0-0.8-0.1-1-0.9c-0.1-0.5,0.5-1,0.9-1.1c0.3-0.1,0.6,0.1,0.6,0.3c0,0.1,0,0.2-0.2,0.2c-0.1,0-0.2,0-0.3-0.2l0,0
		c0,0-0.2,0-0.4,0.1c-0.2,0.1-0.4,0.3-0.3,0.5c0.1,0.4,0.3,0.6,0.5,0.6c0.5,0,1.2-0.7,1.3-1.3c0.2-1.3-0.9-2.4-2-3.4
		c-0.5-0.5-1-0.9-1.3-1.4c-0.9-1.2-0.9-2.6,0.2-3.5c0.7-0.7,2-0.8,2.9-0.4C226.9,22.4,227.2,22.9,227.2,23.5L227.2,23.5z
		 M227.2,126.8c0,0.6-0.3,1.1-0.8,1.4c-0.9,0.4-2.1,0.3-2.8-0.4c-1-0.9-1.1-2.3-0.2-3.5c0.3-0.5,0.8-0.9,1.3-1.4
		c1.1-1,2.2-2.1,2-3.4c-0.1-0.6-0.8-1.3-1.3-1.3c-0.3,0-0.5,0.2-0.5,0.6c0,0.2,0.1,0.4,0.3,0.5c0.2,0.1,0.4,0.1,0.4,0.1l0,0l0,0
		c0-0.1,0.1-0.2,0.3-0.2c0.1,0,0.2,0.1,0.2,0.2c-0.1,0.3-0.3,0.4-0.6,0.3c-0.5-0.1-1-0.6-0.9-1.1c0.2-0.8,0.7-0.9,1-0.9
		c0.7,0,1.6,0.9,1.8,1.7c0.2,1.5-1,2.7-2.1,3.8c-0.5,0.4-0.9,0.9-1.3,1.3c-0.6,0.8-0.9,2,0.1,3c0.6,0.5,1.6,0.7,2.3,0.3
		c0.5-0.3,0.7-0.7,0.6-1.3c0-0.2-0.1-0.4-0.3-0.5c-0.3-0.3-0.6-0.4-1-0.3c-0.2,0-0.5,0.2-0.5,0.6c0,0.2,0,0.4,0.2,0.5
		c0.1,0.1,0.1,0.1,0.2,0c0.1,0,0.2,0,0.3,0.1c0,0.1,0,0.2-0.1,0.2c-0.2,0.1-0.5,0-0.6-0.1c-0.2-0.2-0.3-0.5-0.3-0.8
		c0.1-0.5,0.4-0.8,0.8-0.9c0.5-0.1,1.1,0,1.4,0.4c0.2,0.2,0.3,0.5,0.4,0.7C227.2,126.5,227.2,126.7,227.2,126.8L227.2,126.8z
		 M225.9,116.3c0,0.2,0.2,0.4,0.4,0.4c0.2,0,0.4-0.2,0.4-0.4c0-0.2-0.2-0.4-0.4-0.4C226.1,115.9,225.9,116,225.9,116.3z
		 M227.2,116.3c0,0.4-0.4,0.8-0.9,0.8c-0.5,0-0.9-0.4-0.9-0.8c0-0.4,0.4-0.8,0.9-0.8C226.8,115.4,227.2,115.8,227.2,116.3z
		 M225.9,34c0,0.2,0.2,0.4,0.4,0.4c0.2,0,0.4-0.2,0.4-0.4c0-0.2-0.2-0.4-0.4-0.4C226.1,33.6,225.9,33.8,225.9,34z M227.2,34
		c0,0.4-0.4,0.8-0.9,0.8c-0.5,0-0.9-0.4-0.9-0.8c0-0.4,0.4-0.8,0.9-0.8C226.8,33.2,227.2,33.6,227.2,34z M227.7,141.9
		c0-0.4,0-1.6-0.7-2.2l0.2-0.1l-0.2,0.1c-0.7-0.7-1.9-0.8-2.4-0.8c0,0.4,0,1.6,0.7,2.2C226.1,141.8,227.3,141.9,227.7,141.9z
		 M228.2,141.7c0,0.3,0,0.4,0,0.4c0,0.1-0.1,0.2-0.2,0.2c-0.1,0-1.9,0.1-2.9-0.9c-1-1-0.8-2.7-0.8-2.7c0-0.1,0.1-0.2,0.2-0.2
		c0.1,0,1.9-0.1,2.9,0.9C228.1,140.1,228.2,141.1,228.2,141.7z M227,10.6c0.7-0.7,0.7-1.8,0.7-2.2c-0.5,0-1.7,0.1-2.4,0.8
		c-0.7,0.7-0.7,1.8-0.7,2.2C225.1,11.4,226.3,11.3,227,10.6L227,10.6z M228.2,8.6c0,0.6-0.1,1.6-0.8,2.3c-1,1-2.8,0.9-2.9,0.9
		c-0.1,0-0.2-0.1-0.2-0.2c0-0.1-0.2-1.8,0.8-2.7c1-1,2.8-0.9,2.9-0.9c0.1,0,0.2,0.1,0.2,0.2C228.1,8.2,228.2,8.4,228.2,8.6z
		 M231.5,75.2c0,1.3-1.1,2.3-2.4,2.3c-1.4,0-2.4-1-2.4-2.3c0-1.3,1.1-2.3,2.4-2.3C230.4,72.9,231.5,73.9,231.5,75.2z M6.6,75.2
		c0-1.3,1.1-2.3,2.4-2.3c1.3,0,2.4,1,2.4,2.3c0,1.3-1.1,2.3-2.4,2.3C7.7,77.5,6.6,76.5,6.6,75.2z M117.5,146.2
		c0-0.8,0.7-1.4,1.5-1.4c0.8,0,1.5,0.6,1.5,1.4s-0.7,1.4-1.5,1.4C118.2,147.6,117.5,147,117.5,146.2z M117.5,3.9
		c0-0.8,0.7-1.4,1.5-1.4c0.8,0,1.5,0.6,1.5,1.4s-0.7,1.4-1.5,1.4C118.2,5.3,117.5,4.7,117.5,3.9z M112.5,2.6H4.1
		C4,2.6,3.9,2.7,3.9,2.9v62.6c0,0,0,0.1,0,0.1l1.7,3.9c-1,1.6-1.7,3.6-1.7,5.8c0,2.2,0.8,4.2,1.7,5.8l-1.7,3.9c0,0,0,0.1,0,0.1v62.6
		c0,0.1,0.1,0.2,0.2,0.2h108.4c0.1,0,0.2-0.1,0.2-0.2c0,0,0-0.1,0-0.1c0-1.7,0.8-3.2,2.1-4.3c0.1,0,0.1-0.1,0.1-0.1
		c1.1-0.9,2.5-1.4,4.1-1.4c1.6,0,3.1,0.6,4.2,1.5c0,0,0,0,0.1,0.1c1.3,1.1,2,2.6,2,4.3c0,0.1,0,0.1,0.1,0.2c0,0.1,0.1,0.1,0.2,0.1
		H234c0.1,0,0.2-0.1,0.2-0.2V85c0,0,0-0.1,0-0.1l-1.7-3.9c1-1.6,1.7-3.6,1.7-5.8c0-2.2-0.8-4.2-1.7-5.8l1.7-3.9c0,0,0-0.1,0-0.1V2.9
		c0-0.1-0.1-0.2-0.2-0.2H125.6c0,0-0.1,0-0.1,0c-0.1,0-0.2,0.1-0.2,0.2c0,3.2-2.8,5.9-6.3,5.9c-1.6,0-3-0.5-4.1-1.4
		c0-0.1-0.1-0.1-0.1-0.1c-1.2-1.1-2-2.6-2.1-4.2c0,0,0-0.1,0-0.1C112.7,2.7,112.6,2.6,112.5,2.6L112.5,2.6z M6,68.9l-1.6-3.5V3.1
		h107.9c0.1,1.6,0.8,3,1.9,4.1H9c-0.1,0-0.2,0.1-0.2,0.2v58C8.4,65.8,7.1,67.1,6,68.9z M9.1,84.7c0.7-0.6,3.5-3.5,4.4-7.1
		C12.6,79,10.9,80,9,80c-1.8,0-3.4-0.9-4.3-2.3C5.7,81.3,8.4,84.1,9.1,84.7z M4.4,75.2c0,2.4,2.1,4.4,4.7,4.4s4.7-2,4.7-4.4
		c0-2.4-2.1-4.4-4.7-4.4S4.4,72.8,4.4,75.2z M14.2,75.2c0,5.1-4.3,9.3-4.9,9.9v5.6c1.6-1.5,7.6-7.9,7.6-15.4c0-7.5-6-13.9-7.6-15.4
		v5.6C9.9,65.9,14.2,70.1,14.2,75.2z M8.8,85c-0.4-0.4-1.7-1.7-2.8-3.5L4.4,85v62.3h107.9c0.1-1.6,0.7-3.1,1.9-4.1H9
		c-0.1,0-0.2-0.1-0.2-0.2C8.8,142.9,8.8,85,8.8,85z M17.3,75.2c0,8.3-7.2,15.3-8,16v51.5h105.4c1.2-0.9,2.7-1.5,4.4-1.5
		c1.7,0,3.2,0.6,4.4,1.5h105.4V91.2c-0.8-0.7-8-7.7-8-16s7.2-15.3,8-16V7.7c-5.6,0-105.4,0-105.4,0c0,0,0,0-0.1,0
		c-1.2,0.9-2.7,1.5-4.3,1.5c-1.7,0-3.2-0.6-4.4-1.5H9.3v51.5C10.1,59.9,17.3,66.9,17.3,75.2L17.3,75.2z M123.9,143.2
		c1.1,1.1,1.8,2.5,1.8,4.1h108V85l-1.6-3.5c-1.2,1.8-2.4,3.1-2.8,3.5v58c0,0.1-0.1,0.2-0.2,0.2H123.9z M125.7,3.1
		c-0.1,1.6-0.8,3.1-1.9,4.1h105.2c0.1,0,0.2,0.1,0.2,0.2v57.9c0.4,0.4,1.7,1.7,2.8,3.5l1.6-3.5V3.1H125.7z M228.8,59.8
		c-1.6,1.5-7.6,7.9-7.6,15.4c0,7.5,6,13.9,7.6,15.4v-5.6c-0.6-0.6-4.9-4.8-4.9-9.9c0-5.1,4.3-9.3,4.9-9.9
		C228.8,65.4,228.8,59.8,228.8,59.8z M224.6,72.8c0.9-1.4,2.5-2.4,4.4-2.4c1.8,0,3.4,0.9,4.3,2.3c-1-3.6-3.7-6.3-4.4-7
		C228.4,66.4,225.6,69.2,224.6,72.8z M229,84.7c0.7-0.6,3.4-3.4,4.4-7c-0.9,1.4-2.5,2.3-4.3,2.3c-1.9,0-3.5-1-4.4-2.4
		C225.6,81.2,228.4,84,229,84.7z M224.4,75.2c0,2.4,2.1,4.4,4.7,4.4c2.6,0,4.7-2,4.7-4.4s-2.1-4.4-4.7-4.4
		C226.5,70.8,224.4,72.8,224.4,75.2z"/>
</g>
</svg>
