<?xml version="1.0" encoding="utf-8"?>
<!-- Generator: Adobe Illustrator 26.0.3, SVG Export Plug-In . SVG Version: 6.00 Build 0)  -->
<svg version="1.1"
	 id="Слой_1" image-rendering="optimizeQuality" text-rendering="geometricPrecision" shape-rendering="geometricPrecision" xmlns:xodm="http://www.corel.com/coreldraw/odm/2003"
	 xmlns="http://www.w3.org/2000/svg" xmlns:xlink="http://www.w3.org/1999/xlink" x="0px" y="0px" viewBox="0 0 238.1 150.2"
	 style="enable-background:new 0 0 238.1 150.2;" xml:space="preserve">
<g>
	<path d="M165.9,58c-0.4,0.7,0.5,1.2,1,1.5c-0.2-0.3-0.6-1-0.9-1.3c0.5,0.5,1.1,0.7,1.8,0.6C167.3,58.4,166.7,57.6,165.9,58z"/>
	<path d="M132.6,57.9c1.5,0.5,3,1.5,4.7,1.3c0.2,0,0.5,0.1,0.6,0.2c0.3-0.4,0.6-0.8,0.9-1.2c-0.6,0.6-1.4,1.1-2.3,0.8
		c-2-0.5-3.7-1.8-5.7-2.4c-1.4-0.1-2.9,0-4.3,0.1c-1.5,0.5-3.5,1.3-3.4,3.2c0.1,3.3-0.4,6.5-0.5,9.8c0.2-1.4,0.6-2.8,0.5-4.2
		c0-0.9-0.1-1.9,0.1-2.8c0.2-1.3-0.1-2.7,0.3-4C126,56.7,129.8,56.3,132.6,57.9z"/>
	<path d="M113.4,99.4c-3,2-6,4.1-8.1,7.1c-0.6,0.8-0.5,1.9-0.2,2.8c0.3-1,0.2-2.1,0.9-2.9c2.2-2.7,4.9-4.8,7.8-6.6
		c2-1.2,4.4-0.9,6.5-1.8c1.7-0.6,3.7-1.5,5.4-0.4c3.6,2.1,5.4,6,8,9.1c1.3,1.9,3.3,3.2,5,4.7l0.3,0.2c-0.7-1-1.8-1.7-2.7-2.6
		c-2.6-2.7-4.7-5.9-7.1-8.9c-0.9-1.3-2.3-2.1-3.4-3.2c2,0.4,3.2,2.2,4.5,3.6c1.8,2,3.6,4.1,5.7,5.8c1.9,1.5,3.8,3.1,6,4.3
		c0.4,0.3,1,0.4,1.5,0.3c-2.8-0.9-4.9-2.9-7-4.9c-2.8-2.1-4.4-5.4-7.2-7.6c-1.4-1.5-3.5-2-5.4-2.9c2.7,0,5.2,1.6,7.8,2.1
		c3.9,0.1,8,0.8,11.4,2.7c5.7,2.8,10.8,6.7,16.6,9.2c-0.1-0.1-0.4-0.4-0.5-0.6c-3.1-1.6-6.2-3.3-9.1-5.4c-2.8-1.7-5.7-3.3-8.6-4.7
		c-2.5-1.2-5.2-1.5-7.9-1.6c-2.5-0.1-4.9-0.9-7.2-1.8c-1.7-0.7-3.5-0.6-5.2-0.7c0.9-0.4,1.8-0.9,2.8-0.6c2.1,0.5,4,1.4,6.1,1.9
		c2.2,0.6,4.5,0.5,6.8,0.9c1.9,0.3,4,0.3,5.7,1.4c4.2,2.4,8.6,4.6,12.4,7.6c2,1.6,4.4,2.4,6.8,3.1c0.7,0.2,1.4,0.5,2,0.8
		c0-0.1-0.1-0.4-0.2-0.5c-2.8-1.4-6.1-1.8-8.4-4l0.1-0.6c-0.5,0.5-1-0.1-1.4-0.3c-2.7-2-5.6-3.6-8.6-5c-1.7-0.7-2.8-2.3-4.7-2.6
		c-2.4-0.4-4.7-1-7.1-1.1c-1.7,0-3.4-0.3-5.1-0.8c-1.8-0.6-3.5-1.5-5.5-1.4c-1.2,0.2-2.3,0.8-3.4,1.2c-2,0.7-4.2,0.4-6.3,0.9
		c-1.1,0.5-1.9,1.4-2.8,2.1c-2.5,1.8-5.2,3.1-7.7,4.9c-1.1,1.7-1.1,3.9-1.1,5.8c0.2,2.8,0.1,5.7-0.2,8.5c-0.1,1-0.2,1.9-0.2,2.9
		c1.2-2.5,0.9-5.4,1.1-8.1c0.6,1.5,0.6,3.2,1,4.7c0.4,1.8,0.6,3.6,0.9,5.3c0.6-2-0.2-4.1-0.5-6.1c-0.8-2.3-0.3-4.7-0.6-7l0.3-0.5
		c0.5-1.6,0.8-3.4,2.2-4.4c2.3-2,5.2-3.2,7.2-5.6c-2.3,1.5-4.4,3.4-6.8,5c-0.2,0.1-0.6,0.2-0.8,0.2c0.2-0.3,0.5-0.8,0.7-1
		c-0.5-0.1-0.9,0.4-1.2,0.8c-0.4,0.4-0.8,0.6-1.3,0.7c0.8-1.1,2-1.9,3.2-2.6c1.7-0.8,3.1-2.1,4.5-3.4c1.1-0.7,2.1-1.9,3.5-1.9
		c1.8,0,3.6-0.5,5.4-0.6c-0.5,0.5-1.2,0.7-1.9,1c1.2,0.2,2.5,0.6,3.6-0.1c1.1-0.6,2.2,0,3.3,0.3c-1.8,0-3.5,0.1-5.1,0.9
		C118.1,98.6,115.4,98,113.4,99.4z"/>
	<path d="M103.4,59.8c-0.9,2.6-2,5.1-2.6,7.7c-0.5,1.5-1.7,2.7-2.8,3.9c-0.9,1-2,1.9-2.8,3c0.7,1,1.3,2.2,1.8,3.3
		c0.7,1.6,0.5,3.4,0.6,5.1c0.2,2.4,0.5,4.9-0.6,7.1c1.3-2.3,2.4-4.8,2.4-7.5c0-1.3,0.9-2.4,0.7-3.8c0-1.4,0.4-3.3-1-4.1
		c0.2-0.5,0.1-1.1,0.3-1.6c0.4-0.5,0.9-1,1.3-1.5c0.1-0.7,0.1-1.5,0.8-1.9c0.2-0.6,0.3-1.2,0.4-1.9c0.1,0,0.4,0.1,0.5,0.2
		c-0.1-0.2-0.3-0.7-0.4-0.9l0.6,0c0-0.2,0-0.7,0-0.9c0.4-0.5,0.4-1.1,0.5-1.7c0.7-0.9,0.9-2,1.4-3c0.5-0.8,0.3-1.9,0.6-2.8
		c0.5-1,1.3-1.9,2-2.8C105.5,56.2,104.6,58.3,103.4,59.8z"/>
	<path d="M166.6,56.1c-1.6-0.3-2.2,1.5-3.1,2.4c1.1,1,2.9,1.4,3.7,2.7c0.2-0.1,0.4-0.3,0.6-0.4c-1.2-0.8-2.5-1.4-3.6-2.3
		c0.6-0.9,0.9-2.3,2.2-2.1c0.7,0.7,1.4,1.5,2.1,2.3l-0.6,0.3c0.7-0.1,1.1,0.7,1.7,1C168.8,58.6,168.1,56.9,166.6,56.1z"/>
	<path d="M207.1,58.4c-1.1-0.6-2.3-0.7-3.5-1C204.7,57.9,205.9,58.3,207.1,58.4z"/>
	<path d="M169.9,61.6c-0.4-1-1.2-1.8-1.9-2.7c0-0.1-0.1-0.2-0.2-0.2l-0.4,0.4C168.3,59.9,168.6,61.2,169.9,61.6z"/>
	<path d="M229.6,78.8c-1-0.6-2-1.1-3.1-1.6c-4.7-2.5-8-6.8-12.6-9.3c0.2,0.5,0.4,1,0.6,1.5c0.3,0,0.6-0.2,0.9,0
		c1.5,0.8,2.6,2.3,4,3.2c2,1.9,4.3,3.5,6.7,4.8c1.1,0.4,2.2,0.9,3.2,1.5c0.6,0.3,1.1,0.8,1.8,0.6C230.9,79,230.1,79,229.6,78.8z"/>
	<path d="M146.7,72.8c-1.8-2.7-3.8-5.2-5.6-8c-0.1,0.2-0.2,0.6-0.3,0.9c0.1-0.6-0.1-1.1-0.4-1.5c-1.3,1.8-2.2,3.8-3.7,5.4
		c-1.3,1.4-2.6,2.9-3.7,4.4c1.2-0.4,2.4-0.8,3.7-1.1c0.9,0.1,1.9,0,2.8-0.1c0.1-0.2,0.4-0.5,0.5-0.7c0.6-0.7,1.2-1.4,1.8-2.1
		c1.3,0.8,2.3,1.9,3.5,2.9c0.2,0.2,0.4,0.3,0.6,0.5c2.3,2.1,4.8,4.1,6.8,6.5c-0.1-0.2-0.3-0.6-0.5-0.8c-0.6-0.7-1.1-1.3-1.6-2
		C149.4,75.6,147.8,74.5,146.7,72.8z"/>
	<path d="M207.1,75.8l0.1,0.2c1.2-0.1,0.1-1.2-0.5-1.2c0.1,0.2,0.2,0.6,0.3,0.8L207.1,75.8z"/>
	<path d="M165.7,86.1c-0.5-0.7-1-1.4-1.5-2c-0.3-0.2-0.8-0.7-1.1-0.9C163.7,84.4,164.7,85.3,165.7,86.1z"/>
	<path d="M157.3,44.1c-0.2,1.8-0.6,3.6-0.5,5.5c1-0.7,1.9-1.8,3.2-2C159.1,46.4,158.3,45.2,157.3,44.1z M157.3,45.5
		c0.9,0.4,1.3,1.3,1.9,2c-0.8,0.3-1.5,0.9-2.2,1.5C157.1,47.8,157.2,46.6,157.3,45.5z"/>
	<path d="M116.6,90.9c-1.1,0.7-2.3,1.3-3.2,2.3c1.7-1.1,3.6-1.9,5.2-3c2.9-2,5.6-4.5,7.6-7.5c1.2-2,2-4.2,3.3-6.1
		c1.5-2.8,3.7-5.2,5.7-7.7c1.8-1.7,3.1-3.7,4-6c0.5-1.9,1.8-3.5,3.4-4.6c1-0.7,2.1-1.2,3-2.1c1.6-1.7,3.1-3.5,4.6-5.2
		c0.6-0.7,0.8-1.6,1-2.5c-0.4,0.9-0.7,1.8-1.3,2.5c-1.8,2.4-3.7,4.8-6.5,6.1c-2.2,1-4.2,2.9-4.4,5.4c-0.9,4.2-5.4,5.9-7.3,9.4
		c-1.9,2.5-3.1,5.5-4.7,8.2C124.7,84.7,120.9,88.3,116.6,90.9z"/>
	<path d="M177.2,53.2c0,0.5,0,1,0,1.5c0.6,0.7,1.2,1.3,1.9,1.9c0,1.1,0.1,2.3,0.5,3.3c1.5-0.8,2.2-2.6,2.8-4.1
		c0.2-0.4,0.4-0.7,0.7-1.1c-0.3,0-1,0-1.3,0c0,0.2,0.1,0.5,0.1,0.7c-0.6,1.1-1,2.4-2,3.2c-0.1-0.7-0.2-1.3-0.3-2
		c0.2,0.1,0.7,0.3,0.9,0.4c0-0.7,1.1-1.8-0.2-2.1c0,0.3,0,0.9,0,1.2c-0.5-0.3-0.7-0.7-0.7-1.3c-0.2,0-0.7,0-1,0c0.3,0.5,0.7,1,1,1.6
		c0,0,0.1,0.1,0.1,0.2l-0.1,0l0-0.1l-0.4-0.1c-0.4-0.5-0.9-0.9-1.4-1.3c0-0.3,0-1,0-1.3c1.3,0.3,2.6,0.8,3.9,1.2
		C180.6,53.6,178.7,53.7,177.2,53.2z"/>
	<path d="M105.4,55.8c-3.3,2-5.2,5.7-5.4,9.5c0,1.6-0.5,3-1.2,4.4c2.4-2.3,1.3-5.9,2.7-8.6C102.4,59,104.1,57.5,105.4,55.8z"/>
	<path d="M114.5,59.9c-1.4-0.2-2.4-1.1-3.2-2.2c-0.5-0.9-2-0.9-2.5,0c-0.8,1.3-1.5,2.9-1.2,4.5c0.4-1.5,0.8-3.1,1.8-4.4
		c0.3-0.2,0.7-0.3,1-0.5c0.9,1.4,2.1,2.7,3.8,2.7c-0.7,0.8-1.4,1.4-2.2,2.1l0.2,0.2C113,61.5,113.8,60.7,114.5,59.9z"/>
	<path d="M165,89.3c0.2,0.1,0.7,0.4,0.9,0.6c-0.2,0.2-0.5,0.4-0.7,0.6c0.4,0.3,0.7,0.6,1.1,0.9c0-0.2,0-0.6,0-0.8
		c0.5,0.2,0.9,0.4,1.4,0.7c-1.7-1.5-3.5-2.7-5.3-4.1c0.5,0.6,1.1,1.2,1.5,1.9c-1-0.7-2.2-1.3-3-2.3l0-0.3c0.3,0,0.8,0.1,1,0.2
		c-0.8-0.6-1.4-1.3-2-2.1c-1.7-2.3-4.5-3.6-5.9-6.1c-1.3-2.2-2.7-4.3-4.7-6c-2-2.1-3-5-5.4-6.7c0.3-0.7,0.5-1.3,0.9-1.9
		c0.9-0.9,2.5-0.3,3.3-1.3c0.6-0.8,0.9-1.9,1.8-2.4c1-0.5,1.2-1.7,1.7-2.7c0.1-0.1,0.2-0.3,0.2-0.4c0.7-1.4,1.6-2.6,2.4-3.9
		c-0.4,0.2-0.7,0.4-1.1,0.6c0.1-0.5,0.4-1.4,0.5-1.8c-1.6,1.4-1.9,3.6-2.9,5.4c-0.6,0.8-1.7,1.2-2.6,1.6c-0.9,1.2-1.5,3.1-3.4,2.9
		c0.5,0.2,1.1,0.3,1.6,0.5c1.3-1.6,2.3-3.4,4.3-4.1c0.1,0.9-0.8,1.2-1.3,1.7c-1,0.6-1.2,1.9-2.3,2.3c-0.8,0.4-1.6,0.6-2.3,1
		c-0.7,0.7-1.2,1.5-1.8,2.3c0.2,0.2,0.6,0.5,0.8,0.7c-0.2,0.2-0.4,0.4-0.7,0.5c-0.2-0.5-0.5-1.1-0.7-1.6c1-1.1,1.8-2.5,2.1-4
		c-1.4,0.8-1.8,2.5-2.8,3.6c0.4,1.4,1.5,2.4,2.3,3.6c1.8,2.6,4,4.9,6.1,7.1c0.8,1,1.6,2.1,2.1,3.3l-0.2,0.6l0.4-0.6
		c1.3,2.6,4,3.9,5.8,6.1c1.2,1.4,2.8,2.3,4,3.7c0.9,0.4,1.8,1,2.5,1.6C164.9,89.9,164.9,89.5,165,89.3z M156.8,82.4l0.5-0.2l-0.6,0
		c-2.2-1.2-3.5-3.4-4.8-5.5c-1.2-1.9-3-3.3-4.4-5.1c-1.4-1.6-2.6-3.5-4.1-5c0.2,0,0.7,0,0.9,0c1.8,1.9,3,4.2,4.8,6
		c2.1,1.7,3.6,4.1,5,6.4c0.8,1.3,2,2.2,3.1,3.1c1.4,1,2.6,2.4,3.7,3.8l-0.2,0.2C159,85.5,158.2,83.6,156.8,82.4z"/>
	<path d="M109.9,58.8c0.5,0.6,1.2,1.1,1.5,1.9c-0.2,1.1-1.7,1.3-2,2.4c0.9-0.7,1.6-1.5,2.5-2c0.4-0.2-0.3-0.5-0.4-0.6
		c-0.5-0.7-1-1.9-1.9-2c-1,0.8-1.1,2.3-1.5,3.4c0.1-0.1,0.3-0.4,0.4-0.5l0.3,0.3C108.5,60.6,109.6,59.8,109.9,58.8z"/>
	<path d="M207.2,58.5c0.2,0.2,0.5,0.7,0.7,0.9c1.1,0.9,2.2,1.8,3.3,2.6C210.2,60.6,208.6,59.5,207.2,58.5z"/>
	<path d="M182.1,66.4c0.8,3.1,2.6,5.7,3.5,8.7c0.2,0.7-0.3,1.3-0.5,1.9c0.4-0.4,0.7-0.9,0.9-1.5c-0.8-2-1.1-4.1-2.1-6
		c-1.1-2.2-1.6-4.6-2.4-6.9c0.3-0.4,0.7-0.9,1-1.3c-0.5,0.3-1,0.7-1.6,1C181,63.8,181.8,65,182.1,66.4z"/>
	<path d="M209.7,61.9c2.6,3.7,6.3,6.3,9.8,9.1c3.1,2.9,7,4.8,10.7,6.7c-0.5-0.5-1.2-0.9-1.8-1.2c-3.3-1.6-6.4-3.6-9.1-6.1
		c-2.9-2.3-5.9-4.7-8.1-7.7l-0.1-0.2l-0.2,0C210.5,62.3,210.1,62.1,209.7,61.9z"/>
	<path d="M212.2,63c0.1-0.5-0.5-1.2-1-1c0,0.1-0.1,0.4-0.1,0.6C211.5,62.8,211.8,62.9,212.2,63z"/>
	<path d="M165.4,64.2c0.4,1.2,1.1,2.4,1.6,3.5l0.1-0.5C166.6,66.2,166.2,65.1,165.4,64.2z"/>
	<path d="M208.5,70.3c-0.5-0.1-0.7-0.6-0.9-1c-1.3-1.8-3.2-3.6-5.5-3.9c2,3.3,4.5,6.3,7,9.2c0.2,0,0.6-0.1,0.9-0.2
		c-0.2,0-0.7-0.2-0.9-0.2c-1.4-1.3-2.3-3-3.4-4.5c-0.8-1.2-1.9-2.1-2.3-3.5c0.5,0.1,1,0.3,1.4,0.6c2.5,1.9,4,4.8,5.3,7.6l0.1,0
		c1.1,1.5,2.4,2.8,3.8,4c1.4,1.1,2.5,2.5,4.1,3.3c0.1,0,0.3,0.1,0.4,0.1l-0.2-0.2c-2.4-2-4.8-4-6.9-6.3c-1-1-1.6-2.4-2.2-3.7
		C208.7,71.3,208.3,70.8,208.5,70.3z"/>
	<path d="M175.9,68.7c-0.1,0.5,0.3,1,0.7,1.3C176.8,69.4,176.5,68.8,175.9,68.7z"/>
	<path d="M215.5,69.9c-0.1,0.4-0.1,0.8,0.3,1c1.1,1.2,2.5,2.1,3.3,3.5c2.3,1.3,3.7,3.7,5.9,5.2c1.5,0.9,3,1.9,4.7,2.3
		c-2-0.9-3.8-2.2-5.5-3.6C221.3,75.5,218.4,72.7,215.5,69.9z"/>
	<path d="M79.2,80.3c1-1.3,2.1-2.5,2.8-3.9c-0.4,0.2-0.9,0.4-1.3,0.6c-1.5,1.7-3.2,3.1-4.9,4.6c-0.3,0.2-0.5,0.6-0.6,0.9
		c1.4-1.1,2.6-2.3,4-3.4c-0.8,1.9-2.6,3.1-4.1,4.4c-1.1,0.9-2,2.1-3.2,2.9c-0.8,0.5-1.6,1.1-2.2,1.9c-1.2,1.6-2.9,2.9-4,4.6
		c1.4-0.8,2.4-1.9,3.5-3c1.7-1.8,3.5-3.4,5.2-5.2C76,83.2,78,82.1,79.2,80.3z"/>
	<path d="M74.4,81.3c-1.9,1.4-4.1,2.3-6,3.6c-0.7,0.4-1.4,0.7-2,1.1c1-0.3,1.9-0.8,2.9-1.3c1.5-0.7,3.1-1.3,4.4-2.3
		c2.1-1.5,3.7-3.5,5.6-5.3c-0.1,0-0.2-0.1-0.3-0.1C77.5,78.5,76.1,80.1,74.4,81.3z"/>
	<path d="M198.4,95.9c-2-2-3.4-4.5-5-6.8c-2.1-2.6-4.2-5.5-7.3-6.9c-1.4-0.6-2.6-1.6-3.9-2.3c1.8,2.5,5.2,2.8,7.2,5.1
		c3.6,4,6.1,9,10,12.7c1,1.1,1.7,2.5,2.8,3.6c0.7,0.5,1.3,1.6,2.2,1.5C201.7,101.1,200.7,97.9,198.4,95.9z"/>
	<path d="M154.1,114.1c-4.2-1.7-8.2-4-12.2-6c-2.6-1.3-3.7-4.2-6.3-5.4c-1.5-0.9-2.6-2.2-3.6-3.5c4,0,7.8,1.5,11.3,3.4
		c1.9,1.2,3.8,2.5,5.7,3.8c4.3,3,9.1,5.1,13.9,6.8c0.2,0.1,0.7,0.2,1,0.3c0.3,0.2,0.7,0.5,1,0.7c-0.9-1-2.3-1.1-3.4-1.6
		c-1.1-0.5-2.2-1-3.3-1.4c-5.4-2.3-10.1-6-15-9.1c-3.6-1.7-7.5-3.4-11.6-3.1c0.9,1.2,1.8,2.5,3.1,3.4c0.9,0.7,2.1,1,2.8,2
		c1.4,1.8,3,3.4,5,4.4c4.9,3.2,10.3,5.6,15.8,7.7c2.6,1.1,5.3,2.2,7.7,3.8c0.6,0.4,1.2,0.9,2,1c-0.6-0.3-1.2-0.7-1.7-1.1
		C162.5,117.4,158.2,115.8,154.1,114.1z"/>
	<path d="M107.5,67c-0.2,0.4-0.7,0.9-0.6,1.4c0.7-0.7,1.2-1.5,1.6-2.4C107.9,65.8,107.8,66.7,107.5,67z"/>
	<path d="M130.1,55.3c1.7,0.7,3.4,1.5,5.1,2.1c0.9,0.3,1.9,0.4,2.6-0.3c1.5-1.3,1.3-3.7,3.2-4.6c1.7,0.3,3.4,0.7,5.2,0.4
		c1.2-0.5,2-1.6,2.8-2.5c0.5-1.2,1.2-2.3,2.4-3c0-0.2-0.1-0.6-0.1-0.8c-0.9,0.9-1.9,1.8-2.3,3c-0.6,1.5-2,3-3.7,3
		c-1.4,0-2.8,0.2-4.1-0.4c-2.5,0.6-2.3,3.8-4.3,5c-2.7-0.3-5.1-1.6-7.6-2.3c-2.5,0.2-4.7,1.5-7.1,2.3
		C124.9,57.1,127.3,55.2,130.1,55.3z"/>
	<path d="M131.3,66.5c0.7-1,1.6-1.7,2.4-2.5c0.8-0.9,0.2-2.4-0.8-2.7c-1.7-1-3.7-0.7-5.5-1.1c-0.8,0.2-1.5,0.7-1.7,1.5
		c-0.8,3.6-0.4,7.2-0.8,10.8c-0.1,1.2,0.3,2.3,0.3,3.4c1.5-1.8,2-4.1,3.1-6.1C129.1,68.5,130.4,67.7,131.3,66.5z M125.4,74.7
		c0-1.3,0-2.6,0.1-4c0.3,0.4,0.7,0.8,0.7,1.4c0.8-1,1-2.3,0.3-3.4c0,0.6,0.1,1.3,0.1,1.9c-0.2,0-0.7,0.1-0.9,0.1
		c0-2.6,0.1-5.1,0.2-7.6c0-1,0.6-2.1,1.7-2.4c1.6-0.2,3.1,0.5,4.7,0.8c0.9,0.3,2.4,1.5,1.3,2.4c-1.2,1.1-2.2,2.3-3.4,3.5
		c-2.3,1.8-2.9,4.8-4.3,7.3L125.4,74.7z"/>
	<path d="M72.6,80.9c-1.7,1.4-3.9,2-5.8,3.2c0.2,0,0.6-0.1,0.8-0.1c2.3-0.8,4.4-2.1,6.3-3.7c1.2-1,2.6-1.8,3.5-3
		c-0.2,0.1-0.5,0.3-0.7,0.4C75.4,78.9,73.9,79.8,72.6,80.9z"/>
	<path d="M183.9,96.4c-0.2-1-1.2-1.5-1.9-2.2C182.4,95.1,183.1,95.8,183.9,96.4z"/>
	<path d="M98.9,95.6c-1.5,1-3.3,1.9-4.4,3.5c-1.9,2.5-3.6,5.2-6.1,7.1c1.2-0.5,2.2-1.4,3.1-2.4c1.9-2.1,3.2-4.8,5.5-6.5
		C97.7,96.8,98.4,96.3,98.9,95.6z"/>
	<path d="M106.7,110.4c0-1.4,0.2-3,1.3-3.9c2.5-2.5,5.4-4.7,8.6-6.2c2.6-0.4,5.1-1.9,7.8-1.4c1.6,0.9,3,2.3,4.1,3.8
		c1.3,1.7,2.8,3.2,4.1,5c1.7,2.5,3.5,5,5.8,7l-0.2-0.3c-3-3.2-5.3-6.9-8-10.4c-1.3-2-3-3.9-5.1-5.2c-2.3-1-4.7,0.3-7,0.8
		c-2.9,0.5-5.3,2.3-7.5,4c-1.5,1.3-3.2,2.5-4,4.4c-0.7,2.1-0.5,4.4,0.2,6.4c0.4,1,0.8,2.1,1.3,3.2c-0.1-0.5-0.2-0.9-0.3-1.4
		C107.3,114.3,106.6,112.4,106.7,110.4z"/>
	<path d="M201.7,118.9c1.6,0.2,3.2,0,4.8-0.4c0.5-0.2,1.1-0.2,1.3-0.7c-0.3,0.1-0.6,0.1-1,0.2C205.1,118.3,203.4,118.6,201.7,118.9z
		"/>
	<path d="M127.6,123.1c-1.6-1.5-2.9-3.2-4.4-4.7c0.5,0.8,1.1,1.6,1.7,2.4c1.4,1.4,2.5,3.2,4.3,4.1
		C128.8,124.2,128.2,123.6,127.6,123.1z"/>
	<path d="M163,125.1c-0.9-0.8-2-1.4-3.1-1.9C160.6,124.3,161.9,124.7,163,125.1z"/>
	<polygon points="145.1,77.4 144.9,77.5 145,77.6 145.2,77.5 	"/>
	<path d="M178.1,74.1c0.1,0.2,0.4,0.5,0.5,0.7c-0.1-0.2-0.2-0.5-0.2-0.6L178.1,74.1z"/>
	<path d="M98.3,70.2c-0.6,0-0.9,0.3-0.9,0.9C97.9,70.9,98.2,70.7,98.3,70.2z"/>
	<path d="M211.1,60.5c2.2,2.5,4.4,5,7.1,6.8c1.6,1.1,2.9,2.5,4.5,3.5c1.6,0.8,3.1,1.7,4.8,2.4c0.3,0.1,0.7,0.3,1,0.4
		c-2.6-1.7-5.5-3.1-7.7-5.4c-1-1-2-1.9-3.2-2.6c-1.9-1-3.5-2.5-5.1-4.1c-1-0.9-1.6-2.2-2.8-2.8c-1.2-0.6-2.2-1.7-3.6-2.1
		c-1.7-0.6-3.5-0.8-5.3-1.1c1.8,1.4,4.2,0.9,6.1,2.1C208.4,58.5,210,59.2,211.1,60.5z"/>
	<path d="M217.9,68.4c3.4,3.1,7.5,5.3,11.7,7.2c0.1,0.1,0.4,0.2,0.5,0.2c-0.9-0.6-1.8-1-2.8-1.5c-4.6-2.2-8.3-5.6-12.2-8.8
		c-1-0.8-1.7-2-2.9-2.6C213.5,65.4,216,66.6,217.9,68.4z"/>
	<path d="M106,69.3c-0.8,2.2-1.3,5.3,1,6.7c0,1.4-0.1,2.8,0.1,4.2c0.3-1.4,0.1-2.8,0.2-4.2c0.1-1.2-1.4-1.8-1.3-3
		c-0.3-1.6,0.3-3.1,1-4.6C106.3,68.1,106.3,69,106,69.3z"/>
	<path d="M205.7,73.2l-0.2-0.1l0-0.2c-0.2-0.1-0.7-0.3-0.9-0.4c0,0.1,0.1,0.3,0.2,0.4c0.4,0.6,0.9,1.2,1.4,1.7
		c-0.1-0.3-0.2-0.9-0.2-1.3l-0.2,0.1L205.7,73.2z"/>
	<path d="M173.7,68.1c1.7,1.8,3.2,3.9,4.4,6c-0.1-0.6-0.2-1.1-0.3-1.7l-0.3-0.1c0-0.2,0-0.5,0-0.6c-0.7,0.2-0.9-0.6-0.8-1.2
		c-1.4-1-2.1-2.7-3.4-3.8c-1.7-1.6-3.5-3.1-5.4-4.5c-2.1-1.2-4.1-2.5-6.3-3.5c1.2-1.1,2.2-2.5,2.2-4.1c2-0.8,3.9,0.6,4.9,2.3
		c2.9,3.8,5.3,7.8,7.9,11.7c0.4,0.6,0.8,1.1,1.3,1.6c-0.5-2.1-2.1-3.6-3.2-5.4c-2.4-2.8-3.7-6.3-6.1-9.1c-1.1-1.2-2.6-2.1-4.2-1.7
		c-0.9,0-1.1,1-1.3,1.7c-0.2,1.1-1.2,1.9-2,2.6c-0.2-0.2-0.4-0.4-0.6-0.6c0.9-0.4,1.6-1.2,1.9-2.1c0-0.8-0.3-1.5-0.4-2.2
		c1.2,0.1,2.4-0.1,3.7-0.2c1-0.2,1.8,0.6,2.6,1.2c2,1.7,3,4.1,4.6,6c3,3.7,5.4,7.9,7.6,12.1c0.9,1.8,1.7,4.5,4.1,4.6
		c-0.6-0.5-1.3-0.9-1.9-1.5c-0.8-1.2-1.2-2.5-1.9-3.8c-2.9-4.8-5.4-9.9-8.9-14.3c-1.4-1.8-2.8-3.9-5-4.8c-1.7-0.1-3.4,0.2-5.1,0.3
		c0.1,0.9,0.3,1.9,0.3,2.8c-0.7,1.7-2.5,2.3-4,3.1c2.8,1.6,5.8,3.1,8.4,4.9c1.8,1.5,3.6,3,5.5,4.4c1,0.8,1.7,1.9,2.4,2.9
		c1.2,1.8,3,3.2,4.1,5.1c0.1-0.1,0.2-0.2,0.2-0.3c-1.7-2.5-3.9-4.6-5.5-7.1C173.3,68.5,173.5,68.3,173.7,68.1z M172.5,68.1
		c-0.2-0.7-0.9-1-1.4-1.4c-1.9-1.3-3.6-2.9-5.7-3.7c-1.5-2.2-4.2-2.9-6.5-4c0.3-0.2,0.8-0.6,1.1-0.8c0.3,0.3,0.5,0.7,0.7,1.1
		c2,0.7,3.8,2,5.7,3c2.5,1.4,4.8,3.1,6.7,5.2C172.9,67.7,172.7,67.9,172.5,68.1z"/>
	<path d="M74.7,74c-1.2,1-2.6,1.6-3.8,2.6c0.1,0,0.4-0.2,0.5-0.2c3.8-1.4,6.6-4.5,9.8-6.8c1.3-0.8,2.7-1.5,3.9-2.5
		c2.7-2.4,5.3-4.9,8.4-6.7c3-1.1,5.8-2.5,8.9-3.5c-1.1,1.4-2.3,2.7-2.9,4.4c-1.1,2.2-0.6,4.7-1.4,7c-0.4,1.3-1.6,2.1-2.5,3.1
		c0.1,0,0.4,0,0.5,0c1.1-1.1,2.6-2.1,2.9-3.7c0.6-1.7,0.3-3.6,0.7-5.3c1-2.9,2.9-5.5,5.6-7c0,0.2,0,0.6,0,0.8
		c0.5-0.4,1.1-0.8,1.7-1.1c0-0.3,0-0.7,0-1c0.7,1.1,1.9,1.7,3.1,1.9c0.9,0.8,1.7,1.8,2.6,2.6c0.9,0.7,2,0.6,3.1,0.7
		c-0.7,1.8-2.5,2.6-3.8,3.8c-2,1.9-3.9,4.1-5.1,6.6c-0.9,1.8-0.6,4.2,0.9,5.5c-0.6,2-0.3,4.1,0,6.1c0.3,0.9-0.4,1.8-1.1,2.3
		c-0.9,0.6-1.9,1.3-3,1.6c0,0.2-0.1,0.5-0.2,0.7c1.5-0.9,3.1-1.8,4.3-3c0.8-0.8,0.3-2,0.3-3c-0.3-1.6,0.2-3.3,0.2-4.9
		c-0.2-1.5-1.5-2.8-1-4.4c0.6-2,2-3.7,3.4-5.3c1.5-1.8,3.6-3.1,5-4.9c0.2-0.4,0.6-0.9,0.3-1.3c-1-0.2-2.1,0.1-2.9-0.6
		c-1.5-1.1-2.4-2.8-3.8-4.1c-0.8-0.7-1.8-0.8-2.8-1c-2.2,1.4-4.2,3-6.6,3.9c-2.4,1-5,1.4-7.2,2.7c-1.9,1.6-3.9,2.9-5.7,4.6
		c-2.4,2.4-5.6,4-8.2,6.2c-0.7,0.4-1.3,1.4-2.3,1l0.5,0.4C76.3,72.6,75.5,73.3,74.7,74z"/>
	<path d="M184.7,59.5c0.5-0.3,0.6-1.2,0.4-1.7C184.3,57.8,184.1,59.1,184.7,59.5z"/>
	<path d="M105.8,83.1c-1.3,0.6-2.4,1.4-3.4,2.4c0.5-0.2,1-0.3,1.5-0.4C104.3,84.3,105.1,83.7,105.8,83.1z"/>
	<path d="M192.7,73.7c-0.8-4.5-2.7-8.7-2.9-13.3c0.3-2.4,0.3-5.4,2.3-7c1.9,4.3,1.3,9.3,4.2,13.2c2.1,3.7,4.8,7.1,7.1,10.7
		c1.6,2.6,4,4.6,6.5,6.4c2.5,1.5,4.7,3.4,7.1,5c2.1,1.8,4.6,3.7,5.4,6.6c-0.4-2.7-2.6-4.7-4.5-6.5c-1.9-1.4-3.7-2.8-5.5-4.2
		c-2.3-1.6-4.5-3.3-6.4-5.3c-3.6-4.3-6.6-9-9.2-13.9c-1.5-3.6-1.8-7.5-3.4-11.1c-0.3-0.6-1-1.4-1.8-1.1c-1.1,0.9-1.6,2.4-1.9,3.7
		c-0.4,1.9-0.7,3.8-0.3,5.7c0.4,1.8,0.5,3.7,1.2,5.5c1,2.5,2,5,2,7.7C192.6,75.2,192.8,74.4,192.7,73.7z"/>
	<path d="M182.3,62.7c0.5,1.1,0.7,2.2,0.9,3.4c0.4,2.1,1.8,3.8,2.4,5.8c0.3,1.2,0.8,2.4,1.1,3.6c0.2,0.9-0.7,1.6-1.2,2.3
		c1,0.1,1.5-0.8,1.8-1.5c-0.9-2.6-1.2-5.5-2.6-7.9c-0.8-1.4-1.2-2.9-1.5-4.4c-0.1-1.1,0-2.5,1-3.2c0,0.3,0.1,0.9,0.1,1.2
		c0.1-0.6,0.1-1.2,0.2-1.7c-0.2,0-0.6,0-0.8-0.1C183.4,61,182.9,61.9,182.3,62.7z"/>
	<path d="M88.9,92.4c0.2-0.5,0-0.7-0.6-0.5C88.2,92.4,88.4,92.6,88.9,92.4z"/>
	<path d="M131.9,69.4c-0.3,0.3-0.5,0.7-0.6,1.2c1.9-1.9,3.9-3.6,5.6-5.6c1.4-1.6,1.1-3.9,2.5-5.6c1-1.2,2-2.4,3.4-3
		c1.1-0.6,2.5-1,3.1-2.2c-1.3-0.1-2.7-0.2-4-0.2c-0.9,0.2-1.4,1.1-1.8,1.8c0.5-0.5,0.9-1,1.5-1.3c1.2-0.2,2.4,0,3.6,0
		c-0.8,1-2.1,1.2-3.1,1.9c-1.5,0.9-2.5,2.3-3.4,3.8c-0.9,1.4-0.9,3.2-2.1,4.5C135,66.2,133.4,67.8,131.9,69.4z"/>
	<path d="M148.9,84.9c0.2-0.6-0.8-1.2-1.3-1.2C147.4,84.4,148.3,85.1,148.9,84.9z"/>
	<path d="M91.9,104.9c-0.3,0.5-0.6,0.9-0.9,1.4l0.4-0.2c0.8-1.1,1.7-2.2,2.6-3.4c0.8-1.1,1.3-2.5,2.5-3.3c0.3,2.9-1.6,5.4-3.5,7.4
		c-1,1.2-1.8,2.5-2.2,4c0.4-0.4,0.7-0.9,0.9-1.4c0.9-2.2,3.1-3.6,4.3-5.6c0.7-1.7,1.3-3.5,0.8-5.3C94.7,100.4,93.7,102.9,91.9,104.9
		z"/>
	<path d="M122.8,102.7c-2.5-0.2-5,0.9-6.7,2.7c0.9-0.5,1.7-1,2.6-1.5c1.4-0.8,3.2-0.9,4.7-0.5c2.5,1.3,3.8,3.9,5.2,6.2
		C127.3,106.9,125.8,103.8,122.8,102.7z"/>
	<path d="M206.3,117c-0.2,0-0.7-0.1-0.9-0.1c-2.6,0.8-5.5,1-8.2,0.3c0.1,0.1,0.3,0.4,0.4,0.6c2.6,0.8,5.3,0.1,7.9-0.3
		C205.7,117.3,206,117.1,206.3,117z"/>
	<path d="M106.2,59.6c-0.1,0.8-0.8,2.1,0.2,2.5c0.1-0.6-0.1-1.1-0.4-1.6c0.4-0.8,0.6-1.6,1-2.4c0.4-1.1,1.5-1.6,2.3-2.4
		C107.4,55.9,106.4,57.9,106.2,59.6z"/>
	<path d="M89.7,67c-1.1,0.8-1.9,2-3,2.8c-1.3,0.9-2.2,2.1-3.6,2.9c-2.2,1.2-4,2.9-5.7,4.7c0.5-0.3,1-0.4,1.5-0.3l-0.5-0.2
		c2-1.9,4.1-3.9,6.9-4.8c-1.7,2.1-4.3,3.1-6.1,5.1c1.6-0.9,3.2-1.9,4.6-3c1.5-1.3,3-2.8,4.7-3.9c-0.2-0.1-0.4-0.3-0.6-0.4
		c-0.6,0.8-1.4,1.6-2.4,1.8l0,0.2l-0.2,0.1l-0.1-0.2l0.2-0.1c0.6-0.8,1.3-1.6,2.4-1.8l-0.2-0.2c0.9-1,1.7-1.9,2.8-2.6
		c1.5-1.1,2.6-2.8,4.3-3.8c-0.1,1.8-0.2,3.6-0.6,5.4c1.2-1.7,0.8-3.9,1.1-5.9c-0.6,0.2-1.3,0.5-1.9,0.3l0.3,0.2
		C92.4,64.5,91.2,65.9,89.7,67z"/>
	<path d="M94.8,72.6c0.2-0.5,0.5-0.9,0.9-1.3c-1.7,1-2.8,2.5-4.1,3.9c-0.9,0.9-1.9,1.6-2.7,2.6c-2.2,2.8-3.4,6.2-5.1,9.3
		c-0.9,1.8-1.6,3.8-2.9,5.4L80.7,93c0.2-0.3,0.6-0.8,0.8-1c0.2,0.2,0.4,0.4,0.6,0.6c1.7-2.7,3.2-5.5,4.6-8.4c1.3-3,3.2-5.7,5.4-8.1
		c1.8-1.5,3.3-3.4,5.2-4.8c-0.3,0-0.8,0-1.1,0C96.2,72.1,95.4,72.5,94.8,72.6z M91,76.8c-1.9,2-3.3,4.5-4.4,7.1
		c-0.6,2-2,3.7-2.9,5.6l-0.3-0.2c0,0.2,0,0.5,0,0.6l-0.3,0.1c0,0.2-0.1,0.5-0.1,0.6l-0.3,0.1c0.2,0.4-0.3,1.5-0.8,1
		c0.1-0.5,0.3-0.9,0.8-1l-0.1-0.3c0.1-0.1,0.4-0.3,0.5-0.4c0-0.2,0-0.5,0-0.6l0.3,0c0-1.3,1-2.4,1.6-3.5c1.6-3.4,3.2-7,6-9.6
		l0.2,0.1C91.1,76.4,91,76.7,91,76.8z M94.4,73.2c-0.8,0.9-1.4,2.1-2.6,2.4c0.4-1,1.4-1.6,2.1-2.5L94.4,73.2L94.3,73l0.1-0.2
		l0.1,0.2L94.4,73.2z"/>
	<path d="M113,77.1c1.1-1.1,1.8-2.7,2.5-4.1C114.2,73.9,113.6,75.6,113,77.1z"/>
	<path d="M181.4,110.9c-3.2-1.5-6-3.8-8.3-6.5c-1.4-2.1-3.3-3.8-5.3-5.3c-2-1.4-4.5-1.9-6.2-3.7c-2.3-2.4-4.8-4.5-7.3-6.8
		c-1.5-1.4-3.6-1.9-5.4-2.9c-3-1.3-5.7-3-8.3-5c0.5-0.2,1.1-0.4,1.6-0.6c1.7,0.8,3,2.2,4.6,3.2c-1.1-1.4-2.4-2.7-4-3.6
		c-1-0.1-2,0-3.1,0c-0.2,0.3-0.4,0.6-0.5,0.9c1.9,1.6,4.2,2.7,6.3,4c2.4,1.5,5.3,2.2,7.7,3.8c2,1.4,3.7,3,5.4,4.7
		c1.3,1.3,2.3,3.1,4,3.9c1.6,0.7,3.2,1.2,4.6,2.3c2.8,2.1,5.2,4.6,7.5,7.3c1.9,1.9,3.7,4,6.3,4.8c3.4,1.5,6.3,3.9,9.7,5.4l-0.2-0.2
		C187.9,114.3,184.7,112.4,181.4,110.9z"/>
	<path d="M121.7,110.3c-1.2-1.3-2.6,0.3-3.2,1.3c0.2,0.7,0.4,1.3,0.8,1.9c0.8,1.2,1.4,2.7,2.7,3.5c-1.4-1.2-2-2.9-2.7-4.4
		c-0.3-1.1,0.6-2,1.3-2.7C121,110,121.3,110.2,121.7,110.3z"/>
	<path d="M198.3,115.9c-1.5-0.1-3-0.7-4.5-0.8c1,0.5,2.1,0.8,3.1,1.1c4,1.2,8-0.2,11.9-1.1c0.4-0.1,0.7-0.3,0.9-0.6
		C205.9,115,202.2,116.3,198.3,115.9z"/>
	<path d="M90.5,75c2.2-2,4.2-4.1,6.4-6.1c1.3-1.2,1.1-3.1,1.3-4.8c0.1-2.2,1.1-4.3,2.4-6c-1.5,0.4-3,1-4.4,1.8
		c-1.7,1-3.7,1.4-5.1,2.9c-1.5,1.5-3.4,2.4-4.7,3.9c-2.8,3.1-6.5,5.2-9.8,7.7c-1.2,1-2.5,1.9-3.8,2.8c-2.1,1.5-4.5,2.3-6.8,3.5
		c3.5-1,6.8-2.6,9.6-4.9c2-1.5,4-3.1,6-4.6l0.5,0.2l-0.1-0.2c-0.1-0.7,0.8-1.1,1.4-0.8L83.1,70c2.2-1.4,3.8-3.7,6-5.1
		c1.5-0.9,2.6-2.4,4.1-3.2c2-0.8,3.9-1.8,5.8-2.7c-1,2-1.6,4.1-1.7,6.3c-0.2,1.1,0,2.4-0.8,3.2c-2.4,2.7-5.5,4.8-8,7.5
		c-1.3,1.8-2.6,3.6-3.6,5.5c-1,1.8-2.6,3.3-3.4,5.3c-0.9,2.1-1.8,4.1-2.7,6.2c-0.8,2-1.4,4-2.2,5.9c0.9-1.3,1.4-2.8,2-4.3
		c2.1-5.3,4.9-10.4,8-15.2C87.9,77.9,88.9,76.2,90.5,75z"/>
	<path d="M82.2,71.4c-1.8,1.9-4.2,3.1-5.8,5.2c0.1-0.1,0.3-0.2,0.4-0.2c3-2.3,5.8-4.8,9-6.9c1-1,2.1-2,3.3-2.7
		c1.7-1,2.8-2.7,4.4-3.8c1.1-0.7,2.3-1.2,3.5-1.6c-1.1,2.1-0.7,4.4-1.1,6.6c-1.8,1.3-3.3,3-5.1,4.2c-1.9,1.3-3.3,3.2-4.5,5.2
		c0,0.1,0.1,0.2,0.2,0.3c2-3.3,5.4-5.3,7.9-8c0.7-0.8,1.8-1.3,1.9-2.4c0.3-2.2,0.3-4.5,1.3-6.5c-1.2,0.4-2.5,0.8-3.6,1.5
		c-1.7,0.8-2.8,2.5-4.2,3.6c-1,0.8-2.3,1.4-3.2,2.4c-0.8,0.9-1.7,1.8-2.9,2.2C83.3,70.9,82.7,71.1,82.2,71.4z"/>
	<path d="M130.4,65.7c0.8-0.7,1.5-1.6,1.9-2.6c-1.5-0.8-4-2.3-5.3-0.4c-0.4,1.7-0.1,3.5-0.2,5.2c0.5-0.5,1.1-1.1,1.3-1.8
		c0.6-0.8,1.7-1.3,2-2.3c-0.7-0.1-1.8-0.5-2.2,0.4c-0.8,0.9,0.5,2.4-0.9,3c-0.3-1.5,0-3.1,0.3-4.6c1.3-1,3,0.1,4.3,0.8
		c-1.6,1.9-3.3,3.7-4.4,6c0.1,0,0.2,0,0.3-0.1C128.3,68,129.2,66.7,130.4,65.7z"/>
	<path d="M111,63.3c0.3-0.4,0.8-0.7,0.9-1.2c-1,0.8-2,1.7-2.8,2.7c-0.2,0.4-0.7,0.7-0.6,1.2C109.3,65.1,110.1,64.1,111,63.3z"/>
	<path d="M100.5,85.4c0.7-1.5,0.4-3.4,1.2-4.9c1.2-2.3-1.1-4.7,0-7c1.3-3,2.3-6.1,3.6-9.1c-1.1,1.3-1.8,2.9-2.4,4.5
		c-0.6,1.8-1.6,3.6-2,5.5c-0.2,1.8,1,3.6,0.4,5.5c-0.4,1-0.6,2.1-0.8,3.2c-0.3,2.2-1.6,4-2.3,6c2-0.8,3.7-2.1,5.4-3.4
		c-1.7,0.3-2.8,2-4.4,2.7C99.7,87.4,100.1,86.4,100.5,85.4z"/>
	<path d="M93.7,68.5c-0.9,0.5-1.7,1.3-2.8,1.4l0.1-0.2c0.6-0.7,1.5-1,2.2-1.4c0.6-0.9,0.4-2.1,0.3-3.1c-1.9,1-3,3.1-5,4
		c0.2,0.2,0.4,0.3,0.6,0.5c1.4-1.3,2.7-2.5,4.2-3.7c0,0.3,0,1,0.1,1.3c-2.3,2.2-5.4,3.7-7.4,6.3c-1.3,1.8-3.2,2.9-4.3,4.8
		c-1.9,3.1-5.2,4.9-7.3,7.8c-1.1,1.4-2.6,2.4-3.8,3.8l-0.2,0.3c0.6-0.4,1.2-0.8,1.8-1.3c1-0.9,1.9-1.8,2.7-2.8
		c2-2.5,4.8-4.1,6.5-6.8c0.8-1.4,1.8-2.5,3-3.6c0.2,0.2,0.4,0.4,0.6,0.6c-1.4,1.9-2.6,3.9-4.3,5.5c0.1,0,0.3,0.1,0.4,0.1
		c0.6-0.8,1.3-1.6,1.8-2.4c0.2,0.2,0.3,0.4,0.5,0.6c-0.8,0.6-1.3,1.6-2.4,1.9l0.4,0.1c-2.7,2.4-4.5,5.5-6.6,8.3
		c-1,1.5-2.1,3-2.5,4.8c1.1-1.7,1.8-3.6,3.1-5c2.3-2.7,4.1-5.8,6.8-8.1c0.1,0.8-0.5,1.5-0.9,2.1c-1.6,2-3.3,4-4.2,6.4
		c0,0.2-0.1,0.6-0.2,0.8c0.4-0.7,0.9-1.4,1.3-2c1.6-2.4,3-5.1,4.9-7.2c-0.2,0-0.5,0-0.6,0l-0.1-0.4c0.9-1,1.7-2,2.4-3.1
		c-0.4,0.4-1,0.7-1.5,1c0.6-1.2,1.3-2.3,2.1-3.4c1.4-1.9,3.3-3.3,4.9-5c1-1.1,2.5-1.8,3.7-2.7c-0.2-0.1-0.7-0.2-1-0.3L93.7,68.5z
		 M85.7,75.7c-0.2-0.2-0.3-0.4-0.5-0.6c1.7-1.8,3.2-4,5.5-5.1C89.5,72.3,87,73.5,85.7,75.7z"/>
	<path d="M116,68.2c0.6,1.2,0.9,2.6,0.9,3.9c-0.7,2-1.6,3.9-3.1,5.3c-0.2,0.3-0.7,0.5-0.5,1c1-1.6,2.6-2.8,3.2-4.7
		c0.9-2,0.6-4.3-0.2-6.3c-1.8,1.1-3.4,2.8-3.1,5C113.4,70.7,114.5,69.2,116,68.2z"/>
	<path d="M175.8,82c0-1.1,0.3-2.2-0.1-3.2c-1-1.3-2.7-2.1-3.4-3.6c-0.8-1.7-1.6-3.4-2.6-4.9c-0.7-1-1.8-1.7-2.3-2.8l-0.4,0.3
		c0.7,1.3,2,2.2,2.7,3.4c0.9,1.5,1.4,3.1,2.1,4.7c0.9,1.4,2.5,2.3,3.7,3.5C175.3,80.2,175.5,81.1,175.8,82z"/>
	<path d="M115.9,72.6c0.2-1,0.2-2.1,0-3.1c-1.5,1.2-2.1,3.1-2.3,4.9c0.7-1.3,0.9-3,2.1-4C115.7,71.1,115.3,71.9,115.9,72.6z"/>
	<path d="M98.5,69.8c0,0.1-0.1,0.3-0.1,0.4l0.2-0.2L98.5,69.8z"/>
	<path d="M180.2,76c-0.4-0.6-0.6-1.3-0.8-2l0-0.1l-0.1-0.1c-0.5-0.8-0.9-1.7-1.6-2.5c0.2-0.2,1-0.7,0.4-0.9c-0.5-0.1-1-0.3-1.5-0.5
		c0,0.1,0,0.4,0,0.6c0.4,0.3,0.9,0.6,0.8,1.2c0.1,0.2,0.3,0.5,0.3,0.7c0.7,0.8,1.3,1.7,1.4,2.8c-0.2-0.1-0.5-0.3-0.6-0.4
		c0,0.3,0,0.9,0,1.1l0.3-0.4c0.5,1.3,1.2,2.5,1.9,3.7c-0.2,0.1-0.6,0.2-0.8,0.2c1.4,1.4,0.7,3.6,1.6,5.3c1.1,2.3,3.2,3.9,4.5,6.1
		c1.2,1.9,2.3,3.8,3.2,5.9c1,2,2.6,3.7,4.3,5.1c1.2,1,2.7,1.7,3.9,2.8c0-0.1-0.1-0.3-0.1-0.4c-2.7-2-5.5-4-7.3-6.9
		c-1.9-3.4-3.5-7.1-6.2-10c-1.1-1.3-2-2.8-2.4-4.5c-0.2-1-0.9-2.1-0.4-3.1c1,1.6,1,3.7,2.1,5.3c0.9,1.5,2.6,2.2,3.5,3.7
		c1.7,2.5,3,5.2,4.3,7.9c0.9,1.4,2.1,2.7,3.5,3.6c1.6,1.1,2.8,2.6,4.4,3.7c0.7,0.5,1.4,1,2.2,1.4c-3.2-3.7-8-5.7-10.3-10.1
		c-1.1-2.4-2.2-4.8-3.6-7.1c-1-1.6-2.7-2.6-3.8-4c-0.8-0.9-0.5-2.1-1-3.1c-0.3-0.5-0.6-1-0.9-1.5c-0.8-1.2-1.5-2.3-2.1-3.6
		C179.6,75.5,179.9,75.9,180.2,76z"/>
	<path d="M142.2,75.3c-0.8,0.4-1.8,0.5-2.3,1.3c0.9-0.2,1.8-0.6,2.7-0.8c0.9,0.4,1.6,1.3,2.5,1.6C144.3,76.4,143.3,75.8,142.2,75.3z
		"/>
	<path d="M105.4,75.4c1,1.6,0.3,3.6,0.4,5.4c-0.5,0.7-1,1.4-1.7,1.8c0.1-1.7,0.5-3.3,0.1-5c0.1-0.4,0.2-0.9,0.2-1.4
		c0.3,1.6,0.6,3.2,0.3,4.9l0.6-0.3c0.5-1.8-0.3-3.6-0.2-5.3c0.3-1.6-0.2-3.3,0-4.9c0.7-2.2,2.1-4,3.4-5.9c0.3-0.3,0.3-0.6,0-1
		c0.7-1,0.7-2.7,2-3.2c-0.1-0.2-0.3-0.5-0.3-0.7c-0.7,0.3-1,1.1-1.4,1.8c-0.5,1.5-1.3,2.8-2.3,4c0.1-1.3,1.2-2.4,0.8-3.7
		c-1,2-1.2,4.4-2.4,6.3c-0.4,2.6-1.3,5.1-1.2,7.7l-0.6,0.1c0-2.4,1.1-4.6,1.3-7c-0.3,0.3-0.6,0.7-0.8,1.2c-0.9,3-1.5,6.2-0.8,9.4
		c-0.5,2.2-1.3,4.3-1.7,6.5c0.3,0,0.8-0.1,1.1-0.1c0-2.2,1-4.2,1.1-6.4c0-1.1-0.1-2.2,0-3.3l0.4,0c0,0.6,0,1.3,0.1,1.9
		c0.1,1.7-0.5,3.3-0.4,5c1.7-0.2,3-2,2.8-3.6C106.1,78.3,106.8,76.4,105.4,75.4z"/>
	<path d="M138.4,76.4c0-0.1,0-0.4,0.1-0.6c-1.3,0.4-2.7,0.1-4,0.3c-1.2,0.2-1.9,1.4-2.2,2.4c0.1,1.5,0.7,3,2,3.8
		c1.3,0.8,2.3,2.1,3.7,2.8c1.5,0.7,2.8,1.7,4.1,2.8c2.1,1.8,4.8,2.1,7.3,2.9c1.7,0.6,3.3,1.7,4.4,3.2c0.9,1.3,2,2.3,3.1,3.4
		c1.1,1,2.1,2.2,3.5,2.9c1.2,0.6,2.4,1.1,3.5,1.8c1.8,1.2,3.3,2.7,5,3.9c-1.5-2.5-4.1-4.3-6.7-5.6c-1.6-0.7-2.8-2-4.3-2.8
		c-1-0.5-1.5-1.5-2.3-2.4c-1-1.5-2.6-2.4-3.8-3.6c-2.1-1.6-4.7-2-7.1-2.9c-1.6-1-2.8-2.4-4.5-3.1c-2.3-1.5-4.7-3-6.5-5.2
		c-0.9-0.7-0.7-2-0.7-3C134.4,75.8,136.5,76.4,138.4,76.4z"/>
	<path d="M169.3,99.7l0.2-0.1c-1.5-1.4-3.1-2.9-4.8-4c-1.5-1-3.2-1.8-4.5-3.1c-1.8-1.7-3.4-3.7-5.6-5c-2.3-1.4-4.7-2.9-6.5-4.9
		c-1.6-1.7-2.6-4-4.7-5.2c-2.1-0.7-3.9,0.9-5.9,1.2c-0.6,0.2-1.3,0.1-1.7,0.6c0.9,1.7,2.6,2.5,4,3.7c1.3,1.3,3,2,4.5,3.1
		c1.9,1.4,4.3,1.6,6.3,2.7c4,1.8,6.6,5.4,9.6,8.3c3.2,1.6,6.7,3,9.2,5.7c1.9,2.2,3.8,4.5,5.8,6.6c1.6,1.4,3.2,3.1,5.4,3.7l0.3,0.1
		c-0.3-0.2-0.5-0.4-0.8-0.5c-4.3-2.9-7.7-6.8-10.9-10.8c-2.3-2.5-5.7-3.5-8.7-4.9c-0.9-1.2-2-2.3-3.1-3.4c-1.2-1.6-2.6-2.9-4-4.2
		c-2.5-1.7-5.7-2.1-8.3-3.5c-1.3-1-2.7-1.9-4.1-2.7c-1.5-1.4-3.4-2.3-4.8-3.8c1-0.1,2.1-0.1,3.1-0.5c1-0.3,2-0.9,3.1-1
		c1.1,0.3,1.8,1.3,2.6,2c2.5,2.8,5.2,5.4,8.4,7.4c2.8,1.8,5.1,4.2,7.5,6.5c2.5,1.6,5.3,2.9,7.4,5.1l-0.3,0.4l0.4-0.4
		C168.6,99.1,168.9,99.4,169.3,99.7z"/>
	<path d="M197.7,85.1c1.6,1.7,3.2,3.4,4.7,5.2c2.2,2.6,4.9,4.7,7.9,6.3l0.3,0.1c-0.1-0.1-0.4-0.4-0.5-0.5c-2.8-1.7-5.5-3.6-7.4-6.3
		c-2.2-3-5.1-5.5-7.7-8.2c-1.2-1.2-2.1-2.8-2.8-4.3C192.9,80.7,195.6,82.9,197.7,85.1z"/>
	<path d="M176.5,101.3c-1.6-0.6-3.1-1.1-4.5-2c-2.5-1.7-4.5-4.1-7.3-5.5c-1.5-0.8-3.1-1.7-4.1-3.1l0.5,0c1.9,0.9,3.6,2.3,5.5,3.3
		c-0.4-0.4-0.8-0.8-0.9-1.4l-0.2,0.4c-1-0.7-1.9-1.4-3-1.9c-2.6-1.2-4-3.9-6.3-5.5c-2.4-1.7-5-3.4-6.6-5.9c-1-1.4-2.8-2-3.9-3.3
		c-0.8-0.8-1.4-1.9-2.6-2c-1.6-0.4-2.8,1.3-4.4,1.3c0.2,0.2,0.5,0.3,0.7,0.5c1.2-0.5,2.3-1.7,3.7-1.5c0.9,0.3,1.4,1.2,2.1,1.8
		c1.1,1.3,2.8,1.9,3.8,3.4c0.9,1.5,2.5,2.5,3.8,3.7c2.9,1.9,5.8,4.1,8,6.8c-0.9,0-1.5-0.8-2.2-1.2c-1.2-0.8-2.3-1.7-3.3-2.8
		c-1.2-1.3-3-1.7-4.3-2.9c-1.3-1.2-2.5-2.5-3.6-4c-0.6-0.8-1.3-1.6-2.3-1.9c1.8,2.2,3.6,4.5,5.8,6.3c1.2,1.1,2.9,1.5,4.1,2.8
		c1.9,2.1,4.4,3.4,6.5,5.3c1.7,1.6,3.9,2.2,5.7,3.7c1.3,1,2.5,2.1,3.7,3.1c3.4,2.6,7.6,3.5,11.6,4.7
		C180.4,102.7,178.4,102,176.5,101.3z"/>
	<path d="M160.5,79.9c0.7,1.2,1.3,2.4,2.3,3.4c0.1-0.2,0.3-0.7,0.3-0.9C162,82,161.6,80.5,160.5,79.9z"/>
	<path d="M103.5,86.9c-1.6,1.4-3.3,2.7-5,4c2.2-1.1,3.9-2.8,6-4.1c1.5-0.8,2.7-1.9,3.9-2.9c0.7-0.5,0.8-1.4,1.1-2.2
		C108.7,84.4,105.5,85.2,103.5,86.9z"/>
	<path d="M208.8,109.9c-2.7-1.6-5.1-3.6-7.3-5.8c-0.9-1-1.7-2.1-2.8-2.9c-2.6-2-5.2-4.2-6.7-7.2c-1-1.7-1.8-3.6-2.7-5.3
		c-0.9-1.8-2.6-3-4-4.3c-0.8-0.7-1.3-1.7-2.1-2.4c0.8,2.8,3.6,4.2,5.3,6.4c1.8,3,2.7,6.6,5.2,9.1c1.4,1.4,2.9,2.7,4.5,3.9
		c1.5,1.1,2.5,2.7,3.8,4c1.2,1.2,2.8,2.1,4.1,3.2C206.9,109.2,207.8,109.7,208.8,109.9z"/>
	<path d="M187.4,98.9c1.7,1.4,2.7,3.5,4.6,4.8c1.1,0.5,2.4,0.6,3.5,1.1c1.2,0.4,1.9,1.6,3.2,1.8c1.7,0.5,3.2,1.6,4.9,2.1
		c-2-1.4-4.6-1.9-6.6-3.4c-1.5-1.1-3.2-1.7-4.9-2.3c-1.9-1.4-2.8-3.8-4.8-5.1c-1.7-1.1-2.6-3-4-4.4c-0.9-0.7-0.6-2-1.4-2.8
		c-1.1-1.3-2.1-2.6-3.4-3.7c-1.2-0.9-1.3-2.5-2-3.8c0.1,0.5,0.1,1.1,0.2,1.6c0.4,0.9,0.6,1.9,1.4,2.5c1.3,1.1,2.4,2.4,3.6,3.6
		c0.7,0.6,0.4,1.7,1.1,2.3C184.4,95.2,185.6,97.3,187.4,98.9z"/>
	<path d="M204.7,93.8c-1.7-1.7-3-3.9-5.1-5.2c0.4,0.6,0.8,1.2,1.4,1.7c2.1,2.1,3.8,4.8,6.3,6.5c3,2.4,6.9,3.2,10.6,3.8
		c0.2,0,0.5-0.1,0.6-0.1c-1.7-1.1-3.7-1.1-5.6-1.7C209.7,98,206.9,96.2,204.7,93.8z"/>
	<path d="M169.8,93.4c0.1-0.9-0.8-1.5-1.6-1.6C168.5,92.5,169,93.1,169.8,93.4z"/>
	<path d="M146.7,107.7c-1.6-1.1-3.5-1.9-5.3-2.6c-1.3-0.6-2.2-1.7-3-2.9c1.8,0.8,3.7,1.3,5.3,2.4c2.8,1.8,5.6,3.5,8.5,5.1
		c4.6,3,10,4.4,15,6.7c0.7,0.3,1.5,0.6,2.2,1c-2.1-1.2-4.3-2.1-6.6-3c-3.8-1.5-7.6-3-11.1-5.2c-3.2-1.9-6.4-3.7-9.2-6
		c-2-1.3-4.4-1.6-6.7-2.1c0.6,0.7,1.3,1.2,2,1.8c1,0.9,1.7,2.1,2.8,2.9c3.6,1.9,7.2,3.7,10.9,5.4c2.7,1.5,5.7,2.5,8.4,4
		c3.7,2.3,8,3.5,11.7,5.9c0.6,0.4,1.2,0.7,1.9,0.8c-2.1-1.3-4.2-2.8-6.4-3.9C160.5,114.3,153.1,112,146.7,107.7z"/>
	<path d="M187.8,109.2c3.7,2,8.1,3,12.3,2.8c0.2-0.1,0.6-0.2,0.8-0.3c-0.1,0-0.2,0-0.3,0c-5.3,0.3-10.6-1.3-14.9-4.4
		c-2.5-1.9-5.3-3.4-8.3-4.4C181,104.9,184.4,107,187.8,109.2z"/>
	<path d="M118.2,115c-1.1-1.7-1.1-3.9-0.3-5.7c1.2-0.6,2.2-1.6,3.5-2c1,0.5,1.7,1.5,2.3,2.5c1.4,2.5,2.5,5.1,4.5,7.2
		c2.1,2.7,5.2,4.1,7.8,6.2c2.5,2.1,5.4,4.2,8.8,4.6l0.6,0c-2-0.7-4-1.4-5.8-2.5c-3.3-2.3-6.6-4.8-9.7-7.3c-1.3-1.1-2.4-2.5-3.5-3.8
		c-1.7-2-2.2-4.6-4-6.5c-0.4-0.4-1.1-0.8-1.8-0.6c-1.8,0.5-2.9,2.2-3.5,3.8c-0.3,1.6,0.1,3.4,1.1,4.7c1.2,1.5,2.5,2.9,3.8,4.3
		c1.7,1.9,3.1,4.1,5,5.7c-0.8-1.5-2.2-2.7-3.2-4.1C122,119.1,119.8,117.3,118.2,115z"/>
	<path d="M191.5,115c-1.2-1-2.6-1.6-3.9-2.3c-2.6-1.6-5.2-3.1-8-4.2c1.7,1.3,3.7,2.1,5.5,3.3c2.1,1.5,4.5,2.6,6.6,4.2
		c0.6,0.4,1.1,0.9,1.7,1.3C193,116.3,192.3,115.6,191.5,115z"/>
	<path d="M161.5,119.7c-2.6-1.6-5-3.3-7.8-4.5c-1.5-0.6-3-1.1-4.6-1.6l-0.5-0.1c1,0.9,2.3,1.1,3.5,1.6c3.9,1.5,7.3,4,11,5.9
		C162.7,120.4,162.1,120,161.5,119.7z"/>
	<path d="M152.6,116.2c-0.1,0-0.3,0.1-0.5,0.1c1.3,0.9,2.9,1.5,4.2,2.4c2.5,1.3,4.7,3.1,7.2,4.4c0.1,0,0.4,0.1,0.6,0.2
		c-0.1-0.1-0.3-0.2-0.5-0.3C159.9,120.7,156.7,117.6,152.6,116.2z"/>
	<path d="M133.1,123.2c0.4,0.8,1.4,1.2,2.1,1.8c2.2,1.5,4.3,3.3,7,3.8c1.4,0.2,2.7,1,4.1,1.2c0.4,0.1,0.8,0,1.1-0.4
		c-2.4-0.4-4.7-1.2-6.9-2C137.8,126.7,135.6,124.7,133.1,123.2z"/>
	<path d="M108.1,96.4c2.1-1.7,4.3-3.3,6.4-5c3.7-2.6,7.2-5.4,10-8.9c2.3-3.6,4.2-7.4,6.1-11.2c-1.9,2.8-3,6-5,8.7
		c-1.9,3.1-4.4,5.7-7.3,7.9c-3.9,2.6-7.6,5.6-11.3,8.4c-1.5,1.1-3.2,2-4.6,3.3c-1.6,1.9-2.3,4.3-2.3,6.8c-0.6-2-0.2-4.2,0.2-6.2
		c1.6-2.6,4.5-4,7-5.6c2.4-1.9,4.6-4.1,7.2-5.8c1.3-0.9,2.7-1.5,4-2.4c3.2-2.8,6.1-5.9,8.3-9.5c1.7-3.9,3.6-7.8,6.8-10.7
		c1.5-1.6,3.5-3.1,3.4-5.5c0-0.7-0.6-0.4-1-0.5c-2.1,0.1-3.6-1.6-5.7-1.8c-1.6-0.2-3.5-0.2-4.9,0.8c-0.9,0.5-0.9,1.7-1,2.6
		c-0.3,3.2-0.6,6.3-0.7,9.5c-0.2,2.2,1.3,4.4,0.3,6.6c-0.2,0.5-0.5,1.1-1.1,1.2c0.2-1.2,1-2.3,0.7-3.6c-0.3-1.3-0.7-2.5-0.8-3.8
		c-0.2,2.2,1.3,4.7-0.2,6.8c-1.4,1.7-3.2,3.1-4.8,4.7c-1.7,1.6-3.9,2.5-5.7,3.9c-3.5,2.4-6.7,5.1-10.1,7.6c-0.6,0.7-1.9,1.1-2,2.1
		c2.1-2.2,4.8-3.7,7.1-5.7c2.7-2.2,5.6-4.3,8.6-6.2c2.4-1.7,4.4-3.8,6.6-5.6l-0.1,0.6c-2,3.2-5.4,5.2-8.5,7.3
		c-4.7,3.1-9,6.7-13.4,10.2c-1.2,1-1.6,2.6-1.9,4.1c0.1,0,0.3,0,0.4,0.1c-0.1-1.3,0.3-2.8,1.3-3.7c1.6-1.5,3.4-2.6,5.1-4
		c3.7-3.2,7.9-5.8,11.9-8.6c1.8-1.2,3.5-2.5,4.8-4.3c1.1-1.5,2.7-3,2.6-5.1c-0.2-2.1-0.9-4.3-0.6-6.4c0.4-3.1,0.2-6.3,1-9.4
		c1.9-1.7,4.9-1.7,7.1-0.6c1.4,0.8,3,1.2,4.6,1.1c-0.6,3.1-3.4,4.8-5.3,7.1c-3.8,4.3-5,10.3-9,14.5c-1.3,1.4-2.6,2.7-4,3.9
		c-1.1,1-2.6,1.4-3.8,2.3c-3,1.8-5.4,4.6-8.5,6.3c-2.3,1.2-4.5,2.8-6,5c-0.7,1-0.5,2.3-0.6,3.5c-0.1,2.7,0.5,5.5-0.3,8.2
		c0,0.1-0.1,0.4-0.1,0.5c-0.2,0.3-0.4,0.9,0.2,1c-0.4,1.2-1.1,2.2-1.4,3.4c0.6-1.4,1.5-2.6,1.7-4.2c0.9-2.7,0.8-5.6,1.1-8.4
		c0.3-1.3,0.6-2.6,1.3-3.6C103.7,98.5,106.2,97.9,108.1,96.4z"/>
	<path d="M208.5,70.3c0.7,0,1,1,0.5,1.4c0.9-0.1,1.2,1,1.8,1.5c2.1,3,5.2,5.1,8.1,7.4c0.7,0.5,1.5,1,2.2,1.6
		c-0.1-0.1-0.3-0.3-0.3-0.4c-2.5-2.2-5.5-3.7-7.6-6.3c-1-1.2-2-2.3-2.9-3.5c-0.8-1.2-1.4-2.5-2.3-3.6c-0.1,0.2-0.2,0.7-0.3,0.9
		C208.2,69,208.7,69.7,208.5,70.3z"/>
	<path d="M118.4,80.5c-4.1,3.6-8.9,6.1-12.8,9.8c-0.9,0.8-1.9,1.5-2.9,2.3l-0.3,0.2l0.4-0.1c1.2-1,2.5-2,3.7-3.1
		c4.6-4.2,10.7-6.5,14.8-11.3c1.1-1.1,0.8-2.9,0.5-4.3c-0.4-1.7-0.4-3.4-0.2-5.1c-0.7,2.5,0.1,5-0.1,7.5
		C121.1,78.3,119.6,79.4,118.4,80.5z"/>
	<path d="M130.3,77.4c-1.8,2.2-2.2,5.2-4,7.5c-0.8,1.1-2,1.8-2.6,3c0.7,0,1.5,0,2.2-0.1c1.4-0.3,1.9-2.3,3.5-2.1
		c0.7-0.1,1,0.6,1.4,0.9c0.6,0.7,1.5,1,2.3,1.4c0.2-1.8-1.3-3-1.6-4.7c-0.2-1.1-0.6-2.2-1-3.3C130.1,79.2,130.5,78.3,130.3,77.4z
		 M132.9,87.4c-1.1,0.1-1.7-1-2.4-1.7c-0.9-1.1-2.5-0.4-3.3,0.5c-0.7,0.8-1.7,1.2-2.7,1.2c0.7-1.2,1.9-2,2.6-3.2
		c1.2-1.6,1.5-3.8,2.7-5.3C130.2,82,131.2,84.9,132.9,87.4z"/>
	<path d="M220.5,87.6c0-0.1,0-0.3,0-0.4c-1.3-0.8-2.2-2.1-3.4-3.1c-1.6-1.3-3.1-2.9-4.9-4c0.3,0.4,0.6,0.9,0.9,1.3
		c2,1.4,3.9,3.1,5.7,4.7C219.4,86.7,220,87.2,220.5,87.6z"/>
	<path d="M127.4,84.9c0.9-0.4,2.2,0.2,3-0.4c-0.3-1.1-0.8-2-1.1-3.1C128.5,82.5,128.4,84,127.4,84.9z"/>
	<path d="M102.4,102.1c0.6-0.8,1.6-1.2,2.5-1.7c3.4-1.5,6-4.4,9.3-6.2c1.1,0.1,2.2,0.6,3.3,0.2c1.7-0.2,3.3-1.1,4.9-1.6
		c2.6-0.3,5.2,0.4,7.5,1.5c0.2,0,0.6-0.1,0.8-0.1c-0.3-0.1-0.9-0.4-1.1-0.5c-2.5-0.8-5.2-2-7.9-1.2c-1.5,0.6-3,1.2-4.6,1.5
		c-1.1,0.3-2.2-0.3-3.3-0.2c-3.7,2.1-6.9,4.9-10.6,6.8c-1.4,0.7-1.8,2.3-2.2,3.7l-0.1,0.4l0.4,0
		C101.6,103.9,101.8,102.9,102.4,102.1z"/>
	<path d="M148.9,99.6c-2.4-1.2-4.4-3.1-6.8-4.2c-1.9-0.7-4-0.6-5.9-0.8c1.6,0.5,3.4,0.4,5,0.9c2.3,1,4.3,2.6,6.4,3.9
		c2.9,1.5,5.7,3.2,8.1,5.4c0.5,0.3,1.1,0.7,1.6,1C154.6,103.6,152,101.2,148.9,99.6z"/>
	<path d="M128.2,104.7c0.6,0.1,1.1,0.6,1.1,1.3c0.5,0.5,1,0.9,1.6,1.4c-1.8-3.1-4.4-6.2-8-7c-3.4,0-6.5,1.5-9.5,3.1
		c-2,1.2-3.9,2.7-5,4.8c-0.8,1.4-0.4,3,0,4.4c0.1,0.3,0.3,0.7,0.4,1c0-0.2-0.1-0.6-0.1-0.9c-0.3-1.4-0.5-2.8,0.1-4.2
		c0.8-2.4,3-4,5.1-5.2c2.3-1.2,4.6-2.3,7.1-2.7c0.7-0.1,1.5-0.3,2.3,0.1c1.3,0.6,2.9,1.1,3.6,2.4C127.5,103.4,128.2,104,128.2,104.7
		z"/>
	<path d="M180.1,101.6c0.9,0.3,1.7,0.8,2.7,0.8c-1.8-0.7-3.5-1.7-5.4-2.1C178.2,100.9,179.2,101.2,180.1,101.6z"/>
	<path d="M111.6,107.5c1.8-2.1,4.1-3.8,6.7-4.7c1.5-0.9,3.4-1.2,5.1-0.6c1.3,0.7,2.7,1.3,3.8,2.3c3.6,4.1,5.7,9.3,9.6,13.1
		c1.3,1.1,2.3,2.5,3.9,3.2l0.4,0.1c-4.6-3.1-7.4-8.1-10.5-12.6c-0.4-0.8-1.4-1.4-1.3-2.3c-0.7,0.2-1.2-0.6-1.1-1.3
		c-0.6-0.2-1.5-0.7-1.3-1.5c-0.9,0.2-1.6-0.5-2.4-0.9c-2-1.1-4.5-0.8-6.5,0.2c-3.2,1.4-6.4,3.5-7.9,6.7c-1.3,2.9,0.8,5.8,2.5,8
		c-0.8-2-2.3-3.7-2.8-5.8C110.1,110.1,110.5,108.5,111.6,107.5z"/>
	<path d="M184.8,104.7l-0.1,0.3c0.1,0.1,0.4,0.3,0.5,0.4c1.2,0.9,2.3,1.9,3.4,2.9C187.9,106.7,186.2,105.7,184.8,104.7z"/>
	<path d="M170.2,107.5c0.2,0.3,0.5,0.6,0.7,0.8c0.9,1,1.6,2.1,2.7,2.9C172.6,109.8,171.8,108.3,170.2,107.5z"/>
	<path d="M133.8,111.3c-1-1.2-1.8-2.6-2.9-3.7c3,4.8,6.7,9.2,11.4,12.4c1.1,0.8,2.2,1.5,3.3,2.2c-2.4-2.4-5.5-4.2-7.9-6.7
		C136.2,114.1,134.9,112.7,133.8,111.3z"/>
	<path d="M128,119.4c-2.3-1.7-3.3-4.5-5.1-6.7c1.3,3,3.2,5.8,5.8,7.8c0.9,0.8,1.8,1.7,2.9,2.1l-0.3-0.3
		C130.2,121.4,129.1,120.3,128,119.4z"/>
	<path d="M186.5,116.1c0.9,0.9,1.9,1.6,3.1,2C188.9,117.1,187.6,116.6,186.5,116.1z"/>
	<path d="M138,122.1c2.4,2.3,5.5,3.5,8.5,4.8c0.1,0,0.4,0,0.6,0c-2.4-1.3-5-2.3-7.3-3.9C139.3,122.7,138.7,122.4,138,122.1z"/>
	<path d="M121.8,59.8c-0.2,1.8-0.1,3.6-0.1,5.4c-0.1,1.1-0.3,2.3-0.3,3.4c0.8-1.3,0.6-2.8,0.8-4.3C122.5,62.9,122.8,61.2,121.8,59.8
		z"/>
	<path d="M172.6,63.8c-0.8-1.3-1.8-2.5-2.4-3.9c-0.2,0.2-0.4,0.3-0.6,0.5c0.9,1.2,1.8,2.5,2.6,3.8l-0.4,0.1
		c-1.2-1.3-2.5-2.5-4.1-3.3c0.1,0.2,0.2,0.6,0.2,0.7c1,0.5,1.9,1.2,2.7,2c1.1,1,2.4,1.9,3.4,3.1c0.6,0.7,1.1,1.4,1.8,2
		c-0.2-1-1.1-1.7-1.7-2.4C173.5,65.5,173.1,64.6,172.6,63.8z"/>
	<path d="M186.7,79c0.8,0.2,2-0.2,1.9-1.2c-0.2-3-0.7-6-2.1-8.7c-0.8-1.5-1.2-3.2-2.2-4.6c0,1.1,0.4,2.1,0.8,3c0.9,2.3,2,4.5,2.4,7
		c0.4,1.3,0.8,2.5,0.6,3.9c-1.8,0.1-3.8-0.1-5.4-1c-1.2-0.7-1.7-2-2.6-3C180.9,77.3,183.9,79,186.7,79z"/>
	<path d="M147.8,65.3c-0.3,0.3-0.3,0.8-0.1,1.2c1,1.9,2.8,3.3,4.2,4.9c1,1.4,1.9,2.9,2.9,4.2c1.6,2,3.5,3.7,5.4,5.4
		c0-0.9-0.9-1.3-1.4-1.8c-3.3-2.8-5-6.9-8.3-9.8c-1-1.2-2.4-2.2-2.7-3.8c1.1,0.3,1.7,1.4,2.3,2.3l0.3,0
		C149.8,67.1,149.4,65.1,147.8,65.3z"/>
	<path d="M173.5,109c-2.2-2.4-4.1-5-6.3-7.3c-2.2-2.2-5.5-2.6-8-4.5c-2.2-2.4-4.4-5.1-7.2-6.8c-2-1.5-4.6-1.8-6.8-3.1
		c-1.9-1.1-3.7-2.3-5.5-3.5c-1.8-0.9-3.4-2.2-4.8-3.7c-0.6-0.7-0.4-1.6-0.5-2.4c1.8-0.7,4.1,0.3,5.5-1.4c-1.9,0.6-3.8,1.1-5.8,0.9
		c-0.4,1-0.3,2.4,0.5,3.2c1.2,1.2,2.4,2.4,3.9,3.3c2.4,1.5,4.5,3.4,7.2,4.6c1.9,0.9,4.2,1.2,5.9,2.5c2.6,1.6,4.7,3.9,6.7,6.2
		c1.9,2.1,4.6,3,6.9,4.4c3,1.4,4.7,4.4,7,6.6c1,0.9,1.8,2,2.7,3c1.7,2,4.2,3.2,6.6,4.3c-0.6-0.5-1.4-0.8-2.1-1.2
		C177.1,112.9,175.1,111.1,173.5,109z"/>
	<path d="M92.4,100.3c0.8-1.1,1.3-2.4,2.4-3.3c2.2-1.7,4.5-3.3,6.6-5.1c1.3-1.1,2.7-2.1,3.9-3.3c1.9-1.8,4.3-3,6.1-4.9
		c2-1.5,3.9-2.9,5.9-4.3c1.2-0.8,2.3-1.7,2.9-3.1c0.1-3.9-0.7-7.9,0.3-11.7c0.4-1.6,0.5-3.3,0.3-5c-0.1-0.5-0.1-1.1-0.2-1.6
		c0.2-0.4,0.5-0.8,0.7-1.1c0.4-0.4,0.8-0.7,1.2-1.1c2.5-0.7,4.7-2.3,7.3-2.5c0.2,0,0.5,0.1,0.6,0.2c1.6,1.3,3.6,2.3,5.6,2.8
		c0.2-0.1,0.5-0.4,0.7-0.5c0.8-1.8,1.7-3.6,3.1-5c0.2,0,0.6,0,0.8,0c1.8,0.4,3.7,0.8,5.6,0.6c2.1-0.7,2.1-3.5,3.8-4.8
		c0.3-0.3,0.6-0.6,0.9-0.9c0.4-0.6,0.8-1.2,1.2-1.7c0,0.7,0.1,1.3,0.1,2c0,2.9-1.3,5.8-3.4,7.8c-1.5,1.4-2.8,3.1-4.5,4.3
		c-0.6,0.3-1.2,0.6-1.7,0.9c-1.1,1.3-1.7,3-1.6,4.7c1.5-1.1,2.2-3.3,4.2-3.8c0.3,0.3,0.6,0.7,0.9,1c0.6-0.6,1.1-1.3,1.5-2.1
		c0.5-1.2,1.9-1.5,2.9-2.1c0.7-1,1.2-2.1,1.7-3.2c0.7-1.8,1.9-3.7,1.5-5.7c-0.3-1.8,0.4-3.5,0.8-5.2c0.2,0.6,0.4,1.2,0.5,1.9
		c0.5-0.8,0.5-1.7,0.6-2.6c0.2,0.2,0.5,0.6,0.7,0.8c0,0.1,0.1,0.3,0.2,0.4c0.1-0.7,0.2-1.4,0.2-2c1.1,2.2,2.9,3.9,4.4,5.8
		c0.8,0.8,1.8,1.9,3,1.9c0.6,0.5,1.3,1,1.9,1.4c-0.2,0.1-0.5,0.3-0.7,0.4c-0.2-0.1-0.6-0.2-0.8-0.3l-0.3-0.2c-0.9-0.8-2.6-1.6-3.1,0
		l-0.2,0.2c0.2-0.4,0.3-0.9,0.5-1.3c-0.9-0.1-1.8-0.2-2.7,0.1c-0.1,0.1-0.4,0.2-0.5,0.3c-0.7,1-1.5,2-2.7,2.6
		c-0.1-0.1-0.2-0.3-0.2-0.3c1.1-1.6,0.1-3.6,0.4-5.3c0.3-1.1,0.6-2.2,0.5-3.3c-0.4,1.6-1,3.2-0.7,4.8c0.2,1.3,0.1,2.6-0.3,3.8
		c-0.3,0.1-0.9,0.4-0.7,0.9c0.2,0.1,0.5,0.1,0.7,0.1h0.1c-0.5,1-1.1,1.9-1.7,2.8c-0.6,1-0.8,2.2-1.3,3.2c-0.9,1.2-1.9,2.1-2.8,3.2
		c1.5,2.3,3.5,4.1,5.1,6.2c1.6,1.9,2.6,4.1,4.2,5.9c1.8,1.9,3.4,4,4.9,6.2c1.6,1.9,2.9,4.1,4.4,6.1c-0.2-1.4-1-2.6-1.6-3.9
		c-0.8-1.6-1.7-3.2-2.7-4.8c-0.3-0.6-0.7-1.2-1-1.8c-0.6-2-1.9-3.8-2-5.8c-0.1-2.2-2.1-3.7-3-5.5c2.3,0.4,4.6,1.1,6.7,2.1
		c2.3,2.4,3.8,5.3,5.3,8.2c1.1,2.2,3.6,3.5,4.5,5.8c0.4,1.5,1,3,1.4,4.6c-1.6-1.6-1.4-4.3-3.3-5.8c-2-1.8-3.5-4-4.5-6.5
		c-0.8-2.1-2-4-3.7-5.4c-1.2-1-2.7-1.2-4.2-1.5c0.5,0.9,1.1,1.7,1.6,2.6c0.3,1-0.3,2.1,0.2,3.1c1.2,2.6,2.4,5.3,4,7.7
		c0.9,1.4,1.5,2.9,2.1,4.4c0.6,1.4,0.6,3.1,1.7,4.4c1.6,2,3.8,3.4,5.7,5c-0.2,0.2-0.4,0.4-0.6,0.6c-1.6-1.6-3.6-2.8-5.2-4.5
		c-1.2-1.2-2.2-2.5-3.4-3.7c1,2.4,3.1,4.2,5,6c1.5,1.4,3.4,2.3,4.9,3.7c0-0.1,0.1-0.3,0.1-0.4c-0.2-0.1-0.5-0.4-0.7-0.6
		c0-0.2,0-0.7,0-0.9c2.6,3.3,6.9,4.1,10.1,6.5c0.7,0.5,1.7,1,1.6,1.9c-2.7-2-5.6-3.8-8.8-5c0.7,0.5,1.4,0.9,2.2,1.3
		c2.1,1,4.1,2.1,5.8,3.7c1.2,1,2.4,1.9,3.4,3.1l-0.2-0.8c0.6,0.2,0.9,0.8,1.3,1.3c-0.3-0.5-0.5-1.3-1.2-1.4l-0.1-0.5
		c-0.2-0.5-0.7-0.8-1.2-0.5c-0.4-0.3-0.8-0.6-1.2-1c0.2,0,0.7-0.1,0.9-0.1c-1.1-0.8-1.8-2.1-3-2.9c-2.1-1.3-4.4-2.4-6.5-3.7
		c-2.1-1.3-3.5-3.3-5.5-4.8c-1.3-1.1-2.8-2.1-3.8-3.5c-1-3.4-2.3-6.7-4.4-9.6c-1.4-2.7-3.3-5.7-2.8-8.9c-0.3-0.4-0.6-0.9-0.8-1.3
		c1.3,0.4,2.8,0.7,3.6,1.9c1.9,3.1,3.4,6.4,5.5,9.3c0.7,1,1.6,1.7,2.3,2.7c1.2,2.2,1.8,4.6,3.3,6.6c-0.2-0.1-0.7-0.2-0.9-0.3
		c-1.1-1.2-1.8-2.7-2.3-4.2c-0.5-1.5-2-2.3-2.8-3.6c-0.8-1.2-1.3-2.4-2-3.6c-0.9-1.8-2.1-3.4-2.8-5.3c-0.3-1.2-1.6-1.6-2.6-2
		c-0.1,0.6-0.3,1.2-0.3,1.9c1.1,3.8,3.5,7.1,5.3,10.7c1,2,1.4,4.2,2.5,6.1c1.9,1.9,4,3.6,6.1,5.3c-1.5-2-3.4-3.5-4.9-5.4
		c0.2-0.2,0.4-0.4,0.5-0.7c0.5,1.3,1.7,2.2,2.8,3.1c1.3,0.9,2,2.3,3,3.5c-0.2,0-0.6,0-0.8,0c0,0.7,0.8,1,1.3,1.2
		c-0.1-0.2-0.2-0.7-0.2-0.9c0.7,0.1,1.3,0.3,2,0.7c-0.3,0.3-0.6,0.6-1,0.9c0.1,0,0.4,0.1,0.6,0.2l0.2,0.1c0.1,0,0.4-0.1,0.6-0.1
		c0.4,0,0.7,0.1,1.1,0.1c-0.4-0.3-0.9-0.5-1.3-0.8c0-0.5,0.9-0.9,0-1.3c-1.3-1.4-2.8-2.6-3.7-4.4c-0.2-0.3-0.1-0.8-0.1-1.1
		c1,1.8,2.8,2.8,4.1,4.4c-1.2-2.3-3.5-3.8-4.4-6.3c-0.3-2-1-4-1.7-5.9c-0.8-1.5-2.3-2.5-3.3-3.9c-0.7-0.8-1-1.9-1.4-2.8
		c-0.8-1.9-2.4-3.3-3.2-5.2c-1.1-2.7-3.2-5-5.7-6.4c-1.5-0.9-3-1.7-4.6-2.4c0.1-0.4,0.2-0.7,0.5-1c1.2-0.3,2-1.1,2.8-2
		c0.3-0.3,0.6-0.6,0.9-0.9c0.6-1.1-0.1-2.3-0.4-3.3c0.4-0.1,0.7-0.3,1.1-0.4c1.4,0,2.8,0.3,4.2-0.2c0.1,0,0.3-0.1,0.4-0.1
		c0.2-0.3,0.5-0.5,0.8-0.4c0.3,0.4,0.6,0.9,1,1.2c-0.2-0.2-0.5-0.7-0.6-0.9c0.2-0.2,0.4-0.4,0.6-0.5c0.4,0.7,0.9,1.2,1.4,1.8
		c1.3,1.3,2.2,2.8,3.6,4c2.6,2.5,4.1,5.9,5.8,9c1.3,2,2.6,4.1,3.6,6.3c0.7,1.6,1.9,2.9,2.8,4.4c0.5-1.4-0.5-2.6-1.1-3.8
		c-1.1-1.9-1.7-4.1-2.6-6.2c-0.4-2.6-1.8-5-2.7-7.5c-0.2-0.8,0.3-1.8-0.5-2.4c-0.1,0-0.2-0.1-0.2-0.2c-0.2-0.1-0.6-0.4-0.8-0.6
		c-0.6-1.1-0.4-2.4-0.5-3.6c-1.1-1.4-2.6-2.5-3.9-3.7c-2.1-1.8-4.7-2.8-6.8-4.5c-1.8-1.2-3.1-2.9-4.7-4.2c-1.9-2.2-4.3-3.8-6.6-5.5
		c-0.3,0.3-0.6,0.5-0.9,0.8c-0.4,0.3-0.7,0.7-1.1,1c-0.7,1.1-1.8,1.9-2.8,2.7l-0.1,0c-1,0.7-2,1.5-3,2.3l0.1,0
		c-1.9,1.4-3.8,2.9-5.8,4.3c-0.9,0.7-2,1.3-3,1.9c-2.3,1.4-4.7,2.6-7.1,3.7c-0.3,0.2-0.8,0.3-0.9,0.6c-2.2,0.8-4,2.4-6.2,3.2
		c-1.6,0-3.2,0.9-4.7,0.3c-1.4-0.3-2.4-1.2-3.5-2c-2.7-1.7-4.5-4.4-6.9-6.4c-0.2,0.1-0.6,0.3-0.8,0.4c0.4,0.2,0.9,0.5,1.3,0.8
		c0.4,0.7-0.8,0.2-1.1,0.3c-0.2,0.2-0.5,0.6-0.6,0.8l-0.2-0.2c0.3-0.4,0.5-0.9,0.2-1.4c-0.8,0.7-1.6,1.3-2.5,1.9
		c-0.7,0.6-1.3,1.3-2.1,1.8c-2.6,0.1-4.8,2-6.1,4.1c-1.3,0.2-2.7,0.5-3.6,1.6c-1.3,1.5-2.8,2.9-4.4,4.2c-0.4,0.4-0.7,0.8-1.2,1
		c-1.4,1-2.9,1.8-3.9,3.1c-0.7,0.8-1.7,1.4-2.4,2.2c-1.2,1.5-2.4,2.9-3.7,4.1c-0.4,0.4-1.6,0.2-1.1,1.2c0.2-0.2,0.4-0.4,0.6-0.6
		c1.8-1.5,3.5-3.1,5.4-4.2c1.7-1,3-2.6,4.7-3.6c1.9-1.2,3.5-2.9,5.3-4.2c1.5-0.9,3.2-1.4,4.9-2c1.5-0.5,2.8-1.3,4.3-1.8
		c2-0.6,3.5-2.1,4.9-3.6c2.2,0.5,4.1,1.7,5.8,3.1c0.9,0.9,1.6,2.1,2.9,2.5c1.2,0.1,2.5,0,3.7,0.1c-1,2.1-3.1,3.3-4.4,5.2
		c-2,2.5-5.4,4.1-6.1,7.5c-0.4,1.1,0.4,2.1,1.3,2.7c-0.3-0.7-0.6-1.3-1-2c0.4-1.1,0.7-2.3,1.6-3.1c1.6-1.7,3.5-3.2,4.8-5.2
		c0.8-1.1,1.9-2.1,2.9-3c0.7-0.6,0.9-1.6,1.8-2c-0.2,0.7-0.4,1.5-0.9,2.1c-2.6,3.3-6,5.9-8.5,9.4c-0.3,0.6-0.5,1.2-0.6,1.7
		c0.7,1.1,1,2.3,1,3.6c-0.2,2-0.4,4-0.2,6c0,0.6-0.1,1.2-0.2,1.8c0.2,0.1,0.5,0.2,0.7,0.2l-0.3,0.6c-1.4,1.4-2.7,2.8-4.4,3.8
		c-2.8,1.6-5,3.9-7.8,5.5c-1.3,0.8-2.5,1.9-3.8,2.8c-1.5,1-2.6,2.5-3.5,4c-1.2,2-3.1,3.4-4.6,5.3c-1.2,1.5-2.7,2.7-4.1,4.1l-0.2,0.2
		c2.7-1.5,5-3.5,7.4-5.4C90.4,102.7,91.5,101.6,92.4,100.3z M177,91l0.3-0.2c0.5,1.2,2,1.6,2.3,2.8c-1.3,0-2-1.3-2.7-2.2L177,91
		l-0.1,0.2c-1.3-2.1-4.6-3-4.5-5.9c0-1.4-1.4-2.1-2.1-3.1c-2.1-3.2-3.7-6.7-5.5-10.1c-0.3-0.6-0.6-1.2-1.1-1.7c0.4,2.2,2,4,2.9,6
		c1.2,2.6,2.4,5.4,4.6,7.5c0.8,0.6,0.6,1.8,0.8,2.7c-0.2,0-0.7-0.1-0.9-0.2c0.3-1-0.4-1.7-0.8-2.5c0.3,1.2,0.7,2.4,1.1,3.6
		c-1-0.5-1.2-1.8-1.6-2.7c-1.5-4.7-4.6-8.7-6.3-13.3c-0.3-0.6-0.3-1.3-0.1-2c0.6-0.1,1,0.6,1.5,0.9c0.4,1.4,1.3,2.6,1.9,3.9
		c0.9,1.6,1.6,3.4,2.6,4.9c0.8,1.4,2.3,2.1,3,3.5c0.5,1,0.8,2.2,1.4,3.2c0.5,0.9,1.4,1.6,2.1,2.3C175.9,89.4,177.3,90.1,177,91z
		 M160.9,43c1.3,2.1,3,3.9,4.8,5.7c0.4,0.5,0.8,0.9,1.3,1.4c-0.2,0.3-0.4,0.4-0.6,0.4c-1-1.4-2.4-2.3-3.5-3.7
		c-2.5-3.2-4.3-7-7.6-9.5c0.7,1.4,2,2.4,2.8,3.7c1.3,2.2,3,4.1,4.4,6.3c-1.2-0.8-2.3-1.8-3.3-2.8c-1.1-1.1-1.5-2.8-2.3-4.1
		c-0.2-0.5-0.6-0.7-1-0.9c0,0.3,0.1,0.8,0.2,1l-0.2,0.7c-0.3-0.1-0.9-0.4-1.1-0.5c0.3-0.7,0.8-1.4,0.7-2.3c-0.3,0.3-0.5,0.5-0.8,0.8
		c0-0.7,0.1-1.4,0.2-2.1c0.1-0.3,0.1-0.7,0.2-1C157.9,37.5,159.3,40.5,160.9,43z M110.6,81.8c0-0.2,0.1-0.7,0.1-1
		c0.1-0.5,0.1-1,0.2-1.5c0.3-1,0.7-2.1,1-3.1c0.7-1.9-0.2-4,0.6-5.8c0.6-1.1,1.4-2,2.1-3c0.4-0.3,0.8-0.7,1.2-1
		c0.3-0.1,0.8-0.4,1-0.5c0.2,1,0.5,1.9,0.8,2.8c0.3,1.6,0.4,3.2,0.1,4.7c-0.6,1.7-1.3,3.4-2.8,4.6c-1.5,1.3-2.7,2.8-3.7,4.5
		C110.9,82.3,110.7,82.1,110.6,81.8z"/>
	<path d="M162.2,79.8c-1.6-2.1-3.8-3.6-5-6c-1.6-3.2-4.7-5.3-6.5-8.4c-0.6-0.8-1.1-2.4-2.4-2.2c-0.9,0.8-1.9,1.6-2.5,2.6
		c3.4,4.5,6.9,8.8,10.2,13.4c1,1.5,2.7,2.3,3.8,3.7c1.3,1.5,2.4,3.2,4.1,4.3c2.1,1.6,4.1,3.4,6.1,5.3c1.8,1.5,3.7,2.8,5.5,4.2
		c1.8,1.2,3.7,2.2,5.7,3c-0.4-0.3-0.8-0.7-1.2-1c-2.1-1.3-4.2-2.6-6.2-4c-2.6-2.3-5.1-4.7-7.8-6.8c-2.1-2.6-4.7-4.8-6.9-7.2
		c-2-1.5-3.7-3.4-5.1-5.5c-2.4-3.4-5.5-6.2-7.7-9.8c0.9-0.5,1.7-1,2.5-1.6c1.5,2.1,2.8,4.3,4.4,6.3c-0.2,0-0.7-0.1-1-0.1
		c0.4,0.6,0.8,1.3,1.1,1.9l0.4-0.3c-0.2-0.4-0.3-0.8-0.4-1.2c1.8,2,3.5,4.2,5.2,6.4c-1-0.3-1.5-1.3-2.1-2.1c-0.7-1.2-1.8-2-2.7-3.1
		l-0.4,0.4c1,0.9,2,1.9,2.7,3c1.2,1.7,2.7,3.1,4.2,4.5c-0.1-0.3-0.3-0.8-0.4-1c1.7,0.7,2.6,2.4,3.5,3.9c0.5,0.4,1.4,1,1,1.8
		c0.1-0.1,0.4-0.4,0.6-0.5C163.9,82.4,163.1,81,162.2,79.8z"/>
	<path d="M221.1,94.7c-0.5-1.4-1.7-2.4-2.8-3.3c-1.8-1.4-3.8-2.7-5.7-4c-2-1.3-3.7-2.9-5.6-4.3c-2.9-2.2-4.9-5.2-7-8.2
		c-2.1-3.1-4-6.3-5.7-9.6c-1.2-2.1-1.6-4.5-1.9-6.9c-0.2-1.2-0.2-2.4-0.9-3.5c-1.6,4.2-0.2,8.5,0.7,12.7c0.4,2.5,1.3,4.9,1.3,7.5
		c-0.1,1.6,0.6,3.1,1.3,4.5c1,1.3,2.4,2.3,3.4,3.6c2.3,3.2,5.1,5.9,7.8,8.6c2.2,2.3,5.1,3.8,8.1,4.6c1,0.2,2,0.5,2.9,0.9
		c-0.4-0.3-0.9-0.5-1.3-0.8c-3.6-1-7.2-2.6-9.8-5.3c-2-1.6-3.6-3.8-5.5-5.6c-1.2-1.3-2.1-2.8-3.3-4.1c-0.7-0.8-1.6-1.4-2.3-2.2
		c-1-1.7-1.3-3.8-1.4-5.7c-0.6-3.2-0.9-6.4-2-9.5c-0.1-2.3,0-4.6-0.1-6.9c0.3,2.6,1,5.2,1.5,7.8c0.9,0,0.2,0.5,0.1,0.9
		c0.2,1,0.4,1.9,0.6,2.9c0.1,0.3,0.1,0.6,0.2,0.9c0.3,1.1,0.9,2.2,0.7,3.3c-0.2-0.3-0.5-0.9-0.7-1.2c1,2.8,0.3,6.5,3.2,8.2
		c3.1,2.8,5.2,6.5,8.4,9.2c1.3,1,2.4,2.2,3.7,3.1c1.9,1.4,4.2,2.1,6.2,3.2c-0.1-0.1-0.3-0.3-0.4-0.4c-2.7-1.5-5.7-2.5-7.9-4.8
		c-2.8-2.2-4.8-5-7.1-7.7l-0.1-0.2l0.1-0.2l-0.2,0l-0.1-0.2l-0.2-0.1l0.1-0.2c-1.1-0.4-1.8-1.5-2.6-2.2c-1.2-1.2-2-2.9-1.6-4.6
		c0.6,1.5,1.2,2.9,2.3,4.1c0.7,0.9,1.7,1.6,2,2.7l0.2,0.1l0,0.2l0.2,0l0.1,0.2l0.1,0.2l-0.1,0.2l0.5-0.2c1.3,1.4,2.6,2.7,3.8,4.2
		c2.6,3.2,6.2,5.5,10,6.9c0.1-0.1,0.4-0.2,0.5-0.2c-2.8-0.5-5.1-2.5-7.3-4.2c-1.9-1.5-3.4-3.4-5-5.2c-1-1.2-2.3-2-3.1-3.3
		c-0.9-1.5-2.4-2.6-3-4.2c-0.4-0.9-0.7-1.7-1.1-2.6c-0.1-0.8,0-1.5,0-2.3c1.1,3,3.2,5.5,5.4,7.8c1.9,2,3.3,4.5,5.5,6.2
		c1.3,1,2.5,2,3.8,3c2.6,1.8,6,2.5,7.8,5.3c1.5,1.8,2.1,4.1,2.9,6.3c0-0.2,0-0.6,0-0.8c-0.3-2.3-0.8-4.6-2.5-6.3
		c-1.4-1.7-3.5-2.2-5.3-3.3c-2.9-2-5.8-4-8.3-6.5c-1.4-1.4-2.4-3.1-3.8-4.6c-2.3-2.5-4.4-5.3-5.3-8.5c1.5,1.8,2.5,3.9,4,5.8
		c2.3,3,4.8,5.9,7.8,8.1c4,3.5,9.2,5.6,12.7,9.7c0.7,1.5,1,3.2,1.7,4.8c0.4,0.9,0.6,1.8,0.9,2.7c-0.1-0.7-0.1-1.4-0.2-2.1
		C222.4,97.6,221.6,96.2,221.1,94.7z"/>
	<path d="M204.9,71.9c-0.7-0.3-1.2-0.9-1.7-1.4c0,0.2-0.1,0.7-0.2,1c0.7,0,1.2,0.6,1.7,1.1C204.7,72.3,204.8,72,204.9,71.9z"/>
	<path d="M151.2,68.7c0.1-0.5-0.1-0.8-0.6-0.7C150.5,68.5,150.7,68.8,151.2,68.7z"/>
	<polygon points="98.8,69.7 98.6,69.6 98.5,69.8 98.7,69.8 	"/>
	<path d="M97.2,71.1l0,0.2c0-0.1,0.1-0.2,0.2-0.3L97.2,71.1z"/>
	<path d="M167.8,93.5c-1.2-1-2.2-2.1-3.6-2.8c-0.8-0.4-1.5-1-2.2-1.6l0.2-0.5l-0.3,0.6c-0.9-0.8-1.8-1.5-2.8-2.3
		c-1.8-1.3-3-3.2-4.7-4.7c-0.9-0.8-2.1-1.2-3.1-1.9c-0.8-0.8-1.3-1.9-2.3-2.7c-1.2-1-2.5-1.8-3.5-3c-0.8-1-1.8-1.8-2.8-2.5
		c-0.3-0.3-0.8-0.3-1.2-0.1c-1.2,0.9-2.3,2-3.8,2.2c-1.6,0.1-3.3-0.3-4.8,0.5c-1.3,0.5-2.3,1.9-2,3.4c0.4,2.2,1.2,4.7,3.3,5.9
		c2.3,1.3,3.9,3.5,6.3,4.7c0.9,0.5,1.8,1,2.6,1.5c1.5,1,3.2,1.3,4.9,1.8c2.1,0.6,3.7,2.2,5.1,3.7c1.5,2,3.2,3.8,5.3,5.2
		c2,1.2,4,2.4,6,3.6c1.2,0.8,2.1,1.9,3.1,2.9c1,1.1,1.7,2.4,2.9,3.3c-0.3-0.7-0.7-1.3-1.1-1.9c-1.1-1.8-2.7-3.2-4.4-4.4
		c-2.1-1.2-4.2-2.4-6.2-3.7c-2.2-1.5-4.2-3.5-5.8-5.6c-1.7-2.1-4.1-3.5-6.8-4.2c-1.9-0.4-3.3-1.8-5.1-2.5c-2.4-1.1-4.1-3.4-6.5-4.6
		c-2.3-1.1-3.3-3.8-3.3-6.3c-0.2-1.1,0.7-1.9,1.5-2.4c2-1.7,4.9,0.1,7.1-1.3c0.9-0.5,1.5-1.6,2.5-1.8c1.1,0.6,2,1.5,2.8,2.5
		c1,1.2,2.3,1.9,3.4,2.9c1,0.9,1.6,2.2,2.8,3c1,0.7,2.1,1.1,3,1.9c1.4,1.3,2.6,2.8,4,4c2.4,1.9,5,3.7,7.2,5.9
		c1.4,0.7,2.4,2.1,3.9,2.8C169.1,94.5,168.4,94,167.8,93.5z"/>
	<path d="M208.6,77c1,0.9,2,1.6,2.9,2.5c-0.5-1.4-1.9-2.2-2.9-3.2C208,76.1,208.1,76.9,208.6,77z"/>
	<path d="M75.5,87.7c-0.8,0.6-1.5,1.2-2.3,1.9c-0.7,0.7-1.6,1.5-2,2.5c0.8-0.9,1.6-1.7,2.5-2.5C74.4,89,75,88.4,75.5,87.7z"/>
	<path d="M205.1,96.4c-1.4-1.5-2.5-3.2-4.1-4.5c0.6,1.3,1.7,2.3,2.5,3.4c1.6,1.7,3,3.6,5,4.9c1.6,1,3.4,1.7,5.4,1.9
		c1.2,0,2.4,0,3.6-0.2c-1.2-0.8-2.7-0.7-4-0.9C210.2,100.6,207.2,98.8,205.1,96.4z"/>
	<path d="M171,95.4c1.1-0.4,1.9,1,2.8,1.4c-0.2,0.2-0.4,0.3-0.6,0.5C172.5,96.6,171.7,96,171,95.4c-0.3-0.3-0.7-0.4-1.1,0
		c0.1,0.1,0.2,0.4,0.2,0.5c0.1-0.1,0.3-0.2,0.4-0.2c0.9,0.4,1.3,1.3,2.1,1.9c0.2,0,0.5,0.1,0.6,0.1c0,0.2-0.1,0.6-0.1,0.8
		c-0.1-0.2-0.3-0.7-0.5-0.9c-1.8,0.1-2.9-1.7-4.4-2.3c1.1,1.4,2.5,2.2,4,3c1.2,0.6,2.2,1.9,3.7,1.9l0.4,0c-0.9-0.5-1.9-1-2.9-1.4
		c0.2-0.2,0.4-0.3,0.7-0.5c0.6,0.3,1.3,0.7,2,0.9c-0.6-0.6-1.3-1-2.1-1.3c0-0.2-0.1-0.7-0.1-1c0.7,0.3,1.3,0.7,1.9,1.1
		c-0.1-0.1-0.3-0.3-0.4-0.4c-2.2-0.9-3.5-3.1-5.7-4.1c0.6,0.5,1.2,1.1,1.7,1.6L171,95.4z"/>
	<path d="M114.3,112.7c-0.2-2.2,1.1-4.5,3-5.5c1.5-0.9,3-2.5,4.9-1.9c1.6,0.9,2.5,2.6,3,4.3c0.5,1.8,2.2,2.9,3.1,4.5
		c1.5,2.4,3.9,4.1,6.2,5.6c-2.2-2.1-5-3.7-6.6-6.4c-2-2.4-2.6-5.6-4.7-7.9c-1.4-0.2-2.9-0.7-4.2,0c-0.9,0.7-1.7,1.3-2.7,1.8
		c-1.2,0.7-1.7,2.1-2.3,3.4c-0.6,2.1,0.5,4.2,1.7,5.8c1,1.2,1.8,2.5,3.2,3.2c-0.1-0.1-0.2-0.3-0.3-0.4
		C116.9,117.2,114.9,115.3,114.3,112.7z"/>
	<path d="M196.6,113.9c1,0.5,2.2,0.5,3.4,0.4c0.6,0,0.8-0.8,1.3-1c1.1-0.3,2.3-0.3,3.5-0.6c-1.3-0.1-2.5-0.1-3.8,0
		c-2.7,0.2-5.4-0.1-8-0.7c-2.5-0.7-4.9-2-7.2-3.2c0.6,0.8,1.7,1.2,2.6,1.7c1.6,0.8,3.3,1.5,5,2.1c2.4,0.8,5,0.7,7.6,0.9
		C199.7,114.4,198.1,113.9,196.6,113.9z"/>
	<path d="M156.3,119.6l-0.4-0.1c2.3,1.6,4.5,3.5,7.2,4.5l-0.2-0.2C160.6,122.6,158.7,120.7,156.3,119.6z"/>
	<path d="M218,73.9c-1.4-1.5-3-2.8-4.2-4.4l0,0.8c-0.1-0.2-0.2-0.5-0.3-0.6l-0.2,0c-0.1,0-0.4-0.1-0.6-0.1c0.2-0.1,0.7-0.2,0.9-0.3
		c-0.9-1.4-1.3-3.1-2.4-4.3c-0.5-0.5-0.9-1-1.4-1.5c-0.7-0.8-1.5-1.5-1.9-2.5c0.6,0.4,1.1,0.7,1.7,1c-0.6-0.8-1.8-1.3-1.8-2.4
		l-0.4,0.1c-1.4-0.8-3.1-0.6-4.5-1.3c-1.6-1.2-3.2-2.5-4.4-4.2l0.5,0c2.7,1,5.7,1.4,8.4,2.4c2.3,0.8,3.8,2.8,5.5,4.3
		c2.4,2.6,5.3,4.8,8.4,6.5c1.1,0.4,1.9,1.3,2.9,1.9c-1.4-1.6-3.5-2.3-4.9-3.8c-1.8-1.8-4.1-3.2-5.7-5.2c-1.3-1.3-2.4-2.8-3.8-4.2
		c-1.1-1.1-2.7-0.9-4-1.4c-1.4-0.5-2.9-0.9-4.5-1.2c-2.7-0.7-4.9-2.2-7.1-3.8c-0.1,0.1-0.4,0.4-0.6,0.6c0-0.2,0.1-0.6,0.2-0.8
		c-1.2-0.2-2.4-0.7-3.4-1.5c-1.1,0.6-1.8,1.7-2.9,2.3c-2.5,0.7-5,2.2-7.7,1.7c-2.9,0-4.2-3.2-6.9-3.7c1.4,0.9,2.6,2,3.6,3.4
		c0.8,1.3,2.4,1.1,3.7,1.6c1.2,0.5,2.6,0.6,3.9,0.5c-0.7,1.5-1.6,3-2,4.6c-0.3,1-0.8,2-1.4,2.9c1.1-0.9,2-2.1,2.8-3.3
		c1-1.4,2.1-2.7,3.2-4c-0.6,2.4-1.5,4.7-1.7,7.2c0,2.5,0.5,5,1.6,7.3c0.7,1.3,0.9,2.7,1.8,3.9l-0.1-0.8c-1.3-3.5-3.4-7.2-2.5-11.1
		c0.6,2.3,0.5,4.8,1.6,7c0.9,2.6,1.9,5.1,2.8,7.7c0.4,2.2,0.6,4.8,2.5,6.4c-0.4-1.4-1.3-2.5-1.4-3.9c-0.2-1.6,0.1-3.3-0.3-4.9
		c-0.8-2.9-2.1-5.5-2.9-8.4c-0.3-2-0.1-4.1,0.1-6.1c0.2-1.8,1.2-3.4,1.5-5.2c1.9-1.5,4.9-1.4,6.6,0.5c1.6,1.9,3.2,4,5.5,5.2
		c1.9,0.9,4.3,0,5.7,1.8c-1.8,0-3.6,0-5.2-0.7c-1.5-0.7-3.1-1.4-4.3-2.6c-1.1-1-1.6-2.5-2.8-3.4c-0.6-0.4-1.4-0.6-2.1-0.8
		c0.5,1.5,1.3,2.9,1.7,4.4c0.6,1.7,0.8,3.6,1.4,5.3c0.9,3,2.4,5.7,4.3,8.2c2.2,2.9,4.1,6,6.7,8.5c3.1,2.6,6.5,4.9,9.7,7.4l0.4,0.2
		c-1.7-1.5-3.6-2.7-5.3-4.1c-2.4-2-5.2-3.7-7-6.3c-1.3-1.8-3-3.4-3.7-5.5c-0.6-0.1-1-0.7-0.9-1.3l-0.4-0.1c-1.8-2.3-2.8-5.1-3.7-7.8
		c-0.1-0.5-0.6-1.3-0.2-1.7c0.1,0.1,0.3,0.2,0.5,0.3c0.9,2.7,1.8,5.4,3.3,7.9c0.2,0.5,0.7,1,0.5,1.5l0.2,0c0.6,0.1,1,0.8,0.8,1.3
		l0.4,0.1c2,1.9,3.4,4.5,5.6,6.3c2.1,1.8,3.9,3.8,6.2,5.3c-0.2-0.2-0.6-0.6-0.8-0.7l0.4-0.5l-0.4,0.5c-2-1.9-4.1-3.8-6-5.8l0.3-0.1
		l-0.3-0.1l0-0.3l-0.4,0.1c-0.5-0.9-2-1.7-1.5-2.8l-0.3,0.5c-0.5-0.7-1.1-1.3-1.6-2c-0.4-0.4-0.8-0.9-1.1-1.3
		c-0.3-0.4-0.6-0.8-0.9-1.3c-0.3-0.3-0.4-0.7-0.5-1.2c-0.1-0.2-0.4-0.5-0.5-0.7c-1.2-1.9-1.9-4-2.7-6c-0.4-1-0.6-2.1-0.6-3.2
		c1,1,2,2.1,3.3,2.8c3.1,1.8,6.9,2.9,8.7,6.3c-0.7,0-1-0.6-1.4-1c-1.3-1.6-3.3-2.3-5.2-3.1c-1.6-0.6-2.9-1.8-4.2-2.8
		c0.3,1.5,1.2,2.8,1.5,4.4c0.1,0.6,0.4,1.2,0.7,1.6c0.1-0.3,0.2-1,0.3-1.3c0.2,0.6,0.5,1.2,0.8,1.8c0.1,0.1,0.3,0.4,0.4,0.5
		c0.4,0.9,0.9,1.8,1.5,2.5c0.7,0.8,1.5,1.5,1.9,2.4c0.5,0,0.7,0.6,0.7,1l0.2,0.1l-0.1,0.3l0.2-0.1l0.1,0.2c3,2.1,5.2,5,8.1,7.2
		c-0.8-0.9-1.7-1.6-2.5-2.5c-2.3-2.5-5.2-4.5-7-7.4c-2-2-3.1-4.5-4.3-7c1.6,0.9,3.3,1.5,4.8,2.3c1.1,0.6,1.6,1.9,2.8,2.4
		c-1.1-1.6-2.6-3.1-4.5-3.6c-1.6-0.4-2.8-1.5-4.3-2.1c-0.4-0.4-0.4-1-0.6-1.5c2.3,1.9,5.3,2.5,7.7,4.2c1.4,1.2,2.4,2.6,3.4,4.1
		c-0.1-0.4-0.2-1.1-0.2-1.4c2.7,3,4.5,6.9,7.8,9.4c-2.6-2.8-4.8-5.9-6.9-9c-0.8-1.3-1.5-2.7-2.6-3.8c-2.4-2.4-6-3-8.5-5.2
		c-1.1-1-2.2-2.1-3.2-3.3c0.3,1,0.9,2.1,0.4,3.2c-0.5-0.2-0.5-0.9-0.6-1.3c-0.3-1.5-1-2.9-1.5-4.4c2.1,0.8,2.7,3.2,4.4,4.4
		c1,0.7,2,1.5,3,2.2c1.5,1,3.5,0.9,4.8,2.1c2.2,2.2,3.7,4.9,5.3,7.5c1.5,2,3.2,3.8,5,5.5c2,1.7,4.2,3.1,6.2,5
		c0.4,0.4,0.8,0.8,1.3,1.1c-0.2-0.4-0.5-0.8-0.7-1.1c-1.4-2-3.5-3.5-4.6-5.8c-0.2,0-0.6-0.1-0.8-0.1L218,73.9z"/>
	<path d="M109.4,73.5c-0.2,2.5-1.4,5.4,0.1,7.7c-0.2-1.7-0.4-3.5-0.1-5.3C109.5,75.1,109.7,74.3,109.4,73.5z"/>
	<path d="M177.6,83c0.1,0.3,0.7,0.6,0,0.9c0.2,0.6,0.4,1.2,0.9,1.7c1.4,1.5,2.8,3,4.2,4.5c1.5,2,2.8,4.1,4.5,5.9
		c-1.2-2.5-3-4.7-4.1-7.2l-0.2-0.1c-0.4-0.9-0.9-1.7-1.5-2.5c-0.6-1-1.4-1.9-1.9-2.9c-0.1-1.7,0.1-3.7-1-5.2c-0.3-0.3-0.5-0.8-0.9-1
		c-0.5-0.8-1.2-1.5-1.8-2.2l-0.1-0.4l-0.2,0.2c-0.1-0.5-0.4-1.1-0.9-1.2l0-0.3c-0.8-1-1.6-2-2.3-3.1l-0.2-0.1
		c-1.2-1.9-3.9-2.1-5-4.1c0.3,1.8,2.2,2.4,3.1,3.8c1.3,2.7,2.6,5.6,5.2,7.3c0.3,0.8,1.1,1.4,1.5,2.2C177.4,80.3,177,81.7,177.6,83z"
		/>
	<path d="M73.9,83c-1.2,1-2.5,1.9-3.8,2.6c-1.1,0.8-2.5,1.3-3.4,2.3c0.5-0.2,1-0.5,1.5-0.8c2.4-1.5,4.9-2.8,7-4.8
		C74.7,82.3,74.2,82.7,73.9,83z"/>
	<path d="M173.3,102.4c0.1,0.1,0.2,0.3,0.2,0.4c3,1.5,6.1,2.7,9,4.3c1.1,0.6,2,1.3,3.2,1.7c-1.7-1.3-3.4-2.5-5.3-3.3
		C178.1,104.5,175.6,103.7,173.3,102.4z"/>
	<path d="M206.5,74.6l-0.2,0c0.1,0,0.2,0.1,0.3,0.2L206.5,74.6z"/>
	<path d="M91,98.1c1.2-2.1,3.5-3.3,4.7-5.4c0.4-1.7-0.4-3.4-0.2-5.1c0.3-3.4,0.8-7.2-1.1-10.2c-4.1,2.1-4.6,7.3-7.5,10.5
		c1.2-2.7,2.7-5.3,4.2-7.9c0.8-1.6,2.3-2.7,3.3-4.1c0.5,1.3,1.4,2.4,1.8,3.7c0.2,1.8,0.1,3.6,0.1,5.4c0.1,1.8-0.5,3.5-0.1,5.2
		c0,0.6,0.4,1,0.9,1.3c-1-2.5,0.1-5.1,0-7.7c-0.1-1.4,0.1-2.8-0.1-4.2c-0.2-1.8-1.5-3.1-2.6-4.5c-1.2,1.2-2.7,2.1-3.6,3.6
		c-1.3,1.9-2.3,3.9-3.2,6c-1.6,3.4-3.3,6.6-5.1,9.9c-0.8,1.6-1.6,3.3-1.7,5.2c0.1,0,0.3-0.1,0.4-0.2c0.4-2.4,1.6-4.6,2.8-6.7
		c0.4-0.7,0.8-1.4,1.3-1.9c-1.4,3-3.3,5.9-3.6,9.2c-0.2,1.2-0.3,2.5,0.5,3.5c0.1-0.2,0.2-0.6,0.2-0.7c0.2-0.5,0.3-1.1,0.5-1.6
		c0.3,0,0.7,0.1,1,0.2c0.9-0.9,1.7-1.8,2.4-2.8c1.8-1.9,3.6-3.7,5.3-5.7c0.9-1.2,1.6-2.6,1.6-4.1c0-2.2-0.1-4.4,0-6.6
		c-0.5,0.4-1,0.9-1.5,1.3c-0.1,1-0.7,1.9-1.4,2.7c0.4-0.9,0.6-2,1.4-2.7c0.3-1.1,1.2-1.9,1.8-2.7c0.4,1.8,0.7,3.7,0.3,5.6
		c-0.4,1.8,0.4,3.6,0.1,5.4c-1.2,1.8-3.1,3-4.6,4.6c-1.5,1.5-2.6,3.4-4,5c-1,0.9-2,1.8-2.7,3c-0.1,0.3-0.8,0.9-0.2,1.1
		c0.3-0.3,0.6-0.7,0.9-1c0.9-1.3,2.2-2.1,3.1-3.3c1.2-1.5,2.4-3,3.6-4.4c1.4-1.4,2.8-2.8,4-4.2c0.9-0.9,0.5-2.4,0.7-3.5
		c0.4,1.2,0.6,2.4,0.6,3.6c-1.1,1.1-2.4,2-3.6,3c-1.7,1.5-2.5,3.7-4.2,5.3c-1.5,1.3-2.8,2.9-4.2,4.3c-1.2,1.3-2.4,2.6-3.7,3.7
		c0,0.1,0,0.3,0,0.4c0.3-0.2,0.5-0.4,0.8-0.6c2.2-1.6,4.1-3.7,6.3-5.4C88.6,101.9,89.8,99.9,91,98.1z M85.7,90.4
		C85.2,89.3,86.9,89.8,85.7,90.4L85.7,90.4z M83.8,101.1c-0.1-0.2-0.3-0.5-0.4-0.7c0.1-0.2,0.2-0.6,0.2-0.8c0.3-0.9,0.7-1.7,1-2.6
		C85.2,98.4,83.8,99.7,83.8,101.1z M95,88.6l-0.5,0c0-1.4,0.2-2.7,0.3-4c0.2-1.6-0.3-3.2-0.8-4.7c-1.7,1.5-3.1,3.4-4,5.5
		c-1.2,2.6-3.2,4.9-4.2,7.6c0.7-0.3,0.9-0.9,1.3-1.5c0.8-1.4,1.8-2.7,2.6-4.1c0.1,0.1,0.4,0.3,0.5,0.4c0.9-1.5,1.7-3.1,2.7-4.6
		c-0.2,2.4,0,4.8-0.4,7.2c-0.5,1.7-1.9,2.8-3,4.2c-0.7,0.8-1.3,1.8-2.4,2.1c0.8-1.4,1.9-2.7,3-3.9c1.6-2,2.2-4.7,2.1-7.2
		c-0.8,1.1-1.5,2.3-1.9,3.6l-0.5-0.2c0.1-0.3,0.2-0.8,0.3-1.1L89.6,88c-0.4,1.7-1.5,3.1-2.4,4.6l0.2,0.3c0.3-0.3,0.6-0.7,0.9-1
		c0.2-0.5,0.4-1,0.6-1.5l0.2,0.3c0,0.2,0.1,0.6,0.2,0.8c0.7-1.4,1.1-3,2.4-4c-0.5,2.1-1.2,4.3-2.8,5.9c-1.2,1.3-2.3,2.8-3.3,4.4
		c0.2-0.1,0.7-0.4,1-0.6c0,0.2-0.1,0.5-0.1,0.7c-0.5,0.5-1,1-1.5,1.5c0.6,1.1-1.2,0.4,0,0c0.1-0.8,0.2-1.6,0.3-2.3
		c1.2-1.4,2.1-3.1,3.3-4.5c-0.5,0.3-0.9,0.5-1.4,0.8c0-0.2,0.1-0.6,0.1-0.8l-0.1-0.3c-0.3,0.5-0.7,0.9-1.4,0.8
		c-1.1,2.1-2.1,4.2-2.7,6.4c-0.2,0.7-0.4,1.4-0.6,2.1l-0.3-0.3c0.3-3.9,2.4-7.3,4.2-10.7c1.1-2.5,2.8-4.6,3.9-7.1c1-1.8,2-4,4-5
		C95.5,81.7,95.6,85.3,95,88.6z"/>
	<path d="M221,80.9l0.6,0c-1.1-1.2-2.4-2.1-3.8-2.9C218.7,79.2,219.9,80,221,80.9z"/>
	<path d="M160.2,79.5c0,0,0.2,0.2,0.2,0.2L160.2,79.5L160.2,79.5z"/>
	<path d="M160.4,79.7l0.1,0.1l0.1,0.1C160.5,79.8,160.4,79.7,160.4,79.7z"/>
	<path d="M214.7,80.9c-0.1,0.6,0.7,0.9,1.1,1.2L216,82C216,81.4,215.3,80.7,214.7,80.9z"/>
	<path d="M162.2,86.7l-0.2-0.1c0.1,0.1,0.2,0.2,0.2,0.3L162.2,86.7z"/>
	<path d="M162.4,87l-0.1-0.1C162.3,87,162.4,87,162.4,87L162.4,87z"/>
	<path d="M167.9,91.3l-0.2-0.1c0.1,0.1,0.2,0.2,0.2,0.3L167.9,91.3z"/>
	<path d="M168.2,91.6l-0.2-0.1c0,0.1,0.1,0.3,0.2,0.3L168.2,91.6z"/>
	<path d="M176.6,92.8l-0.2-0.1c0,0.1,0.1,0.2,0.2,0.2L176.6,92.8z"/>
	<path d="M163.9,106.9l0.2,0.1c-2.1-2-4.8-3.2-6.8-5.2c-1.6-1.6-3.7-2.7-4.8-4.7c-1.2-2.4-4-3.1-6.3-4c-1.7-0.9-3.4-1.9-5.2-2.9
		c-0.8-0.9-1.9-1.4-2.9-2c-1.9-1.3-3.7-2.8-5.4-4.4c0.2,1.5,0.8,2.9,1.3,4.3c-0.5,0.5-1,1.1-1.7,0.8c-1.1-0.8-2.3-1.6-3.1-2.7
		c-0.4,0.2-0.8,0.4-1.2,0.7c-0.7,0.6-1.3,1.3-1.9,2c-0.9,0.1-1.8,0.1-2.7,0.2c-1.8,0-2.9,1.5-4.4,2.2c-1,0.5-1.9,1-2.6,1.9
		c2.2-0.6,4.4-1.1,6.4-2.2c2.3-0.5,4.2,1,6.3,1.5c2,0.8,4.2-0.3,6.2,0.5c0.3,0.1,0.8,0.2,1.1,0.2c0.3,0.1,0.6,0.1,0.9,0.2
		c2.8,0.2,5.5,0.7,8,2c1.1,0.8,2,1.8,3.3,2.3c3.3,1,5.5,3.9,8.4,5.6c0.4,0.3,1.9-0.4,1.1,0.7C160,104.8,161.9,106,163.9,106.9z"/>
	<path d="M217.5,94.5c-0.4-0.4-0.9-0.8-1.4-0.9C215.3,94.1,217.3,95.3,217.5,94.5z"/>
	<path d="M171.2,101c-0.1,0.5,0.7,1.3,1.3,1C172.6,101.4,171.7,100.9,171.2,101z"/>
	<path d="M207.4,102.3c-3.1-2.4-4.9-5.9-7.6-8.6c1.1,0.3,1.7,1.3,2.4,2.1c1.3,1.6,2.4,3.4,4,4.7c1.7,1.5,3.8,2.4,6,2.7
		c0.3-0.1,0.8-0.3,1-0.4c-3.9,0-7.1-2.8-9.3-5.8c-1.3-1.9-3.1-3.5-4.8-5.1c-1.2-1.4-2.2-3-3.5-4.4c-1.2-1.5-2.6-2.9-3.8-4.4
		c0-0.1,0.1-0.3,0.1-0.5c2.6,2.6,4.8,5.6,7.6,8c-1.5-2.2-3.4-4-5.2-6c-1.8-1.6-3.2-3.5-4.1-5.7c0,0.1,0,0.3,0.1,0.4
		c0.1,1.2,1,2.2,1.6,3.2c-0.2-0.1-0.7-0.3-0.9-0.4c0,0-0.1-0.1-0.1-0.1c-0.3-0.5-0.6-0.9-0.9-1.4c-1-0.1-2-0.1-2.9-0.1
		c0.3-0.1,1-0.3,1.4-0.4l0.1-0.5c-3,1-5.8-0.8-8-2.6c0.8,1.1,1.8,1.9,2.8,2.8c1.1,1,2.7,1.2,3.9,2.2c1.6,1.3,3.4,2.5,4.5,4.2
		c1.1,1.7,2.7,2.9,3.9,4.6c3.5,4.2,6.3,9.1,10.8,12.4c0.3,0.1,0.8,0.4,1,0.6c0.8,0.3,1.5,0.6,2.3,0.9c2.3,1,4.9,0.8,7.4,0.8
		c-0.4-0.1-0.9-0.3-1.3-0.3C212.9,104.8,209.8,104.3,207.4,102.3z"/>
	<path d="M98.7,104c0.1-0.5,0-0.9-0.3-1.3c-0.3,1.4-0.9,2.7-1.3,4c0.4-0.4,0.9-0.8,1.1-1.4C98.4,104.9,98.6,104.4,98.7,104z"/>
	<path d="M194.2,113.5c-3.3-1-6.5-2.5-9.4-4.3c-3.5-2.1-7.4-3.4-11-5.2c1.1,1.8,3.1,2.7,4.8,3.8l-0.1-0.8c5.5,1.4,9.7,5.7,15.4,6.7
		C193.9,113.6,194.1,113.5,194.2,113.5z"/>
	<path d="M169.8,106.9c0.1-0.5-0.1-0.7-0.7-0.6C169,106.8,169.3,107,169.8,106.9z"/>
	<path d="M88,106.6c-1.3,0.9-2.8,1.6-3.9,2.7C85.7,109,87.1,107.9,88,106.6z"/>
	<path d="M164.7,108.6c-0.3-0.5-0.8-1-1.4-1.2c-1.2-0.4-2.5-0.7-3.8-0.8c1.5,0.7,3.1,1.2,4.6,1.8L164.7,108.6z"/>
	<path d="M90.1,107.2c-1.6,0.6-2.7,1.9-4,2.9C87.8,109.8,89,108.4,90.1,107.2z"/>
	<path d="M165.2,112c0.8,0.6,1.6,1.3,2.6,1.6c-1.2-1.8-3.4-2.8-5.4-3.5C163,111.1,164.2,111.3,165.2,112z"/>
	<path d="M106,116.5c0.1-0.4,0.2-0.7,0.2-1.1c-0.4-1.3-0.8-2.6-1-3.9C104.9,113.1,105.5,114.9,106,116.5z"/>
	<path d="M182.1,113.6c0,0.6,1,1.1,1.6,0.9C183.8,113.8,182.7,113.4,182.1,113.6z"/>
	<path d="M110.3,116.1l-0.5-0.1c0.5,1.4,1.5,2.5,2.5,3.6c-0.1-0.4-0.2-0.8-0.4-1.2C111.4,117.6,110.9,116.9,110.3,116.1z"/>
</g>
</svg>
