<?xml version="1.0" encoding="utf-8"?>
<!-- Generator: Adobe Illustrator 26.0.3, SVG Export Plug-In . SVG Version: 6.00 Build 0)  -->
<svg version="1.1" id="Слой_50" xmlns="http://www.w3.org/2000/svg" xmlns:xlink="http://www.w3.org/1999/xlink" x="0px"
	 y="0px" viewBox="0 0 239.5 150.2" style="enable-background:new 0 0 239.5 150.2;" xml:space="preserve">
<style type="text/css">
	.st0{fill:#020202;}
</style>
<g>
	<path class="st0" d="M104.2,18.8c-0.7,2.3-0.3,4.8-0.4,7.2c-0.1,20.5,0.1,41.1-0.1,61.6c-1.9-0.6-3.9-0.7-5.8-1.5
		c-0.4-0.6-0.9-1.3-1.3-1.9c-1.9,0-4,0.5-5.7-0.6c-2.5-1.4-5.2-2.4-7.9-3.2c-4-1.2-7.5-3.6-11.1-5.6c4.3,3.5,8.8,6.8,13.6,9.6
		c2.4,1.3,5.2,2.1,7,4.2c0.4,1.5,0.2,3,0.3,4.5c0.8,0.3,1.5,0.6,2.3,0.9c0.9-1.5,1.4-4.1,3.7-3.8c1.6,0.4,3.3,0.7,4.9,0.7
		c0.2,13.3,0.2,26.7,0,40c0.6,0.4,1.3,0.5,2.1,0.5c29.4,0,58.8,0,88.2,0c0.1-37.5,0.1-75.1,0-112.6
		C164.1,18.8,134.1,18.8,104.2,18.8z M188.8,116.3c-6.1-0.7-12.4-3.1-18.5-1c-7.9,4.7-17.5,4.2-26.1,7c-1.5,0.5-2.4,1.9-3.6,2.8
		c-3.4,2.2-7.7,1.5-11.4,2.6c-0.1,0.4-0.2,1.2-0.2,1.7c-1.5,0.4-3.1,0.8-4.6,0.7c-6.4,0-12.9,0-19.3,0c0-1.3,0-2.7,0-4
		c4.3-3,8.8-5.7,12.8-9.1c3.4-2,6.3-4.7,9.6-6.9c3.4-1.2,5.5-4.5,9-5.7c4.5-1.9,8.6-4.6,12.7-7.2c2.7-1.8,6.1-1.6,8.8-3.3
		c3.4-2,7.4-3,10.7-5.2c0,0.6,0.1,1.8,0.2,2.4c-7.8,3.9-16.5,6-23.6,11.3c-1.2,1.1-2,2.8-3.7,3.4c-0.6,2-2.4,3.1-3.7,4.6
		c1.1,0,1.9-0.8,2.7-1.4c3.4-2.9,8.1-4.1,12.4-3.7c3.6,1.9,7.8,1.6,11.6,2.6c5.6,1.3,11,3.3,16.2,5.6c2.7,0.8,5.3,2.1,8.2,2.3
		c1.3,1.6,2.1,3.6,2,5.8C190.6,119.7,190.2,117.7,188.8,116.3z M119.1,103.8c2.3,1.5,4.8,2.8,7.5,3.6c-2.4-0.4-4.6-1.4-6.9-2
		c-1.4,1.3-3.9,2.5-3.5,4.7c0.8,2,3.2,2.5,4.8,3.8c-1.2-0.6-2.5-1.1-3.8-1.6c-1,1.6-2,3.2-3.5,4.5c-2.6,2.8-5.1,5.9-8.7,7.4
		c0-6.2,0-12.4,0-18.6c3.6-0.4,6.9-1.9,10.3-3.1c1.1-0.4,2.2-1,3.3-0.8C118.8,102.4,118.5,103.3,119.1,103.8z M144.9,96.6
		c0.6,0.4,1.1,0.9,1.7,1.3c-0.6-0.3-1.2-0.5-1.8-0.8c-3,0.9-4.8,3.5-7.5,4.8c-2,1.1-3.7,2.6-5.9,3.4c-2.6-0.1-5.1-1.3-7.6-2.2
		c3.8-1.1,7.7-2.1,11.1-4.1c1.2-0.7,1.8-2,2.8-3c1.5-0.5,3.1-0.8,4.6-1c-0.3,0.2-0.9,0.7-1.2,1C141.6,98.1,143.7,97.2,144.9,96.6z
		 M176.5,91.8c-1.7-0.9-3.8-1-5.3-2.3c-1-0.7-2-2-3.4-1.4c-4.2,1.5-8.2,3.6-12.3,5.5c-2.5,0.5-4.9-0.9-7-2.2
		c-4.1,1.3-8.2,2.6-12.3,3.9c-0.5,1-0.9,2.1-1.9,2.6c-3.3,1.9-7,3-10.6,3.9c-2.1,0.8-3.7-1.4-5.8-1.6c-4.3,1.3-8.3,3.7-12.9,4.1
		c0-4.3,0-8.7,0-13.1c1.3,0.1,2.7,0.2,4,0.6c0.4-0.1,1-0.3,1.4-0.4c0.3,0.2,0.9,0.5,1.2,0.7c3.7-0.5,7.4-1.2,10.9-2.4
		c-2.4,0-4.8,0.8-7.1,0.3c-3.3-0.6-6.7-1-9.9-2c-0.9-0.8-0.3-2.2-0.4-3.3c0-21.5,0-43.1,0-64.6c29.2,0,58.5,0,87.7,0
		c0.1,25.7,0,51.5,0.1,77.2C187.3,95.7,181.3,95,176.5,91.8z"/>
	<path class="st0" d="M124.9,30.4c-6.9,0.7-12.6,7.1-12.4,14.1c-0.1,7.1,6,13.6,13.1,13.9c6.9,0.7,13.5-4.5,14.8-11.2
		c0.8-4.3-0.4-9-3.3-12.2C134.1,31.6,129.4,29.9,124.9,30.4z"/>
	<path class="st0" d="M210.2,66.4c-2.2-2.9-2.5-6.7-3.5-10.1c2-1.8,4.4-3.2,6.7-4.8c0-0.9,0-1.9,0-2.8c-1.9,1.3-3.9,2.6-6,3.5
		c0-0.4,0-1.1,0-1.4c0.8-0.6,1.6-1.2,2.5-1.6c4.1-1.7,8.1-3.6,11.4-6.6c-1.7,1-3.5,1.9-5.4,2.4c-3.4,1-6.3,3.1-9.5,4.6
		c-1.1,0.6-2.3,1-3,2.1c-1.4,1.9-3.7,2.9-4.8,5c-0.3,1.6,1.2,2.3,2.5,2.1c0.3,1.9-0.5,3.8,0,5.6c3.5,4.2,7.5,8,12.1,11.1
		c0.7,0,1.5,0,2.2,0c-0.6-1.9-2.1-3.3-3-5.1C211.9,69,211.1,67.6,210.2,66.4z"/>
	<path class="st0" d="M157.5,54.1c-2.3-1.6-3.8-4.2-4.7-6.8c-1.3-1.5-2.5-3.5-4.6-3.9c0.7,3.4,2.7,6.2,4,9.4
		c-1.2,0.7-1.9,1.7-1.4,3.1c0.8-0.5,1.6-1.1,2.3-1.8c2.6,2.2,5.4,4.1,8.1,6.1c0.3,0,0.8,0,1.1,0c0-0.3,0-1,0-1.3
		C160.6,57.4,159.3,55.4,157.5,54.1z"/>
</g>
</svg>
