<?xml version="1.0" encoding="utf-8"?>
<!-- Generator: Adobe Illustrator 26.0.3, SVG Export Plug-In . SVG Version: 6.00 Build 0)  -->
<svg version="1.1" id="Слой_4" xmlns="http://www.w3.org/2000/svg" xmlns:xlink="http://www.w3.org/1999/xlink" x="0px" y="0px"
	 viewBox="0 0 239.5 150.2" style="enable-background:new 0 0 239.5 150.2;" xml:space="preserve">
<style type="text/css">
	.st0{fill:#0A0A0A;}
</style>
<g>
	<path class="st0" d="M154.2,82.3c0.1-0.4-0.4-0.9-0.8-0.8C153.3,81.9,153.8,82.4,154.2,82.3z"/>
	<path class="st0" d="M132.3,89.8c0.6-0.1,0.7,0.5,0.7,0.9c0.6-0.5,0.9-1.4,1.1-2.1c0.2,0,0.7,0.1,0.9,0.1c0.2,0.5,0,1.3,0.5,1.5
		c0.7-0.4,0.7-1.4,0.7-2.2c-0.3,0.6-0.1,1.6-0.9,1.8c0.1-0.8-0.5-1.7-1.4-1.5c-0.3,0.6-0.5,1.2-0.7,1.8c-0.2-0.1-0.6-0.2-0.8-0.3
		c0-0.1,0-0.2,0.1-0.3C132.5,89.6,132.4,89.7,132.3,89.8z"/>
	<path class="st0" d="M123.9,99.3c0.4,0.3,0.8,0.5,1.3,0.4c0.4,0.3,0.8,0.6,1.3,0.5c0.1,0,0.3,0,0.4,0c-0.5-0.2-1-0.3-1.4-0.6
		c-0.3-0.5-0.2-1.3-0.7-1.6c-0.4-0.3-1-0.8-0.7-1.4c0.5,0,0.9-0.1,1.4-0.1c0.1-1-0.7-2-0.2-3c0.4-0.4,0.8,0.6,1.2,0.1
		c0.5-0.3,0.5-1,1-1.2c0.3,0.9,0.3,1.8,0.3,2.6c0.5-1,0.3-2.5-0.7-3.1c-0.2,0.5-0.3,1.2-0.7,1.6c-0.3-0.4-0.8-0.4-1.3-0.3
		c-0.1,0.6-0.2,1.3,0,1.9c0.1,0.4,0.5,0.9,0.1,1.2c-0.5,0.2-1,0.3-1.5,0.3c-0.1,1.1,1.7,1.4,1.6,2.7c-0.6,0.3-0.9-0.5-1.5-0.4
		c-0.6,0.6-1.1,1.4-1.9,1.8c0-0.6,0-1.2,0.1-1.9c-0.5-0.7-1.3-0.3-2,0c-0.6,0.3-0.7-0.8-1.2-0.7c-0.3,0.2-0.6,0.5-0.9,0.7
		c0.3-0.1,0.6-0.3,0.9-0.5c0.1,0.3,0.3,0.5,0.5,0.8c0.8,0.1,1.5-0.5,2.3-0.5c0.1,0.9,0,1.8-0.1,2.7
		C122.4,100.9,123.2,100.1,123.9,99.3z"/>
	<path class="st0" d="M127.8,101.9c0,0.1,0,0.4,0,0.5c0.5-0.9,0.3-2,0.3-3c-0.4-0.3-1-0.8-0.6-1.4c0.2,0.1,0.5,0.3,0.7,0.4
		c0.3-0.3,0.5-0.8,0.8-1.2c0.8-0.3,1,0.7,1.3,1.2c0.8-0.2,0.9-1.3,0.4-1.9c0.3-0.3,0.4-0.8,0.4-1.2c-0.4-0.4-0.8-0.9-1.3-1.4
		c0,0.2,0.1,0.5,0.1,0.6c0.3,0.2,0.6,0.5,0.9,0.8c-0.2,0.4-0.3,0.8-0.5,1.1c0.1,0.4,0.2,0.9,0.2,1.3c-0.7,0.1-0.4-0.8-1-0.9
		c-0.8-0.3-1.3,0.4-1.6,1c-0.2-0.2-0.4-0.4-0.6-0.6c-0.1,0.3-0.3,0.6-0.4,0.8c0,0.3,0.1,0.6,0.1,0.9c0.3,0.2,0.5,0.3,0.8,0.5
		c0,0.5,0,1,0,1.5C127.9,101.3,127.8,101.6,127.8,101.9z"/>
	<path class="st0" d="M152.8,99.5c1.1,1.7,2.3,3.4,3.9,4.5c-0.4-0.5-0.8-1-1.2-1.5c-1.1-1.2-1.8-2.7-2.9-3.9c-0.5-0.6-1-1.2-1.5-1.8
		c-0.1-0.1-0.2-0.3-0.3-0.4c-0.5-0.6-0.6-1.5-1.4-1.8c0.2,0.3,0.3,0.7,0.5,1c-0.2,0-0.5,0-0.7,0c0.4,0.7,0.8,1.3,1.4,1.8l0-0.4
		c0.2,0,0.5,0.1,0.6,0.2C151.5,98.1,152.3,98.7,152.8,99.5z"/>
	<path class="st0" d="M130.2,102.7c0.9,0,1.2,1.1,1.7,1.6c0.1,0.5,0.1,1.1,0.3,1.6c0.6,0,0.9-0.8,1.4-1.1c0.3,0.1,0.5,0.1,0.8,0.2
		c0.2,0.6,0.5,1.1,0.7,1.7c0.2,0.6-0.6,0.9-0.7,1.4c0.6-0.1,1.2-0.4,1.7-0.8c0.2-0.6,0.3-1.2,0.5-1.8c0.5,0.1,0.7-0.6,1.2-0.5
		c0.3,0.8,0.6,1.7,1.6,1.6c0-0.1,0-0.2,0-0.2c-1,0.2-1.2-0.9-1.4-1.5c-0.2-0.1-0.4-0.1-0.5-0.2c-0.2,0.1-0.6,0.2-0.7,0.3
		c-0.7,0.7-0.6,1.9-1.4,2.5c0-1-0.4-2-1-2.8c-0.8-0.7-1.5,0.6-2.1,1c0.2-1.4-0.9-3.2-2.4-3.3c-0.7,0.7-1.4,1.6-1.9,2.5
		c-0.1,0.5,0.4,0.7,0.8,0.8c0,0.2,0.1,0.7,0.1,0.9c-0.1,0.2-0.3,0.5-0.4,0.8c0.3-0.1,0.4-0.2,0.5-0.5c0.5-0.7-0.4-1.3-0.6-2
		C128.8,104,129.5,103.3,130.2,102.7z"/>
	<path class="st0" d="M172.8,111.7c-1-0.7-2.1-1.4-3.3-1.8c0.3,0.2,0.5,0.4,0.7,0.7c0.9,0.5,1.8,0.9,2.7,1.4
		c0.2-0.1,0.3-0.2,0.5-0.3C173.1,111.8,172.9,111.8,172.8,111.7z"/>
	<path class="st0" d="M174.2,115.2c-0.2-0.1-0.5-0.2-0.7-0.2c-0.1,0-0.3-0.1-0.4-0.1c1.5,0.4,2.7,1.4,4.2,1.7
		c0.8,0.2,1.7,0.6,2.5,0.9c-0.8-0.9-2-1.1-3.1-1.4C175.9,115.7,175,115.5,174.2,115.2z"/>
	<path class="st0" d="M176.2,124.5c0.2,0.2,0.4,0.3,0.6,0.5c1.3,0,2.5,0.6,3.8,0.8c0.9,0.2,1.9,0.2,2.8,0.4c0.4,0,0.8,0,1.3-0.1
		c-0.2-0.1-0.5-0.2-0.7-0.3c-2.1-0.3-4.3-0.3-6.3-1c-0.3-0.2-0.6,0-0.8,0.1c-0.4-0.3-0.7-0.5-1.1-0.6c0.1,0,0.2,0.1,0.2,0.2
		L176.2,124.5z"/>
	<path class="st0" d="M153.3,20c-0.3,0.4-0.7,0.7-1,1.1c-0.2-0.5-0.4-1.1-0.6-1.6c0.1,0.5,0.3,0.9,0.4,1.4c-0.2,0.3-0.3,0.5-0.5,0.8
		C152.5,21.6,153.1,20.8,153.3,20z"/>
	<path class="st0" d="M133.6,29.9c-0.4-0.1-0.9-0.2-1.1,0.2c-0.4,0.6-0.6,1.3-1.2,1.7c-0.1-1.1-0.1-2.2-0.4-3.2
		c-0.8-0.4-1.6-0.3-2.4-0.3c-0.1,0.4-0.2,0.9-0.3,1.3c0.4-0.5,0.8-1,1.4-1.2c-0.3,0.7-0.8,1.3-1.3,2c-0.5,0.9-1.1,1.7-1.4,2.7
		c1-1.4,1.9-3,3.2-4.2c0.4,0,0.4,0.5,0.6,0.8c0.3,0.8,0.2,1.7,0.3,2.5c0.4-0.1,0.7-0.2,1.1-0.4c0.4-0.6,0.5-1.2,1-1.7
		c0.4,0.2,0.8,0.4,1.1,0.6c-1.7,1.5-3.5,3.1-4.5,5.2c1.2-2,3-3.5,4.9-4.9c0.5,0.5,0.9,1,1.3,1.6c0-0.2,0-0.5,0-0.6
		C135.2,31,134.4,30.4,133.6,29.9z"/>
	<path class="st0" d="M136.3,33.4c0.2-0.7,0.3-1.4-0.1-2c0,0.8-0.4,1.5-0.5,2.3C135.9,33.6,136.1,33.5,136.3,33.4z"/>
	<path class="st0" d="M127.1,65.7c-0.5-1.3-1.6-2.3-2.2-3.6C125.1,63.5,126.2,64.5,127.1,65.7z"/>
	<path class="st0" d="M195.8,102.7c1.4,0.7,2.9,1.5,4.6,1.5c0-0.1-0.1-0.3-0.1-0.3c-0.8-0.2-1.6-0.3-2.4-0.6
		C197.2,103,196.5,102.7,195.8,102.7z"/>
	<path class="st0" d="M162.2,114.8c0.6,0.1,1.1,0.3,1.5,0.7c0-0.1-0.1-0.2-0.1-0.2c-1.6-0.8-2.8-2.1-4.1-3.2
		c-0.4-0.3-0.6-0.7-0.7-1.2c0.1,0.5,0.2,1,0.3,1.5C160.5,112.3,161,114.2,162.2,114.8z"/>
	<path class="st0" d="M143.5,21.2c0.4,0.8,0.8,1.7,0.5,2.6C144.9,23.1,144.3,21.8,143.5,21.2z"/>
	<path class="st0" d="M147.6,38.6c-0.1-0.1-0.2-0.3-0.3-0.4c-0.4,0.6-0.9,1-1.4,1.6c0.4-0.2,0.8-0.4,1-0.8
		C147.1,38.8,147.3,38.7,147.6,38.6z"/>
	<path class="st0" d="M155.2,47.1c0.6,0,1.1,0,1.7-0.1C156.4,46.7,155.4,46.3,155.2,47.1z"/>
	<path class="st0" d="M141.6,68.7c-0.3-0.5-0.5-1-0.8-1.5c-0.1,0.1-0.2,0.4-0.3,0.6c0.3,0.4,0.6,0.8,0.9,1.2
		C141.4,68.9,141.5,68.8,141.6,68.7z"/>
	<path class="st0" d="M90.8,79.6c0.2,0.6,0.4,1.1,0.7,1.6C91.4,80.6,91.6,79.6,90.8,79.6z"/>
	<path class="st0" d="M104.6,83.4c0.4,0.5,0.7,1.1,1.3,1.4c-0.6-1.1-1.4-2.1-2.1-3.1C103.6,82.5,104.3,82.9,104.6,83.4z"/>
	<path class="st0" d="M114.4,84.8c0.3,0.6,0.7,1.1,1.2,1.5C115.3,85.8,114.9,85.2,114.4,84.8z"/>
	<path class="st0" d="M125.4,114.5c-0.5-0.8-1.6-0.3-1.5,0.6c-0.6-0.7-1.5,0.1-1.5,0.9c-0.1,1-0.6,1.7-1.2,2.5
		c-0.1-0.9-0.4-1.8-0.9-2.6c-0.4-0.5,0.2-1.2-0.2-1.7c-0.8-1.4-0.3-3.2-1.5-4.4c0,0.6,0,1.1,0,1.7c-0.3-0.2-0.9-0.7-1.1,0
		c-0.2-0.6-0.3-1.7-1.2-1.7c-0.6-0.1-1,0.5-1.4,0.9c-0.6,1.1,0.3,2.2-0.1,3.3c-0.3-0.5-0.4-1.2-1.2-1.2c0.3,0.7,0.7,1.4,0.7,2.1
		c0.7,0,1.1-0.9,1.1-1.5c-0.1-0.8-0.5-1.6-0.2-2.4c0.3-0.5,1-1,1.5-0.4c0,0.5,0.1,1,0.3,1.5c0.4-0.1,0.8-0.2,1.1-0.4
		c0.1,0.5-0.4,1.9,0.5,1.4c0.1-0.1,0.2-0.4,0.2-0.6c0.5,0.8,0.5,1.9,0.9,2.8c-1.2-0.6-2.4,0-3.3,0.7c-0.7-0.4-1.5-0.3-2.3-0.4
		c-0.6-0.2-1-0.8-1.5-1.2c-0.5,0.2,0.2,0.7,0.4,0.9c0.8,1.1,2.3,0.5,3.3,1.3c0.4,0.3,1.1,0.3,1.1,0.9c0.2,0,0.6-0.1,0.8-0.1
		c0.3,0.7,0.5,1.4,0.6,2.1c0.4,0.7,0.7,1.5,1.5,1.8c-0.6-1.2-0.9-2.4-1.4-3.6c-0.3-0.8-0.9-1.4-1.7-1.6c0.6-0.2,1.1-0.4,1.7-0.5
		c1.4,0.6,1.4,2.3,1.8,3.6c0.1,0,0.4-0.1,0.5-0.1c1-1,1.7-2.2,1.7-3.6c0.2,0.2,0.5,0.4,0.7,0.5c0.6-0.2,0.5-1.1,1.1-1.3
		c0.7,1,0.2,2.1,0.1,3.2C126.3,117.1,126,115.4,125.4,114.5z"/>
	<path class="st0" d="M166.9,118.9c-0.3-0.3-0.7-0.5-1.2-0.5c0.7,0.5,1.5,0.8,2.2,1.3c0-0.1,0-0.3,0-0.4c-0.2-0.2-0.4-0.4-0.6-0.6
		C167.1,118.9,167,118.9,166.9,118.9z"/>
	<path class="st0" d="M108.3,121.4c-0.3-0.4-0.4-1-0.9-1.2c0.3,1.4,1.4,2.4,2.1,3.6C109.5,122.8,108.7,122.2,108.3,121.4z"/>
	<path class="st0" d="M115.2,34.1c-0.9-0.4-2-0.2-2.8,0.2c0,0.1-0.1,0.3-0.1,0.5c0.8-0.4,1.9-0.9,2.6-0.1c-1.2,0.4-2,1.5-2.3,2.7
		c-0.1,1.3,0.7,2.3,1.2,3.5c0.4,1.2,1.4,2.2,2.5,3c1.4,0.2,2.8,0.5,4.2,0c0.4-0.1,0.9-0.2,1.4-0.2c0,0.2,0.1,0.6,0.2,0.8
		c1.1,0.4,2.2-0.1,3.3-0.4c0.8,0.5,1.6,1,2.2,1.8c-0.8-0.1-1.7-0.2-2.5,0.1c0.1,0.1,0.4,0.2,0.5,0.2c-0.2,1.1,1.3,1.7,0.8,2.9
		c-0.3-0.5-0.6-1-0.9-1.4c-0.6,0.5-0.9,1.5-1.7,1.7c-0.1-0.1-0.2-0.4-0.3-0.5c0.6-0.5,0.3-1.4,0.2-2.1c-0.1,0.9-0.2,1.9-0.7,2.7
		c0.2,0,0.5,0,0.7,0.1c0.3,1.1,1.2,1.7,2.1,2.2c0.8-0.2,1.6-0.3,2.3-0.6c0.7-0.4,1.2-1,1.9-1.4c0.6-0.1,0.1,0.6,0,0.8
		c0.7,0.9,1.8-0.1,2.6-0.2c0.8-0.4,1.4,0.3,1.9,0.8c-0.9,0-1.7,0.2-2.5,0.6c0,0.7,0,1.4-0.1,2.1c-0.6-0.2-0.4-1.1-0.9-1.3
		c-0.7,0.1-1.6-0.1-2.2,0.3c0.4,0,0.8-0.1,1.1-0.1c0.2,0.3,0.4,0.6,0.6,0.9c0.1-0.4,0.2-0.7,0.3-1.1c0.5,0.5,0.8,1.1,1.2,1.7
		c0.2,0,0.5,0,0.7,0c0.1-0.1,0.3-0.2,0.4-0.2c0.5-0.3,0.9-0.6,1.3-1c0.8,0.1,1.5,0.1,2.3,0.3c1.2,0.2,2.5-0.1,3.7,0.3
		c0.8,0.1,1.4,0.9,1.6,1.7c-1-0.6-2.5-1-3.2,0.2c0.5,1,1.2,2,1.3,3.2c-0.5-0.3-0.8-0.9-1.3-1.2c-1.1-0.3-1.9,1-3,0.6
		c-0.1-1.2,0.4-2.4,0.2-3.7c-0.8,0.3-1.5,1-1.8,1.8c0.5-0.5,1-1.1,1.6-1.5c0.3,1.6-0.8,3.3,0.2,4.9c-0.3,0.3-0.8,0.4-1.2,0.5
		c0.2-0.2,0.5-0.5,0.7-0.7c-0.4,0-0.7-0.1-1.1-0.1c-0.1,0.3-0.3,0.7-0.2,1c0.4,0.2,0.9,0.1,1.3,0.1c0.4,0.4,0.6,0.8,0.8,1.3
		c0.1,0.5,0.1,1.1,0.1,1.6c0.2,0,0.4,0,0.6,0c0-1-0.2-2.1-0.9-2.9c0.3-0.7,0.2-1.4,0-2.1c0.5,0.2,0.7,0.6,0.9,1.1
		c0-0.4,0.1-0.8,0.2-1.1c0.3,0.3,0.5,0.7,0.8,1c0.1-0.1,0.1-0.2,0.2-0.4c-0.2-0.3-0.4-0.5-0.6-0.7c0.3-0.1,0.8-0.3,1.1-0.4
		c0.1,0.8,0.2,1.7,0.5,2.5c-0.1-0.7-0.2-1.5-0.3-2.2c0.6,0.4,0.9,1.4,1.6,1.5c0.6-0.8-0.3-1.9,0.4-2.6c-0.1,0-0.3,0.1-0.4,0.1
		c-0.2-0.4-0.4-0.7-0.6-1.1c0-0.1,0.1-0.4,0.1-0.6c0.9-0.2,1.7,0.3,2.6,0.4c-0.1-0.5-0.2-1-0.4-1.5c-0.3-0.5-1.1-0.9-0.9-1.6
		c-0.2,0.6-0.7,0.5-1.2,0.3c0-0.1,0.1-0.4,0.1-0.6c-0.2,0.1-0.5,0.4-0.7,0.6c0-0.6,0-1.2,0-1.8c-0.1,0.5-0.1,1.1-0.2,1.6
		c-0.5,0-0.9,0.1-1.4,0.1c-0.2-0.3-0.3-0.6-0.5-0.9c0-0.3,0.1-0.6,0.1-0.9c-0.3,0.6-0.1,1.2,0,1.8c-0.2-0.1-0.6-0.2-0.7-0.3
		c-0.2,0-0.7,0.1-0.9,0.2c-0.2-0.6-0.4-1.1-0.7-1.7c0-0.2,0-0.4,0-0.6c-0.7-0.3-1.3-0.7-1.9-1.1c0-0.4-0.1-0.8-0.1-1.2
		c-0.2,0.4,0,0.8,0,1.3c-0.2,0-0.7,0.1-1,0.1c-0.1-0.4-0.3-0.9-0.4-1.3c0.1,0.6,0.2,1.1,0.3,1.7c-0.4,0-0.7-0.1-1.1-0.1
		c0-0.2,0.1-0.7,0.1-0.9c-0.5,0-1,0.1-1.5,0.1c-0.1-0.1-0.2-0.3-0.3-0.4c0.1,0.5-0.1,1-0.5,1.3c0-0.7,0-1.3-0.1-2
		c-0.2,0.6-0.1,1.3-0.1,1.9c-0.2,0.2-0.5,0.6-0.6,0.8c-0.5-1.2-0.5-2.4-0.7-3.6c0,0-0.1,0-0.2,0c0,0.2,0,0.6,0,0.9
		c-0.5-0.5-1.3-1.2-0.7-1.9c0.6,0.1,1.2,0.3,1.8,0.6c-0.1-0.7-0.3-1.4-0.5-2.1c-0.1,0.1-0.3,0.2-0.3,0.3c-0.5-0.4-1.1-0.8-1.7-1.2
		c0-0.5,0-1.1,0-1.7c-0.1,0-0.2,0-0.3,0c0,0.6,0,1.1,0,1.7c-0.2,0-0.6,0-0.8,0.1c0.1-1.4,0.3-2.9,0.2-4.3c-0.3,1.5-0.3,3-0.3,4.5
		c-0.3,0.1-0.7,0.2-1,0.3c0-0.5,0-1,0-1.5c0,0.5-0.1,1-0.1,1.5c-0.4-0.3-0.7-0.7-1-1.1c-1.2,0-2.3,0.2-3.5,0.4c0-0.3-0.1-0.8-0.1-1
		c0,0.3,0,0.6,0,0.9c-0.5,0.1-1,0.2-1.5,0.3c-1-0.9-2.3-1.6-2.7-3c-0.6-1.3-1.7-2.8-0.9-4.3c0.2,0,0.5,0,0.6,0
		c0.2-0.5,0.4-1.2,1.1-1.3c0.2,0.7,0.8,1.3,0.5,2.1c-0.2,0.7-0.4,1.4-0.2,2.1c0.2-0.7,0.4-1.5,0.7-2.2c0.2,0,0.5-0.1,0.7-0.1
		c0.2-0.6,0.3-1.3,0.3-2c0.2,0,0.7,0.1,0.9,0.1c0.3-0.2,0.6-0.4,1-0.6c0.1,0.6,0.4,1.3,0.4,1.9c-0.5,1.4-1.8,2.6-1.5,4.2
		c0.3-0.7,0.5-1.5,0.9-2.2c0.2-0.4,0.7-0.3,1.1-0.3c1.1-0.9,0.6-2.4,0.8-3.7c0.1,0,0.4,0,0.6-0.1c0.5-0.4,1-0.4,1.6-0.4
		c0,0.4-0.1,0.8-0.2,1.2c-0.6,1.8-1.1,3.5-1.5,5.3c-0.2,0.8-0.1,1.6,0,2.4c0.1-0.9,0.1-1.9,0.4-2.8c0.7-2.1,1.2-4.3,2.1-6.4
		c0.7-0.1,1.2,0.9,1.8,1.2c0.4-1.3-0.7-2.3-1.3-3.4c0.9-0.2,1.7,0.4,2.4,0.8c0.5-1.5-1-2.8-2.4-2.8c0-0.5-0.1-1-0.1-1.5
		c1,0,1.9,0.4,2.7,0.8c0.2,0.6,0.3,1.2,0.5,1.7c0.2-0.1,0.6-0.4,0.8-0.6l0-0.2c-0.9,0.1-0.8-1.1-1.1-1.7c-0.1,0.1-0.3,0.2-0.4,0.2
		c-0.1-0.6-0.8-0.5-1.3-0.6c-0.6-0.1-1.2,0-1.8,0.1c0,0.7,0.1,1.3,0,2c-0.3,0.2-0.5,0.3-0.8,0.5c1.2-0.6,3.1-0.5,3.3,1.1
		c-0.7-0.2-2.1-0.9-2.4,0.1c0.4,0.8,0.9,1.6,1.3,2.4c-1-0.6-2.1-0.9-2.9-1.8c-0.4-0.5-1.1-0.6-1.6-0.8c1,0.4,2.1,1.1,2.4,2.2
		c-1,0.1-1.9,0.3-2.8,0.7c-0.1,1,0,2.1-0.1,3.1l-0.3-0.2c-0.1-1.1-0.4-2.2-0.4-3.4c0-0.7-0.4-1.3-1-1.7c-0.8-0.4-2-0.2-2.6-1.1
		c-0.4-0.4-0.3-1-0.3-1.5c0.5,0.4,1.1,0.7,1.7,0.9c0.2-0.3,0.4-0.6,0.6-1c1.2-0.4,2.4,0.2,2.9,1.3c0.2-0.3,0.5-0.5,0.7-0.8
		c-0.7-0.6-1.5-1.1-2.2-1.8c-0.1-0.3-0.1-0.7-0.2-1.1c0.1,0,0.3-0.1,0.5-0.1c0.1-0.1,0.3-0.4,0.4-0.6c-0.5,0.2-0.9,0.4-1.4,0.6
		c-0.1,1.1,0.9,1.7,1.6,2.4c0,0.1,0.1,0.2,0.1,0.2l0.2,0c0,0-0.1,0.1-0.2,0.2l0-0.2l-0.2,0l0-0.2c-0.6-0.1-1.1-0.2-1.7-0.3
		c-0.7-0.2-1.1,0.5-1.7,0.8c-0.5-0.2-1.1-0.5-1.6-0.7c-0.4,0.7-0.5,1.7,0.2,2.2c1.1,0.6,2.7,0.4,3.2,1.7c-0.4-0.1-0.9-0.2-1.3-0.3
		c0.4,0.4,0.7,0.8,1.1,1.2c-0.7,0.7-1.7,0.4-2.4,0c0.2,0.5,0.4,0.9,0.7,1.4c-0.2,0.4-0.5,0.8-0.8,1.2
		C115.8,35.9,115.9,34.8,115.2,34.1z M134.9,51.7c0.1,0.3,0.3,0.7,0.4,1c-0.6,0-1.2,0-1.7,0c-0.4,0.2-0.6,0.7-0.9,1l-0.1-0.3
		c-0.1-0.5-0.1-0.9-0.1-1.4c0.2-0.1,0.5-0.3,0.6-0.5C133.6,51.7,134.2,51.7,134.9,51.7z M126.9,48.5c0.1,0.7,0.3,1.3,0.3,2
		c0.1,0.6-0.7,0.5-1,0.6c-0.7,0.1-1.4-0.2-1.5-0.9c-0.1,0.1-0.3,0.2-0.3,0.2c-0.1-0.1-0.3-0.4-0.4-0.5c0.5-0.4,0.6-1.2,1.3-1.3
		c0,0.2,0,0.6,0,0.8c0.1,0.1,0.3,0.4,0.5,0.5c0.5-0.1,0.8,0.2,1.1,0.5c-0.1-0.1-0.3-0.4-0.4-0.5C126.5,49.4,126.2,48.5,126.9,48.5z"
		/>
	<path class="st0" d="M146.5,70.2c-0.5-1.4-1.3-2.7-1.9-4c0,0.8,0.5,1.5,0.8,2.3C145.7,69.1,145.9,69.9,146.5,70.2z"/>
	<path class="st0" d="M104.9,73c0.4,1.1,0.9,2.3,1.6,3.2c0.2-0.5-0.2-0.8-0.4-1.2C105.6,74.4,105.4,73.6,104.9,73z"/>
	<path class="st0" d="M136.2,95.5c0.1,0,0.3-0.1,0.5-0.1c0.6-0.7,0.5-1.7,0.7-2.5c0.9-0.7,1.3-1.8,1.1-2.9c-0.4,0.8-0.3,1.8-1.1,2.4
		c-0.9,0.6-0.1,2-1,2.6c-0.1-0.9-0.3-1.8-0.8-2.5C135.7,93.4,136.2,94.4,136.2,95.5z"/>
	<path class="st0" d="M180.8,117.7c0.9,0.2,1.8,0.3,2.8,0.3c-0.9-0.7-2.1-0.5-3.1-0.7c-0.1-0.1-0.1-0.3-0.2-0.4
		C179.9,117.5,180.3,118.4,180.8,117.7z"/>
	<path class="st0" d="M160.8,125.8c0.4,0.2,0.5,0.9,1,0.8C162.1,126.1,161,125.2,160.8,125.8z"/>
	<path class="st0" d="M209.2,87.6c-0.1-0.1-0.2-0.3-0.2-0.3c-1.3-0.2-2.5,0.4-3.8,0.3c-1.4,0.2-2.7-0.6-4.1-0.9
		c-0.8-0.2-1.5-0.9-2.1-1.4c-1.6-1.3-2.9-2.8-4.4-4.1c-0.4-0.3-0.9-0.4-1.4-0.5c0.5,0.5,1.1,0.9,1.6,1.4c2.6,2.5,5.2,5.7,9,6.2
		c0.2,0.4,0.4,0.7,0.6,1.1c-0.6-0.1-1.2-0.1-1.8,0c-0.2,0.2-0.4,0.5-0.5,0.7c-0.4-0.4-0.9-0.8-1.4-1c-0.1,0.2-0.3,0.3-0.4,0.5
		c0.1,0.4,0.1,0.9,0.2,1.3c-0.7-0.6-0.9-1.6-1.3-2.4c-0.2,0-0.5,0-0.7,0c-0.1,0.5-0.2,1.1-0.3,1.6c-0.9-0.8-1.3-2.3-2.6-2.6
		c-1.4,0.3-1.4,2-2.1,3c-0.2-0.2-0.4-0.4-0.6-0.6c-0.1,0.1-0.3,0.4-0.4,0.5c-0.1-0.9-0.3-1.9-0.8-2.6c-0.5,0.4-0.9,0.9-1.2,1.5
		c-0.5-0.5-0.4-1.2-0.4-1.9c-1.1,0-2.4-0.2-3.3,0.8c-1-0.1-1.8,0.5-2.7,0.9c-1.6,1-3.4,1.4-5.1,2c0.7-1.2,2-1.5,3.1-2.1
		c2-0.9,3.7-2.4,5.2-4c1.2-1.4,2.9-2.2,4.2-3.5c0,0.2-0.1,0.7-0.1,0.9c0.5-0.3,1-1.4,1.8-0.8l0-0.1c-0.1-0.3-0.1-0.7-0.2-1
		c-0.3-0.1-0.8-0.3-1,0c-1.6,1.3-3.3,2.4-4.8,3.9c-0.8,0.9-1.8,1.4-2.5,2.4c-1.3,1-2.8,1.5-4.1,2.4c-0.8,0.5-1.7,0.6-2.6,1
		c0.3,0.1,0.6,0.2,0.9,0.3c-0.3,0.4-0.6,0.8-0.8,1.2l0.5-0.1c0.3-0.1,1-0.3,1.4-0.5c-0.3,0.2-0.8,0.6-1.1,0.9
		c0.4-0.1,0.9-0.2,1.1-0.6c1-0.5,2.2-0.8,3.2-1.4c0,0.1,0,0.4,0,0.6c0.5-0.8,1.3-1.3,2.1-1.6c-0.1,0.5-0.6,0.7-1,1
		c0,0.2-0.1,0.5-0.1,0.7c0.4-0.4,0.8-0.8,1.2-1.2c0-0.1,0.1-0.4,0.1-0.6c0.2-0.1,0.7-0.2,1-0.3c-0.3,0.5-0.6,1-0.9,1.5
		c0.6-0.7,1.1-1.6,2.1-1.5c-0.2,0.4-0.4,0.7-0.6,1.1c0.3-0.4,0.6-0.8,0.8-1.2l-0.8,0.1c0.2-0.2,0.6-0.6,0.8-0.9
		c0.4,0.1,0.8,0.2,1.2,0.4c-0.1,0.2-0.4,0.6-0.5,0.8c0.2,0.2,0.4,0.3,0.6,0.5c-0.5,0.9-1.4,1.7-1.5,2.8c0.7-1,1-2.5,2.2-3.2
		c0.1,0.1,0.4,0.4,0.5,0.6c0.2-0.2,0.4-0.4,0.5-0.6c0,0.2,0.1,0.6,0.1,0.8c0.1-0.5,0.1-1.1,0.3-1.6c1,0.7,0.1,2.4,1.3,2.9
		c0,0.1-0.1,0.3-0.1,0.4c0.2-0.2,0.4-0.5,0.6-0.7c0.2,0.1,0.6,0.3,0.8,0.4c0.3,0.7,0.6,1.5,1.2,2c-0.4-0.7-0.8-1.4-1.3-2.1
		c0-0.3,0-0.8,0-1c0.1,0,0.4,0.1,0.5,0.1c0.1-0.1,0.4-0.4,0.5-0.5c0.6,0.5,0.7,1.4,1.2,2c0.4,0.7,1.1,1.2,1.4,1.9
		c-0.1-0.3-0.1-0.5-0.2-0.8c-0.6-0.6-1.1-1.4-1.5-2.1c-0.3-0.6-0.4-1.4-1.1-1.6c-0.1-0.8,0.7-0.9,1.3-1.1c0.6,0.8,1.2,1.7,1.9,2.5
		c0.1,0.3,0.2,0.8,0.3,1c0.2-0.4-0.1-0.8-0.1-1.2c1.3,0.9,1.8,2.5,3.1,3.4c-0.9-1-1.6-2.1-2.4-3.1c0-0.6,0.1-1.1,0.1-1.7
		c0.5,0.8,0.7,1.9,1.5,2.4c0.3-0.1,0.5-0.3,0.8-0.4c0.3,0.3,0.7,0.6,1,0.9c-0.5-0.8-1.2-1.3-1.6-2.1c1,0.3,1.7,1.1,2.6,1.6
		c-0.2-0.3-0.4-0.5-0.5-0.8c0.2-0.3,0.5-0.2,0.8-0.1l-0.1-0.5c0.7,0.4,1.3,1,1.9,1.4c-0.3-0.5-0.7-0.8-1.1-1.2c0.6,0,0.8-0.5,1-1
		c0.4,0.2,0.7,0.5,1.1,0.7c0-0.1-0.1-0.4-0.1-0.6c0.6,0,1.2,0.1,1.7,0.3c0-0.1,0.1-0.5,0.2-0.6c0.4,0.9,0,2-0.2,2.9
		c-0.3,0-0.7-0.1-1-0.1c-0.4-0.1-0.8-0.3-1.2-0.3c0.5,0.4,1,0.6,1.6,0.8c-1,1-2-0.4-3-0.6c0.6,0.5,1.4,0.7,1.8,1.4
		c-0.2-0.1-0.7-0.2-1-0.2c0.1,0.2,0.4,0.5,0.5,0.6c-0.8,0.1-1.5-0.5-2.3-0.6c0.5,0.3,1,0.5,1.5,0.7c-0.3,0.2-0.7,0.4-1,0.5
		c-0.2-0.1-0.7-0.4-1-0.5c0.1,0.2,0.3,0.7,0.3,1c-0.6-0.3-1.1-0.6-1.5-1c0.2,0.2,0.5,0.7,0.6,0.9c-0.3-0.1-0.8-0.2-1-0.3
		c0.1,0.2,0.4,0.5,0.5,0.7c-1.1,0-1.7-0.9-2.4-1.5c0.4,0.6,0.9,1.2,1.4,1.7c-1.4-0.2-2.1-1.6-3-2.6c0.3,1.1,1.2,1.8,2,2.6
		c-0.3,0-0.9,0.1-1.2,0.2c-0.1,0.1-0.4,0.2-0.5,0.2c-0.1-0.1-0.4-0.4-0.5-0.5c0,0.1,0,0.4,0.1,0.6c-0.7,0.1-1.4,0.1-2.1,0.2
		c-0.6-0.7-1.2-1.4-1.7-2.2c-0.1-0.3-0.5-0.4-0.8-0.6c0-0.1,0-0.2,0-0.3c-0.4,0.8-0.5,1.8,0.1,2.6c0,0.2-0.1,0.7-0.1,0.9
		c-0.7-0.1-0.7-0.8-0.8-1.3c-0.2-1-0.3-1.9-0.6-2.9c0.2,1.3,0.2,2.5,0.5,3.8l-0.8,0.2c0-0.2,0-0.6,0-0.8c-0.2-0.5-0.4-0.9-0.5-1.4
		c0,0.6,0.1,1.2,0.5,1.7c-0.3,0.3-0.6,0.8-1.2,0.5c0-0.4,0.1-0.9,0.1-1.3c-0.2,0.5-0.5,1.1-0.9,1.5c-0.1-0.1-0.4-0.4-0.6-0.5
		c-0.3,0-0.8,0.1-1.1,0.2c0-0.1,0-0.5-0.1-0.6c-0.2,0.2-0.3,0.4-0.5,0.5c-0.4-0.1-0.9-0.1-1.3-0.1c0.3-0.4,0.5-0.9,0.7-1.3
		c-0.4,0.4-0.7,0.9-1.1,1.2c-0.2,0-0.7-0.1-0.9-0.2c0.6-0.6,1.1-1.3,1.5-2.1c-0.8,0.7-1.2,2.1-2.4,2.1c0.1-0.2,0.3-0.6,0.4-0.8
		c-0.2,0.2-0.4,0.4-0.6,0.6c-0.4-0.1-0.7-0.2-1.1-0.3c1.1-1.1,2.6-1.9,3.3-3.3c-1.1,1.2-2.3,2.3-3.6,3.1c-0.2,0-0.7,0.1-0.9,0.1
		c0.7-0.6,1.4-1.2,2.1-1.9c-0.8,0.5-1.7,0.9-2.3,1.7c-0.2,0-0.6,0-0.9,0c-0.5,0-0.9,0-1.4-0.2c-0.2,0-0.5-0.1-0.7-0.1
		c-0.9-0.1-1.9-0.1-2.8-0.4c-0.2,0-0.5-0.1-0.6-0.1c-0.4-0.1-0.8-0.2-1.2-0.3c-0.6-0.4-1.4-0.2-1.9-0.7c-0.5-0.1-0.9-0.2-1.3-0.5
		c0.9-0.1,1.7-0.1,2.6-0.1c1.4,0,2.7-0.5,4-1c0.3-0.1,0.6-0.3,0.9-0.4l0-0.1c-1-0.4-1.9,0.6-2.8,0.7c-2.2,0.2-4.4,0.6-6.6,0.3
		c-0.7-0.4-1.2-1-1.9-1.5c-2-1.4-3.5-3.4-5.4-5.1c-2.2-2.5-5.2-4.3-6.9-7.2c-0.8-1.7-1.9-3.1-3-4.6c-2-3.1-4.2-6.2-5.2-9.7
		c-0.2-1-0.5-2-0.7-3c-0.6-3.3,0.7-6.5,1.4-9.7c0-1.2,0.3-2.4,0.7-3.6c0.6-1.3,1.9-2,3.1-2.7c-0.1,0.2-0.2,0.7-0.3,0.9
		c1.3,0.3,2.2-1,3.2-1.6c0.8-0.3,1.6-0.4,2.5-0.6c1,0.6-0.4,1.6-0.8,2.2c0.8,1.1,2.2,0.4,3.2,0.9c0.6,1.2-1,2-1.3,3.1
		c0.5,0,0.9,0,1.4-0.1c0.9-0.4,1.7-1.5,2.8-1c0.1,0.3,0.2,0.6,0.4,0.9c-0.1,0.4-0.3,0.8-0.4,1.3c0.5,0,1,0,1.4-0.1
		c0.8-0.5,0.9-1.5,1-2.3c-0.2-0.9-0.8-1.9,0-2.7c1.4,0,1.3,1.6,2,2.3c0.7-0.3,1.4-0.5,2.1-0.6c0.2,0.5,0.1,1.1-0.1,1.6
		c0.1,0.6,0.8,0.3,1.2,0.5c0.5,0.2,1,0.1,1.6,0.2c0,0.8-0.5,1.4-0.7,2.1c-0.3,0.2-0.5,0.3-0.8,0.5c0.3,1.1,1.6,1,2.5,0.6
		c0.5,0.7,0.7,1.5,0.7,2.3c0.6-0.2,1.5-0.2,1.8-0.8c0.3-0.5,0.5-1.3,1.2-1.2c0.8-0.1,1.2,0.6,1.5,1.1c0.5-0.2,1-0.5,1.1-1
		c-0.3-0.7-0.7-1.4-1.2-2c-0.8-0.5-1.8-0.6-2.3-1.4c0.2-0.3,0.6-0.5,1-0.5c0,0.4,0,0.7,0.1,1.1c1.2,0.7,1.6-1,1.9-1.8
		c1-0.1,1.7,0.7,2.6,1.1c0.5,0.3,0.7-0.4,0.7-0.8c0.1-1.1-1-1.5-1.5-2.3c-0.6-0.7-1.6-0.8-2.4-1c0.2-1.1,0-2.2-0.3-3.3
		c0.1-0.6,0.4-1.2,0.7-1.8c1-0.4,2.1-0.3,3,0.3c0.4,0.4,0.9,0.9,1.4,1.2c0.4,0.1,0.6-0.3,0.9-0.5c-0.1-0.6,0.1-1.4-0.4-1.8
		c-0.6-1-1.8-1.3-2.8-1.9c-0.7-2.4-3.8-3.3-6-2.3c0.4-0.7,0.3-1.7,1.1-2.1c0.9,0,1.3,0.8,2.1,1.1c0.2-1-0.2-2.1-0.9-2.9
		c-0.8-0.6-2-0.2-2.8-0.8c-0.7-0.4-1.5,0-2.2-0.2c-1.4-0.4-2.8-1-4.3-0.8c-1.7,0-3.6,0.6-5.2-0.3c0.1-0.8,0.6-1.4,0.8-2.2
		c0.4,0,0.7,0.1,1,0.3c0.2,0.4,0.4,0.7,0.6,1c0.6-0.5,1.2-1.2,0.9-2.1c-0.7-1-1.8-1.6-2.9-2.2c-0.4-0.7-1-1.6-0.7-2.4
		c0.6,0.5,0.7,1.2,1.1,1.9c1.1-0.1,1.2-1.4,0.8-2.2c-0.6-1.5-2.3-1.7-3.3-2.7c-0.8-0.8-2-0.9-3.1-1c-0.8-0.8-1.7-1.6-2.7-2.2
		c-0.7-0.3-1.6-0.2-2.4-0.6c-0.6-0.3-1.2-0.7-1.9-0.9c-0.9-0.3-2-0.1-2.9-0.6c-1.2-0.6-2.4-1.2-3.6-1.6l0,0c0,0-0.1,0-0.1,0
		c0,0,0,0,0,0c0,0,0,0,0,0c-34.7,0.1-50,27.5-52,31.5c0,0,0,0,0,0c-1,1.8-1.6,3.8-2.6,5.6c-1.9,4.9-4.2,9.7-4.7,15
		c-0.8,3.3-0.8,6.8-0.7,10.2c0.3,2.2,0,4.5,0.4,6.8c0.3,1.2,0.4,2.5,0.8,3.7c1,3.7,1.5,7.6,3.3,11.1c0.6,1.5,1.1,3,1.8,4.4
		c0.9,2.7,2.2,5.2,3.6,7.6c1.2,2.2,2.5,4.4,4.1,6.3c1,1.2,1.9,2.6,3,3.8c1.9,1.9,4.1,3.5,6.1,5.3l0,0c0.7,0.5,1.3,1,1.9,1.7
		c1.4,1,2.5,2.2,3.9,3.2c1.1,0.8,2.1,1.6,3.1,2.4c-0.2,0.3-0.5,0.6-0.7,0.9c0.4-0.2,0.7-0.5,1.1-0.7c1.7,1.2,3.6,2,5.5,2.8
		c3.8,1.5,7.7,2.7,11.7,3.5c0,0.1,0.1,0.4,0.1,0.5c0-0.1,0-0.4,0-0.5c1.1,0.3,2.2,0.6,3.3,0.8l0.2,0c3.2,0.5,6.4,1,9.6,0.9
		c4.1-0.2,8.2-0.7,12.4-0.6c1.8-0.4,3.5-1.3,5.4-1c0-0.1,0-0.4,0-0.6l-0.1-0.1c-0.5,0.1-1,0.2-1.5,0.3c-0.8,0.1-1.6,0-2.3,0.3
		c-0.3-0.1-0.5-0.3-0.8-0.4c0.1-0.1,0.3-0.3,0.5-0.4c-2.4-1-2.9-3.8-4.4-5.7c-1.1-1.2-2.2-2.6-3.8-3c-0.9-1.1-1.4-2.5-2.6-3.2
		c-0.8-0.6-1.9-1.4-1.8-2.6c0.1-0.1,0.3-0.3,0.4-0.4c0.2,0.4,0.4,0.9,0.6,1.3c0.1,0,0.4,0,0.5,0.1c0.8,1,1.6,2,2.6,2.7
		c-0.9-0.9-1.8-1.9-2.6-3c0.1-0.3,0.2-1,0.3-1.3c-0.3,0.2-0.5,0.6-0.7,0.9c-0.2-0.5-0.3-1.1-0.5-1.6c-0.2,0.3-0.3,0.9-0.8,0.8
		c0-0.3,0-0.8,0-1.1l0.2,0.6c0.1-0.2,0.2-0.4,0.4-0.6c-0.1-0.2-0.3-0.6-0.4-0.9c-0.1,0.1-0.2,0.1-0.4,0.2c-0.5,1.2-0.4,2.6,0.2,3.8
		c0.5,0.7,1.2,1.4,1.9,2c0.6,0.7,1.6,1.2,1.7,2.2c-0.9-0.9-2.2-1.3-3.4-1.7c-1-0.3-2.2-0.7-3,0.3c0,0.1,0,0.3,0,0.4
		c0,0.1,0.1,0.2,0.2,0.3c0.6,0.6,1.3,1.2,1.5,2.1c-0.1,0.8-0.7-0.1-0.9-0.4c0.3,0.6,0.3,1.3,0.3,2c0.7-0.1,1,0.9,1.5,1.3
		c0.8,0.8,1.7,1.4,2.4,2.2c1.6,1.6,3.5,2.8,5.5,3.9c-1.7,0.2-3.4,0.2-5.1,0.2c-1.3-0.7-2.5-1.5-3.5-2.5c0.8,1.1,2.1,1.6,3.1,2.6
		c-0.3,0-0.9,0-1.3,0c-1-0.7-1.9-1.5-2.8-2.4c-1.5-1.5-3-3-4.3-4.7c1.5,2.8,4.1,4.8,6.4,7c-0.5,0-1.1,0.1-1.6,0
		c-0.6-0.5-1.1-1.2-1.7-1.7c0.4,0.6,0.9,1.2,1.5,1.7c-0.5,0-1,0-1.5-0.1c-0.4-0.4-0.9-0.8-1.3-1.2c0.4,0.4,0.8,0.8,1.2,1.2
		c-0.5-0.1-1.1-0.1-1.6-0.2c-1.2-0.9-2.3-2-3.4-2.9c1,1,2,2.1,3.2,3c-0.7,0-1.4,0-2-0.1c-0.9-0.1-1.9,0-2.8-0.4
		c-0.2-0.1-0.6-0.3-0.7-0.4c-0.2-0.3-0.5-0.7-0.8-1l0.1,0.5c0,0.1,0.1,0.4,0.1,0.6c-0.6-0.2-1.3-0.3-1.9-0.3
		c-0.1-0.2-0.3-0.5-0.4-0.7c0,0.2-0.1,0.5-0.1,0.6c-0.4-0.2-0.6-0.5-0.8-0.9c0,0.2,0,0.5,0,0.7l-0.4-0.1l-0.2-0.2
		c0-1.1,0.2-2.2,0-3.3c-0.5-1.2-0.8-2.5-1.6-3.6c-0.6-0.5-0.4-1.2,0-1.7l0.2-0.6c0.9,1.5,1.3,3.1,2.2,4.6c0-0.2,0-0.4,0-0.6
		c-0.3-1.5-1.2-2.7-1.6-4.1l0.5,0c0.1,0.3,0.2,0.7,0.3,1.1c0-0.3,0-0.9,0-1.2c0.5,0.2,0.9,0.4,1.3,0.7c0-0.1,0.1-0.4,0.1-0.5
		c-0.2-0.1-0.5-0.2-0.7-0.3c0-0.6-0.1-1.1-0.2-1.7c0.1,0.1,0.4,0.2,0.6,0.3c-0.2-0.4-0.3-0.9-0.4-1.4c0.7,0.2,0.7,1,1,1.5
		c0.2,0.7,0.8,1.3,0.9,2c-0.2,0-0.4-0.1-0.6-0.1c0-0.7-0.3-1.3-0.7-1.9c0.1,0.5,0.3,1,0.3,1.6c0.4,0.3,0.7,0.8,1,1.2
		c-0.2,0.1-0.5,0.1-0.7,0.2c-0.1,0.6,0.5,0.9,1,0.8c0.5,0.4,0.7,1.1,1.2,1.5c0.1-0.1,0.2-0.2,0.3-0.2c-0.4-0.2-0.9-0.5-1.1-1
		c-0.4-0.4,0.1-0.8,0.3-1.2c-0.3,0.1-0.6,0.2-0.9,0.2c0.1-0.3,0.3-0.6,0.6-0.9c-0.6-1.3-1.2-2.5-1.7-3.8c0.9,0.1,1.1,1.2,1.5,1.9
		c-0.2-0.5-0.5-1-0.6-1.6c0.3,0.2,0.5,0.3,0.7,0.6c0.4,0,0.8,0.1,1.2,0.1V124l0-0.2c0-0.5,0-0.9,0-1.4c0.3,0.3,0.6,0.6,0.9,0.9
		c-0.1-0.3-0.2-0.7-0.3-1l0-0.1c0.4-1.1,1.4,0,1.7,0.6c-0.2,0-0.6-0.1-0.9-0.2c0,0.1,0.1,0.3,0.2,0.5c1,0.4,1.5,1.5,2.2,2.2
		c-0.2-0.6-0.4-1.1-0.7-1.6c0.2-0.2,0.5-0.5,0.6-0.7c0.4,0.6,0.7,1.2,1.1,1.8c-0.2-0.8-0.9-1.4-0.8-2.2c0.2,0,0.5-0.1,0.6-0.1
		c0.8,0.9,1,2.4,1.8,3.3c-0.1,0.6,0.2,1.1,0.8,1.3c0.3-0.5-0.2-1-0.5-1.4l0-0.1c-0.1-0.1-0.4-0.3-0.5-0.4c-0.3-0.8-0.7-1.5-1-2.3
		c0.9,0.6,1.3,1.7,1.9,2.6c0.2,0.1,0.5,0.3,0.6,0.4l0.1,0c0.1-0.1,0.2-0.3,0.3-0.3c-0.8-0.6-1.4-1.5-1.8-2.3
		c0.2-0.1,0.6-0.3,0.8-0.4c0.5,0.4,1.1,0.8,1.6,1.2c0.1-0.1,0.3-0.4,0.3-0.5c-0.4-1.1-1.3-1.9-2.1-2.7c-0.3-0.2-0.5-0.3-0.8-0.5
		c0.1-0.2,0.2-0.3,0.3-0.5c0.4-0.7,0.8-1.6,0.3-2.4c-0.2-1.1-0.9-2.4,0.2-3.2c0.8,0.3,1.2,1.1,1.5,1.8c-0.1,0.2-0.2,0.5-0.3,0.7
		c0.1,0,0.4,0,0.5,0c0.6-0.8,0.6-1.8,0-2.7c0.3-0.5,0.7-1.1,1-1.7c-0.5,0.4-0.9,0.9-1.3,1.4c-0.1,0.7,0.5,1.4,0.5,2.1
		c-0.5-0.3-0.7-1-1-1.4c-0.3-0.3-0.8-0.4-1.2-0.6c-0.3,0.3-0.6,0.7-1,1c0.2,1.5,1.1,3,0.5,4.5c-0.4-1.1-1.1-2.2-1.8-3.1
		c-0.2-0.3-0.7-0.2-1-0.2c0-0.8,0.6-2.1-0.5-2.5c-0.8,0-1.4,0.8-2,1.2c0-0.7-0.1-1.4-0.6-2c-0.5,0.1-1,0.2-1.5,0.2
		c-1.2,0.9-0.9,2.4-0.7,3.7c0.4,0.2,0.8,0.4,1.2,0.6c0.2,0.4,0.2,0.9,0.6,1.2c1.1,0.3,2.3-0.2,3.3,0.3c0.6,0.3,0.3,1.1,0.6,1.6
		c0.9,0.1,1.7,0.3,2.6,0.6c0.4,0.3,0.8,0.7,1.2,1.1c0.3,0.5,0.6,1,0.9,1.6c-0.6-0.3-1.1-0.7-1.7-1.1c-0.2,0-0.4,0.1-0.6,0.1
		c-0.3-0.2-0.6-0.4-0.9-0.6c-0.6,0-1.2,0-1.7,0.2c-0.2,0.3-0.4,0.6-0.6,0.9c-0.5-0.7-1-1.4-1.5-2c-0.2,0.1-0.5,0.1-0.7,0.2
		c-0.2,0.1-0.5,0.2-0.7,0.2c-0.1,0.3-0.2,0.6-0.4,0.9c0,0.4,0,0.9,0,1.3c-1-0.4-2.3-1.4-3.3-0.6c-0.6,1.1-0.6,2.6-1.9,3.2
		c0.2-0.9,0.3-1.8,0.3-2.8c-0.4-0.4-1-0.7-1.5-1c-0.5-0.6-0.6-1.5-1.3-1.8c-0.9-0.1-1.5,0.9-1.5,1.7c0.3,0.5,0.8,1.5-0.1,1.6
		c0-0.4-0.1-0.9-0.1-1.3c-0.2,0.1-0.7,0.4-1,0.6c-0.2-0.2-0.5-0.5-0.7-0.7c0-0.2-0.1-0.6-0.1-0.9c-0.3,0.4,0.1,0.9,0.1,1.3
		c0.2,0.2,0.4,0.3,0.7,0.5c0.3-0.1,0.6-0.3,0.9-0.4c-0.1,0.5-0.1,1-0.2,1.5c0.3-0.1,0.5-0.2,0.8-0.4c0.7-0.9,0-1.8-0.1-2.7
		c0.4-0.3,0.8-0.8,1.4-0.6c0.6,0.8,0.9,2.1,2.1,2.3c0.8,1.6-0.4,3.1-0.8,4.6c0.3,1.7,1.7,3,2,4.8c0.1,0.8,0,1.7,0,2.5
		c-1.1-0.9-1.1-2.4-1.1-3.6c-0.4-1.1-1.1-2.2-2.3-2.8c0-0.7-0.1-1.4-0.3-2.1c-0.2-0.2-0.5-0.3-0.7-0.4c-0.9,0.1-1.8,0.2-2.6,0.2
		c-0.2,0.7-0.1,1.4,0,2.1l-0.3-0.2c0.1-1.2-0.9-1.9-2-2.1c-0.4,0.7-0.7,1.4-0.9,2.2c-0.5-1.1-1.7-1.6-2.6-2.2
		c-0.6,0.2-1.2,0.3-1.8,0.2c0.8-0.8,1.4-1.7,1.9-2.7c-0.2-0.1-0.5-0.3-0.7-0.5c0.3-0.3,0.5-0.6,0.8-0.9c0-0.2,0-0.7,0-1
		c-0.1-1.2-1-2.4-2.2-2.7c-0.7-0.1-1-0.9-1.4-1.3c-0.3-0.2-0.6-0.4-0.8-0.6c-0.4-0.1-0.7-0.4-1-0.7c-1.2-0.4-2.4-0.8-3.7-0.8
		c-0.3-1.1-0.9-2.2-2-2.6c-0.7-0.1-1.5,0.1-2.1,0.4c-0.3-0.6-1.2-0.5-1.5,0c-0.3,0.4-0.4,0.9-0.7,1.3c-0.7,0.7-1.6,1.1-2.3,1.7
		c0.7-0.4,1.4-0.9,2.1-1.4c0.8-0.5,0.9-1.7,1.8-1.9c0,0.2,0,0.7,0,0.9c0.5-0.2,0.9-0.4,1.3-0.6c1.3-0.6,2.8,0.6,2.9,2
		c-0.9-0.2-2-1-2.9-0.3c-0.7,0.4-0.2,1.2-0.1,1.7c0-0.5,0-1,0-1.5c1-0.2,2.2-0.3,2.8,0.8c-0.3,1.3,0.3,2.7-0.3,3.9
		c-0.4-1.3-1.4-2.4-2.5-3.2c0,0.2,0,0.7,0,0.9c-0.3-0.5-0.6-1.3-1.3-1c-1.4,0.1-1.9,1.7-2.1,2.8c-1.2-0.8-1.9-2-2.8-3
		c-0.6-0.8-1.3-1.6-1.8-2.4c0.1,0,0.4-0.1,0.5-0.1l-0.5,0c0.1-0.2,0.2-0.5,0.3-0.7c0.3-0.8-0.5-1.6-0.1-2.5c0.5,0.1,1.1,0,1.4,0.5
		c0.2,0.5,0.2,1.1,0.3,1.7c0.8-0.4,1.6-1,1.8-1.9c0.2-1.2-0.4-2.4-0.9-3.5c0.5-0.7,1.4-0.8,2.2-0.8c0.3,0.2,0.4,0.6,0.6,1
		c0,0.4-0.4,1,0.2,1.1c0.4-0.3,0.8-0.7,1.2-1c0.4,0.7,0.1,1.5,0,2.3c0.4-0.3,0.9-0.6,1.3-0.9c0.2,0.5,0.4,1.1,0.5,1.7
		c0.6,0,1.1-0.4,1.1-1.1c-0.2-0.7-0.6-1.3-0.9-1.9c0.1-0.2,0.4-0.5,0.5-0.7c-0.4-0.5-1-0.8-1.5-1.1c0.2-0.7,1-1.2,1.7-1.1
		c0.8,0.4,1,1.3,1.2,2.1c1-1,0.4-2.3-0.3-3.3c0.3-0.8,1.1-1.2,1.8-1.5c0.4,0.1,0.8,0.3,1.2,0.5c0.1-0.1,0.3-0.3,0.4-0.3
		c0-0.3,0-0.6,0-0.9c-0.5-0.4-1-0.8-1.6-0.8c-0.2-0.4-0.3-0.8-0.5-1.2c-0.5-0.3-0.9-0.5-1.4-0.8c0.6-1,1.5-1.8,2.8-1.9
		c0.8,0.6,1.2,1.5,0.9,2.5c0.8-0.8,1.1-2,2.1-2.6c1.3,0.4,1.5,1.9,2.1,2.9c1,1,1.9,2.1,2.8,3.2c0.7,0.8,1.7,1.5,1.7,2.6
		c0.2,1-1.4,1.4-0.9,2.5c0.3-0.1,0.7-0.2,1-0.3c0.1-0.1,0.2-0.3,0.3-0.4c0.6,0.1,1-0.1,1.4-0.5c-0.3,0-0.9,0-1.2,0
		c-0.4,0.3-0.8,0.6-1.2,0.8c0.1-0.5,0.6-0.8,0.9-1.2c0.4-1.2-0.3-2.4-1.2-3.2c-1.2-1-2.1-2.4-3.2-3.5c-0.6-0.6-0.6-1.4-1-2.1
		c-0.4-0.5-1.1-0.9-1.7-1.3c-0.5,0.7-1,1.5-1.4,2.2c-0.4-0.8-0.8-1.5-1.5-2.1c-1.3,0.3-2.6,1.1-3,2.4c0.4,0.3,0.9,0.5,1.3,0.8
		c0.2,0.5,0.4,1,0.7,1.5c0.8-0.1,1.4,0.3,1.8,0.9c-0.4,0.7-1.2-0.1-1.8,0.1c-1,0.3-1.8,1-2.1,2.1c0.7,0.5,1.1,1.3,1.1,2.1
		c-0.3-0.4-0.6-0.8-0.9-1.2c-0.6-0.5-1.5-0.1-2.2,0c-0.2,0.5-0.4,1-0.5,1.5c0.4,0.2,0.8,0.4,1.2,0.6c-0.1,0.3-0.1,0.6-0.2,0.9
		c0.3,0.8,1.6,1.9,0.5,2.6c-0.2-0.7-0.5-1.3-1-1.8c-0.2,0-0.5,0.1-0.7,0.2c0-0.6-0.1-1.2-0.3-1.8c-0.5,0.4-0.9,0.8-1.4,1.3
		c0-0.7-0.2-2.1-1.2-1.9c-1-0.1-1.7,0.5-2.4,1.1c0.1-1.5,0.7-3,0.2-4.5c-0.7-1.4-2.4-2.4-4-1.7c-1,0.3-1.6,1.3-1.9,2.2
		c-0.3,0.1-0.6,0.3-0.9,0.4c-0.3,0.9,0.5,1.6,1,2.2c-0.1,0.2-0.2,0.5-0.3,0.7c-0.4,0.1-1,0.7-1.2,0.1c-1-2.1-1.8-4.3-2.9-6.3
		c-0.6-1-0.9-2.1-1.6-3c1.2-0.6,2.4-1,3.6-1.5c2.8-1,5.8-1.3,8.7-0.9c1.7-0.1,3.4-0.1,5-0.7c0.5-0.3,1.6,0,1.7-0.6
		c-0.5-0.3-1.1,0-1.6-0.2c-0.4-0.3-0.7-0.7-1-1c-0.7-0.9-1.4-1.7-2.1-2.6c-1-1.4-2.3-2.7-2.9-4.4c0.1,0.6,0.2,1.3,0.6,1.8
		c1.3,2,2.6,4,4.2,5.8c0.3,0.3,0.5,0.7,0.8,1c-0.8,0.2-1.6,0.3-2.4,0.4c-0.4,0-0.7,0-1.1-0.1c-0.3-0.4-0.5-0.8-0.8-1.1
		c0.2,0.5,0.6,0.9,0.5,1.4c-1.1-0.5-1.6-1.7-2.3-2.6c-2.1-2.7-3.9-5.6-5.2-8.7c0.3,1.4,1,2.7,1.7,4c0,0.2,0.1,0.5,0.1,0.7
		c1.2,2.3,2.9,4.3,4.3,6.5c-0.9,0.1-1.4-0.6-1.9-1.2c0.3,0.4,0.5,0.8,0.8,1.2c-0.2,0-0.7,0-1-0.1c-0.4-0.6-0.8-1.1-1.2-1.7
		c0.1,0.2,0.4,0.6,0.5,0.8c0.2,0.3,0.4,0.6,0.6,0.9c-0.5,0-1,0-1.4,0.1c-0.3-0.3-0.5-0.7-0.8-1.1c-1.7-2.3-2.7-5-4.1-7.4
		c-0.1,1.1,0.6,1.9,1.1,2.8c0.8,1.4,1.3,2.9,2.2,4.2c-0.2,0-0.5,0-0.7,0c0.1,0.1,0.4,0.4,0.5,0.5l0.2,0c0,0.2,0,0.5,0,0.7l0.2-0.6
		c0.1,0.2,0.4,0.7,0.5,0.9c-0.8,0.1-1.6,0.1-2.3,0.2c-0.5-0.6-0.8-1.2-1.3-1.7c0.4,0.7,0.8,1.3,1.3,1.9c-0.2,0-0.7-0.1-0.9-0.1
		c-1.1-1.9-1.9-3.9-3-5.7c-0.3-0.6-0.5-1.3-0.7-2c0,1.3,0.6,2.4,1,3.5c0.6,1.6,1.4,3.1,2,4.8c-0.8,0.4-1.7,0.8-2.5,1.1L89,96.4
		l-0.2-0.1c-0.1,0.1-0.4,0.3-0.5,0.4c-0.3-0.2-0.4-0.5-0.5-0.9c-0.1-0.3-0.2-0.6-0.3-0.9c-0.7-1.6-1.1-3.3-1.7-5
		c-0.6-2.4-1.1-4.9-1.6-7.4c0.1-1.6-0.5-3.1-0.6-4.7c-0.1-2.3-0.4-4.7-0.4-7c0-0.8,0.1-1.5,0.2-2.3c0.2,0.1,0.5,0.2,0.6,0.2
		c0.2,0.1,0.5,0.3,0.7,0.4c0.1,1.6-0.2,3.4,0.6,4.8c0-0.8-0.1-1.6-0.2-2.4c0.6-0.5,0.3-1.3,0.4-1.9c0.5-0.1,1-0.2,1.5-0.2
		c0.1,0.1,0.2,0.4,0.2,0.5c-0.1-0.6-0.5-1.3,0.1-1.7c0.3,0.7,0.4,1.5,0.4,2.3c0-0.8,0.8-0.7,1.4-0.8c0,0.3,0.1,1,0.1,1.3
		c-0.2,0-0.5,0.1-0.7,0.2c0.1,0.2,0.2,0.4,0.4,0.7c0-0.1,0-0.4,0.1-0.5c0.9-0.3,0-1.7,1-1.9c-0.2,2.7,0.7,5.4,1.5,8
		c0.1,0.7,0.5,1.2,1,1.7c-0.9-1.8-1.1-3.8-1.5-5.8l0.5-0.5c0,0.4,0,0.9,0.1,1.3l0.3-0.1c0,0.1,0.1,0.3,0.1,0.4
		c-0.1-0.6-0.2-1.1-0.2-1.7c1.4-0.7,0.6-2.4,0.6-3.7c-0.1-0.1-0.4-0.3-0.5-0.5c0.3-0.6,0.6-1.2,0.8-1.8c0.1,0.4,0.3,0.9,0.4,1.3
		c0.5,0.3,0.9,0.8,0.9,1.5c0.2,0.1,0.3,0.3,0.5,0.4c-0.4-0.5-0.5-1.1-0.6-1.7c0.2-0.2,0.3-0.4,0.5-0.6c0-0.2-0.1-0.6-0.1-0.8
		c0.6-0.6,0.6,0.6,0.7,1c-0.1-0.7,0-1.4,0.4-2c0-0.2,0-0.6,0-0.8c0.4-0.9-0.3-1.9-0.1-2.9c0.6-0.3,1-0.9,1.7-1.1
		c0.1,0.4,0.3,0.7,0.5,1.1C97.1,61.5,97,61,97,60.4c0.4-0.1,0.8-0.2,1.1-0.3c0.2,0.4,0.3,0.9,0.3,1.3c0.2,0,0.6,0.1,0.8,0.1
		c-0.4,0.9-0.8,1.7-0.9,2.6c0.7,0.3,1.5,0.6,2.2,1c-0.4,0.9-1,1.6-1.6,2.4c0.4-0.6,0.7,0.1,1,0.3c0-0.1-0.1-0.3-0.1-0.4
		c0.2,0,0.7,0.1,0.9,0.1c-0.3,0.4-0.5,0.8-0.9,1.1c-0.6,0.5-1.5,0.4-2.2,0.7c-0.2,0.5,0.1,1,0.3,1.5c0.6,0,2.1,0.1,1.6,1.1
		c-0.1,0.1-0.4,0.3-0.6,0.4c-0.4,0-0.8-0.1-1.2-0.1c0.3,0.7,0.5,1.3,0.8,2c0-0.2,0-0.6,0-0.8c0.2,0,0.6,0.1,0.9,0.1
		c0.5,0.1,1.1,0.2,1.6,0.4c0.4,0.2,0.6,0.6,0.4,1c-0.1,0.7-0.9,1.2-1.2,1.8c1.1,0.8,2.8-0.4,2.7-1.7c0.6,0.7,1.1,1.5,1.5,2.3
		c0-0.3,0.1-0.5,0.1-0.8c-0.7,0-0.8-0.8-1.1-1.2c-0.1-0.2-0.2-0.5-0.3-0.7c0.1-0.3,0.2-0.8,0.3-1.1c0.2,0.2,0.3,0.4,0.5,0.6
		c0.1-0.2,0.2-0.4,0.2-0.6c-0.2,0-0.5,0-0.7,0c0-0.3,0-0.9,0-1.2c0.2,0.1,0.6,0.3,0.8,0.4c0.4-0.5,0.6-1.1,0.6-1.7
		c0.5-0.1,1.1-0.4,1.6-0.2c0.1,0.2,0.2,0.7,0.3,0.9c-0.1,0-0.4-0.1-0.6-0.1c0.3,0.5,0.7,1,1,1.5c-0.2-0.5-0.5-0.9-0.7-1.4l0.9,0.4
		c-0.2-0.1-0.4-0.3-0.6-0.4c0-0.2-0.1-0.7-0.1-1c0.8,0.1,0.8,1.1,1.1,1.7c0.4-0.1,0.8-0.3,1.2-0.4c0.3-1.2,0.8-2.4,0.8-3.6
		c0.2-0.1,0.4-0.2,0.7-0.3c0-0.1-0.1-0.4-0.1-0.5c-1,0.4-1.9,0.8-2.9,1.3c0.4-0.6,0.7-1.2,1-1.9c0.3-0.1,0.5-0.3,0.8-0.4
		c0-0.9,0-1.7-0.4-2.5c-0.4-0.5-1.4-0.5-1.5-1.3c-0.3-0.7-0.2-1.5-0.1-2.3c0.8,0,1.8-0.4,2.5,0.2c-0.2,0.3-0.4,0.6-0.6,0.9
		c0.5-0.1,1,0.1,1.4-0.3c0.5-0.5,0.6-1.1,0.7-1.7c-0.4,0.5-0.7,1.1-1.1,1.6c-0.2-0.4-0.2-1.1-0.7-1.3c-1.3-0.2-2.5,1.1-3.7,0.4
		c0.5-0.4,1.2-0.5,1.7-0.8c-0.4-0.6-0.8-1.2-1.3-1.8c0.4-0.3,0.7-0.8,1-1.2c-0.4-0.1-0.8-0.2-1.2-0.2c0.1-0.3,0.2-0.8,0.3-1.1
		c-0.3,0.1-0.6,0.2-0.9,0.3c-0.2-0.4-0.3-0.9-0.5-1.3c-0.3,0.1-0.6,0.2-0.9,0.3c-0.4-0.2-0.9-0.4-1.2-0.8l0.5,0
		c-0.3-0.2-0.6-0.3-0.8-0.5c-0.6-0.1-1.5,0.2-1.9-0.4c0.9-0.3,1.6-1.2,1.4-2.2c0.4,0,0.8,0,1.1,0c0.5-0.3,0.6-1,0.9-1.5
		c-0.1-0.2-0.2-0.5-0.3-0.7c-1.3-0.7-2.8-0.1-4.2-0.1c-1.5,0.3-3.1,0.2-4.6,0.2c-0.7,0-1.2,0.5-1.8,0.9c-0.3,0.8-0.5,1.5-0.5,2.3
		c0,1-0.6,1.9-0.9,2.9c0.5,0.5,0.8,1,0.8,1.7c-0.3-0.1-0.7-0.3-1-0.4c-0.3,0.5-0.3,1.1-0.3,1.7c-0.4-0.2-1-0.4-1.3,0.1
		c-0.6,0.7-0.9,1.7-1.8,2.1c0.1-0.7,0.2-1.5,0.3-2.2c-0.2,0.8-0.3,1.5-0.4,2.3c0.4-0.2,0.7-0.3,1.1-0.5c1.2,0.1,2.4,1,2.2,2.3
		c-0.2,0-0.7,0.1-1,0.2c0.4,1.1,1.9,2.4,0.7,3.4c-0.1-0.7-0.3-1.5-0.7-2.1c-0.4,0-0.8-0.1-1.2-0.1c0.3,0,0.6,0.1,0.9,0.1
		c0.7,0.6,0.6,1.4,0.8,2.2c0.7,0.1,0.8-0.8,1-1.3c1,0.2,1.9,0.4,2.9,0.5c0,0.4-0.1,0.8-0.1,1.2c-0.3,0.1-0.6,0.2-0.9,0.3
		c-0.1,0.5,0,1.2-0.4,1.6c-0.2-0.6-0.4-1.3-0.6-1.9c-0.2,0-0.5,0.1-0.6,0.1c-0.3,0.6-0.5,1.2-0.9,1.7c0,0.2,0,0.5,0,0.8
		c0.9,1,0.8,2.6,0.4,3.8c-0.2,0-0.5,0-0.7,0c-0.3-0.6-0.3-1.3-0.3-2c0.5,0.5,0.3,1.2,0.5,1.8c0.1,0,0.2-0.1,0.3-0.1
		c0-0.9-0.2-1.7-0.2-2.6c-0.7-1-1.9-0.2-2.9-0.3c-0.1-0.4-0.2-1-0.6-1.2c-0.5-0.3-1,0-1.4,0.1c-0.1,0.4-0.3,0.8-0.5,1.2
		c-0.7-0.5-1.3-1.2-2.2-1.3c0-1.6,0.5-3.2,0.6-4.8c0.3-2.4,1-4.7,1.6-7c0.4-1,1-1.9,1.2-2.9c0.4-1.6,1.3-3.1,1.8-4.8
		c0.5-1.6,1.2-3.2,2-4.7c0,0,0,0,0,0c0.6-1.3,17.6-32,51.5-31.6c2.3,0.2,4,2.2,6.3,2.3c1.7,0.1,3.1,1.2,4.8,1.3
		c1.2,1,2.2,2.2,3.7,2.9c0.6,0.1,1.3,0,1.8,0.5c0.9,0.7,2.1,1,2.9,1.9c0.6,0.5,0.6,1.4,0.3,2.1c-0.3-0.6-0.6-1.3-1.3-1.7
		c-0.2,0.1-0.7,0.2-0.9,0.3c0.2,0.9,0.5,1.8,0.8,2.6c0.9,0.9,2.2,1.1,2.9,2.1c0.4,0.3,0,0.8,0,1.2c-0.6-0.5-1.2-1.2-2-1.2
		c-0.9,0.8-0.8,2.3-1.7,3.2c-0.1-1.1-0.4-2.2-1-3.2c-0.9,0.2-1.4,1-2.3,1.1c0-0.5,0-1,0-1.5c-0.6-0.3-1.4-0.2-2-0.3
		c0.1-0.5-0.2-1.1,0.1-1.5c0.6-0.5,1.5-0.8,2.3-0.7c0,0.6,0.1,1.2,0.1,1.8c0.4-0.5,0.7-1,1-1.5c0.5,0.5,1.1,0.7,1.7,0.4
		c-0.2,0-0.7,0-0.9-0.1c-0.3-0.2-0.5-0.4-0.8-0.7c-0.3,0.4-0.5,0.7-0.8,1.1c0-0.8-0.1-1.6-0.2-2.3c-0.5-0.2-1.1-0.5-1.6-0.7
		c-0.6,0.3-1,0.9-1.5,1.3c0-0.6,0-1.2,0-1.7c-0.1,0.7-0.3,1.3-0.5,2c0.8,0,1.3-0.7,1.8-1.1c0.5-0.2,0.9,0.2,1.4,0.3
		c0.1,0.4,0.2,0.7,0.4,1.1c-1,0-2.1,0.3-2.7,1.1c-0.3,0.7,0.1,1.5,0.4,2.1c0.4,0.9,0.3,2-0.4,2.7c-0.2-0.6-0.3-1.1-0.4-1.7
		c-0.9-0.2-1.8,0.1-2.7,0.3c0-0.9,0.7-2.1-0.2-2.8c0.1-0.9,0.2-1.9,0.2-2.8c-0.7-0.4-1.3-0.8-1.8-1.3c0.7-1,1.5-2,2-3.1
		c-0.7,0.9-1.2,1.9-2.1,2.6c-0.1-0.9-0.3-1.9-0.9-2.6c0.4,1,0.9,2.1,0.6,3.2c0.7,0.4,1.3,0.9,2,1.2c-0.1,1,0.4,2.2-0.5,2.9
		c-0.1-0.6-0.2-1.2-0.2-1.9c0,0-0.1,0-0.2,0c0.2,0.9,0.3,1.8,0.2,2.7c0.2-0.3,0.4-0.6,0.6-0.9c1,0.9-0.3,2.1,0.2,3.1
		c0.8-0.3,1.7-0.5,2.6-0.6c0.3,0.7,0.5,1.5,0.5,2.3c1-1,1.2-2.5,0.7-3.8c0.5,0,1.1,0,1.6,0.1c-0.1,0.6-0.2,1.2-0.3,1.8
		c1,0,1.6-0.7,2.4-1.1c0.9,0.7,0.9,2,0.8,3.1c0.3-0.1,0.5-0.2,0.8-0.4c0.8,0.3,1.6,0.8,2.4,0.8c1.1,0.1,2.3-0.3,3.4-0.2
		c1.3,0.1,2.5,0.2,3.7,0.6c1,0.7,2.7-0.5,3.3,0.8c-0.4,0.2-0.7,0.5-0.8,0.9c-0.4,0-0.8,0-1.2,0c-0.4-0.3-0.8-0.5-1.3-0.4
		c-0.9,0.8,0.8,1.9-0.4,2.5c-0.2-0.5-0.3-1-0.4-1.5c-0.5,0-0.9,0-1.4,0c0,0,0,0.1,0,0.1c0.4,0,0.9,0,1.3,0.1
		c0.1,0.6,0.1,1.2,0.2,1.8c0.4-0.3,0.7-0.6,1.1-1c-0.2-0.6-0.5-1.3-0.3-2c0.4,0.2,0.8,0.3,1.1,0.5c0.5,0,1,0.1,1.5,0.4
		c0.1-0.4,0.2-0.7,0.3-1c0.6-0.3,1.3-0.6,2-0.4c0.7,0.3,0.8,1.2,1,1.8c-0.3-0.2-0.6-0.5-0.9-0.7c-0.6,0-1.1,0.1-1.5,0.4
		c-0.1,0.6-0.3,1.1-0.4,1.7c-0.7-0.2-1.4-0.3-2,0.1c0.1,0.3,0.3,0.7,0.4,1c0.6,0.1,1.2,0.4,1.8,0.2c1-0.2,1.8-0.9,2.9-0.8
		c1.3,0.4,2.6,1.4,2.8,2.8c-0.6-0.3-0.9-0.9-1.4-1.4c-0.3,0.2-0.5,0.3-0.8,0.5c0.8,1.4,2.5,0.8,3.7,1.6c0.7,0.5,1.8,1.2,1.4,2.3
		c-0.7-0.6-1.4-1.3-2.3-1.7c-0.6-0.3-1.3,0-2,0c-0.1-0.2-0.2-0.4-0.3-0.6c-0.4,1-0.7,2.1-1.4,2.9c-0.1-0.9-0.2-1.8-0.8-2.4
		c-0.2,0-0.7-0.1-0.9-0.1c0-0.7-0.1-1.4-0.6-1.8c0.3,0.7,0.4,1.4,0.3,2.1c0.4,0,0.9,0,1.3,0.1c0.2,0.8,0.4,1.7,0.3,2.6
		c0.2-0.1,0.5-0.2,0.7-0.3c0.2,1.1,0.7,2.6-0.6,3.2c-0.1-0.6-0.2-1.3-0.4-1.9c-0.4,0-0.9-0.2-1.1,0.2c-0.8,0.8,0,2.4-1.3,2.8
		c0.3-0.7,0.5-1.6,0-2.3c0.2-0.4,0.5-0.8,0.7-1.1c-0.1-0.1-0.2-0.2-0.3-0.2c-0.3,0.6-0.5,1.2-1,1.6c-0.6-0.6,0.1-1.6-0.4-2.3
		c0,0.8,0,1.7-0.1,2.5c0.4,0,0.8-0.1,1.3-0.1c0,0.7-0.2,1.4-0.4,2.1c0.8,0.2,1.2-0.4,1.5-1c0-0.7-0.2-2.2,1-1.9
		c0.5,0.6,0.4,1.4,0.4,2.2c1.1-0.5,2,0.3,3.1,0.4c0.6,0.9,2,1.4,1.9,2.6c-1-0.4-1.8-1.2-3-1c-0.1-0.5-0.3-0.9-0.5-1.4
		c-0.1,1.1,0.5,2.6-0.7,3.4c-0.1-0.8,0.2-1.8-0.5-2.3c-0.6-0.7-1.6-0.6-2.5-0.5c0,0.2-0.1,0.5-0.2,0.7c0.1-0.1,0.4-0.4,0.5-0.5
		c1-0.2,2,0.2,2.5,1.1c-0.6,0.2-1.3,0.2-1.8,0.7c0,0.3,0,0.8,0,1c0.6,0.6,1.5,0.8,2.3,1.2c0.4,0.5,0.8,1.1,1.2,1.6
		c-0.4,1-0.9-0.3-1.4-0.5c-0.7-0.2-1.7-0.2-2.1,0.6c-0.3,0.5-0.6,1.1-1.1,1.4c-0.1-0.8-0.3-1.6-0.9-2.2c-0.7,0-1.4,0.1-2.1,0.1
		c0.7-0.6,1.5-1.4,1.3-2.5c0.1-1.4-1.7-0.9-2.5-1.1c0.1-0.7,0.1-1.4-0.4-1.9c-0.4-0.1-0.8-0.1-1.2-0.2c0.3-0.5,0.5-1,0.6-1.6
		c-0.4,0.8-0.7,1.7-1.6,2.1c-0.2-1-0.5-2-1.5-2.5c-0.5,0.2-1.1,0.4-1.5,0.8c-0.3,0.9,0.3,1.8,0.4,2.7c0.3,0.8-0.3,1.9-1.2,1.9
		c0-0.5,0-1.1-0.1-1.6c-0.3-0.8-1.2-0.8-1.9-0.7c-0.6,0.3-1.2,0.8-1.8,1.2c0.3-0.8,1.2-1.7,0.7-2.6c-0.5-1-1.9-0.7-2.8-1
		c0.4-0.5,0.9-1,1-1.6c-0.1-0.3-0.3-0.6-0.6-0.9c-1.1-0.2-2.1,0.2-3.1,0.4c0-0.2,0-0.5,0-0.7c-0.4,0.9-1.1,1.7-1.9,2.2
		c0.1-0.9,0.7-1.9,0.4-2.9c-0.2-0.5-0.9-0.3-1.3-0.4c0.4-0.8,0.8-1.8,0.3-2.7c0.5-0.8,0.9-1.8,1.7-2.2c0,0.3,0,0.9,0,1.1
		c-0.2,0.3-0.4,0.6-0.6,0.9c1.1-0.5,2.4-1.6,1.9-2.9c0,0.2,0,0.7-0.1,1c-0.3,0.5-0.7,0.9-1.2,1.3c0-1.3-0.1-2.7,0-4
		c-0.1,0.4-0.1,0.8-0.2,1.2c-0.3,0.1-0.5,0.3-0.8,0.4c-0.1-0.7-0.4-1.4-0.6-2.1c0,0.2,0,0.6-0.1,0.8c-1,0.1-1.7,0.9-2.2,1.8
		c-0.3-0.4-0.6-0.7-0.8-1.1c-1.3-0.1-2.3,0.7-3.6,0.8c0.5-1.2,2.1-1.5,2.6-2.7c0.2-0.5,0.1-1.1,0.1-1.7c-0.1,0.6-0.3,1.2-0.3,1.9
		c-0.4,0.3-0.7,0.6-1.1,0.8c0.5-0.9,0.4-1.9-0.1-2.8c-0.9-1-2.1,0.4-3.1-0.2c0.3-0.2,0.7-0.3,1-0.5c0-0.4,0-0.9-0.1-1.3
		c-0.4-0.1-0.9-0.1-1.3-0.2c0.1-0.8,0.3-1.9-0.5-2.5c-0.7-0.5-1-1.3-1.5-1.9c-0.3,0-0.6,0-0.9,0c-0.3-0.3-0.5-0.6-0.8-0.9
		c0.2,0.4,0.4,0.7,0.7,1c-0.3,0.2-0.8,0.2-1,0.6c-0.8,0.9,0,2.2-0.1,3.2c-0.3-0.4-0.5-0.9-0.7-1.4c-0.5-0.1-1-0.3-1.5-0.4
		c-0.1-1.5-1.7-2.5-1.6-4c0.1-0.2,0.3-0.5,0.4-0.6c0.2,0.6,0.4,1.2,0.5,1.8c0.8-1.1,1.8-2.1,2.6-3.2c0.3,0.5,0.5,1,0.8,1.6
		c0.3-0.4,0.6-0.8,0.9-1.1c-0.4,0.2-0.7,0.9-1.2,0.6c-0.1-0.3-0.2-0.7-0.2-1c-0.2,0-0.5-0.1-0.6-0.1c-0.4,1.2-1.5,2-2.2,3
		c-0.2-0.9-0.6-1.7-0.9-2.5c-0.8-0.7-2.1-0.5-2.7,0.4c0,0.6,0.2,1.2,0.3,1.8c-0.6-0.3-1.2-0.5-1.7-0.7c0,0.7,0.1,1.4,0.1,2.1
		c0.2,0,0.5,0,0.7,0c0.1,0.5,0,1.2,0.5,1.5c-0.1-0.5-0.3-1.1-0.4-1.6c-0.2,0-0.5-0.1-0.6-0.1c-0.1-0.5-0.1-1-0.2-1.5
		c0.9,0,1.4,0.7,2,1.1c-0.1-0.8-0.6-1.5-0.5-2.3c0.2-0.8,1.1-0.9,1.8-0.9c0,0.1,0.1,0.3,0.1,0.3l0.1,0c0.9,0,0.3,0.9,0.1,1.4
		c-0.4,1.8,1.8,3,1.5,4.8c-0.5-0.5-0.9-1-1.3-1.5c0.2,0.5,0.5,0.9,0.6,1.4c-0.1,0.5-0.6,1-0.2,1.5c0.7,0.9,1.1,2,1.5,3
		c0.1-0.1,0.2-0.3,0.2-0.4c-0.4-1-0.9-2-1.4-2.8c0.3-0.3,0.8-0.6,0.7-1.1c0.5,0.1,1,0.2,1.4,0.5c-0.2,0.3-0.3,0.5-0.5,0.8
		c0.2-0.1,0.5-0.4,0.6-0.5c0.1,0.5,0.2,0.9,0.3,1.4c0.5-0.2,0.7-0.8,0.9-1.2c0.8-0.7,1.7-1.2,2.7-1.5c0.3,0.4,1.1,0.9,0.5,1.4
		c-0.2,0-0.6,0.1-0.8,0.1c0,0.1-0.1,0.2-0.1,0.2c0.4-0.1,0.8-0.2,1.1-0.2c-0.3,0.6-0.8,1-1.4,1.3c-1.2,0.7-2.3,1.6-3.2,2.7
		c1.3-1,2.7-1.8,4.2-2.6c0.5-0.3,1.1-0.1,1.6-0.2c-0.1,0.6-0.7,0.8-1.2,0.8c-0.3,0.2-0.6,0.4-0.9,0.5c0.1,0.2,0.2,0.5,0.4,0.7
		c0.9,0.2,1.8,0,2.7,0c0.2-0.1,0.5-0.3,0.6-0.4c0.3,0.3,0.6,0.6,0.9,0.9c-0.5,0.3-1,0.5-1.5,0.7c0.5-0.1,0.9-0.3,1.4-0.4
		c0,0.2,0,0.5,0,0.7c-0.9,0.4-1.9,0.7-2.8,1.2c-2.1,1.2-3.5,3.1-4.8,5c-1,1.3-1.9,2.8-2,4.5c0.6-0.5,0.7-1.3,1-2
		c0.5-1.2,1.4-2,2-3.1c0.6-1.4,2-2.2,3-3.3c1-0.6,2-1.4,3.2-1.4c-0.6,1.1-1.8,1.7-2.6,2.7c0.6-0.3,1.1-0.8,1.8-0.7
		c-0.2,0.4-0.4,0.9-0.7,1.2c-1.2,1.3-2.6,2.6-3.5,4.2c-1.3,2.2-1.9,4.8-2.2,7.3c0,0.4,0.1,0.7,0.2,1.1c-0.1-3.8,1.6-7.4,3.9-10.3
		c1.3-1.6,3-2.7,4.6-3.9c0.4-0.3,1-0.2,1.3,0.3c-0.7,0.3-1.2,0.9-1.5,1.6c0.5-0.5,0.9-1,1.4-1.4c0.2,0.1,0.5,0.3,0.6,0.4
		c-0.2,0.3-0.4,0.5-0.7,0.8c0.5-0.5,1.2-0.9,1.8-1.3c-0.3-1,0.8-1.2,1.5-1.4c0,0.3,0,0.7,0,1c-0.5,0.6-1.2,0.9-1.6,1.5
		c0.9-0.4,1.7-1.2,2.8-1.3c-0.2,0.9-1.6,0.9-1.5,1.8c-0.1-0.1-0.3-0.2-0.4-0.2c-1.9,1.7-3.9,3.5-5.2,5.7c-0.9,1.5-2.1,3-2.4,4.7
		c0.6-1,1-2.1,1.7-3.1c1.6-2.3,3.4-4.5,5.7-5.9c0.2,0.6,0.3,1.3,0.2,1.9c-0.1,0-0.4-0.1-0.5-0.2c0.1,0.1,0.2,0.3,0.2,0.5
		c-0.8,0.7-1.7,1.4-2.6,2l-0.4-0.6c0,0.2-0.1,0.5-0.1,0.7c1,0.1,1.5-0.7,2.1-1.4c0.4,0.1,0.7,0.2,1.1,0.2c0,0.1,0,0.4,0,0.6
		c-1.5,0.6-2.6,1.9-3.6,3.2c1.2-1.2,2.4-2.5,4-3.2c0.3,0.3,0.6,0.8,0.1,1.1c-1.4,0.6-2.9,1.4-3.7,2.8c-0.8,1.2-0.9,2.7-1.1,4.1
		c-0.4,2.9-1.4,5.6-1.5,8.5c0,1.1,0.5,2.1,0.7,3.1c0.7,4.3,3.3,7.8,5.7,11.3c0.7,1.1,1.6,2,2.2,3.2c0.4,0.8,0.6,1.6,1,2.4
		c1,1.2,2.2,2.2,3.5,3c1,0.8,1.8,1.8,2.8,2.7c-1-0.2-1.8-0.8-2.8-1c-0.5-0.1-0.7-0.6-1-0.9c-0.7-1.1-2-1.7-2.5-2.9
		c-0.4-0.2-0.8-0.5-1.1-0.8c0.1-0.3,0.2-0.5,0.3-0.8c-0.1,0.2-0.3,0.5-0.4,0.6c-2.2-2.6-4.6-5.2-6.2-8.3c0.1,1.3,1,2.3,1.6,3.4
		c0.8,1.4,2,2.6,2.8,4c0.4,0.5,0.8,0.9,1.2,1.4c1,1.3,2.1,2.6,3.3,3.9c-1-0.5-2.2-0.5-2.9-1.5l-0.4,0.3l0.2-0.7
		c-0.1,0.2-0.3,0.5-0.4,0.6c-0.4-0.4-0.8-0.8-1.1-1.2c-1,0.1-1.3-1.1-1.7-1.7c-0.5-0.9-1.2-1.7-1.8-2.4c-2-2.7-4-5.5-5.2-8.7
		c-0.1,0.1-0.1,0.3-0.2,0.4c0.6,1.6,1.2,3.2,2.1,4.6c0.2,0.4,0.5,0.9,0.7,1.3c-0.5-0.2-1-0.4-1.6-0.7c-0.7-0.4-0.9-1.3-1.4-1.9
		c-1-1.6-1.7-3.3-2.4-5c0.4,2.5,2.1,4.4,2.9,6.7c-0.1-0.1-0.4-0.3-0.6-0.4c-0.2,0-0.5,0-0.7,0c-1.1-1.2-1.9-2.7-2.7-4.1
		c0.4,1.5,1.4,2.7,2,4.2c-0.6,0-1.2-0.2-1.8-0.5c0.3-0.1,0.5-0.3,0.8-0.4c-0.2,0-0.5,0-0.7,0l0.2-1c-0.2,0.3-0.3,0.7-0.5,1.1
		c-1-2.1-2.7-3.9-3.2-6.2c0,0.6-0.1,1.2,0.2,1.7c0.6,1.2,1.2,2.4,2,3.5c0.3,0.4,0.5,0.8,0.7,1.2c-0.3-0.2-0.6-0.4-0.9-0.6
		c-0.1-0.1-0.4-0.2-0.5-0.2l-0.2-0.1c-0.4-0.4-0.8-0.6-1.4-0.5c-1-1.4-2-2.9-2.8-4.5c0.3,1.8,1.8,3,2.3,4.6c-0.7-0.4-1.3-1-1.9-1.5
		c0.4,0.6,1.4,1.1,1.1,1.9c-0.4-0.3-0.8-0.5-1.1-0.8c0.3,0.4,0.7,0.7,1,1.1c-0.8-0.1-1.4-0.8-2-1.3c-1.3-1.1-2.2-2.5-3.3-3.7
		c1,2.2,2.9,3.8,4.7,5.3c-0.4,0.5-0.8,1.1-1.1,1.7c-1.1-0.8-2.1-1.8-3.2-2.7c-0.8-0.7-1.5-1.7-2.3-2.4c0.9,1.2,1.8,2.4,3,3.5
		c0.8,0.8,1.7,1.4,2.3,2.4c-0.3,0.4-0.6,0.8-0.8,1.2c-1.3-1.1-2.5-2.3-3.6-3.6c0.8,1.5,2.2,2.5,3.3,3.8l0,0.6c-1-0.5-1.8-1.3-2.5-2
		c0.6,0.8,1.3,1.3,2.1,1.9c0,0.2,0,0.6,0,0.7c-0.4-0.3-0.8-0.5-1.2-0.8c0.4,0.3,0.9,0.8,0.6,1.4c-1.8-1.1-3.4-2.7-4.6-4.4
		c1,1.8,2.6,3.2,4.2,4.5c-0.5,0.5-0.9,1.3-1.7,1.6c-0.2-0.4-0.5-0.7-0.8-1c0.3,0.5,0.9,1,0.7,1.7c-1.7-1.4-2.9-3.4-4.6-4.8
		c1.2,1.9,2.6,3.5,4.1,5.2c-0.1,0.1-0.3,0.3-0.4,0.4c-0.5,0.4-1.1,0.8-1.6,1.3c-0.1-0.1-0.3-0.2-0.3-0.3c0,0-0.1,0-0.2-0.1
		c0.1,0.2,0.3,0.6,0.4,0.8c-1.5-0.7-2.7-1.9-3.9-3.1c0.1,0.4,1.1,1.3,0.2,1.4c0.1,0.4,0.7,0.8,1,1.1l0.1,0c-0.1-0.3-0.2-0.5-0.3-0.7
		c0.1,0,0.3-0.1,0.4-0.2c0.5,0.7,1.1,1.2,1.7,1.8c-0.1,0.1-0.2,0.2-0.2,0.2c-0.5,0.4-1.1,0.8-1.6,1.2c-0.1-0.1-0.2-0.2-0.3-0.2
		c-2.1-1.6-3.6-3.8-5.7-5.4c1.6,2,3.6,3.7,5.3,5.6c0,0.1,0,0.3,0,0.4c-0.7,0.2-1.3,0.5-1.9,0.8l-0.4,0.1c-1-0.9-2.2-1.6-3.1-2.7
		c-0.6-0.7-1.3-1.4-1.8-2.2c0.3,0.6,0.7,1.1,1,1.6c0.8,1.4,2.1,2.5,3.2,3.6l-0.1,0.3c-0.2,0-0.5,0.1-0.6,0.1c-0.3-0.4-0.5-0.7-0.8-1
		c0.2,0.3,0.4,0.6,0.7,0.9c-0.1,0.1-0.3,0.4-0.4,0.6c-0.5,0.2-0.9,0.3-1.4,0.5c-2.6-1.8-4.4-4.5-6.3-7c-0.2-0.4-0.6-0.7-0.9-0.9
		c0.5,1.4,1.4,2.6,2.2,3.9c1.4,1.6,2.7,3.4,4.3,4.8c-0.6,0.7-1.3-0.5-2-0.7c0.4,0.5,1.5,0.8,1.2,1.7c-0.6-0.3-1.1-0.6-1.6-1
		c0.4,0.5,1.3,0.8,1.1,1.6c-0.8,0-1.3-0.7-1.9-1.1c0.5,0.5,0.9,0.9,1.3,1.4c-0.6,0-1.1-0.4-1.5-0.7c-1.3-1.1-2.2-2.6-3.5-3.7
		c0.5,0.7,1,1.4,1.5,2.1c0.7,1,1.6,1.9,2.5,2.8c-0.2,0.1-0.5,0.2-0.7,0.4c-0.3-0.4-0.6-0.9-0.9-1.4c0,0.2,0.1,0.5,0.1,0.6
		c0.3,0.3,0.6,0.6,0.9,0.8c-0.2,0.2-0.5,0.4-0.7,0.6c-0.3,0.2-0.5,0.4-0.8,0.6l-0.3,0.2c-1.6-1.5-3.1-3.1-4.4-4.9
		c-1.6-2.1-3.3-4.2-4.6-6.6c0.3,1.3,1.1,2.4,1.8,3.5c1.9,2.6,3.7,5.3,5.8,7.8c0.2,0.3,0.4,0.5,0.7,0.7c-0.4,0.2-0.9,0.4-1.3,0.6
		c0,0.1,0,0.4,0,0.6c2-0.6,4.1-1.5,5.6-3.1c1-1,1.6-2.3,3-2.8c1.6-0.7,3.1-1.8,4.7-2.5c1.5-0.7,3-1.7,4.2-2.9c1-0.7,1.9-1.5,2.7-2.4
		c1.4-1.4,2.8-2.9,3.8-4.6c0.9-1.4,1.5-3.1,2.9-4.1c1.7,0.1,3,1.5,4.6,1.8c1.7,0.4,3.5,0.2,5.1,1.1c2.3,1.2,3.7,3.5,5.1,5.5
		c0.1,0.6,0.2,1.2,0.4,1.7c0.8,1.8,1.9,3.5,3.3,4.9c0.9,1.5,2,2.8,3.2,4.1c1.2,1.1,2.2,2.6,3.2,3.9c1.3,2,3.1,3.6,4.9,5.2
		c-0.2,0.1-0.3,0.3-0.5,0.4c-0.8-0.6-1.5-1.3-2.3-1.9c-0.4,0-0.9,0.1-1.3,0.2c-0.6-0.1-1.1-0.1-1.7-0.2c-0.4-0.2-0.4-0.7-0.6-1
		c-0.6-1.2-1.8-2.1-2.4-3.3c-0.3-0.7-1.2-0.9-1.8-0.8c-0.2,0.7-0.5,1.3-1.1,1.8c-0.3-0.6-0.7-1.1-1.1-1.7c-0.3-0.1-0.7-0.2-1-0.3
		c-0.7,1.1-2.3,1.3-2.5,2.8c-0.6-0.7-1.2-1.5-2.1-1.8c-0.4-1.3-1.6-2.6-3.1-2.4c0,0.8-0.1,1.5-0.1,2.3c-0.8-0.9-1.8-1.4-2.9-1.8
		c0.7,0.8,1.9,0.9,2.6,1.7c0.1,0.5,0.2,0.9,0.4,1.4c0.2-1.1,0.3-2.2,0.4-3.4c1.2-0.2,1.8,0.9,2.4,1.6c0,0.3,0.1,0.6,0.1,0.9
		c0.3,0,0.6,0,0.9,0.1c1.2,1.2,2.2,2.6,3.1,4c0.5,0.8,1.3,1.5,1.7,2.3c-0.1,1.1-0.3,2.3-0.2,3.4c-0.4-1-1.4-1.9-2.5-1.8
		c-1,0.2-1.3,1.3-1.6,2.1c0.2,1.4,1.3,2.5,2,3.7c2.5,3.8,5.2,7.6,9.1,10.1c2.1,1.3,4,3,6.1,4.3c2.5,1.2,4.9,2.8,7.6,3.7
		c3.7,1.6,7.6,1.9,11.6,2.2c-0.6,0.5-1.3,0.8-2,1c-0.5,0.6-1.3,1-2.1,0.9c0.2,0.1,0.6,0.2,0.7,0.2c-0.4,0.3-0.8,0.5-1.2,0.8
		c-0.1-0.1-0.4-0.3-0.5-0.4c-1.8,0.3-3.6-0.4-5.2-1.3c-0.9-0.5-1.5-1.4-2.2-2c-0.2-0.1-0.6-0.4-0.9-0.5c-0.5,0.1-1.2,0.2-1.4,0.8
		c-0.8,1,0.2,2.1,0.6,3c0.1-0.2,0.2-0.3,0.3-0.5c-0.3-0.4-0.5-0.8-0.8-1.2c0.1-0.2,0.3-0.6,0.3-0.7c0.3,0.7,1.3,0.8,1.5,1.6
		c0-0.2,0.1-0.4,0.1-0.5c-0.6-0.2-1.1-0.7-1.5-1.1c0.1-0.1,0.3-0.4,0.3-0.6c0.1,0.1,0.4,0.2,0.6,0.2c0.1,0,0.4-0.1,0.5-0.1
		c0.1,0.2,0.1,0.5,0.2,0.7c1.2,0.9,2.4,1.7,3.8,2.2c1.1,0.4,2.2,0.5,3.4,0.6c-0.5,0.4-1,0.7-1.5,1.1c-0.9-0.1-1.8-0.3-2.6-0.6
		c-0.7-0.2-1.4-0.4-2-0.9c0.9,1.1,2.4,1.2,3.6,1.6c-0.8,0.7-1.9,1-2.8,1.3c-0.6-1.3-2.1-1.9-2.7-3.2c-0.1,0.2-0.3,0.4-0.4,0.6
		c-0.6-0.6-1.2-1-1.9-1.5c-1-0.6-1.7-1.6-2.6-2.4c-0.3-0.2-0.9-0.1-0.9,0.4c-0.3,1.4,1.1,2.4,1.5,3.7c-0.8-0.7-1.6-1.4-2.2-2.3
		c-1-1.8-0.7-4.1-1.8-5.8c-0.8-1.1-1.9-2-3.3-2.4c-0.1,0.1-0.3,0.4-0.5,0.6c-0.4-0.3-0.8-0.8-1.3-0.5c-0.5,0.9-0.7,2.1-1.4,2.9
		c-0.6-0.2-1.1-0.4-1.7-0.7c0,0.8,0,1.7-0.4,2.4c-0.8-1.5-0.9-3.2-1.4-4.8c-0.1-0.4-0.5-1,0.1-1.3c0.2,0.3,0.5,0.4,0.8,0.4
		c-0.2-0.2-0.4-0.3-0.6-0.5c0.6-0.2,1.2-0.2,1.9-0.1c-0.1,0.4-0.2,0.9-0.3,1.3c-0.1,0.3-0.2,0.5-0.4,0.8c0.6-0.6,1.2-1.4,0.8-2.2
		c0.1-0.3,0.1-0.6,0.1-0.9c-0.3,0.2-0.5,0.3-0.7,0.5l-0.4-0.4c0.1,0.1,0.2,0.3,0.3,0.4c-0.7,0.1-1.4,0.3-2.2,0.5
		c0.3-1,0.8-2,1.7-2.6c0-0.1,0-0.4,0-0.6c-1.5-2-3.8-3.2-5.5-5c0.3-1.2,0.3-2.6-0.4-3.7c-0.5-1.4-1.8-2.3-2.9-3.2
		c0.2-0.3,0.4-0.7,0.6-1c0-0.5,0.1-0.9,0.1-1.3c-0.2,0.9-0.6,1.7-1,2.6c1,0.8,2.2,1.4,2.7,2.6c0.8,1.2,1.1,2.8,0.3,4.1
		c1.4,1,2.7,2.2,4.1,3.3c0.6,0.6,1.6,1.1,1.6,2.1c-0.7,0.7-1.4,1.5-1.5,2.6c-1.1-0.4-1.4-1.9-2.5-2.2c-0.7,0-1.2,0.6-1.8,0.9
		l0.1,0.1c0.1,0.3,0.2,0.7,0.3,1c0.4,0.6,0.2,1.7,1,1.9c-0.2-0.9-0.5-1.7-0.8-2.6c0.3-0.4,0.6-0.6,1.1-0.7c0,0.2,0,0.6,0,0.8
		c0.6,0.6,1.2,1.2,1.8,1.8c-0.6-0.8-1.6-1.4-1.8-2.5c1.5,0,1.5,2.2,2.9,2.2c0.4,2,1.1,3.9,1.2,6c0.3,0.3,0.5,0.6,0.8,0.8
		c-0.1-0.3-0.3-0.6-0.4-0.9c0.2,0.1,0.5,0.2,0.7,0.2c0.1-0.2,0.2-0.6,0.2-0.8c0.5,0.5,1.1,1,1.7,1.5c-0.5-0.5-1-1-1.5-1.5
		c0.1-0.4,0.1-0.9,0.2-1.3c0.4,0.3,0.8,0.5,1.2,0.8c0.3,0.4,0.6,0.9,1,1.2c-0.3-0.4-0.6-0.8-0.8-1.2c1.6,0.8,2.9,2.3,4.5,3.2l0-0.1
		c-0.6-0.3-1.1-0.8-1.5-1.3c0.8,0,2.7-0.4,2.3,1.1c0.3,0.1,0.7,0.1,1,0c0.4,0.4,0.9,0.8,1.3,1.1c0.2,1.1,1.2,1.7,1.9,2.4
		c0.6,0.5,1.1,1.2,1.9,1.5c0.4,0.2,0.9,0.4,1.3,0.5c-0.1-0.1-0.2-0.4-0.3-0.6c-1-0.9-2-1.9-2.6-3.1c0.7,0.4,1.3,0.9,2,1.4
		c-0.1,0.1-0.4,0.2-0.5,0.3c0.2,0,0.6-0.1,0.8-0.1c0.1,0.1,0.2,0.3,0.3,0.4l0.3,0c-0.9-0.7-1.8-1.6-2.9-2.1c-0.2-0.5-0.4-1-0.4-1.5
		c0.6,0.3,1.1,0.7,1.6,1.2c0.8,0.9,2,1.5,2.9,2.4l0.2,0.2c0.3,0.2,0.6,0.5,0.9,0.7c0.7,0.6,1.5,1,2.3,1.5c-0.2,0.1-0.7,0.3-0.9,0.3
		l-0.4,0.1c-0.1-0.2-0.2-0.6-0.3-0.8c0,0.1-0.1,0.4-0.1,0.5l-0.4,0l-0.2,0c-0.2,0-0.5-0.1-0.6-0.1c-0.1,0-0.3-0.1-0.3-0.1
		c-0.4-0.2-0.8-0.3-1.1-0.4c0.6,0.5,1.3,0.8,2.1,1c-0.6,1-1.9,0.3-2.8,0c0.4,0.2,0.8,0.4,0.8,0.9c-1.1,0.3-2-0.3-2.9-0.8
		c-0.1-0.1-0.4-0.2-0.6-0.3c-0.8-0.5-1.6-1-2.3-1.6c-0.2,0-0.5-0.1-0.7-0.1c-1-1.2-2.5-1.9-3.7-2.8c-0.5-0.5-1-1-1.7-1.4
		c0.6,0.7,1.3,1.3,2,1.9c0.9,0.8,2.3,1.1,3.1,2.1c0.3,0.3,0.6,0.7,1.1,0.7c1.1,0.9,2.3,1.7,3.6,2.3c0.3,0.1,0.4,0.3,0.3,0.5
		c-0.4,0.1-0.7,0.1-1.1,0.1c-0.2,0.1-0.5,0.1-0.7,0.2l-0.4,0.2c-0.1-0.1-0.2-0.4-0.3-0.5c-1.2-0.6-2.4-1.3-3.6-2
		c-0.7-0.2-1.2-0.8-1.8-1.3c0.3,0.3,0.6,0.7,0.9,1c1.5,0.9,2.9,2,4.5,2.7c-0.2,0.1-0.7,0.2-1,0.3c0.1,0.1,0.2,0.2,0.2,0.3
		c0.2,0,0.5,0.1,0.7,0.1c2.9-0.2,5.7-0.9,8.4-2c1.4-0.5,2.9-1.1,4.2-1.7c2.2-1.1,4.2-2.6,6.3-3.8c1.4-0.9,2.5-2.1,3.9-2.9
		c0.1-0.1,0.4-0.3,0.5-0.4c0.7-0.7,1.5-1.3,2.3-1.8c1.7-1.3,2.9-3.1,4.5-4.5c0.9-1.2,1.7-2.6,2.8-3.7c1.4-2.3,3-4.3,4.4-6.6
		c0.9-1,1.4-2.3,2-3.5c1.3-2.4,2.2-5,3.1-7.6c0.2-0.8,0.4-1.5,0.6-2.3c-0.1-0.1-0.2-0.3-0.3-0.4l-0.1-0.1l0,0.6
		c-0.6-0.1-1.2,0.1-1.8,0.3c0.6,0,1.1-0.1,1.7-0.1c-0.1,0.2-0.3,0.6-0.4,0.9c-0.3,0.1-0.6,0.1-0.9,0.2c-2.6,0.7-5.3,0.8-7.9,0.9
		c-2.3-0.2-4.6,0-6.8-0.4c-2.6-0.7-5.3-0.7-7.8-1.8c-0.9-0.4-1.9-0.6-2.6-1.3c1.3-0.1,2.5,0.5,3.8,0.6c0,0.1-0.1,0.4-0.1,0.5
		c0.9,0.2,1.8,0.3,2.7,0.3l-0.1-0.4l0.4,0c1.7,0.1,3.3,0.5,4.9,0.6c1.1,0.1,2.2-0.4,3.4-0.4c1,0.1,1.9-0.1,2.9,0
		c0.7,0.3,1.4,0.5,2.1,0.2c-0.6,0-1.1-0.1-1.6-0.5c0.3,0,0.8-0.1,1.1-0.2c2.8-0.3,5.6-1.2,7.9-2.8c-0.1,0.4-0.1,0.8-0.2,1.3
		c-0.1,0.1-0.3,0.2-0.4,0.3l-0.1,0.2l0.5,0.4c0.2-0.7,0.4-1.3,0.3-2.1l0.2-0.1C208.3,90.9,208.8,89.3,209.2,87.6z M189.2,88.7
		c-0.1-0.3,0-0.6,0.3-0.8C189.9,88,189.6,88.9,189.2,88.7z M204.9,88.4c0.9-0.4,1.9-0.3,2.9-0.5c0.4-0.1,0.8,0.1,0.8,0.5
		C207.3,88.6,206.1,88.5,204.9,88.4z M148.7,133.5c-1.1-1.2-2.6-2-3.6-3.3l0-0.3c-0.1-0.1-0.3-0.2-0.4-0.2c0-0.1,0.1-0.4,0.1-0.6
		c0.2-0.1,0.5-0.2,0.7-0.3c-0.4-1.1-1.4-1.8-1.7-2.9c1.3,0.3,2.1,1.5,2.8,2.5l0.1-0.2c-0.5-0.7-1-1.4-1.6-1.9c0.2,0,0.6-0.1,0.8-0.2
		c0.1,0,0.4,0.1,0.5,0.1c0.4,0,0.6,0.2,0.8,0.5l0.2-0.2c0.1,0.1,0.4,0.2,0.6,0.3c0.5,0.3,0.9,0.7,1.4,0.9c0.2,0.2,0.4,0.5,0.6,0.7
		c0.3-0.3,0.6-0.5,0.6-1c0.7-0.2,0.7,0.6,1,1c0-0.1,0.1-0.3,0.2-0.4c1.2,1,2.4,2.1,3.1,3.5c0.3,0.6,0.6,1.3,0.9,1.9
		c0.5,0.9,1.2,1.6,1.9,2.3c-0.5,0.7,1,0.7,0.8,1.5l-0.7-0.2c-0.4-0.2-0.7,0.2-1,0.4c-1.4,0-2.4-1.3-3.6-2c0.6,0.8,1.5,1.3,2.2,2
		c-0.3,0-0.9,0-1.2,0C152.4,136.3,150.4,135.1,148.7,133.5z M140.8,120.1c-0.4,0-0.7-0.1-1.1,0c-0.2-0.7-0.4-1.3-0.9-1.9
		c-1.2-0.1-2.3-0.2-3.5-0.3c0-0.2-0.1-0.6-0.2-0.8c-0.5-0.3-1.2-0.4-1.4-1c-0.1-0.7-0.1-1.3-0.2-2c0.3-0.9,1.2-1,2-1
		c0,0.8,0,1.6,0.3,2.4c0.4-0.4,0.8-0.9,1.3-1.1c0.2-0.3,0.5-0.5,0.8-0.7c0.8,0.8,0.1,2,0.1,3c0.4,0.2,0.8-0.6,1.2-0.1
		c0.7,0.8,1.4,1.6,1.5,2.7c-0.2,0-0.6-0.1-0.8-0.2c0.3,0.1,0.6,0.2,1,0.3C141,119.6,140.8,119.9,140.8,120.1z M131.3,125.7
		c0.7-0.1,0.1,1-0.1,0.2L131.3,125.7z M125.8,126.8c0.1,0.1,0.2,0.4,0.2,0.5c0.1-0.1,0.4-0.2,0.5-0.2c-0.1,0.7,0.1,1.6-0.4,2.2
		c-0.6-0.4-0.8-1.4-1.2-2C125.2,127.2,125.6,126.9,125.8,126.8z M121.1,128.2c0.6,0.3,0.6,1,0.6,1.5c-0.2,0.1-0.7,0.3-0.8,0
		C121,129.2,121.1,128.7,121.1,128.2z M113.4,118.6c0.1-0.5,0-0.9-0.3-1.4c0.6,0.1,0.8,0.8,1.2,1.2c0.7,0.1,1,1,1.8,0.7
		c0.5,0.8,1.8,1.3,1.4,2.4c-0.8,0-0.7-1.2-1.3-1.4c0.4,0.6,0.7,1.2,1,1.8l0.1,0.1c-0.1,0.4-0.2,0.8-0.3,1.1c-0.5-0.1-0.5-0.7-0.8-1
		c0.2,0.8,0.6,1.6,0.7,2.4c-0.8,0.1-0.7-0.9-1-1.4c0.1,0.6,0.3,1.2,0.5,1.7c-0.3,0.1-0.5,0.2-0.8,0.3c-0.5-0.9-1.1-1.7-1.5-2.6
		c-0.1-0.5-0.5-1-0.8-1.5c-0.4-0.9-0.5-1.8-0.9-2.6c-0.2-0.7-0.4-1.4-0.4-2.2C113,116.6,113,117.8,113.4,118.6z M108.9,116.8
		c0.4,0.2,0.4,0.3,0,0.5C108.9,117.1,108.9,116.9,108.9,116.8z M109.1,117.9l0.1,0.2c-0.1,0.1-0.3,0.2-0.4,0.3
		C108.9,118.3,109.1,118,109.1,117.9z M103.1,118c0.1-0.1,0.3-0.4,0.3-0.5c0.2,0.6,0.8,1.1,0.5,1.7l-0.1,0.1
		c0.1,0.1,0.2,0.3,0.2,0.4l0.2,0.3c0.5-1.1-0.9-2-0.3-3.1c1.1,0,1.4,1.2,1.8,2c0-0.5,0.1-1,0.5-1.4c0.1,0.5,0.2,1,0.4,1.6
		c0-0.3,0-0.9,0-1.2c0.6,0.7,0.9,1.5,1.3,2.3c0.3-0.1,0.6-0.3,0.8-0.4c0.2,0.2,0.4,0.5,0.5,0.7c-0.2-0.4-0.3-0.7-0.5-1.1
		c0.2,0.1,0.6,0.2,0.8,0.2c0-0.2,0-0.5,0-0.7c0.8,1.2,1.4,2.6,2.2,3.8c-0.1-0.6-0.4-1.2-0.7-1.8c-1-1.6-1-3.5-1.9-5.1
		c0.2,0,0.6,0,0.8,0c0.1,1.2,0.7,2.4,1.2,3.5c-0.3-1.1-1.1-2.2-0.9-3.4l0.5,0c0,0.2,0.1,0.6,0.1,0.8c0.1-0.2,0.2-0.6,0.3-0.9
		c0.3,0.3,0.5,0.7,0.6,1.2c0.5,2.2,1.4,4.2,2.5,6.2c0.3,0.8,1,1.4,1.2,2.3c-0.6,0.6,0.1,1.1,0.5,1.5c1.1,0,2.4,0.2,3.2,1
		c0.5,0.8,0.7,1.6,1.1,2.4c0.4-0.1,0.7-0.3,1.1-0.4c0,0.3,0.1,0.8,0.1,1.1c0-0.2,0-0.7,0-0.9c0.2,0.1,0.6,0.3,0.8,0.4
		c-0.1-0.1-0.2-0.3-0.4-0.4c0.1-1.1-0.6-2.1-0.7-3.2c0.2,0.2,0.6,0.5,0.8,0.7c-0.1-0.3-0.2-0.8-0.2-1c0.5,0.4,0.9,0.9,1.2,1.4
		c0,0.6-0.2,1.2-0.2,1.8c0.3,0.2,0.6,0.2,0.9,0.2c0.1,0.4,0.2,0.8,0.4,1.2c-0.3-1.1-0.4-2.2-0.1-3.3c0-0.2,0-0.6,0-0.8
		c0.2-0.3,0.6-0.2,0.8-0.3c-0.1,1.2,1,2,1.1,3.3c0-0.1,0.1-0.4,0.1-0.6c0.8,0.3,1.2,1.6,1.5,2.5c0-0.1,0.1-0.2,0.1-0.3
		c-0.4-0.8-0.9-1.5-0.9-2.4c1.4,1,1.9,2.7,2.4,4.2c0.1,0.5,0.1,1,0.2,1.5c0.2,0.1,0.4,0.3,0.6,0.4c-0.4-0.1-0.9-0.2-1.3-0.4
		c-0.8-0.1-1.7-0.3-2.4-0.7c-0.2-0.2-0.5-0.3-0.7-0.5c-0.3,0.2-0.5,0.1-0.8-0.1l-0.1-0.2c-0.2,0.4-0.7,0.3-1,0
		c-0.3-0.2-0.6-0.5-0.9-0.7c-0.3-0.4-0.6-0.7-0.8-1.1l-0.1,0c0.3,0.4,0.7,0.9,1,1.3c-0.6-0.2-1.1-0.5-1.6-0.7
		c-0.6-0.2-1.1-0.3-1.6-0.6c-0.3-0.2-0.6-0.5-0.9-0.7c-0.5-0.1-1-0.2-1.5-0.5c-0.5-0.3-0.9-0.6-1.3-0.9c-0.3-0.1-0.6-0.2-0.9-0.3
		c0,0-0.1-0.1-0.2-0.1c-0.4-0.3-0.9-0.6-1.1-1.1c-0.6,0-1.1-0.4-1.5-0.8c-0.4-0.4-0.8-0.8-1.1-1.2c-0.4,0.1-0.8,0-0.9-0.4
		c0-0.1-0.1-0.2-0.2-0.3c-0.8-0.2-1.4-0.7-2-1.3c-0.5-0.4-1-0.9-1.4-1.4c-0.1,0-0.4,0-0.5,0.1c-0.3-0.4-0.5-0.7-0.8-1.1
		c-0.5-0.4-0.8-1-1.5-1.1c-0.1-0.1-0.3-0.2-0.3-0.3c-0.4-0.3-0.8-0.7-1.1-1.1C102.6,118.9,102.8,118.4,103.1,118z M93.5,106.8
		c0.3-0.1,0.7-0.2,0.7-0.6c0.2-0.8-0.4-1.3-0.9-1.8l-0.1-0.3c0.5-0.4,1.2-0.7,1.4-1.4c0.3-1,1.3-1.4,2.2-1.6c1.3-0.3,2.5,0.7,3,1.9
		c0.4,1.5-0.6,3-0.3,4.5c0.1,0.5,0.6,0.7,1,1c0.3,0.7,0.5,1.5,0.4,2.2c-0.2,0.6-0.8,1.1-1.2,1.6c-0.2-0.6-0.2-1.2-0.6-1.7
		c-0.4-0.3-1-0.4-1.4-0.5c-0.2,0.2-0.5,0.4-0.7,0.5c0,0.8,0.3,1.6,0.5,2.4l-0.5,0c-1-0.9-1.5-2.2-2.4-3.2c-0.6-0.7-0.9-1.5-1.4-2.3
		C93.4,107.2,93.5,107,93.5,106.8z M92.7,57.4c0-0.7,0-1.5-0.1-2.2c-0.1-0.3-0.6-0.7-0.4-1.1c0.6-1.5,1.1-3,1.3-4.6
		c0.5-0.2,0.9-0.5,1.4-0.7c1.2-0.1,2.5,0.2,3.7-0.1c1-0.2,2.1-0.1,3.1-0.4c0.6-0.2,1.3,0.1,1.9,0.2c0.1,0.6-0.2,1.2-0.6,1.6
		c-0.5-0.4-1.1-0.3-1.4,0.3c0.4,1.4-1.4,1.6-1.5,2.8c0.2,0.1,0.5,0.2,0.7,0.4c0.6,0,1.2-0.1,1.8,0c-0.1,1.2,1.3,1.2,2.1,1.3
		c0.1,0.3,0.2,0.7,0.3,1c0.7-0.4,0.5,0.5,0.8,0.8c0.2,0,0.6,0.1,0.7,0.1c-0.1,0.4-0.4,0.6-0.9,0.6c0,0.3,0,0.7,0,1
		c0.4,0.2,0.9,0.3,1.2,0.8c-0.5,0.3-1,0.7-1.6,0.7c0.1,0.3,0.3,0.7,0.4,1c0.4,0,0.9,0.1,1.3,0.1c-0.1,0.7-0.1,1.5,0,2.2
		c0.5,0.5,1.1,0.8,1.8,1c0.1,0.7,0.2,1.3,0.3,2c-0.5,0-0.8-0.4-1.1-0.7c-0.5-0.1-1-0.2-1.4-0.3c-0.4,0.4-0.7,0.9-1.1,1.3
		c-0.4-0.4-0.7-0.8-1.1-1.3c0.1,0.2,0.1,0.4,0.2,0.6c0.4,0.5,0.7,1,1,1.6c0.3-0.7,0.5-1.5,1.3-1.8c0.7-0.1,1.3,0.4,1.7,0.9
		c-0.4,0.5-0.6,1.1-0.8,1.6c-0.4,0.4-0.9,0.7-1.4,0.9c0.9,0.7,2.1-0.3,3.1-0.5c-0.2,0.8-0.5,1.6-0.5,2.4c0,0.6-0.3,1-0.8,1.1
		c0-0.5,0-1.1-0.4-1.5c-0.8-0.4-1.7-0.3-2.5-0.2c0.1-0.5,0.2-0.9,0.3-1.4c-0.1,0.4-0.3,0.8-0.4,1.1c-0.2,0.4-0.9,0.5-0.9,1.1
		c0,0.2,0,0.7,0.1,0.9c-0.5-0.1-1-0.4-1.4-0.6c-0.1,0.8,0.3,1.7-0.1,2.5c-0.4,0.9-0.7,2-1.7,2.4c0.7-1.1,1.1-2.4,1-3.7
		c-0.2-0.1-0.4-0.3-0.6-0.4c0.4,0.4,0.4,0.9,0.4,1.5c-1-0.7-2.2-0.8-3.4-1c0.3-0.3,0.7-0.4,1.1-0.4c0.3-0.4,0.6-0.8,0.8-1.2
		c-0.5-0.9-1.5-1-2.3-1.3c0.5-0.8,1.7-0.5,2.2-1.2c0.4-0.5,1.1-1.3,0.8-1.9c-0.3,0-1,0.1-1.3,0.2c0.7-0.7,1.3-1.5,1.3-2.5
		c-0.1-0.6-0.9-0.3-1.3-0.4l0.2-0.3c-0.3,0-0.8,0.3-1-0.2c0.1-0.7,0.9-1.2,0.6-2c-0.3-0.7-0.2-1.4,0-2c0.7,0,1,0.7,1.4,1.1
		c0-0.5,0-0.9,0-1.4c0,0.2-0.1,0.6-0.2,0.8c-0.2-0.2-0.5-0.4-0.7-0.6c-0.2,0-0.5-0.1-0.6-0.1c-0.2,0.4-0.1,1.3-0.8,1.2
		c0-0.4-0.1-0.8-0.1-1.2c-0.6-0.1-1.3-0.1-1.9,0.1c-0.8,0.4-1,1.6-2,1.6c0.2-0.6,0.6-1.4,0-1.9c0-0.2,0-0.6,0-0.8
		c-0.5-0.1-1.1-0.2-1.6-0.1c-0.6-0.7-1.9-0.8-1.7-2C92,56.9,92.3,57.2,92.7,57.4z M92.4,64c-0.6-0.4-0.9-1-1.4-1.5
		c0.9-0.1,0.6-1.1,0.6-1.7c-0.3-0.6-0.8-1-1.2-1.4c-0.2,0-0.5-0.1-0.7-0.1c0-0.5,0.2-1.2,0.8-1.2c-0.1,0.2-0.3,0.6-0.4,0.8
		c0.4,0,0.4-0.4,0.4-0.7c1.2-0.5,0.6,0.6,1,1c0.1-0.4,0.3-0.8,0.6-1.1c0.3,1.7,0,3.6,0.6,5.2C92.7,63.6,92.6,63.8,92.4,64z M92.8,64
		c0.2-1.7-0.3-3.5,0-5.3c0.4,0.2,0.6,0.5,0.5,0.9c0.2-0.3,0.4-0.6,0.7-0.7c0.1,0.2,0.2,0.6,0.2,0.8c0.1,0.1,0.3,0.4,0.4,0.5
		c-0.3,0.5-0.6,1-0.9,1.5c0.3,0.1,0.6,0.3,0.9,0.4c0,0.8,0.1,1.7,0.4,2.4C94.5,64.3,93.7,63.7,92.8,64z M85.2,69.7
		c0.4,0.3,0.2,1.1,0.1,1.6C84.8,71.1,85,70.1,85.2,69.7z M172.1,35.5c-0.5,0.2-0.6,0-0.5-0.4C172.1,34.9,172.3,35,172.1,35.5z
		 M177.7,37.8c-0.3,0.1-0.8-0.3-0.7-0.6C177.4,37,177.8,37.5,177.7,37.8z M138.1,27.7c-0.1-0.8-0.4-1.6-0.1-2.3
		c0.5-0.5,1.2-0.2,1.8-0.4c0.2,0.4,0.4,0.9,0.4,1.4C139.4,26.6,138.7,27.1,138.1,27.7z M150.8,42.2c-0.3-0.5,0.6-0.6,0.6-0.1
		C151.2,42.1,151,42.2,150.8,42.2z M161,126.8c-0.9-0.7-1.8-1.3-2.6-2.1c0.3,0.5,0.8,0.9,0.8,1.5c-0.9,0.1-1.6-0.4-2.4-0.7
		c-0.3-0.6-0.8-0.9-1.3-1.1c0-0.8,0.8-1.2,0.8-2c0.4,0.4,0.8,0.8,1.3,1.1c-0.4-0.5-0.8-0.9-1.2-1.4c0.2-0.3,0.4-0.7,0.7-1
		c0.2,0.2,0.5,0.4,0.7,0.5l0.1,0.2c0.3-0.2,0.6-0.4,0.9-0.6c1.6,0.7,3.1,2,3.3,3.9c-0.5-0.4-1-0.7-1.4-1.1c0.3,0.4,0.7,0.8,1.1,1
		c0.6,0.9,0.8,1.9,0.8,2.9C161.9,127.6,161.4,127.2,161,126.8z M153.4,94.6c0,0.5,0.3,0.9,0.5,1.3c0.1,0.2,0.4,0.5,0.5,0.6
		c-0.2,0.1-0.4,0.2-0.5,0.4c0.1-0.7-0.8-1.1-0.9-1.8C153.1,94.8,153.3,94.7,153.4,94.6z M148.9,95.8c0.1-0.1,0.4-0.3,0.5-0.4
		c-0.1,0-0.4,0-0.6,0.1c-0.1-0.7,0.4-1,0.9-1.3c0.3,0.2,0.5,0.4,0.8,0.7c-0.2-0.4-0.3-0.8-0.5-1.1c0.2,0,0.5,0,0.6,0.1
		c0-0.1-0.1-0.4-0.1-0.6c1.2-0.1,1,1.3,1.6,1.9c1.2,1.4,2.4,2.8,3.6,4.2c0-0.2,0-0.6,0-0.7c0.5,0.1,0.9,0.6,1.5,0.6
		c-0.2-0.2-0.3-0.8-0.7-0.5c-0.1-0.1-0.4-0.3-0.6-0.3c-0.4-0.5-0.9-1-1.4-1.5c-0.1-0.4-0.3-0.8-0.4-1.2c0.7,0.5,1.4,1.1,2.2,1.6
		c-0.7-1.1-1.7-2-2.5-3.1c-0.3-0.3-0.2-0.9,0.4-0.8c0,0.2,0,0.5,0,0.7c0.2-0.1,0.5-0.2,0.6-0.3c0.2,0.4,0.6,0.7,0.4,1.1
		c0.1,0,0.2-0.1,0.3-0.1c0.6,0.8,1.4,1.5,1.8,2.5c0.3,0.5,0.5,1.5,1.3,1.3c0.3,0,0.5,0.4,0.7,0.6c0-0.2-0.1-0.5-0.1-0.7
		c0.5,0.3,1,0.6,1.5,1c-0.3-0.3-0.7-0.5-0.8-1c0.5,0.1,1.1,0.3,1.6,0.2c0.8,0.6,1.5,1.4,2.4,1.8c1.3,0.6,2.2,1.6,3,2.7
		c-0.2,0-0.6,0-0.7,0.1c-0.4-0.5-0.9-0.7-1.4-0.9c1.1,0.7,2.1,1.5,3.1,2.3c-0.2,0-0.6,0.1-0.8,0.1c0.2,0.2,0.3,0.4,0.5,0.6
		c0.2-0.2,0.3-0.5,0.5-0.7c0.1,1.6,2.1,2.1,2.5,3.5c0.2,0,0.5,0,0.7-0.1c0,0.1,0.1,0.3,0.1,0.4l0.4-0.2c0,0,0.1,0,0.1,0l0.4-0.1
		c0-0.1-0.1-0.4-0.2-0.5c1,0.4,2,0.6,3.1,0.9c1.4,0.3,2.8,0.6,3.9,1.5c-1.1,0.3-1.9-0.7-3-0.5c0.4,0.1,0.9,0.3,1.4,0.4
		c0.5,0.2,1.1,0.4,1.6,0.4l0,0.2c0.8,0.3,1.2,1.3,1.7,2l0-0.1c0.3,0.4,0.7,0.9,0.8,1.4c0.8,0.7,1.6,1.5,2,2.4c-0.2,0-0.6,0-0.8,0
		c0.3,0.3,0.7,0.3,1.2,0.2c0.6,0.8,1.2,1.5,1.8,2.2c0.6,0.7,1.3,1.2,2,1.8c0,0.2,0,0.7,0,0.9l-0.3,0.1c0.1-0.4,0-0.7-0.3-0.9
		c0,0.3,0.1,0.6,0.1,0.9c-1.1-0.4-2.2-0.2-3.3-0.5c0.9-0.6,1.9,0,2.9-0.1c-0.6-0.5-1.6-0.2-2.3-0.2l0.1-0.4c-0.5,0.2-1,0-1.5,0.1
		c0.3,0,0.5,0.2,0.7,0.4c-1.4,0.1-2.8-0.1-4.1-0.4c-3.1-0.5-6-2-8.8-3.3c-1.5-0.8-3-1.7-4.5-2.7c-0.4-0.2-0.8-0.4-1.3-0.5
		c0-0.1,0-0.3,0-0.4c-3.7-1.9-6-5.5-8.8-8.5c-0.7-0.9-1.7-1.5-2.2-2.5c-0.1,0-0.4-0.1-0.5-0.1c-0.7-0.8-1.4-1.5-2.1-2.4
		C150.7,98.5,149.5,97.3,148.9,95.8z M154.4,97.3c0-0.2,0.1-0.3,0.3-0.2c0.3,0.4,0.5,0.7,0.8,1.1l0,0.1
		C155,98.2,154.7,97.6,154.4,97.3z M163.1,95.3c-0.4-0.5-0.3-1.3-0.7-1.8c0.7,0.4,0.6,2,1.7,1.7l0.1,0.2c2.8,2,4.7,4.8,7.1,7.2
		c1,0.7,1.9,1.6,2.7,2.5c-0.1,0-0.4-0.1-0.5-0.1c-0.9-0.6-1.8-0.9-2.7-1.5c-1.2-0.9-2.6-1.5-3.8-2.4c-0.6-0.4-1.3-0.8-1.5-1.5
		c-0.5-0.2-0.7-0.7-0.6-1.2c-0.4-0.4-0.7-0.9-1.1-1.3C164,96.2,163.4,95.8,163.1,95.3z M170.4,97.9c-0.2-0.5-0.4-1-0.5-1.5
		c1.2,0.6,1.9,1.9,3.1,2.5c-1-0.7-1.7-1.8-2.7-2.5c-0.2-0.3-0.3-0.6-0.5-0.9c0.2-0.1,0.7-0.2,0.9-0.2c-0.4,0.7,0.4,0.9,0.8,1.2
		l0.4-0.4l-0.1,0.7l0.6-0.3c-0.1,0.5-0.1,1,0.4,1.4c0.1-0.2,0.2-0.6,0.3-0.8c1.3,0.8,2.2,2.1,3.4,3.1c0.7,0.6,1.1,1.4,1.7,2
		c1.2,1.3,2.6,2.5,3.9,3.7c1.9,1.5,3.6,3.3,5.6,4.8c-1.1,0-1.9-1.2-3-0.9c-1.5-0.4-2.8-1.4-4.3-2c-1.2-0.6-2.3-1.5-3.5-2
		c-0.8-0.1-1.5-0.3-2.2-0.6c0-0.3,0-0.8,0-1c0.4,0.3,0.8,0.7,1.3,0.9c-0.4-0.5-1-1-1.7-1c-0.1-0.2-0.3-0.5-0.3-0.7
		c-0.5-0.2-0.6-0.7-0.7-1.2c-0.1-0.1-0.3-0.4-0.4-0.5c-1.1-1-1.6-2.5-2.3-3.7c0.7,0.2,1.1,0.8,1.6,1.2l0.1-0.1
		C171.5,98.7,171.2,97.9,170.4,97.9z M165.1,100.6c-0.3,0.1-0.6-0.1-0.8-0.4c0.1-0.1,0.2-0.2,0.3-0.3
		C164.9,99.9,165.2,100.2,165.1,100.6z M148.6,102.3c-0.2,1,0.5,1.9,1,2.7c-0.4,0-0.7,0-1.1,0c0.1-0.4,0-0.8-0.3-1.1
		c-0.2,0-0.6,0-0.8,0.1C147.7,103.4,147.8,102.5,148.6,102.3z M187.9,122.5c0.4,0.1,0.8,0.1,1.2,0.2c-0.1,0.2,0.1,0.8-0.3,0.6
		c-0.6,0.7-1.6,0.5-2.5,0.3c-0.8,0-1.5-0.1-2.2-0.2c-1.8-0.1-3.6-0.8-5.4-1.1l0-0.1c-2-0.5-4-1.3-5.9-2.1c-0.3-0.2-0.5-0.1-0.7,0.1
		c4,1.8,8.3,3.1,12.6,4.1c0.9,0.1,1.7,0.1,2.6,0.1c-0.4,0.8-1.5,0.6-2.3,0.6c-0.1,0-0.4,0.1-0.5,0.2c0.6,0,1.5-0.2,1.7,0.6
		c-0.3,0-0.9,0-1.2,0c0.1,0.1,0.3,0.4,0.5,0.5c-0.7,0.7-1.7,0.5-2.6,0.7c-1.2,0.1-2.5-0.3-3.8-0.2c-3.2-0.8-6.5-1.2-9.4-2.9
		c-1.1-0.3-2.2-1-3.3-1.4c-2.9-2-5.9-3.9-8.7-6c-1.2-1.3-2.6-2.5-3.9-3.7c0.3,0,0.6,0.1,0.9,0.1c0.5,0.6,1,1.4,1.8,1.6
		c-1-0.9-1.8-1.9-2.7-2.7c0.2,0.3,0.3,0.7,0,1c-0.7-1.5-2.3-2.2-3.1-3.6c-1-1.8-2.3-3.4-3.3-5.2l0.9,0l-0.1,0.3l0.3,0
		c-0.3,0.7,0.4,1.3,0.7,1.8c0.2-0.3,0.4-0.7,0.5-1.1c1.7,2.3,3.5,4.5,5.2,6.8c1.2,1.3,2.5,2.5,3.8,3.7c0.4,0.4,0.9,0.6,1.4,0.8
		c-0.4-0.5-0.8-0.8-1.3-1.1c-0.9-0.6-1.4-1.5-2.3-2c0.3-0.2,0.5-0.3,0.8-0.5c-0.9-0.9-1.8-1.9-2.7-2.8c0.6,0.9,1.4,1.7,2.2,2.5
		c-0.2,0.1-0.4,0.3-0.6,0.4c-1.2-1.3-2.2-2.7-3.3-4.1c-0.9-0.9-1.4-2.1-2.3-2.9c-0.6-1.2-1.7-2.3-1.7-3.7c0.9,0.4,1.6,1.2,1.9,2.2
		c0.5,0.5,1,1.2,1.5,1.7c-0.4-0.6-0.8-1.1-1.1-1.7c0.1-0.1,0.4-0.3,0.5-0.4c0-0.2-0.1-0.7-0.1-0.9c0.2,0,0.5,0,0.7,0.1
		c-0.2,0.9,0.7,1.4,0.9,2.2c1.6,1.7,3,3.7,4.8,5.3c-0.2-1-1.3-1.5-2-2.3c-1-1.3-2.3-2.4-3.1-3.9l-0.1,0c-0.1-0.1-0.4-0.4-0.5-0.6
		c0-0.2,0.1-0.5,0.1-0.6c-0.3-0.3-0.6-0.7-1-1.1c0.1-0.5,0.2-1.1,0.3-1.6c0.2,0.2,0.4,0.5,0.6,0.7c-0.1,0.1-0.3,0.2-0.4,0.2
		c0.3,1,1.2,1.6,2,2.2c-0.6-0.6-1.1-1.1-1.7-1.7c0.2-0.1,0.3-0.3,0.5-0.4c0.9,1.5,2.5,2.5,3.5,3.9c0.8,0.9,1.8,1.7,2.5,2.7
		c1.2,1.2,2.1,2.5,3.4,3.6c0.8,0.6,1.5,1.4,2.4,2c2.4,1.7,4.8,3.6,7.7,4.5c0.8,0.5,1.6,0.6,2.4,0.9l0.1,0.6l-0.8,0l0.2-0.5
		c-0.1,0.5-0.6,0.3-1,0.3c-0.3-0.3-0.8-0.3-1.2-0.3c0.3,0.1,0.5,0.1,0.8,0.2c0.5,0.6,1.3,0.4,2,0.5c0.1,0.1,0.4,0.3,0.5,0.4
		c-0.2-0.3-0.5-0.6-0.6-1c1.3,0.2,2.3,1.1,3.6,1.2c0.4,0.1,0.9,0.2,1.3,0.2c0.7,0.1,1.4,0.3,2.2,0.3c1.8,0.1,3.4,0.9,5.2,0.8l0,0.4
		c0.1-0.1,0.2-0.4,0.2-0.5c0.1,0.1,0.3,0.4,0.4,0.5l-0.1-0.4c1,0.1,2,0,3,0C190.2,123,188.7,122.4,187.9,122.5z M194.8,117.7
		c-1.5-0.4-3-0.7-4.5-0.9c-0.3-0.1-0.6-0.1-0.9-0.1c1.6,0.6,3.3,0.7,5,1.2l0.1,0.4c-1.9,0.1-3.8-0.2-5.5-0.7c-0.2,0-0.5,0-0.7,0
		c0-0.2,0-0.4-0.1-0.6c0,0.3,0,0.5-0.1,0.8c0.8,0.2,1.7,0.6,2.5,0.9c0.8-0.1,1.7,0.3,2.5,0.3c0.2,0.1,0.3,0.2,0.5,0.3
		c-0.4,0.2-0.6,0.5-0.9,0.9c-1.4,0.1-2.7-0.2-4-0.4c0.5,0.3,1,0.6,1.5,0.8l0.2-0.1c0.4,0.1,0.7,0.2,1.1,0.2c0,0.4-0.2,0.7-0.5,0.9
		l-0.1-0.5c0,0.1,0,0.3,0,0.4c-0.5,0.1-1,0-1.4-0.2c-0.3,0.2-1.7,0.2-1.1-0.3c0-0.1,0.1-0.4,0.2-0.5c-0.6-0.8-1.3-1.5-1.7-2.4
		c-1.2-1.7-2.8-3.2-3.6-5.1c1.2-0.3,2.4,0.2,3.6-0.2c1.1,1,2.5,1.2,3.8,1.7c0.3,0.1,0.6,0.1,1,0.2c0,0.2,0,0.6,0,0.7
		c0.4,0.1,0.9,0.1,1,0.7c-0.4,0-0.9,0-1.3,0c-0.6-0.2-1.2-0.2-1.8-0.4c-0.8,0-1.5-0.6-2.3-0.4c1.1,0.6,2.5,0.6,3.7,1
		c0.7,0.2,1.5,0.2,2.2,0.2c0.4,0.3,0.8,0.5,1.2,0.7C194.6,116.9,195.3,117.4,194.8,117.7z M195.4,116.3c0.1,0.5-0.1,0.8-0.5,0.8
		c0.1-0.9-0.6-1.7-0.7-2.6c0.9,0,1.7,0.2,2.4,0.7C196.2,115.6,196.1,116.3,195.4,116.3z M197,114.8c-0.9-0.4-1.9-0.9-3-0.8
		c-0.6,0.8,0,1.8,0.5,2.4c-0.9,0-1.5-0.8-1.9-1.5c-1-1.1-2.5-1.4-3.9-1.6l0.1-0.2c-0.7,0-1.2-0.6-1.8-0.8c-1.2,0-2.5,0-3.7,0
		c-0.3,0-0.5,0.4-0.4,0.7c0.9,1.9,2.6,3.4,3.5,5.4c-1-0.8-1.5-2-2.4-2.9c-1.4-1.4-2.3-3.1-3.6-4.6c-0.4-0.6-1.2-1.1-1-1.9
		c0,0-0.1,0-0.2,0l0.1,0.6c-1.4-1.1-3.1-1.3-4.8-1.7c-1-0.2-2.2-1.3-3.2-0.4c-1.2-0.8-2.3-1.7-3-3c-0.7-1.5-1.9-2.6-2.9-3.8
		c1.3,0.7,2.5,1.6,3.6,2.7c1.6,1.1,3.3,2.1,5.2,2.5c1.3,0.3,2.4,1.1,3.7,1.4c2,0.9,3.9,2,5.9,2.9c2.2,1.5,5,1.4,7.5,2
		c2.4,0.2,4.6,0.9,7,0.8C197.9,113.6,197.4,114.2,197,114.8z M201.8,104.2c-0.1,0.6-0.7,0.4-1.1,0.5c0.7,0,1.4,0,2,0
		c-0.2,0.4-0.4,0.9-0.6,1.3c-1-0.2-2-0.8-3-0.7c1,0.1,1.9,0.5,2.8,0.8c-0.1,0.8-0.8,1.4-1,2.3c-0.4-1-1.5-1.4-2.3-2.2
		c-1.1-1.1-2.6-1.7-3.8-2.7c-0.7-0.9-1.8-1.2-2.4-2.1c0.3,0.1,0.7,0.3,1,0.4c0.1-0.1,0.2-0.3,0.2-0.5c-0.6,0.4-1.2-0.3-1.7-0.6
		c-0.2-0.8,0.5-0.2,0.8,0c0.4-0.3,0.9-0.3,1.4-0.2c1.8,0.5,3.8,0.5,5.5,1.6c1.2,0.7,2.6,1,3.5,2
		C202.7,104.5,202.2,104.3,201.8,104.2z M184.3,97.3c0.7,0.2,1.5,0.5,2.2,0.5c2.4,0.7,4.9,1.2,7.4,1c3.4,0.1,6.8,0.3,10.1-0.5
		c0.6-0.2,1.2-0.4,1.9-0.5c-1.2,1.9-1.6,4.1-2.6,6c-1.4-0.9-2.9-1.6-4.3-2.3c-1.2-0.3-2.4-0.8-3.7-0.9c-0.9-0.1-1.6-0.5-2.5-0.6
		c-0.5,0-1.1,0.1-1.6,0.1c0.1,1.1,1,1.9,1.7,2.6c1.2,0.9,2.1,2,3.3,2.9c1.6,0.8,3.1,1.9,4.4,3.1c0.2,0.7-0.5,1.3-0.9,1.8
		c-0.1,0.1-0.3,0.3-0.4,0.4l-0.3-0.1c-0.6-0.1-1.3-0.1-1.9-0.2c0.1,0.1,0.2,0.4,0.3,0.6c-0.2,0-0.6-0.1-0.8-0.2
		c-0.7-0.2-1.4-0.3-2-0.5c0.2-0.1,0.7-0.3,0.9-0.4c-1.3-0.6-2.7-1-4.1-1.5c0.6,0.7,1.8,0.7,2.1,1.7c-0.3-0.1-0.8-0.3-1.1-0.4
		c-0.1,0.1-0.2,0.1-0.2,0.2c2.3,0.6,4.6,1.3,6.9,1.6c-0.1-0.2-0.4-0.5-0.6-0.7c0.2,0.1,0.6,0.2,0.8,0.2c-0.1,0.2-0.2,0.4-0.3,0.6
		c-0.1,0.2-0.2,0.5-0.3,0.7c-0.3,0-0.7,0-1,0c-0.7-0.1-1.4-0.4-2.1-0.1c0.1-0.3,0.2-0.5,0.3-0.8c0.4,0.1,0.8,0.2,1.2,0.1
		c-0.8-0.2-1.5-0.4-2.3-0.3c0.2,0.1,1,0.3,0.5,0.5c-0.6,0.2-1.2-0.1-1.8-0.2c-1.1-0.3-2.2-0.2-3.3-0.5c-0.1-0.3-0.2-0.5-0.3-0.8
		c-1.7-1.5-3.7-2.6-5.3-4.3c-1.3-1.4-2.9-2.5-4.3-3.8c0.1-0.1,0.4-0.2,0.6-0.3l-0.6,0.2l0.2-0.5l-0.5,0.1l0.2-0.4
		c-0.9-0.1-1.4-1.2-1.8-2c0.1,0,0.3,0.1,0.5,0.1c2.1,1.4,4.3,2.6,6.4,3.9c0,0.1,0,0.4-0.1,0.5c0.8-0.3,1.4,0.4,2,0.8
		c1.1,0.4,2.1,1,3.1,1.5l0,0c1,0.6,2.2,0.9,3.2,1.6c0.5,0.3,1,0.4,1.6,0.4c-0.9-0.7-1.9-1.3-2.8-2c-1.1-0.8-2.3-1.3-3.5-1.9
		c-1-0.6-2.1-1.3-3.1-1.9c-2.1-1.1-4.1-2.6-5.9-4.1c0.4-0.2,0.9,0,1.3,0.1c-0.3-0.2-0.6-0.5-0.9-0.8c1.1,0.2,2,0.9,2.9,1.6
		c0-0.1-0.1-0.2-0.1-0.3c-0.9-0.5-1.8-1.1-2.5-1.8c0.5,0,1,0.1,1.5,0.3c0.4,0.1,1-0.1,1.3,0.3c2.1,1,4.1,2.2,5.9,3.6
		c0.5,0.3,1,0.6,1.3,1c1.2,0.7,2.4,1.3,3.4,2.3c0.9,0.9,2.1,1.4,3.1,2.2c0.5,0.3,0.9,0.8,1.3,1.2c0.3,0.2,0.6,0.4,0.9,0.5
		c0.2,0.2,0.5,0.3,0.7,0.6l0.4,0.1l0-0.4c-1.2-0.9-2.4-1.8-3.5-2.9c-1.9-1.1-3.6-2.7-5.5-3.8c-1.2-1-2.7-1.7-3.8-2.8
		c-1.3-0.9-2.7-1.6-4-2.5c-1-0.1-2.1-0.3-3.1-0.7c-1-0.5-2.4-0.2-3,0.8c0.2,0.3,0.4,0.6,0.7,0.8c2.3,1.3,4,3.2,6.3,4.5
		c0.7,0.3,1.3,0.8,2,1.1c1.1,0.6,2.2,1.2,3.2,2c-4-1.8-7.4-4.6-11.3-6.7c-0.2-0.1-0.5-0.1-0.7-0.2c0,1.9,1.6,3.3,2.8,4.7
		c1.8,1.4,3.5,3,5.2,4.6c1.3,1,2.8,1.8,3.8,3.1c-1.7-0.6-2.9-2.1-4.3-3.1c-0.8-0.5-1.4-1.2-2.1-1.8c-1.6-1.5-3.4-2.8-4.9-4.5
		c-1.1-1.6-2.6-2.8-4-4.2c-1.1-0.9-2.5-1.6-3.3-2.9c-0.6,0-1.1-0.1-1.7,0c-0.1,2,0.9,3.8,1.9,5.5c0.5,1.1,1.4,2,2,3.1
		c-1-0.6-1.7-1.4-2.5-2.3c-0.9-1-1.9-1.9-2.7-3c-1.2-1.1-2.2-2.3-3.5-3.2c-1-0.8-1.5-2.1-2.7-2.7c0.4,2.7,2,5,3.3,7.3
		c-1.9-1.4-3.8-3.1-5-5.2c-1.5-1.9-3.1-3.8-4.8-5.6c-0.8-0.7-1.2-1.8-1.9-2.6c-1.4-1.5-2.5-3.3-3.3-5.1c1.9,1.4,4.1,2.3,6.4,3
		c1.8,0.7,3.8,1,5.5,2.1c1.7,1.4,3,3.2,4.8,4.4c0.8,0.5,1.3,1.4,2.4,1.6c1.5,0.3,2.7,1.3,4.2,1.6c1.4,0.2,2.8,0.7,4.2,0.9
		c0.8,0.1,1.6,0.2,2.3,0.7C180.9,96.1,182.6,96.9,184.3,97.3z M194.4,110.3c-0.3,0.2-0.9,0.1-1-0.3
		C193.7,109.8,194.3,109.9,194.4,110.3z M180.1,97.4c0.3,0.6-0.2,0.9-0.6,1.1c-0.2-0.7-1.3-0.6-1.5-1.5c0.2,0,0.6,0,0.8,0.1l0,0.4
		c0.2-0.1,0.5-0.4,0.7-0.5l-0.2,0.9L180.1,97.4z M184.3,95.6l0-0.2c0.1,0,0.4,0,0.5,0l0,0.2C184.7,95.6,184.5,95.6,184.3,95.6z
		 M193.3,95.5l0.3-0.5l0.5-0.2c-0.2,0-0.5,0.1-0.7,0.1c0.3-0.6-0.2-1.1-0.4-1.6c0.2-0.5,0.6,0,0.8,0.3c0.5,0.5,0.8,1.2,1.3,1.7
		C194.6,95.4,193.9,95.4,193.3,95.5z"/>
	<path class="st0" d="M159.1,32.8c-0.3,0.7-0.7,1.4-1.2,2c-0.3,0.2-0.1,0.8,0.3,0.6c0.4-1,0.7-2.5,1.9-2.7c0.7,0.6,1.1,1.6,1.8,2.2
		c0-0.1,0.1-0.3,0.1-0.3c-0.7-0.7-1.1-1.5-1.8-2.2C159.9,32.6,159.5,32.7,159.1,32.8z"/>
	<path class="st0" d="M156.4,37c0.3,0.2,0.6,0.5,0.8,0.7c0.3-0.2,0-0.5,0-0.7c0-0.2,0-0.7,0-0.9c-0.1,0.3-0.2,0.6-0.3,0.9
		c-0.9-0.4-2.1-0.1-2.4,0.9c0.1,0.1,0.3,0.3,0.5,0.4c0.7,0.1,1.3,0.6,1.6,1.3c0.2,0.7,0.1,1.4,0.2,2.1c0.9-0.5,1.1-1.5,1.2-2.5
		c-0.2,0.6-0.4,1.2-0.8,1.7c-0.1-1.3-0.7-2.7-2.2-2.9C154.9,37.3,155.8,37,156.4,37z"/>
	<path class="st0" d="M165.1,40.3c0.2,0.2,0.4,0.4,0.6,0.6c0.2,0.8,0.2,2-0.7,2.2c0.1-0.9-0.1-2.4-1.3-2.5c-0.9-0.2-1.5,0.8-2.3,0.5
		c-0.1-0.7,0.3-1.4,0.2-2.1c-0.4-0.3-0.8-0.7-1.4-0.7c0.3,0.3,0.7,0.6,1.1,0.9c0.2,0.8-0.3,1.6-0.1,2.4c0.9-0.1,1.7-0.6,2.5-0.9
		c0.7,0.4,0.9,1.2,1,1.9c-0.1,0.4-0.1,0.7-0.2,1.1c1.7-0.2,2-2.5,0.9-3.5c0-0.4,0.1-0.9,0.2-1.3C165.4,39.4,165.3,39.9,165.1,40.3z"
		/>
	<path class="st0" d="M140.2,62.5c-0.4,1.4,0.6,2.8,1.1,4C141.2,65.2,140.5,63.9,140.2,62.5z"/>
	<path class="st0" d="M207.6,91c0.2-0.4-0.4-0.9-0.8-0.7C206.8,90.7,207.3,91.1,207.6,91z"/>
	<path class="st0" d="M190.2,96.8c0.1,0.1,0.2,0.2,0.2,0.3c1.2-0.1,2.4,0.5,3.5,0.1C192.6,97.3,191.4,96.4,190.2,96.8z"/>
	<path class="st0" d="M183.3,104.2c-0.3-0.2-0.6-0.5-0.7-0.9c0,0.1-0.1,0.2-0.1,0.4c1.8,1.8,4.1,3,6.4,4.2c0-0.2,0-0.4,0-0.6
		C186.9,106.4,185.1,105.4,183.3,104.2z"/>
	<path class="st0" d="M150.8,107.7c0.1,0.3,0.3,0.6,0.4,0.9c-0.1,0-0.3,0.1-0.4,0.1c0.4,0.3,0.8,0.8,1.1,1.3c0-0.2-0.1-0.5-0.1-0.7
		C151.1,108.9,151.4,108,150.8,107.7z"/>
	<path class="st0" d="M165.2,119.8c0.1-0.1,0.4-0.4,0.5-0.5c-0.2,0.1-0.5,0.2-0.7,0.3c-0.7-0.6-1.4-1.1-2.3-1.4
		c-0.9-0.3-1.4-1.3-2.2-1.8c0.8,0.7,1.5,1.6,2.5,2c1,1.2,2.5,1.8,3.9,2.2l-0.1-0.3C166.2,120.2,165.7,120,165.2,119.8z"/>
	<path class="st0" d="M130.6,41.6h-0.2c0,1.3-0.4,2.5-0.3,3.8c0.5-2.1,0.5-4.4,1.6-6.3c0.5-0.7,0.6-1.6,1.1-2.3
		c0.6-0.8,1.2-1.5,1.7-2.4c-0.1,0.1-0.3,0.2-0.5,0.2c-1,1.1-1.8,2.4-2.2,3.8C131.4,39.5,130.7,40.4,130.6,41.6z"/>
	<path class="st0" d="M142.4,50.1c0-0.1-0.1-0.3-0.2-0.5c0.1,1.2-1,2.2-0.6,3.5c0.1,0,0.2,0,0.2,0C141.8,52.2,142.2,51.2,142.4,50.1
		z"/>
	<path class="st0" d="M167.1,106.1c0.8,0.3,1.4,1,2.2,1.2c-0.6-0.7-1.5-1.1-2.3-1.6c-1.3-0.9-2.7-1.7-3.9-2.9
		C164.2,104.2,165.6,105.3,167.1,106.1z"/>
	<path class="st0" d="M127.6,107.9c-0.4,0.4-0.4,0.9-0.5,1.5c-0.3,1.1-0.2,2.5-1.4,3.2c0.2-0.6-0.1-1.2-0.4-1.7
		c-0.3,0.5-0.7,1-1.2,1.3c-0.2-0.9-0.5-2.2-1.5-2.5c0.2-0.8,0.1-1.7,0-2.5c0.2-0.4,0.7-0.8,0.5-1.4c-0.2,0.1-0.4,0.3-0.7,0.4
		c-0.1,1.3,0,2.6-0.1,3.9c0.1,0,0.4,0,0.5,0c0.5,0.8,0.9,1.7,1.2,2.6c0.5-0.4,0.8-0.9,1-1.5c0.7,0.2,0.4,1.2,0.5,1.7
		c0.1,0,0.3,0,0.4,0C127.4,111.6,127.3,109.7,127.6,107.9z"/>
	<path class="st0" d="M163.6,36.2c-0.5,0-1.1-0.1-1.6,0.1c-0.6,0.2-0.8,0.9-1.3,1.2c0.2-1,0.7-2.8-0.6-3.1c0.2,0.2,0.4,0.4,0.5,0.6
		c0.3,1.1-0.3,2-0.5,3.1c0.7-0.4,1.3-0.8,1.7-1.5c0.3-0.1,0.7-0.1,1-0.2c0.3,0.1,0.6,0.2,0.9,0.3c0.4,0.7,0.4,1.4,0.3,2.2
		c0.4-0.2,0.8-0.5,1.2-0.7c0-0.4,0.1-0.9-0.1-1.3c0,0.4,0,0.8,0,1.2c-0.2,0-0.6,0-0.7,0.1C164.6,37.4,164.1,36.8,163.6,36.2z"/>
	<path class="st0" d="M110.6,68.4L110.6,68.4c-0.1,0.1-0.2,0.4-0.2,0.5c0.6,0.3,1.4,0.4,1.7,1.1c0.4,0.1,0.7,0.2,1.1,0.4
		c0.3-0.1,0.6-0.2,0.9-0.2c-0.1,0.9-0.2,1.7-0.3,2.6c0.5,0.1,1,0.1,1.5,0.2c0.1,0.2,0.2,0.7,0.3,0.9c-0.2,0.6-0.5,1.2-0.8,1.7
		c0.4,0.3,1,0.5,1.5,0.3c0.6-0.6,0.9-1.5,1.5-2c1,0.4,1.8,1.1,2.4,2c0.2,0.6,0.3,1.1,0.5,1.7c1-1.1,0.6-2.7,0.5-4
		c0.4,0.4,0.8,0.8,1.1,1.2c-0.7-1.1-1.8-2-2.1-3.4c0.2-0.4,0.3-0.9,0.6-1.2c0.3-0.1,0.6-0.2,1-0.2c0.7,1.3,0.8,2.8,0.8,4.2
		c0.1,0,0.4-0.1,0.5-0.1c0.7-1.4,0.5-3,0-4.4c0.3-0.2,0.5-0.4,0.8-0.6c0-0.8,0.3-1.4,0.7-2.1c0.6,0.2,0.9,0.7,1.3,1.1
		c0.4-0.2,0.4-0.8,0.4-1.2c-0.1-0.5,0.2-1.2-0.4-1.6c-0.3-0.3-0.5,0.3-0.7,0.5c-0.7-0.6-1.7-0.4-2.5-0.1c-0.4-0.8-1.1-1.4-1.4-2.2
		c0.4,0.1,0.7,0.3,1.1,0.5c0.3-0.2,0.5-0.4,0.8-0.6c-0.4-0.9-0.9-1.8-1.3-2.8c0.8-0.7,0.8-2,1.6-2.6c0,0.2,0.1,0.7,0.1,1
		c0-0.2,0-0.7,0.1-1c0.4,0.2,0.6,0.5,0.6,1c0.1,0,0.4,0.1,0.5,0.1c0.2-0.3,0.5-0.6,0.7-0.9c-0.1,0.9-0.2,1.8-0.3,2.7
		c0.5,0,1-0.1,1.5-0.4c0.2,0.6,0.5,1.2,0.7,1.8c-0.1-0.8-0.5-1.6-0.3-2.4c0.7,0.6,0.7,1.6,1,2.5c0.7,2.1,1.7,4.2,3.3,5.8
		c-1.2-1.9-2.3-3.8-3.1-5.8c0.3,0,0.9,0.1,1.2,0.2c0.2,0.3,0.3,0.6,0.5,0.9c-0.1-0.4-0.2-0.7-0.3-1.1l0.6,0
		c-0.2-0.2-0.4-0.3-0.6-0.5c-0.3,0-0.8,0.1-1.1,0.1c-0.2-0.7-0.4-1.4-0.6-2c0.2,0,0.7-0.1,0.9-0.2c-1.1-0.4-2.2-0.1-3.1,0.6
		c0.3-1.1,0.3-2.1-0.2-3.1c0.3-0.9,0.5-1.8,0.4-2.7c-0.2,1.1-0.4,2.2-0.9,3.3c-0.1-0.1-0.3-0.4-0.4-0.5c-0.7,0.1-1.5,0.2-2.2,0.3
		c0.1,0.8-0.1,1.8-0.9,2.2c-0.2-0.5-0.3-0.9-0.5-1.4c-0.7,0-1.6,0-1.9,0.8c-0.3,0.5-0.3,1.6-1.1,1.1c0-0.3,0.1-0.6,0.1-0.9
		c-0.4-0.5-0.7-1.1-0.9-1.7c0,0.6-0.4,1-0.8,1.2c0-0.7,0-1.4-0.1-2.1c0,0.2-0.1,0.6-0.1,0.9c-1.2,0-1.4-1.3-1.5-2.3
		c-0.1,0.9,0.4,2.1-0.5,2.6c0-0.4,0-0.8,0-1.3c-0.3-0.3-0.6-0.6-0.8-0.9c-0.5,0-1,0-1.4,0c-0.4,0.5-0.7,1.1-1.1,1.7
		c-0.6,0.2-0.6-0.8-1.1-0.9c0.2,0.4,0.2,1.4,0.9,1.3c0.7-0.3,0.9-1.1,1.2-1.7c0.6,0,1.4-0.4,1.8,0.2c0.4,0.4,0.2,1.1,0.3,1.6
		c-0.2,0.3-0.4,0.5-0.6,0.8c0.2,1,0.2,2.2,0.8,3c0.8,1.2,2.5,1.6,3.8,1.2c1-0.3,1.9-1.2,3.1-0.9c0.4,0.3,0.7,0.6,1,0.9
		c-0.4,0-0.9,0-1.3,0c0,0.4,0,0.8-0.1,1.1c-0.3,0.2-0.7,0.4-1,0.6c0.5-0.1,1-0.1,1.5-0.2c0.3,0.4,0.6,0.8,0.8,1.2
		c-0.2,0-0.5,0.1-0.7,0.1c0.3,0.4,0.6,0.9,1,1.1c-0.1-0.3-0.1-0.6-0.2-0.9c0.6-0.1,1.2-0.3,1.8-0.4c0.6,0,1,0.4,1.4,0.8
		c-0.3,0-0.8,0-1.1,0c-0.9,0.6-0.7,1.8-1.3,2.5c0-0.4-0.1-0.8-0.1-1.2c-0.5-0.3-1.2,0-1.1,0.7c0.3,1.1,1.4,2.1,0.9,3.3
		c-0.1-0.5-0.3-1.1-0.4-1.6c-0.3-0.3-0.5-0.6-0.8-0.8c-0.9,0-1.9,0.7-1.9,1.7c0,1.5,1,2.8,1,4.4c-0.9-1-2-1.7-3.3-2.1
		c-0.6,0.8-0.9,2-2,2.2c0.3-0.9,1-1.8,0.3-2.7c-0.3-0.6-1-0.4-1.6-0.4c0.1-0.7,0.3-1.3,0.4-2c-0.3-0.4-0.5-0.9-0.8-1.3
		c-0.1,0.3-0.3,0.7-0.4,1c-0.7-0.3-0.9-1.1-1.3-1.7c0.1-0.1,0.3-0.3,0.4-0.4C111.8,68.2,111.2,69.2,110.6,68.4z M120.9,61.4
		c-1.3,0.1-2.4,0.9-3.7,1.3c-0.9,0.1-2-0.1-2.5-1c-0.6-0.9-0.4-2-0.7-3l0.4,0.1c0,0.1,0.1,0.3,0.2,0.4c0-0.2-0.1-0.7-0.1-1
		c0.2,0.1,0.5,0.3,0.7,0.4c0-0.2-0.1-0.5-0.1-0.7c0.4,0,0.8,0.1,1,0.5c-0.1,0.4-0.5,0.7-0.4,1.2c0.2,0,0.5,0.1,0.7,0.2
		c0.2,0.9,0.9,1.5,1.3,2.3c-0.2-0.9-0.6-1.7-0.9-2.5c0.1-0.1,0.3-0.3,0.5-0.4c0.2,0.7,0.4,1.3,0.8,1.9c0.2,0,0.7,0,0.9,0
		c0.4-0.3,0.9-1.5,1.4-0.7c0.1-0.1,0.2-0.2,0.2-0.3l-0.5,0c0.1-0.2,0.4-0.6,0.6-0.8c0.8,0.3,0.3,1.1,0.1,1.6c0.2,0,0.7,0,0.9,0
		c0.3,0.6,0.5,1.2,0.6,1.8C121.8,62.2,121.4,61.7,120.9,61.4z"/>
	<path class="st0" d="M196.4,95c-0.2-0.5-0.6-0.9-1.1-1.1C195.6,94.3,195.8,95,196.4,95z"/>
	<path class="st0" d="M143,96.7c0.7,0.4,0.9,1.3,1.7,1.6c0.5-1.2-0.5-2.1-0.7-3.2c-0.1,0-0.2,0-0.3-0.1c0,0.2,0,0.5,0,0.7
		c0.1,0.1,0.4,0.4,0.5,0.5c0.1,0.5,0.2,1.1,0.3,1.6c-0.5-0.5-0.9-0.9-1.4-1.4c-0.2,0.1-0.6,0.1-0.7,0.2c-0.2,0.9-0.2,1.8-0.3,2.7
		c-0.6-0.3-0.7-1.3-1.5-1.3c-0.7-0.2-1.3,0.6-1.9,0.1c-0.3-0.2-0.5-0.5-0.7-0.8c0,0.3,0.1,0.5,0.1,0.8c0.3,0.2,0.7,0.4,1.1,0.5
		c0.5-0.1,1-0.3,1.5-0.5c0.6,0.6,1.2,1.4,1.3,2.3c0.9-0.8,0.6-2.3,0.7-3.4C142.7,96.9,142.9,96.8,143,96.7z"/>
	<path class="st0" d="M142.2,104.7c0-0.9-0.1-1.8-0.4-2.7c-0.2-0.6-1.2-1.1-1.6-0.3c0.2,0,0.7,0.1,0.9,0.1
		C142,102.5,141.7,103.8,142.2,104.7z"/>
	<path class="st0" d="M168.5,39c-0.6,0-1.1,0-1.7,0c0.5,0.4,1.2,0.2,1.8,0.3c0.1,0.5,0.2,1,0.4,1.5c1.2-0.6,0.8-2.2,0.7-3.3
		c0.8-0.2,1.1,0.5,1.3,1.1c0.4-0.4,0.6-0.9,0.9-1.3c-0.1-0.4-0.1-0.9-0.5-1c0.1,0.2,0.2,0.5,0.3,0.7c-0.1,0.3-0.2,0.7-0.5,1
		c-0.4-0.7-1.2-0.9-1.9-0.4c0.5,0.8,0.3,1.8,0.3,2.7C169,40,168.8,39.5,168.5,39z"/>
	<path class="st0" d="M138.5,64.6c0.2,0.3,0.3,0.8,0.7,0.8c-0.5-1-0.9-2-1.3-3.1C138,63.1,138.1,63.9,138.5,64.6z"/>
	<path class="st0" d="M87.7,73.6c0,1.2,0.1,2.3,0.4,3.5c0.8,2,1.1,4.2,2.2,6.1c-0.2-1.5-1.1-2.7-1.3-4.2
		C88.3,77.2,88,75.4,87.7,73.6z"/>
	<path class="st0" d="M99.4,77.8c-0.1-1-0.9-1.8-1.3-2.8C98.3,76,98.7,77,99.4,77.8z"/>
	<path class="st0" d="M98,82.6c-0.6-1.8-1.9-3.2-2.3-5.1C95.8,79.4,96.9,81.1,98,82.6z"/>
	<path class="st0" d="M105.7,81.7c0.1,0.1,0.3,0.3,0.3,0.4c0.2,1,0.9,1.8,1.7,2.4c-0.3-0.6-0.8-1.2-1.3-1.7
		C106.3,82.4,106.2,81.9,105.7,81.7z"/>
	<path class="st0" d="M187.3,92.5c-0.3,0.2-0.6,0.6-0.4,1C187.4,93.8,188,92.3,187.3,92.5z"/>
	<path class="st0" d="M173.4,109.9c0.1,0.1,0.3,0.3,0.4,0.5c0.3,0.1,0.5,0.2,0.8,0.3c0.9,1,2.4,1.2,3.6,1.6c0.7,0.1,1.5,0.7,2.2,0.4
		c0-0.1,0-0.2-0.1-0.3C177.9,111.8,175.5,111.2,173.4,109.9c-0.2,0-0.6-0.1-0.8-0.1l0.1-0.4c-0.2,0.1-0.5,0.4-0.7,0.2
		c-0.8-0.3-1.7-0.7-2.5-1C170.5,109.4,171.9,110,173.4,109.9z"/>
	<path class="st0" d="M135.2,127.4c-0.3-0.6-0.5-1.2-1-1.7C134.2,126.4,134.7,127,135.2,127.4z"/>
	<path class="st0" d="M155.1,129.5c1.2,0.8,1.8,2.5,3.3,2.7c-1-0.9-2.1-1.6-3-2.6C155.3,129.5,155.2,129.5,155.1,129.5z"/>
	<path class="st0" d="M125.1,133.2c0-0.4-0.3-0.8-0.6-1.2C124,132.2,124.6,133.4,125.1,133.2z"/>
	<path class="st0" d="M159.9,42.4c0-0.3,0-0.6,0-0.9c-0.3,0.5-0.2,1.2-0.8,1.5c-0.2-0.7-0.1-1.8-0.9-1.9c0.9,0.5,0.7,1.7,0.6,2.6
		C159.2,43.2,159.5,42.8,159.9,42.4z"/>
	<path class="st0" d="M194.2,82.5c0.1-0.4-0.3-0.9-0.6-1.1c-0.1,0-0.2,0.1-0.3,0.1c0,0.1,0.1,0.2,0.1,0.3
		C193.6,82.1,193.8,82.5,194.2,82.5z"/>
	<path class="st0" d="M200.4,106.7c0.1,0.1,0.2,0.4,0.3,0.6C201.1,107.3,200.8,106.4,200.4,106.7z"/>
	<path class="st0" d="M122.2,130.7C122.2,130.7,122.2,130.7,122.2,130.7C122.2,130.7,122.2,130.7,122.2,130.7
		C122.2,130.7,122.2,130.7,122.2,130.7z"/>
	<path class="st0" d="M123.7,132.6c-0.6-0.6-0.9-1.4-1.4-2c0.3,0.8,0.8,1.5,1.3,2.1L123.7,132.6z"/>
	<path class="st0" d="M129.5,54.4c0,0.5-0.1,0.9-0.1,1.4c-0.6-0.2-0.8-0.9-1.2-1.4c0,0.6,0.4,1,0.7,1.4c0,0.2,0,0.7,0,0.9
		C129.6,56.1,129.6,55.2,129.5,54.4z"/>
	<path class="st0" d="M136.8,63.9c-0.4-0.1-0.8-0.1-1.2,0c0.2,0.4,0.4,0.9,0.7,1.3C136.6,64.7,136.8,64.3,136.8,63.9z"/>
	<path class="st0" d="M133.6,97.3c0.6-1.2,0.2-2.6,1.1-3.6c-1,0.3-0.6,1.7-1.2,2.4c-0.4-0.6-0.5-1.2-0.6-1.9c0.6,0,0.8-0.5,1.1-0.9
		l-0.1,0c-0.2,0.4-0.6,0.7-1,0.9c0.1-0.7,0-1.5-0.4-2.1c0.1,0.9,0.5,1.7,0.4,2.6c0.2,0.6,0.4,1.2,0.6,1.7l0.1,0.1
		c0.1,0.4-0.3,0.7-0.3,1.1C133.2,97.4,133.5,97.3,133.6,97.3z"/>
	<path class="st0" d="M158.2,102.1c1.3,1.4,2.6,2.7,4.3,3.6c1.2,1.1,2.4,2.1,4,2.5c-1.8-1-3.4-2.4-5.1-3.5c-1.3-0.9-2.1-2.1-3.3-3.1
		c-0.7-0.6-1.3-1.3-1.9-2C156.4,100.7,157.4,101.4,158.2,102.1z"/>
	<path class="st0" d="M110.5,110.4c0.5-0.4,0.9,0.3,1.2,0.6c0.4,0.6,0.6,1.3,0.6,2.1c0.5,0,0.8-0.4,1.1-0.8c0-0.3,0-0.7-0.1-1
		c-0.1-0.5-0.2-1.1-0.6-1.5c0.2,0,0.6-0.1,0.9-0.2c0-0.8-0.5-1.4-1.1-1.9c0.2,0.5,0.8,1,0.8,1.6c-0.2,0-0.6,0-0.8,0
		c0,0.1,0.1,0.3,0.1,0.4c-0.1,0-0.4,0.1-0.5,0.1c0.1,0,0.4,0,0.5,0c0.1,0.2,0.3,0.5,0.4,0.7c0.1,0.7,0.3,1.3,0.2,2
		c-0.8-0.5-0.8-1.6-1.6-2.1c-0.4-0.4-0.9-0.5-1.3,0c-0.2,0.5-0.5,1-0.9,1.3c0.1-1,0.2-2.2-0.7-2.8c0.2,0.6,0.6,1.1,0.6,1.7
		c-0.1,0.7-0.2,1.3-0.3,2C109.5,112,110,111.2,110.5,110.4z"/>
	<path class="st0" d="M195.6,108c1,0.8,2.1,1.4,3.2,2l0.1-0.1c0-0.1,0-0.3,0-0.3C197.7,109.2,196.7,108.5,195.6,108z"/>
	<path class="st0" d="M135,109.4c0.8,0.3,0.4,1.8,1.5,1.6c0.3,0.7,0.1,1.6,0.7,2.2c0.7-0.4,1.1-1.2,1.5-1.9c1.1,0.2,1.4,1.3,1.8,2.1
		c0.7-0.2,0.4-1,0.5-1.5c0-0.6-0.2-1.2-0.6-1.6c-0.2-0.3-0.4-0.7-0.7-0.9c0.2,0.5,0.6,1,0.9,1.5c0.4,0.6,0.2,1.4,0.2,2
		c-0.6-0.1-0.5-1-0.9-1.3c-0.4-0.3-0.8-0.6-1.3-0.5c-0.5,0.5-0.8,1.1-1.2,1.6c0-0.2-0.1-0.6-0.2-0.8c-0.1-1.1-1.4-1.5-1.6-2.6
		c-0.1-0.1-0.4-0.3-0.6-0.4c0,0.1,0,0.2,0.1,0.3c-0.9-0.2-1.3,0.9-2,1.3c0-0.8,0.1-1.6-0.3-2.3c-0.1,0.9,0.2,1.9,0,2.8
		C133.6,110.8,133.9,109.4,135,109.4z"/>
	<path class="st0" d="M167.1,111.4c-1.3-0.8-2.5-1.8-4-2.3c0.6,0.6,1.3,1,2,1.5c1.3,0.8,2.4,1.7,3.7,2.4c1.3,0.7,2.5,1.6,3.9,2
		c-0.4-0.3-0.8-0.6-1.2-0.8C170,113.2,168.5,112.4,167.1,111.4z"/>
	<path class="st0" d="M170.6,119.7c-0.2-0.6-0.9-0.5-1.3-0.9c-1.5-0.9-3-1.9-4.6-2.6c0.1,0.5,0.7,0.7,1.1,0.9
		c1.5,0.7,2.8,2.1,4.5,2.2c0.3,0.2,0.6,0.9,1,0.5c0.1,0.1,0.2,0.2,0.3,0.4C171.3,119.8,171.1,118.8,170.6,119.7z"/>
	<path class="st0" d="M133.6,62.4c0.9-0.1,2,0.2,2,1.3c0.1-0.2,0.2-0.4,0.3-0.6l-0.2-0.4c-0.7-0.7-1.8-0.9-2.7-0.7
		c-0.4,0.6-0.6,1.4-1,2c-0.1-0.8-0.2-1.7-0.8-2.4c-0.3,0-0.7-0.1-1-0.1c0,0.2-0.1,0.6-0.1,0.8c0.5-0.2,1.1-0.3,1.2,0.3
		c0.3,0.7,0.2,1.4,0.2,2.1c0.2,0,0.5,0,0.7-0.1c0.2,0.3,0.3,0.5,0.5,0.8c-0.1-0.4-0.3-0.7-0.4-1.1C132.7,63.7,132.9,62.8,133.6,62.4
		z"/>
	<path class="st0" d="M202.9,95.5c0,0.1,0,0.2,0.1,0.3c1-0.3,2.1-0.6,3.2-0.8l0.3-0.1c0-0.1,0-0.3,0-0.4l-0.2,0
		C205.2,94.8,204,95.1,202.9,95.5z"/>
</g>
</svg>
