<?xml version="1.0" encoding="utf-8"?>
<!-- Generator: Adobe Illustrator 24.0.2, SVG Export Plug-In . SVG Version: 6.00 Build 0)  -->
<svg version="1.1"
	 id="Слой_1" shape-rendering="geometricPrecision" image-rendering="optimizeQuality" text-rendering="geometricPrecision" xmlns:xodm="http://www.corel.com/coreldraw/odm/2003"
	 xmlns="http://www.w3.org/2000/svg" xmlns:xlink="http://www.w3.org/1999/xlink" x="0px" y="0px" viewBox="0 0 238.1 150.2"
	 style="enable-background:new 0 0 238.1 150.2;" xml:space="preserve">
<g id="Layer_x0020_1">
	<g id="_105553291075264">
		<g id="_105553193002496">
			<g>
				<path d="M159.8,132.2c-1.9-0.5-3.4-1.5-4.2-3.2c-1.5,0.6-2.8,1.2-4.2,1.5c-2.4,0.6-4.4-0.4-5.6-2.4c-1.2-2.1-2.9-3.1-5.1-4
					c-7.2-2.7-13.6-6.8-19.1-12.2c-3-2.9-5.7-6-7.4-9.9c-0.7-1.6-1.2-3.4-1.5-5.2c-0.3-2,0.6-3.8,1.8-5.3c0.2-0.3,0.4-0.6,0.8-1
					c-3.5-0.1-6.3-1.5-8.4-4.1c-1.5-1.8-2.2-3.8-2.3-6.1c-0.1-2.7,0.7-5.1,2.5-7.2c1.7-2.1,3.9-3.2,6.5-3.8
					c-0.1-0.1-0.1-0.2-0.1-0.3c-3.3-2.1-4-5.4-4.3-8.9c0-0.5,0-1-0.1-1.5c-0.1-1.1-0.2-2,1.1-2.4c0.3-0.1,0.4-0.5,0.7-0.9
					c-0.6-0.1-1-0.2-1.4-0.3c-2-0.3-3.3-3.1-1.8-4.7c2.1-2.3,4.1-4.7,6.1-7c1.2-1.4,2.1-1.7,3.4-1.3c1.3,0.4,1.9,1.5,2,3.2
					c0,0.1,0,0.3,0.1,0.7c0.8-1,1.4-1.7,2-2.5c4.4-5.6,9.3-10.7,15.6-14.3c1.4-0.8,2.9-1.5,4.3-2.2c0.6-0.3,0.9-0.6,1-1.3
					c0.1-1.5,0.6-2.8,1.6-3.9c1.8-2.2,4.1-2.8,7.3-1.7c1.7,0.6,3.3,1.4,4.5,2.6c1.6-1.6,3.1-3.2,4.6-4.9c0.2,0,0.5,0,0.7,0
					c1.5,1.6,3,3.2,4.5,4.9c0.6-0.4,1.3-1.1,2.2-1.5c1.4-0.6,2.9-1.3,4.5-1.5c3.5-0.6,5.3,1.8,6.3,4c0.3,0.7,0.5,1.5,0.6,2.2
					c0.1,0.6,0.3,0.9,0.8,1.1c7.9,3.5,14.1,9.1,19.4,15.9c0.8,1.1,1.7,2.1,2.6,3.3c0.1-0.8,0.2-1.3,0.3-1.8c0.1-1.2,0.9-1.8,2-2.2
					c1.1-0.4,2-0.1,2.7,0.8c2.2,2.5,4.3,5.1,6.6,7.5c1.3,1.4,0.8,4-1.5,4.6c-0.5,0.1-1,0.4-1.5,0.5c0.4,0.4,0.9,0.8,1.3,1.2
					c0.1,0.1,0.4,0.4,0.4,0.6c0.1,3.1-0.1,6.1-1.7,8.8c-0.6,1.1-1.7,2.1-2.5,3.1c2.7,0.6,5.1,2,6.8,4.4c1.8,2.4,2.2,5.2,1.7,8
					c-0.8,4.5-4.2,8.2-10.7,8.7c0.2,0.3,0.4,0.6,0.6,0.8c2.4,2.5,2.6,5.5,1.6,8.6c-1.1,3.4-3.1,6.2-5.4,8.9
					c-6.5,7.4-14.5,12.6-23.7,15.9c-1.1,0.4-1.9,0.9-2.4,1.9c-0.3,0.6-0.8,1.2-1.2,1.7c-2.4,3.1-6.1,2.5-8.4,0.8
					c-0.3-0.2-0.5-0.4-0.8-0.6c-0.4,0.5-0.7,1-1,1.4c-0.8,1.1-2.1,1.5-3.3,2.1C161,132.2,160.4,132.2,159.8,132.2L159.8,132.2
					L159.8,132.2z M140.2,73.7L140.2,73.7c0,7,0,14,0,21c0,1,0.3,1.5,1.1,2.1c6.2,3.9,12.3,7.9,18.5,12c0.8,0.5,1.3,0.5,2,0
					c6.2-4.1,12.5-8.2,18.8-12.2c0.5-0.3,0.6-0.6,0.6-1.2c0-14.3,0-28.6,0-42.8c0-1.4-0.9-2.3-2.2-2.3c-12.2,0-24.3,0-36.5,0
					c-1.4,0-2.3,0.8-2.3,2.2C140.2,59.5,140.2,66.6,140.2,73.7L140.2,73.7L140.2,73.7z M122.5,87.9c0.7,0.1,1.2,0.1,1.8,0.2
					c2.7,0.5,4.6,2.1,6.2,4.2c4.6,6.1,10.3,10.6,17.6,13.1c1.8,0.6,3.8,1.1,5.6,1.6c0-0.1,0.1-0.2,0.1-0.3c-0.3-0.2-0.5-0.4-0.8-0.6
					c-4.4-2.9-8.9-5.8-13.3-8.7c-0.6-0.4-0.8-0.9-0.9-1.6c0-14-0.1-28.1-0.1-42.1c0-0.2-0.1-0.4-0.1-1c-1.5,1.9-2.9,3.5-4.3,5.2
					c-2.3,2.9-4.6,5.8-6.9,8.6c-1.6,1.9-3.8,3.1-6.2,3.6c-0.4,0.1-0.7,0.1-1.2,0.3C126.6,74.3,127.6,82.5,122.5,87.9L122.5,87.9
					L122.5,87.9z M201.2,70.5c-0.1-0.1-0.2-0.1-0.3-0.2c-3.4-0.6-6-2.4-8.1-5c-2.5-3-4.8-6.2-7.2-9.2c-0.8-1-1.7-2-2.8-3.2
					c0,0.6-0.1,0.9-0.1,1.1c0,13.9-0.1,27.8-0.1,41.7c0,0.8-0.3,1.3-1,1.8c-3.6,2.3-7.1,4.6-10.6,6.9c-1.1,0.7-2.2,1.5-3.5,2.3
					c0.4,0,0.6,0,0.7,0c0.1,0,0.3,0,0.5-0.1c8.9-2.1,16.2-6.6,21.7-14c1.7-2.2,3.6-4.1,6.5-4.7c0.7-0.1,1.3-0.2,2.1-0.3
					C193.8,82.8,194.7,74.2,201.2,70.5L201.2,70.5L201.2,70.5z M160.6,24.9c-2.7,0.3-5.5,0.4-8.2,0.8c-9.1,1.3-16.8,5.4-23.3,11.8
					c-4.3,4.2-7.7,9-11.4,13.7c-2,2.5-3.9,5-6.6,6.7c-0.2,0.1-0.4,0.4-0.4,0.6c0.2,1.9,0.4,3.8,0.8,5.6c0.7,2.5,2.3,4.2,5,4.6
					c1.3,0.2,2.6,0.2,3.9,0c2.9-0.4,5.1-2.2,6.9-4.4c2.1-2.5,4-5.2,6-7.8c6.6-8.4,14.8-14.3,25.9-14.8c2.5-0.1,5.1,0,7.6,0.6
					c8.2,1.9,14.8,6.4,20,12.9c2.2,2.8,4.3,5.7,6.6,8.6c2.4,3,5.2,5.1,9.3,5.3c3.2,0.1,5.5-1.1,6.8-3.8c1-2.1,1.1-4.3,1.2-6.6
					c0-0.2-0.2-0.5-0.4-0.7c-1.5-1.5-3.2-2.7-4.6-4.3c-2.8-3.3-5.3-6.8-8-10.1c-3.7-4.6-7.8-8.7-12.8-11.9
					C177.5,26.9,169.3,25,160.6,24.9L160.6,24.9L160.6,24.9z M162.1,110.4c0.2,0,0.3,0.1,0.5,0c1.2-0.1,2.5-0.2,3.7-0.4
					c7.2-0.9,13.7-3.7,19.4-8.1c3-2.3,5.5-5.1,7.8-8.1c2.5-3.2,5.9-3.5,9.1-1.5c1.9,1.2,3.4,3.3,2.4,6.3c-0.4,1.3-1,2.6-1.7,3.8
					c-2.7,4.6-6.5,8.3-10.7,11.6c-8.4,6.4-18,10-28.5,10.7c-5,0.4-9.9,0-14.8-1.1c-10.6-2.4-19.7-7.5-27.1-15.5
					c-2.4-2.6-4.5-5.5-5.7-8.8c-0.9-2.5-0.3-4.8,1.6-6.5c2.3-2,6.1-2.1,7.6-0.8c1.1,0.9,2.1,1.9,3,3.1c2.7,3.4,5.8,6.3,9.3,8.7
					c5.3,3.6,11.3,5.7,17.6,6.5c1.2,0.1,2.3,0.2,3.5,0.3c-0.9-1-1.9-1.6-3.1-1.7c-5.8-0.6-11.2-2.6-16.2-5.7
					c-4.2-2.6-7.6-6-10.5-9.9c-1-1.3-2.2-2.5-3.8-3.2c-3.1-1.3-7.1-0.2-9.4,2.5c-1.7,1.9-2.3,4-1.4,6.4c0.7,1.9,1.6,3.9,2.7,5.6
					c3.4,5.3,8.1,9.3,13.2,12.8c8.1,5.4,17,8.6,26.7,9.3c5.7,0.4,11.3-0.2,16.8-1.7c10-2.8,18.7-7.8,25.9-15.3
					c2.6-2.7,4.8-5.6,6.2-9.1c1.6-4,0.7-7.1-2.8-9.4c-3.3-2.2-7.3-1.9-10.1,0.9c-0.8,0.8-1.5,1.8-2.3,2.7
					c-6.3,8-14.5,12.6-24.5,14.2C164.9,108.9,163.3,109.1,162.1,110.4L162.1,110.4L162.1,110.4z M177.1,48.5
					c-5.6-3.9-11.8-5.9-18.7-5.4c-5.3,0.4-9.9,2.4-14.2,5.4C155.2,48.5,166.1,48.5,177.1,48.5L177.1,48.5z M144.3,109.9
					c-0.8,3.3-1.6,6.5-2.5,9.7c0.8,0.2,1.6,0.4,2.3,0.6c0.6-2.2,1.2-4.3,1.8-6.6c0.2,0.4,0.3,0.5,0.3,0.7c0.9,2.2,1.8,4.5,2.7,6.7
					c0.2,0.5,1.6,1.2,2.1,1c0.2-0.1,0.3-0.4,0.4-0.6c0.5-1.9,1-3.8,1.5-5.8c0.3-1.1,0.5-2.2,0.8-3.3c-0.8-0.2-1.5-0.4-2.3-0.6
					c-0.6,2.1-1.1,4.2-1.7,6.5c-0.3-0.6-0.4-0.9-0.6-1.2c-0.7-1.8-1.6-3.5-2.1-5.4C146.6,110.3,145.7,110,144.3,109.9L144.3,109.9
					L144.3,109.9z M184.3,117c1-0.6,1.9-1.1,2.7-1.7c0.9-0.6,1.8-1.2,2.5-2c1.6-1.8,1.6-4.4,0.1-6.6c-1.1-1.6-3-2.2-5.1-1.4
					c-1.8,0.7-3.4,1.8-5.2,2.7C181,111.1,182.6,114.1,184.3,117L184.3,117L184.3,117z M134.1,104.2c-1.1,2-2.1,3.8-3.1,5.7
					c-1.2,2.3-0.7,4.1,1.4,5.6c0.7,0.5,1.4,0.8,2.2,1.1c1.6,0.6,3.2,0.1,4.1-1.4c1.2-2.1,2.3-4.2,3.5-6.4c-0.8-0.5-1.6-0.9-2.4-1.4
					c-0.2,0.4-0.4,0.6-0.5,0.9c-1.1,1.9-2.1,3.8-3.2,5.6c-0.4,0.7-1,1.1-1.8,0.8c-1.3-0.4-1.8-1.3-1.2-2.7c0.5-1.2,1.1-2.2,1.7-3.4
					c0.5-1,1.1-2,1.6-3.1C135.7,105.1,134.9,104.6,134.1,104.2L134.1,104.2L134.1,104.2z M106.2,80.1c0.1,5.1,4,9.1,9.1,9
					c5,0,9-4.1,8.9-9.1c-0.1-5-4.2-9-9.1-8.9C110.2,71.2,106.2,75.2,106.2,80.1C106.2,80.1,106.2,80.1,106.2,80.1z M215.1,80
					c0-5-4-9-9-9c-5,0-9,4-9,9c0,5,4.1,9.1,9.1,9C211.1,89,215.1,85,215.1,80L215.1,80z M180.1,117.3c-1.2,0.4-2.2,0.7-3.4,1
					c-0.2-0.8-0.5-1.5-0.7-2.2c-0.1-0.4,0-0.7,0.5-0.9c0.7-0.2,1.4-0.5,2.1-0.7c-0.2-0.5-0.4-0.9-0.5-1.3c-1,0.3-1.9,0.6-2.8,0.9
					c-0.2-0.7-0.4-1.2-0.6-1.8c-0.2-0.5,0-0.8,0.5-0.9c0.7-0.2,1.4-0.5,2.4-0.9c-0.5-0.5-0.9-1.1-1.1-1.1c-1.7,0.5-3.4,1.1-5.1,1.7
					c0.8,2.6,1.6,5,2.3,7.4c0.7,2.2,0.7,2.2,2.9,1.5c1.3-0.4,2.5-0.9,3.8-1.3C180.4,118.2,180.3,117.8,180.1,117.3L180.1,117.3
					L180.1,117.3z M161.7,114.3c0.2,0,0.3,0,0.4,0c2.1-0.4,2.1-0.4,2.5,1.7c0.1,0.3,0.1,0.6,0.1,0.9c0.3,1.8,0.5,3.7,0.8,5.6
					c0.9-0.1,1.7-0.3,2.6-0.4c0-0.5-0.1-0.9-0.1-1.4c-0.3-2.2-0.6-4.4-0.8-6.5c-0.1-0.6,0.1-0.8,0.7-0.8c0.6-0.1,1.1-0.2,1.7-0.2
					c0.1-1.5,0.1-1.5-1.2-1.3c-1,0.2-2.1,0.3-3.1,0.4c-1.3,0.2-2.5,0.4-3.8,0.6C161.5,113.4,161.6,113.8,161.7,114.3L161.7,114.3
					L161.7,114.3z M158.8,123c0.2-3.3,0.3-6.6,0.5-10c-1-0.1-1.8-0.1-2.7-0.2c-0.2,3.4-0.3,6.8-0.5,10.2
					C157,123,157.9,123,158.8,123L158.8,123z M115.7,48.3c-0.6-0.9-1.1-1.6-1.7-2.5c-1.7,2-3.4,3.9-5.1,5.9
					c-0.5,0.6-0.3,1.2,0.2,1.7c0.6,0.6,1.5,0.6,2,0.1C112.7,51.8,114.2,50.1,115.7,48.3L115.7,48.3L115.7,48.3z M205.6,48.3
					c1.5,1.8,3.1,3.5,4.7,5.3c0.4,0.5,1.4,0.4,1.9-0.1c0.5-0.5,0.6-1.3,0.2-1.8c-0.8-0.9-1.6-1.8-2.4-2.7c-0.9-1-1.8-2-2.7-3
					C206.8,46.7,206.2,47.5,205.6,48.3L205.6,48.3L205.6,48.3z M166.7,23.8c1.9,0.3,3.6,0.6,5,0.8c0.2-0.7,0.2-1.4,0.6-1.7
					c0.6-0.5,1.3-0.5,1.7,0.4c0.1,0.1,0.5,0.1,0.6,0c0.3-0.3,0.6-0.7,0.7-1c0-0.2-0.4-0.6-0.8-0.8c-0.3-0.2-0.6-0.3-1-0.3
					C171.1,21.2,168.9,22.1,166.7,23.8L166.7,23.8L166.7,23.8z M154.4,23.7c-2.1-1.7-4.3-2.5-6.8-2.5c-0.5,0-0.9,0.3-1.3,0.5
					c-0.7,0.4-0.2,0.9,0.1,1.3c0.3,0.4,0.6,0.5,1,0c0.5-0.7,1.6-0.6,2,0.1c0.2,0.4,0,0.9,0,1.4C150.9,24.3,152.5,24,154.4,23.7
					L154.4,23.7L154.4,23.7z M163.4,129.5c-0.9-0.1-1.7-0.3-2-1.2c0-0.1-0.1-0.1-0.2-0.1c-1.4-0.1-2.8-0.1-4.4-0.2
					c0.6,1.4,1.5,2.3,2.8,2.5C160.9,130.8,162.2,130.7,163.4,129.5L163.4,129.5L163.4,129.5z M174.9,126.2c-1.5,0.3-2.9,0.7-4.2,0.9
					c-1,0.2-1.7,0.6-1.7,1.7C171.1,130,173.6,128.9,174.9,126.2L174.9,126.2z M146.4,126.3c1.1,2.5,3.4,3.8,5.8,2.5
					c0-1.1-0.6-1.5-1.7-1.6C149.2,126.9,147.9,126.6,146.4,126.3L146.4,126.3z M160.7,19.5c-0.5,0.5-0.9,0.9-1.1,1.1
					c0.4,0.6,0.9,1,0.9,1.4c0,0.5-0.4,1-0.7,1.5c1.3,0,2.6,0,4.1,0C162.9,22.1,161.8,20.8,160.7,19.5L160.7,19.5L160.7,19.5z
					 M118,47.1c-0.1-0.8-0.1-1.6-0.3-2.4c-0.1-0.7-1.1-1.3-1.5-0.9c-0.4,0.3-0.7,1-0.6,1.4C115.7,46.4,116.6,47.1,118,47.1
					C118,47.1,118,47.1,118,47.1z M203.4,47.1c1.4-0.1,1.9-0.4,2.3-1.6c0.3-0.7,0-1.5-0.5-1.7c-0.6-0.2-1.4,0.3-1.6,1.1
					C203.4,45.5,203.4,46.2,203.4,47.1L203.4,47.1L203.4,47.1z M174.6,25.3c1,0.3,1.9,0.6,3.1,0.9c-0.3-1-0.5-1.7-0.8-2.4
					C176.1,24.4,175.4,24.8,174.6,25.3L174.6,25.3z M146.7,25.3c-0.8-0.5-1.5-0.9-2.3-1.5c-0.2,0.7-0.4,1.4-0.7,2.4
					C144.8,25.9,145.7,25.6,146.7,25.3C146.6,25.3,146.7,25.3,146.7,25.3z M208.8,54.9c0.1-0.1,0.2-0.1,0.3-0.2
					c-1.4-1.7-2.9-3.3-4.3-5c-0.1,0.1-0.1,0.1-0.2,0.2C205.9,51.5,207.3,53.2,208.8,54.9L208.8,54.9L208.8,54.9z M116.3,50.4
					c-0.1-0.1-0.1-0.1-0.2-0.2c-1.3,1.5-2.5,2.9-3.8,4.4c0.1,0.1,0.1,0.1,0.2,0.2C113.8,53.3,115.1,51.9,116.3,50.4L116.3,50.4
					L116.3,50.4z"/>
				<path d="M155.4,76.2c-0.1,0.3-0.2,0.5-0.3,0.7c-1.6,2.7-1.4,5.5-1.1,8.4c0,0.1,0,0.1,0,0.2c0.2,0.4,0.4,0.7,0.6,1
					c0.2-0.3,0.5-0.6,0.7-0.9c0.3-0.5,0.5-1,0.8-1.4c0.6-0.7,0.4-1.4-0.1-2c-1.4-1.7-1.4-3.2,0-4.8c0.7-0.9,0.9-1.8,0.3-2.8
					c-0.8-1.2-1.5-2.5-2.3-3.7c-0.2-0.4-0.5-0.8-0.8-1.4c0.8,0.1,1.4,0.3,2.2,0.4c0.4-1.1,0.8-2.1,1.2-3.3c0.4,0.7,0.8,1.2,1.1,1.8
					c0.3,0.5,0.7,0.7,1.2,0.7c1.1,0.1,1.8-0.2,2.1-1.3c0.1-0.4,0.4-0.7,0.8-1.3c0.3,1,0.6,1.8,0.8,2.6c0.5,0,1,0,1.6,0
					c-0.9,2-0.8,4-0.8,6c0,0.5,0.4,0.9,0.7,1.4c0.1,0.2,0.4,0.4,0.6,0.6c0.5,0.6,0.5,1.1-0.2,1.5c-0.4,0.2-1,0.4-0.5,1.1
					c1.3-0.5,2.5-1,3.9-1.5c0-0.3,0-0.7,0-1.3c-0.9,0-1.9,0-2.9,0c0-1.4,0-2.7,0-4c0-0.4,0-0.8-0.2-1c-0.7-0.7-0.4-1.2,0-1.9
					c0.3-0.4,0.5-0.8,0.8-1.4c0.5,0.8,0.9,1.5,1.3,2.2c0.1,0.1,0.1,0.4,0,0.5c-0.8,0.9-0.4,2-0.5,3c0.7,0,1.2,0,1.9,0
					c-0.1-1,0.4-2.1-0.4-3c-0.1-0.1-0.1-0.4,0-0.6c0.3-0.7,0.7-1.3,1.2-2.2c0.5,0.9,0.9,1.6,1.3,2.3c0.1,0.1,0,0.3,0,0.4
					c-0.8,0.9-0.4,2-0.6,3c0.7,0,1.3,0,2,0c-0.1-1,0.3-2-0.5-3c-0.1-0.1-0.1-0.4-0.1-0.6c0.4-0.7,0.8-1.4,1.2-2.2
					c0.4,0.8,0.8,1.4,1.2,2.1c0.1,0.2,0.1,0.5,0.1,0.6c-0.8,1.1-0.4,2.3-0.5,3.5c-0.1,0.6,0,1.2,0,1.9c-1,0.1-1.9,0.1-2.9,0.2
					c-0.1,1.1-0.2,2.1,0.6,3c0.9,1,1,2.2,0.5,3.5c-0.3,1.1-0.4,2.3-0.3,3.5c0.1,3.6,0.2,7.1,0.4,10.7c0,0.8-0.3,1.1-1,1.3
					c-0.9,0.3-1.2,0.1-1.3-0.9c-0.2-3.4-0.3-6.9-0.5-10.3c0-0.5-0.2-0.8-0.7-1.1c-0.8-0.4-1.7-0.8-2.5-1.2c-0.7-0.3-1.3-0.1-1.6,0.6
					c-0.3,0.5-0.5,1-0.8,1.5c0.1,0.1,0.1,0.2,0.2,0.2c0.4-0.1,0.7-0.3,1.1-0.4c0.4-0.1,0.9-0.3,1.2-0.1c0.3,0.2,0.3,0.7,0.3,1.1
					c0,0.2,0,0.4-0.1,0.6c-0.2,0.8,0,1.3,0.9,1.4c0.4,0.1,0.9,0.6,1,0.9c0.4,2.5,0.4,5.1,0.1,8c-0.7-0.5-1.3-0.8-1.7-1.2
					c-1.8-1.8-3.5-3.7-5.3-5.5c-0.2-0.2-0.4-0.5-0.7-0.9c-0.4,1-0.3,1.7,0.2,2.3c0.5,0.6,1.1,1.2,1.6,1.8c0.8,1.2,0.7,1.9-0.5,2.7
					c-1.1,0.8-1.2,1.1-0.4,2.3c0.5,0.8,1.1,1.5,1.6,2.2c0.5,0.9,0.4,1.5-0.5,2c-1.1,0.6-2.3,1-3.5,1.3c-0.7,0.2-1.2-0.1-1.1-1
					c0-0.6-0.1-1.2-0.1-1.8c-0.1-0.8-0.3-1.6-0.9-2.2c-1.3-1.3-1.2-3.1-1-4.8c0.1-0.9,0.2-1.8,0.3-2.7c0.1-0.6-0.2-0.8-0.7-0.7
					c-2.3,0.1-2.9-0.3-3.3-2.7c-0.4-2.6-0.5-5.2-0.6-7.8c-0.1-2.5-0.1-2.6-2.3-4.5c0.5-0.4,1.1-0.8,1.6-1.2c0.2-0.2,0.5-0.7,0.4-0.9
					c-0.1-0.2-0.6-0.4-0.9-0.4c-1.2-0.1-2.1,0.6-2.9,1.3c-0.4,0.4-0.8,0.7-1.3,1.1c-0.1-0.3-0.2-0.4-0.3-0.6c-0.3-1.1-0.6-2.2-1-3.3
					c-0.2-0.8-0.1-0.9,0.8-0.7c1.7,0.5,1.7,0.5,2.3-1.3c0.5-1.4,1.2-1.8,2.7-1.6c0.4,0.1,0.9-0.3,1.5-0.5
					C152.7,72.2,152.9,74.9,155.4,76.2L155.4,76.2L155.4,76.2z M158.5,75.8c0.4,0.8,0.7,1.4,1.1,2c0.1,0.1,0.7,0.2,0.8,0.1
					c0.6-0.5,0.9-1.2,0.8-2C160.3,75.8,159.6,75.8,158.5,75.8L158.5,75.8L158.5,75.8z M168.1,83.3c0.2-1.5-0.9-2.4-2-2
					c-0.2,0.1-0.5,0.3-0.5,0.4c0,0.2,0.1,0.5,0.3,0.6C166.6,82.7,167.4,83,168.1,83.3L168.1,83.3L168.1,83.3z M161.9,84.1
					c-0.2-1.2-1.3-1.8-2.2-1.4C160.2,83.6,160.8,84.1,161.9,84.1z M160.7,73c0.1,0,0.2,0,0.3,0.1c0.2-0.4,0.5-0.7,0.6-1.1
					c0.1-0.1-0.3-0.4-0.4-0.6c-0.3,0.3-0.6,0.6-0.8,0.9C160.4,72.4,160.6,72.7,160.7,73L160.7,73L160.7,73z M157,71.4
					c-0.1,0.7-0.1,1.3,0.7,1.5c0.1,0,0.5-0.4,0.5-0.5C158.2,71.7,157.9,71.3,157,71.4L157,71.4z"/>
				<path d="M141.2,51c13,0,26,0,39,0c0,3.6,0,7.1,0,10.7c-2.7,0-5.4,0-8.2,0c0-0.5-0.1-1-0.1-1.6c-0.8,0-1.6,0-2.3,0
					c-0.6,0-0.8-0.2-0.6-0.9c0.7,0,1.5,0,2.3,0c0-2,0-3.9,0-5.8c-1-0.3-2.4,0.5-3-1.4c-0.5,1.5-1.5,1.3-2.5,1.3c0,1.9,0,3.8,0,5.8
					c0.6,0,1.1,0,1.7,0c0.1,0.3,0.2,0.6,0.3,0.9c-1.8,0-3.5,0-5.3,0c-0.1-0.7,0.2-0.9,0.9-0.9c1.6,0,1.6,0,1.6-1.6
					c0-1.3,0-2.7,0-4.1c-1-0.5-2.4,0.4-3-1.5c-0.5,1.5-1.5,1.2-2.5,1.3c-0.3,0-0.7,0.3-0.7,0.4c-0.1,1.8,0,3.5,0,5.3
					c0.8,0,1.5,0,2.3,0c0.1,0.4,0.1,0.6,0.2,0.9c-1.8,0-3.6,0-5.4,0c-0.1-0.6,0-0.9,0.7-0.9c0.5,0,0.9,0,1.5,0c0-1.9,0-3.8,0-5.8
					c-0.9-0.2-2.1,0.3-2.6-1.3c-0.6,1.4-1.6,1.2-2.5,1.3c-0.3,0-0.7,0.3-0.9,0.5c-1.5,1.5-3,3-4.5,4.4c-0.4,0.4-0.9,0.5-1.5,0.9
					c0.2,0.6,0.4,1.5,0.6,2.5c-1.8,0-3.6,0-5.4,0C141.2,58.2,141.2,54.6,141.2,51L141.2,51L141.2,51z"/>
				<path d="M180.2,63.2c0,0.6,0,1.1,0,1.7c-13,0-26,0-39,0c0-0.5,0-1.1,0-1.7C154.2,63.2,167.1,63.2,180.2,63.2z"/>
				<path d="M152.2,59.2c0.9,0,1.6,0,2.4,0c0,0.3,0.1,0.6,0.1,0.8c-1.5,0-2.9,0-4.5,0c0.7-1.4,1.3-2.7,1.9-4c0.1,0,0.1,0,0.2,0
					C152.2,57.1,152.2,58.1,152.2,59.2L152.2,59.2z"/>
				<path d="M160.3,26.3c7.4,0.2,14.4,1.5,20.9,5c4.8,2.6,9.1,5.9,12.6,10.1c3.7,4.4,7.2,9.1,10.9,13.5c1.1,1.3,2.5,2.4,3.8,3.6
					c0.3,0.3,0.6,0.7,0.6,1c-0.1,1.4-0.3,2.8-0.6,4.1c-0.8,3.1-3.3,4.1-6.2,3.9c-3-0.2-5.3-2-7.1-4.1c-2.3-2.8-4.6-5.7-6.7-8.6
					c-2.5-3.5-5.9-6.1-9.3-8.5c-3.9-2.7-8-4.9-12.8-5.6c-8.7-1.4-16.6,0.4-23.9,5.5c-5.1,3.6-9.3,8-12.7,13.1
					c-1.6,2.3-3.3,4.5-5.5,6.2c-2.1,1.7-4.5,2.4-7.2,2c-2.2-0.4-3.5-1.8-4.1-3.9c-0.4-1.3-0.5-2.8-0.6-4.2c0-0.3,0.2-0.7,0.4-0.8
					c2.8-1.9,4.8-4.6,6.8-7.3c3.6-4.8,7.2-9.5,11.6-13.6c6.1-5.6,13.2-9.3,21.4-10.6C155,26.8,157.7,26.5,160.3,26.3L160.3,26.3
					L160.3,26.3z M125.2,56.5c-0.4-0.1-0.5-0.1-0.7-0.2c-1.7-0.6-3.5-1.2-5.2-1.7c-0.3-0.1-0.8-0.1-1,0.1c-0.5,0.4-0.9,1-1.5,1.6
					c2.5,2.2,4.9,4.2,7.4,6.4c0.4-0.6,0.8-1,1.1-1.5c-1.5-1.3-2.9-2.6-4.3-3.8c1.8,0.4,3.5,1,5.1,1.6c0.5,0.2,0.9,0.2,1.3-0.3
					c0.4-0.5,0.2-0.8,0-1.2c-0.8-1.7-1.6-3.3-2.4-5c0,0,0.1-0.1,0.1-0.1c1.4,1.2,2.9,2.4,4.4,3.7c0.6-0.7,1.1-1.4,1.7-2.1
					c-2.5-2.1-4.8-4.2-7.3-6.3c-0.5,0.6-0.8,1-1.2,1.4c-0.6,0.6-0.6,1.1-0.2,1.8C123.5,52.7,124.3,54.5,125.2,56.5L125.2,56.5
					L125.2,56.5z M143.6,38.8c-2.3-0.9-4.3-1.7-6.3-2.4c-1.4-0.5-2-0.4-3,0.8c1.6,2.7,3.3,5.4,5,8.1c0.7-0.5,1.3-0.9,2-1.3
					c-1.1-1.9-2.2-3.7-3.4-5.5c0.3,0.1,0.5,0.1,0.6,0.2c1.9,0.7,3.8,1.3,5.6,2.2c1.3,0.6,2.2,0.1,3.1-0.7c-1.7-2.7-3.3-5.4-5-8.2
					c-0.7,0.4-1.3,0.8-2,1.3C141.3,35.1,142.4,36.9,143.6,38.8L143.6,38.8L143.6,38.8z M198.3,50.8c-2.4,2.2-4.7,4.4-7.1,6.6
					c0.6,0.7,1.2,1.3,1.8,2c0.8-0.7,1.4-1.3,2.1-1.9c0.2-0.2,0.7-0.4,0.9-0.3c0.5,0.2,0.4,0.7,0.2,1.1c-0.4,0.9-0.8,1.9-1.2,2.9
					c-0.1,0.2-0.1,0.7,0,0.8c0.6,0.5,1.2,1,1.9,1.6c0.5-1.5,1-2.9,1.5-4.3c0.2,0,0.4,0,0.5,0c1.4,0.1,2.5-0.5,3.1-1.7
					c0.6-1.2,0.1-2.3-0.6-3.2C200.4,53.2,199.4,52,198.3,50.8L198.3,50.8L198.3,50.8z M159.4,32.3c0-1.3,0-2.6,0-3.9
					c-0.9,0-1.7,0-2.6,0c0,3.2,0,6.4,0,9.6c0.8,0,1.5,0,2.5,0c0-1.4,0-2.8,0-4.2c1.3,0,2.4,0,3.6,0c0,1.5,0,2.9,0,4.4
					c0.8,0,1.6,0,2.5,0c0-3.2,0-6.4,0-9.7c-0.8,0-1.5,0-2.5,0c0,1.1,0,2.1,0,3.1c0,0.6-0.2,0.8-0.7,0.8
					C161.3,32.3,160.4,32.3,159.4,32.3L159.4,32.3z M138.7,45.9c-3.1-1.3-5.9-2.6-8.8-3.8c-0.2-0.1-0.6,0-0.9,0.2
					c-0.3,0.2-0.5,0.5-0.7,0.7c-0.5,0.4-0.6,0.8-0.3,1.5c0.8,1.5,1.5,3.1,2.3,4.7c0.6,1.3,1.3,2.5,1.9,3.8c1.4-1.6,1.3-1.1,0.5-2.8
					c-0.4-0.7-0.3-1.2,0.2-1.8c1.4-1.5,1.3-1.5,3.2-0.7c0.2,0.1,0.7,0.2,0.8,0C137.5,47.3,138,46.7,138.7,45.9L138.7,45.9
					L138.7,45.9z M184,36.8c-0.1-0.3-0.2-0.5-0.3-0.7c-0.8-1.5-2.1-2.3-3.7-2.6c-2-0.4-3.5,1.5-2.8,3.4c0.4,1,1,2,1.3,3
					c0.1,0.4,0,1.1-0.4,1.4c-0.3,0.2-1.1,0.2-1.4-0.1c-0.6-0.5-1.1-1.2-1.7-1.8c-1.3,0.3-1.4,0.6-0.6,1.7c0.8,1.2,2,2,3.4,2.3
					c2.2,0.4,4-1.5,3.3-3.6c-0.3-1-0.9-1.9-1.3-2.9c-0.1-0.4-0.1-1.1,0-1.2c0.4-0.2,1.1-0.2,1.4,0c0.6,0.4,0.9,1,1.5,1.6
					C183.2,37.2,183.5,37,184,36.8L184,36.8L184,36.8z M191,50c0.6,0.7,1.2,1.4,1.9,2.2c0.4-0.3,0.7-0.6,1-0.9
					c-0.2-0.3-0.4-0.5-0.5-0.7c-1.4-1.7-1.4-1.7,0.4-3c0,0,0.1,0,0.2,0c0.6,0.7,1.2,1.4,1.9,2.2c0.4-0.3,0.7-0.6,1.1-0.9
					c-1.2-1.5-2.4-2.9-3.6-4.4c-2.5,2.1-4.9,4.2-7.3,6.3c1.4,1.7,2.7,3.3,3.9,4.8c1.2-0.8,1.2-0.8,0.4-1.8
					C188.8,51.7,188.8,51.7,191,50L191,50L191,50z M170.2,29.2c-1,3.1-2,6.1-3,9.2c2,0.7,3.8,1.3,5.8,2c0.1-0.5,0.3-0.9,0.4-1.3
					c-0.8-0.3-1.5-0.6-2.3-0.8c-0.8-0.2-1-0.6-0.7-1.4c0.6-1.8,0.6-1.8,2.3-1.2c1.2,0.4,1.3,0.3,1.4-1c-0.4-0.1-0.7-0.3-1.1-0.4
					c-1.8-0.7-1.6-0.2-1-2.2c0.1-0.5,0.4-0.7,0.9-0.5c0.7,0.3,1.4,0.5,2.2,0.7c0.1-0.5,0.3-0.8,0.4-1.3c-1.4-0.5-2.8-1-4.1-1.5
					C171,29.5,170.7,29.4,170.2,29.2L170.2,29.2L170.2,29.2z M153.5,30.3c0.5-1.2,0.4-1.4-0.9-1.5c-0.4,0-0.8,0-1.2,0
					c-2.7,0.1-5.1,2.3-5.2,4.8c-0.1,2.3,1.1,4.5,3.1,5.2c2.2,0.8,5,0.2,6.3-1.4c-0.3-0.3-0.5-0.6-0.8-0.9c-1.7,1.3-3.1,1.5-4.2,0.6
					c-1.4-1.1-2-3.2-1.4-4.8C149.9,30.6,150.7,30.1,153.5,30.3L153.5,30.3z M186,37.3c-1,1-1,1-0.1,1.9c0.4,0.3,0.7,0.7,1.1,1
					c-1.8,2.1-3.6,4.1-5.4,6.2c0.7,0.6,1.3,1.2,2,1.8c1.8-2.1,3.6-4.1,5.4-6.1c0.7,0.6,1.3,1.1,2,1.7c0.5-0.5,1.2-0.8,0.4-1.5
					C189.5,40.5,187.8,38.9,186,37.3L186,37.3L186,37.3z"/>
				<path d="M185.8,114.2c-1.1-1.9-2.1-3.8-3.2-5.8c-0.1-0.1,0-0.4,0.1-0.5c1.3-1.4,3.3-1.2,4.4,0.4c0.3,0.4,0.5,0.8,0.7,1.2
					C188.9,111.7,188.2,113.3,185.8,114.2L185.8,114.2L185.8,114.2z"/>
				<path d="M115.2,88.2c-4.2,0.5-8.3-3.7-8.1-8.3c0.1-4.3,3.8-7.8,7.9-7.9c5-0.1,8.4,3.8,8.5,8.1C123.4,84.8,119.3,88.7,115.2,88.2
					L115.2,88.2z M115.7,87.1c-0.2-1.1-0.4-2-0.5-3c-0.2-2.2,0.1-4.5,0.8-6.6c0.3-0.7,0.2-1.1-0.7-1.2c-0.6-0.1-1.3-0.2-1.9-0.4
					c-0.7-0.2-1,0.1-1.3,0.6c-1.3,2.4-1.7,5-1.3,7.8c0.1,0.6,0.3,1.3,0.7,1.6C112.7,86.9,114.1,87.2,115.7,87.1L115.7,87.1
					L115.7,87.1z M122.1,78.7c-0.2,0.1-0.2,0.1-0.2,0.1c-0.1,0.1-0.2,0.3-0.3,0.4c-1,1.6-2.4,2.6-4.3,3.1c-1.9,0.5-1.9,0.5-1.5,2.5
					c0.1,0.3,0.1,0.6,0.2,0.9c0.3,1.1,0.7,1.3,1.8,0.9c1.8-0.7,3.1-1.9,3.9-3.6C122.3,81.7,122.6,80.3,122.1,78.7z M119.9,75
					c-0.8,0.5-1.5,0.9-2.2,1.4c-0.3,0.2-0.7,0.5-0.9,0.9c-0.4,1.2-0.8,2.5-1.1,3.7c-0.2,0.7,0.2,1,0.9,0.9c2-0.2,3.4-1.1,4.4-2.9
					C122,77.3,121.6,75.9,119.9,75L119.9,75L119.9,75z M116.3,76c0.6-0.2,1.4-0.2,2.1-0.6c0.8-0.4,0.8-1.1,0-1.5
					c-1.5-0.7-3.1-0.9-4.7-0.6c-0.4,0.1-1,0.4-1.1,0.7c-0.1,0.7,0.3,1.2,1,1.4C114.5,75.7,115.4,75.8,116.3,76
					C116.3,76,116.3,76,116.3,76z M110.2,85c0-1.2-0.1-2.5,0-3.7c0.2-1.2-0.3-1.9-1.1-2.7c-0.4-0.5-0.8-0.4-1,0.3
					C107.8,80.9,108.4,83.7,110.2,85L110.2,85L110.2,85z M110.6,79.3c0.2-1.9,1.8-3.2,1.4-5.3c-1.1,0.7-2.4,1.3-2.7,2.7
					C109.1,77.6,109.4,78.5,110.6,79.3C110.6,79.3,110.6,79.3,110.6,79.3z"/>
				<path d="M214.3,80c0,4.5-3.7,8.3-8.3,8.1c-4.5-0.1-8.1-3.4-8.1-8.2c0.1-4.9,3.5-8.2,8.3-8.1C211.1,71.9,214.2,75.6,214.3,80
					L214.3,80z M205.8,86.8c1.3,0.2,2.4-0.2,3.5-0.6c0.7-0.3,1-0.8,1.2-1.5c0.5-2.6,0.2-5-0.8-7.4c-0.6-1.6-0.8-1.6-2.5-1.3
					c-0.4,0.1-0.7,0.2-1.1,0.2c-1,0-1,0.5-0.8,1.3c0.7,1.9,1,3.9,0.8,5.9C206.1,84.5,205.9,85.6,205.8,86.8L205.8,86.8L205.8,86.8z
					 M199.2,78.6c0,0.1-0.1,0.2-0.2,0.3c-0.8,2.9,2.1,7.3,5,7.6c0.3,0,1-0.3,1.1-0.6c0.3-1.1,0.5-2.3,0.7-3.3
					c-1.4-0.5-2.7-0.7-3.8-1.4C201,80.7,200.2,79.6,199.2,78.6L199.2,78.6z M204.7,81.8c0.7,0.1,1.1-0.1,0.9-0.9
					c-0.1-0.7-0.2-1.3-0.4-2c-0.4-1.3-0.9-2.6-2.5-3.1c-0.3-0.1-0.6-0.5-0.9-0.8c-0.1-0.1-0.4-0.3-0.5-0.2c-0.7,0.1-1.8,2.1-1.7,2.7
					C200.2,79.7,202.5,81.6,204.7,81.8L204.7,81.8z M206.2,73c0,0,0-0.1-0.1-0.1c-1,0.3-2.1,0.5-3.1,0.8c-0.3,0.1-0.8,0.5-0.7,0.6
					c0.1,0.4,0.4,0.8,0.7,1c1,0.7,4.4,0.5,5.2-0.4c0.3-0.3,0.4-0.8,0.5-1.2c0-0.2-0.5-0.5-0.8-0.6C207.4,73.1,206.8,73.1,206.2,73
					L206.2,73L206.2,73z M211.1,84.9c1.9-1.5,2.4-4.3,2-6.1c0-0.2-0.5-0.5-0.7-0.5c-0.5,0.1-1.4,1.6-1.4,2.1
					C211.1,81.9,211.1,83.3,211.1,84.9L211.1,84.9z M209.4,73.8c-0.4,2.1,1.1,3.4,1.4,5.2c1.1-0.7,1.5-1.6,1.3-2.6
					C211.8,75.1,210.6,74.5,209.4,73.8L209.4,73.8z"/>
				<path d="M196.8,55.9c0.8-0.7,1.4-1.3,2.1-2c0.7,0.4,1.2,0.9,1,1.6c-0.1,0.5-0.6,1.1-1.1,1.3C197.9,57.3,197.5,56.4,196.8,55.9
					L196.8,55.9z"/>
				<path d="M133,46.4c-0.5,0.6-0.9,1-1.4,1.6c-0.5-0.9-0.9-1.8-1.3-2.6c0.1-0.1,0.1-0.1,0.2-0.2C131.2,45.6,132,45.9,133,46.4
					L133,46.4z"/>
			</g>
		</g>
	</g>
</g>
</svg>
