<?xml version="1.0" encoding="utf-8"?>
<!-- Generator: Adobe Illustrator 24.0.2, SVG Export Plug-In . SVG Version: 6.00 Build 0)  -->
<svg version="1.1" id="Слой_1" xmlns="http://www.w3.org/2000/svg" xmlns:xlink="http://www.w3.org/1999/xlink" x="0px" y="0px"
	 viewBox="0 0 238.1 150.2" style="enable-background:new 0 0 238.1 150.2;" xml:space="preserve">
<g>
	<path d="M203.7,88.6c-0.1,0.3-0.2,0.5-0.4,0.8c-1.2,2.1-1.8,4.3-2.1,6.7c-0.2,1.5-0.5,3-0.7,4.6c-0.2,2.3-0.5,4.5-0.5,6.8
		c-0.1,6.2-0.1,12.3-0.2,18.5c0,1.7-0.6,3.2-2,4.2c-0.6,0.4-1.4,0.6-2.1,0.8c-0.8,0.2-1.1,0.5-0.7,1.2c0.8,1.5,1.6,2.9,2.5,4.4
		c1.3,2.1,2.1,4.4,2.4,6.9c0.1,1,0.2,2,0.4,3.1c-15.5,0-30.9,0-46.3,0c0-0.4,0.1-0.9,0.1-1.3c0.3-1.8,0.6-3.6,0.8-5.4
		c0.2-2.3,1-4.3,2.2-6.2c0.3-0.4,0.7-0.8,0.8-1.2c0.2-0.7,0.3-1.5,0.3-2.3c-0.1-3-0.3-5.9-0.5-8.9c-0.2-2.4-0.3-4.9-0.6-7.3
		c-0.2-1.7-0.4-3.4-0.6-5.1c-0.4-2.4-0.9-4.7-1.3-7.1c-0.2-1-0.4-2-0.5-3c-0.2-1.2,0.3-2.2,1.2-3c1.1-1,1.6-2.3,1.9-3.8
		c0.4-1.8,0.8-3.7,1.3-5.5c0.5-1.9,0.8-3.8,0.6-5.7c-0.1-1-0.4-2-0.6-3.1c-0.3-1.6-0.5-3.2-0.8-4.8c-0.2-0.8-0.5-1.6-0.8-2.4
		c-0.9-2-1.3-4.2-1.7-6.4c-0.2-1.3-0.6-2.7-0.9-4c-0.3-1.2-0.8-2.5-0.8-3.7c0.1-1.6,0.5-3.3,1-4.8c0.8-2.6,2.4-4.6,4.2-6.5
		c1.1-1.1,2.1-2.3,3.1-3.5c0.3-0.4,0.5-1.2,0.5-1.7c0-2.4-0.3-4.7-0.2-7.1c0.1-3.6,1.7-6.6,4.4-9c1.5-1.4,3.2-2.3,5.1-2.9
		c0.7-0.2,1.4-0.4,2.1-0.4c1.5,0,3,0.1,4.5,0.3c0.4,0,0.8,0.2,1.1,0.3c0.7,0.2,1.3,0.3,2,0c0.9-0.3,1.8,0.3,2.6,0.7
		c2.4,1.3,4.3,3.1,6.1,5.1c1,1.1,1.9,2.3,2.4,3.8c0.2,0.6,0.4,1.1,0.5,1.7c0.4,2,1.4,3.6,2.8,5c3.1,3.2,6.2,6.3,9.2,9.4
		c1.6,1.7,3.1,3.4,4.5,5.2c1.5,1.9,2.9,3.9,3.5,6.3c0.5,1.9,1.3,3.8,1.1,5.8c-0.1,0.6-0.1,1.2-0.4,1.8c-0.9,1.5-1.1,3.3-1.4,5
		c-0.4,2.5-1.2,4.9-2.2,7.2c-1.4,3.4-3.3,6.4-5.5,9.3C204.7,87.6,204.2,88.1,203.7,88.6c0-0.2,0-0.4,0.1-0.5
		c0.8-1.2,1.6-2.3,2.4-3.4c2-2.8,3.6-5.8,4.5-9c1.1-3.6,2-7.2,2.9-10.9c0.2-0.8,0.1-1.6,0-2.4c-0.2-1-0.5-2-0.8-3
		c-0.5-1.6-1.1-3.2-1.7-4.8c-0.2-0.6-0.7-0.9-1.4-0.8c-0.7,0.1-1.4,0.2-2.2,0.3c-0.2,0-0.4,0-0.6-0.1c-0.1,0-0.3-0.1-0.4-0.1
		c-0.4,0.2-0.9,0.4-1.3,0.6c-0.5,0.3-1,0.5-1.4,0.7c-0.8-2.2-1.5-4.3-2.3-6.4c-0.4-1.3-1.2-2.3-2.1-3.2c-1.9-2-3.8-3.9-5.8-5.9
		c-0.7-0.7-0.8-1.9-0.2-2.8c0.1,0.1,0.3,0.2,0.5,0.3c1.6,1.5,3.2,2.9,4.7,4.4c1.7,1.7,3.4,3.5,5.1,5.2c1.9,1.9,3.3,4,3.4,6.8
		c0.8-0.3,1.6-0.7,2.4-1.1c-0.8-0.9-1.4-1.7-2.1-2.5c-2.2-2.4-4.3-4.8-6.5-7.1c-2-2.1-4.1-4.2-6.1-6.3c-1.1-1.2-2.1-2.4-2.4-4.1
		c-0.4-2.2-1.3-4.1-2.8-5.7c-1.4-1.4-2.6-2.9-4.3-3.9c-0.7-0.4-1.4-0.9-2.2-1.2c-0.5-0.2-1-0.5-1.6-0.1c-0.2,0.2-0.7,0.1-1.1,0
		c-1-0.3-1.9-0.7-2.8-0.9c-1.1-0.2-2.3-0.3-3.4-0.1c-1.1,0.1-2.1,0.7-3.1,1c-2.1,0.7-3.8,2.1-5.2,3.8c-1.6,1.9-2.7,4.1-2.8,6.7
		c0,2.1,0,4.2,0.2,6.3c0,0.4,0.5,0.8,0.9,1.1c0.5,0.3,0.6,0.6,0.2,1c-0.5,0.5-1.1,0.9-1.7,1.4c-2.7,2.6-4.7,5.7-6.4,9.1
		c-0.2,0.4-0.5,1,0.1,1.2c0.6,0.3,0.7-0.4,0.8-0.8c0.3-0.8,0.7-1.5,1.5-2c0.5-0.3,0.9-0.9,1.2-1.5c0.5-0.8,0.9-1.7,1.3-2.6
		c0.2-0.6,0.9-0.7,1.4-0.3c0.1,0.1,0.3,0.2,0.6,0.3c0-0.7,0-1.3,0-1.9c0.1-0.8,0.2-1.5,0.9-2c1-0.8,2.1-1.6,3.1-2.4
		c0.3-0.2,0.5-0.5,0.8-0.7c0-0.1-0.1-0.1-0.1-0.2c-0.2,0-0.4,0-0.6,0.1c-0.4,0.2-0.8,0.5-1.2,0.7c-1.3,0.5-2.4-0.2-2.2-1.5
		c0.5,0.3,0.9,0.7,1.4,1c0.4,0.3,0.8,0,1-0.3c0.3-0.4-0.1-0.5-0.4-0.7c-0.6-0.5-1.2-0.9-1.7-1.4c-0.5-0.6-1.1-1.1-0.9-2
		c0.2-0.9,0.3-1.8,0.4-2.7c0.1-0.4,0.2-0.7,0.3-1.1c0.1,0,0.1,0,0.2,0.1c0,0.8,0,1.6,0,2.5c1.3-0.8,2.5-1.7,3.9-2.4
		c1.4-0.7,2.9-1.2,4.3-1.6c1.5-0.4,3.1-0.6,4.7-0.8c2-0.3,3.8-0.2,4.6,0.3c-0.5,0.1-0.9,0.3-1.4,0.4c-2.2,0.3-4.5,0.6-6.7,0.9
		c-1,0.1-1.9,0.3-2.8,0.6c-1.9,0.7-3.8,1.6-5.4,3.1c-0.8,0.7-1,1.4-0.7,2.1c0.5,1.2,2.1,2.1,3.3,1.8c1-0.2,1.9-0.6,2.8-0.8
		c-0.1-0.1-0.4-0.2-0.8-0.5c0.3-0.2,0.6-0.3,0.8-0.5c1-0.5,1.9-0.2,2.9,0.2c1.8,0.6,3.5,1.4,5.4,1.7c2,0.3,4.1,0.2,6-0.8
		c0.9-0.5,1.7-1,1.7-2.2c0-0.4,0.1-0.8,0.1-1.2c0.1-1.5,0-2.9-1.1-4c-0.1-0.1-0.1-0.3-0.2-0.4c0.3-0.1,0.5-0.2,0.8-0.3
		c-0.6-1.1-1.1-2.3-2.1-3c-1.2-0.8-2.2-1.7-3.1-3.1c0.6,0.1,1.1,0.2,1.6,0.3c1.9,0.6,2.9,2.1,3.8,3.6c0.5-0.2,0.9-0.4,1.3-0.6
		c0,0,0.1,0.1,0.1,0.1c-0.2,0.4-0.3,0.8-0.5,1.2c0.5,0.3,1,0.6,1.6,1c-0.3,0.1-0.4,0.2-0.7,0.4c0.4,0.2,0.7,0.3,0.8,0.4
		c0,0.6,0,1.2-0.1,1.7c-0.1,0.6-0.4,1.3-0.4,1.9c-0.1,0.8-0.2,1.5,0.1,2.3c0.5-0.2,0.9-0.4,1.3-0.6c0,0,0.1,0.1,0.1,0.1
		c-0.2,0.4-0.4,0.9-0.6,1.3c-0.6,1.1-0.5,1.5,0.4,2.6c0.3-0.3,0.5-0.6,0.8-1c0.1,0.7,0.1,1.3,0.3,1.9c0.2,0.6,0.6,1.1,0.9,1.7
		c0.3,0.6,0.1,1.2-0.6,1.2c-0.6,0-1.3-0.1-1.9-0.3c-1-0.4-1.2-0.1-1.6,0.5c-0.1,0.3-0.2,0.6-0.4,0.9c0.1,0,0.2,0,0.3,0
		c1.1-0.2,2.3-0.4,3.4-0.5c1.1-0.1,1.5-0.8,1.5-1.7c0-0.3,0.1-0.6,0.2-0.9c0.3,0.3,0.6,0.4,0.8,0.7c1.4,1.5,2.7,2.9,4,4.4
		c0.9,1.1,1.7,2.3,2,3.8c0.2,1,0.2,2.1,0.2,3.2c0,0.8,0.2,1.6,0.8,2.2c0.4,0.6,0.9,1.1,1.4,1.7c0.4,0.5,0.3,1-0.2,1.4
		c-0.9-1-1.7-2.1-2.6-3.1c-0.1,0-0.1,0.1-0.2,0.1c0,0.2,0.1,0.3,0.1,0.5c0.4,1.1,0.4,2.4,1.6,3.1c0.1,0,0,0.3,0,0.5
		c0,0.5,0,1.1,0.2,1.6c0.3,1,0.7,2,1.2,2.9c0.6,1.1,1.1,2.4,2,3.3c1.5,1.4,3.4,1.9,5.5,1.4c1.1-0.2,2.1-0.5,3.4-0.8
		c-0.6,1.3-1,2.4-1.5,3.5c-0.8,1.8-1.7,3.6-1.9,5.7c-0.2,2.1-0.9,4-1.9,5.8c-1.2,2.2-2.8,4.1-4.5,5.8c-0.3,0.3-0.4,0.2-0.7,0
		c-0.4-0.4-0.8-0.8-1.2-1.3c-0.1,0.3-0.1,0.4-0.2,0.5c0,0.2-0.1,0.3-0.1,0.5c-0.1,1.7-0.5,3.2-1.6,4.5c-0.3,0.4-0.2,0.7,0,1
		c0.2,0.3,0.4,0.6,0.4,0.9c-0.1,0.5-0.3,1.1-0.5,1.6c-0.1,0-0.1,0-0.2,0c-0.1-0.9-0.2-1.8-0.3-2.8c-0.2-1.5-0.4-3.1-0.6-4.6
		c-0.1-1.2-0.3-2.4-0.4-3.6c-0.1-0.9-0.3-1.7-0.6-2.6c-0.2-0.5-0.4-1.1-1.2-1.4c0.2,0.6,0.4,1.1,0.5,1.5c0.3,1.3,0.7,2.5,0.9,3.8
		c0.3,1.7,0.4,3.4,0.6,5.2c0.3,2,0.5,4,0.8,6c0.3,1.7,0.6,3.4,0.8,5.2c0,0.1,0.1,0.2,0.2,0.2c0.1,0,0.1,0,0.1-0.1
		c-0.2-0.9-0.3-1.8-0.5-2.8c0.3,0.1,0.5,0.1,0.7,0.2c0.3-1.6,0.5-3.2,0.9-4.8c0.3-1.4,0.7-2.8,1.3-4.1
		C202.5,89.7,203.2,89.2,203.7,88.6z M191.1,110.6c1.1,0.2,1.6-0.2,1.4-1.4c-0.1-0.5,0.1-1.1-0.5-1.2c-0.3,0-0.7,0.4-1,0.7
		c-0.7,0.6-2,0.3-2.1-0.6c-0.1-0.8,0.1-1.7,0.2-2.5c0.1-0.9,0.8-1.4,1.5-1.6c0.5-0.2,1.2-0.1,1.8-0.1c1.3,0,2.4,0.8,2.8,1.9
		c0.1,0.2,0.1,0.3,0.3,0.6c0.1-1.4-0.8-2.5-1.6-2.7c-0.9-0.2-1.8-0.3-2.6-0.3c-1.3-0.1-2,0.9-2.3,1.7c-0.5,1.2-0.2,2.5-0.2,3.8
		c0,0.1,0.3,0.3,0.5,0.4c0.4,0.1,0.9,0.2,1.4,0.1c0.4,0,0.8-0.2,1.1-0.3c0.2-0.1,0.4-0.2,0.6-0.4c0.2,0.7,0.1,1.1-0.5,1.4
		C191.4,110.1,191.3,110.4,191.1,110.6c-0.1,0.3-0.4,0.5-0.4,0.7c-0.1,0.8,0,1.6,0,2.4c0,0.5,0.1,0.9,0.6,1.2
		c0.6,0.2,0.6,0.8,0.5,1.2c0,0.2-0.3,0.4-0.5,0.5c-0.1,0-0.3-0.2-0.4-0.3c-0.4-0.4-0.8-0.9-1.3-1.2c-0.9-0.5-1.6-0.1-1.6,1
		c0,0.9,0,1.8,0,2.7c0,0.8,0.3,1.4,0.9,1.9c0.5,0.5,1.1,0.7,1.5,0.5c-0.8-0.4-1.6-0.8-1.8-1.8c-0.2-0.9-0.2-1.8-0.3-2.7
		c0-0.5,0-1,0.5-1.2c0.6-0.2,1.2,0.1,1.6,0.7c0.3,0.4,0.5,0.8,0.8,1.1c0.1,0.1,0.4,0.1,0.5,0.1c0.6-0.5,0.5-2.2-0.1-2.7
		c-0.3-0.2-0.6-0.6-0.6-0.9C190.9,112.7,191.1,111.6,191.1,110.6z M171.2,64.5c0.1-0.2,0.2-0.3,0.3-0.4c0.5-2,1.2-3.9,1.5-6
		c0.4-2.8,1.7-5.2,3.7-7.2c2.3-2.2,5-3,8-1.9c2.2,0.8,3.8,2.5,5,4.5c1.3,2.3,1.4,4.9,1.8,7.4c0.3,1.7,0.4,3.5,0.7,5.2
		c0.2,1.1-0.3,1.8-1.4,1.9c-0.6,0-1.1,0.2-1.1,0.9c-0.1,1-0.1,2-0.1,3c0,0.4-0.1,0.9-0.1,1.3c-0.1,1.3-0.3,2.6,0.9,3.5
		c0.4,0.3,0.6,0.3,0.9,0c0.8-0.7,1.6-1.3,2.3-2c1.2-1.1,2.5-2.2,3.5-3.5c1.5-2,2.7-4.2,4-6.3c0.4-0.6,0.4-1.3,0.1-2
		c-0.6-1.2-1.1-2.5-1.6-3.7c-0.6-1.6-1-3.2-1.7-4.7c-1.6-3.8-4-7.3-6.2-10.8c-0.3-0.4-0.7-0.7-1.3-0.7c-1.1,0.1-2.3,0.2-3.4,0.3
		c-0.5,0.1-1.1,0.2-1.6,0.5c-0.6,0.3-1.3,0.8-1.9,1.2c-1.4,1-3,1.7-3.9,3.3c-0.2,0.3-0.5,0.7-0.8,0.8c-1.4,0.7-3.1,0.2-4.1-0.9
		c-0.6-0.6-0.9-0.6-1.6,0c-0.4,0.4-0.8,0.9-1.6,0.8c-0.8-0.1-1.2,0.2-1.5,1c-0.2,0.7-0.4,1.4-0.7,2c-0.6,1.3-1.3,2.6-1.9,3.9
		c-0.3,0.7-0.3,1.3,0.1,2c0.9,1.7,1.9,3.5,2.8,5.2C170.5,63.4,170.8,63.9,171.2,64.5z M160.6,81.9c-0.1,0-0.1,0-0.2,0
		c-0.2,1.3-0.4,2.7-0.7,4c-0.4,1.8-0.8,3.7-1.3,5.5c-0.3,1.1-0.6,2.1-1.1,3.1c-0.5,0.9-1.3,1.7-1.9,2.6c-0.2,0.2-0.2,0.8-0.1,1
		c0.4,0.4,1,0.9,1.5,0.9c1.4,0.2,2.9,0.1,4.2-0.6c2.1-1.2,3.7-2.9,5.1-4.7c2-2.6,3.6-5.4,5.4-8.2c1.4-2.2,2.7-4.3,4-6.5
		c0.5-0.9,1.4-1.8,1.2-2.9c-0.3-1.5-0.4-3.1-1.3-4.5c-0.1-0.1-0.1-0.3-0.1-0.5c0.7,0.3,1.3,0.5,1.9,0.8c-0.2-0.4-0.4-0.7-0.6-1
		c0.1-0.1,0-0.1-0.1-0.2c-0.8-0.3-1.7-0.3-2.3-1c-0.9-1-1.8-1.9-2.8-3c-0.9,1.3-1.4,2.7-1.1,4.2c0.1,0.5,0.3,1.1,0.4,1.6
		c0.1,0.9,0.1,1.9-0.8,2.5c-0.4,0.3-0.7,0.5-1.1,0.8c0.3,0.5,1,0.9,1.6,0.7c0.3-0.1,0.6-0.5,0.8-0.8c0.1-0.2,0.1-0.5,0.1-0.7
		c0.1-1.5,0.1-2.9,0.1-4.4c0-0.3,0.1-0.5,0.2-0.8c1.2,0.7,1.9,2.8,1.7,3.7c-0.4,1.4-0.8,2.8-1.3,4.2c-0.3,0.9-0.6,1.9-0.3,2.9
		c0.4,1.2,0.2,2.3-0.4,3.4c-1.2,2-2.4,4-3.6,6.1c-0.1,0.2-0.4,0.4-0.6,0.6c-0.1-0.3-0.1-0.6,0.1-0.8c0.5-1.3,1.1-2.5,1.6-3.8
		c0.1-0.2,0.1-0.6,0-0.8c-0.7-1-0.7-1.2-0.1-2.2c0.1-0.2,0.2-0.4,0.3-0.6c-0.3,0-0.4,0.2-0.6,0.2c-0.4,0.1-0.9,0.3-1.2,0.2
		c-0.2-0.1-0.3-0.7-0.3-1c0-0.2,0.1-0.4,0.2-0.7c0.2-0.5,0.4-1,0.6-1.5c-0.1,0-0.1-0.1-0.2-0.1c-0.2,0.1-0.4,0.3-0.7,0.4
		c-1,0.7-2,1.3-3,1.9c-0.1,0.1-0.4,0.1-0.6,0.1c0.1-0.3,0-0.6,0.2-0.7c1.1-1.4,2.2-2.7,3.3-4c0.1-0.2,0.2-0.4,0.3-0.6
		c-0.1,0-0.1-0.1-0.1-0.1c-0.3,0.2-0.6,0.4-0.9,0.6c-2.1,1.2-3.7,2.9-4.3,5.3c-0.5,2.2-0.8,4.5-1.2,6.7c-0.1,0.7-0.1,1.5-0.8,2.2
		c-0.1-0.3-0.3-0.5-0.3-0.7c0.1-1.6,0.3-3.2,0.4-4.7C160.2,84.6,160.4,83.3,160.6,81.9z M164.5,55.5c0.2-0.6,0.3-1.1,0.6-1.5
		c0.9-1.2,1.8-2.4,2.8-3.6c0.7-0.9,1.4-1.8,1.6-3c0.3-2.1,0.7-4.2,2.2-5.9c0.4-0.5,0.4-1.1,0-1.6c-0.3-0.4-0.6-0.7-0.9-1
		c-0.5-0.4-0.9-0.3-1.3,0.2c-0.4,0.5-0.8,0.9-1.2,1.3c-0.9,1.1-2.1,2-1.7,3.7c0,0.1-0.2,0.4-0.3,0.4c-1.1-0.2-1-0.2-1.5,0.8
		c-0.5,1-1.1,1.9-1.8,2.7c-0.9,1.1-1.9,2-2.9,3c-0.5,0.5-0.6,1-0.3,1.6c0.4,0.9,0.8,1.8,1.1,2.7c0.1,0.1,0.2,0.2,0.3,0.4
		c0.1-0.4,0.1-0.7,0.1-0.9c0.3,0.1,0.6,0.3,0.9,0.4c0.2-0.2,0.4-0.5,0.6-0.7C163.4,54.7,163.9,55.1,164.5,55.5z M177.2,54.9
		c-0.4,0-0.7,0-0.9,0c-0.3,0-0.5-0.1-0.8-0.2c0.2-0.2,0.3-0.5,0.5-0.6c0.7-0.6,1.5-1.2,2.1-1.6c-0.1-0.6-0.2-1-0.3-1.3
		c-1.4,1.3-2.6,2.7-3.4,4.5c-0.7,1.8-0.9,3.8-1.1,5.7c0.3-0.2,0.4-0.5,0.7-0.7c0.4-0.4,0.9-1,1.4-1c0.9,0,1.6-0.4,2.3-0.9
		c0.1-0.1,0.4,0,0.4,0c-0.3,0.6-0.6,1.1-0.8,1.6c-0.2,0.7-0.4,1.5-0.5,2.3c-0.1,0.4,0,0.8,0,1.2c0.1,0,0.1,0,0.2,0
		c0.8-1.4,1.1-3.3,3.3-3.6c-0.4-0.3-0.6-0.4-0.8-0.5c-0.3-0.4-0.6-0.8-0.6-1.2c0-0.2,0.5-0.6,0.8-0.6c0.8-0.1,1.7-0.1,2.5,0
		c1.4,0.1,1.7,0.7,1.3,2c-0.1,0.2,0,0.6,0.1,0.7c0.7,0.8,1,1.7,1.3,2.7c0.3,1.1,0.7,2.1,1.1,3.3c1.2-1.3,0.7-4.1-0.3-4.8
		c-0.1,0.4-0.2,0.7-0.3,1.1c-0.1,0-0.1,0-0.2,0c-0.4-1.3-0.7-2.7-1.1-4.1c0.1,0,0.1-0.1,0.2-0.2c0.3,0.1,0.6,0.2,0.9,0.4
		c0.8,0.5,1.5,1,2.3,1.5c0.2,0.2,0.5,0.3,0.6-0.2c0.3-1,0.6-2,0.9-3.1c0.5-2.7-0.4-5.5-3.1-6.9c-1-0.5-1.2-0.5-1.8,0.5
		c-0.3,0.5,0.2,0.7,0.5,1.2c-0.4,0.4-0.9,0.8-1.5,1.2c0.8,0.1,1.4,0.2,1.9,0.3c1.1,0.3,2.3,0.6,2.7,1.9c0.1,0.3,0,0.6,0,0.8
		c0,0.2-0.1,0.4,0,0.6c0,0.2,0.1,0.5,0.1,0.7c-0.2,0-0.4-0.1-0.6-0.2c-0.3-0.1-0.6-0.3-0.9-0.5c-0.2-0.1-0.4-0.1-0.8-0.2
		c0,0.7,0,1.2,0,1.9c-0.2-0.1-0.4-0.2-0.5-0.3c-0.9-0.7-1.8-1.4-2.6-2.1c-0.4-0.3-0.6-0.3-0.8,0.1c-0.2,0.6-0.6,0.7-1.1,0.6
		c-0.2,0-0.4,0.1-0.5,0.1c-0.8,0.3-1.6,0.6-2.4,0.9c-0.1-0.5-0.2-0.9-0.3-1.5c-0.5,0.2-0.9,0.3-1.4,0.4c-0.2,0-0.4-0.1-0.6-0.2
		c0.1-0.2,0.2-0.4,0.3-0.5C176.1,55.8,176.6,55.4,177.2,54.9z M157.1,134.9c0.1,0,0.2,0.1,0.2,0.1c1.6,0.1,3.1,0.1,4.7,0.3
		c0.8,0.1,1.8,0.1,2.4,0.6c0.9,0.8,2,0.8,3,1c1.9,0.3,3.7,0.4,5.6,0.6c3.1,0.2,6.1,0.5,9.2,0.5c3.1,0.1,6.3,0.4,9.4-0.6
		c1.3-0.4,2.4-1,3.6-1.6c0.2-0.1,0.4-0.6,0.3-0.8c-0.2-0.4-0.6-0.6-1-0.3c-1.6,1.1-3.5,1.4-5.4,1.6c-2,0.2-3.9,0.3-5.9,0.3
		c-1.8,0-3.5-0.2-5.2-0.2c-0.8,0-1.6,0-2.4-0.1c-1-0.1-2-0.3-3-0.5c-1-0.1-2-0.2-3-0.3c-0.3,0-0.5,0-0.8-0.1
		c-1.1-0.2-2.3-0.5-3.4-0.7c-0.9-0.2-1.8-0.2-2.7-0.4c-0.5-0.1-0.9-0.2-1.4-0.3c-0.9-0.2-1.9-0.4-2.8-0.5
		C157.7,133.6,157.3,134,157.1,134.9z M193,131.7c0-0.1-0.1-0.2-0.1-0.3c-1.6,0.1-3.3,0.2-4.9,0.4c-1.5,0.1-2.9,0.3-4.4,0.3
		c-1.7,0-3.4-0.2-5.2-0.3c-1.6-0.1-3.1-0.2-4.7-0.3c-0.1,0-0.1,0-0.2,0c-1.2-0.2-2.4-0.3-3.6-0.5c-1.3-0.2-2.5-0.4-3.8-0.5
		c-0.8-0.1-1.6-0.2-2.4-0.3c-0.6-0.1-1.1-0.2-1.7-0.3c-0.6-0.1-1.3-0.2-1.9-0.3c-0.4,0-0.6,0.3-0.5,0.6c0.1,0.3,0.4,0.6,0.6,0.7
		c0.5,0.2,1.1,0.4,1.6,0.5c1,0.2,2.1,0.4,3.1,0.7c0.9,0.2,1.9,0.3,2.8,0.5c0.9,0.1,1.8,0.3,2.6,0.4c1.3,0.1,2.5,0.2,3.8,0.3
		c2.2,0.1,4.4,0.3,6.6,0.4c2.1,0,4.3,0,6.4-0.1c1.1-0.1,2.3-0.3,3.4-0.6C191.6,132.5,192.3,132.1,193,131.7z M163.6,58.5
		c-0.1,0-0.1,0-0.1,0.1c0.3,1.1,0.6,2.1,0.8,3.2c0.5,2.7,0.9,5.4,1.4,8c0.1,0.8,0.7,1.2,1.4,1.1c0.7-0.1,0.9-0.6,0.8-1.4
		c-0.2-1.2-0.5-2.3-0.8-3.5c-0.2-1.1-0.4-2.3-0.6-3.4c0-0.2,0.1-0.4,0.2-0.5c0.2,0.1,0.4,0.1,0.5,0.2c0.7,0.7,1.4,1.5,2.1,2.3
		c0.2,0.3,0.5,0.5,0.8,0.9c0-0.4,0-0.5,0-0.7c-0.4-2.4-1.3-4.5-3-6.2c-0.5-0.5-0.8-0.5-1.2,0c-0.4,0.5-0.9,0.7-1.5,0.5
		C164.1,58.9,163.9,58.6,163.6,58.5z M191.7,97.7c-0.1,0-0.2,0.1-0.3,0.1c-0.1-0.5-0.4-1.1-0.4-1.6c-0.3-1.7-0.6-3.4-0.9-5.1
		c-0.1-0.7-0.3-1.3-0.5-2c-0.1,0.5-0.1,0.9-0.1,1.3c0,0.6,0,1.2,0.1,1.8c0.4,1.8,0.9,3.6,1.3,5.5c0.1,0.7,0.4,1.2,1.4,1.2
		c0-0.5,0.1-1.1,0.1-1.6c1.9,0.4,2.7,2.2,1.9,4c-1.4-0.2-2.8-0.4-4.1-0.6c-0.5-0.1-0.7-0.3-0.8-0.7c-0.5-2.3-0.9-4.7-1.4-7
		c-0.2-0.8-0.4-1.5-0.7-2.3c-0.1,0-0.2,0.1-0.3,0.1c0.4,1.8,0.9,3.7,1.3,5.6c-0.4,0-0.6,0.1-0.8,0.1c-1.2,0-1.2,0-1.2-1.2
		c0-2.2,0-4.4,0-6.6c0-0.8-0.2-1.1-1.1-1c-0.4,0-0.7,0.1-1.1,0.2c-1.2,0.2-1.4,0.7-1.1,1.9c0.2,0.6,0.4,1.2,0.5,1.9
		c0.2,2.6,0.3,5.2,0.4,7.8c0.1,0.9,0.4,1.3,1.3,1.4c1,0.1,2,0.3,3,0.5c0.2-0.5,0.5-0.5,1.1-0.3c0.7,0.3,1.5,0.5,2.3,0.6
		c0.7,0.1,1.4,0.1,2.1,0.2c0.7,0.1,1.3,0.4,2,0.6c-0.1-0.6-0.2-1.3-0.3-1.9c-0.1-0.9,0-1.6,0.3-1.9c0.2,0.6,0.4,1.2,0.6,1.9
		c0.1,0,0.1,0,0.2-0.1c-0.2-0.9-0.3-1.7-0.5-2.5c-0.3-0.1-0.6-0.1-0.9-0.2c-0.6-0.2-1.3-0.5-1.9-0.7C192,96.4,191.8,96.6,191.7,97.7
		z M178.1,107.8c0,0,0,0.1,0,0.1c0.6,0.1,1.3,0.3,1.9,0.4c0.5,0.1,0.7-0.2,0.9-0.6c0.1-0.2,0.2-0.5,0.3-0.6c0.3-0.2,0.6-0.2,0.9-0.2
		c0,0.2,0.1,0.5,0.1,0.7c-0.1,0.2-0.2,0.5-0.4,0.6c-1.4,1.1-2.9,2-4.4,2.8c-1.4,0.8-2.2,2-2.5,3.6c-0.2,1.5-0.3,3-0.5,4.5
		c0.1,0,0.1,0.1,0.3,0.1c0.6,0.1,1.1,0.1,1.7,0.2c0.8,0.1,1.6,0.3,2.5,0.5c0.8,0.1,1.6,0.2,2.4,0.3c0.7,0.1,1.4,0.3,2.1,0.5
		c0.4,0.1,0.8,0.2,1.2,0.1c0.6-0.2,0.6-0.8,0.6-1.3c0.1-1,0.2-1.9,0.3-2.9c0.2-1.2-0.2-1.6-1.4-1.8c-0.8-0.1-1.5-0.4-2.3-0.6
		c0-0.1,0-0.2-0.1-0.2c1-0.8,2.1-1.5,3.1-2.3c0.8-0.6,1.6-1.1,1.7-2.2c0.2-1.3,0.4-2.6,0.6-3.8c0-0.2,0.1-0.3,0-0.5
		c-0.6-1.2-1.2-2.5-2.6-3c-0.9-0.3-1.9-0.3-2.9-0.5c-0.7-0.1-1.3-0.3-2,0c-1.1,0.4-2,1-2.5,2c-0.4,0.8-0.6,1.8-0.8,2.7
		s0.3,1.3,1.4,1c-0.8-0.2-1-0.8-0.9-1.4c0.1-0.4,0.2-0.8,0.3-1.1c0.1-1.5,2.3-3.1,3.8-2.8c1.2,0.2,2.4,0.5,3.6,0.7
		c0.3,0.1,0.6,0.3,0.8,0.5c0.8,0.8,1.4,1.7,1.3,2.8c-0.1,1.2-0.3,2.4-0.6,3.6c-0.4,1.3-1.6,1.9-2.6,2.7c-1.3,1-2.6,1.9-4,3
		c0.7,0.4,1.5,0.8,2,0.3c0.4-0.4,0.8-0.4,1.3-0.4c0.8,0.1,1.6,0.2,2.5,0.3c-0.2,1.4-0.4,2.8-0.5,4.2c-0.1,0.5-0.3,0.6-0.8,0.6
		c-0.7-0.1-1.4-0.2-2.2-0.3c-0.8-0.1-1.7-0.2-2.5-0.3c-0.9-0.2-1.9-0.4-2.8-0.5c-0.9-0.1-1.2-0.4-1.1-1.2c0.1-1.4,0.3-2.8,0.6-4.2
		c0.1-0.5,0.5-0.9,0.9-1.2c1.3-1,2.6-1.9,3.9-2.8c0.7-0.5,1.4-1,2-1.6c0.4-0.3,0.5-0.8,0.2-1.3c-0.5-0.7-1.7-0.5-2,0.3
		c-0.3,0.6-0.7,0.8-1.3,0.8C178.9,107.7,178.5,107.8,178.1,107.8z M183,98.5c-0.3,0.3-0.5,0.6-0.7,0.7c-1,0.2-1.9-0.6-1.9-1.6
		c0-2.6,0-5.1,0-7.7c0-0.8-0.1-1.6-0.3-2.4c-0.1-0.9-0.4-1.1-1.2-0.9c-1.1,0.2-2.2,0.6-3.3,1c-1.3,0.5-1.6,1-1.6,2.4
		c0,0.5-0.1,1-0.1,1.5c-0.1,1-0.1,2-0.2,3c0.3-0.7,0.4-1.5,0.4-2.2c0.1-1,0.2-2,0.4-3c0.1-0.5,0.4-1.1,0.8-1.2
		c0.9-0.4,1.9-0.7,2.9-0.9c1.1-0.2,1.4-0.1,1.3,1c-0.2,1.4-0.4,2.7-0.6,4.1c-0.2,1.2-0.3,2.3-0.5,3.5c-0.2,1-0.4,1.9-0.8,2.8
		c-0.7,1.7-2.3,2.5-3.8,3.3c-0.3,0.2-0.6,0.2-1.1,0.4c0.1-1.2,0.2-2.2,0.3-3.2c-0.1,0-0.1,0-0.1,0c-0.2,1.3-0.5,2.6-0.8,4.1
		c1.3-0.7,2.4-1.2,3.5-1.9c1.7-1.1,3-2.6,3.2-4.8c0.1-1.4,0.3-2.8,0.5-4.2c0.1-0.9,0.3-1.7,0.4-2.6c0.1,0,0.2,0,0.3,0
		c0,0.3,0.1,0.5,0.1,0.8c-0.1,2.4-0.2,4.8-0.2,7.1c0,1,0.6,1.8,1.5,2C182.4,100,183.4,99.6,183,98.5z M156,100.3
		c-0.1,0.4,0.2,0.5,0.7,0.5c0.9,0,1.9,0.1,2.8,0c0.7-0.1,1.5-0.2,2.1-0.6c1.7-1.4,3.5-2.8,5-4.3c2-2,3.3-4.6,4.7-6.9
		c1.9-3.2,3.8-6.5,5.7-9.7c0.2-0.4,0.3-0.9,0.5-1.3c-0.1,0-0.1,0-0.2-0.1c-0.8,1.5-1.6,3-2.5,4.4c-1.4,2.3-2.8,4.6-4.2,6.8
		c-2.1,3.6-4.4,7-7.7,9.6c-0.8,0.6-1.7,1.2-2.6,1.3C158.8,100.2,157.4,100.2,156,100.3z M183.9,41.1c-0.1-0.1-0.1-0.2-0.1-0.3
		c-0.6,0.2-1.1,0.3-1.7,0.5c-0.8,0.4-1.6,0.8-2.4,1.2c-0.9,0.4-1.6,0.9-2.1,1.8c-0.2,0.4-0.1,0.8,0.4,0.7c0.9-0.1,1.7-0.2,2.5-0.6
		C182.1,43.9,183.2,42.7,183.9,41.1z M185.8,79.6c0.1,0,0.1,0.1,0.2,0.1c1.9-1.3,2.9-7.9,2-9.5c-0.3,0.8,0,1.7-0.8,2.4
		c0.1,0.3,0.3,0.6,0.4,0.9c0,0.1-0.1,0.1-0.1,0.2c-0.4-0.2-0.9-0.4-1.4-0.7c-0.5-0.3-0.9-0.6-1.5-0.3c0.3,0.2,0.7,0.3,1,0.5
		c0.2,0.1,0.5,0.3,0.6,0.5c0.3,0.9,0.5,1.8,0.8,2.7c0.3,1-0.2,1.7-0.6,2.4C186.2,79,186,79.3,185.8,79.6z M157.3,67.7
		c0.7,2.3,1.3,4.6,1.9,6.7c0.8,0.7,1.7,1.3,2.5,2c0.4-0.5,0.1-1-0.1-1.3c-0.6-1-1.3-1.9-1.9-2.9C158.9,70.8,158.2,69.2,157.3,67.7z
		 M176.4,37.4c0.1,0.5,0.2,1,0.4,1.5c0.2,0.5,0.9,0.6,1.5,0.2c0.4-0.2,0.7-0.5,1.2-0.2c1.3,0.5,2.6,0.6,3.9-0.1
		c0.9-0.4,1.8-0.8,2.7,0.1c0.1,0.1,0.5,0.1,0.7,0c0.1,0,0.1-0.4,0.1-0.6c-0.1-0.2-0.4-0.4-0.5-0.4c-0.4,0-0.9,0-1.4,0.1
		c-0.4,0-0.9,0-1.2,0.2c-1.6,0.7-3,0.7-4.5-0.2C178.5,37.5,177.6,37.1,176.4,37.4z M184.3,67.3c-0.1-1-0.3-1.8-0.3-2.6
		c-0.1-0.9-0.5-1.5-1.4-1.5c-1,0-2.1,0-3.1,0c-0.2,0-0.4,0.1-0.6,0.2c0.2,0.1,0.4,0.3,0.6,0.3c1.2,0.1,2.5,0.2,3.9,0.2
		c-0.6,1.1-1.7,1.2-2.6,1.5C182,66.1,183.1,66.7,184.3,67.3z M181.1,76c-0.1,0-0.2-0.1-0.3-0.1c-0.1,0.2-0.3,0.5-0.3,0.7
		c0.1,0.6,0.3,1.2,0.5,1.8c0.1,0.5,0.3,0.9,0.4,1.6c-0.4-0.2-0.6-0.3-0.9-0.4c0.5,0.8,2.3,2.4,3,2.8c1.3,0.6,2.8,0.1,3.2-1.2
		c-0.3,0.1-0.5,0.2-0.8,0.3c-1.3,0.6-3.2,0-3.7-1.2C181.7,78.9,180.9,77.6,181.1,76z M154.8,55.3c-0.4,1.9,0.5,3.7,0.9,5.5
		c0.4,1.8,0.8,3.6,1.1,5.4c0.1,0,0.1,0,0.1,0c0-0.3,0.1-0.6,0.1-1c0.4,0.5,0.7,0.8,1,1.2c0.1,0,0.1-0.1,0.2-0.1
		C157,62.6,155.2,59.2,154.8,55.3z M194.8,95.6c0-0.1,0-0.3-0.1-0.4c-0.3-1.6-0.7-3.1-0.9-4.7c-0.1-0.9,0.3-1.1,1.1-0.8
		c0.8,0.4,1.4,1.1,1.6,1.9c0.3,0.8,0.5,1.7-0.4,2.5c0.2,0.2,0.4,0.4,0.7,0.8c0.2-1.3,0.3-2.4,0.4-3.5c0-0.3-0.1-0.6-0.3-0.8
		c-1-0.7-2.1-1.4-3.3-2.2C193.1,91.2,193.7,93.5,194.8,95.6z M196.6,88.2c0.1,0,0.2-0.1,0.3-0.1c-0.2-1.4-0.5-2.7-0.6-4.1
		c-0.2-1.9-1.2-3.4-2.4-4.8c-0.4-0.5-1-0.7-1.6-0.4c0.7,0.6,1.4,1,2,1.7c1.2,1.6,1.8,3.5,2.1,5.5C196.3,86.8,196.5,87.5,196.6,88.2z
		 M191.9,77c1.6,0.6,1.9,0.5,2.3-0.3c-0.2,0-0.4,0.1-0.6,0.1c-0.2,0-0.3-0.2-0.5-0.3c0.1-0.2,0.1-0.3,0.3-0.4
		c0.3-0.2,0.6-0.4,0.8-0.6c1-0.8,1.9-1.6,2.9-2.3c-0.1-0.1-0.1-0.1-0.2-0.2C194.8,73.7,193.3,75.3,191.9,77z M181,87
		c0.1,0.7,0.2,1.2,0.2,1.7c0,2.4,0,4.8,0,7.2c0,0.3,0,0.7,0.1,1c0,0.1,0.2,0.2,0.4,0.4c0-1.4,0-2.7,0-3.9c-0.1-1.7-0.2-3.4-0.2-5.1
		c0-0.2,0.2-0.4,0.3-0.7C181.6,87.5,181.4,87.3,181,87z M186.1,83.5c-1.2,0.7-1.3,0.7-2.3,0c-0.6-0.5-1.3-0.9-1.9-1.4
		c-0.6-0.4-1.1-0.8-1.6-1.2c0.9,2,2.9,2.8,4.6,4.1c0.2-0.3,0.4-0.4,0.6-0.7C185.7,84.1,185.9,83.9,186.1,83.5z M176.7,94.9
		c-1.2,0.1-1.8,2.3-1.3,3.5C176.4,98,177,96.8,176.7,94.9z M191.3,64.1c0,0.5,0,0.9-0.1,1.3c0,0.2-0.3,0.3-0.4,0.4
		c-0.1-0.1-0.4-0.3-0.4-0.4c0.1-1-0.4-2.2,0.5-3.1c-0.7-0.1-1.2,0.5-1.1,1.3c0.2,1.3,0.6,2.6,0.9,3.9
		C191.5,66.7,191.7,65,191.3,64.1z M201.8,65.1c-0.9,1-1.7,2-2.5,3c0.8-0.3,1.5-0.8,2.3-1.1C202.4,66.6,202.6,66,201.8,65.1z
		 M179.1,65c-0.3,0.3-0.5,0.5-0.8,0.8c-0.2,0.2-0.4,0.3-0.6,0.5c-0.1,0.1-0.2,0.5-0.1,0.5c0.1,0.1,0.4,0.2,0.6,0.2
		c0.8-0.3,1.5-0.7,2.2-1C179.9,65.6,179.5,65.2,179.1,65z M177.5,89.7c-1.1,0.2-1.6,1.3-1.3,2.7C177.2,92.3,177.9,91,177.5,89.7z
		 M171.7,36.3c-0.1,0-0.1,0.1-0.1,0.1c1.1,0.8,2.1,1.7,3.1,2.5C174.3,37.5,173.2,36.6,171.7,36.3z M189.6,81.2c0,1,0.6,1.7,1.5,1.8
		C191.2,82,190.6,81.4,189.6,81.2z M194.9,110.4c-0.1,0-0.2,0-0.3,0c-0.1,1.3-0.3,2.5-0.4,3.8c0.1,0,0.2,0,0.3,0
		C194.6,113,194.8,111.7,194.9,110.4z M192.9,121.4c0.7-0.4,1.2-1.9,1-3.1C193.5,119.4,193.2,120.4,192.9,121.4z M173,64.6
		c-0.9,0.1-1.1,0.4-1.1,1.4C172.3,65.5,172.6,65.1,173,64.6z M182.7,94.6c-0.1,0-0.1,0-0.2,0c0.1,1.1,0.1,2.2,0.2,3.3
		c0.1,0,0.1,0,0.1,0C182.8,96.8,182.8,95.7,182.7,94.6z M189.3,88.6c-0.4-0.6-1.1-0.7-1.6-0.3c0.3,0.1,0.6,0.1,0.9,0.2
		C188.7,88.6,189,88.6,189.3,88.6z M190.1,79.1c0.7-0.9,0.7-0.9,0-1.4C190.1,78.1,190.1,78.6,190.1,79.1z"/>
	<path d="M128,89.8c-0.1-0.6-0.2-1.3-0.2-2c0-2.3,0-4.5,0-6.8c0-1.1,0.3-2,1.1-2.8c1.8-1.8,3.5-3.8,5.2-5.7c0.5-0.6,1.2-0.8,1.9-0.8
		c4.8,0,9.6,0,14.4,0c1.4,0,2.3,0.9,3.2,1.8c0.7,0.8,1.4,1.6,2.2,2.4c2,2,2.6,4.5,2.1,7.2c-0.6,3.1-1.4,6.1-2.1,9.1
		c-0.3,1.2-0.9,2.2-1.8,3.1c-1,1-1.3,2.1-1,3.5c0.5,2.4,0.9,4.9,1.3,7.4c0.3,1.4,0.6,2.9,0.8,4.3c0.2,1.6,0.5,3.1,0.6,4.7
		c0.2,2.4,0.3,4.8,0.4,7.3c0.1,1.2-0.3,2.1-1.1,3c-1,1-1.8,2-2.8,3c-0.5,0.5-1.2,0.7-1.9,0.7c-4.8,0-9.6,0-14.4,0
		c-0.6,0-1.1-0.2-1.6-0.7c-1.9-2.1-3.8-4.3-5.8-6.4c-0.5-0.6-0.8-1.2-0.8-1.9c0-2.9,0-5.8,0-8.8c0-1.1,0.1-1.2,1.2-1.2
		c2.6,0,5.2,0,7.9,0c1,0,1.2,0.2,1.2,1.2c0,0.3,0,0.6,0,0.8c0.1,1.5,0.1,3,0.2,4.5c0,0.5,0.1,0.8,0.8,0.8c2.7-0.1,5.5,0,8.2,0
		c0.7,0,1.1-0.3,1.1-1.1c0-3.3,0-6.6,0-9.9c0-0.8-0.3-1.1-1.1-1.1c-1.9-0.1-3.8-0.1-5.8-0.2c-1.3-0.1-1.5-0.2-1.5-1.5
		c0-2.3,0-4.7,0-7c0-1.3,0.4-1.6,1.6-1.6c1.8-0.1,3.7-0.1,5.6-0.1c0.9,0,1.2-0.1,1.2-1.2c0-3.1,0-6.2,0-9.3c0-1-0.3-1.3-1.3-1.3
		c-2.6,0-5.1,0-7.7,0c-0.9,0-1.1,0.2-1.1,1.1c-0.1,1.5-0.1,3-0.2,4.5c0,0.9-0.2,1.1-1.1,1.1C134.1,89.8,131.2,89.8,128,89.8z"/>
	<path d="M138.5,90.2c0-1.6,0-3.1,0-4.7c0-0.3,0-0.5,0-0.8c0-1.1,0.2-1.2,1.2-1.2c2.3,0,4.5-0.1,6.8-0.1c0.3,0,0.6,0.1,0.9,0.1
		c0.5,0,0.7,0.3,0.7,0.8c0,3.2,0,6.3,0,9.5c0,0.7-0.3,0.9-1,0.9c-1.9,0-3.8,0-5.6,0c-0.3,0-0.5,0.1-0.8,0.2c-1,0.1-1.1,0.9-1.1,1.6
		c0,2.7,0,5.3,0,8c0,0.8,0.3,1.1,1.1,1.1c2.1,0.1,4.3,0.2,6.4,0.2c0.7,0,0.9,0.4,0.9,0.9c0,3.1,0,6.2,0,9.3c0,0.7-0.4,1-1.3,1
		c-1.3,0-2.7,0-4,0s-2.7,0-4.1,0c-0.1-0.6-0.2-1.1-0.2-1.6c-0.1-1.6-0.1-3.2-0.1-4.8c0-0.6-0.3-0.9-1-0.9c-3,0-6.1,0-9.1,0
		c-0.5,0-0.8,0.2-0.8,0.7c0,0.2-0.1,0.5-0.1,0.7c0,3.2,0.1,6.3,0.1,9.4c0,0.6,0.2,1.2,0.6,1.6c2,2.2,4,4.4,6.1,6.6
		c0.4,0.4,1.1,0.7,1.7,0.7c5,0.1,9.9,0,14.9,0c0.8,0,1.3-0.5,1.8-1c1-1,1.9-1.9,2.9-2.9c0.1-0.1,0.3-0.1,0.4-0.2
		c0.1,0.2,0.2,0.3,0.2,0.5c-0.1,0.7-0.3,1.3-0.8,1.8c-0.8,0.8-1.6,1.7-2.4,2.6c-0.6,0.7-1.2,0.8-2,0.8c-4.9,0-9.9-0.1-14.8,0
		c-1.3,0-2.2-0.5-3-1.3c-1.5-1.6-2.9-3.2-4.4-4.8c-0.2-0.2-0.5-0.4-0.8-0.6c-0.1,0-0.1,0.1-0.2,0.1c0,0.3,0,0.5,0,0.8
		c0,1.7-0.1,3.3-0.1,5c0,0.6-0.3,0.9-0.9,0.9c-4.4,0.1-8.9,0.1-13.3,0.2c-1.6,0-3.2,0-4.8,0c-4.4-0.1-8.8-0.1-13.2-0.2
		c-0.5,0-1,0-1.5,0c-0.6,0-1-0.3-1-0.9c0-2.7,0-5.5,0-8.2c0-1.1,0.1-2.2,0.1-3.3c0.1-1.3,0.8-2.3,1.6-3.3c2.1-2.8,4.2-5.6,6.4-8.4
		c0.8-1.1,1.7-2.1,2.6-3.2c1.1-1.4,2-2.8,3.1-4.2c1.2-1.6,2.4-3.1,3.6-4.7c0.7-0.9,1-2.1,1-3.2c0-1.7,0-3.4,0.1-5.2
		c0-0.8-0.5-1.3-1.3-1.4c-1.6,0-3.1,0-4.7,0c-0.7,0-1.2,0.6-1.3,1.3c-0.1,1.6-0.1,3.1-0.1,4.7c0,0.8-0.1,0.9-1,0.9
		c-3.8,0-7.6,0-11.4,0c-1,0-1.3-0.3-1.3-1.3c0-3.2,0-6.4,0-9.6c0-0.7,0.2-1.2,0.6-1.8c1.7-2.4,3.4-4.8,5.2-7.2
		c0.8-1.1,1.9-1.9,3.3-1.9c4.1,0,8.1,0,12.2,0c1.2,0,2.5,0,3.7-0.1c1.9-0.2,3.2,0.4,4.3,2c1.4,1.9,3,3.6,4.5,5.4
		c0.6,0.8,1,1.6,1,2.6c0,5.8,0.1,11.5,0.1,17.2c0,1.3-0.6,2.3-1.3,3.3c-1.1,1.4-2.1,2.9-3.2,4.3c-1.3,1.7-2.6,3.5-3.9,5.2
		c-0.9,1.2-1.7,2.3-2.5,3.5c-0.5,0.7-1,1.4-1.6,2.2c0.2,0.1,0.4,0.2,0.6,0.2c3.8,0,7.7-0.1,11.5-0.1c0.8,0,1.1-0.3,1.2-1.2
		c0.1-1.5,0.1-3,0.2-4.4c0-0.5,0.1-1,0.2-1.6c1.3,0,2.6,0,3.9,0c2.4,0,4.9-0.1,7.4-0.1c0.5,0,0.9,0.1,1.4,0.1c0.7,0.1,0.8,0.5,0.8,1
		c0,1.5,0,2.9,0,4.4c0,0.3,0.1,0.7,0.1,1c0.1,0.6,0.5,0.8,1,0.8c1.7,0,3.5,0,5.2,0c0.4,0,0.6-0.2,0.6-0.6c0-2.3,0.1-4.6,0.1-6.9
		c0-1-0.4-1.4-1.5-1.4c-1.7,0-3.5,0.1-5.2,0.2c-1.1,0.1-1.6-0.4-1.6-1.6c0-3.2,0-6.3,0-9.5c0-0.5,0-0.9,0-1.4c0-0.8,0.3-1.1,1.1-1.1
		c1.9,0,3.8,0,5.7,0c1,0,1.3-0.3,1.4-1.3c0-1.2-0.1-2.4-0.1-3.5c0-0.9,0-1.8,0-2.7c0-0.9-0.3-1.1-1.1-1.1c-1.5,0-3,0-4.4,0
		c-1.2,0-1.4,0.2-1.4,1.4c0,1.3,0,2.6,0,3.9c0,0.9-0.4,1.3-1.3,1.3c-3.8,0-7.6,0-11.4,0c-0.6,0-0.9-0.4-0.9-1.2c0-3.5,0-6.9,0-10.4
		c0-1,0.3-1.8,1-2.5c1.9-2.1,3.8-4.3,5.7-6.5c0.6-0.8,1.4-1,2.3-1c1.4,0,2.9,0.1,4.3,0.1c3.7,0,7.5,0,11.2,0c1,0,2,0,2.8,0.7
		c0.8,0.8,1.6,1.6,2.3,2.5c0.4,0.5,0.7,1.2,1,1.8c0.1,0.2,0.1,0.5,0.1,0.8c-0.1,0-0.1,0.1-0.2,0.1c-0.8-0.8-1.6-1.7-2.4-2.6
		c-0.5-0.5-1.1-1-1.6-1.6c-0.6-0.6-1.2-0.6-2-0.6c-4.8,0-9.6,0-14.4,0c-1.1,0-2,0.3-2.7,1.2c-1.7,2-3.5,3.9-5.2,5.9
		c-0.6,0.7-0.9,1.5-0.9,2.3c0,2.8,0.1,5.7,0.1,8.6c0,0.7,0.4,1,1,1c3.2,0,6.4,0,9.6,0C138.2,90.2,138.3,90.2,138.5,90.2z
		 M110.3,117.2c0.1-0.3,0.2-0.3,0.2-0.4c1.7-2.4,3.4-4.8,5.2-7.1c2.6-3.5,5.2-7.1,7.7-10.6c0.3-0.4,0.5-0.9,0.5-1.3
		c0-5.9,0-11.8,0-17.7c0-0.6-0.3-1.2-0.6-1.6c-1.8-2.1-3.6-4.1-5.5-6.1c-0.5-0.5-0.9-1.1-1.7-1.1c-5.5,0-11,0-16.5,0
		c-0.8,0-1.4,0.3-1.8,0.9c-1.7,2.2-3.4,4.4-5.1,6.7c-0.6,0.8-1.2,1.7-1.2,2.8c0.1,1.7,0.1,3.4,0.1,5.1c0,1.2,0,2.4,0,3.6
		c3.9,0,7.5,0,11.3,0c0-0.3,0-0.6,0-0.8c0-1.6,0-3.2,0-4.8c0-1,0.2-1.2,1.1-1.2c2.6,0,5.2,0,7.8,0c0.6,0,0.8,0.2,0.8,0.8
		c0,2.8,0,5.5,0,8.3c0,0.8-0.3,1.4-0.7,1.9c-1.3,1.6-2.5,3.3-3.8,4.9c-2.1,2.8-4.3,5.5-6.4,8.3c-2,2.7-4,5.4-6.1,8
		c-1,1.3-1.4,2.7-1.4,4.3c0,1.7,0,3.5,0,5.2c0,1.3,0,2.7,0,4.1c0.4,0,0.6,0,0.7,0c10.2,0,20.3,0,30.5,0c0.6,0,0.7-0.2,0.7-0.8
		c0-3.5,0-7.1,0-10.6c0-0.9,0-1-1-1c-4.7,0-9.3,0-14,0C111,117.2,110.7,117.2,110.3,117.2z"/>
	<path d="M105.6,63.5c-0.4,1.4-0.8,2.7-1.2,4.1c-0.2,0.6-0.3,1.2-1.1,1.2c-0.7,0-1-0.5-1.1-1.2c-0.4-1.3-0.8-2.6-1.3-3.9
		c0,0.1-0.1,0.3-0.1,0.4c0,1.1,0,2.3-0.1,3.4c-0.1,1-0.5,1.4-1.3,1.3c-1-0.1-1.5-0.5-1.5-1.4c0-3.3-0.1-6.6-0.1-9.9
		c0-1.2,0.1-1.6,1.6-1.6c0.5,0,1,0,1.5,0c0.7,0,1,0.5,1.2,1.2c0.3,1,0.7,2,1,3c0,0.1,0.1,0.2,0.3,0.4c0.2-1,0.4-1.9,0.7-2.8
		c0.4-1.5,0.7-1.8,2.2-1.9c0.6,0,1.2,0,1.8,0.2c0.2,0,0.5,0.3,0.6,0.5c0.1,0.3,0.2,0.7,0.2,1.1c0,3.2,0,6.4,0,9.7
		c0,1.2-1,1.9-2.2,1.6c-0.6-0.2-0.7-0.7-0.8-1.2c-0.1-1.1-0.1-2.2-0.2-3.3c0-0.2,0-0.5,0-0.7C105.8,63.5,105.7,63.5,105.6,63.5z"/>
	<path d="M121.5,37c-0.2,0.8-0.3,1.5-0.5,2.4c0.7-0.1,1.3-0.2,1.9-0.4c0.9-0.2,1.8-0.5,2.8-0.8c0.9-0.2,1.6-0.8,2.1-1.5
		c0.2-0.3,0.5-0.5,0.8-0.9c0.1,0.7,0.2,1.1,0.2,1.5c0,0.4,0.1,0.5,0.6,0.5c0.8-0.1,1.6-0.2,2.4-0.3c0.2,0,0.4,0,0.7,0
		c0,0.3,0,0.5,0,0.9c-1.1,0.2-2.2,0.3-3.3,0.5c-1.8,0.4-3.5,0.9-5.3,1.3c-2.2,0.5-4.3,1.3-6.3,2.2c-1,0.5-2.2,0.7-3.2,1.2
		c-0.9,0.4-1.4,1.2-1.8,2.1c-0.6,1.3-1.1,2.7-1.7,4c-0.1,0.1-0.1,0.3-0.1,0.5c0.3-0.2,0.6-0.4,0.9-0.5c0.2-0.1,0.4,0,0.6,0
		c0,0.2,0,0.4-0.1,0.5c-0.5,0.6-1,1.1-1.6,1.6c0,0-0.1,0-0.1,0c-0.2,0.1-0.4,0.3-0.7,0.4c-0.1-0.3-0.3-0.7-0.2-1
		c0.4-1.4,0.8-2.8,1.2-4.2c0.3-1,0.3-1.1-0.8-1.4c0.6-0.7,1.2-1.3,1.7-1.9c1.2-1.4,1.8-3.1,2.3-4.9c0.1-0.2-0.1-0.4-0.1-0.6
		c-1.1,0.2-1.5,1.1-2.1,1.8c-1.9,2.5-3.7,5-5.6,7.5c-0.2,0.2-0.4,0.4-0.6,0.6c-0.2,0.1-0.5,0.3-0.6,0.2c-0.2-0.1-0.3-0.4-0.3-0.6
		c0-0.2,0.1-0.4,0.2-0.6c1.6-3,3.5-5.7,5.8-8.1c0.4-0.5,0.8-1.1,1.1-1.7c0.1-0.2,0.1-0.6-0.1-0.7c-0.2-0.1-0.5-0.2-0.7,0
		c-1.6,0.9-3.1,1.8-4.6,2.9c-1.6,1-2.8,2.5-3.9,4c-0.6,0.8-1.1,1.7-1.6,2.6c-1.1,1.9-2,3.8-3.6,5.3c-0.2,0.2-0.7,0.3-1,0.4
		c-0.1-0.4-0.3-0.9-0.2-1.1c0.6-1.3,1.3-2.5,2.1-3.7c1.2-1.8,2.4-3.5,3.5-5.4c0.5-0.8,0.6-1.9,0.7-2.8c0.1-1.1-0.8-1.7-1.8-1.1
		s-2,1.2-3,1.8c-0.8,0.5-1.5,1.1-2.3,1.6c-0.1,0.1-0.3,0.1-0.3,0.1c-0.1-0.2-0.2-0.4-0.1-0.5c0.3-0.4,0.6-0.8,0.9-1.1
		c1.3-1.3,2.8-2.3,4.5-3c1.6-0.6,2.8,0,3,1.7c0.1,0.7,0,1.4,0,2.2c0.3-0.2,0.5-0.3,0.8-0.5c1.7-1.3,3.3-2.7,5.3-3.6
		c0.9-0.4,1.8-0.7,2.7-1c0.5-0.2,0.8,0.1,1,0.6c0.1,0.6,0.5,0.9,1.1,1.1c0.9,0.3,1,0.6,0.8,1.5c-0.3,1-0.5,2-0.8,2.9
		c-0.1,0.2-0.1,0.5-0.1,0.7c3.1-1,5.3-2.8,7.1-5.5C121.4,36.9,121.5,36.9,121.5,37z"/>
	<path d="M149.8,140.3c0-1.2,0-2.4,0-3.6c0-0.6,0-1.2,0.6-1.3c0.6-0.2,1.3-0.1,1.9,0c0.1,0,0.3,0.4,0.3,0.7c0,4.1,0,8.1,0,12.2
		c0,0,0,0-0.1,0.1c-1,0-2.1,0-3.2,0c-0.1,0-0.4-0.3-0.4-0.4c-0.5-1.4-1-2.7-1.6-4.1c0-0.1-0.2-0.2-0.2-0.3c-0.1,0-0.1,0-0.2,0.1
		c0,0.7,0,1.4,0,2.1c0,0.6-0.1,1.1-0.1,1.7c0,0.7-0.3,1-1.1,0.9c-1.8-0.1-1.7,0.4-1.8-1.7c-0.1-3.4-0.1-6.7-0.1-10.1
		c0-1.1,1.3-1.8,2.5-1.5c0.7,0.2,1.2,0.7,1.5,1.4c0.6,1.3,1.1,2.6,1.7,3.9C149.6,140.3,149.7,140.3,149.8,140.3z"/>
	<path d="M115.6,141.7c0-1.7,0-3.5,0-5.2c0-1,0.2-1.3,1.2-1.3c1.8,0,3.5,0,5.3,0.1c1,0.1,1.9,1.4,2.1,2.6c0.2,1.4,0.2,2.8-0.5,4
		c-0.1,0.2-0.1,0.5,0,0.6c0.8,1.4,0.5,2.9,0.5,4.3c0,0.3-0.1,0.5-0.1,0.8c0,0.5-0.2,0.7-0.7,0.7c-0.3,0-0.7,0-1,0
		c-1,0-1.2-0.2-1.2-1.2c-0.1-0.8-0.1-1.6-0.2-2.4c-0.1-0.5,0-1.1-0.8-1.1c-1.1,0-1.3,0.1-1.5,1.1c-0.1,1-0.2,1.9-0.3,2.9
		c0,0.6-0.2,0.8-0.8,0.7c-0.3,0-0.5,0-0.8,0c-1,0-1.3-0.3-1.3-1.3C115.6,145.2,115.6,143.5,115.6,141.7
		C115.6,141.7,115.6,141.7,115.6,141.7z M120.8,138.4c-0.5,0.1-1.1,0.2-1.6,0.3c-0.1,0-0.2,0.1-0.3,0.2c-0.4,0.4-0.4,0.8-0.1,1.2
		c0.3,0.4,0.7,0.6,1.3,0.4C121,140.3,121.2,139.4,120.8,138.4z"/>
	<path d="M124.6,141.7c0-1.5,0-3,0-4.4c0-0.2,0-0.4,0-0.6c0.1-1.2,0.3-1.5,1.6-1.5c1.6,0,3.2,0,4.8,0.2c1.1,0.1,2.1,1.1,2.1,2.6
		c0.1,2.5,0.1,5.1,0.1,7.6c0,1-0.3,1.9-1.2,2.5c-0.3,0.2-0.8,0.4-1.1,0.4c-1.7,0-3.4,0-5.1,0c-0.8,0-1-0.1-1-1c0-1.9,0-3.8,0-5.7
		C124.7,141.7,124.7,141.7,124.6,141.7z M130.1,141.9c0-0.9,0-1.8,0-2.7c0-0.2-0.1-0.6-0.2-0.6c-0.5-0.1-1.1-0.2-1.5-0.1
		c-0.2,0.1-0.5,0.6-0.5,0.9c-0.1,1.8-0.1,3.5-0.1,5.3c0,0.6,0.3,0.8,1.1,0.8c1,0,1.2-0.2,1.2-0.9
		C130.1,143.7,130.1,142.8,130.1,141.9z"/>
	<path d="M106.5,141.9c0.1-1.4,0.1-2.8,0.2-4.1c0.1-1.3,1.1-2,2.1-2.4c1.6-0.5,3.3-0.4,4.8,0.5c0.9,0.5,1.3,1.4,1.4,2.4
		c0,1.8,0,3.6,0,5.4c0,0.9,0.1,1.7,0,2.5c-0.1,1.2-1.2,2.2-2.4,2.2c-1,0-1.9,0-2.9,0c-2.3,0.1-3-1.2-3.1-3c0-1.2,0-2.4,0-3.5
		C106.6,141.9,106.5,141.9,106.5,141.9z M109.8,142L109.8,142c0,0.9,0,1.9,0,2.8c0,0.4,0.2,0.8,0.6,0.8c0.5-0.1,1.2,0.3,1.6-0.4
		c0-0.1,0-0.2,0.1-0.3c0.1-1.9,0.1-3.7,0.1-5.5c0-0.7-0.4-1-1.3-0.9c-0.8,0-1.1,0.3-1.1,1C109.7,140.2,109.8,141.1,109.8,142z"/>
	<path d="M142.9,148.4c-0.6,0-1.3,0.1-1.9,0c-0.3-0.1-0.6-0.5-0.9-0.8c-0.3-0.3-0.4-0.8-0.7-1.1c-0.6-0.5-1.5-0.3-1.9,0.4
		c0,0,0,0.1-0.1,0.1c-0.3,0.5-0.6,1.2-1,1.4c-0.7,0.2-1.5,0.1-2.4,0.1c0.4-2,0.7-3.9,1-5.8c0.4-2,0.9-4,1.3-6c0.2-1,0.4-1.2,1.3-1.4
		c0.5-0.1,1-0.1,1.5-0.1c1,0,1.5,0.3,1.7,1.3c0.7,3.1,1.3,6.2,2,9.3C143,146.5,143.3,147.4,142.9,148.4z M138.7,141.4
		c-0.1,0-0.2,0-0.3,0c-0.1,0.6-0.2,1.1-0.4,1.6c0.4,0,0.7,0,0.9,0C138.9,142.4,138.8,141.9,138.7,141.4z"/>
	<path d="M121.2,62.3c0-1.7,0-3.3,0-5c0-1.2,0.6-1.7,1.8-1.4c0.9,0.2,1,0.3,1,1.3c0,0.9,0.2,1.8,0.3,2.7c0.1,0.8,0.8,0.6,1.3,0.7
		s0.8-0.3,0.8-0.8c0.1-0.9,0.1-1.8,0.1-2.8c0-0.6,0.1-0.9,0.7-0.9c0.5,0,1,0,1.5,0c0.6,0,0.7,0.3,0.8,0.8c0,0.5,0.1,0.9,0.1,1.4
		c0,3.1-0.1,6.3-0.1,9.4c0,1-0.5,1.4-1.3,1.5c-1.1,0.1-1.6-0.5-1.6-1.5c0-1-0.1-2-0.1-3c0-0.7-0.5-1.3-1.1-1.2c-0.5,0.1-1,0.3-1.1,1
		c0,1-0.2,2.1-0.2,3.1c0,1-0.3,1.4-1.2,1.4c-1.1,0-1.7-0.3-1.6-1.4C121.2,65.7,121.1,64,121.2,62.3
		C121.1,62.3,121.2,62.3,121.2,62.3z"/>
	<path d="M134.8,55.6c1.2,0,1.6,0.7,1.8,1.5c0.3,1.3,0.6,2.7,0.9,4c0.3,1.2,0.5,2.4,0.7,3.6c0.2,1.1,0.5,2.2,0.6,3.3
		c0,0.2-0.3,0.6-0.5,0.7c-0.6,0.1-1.2,0.2-1.7,0c-0.3-0.1-0.6-0.6-0.8-1c-0.2-0.6-0.3-1.2-1.1-1.2c-1.1-0.1-1.4,0.1-1.8,1
		c-0.3,0.8-0.8,1.4-1.7,1.4c-0.3,0-0.7-0.2-0.8-0.4c-0.2-0.4-0.4-1-0.3-1.4c0.4-2.1,0.8-4.1,1.3-6.2c0.2-1,0.4-2,0.6-3
		c0.2-0.6,0.4-1.3,0.9-1.7C133.4,55.8,134.2,55.8,134.8,55.6z M134.2,63.2c0.8-0.5,0.8-0.9,0.1-1.4
		C134.2,62.3,134.2,62.8,134.2,63.2z"/>
	<path d="M115.6,59.1c0,0.9,0,1.7,0,2.6c0,1,0,2,0,3.1c0,0.3,0.2,0.9,0.4,0.9c0.4,0.1,0.9,0,1.3-0.2c0.5-0.2,0.7-0.7,0.7-1.3
		c0-1.3,1.2-1.9,2.3-1.2c0.1,0.1,0.2,0.2,0.3,0.3c0.5,1,0.5,3.4-0.4,4.3c-0.4,0.4-1,0.9-1.5,1c-1.3,0.2-2.6,0.3-3.8,0.1
		c-1.4-0.3-2-1.6-2-2.9c-0.1-2.4-0.1-4.8,0-7.2c0.1-1.7,1.1-2.6,2.8-2.6c1,0,2,0,3,0c1.2,0,1.7,0.9,2.1,1.8c0.3,0.6,0.3,1.3,0.3,1.9
		c0.1,0.7-0.3,1.1-0.9,1.3c-0.8,0.2-1.6,0-1.9-0.6c0,0,0-0.1-0.1-0.1c-0.2-0.4-0.2-1.1-0.5-1.1C117,59,116.3,59.1,115.6,59.1z"/>
	<path d="M140.8,36.8c-0.4,0.6-0.6,0.8-1.3,0.6c-0.7-0.2-1.5,0-2.3-0.1c-1.6-0.3-3.7-1.2-4.1-3c-0.2-0.9,0-1.7,0.4-2.5
		c1.9-3.4,4.5-6,8.2-7.3c1-0.4,2-0.7,3.1-0.5c1.6,0.2,2.1,1.5,1.8,2.7c-0.3,1.6-0.9,3.2-1.4,4.8c-0.4,1.1-0.8,2.3-1.1,3.4
		c-0.3,0.8-0.1,1.1,0.8,1.1c1,0.1,1.8-0.1,2.4-1.1c0.2-0.4,0.6-0.7,0.9-0.9c0.6-0.5,0.8-0.4,1.1,0.3c0.1,0.2,0.1,0.3,0.1,0.6
		c1.1-0.1,2.1-0.3,3.2-0.4c0.8-0.1,1.5-0.3,2.2-0.4c0.1,0,0.4,0.2,0.3,0.2c-0.1,0.3-0.2,0.7-0.4,0.8c-1.1,0.4-2.3,0.6-3.5,0.9
		c-0.9,0.2-1.7,0.4-2.6,0.7c-0.9,0.2-1.8,0.5-2.7,0.7c-0.9,0.2-1.8,0.3-2.6,0.6c-0.9,0.3-1.2,1.1-1.3,2c-0.1,0.7,0,1.4-0.2,2.1
		c-0.2,0.8-0.6,1.7-1.1,2.5c-0.1,0.2-0.6,0.4-0.9,0.3c-0.2,0-0.4-0.5-0.4-0.8c0.1-0.8,0.3-1.6,0.4-2.4c0.1-1,0.2-2,0.3-3
		c0.1-0.4,0.3-0.8,0.6-1.1c1.7-1.7,2.7-3.8,3.4-6c0.5-1.4,0.8-2.9,1.3-4.3c0.2-0.7,0.3-1.4-0.3-2c-0.6-0.6-1.3-0.5-2-0.4
		c-2.1,0.6-3.9,1.6-5.5,3c-1.6,1.3-2.7,3-3.7,4.7c-0.7,1.3,0,2.6,1.3,3c1.3,0.4,2.7,0.6,4.1,0.9C140,36.6,140.4,36.7,140.8,36.8z"/>
	<path d="M139.5,62.1c0-1.7,0-3.5,0-5.2c0-0.8,0.1-0.9,0.9-0.9c1.6,0,3.3,0,4.9,0c0.3,0,0.8,0.2,0.8,0.4c0.1,0.7,0,1.4-0.1,2.1
		c0,0.1-0.2,0.2-0.4,0.3c-0.8,0.1-1.5,0.2-2.3,0.2c-0.5,0-0.9,0.1-1,0.7c-0.1,0.4,0,0.7,0.5,0.8c0.8,0.1,1.6,0.2,2.4,0.2
		c0.5,0,0.8,0.2,0.9,0.6c0.1,0.6,0,1.1,0,1.7c0,0.3-0.3,0.5-0.7,0.5c-0.8,0-1.5,0.1-2.3,0.3c-0.6,0.1-0.8,0.5-0.8,1.1
		c0,0.7,0.4,0.8,0.9,0.8c0.7,0,1.4,0,2.1,0.1c0.6,0,0.9,0.4,0.8,1c0,0.2,0,0.3,0,0.5c0,1.2-0.1,1.3-1.2,1.3c-1.5,0-3,0-4.5,0
		c-0.8,0-1.1-0.3-1.1-1.1C139.5,65.7,139.5,63.9,139.5,62.1z"/>
	<path d="M102.8,145.3c0.1-1,0.2-1.9,0.2-2.8c0.1-2.1,0.1-4.2,0.2-6.2c0-0.9,0.2-1,1-1c1.7,0,1.8,0,1.8,1.8c0,2.9,0,5.9,0,8.8
		c0,1.4-1.1,2.4-2.5,2.4c-0.8,0-1.7-0.1-2.5,0c-1.9,0.2-3-1.5-3.1-2.9c0-0.7,0-1.4,0.1-2.1c0.1-0.7,0.9-0.9,2-0.9
		c0.7,0,0.9,0.5,0.9,1.1c0,0.4,0.1,0.8,0.2,1.2c0,0.2,0.3,0.4,0.4,0.4C101.9,145.3,102.3,145.3,102.8,145.3z"/>
	<path d="M152.5,68.5c-1.7,0-3.4,0-5.1,0c-0.6,0-0.6-0.6-0.6-1c0-1.4,0-2.7,0-4.1c0-2.2,0-4.4,0-6.5c0-0.3,0-0.5,0-0.8
		c0.9,0,1.6,0,2.4,0c0.1,0,0.4,0.4,0.4,0.7c0,2.2,0,4.5,0,6.7c0,0.2,0,0.4,0,0.6c0.2,1.8,0.1,1.8,1.7,1.7c0.2,0,0.4,0.1,0.6,0.1
		c0.6,0,0.9,0.3,0.8,0.9c0,0.3,0.1,0.6,0.1,0.9C152.7,67.8,152.6,68.1,152.5,68.5z"/>
	<path d="M112.1,62.4c0,1.7,0,3.4,0,5.1c0,1.1-0.4,1.4-1.5,1.3c-1.2-0.2-1.4-0.4-1.4-1.7c0-3.3,0.1-6.5,0.1-9.8
		c0-0.4,0.2-1.2,0.5-1.2c0.6-0.2,1.3-0.1,1.9,0c0.2,0,0.3,0.7,0.3,1.1C112.1,58.9,112.1,60.7,112.1,62.4
		C112.1,62.4,112.1,62.4,112.1,62.4z"/>
	<path d="M210.4,66.1c-1.1-0.1-1.4-0.5-1.1-1.6c0.4-1.3,0.7-2.5,1.1-3.8c0.1-0.2,0.3-0.5,0.5-0.5c0.1,0,0.5,0.2,0.6,0.4
		c0.5,1,1,2,1.4,3.1c0.4,1.1-0.1,1.9-1.3,2.1C211.2,65.8,210.8,66,210.4,66.1z"/>
	<path d="M183.5,88.3c0.6-0.1,1.2-0.1,1.7-0.1c0.5,0,0.7,0.2,0.7,0.8c0,2.2,0,4.5,0,6.7c0,0.5,0.1,1.1,0.2,1.6
		c0.1,0.3,0.3,0.5,0.4,0.8c0.3-0.3,0.4-0.6,0.6-0.9c0.3-0.5,0.6-0.3,0.7,0.1c0.1,0.3,0.1,0.6,0.1,0.9c0,0.7,0,1.5,0,2.4
		c-1.2-0.3-2.2-0.4-3.3-0.7c-0.2-0.1-0.4-0.6-0.5-1c-0.2-2.3-0.3-4.7-0.4-7c-0.1-1-0.3-2-0.4-3C183.4,88.7,183.4,88.5,183.5,88.3z"
		/>
	<path d="M109.5,117.4c0.3,0.1,0.4,0.2,0.6,0.2c3.3,0,6.7-0.1,10.1-0.1c1.6,0,3.2,0,4.8,0c0.8,0,0.9,0.2,0.9,0.9c0,3.3,0,6.6,0,9.9
		c0,0.5-0.2,0.7-0.7,0.7c-10,0-20,0-30,0c-0.1,0-0.2,0-0.4,0c-0.1-0.4-0.1-0.8-0.1-1.2c0-2.3,0.1-4.6,0-6.8
		c-0.1-2.2,0.6-3.9,1.9-5.6c3.3-4.1,6.4-8.3,9.6-12.5c1.7-2.3,3.5-4.5,5.3-6.8c0.3-0.4,0.6-0.7,0.9-1.1c0.6-0.9,0.7-2,0.7-3
		c0-2.5,0-5,0-7.4c0-1-0.2-1.2-1.2-1.2c-2.7,0-5.4,0-8.1,0c-1.1,0-1.2,0.3-1.2,1.3c0,1.8,0,3.7-0.1,5.5c-3.5,0-6.9,0-10.4,0
		c0-0.3,0-0.6,0-0.9c0-2.5,0-5.1,0-7.6c0-0.6,0.3-1.3,0.6-1.8c1.7-2.4,3.6-4.8,5.3-7.3c0.4-0.5,0.8-0.8,1.5-0.8
		c5.3,0,10.7-0.1,16-0.1c0.8,0,1.3,0.3,1.8,0.8c1.8,2,3.7,4,5.5,6c0.6,0.7,0.9,1.4,0.9,2.3c0,4.5,0,9.1,0,13.6
		c0,1.3-0.2,2.6-0.3,3.9c0,0.2-0.1,0.3-0.2,0.5c-1.7,2.4-3.4,4.7-5.1,7.1c-2.2,3.1-4.5,6.1-6.8,9.2
		C110.7,115.7,110.1,116.5,109.5,117.4z"/>
</g>
</svg>
