<?xml version="1.0" encoding="utf-8"?>
<!-- Generator: Adobe Illustrator 26.0.3, SVG Export Plug-In . SVG Version: 6.00 Build 0)  -->
<svg version="1.0" id="Слой_1" xmlns="http://www.w3.org/2000/svg" xmlns:xlink="http://www.w3.org/1999/xlink" x="0px" y="0px"
	 viewBox="0 0 239.5 150.2" style="enable-background:new 0 0 239.5 150.2;" xml:space="preserve">
<style type="text/css">
	.st0{fill:#17171C;}
</style>
<g>
	<path class="st0" d="M186.1,87.5c2.9-4.5,4.7-9.7,5.4-15c0-0.3,0-0.8,0.2-1.2c6.4-9.9,12.7-19.7,19.1-29.5c0.1-0.1,0.1-0.3,0.2-0.6
		c-5.4-1.5-10.8-2.9-16.3-4.1c1.2-1.6,2.4-3.1,3.6-4.8c0.1-0.2,0.2-0.5,0.2-0.7c-0.2-0.2-0.5-0.2-0.8-0.2c-3.5-1-6.9-2-10.4-3h-0.1
		c-0.2-0.1-0.6-0.3-0.9-0.2c-0.5,0.5-0.9,1-1.4,1.5c-0.9,1.2-1.9,2.2-2.8,3.4c-0.3,0.3-0.6,0.8-1,1c-0.7,0-1.5-0.2-2.2-0.3
		c-1.7-0.3-3.5-0.7-5.4-0.9c-0.5-0.1-0.9-0.2-1.3-0.2c-0.6-0.2-1.3-0.1-1.9-0.5c-4.3-2.2-9.1-3.5-14-3.7c-0.8,0-1.6-0.1-2.3,0
		c-2.6,0-5.1,0.3-7.6,1c-1.3,0.3-2.6,0.7-3.8,1.3c-1.2,0.2-2.1,0.9-3.3,1.3c-0.6,0.2-1.3,0.1-2,0.2c-2.6,0.2-5.2,0.6-7.8,0.9
		c-0.3,0-0.8,0.2-1-0.1c-1-1.4-2.3-2.8-3.4-4.2c-0.3-0.3-0.6-0.8-0.9-1c-0.6-0.1-1,0.1-1.6,0.2c-3.1,0.8-6.3,1.5-9.4,2.3
		c-0.5,0.1-0.8,0.2-1.3,0.3c0,0.2,0,0.5,0.2,0.6c0.9,1.4,1.9,2.8,2.8,4.1c0.1,0.1,0.2,0.3,0.1,0.5c-4.9,1-9.9,2.2-14.5,4.2
		c-0.7,0.3-1.5,0.6-2.2,1c0.1,0.2,0.2,0.5,0.3,0.7c1.9,3,3.7,5.9,5.7,8.8c3.8,6,7.7,12,11.5,18c0.1,0.1,0.1,0.3,0.3,0.3
		c0,0.1,0,0.3,0,0.5c-0.8,0-1.6-0.1-2.4,0.1c-0.8,0.1-1.7,0.2-2.6,0.5c-1.3,0.5-2.4,1.2-3,2.3c-0.3,0.8-0.8,1.6-0.9,2.6
		c-0.5,2.9,0.5,5.8,2.1,8.1c1.6,2.3,4.1,4,6.6,5.1c2.1,0.9,4.4,1.4,6.6,1.7c0.6,0,1,0,1.6,0c0.6,0.6,1,1.4,1.6,2
		c1.9,2.1,4,4.1,6.3,5.5c0,0.3-0.2,0.5-0.5,0.7c-1.3,1.7-2.7,3.4-4,5.1c-0.3,0.5-0.7,0.8-0.9,1.3h-0.1c-0.2,0.3-0.6,0.9-1,0.6
		c-6-1.7-12.1-3.6-18.3-5.4c-0.5-0.1-0.8-0.3-1.3-0.2c-0.1,0.2-0.2,0.6-0.3,0.8c-0.7,2-1.2,4.1-1.9,6.2c-0.7,2.3-1.4,4.5-2,6.9
		c0,0.1,0,0.3,0,0.5c0.7,0.1,1.4,0.2,2.1,0.5c3,0.5,6,0.9,9.2,1.4c2,0.3,4,0.6,5.9,0.9c2.4,0.3,4.9,0.8,7.3,1
		c0.2,0.1,0.5,0.1,0.8,0.2c1.2,0.1,2.2,0.3,3.4,0.2c0.5-0.5,0.8-1,1.3-1.5c1.9-2.3,3.8-4.7,5.7-7.1c0.8-0.9,1.5-2,2.3-2.9
		c0.3,0.2,0.6,0.8,0.8,1.2c0.3,0.3,0.5,0.8,0.8,1.3c2.8,4.4,5.6,8.8,8.4,13.1c1.4,2.2,2.8,4.5,4.3,6.7h0.1
		c3.7-5.7,7.3-11.4,11.1-17.2c0.7-1,1.3-2.2,2.1-3.3c0.2-0.5,0.6-0.9,0.8-1.4c0.2-0.1,0.5-0.5,0.6-0.2c0.5,0.5,0.8,1,1.3,1.6
		c0.3,0.3,0.5,0.8,0.8,1.2c2.2,2.8,4.4,5.7,6.7,8.5c0.9,0,1.9-0.1,2.9-0.2c4.3-0.7,8.5-1.3,12.8-1.9c4.2-0.7,8.4-1.2,12.6-2
		c0-0.8-0.3-1.6-0.6-2.6c-0.7-2.3-1.3-4.8-2-7.1c-0.5-1.5-0.7-3-1.3-4.4c-0.8,0-1.5,0.3-2.3,0.6c-5.7,1.6-11.3,3.3-17,4.9
		c-0.2,0-0.5,0.1-0.6,0c-1.9-2.6-3.7-5-5.6-7.6c-0.2-0.2-0.5-0.6-0.5-0.9c1.6-1,3.3-2.2,4.7-3.5C182.9,91.8,184.7,89.9,186.1,87.5z
		 M195.9,33.9c-0.1,0.2-0.3,0.3-0.6,0.6c-0.5,0-0.8-0.1-1.2-0.3c0.5-0.2,0.2-0.7-0.1-0.9c0.1-0.5,0.6-0.8,0.9-0.9
		C195.7,32.2,196.2,33.2,195.9,33.9z M185.2,35.4c0.6-0.8,1.2-1.6,1.9-2.3c0.1-0.2,0.5-0.1,0.7-0.1c1.5,0.5,3.1,0.8,4.7,1.4
		c-0.1,0.2-0.1,0.3-0.2,0.5c-1.4,1.7-2.8,3.5-4.2,5.2c-0.9,1.2-1.9,2.4-2.8,3.6c-1.3,1.5-2.4,3-3.7,4.7c-1.2,1.4-2.1,2.8-3.3,4.1
		c-0.6,0.7-1.2,1.5-1.9,2.2c-0.1-0.1-0.1-0.2-0.2-0.5c-0.2-1.7-0.8-3.5-1.4-5.1c-0.1-0.5,0.3-0.8,0.6-1.2c1.2-1.5,2.4-3,3.6-4.5
		c1.2-1.4,2.2-2.9,3.5-4.3C183.3,37.8,184.3,36.6,185.2,35.4z M136,34.6c0.6,0,1.3-0.1,1.7-0.5c5.2-2.8,11.2-4.2,17.1-4.1
		c2.7,0,5.4,0.3,8,0.9c1.6,0.3,3.1,0.9,4.8,1.5c1.5,0.6,2.9,1.2,4.3,2c0.6,0.3,1.3,0.3,1.9,0.5c2.9,0.6,5.9,1,8.8,1.7
		c-0.1,0.3-0.3,0.6-0.6,0.8c-0.8,1-1.6,2-2.3,3c-0.1,0.2-0.2,0.3-0.5,0.6c-0.3,0-0.6-0.3-0.8-0.6c-3.6-3.4-7.9-5.9-12.6-7.6
		c-9.3-3.1-20-2.3-28.5,2.6c-2,1-3.8,2.3-5.6,3.8c-0.2,0.2-0.5,0.6-0.8,0.6c-0.2-0.2-0.3-0.3-0.5-0.6l0,0c-0.6-0.9-1.3-1.9-2-2.7
		c-0.2-0.2-0.3-0.5-0.6-0.8C130.6,35.3,133.4,35,136,34.6z M141,68.1c-0.1,0.1-0.1,0.2-0.2,0.3c-1,0.9-2.1,1.9-3.3,2.7
		c-0.1,0.1-0.2,0.1-0.5,0.2c-0.5-0.9-0.6-2.1-0.3-3c0.3-1,1.3-2,2.4-2.3C139.4,66.9,140.1,67.9,141,68.1z M120.4,32.3
		c0.8-0.2,1.7-0.5,2.6-0.5c1.5,1.9,2.9,3.8,4.3,5.6c0.6,0.7,1,1.5,1.6,2.2c0.6,0.7,1,1.5,1.7,2.2c0.6,0.8,1.3,1.5,1.7,2.4
		c2.2,2.9,4.4,5.8,6.6,8.7c0.2,0.2,0.1,0.5,0,0.7c-0.3,1.5-0.6,3-0.7,4.5c0,0.3-0.1,0.8-0.2,1.2c-2.1-2.4-4-5.1-6-7.7
		c-1-1.4-2.1-2.8-3.1-4.1c-1.6-2.2-3.4-4.3-5-6.5c-1-1.3-2-2.6-3-3.8c-0.9-1.2-1.9-2.4-2.8-3.6c-0.2-0.2-0.3-0.5-0.5-0.7
		C118.8,32.6,119.6,32.5,120.4,32.3z M115,33.3c-0.2-0.2-0.6-0.5-0.7-0.7c0-0.6,0.3-1,0.7-1.3c0.3,0,0.7,0,1,0.1
		c0.2,0.2,0.5,0.7,0.5,1C116.5,33.1,115.7,33.6,115,33.3z M115.1,63.9c-3.5-5.6-7-11.1-10.5-16.5c-0.8-1.3-1.6-2.6-2.4-3.8
		c-0.3-0.5-0.7-1-0.9-1.5c0.6-0.3,1.2-0.6,1.9-0.8c4.9-1.7,10-2.8,15.1-3.8c0.3-0.1,0.6-0.1,0.9-0.1c0.1,0.2,0.2,0.3,0.3,0.6
		c1.7,2.3,3.6,4.7,5.2,7c0.1,0.1,0.1,0.2,0.2,0.2c0.2,0.2,0.6,0.6,0.5,0.9c-1.2,1.5-2.1,3.1-2.9,4.9c-3.3,6.2-4.4,13.5-3.5,20.4
		c0,0.1,0,0.3,0,0.3c-0.3,0-0.7,0-0.9,0c-0.1-0.7-0.1-1.5-0.2-2.2c0-0.5,0-0.9-0.2-1.3C117,66.7,116,65.3,115.1,63.9z M120.8,85.9
		c-2.4-0.6-4.8-2-6.4-3.8c-0.7-0.8-1.2-1.6-1.6-2.6c-0.6-1-1-2.3-0.8-3.6c0.1-0.7,0.5-1.3,1-1.7c0.8-0.7,1.9-0.8,2.9-0.9
		c2.9-0.1,5.7,0.3,8.5,1c5,1.3,9.9,3.4,14.1,6.2c0.3,0.2,0.7,0.6,1.2,0.7c-0.1-0.2-0.2-0.5-0.3-0.6c-1.5-1.6-3.5-2.9-5.5-4.1
		c-0.5-0.3-1-0.6-1.5-0.8v-0.1c0.8-0.3,1.7-0.7,2.6-1c4-2,7.3-5,10.4-8.3c0.1-0.1,0.2-0.1,0.3-0.2c0.3,0.3,0.8,0.7,1.3,0.8
		c1,0.5,2.1,0.3,3.1,0.2c0.2,0,0.3,0.1,0.5,0.2c1.9,2.1,4.9,3,7.7,2.7c1.9-0.3,3.6-1.3,4.8-2.7c1.5-1.9,2.2-4.3,2.4-6.7
		c1-0.6,2.3-0.5,3.4-0.1c-0.1-0.3-0.5-0.5-0.7-0.6c-1-0.2-2-0.7-3-0.7c-1.9-0.1-3.5,0.8-5.1,1.5c-2.6,1.4-5.1,2.9-7.8,4.2
		c-1.2,0.6-2.4,0.9-3.7,0.7c-1-0.1-2.2-0.7-2.6-1.7c-0.5-0.9-0.2-2-0.2-3c-0.3,0.6-0.6,1.2-0.8,1.9c-0.1,0.8,0.3,1.6,0.5,2.4
		c-1,0.2-2.2,0.5-3.1-0.2c-1.2-0.8-1.5-2.3-1.6-3.7c-0.1-0.7,0-1.4,0-2.2c0-1.3,0.1-2.6,0.5-3.8c0.3-1.7,0.8-3.4,1.5-5
		c2.4-6.2,7.3-11.2,13-14.4c1.2-0.7,2.4-1.4,3.8-1.5c1,0,2.2-0.1,3.3,0.3c2.2,0.8,4,2.6,5.2,4.4c1.6,2.4,3,5.1,4.2,7.8
		c1.2,2.7,2,5.5,2.8,8.3c1.2,4.5,2,9.2,2.2,13.8c0.2,6.2-0.6,12.3-2.9,18c-0.3,1.2-1,2.2-1.5,3.4c-0.2,0.3-0.3,0.7-0.6,1
		c-1.5,1.2-3.1,2.1-4.8,3c-2.4,1.2-5.1,2.2-7.8,2.4c-3.4,0.5-6.9,0.1-10.2-0.6c-2.3-0.6-4.4-1.6-6.5-2.9c-4.4-2.7-8.3-6.2-12.2-9.4
		c-3.8-3.4-8.7-5.8-13.8-6.6c0.5,0.3,1,0.5,1.6,0.7c0.8,0.3,1.6,0.8,2.4,1.2c2.9,1.5,5.7,3,8.4,4.9c0.5,0.3,0.9,0.7,1.2,1.3
		C127,86.7,123.7,86.7,120.8,85.9z M125.2,88.5c-0.2-0.3-0.5-0.6-0.6-0.9c0.3,0,0.7,0,1,0c1.4,1.9,2.9,3.7,4.7,5.2
		c1.2,0.9,2.2,2,3.5,2.9c0.6,0.5,1.2,0.8,1.7,1.3c-0.1,0.2-0.2,0.5-0.5,0.7c-0.2,0.1-0.3-0.1-0.6-0.1C131,95,127.8,92,125.2,88.5z
		 M110.8,111.4c-0.2,0-0.5,0-0.7-0.1c-1-0.2-2.2-0.3-3.3-0.6c0.1-0.9,0.5-1.7,0.7-2.6c0.3-1.2,0.7-2.3,1-3.6
		c0.1-0.2,0.1-0.5,0.3-0.7c0.7,0.1,1.4,0.5,2.1,0.7c0.5,0.2,1,0.2,1.5,0.6c-0.1,0.8-0.3,1.6-0.6,2.4
		C111.5,108.8,111.3,110.1,110.8,111.4z M120.1,113c-1.2-0.2-2.4-0.5-3.6-0.7l-0.1-0.1c0.1-1.2,0.1-2.3,0.1-3.5c0-0.2,0-0.5,0-0.7
		c0-0.2-0.3-0.1-0.3,0c0,1.3,0,2.6-0.6,3.7c-0.1,0.5-0.7,0.2-1.2,0.1c-0.8-0.2-1.7-0.1-2.6-0.5c0.5-2.1,0.8-4.2,1.3-6.2
		c0.2,0,0.5,0.1,0.7,0.1c0.1,0.3,0.5,0.6,0.5,0.9c0,1-0.1,2.2-0.3,3.3c0,0.2-0.1,0.5-0.1,0.7c0.2,0,0.3-0.1,0.3-0.2
		c0.5-1.4,0.7-2.8,0.9-4.2c0.9,0.1,1.7,0.6,2.6,0.8c0.2,0.1,0.6,0.1,0.6,0.5c0,0.7,0,1.5-0.1,2.2c-0.1,0.7-0.5,1.3-0.5,2
		c0.2,0,0.3-0.2,0.5-0.5c0.3-1.2,0.7-2.3,1-3.6c0.5-0.1,1,0.2,1.5,0.3c0,0.6,0.1,1.2,0,1.7c-0.1,0.9-0.3,1.9-0.5,2.8
		C120.3,112.3,120.2,112.7,120.1,113z M132.3,110.1c-0.1,0.1-0.1,0.2-0.2,0.3c-0.7,0.9-1.4,1.7-2.1,2.7c-0.3,0.3-0.6,0.8-1,1.2
		c-0.8,0-1.5-0.2-2.3-0.3c-2.1-0.3-4.2-0.6-6.2-0.9c0.1-1,0.6-2.1,0.8-3.1c0.1-0.7,0.3-1.3,0.5-2c1,0.1,2.1,0.6,3.1,0.8
		c0.7,0.2,1.4,0.5,2.2,0.7c0.2,0,0.6,0.2,0.8-0.1c0.9-1.2,1.9-2.2,2.7-3.5c1.7-2.2,3.4-4.4,5.1-6.6c1.3-1.6,2.6-3.3,3.8-4.9
		c0.6,0.2,1.2,0.7,1.6,1c0.6,0.3,1.2,0.8,1.7,1.3c-0.3,0.6-0.7,1-1.2,1.6C138.6,102.2,135.5,106.2,132.3,110.1z M168.4,104.3
		c-4.2,6.4-8.3,12.8-12.4,19.2c-0.5,0.7-1,1.4-1.4,2.2c-0.1,0-0.2-0.1-0.3-0.2c-4.7-7.4-9.3-14.8-14.1-22.2
		c-0.2-0.3,0.1-0.7,0.3-0.9c0.5-0.5,0.9-1,1.3-1.6c0.2-0.2,0.5-0.6,0.6-0.8c1,0.2,2.1,0.7,3.3,0.9c6.6,1.7,13.7,1.5,20.2-0.8
		c0.2-0.1,0.6-0.2,0.8-0.2c0.2,0.1,0.3,0.2,0.5,0.5v0.1c0.3,0.7,0.9,1.4,1.5,2c0.1,0.2,0.5,0.5,0.3,0.7
		C168.8,103.7,168.6,103.9,168.4,104.3z M196.5,105c1-0.2,2-0.7,3-0.8c0.7,2.1,1.3,4.3,1.9,6.4c0,0.1,0.1,0.3-0.1,0.3
		c-0.8,0.1-1.5,0.2-2.3,0.3c-0.6,0.1-1.2,0.2-1.7,0.2c-0.3-1.5-0.7-3.1-1-4.7c-0.1-0.5-0.3-1-0.3-1.5
		C195.8,105.1,196.3,105.1,196.5,105z M187.9,107.4c0.5-0.1,0.8-0.2,1.3-0.3c0.5,1.4,0.6,2.8,0.9,4.2c0.1,0.2,0.3,0,0.3-0.2
		c0-0.5-0.1-1-0.1-1.5c-0.1-0.9-0.6-1.9-0.1-2.8c1-0.2,2-0.7,3-0.8c0.2,1.2,0.3,2.3,0.6,3.5c0.1,0.5,0.1,1,0.5,1.4
		c0.5-0.6,0.1-1.3,0.1-1.9c0-0.7-0.1-1.5-0.1-2.2c0.2-0.5,0.5-0.9,0.6-1.4c0.2,0,0.3,0,0.6,0c0.1,2.1,0.5,4.2,0.7,6.3
		c-0.2,0.2-0.6,0.1-0.9,0.2c-0.8,0.1-1.6,0.3-2.6,0.2c-0.2-1.3-0.1-2.6-0.1-3.8c-0.1,0-0.2-0.1-0.3-0.1c-0.3,0.6-0.5,1.3-0.6,1.9
		c-0.1,0.8-0.2,1.5-0.3,2.3c-0.8,0.1-1.6,0.2-2.4,0.3c-0.2,0-0.6,0.1-0.8,0c-0.1-1.4-0.2-2.8-0.3-4.2
		C187.7,108.2,187.9,107.9,187.9,107.4z M176.9,104.2c0.9,1.2,1.7,2.4,2.7,3.6c0.5,0.6,0.8,1.2,1.3,1.6c0.2,0.1,0.3,0,0.6-0.1
		c1.3-0.3,2.4-0.8,3.7-1c0.5-0.1,0.9-0.3,1.4-0.3c0.1,0,0.2,0,0.2,0.2c0.1,0.6,0.2,1.2,0.3,1.7c0.1,1,0.5,2,0.6,3v0.1
		c-0.6,0.2-1.3,0.1-1.9,0.2c-2.1,0.3-4.2,0.6-6.2,0.9c-0.2,0-0.5,0-0.6-0.2c-4.1-5.4-8.1-10.8-12.2-16.2c-0.2-0.2-0.3-0.5-0.6-0.8
		c1.2-0.6,2.4-1.2,3.6-1.7c0.3,0.3,0.6,0.7,0.9,1c1.5,2,3,4.1,4.5,6C175.9,102.9,176.4,103.6,176.9,104.2z M177.4,94.9
		c-1.2,0.9-2.3,1.9-3.7,2.7c-0.2-0.2-0.3-0.5-0.6-0.8c9.3-5.7,15.7-15.9,16.6-26.9c0.7-7.6-1-15.2-5-21.8c-0.1-0.3-0.5-0.6-0.5-0.9
		c0.1-0.3,0.3-0.5,0.6-0.8c0.5-0.5,0.8-1,1.3-1.5c1-1.4,2.1-2.7,3.1-4.1c0.5-0.6,1-1.2,1.4-1.9c0.1-0.2,0.3-0.3,0.5-0.5
		c0.9,0.1,1.9,0.5,2.8,0.6c4.8,1.2,9.5,2.3,14.2,3.7c-0.2,0.6-0.6,0.9-0.8,1.4c-4.3,6.6-8.6,13.3-12.8,19.8
		c-1.2,1.7-2.3,3.6-3.5,5.4c-0.2,0.3-0.3,0.8-0.3,1.3c-0.6,4.3-1.7,8.6-3.8,12.4C184.7,87.7,181.4,91.6,177.4,94.9z"/>
	<path class="st0" d="M154.1,39c-0.3-0.3-0.8-0.2-1.2-0.2c-1,0.5-1.9,1.5-1.7,2.7c0,0.5,0.2,0.8,0.7,0.9c0.5,0.2,0.8,0,1.3-0.2
		c0.7-0.3,1-1,1.3-1.7C154.5,40,154.4,39.4,154.1,39z"/>
	<path class="st0" d="M148.4,45.5c-0.3-0.3-0.8-0.2-1.2-0.2c-0.9,0.3-1.5,1.3-1.6,2.2c0,0.5,0.1,1,0.6,1.3c0.5,0.2,1,0.1,1.4-0.1
		c0.7-0.3,0.9-1,1.2-1.7C148.8,46.5,148.8,45.9,148.4,45.5z"/>
	<path class="st0" d="M151,56.9c-0.3,0-0.7,0-1,0c-0.8,0.2-1.6,0.8-1.9,1.6c-0.1,0.5-0.1,1,0.3,1.3c1.3,0.7,2.9-0.2,3.3-1.5
		C152,57.8,151.6,57.1,151,56.9z M148.9,58.1c0.1-0.5,0.6-0.6,1-0.7C149.8,57.8,149.4,58,148.9,58.1z"/>
	<path class="st0" d="M165.5,48.9c-0.7,0.2-1.3,0.7-1.6,1.3c-0.1,0.5-0.2,0.9,0.1,1.3c0.5,0.5,1.3,0.5,1.9,0.2
		c0.7-0.2,1.4-0.7,1.6-1.4c0.1-0.3,0.1-0.8-0.1-1C166.9,48.7,166.2,48.7,165.5,48.9z"/>
	<path class="st0" d="M158.8,52.5c-0.3-0.5-1-0.3-1.5-0.2c-0.9,0.2-1.7,1-2,2c-0.1,0.7,0.6,1.2,1.2,1.2c1,0,2.1-0.7,2.6-1.6
		C159.2,53.3,159.2,52.8,158.8,52.5z"/>
	<path class="st0" d="M170.6,69.7c0.9-0.1,1.9-0.7,2.2-1.6c0.2-0.5-0.1-1.2-0.6-1.3c-0.5-0.2-1-0.1-1.5,0c-0.8,0.2-1.5,0.9-1.6,1.9
		C169,69.5,169.9,69.9,170.6,69.7z M170.8,67.3c-0.2,0.3-0.7,0.6-1,0.7C170,67.6,170.5,67.3,170.8,67.3z"/>
	<path class="st0" d="M144.5,53.2c-0.2-0.1-0.6-0.1-0.9,0.1c-0.8,0.5-1.3,1.5-1.3,2.4c0,0.6,0.2,1.2,0.8,1.3c0.3,0.1,0.8,0,1-0.2
		c0.7-0.5,1-1.4,1-2.2C145.2,54,145.1,53.5,144.5,53.2z"/>
	<path class="st0" d="M161.3,72.6c0.5,0.3,1,0.3,1.5,0.2c0.8-0.2,1.6-0.7,1.9-1.5c0-0.3,0.1-0.8-0.2-1c-0.5-0.5-1.3-0.5-1.9-0.3
		c-0.7,0.2-1.3,0.7-1.6,1.3C160.8,71.8,160.8,72.4,161.3,72.6z"/>
	<path class="st0" d="M145.3,74c0.9-0.9,0.8-2.6,0-3.5c-0.3-0.3-0.8-0.5-1.3-0.2c-0.5,0.1-0.7,0.6-0.8,1c-0.1,0.8-0.1,1.9,0.5,2.4
		C144.1,74.3,144.9,74.5,145.3,74z"/>
	<path class="st0" d="M151.2,73.8c0.6,0.1,1.3-0.3,1.2-1c0-0.7-0.3-1.3-0.8-1.6c-0.6-0.6-1.4-0.9-2.2-0.6c-0.3,0.1-0.6,0.5-0.6,0.7
		C148.7,72.5,150,73.7,151.2,73.8z"/>
	<path class="st0" d="M155,79.4c0.6,0.2,1.4,0.3,1.9-0.3c0.3-0.7,0-1.4-0.5-2c-0.6-0.7-1.4-1-2.3-0.9c-0.3,0.1-0.6,0.3-0.7,0.7
		C153.3,78,154.1,79,155,79.4z"/>
	<path class="st0" d="M145.1,77.3c-0.8,0.2-0.9,1.2-0.9,1.9c0,0.8,0.3,1.5,1,2c0.3,0.1,0.9,0.1,1.3-0.2c0.8-0.9,0.7-2.4,0-3.3
		C146,77.4,145.6,77.2,145.1,77.3z"/>
	<path class="st0" d="M159.8,85.8c0.3,0.2,0.9,0.2,1.3,0.1c0.6-0.2,0.7-1,0.6-1.5c-0.3-1.2-1.4-2.2-2.6-1.9c-0.5,0.1-0.6,0.6-0.7,1
		C158.4,84.5,159,85.3,159.8,85.8z"/>
	<path class="st0" d="M163.7,88.6c-0.7,0.3-0.7,1.2-0.5,1.7c0.3,1,1.4,2,2.6,1.6c0.3-0.2,0.6-0.5,0.6-0.9
		C166.5,89.7,165.1,88.2,163.7,88.6z M165.6,90c-0.3-0.1-0.7-0.5-0.8-0.8C165.1,89.2,165.5,89.5,165.6,90z"/>
	<path class="st0" d="M145.9,85.1c-0.1,1.4,1.3,2.4,2.6,2.3c0.5,0,1-0.5,1-0.9c0.1-0.7-0.3-1.3-0.8-1.6c-0.6-0.5-1.4-0.8-2.1-0.6
		C146.3,84.4,145.9,84.6,145.9,85.1z"/>
</g>
</svg>
