<?xml version="1.0" encoding="utf-8"?>
<!-- Generator: Adobe Illustrator 26.0.3, SVG Export Plug-In . SVG Version: 6.00 Build 0)  -->
<svg version="1.0" id="Слой_1" xmlns="http://www.w3.org/2000/svg" xmlns:xlink="http://www.w3.org/1999/xlink" x="0px" y="0px"
	 viewBox="0 0 239.5 150.2" style="enable-background:new 0 0 239.5 150.2;" xml:space="preserve">
<g>
	<path d="M184.1,35.8c0.5,0.1,0.7,0.6,1,0.9c0.1-0.7-0.5-1.5-1.3-1.4c-1.4,0.1-2.8-0.1-4.1-0.6c-1.1,0.3-2.3,0.8-2.7,1.9
		c0.8-0.6,1.7-1.3,2.7-1.5C181.2,35.8,182.7,35.9,184.1,35.8z"/>
	<path d="M178.2,39.4c-0.1-0.9-1-1.1-1.8-1.1c0-0.5,0.2-0.9,0.3-1.4c-0.6,0.3-1,1.1-0.5,1.7C176.8,38.9,177.7,38.8,178.2,39.4z"/>
	<path d="M184.1,38.2c-0.3,0.6-1,1-1.5,0.5c-0.1,0.5,0.5,0.9,1,0.7s1.1-0.6,1.2-1.2c-0.1-0.5-0.2-1-0.6-1.3
		C184.1,37.3,184.1,37.7,184.1,38.2z"/>
	<path d="M178.4,39.8c-1.3-0.1-2.7,0.1-3.8,0.8c-0.5,0.3-0.6,0.8-0.5,1.3c0.3-0.3,0.6-0.6,1-0.8C176,40.4,177.3,40.3,178.4,39.8z"/>
	<path d="M184.1,45c0.5-1.1,0.5-2.4,0.1-3.6c-0.2-0.4-0.2-1.1-0.7-1.2c0.2,1,0.5,1.9,0.6,2.9c0,0.8-0.3,1.6-0.5,2.4
		C183.8,45.4,184,45.3,184.1,45z"/>
	<path d="M186.8,45.8c-0.2,0.7-0.6,1.2-0.9,1.8c0.6,0,1-0.4,1.3-0.8c0.6-0.9,0.6-2,0.4-3c-0.2-1.2-1-2.4-2.2-2.8
		c0.1,0.7,0.7,1.1,1.1,1.7C187,43.6,187.1,44.8,186.8,45.8z"/>
	<path d="M174.5,54.7c-0.8-0.7-1.8-1.3-2-2.4c-0.2-1.3-0.6-2.5-0.5-3.8c0.1-2.1,0.4-4.2,1.3-6.1c-0.7,0.6-0.9,1.5-1.1,2.4
		c-0.7,2.6-0.6,5.4,0.2,8C172.7,53.7,173.5,54.5,174.5,54.7z"/>
	<path d="M186.7,56.9c0.1,0.7,0.3,1.6,1.1,2c-0.3-0.9-0.8-1.7-0.7-2.6c0-1.3,0.9-2.4,1-3.6c0.3-2.1,0.6-4.2,0.1-6.3
		c-0.1,0.4-0.1,0.9-0.1,1.3c0.1,1.6-0.1,3.2-0.3,4.7C187.5,53.9,186.5,55.3,186.7,56.9z"/>
	<path d="M170.4,106.8c1.3-0.2,2.6-0.6,3.7-1.2c-1.3,0.1-2.5,0.6-3.7,0.8c-0.4-2.1,0-4.2-0.7-6.2c-0.4-1.5-0.6-3-0.7-4.6
		c-0.2-1.2-0.1-2.4-0.6-3.5c-0.4-0.9,0.5-1.7,0.5-2.5c0-0.9,0.1-1.7,0.2-2.6c0.1-1.4-0.4-2.8-0.7-4.2c-0.4-1.1-0.4-2.3-0.8-3.4
		c-0.3-0.7-0.2-1.4-0.1-2.1c0.1-1.6,1.1-3.1,1-4.7c-0.1-2.4-0.3-4.7-0.3-7.1c0-1.1,1.3-1.3,1.4-2.4c-1-1.1-2.5-1.6-3.8-2.3
		c-1.4-0.6-2.8-1.4-4.2-2c-1-0.4-1.8-1.1-2.7-1.6c-2.5-1.3-4.9-2.8-7.5-3.9c-1.5-0.6-2.8-1.3-4.3-1.9c-2-0.9-4.1-1.5-6.1-2.3
		c-1.6-0.7-3.5-0.3-5.1,0.3c-1.6,0.5-2.7,1.8-4,2.9c-0.8,0.5-1.2,1.4-1.5,2.3c-0.8,2.1-1.2,4.4-0.8,6.7c0.4,1.4,0.5,2.9,1.2,4.1
		c0.3,0.7,0.6,1.4,0.9,2.1c1.5,2.6,3.1,5.1,4.6,7.6c1.2,2,2.7,3.7,4.1,5.6c1.8,2.3,3.5,4.6,5.5,6.7c2.3,2.8,5,5.2,7.7,7.5
		c3.2,2.7,6.4,5.6,9.9,7.9c0.6,0.4,1,0.9,1.6,1.3c1.7,1.2,3.3,2.5,5.1,3.7C170.3,107.5,170.4,107.1,170.4,106.8z M167.6,88.2
		c-1-0.7-2.8-2.2-3.7-3.1c-2.1-1.9-4.5-3.6-6.6-5.6c-1.5-1.5-3.2-2.6-4.8-4c-1.6-1.5-3.3-2.8-4.9-4.4c-2.1-1.8-3.1-2.4-5.1-4.3
		c-1-1-2.9-2.9-3.7-4c-1.6-1.5-2.5-3.1-3.8-4.8c-0.7-0.9-1.5-2.1-2.1-3.1c-0.4-0.6-0.7-1.6-0.9-2.3c1.8,2.7,3.7,5.3,5.8,7.9
		c1.8,2,3.6,4,5.6,5.8c2.7,2.8,6.8,5.6,9.9,8.4c1.4,1.3,3.4,2.9,4.8,4.1c2.4,2.5,4.6,3.6,7,6c0.8,0.8,2,1.4,2.8,2.3
		C167.7,87.4,167.9,88.4,167.6,88.2z"/>
	<path d="M185.5,50.6c0.9,0.5,0.2,1.6,0.8,2.3c0.3-0.8,0.3-1.8-0.4-2.4c0.3-0.4,0.5-0.9,0.8-1.4C186,49.2,185.8,50,185.5,50.6z"/>
	<path d="M184.6,57.4h0.2c0.4-0.6,0.6-1.2,1-1.9c0.3-0.6,0.8-1.1,0.9-1.8c-0.9,1-1.6,2.2-2.1,3.4C184.6,57.2,184.6,57.4,184.6,57.4z
		"/>
	<path d="M179,54c-0.3,0.4-0.6,0.8-0.9,1.2c-0.5,0.5-1.3,0.4-1.5,1.2c0.4-0.2,0.8-0.4,1.2-0.6c0.5-0.2,0.8-0.7,1.1-1.2
		c0.5,0.5,1.1,1,1.8,1.1c0.6,0.2,1.2-0.2,1.5-0.6c-0.4,0.1-0.8,0.2-1.2,0.3C180.3,55.2,179.6,54.7,179,54z"/>
	<path d="M175.2,58.6c0.1,0.7,0.1,1.5,0.4,2.2c0-0.1,0.1-0.2,0.1-0.3c-0.2-1.7-0.4-3.4-0.5-5.1c-0.1,0-0.2,0-0.2,0
		C175,56.4,175.1,57.5,175.2,58.6z"/>
	<path d="M186.5,60.7c-0.9-0.4-1.5-1.2-1.8-2.1c-0.5-1-0.4-2.1-0.6-3.1c-0.5,1.5,0,3.2,0.9,4.5C185.4,60.5,185.9,61,186.5,60.7z"/>
	<path d="M177.1,60.8c0,0.1,0,0.3,0,0.5c0.6-0.2,1.2-0.4,1.9-0.5c1.2,0.5,2.2,1.2,3.4,1.7c0.6,0.2,1.3,0.2,1.8,0.6
		c1,0.8,2.3,0,3-0.9c-0.7,0.1-1.4,0.4-2,0.7c-0.4-0.4-0.8-0.9-1.4-1c-1.6-0.4-2.9-1.4-4.5-1.9C178.4,60.1,177.7,60.4,177.1,60.8z"/>
	<path d="M171,63.1c1.4-0.3,2.7-0.8,4.1-1.2c0.5-0.1,0.8-0.4,1.1-0.8c-2,0.8-4.2,1.2-6.2,2C170.3,63.2,170.7,63.1,171,63.1z"/>
	<path d="M188.1,62.8c0.8,0.5,1.7,0.9,2.6,1.3c0.4,0.5,0.7,1.3,1.4,1.4c-0.3-0.6-0.5-1.2-0.9-1.7c-0.9-0.7-2-1-3.1-1.4
		C188.1,62.4,188.1,62.7,188.1,62.8z"/>
	<path d="M188.6,70.6c-2.2-2.1-4.3-4.4-6-6.9c-0.2-0.3-0.4-0.5-0.7-0.6c0.6,2,2,3.5,3.3,5.1c1.5,1.9,3.4,3.4,5.3,4.8
		c0.5,0.3,1,0.6,1.5,0.9C191.1,72.6,189.8,71.7,188.6,70.6z"/>
	<path d="M180.2,70.4c0.5,1,1,2.1,1.7,3c-0.1-0.8-0.6-1.5-1-2.3c-0.9-2-2-4-3-6c-0.4-0.7-0.6-1.4-1.1-2c0,0.4,0.1,0.7,0.3,1.1
		C178.1,66.4,179.2,68.4,180.2,70.4z"/>
	<path d="M180.3,64.1c0.1,1.6,0.8,3.1,1.3,4.6c0.4,1.1,0.6,2.3,1.5,3.1c-0.9-2.4-1.6-4.9-2.4-7.3C180.5,64.3,180.4,64.1,180.3,64.1z
		"/>
	<path d="M170.8,64.6c-0.2-0.1-0.3,0.1-0.4,0.3c1.3,0.4,2.6,0,3.8,0.1C173.2,64.3,172,64.8,170.8,64.6z"/>
	<path d="M196,74.9c-1.2-2.7-2.3-5.4-3.2-8.2c-0.1-0.1-0.2-0.3-0.3-0.4l-0.3,0.1c0,1.7,0.7,3.3,1.4,4.8
		C194.3,72.5,194.8,73.9,196,74.9z"/>
	<path d="M169.7,77.3c0.1,0,0.3-0.1,0.5-0.1c-0.2-0.5-0.5-1.1-0.6-1.7c-0.1-1.8,0.2-3.8,1.4-5.3c0.9-0.6,2.1-0.5,3.1-0.5
		c1.2,0.2,2.5,0.4,3.4,1.2c0.8,0.5,1.4,1.3,2.1,1.9c-0.8-1.5-2-3.1-3.8-3.4c-1.3-0.3-2.7-0.6-4.1-0.5c-1.3,0.3-1.9,1.7-2.3,2.9
		C169.1,73.6,168.7,75.7,169.7,77.3z"/>
	<path d="M191,80.7c-0.4-1.4,0.2-2.8-0.1-4.2c-0.4-1.3-1.2-2.3-2.1-3.3c-0.5-0.5-0.8-1.2-1.5-1.5c0.4,2.1,2.7,3.2,3,5.3
		C190.6,78.2,189.8,79.8,191,80.7z"/>
	<path d="M182.3,72.1c0.7,3.6,2.2,7,2.6,10.7c0.4,1.6,0.6,3.5,2,4.6c-0.9-1.7-1.3-3.5-1.6-5.4c-0.4-2.9-1.5-5.7-2.3-8.5
		C182.8,73,182.8,72.3,182.3,72.1z"/>
	<path d="M174.1,80.2c-0.9-1.6-1.8-3.1-2.5-4.8c-0.2-0.5-0.3-1.1-0.7-1.4c-0.3,0.7,0.1,1.5,0.4,2.2c1.3,3,3,5.8,5,8.3
		c0.5,0.5,0.9,1.2,1.7,1.2C176.4,84,175.3,82.1,174.1,80.2z"/>
	<path d="M189.5,86.5c-0.5-1-1-1.9-1.4-2.9c-0.8-2-1.3-4.1-1.7-6.2c-0.1-0.4-0.2-1-0.6-1.3c0.4,2.9,0.9,5.9,2.2,8.5
		C188.3,85.3,188.8,86.1,189.5,86.5z"/>
	<path d="M200.2,106.9c1.3,0.9,2.6,1.8,3.8,2.8c1.6,1.3,3.2,2.4,4.9,3.6c1.8,1.4,3.7,2.9,5.7,4.2c3.3,2,6.5,4.1,9.6,6.3
		c1.8,1.3,3.4,2.7,5.2,4.1c1.7,1.3,3.5,2.4,5.3,3.5c1.6,1,3.2,2.1,4.9,3.1v-26.1C225.4,99,211.2,89.5,197,80
		c-0.9-0.7-1.9-1.2-2.8-1.9c-0.7-0.5,0.4-1.5-0.3-2c-1.3,1.7-1.1,3.9-1.2,5.9c0,1.7-0.6,3.2-1.1,4.8c-0.4,1.3-1.4,2.2-1.9,3.5
		c-0.5,1-0.4,2.1-0.7,3.1c-0.8,1-1.8,1.8-2.7,2.7c-0.2,0.2-0.3,0.4-0.4,0.6c0.6-0.1,1-0.5,1.5-0.8c0.6-0.5,1.2-1.2,1.7-1.8
		c0,1.3-0.2,2.7-0.2,4c-1,1-1.9,2.1-3,2.9c-1,0.8-2.3,1.1-3.2,1.9c-0.7,0.6-1.4,1.4-1.6,2.4c0.7-0.5,1.2-1.3,1.9-1.9
		c0.9-0.8,2.1-1,3-1.7c1.2-0.8,2.2-1.9,3-3.1c1.3,2.7,3,5,4.8,7.3c0.2,0.3,0.2,0.6,0.2,0.9c0,1,0,2.1-0.2,3.1
		c-0.4,1.8-1.5,3.4-2,5.3c0.1,0.1,0.3,0.3,0.4,0.4c0.8-1.5,1.6-3,2.1-4.7c0.4-1.4,0.2-2.9,0.2-4.3c1.3,2.7,1.6,5.9,1.2,8.8
		c-0.1,1.7-1.4,3.2-1.6,4.9c-0.2,1.5-0.6,3-0.7,4.5c0,1.2,0,2.4-0.1,3.6c0,2.1,0.5,4.1,0.4,6.2c-0.1,2.1,0,4.3-0.1,6.4
		c-0.1,3.1,0.6,6.3,2.3,9h0.4c-1-2.5-2-5-2.1-7.7c0-2.8-0.1-5.6,0-8.4c0-2.2-0.3-4.4-0.3-6.6c0.7,0.6,1.4,1.2,2,1.8
		c0.7,0.8,1.8,1.1,2.5,2c0.7,0.8,1.4,1.6,2.2,2.3c1.8,1.3,3.4,2.9,5.3,4.1c1.4,1.4,3.3,2.1,4.8,3.4c1.3,1,2.7,1.8,4,2.9
		c0.9,0.6,1.8,1.4,2.9,1.4c0,0.1-0.1,0.2-0.2,0.3c0.3,0.2,0.6,0.4,0.9,0.6c0.1,0,0.4,0,0.5,0c0,0.1,0,0.3,0.1,0.4
		c0.3,0.2,0.6,0.3,0.9,0.5c0.2-0.3,0.4-0.6,0.5-0.9c0,0.3,0.1,0.7,0.1,1c1,1.4,2.6,2,3.9,3h15.3v-15.6c-2-0.8-3.8-2-5.6-3
		c-3.4-2-6.1-4.2-9.2-6.6c-3.4-2.5-6.8-4.6-10.4-6.8c-2.5-1.5-4.8-3.5-7.2-5.1c-2.6-1.8-5.2-3.9-7.8-5.6c-1.9-1.7-6.4-4.8-8-6.9
		c1.2,0.9,4.5,3.6,5.8,4.3C198.3,105.4,199.2,106.2,200.2,106.9z"/>
	<path d="M182.5,93.3c0.4-1.9,0.3-3.8,0.6-5.7c0.2-1.4,0.6-3,0-4.4c-0.4-0.7-0.4-1.6-1.1-2.1c-0.1,1.6,1.2,2.9,0.9,4.4
		c-0.3,2.2-0.6,4.4-0.8,6.7c0,1.2-0.9,2.1-1.1,3.2c-0.5,2.5-1.5,4.8-1.7,7.3c0.6,0,0.5-0.7,0.7-1c0.4-2.1,1-4.2,1.5-6.2
		C181.6,94.7,182.1,94,182.5,93.3z"/>
	<path d="M190.2,86h0.2c0.4-0.8,0.1-1.7-0.2-2.4c-0.4-0.7-0.7-1.6-1.4-2c0,0.8,0.6,1.4,0.9,2.2C190,84.5,190,85.3,190.2,86z"/>
	<path d="M170.4,86.7c-0.1,0.3-0.3,0.7,0.1,0.9c0.6-1,0.9-2.1,1.5-3.1c0.4-0.8,1-1.4,1.1-2.3C171.6,83.3,171,85.1,170.4,86.7z"/>
	<path d="M176.1,86c-0.3,1.5-0.6,3-0.6,4.5c0,1.2-0.5,2.4-0.3,3.6c0.1,1,0.4,2,0.2,3c-1-0.3-2.1-0.5-3.1-0.7c0.7,0.8,1.9,1,2.9,1.2
		c-0.1,0.4-0.1,0.7-0.1,1.1c-0.9-0.4-1.7-0.7-2.6-0.9c-0.9-0.2-1.6-0.7-2.3-1.2c0,0.3,0.1,0.6,0.3,0.7c1.3,1,3,1.1,4.5,1.7
		c0.1,2.2-0.6,4.4-0.5,6.6c0.1,0,0.2,0,0.3,0c0-1.3,0.2-2.7,0.4-4c0.3-1.4,0.3-3,0.7-4.4c0.4-1-0.1-2.1-0.1-3.1
		c-0.2-1.3,0.2-2.6,0.3-3.9c0.1-1.4,0.3-2.8,0.5-4.3C176.3,86.1,176.1,86.1,176.1,86z"/>
	<path d="M173.7,90c-0.4,1.3-0.9,2.5-1.1,3.8c0.1-0.1,0.3-0.2,0.4-0.3c0.6-1.8,1.3-3.6,1.8-5.4C174.2,88.5,174,89.3,173.7,90z"/>
	<path d="M169.7,92.1c0.4,0.1,0.7,0,1-0.2c-0.1-0.1-0.4-0.2-0.5-0.2c0.1-0.5,0.2-1,0.2-1.5C169.9,90.8,169.8,91.5,169.7,92.1z"/>
	<path d="M186.7,93.6c-1.2,0.9-2.6,1.7-4.1,2c-0.4,0.1-0.9,0.2-1.1,0.6c2.3,0,4.5-1.3,6.1-2.9C187.4,93.3,187,93.4,186.7,93.6z"/>
	<path d="M171.5,94.2c0,0.4-0.1,0.9,0.3,1.1c0.9,0.8,2.2,0.5,3.3,0.4c-0.7-0.3-1.6-0.2-2.3-0.4C172.2,95.2,171.9,94.7,171.5,94.2z"
		/>
	<path d="M188.4,96.9c-1,0.2-1.7,0.8-2.6,1.2c-1.6,0.9-3.2,1.8-4.7,2.8c-0.4,0.3-0.9,0.5-0.9,1.1c2.6-1.4,5.2-2.8,7.6-4.5
		C188,97.3,188.2,97.1,188.4,96.9z"/>
	<path d="M180.7,99c0.5-0.1,1.1-0.1,1.6-0.4C181.7,98.5,180.7,98.1,180.7,99z"/>
	<path d="M170.5,102.1c0.8,0.4,1.7,0.4,2.6,0.1c-0.9-0.2-1.9-0.3-2.8-0.5C170.3,101.8,170.4,102,170.5,102.1z"/>
	<path d="M178.4,104.7c-0.2,0.2-0.4,0.5-0.4,0.8c-0.2,1.1-0.3,2.2,0.1,3.3c0.3,0.6,0.9,1.1,1.4,1.6c0.4,0.4,0.7,1,1.3,1.3
		c-0.4-1.1-1.5-1.9-2.2-2.8C177.9,107.6,178.3,106.1,178.4,104.7z"/>
	<path d="M179.3,107.2c0.6-0.3,0.7-0.9,0.8-1.5C179.4,105.9,179.4,106.7,179.3,107.2z"/>
	<path d="M174.9,107.4c-0.1-0.4-0.3-0.8-0.4-1.2C174.2,106.7,174.3,107.3,174.9,107.4z"/>
	<path d="M174.9,106.2c0.1,0.7,0.4,1.6,1.2,1.4C175.6,107.2,175.5,106.4,174.9,106.2z"/>
	<path d="M179.5,107.4c-0.3,0.3-0.9,0.2-1.1,0.6c1.2,0.3,1.8-1,2.6-1.7C180.3,106.3,180,107,179.5,107.4z"/>
	<path d="M171.6,108.2c-0.5,0.2-1.1,0.3-1.4,0.8c0.3,0,0.6-0.1,0.9-0.1c1.7-0.5,3.5-0.8,5.3-0.6c-0.4-0.2-0.8-0.5-1.3-0.5
		C173.9,107.7,172.7,107.9,171.6,108.2z"/>
	<path d="M184.7,110c-1-0.5-2.2-0.7-3.3-0.7c0,0.1,0,0.3,0,0.4c1.9,0.1,3.7,0.9,5.3,1.9c1,0.6,1.7,1.5,2.3,2.4
		c0.5,0.7,0.9,1.6,1.6,2.1c-0.6-1.4-1.3-2.8-2.3-4C187.4,111,185.9,110.6,184.7,110z"/>
	<path d="M171.4,137.8c-0.5-2.7-0.8-5.4-1-8.1c-0.1-2.5,0-4.9,0.1-7.4c0.2-2.2,0.7-4.3,0.7-6.4c0-1.3,0.2-2.5,0-3.8
		c-0.2,0.2-0.4,0.5-0.3,0.8c-0.2,2.7-0.3,5.3-0.9,7.9c-0.3,2.9-0.4,5.9-0.3,8.8c0.3,4,0.9,8,1.5,11.9c0.3,2,1.3,3.9,1.4,5.9
		c0.1,0.9,0.2,1.9,0.4,2.8h0.5c-0.1-1.6-0.4-3.1-0.7-4.6C172.2,143.1,171.8,140.4,171.4,137.8z"/>
	<path d="M184.3,122.5c-0.5,0.1-1.2-0.3-1.5,0.3c0.9,0.4,2,0.7,2.9,0.2c1.3-0.6,2.2-1.9,3-3.1c0.5-0.8,1-1.7,1.1-2.7
		c-1.1,1.2-1.6,2.7-2.8,3.9C186.4,121.8,185.5,122.6,184.3,122.5z"/>
	<path d="M185.5,123.3c-0.1,0-0.3,0.1-0.4,0.1c0,1.9-0.3,3.8-0.2,5.8c-0.1,4.3-0.6,8.6-1.1,12.9c-0.4,2.7-0.7,5.4-0.8,8.1h0.4
		c0.3-1.5,0.4-3,0.6-4.5c0.5-3.9,0.9-7.8,1.3-11.8C185.6,130.4,185.4,126.8,185.5,123.3z"/>
	<path d="M185.1,143.2c0,1.1,0.4,2.2,0.7,3.2c0.4,1.3,0.9,2.6,1.5,3.8h0.6c-0.8-1.9-1.5-3.9-2.1-5.9
		C185.6,143.9,185.4,143.5,185.1,143.2z"/>
</g>
</svg>
