<?xml version="1.0" encoding="utf-8"?>
<!-- Generator: Adobe Illustrator 26.0.3, SVG Export Plug-In . SVG Version: 6.00 Build 0)  -->
<svg version="1.0" id="Слой_1" xmlns="http://www.w3.org/2000/svg" xmlns:xlink="http://www.w3.org/1999/xlink" x="0px" y="0px"
	 viewBox="0 0 239.5 150.2" style="enable-background:new 0 0 239.5 150.2;" xml:space="preserve">
<g>
	<path d="M149.9,102.1c2.9,0,5.8,0,8.7,0c-1.7,6.1-3.4,12.2-5.1,18.3c-0.1,0.4-0.3,0.8-0.1,1.1c0.3,0.4,0.9,0.5,1.4,0.5
		c0.8,0,1.6,0.1,2.4-0.1c0.4-0.1,0.6-0.5,0.7-0.9c1.8-6.3,3.5-12.6,5.3-18.9c2.9,0,5.8,0,8.8,0c-2,7.3-4.1,14.7-6.1,22
		c-0.4,1.3-1.2,2.5-2.4,2.9c-1.6,0.6-3.4,0.6-5.1,0.6c-2.7,0-5.5,0-8.2,0c-1.1,0-2.2,0.1-3.3-0.2c-1.1-0.3-2.2-0.9-2.7-1.9
		c-0.4-0.7-0.4-1.6-0.2-2.3C146,116.2,147.9,109.1,149.9,102.1z"/>
	<path d="M176.2,102.1c6.3,0,12.6,0,18.9,0c-0.5,1.9-1.1,3.7-1.5,5.6c-5.2,0-10.5,0-15.7,0c-1.1,0-2.1,0-3.2,0
		C175.1,105.8,175.6,103.9,176.2,102.1z"/>
	<path d="M199.9,102.8c1.3-0.6,2.7-0.7,4.1-0.7c4.7,0,9.4,0,14.1,0c-0.5,1.9-1,3.7-1.5,5.6c-2.9,0-5.8,0-8.6,0c-0.7,0-1.3-0.1-2,0.2
		c-0.4,0.1-0.6,0.5-0.7,0.9c-1.1,4-2.2,8-3.3,11.9c-0.1,0.2-0.2,0.5-0.1,0.8c0.2,0.5,0.7,0.6,1.2,0.6c3.4,0,6.8,0,10.2,0
		c-0.5,1.9-1,3.7-1.6,5.6c-4.3,0-8.6,0-12.9,0c-1.1,0-2.2,0-3.3-0.3c-1-0.3-1.9-0.9-2.4-1.8c-0.4-0.7-0.4-1.5-0.2-2.2
		c1.6-5.9,3.3-11.7,4.9-17.6C198,104.5,198.7,103.3,199.9,102.8z"/>
	<path d="M173.5,111.6c6.3,0,12.6,0,18.9,0c-0.5,1.9-1.1,3.7-1.6,5.6c-3.4,0-6.8,0-10.2,0c-1,3.5-1.9,6.9-2.9,10.4
		c-2.9,0-5.8,0-8.8,0C170.5,122.3,172,116.9,173.5,111.6z"/>
</g>
</svg>
