<?xml version="1.0" encoding="utf-8"?>
<!-- Generator: Adobe Illustrator 26.0.3, SVG Export Plug-In . SVG Version: 6.00 Build 0)  -->
<svg version="1.0" id="Слой_1" xmlns="http://www.w3.org/2000/svg" xmlns:xlink="http://www.w3.org/1999/xlink" x="0px" y="0px"
	 viewBox="0 0 239.5 150.2" style="enable-background:new 0 0 239.5 150.2;" xml:space="preserve">
<style type="text/css">
	.st0{fill:#040404;}
</style>
<g>
	<g>
		<path class="st0" d="M145.7,87.1c1.6-0.5,3-1,4.6-0.4c0.2,0.1,0.3,0.2,0.5,0.2c0,0.2,0,0.2-0.1,0.3l-0.1-0.2
			c-0.6-0.2-0.9-0.4-1.6-0.5h-0.5c-0.6,0.1-1.1,0.2-1.7,0.4c-0.2,0-0.3-0.1-0.5-0.2c0.8-0.2,1.6-0.3,2.3-0.3v-0.1
			c-1.7-0.4-3.3,0.5-4.8,1.4c-0.3,0.2-0.8,0.5-0.8,0.7l0.1,0.1c0.4-0.4,1-0.6,1.4-0.8c-0.6,0.5-1.5,1-1.9,1.6
			c-0.9,1.4-1.3,2.9-1.9,4.4c-0.2,0.5-0.3,0.9-0.5,1.3c0.4-1.5,0.9-3,1.6-4.3c0.1-0.2,0.2-0.4,0.2-0.5l-0.2,0.2l0.1-0.2
			c0,0,0.1-0.1,0.2-0.1L142,90l0.2,0.1l-0.1-0.2c0.3-0.4,0.5-0.9,0.9-1.2c-0.1-0.1,0,0.1-0.1,0l-0.1,0.1c-1.4,1.5-2.6,3.1-3.6,4.7
			c-0.2,0.2-0.3,0.5-0.4,0.7c-0.9,2.3-1.5,4.8-1.5,7.4c0,0.5,0.1,0.9,0,1.5l0.2-0.1c-0.1,0.5-0.2,0.9,0,1.3l-0.2-0.1
			c-0.4-2.9-0.1-5.9,0.9-8.7c0.1-0.2,0.2-0.5,0.2-0.8c-1.5,2.6-2,5.7-2,8.6c0.1,2.3,0.9,4.6,2.6,6.2c1,0.9,2.2,1.8,3.4,2.3
			c0.5,0.2,0.9,0.3,1.3,0.5c0.1-0.1,0.2-0.1,0.3-0.2c-1.2-0.3-2.4-0.8-3.4-1.6c-1.3-0.9-2.5-2.1-3.1-3.6c0.5,0.9,1.2,1.8,2.2,2.3
			c-0.4-0.5-0.9-0.9-1.2-1.5c-0.7-0.9-1.1-2-1.5-3.2c0.1-0.2,0.2,0,0.2,0.2c0.2,0.5,0.4,1.1,0.7,1.6l0.2-0.3l-0.1,0.5
			c0.1-0.1,0.1-0.2,0.2-0.3c0.5,1,1.3,1.8,2.2,2.4c-1-1-1.9-2.1-2.6-3.4c-0.2-0.5-0.3-1.1-0.4-1.6c0.1,0,0.2,0.1,0.2,0.2
			c-0.1,0.4,0.2,0.8,0.3,1.2c0.2,0.6,0.6,1.2,0.9,1.7c-0.2-0.5-0.5-1-0.5-1.6c0.6,1.5,1.6,2.8,2.7,3.9c1,0.9,2.1,1.8,3.4,2.2
			c0.9,0.2,1.7,0.1,2.5-0.2c0.2-0.1,0.3-0.1,0.4-0.2c-0.5-0.2-0.9,0.1-1.4,0.2c-1.4,0.2-2.8-0.3-3.9-1.2c-0.9-0.7-1.6-1.6-2.3-2.6
			c-0.2-0.3-0.4-0.5-0.5-0.9c-0.5-0.7-0.7-1.6-0.9-2.3c0-0.1,0.1-0.2,0.1-0.2c0,0.1,0,0.2,0,0.2c0.2,0.6,0.5,1.2,0.7,1.9
			c0.1-0.1,0.2-0.2,0.2-0.2c-0.1,0.2-0.1,0.3,0.2,0.4c0.1,0.2,0,0.4,0,0.6c0.2-0.2,0.2-0.3,0.2-0.5c0.1,0.2,0.3,0.4,0.1,0.6
			c0.1-0.1,0.2-0.2,0.2-0.2c0.3,0.8,0.9,1.4,1.4,2c-0.8-1.2-1.6-2.5-2.2-3.9c0.2,0.2,0.3,0.5,0.5,0.9c0.7,1.3,1.6,2.5,2.5,3.6
			c0.3,0.2,0.5,0.5,0.9,0.5c0.1-0.1,0.2-0.2,0.2-0.3c0.9,0.6,1.9,0.9,2.9,1.2v-0.1c-0.6-0.2-1.2-0.4-1.9-0.6
			c-1.5-0.6-2.6-1.9-3.4-3.3c-1.1-1.6-1.9-3.6-1.8-5.6c0-0.9,0.1-1.9,0.5-2.9c0.9-1.9,1.5-4,1.9-6c0.2-1,0.5-1.7,1.1-2.6
			c0.1-0.2,0.2-0.3,0.3-0.2l-0.1-0.1h0.2c0.9-0.9,1.8-1.7,3.1-2.2c0.1,0.1,0.1,0.1,0.1,0.2c1.2-0.2,2.4-0.2,3.6-0.1
			c0.3,0,0.6,0,0.9,0.2l0.2-0.2l-0.1,0.4c0.1,0,0.2,0.1,0.2,0.1c-0.2-0.1-0.1-0.3,0-0.5c0,0.3,0.4,0.5,0.5,0.6
			c0.6,0.2,1.4,0.4,1.9,0.9c1.6,0.5,3,0.9,4.4,1.8c0.8,0.4,1.8,0.9,2.3,1.8c0.3,0.5,0.6,1,0.6,1.8c0.5,0.6,0.9,0.7,1.6,1.1
			c0.8,0.5,1.7,1.2,2.2,2.3c0.2,0.7,0.4,0.8,0.2,2.2c-0.5,0.8-1.1,1.6-1.2,2.5c-0.2,1-0.4,3.5-1.5,4c-0.6,0.3-1.2,0.3-1.8,0
			c-0.5-0.2-1.3-1.6-1.5-2.1c-0.2,0.5-0.5,1.1-0.9,1.5c-0.3,0.2-0.2,0.5-0.3,0.8c-0.4,1.9-1.8,3.6-3.5,4.5c-0.5,0.2-0.7,0.8-1.2,0.9
			c-0.2,0.2-0.5,0.1-0.8-0.1c0.7-0.2,1-0.9,1.2-1.5c-0.1-0.1-0.1-0.2-0.2-0.3c0,0.5-0.3,0.9-0.7,1.3c-0.5,0.4-1.2,0.4-1.7,0.2
			c0,0.1,0.1,0.2,0.1,0.2c0.4,0,0.7,0.1,1.1,0.1c0.2,0.1,0,0.2-0.1,0.3c-0.5,0.4-0.9,0.8-1.4,1.2c-0.2,1-0.6,1.9-1,2.9
			c-0.1,0.1-0.2,0.2-0.3,0.2c0.2-0.4,0.4-0.8,0.6-1.2c-0.1-0.1-0.1-0.2-0.2-0.2c-0.2,0.5-0.4,1.2-0.8,1.6c0.2,0.1,0.3-0.1,0.5-0.2
			c-0.6,0.9-1.4,1.9-2.5,2.3c-1.9,0.8-4,0.4-5.9-0.3c-0.5-0.2-1-0.4-1.4-0.7c-0.9-0.8-1.3-2-1.6-3.1c0-0.3-0.3-0.5-0.3-0.8
			c-0.2-1.1-0.2-2.3-0.2-3.4c0.2-0.2,0.2,0.2,0.2,0.3c0,0.5-0.1,1.1,0,1.7l0.2,0.1c0-0.6-0.2-1.2,0-1.8c0.1,0.9,0.2,1.7,0.2,2.5
			c-0.1-0.2,0.1-0.7-0.3-0.8c0.2,0.7,0,1.5,0.6,1.9c1.2,1.3,3,1.9,4.7,1.6c0.9-0.3,1.8-0.4,2.7-0.6c0.6-0.2,1.2-0.2,1.8-0.5
			c0,0.1-0.1,0.2-0.1,0.3c-0.2,0.2-0.5,0.2-0.6,0.5c0.3-0.1,0.5-0.4,0.9-0.5c0-0.2,0-0.2,0-0.4c0.9-0.3,1.4-1,2.1-1.6
			c0.5-0.4,1-0.7,1.6-1.1c-0.2,0-0.2,0.1-0.4,0.2c-0.9,0.5-1.8,1.2-2.6,1.9c-0.4,0.4-0.9,0.6-1.5,0.8c0.2-0.2,0.3-0.2,0.5-0.2
			c0.5-0.2,1-0.6,1.4-1.1c-0.2,0.1-0.4,0.3-0.6,0.2c0,0.2-0.2,0.2-0.4,0.2v0.2h0.3c-1.4,0.8-2.9,1.3-4.5,1.2c-0.8,0-1.3-0.5-2.1-0.4
			c0.2,0.3,0.3,0.4,0.5,0.6c0.2,0.1,0.4,0.1,0.5,0.2c-1.3,0-2.6-0.6-3.5-1.5c-0.1-0.1-0.2-0.2-0.2-0.2c0.4,0.4,0.9,0.7,1.3,0.9
			c0.3,0.2,0.6,0.4,1,0.4c0-0.5-0.5-0.7-0.8-1c-0.4-0.5-1-0.9-1.2-1.6c1.2,1.3,2.8,2.2,4.5,2.4c1.2,0.2,2.5-0.3,3.4-1l-0.1-0.2h0.2
			v0.3c0.1,0,0.2,0,0.2,0c-0.5-0.5-1.1,0.5-1.6,0.2c-0.1,0.1-0.2,0.2-0.2,0.2c-0.2,0.2-0.5,0.1-0.7,0.1c0.2-0.1,0.6,0,0.7-0.3
			c-1.4,0.2-2.9,0-4-0.7c-0.8-0.5-1.4-1-1.9-1.6c0.2,0.5,0.6,0.9,0.9,1.2l0.2,0.1c0.1,0.1,0.3,0.2,0.4,0.2l-0.4-0.2l-0.2,0.2
			c0.2,0.2,0.4,0.3,0.6,0.4c0.6,0.5,1.4,0.5,2.2,0.7c1.2,0.2,2.2,0.1,2.5-0.2c0.1,0.1,0.4,0,0.5,0c-0.5,0.2-0.4,0.3-1.4,0.5
			c-2.1,0-3.1,0-4.4-1.2c-0.3-0.2-0.5-0.5-0.8-0.8c0.1-0.1,0.2-0.2,0.3-0.2l-0.2-0.1c-0.5-0.5-0.9-1.2-1.1-1.9
			c-0.1-0.2-0.2-0.5-0.3-0.6l-0.1,0.1c0,0.1,0,0.3,0,0.5c-0.1,0-0.2-0.1-0.2-0.1c0-0.2,0-0.4,0.1-0.5s0.2-0.2,0.2-0.2
			c0.5,0.9,1.2,1.6,1.9,2.3c1.1,1.1,2.6,1.6,4.2,1.9c2.3,0.2,4.7-0.2,6.4-1.7c-0.2-0.1-0.4-0.1-0.6-0.2c-0.7,0.6-1.6,1.2-2.5,1.2
			c0.8-0.3,1.6-0.6,2.2-1.2l0.1-0.2c-1.3,0.9-3,1.7-4.6,1.8c0.2-0.2,0.5-0.1,0.8-0.3c-0.8,0.1-1.6,0.2-2.3-0.1
			c-1.5-0.5-2.7-1.3-4-2.2c0.5,0.6,1.2,1.1,1.7,1.6c-1.4-0.9-2.6-2.1-3.5-3.5c-0.2-0.6-0.6-1.2-0.9-1.8v0.2c-0.1,0-0.2,0-0.2,0
			c-0.3-1.2-0.6-2.5-0.7-3.8c0-1.9,0.2-3.8,0.7-5.7c0.4-1.2,0.9-2.5,1.6-3.5c1.4-2.3,3-4.5,4.9-6.4C144.1,87.6,145,87.3,145.7,87.1z
			 M143.6,90.6c0.4-0.2,0.8-0.5,1.2-0.9c0.7-0.5,1.5-0.9,2.3-1.3c0.1,0,0.3,0,0.4,0c-0.5,0.2-0.9,0.3-1.2,0.6c0.1,0,0.3,0,0.4,0v0.1
			c-0.1,0-0.2,0-0.2,0c0,0.1,0.1,0.2,0.1,0.3c-0.1,0-0.2-0.1-0.3-0.1c0,0.1,0,0.2,0,0.3c-0.1,0-0.2,0-0.3,0c0,0.3,0.2,0.5,0.3,0.7
			c0.3,0,0.7,0,1,0.1c0.6-0.6,1.4-1,2.2-1.4c-0.7,0.5-1.3,0.9-1.9,1.4c0.2,0.2,0.6,0.2,0.6-0.2c0.1,0.1,0.2,0.2,0.2,0.3
			c0.8-0.7,1.7-1.2,2.7-1.6c0.7-0.2,1.5-0.1,2.2-0.1c-0.5-0.2-0.9-0.2-1.3-0.5v0.2c0,0-0.1,0-0.2,0.1l0.1-0.3
			c-0.2,0.1-0.4,0.2-0.5,0.2c0.1-0.1,0.2-0.2,0.2-0.2c-1.1-0.2-2.1-0.5-3.2-0.5C146.5,88.1,145,89.3,143.6,90.6z M149.9,89.7
			c0.2,0,0.5-0.1,0.5-0.1c-0.5,0.3-1.2,0.5-1.3,1.1c0.2,0.4,0.5,0.5,0.9,0.7c0.5,0.3,1.1,0.8,1.6,1.2c0.5,0.5,1.3,0.9,2.1,1.2
			c0.7,0.2,1.5,0,2-0.5c0,0.4,0,0.8,0,1.1c0-0.3,0.1-0.6,0.1-0.9c0.1,0,0.2,0,0.4,0c0.1-0.3,0.2-0.5,0.3-0.8c-0.2,0.5-0.2,1-0.2,1.5
			c0.1-0.2,0.1-0.4,0.1-0.6c0.2-0.1,0.3-0.2,0.3-0.4c0.1-0.4,0.2-0.8,0.4-1.1c-0.2,0.6-0.4,1.2-0.5,1.8h0.2c0-0.1,0-0.3,0-0.4
			c0.1,0.1,0.2,0.2,0.2,0.3c0.2-0.3,0.2-0.7,0.5-0.9c0.4-0.2,0.7-0.5,0.7-1c0.1-0.4-0.2-0.6-0.5-0.9c0.5,0.2,0.9,0.4,1.3,0.7
			c-0.4,0.3-0.7,0.7-0.9,1.2l-0.2,0.1c0.2,0,0.2,0,0.4,0c0-0.5,0.4-0.9,0.8-1.1c-0.1,0.1-0.2,0.2-0.3,0.3c0.1,0.1,0.2,0.1,0.2,0.2
			c0-0.2,0.4-0.3,0.5-0.1c0.6,0.5,0.8,1.5,0.5,2.3c-0.2,0.9-0.2,1.9-0.3,2.8c0,0.3-0.4,0.5-0.2,0.9c0.5-0.9,0.5-1.9,0.6-3
			c0-0.5,0.2-1,0.2-1.5c-0.1-0.5-0.2-1.1-0.5-1.5c-0.5-0.7-1.2-1.1-1.9-1.5c-0.9-0.5-1.8-0.9-2.8-1.2c0,0.1,0.1,0.2,0.1,0.2
			c0.5,0.1,0.9,0.3,1.4,0.5v0.1c-0.9-0.3-1.8-0.7-2.8-0.9c0.1-0.1,0.2-0.1,0.2-0.2c0.2,0.2,0.5,0.2,0.8,0.3c0.1-0.1,0.2-0.1,0.2-0.2
			c-0.8-0.2-1.5-0.5-2.2-0.6c0.1,0.4,0.5,0.2,0.9,0.3c0,0.1,0,0.2,0,0.2c-0.5-0.2-1-0.2-1.5-0.4c0.2,0,0.5,0,0.7,0l-0.1-0.2
			C151.9,89,150.8,89.2,149.9,89.7z M143.3,90.8l-0.1,0.2c0.5,0.1,0.9-0.2,1.4-0.1c0-0.1,0.1-0.2,0.2-0.2c0,0.1,0,0.2,0,0.2
			c1.2,0,2.3,0,3.4,0.2c-1-0.1-2-0.2-3,0l0.1,0.1c1,0,2,0.2,3.1,0.2v0.1c-1.5-0.2-3-0.2-4.6,0c0.3,0.3,0.5,0.6,0.9,0.9
			c0.9,0,1.6,0,2.5,0.1s1.7,0.2,2.5,0c0,0.1,0,0.2,0,0.2c-0.1,0-0.2,0.1-0.3,0.1c0.6-0.1,1.3,0.2,1.9,0.4c-0.4-0.5-1.2-0.2-1.6-0.7
			l0.5-0.1c-0.5-0.2-0.9-0.3-1.4-0.4c0.6,0,1.2,0.2,1.9,0.4c-0.1-0.2-0.3-0.4-0.4-0.5c0.3,0.2,0.9,0.5,1.1,0.8
			c-0.9-1-2.2-1.6-3.4-1.9C146.4,90.4,144.8,90.4,143.3,90.8z M142.9,91.1c-0.2,0.6,0.5,0.9,0.8,1.2c-0.3-0.2-0.8-0.4-1.1-0.1
			c-0.2,0.5,0.2,1.1,0.4,1.6c-0.2-0.2-0.2-0.5-0.5-0.7c0,0.3-0.2,0.5-0.2,0.9c0.1,0.4,0.5,0.4,0.8,0.5c0.8,0.3,1.3,1,2,1.4
			c0.3,0.2,0.5,0.5,0.9,0.6c-0.4-0.1-0.6-0.3-0.9-0.5c-0.6-0.3-1.3-0.9-2.2-0.6c0.1,0.3-0.1,0.6-0.4,0.6c-0.3,0.1-0.5,0.2-0.6,0.4
			c0,0.3,0.1,0.5,0.2,0.8c0.5,0.3,1,0.3,1.6,0.3s1.2,0.2,1.8,0c-0.1-0.1-0.2-0.2-0.3-0.2c1,0.1,1.9,0.4,2.9,0.7
			c0.2,0.1,0.4,0.2,0.6,0.2c-0.6-0.5-1.2-1.1-1.9-1.6c0.5,0.2,0.9,0.5,1.3,0.8c0.4,0.3,0.9,0.5,1.2,0.9c0-0.1,0-0.2,0-0.3
			c0.4,0.2,0.7,0.6,1,0.9c-0.9-1-1.7-1.9-2.6-3C146.1,94.2,144.7,92.6,142.9,91.1z M158.6,92.5c-0.2,0.2-0.3,0.5-0.5,0.8v-0.2
			c-0.1,0-0.2,0.1-0.2,0.1c-0.1,0.3-0.2,0.6-0.2,0.9c0.7-0.3,0.6-1.2,1.2-1.7C158.9,92.5,158.7,92.5,158.6,92.5z M145,92.7
			c0.1,0.3,0.4,0.5,0.7,0.7c0.5,0.2,1.1,0.1,1.6-0.1v0.3c-0.2,0-0.4,0-0.5-0.1c0.6,0.4,1.4-0.2,2,0.2c-0.7,0-1.4,0.3-2.1,0.5
			c0.3,0,0.6-0.2,0.9-0.2c1.2-0.2,2.3-0.3,3.4-0.2c0.4,0.2,0.8,0.3,1.2,0.2c0,0.2,0,0.2,0,0.4l-0.1-0.2c-1.4-0.2-2.8-0.2-4.1,0
			c-0.3,0.1-0.9,0.2-0.8,0.6c0.3,0.9,1.2,1.2,1.9,1.8c0.3,0,0.1,0.5,0.5,0.2V97h0.2c0,0.2,0,0.3,0,0.5c-0.1-0.1-0.2-0.2-0.3-0.2
			c0,0.2,0.1,0.2,0.2,0.2c0,0.1,0,0.2,0,0.3c0.5,0.4,1,1,1.6,1.2c0.8,0.2,1.6,0.6,2.5,0.3c0.2-0.7,0.3-1.4,0.7-2
			c0.1-0.1,0.2-0.2,0.2-0.2c-0.6,0.9-0.9,1.9-0.7,3c0.2,0.4,0.6,0.4,0.9,0.2c-0.1-0.5,0-1.2,0.1-1.7c0,0.5-0.1,0.9,0.1,1.3
			c0.2,0.3,0.5,0.3,0.8,0.2c0.5-0.1,0.8-0.5,0.9-0.9c0.1-0.2,0.3-0.4,0.2-0.6h0.2c0-0.2,0-0.3,0-0.5c0.2-0.2,0.3-0.3,0.4-0.5
			c-0.1,0.1-0.3,0.2-0.4,0.3c0-0.3,0.4-0.5,0.3-0.9c-0.1-0.4-0.5-0.5-0.7-0.8c-0.2-0.1,0.1-0.2,0.1-0.2c-0.8-0.3-1.5-0.8-2.3-1
			c-0.2-0.2-0.3,0-0.4,0c0.3,0.1,0.6,0.2,0.9,0.4c-0.4-0.2-0.8-0.3-1.2-0.4c0.2-0.1,0.3-0.2,0.4-0.2l-0.4,0.1v-0.2
			c-0.4-0.2-0.8-0.3-1.2-0.2c0.2,0.2,0.6,0.1,0.9,0.3c-0.5,0.1-0.9-0.2-1.3-0.2c0-0.1-0.1-0.2-0.2-0.2c0.2,0,0.4,0,0.5,0.1
			c-0.5-0.3-1.2-0.2-1.8-0.5c-0.7-0.1-1.5-0.1-2.2,0c-0.1-0.2,0.1-0.3,0.3-0.2c0.6-0.1,1.3,0.1,1.9-0.1c-0.8-0.3-1.6-0.5-2.5-0.6
			C147.4,92.6,146.2,92.5,145,92.7z M160.5,94.2c0,0.2,0,0.4-0.1,0.5c0.2,0,0.4,0.1,0.5,0.1C160.8,94.7,160.7,94.5,160.5,94.2z
			 M160.4,95c-0.2,0.6,0.3,1.2,0.9,1.6c-0.2,0.1-0.5,0.2-0.5,0.5c-0.3,0.5-0.6,0.9-0.6,1.6c0.2-0.4,0.5-0.8,0.9-1.2
			c-0.1,0.3-0.2,0.5-0.5,0.8l0.2,0.2l-0.2-0.1c-0.3,0.5-0.5,1-0.5,1.6c-0.1,0-0.2,0.1-0.2,0.1c-0.2-0.9-0.2-1.9-0.9-2.6
			c-0.5-0.5-1.2-0.8-1.6-1.2c-0.1,0.1-0.2,0.1-0.2,0.2c0.6,0.2,1.2,0.6,1.6,1.1c0.7,0.9,0.9,1.9,0.9,3c0.2,0.5-0.1,1,0,1.5
			c-0.1,0.1-0.2,0.1-0.2,0c0-0.2,0.1-0.5,0.1-0.6c0,0.1-0.1,0.2-0.1,0.2c-0.2,1.2-0.5,2.6-1.3,3.6c0.4-0.3,0.6-0.8,0.8-1.2
			c0.2-0.6,0.5-1.3,0.5-2c0.2,0.2,0.2,0.4,0.2,0.6c-0.1,0.7-0.2,1.5-0.5,2.2s-0.9,1.4-1.8,1.5c-0.2,0-0.2,0.1-0.2,0.2
			c1.2,0.1,2.2-1.2,2.3-2.3c0.4,0.2,0.4,0.8,0.7,1c0.3,0.5,0.9,0.6,1.4,0.5c-0.1-0.2-0.4-0.2-0.5-0.2c-0.2-0.1-0.4-0.2-0.6-0.3
			c0.2-0.1,0.2-0.1,0.3,0.1c0.2,0.2,0.5,0.2,0.7,0.3c0.1,0,0.2,0.1,0.2,0.2l0.1-0.1c0.2-0.9,0.2-1.9-0.2-2.9c0-0.2,0.1-0.5,0-0.7
			c0.1,0,0.2-0.1,0.2-0.1c0,0.3-0.1,0.6-0.1,0.9c0.1-0.1,0.1-0.2,0.2-0.3c0.1-0.5,0.2-1.2,0.5-1.6c-0.1,0.6-0.5,1.3-0.2,1.9
			c0.1,0.4,0.1,0.8,0.1,1.2c-0.2-0.3-0.1-0.8-0.2-1.1c-0.1,0-0.2-0.1-0.2-0.1c0.2,0.9,0.3,1.8,0.2,2.6c0.9-0.9,1-2.3,1.2-3.4
			c-0.1-0.5-0.2-0.9-0.5-1.3c-0.2-0.2-0.5-0.2-0.5,0.1c-0.2,0.4-0.4,0.8-0.3,1.2c-0.1-0.1-0.2-0.2-0.2-0.2c0.2-0.4,0.2-0.9,0.5-1.2
			h-0.2c0.1-0.3,0.4-0.5,0.7-0.5c-0.2-0.2-0.3-0.5-0.5-0.7c-0.1-0.3,0.1-0.6,0.1-0.9c0.1,0.2,0.1,0.4,0.2,0.5
			c0.3,0.5,0.7,1.4,1.5,1.2c-0.3,0.3-0.4,0.7-0.6,1c-0.2-0.5-0.6-1.2-1.2-0.9c0.2,0.2,0.4,0.1,0.5,0.2c0.3,0.3,0.5,0.7,0.6,1.1
			c0.3-0.5,0.5-1.2,0.9-1.6c0.5-0.8,0.5-1.8,0.1-2.6c-0.2-0.3-0.4-0.5-0.5-0.9c-0.1,0.1-0.1,0.1-0.2,0.2c0.5,0.3,0.8,1,0.9,1.6
			c-0.2-0.2-0.4-0.5-0.7-0.6c-0.5-0.3-1.1-0.5-1.6-0.6c0.6-0.1,1.2,0.2,1.8,0.4c-0.5-0.4-1-0.5-1.6-0.6c0.4,0,0.9,0.1,1.2,0.2
			c0-0.3-0.2-0.4-0.5-0.5c0.1-0.1,0.2-0.2,0.3-0.2C162.3,95.5,161.4,95.1,160.4,95z M141.2,96.5c0.5,0.6,0.9,1.2,1.3,1.9
			c-0.3-0.3-0.5-0.7-0.9-0.9c0.1,0.2,0.2,0.4,0.2,0.6c0.1,0.1,0.2,0.2,0.2,0.2c-0.2,0-0.4,0-0.5-0.2c0.1,0.2,0.1,0.4,0.2,0.5h-0.1
			c-0.1-0.2-0.1-0.4-0.3-0.4s-0.6,0-0.5,0.4c-0.2-0.2-0.3-0.3-0.5-0.4c0,0.3,0.3,0.4,0.5,0.5c1.1,0.9,2.2,1.9,2.9,3.2
			c0.2,0.2,0.2,0.5,0.5,0.5c-0.1,0.1-0.2,0.2-0.2,0.2c-0.8-0.2-1.6-0.3-2.3-0.5c0.1,0.1,0.2,0.2,0.2,0.3c0.2,0,0.5,0.1,0.8,0.1
			l0.1,0.2c-0.5-0.2-1-0.3-1.6-0.5c0.1-0.1,0.2-0.2,0.3-0.2c-0.2,0-0.5-0.1-0.8-0.2c0.3,0,0.7,0.1,1,0.2c-0.3-0.4-0.7-0.7-1.2-0.9
			c0.2,0.2,0.5,0.3,0.5,0.5c-0.3-0.2-1-0.2-1,0.3c-0.2,0.5,0.4,0.9,0.9,0.9c-0.1,0.1-0.2,0.2-0.3,0.2c0.2,0,0.4,0,0.5,0l-0.1,0.2
			c0.1,0,0.3,0,0.4,0l-0.1,0.2c0.1,0,0.3,0,0.4-0.1v0.2c1,0.1,2,0.3,3,0.3c0.7,0,1.3,0.2,2,0.1c-0.6-0.2-1.3-0.5-2-0.5
			c-0.4,0-0.8,0-1.2-0.1l-0.1-0.2c0.5,0,0.9,0.1,1.3,0.1c-0.2-0.2-0.3-0.4-0.5-0.5c0.1,0,0.2,0,0.2,0c0.2,0.3,0.5,0.7,0.9,0.6
			c-0.2-0.2-0.4-0.5-0.6-0.7c0.1,0,0.2,0,0.3,0c-0.2-0.3-0.5-0.7-0.5-1.1c0.2,0.2,0.2,0.5,0.4,0.6c0.2-0.2,0.5,0.2,0.2,0.3l0.2-0.1
			l-0.1,0.2c0.1-0.1,0.2-0.2,0.2-0.2h0.1c-0.1,0.1-0.2,0.2-0.2,0.2c0.2,0.2,0.3,0.5,0.5,0.2l-0.2,0.3c0.1-0.1,0.2-0.2,0.2-0.2
			c0.1,0.1,0.2,0.2,0.3,0.3c-0.2-0.4-0.5-0.7-0.6-1.2c0.5,0.6,0.9,1.5,1.7,1.9c-0.1,0.1-0.2,0.2-0.3,0.2c-0.3-0.1-0.7-0.2-1.1-0.2
			c-1.6,0.2-3.3,0-4.8-0.4c-0.2,0-0.3,0-0.5,0c-0.3,0.1-0.2,0.5-0.2,0.7c0.2,0.6,0.6,1.2,1.1,1.6c0.2,0.2,0.5,0.4,0.5,0.7
			c-0.5-0.1,0.1,0.5,0.2,0.1c0,0.1-0.1,0.2-0.1,0.3c0.4,0.5,0.8,1,1.1,1.6c0.2,0.4,0.5,0.6,0.9,0.9c0.9,0.5,1.8,0.8,2.8,1
			c0.2,0.1,0.5,0.2,0.7,0.1c0,0.1,0,0.2,0,0.2c-0.1,0-0.2,0-0.3,0l0,0c1.1,0.3,2.2,0.5,3.3,0.8c0.2,0.2,0.2,0,0.1-0.1
			c0,0,0,0-0.1-0.1V111c0.4,0,0.9,0.1,1.2,0c0.8-0.2,1.4-1,1.2-1.8c-0.2-0.9-0.9-1.5-1.6-2c-0.3-0.3-0.9-0.5-1.2-0.2
			c-0.4,0.4-0.7,0.9-0.9,1.5c0-0.8,0.5-1.5,0.8-2.1c-0.6,0.3-1.1,0.9-1.4,1.5l0.1-0.3c-0.1,0-0.2,0.1-0.2,0.2c0,0.2-0.1,0.4-0.2,0.5
			c0-0.6,0.4-1.2,0.7-1.7c0.1-0.2,0.2,0.1,0.2,0.2c-0.3,0.2-0.3,0.5-0.5,0.7c0.1,0.1,0.1,0.2,0.2,0.2c0.2-0.7,0.9-1.2,1.5-1.6
			c-0.3,0-0.6,0.2-0.9,0.4c0-0.1-0.1-0.2-0.1-0.2c0.2-0.2,0.2-0.5,0.2-0.8c-0.2-0.5-0.6-0.7-1.1-0.9c0.5-0.1,0.8,0.2,1.2,0.4
			c0.7,0.3,1.3,0.9,1.7,1.5c0.5,0.6,1,1.2,1.6,1.6c0.5,0.4,0.7,1.1,0.5,1.7c0.1,0,0.2,0,0.2,0c-0.1-0.4,0.1-0.8-0.1-1.1
			c-0.2-0.5-0.6-0.8-1-1.2c-0.5-0.5-0.9-0.9-1.3-1.4c-1.2-1.2-2.7-1.8-4.3-2.1c0.1-0.1,0.2-0.2,0.2-0.2c-0.2-0.1-0.2-0.2-0.4-0.4
			c-1.2-1.6-2.5-3.3-3.8-5C142.6,98.2,141.9,97.3,141.2,96.5z M145,97.6L145,97.6c0.8,0.2,1.6,0.3,2.3,0.6c0.5,0.2,0.9,0.5,1.3,0.7
			c-0.2-0.2-0.4-0.3-0.6-0.5c-0.8-0.5-1.6-0.8-2.5-0.9C145.3,97.6,145.1,97.6,145,97.6z M157.2,99.8c0.5-0.4,0.9-0.9,1.4-1.3
			c-0.5,0.9-1.2,1.6-2.1,1.9c0.2,0,0.5-0.1,0.7-0.1c-0.1,0.1-0.2,0.2-0.2,0.2l0.2,0.1c-0.2,0.2-0.5,0.2-0.7,0.4
			c0.3,0.2,0.6-0.1,0.9-0.2c-0.2,0.2-0.4,0.2-0.6,0.3c0.2,0.2,0.3,0.3,0.5,0.5c-0.3,0.1-0.5,0-0.9-0.1c0.3,0.2,0.8,0.3,1.2,0.2
			c0.2-0.1,0.5-0.3,0.6,0.2l-0.1-0.5c0.1,0.2,0.2,0.2,0.2,0.4c0.5-0.6,0.8-1.4,0.8-2.2c0-0.2,0.1-0.5-0.2-0.6
			c-0.2,0.2-0.5,0.5-0.7,0.6c0.3-0.5,1-1.1,0.6-1.7C158.1,98.3,157.5,99,157.2,99.8z M142.8,98.1c0.2,0.3,0.4,0.7,0.8,0.6
			c1.4,0,2.8,0,4.2,0.1c-0.2-0.2-0.4-0.3-0.6-0.2c-1-0.2-2.1,0.1-3.1-0.4c-0.2-0.2-0.4-0.1-0.6-0.1V98
			C143.3,98.1,143,98.1,142.8,98.1z M144.1,99.2c-0.1,0.3,0.2,0.5,0.4,0.8c0.9,1.2,1.8,2.3,2.6,3.5c0.5,0.5,1.3,0.6,1.9,0.9
			c0.2,0,0.4,0.1,0.6,0.2c-0.2,0.1-0.2,0.1-0.4,0.2c0.3,0.1,0.7,0.2,1,0.2c-0.2-0.7-0.2-1.4-0.2-2c0.2,0.8,0.2,1.7,0.8,2.4
			c0.8,0.5,1.8,0.3,2.6,0.4c-0.5,0.2-1.1,0.2-1.6,0.2c0.2,0.2,0.6,0.1,0.9,0.1c-0.2,0.2-0.5,0-0.7,0.2c0.3,0.2,0.9,0,1.1,0.2
			c-0.2,0-0.5-0.1-0.8,0c0.4,0.1,0.7,0.1,1.1,0.2c0,0.1,0,0.2,0,0.2c0.3,0,0.3,0.1,0.2,0.4c0.1,0,0.3,0,0.5,0c0,0.1,0,0.2,0,0.2
			c-0.1,0-0.2,0.1-0.3,0.1c0.2,0.1,0.4,0.1,0.6,0l-0.1,0.2c0.2,0,0.4,0,0.5-0.1c-0.1,0.1-0.2,0.2-0.4,0.2c0.5,0.1,0.9,0,1.5,0
			c-0.6-0.1-1.1,0.5-1.7,0.2c0.1,0.1,0.2,0.1,0.3,0.2c0.2-0.1,0.5-0.1,0.8-0.2c0,0.1,0,0.2,0,0.3c0.2,0,0.3,0,0.5,0
			c0,0.1,0,0.2,0,0.2c0.1-0.1,0.1-0.2,0.2-0.2c0.1,0,0.2-0.1,0.3-0.1c0-0.1,0.1-0.3,0.1-0.4c-0.2-0.9-0.9-1.3-1.2-2.1
			c-0.2-0.5-0.5-0.9-1.1-0.9l0.2-0.3c-0.1-0.1-0.2-0.1-0.2-0.2c-0.1,0.2-0.2,0.2-0.3,0.3c0.2-0.2,0.3-0.4,0.5-0.6
			c0,0.2,0.1,0.2,0.1,0.4c0.3-0.5,0.7-0.9,0.9-1.5c-0.2,0.4-0.5,0.8-0.7,1.2c-0.1-0.1-0.1-0.2-0.2-0.2c0.2-0.5,0.4-0.9,0.4-1.5
			c-0.1,0.6-0.3,1.2-0.7,1.8H154l-0.1-0.1c0.2-0.2,0.2-0.3,0.3-0.5c-0.2,0.2-0.4,0.5-0.7,0.7c0.2-0.7,0.5-1.5,0.9-2.1
			c0.2-0.2,0.5-0.4,0.5-0.6c-0.8,0.3-1.2,1.1-1.6,1.7c0.2-0.5,0.4-1,0.8-1.4c0.2-0.2,0.4-0.3,0.4-0.6s-0.3-0.5-0.4-0.8
			c0.4,0.3,0.9,0.5,1.2,1c0.9,1.6,1.3,3.3,1.6,5c0.2,1-0.5,2.2-1.6,2.3c0.1,0,0.3,0.1,0.4,0.1c-0.2,0.1-0.4,0.1-0.5,0.2
			c0-0.2,0-0.2,0-0.4c-0.1,0-0.2,0.1-0.2,0.1h0.1c0.1,0.1,0.2,0.2,0.2,0.2c-0.2,0-0.5,0-0.8,0c0,0.1,0.1,0.2,0.1,0.2
			c0.6,0.1,1.3-0.2,1.9-0.5c0.9-1.1,0.9-2.7,0.6-4c-0.3-1.2-0.7-2.5-1.5-3.6c-0.2-0.3-0.5-0.5-0.9-0.7c-1.1-0.5-2.2-1-3.3-1.3
			c-0.6-0.2-1.4-0.1-2-0.3c0,0.2,0,0.2,0,0.4c0.3,0.1,0.7-0.2,0.9,0.1c-0.8,0.1-1.5-0.2-2.3-0.2c0.5,0,0.9,0,1.3,0.1
			c0-0.1-0.1-0.2-0.1-0.2c-1.3,0-2.7-0.2-4-0.2C144.4,99,144.2,99,144.1,99.2z M140.8,99.6c-0.1,0.2-0.2,0.3-0.2,0.5
			c-0.2,0-0.3,0-0.5,0c-0.2,0.2-0.1,0.3,0,0.5c0.2,0.2,0.3,0.2,0.5,0.3l-0.1,0.2c0.1,0,0.2-0.1,0.3-0.1l-0.1,0.2l0.2-0.1
			c0,0.3,0.5,0.4,0.6,0.7c0.2,0.5,0.8,0.4,1.2,0.5c-0.3-0.2-0.6-0.5-0.9-0.9c0.4,0.4,0.9,0.7,1.3,0.9c-0.2-0.2-0.2-0.5-0.2-0.8h0.2
			c-0.3-0.6-0.9-1.1-1.3-1.6C141.6,99.9,141.3,99.5,140.8,99.6z M159.3,100.5c-0.1,0.2-0.1,0.3-0.1,0.5
			C159.5,101,159.6,100.4,159.3,100.5z M157.9,101.7c-0.3,0.3-0.8,0.4-1.2,0.4c0.5,0.2,0.9,0.1,1.4-0.2
			C158,101.9,158,101.8,157.9,101.7z M147.5,103.9c0,0.1,0.1,0.2,0.2,0.2c0.5,0.2,1.1,0.4,1.6,0.6c0-0.1,0-0.2,0-0.2
			C148.7,104.3,148.1,104.1,147.5,103.9z M157.5,107.3c-0.2-0.2-0.4-0.3-0.6-0.3C157.1,107.1,157.3,107.5,157.5,107.3
			c0.2-0.3,0.3-0.8,0.4-1.2C157.5,106.4,157.7,106.9,157.5,107.3z M157,108.2c0.1,0,0.2,0,0.2,0c0.1-0.2,0.2-0.4,0.2-0.5
			C157.2,107.7,157.2,108,157,108.2z M156.9,108.2c0,0.3-0.2,0.5-0.4,0.7c-0.1,0-0.2-0.1-0.2-0.1c0,0.1,0.1,0.2,0.1,0.3
			c-0.4,0-0.5,0.5-1,0.5c-0.4,0-0.9,0.5-0.5,0.8c-0.3,0.2-0.7,0.3-0.8,0.7c1.2-0.6,2.2-1.6,3-2.7C157.1,108.4,157,108.3,156.9,108.2
			z M154,109.7c0.1,0.9-0.3,1.7-0.9,2.3c0.9-0.4,1.2-1.4,1.3-2.3C154.3,109.7,154.1,109.7,154,109.7z M146.4,112.1
			c0.2,0.1,0.3,0.2,0.5,0.4c-0.5-0.1-1,0.2-1.6,0.1c0.2-0.1,0.4,0,0.5-0.2c-0.2-0.2-0.5-0.1-0.7-0.1c-0.9,0-1.8-0.4-2.7-0.6
			c0.9,0.5,1.8,0.8,2.7,1c-0.1,0-0.2,0-0.2,0c0,0.3,0.5,0.2,0.6,0.2c1.2,0,2.4-0.5,3.2-1.4c-0.2-0.2-0.4,0.1-0.5,0.2
			c-0.3,0.3-0.8,0.5-1.2,0.7c0-0.1,0.1-0.2,0.1-0.3c0.4-0.1,0.8-0.3,0.9-0.5C147.5,111.8,146.9,112.1,146.4,112.1z M146.3,112.3
			c0.2-0.2-0.2-0.2-0.3-0.2C145.7,112.3,146.2,112.5,146.3,112.3z M148.5,115.1c-0.9,0.8-2.1,1.5-3.3,1.7c-1.2,0.3-2.6,0.1-3.8-0.4
			c-0.6-0.3-1.3-0.5-1.9-0.9c-0.4-0.2-0.6-0.5-0.9-0.8c0.2,0.9,0.5,1.9,1.2,2.6c-0.1-0.2-0.2-0.5-0.3-0.7c0.2,0.5,0.7,0.8,1.2,1
			c0.5,0.3,1.1,0.2,1.7,0.2c-0.1,0.2-0.2,0.2-0.4,0.4c0.5,0.3,1.2,0.5,1.9,0.6c-1-0.2-2-0.5-3-0.9c-0.5-0.2-0.7-0.6-1.2-0.8
			c0.3,0.4,0.7,0.8,1.2,0.9c1.4,0.6,2.9,1.1,4.4,1c0.7,0,1.3-0.2,1.9-0.3c-0.1-0.1-0.2-0.1-0.2-0.2c-0.7,0.3-1.5,0.3-2.2,0.2
			c0.8,0,1.5-0.3,2.2-0.5c0.1,0,0.1-0.1,0.1-0.1c-0.3,0.2-0.8,0.3-1.2,0.3c0.9-0.2,1.9-0.5,2.5-1.3c0.1,0.1,0,0.2,0.1,0.2
			c-0.1,0.1-0.1,0.2-0.3,0.2l0.2,0.1c0.2,0,0.4-0.4,0.3-0.5l0.2,0.3v0.2c-0.1,0.1-0.2,0.2-0.3,0.2v0.1h0.2c0.3-0.3,0.6-0.6,0.9-1
			l-0.2-0.1c-0.2,0.2-0.2,0.3-0.4,0.5l-0.2-0.1c0.1-0.2,0-0.3-0.1-0.5c0-0.1,0.1-0.2,0.2-0.2c-0.1,0.1-0.2,0.2-0.2,0.3h-0.2l0.1,0.2
			h-0.2c-0.8,0.6-1.7,1.2-2.7,1.2c1.2-0.6,2.4-1.4,3.1-2.6c0.3-0.4,0.7-0.7,1-1.1l-0.2,0.1c-0.7,0.6-1.4,1.2-2.1,1.9
			c1.2-1.4,2.8-2.6,4.2-3.8c0.2-0.2,0.5-0.2,0.5-0.5C150.7,112.9,149.5,114,148.5,115.1z M144.1,112.7c0.2,0.1,0.4,0.1,0.5,0.1
			C144.7,112.5,144.1,112.4,144.1,112.7z M150.1,115.3c0.1,0,0.2-0.1,0.2-0.2c0.1-0.5,0.3-0.9,0.3-1.3
			C150.3,114.2,150.3,114.8,150.1,115.3z M143.6,116.4c0,0.1,0,0.2,0,0.2c0.4,0,0.8,0.1,1.1,0.1c0.6-0.1,1.1-0.3,1.7-0.5
			c0-0.1-0.1-0.2-0.2-0.2c0,0,0.1-0.1,0.2-0.2c0.1,0.2,0.2,0.2,0.3,0.2l-0.2-0.2c0.2-0.1,0.4-0.2,0.5-0.4
			C145.9,115.7,144.8,116,143.6,116.4z M141.9,116.4c0.5,0.2,0.9,0.2,1.4,0.2c-0.2-0.2-0.5-0.2-0.8-0.2
			C142.3,116.4,142.1,116.2,141.9,116.4z M147.2,118.3c0.1,0.1,0.2,0.1,0.2,0.2c0.3-0.2,0.7-0.3,0.9-0.6
			C147.9,117.9,147.7,118.2,147.2,118.3z M147.3,118.6c0,0.1-0.1,0.2-0.1,0.2c0.5-0.2,1.1-0.5,1.5-0.9h-0.1
			C148.2,118.1,147.8,118.6,147.3,118.6z"/>
	</g>
	<g>
		<path class="st0" d="M183,88.1c1.1-0.7,2.4-0.9,3.7-0.9c1.4-0.1,2.8,0.5,4,1.3c0.4,0.2,0.6,0.6,0.9,0.9c1.6,2,2.8,4.3,3.8,6.8
			c0.8,1.6,1.1,3.3,1.2,5c0.1,1.7,0,3.5-0.5,5.2c-0.3,1-0.6,2.1-1.2,3c-0.3,0.6-0.8,1.2-1.2,1.7c0.2,1.5-0.2,3-0.6,4.3
			c-0.1,0.2-0.4,0.3-0.4,0.6c-0.5,1.2-1.1,2.5-2.3,3.1c-2.1,0.7-4.4,1-6.5,0.2c-1.6-0.7-2.6-2.3-3.1-4c-0.2-0.2,0-0.4,0.2-0.4
			c0,0.6,0.3,1.2,0.5,1.7s0.4,1,0.9,1.2c-0.3-0.5-0.7-1-0.9-1.6c-0.3-0.8-0.5-1.6-0.6-2.3c0-0.2,0-0.3-0.2-0.4
			c0,0.2,0.2,0.6-0.2,0.6v-0.2c-0.1-0.1-0.2-0.2-0.2-0.2c0.2-0.2,0.2-0.5,0-0.5c-0.5-0.5-0.9-0.9-1.3-1.4c-0.3-0.2-0.7-0.2-1-0.5
			c-0.3-0.2-0.5-0.6-0.8-0.9c-1.7-1.2-3-3.3-2.9-5.4c0.1-0.2-0.2-0.3-0.3-0.5c-0.4-0.4-0.5-0.9-0.7-1.5c-0.4,0.5-0.9,1.1-1.6,1.1
			c-0.7,0.1-1.2-0.5-1.5-1.1c-0.6-1.4-0.2-3-0.8-4.3c-0.2-0.6-0.6-1.2-0.6-1.9c-0.1-1.1,0.7-1.9,1.6-2.6c0.5-0.4,1.2-0.6,1.8-0.7
			c0.8-0.2,1.3-1,1.4-1.8c0.1,0,0.2,0.1,0.3,0.1c0,0.8-0.1,1.4-0.2,2.1c0,1-0.4,1.9,0,2.9c0,0.2,0.2,0.2,0.2,0.4
			c-0.9,1.9-0.9,4-0.5,6.1c0,0,0.1,0.1,0.2,0.2c-0.2-1.6-0.3-3.2,0-4.7c0.1-0.8,0.4-1.5,0.9-2.1c0.4-0.6,1.1-0.9,1.8-1.2
			c0-0.1,0.1-0.2,0.2-0.2c-0.9,0.4-1.9,0.8-2.3,1.8c-0.1-0.1-0.2-0.2-0.2-0.2c-0.2-0.8,0-1.6-0.1-2.4c0.1-0.8-0.2-1.6,0.2-2.3
			c0.2-0.3,0.3-0.6,0.6-0.7c-0.1-0.1-0.2-0.2-0.2-0.2c-0.2,0.2-0.3,0.5-0.4,0.7c-0.1-0.2-0.1-0.4,0.1-0.5c0.7-0.9,1.9-1.3,3-1.7
			c1.2-0.4,2.4-0.6,3.6-0.8C181.5,88.3,182.3,88.3,183,88.1z M184.3,87.6c-0.2,0.1-0.4,0.1-0.5,0.2C184,87.8,184.1,87.7,184.3,87.6
			c0.7,0.3,1.4,0.1,2.1,0.3c0.7,0.1,1.3,0.3,1.9,0.5c-0.8-0.5-1.7-0.7-2.6-0.8c0.5,0,1.2,0,1.7,0.2c1.6,0.5,2.7,1.6,3.6,2.9
			c0,0.2,0.2,0.2,0.4,0.2c0.3,0.7,0.5,1.4,0.6,2.2c0.2,2.2,0.5,4.3,1.1,6.4c0.5,1.6,0.5,3.3,0,4.8c-0.6,2.1-2,3.9-3.6,5.3
			c-0.8,0.6-1.6,1.2-2.6,1.4c-0.7,0.2-1.4,0.2-2.1,0.4c1.3,0,2.6-0.3,3.8-1c0.3-0.2,0.5-0.5,0.9-0.5c-0.4,0.5-1,0.7-1.4,1.2
			c0.5,0.1,0.9-0.2,1.2-0.5c1.3-1.2,2.4-2.6,3.5-4c-0.7,1.3-1.7,2.4-2.6,3.6c0.7-0.5,1.2-1.2,1.7-1.9c0.1,0,0.2,0.1,0.2,0.1
			c0-0.1,0.1-0.2,0.1-0.2c0.3-0.3,0.6-0.6,0.7-1c0,0.2,0.1,0.2,0.2,0.2c0.2-0.5,0.5-0.9,0.7-1.5c-0.2,1-0.8,1.9-1.4,2.6
			c-0.1,0-0.2-0.1-0.2-0.1c0,0.1,0.1,0.2,0.1,0.3l-0.2-0.1l0.1,0.2l-0.2-0.2c0,0.1,0.1,0.2,0.1,0.2c-1.2,1.2-2.6,2.5-4.3,2.9
			c-1,0.2-2.1,0.2-3-0.3c-0.2-0.2-0.5-0.1-0.7-0.1c0.9,0.6,1.9,0.9,3,0.8c1.3-0.2,2.5-0.9,3.5-1.6c1.3-0.9,2.4-2.1,3.3-3.5
			c-0.2,0.5-0.5,0.9-0.7,1.3c0.4-0.3,0.8-0.8,1-1.2c0.2-0.5,0.6-1,0.7-1.6c0.1,0.2,0.2,0.4,0.2,0.6c0.1-0.4,0.2-0.8,0-1.2
			c0.1,0,0.2,0.1,0.2,0.1c0-0.1-0.1-0.2-0.1-0.3l0.1-0.1c0.6-3,0.4-6.1-0.3-9c-1-2.3-2.3-4.5-3.8-6.5c-0.5-0.6-1.2-1-1.9-1.3
			C187.8,87.2,186,87.2,184.3,87.6z M183.1,88.3l0.1,0.2c0.5,0.1,0.9,0.3,1.2,0.5c-0.3-0.2-0.5-0.3-0.9-0.4
			c-0.2-0.1-0.5-0.1-0.7-0.3c-0.5,0.2-1,0.1-1.4,0.4c1.5-0.2,3,0.5,4,1.4c0.3,0.2,0.5,0.5,0.9,0.8c-0.2-0.5-0.7-0.6-0.9-1.1
			c0.4,0.2,0.7,0.5,1,0.9c0.2,0.2,0.4,0.2,0.5,0.2c-0.5-0.6-1.2-1.2-1.8-1.7c0.8,0.5,1.5,1.1,2,1.7c0.3,0,0.7,0,1,0
			c0.2-0.1,0.3-0.3,0.4-0.5c0-0.1,0-0.2,0-0.3c-0.1,0-0.2,0-0.2,0c0-0.1,0-0.2,0-0.3c-0.1,0-0.2,0-0.3,0c0-0.1,0.1-0.2,0.1-0.3v0.2
			c0-0.1,0-0.2,0-0.2c0.1,0.1,0.2,0.2,0.4,0.2l-0.2-0.5l-0.1,0.1c-0.2-0.2-0.5-0.4-0.9-0.5c-0.1,0-0.2-0.1-0.3-0.1
			c0.2-0.1,0.2-0.2,0.4-0.2c-0.5-0.1-0.9-0.3-1.3-0.3C185.2,88.1,184.1,88.1,183.1,88.3z M187.5,88.8c0.3,0.1,0.6,0.3,0.9,0.5
			c0.7,0.5,1.4,1.1,1.9,1.7c0.2,0.2,0.2,0.3,0.4,0.3c-0.1,0.1-0.1,0.2-0.2,0.3c-1.7-0.6-3.6-0.8-5.4-0.2c-0.2,0.1-0.3,0.1-0.3,0.2
			c0.1,0.1,0.2,0.2,0.2,0.2c-0.1-0.1-0.3-0.2-0.4-0.3c0.4,0.6-0.5,0.3-0.5,0.7c0-0.1,0.1-0.2,0.1-0.2c0.2-0.1,0.3-0.1,0.5-0.2
			c-0.1-0.1-0.1-0.2-0.2-0.3l-0.1,0.2c-0.9,0.4-1.7,0.9-2.4,1.6c0.7-0.5,1.4-0.9,2-1.3c-0.1,0.2-0.1,0.2-0.2,0.4l-0.2-0.1
			c0.1,0.2,0.2,0.2,0.5,0c-0.1,0.3,0.5,0.2,0.5,0.4c-0.5,0.2-1.2-0.1-1.7,0.2c0.6,0.1,1.2-0.2,1.8-0.1c0.2-0.2,0.5-0.1,0.7-0.1
			c1.3,0.2,2.7,0.2,4,0.4c0.4-0.2,0.7-0.5,1-0.8c-0.6-0.2-1.2-0.3-1.9-0.4l-0.3-0.2l0.8,0.1c-0.2-0.1-0.4-0.2-0.5-0.3
			c0.2,0,0.8,0,1,0.1l-0.1,0.2c0.1,0,0.3,0,0.4-0.1v0.2c0-0.1,0-0.2,0-0.3c0.3,0.1,0.6,0.4,1,0.2c0.2-0.2-0.1-0.2-0.2-0.2
			c0-0.1,0.1-0.2,0.1-0.3l-0.2,0.1c0-0.2-0.2-0.3-0.3-0.5c-0.9-1-1.9-1.9-3-2.4C187.5,88.6,187.5,88.7,187.5,88.8z M178.8,89.2
			c0,0.1-0.1,0.2-0.2,0.2c1-0.2,2-0.4,3-0.5c0.5,0,0.9,0,1.4,0.2c-0.1,0-0.2,0-0.2,0.1c-1.8,0-3.6,0.2-5.4,0.6
			c0.2-0.1,0.4-0.2,0.5-0.2c0-0.1,0.1-0.2,0.2-0.3c-1.2,0.4-2.6,0.7-3.6,1.6l0.1,0.2c0.4-0.4,0.8,0.1,0.9,0.5
			c0.2,0.5,0.2,1.2,0.7,1.6c0-0.9-0.1-1.9-0.8-2.5c0.4-0.4,0.9-0.5,1.5-0.7c-0.4,0.3-0.8,0.7-0.6,1.2c0.1,0.5,0.6,0.7,0.8,1.2
			c0.1,0.2,0.1,0.3,0.2,0.5c0,0.1,0,0.2,0,0.2c0.1,0,0.2-0.1,0.2-0.1c0,0.2,0,0.3,0.1,0.5h0.1c0-0.3,0-0.6,0-1
			c0.5,0.3,0.2,0.9,0.2,1.2c0.2-0.4,0.2-0.9,0.2-1.2c0.1,0.1,0.2,0.2,0.3,0.3c0-0.2,0-0.5,0-0.8c0.1,0.2,0.2,0.4,0.2,0.5
			c0.2,0,0.4,0.2,0.5,0.4c0.1-0.3,0.2-0.6,0.1-1c-0.1,0-0.2,0-0.2-0.1c0,0.1-0.1,0.2-0.1,0.3c0-0.7-0.2-1.3-0.5-1.9
			c0.5,0.4,0.6,1,0.6,1.6c0.1,0,0.2-0.1,0.3-0.1c-0.2,0.2,0.2,0.4,0.2,0.5c0.8,0.5,1.7,0.4,2.6,0.1c0.9-0.3,1.9-0.6,2.7-1.3
			c0.3-0.2,0.5-0.7,0.2-1c-0.5-0.6-1.2-0.9-2-1.1C181.6,88.6,180.2,89.1,178.8,89.2z M178.6,89.5c0,0,0.1-0.1,0.1-0.2
			C178.4,89.2,178.2,89.6,178.6,89.5z M189.7,93.4c-1.3,0.9-2.4,2-3.6,3.1l-0.1,0.2c0,0,0.1,0.1,0.2,0.1c-0.2,0-0.2,0.2-0.3,0.4
			l-0.1-0.1c-0.3,0.5-0.8,0.8-1.2,1.2c-0.1-0.1-0.2-0.1-0.2-0.2l0.4-0.2c-0.1-0.1-0.2-0.2-0.2-0.2c-0.4,0.5-1,0.9-1.5,1.2
			c0.5-0.2,0.9-0.5,1.3-0.9c0,0.1-0.1,0.3-0.1,0.4l0.2-0.2l-0.1-0.2l0.2,0.1c0.7-0.4,1.5-0.8,2.3-1.1l-0.2-0.2
			c0.1,0,0.3,0.1,0.4,0.1c-0.8,0.3-1.5,0.8-2.2,1.3c1.1-0.2,2.2-0.5,3.3-0.5c-0.1,0.2-0.2,0.2-0.3,0.2l0.1,0.2c-1-0.1-2,0.3-3,0.8
			c0,0-0.1,0.1-0.2,0.2c0.2-0.1,0.4-0.2,0.6-0.2c0,0.1,0.1,0.2,0.1,0.2c0.2-0.2,0.5,0,0.8,0c1.2,0.2,2.4,0.2,3.6,0.4
			c0.3-0.1,0.5-0.3,0.7-0.5c-0.5,0-0.9-0.2-1.3,0c-1.1,0.4-2.3,0-3.4-0.1c-0.1-0.1-0.2-0.1-0.2-0.2c1.2-0.5,2.6-0.4,3.9-0.4v-0.2
			c0.5,0.1,1.1,0.2,1.6,0.1c0.4-0.1,0.7-0.5,0.6-0.9c-0.2-0.3-0.5-0.4-0.8-0.5c0-0.1-0.1-0.2-0.2-0.2c0-0.2,0-0.3,0-0.4
			c-1.1-0.2-2,0.5-3,0.8c0.4-0.2,0.9-0.4,1.3-0.6c0.6-0.4,1.2-0.8,1.9-0.9c0.2-0.1,0.6,0,0.7-0.3c0.2-0.3-0.2-0.6-0.2-1
			c-0.2,0.2-0.3,0.4-0.5,0.5c0.2-0.5,0.7-0.9,0.5-1.4c-0.3-0.3-0.8-0.2-1.2-0.1c0.4-0.3,1.1-0.5,0.9-1
			C190.9,92.5,190.2,92.9,189.7,93.4z M173.1,93.4c0.2,0,0.4,0,0.6,0c0-0.2,0-0.4,0.1-0.6C173.5,93,173.3,93.2,173.1,93.4z
			 M184,93.2c-0.3,0.1-0.6,0.1-0.9,0.2c0.5,0,1,0.2,1.6,0.2c0,0.1,0.1,0.2,0.2,0.3c-0.9-0.2-1.8-0.1-2.7-0.1c0.6,0.1,1.2,0,1.9,0.1
			c1.2,0.1,2.3,0.5,3.3,0.9c-0.5-0.2-1-0.5-1.6-0.6c0.1-0.1,0.2-0.2,0.2-0.2c0.4,0.1,0.7,0.3,1.1,0.2c0,0.1,0.1,0.2,0.1,0.2l0.1-0.1
			c0.1,0,0.3,0,0.4,0c-0.2-0.1-0.5-0.2-0.8-0.1L187,94c-0.5-0.2-1-0.4-1.6-0.5c0.8,0.2,1.6,0.4,2.3,0.6c0.6,0.2,1.2-0.2,1.6-0.5
			c-0.2-0.2-0.4-0.2-0.6-0.2C187.1,93,185.6,93,184,93.2z M170.2,94.9c0.2-0.1,0.5-0.2,0.6-0.3c-0.1,0.1-0.2,0.2-0.3,0.3
			c0.4,0,0.9,0,1.2,0c-0.2,0.1-0.3,0.1-0.5,0.1c-0.5,0-0.9,0.2-1.2,0.4c0.7-0.2,1.4-0.2,2.1-0.2c-0.8,0.2-1.6,0.2-2.2,0.6
			c-0.2,0.2-0.4,0.4-0.6,0.4c-0.2,1.2,0.6,2.2,0.9,3.3c0.2-0.1,0.2-0.2,0.2-0.4c0.2,0,0.2,0,0.4,0c-0.3,0.2-0.4,0.5-0.5,0.8
			c0.1,1.2,0.1,2.6,0.8,3.7c0.1-0.8,0-1.6,0.5-2.3c-0.2,0.9-0.4,1.7-0.2,2.6c0.2,0.1,0.5,0.2,0.8,0c0.4-0.2,0.8,0.1,1.1-0.3
			c0.1-0.2,0.5-0.9,0.5-1.1c-0.4,0.6-1.1,1.5-1.9,1.1c0.7,0.2,1.3-0.5,1.4-1.2c0.1-0.5,0.1-1,0.1-1.5c0-1-0.3-1.9-0.7-2.8
			c0.3,0.5,0.5,0.9,0.6,1.5c0-0.3,0.1-0.7,0.2-1c-0.1,0-0.2,0.1-0.2,0.1c0-0.2,0-0.5,0-0.8h0.2c0-0.2-0.1-0.5-0.2-0.8h0.2
			c-0.1-0.2-0.2-0.5-0.2-0.6h0.1c0.1,0.3,0.4,0.7,0.2,1h0.2c0-0.1,0-0.4-0.2-0.7c0-0.1,0-0.3-0.2-0.4c0,0,0-0.3-0.1-0.4
			c-0.3-0.4-0.6-0.5-0.8-0.2c-0.1-0.8,1.2-0.3,0.6-0.8c0.5-0.2,0.4-0.6,0.3-1.2C171.8,93.7,171.1,93.9,170.2,94.9z M181.3,93.9
			c0.2,0.1,0.5,0,0.7-0.1C181.8,93.7,181.5,93.8,181.3,93.9z M180.1,94.1c-0.3,0-0.7,0-0.9,0.2c0.4,0.1,0.7-0.2,1.1-0.2
			c-0.5,0.2-0.9,0.2-1.5,0.3c0.2,0,0.2-0.1,0.3-0.2c-0.8,0.1-1.6,0.5-2.3,0.7c0,0-0.1,0.1-0.1,0.2c0.1,0,0.2,0.1,0.2,0.1
			c-0.3,0.1-0.7,0.3-0.8,0.7c-0.1,0.2,0.2,0.4,0.2,0.6s0,0.5-0.1,0.7l0.2-0.1c-0.2,0.2,0,0.4,0.1,0.6c0.2,0.5,0.3,0.9,0.7,1.2
			c0.2,0.2,0.6,0.1,0.9,0.2c0.2-0.2,0.2-0.5,0.3-0.7c0-0.3,0-0.6,0-0.9c0.2,0.6,0,1.2-0.1,1.9c0.1,0.2,0.4,0.3,0.6,0.3
			c0.4-0.2,0.4-0.5,0.5-0.9c0.2-0.8-0.2-1.6-0.3-2.3c0.3,0.7,0.5,1.5,0.4,2.3c0.9,0.5,2,0.2,3,0c0.3-0.2,0.9-0.3,0.9-0.7
			c0.2,0.1,0.5-0.2,0.3-0.4h0.2v-0.2c0.1,0,0.2,0.1,0.2,0.1c0-0.1,0-0.2,0-0.3h-0.2c0-0.3,0.2-0.2,0.3-0.4c0.5-0.2,0.9-0.5,1.3-0.8
			c0.4-0.2,0.8-0.5,0.9-0.9c0-0.2-0.1-0.3-0.2-0.4c-0.5-0.2-1-0.4-1.5-0.5c-1.6-0.3-3.2-0.4-4.7,0L180.1,94.1c0.3,0.1,0.5,0.1,0.8,0
			V94C180.7,94,180.4,93.9,180.1,94.1z M170,95.1L170,95.1C170,95,170,95.1,170,95.1z M169.6,95.7c0.2-0.1,0.4-0.4,0.4-0.6
			C169.7,95.2,169.6,95.5,169.6,95.7z M175.3,98.4c-0.3-0.2-0.5-0.5-0.7-0.7c-0.4,1-0.2,2.3,0.5,3.1c0.4,0.4,1,0.5,1.6,0.2
			c-0.6,0.1-1.2-0.2-1.6-0.7c0.3,0.2,0.5,0.4,0.9,0.5c0.3,0.1,0.6,0,0.9-0.2c-0.3,0-0.6,0.1-0.9-0.1c0.2-0.2,0.5-0.3,0.5-0.5
			c0.1,0,0.2,0,0.3,0c-0.2-0.2-0.5-0.3-0.7-0.5c0.1,0,0.2,0,0.2-0.1c-0.1-0.2-0.2-0.2-0.2-0.4c0.2,0.1,0.4,0.2,0.3,0.4
			c0.1,0.1,0.2,0.2,0.4,0.2c-0.1-0.1-0.2-0.2-0.2-0.3c0.1,0,0.3,0,0.4,0c-0.3-0.2-0.5-0.3-0.8-0.5c-0.5-0.5-0.9-1.1-1.2-1.8
			c0.4,0.5,0.7,1.2,1.2,1.6c-0.2-0.8-0.6-1.6-1.2-2C174.4,97.2,174.9,97.8,175.3,98.4z M184.8,97.5c0.1,0.1,0.1,0.2,0.2,0.2
			c0.3-0.3,0.7-0.5,0.9-0.9v-0.1C185.4,96.9,185.2,97.4,184.8,97.5z M195.4,96.7c0,0.5,0.2,1,0.2,1.5c0.4,2.9,0.3,5.9-0.7,8.6
			c-0.3,0.5-0.5,1.2-1,1.5c0.4-0.6,0.9-1.2,1-2c-0.1,0-0.2,0.1-0.2,0.1c0,0.3-0.2,0.6-0.4,0.9c-0.8,1.2-1.9,2.3-3,3.1
			c0.9-0.4,1.6-1.1,2.3-1.8c0.1,0.2,0.2,0.2,0.3,0.1c0.5-0.6,1.1-1.3,1.3-2.1c0.5-1.4,0.9-2.8,0.9-4.3c0,1.6-0.3,3.3-0.9,4.7
			c-0.6,1.5-1.6,2.7-2.8,3.6c-0.1,0.1-0.2,0.2-0.3,0.3c0.9-0.4,1.7-1,2.3-1.8c-0.5,0.8-1.1,1.4-1.8,1.9c-1.7,1.4-3.9,2.2-6.1,2.2
			c0.9-0.2,1.9-0.2,2.7-0.6c-1.2,0.2-2.3,0.4-3.5,0.2c-0.7-0.2-1.4-0.6-1.9-1l0.1,0.2c0.5,0.6,1.4,0.9,2.2,1.2c-1,0-2-0.6-2.6-1.4
			c-0.1,0-0.2,0-0.2,0c0.7,1.3,2.3,1.9,3.7,1.9c2.2-0.1,4.3-1,6.1-2.3c1.7-1.3,2.8-3.3,3.3-5.4c0.3-1.6,0.3-3.3,0.2-4.9
			C196.3,99.3,196.1,97.9,195.4,96.7z M185.4,104.5c0,0.1,0.1,0.2,0.2,0.2c-1.7,0.2-3.6,0.5-4.8,1.8c-0.6,0.5-1.2,1-1.9,1.5
			c-0.6,0.4-0.5,1.2-0.7,1.8c-0.2-0.2,0-0.5-0.1-0.9c-0.1,0-0.3,0-0.4,0c-0.1,0.9,0.1,2,0.9,2.4c-0.3-0.4-0.5-0.9-0.6-1.4l0.1-0.1
			c0,0,0.1,0.1,0.2,0.2c0.1,0.9,0.7,1.7,1.6,1.7c1.2-0.1,2.6-0.2,3.8-0.3v-0.1c-1.3,0-2.6,0.2-3.9,0.2c-1.6-0.3-1.9-2.7-0.6-3.5
			c0.6-0.3,1.2-0.8,1.8-1.3s1.2-0.9,1.9-1.2c0.5-0.2,1-0.3,1.5-0.3c-0.5,0.1-1.2,0.3-1.4,0.9c-0.2,0.9,0.9,1.3,0.8,2.2
			c-0.2-0.3-0.3-0.8-0.6-1.1c-0.2-0.4-0.6-0.5-1-0.7c0.1,0.2,0.2,0.2,0.4,0.3c0.5,0.4,0.9,1,0.9,1.6c-0.5-0.5-0.7-1.2-1.3-1.6
			c0.2,0.5,0.5,0.9,0.5,1.4c0.1-0.2,0.3-0.2,0.2-0.5c0.2,0.6,0.4,1.2,0.4,1.9h-0.1c0-0.5-0.2-0.9-0.2-1.5c-0.1,0-0.2-0.1-0.2-0.1
			c0.1,0.3,0.1,0.6-0.2,0.9l0.1-0.2l-0.3-0.1c0.1,0,0.2,0,0.3-0.1c0.1-0.5-0.3-1.1-0.7-1.4c0.2,0.5,0.5,0.9,0.6,1.3
			c-0.1,0-0.3-0.1-0.4-0.2c0.1,0.3-0.2,0.6-0.5,0.7c-0.8,0.4-1.7,0.2-2.5,0.5c-0.2,0.2-0.2,0.5,0,0.8c0.5,0.8,1.5,0.9,2.3,0.8
			c-0.1-0.1-0.2-0.2-0.2-0.2c0.2,0,0.3,0,0.5,0v-0.2c0.5,0,0.9,0,1.2,0.1c1,0.2,2,0.1,3-0.1c0.9-0.2,1.7-0.4,2.4-0.9
			c0.2-0.2,0.3-0.4,0.5-0.6c-0.1-0.1-0.2-0.2-0.3-0.2c0.1-0.1,0.3-0.2,0.4-0.2c0.1,0.1,0.2,0.1,0.2,0.2c0.1-0.4,0.5-0.5,0.7-0.9
			c0.2,0,0.3-0.2,0.4-0.2c0-0.1-0.1-0.2-0.2-0.2c0.4-0.3,0.8-0.7,1.2-1c0-0.1,0.1-0.2,0.1-0.2c-0.2,0.2-0.4,0.5-0.6,0.6
			c-1.2,1-2.5,1.9-3.9,2.6c0.5-0.1,1.1-0.3,1.6-0.6c0.1,0.1,0.2,0.1,0.2,0.2c-0.5,0.3-1.1,0.8-1.7,0.9c-1.4,0.3-2.9,0.7-4.3,0.4
			c0.5-0.4,1.2,0.1,1.6-0.5c0.3-0.9,0.1-1.9-0.2-2.7c0.4,0.7,0.5,1.5,0.6,2.3c0.1-0.6-0.1-1.2-0.2-1.9c0.2,0.5,0.7,0.9,1.2,1
			c0.8,0.2,1.5-0.2,2.2-0.5c1.6-0.8,3-1.7,4.3-2.9c0.2-0.2-0.2-0.5-0.4-0.5c-1.6,0-3.2,0.1-4.7-0.2
			C186.4,104.4,185.9,104.4,185.4,104.5c0-0.2-0.1-0.2-0.2-0.3c0.9-0.4,1.4-1.2,2.1-1.8c-0.3,0.5-0.7,0.9-1,1.3
			c0.2-0.2,0.5-0.3,0.7-0.5h0.1l-0.1,0.2v0.2c0-0.1,0.1-0.2,0.2-0.3c0.1,0,0.2,0,0.2,0v-0.2c0.1,0,0.2,0.1,0.3,0.1l-0.1-0.2
			c0.2,0.1,0.6-0.5,0.2-0.5c0.1-0.2,0.2-0.2,0.3-0.4c-0.1,0.2-0.1,0.3,0,0.5c0.1-0.1,0.2-0.3,0.2-0.4c0,0.3-0.5,0.6-0.2,0.9
			c-0.2-0.1-0.8,0.2-0.5,0.4c-0.2,0.1-0.2,0.2-0.4,0.3c0.1,0,0.3,0,0.4,0c0.5-0.3,1-0.8,1.4-1.2c0.9-1,1.9-1.8,3-2.5v-0.2
			c0.1,0,0.2,0,0.2,0v-0.2c0.2,0,0.5-0.2,0.5-0.4c-0.2,0.1-0.3,0.2-0.5,0.3c0.2-0.5-0.9-0.6-0.9-0.1c0.1-0.2,0.2-0.5,0.2-0.6
			c-0.1,0-0.2,0-0.2,0v0.2L191,99c0.2-0.2,0.4-0.5,0.5-0.9c-0.2,0.2-0.4,0.4-0.6,0.5c0.1-0.1,0.2-0.3,0.3-0.4V98
			C189.5,100.5,187.4,102.5,185.4,104.5z M181.6,99.3c0,0.1-0.1,0.2-0.1,0.2c0.4-0.1,0.8-0.2,1.2-0.2l-0.3,0.2
			c-0.5,0.1-1,0.2-1.6,0.3c0.2,0.2,0.3,0.5,0.4,0.7c-0.2-0.2-0.5-0.5-0.8-0.8c0.3-0.1,0.5-0.2,0.9-0.2c0-0.1,0-0.2,0-0.3l-0.1,0.2
			c-0.8,0.2-1.5,0.3-2.2,0.6c-0.4,0.1-0.8,0.3-1,0.5c-1.1,1.2-1.8,2.8-2.3,4.4c-0.9-0.1-1.6-0.9-1.9-1.6l-0.2,0.1
			c0.3,0.9,1,1.6,1.9,1.8c0,0.9-0.1,2,0.5,2.9c0.5,0.5,1.2,0.8,1.9,0.8c0-0.1-0.1-0.2-0.1-0.2c-0.5-0.1-0.9-0.2-1.3-0.5h0.4
			c-0.9-0.3-1.3-1.4-1.2-2.3c0.4-1.9,1.1-3.6,2.4-5.1c0.3-0.3,0.6-0.5,1-0.5c-0.2,0.2-0.3,0.3-0.4,0.5c-0.1,0.3,0.2,0.5,0.3,0.8
			c0.3,0.5,0.5,1,0.5,1.6c-0.3-0.8-0.6-1.7-1.5-2c0.2,0.3,0.5,0.5,0.7,0.9c0.4,0.6,0.5,1.3,0.6,2c-0.3-0.2-0.3-0.5-0.5-0.7
			c0.1,0.2,0.2,0.6,0.3,0.9c-0.6-0.5-0.7-1.3-0.8-2.1c0,0.5-0.1,0.9,0.2,1.4c0.2,0.3,0.4,0.6,0.5,0.9c-0.6-0.5-0.9-1.2-1.3-2
			c0.2,0.7,0.5,1.4,0.9,2c-0.5-0.2-1,0.3-1.2,0.8c-0.4,0.6-1.2,1-1.4,1.8c-0.2,0.2,0,0.7,0.3,0.5h0.1c0.2,0,0.4-0.2,0.6-0.2v-0.2
			l0.2,0.1l0.1-0.2c-0.2,0-0.4,0-0.5,0c0.1-0.2,0.2-0.2,0.4-0.2c0.3-0.1,0.5-0.3,0.9-0.2v-0.2c0.2,0,0.3-0.1,0.5-0.2v-0.1
			c0.2,0,0.4,0,0.5-0.2c-0.2,0-0.5,0-0.6,0c0.2-0.2,0.5-0.2,0.7-0.2c0.1-0.1,0.2-0.2,0.4-0.1v-0.2c0.1,0,0.3,0,0.4,0v-0.2
			c0.2,0,0.4,0,0.5-0.2c-0.2,0-0.3,0-0.5,0v-0.2c-0.4-0.1-0.8-0.2-1.2-0.4c0.9,0.1,1.9,0.4,2.8,0c0.5-0.7,0.9-1.6,1-2.4
			c0,0.5-0.3,1.2,0.3,1.3c0.9,0,1.8-0.4,2.6-0.7c1.2-0.5,2.1-1.7,3.1-2.6c0.2-0.2,0.5-0.5,0.3-0.9c-0.5-0.3-1.1-0.3-1.6-0.4
			c-1.6-0.2-3.2-0.3-4.8-0.2C182.4,99.2,182,99.4,181.6,99.3z M190.2,102c0.1,0.1,0.2,0.2,0.2,0.2L190.2,102v0.3
			c-0.1-0.1-0.2-0.2-0.2-0.2c0,0.1,0,0.3,0,0.4l-0.2-0.1l0.2,0.3l-0.2-0.2c0.1,0.2,0.1,0.3,0,0.5l0.2-0.1c0,0.1-0.1,0.3-0.2,0.4
			c0.5-0.2,0.9-0.4,1.3-0.8c-0.2,0.3-0.6,0.5-0.9,0.8c0.3,0,0.6-0.1,0.9-0.1c0.3-0.4,0.9-0.5,1.2-0.9c0.1,0,0.2,0.1,0.2,0.1
			l-0.1-0.2c0.1,0,0.3,0.2,0.4,0.2c-0.1-0.1-0.2-0.2-0.3-0.2c0.2-0.1,0.2-0.2,0.4-0.2c0.1-0.2,0.2-0.3,0.1-0.5
			c-0.2-0.1-0.4,0-0.5-0.2c0-0.2-0.1-0.3-0.1-0.5C191.6,100.7,190.9,101.5,190.2,102z M192,102.8c-0.2,0.2-0.4,0.2-0.5,0.4
			c0.2,0,0.5-0.1,0.8-0.1l-0.1,0.2c-0.9,0.2-1.9,0.3-2.9,0.3l0.1,0.1c0.8,0.1,1.5-0.1,2.3-0.1v0.1c-0.8,0.2-1.6,0.2-2.4,0.1v-0.2
			c-0.5-0.1-0.8,0.3-1.1,0.6c0.5,0.1,0.9,0.2,1.4,0.1c-0.2,0.2-0.5,0.1-0.8,0.2c-0.9-0.2-1.8-0.2-2.6,0.2c0.6,0.1,1.3,0,1.9,0.1
			c1.2,0.2,2.3,0.1,3.5,0.1l-0.1-0.2c0.2,0,0.5,0,0.7,0.1c0-0.1,0-0.3,0-0.4c0.3,0,0.6-0.2,0.9-0.3c0-0.2,0.1-0.3,0.1-0.5
			c-0.1-0.2-0.1-0.4-0.2-0.5c-0.2,0-0.5,0-0.8,0c0.1-0.3,0.5-0.3,0.8-0.5C192.6,102.5,192.3,102.6,192,102.8z M182.5,104.6
			c0,0.1-0.1,0.2-0.2,0.2c0.9,0,1.7-0.2,2.6-0.4c0.2,0,0.3-0.2,0.5-0.2C184.3,104.3,183.4,104.6,182.5,104.6z M174.7,105
			c0,0.4,0.1,0.9,0.1,1.2l0.2-0.1c0,0.2-0.1,0.4,0,0.6c0.5,1.5,1.5,2.7,2.6,3.6c0-0.4-0.4-0.5-0.6-0.8c0.1-0.1,0.2-0.2,0.2-0.3
			c-0.1-0.5-0.7-0.5-1-0.9c-0.1,0-0.2,0.1-0.2,0.2l0.2-0.2l-0.3,0.1c0-0.1,0.1-0.2,0.2-0.3l-0.3,0.1l0.1-0.2h-0.2
			c-0.3-0.5-0.5-0.9-0.7-1.5c0-0.1,0.1-0.2,0.1-0.3c0.2-0.1,0.4-0.2,0.5-0.5c-0.2,0.2-0.4,0.3-0.6,0.4
			C174.7,105.8,175,105.3,174.7,105z M193.5,111.1c-1.1,1-2.3,2-3.6,2.5c0.7-0.4,1.4-0.7,1.9-1.3c-1.9,0.9-4,2-6.1,1.5
			c-0.2-0.1-0.3-0.1-0.5-0.2c0.1,0.1,0.2,0.2,0.3,0.2c-1.4-0.3-2.6-1.1-3.6-2.1c-0.1,0-0.2-0.1-0.2-0.2c0.4,0.7,1.2,1.1,1.8,1.6v0.1
			c-0.6-0.2-1.1-0.6-1.6-1c-0.2-0.2-0.3-0.4-0.5-0.5c-0.2,0-0.4,0-0.6,0c0.9,1,2.1,1.8,3.4,2.1c2.1,0.6,4.3,0.6,6.4-0.3
			c1.8-1,3.3-2.5,4.3-4.3C194.4,109.7,194.1,110.6,193.5,111.1z M193.1,112.2c-0.3,0.5-0.7,1-1.2,1.4l-0.1-0.2
			c0.2-0.1,0.2-0.2,0.3-0.4c-1,0.9-2.3,1.7-3.6,1.9c-1,0.2-2-0.1-3-0.3l0.3,0.2c-0.1,0.1-0.2,0.1-0.2,0.2c-0.4-0.2-0.8-0.5-1.1-0.6
			c0.4,0.6,1.2,0.9,1.8,1.1c0-0.1,0-0.2,0-0.2c-0.2-0.1-0.4-0.2-0.5-0.2c0.1-0.1,0.2-0.1,0.2-0.2c0.1,0.3,0.5,0.2,0.9,0.4
			c-0.1,0-0.3,0-0.5-0.1c0,0.1,0.1,0.2,0.1,0.2c1.3,0.2,2.6,0.1,3.8-0.5l-0.4-0.1c0.7-0.3,1.3-0.8,1.9-1.2l0.1,0.2
			c-0.1,0-0.2,0.1-0.3,0.2c0.1,0.1,0.1,0.2,0.2,0.2c0.2-0.2,0.3-0.3,0.5-0.5c-0.6,0.7-1.4,1.2-2.3,1.6c-1.2,0.5-2.6,0.5-3.9,0.2
			c-0.7-0.2-1.2-0.6-1.8-1.1c0.7,1,2,1.5,3.2,1.6c1.8,0.1,3.6-0.7,4.9-1.9c-0.4,0.6-1.2,0.9-1.6,1.5c-0.3,0.3-0.6,0.6-0.8,1.1
			c0.9,0,1.7-0.5,2.5-1c-0.9,0.9-2.2,1.3-3.4,1.3c-0.2-0.1-0.3,0.1-0.5,0.2c0.5-0.1,1,0,1.6-0.1c0,0.1-0.1,0.2-0.1,0.2
			c-0.3,0-0.5,0.2-0.9,0.2c0-0.1,0.1-0.2,0.1-0.2l-0.2,0.1c-0.5-0.1-1,0.1-1.6,0.1c-0.2,0-0.4-0.1-0.5,0.1c0.7,0,1.4,0.1,2-0.1
			c0.2,0.1-0.1,0.2-0.2,0.2c0.2,0.1,0.5,0,0.8,0c0.6-0.2,1.2-0.3,1.8-0.5c-0.3,0.5-0.9,1-1.6,1.2c-0.6,0.2-1.3,0.2-1.9,0.2
			c0.2,0.3,0.7,0.3,1,0.4c0.9,0.2,1.7-0.3,2.3-0.9c-0.3,0.5-0.8,0.9-1.3,1.1c-0.7,0.2-1.4,0.4-2.1,0.4c0.1,0.1,0.2,0.2,0.2,0.2
			c0.7-0.2,1.5-0.3,2.1-0.5c1.2-0.5,1.8-1.8,2.3-3c-0.7,0.5-1.5,0.9-2.3,1.1c-0.1-0.1-0.1-0.2-0.2-0.2c0.5,0.1,0.9-0.2,1.2-0.3
			c0.6-0.3,1.2-0.6,1.6-1.1c0.1-0.4,0.5-0.9,0.2-1.3c-0.1,0.2-0.2,0.5-0.2,0.8c0.2-0.9,0.3-1.7,0.5-2.6c0,0.2,0,0.5,0,0.8
			c0.1,0,0.2,0,0.2,0c-0.2-0.5,0.1-1.2,0-1.8C193.4,111.5,193.3,111.9,193.1,112.2z M179.4,111.8c1.4,1.6,3,3.1,4.1,4.9
			c-0.8-0.9-1.5-1.8-2.3-2.6c0.4,0.5,0.9,1,1.2,1.6c0.5,1.3,1.6,2.2,2.7,3c-1.1-0.3-1.9-0.9-2.7-1.7c0.1,0.2,0.2,0.4,0.3,0.5
			c-0.2-0.1-0.3-0.3-0.5-0.5c0.7,1.3,2.2,1.9,3.6,2.3c-0.2,0-0.3,0.1-0.5,0.2c0.9,0.1,1.9,0.1,2.8,0c-0.4-0.4-1-0.1-1.5-0.2
			c0.8-0.1,1.6-0.1,2.2-0.4c-0.9-0.9-2.3-0.5-3.3-0.9c-0.5-0.2-0.9-0.4-1.2-0.7c0.9,0.5,2,0.9,3.1,0.5c-1.2-0.1-2.5-0.5-3.4-1.5
			v-0.2l-0.3,0.1c0.1-0.1,0.2-0.1,0.3-0.2c-1-0.6-1.6-1.6-2.4-2.5c-0.5-0.6-1.2-1.2-1.8-1.7C179.8,111.9,179.6,111.8,179.4,111.8z
			 M180.1,111.9c0.3,0.4,0.7,0.6,1,0.9c0.9,0.9,1.6,2.2,3,2.6c1.2,0.2,2.4,0.8,3.6,1.3c0.3,0.2,0.7,0.2,1,0.2l0.1,0.2
			c0-0.2,0-0.3-0.1-0.4c-0.1,0-0.2,0-0.3,0c0.3-0.2,0.8,0.1,1.1-0.2c0.2-0.2,0.5-0.3,0.5-0.6c-0.8-0.2-1.5,0.4-2.3,0.2
			c-1.1-0.2-2.1-0.6-3-1.2c-0.4-0.2-0.8-0.6-1.2-0.8V114c-0.4,0-0.6-0.5-0.9-0.6c0.1,0.1,0.2,0.2,0.2,0.3c-0.1,0.1-0.2,0.1-0.2,0.2
			c-0.2-0.5-0.6-0.8-1-1.2C181,112.5,180.6,112,180.1,111.9z M193.5,113.1c0,0.3-0.1,0.6-0.2,0.9c0.1,0.1,0.1,0.2,0.2,0.3
			C193.4,113.9,193.7,113.5,193.5,113.1z M191.3,114.1c-0.1,0.1-0.2,0.2-0.2,0.2c0.1,0,0.2-0.1,0.3-0.1
			C191.5,114.1,191.5,114.1,191.3,114.1z M190.7,114.6c0.2,0,0.3-0.1,0.4-0.2v-0.1C191,114.3,190.7,114.4,190.7,114.6z M190.6,114.7
			h-0.2C190,114.8,190.6,115,190.6,114.7L190.6,114.7c0.1,0.1,0.2,0,0.2-0.1l-0.1-0.1C190.6,114.6,190.6,114.7,190.6,114.7z
			 M183.7,115.6c0.2,0.3,0.5,0.4,0.7,0.6C184.3,115.9,183.9,115.8,183.7,115.6z M184.1,115.7c0.2,0.3,0.5,0.5,0.9,0.8
			c-0.1,0-0.3,0-0.4,0c0.9,0.5,1.9,1.1,3,0.8C186.5,116.5,185.3,116.1,184.1,115.7z M184.2,116.4L184.2,116.4L184.2,116.4
			L184.2,116.4C184.1,116.3,184.1,116.3,184.2,116.4z M184.3,116.5c1.2,1.2,3.1,1.3,4.8,1.2c-0.2-0.2-0.5-0.2-0.9-0.2
			c-1.3,0.2-2.7-0.3-3.8-1.1L184.3,116.5z M185,119.4c-0.1,0.2,0.5,0.2,0.3,0C185.2,119.4,185,119.4,185,119.4z"/>
	</g>
	<path class="st0" d="M144,88.9c0.5-0.5,1-0.9,1.6-1.2c-0.9,0.5-1.6,1.2-2.3,2c-0.1-0.1-0.1-0.1-0.2-0.2
		C143.5,89.4,143.6,89.1,144,88.9z"/>
	<path class="st0" d="M190.2,88.7c0.9,0.5,1.7,1.5,2.3,2.4h-0.3c0.1,0,0.2,0.1,0.2,0.1c-0.1,0.3,0.2,0.5,0.2,0.8
		c0.4,1.2,0.7,2.4,0.9,3.6c0.1,0.3,0,0.6,0.2,0.9c0,0.1-0.1,0.2-0.1,0.2c0-0.1,0.1-0.2,0.1-0.2c-0.4-1.9-0.8-3.7-1.6-5.4
		C191.6,90.1,190.9,89.3,190.2,88.7z"/>
	<path class="st0" d="M189.9,88.8c0.5,0.4,0.9,0.9,1.3,1.4c0.1,0.1,0.2,0.3,0,0.2C190.8,89.8,190.2,89.4,189.9,88.8z"/>
	<path class="st0" d="M149.3,89.5"/>
	<path class="st0" d="M148.3,90.1c0.3-0.2,0.6-0.4,0.9-0.5c-0.3,0.3-0.8,0.5-1,0.9C148.2,90.4,148.3,90.2,148.3,90.1z"/>
	<path class="st0" d="M175.4,90.8c0.5,0.2,0.6,0.8,0.7,1.2C175.9,91.7,175.6,91.2,175.4,90.8z"/>
	<path class="st0" d="M192.5,91.4c0.1,0,0.2,0.1,0.2,0.2v0.1C192.6,91.5,192.5,91.5,192.5,91.4L192.5,91.4z"/>
	<path class="st0" d="M192.6,91.6c0.1,0,0.2,0.1,0.2,0.2v0.1C192.6,91.8,192.6,91.8,192.6,91.6L192.6,91.6z"/>
	<path class="st0" d="M143.9,93.6c0.2,0,0.2,0,0.4,0.1c0.1,0.1,0.2,0.2,0.3,0.3c0,0.2,0,0.3,0,0.5C144.3,94.2,144.1,93.9,143.9,93.6
		z"/>
	<path class="st0" d="M184.9,93.9c0-0.2,0-0.2-0.1-0.4c0.2,0.3,0.7,0.2,1.1,0.3c-0.1,0.1-0.2,0.2-0.3,0.2
		C185.3,93.9,185.1,93.8,184.9,93.9z"/>
	<path class="st0" d="M144.7,93.9L144.7,93.9c0.3,0.1,0.2,0.4,0,0.2C144.7,94,144.7,93.9,144.7,93.9z"/>
	<path class="st0" d="M189.8,94.5c0.2,0.1,0.3-0.1,0.5-0.2c-0.2,0.3-0.4,0.6-0.8,0.8c-0.1,0.1-0.2,0.2-0.3,0.2
		c0-0.1,0.1-0.2,0.1-0.3H189v-0.1c0.1-0.1,0.2-0.2,0.2-0.2h0.2v-0.2C189.5,94.6,189.7,94.6,189.8,94.5z"/>
	<path class="st0" d="M153.7,94.6"/>
	<path class="st0" d="M144.9,95c0.9,0.6,1.8,1.3,2.8,1.8C146.6,96.4,145.6,95.9,144.9,95z"/>
	<path class="st0" d="M186.4,97c1-0.3,1.9-0.9,2.9-1.4c-0.7,0.7-1.6,1.2-2.6,1.4l0.1,0.1C186.7,97,186.5,96.9,186.4,97z"/>
	<g>
		<path class="st0" d="M171.8,96.9c0.1-0.2,0.2-0.5,0.2-0.8c0.1,0.8-0.5,1.4-0.9,1.9c0.3,0,0.5,0.2,0.5,0.4c-0.2,0-0.4-0.2-0.6-0.2
			c-0.4,0.2-0.6,0.5-0.9,0.9c0-0.5-0.2-0.9-0.4-1.2c0.1,0,0.2,0.1,0.2,0.2c0.8-0.2,1.2-0.9,1.6-1.6
			C171.4,96.7,171.7,96.8,171.8,96.9z M171.5,97c-0.1,0.2-0.2,0.4-0.3,0.6c0.2-0.2,0.4-0.5,0.6-0.7C171.7,97,171.6,97,171.5,97z"/>
	</g>
	<path class="st0" d="M147.9,96.7c0.4,0.4,0.8,0.8,1.2,1.2L149,98C148.6,97.7,148.2,97.2,147.9,96.7z"/>
	<polygon class="st0" points="149.1,98 149.2,98 149.2,98.1 149.1,98.1 	"/>
	<path class="st0" d="M160.6,98.3c0-0.1,0.1-0.2,0.2-0.2c-0.2,0.4-0.4,0.7-0.3,1.2c0,0,0.1,0.1,0.2,0.2c-0.1,0.5-0.2,1.2-0.4,1.7
		c0.1,0,0.2,0.1,0.2,0.2c-0.3,0.9-0.5,1.9-0.5,2.8c0,0.2,0.1,0.4,0.2,0.6c0,0.2-0.1,0.2-0.1,0.4c-0.2-0.3-0.5-0.6-0.6-1
		c-0.1,0-0.2,0-0.2,0c0.4-1.1,0.5-2.3,0.5-3.5c0-0.2,0-0.5,0.2-0.5C160,99.3,160.3,98.8,160.6,98.3z"/>
	<path class="st0" d="M170.6,99c0.1-0.2,0.2-0.4,0.5-0.4c-0.1,0.1-0.2,0.3-0.3,0.4C170.7,98.9,170.6,98.9,170.6,99z"/>
	<path class="st0" d="M149.9,99.5c0.2-0.2,0.5,0,0.8,0c0.7,0.2,1.3,0.4,1.9,0.7c-0.2,0.2-0.5,0.5-0.8,0.5c0.1-0.2,0.3-0.4,0.5-0.5
		C151.6,99.8,150.7,99.6,149.9,99.5L149.9,99.5z"/>
	<path class="st0" d="M160.3,101.1c0.2-0.5,0.5-0.9,0.9-1.2c-0.3,0.5-0.5,0.9-0.7,1.4L160.3,101.1z"/>
	<path class="st0" d="M137,100.5c0.1-0.1,0.1-0.2,0.2-0.2c-0.2,0.4-0.1,0.8-0.2,1.2c0,1.1,0.2,2.2,0.4,3.3c-0.1,0-0.2,0.1-0.2,0.1
		C136.9,103.4,136.7,102,137,100.5z"/>
	<path class="st0" d="M151.2,102.6c0.2-0.7,0.6-1.6,1.3-1.9C152,101.2,151.6,101.9,151.2,102.6z"/>
	<path class="st0" d="M142.6,102.8c0.2,0,0.3,0,0.5,0.1C143,103,142.6,102.9,142.6,102.8z"/>
	<path class="st0" d="M137.6,104c0-0.2-0.1-0.5,0.1-0.5c0,0.2,0.1,0.4,0.2,0.5C137.7,104.2,137.7,104.2,137.6,104z"/>
	<path class="st0" d="M188.8,104c0.2-0.1,0.4-0.1,0.5,0C189.4,104.3,188.8,104.3,188.8,104z"/>
	<polygon class="st0" points="153.5,104.3 153.6,104.3 153.6,104.3 	"/>
	<path class="st0" d="M153,104.7c0.2-0.2,0.2-0.4,0.5-0.4v0.1C153.4,104.7,153.2,104.7,153,104.7z"/>
	<path class="st0" d="M137.4,104.5l0.2,0.1c0,0.5,0.3,0.9,0.3,1.3l-0.1,0.1C137.7,105.4,137.4,105,137.4,104.5z"/>
	<path class="st0" d="M195,105.4L195,105.4C195.2,105.7,194.7,105.6,195,105.4z"/>
	<path class="st0" d="M137.9,105.9L137.9,105.9c0.1,0.1,0.1,0.2,0.1,0.2h-0.1C137.9,106.1,137.9,106,137.9,105.9z"/>
	<path class="st0" d="M138,106.1L138,106.1c0.1,0.1,0.1,0.2,0.1,0.2C138.1,106.4,138,106.2,138,106.1z"/>
	<path class="st0" d="M138.1,106.4c0.2-0.2,0.1,0.4,0,0.2V106.4z"/>
	<path class="st0" d="M147.1,109.1c0.4-0.8,0.8-1.7,1.5-2.2c-0.4,0.5-0.9,1.1-1,1.9c0,0.2-0.2,0.5,0,0.8c0.3,0.3,0.5,0.4,0.9,0.5
		c0.9,0.2,1.7,0.4,2.5,0.6c-0.2,0.2-0.3,0-0.5,0c-0.9-0.2-1.8-0.2-2.6-0.4c-0.8-0.4-1.7-0.9-2.4-1.2
		C146,109,146.6,109.4,147.1,109.1z"/>
	<path class="st0" d="M136.9,107.6c0.2,0,0.2,0.1,0.4,0.1c0.1,0.5,0.4,1.1,0.7,1.6c-0.1,0.1-0.1,0.2-0.2,0.2
		c-0.2-0.6-0.5-1.1-0.8-1.7L136.9,107.6z"/>
	<path class="st0" d="M176.6,108.1"/>
	<path class="st0" d="M194,108.1"/>
	<path class="st0" d="M189.5,108.3"/>
	<path class="st0" d="M189.2,108.6"/>
	<path class="st0" d="M142.6,109.1c0.3,0.2,0.5,0.6,0.9,0.7c-0.1,0.1-0.2,0.1-0.2,0.2C143.2,109.6,142.7,109.5,142.6,109.1z"/>
	<path class="st0" d="M181.5,110.3c0.4,0.2,0.9,0.2,1.3,0.2C182.4,110.8,181.9,110.4,181.5,110.3
		C181.4,110.4,181.5,110.4,181.5,110.3z"/>
	<path class="st0" d="M140.6,113.4c0.2,0,0.3,0.1,0.3,0.2C140.8,113.6,140.7,113.5,140.6,113.4z"/>
	<polygon class="st0" points="191.9,113.5 191.9,113.5 191.9,113.6 	"/>
	<path class="st0" d="M141.5,113.9"/>
	<path class="st0" d="M182.6,114.2c0.1-0.1,0.1-0.2,0.2-0.2c0.3,0.5,0.9,0.9,1.3,1.2C183.5,115.1,183,114.6,182.6,114.2z"/>
	<path class="st0" d="M180.8,114.4c0.2-0.2,0.2,0.3,0.2,0.4C180.8,115,180.8,114.5,180.8,114.4z"/>
	<path class="st0" d="M189.8,114.8"/>
	<path class="st0" d="M139.5,115.8c1.3,0.5,2.7,1.2,4.2,1.2c0.9,0,1.8-0.1,2.6-0.5c0.3-0.2,0.6-0.3,0.9-0.4
		c-0.9,0.6-1.8,1.1-2.8,1.1c-0.3,0-0.7-0.1-1,0.1c1.1,0.5,2.3,0.3,3.3-0.2c-0.6,0.3-1.3,0.6-2.1,0.6c-0.6,0-1.3-0.2-1.9,0.1
		c0.1-0.2,0.4-0.5,0-0.2c-0.6-0.2-1.3-0.2-1.9-0.5C140.2,116.8,139.8,116.3,139.5,115.8z"/>
	<path class="st0" d="M148.5,117.2"/>
	<path class="st0" d="M182.8,117.6L182.8,117.6L182.8,117.6z"/>
	<path class="st0" d="M183,117.8"/>
</g>
<g>
	<path d="M193.6,69.6c0,0,0-0.1,0-0.2c-0.1-0.3-0.5-0.3-0.8-0.3h-0.1c-0.2,0-0.4,0-0.5-0.1c0,0-0.1,0-0.2-0.1
		c-0.3,0.1-0.5,0.7,0,0.8h0.1c0.1,0,0.2,0,0.3,0h0.1c0.2,0,0.5,0.1,0.7,0.2h0.1C193.5,70.1,193.6,70,193.6,69.6z"/>
	<path d="M154.8,67.1L154.8,67.1c0.5-0.1,0.9-0.1,1.3-0.1c0,0,0.1,0,0.2,0c0.1-0.1,0.2-0.1,0.2-0.2c0-2.8,0-5.5,0-8.3
		c-0.1,0-0.3-0.1-0.4-0.1c-0.1,0-0.2,0-0.3,0c-0.4,0.1-1-0.2-1,0.4c0,0.3,0,0.6,0,0.9c0.1,1.6,0.1,3.2,0,4.8c0,0.1,0,0.3,0,0.4
		c0.1,0.5,0,1,0,1.4c0,0.1,0,0.3,0,0.4C154.8,66.9,154.8,67,154.8,67.1z"/>
	<path d="M129.8,40c3.4,1.9,7,3.5,10.7,4.8c0.5,0.2,1,0.5,1.1,1.1c0.2,0.3,0,1,0.3,1c0.2-0.8,0.9-1.2,1.7-1.1
		c0.1,0.2,0.5,0.4,0.6,0.1c-1.4-0.4-2.7-1.1-4-1.6c-2.9-1-5.6-2.4-8.4-3.8c-1.1-0.6-2.2-1.4-3.5-1.4C128.5,39.6,129.2,39.7,129.8,40
		z"/>
	<path d="M127.4,53.5c-0.2-0.1-0.2-0.3-0.2-0.6c0-4.2,0-8.5,0-12.7c0.1,0,0.3,0.1,0.4,0.1c0-0.2-0.3-0.2-0.5-0.2c0,4.5,0,8.9,0,13.4
		C127.2,53.5,127.3,53.5,127.4,53.5z"/>
	<path d="M127.7,40.4c0.3,0.2,0.7,0.4,1,0.6C128.5,40.6,128,40.6,127.7,40.4z"/>
	<path d="M126.6,58.5c0,3.4,0,6.8,0,10.3c0,0.7-0.1,1.5-0.3,2.1c0.3-0.1,0.7-0.1,1-0.3c0-5.3,0-10.6,0-15.9c-0.6,0-1.2-0.5-1.3-1.1
		c0-4.4,0-8.8,0-13.1c-0.1,0-0.2,0-0.2,0c-0.4,0.7-0.3,1.5-0.4,2.3c0,3.7-0.1,7.4,0,11.1C125.3,55.6,126.4,56.9,126.6,58.5z"/>
	<path d="M207.7,73.8c-0.3-0.6-0.3-1.4-0.7-2c-0.7-1.1-1.4-2.4-1.5-3.8s-0.5-2.8-0.7-4.2c-0.2-2.2-1-4.3-0.7-6.6
		c0.1-0.9,0.5-1.8,0.4-2.8c0-3.7,0.1-7.4,0-11.1c-0.1-1.2-0.8-2.8-2.3-2.7c0,0.4,0.3,0.8,0.2,1.2c-0.1,4.2,0,8.5-0.1,12.7
		c-0.2,0.4-0.5,0.7-0.9,0.9c0.8,5,1.7,10,2.5,15c0.6,0.3,1.3,0.4,1.5,1.1c0,4.5,0,9.1,0,13.6c0.1,0.7-0.4,1.3-1.1,1.4
		c-0.9,0-1.5-0.7-2.2-1c-3.1-1.7-6.2-3.2-9.5-4.4c-8.6-3.4-17.9-5.2-27.2-5.2c-13,0.1-25.8,3.7-37.1,10c-0.5,0.3-1,0.7-1.6,0.5
		s-0.9-0.7-1-1.3c0-4.4,0-8.8,0-13.2c-0.4,0.2-0.4,0.9-0.6,1.3c0,4,0,8,0,12.1c0,0.8,0.1,1.7,0.6,2.4c0.7,1.3,2.6,1.4,3.8,0.8
		c0.7-0.2,1.3-0.7,2-1c6.7-3.5,14-6.1,21.5-7.6c6-1,12.2-1.6,18.3-1c7.4,0.5,14.7,2.2,21.6,4.9c3.3,1.2,6.3,2.8,9.4,4.4
		c1.1,0.5,2.5,1.1,3.7,0.4c1.3-0.6,1.4-2.2,1.5-3.5C207.7,81.5,207.8,77.7,207.7,73.8z"/>
	<path d="M128.7,41c0.6,0.4,1.2,0.7,1.8,1C130.2,41.4,129.3,41.3,128.7,41z"/>
	<path d="M201.4,53.7c0-4,0-7.9,0-11.9l-0.1,0.1c0,4.2,0,8.3,0,12.5C201.5,54.4,201.2,53.7,201.4,53.7z"/>
	<path d="M199.7,42.6c0.5-0.2,1-0.5,1.5-0.7C200.7,42,200.1,42.3,199.7,42.6z"/>
	<path d="M131,42.1c0.5,0.4,1.1,0.7,1.8,0.9C132.2,42.7,131.5,42.3,131,42.1z"/>
	<path d="M197.6,43.5c-0.3,0.2-0.7,0.3-0.9,0.5c1-0.4,1.9-0.9,2.9-1.4C198.9,42.7,198.3,43.3,197.6,43.5z"/>
	<path d="M132.8,43.1c0.1,0.1,0.3,0.1,0.4,0.2C133.3,43.1,132.9,42.9,132.8,43.1z"/>
	<path d="M133.4,43.4c0.4,0.3,0.9,0.5,1.4,0.6C134.5,43.7,133.9,43.5,133.4,43.4z"/>
	<path d="M134.9,44c0.2,0.1,0.4,0.3,0.7,0.3C135.4,44.2,135.2,44,134.9,44z"/>
	<path d="M195.4,44.6c0.4-0.2,0.9-0.3,1.3-0.6C196.3,44.1,195.8,44.3,195.4,44.6z"/>
	<path d="M135.6,44.4c0.4,0.2,0.8,0.3,1.2,0.5C136.5,44.5,136,44.4,135.6,44.4z"/>
	<path d="M194.9,44.8c0.2-0.1,0.3-0.1,0.5-0.2C195.2,44.6,194.9,44.6,194.9,44.8z"/>
	<path d="M136.9,44.9c0.4,0.2,0.8,0.4,1.2,0.5C137.8,45,137.3,44.9,136.9,44.9z"/>
	<path d="M193.9,45.2c0.3-0.1,0.5-0.2,0.8-0.3C194.4,44.9,194,45,193.9,45.2z"/>
	<path d="M138.3,45.4c0.5,0.2,1,0.4,1.5,0.6C139.4,45.7,138.8,45.5,138.3,45.4z"/>
	<path d="M193.1,45.6c0.1,0,0.2,0,0.3-0.1C193.3,45.3,193,45.4,193.1,45.6z"/>
	<path d="M192.4,45.8c0.1,0,0.2-0.1,0.3-0.1C192.6,45.6,192.4,45.7,192.4,45.8z"/>
	<path d="M144.6,46.2c2.5,0.8,5.1,1.4,7.6,1.8c0.1-0.3-0.4-0.2-0.6-0.3c-2.5-0.6-5-1.3-7.5-2C144.2,46.1,144.5,46.1,144.6,46.2z"/>
	<path d="M140.4,46.5c0.1-0.3-0.1-0.4-0.3-0.4C140.2,46.2,140.3,46.3,140.4,46.5z"/>
	<path d="M191,46.3c0.1,0,0.3-0.1,0.4-0.1C191.3,46.1,191,46.1,191,46.3z"/>
	<path d="M190,46.6c0.3-0.1,0.6-0.2,0.9-0.3C190.6,46.3,190.2,46.4,190,46.6z"/>
	<path d="M140.4,46.5c0,0.3,0.1,0.5,0.1,0.8C140.6,47.1,140.6,46.7,140.4,46.5z"/>
	<path d="M188.8,47c0.3,0,0.6-0.2,0.9-0.3C189.4,46.7,189,46.9,188.8,47z"/>
	<path d="M186.6,47.7c0.4-0.1,0.9-0.2,1.3-0.4C187.5,47.3,186.9,47.5,186.6,47.7z"/>
	<path d="M185.9,47.9c0.2-0.1,0.4-0.1,0.6-0.2C186.3,47.8,185.9,47.7,185.9,47.9z"/>
	<path d="M153.2,48.1c-0.1-0.2-0.5-0.1-0.7-0.2C152.5,48.3,153.2,47.9,153.2,48.1z"/>
	<path d="M147.1,48.3c0.3,0.1,0.6,0.2,0.8,0.2C147.9,48.3,147.4,48.3,147.1,48.3z"/>
	<path d="M154.6,48.4c0.1-0.3-0.2-0.1-0.4-0.1C154,48.5,154.5,48.4,154.6,48.4z"/>
	<path d="M184.4,57.4c0,0.2-0.2,0.2-0.3,0.2c0.1,0,0.2,0,0.3,0c0-3.1,0-6.2,0-9.4c-0.1,0.1-0.6-0.1-0.6,0.2c0.2,0,0.4-0.1,0.6-0.1
		C184.4,51.4,184.4,54.4,184.4,57.4z"/>
	<path d="M155.4,48.6c0.4,0,0-0.3-0.2-0.2C155,48.5,155.2,48.6,155.4,48.6z"/>
	<path d="M183.2,48.6c0.2,0,0.4-0.1,0.6-0.2C183.6,48.4,183.3,48.4,183.2,48.6z"/>
	<path d="M156.3,48.7c0.3,0,0.8,0.3,0.9,0c-0.5-0.2-1-0.1-1.5-0.2C155.4,48.8,156.3,48.6,156.3,48.7z"/>
	<path d="M148.7,48.7c0.2,0.1,0.4,0.1,0.7,0.2C149.3,48.7,148.9,48.7,148.7,48.7z"/>
	<path d="M181.7,48.9c0.3,0,0.7-0.1,1-0.2C182.4,48.7,182,48.7,181.7,48.9z"/>
	<path d="M158.7,49c0.1-0.2-0.2-0.2-0.3-0.3C158.4,49,158.6,49,158.7,49z"/>
	<path d="M181,49.1c0.2,0,0.4-0.1,0.6-0.2C181.4,48.9,181.1,48.9,181,49.1z"/>
	<path d="M150.2,49c0.5,0.1,1.1,0.3,1.6,0.3C151.3,49.2,150.7,49,150.2,49z"/>
	<path d="M179.9,49.4c0.2,0,0.5-0.1,0.7-0.1C180.4,49.2,180.1,49.2,179.9,49.4z"/>
	<path d="M152.2,49.4c0-0.2-0.2-0.1-0.3,0C151.9,49.4,152,49.4,152.2,49.4z"/>
	<path d="M169.2,49.7c0.4,0.3,0.3,1,0.6,1.3c0.2-0.3,0.3-0.9,0.4-1.3c0.2-0.6-0.9-0.3-1.2-0.3C168.9,49.4,169.2,49.6,169.2,49.7z"/>
	<path d="M179.8,49.4c-0.1-0.1-0.3-0.1-0.3,0C179.5,49.4,179.7,49.4,179.8,49.4z"/>
	<path d="M152.3,49.4c0.5,0.1,0.9,0.2,1.4,0.2C153.4,49.5,152.8,49.4,152.3,49.4z"/>
	<path d="M178.6,49.6c0.3,0,0.5-0.1,0.8-0.2C179.2,49.5,178.7,49.4,178.6,49.6z"/>
	<path d="M153.8,49.7c0.3,0.1,0.6,0.1,0.9,0.2C154.6,49.6,154,49.7,153.8,49.7z"/>
	<path d="M177,49.9c0.3,0,0.6-0.1,0.9-0.1C177.6,49.8,177.2,49.6,177,49.9z"/>
	<path d="M154.8,49.9c0.3,0.1,0.6,0.1,1,0.1C155.6,49.8,155.1,49.9,154.8,49.9z"/>
	<path d="M177,49.9c-0.1-0.1-0.3-0.1-0.3,0.1C176.8,49.9,176.9,49.9,177,49.9z"/>
	<path d="M176,50c0.1,0,0.4,0,0.5-0.1C176.3,49.9,176,49.8,176,50z"/>
	<path d="M156,50c0.2,0,0.4,0.1,0.6,0.1C156.5,49.9,156.1,50,156,50z"/>
	<path d="M175.2,50.1c0.2,0,0.4,0,0.6-0.1C175.7,50,175.3,49.9,175.2,50.1z"/>
	<path d="M156.6,50.1c0.1,0,0.4,0,0.5,0.1C157.1,50,156.7,50,156.6,50.1z"/>
	<path d="M175.2,50.1c-0.2-0.1-0.5-0.1-0.6,0C174.8,50.2,175,50.2,175.2,50.1z"/>
	<path d="M157.3,50.2c0.1,0,0.4,0,0.5,0C157.7,50.1,157.4,50.1,157.3,50.2z"/>
	<path d="M174.3,50.2c-0.1-0.1-0.4-0.1-0.4,0C174.1,50.3,174.2,50.3,174.3,50.2z"/>
	<path d="M157.9,50.3c0.5,0.1,1,0.1,1.5,0.2C159.1,50.2,158.3,50.3,157.9,50.3z"/>
	<path d="M171.2,50.4L171.2,50.4c0.8-0.1,1.7,0,2.5-0.2C172.9,50.2,172.1,50.4,171.2,50.4z"/>
	<path d="M159.6,50.4c0.2,0,0.5,0,0.7,0.1C160.2,50.3,159.9,50.4,159.6,50.4z"/>
	<path d="M160.4,50.5c0.2,0,0.5,0.1,0.7,0.1C161,50.4,160.6,50.5,160.4,50.5z"/>
	<path d="M161.5,50.6c0.4,0.1,0.9,0.1,1.3,0.1C162.6,50.4,161.9,50.7,161.5,50.6z"/>
	<path d="M168.4,50.9c0.1,0.3,0.2,0.6,0.3,0.8c0.1-0.4-0.2-0.7-0.3-1.1c-0.3-0.2-0.9-0.2-1,0C167.7,50.7,168.3,50.5,168.4,50.9z"/>
	<path d="M167.1,50.7c-1.3-0.1-2.7,0-4,0C164.5,50.8,165.8,50.8,167.1,50.7z"/>
	<path d="M171.2,50.8c-0.2,0-0.2,0.3-0.1,0.4C171.2,51,171.2,50.9,171.2,50.8z"/>
	<path d="M170.8,52c0.1-0.3,0.2-0.5,0.2-0.8C170.9,51.4,170.8,51.7,170.8,52z"/>
	<path d="M168.8,52.1c0,0.3,0.1,0.5,0.2,0.8C169.1,52.6,169,52.2,168.8,52.1z"/>
	<path d="M170.4,53.3c0.1-0.3,0.2-0.7,0.3-1C170.5,52.5,170.4,53,170.4,53.3z"/>
	<path d="M169.1,52.9c0.1,0.2,0.1,0.5,0.2,0.7C169.3,53.3,169.3,53,169.1,52.9z"/>
	<path d="M170.4,53.4c-0.3,0.4-0.4,1-0.5,1.5c-0.4-0.3-0.3-1-0.6-1.2c0.1,0.5,0.2,1.1,0.5,1.5C170.2,54.7,170.2,53.9,170.4,53.4z"/>
	<path d="M127.5,53.5c0,0.2,0.3,0.2,0.5,0.1C127.8,53.6,127.6,53.5,127.5,53.5z"/>
	<path d="M128.5,54.5c-0.1-0.2,0.2-0.7-0.2-0.7c0.2,6,0,12,0.1,18C128.6,66.1,128.5,60.2,128.5,54.5z"/>
	<path d="M201.2,54.3c-0.2,0-0.4,0.1-0.6,0.1C200.8,54.5,201.1,54.5,201.2,54.3z"/>
	<path d="M200.3,55c0-0.2,0-0.4,0.2-0.5C200.1,54.4,200.2,54.8,200.3,55z"/>
	<path d="M200.3,55.1c0,0.1,0,0.3,0.1,0.4C200.4,55.4,200.4,55.1,200.3,55.1z"/>
	<path d="M200.4,56c0.1-0.1,0.1-0.4-0.1-0.4C200.4,55.7,200.4,55.9,200.4,56z"/>
	<path d="M200.5,56.5c0.1-0.1,0.1-0.4-0.1-0.4C200.4,56.2,200.4,56.4,200.5,56.5z"/>
	<path d="M200.6,56.9c0.1-0.1,0.1-0.3-0.1-0.3C200.5,56.7,200.5,56.8,200.6,56.9z"/>
	<path d="M185.9,57.3c0.1,0.2,0.6,0,0.9,0C186.7,57.1,186.2,57.3,185.9,57.3z"/>
	<path d="M186.8,57.5c-0.2,0-0.1,0.2,0,0.3C186.8,57.7,186.8,57.6,186.8,57.5z"/>
	<path d="M200.7,57.8c0.1-0.1,0.1-0.3-0.1-0.3C200.7,57.6,200.7,57.7,200.7,57.8z"/>
	<path d="M183.5,57.7c0.1,0.1,0.5,0.1,0.6,0C183.8,57.6,183.6,57.6,183.5,57.7z"/>
	<path d="M183.1,58.1c0.1,0,0.1-0.3,0.1-0.4C183.1,57.7,183.1,58,183.1,58.1z"/>
	<path d="M200.8,57.9c0,0.5,0.1,0.9,0.2,1.4C201,58.9,201,58.3,200.8,57.9z"/>
	<path d="M186.5,58.9c0.1-0.2,0.1-0.5,0.2-0.7C186.4,58.3,186.5,58.7,186.5,58.9z"/>
	<path d="M155.7,58.5c-0.2-0.2-1.3-0.3-1,0.4C154.7,58.3,155.3,58.5,155.7,58.5z"/>
	<path d="M156.4,66.8c0,0.1-0.1,0.2-0.2,0.2c0.1,0,0.2,0,0.2,0c0-2.9,0-5.7,0-8.6c-0.1,0-0.4,0-0.5,0c0.1,0,0.3,0.1,0.4,0.1
		C156.5,61.3,156.4,64.1,156.4,66.8z"/>
	<path d="M186.5,59c-0.2,0-0.1,0.2,0,0.3C186.5,59.2,186.5,59.1,186.5,59z"/>
	<path d="M186.3,60c0.1-0.2,0.1-0.5,0.2-0.7C186.2,59.5,186.3,59.8,186.3,60z"/>
	<path d="M201.1,59.8c0.1-0.1,0.1-0.4-0.1-0.4C201,59.5,201,59.6,201.1,59.8z"/>
	<path d="M154.7,59.7c-0.1,1.6,0,3.2,0,4.8C154.8,62.9,154.8,61.3,154.7,59.7z"/>
	<path d="M201.2,60.2c0.1-0.1,0.1-0.3-0.1-0.3C201.1,60,201.1,60.1,201.2,60.2z"/>
	<path d="M186,61.1c0.1-0.3,0.1-0.6,0.2-0.9C186,60.4,186,60.8,186,61.1z"/>
	<path d="M201.2,60.8c0.1-0.1,0.1-0.3,0-0.3C201.2,60.5,201.2,60.7,201.2,60.8z"/>
	<path d="M201.3,61.2c0.1-0.1,0.1-0.3,0-0.3C201.3,61,201.3,61.1,201.3,61.2z"/>
	<path d="M185.8,62.3c0.1-0.4,0.2-0.7,0.2-1.1C185.8,61.3,185.8,61.9,185.8,62.3z"/>
	<path d="M201.3,61.3c0.1,0.8,0.2,1.6,0.4,2.4C201.7,62.9,201.6,62,201.3,61.3z"/>
	<path d="M185.8,62.3c-0.2,0-0.2,0.2,0,0.3C185.8,62.5,185.8,62.4,185.8,62.3z"/>
	<path d="M185.3,64.4c0.1-0.2,0.1-0.4,0.2-0.6C185.2,63.9,185.3,64.2,185.3,64.4z"/>
	<path d="M201.8,64.2c0.1-0.1,0.1-0.3,0-0.3C201.7,64,201.8,64.1,201.8,64.2z"/>
	<path d="M201.8,64.3c0,0.1,0,0.4,0.1,0.5C202,64.6,202,64.3,201.8,64.3z"/>
	<path d="M185.1,65c0.1-0.2,0.1-0.3,0.1-0.5C185.1,64.6,185,64.9,185.1,65z"/>
	<path d="M201.9,64.8c0,0.3,0.1,0.5,0.2,0.8C202,65.4,202.1,65,201.9,64.8z"/>
	<path d="M154.7,64.9c0,0.5,0,1,0,1.4C154.8,65.9,154.8,65.4,154.7,64.9z"/>
	<path d="M185.1,65.1c-0.2,0-0.1,0.3,0,0.3C185.1,65.3,185.1,65.2,185.1,65.1z"/>
	<path d="M184.9,66.2c0.1-0.2,0.1-0.5,0.2-0.7C184.8,65.6,184.8,66,184.9,66.2z"/>
	<path d="M202.1,66.3c0.1-0.1,0.1-0.3-0.1-0.3C202.1,66.1,202.1,66.2,202.1,66.3z"/>
	<path d="M184.7,66.8c0-0.2,0.1-0.3,0.1-0.5C184.6,66.4,184.6,66.7,184.7,66.8z"/>
	<path d="M202.2,66.7c0.1-0.1,0.1-0.4-0.1-0.4C202.2,66.5,202.2,66.6,202.2,66.7z"/>
	<path d="M154.8,67.1c0-0.1,0-0.3,0-0.4C154.7,66.8,154.6,67.1,154.8,67.1z"/>
	<path d="M202.2,66.8c0.1,0.7,0.2,1.3,0.3,2C202.5,68.2,202.5,67.4,202.2,66.8z"/>
	<path d="M184.6,67.5c0.1-0.2,0.1-0.3,0.1-0.5C184.5,67,184.4,67.3,184.6,67.5z"/>
	<path d="M154.9,67.1c0.2,0.1,1,0,1.2-0.1C155.7,67.1,155.3,67.1,154.9,67.1z"/>
	<path d="M184.5,67.5c-0.2,0.3-0.3,0.5-0.7,0.4C184.2,68.1,184.6,68,184.5,67.5z"/>
	<path d="M183.8,67.9c0-0.2-0.5,0-0.7-0.3C183,68.1,183.5,67.9,183.8,67.9z"/>
	<path d="M192,69c-0.3-0.3-0.7,1.1,0,0.8C191.5,69.8,191.7,69.1,192,69z"/>
	<path d="M202.6,69c0,0.5,0.1,1,0.2,1.4C202.8,69.9,202.8,69.3,202.6,69z"/>
	<path d="M192.7,69.1c-0.1-0.2-0.4-0.1-0.5-0.1C192.3,69.1,192.5,69.1,192.7,69.1z"/>
	<path d="M193.6,69.5c0.1-0.5-0.5-0.4-0.8-0.3C193.1,69.2,193.4,69.2,193.6,69.5z"/>
	<path d="M193.6,69.6c0.1,0.3-0.1,0.5-0.4,0.4C193.2,70.4,194.1,69.9,193.6,69.6z"/>
	<path d="M192,69.8c0,0.2,0.2,0.1,0.3,0C192.2,69.8,192.1,69.8,192,69.8z"/>
	<path d="M193.1,70c-0.2-0.1-0.5-0.1-0.7-0.2C192.5,70,192.9,70,193.1,70z"/>
	<path d="M202.8,70.5c0,0.3,0.1,0.7,0.1,1C203,71.2,203,70.6,202.8,70.5z"/>
	<path d="M165,74.9h0.1c0-1,0-2,0-3c0.1,0.1,0.1,0.1,0.2,0.2c-0.1-0.2-0.1-0.5-0.2-0.7C165,72.5,165.2,73.7,165,74.9z"/>
	<path d="M172.4,74.7c0-1.1,0-2.2,0-3.3c-0.2,0-0.2,0.3-0.2,0.4c0,0,0.1,0,0.1,0.1c0.1,1.1,0,2.2,0,3.3c0.1,0,0.2,0,0.3,0
		C172.5,75.1,172.1,75.1,172.4,74.7z"/>
	<path d="M127.2,72.2c0.2-0.2,0.4-0.2,0.6-0.3C127.6,72,127.1,71.9,127.2,72.2z"/>
	<path d="M204.4,72.5c0,4.3,0,8.5,0,12.8c-0.4-0.1-0.7-0.3-1.1-0.5c0.2,0.4,0.8,0.5,1.2,0.6C204.5,81.1,204.5,76.7,204.4,72.5
		c0.4-0.6,0-0.5-0.3-0.5C204.3,72.1,204.6,72.1,204.4,72.5z"/>
	<path d="M165.5,72.5c0-0.1-0.1-0.3-0.1-0.4C165.2,72.2,165.3,72.5,165.5,72.5z"/>
	<path d="M172,72.2c-0.2,0.3-0.2,0.7-0.3,1C171.9,72.9,172,72.5,172,72.2z"/>
	<path d="M165.8,73.6c-0.1-0.3-0.2-0.7-0.3-1C165.6,72.9,165.5,73.4,165.8,73.6z"/>
	<path d="M170.6,75c0,0.2,0.6,0.2,0.6-0.1c0.1-0.5,0.4-1,0.4-1.5C171.2,73.9,171.5,75.2,170.6,75z"/>
	<path d="M165.8,73.7c-0.1,0.1,0,0.4,0.1,0.5C166,73.9,165.9,73.8,165.8,73.7z"/>
	<path d="M143.9,74.2c-0.2,0.3-0.2,0.6-0.2,0.9c0.1-0.1,0.1-0.1,0.2-0.2c0,1.1,0,2.1,0,3.2c0.2,0,0.5,0,0.7-0.2
		c-0.2,0-0.4,0.1-0.6,0.1C143.9,76.8,144,75.5,143.9,74.2z"/>
	<path d="M166.2,74.9c-0.1-0.2-0.1-0.5-0.2-0.7C166,74.4,166,74.8,166.2,74.9z"/>
	<path d="M162.7,74.9c0.6,0.1,1.5,0.1,2,0C164.1,74.9,163.4,74.8,162.7,74.9z"/>
	<path d="M166.5,74.9c0.6,0.3,1.7,0,2.4,0.1C168.1,74.8,167.3,74.9,166.5,74.9z"/>
	<path d="M162.2,75c-0.4,0-0.7,0-1.1,0C161.4,75,162,75.2,162.2,75z"/>
	<path d="M170.5,75c-0.4-0.1-0.9-0.1-1.3-0.1C169.4,75.2,170.1,75,170.5,75z"/>
	<path d="M160.5,75c-0.2,0-0.5,0-0.7,0.1C160.1,75.1,160.5,75.2,160.5,75z"/>
	<path d="M159.8,75.1c-0.3,0-0.6,0-0.8,0.1C159.2,75.2,159.8,75.4,159.8,75.1z"/>
	<path d="M143.7,75.2c-0.1,0.3-0.2,0.7-0.2,1C143.7,75.9,143.7,75.5,143.7,75.2z"/>
	<path d="M158.9,75.2c-0.2,0-0.5,0-0.7,0.1C158.4,75.2,158.9,75.4,158.9,75.2z"/>
	<path d="M173.4,75.3c-0.2,0-0.4,0-0.7-0.1C172.8,75.4,173.2,75.2,173.4,75.3z"/>
	<path d="M157.5,75.3c0.2,0.1,0.5,0.1,0.6-0.1C157.9,75.3,157.7,75.3,157.5,75.3z"/>
	<path d="M174,75.3c-0.1,0-0.4,0-0.5-0.1C173.6,75.5,173.9,75.4,174,75.3z"/>
	<path d="M156.8,75.4c0.2,0.1,0.5,0.1,0.6-0.1C157.2,75.3,157,75.4,156.8,75.4z"/>
	<path d="M175.6,75.5c-0.4-0.1-0.8-0.1-1.3-0.1C174.6,75.6,175.2,75.5,175.6,75.5z"/>
	<path d="M156.2,75.5c0.2,0.1,0.5,0.1,0.6-0.1C156.6,75.4,156.4,75.4,156.2,75.5z"/>
	<path d="M155.5,75.6c0.1,0.1,0.4,0.1,0.4,0C155.8,75.5,155.7,75.5,155.5,75.6z"/>
	<path d="M176.1,75.6c-0.1,0-0.4,0-0.5-0.1C175.7,75.7,176,75.7,176.1,75.6z"/>
	<path d="M155,75.7c0.1,0.1,0.4,0.1,0.4-0.1C155.3,75.6,155.2,75.6,155,75.7z"/>
	<path d="M176.3,75.6c0,0.2,0.3,0.1,0.4,0C176.6,75.6,176.5,75.6,176.3,75.6z"/>
	<path d="M154.5,75.7c0.1,0.1,0.3,0.1,0.3-0.1C154.8,75.7,154.6,75.7,154.5,75.7z"/>
	<path d="M176.9,75.7c0,0.2,0.3,0.1,0.4,0C177.2,75.7,177,75.7,176.9,75.7z"/>
	<path d="M136.9,76.4c0,0,0.1-0.1,0.2-0.1c0-0.2-0.1-0.3-0.2-0.5C136.9,75.9,136.9,76.2,136.9,76.4z"/>
	<path d="M154.5,75.8c-0.7,0-1.3,0.1-2,0.3C153.1,76,153.9,76,154.5,75.8z"/>
	<path d="M178.2,75.9c-0.3-0.1-0.6-0.1-0.8-0.1C177.5,76,177.9,75.9,178.2,75.9z"/>
	<path d="M178.4,75.9c0,0.2,0.2,0.1,0.3,0.1C178.6,75.9,178.5,75.9,178.4,75.9z"/>
	<path d="M178.8,76c0,0.2,0.3,0.1,0.4,0C179,76,178.9,76,178.8,76z"/>
	<path d="M152.3,76.1c-0.3,0-0.5,0.1-0.8,0.1C151.8,76.2,152.2,76.3,152.3,76.1z"/>
	<path d="M180,76.2c-0.2-0.1-0.5-0.1-0.7-0.1C179.5,76.3,179.8,76.3,180,76.2z"/>
	<path d="M151.5,76.3c-0.5,0.1-1,0.2-1.5,0.3C150.5,76.6,151.2,76.5,151.5,76.3z"/>
	<path d="M180.8,76.4c-0.2-0.1-0.4-0.1-0.7-0.2C180.2,76.4,180.6,76.4,180.8,76.4z"/>
	<path d="M137.2,77c0-0.2-0.1-0.5-0.1-0.7C137,76.6,137,76.9,137.2,77z"/>
	<path d="M182.2,76.7c-0.4-0.1-0.9-0.3-1.3-0.3C181.3,76.7,181.8,76.8,182.2,76.7z"/>
	<path d="M149.2,76.7c0.1,0.1,0.3,0.1,0.3-0.1C149.4,76.7,149.3,76.7,149.2,76.7z"/>
	<path d="M143.4,76.8c-0.1,0.3-0.2,0.7-0.2,1C143.4,77.7,143.4,77.1,143.4,76.8z"/>
	<path d="M148.5,76.9c-0.2,0-0.4,0.1-0.6,0.1C148.1,77.1,148.3,77.1,148.5,76.9z"/>
	<path d="M183,76.9c0,0.1,0.2,0.1,0.3,0.1C183.2,76.9,183.1,76.9,183,76.9z"/>
	<path d="M147.8,77.1c-0.4,0.1-0.8,0.1-1.1,0.3C147.1,77.3,147.6,77.4,147.8,77.1z"/>
	<path d="M183.7,77.1c0.1,0.2,0.4,0.2,0.6,0.2C184.1,77.1,183.9,77.1,183.7,77.1z"/>
	<path d="M185,77.4c0,0.2,0.3,0.2,0.5,0.1C185.3,77.5,185.2,77.4,185,77.4z"/>
	<path d="M146.3,77.5c-0.3,0-0.6,0.1-0.9,0.2C145.8,77.7,146.1,77.7,146.3,77.5z"/>
	<path d="M186.7,77.9c-0.3-0.1-0.6-0.2-0.8-0.2C186.1,77.9,186.5,77.9,186.7,77.9z"/>
	<path d="M145.4,77.7c-0.2,0-0.3,0.1-0.5,0.1C145.1,78,145.4,77.9,145.4,77.7z"/>
	<path d="M137.6,78.5c0-0.2-0.1-0.5-0.2-0.7C137.4,78,137.4,78.4,137.6,78.5z"/>
	<path d="M142.8,78.6c0.4,0.1,0.3-0.4,0.3-0.7C143.1,78.2,143,78.4,142.8,78.6z"/>
	<path d="M187.1,78c0,0.2,0.3,0.2,0.5,0.1C187.4,78.1,187.2,78,187.1,78z"/>
	<path d="M137.7,79.2c0-0.2-0.1-0.5-0.2-0.7C137.6,78.8,137.5,79.1,137.7,79.2z"/>
	<path d="M188.9,78.6c0.1,0.1,0.3,0.2,0.5,0.1C189.2,78.6,189.1,78.5,188.9,78.6z"/>
	<path d="M142.5,78.7c-0.1,0-0.3,0.1-0.4,0.1C142.2,78.9,142.5,78.8,142.5,78.7z"/>
	<path d="M141.3,79.1c-0.4,0.1-0.7,0.2-1.1,0.4C140.5,79.5,141,79.3,141.3,79.1z"/>
	<path d="M191.2,79.4c-0.3-0.2-0.6-0.3-0.9-0.3C190.5,79.3,190.9,79.4,191.2,79.4z"/>
	<path d="M137.7,79.3c-0.1,0.4,0.1,1.4,0.6,0.9C137.8,80.4,137.9,79.6,137.7,79.3z"/>
	<path d="M140.1,79.5c-0.2,0.1-0.4,0.1-0.6,0.2C139.7,79.7,140,79.7,140.1,79.5z"/>
	<path d="M192.1,79.7c-0.1-0.1-0.2-0.1-0.3-0.1C191.7,79.7,192,79.8,192.1,79.7z"/>
	<path d="M139.4,79.7c-0.2,0.1-0.4,0.1-0.6,0.2C139,79.9,139.3,80,139.4,79.7z"/>
	<path d="M195.6,81.1c-1.1-0.5-2.1-0.9-3.3-1.3C193.4,80.3,194.5,80.8,195.6,81.1z"/>
	<path d="M136.7,80.8c-0.7,0.2-1.4,0.5-2.1,0.9C135.4,81.5,136.1,81.2,136.7,80.8z"/>
	<path d="M196,81.3c-0.1-0.1-0.2-0.1-0.3-0.1C195.6,81.3,195.9,81.4,196,81.3z"/>
	<path d="M196.4,81.4c-0.1-0.1-0.2-0.1-0.3-0.1C196.1,81.4,196.3,81.5,196.4,81.4z"/>
	<path d="M197.3,81.8c-0.2-0.1-0.4-0.3-0.7-0.3C196.8,81.7,197.1,81.9,197.3,81.8z"/>
	<path d="M134.6,81.7c-0.2,0.1-0.5,0.2-0.7,0.3C134.2,82,134.5,81.9,134.6,81.7z"/>
	<path d="M197.9,82.1c-0.2-0.1-0.3-0.2-0.5-0.2C197.5,82,197.7,82.1,197.9,82.1z"/>
	<path d="M133.7,82.1c-1.2,0.5-2.5,1.1-3.7,1.8C131.3,83.3,132.6,82.8,133.7,82.1z"/>
	<path d="M201.9,84c-1.2-0.7-2.6-1.3-3.9-1.9C199.2,82.8,200.5,83.5,201.9,84z"/>
	<path d="M130,83.9c-0.1,0-0.2,0.1-0.2,0.1C129.8,84.2,130.1,84.1,130,83.9z"/>
	<path d="M129.7,84.1c-0.4,0.2-0.9,0.3-1.2,0.6C128.9,84.5,129.5,84.5,129.7,84.1z"/>
	<path d="M203.3,84.8c-0.4-0.4-0.9-0.5-1.3-0.7C202.2,84.4,202.8,84.6,203.3,84.8z"/>
	<path d="M128.4,84.7c-0.4,0.2-0.8,0.4-1.2,0.6C127.4,85.4,128.3,85.1,128.4,84.7z"/>
	<path d="M130.1,53.2c0,6.6,0,13.1,0,19.7c-0.4,0.1-0.9,0.2-1.3,0.4c0,3.1,0,6.3,0,9.4c2.2-1,4.3-2.1,6.6-3.1c0-2.6,0-5.3,0-7.9
		c-0.4-0.4-1.4,0.6-1.4-0.3c0.2-6.1-0.1-12.2,0.1-18.2c0.2,0.5,0.2,1,0.3,1.5c1.4,7.8,3,15.6,4.7,23.4c0.9-0.1,1.7-0.6,2.6-0.8
		c1.6-7.3,3.1-14.6,5.2-21.8c0.2,4.6,0.1,9.2,0.1,13.9c-0.1,0.6-1,0.1-1.3,0.5c0,2.1,0,4.2,0,6.3c3-0.8,6-1.5,9-1.9
		c0-1.8,0-3.6,0-5.4c-0.5,0-0.9,0-1.4,0c0-4,0-8,0-12.1c0.4-0.1,1.2,0.4,1.4-0.3c0-1.7,0.1-3.4-0.1-5.2c-3.3-0.5-6.7-1.2-9.9-2.2
		c-0.4-0.3-0.7,0.2-0.6,0.6c-0.8,3.1-1.6,6.3-2.4,9.5c-0.5-0.9-0.5-2-0.8-3c-0.6-2.9-1.2-5.9-1.8-8.9c-0.5-0.4-1.2-0.4-1.7-0.7
		c-2.9-1.1-5.7-2.5-8.5-3.8c0,3,0,6.1,0,9.1C128.5,52.8,130.4,52.2,130.1,53.2z"/>
	<path d="M191.1,77.7c-0.1-2.2,0.2-4.3,0-6.5c-0.4-0.1-0.9-0.2-1.3-0.3c0.1-1.2,0.5-2.3,0.7-3.5c1.3,0,2.6,0.3,3.9,0.4
		c0.3-0.1,0.5,0.2,0.6,0.4c0.1,1.3,0.5,2.6,0.5,3.9c-0.5,0-0.9-0.3-1.4-0.3c0,2.3,0,4.6,0,7c0.7,0.3,1.4,0.6,2,0.8
		c2.3,0.9,4.5,2.1,6.7,3.1c0-3.2,0-6.3,0-9.5c-0.4-0.1-0.8-0.2-1.2-0.4c-1-6.4-2-12.7-3.1-19c-0.3-1,1.6-0.1,1.3-1.2
		c0-2.6,0-5.2,0-7.8c0.1-0.1,0-0.6-0.2-0.5c-3.9,1.9-7.9,3.4-12.1,4.7c0,2.2,0,4.4,0,6.5c0.4,0,0.9-0.1,1.3-0.2
		c0,0.8-0.3,1.5-0.4,2.2c-0.9,3.9-1.7,7.8-2.7,11.7c-0.1,0.7-1.2-0.2-1.4,0.3c0,2-0.2,4,0.1,5.9C186.6,76.3,188.9,77,191.1,77.7z
		 M192.4,56.7c0.1-0.4,0.1-0.8,0.3-1.2l0,0c0.5,2.7,1,5.5,1.3,8.2c-1,0.1-2-0.1-3,0C191.5,61.4,192.1,59,192.4,56.7z"/>
	<path d="M158.1,57.4c0,3.7,0,7.4,0,11.1c-0.4,0.2-0.9,0.1-1.3,0.1c0,1.8,0,3.6,0,5.3c2.2-0.3,4.5-0.5,6.7-0.5c0-1.7,0-3.4,0-5.1
		c-0.4-0.1-1,0.2-1.4-0.1c0-3.7-0.1-7.5,0.1-11.2c0.6,1.3,0.8,2.7,1.3,4.1c1.3,4.1,2.5,8.2,3.8,12.3c0.6,0.1,1.3,0,1.9,0.1
		c0.3,0,0.6,0.1,0.7-0.2c1.8-5.6,3.4-11.3,5.2-16.8c0,4,0,8.1,0,12.1c-0.4,0.1-1-0.2-1.4,0.1c0,1.7-0.1,3.4,0.1,5.1
		c3,0.3,6,0.9,9,1.5c0-2,0-3.9,0-5.9c-0.4-0.3-1,0-1.4-0.3c0-4.2,0-8.5,0-12.7c0.4-0.1,0.9-0.1,1.3-0.2c0.2-1.9,0.2-4.1,0-5.9
		c-3.4,0.7-6.9,1.4-10.4,1.6c-0.9,2.8-1.6,5.7-2.7,8.3c-0.8-2.7-1.7-5.3-2.5-8c-3.5,0.1-7.1-0.3-10.6-0.5c0,1.6,0,3.2,0,4.8
		C156.4,57.5,158.1,56.6,158.1,57.4z"/>
</g>
</svg>
