<?xml version="1.0" encoding="utf-8"?>
<!-- Generator: Adobe Illustrator 26.0.3, SVG Export Plug-In . SVG Version: 6.00 Build 0)  -->
<svg version="1.1" id="Слой_18" xmlns="http://www.w3.org/2000/svg" xmlns:xlink="http://www.w3.org/1999/xlink" x="0px"
	 y="0px" viewBox="0 0 239.5 150.2" style="enable-background:new 0 0 239.5 150.2;" xml:space="preserve">
<g>
	<path d="M190.1,27.5c-6.9,0.2-13.9-0.4-20.7-2c-7.3-1.7-14.4-4.5-20.6-8.8c-1.3-0.9-2.5-1.8-3.6-2.9c-0.2-0.3-0.6-0.4-0.7-0.7h-0.1
		c-0.1,0.1-0.1,0.2-0.2,0.3c-1.8,1.7-3.8,3.2-5.9,4.5c-4.8,3-10.1,5.2-15.5,6.8c-7.8,2.2-15.9,3-23.9,2.8
		c-0.1,14.3-0.2,28.6-0.3,42.9c0,1.3,0,2.5,0,3.8v0.7c0,4.7,0.3,9.5,1,14.2c0.6,3.7,1.5,7.3,2.8,10.8c1.8,4.6,4.3,9,7.6,12.7
		c2.4,2.8,5.2,5.2,8,7.5c5.3,4.4,10.9,8.3,16.8,11.8c3.2,1.9,6.4,3.6,9.8,5.2c4.5-2.1,8.9-4.6,13.1-7.2c5.9-3.8,11.6-7.9,16.8-12.6
		c2.5-2.3,4.9-4.8,6.9-7.5c2-2.8,3.7-5.8,5-8.9c1.5-3.6,2.4-7.4,3.1-11.2c0.8-4.7,1-9.6,1.1-14.4C190.3,59.3,190.1,43.4,190.1,27.5z
		 M188,73.2c0,2.1,0,4.2-0.1,6.3c-0.1,4.5-0.6,8.9-1.6,13.3c-0.9,3.8-2.3,7.6-4.2,11.1c-1.6,3-3.7,5.7-5.9,8.2
		c-2.3,2.6-5,4.8-7.7,6.9c-5.2,4.1-10.8,7.8-16.6,11.2c-2.4,1.4-4.9,2.8-7.4,4c-3.1-1.6-6.1-3.3-9.1-5c-6-3.6-11.9-7.6-17.3-12.1
		c-3-2.5-5.7-5.2-8-8.3c-1.7-2.3-3.2-4.8-4.4-7.4c-1.5-3.2-2.6-6.5-3.3-10c-1-4.6-1.3-9.3-1.4-14c0-4.2,0-8.5,0-12.7
		c0-11.7,0-23.4,0-35.1c8.7,0,17.5-1.1,25.8-3.8c4.8-1.6,9.5-3.6,13.7-6.4c1.4-1,2.8-2,4.1-3.2c2.7,2.5,5.8,4.4,9,6
		c7.1,3.5,14.8,5.6,22.6,6.6c3.9,0.5,7.9,0.7,11.9,0.8C188,44.1,188,58.7,188,73.2z"/>
	<path d="M153,25.2c-3-1.5-6-3.4-8.5-5.7c-1.8,1.7-4,3.1-6.1,4.4c-3,1.7-6.2,3.1-9.5,4.3c-8,2.8-16.6,3.9-25.1,3.9
		c0,13.5,0,27,0,40.6c0,2.5,0,5,0.1,7.5c0.2,4.2,0.6,8.4,1.6,12.5c0.8,3.1,1.9,6.2,3.4,9c2.3,4.3,5.4,8.2,9,11.4
		c2.4,2.2,5.1,4.2,7.7,6.2c2.9,2.1,5.9,4.1,9,6c3.2,2,6.5,3.9,9.9,5.6c1.9-0.9,3.7-1.9,5.5-3c6-3.4,11.8-7.2,17.2-11.5
		c2.8-2.2,5.5-4.6,7.8-7.3c2.2-2.6,4.1-5.4,5.6-8.5c1.7-3.4,2.8-7.1,3.5-10.8c0.8-4.3,1.1-8.8,1.1-13.2c0-14.8,0-29.6,0-44.4
		c-3.3,0-6.6-0.2-9.9-0.6C167.5,30.7,159.9,28.7,153,25.2z M135.9,43.9c0-1.8,0-3.6,0-5.4c2.5,0,5.1,0,7.6,0c0,1.8,0,3.6,0,5.4
		c-0.3,0-0.7,0-1,0c0,1.1,0,2.1,0,3.2c0.8-1.1,1.5-2.2,2.3-3.3c0.1-0.1,0.2-0.2,0.1-0.3c0-1.6,0-3.3,0-4.9c2.6,0,5.2,0,7.8,0
		c0,1.8,0,3.6,0,5.4c-0.5,0-1,0-1.5,0c-1.1,1.5-2.1,3.1-3.2,4.6c1.1,2.9,2.2,5.9,3.3,8.8c0.5,0,0.9,0,1.4,0c0,1.8,0,3.6,0,5.4
		c-2.6,0-5.2,0-7.8,0c0-1.8,0-3.6,0-5.4c0.2,0,0.4,0,0.6,0c-0.4-1.2-0.9-2.3-1.3-3.5c-0.6,0.8-1.1,1.6-1.7,2.4
		c-0.2,0.3-0.1,0.7-0.1,1.1c0.3,0,0.7,0,1,0c0,1.8,0,3.6,0,5.4c-2.5,0-5.1,0-7.6,0c0-1.8,0-3.6,0-5.4c0.3,0,0.7,0,1,0
		c0-4.5,0-8.9,0-13.4C136.6,43.9,136.2,43.9,135.9,43.9z M119,67.5c-1.1-0.6-2.3-1.2-3.4-1.8c-1.8-5.8-3.7-11.5-5.5-17.3
		c-0.1-0.2,0.1-0.5,0.1-0.7c0.5-1,1.1-2.1,1.6-3.1c2.4-0.8,4.9-1.5,7.3-2.3c0.1,0.1,0.2,0.1,0.3,0.2c0-0.1,0-0.2-0.1-0.2
		c0.1-0.1,0.2-0.1,0.3-0.1c1.6-0.5,3.2-1,4.8-1.5c0.8,2.4,1.5,4.8,2.3,7.2c-1.7,0.5-3.4,1.1-5.1,1.6c-0.2-0.7-0.5-1.4-0.7-2.1
		c-1.6,0.5-3.2,1-4.8,1.5c1.4,4.3,2.7,8.5,4.1,12.8c1.6-0.5,3.2-1,4.8-1.5c-0.2-0.7-0.5-1.4-0.7-2.1c1.7-0.5,3.4-1.1,5.1-1.6
		c0.5,1.5,0.9,3,1.4,4.4c-0.6,1.2-1.2,2.4-1.9,3.7c-3.2,1-6.5,2-9.7,3.1C119.3,67.7,119.2,67.6,119,67.5z M158.4,113
		c-4.7-3.4-9.3-6.8-14-10.2c-4.7,3.4-9.3,6.8-14,10.1c1.7-5.5,3.6-11,5.3-16.4c-4.7-3.4-9.3-6.8-14-10.2c5.8,0,11.5,0,17.3,0
		c1.8-5.5,3.6-11,5.3-16.4c1.8,5.3,3.4,10.6,5.2,15.9c0.1,0.2,0.1,0.4,0.2,0.6c5.8,0,11.5,0,17.3,0c-4.7,3.4-9.3,6.8-14,10.2
		C154.9,102.1,156.7,107.5,158.4,113z M175,49.5c-0.2-0.1-0.4-0.1-0.6-0.2c-0.2,4.6-0.4,9.3-0.6,13.9c0.4,0.1,0.7,0.2,1.1,0.4
		c-0.5,1.7-1.1,3.4-1.6,5.1c-2.5-0.8-4.9-1.6-7.4-2.3c0.5-1.7,1.1-3.4,1.6-5.1c0.3,0.1,0.7,0.2,1,0.3c0-0.4,0-0.7,0-1.1
		c-1.2-0.4-2.4-0.8-3.6-1.1c-0.2,0.3-0.4,0.6-0.6,0.9c0.3,0.1,0.7,0.2,1,0.3c-0.5,1.7-1.1,3.4-1.6,5.1c-2.5-0.8-4.9-1.6-7.4-2.3
		c0.5-1.7,1.1-3.4,1.6-5.1c0.4,0,0.7,0.2,1.1,0.3c2.5-3.9,5-7.8,7.5-11.7c-0.2-0.1-0.4-0.1-0.6-0.2c0.5-1.7,1.1-3.4,1.6-5.1
		c3,1,6.1,1.9,9.1,2.9C176,46.1,175.5,47.8,175,49.5z"/>
	<path d="M142.4,58.4c-0.3,0-0.7,0-1,0c0-0.8,0-1.5,0-2.3c1-1.5,2.1-3,3.2-4.6c0.9,2.3,1.7,4.6,2.6,6.9c-0.4,0-0.8,0-1.1,0
		c0,1.1,0,2.1,0,3.2c1.9,0,3.7,0,5.6,0c0-1.1,0-2.1,0-3.2c-0.3,0-0.7,0-1,0c-1.3-3.3-2.5-6.7-3.8-10c1.3-1.9,2.6-3.7,3.9-5.6
		c0.3,0,0.6,0,1,0c0-1.1,0-2.1,0-3.2c-1.9,0-3.7,0-5.6,0c0,1.1,0,2.1,0,3.2c0.3,0,0.5,0,0.8,0c-1.8,2.6-3.6,5.2-5.4,7.8
		c0-2.6,0-5.2,0-7.8c0.3,0,0.7,0,1,0c0-1.1,0-2.1,0-3.2c-1.8,0-3.6,0-5.4,0c0,1.1,0,2.1,0,3.2c0.3,0,0.6,0,1,0c0,5.2,0,10.4,0,15.6
		c-0.3,0-0.7,0-1,0c0,1.1,0,2.1,0,3.2c1.8,0,3.6,0,5.4,0C142.4,60.5,142.5,59.5,142.4,58.4z M142,61.2c-1.5,0-3,0-4.6,0
		c0-0.8,0-1.5,0-2.3c0.3,0,0.6,0,1,0c0-5.5,0-11,0-16.5c-0.3,0-0.7,0-1,0c0-0.8,0-1.5,0-2.3c1.5,0,3,0,4.6,0c0,0.8,0,1.5,0,2.3
		c-0.3,0-0.7,0-1,0c0,3.2,0,6.4,0,9.6c2.2-3.2,4.5-6.4,6.7-9.6c-0.4,0-0.8,0-1.2,0c0-0.8,0-1.5,0-2.3c1.6,0,3.2,0,4.7,0
		c0,0.8,0,1.5,0,2.3c-0.3,0-0.7-0.2-0.9,0.2c-1.3,1.9-2.7,3.8-4,5.7c1.3,3.5,2.7,7,4,10.5c0.3,0,0.6,0,0.9,0c0,0.8,0,1.6,0,2.3
		c-1.6,0-3.1,0-4.7,0c0-0.8,0-1.5,0-2.3c0.4,0,0.9,0,1.3,0c-1-2.7-2.1-5.5-3.1-8.2c-1.2,1.7-2.4,3.4-3.6,5.1
		c-0.2,0.2-0.1,0.4-0.1,0.6c0,0.8,0,1.6,0,2.5c0.3,0,0.7,0,1,0C142,59.6,142,60.4,142,61.2z"/>
	<path d="M128.9,57.8c-1,0.3-2,0.6-3,1c0.2,0.7,0.4,1.4,0.7,2.1c-2.3,0.7-4.6,1.5-6.9,2.2c-1.6-5-3.2-9.9-4.7-14.9
		c2.3-0.7,4.6-1.4,6.9-2.2c0.3,0.7,0.5,1.4,0.7,2.1c1-0.3,2-0.6,3-1c-0.5-1.7-1.1-3.4-1.6-5.2c-1,0.3-2,0.6-3,1
		c0.1,0.2,0.2,0.5,0.2,0.7c-0.3,0.1-0.7,0.2-1,0.3c-0.3-0.2-0.6-0.3-0.9-0.5c-2.1,0.7-4.3,1.4-6.4,2c-0.5,0.9-1,1.8-1.4,2.8
		c1.8,5.6,3.5,11.1,5.3,16.7c1,0.5,1.9,1,2.9,1.5c3-1,6-1.9,9-2.9c0.5-1,1-1.9,1.4-2.8C129.5,59.8,129.2,58.8,128.9,57.8z M128,63.3
		c-2.9,0.9-5.7,1.8-8.6,2.7c-0.8-0.4-1.7-0.9-2.5-1.3c-1.7-5.4-3.4-10.8-5.2-16.2c-0.1-0.1,0-0.2,0.1-0.3c0.4-0.7,0.8-1.5,1.1-2.2
		c2-0.6,4-1.3,6-1.9c0.1-0.1,0.2,0,0.3,0.1c0.2,0.1,0.5,0.3,0.7,0.4c0.5-0.2,1.1-0.3,1.6-0.5c-0.1-0.2-0.2-0.5-0.2-0.7
		c0.7-0.2,1.5-0.5,2.2-0.7c0.5,1.4,0.9,2.9,1.4,4.3c-0.7,0.3-1.5,0.5-2.2,0.7c-0.2-0.7-0.5-1.4-0.7-2.1c-2.6,0.8-5.2,1.6-7.7,2.5
		c1.7,5.2,3.3,10.5,5,15.7c2.6-0.8,5.1-1.6,7.7-2.5c-0.2-0.7-0.5-1.4-0.7-2.1c0.7-0.2,1.5-0.5,2.2-0.7c0.2,0.7,0.5,1.5,0.7,2.2
		c0.1,0.2-0.1,0.3-0.1,0.5C128.8,61.8,128.4,62.6,128,63.3z"/>
	<path d="M168.2,46.2c-2.9,4.5-5.8,9.1-8.7,13.6c-0.3-0.1-0.6-0.2-0.9-0.3c-0.3,1-0.6,2-0.9,3c0,0,0.1,0.1,0.2,0.1
		c1.7,0.5,3.4,1.1,5.2,1.6c0.3-1,0.6-2,1-3c-0.4-0.1-0.9-0.3-1.3-0.4c0.6-0.9,1.2-1.9,1.8-2.8c1.8,0.5,3.5,1.1,5.2,1.6
		c0,1.1-0.1,2.2-0.1,3.4c-0.4-0.1-0.9-0.3-1.3-0.4c-0.3,1-0.6,2-1,3c1.8,0.6,3.6,1.1,5.3,1.7c0.3-1,0.6-2,1-3
		c-0.3-0.1-0.6-0.2-0.9-0.3c0.2-5.4,0.4-10.8,0.7-16.2c0.3,0.1,0.6,0.2,0.9,0.3c0.3-1,0.6-2,1-3c-2.3-0.7-4.7-1.5-7-2.2
		c-0.3,1-0.6,2-1,3C167.6,46,167.9,46.1,168.2,46.2z M168.5,43.4c2.1,0.6,4.1,1.3,6.2,1.9c-0.2,0.7-0.5,1.5-0.7,2.2
		c-0.4-0.1-0.7-0.2-1.1-0.3c-0.2,5.7-0.5,11.4-0.7,17c0.3,0.1,0.5,0.2,0.8,0.2c-0.2,0.7-0.5,1.5-0.7,2.2c-1.5-0.5-3-1-4.5-1.4
		c0.2-0.7,0.5-1.5,0.7-2.2c0.5,0.1,1,0.3,1.5,0.5c0.1-1.4,0.1-2.8,0.2-4.3c-2-0.6-3.9-1.2-5.9-1.9c-0.8,1.2-1.5,2.4-2.3,3.6
		c0.5,0.2,1,0.3,1.4,0.5c-0.2,0.7-0.5,1.5-0.7,2.2c-1.5-0.5-3-1-4.5-1.4c0.2-0.7,0.5-1.5,0.7-2.2c0.3,0.1,0.5,0.2,0.8,0.2
		c2.9-4.5,5.8-9,8.7-13.6c0.2-0.3,0.4-0.5,0.5-0.8c-0.3-0.1-0.7-0.2-1-0.3C168,44.9,168.3,44.1,168.5,43.4z"/>
	<path d="M170.2,57.4c0.1-3.3,0.3-6.6,0.4-9.9c-1.8,2.8-3.6,5.6-5.4,8.3C166.9,56.4,168.5,56.9,170.2,57.4z M169.8,56.8
		c-1.3-0.4-2.6-0.8-3.8-1.2c1.4-2.2,2.8-4.3,4.2-6.5C170,51.7,169.9,54.3,169.8,56.8z"/>
	<path d="M168.7,55.4c0-0.8,0.1-1.5,0.1-2.3c-0.4,0.6-0.8,1.3-1.2,1.9C168,55.1,168.4,55.2,168.7,55.4z"/>
	<path d="M148.6,88.1c-1.1-3.3-2.1-6.5-3.2-9.8c-0.3-1-0.6-2-1-2.9c-1.4,4.2-2.8,8.5-4.1,12.7c-4.5,0-8.9,0-13.4,0
		c3.6,2.6,7.2,5.2,10.8,7.9c-1.4,4.2-2.7,8.5-4.1,12.7c3.6-2.6,7.2-5.2,10.8-7.9c3.6,2.6,7.2,5.2,10.8,7.9
		c-1.4-4.2-2.8-8.5-4.1-12.7c3.6-2.6,7.2-5.2,10.8-7.9C157.5,88.1,153,88.1,148.6,88.1z M150.5,95.8c1.2,3.8,2.5,7.6,3.7,11.4
		c-3.2-2.4-6.5-4.7-9.7-7.1c-3.2,2.4-6.5,4.7-9.7,7.1c1.2-3.8,2.5-7.6,3.7-11.4c-2.5-1.8-5-3.7-7.5-5.5c-0.7-0.5-1.4-1-2.1-1.6
		c4,0,8,0,12,0c1.2-3.8,2.5-7.6,3.7-11.3c0,0,0,0,0.1,0c1.2,3.8,2.5,7.6,3.7,11.3c4,0,8,0,12,0c-1.4,1.1-2.8,2.1-4.2,3.1
		C154.1,93.1,152.3,94.4,150.5,95.8z"/>
</g>
</svg>
