<?xml version="1.0" encoding="utf-8"?>
<!-- Generator: Adobe Illustrator 26.0.3, SVG Export Plug-In . SVG Version: 6.00 Build 0)  -->
<svg version="1.1" id="Слой_25" xmlns="http://www.w3.org/2000/svg" xmlns:xlink="http://www.w3.org/1999/xlink" x="0px"
	 y="0px" viewBox="0 0 239.5 150.2" style="enable-background:new 0 0 239.5 150.2;" xml:space="preserve">
<g>
	<path d="M206.5,68.2c-1-8.7-4.1-17-8.9-24.3c-5-7.7-12-14.1-20-18.6c-9.5-5.3-20.6-7.8-31.5-7c-3.3,0.2-6.5,0.7-9.7,1.5
		c-9.4,2.3-18.1,7.1-25.2,13.7c-7.7,7.2-13.4,16.6-16.2,26.7c-3.3,11.9-2.5,24.9,2.2,36.3c3.6,8.9,9.6,16.9,17.1,22.9
		c6.7,5.4,14.7,9.3,23.1,11.2c8.2,1.9,16.8,1.9,25,0c9.8-2.2,19-7.1,26.4-14c7.4-6.9,12.9-15.7,15.8-25.3
		C206.7,83.9,207.4,76,206.5,68.2z M193.6,41.9c0.4,0.7,0.9,1.4,1.3,2.1c-1.8,1.2-3.6,2.3-5.4,3.6c2.4-0.3,4.8-0.6,7.1-0.9
		c0.6,1,1.2,1.9,1.9,2.9c-2.7,1.8-5.4,3.5-8.2,5.3c-0.4-0.7-0.9-1.4-1.3-2.1c1.5-1,3.1-2,4.6-3c0.3-0.2,0.6-0.3,0.8-0.6
		c-2.3,0.3-4.7,0.7-7,1.1c-0.7-1-1.3-2-1.9-3C188.2,45.4,190.9,43.7,193.6,41.9z M180.6,32.3c0.5-0.6,1-1.2,1.4-1.7
		c2,1.6,3.9,3.3,5.9,5c-0.5,0.6-1,1.2-1.5,1.7c-0.7-0.6-1.3-1.1-2-1.7c-1.6,1.9-3.2,3.8-4.8,5.7c-0.7-0.6-1.3-1.1-2-1.7
		c1.6-1.9,3.2-3.8,4.8-5.7C181.9,33.4,181.3,32.9,180.6,32.3z M164.7,27.3c0.4-1.1,0.7-2.3,1.6-3c0.3-0.2,0.6-0.4,1-0.5
		c1.3-0.3,2.6,0.3,3.9,0.8c1.1,0.5,2.2,1.1,2.6,2.3c0.4,1.3-0.3,2.5-0.7,3.7c-0.4,1.1-0.7,2.3-1.7,3.1c-0.7,0.6-1.8,0.7-2.7,0.5
		c-1.1-0.2-2.1-0.7-3.1-1.2c-0.8-0.4-1.6-1.2-1.7-2.1C163.7,29.5,164.3,28.4,164.7,27.3z M145.2,20.3c1.4,0,2.7,0,4.1,0.1
		c0.5,1.7,0.9,3.3,1.4,5c0.1,0.4,0.2,0.9,0.4,1.3c0.7-2,1.3-4.1,1.9-6.2c1.4,0,2.8,0.1,4.2,0.1c-0.1,3.2-0.1,6.5-0.2,9.7
		c-0.9,0-1.7,0-2.6,0c0.1-2.5,0.3-5,0.4-7.5c-0.2,0.3-0.3,0.6-0.4,0.9c-0.8,2.2-1.5,4.4-2.3,6.6c-0.8,0-1.5,0-2.3-0.1
		c-0.7-2.4-1.5-4.7-2.2-7c-0.1-0.2-0.1-0.4-0.2-0.5c0,2.5,0.1,5,0.1,7.5c-0.9,0-1.7,0-2.6,0C145.1,26.8,145.2,23.5,145.2,20.3z
		 M128.4,26c0.2-0.9,0.9-1.6,1.8-2.1c1-0.5,2-0.8,3.1-1.1c1-0.2,2.1-0.1,2.9,0.6c0.9,0.8,1.1,2,1.5,3.1c0.3,1.1,0.9,2.3,0.6,3.5
		c-0.2,1-1,1.7-1.9,2.1c-1,0.5-2.1,0.8-3.2,1c-0.9,0.2-1.9,0.1-2.6-0.6c-0.9-0.8-1.1-2-1.5-3.1C128.7,28.3,128.1,27.2,128.4,26z
		 M115,33c0.8,1,1.5,1.9,2.3,2.9c0.2-0.2,0.4-0.3,0.6-0.5c-0.1-1.5-0.2-3-0.3-4.4c0.8-0.6,1.6-1.3,2.5-1.9c0.1,2,0.2,3.9,0.2,5.9
		c2,0.5,4,1.1,6,1.6c-0.8,0.7-1.7,1.3-2.5,2c-1.5-0.4-3-0.9-4.5-1.3c-0.2,0.2-0.4,0.3-0.6,0.5c0.8,1,1.6,2,2.3,3
		c-0.7,0.5-1.4,1.1-2,1.6c-2-2.6-4-5.1-6-7.7C113.6,34,114.3,33.5,115,33z M103,47c0.3-0.9,0.9-1.7,1.4-2.5c0.6-0.8,1.2-1.6,2.2-1.9
		c0.9-0.3,1.9,0,2.6,0.5c0.9,0.5,1.7,1.1,2.5,1.6c0.7,0.4,1.3,1,1.6,1.8c0.3,0.9,0.1,1.8-0.3,2.6c-0.5,1-1.1,1.9-1.8,2.7
		c-0.6,0.7-1.5,1.2-2.4,1.1c-1.2-0.1-2.1-0.9-3.1-1.5c-0.9-0.6-2-1.2-2.6-2.2C102.7,48.7,102.7,47.8,103,47z M97.8,57.5
		c3.2,0.8,6.3,1.6,9.5,2.4c-0.2,0.8-0.4,1.7-0.6,2.5c-2.4-0.6-4.8-1.2-7.3-1.8c-0.2,0.9-0.5,1.8-0.7,2.7c1.4,0.3,2.8,0.7,4.1,1
		c1,0.3,2,0.8,2.4,1.8c0.4,1,0,2.1-0.4,3.1c-0.7-0.2-1.4-0.3-2-0.5c0.2-0.4,0.4-0.9,0.3-1.3c-0.1-0.4-0.6-0.5-1-0.6
		c-2.1-0.5-4.2-1-6.3-1.6C96.5,62.6,97.2,60.1,97.8,57.5z M101.7,77.3c-0.6,0.7-1.7,1.1-2.6,0.8c-1.1-0.2-2-1.3-2.1-2.5
		c-0.1-1.2,0.7-2.3,1.8-2.7c1.4-0.5,3,0.3,3.4,1.7C102.5,75.5,102.3,76.6,101.7,77.3z M96.9,90c1.1-0.3,2.2-0.5,3.3-0.8
		c-0.1-0.4-0.2-0.8-0.3-1.2c-1.2-0.3-2.5-0.6-3.7-0.9c-0.2-1-0.4-1.9-0.7-2.9c1.4,0.4,2.7,0.8,4.1,1.2c0.1-0.6,0.3-1.1,0.7-1.5
		c0.6-0.5,1.4-0.8,2.2-0.9c0.7-0.1,1.6-0.1,2.2,0.4c0.6,0.5,0.9,1.3,1.1,2.1c0.4,1.6,0.8,3.3,1.1,4.9c-3.2,0.7-6.3,1.5-9.5,2.2
		C97.3,91.7,97.1,90.8,96.9,90z M113.1,103.1c-0.3,0.9-1.1,1.6-1.9,2.1c-0.8,0.5-1.6,1-2.5,1c-0.8,0-1.5-0.6-1.9-1.3
		c-0.6-0.8-1.1-1.7-1.6-2.6c-0.7,0.4-1.4,0.9-2.1,1.3c-0.5-0.7-0.9-1.5-1.4-2.2c2.8-1.7,5.5-3.4,8.3-5.2c0.8,1.3,1.7,2.6,2.5,4
		C112.9,101.1,113.4,102.1,113.1,103.1z M123.9,114.1c-0.2,1.2-1.1,2.1-1.8,3c-0.8,1-1.6,2.2-2.9,2.5c-1.3,0.3-2.4-0.5-3.4-1.2
		c-0.9-0.8-2-1.6-2.4-2.7c-0.4-1,0-2,0.6-2.8c0.6-0.8,1.3-1.6,1.9-2.4c0.5-0.6,1.1-1.2,1.9-1.5c0.9-0.3,1.8,0,2.5,0.5
		c0.9,0.5,1.7,1.2,2.4,1.9C123.5,112.1,124.1,113.1,123.9,114.1z M137.4,122.4c-0.8-0.3-1.7-0.6-2.5-0.9c0.2-0.4,0.3-1-0.2-1.3
		c-0.6-0.4-1.2-0.6-1.9-0.6c-0.5,0-0.8,0.6-1,1c-0.3,0.9-0.6,1.7-0.9,2.6c-0.1,0.4-0.1,1,0.2,1.2c0.5,0.4,1.2,0.6,1.8,0.7
		c0.6,0,0.9-0.7,1-1.1c0.8,0.3,1.7,0.6,2.5,0.9c-0.2,0.6-0.4,1.3-0.9,1.9c-0.4,0.6-1.2,0.9-1.9,0.9c-0.9,0-1.8-0.4-2.7-0.6
		c-1-0.4-2.1-0.7-2.7-1.6c-0.6-0.8-0.4-1.9-0.2-2.8c0.3-1,0.7-2,1-2.9c0.3-0.9,0.8-1.8,1.6-2.2c0.8-0.4,1.8-0.2,2.7,0
		c0.9,0.2,1.8,0.5,2.6,1c0.7,0.4,1.3,0.9,1.5,1.6C138,120.8,137.7,121.6,137.4,122.4z M153.9,130.3c-0.9,0-1.7-0.1-2.6-0.1
		c0.1-2.5,0.2-5,0.3-7.5c-0.9,0-1.9-0.1-2.8-0.1c-0.1,1.4-0.1,2.9-0.2,4.3c-0.1,1-0.4,2.1-1.3,2.7c-0.9,0.6-2,0.5-3.1,0.3
		c0-0.7,0-1.4,0.1-2.1c0.5,0.1,1,0.2,1.4,0c0.4-0.2,0.4-0.7,0.4-1.1c0.1-2.1,0.1-4.3,0.2-6.4c2.6,0.1,5.3,0.2,7.9,0.3
		C154.1,123.8,154,127,153.9,130.3z M159.2,117.9c-8.6,1.9-17.7,1.1-25.8-2.2c-7.9-3.2-14.8-8.8-19.6-15.9c-5-7.2-7.7-15.9-7.7-24.6
		c0-7.8,2.1-15.5,6-22.2c4.2-7.2,10.6-13.2,18.1-17c5.3-2.7,11.1-4.3,17-4.6c5.5-0.3,11.1,0.4,16.4,2.1c7.7,2.5,14.6,7.3,19.8,13.5
		c5.5,6.5,9,14.6,10,23c1,8.2-0.4,16.6-4,24c-2.8,5.9-7,11.1-12.1,15.2C172,113.4,165.8,116.4,159.2,117.9z M169.6,126.5
		c-0.3-0.5-0.7-0.9-1-1.4c-1.1,0.4-2.2,0.8-3.3,1.1c0,0.6,0.1,1.2,0.1,1.7c-0.8,0.3-1.7,0.6-2.6,0.9c-0.1-3.4-0.3-6.8-0.4-10.2
		c1.2-0.4,2.5-0.9,3.7-1.3c2,2.8,4,5.5,6,8.2C171.3,125.9,170.5,126.2,169.6,126.5z M185.6,116.7c-0.5,0.7-1.2,1.3-1.9,1.8
		c-1.2,0.9-2.3,1.9-3.5,2.8c-2-2.5-4.1-5-6.1-7.6c1.2-1,2.5-2,3.7-3c0.7-0.5,1.4-1.1,2.2-1.3c0.8-0.1,1.5,0.5,2,1.1
		c0.4,0.5,0.8,1.1,0.7,1.8c0,0.4-0.4,0.7-0.5,1.1c0.5-0.3,1.1-0.6,1.7-0.3c0.7,0.3,1.1,1,1.5,1.6C185.8,115.2,186,116.1,185.6,116.7
		z M196.8,103.7c-2.1-1.3-4.2-2.6-6.3-4c-0.5,0.8-1,1.6-1.5,2.4c1.2,0.8,2.4,1.5,3.7,2.3c0.9,0.6,1.7,1.4,1.7,2.5
		c0,1.1-0.6,2-1.3,2.7c-0.6-0.4-1.2-0.7-1.8-1.1c0.3-0.3,0.6-0.7,0.7-1.1c0-0.4-0.4-0.7-0.7-0.9c-1.8-1.2-3.7-2.3-5.5-3.5
		c1.4-2.2,2.8-4.5,4.2-6.7c2.8,1.7,5.5,3.4,8.3,5.2C197.8,102.2,197.3,103,196.8,103.7z M203.4,88.2c-0.3,1.4-0.6,2.8-1,4.2
		c-3.2-0.7-6.3-1.5-9.5-2.2c0.2-0.8,0.4-1.7,0.6-2.5c1.2,0.3,2.3,0.5,3.5,0.8c0.2-0.8,0.4-1.7,0.6-2.5c0.2-0.8,0.6-1.6,1.4-2
		c0.9-0.4,1.8-0.2,2.7,0c0.8,0.2,1.6,0.7,1.9,1.5C203.8,86.4,203.6,87.3,203.4,88.2z M199.6,73c1.3-0.5,2.9,0.2,3.4,1.5
		c0.3,0.9,0.2,1.9-0.4,2.6c-0.6,0.8-1.6,1.2-2.6,1c-1.1-0.2-2-1.1-2.2-2.2C197.7,74.7,198.5,73.4,199.6,73z M203.4,66
		c-0.4,0.6-1.1,0.9-1.8,1.1c-0.6,0.1-1.2,0.2-1.7-0.1c-0.4-0.2-0.5-0.6-0.8-1c0.1,0.6,0.1,1.3-0.4,1.7c-0.6,0.4-1.4,0.6-2.1,0.7
		c-0.7,0.1-1.4-0.1-1.9-0.7c-0.4-0.6-0.6-1.2-0.7-1.9c-0.4-1.7-0.8-3.4-1.3-5c3.2-0.8,6.3-1.6,9.5-2.4c0.4,1.8,0.9,3.5,1.3,5.3
		C203.7,64.5,203.8,65.3,203.4,66z"/>
	<path d="M132,30c0.2,0.4,0.5,0.9,1,0.9c0.7-0.1,1.4-0.3,2.1-0.7c0.4-0.2,0.5-0.8,0.4-1.2c-0.2-0.8-0.5-1.5-0.7-2.3
		c-0.2-0.5-0.3-1-0.7-1.3c-0.3-0.2-0.8-0.2-1.1-0.1c-0.6,0.2-1.2,0.3-1.7,0.7c-0.4,0.4-0.2,1-0.1,1.4C131.5,28.3,131.7,29.1,132,30z
		"/>
	<path d="M168.4,31.6c0.4,0.1,0.8,0.3,1.2,0c0.4-0.3,0.6-0.7,0.7-1.2c0.3-0.8,0.6-1.5,0.9-2.3c0.1-0.4,0.2-0.9-0.2-1.2
		c-0.4-0.3-1-0.5-1.5-0.7c-0.4-0.1-0.8-0.3-1.2-0.1c-0.4,0.3-0.6,0.8-0.8,1.2c-0.3,0.7-0.6,1.4-0.8,2.2c-0.1,0.4-0.2,1,0.2,1.3
		C167.3,31.2,167.9,31.4,168.4,31.6z"/>
	<path d="M106.6,48.9c0.7,0.4,1.4,1,2.2,1.3c0.4,0.2,0.9,0,1.1-0.4c0.4-0.5,0.8-1.1,1-1.7c0.1-0.5-0.3-0.9-0.6-1.2
		c-0.7-0.5-1.4-0.9-2.2-1.4c-0.4-0.2-0.8-0.5-1.2-0.4c-0.5,0.2-0.7,0.7-1,1.1c-0.3,0.4-0.6,0.9-0.5,1.4
		C105.6,48.3,106.1,48.6,106.6,48.9z"/>
	<path d="M161.9,58.6c0.7,0.1,1.4,0.3,2,0.5c0.7,0.3,1.4-0.1,2.1-0.1C164.7,58.7,163.3,58.6,161.9,58.6z"/>
	<path d="M158.6,59.3c-1.8,0.6-3.4,1.5-5,2.4c1.2,1.1,2.5,2.1,3.8,3.1c1.4-2.2,3.4-4.2,5.9-5.2C161.8,59.3,160.2,59.1,158.6,59.3z"
		/>
	<path d="M167.7,60.6c1.7,0.9,3,2.4,4.1,3.9c1,0,2,0.1,2.9,0.3c-1.5-1.7-3.2-3.2-5.2-4.4c-1.1-0.7-2.5-0.8-3.7-0.7
		C166.5,60.1,167.1,60.3,167.7,60.6z"/>
	<path d="M168.4,61.9c-1-0.8-2.2-1.3-3.4-1.7c-0.2-0.1-0.5-0.2-0.7-0.1c-2.6,0.9-4.7,2.9-6.2,5.2c2.4,1.7,4.8,3.3,7.1,5
		c0.5-1.1,1.1-2.1,1.9-3.1c1-1.2,2.4-2.2,4-2.5C170.3,63.6,169.4,62.7,168.4,61.9z"/>
	<path d="M200.8,61.5c-0.6,0.1-1.1,0.3-1.7,0.4c0.2,0.8,0.3,1.6,0.7,2.4c0.2,0.5,0.9,0.3,1.3,0.2c0.3-0.1,0.4-0.4,0.3-0.7
		C201.2,63,200.9,62.2,200.8,61.5z"/>
	<path d="M144.7,70.2c1.7-1.4,3.4-2.7,5.2-4c0.4,2.5,0.8,5,1.3,7.5c1.1-0.4,2.2-0.7,3.3-0.8c0.4-2.6,1.3-5.1,2.7-7.4
		c-1.4-1-2.8-2.1-4-3.3c-4.3,2.9-8.1,6.4-11.7,10c-1.8,1.7-3.6,3.4-5.3,5.2c-3.1,2.9-5.8,6.2-8.8,9.2c5.2-4.9,10.4-9.8,15.6-14.7
		C143.4,71.3,144,70.7,144.7,70.2z"/>
	<path d="M197.3,62.3c-0.6,0.2-1.2,0.3-1.9,0.5c0.2,0.7,0.3,1.4,0.5,2.1c0.1,0.3,0.2,0.7,0.5,0.8c0.4,0.1,0.8,0,1.1-0.2
		c0.3-0.2,0.3-0.6,0.2-0.9C197.7,63.8,197.5,63.1,197.3,62.3z"/>
	<path d="M176.4,73.6c0.7-0.2,1.5-0.4,2.1-0.9c0.7-0.6,0.9-1.5,0.7-2.4c-0.8-1.3-1.8-2.5-2.9-3.7c-0.3-0.3-0.5-0.7-0.9-0.8
		c-1-0.4-2.1-0.5-3.1-0.6C174.1,67.9,175.4,70.7,176.4,73.6z"/>
	<path d="M168.7,66.5c-1.4,1.1-2.3,2.6-3,4.2c1.3,0.8,2.6,1.5,4,2c1.9,0.7,4,1.2,6,1.1c-1.1-3-2.4-5.8-4.2-8.4
		C170.5,65.4,169.5,65.9,168.7,66.5z"/>
	<path d="M155.1,72.8c1.8-0.1,3.7,0.1,5.2,1.2c1.5,1,2.4,2.7,2.9,4.4c0,0,0.1-0.1,0.1-0.1c0.2-2.5,0.6-5,1.5-7.3
		c-2.4-1.7-4.8-3.4-7.2-5.1C156.4,68,155.5,70.3,155.1,72.8z"/>
	<path d="M145.6,76.4c0.7-0.4,1.4-0.8,2.2-1.1c-0.3-1.9-0.6-3.8-0.9-5.6c-0.7,0.6-1.4,1.2-2.1,1.8C145,73.1,145.3,74.8,145.6,76.4z"
		/>
	<path d="M165.3,79.1c3.8-1.1,7.8-1.4,11.7-0.9c-0.3-1.3-0.7-2.5-1.1-3.8c-1.5,0.1-3,0-4.4-0.4c-2.1-0.6-4.2-1.5-6-2.7
		c-0.9,2.5-1.3,5.1-1.5,7.7C164.4,79.3,164.9,79.3,165.3,79.1z"/>
	<path d="M176.7,74.3c0.4,1.3,0.8,2.7,1.2,4c1.6,0.3,3.2,0.7,4.8,1.2c0.3,0.7,0.5,1.5,0.7,2.2c-0.9-0.4-1.9-0.6-2.8-0.9
		c-5.5-1.6-11.5-1.2-16.9,0.8c-3.8,1.5-7.3,3.7-10.4,6.2c1.7-1,3.4-2.1,5.2-3c3.9-2.1,8-3.7,12.4-4.2c4.2-0.4,8.6,0.3,12.5,2
		c0.2,0.1,0.2,0.4,0.1,0.6c-0.3,0.5-0.7,0.8-1.2,1.1c-1.2,0.7-2.4,1.3-3.7,1.7c1.3-0.1,2.6-0.6,3.8-1.2c0.6-0.3,1.3-0.7,1.8-1.2
		c0.3-0.3,0.5-0.7,0.4-1.1c-1.1-3.9-2.5-7.7-4.5-11.1c-0.1,0.5-0.3,1.1-0.7,1.5C178.6,73.7,177.6,74.1,176.7,74.3z"/>
	<path d="M141.1,79.2c0.6-0.4,1.2-0.7,1.7-1.1c-0.3-1.4-0.5-2.9-0.7-4.3c-0.6,0.5-1.1,1-1.7,1.5C140.7,76.6,140.9,77.9,141.1,79.2z"
		/>
	<path d="M149,85.5c3.4-2.2,7.1-4.1,10.8-5.8c-0.3-1.2-0.9-2.4-2-3c-1.2-0.7-2.7-0.6-4.1-0.3c-2.3,0.5-4.4,1.8-6.4,3
		c-3.8,2.4-7.5,5-11.2,7.5c3.7,0,7.3,0,11,0C147.8,86.3,148.4,85.9,149,85.5z"/>
	<path d="M137.3,81.9c0.5-0.3,0.9-0.7,1.4-1c-0.2-1.2-0.4-2.3-0.6-3.5c-0.4,0.4-0.9,0.8-1.3,1.2C136.9,79.7,137.1,80.8,137.3,81.9z"
		/>
	<path d="M134,84.3c0.3-0.2,0.6-0.5,0.9-0.7c-0.2-0.9-0.3-1.9-0.5-2.8c-0.3,0.3-0.6,0.6-0.9,0.9C133.7,82.5,133.9,83.4,134,84.3z"/>
	<path d="M131.6,86.1c0.2-0.2,0.5-0.4,0.7-0.5c-0.1-0.8-0.3-1.5-0.4-2.3c-0.2,0.2-0.5,0.5-0.7,0.7C131.4,84.7,131.5,85.4,131.6,86.1
		z"/>
	<path d="M103.3,85.6c-0.4,0-0.8,0-1.1,0.3c-0.3,0.3-0.3,0.7-0.2,1.1c0.1,0.6,0.3,1.2,0.4,1.7c0.7-0.2,1.3-0.3,2-0.5
		c-0.2-0.7-0.3-1.3-0.5-2C103.8,86,103.7,85.6,103.3,85.6z"/>
	<path d="M200.1,86.4c-0.4,0-0.5,0.4-0.6,0.7c-0.2,0.6-0.3,1.2-0.4,1.9c0.6,0.1,1.2,0.3,1.9,0.4c0.1-0.6,0.3-1.2,0.4-1.8
		c0.1-0.3,0.1-0.7-0.2-0.9C200.8,86.5,200.4,86.4,200.1,86.4z"/>
	<path d="M160.9,103.9c-1.3-2.1-1.8-4.6-2.1-7.1c-0.1-0.9-0.1-1.8-0.3-2.6c-0.2-1.3-0.8-2.6-1.7-3.5c-1.2-1.2-2.9-1.8-4.5-2
		c-1.6-0.2-3.3-0.1-4.9-0.1c-10.2,0-20.4,0-30.6,0c-0.7,0-1.5,0.4-1.8,1c-0.4,0.6-0.3,1.5,0.1,2.1c0.4,0.5,1,0.9,1.7,0.9
		c10.2,0,20.3,0,30.5,0c0.6,0,0.6,1,0,1c-9,0-18,0-27,0c-0.6,0-1.3-0.1-1.8,0.2c-0.7,0.3-1.2,1.2-1.1,2c0.1,0.9,1.1,1.7,2,1.6
		c9.9,0,19.8,0,29.6,0c0.3,0,0.6,0,1,0c0.3,0.1,0.5,0.4,0.3,0.7c-0.1,0.2-0.3,0.3-0.6,0.3c-8.5,0-17,0-25.6,0c-0.6,0-1.1,0-1.7,0.2
		c-0.8,0.4-1.2,1.2-1.1,2c0.1,1,1.1,1.7,2,1.6c9.5,0,19,0,28.6,0c0.6,0,0.6,1,0,1c-7.7,0-15.4,0-23.1,0c-0.7,0-1.5,0.4-1.8,1
		c-0.4,0.6-0.3,1.4,0.1,2c0.4,0.6,1.1,0.9,1.8,0.9c11.7,0,23.5,0,35.2,0C162.8,106.4,161.6,105.2,160.9,103.9z"/>
	<path d="M109.3,99.7c-0.8,0.5-1.5,1-2.3,1.4c0.4,0.6,0.7,1.2,1.1,1.8c0.2,0.2,0.4,0.5,0.8,0.4c0.5-0.2,1-0.5,1.5-0.9
		c0.3-0.2,0.2-0.6,0.1-0.9C110.1,100.9,109.7,100.3,109.3,99.7z"/>
	<path d="M120,112c-0.4-0.3-0.8-0.6-1.2-0.4c-0.5,0.2-0.8,0.7-1.2,1.1c-0.4,0.6-0.9,1.1-1.3,1.7c-0.2,0.3-0.5,0.8-0.2,1.2
		c0.3,0.5,0.8,0.8,1.3,1.2c0.3,0.2,0.7,0.5,1.1,0.4c0.4-0.1,0.7-0.5,1-0.8c0.5-0.6,1-1.2,1.5-1.9c0.3-0.4,0.5-0.9,0.3-1.3
		C120.9,112.6,120.4,112.3,120,112z"/>
	<path d="M180.6,113c-0.1-0.3-0.4-0.6-0.7-0.8c-0.3-0.1-0.5,0.1-0.7,0.2c-0.6,0.5-1.2,0.9-1.7,1.4c0.4,0.5,0.7,0.9,1.1,1.4
		c0.6-0.5,1.1-0.9,1.7-1.4C180.4,113.6,180.7,113.4,180.6,113z"/>
	<path d="M182.4,115c-0.3-0.2-0.7,0-0.9,0.2c-0.6,0.5-1.2,0.9-1.7,1.4c0.4,0.5,0.8,1,1.2,1.5c0.6-0.5,1.4-1,1.9-1.6
		C183.3,116,182.8,115.3,182.4,115z"/>
	<path d="M165.2,124.2c0.8-0.3,1.5-0.5,2.3-0.8c-0.8-1.2-1.7-2.4-2.5-3.6C165,121.3,165.1,122.7,165.2,124.2z"/>
	<path d="M128.8,83.5c1.8-1.9,3.5-3.9,5.4-5.7c0.1-0.1,0.2-0.2,0.2-0.3c4-8.4,8-16.9,11.9-25.3c0.3-0.7,0.7-1.4,1.2-1.9
		c0.4-0.4,1-0.4,1.4-0.2c0.4,0.2,0.6,0.6,0.8,1c0.6,1.2,0.9,2.6,1.3,3.9c0.6,2.1,1.2,4.2,1.8,6.3c2.3-1.4,4.8-2.7,7.5-3.2
		c1.5-0.2,3-0.2,4.5,0c-0.8-2.5-1.6-4.9-2.5-7.3c-1.5-4.3-2.9-8.7-4.3-13c-0.1-0.3-0.4-0.3-0.7-0.3c-7.7,0-15.5,0-23.2,0
		c-0.1,1.5,0,3,0,4.5c0,0.2,0,0.4,0.1,0.6c1.4,0.1,2.8,0,4.2,0.3c1.1,0.3,1.9,1.3,2.1,2.4c0.4,1.7,0,3.4-0.7,5
		c-5.6,12.2-11.5,24.4-17.3,36.6c1,0,2.1,0,3.1,0C126.7,85.6,127.8,84.6,128.8,83.5z"/>
	<path d="M179.1,95.4c-0.2-2.3-0.7-4.7-1.9-6.7c-0.9-1.4-2.2-2.7-3.8-3.1c-0.7-0.2-1.5-0.1-2.3-0.2c-1.6,0-3.1,0-4.7,0
		c0.8,0.1,1.7,0.5,2.3,1c1.3,1,2.2,2.4,2.8,4c1,2.6,1.3,5.4,1,8.2c-0.3,2.2-1,4.4-2.3,6.2c-0.9,1.2-2.2,2.2-3.7,2.4
		c1.8,0.1,3.6,0,5.4,0c0.9,0,1.8-0.2,2.6-0.6c1.6-0.8,2.7-2.2,3.4-3.8C178.9,100.5,179.2,97.9,179.1,95.4z"/>
	<path d="M169.3,104.4c1.3-1.7,1.9-3.9,2.2-6c0.3-2.7,0.1-5.4-0.9-7.9c-0.6-1.4-1.4-2.8-2.6-3.7c-0.8-0.6-2-1-3-0.7
		c-1,0.2-1.8,0.9-2.4,1.6c-1.2,1.4-1.9,3.2-2.3,5.1c-0.6,2.7-0.5,5.5,0.3,8.2c0.5,1.6,1.3,3.2,2.5,4.4c0.8,0.8,2,1.3,3.2,1.2
		C167.5,106.3,168.6,105.4,169.3,104.4z"/>
</g>
</svg>
