<?xml version="1.0" encoding="utf-8"?>
<!-- Generator: Adobe Illustrator 26.0.3, SVG Export Plug-In . SVG Version: 6.00 Build 0)  -->
<svg version="1.1" xmlns="http://www.w3.org/2000/svg" xmlns:xlink="http://www.w3.org/1999/xlink" x="0px" y="0px"
	 viewBox="0 0 239.5 150.2" style="enable-background:new 0 0 239.5 150.2;" xml:space="preserve">
<g>
	<path d="M227.5,134.5c-26-28.9-52-57.8-78-86.7l-0.1,0c-1.4,1.5-2.8,3.1-4.2,4.6c-0.3,0.1,0,0.4,0.1,0.5
		c26.5,29.4,53.1,58.9,79.6,88.3c2.7,0.1,5.5,0,8.3,0c0.1,0,0.2-0.1,0.3-0.1C231.4,139,229.5,136.7,227.5,134.5z"/>
	<path d="M142.9,55.1c-1.4,1.5-2.8,3.1-4.2,4.6l0,0.1c7.7,8.7,15.5,17.3,23.3,25.9c16.6,18.5,33.3,37,49.9,55.4c2.9,0,5.8,0,8.7,0
		c-25.8-28.7-51.7-57.4-77.6-86.1L142.9,55.1z"/>
	<path d="M137.7,141.2c14.5,0,29.1,0,43.6,0c-7.2-8.1-14.5-16.2-21.8-24.3C152.3,125,145,133.1,137.7,141.2z"/>
	<path d="M102.1,123.1c-5.5,6-10.9,12.1-16.4,18c0.4,0.1,0.8,0,1.2,0.1c2.5,0,4.9,0,7.4,0c5.4-6,11-12,16.4-18.1
		C107.8,123.1,104.9,123.1,102.1,123.1z"/>
	<path d="M123.7,123.1c-2.9,0-5.8,0-8.7,0c-1.2,1.2-2.3,2.5-3.5,3.8c-4.3,4.8-8.7,9.5-13,14.3c2.9,0,5.8,0,8.7,0
		c2.3-2.5,4.5-5,6.8-7.4C117.3,130.2,120.6,126.7,123.7,123.1z"/>
	<path d="M129.9,55.1c-0.1,0-0.2,0-0.2,0c-1.4,1.6-2.8,3.1-4.2,4.7c0.4,0.5,0.8,0.9,1.3,1.4c24,26.6,48.1,53.3,72.1,79.9
		c0.2,0.1,0.5,0,0.8,0.1c2.3,0,4.6,0,6.9,0c0.3,0,0.6,0,0.8-0.1c-5.7-6.2-11.3-12.6-17-18.8C170.3,99.9,150.1,77.5,129.9,55.1z"/>
	<path d="M128.8,68.1c-1.8-2-3.6-4-5.4-6c-1.5,1.6-2.8,3.3-4.3,4.8c0,0,0,0.1,0,0.2c22.2,24.6,44.5,49.3,66.7,74l0.2,0.1
		c2.8,0,5.7,0,8.5,0c-0.4-0.6-1-1.1-1.4-1.7C171.6,115.7,150.2,91.9,128.8,68.1z"/>
	<path d="M151,107.2c-1.4-1.5-2.8-3-4.1-4.5c-4.2,4.8-8.6,9.5-12.8,14.3l-0.2,0.1c-7.1,0-14.3,0-21.4,0l0-0.2c1-1,1.8-2.1,2.8-3.1
		c1,0,2,0,3,0l0.1-0.1c0-1.1,0-2.2,0-3.2c-1.5-1.8-3.1-3.6-4.7-5.3c0,0,0-0.1,0-0.2c0.7-0.8,1.3-1.6,2-2.4c1,0.9,1.7,2,2.7,2.8
		c0-3.4,0-6.8,0-10.2l0.1-0.1c4.9-2.5,9.8-4.9,14.8-7.2l0-0.1c-1-1.1-2-2.3-3.1-3.4c-3.1-0.1-6.1,0-9.2,0l0-0.1c1-1,1.9-2.1,2.8-3.2
		c1.1,0,2.2,0,3.3,0c-1.1-1.4-2.4-2.7-3.6-4c-0.1,0-0.2,0-0.2,0c-2.2,2.5-4.4,4.9-6.5,7.4c0.6,0.9,1.5,1.7,2,2.5
		c-3.5,3.9-7,7.9-10.6,11.8c1,1.2,2.1,2.3,3.1,3.5c-0.7,0.8-1.4,1.6-2,2.5c0.9,1,1.7,2,2.6,3c0,0.1,0,0.2,0,0.2
		c-0.9,0.9-1.7,1.9-2.6,2.8c0.6,0.8,1.3,1.5,2,2.2c0,0.1,0,0.2,0,0.3c-2,2.2-4,4.5-6,6.7c0,0.1,0,0.2,0,0.2c8.6-0.1,17.2,0,25.8,0
		c-0.1,0.1-0.2,0.3-0.3,0.4c-6.3,6.9-12.6,13.9-18.9,20.7c0.5,0.1,1,0,1.5,0.1c2.4,0,4.8,0.1,7.2,0c10.2-11.3,20.3-22.5,30.5-33.8
		L151,107.2z M121.5,87.4L121.5,87.4c1.9-0.1,3.6,0,5.4-0.1l0,0.1c-1.8,0.9-3.6,1.8-5.4,2.6C121.4,89.1,121.5,88.2,121.5,87.4z
		 M111.7,97.9c1.1-0.6,2.2-1.1,3.3-1.7c0,1,0,2.1,0,3.1c-0.4,0.2-0.8,0.5-1.3,0.6C113.1,99.3,112.4,98.6,111.7,97.9z"/>
	<path d="M121.5,113.3c3.7,0,7.4,0,11,0c4-4.3,8.1-8.7,12.1-13c-3-3.4-6.2-6.8-9.2-10.2l-0.1,0c-4.6,2.1-9.1,4.3-13.7,6.4l-0.1,0.1
		C121.5,102.1,121.5,107.7,121.5,113.3z"/>
	<path d="M157.5,114.6l0-0.1c-1.4-1.5-2.8-3.1-4.3-4.7c-1.1,1.1-2.1,2.3-3.2,3.5c-4.8,5.3-9.5,10.5-14.3,15.8c-3.6,4-7.4,8-11,12.1
		c2.9,0,5.8,0.1,8.7,0c3.9-4.4,7.9-8.8,11.8-13.2C149.3,123.5,153.4,119.1,157.5,114.6z"/>
</g>
</svg>
