<?xml version="1.0" encoding="utf-8"?>
<!-- Generator: Adobe Illustrator 26.0.3, SVG Export Plug-In . SVG Version: 6.00 Build 0)  -->
<svg version="1.1" id="Слой_47" xmlns="http://www.w3.org/2000/svg" xmlns:xlink="http://www.w3.org/1999/xlink" x="0px"
	 y="0px" viewBox="0 0 239.5 150.2" style="enable-background:new 0 0 239.5 150.2;" xml:space="preserve">
<g>
	<path d="M92.2,37.8c0.5,0.1,1-0.1,1.4-0.4c-4.8-1.5-9.9-2.1-14.9-3C68.9,32.9,59,31.3,48.9,31c-12.2-0.3-24.5,0-36.7,1.2
		c-0.5,0.2-1.5,0-1.5,0.8c0.6,0.1,1.2,0.1,1.8,0.1c19.5-0.6,39.1-0.4,58.6,1.8C78.2,35.7,85.2,36.9,92.2,37.8z"/>
	<path d="M82.9,41.4c-6.4-1.4-12.9-2-19.4-2.8c-8.8-1.1-17.7-1.2-26.6-1.2c-3.7,0.1-7.4,0-11.1,0.4c0,0.2,0.1,0.5,0.1,0.6
		c7.6,0.6,15.3,0.5,22.9,1.1c10.7,0.7,21.4,1.7,32.1,2.3C81.6,41.9,82.4,42,82.9,41.4z"/>
	<path d="M83.1,46.1c-6.8-0.9-13.6-1.5-20.4-1.9C54.6,44,46.5,44,38.4,44.8c-0.8,0.1-2,0-2.4,0.9c6,0.3,12,0,18,0.2
		c9.6,0.3,19.2,0.9,28.7,1.2c1.1,0,2.1,0,3.2-0.1C85.2,46.2,84.1,46.2,83.1,46.1z"/>
	<path d="M102.6,33.7c-0.5-0.9-1.6-1-2.5-1.3c-8.9-2.2-18-3.9-27.1-5.2c-5.7-0.9-11.4-1.2-17.1-1.6c-4.4-0.3-8.7-0.6-13.1-0.6
		c-0.6-0.1-1,0.2-1.4,0.6C56,27.5,70.7,28.8,85.3,31C91.1,31.9,96.8,33.3,102.6,33.7z"/>
	<path d="M99.8,109.9c1.8,0,3.6,0.3,5.3-0.2c-1.2-0.6-2.5-0.7-3.8-0.8c-3.9-0.4-7.7-0.8-11.6-1.4c-6.7-1-13.3-2.7-19.9-4.4
		c-8.4-2.1-16.8-4-25.3-5.6c-0.8-0.2-1.6-0.3-2.4-0.3c0.4,0.4,0.9,0.8,1.5,0.9c8,2.2,16,4.6,24.1,6.7c4.1,1.1,8.3,2.2,12.5,2.8
		C86.7,108.7,93.3,109.6,99.8,109.9z"/>
	<path d="M66.8,49.6c-6.7-0.2-13.3,0.1-20,0.6c-0.8,0.1-1.8,0-2.5,0.6c0.9,0.4,1.9,0.3,2.8,0.4c3.4,0.1,6.8,0.2,10.2,0.3
		c7.5,0.3,15.1,0.1,22.5,0.9c4,0.3,8,0.7,12,0.7c-2.1-0.9-4.3-1.3-6.6-1.6C79.1,50.4,72.9,49.9,66.8,49.6z"/>
	<path d="M81.7,102c5.3,0.6,10.6,1,16,1c0.9,0,2,0.1,2.7-0.6c-1.8-0.4-3.7-0.4-5.6-0.6c-9.2-0.9-18.3-2.6-27.4-4.6
		c-5.1-1.1-10.1-2.5-15.2-3.2c0.3,0.6,0.8,0.9,1.4,1.1c5.4,1.9,11,3.3,16.6,4.7C74,100.7,77.8,101.6,81.7,102z"/>
	<path d="M94.7,56.9c-5.4-0.9-10.9-1.8-16.3-2.2c-6.3-0.2-12.7-0.2-19,0.4c-1.6,0.2-3.3,0.2-4.9,0.8c0.5,0.3,1.1,0.5,1.7,0.5
		c5.9,0.2,11.9-0.1,17.8,0.3c6.6,0.2,13.1,0.9,19.6,1.4c1.6,0.1,3.2,0.2,4.8,0C97.4,57.2,96,57.2,94.7,56.9z"/>
	<path d="M90.4,97c0.7,0.1,1.4,0,2-0.4c-1.9-0.8-3.9-1.1-5.9-1.5c-7.5-1.6-15.1-3.1-22.7-4.4c-2.3-0.3-4.7-0.9-7-0.8
		c0.4,0.8,1.4,0.9,2.2,1.1c4.5,1.2,9.1,2.2,13.6,3.4C78.4,95.6,84.4,96.6,90.4,97z"/>
	<path d="M92.1,91.2c-1.2-1.1-2.8-1.4-4.3-1.9c-3.3-1.1-6.6-2.2-10-2.9c-5-0.8-10-1.1-15.1-0.9c-0.5,0.1-1.5-0.1-1.3,0.7
		c5.4,1.1,11,1.3,16.4,2.4c4,0.8,7.9,1.7,11.9,2.5C90.4,91.2,91.3,91.3,92.1,91.2z"/>
	<path d="M110.7,115.6c1.3-0.1,2.8,0.3,3.9-0.5c-1.9-0.5-3.8-0.5-5.7-0.7c-9.6-1-19.3-2.1-28.8-3.7c-5.6-0.9-11.1-2.2-16.6-3.1
		c-0.8-0.1-1.6-0.2-2.4-0.2c0.9,1,2.3,1.1,3.5,1.5c8.2,2.2,16.6,4.1,25,5.4C96.7,115,103.7,115.4,110.7,115.6z"/>
	<path d="M106.1,64.2c-9-2-18.1-3.7-27.3-4c-4.7-0.2-9.4-0.6-14-0.1c0.6,0.7,1.5,0.6,2.4,0.7c8.4,0.7,16.7,1.7,25.1,2.7
		c5.3,0.7,10.7,1.5,16,2.2c0.8,0.1,1.5,0.1,2.3,0.1C109.3,64.7,107.6,64.7,106.1,64.2z"/>
	<path d="M113.6,31.1c1,0.2,2.1,0.5,3.1,0.2c-0.8-0.5-1.7-0.9-2.7-1.2c-14.1-5-29-8.1-44-7.9c-1,0-2,0.1-3,0.3
		c1.2,0.8,2.7,0.7,4.1,0.9c6.7,0.6,13.4,1.4,20,2.7C98.7,27.4,106.1,29.5,113.6,31.1z"/>
	<path d="M95.2,87.2c-3.3-2.1-7.1-3.2-10.8-4.5c-4.2-1.5-8.8-1.6-13.2-1.9c-1.3,0-2.7-0.3-3.8,0.5c4.6,1.3,9.4,1.5,14,2.7
		c4,1.1,8,2.2,12,3.2C93.9,87.4,94.5,87.4,95.2,87.2z"/>
	<path d="M105.8,84.3c-2.3-1.3-4.8-2.2-7.3-3.1c-3.4-1.2-6.8-2.6-10.3-3.2c-4.3-0.9-8.6-1.5-13-1.9c-1.5-0.1-3.1-0.4-4.6,0.1
		c1.5,0.7,3.2,0.9,4.9,1.3c4.4,0.9,8.7,1.7,13.1,2.7c5.2,1.4,10.3,2.8,15.5,4.2C104.6,84.6,105.2,84.7,105.8,84.3z"/>
	<path d="M123.2,75.2c-1.9-1.1-4-1.7-6.1-2.4c-5.7-1.8-11.3-3.6-17.1-4.8c-6.8-1-13.6-1.5-20.5-1.8c-2.3,0-4.6-0.4-6.8,0
		c0,0.6,0.6,0.6,1.1,0.7c6.1,0.9,12.3,1.3,18.4,2.1c9.9,1.3,19.5,3.8,29.1,6.2C121.9,75.4,122.6,75.4,123.2,75.2z"/>
	<path d="M125.7,120.2c-3.5-0.6-7.1-0.4-10.6-0.6c-12.6-0.7-25-3.1-37.5-5c-1.5-0.2-3-0.5-4.5-0.5c0.5,0.9,1.6,1,2.4,1.2
		c7.3,1.9,14.7,3.4,22.1,4.6c8,1,16,1.3,24,1.1C123,120.8,124.5,121.1,125.7,120.2z"/>
	<path d="M113.3,78.1c-4.6-1.7-9.3-3-14-4.1c-6.4-1.6-13-2-19.5-2.6c-1.6,0-3.4-0.5-4.9,0.2c0.7,0.3,1.4,0.5,2.1,0.6
		c6.9,1.3,13.7,2.3,20.6,3.5c5.8,1,11.5,2.8,17.3,3.6C114.6,78.7,114,78.3,113.3,78.1z"/>
	<path d="M137.7,124.4c0.6,0,1.2-0.2,1.6-0.6c-2.2-0.4-4.5-0.4-6.7-0.5c-8.1-0.3-16.3-0.5-24.4-0.7c-5.1-0.1-10.2-1.1-15.4-1.1
		c0.5,0.9,1.5,0.9,2.3,1.1c6.6,1.3,13.3,1.9,20,2.4c3.4,0.2,6.8,0,10.2,0C129.4,124.8,133.5,124.8,137.7,124.4z"/>
	<path d="M159.3,126c-6.9-0.5-13.9-0.2-20.9-0.1c-7,0.4-14.1,0.2-21.1,0.4c-1.2,0.1-2.4,0.1-3.6,0.4c0.6,0.7,1.6,0.6,2.5,0.7
		c5.6,0.5,11.1,0.6,16.7,0.6c8.1,0.1,16.3-0.8,24.4-1.2C158,126.8,159,126.9,159.3,126z"/>
	<path d="M135.8,74.1c0.2,1.8,0.7,3.6,0.3,5.4c-0.6,2.6-1.8,5-2.6,7.6c-0.6,2-1.4,4.2-0.6,6.3c0.5-0.4,0.9-1.1,1.5-1.2
		c1.1,0.1,2,0.7,2.9,1.2c4.4,2.9,9.4,5.6,14.9,5.3c-1.1-0.8-2.4-1.1-3.6-1.6c-3.1-1.3-6-3.1-7.8-6c-2-3.5-2.9-7.5-2.8-11.5
		C137.8,77.6,137.5,75.2,135.8,74.1z"/>
	<path d="M192.6,88.9c-2.8-4.2-6.5-8.3-11.6-9.6c0.8,1.6,1.7,3.2,2.1,5c0.8,3.3,0.3,6.6,0.2,9.9c5.1,1.1,10.2,2.1,15.2,3.4
		c1,0.2,1.9,0.6,2.8,1c-2.2,0.4-4.4,0-6.5-0.1c-4.2-0.3-8.3-0.7-12.5-1.1c-2.6,2.4-6,3.8-9.3,4.9c-4.7,1.5-9.7,2-14.6,2.1
		c-1.8,0-3.6-0.1-5.3,0.1c1,0.5,2,1,3.1,1.3c6.3,1.8,13,1.9,19.4,0.9c2.8-0.3,5.6-1.1,8.5-1.3c-1.5,2.4-4.2,3.5-6.7,4.4
		c-5.7,1.9-11.8,2.4-17.9,2.4c-5.9,0-11.8-1.5-16.7-4.7c-3.8-2.3-6.8-5.6-9.4-9.1c1,4.8,3.9,9.1,7.7,12.2c6,4.8,13.7,7.2,21.3,7.6
		c7.8,0.2,15.5-1.6,22.8-4.2c6.3-2.2,12.4-5.1,19.1-5.8c1.9-0.3,4-0.2,5.8-0.9c1.6-1,1.8-3,2-4.7c0.2-3.5,0.6-7.1-0.5-10.5
		c-2.7,1.6-5,4.4-8.4,4.5C198.5,96.1,195.2,92.3,192.6,88.9z"/>
	<path d="M135,69.8c1.1,3.5,4.2,6.2,7.6,7.3c-1.1-1.3-2.6-2.4-3.4-3.9c-0.6-1.1-0.5-2.7,0.5-3.6c0.9-0.9,2.5-1.2,3.1-2.5
		c-0.3-1.2-1-2.3-1.1-3.6c-0.2-2.1,0.2-4.2,1.2-6c0.4-0.8,1-1.6,1.4-2.4c0.1-1.4-0.5-2.9-0.2-4.3c0.5-2.5,2.6-4.3,3.6-6.6
		c-3.5,2.1-5.8,5.8-6.9,9.7c-0.6,2.7-3.4,4.1-4.5,6.5C134.7,63.2,134.3,66.7,135,69.8z"/>
	<path d="M150.8,43.1c0.8-3.1,3.1-5.6,5.3-7.7c-1.6-1.6-3.5-3.2-5.8-3.3c-1.5-0.1-3.2,1.3-2.7,2.9c0.5,1.7,1.9,2.8,3.2,3.9
		c-0.7,1.7-1.5,3.5-1.5,5.4c0,2,1.1,3.8,2.1,5.5c-1.5,0.1-3.2-0.3-4.6,0.5c0.7,0.3,1.4,0.5,2.1,0.8c-1,0.9-2.8,2.2-1.8,3.8
		c1.5,1.2,3.6,0.3,5.3,0.5c-0.9,1.4-2.5,1.7-3.9,2.1c1.9,0.9,4,1,6.1,1.2c-0.3-1-0.8-2-0.6-3.1c0.1-1.7,0.8-3.6-0.3-5.1
		C152.1,48.3,150.2,45.9,150.8,43.1z"/>
	<path d="M149.9,87.6c1.4,1.6,3.1,2.8,4.9,3.8c3.6,2.1,7.7,3.3,11.8,4c3.8,0.6,7.6,1,11.4,0.5c0.6-0.1,1.5-0.1,1.7-0.8
		c1.1-2.2,1.1-4.8,0.9-7.2c-0.3-2.7-0.5-5.5-1.6-8.1c-1.6,0.6-3.3,1.5-5.1,1.4c-1.7-0.1-3.3-0.7-4.9-1.1c0.9,1,1.9,2,3.2,2.4
		c1.1,0.3,2.2,0.4,3.2,0.5c-2.9,1.3-6,2.1-9.2,2.1c-2.5,0-4.9-0.9-7.3-1.6c4,3.6,9.8,4.7,15,3.4c-3.1,3-7.6,3.8-11.7,3.7
		C158,90.5,153.8,89.3,149.9,87.6z"/>
	<path d="M155.7,49.8c0.6,3.1,2.4,5.8,4.3,8.2c-1.4-0.2-2.6-1.1-3.7-1.9c0.4,2.2,2.6,3.1,4.2,4.2c-3.2,1.6-6.9,1-10.1-0.3
		c0.7,2,2.6,3.2,4.5,3.9c3,1.1,6.1,0.4,9.2,0.5c-1.1,1.8-3.2,2.6-5,3.3c-1.7,0.6-3.4,0.3-5.2,0.3c1.2,1.4,3.1,1.1,4.7,1.2
		c2.5,0.2,4.9-0.8,7.4-0.5c-1.5,1.4-3.5,1.9-5.3,2.8c2.6,0.1,5.1-0.6,7.5-1.1c5.2-1.2,10.4-2.5,15.3-4.6c5.1-2,9.8-4.7,14.7-7.1
		c-2.3,2.9-5.4,5-8.3,7.3c-5.2,4.1-11.2,6.8-17.1,9.5c3.6,0.1,7.3,0.1,10.9-0.3c6.3-0.6,12.4-2.8,17.8-6c1.7-0.8,1.6-3.1,3.1-4.2
		c1.6-1.5,4-1.4,6-2c1.5-0.5,1.8-2.3,2-3.7c0.5-4.1,0.6-8.4-0.1-12.5c-1.4,1.2-2.1,2.9-3.2,4.3c-1.1,1.4-2.4,2.8-4.2,3.4
		c-3.8,1.1-7.7,2.1-11.5,2.9c-5.9,1.3-11.8,2.5-17.8,2.1c-1.2-0.1-2.5-0.2-3.5-0.9c0.2-1.3,0.6-2.6,0.6-3.9
		c-1.9,2.3-5.2,3.9-8.1,2.8C161.1,56,158.4,52.7,155.7,49.8z"/>
	<path d="M180.9,40.7c-0.9-1.5-2.4-2.7-3.9-3.6c-1.7,0.8-3.5,1.4-4.7,2.9c1.4-0.5,2.8-0.9,4.3-0.8c0.1,0.7,0.2,1.5,0.3,2.2
		c0.8,0.1,1.6,0.1,2.4,0.2c-0.3,1.3-1.5,1.6-2.7,1.7c0.3,0.5,0.6,1.1,0.8,1.6c-0.4,0.7-0.8,1.5-1.6,1.9c-1.2,0.6-2.5,0.3-3.8,0.2
		c0,0.9,0.2,2.1-0.7,2.7c-1.4,0.5-2.9-1.1-2-2.4c1-1.2,2.2-2.1,3-3.5c-1.3,0.3-2.6,0.8-3.9,0.9c-1.3,0-2.2-1.1-2.9-2
		c-0.6-0.8-1.1-2-0.2-2.8c1.5-1.6,3.8-1.2,5.7-1.4c-1.4-0.7-3.1-0.7-4.1-1.9c-2-2.1-5.1-2.1-7.7-1.6c1.6,0.2,3.2,0.3,4.6,1.1
		c0.7,0.3,1.6,0.9,1.3,1.8c-0.2,1.1-1.5,1.3-2.5,1.3c-3.1-0.1-6.6,0.1-9.2,2.2c1.7-0.1,3.4-0.8,5.2-0.7c1.4,0.1,2.8,0.5,4.1,1.1
		c1,0.5,1.6,1.6,2.3,2.4c-0.6,0.5-1.3,0.9-1.5,1.7c-0.3,0.8-0.1,2.1,0.9,2.3c1.2,0.4,2.2-0.7,3-1.4c-0.1,1.2-0.5,2.4-0.1,3.5
		c0.2,0.7,0.8,1.5,0.3,2.2c-0.7,1-2.1,1.1-3.3,0.9c-1.7-0.3-2.9-1.6-4.2-2.7c1.3,3.1,4.7,4.6,7.9,4.8c1.3,0.1,2.1-1.1,2.8-2
		c1.9-2.2,5-2.9,7.1-4.8c1.1-0.9,1-2.5,1.7-3.7C180.6,43.8,181.5,42.2,180.9,40.7z"/>
	<path d="M175.1,57.8c1.9,0.1,3.9,0.2,5.8,0.1c-2.2-1.2-4.5-2.3-6.8-3.3c-0.1,1-0.2,1.9-0.1,2.9C174.2,57.8,174.7,57.7,175.1,57.8z"
		/>
	<path d="M211.4,70.8c0-1.3-0.1-2.6-0.5-3.9c-0.8,0.3-1.8,0.6-2.2,1.4c-0.6,0.7-0.8,1.7-1.6,2.1c-0.9-0.1-1.7-0.8-2.5-1.2
		c-3.4,2.7-7.2,4.7-11.3,6c-1.7,0.6-3.5,0.8-5.1,1.8c6.1,0.7,12.2-0.5,18.2,0.9c1.3,0.4,2.7,0.8,4,1
		C211.6,76.3,211.4,73.5,211.4,70.8z"/>
	<path d="M227,115.3c-1.8,0.4-3.6,0.2-5.4,0.3c-1.6,0-3.1,0.2-4.7-0.1c-0.3-0.6-0.6-1.3-0.9-1.9c-0.2,1.2-0.1,2.4-0.1,3.7
		c3,1.5,6.2,2.8,9.2,4.3c-3.1,1.4-6.1,2.8-9.2,4.2c0,1.2,0,2.4,0.1,3.6c0.3-0.6,0.6-1.3,1-1.8c1.4-0.3,2.8,0,4.2,0
		c1.9,0.2,4,0.1,5.9,0.7c0.4,0.5,0.6,1.1,0.9,1.7c0.4-1.6,0.5-3.4,0-5c-0.3,0.6-0.4,1.4-0.9,2c-3,0.3-6-0.2-9-0.3
		c3.4-1.5,6.9-2.8,10.3-4.3c-3.4-1.8-7-3.2-10.6-4.8c2.9-0.1,5.8-0.2,8.6-0.1c1.1-0.1,1.3,1.2,1.8,1.9c0.1-1.9,0.1-3.8,0-5.6
		C227.7,114.1,227.5,114.9,227,115.3z"/>
	<path d="M216,105.5c0.3-0.6,0.6-1.2,0.9-1.8c2.3,0.4,4.4,1.6,6.5,2.4c-2.1,1.1-4.3,2.1-6.5,3.2c-0.3-0.5-0.6-0.9-0.9-1.4
		c-0.1,1.7-0.1,3.4,0,5.2c0.5-0.9,1-1.9,2-2.3c2.2-1.1,4.4-2.2,6.7-3.3c1-0.6,2.3,0.1,2.8,1c0,0.7-0.4,1.3-0.6,2
		c0.5,0.3,1.2,0.7,1.6,0c0.9-1.3-0.2-2.9-1.4-3.5c-3-1.6-6.2-2.7-9.2-4.2c-0.9-0.4-1.3-1.4-1.8-2.1
		C215.8,102.3,215.8,103.9,216,105.5z"/>
	<path d="M216.1,93.1c-0.4,2.3-0.2,4.6-0.2,6.9c0.8-0.3,0.6-1.8,1.7-1.6c2.9-0.1,5.9-0.1,8.8,0c1.2-0.1,1.2,1.2,1.5,1.9
		c0.5-1.9,0.3-3.9,0.2-5.8c-0.4,0.6-0.6,1.3-0.9,1.9c-1.3,0.5-2.8,0.2-4.2,0.3c0.7-2,0.1-4.7-2-5.6C219.1,90.1,216.5,91,216.1,93.1z
		 M221.1,93c1.3,0.6,1.6,2.3,1.1,3.5c-1.9,0.2-3.8,0.1-5.7-0.1c0-1-0.2-2.1,0.5-2.9C218.1,92.5,219.9,92.5,221.1,93z"/>
	<path d="M222.7,75.5c-1.9,0-3.9,0.3-5.8,0c-0.4-0.6-0.6-1.3-0.9-2c-0.2,1.2-0.2,2.5-0.2,3.7c3,1.5,6.2,2.8,9.2,4.3
		c-3.1,1.4-6.1,2.8-9.2,4.2c0,1.2-0.1,2.4,0.2,3.5c0.3-0.6,0.5-1.3,0.8-1.9c1.7-0.3,3.4,0,5,0.1c1.7,0.2,3.5,0.1,5.1,0.7
		c0.3,0.5,0.6,1.1,0.9,1.6c0.4-1.5,0.2-3.1,0.3-4.7l-0.5,0c-0.2,0.5-0.3,1-0.5,1.5c-0.7,0.4-1.6,0.3-2.3,0.3
		c-2.3-0.1-4.6-0.2-6.9-0.4c3.4-1.5,7-2.8,10.4-4.4c-3.5-1.7-7.1-3.1-10.6-4.8c3.1,0,6.2-0.2,9.3,0c0.4,0.6,0.7,1.2,1.1,1.8
		c0.1-1.9,0.1-3.8,0-5.7c-0.4,0.6-0.7,1.2-1,1.8C225.7,75.6,224.2,75.4,222.7,75.5z"/>
	<path d="M226.7,62c-3.7,1.7-7.7,2.6-11.3,4.4c3.6,1.9,7.5,3,11.1,4.6c0.8,0.4,1.2,1.3,1.7,2c0.1-1.5,0.2-3.1-0.1-4.6
		c-0.4,0.4-0.6,1-0.9,1.5c-1.2,0.1-2.3-0.6-3.4-0.9c0-1.3,0-2.7,0-4c1.1-0.4,2.3-0.8,3.4-1.1c0.2,0.5,0.4,1,0.6,1.6
		c0.6-1.7,0.3-3.6,0.3-5.3C227.7,60.7,227.4,61.6,226.7,62z M222.9,68.7c-1.6-0.6-3.2-1.1-4.7-1.8c1.6-0.5,3.1-1.1,4.7-1.6
		C222.9,66.4,222.9,67.6,222.9,68.7z"/>
	<path d="M216,45.7c-0.2,1.8-0.2,3.6-0.1,5.4c0.8,0.3,0.5-1.5,1.3-1.5c1.3-0.2,2.7-0.1,4-0.1c0,2.1,0,4.1,0,6.2
		c-1.5,0-2.9,0.2-4.4-0.2c-0.4-0.5-0.6-1.1-0.9-1.7c-0.1,1.9-0.3,3.8,0.1,5.7c0.3-0.6,0.4-1.3,0.8-1.8c1.4-0.3,2.8-0.1,4.2-0.2
		c1.9,0.1,3.9-0.2,5.8,0.1c0.5,0.5,0.7,1.2,1.1,1.8c0.1-1.8,0.1-3.6,0.1-5.4l-0.4,0c-0.2,0.5-0.3,1-0.6,1.5
		c-1.7,0.3-3.4,0.1-5.1,0.1c0-2.1,0-4.1,0-6.2c1.5,0,3.1-0.1,4.7,0.1c0.9,0.1,0.7,1.4,1.2,2c0.6-1.8,0.2-3.8,0.2-5.7
		c-0.5,0.7-0.7,2-1.8,1.9c-2.4,0.1-4.8,0-7.3,0c-0.7,0-1.5,0.1-2.2-0.2C216.6,47,216.3,46.4,216,45.7z"/>
	<path d="M227.4,36c0.9,1.9,0.1,4.4-1.7,5.5c-2.3,1.5-5.5,1.5-7.7-0.2c-1.6-1.2-2.1-3.5-1.3-5.3c0.5-1.2,1.9-1.5,2.7-2.4
		c-1.1,0-2.2,0.2-3.3,0.3c-0.7,2.8-0.8,6.1,1.2,8.5c2.4,3,7.7,2.9,9.9-0.2c1.7-2.3,1.4-5.3,0.8-7.9c-1.1-0.5-2.2-0.9-3.4-0.9
		C225.5,34.2,226.8,34.8,227.4,36z"/>
	<path d="M226.2,22.7c-1.7,1-3.9,1.6-4.7,3.7c-1-1.2-2.4-1.8-3.8-2.6c-0.9-0.5-0.8-1.7-1.3-2.6c-1,0.3-1.2,1.5-0.6,2.2
		c1.2,1.5,3.4,1.6,4.7,3c0.6,0.6,0.6,1.5,0.8,2.3c-1.6,0-3.1,0.1-4.7-0.2c-0.2-0.6-0.4-1.2-0.7-1.9c-0.3,1.9-0.3,3.8,0,5.8
		c0.3-0.6,0.5-1.2,0.8-1.7c1.4-0.4,2.9-0.1,4.4-0.2c2,0.1,4-0.3,6,0.2c0.3,0.5,0.5,1.1,0.7,1.7c0.5-1.7,0.2-3.5,0.3-5.2l-0.4,0
		c-0.2,0.5-0.3,0.9-0.5,1.4c-1.7,0.5-3.6,0.2-5.4,0.2c0.2-0.7,0.2-1.7,0.9-2.1c1.4-1.1,3.3-1.5,4.7-2.6c1-0.9,0.6-2.4,0.7-3.6
		C227.6,21.2,227.1,22.2,226.2,22.7z"/>
</g>
</svg>
