<?xml version="1.0" encoding="utf-8"?>
<!-- Generator: Adobe Illustrator 26.0.3, SVG Export Plug-In . SVG Version: 6.00 Build 0)  -->
<svg version="1.1" id="Слой_1" xmlns="http://www.w3.org/2000/svg" xmlns:xlink="http://www.w3.org/1999/xlink" x="0px" y="0px"
	 viewBox="0 0 238.1 150.2" style="enable-background:new 0 0 238.1 150.2;" xml:space="preserve">
<g>
	<g>
		<path d="M105.98,54.64c0.73,0.52,1.57,0.83,2.46,0.91c-0.21,0.19-0.64,0.55-0.85,0.74c1.46,1.53,2.49,3.41,3.71,5.13
			c0.26,0.43,0.72,0.61,1.2,0.55c4.14-0.05,8.28-0.02,12.42-0.06c-0.92-1.98-1.7-4.19-3.4-5.62c0.09-0.21,0.27-0.62,0.36-0.83
			c0.56,0.25,1.13,0.49,1.69,0.73c-0.15,0.21-0.29,0.42-0.44,0.64c0.86,1.67,1.67,3.38,2.35,5.14c0.72-0.09,1.44-0.19,2.16-0.29
			c0,1.17,0.21,2.38-0.12,3.53c-2.84,6.14-6.2,12.01-9.29,18.03c-1.59,3.28-3.68,6.28-5.14,9.65c-1.34,3.1-2.71,6.2-4.04,9.3
			c3.34,0.37,6.21-1.88,9.47-2.03c0.53-0.08,0.98-0.41,1.46-0.62c0.08,0.17,0.23,0.51,0.31,0.68c0.39,0.14,0.79,0.29,1.19,0.44
			c0.58-0.34,1.17-0.67,1.76-0.98c0.1,0.21,0.31,0.63,0.41,0.84c0.59-0.02,1.19,0.06,1.77,0.18c0.78,0.25,1.48-0.34,2.24-0.34
			c0.59,0.07,0.86,0.62,0.99,1.15c0.7-0.25,1.36-0.62,1.88-1.17c1.22-0.17,2.5-0.14,3.61-0.77c0.08-1.07-0.5-2.41,0.39-3.24
			c-0.09-1.69,0.2-3.36,0.21-5.05c-0.13-0.15-0.4-0.46-0.53-0.61c0.15,0.04,0.46,0.11,0.62,0.15c0.17-0.78,0.42-1.55,1-2.11
			c0.01-0.64,0-1.29,0.12-1.92c0.57-2.77,0.43-5.63,0.62-8.44c0.2-2.51-0.13-5.03,0.11-7.54c0.12,0.28,0.24,0.56,0.36,0.85
			c-0.25,0.67-0.43,1.38-0.34,2.1c0.31,3.48,0.29,6.98,0.5,10.47c0.01,1.53,0.64,2.97,0.48,4.52c0.8,0.5,0.55,2.09,1.58,2.08
			c-0.38,0.29-0.59,0.69-0.49,1.18c0.19,2.08,0.18,4.15,0.4,6.23c1.48-0.04,2.97,0.14,4.44-0.07l0.41-0.5
			c0.09,0.15,0.26,0.44,0.35,0.59c0.61-0.02,1.23-0.03,1.85-0.04c0.03-1.38-0.04-2.77-0.01-4.15c0.36-0.21,0.72-0.42,1.08-0.63
			c-0.03-0.86-0.04-1.77,0.49-2.49c0.53,0.68,0.44,1.55,0.54,2.37c0.31,0.36,0.76,0.59,1.01,1c0.1,1.29-0.03,2.58,0.02,3.87
			c0.23,0,0.68,0,0.91-0.01c0.11-0.44,0.07-1.01,0.54-1.24c0.57-0.23,1.13,0.05,1.63,0.33c0.14,0.45-0.26,1.37,0.46,1.38
			c0.11-0.21,0.32-0.64,0.43-0.85c0.56,0.32,1.02,0.79,1.36,1.36c0.26-0.12,0.52-0.24,0.79-0.35c0.05-0.16,0.16-0.48,0.21-0.64
			c0.45-0.21,0.9-0.43,1.35-0.65c0.38,0.32,0.75,0.66,1.11,1.01c1.18,0.25,2.39,0.13,3.58,0.27c0.26-0.65,0.44-1.42,1.05-1.83
			c0.68-0.45,1.43-0.77,2.1-1.23c-0.06-0.49-0.13-0.99-0.19-1.48c0.68-0.83,0.91-1.88,0.87-2.95c0.14,0.09,0.43,0.27,0.58,0.35
			c-0.08,0.6-0.13,1.22,0.26,1.72c0.52,0.71,0.45,1.61,0.37,2.44c1.18,0.69,2.7,1.16,3.03,2.73c0.24,0.25,0.48,0.49,0.72,0.75
			c0.57-0.19,1.13-0.4,1.68-0.62c0.28,0.27,0.57,0.55,0.85,0.82c0.26-0.05,0.77-0.13,1.02-0.18c-3.24-4.93-6.53-9.83-9.88-14.68
			c-2.76-4.07-5.86-7.88-8.8-11.8c-1.45-1.94-3.04-3.77-4.33-5.84c0.37-0.42,0.65-1.03,1.24-1.15c1.49-0.23,1.94-1.91,2.54-3.1
			c0.55-1.44,1.62-2.83,1.32-4.47c0.81-0.1,1.57-0.38,2.23-0.88c0.22,0.48,0.44,0.96,0.67,1.44c-0.69,0.25-1.63,0.28-1.95,1.08
			c-0.81,1.79-1.72,3.54-2.36,5.41c4.6,0.07,9.21,0.17,13.81-0.04c0.96-1.89,2.2-3.61,3.06-5.54c-0.34-0.13-0.68-0.26-1.01-0.38
			c1.13-0.06,1.94-0.81,2.54-1.73c-0.06,0.5-0.1,1.01-0.11,1.51c0.19,0.39,0.63,0.54,0.96,0.77c-0.67-0.03-1.52-0.28-2.01,0.36
			c-0.66,0.88-1.15,1.9-1.56,2.93c-0.31,0.79,0.49,1.4,0.87,1.99c3.21,3.85,6.44,7.67,9.57,11.59c0.55-0.09,1.09-0.19,1.65-0.28
			c-0.09,0.35-0.27,1.07-0.36,1.42c0.54-0.18,1.08-0.35,1.63-0.51c-0.21,0.48-0.42,0.96-0.63,1.44c1.35,1.88,2.98,3.5,4.51,5.23
			c5.76,6.75,11.47,13.53,17.34,20.18c1.03-0.63,2.07-1.54,3.36-1.35c2.07,0.25,4.15,0.53,6.24,0.53c-0.12-2.43-0.08-4.86,0.06-7.29
			c-0.26-0.05-0.76-0.15-1.01-0.2c0.83-0.45,1.06-1.37,1.1-2.27c0.29,0.86,0.83,1.59,1.64,1.97c-0.34,0.16-0.74,0.24-1.02,0.5
			c-0.1,2.43-0.01,4.87,0.06,7.3c0.7,0.04,1.41,0.07,2.11,0.11c0,0.88,0,1.76,0,2.64c7.82,0,10.67-0.01,18.48,0
			c-0.02-2.93-0.04-5.87-0.05-8.8c-0.37-0.09-0.74-0.18-1.1-0.26c0.7-0.31,1.31-0.77,1.7-1.47c0.51,0.65,1.15,1.16,1.85,1.58
			c-0.48,0.04-0.95,0.08-1.42,0.13c-0.26,2.92-0.02,5.86,0.04,8.79c0.38,0.03,0.76,0.06,1.15,0.09c-0.02,2.38-0.04,4.76-0.06,7.15
			c-7.72,0.01-10.44,1.06-18.02,2.47c-0.87,0.24-2.03,0.33-2.41,1.32c-0.29,0.76-0.37,1.75,0.13,2.45c0.4,0.17,0.84,0.24,1.27,0.31
			c4.22,0.52,3.55,0.22,7.75,1.03c-1.31,0.48-2.65,0.88-3.96,1.37c4.05,0.62,8.21-0.08,12.24,0.73c-2.24,0.49-4.54,0.05-6.8,0.17
			c-4.04,0.09-3.2-0.26-7.17,0.72c0.98,0.69,2.22,0.37,3.33,0.47c2.5,0.12,0.07,0.03,2.54,0.49c-2.33,0.78,0.17,0.81-2.25,0.88
			c-5.98,0.08-11.97-0.4-17.94,0.12c0.08,0.09,0.22,0.28,0.3,0.37c2.47,0.35,5,0.4,7.39,1.21c-7.18,0.55-14.37,0.83-21.54,1.42
			c-0.55,0.28,0.38,0.53,0.66,0.56c4.11,0.64,8.27,0.75,12.39,1.32c-2.51,1.2-5.27,1.74-8.02,1.78c-34.5-0.23-69.02-0.2-103.52-0.46
			c3.19-1.28,6.82-0.68,9.94-2.15c-4.93-0.38-9.87-0.51-14.8-0.91c1.21-0.67,2.59-0.88,3.84-1.45c-2.14-0.46-4.32-0.74-6.48-1.15
			c1-0.27,2-0.53,3-0.8c-2.59,0.06-5.18,0.17-7.78,0.24c0.2-0.2,0.62-0.62,0.83-0.82c-0.95-0.12-1.89-0.23-2.83-0.38
			c0.68-0.14,1.37-0.27,2.06-0.41c-1.9-0.35-3.85-0.17-5.73-0.63c0.72-0.28,1.48-0.34,2.24-0.44c-2.83-0.63-5.77-0.38-8.65-0.47
			c0.28-0.14,0.84-0.42,1.12-0.56c-5-0.99-10.17-0.07-15.15-1.1c2.23-0.86,4.71,0,6.92-0.94c-2.1-0.73-4.33-0.63-6.5-0.93
			c1.74-0.87,3.65-1.24,5.52-1.69c-0.12,0.5-0.24,1-0.36,1.5c1.01-0.14,2.01-0.29,3.01-0.46c0.6-2.33,0.67-4.75,0.83-7.14
			c-3.46-1.72-61.7-1.1-65.41-1.22c-0.03-2.36-0.07-4.72-0.09-7.08c2.03,0,58.33-0.01,60.36-0.02c-0.03-2.93,0.14-5.87-0.01-8.79
			c-0.22-0.06-0.67-0.17-0.89-0.23c0.53-0.34,1.02-0.74,1.49-1.16c0.38,0.45,0.79,0.86,1.25,1.23c-0.37,0.07-0.73,0.16-1.1,0.23
			c0.05,2.88,0.01,5.76,0.02,8.64c6.63-0.23,13.27-0.46,19.9-0.7c0-2.87-0.01-5.74,0.01-8.6c-0.28-0.07-0.55-0.13-0.83-0.19
			c0.83-0.21,1.19-0.88,1.18-1.72c0.4,0.69,0.94,1.28,1.53,1.82c-0.38,0.12-0.76,0.24-1.14,0.36c-0.05,2.67-0.14,5.34-0.14,8.01
			c1.28-1.36,2.13-3.05,3.16-4.6c5.65-8.6,11.29-17.22,16.81-25.92c2.52-4.02,5.11-7.99,7.36-12.18c-0.65-1.03-1.37-2-2.09-2.97
			c-0.43,0.1-0.85,0.2-1.28,0.3C105.82,56.05,105.98,55.36,105.98,54.64z M109.11,61.44c-0.22,1.08-1.69,1.66-1.11,2.86
			c0.91-0.07,1.4-0.81,1.74-1.59C109.52,62.29,109.31,61.86,109.11,61.44z M105.79,67.06c0.61-0.19,1.19-0.42,1.77-0.68
			c-0.26-0.46-0.53-0.91-0.79-1.36C106.41,65.68,106.07,66.36,105.79,67.06z M104.76,68.29c-0.18,0.42-0.35,0.85-0.51,1.28
			c0.27,0.01,0.81,0.04,1.07,0.06c0.01-0.36,0.03-0.71,0.05-1.07C105.21,68.49,104.91,68.36,104.76,68.29z M172.32,69.07
			c0.09,1.27,1.17,1.99,2.24,2.35C173.88,70.58,173.13,69.78,172.32,69.07z M102.66,71.71c-0.23,0.5-0.83,1.15-0.19,1.6
			c0.5-0.04,0.68-0.34,0.53-0.9c0.76-0.4,1.26-1.09,0.97-2C103.43,70.72,102.95,71.14,102.66,71.71z M175.21,72.51
			c-0.4,0.36,0.14,1.14,0.59,0.82C176.2,72.97,175.66,72.19,175.21,72.51z M101.18,74.13c0.02,0.52,0.04,1.03,0.08,1.55
			c0.38-0.42,0.46-0.98,0.54-1.52C101.65,74.15,101.34,74.14,101.18,74.13z M176.37,74.37c0.4,1.15,1.45,1.78,2.55,2.05
			C178.25,75.57,177.63,74.24,176.37,74.37z M116.92,82.19c0.96-1.39,1.77-2.89,2.57-4.39C117.94,78.63,116.75,80.33,116.92,82.19z
			 M97.3,79.98c0.14,0.37,0.31,0.74,0.49,1.1c0.5-0.35,1.24-0.95,0.73-1.63C98.03,79.01,97.61,79.62,97.3,79.98z M181.79,80.29
			c0.26,0.66,0.58,1.36,1.38,1.36C183.12,80.84,182.54,80.4,181.79,80.29z M95.1,83.3c0.41,0.14,0.83,0.28,1.24,0.43
			c0.23-0.37,0.46-0.74,0.7-1.12c-0.31-0.3-0.61-0.59-0.92-0.88C95.78,82.26,95.45,82.78,95.1,83.3z M114.81,83.65
			c-0.41,0.58-0.26,1.33-0.26,1.99c0.74-0.93,1.35-1.95,1.95-2.97C115.87,82.83,115.16,83.02,114.81,83.65z M186.79,85.35
			c0.08,0.93,0.82,1.46,1.48,1.98C187.91,86.57,187.76,85.49,186.79,85.35z M90.88,89.59c0.22,0.58,0.57,1.1,1.01,1.54
			c0.31-0.49,0.61-0.99,0.91-1.48c-0.4-0.26-0.8-0.52-1.19-0.8c0.53-0.52,1.06-1.05,1.58-1.57c0.09,0.27,0.26,0.82,0.35,1.09
			c0.34-0.4,0.67-0.8,1-1.2c-0.34-0.28-0.68-0.57-1.02-0.84C92.46,87.24,91.67,88.43,90.88,89.59z M110.29,91.32
			c0.26,0.34,0.51,0.69,0.77,1.03c0.82-1.49,1.71-2.93,2.47-4.45C112.06,88.56,111.08,89.95,110.29,91.32z M189.97,89.38
			c0.86,1.23,1.91,2.3,3.05,3.25C192.32,91.28,191.67,89.58,189.97,89.38z M108.46,98.06c0.8-1.65,1.5-3.35,2.23-5.04
			C108.68,93.6,107.74,96.14,108.46,98.06z M83.88,101.58c0.26,0.25,0.52,0.5,0.78,0.76c0.25-0.43,0.5-0.85,0.75-1.28
			c-0.26-0.2-0.51-0.4-0.77-0.59c0.32-0.71,0.63-1.5,1.35-1.88c0.22,0.11,0.65,0.34,0.87,0.46c0.28-0.76,0.5-1.55,0.59-2.36
			C85.25,97.08,84.16,99.52,83.88,101.58z M197.84,98.51c0.32,0.09,0.65,0.18,0.98,0.26c-0.2-0.43-0.39-0.86-0.59-1.28
			C198.1,97.83,197.97,98.17,197.84,98.51z M105.27,100.81c0.15,0.66,0.67,1.12,1.04,1.66c0.56-1.31,1.07-2.64,1.61-3.96
			C107.02,99.23,105.85,99.75,105.27,100.81z M202.06,102.74c0.12,0.41,0.26,0.82,0.4,1.23c0.22,0.03,0.66,0.08,0.89,0.11
			C202.99,103.58,202.77,102.8,202.06,102.74z M75.6,103.47c0.61,0.59,1.82,0.83,2-0.3C76.92,103.19,76.25,103.28,75.6,103.47z
			 M67.65,104.4c1.09,0.49,2.19-0.16,3.13-0.69C69.73,103.8,68.28,103.2,67.65,104.4z M224.08,106.85c0.94,0.57,2.01,0.87,3.1,0.82
			C226.58,106.44,225.17,106.75,224.08,106.85z M220.55,107.25c0.9,0.71,2.26,0.8,3.19,0.11
			C222.72,106.91,221.59,106.9,220.55,107.25z M228.02,107.16c0.55,0.76,2.26,1.42,2.5,0.11
			C229.69,107.21,228.85,107.17,228.02,107.16z M231.96,107.44c0.42,0.91,1.52,0.82,2.05,0.08
			C233.33,107.4,232.64,107.38,231.96,107.44z M68,110.77c1.2,0.23,2.46,0.47,3.67,0.18c0.54-0.15,0.61-0.8,0.85-1.24
			C70.96,109.29,69.09,109.39,68,110.77z M106.22,111.35c-0.88,0.01-2.17,0.06-2.39,1.17c-0.2,1.93,0.17,3.87,0.26,5.8
			c0.6,0.19,1.18,0.45,1.62,0.93c2.93,0.59,5.96,0.23,8.88,0.94c-3.2,0.6-6.45,0.86-9.66,1.38c3.96,0.91,8.05,0.86,12.05,1.49
			c-1.42,0.48-2.94,0.42-4.4,0.67c1.13,0.26,2.33,0.35,3.38,0.91c-2.44,0.81-5.09,0.21-7.52,1.08c5.45,1.06,11.09,0.56,16.56,1.52
			c-1.11,0.61-2.39,0.52-3.59,0.6c-3.64,0.23-7.26,0.58-10.9,0.77c2.97,0.43,5.97,0.4,8.95,0.58c5.13,0.18,10.27,0.44,15.41,0.36
			c-0.27-0.52-0.54-1.04-0.8-1.56c0.78-0.18,1.76-0.05,2.31-0.78c-3.52-0.89-7.24-0.26-10.73-1.21c2.74-0.55,5.53-0.05,8.29-0.34
			c0.78-0.05,1.66-0.86,1.22-1.71c-0.68-1.2-2.25-1.16-3.3-1.86c1.1-0.63,2.19-1.28,3.28-1.93c-0.82-0.38-1.63-0.76-2.45-1.14
			c0.48-0.63,0.98-1.26,1.47-1.89c-1.08-0.28-2.14-0.67-3.07-1.3c1.28-0.62,2.67-0.92,3.97-1.5c-1.58-1-3.54-0.61-5.19-1.4
			c0.67-0.57,1.36-1.09,2.06-1.62C123.35,110.64,114.78,111.71,106.22,111.35z M153.79,112.21c0.45,0.33,0.9,0.65,1.35,0.97
			c-4.19,0.05-8.38-0.26-12.56,0.09c0.63,0.26,1.25,0.53,1.85,0.86c-1.81,0.65-3.75,0.61-5.63,0.9c1.37,0.4,2.78,0.69,4.15,1.08
			c-1.43,1.01-3.28,0.94-4.83,1.67c0.01,0.11,0.02,0.33,0.03,0.44c1.02,0.56,2.19,0.74,3.27,1.18c-1.06,0.51-2.12,1.01-3.1,1.66
			c0.77,0.34,1.57,0.6,2.38,0.86c-0.99,0.39-1.99,0.78-2.98,1.15c0.17,0.23,0.35,0.47,0.53,0.71c-0.98,0.16-2.03,0.53-2.24,1.68
			c0.38,0.12,0.75,0.25,1.12,0.38c-0.04,0.54-0.09,1.07-0.13,1.61c2.43,0.19,4.87,0.34,7.26,0.86c-2.75,0.38-5.55,0.16-8.3,0.54
			c-0.25,0.52,0.1,0.74,0.57,0.75c6.28,0.55,12.58,0.17,18.87,0.1c0.85-0.02,1.7,0.02,2.53,0.18c-0.4,0.13-0.81,0.25-1.24,0.28
			c-3.48,0.24-6.96,0.43-10.43,0.74c2.69,0.62,5.47,0.57,8.21,0.71c6.93,0.11,13.9,0.31,20.81-0.43c1.66-0.25,3.46-0.33,4.84-1.42
			c-5.98-0.38-11.98-0.48-17.96-0.85c0.42-0.43,0.84-0.95,1.45-1.08c2.01-0.48,4.13,0.12,6.11-0.56c-4.07-0.49-8.16-0.64-12.23-1.14
			c4.11-0.78,8.31-0.82,12.47-1.19c-1.56-0.46-3.16-0.71-4.76-0.94c-0.64-0.12-1.38-0.1-1.79-0.71c2.99-0.47,6.01-0.69,9.01-1.05
			c3.69-0.45,7.42-0.59,11.08-1.3c-3.43-0.58-6.87-1.02-10.3-1.59c3.97-0.45,7.96-0.79,11.93-1.22c-0.57-1.77-1.04-3.65-2.2-5.12
			c-0.48-0.63-1.23-0.97-2-0.91C171.88,112.14,162.84,112.18,153.79,112.21z"/>
	</g>
</g>
</svg>
