<?xml version="1.0" encoding="utf-8"?>
<!-- Generator: Adobe Illustrator 23.0.1, SVG Export Plug-In . SVG Version: 6.00 Build 0)  -->
<svg version="1.1"
	 id="Слой_1" text-rendering="geometricPrecision" shape-rendering="geometricPrecision" image-rendering="optimizeQuality" xmlns:xodm="http://www.corel.com/coreldraw/odm/2003"
	 xmlns="http://www.w3.org/2000/svg" xmlns:xlink="http://www.w3.org/1999/xlink" x="0px" y="0px" viewBox="0 0 238.1 150.2"
	 style="enable-background:new 0 0 238.1 150.2;" xml:space="preserve">
<g>
	<g>
		<path d="M207,91.8c0.6,0.2,1.2,0.5,1.6,1c0.4,0.7,0.2,1.6,0,2.4c-0.1,0.4-0.5,0.3-0.8,0.4c0.4,0.3,0.9,0.7,1,1.3
			c0.3,1.8,0.6,3.6,0.5,5.3c0,0.3-0.3,0.6-0.5,0.8c0.3,1.2,0.5,2.5,1.2,3.5c0.2,0.3,0.5,0.4,0.8,0.5c0.8,0.3,1.4,1,1.8,1.8
			c0.5,0.9,1.2,1.8,1.5,2.8c1.1,0.3,1.8,1.1,2.3,2.1c0.8,1.2,1.4,2.5,1.6,3.9c0.2,1.6,0.6,3.1,1.2,4.6c0.4,1,1.4,1.5,2,2.4
			c0.4,0.6,0.9,1,1.5,1.4c-0.2,0.1-0.3,0.2-0.5,0.3c-0.3-0.1-0.7-0.2-1-0.2c0.2,0.3,0.6,0.6,0.9,0.8c-0.4,0.1-0.6,0.4-0.4,0.8
			c-0.3,0-0.6,0-0.9,0c-0.2,0.7-1.2,0.3-1.8,0.4c0.7,0.8,1.4,1.5,2.3,2.1c0.4,0.2,0.8,0.5,1.1,0.9c1.8,2.7,3.5,5.5,5,8.5
			c0.7,1.4,0.8,3.1,1.4,4.6c-15.8,0-31.5,0.2-47.3,0.1c-0.6,0-1.2-0.6-1.1-1.2c0.3-1.6,0-3.2,0.1-4.8c0.1-0.7,0-1.3,0.1-2
			c0.5-0.2,1.1-0.2,1.5-0.6c0.6-0.3,0.9-1,1.5-1.2c1.9-0.9,3.8-2,4.9-3.9c0.6-0.7,1.1-1.7,0.4-2.4c-0.8-0.8-1.9-1.3-3.1-1.5
			c0.1-0.9,0-1.8-0.3-2.7c-0.5-1-0.3-2.2,0.3-3c2.9-0.1,5.8-0.1,8.7,0.1c2.5,0,5-0.1,7.5,0c0.9,0.2,1.9,0.5,2.8,0.7
			c0.4-0.3,1-0.7,1-1.3c0.1-0.5-0.4-0.8-0.7-1.1c-0.6-0.6-0.9-1.4-1.3-2c-0.5-0.7-0.6-1.6-0.7-2.4c-0.1-0.4,0.4-0.6,0.6-0.9
			c-1.8-0.4-3.7-0.7-5.1-2c-0.6-0.5-1-1.1-1.7-1.4c-0.4,0.4-0.9,0.8-1.2,1.3c-0.2,0.4-0.3,0.9-0.4,1.3c-0.8-0.3-1.6-0.3-2.4-0.4
			c-0.4,0-0.6-0.3-0.8-0.6c0.7-0.1,1.5-0.2,2.2-0.4c0.6-0.4,1.2-1,1.4-1.7c-0.7-0.1-1.4-0.1-1.9-0.6c-0.7-0.6-1.7-0.7-2.5-1.1
			c-0.3-0.1-0.6-0.5-1-0.4c-0.4,0.8-0.4,1.7-0.4,2.6c0,0.3-0.2,0.4-0.4,0.6c0.5,0.1,0.9,0.4,1.2,0.7c0.1,0.6,0.1,1.2,0.1,1.7
			c-0.6-0.3-1.1-0.7-1.7-1c-0.1-0.6-0.3-1.1-0.6-1.7c-0.3-0.4,0-0.8,0.2-1.2c0.3-0.7,0.5-1.4,0.6-2.2c-1.2,0.2-2,1.1-2.7,2
			c-0.2,0.3-0.4,0.4-0.7,0.5c0.2,0.3,0.5,0.6,0.7,0.8c-0.2,0.6-0.4,1.1-0.6,1.6c-0.4-0.4-0.8-0.9-1.1-1.4c0.2-0.7,0.1-1.5,0.2-2.2
			c0.7-0.4,1.4-0.8,1.9-1.4c0.7-0.6,1.3-1.6,2.4-1.5c0.5,0.1,0.7-0.6,1.2-0.4c0.8,0.1,1.5,0.1,2.3,0.1c0.1-1.3,0.7-2.4,1.4-3.4
			c0.3-0.8,0.5-1.7,0.9-2.4c0.4-0.8,1-1.5,1.4-2.3c-0.9-0.3-2.2-0.7-2.8,0.2c-0.4,0-1.4,0.1-1.2-0.6c-0.3,0-0.5,0-0.8,0
			c-0.1-0.6-0.1-1.2,0-1.8c0.4-0.3,1-0.3,1.4-0.5c1.4-0.6,2.5-1.9,4.1-1.9c0.1-0.5,0.1-0.9,0.2-1.4c0.3,0.4,0.6,0.9,0.8,1.4
			c0.8-0.2,2-0.1,2.5,0.7c0.6,0.2,1.2,0.5,1.5,1c-0.2,0-0.6-0.1-0.8-0.1c0.6,0.5,0.9,1.3,1.4,1.9c0.3,0.3,0.3,0.7,0.4,1.1
			c-0.1,0-0.4-0.1-0.6-0.1c0,0.2,0.1,0.5,0.1,0.7c-0.5,0-0.4,0.4-0.4,0.8c-0.1,0.2-0.2,0.3-0.3,0.5c0.3-0.1,0.7-0.1,1-0.2
			c0-0.9,0.5-1.7,1.1-2.4c0.6-0.7,1.6-1,2.1-1.9c-0.2-0.1-0.4-0.3-0.6-0.4c0-0.4,0.1-0.8,0.1-1.2c0.1,0,0.2-0.1,0.3-0.2
			C206,92.8,206.6,92.4,207,91.8z M210.7,116.6c0.3,0.6,0.6,1.3,1,1.8c0.4,0.3,0.8,0.6,1.1,0.9c-0.2,0.9-1.1,1.4-1.6,2.1
			c-0.4,0.6-0.9,1.2-1.3,1.8c1.8,0.6,3.6,1,5.3,1.7c1,0.4,1.8,1.1,2.7,1.7c-0.3-1-0.8-2-1.2-3.1c-0.4-1.1-0.7-2.2-1-3.4
			c-0.3-1-0.2-2.1-0.6-3.2c-0.2-0.5-0.6-0.8-0.7-1.3c-0.1-0.5-0.4-0.9-0.7-1.3C213.3,115.7,212.1,116.5,210.7,116.6z M207.1,117.8
			c0.1,0.9,0.3,1.9,1,2.6c0.2,0.3,0.4,0.7,0.1,1.1c-0.4,0.3-1,0.5-1.5,0.7c0,0.1-0.1,0.2-0.1,0.3c0.7,0.1,1.3,0.3,2,0.5
			c0.4-0.5,0.8-1,1.2-1.5c0.2-0.6,0.7-1.2,0.3-1.8c-0.4-0.9-1.6-0.9-2.2-1.7C207.7,117.9,207.4,117.8,207.1,117.8z"/>
	</g>
</g>
</svg>
