<?xml version="1.0" encoding="utf-8"?>
<!-- Generator: Adobe Illustrator 26.0.3, SVG Export Plug-In . SVG Version: 6.00 Build 0)  -->
<svg version="1.1" id="Слой_1" xmlns="http://www.w3.org/2000/svg" xmlns:xlink="http://www.w3.org/1999/xlink" x="0px" y="0px"
	 viewBox="0 0 239.5 150.2" style="enable-background:new 0 0 239.5 150.2;" xml:space="preserve">
<g>
	<path d="M215,125.6c-0.9-1.6,0.2-3.4-0.4-5.1c-0.5-1.1-1.7-1.8-2.2-3c-0.3-0.8-0.2-1.7-0.5-2.5c-0.6-0.6-1.7-0.7-2.3-1.4
		c-0.7-0.5-0.9-1.4-1.3-2.2c-0.5-1.1-1.7-1.4-2.3-2.3c-0.4-0.5-0.6-1.2-1.3-1.4c-0.9-0.4-2,0-2.9-0.6c-1-0.5-1.4-1.6-2-2.4
		c-0.7-0.8-1.7-0.5-2.6-0.6c-1.1-0.1-1.4-1.2-2.3-1.6c-0.6-0.1-1.2,0.1-1.8,0.2c-1.3,0.4-2.8-0.1-3.8-1c-0.4-0.4-0.8-0.8-1.3-0.9
		c-1.1-0.2-2.3-0.3-3.5-0.5c-2.1-0.7-4.3,0-6.4-0.5c1.7-2.5,3.5-5.1,4.7-7.9c0.7,0.4,1.6,0.7,1.8,1.6c0.2,0.5-0.1,1.3,0.5,1.6
		c0.2-0.9,0.5-1.8,0.3-2.7c-0.2-0.6-0.8-0.9-1.2-1.3c-0.4-0.3-0.5-0.9-0.6-1.4c0.4,0.4,0.8,0.8,1.3,1c0.6,0.2,1.3,0.3,1.7,0.8
		c0.4,0.6,0.3,1.4,0.4,2.1c0.1-0.1,0.3-0.1,0.4-0.1c0.3-1,0.6-2.2,0-3.2c-0.8-0.7-1.9-0.8-2.5-1.6c0.7,0.4,1.5,0.5,2.3,0.5
		c0.9,0,1.3,0.9,1.8,1.4c0-0.5-0.1-1.1-0.2-1.6c-0.1,0.1-0.3,0.2-0.4,0.3c-1-1-2.6-0.3-3.6-1.3c0-0.3-0.1-0.7-0.1-1
		c0.5,0.5,0.9,1,1.6,1.2c0.8,0.2,1.6,0.6,2.4,0.7c-0.4-0.4-0.9-0.7-1.5-0.9c0.4-0.2,0.9-0.4,1.4-0.4c0.8,0.2,1,1.1,1.5,1.6
		c0-0.9-0.2-2.1-1.2-2.5c-0.9-0.4-1.9,0.4-2.8-0.1c-0.3-0.5-0.5-1.1-0.5-1.7c-0.1-1.1,0.5-2.1,0.7-3.1c0.3-1.2,0.4-2.4,0.4-3.6
		c1.3-0.4,2.5-1.2,3.5-2.2c1.6-1.6,3.1-3.4,3.8-5.6c0.3-0.6,0.7-1.1,1.1-1.6c1.2-1.7,2-3.8,1.9-5.9c0.1-2-0.8-4.1-2.2-5.5
		c-1-0.9-2.2-1.6-2.9-2.8s-0.3-2.7-0.2-4c0-0.8,0.4-1.5,0.7-2.3c0.7-1.8,0.9-3.7,0.6-5.6c-0.2-1.2-0.7-2.3-0.7-3.5
		c0-1.3,0-2.6-0.5-3.7c-0.4-1-1.3-1.5-1.8-2.4c-0.4-0.6-0.6-1.3-0.9-1.9c-0.9-1.7-2.7-3-4.6-3.3c-1-0.3-2.1-0.3-3-1
		c-0.9-0.9-0.6-2.3-1.5-3.2c0.9,0.4,1.8,0.8,2.7,0.6c1.1-0.2,2-1,3.1-1.1c0.1,1.2-1,2.2-0.7,3.4c0.3,1,1.4,1.7,2.4,1.6
		c1.4,0,2.4-1.1,3.2-2.2c0.3-0.4,0.7-1,1.2-0.7c0.9,0.5,1.4,1.4,2,2.1c0.5,0.6,1.2,0.9,1.8,1.3c-0.1-0.4-0.3-0.7-0.1-1.1
		c-0.4-0.4-0.8-0.8-0.9-1.3c-0.2-0.6-0.1-1.3-0.4-1.9c-0.4-0.7-1.2-1.3-2-1.2c-1-0.1-1.6,0.9-2.4,1.4c-0.2-0.2-0.4-0.3-0.6-0.5
		c-0.1-0.6-0.1-1.3-0.3-2c-0.4-1-1.6-0.9-2.3-1.5c-0.5-0.7-0.6-1.5-1.2-2.1c-0.6-0.6-1.4-1-2.2-1.4c-0.5,0-1-0.1-1.5-0.2
		c0.6-0.4,1.1-1.4,2-1.2c0.7,0.5,1.2,1.4,2.2,1.5c1.1,0.3,1.9-0.7,2.9-0.6c0.7-0.1,1.2,0.4,1.8,0.7c-0.1-1.2-1.3-2-2.5-2
		c-0.8,0-1.5,0.8-2.4,0.6c-0.4-0.4-0.7-1-1-1.5c-0.6,0-1.3,0.1-2,0.2c-0.6-0.1-0.6-0.9-0.7-1.3c-0.1-0.5-0.5-0.8-0.8-1.2
		c0.6,0.3,1.2,0.5,1.9,0.4s1.3-0.7,2-0.7c0.8,0.3,1.3,1.2,2.2,1.1c1.5,0.1,2.8-1.1,3.6-2.3c-1.3,0.5-2.8,1.1-4.2,0.5
		c-0.3-0.7-0.6-1.5-1.4-1.6c-1.1-0.1-1.8,0.8-2.7,1.1c-0.2-0.1-0.5-0.3-0.6-0.6c-0.1-0.8,0-1.7-0.1-2.6c-0.3-0.9-1.2-1.8-2.2-1.8
		c-1-0.1-2,0.4-2.7,1.1S176,8.4,175,8.8c-1.7,0.4-3.3-0.8-5-0.6c-1.5-0.2-3.1,0.8-3.6,2.3c-1.5,0.2-2.9,1.6-2.8,3.2
		c-0.3,0.3-0.6,0.7-0.8,1.1c-0.1,0.6,0,1.3,0.3,1.9c0,0.6-0.2,1.3,0,1.9c0.2,0.5,0.8,0.8,1.2,1.2c0,0.7-0.1,1.5,0.3,2.2
		c0.3,0.7,0.9,1.1,1.5,1.5c-0.8,0.9-1,2.1-0.6,3.2c-1.2-0.2-2.6,0-3.3,1.2c-0.5,0.7-0.4,1.7-0.1,2.5c-0.2,0.1-0.3,0.3-0.5,0.4
		c0,0-0.1,0-0.2,0c-0.4,0.5-0.8,0.9-1.3,1.3c-1.1,0.9-1.9,2.2-2.4,3.5c-0.9,2.4-1,5-1.6,7.4c-0.7,3-2.1,6-2,9.2
		c-0.1,2.1,0.6,4.1,1.2,6c0.1,0.6,0.5,1,0.8,1.4c0.5-0.1,1-0.1,1.4-0.4c1.7-1.2,3.3-2.4,4.7-3.9c0.3,2.5-0.3,4.9,0,7.3
		c0.1,4.1,1.3,8.3,0.7,12.5c0,2.1-0.1,4.3,0,6.4c0.3,3.9,1.2,7.9,2.3,11.7c0.2,0.8,0.5,1.6,0.6,2.5c-0.1,0.8-0.5,1.4-0.8,2
		c-0.2,0.4-0.4,0.9-0.8,1.1c-1,0.6-2.2,1.1-3.5,1.1c-1.5,0-2.8-0.6-4.2-0.9c-0.9-0.2-1.7,0.3-2.5,0.6c-1.2,0.5-2.5-0.3-3.7,0.2
		c-1.1,0.6-2.3,1.1-3.5,1.3c-1.2,0.3-2.4-0.1-3.5,0.4c-1.9,0.7-3.8,1.4-5.6,2.4c-0.5,0.3-0.9,0.7-1.5,0.8c-0.6,0.1-1.3,0-1.9,0.1
		c-0.4,0.3-0.7,0.8-1.1,1.1c-0.7,0.3-1.6,0.3-2.2,0.7c-1,0.5-1.6,1.5-2.4,2.2c-0.6,0.6-1.7,0.7-2.3,1.4c-0.5,0.6-0.7,1.4-1.2,2.1
		s-1.2,1.1-1.7,1.8c-0.5,0.8-0.1,1.8-0.7,2.5c-0.3,0.6-1,1-0.9,1.7s0.5,1.4,0.5,2.2c0.1,1.2-0.8,2.2-0.9,3.3c-0.2,1.3,0,2.6,0.5,3.7
		s1.4,2,2.2,2.9c1.8,1.9,3.4,4.2,5.9,5.3c2.9,1.2,6.2,0.9,9.2,1.7c5.2,1.3,9.7,4.8,15,5.9c3,0.7,6.3,0.4,8.9-1.3
		c0.7,0.4,1.2,0.4,1.8,0.9c0.2,0.1,0.5,0.1,0.6,0.1c4.2,1.5,8.8,1.5,13,0.2c1.3-0.6,2.6-1.2,3.6-2.1c0.8-0.6,1.2-1.5,1.8-2.2
		c0.6-0.4,1.3-0.4,1.9-0.5c2.1-0.2,4.1-0.4,6.1-0.8h0.2c0.3-0.1,0.7-0.1,0.9-0.4c0.4-0.4-0.2-0.9-0.3-1.3c4.3-0.7,8.6,0.1,12.8-0.7
		c1-0.1,1.8-0.9,2.8-1.2c1.3-0.4,2.7-0.7,3.8-1.6c1.3-1.1,2.3-2.4,3-3.9C215.6,127.6,215.5,126.5,215,125.6z M211.8,117.5
		c0.4,1.1,1.4,1.8,2.1,2.7c-7.9,3.1-15.2,7.4-22.4,11.8c-0.6,0.3-1.3,0.3-1.9,0.4c3.2-2.9,6.6-5.7,10-8.5c3.9-3,7.8-6,11.9-8.5
		C211.6,116.1,211.5,116.8,211.8,117.5z M208,112.1c0.4,1.6,1.8,2.6,3.2,3.2c-8.1,4.8-15.2,11.1-22.3,17.3c-0.6,0.3-1.4,0.3-2.1,0.4
		c1.5-1.5,2.8-3.1,4.3-4.6c2.4-2.6,4.9-5.1,7.4-7.6C201.5,117.7,204.8,114.8,208,112.1z M205.8,109.8c0.6,0.6,1.5,1,2,1.8
		c-5.3,4.3-10.2,9.2-15,14.1c-2.3,2.5-4.5,4.9-6.8,7.3c-0.3,0.1-0.7,0.2-1.1,0.3c4.4-7,8.5-14.3,14.2-20.4c1.7-1.8,3.5-3.4,5.4-4.9
		C205,108.5,205.3,109.2,205.8,109.8z M201.6,107.5c0.7,0.5,1.6,0.6,2.5,0.6c-2.6,1.8-4.8,3.9-6.8,6.3c-3,3.5-5.6,7.3-8,11.2
		c-1.6,2.5-3.2,5.1-4.7,7.7c-0.5,0.1-0.9,0.2-1.3,0.3c2-3.3,3.6-6.9,5.3-10.4c3-6.4,6.6-12.5,10.9-18.1
		C200.1,106,200.6,106.9,201.6,107.5z M195.2,103.1c0.5,0.5,0.9,1.2,1.6,1.5c0.9,0,1.7,0,2.5,0.2c-2.1,3-4.3,5.9-6.1,9.1
		c-2.6,4.2-4.7,8.7-6.8,13.2c-1.1,2.2-2.2,4.3-3.5,6.4c-0.4-0.2-0.8-0.4-1.2-0.5c1.4-3.8,2.4-7.8,3.8-11.6c1.7-4.7,3.5-9.3,5.8-13.7
		c0.9-1.7,1.9-3.2,3.1-4.6C194.7,103.1,194.9,103.1,195.2,103.1z M183.1,100.8c-4.2,9.6-6.3,20.2-6.2,30.7c-0.1,0.2,0.1,0.5,0.3,0.7
		c-0.1,0-0.2,0.1-0.4,0.1c-0.2-0.1-0.4-0.2-0.5-0.3l0.1-0.1c0.1-0.1,0.3-0.2,0.4-0.3c-0.9-0.6-1.9-1.2-2.5-2.1c-0.2-1,0-2.1-0.1-3.2
		c-0.3-3-0.2-6-0.2-9c0-0.9,0.5-1.7,0.8-2.5c0.7-1.6,1.4-3.4,1.4-5.2c0-1.4,0.1-2.9,0.8-4.2c0.8-1.5,1.3-3.2,1.1-5
		C179.7,100.6,181.4,100.7,183.1,100.8z M182.3,92.4c-1.1,2.3-2.4,4.5-3.9,6.6c-0.4,0.5-0.8,1-0.8,1.6c-0.1,0.8,0,1.7-0.2,2.6
		c-0.4,1.6-1.6,2.9-1.6,4.6c0,1.5-0.1,3.1-0.6,4.6s-1.2,2.9-1.8,4.4c-0.8,2.2-2.1,4.2-2.7,6.5c-0.2,1-0.1,2.1-0.1,3.1
		c0.8,0.7,1.5,1.6,2.1,2.5c1,1.1,2.3,2,3.5,3c-0.1,0-0.5-0.1-0.7-0.1c0.5,0.5,1.1,0.8,1.6,1.4c-0.5-0.3-1-0.6-1.6-0.8
		c0.5,0.9,1.7,1.1,2,2.1c-0.8-0.2-1.4-0.8-2-1.2c0.2,1.1,1.5,1.4,2.2,2.1c0,0.2-0.1,0.4-0.2,0.5c-1.4-0.3-2.2-1.7-3.5-2.1
		c0.3,0.5,0.8,0.9,1.3,1.3c-0.1,0.3-0.3,0.6-0.2,0.9c0.4,0.3,0.8,0.5,1.2,0.7c-0.4,0-0.9,0-1.3-0.1c-0.6-0.4-0.9-0.9-1.5-1.2
		c-0.4-0.3-0.9-0.4-1.3-0.7c-0.4-0.6-0.6-1.4-1.2-1.9c-0.8-0.8-1.6-1.7-2.7-1.7c-0.7-0.1-1.6,0.2-2.1-0.5c-0.5-0.9-0.1-1.8,0-2.7
		c0.2-0.9-0.4-1.7-0.1-2.6c0.5-1.8,0.7-3.7,0.9-5.6c0-2.3,0.4-4.7,0.1-7c-0.1-0.8,0.3-1.4,0.5-2.1c0.6-1.8,1-3.8,1.8-5.5
		c0.5-1.1,1.7-1.8,2.3-2.9c0.5-0.9,0.5-2,0.8-2.9c1.9-4.1,2.9-8.5,3.3-13c0.1-1,0-1.9,0.1-2.9c0-0.2,0.2-0.3,0.3-0.1
		c0.1,0.8,0.1,1.8,0.8,2.5c0.8,0.8,2,0.8,3,0.8c0.6,0,1.3,0.2,1.6,0.8c0.5,1.2-0.2,2.7,0.5,3.9C182.2,91.7,182.6,92,182.3,92.4z
		 M173.6,124.1c0.1,1.7,0,3.5,0.2,5.2c-1.1-0.9-1.6-2.3-2.7-3.1c-0.2-1.1-0.1-2.3,0.2-3.4c0.5-1.9,1.5-3.6,2.3-5.4
		C173.5,119.7,173.4,121.9,173.6,124.1z M176.6,136.4l-0.5-0.3c-0.2-0.1-0.5-0.3-0.7-0.4c0.2-0.1,0.3-0.2,0.4-0.4
		c0.2,0.2,0.5,0.4,0.7,0.6C176.6,136.1,176.6,136.2,176.6,136.4z M165.5,127.5c0.1-0.1,0.3-0.3,0.4-0.5c0.1,0.3-0.1,0.6-0.2,0.8
		c-0.1,1-0.5,2.1,0.1,2.8c0.4,0.4,0.8,1,0.9,1.6c-0.3,0.4-1,0.6-1.5,0.8c-1.2-2.1-2-4.5-2.8-6.8c-0.3-0.7,0.3-1.2,0.6-1.7
		c0.2-0.7,0.1-1.5,0.4-2.2c0.3-0.9,0.7-1.9,1-3C164.5,122.1,165.1,124.8,165.5,127.5z M164.6,118.4c0.3-2,1.1-3.9,2.2-5.7
		c0.1,2.9,0,5.7-0.3,8.5c-0.1,1.7-0.6,3.2-0.8,4.8h-0.1C165.3,123.5,164.7,121,164.6,118.4z M184.8,89.5c0.5,0.6,1.4,0.8,2.1,1.2
		c0.4,0.5,0.4,1.2,0.4,1.8c-0.2-0.6-0.5-1.3-1-1.7c-0.9-0.2-2.1-0.4-2.4-1.4c0.1-1.2,0.4-2.3-0.5-3.3c-0.4-0.4-0.8-1.2-1.4-1
		c0.5,0.7,1.3,1.2,1.5,2.1c0.5,1.3-0.7,2.6-0.2,3.9c0.3,0.7,1.1,1,1.5,1.6c0.2,0.3,0.2,0.7,0.3,1.1c-0.2-0.4-0.4-0.9-0.8-1.2
		c-0.6-0.5-1.3-0.7-1.7-1.4c-0.8-1.4,0.3-3.2-0.8-4.5c-0.6-0.8-1.7-0.7-2.6-0.7c-0.8,0-1.7-0.3-2.1-1.1c-0.4-0.7-0.3-1.5-0.3-2.2
		c-0.9,0.3-1.8,0.2-2.5-0.4s-0.2-1.6,0.4-2.1c1.1-0.4,1.9-0.7,2.1-1.9c-0.6,0.5-0.6,0.9-1.4,1.2c-1.1,0.4-2.4-0.2-2.8-1.2
		c-0.7-1.4-0.4-3.1,0.3-4.4c0.9-1.9,2.8-3.1,4.7-3.7c1.7-0.7,3.2-0.7,5.3-0.2c-0.3,0.6-0.6,1.3-0.8,1.9c-0.7,0.1-1.9,0.5-2.5,1
		c-0.9,0.6-1.4,1.1-2.1,2c-0.6,0.7-1,1.7-1.4,2.5c0,0.7,0.9,0.6,1.4,0.3c-0.6,1.3-2.6,3.7-2,4c0,0.1,0.3,0,0.4,0.1
		c0.1,0.1,0.3,0.2,0.4,0.3c0.4-0.2,0.7-0.5,1.1-0.7c0.2,0.1,0.4,0.2,0.6,0.3c0.3-0.1,0.5-0.5,0.8-0.6c0.2,0.2,0.5,0.5,0.7,0.7
		c0.7-0.4,1.2-1,1.8-1.5c-0.2,0.5-0.7,0.9-0.7,1.5c0.6,0.7,1.5,0.3,2.3,0.4c0.9,0.2,1.4,1.1,1.6,1.9c0.1,1-0.1,2,0.1,3l-0.3-0.1
		C184.2,87.9,184.2,88.8,184.8,89.5z M186,87.3c0.3,0.3,2.6-0.8,3.3,0.3c-0.7-0.1-1.3-0.3-1.9,0c-0.6,0.1-1.3,0.4-1.8-0.2
		c-1.3-0.9-0.4-2.4-0.9-3.7c-0.3-1.3-1.6-2.4-2.9-2c0.2-0.4,0.4-0.7,0.6-1.1c1.1,0.3,2,1.2,2.3,2.4C185.4,84.4,184.8,86.2,186,87.3z
		 M185.5,83.3c-0.5-1.4-1.5-2.7-3-3.1c0.4-0.7,1-1.5,1.5-2.2c0.6,0.6,1.5,0.5,2.4,0.4C186.4,80.1,186,81.7,185.5,83.3z M194.4,57.8
		c1.3,1.3,1.9,3.2,2.1,5c0.1,2.3-0.9,4.5-2.2,6.5c-0.1-0.1-0.1-0.4-0.3-0.5c-0.2,0.4-0.2,1-0.4,1.5c-0.5,1.7-1.7,3.2-2.8,4.5
		c-1.3,1.5-3,2.9-5,3.2c-0.6,0.2-1.2-0.1-1.7-0.3c0.5-0.9,0.7-1.9,1.3-2.6c0.5,0.4,1.1,0.8,1.8,0.8c1,0,1.9-0.6,2.7-1.2
		c0.2-0.1,0.4-0.4,0.4-0.7c-1.1,0.5-1.9,1.4-3.1,1.6c-0.6,0.1-1-0.4-1.5-0.7c0.6-1,1.1-2,1.6-3.1c0.3,0.8,0.8,1.5,1.7,1.6
		c1.1,0,2-0.9,2.5-1.8c0.6-1.3,0.9-2.7,0.8-4.1c-0.6,0.8-0.4,1.9-0.7,2.8c-0.3,1-0.8,2.1-1.8,2.5c-0.5,0.2-1.3,0.2-1.6-0.3
		s-0.7-1.1-0.3-1.6c1.2-2.4,2.1-4.9,2.4-7.5c0.3,1.5,0.4,3.1,0.2,4.6c-0.1,1-0.7,1.9-0.8,2.9c0.7-0.6,0.9-1.4,1.1-2.2
		c0.5-2,0.3-4.1-0.4-6.1c0-2.6-0.3-5.3-1.2-7.7c-0.6-1.6-1-3.3-1.6-4.9c-0.5-1.4-1-2.8-1.5-4.2c1.1,0.6,2.2,1.2,2.9,2.2
		c0.9,1.3,1.4,2.9,1,4.5c-0.1,0.4-0.1,0.8-0.2,1.2c0.6-0.4,0.6-1.2,0.7-1.8c0.2-2.3-1-4.6-2.9-5.8c-0.6-0.4-1.4-0.6-1.8-1.2
		c-0.5-1-0.9-2.1-1.3-3.1c-0.7-1.8-0.5-3.8-1.2-5.6c-0.5-1.2-1.3-2.3-2.2-3.3c-0.6-0.7-1.4-1.1-2-1.8c0.4-0.4,0.9-0.7,1-1
		c0.8,0.5,1.6,0.8,2.5,1.1c1.3,0.4,2.3,1.4,2.6,2.7c0.5,2.4,0.5,4.9,1,7.4c0.3,1.6,1.2,3.1,2.3,4.3c0.9,1.1,2,2,2.4,3.4
		c0.6,1.8-0.3,3.8,0.3,5.6C191.8,56,193.3,56.7,194.4,57.8z M186,28.9c1,0.5,1.9,1.2,2.5,2.1c0.5,0.8,0.8,1.8,1.4,2.6
		c0.5,0.7,1.2,1.3,1.6,2.1c0.5,1,0.5,2.2,0.5,3.3c-0.1,1.3,0.5,2.5,0.7,3.8c0.4,2.2,0,4.4-1,6.4c-0.2-0.7-0.7-1.4-0.4-2.1
		c0.7-2,0.3-4.2-0.8-5.9c-1.2-1.6-0.1-3.6-0.9-5.3c-0.5-1-1.1-2.1-2.2-2.4c0.4,0.8,1.3,1.3,1.6,2.1c0.8,1.4,0.3,3.1,0.5,4.6
		c0.4,1.3,1.5,2.3,1.6,3.7c0.3,1.2,0,2.4-0.3,3.5c-1.4-1.9-3.4-3.5-3.9-5.9c-0.5-2.5-0.6-5-1-7.5c-0.3-1.5-1.4-2.7-2.8-3.2
		c-0.8-0.3-1.7-0.6-2.5-1.1c0.3-0.7,0.6-1.4,0.8-2.1C182.8,28.4,184.5,28.2,186,28.9z M178.7,30.9c-0.4-0.3-0.7-0.7-1.1-1
		c1.3-0.9,2.5-2.1,3-3.6C181.5,28.1,180.1,29.9,178.7,30.9z M180.1,26c-0.4,1.6-1.6,2.7-2.8,3.6c-0.7-0.5-1.2-1.1-1.7-1.8
		c0.1-0.7,0.3-1.3,0.5-1.9c1-0.7,1.8-1.4,2.5-2.3C179.7,23.8,180.5,25,180.1,26z M168.9,18.5c0-0.1,0-0.4,0-0.5
		c-0.1-0.1-0.3-0.3-0.5-0.5c-0.8,0.1-1.8,0.4-1.8,1.3c-0.2-0.3-0.4-0.6-0.5-0.9c0.3-0.7,1.1-0.8,1.8-0.9c0-0.1,0.1-0.3,0.2-0.4
		c-0.9-0.1-1.7,0.3-2.3,0.9c-0.5-0.7-0.6-1.6-0.7-2.4c-0.1-0.9,0.5-1.8,1.3-2.2c1.2-0.6,2.5-1,3.8-1.1c1.3,0.2,2.4,1.2,2.8,2.4
		c0.2,0.7,0.8,1.1,1.2,1.6c0,1.5,0.6,3.2,2,4c0,0.6,0.1,1.3-0.3,1.8c-0.6,1-1.4,1.9-2.2,2.7c-0.6,0.4-1.4,0.8-2,0.4
		c-0.7-0.4-1.3-0.9-1.9-1.4c-0.7-0.7-1.6-1.3-2.2-2.2c-0.4-0.6-0.6-1.3-0.8-2c0.1-0.3,0.2-0.7,0.4-1c0.1,0.4,0,0.8-0.2,1.2
		C167.8,19.3,168.4,19,168.9,18.5z M176.3,25.4c0.1-0.5,0-1.1,0.5-1.5c0.5-0.5,0.9-1.2,1.2-1.8c0.2,0.4,0.3,0.8,0.5,1.2
		C177.8,24,177.1,24.8,176.3,25.4z M164.9,21.7c-0.1-0.6,0-1.1-0.1-1.7c-0.3-0.5-0.8-0.8-1.2-1.2c-0.2-0.4-0.1-0.9-0.1-1.4
		c0.5,0.1,1.3,0.3,1.5-0.4c-0.4,0-1,0.3-1.3-0.2c-0.3-0.3-0.5-0.8-0.5-1.2c0-0.9,1-1.3,1-2.2c0.1-1.2,1.1-2.1,2.2-2.4
		c0.3,0.2,0.5,0.5,0.8,0.7c0-0.5-0.2-0.9-0.1-1.4c0.5-0.9,1.4-1.5,2.4-1.6c1,0,2,0,2.9,0.3c0.9,0.2,1.9,0.6,2.8,0.3
		c1.2-0.5,1.6-2,2.7-2.7c0.7-0.6,1.8-0.9,2.5-0.8c0.9,0.5,1.2,1.7,1,2.7c-0.2,0.8,0.2,2,1,2.3c0.6,0.2,1.1-0.3,1.6-0.6
		c0.4-0.3,0.8-0.5,1.4-0.5c0.7,0.5,0.6,1.1,1.1,1.5c0.9,0.5,2,0.3,2.9,0.1c-0.8,0.7-1.8,1.1-2.9,0.8c-0.5-0.4-1-1.1-1.7-1.1
		c-0.7,0.1-1.3,0.6-2,0.7c-0.7,0-1.6-0.2-2.1-0.8c-0.4-0.5-0.3-1.1-0.3-1.7c-0.5-0.7-1.5-1-2.2-0.4c-0.8,0.8-0.4,1.9-0.8,2.8
		c-0.2,0.6-1.1,0.8-1.4,1.4c1.2,0,1.6-1.1,2.7-1.3c0.8-0.2,1.7-0.2,2.3,0.4c0.7,0.6,0.7,2.1,1,2.9c0.7,0.1,1.6-0.3,2.3-0.4
		c0.7,0.2,0.3,0.9,1,1.2c0.7,0.4,1.5,0,2.2-0.2c0.7-0.3,1.3-0.2,1.9,0.1c-0.5,0-1.1,0-1.6,0.2c-0.6,0.2-1.2,0.6-1.8,0.5
		c-1.1,0-1.6-1.3-2.6-1.5c-1,0.1-1.5,1.1-2.3,1.5c-0.6,0.2-1.3,0.3-1.8-0.2c-0.4-0.4-0.8-1-1.4-1c-0.5,0-1.1,0.2-1.1,0.8
		c0.4-0.1,0.7-0.3,1.1-0.4c0.8,0.2,1.1,1.2,2,1.3c1.6,0.1,3.3,0.3,4.6,1.3c0.7,0.6,0.9,1.6,1.5,2.4c0.6,0.7,1.6,0.7,2.2,1.2
		c0.5,0.8,0.1,2,0.8,2.7c0.3,0.3,1,0.3,1.3,0c0.6-0.4,1.1-0.9,1.8-1.1c0.4,0.1,0.9,0.2,1.2,0.5c0.6,0.5,0.5,1.4,0.7,2.1
		c0.1,0.8,0.6,1.3,1,1.9c-1.4-0.7-1.9-2.5-3.3-3.1c-0.7-0.2-1.3,0.5-1.7,1.1c-0.7,0.9-1.7,1.7-2.9,1.8c-0.8,0-1.4-0.5-1.8-1
		c-0.1-0.9,0.2-1.8,0.6-2.6c0.3-0.5,0-1.1-0.3-1.5c-1.2,0.1-2.2,1.1-3.5,1.2c-1.4,0.1-2.6-0.8-3.5-1.7c-0.3-0.2-0.5-0.6-0.9-0.7
		c-0.5,0.6-0.8,1.3-1.3,1.9c0-1.2,0-2.5,0-3.8c-1.2-0.7-2.1-2-2-3.5c0.2-0.9-1-1.1-1.2-2c-0.4-1.6-1.9-2.4-3.3-3
		c1.1-0.3,2,0.3,2.9,0.9c0.9,0.6,2.3,0.7,3.1-0.1s1-1.9,1.6-2.8c0.3-0.5,1-0.8,1.2-1.4c-1.5,0.4-1.9,2-2.5,3.2
		c-0.3,0.7-1,1.2-1.8,1.3c-1.4-0.1-2.4-1.6-3.9-1.5c-0.5,0-0.8,0.4-1,0.8c-1.6,0.2-3.2,0.7-4.4,1.8c-0.9,1-0.5,2.4-0.2,3.6
		c0.2,1.2,1.3,1.9,1.5,3.1c0.3,1.5,1.6,2.5,2.7,3.4c-1,0.3-2.2,0.5-3.1-0.1C165.5,23,165.1,22.4,164.9,21.7z M180.5,11.6
		c-0.8-0.3-1.6-0.2-2.4,0.1c0.2-0.9-0.1-2.2,1.1-2.5c0.4,0,0.9,0.3,1,0.7C180.3,10.5,180.2,11.1,180.5,11.6z M169.3,23.9
		c-0.1,0.2-0.2,0.4-0.3,0.6c-0.9,0.3-1.9,0.3-2.7-0.3C167.3,24,168.3,24.2,169.3,23.9z M164,27.4c0.7-0.2,1.5-0.1,2.2,0
		c-0.3-0.9-0.6-1.9-0.3-2.9c0.8,0.5,1.8,0.6,2.7,0.4c-0.3,1.2,0.5,2.3,0.4,3.5c0.1,1.3-0.6,2.7-1.9,3c-1,0.3-2,0.8-3.1,0.5
		c-0.9-0.5-1.6-1.4-1.7-2.5C162.3,28.5,163.1,27.6,164,27.4z M173.6,32.7c1-0.2,1.3-1.1,1.9-1.7c0.3-0.4,1-0.2,1.5-0.2
		c-0.4,0.1-0.8,0.1-1.2,0.3c-0.7,0.5-1,1.3-1.6,1.7c-0.5,0.2-1.4,0.3-1.7-0.3c-0.3-0.7-0.2-1.5-0.6-2.2c-0.5-0.8-1.5-1.1-2.4-0.8
		c0-0.7,0-1.4,0-2.1c1.2,0,2.6,0.4,3.2,1.6c0.5,0.8,0.1,1.9,0,2.8C172.6,32.4,173.2,32.7,173.6,32.7z M170.9,30
		c1.1,0.7,0.4,2.3,1.4,3c0.9,0.7,1.9-0.2,2.9-0.2s2-0.7,2.9-0.2c1.4,0.6,1.3,2.5,2.6,3.3c-0.9-0.1-1.7-0.6-2.2-1.3
		c-0.4-0.6-1-1-1.7-1.2c-1.3,0.5-3,1.2-4.3,0.2c-0.9-0.5-0.7-1.9-1.6-2.5c-0.7-0.3-1.6,0-2.4,0c0.4-0.4,0.7-0.9,1-1.3
		C170.1,29.8,170.7,29.7,170.9,30z M164.3,100.3l0.3-0.4c0.5-1,1.2-2,1.6-3.1c0.3-0.7,0.1-1.5-0.1-2.2c-1.2-4-2.2-7.9-2.6-12
		c0-1.5-0.3-2.9-0.1-4.4c0.1-1,0.1-2.1,0.1-3.1c0.3-3.6-0.3-7.2-0.7-10.8c-0.1-1.5-0.3-2.9-0.2-4.4c0.2-1.6,0.3-3.2,0.1-4.8
		c1.7-1.9,2.9-4.2,4.2-6.4c1.2,0.1,2.7-0.3,3.3-1.5c-1,0.5-1.9,1.2-3,1.1c0.5-0.9,1.1-1.9,1.7-2.8c1.1,0,2.1-0.3,3.1-0.7
		c0.9-0.4,2,0,3-0.3c0.6-0.2,1.4-0.4,1.6-1.1c-0.8-0.5-1.8-0.3-2.7-0.4c0.8-0.1,1.7,0.2,2.5-0.3c-1.4-0.4-2.9,0-4.3,0.3
		c1.2,1,2.8,0,4.1,0.5c-0.6,0.4-1.2,0.7-1.8,0.7c-0.9,0.1-1.8-0.1-2.6,0.3c-1,0.5-2.2,0.6-3.3,0.8c-0.9,1.4-1.8,2.9-2.7,4.4
		c-1,1.6-1.9,3.3-3.1,4.8c-1.4,1.6-3.2,3-4.9,4.3c-0.4,0.3-0.8,0.6-1.3,0.6c-0.5-0.1-0.6-0.6-0.8-1c-0.7-2-1.4-4.1-1.3-6.2
		c0-3.5,1.6-6.6,2.2-9.9c0.6-2.7,0.8-5.7,2.3-8.1c0.8-1.4,2.1-2.3,3.4-3.2c0.7,0.8,1.7,1.7,2.9,1.4c1.8-0.5,3.5-1.1,5.3-1.1
		c0.8,0.3,0.8,1.2,1.1,1.8c0.6,0.9,1.6,1.6,2.7,1.5c1,0.1,1.8-0.7,2.8-0.6c1,0.3,1.3,1.5,2.2,1.9c0.8,0.4,2.1,0.8,2.8,0
		c-0.5-0.2-1.1-0.2-1.5-0.6c-0.8-0.9-0.9-2.3-2.1-2.9c-1.2-0.7-2.4,0.1-3.6,0.3c0.3-0.5,0.6-1,1-1.3c0.6-0.4,1.4-0.1,2-0.1
		c-0.4-0.7-1.1-1.2-1.9-1.1c-1.3,0.2-1.4,2.1-2.8,2c0-1.1,0.6-2.3,0-3.3c-0.7-1.4-2.4-2-3.9-2c-0.1-0.5-0.3-1-0.2-1.5
		c0.2-0.6,0.4-1.1,0.5-1.7c0.9,0.6,1.7,1.6,2.9,1.6c1.3-0.3,2.2-1.5,3-2.5c0.3-0.3,0.4-0.8,0.6-1.1c-0.4,0.9-0.1,1.9-0.3,2.8
		c-0.1,1.2-0.5,2.2-0.8,3.3c1.9,2.9,5.4,4.3,7.1,7.4c1.3,2.2,1,5,2,7.3c1.4,3.3,2.7,6.7,3.7,10.2c0.4,1.7,1.2,3.2,1.5,4.9
		c0.8,3.9,0.3,8-1.4,11.6c-0.7,1.4-1.5,2.9-2.2,4.4c-0.4,1-1.4,1.8-1.7,2.9c-0.4,1.4-1.7,2.4-2.2,3.7c-0.2,0.5-0.4,1.3-1.1,1.5
		c0.3-0.9,0.8-1.7,0.7-2.6c-0.8,0.5-1.3,1.3-2,1.9c-0.3-0.1-0.6-0.1-0.8-0.2c0.5-0.7,1.3-1.1,1.5-1.9c-1.1,0.6-1.6,1.9-2.8,2.1v-0.3
		c0.5-0.9,1.6-1.6,1.7-2.7c-1.2,1.1-1.8,2.8-3.3,3.5c0.1-1.1,0.9-1.8,1.5-2.7c0.6-0.8,0.7-1.9,1.3-2.7c0.4-0.7,0.9-1.3,1.2-2
		c-1.1,0.6-1.5,1.9-2.2,2.8c-0.2,0.3-0.7,0.3-1,0.4c0.4-0.8,0.8-1.6,1.3-2.3c0.7-0.8,1.5-1.5,2.5-2.1c0.7-0.3,1.4-0.3,2.1-0.5
		c0.8-1.4,1.3-2.9,1.6-4.4c0.5-3.2-0.5-6.3-0.3-9.4c0-1.1,0.3-2.1,0.7-3c-0.6-0.9-1.6-1.5-2.1-2.5c-0.9-1.7-1.6-3.6-1.4-5.6
		c0.5-0.6,1.1-1.3,1.1-2.2c0.1-0.9-0.3-1.7-0.3-2.6c0.3-0.9,1-1.6,1.2-2.5c-0.8,0.5-1.1,1.4-1.5,2.2c-0.2,0.6,0.1,1.2,0.2,1.7
		c0.5,1.7-0.8,3.7-2.5,3.9c-1.2,0.2-2.8-0.2-3.5-1.3c-0.5-0.6-0.4-1.6-1.2-1.9c0.2,1.5,1.2,3.2,2.9,3.5c1,0.4,2.1,0.1,3.1-0.3
		c-0.2,2-0.5,3.9-0.6,5.8c0.3,0.8,1.2,1.3,1.7,2c0.6,0.8,1.3,1.6,1.7,2.6c0,3.7,1.2,7.6,0,11.3c-0.6-0.1-1.1-0.2-1.7-0.3
		c0.4-0.8,1-1.6,1.2-2.5c-0.9,0.6-1.2,1.6-1.7,2.5c-2.8-0.2-5.8,0.9-7.7,3c-1-0.5-1.8-1.3-2.9-1.6c0.6,0.8,1.6,1.2,2.5,1.8
		c0,0.3-0.3,0.6-0.4,0.9c-0.8,1.4-1.1,3.4-0.3,4.9c0.4,0.8,1.2,1.1,1.9,1.5c-0.5,0.7-0.5,1.4-0.5,2.2c0.5,0.5,1.1,0.9,1.8,1
		c0.2,5.6-1,11.2-3.4,16.3c-0.2,0.6-0.2,1.3-0.4,2c-0.4,1-1.2,1.8-1.9,2.5c-0.5,0.5-0.8,1.1-1.1,1.8c-0.7,1.8-1,3.6-1.6,5.4
		c-0.5,1.7-1.7,3.1-2.2,4.8c-0.7,2-1.1,4.2-1.9,6.2c-0.3,0.7-0.3,1.4-0.4,2.1c-0.2,0.4-0.7,0.8-0.8,1.3c-0.2,0.7-0.3,1.4-0.7,1.9
		c-0.7,1.1-1.7,1.8-2.5,2.8c-0.5,0.6-0.7,1.4-1.1,2c-0.4,0.4-0.9,0.5-1.3,0.9c-0.4,0.4-0.8,0.9-1.4,1.2c-0.4,0.1-0.8,0-1.2,0
		c0.6,0,1.3-0.3,1.4-1c-0.2-0.2-0.3-0.4-0.5-0.6c0.5-0.5,1.2-0.9,1.3-1.6c-1.1,0.7-1.9,1.8-2.9,2.6c-0.1-0.1-0.4-0.2-0.5-0.3
		c0.6-1,1.8-1.5,2.1-2.6c-0.8,0.6-1.4,1.3-2.1,1.9c0.1-1.1,1.4-1.6,1.8-2.6c-0.7,0.2-1.1,0.8-1.6,1.2c0.2-1.1,1.4-1.6,1.7-2.7
		c-0.3,0.3-0.7,0.5-1,0.8c0.3-0.9,1.1-1.6,1.7-2.3c1.1-1.1,2.1-2.3,3.2-3.4c0.5-0.5,1.1-0.9,1.4-1.5c-0.4,0.2-0.7,0.3-1,0.5
		c1.3-3.1,1.9-6.6,1.5-9.9c-0.1-1.2-0.1-2.5,0.1-3.7C160.6,105.8,162.9,103.2,164.3,100.3z M183.5,57.8c-0.7-1.1-1.4-2.1-2.3-3
		c-0.3-0.3-0.7-0.6-0.9-1c0-1.3,0.2-2.6,0.3-3.9c0.5,1.4,0.9,2.7,1.7,3.9c0.4,0.7,1.1,1.2,1.7,1.8C183.9,56.3,183.5,57,183.5,57.8z
		 M153.4,133.8c0.2-0.2,0.5-0.4,0.7-0.6c0.1,0.1,0.4,0.2,0.5,0.3C154.2,133.7,153.9,134.2,153.4,133.8z M160.5,100.6
		c1.1,0,2.1-0.3,3.1-0.7c0,1-0.7,1.7-1.1,2.5c-1.1,1.8-2.3,3.6-2.8,5.7c-0.5,2.5,0.1,5.1-0.2,7.7c-0.8-4.4-2-8.7-2.3-13.2
		c0-0.9-0.2-1.8-0.2-2.7C158.1,100.2,159.3,100.5,160.5,100.6z M154.7,100.1c0.6-0.3,1.2-0.4,1.9-0.4c0.1,1,0.2,1.9,0.2,2.9
		c0.4,4.3,1.4,8.6,2.3,12.9c0.2,0.9,0.5,1.8,0.3,2.7c-0.4,1.7-0.8,3.4-1.6,4.9c-3.2-7.2-6.1-14.8-7-22.7
		C152.1,100.3,153.5,100.7,154.7,100.1z M150.2,100.5c1.2,8,3.9,15.7,7.3,23c-0.7,0.8-1.4,1.6-2.2,2.4c-4.4-7.5-8.3-15.5-10.3-24.1
		C146.9,102,148.7,101.4,150.2,100.5z M144.6,101.8c2,8.7,5.8,16.9,10.5,24.4c-0.9,1-2,1.9-2.4,3.2c-5.2-6.5-8.6-14.3-11.6-22
		c-0.5-1.2-1-2.5-1.5-3.8C141.3,103,142.8,102.2,144.6,101.8z M139.3,103.9c3.2,8.5,6.5,17.1,12,24.4c0.4,0.6,0.9,1.1,1.4,1.7
		c-0.2,0.3-0.4,0.7-0.6,1c-6.9-7.5-12.4-16.2-16.4-25.5C137.1,105.3,138.1,104.3,139.3,103.9z M133,106.7c1-0.1,1.1-1.4,2.2-1.6
		c3.5,8.2,8.1,16,13.9,22.9c0.9,1.2,2,2.3,3,3.5c-0.1,0.5-0.3,0.9-0.3,1.4c-9-6.5-15.9-15.6-21-25.4
		C131.5,107.1,132.2,106.8,133,106.7z M130.6,108c5.1,9.8,12,18.9,21,25.4c1.2,1.1,2.8,1.7,4.1,2.6c-1.2-0.2-2.4-0.2-3.6-0.5
		c-2.6-1.8-5-3.8-7.3-5.9c-2.4-2.2-4.8-4.3-7.1-6.6c-3.9-3.8-7.6-7.9-10.3-12.6C128.7,109.9,129.6,108.8,130.6,108z M125.8,112.7
		c0.4-0.7,0.7-1.5,1.2-2.2c1.5,2.5,3.2,5,5.1,7.2c2.3,2.7,4.9,5.2,7.4,7.6c3.8,3.5,7.6,7.1,11.8,10.1c-1.1-0.2-2.4-0.1-3.2-1
		c-7.8-6.9-17.1-12-24.1-19.7C124.6,114,125.4,113.5,125.8,112.7z M123.8,115.1c7.1,7.6,16.3,12.7,24,19.6c-1.9-0.6-3.7-1.5-5.3-2.7
		c-6.8-4.4-13.6-8.8-19.6-14.2C123.5,117,123.9,116.1,123.8,115.1z M122.4,117.9c6.6,5.9,14.1,10.6,21.4,15.4
		c-0.4,0-0.9,0.1-1.4-0.1c-6.9-2.9-13.4-6.4-19.5-10.7c-0.5-0.2-0.1-0.8-0.1-1.1C123.1,120.2,122.2,119.1,122.4,117.9z M122.4,122.8
		c0.3,0,0.6,0.3,1,0.5c5.9,4.1,12.3,7.5,18.9,10.3c-1.3,0.1-2.6,0.5-3.9,0.7c-5.7-1.7-11.1-4.1-16.1-7.2c-0.2-0.8-0.4-1.6-0.4-2.4
		C121.9,124.1,122.2,123.4,122.4,122.8z M177.2,143.1c-0.6-1.7-1.1-3.5-1.7-5.2c-0.1-0.3-0.3-0.6-0.6-0.7c0.1,0.7,0.4,1.3,0.6,2
		c0.5,1.4,0.8,2.8,1.4,4.1c-0.8,0.2-1.5,0.3-2.2,0.5c0.1-1.9-0.1-3.8-0.4-5.7c0-0.4-0.2-0.7-0.5-0.9c0,0.9,0.2,1.7,0.3,2.6
		c0.2,1.3,0.1,2.6,0.1,3.9c-1,0.1-1.9,0.1-2.9,0.1c1.1-2,1.7-4.3,1.8-6.6c-0.2,0-0.4,0.2-0.4,0.5c-0.1,2-0.7,4.1-1.8,5.9
		c-0.5,0-1,0-1.5,0c1.1-1.8,1.7-3.8,2.2-5.8c0.1-0.4,0.1-0.7,0.1-1c-0.2,0.2-0.4,0.5-0.5,0.8c-0.5,1.9-1,4-2.2,5.7
		c-0.7,0.1-1.4-0.2-2-0.4c1.5-2,2.9-4.1,3.6-6.5c-0.6,0-0.6,0.7-0.8,1.1c-0.5,1.4-1.4,2.6-2.2,3.9c-0.3,0.5-0.6,0.9-1,1.3
		c-1.1-0.1-2.1-0.8-3.1-1.1c1.6-1.1,3.3-2.3,4.5-3.9c0.5-0.7,1.2-1.3,1.3-2.2c-0.4,0.3-0.6,0.7-0.9,1.1c-1.4,2-3.3,3.5-5.3,4.8
		c-1.2,0.7-2.5,1.3-3.8,1.5c-2.9,0.6-5.8-0.1-8.4-1.1c-4.3-1.6-8.3-4.3-12.9-5.1c-2.9-0.5-6-0.3-8.7-1.8c-2-1.1-3.3-3.1-4.9-4.7
		c-0.7-0.9-1.6-1.6-2.1-2.7c4.8,2.9,9.8,5.2,15.1,6.8c-1.6,0.2-3.1,0.9-4.8,0.8c-0.6,0-1.3-0.1-1.9-0.2c0.7,0.9,2,0.7,3,0.6
		c2.8-0.5,5.6-1.1,8.4-1.7c1-0.2,2-0.6,2.9,0c3.2,1.9,7,1.9,10.6,2.3c-1.6,1-3.1,2.3-5,2.5c-2.1,0.1-4.1-1.2-5.3-2.9
		c-0.4-0.8-1.3-1.4-2.3-1.2c-2,0.3-4,0.6-5.9,1c0,0.1-0.1,0.3-0.2,0.4c2.2-0.3,4.4-0.9,6.7-0.9c0.7,0,1.1,0.7,1.5,1.2
		c1.2,1.6,3.2,2.9,5.3,2.8c2.1,0.1,3.6-1.4,5.2-2.4c1.2-0.9,2.6-1.5,4.1-1.4c0.5,0.1,0.9,0.1,1.3-0.1c-0.8-0.3-1.8-0.3-2.7-0.1
		c-0.7-0.5-1.3-1.1-1.9-1.7c0.4-0.3,0.9-0.5,1.3-0.8c0.3-0.4,0.4-0.9,0.6-1.4c0.8,1.1,1.6,2.1,2.4,3.2c0.3,0.4,0.6,0.7,1,0.9
		c-0.7-1.7-2.2-2.8-3-4.4c0.4-0.7,1-1.2,1.6-1.7c1,1.6,1.8,3.3,2.8,4.9c0.1,0.2,0.3,0.4,0.6,0.6c-0.2-0.5-0.4-0.9-0.7-1.4
		c-0.9-1.5-1.7-2.9-2.5-4.4c0.6-0.7,1.1-1.4,1.4-2.2c0.8,1.9,1.4,3.8,2,5.6c0.2,0.5,0.4,1,0.5,1.5c1.6-0.7,3.1-1.5,4.8-1.7
		c0.5,0.2,0.9,0.7,1.3,1.1c0.6,0.5,0.7,1.4,1.3,2c0.6,0.4,1.5,0.6,2,1.2c0.5,0.5,1.2,0.8,1.9,0.7c0.9,1.9,2,3.9,3.6,5.4
		C178.6,142.7,177.9,143,177.2,143.1z M183.4,138.5c-0.8-0.1-1.2-0.3-2-0.4c0.6,0.7,1,0.6,1.8,1c-0.5,0.6-0.9,1.4-1.6,1.7
		c-1.5-1.1-2.3-2.2-3.4-3.7c-0.2-0.3-0.6-0.5-0.9-0.6c1.2,1.9,2.3,3.1,4,4.6c-0.5,0.4-1,0.8-1.6,1c-1.7-1.4-2.1-3.2-3.3-5
		c0.6-0.5,1.1-1,1.8-1.3c0-0.2,0-0.5,0-0.6c-0.4-0.4-0.3-1.1-0.5-1.6c-0.1-0.5-0.2-1-0.3-1.5c0,0-0.1-0.1-0.1-0.3
		c-0.1-2.4,0.1-4.7,0.2-7.2c0.8-8.1,2.7-16.1,6-23.6c1.5,0.4,3.1,0.5,4.7,0.7c-2.2,3.3-3.4,7-4.5,10.8c-1.7,5.6-2.9,11.4-3.8,17.2
		c-0.1,0.9-0.3,1.9-0.3,2.9c0,0,0.1,0.1,0.2,0.1c0.1-0.3,0.2-0.5,0.2-0.8c0.7-5.6,1.8-11.2,3.3-16.7c1.3-4.6,2.6-9.3,5.2-13.4
		c1.3,1.5,3.5,2.2,5.4,1.5c-1.5,1.7-2.5,3.7-3.5,5.7c-2.1,4.2-3.8,8.5-5.4,12.9c-1.4,3.7-2.3,7.6-3.7,11.3c-0.4,0-1-0.6-1.3-0.2v0.1
		c1,0.5,2.1,0.8,3.1,1.3c2.1,0.9,3.8,1.6,5.7,2.8c0.3,0.2,0.6,0.3,1,0.4C187.6,137.8,185.4,137.8,183.4,138.5z M192.5,135.7
		c0.1-0.3,0.1-0.3,0.1-0.6c1-0.5,2-0.7,3.1-0.7c0.9-0.1,1.8,0.3,2.8,0.3c0,0,0.2-0.1,0.3-0.2c-2-0.4-4.2-0.9-6.1,0.1
		c-0.6,0.3-0.7,0.9-0.7,1.5c0.4,0.3,0.5,0.4,0.7,0.9c-0.9,0.3-1.9,0.5-2.9,0.6c-0.5-0.7-0.9-0.7-1.5-1.1c-1.5-0.9-3-1.6-4.5-2.3
		c2.9-0.3,5.7-1,8.6-1.3c0.1-0.1,0.1-0.3,0.1-0.4c0-0.1,0-0.2,0-0.3c0.3-0.1,0.5-0.2,0.8-0.3c6.8-4.1,13.3-8.2,20.7-11.1
		c0.6,1.3,0.1,2.5,0.2,3.9c-6.8,1.8-13.3,4.3-19.6,7.3c-0.7,0.1-1.2,0-1.8,0.3c0.2,0.5,1,0,1.5,0.3c2.8,1,5.1,1.5,8,1.8
		c1.3,0.2,2.5,0,3.7,0.2C201.5,136,197.1,134.6,192.5,135.7z M211.8,132.4c-1.5,1-3.5,1.2-5.1,2.1c-0.6-0.4-1.3-0.3-2-0.3
		c-2.4,0.1-4.6-0.4-6.9-0.9c5.2-2.1,10.8-3.3,16.4-3.6C213.5,130.7,212.8,131.7,211.8,132.4z M214.5,129.2c-1.5,0.3-3,0.3-4.4,0.5
		c-4.5,0.6-8.8,1.7-13,3.4c-0.8-0.3-0.9-0.4-1.7-0.7c6.3-3,12.2-5.5,18.9-7.2c0.3,0.6,0.6,1.2,0.8,1.9
		C215.2,127.8,214.8,128.5,214.5,129.2z"/>
	<path d="M177,14c0.4-0.7,1.3-0.7,1.9-0.3c0.5,0.3,0.9,0.8,1.4,1.2c0.4,0.2,0.9,0.1,1.4,0.2c-0.2,0.2-0.4,0.5-0.8,0.4
		c-1,0-1.5-1.1-2.3-1.5C178.1,13.9,177.6,14,177,14z"/>
	<path d="M171.7,14.5c0.3-0.1,0.6,0.1,0.9,0.3c-0.5,0.1-1.1,0.1-1.6,0.3s-0.9,0.6-1.4,0.9C169.8,15,170.9,14.6,171.7,14.5z"/>
	<path d="M170.8,16.1c0.7-0.6,2.1-0.9,2.6,0.3c-0.3,0-0.7,0-1,0.1c0.2,0.1,0.4,0.2,0.7,0.3c-0.7,0.6-1.7,0.7-2.6,0.6
		c0-0.1,0.1-0.4,0.1-0.6s0-0.3,0.2-0.2C170.6,16.2,170.7,16.2,170.8,16.1z"/>
	<path d="M168.8,17.8c0.1-0.2,0.2-0.3,0.4-0.3c0.6,1,0.8,2.1,1,3.2c0.5-0.2,1-0.3,1.4-0.5c-0.3,0.5-0.8,1-1.5,0.8
		c-0.4,0-0.4-0.5-0.5-0.7C169.6,19.4,169.4,18.5,168.8,17.8z"/>
	<path d="M171.6,19.5c0.4-0.2,0.7,0.6,0.3,0.8C171.6,20.3,171.5,19.8,171.6,19.5z"/>
	<path d="M178.4,19.8c0.9,0.7,1.2,2,2.3,2.3c1,0.4,1.9-0.4,2.7-0.9c1.3-0.9,3.1,0.2,3.6,1.6c0.4,1.1-0.4,2.6,0.7,3.5
		c0.5,0.4,1-0.2,1.5-0.4c0,0.8-1,1.2-1.6,0.7c-1.3-0.8-0.8-2.5-0.9-3.8c-0.4-0.7-1-1.5-2-1.5c-1.3-0.2-2,1.4-3.3,1.3
		C179.9,22.5,178.6,21.2,178.4,19.8z"/>
	<path d="M171,21.5c0.7-0.3,1.5-0.1,2.3-0.2c-0.2,0.3-0.4,0.7-0.6,1.1c-0.1,0.1-0.3,0.3-0.4,0.4c-0.4,0.1-0.9,0.3-1.3,0.3
		c-0.3-0.1-0.6-0.3-1-0.5C170.4,22.1,170.6,21.6,171,21.5z"/>
	<path d="M167.1,26.8c0.5,0.3,0.4,0.9,0.4,1.4c0.1,0.9-0.6,1.6-1.3,2s-1.7,0.1-2-0.7c-0.2-0.4,0.2-0.7,0.4-1c0,0.4,0,0.8,0.1,1.2
		c0.6,0.3,1.3,0.4,1.8-0.2C167.3,29,167.1,27.8,167.1,26.8z"/>
	<path d="M196.3,28.1c0.3-0.2,0.6,0.3,0.3,0.5C196.3,28.9,195.9,28.3,196.3,28.1z"/>
	<g>
		<path d="M169.7,37.9c0.6-0.7,1.1-1.5,2-1.8c0.7,0.2,0.6,1.1,0.5,1.7c1.2-0.5,2.6-0.7,3.9-0.5c0.4,0.1,0.9,0.3,0.7,0.8
			c-0.5,0.8-1.6,0.8-2.4,0.9c-0.7,0-1.3,0.5-1.9,0.9c1.8,0,3.8-0.2,5.4,0.8c0.5,0.5-0.3,0.9-0.7,1.1c0.4,0.2,1,0.4,0.9,0.9
			c-0.4,0.6-1.1,0.3-1.7,0.2c0-0.1,0-0.2,0.1-0.3c0.4,0,0.9,0.1,1.3,0.1c-0.4-0.6-1.1-0.8-1.8-1c-1.4-0.4-2.8,0.3-4.2,0.1
			c0.6-0.6,1.5-0.4,2.3-0.6c1.2-0.4,2.5,0.6,3.6-0.2c-1-0.5-2.1-0.8-3.2-0.8c-1.1-0.1-2.3,0.2-3.4-0.1c0.8-0.5,1.6-1.2,2.5-1.6
			c0.9-0.3,2.2,0.1,2.7-0.9c-1.2,0-2.6-0.2-3.7,0.3c-1,0.4-2.1,0.7-3.2,1c-0.6,0.1-1.2,0.5-1.6,1c-1.5,1.7-2.9,3.5-4.3,5.4
			c-1.4,1.8-3.1,3.4-4.9,4.8c-0.6,0.5-1.1,1-1.8,1.3c0.3-0.7,1-1.1,1.5-1.6c1-0.8,2-1.5,2.8-2.5c0.6-0.9,0.9-2,1.1-3.1
			c0.3-1,0.1-2,0.2-3c0.2,0.3,0.5,0.6,0.4,1c0.1,1.4-0.4,2.8-0.7,4.1c1.8-2.1,3.4-4.4,5.3-6.5C168.1,39.1,169.1,38.7,169.7,37.9z
			 M169.8,38.5c0.5-0.1,1.1-0.2,1.6-0.4c0.3-0.5,0.5-1,0.5-1.5C170.9,36.7,170.5,37.8,169.8,38.5z"/>
	</g>
	<g>
		<path d="M179.2,44.5c0.6-0.2,0.8,0,1.1,0.3s0.4,0.6,0.3,1.1c-0.1,0.4-0.5,0.7-1,0.7s-0.9-0.4-1-0.9
			C178.5,45.3,178.6,44.8,179.2,44.5z M179.1,45.1c-0.2,0.1-0.2,0.5-0.1,0.6c0.3,0.5,0.7,0.3,0.9,0.2c0.3-0.2,0.2-0.7,0-0.8
			C179.7,44.9,179.3,44.9,179.1,45.1z"/>
	</g>
	<path d="M173.5,48.3c0.5,0.3,0.4,0.9,0.4,1.3c0.1,1.9-0.3,3.9,0.4,5.8c-0.3,0-0.4-0.1-0.5-0.4c-0.5-1.1-0.3-2.4-0.3-3.6
		C173.6,50.3,173.3,49.3,173.5,48.3z"/>
	<path d="M178,53.4c0,0,0.1-0.1,0.2-0.1c0.3,0.7,0.3,1.6,0.8,2.2c0.4,0.5,0.9,1,1,1.7C178.9,56.3,177.8,55,178,53.4z"/>
	<path d="M169,56.6c0.1-0.3,0.3-0.6,0.6-0.8c-0.2,1.2-0.8,2.3-0.8,3.6c-0.1-0.1-0.3-0.1-0.4-0.2C168.4,58.3,168.7,57.4,169,56.6z"/>
	<path d="M173.8,57.7c0.2-0.6,0.8-0.5,1.3-0.4c-0.2,0.2-0.5,0.4-0.7,0.5c0,0.2-0.1,0.4-0.1,0.6C174.1,58.2,174,58,173.8,57.7z"/>
	<path d="M191.4,57.4c0.7,0.4,1.1,1.2,1.5,1.9c1.6,2.8,2.2,6.2,1.7,9.5c-0.3-0.4-0.3-0.9-0.2-1.3c0.2-3.2-0.7-6.5-2.5-9.1
		C191.6,58,191.4,57.7,191.4,57.4z"/>
	<path d="M178.3,65.5c0.6-0.5,1.1-1.3,1.8-1.8c-0.1,0.8-0.7,1.2-1.2,1.8c-1.2,1.2-2.9,2-4.6,2c0.2-0.3,0.5-0.4,0.9-0.5
		C176.3,66.7,177.4,66.2,178.3,65.5z"/>
	<g>
		<path d="M176.9,72.1c0.3-0.2,0.6-0.4,0.9-0.5c-0.5,0.7-1.3,1.3-1.6,2.2c-0.4,1.3-0.3,3-1.7,3.8c-0.5,0.1-0.9-0.7-0.6-1.2
			C174.5,74.8,175.6,73.3,176.9,72.1z M174.3,77c0.5,0.2,0.8-0.5,0.9-0.8c0.2-0.8,0.3-1.6,0.6-2.4C175.2,74.8,174.3,75.8,174.3,77z"
			/>
	</g>
	<path d="M178.1,81.7c0.7,0.4,1.1,1.4,2,1.4c0.8,0.1,1.6-0.3,2.4,0c0.8,0.3,1.4,1,1.7,1.8c-0.7-0.2-0.9-0.9-1.5-1.3
		c-1.1-0.6-2.4,0.3-3.4-0.4C178.6,82.9,178.2,82.3,178.1,81.7z"/>
	<path d="M177.4,83.1c0.6,0.2,0.8,0.9,1.4,1.1c0.6,0.3,1.4,0.2,2.1,0.3c-0.5,0.7-1.6,0.4-2.2,0.1C178.1,84.3,177.4,83.9,177.4,83.1z
		"/>
	<path d="M166.9,100.3c0.1-0.7,0.2-1.5,0.9-1.9c-0.2,1.1-0.8,2.2-0.3,3.3c0.3,0.7,1,1.5,0.3,2.2
		C167.8,102.7,166.6,101.7,166.9,100.3z"/>
	<path d="M172.2,103.8c0.7,0.2,1.1,0.9,1.8,1.2c0.5,0.1,0.9,0.1,1.4,0.1c-0.2,0.2-0.4,0.5-0.8,0.4
		C173.5,105.4,172.6,104.7,172.2,103.8z"/>
	<path d="M166.7,125.8c0.7,0.3,0.1,1.1-0.4,1.3C166.5,126.7,166.6,126.2,166.7,125.8z"/>
	<path d="M162,136.1c1-0.1,1.9-0.6,2.8-0.9c-0.3,0.7-1,0.9-1.7,1.1c-1.7,0.5-3.6,0.2-5.3,0.8c-1.9,0.5-3,2.5-5,3
		c-2.2,0.7-4.4-0.1-6.2-1.4c-0.3-0.2-0.5-0.5-0.7-0.7c0.8,0.1,1.3,0.7,2,1c1.4,0.8,3.1,1.3,4.7,0.8c2-0.4,3.1-2.3,4.9-3
		C158.9,136.2,160.5,136.3,162,136.1z"/>
</g>
</svg>
