<?xml version="1.0" encoding="utf-8"?>
<!-- Generator: Adobe Illustrator 26.0.3, SVG Export Plug-In . SVG Version: 6.00 Build 0)  -->
<svg version="1.1" id="Слой_1" xmlns="http://www.w3.org/2000/svg" xmlns:xlink="http://www.w3.org/1999/xlink" x="0px" y="0px"
	 viewBox="0 0 239.5 150.2" style="enable-background:new 0 0 239.5 150.2;" xml:space="preserve">
<g>
	<path d="M177.8,43.1c-1.4-0.6-2.9-1.1-4.2-1.8c-1.1-1.2-2-2.5-3-3.7c-1,1-2,2.2-3,3.2c-0.5,0.5-0.5,1.2-0.7,1.8
		c-0.4,1.4-1.6,2.4-3,2.8c-1.9,0.6-4,0.4-5.9,0.1c-1.6-0.1-3.1,0.2-4.7,0.3c5.9-3.1,11.8-6.3,17.7-9.4c0.9-0.5,1.7-1.2,2.6-1.8
		c5-3.6,9.9-7.3,14.9-10.8c0.7-0.5,1.3-1.2,1.8-1.9c-1.3,0.7-2.5,1.5-3.8,2.2c-11.1,6.5-22.3,13-33.4,19.5c-0.3,0.2-0.7,0.3-1.1,0.4
		c0.5-0.6,1.3-1,2-1.4c10.7-6.2,21.3-12.4,32-18.6c1.5-0.9,3.1-1.8,4.6-2.7c0.3-1,0.4-2.1,0.1-3.1c-0.5-1.7-1.8-2.9-3.1-4
		c0.2,1.1,0.4,2.2,0.1,3.2c-0.2,0.8-0.8,1.5-1.6,1.9c-6.7,2.6-13.4,5.4-20.2,8c-1.4,0.4-2.1,1.8-3.2,2.6c2.9-4.4,5.9-8.8,8.8-13.2
		c-2.6,1.8-5.3,3.5-8,5.2c-0.3,0.2-0.5,0.4-0.7,0.6c-1.1,1.7-2.1,3.4-3.2,5.1c0.7-1.9,1.4-3.8,2.1-5.7c-1,0.3-1.9,0.6-2.9,1
		c-0.4,0.1-0.6,0.6-0.9,0.9c-1.4,2.1-3,4.2-4.4,6.4c-0.1-0.1-0.2-0.2-0.3-0.3c0.1,0,0.3-0.1,0.4-0.1c1.3-2.8,2.7-5.6,4.1-8.4
		c-5.9,1.3-12.2,1.3-18.1,0c1.5,2.9,3.1,5.8,4.5,8.8c-1.8-2.3-3.6-4.7-5.4-7c-0.9-0.7-2.1-1-3.2-1.5c0.9,2,1.7,3.9,2.5,5.9
		c-1.1-1.5-2.1-3.2-3.2-4.7c-0.4-0.5-0.9-0.9-1.4-1.2c-2.5-1.6-5-3.3-7.5-5c2.9,4.3,5.9,8.6,8.9,13c-1.1-0.8-2-1.8-3.3-2.3
		c-6.6-2.8-13.2-5.7-19.9-8.2c-0.8-0.3-1.4-1-1.7-1.8c-0.4-1.1-0.2-2.3,0-3.4c-1.8,1.4-3.5,3.4-3.3,5.8c0.1,0.7,0.2,1.7,0.9,2
		c12.4,7.2,24.9,14.5,37.3,21.7c0,0.1-0.1,0.2-0.2,0.3c-12.1-7-24.2-14.1-36.3-21.1c-0.3-0.2-0.6-0.3-0.9-0.5c0.7,0.8,1.6,1.4,2.5,2
		c1.5,1,2.9,2.1,4.4,3.2c1.6,1,3.2,2.1,4.7,3.2c3.2,2.1,6.2,4.4,9.5,6.2c5.1,2.9,10.2,5.8,15.3,8.7c-1.6,0-3.1-0.2-4.7,0.1
		c-1.8,0.2-3.7,0.3-5.5-0.3c-1.3-0.4-2.6-1.3-3.2-2.6c-0.3-0.7-0.3-1.5-0.8-2c-0.9-1-1.9-2.1-2.8-3.1c-0.9,1.1-1.7,2.3-2.6,3.4
		c-0.3,0.4-0.7,0.7-1.1,0.8c-1.2,0.5-2.3,1-3.4,1.5c0.7,0.3,1.4,0.8,2.1,1.2c4.8,2.8,9.5,5.6,14.3,8.4c0.8,0.5,1.6,1,2.4,1.4
		c0.3,2.3,0.7,4.6,1,7l0.1,0.1c6-0.1,12,0,18,0c0.1,0,0.2,0,0.2,0c0.3-2.3,0.6-4.6,0.9-6.9c3.8-2.3,7.5-4.6,11.3-6.8
		C172.8,46.2,175.3,44.6,177.8,43.1z M157,54.3c-1.1,0.8-2.2,1.7-3.3,2.5c1.1-0.5,2.1-1.1,3.2-1.7c0,0.1,0,0.3,0,0.5
		c-2.2,1.9-4.9,3.6-7.9,3.9c-2.7,0.2-5.2-1.2-7.4-2.7c-0.6-0.5-1.3-0.8-1.5-1.6c1.2,0.4,2.2,1.1,3.3,1.6c-1.1-0.8-2.3-1.7-3.4-2.6
		c-0.1-0.4-0.1-0.8-0.2-1.2c1.8,1,3.5,2.2,5.4,3.1c1.8,0.1,3.7,0,5.5,0c0.5,0,1,0.1,1.5-0.2c1.7-1,3.3-2,5-3
		C157.2,53.5,157.4,54.1,157,54.3z"/>
	<path d="M116.4,43.3c-1.2-1.9-2.4-3.7-3.6-5.6c-3.2,0.5-6.4,0.9-9.7,1.4C107.6,40.5,112,41.9,116.4,43.3z"/>
	<path d="M181.5,43.3c4.4-1.4,8.8-2.8,13.2-4.2c-3.2-0.5-6.4-0.9-9.6-1.4C183.9,39.6,182.7,41.5,181.5,43.3z"/>
	<path d="M135.6,53.4l-0.2-0.1c-5.3-3-10.6-6.1-15.9-9.1c-8,3.1-15.9,6.1-23.8,9.2C109,53.4,122.3,53.3,135.6,53.4z"/>
	<path d="M170.8,48.5c-2.8,1.6-5.6,3.2-8.5,4.9l0,0c13.3,0,26.5,0,39.8,0c-2.4-1.1-4.9-1.9-7.4-2.9c-5.4-2.1-10.9-4.2-16.3-6.3
		C175.9,45.6,173.3,47.1,170.8,48.5z"/>
	<path d="M137.5,58.1c-2.6-0.7-5.3-1.4-7.9-2.1c-0.4-0.1-0.9-0.2-1.3,0c-3.9,1.5-7.8,3.1-11.7,4.6c-0.9,0.4-2.1,0.5-2.7,1.5
		c-5.2,7.5-10.6,15-15.8,22.5c4.3-2.8,8.5-5.7,12.8-8.6C119.7,70.1,128.6,64.1,137.5,58.1z"/>
	<path d="M183.2,61.3c-1.2-0.5-2.3-0.9-3.5-1.4c-3.4-1.3-6.8-2.7-10.1-4c-0.3-0.1-0.7-0.2-1.1-0.1c-2.7,0.7-5.4,1.4-8.1,2.2
		c9,6.1,18,12.2,27.1,18.2c4.1,2.8,8.2,5.6,12.4,8.3c-5-7.3-10.2-14.5-15.3-21.8C184.2,62.3,183.9,61.6,183.2,61.3z"/>
	<path d="M144.3,64.9c-0.3,1.8-0.4,3.7,0.2,5.4c0.7-1.2,1.3-2.4,1.9-3.6C145.9,65.9,145.2,65.1,144.3,64.9z"/>
	<path d="M124.8,76.3c-0.6,0.3-0.5,1-0.6,1.5c-1.3,6.5-2.5,13.1-3.9,19.6c1.1-1.6,2-3.2,3-4.8c4.9-8,9.7-15.9,14.6-23.9
		c-1.1,0.3-2.3,0.4-3.3,0.8C131.3,71.8,128,74,124.8,76.3z"/>
	<path d="M173.4,76.5c-3.1-2.1-6.2-4.3-9.3-6.5c-1.1-0.9-2.7-1-4-1.3c5.8,9.5,11.6,19,17.4,28.5C176.2,90.3,174.8,83.4,173.4,76.5z"
		/>
	<path d="M141.9,78.7c-0.1-0.6-0.3-1.1-0.2-1.7c0.4,0.6,0.2,1.3,0.3,1.9c0.4,2.8,0.6,5.7,1,8.5c0.2-0.5,0.5-1.1,0.4-1.6
		c-0.2-3.4-0.4-6.7-0.7-10.1c-0.7-1.1-1.5-2.1-2.3-3.1c-0.3,2.8,0,5.5,0.1,8.3c0.4,6,1,12,1.7,18c0.3,0.1,0.6,0.2,0.9,0.2
		C142.8,92.3,142.3,85.5,141.9,78.7z"/>
	<path d="M154.8,75.3c-0.3,0.4-0.3,0.9-0.3,1.4c-0.2,3-0.4,6-0.6,9.1c-0.1,0.6,0.2,1.1,0.4,1.7c0.5-2.9,0.7-5.8,1.1-8.7
		c0.1-0.6-0.2-1.2,0.3-1.7c0.1,0.7-0.1,1.3-0.2,1.9c-0.4,6.7-0.9,13.5-1.3,20.2c0.3-0.1,0.6-0.2,0.9-0.2c0.8-7.2,1.5-14.5,1.9-21.7
		c0-1.5,0.2-3.1-0.2-4.5C156.1,73.5,155.4,74.4,154.8,75.3z"/>
	<path d="M144.7,84.4c0.6,0.6,1.1,1.3,1.7,1.9c1.5,0,2.9,0,4.4,0c0.7-0.9,1.9-1.6,1.8-2.8c0.2-2.7,0.4-5.3,0.6-8
		c-1.5,1.4-3.1,2.8-4.6,4.3c-1.5-1.4-3.1-2.8-4.6-4.2C144.3,78.5,144.5,81.4,144.7,84.4z"/>
	<path d="M150.3,96.2c-0.2-0.2-0.4-0.4-0.5-0.6c-0.3,0.3-0.7,0.6-1.1,0.3c-0.4,0.3-0.7,0-1-0.3c-0.2,0.2-0.4,0.4-0.6,0.6
		c-0.3-0.2-0.6-0.4-0.8-0.5c-0.7,0.8-0.2,2,0,2.9c0.3,0,0.6,0,0.9,0c1,0.2,2.1,0.2,3.1,0c0.3,0,0.6,0,0.9,0c0.2-0.7,0.3-1.4,0.4-2
		c0.1-0.4-0.2-0.7-0.4-0.9C150.8,95.8,150.5,96,150.3,96.2z"/>
	<path d="M152.6,99.4c-1.2,0.5-2.6,0.8-3.9,0.9c-1.3-0.1-2.7-0.4-3.9-0.8c-0.2,0.2-0.5,0.4-0.7,0.6c-0.6-0.1-1.1-0.5-1.7-0.5
		c0.2,1.4,0.4,2.8,0.6,4.2c1.4,0.6,2.9,1.2,4.4,1.3c2.4,0.3,4.9-0.3,7.1-1.3c0.1-1.4,0.4-2.8,0.5-4.2c-0.5,0.1-0.9,0.2-1.3,0.4
		C153.2,100.1,152.9,99.6,152.6,99.4z"/>
	<path d="M186,108.2c1.9,3.3,3.8,6.6,5.8,9.9c1.3-2.3,2.6-4.6,3.9-6.9c-0.4,0-0.8,0-1.3,0c-1,1.5-1.8,3.1-2.7,4.5
		c-0.3-0.1-0.4-0.4-0.5-0.7c-1.1-1.9-2.2-3.8-3.3-5.8c2.8,0,5.7,0,8.5,0c0.6,0,0.7-0.8,1-1.2C193.5,108.2,189.8,108.2,186,108.2z"/>
	<path d="M182.1,38.8c2.1-2.8,3.7-6,5.1-9.2c0.8-2,1.6-4,2.3-6c-0.1,0-0.2,0.1-0.3,0.1c-0.3,0.3-0.8,0.5-0.9,1
		c-2.2,6.7-6.4,12.6-11.5,17.4c0.5,0.2,1.1,0.4,1.6,0.6C179.8,41.6,181,40.2,182.1,38.8z"/>
	<path d="M108.2,23.7c0.7,2.1,1.5,4.2,2.3,6.2c1.3,2.9,2.7,5.8,4.5,8.4c1.2,1.7,2.6,3.3,4.3,4.4c0.6-0.2,1.1-0.4,1.7-0.6
		c-2.8-2.5-5.2-5.4-7.3-8.5c-1.8-2.8-3.4-5.8-4.3-9.1C109,24.3,108.6,24,108.2,23.7z"/>
	<path d="M152.7,84.7c-0.5,0.5-0.9,1-1.4,1.5c-0.2,0.2-0.4,0.4-0.7,0.4c-1.4,0-2.8,0-4.2,0c-0.7-0.5-1.2-1.3-1.8-1.8
		c-0.1,0.8-0.1,1.7,0.4,2.4c0.5,0.7,1.3,1,2.1,1.1c0.8,0,1.2-0.7,1.6-1.3c0.3,0.4,0.5,0.9,0.9,1.1c0.7,0.4,1.5,0,2.1-0.3
		C152.7,87.2,152.9,85.8,152.7,84.7z"/>
	<path d="M99.5,108c2,3.4,3.8,6.8,5.8,10.1c0.7-1.3,1.4-2.5,2.2-3.8c-0.4,0-0.9,0-1.3,0c-0.3,0.5-0.7,0.9-1,1.4
		c-1.3-2.3-2.6-4.5-3.9-6.8c2.7,0,5.4,0,8.1,0c-0.4,0.6-0.7,1.2-1,1.8c-1.1,0-2.2,0-3.3,0c0.2,0.3,0.4,0.7,0.6,1c1,0,2,0,3.1,0
		c0.8-1.2,1.5-2.5,2.2-3.8C107.1,108,103.3,108,99.5,108z"/>
	<path d="M150,134.5c1.2-1.3,2.1-2.8,3.2-4.1c-3.1,0.1-6.1,0.1-9.2,0c0.4,0.8,1,1.4,1.6,2.1c1.8,2.3,3.7,4.7,5.5,7
		c-1.7,0-3.4,0-5.1,0c0.6-0.7,1.1-1.4,1.6-2.1c-0.2-0.2-0.4-1-0.8-0.5c-0.9,1.2-1.8,2.3-2.8,3.5c3,0,6,0,9,0c-2.3-3.1-4.7-6.1-7-9.1
		c1.7,0,3.4,0,5.1,0c-0.5,0.8-1.2,1.5-1.7,2.3C149.5,134,149.8,134.2,150,134.5z"/>
	<path d="M121,41.2c0.3,0.2,0.7,0.5,1.1,0.6c0.2-0.3,0.4-0.6,0.6-0.9c0.3-1.3,0.3-2.7,0.3-4c-1.9-1.5-3.7-3-5.6-4.5
		c-2-1.7-4.1-3.2-6-5c1.3,3.1,3,6.1,5,8.8C117.7,38,119.2,39.8,121,41.2z"/>
	<path d="M175.3,41.4c0.1,0.1,0.4,0.2,0.5,0.2c1.6-1,2.9-2.3,4.1-3.7c2.6-3.2,4.7-6.8,6.3-10.6c-3.7,3-7.4,6-11.1,9
		c-0.2,0.2-0.5,0.3-0.4,0.6C174.7,38.4,174.7,40,175.3,41.4z"/>
	<path d="M147.1,61.8c-2.3,0-4.7,0-7,0c0.5,0.8,1.6,0.4,2.4,0.5c4.3,0,8.6,0,12.9,0c0.6,0,1.2,0,1.8,0c0.1-0.2,0.3-0.3,0.4-0.5
		C154.1,61.9,150.6,61.7,147.1,61.8z"/>
	<path d="M140.8,62.5c-0.5,2.9-0.4,6,0.4,8.9c0.9-2.1,1.9-4.3,2.8-6.4C143.2,63.9,142.3,62.5,140.8,62.5z"/>
	<path d="M153.7,65c0.9,2.2,1.9,4.3,2.8,6.4c0.8-2.9,0.8-5.9,0.4-8.8C155.4,62.4,154.4,63.9,153.7,65z"/>
	<path d="M153.4,65c-1,0.1-1.6,1-2.1,1.8c0.6,1.2,1.2,2.4,1.9,3.6C153.7,68.6,153.7,66.7,153.4,65z"/>
	<path d="M172.2,122c-0.7,1.2-1.3,2.5-2,3.7c0.4,0,0.8,0,1.2,0c0.5-0.3,0.4-1.2,1-1.3c1.2,2.2,2.4,4.4,3.6,6.6c-2.4,0-4.8,0-7.2,0
		c0.3-0.6,0.5-1.2,0.8-1.7c1.1,0,2.1,0,3.2,0c-0.2-0.3-0.5-0.7-0.7-1c-1,0-2,0-3,0c-0.6,1.3-1.3,2.6-2,3.9c3.6,0,7.2,0,10.9,0
		c-1.9-3.4-3.6-6.8-5.5-10.2C172.3,121.9,172.2,122,172.2,122z"/>
	<path d="M146.6,66.7c0,1.2,0.1,2.5,0.8,3.6c0.5-1.1,1-2.3,1.3-3.4C148,66.5,147.3,66.3,146.6,66.7z"/>
	<path d="M151.1,66.7c-0.7-0.3-1.5-0.2-2.1,0.2c0.4,1.1,0.8,2.3,1.3,3.4C151,69.2,151.1,67.9,151.1,66.7z"/>
	<path d="M153.4,99.7c0.5-0.8,0.4-1.8,0.6-2.7c0.1-2.1,0.3-4.3,0.1-6.4c-0.8,1.9-1.5,3.8-2.3,5.7c-0.3,0.6,0.1,1.2,0.3,1.7
		c0.2-0.6,0.4-1.2,0.6-1.9c0,0.9-0.2,1.7-0.3,2.6C152.8,99,153.1,99.3,153.4,99.7z"/>
	<path d="M143.2,95.2c0.1,1.5,0.1,2.9,0.5,4.3c0.5,0.1,0.8-0.6,1.1-0.9c-0.1-0.9-0.3-1.7-0.3-2.6c0.2,0.6,0.4,1.2,0.6,1.8
		c0.3-0.5,0.6-1.2,0.3-1.7c-0.7-1.9-1.6-3.8-2.2-5.7C143,92.1,143.1,93.6,143.2,95.2z"/>
	<path d="M123.1,125.5c0.9,1.8,2,3.5,3,5.2c-2.5,0-5.1,0-7.6,0c1.4-2.6,2.8-5.2,4.2-7.7c0.3-0.4-0.2-0.8-0.4-1.2
		c-2,3.3-3.8,6.6-5.7,9.9c3.7,0,7.5,0,11.2,0c-1.4-2.4-2.7-4.8-4.1-7.3C123.5,124.8,123.3,125.1,123.1,125.5z"/>
</g>
</svg>
