<?xml version="1.0" encoding="utf-8"?>
<!-- Generator: Adobe Illustrator 24.0.2, SVG Export Plug-In . SVG Version: 6.00 Build 0)  -->
<svg version="1.1" id="Слой_1" xmlns="http://www.w3.org/2000/svg" xmlns:xlink="http://www.w3.org/1999/xlink" x="0px" y="0px"
	 viewBox="0 0 238.1 150.2" style="enable-background:new 0 0 238.1 150.2;" xml:space="preserve">
<style type="text/css">
	.st0{fill-rule:evenodd;clip-rule:evenodd;}
</style>
<g id="Слой_x0020_1">
	<path class="st0" d="M127,85.8c0.5,0.2,0.3,0,0.7,0.3c0.4,0.3,0.7,1,0.8,1.5l-1.2-0.2C127.3,86.8,127.3,86.4,127,85.8z M196.6,78.3
		c0.4,0.4,0.9,0.9,1.5,0.6c0,0,0-0.6-1-0.7C196.1,78.1,197,78.1,196.6,78.3z M87.1,137c0.4,0.4,0.3-0.5,0.4,1
		c0.5-0.2,0.1-0.1,0.7-0.4l0.2,0.6c-0.1,0.9,0.1,1.3,0.1,2.1c0,1-0.3,1.3-0.2,2.4c1.4,0.1,0.6-0.2,1.7-0.7c-0.1,1.3-0.2,2.5-0.3,3.9
		c-0.1,1.1-0.5,2.2-0.6,3.4h9.8l0.5-16.4c-0.2,0.2-0.3,0.1-0.5,0.9c-0.1,0.3-0.2,0.6-0.3,0.9c-0.2,0.7-0.5,1.1-0.8,1.8
		c-0.7,1.8-0.5,2.5-0.6,4.4c-0.2-0.3-0.1-0.1-0.3-0.5c-0.1-0.2-0.1-0.2-0.1-0.3c-0.8-2.3-1.8-2.2-2-4.1c-0.3-2.5-0.9-3.9-1.1-6
		c0.8,0.3,1,0.5,1.5,1c0.4-0.8-0.3-0.4,0.6-0.7c0.8,1.4,1.5,1.8,2.3,2.8l0.3,0.3c0.2-0.3,0.6-0.7,0.8-1.1c0.3-0.6,0.3-0.9,0.5-1.4
		c0.4,1.5,0.2,7.4,0.2,9.4c0,3,0.4,5.9,0.6,8.9h1.4c-0.2-3.4-1.1-6.9-1.1-10.4c0-2-0.8-9.8-0.2-11c0.5,1,0.5,9,0.8,11
		c0.2,1.7,0.3,3.5,0.6,5.3c0.2,1.7,0.8,3.5,0.9,5.2h1.9c-0.3-3.5-1-7.8-1.6-11.3c-0.3-1.8-0.9-3.4-1.3-5.2
		c-1.4-6.8-1.3-4.5-0.2-10.7c0.7-3.8,1.8-14.6,1.4-17.8c-1.7-0.1-3.8,0.8-5,1.7c-0.8,0.5-0.3,0.6-1.1,1.1l0.3,1
		c-0.8,1.2-0.8,1.1-2,1.7c0,1.1,0,1.9-0.1,2.9c-0.1,1,0.2,1.6,0.3,2.6c-0.6-1-1.1-3.5-1.9-4.3c-0.9-0.1-2,1-3,1.5l-3.3,1.5
		c-1.5,3.1-0.2,3.5,0.1,4.1c0.3,0.6,0.1,0.7,0.5,1.3c2.2-1.5,2.6,1.2,2.6,1.3c0.2,0.4,0.4,0.3,0.6,0.7c0.4,0.6,0.2,1.5,0.3,2.4
		c0.2,1.5,0.8,2.9,1,4.4c-1.2-2.5-1.3-4.1-1.6-4.8l-0.3-0.5c-0.4,0.3-0.1-0.2-0.4,0.4l-0.6,2.4c-0.3,0.9-0.6,1.8-1.2,2.5
		c0.1,0.6,0,0.2,0.2,0.4c0,0,0.2,0.2,0.4,0.4c-0.3,1.1-0.2,0.4-0.3,1.4c0,0.6-0.2,0.9-0.4,1.4c-0.5,1.1-0.6,1.8-1,2.9
		c-0.8,1.9-1.8,3.5-2.3,5.4C86,139.4,86.9,138.1,87.1,137L87.1,137z M127.8,90.3c0.1,1.6,0.9,1.9,2,2.4l0.4,0.5
		c-1.8,0.3-3.3,0-5,0.5c-1.2,0.4-3,1.3-1.9,2.8c1.6,2.3,5.9,1.8,9.1,1.9c0.1,0.3,0,0.2,0.2,0.4c-2.4,1.3-1.7,0.9-2.3,1.9
		c0,0-0.1,0.1-0.1,0.1l1.7,0.3c-0.4-0.1-0.5,0-1,0.4c0.7,0.1,1.2,0.4,1.9,0.7l-0.7,0.3c1.8,0.6,1.5,0.8,2.9,1.2l1.2,0.5
		c-3.8,0.3-7.9,0-11.6-0.6c0.2,0.4,4.4,3.7,5.2,3.6c0.8-0.3,0.6-0.5,1.3-0.8c1.3-0.5,4.2-0.2,4.6,1.2c2.7,0.2,7.3,0.4,7.4-2.5
		c-1.2-1.3-3.1-0.8-5.2-1.1c-0.9-1.2-0.1-1.3-1.1-1.9c0.2-0.7,0-0.1,0.4-0.8c0-0.2-0.3-1.7-0.9-2.1c-0.4-0.3-0.6-0.2-1-0.3
		c-0.6-0.1-1-0.4-1.4-0.6c1.4-0.1,3-0.1,4.4,0c0.9,0,3.6,0.3,4.1,0.2c0,0-0.1,0-0.1,0.1c0,0.1-0.1,0.1-0.1,0.1
		c-0.3,0.3,0-0.1-0.2,0.2c-0.3,0.5-0.2-0.1-0.1,0.6c0,0.4,0.3,0.7,0.5,1c0,0.5,0,0.2-0.1,0.4c-0.4,1.3-0.1-0.2-0.2,0.6l1.2,0.1
		l0.1,0.6c1,0.2,1.6-0.7,2.2,3.3c-0.7,0.7-1.4,0.9-1.7,2.1c1.2,0.2,0.6,0,1.2-0.8c-0.3,1-0.8,2.1-1.2,3c-0.5,1-1.1,1.9-1.4,3
		c1-0.2,0.7-0.3,1.5-0.8c0.7-0.4,0.2,0.2,0.7-0.5c1.6-2.2-0.1-6.2,3.2-7.4c-0.6,1.3-1.4,0.9-1.6,2.4c0.6-0.7,1-1.7,2.2-1.6
		c-0.4,0.9-0.9,1.6-1.1,2.8c0.6-0.4,1.3-1.6,3-2c-0.4,0.8-1.3,1.4-1.4,2.1c1.3-0.5,2.1-1.6,3.8-2c-1,0.4-2.1,1.1-2.7,2.1
		c1.2-0.3,1.7-1,2.8-1.4c0.1,0.3-0.1,0.2,0.2,0.6c1.5-0.6,2.3-1.1,3.6-1.9c1-0.6,2.5-1.5,3.5-0.5l0.5,0.5l1-0.4c0,1.1-0.5,3.3-0.9,4
		c-2.2-0.1-1.6-1.5-4.5-0.6c-1.6,0.5-3.1,0.7-4.7,1c0.3,0.2,0,0.1,0.5,0.2l1.4,0.1c2.8,0.3,2.2-1.3,4.6-1.4c0.2,0.9,0,1.1,0.5,1.8
		l2.1,2.6c2.7,2.6-1.4,2.6-4.3,5.3c-1.8,1.7-5,4.1-6.2,5.6c-0.5,0.6-1,1-1.2,1.7c1.3-0.4,3-2.8,3.5-3.3c0.6-0.6,5.6-4.3,6.5-4.8
		c-0.3,0.7-0.7,1-1,1.7c-0.2,0.7-0.2,1.3-0.5,2c-0.4,0.8-4.1,4.3-5.1,4.9c-1.4,1-2.3,0.9-4.1,0.8c0.2,0.6,0.8,1.3,1.2,1.9
		c0.4,0.6,0.6,1.2,0.8,1.9c0.9,2.7,2.9,4.4,5,6.4c0.7,0.7,0.8,0.7,1.3,1.5c0.6,1,0.3,1.3,0.7,2c0.6-0.8,2.5-18.7,3.3-23.1
		c0.5-3,1.8-1.9,1.5-3.7c-0.4-2.2-0.7-2.1-0.3-4.6c0.2-1,0.8-3.6,0.7-4.4l0.4,0.4c0,0,0.1,0.3,0.2,0.4c1-0.4,1-0.3,1.5,0.4
		c0,0,0.1-0.2,0.1-0.1c0.2,0.4,0.1-0.2,0.2-0.3l0.1-0.3c0,0,0-0.1,0.1-0.2c0.2,1.7-0.4,3.1-0.1,4.5c1,3.9-3.4,5.5-3.3,10.8l1-1.1
		c0.3-0.3,0.8-0.7,0.9-1c-0.6,1.5-1.2,1.7-1.9,2.7c-0.4,0.5-1.7,2.6-1.3,3.4c0.3-0.2,3.8-4.4,4.8-4.9c0.2-0.6,0.9-1,1.5-1.6
		c1-1,2-2.4,2.8-3.7c0.3-0.5,0.9-1.8,1.2-2c0.5-1.4,1.1-2.7,1.6-4.1c0.3-1,1.6-3.3,1.5-3.9c-4.1-0.3-2.6-0.8-8-1
		c-0.3-0.6-0.8-1.3-1.3-1.7c-0.5,0.4-1,1.2-1.1,1.9c-0.5-0.5-0.3-0.6-0.6-1.1c-1,0.1-0.7,0.1-1.4,0.7c0.2,0.5,0.3,0.6,0.6,0.9
		c-1.2-0.1-0.7-0.7-2.6-0.5c-1.6,0.2-5.1,1.5-7.8,0.6c0.1-0.1,4,0,4.9-0.1c-0.4-0.8-0.7-0.9-1.2-1.5c-0.7,0-0.5-0.1-1,0.3
		c-0.6,0.5,0.1,0.4-0.7,0.7c-1.1-4.2-2.8,0.4-3.4,0.6l-4.3,0.1c-1.1-1.4-1.1-4-2.4-5.3c0-0.7-0.4-2.1-1.6-2.4
		c-1-0.2-2.6,0.1-3.5-0.4c-0.8-0.4-0.4-0.7-2.5-1.4c-0.9-0.3-2.7-0.6-3.2-0.8c-0.4-0.2-0.4,0.2-0.4-0.7c-0.1-1.3,0.1-0.3,0.4-0.8
		c0.1-0.2,0.2-1.2,0.2-1.9l-1.9-0.2l5.5-0.6c0.3,0.9,0.2,0.6,0.7,0.9c0.2,0.2,0.3,0.1,0.5,0.4c0.2,0.6-0.1-0.4-0.1,0.6l1.2,0.2
		c-0.9,1.2-0.4,1.4-0.5,2.4c0.8,0.2,1.4,0.7,2.1,1.1c1.3,0.8,0.1,0.9,2.3,1.3c-0.5-2.3-2.7-4.5-2.9-4.7c-0.4-0.6-0.3-1.1-0.7-1.8
		c-0.4-0.8-0.6-0.7-1-1.3c-0.3-0.5-0.6-1.2-0.9-1.6c-0.6-0.8-0.9-0.6-1.4-1.2c-0.6-0.8-0.1-1-0.4-1.7c-0.2,0.5-0.3,1.4-0.6,1.7
		c-0.3-0.8,0.1-2.6,0.2-3.7c0.3-2.9,0-1.2-0.8-3.2c-0.6-1.4-1.2-2.6-2.5-2.8c0.1-1.9,0.1-3.7,0.1-5.6c0-1.8-0.3-3.9-0.3-5.4
		c0.5-0.7,1.1-0.4,1.4-1.6c0.4-1.6,0-0.6-0.2-1.2c-0.2-0.9,0-0.7,0.1-1.2c0.1-0.5-0.2-1.5-0.2-2.6c0.1-5.2-0.3-3.2-0.6-5.8
		c-0.5-4.8-1.3-3.4-2.4-7.1c1,0.3,0.7,0.6,1.6,1c-0.2-1.7-0.9-0.8-1-1.8c-0.7-1.6,0-0.2-1.6-2.1c-1.3-1.4-1.1-1.6-2-1.7
		c0.3,1.2,1.1,1.2,1,2.2l-0.6,0.1c-0.8-0.1-1.4-0.5-2.3-0.6c-1.7-0.1-1.2,0.3-2.7-0.4c-0.8,1.4-0.4,0.9,0,2.2
		c0.3,1.2-0.1,1.8-1.2,1.9c0.8-0.6,0.3,0.1,0.5-0.8c0.4-1.5-0.8-1.4-1.8-2.2c-0.9,0.4-1.9,1.4-2.3,2.2c0.3,0.2,0.1,0.1,0.8-0.1
		c-0.1,0.4-0.2,0.6-0.3,0.9c0,0,0.6,0,0.6,0c0.7,0.1,0.2,0,0.4,0.1c-0.6,0.6-1.2,0.6-1.6,1.4c1.1,0.1,1.9-0.5,2.6-0.6
		c1.3-0.3,0.7,1,2.4,0.2c0,0,0.1,0.1,0.1,0.1l0.5,0.7c0,0,0.1,0.1,0.1,0.1c0,0,0.1,0.1,0.1,0.1c-1.1,1-0.9,2.4-2.7,3.4
		c-1,0.6-2.6,0.6-3.8,0.6c-1,0.1-0.8-0.1-1.2,0.5c0.2,0.4,0.4,0.3,1,0.5c0.7,0.2,0.3,0.1,0.8,0.5c0.7,0.6,0.4,0.1,1.4,0.2l0.7,0.2
		c-0.5,1.6-1,0.5-1,3.6c1.7-0.2-0.3,0.1,2.2-1.5l2.1-1.5c-0.3-0.5-2.2-2-1.1-2.8c0-0.4-0.1,0.2,0.5,0.3c0.7-0.7,1-1.4,1.6-2l2.1,0
		l-0.5,1.8c0.5-0.1,0.8-0.4,1.1-0.7c0.4,0.6,0.6,1.3,0.5,2.1c-0.7,0.2-1,0-1.5-0.2c-0.1,0.8-0.2,1.1-0.4,1.6l1.2,0.1
		c0,0.1,0,0.1,0,0.2c0.1,1.2,1.8,1,1.9,2.2c-0.9-0.2-2.4-1.8-4-1c0.3,0.9,1.2,0.6,2.3,0.6l0.1,1.4c0,0-0.1,0.1-0.1,0.1
		c-1.4-0.1-2.6,0.1-3.7,0.8c-0.5,0.4-0.6,0.2-0.8,0.8c0.6,0.7,0.7,0.6,1.4,0.4c0.1,0,0.8-0.2,0.8-0.2c0.8-0.3,0.4,0.4,0.7-0.5
		c0,0,0.1,0,0.1,0.1c0,0.1,0.1,0.1,0.1,0.1l3.3,2.8c0.7,0.8,0.1,0.8,0.8,1.5c0.7-0.3,0.6-0.6,0.9-1.4c0.3,0.4,0.1,0.7,0,1.3
		c1.9-0.1,1.2-0.8,2.2-1.4c-0.7,2-1.3,1.8-2.6,3c-1.3,1.2-0.9,1.6-2.7,2.8c-1,0.7-0.2,5.4-0.8,7.1c-0.3,0.8-1.1,0.9-0.8,2
		c0.7-0.3,0.9-1.4,1.6-1.7c-0.1,1-0.4,1.9-0.8,2.6c-0.6,1.2-1.1,1.1-0.9,2.9c1.1,0.9,1.3,0.7,0.9,2.3c-0.4,1.9,0.2,1.9,0.7,3.1
		c-1.7-0.3-3.6-1.2-5.4-1.6c-1.6-0.3-1.2-0.1-1.9-1.4c-1.2-2.2-5.2-8.5-7.3-9.8c0.4,0.6,0.2,0.1,0.3,1c-0.4,0.3-0.2,0.1-0.7,0.2
		c0.5,0.9,0.7,2,1.3,2.5c2.1,1.7,5.1,3.5,6,6.2l-2.9-3c-1.8-1.8-5-3.2-7.2-4.8c-1.2-0.9-2.2-2-4.2-2.1l2,1c0.7,0.4,1,0.6,1.6,1.1
		l3.1,2.4l-1.2-0.1c0.2,0.8,0.1,1.4,0.3,1.8c2,0.3,3-1.1,5.7,1.1c-1.9-0.3-3.2-1-4.4-0.4c0,0-0.1,0-0.1,0.1c0.6,0.3,0.4,0.2,1.2,0.3
		c2,0.2,3.6,1.1,5,2.5c1.1,1.1,0.9,0.4,1.7,0.8l-1.7,0.7c0.5,0.3,1.7,1,2,1.3c-2.6,0-2.2-1.2-3.8-1.5l0.6-0.3c0.1,0,0.1,0,0.2-0.1
		l0.3-0.1c-0.6-0.4-2.9-2.2-3.7-1.9c0.9,0.4,2,0.7,2.3,1.7c-1.5-0.6-4.3-1-6.1-1.2c-3.9-0.4-7-2.6-10.3-4.2
		c-1.8-0.9-4.7,0.4-5.2,1.1c1.2-0.4,1-0.8,2.7-0.8l-1,0.6c0.4,0.9,2.4,2.6,1.6,4.5c-0.4,1-0.4,0.7-0.5,2.1l0.6-0.5
		c1.6-1.6,1.5-0.9,2.1-3.4c0.1-0.2,0.1-0.6,0.2-0.7c0.5-0.9,0-0.3,0.7-0.6c0.5,1.5-0.3,0.6,0.8,2.1c1.9,2.5,1.1,3.2,2.3,5.1
		c0.2,0.4,0.3,0.4,0.6,0.8c-1.1-0.3-1.4-1.2-2.3-1.5c0,1,0.1,1.9,0.1,3c-0.1,2.5,1,2,2.6,3.2c2.7,1.9,2.6,0.4,6.3-4.8
		c0.5-0.7,0.9-1.2,1.3-2c5.5,0,11.9,1.8,15.1,2c0.2-0.3,0-0.4,0.1-0.7c0.1-0.3,0.2-0.4,0.4-0.6c0.9,0.3,1.2,1.1,1.9,1.6
		c-0.8,0.1-0.7-0.1-1.3-0.1C127.9,89.6,127.8,89.6,127.8,90.3L127.8,90.3z M151.5,149h0.8c0-1.4,0.5-2.5,0.8-3.8
		c-0.7,0.3-0.7,0.9-1,1.7C151.7,147.7,151.5,148.2,151.5,149z M153.9,149h0.6c0.1-2.2,0.8-4.4,0.9-6.3
		C154.6,143.7,154,147.6,153.9,149z M138.6,110.6c0,0,0.1-0.2,0.1-0.1c0.1,0.3,0.1-0.2,0.1-0.3c0.3-0.6,0.3-0.5,1.1-0.7
		c-0.1-1-0.1-1-0.7-1.5c-0.5,0.1-1.3,0.6-1.6,1.2c0,0-0.6,0.3,0.1,1C137.7,110.3,138.3,110.5,138.6,110.6z M185.7,137.8
		c0.7,1.5,1.3,1.1,1.2,3.2c0,1.1-0.1,0.9,0.2,1.4c0.5-1.3,0.6-3.5,0.6-4.9c0-0.1,0-0.8,0-0.9c-0.2-0.9-0.1-0.4-0.3-0.7L185.7,137.8
		L185.7,137.8z M131,78.6l0.6,0c0.2,0.4,0.6,0.6,1,1.2c0.3,0.5,0.4,1,0.8,1.6c0,0-0.1,0-0.1,0.1l-0.6,0.1c0,0-0.1,0-0.1,0
		c0.6,1.5,1.1,1.1,0.9,3c1.1,0.5-0.4-0.3,0.4-0.2c0.1,1-0.1,0.1-0.2,1.1c-0.1,0.6,0.2,0.4-0.1,0.9c-0.6-0.4-1.1-2.9-1.6-3.8
		c-0.4-0.7-0.9-0.9-1-1.7C130.7,80.1,131,79.3,131,78.6L131,78.6z M185.1,149h0.8c-0.1-1-1.4-3.8-1.8-4.9c-0.7-1.8-1.2-3.4-1.8-5.1
		c-0.3,1,0.6,4.2,1,5.2C183.7,145.2,185,148.2,185.1,149L185.1,149z M203.3,93.8c1.1,0.6,3.4-0.3,4.5-0.1l-1.5,0.6
		c1.6,0.1,2.5-0.8,3.6-1.4c1.3-0.8,2.6-0.9,3.3-2c-1.6,0.5-3,1.3-4.8,1.6C207.3,92.7,203.9,93.2,203.3,93.8L203.3,93.8z M74.3,71.8
		c0.2,1.5,0.1,2.3,1.3,2.8c-0.2-0.4-0.3-0.2-0.6-0.8c-0.3-0.5-0.4-1-0.4-1.6c0.8,0.3,0.7,0.3,1.4,0.8l0.5,0.5c0,0,0,0.1,0.1,0.1
		L77,75c-1.5,1.3-1.7-0.1-2.5,2.2l0.5-1.4c-1-1.4-1.7-0.4-1.3-4.4C74.3,71.6,73.9,71.2,74.3,71.8z M76.8,70.7
		c-0.9,0.1-0.4,0.2-0.5-0.4c1.1-0.7,3.7,0.2,5.8-1.5l-3.8,0.8c-0.2-2.5-1-4.2-2.3-5.4c-1.4-1.3-3.1-2.5-5.2-2.6
		c-2.7-0.1-9,2.9-8.8,4.8l0.5,1.2c0,0,0.1,0.1,0.1,0.2c0,0,0,0.1,0.1,0.2c0.6-0.1,1-0.4,1.4-0.4c0.8,0,0.3,0.2,1,0.7l1.2-0.3
		c0.5,0.7,0.9,0.9,1.4,1.3c-1-0.2-1.4-0.8-2.5-0.3c-0.6,0.3-0.4,0.4-0.9,0.7c-0.8,0.4-0.8,0.1-1.2,0.6c1,0.4,1.9-0.6,2.8-0.3l2,0.9
		c0.7,0.5,0.2,0.1,0.5,0.6c-1-0.2-1.1-0.7-1.8-0.3c0.1,1,0.2,0.3,1,1c-0.6,0.6-0.7,0.2-1.4,0.6l-1.4,0.9c0.5,0.1,0.7,0.1,1,0.6
		c-0.5-0.2-1.2-0.3-1.8-0.6c-0.8-0.3-0.9-0.8-1.6-1.1c-0.4,2.6-0.8,2-0.6,3.4c0.6,0.3,1,0.8,1.8,0.3c-0.5-1.4-1.6,0.2-1.2-1.7
		c2.7-0.3,0.9,1.6,3.3,2c-0.4-0.9-0.8-0.9-1.1-1.9c2.1,1,0.7,0.2,2.1,0.5c0.8,0.2,0,0.4,1,0.2c0.8-0.1,0.1-0.4,0.9-0.2
		c0.2,0.7-0.1,0.7-0.5,1.2c-0.6,0.7-0.3,0.5-0.5,1.6c-0.2,1.4-1.2,3.4,0,3.5c1.5,0.1,1.9-2.5,2.3-3.1l-0.3,3.3
		c0.9-0.2,1.8-0.9,2.5-1.4c1-0.7,1.1-1.4,1.8-2.1c-0.5,2.3-2.3,3.5-2.6,5.2l0.6-0.9c0,0,0.1-0.1,0.1-0.1l0.3-0.3
		c0.6,0.8,0.7,1.3,1.4,1.8c0.6-0.2,2.3-2,3.5-2.9c-0.6,1-1.7,2-2.5,3.1c-1,1.3-1.8,1.4-3.1,2.5l2.4,0.1c-0.3,0-0.3,0.4-2,0.3
		c-5.2-0.4-5.3-0.7-8.6,2.1c-1,0.9-1.9,1.2-1,2.7c0.7-0.8,0.8-1.8,1.5-2.3c-1.3,4.9-2.3,2.7-0.8,5.9c0.6,1.1-0.3,2.3,0.8,3.2
		c0.1,0.1-0.1-0.5,0.4,0.4c0.3,0.6,0.3,1.4,1.4,1.9l0.1-5.3c0.5,2.9,1,6.5,2.9,9c0.6,0.8,0.2,0.6,0.7,1.3c0.4,0.6,0.7,0.5,1.1,1.1
		c-1.7-0.4-3.1-1.8-3.8-2.2l-0.9,2.1c0.4,0.7,0.6,0.8,1.1,1.4c0.4,0.6,0.6,1.4,0.8,2l0.1-0.3c0,0,0.1-0.2,0.1-0.3
		c0.3-0.5-0.2-0.1,0.4-0.4c2.6,4.9,0.6,4.4,1.6,6.3l0.8,1.9l1.6-1.1c-2.7,4.4-2.2,1-1.7,4.5l0.6,0c-0.9,1.4-1,1.3-0.7,2.2l0.4,0.9
		c1.6-0.1,1.5-0.6,2.5-1.2c-0.5,1.5-1.2,1.6-1.9,2.6c-1.3-0.2,0-0.3-1.3-0.5c0.1,0.4,0.6,1.3,0.8,1.6c1.2-0.3,0.8-0.1,1.3-0.9
		c0.7,1.6,1.2,0.5,1.4,3.1l0.7-0.8c0.3-0.3,0-0.1,0.4-0.3c-0.3,1.6-0.8,2.1-1,3.1c-0.2,1,0,2.4-0.4,3.5c-0.7,2-0.3,1.4-0.7,3.3
		c-0.2,1.3-0.7,2-1,3.1l0.5-0.9c0.7-1.8,1.7-4.2,1.9-5.9c0.2-1,0.5-1.6,0.7-2.6c0.3-1.6,1.1-7,0.5-8.6c-0.4-1.2-0.4-1.4-0.5-2.8
		c-0.4-3.6,0.8-7.9,0.4-12.1c-0.4-4.9,0.4-7,1-11.4c0.2,3.6-0.4,4.3-0.4,6c0.7-0.7,1-1.7,1.7-2.3c-0.1,1.3-0.4,1.9-0.6,2.9
		c1.6,0.8,0.8,1.9,1.8,2.6c0.3-0.6,0.2-0.9,0.3-1.7c0.8,1.7,0.7,4.1,0,6c-0.5,1.4-0.1,1.3,0,2.9c0.1,1,0,2.3,0.5,3
		c0.8-0.9,1.1-6.4,1.6-8.1c0.8-2.9,0.5-1.9,0.2-4c-0.2-1.3-0.6-2.9-1.3-3.6c0.1-1.1,0.5,0.9,0.2-1c-0.1-0.8-0.3-1-0.3-2l0.6,0.7
		c0.9,1.6,1.2,5.5,1.1,7.1c0.3-0.3,0.1,0,0.3-0.4c0.3-0.6,0.3-1.4,0.3-2c0.1-1.1,0.1-2.1,0-3.2c0.8,1.7,0.4,4.4,0.2,6.4l-1,5.1
		c0.1,1-0.2,0.4,0.3,0.9c0.5-3.2,1.6-6.5,2.4-9.8c0.5-2.1,0.7-5.6,1.2-8.1c0.2-1,0.5-1.7,0.6-2.7c-1.2-0.5-2.9-2.2-3.8-3.2
		c-1.4-1.4-1.9-1.8-2.6-4.5c-1.7-7.4-1-6.1-1.5-12.7C77.7,70.3,77.2,70.4,76.8,70.7L76.8,70.7z M62.8,78.4c0.6,0.1,1.2,0,1.7,0.1
		c0.8,0.1,0.4,0.3,1.4,0.4c-0.1-0.8,0-0.6-0.7-1c-0.6-0.3-0.5-0.4-1.1-0.7C62.7,78.2,63,77.6,62.8,78.4z M230.2,81
		c-0.9,0-1.5-0.2-1.5,0.8c0.6,0.4,0.4,0.1,1.2,0.3c0.8,0.3,0.1,0.3,1.2,0.5l0.6-2.6C230.7,80.1,230.6,80.4,230.2,81L230.2,81z
		 M157.8,62.1c1.4,0.6,2.7,0.2,4.1-0.1c0.2,0.8,0.2,0.6,0.5,1.2c0.5,0.9,0.3,0.9,0.8,1.2c-0.2-1-0.8-2.2-0.9-3.1
		c-0.3-2.6-0.7-7.6-1.6-9.7l0.8,8.1c-1.3-0.6,0-1.4-3.9-3.2c-1.4-0.6-4.7-0.7-5.7,0.3c1.4,1.3,3.7-0.7,4.8,0.8l-1.7,0.3
		c0.2,0.4,0.9,0.3,1.4,0.7c0.5,0.4,0.4,0.8,0.8,1.4c2.3,0.1,0.5,0,2.2,0.5l0.5,0.1C159.3,61.5,158.2,61.3,157.8,62.1L157.8,62.1z
		 M220.4,66c1.2-0.3,1.6-1.7,2.9-1.7c-0.6,1.2-1.1,0.5-1.3,2.5c0.2,0.1,0,0,0.3,0.1c0.4,0.1,0.2,0,0.4,0.1l-0.2,1
		c1.4,0.8,1,0,1.2,1.9c0.2,1.5,0.8,0.6,1.2,2c-0.6-0.4-0.3-0.5-1.1-0.6c0,0.8,0.4,1.2,0.1,1.7c-0.6-0.7-0.5-1.5-1.2-1.9
		c-0.7-0.4-2.8-0.1-2.6,3c0.1,1.5-0.1,1.9,1.1,2.1c-0.1-0.8-0.2-0.6-0.5-1.2c0.4-0.2,0,0.2,0.6,0c-0.2-0.9-0.7-0.6-0.6-1.4
		c0.1-1.1,0.4-0.1,1-1l-0.3-0.2c0,0-0.1-0.1-0.1-0.1l-0.4-0.2c0,0-0.1,0-0.1-0.1c0.7-0.3,1.2-0.8,1.9-0.1c0.4,0.4,0.7,1.2,0.6,1.9
		c-0.6,0.4-1,0.2-1,0.9c0.1,1.4,0.4-0.2-0.8,1.4c-0.5,0.7,0,0.3-0.8,0.8l-0.2,3c0.5,0.3,1.6,0.3,1.9,0c0.5-0.7,0.4-1.2,0.8-2
		c0.7-1.4,0.4-0.6,0.5-2.2c0.4,0.8,0.3,0.6,0.8,1.2c0.6,0.7,0.4,0.7,1.3,1.1l-0.7,0.3c-0.7,0.3-1.2,1-1.1,2c1.1,0.1,1.2,0.1,1.9-0.4
		c0.9-0.6,1.1-0.3,2.2-0.3c-0.2-2,0-2-1.2-2.9c0.4-0.3,0.1-0.2,1,0.1c0-0.2-0.1-0.6-0.1-0.6l0.1-0.5c0,0,0-0.1,0.1-0.2
		c0.4,1.7,1.2,1.4,2.7,2.1l3,1.8c0.9-0.6,1-1.2,0.9-2.1c-0.1-0.8,0.7-1.5,0.4-4.6c-0.4-3.4-1.5-3.9-2.9-6c-1.4-1.9-2.3-3-5.3-3.5
		c-1.5-0.2-2.6-0.3-3.9,0.4C222,64.1,220.5,65.3,220.4,66z M122.8,127.2c-0.9-0.1-3.5-0.2-4.5-0.3c-0.5,0-1.9-0.1-2.3,0
		c-1.8,0.4,0.6-0.3-1.5,0.9l1.1,0.7c-0.6,0.5-0.5,0.1-0.7,0.9l1.5,1c0,0-0.1,0-0.1,0c-0.1,0.4-1.2,0.2-0.4,0.6
		c0.2,0.1,1.4,0.3,1.7,0.3c-0.4,0.4-1.2,0.7-1.8,0.7l-0.7,0.1c0,1.7-0.1,0.5-1.3,2.1c-0.5,0.7-0.1,0.2-0.7,0.7c1,0.6,0.6,0,0.7,0.7
		l-1.1,0.5c0.7,1.2,0.7,0.8,2.2,1.3c4,1.5,2.9,4.8,6.6,3.9l2.3,0.8c2.3,0.7,6.1-0.9,8.5,0.1c2,0.8,3.4-0.2,5.1-0.3
		c1.1-0.1,4,0.9,5.2,0.7c0.6-1.1,0.9-4.8,1.1-6.2c0,0.8-0.3,1.3-0.2,2.1c0.1,1.3,0.6,0.7,0.6,1.9c-0.2-0.3-0.1-0.3-0.7-0.3
		c0,0-0.1,0-0.2,0c-0.6,1.9,1.3,1.7,1.5,4.3c0.3,3.5,1.2,3.8,1.4,4.5h4.8c-0.1-1-0.4-1.3-0.5-2l4.7-5.4c0.5-0.6,0.4-0.1,0.5-0.8
		c-0.7,0.3-1.3,1-2.1,1.4c-1,0.5-2.1,0.3-2.5,1c-0.3,0.5,0.7,1.3-0.8,2.7c-0.6-0.9-1.7-4.8-1.9-6.2c0.9-0.5,2.6-2.7,2.8-3.6
		c-0.6-0.8-1.6-1.4-2.4-2.1c-1-1-0.7-2-1.8-2.8l0,1.8c-0.8-1.8,0.1-3.8-1-5.2c-0.4,0.5-1.2,3.2-1.2,4c-0.3-1.9-1.3,0.2,0-3.9
		c0.4-1.4,0.7-2.9,1.1-4.4c0.7-3,3.1-6.6,3-7.7c-1.7,1.6-4.1,7.8-5.2,8.9c-0.1-1.8-0.4-2.5-0.7-4.1c-0.3-1.5-0.1-3.1-0.2-4.6
		c-0.1-0.1-0.3-0.1-0.3-0.2c-0.6-0.5-0.2-0.4-0.8-0.7c-0.7,0.3,0-0.1-0.7,0.5c-0.1,1-0.8,1.9-1.3,2.8c-0.5,0.8-0.9,2-1.7,2.4
		c-0.7-0.8-1-1.3-1.8-2l-0.5,0.3c-0.4,0.3,0,0-0.4,0.3c0.1-0.1,0.2-0.3,0.3-0.4c0.3-0.5,0.1,0,0.3-0.5l-2.3-2.8
		c-1.1,0-5.6,1.4-6.8,2.2c-4.4,2.8-4,0.4-6.4,2.6c-0.6,0.5-0.7,1-1.4,1.6c-0.6,0.5-1.3,0.8-1.6,1.7c1.1-0.1,1.4-0.5,2.6-0.4
		c-1.4,0.7-2.3,0.6-3.6,1.7c1.5,0.1,1.9-0.6,3.9-0.3c1.6,0.2,2.4,0.3,4,0.3c-1.5,0.6-3.6,0.2-5.3,0.3c-0.9,0.1-4.2,0.7-4.7,1
		c0.8,0.3,3.3,0.1,4.5,0.3c0.7,0.1,1.2,0.2,2,0.3C121.5,126.7,122.3,126.8,122.8,127.2L122.8,127.2z M129.6,138.7l0.8-0.3
		c0.7-0.4,0.3-0.1,0.6-0.7c-1.1-0.2-1.2-0.1-1.6-1.2c-1.2-3.1-2.7-0.4-4.4-1.3c-0.6-0.3-0.4-0.2-0.6-0.7l2.4-0.9l-2.8-0.3
		c1.4-0.6,4-0.2,5.2-0.7l2.3-0.4l-2.2,0.9c0.7,0.8,2.2,1.2,3.5,1c2.2-0.3,1.8-0.4,3.3-1.3c-0.4,0.5-0.5,0.5-0.8,1.2
		c1.8-0.4,2.3-1.5,3.4-2.2c-1.5,2.8-1.4,1.8-1.2,3.4l0.7-0.7c-0.9,2.1-1.8,1.7-3.9,2.5c-0.7,0.3-1.5,0.7-2.3,1l-1.7,0.7
		C129.2,139,129.9,139,129.6,138.7L129.6,138.7z M195.2,96.3c0.6-0.1,0.8-0.2,1.2-0.5C196.4,93.1,193,94.9,195.2,96.3z M179.5,149h3
		l-1.5-5.9c-0.4,0.4-0.1-0.4-0.4,0.7c0,0.2-0.1,0.6-0.1,0.9C180.3,145.8,179.7,147,179.5,149L179.5,149z M217.8,109.3
		c0.2-0.9,0.4-3,0.6-3.7c0.3-1.1,0.9-1.5,1.2-3.1l1.1-8c-0.7,0.6-1,2.4-1.2,3.3C219.2,99.3,216.8,108.1,217.8,109.3L217.8,109.3z
		 M111.2,95.9l4.7,2.6c-0.1-1.7-1.6-4.1,2.1-6.9c0.6-0.5,0.5-0.1,0.8-0.7l-3.9-0.6C114.2,91.5,111.5,94.7,111.2,95.9z M201.9,74.4
		c-2,0.3-2.4,0.5-4.1-0.4c-1.6-0.8-2.6-0.1-2.4,2c-1.1,0.3-3,1.4-1.9,2.8c0.6,0.8,0.6,0.2,1.1,1.5c0.5,1.3,0.7,1.2,0.8,1.9
		c-0.4-0.1-0.4-0.3-0.9-0.3c-0.1,2.8,1.4,4.6,4.2,4.4c0.3-0.5,0.7-0.9,0.8-1.7c-1.3-0.3-1.3-0.3-2.6,0c0.6-1.5,1.1-0.4,2.1-0.8
		c-0.3-0.2-1.6-0.2-2.3-0.4c0.6-0.4,0.8-0.1,1.6-0.1c-0.3-0.9-0.1-0.1-0.7-1.5c-0.4-0.9-0.3-0.5-1.1-1.1l0.6-1.2
		c-0.8,0.2-0.5,0.4-1.2,1.2c-0.8-0.5-0.6-0.6-0.9-1.5c-0.3-0.8-0.6-1-0.7-1.8c3-2.2,3-0.4,5.7,0.2c0.4,0.1,0.8,0.1,1.2,0.2
		c0.6,0.3,0.2,0.2,0.7,0.8c0.3-0.4,0.5-1.3,0.6-1.8c0.2-1.1,0.4-3.4,0.2-4.4c-0.2-1.1-0.1-1.3-1-1.5C201.8,71.6,202,74.1,201.9,74.4
		L201.9,74.4z M194.7,91.1c0.2-0.3,1.3-1.2,1.7-1.3C196.1,90.4,195.7,91.7,194.7,91.1z M158.1,69.4c-0.9-0.2-0.6-0.3-0.8,0.4
		c0.5,0.5,1.5,0.2,2.3,0.6c0.6,0.3,1.2,1.1,1.4,1.7c-1.4-0.2-1.4-1.8-3.8-1c0.3,0.2,0,0.1,0.5,0.2c1.1,0.3,1-0.1,1.5,0.8l0.5,0.7
		c1.2,1.2-0.3-0.7,0.3,0.3c-1.3,0.8-2.2-0.5-3.9,0.8c-0.1,0.9,0.5,1.9,1.2,2.4c0.7,0.4,0.1,0.1,0.8,0.1c1.2,0.1,1.5,1.8,3.4,0.5
		c1.1-0.7,0.8-1.8,1-3.8c0.2-1.2,0.9-3.5-0.3-3.9c0.3,0.1,0.5,0.3,0.8,0.4l-0.5,5.5c-0.1,1.1,0,1.5-0.9,2.2
		c-2.2,1.7-1.2,1.9-2.6,3.9c-1,1.3-3,2.1-1.1,7.2c0.6-0.4,0.6-0.5,0.8-1l0.7,0.9c0.9,1.4,0.6,2.1,0.7,3.4c2.3,0,2.4-1.3,3-1.9
		c0.6-0.6,0.8-0.3,1.2-1.2c0.3-0.7,0.1-1.1,0.6-1.7c0.6,1.4-0.4,2.8-0.9,3.7c0.8,0.5-0.3,0,0.8,0.1c0,0,0.1,0,0.1,0
		c-0.5,0.3-1,0.9-1.4,1.5c0.7-0.3,2.1-0.7,2.6-1.1c0.9-0.6,1-1.5,1.5-2.4c0.8,0.8,0,1.1,0.1,2.2c0.6-0.9,2.1-2,2.9-2.2
		c-0.3,0.6,0,0.1-0.3,0.5l-2.1,2.9c-1.2,2-0.6,1.6-2.6,2.8c2.7,0.5,3.5-3,5.2-5.1c0.5-0.6,0.5-0.4,1.1-0.7c1.1-0.4,0.3-0.3,0.9-0.6
		c0.1,1,0.1,2,0.3,2.9l0.5,1.9c0.3,0.5,0.2,0.3,0.4,0.6c-0.1-0.7-0.2-1.4-0.2-2c0-0.9,0.3-1.1,0.1-2.2c-0.5,0.7-0.1,0.5-0.4,1.2
		c-0.2-0.8-0.2-1.4,0.1-2c1.8,0.5,0.9,1.2,0.9,2.8c0,1.1-0.3,2.8,0.2,3.8c0.4-0.3,0.5-0.4,0.6-1.2c0.3-2-0.6-4.3,0.9-4.9
		c-0.2,1.4,0,2.3-0.1,3.6c-0.1,1.3-0.6,2.1-0.9,3.3l1.1-1.9c0.7-1.6,1.8-4.1,3.6-4.7c-0.4,1-1.4,1.1-1.1,2.7c-0.2,0.2,0,0-0.4,0.2
		l-0.5,0.2c0.2,2.2-0.6,1.2-1.1,2.9c2-0.8,3-2,5.6-2.2c-0.5,0.8-0.9,0.6-1.7,1.1c-0.5,0.3-1.1,0.9-1.4,1.4c1.7-0.3,2.9-1,4.7-0.2
		c-1.5,0.9-4.2,1.1-5.4,2.2c0.6,0.4,0.7-0.2,1.4,0.2c-1,0.3-1.1,0.3-1.8,0.9l1.1-0.1c0.5,2.1,3.3,2.3,4.6,4.5
		c-0.7-0.1-2.6-1.4-3.6-1.7c-0.8,0.4-1.2,1-2.3,1.6l2.5-0.2c-1.1,0.9-1.3,0.4-2.3,0.8c1.2,0.7,4.3-0.8,6.2,0.8c-0.6,0.3-1-0.2-1.5,0
		c1,0.6,1.4,0.5,2.4,1.3l2.4,2.9c-0.9-0.3-2.5-1.2-3.5-1.2l-0.6,0.2c0.9,0.4,2,0.7,2.9,1.1c0.8,0.4,1.8,1.3,2.6,1.3
		c-0.2-1.1-1.3-2.5-1.8-3.2c0.8,0.1,1.4,0.5,2,0.9c0.9,0.6,0.7,0.8,1.4,1.8c0.2-0.5,0-0.6-0.1-1.2c0.6,0,0.7,0,1.3-0.2
		c0.7-0.3,0.3-0.5,1.4-0.3c2.1,0.4,1.3-0.2,2.7-0.7c-0.4,1.1-1.2,1.4-2.7,2.5c-0.4,0.3-0.6,0.3-1,0.7c0.5,0.4,0.7,0.2,1.3,0
		c1-0.3,0.4-0.3,1.2,0.2c1.1,0.8,1.8,0.2,3.1-0.2l0-0.7c-0.5-0.2-0.5-0.9-1-2.6c1.1,0.6,0.3,0.7,1.6,1.5c0.9,0.5,0.8,1,2,1.2
		c0-1.4-0.1-2.8-0.5-4.1l-1.2-3.3c-1.2-0.4-1.2,0.1-2.1-1c-1.2-1.5-0.3-0.6-0.6-2.3l-1.4,0c-0.9-0.1-1.8-0.4-2.2-1
		c1.3,1.6,4.3,0.6,4.7,0.6c-0.4,0.2-0.4,0.2-0.1,0.8c0.2,0.4,0.5,0.6,0.9,0.5c0.1-0.5-0.4-1.4-0.5-2.4c-1.1,0.1-3.1,0.2-4.2-0.1
		c0.5-1.4,0.6-0.1,0.1-1.7c-0.4-1,0.1-1.5,0.4-2l-0.6-0.7l4-0.1c-0.4,1.9,0.1,1,0.1,2.2c0,1-1.1,1.5,0,2.2c0.4-0.6,0.1-1.4,0.1-2.3
		c0.1-0.9,0.4-1.7,0.3-2.6c-3.6-2.9-8.6,1.2-5.6,5.2c-0.4-0.9-0.9-0.9-1-2.5c0-1.6,1.3-3.8,3.6-3.8c2.2,0,1.8,0.4,3.2,0.7l1.3-3.2
		c-1.9-2.1-1.8-0.4-3-2.9c-1.4,0.4-1.6,2-3.4,2.5c0.3,0.6,0.4,0.4,0.8,1.1c-2-0.2-1.2-1.4-3.8-0.8c-1.6,0.3-2.9,0.2-4.4,0.1l1.4,0.5
		c-0.3,0.4-0.4,0.4-0.7,0.9l-1.6-0.2c0.6,1.1,0.8,0.7,1.2,1.3c0.6,0.9-0.4,0.2,1.1,1.4l-0.3,0c-0.6,0-1-0.4-1.9,1.4l-0.2,0.4
		c-2.8-8.5-7.6-5.5-10.4-6.3c-1.1-0.3-1.1-0.7-2.4-0.7c-0.9,0-1.8-0.3-2.8-0.4c-1.5-0.2-1.3,0.5-2.5-0.6c-0.5-0.5-1.2-1-1.8-1.5
		c-0.6-0.5-1.5-0.7-1.7-1.7c-0.1-0.9-0.2-5.5-0.1-6.5c0-1,0.4-1.8,0.6-2.7c0.2-1.1,0.1-2,0.2-3.1c0.5-5-0.6-4-0.4-6.2l-1.4-1
		c0,0.7,0.4,1.8,0.1,2.4l-1.6,0.5c-0.9-0.3-1.7-1.8-2.6-2.2c0.3,4.1,2.1,0.6,3.6,5.1c-0.8-0.2-0.9-0.8-1.4-1.5
		c-0.3,0.1-0.6,0.2-1,0.4L158.1,69.4L158.1,69.4z M188.5,104.5c-0.1-0.5-1.1-2.3-1.4-3.1c-0.6-1.2-0.7-2.3-1-3.7
		c2.5,0.3,1.4,0.9,2.7,2c0.6-0.1,0,0.4,0.4-0.6c0.7,0.8,0,0.6,1.1,0.9c1.8,0.5,0.5,1,3.3,0.7c1.1-0.1,1.1-0.3,1.3-0.7
		c0.3,0.2,0.4,0.4-0.1,1.1c-0.5,0.7-0.4,0.4-1.1,0.8c-0.5,0.3-0.6,0.5-0.9,0.8c-0.4,0.4-0.7,0.4-0.9,0.9c0.7,0.2,0.6,0.1,1.3-0.1
		c0,0,1,1.6,2.3,0c0.3,0.2,0.8,0.6,1.3,0.7c0.9,0.2,0.9-0.2,1.7-0.4c-0.1,1-0.4,1.4-0.9,2c-2.2,0.1-1.5-1.5-4.3-0.7
		c-1.9,0.5-2.4-0.1-3.6-0.3C188.5,104.7,189.3,105.3,188.5,104.5z M140,139.5c-0.1-2.4,0.3-1.1,0.5-2.2c-1.1-0.1-0.1,0-1.1,0.6
		c0.7-2.6,0.3-1.4,1.7-3.1c0.7,0.2,0.9,0.6,1.7-0.1c0.4-0.4,0.6-1.1,0.9-1.6c0.3,3.3-0.9,3.2-1.5,3.6
		C142.1,136.6,140,139.5,140,139.5z M134,123.9c0.6-1.4,1.9-0.4,4-2.6l-0.1,1.1c0.8,0.1,1.4,0.6,2,0.2c0.6-0.4,0.3-0.7,1.4-1
		c-0.1,0.6-0.2,0.6-0.5,1.1c1.5,2.3,0.6,0.8,1.6,1.4c-0.2,0.6-0.2,0.4-0.6,0.9c-1.2,1.3,0.6,0.8-2.1,2.8c-0.2-1.4,0.1-1.1-0.6-2
		c-0.4-0.6-0.5-1-1.1-1.4c-0.5-0.1-2.5,1.3-3.7,1.3c-0.5,0-0.2,0-0.4-0.1c0.6-1.1,1.1-0.9,1.7-1.6C135.6,123.8,134,123.9,134,123.9z
		 M124.7,119.5c1.4-0.3,1.3,0.1,2.4-0.6c0.8-0.4,1.1-0.6,2-0.8c-0.3,0.8-0.3,0.6-0.8,1.1c1.4,0.5,1.2,0,1.9,1.2
		c0.6,1.1,0.4,0.7,1.5,1.4C131.2,121.7,125,119.7,124.7,119.5z M127.4,85.5c-0.3-0.2-0.1,0-0.3-0.3c-0.7-0.9-0.6-2.1-0.2-3.1
		c0.7-1.7,0.6-1.6,0.8-3.5c0.9,1,0.1,2,0.3,3.6c0.8-0.3,0.5-1.1,1.2-1.5c0.3,1.2-0.6,2.6-1.3,3.7l-0.5,0.9
		C127.5,85.3,127.5,85.4,127.4,85.5z M127.1,74c0.1-1.2,0.4-2.3,0.5-3.4c0.1-1.4,0.4-1.7,1-2.7C128.5,69.3,127.7,73.1,127.1,74z
		 M129.9,52.5c-3.8,0.4-2.6-0.7-4.9-3.3c-1-1.2-0.9-0.8-0.5-1.6c0.8-0.2,2.8,0.2,3.8,0.5c1.3,0.3,2,0.7,2.3,2
		c-1.1-0.6,0.1-0.8-1.4-0.8c0.5,1.2,0.8,0,0.8,2c-1-0.8-0.7-1.1-2.4-1.5c-0.1,0.6,0.1,0.7,0,1.5C128.5,51.4,129.6,51.8,129.9,52.5z
		 M171.8,96.2c0.2,0.5,0.5,0.6,0.4,1.3c-0.8-0.1-0.8-0.5-1.2,0.1c0.8,0.5-0.1,0,1.1,0.3c0.4,0.1,0.7,0.4,0.9,0.6
		c0.5,0.6,0.5,1.3,1,1.9c0.2-0.9,0.2-0.8-0.1-1.5c0.3-0.2,0.1,0.1,0.5,0.4c0.2-1.7,0-2.9-0.5-4.3c-0.8-0.3-0.6-0.2-1.3-0.5
		C172.4,95.1,172,95.7,171.8,96.2z M158.9,149h2c0-3.3,0.1-6.5,0.3-9.7c0.1-1.5,0.8-8.1,0.5-9c-2.2,4.6-1.6,5.4-1.8,9
		c-0.1,1.8-0.1,3.4-0.3,5.1C159.5,146,159,147.6,158.9,149z M80.8,149H83l-1.8-11.2c0-1.4,0-2.9,0-4.4c0-2,0.8-2.3,0.8-7.9
		c0-2.4,0.7-5.9,0.3-8c-1.1,3.4-1.8,19-1.9,23.4C80.2,144.1,80.6,146.2,80.8,149z M187.5,149h8.2c-0.2-1.1-2.5-4.8-3.2-6l-3-6.2
		c0.1,1,0.3,2,0.4,2.9c0.1,1.1-0.1,2,0.1,3c0.1,1.2,1.3,3.2,1.2,4.9l-1.7-6.3c-0.6,0.9-0.8,2.6-1.3,3.7
		C187.7,146.5,187.4,147.3,187.5,149L187.5,149z M163.8,149h4.9c-0.1-1.6-0.5-1.8-0.1-3.4c0.6-2.4-0.4-8.2-0.7-10.7
		c-0.3-2-0.8-4.9-1.3-6.8c-0.5-2-2.4-2.5-2.1-5.7c-0.7,0.2-0.5,0.5-0.5,1.4L163.8,149L163.8,149z M220.4,149h6.1
		c-0.3-0.7-3.6-2.6-4.4-3c-1.8-0.9-1-2-3.5-3.8c0.7,0.4,1.2,0.9,1.9,1.3c1,0.7,1.3,0.6,2.4,1.1c1.2,0.5,3.6,2.3,4.8,2.3
		c0.3-0.9,0.2-1.8,0.3-2.9l0.7,5h4.9c-0.2-0.9-0.9-2-1.3-2.9c-0.5-1-0.8-1.9-1.4-2.9c-1.1-1.8-2.1-3.5-3.2-5.3
		c-1-1.7-2.1-3.7-3.1-5.3c-0.5-0.7-1.3-1.9-1.6-2.8c-0.3-0.9-0.4-2.5-0.7-3.6c-1.1-3.7-1.3-3.3-0.5-7.2c0.5-2.4,0.7-4.9,1-7.4
		c0.4-3.2-0.2-4.4,1.1-7.4c0.6-1.3,1-1.6,1-3.3c0-1.5,0-2.8-0.2-4.1c1.5,3.2,0.6,4,0.7,5.7c0.2,1.5,0.3,0,0,2.1c1,0.5,0.4,0.7,1,1.4
		c0.4-0.5,0.3-0.8,0.8-1.1c0.2,0.9-0.6,2.2-1,3.2c-0.3,0.7-0.2,1.1-0.4,1.8c-0.2,0.6-0.5,1-0.7,1.4c0.2-0.6,0.3-0.5,0.2-1.1
		c-1.2,0.1-0.7,0.1-1.1,1.2c-0.3,0.8-0.6,0.9-0.8,1.6c0.7,0.6,0.7,0.7,1.3,1.4c-0.3,0.6-0.7,1-0.7,1.8c0,1.1,0.4,1.3,0.1,2.2
		c-0.7,1.8,0,0.5-0.4,1.6c-0.1,0.5-0.6,1.1-0.8,1.7c2.1-1,2.1-2.7,2.8-4.7l0.1-0.3c0,0,0-0.1,0.1-0.1c0,2.9,0.3,1.3,0.4,2.8
		c0,0-0.1,0-0.1,0l-3.7,3.5c0.6,1.2,1.2,0.4,2,2l0.6,0.9c1-0.4,0.4-0.6,1.2-1.2c-0.1,1-0.2,2-0.7,2.6l-1.5-0.2
		c-0.9,1.9-1.1,0.7,0.2,2.4c0.4,0.6,0,0.4,0.6,0.8c0,0,4,0.8,4.3,0.9c0-3.4-0.7-0.5-0.9-5c-0.1-2.3-0.7-4.9-1.1-7.3
		c-0.2-1.6-0.2-0.9,0-2.5c0.2-1.1,0.4-4.9-0.1-5.6l-0.3,0.5c-0.1,0.2-0.2,0.4-0.2,0.6c-0.1,0.5-0.2,0.9-0.3,1.3
		c-0.3,1.2-0.3,1.4-0.9,2.2c0-0.9,0.1-0.9-0.2-1.4c-0.5-0.9,0.1,0.9-0.1-0.2c2.3-2.5,1.5-4.9,1.9-5.8c1.6-4.2,0.5-8.4-1.5-12.2
		c-0.9-1.6-1.6-4.1-3.1-4.6c-0.5,0.5-0.7,1-0.8,1.8c0.6,0.3,1.1,1.1,1.3,1.6c-0.5-0.4-0.8-0.7-1.6-1c-0.2,2.6-1.4,14.5-2.5,17
		c-0.5,1.1-0.6,0.8-1.7,1.2c-0.2,2.8,1.5,6.9,2,9.8c0.5-0.3,0.1,0.1,0.4-0.4c0.1-0.2,0.1,0.1,0.2-0.4c0.1,1.6-0.9,0.8,0.7,4.4
		l1.9,3.9c-1.1-2-2.3-3.6-3.5-6.6l-2.7-7.8c0.2,4.3,2.2,7,2.7,10.3c-0.7-0.9-2.5-5.2-2.8-6.7c-0.5-2.2-0.1-2.8-1.2-5.9
		c-0.4-1.2-0.1-0.9-0.1-2.1c-1.5,1.5-0.8,1.5-0.2,3.3c-0.3,0.5-0.6,0.7-1.4,0.8c-1.8-2.5,0.8-4.3,0.9-4.6c0.2-0.4,0.4-1.2,0.4-1.8
		c-0.3,0.5-0.4,0.9-0.7,1.4c-0.7,1.4-2.2,1.6-1.9,4.7c0.1,1,0.7,2.7,0.6,3.7c-0.1,0.7-0.4,0.8-0.6,1.5c-0.1,0.6-0.2,1.4-0.2,2
		c-0.2-1.6,0.1-6.5-0.7-7.4l-0.6,4c-0.2,1.5,0.3,2.7,0.4,4.1c0.3,2.8,0.3,5.6,0.6,8.4c0.3,2.9,0.6,12.7,3.6,14.4
		c-0.2-1.4-1.4-2.3-1.4-3.7c0-0.9,0.3-3.7,0.4-4.9c0.4,0.9,1,2.4,1.1,3.5c0.2,2.5,0.8,1.3,2,2.9C217.8,143.5,220.2,147.8,220.4,149
		L220.4,149z M224.9,85.7c-0.2-1.2-1.3-1.6-2.5-1.7C222.7,84.6,224.4,85.6,224.9,85.7z M201.3,96.4c1.2,0.5,3.4-0.4,4.8-0.4
		c4-0.1,4.9-1.1,8.1-3.2c1.7-1.1,2.3-1.9,3.2-2.6c-1.5,0.4-4.6,3.4-6.5,3.9c0.6-0.6,2.1-1.5,2.9-2c1-0.7,2-1.4,2.7-2.4
		c-1.7,0.5-2.3,1.5-3.5,2.2c-1.1,0.7-2.2,1.3-3.4,2.1c-1.9,1.3-1.3,1.3-4.1,1.5C205,95.5,201.9,96.1,201.3,96.4L201.3,96.4z
		 M156.9,100.1l0.5-2.5c0.3,0.5,0.1,0.2,0.2,0.6l0.3,0.7l0.8,0c0-0.1,0.1-0.2,0.1-0.2l0.3-1.2c0.5,0.7,0.3,1.8,0.8,2.4
		c0.6-0.3,1.6-0.6,2.1-1.3c-0.4-0.8-2.1-2.1-2.6-3.5c-0.6-0.2-1.2-1.3-1.7-1.8c-0.1,1,0.5,1.7,0.6,2.7c-0.2-0.2,0,0-0.3-0.4
		l-0.8-1.6c-0.6,0.4-3.2,4.1-3.3,4.5C154.4,99.4,155.8,100,156.9,100.1z M106.9,144.8c0.1-0.7,0-0.9,0.1-1.5
		c0.1-1.7,0.7-0.5,0.1-4.4c-0.6-3.8-0.1-2-1.1-5.9c0,0-0.1,0.1-0.1,0.2c0,0.1-0.1,0.1-0.1,0.2l-0.2,1c-0.1-3.2-1.1-4.7-1.9-7.4
		l-0.2,0.3c-1.2,3.8,0.2,5.6,0.4,7.2c-0.4-1.4-1.5-3.1-1.7-4.7c-0.2-2.2,0.2-5.1-0.6-6c-0.9,1.5-0.2,4.3,0.1,5.9
		C102.7,135.1,105.4,140.1,106.9,144.8z M74,145.3l-0.8,3.7h3.3c0-3.6,0-5.5,0.7-9c0.5-2.7,1.2-5.1,1.8-7.6
		c0.5-2.1,2.6-14.4,2.7-16.3c-0.9,1.8-1.5,4.9-2.1,7.1c-1.4,4.9-1.6,8.5-3.7,14.8C75.2,140.3,74.4,142.8,74,145.3z M215,99.5
		c0.2-0.4,0.5-0.6,0.7-0.9c0.7-1,2.1-2.5,2.1-3.3l-2,1.4c-0.3,0.4-0.4,0.7-0.7,1.1c-1.3,1.7-1.4,1.5-2.7,2.8
		c-2.6,2.7-0.7,2.7-3.7,7.3c-0.5,0.7-0.9,1.6-1.3,2.4c-0.5,1.3-0.8,1.5-1.3,2.4c2-0.5,4.2-2.3,5.2-4c1.6-2.9,1.2-2.8,3.4-6l3.9-5.5
		l2.4-4.7c0.3-1.3,0.2-0.3-0.1-1c-0.2-0.5,0.3,0.1-0.1-0.3c-0.4,0.7-0.9,1.5-1.3,2.2C218.3,95.3,218.7,96.6,215,99.5L215,99.5z
		 M171.9,149h3.2c-0.4-2.6-2.9-6.1-2.6-8.3c0.1-0.8,0.5-1,0.8-1.7l1.3-4.2c0.5-1.3,0.8-0.8,1.2-1.7c-3.1-2.3-3.9-1.7-5.9-3.4
		c-0.8-0.7-0.9-1.3-1.9-1.6c0.6,4.8,1.8,10.9,2.7,15.7C171.1,145.5,171.7,147.6,171.9,149L171.9,149z M165.1,107.2
		c0,0,0.1,0.1,0.1,0.1c0,0.1,0.1,0.1,0.1,0.1c0.2,0.4,0,0,0.1,0.3c0.1,0.2,0.2,0.5,0.2,0.8c0.8,2.6,2.1,1.4-0.1,4.7
		c-0.7,1-1.4,2.5-2.4,3.2c0.2-1.1,1.5-3.2,2-4.2C166.2,109.8,165.1,109.5,165.1,107.2L165.1,107.2z M166.5,104.1
		c0.9,0.6,1.2,2.5,1.8,3.5c3,5.4,1.4,4.1-1,6.7c-1,1.1-1.9,1.5-2.7,2.7l2.7-4.3c0.4-0.5,0.8-1,1.1-1.5c0.7-1.4-0.2-2.3-0.7-3.5
		C167.2,106.6,167,105.2,166.5,104.1z M192.3,116.4c1.9-0.7,2.6,2.3,4.7-0.3c0.2-0.3,0.7-1,1.3-0.8c0.1,1.3-0.4,2-0.7,3.1
		c0.8-0.3,0.7-0.6,1.2-0.8c0.7-0.4,0,0.4,1.3-0.1c-0.1,0.9-0.3,0.7,0.3,1c0.5-0.5,1.2-2.1,1.1-3.1l-0.5-3.6c-0.5-0.2-1-0.1-1.2-0.5
		c-1.3,0-2.1,1.4-2.4,2.3c-0.2,0.7,0.2,0.3-0.3,1c-1.1,0.5-2-0.2-3.3,0.4c-1.4,0.7-2.2,0.2-2,1C191.9,116.5,191.5,116.2,192.3,116.4
		L192.3,116.4z M208.2,149h2.7c-0.1-1.8-0.4-4.7-0.7-6.4c-0.4-2-0.5-4.5-0.6-6.6c-0.2-4.6,0.1-9.4-0.3-13.9c-0.6,4.6-0.1,6-1.1,9.9
		c-0.2,0.9-0.2,2.1-0.4,3.2C207.3,139.3,207.9,144.9,208.2,149L208.2,149z M178,112.6c0.1,0.1,0.1,0,0.3,0.3
		c0.7,0.8,0.5,1.3,1.2,1.7c0.1-3.9-0.2-3.3-1.1-6.5c-0.4-1.4-0.4-0.8-1-1.7c1.5,0.6,2.6,0.9,3.4,3.8l0.5-0.7c0.7,1,0.5,1.1,1.3,1.9
		c0.6,0.6,0.9,1.2,1.4,1.9c1.1,1.6,2.4,1.4,3.7,3c1.1,1.3,3.2,5.8,3.7,6.3l1.9,1.6c-0.5-3.1-3.2-5.6-4.4-7.2l3.3,3.4
		c1.3,1.9,1.8,5.8,3.8,7.8c0.9-0.2-0.3,0.4,0.3-0.3c0.4-0.4-0.2-0.4,0.2-0.3c0.1,0,0.2,0.7,0.2,0.9c0.2,0.8,0.7,1.4,0.7,1.9
		c-0.6,0.2-0.6,0.2-1.2-0.1c0.1,0.3,0.1,0.4,0.4,0.6c2.1,1,0.5-2.9,0.3-3.7c-0.7-3.1-2.9-3.9-3.8-6.2c-0.3-0.7-1.4-3.2-1.4-3.6
		c-0.8-0.5-1-1.6-1.4-2.4c-0.5-0.9-1.1-1.2-1.7-1.9c-1.6-1.7-6.2-4.6-8.1-6c-2.7-2-1-1.3-5.4-1.1c-0.1,0.8,0.4,1.5,0.8,2.1
		c0.8,1.1,0.8,0.8,1.2,0.8L178,112.6L178,112.6z M173.7,117.5c0,1.2-2.2,6.1-3.3,6.9c-0.6,0.5-1.6,0.8-2.1,1.4
		c1.3,0.8,1.9,0,3.6,1.4c4.5,3.5,3.3,2.3,9,4.1c1,0.3,1.3,0.6,2.1,0.9c-0.6-3.4-2.7-7.7-4.1-10.7c-1.1-2.4-4.5-8.7-4.3-10.4
		l-0.7-1.2C173.9,112.2,175.2,115.8,173.7,117.5L173.7,117.5z M193.8,83.1c0-1.5-0.4-2.2-1.6-2.4C192.5,82,193.1,82.6,193.8,83.1z
		 M223.8,82c1.3,0.7,2.2,1.5,4.6,1.1c-0.1-0.9-0.4-0.5-0.5-1.9C226.8,81.3,224.5,81.6,223.8,82z M136.8,143.5c0.7,0.7,1.1,0.2,2,0.7
		c0.4,0.2,0.5,0.4,0.7,0.7l0.4,1c1.4-0.2,0.2-0.4,1.3-0.8c0.2,1.4-1.3,1.7-2.5,1.9l0.2,0.1c1,0,3.7-1.1,2.4-2.8
		C141,143.8,137.6,142.4,136.8,143.5z M105.4,149h0.9c-0.1-2.3-0.8-6.9-1.9-8.5C104.2,142.7,105.3,146.6,105.4,149z M153.4,115.5
		c-0.6-0.2-0.4-0.3-1.2-0.4c-0.3,2.6-2.3,5.7-2.3,7.2c1.5-1.8,2.7-2,3.9-3.2c0.7-0.7,0.9-1.1,1.8-1.9c0.7-0.6,1.7-0.7,1.6-1.9
		c-0.8,0-2.8,2.5-4.2,3.4c0.4-1.4,2.7-4.5,2.7-6.1c0-1,0.1-0.3-0.2-0.7C154.8,113,155,113.9,153.4,115.5L153.4,115.5z M139.8,113.7
		c0.4-1,1-1.7,1.2-2.8c-3.2,0.4-5,0-6.9,0c-1.6,0-0.6-0.2-1,0.4c0.4,0.1,3,3.3,3.6,3.9l1.3,1.4L139.8,113.7z M199.6,82.1
		c0.5,0,0.4-0.1,0.8-0.3c-0.4,1-0.8,1.1-0.8,1.3c-0.3,0.9,0,0.3,0.1,0.5c0.7,0.3,0.7-0.6,1.2-1.4c0.4-0.6,0.8-1.1,0.8-1.9
		c-2.1,0.2-0.9-0.2-1.7-1.2c-0.3,0.6,0,0.7-0.1,1.3C199.9,81.2,199.7,81.6,199.6,82.1L199.6,82.1z M211,95.6
		c0.8-0.2,1.9-0.8,2.6-1.2c2.5-1.8,1.8-1.7,4.6-2.8c0.9-0.4,2.1-0.6,2.6-1.3c-1.4-1.1-2.7,0.2-3.9,1.2c-0.4,0.4-0.7,0.5-1.2,0.8
		l-2.2,1.7C212.7,94.5,211.6,95,211,95.6L211,95.6z M217.8,118.1c-0.2-1.5-0.9-3.2-1.1-4.9c-0.6-6.2,0.3-6.8,1.3-11.1l1-5
		c-0.5,1.2-1.5,3-2.2,4.3c-0.8,1.5-1.2,7.1-1,8.7C216.2,112.4,216.8,116.4,217.8,118.1L217.8,118.1z M206.1,102
		c1.3-0.7,0.2-0.9,3.8-2.4c2.8-1.2,6.2-4.4,8.4-6.7c0.6-0.6,1-0.9,1.6-1.6c-0.4,0.1-3.5,1.5-4.1,2.1l-6.6,5.6
		C207.6,100.1,207,100,206.1,102z M169.3,102.3c-0.2-1-0.7-1.1-0.4-2.1l3.7,1.5c-0.4-1.2-0.5-0.4-2-1.7c-0.6-0.5-0.2-0.2-0.8-0.5
		l2.4-9.9c-0.3,0.2-0.2,0.1-0.4,0.5l-0.8,2.5c-0.6,2.5-1.1,4.4-2.3,6.6c-0.5,0.9-0.5,1.5-0.1,2.5C169,102.4,168.6,102,169.3,102.3z
		 M78.5,149h1.3c-0.1-2.9-0.5-5.6-0.3-8.7c0.2-2.7,0.7-5.6,0.6-8.4l-0.3,1C78.9,139.9,78.3,140.9,78.5,149z M207.5,92.2
		c1.5,0,4.9-1.1,5.9-1.7c0,0,0,0,0,0.1l0.2,0.3c0.5-0.5,0.4-0.1,1-0.8c-1.8,0.1-1.3,0.1-2.7,0.7c-0.4,0.2-2.1,0.6-2.7,0.7
		c-1.7,0.3-1.9-1.5-5.2-1.5c0.8,0.5,2.2,0.6,2.7,1.3C207.1,91.5,207,91.8,207.5,92.2z M150.6,68.1l1.8-0.1c0,0.7,0.1,0.9,0.2,1.4
		l0.2,1.3c0,0,0,0.1,0,0.2c0.7-0.4,0.7-0.8,0.8-1.8c0.1-0.7,0.5-1.7,0.4-2c-0.7-0.1-1.4,0-2,0.1C151.1,67.1,150.8,67.1,150.6,68.1z"
		/>
</g>
</svg>
