<?xml version="1.0" encoding="UTF-8"?>
<!DOCTYPE svg PUBLIC "-//W3C//DTD SVG 1.0//EN" "http://www.w3.org/TR/2001/REC-SVG-20010904/DTD/svg10.dtd">
<!-- Creator: CorelDRAW -->
<svg xmlns="http://www.w3.org/2000/svg" xml:space="preserve" width="84mm" height="53mm" version="1.0" style="shape-rendering:geometricPrecision; text-rendering:geometricPrecision; image-rendering:optimizeQuality; fill-rule:evenodd; clip-rule:evenodd"
viewBox="0 0 84000 53000"
 xmlns:xlink="http://www.w3.org/1999/xlink"
 xmlns:xodm="http://www.corel.com/coreldraw/odm/2003">
 <defs>
  <style type="text/css">
   <![CDATA[
    .fil0 {fill:#373435}
   ]]>
  </style>
 </defs>
 <g id="Слой_x0020_1">
  <metadata id="CorelCorpID_0Corel-Layer"/>
  <path class="fil0" d="M59357.9 44481.3c120.9,125.6 141.4,42 200.9,228.9 -213.3,-9.6 -424.3,-241.8 -449,-447.7 282.6,52.4 97.5,62 248.1,218.8zm2522.8 -23784.9c11.5,3.7 27.9,-1.4 33.7,13.4l105.8 51.3c126.3,24.8 129.1,-77.5 131.8,-80.8l97.5 -35.1c112.5,-153.9 495.7,-389.9 606.8,-341.1 122.1,126.2 83.2,173.1 293.5,191.9 143.5,12.9 336.5,5.7 486.4,10.7 222.4,218.5 428.7,399.6 560.2,646.4 -94.2,222.4 -971.3,922.9 -1166,1210.3l-207 -8.3 -6.2 -3c3.7,-25.1 3.5,-40.1 -28.2,-13.7l-391.1 -190.6c-120,18.2 -1091.4,-261.5 -1211.7,-324.3 -9.3,-204.5 37.8,-902.5 95.5,-1031.6 232.7,-116.2 332.1,-18.7 538.1,-65.6 91.5,-20.8 6.1,19.7 60.9,-29.9zm-8382.4 -6362.7c-10.5,-88.5 -37.7,-124.7 -67.9,-207.6 -58.5,-159.5 6.8,-98 -127,-149.5 -84.7,242.7 -78.5,402.1 -20.1,649.2 75.8,257.8 120.6,299.1 231.7,497.9 141,253.3 91.8,286.6 246.5,421.8 -42.4,47.7 80.3,58.1 -94.7,28 -58.1,-133.5 -165.7,-248.9 -247.6,-393.9 -54.8,-96.8 -164.5,-358 -215.2,-413.9 -149.5,-561.7 -501.1,-1166.9 -407.7,-1840.9 48,-345.2 108.9,-630.2 173.8,-949.2 51,-251.4 80.1,-774.4 145,-960.8 24,-711.4 44.1,-1420.5 -9.6,-2120 -26.2,-341.8 -57.5,-660 -98.4,-1000.8 -27.6,-232 -147.1,-714.9 -125.2,-931.9 -81,-105.1 -76,-344.1 -98.2,-471 -24.5,-140.6 -61.8,-304.1 -106.6,-445.5 -78.5,-247.1 -201.1,-653.5 -215.2,-898.8 232.9,44.4 1318.2,840.4 1486.5,927.9 207.3,107.3 210.1,47 529,281.8l1380 1035.4c148.5,120.1 236,298.4 478.8,317.7 11.9,120.6 -404.9,571.9 -559.6,758 -190.4,229.1 -416,570 -542.6,834.7 -379.9,793.4 -435.5,1354.2 -246.4,2269.5l47.3 6.4c-42.7,277.3 267.1,1371.3 804.1,1735.5 205.2,139.1 366.6,117.3 601.7,256.8l2174 1195.2 170.4 3109.5c14.4,162.6 134.2,680.8 -120.1,647.2 -189.8,-24.8 -106.3,-513.6 -126.3,-693.8 -68.5,-622.7 -72.5,-1957 -155.7,-2270.5 -143.5,-541.7 -271.5,-380.3 -891,-736.2l-2330.9 -1345.1c-112.7,-59.8 -184.3,-50.1 -289.1,-104.7 -130.6,-385.6 -403.9,-993.2 -354.4,-1432.7 -60.6,-67 -47.3,-88.2 -56.6,-144.5 -6.2,-35.2 -8,-133.5 -11.6,-178.7 -28.7,-357.2 -78.5,-641.3 -34.4,-1027.6 82.2,-713.5 -47.3,-596.2 284.1,-1152.2 197.2,-331.1 376.7,-557.3 624.8,-866.5 198.1,-247.2 639.6,-623.5 638.9,-766.3 -178.9,-0.3 -259.4,135.3 -340.7,209.9 -90.1,82.8 -18.6,36.5 -127.8,88.9 -12.8,66.8 -580.6,651 -619.7,686.3l-123.9 89.2c-17.9,137.1 -727.3,915.5 -870.8,1107.7 -813.5,1089.8 -958.2,1680.2 -566.5,3064.5 119.6,422.5 473.8,908.2 561.5,1455.5 165,91.2 194.8,176.8 448.4,251.5 208,61.2 380.1,90.7 586.3,147 601.2,164.3 1683.8,504.8 2174.6,770.9 288.3,156.3 823.8,300.2 971.3,479.3 8.6,14.6 275.8,1869.5 128.4,2143.5 -62.1,115.9 -232.8,328.5 -307.8,441.5 -9.6,6.9 -23.2,15.5 -29.7,20.6l-77.9 68.1c-148,-20.8 -553.7,-154.7 -672.6,-241.7l133.5 -266.3c76,-115.8 175.4,-258.6 260.8,-375.9 147,-202.6 154.6,-157.8 171.1,-472.3l-14.7 -869.9c124.5,7.2 211.6,16.2 291.2,-29.5 31.9,-197.9 -37.6,-161.7 -215.2,-240.6 -263.6,-117.4 -610.1,-338.2 -986.8,-384.2 -366.9,-171.1 -2151.8,-784.1 -2560.8,-753.2 -128,-108 -189.7,0 -316.3,-231.9 -62,-113.5 -148.9,-234.8 -156.8,-345.4 -45.6,-39.8 -22.2,-14.3 -60.6,-68.8 -21.2,-29.8 -25,-44.4 -40.9,-72.1 -72.8,-127.3 16.4,-49.8 -102.1,-142.5zm7155.6 24607.9c20.9,183.3 18.8,73.5 -25.7,103.2 -103.8,-86.1 -129.5,-150.9 -261.5,-176.4 21.8,146.3 132,258.2 248.1,333.2 -1.7,70.3 -17.4,70.6 -21,82.9 -13,47.3 -27.6,-14.7 -17.4,60.9 11.5,85 102.7,98.4 162.9,125.3 14.7,147.3 188,129.7 259.3,324.9l-203.6 -88.2 -2.2 129.9c118.3,69.9 147.4,130.8 254.7,255.3 -3.2,10 -11.9,21.2 -15.1,27.9 -68.4,135 -74.6,124.9 -43.1,203.1 65,161.8 126.3,24.3 192.6,325.3 2.2,11.2 2.6,21.5 5,32.4 59.3,232.7 132.4,33 350.9,654.9 68.9,197 54.5,336.1 90.7,552 68.2,410 445.5,1018.5 546,2015.6 -109.8,-31.5 -292.6,-177.1 -351.2,-253.9 -137.1,-179 50.3,-47.7 -170.7,-351.9 -204.2,-281.6 100.1,-122 -110.6,-365.9 -83.5,-96.9 -117.2,-140.3 -213.7,-277.3 2.8,-101.8 14.7,-68.9 31.2,-215.5 -187.2,-88 -142.4,-208.4 -322.5,-304.6 4.7,-254.3 187.6,-83.2 -238.4,-558.8 -5.8,-6.1 -15.8,-16.9 -24.5,-24.8 -314.2,-500 -92.9,-175.4 -130.2,-407.8 -14.3,-92.2 -192.9,-252.6 -256,-345.2 54.4,-216.2 11.7,-6.4 103.2,-185.4 -95.1,-250 -123.8,-117.3 -217.7,-371.3 -100.1,10.1 -64.2,-36.8 -155.3,-157.8 -51,-67.8 -48.1,-48.7 -89.7,-99.6 -162.5,-199.8 45.2,-161.2 -126.6,-350.9 -203,-225.2 -679,-739.2 -768.4,-963.8l-5.7 -77.8c73.9,60.2 94.7,59.5 149.6,140.6l253.9 337.5c129.9,221.3 -17.6,144.9 242.5,168.9 -81.1,-209.2 -158.1,-172.5 -255.8,-394.5 -161,-78.6 -412.8,-562.9 -623.1,-691.6 -88.5,-198.4 -434.7,-462 -383.7,-726 -138.5,9.3 -49.6,-44.9 -120.9,29.8 14.7,167.9 142.1,417.8 188.7,561.3 109,337.9 226.7,1523.5 331.8,1891.5 110.9,389.2 184.4,820 310.6,1190.1 62.7,184.8 366.2,980 353.7,1103.8 120.2,90.7 63.1,146.7 213.4,400.3 309.9,523.3 233.1,721.1 411.2,1260.1l289.4 813.2c78.6,342.1 97.9,657.2 120.5,1039.8 -133.4,-43.7 -231.8,-145.6 -384.9,-275.8 36.5,-175 130.6,-92.5 69.9,-285.1 -16.1,-51.3 -141.9,-166.4 -180.8,-205.5 -297.3,-296.7 -58.8,-253.3 -195.1,-511.5 -67,-127.1 -118.7,-80.8 -148.1,-228.3 -36.9,-182.4 68.4,-67.3 -59.6,-265.4 -211.6,-327.2 0.8,-316.7 -196.9,-482.1 -107.7,-59.6 -97.9,-91.1 -181.1,-102.2 -77.9,-141.7 -469.3,-609.8 -659.3,-686.1 -0.7,388.3 123,402.8 116.9,628 -185.1,-39.8 -40.9,26.8 -167.5,-69.6 -17.6,-140.3 -98.4,-281.9 -127,-444.8l-192.3 -1533.5c158.2,43.1 149.9,57.1 241.1,180.4 97.1,131.4 383.8,502.5 503.5,577.6l-0.9 -106.2 -132.1 -106.2c38.1,-165.4 -2.9,-14.6 62.7,-119.7 123.9,-198.5 -23.6,107.8 48.9,-65 -65.4,-159 -126.3,-170.4 -253.7,-257.5l40.3 -108.7c34.8,-143.2 -263.6,-488.6 -376.3,-574.2 -94,43.7 -22.3,14.3 -79.7,84.9 -80.3,98.9 88,-16.9 -68.9,92.2 -91.7,-93.9 -46.2,-35.2 -70.3,-180.8 -17.9,-107.3 -11.7,-148.8 -82.9,-242 -4.5,-405.1 -266.4,-1881.2 -293,-2378.4 -51,-954.1 -227.1,-1634.5 -297,-2451.3 -66.7,-106.1 -152.3,-881.2 -133.4,-1064.7 149.2,10.8 240.7,213.1 330,312.2 113,125.4 200.5,219.5 314.9,324.9 35.5,241.5 97.3,265.8 221.3,402.2l309.3 456.6c66.3,157.4 -113,107.2 399.3,545.6l69.4 59.9c127.8,225.6 796.8,915.7 1030.7,1096.2 -125.7,-113.8 -228.9,-263.4 -442.7,-294.9 46.7,194.8 194.1,306 312.8,390 -16.1,105 -4.3,23.3 -34.4,76.3 -123.4,217.8 3.6,-93.2 -48.8,72.1 55.6,86.1 15.7,18.7 85.7,67.1 105.9,233.5 661.8,580.8 695.2,737.2 -135,-28.8 -330.4,-288.1 -509.4,-360.6 -7.9,17.6 -10.1,15.7 -16.1,54.8l3.9 44.2c146.8,64.7 153.9,106.6 272.2,237.1 65.3,72.1 166.2,179.4 248.6,185.9zm8671.7 -2228.3c85.7,-77.4 126.3,-153.6 55.2,-245.4l-29.1 -168.5c146.4,-109.9 254.4,-265.5 242.6,-452.7 -109.8,13.3 -33.8,-26.9 -142.1,35.8 -71.4,41.7 -34.1,9.7 -60,87.5 -54.4,-32.3 -79.1,143.2 -31.5,-89l254.8 -393.5c32.9,-27.9 90,63.9 66.3,-138.3 -16.2,-141.1 11.4,59.1 -34.8,-77.2 -8.3,-23.6 -11.9,20.8 -22.9,-96.1 70.6,-156.4 257.9,-351.2 371.2,-496.5 142,-182.5 882.1,-1331.9 1114.5,-1470.2 58.1,-89.8 -7.6,-13.3 82.1,-81.9 26.9,-20.4 38.5,-21.5 71.7,-44.1 66.8,-45.2 74.3,-40.1 108.4,-110.2 79.9,-34.4 119.4,-50.1 235.3,-56.2 97.2,-222.7 53.8,-183.1 223.5,-338 164.6,-150.2 76,-212.6 289.1,-331.4 -107.2,328.6 -351.9,414.6 -387.8,714.9 297.4,-100.1 -28,40.6 332.9,-338.2 96.2,-100.8 652.1,-869.9 612.7,-990.7l-65.3 -68.9c-4,-3.3 -15.9,-8.3 -23,-13 53.8,-72 90.8,-129 127.4,-211.2 73.5,-164.7 38.4,-129.2 -83.9,-130.6l45.1 -152.1c61,-61.3 147.8,-231.8 143.2,-326.1 -9.7,-198.8 -48.8,26.7 -43.1,-176.8 1.7,-69.9 28.4,-72.1 47,-158.1 6.8,-5.8 92.9,-27 73.2,-116.3 -16.5,-73.5 -7.2,-13.6 -76.1,-43.4l-51.3 -22.6c91.6,-122.3 132.4,-148.5 143.1,-294.5 -143.1,34.1 -332.8,266.5 -365.2,340l-11 -92.8c59.6,-55 198.4,-213.1 196.9,-319.7 108.3,-81.7 167.8,-186.1 252.2,-338.6l-80.4 -148.5c74.2,-142.8 132.4,-135.2 184.4,-303.7 46.2,-150.1 24.8,-275.2 54.1,-431.9 120.6,-645 350.6,-1416.3 463.8,-2032.1 14.1,-74.6 25.9,-160 38.4,-217.4 37.7,-173.7 -16.5,-122 90.1,-165.8 39.1,81.8 53.4,210.7 72,294.2 51.7,233.5 25.5,236.8 113.4,330.4 -27.2,152.7 127.4,512.6 183,680.9 23.7,72 80.4,258.6 112.6,331.8 45.5,103.2 102.5,127.6 150.6,228.8 107.7,91.3 127,243.9 192,383.4 60.6,130.2 118,250 180.4,380.3 86.4,180.7 384.9,587.8 370.1,699.8 64.7,49.8 26.2,11.8 85.4,62.7 11.9,10 56.4,55.6 59.6,60.3 36.6,51.6 26.6,58.5 52.4,128.8l986.8 1768.1c57.4,113.2 104.7,169.6 152.1,254.6 53.8,97.5 82.7,149.5 131.5,241.7l636.7 1324.4c71.1,126.5 91.2,109 156.6,214.5 25,107.7 -453.5,1096.6 -523.5,1216.3 -94.3,162.1 -75,106.3 -142.4,304.6 -54.9,162.1 -365.2,522.3 -421,803.8 -119.9,90.1 -58.6,164.4 -283.1,179.7l-27.7 -60.6c-41.2,-129.4 10.2,73.9 -18.9,-67.8l-27.7 -281.1c-217,-19.5 -154.6,124.4 -259.7,291.2 -18.2,-26.9 -23.2,-16.1 -41.2,-87.9 -33.7,-133 12.2,-213.3 24.7,-304.2 24.1,-169.2 20.5,-252.5 -125.1,-273.6 -40.3,45.8 -25.1,40.8 -52.4,118.3 -0.7,161.1 11.4,179 -103.3,237.4 -56.7,-102.5 -22.6,-141.9 -20.9,-253.6 109.4,-101.1 140,-307 34.1,-422.5l-85.6 -63.1c15,-76.5 34.7,-225.9 35,-298.1 1.2,-222.7 -57.4,-213.8 -102.5,-252.2l-111.3 207c-3.1,-6.1 -12.4,16.1 -20,22.9 -9.8,-273.3 146.6,-741 11.4,-951.5 -91.8,35.8 -98.6,-62.5 -136.3,342.1 -22.9,149.6 -72,411.8 -161,541l-62.1 -203.7c-1.4,-39.6 13.6,-178.3 19.8,-222.5 59.5,-429.7 157.1,-604.4 153.9,-1078.2 -234.7,164.6 -136.7,1072.8 -371.3,1167.9 -81.1,-169 311,-1686.6 222.8,-1857 -148.5,53 -112.3,602.5 -279.5,784.1 -7.9,-641.7 249.7,-1067.9 238.3,-1432.7l-90.1 66c-4.3,-7.9 -18.3,11.9 -27,18.3 17,92.2 -677.2,3207.9 -935.8,3685.3 -140.3,259.1 -227,513 -381.3,772.7 -211.7,355.5 -172.8,577.2 -307.3,845.1 -121.8,242.6 -700.7,1359.1 -854.2,1437.3 -28.7,-49.8 -50.9,79.3 -11,-85.6 10,-41.4 616.9,-1072.6 627.3,-1192.8 -204.5,29.4 -823.9,1183 -931.9,1382.5 -147.4,272.9 -840.8,1205.9 -982.6,1278.4l-82 40.2 19.3 -83.6c153.3,-273.7 695.2,-761.9 781.7,-1091.7 -306.8,75.8 -500.1,638.6 -768.7,805.7 73.8,-307 903.8,-1172.8 948.3,-1535.2 -177.1,61.1 -886.3,1208.6 -1029.1,1400.4l-771.2 1012.6c-80,107.6 -209.1,272 -331.1,314.9 20.8,-152.4 282.7,-402.4 473.9,-691.5 297.3,-449.5 1394.7,-1854.9 1447.6,-2122.5 -173.6,69.6 -175,146.3 -332.1,375.6l-1443.7 2011.6c-162.5,223.5 -507.2,554.3 -628.1,825.8 -96.8,19.1 -178,140.6 -283.7,223.4l9.6 278.1c-475.6,297 -526.5,626.5 -805.2,664.6 35.4,-164.3 297,-466.3 462.4,-747.2 151.7,-257.5 243.4,-507.5 414.6,-739.7 153.4,-207.9 367,-413.1 520,-628.7 171.2,-240.6 109.4,-696.7 162.6,-808.9 32.2,-68.9 10.7,-23.4 59.8,-63.1 -44.1,-222.5 -109.4,-155.7 -21.5,-335.4 94,-191.9 49.2,-73.9 19.8,-295.6 69.9,-44.5 19.6,-5.4 73.5,-57 249.3,-240 103,-273 110.1,-480l38.4 -100.1c93.6,-63.5 100.5,-45.8 37.4,-194.5 -2.9,-6 -11.9,-13.2 -14.1,-28.2 -2.1,-15.9 -11.4,-19 -14,-29.7 121.7,-112 97.9,-68.6 126.7,-253.4 -279.5,57.2 -185.1,152.8 -573.6,571.8l-159.6 199.5c-118.8,125.8 -256.2,234.3 -387.1,367.3 -220.9,224.6 -247.5,297.3 -429.7,350.7l86.5 -255.6 -119.9 48.4 -98.9 20.1 25.5 -93.7c69.9,-78.9 22.9,-40.1 118,-96.5 21.2,-55.9 -3.3,-5.4 36.2,-64.9 13.2,-20 31.9,-41.2 45.9,-59.9 33.7,-45.5 40.9,-44.5 63.5,-95.7 82.8,-62.8 26.1,78.2 82.8,-81.1 -7.9,-19 -37.7,-92.2 -37.9,-93.6 -14.8,-57.1 -13.7,-6.2 -4.1,-97.6 85.1,-149.9 219.3,-214.9 217.1,-428 -2.5,-255 108,-292.3 194.4,-444.8 205.1,-133 88.9,-140.9 56.7,-304.8l186.5 -302.4zm1664 -22170.1c-45.5,28.4 -7.5,-12.9 -65.7,51.3 -12.1,13.7 -42.2,58.6 -61.2,85.1 -101.6,144.2 -71.1,38.1 -77.5,174.4 -102.3,141.2 -128.1,139.1 -179.3,262.5 -129.6,156.7 -234.3,372.3 -336.6,561.8 -30,56 -22.6,48.7 -59.8,91.8 -96.2,110.1 -12.3,20 -89.1,76.3 -11.5,197.3 -459,636.8 -526.9,813.2 178.7,141.8 547.1,108 778.8,371.6 125.2,31.3 225.9,87.5 317.1,152.1 213.8,151.8 101.9,142.8 262.6,187.3 106.9,-114.8 166.4,-231.4 165.3,-375.2 171.8,-140.6 615.6,-1516.9 630.2,-1613.1l78.3 -237.4 107.5 -250.1c19.8,-63.9 52.7,-171.8 76.5,-258.2 52.7,-190.9 185.7,-384.6 93.6,-530.5l-146.4 291.9 -574 -337.9c43.9,-314.2 318.2,-408.9 200.2,-604.8 -123.7,84.4 -87.4,99.4 -166.8,249.7l-426.8 838.2zm-9126.1 5581.2c-151.7,6.7 -10.7,0.7 -243.2,-116.3 -38,-19 -6.1,-69.9 -126.2,-31.9 -119.2,37.4 -86.8,93.6 -102.3,148.5 -51.2,98.4 -128.4,201.9 -236,279.8 39.1,-180.9 146.7,-175.4 186.2,-380.9 -171.2,40.8 -105.9,25 -280.6,300.6 -522.6,824.2 -199,600 -331,1452.3 -197.3,5.5 -433.4,-113.6 -589.1,7.9 108.8,153.2 501.9,83.9 696.7,126.3 218.8,47.2 444.8,80.3 668.5,136.7 395.7,99.3 936.7,311.6 1312.6,376.9l138.5 123.8c323.1,-195.2 883.4,-914 1088.9,-1002.6 73.2,-147.1 315,-350.1 483.6,-500.7 177.9,-159.3 322.1,-379.8 542.7,-399.6 45.9,-47.4 18.6,-38.8 101.6,-70 52,-19.4 110.8,-19.8 166.7,-26.5l1995.2 -376c206.2,-69.9 319.9,-60.6 456.5,-211.8 136.8,-151.8 223.9,-219.2 353,-351.6 109.1,-111.5 603.3,-633.5 627.8,-721.7 306.3,-146.1 375.2,-605.2 766.1,-649.6 189.3,-21.2 267.3,-53.1 416.9,-68.6 -90.5,203.8 -990.8,1003.7 -1130,1312.5 -81.7,26.5 -465.6,454.2 -593.3,586.8 -586.8,612.4 -777.6,398.9 -1814.9,595.1 -410.9,77.8 -716.5,35.8 -1130,91.5 -60.6,57 -207.7,163.9 -288.5,239.2 -153.8,143.9 -694.7,744.3 -829.2,822.3 -26.2,52 -17.6,21.4 -52.4,77 -32.2,51.7 -27.5,20.5 -36.6,70 -127.3,65.9 -69.5,25.4 -175.8,132.4l-789.8 861.9c-196.3,-21.9 -1219.2,-498.6 -2066.1,-628.8 -434.1,-72.1 -961.3,-159 -1467.5,-68.2 -190.5,34.5 -441.2,145.3 -589.8,227.1 -154.8,85.4 -359.7,252.5 -513.6,304.5l6.9 2519.6 424 747.1c252.2,518 969.2,2207.1 977.4,2707.9l-117.6 -213.1c-45.6,-105.8 -53.6,-176.1 -87.5,-292.4l-1174.1 -2395.7c-99.4,-178.3 -80.6,-243.6 -247.2,-452.4 -72,-91.1 -180,-258.6 -283,-280.1 -258.6,-54.4 -221.6,222.4 -196.2,390.2 -58.5,83.4 -37.3,102.7 -55.2,190.6 -34.5,166.4 -22.2,112.3 -88.7,175 -91,-263.3 -383,-529.8 -521.5,-742.5 -96.5,-148.5 -430.4,-660.7 -596.9,-679.3 15.1,165.9 159.3,281.8 246.1,396.9 50.2,66.5 76,123.2 139.6,194.9l756.5 979.5c0,0.4 76,57.2 -11.9,166.2l-823.2 -1174c-84.3,-128.5 -39.1,-105.1 -180.5,-144.3 37,123.8 676.2,1070.1 823.3,1281.3 59.9,86.5 265.5,287.4 188,425.5 -164.4,-181.5 -334.3,-498.3 -477.4,-729.3l-411.8 -627c-56.8,-67.5 -24.1,-51.3 -113.8,-78.2 22.6,107.5 762.6,1285.5 912.9,1542.4 183.6,312.5 -39.8,1242.9 -58.8,1273.1 -101.6,-24.1 -58.1,-3.3 -139.9,-108l-326.1 -493.2c-283.4,-403.9 -1140.6,-1654 -1387.8,-1815.5 -0.4,-1.4 -8.3,-158.8 -243.5,-8.2 -100.9,64.2 -84.4,93.7 -242.2,138.5 -125.2,-83.2 -330.7,-303.5 -439.8,-418.6l-675.5 -588.4c-84.9,-61.2 -172.8,-103.5 -268.6,-175 -181.8,-134.5 -283.4,-295.5 -509.7,-409.6 -213.7,-346.2 -131.6,-149.5 -255,-731l-189.7 -848.7c-71.5,-407.9 -76.5,-1551 -51.4,-2007 130.3,39.5 252.6,205.6 354.8,339.4 113.4,147.8 239.6,248.6 299.8,391.7 94.2,33.3 470.4,474.5 541.6,548.4 116.3,120.2 493,473.1 611.7,537.8l0 460.2 -5.7 816.7c-29.4,30.9 41.9,75.3 -43.8,19.4 -98.6,-89.3 -380.3,-410.4 -545.6,-420.8 50.9,309.6 -50.5,289.8 147.9,426.5l806.6 717.8c-298.9,-58.5 -623.3,-517 -855.1,-559.9 48.5,280.8 467,425.4 510.7,696.5 -120.9,-38.4 -130.1,-107.5 -256.3,-174.3 28.2,152.8 107.1,193 218.6,270.8 103,71.4 205.3,166.1 307.5,227.4 91.8,-125.8 -32.3,-97.2 179.4,-169.9l96.1 -30.8c-52,-131.4 -48.4,-59.3 -87.5,-186.6 137.3,22.6 76.4,36.2 244.3,67.4 -28.3,-205.5 -82.2,-182.1 24,-313.9 468.8,-581.8 1157.4,-1062.4 1920.4,-1171.1l328.6 416.7c102.6,178 -45.5,69.7 123.8,166.8 36.2,-52.4 45.2,-68.8 80.7,-130.5l-361.2 -467.3c-140.2,-190.2 -222.7,-270.5 -372.6,-448.1 -80.1,-93.9 -246.2,-377.4 -395.7,-403.6 -201.6,-35.4 -529.9,-27.6 -703.4,16.2l-1395.4 58.5c-81,-126.6 -233.5,-251.5 -371.3,-368.1l-743.6 -779.4c-126.9,-148.9 -264.3,-282 -126.2,-489.6 180,-2.9 24.1,-28.1 160.6,59.2 82.9,125.8 185.9,226.6 292.1,325.3 117.7,109.4 161.3,214.5 274.3,321.4l650 540.5c320.3,185.9 1825.8,-133.4 2242.7,9.4 95.7,133.1 726.6,903.2 836.4,927.9 101.6,22.7 922,-539 1179.7,-656.1 372.8,-110.3 380.4,-156.3 803.9,-192.6 51.4,-166.8 43.9,-1727.1 5.8,-2008.6 -11.5,-85.8 -63.4,-183.7 -53.8,-269.6 21.6,-188.9 72.1,-41.9 133.9,-223.3 -68.6,-138.5 -76.5,-51.3 -111.6,-239.6 467.7,-25.9 1674.4,612.9 2182.7,816l0.7 100.3 -46.3 40zm6897.8 -12183.8c106.9,-68.4 19,26.2 118.4,-113.4l239.6 -428.6c84.1,-106.1 106.6,-77.1 177.3,-228.1l47 -101.5c3.8,-7.2 10,-15.8 14.2,-22.9 68.3,-118.8 55.6,-45.6 89.4,-211.7 -148.2,27.6 -137.4,91.1 -203.3,143.8 -46.7,-52.3 -20.2,0 -27,-100 86.8,-51.7 870.9,-767.7 950.2,-883.8l595.5 -814.3c30,-48.8 54.1,-94.1 85.3,-136.7 70.7,-95.8 49.5,-83.5 147.8,-133.5 -49.2,226.7 -779.1,1257.3 -985.7,1597 -118,194.7 -198.8,381.3 -316,574.3 -146.4,240 -123.8,328.6 -331.6,525.2 -200,189.3 -200.4,300.9 -336.8,551.6 -361.8,665.1 -924.6,1551.1 -1233.8,2260.6l-1230.8 2255.8c-168.5,282 -164.2,254.4 -459.8,402.5 -153.6,76.7 -458.7,205.2 -542.3,359.8 215.2,-9 250.3,-106.2 419.5,-196.6 591.3,-314.6 343.1,0.4 910.1,-940.8l876.7 -1597.7 1293.8 -2360.3c81.9,-145.2 154.4,-318.5 240.8,-463.4 123,-205.9 199.4,-218.1 314.3,-429.8 84.1,-155.3 144.2,-281.5 247,-456.2 184,-313.9 323.6,-628.8 541.3,-907.9 413.5,-529.4 910.1,-1585.8 1076.9,-1822.5 112.5,-159.7 182.5,-283.1 290.5,-452.8 141.4,-221.6 173.6,-360.2 307.7,-417.9l125.3 484.6c-48.2,-101.1 -58.5,-112.2 -118.4,-188.6 -199.9,76 -261.4,253.2 -346.5,426 -86.8,176.9 -156.8,324.7 -228.2,525.3 -129.1,361.9 -257.5,729.2 -398.4,1085 -290.6,733.5 -442,1670.5 -314,2570.5 90.1,635 404,1708.6 648.6,2306.9 157.8,386.2 246.1,662.4 437.9,1045.5 101.3,202.3 425.9,720 493.3,981.5 190.1,213.4 37,1428 -0.4,1766.9 -64.2,584 -367.3,1846.7 -569.6,2375.8 -379.5,993.5 -507.8,1058.4 -557.4,2156l-36.6 199.2c-2.5,6.7 -7.9,19 -13.6,27.2 23.6,106.6 30.9,221.3 -9.4,337.3l-43.4 89.6c-3.9,7.9 -10.7,20.5 -17.9,29.4 37,124.4 24.7,128.7 5.1,267.6 -3.7,23.3 -15.9,99.4 -21.7,123.8 -31.9,132.7 -18.8,68.4 -28.3,76l-9.6 318.9c260.8,-314.2 230.3,-1074.7 310.6,-1596.6 54.5,-355.8 11.2,-488.8 149.6,-806.3 97.8,-225.3 171.7,-446.3 281.1,-664.3 112.1,-445.6 287.8,-923 401.1,-1368.5 40.6,-159 277.7,-1444.6 283.4,-1453.9 204.1,-2080.9 167.2,-1506.2 -680.4,-3209.6 -239.3,-481 -910.4,-2502.8 -906.1,-3106.8 161.7,81.1 319.5,349.4 437.6,532.8 126.9,196.8 312.1,369 450.1,552.3 395.4,525.8 886,1151.5 1229.7,1706.6 132.4,214.6 205.5,426.3 345.8,655.5l328.9 493.6c538.4,907.7 602.2,683 -87.2,1177.8 -44,31.7 -88.9,67.9 -137.3,91.9 -138.9,70 -364.5,45.6 -381.7,372.4 94.8,-37.4 28.7,-12.9 93.6,-72.9 134.9,-125.4 776.6,-461.7 810,-471.7 92.1,-170.6 185.4,-137.6 264.3,-318.5 -47,-117.7 -124,-248.9 -188.6,-341.1 -77.2,-109.8 -123.7,-192.6 -189.8,-299.5 -257.2,-417.9 -519.7,-732.9 -734.3,-1233.6 -161.1,-375.6 -913.9,-1301 -1201.3,-1726.5 -204.8,-302.7 -739.6,-842.6 -835.4,-1140.6 181.3,63.8 1872.5,1386.7 2060.8,1657.6 88.9,128 421.5,570.7 566,564.5l-86.7 -751.4c-55.3,-233.3 -108.7,-447.6 -168.3,-672.3 -63.9,-240.6 -89.8,-506.8 -149.2,-750.7 -62.8,-258.3 -144.2,-471.7 -137.8,-748.6 151,151 365.5,1124.8 426.5,1343.7 49.9,179.4 109.8,279 151.1,425.8 88.9,315.9 120.9,618.8 197.6,949 26.9,116.7 107.5,302.2 137,435.5l253.2 1464.3c88.6,494 358.3,2594.5 247.2,3083.1 -17.9,78.9 -5,40.8 -35.1,85.3 60.9,262.9 -153.2,3764.2 -185.6,4379l-14.3 482.6c-11,75.3 7.2,-4.7 -13.9,70.2 -21.2,76.4 -11.9,52.1 -41.7,95.8 43.8,115.5 -203,3491.6 -316,3597.8l-682.9 2391.4c-172.2,565 -164,783.5 -244.6,1276l-261.2 1270.5c-117.8,129.6 -77.5,238.8 -85.4,395.3 -35.2,-4.3 -122.7,-147.5 -334.3,-219.9 33.3,201.6 19.4,169.6 124.1,283.8 64.2,70.6 99,57.3 61.7,152.3l-83.6 -132.3c-32.7,-50.5 -53.7,-73.1 -94.4,-127.7l-185 -222.4c-224.5,-293.7 -481,-726.8 -770.1,-936.9 -186.2,-135.2 -180.5,-313.5 -389.5,-422.9 93.6,-207.4 94.9,10.4 111.1,-305.3 -174,24.5 -134.9,-6.1 -238.9,101.5 -41.9,43.4 -55.5,80.7 -87.9,138.9 -5.3,9.6 -20.5,39.8 -25.8,49.4l-68.6 112c-60.6,109 -45.8,-29.8 -61.2,192.2l206.8 131c98,68.5 510.8,664.6 587.3,780.2 114.7,173.6 91.5,263.2 319.6,314.2 -17.9,-163.6 -174.2,-400.3 -302,-513.3 -153.9,-136.3 -218.5,-258.6 -314.6,-480l902.9 1179.1c67.8,128.8 -17.6,74.2 122.3,166.2 146.7,-84.8 60.6,-24.1 111.5,-166.9 94.4,216.5 64.2,103.3 175.4,223.4 -56.6,67.9 -48.7,49.6 -91,140.3 -47.1,102.6 -434.5,509.7 -556.1,650.8 -202.3,234.1 -369.4,399.8 -580.4,646.9 -192.1,225 -960.1,1103.1 -1250,1243.7 -10.1,113.3 -1841.3,1721.3 -1893.9,1745.1 -54.9,321.1 -1764.1,1053.1 -1878.6,1347.7 348,-43.4 850.1,-577.6 1154.7,-663.6 -50.3,166.7 -90.4,154.9 -308.5,319.9 -507.9,384.5 -582.5,348 -735,454.1 -133.5,92.5 -205.6,151.1 -351.2,242.9 -148.9,93.9 -199,160.6 -330.8,260.7 -92.8,70.6 -272.5,171.2 -365,227.8 -303.2,185.1 -574.4,165 -973.9,182.9 -732.2,32.7 -1469,95.4 -2159.8,154.7l-1776.7 21.2c-347.1,-3.3 -374.8,46.9 -486,-104.4 -242.9,30.8 -958.4,-788.5 -1243.6,-1019.5 -65.3,-53.1 -162.5,-97.6 -217.3,-152.1 -69.7,-68.5 -69.7,-115.5 -162.2,-210.2 -115.5,-118.4 -252.9,-224.5 -397.8,-381.6 -363.4,-393.9 -751.8,-742.2 -1070,-1193.5 -200.9,-284.8 -455.9,-537.7 -715.7,-810.3 -422.2,-443.6 -939.7,-1271.9 -1224.9,-1820 -206.3,-395.4 -174.4,-767 -316.4,-1172.3 -169.3,-1193.8 -623.4,-2393.5 -808.5,-3459.7 -64.9,-374.5 -238.1,-803.5 -279.8,-1157.2 173.2,68.6 229.2,193.3 344.7,315 461,484.6 273.7,189.1 472.4,862 138.9,470.3 354.1,1551.4 519.8,2116.7 40.5,138.4 158.2,370.8 175.7,472.8 -4.3,95.4 -15.8,83.9 -34.8,182.2 71.4,124.1 -2.1,15.4 96.5,64.1 98.4,153.3 239.3,180.9 303.5,350.5 -194.8,-63.1 -54.1,-95.4 -269.4,-126.3 66.1,187.7 289.2,233.9 332.5,411.2 -149.5,-58.1 -107.5,-119.1 -294.1,-147.1 56,187.9 394.3,314.9 432.3,544.9 -160.8,-52.8 -156.8,-144.7 -330.7,-211.7 53,279.7 313.1,232.8 386.6,523.3 -142.4,-78.9 -116.9,-141.6 -257.9,-176.4 29.4,156.8 162.1,199.5 233.5,317.4 -4.3,158.2 -145.3,157.4 119.4,391.7 74.7,66.1 27.7,29.4 89.4,61.7 -11.4,247.2 27.2,-27.6 -85,187.9 163.5,350.2 378.7,237.6 472.1,696.7 41.2,203.1 91.8,211.6 214.8,331.4 159,154.7 68.9,212 321.1,310.7 29,94.3 663.1,823.9 931.9,847.2 131.2,-250 -138.9,-1717.5 -224.9,-2139.3 -89.4,-438.3 -191.9,-1651.9 -361.9,-2166.2 -58.2,-176.2 -493.4,-881.3 -654.3,-1058.1l-694.1 -976.1c-442.7,-608.3 -282.4,-449.5 -789.2,-921.2 -165.4,-153.8 -1494.7,-1282.4 -1561.1,-1411.4 -29.4,-57.1 -38.7,-117.7 -56.6,-169.7l-65.6 -123.7 -31.7 -124.5c223.8,34.8 795.9,558.8 980.8,745.7l661.1 600.1c42.6,38 69.5,64.6 111.2,109.4l125.9 123.5c521.8,393.4 1375.1,1830.7 1689.4,2145.7 919,920.4 801.7,1694.8 982.9,2911.6 80.7,544.5 134.1,1179.7 213.7,1721.7 41,279.1 109.1,1655.9 167.2,1771.7 73.9,147.8 419.3,713.5 595.1,847.9 459.9,351.3 501.1,473.6 774.8,673.7 86.4,63.1 195.8,132.7 302,184 106.2,50.9 349.4,98.6 376.3,112.6 1069.3,43 2284.9,26.3 3311.1,-82.4 489,-52 1135.7,-22.4 1574.8,-133.9 335.1,-84.9 298.7,-166 551.6,-299.9l379.6 -251.7c157.1,-100.5 59.2,12.9 120.5,-125.9l-209.1 27.2c-1.4,1.4 -5.5,11.4 -42.7,45.2 -282,253.2 -299.5,93 -537.7,-68.1 -136.3,-92.2 -147.8,-149.6 -243.6,-270.8 -90.6,-115.2 -365.4,-451.7 -427.2,-588.3 -41.6,-124.1 -43,-128.4 -125.9,-212.3 143.2,-226.8 325.7,-398.6 372.7,-494.4 172.5,-351.8 57.1,-71.7 236.4,-320.3l407.9 -554.9c5.4,-6.5 12.5,-15.1 18.3,-21.2 82.4,-87.8 113.6,-59.5 163.8,-165.3 148.9,-314.3 -36.5,-21.6 234,-333.4 176.8,-203.6 -101.9,-79.1 142.4,-340 98.2,-104.8 174.2,-123.6 178.5,-327 -255.3,48.4 -420,318.8 -507.1,519.7 -169.3,391.6 -73.9,123.7 -235.7,284.4 -139.2,138.1 3.2,192 -208.3,284.5l-521.6 658.6c-318.9,344.3 -389.6,557.1 -549.9,549.2 -127.7,-139.2 -204.9,-279.1 -312.9,-406.4 -126.6,-149 -282.6,-318.6 -342.1,-462.4 -85.3,-29.4 -572.9,-671.5 -626.6,-801.4 -37.7,-196.2 209,-515.5 320.6,-691.5 138,-217.8 250.4,-478.2 358.7,-676.9 116.5,-213.4 674.6,-1255.1 691.2,-1381.3 196.5,-203.1 259.7,-512 411.1,-752.7 136.3,-217 309.6,-560.6 380.5,-774.4l122.4 19.4c95,90.4 387,691.8 408.2,818.9 116.9,110.8 78.2,256.1 147.1,461.9 119,355.9 959.9,3112.9 945.1,3330.3l77.2 180.5c39.1,93.2 21.5,62.4 79.6,120.1 144.2,-11.5 309.9,-196.6 334.3,-292.7 142.5,-112.7 19,-210.9 -62,-497.9l-144.6 -583.6c-47.3,-79.6 -328.3,-1213.1 -363.4,-1432.6 -34.8,-217.4 -101.1,-522.3 -160.7,-746.5 -113.3,-424.4 -88.6,-340.5 -14.7,-791.7 89,-544.9 299.6,-926.1 526.6,-1280.1 202.6,-316.1 553.4,-844.9 861.6,-972.2 276.2,-366.9 1514.1,-128 1574.4,245.8 86.8,48.7 17.6,0.7 78.2,53.4 17.9,15.9 58.8,59.9 72.7,79.6 94.1,136 157.8,467.1 197,618.1 125.5,483.8 666.5,2377.5 622.4,2624.2 48.7,43.5 17.1,5.5 59.2,74.7l91.8 200.9c16.4,-194.5 -28,-345.9 -71.8,-525.9 -43.7,-179 -53.9,-354.1 -51.3,-565.7 131,143.8 80.1,364.1 211.7,511.2 22.6,-374.2 -288.2,-1257.3 -159.3,-1463.1 147.1,96.4 139.2,598.1 167.2,774.7 25.4,160.7 112.7,563.9 167.1,699.1 72.4,-120.8 -141.7,-1146 -178.6,-1492.1l-23 -222.4c-47.7,-166.2 -171.1,-103.4 -31.1,-285.6 175.2,-228.1 76.7,-215.6 246.7,-387.8 4.6,-4.7 18.6,-6.8 21.9,-20 3.2,-13.3 14.4,-14.1 22.2,-20.5 40.5,-185.2 200.9,-243.2 224.6,-403.1 -231.5,23.6 -434.1,599 -579.7,652 -75.3,-162.8 233.5,-617.4 353.3,-756.8 74,-86.5 113.4,-100.1 130.5,-243.2 -106.1,40.5 -83.2,50.5 -154.9,144.2l-384.2 416c-0.3,-8.9 1.1,-20 1.1,-29.3 0.4,-349 -38.7,-110.2 -61.3,-271.9 -18.7,-134.1 9.4,58.8 6.1,-110.5 -4.6,-234.6 -203.4,-930.8 -236.5,-1182.3 -150.9,-1156.2 -398.3,-856.6 150.7,-1612.4 124.5,-170.7 519.1,-628.1 519.5,-832.6 -101.2,40.2 -124.9,81.9 -188,161.1 -117.3,147.1 -66,134.9 -231,188 77.8,-283.4 293.7,-331.8 372.3,-641.1 -161.8,63.6 -146.7,98 -260.1,224.7 -141.5,157.4 -527.6,609.1 -651.6,653.2 45.8,-196.7 804.1,-970 939.7,-1281 47.3,-27.2 26.9,8.3 83.2,-58.5 -59.9,-236.8 -0.3,-510 233.5,-579.3 136.1,-246.3 538.5,-669.6 732.2,-852.3 201.5,-190.1 423.6,-362 592.9,-594.4 67.7,-92.9 79.3,-159.5 189,-210.5 99.1,-210.9 149.6,-205.2 289.2,-351.5 149.5,-157.1 136.5,-277 242.1,-424 110.4,-154.6 205.9,-230.6 306.3,-364.1 79.3,-105.5 179.7,-303.1 292.7,-353.9 92.5,-236.2 479.6,-529.9 502.2,-854.1 -167.1,28.2 -116.6,-0.9 -202.6,135.5 -50,78.6 -57.4,107.2 -109.5,183.3 -67.4,98.6 -177.2,263.6 -264.3,366.6l-578.6 685.5c96.2,-306 793,-962.8 914,-1280.3 -77.9,-75.3 5.3,-31.2 -136.3,-48.3 -33.8,93.9 -543.2,763.6 -630,813.2l-411 621.6c-207,209.4 -520.8,130.2 -730.3,307.3l-1020.6 1034.2c-5,4.3 -14.6,13.2 -22.9,19.1 -40.2,150.6 -190.9,180.7 -346.6,305.1 -175.4,141.1 -792.3,863.8 -1000,979.7 -21.8,72.9 -735.3,764.4 -884.9,814.3 -1.8,-352.7 10.7,-707.5 10.4,-1058.2 -0.7,-266.9 -55.2,-822.6 150.7,-891.4 1.7,-169.3 39.4,-63.5 -29.1,-143.8 -130.9,58 -113,64.6 -161.4,154.6l-116.3 38.7c53.5,-270.8 262.3,-259.7 331.6,-552.4 -229.3,69.6 -431.7,490 -689.1,544.9 58.8,-224.6 654.9,-661.1 693.3,-918 -175.1,34.8 -678.3,777 -951.3,845.2 78.5,-189.9 734,-815.4 828.6,-985.4 193.4,-105.5 -35.1,-148.2 193.8,-414 109.7,-127.7 208.3,-230.2 347.1,-359.7l482.6 -520.1c114.4,-131 93.5,-136 187.9,-162.6 7.5,-8.5 19.7,-16.1 25.4,-21.8 208.9,-210.3 55.3,-198.1 16.5,-226 16.5,-178.3 -346.5,-514.7 -483.2,-658.2 -79.1,-83.2 -491.4,-540.3 -589.6,-557.7l-84.7 -148.7c77.5,-160 295.9,-336.4 420.7,-476.3 112.4,-126.2 307.1,-437.2 376,-500.7 60,-124.1 114.1,-354 193,-456.6 405.3,-526.3 962.1,-1490.9 1212.1,-2056.1 131.8,-298.8 221.6,-637.8 334.9,-929.8 59.3,-254.3 128.9,-505.4 -36.9,-752.5 -40.8,-61 -5.4,-21.9 -62.8,-67.2 -6.1,-84.2 -231.4,-625.2 -284.8,-766.8 -57.4,-153.3 -85.4,-290.3 -141.3,-424l-444.8 -1146.8c-77.1,-233.6 -167.2,-569.9 -251,-786.3 -209.2,-11.1 -336.2,96.9 -479.3,204.9 -264,199.3 -148.8,-89.6 -629.9,635.5 -279.1,420.9 -1080.7,1845.6 -1245.8,1974.3 6.1,112 -865.5,1551.8 -1034.1,1875.7 -270.9,520.8 -29.1,248.6 -383.9,467.7 -51.5,31.9 -28.6,13.8 -63,63.1l305.2 -25c74.6,204.1 183.7,682.6 202.6,950.9l29.5 131.7c10.7,120.2 19,184 49.8,300.6 8.7,32.6 34.5,123.7 35.3,154.5 0.2,9 -0.8,21.2 -1.5,29.1l-25.5 82.1c-186.1,87.3 -383.2,-18.3 -601.8,99.7 -231.5,124.5 -167.3,95.1 -209.2,33.4 -74.3,-108.3 19,-81.1 -88,-285.9l-29.1 -38.7c-369.7,43.4 -435.3,288.4 -659.8,323.9 14.3,-125.9 237.7,-244.6 437.1,-370.5 115.9,-46.2 114.5,-25.5 181.5,-137.7l-194.8 -74.4c65.4,-39.4 31.7,-44.1 64.3,-94.2 94,-45.6 56.6,-21.9 64.6,-91.5 -7.3,-9.7 -18.7,-34.8 -23,-28 -21.1,36.2 -5,7.5 -97.3,-120.5 56.5,-46.7 84.1,-81.5 174.1,-97.7 -3.2,-113.9 -17.9,-89.9 -73.9,-173.6l87.2 -41.2 108.2 -62c-12.9,-270.9 -72,58.2 -10.7,-229.9 34.8,-81.8 87.6,-126.7 137,-221 -314.9,2.4 -482.5,229.3 -731,318.5l-1386.1 778.4c-110.1,62.4 -231.3,102.2 -347.8,171.5 -310.8,184.3 -1418.7,929.7 -1616.4,1129.5 -177.5,179.4 -128,684.4 -121.9,990.1 11.4,574.9 -5.5,576.7 615.6,1012.2 180.3,126.7 280.4,92.2 222.9,312.9 -234.8,86.3 -576.3,-232.9 -737.3,-350.2 -360.6,-262.2 -327.7,-282.4 -332.7,-826.1 -3.5,-354.4 -26.5,-757.5 10.9,-1107.4 35.5,-333.8 123.7,-337.1 525.4,-629.5 321.8,-234.2 2613.6,-1710.6 2842.5,-1680 58,-161.2 37.9,-64.3 7.4,-116.6 -442.5,97.1 -1027.2,607.6 -1385.2,727 -42,57.7 -934.8,618.8 -1087.3,706.3 -478.5,274.3 -660.7,474.6 -1042.4,772 4,236.7 -26.9,1764.8 29.8,1921.9 215.2,271.8 796.3,512.5 974.2,742.8 -21.8,118.4 -86.4,207.8 -162.8,322.9 -159.3,4.3 -521.2,-287 -647.8,-380.3 -224.2,-165.7 -481.4,-282.3 -526.2,-495.3 -98.4,-469.6 -6.9,-1436.6 -2.9,-1934.4 1.7,-221.1 -33.4,-275.6 118.4,-428.8l835.1 -687.2c233.8,-177.6 947,-725.3 1224.5,-760.8 76.1,-99.7 417.6,-229.6 617,-333 435.1,-226 455.9,-168.9 636.3,-253.6 221.4,-104 398.2,-255.3 601.6,-332.1 200.2,-76 435.7,-177.3 523.4,-328.9 231,-103.7 574.5,-898.2 726.3,-1161.5 389.9,-676.1 933,-1797.1 1304.6,-2409.1l507.2 -909.6c56,-101.1 144.2,-204.5 135.9,-298.5zm-10782.5 12010.8l6.7 124.2 -92.5 -52c-60.6,-26 72.9,-30.2 -133.8,-40.2 -26.2,271.1 46,560.3 44.1,617 -0.4,11.5 -14.7,110.8 -15.4,116.2l-242.5 139.8c-554.9,150.7 -1655.8,203.4 -2253.4,97.6 -135.2,-79.3 -174.7,-132.6 -298.4,-220.3 -174.3,-123.3 -139.2,-54.4 -287,-232.4 -118.7,-143.5 -377.7,-497.2 -399.8,-694.4 283.9,-163.9 717,-98.7 1085,-122.7 187.9,-12.2 266.1,-52.7 519.7,-54.6 144.9,-1 417.6,18.4 506.5,-57.3 770.6,86.8 862.7,-342.9 1468.2,240.3l92.6 138.8zm12820.4 18507.7c-190.6,317.1 -981.8,1217.4 -1008,1421.6 227.1,-25.5 371.9,-350.1 628.4,-694.6l819.6 -1107.6c203.1,-336.8 633.6,-886.7 743.3,-1216.7 -45.6,-61.4 26.9,-12.6 -101.8,-25.5 7.1,110.2 -190.5,308.1 -254.8,405 -98.3,148.1 -166.7,279.4 -270.7,433.3 -106.6,157.1 -426.6,713 -556,784.5zm-2075.1 -20124l395.7 -30.1c-43.2,119.2 -169,259.3 -267,343 -50.1,42.6 -8.9,14.3 -68.2,45.5 -48.4,25.8 -22.2,8.9 -71.3,27.9l-42.7 14.1 -132.4 86c-35.5,-33 -3.2,9.4 -59.5,-56.9l-84 -113c-130.5,-156.8 103.4,38.3 -54.4,-46.3l-43.8 96.8c-833.7,671.5 -856.7,1110.8 -2395.4,1184l-855.6 32.7c-257.2,0.4 -219.8,6.1 -284,-48.4 -200.9,20 -500.8,-130.2 -779.2,-229.6 -156,-56 -67,-10.7 -86,-57.4 -113.7,-20.5 -186.6,-34.1 -276.5,-101.5 94.2,-236 459,-984.7 730.3,-1002.6 167.1,-207.2 748.5,-273.7 1075.3,-374.5 188.3,-58.4 338.7,-133.4 519.8,-164.9 545.6,-94.4 1434.5,-176.2 1881.4,64.1 103.7,56 560.2,375.2 646.7,388.9 160,25.4 92.9,-27.6 250.8,-57.8zm120.1 19935.7c227.1,-46.3 563.9,-361.3 698.1,-628.5 129.5,-257.2 413.9,-473.5 501.8,-706.3l-94.7 -226.7c-147,59.2 -142.4,86.5 -204.4,209.9 -54.6,108.3 -89.7,142 -142.5,233.5 -100.9,-23.4 -43,-53.4 -135.9,-82.9 -56.7,44.5 -126.3,90.1 -166.4,149.9 -38.9,57.9 -41.7,35.5 -26,106.2 39.1,170.8 -61.5,-139.2 21.6,45.6l32.3 47.4c-81.8,61 -129.2,97.8 -166.1,185 -57.3,134.1 -31.2,23.4 -11.8,126.6l34.4 97c-71,35.8 -123.3,115.8 -177.2,172.1 -114.1,118 -114.4,107.9 -163.2,271.2zm-2979.7 -10248.1c59.2,-126 24.3,-94.8 -17.9,-209.5 -36.7,-99.4 -53.5,-131 -32.4,-310.8 44.8,-380.8 801.4,-1961.3 998.3,-2317.8 91.2,-164.7 146,-286.3 227.5,-447 56.6,-112.2 234.9,-275.8 161.4,-430.7 -180.9,48.7 -423.3,635.5 -521.2,821l-853.4 1855.9c-44.8,114.1 -43.8,142.8 -66.3,262.2 -28.8,150.8 -61.4,153.2 -77.9,264.3 -20.1,133.5 33.1,171.2 61.3,267.7 50.3,171.1 -44.4,171.8 120.6,244.7zm-721.8 -440.2l-36.5 48.1c-367,478.5 -250.8,469.1 -545.6,1017.6l-562.5 1149.4c-106.8,72.7 -228.1,352.8 -305.9,512.9l-766 1263.3c-186.4,322.8 40,272.9 -218.3,239.9 -18.4,-88.9 -105.2,-250.1 -146.7,-372.3 -64.2,-189.8 -100.5,-210.5 -124.4,-464.5l-49.6 -100.5c-9,-36.9 -23.3,-154.9 -29.4,-195.8 -18.7,-127.3 -43.1,-247.5 -64.9,-357.3 -48.1,-242.8 -93.3,-466.3 -138.5,-699.4 -82.5,-428 -201.6,-1009.7 -236.4,-1449.8 -19.4,-241.5 -132.4,-400.4 -132,-669.5 0.4,-324.2 -236.1,-1450.2 -303.8,-1910.7 -9,-60.6 -11.9,-47.7 34.8,-95.8l13.6 -153.2c-185,50.6 -96.5,-2.5 -73.9,-125.5 51.3,-275.8 -16.7,9.7 -32.7,-230.7 -6.7,-100.4 -14,-555.2 68.9,-659.3 -41.5,-317.1 42.4,-340.4 68.2,-588.6 -334.7,97.9 -228.8,487 -364.7,913.9 -116.6,-128.7 -44.5,-247.4 -75.3,-357.5 15.2,-353.3 6.4,-533 -17.4,-879.6 -17.5,-259.8 -113.7,-682.9 -7.1,-903.6 193.7,-75.3 1575.7,378.8 1732.1,509.1 359.4,123 210,260.3 694.6,-312.2l426.7 -463.4c102.3,-111.8 72.9,-113 174,-144.5l6.8 -92.7c129.5,-13.8 283.4,-342.8 471.1,-407.1 99.3,122.1 110.4,309.7 191.4,440.2 327.2,523.3 297,503.9 733.2,1082.9 295.6,392.2 249.8,408.9 362.3,564.3 50.3,68.8 65,81.5 121,177.5 180,309.9 523.3,466 263.2,751.1 -179.3,-95.1 -238.6,-338.5 -340.8,-489.9 -64.1,-95.4 -38.4,-83.6 -138.4,-116 20.8,216 274.4,472.5 366.6,672.4 79.9,173.5 -249.3,675.7 -249.3,675.7 -29.5,136.3 -64.2,151.7 -104.4,256.5 -50.2,132.3 -23.7,180.1 -59.2,312.8 -65.6,245 -598.3,1438.7 -604.8,1651.8zm9968.7 15668.8c186.9,-111.9 183.8,-198 308.2,-405.3 273.4,-455.6 58.4,-1709.8 279.1,-1831.1 204.1,-112.3 946.1,-276.3 1196.6,-304.6 156.1,-17.2 101.1,20.8 177.2,-82.8 210.5,-94.7 959.6,-1301.4 1068.7,-1477.9 517.8,-837.3 360,-398.2 108.2,-1305.4 -47.4,-170 -157.5,-381.6 -175.8,-511.8 454.2,-226.7 1135.7,-251.8 1300.3,-636.7l283.8 -678.6c56,-150.7 346.1,-643.6 -36.3,-670.2l-107.2 -107.6c-144.2,-115.1 -292.3,-122.2 -302.3,-271.5 582.1,-170.1 863.3,-403.9 1189,-311.7 685.8,193.7 1128.4,344.4 1741.5,601.6 446.9,187.6 534.5,72.5 1391.7,578.3 169,99.6 118.5,122.2 326.1,126.1l-19.3 -214.1c-188.3,-26.9 -578.7,-324.6 -820,-386.6l-685.2 -228.2c-243.2,-92.6 -176.7,-74.6 -223.1,-144.6l240 29.1c74.6,60.6 556.7,206.2 700.2,254.6 156.7,53.2 282.6,54.3 423.9,100.8 140.6,46 153.9,105.1 354.9,105.9 50.1,-290.6 -116.3,-278.8 -320.8,-360.9 -150.9,-60.6 -342.5,-143.5 -495.6,-186.2 -306.7,-85.6 -830.1,-155.2 -1044,-270.8l-286.8 -83.5c-259.8,-24.8 -524.1,-89.4 -754.8,-153.6 -90.7,-25.1 -239.6,-78.9 -304.5,-92.5 -113.7,-24.1 -278.4,-29.4 -331.7,-64.9 -220,-47.4 -348.1,-156.8 -518.7,-244.8 -110.6,-57.2 -430.2,-165.2 -429.8,-258.8 -251.1,-66.1 -283.8,-173.6 -552.8,-204.8 -224.2,-26.2 -443,-12.6 -672.6,-38.1l-807.1 -1535.3c-236,-381.2 -676.1,-1088.6 -921.5,-1379.1 -183.6,-217.7 -541.9,-700.9 -627.6,-923 -23,-13.6 -3.6,6.9 -49.6,-40.3l-521.5 -696.5c-66.7,-73.1 -668.3,-1043.1 -753.3,-1258.3 -74,-186.1 -132.4,-282.3 -198,-473.4 -38.4,-111.3 -272.6,-897.2 -305.6,-936.3 -31.2,-289.8 -157.5,-421.1 -94.6,-680.9l344.2 -1295.3 354.5 -2854.8c20.7,-263 15.7,-499.3 65.6,-739.7 13.7,-242.8 107.9,-1975.3 131,-2019.8l117.2 -3228.3c24.4,-565.7 21.5,-1205.7 -6.9,-1771.4 -15,-301.3 -195.4,-1432.5 -169.6,-1553.1 -37.7,-50.3 -5.4,10 -42.2,-83.2l-1071.9 -4601.1c-82.5,-401.4 -199.8,-752.2 -307.1,-1141 -63.1,-229.3 -71.3,-415 -128.7,-622.4 -100.1,-362.2 -402.5,-1126 -543.1,-1618.7 -64.9,-227.8 -275.5,-883.3 -384.9,-1057.6 -227.5,7.6 -251.8,140.7 -488.5,409.7 -80.8,91.8 -129.9,183.3 -211,268.9 -793.5,837.3 -1287.4,1165.6 -2249.4,1834.2 -719.9,500.1 -1074,455.8 -1245.5,545.6 -670.7,57.7 -1043.4,-29.5 -1657.8,-84.8 -511.2,-45.8 -1018.4,-129.4 -1559,-162.8 -334.7,-24 -765,10 -1109.4,37.4 -367.3,29 -739.6,50.5 -1118.8,77l-891.5 71.1c-170.3,53.8 -474.8,41.9 -656,70.7 -287.7,45.1 -458.8,47.9 -755.1,73.5l-1745.4 478.1c-120.2,73.9 -372.7,138.9 -531.2,173l-754.4 322.8c-145.2,71.3 -607.6,341 -753.2,282.6 -408.3,-164.4 -1688.5,-1189.8 -2043.2,-1297.8 -133.1,-40.8 -1158.3,-698.7 -1398.6,-832.9 -216.3,-121.3 -455.6,-370.2 -751.5,-335l-7.9 191.2 91.8 288.1 191.9 653.1 176.2 929.8 135.2 854.1 121.3 1188.2c26.9,296.7 90.3,1672.1 -26.6,1847.8l-60.2 615.9c-45.3,104.1 3.6,13.6 -45.6,68.4 40.9,187.1 -8.6,393.9 -54.1,586.6 -15.5,65.6 0,34.8 -29.5,94.7 -41.7,84.3 -1.7,23 -58.5,77.8 39.5,114.8 -112.7,940.2 -133.4,1166.8 -14,154.3 -11.9,1168 -98.7,1295.3 40.6,232.2 22.4,526.6 -3.5,766.6 -19.1,179.7 42.6,649 -99.4,741.8 68.5,184.7 20.2,896.4 -10.3,1131.7l1 372.8c31.6,117.5 -1.4,55.5 69.8,128.7 55.7,-173.6 147.2,-1724.6 158.3,-2024.1l158.2 -2058.6 108.7 320.2c57.7,208.8 221.2,732.5 391.4,886.4 14.6,176.2 224.9,436.2 350,600.5l14.4 1603.7c-214.9,52.8 -335.1,141.8 -524.1,217.4 -228.5,91.9 -396.4,96.5 -438.3,342.5 195.1,-37.9 407.8,-205.8 641,-291.6 469.2,-172.1 228.1,-146.3 728.6,-41.6l1473.5 511.5c191.2,71.7 495.6,225 678.4,314.6 247,121.6 465.8,180.1 744.9,268.7 86.1,137.4 441.2,259.7 594,326.4 55.6,24.4 136.6,49.9 213.5,78.9 100.7,45.6 566.7,598.4 668.6,620.2 134.8,28.7 341.9,-218.4 416.4,-311 122.3,-152.8 224.6,-240.7 372,-372 489.3,-435.1 336.4,-347.6 990.7,-157.8 370.2,107.7 1846.7,614.2 2077.9,817.8 -29.4,151.1 -65.8,108.4 -120.1,223.6 -187.2,68.8 -227,1.4 -422.9,-90.4l-1153.2 -478.6c-171.9,-53.9 -678.3,-269.8 -806.8,-233.1 -96.8,27.2 -241,183.7 -308.5,249.6 -137.7,134.9 -180.7,140.3 -265,291.7 -125.6,28.4 -318.2,357.9 -520.4,453.8 -158.7,-77.9 -184.8,-177.6 -303.6,-298.2 -98.3,-99.6 -221,-190.1 -320.6,-274.7 -522.6,-444.8 -442,-444.2 -683,-154.6 -454.5,0.3 -2638.2,59.1 -2963.6,108 -23.7,60.5 -34.7,21.4 -98.6,73.8 -194.8,55.6 -228.6,149.6 -397.5,-6.1l-840.5 -803 -35.8 -131.8c257.9,-12.5 300.3,3.6 497.2,81.2 620.5,520.4 727.1,264.3 1208.8,243.9 252.4,-10.8 564.2,-10.5 817.5,-2.6 243.6,7.9 663.2,57.4 737.8,4.7 -63.9,-122 -330.4,-144.2 -449.4,-185.8l-2157.6 -802.9c-167.1,-24.6 -578.2,296.3 -750.1,380.4l-114.4 28.6c-8.6,34.1 -11.5,78.2 -28.3,111.2 -65,123.4 18.5,22.6 -97.3,110.1 -71.7,-184.7 -101.1,-194.4 -331,-198l8.5 313.6c37.4,69.5 116.3,2662.9 183.3,3067.6 78.9,478.2 170.9,880.6 272.7,1342.3 103.6,466.9 194,930 332.5,1366.3 96.2,307.7 639.3,2067.9 599.4,2335.8l243.6 809.6c112.6,325.4 572.4,2427.7 505.1,2667.4l47.7 92.1c91.1,240.7 -10,333.3 126.5,468.1 5.8,543.4 1531,2300.7 1991.9,2828.4 282.6,323.5 213.1,176.9 276.2,702 37.3,312.8 254.7,1397.5 225.3,1640.6 6.4,8.6 12.1,20.9 15,28.1 3.3,7.5 10.5,19.7 14.1,28.6 3.2,9.3 7.8,19.8 11.4,30.5l24 132c24.8,169.3 74.4,411 58.9,575.5 76.1,80.6 67,258.9 86.8,478.8 14.7,166 10.4,347.3 12.8,514.7l87.3 950.3c36.2,216.6 153.9,739.6 80.7,913.6 -30.9,72.7 -144.6,244.9 -192,327.5 -43.7,77 -135.2,332.1 -147.3,349.3 -54.9,420.4 -154,434.4 -364.5,661.8l-472 501.1c-71,199.1 -344.1,476.3 -467.1,639.9 -134.2,178 -289.8,472.5 -474.9,541.7 -44.8,145.3 -262.6,402.8 -386.8,602.3 -27.1,43.4 -27.9,49.8 -55.9,88.9l-44 51c-1.5,-5 -9.8,10 -15.2,14.6 -52.3,141.3 -215.8,384.2 -307.4,538.5 -109.3,184.7 -168.6,388.2 -407.1,383l-124.8 129.6c-39.1,32.7 -62.4,47.7 -100.8,79.9 -130.2,110.5 -584.7,493.2 -691.9,519.1 -99.7,162.8 -394.6,379.8 -554.9,497.2 -116.7,84.9 -182.3,149.9 -292.3,227.4 -88.3,62 -197,184 -292,190.4 -80.4,124.5 -122.7,143.8 -244.4,238.9 -92.9,72.5 -125.9,128 -245.7,149.7 -62.4,131.6 -453.6,389.5 -575.3,516.8 -100.4,104.7 -139.6,186.1 -264.7,291.7 -76.8,64.8 -203.5,186.5 -290.6,203.4 -61.7,111.8 -142.4,163.2 -255,252.8 -101.6,81.1 -148.5,116.9 -247.9,197.6 -95.4,78 -185.4,138.5 -262.2,221.3 -82.5,89.1 -127,175.1 -211.2,193 -82.2,175 -147.5,165.8 -274.5,287.3 -234.1,225.4 -471.3,769.1 -609.5,885.3 -94.2,288.8 -293,481.7 -383.7,751.5 -30.2,90.1 -274.5,757.7 -308.5,794.9 -51.3,378.8 -287.7,752.5 -378.5,1416.1 -102.6,749.4 -720.9,534.2 3435.7,544.6 1158.9,2.9 2381.7,42.7 3532.9,5.3 25.5,-172.1 76.7,-744.2 180.7,-855.8 -36.2,-172.5 232.2,-1250.8 272.7,-1487.6 93.9,-549.9 488.2,-1298.8 759,-1867.7 118.4,-249.6 210.6,-336.1 343.6,-547.5 107.6,-171.3 245,-376.9 340,-547.6 72.9,-130.3 90.1,-163.6 168,-278.8 125.1,-184 61,-159.2 204.5,-236.3 22.5,-230.7 603.3,-689.8 568.5,-960.6 -143.5,67 -108.7,208.4 -312.2,238.9l55 -1338.4c3.9,-267.9 22.9,-246 126.2,-330.4 12.3,-175 336.2,-328.9 394.2,-575.3 -172.1,53.8 -206.5,127.7 -326.4,271.2 -241.4,288.4 -616.3,601.9 -1000.4,637.4 -58.4,71.8 -1524.1,989.2 -1956.7,1418.3 -152.8,151.5 -442.3,477.1 -554.9,504.8 47,-297.8 987.8,-1639.3 1148.2,-1918.8 73.2,-127.3 323.5,-504.4 439,-593.6 17.9,-98.3 503.3,-644 590.5,-751.9 223.4,-277.6 440.1,-521.1 798.1,-577.1 220.9,-34.4 406.8,-11.2 493.1,-205.9 199.8,-452.3 69.3,-1217.8 232.2,-1747.7 134.1,-197.2 68.4,-399.1 128.4,-677.9 136.2,135.3 65.6,326.8 93.3,613.8 17.1,182.2 56,161.7 78.6,184.7 -38.2,502.6 43.6,1430.1 10,2006.2 -15.2,265.1 94.2,1683.1 -16.9,1985.8 35.5,48.4 19.7,17.6 43.8,96.8l236 2102.1c54.6,429 293.7,1881.7 265.8,2138.5 55.6,62.5 3.6,-30.4 39.4,75.4 13.3,38.4 22.6,89.3 30.9,130.1 17.2,86.8 24.8,128.5 46,215 156.3,634.5 341.8,1429.7 558.3,2027.7 58.2,160.3 259.5,721.8 258.4,803.5 204.1,132.3 1224.6,76.1 1536.4,76.8l3193.8 6.8c565.6,1.8 451.2,97.2 1084,-516.6l1624.9 -1567.9c158.9,-131.6 261.8,-251.1 409.6,-370.9l691.7 -497.1c284.8,-189.4 -2.6,111.1 772.5,-453.1 640,-465.9 1998.4,-1288.5 2363.6,-1608.4l861.5 -735.4c348,-316.3 944.2,-859.4 1175.8,-1234.9 176.9,-286.3 476.4,-645.3 716.7,-884.6 513.4,-510.1 325.4,-349.4 733.7,-865.6 121.2,-153.8 618,-780.5 632.6,-922.6zm1893.6 -2703.2c-133.3,57.5 -1403.5,202.4 -1520.5,328.2 -121.9,131.7 -120.5,1224.7 -182.9,1623.3 -81.4,517.2 32.2,537.2 -690.5,503.9l-112 -127.7c-18.6,-220.6 -234.9,-267.3 -324.5,-472.5 -131.3,-300.9 53.7,-615.2 47.3,-657.9 140.3,-36.5 91.5,-39.6 252.2,-355.6 76.7,-150.7 165.3,-269.8 172.8,-457.9 -158.8,56 -110.4,55.7 -204,182.3 -38.8,-68.9 151.7,-337.2 222,-465.3 152.8,-276.9 -58.1,-77.7 14,-385.1 26.8,-115.2 40.2,-77.2 53.5,-237.9 -118.9,52.4 -74.6,-8.9 -225.4,249 -52,89 -87.8,206.2 -175.7,237 -0.8,-59.5 482.8,-796.3 527.7,-1096.5 -177.3,59.6 -192.3,207.4 -416.1,555.2 -49.2,-36.2 -14.1,14.8 -24.1,-100.4 67.8,-38.3 561.1,-854.1 582.9,-1005.8 -148.1,53.8 -326.4,410.3 -418.2,554.1 -73.5,115.6 -130.6,165.9 -200.2,286 -65.3,112.6 -81.4,210.6 -197.7,271.3 18.4,-151.8 800.7,-1377.2 928.4,-1631.1 83.2,-165.7 120.9,-134.2 187.6,-250 81.8,-142.5 12.9,-145.7 143.8,-275.5 221.4,29.5 97.6,67.4 242.9,134.4 151.3,70.1 135.9,-10 470.5,198.8 94.4,58.8 129.6,57.4 220.3,110.5 525.5,307.1 619.9,354.3 612.3,728.5 228.1,-87.2 38,-111.8 228.6,-150.4 0,189.9 -117.1,212.8 -156.2,451.4 288.9,-90.1 89.7,-214.2 360.6,-291 -46.4,228.6 -270.5,430.4 -308.9,686.7 262.3,-95.1 227.9,-438.8 447.4,-523.1 -21.6,132.7 -55.7,150.3 -124.9,251.1 -93.9,137 -347.2,594.7 -357.2,707.7 305.2,-172.5 440.2,-835.4 723.8,-832.6 -3.9,224.3 -781.2,970.7 -799.6,1256.9zm-410 1121.7c147.1,12.6 773.8,432.9 985.4,557.1 61.7,36.2 108,67.9 159.7,101.1l170.4 152.1c219.1,21.6 1730,1058.9 1904.7,1288.8 293.7,86.9 1035.5,962.5 1314.6,1005.8 -12.6,-184.3 -321.4,-396.6 -447.7,-488.1 -338.6,-244.6 -869.1,-754 -1422.3,-1140.6 -82.2,-57.5 -90,-35.7 -100.7,-107 -172.6,-68.9 -381.7,-215.2 -535.2,-332.5 -169.3,-129.2 -153.5,-49.2 -503.2,-275.8 -161.1,-104.8 -892.9,-569.7 -944.9,-627.4 -245.4,-68.1 -1062.1,-676.2 -1229.2,-596.6 34.8,106.3 332.5,266.9 464.4,333.3 38.8,19.3 70,32.3 96.5,50.5 90.8,63.2 35.5,15.9 87.5,79.3zm-12273.3 -19404.4c-28.7,99.4 -35.2,96.3 -129.9,185.4 -74.5,70.8 -100.1,95.6 -161.3,173.3 -133.2,168.3 -194.5,202.4 -342.3,364.2 -256.7,280.4 -1097.9,1434.7 -1304.6,1777 -47.7,79.2 -62.1,138.7 -113,216.9 -85,130.2 -282.3,284.4 -194,436.2 258.6,-315.6 437.9,-708.1 594.3,-922.2 90.1,-123.4 136.8,-159.6 223.5,-295.1l425.4 -579c131.7,-149.6 306.7,-442.3 480,-546.7 65.6,-124.1 459.8,-562.8 616.2,-652.2l1172.3 1827.3c79.2,137.4 124.8,161.8 172.2,314.9 42.7,136.7 114.4,257.3 123.3,372.7 268.8,60.6 79.6,23.7 158.9,-34.1 -31.5,-166 -94.6,-193.7 -177.1,-338.6 -81.9,-144.1 -35.2,-184.3 -150.8,-363.3 -58,-89.4 -144.8,-240.3 -194.3,-326.1l-600.1 -958.8c-108,-176.8 -413.6,-435.5 -420.8,-612.7 125.2,-27.6 272.9,231.7 333.5,322.5 111.7,167.1 211.4,296.7 306.5,438.4l444.3 670c100.9,156.8 57.4,151.4 229.6,193.3 -31.5,-192.2 -463.4,-770.4 -584.7,-948 -121.2,-178.3 -497.1,-742.9 -626.9,-858 -152.8,28 -174.8,87.1 -280.2,142.7zm5575.6 -5828.6c119.2,-67.3 28,-68.5 274.1,75.3l557.1 291c185.1,88 206.2,64.6 231.3,239.6 -207.7,-10.7 -536.9,-264.3 -848,-402.4 -140.9,-62.5 -201.2,-61.7 -214.5,-203.5zm1166.3 -69.4c-149.3,-84.8 -270.1,-175.2 -418.1,-250.8 -131.1,-67.5 -349.2,-188 -345.6,-328.9l937.9 487 19.4 131.3 -193.6 -38.6zm-408.3 -823c-134.2,-74.2 -63.5,-2.9 -121.9,-116.2l159.9 -228.1c189.8,-17.3 685.4,292 840.8,422.9 -2.9,163.9 -19,158.5 -99.4,261.2 -277.5,-65.3 -491.7,-276.2 -779.4,-339.8zm-7831.9 6810.7l-7 2.4 -71.2 23c18.9,-19.5 33.1,-33.3 43.8,-42.1l34.4 16.7zm5911.4 647.8c143.5,-76.7 133.4,-120.9 278.7,-260l880.7 -761.9 1431.8 -1363.4c91.8,-219.5 574.7,-643.5 751.1,-827.6 161.1,-167.8 158.3,-236 466.7,-297 456.7,-90.3 286,-113 584,-297.4 -34.8,143.9 -76.4,195.6 -165,294.5l-548.7 674.4c-138.9,163.5 -240.4,273 -383.5,433.3 -111.2,124.5 -101.5,88 -223.5,184.8 -163.9,129.4 -52.3,130.9 -238.5,229.2 -18.3,68.5 13.2,13.2 -56,107.3 -21.6,29.3 -59.1,68.1 -87.9,97.8 -181.5,189.7 -1269.4,1332.7 -1340.5,1493.3l-50.9 -15.5c-95.4,194.5 -1258,1228.3 -1617,1604.2 -138.9,145.3 -374.5,421.8 -560.8,505.8l-141.6 165.1c-558.5,552.6 -1008.3,1556.7 -1339.1,2259.7 -216.2,459.1 -234.8,489.3 -157.8,1042.4 132.1,944.1 466.4,2267.7 715.3,3225.9 86.1,332.1 302.4,668.2 241.5,1093.3l-158.3 131.9c-102.2,-145.6 -161.4,-436.9 -205.9,-624.5 -55.2,-234.9 -120.1,-411.4 -172.9,-645.6l-741 -2540.3c-66.5,-191.2 -116.3,-457 -203.8,-608.1 -113,-195.4 -201.9,-316.6 -316.7,-497.9 -172.5,-272.2 -92.9,-311.3 8.3,-593.1l429 -1198.2c143.4,-655.3 570.3,-1225.7 789.7,-1677.6 136.1,-280.5 103,-321.1 454.6,-353.8 135.3,-12.5 249.7,-15.7 383.4,-42.9 131.7,-26.9 239.7,-85.1 330.7,-71 76.9,-126.8 382.8,-336.3 513.4,-445.9 169,-142.1 371.9,-293.9 450.5,-421.2zm10828.2 12422.3c31.6,148.1 124,68.2 34.4,355.8 -50.5,162.5 -79.6,284.8 -178.3,358.7 -42.7,-58.9 -20.1,-4.6 -39.1,-97.8 -33.4,-162.6 11.2,27.1 14,-197.1 -153.2,-15 -48.4,0 -197.6,61.5l-28.7 -55c-3.6,-6.8 -9.4,-19.4 -12.6,-26.1 -23.7,-48.9 -6.4,-26.2 -33,-71.9 -175.7,74.3 1.8,90.8 -212.7,96.2 -8.6,-131.5 29.8,-194.7 46.6,-308.9 -213.4,62.9 -68.9,90.8 -292.7,93l85.7 -290.5c-186.8,21.5 -92.4,72.4 -248.6,136.3 14.8,-213.1 93.7,-127.4 117.7,-381.7 -193,53.4 -48.3,-0.7 -172.5,124.5 -100.1,101.1 30.8,49.8 -153.9,95.4 40.5,-258 172.5,-305.7 204.5,-540.6 -263.7,90 -234.9,501.7 -463.5,501.7 10.5,-90.3 141.7,-310.9 196.2,-430.7 57.4,-126.6 152.1,-294.2 172.9,-428.3 -230.6,24.4 -101.1,245 -384.8,351.5 34.4,-300.1 209.5,-401.4 241.3,-650.6 -254.6,32.6 -358.3,643.9 -624.5,704.8 51.4,-267.3 287.7,-403.4 321.5,-727.4 -249.3,114 -406.4,529 -578.7,590.5 -69.2,-158.7 300.3,-496.9 382.5,-602.8 279.4,-360.1 67.8,-394.5 581.1,-369 536.2,26.9 436.5,-15 785.9,245.7 134.2,100.1 487.8,398.9 619.8,374.5l152.8 119.5c6.9,4.2 23.3,22.6 28.1,14.7 5,-7.9 19.6,8.2 28.3,13.9 -117.8,100.8 -726.1,280.9 -990.8,445.9 54.8,184 369.4,394.2 598.7,494.3zm-1953.1 5683.6c199.7,58.8 1473.8,1233.9 1906.8,1528.1l47.7 36.2c136.4,20.5 386.7,288.4 494.7,381.6 401,347.3 202.3,137.5 406.4,450.2 34.1,51.8 580,575.8 836.1,908 276.5,359 1406.9,1711 1452.4,2019.8 -183.6,-53.8 -636.4,-427.3 -794.5,-520.5l-1665.5 -1013.3c-273.7,-183.3 -418.7,-192.6 -667.9,-334.3l-186.8 -122.4c-169.7,-32.2 -1756.7,-775.4 -1839.8,-849.3 -238.9,-64.3 -505.4,-225.4 -736.4,-313.2l-555.8 -192.3c-154.9,-73.9 -80.6,-60.3 -82,-73.5l-128.8 3.2c14.6,172.2 32,45.5 110.8,195.2l-2173.3 2787.1c-115.3,166.8 -230.4,297.7 -349.1,468.1 -471.7,678.2 -105.1,267.5 -407.9,421.1 19.5,81.9 117.3,306.4 162.1,436.9l544.9 1457c117.7,212.1 285.3,671.9 535.6,1077.2 352,570.4 1650.1,3055.5 1776,3102l4423.5 6.2 3200 -1.2c25.5,-526.8 -42.4,-1077.4 -50.6,-1583.6l17.9 -9767.8c1,-374.4 47,-1284.1 -18.3,-1597 -258.7,-199.7 -1077.9,-508.9 -1409,-592.9l-1502.2 -429c-236.4,-29.4 -368,-77.8 -585.8,-116.3 -212.3,-37.2 -421.4,-39.1 -634.5,-69.4 -127.7,-18 -575,-46.7 -689.8,-24.5 -245.1,47.4 -760.9,964.6 -929.7,1192.3 -130.3,175.9 -459.3,641.4 -528.4,879.9 -192.3,-42.6 -258.4,-183.5 -376,-134.4 56.4,152.1 290.2,202.2 397.2,384.8zm-21998.6 -15428.2c130.7,77.5 836.9,1085.5 991.4,1279.8l723.5 1024.2c67.8,118 71.9,378.3 74.6,525.1 -119.4,-63.8 -158.8,-166.4 -252.8,-313.5l-1265.5 -1667.2c-84,-106.6 -425.8,-508.3 -505.4,-652.2 16.4,-141.3 74.6,-203.3 234.2,-196.2zm4.3 -13849.4c-22.3,-315.7 13.4,-106.6 110.5,-184.8 67.1,114.5 126,374.5 123.7,567.8 -180.3,-48.8 -116.6,-62.7 -166,-224.8 -25.2,-82.9 -63.6,-91.5 -68.2,-158.2zm9818.4 -3430l-297.7 806c-84,148.8 84.6,-128.1 -32.3,48.7 -3.5,5.5 -15.7,29.5 -18.2,23.4 -2.9,-6 -12.3,16.2 -19.4,23.4 -7.2,161 -103.4,352.9 -171.5,518.3 -67.8,163.9 -129.8,362.3 -255.8,468 46.6,107.7 -302,750.1 -350.8,796.7 -15.8,109.1 45.6,40.6 -58.1,99.4 -115.1,-53.8 -41.6,-19.7 -125.2,-80 -678,-489.3 -1039.6,-590.7 -1823.6,-854.3 -701.3,-236.5 -397.8,-183.7 -1206,-245.5 -710.9,-54.5 -289.5,-138 -1264.4,-27.2l-169.6 20.8c51.9,-469.2 87.4,-901.5 148.9,-1355.6 48,-357.3 177.1,-791.3 262.2,-1119.5l224.1 -668.2c101.5,-380.9 162.8,-656.5 625.9,-612.3 142.5,-111.3 1013,-64.6 1270.9,-94.7 726.1,-85.5 3418.8,-235.7 3838.1,38.7 -4.7,302.7 -161.8,523 -183.3,714.5 -17.9,160.8 -21.5,170.8 73.2,208.1 53.8,-39.5 178.6,-673.3 241.8,-829.4 38,-93.5 10.7,-39.4 55.6,-113.7l531.9 48.1c16.6,134.5 -655.7,2109.9 -825.3,2510.6 -173.2,408.9 -5.7,359 15.1,378.4 35.8,-104.4 8.1,-101.9 92.2,-195.8l40.1 -132.4c63.9,-278 219.2,-710.6 323.9,-965.6 71.7,-175.1 120.8,-271.2 179,-450.2 30.5,-93.6 135.9,-408.5 154.5,-445.9 30.9,-198.3 107.7,-547 231.1,-682.6l170 4.7c84.3,79.6 715.6,157.8 856.6,417.2 65.6,393.5 -96.2,-47.7 -31.2,247.4l119.8 256.2c43.4,125.9 111.2,442.2 210.9,552.7 33.3,171.5 116.3,362.7 110.1,559.9 -3.9,126.7 -41.9,181.5 -90.6,271.6 -53.9,99.4 -59.6,130.3 -141.1,197.3 -15.5,156.1 -297.7,614.1 -427.6,894.6 -27.9,61 -48.4,105.8 -75.6,149.2l-118 131.6c-4.7,147.8 -248.3,532 -341.1,710.3 -326.8,627.4 -353,723.4 -739.8,1382.5 -481.3,821.1 -202.2,298 -468.4,605l-110.8 -5.3c-45.3,-83.6 -19.1,-109.4 -84.4,-189.8 -38.3,91.1 -35.8,136.4 -138.5,204.1 -88.9,-154.9 127.1,-294.9 165.9,-677.2 -43.4,-43.1 36.2,-64.9 -54.6,-34.8l-172.2 26.5c44.9,-200.8 124.8,-354.7 60.9,-455.8l-230.5 248.6 10.7 -155.8c118,-128.3 -6.1,-193.3 -29.7,-217.2 -100.5,232.9 -173.6,494.8 -307.5,576.4 -76,-135.4 80.3,-424.5 169,-636.7 57.1,-136.4 198.3,-495.5 193.7,-606.7 -7.6,-166.4 -67,-80 39.1,-311 127,-275.3 196.9,-562.8 339.4,-847.6l11.1 -234.3c-143.2,68.9 -77.9,74.3 -206.3,375.7 -50.2,117.2 -92.5,271.5 -183,357.3 23.4,134.1 -302.3,839.3 -378.3,1004.4 -61.1,133 -130.6,372.3 -222.9,487.8 -108.9,136 -81,4.2 -133,201.8 -33.1,125.3 -19,161.1 -124.5,229.7 -0.6,216.3 -1136,1046.7 -1382.8,1233.1 -503.7,381.1 -268.3,115.2 -795,500.5 -237.7,174.3 -493.4,366.2 -743.2,559.9 -930.8,722.5 -850.8,386 -840.3,1744.7 2.5,327.2 59.5,2407.6 23.4,2513.2 -242.6,10 -117.7,-136.1 -161.6,-533.9 -21.7,-200.5 -27.9,-449.1 -51.2,-648.1 -156.1,-1330.5 -38,-1461.7 -20.5,-2591.7 5,-329.6 -17.5,-350 188.7,-529l778.3 -594c176.9,-143.2 231,-128.5 421.2,-246.5 256.4,-158.9 528.7,-371.3 799.9,-574.6 383.5,-287.4 1266.2,-949.4 1437.4,-1292.8 176.4,-273 289.5,-634.5 449.8,-942 118.4,-227.4 320,-799.1 410.7,-933.3 62.4,-320.3 331.4,-875.9 447.6,-1176.5 73.9,-191.2 115.1,-407.8 186.2,-594.4 66.7,-175 197.3,-429.8 62.1,-571.9 -98.4,213.9 -234.3,1006.6 -365.6,1126.8zm-6663.9 1778.1l-236.1 32.6 -96.4 96.5c-40.3,33.5 -85.1,66.1 -126.3,94.7l-490.4 328.7c-290.5,152.6 -355.8,271.5 -702.6,560.6l-312.5 322.4c-82.2,122 77.2,35.5 -77.2,102.2 -70.3,-43.4 -41.6,32 -60.3,-96.1l-90.6 -313.1c-71.4,90 -49.2,98.3 -92.5,191.3l-205.3 -742.7c-136.7,227.6 80.7,560.7 -12.8,736.1l-244 -948c-152.1,96 112.6,-109.1 -53.2,70.6 -79.6,86 58.6,46.4 -67.3,51 -17.6,-113 -32.4,-211.2 -39.8,-323.9 -18,-276.6 -43.4,-246.1 -47.8,-283 -2.2,-18.3 -8.6,-21.9 -14.6,-32 -22.2,33.4 -24.8,30.8 -45.6,97.9l-20.2 221c9.1,308.8 60.3,540.2 104.2,830l201.6 784.5c30,72.9 84.6,139.2 -14.8,137.5 -80,-111.6 -242.8,-752.3 -294.1,-932.7 -125.6,-441.2 -62,-988.5 -154,-1113.4 -126.8,231.7 -17.4,928.9 46,1203.1 24.8,108 77.1,242.4 28.4,325.3 -114.9,-54.2 -143.5,-147 -173.7,-384.5 -16.1,-126.6 -3.6,-93.7 -32.5,-233.8l-68.6 -727.5c11.8,-119.8 73.6,-309.9 14.7,-426.2 -83.2,74.2 -73.6,109.7 -107.9,241 -1.2,1.9 -48.5,-46.5 -73.6,187.7 -7.9,72.8 -4,136.6 -14.7,205.8 -91.9,-41.2 -143.5,80.1 -106.9,-342.5 109.4,-609.4 558.5,-1310.7 949.4,-1783.1l86.9 -72.1c84.6,-174 106.5,-118.7 235.3,-274.1 67.4,-81.5 166.8,-241 223.1,-295.6 103.6,-100.3 546.6,-296.3 676.9,-314.5 106.1,-116.6 400,-220.6 545.9,-273 578.6,-206.6 1343.4,-534.4 1920.5,-593 -24.8,157.8 -197.4,560.3 -265.4,753.4 -105.1,295.8 -130.6,523 -191.1,856.2 -57.5,314.2 -198.5,1011.1 -211.7,1351.5l-35.2 333c-2.9,9.3 -6.2,19.6 -9,28.3l-36.3 76.8 21.2 170.3 -229.1 114.8zm9397.6 6331.4c-391.3,-57 -1875,228.6 -2306.1,447.8 -550.2,279.4 -630.2,431.5 -819.3,553.7 -167.8,108.8 -690.5,475.7 -750,581.6 -185.1,30.8 -62.1,19.3 -96.8,-23l1043.7 -960c152.1,-136.2 423.6,-304.1 554.2,-447.6 202,-221.7 209.1,-227.4 699.9,-290.2 790.6,-100.4 975.3,-144.8 1821.5,-177.2 790.2,-30.1 577.5,45.3 1128.4,-376.2 120.2,-92.2 155.7,-175.1 279.1,-227.8l-264.8 355.1c-98.2,141.3 -184.3,209.5 -294.8,334.6 -261.8,295.6 -268,61.1 -846.9,166.9 -173.6,31.9 -55.9,-30.2 -148.1,62.3zm-4034.4 915.1l13 4 228.4 -175.7c-138,-120.6 -72,-1.9 -91.8,-122.3 146.4,-138.5 828.3,-762.3 959.2,-769.6 91.5,-124 275.9,-247.8 372.3,-322.8 138.5,-107.5 239.3,-278.7 383.8,-316.3 75,-150 317.9,-240.7 433.4,-314.9 352.9,-227.1 739.6,-196.3 1252.5,-190.2 473.6,5.8 587.3,-67 573.7,114.4l-348.4 101.5c85.3,205.3 54.2,-28.7 136.7,134.6l-288 23.3c-164.3,55.3 -11.1,2.1 -109.4,102.9 -125.3,128.5 -122.4,68.2 -373.1,100.1 -33.4,81.1 -1.7,26.2 -20.5,90.1l-33.2 96.4c-185.2,50.9 -110.1,3.3 -263.1,100.8 -277.5,176.5 -484.9,99.8 -871.5,210.6 -67.2,79.3 -155.8,91.8 -234,169.3 -350,348.3 -360,316.7 -725.6,611.9 -298.7,241.7 -658.6,676.2 -971.8,848.8 -83.2,-115.2 -9.6,26.5 0.5,-144.3 73.1,-46.6 41.2,5.8 103.6,-78.9 -39.1,-106.5 43.7,-14 -101.9,-112.2 -50.2,-33.8 -60.2,-32.4 -106.4,-63.9 147.3,-61.7 39.1,6.4 81.6,-97.6zm9158.4 35532.8l2771.5 -2.9c-29.1,-71.7 -332.2,-241.4 -411.9,-291.2 -204.1,-127.4 -281.3,-172.6 -455.2,-290.6 -532.3,-360.1 -1497.5,-1166.1 -1978.5,-1660.8l-245 -310.7c-38.8,-57 -31,-29.4 -42.4,-77 -226.7,-96.2 -215.2,-184 -415,-360.2 -139.9,-123.4 -336.1,-207.8 -616.6,-533.4l-612.3 -577.8c-225.3,-52.8 -1132.1,860.5 -1509.5,982.8 -674,218.8 -156.3,44.5 -714.2,329.6 -410.7,209.8 -1226.7,812.6 -1087.5,1380.4 151.7,619 537.7,1066.7 631.6,1398.9l4685 12.9zm6840.1 -15973.5c93.3,-4.3 668.3,273 727.5,343 239.3,18.3 568.6,291.6 768.7,406 187.3,107.2 628.8,283.8 743.6,473.2 104,14 227,112.9 336.1,192.7 356.2,260.3 768.7,624 1142.2,624.3l-11.6 -2934.4c-671.7,-319 -677.9,-369.5 -1532.7,-504 -562.8,-88.2 -1360.3,-75 -1948.4,-49.5 -67.1,280.8 -115.6,438.7 -213.8,677.6 -75.5,183.3 -235.7,467.7 -221.4,667.2 233.6,103.7 30.5,-44.1 209.8,103.9zm-8613.9 -29579.6l-12.9 -69.3c-59.1,-168.3 90.8,60.7 -44.4,-46.6 -50.7,73.9 -38.7,43 -74.5,72.1l-69.4 716c-591.8,-159.7 -301,-1257.3 -157.1,-1675.5 80.4,-234.3 333.3,-937.4 492.2,-1148.2 48,-63.9 73.2,-102.6 107.6,-149.9 123.7,-168.7 -1.5,-76.5 181.6,-127.7 23.3,318.9 146.6,613.3 140.9,933.6 -76.1,-56 -33.4,56.3 -79.4,-83.9 -38.6,-77.2 -92.8,-157.1 -125.1,-269 -35.8,-123.5 -19.8,-153.6 -108.3,-238.9 -151.4,123.7 55.6,411.7 131.6,788.4 36.2,179.6 39.8,200.8 -15.7,252.9l-190.2 -428.7c-187.9,97.7 135.6,420.4 80.3,849 -32.6,251.9 41.3,-167.8 -16.5,66.5l-26.9 62.7c-123.7,-211.6 6.2,-382.4 -185.4,-527 -6.8,10.5 -12.2,24.5 -15.5,34.2 -82.3,260.7 237.2,841.5 -12.9,989.3zm-17969.5 13195.6c-48.7,-171.1 -156.7,-215.9 4,-435.9 97.2,-133.1 215.2,-242.9 428.3,-215.5 156.6,292.7 208.4,376.9 429.6,588.2l603 409.3c100.4,177.6 353.3,138.8 563.6,148.8 302,14.1 456.9,-8.6 554.1,93.7 -25,125.9 25.9,25.9 -152.4,115.1 -197,99.1 47,46.3 -202.3,196.2 -101.5,60.7 13.3,-30.1 -71.3,39.1 -51.7,41.6 -3.7,-4.6 -49.6,58.1 -40.2,55.6 8.6,44.9 -40.9,72.2 -160.3,18.9 -626.7,36.5 -781.9,21.5 -206.3,-20.1 -359.9,-206.7 -473.9,-324.4 -185.1,-191.5 -608.7,-677.9 -810.3,-766.4zm5111.6 1571.8c-49.3,-64.2 -36,61.7 -50.3,-126.3l183.3 -1966.7c26.2,-72.1 11.2,-44.6 52.7,-92.9 32,41.2 57,-38.8 56.3,274l-146.4 1798.2c-57.7,122.3 -1,51 -95.6,113.7zm-1675.6 27293.7c-55.2,98.3 -268.6,273.4 -381.7,339.7 -191.1,112.3 -206.6,148.9 -365.4,304.2 -300.3,293.1 -374.2,473.8 -532.7,841.1 -124.5,288.4 -790.9,1710.3 -775.9,1941l1811.5 -6.2c6,-88.2 383.7,-854 469.1,-952 90.4,-104 273.4,-228.4 437.3,-295.4 151.7,-62.1 388.8,-199.5 534.5,-225.4l-22.3 1216.4c-33,134.1 -96.8,138.8 -107.6,253.6l257.2 12.6 5.8 -1699.6c-262.3,33 -628.9,270.1 -879.6,266.5l-174.3 -1899.2c17.9,-137.8 -18.7,-37.4 43.7,-105.2l140.6 -773.4c51,-212 100.8,-556 98.2,-796.9 -126.5,206.5 -159.2,605 -200.4,874.4 -46.3,301.7 -51.3,584.4 -358,703.8zm2475.5 -38767.9c-132,63.5 -195.9,69.2 -320.8,60.6 -105.8,-825 208.4,-2863.9 506.5,-3628.6 228.6,-586.2 68.9,-711.3 665.8,-776.6 -80.6,334.6 -251,613.4 -335.7,966.7 -86.2,360.2 -179.7,685.9 -252.6,1050.3l-229.1 1678.7c-18.4,208.1 17.1,480.7 -34.1,648.9zm-4043.7 33813.6c-162.9,236 -396.7,439.7 -413.6,648.1 116.3,-57.7 197.3,-156.8 283.4,-273 111.8,-151.8 104.4,-199.4 281.2,-288.4 106.8,-213.8 332.8,-386.6 493.5,-569.6 223.8,-255.5 477.9,-450.5 485.7,-595 -187.2,33.9 -684,604.3 -865.2,810.5 -76.7,87.9 -165.7,222.4 -265,267.4zm11387.7 8404.4c-46.3,-142.1 -168.6,-245.5 -328.5,-297.1 27.9,111.6 45.8,143.8 98.6,208.1 96.8,118.7 73.5,99 229.9,89zm2240.1 -37677.5c49.8,-78.2 16.9,-9.7 33.7,-119.9 -224.5,-135.9 -412.8,-520.5 -586.8,-825.6 -285.2,-500.4 119,-640.8 150.2,-1047.9 -157.1,32.7 -64.5,53.5 -201.9,96.5 4,-110.1 132.8,-683.3 200.2,-730.7l18.2 -191.4c-242,110.3 -268.2,605.4 -416.4,704.1l-1.4 -185.9c48.8,-178.2 519,-1010.4 446.9,-1167.1 -179.3,71.7 -396.4,649.3 -523.3,916.8 -136,285.8 -79.6,231 -195.1,235.7 44.8,-311.1 719.5,-1470.4 644.2,-1593 -165.7,77.4 -546,1097.2 -779.9,1213 -41.5,-88.2 -45.1,17.7 -8.6,-126.9 41,-162.5 520.6,-981 628.2,-1185.2 45.5,-86 74.2,-129 124.8,-217.7 30.5,-54.1 67.4,-122.7 35.5,-181.1 -96.5,64.5 -283.7,444.1 -371.6,588.5l-424.3 573c38.4,-262.6 219.5,-397.1 327.8,-628.8 70.6,-150.8 873.4,-1621.8 985.1,-1704.2 66.6,-209.3 330.6,-614.5 451.2,-798.8 101.4,-155.4 148.8,-162.2 324.5,-265.5 113.1,-66.3 286.3,-182.9 415.4,-193.8 115.9,212.8 149.6,685.5 231.4,941.3 91.8,287 179,578.9 286.6,853.4 127,323.9 615.2,1404.6 661.1,1599.8 58.8,236.4 -248.3,1080.8 -331.8,1251.4l-410.3 778.5c-65.7,189 -31.3,162.5 -152.1,242.2 -15.8,184.9 -207.4,379.1 -334.8,538.3 -285.9,356.9 -713.4,1201.7 -1261.8,1346.2l35.1 -715.2zm-9650.5 27543.7l-99.7 -151c-63.6,-40.8 -189.8,-99.4 -237.9,-206.2 -126.3,-66.8 -53.8,-28.4 -151.4,-127.1 -161.7,-163.2 -244.2,-305.2 -399.5,-356.1 118.3,384.8 578.2,656 654.2,732.8 193.7,195.1 -33.7,143.9 206.3,243.8 45.6,-68 39.1,13.8 28,-136.2zm78.8 371.2l-81.7 -102.2c-42.7,-30.8 -27.6,-18.9 -66,-54.2l-753.2 -656c59.1,170.3 281.5,353.3 449.8,509 335.7,310.6 273.3,409.3 489.3,488.6l-38.2 -185.2zm21079.3 -4823c425,2.4 2961.8,1191.9 3106.7,1207.3 -125.2,-316.7 -1376.7,-672.6 -1488.6,-794.9 -141.7,-38.4 -1686.3,-656.8 -1687.4,-657.4 -82.4,-20.5 -690.5,-219.3 -701.6,-227.8 -112.3,-19.4 -230.6,-57.5 -343.7,-89 -497.1,-139.2 -309.9,-58.1 -371.6,-0.4 241.4,79.8 1335.9,432.6 1486.2,562.2zm-7077.2 11565.5c237.4,18.4 978.2,1205 1217,1290.3 -12.5,-179.7 -807.8,-1144.9 -941.6,-1265.1 -89.7,-80.3 -301.2,-203 -360.8,-407.8 -238.2,-142.1 -270.1,-463.8 -689.5,-955.6 -117.6,-138.4 -228.8,-307.1 -350.5,-466.4l-253.5 -336.4c-135.7,-143.9 14.3,-45.5 -170.4,-112.9 40.5,243.1 252.9,424.5 381.7,601.4 194,266.2 540.5,676.9 684.7,916.5 54.2,90.8 35.9,83.9 81.9,177.9 83.5,172.5 297.3,357.4 401,558.1zm-14451.4 -7723.9l10 17.3c-7.9,-6.9 -19.1,-15.5 -24.5,-20.5l-44.1 -41.6c-172.5,-183 -276.8,-439.7 -488.9,-544.9 54.6,287.8 363.3,474.2 488.6,656.1 108.3,11.1 29.1,20.4 58.9,-66.4zm11615.8 -4085.2c-59.1,208.4 54.1,165.7 -103,363.3 -106.8,134.2 -165,152.8 -213,379.2 264.8,-59.3 176.1,-134.9 443.3,-399.2l872.4 -1400.1c148.9,-222.7 483.9,-559.2 520.1,-855.5 -246.7,77.5 -122.7,105.1 -274.8,237.4 31.9,-204.4 142.8,-140.9 191.9,-414.9 -271.5,102.9 -1257.9,1937.3 -1436.9,2089.8zm424.8 -3750.3c124.7,-47 53.7,-43 202.6,-95.8 -29.8,161.5 -77.2,165.8 -90.4,230 -36.6,177.1 28.7,-110.5 57.3,199.4 -76.8,43.9 -60.6,-2.8 -135.5,10.1l-104.1 64.9c-90.8,80 -176.1,187.2 -115.8,282.6 55.7,-82.2 139.4,-215.5 162.1,-307.3 98.6,37.7 62.4,39.8 91.9,59.8 84.9,57.1 -26.9,32.7 80.3,53.5 45.9,-142.4 85.7,-234.6 173.6,-322.8 59.2,-59.6 78.2,-57.1 134.2,-126.7 31.9,-39.4 66.7,-101.8 106.1,-155.3 530.6,-717.4 174.7,-453.4 277.7,-709.8 206.6,-262.9 330.7,-381.4 485,-742.9l-129.2 -37c57,-119.1 44.6,-54.1 108.7,-150 42.7,-63.8 45.1,-92.4 88.3,-169.2 120.5,-216.3 168.5,-147.1 196.8,-423.7 -207.9,51.7 -383.3,361.6 -494.9,546.3l-572.9 869.2c-90,227 -44.1,126.6 -180.8,302.4l-341 622.3zm-12664.9 2722.6c-65.9,-67 -113.2,-225.6 -168.5,-321.4 -62.1,-107.3 -159.6,-251.9 -164.6,-365.9 -223.6,-29.8 -73.2,-27.9 -124.9,43.8 53.8,161 133.1,286.2 205.2,445.1 184.4,406.1 59.5,385.9 264.3,424.4l-11.5 -226zm-2251.9 11832.5c20.2,-128.1 371.7,-683.7 461.3,-827.2 70.7,-113.7 153.9,-265.8 254.7,-413.9 102.6,-151 213.8,-245.7 226.7,-398.5l-82.8 -40.2c-188.7,339.7 -389.6,577.2 -580.4,901l-519.8 925.5c-193.4,375.9 -861.5,1658.7 -836.9,1930.2 8.3,90.4 -12.2,22.6 25.2,76.8 59.9,-41.3 422.1,-943.4 501.5,-1096.5 141.9,-274.1 409.3,-937.7 550.5,-1057.2zm1138.9 3967.6c99.4,-88.6 602.3,-945.1 605.6,-1149.6 -168,81.3 -301.7,356.5 -385.2,528.7 -42.4,87.2 -103.4,199.5 -150.8,294.1l-97.6 230.7c-11.8,174 -3.8,46.6 28,96.1zm-1322.2 -40379.1c-26.5,-167.2 10.4,-140.7 -125.9,-185.5 -64.2,150.6 -36.5,153.2 125.9,185.5zm15154.2 4274.6c-21.2,-186.8 8.6,-129.8 -183.3,-229.2l-853.1 -412.2c48.8,244.3 34.9,101.3 474.3,346.6 177.2,98.9 312.3,270.5 562.1,294.8zm-17587.2 2903.7c-10.7,-152.5 16.1,-34.8 -228.5,-314.9l-533.8 -581.1c-155.2,-165.4 -46.7,-246.1 -294.4,-309.3 30.8,142.8 15,123.2 95.6,213.8 180.9,204.2 139.2,225.7 386.8,465l412.9 406.7c85,89.3 24.8,89.8 161.4,119.8zm15326.3 18762.6c24.1,158 -55,57.5 52.7,126.3 351.5,-238.8 594.3,-625.6 819.5,-866.9 134,-143.2 116.3,-195.5 281,-288.4l7.2 -151.8c-199.8,43.8 -274.9,319.6 -578.3,595.9 -174.3,158.9 -414.2,485.3 -582.1,584.9zm4491.7 3658.6c183.3,-38.6 238.6,-101.6 254.3,-294.9 -151.1,33.4 -71,-10.9 -159.6,90.7 -54.2,62.4 -72.1,89.6 -94.7,204.2z"/>
 </g>
</svg>
