<?xml version="1.0" encoding="utf-8"?>
<!-- Generator: Adobe Illustrator 24.0.2, SVG Export Plug-In . SVG Version: 6.00 Build 0)  -->
<svg version="1.1"
	 id="Слой_1" image-rendering="optimizeQuality" shape-rendering="geometricPrecision" text-rendering="geometricPrecision" xmlns:xodm="http://www.corel.com/coreldraw/odm/2003"
	 xmlns="http://www.w3.org/2000/svg" xmlns:xlink="http://www.w3.org/1999/xlink" x="0px" y="0px" viewBox="0 0 238.1 150.2"
	 style="enable-background:new 0 0 238.1 150.2;" xml:space="preserve">
<style type="text/css">
	.st0{fill-rule:evenodd;clip-rule:evenodd;}
</style>
<g id="Layer_x0020_1">
	<g id="_105554257398464">
		<path class="st0" d="M163.1,87.1c-0.1-0.4,0-0.9,0.5-0.8c0.1,0.2,0.1,0.4,0,0.6C163.4,87.1,163.3,87.2,163.1,87.1z M176,84.5
			c-0.1,0-0.3,0.2-0.4,0.3c-0.1,0.1-0.2,0.1-0.2,0.2c-0.1,0.1,0,0.1-0.1,0.2c-0.1,0.5,0.6,0.1,0.6,0.1c0.8-0.4,1.5-0.1,2.3,0.3
			c0.2,0.1,0.2,0.2,0.5,0.5c0.1,0.1,0.4,0.7,0.8,0.3c0.1-0.1,0.1-0.2,0.1-0.4c0-0.2,0.1-0.2,0.2-0.3c0.1-0.1,0.1-0.3,0.1-0.4l-0.1,0
			c0,0,0,0,0,0c0,0,0,0,0,0c0,0,0,0,0,0l0-0.3c0-0.2,0,0.2,0-0.1l0-0.3c-0.2,0.1-0.3,0.6-0.4,0.8c-0.4,0-0.7,0.1-0.9-0.3l-0.4-0.5
			c-0.4-0.4-0.4-0.5-1-0.5c-0.3,0-0.5,0-0.7,0.2L176,84.5L176,84.5z M164.8,87c-0.1,0.1,0,0-0.2,0.2c-0.1,0.2-0.7,0.8-1,1.2
			c-0.1,0.1-0.2,0.3-0.4,0.2c-0.1-0.1-0.1-0.2-0.3-0.4c-0.2-0.2-0.2-0.2-0.2-0.4c0-0.2-0.1-0.4-0.1-0.5c0.1-0.1,0.2-0.2,0.4-0.1
			c0.2,0.1,0.1,0.2,0.2,0.4c0.5,0,0.3-0.3,0.8-0.6c0.4-0.3,1-1.2,1.7-1.4c0.3-0.1,0.5-0.3,0.7-0.2c0,0.2-0.1,0-0.2,0.2
			c-0.3,0.4-0.3,0.2-0.6,0.6C165.2,86.6,164.8,86.8,164.8,87L164.8,87z M164.5,85l-0.2,0.1c0-0.2,0-0.1-0.1,0
			c-0.1,0.1,0.2,0-0.1,0.1c-0.2,0-0.1,0-0.2-0.1c0,0.4,0,0-0.1,0.3l-0.1,0.2c-0.1,0.1,0,0.1-0.1,0.3l0,0.1c0,0.1,0,0.1-0.3,0.1
			c0,0,0-0.1-0.2,0.2l-0.1,0.1c0,0,0-0.1,0-0.1l0,0c0,0,0,0,0,0c-0.1,0,0,0.3,0,0.4c0,0,0,0-0.1,0c-0.2,0,0,0,0,0c0,0,0,0,0,0.1
			c0,0.1,0.2,0-0.2,0.2c-0.2,0.1-0.1,0.1-0.3,0.1c0,0.2,0,0,0,0.1l0.1,0.1c0,0.1,0,0.3,0,0.6c0.2,0,0.1,0.1,0.2,0l0,0
			c0,0.6,0.1,0.3,0.3,0.5c0.1,0.1,0.1,0.1,0,0.3c0-0.2,0.2,0,0.4,0c0.3,0,0.2-0.1,0.4-0.2c0-0.2,0-0.1,0.2-0.4
			c0.1-0.1,0.3-0.3,0.4-0.4c0.2-0.2,0.5-0.4,0.4-0.7l0.1,0c0.2-0.1,0.5-0.5,0.6-0.7c0.2,0,0.1-0.1,0.2,0.1c0-0.1,0.1-0.2,0.2-0.3
			c0.1-0.1,0.1,0,0.2-0.1c0,0.1,0,0.1,0,0.2c0,0.2,0,0-0.3,0.4c-0.1,0.1,0,0-0.1,0.1c-0.2,0.2-0.1,0-0.2,0.5
			c0.1-0.1,0.2-0.2,0.3-0.4l0.7-0.6c0.1-0.1,0.2-0.2,0.3-0.3c0.1-0.1,0.1-0.1,0.2-0.2c0.2,0,0.3,0,0.3,0.2c0,0.1-0.1,0.2-0.2,0.3
			l-0.5,0.5c-0.2,0.3-0.8,0.8-0.9,1c-0.1,0.2,0,0.2-0.2,0.3c-0.1,0.1-0.2,0.2-0.2,0.3c-0.2,0.2-0.4,0.2-0.5,0.5
			c-0.1,0.3-0.2,0.4-0.4,0.6c-0.3,0.3-0.5,1-0.7,1.3c-0.3,0-0.4-0.1-0.6-0.2c0,0.2,0.1,0.2,0.3,0.3c0.2,0.1,0.2,0.1,0.5-0.1
			c0,0,0,0,0,0l0.1-0.1c0.1-0.1,0.2-0.3,0.3-0.4l0.1-0.2c0,0,0,0,0,0c0.2-0.2-0.1,0,0.3-0.2c0,0,0,0,0,0l0-0.1
			c0-0.2,0.1-0.2,0.2-0.3c0,0,0,0,0,0c0,0,0.1-0.1,0.1-0.1l0-0.2c0,0,0,0,0,0c0,0,0,0,0,0c0,0,0,0,0,0l0.1,0
			c0.1-0.1,0.1-0.1,0.2-0.1c0,0,0,0,0,0l0,0.1c0,0,0,0,0,0c0,0.1,0,0.1,0.1,0.2c0,0,0,0,0,0c0,0,0,0,0,0c0,0,0,0,0,0
			c0,0-0.1,0.1-0.1,0.1c-0.1,0.1-0.1,0.2-0.2,0.3l-0.1,0.1c-0.1,0.1,0,0-0.1,0.2c-0.1,0.1,0,0.1,0,0.2c-0.2,0.1,0-0.1-0.1,0
			c0,0,0,0,0,0c0,0,0,0,0,0c0,0,0,0,0,0c-0.1,0.1,0-0.1-0.1,0.1c-0.1,0.2,0-0.1,0,0.2c0,0.1,0,0.1,0,0.3c-0.1,0-0.1-0.1-0.2,0
			c-0.1,0-0.1,0.1-0.1,0.1L164,91c0,0,0,0,0,0c0,0,0,0,0,0c-0.1,0.1,0-0.2,0,0.1l0,0.1c-0.1,0.2-0.2,0.4-0.5,0.4
			c-0.2,0-0.2-0.1-0.4-0.2c0,0,0,0-0.1-0.1c-0.1-0.1,0,0-0.1,0l-0.2-0.2c0,0,0,0,0,0c0,0,0,0,0,0l-0.1-0.2c-0.2-0.2,0-0.2,0-0.4
			c-0.1,0-0.1,0-0.1,0l-0.1,0.1l-0.1-0.1c0.1,0.1-0.1,0,0,0.1c-0.2,0-0.2,0-0.3,0c0,0.1-0.1,0.2,0,0.4c0,0.2,0,0.3,0.1,0.4l-0.1-0.6
			c0.2,0,0.2,0,0.3,0.1c0.1,0.1,0.2,0.1,0.2,0.2c0.2,0.3,0.2,0.3,0.4,0.4c0.6,0.5,0.7,0.1,1-0.3c0.1-0.2,0.3-0.3,0.4-0.5
			c0.1-0.2,0.2-0.4,0.3-0.5c0.3-0.3,0.4-0.7,0.7-1.1c0-0.1,0,0,0-0.2l-0.1-0.2c0.1,0,0,0,0-0.1c0.4-0.2,0.2-0.2,0.3-0.5
			c0.2,0,0.3,0.2,0.2,0.1c0.2,0.1,0,0,0.1,0c0.1,0,0,0,0.1,0l0.4,0.2c0,0,0,0,0,0c0,0,0-0.2,0.4,0c0,0,0,0,0,0c0,0,0,0,0.1,0
			c0,0,0,0,0,0c0.5,0.2,0.8,0.2,1.3,0.3l0.4,0.2l-0.1,0.5c-0.1,0.1-0.1,0-0.2,0.2c-0.1,0.1,0,0-0.1,0.1c-0.1,0.1-0.1,0-0.1,0
			l-0.1,0.5c-0.2,0.3-0.3,0.5-0.2,1c0.1-0.1,0.1-0.4,0.2-0.7c0.5-1.5,1-0.8,0.8-1.7c-0.1-0.1-0.1-0.2-0.3-0.3
			c-0.1-0.1-0.4-0.1-0.4-0.1c-0.5,0-0.7-0.1-1.2-0.3c-0.4-0.1-0.7-0.2-0.6-0.8c0.2-0.1,0.8-0.1,1,0c0.3,0.2,0.4,0.4,0.9,0.1
			c0-0.3-0.1-0.4-0.2-0.5c-0.4-0.5-0.3-1.5-0.1-1.7l0,0c0-0.1,0.2-0.6,0.2-0.7c0-0.1,0-0.3-0.1-0.3c-0.1-0.1-0.2-0.1-0.3-0.2
			c-0.1-0.1,0-0.4-0.4-0.4c-0.2,0-0.3,0.2-0.5,0.3c-0.6,0.3-0.4,0.3-0.7,0.5c-0.1,0.1-0.2,0.1-0.2,0.1c-0.3,0.2-0.5,0.5-0.9,0.8
			c-0.6,0.4-0.4,0.7-0.9,0.6C163.9,85.7,164.3,85.4,164.5,85L164.5,85z"/>
		<path class="st0" d="M196.4,13.2c-0.2,0-0.1,0-0.2-0.1c-0.1-0.1,0.1,0-0.1,0c0,0-0.1,0-0.2,0c0,0-0.1,0-0.1,0
			c-0.1,0-0.1,0.1-0.2,0.1l-0.1,0c-0.3,0-0.8,0-0.8,0c0,0.1,0,0.3,0,0.4c-0.1,0.2-0.2,0.1-0.2,0l-0.3,0.1c0,0.1,0,0,0,0.2
			c0,0.1-0.1,0.2-0.1,0.2c-0.1,0-0.1-0.1-0.2-0.1l-0.1,0.1c0.1,0,0.1,0,0.1,0.2c0,0.2-0.2,0.2-0.3,0.3l-0.2,0.1
			c-0.1,0,0,0.1-0.4,0.1c-0.1,0-0.1,0.1-0.2,0.2c0,0,0,0,0,0c0,0,0,0,0,0l0,0.1c0,0.3,0.1,0.1,0,0.4c0,0.1,0,0.1,0,0.2
			c-0.2-0.1-0.2,0-0.4,0.1c-0.1,0.1-0.1,0.1-0.2,0.2l0,0c0,0,0,0,0,0c-0.2-0.1-0.1,0-0.2-0.1c0,0-0.1-0.1-0.1-0.1c-0.1,0,0,0,0,0.1
			c0,0.2,0.1,0,0,0.1l-0.2,0c0,0,0,0,0,0l-0.1,0c0,0.5,0,0.3,0.1,0.7c-0.2,0,0,0-0.2,0.1c-0.2,0.1,0,0-0.1,0c0,0,0,0,0,0l-0.1,0.1
			c0,0,0,0,0,0c0,0,0,0,0,0c0,0-0.1,0-0.1,0c-0.1-0.1-0.1,0,0,0l-0.1,0.3c-0.1,0.2,0,0-0.1,0.1c-0.1,0.1,0,0.1-0.1,0.2
			c-0.1-0.1-0.1-0.1,0-0.1c0,0.1,0,0.1,0,0.1c0,0.2-0.2,0.2-0.2,0.3c0,0,0,0,0,0c-0.1-0.1-0.1-0.1,0-0.1c0,0.1,0,0.2,0,0.2
			c0,0.1,0,0,0,0.2c0,0.3,0,0.4-0.2,0.6c-0.1,0.1-0.1,0.2-0.3,0.2c-0.3,0.1,0,0-0.1,0c0,0.1,0,0.3-0.1,0.4c-0.2,0.2,0-0.1-0.1,0
			l-0.1,0.1c0,0,0,0,0,0c0,0-0.1-0.1-0.1,0l-0.3,0v0.3c0,0-0.1,0-0.1,0c-0.1,0-0.1,0-0.2,0.1c-0.2,0.2,0-0.1,0,0.1
			c0,0.1,0.1,0.2-0.2,0.2l0,0c0,0,0,0,0,0c0,0,0,0,0,0c0,0,0,0,0,0l-0.1,0.1c0,0,0,0,0,0c0,0.1,0,0.1,0,0.2c0.1,0.2,0-0.1,0,0.1
			c-0.1,0-0.3,0-0.2-0.1c0,0.3,0.1,0.3,0.1,0.6c-0.2,0-0.1,0,0,0.2l-0.1,0.1c0,0,0,0,0,0c0,0,0,0,0,0c0,0,0,0,0,0c0,0,0,0,0,0
			l-0.3,0c0,0,0,0,0,0l-0.1,0c0,0.3-0.1,0,0,0.3l-0.5,0.3c0,0,0,0,0,0c0,0,0,0-0.1,0c-0.1-0.1-0.1,0.1-0.3,0.1c-0.1,0-0.2,0-0.4,0
			c-0.1,0,0,0-0.1,0l-0.1,0c0,0.2,0,0.2,0,0.2c0,0,0,0.1-0.1,0.1c0,0,0,0,0,0c0,0,0,0,0,0c0,0,0,0,0,0c-0.1,0,0,0-0.1,0l-0.1,0
			c-0.2-0.1,0.2,0-0.1,0c-0.2-0.1-0.3,0.1-0.4,0.2c-0.1,0,0,0-0.1,0c0,0,0,0,0,0s0,0,0,0l-0.2,0.1c0,0.1,0,0.2,0,0.3
			c0,0,0,0.1-0.1,0.1c0,0,0,0,0,0l0,0c-0.1,0.1-0.1,0.1-0.3,0.2l-0.1,0c-0.1,0-0.3,0-0.4,0c0,0-0.1,0-0.1,0c-0.1,0-0.2,0-0.3,0
			l0,0.2c0,0,0,0,0,0l0,0.3l-0.2,0c-0.1,0.1-0.1,0.1-0.2,0.2c-0.1,0-0.7-0.1-0.8,0c0,0,0,0,0,0c0,0,0,0,0,0l-0.4,0.4l-0.1,0
			c-0.1-0.1,0,0,0,0c0,0.2-0.1,0.1-0.2,0.4l-0.1,0.1c-0.2,0.4-0.4,0.3-0.5,0.3c0,0.1,0,0.3,0,0.4l0,0.1c0.1,0.2,0,0.3,0,0.5
			c-0.1,0.2,0,0.4,0,0.6l0.6,0.5c0.1,0.2,0.1-0.1,0.1,0.2c0.3,0,0.5,0,0.6,0.4c0,0.1,0,0.2,0,0.4c-0.2,0,0,0-0.1,0c0,0,0,0,0,0
			l0,0.1c-0.1,0.2,0,0.1,0,0.4l-0.1,0c-0.1,0-0.1,0-0.1,0.1l0.2,0.1c0.2,0.1,0,0.1,0.1,0.1V29c0.1,0,0.3,0,0.4,0l0.3-0.1
			c0,0,0,0,0,0c0,0,0,0,0,0l0.3,0.1c0,0,0,0,0,0l0.1,0.1c0.1,0.2,0.2,0.3,0.1,0.5c0,0.1,0-0.1,0,0.2c0-0.1,0-0.1,0.1,0
			c0.2,0.1,0.1,0.1,0.2,0.2c0,0,0,0,0,0l0.2,0.2c0.2-0.1,0.2,0,0.3,0c0.3,0.1,0.3,0.2,0.5,0.4c0.1,0.1,0.1,0,0.1,0.2
			c0,0.1,0.1,0.1-0.1,0.1h0.6v0.4c0.3,0,0,0,0.2,0.1c0.4,0.2,0.5,0.3,0.5,0.8l0.2-0.1c0,0,0,0,0,0c0,0,0,0.1,0,0.1l0.3,0.1v0.2
			c0.1-0.2,0,0,0.2-0.1c0,0.1,0,0.2,0.1,0.2l0.1,0c0,0,0,0,0,0l0.2,0.2c0.2,0.3,0,0.3,0.3,0.4l0.3,0.1c0.1,0.1,0.1,0,0.2,0.1
			c0.1,0.2,0.1,0.5,0.2,0.7c0,0.1,0.1,0.3,0,0.3c0.2,0.2,0.3,0,0.4,0.2l0,0.2c0.1,0.2,0.1,0.1,0.1,0.3c0,0.1,0,0.2,0,0.2
			c0,0,0-0.1,0-0.1l0.1-0.2c0.1,0.1,0.1,0.3,0.1,0.5c-0.1,0.2-0.1,0.1,0,0.2c0,0,0,0,0,0h0.2l0.2,0.2c0,0,0,0,0,0l0,0.1
			c0.1,0.1,0,0.4,0,0.6c0,0.3,0.1,0.2,0.1,0.5c-0.7,0-0.4-0.3-0.5-0.2c-0.1,0,0.1,0,0.1,0.1c0,0.3,0,0.3,0,0.5l0.1,0.5
			c0,0.2,0,0.3,0,0.4c0.3,0.1,0,0.1,0.2,0.1l0,0.1c0.1,0.1,0,0,0.1,0.1h0c-0.1-0.2,0-0.2,0-0.3c0,0,0,0,0,0c0.1-0.1,0.1,0,0.2,0
			c0.1,0.1,0.2,0.2,0,0.3c0.1,0,0.1,0,0.1,0c0,0,0-0.1,0-0.2c0.2,0.1,0.1,0,0.2,0.1l0,0.3c0,0,0,0,0,0c-0.1,0.3,0,0.9,0,1.2
			l-0.1-0.1c-0.1-0.1-0.1-0.1,0-0.1c0,0.2,0,0.4,0,0.6c0,0,0,0,0,0l0,0.1c0,0.1-0.1,0.3,0,0.4c0,0.1,0,0.1,0,0.1l0.1,0.4
			c0.1,0.2,0.1,0.2,0.1,0.4l0-0.1c0,0,0,0,0,0l0-0.1c0,0,0,0,0,0c0.1,0.1,0,0,0.1,0.1l0-0.2c0-0.2,0-0.1,0.2-0.1
			c0.1,0,0.2,0.2,0.3,0.3c0.1,0.1,0,0.7,0.1,1.1c0,0.1,0,0.3,0,0.4c0,0.3,0.1,0.4-0.1,0.5c-0.1-0.1,0-0.3,0-0.5c0-0.1-0.1,0,0-0.1
			c0,0.1,0,0.3,0,0.4c0,0.1,0,0,0,0.1c0,0.1,0,0,0,0.2c0,0.1,0,0.3,0,0.4c0,0.1,0,0.2-0.1,0.3l-0.1,0c0,0,0,0,0,0c0,0,0,0,0,0
			l-0.1-0.1c0,0.1-0.1,0.2,0,0.4c0,0.1,0,0,0.1,0.1l0.1,0.5c0,0.1,0,0,0,0.1c0,0,0,0,0,0c0,0.2,0.1,0.1,0.1,0.3l0.1-0.5
			c0.1,0,0.1,0,0.2,0c0.1,0,0.1,0,0.2,0.1c0.3,0.3,0.1,0.4,0.2,0.7l0.2,0.9c-0.1,0-0.2-0.1-0.2-0.2l-0.1,0.2c0,0,0,0-0.1,0.1
			c-0.1,0.1,0,0-0.1,0c0,0,0,0,0,0l-0.1-0.3c0,0,0,0,0,0c-0.1,0.3,0,0.1,0.1,0.4c0,0.1,0,0,0,0.2c0,0,0,0,0,0.1c0,0,0,0,0,0
			c0,0.1,0.1,0.2,0.1,0.3c0,0,0,0,0,0c0,0,0.1,0,0.1,0c0-0.2,0-0.2-0.1-0.3l0.2-0.3h11.5c0,0,0,0.1,0,0c0-0.1,0-0.2,0.1-0.3
			c0.2-0.1,0.5,0,0.7,0l0.5,0c0-0.1-0.2-0.1-0.2-0.1c-0.1,0-0.1,0-0.2,0l-0.2-0.1c-0.2-0.1-0.1-0.2-0.1-0.3l-0.2-0.2c0,0,0,0,0,0
			c0,0,0,0,0,0c-0.3-0.2-0.3-0.4-0.3-0.5c-0.1-0.2,0-0.1-0.1-0.2c-0.1-0.1,0-0.2-0.1-0.3c-0.1-0.2,0-0.1-0.1-0.2
			c-0.1-0.1,0.1,0-0.2-0.1c0-0.2-0.1-0.1,0.1-0.2l-0.1,0c-0.1,0-0.4-0.2-0.4-0.4c0-0.2,0-0.1,0.2-0.1c-0.2,0-0.2,0-0.3,0
			c-0.1-0.1-0.2-0.2-0.2-0.3l-0.1-0.1c0,0,0,0,0,0c0,0,0,0,0,0c0-0.1,0-0.1-0.2-0.1l0,0c0,0-0.1,0-0.1-0.1c-0.1-0.1-0.1,0-0.2-0.1
			c0,0-0.1-0.1-0.1-0.1c-0.1-0.1,0-0.1-0.1-0.2c-0.2-0.1-0.1,0-0.2-0.2c-0.1-0.1-0.3-0.3-0.5-0.3c0-0.2-0.1-0.1,0.1-0.2
			c-0.1,0-0.1,0-0.1,0l-0.4-0.1c0.1-0.1,0.1-0.1,0.3-0.1l0.4,0c0,0,0,0,0,0l0.2,0.1l0,0.2h0.1c0-0.2,0-0.2-0.2-0.2
			c0-0.2,0.1-0.3,0-0.3c0,0,0,0,0,0c0,0,0,0,0,0l-0.1-0.1c-0.3-0.2-0.2,0-0.6-0.3c0,0,0,0,0,0c-0.1-0.1,0-0.1-0.2-0.1
			c0-0.1,0-0.2,0.1-0.3l-0.3,0.1c0-0.2,0,0-0.1-0.2c0,0.1,0,0.1-0.1,0.1c0.2,0,0,0.1,0.1,0c0,0,0,0,0,0c0,0,0,0,0,0
			c0.1,0.3,0.3,0.2,0.3,0.6c-0.4,0-0.3-0.2-0.5-0.2l-0.3-0.1c-0.1-0.2,0-0.1,0-0.1c-0.1-0.1,0.1,0.1,0,0l-0.1,0
			c-0.1-0.1-0.4-0.3-0.5-0.4c0,0,0,0,0-0.1l0-0.1c0-0.1,0.1-0.1,0-0.1l-0.3-0.2c-0.1,0,0,0-0.1,0c0,0,0,0,0,0
			c-0.4-0.2-0.1-0.3-0.3-0.3c0-0.1,0,0-0.1,0c0,0,0,0,0,0l-0.1-0.2c-0.1,0-0.1,0-0.1,0l-0.2,0c0,0,0,0,0,0c0,0,0,0-0.1,0
			c-0.1-0.2,0-0.1-0.1-0.2l0-0.3c0-0.2,0,0.1,0-0.1c0-0.1,0.1-0.1,0,0l0.1-0.1c0.1-0.1,0.1,0,0.1,0c0,0,0,0,0,0l-0.1-0.1
			c0-0.2,0-0.1,0.1-0.1c0,0,0,0.1-0.1,0c-0.1-0.1,0,0,0-0.1c0,0.1,0.1,0.1-0.1,0.1c-0.3,0,0.1,0.1-0.1,0L197,39
			c0.2-0.1-0.1-0.1,0.2-0.1c-0.2-0.1-0.1,0-0.2-0.1c0,0,0.1,0,0,0.1c0,0,0,0,0,0c0,0,0,0,0,0l-0.2,0l0.1-0.2
			c-0.1-0.1-0.1-0.1-0.1-0.1c0,0,0,0,0,0c-0.1-0.1-0.2-0.2-0.3-0.3c-0.1,0,0,0-0.1,0c-0.1-0.1-0.2-0.2-0.2-0.2l-0.1-0.3
			c-0.1-0.2-0.1-0.1-0.4-0.2c-0.1,0-0.1,0-0.1-0.1l-0.2-0.4c-0.1-0.2-0.2,0-0.5-0.1c-0.1,0-0.1,0-0.1-0.1c0.1-0.2,0-0.1,0.2-0.1
			c0.1,0,0.4,0,0.4,0c-0.7,0-0.3-0.3-0.9-0.6l-0.1,0c-0.2,0-0.2-0.1-0.3-0.2l-0.1-0.2c0,0,0,0,0,0c-0.1-0.4,0.1-0.1-0.1-0.4
			c-0.1-0.2,0,0-0.1-0.2l0.2,0.1c0-0.1-0.2-0.1-0.2-0.1c-0.1-0.3,0-0.2-0.1-0.4l-0.1-0.1c0,0,0,0,0,0c0,0,0,0,0-0.1
			c0-0.2,0.1,0.1,0,0c0,0-0.1-0.1-0.1-0.1c-0.3-0.3-0.2-0.3-0.2-0.3c0,0,0,0,0,0l0.1-0.2c0-0.1,0,0,0.1-0.1c0,0-0.1,0-0.1-0.1
			c0,0-0.1-0.1,0-0.2c-0.2,0,0,0-0.2,0c0-0.1,0-0.2,0-0.3c0,0,0-0.1,0-0.1c0,0,0,0,0,0c-0.1-0.1-0.2-0.2-0.3-0.2
			c-0.1-0.1-0.1-0.1-0.1-0.1l-0.1,0c0,0.1,0,0.2-0.1,0.2c0,0,0,0,0,0c-0.2,0-0.2,0-0.3-0.2c0,0,0-0.1,0-0.1c0-0.1-0.1-0.1-0.2-0.2
			l0,0c-0.1,0.3,0.1,0.2,0.1,0.4c0,0.2-0.1,0.1-0.2,0l-0.2-0.2c0,0,0,0-0.1-0.1c0-0.1,0,0,0-0.1c0.1-0.2,0.1-0.1,0.2-0.2l0,0
			c0,0,0,0,0,0c0,0,0,0.1-0.2,0c0-0.2,0-0.2,0.2-0.3c-0.1-0.3,0.1-0.3-0.1-0.4c-0.1,0-0.1-0.1-0.1-0.1c0,0,0,0-0.1-0.1
			c0,0,0-0.1,0,0l0.1-0.1c0,0,0,0,0,0l0-0.1c0-0.2,0,0-0.1-0.2l0-0.2c0-0.1,0,0,0.1-0.1c-0.1,0-0.1-0.1-0.1-0.2
			c-0.1-0.2,0-0.3,0-0.4c0-0.1,0-0.3,0-0.4c0.1-0.1-0.1,0,0.1-0.1c0.2,0,0.2,0.2,0.1,0l0-0.2c-0.2,0-0.2,0-0.3-0.2c0,0,0,0,0,0
			l0-0.5c0-0.3,0-0.4,0.1-0.5c0-0.1,0.1,0,0.1-0.1c-0.1-0.1-0.1-0.1-0.1-0.2l0-0.4c0-0.1,0-0.1,0-0.3c0,0,0,0.1,0,0.1
			c0,0.1,0,0,0,0.1c0,0.1,0,0-0.1,0.1c-0.1-0.1-0.1-0.1-0.1-0.3l0-0.2c0.1-0.2,0-0.6,0-0.8l0.2-0.4c0,0,0,0,0,0c0-0.1,0-0.3,0-0.4
			l0,0c0,0,0,0,0,0c0,0,0,0-0.1-0.1c0,0,0-0.1,0,0c0,0,0,0,0-0.1l0.1-0.2c0,0,0,0,0,0c0-0.1,0.1-0.3,0.2-0.3c0-0.2,0.1-0.2,0.2-0.2
			c0,0,0-0.1,0-0.1c0-0.1,0.2-0.4,0.3-0.1c0-0.2-0.1-0.5,0.2-0.6c-0.1-0.1,0.1,0.1-0.2-0.1l0-0.2c0.1-0.2,0.2-0.2,0.4-0.2
			c0-0.1,0-0.1,0.1-0.2c0,0-0.1,0.1-0.1-0.1c0-0.1-0.1,0,0.1-0.1c-0.1-0.1-0.1,0-0.1-0.2c0,0,0,0,0,0l0.1,0c0.1-0.1-0.1-0.1,0.1-0.2
			c0.2-0.1,0.2,0,0.1-0.3c0.5,0,0.1-0.1,0.4-0.1c0-0.2,0,0.1,0-0.1c0,0,0,0,0-0.1c0,0,0,0,0-0.1c0-0.1,0,0-0.1-0.2
			c0.2,0,0.2-0.1,0.2,0.1l0-0.2c0-0.1-0.1-0.4,0.2-0.5c0-0.1,0-0.2,0-0.2c0,0,0,0,0,0l0.1-0.1c0-0.1,0,0,0-0.2h0.3l0-0.3
			c0-0.2,0.1,0,0.1-0.4c0,0,0,0,0,0l0-0.2c0,0,0,0,0,0l0-0.1c0.3-0.1,0-0.1,0.4-0.2c0,0,0,0,0,0c0,0,0,0,0,0c0,0,0,0,0,0
			c0,0,0-0.1,0-0.1c0.5,0,0.1-0.1,0.5-0.2c0-0.1,0-0.2-0.1-0.3c0-0.1,0,0,0-0.1c0,0,0-0.1,0-0.1l0.3-0.4c0.1-0.1,0.2-0.3,0.3-0.2
			c-0.2-0.1-0.1-0.3-0.1-0.5c0-0.1,0-0.4,0-0.5l0.2-0.5c0-0.1,0.2-0.2,0.2-0.2c0.1-0.1,0.1-0.1,0.4-0.1c0-0.1,0,0,0-0.1l0-0.3
			c0,0,0,0,0,0l0.1-0.3c0-0.1,0.1-0.1-0.1-0.2c0-0.2,0-0.1,0.1-0.2c0,0-0.1,0-0.1-0.1l0.1-0.1c0,0,0,0,0-0.1c0-0.1,0,0-0.1-0.2
			c0,0,0,0,0,0c0.1-0.1,0.3-0.4,0.7-0.4l-0.1-0.2c0-0.1,0-0.1,0-0.3c0.3,0,0.1,0.1,0.2,0.1c0.1-0.1,0-0.2,0-0.3c0-0.1,0,0,0.1-0.2
			c0.1-0.1,0.2-0.4,0.4-0.4c0-0.1,0-0.1-0.1-0.2l-0.1-0.1c-0.1-0.1,0,0-0.1-0.1c0,0.2,0-0.2,0.1,0.2c0,0.2-0.1,0.2-0.2,0.3l0,0
			C196.5,13.1,196.5,13,196.4,13.2L196.4,13.2z M181.1,34.5c0.1-0.1,0.2-0.4,0.3-0.6c0.1-0.4,0.3-0.1,0.4-0.6
			c0.1-0.3,0.1-0.4,0.1-0.8c0-0.2-0.1-0.6-0.3-0.6c-0.1,0-0.2,0-0.4,0l-0.6-0.1c-0.1,0-0.1,0-0.3,0l-0.6-0.1c0,0,0,0,0,0
			c-0.1,0-0.2,0-0.3-0.1l-0.2,0c-0.2,0.1-0.1,0.2-0.1,0.4c0,0.1,0,0.1,0,0.3c0,0.3-0.1,0.4-0.3,0.6l0,0c-0.5,0.3-0.4,0-0.5,0.3
			c-0.2-0.1-0.1-0.1-0.3,0c0,0.2,0,0,0.1,0.1c0,0,0,0,0,0c0,0,0,0,0,0l0,0c0.1,0,0,0.1,0,0.2l0.1,0.1c0,0,0,0,0,0
			c0.2,0,0.3-0.2,0.4-0.3l0.1,0c0.1,0,0.1,0,0.1-0.1l0.8-0.3c0.2-0.1,0.3-0.1,0.5,0l0.2-0.2c0,0,0,0,0-0.1l0.1,0.2c0,0,0,0,0,0
			c0,0.1,0,0.1,0.1,0.2l-0.2,0c0,0,0,0,0,0c0,0,0,0,0,0l-0.1,0.8c0,0,0,0,0,0c-0.1,0.2-0.3,0.4-0.3,0.6c0.2,0,0.2,0,0.3,0
			c0.1-0.1-0.1-0.1,0.1-0.1c0.1,0,0,0,0.1,0.1l0,0c0,0.1,0.1,0,0.1,0.1c-0.1,0,0,0-0.1,0c0,0,0,0,0,0l0,0.1c0,0,0,0,0,0l0.1,0
			c0,0-0.1,0.1,0.1,0l0.1,0.1L181.1,34.5L181.1,34.5z M167.8,31.9l-0.1-0.1c-0.1,0,0-0.1,0,0.2h-0.1c0-0.1,0,0,0-0.1
			c-0.1,0.2,0,0.2,0.2,0.2c0,0.2-0.1,0.3-0.1,0.4l0.1,0.1c0,0,0.1,0.1,0.1,0.1c0.2,0.2,0.1,0.3,0.4,0.3c0.3,0,0.1,0.2,0.3,0
			c0,0,0,0,0,0l0.2,0c0.2,0,0.6,0.1,0.7,0c0,0,0,0,0,0l0.1-0.1c0.1-0.1,0,0,0.1-0.1v-0.5c-0.1,0-0.1-0.1-0.1-0.3l0.1-0.3
			c0,0,0-0.1,0-0.1l0-0.4c0-0.2,0-0.3,0-0.5c0,0,0,0,0,0c0,0,0,0,0,0l0-0.2c0,0,0,0,0,0c0,0,0,0,0,0c-0.1-0.1,0-0.3,0-0.4
			c0.2,0,0.3,0.1,0.3,0.2c0.1-0.1,0,0,0.1-0.1l0.1-0.1c0,0,0,0,0,0c0,0,0,0,0,0c0,0,0,0,0,0c0,0.1,0.1,0.1,0.1,0.2
			c-0.1,0.2-0.1,0-0.1,0.3c0,0.2,0,0.3-0.1,0.4c0.2,0.1,0,0.1,0.2,0c-0.1,0.2,0,0-0.1,0.2c-0.2,0.3,0,0.3,0,0.6l0,0.2
			c0,0.1,0,0.2,0.1,0.2l0.3,0.1c0.2,0,0.1,0,0.3,0.2c0.1,0.1,0.1,0,0.2,0.2c-0.2,0.2-0.2-0.1-0.2,0.2l-0.1-0.1
			c-0.1,0-0.1,0.1-0.1,0.3c0,1,0.1,0.2,0.1,1.2c0,0.3,0.1,0.1,0.1,0.5c0,0.2,0.1,0.1,0.2,0.3c0.1,0.2,0.3,0,0.4,0.1
			c0,0.1,0,0.1,0,0.1c0,0.1,0,0,0.1,0.1c0,0,0,0.1,0,0.2c0,0.1,0,0.1-0.1,0.1l0.1,0.1c0-0.1,0-0.2,0-0.2c0-0.1,0,0,0-0.1
			c0.1-0.2,0.1,0,0.1,0c0.1,0.1,0,0.3,0.1,0.5c0.3,0.4,0.3,0.1,0.6,0.3l-0.1,0c-0.1,0.1-0.1,0.1-0.2,0.2c0.1,0,0.3,0,0.3,0
			c0.1,0,0.1,0.1,0.3,0c0.1,0,0.3-0.1,0.5,0l0.2,0.1c0.1,0,0,0,0,0c0,0,0,0,0,0l0,0c0.1,0-0.1,0,0.1,0v0c0-0.1,0,0.1,0-0.1
			c0,0,0,0,0,0c0,0,0,0,0,0c0-0.1,0-0.1,0-0.2c0.3-0.1,0.2-0.1,0.3,0.1c0.1,0.1,0.1,0.1,0.1,0.3c0,0.1,0,0.2,0.1,0.2
			c0.2,0,0.2,0,0.3,0c0.6,0.2,0.3,0,0.7,0.1c0,0,0,0,0,0l0,0c0,0,0,0,0,0c0-0.1,0,0,0-0.1c0.2,0,0.3,0.1,0.4-0.1l0.1,0.1
			c0.1,0.1,0.3,0,0.5,0c-0.1,0.1-0.3,0-0.4,0.1c-0.1,0.1,0,0,0,0.1l0.1,0.1c0.1,0.2-0.1-0.1,0,0.1c0.1,0,0,0,0-0.2h0.1
			c0,0.1,0,0.1,0.1,0.2c0,0.1,0,0,0.1,0.1v-0.2c0.1,0,0.1,0,0.2,0.1c0-0.1,0-0.1,0.1-0.2l0.1-0.5c0,0,0,0,0-0.1l0.1-0.1
			c0.1,0,0.1,0,0.2,0.1c0-0.1,0,0,0-0.1l-0.1-0.1l0-0.2l0-0.1c-0.1,0-0.2,0-0.2,0.1l0.1-0.2c0.1-0.4,0.2,0.1,0.2-0.9v0
			c0-0.3,0-0.3,0-0.4l0.1-0.2c0.1-0.3-0.1-0.2-0.1-0.2c0,0,0,0,0,0c0,0,0,0,0,0l-0.1,0.1c0,0,0,0.1,0,0.2h-0.1
			c0,0.4-0.1,0.3-0.1,0.7c0,0.2,0,0,0,0.1l-0.1,0.4c-0.1,0.4-0.1,0.3-0.3,0.6c-0.2,0.2,0.1,0.3-0.4,0.3c-0.1-0.1-0.1-0.1-0.2-0.1
			c-0.5-0.1-0.6-0.3-0.7-0.3c-0.1,0-0.1,0-0.2,0l-0.1-0.1c-0.6-0.3,0,0-0.6-0.2l-0.1,0c-1.2-0.4-1.9-0.1-2.1-0.3
			c0-0.1-0.1-0.8-0.1-0.9c-0.3,0,0,0-0.2,0.1c0-0.2,0,0,0-0.3c0-0.3,0-0.1-0.1-0.3c0.1-0.1,0,0,0.1-0.1l0.1,0c0,0,0,0,0,0
			c0-0.2-0.1-0.3-0.1-0.5c0-0.2-0.2-0.3-0.1-0.3c0-0.4,0-0.2-0.1-0.5c-0.1-0.1-0.1-0.4,0-0.5c0-0.1,0-0.2,0-0.3
			c0-0.2-0.1-0.1-0.1-0.2c-0.1-0.1,0-0.2,0-0.3c0-0.2-0.1-0.1-0.1-0.3c-0.1-0.1,0,0-0.1-0.1l-0.4-1c0-0.2,0-0.3-0.1-0.4
			c-0.2-0.1-0.3-0.3-0.3-0.6l-0.1-0.4c0,0,0,0,0-0.1c0.2-0.1,0.1-0.1,0.3-0.2c0.2-0.1,0.3,0,0.5,0c-0.1-0.1,0-0.1-0.1-0.1
			c0,0,0,0,0,0c0,0,0,0,0,0l0.1,0c0.1,0,0.1,0,0.2,0.1c0,0,0,0,0,0l0.1,0c0.2,0,0.1,0,0.1,0l0.1-0.1c0,0,0,0,0,0
			c0.1-0.1,0-0.1,0.1-0.1c0.1,0.1,0.1,0.1,0.3,0.2l0.3,0.1c0.4-0.1,0-0.1,0.2-0.1c0.2,0-0.1,0.2,0.2,0c0,0,0,0,0,0
			c0.1,0,0,0,0.1-0.1c0.1-0.1,0.1-0.1,0.3,0c0,0,0,0,0,0c0.2,0,0.1,0,0.3-0.1c0.2,0,0.2,0,0.3,0.1h0.3c0,0.3,0.2,0.3,0.2,0.5h1.1
			c0,0.2,0,0.1,0.2,0.2c0,0,0,0,0,0c0,0,0,0,0,0c0,0,0,0,0,0l0,0.4h0.3c0,0.3,0,0.1,0.1,0.2c0.1,0.2,0.1,0,0.1,0.1
			c0,0.2-0.1,0.2-0.1,0.4h0.1c0,0.1,0.1,0.1,0.3,0.1c0-0.1,0-0.1,0-0.2c0.2,0,0.1,0,0.2-0.1l0.4,0.2l0-0.7h-0.1c0,0.2,0,0.1-0.1,0.2
			c-0.1-0.1,0,0-0.1-0.2c-0.1-0.2-0.2,0-0.3-0.3c0-0.3-0.2-0.2-0.3-0.3c-0.3-0.2-0.4,0-0.6-0.4c0,0,0-0.2,0-0.3
			c0-0.2,0.1-0.1-0.1-0.3c0.1,0,0.1,0,0.1-0.1c0,0,0,0,0,0l0-0.1c0-0.2,0-0.2-0.1-0.3c0.1,0,0.1-0.2,0.2-0.3c0,0,0,0,0-0.1
			c0-0.1,0-0.3,0-0.3l-0.1,0.2c0,0,0,0.1,0,0.2c-0.1,0-0.1,0-0.1-0.2c0,0,0,0,0,0l0,0.1c0,0,0,0,0,0.1c-0.1,0.1,0.1,0-0.1,0.1v0.4
			l-0.4,0.2c-0.1,0.1-0.3,0-0.4-0.1c-0.5-0.1-0.8,0.2-1-0.4c0,0,0,0,0,0c0-0.1-0.1-0.1,0-0.3l0.1-0.2c0,0,0,0,0-0.1c0,0,0,0,0-0.1
			c0,0,0,0,0,0c-0.1-0.1-0.1-0.1-0.1-0.2c0-0.7,0.1-0.5,0.1-0.6c0,0,0,0,0,0c-0.2-0.1-0.1-0.2-0.1-0.3c0-0.1-0.1-0.1-0.1-0.3l0,0
			c0,0,0,0,0,0c0,0,0,0,0,0c-0.2-0.1-0.1,0.1-0.3,0l-0.3-0.1c-0.2-0.1,0-0.1-0.2-0.1c-0.1,0-0.1,0-0.2-0.1l0-0.1
			c-0.1-0.2-0.1-0.1-0.1-0.4c0,0,0-0.1,0-0.1l-0.1-0.1c-0.2,0-0.3,0-0.4,0.1c0-0.1,0-0.1-0.1-0.2c0,0,0,0,0,0c0,0,0,0,0,0
			c-0.2,0.3-0.1,0.3,0,0.4c-0.1,0-0.5-0.1-0.5-0.2c-0.1-0.1,0,0,0-0.1l-0.2-0.1c0.1-0.1,0-0.2,0-0.3c0,0,0,0,0,0l-0.1-0.1
			c-0.2,0-0.5,0-0.7,0c-0.4,0-0.1-0.2-0.4-0.3c0,0-0.1,0-0.1,0l-0.2-0.2c0,0.2,0,0.3,0,0.5c0,0.2-0.1,0.2,0,0.4c0,0,0,0,0,0
			c0,0.1,0,0,0,0.1l0,0.2c0,0,0,0,0,0l0,0.2c0,0.2,0,0.2,0.1,0.3c0.2,0.1,0,0,0,0l0,0.3c0,0.1,0,0,0.1,0c-0.1,0.2,0,0.2-0.1,0.3
			c-0.1,0.3-0.4,0.4-0.4,0.6l0,0.1c-0.1,0.2-0.1,0.2-0.1,0.4c0.2,0.1,0.1,0.4,0.1,0.5l0,1.5c0,0.7,0.1,0.6,0.1,0.9
			c0,0.2,0,0.4,0,0.6c0.1,0,0,0,0.1,0c0.1,0,0,0,0,0c0,0.3,0.1,0.2,0.1,0.5c-0.1,0-0.1,0-0.2,0l0,0.1c0,0,0,0,0,0c0,0,0,0,0,0
			c0,0.1,0-0.1,0,0.1c0,0-0.1,0.1,0,0.2l-0.2-0.3l0,0.1c0,0.3,0,0.1-0.1,0.1l-0.1,0.3l0.1,0.1l-0.1,0.3l-0.3,0.3
			c-0.2-0.1,0.2,0.1-0.1,0c0,0,0,0,0,0l-0.1-0.1c-0.2-0.1-0.3,0.1-0.4-0.2C167.8,32,167.9,32.1,167.8,31.9L167.8,31.9z"/>
		<path class="st0" d="M158.3,96.1c0-0.3,0.2-0.7,0.3-1c0.2-0.3,0.5-0.4,1-0.4c0.1,0.5-0.1,0.7-0.3,1
			C159.1,96,158.8,96.1,158.3,96.1L158.3,96.1z M177.5,66.7c0.1,0.2,0.4,0.5,0.5,0.6c0.3,0.3,0.5,0.2,0.4,0.6
			c-0.3,0-0.2-0.1-0.5-0.1c-0.1,0.3-0.1,1.5-0.1,2c0,0.2,0,0.3-0.1,0.5c0,0.2,0,0.3,0,0.5c0,0.2-0.1,0.2-0.1,0.4l0,1.5
			c0,0.6,0,0.4,0.2,0.8c0.1,0.3,0,0.5,0.2,0.8c0.2,0.3,0.3,0.4,0.2,0.8c-0.3,0-0.5-0.5-0.7-0.8c-0.2-0.2-0.1-0.3-0.2-0.5
			c-0.4-0.8-0.1-0.4-0.4-1.1c-0.1-0.2-0.1-0.3-0.1-0.6c0-0.2-0.1-0.4-0.1-0.6c-0.1-0.3,0-0.4-0.2-0.6c0.1-0.3,0-1.7,0-2.1
			c0-0.2-0.1-0.4-0.1-0.6c0-0.4,0-1.7-0.1-2c-0.1-0.2-0.2-0.3-0.1-0.6c0.2-0.1,0.3,0.1,0.4,0.2c0.1,0.1,0.2,0.2,0.3,0.3
			C177.4,66.4,177.4,66.6,177.5,66.7L177.5,66.7z M174.4,68.9c0.1,0.2,0.2,0.2,0.2,0.3c0.4,0.1,0.9,0.8,1.1,1.2
			c0.4,0.8,0.5,1,0.7,1.9c0,0.2,0.2,0.5,0.1,0.9c0,0.1,0.1-0.1,0.1,0.3c0,0.4,0.1,0.1,0.1,1c0,0.3,0.1,0.4,0.1,0.7l-0.2,1.3
			c-0.1,0.5-0.1,1.1-0.2,1.3c-0.1,0.3-0.1,0.8-0.3,1.2c-0.2,0.5-0.2,0.8-0.3,0.9c0,0.1-0.1,0.1-0.1,0.2c-0.1,0.3,0,0.3-0.2,0.5
			c-0.2,0.2-0.1,0.3-0.2,0.5c-0.1,0.2-0.2,0.3-0.3,0.4c-0.1,0.2-0.2,0.2-0.3,0.4c-0.1,0.1-0.2,0.3-0.4,0.4c-0.2,0.3-0.7,0.3-0.4,0.9
			c0.1,0.2,0.2,0.3,0.2,0.5c0.1,0.2,0.1,0.3,0.3,0.5c0.4,0.1,0.3-0.1,0.5-0.1c0.1-0.1,0,0,0.1-0.1c0,0,0,0,0,0c0.1-0.1,0,0,0.1-0.1
			c0.2,0,0.2-0.3,0.4-0.4c0.1-0.1,0.3-0.2,0.4-0.3c0.3-0.2,1-0.1,1.3,0c0.4,0.1,0.6,0.5,1.1,0.8c0.1,0.1,0.1,0.1,0.2,0.2
			c0.5,0.4,0.5,0.2,0.7,0.1c0.3-0.2,0.1-0.4,0.3-0.7c0.2-0.3,0.3-0.6,0.3-1c0.1-0.9,0.2-1.6,0.1-2.6c0-0.1-0.1-0.3-0.2-0.4
			c-0.3-0.8,0.3-0.7,0.4-0.6l0.5,0.7c0.1,0.3,0.1,0.2,0.3,0.3c0.7,0.7,0.1,1.3,0.1,1.9c-0.2,0.2,0,0.2-0.2,0.4
			c-0.1,0.1-0.1,0.2-0.2,0.3c-0.1,0.1,0,0.2-0.1,0.4c-0.4,0.7-0.3,0.7-0.5,1c-0.3,0.4-0.1,0.2-0.3,0.5c0,0.1,0,0,0,0.1l0,0.3
			c0,0.2,0-0.1,0,0.1l0,0.3c0,0,0,0,0,0c0,0,0,0,0,0c0,0,0,0,0,0l0.1,0c0.1-0.1,0.1-0.2,0.4-0.2c0.1,0.5,0,0.8-0.2,1.2
			c-0.4,1-0.1,0.7-0.2,1.1c-0.4,0.2-0.6,0-0.8-0.2c-0.2-0.2-0.3-0.1-0.7-0.5c-0.1-0.1-0.2-0.2-0.3-0.3c-0.3-0.2-0.6-0.7-0.9-0.9
			l-0.4,0.2c-0.1,0.1-0.1,0.1-0.2,0.2c0,0.2,0,0-0.1,0.1c-0.1,0.2,0-0.1-0.1,0.2c0,0,0.2,0,0.2-0.1l0.2,0l0.4,0.3
			c0.1,0.1,0.4,0.3,0.5,0.5c0.5,0.6,0.8,0.5,0.8,1.2c-0.6-0.1-1.3-0.9-1.7-1.3c-0.2-0.2-0.2-0.1-0.2-0.1c-0.1,0-0.2,0-0.3,0
			c-0.1,0-0.1,0-0.1,0.1c-0.1,0.1-0.1,0.2-0.1,0.2c0,0.1,0,0.3,0.1,0.3c0.1,0,0.2-0.1,0.3-0.2l0,0c0,0.2,0,0,0.1,0.2
			c0.1,0.1,0-0.1,0.1,0.1c0.1,0.3,0.1,0.4,0.3,0.4c-0.1,0.1,0,0.2,0.1,0.3c0.1,0.2,0,0.1,0.2,0.3c0.3,0.4,0.3,0.3,0.4,0.4l0,0.3
			c0,0.2,0.3,0.3,0.4,0.5c0.1,0.1,0.1,0.2,0.1,0.3l0.6,0.7c0.1,0.2,0.2,0.3,0.4,0.4c0.3-0.1,0.8-0.7,0.9-1.1c0-0.1,0.1-0.3,0.1-0.4
			c0.1-0.1,0.2-0.1,0.2-0.3c0.1-0.2,0-0.3,0.2-0.8c0.2-0.4,0.1-0.5,0.2-0.8c0.1-0.3,0.2-0.5,0.2-0.7c0-0.4,0.4-1.3,0.6-1.4
			c0.5-0.1,0.3,0.8,0.2,1c-0.1,0.4-0.1,0.8-0.1,1.2c-0.1,0.6-0.2,1-0.4,1.6c-0.1,0.2-0.2,0.2-0.2,0.4c-0.1,0.3-0.3,0.7-0.4,0.9
			c-0.3,0.5-0.8,1-1.4,1.3c-0.3,0.2-0.4,0.3-0.7,0.3l-0.3,0c-0.1-0.3,0,0-0.1-0.4c0-0.1,0-0.2-0.1-0.3c-0.1-0.3,0-0.4-0.1-0.6
			c-0.1-0.2-0.3-0.6-0.5-1c-0.1-0.1-0.2-0.2-0.3-0.4c-0.2-0.4-0.4-0.4-0.7-0.8c-0.4-0.4-0.4-0.4-0.9-0.2c-0.1,0.1-0.3,0.1-0.5,0.2
			c-0.3,0.1-0.7,0.2-0.8,0.5c-0.1,0.4-0.1,0.8,0.2,1c0.3,0.2,0.7,0.2,0.8,0.5c0.2,0.5,0,0.9,0,1.2c0,0.4-0.3,0.7-0.4,0.9
			c-0.5,0.6-0.7,1.2-1.4,1.3c0-0.6,0.2-1.2,0.4-1.7c0-0.2,0.2-0.7,0.2-0.8c0-0.2-0.2-0.3-0.3-0.8c-0.1,0-0.1-0.2-0.4-0.1
			c-0.2,0.1-0.7,0.6-1.2,0.6c-0.7,0.1-0.9,0-1.5-0.3c-0.2-0.1-0.2-0.2-0.4-0.3c-0.5,0-0.8,0.6-0.8,1.1c0,0.5,0.1,1.5-0.1,1.8
			c-0.3,0.1-0.5-0.1-0.8-0.2c-0.2-0.1-0.4-0.3-0.5-0.5c-0.4-0.6-0.3-1.3-0.3-1.6c-0.1-0.4,0-0.7,0.2-1l0.1-0.5c0,0,0,0.1,0.1,0
			c0.1-0.1,0,0,0.1-0.1c0.2-0.3,0.1-0.1,0.2-0.2l0.1-0.5l-0.4-0.2c-0.4-0.1-0.8-0.1-1.3-0.3c0,0,0,0,0,0c0,0,0,0-0.1,0c0,0,0,0,0,0
			c-0.4-0.2-0.4,0-0.4,0c0,0,0,0,0,0l-0.4-0.2c-0.1-0.1,0-0.1-0.1,0c-0.1,0,0.1,0.1-0.1,0c0,0.1,0-0.1-0.2-0.1
			c-0.1,0.3,0.1,0.3-0.3,0.5c0,0.1,0,0.1,0,0.1l0.1,0.2c0.1,0.1,0,0,0,0.2c0.1-0.1,0.1-0.3,0.1-0.4c0.4,0.1,0.2,0.3,0.2,0.5
			c-0.1,0.4,0.1,0-0.2,0.6c-0.4,0.9-0.2,0.4-0.6,0.9c-0.1,0.2-0.2,0.4-0.3,0.5c-0.1,0.2-0.1,0.3-0.2,0.5c-0.3,0.5-0.2,0.6-0.3,1.3
			c-0.5,0.1-0.4,0.1-0.8-0.1l-0.6-0.4c0-0.1-0.1-0.3-0.2-0.3l-0.5-0.8c-0.1-0.1-0.1-0.2-0.1-0.4c0-0.2,0-0.3,0-0.4
			c0.1,0,0.1,0,0.3,0c-0.1,0,0.1,0,0-0.1l0.1,0.1l0.1-0.1c0,0-0.1,0,0.1,0c0,0.1-0.2,0.1,0,0.4l0.1,0.2c0,0,0,0,0,0c0,0,0,0,0,0
			l0.2,0.2c0.1,0.1-0.1-0.1,0.1,0c0,0,0,0,0.1,0.1c0.1,0.1,0.1,0.2,0.4,0.2c0.3,0,0.4-0.2,0.5-0.4l0-0.1c0-0.3-0.1,0,0-0.1
			c0,0,0,0,0,0c0,0,0,0,0,0l0.2-0.2c0,0,0.1-0.1,0.1-0.1c0.1,0,0.1,0,0.2,0c0-0.2,0-0.1,0-0.3c0-0.2-0.1,0,0-0.2
			c0.1-0.2-0.1,0.1,0.1-0.1c0,0,0,0,0,0c0,0,0,0,0,0c0,0,0,0,0,0c0.1-0.1,0,0,0.1,0c0-0.1-0.1-0.2,0-0.2c0.1-0.1,0-0.1,0.1-0.2
			l0.1-0.1c0.1-0.1,0.1-0.2,0.2-0.3c0,0,0.1-0.1,0.1-0.1c0,0,0,0,0,0c0,0,0,0,0,0c0,0,0,0,0,0c0-0.1,0-0.1-0.1-0.2c0,0,0,0,0,0
			l0-0.1c0,0,0,0,0,0c-0.2,0-0.1,0.1-0.2,0.1l-0.1,0c0,0,0,0,0,0c0,0,0,0,0,0c0,0,0,0,0,0l0,0.2c0,0-0.1,0.1-0.1,0.1c0,0,0,0,0,0
			c-0.1,0.1-0.2,0.2-0.2,0.3l0,0.1c0,0,0,0,0,0c-0.3,0.2-0.1,0-0.3,0.2c0,0,0,0,0,0l-0.1,0.2c-0.1,0.2-0.2,0.3-0.3,0.4l-0.1,0.1
			c0,0,0,0,0,0c-0.3,0.3-0.2,0.2-0.5,0.1c-0.2,0-0.3,0-0.3-0.3c0,0-0.2-0.6-0.3-0.7c-0.1-0.2-0.1-0.6-0.1-0.9c0.1,0,0.6,0.4,1,0.1
			c0.2-0.2,0.2-0.1,0.4-0.2c0.5-0.3,0.8-0.9,1.3-1.4l0.1-0.2c0.1-0.5-0.1-0.3,0.2-0.5c0.1-0.1,0,0,0.1-0.1c0.3-0.4,0.3-0.2,0.3-0.4
			c0-0.1,0-0.1,0-0.2c-0.1,0-0.1,0-0.2,0.1c-0.1,0.1-0.2,0.2-0.2,0.3c-0.1-0.2,0-0.1-0.2-0.1c-0.1,0.1-0.4,0.6-0.6,0.7l-0.1,0
			c0.1,0.3-0.2,0.5-0.4,0.7c-0.1,0.1-0.3,0.3-0.4,0.4c-0.2,0.3-0.2,0.2-0.2,0.4c-0.3,0-0.1,0.2-0.4,0.2c-0.2,0-0.4-0.2-0.4,0
			c0.1-0.2,0-0.2,0-0.3c-0.2-0.2-0.2,0-0.3-0.5l0,0c-0.1,0.1,0,0-0.2,0c0-0.3,0-0.6,0-0.6l-0.1-0.1c0-0.1,0,0.1,0-0.1
			c0.2,0,0.2,0,0.3-0.1c0.3-0.2,0.2-0.1,0.2-0.2c0,0,0,0,0-0.1c0,0-0.2,0,0,0c0.1,0,0.1,0,0.1,0c0-0.2-0.1-0.4,0-0.4c0,0,0,0,0,0
			l0,0c0,0,0,0,0,0.1l0.1-0.1c0.2-0.3,0.2-0.2,0.2-0.2c0.3-0.1,0.3-0.1,0.3-0.1l0-0.1c0.1-0.2,0-0.1,0.1-0.3l0.1-0.2
			c0.2-0.3,0.1,0.1,0.1-0.3c0.1,0.1-0.1,0.1,0.2,0.1c0.3,0,0.1,0,0.1-0.1c0.1-0.1,0.1-0.2,0.1,0l0.2-0.1c0.1,0,0,0,0.1-0.1
			c0,0,0,0,0.1-0.1c0.1-0.1,0.1-0.1,0.1-0.2l1.6-1.1c0.5-0.5,0.4-0.2,0.6-0.5c0.1-0.2,0.3-0.5,0.6-0.5c0.2,0,0.7,0.6,0.9,0.8
			c0.2,0.2,0.4,0.7,0.7,0.9c0.2-0.1,0.1-0.2,0.2-0.4c0.3-0.7,0.3-0.6,0.4-0.8c0.1-0.2,0-0.3-0.1-0.4c-0.1-0.2-0.1-0.2-0.2-0.4
			l-0.6-1.1c-0.1-0.1-0.2-0.2-0.2-0.4c-0.1-0.3-0.2-0.6-0.4-0.8c-0.2-0.2-0.1-0.1-0.2-0.4c-0.1-0.5-0.5-0.6-0.6-1.8
			c-0.2-0.3-0.4-1.3-0.4-1.8c0-0.7,0.2-2.3,0.4-2.9c0.1-0.2,0.1-0.3,0.1-0.4l0.5-1.2c0.2-0.2,0.1-0.1,0.2-0.4c0-0.1,0.1-0.3,0.2-0.3
			l0.1-0.4c0.1-0.3,0.2-0.3,0.4-0.6c0.1-0.1,0.1-0.2,0.2-0.3c0.2-0.3,0.3-0.7,0.5-0.9c0.2-0.2,0.1-0.2,0.2-0.3
			c0-0.2,0.2-0.3,0.4-0.3c0.4,0.1,0.2,0.3,1.7,0.3c0.9,0,0.9-0.2,1.7-0.3c0.3,0,0.1-0.2,0.4-0.2C174.6,67.9,174.2,68.6,174.4,68.9
			L174.4,68.9z M188.1,93.6c0.1,0.2,0.4,0.4,0.8,0.4c0.2,0,0.3-0.1,0.4-0.2c0.2-0.1,0.3-0.1,0.5-0.1c0.1-0.1,0.9-0.9,1.1-1.3
			c0-0.1,0.1-0.3,0.1-0.5l0.6-1.9c0.1-0.1,0.1-0.3,0.2-0.4c0.1-0.3,0-0.2,0.2-0.4c0.2-0.2,0.1-0.2,0.2-0.5c0.3,0.1,0.2,0.4,0.1,0.6
			c-0.1,0.2-0.2,0.5-0.2,0.7c0,0.2,0,0.8-0.2,1.6c-0.1,0.3-0.4,1-0.5,1.3c-0.2,0.3-0.6,0.9-0.6,1.3c0.3,0,0.2,0,0.4-0.2
			c0.1-0.1,0.2-0.1,0.3-0.2c0.2-0.3,0.5-0.6,0.7-0.9c0.1-0.2,0.1-0.2,0.2-0.3c0.2-0.2,0.2-0.5,0.4-0.7c0-0.3,0.1-0.3,0.2-0.5
			c0-0.1,0-0.5,0.1-0.7c0.1-0.4,0.2-0.8,0.3-1.2c0-0.9,0-1.4,0-2.2c0-0.3-0.2-0.3-0.2-0.6c0-0.4,0-0.9-0.2-1.3
			c-0.1-0.3,0-0.4-0.3-1.2c-0.1-0.2-0.1-0.3-0.2-0.5c0-0.2-0.2-0.3-0.2-0.5c-0.1-0.2,0-0.4-0.1-0.6l-1.2-2.5l-1.2-1.8
			c-0.4-0.7-0.2-0.1-0.5-0.6c-0.2-0.4-0.5,0.1-0.4-1.4c0-0.5,0-1,0-1.5l-0.1-1c0-0.2,0-0.3-0.1-0.4l0-0.1c-0.1-0.1,0.1-0.8-1.2-1.2
			c-0.1,0-0.7-0.4-0.8-0.4c-0.1-0.1-0.3-0.1-0.4-0.2c-0.1-0.1-0.2-0.2-0.3-0.3c-0.3-0.1-0.2-0.2-0.3-0.5c-0.1-0.2-0.2-0.3-0.2-0.5
			c0.5-0.1,0.5,0.4,0.9,0.3c0.1-0.3,0-0.7-0.1-0.9c-0.1-0.3,0-0.5-0.2-0.8c-0.3-0.5-0.7-1-0.8-1.3c-0.3-0.5-0.8-0.9-0.7-1.3
			c0.2-0.7,0.3,0.1,0.7-0.9c0.2-0.5,0.2-1.8,0-2.3c-0.2-0.6-0.6-1.5-1-2.1c-0.1-0.2-0.4-0.4-0.2-0.7c0.2-0.3,0.3-0.2,0.3-0.7
			c0-0.3,0-0.6,0.1-1c0.1-1.1,0-1.1-0.1-1.9c-0.1-1-0.1-0.6-0.4-1.7l-0.4-1.1c-0.3-0.6-0.1-0.5-0.3-0.8c-0.1-0.1-0.1-0.2-0.2-0.3
			c-0.1-0.3-0.2-0.4-0.3-0.7c-0.1-0.2-0.3-0.5-0.3-0.7c-0.1-0.3-0.2-0.5-0.3-0.7c-0.2-0.2-0.2-0.5-0.3-0.7c-0.3-0.5-0.3-0.6-0.5-1
			c0-0.1-0.1-0.2-0.2-0.4c-0.1-0.2,0-0.2-0.2-0.4c-0.1-0.1-0.1-0.2-0.2-0.3c-0.1-0.2,0-0.2-0.1-0.4c-0.2-0.4-0.2-0.9-0.4-1.1l0-0.3
			c0.3,0.1,0.4,0.7,0.7,0.9c0.1-0.4,0-0.3-0.1-0.4l0-0.1c0.1-0.1,0,0,0.1,0c-0.2-0.1-0.1,0-0.2-0.2l0-0.1c0-0.1,0-0.2-0.2-0.2
			c0.1-0.2,0.1-0.1,0.2-0.1c0,0,0.1,0,0.1,0.1c0.1,0.1,0,0,0.1,0.1c0-0.2,0-0.2-0.1-0.3l0.2-0.1c0,0.1,0.1,0,0.1,0.3h0.1
			c0-0.2,0-0.1,0-0.2h0.1c0,0.2,0,0.4,0.2,0.5c0.1,0,0.1,0,0.2,0.1l0.1,0.2c0,0.1,0,0,0,0.1c0.3,0.1,6.7,0.1,7.1,0
			c0-0.1,0-0.1,0-0.2c0-0.2,0-0.1-0.1-0.2c-0.1-0.1,0-0.5,0-0.7l0-0.4c0,0,0,0,0,0l-0.1,0c-0.2-0.1-0.1-0.2-0.2-0.3
			c-0.1-0.2,0,0.2,0,0l-0.1-0.2c0-0.2,0.1-0.2,0-0.4c-0.1-0.2,0,0.2,0,0l0-0.2c0-0.1,0-0.1,0-0.1c0-0.1,0.2-0.2-0.1-0.3
			c0.2-0.1,0.1-0.2,0-0.3c0.1,0.1,0.1,0,0.2,0c0-0.3,0-0.1-0.1-0.3l-0.2,0c-0.1,0-0.1-0.1-0.1-0.1l-0.1-0.1
			c-0.1-0.1-0.2-0.1-0.1-0.2c0.1-0.1,0.1-0.3,0-0.3l-0.1-0.1c-0.1-0.1,0-0.2-0.1-0.3c-0.3,0-0.1,0.3-0.5,0.1c-0.1,0,0.1,0-0.1,0
			c0,0,0,0,0,0l-0.4-0.2c-0.1-0.1,0,0.1,0-0.1c0,0,0-0.2-0.2-0.3l-0.1,0c-0.1-0.1-0.1-0.1-0.3-0.2l-0.1,0c-0.1,0-0.2-0.2-0.3-0.3
			c-0.2-0.2-0.2,0-0.5-0.2l-0.1,0c0,0,0,0-0.1,0c-0.2-0.1-0.6-0.1-0.7-0.2c-0.1-0.1,0,0.1,0,0l0-0.1c0-0.1-0.1-0.1-0.2-0.2
			c-0.1,0,0,0-0.1,0c-0.1,0-0.1,0-0.1,0l0-0.2c0-0.1-0.1-0.2-0.1-0.2l-0.2-0.3c0,0,0.2,0-0.1,0c-0.3,0,0.2,0.2-0.6,0
			c-0.2,0,0.1,0-0.1,0l-0.2-0.1c-0.2-0.1-0.2-0.1-0.3-0.3c0,0,0,0,0,0c-0.1-0.2-0.3-0.1-0.5-0.2c-0.1,0-0.2-0.1-0.3,0l0-0.2
			c-0.1-0.1-0.2-0.2-0.3-0.3c-0.1-0.1-0.1-0.2-0.3-0.2c-0.1,0-0.1,0.1-0.2,0.1c-0.2,0-0.5-0.1-0.7,0c0,0-0.1,0.1-0.1,0.1
			c0,0-0.3,0-0.6-0.1l-0.2,0c-0.2,0-0.4-0.1-0.5-0.1c-0.1,0-0.3,0-0.5,0c-0.1,0-0.2,0.2-0.2,0l-0.5-0.3c-0.1-0.1-0.1-0.3-0.3-0.3
			c-0.2-0.1,0.1,0.1-0.1,0c0.3,0,0,0,0.2-0.1c0-0.2,0-0.2,0-0.4l0-0.1c-0.1-0.1,0-0.2-0.1-0.3c-0.2,0.1-0.1-0.1-0.1,0.2
			c0,0,0-0.1,0-0.2h-0.1l0,0.2l0.1,0.1c0,0,0,0,0,0.1c-0.1-0.1-0.1-0.1-0.2-0.1l-0.1,0.1c0,0,0,0,0,0.1l-0.1,0.5
			c0,0.1-0.1,0.1-0.1,0.2c-0.1-0.1,0-0.1-0.2-0.1v0.2c-0.1,0-0.1,0-0.1-0.1c0-0.1,0-0.1-0.1-0.2h-0.1c0,0.2,0,0.1,0,0.2
			c-0.1-0.2,0.1,0.2,0-0.1l-0.1-0.1c0,0-0.1,0,0-0.1c0.1-0.1,0.3,0,0.4-0.1c-0.2-0.1-0.3,0-0.5,0l-0.1-0.1c-0.1,0.1-0.2,0.1-0.4,0.1
			c0,0.1,0,0.1,0,0.1c0,0,0,0,0,0l0,0c0,0,0,0,0,0c-0.4-0.2-0.1,0-0.7-0.1c-0.1,0-0.2,0-0.3,0c-0.2,0-0.1-0.1-0.1-0.2
			c-0.1-0.3,0-0.2-0.1-0.3c-0.2-0.2-0.1-0.2-0.3-0.1c0,0.1,0.1,0.1,0,0.2c0,0,0,0,0,0c0,0,0,0,0,0c-0.1,0.1,0,0,0,0.1v0
			c-0.2,0,0,0-0.1,0l0,0c0,0,0,0,0,0c-0.1,0,0,0,0,0l-0.2-0.1c-0.1,0-0.4,0-0.5,0c-0.1,0.1-0.1,0-0.3,0c-0.1,0-0.3,0-0.3,0
			c0-0.1,0.1-0.1,0.2-0.2l0.1,0c-0.2-0.1-0.3,0.1-0.6-0.3c-0.1-0.1,0-0.4-0.1-0.5c0,0,0-0.2-0.1,0c-0.1,0.1,0,0,0,0.1
			c0,0.1,0,0.1,0,0.2l-0.1-0.1c0.1,0,0.1,0,0.1-0.1c0-0.1,0-0.2,0-0.2c0-0.1,0,0-0.1-0.1c0-0.1,0-0.1,0-0.1
			c-0.1-0.1-0.3,0.1-0.4-0.1c-0.1-0.2-0.2-0.1-0.2-0.3c0-0.5-0.1-0.3-0.1-0.5c0-1-0.1-0.2-0.1-1.2c0-0.2-0.1-0.3,0.1-0.3l0.1,0.1
			c0-0.3,0-0.1,0.2-0.2c0-0.2-0.1-0.1-0.2-0.2c-0.1-0.2-0.1-0.1-0.3-0.2l-0.3-0.1c-0.1,0-0.1-0.2-0.1-0.2l0-0.2c0-0.3-0.2-0.3,0-0.6
			c0.1-0.1,0,0,0.1-0.2c-0.2,0,0,0.1-0.2,0c0.1-0.1,0.1-0.2,0.1-0.4c0-0.2,0,0,0.1-0.3c0-0.1-0.1-0.1-0.1-0.2c0,0,0,0,0,0
			c0,0,0,0,0,0c0,0,0,0,0,0l-0.1,0.1c-0.1,0.1,0,0-0.1,0.1c-0.1-0.1-0.1-0.2-0.3-0.2c0,0.2,0,0.3,0,0.4c0,0,0,0,0,0c0,0,0,0,0,0
			l0,0.2c0,0,0,0,0,0c0,0,0,0,0,0c0,0.1,0,0.3,0,0.5l0,0.4c0,0,0,0.1,0,0.1l-0.1,0.3c0,0.1,0,0.2,0.1,0.3v0.5c-0.1,0,0,0-0.1,0.1
			l-0.1,0.1c0,0,0,0,0,0c-0.1,0.1-0.5,0-0.7,0l-0.2,0c0,0,0,0,0,0c-0.2,0.1,0,0-0.3,0c-0.3,0-0.2-0.1-0.4-0.3c0-0.1-0.1-0.1-0.1-0.1
			l-0.1-0.1c0-0.1,0-0.2,0.1-0.4c-0.2-0.1-0.2,0-0.2-0.2c0.1,0,0,0,0,0.1h0.1c0-0.2-0.1-0.1,0-0.2l0.1,0.1c0.2-0.1,0.1,0,0.2-0.1
			c0-0.1,0-0.5,0-0.7c0-0.4-0.2-0.2,0-0.4l0.1-0.2c0,0,0-0.1,0-0.1c0-0.1,0-0.2,0.1-0.3c0.1-0.4,0-0.4,0-0.7h-0.4
			c-0.1,0.1,0,0.3-0.1,0.4c0,0-0.1,0-0.2,0c-0.2,0,0,0-0.2,0.1c-0.1,0-0.1,0.1-0.1,0.2c-0.1,0.2-0.4,0.5-0.5,0.7
			c-0.1,0.3,0,0.2-0.3,0.5c-0.2,0.2-0.1,0.2-0.2,0.5c-0.1,0.5-0.2-0.2-0.5,1.1c-0.1,0.5-0.2,0.8-0.2,1.3c-0.1,0.6-0.2,0.7-0.2,1.3
			c0,0.4-0.1,1.2,0,1.5c0.3,0.9-0.6,0.5-0.7,0.5c-0.9-0.1-1,0.1-1.4,0.2c-0.6,0.2-1,0.4-1.4,0.8c-0.1,0.1-0.1,0.1-0.3,0.2
			c-0.1,0.1-0.1,0.1-0.2,0.2c-0.1,0.1-0.2,0.1-0.3,0.2l-0.4,0.5c-0.2,0.2-0.2,0.3-0.4,0.5c-0.2,0.2-0.6,0.9-0.6,1.1l-0.2,0.1
			c-0.1-0.2,0-0.1,0-0.1c0-0.1,0.1-0.2,0.1-0.3c0.1-0.2,0.1-0.3,0.1-0.6c0-0.2,0.1-0.3,0.2-0.5c0-0.2,0-0.4,0.1-0.6
			c0.1-0.2,0.2-0.2,0.2-0.4c0.1-0.2,0.4-1.3,0.5-1.4c0-0.2,0.1-0.6,0.2-0.7c0.1-0.1,0.1-0.1,0.2-0.3c0-0.1,0-0.2,0.1-0.3l0.4-1.1
			c0.2-0.4,0.2-0.8,0.3-1.2c0-0.1,0.3-0.6,0.4-1.1l0.4-1.1c0.1-0.3,0.1-0.4,0.1-0.7c0-0.2,0.1-0.4,0.2-0.6c0.1-0.3,0-0.4,0.1-0.6
			c0.2-0.3,0.1-0.4,0.2-0.6c0.1-0.1,0.4-0.9,0.6-1c0.1-0.2,0.1-0.3,0.3-0.4l0.6-0.6c0.2-0.2,0.1-0.1,0.3-0.3l1-0.9
			c0.1-0.1,0.2-0.2,0.3-0.2c0.1-0.1,0.1-0.1,0.2-0.3c0.5-0.9,0.2,0.1,0.6-1.2c0.2-0.7,0.1-0.5,0-0.9c0-0.1,0-0.2,0-0.3
			c-0.1-0.5-0.7-1.6-1-2c-0.1-0.2-0.2-0.2-0.3-0.4c-0.1-0.3-0.2-0.1-0.2-0.5c-0.1-0.7-0.5-0.2-0.3-3.3c0-0.3,0-0.5,0.1-0.8
			c0.1-0.6,0.1-1.6-0.1-2.2c-0.1-0.2-0.2-0.2-0.3-0.5c-0.1-0.2-0.1-0.3-0.2-0.5c0-0.1-0.1-0.2-0.1-0.3c-0.1-0.2-0.1-0.1-0.2-0.2
			l-0.2-0.5c-0.4-0.1-0.3-0.4-0.6-0.5c-0.2-0.2-0.4-0.2-0.7-0.4c-0.8-0.6-0.5-0.3-1.3-0.8c-0.1-0.1-1.5-0.5-1.6-0.5
			c-0.3,0-0.6-0.1-0.9-0.2c-0.2,0-0.8,0-1.1,0c-0.1,0.1-0.3,0.7-0.3,0.9c-0.1,0.7,0,0.7,0.2,1.1c0.1,0.2,0,0.3,0.1,0.5
			c0.2,0.5,0.8,0.7,0.8,1.1c0,0.2-0.1,0.3-0.1,0.5l0,1.9c0,0.8,0,1.7,0,2.6c0.1,0.2,0.1,0.8,0.1,1.2c0,0.4,0.1,0.8,0.1,1.3l0,0.2
			c0,1.4,0.1,4.6-0.1,5.6c0,0.1-0.1,0.3-0.1,0.4c0,0.2,0,0.3,0,0.4c-0.1,0.1-0.1,0.2-0.2,0.3c-0.1,0.1-0.1,0.3-0.1,0.4
			c-0.1,0.1-0.4,0.8-0.5,1.1c-0.2,0.6-0.5,1-0.8,1.5c-0.1,0.2-0.2,0.3-0.3,0.5c-0.1,0.2-0.2,0.3-0.3,0.4c-0.2,0.2-0.1,0.4-0.3,0.5
			l-0.1,0.1c-0.2,0.2-0.1,0.2-0.2,0.4c-0.1,0.2-0.2,0.4-0.3,0.6c-0.1,0.2-0.2,0.3-0.4,0.5c-0.2,0.2-0.2,0.3-0.3,0.5
			c-0.1,0.2-0.2,0.2-0.4,0.5c-0.1,0.2-0.2,0.3-0.4,0.5c-0.2,0.3-0.3,0.6-0.7,1l-0.1,0c0,0.2-0.2,0.3-0.3,0.5l-0.5,0.8
			c-0.1,0.1-0.1,0.1-0.2,0.2c-0.1,0.2-0.2,0.2-0.3,0.5c-0.1,0.2-0.1,0.1-0.2,0.3c-0.1,0.1-0.1,0.2-0.1,0.3c-0.1,0.2-0.1,0-0.4,0.5
			c-0.1,0.2-0.2,0.3-0.3,0.5l-1.3,2c-0.1,0.2-0.2,0.4-0.3,0.5c-0.1,0.1-0.1,0.1-0.2,0.2l-0.4,0.8c-0.2,0.2-0.1,0-0.4,0.5
			c-0.1,0.2-0.1,0.1-0.3,0.5c-0.1,0.1-0.1,0.1-0.2,0.3c-0.1,0.2-0.2,0.4-0.5,0.7l-0.9,1.2c-0.1,0.1-0.1,0.1-0.2,0.2
			c-0.1,0.2-0.1,0.3-0.3,0.5l-0.7,1c-0.3,0.6-0.5,0.8-0.7,1c-0.2,0.4-0.2,0.3-0.3,0.5c-0.1,0.2-0.1,0.4-0.2,0.6
			c-0.2,0.2-0.2,0.4-0.3,0.6c-0.4,0.6-0.1,0.2-0.3,0.5c-0.1,0.1-0.1,0.1-0.2,0.3c0,0.1-0.1,0.6-0.2,0.8c-0.1,0.1,0,0.1-0.1,0.1
			c0,0,0,0,0,0l-0.1,0.4c-0.1,0.4-0.4,0.8-0.5,1.1c-0.1,0.3-0.1,0.5-0.3,0.8l-0.3,0.7c-0.1,0.3-0.2,0.4-0.3,0.7
			c-0.1,0.2-0.2,0.6-0.3,0.8c-0.1,0.2-0.2,0.6-0.3,0.8c-0.1,0.2-0.1,0.1-0.2,0.4c0,0.2-0.1,0.3-0.2,0.3l0,0.1
			c-0.1,0.4-0.2,0.8-0.3,1.2l-0.4,1.1c-0.1,0.3-0.1,0.4-0.1,0.6c-0.1,0.3-0.2,0.1-0.1,0.6c0,0.2-0.3,1.5,0,2
			c0.1,0.2,0.1,0.3,0.3,0.5c0.3,0.5,0.2,0.6-0.1,1l-0.6,0.9c-0.1,0.1-0.5,0.9-0.5,1c-0.1,0.6-0.1,0.9,0.1,1.4c0.4,0.9,0.4,0.6,0.6,1
			c0.3,0.4,0.4,0.6,0.7,0.9c0.5,0.4,0,0.5,1,0.7c1.4,0.2,1.7,0.2,3.1,0.1c1.1,0,1.7-0.2,2.2-0.2c0.1,0,0.3,0,0.4,0
			c0.1,0,0.2-0.1,0.3-0.1l0,0c0.2-0.1,0.6-0.2,0.9-0.1c0-0.1-0.1,0,0.1-0.1c0,0,0.1-0.1,0.1-0.1c0.1,0,0.2,0,0.3-0.1
			c0.2-0.1,0.3-0.1,0.5-0.2c0.2-0.1,0.3-0.1,0.5-0.2l1-0.4c0.3-0.1,0.3,0,0.5-0.2c0.2-0.2,0.2-0.1,0.5-0.2c0.2-0.1,0.6-0.4,0.9-0.5
			c0.3-0.1,0.3-0.1,0.5-0.2c0.2-0.1,0.3-0.1,0.5-0.2c0.1-0.1,0.3-0.2,0.4-0.3l2.2-1.3c0.2-0.1,0.2-0.2,0.4-0.3
			c0.5-0.3,0.1,0.1,0.8-0.6c0.2-0.1,0.3-0.1,0.5-0.2c0.2-0.1,0.2-0.2,0.4-0.3c0.2-0.1,0.3-0.1,0.5-0.2c0.1-0.1,0.3-0.2,0.4-0.3
			c0.3-0.3,0.3-1.7,0.5-2.3c0.1-0.3,0.5-1.1,0.7-1.3c0.1-0.1,0.2-0.1,0.3-0.1c0.2,0,0.2,0,0.2,0l0.1,0c0.1,0.4-0.3,1.6-0.4,2.1
			c-0.1,0.5-0.2,0.5-0.3,1c0,0.3-0.1,0.3-0.2,0.5c-0.1,0.2,0,0.3-0.2,0.5c0,0.1,0,0,0,0c-0.1,0.2-0.2,0.4-0.3,0.6
			c-0.1,0.1-0.1,0.2-0.1,0.4c0,0.1-0.1,0.2-0.2,0.3c-0.1,0.3-0.2,0.7-0.4,0.9c-0.1,0.1-0.1,0.1-0.1,0.3c-0.1,0.2-0.2,0.4-0.3,0.6
			c-0.2,0.4-0.2,0.6-0.5,1.3c-0.1,0.3-0.1,0.5-0.3,0.6c-0.3,0.3-0.1,0.4-0.2,0.7c-0.1,0.3-0.1,0.3-0.2,0.7c0,0.3-0.1,0.5-0.2,0.8
			c-0.1,0.3,0,0.4-0.3,0.6c-0.7,0.4-0.4,0.1-0.8,0.6c-0.1,0.1-0.5,0.4-0.6,0.7c-0.3,0.7,0,0.3-0.1,0.6c0,0,0,0,0,0l0.1,0.5
			c0.1,0.7,0.1,1.9,0,2.6c0,0.4-0.2,0.6-0.2,0.8c0,0.3,0,0.2-0.1,0.5c-0.1,0.3-0.9,2.1-1,2.2l-0.2,0.2c-0.1,0.3-0.1,0.2-0.2,0.4
			c-0.1,0.1-0.1,0.2-0.1,0.4c-0.1,0.2-0.2,0.2-0.2,0.3c-0.1,0.1-0.1,0.3-0.2,0.3c-0.1,0.2-0.1,0.1-0.2,0.3c0,0.1,0,0.2-0.1,0.3
			c-0.1,0.2-0.2,0.2-0.2,0.5c0,0.1-0.2,1.2-0.3,1.2c-0.2,1.1-0.1,0.8-0.1,1.9c0,1,0,1.8,0.2,2.8c0.1,0.3,0.1,0.6,0.1,0.9
			c0.2,1,0.3,1.1,0.4,1.6c0.1,0.4,0.3,1.1,0.5,1.5c0.1,0.3,0.1,0.5,0.3,0.7c0.3,0.4,0.1,0.3,0.4,0.6c0.5,0.6,0.1,0.6,1.2,1.3
			c0.1,0.1,0.1,0.1,0.3,0.2c0.2,0.1,0.4,0.3,0.7,0.3c0.1-0.2,0-0.2,0-0.4l0-0.1c-0.4-0.2-0.8-1.2-1-1.6c-0.2-0.3-0.1-0.4-0.3-0.6
			c-0.2-0.3-0.1-0.3-0.3-0.6c-0.1-0.3-0.2-0.2-0.2-0.6c0-0.4,0-1.3,0.1-1.6c0.5,0.1,0.4,1.2,0.6,1.5c0.3,0.7,0.3,1.1,0.5,1.7
			c0.1,0.2,0.3,0.5,0.4,0.7c0.1,0.3,0.1,0.5,0.4,0.7c0.7,0.6,0.9,0,1.2,0c0.1,0,0.4,0,0.5,0c0,0,0.2,0-0.1,0.2
			c-0.2,0.2-0.7,0.2-0.8,0.4c-0.1,0.4,1.1,1.5,1.1,1.5c0.1,0.1,0.1,0.2,0.2,0.3l1.2,0.9c0.1,0.1,0.2,0.1,0.4,0.2
			c0.2,0.1,0.1,0.1,0.3,0.2c0.2,0.1,0.2,0.1,0.3,0.2c0.2,0.1,0.3,0,0.4,0.1c0.2,0.1,0.4,0.2,0.7,0.3c0.3,0.1,0.5,0.2,0.8,0.3
			l0.8,0.3c0.3,0.1,0.5,0.2,0.8,0.3c0.2,0.1,0.6,0.1,0.8,0.2l1.5,0.6c0.3,0.1,0.5,0.2,0.7,0.3c0.2,0.1,0.8,0.5,0.8,0.1
			c0-0.1,0,0,0-0.1c0-0.1-0.1-0.1-0.1-0.2l0.1-1.6c0-0.2,0.1-0.3,0.1-0.4c0.1-0.5,0-0.9,0.2-1.4l0.3,0c0.1,0.3,0,1.3,0,1.7
			c0,0.3-0.1,0.6-0.1,0.9c0,0.3,0,0.6,0,0.9c0,0.3,0.1,0.6,0.2,0.7c0.1,0.1,0.2,0.2,0.3,0.1c0.3-0.1,0.1-0.2,0.4-0.6
			c0.2-0.2,0.4-0.6,0.6-0.8c0.3-0.2,0.9-0.8,1-0.8c0.1-0.1,0.2-0.1,0.3-0.1c0.4-0.2,0.5-0.4,0.8-0.4c0.1,0,0.1,0.1,0.1,0.1
			c0,0.2-0.1,0.2-0.3,0.4c-0.4,0.5-0.9,0.8-1.1,1.1c-0.1,0.2-0.5,0.6-0.7,0.8c-0.2,0.2-0.4,0.7-0.6,0.8c-0.1,0.2-0.1,0.1-0.2,0.3
			c-0.1,0.2,0,0.1-0.2,0.3c-0.3,0.3,0,0.3-0.4,0.9l-0.5,0.8c-0.4,0.9-0.2,0.4-0.5,1.3c-0.1,0.2-0.1,0.4-0.2,0.7l-0.4,1.4
			c-0.1,0.5-0.2,1-0.3,1.5c0,0.7-0.4,3.8-0.2,4c0.4,0.2,0.6-0.4,0.6-0.7c0-0.9-0.2-1.2,0.4-1.6c0.2-0.1,0.4-0.1,0.6,0
			c0.6,0.1,0.4,0.1,1,0.3c0.3,0.1,0.6,0.3,0.9,0.5c0.5,0.2,0.4,0.3,0.7,0.6c0.2,0.3,0.8,0.7,0.9,1.1c0.1,0.2,0.1,0.2,0.3,0.4
			c0,0.1,0.1,0.2,0.1,0.2c0.1,0.1,0.1,0.1,0.2,0.2c0.1,0.2,0.1,0.3,0.2,0.5c0.4,1.2,0.3,2-0.6,3c-0.2,0.3-0.4,0.4-0.8,0.6
			c-0.7,0.4-1.3-0.2-1.7-0.8c-0.1-0.1-0.3-0.2-0.5-0.2c-0.3-0.1-0.3,0-0.5,0.1c0,0.3,0.2,0.7,0.4,0.8c0.4,0.4,0.1,0.2,0.3,0.4
			c0.1,0.1,0.2,0.1,0.3,0.2c0.1,0.1,0.4,0.5,0.7,0.7c0.4,0.2,1.6,0.8,1.9,0.8c0.4,0,0.4,0,0.8,0.1c0.5,0.2,2,0.1,2.6,0
			c0.3-0.1,0.3-0.1,0.8-0.1c0.4,0,1.6-0.5,2-0.8c0.1-0.1,0.1-0.1,0.3-0.2c0.2-0.1,0.2-0.1,0.3-0.2c0-0.1,0.5-0.5,0.7-0.6
			c0.2-0.2,0.4-0.6,0.6-0.7c0-0.2,0.3-0.4,0.3-0.5c0.2-0.2,0.4-0.8,0.4-0.9c0-0.1,0-0.1-0.2,0l-0.1,0c0,0,0,0,0,0
			c-0.1,0.1,0,0.1-0.1,0.2c0,0-0.1,0.1-0.1,0.1c-0.5,0.3-0.3,0.2-0.5,0.5l-0.5,0.5c-0.1,0.1-0.2,0.1-0.3,0.2c-0.3,0.2,0,0.2-0.8,0.2
			c-0.6,0-1.1,0-1.6-0.5c-0.2-0.2-0.6-1-0.6-1.4c0-0.9,0.2-1.1,0.3-1.8c0-0.2,0.5-1.2,0.6-1.4c0.3-0.7,1.3-1.8,2-2.1
			c0-0.3,0.3-0.2,0.5-0.2c0.4-0.1,0.5-0.4,1.2-0.2c0.1,0,0.2,0,0.4,0c0.2,0,0.1,0.1,0.3,0.1c0,0.1-0.1,0,0.1,0.1c0.1,0,0.1,0,0.3,0
			c0.1-0.2,0.1,0,0.1-0.2c0.1-0.3-0.3-3.1-0.4-3.4c-0.3-0.6,0-0.3-0.3-1c-0.1-0.2-0.1-0.3-0.1-0.6c-0.1-0.4-0.4-0.9-0.4-1
			c0-0.1,0-0.2,0-0.3c0-0.1-0.1-0.1-0.1-0.2c-0.1-0.2-0.1-0.3-0.2-0.5c-0.1-0.2-0.1-0.2-0.2-0.5c-0.2-0.6-0.3-0.6-0.4-1
			c-0.1-0.1-0.5-1-0.6-1.2c-0.3-0.6-0.7-1.2-1-1.9c-0.1-0.2-0.1-0.3-0.1-0.5c-0.1-0.2-0.1-0.2-0.2-0.4l-0.5-1.8
			c-0.1-0.2,0-0.3-0.1-0.5c0-0.3-0.1-0.2-0.1-0.5c0.4,0,0.8,0.4,0.9,0.7l0.5,1.1c0.1,0.3,0,0.4,0.1,0.7c0.3,0.5,0.1,0.5,0.3,1.3
			c0.1,0.2,0.1,0.5,0.2,0.6c0.2,0.2,0.3,0,0.6-0.1c0.5-0.1,1.3-0.5,1.6-0.7c0.2-0.1,0.9-0.4,1-0.6c0.2-0.2,0.3-0.1,0.5-0.3l1.4-1
			c0.2-0.1,0.3-0.2,0.5-0.3c0.2-0.1,0.2-0.2,0.4-0.4c0.2-0.1,0.3-0.2,0.4-0.3c0.2-0.2,0.3-0.1,0.4-0.3c0.2-0.2,0.2-0.2,0.4-0.4
			c0.1-0.1,0.3-0.2,0.5-0.3c0-0.2,0.2-0.3,0.4-0.4c0.1-0.1,0.3-0.3,0.5-0.4c0.3-0.3,0.6-0.1,1.1-0.3c0.3-0.1,0.7-0.2,0.9-0.5
			c0.5-0.6,0.2-0.2,0.6-0.8c0.1-0.2,0.5-0.6,0.4-0.9c-0.2,0-1.2,0-1.6-0.2c-0.1,0-0.2-0.1-0.2-0.2l-0.8-0.6c-0.3-0.3,0-1.1,0.2-1.5
			c0.2-0.6,0.1-0.6,0.5-0.9c0.5-0.5,0.3,1,0.2,1.1C188.1,92.6,188.1,93.3,188.1,93.6L188.1,93.6z M166.8,34.3c0.8,0,0.8,0.1,1.3,0.5
			c0.5,0.4,0.5,0.9,0.6,1.1c0.1,0.2,0.3,1,0.4,1.3c0.1,0.7,0.1,0.9-0.2,1.4l-0.5,0c0,0.1-0.1,0.1-0.2,0.1c-0.2,0.3-0.9,0.1-1.1,0.1
			c0-0.1,0,0,0-0.1c-0.1-0.2-0.1-0.2-0.2-0.5c-0.1-0.3-0.2-0.4-0.3-0.6c-0.1-0.1-0.1-0.5-0.2-0.7c-0.1-0.3-0.3-0.3-0.3-0.5
			c0-0.2,0-0.2-0.1-0.4c0-0.1-0.1-0.2-0.2-0.3c-0.1-0.3-0.3-0.7,0.1-1c0.1-0.1,0.1-0.1,0.2-0.2C166.3,34.4,166.6,34.4,166.8,34.3z
			 M173.7,49.7c-0.1-0.6-0.1-1.3-0.3-1.7c-0.2-0.3,0.1-0.3-0.2-1.1c-0.1-0.2-0.1-0.3-0.1-0.5c-0.1-0.2,0-0.4-0.1-0.5
			c-0.1-0.2-0.1-0.2-0.2-0.5c-0.1-0.3-0.2-0.7-0.3-1c-0.1-0.4-0.1-0.7-0.3-1c-0.2-0.4,0-0.4-0.3-1c-0.2-0.5-0.1-0.5-0.1-0.8
			c0-0.2,0-0.1,0-0.3c0.3,0,0.5,0.4,0.6,0.7l0.9,2.4c0,0.2,0,0.4,0.1,0.6c0.1,0.2,0.1,0.2,0.1,0.5c0.1,0.9,0.2,0.7,0.2,1.1
			c0,0.2,0,0.8,0.2,1.2c0.1,0.3,0.2,0.1,0.2,0.5c0,0.5,0.1,0.8,0.2,1.2l0.1,1.2c0,0.4,0.2,0.7,0.2,1.1c0.1,1.1,0.1,0.6,0.2,1.1
			c0,0.2,0.1,0.4,0.1,0.6c0.1,0.2,0.2,0.3,0.2,0.5c0.1,0.4,0.1,0.7,0.3,1l0.9,1.8c0.1,0.2,0.1,0.2,0.3,0.4c0.6,0.6-0.1,0.8-0.5,0.4
			c-0.2-0.2-0.4-0.4-0.6-0.7c-0.2-0.3-0.3-0.5-0.4-0.9c0-0.2-0.1-0.3-0.2-0.4c-0.1-0.1,0-0.4-0.1-0.5c-0.3,0-0.3,0.5-0.4,0.8
			c-0.2,0.7,0,0.6,0,1c0,0.2,0,0.2,0,0.3l0.1,1.8c0,0.2,0,1.1,0.2,1.4c0,0.2,0.1,0.4,0.1,0.6c0,0.3,0,0.4,0.1,0.6
			c0.2,0.3,0.1,0.2,0.2,0.5c0,0.3,0.1,0.3,0.1,0.7c-0.3,0-0.5-0.2-0.6-0.4c-0.3-0.5-0.2-0.2-0.4-0.6c-0.1-0.2-0.1-0.2-0.2-0.3
			c0-0.1-0.1-0.3-0.1-0.4c-0.3-0.7-0.3-1.6-0.4-2.4c-0.1-1.5,0.1-2.5,0.1-3.7l0.1-1.8C173.8,52.3,173.9,50.7,173.7,49.7L173.7,49.7z
			 M165.8,71.1c0-0.4,0.1-0.5,0.2-0.9c0.1-0.2,0.1-0.6,0.4-0.7c0.1,0.1,0.1,0.2,0.2,0.3c0.3,0.7,0.1,0,0.4,1c0.1,0.3-0.2,2-0.3,2.4
			c-0.1,0.4-0.2,1.3-0.3,1.5c-0.2,0.3-0.3,0.5-0.4,0.5c-0.1-0.2,0-0.1,0-0.2c0-0.1-0.1-1.4-0.1-1.6
			C165.7,72.5,165.8,72.2,165.8,71.1L165.8,71.1z M156.3,58.8c0,0.1,0,0.1-0.1,0.1c0,0-0.6,0.3-0.5-0.2c0-0.1,0.1-0.1,0.1-0.2
			c0-0.4,0.3-0.5,0.5-0.7c0.1-0.1,0.2-0.2,0.3-0.3c0.1-0.1,0.1-0.3,0.2-0.4c0.2-0.5,0.6-0.8,0.7-1.2c0.1-0.2,0.1-0.3,0.2-0.4
			c0.1-0.2,0.1-0.3,0.1-0.5c0.1-0.2,0.1-0.1,0.2-0.4c0-0.2,0.1-0.2,0.1-0.5c0.1-0.4,0.3-1.8,0.1-2.2c-0.1-0.2-0.1-0.3,0-0.5
			c0.4-0.1,0.5,0.1,0.8,0.3c0,0.7-0.1,1.6-0.3,2.2c-0.1,0.2-0.1,0.9-0.2,1c-0.2,0.3,0,0.3-0.3,0.9l-0.4,0.8c-0.2,0.4,0,0.2-0.5,0.8
			c-0.1,0.2-0.2,0.2-0.3,0.3c-0.1,0.1-0.2,0.2-0.3,0.3C156.7,58.4,156.5,58.5,156.3,58.8z M153.5,58.2c-0.2,0-0.3-0.4-0.5-0.8
			c-0.2-0.5-0.2-1.6-0.2-2.2c0-0.3,0.1-0.3,0.1-0.5c0.1-0.8,0.2-0.5,0.3-0.9c0.1-0.2,0.1-0.2,0.2-0.4l0.5-0.8
			c0.2-0.3,0.4-0.4,0.6-0.7c0.2-0.2,0.4-0.4,0.6-0.6l0.7-0.5c0.3-0.3,0.4-0.3,0.8-0.5c0.3-0.1,0-0.2,0.8-0.5
			c0.5-0.2,0.3-0.3,0.9-0.3c0.5,0,1.2,0.2,1.7,0c0.2-0.1,0.4,0,0.6-0.1c0.2,0,0.3-0.1,0.5-0.1c0.3-0.1,1.4-0.2,1.6-0.2
			c0,0.2-0.3,0.4-0.5,0.5c-0.7,0.1-0.4,0.1-0.8,0.2l-2.4,0.6c-0.2,0.1-0.1,0.1-0.3,0.2c-0.1,0-0.3,0.1-0.4,0.1
			c-0.2,0.1-1.3,0.4-1.4,0.6c-0.3,0.3-0.8,0.3-1.3,0.8c-0.2,0.2-0.5,0.2-1.1,0.9c-0.6,0.7-0.4,0.4-0.8,1.3c-0.4,1-0.2,0.9-0.3,1.2
			c-0.1,0.3-0.1,0.9,0,1.3c0,0.2,0,0.3,0,0.5C153.4,57.5,153.6,57.5,153.5,58.2L153.5,58.2z M169.4,57.3c0,0.1-0.4,0.6-0.6,0.8
			c-0.4,0.4-0.3,0.6-0.6,0.7c0-0.4,0-0.4,0.1-0.7c0.1-0.2,0.2-0.4,0.3-0.6c0.1-0.3,0.2-0.3,0.3-0.5c0-0.1,0-0.3,0.3-0.5
			c0.1-0.2,0.1-0.3,0.2-0.5c0.1-0.2,0.1-0.3,0.2-0.4c0.1-0.3,0.3-0.4,0.4-0.8c0.1-0.4,0.3-0.5,0.3-0.9c0.1-0.6,0.3-1,0.4-1.5
			c0-0.2,0.1-0.3,0.1-0.5c0.1-0.4,0-0.8,0.1-1.2c0-0.5,0.1-0.6,0-1.2c0-0.2-0.1-0.3-0.1-0.5c0-0.3,0.1-0.5,0.3-0.4
			c0.1,0.1,0.3,0.8,0.3,1c0.2,0.7,0.1,3-0.1,3.6c-0.1,0.5,0.1,0.4-0.1,1.2c-0.1,0.4-0.1,0.7-0.1,1.1c0,1.9,0.2,1.1,0.2,1.7
			c0,0.4,0.1,0.3,0.1,0.6c-0.1,0.1-0.2,0.1-0.4,0.1c-0.4-0.2-0.1-1.2,0-1.2c-0.5-0.3-0.5-0.1-0.8,0.1
			C169.5,57.1,169.6,57.2,169.4,57.3z"/>
		<path class="st0" d="M196.2,13.1c0.1,0,0,0,0.2,0.1c0.1-0.2,0.1-0.1,0.3-0.2l0,0c0.1-0.1,0.2-0.2,0.2-0.3c0-0.4-0.1,0-0.1-0.2
			c0.1,0,0,0,0.1,0.1l0.1,0.1c0.1,0.1,0.1,0.1,0.1,0.2c-0.2,0-0.4,0.3-0.4,0.4c-0.1,0.1,0,0.1-0.1,0.2c0,0.1,0,0.3,0,0.3
			c-0.2,0,0-0.1-0.2-0.1c0,0.2,0,0.2,0,0.3l0.1,0.2c-0.4,0-0.6,0.3-0.7,0.4c0,0,0,0,0,0c0.1,0.2,0.1,0.1,0.1,0.2c0,0.1,0,0,0,0.1
			l-0.1,0.1c0.1,0,0.1,0.1,0.1,0.1c-0.1,0.1-0.1,0.1-0.1,0.2c0.2,0.1,0.1,0,0.1,0.2l-0.1,0.3c0,0,0,0,0,0l0,0.3c0,0.1,0,0,0,0.1
			c-0.3,0-0.2,0-0.4,0.1c-0.1,0-0.2,0.2-0.2,0.2l-0.2,0.5c0,0.1,0,0.4,0,0.5c0,0.2,0,0.4,0.1,0.5c-0.1-0.1-0.3,0.2-0.3,0.2l-0.3,0.4
			c0,0,0,0.1,0,0.1c0,0.1,0,0,0,0.1c0.1,0.1,0,0.2,0.1,0.3c-0.4,0,0,0.2-0.5,0.2c0,0,0,0.1,0,0.1c0,0,0,0,0,0c0,0,0,0,0,0
			c0,0,0,0,0,0c-0.3,0-0.1,0.1-0.4,0.2l0,0.1c0,0,0,0,0,0l0,0.2c0,0,0,0,0,0c0,0.4,0,0.2-0.1,0.4l0,0.3h-0.3c0,0.1,0,0.1,0,0.2
			l-0.1,0.1c0,0,0,0,0,0c0,0.1,0,0.1,0,0.2c-0.3,0.1-0.2,0.4-0.2,0.5l0,0.2c-0.1-0.2,0-0.1-0.2-0.1c0,0.2,0,0.1,0.1,0.2
			c0,0,0,0.1,0,0.1c0,0,0,0,0,0.1c0,0.1,0-0.1,0,0.1c-0.3,0,0,0.1-0.4,0.1c0.1,0.3,0,0.2-0.1,0.3c-0.2,0.1,0,0.1-0.1,0.2l-0.1,0
			c0,0,0,0,0,0c0,0.2,0,0.1,0.1,0.2c-0.2,0.1-0.1,0-0.1,0.1c0,0.2,0.1,0.1,0.1,0.1c0,0-0.1,0.1-0.1,0.2c-0.2,0-0.3,0-0.4,0.2l0,0.2
			c0.2,0.2,0,0,0.2,0.1c-0.3,0.1-0.2,0.4-0.2,0.6c-0.1-0.3-0.3-0.1-0.3,0.1c0,0,0,0.1,0,0.1c-0.2,0-0.3,0.1-0.2,0.2
			c-0.1,0-0.2,0.1-0.2,0.3c0,0,0,0,0,0l-0.1,0.2c0,0,0,0.1,0,0.1c0,0,0,0,0,0c0.1,0.1,0.1,0.1,0.1,0.1c0,0,0,0,0,0l0,0
			c0,0.1,0.1,0.3,0,0.4c0,0,0,0,0,0l-0.2,0.4c0,0.3,0.1,0.6,0,0.8l0,0.2c0,0.1,0,0.2,0.1,0.3c0.1-0.1,0,0,0.1-0.1c0-0.1,0,0,0-0.1
			c0,0,0-0.1,0-0.1c0,0.1,0,0.2,0,0.3l0,0.4c0,0.1,0,0.2,0.1,0.2c0,0.1,0,0.1-0.1,0.1c-0.1,0.2,0,0.2-0.1,0.5l0,0.5c0,0,0,0,0,0
			c0,0.1,0.1,0.1,0.3,0.2l0,0.2c0.1,0.1,0-0.1-0.1,0c-0.1,0,0-0.1-0.1,0.1c-0.1,0.1,0,0.3,0,0.4c-0.1,0.2-0.1,0.3,0,0.4
			c0,0.1,0,0.2,0.1,0.2c-0.1,0.1,0,0-0.1,0.1l0,0.2c0,0.1,0.1,0,0.1,0.2l0,0.1c0,0,0,0,0,0l-0.1,0.1c0,0,0,0,0,0
			c0,0,0.1,0.1,0.1,0.1c0,0.1,0,0.1,0.1,0.1c0.2,0.1,0,0.1,0.1,0.4c-0.2,0-0.2,0.1-0.2,0.3c0.2,0.1,0.2,0,0.2,0c0,0,0,0,0,0l0,0
			c-0.1,0.1-0.2,0-0.2,0.2c0,0.1,0,0.1,0,0.1c0,0.1,0,0.1,0.1,0.1l0.2,0.2c0,0.1,0.2,0.2,0.2,0c0-0.2-0.2-0.1-0.1-0.4l0,0
			c0.1,0.2,0.2,0.1,0.2,0.2c0,0,0,0.1,0,0.1c0,0.2,0.1,0.2,0.3,0.2c0,0,0,0,0,0c0.1,0,0.1-0.1,0.1-0.2l0.1,0c0.1,0,0.1,0,0.1,0.1
			c0.1,0.1,0.2,0.1,0.3,0.2c0,0,0,0,0,0c0,0,0,0.1,0,0.1c0,0,0,0.2,0,0.3c0.1,0.1-0.1,0,0.2,0c0,0.1,0,0.2,0,0.2
			c0,0.1,0.1,0.1,0.1,0.1c-0.1,0,0,0-0.1,0.1l-0.1,0.2c0,0,0,0,0,0c0,0-0.1,0,0.2,0.3c0,0,0.1,0.1,0.1,0.1c0.1,0.1,0-0.1,0,0
			c0,0,0,0.1,0,0.1c0,0,0,0,0,0l0.1,0.1c0.1,0.2,0,0.1,0.1,0.4c0.1,0,0.2,0,0.2,0.1l-0.2-0.1c0.1,0.3,0,0.1,0.1,0.2
			c0.3,0.3,0.1,0,0.1,0.4c0,0,0,0,0,0l0.1,0.2c0.1,0.1,0.2,0.2,0.3,0.2l0.1,0c0.6,0.3,0.2,0.6,0.9,0.6c0,0-0.3,0-0.4,0
			c-0.2,0.1,0,0-0.2,0.1c0,0,0,0,0.1,0.1c0.2,0.1,0.4-0.1,0.5,0.1l0.2,0.4c0,0,0,0.1,0.1,0.1c0.2,0,0.3-0.1,0.4,0.2l0.1,0.3
			c0,0.1,0.1,0.2,0.2,0.2c0.1,0,0,0,0.1,0c0.1,0.1,0.3,0.2,0.3,0.3c0,0,0,0,0,0c0,0,0,0.1,0.1,0.1l-0.1,0.2l0.2,0c0,0,0,0,0,0
			c0,0,0,0,0,0c0.1-0.2,0-0.1,0-0.1c0.1,0.1,0,0,0.2,0.1c-0.3,0,0,0-0.2,0.1l0.1,0.1c0.2,0.2-0.2,0,0.1,0c0.2,0,0.1,0,0.1-0.1
			c0,0.1-0.1,0,0,0.1c0.1,0.1,0,0,0.1,0c-0.1,0.1-0.1,0-0.1,0.1l0.1,0.1c0,0,0,0,0,0c0,0,0-0.1-0.1,0l-0.1,0.1c0.1,0,0-0.1,0,0
			c0,0.1,0-0.1,0,0.1l0,0.3c0.1,0.1,0,0,0.1,0.2c0,0,0.1,0,0.1,0c0,0,0,0,0,0l0.2,0c0.1,0,0.1,0,0.1,0l0.1,0.2c0,0,0,0,0,0
			c0.1,0.1,0.1-0.1,0.1,0c0.1,0.1-0.1,0.2,0.3,0.3c0,0,0,0,0,0c0,0,0,0,0.1,0l0.3,0.2c0.1,0,0,0,0,0.1l0,0.1c0,0.1,0,0,0,0.1
			c0.1,0.1,0.3,0.4,0.5,0.4l0.1,0c0.2,0.1-0.1-0.1,0,0c0,0,0-0.1,0,0.1l0.3,0.1c0.3,0,0.1,0.2,0.5,0.2c0-0.3-0.2-0.3-0.3-0.6
			c0,0,0,0,0,0c0,0,0,0,0,0c-0.2,0.1,0,0-0.1,0c0.1,0,0.1,0,0.1-0.1c0.1,0.1,0,0,0.1,0.2l0.3-0.1c-0.1,0.1-0.1,0.2-0.1,0.3
			c0.1,0,0,0,0.2,0.1c0,0,0,0,0,0c0.3,0.3,0.2,0.1,0.6,0.3l0.1,0.1c0,0,0,0,0,0c0,0,0,0,0,0c0,0.1,0,0.2,0,0.3c0.2,0,0.2,0,0.2,0.2
			h-0.1l0-0.2l-0.2-0.1c0,0,0,0,0,0l-0.4,0c-0.2,0-0.2,0-0.3,0.1l0.4,0.1c0,0,0.1,0,0.1,0c-0.1,0.1-0.1,0-0.1,0.2
			c0.1,0,0.4,0.2,0.5,0.3c0.1,0.2,0,0,0.2,0.2c0.1,0.1,0,0.1,0.1,0.2c0,0,0.1,0.1,0.1,0.1c0.1,0.1,0.1,0,0.2,0.1c0,0,0.1,0,0.1,0.1
			l0,0c0.1,0.1,0.1,0,0.2,0.1c0,0,0,0,0,0c0,0,0,0,0,0l0.1,0.1c0,0.1,0.2,0.2,0.2,0.3c0.1,0.1,0.2,0,0.3,0c-0.2,0-0.1-0.1-0.2,0.1
			c0,0.1,0.2,0.4,0.4,0.4l0.1,0c-0.2,0.1,0,0-0.1,0.2c0.2,0.1,0.1-0.1,0.2,0.1c0.1,0.1,0,0.1,0.1,0.2c0,0.1,0,0.2,0.1,0.3
			c0.1,0.1,0,0.1,0.1,0.2c0,0.1,0,0.3,0.3,0.5c0,0,0,0,0,0c0,0,0,0,0,0l0.2,0.2c0,0.1-0.1,0.2,0.1,0.3l0.2,0.1c0.2,0.1,0.1,0,0.2,0
			c0,0,0.2,0,0.2,0.1l-0.5,0c-0.2,0-0.6,0-0.7,0c0,0.1-0.1,0.2-0.1,0.3c0,0.1,0,0,0,0h-11.5l-0.2,0.3c0.1,0.1,0.1,0.1,0.1,0.3
			c0,0-0.1,0-0.1,0c0,0,0,0,0,0c-0.1-0.1-0.1-0.2-0.1-0.3c0,0,0,0,0,0c0,0,0,0,0-0.1c0-0.1,0-0.1,0-0.2c0-0.3-0.1-0.1-0.1-0.4
			c0,0,0,0,0,0l0.1,0.3c0,0,0,0,0,0c0.1,0,0,0,0.1,0c0,0,0-0.1,0.1-0.1l0.1-0.2c-0.1,0.1,0.1,0.1,0.2,0.2l-0.2-0.9
			c-0.1-0.4,0.1-0.5-0.2-0.7c-0.1-0.1,0-0.1-0.2-0.1c-0.1,0-0.1,0-0.2,0l-0.1,0.5c0-0.2,0-0.1-0.1-0.3c0,0,0,0,0,0c0-0.1,0,0,0-0.1
			l-0.1-0.5c0-0.1,0,0-0.1-0.1c0-0.1,0-0.2,0-0.4l0.1,0.1c0,0,0,0,0,0c0,0,0,0,0,0l0.1,0c0.1-0.1,0.1-0.1,0.1-0.3c0-0.1,0-0.3,0-0.4
			c0-0.1,0-0.1,0-0.2c0-0.1,0,0,0-0.1c0-0.1,0-0.3,0-0.4c-0.1,0.1,0,0,0,0.1c0,0.2,0,0.3,0,0.5c0.2-0.1,0.1-0.2,0.1-0.5
			c0-0.2,0-0.3,0-0.4c-0.1-0.3,0-1-0.1-1.1c-0.1-0.1-0.2-0.3-0.3-0.3c-0.2,0-0.2,0-0.2,0.1l0,0.2c0-0.1,0,0-0.1-0.1c0,0,0,0,0,0
			l0,0.1c0,0,0,0,0,0l0,0.1c0-0.2-0.1-0.3-0.1-0.4l-0.1-0.4c0,0,0,0,0-0.1c0-0.1,0-0.3,0-0.4l0-0.1c0,0,0,0,0,0c0.1-0.2,0-0.4,0-0.6
			c0,0-0.1,0,0,0.1l0.1,0.1c0-0.3,0-0.9,0-1.2c0,0,0,0,0,0l0-0.3c-0.1-0.1,0-0.1-0.2-0.1c0,0.1,0,0.2,0,0.2c0,0,0,0-0.1,0
			c0.2-0.1,0-0.3,0-0.3c-0.1,0-0.1-0.1-0.2,0c0,0,0,0,0,0c-0.1,0.1-0.1,0,0,0.3h0c-0.1-0.1,0,0-0.1-0.1l0-0.1c-0.3,0,0,0-0.2-0.1
			c0-0.2,0-0.3,0-0.4l-0.1-0.5c0-0.2-0.1-0.2,0-0.5c-0.1,0-0.2,0-0.1-0.1c0.2-0.1-0.1,0.2,0.5,0.2c0-0.4-0.1-0.2-0.1-0.5
			c0-0.1,0.1-0.5,0-0.6l0-0.1c0,0,0,0,0,0l-0.2-0.2h-0.2c0,0,0,0,0,0c-0.1-0.1,0,0,0-0.2c0-0.2,0-0.4-0.1-0.5l-0.1,0.2
			c0,0,0,0.1,0,0.1c0-0.1,0-0.2,0-0.2c0-0.2-0.1-0.1-0.1-0.3l0-0.2c-0.2-0.2-0.3,0-0.4-0.2c0.1,0,0.1-0.2,0-0.3
			c-0.1-0.2,0-0.5-0.2-0.7c-0.1-0.1,0-0.1-0.2-0.1l-0.3-0.1c-0.3-0.1-0.1-0.1-0.3-0.4l-0.2-0.2c0,0,0,0,0,0l-0.1,0
			c-0.1-0.1-0.1-0.1-0.1-0.2c-0.2,0-0.1-0.1-0.2,0.1v-0.2l-0.3-0.1c0,0,0,0,0-0.1c0,0,0,0,0,0l-0.2,0.1c0-0.4-0.1-0.6-0.5-0.8
			c-0.2-0.1,0-0.1-0.2-0.1V31H185c0.1,0,0.1,0,0.1-0.1c0-0.2,0,0-0.1-0.2c-0.2-0.2-0.1-0.3-0.5-0.4c-0.1,0-0.1-0.1-0.3,0l-0.2-0.2
			c0,0,0,0,0,0c-0.1-0.1,0.1-0.1-0.2-0.2c-0.1,0-0.1-0.1-0.1,0c0-0.3,0-0.1,0-0.2c0.1-0.2,0-0.3-0.1-0.5l-0.1-0.1c0,0,0,0,0,0
			l-0.3-0.1c0,0,0,0,0,0c0,0,0,0,0,0L183,29c-0.1,0-0.3,0-0.4,0v0.2c-0.1,0,0.1,0-0.1-0.1l-0.2-0.1c0.1-0.1,0-0.1,0.1-0.1l0.1,0
			c0-0.2,0-0.1,0-0.4l0-0.1c0,0,0,0,0,0c0,0-0.1,0,0.1,0c0-0.2,0-0.2,0-0.4c-0.1-0.3-0.3-0.4-0.6-0.4c0-0.3,0,0-0.1-0.2l-0.6-0.5
			c0-0.2,0-0.4,0-0.6c0-0.2,0.1-0.3,0-0.5l0-0.1c0-0.1,0-0.3,0-0.4c0.2,0,0.3,0.1,0.5-0.3l0.1-0.1c0.1-0.4,0.2-0.2,0.2-0.4
			c0,0-0.1-0.1,0,0l0.1,0l0.4-0.4c0,0,0,0,0,0c0,0,0,0,0,0c0.1-0.1,0.6,0,0.8,0c0.1,0,0.1-0.1,0.2-0.2l0.2,0l0-0.3c0,0,0,0,0,0
			l0-0.2c0.2,0,0.2,0.1,0.3,0c0,0,0.1,0,0.1,0c0.1,0,0.3,0,0.4,0l0.1,0c0.2-0.1,0.1-0.1,0.3-0.2l0,0c0,0,0,0,0,0c0,0,0-0.1,0.1-0.1
			c0-0.1,0-0.2,0-0.3l0.2-0.1c0,0,0,0,0,0c0,0,0,0,0,0c0.1,0,0,0,0.1,0c0.1,0,0.2-0.2,0.4-0.2c0.2,0.1-0.2,0,0.1,0l0.1,0
			c0.1,0,0,0,0.1,0c0,0,0,0,0,0c0,0,0,0,0,0c0,0,0,0,0,0c0,0,0-0.1,0.1-0.1c0,0,0-0.1,0-0.2l0.1,0c0.1,0,0,0,0.1,0
			c0.2-0.1,0.3,0,0.4,0c0.2,0,0.2-0.2,0.3-0.1c0,0,0,0,0.1,0c0,0,0,0,0,0l0.5-0.3c-0.1-0.3,0,0,0-0.3l0.1,0c0,0,0,0,0,0l0.3,0
			c0,0,0,0,0,0c0,0,0,0,0,0c0,0,0,0,0,0c0,0,0,0,0,0l0.1-0.1c-0.1-0.2-0.2-0.2,0-0.2c0-0.4-0.1-0.4-0.1-0.6
			c-0.1,0.1,0.1,0.1,0.2,0.1c0-0.3,0,0,0-0.1c0-0.1,0-0.1,0-0.2c0,0,0,0,0,0l0.1-0.1c0,0,0,0,0,0c0,0,0,0,0,0c0,0,0,0,0,0l0,0
			c0.3,0,0.2-0.1,0.2-0.2c0.1-0.2-0.1,0.1,0-0.1c0.1-0.1,0.1-0.1,0.2-0.1c0,0,0.1,0,0.1,0v-0.3l0.3,0c0,0,0.1,0,0.1,0c0,0,0,0,0,0
			l0.1-0.1c0.1-0.1-0.1,0.1,0.1,0c0.1-0.1,0.1-0.2,0.1-0.4c0.1,0-0.1,0.1,0.1,0c0.2,0,0.2-0.1,0.3-0.2c0.2-0.2,0.2-0.3,0.2-0.6
			c0-0.2,0-0.1,0-0.2c0,0,0-0.1,0-0.2c-0.1,0.1,0,0,0,0.1c0,0,0,0,0,0c0.1-0.1,0.2-0.1,0.2-0.3c0-0.1,0-0.1,0-0.1
			c-0.1,0.1,0,0,0,0.1c0.1-0.1,0.1,0,0.1-0.2c0.1-0.1,0,0,0.1-0.1l0.1-0.3c-0.1,0.1-0.1,0,0,0c0,0,0.1,0,0.1,0c0,0,0,0,0,0
			c0,0,0,0,0,0l0.1-0.1c0,0,0,0,0,0c0.1-0.1-0.1,0.1,0.1,0c0.2-0.1,0-0.1,0.2-0.1c-0.1-0.4-0.1-0.3-0.1-0.7l0.1,0c0,0,0,0,0,0l0.2,0
			c0.1-0.1,0,0.1,0-0.1c0-0.1-0.1-0.1,0-0.1c0,0,0.1,0.1,0.1,0.1c0.1,0.1,0,0,0.2,0.1c0,0,0,0,0,0l0,0c0.1-0.1,0.1-0.2,0.2-0.2
			c0.2-0.1,0.2-0.1,0.4-0.1c0-0.2,0-0.1,0-0.2c0.1-0.4,0-0.2,0-0.4l0-0.1c0,0,0,0,0,0c0,0,0,0,0,0c0.1-0.1,0.1-0.2,0.2-0.2
			c0.4,0,0.3-0.1,0.4-0.1l0.2-0.1c0.1-0.1,0.3,0,0.3-0.3c0-0.2,0.1-0.1-0.1-0.2l0.1-0.1c0.1,0,0.1,0,0.2,0.1
			c0.1-0.1,0.1-0.1,0.1-0.2c0-0.2,0,0,0-0.2l0.3-0.1c0.1,0.1,0.1,0.2,0.2,0c0.1-0.1,0-0.3,0-0.4c0,0,0.5,0.1,0.8,0l0.1,0
			c0.1,0,0-0.1,0.2-0.1c0,0,0.1,0,0.1,0C196.1,13,196.1,13,196.2,13.1C196.3,13.1,196.1,13,196.2,13.1L196.2,13.1z M175.3,86.3
			c0,0.1-0.1,0.1-0.1,0.3c0.3,0.2,0.9-0.1,0.9,0.3c-0.1,0.3-0.7,0.4-0.8,0.5c-0.1,0.1-0.1,0.2,0,0.4c0.8,0.2,1.2-0.7,1.9,0.3
			c0.1,0.1,0.1,0.2,0.2,0.3c0.2,0.3,0.2,0.2,0.4,0.5c0,0,0,0,0,0c0,0,0,0,0,0c0,0,0,0,0,0l0-0.3c-0.1-0.1-0.2,0-0.4-0.4
			c-0.1-0.2,0-0.1-0.2-0.3c-0.1-0.1-0.2-0.2-0.1-0.3c-0.2,0-0.2-0.1-0.3-0.4c-0.1-0.2,0,0-0.1-0.1c-0.2-0.2-0.1,0-0.1-0.2l0,0
			c-0.1,0.1-0.2,0.2-0.3,0.2c-0.1,0-0.1-0.2-0.1-0.3c0,0,0-0.2,0.1-0.2c0.1-0.1,0,0,0.1-0.1c0,0,0.2,0,0.3,0c0,0,0,0,0,0
			c0,0,0,0,0,0l-0.1-0.1c-0.1-0.1-0.2,0,0-0.2l0.1-0.2c0,0-0.2,0-0.2,0.1c0.1-0.3,0,0,0.1-0.2c0.1-0.1,0,0,0.1-0.1
			c-0.3,0.1-0.2,0.1-0.7,0.2C175.7,86.1,175.5,86.1,175.3,86.3L175.3,86.3z M179.5,33L179.5,33c0.2-0.2,0.5-0.2,0.7-0.2
			c0.2,0.5-0.1,0.6-0.2,0.9c-0.1,0.2,0,0.2-0.2,0.2c-0.4,0.2-0.9,0.2-1.5,0.2c-0.1-0.6,0-0.6,0.3-0.8C179,33.2,179,33.1,179.5,33z
			 M168.6,0.3h0.6c0,0.6-0.1,1.7,0,2.2c0.1,0.5,0,1.5,0.1,2.2c0.1,0.5,0,1.7,0,2.3c0,0.7,0,1.5,0.1,2.3c0.1,1.4,0,3.2,0,4.7
			c0,1.6,0,3.2,0,4.7c0,0.8,0,1.6,0,2.4c0,0.5-0.2,1.8-0.1,2.2c0.2,0,0.5,0,0.8,0c0.3,0,0.4,0.1,0.7,0.1c0.3,0.1,0.4,0.1,0.7,0.3
			c0.2,0.2,0.4,0.2,0.7,0.3c0.3,0.1,0.1,0.2,0.7,0.3c1,0.3,0.8,0,1,0.7c0.1,0.2,0.2,0.2,0.3,0.5c0.3,0.8-0.1,0.9-0.1,1.3
			c0.7,0.3,0.9-0.4,1.4-0.1c0.4,0.2-0.1,0.3,0.4,1.4c0.1,0.3,0.2,0.4,0.3,0.6c0.1,0.1,0.1,0.1,0.2,0.2c0.2,0.2,0,0.1,0.3,0.2
			c0.1,0.1,0.4,0.2,0.5,0.4c0.2,0.3-0.1,0.5,0,0.7c0,0.5,0.1,1.5,0.4,1.8c0.2,0.2,0.2,0.1,0.3,0.4c0.1,0.3,0.5,0.6,0.8,0.2
			c0.1-0.2,0.1-1.1,0.2-1.2c0.2-0.3,0.4-0.1,0.6,0c0.4,0.1,1.8,0.2,2,0.5c-0.1,0-0.2,0-0.4,0l-0.6-0.1c-0.1,0-0.1,0-0.3,0l-0.6-0.1
			c0,0,0,0,0,0c-0.1,0-0.2,0-0.3-0.1l-0.2,0c-0.2,0.1-0.1,0.2-0.1,0.4c0,0.1,0,0.1,0,0.3c0,0.3-0.1,0.4-0.3,0.6l0,0
			c-0.5,0.3-0.4,0-0.5,0.3c-0.2-0.1-0.1-0.1-0.3,0c0,0.2,0,0,0.1,0.1c0,0,0,0,0,0c0,0,0,0,0,0l0,0c0.1,0,0,0.1,0,0.2l0.1,0.1
			c0,0,0,0,0,0c0.2,0,0.3-0.2,0.4-0.3l0.1,0c0.1,0,0.1,0,0.1-0.1l0.8-0.3c0.2-0.1,0.3-0.1,0.5,0l0.2-0.2c0,0,0,0,0-0.1l0.1,0.2
			c0,0,0,0,0,0c0,0.1,0,0.1,0.1,0.2l-0.2,0c0,0,0,0,0,0c0,0,0,0,0,0l-0.1,0.8c0,0,0,0,0,0c-0.1,0.2-0.3,0.4-0.3,0.6
			c0.2,0,0.2,0,0.3,0c0.1-0.1-0.1-0.1,0.1-0.1c0.1,0,0,0,0.1,0.1l0,0c0,0.1,0.1,0,0.1,0.1c-0.1,0,0,0-0.1,0c0,0,0,0,0,0l0,0.1
			c0,0,0,0,0,0l0.1,0c0,0-0.1,0.1,0.1,0l0.1,0.1l0.2-0.1c-0.2,0.6-1.1,0.4-2,0.4c-0.5,0-0.6-0.1-0.7,0.1c0,0-0.1,0.1-0.1,0.2
			c-0.1,0.1-0.1,0.1-0.1,0.2c-0.1,0.1-0.2,1.1-0.1,1.2c0,0,1.9-0.2,2.4,0c0.2,0.1,1.1,0.4,1.2,0.3c0.1,0.1,0.1,0.1,0.2,0.2
			c0.5,0.2,0.8,0.3,1.1,0.5l0.9,0.5c0.2,0.1,0.2,0.2,0.4,0.3c0.4,0.3,0.6,0.3,0.8,0.6c0.2,0.3,0.2,0.1,0.4,0.3
			c0.1,0.1,0.1,0.1,0.2,0.2c0.1,0.1,0.1,0.1,0.2,0.1c0.5,0.4,0.3,0.3,0.8,0.6c0.5,0.2,0,0.2,0.8,0.6c0.2,0.1,0.7,0.3,0.8,0.5
			c0.2,0.5,0.4,1,0.6,1.5c0.1,0.2,0.1,0.4,0.1,0.6c0.2,0.4,0,0.6,0.3,1.1c0.2,0.4,0,0.7,0.3,1.1c0.2,0.3,0.2,0.1,0.2,0.5
			c0,0.3,0.4,1.3,0.4,1.6c0.2,0.5,0.5,1,0.7,1.4c0.1,0.2,0,0.3,0.4,0.3c0-0.4-0.4-1-0.5-1.5c-0.1-0.3-0.1-0.3-0.1-0.6l-0.3-1.2
			c-0.1-0.6-0.2-0.8-0.3-1.3c-0.1-0.5-0.1-1-0.2-1.4c0-0.2-0.1-0.5-0.1-0.7c0-0.3,0-0.4-0.1-0.7c-0.1-0.5-0.3-0.8-0.2-1.3
			c0-0.3-0.2-1-0.3-1.3l-0.1-0.6c0-0.3,0-0.4-0.1-0.7c-0.1-0.2-0.2-0.3-0.2-0.5c-0.3-1-0.1-0.4-0.4-1.2c-0.1-0.2-0.2-0.3-0.3-0.6
			c-0.2-0.6-0.3-0.6-0.5-1c-0.1-0.3-0.1-0.2-0.3-0.4c-0.1-0.1-0.1-0.3-0.3-0.5c-0.3-0.3-0.5-0.5-0.8-0.8c-0.2-0.2-0.2-0.3-0.4-0.4
			l-0.6-0.6c-0.1-0.1-0.2-0.1-0.3-0.1c-0.2-0.2,0.1,0-0.4-0.4c-0.2-0.1-0.2-0.2-0.4-0.4l-0.9-0.7c-0.2-0.1-0.3-0.3-0.4-0.4l-0.8-0.7
			c-0.1-0.1-0.2-0.3-0.3-0.4l-1-1.2c-0.1-0.1-0.1-0.1-0.1-0.2c-0.1-0.1-0.1-0.1-0.2-0.2c0-0.1-0.1-0.4-0.2-0.6
			c-0.3-0.8,0-1.7,0.4-2.3c0.1-0.2,0.2-0.2,0.4-0.3c0.1-0.2,0.2-0.2,0.4-0.3c0.2-0.1,0.3-0.1,0.4-0.3c0.1-0.1,0.4-0.2,0.5-0.3
			c0.1,0,0.5-0.1,0.6-0.2l0.5-0.2c0.5-0.1,1-0.4,1.4-0.6c0.5-0.2,0.3-0.2,0.6-0.3c0.2-0.1,0.6-0.2,0.6-0.3c0.2-0.1,0.9-0.7,1-0.9
			c0.1-0.1,0.1-0.1,0.2-0.2c0.1-0.1,0.3-0.2,0.3-0.4c0.2-0.1,0.4-0.3,0.5-0.6c0.1-0.2,0.3-0.5,0.4-0.7c0.2-0.2,0.4-0.4,0.5-0.6
			c0.2-0.3,0.3-0.4,0.4-0.7c0.2-0.2,0.3-0.4,0.5-0.6c0.1-0.1,0.1-0.2,0.2-0.3c0.1-0.1,0.2-0.2,0.2-0.3c0.1-0.1,0.2-0.2,0.3-0.3
			c0.2-0.2,0.1-0.2,0.2-0.4c0.5-0.7,0.7-0.7,1.1-1.1c0.1-0.1,0.1-0.2,0.2-0.3l0.2-0.2c0.1-0.1,0,0,0-0.1c0.2-0.1,0.4-0.3,0.5-0.4
			c0.1-0.1,0.4-0.3,0.4-0.4c0.2-0.1,0.4-0.3,0.6-0.4c0.4-0.2,0.4-0.3,0.7-0.4c0.2-0.1,0.4-0.2,0.7-0.3c0.2-0.1,0.6-0.1,0.7-0.2
			c0.6-0.1,0.7-0.2,1.6-0.2c0.2,0,0.2,0,0.3,0c0.2,0,0.5,0,0.7,0c0,0.5-0.1,0.3-0.3,0.7c-0.1,0.3-0.4,0.7-0.5,0.9
			c-0.1,0.2-0.2,0.5-0.3,0.6c-0.1,0.1-0.1,0.1-0.2,0.3c-0.1,0.4-0.2,0.3-0.3,0.6l-0.5,1.4c-0.1,0.2-0.2,0.5-0.3,0.7
			c-0.1,0.1-0.2,0.4-0.2,0.6c-0.1,0.3-0.1,0.3-0.2,0.6c-0.1,0.3,0,0.3-0.2,0.6c-0.1,0.2-0.2,0.4-0.3,0.6c-0.2,0.1-0.5,1.1-0.7,1.4
			l-0.5,0.9c-0.1,0.2-0.2,0.3-0.3,0.5c-0.1,0.2-0.1,0.3-0.2,0.5c-0.1,0.3-0.2,0.3-0.3,0.4c-0.1,0.2-0.1,0.3-0.2,0.5
			c-0.2,0.3-0.3,0.7-0.4,0.9c-0.1,0.2-0.1,0.2-0.2,0.5c-0.1,0.3-0.2,0.2-0.3,0.4c0,0.1,0,0.2-0.1,0.3c0,0.1-0.1,0.2-0.1,0.2
			c-0.1,0.1-0.2,0.3-0.2,0.5c0,0.3-0.1,0.4-0.1,0.7c-0.1,0.7-0.1,0.9-0.1,1.7c0,0.2,0.1,0.3,0.1,0.5c0,0.4,0,0.2,0.1,0.5
			c0.1,0.4-0.2,0.1,0.3,0.9c0.1,0.2,0.6,1.4,0.8,1.7c0.1,0.1,0.1,0.2,0.2,0.4c0.2,0.5,0.5,0.8,0.7,1.1c0.1,0.1,0.1,0.3,0.3,0.3
			c0.3,0.6,0.2,0.3,0.5,0.7c0.2,0.2,0.3,0.5,0.5,0.7c0.2,0.2,0.4,0.5,0.5,0.6c0.1,0.2,0.3,0.5,0.5,0.7c0.3,0.3,0.6,0.7,0.8,0.9
			c0.1,0.1,0.2,0.2,0.3,0.3c0.1,0.1,0.2,0.2,0.3,0.3c0.1,0.2,0.1,0.2,0.3,0.3c0.2,0.2,0.5,0.3,0.6,0.6c0.1,0.2,0.2,0.2,0.3,0.4
			c0.1,0.1,0.2,0.3,0.4,0.3c0.1,0.3,0.4,0.4,0.5,0.6c0.2,0.2,0.3,0.3,0.5,0.6c0.1,0.2,0.1,0.1,0.3,0.3c0.1,0.1,0.2,0.2,0.3,0.3
			c0.1,0.1,0.2,0.1,0.3,0.3c0.4,0.6,0.2,0.1,0.8,0.9c0.2,0.2,0.3,0.4,0.6,0.6c0.2,0.2,0.8,1,1,1.2c0.1,0.2,0.5,0.7,0.6,0.9
			c0.2,0.2,1.1,1.4,1.3,1.6c0.1,0.2,0.2,0.2,0.3,0.4c0.1,0.2,0.2,0.2,0.3,0.4c0.3,0.5,0.2,0.1,0.6,0.9c0.2,0.4,0.4,0.6,0.6,0.8
			c0.1,0.1,0.1,0.1,0.1,0.2c0.1,0.1,0.1,0.1,0.2,0.2c0.1,0.1,0.2,0.3,0.3,0.4c0.1,0.2,0.2,0.3,0.3,0.4c0.1,0.2,0.2,0.2,0.3,0.4
			c0.1,0.2,0.1,0.3,0.2,0.5l0.8,1.1c0.1,0.1,0.1,0.2,0.1,0.2l0.6,0.8c0.2,0.3,0.4,0.6,0.6,0.9c0.2,0.3,0.5,0.6,0.6,0.8
			c0.2,0.3,0.4,0.6,0.6,0.9c0.1,0.1,0.3,0.3,0.3,0.4c0.1,0.2,0.1,0.3,0.2,0.5c0.3,0.3,0.3,0.4,0.4,0.7c0,0,0.1,0.1,0.1,0.1
			c0.1,0.1,0,0,0.1,0.1c0,0.1,0.3,0.7,0.4,0.9c0.1,0.1,0.8,1.6,0.8,1.8c0.1,0.9,0.6,1.5,0.6,3.4c0,0.5,0,0.9-0.1,1.3
			c0,0.4-0.2,0.7-0.2,1.1c-0.1,0.1-0.1,0.5-0.2,0.6c-0.3,0.8,0,0.5-0.3,0.9c-0.1,0.2,0,0.3-0.3,0.6c-0.3,0.3,0,0.4-0.8,0.5
			c-0.3,0-0.4,0-0.7,0.1c-0.6,0.1-1.6,0-2.3,0.2c-0.2,0.1-2.1,0.1-2.4,0.1c-1.1,0-2.2,0-3.3,0c-0.3,0-0.7,0-1,0
			c-0.2,0-0.2-0.1-0.3-0.1l-1.4-0.1c-0.2,0-0.2,0-0.4,0c-0.2,0-0.2,0-0.3-0.1c-0.2-0.1-0.6-0.1-0.8-0.1c-0.3,0-0.5-0.1-0.8-0.2
			c-0.1,0-0.3,0-0.4,0c-0.2,0-0.2-0.1-0.4-0.1c-0.2-0.1-0.6,0-0.8-0.2l-1.2-0.2c-0.1,0-0.2-0.1-0.3-0.2c-0.4-0.1-0.4,0-0.8-0.2
			c-0.2-0.2-0.5-0.1-0.7-0.2c-0.2-0.1-0.5-0.2-0.7-0.3c-0.2-0.1-0.2-0.1-0.4-0.1c-0.1,0-0.2-0.1-0.3-0.2c-0.2-0.1-0.5-0.2-0.7-0.3
			c-0.2-0.1-0.4-0.2-0.6-0.3c-0.2-0.1-0.4-0.2-0.6-0.4c-0.2-0.1-0.5-0.2-0.6-0.3l-1.2-0.7c-0.1-0.1-0.4-0.3-0.6-0.4
			c-0.3-0.2-1.2-0.8-1.4-1c-0.1-0.1-0.1-0.1-0.3-0.2c0-0.1-0.1-0.1-0.2-0.2l-1.4-1.3c-0.1-0.2-0.3-0.3-0.4-0.4
			c-0.4-0.4-0.5-0.5-0.6-0.9c-0.1-0.2-0.1-0.3-0.2-0.6c-0.3-0.9-0.1-0.6,0-1.4c0-0.5,0.1-1,0.1-1.5c0-1.5-0.3-2.6-0.8-3.9
			c-0.1-0.2-0.1-0.4-0.1-0.6c-0.1-0.2-0.2-0.3-0.3-0.5c-0.1-0.3-0.3-0.8-0.4-1.1c-0.3-0.5-0.1-0.1-0.2-0.5l-0.2-0.5
			c-0.1-0.2-0.2-0.2-0.3-0.5c-0.2-0.5-1-2.1-1.3-2.5c-0.1-0.2-0.1-0.3-0.2-0.5c-0.1-0.2-0.2-0.3-0.3-0.5c0.1-0.4,0-0.3-0.1-0.4
			l0-0.1c0.1-0.1,0,0,0.1,0c-0.2-0.1-0.1,0-0.2-0.2l0-0.1c0-0.1,0-0.2-0.2-0.2c0.1-0.2,0.1-0.1,0.2-0.1c0,0,0.1,0,0.1,0.1
			c0.1,0.1,0,0,0.1,0.1c0-0.2,0-0.2-0.1-0.3l0.2-0.1c0,0.1,0.1,0,0.1,0.3h0.1c0-0.2,0-0.1,0-0.2h0.1c0,0.2,0,0.4,0.2,0.5
			c0.1,0,0.1,0,0.2,0.1l0.1,0.2c0,0.1,0,0,0,0.1c0.3,0.1,6.7,0.1,7.1,0c0-0.1,0-0.1,0-0.2c0-0.2,0-0.1-0.1-0.2c-0.1-0.1,0-0.5,0-0.7
			l0-0.4c0,0,0,0,0,0l-0.1,0c-0.2-0.1-0.1-0.2-0.2-0.3c-0.1-0.2,0,0.2,0,0l-0.1-0.2c0-0.2,0.1-0.2,0-0.4c-0.1-0.2,0,0.2,0,0l0-0.2
			c0-0.1,0-0.1,0-0.1c0-0.1,0.2-0.2-0.1-0.3c0.2-0.1,0.1-0.2,0-0.3c0.1,0.1,0.1,0,0.2,0c0-0.3,0-0.1-0.1-0.3l-0.2,0
			c-0.1,0-0.1-0.1-0.1-0.1l-0.1-0.1c-0.1-0.1-0.2-0.1-0.1-0.2c0.1-0.1,0.1-0.3,0-0.3l-0.1-0.1c-0.1-0.1,0-0.2-0.1-0.3
			c-0.3,0-0.1,0.3-0.5,0.1c-0.1,0,0.1,0-0.1,0c0,0,0,0,0,0l-0.4-0.2c-0.1-0.1,0,0.1,0-0.1c0,0,0-0.2-0.2-0.3l-0.1,0
			c-0.1-0.1-0.1-0.1-0.3-0.2l-0.1,0c-0.1,0-0.2-0.2-0.3-0.3c-0.2-0.2-0.2,0-0.5-0.2l-0.1,0c0,0,0,0-0.1,0c-0.2-0.1-0.6-0.1-0.7-0.2
			c-0.1-0.1,0,0.1,0,0l0-0.1c0-0.1-0.1-0.1-0.2-0.2c-0.1,0,0,0-0.1,0c-0.1,0-0.1,0-0.1,0l0-0.2c0-0.1-0.1-0.2-0.1-0.2l-0.2-0.3
			c0,0,0.2,0-0.1,0c-0.3,0,0.2,0.2-0.6,0c-0.2,0,0.1,0-0.1,0l-0.2-0.1c-0.2-0.1-0.2-0.1-0.3-0.3c0,0,0,0,0,0
			c-0.1-0.2-0.3-0.1-0.5-0.2c-0.1,0-0.2-0.1-0.3,0l0-0.2c-0.1-0.1-0.2-0.2-0.3-0.3c-0.1-0.1-0.1-0.2-0.3-0.2c-0.1,0-0.1,0.1-0.2,0.1
			c-0.2,0-0.5-0.1-0.7,0c0,0-0.1,0.1-0.1,0.1c0,0-0.3,0-0.6-0.1l-0.2,0c-0.2,0-0.4-0.1-0.5-0.1c-0.1,0-0.3,0-0.5,0
			c-0.1,0-0.2,0.2-0.2,0l-0.5-0.3c-0.1-0.1-0.1-0.3-0.3-0.3c-0.2-0.1,0.1,0.1-0.1,0c0.3,0,0,0,0.2-0.1c0-0.2,0-0.2,0-0.4l0-0.1
			c-0.1-0.1,0-0.2-0.1-0.3c-0.2,0.1-0.1-0.1-0.1,0.2c0,0,0-0.1,0-0.2h-0.1l0-0.1c-0.1,0-0.2,0-0.2,0.1l0.1-0.2
			c0.1-0.4,0.2,0.1,0.2-0.9v0c0-0.3,0-0.3,0-0.4l0.1-0.2c0.1-0.3-0.1-0.2-0.1-0.2c0,0,0,0,0,0c0,0,0,0,0,0l-0.1,0.1c0,0,0,0.1,0,0.2
			h-0.1c0,0.4-0.1,0.3-0.1,0.7c0,0.2,0,0,0,0.1l-0.1,0.4c-0.1,0.4-0.1,0.3-0.3,0.6c-0.2,0.2,0.1,0.3-0.4,0.3
			c-0.1-0.1-0.1-0.1-0.2-0.1c-0.5-0.1-0.6-0.3-0.7-0.3c-0.1,0-0.1,0-0.2,0l-0.1-0.1c-0.6-0.3,0,0-0.6-0.2l-0.1,0
			c-1.2-0.4-1.9-0.1-2.1-0.3c0-0.1-0.1-0.8-0.1-0.9c-0.3,0,0,0-0.2,0.1c0-0.2,0,0,0-0.3c0-0.3,0-0.1-0.1-0.3c0.1-0.1,0,0,0.1-0.1
			l0.1,0c0,0,0,0,0,0c0-0.2-0.1-0.3-0.1-0.5c0-0.2-0.2-0.3-0.1-0.3c0-0.4,0-0.2-0.1-0.5c-0.1-0.1-0.1-0.4,0-0.5c0.1,0.1,0,0,0.1,0.1
			c0,0,0,0.1,0,0.1c0.1,0.5,0.1,0.5,0.1,0.8l0.2,0.7c0.1,0.2,0.1,0.2,0.1,0.2c-0.1,0.3,0,1.1,0.1,1.3l1.4,0c0.3,0,0.5,0.1,0.8,0.2
			c0.1,0,0.2,0.1,0.3,0.1c0.2,0.1,1.4,0.5,1.6,0.5c0-0.1,0.1-0.2,0.1-0.3c0.1-0.1,0.1-0.1,0.2-0.3c0.1-0.2,0.1-0.5,0.1-0.8
			c0.1-0.6,0.1-1.8,0-2.5c0-0.2,0-0.5,0-0.8c-0.1-1-0.2-0.6-0.7-1c-0.8-0.6-0.2-0.3-1.1-0.8c-0.5-0.3-0.3-0.1-0.6-0.3
			c-0.3-0.1,0.1-0.1-0.6-0.3c-0.5-0.1-0.9-0.3-1.4-0.4c-0.1,0-0.2,0-0.4-0.1c-0.3-0.1-0.8-0.3-1.1-0.2c-0.1,0.3,0,0.7,0.1,1
			c-0.2-0.1-0.3-0.3-0.3-0.6l-0.1-0.4c0,0,0,0,0-0.1c0.2-0.1,0.1-0.1,0.3-0.2c0.2-0.1,0.3,0,0.5,0c-0.1-0.1,0-0.1-0.1-0.1
			c0,0,0,0,0,0c0,0,0,0,0,0l0.1,0c0.1,0,0.1,0,0.2,0.1c0,0,0,0,0,0l0.1,0c0.2,0,0.1,0,0.1,0l0.1-0.1c0,0,0,0,0,0
			c0.1-0.1,0-0.1,0.1-0.1c0.1,0.1,0.1,0.1,0.3,0.2l0.3,0.1c0.4-0.1,0-0.1,0.2-0.1c0.2,0-0.1,0.2,0.2,0c0,0,0,0,0,0
			c0.1,0,0,0,0.1-0.1c0.1-0.1,0.1-0.1,0.3,0c0,0,0,0,0,0c0.2,0,0.1,0,0.3-0.1c0.2,0,0.2,0,0.3,0.1h0.3c0,0.3,0.2,0.3,0.2,0.5h1.1
			c0,0.2,0,0.1,0.2,0.2c0,0,0,0,0,0c0,0,0,0,0,0c0,0,0,0,0,0l0,0.4h0.3c0,0.3,0,0.1,0.1,0.2c0.1,0.2,0.1,0,0.1,0.1
			c0,0.2-0.1,0.2-0.1,0.4h0.1c0,0.1,0.1,0.1,0.3,0.1c0-0.1,0-0.1,0-0.2c0.2,0,0.1,0,0.2-0.1l0.4,0.2l0-0.7h-0.1c0,0.2,0,0.1-0.1,0.2
			c-0.1-0.1,0,0-0.1-0.2c-0.1-0.2-0.2,0-0.3-0.3c0-0.3-0.2-0.2-0.3-0.3c-0.3-0.2-0.4,0-0.6-0.4c0,0,0-0.2,0-0.3
			c0-0.2,0.1-0.1-0.1-0.3c0.1,0,0.1,0,0.1-0.1c0,0,0,0,0,0l0-0.1c0-0.2,0-0.2-0.1-0.3c0.1,0,0.1-0.2,0.2-0.3c0,0,0,0,0-0.1
			c0-0.1,0-0.3,0-0.3l-0.1,0.2c0,0,0,0.1,0,0.2c-0.1,0-0.1,0-0.1-0.2c0,0,0,0,0,0l0,0.1c0,0,0,0,0,0.1c-0.1,0.1,0.1,0-0.1,0.1v0.4
			l-0.4,0.2c-0.1,0.1-0.3,0-0.4-0.1c-0.5-0.1-0.8,0.2-1-0.4c0,0,0,0,0,0c0-0.1-0.1-0.1,0-0.3l0.1-0.2c0,0,0,0,0-0.1c0,0,0,0,0-0.1
			c0,0,0,0,0,0c-0.1-0.1-0.1-0.1-0.1-0.2c0-0.7,0.1-0.5,0.1-0.6c0,0,0,0,0,0c-0.2-0.1-0.1-0.2-0.1-0.3c0-0.1-0.1-0.1-0.1-0.3l0,0
			c0,0,0,0,0,0c0,0,0,0,0,0c-0.2-0.1-0.1,0.1-0.3,0l-0.3-0.1c-0.2-0.1,0-0.1-0.2-0.1c-0.1,0-0.1,0-0.2-0.1l0-0.1
			c-0.1-0.2-0.1-0.1-0.1-0.4c0,0,0-0.1,0-0.1l-0.1-0.1c-0.2,0-0.3,0-0.4,0.1c0-0.1,0-0.1-0.1-0.2c0,0,0,0,0,0c0,0,0,0,0,0
			c-0.2,0.3-0.1,0.3,0,0.4c-0.1,0-0.5-0.1-0.5-0.2c-0.1-0.1,0,0,0-0.1l-0.2-0.1c0.1-0.1,0-0.2,0-0.3c0,0,0,0,0,0l-0.1-0.1
			c-0.2,0-0.5,0-0.7,0c-0.4,0-0.1-0.2-0.4-0.3c0,0-0.1,0-0.1,0l-0.2-0.2c0,0.2,0,0.3,0,0.5c0,0.2-0.1,0.2,0,0.4c0,0,0,0,0,0
			c0,0.1,0,0,0,0.1l0,0.2c0,0,0,0,0,0l0,0.2c0,0.2,0,0.2,0.1,0.3c0.2,0.1,0,0,0,0l0,0.3c0,0.1,0,0,0.1,0c-0.1,0.2,0,0.2-0.1,0.3
			c-0.1,0.3-0.4,0.4-0.4,0.6l0,0.1c-0.1,0.2-0.1,0.2-0.1,0.4c0.2,0.1,0.1,0.4,0.1,0.5l0,1.5c0,0.7,0.1,0.6,0.1,0.9
			c0,0.2,0,0.4,0,0.6c0.1,0,0,0,0.1,0c0.1,0,0,0,0,0c0,0.3,0.1,0.2,0.1,0.5c-0.1,0-0.1,0-0.2,0l0,0.1c0,0,0,0,0,0c0,0,0,0,0,0
			c0,0.1,0-0.1,0,0.1c0,0-0.1,0.1,0,0.2l-0.2-0.3l0,0.1c0,0.3,0,0.1-0.1,0.1l-0.1,0.3l0.1,0.1l-0.1,0.3l-0.3,0.3
			c-0.2-0.1,0.2,0.1-0.1,0c0,0,0,0,0,0l-0.1-0.1c-0.2-0.1-0.3,0.1-0.4-0.2c0-0.1,0,0,0-0.2c0.2-0.1,0.1,0,0.2-0.1c0-0.1,0-0.5,0-0.7
			c0-0.4-0.2-0.2,0-0.4l0.1-0.2c0,0,0-0.1,0-0.1c0-0.1,0-0.2,0.1-0.3c0.1-0.4,0-0.4,0-0.7h-0.4c-0.1,0.1,0,0.3-0.1,0.4
			c0,0-0.1,0-0.2,0c-0.2,0,0,0-0.2,0.1c0-0.1,0-0.1,0-0.1c0.4-0.2,0.2-0.3,0.4-0.6c0.2,0,0.4,0,0.5,0c0.3,0.6-0.3,2.1,0.1,2.8
			c0.2,0,0.2,0,0.3,0l0.1-0.1c0-0.3,0-0.6,0.1-0.9c0.2-1,0-1.3,0-1.7c0-0.3,0-0.6,0-0.9c0-0.3,0-1.6,0-1.8c0.2-0.6,0.7-1,0.5-1.3
			c-0.3-0.3-0.1-0.1-0.3-0.5c-0.1-0.2-0.1-0.4-0.2-0.5c-0.1-1.1,0-2.3,0-3.4c0-0.5,0-1.2,0-1.7c0.2-1.2,0.1-1.3,0-2.4
			c0-0.3,0-0.6,0-0.9c0-0.5-0.3-0.8-0.4-1.2c-0.1-0.3,0-0.5,0.1-0.7c0.1-0.3,0.3-1.9,0.3-2.2l0-2.2c0-0.3,0.1-0.4,0.1-0.7
			c0-0.5,0-1,0-1.5c0-0.1,0-0.2,0-0.3c0-0.2,0-0.1-0.1-0.3C168.6,6.8,168.6,0.9,168.6,0.3L168.6,0.3z"/>
	</g>
</g>
</svg>
