<?xml version="1.0" encoding="utf-8"?>
<!-- Generator: Adobe Illustrator 24.0.2, SVG Export Plug-In . SVG Version: 6.00 Build 0)  -->
<svg version="1.1" id="Слой_1" xmlns="http://www.w3.org/2000/svg" xmlns:xlink="http://www.w3.org/1999/xlink" x="0px" y="0px"
	 viewBox="0 0 238.1 150.2" style="enable-background:new 0 0 238.1 150.2;" xml:space="preserve">
<style type="text/css">
	.st0{fill-rule:evenodd;clip-rule:evenodd;fill:#2B2A29;}
</style>
<g id="Layer_x0020_1">
	<g id="_2606020295376">
		<g>
			<path class="st0" d="M150.3,61.1c0.4,0.6,0.4,0.6,1,1.1c1.3,1.1-0.4,0.4,0.4,0.7c0.4,0.7,1.6,1.2,2.6,1.4c-0.4-0.6-0.5-0.6-1.1-1
				l-1.9-1.6C150.9,61.6,150.8,61.5,150.3,61.1z"/>
			<path class="st0" d="M138.8,41.5c0.3,0.4,0.4,0.8,0.7,1.1h0.1c0.3,0.7-0.2-0.3,0.6,0.1c-0.4-0.4-0.4-0.1-0.6-0.7
				c0.6,0.2,0.3,0.2,0.7-0.3C139.8,41.5,139.4,41.3,138.8,41.5z"/>
			<path class="st0" d="M158.4,20.7c0.5,0,0.4,0.1,0.9-0.3c-0.3-0.6,0.2-0.4-0.8-0.5L158.4,20.7z"/>
		</g>
		<g>
			<path class="st0" d="M139.3,43.7c-0.1-0.1-0.1-0.3-0.3-0.4l1.1-0.1c-0.3-0.4,0.3-0.2-0.7-0.4c-0.9-0.2-1.2-0.3-2-1.1l-0.6-0.3
				c0.8,1.6,0.9,0.8,1.7,1.9c-0.8-0.3-1.2-0.8-1.9-1.1C137.1,42.9,138,43.8,139.3,43.7z"/>
			<path class="st0" d="M180.4,58.8c-0.6-0.4-0.2-0.4-0.8-0.8c0,0.1-0.5,2.3,1.8,1.8C181,59,181,59.3,180.4,58.8z"/>
			<path class="st0" d="M166.9,29.5c0.6-0.9,0.4,0.4,0.9-0.5c-0.5-0.3-0.2-0.1-0.6-0.2c-0.4-0.1-0.4-0.2-0.8-0.3
				c0.3,0.7,0.3,0.1,0.2,0.6C166.5,29.2,165.7,29.1,166.9,29.5z"/>
		</g>
		<g>
			<path class="st0" d="M170.3,25.8c1.1,0.4-0.4,0.4,1.1,0.4c-0.5,0-0.4,0.1-0.5,0.4c-0.1,0.4,0.1,0.7,0.3,1.1l0.7-0.4
				c0.2,0.4,0.1,0.5,0.7,0.7c-0.2-0.5-0.2-0.9-0.4-1.4c-0.4-0.8-0.5-0.6-0.3-1.1c-1.2,0-0.4,0.1-0.8-0.2c0.1-0.3-0.1-0.5-0.3-0.8
				l-0.4,0.9C170.4,25.6,170.3,25.8,170.3,25.8z"/>
			<path class="st0" d="M142.4,34.7c0.2-1.1-0.4,0-1.5-0.6l0.7,1.1l0.3-0.6L142.4,34.7z"/>
			<path class="st0" d="M148.1,25.1c-0.2,0.4-0.3-0.4-0.2,0.6c0.7-0.2,0.4-0.1,0.8-0.4L148.1,25.1z"/>
		</g>
		<g>
			<path class="st0" d="M155.7,134.5c0.3,0.6,0.3,2.1,0,2.6h0.9c-0.3-0.6-0.3-0.6-0.3-1.4c1.2,0.9,1.1,2.6,2.5,1.9l-0.3-0.1
				l-0.1-0.1c-1-0.7-0.4-2.6-0.2-3.1l-1-0.1c0.3,0.5,0.4,1.1,0.4,1.9l-0.6-0.5c0,0-0.3-0.4-0.4-0.4c-0.3-0.4-0.3-0.5-0.1-1
				L155.7,134.5z"/>
			<path class="st0" d="M155.5,129.1c0.3,0.3,0.1-0.4,0.2,0.4c0,0.2,0,0.5,0,0.8c0,0.6,0,0.7-0.2,1.1h0.8c-0.3-0.4-0.3,0-0.2-0.4
				c0-1.3-0.1-0.2,0.4-0.7c0.4,1.4,1,1.9,1.9,1.9l-0.8-0.5c-0.1-0.9-0.1-1.9,0.3-2.6H157c0.4,0.7,0.4,0.7,0.3,1.8
				c-0.5-0.4-1.1-1.1-0.9-1.8L155.5,129.1z"/>
			<path class="st0" d="M140.2,90.2c0.5-0.7,0.3-1.4,0.2-2.3c-0.8,0.3-1.3,2.6-0.5,3.4c-0.4,0.3-0.4,0.3-0.9,0.6
				c-0.3,0.3-0.1,0.1-0.4,0.4c-0.3,0.2-0.3,0.3-0.4,0.4l2.3-1.1c0.2-0.7,0.1-0.6-0.2-1.1L140.2,90.2z"/>
			<path class="st0" d="M165.8,30.4l-0.7,0.3c0.9,0.5,1.8-0.7,2.4,0.4c0.3,0.4,0.2,0.4,0.5,0.6c-0.4-0.6-0.3-0.4-0.3-1.2
				c-0.9-0.4-0.3-0.8-2.6-0.9C165.7,30,165.7,29.7,165.8,30.4z"/>
			<path class="st0" d="M191.7,65.9c0.4,1.1,0.8,2.6,1.3,3.9l1.5,0.2c-0.6-0.4-1.3-1.1-1.6-1.8C192.6,67,192.3,66.5,191.7,65.9z"/>
			<path class="st0" d="M156,132.3c0.7-0.4,0.4,0.3,1.1,0c-0.2-0.4,0.1-0.5-0.7-0.4c-0.4,0.1-0.5,0.3-0.7,0.4
				c0.1,1.3,0.8,0.4,1.1,1.4c-0.5,0.4-0.1,0.2-0.7,0.2l-0.1-0.4c-0.1-0.4,0.3,0.2-0.2-0.3l-0.3,0.5c0.6,0.8,1.1,0.5,1.8,0
				C157.1,132.5,156.7,133.1,156,132.3z"/>
			<path class="st0" d="M178.5,53.4c0.3,0.3,0.3,0.8,0.3,0.9c1.1,0.3,1,0.9,2,1.2C180,53.9,179.6,53.6,178.5,53.4z"/>
			<path class="st0" d="M169.3,21.9l0.2-0.9c-0.9-0.3-0.6-0.5-1.9-0.8C169,21.7,168.7,20.6,169.3,21.9z"/>
			<path class="st0" d="M133.9,67c1.9-0.3,1.4-0.3,1.6-0.8c-0.4,0-0.7-0.1-1,0.1c-0.1,0-0.1,0.1-0.1,0.1L133.9,67z"/>
			<path class="st0" d="M127,127c-0.4-0.3-0.9-0.5-1.3-0.6l0.4,0.9C127.3,127.4,126.9,127.1,127,127z"/>
			<path class="st0" d="M161.8,85.1c0.5,0.6,0.8,0.4,1.1-0.3L162,85l-0.1,0.1C161.9,85,161.9,85.1,161.8,85.1z"/>
		</g>
		<g>
			<path class="st0" d="M140.4,32.3l0.8-0.4c0.5-0.1,0.5,0,1,0.1c0.4-0.4,0.1-0.4,0.6-0.6c0.7-0.4,0.4,0.2,0.9-0.6
				c-0.6,0.3-0.6,0.3-1.4,0.3c0.6-1.1,0.7,0,1-1.2c-0.7,0.4-1.6,0.6-2.4,0.9c-0.6,0.3-1.8,0.8-2.1,1.3c0.6-0.1,1-0.4,1.8-0.5
				L140.4,32.3z"/>
			<path class="st0" d="M176.1,40.1l-0.1,1.1c0.7-0.4,0.2-0.6,0.8-1c0.4-0.3,0.4-0.4,0.7-1.1c-0.4,0.1-0.2,0-0.4,0.1
				c0,0-0.3,0.3-0.4,0.4C176.4,39.9,176.4,39.9,176.1,40.1z"/>
		</g>
		<g>
			<path class="st0" d="M167.1,87.3c0.8,0.3,0.1,0.8,1.5,1.1l-1.1-2.5l-0.9,2c-0.4-0.3-0.8-0.4-1.1-0.5l-0.2-0.1
				c-0.7-0.3-0.6-0.2-1.1,0.2c0.2,0.1,0.4,0.2,0.4,0.3l0.2,0.4c0.3,0.4,0.6,0.5,0.9,0.8c0.3-0.5,0,0.1,0-0.3v-0.2c0-0.1,0-0.1,0-0.1
				c1,0.5,0.7,0.6,1.3,1.5V87.3z"/>
			<path class="st0" d="M161,29.5c0.8,0.1,1-0.8,1.6-1.4c0.2,0.5,0.2,0.9,0.7,1.1c1.1,0.4,1.2-0.2,1.2-0.2c-0.7-0.3-0.7,0-1.1-0.5
				c1.2-0.4,1.1-0.1,1.9-0.1c0.4,0-0.2,0.1,0.3,0c0,0,0.1,0,0.1-0.1c0,0,0.1,0,0.1-0.1c-0.5-0.3-2.5-0.6-3-0.7
				c-0.5,0.6-1.5,1-1.7,1.8C161,29.5,161,29.5,161,29.5z"/>
			<path class="st0" d="M154,134.5c0.4,0.5,0.4,2,0.1,2.6h1.1c-0.4-0.9-0.5-1.8-0.1-2.6H154z"/>
			<path class="st0" d="M161.5,29.9c0.5,0.4,1,0.1,1.5-0.4c-0.4-0.2,0.4-0.2-0.4-0.2S161.7,29.7,161.5,29.9z"/>
		</g>
		<g>
			<path class="st0" d="M194.3,62.3c-0.5-0.2-0.5-0.3-0.5-0.3v-0.2c-0.2-0.4-1.1-0.6-1.5-0.8c-0.1,0.2,0,0.2-0.4,0.3
				c0.1,0.1,0.1,0.1,0.2,0.1l0.3,0.3c0.4,0.5,0.1,0.4,0.1,0.4v0.1l-0.1,0.1c1.2,1.4,1.5,2.6,4.1,4.4c-0.6-1.1-0.8-1.2-1.8-1.9
				c0.6-0.1,0.2,0.3,0.7-0.1c-0.2-0.4-0.5-1.1-0.8-1.4c-0.5-0.6-0.6-0.2-1.3-1l1.4,0.4c-0.1-0.1-0.1-0.1-0.1-0.2L194.3,62.3z"/>
			<path class="st0" d="M175.4,43.6c-0.4,0.8-1.5,1.6-0.3,2c0.3-0.4,0-0.4-0.2-0.9c0.8-0.4,0.7-0.5,1-1.1c0.7-1.4-0.1-0.6,0.5-1.1
				c0.6,1.2,0.5,1.5,0.4,2.9c0.5-0.5,0.5-0.9,0.4-1.8c-0.2-1.2-0.1-0.9,0-1.9c-0.4,0-0.5,0.1-0.5,0.1c-0.1,0-0.4-0.1-0.6-0.1
				c-0.8,0-0.8,0.3-0.8,0.3c-0.2,0.2,0.1,0.1-0.4,0.3c0.4-1.1,0-0.9-0.2-1C174.4,42.2,174.9,43.1,175.4,43.6z"/>
		</g>
		<g>
			<path class="st0" d="M187.5,63.4l1.2,1.9c0.2,0.4,1.6,1.1,0.4,1.3c1.1,1.6,1.1,1,1.1,1.9c1.1-0.3-0.1,0.4,0.8-0.1
				c-0.1-0.5-0.2-0.3-0.4-0.7c0.6-0.4,0.4,0.1-0.1-1.7c0.8,0.4,0.4,0.4,1.1,0.9c0-0.3-0.2-0.9-0.3-1.1c-0.3-0.5-0.1-0.2-0.4-0.4
				l-0.3-0.3c-0.5-0.7,0-0.4-0.8-0.9c-0.8-0.6-0.4-0.4-0.6-0.4c-0.1,0.4,0.2,0.3,0.4,0.5c0.4,0.4,0.4,0.1,0.6,0.7
				C189.4,64.9,188.3,63.7,187.5,63.4z"/>
			<path class="st0" d="M178.5,123.1c0.8-0.1,0.2,0,0.8-0.5c0.6-0.5,0.4-0.1,0.5-0.8C179.1,122,178.5,122.5,178.5,123.1z"/>
		</g>
		<g>
			<path class="st0" d="M160.6,129.1c0.4,0.6,0.3,1.9-0.1,2.5h3.2c-0.3-0.6-0.4-1.5-0.1-2.2c0.4,0.1,0.7-0.1,0.5,0.5l-0.4,0.5
				l-0.1,0.1c0.5,0.4,1.7,2.1,2.9,1.2c-0.4-0.3-0.5,0.1-1.1-0.4c-0.4-0.4-0.3-0.5-0.9-1c0.2-0.4,0.3-0.6,0.3-1.1
				c-0.8-0.3-1.2-0.3-2.1-0.3c0.2,1,0.6,2.5-0.5,2.3c-1.1-0.2-0.5,0-0.7-0.4c0.4-1,0.8,0.5,0.8-1c-0.9,0.4-0.8,0.4-0.8-0.6
				c0.9,0.1,0.5,0.2,1.1,0.4l-0.2-0.7L160.6,129.1z"/>
			<path class="st0" d="M191.3,49.8c-0.4-0.4,0-0.1-0.5-0.4c0.1,1,0.4,1.6,0.1,2.4c-1.1,2.5-2.8,1.9-3.3,1.9l-1.1,0.1h-0.1
				c-0.5,0.1-0.3,0-0.6,0.4c1.9-0.5,3.7,0.4,4.8,0.7c-0.1-0.9-0.1-0.3-0.6-0.9c0.3-0.8,1.1-1.5,1.6-1.9c0.1-0.1,0.3-0.3,0.4-0.4
				C192.5,50.9,192.6,50.7,191.3,49.8z"/>
			<path class="st0" d="M208.5,69.3c-0.4,0.7,0.2-0.2-0.2,0.7c-0.2,0.6-0.4-0.4-0.1,0.6c0.1,0.2,0.2,0.4,0.3,0.4
				c-0.2,0.1-0.4-0.1-0.4,0c0.4,1.2,0.9,1.3,1.5,1.2c-0.1-1.5-0.7-0.7-0.4-1.6c0.4,0.1,0.1,0,0.4,0.2l0.4,0.4l0.1-1.6L208.5,69.3z"
				/>
			<path class="st0" d="M108.4,89.9c0.5-0.3,0.6-0.4,1.1-0.7c1.2-1,2-1.7,2.1-3.4C109.8,87.1,110.6,87.5,108.4,89.9z"/>
			<path class="st0" d="M204,27.7c-0.6,0.2-1.3,0.4-1.8,0.8c0.4,0.1,1-0.4,1.7-0.4c0.9-0.2,1.6-0.2,2.6-0.2c-0.1,0-0.1-0.2-0.1-0.1
				l-0.5-0.4c-0.7-0.3-1.8-0.4-2.5-0.4L204,27.7z"/>
			<path class="st0" d="M172.9,43c0.8-0.3,0.9-0.4,0.9-1.5c0-0.9-0.1-1.2-0.7-1.8c-0.1,1.1,0.3,0.7,0.3,1.8
				C173.3,42,173,42.4,172.9,43z"/>
			<path class="st0" d="M176.2,52.1c-0.4-1-0.1-1.1-1.1-1.1c0.1,0.6,1.1,2.4,1.7,2.9C176.6,53.2,176.4,52.8,176.2,52.1z"/>
			<path class="st0" d="M129,63.6c0.2,0.1,0.1,0.1,0.4,0.3l1.8,0.4l-0.5-0.9L129,63.6z"/>
			<path class="st0" d="M171.7,34.3c-0.1-1.1-0.7-1.4-1.6-1.7C170.4,33.2,171.1,34,171.7,34.3z"/>
		</g>
		<g>
			<path class="st0" d="M182.6,64.2c0.4,0.8,0.5,0.8,1.3,1.5c0.6,0.5,0.9,0.8,1.4,1.4c1.2,1.3,2.4,3.4,3.4,4.6
				c0.6,0.6,0.5,0.9,1,1.8c1.1,2.4,1.9,2.5,2.1,2.9c0-0.6-0.9-1.5-1.2-2.1l0.4-1c0.3,0.8,0.3,1,0.9,1.2c-0.2-0.9-0.4-0.8-0.7-1.3
				c-0.3-0.4-0.5-0.8-0.7-1.1c-2.2-3.9-4.2-4.4-5.4-5.6l0.7-0.4c-0.4-0.5-0.6-0.9-1.4-1.2C183.3,64.3,183.6,64.8,182.6,64.2z"/>
			<path class="st0" d="M203.4,46c-0.3-0.5-0.5-0.7-1-1.2c-0.8-1-2.4-3.2-2.8-4.2c0.6,0.6,0.5,0.6,1,1.1c0.4,0.4,0.8,0.9,1.1,1.1
				c-0.4-1-1.1-1.6-1.5-2.6l0.7,0.7c-0.3-1.3-1.7-2.7-1.5-4.3l0.9-0.4c0,0,0.1,0,0.1-0.1C194.3,34.5,200.3,43.8,203.4,46z"/>
			<path class="st0" d="M137.5,41.3C137.5,41.4,137.6,41.4,137.5,41.3c0.2,0.4,0.7,0.7,1.1,0.7c-0.4-0.3-1-1.4-1.2-1.9
				c0.3,0.4,0.5,0.6,1.1,0.8c-0.6-1.2-0.8-0.4-0.6-1.6c0.1-1-0.7-0.6-0.5-2c0.6,0.1,1.8,0.9,2.6,1.1c0.3-0.7-0.4,0.3-0.1-0.6
				c0.4,0.6,0.6,0.8,0.8,1.7c1.2-0.6-0.9,0.6,0.4-0.3c1-0.7,0.1,0.3,0.8-0.2c-1.8-2.2,0-1.1-2.8-2.1c-2.5-1-2.4,0.8-1.8,2.7
				c-0.5,0.3,0.7-0.1-0.2-0.1h-0.2h-0.1C136.8,40.4,137,40.7,137.5,41.3z"/>
			<path class="st0" d="M104,60.2c0.2-1.3-0.4,0.3,0.1-0.9c0.4-0.8,3.1-3.4,3.5-4.4c-0.7,0.4-1.9,1.8-3,2.4s-1.3,2-2.3,2.7l0.1-2.3
				c-0.2,1.1-0.6,3.2-0.4,4.3c0.4,0.1,0.2,0.3,0.5-0.4C103.4,60.2,102.9,60.6,104,60.2z"/>
			<path class="st0" d="M143.2,29.6c0.8-0.1,0.3,0.1,0.4-0.4l0.8,0.5l0.4-0.6l0.6,0.3l-0.4-0.7l0.7-0.1L146,28
				c-0.8-0.4-1.1,0.2-1.6,0.5c-1-0.3-1.4-0.2-2.4,0.1h0.8c0.1,0.5,0,0.2,0.2,0.5L143.2,29.6z"/>
			<path class="st0" d="M159.7,131.5c-0.4-0.9-0.4-1.1-0.3-2.3c0.4,0.4,0.4,0.4,0.8,0.6V129h-2.2l-0.1,0.8c0.3-0.4,0.2-0.4,0.8-0.4
				c0,1,0.2,1.4-0.3,2.1L159.7,131.5z"/>
			<path class="st0" d="M131.3,70.1c1.8-1.1,1.5-1.2,2.4-1.9c0.7-0.4,0.9-0.4,1.2-1.1c-0.7,0.3-1,0.6-1.4,1.1l0.4-0.6
				c-1.5,0.8-1.1,0.8-2,1.7C131.4,69.6,131.5,69.3,131.3,70.1z"/>
			<path class="st0" d="M180.6,60.3c0.3,0.7,1.1,1.1,2.2,1.4c0-0.1,0-0.1,0-0.1v-0.1c0-0.5,0,0.5,0-0.2c-0.1-0.9-0.3,0.4,0-0.2
				c0.4,0.3,1.1,0.4,1.7,0.6c-0.6-1-1.9-0.9-2.7-1.2C181.1,60.3,181.2,60.3,180.6,60.3z"/>
			<path class="st0" d="M142.4,34.7c-0.1,0.2,0,0.2-0.4,0.4c0.4-0.1,0.3,0,0.6-0.3c1,1.9,2.7,1.3,3.3,0.7c-0.7-0.4-1.9,0.6-2.8-0.7
				L142.4,34.7z"/>
			<path class="st0" d="M163.5,108.1c-0.4-0.2,0.3,0.5-0.2-0.2c-0.2-0.3-0.4-0.7-0.4-0.7c-0.2,0.9-0.2,2,0.3,2.8
				c0.5,1,0,0.5,0.5,1.3L163.5,108.1z"/>
			<path class="st0" d="M133,47.3c0.9,0.4,1.9,0.9,2.9,1.1c-0.8-0.8-1.4-0.6-2.1-1.5c0.6-0.5,0.5-0.1,1-0.7l-0.5-0.2
				C133.8,46.6,133.8,46.1,133,47.3z"/>
			<path class="st0" d="M202.6,52.7c-0.3-0.9,0-0.9-0.7-1.1c-0.6,0.8,0.9,2.1,1.2,2.4C203,53.6,202.7,53.2,202.6,52.7z"/>
			<path class="st0" d="M194.8,34.6c0.4-0.4,0.4-0.4,0.8-0.9c0.5-0.7,0.6-0.4,0.6-1.1C195.1,33,195,33.2,194.8,34.6z"/>
		</g>
		<g>
			<path class="st0" d="M153.6,17.6c0.3,0.7-0.1,0.3,0.7,0.7c-0.4,0.3-0.3-0.3-0.8,0.4l1.1,1.4l-0.1,0.9l-1.1-0.6l0.1-0.8
				c-0.9-0.6,0.1-1.7-0.1-2.5c-0.5,0.4-0.4,1.1-0.7,1.7c-0.9-0.4-1.1-1-2.1-1.1c0.1,0.1,0.1,0,0.1,0.1c0.1,0.3,0.5,0.4,0.8,0.6
				c-1.4-0.4-1.8-0.8-2.3,0.5c0.4,0,0.6-0.2,0.9-0.6l0.4,0.3c0.1,0,0.1,0.1,0.1,0.1l2,1.2c-0.9,0.4-1.2,0.9-2.1-0.1
				c-0.4-0.4-0.2-0.3-0.6-0.6c0.2,0.7,0.3,0.5,0.6,1.1c-0.6,0.4-1.1,0.3-1.6,0.5c-0.8,0.4-0.1,0.8-1.6,0.5c0.7-0.5-0.3-1.2,0.8-1.5
				c-0.3-0.3-0.3-0.4-0.7,0c-0.8,0.5,0.2,1.8-0.9,1.5c-0.4-0.1-0.5-0.4-0.8-0.6c0.1,0.5,0.3,0.6,0.5,1.1c-0.7,1.1-1.9,1.9-2.3,3.2
				c0.1,0,0.1-0.1,0.2-0.1l0.7-0.4c0.1,1.3,0.3,2.1,1.2,2.5c-0.5-1.1-1.4-2.3-0.5-3.7c0.2-0.4,0.7-1,1.1-1.2
				c0.5-0.4,1.5-0.4,1.9,0.1c-0.5,0.9-0.6,0.3-1.4,0.5l-0.8,0.6c0.4,0.2,0.8,0,1.1,0.3c-0.4,0.8-0.7,0.8-0.9,1.6
				c1.1-0.1,1.1-0.3,1.6-0.8c0.9-1,0.5-0.4,1.7-0.4c-0.4-0.3-1.1-0.4-0.2-1.1c0.5-0.4,1.1-0.1,1.2-0.2c0.5-0.1,0,0.2,0.4-0.1
				c-0.8-0.4-1.6,0.1-2-0.6c1.1,0.4,0.7-0.4,0.4-1l0.9-0.1c0.6,0.9-0.1,1.1,1.1,1.1c-0.4-0.4-0.4-0.2-0.6-1.1l1.6,1.1
				c0.3,0.4,0.3,1.3,1.3,0.4c0,0,0.1-0.2,0.2-0.2l0.2-0.1c0.3-0.3,0.1,0,0.2-0.1c0,0,0.1,0,0.1-0.1l1.1-0.4c0.4,0.1,0.4,0.1,0.8,0.4
				c-0.6,0.3-0.3,0-0.5,0.4c0,0.1-0.1,0.2-0.1,0.3c-0.7,1.3,0.4,1.3-1.9,1.9l-1.4,0.6c0.6,0.4,0.9,0.6,1.8,0.6
				c-1.2,0.8-2.9,0.4-2,2.1c1.8-0.4,1.3-0.8,1.4-1c1.2,0.3,1-0.3,2.5-0.4c-0.4-0.4-0.4-0.2-0.7-0.6l1.4,0.5
				c-0.3-0.6-0.1-0.6-0.8-0.9c0.8-0.1,1.1,0.9,1.9,0.3c-0.5-0.4-0.8-0.8-1.2-1l-1.1-0.3c1.8-0.6,2,0.9,3.4,0.7
				c0-0.5-0.4-0.8-0.9-1.1c-0.5-0.4-0.6-0.1-0.9-1c1.1-0.2,2.8,0.3,3.4-0.2c-0.4-0.2,0.1-0.1-0.4-0.1c-0.1,0-0.4,0-0.5,0
				c-0.8,0-2.3-0.6-2.7-1.2c1-0.4,2.3-0.3,2.6-0.4c-0.6-0.5-2.1-0.4-2.9-0.5c-0.3-0.3-0.3-0.4-0.4-0.6c0,0,0-0.1,0,0l0.1-0.1
				c0.3-0.3,0.1,0.1,0.3-0.4c-0.5-0.2-1.1-0.6-1.5-1.1c0.4-0.4,0.1-0.2,0.5-0.4c0.4,0.8-0.5,0,0.4,0.6c0.4,0.3,0.8,0.4,1.1,0.5
				l0.1-0.5c-0.6-0.3,0.6,0.2-0.4,0c-0.4-0.1-0.8-0.4-0.8-0.8c0-0.8,0.9,0.1,1.9,0c-0.4-0.6-0.3-1.2-1.1-1.2c-0.4,0-0.3-0.4-0.5,0.1
				c-0.6,1,0.3-0.6,0,0.3c-0.1,0.3,0.4-0.1-0.1,0.2C154.7,18.3,154.1,17.4,153.6,17.6z"/>
			<path class="st0" d="M102,76.3c0.2-2,1.2-4.2,1.7-6.2c0.6-2.6-0.1-4,1.7-6c-1.8,0.4-1.6,1.7-3.3,2.3c1.6,1.4-1.1,9.2-0.6,10.4
				c0.6,0.2,0.2,0.3,0.5-0.4c0,1.2-0.2,0.6,0.4,0.8L102,76.3z"/>
			<path class="st0" d="M125.7,77.4c0.7-0.6,0.5-1.4,1.8-2.8c0.8-0.9,0.3,0.1,1.6-1.5c1.1-1.2,0,0.4,1.5-1.8
				c0.3-0.4,0.4-0.4,0.6-0.9c-1.2,0.4-2,1.9-3.2,2.6c-1.8,1.1-2.9,3.4-3.5,5.4l0.4-0.2c-0.3,0.8-0.1,0.5,0,0.7
				c0.4-0.5,0.8-1.1,1.3-1.6C126.3,77.4,126,77.6,125.7,77.4z"/>
			<path class="st0" d="M107.7,70.6c-1.2,1.1-1,1.9-1.1,2.5c-0.4,1.1-1.4,2.6-1.6,3.8c-0.1,1-0.2,0.6,0.3,0.8c0.5-0.3,0.3,0,0.4-0.6
				c0.4-1.7,0.2-0.8,0.7-0.9c0.4-0.7,0.4-1.2,1-2.1c0.3-0.4,1.1-1.4,1.1-1.9l-1,0.6l0.7-1.2c-0.7,0.4-0.7,0.4-1.1,0.8L107.7,70.6z"
				/>
			<path class="st0" d="M125.1,117.4c-0.5,0.7-0.2,3.4-0.1,4.5c0.1,0.7,0.1,1.4,0.2,2.1c0.3,1.6,0.1,1.4,0.6,1.8
				c-0.4-1.5-0.1-1.2,0-1.3c0.8,0.5,0.3,0.4,1,1.2c0.2,0.3-0.1,0,0.4,0.4l0.8-0.3c0-0.4-0.3-0.6-0.4-0.8c-0.3-0.3-1.8-1.1-2-2.4
				C125.3,121.2,125.6,118.4,125.1,117.4z"/>
			<path class="st0" d="M163,19.8c-0.3,0.1-0.4,0.1-0.6,0.2l-0.7,0.4c0.2,0.3,0.3,0.3,0.4,0.4l0.2,0.2c0,0.1,0.1,0.1,0.1,0.1
				l0.3,0.2c0.5-0.9,1.1-0.2,1.5-1.7l-0.4,0.2c0-0.4,0.4-0.6-1.6-1.6C162.6,19.5,162.8,18.7,163,19.8z"/>
			<path class="st0" d="M148.4,30.7l-0.2,0.4c2.6-1.1,2.2-1,3.8-0.6c1.7,0.4,1.5-0.1,1.5-0.1l-0.5,0.1c-0.6-1-1.1-1-2.2-0.7
				C149.7,29.9,149.1,30,148.4,30.7z"/>
			<path class="st0" d="M201.4,52.1c-0.3-0.7-0.2-0.6-0.6-0.9c-0.5,1,1.1,3.3,2.3,3.9c-0.4-0.8-0.8-1.1-1.2-2
				C201.7,52.7,201.5,52.4,201.4,52.1z"/>
			<path class="st0" d="M139.2,88.3c0.5-0.4,0.1-0.3,1.2-1.2l-0.2-0.1c-1.9-0.7-0.4-0.3-1.3-0.7C138.9,87.1,138.7,87.7,139.2,88.3z"
				/>
			<path class="st0" d="M147.6,47.7c-0.1-0.4,0.1-0.1-0.2-0.4l-0.4-0.4c-0.4-0.4-0.3-0.3-0.8-0.5l0.5,1.4L147.6,47.7z"/>
			<path class="st0" d="M150.8,83.1c-0.2-0.3-0.3-0.4-0.4-0.6c-0.1-0.2-0.1-0.3-0.2-0.4c-0.4-0.6,0.4,0.8-0.2-0.4l-0.5,0.1
				c0-0.1-0.1,0.1-0.1,0.1C149.6,82.3,150.1,82.9,150.8,83.1z"/>
			<path class="st0" d="M127.9,126.6c0.8-0.1,1.3-0.6,1.3-0.6c0-0.1,0.1-0.1,0.1-0.1C128.2,125.9,128,125.4,127.9,126.6z"/>
		</g>
		<g>
			<path class="st0" d="M137.4,113.4c0.1-0.1,0.1-0.1,0.3-0.4l0.6-1.9c0.3-0.8,0.6-1.5,1-2.1c0.7-1.2,1.6-2.4,2.8-3
				c-1,0-1.7,0.6-2.4,1.1l-1.6,0.8c-0.6,0.6,0.1-0.3-0.2,0.2c-0.2,0.3-0.1,0.4-0.2,0.8c-0.8-0.2,0.2-0.4-0.6-0.4l-2,2.3
				c-0.4,0.5-0.3,0.8-0.9,1.1c-0.5-1.8,0.9-2.1,1.8-3.2c-1.2,0.4-1.8,1-2.7,1.7c-0.7,0.4-1.8-0.3-3.3,0.4c-2.2,0.8-3.5,2.2-4.3,4.4
				c0.1,0.1,0.1,0.1,0.3,0.3l0.7,0.3c0.3-0.4-0.1-0.2,0-0.5c1.4,0.5,1.2,1.2,2.2,1.7l0.8,0.4l0.4-0.6c3.3,1.6,1.9,3.1,2.6,3.9
				c0.4,0.4,0.9,0.4,1.3,0.6l-0.3-0.4c-0.2-0.4-0.1-0.2-0.3-0.3c0.7-0.5,0.3,0.9,0.5-0.1h0.1c-0.3-0.9-0.4-0.6-0.6-1.7
				c-0.1-1.1-0.1-1-0.4-1.9c-0.4-1.1-0.6-2.6-0.2-3.6c0.9-0.1,0.9,0.1,1.2,0.7c1.5,2.7,1.2,1.8,1.1,4.9c0.9-1,0.4-2.6,0.4-3.8
				c-0.2-1.7-0.6-2.7,0.3-3.8c0.4,0.4,0.6,0.8,0.7,1.3C137,113.1,136.4,112.8,137.4,113.4z"/>
			<path class="st0" d="M137.1,122.8c1.2,1.5,1.6,0.2,2.4-0.7c0.6-0.6,2-1.1,3.2-1.3c6.9-1.3,9.7,1.3,11.7,1
				c1.6-0.3,2.6-0.4,4.3-0.4c2.8,0.2,5.1,0.8,7.2,1.9c0.2,0.3-0.5-0.2,0.4,0.8c0.4,0.4,0.4,0.8,1,1c0.1-1.1-0.3-0.5-0.8-1.2
				c1.2,0.6,0.7,0.6,1.2,1.9l1.1-0.3c0.2-1.2-1.4-2.5-2.2-3c-1.1-0.7-2.4-1.2-3.6-1.6c-2.9-0.9-10.8-1.2-14.3-1.1
				c-1.9,0.1-2.3-0.7-4.5-0.4c-1.3,0.2-3.2,0.4-4.3,1C138.6,120.9,137.4,121.9,137.1,122.8z"/>
			<path class="st0" d="M175.3,90.6C175.3,90.5,175.2,90.5,175.3,90.6c-0.1-0.1-0.1-0.1-0.2-0.2c-0.4,2.1,4.6,15,4.8,18.5
				c0.1,1.5,1.1,5.3,1.8,6.1c0.1-4.4-3.3-14.1-4.7-18.8L175.3,90.6z"/>
			<path class="st0" d="M174.4,116.6c-0.2-0.6-0.1-0.1-0.4-0.4l-0.2-0.4l-1,0.6l-0.4-0.7c-0.4-0.6-0.4-0.4-0.9-0.7
				c-0.1,0.4-0.3,0.6-0.5,0.9l-0.4,0.4c-0.2,0.2-0.3,0.1-0.4,0.3c0.6,1.4,0.9,2.1,1.7,2.5c1.1,0.4,1.9,0.6,2.7,1.3
				c0.1,0,0.1,0,0.1-0.1c0,0,0.1,0,0.1-0.1c0.6-0.3,0.4-0.1,1.2,0.1c-0.2-1.6-0.4-0.4-3.3-1.8l-0.4-1.4
				C173.7,117.1,173.6,117.2,174.4,116.6z"/>
			<path class="st0" d="M112.2,82.1c1.4-1.4,0.7-3.3,1.1-5.3c0.4-1.9,1.5-3.2,1.5-4.9c-0.4,1.2-2.1,4.2-3.3,7.9
				C111.1,81.1,111.1,81.5,112.2,82.1z"/>
			<path class="st0" d="M117.9,84.6c1.6-1.1,5.5-4.4,4.5-6.3c-0.9,0.1-0.9,0.6-1.4,1.3l-2.1,3.4C118.5,83.7,118.1,83.9,117.9,84.6z"
				/>
			<path class="st0" d="M125.5,80.9c1.9-0.9,4.3-3.8,3.6-7.2c-1.5,1.6-0.8,1.5-1.7,3.7C126.9,79,125.8,79.9,125.5,80.9z"/>
			<path class="st0" d="M112.3,86.2c1.5-0.5,6.5-5.2,4.1-6c-0.5,0.7-1,2.3-1.8,3.3C113.5,85.1,112.7,85.4,112.3,86.2z"/>
			<path class="st0" d="M157.8,96c0.7-0.4,0.1,0.4,0.2-1.9c0-0.6,0.1-1.2,0.4-1.8c0.8,0.1,1,0.6,1.7,1c-0.4-0.8-1.9-2.5-2.6-2.8
				c-0.1,1-0.1,1.9-0.1,2.9c0,0.5,0,1,0.1,1.5C157.4,95.7,157.3,95.7,157.8,96z"/>
			<path class="st0" d="M103.2,86c0.6-0.6,1.2-2.9,1.3-3.7c-0.6-0.4-0.4,0-1.1-0.7C103.1,82.9,103.2,84.6,103.2,86z"/>
			<path class="st0" d="M157.6,71.8c-0.7-1.3-0.6-1.3-0.8-2.4l-1.6,0.4c0.4,0.2,0.6,0.3,0.9,0.7c0.3,0.4,0.4,1,0.6,1.4L157.6,71.8z"
				/>
		</g>
		<g>
			<path class="st0" d="M110.1,57l2.4-1.6c0.9-0.4,1.9-1,2.8-1.1c0.4,0.8,0.4,0.4,0.6,1.1c-0.4,0.4-0.8,0.6-1.2,0.9
				C110.7,58.7,112.8,58.1,110.1,57z M120.7,53c1.1-0.6-0.3-0.7,0.9-0.9c0.9-0.2,1.1,0.4,2,0.2c0.8-0.1,0.4-0.4,1.5-0.8
				c0.5-0.2,1.2-0.1,1.6-0.4c-2.8-0.8-6.9,0.4-9.5,1.4c-3.8,1.4-5,2.6-7.6,3.8l-0.3-1.2l-0.3,1.1l-1.2-0.6l0.5,0.8l-2.5,3.6
				c0.8-0.4,2.9-2.2,3.4-2.8c0.6,0.2,1.4,0.7,1.9,1.1l-1.2,1c-1.4,0.9-8,5.5-8.7,6.7c0.7-0.3,1.9-1.1,2.7-1.7
				c1.2-0.8,7.4-4.1,8.7-4.4l-0.4,0.6c1-0.1,1.5,0.4,2.3,0.6l0.2-0.6c0.2,0.1,0.4,0.3,0.5,0.4c0.4,0.4-0.4-0.4,0.2,0.2
				c0.6,0.5,3.4,1.4,4.2,1.6c0.4,0.1,1.1,0.2,1.5,0.3c1.2,0.4,0,0,0.6,0.4c0.8,0.5,1.3,0.2,2.4,0.4c0.8,0.2,0.6,0.4,1.2,0.5
				c0-0.2,0-0.3,0.1-0.5l1.7-0.2c-0.4-0.5-3.8-1-4.7-1.1c-1.9-0.2-3-0.5-4.8-1l0.6-0.3l-0.8-0.8c-0.8,0.4-0.6,0.6-0.6,0.7l-0.6-0.4
				c1.2-0.9,3.3-1.1,4.9-1.4c-0.7-0.4-0.2-0.1-0.6-0.2l-1.8,0.1c-0.6,0.1-1.5,0.6-1.9,0.5c-0.6-0.1-0.4-0.6-1.5-0.3
				c-0.7,0.3-0.8,0.5-1.5-0.1c0.4-0.5,0.9-0.6,1.4-1c0.9-0.5,0.8-0.6,1.4-1.1c0.8-0.7,1.9-1.3,3.1-1.9c0.2-0.4,0.1,0.2-0.1-0.2
				c-0.3-0.4-0.3,0.4-0.1-0.1c1.3-0.4,1.9-0.8,3-1.1c0.9-0.4,2-0.9,2.6-1.4C122.9,52.7,123.7,53.3,120.7,53z"/>
			<path class="st0" d="M153.2,82.2c0.6,0.1,0.6,0,0.9,0.5c0,0.1-0.1,0.1-0.1,0.1c0,0.1-0.1,0.1-0.1,0.1c-0.1,0.1-0.1,0.1-0.1,0.4
				c-0.6-0.1-0.4,0.1-0.7-0.4c0.1,0.4,0.2,0.4-0.1,0.7c-0.3-0.3-0.1,0-0.4-0.4l-0.2-0.4c0-0.1,0-0.1-0.1-0.2c0.5-0.3,0.6-0.2,1.1,0
				L153.2,82.2z M159.7,77.3l-0.7,0.4c-0.5,0.8-0.7-0.1-1.2,1c-0.1-0.1-0.1-0.1-0.1-0.2c-0.9-1.5-1-0.8-1.3-1.4h1.9
				c0,0-5.3-1.1-5-0.2l-0.1-0.1c0.4,0,1.5,0.1,1.9,0.2c0.5,0.2,0.4,0.3,0.7,0.6l0.1,0.1c0.1,0.1,0.3,0.3,0.3,0.3l-0.3,0.8l-1.1,0.1
				c-0.8-1.1-0.9-0.6-1.5-1.2l-0.4,0.3c1.1,1,2.1,2.3,2.9,2c-0.4,0.2-0.7,0.5-1.1,0.9l-0.1-0.1l-2.8-2.5c-0.4-0.3-0.6-0.4-0.9-0.6
				c0.4,0.6,1.1,1.1,1.6,1.9c-2,0.4-1.1-0.1-2,1.8c0.4,0.3,0.5,0.4,0.9-0.1c0.1,0.6,0.2,0.7,0.6,1.1l0.4,0.2
				c-0.6,0.3-0.7,0.5-1.3,0.8c-0.5,0.5-3.5,2.6-4.2,2.8l-1.1-2l0.6,2.2v0.8c0.8,0.3,0-1.1,0.6,0.3l1.1,3.4c0.8-0.2,7.5-4.9,7.9-5.5
				c-1.9,0.2-0.1,0.5-1.9-0.1c-1.2-0.4-1.1,0.3-1.7-1.1c-1,0.3-0.2-0.4-1.1,0.4l-3,1.9c-0.4,0.3-0.1-0.1-0.4,0.4
				c1.2,0.6,0.7-0.4,1.6,0.3c-1.1-0.2,0,0-0.8,0.3c-0.3,0.1-1.2,0.2-1.4-0.1c-0.3-0.5-0.1-0.4,0.1-1.1l0.6-0.1
				c1.9-0.9,1.9-1.2,2.3-1.6c0.6-0.4,0.5-0.1,1.8-1.2c0.8,0.6,0.7,0.6,0.7,1c2.6,0.9,1.5,0,1.5-0.9c0.4-0.4,0.1-0.1,0.3-0.1
				c1,0-0.7,0.3,0.3,0c0-0.8-0.1-1.5-0.9-1.8l1.1-0.4c0.4-0.7,1.1-1.1,1.8-1.3c0.3-0.4,0.5-0.4,1.1-0.4c0.7-1,1.8-0.9,2.1-1.5
				c0.1-0.1-0.2,0.1,0.3-0.4c0.3-0.3,0.8-0.4,1.1-0.6l0.1,0.1c0.4-0.6,0.6-0.6,1.1-1C161.4,76.1,160.3,76.9,159.7,77.3z"/>
			<path class="st0" d="M194.3,62.3c0.9,0.3,0.9,0.3,0.8,1.1l-0.1,0.2v0.1c0,0.4,0.8,1.6,1,1.8l4.1,4.4c1.1,1.2,2.6,3.5,4,4.3
				c-0.6-1.2-1.7-2.6-2.5-3.8l-1.9-2.8c-0.4-0.8-0.4-1.1,0.3-0.9l1.1,0.5c0.8,0.9,0.4,0.2,1,0.9c0.7,1,1.5,2.2,2.6,2.6l0.8-0.6
				c-0.7-0.7-1.1-0.5-1.8-1.1c-0.1-0.8,0.4-2.3-1.9-3l0.3,1.7c0-0.3-0.4-1.1-0.4-1.7c-3.3,0.4-2.4-2-3.4-0.7c-0.1-0.9,0.1-0.4-0.4-1
				l-0.4-0.6c-0.5-0.4,0.7,0.5-0.6-0.1c-0.6-0.4-1.5-1.1-2.1-1.1C194.2,62.2,194.5,62.1,194.3,62.3z"/>
			<path class="st0" d="M176,35.5c-1.6,0.3-0.9-0.4-1.9,0.6c-0.2,0.2-0.1,0.1-0.3,0.3l-1-0.4c-0.2,0.8-0.4,1-1.1,1.5l-0.5,0.4
				c0.3,1,0.7,1.1,1.1,1.1c0.2-0.4,0.2-0.4,0.1-0.7c-0.1-0.6-0.6,0.2-0.1-0.6c0.2-0.4,0.4-0.1,0.4-0.3l0.4-0.5c0,0,0.1-0.1,0.1-0.2
				c0.3,0.4,0.4,0.8,0.8,0.1v0.7c0.4-0.6,0.3-0.5,0.9-0.8c-0.2,0.6-0.6,1.1-0.3,1.9l0.3-1c-0.4-0.8,0.1,0.6-0.1-0.2
				c0.6-0.9,2.4-2.4,2.3-3.8C175.1,34.8,177.4,33.7,176,35.5z"/>
			<path class="st0" d="M136.9,73.6c-0.4,1.9-0.8,5.8,1.1,6.3c0.4-0.6,0.1,0.1,0.2-0.8l0.1-0.2c0-0.4-0.4-0.4-0.4-1.1
				c-0.1-1,0-2.2-0.1-3.4l-0.4,0.5L136.9,73.6z"/>
			<path class="st0" d="M194.3,50.8c0.3,0.7,0.1,1.2,0.4,1.9c-0.4,0.4-0.7,1.1-1,1.4c-0.4,0.5-0.7,0.7-1.1,1.2
				c-1-0.1-1.8-0.4-2.6,0.1c0.7,0.4,1.9,0.2,2.7,0.4c1.1,0.4,1.1,0.7,2,1.2c-0.4-1.1-0.8-0.4-1.5-1.7
				C194.9,53.1,197.5,52.3,194.3,50.8z"/>
			<path class="st0" d="M151.4,137.2c-0.4-0.5-0.3,0.3-0.4-1.9c0.6,0.8,0.3,1.2,0.9,1.8c0.4-0.3,0.1,0.1,0.3-0.3l0.4-1.1
				c0.4,0.5,0.4,1-0.1,1.5h1.2c-0.7-1.9-0.1-1.9-0.5-2.8c-1.1,0.1-0.6,0.6-1.1,1.7c-0.2-0.4-0.2-0.6-0.4-1c-0.3-0.9,0.2-0.7-0.9-0.7
				l-0.1,0.3c-0.2,1,0.1,1.4-0.4,2.3C150.5,137.1,150.4,137.2,151.4,137.2z"/>
			<path class="st0" d="M167.4,27.6c1.2,0.5,1.5,0.2,2.1,1.5l-1,0.2c0.7,0.3,0.5,0.4,1,0.6c0.7,0.4,1,0.1,1,0.4c0,0.1-0.1,0,0,0.2
				l3.2,0.8c-0.1-0.2-0.2-0.4-0.4-0.6c-0.6-0.4-0.9,0.3-2-0.7c-1.4-1.1-0.5-1-1.9-1.9c-0.1-0.4-0.3,0.4,0.1-0.1
				c0.2-0.3,0.1,0.2,0.2-0.4c-0.4-0.1-0.8-0.1-1.1-0.1c-0.1,0-0.6-0.1-0.6-0.1c-1,0,0.6-0.1-0.3,0L167.4,27.6
				C167.5,27.6,167.5,27.6,167.4,27.6z"/>
			<path class="st0" d="M149.1,134.8c1.8,1.7-1.1,3.4-0.8,0.6L149.1,134.8z M147.6,135.1c-0.1,0.9-0.1,1.8,0.8,2
				C151.3,138,150.5,132.5,147.6,135.1z"/>
			<path class="st0" d="M189.2,75.6c0.3,1.1,0.6,2.1,0.9,3.4l0.5,2.7c0.3,0.8-0.1,0.3,0.5,0.4c0.5-0.8,0.1-1.1-0.2-1.9
				C190.3,77.7,190.9,78.4,189.2,75.6z"/>
			<path class="st0" d="M160,136.7c-1.4,0.3-1.4-2.6,0.4-1.7c1.2,0.6-0.6-0.2,0.4,0.2v-0.8c-1.3,0-2.1,0-2.2,1.2
				c-0.1,1.2,0.5,1.6,1.8,1.4c0.7-0.8,0.3-0.4,0.6-1.4l-0.9,0.1c0.1,0.6,0.1-0.2,0.2,0.4L160,136.7z"/>
			<path class="st0" d="M163.1,79.4l-2.1,1.2l-1.9,0.9c0.4,0.5,0.3,0.6,0.5,1.2c0.6-0.5,0.8-0.8,1.4-1.1c0.4-0.5,0.5-0.5,1.1-0.9
				c0.4-0.3,0.6-0.5,1.1-0.8c0.2-0.2,0.4-0.4,0.6-0.6c0.3-0.3,0.3-0.2,0.3-0.2L163.1,79.4z"/>
			<path class="st0" d="M189.4,47.2c-0.3-1.4-0.3,0.3-1.2-2.6c-0.3-0.8-0.1-0.4-0.5-0.8C187.4,45.3,188.2,46.9,189.4,47.2z"/>
			<path class="st0" d="M189.5,36.2c0.9-0.3,1.5-0.8,1.7-1.7C190.3,34.7,189.8,35.5,189.5,36.2z"/>
		</g>
		<g>
			<path class="st0" d="M145.8,102.4c0.3-0.7,0.2-0.4,0.6-0.8c1-1,1.8-0.4,3-0.8c1.3-0.4,2.2-1.3,3.6-1.5c1.1-0.1,1.1-0.8,1.9-0.4
				c0.2,0.7,0.2,0.6-0.3,1.1c-0.2,0.2-0.5,0.5-0.8,0.7c-0.4,0.4-1.2,1-1.9,1.1c0.3-0.7,1.7-1.3,2.1-2.1c-0.6,0.3-0.8,0.6-1.5,0.9
				c-2.4,1.1-2.7,0.4-4.4,0.7c-0.5,0.1-1,0.6-1.8,0.9l0.8,1.2c1.1-0.1,2.1-1.1,3.2-1.4c-0.6,1.6-2.3,1.8-3.5,2.6
				c-0.4,0.3-0.2,0.1-0.4,0.4c2.2-0.4,4.1-2.1,6.4-1.9c-0.2,0.5-0.3,0.5-0.8,0.8c-0.4,0.3-0.7,0.4-1.1,0.6c-2.7,1.7-2.1,1.6-3.6,2.7
				c-0.4,0.3-1.3,1.7-1.5,1.1v-0.3c0.1-0.3-0.1,0,0.4-0.4c0.4-0.4,0.6-0.3,0.8-0.8l-2.4,1l-1.4-0.4l-0.4,0.6
				c0.3,0.8-0.1,0.3,0.6,0.4c-0.6,0.3-1.3,0.8-0.9,1.6c1-0.4,1-1.1,1.8-1.6l-0.3,1.9l2.4-0.6v-0.5c0-0.8,0.3-1.2,1.1-1.6l0.2,0.9
				c1.1-1.5,0.6-0.3,2.1-1.9c0.3-0.3,0.5-0.4,0.8-0.6c1.1-0.9,2.1-1.6,3.2-2.4l-2.3,2.9c-0.9,1-2.4,1.1-3.1,2
				c1.2-0.1,3.1-1.5,3.8-2.1c0.4,0.4,1.3,0.9,1.6,1.3c-0.8,0.1-1.2-0.4-1.8-0.6c-0.5,0.4-0.4,0.4-0.9,0.9c1-0.3-0.1-0.6,1.1-0.3
				l0.9,0.4c0-0.1,0.1,0,0.1,0.1c-0.4,0.2-2.2,1.1-2.6,1.2l-1.1,0.7c-0.6,0.3-0.8,0.3-1.2,0.6c-1.1,0.7-3.8,1.5-3.9,3.1
				c2.6-0.4,0.6-0.4,2.6-1.1c0.4-0.2,1.7-1.3,1.9-1.8c0.4,0.2,0.4,0.3,0.6,0.4h0.1l0.2,0.1h0.1c-0.4,0.9-0.7,1-1,1.7
				c0.7-0.4,1.2-1.1,1.6-1.9c0.5-1.2,0.7-1,1.4-1.8l-0.6,1.7c0.7,0.1,0.7-0.3,1.1-0.8c0.6-1.1,2.6-2.6,3.4-3.4c0,0,0.1,0,0.1-0.1
				l0.1-0.1c0.4-0.4-0.2,0.3,0.2-0.1c0.4-0.3,0.4-0.8,0-1c-0.6-0.2-1.9,1.1-2.2,1.4c-0.6-0.2-0.6-0.3-1.1-0.6
				c0.4-0.8,0.7-0.8,1.4-1.1c0.9-0.4,1.1-1.2,1.7-1.9c0.7-1.1,0.4-1.6,0.6-3.1c-0.7,0.4-0.9,0.7-1.8,1l0.6-0.8
				c-0.8,0.4-0.9,0.9-1.9,1.1c0.3-0.5,0.5-0.8,1.1-1.2c0.4-0.4,0.6-0.5,1.2-1c0.9-0.8,1.8-0.9,2.4-2c-1.5,0.2-3.2-0.5-4.5,0
				c-1.5,0.6-2,0.3-3.4,1l-1.5,0.9c-0.5,0.3-3.3,2.3-3.4,2.6C145.2,102.5,145.4,102.3,145.8,102.4z"/>
			<path class="st0" d="M157.2,83c0.3,0.9,0.4,0.4-0.2,0.7c-0.4-0.5-0.1-1,0.4-1.3l0.4,0.6H157.2z M156.6,82
				c-0.9,1.9,0.1,1.9-0.3,2.8c-0.3,0.3-0.2,0.5,0,1.1l-0.7,0.4c-0.3,0.1-0.8,0.5-0.8,0.8c1.8,0.1,1.8-0.1,1.6,1.7
				c0.4-0.3,0.1,0,0.4-0.4c0.1-0.1,0.3-0.3,0.3-0.4c0.7-1.4,0.4-2.3-0.1-3.1c0.5-0.4,0.8-0.3,1.7-0.4c-0.8,1.3-1.2,3.4-1.3,5.1
				l3.1,2.4c2.1,1.6,1.1,1.1,3.2,1.4l-0.6-0.9l1.6,0.7c-0.3-0.4-0.7-1-1.1-1.5l1.9,0.9c-0.4-0.8-0.8-0.9-1.2-1.7
				c1.6,0.8,4.4,3.9,5.6,5.3c0.4,0.5,1.2,1.7,1.7,2c-0.7-1.6-3.8-4.9-4.9-6.3l-2.6-2.7c-0.4-0.4-0.9-1-1.4-1.3
				c-0.6-0.5-0.8-0.5-1.3-1.2c-0.5-0.4-0.8-0.8-1.3-1.2c-0.3-0.2-0.6-0.4-0.8-0.5c-0.8-0.8-0.3-1-0.2-1.7l-0.1-0.6
				c-0.1-0.3-0.1-0.7-1.2-0.9C157,81.6,157,81.5,156.6,82z"/>
			<path class="st0" d="M143.1,104.7c0.4-0.7,1-1.2,1.4-1.8c0.8-0.9,0.3-1.2,1.1-1.9l1.7-1.2c1.1-0.8,2.9-1.9,3-2.6
				c0-0.7-0.3-1.4-0.2-2.1c0.6-2.9-0.7-3.4-0.4-4.7c-1,0.3-1.2,0.7-1.9,1.1c0,0.8,0.3,0.8-0.3,1.4l-2,2c-0.2,0.2-0.3,0.3-0.4,0.4
				c-0.4,0.4-0.2,0.3-0.4,0.3c2.9,0.6,2.7-2.4,4.6-2.7c-0.4,1.1-0.8,3.2-1.4,4c-1,1.1-3.3,1.7-4.9,3c-0.8,0.6-1,0.4-1.3,1.4
				c-0.5,1.4,0.4,2.7,1.1,3.8l0.2-0.6c0-0.1,0-0.1,0-0.1L143.1,104.7z"/>
			<path class="st0" d="M154.2,89.7c0.4-0.5,0.3-0.3,0.8-0.6c-0.3-0.2-0.5-0.3-0.7-0.4c-0.1,0-0.2-0.1-0.3-0.1
				c-0.7-0.4,0.1-0.5-1.1-0.8l-0.4,8.9c0.6-0.4,0.3-0.3,0.5-0.9c0.8,0.5-0.1,0.4,0.7,0.8c0.6-0.4,0.8-0.8,0.9-1.8
				c0.9,1.9,0.5-1.8,0.8-3c1.1,1.3-0.3,3.6,1.1,4.4c0.4-0.5-0.2-0.5-0.3-1.6c-0.1-0.7-0.1-1.7-0.1-2.4c0.5,0.8,0.5,1.9,0.6,2.8
				l0.2,0.8c0,0,0,0.1,0.1,0.2c0-1.1,0.1-2,0.1-3c0-1.1-0.6-1.9-0.4-0.6c-0.5-0.8-0.7-1.5-1.4-2.3c-0.4,0.5,0,0.9-0.4,1.3
				c0-0.1,0-0.1,0-0.1l-0.1-1L154.2,89.7z"/>
			<path class="st0" d="M193.6,28.4l1,0.3c-1.1,0.5-1.5,0.6-1.9,1.7l1.6-0.9c-0.6,1-1.1,0.7-1.1,1.9c0.5-0.3,0.5-0.4,1.2-0.7
				c-0.3,0.6-0.6,0.9-0.7,1.5c0.8-0.4,1-0.9,2.6-1.2c-0.3-0.5-0.2-0.3-0.6-0.7h0.8l-0.4-1c0.2,0.3,0.5,0.4,0.9,0.6l-0.3-1.1
				c1,1.1,1.9,1.7,2.6-0.1c-1.2,0-0.1,0.2-1.2,0.3l-0.2-0.5c0.7-0.4,1.9,0,2.3-0.2c-0.1-0.6-0.5-1-1.1-1.1c-1.9-0.3,0.8,0-1.9,0.4
				C196.2,27.6,194.3,27.9,193.6,28.4z"/>
			<path class="st0" d="M104.8,79.7l1.2,1.9c0,0.1,0.1,0.2,0.1,0.2s0.1,0.1,0.1,0.2c0.6-0.8,0.4-0.8,1.6-1c-0.1,0.9-0.4,2.3-0.6,3.1
				c-0.4,1.1-0.8,1.6-1,2.8l0.6-0.6c1.1-1.7,0.8-0.8,1.1-0.9c0.5-1.1,1.1-3.8,1-4.9C107.1,80,106.6,80.5,104.8,79.7z"/>
			<path class="st0" d="M116.7,31c-0.5-0.1-1-0.3-1.5-0.1c0,0.1,0.1,0.1,0.1,0.1l0.4,0.4c0.2,0.1,0.5,0.3,0.7,0.4
				c-0.5,0.9-1.1,1.6-0.5,3.2c1.1-0.3,0.5-1.1,1.2-2.8l1.9-0.2c-0.3-1.1-0.6-0.5-1.4-1c0.2-1.4,0.9-0.7,1.1-2.3
				c-0.6,0.1-0.8,0.4-1.2,0.9C116.7,30.1,116.7,29.9,116.7,31z"/>
			<path class="st0" d="M182.9,22.5c-1.1,0.2-1.1-0.2-1.6,0.7l1.9-0.2l0.1,2.3c1.4-0.4,0.9-1.5,1.4-2.3c0.4-0.6,0.3,0.1,0.5-0.8
				c-0.6-0.6-0.5,0-1.1-0.6c0,0-0.3-0.4-0.3-0.4c-0.4-0.4-0.8-0.8-1.6-0.9c0,0.4,0.2,0.7,0.3,1.1l0.3,0.8
				C182.9,22.3,182.9,22.4,182.9,22.5z"/>
			<path class="st0" d="M128.6,50.7c-0.3,0.6-0.3,0.6-0.8,1.1l-1,0.8c0-0.1-0.1,0.1-0.1,0.1c4.6-0.4,4.4,0.4,7.2,0.6L128.6,50.7z"/>
			<path class="st0" d="M200.7,30.7c-0.2,0.1-0.2,0.1-0.4,0.2c-0.2,0.2-0.2,0.2-0.4,0.3l1.1-0.1l-0.3,0.6c2.3-0.4,2.7,0.3,4.8,0.5
				c-1-1.1-2.3-1.1-3.7-1.8c-0.8-0.4-0.6-0.4-1.1-0.6C200.4,30.2,200.5,30.3,200.7,30.7z"/>
			<path class="st0" d="M145.8,102.4c-0.8,1-2.6,1.7-1.9,3.4l0.9-0.1l-0.5-0.4c-0.2-0.2-0.1-0.2-0.2-0.4l1.2-0.2
				c0.3-0.4,0.4,0.4,0.1-0.8c0.6,0.2,1,0.4,1.1-0.4C146.6,102.8,146.3,102.5,145.8,102.4z"/>
			<path class="st0" d="M108.4,77.9c1.1-2.3,1.1-1.8,1.9-3c-1.3,0.2-2.6,1.8-3,2.8L108.4,77.9z"/>
			<polygon class="st0" points="154.8,140.3 155.2,137.3 154.2,137.3 154.6,140.7 			"/>
		</g>
		<g>
			<path class="st0" d="M156.4,52.2c-0.2-0.1-0.4-0.1-0.4-0.1c-0.4,0-0.1,0.1-0.1,0.2c0.2,0.4,0.4,0.6,0.3,1.2l-0.9,0.2
				c-0.1-0.1-0.3-0.4-0.3-0.4l-0.3-0.1c-0.3,0.4-0.6,0.7-0.8,1.2c-0.2-0.2-0.3-0.1-0.4-0.2c-0.4-0.2-0.1,0.1-0.4-0.4
				c-0.1-0.5,0-0.5-0.5-0.4c-0.7,0.1-0.4,0-0.5,0.6c-0.1,0.4-0.1,0.4-0.4,0.7c0.4-0.2,0.4-0.3,0.9-0.5l0.3,0.6
				c0.7,1,1.4-0.2,1.4-0.2c0.5,0.6,0.9,0.4,1.8,0.5l0.2-0.4c0,0-0.2-0.6,1.2-0.8c-0.4,0.6-0.4,0.3-0.7,0.9c1.7,0.1,2.6-0.5,3.3,0.6
				c-1.2-0.2-3.2-0.9-3.9,0.5c-0.4-0.6,0-0.6-0.9-0.7c0.7,1.6,0,0,0,0.6c0,0.1-0.1,0.1,0.1,0.4l0.2,0.2c0.4,0.4,0.3,0.1,0.5,0.6
				c-0.8,0-0.8,0.2-1,0.4l4.9-0.6c-0.3,0.8-1.3,1.5-1.8,1.6c-0.8,0.3-0.2,0.2-0.4-0.2c-0.9,0-1.1,0.2-1.9,0.3l-0.2,0.5l0.5,0.2
				c0.2,0.1,0.2,0.1,0.2,0.2c0.1,0.3-0.2-0.4,0,0.4l0.1,0.3c0-0.1,0.1,0.1,0.1,0.2l0.4-0.4c0.4,0.1,0.5,0.3,0.9,0.4
				c-0.3-0.3-0.3-0.3-0.4-0.6c1.1,0.4,0.6,0.1,1,0c0.4,0.5,0.3,0.6,0.8,0.6l0.9-0.4l-0.8-0.2c0.1,0,0.4,0,0.4-0.1
				c0.5-0.1,0.3-0.1,0.4-0.2v-0.9c0.4,0.4,0.3,0.2,0.6,0.1c0.4-0.1-0.1-0.3,0.9-0.1l-0.4-0.4l0.1-0.1l0.2-0.2l0.1-0.1l0.8-0.2
				c0.1-1.1-0.3-2.2,0-3.4l0.3,1.3l0.4-0.7c0.1-0.4-0.3,0.3,0-0.8c0.1-0.5,0.5-1.4,0.7-2c0.8-2.9,0.5-2-0.8-3.8
				c1.2,0.4,0.5,0.4,1.4-0.4c-0.3,1.1,0.3,1,0.3,1.9c0.4-0.6,0.4-1.2,0.6-1.9c0.6-1.9,1.3-2.3,0.8-4.2l-0.4-0.7
				c1-0.7,1.5-2.2,1.9-3.4c-0.7,0.2-0.5,0.4-0.8,1.1l-2.7-0.4c-1.1-0.6,0.8,0.7-0.3-0.3l-1-0.4c0.8-0.4,1.7-0.1,2.7-0.1l-0.7-1.3
				c1,0.2,0.4,0,1,0.8c-0.1-0.8-0.3-1.1-0.9-1.4c-0.7,0.4,0.1,0.1-0.4,0.4c-0.1,0-0.2,0.1-0.3,0.1l-2.4,1.9l0.7,1.1l2.8-0.3l0.1,1.1
				l-4,0.4l3.1,0.4c0.2,0.4-0.2-0.2,0.2,0.3c0.2,0.2,0.2,0.1,0.4,0.4c-0.2,0.4,0.1,0-0.3,0.4c-0.5,0.8-1.8,1.8-2.6,1.9l-0.1-0.1
				c-0.3-0.6-0.1-0.9,0.3-1.5c0,0,0-0.1,0.1-0.1l0.4-1.1c-0.8,0.3-1,0.9-1.7,0.6c-0.4-0.2-0.4-0.4-0.4-0.6V43
				c-1.4,0.5-0.4,0.7-1.9,0.9l1,1.2c0.4,0.4,0.6,0.8,0.9,1.2c-0.9-0.4-1.9-2.2-3-1.9c-0.6,1.6,2.1,5.3,2,6.8l-1.4-0.3
				c-0.3,0.4,0.1,0.2-0.1,0.8l0.8,0.1l1.1,1.1c0.4,0.4,0.2,0.1,0.8,0.4c0.1,1.1,0.2,1.2-0.1,2.1c-0.8-1.4-0.6-0.9-1.5-1.2l-1.6-1
				c-0.3-0.2-0.1-0.1-0.4-0.2l-1-0.7c-0.8-0.7,0.4,0.4-0.2-0.2L156.4,52.2z"/>
			<path class="st0" d="M194.3,67.8l-0.8,0.4c1,0.5,1.1,0.6,1.9,1.1c2.9,2.1,9.8,9.7,10.8,10.2c-0.5-1.8-4.5-6.6-5.7-7.9l-2-2.4
				c-0.4-0.6-2.9-2.6-3-2.7c0,0.7,0.6,1.5,0.8,2.2C195.3,68.5,194.7,68.5,194.3,67.8z"/>
			<path class="st0" d="M148.3,131.3c-0.2-0.6-1.1-4.4-2.7-3.1c0.5,0.5,0.8,0.4,1.1,1.1c0.4,0.5,0.8,2.4,1.1,3.3
				c0.1,0.4,0.2,0.5,0.1,0.9c-0.1,0.4-0.3,0.4-0.4,0.6h2c-0.3-0.8-0.8-0.7,0.4-2.9c0.3,0.4,0.4,1.1,0.6,1.6c0.4,1.1,0.3,0.6-0.3,1.2
				h2.2c-0.8-1.1-0.6-1.1,0.1-2.6c0.8-1.6,0.6-2.1,1.5-2.4c0.2,0.4,0.2,0.9,0.2,1.5c0,0.4-0.1,0.4-0.1,0.6c-0.3,1.2,0.4,1.6-0.1,3
				h1.1c-0.5-1-0.4-1.5-0.2-2.5c0.2-0.9-0.7-1.4,0.1-2.8l-2.8,0.1c0.4,0.8,0.4-0.2,0.3,0.8l-1.1,2.6c-0.4-0.6-0.4-1.2-0.7-1.9
				c-0.4-1.3-0.1-0.7,0.3-1.5l-2-0.1l0.4,0.5c0.1,0.3-0.1-0.4,0.2,0.4c0.1,0.4,0,0.6-0.1,0.9c-0.2,0.5-0.4,1.1-0.7,1.7L148.3,131.3z
				"/>
			<path class="st0" d="M203.4,49.1c-0.3-0.5-0.6-0.9-0.9-1.4c-0.3-0.5-0.4-1.1-0.6-1.6l-0.4,1.1c0,0.1,0,0.1-0.1,0.2
				c-0.3-0.8-0.3-1.2-0.4-2.1c-0.4,0.5-0.2,0.7-0.6,1.2l-0.2-1.9l-0.5,1.1c-0.3-0.6-0.2-1.6-0.4-2.1c-0.4,0.4-0.4,0.5-0.5,1v-1.9
				c-0.6,0.4-0.4,0.6-0.8,1.1l0.1-2.1c-0.1-1,0.3,0.9-0.1-0.3l-0.7,1.1l0.4-2.9c-0.1,0-0.1,0.1-0.1,0.1l-0.4,0.4
				c-0.3,0.3-0.2,0.3-0.4,0.5l0.1-1.6c-1.1,2.6-0.2,5.3,1.3,6.7C199.5,46.6,201.3,48.3,203.4,49.1z"/>
			<path class="st0" d="M210.1,74.7c-0.3-0.6-0.3-0.6-0.7-1c-0.6-0.4-0.6,0-0.5-1c0.8,0.4,0.4,0.4,1.1,0.8l-0.5-1.1
				c-0.7,0.1-0.2,0-0.6,0.3l-0.3,0.2l-0.1,0.1c-0.4-0.6-0.4-0.4-1.1-0.7c-0.5,0.4-1.1,0.8-0.7,1.8c0.5,1.3,1.1,1,1.2,1.1
				c-0.4,1.1,0.8,2.2,1.8,4.3l2.2,4.2c-0.3-2.6-2.3-6.7-3.8-9.1c0.4-0.7,0.5-0.7,0.4-1.1c0-0.1-0.2-0.2-0.2-0.3s-0.1-0.1-0.1-0.1
				L210.1,74.7z"/>
			<path class="st0" d="M197.1,45.5l-0.5,1.1l-1-2c-0.2,3.5,5,7.2,8.9,6.6c0-0.1,0-0.1,0-0.1v-0.1c0,0,0-0.1-0.1-0.1l-1.8-1.1
				l0.1,0.6c-0.6-0.4-0.7-0.4-1.2-1.1v0.8c-0.4-0.6-0.8-1.1-1.1-1.6c0,0.1,0,0.1,0,0.1l-0.1,0.1l-0.2,0.5c0,0,0,0.1-0.1,0.1
				c-0.1-0.4-0.6-1.6-0.9-1.9c-0.4,0.5-0.1,0.7-0.4,1.2c-0.3-0.8-0.4-1.2-0.6-2.1l-0.4,1c0,0-0.1,0.2-0.1,0.1l-0.1,0.1
				C197.5,47.2,197.3,46.3,197.1,45.5z"/>
			<path class="st0" d="M167,102.6c0.6,3.1,1.4,3.1,1.4,6.5c0,2.6,0.3,1.9-0.4,2.1c0.6,0.6,1.1,2.6,2.4,1.9l0.3,0.4l0.1,0.1
				c0.2,0.3-0.1,0.1,0.4,0.4c0.5-1,0.4-5.4,0-6.4c-0.4,1.8-0.3,3.5-0.8,5.5l-1.1-0.5c-0.3-1.9-0.1-3.8-0.4-5.8
				C168.7,105.6,167.6,103.3,167,102.6z"/>
			<path class="st0" d="M189.3,60.2c-1-0.4-1-0.9-2.2-0.9c-0.8-0.1-2,0.1-2.6,0.4c1.1,0.6,2.6,1,3.7,1.5c1.1,0.6,2.2,1.3,3.3,1.8
				c0.1-1,0.1-0.7-0.2-1.3c-0.3-0.6-0.1,0,0-0.7c-0.9-0.5-1.8-1.1-2.7-1.3L189.3,60.2z"/>
			<path class="st0" d="M189.9,37.7c1-0.5,0.3-0.7,1.3-1.1c-0.3,0.9-0.6,1.4-0.6,2.4c0.6-0.5,1.1-1.5,1.4-2.4c0.5,0.8-0.3,1.1,0.2,2
				l0.7-1.4c0.1,0.5,0,0.9,0,1.3c0,0.3,0,0.3,0,0.5c0.2,0.8,0.1,0.4,0.3,0.5l1.1-4c-0.8-0.1-0.4,0.1-1.1,0.3l0.1-1.2l-0.9,0.5
				c-0.2-0.5,0.2-0.2-0.3-0.7C191.2,34.9,190.3,36.6,189.9,37.7z"/>
			<path class="st0" d="M130.1,56.2c-1.1-0.1-8.4-0.9-8.9-0.2l2.1,0.2c-1.2,0.4-2.7,0.1-3.4,1.1C121.4,57.4,128.2,56.6,130.1,56.2z"
				/>
			<path class="st0" d="M121.8,59.8c3.6,1.5,4-0.7,7.2-0.5c-0.8,0.1-0.4,0.3-0.4,0.4c0.7,0.3,1.4-0.1,2.3-0.2
				c0.9-0.1,1.7-0.1,2.6-0.1C130.1,58.5,125,58.8,121.8,59.8z"/>
			<path class="st0" d="M147.2,136.4c-3,2.2-4.9-4.1-1.2-4l0.7,1c0.3-0.4,0.1-1,0.1-1.6c-1.2,0.1-2.3,0.1-2.9,0.7
				c-0.9,0.9-1,1.6-0.8,2.6C143.8,137.9,146.9,137.7,147.2,136.4z"/>
			<path class="st0" d="M185.6,42.3c0.1,0,0.4,0.1,0.3-0.2c0,0.5-0.2,2.3,0.4,2.6c0.4,0.4,0,0.1,0.4,0c0,0,0,0,0.1,0l0.5,1.5
				c0.4-0.4,0.4,0.9,0-1.8c-0.2-0.7-0.2-1.4-0.2-2.1l-0.5-0.2l0.1-2c-0.7-0.4-0.1,0.1-0.5,0l0.4-2.3
				C185.4,38.6,185.1,40.8,185.6,42.3z"/>
			<path class="st0" d="M106.1,70.1c0.4-1.1,2.2-4.7,2.4-5.6c-0.9,0.9-2.1,3.7-2.8,5.2c-0.9,1.8-2.1,3.7-1.7,6.1L106.1,70.1z"/>
			<path class="st0" d="M142.3,108.4c0.4-1.1,0.6-0.9,0.4-1.4c-1.8,0.6-4.3,6.5-4.4,9l1-1.9c0.3-0.6,0.4-1.1,0.6-1.9
				c0.3-1.2-0.2-0.3,0.5-1c0.5-0.5,1.1-1.8,1.4-2.5v0.1l0.1,0.8L142.3,108.4z"/>
			<path class="st0" d="M193.9,61.3c1.9,0.8,5.1,2.9,5.7,2.6l-3.4-2.2c-2.4-1.4-3.8-2.7-4.4-1.2C192.3,60.8,193.4,61.1,193.9,61.3z"
				/>
			<path class="st0" d="M129.2,54.8c0.3,0.1,0.7,0.2,1.1,0.3l5.7,1.4c-0.3-0.5-0.6-1-1-1.4l-6.8-0.7L129.2,54.8z"/>
			<path class="st0" d="M137.8,87.6c-0.3-1.2-0.4-1.1-0.3-2.7c0.2-1.1,0.4-1.9,0.4-2.9l-1.5,2.9C135.9,86,136.7,87.5,137.8,87.6z"/>
			<path class="st0" d="M130.4,48.4c0.4,0.4,1.1,0.8,1.8,1.2c1.3,0.9,4,2.8,5.2,3.4c-0.7-1.8-1.6-1.8-3.2-2.6
				C133.1,49.8,131.4,48.7,130.4,48.4z"/>
			<path class="st0" d="M153.1,128.4c1.6,0.3,0.8,0.9,1.9,0.4l1-0.4l-1-0.3c-0.1-0.9,0.1-1.9-0.1-2.6l-0.8,0.1
				c-0.1,0.6-0.1,1.9-0.1,2.6L153.1,128.4z"/>
			<path class="st0" d="M195.5,35.2l1.6-1.9c0,0.7-0.4,1.3-0.1,1.9l1.4-3.2C196.7,31.9,195.8,33.5,195.5,35.2z"/>
			<path class="st0" d="M110,62.7c0.6,0.4,0.8,0.3,1.5,0.4c1.8,0.2,2.9,0.6,4.3,0.8l-0.5-0.5c-0.4-0.4-1.2-0.7-1.9-0.7
				C112.4,62.5,110.9,62.6,110,62.7z"/>
			<path class="st0" d="M148.4,28.6c0.1,0.4,0,0.4,0.1,0.7c0.1,0.8-0.4,0.1,0.3,0.6c0.1-0.3,0-0.2,0.4-0.4c1.1-0.6,1.3-0.4,2.2-0.3
				c1.1,0.2,0.7-0.1,0.8-0.3l-1.3-0.4l0.7-0.8C150.5,28,149.1,28.8,148.4,28.6z"/>
			<path class="st0" d="M129.9,33.1l-0.7-0.4c0.2,0.6,0.1,0.3,0.4,0.8c-0.8,0.5-0.8,0.6-1,1.8c0.9-0.4,0.6-0.4,1.2-1.3l1.1,0.3
				c0.1-0.8-0.2-0.4-0.4-1.1c0.5-0.4,0.6-0.4,0.9-1C130.6,32.4,130.5,32.5,129.9,33.1z"/>
			<path class="st0" d="M160.7,25.8l0.8,0.8c0.5-0.2,0.3-0.1,0.4-0.3c0.4-0.3-0.4-0.1,0.4-0.3c0.2-0.1,0.5,0,0.7-0.1
				c0.8-0.1,0.4-0.1,0.5-0.3C161.6,25.2,161.4,24.9,160.7,25.8z"/>
			<path class="st0" d="M204,53.3c-0.5-1.2-0.2-1-0.8-1.4c-0.3,0.4-0.2-0.5-0.2,0.6c0,0.6,0.8,2.1,1.7,2.6
				C204.5,54.3,204.2,53.9,204,53.3z"/>
			<path class="st0" d="M205,53.6c-0.7-2-0.3-1.3-0.9-1.5c-0.6,0.8,1.1,2.9,1.6,3.3C205.6,54.8,205.2,54.1,205,53.6z"/>
			<path class="st0" d="M195.8,41.8c0.2-1,0.4-2.2,0.3-3.3C195.4,39.3,195,41,195.8,41.8z"/>
			<path class="st0" d="M152.9,28.4c0.3,0.5,0.8,0.6,1.5,0.8C154.3,27.4,152.9,28.3,152.9,28.4z"/>
			<path class="st0" d="M112,82.9c0-0.7-0.4-1.1-0.8-1.2C110.9,82.5,111.3,82.7,112,82.9z"/>
			<path class="st0" d="M152.8,70.3c0.4,0.7,0.9,0.6,1-0.2C153.2,69.7,153.1,69.8,152.8,70.3z"/>
		</g>
		<g>
			<path class="st0" d="M153.7,32.8c-2.1-0.4-1.3,0.7-3.1,0.5c0.3,0.5,0,0.3,0.4,0.5l-0.1,0.1l-0.5,0.3c0,2.6,0.7,1.9-0.4,4.1
				c-0.6,1.2-1.7,2.6-1.4,3.3c0.8,0,0.4-0.4,1.6,0.3c0.6,0.4,1,0.4,1.8,0.4l1.8,0.3c0.6,0,0.5-0.4,1.5,0.1c-0.3,1.1-0.4,0.6-1.6,0.6
				c0,0.3,0-0.3,0.1,0.1c0.3,0.6,0.1-0.4,0,0.1c-0.1,0.3-0.2,0-0.1,0.7c-0.5-0.4-0.4-0.4-0.8-0.3c-0.5,0.3,0,0.3-0.6,0.4
				c-0.4,0.1-0.6,0-0.7-0.4c-0.3-0.9-0.1,0.4,0-0.3c0.1-1,0.4,0.4,0.1-0.3c-0.5,0.3-0.3,0.1-0.7,0.2c-0.4,0.2-0.2,0.1-0.4,0.3
				l-0.4,0.2c-0.5,0.4-1,1.2-1.4,1.9c-0.3-0.4-0.4-0.3,0.1-0.9l0.6-0.8c0-0.1-0.1-0.2-0.2-0.3l-0.1-0.1l-0.2-0.2
				c-1-1.4,0.1-0.7-0.8-1.1c-0.3,0.5,0,0.4-0.4,0.9l-0.9,1.7c0.1,0.1,1.1,0.8,1.1,0.8c0.4,0.5,0,1,0.4,1.8l-0.4,0.1
				c-0.1,0.9-0.2,0.8-0.6,1.4l0.3,0.5l0.1,0.1c0.7,1.7-0.4,1.1-0.3,2.3c0.4,0.2,0.8,0.1,0.8,0.1l-0.4,0.9c0.4,0.2,0.5,0.1,0.8,0.1
				c-0.4,0.4-0.4,0.3-0.4,1c0.4-0.4,0.2-0.3,0.8-0.5c-0.3,0.5-0.4,0.6-0.3,1.1l0.5,0.9c0.6,1.1,2,0.4,1.9,1.3v0.7
				c0.2,0.7-0.7,0.9,1.3,1.8l0.3,0.1c0.4,0.1,0.5,0,0.9-0.2c-0.4,0.4-0.3,0.2-0.5,0.7c0.6-0.3,0.4-0.3,1-0.4l-0.1,0.8
				c0,0.1,0,0.1,0,0.2c0,0.4,0.1-0.2,0,0.4c0.4-0.2,0.7-0.3,0.9-0.4c1.5-0.4-0.1,0.6,1.4-0.3c0.5-0.4,0.1-0.2,0.6,0l0.2-0.4
				c0-0.1-0.1-0.2-0.1-0.2l-0.1-0.3c-0.2-0.8,0.1-0.2,0-0.4c0,0,0.1-0.1-0.2-0.2l-0.5-0.2v-0.8c0,0-0.1-0.1-0.1,0s-0.2-0.1-0.3-0.1
				l-0.3-0.2c-0.1,0-0.1-0.1-0.2-0.1l0.1-0.4c0.3-0.2,0.2-0.4,1-0.4c-0.3-0.5-0.1-0.2-0.5-0.6l-0.2-0.2c-0.2-0.3-0.1-0.3-0.1-0.4
				c0-0.6,0.7,0.9,0-0.6c-1.1-0.2-2.7,1-3.5-0.1l-0.1,0.6c-0.6,0.4-0.3,0-0.4,0c-0.2-0.6-0.1-0.4,0.3-1c0.3-0.5,0.2-0.5,0.6-0.7
				c0.1-0.6-0.3-0.4,0.5-0.6c0.5-0.1,0.4-0.1,0.5,0.4c0.4-0.3,0.2-0.5,0.4-1c0.4-0.4,0.7-0.4,1.4-0.3c-0.2,0.8-0.1,0.4-0.4,0.5
				l0.3,0.1l0.1-0.2c0.2-0.2,0.1-0.1,0.3-0.3c0.4-0.4,0.2-0.3,0.5-0.5c0-0.1-0.4-0.2,0.1-0.2c0,0,0.2,0,0.4,0.1l0.4-0.1
				c0.1-0.5-0.2-0.2,0-0.5c0.2-0.4,0.2,0,0.5-0.4c0.4-0.6,0.2-1,0.4-1.6c0,0,0,0.1,0.1,0.1c0.4,0.9,0.2,0.8,0.5,1
				c0.2-0.6-0.1-1.1-0.4-1.5c-1.1-1.6,0.8-2.3-1.2-5.1c0.5-0.2,0.6,0.8,0.4-0.8c0.4,0.3,0.4,0.4,0.8,0.5c-0.2-0.5-0.3-0.4-0.4-0.8
				l1.2,0.3c0.4-0.4,0.2-0.5,0.4-1.1l0.8,0.2c0.7,0.2,2.6-0.4,3.3-0.7c-0.2-0.6-0.2-0.5-0.6-0.9c-1.1,0.2-0.8,0.7-2,0.5
				c0.2-0.5,3-2.9,3.8-3.3c-0.1-0.6-0.1-0.7-0.4-1.2c-0.3-0.5-0.2-0.1-0.3-0.7c-2.6,2.2-2.5,2.7-3.2,3.4l-0.9-0.3l0.4-1.8l-0.1-0.1
				l-0.9-0.4c1-0.4,0.1-0.3,0.8-0.3c0.8-0.1-0.4,0.2,0.4,0.1c0.4-0.5,1.4-2.8,1.4-3.4c-1.5-0.5-1.1-0.2-1.9-0.4
				c-1.7-0.6-1.1-0.4-1.3-0.8c-0.1,0-1.4,0.4-1.1,0.5l-0.8-0.9c0.3,0.8,0.6,0.8,0.8,1.7c-0.2,0.1-0.8,0.3-0.9,0.4
				c-0.4,0.3-0.2,0.3-0.3,0.4C153.9,33.7,154.4,33.2,153.7,32.8z"/>
			<path class="st0" d="M145.1,87.6c-1.2-1.1-0.9-2.9-1.8-4c-0.1,1.4,0.7,2.4,0.7,3.6c-0.9,0.6-1.5,0.3-2.5,0.5l0.1,1.1
				c1-0.3,0.8-0.8,1.8-0.8c-0.2,1.2-1.5,0.8-1.5,2.3c0,1.2,0.4,2.2,0.4,3.4l-0.9-3.5c-0.4,0.6-0.1,0.6-0.4,1.2
				c-0.3,0.6-0.3,0.1-0.4,0.6l-0.1,0.6c-0.2,2-0.3,1.4-0.4,2.9c-0.2,1.1-1.5,1.9-2,2.6l6.4-5c0.4-0.4,1.9-1.3,2.1-1.9
				c-0.4-1.1-1.5-1.5-2-3.7c0.2,0.3,0.4,0.4,0.7,0.8c1.1,1.5,1.1,2.6,2.2,2.6l-1.6-2.8C145.4,87.8,145.4,88,145.1,87.6z"/>
		</g>
		<path class="st0" d="M194.3,67.8l0.5,0.4c-0.4-1.8-0.9-1.9-1.6-3.1c-0.3,0.4-0.4,0.8-1,0.8c0.7,0.6,0.6,1.1,1.2,1.9
			C194.4,67.6,194,67.6,194.3,67.8z"/>
		<path class="st0" d="M193.6,57.1c-0.4-0.2-0.4-0.2-0.9-0.2v0.8l1.6,0.1C194,57.2,194.3,57.3,193.6,57.1z"/>
		<path class="st0" d="M142.6,44.5c0.1,0.2,0.3,0.5,0.4,0.8c0.2,0.4,0.3,0.4,0.5,0.7c0.7,0.1,0.1,0.1,0.4-0.4l-0.1-0.4
			c-0.5-0.2,0.3-0.3-0.3,0l-0.2,0.3c0.2-1.3-0.1-0.8-1.1-1.6L142.6,44.5z"/>
		<path class="st0" d="M157.1,83.7c0.6-0.4,0.4,0.2,0.2-0.7h0.6l-0.4-0.6C157,82.8,156.7,83.2,157.1,83.7z"/>
		<path class="st0" d="M131.1,65.6c0.4,0.5,0,0.4,0.6,0.6l0.1-0.6H131.1z"/>
	</g>
</g>
</svg>
