<?xml version="1.0" encoding="UTF-8"?>
<!DOCTYPE svg PUBLIC "-//W3C//DTD SVG 1.0//EN" "http://www.w3.org/TR/2001/REC-SVG-20010904/DTD/svg10.dtd">
<!-- Creator: CorelDRAW 2018 (64-Bit) -->
<svg xmlns="http://www.w3.org/2000/svg" xml:space="preserve" width="84mm" height="53mm" version="1.0" style="shape-rendering:geometricPrecision; text-rendering:geometricPrecision; image-rendering:optimizeQuality; fill-rule:evenodd; clip-rule:evenodd"
viewBox="0 0 8400 5300"
 xmlns:xlink="http://www.w3.org/1999/xlink"
 xmlns:xodm="http://www.corel.com/coreldraw/odm/2003">
 <defs>
  <style type="text/css">
   <![CDATA[
    .fil0 {fill:black}
   ]]>
  </style>
 </defs>
 <g id="Слой_x0020_1">
  <metadata id="CorelCorpID_0Corel-Layer"/>
  <path class="fil0" d="M5732.47 3111.77c-3.53,-14.11 0,-31.75 17.64,-28.22 3.53,7.06 3.53,14.11 0,21.17 -7.05,7.05 -10.58,10.58 -17.64,7.05zm1175.87 -2609.09c2.58,-4.42 3.24,-1.97 9.52,-5.1l0 0c3.53,-3.53 7.06,-7.06 7.06,-10.58 0,-14.11 -3.53,0 -3.53,-7.06 3.53,0 0,0 3.53,3.53l3.53 3.53c3.53,3.53 3.53,3.53 3.53,7.06 -2.23,0 -4.47,1.06 -6.47,2.62 -12.86,3.12 -14.9,2.35 -17.17,6zm-143.81 700.64c1.31,0.12 1.56,0.53 1.61,2.13 -0.56,-0.48 -1.05,-1.17 -1.61,-2.13zm86.28 137.48c1.09,0.06 2.26,0.09 3.55,0.09l-3.55 0 0 -0.09zm155.07 154.55c0.21,-0.51 0.21,-1.35 0.21,-2.72 3.07,3.07 0.8,0.8 2.48,4.8l-2.69 -2.08zm5.09 3.89l9.23 -3.08c-2.5,2.5 -3.23,4.99 -3.44,7.49 -1.73,-1.37 -3.77,-2.89 -5.79,-4.41zm44.45 39.05l0 0.01 -0.01 0 0.01 -0.01zm-306.9 165.85l-3.1 0 -0.41 -0.02c0,0 0,0 0,0l-3.53 -10.58c0,0 0,0 0,0 -3.04,9.1 -0.85,5.15 2.07,10.6l-23.26 0 -7.06 10.58c3.53,3.53 3.53,3.53 3.53,10.58 0,0 -3.53,0 -3.53,0 0,0 0,0 0,0 -3.53,-3.53 -3.53,-7.06 -3.53,-10.58 0,0 0,0 0,0 0,0 0,0 0,-3.53 0,-3.53 0,-3.53 0,-7.06 0,-10.58 -3.53,-3.53 -3.53,-14.11 0,0 0,0 0,0l3.53 10.58c0,0 0,0 0,0 3.53,0 0,0 3.53,0 0,0 0,-3.53 3.53,-3.53l3.53 -7.06c-3.53,3.53 3.53,3.53 7.06,7.06l-7.06 -31.75c-3.53,-14.11 3.53,-17.64 -7.06,-24.7 -3.53,-3.53 0,-3.53 -7.06,-3.53 -3.53,0 -3.53,0 -7.06,0l-3.53 17.64c0,-7.06 0,-3.53 -3.53,-10.58 0,0 0,0 0,0 0,-3.53 0,0 0,-3.53l-3.53 -17.64c0,-3.53 0,0 -3.53,-3.53 0,-3.53 0,-7.06 0,-14.11l3.53 3.53c0,0 0,0 0,0 0,0 0,0 0,0l3.53 0c3.53,-3.53 3.53,-3.53 3.53,-10.58 0,-3.53 0,-10.58 0,-14.11 0,-3.53 0,-3.53 0,-7.06 0,-3.53 0,0 0,-3.53 0,-3.53 0,-10.58 0,-14.11 -3.53,3.53 0,0 0,3.53 0,7.06 0,10.58 0,17.64 7.06,-3.53 3.53,-7.06 3.53,-17.64 0,-7.06 0,-10.58 0,-14.11 -3.53,-10.58 0,-35.28 -3.53,-38.81 -3.53,-3.53 -7.06,-10.58 -10.58,-10.58 -7.06,0 -7.06,0 -7.06,3.53l0 7.06c0,-3.53 0,0 -3.53,-3.53 0,0 0,0 0,0l0 3.53c0,0 0,0 0,0l0 3.53c0,-7.06 -3.53,-10.58 -3.53,-14.11l-3.53 -14.11c0,0 0,0 0,-3.53 0,-3.53 0,-10.58 0,-14.11l0 -3.53c0,0 0,0 0,0 3.53,-7.06 0,-14.11 0,-21.17 0,0 -3.53,0 0,3.53l3.53 3.53c0,-10.58 0,-31.75 0,-42.34 0,0 0,0 0,0l0 -10.58c-3.53,-3.53 0,-3.53 -7.06,-3.53 0,3.53 0,7.06 0,7.06 0,0 0,0 -3.53,0 7.06,-3.53 0,-10.58 0,-10.58 -3.53,0 -3.53,-3.53 -7.06,0 0,0 0,0 0,0 -3.53,3.53 -3.53,0 0,10.58l0.03 0c-3.53,-3.53 0,0 -3.53,-3.53l0 -3.53c-10.58,0 0,0 -7.06,-3.53 0,-7.06 0,-10.58 0,-14.11l-3.53 -17.64c0,-7.06 -3.53,-7.06 0,-17.64 -3.53,0 -7.06,0 -3.53,-3.53 7.06,-3.53 -3.53,7.06 17.64,7.06 0,-14.11 -3.53,-7.06 -3.53,-17.64 0,-3.53 3.53,-17.64 0,-21.17l0 -3.53c0,0 0,0 0,0l-7.06 -7.06 -7.04 0.01c0,0 0,0 0,0 -3.53,-3.53 0,0 0,-7.06 0,-7.06 0,-14.11 -3.53,-17.64l-3.53 7.06c0,0 0,3.53 0,3.53 0,-3.53 0,-7.06 0,-7.06 0,-7.06 -3.53,-3.53 -3.53,-10.58l0 -7.06c-7.06,-7.06 -10.58,0 -14.11,-7.06 3.53,0 3.53,-7.06 0,-10.58 -3.53,-7.06 0,-17.64 -7.06,-24.7 -3.53,-3.53 0,-3.53 -7.06,-3.53l-10.58 -3.53c-10.58,-3.53 -3.53,-3.53 -10.58,-14.11l-7.06 -7.06c0,0 0,0 0,0l-3.53 0c-3.53,-3.53 -3.53,-3.53 -3.53,-7.06 -7.06,0 -3.53,-3.53 -7.06,3.53l0 -7.06 -10.58 -3.53c0,0 0,0 0,-3.53 0,0 0,0 0,0l-7.06 3.53c0,-14.11 -3.53,-21.17 -17.64,-28.22 -7.06,-3.53 0,-3.53 -7.06,-3.53l0.03 -7.04 -7.06 0c3.53,0 3.53,0 3.53,-3.53 0,-7.06 0,0 -3.53,-7.06 -7.06,-7.06 -3.53,-10.58 -17.64,-14.11 -3.53,0 -3.53,-3.53 -10.58,0l-7.06 -7.06c0,0 0,0 0,0 -3.53,-3.53 3.53,-3.53 -7.06,-7.06 -3.53,0 -3.53,-3.53 -3.53,0 0,-10.58 0,-3.53 0,-7.06 3.53,-7.06 0,-10.58 -3.53,-17.64l-3.53 -3.53c0,0 0,0 0,0l-10.52 -3.51 10.53 0 10.58 -3.53c0,0 0,0 0,0 0,0 0,0 0,0l10.58 3.53c0,0 0,0 0,0l3.53 3.53c3.53,7.06 7.06,10.58 3.53,17.64 0,3.53 0,-3.53 0,7.06 0,-3.53 0,-3.53 3.53,0 7.06,3.53 3.53,3.53 7.06,7.06 0,0 0,0 0,0l7.06 7.06c7.06,-3.53 7.06,0 10.58,0 10.58,3.53 10.58,7.06 17.64,14.11 3.53,3.53 3.53,0 3.53,7.06 0,3.53 3.53,3.53 -3.53,3.53l21.16 -0.01 0 14.11c10.58,0 0,0 7.06,3.53 14.11,7.06 17.64,10.58 17.64,28.22l7.06 -3.53c0,0 0,0 0,0 0,0 0,3.53 0,3.53l10.58 3.53 0 7.06c3.53,-7.06 0,0 7.06,-3.53 0,3.53 0,7.06 3.53,7.06l3.53 0c0,0 0,0 0,0l7.06 7.06c7.06,10.58 0,10.58 10.58,14.11l10.58 3.53c3.53,3.53 3.53,0 7.06,3.53 3.53,7.06 3.53,17.64 7.06,24.7 0,3.53 3.53,10.58 0,10.58 7.06,7.06 10.58,0 14.11,7.06l0 7.06c3.53,7.06 3.53,3.53 3.53,10.58 0,3.53 0,7.06 0,7.06 0,0 0,-3.53 0,-3.53l3.53 -7.06c3.53,3.53 3.53,10.58 3.53,17.64 -3.53,7.06 -3.53,3.53 0,7.06 0,0 0,0 0,0l7.04 -0.02 7.06 7.06c0,0 0,0 0,0l0 3.53c3.53,3.53 0,14.11 0,21.17 0,10.58 3.53,7.06 3.53,17.64 -24.7,0 -14.11,-10.58 -17.64,-7.06 -3.53,0 3.53,0 3.53,3.53 0,10.58 0,10.58 0,17.64l3.53 17.64c0,7.06 0,10.58 0,14.11 10.58,3.53 0,3.53 7.06,3.53l0 3.53c3.53,3.53 0,0 3.53,3.53l-0.02 -0.02c-3.53,-7.06 0,-7.06 0,-10.58 0,0 0,0 0,0 3.53,-3.53 3.53,0 7.06,0 3.53,3.53 7.06,7.06 0,10.58 3.53,0 3.53,0 3.53,0 0,0 0,-3.53 0,-7.06 7.06,3.53 3.53,0 7.06,3.53l0 10.58c0,0 0,0 0,0 -3.53,10.58 0,31.75 0,42.34l-3.53 -3.53c-3.53,-3.53 -3.53,-3.53 0,-3.53 0,7.06 0,14.11 0,21.17 0,0 0,0 0,0l0 3.53c0,3.53 -3.53,10.58 0,14.11 0,3.53 0,3.53 0,3.53l3.53 14.11c3.53,7.06 3.53,7.06 3.53,14.11l0 -3.53c0,0 0,0 0,0l0 -3.53c0,0 0,0 0,0 3.53,3.53 0,0 3.53,3.53l0 -7.06c0,-7.06 0,-3.53 7.06,-3.53 3.53,0 7.06,7.06 10.58,10.58 3.53,3.53 0,24.7 3.53,38.81 0,3.53 0,10.58 0,14.11 0,10.58 3.53,14.11 -3.53,17.64 -3.53,-3.53 0,-10.58 0,-17.64 0,-3.53 -3.53,0 0,-3.53 0,3.53 0,10.58 0,14.11 0,3.53 0,0 0,3.53 0,3.53 0,0 0,7.06 0,3.53 0,10.58 0,14.11 0,3.53 0,7.06 -3.53,10.58l-3.53 0c0,0 0,0 0,0 0,0 0,0 0,0l-3.53 -3.53c0,3.53 -3.53,7.06 0,14.11 0,3.53 0,0 3.53,3.53l3.53 17.64c0,3.53 0,0 0,3.53 0,0 0,0 0,0 0,7.06 3.53,3.53 3.53,10.58l3.53 -17.64c3.53,0 3.53,0 7.06,0 3.53,0 3.53,0 7.06,3.53 10.58,10.58 3.53,14.11 7.06,24.7l7.06 31.75c-3.53,0 -7.06,-3.53 -7.06,-7.06l-3.53 7.06c0,0 0,0 -3.53,3.53l-0.02 0.02zm-311.54 -642.1l-2.45 0.01c-3.53,0 -10.58,0 -14.11,0l0 7.06c-3.53,0 3.53,0 -3.53,-3.53l-7.06 -3.53c3.53,-3.53 0,-3.53 3.53,-3.53l3.53 0c0,-7.06 0,-3.53 0,-14.11l0 -3.53c0,0 0,0 0,0 0,0 -3.53,0 3.53,0 0,-7.06 0,-7.06 0,-14.11 -3.53,-10.58 -10.58,-14.11 -21.17,-14.11 0,-10.58 0,0 -3.53,-7.06l-21.17 -17.64c0,-7.06 0,-14.11 0,-21.17 0,-7.06 3.53,-10.58 0,-17.64l0 -3.53c0,-3.53 0,-10.58 0,-14.11 7.06,0 10.58,3.53 17.64,-10.58l3.53 -3.53c3.53,-14.11 7.06,-7.06 7.06,-14.11 0,0 -3.53,-3.53 0,0l3.53 0 14.11 -14.11c0,0 0,0 0,0 0,0 0,0 0,0 1.68,-1.68 6.55,-1.75 11.95,-1.38l-8.52 8.52 -3.53 0c-3.53,-3.53 0,0 0,0 0,7.06 -3.53,3.53 -7.06,14.11l-3.53 3.53c-7.06,14.11 -14.11,10.58 -17.64,10.58 0,3.53 0,10.58 0,14.11l0 3.53c3.53,7.06 0,10.58 0,17.64 -3.53,7.06 0,14.11 0,21.17l21.17 17.64c3.53,7.06 3.53,-3.53 3.53,7.06 10.58,0 17.64,0 21.17,14.11 0,3.53 0,7.06 0,14.11 -7.06,0 0,0 -3.53,0 0,0 0,0 0,0l0 3.53c-3.53,7.06 0,3.53 0,14.11l-3.53 0c-3.53,0 -3.53,0 -3.53,3.53l7.06 3.53c4.93,2.46 2.98,3.21 2.55,3.43zm25.78 -180.11l0 -10.39c0,0 0,0 0,0l0 -7.06c7.06,0 7.06,3.53 10.58,0 0,0 3.53,0 3.53,0l3.43 0 0 0.09c0,0 0,0 0,0l0 10.58 -7.06 0c-3.53,3.53 -3.53,3.53 -7.06,7.06 -0.64,0 -1.85,-0.11 -3.42,-0.28zm42.15 -24.42l0.18 -0.09 0 0c0,0 0,0 0,0 0,0 0,-3.53 3.53,-3.53 0,-3.53 0,-7.06 0,-10.58l7.06 -3.53c0,0 0,0 0,0 0,0 0,0 0,0 3.53,0 0,0 3.53,0 3.53,0 7.06,-7.06 14.11,-7.06l0.18 0.09 -0.28 0c0,0 0,0 0,0 0,0 0,0 0,0l-7.06 3.53c0,3.53 0,7.06 0,10.58 0,0 0,3.53 -3.53,3.53 0,0 0,0 0,0l0 0c-3.53,3.53 -3.53,3.53 -10.58,7.06l-3.53 0 -3.61 0zm29.48 -24.7c0.6,-0.06 1.41,-0.09 2.45,-0.09l-0.09 0.09 -2.36 0zm13.05 -8.01l0 -2.67 3.53 0c3.53,0 0,0 3.53,0 4.73,-2.36 7.86,-1.56 10.48,-0.78l0 0.87c0,0 0,3.53 -3.53,3.53 0,0 0,0 0,0 0,0 0,0 0,0 0,0 0,0 0,0 -3.53,0 0,0 -3.53,0l-3.53 0c-7.06,-3.53 7.06,0 -3.53,0 -1.24,-0.62 -2.38,-0.91 -3.42,-0.95zm42.27 -10.39l1.36 -0.82c-0.4,0.3 -0.85,0.58 -1.36,0.82zm5.97 -3.58l4.68 -2.81c-3.53,-10.58 0,0 0,-10.58l3.53 0c0,0 0,0 0,0l10.58 0c0,0 0,0 0,0 0,0 0,0 0,0 0,0 0,0 0,0 0,0 0,0 0,0l3.17 -3.17c-0.75,3.75 -2.66,-1.97 0.26,6.78l-17.64 10.58c0,0 0,0 0,0 0,0 0,0 -3.53,0 -0.39,-0.39 -0.73,-0.65 -1.05,-0.8zm22.09 -17.37c-3.45,-6.61 -6.68,-6.61 0.23,-6.61 0,-14.11 -3.53,-14.11 -3.53,-21.17 -3.53,3.53 3.53,3.53 7.06,3.53 0,-10.58 0,0 0,-3.53 0,-3.53 0,-3.53 0,-7.06 0,0 0,0 0,0l3.53 -3.53c0,0 0,0 0,0 0,0 0,0 0,0 0,0 0,0 0,0l0 0c10.58,0 7.06,-3.53 7.06,-7.06 3.53,-7.06 -3.53,3.53 0,-3.53 3.53,-3.53 3.53,-3.53 7.06,-3.53 0,0 3.53,0 3.53,0l0 -10.58 10.58 0c0,0 3.53,0 3.53,0 0,0 0,0 0,0l3.43 -3.43 0 7.04c0,0 -3.53,0 -3.53,0 -3.53,0 -3.53,0 -7.06,3.53 -7.06,7.06 0,-3.53 0,3.53 0,3.53 3.53,7.06 -7.06,7.06l0 0c0,0 0,0 0,0 0,0 0,0 0,0 0,0 0,0 0,0l-3.53 3.53c0,0 0,0 0,0 0,3.53 0,3.53 0,7.06 3.53,7.06 0,-3.53 0,3.53 -3.53,0 -10.58,0 -7.06,-3.53 0,10.58 3.53,10.58 3.53,21.17 -7.06,0 -3.53,0 0,7.06l-3.53 3.53c0,0 0,0 0,0 0,0 0,0 0,0 0,0 0,0 0,0 0,0 0,0 0,0l-10.58 0c0,0 0,0 0,0l-3.53 0c0,1.28 -0.04,2.26 -0.13,2.99zm48.5 -70.04c1.14,-2.66 1.14,-5.84 1.14,-10.67 3.53,0 -3.53,3.53 3.53,0 7.06,0 7.06,-3.53 10.58,-7.06 7.06,-7.06 7.06,-10.58 7.06,-21.17 0,-7.06 0,-3.53 0,-7.06 0,0 0,-3.53 0,-7.06 -3.53,3.53 0,0 0,3.53 0,0 0,0 0,0 3.53,-3.53 7.06,-3.53 7.06,-10.58 0,-3.53 0,-3.53 0,-3.53 -3.53,3.53 0,0 0,3.53 3.53,-3.53 3.53,0 3.53,-7.06 3.53,-3.53 0,0 3.53,-3.53l3.53 -10.58c-3.53,3.53 -3.53,0 0,0 0,0 3.53,0 3.53,0 0,0 0,0 0,0 0,0 0,0 0,0l3.53 -3.53c0,0 0,0 0,0 3.53,-3.53 -3.53,3.53 3.53,0 6.67,-3.33 0.74,-3.52 6.01,-3.53 0.28,0.06 0.59,0.09 0.94,0.09l-3.53 10.58c-3.53,7.06 0,0 -3.53,3.53 -3.53,3.53 0,3.53 -3.53,7.06 -3.53,-3.53 -3.53,-3.53 0,-3.53 0,3.53 0,3.53 0,3.53 0,7.06 -7.06,7.06 -7.06,10.58 0,0 0,0 0,0 -3.53,-3.53 -3.53,-3.53 0,-3.53 0,3.53 0,7.06 0,7.06 0,3.53 0,0 0,7.06 0,10.58 0,14.11 -7.06,21.17 -3.53,3.53 -3.53,7.06 -10.58,7.06 -10.58,3.53 0,0 -3.53,0 0,3.53 0,10.58 -3.53,14.11 -7.06,7.06 0,-3.53 -3.53,0l-3.53 3.53c0,0 0,0 0,0 0,0 -3.53,-3.53 -3.53,0l-4.56 0zm57.41 -88.3l0.2 0c-3.53,-14.11 -3.53,-10.58 -3.53,-24.7l3.53 0c0,0 0,0 0,0l7.06 0c3.53,-3.53 0,3.53 0,-3.53 0,-3.53 -3.53,-3.53 0,-3.53 0,0 3.53,3.53 3.53,3.53 2.63,2.63 1.34,1.35 3.43,1.98 0.04,10.82 0.42,6.88 3.52,19.28 -7.06,0 0,0 -7.06,3.53 -7.06,3.53 0,0 -3.53,0 0,0 0,0 0,0l-3.53 3.53c0,0 0,0 0,0 0,0 0,0 0,0 0,0 -3.53,0 -3.53,0l-0.09 -0.09zm24 -31.67c0.27,-0.06 0.57,-0.09 0.89,-0.09l-0.09 0.09 -0.8 0zm1.43 -0.35l0.92 -0.46c-0.1,0.31 -0.53,0.78 -0.92,0.46zm4.12 -1.97c3,-1.29 4.42,-1.3 9.46,-1.3l-3.62 3.62 0 0c0,0 0,0 0,0 -5.94,-2.97 -4.39,-0.95 -5.84,-2.32zm9.47 -1.31l0 -7.05c3.53,-14.11 0,-7.06 0,-14.11l0 -3.53c0,0 0,0 0,0 0,0 0,0 0,0 3.53,-3.53 3.53,-7.06 7.06,-7.06 12.54,0 11.15,-2.79 13.16,-3.41 -0.66,1.07 -1.47,2.29 -2.68,3.5 0,0 0,0 0,0 0,0 0,0 0,0l0 3.53c0,10.58 3.53,3.53 0,14.11 0,3.53 0,3.53 0,7.06 -7.06,-3.53 -7.06,0 -14.11,3.53l-3.43 3.43zm28.24 -38.82c3.53,-3.52 10.57,0 10.57,-10.57 0,-7.06 3.53,-3.53 -3.53,-7.06l3.53 -3.53c3.53,0 3.53,0 7.06,3.53 3.53,-3.53 3.53,-3.53 3.53,-7.06 0,-7.06 0,0 0,-7.06l10.58 -3.53c3.5,3.5 3.53,6.99 6.96,0.2l0 3.42c0,3.53 -3.53,7.06 -3.53,7.06 -3.53,0 -3.53,-3.53 -7.06,-3.53l-3.53 3.53c3.53,0 3.53,0 3.53,7.06 0,7.06 -7.06,7.06 -10.58,10.58l-7.06 3.53c-3.19,0 -0.62,2.87 -10.47,3.43zm40.35 -39.27c0.15,-3.5 -1.55,-7.66 -1.55,-10.12 0,0 8.69,1.73 17.54,1.55l0 5.59c-3.53,7.06 -7.06,3.53 -7.06,0l-8.93 2.98zm57.51 -20.62c7.64,-2.94 8.84,-2.51 10.91,-0.5 -0.38,0.28 -1.26,0.5 -3.03,0.5 0,0 -3.53,0 -7.06,0l-0.82 0zm11.42 0c2.43,0 -0.16,-1.68 -0.86,-1.56 0.35,0.07 0.94,0.62 0.37,1.04l0.05 0.07 0.01 0 0.12 0.14zm-737.03 2582.75c0,3.53 -3.53,3.53 -3.53,10.58 9.69,6.47 28.26,-1.86 31.32,7.53 -3.09,3.37 -3.09,6.59 -3.09,6.59l0.01 1.62c-7.2,6.72 -21.84,9.6 -24.71,12.48 -3.53,3.53 -3.53,7.06 0,14.11 20.54,5.14 33.62,-10.28 48.73,-5.45 1.54,3.96 3.13,5.46 7.72,5.46 -3.53,3.53 0,7.06 3.53,10.58 3.53,7.06 0,3.53 7.06,10.58 10.58,14.11 10.58,10.58 14.11,14.11l0 10.58c0,7.06 10.58,10.58 14.11,17.64 3.53,3.53 3.53,7.06 3.53,10.58l21.17 24.7c3.53,7.06 7.06,10.58 14.11,14.11 10.58,-3.53 28.22,-24.7 31.75,-38.81 0,-3.53 3.53,-10.58 3.53,-14.11 3.53,-3.53 7.06,-3.53 7.06,-10.58 3.53,-7.06 0,-10.58 7.06,-28.22 7.06,-14.11 3.53,-17.64 7.06,-28.22 3.53,-10.58 7.06,-17.64 7.06,-24.7 0,-14.11 14.11,-45.86 21.17,-49.39 17.64,-3.53 10.58,28.22 7.06,35.28 -3.53,14.11 -3.53,28.22 -3.53,42.34 -3.53,21.17 -7.06,35.28 -14.11,56.45 -3.53,7.06 -7.06,7.06 -7.06,14.11 -3.53,10.58 -10.58,24.7 -14.11,31.75 -10.58,17.64 -28.22,35.28 -49.39,45.86 -10.58,7.06 -14.11,10.58 -24.7,10.58l-10.58 0c-3.53,-10.58 0,0 -3.53,-14.11 0,-3.53 0,-7.06 -3.53,-10.58 -3.53,-10.58 0,-14.11 -3.53,-21.17 -3.53,-7.06 -10.58,-21.17 -17.64,-35.28 -3.53,-3.53 -7.06,-7.06 -10.58,-14.11 -7.06,-14.11 -14.11,-14.11 -24.7,-28.22 -14.11,-14.11 -14.11,-14.11 -31.75,-7.06 -3.53,3.53 -10.58,3.53 -17.64,7.06 -10.58,3.53 -24.7,7.06 -28.22,17.64 -3.53,14.11 -3.53,28.22 7.06,35.28 10.58,7.06 24.7,7.06 28.22,17.64 7.06,17.64 0,31.75 0,42.34 0,14.11 -10.58,24.7 -14.11,31.75 -17.64,21.17 -24.7,42.34 -49.39,45.86 0,-21.17 7.06,-42.34 14.11,-59.97 0,-7.06 7.06,-24.7 7.06,-28.22 0,-7.06 -7.06,-10.58 -10.58,-28.22 -3.53,0 -3.53,-7.06 -14.11,-3.53 -7.06,3.53 -24.7,21.17 -42.34,21.17 -24.7,3.53 -31.75,0 -52.92,-10.58 -7.06,-3.53 -7.06,-7.06 -14.11,-10.58 -17.64,0 -28.22,21.17 -28.22,38.81 0,17.64 3.53,52.92 -3.53,63.5 -10.58,3.53 -17.64,-3.53 -28.22,-7.06 -7.06,-3.53 -14.11,-10.58 -17.64,-17.64 -14.11,-21.17 -10.58,-45.86 -10.58,-56.45 -1.12,-4.47 -1.53,-8.59 -1.34,-12.47 0.19,2.66 0.6,5.6 1.26,8.92 3.53,-3.53 3.53,-14.11 7.06,-24.7 17.64,-52.92 35.28,-28.22 28.22,-59.97 -3.53,-3.53 -3.53,-7.06 -10.58,-10.58 -3.53,-3.53 -14.11,-3.53 -14.11,-3.53 -17.64,0 -24.7,-3.53 -42.34,-10.58 -14.11,-3.53 -24.7,-7.06 -21.17,-28.22 7.06,-3.53 28.22,-3.53 35.28,0 10.58,7.06 14.11,14.11 31.75,3.53 0,-10.58 -3.53,-14.11 -7.06,-17.64 -14.11,-17.64 -10.58,-52.92 -3.53,-59.97l0 0c0,-3.53 7.06,-21.17 7.06,-24.7 0,-3.53 0,-10.58 -3.53,-10.58 -3.53,-3.53 -7.06,-3.53 -10.58,-7.06 -3.53,-3.53 0,-14.11 -14.11,-14.11 -7.06,0 -10.58,7.06 -17.64,10.58 -21.17,10.58 -14.11,10.58 -24.7,17.64 -3.53,3.53 -7.06,3.53 -7.06,3.53 -10.58,7.06 -17.64,17.64 -31.75,28.22 -21.17,14.11 -14.11,24.7 -31.75,21.17 -3.48,-7.06 10.63,-17.64 17.68,-31.75l0 0 -7.06 3.53c0,-7.06 0,-3.53 -3.53,0 -3.53,3.53 7.06,0 -3.53,3.53 -7.06,0 -3.53,0 -7.06,-3.53 0,14.11 0,0 -3.53,10.58l-3.53 7.06c-3.53,3.53 0,3.53 -3.53,10.58l0 3.53c0,3.53 0,3.53 -10.58,3.53 0,0 0,-3.53 -7.06,7.06l-3.53 3.53c0,0 0,-3.53 0,-3.53l0 0c0,0 0,0 0,0 -3.53,0 0,10.58 0,14.11 0,0 0,0 -3.53,0 -7.06,0 0,0 0,0 0,0 0,0 0,3.53 0,3.53 7.06,0 -7.06,7.06 -7.06,3.53 -3.53,3.53 -10.58,3.53 0,7.06 0,0 0,3.53l3.53 3.53c0,3.53 0,10.58 0,21.17 7.06,0 3.53,3.53 7.06,0l0 0c0,21.17 3.53,10.58 10.58,17.64 3.53,3.53 3.53,3.53 0,10.58 -7.03,-0.07 -14.01,-7.03 -14.01,0 3.53,-7.06 0,-7.06 0,-10.58 -7.06,-7.06 -7.06,0 -10.58,-17.64l0 0c-3.53,3.53 0,0 -7.06,0 0,-10.58 0,-21.17 0,-21.17l-3.53 -3.53c0,-3.53 0,3.53 0,-3.53 7.06,0 7.06,0 10.58,-3.53 10.58,-7.06 7.06,-3.53 7.06,-7.06 0,0 0,0 0,-3.53 0,0 -7.06,0 0,0 3.53,0 3.53,0 3.53,0 0,-7.06 -3.53,-14.11 0,-14.11 0,0 0,0 0,0l0 0c0,0 0,0 0,3.53l3.53 -3.53c7.06,-10.58 7.06,-7.06 7.06,-7.06 10.58,-3.53 10.58,-3.53 10.58,-3.53l0 -3.53c3.53,-7.06 0,-3.53 3.53,-10.58l3.53 -7.06c7.06,-10.58 3.53,3.53 3.53,-10.58 3.53,3.53 -3.53,3.53 7.06,3.53 10.58,0 3.53,0 3.53,-3.53 3.53,-3.53 3.53,-7.06 3.53,0l7.06 -3.53c3.53,0 0,0 3.53,-3.53 0,0 0,0 3.53,-3.53 3.53,-3.53 3.53,-3.53 3.53,-7.06l56.45 -38.81c17.64,-17.64 14.11,-7.06 21.17,-17.64 3.53,-7.06 10.58,-17.64 21.17,-17.64 7.06,0 24.7,21.17 31.75,28.22 7.06,7.06 14.11,24.7 24.7,31.75 7.06,-3.53 3.53,-7.06 7.06,-14.11 10.58,-24.7 10.58,-21.17 14.11,-28.22 3.53,-7.06 0,-10.58 -3.53,-14.11 -3.53,-7.06 -3.53,-7.06 -7.06,-14.11l-21.17 -38.81c-3.53,-3.53 -7.06,-7.06 -7.06,-14.11 -3.53,-10.58 -7.06,-21.17 -14.11,-28.22 -7.06,-7.06 -3.53,-3.53 -7.06,-14.11 -3.53,-17.64 -17.64,-21.17 -21.17,-63.5 -7.06,-10.58 -14.11,-45.86 -14.11,-63.5 0,-24.7 7.06,-81.13 14.11,-102.3 3.53,-7.06 3.53,-10.58 3.53,-14.11l17.64 -42.34c7.06,-7.06 3.53,-3.53 7.06,-14.11 0,-3.53 3.53,-10.58 7.06,-10.58l3.53 -14.11c3.53,-10.58 7.06,-10.58 14.11,-21.17 3.53,-3.53 3.53,-7.06 7.06,-10.58 7.06,-10.58 10.58,-24.7 17.64,-31.75 7.06,-7.06 3.53,-7.06 7.06,-10.58 0,-7.06 7.06,-10.58 14.11,-10.58 14.11,3.53 7.06,10.58 59.97,10.58 31.75,0 31.75,-7.06 59.97,-10.58 10.58,0 3.53,-7.06 14.11,-7.06 31.64,7.04 17.53,31.73 24.59,42.32l0 0c3.53,7.06 7.06,7.06 7.06,10.58 14.11,3.53 31.75,28.22 38.81,42.34 14.11,28.22 17.64,35.28 24.7,67.03 0,7.06 7.06,17.64 3.53,31.75 0,3.53 3.53,-3.53 3.53,10.58 0,14.11 3.53,3.53 3.53,35.27 0,10.58 3.53,14.11 3.53,24.7l-7.06 45.86c-3.53,17.64 -3.53,38.81 -7.06,45.86 -3.53,10.58 -3.53,28.22 -10.58,42.34 -7.06,17.64 -7.06,28.22 -10.58,31.75 0,3.53 -3.53,3.53 -3.53,7.06 -3.53,10.58 0,10.58 -7.06,17.64 -7.06,7.06 -3.53,10.58 -7.06,17.64 -3.53,7.06 -7.06,10.58 -10.58,14.11 -3.53,7.06 -7.06,7.06 -10.58,14.11 -3.53,3.53 -7.06,10.58 -14.11,14.11 -7.06,10.58 -24.7,10.58 -14.11,31.75 3.53,7.06 7.06,10.58 7.06,17.64 3.53,7.06 3.53,10.58 10.58,17.64 14.11,3.53 10.58,-3.53 17.64,-3.53 3.53,-3.53 0,0 3.53,-3.53 0,0 0,0 0,0 3.53,-3.53 0,0 3.53,-3.53 7.06,0 7.06,-10.58 14.11,-14.11 3.53,-3.53 10.58,-7.06 14.11,-10.58 10.58,-7.06 35.28,-3.53 45.86,0 14.11,3.53 21.17,17.64 38.81,28.22 3.53,3.53 3.53,3.53 7.06,7.06 17.64,14.11 17.64,7.06 24.7,3.53 10.58,-7.06 3.53,-14.11 10.58,-24.7 7.06,-10.58 10.58,-21.17 10.58,-35.28 3.53,-31.75 7.06,-56.45 3.53,-91.73 0,-3.53 -3.53,-10.58 -7.06,-14.11 -10.58,-28.22 10.58,-24.7 14.11,-21.17l17.64 24.7c3.53,10.58 3.53,7.06 10.58,10.58 24.7,24.7 3.53,45.86 3.53,67.03 -7.06,7.06 0,7.06 -7.06,14.11 -3.53,3.53 -3.53,7.06 -7.06,10.58 -3.53,3.53 0,7.06 -3.53,14.11 -14.11,24.7 -10.58,24.7 -17.64,35.28 -10.58,14.11 -3.53,7.06 -10.58,17.64 0,3.53 0,0 0,3.53l0 3.21c-4.82,6.42 -7.7,19.27 -10.59,25.04 -14.11,0 -24.7,3.53 -31.75,-10.58l-14.11 -17.64c-14.11,-14.11 -14.11,-17.64 -35.28,-17.64 -10.58,0 -17.64,0 -24.7,7.06l-14.11 7.04 0 0c-3.53,0 -10.58,7.06 -14.11,10.58 -3.53,3.53 -7.06,3.53 -7.06,7.06 -3.53,3.53 0,3.53 -3.53,7.06 -3.53,17.64 21.17,3.53 21.17,3.53 28.22,-14.11 52.92,-3.53 81.14,10.58 7.06,3.53 7.06,7.06 17.64,17.64 3.53,3.53 14.11,24.7 28.22,10.58 3.53,-3.53 3.53,-7.06 3.53,-14.11 0,-7.06 3.53,-7.06 7.06,-10.58 3.53,-3.53 3.53,-10.58 3.53,-14.11l-3.53 0c0,0 0,0 0,0 0,0 0,0 0,0 0,0 0,0 0,0l0 -0.03 0.01 0c3.53,-3.53 3.53,-7.06 14.11,-7.06 3.53,17.64 0,28.22 -7.06,42.34 -14.11,35.28 -3.53,24.7 -7.06,38.81 -14.11,7.06 -21.17,0 -28.22,-7.06 -7.06,-7.06 -10.58,-3.53 -24.7,-17.64 -3.53,-3.53 -7.06,-7.06 -10.58,-10.58 -10.58,-7.06 -21.17,-24.7 -31.75,-31.75l-14.11 7.06 -5.46 5.46c-4.62,1.76 -5.63,2.39 -19.25,5.12 -10.58,3.54 -17.63,3.54 -24.69,10.6l0 0zm32.19 14.11c0.44,-1.77 1.33,-3.53 3.09,-3.53 3.53,-3.53 0,0 3.53,-3.53 0,0 7.06,0 10.58,0 0,0 0,0 0,0 0,0 0,0 0,0l-3.53 -3.53c-3.53,-3.53 -7.06,0 0,-7.06l1.76 -3.52 1.78 0 14.11 10.58c3.53,3.53 14.11,10.58 17.64,17.64 17.64,21.17 28.22,17.64 28.22,42.34 -21.17,-3.53 -45.86,-31.75 -59.97,-45.86 -7.06,-7.06 -7.06,-3.53 -7.06,-3.53l-10.15 0zm115.98 -1894.49l0 0c3.53,-3.53 7.94,-5.29 12.35,-6.18 -0.55,0 -1.12,0.04 -1.68,0.12 2.07,0.31 4.27,1.15 6.99,2.51l1.1 -1.1c0.76,0.32 1.57,0.69 2.42,1.12l3.52 -3.52c7.06,17.63 -3.53,21.16 -7.06,31.74 -3.53,7.06 0,7.06 -7.06,7.06 -14.11,7.06 -31.75,7.06 -52.92,7.06 -1.56,-9.36 -1.74,-14.58 -0.54,-18.1 5.15,-1.6 8.14,-7.13 11.13,-10.12l0.03 -0.01 3.51 0c2.98,0 3.44,0 3.52,-2.12 7.77,-2.82 10.61,-5.64 24.69,-8.46zm-384.54 -1153.63l21.17 0c0,21.17 -3.53,59.97 0,77.61 3.53,17.64 0,52.92 3.53,77.61 3.53,17.64 0,59.97 0,81.14 0,24.7 0,52.92 3.53,81.14 3.53,49.39 0,112.89 0,165.81 0,56.45 0,112.89 0,165.81 0,28.22 0,56.45 0,84.67 0,17.64 -7.06,63.5 -3.53,77.61 7.06,0 17.64,0 28.22,0 10.58,0 14.11,3.53 24.7,3.53 10.58,3.53 14.11,3.53 24.7,10.58 7.06,7.06 14.11,7.06 24.7,10.58 10.58,3.53 3.53,7.06 24.7,10.58 35.28,10.58 28.22,0 35.28,24.7 3.53,7.06 7.06,7.06 10.58,17.64 10.58,28.22 -3.53,31.75 -3.53,45.86 16.48,7.06 25.1,-1.58 34.25,-4.97l1.02 -2.03 0 1.67c4.25,-1.37 8.68,-1.46 14.12,1.8 14.11,7.06 -3.53,10.58 14.11,49.39 3.53,10.58 7.06,14.11 10.58,21.17 3.53,3.53 3.53,3.53 7.06,7.06 7.06,7.06 0,3.53 10.58,7.06 3.53,3.53 14.11,7.06 17.64,14.11 7.06,10.58 -3.53,17.64 0,24.7 0,17.64 3.53,52.92 14.11,63.5 7.06,7.06 7.06,3.53 10.58,14.11 3.53,10.58 17.64,21.17 28.22,7.06 3.53,-7.06 3.53,-38.81 7.06,-42.34 7.06,-10.58 14.11,-3.53 21.17,0 14.11,3.53 63.5,7.06 70.56,17.64l-10.71 0 0.12 0.02c7.05,0 10.58,0 14.11,0 7.05,0 10.58,14.11 10.58,21.17 0,14.11 0,17.64 -3.53,28.22 -3.53,17.64 -10.58,7.06 -14.11,21.17 -3.52,7.06 -7.05,17.64 -10.58,21.17l0 0 -11.43 5.73c-8.52,18.43 -39.1,11.89 -69.68,11.89 -17.64,0 -21.17,-3.53 -24.7,3.53 0,0 -3.53,3.53 -3.53,7.06 -3.53,3.53 -3.53,3.53 -3.53,7.06 -3.53,3.53 -7.06,38.81 -3.53,42.34 0,0 67.03,-7.06 84.67,0 7.06,3.53 38.81,14.11 42.34,10.58 3.53,3.53 3.53,3.53 7.06,7.06 17.64,7.06 28.22,10.58 38.81,17.64l31.75 17.64c7.06,3.53 7.06,7.06 14.11,10.58 14.11,10.58 21.17,10.58 28.22,21.17 7.06,10.58 7.06,3.53 14.11,10.58 3.53,3.53 3.53,3.53 7.06,7.06 3.53,3.53 3.53,3.53 7.06,3.53 17.64,14.11 10.58,10.58 28.22,21.17 17.64,7.06 0,7.06 28.22,21.17 7.06,3.53 24.7,10.58 28.22,17.64 7.06,17.64 14.11,35.28 21.17,52.92 3.53,7.06 3.53,14.11 3.53,21.17 7.06,14.11 0,21.17 10.58,38.81 7.06,14.11 0,24.7 10.58,38.81 7.06,10.58 7.06,3.53 7.06,17.64 0,10.58 14.11,45.86 14.11,56.45 7.06,17.64 17.64,35.28 24.7,49.39 3.53,7.06 0,10.58 14.11,10.58 0,-14.11 -14.11,-35.28 -17.64,-52.92 -3.53,-10.58 -3.53,-10.58 -3.53,-21.17l-10.58 -42.34c-3.53,-21.17 -7.06,-28.22 -10.58,-45.86 -3.53,-17.64 -3.53,-35.28 -7.06,-49.39 0,-7.06 -3.53,-17.64 -3.53,-24.7 0,-10.58 0,-14.11 -3.53,-24.7 -3.53,-17.64 -10.58,-28.22 -7.06,-45.86 0,-10.58 -7.06,-35.28 -10.58,-45.86l-3.53 -21.17c0,-10.58 0,-14.11 -3.53,-24.7 -3.53,-7.06 -7.06,-10.58 -7.06,-17.64 -10.58,-35.28 -3.53,-14.11 -14.11,-42.34 -3.53,-7.06 -7.06,-10.58 -10.58,-21.17 -7.06,-21.17 -10.58,-21.17 -17.64,-35.28 -3.53,-10.58 -3.53,-7.06 -10.58,-14.11 -3.53,-3.53 -3.53,-10.58 -10.58,-17.64 -10.58,-10.58 -17.64,-17.64 -28.22,-28.22 -7.06,-7.06 -7.06,-10.58 -14.11,-14.11l-21.17 -21.17c-3.53,-3.53 -7.06,-3.53 -10.58,-3.53 -7.06,-7.06 3.53,0 -14.11,-14.11 -7.06,-3.53 -7.06,-7.06 -14.11,-14.11l-31.75 -24.7c-7.06,-3.53 -10.58,-10.58 -14.11,-14.11l-28.22 -24.7c-3.53,-3.53 -7.06,-10.58 -10.58,-14.11l-35.28 -42.34c-3.53,-3.53 -3.53,-3.53 -3.53,-7.06 -3.53,-3.53 -3.53,-3.53 -7.06,-7.06 0,-3.53 -3.53,-14.11 -7.06,-21.17 -10.58,-28.22 0,-59.97 14.11,-81.14 3.53,-7.06 7.06,-7.06 14.11,-10.58 3.53,-7.06 7.06,-7.06 14.11,-10.58 7.06,-3.53 10.58,-3.53 14.11,-10.58 3.53,-3.53 14.11,-7.06 17.64,-10.58 3.53,0 17.64,-3.53 21.17,-7.06l17.64 -7.06c17.64,-3.53 35.28,-14.11 49.39,-21.17 17.64,-7.06 10.58,-7.06 21.17,-10.58 7.06,-3.53 21.17,-7.06 21.17,-10.58 7.06,-3.53 31.75,-24.7 35.28,-31.75 3.53,-3.53 3.53,-3.53 7.06,-7.06 3.53,-3.53 10.58,-7.06 10.58,-14.11 7.06,-3.53 14.11,-10.58 17.64,-21.17 3.53,-7.06 10.58,-17.64 14.11,-24.7 7.06,-7.06 14.11,-14.11 17.64,-21.17 7.06,-10.58 10.58,-14.11 14.11,-24.7 7.06,-7.06 10.58,-14.11 17.64,-21.17 3.53,-3.53 3.53,-7.06 7.06,-10.58 3.53,-3.53 7.06,-7.06 7.06,-10.58 3.53,-3.53 7.06,-7.06 10.58,-10.58 7.06,-7.06 3.53,-7.06 7.06,-14.11 17.64,-24.7 24.7,-24.7 38.81,-38.81 3.53,-3.53 3.53,-7.06 7.06,-10.58l7.06 -7.06c3.53,-3.53 0,0 0,-3.53 7.06,-3.53 14.11,-10.58 17.64,-14.11 3.53,-3.53 14.11,-10.58 14.11,-14.11 7.06,-3.53 14.11,-10.58 21.17,-14.11 14.11,-7.06 14.11,-10.58 24.7,-14.11 7.06,-3.53 14.11,-7.06 24.7,-10.58 7.06,-3.53 21.17,-3.53 24.7,-7.06 21.17,-3.53 24.7,-7.06 56.45,-7.06 7.06,0 7.06,0 10.58,0 7.06,0 17.64,0 24.7,0 0,17.64 -3.53,10.58 -10.58,24.7 -3.53,10.58 -14.11,24.7 -17.64,31.75 -3.53,7.06 -7.06,17.64 -10.58,21.17l-1.22 1.23 1.14 2.28c-1.13,0 -2.22,0.07 -3.27,0.2 -0.95,1.35 -1.83,3.11 -3.71,6.87 -3.53,14.11 -7.06,10.58 -10.58,21.17l-4.34 12.14c3.12,2.07 0.73,2.59 0.73,5.5l-3.53 10.58c0,0 0,0 0,0l0 10.58c0,3.53 0,0 0,3.53 -3.86,0 -6.31,0 -8.04,0.17l-2.46 6.89c-3.53,7.06 -7.06,17.64 -10.58,24.7 -3.53,3.53 -7.06,14.11 -7.06,21.17l-0.97 2.9c-0.04,3.17 0.81,5.88 4.41,7.68 -2.85,-2.85 -5.7,1.24 -8.56,4.76l-1.94 5.83c-3.53,10.58 0,10.58 -7.06,21.17l-0.64 1.28c0.57,1.92 0.57,3.85 0.57,5.77 -1.79,0.45 -3.13,0.9 -4.13,1.34l-6.38 12.78c-7.06,3.53 -17.64,38.81 -24.7,49.39l-17.64 31.75c-2.38,4.77 -4.77,7.92 -7.15,11.64l0 2.36 -1.47 0.03c-0.65,1.12 -1.31,2.3 -1.96,3.61 -3.53,7.06 -3.53,10.58 -7.06,17.64 -3.53,10.58 -7.06,10.58 -10.58,14.11 -3.53,7.06 -3.53,10.58 -7.06,17.64 -1.42,2.13 -2.7,4.4 -3.86,6.73l0.24 0.24 -0.43 0.15c-2.83,5.74 -4.98,11.81 -6.88,16.89 0.12,1.45 0.25,2.85 0.25,4.13 -0.3,-0.89 -0.61,-1.63 -0.95,-2.24 -0.85,2.24 -1.67,4.23 -2.48,5.85 -3.53,7.06 -3.53,7.06 -7.06,17.64 -3.53,10.58 -7.06,7.06 -10.58,14.11 0,3.53 0,7.06 -3.53,10.58 0,0.35 -0.03,0.7 -0.1,1.04l0 5.95c0,0 0,0 0,0l-7.06 14.11c0,7.05 3.53,21.16 0,28.22l0 7.06c0,7.05 0,7.05 3.53,10.58 3.53,-3.53 3.53,0 3.53,-3.53 0,-3.53 0,0 0,-3.53 0,0 0,-3.53 0,-3.53 0,7.05 0,7.05 0,10.58l0 14.11c0,3.53 0,3.53 3.53,7.06 0,3.53 -3.53,0 -3.53,3.53 -3.53,3.53 -3.53,7.06 -3.53,17.64l0 17.64c0,0 0,0 0,0 3.52,7.06 3.52,7.06 10.58,7.06l0 7.06c3.53,7.06 3.53,0 -3.53,0 -7.06,3.53 0,0 -3.53,3.53 0,3.53 0,10.58 0,14.11 0,3.53 -3.53,7.05 0,14.11 0,1.32 0.01,2.64 0.19,3.77l1.22 2.61c0.5,0.43 1.19,0.68 2.12,0.68 -0.5,0.5 -0.94,0.86 -1.31,1.12 5.95,13.26 19.99,46.23 26.1,55.39 3.53,3.53 3.53,7.06 7.06,14.11 1.02,2.55 2.11,4.95 3.26,7.23 0.18,-1.12 0.18,-2.43 0.18,-3.73l3.53 0c0,0 0,0 3.53,3.53 3.52,0 7.05,3.53 10.58,7.06 0,0 0,0 0,0 0,0 0,3.53 0,3.53 0,3.52 0,7.05 0,10.58 7.06,0 0,0 7.06,0 -3.53,3.53 0,7.06 0,7.06 0,3.53 3.53,3.53 3.53,3.53 -3.53,3.53 -3.53,0 -3.53,3.53l-0.55 1.09c1.52,3.04 3.14,5.98 7.69,5.98 10.58,21.17 7.06,10.58 17.64,24.7 7.06,7.06 10.58,17.64 17.64,24.7 7.06,7.06 14.11,17.64 17.64,21.17 3.53,7.06 10.58,17.64 17.64,24.7 10.58,10.58 21.17,24.7 28.22,31.75 3.53,3.53 7.06,7.06 10.58,10.58 3.53,3.53 7.06,7.06 10.58,10.58 3.53,7.06 3.53,7.06 10.58,10.58 7.06,7.06 17.64,10.58 21.17,21.17 3.53,7.06 7.06,7.06 10.58,14.11 3.53,3.53 7.06,10.58 14.11,10.58 3.53,10.58 14.11,14.11 17.64,21.17 7.06,7.06 10.58,10.58 17.64,21.17 3.53,7.06 3.53,3.53 10.58,10.58 3.53,3.53 7.06,7.06 10.58,10.58 2.8,2.8 5.6,3.39 8.39,7.02l2.15 0.06c0,-14.11 -7.05,-10.59 -10.58,-21.17 0,0 0,0 0,0 0,0 0,0 0,0 -3.53,3.53 3.53,0 -3.53,0 3.53,0 3.53,0 3.53,-3.53 3.53,7.06 3.53,0 3.53,7.06l10.58 -3.53c-3.53,3.52 -3.53,7.05 -3.53,10.58 7.06,0 3.53,0 7.06,3.53 0,0 0,0 0,0 14.11,10.58 10.59,3.52 21.17,10.58l3.53 3.53c0,0 0,0 0,0 0,0 0,0 0,0 3.53,0 0,3.52 0,10.58 7.06,0 7.06,0 7.06,7.06l-3.57 -0.02 0 -7.06 -7.06 -3.53c0,0 0,0 0,0l-14.11 0c-2.84,0 -4.54,0 -5.78,0.23 2.57,2.43 3.91,2.27 8.1,6.53l1.21 0.3c0,0 0,0 3.53,0 -1.43,0.72 -2.43,1.15 -3.11,1.43 1.65,1.8 3.66,4.2 6.2,7.43 4.57,2.33 8.61,6.37 11.02,8.78 3.53,7.06 0,3.53 7.06,7.06 3.53,3.53 0,3.53 3.53,7.06l3.38 3.38 0.21 0.14 0.62 0.64c2.87,2.45 3.09,-0.39 6.38,2.9 0,3.53 3.53,3.53 3.53,3.53l0 0c7.06,0 7.06,0 7.06,3.53 0,0 0,0 0,0 0,0 0,0 0,0l3.53 3.53c0,3.52 3.53,7.05 7.06,10.58 3.52,0 3.52,0 10.58,0 -7.06,0 -7.06,-3.53 -7.06,3.53 0,7.05 10.58,14.11 14.11,14.11l3.53 0c-7.06,3.53 -3.53,0 -3.53,7.06 10.59,3.53 3.53,0 7.06,3.53 3.53,3.53 0,0 3.53,7.06 3.53,3.52 0,7.05 3.53,10.58 3.53,3.53 0,0 3.53,7.06 0,1.33 0,3.17 0.57,5.31 2.84,3.49 6.14,7.66 9.61,12.06l0.4 0.27c0,0 0,0 0,0 0,0 0,0 0,0l7.06 7.06c0,0.61 -0.11,1.24 -0.25,1.85l8.92 11.3 1.92 0.96c3.53,0 3.53,0 7.06,0 0,0 7.06,0 7.06,3.53l-12.45 0c3.98,4.95 7.22,8.82 8.95,10.56 3.53,7.06 7.06,7.06 10.58,14.11 3.53,7.06 7.06,7.06 10.58,14.11 10.58,17.64 7.06,3.53 21.17,31.75 7.06,14.11 14.11,21.17 21.17,28.22 3.53,3.53 3.53,3.53 3.53,7.06 3.53,3.53 3.53,3.53 7.06,7.06 3.53,3.53 7.06,10.58 10.58,14.11 3.53,7.06 7.06,10.58 10.58,14.11 3.53,7.06 7.06,7.06 10.58,14.11 3.53,7.06 3.53,10.58 7.06,17.64l28.22 38.81c3.53,3.53 3.53,7.06 3.53,7.06l21.17 28.22c7.06,10.58 14.11,21.17 21.17,31.75 7.06,10.58 17.64,21.17 21.17,28.22 7.06,10.58 14.11,21.17 21.17,31.75 3.53,3.53 10.58,10.58 10.58,14.11 3.53,7.06 3.53,10.58 7.06,17.64 10.58,10.58 10.58,14.11 14.11,24.7 0,0 3.53,3.53 3.53,3.53 3.53,3.53 0,0 3.53,3.53 0,3.53 10.58,24.7 14.11,31.75 3.53,3.53 28.22,56.45 28.22,63.5 3.53,31.75 21.17,52.92 21.17,119.95 0,17.64 0,31.75 -3.53,45.86 0,14.11 -7.06,24.7 -7.06,38.81 -3.53,3.53 -3.53,17.64 -7.06,21.17 -10.58,28.22 0,17.64 -10.58,31.75 -3.53,7.06 0,10.58 -10.58,21.17 -10.58,10.58 0,14.11 -28.22,17.64 -10.58,0 -14.11,0 -24.7,3.53 -21.17,3.53 -56.45,0 -81.14,7.06 -7.06,3.53 -74.09,3.53 -84.67,3.53 -38.81,0 -77.61,0 -116.42,0 -10.58,0 -24.7,0 -35.28,0 -7.06,0 -7.06,-3.53 -10.58,-3.53l-49.39 -3.53c-7.06,0 -7.06,0 -14.11,0 -7.06,0 -7.06,0 -10.58,-3.53 -7.06,-3.53 -21.17,-3.53 -28.22,-3.53 -10.58,0 -17.64,-3.53 -28.22,-7.06 -3.53,0 -10.58,0 -14.11,0 -7.06,0 -7.06,-3.53 -14.11,-3.53 -7.06,-3.53 -21.17,0 -28.22,-7.06l-42.34 -7.06c-3.53,0 -7.06,-3.53 -10.58,-7.06 -14.11,-3.53 -14.11,0 -28.22,-7.06 -7.06,-7.06 -17.64,-3.53 -24.7,-7.06 -7.06,-3.53 -17.64,-7.06 -24.7,-10.58 -7.06,-3.53 -7.06,-3.53 -14.11,-3.53 -3.53,0 -7.06,-3.53 -10.58,-7.06 -7.06,-3.53 -17.64,-7.06 -24.7,-10.58 -7.06,-3.53 -14.11,-7.06 -21.17,-10.58 -7.06,-3.53 -14.11,-7.06 -21.17,-14.11 -7.06,-3.53 -17.64,-7.06 -21.17,-10.58l-42.34 -24.7c-3.53,-3.53 -14.11,-10.58 -21.17,-14.11 -10.58,-7.06 -42.34,-28.22 -49.39,-35.28 -3.53,-3.53 -3.53,-3.53 -10.58,-7.06 0,-3.53 -3.53,-3.53 -7.06,-7.06l-43.13 -40.05c1.61,4.2 3.05,8.19 4.27,11.86 7.06,17.64 7.06,63.5 0,81.14 -14.12,35.28 -17.64,7.05 -24.7,31.75 -3.52,14.11 14.12,28.22 24.7,45.86 3.52,10.58 17.64,28.22 28.22,45.86 7.06,10.58 3.53,17.64 7.06,28.22 3.53,7.05 7.06,21.17 3.53,31.75 -14.11,3.53 -14.11,-14.11 -31.75,-10.58 0,7.06 3.53,10.58 7.06,17.64 3.52,10.58 0,14.11 10.58,17.64 3.52,3.52 7.05,7.05 10.58,10.58 3.53,3.53 10.58,3.53 14.11,7.06 3.52,0 24.69,14.11 28.22,14.11 45.87,14.12 38.81,38.81 42.34,42.34l0 3.53c3.53,3.53 3.53,7.05 3.53,14.11l3.53 35.27c0,17.64 0,35.28 0,52.92 -3.53,52.92 7.05,35.28 14.11,49.39 10.58,17.64 3.53,-3.53 17.64,21.17l42.34 63.5 42.34 88.2c3.53,7.06 0,14.11 3.53,21.17 0,7.06 7.06,10.58 7.06,17.64 3.53,7.06 3.53,10.58 7.06,17.64 10.58,28.23 7.05,31.76 10.58,42.34 7.06,14.11 7.06,31.75 7.06,45.86 0,10.59 7.06,10.59 7.06,21.17 0,28.22 0,45.86 0,77.61 -3.52,14.12 -7.05,28.23 -10.58,42.34 -3.53,7.06 -3.53,21.17 -3.53,24.7 -3.53,7.06 -7.06,7.06 -7.06,17.64 -7.05,7.06 -7.05,17.64 -14.11,24.7 -3.53,3.52 -3.53,3.52 -7.06,10.58 -7.06,10.58 -17.64,21.17 -24.7,31.75 -3.52,3.53 -7.05,3.53 -10.58,7.06 -7.05,7.06 -3.53,7.06 -14.11,7.06 0,-14.11 14.11,-35.28 21.17,-45.86 3.53,-10.58 14.11,-35.28 17.64,-45.86 7.06,-28.23 7.06,-49.39 7.06,-56.45 0,-7.06 3.53,-17.64 7.06,-24.7 3.53,-7.06 7.05,-17.64 -3.53,-21.17 -3.53,10.58 0,10.58 -7.06,17.64 -7.06,7.05 -3.53,3.53 -7.06,14.11 -3.53,3.53 -3.53,10.58 -7.06,14.11l-21.17 67.03c0,7.06 -3.53,14.11 -3.53,17.64 -7.06,14.11 -35.28,42.33 -38.81,45.86 -7.06,0 -10.58,0 -17.64,3.53 -3.53,3.53 -7.05,7.06 -14.11,7.06 -14.11,0 -24.69,-7.05 -28.22,-14.11l0 0c0,-10.59 0,-35.28 49.32,-56.42 3.52,-3.53 10.58,-56.45 -7.06,-38.81 -14.11,10.58 -10.58,10.58 -17.64,31.75 -7.06,14.11 -17.64,42.34 -7.06,52.92l28.22 21.17c0,3.53 3.53,7.06 7.06,7.06 14.11,7.06 49.39,7.06 56.45,7.06 3.53,10.58 -10.58,24.69 -14.11,31.75 -14.11,21.16 -3.53,7.05 -21.17,28.22 -7.05,10.58 -21.17,14.11 -31.75,17.64 -17.64,7.05 -28.23,0 -38.81,10.58 -7.06,3.53 -14.11,10.58 -17.64,14.11 -7.05,3.53 -14.11,7.05 -14.11,14.11 -7.06,3.52 -14.11,7.05 -17.64,10.58 -7.05,7.05 -7.05,7.05 -14.11,14.11 -3.53,7.05 -7.05,3.52 -14.11,10.58 -3.53,3.52 -7.05,7.05 -14.11,10.58 -7.05,7.05 -7.05,10.58 -14.11,14.11 -7.06,3.52 -10.58,7.05 -17.64,10.58l-49.39 35.28c-7.06,7.05 -10.58,3.52 -17.64,10.58 -3.53,7.06 -28.22,17.64 -35.28,21.17 -10.59,7.06 -38.81,21.17 -56.45,24.7 -10.59,3.53 -14.11,10.59 -21.17,3.53 -3.53,-3.53 -3.53,-14.11 -7.06,-21.17 -7.05,-28.22 0,-28.22 -10.58,-45.86 -3.53,-10.59 0,-14.12 -3.53,-24.7l-17.64 -38.81c-3.53,-10.59 -17.64,-24.7 -31.75,-24.7 0,10.58 3.53,7.06 3.53,17.64 3.53,7.06 0,10.58 3.53,17.64l17.64 63.5c3.53,7.05 3.53,7.05 7.06,14.11 0,7.06 0,10.58 3.53,17.64 10.58,24.69 24.7,45.86 35.28,67.03 3.53,7.06 17.64,38.81 21.17,42.34 3.53,14.11 7.05,14.11 14.11,35.28 3.53,10.58 3.53,10.58 7.06,17.64 3.53,7.06 3.53,10.58 7.06,17.64 0,3.53 3.53,3.53 3.53,7.06 0,3.52 0,7.05 0,10.58 0,3.53 10.58,21.17 14.11,35.28 0,10.59 0,14.11 3.53,21.17 10.58,24.7 0,14.11 10.58,35.28 3.53,10.58 17.64,109.37 14.11,119.95 0,7.06 0,0 -3.53,7.06 -7.05,0 -7.05,0 -10.58,0 -7.06,-3.53 -3.53,0 -3.53,-3.53 -7.05,0 -3.52,-3.53 -10.58,-3.53 -7.05,0 -10.58,0 -14.11,0 -24.7,-7.05 -28.23,3.53 -42.34,7.06 -7.06,0 -17.64,-3.52 -17.64,7.06 -24.7,10.59 -59.98,49.39 -70.56,74.09 -3.53,7.05 -21.17,42.33 -21.17,49.39 -3.52,24.69 -10.58,31.75 -10.58,63.5 0,14.11 14.11,42.33 21.17,49.39 17.64,17.64 35.28,17.64 56.45,17.64 28.22,0 17.64,0 28.22,-7.06 3.52,-3.53 7.05,-3.53 10.58,-7.06l17.64 -17.64c7.06,-10.58 0,-7.06 17.64,-17.64 0,0 3.53,-3.53 3.53,-3.53 3.53,-3.53 0,-3.53 3.53,-7.06 0,0 0,0 0,0l3.53 0c7.06,-3.53 7.06,-3.53 7.06,0 0,3.53 -7.05,24.69 -14.11,31.75 0,3.53 -10.58,10.58 -10.58,17.64 -7.06,3.53 -14.11,17.64 -21.17,24.7 -7.06,3.53 -24.7,17.64 -24.7,21.17 -3.52,3.53 -3.52,3.53 -10.58,7.06 -7.05,3.53 -7.05,3.53 -10.58,7.06 -14.11,10.58 -56.45,28.22 -70.56,28.22 -17.64,0 -17.64,0 -28.22,3.53 -21.17,3.53 -74.09,7.06 -91.73,0 -14.11,-3.53 -14.11,-3.53 -28.22,-3.53 -10.58,0 -52.92,-21.16 -67.03,-28.22 -10.59,-7.06 -21.17,-21.17 -24.7,-24.7 -3.52,-3.53 -7.05,-3.53 -10.58,-7.06 -7.05,-7.05 3.53,0 -10.58,-14.11 -7.05,-3.52 -14.11,-17.64 -14.11,-28.22 7.06,-3.53 7.06,-7.06 17.64,-3.53 7.06,0 14.11,3.53 17.64,7.06 14.11,21.16 35.27,42.33 59.97,28.22 14.11,-7.06 21.16,-10.59 28.22,-21.17 31.75,-35.28 35.28,-63.5 21.17,-105.84 -3.53,-7.06 -3.53,-10.58 -7.06,-17.64 -3.53,-3.53 -3.53,-3.53 -7.06,-7.06 0,0 -3.53,-3.53 -3.53,-7.06 -7.05,-7.05 -7.05,-7.05 -10.58,-14.11 -3.53,-14.11 -24.69,-28.23 -31.75,-38.81 -10.59,-10.59 -7.06,-14.11 -24.7,-21.17 -10.58,-7.06 -21.17,-14.11 -31.75,-17.64 -21.17,-7.05 -14.11,-7.05 -35.28,-10.58 -7.06,-3.53 -14.11,-3.53 -21.17,0 -21.17,14.11 -14.11,24.7 -14.11,56.45 0,10.59 -7.06,31.76 -21.17,24.7 -7.05,-7.06 7.06,-116.42 7.06,-141.12 3.52,-17.64 7.05,-35.28 10.58,-52.92l14.11 -49.39c3.53,-10.59 3.53,-17.64 7.06,-24.7 10.58,-31.75 3.53,-14.11 17.64,-45.86l17.64 -28.22c14.11,-21.17 3.53,-21.17 14.11,-31.75 7.06,-7.05 3.53,-3.52 7.06,-10.58 3.53,-7.05 3.53,-3.52 7.06,-10.58 7.06,-3.52 14.11,-21.16 21.17,-28.22 7.06,-7.05 21.17,-21.16 24.7,-28.22 7.06,-10.59 24.7,-21.17 38.81,-38.81 7.05,-7.05 10.58,-7.05 10.58,-14.11 0,0 0,-3.53 -3.53,-3.53 -10.58,0 -14.11,7.05 -28.22,14.11 -3.52,0 -7.05,0 -10.58,3.53 -3.53,0 -24.7,21.16 -35.28,28.22 -7.06,7.05 -14.11,21.16 -21.17,28.22 -10.58,14.11 -3.53,17.64 -14.11,21.17 -3.52,3.53 -7.05,0 -10.58,-3.53 -3.53,-3.53 -7.06,-14.12 -7.06,-24.7 0,-10.58 0,-21.17 0,-31.75 0,-10.58 3.53,-21.17 3.53,-31.75 0,-14.11 3.53,-49.39 0,-59.97l-10.58 0c-7.06,17.64 -3.53,31.75 -7.06,49.39 0,3.53 -3.53,7.05 -3.53,14.11l-3.53 56.45c0,3.53 3.53,3.53 3.53,7.06 0,3.53 0,0 0,3.53 0,14.11 -21.16,0 -28.22,-3.53 -7.06,-3.52 -14.12,-7.05 -24.7,-10.58l-52.92 -21.17c-7.05,-3.53 -21.16,-3.53 -28.22,-7.06 -10.58,-3.52 -17.64,-7.05 -28.22,-10.58l-28.22 -10.58c-10.58,-3.52 -17.64,-7.05 -28.22,-10.58 -10.59,-3.52 -17.64,-7.05 -24.7,-10.58 -3.53,-3.53 -7.05,0 -14.11,-3.53 -3.52,-3.53 -3.52,-3.53 -10.58,-7.06 -7.05,-3.53 -3.52,-3.53 -10.58,-7.06 -7.05,-3.53 -10.58,-3.53 -14.11,-7.06l-42.34 -31.75c-3.53,-3.52 -3.53,-7.05 -7.06,-10.58 0,0 -42.34,-38.81 -38.81,-52.92 3.52,-7.05 21.16,-7.05 28.22,-14.11 10.59,-7.06 3.53,-7.06 3.53,-7.06 -3.53,0 -14.11,0 -17.64,0 -10.59,0 -17.64,21.17 -42.34,0 -10.58,-7.06 -10.58,-14.12 -14.11,-24.7 -3.53,-7.06 -10.58,-17.64 -14.11,-24.7 -7.06,-21.16 -7.06,-35.27 -17.64,-59.97 -7.06,-10.58 -3.53,-49.39 -21.17,-52.92 -3.53,10.59 -3.53,42.34 -3.53,56.45 0,14.11 3.53,10.59 7.06,21.17 7.05,10.59 3.52,10.59 10.58,21.17 7.05,7.06 3.52,10.59 10.58,21.17 7.06,14.11 21.17,49.39 35.28,56.45l0 3.53c0,7.05 3.53,7.05 0,14.11 -10.59,0 -17.64,-7.05 -24.7,-10.58 -7.05,-3.53 -7.05,-3.53 -10.58,-7.06 -38.81,-24.69 -24.7,-24.69 -42.34,-45.86 -10.58,-10.59 -3.53,-7.06 -14.11,-21.17 -7.05,-7.06 -7.05,-14.12 -10.58,-24.7 -7.06,-14.11 -14.11,-38.81 -17.64,-52.92 -3.53,-17.64 -7.05,-21.17 -14.11,-56.45 0,-10.58 0,-21.17 -3.53,-31.75 -7.06,-35.28 -7.06,-63.5 -7.06,-98.78 0,-38.81 -3.53,-28.22 3.53,-67.03 3.52,0 10.58,-38.81 10.58,-42.34 0,-10.58 3.53,-10.58 7.06,-17.64 3.53,-3.52 3.53,-7.05 3.53,-10.58 3.53,-7.05 3.53,-3.52 7.06,-10.58 3.53,0 3.53,-7.05 7.06,-10.58 0,-3.52 3.53,-3.52 7.06,-10.58 0,-7.05 0,-10.58 3.53,-14.11 3.53,-7.05 3.53,-3.53 7.06,-14.11l7.06 -7.06c3.53,-3.52 31.75,-67.03 35.28,-77.61 3.53,-10.58 3.53,-7.06 3.53,-17.64 0,-7.05 7.06,-14.11 7.06,-28.22 3.53,-24.7 3.53,-67.03 0,-91.73l-3.53 -17.64c0,0 0,0 0,0 3.53,-10.59 -7.05,3.53 3.53,-21.17 3.53,-10.59 17.64,-21.17 21.17,-24.7 14.11,-17.63 3.52,-7.05 28.22,-21.16 10.58,-7.06 7.05,-10.59 10.58,-21.17 3.53,-10.58 7.06,-17.64 7.06,-28.22 3.53,-14.12 3.53,-14.12 7.06,-24.7 3.53,-10.59 -3.52,-14.12 7.06,-24.7 7.05,-3.53 7.05,-10.59 10.58,-21.17 10.58,-24.69 10.58,-31.75 17.64,-45.86 3.52,-7.06 7.05,-14.11 10.58,-21.17 0,-7.05 0,-7.05 3.53,-10.58 7.05,-7.05 10.58,-21.17 14.11,-31.75 3.53,-3.52 7.06,-7.05 7.06,-10.58 0,-7.05 0,-10.58 3.53,-14.11 3.52,-7.06 7.05,-14.11 10.58,-21.17 0,0 0,3.53 0,0 7.06,-7.06 3.53,-10.58 7.06,-17.64 3.53,-7.06 7.06,-7.06 7.06,-17.64 3.52,-17.64 7.05,-17.64 10.58,-35.28 3.53,-17.64 17.64,-59.98 14.11,-74.09l-3.53 0c0,0 0,0 -7.06,0 -3.52,0 -7.05,0 -10.58,3.53 -7.06,7.05 -21.17,35.28 -24.7,45.86 -7.06,21.17 -7.06,70.56 -17.64,81.14 -3.53,3.52 -10.58,7.05 -14.11,10.58 -7.06,3.53 -10.58,3.53 -17.64,7.06 -7.05,3.52 -7.05,7.05 -14.11,10.58 -7.06,3.53 -10.58,3.53 -17.64,7.06 -24.69,24.7 -10.58,10.59 -28.22,21.17 -7.05,3.52 -7.05,7.05 -14.11,10.58l-77.61 45.86c-3.53,3.52 -10.58,7.05 -14.11,10.58 -7.06,3.53 -10.58,3.53 -17.64,7.06 -7.06,3.53 -7.06,3.53 -17.64,7.06 -10.58,3.53 -24.69,14.11 -31.75,17.64 -10.58,3.53 -10.58,0 -17.64,7.06 -7.06,7.06 -7.06,3.53 -17.64,7.06l-35.28 14.11c-7.06,3.53 -10.58,3.53 -17.64,7.06 -7.06,3.53 -10.58,3.53 -17.64,7.06 -3.52,3.53 -7.05,3.53 -10.58,3.53 0,0 -3.53,3.53 -3.53,3.53 -7.06,3.53 -3.53,0 -3.53,3.53 -10.58,-3.53 -24.69,0 -31.75,3.53l0 0c-3.52,0 -7.05,3.53 -10.58,3.53 -3.53,0 -10.58,0 -14.11,0 -17.64,0 -38.8,7.06 -77.61,7.06 -49.4,3.53 -59.98,3.53 -109.37,-3.53 -35.28,-7.06 -17.64,-10.59 -35.28,-24.7 -10.59,-10.58 -14.12,-17.64 -24.7,-31.75 -7.06,-14.11 -7.06,-3.53 -21.17,-35.28 -7.06,-17.64 -7.06,-28.22 -3.53,-49.39 0,-3.53 14.11,-31.75 17.64,-35.28l21.17 -31.75c10.59,-14.11 14.11,-17.64 3.53,-35.28 -7.05,-7.06 -7.05,-10.58 -10.58,-17.64 -10.58,-17.64 0,-63.5 0,-70.56 -3.53,-17.64 0,-10.59 3.53,-21.17 0,-7.06 0,-10.59 3.53,-21.17l14.11 -38.81c3.52,-14.12 7.05,-28.23 10.58,-42.34l0 -3.53c3.53,0 7.06,-3.52 7.06,-10.58 3.53,-10.58 3.53,-7.05 7.06,-14.11 3.52,-7.05 7.05,-21.16 10.58,-28.22 3.52,-7.05 7.05,-21.16 10.58,-28.22 3.52,-10.59 7.05,-14.12 10.58,-24.7l10.58 -24.7c7.05,-10.58 7.05,-17.64 10.58,-28.22 3.53,-10.59 14.11,-24.7 17.64,-38.81l3.53 -14.11c0,0 0,0 0,0 3.53,0 0,0 3.53,-3.53 3.53,-7.05 7.06,-24.69 7.06,-28.22 3.53,-7.05 3.53,-7.05 7.06,-10.58 7.05,-10.58 -3.53,3.53 10.58,-17.64 3.52,-7.06 3.52,-14.11 10.58,-21.17 3.53,-7.06 3.53,-14.11 7.06,-21.17 3.52,-7.06 3.52,-3.53 10.58,-17.64 7.06,-7.06 14.12,-14.11 24.7,-35.28l24.7 -35.28c7.05,-7.06 7.05,-10.58 10.58,-17.64 3.53,-3.53 3.53,-3.53 7.06,-7.06l31.75 -42.34c10.58,-10.59 14.11,-17.64 17.64,-24.7 3.53,-7.05 3.53,-7.05 7.06,-10.58 7.05,-14.11 7.05,-10.58 10.58,-17.64 10.58,-17.64 7.05,-10.58 14.11,-17.64l14.11 -28.22c3.53,-3.53 3.53,-3.53 7.06,-7.06 3.52,-3.53 7.05,-10.58 10.58,-17.64l45.86 -70.56c3.52,-7.06 7.05,-10.58 10.58,-17.64 10.58,-17.64 10.58,-10.58 14.11,-17.64 0,-3.52 0,-7.05 3.53,-10.58 3.53,-7.05 3.53,-3.52 7.06,-10.58 3.52,-10.58 7.05,-10.58 10.58,-17.64 3.53,-3.53 3.53,-3.53 7.06,-7.06l17.64 -28.22c3.52,-7.06 10.58,-10.58 10.58,-17.64l3.53 0c14.12,-14.11 17.64,-24.7 24.7,-35.28 7.05,-7.06 10.58,-10.58 14.11,-17.64 7.05,-10.58 10.58,-10.58 14.11,-17.64 3.52,-7.06 3.52,-10.58 10.58,-17.64 7.05,-7.06 10.58,-10.58 14.11,-17.64 3.52,-7.06 7.05,-14.11 10.58,-21.17 3.53,-7.05 0,-7.05 7.06,-14.11l3.53 -3.53c7.05,-3.53 3.52,-10.58 10.58,-17.64 3.52,-3.53 7.05,-7.05 10.58,-14.11 3.52,-7.06 7.05,-10.58 10.58,-17.64 10.58,-17.64 21.16,-31.75 28.22,-52.92 3.53,-10.59 14.11,-35.28 17.64,-38.81 0,-3.53 0,-10.58 3.53,-14.11 3.53,-3.52 3.53,-7.05 7.06,-10.58 0,-3.53 0,-7.05 0,-14.11 0,-3.53 3.53,-10.58 3.53,-14.11 7.06,-35.28 3.53,-148.17 3.53,-197.56l0 -7.06c0,-17.64 -3.53,-31.75 -3.53,-45.86 0,-14.12 0,-35.28 -3.53,-42.34 0,-31.76 0,-63.51 0,-91.73l0 -67.03c0,-7.06 3.53,-10.58 3.53,-17.64 0,-14.11 -21.16,-21.17 -28.22,-38.81 -3.53,-7.06 0,-10.58 -3.53,-17.64 -7.06,-14.11 -10.59,-14.11 -7.06,-38.81 0,-7.05 7.05,-28.22 10.58,-31.75 10.59,0 31.75,0 38.81,0 10.58,3.53 21.17,7.06 31.75,7.06 3.53,0 52.92,14.11 56.45,17.64 28.22,17.64 17.64,7.05 45.86,28.22 10.59,7.05 17.64,7.05 24.7,14.11 10.59,3.53 7.06,14.11 21.17,17.64l7.06 17.64c3.53,3.53 3.53,0 7.06,7.06 0,3.52 3.53,7.05 3.53,10.58 3.53,7.06 3.53,10.58 7.06,17.64 3.52,10.58 7.05,10.58 10.58,17.64 7.06,21.16 7.06,56.44 3.53,77.61 -3.53,10.58 -3.53,17.64 -3.53,28.22 -7.06,109.36 7.05,91.72 10.58,116.42 0,14.11 3.53,7.06 7.06,17.64 3.52,7.05 7.05,7.05 10.58,14.11 10.58,14.11 31.75,52.92 35.28,70.56 0,3.52 0,7.05 0,10.58 3.53,14.11 7.06,7.05 0,31.75 -14.11,45.87 -3.53,10.59 -21.17,42.34 -3.53,7.05 -3.53,7.05 -7.06,10.58 -3.52,0 -7.05,3.53 -10.58,7.06l-35.28 31.75c-7.05,7.05 -3.52,3.52 -10.58,10.58l-21.17 21.17c-7.05,3.53 -7.05,7.05 -10.58,14.11 -7.06,3.53 -17.64,31.75 -21.17,35.28 -3.53,7.06 0,10.59 -7.06,21.17 -3.53,7.06 0,10.59 -3.53,21.17 -3.53,7.06 -7.06,14.11 -7.06,21.17 0,10.59 0,14.12 -3.53,24.7l-14.11 38.81c-3.53,17.64 -14.11,35.28 -14.11,38.81 -3.52,14.12 -3.52,28.23 -10.58,42.34l-14.11 38.81c-3.53,3.52 -3.53,7.05 -3.53,10.58 -3.53,7.05 -3.53,7.05 -7.06,10.58 -3.53,3.53 -7.06,17.64 -7.06,24.7 -3.53,3.53 -14.11,42.33 -17.64,49.39 0,7.05 -3.53,7.05 -7.06,14.11 -3.53,7.06 -3.53,14.11 -3.53,21.17 -3.53,7.06 -7.06,10.58 -7.06,17.64 0,10.59 0,14.11 -3.53,21.17 0,3.52 -3.53,7.05 -3.53,10.58 0,0 -3.53,-3.53 0,3.53l7.06 -3.53c0,-7.06 14.11,-31.75 21.17,-38.81 7.05,-7.06 7.05,-10.58 14.11,-17.64l14.11 -17.64c3.52,-3.53 7.05,-3.53 10.58,-7.06 3.53,-3.53 3.53,-3.53 7.06,-7.06 7.05,-3.53 7.05,-3.53 10.58,-7.06 14.11,-14.11 28.22,-21.16 49.39,-28.22 14.11,-3.53 17.64,-10.59 49.39,-7.06 3.53,0 35.28,14.11 24.7,-17.64 -3.53,-10.58 0,-38.81 0,-52.92 0,-21.16 3.53,-24.69 7.06,-45.86 0,-17.64 3.53,-28.22 7.06,-45.86 10.58,-45.87 14.11,-21.17 17.64,-38.81 3.53,-10.58 0,-10.58 7.06,-17.64l4.48 -4.53c-1.65,-0.38 -3.08,-1.78 -4.5,-6.05 0,-3.53 0,0 0,-7.06 7.06,-3.53 3.53,0 7.06,-3.53 0,-3.53 0,-17.64 0,-24.7 0,-14.11 -7.06,-7.06 0,-14.11l3.53 -7.06c0,0 0,-3.53 0,-3.53 0,-3.53 0,-7.06 3.53,-10.58 3.53,-14.11 0,-14.11 0,-24.7l-14.09 0.01c-3.53,3.53 0,10.58 -3.53,14.11 0,0 -3.53,0 -7.06,0 -7.06,0 0,0 -7.06,3.53 0,-3.53 0,-3.53 0,-3.53 14.11,-7.06 7.06,-10.58 14.11,-21.17 7.06,0 14.11,0 17.64,0 9.41,18.83 -6.28,62.78 0.06,89.64 4.63,-6.34 11.37,-13.72 14.05,-19.08 0,-3.53 0,-7.06 3.53,-7.06 5.55,-2.78 2.38,-3.36 4.2,-3.49 5.92,-32.51 -0.67,-42.85 -0.67,-56.48 0,-10.58 0,-21.17 0,-31.75 0,-10.58 0,-56.45 0,-63.5 7.06,-21.17 24.7,-35.28 17.64,-45.86 -10.58,-10.58 -3.53,-3.53 -10.58,-17.64 -3.53,-7.06 -3.53,-14.11 -7.06,-17.64 -3.53,-38.81 0,-81.14 0,-119.95 0,-17.64 0,-42.34 0,-59.97 7.06,-42.34 3.53,-45.86 0,-84.67 0,-10.58 0,-21.17 0,-31.75 0,-17.64 -10.58,-28.22 -14.11,-42.34 -3.53,-10.58 0,-17.64 3.53,-24.7 3.53,-10.58 10.58,-67.03 10.58,-77.61l0 -77.61c0,-10.58 3.53,-14.11 3.53,-24.7 0,-17.64 0,-35.28 0,-52.92 0,-3.53 0,-7.06 0,-10.58 0,-7.06 0,-3.53 -3.53,-10.58 28.23,17.62 28.23,-190.52 28.23,-211.69l0 0zm419.95 1111.29l-0.12 -0.02 -7.18 0 0.12 0.02 7.18 0zm-42.43 -7.06l-0.02 -0.02 -7.06 0c-7.06,3.53 -3.53,7.06 -3.53,14.11 0,3.53 0,3.53 0,10.58 0,10.58 -3.53,14.11 -10.58,21.17l0 0c-16.65,9.99 -14.44,1.12 -17.11,8.99 0.72,0.41 1.67,0.95 2.99,1.61 3.53,-10.58 0,0 17.64,-10.58l0 0c7.05,-7.06 10.58,-10.59 10.58,-21.17 0,-7.05 0,-7.05 0,-10.58 0,-7.05 -3.53,-10.58 3.53,-14.11l3.56 0zm-42.35 54.5c-2.46,-1.41 -1.68,-0.77 -7.06,1.92 0,7.06 0,0 3.53,3.53 0,0 0,0 0,0 0,0 0,0 0,0l0 0c3.53,0 0,3.53 0,7.06l3.53 3.53c0,0 0,0 0,0 1.09,0 2.1,-0.17 3.03,-0.47l-3.04 -3.04c0,-3.53 3.53,-7.06 0,-7.06l0 0c0,0 0,0 0,0 0,0 0,0 0,0 -3.53,-3.53 -3.53,3.53 -3.53,-3.53 1.7,-0.85 2.78,-1.49 3.54,-1.94zm76.45 -14.53l1.17 2.35c0,0 0,0 0,0 0,3.53 0,3.53 3.53,7.06l-7.06 0c0,0 0,0 0,0 0,0 0,0 0,0l-3.53 28.22c0,0 0,0 0,0 -3.53,7.06 -10.58,14.11 -10.58,21.17l3.52 0c0.01,-7.05 7.05,-14.1 10.58,-21.15 0,0 0,0 0,0l3.53 -28.22c0,0 0,0 0,0 0,0 0,0 0,0l7.06 0c-3.53,-3.53 -3.53,-3.53 -3.53,-7.06 0,0 0,0 0,0l-3.53 -7.06c0,3.53 0,3.53 0,3.53l-1.16 1.16zm-0.97 55.3c0.99,0.12 -0.67,0.69 2.14,3.5l0 0c0,3.53 3.53,0 3.53,3.53 -3.53,0 0,0 -3.53,0 0,0 0,0 0,0l0 3.53c0,0 0,0 0,0l3.52 0 0 -3.51c0,0 0,0 0,0 3.53,0 0,0 3.53,0 0,-3.53 -3.53,0 -3.53,-3.53l0 0c-3.53,-3.53 0,-3.53 -3.53,-3.53l-2.13 0.01zm5.66 10.57c-0.2,0.2 -3.29,3.4 3.5,0.01l-3.5 0c0,0 0,0 0,0l0 -0.01zm4.66 1.11l2.41 2.41 2.33 -1.17 -2.34 -2.34c-1,0.5 -1.78,0.86 -2.4,1.1zm11.28 412.37c6.71,0.52 18.9,0.95 34.42,1.26l-0.98 -1.96c-3.53,-3.53 -3.53,-3.53 -7.06,-3.53 -7.06,-3.53 -7.06,-10.58 -7.06,-17.64l-3.52 -0.01c0,3.53 0,0 0,7.06l-3.54 -0.03c0,-10.58 -3.53,-7.05 -3.53,-10.58l-7.06 3.53c3.53,3.52 3.53,3.52 3.53,10.58 -3.53,-3.53 0,0 -3.53,-3.53 0,-3.53 -3.53,-3.53 -3.53,-3.53 -3.53,0 -3.53,-3.53 -7.06,3.53 7.06,0 7.06,3.53 7.06,7.06l0 3.53c1.23,2.46 1.6,3.62 1.86,4.26zm131.11 -202.82c-2.61,-2.31 -4.19,-2.49 -5.97,-2.5 1.12,1.11 3.3,1.86 5.97,2.5zm-5.98 -2.5l-1.32 -0.01c0.44,0.88 1.32,1.76 1.32,0.01zm-63.55 -40.65l-3.49 -5.23 -1.73 0c1.48,2.72 2.49,3.74 5.22,5.23zm-82.57 -38.45l-5.59 -5.59c-3.53,-3.53 -3.53,-7.06 -10.58,-7.06 -3.53,0 -3.53,3.53 -7.06,3.53 -7.06,0 -17.64,-3.53 -24.7,0 0,0 -3.53,3.53 -3.53,3.53 0,0 -10.58,0 -21.17,-3.53l-7.06 0c-7.06,0 -14.11,-3.53 -17.64,-3.53l-0.01 0 17.64 10.58c0,7.06 3.53,0 7.06,0 7.06,0 14.11,0 17.64,0 3.53,0 10.58,3.53 17.64,3.53l7.06 0c10.59,3.53 21.17,3.53 21.17,3.53 0,0 3.53,-3.53 3.53,-3.53 1.69,-0.85 3.59,-1.28 5.6,-1.46zm-127.49 -15.92l-12.18 -7.31c-0.53,-0.53 -0.98,-1.12 -1.38,-1.78 -3.27,0.16 -6.92,-0.44 -9.15,1.79 -3.53,3.53 0,3.53 0,3.53l3.53 3.53c3.53,10.59 -3.53,-3.53 0,3.53 0,-3.53 0,0 0,-7.06l3.51 0.02c3.53,3.53 3.53,3.53 3.53,7.06 0,3.53 0,3.53 3.53,3.53l0 -7.06c7.06,0 3.53,0 7.06,3.53 0,-1.62 0.75,-2.49 1.55,-3.31zm-15.31 -12.38c-1.45,-2.85 -3.11,-5.49 -7.39,-5.51l0 3.55c-3.53,-3.53 -3.53,-0.01 -3.53,-3.52l-0.06 -0.03 0.04 0c-3.51,-3.51 -3.51,-3.52 -3.51,-7.04l-3.51 0.03c0,7.06 3.53,7.06 0,7.06 -3.53,-7.06 3.53,3.53 0,-3.53l-3.53 -3.53c0,-3.53 -3.53,0 0,-3.53 3.53,-3.53 10.58,0 14.11,-3.53 -7.06,0 -14.11,3.53 -17.64,0l-3.53 -3.53c-3.53,7.06 -7.05,3.53 -14.11,3.53 0,3.53 0,0 0,3.53 0,0 0,0 0,0l0 0c0,0 0,0 0,0 -14.12,-3.53 -3.53,3.53 -24.7,-3.53l-6.74 0c0.74,0.89 1.74,2.04 3.19,3.49 3.53,3.52 0,0 3.53,10.58 0,3.53 -3.53,7.06 3.53,7.06 3.52,0 7.05,0 10.58,0 21.17,3.53 10.59,-3.53 24.7,3.53 0,0 0,0 0,0l0 0c0,0 0,0 0,0 0,0 0,0 0,-3.53 7.05,0 10.58,0 14.11,-3.53l3.53 3.53c4.46,0 7.51,-1.4 10.93,-1.55zm-7.39 -5.52c3.96,-0.08 -2.1,-0.52 2.99,-3.27 -0.73,-0.23 -1.58,-0.23 -2.99,-0.23l0 3.5zm-2.68 -30.74c-3.19,0.7 -1.22,-2.39 -0.94,4.45 -1,1.08 -3.58,1.62 -10.49,1.62 -3.53,-3.53 -3.53,-3.53 -7.06,-3.53 -1.4,-0.28 -2.72,-0.59 -3.95,-0.91 4.05,-5.45 4.56,-5.09 7.47,-16.73l3.53 -14.11c0,-3.53 0,3.53 0,-3.53 0,-14.12 3.53,-10.59 3.53,-24.7l3.53 0c0,-3.53 0,-7.06 0,-7.06l3.53 -3.53c0,0 0,0 0,0 0,0 0,0 0,0 0,0 7.06,-3.52 3.53,7.06l-3.53 7.06c0,3.53 0,3.53 0,14.11l0 0c0,35.28 -3.53,17.64 -7.06,31.75l-3.53 7.06c0,-3.53 3.53,-3.53 7.06,-3.53l0 3.53 3.47 -0.01 0 5.42c0.9,-1.01 0.47,-2.48 0.91,-4.42zm-72.03 2.54l-6.45 0 -3.53 -3.53 -3.5 -1.75 0 5.31c0,0 0,0 0,0 0,0 0,0 0,0 0,7.06 0,0 0,3.53l0 0c-7.06,0 0,0 -3.53,0l0 0c0,0 0,0 0,0 0,0 3.53,0 0,0l-7.06 -3.53c-7.06,-3.53 -14.11,0 -17.64,0 -7.05,3.53 -7.05,0 -10.58,0l-8.57 0c0.23,1.43 0.67,2.66 1.5,3.49 10.59,14.11 14.11,7.05 21.17,10.58l-3.53 0c-3.53,3.53 -7.06,3.53 -7.06,7.06 0,0 7.05,0 10.58,0 7.05,0 7.05,3.53 10.58,0 3.53,0 14.11,0 17.64,0l7.06 3.53c0,0 -3.53,0 0,0 0,0 0,0 0,0l0 0c3.53,0 -3.53,0 3.53,0l0 0c0,-3.53 -3.53,0 0,-3.53 0,0 0,0 0,0 0,0 0,0 0,0 3.53,-3.53 0,-3.53 0,-7.06l1.35 -0.7c-1.33,-1.22 -1.33,-3.77 -1.33,-6.32 0,-3.96 -0.01,-5.69 -0.63,-7.08zm41.99 -3.45c0.54,-1.19 0.94,-2.39 0.94,-3.58 3.53,-3.53 3.53,-3.53 7.06,-10.58 3.53,-7.06 3.53,-17.64 3.53,-28.22 3.53,-21.17 3.53,-63.5 0,-88.2 0,-7.06 0,-17.64 0,-28.22 -3.53,-35.28 -7.06,-21.17 -24.7,-35.28 -28.22,-21.17 -7.06,-10.58 -38.81,-28.22 -17.64,-10.58 -10.58,-3.53 -21.17,-10.58 -10.58,-3.53 3.53,-3.53 -21.17,-10.58 -17.64,-3.53 -31.75,-10.58 -49.39,-14.11 -3.53,0 -7.06,0 -14.11,-3.53 -6.4,-2.14 -15.39,-5.57 -23.84,-7.16l2.67 10.66c0,10.59 3.52,17.64 10.58,21.17 3.53,3.53 3.53,7.05 3.53,14.11l14.11 35.28c3.53,3.53 0,0 3.53,3.53 0,7.05 3.53,3.52 3.53,10.58 0,3.52 -3.53,7.05 0,10.58 0,3.53 3.53,0 3.53,7.06 0,3.52 0,7.05 0,10.58 -3.53,3.53 -3.53,14.11 0,17.64 0.94,2.82 1.63,4.39 2.14,5.44 1.94,0.44 2.77,0.79 4.93,5.11 3.53,3.53 7.06,0 7.06,7.06 -7.06,3.53 -7.06,-3.52 -7.06,7.06l-1.04 -1.04c0.6,1.32 1.03,2.84 1.03,4.59 0,7.06 3.53,10.58 3.53,17.64 0,0 0,0 0,0l-3.53 0c-3.53,3.53 0,0 -3.53,3.53 3.53,7.05 3.53,0 3.53,10.58 0,10.58 0,3.52 0,10.58 7.06,-3.53 -3.52,-3.53 7.06,-3.53 0,3.53 3.53,28.22 3.53,31.75 7.06,7.05 31.75,-3.53 74.09,10.58l3.53 0c21.17,7.06 0,-3.52 21.17,7.06l3.53 3.53c3.53,0 3.53,0 7.06,0 2.57,0 5.14,3.74 13.15,7.13zm-174.3 -281.03c0.61,0.52 1.34,1.25 2.37,2.28 0,0 0,0 0,0l3.53 0c7.06,0 3.53,0 3.53,0l3.53 -3.53c0,0 0,0 0,0l0.76 -0.83c-3.6,-0.78 -6.71,-1.51 -11.36,0.81 -0.97,0.48 -1.74,0.9 -2.36,1.27zm19.09 -2.29c1.62,1.39 3.14,2.14 7.98,4.57l10.58 3.53c14.11,-3.53 0,-3.53 7.06,-3.53 7.06,0 -3.53,7.06 7.06,0 0,0 0,0 0,0 3.2,0 0.59,0 2.72,-2.64l-2.73 -0.91c-7.05,-3.53 -7.05,-3.53 -10.58,-7.06 -3.53,0 0,0 -3.53,3.53 0,0 0,0 0,0l-3.53 3.53c0,0 3.53,0 -3.53,0l-3.53 0c0,0 0,0 0,0 -3.53,-3.53 -3.53,-3.53 -7.06,-3.53l-3.53 0c0,0 0,0 0,0 0,0 0,0 0,0 3.15,0 0.68,0 2.62,2.51zm60.85 -2.46c3.72,0.11 4.29,0.68 7.1,3.5l10.61 -0.03c0,10.58 7.06,10.58 7.06,17.64l38.8 0c0,7.06 0,3.53 7.06,7.06 0,0 0,0 0,0 0,0 0,0 0,0 0,0 0,0 0,0l0 14.11 10.58 -0.01c0,10.58 0,3.53 3.53,7.06 3.53,7.06 3.53,0 3.53,3.53 0,7.06 -3.53,7.06 -3.53,14.11l3.53 0c0,3.53 3.53,3.53 10.58,3.53 0,-3.53 0,-3.53 0,-7.06 7.06,0 3.53,0 7.06,-3.53l3.61 1.81c0.52,-5.38 3.45,-5.95 3.45,-12.38l0 -0.02 -0.01 0.01 -0.43 -0.43c-0.44,0.44 -1.33,0.44 -3.09,-3.09 -3.53,-3.53 -3.53,3.52 -3.53,-7.06l-10.58 0 0 -14.11c0,0 0,0 0,0 0,0 0,0 0,0 0,0 0,0 0,0 -5.25,-2.63 -6.6,-1.35 -6.94,-3.42l-0.12 -0.11c-3.24,-2.16 -5.83,-3 -8.05,-3.53l-30.75 0c0,-7.06 -7.06,-7.06 -7.06,-17.64l-10.62 0.01c-3.52,-3.53 -3.52,-3.53 -10.58,-3.53 -7.05,3.53 -3.52,3.53 -10.58,3.53 0,0 0,0 0,0 -7.05,-3.53 -7.05,-3.53 -10.58,0l-0.05 0.05zm119.98 66.95l0.04 0.02 0 -0.02 -0.04 0zm-52.88 -86.69l0 -1.48c0,-7.06 0,-7.06 -3.53,-10.58 3.53,0 3.53,-7.06 7.06,-10.58 0,0 0,0 0,-3.53 0,-3.53 0,-10.58 0,-10.58l-3.53 7.06c0,0 0,3.53 0,7.06 -3.53,0 -3.53,0 -3.53,-7.06 0,0 0,0 0,0l0 3.53c0,0 0,0 0,3.53 -3.53,3.53 3.53,0 -3.53,3.53l0 14.11 -2.27 1.14c2.6,2.14 6.28,3.98 9.33,3.85zm-112.9 -118.35l0 -2.94 -0.17 -0.3 -3.36 -3.36c-4.58,0 -7.67,0 -10.24,0.97 1.64,2.42 8.96,4.69 13.77,5.63zm-74.44 -24.26c-13.58,-0.12 -3.28,-7.08 -13.77,-10.57 0,0 -3.53,0 -3.53,0l-7.06 -7.06c0,7.06 0,10.58 0,17.64 0,7.06 -3.53,7.06 0,14.11 0,0 0,0 0,0 0,3.53 0,0 0,3.53l0 7.06c0,0 0,0 0,0l0 7.06c0,7.06 0,7.06 3.53,10.58 7.06,3.53 0,0 0,0l0 10.58c0,3.53 0,0 3.53,0 -3.53,7.06 0,7.06 -3.53,10.58 -3.53,10.58 -14.11,14.11 -14.11,21.17l0 3.53c-3.53,7.06 -3.53,7.06 -3.53,14.11 7.06,3.53 3.53,14.11 3.53,17.64l0 52.92c0,24.7 3.53,21.17 3.53,31.75 0,7.06 0,14.11 0,21.17l1.95 0c0.2,-1.35 0.64,-2.58 1.6,-3.54l14.12 -0.01c0,9.91 3.08,10.54 0.59,22.14l6.44 9.65c-3.53,-3.53 0,-7.06 0,-7.06 0,-7.06 0,0 0,-3.53 0,0 0,0 0,0 0,0 0,0 0,0l0 -3.53c3.53,0 3.53,0 7.06,0 0,-10.58 -3.53,-7.06 -3.53,-17.64 0,0 3.53,0 0,0 -3.53,0 0,0 -3.53,0 0,-7.06 0,-14.11 0,-21.17 0,-10.58 -3.53,-7.05 -3.53,-31.75l0 -52.92c0,-3.53 3.53,-14.11 -3.53,-17.64 0,-7.05 0,-7.05 3.53,-14.11l0 -3.53c0,-7.06 10.58,-10.59 14.11,-21.17 3.53,-3.52 0,-3.52 3.53,-10.58 -3.53,0 -3.53,3.53 -3.53,0l0 -10.58c0,0 7.06,3.53 0,0 -3.53,-3.52 -3.53,-3.52 -3.53,-10.58l0 -7.06c0,0 0,0 0,0l0 -7.06c0,-3.53 0,0 0,-3.53 0,0 0,0 0,0 -2.82,-5.63 -1.13,-6.77 -0.34,-10.6zm-377.13 2554.22c0,-10.58 7.06,-24.7 10.58,-35.28 7.06,-10.58 17.64,-14.11 35.28,-14.11 3.53,17.64 -3.53,24.7 -10.58,35.28 -7.05,10.58 -17.64,14.11 -35.28,14.11l0 0zm677.36 -1037.21c3.53,7.06 14.11,17.64 17.64,21.17 10.58,10.58 17.64,7.06 14.11,21.17 -10.58,0 -7.06,-3.53 -17.64,-3.53 -3.53,10.58 -3.53,52.92 -3.53,70.56 0,7.06 0,10.58 -3.53,17.64 0,7.06 0,10.58 0,17.64 0,7.06 -3.53,7.06 -3.53,14.11l0 52.92c0,21.17 0,14.11 7.06,28.22 3.53,10.58 0,17.64 7.06,28.22 7.06,10.57 10.58,14.1 7.06,28.21 -10.58,0 -17.64,-17.64 -24.7,-28.21 -7.06,-7.06 -3.53,-10.58 -7.06,-17.64 -14.11,-28.22 -3.53,-14.11 -14.11,-38.81 -3.53,-7.06 -3.53,-10.58 -3.53,-21.17 0,-7.06 -3.53,-14.11 -3.53,-21.17 -3.53,-10.58 0,-14.11 -7.06,-21.17 3.53,-10.58 0,-59.97 0,-74.09 0,-7.06 -3.53,-14.11 -3.53,-21.17 0,-14.11 0,-59.97 -3.53,-70.56 -3.53,-7.06 -7.06,-10.58 -3.53,-21.17 7.06,-3.53 10.58,3.53 14.11,7.06 3.53,3.53 7.06,7.06 10.58,10.58 17.67,10.61 17.67,17.67 21.19,21.19l0 0zm-318.17 786.37l-13.39 -6.7c-14.11,-3.53 -28.22,-3.53 -45.86,-10.58 0,0 0,0 0,0 0,0 0,0 -3.53,0 0,0 0,0 0,0 -14.11,-7.06 -14.11,0 -14.11,0 0,0 0,0 0,0l-14.11 -7.06c-3.53,-3.53 0,-3.53 -3.53,0 -3.53,0 3.53,3.53 -3.53,0 0,3.53 0,-3.53 -7.06,-3.53 -3.43,10.28 3.13,10.57 -9.45,17.06 -0.46,-0.48 -1.21,-1.34 -1.21,-2.97 14.11,-7.06 7.06,-7.06 10.58,-17.64 7.06,0 10.58,7.06 7.06,3.53 7.06,3.53 0,0 3.53,0 3.53,0 0,0 3.53,0l14.11 7.06c0,0 0,0 0,0 0,0 0,-7.06 14.11,0 0,0 0,0 0,0 0,0 0,0 3.53,0 0,0 0,0 0,0 17.64,7.06 28.22,7.06 45.86,10.58l14.11 7.06 -0.64 3.19zm-115.66 -10.25l-0.04 0.02 0 0.14 -0.08 -0.16 0.12 0zm3.41 10.45l0.08 0.16c3.35,3.35 0.35,0.35 0.03,6.05 -0.12,-0.64 -0.12,-1.4 -0.12,-2.54 0,0 0,0 0,0l0 -3.53c0,0 0,0 0,0 -3.53,0 -3.53,0 -7.06,3.53l-3.53 0c0,0 0,0 0,0 0,0 0,0 0,0 0,0 0,0 0,0l0 4.45c0.13,0.66 0.13,1.44 0.13,2.63 0,0 0,0 0,0 0,0 0,0 0,0 0,0 0,0 0,0 0,0 -3.53,3.53 -3.53,3.53 -3.53,3.52 -3.53,7.05 -7.06,10.58l-0.13 0.13 0 3.38c0,0 0,0 0,0 -2.26,1.13 -3.88,1.9 -5.05,2.42 -0.41,1.45 0.6,2.18 -1.88,4.66 -3.53,0 0,3.53 0,7.06 -3.53,0 0,-3.53 -3.53,0 0,0 0,0 0,0 0,0 0,0 0,0 0,0 0,0 0,0 -7.06,7.06 0,-3.53 -3.53,3.53 -3.53,7.06 0,0 0,7.06l0 6.83c3.49,-7 6.99,-13.95 10.48,-17.45 10.58,-10.58 14.11,-24.7 24.7,-38.81l0 -3.67zm0.32 6.96c3.28,-3.6 3.29,-10.4 3.29,-13.85 14.11,3.53 7.06,10.58 7.06,17.64 -3.53,14.11 3.53,0 -7.06,21.17 -14.11,31.75 -7.06,14.11 -21.17,31.75 -3.53,7.06 -7.06,14.11 -10.58,17.64 -3.53,7.06 -3.53,10.58 -7.06,17.64 -10.58,17.64 -7.06,21.17 -10.58,45.86 -17.64,3.53 -14.11,3.53 -28.22,-3.53l-21.17 -14.11c0,-3.53 -3.53,-10.58 -7.06,-10.58l-17.64 -28.22c-3.53,-3.53 -3.53,-7.06 -3.53,-14.11 0,-7.06 0,-10.58 0,-14.11l6.22 0c-0.8,2.63 -1.62,5.79 0.76,10.55 0,7.06 0,10.58 3.53,14.11l-3.53 -21.17c7.06,0 7.06,0 10.58,3.53 0.94,0.94 1.87,1.63 2.74,2.2l0.87 1.36 3.53 7.06c0,0 0,0 0,0 0,0 0,0 0,0l7.06 7.06c2.2,2.2 0.29,0.29 0.24,-0.61 1.66,1.56 3.42,2.44 6.73,4.1l0.23 0.18c2.94,3.02 3.43,6 10.31,6.74 12.28,5.22 16.22,-6.14 24.74,-17.5 2.88,-5.77 8.12,-9.17 11.86,-14.08l-4.71 0c0,0 -3.53,3.53 -3.53,3.53l-7.06 7.06c0,0 0,0 0,0 0,0 0,0 0,0 -3.53,3.53 0,-7.05 0,3.53l0 3.53c-1.87,3.74 -3.74,7.47 -6.66,10.16 7.56,-1.56 10.6,-7.64 13.64,-13.72l0 -3.53c0,-10.59 -3.53,0 0,-3.53 0,0 0,0 0,0 0,0 0,0 0,0l14.07 -3.52c0,0 0,-3.53 3.53,-3.53 3.53,-3.53 3.53,0 7.06,0 0,-7.05 0,-7.05 0,-10.58 0,-10.59 -3.53,0 0,-7.06 3.53,-7.06 0,0 3.53,-3.53 0,0 0,0 0,0 0,0 0,0 0,0 0,0 0,0 0,0 3.53,-3.53 -3.53,3.53 3.53,0 0,-3.53 -3.53,-3.53 0,-7.06 3.53,-7.06 0,-3.53 3.53,-7.06l3.53 -3.53c3.53,-3.52 3.53,-7.05 7.06,-10.58 0,0 3.53,-3.53 3.53,-3.53 0,0 0,0 0,0 0,0 0,0 0,0 0,0 0,0 0,0 -1.92,-1.92 -2.8,-2.8 -3.2,-3.77zm-22.81 -3.27l-2.1 0c0,0 0,0 0,0 0,0 0,0 0,0 0,0 0,0 0,0l0 2.92c-1.96,2.45 -4.26,4.76 -7.17,7.67 -4.52,4.52 -8.39,11.61 -11.9,19.08l-2.1 2.09c0,0 0,0 0,0l-3.53 7.06c-3.53,7.06 -7.06,10.58 -10.58,14.11l-2.98 2.98c-6.02,-1.12 -9.37,-3.81 -14.78,-6.52 0,7.06 3.53,7.06 10.58,10.58l0.07 0.03c-6.31,6.08 -4.91,3.04 -14.06,-0.01 -7.06,0 -10.58,0 -10.58,-10.58 0,0 -7.06,-21.17 -10.58,-24.7 -3.53,-7.06 -3.53,-21.17 -3.53,-31.75 3.53,0 21.17,14.11 35.28,3.53 7.06,-7.06 7.06,-3.53 14.11,-7.06 17.64,-10.58 28.22,-31.75 45.86,-49.39l3.53 -7.06c3.53,-17.64 -3.53,-10.58 7.06,-17.64 3.53,-3.53 0,0 3.53,-3.53 5.28,-7.04 7.92,-8.8 9.25,-9.69 0.27,0.64 0.65,1.5 1.22,2.63 0,-3.53 3.53,-7.06 7.06,-10.58 3.53,-3.53 3.53,0 7.06,-3.53 0,3.53 0,3.53 0,7.06 0,7.06 0,0 -10.58,14.11 -3.53,3.53 0,0 -3.53,3.53 -7.06,7.06 -3.53,0 -7.06,17.64 3.53,-3.53 7.06,-7.06 10.58,-14.11l24.7 -21.17c3.53,-3.53 7.06,-7.06 10.58,-10.58 3.53,-3.53 3.53,-3.53 7.06,-7.06 7.06,0 10.58,0 10.58,7.06 0,3.53 -3.53,7.06 -7.06,10.58l-17.64 17.64c-7.06,10.58 -28.22,28.22 -31.75,35.28 -3.53,7.06 0,7.06 -7.06,10.58 -3.53,3.53 -7.06,7.06 -7.06,10.58 -7.06,7.06 -14.11,7.06 -17.64,17.64 -1.52,4.55 -3.04,7.8 -4.84,10.58zm36.71 -106.82l0 -2.54c-3.53,0 -3.53,0 -7.06,3.53 -3.53,3.53 -7.06,7.06 -7.06,10.58 -3.53,-7.06 0,-3.53 -7.06,-3.53 -3.53,3.53 -14.11,21.17 -21.17,24.7l-3.53 0c3.53,10.58 -7.06,17.64 -14.11,24.7 -3.53,3.53 -10.58,10.58 -14.11,14.11 -7.06,10.58 -7.06,7.06 -7.06,14.11 -5.31,0 -6.17,1.78 -7.06,3.55l-0.07 -0.03c-3.53,-3.53 -3.53,-7.06 -10.58,-14.11 -7.06,-7.06 -7.06,-7.06 -7.06,-14.11 0,-7.06 -3.53,-14.11 -3.53,-17.64 3.53,-3.53 7.06,-7.06 14.11,-3.53 7.06,3.53 3.53,7.06 7.06,14.11 17.64,0 10.58,-10.58 28.22,-21.17 14.11,-10.58 35.28,-42.34 59.97,-49.39 10.58,-3.53 17.64,-10.58 24.7,-7.06 0,7.06 -3.53,0 -7.06,7.06 -9.21,12.28 -10.4,8.53 -17.54,16.66zm-89.14 90.74c-0.9,1.12 -2.43,1.98 -6.13,1.98l-0.1 0c0,-4.29 2.6,-3.37 6.23,-1.98zm438.31 -2065.4c0,2.87 2.34,3.41 7.02,3.51zm-128.66 220.49c-0.15,-2.56 0.04,-5.47 -0.22,-7.94 2.21,-0.11 4.75,-0.12 8.99,2.7l-3.53 0 -5.24 5.24zm-5.37 -8.75l0 7.01 -3.53 -3.53c3.51,0 3.53,0 3.53,-3.48zm-8.77 -14.95c-1.77,0.33 -3.64,0.78 -5.32,0.38l0 -6.61c0,-3.53 0,0 0,-3.53 3.53,-7.06 3.53,0 3.53,0 2.18,2.18 1.67,5.71 1.79,9.76zm-5.97 0.18c-1.08,-0.43 -2.07,-1.28 -2.87,-2.87l2.87 2.87zm-2.87 -2.88l-0.03 -0.05c-3.53,-7.06 -7.06,-3.53 -7.06,-10.58 0,-3.21 -0.12,-5.6 -0.31,-7.41 2.75,-0.41 5.55,-1.45 7.39,0.39 0,3.53 0,3.53 0,3.53 0,3.53 0,0 3.53,3.53 0,0 0,3.53 0,7.06 0,3.53 0,3.53 -3.52,3.53zm-21.18 -100.01l-1.83 -0.61 -1.7 -1.7c-0.77,0 -1.38,0.17 -1.85,0.51l-1.69 -0.56c-3.53,0 -3.53,-7.06 -3.53,-7.06l0 -7.06c0,-1.36 -0.12,-2.54 -0.3,-3.59l0.32 0.11c7.06,0 3.53,0 10.58,7.06 3.53,3.53 3.53,0 7.06,7.06 -6.76,6.76 -7.05,-2.66 -7.06,5.84zm-24.72 -76.05c-0.94,-0.26 -2.08,-0.41 -3.52,-0.41 0,7.06 0,10.58 0,14.11 0,0 0,0 0,0 0,0 0,0 0,0l0 7.06c0,0 0,0 0,0 0,0 0,0 0,0 0,3.53 0,10.58 0,17.64l0 14.11c0,0 0,3.53 0,3.53l-3.53 10.58c0,3.53 0,7.06 3.53,10.58l0 17.64c-3.53,0 0,0 -3.53,3.53l-3.53 3.53c0,0 0,0 0,0 -3.53,3.53 -17.64,0 -24.7,0l-7.06 0c0,0 0,0 0,0 -7.06,3.53 0,0 -10.58,0 -10.58,0 -7.06,-3.53 -14.11,-10.58 0,-3.53 -3.53,-3.53 -3.53,-3.53l-3.53 -3.53c0,-1.48 0,-2.95 0.26,-4.68 1.31,0.79 3.27,1.19 6.82,1.19 10.58,0 3.53,7.06 10.58,0 0,0 0,0 0,0l7.06 0c7.06,0 21.17,3.53 24.7,0 0,0 0,0 0,0l3.53 -3.53c3.53,-3.53 0,0 3.53,-3.53l0 -17.64c-3.53,0 -3.53,-3.53 -3.53,-10.58l3.53 -10.58c0,0 0,-3.53 0,-3.53l0 -14.11c0,-7.06 0,-10.58 0,-17.64 0,0 0,0 0,0 0,0 0,0 0,0l0 -7.06c0,0 0,0 0,0 0,0 0,0 0,0 -3.53,-3.53 0,-10.58 0,-14.11 7.06,0 10.58,3.53 10.58,7.06 3.53,-3.53 0,0 3.53,-3.53l3.53 -3.53c0,0 0,0 0,0 0,0 0,0 0,0 0,0 0,0 0,0 0,3.53 3.53,3.53 3.53,7.06 -3.53,7.06 -3.53,0 -3.53,10.58l-0.03 3.9zm-64.2 28.57c-1.6,-5.46 -4.88,-2.18 0.72,-7.78l2.33 -4.66 1.17 1.17 -3.53 10.58 -0.69 0.69zm5.19 -25.18c0.52,-1.25 1.32,-2.5 2.56,-3.74l0 0.01c0,9.5 0,4.79 -2.56,3.73zm-60.92 123.24c28.22,0 28.22,3.53 45.86,17.64 17.64,14.11 17.64,31.75 21.17,38.81 3.53,7.06 10.58,35.28 14.11,45.86 3.53,24.7 3.53,31.75 -7.06,49.39l-17.64 0c0,3.53 -3.53,3.53 -7.06,3.53 -7.06,10.58 -31.75,3.53 -38.81,3.53 0,-3.53 0,0 0,-3.53 -3.53,-7.06 -3.53,-7.06 -7.06,-17.64 -3.53,-10.58 -7.06,-14.11 -10.58,-21.17 -3.53,-3.53 -3.53,-17.64 -7.06,-24.7 -3.53,-10.58 -10.58,-10.58 -10.58,-17.64 0,-7.06 0,-7.06 -3.53,-14.11 0,-3.53 -3.53,-7.06 -7.06,-10.58 -3.53,-10.58 -10.58,-24.7 3.53,-35.28 3.53,-3.53 3.53,-3.53 7.06,-7.06 7.07,-3.52 17.65,-3.52 24.71,-7.05zm243.42 543.31c-3.53,-21.17 -3.53,-45.86 -10.58,-59.97 -7.06,-10.58 3.53,-10.58 -7.06,-38.81 -3.53,-7.06 -3.53,-10.58 -3.53,-17.64 -3.53,-7.06 0,-14.11 -3.53,-17.64 -3.53,-7.06 -3.53,-7.06 -7.06,-17.64 -3.53,-10.58 -7.06,-24.7 -10.58,-35.28 -3.53,-14.11 -3.53,-24.7 -10.58,-35.28 -7.06,-14.11 0,-14.11 -10.58,-35.28 -7.06,-17.64 -3.53,-17.64 -3.53,-28.22 0,-7.06 0,-3.53 0,-10.58 10.58,0 17.64,14.11 21.17,24.7l31.75 84.67c0,7.06 0,14.11 3.53,21.17 3.53,7.06 3.53,7.06 3.53,17.64 3.53,31.75 7.06,24.7 7.06,38.81 0,7.06 0,28.22 7.06,42.34 3.53,10.58 7.06,3.53 7.06,17.64 0,17.64 3.53,28.22 7.06,42.34l3.53 42.34c0,14.11 7.06,24.7 7.06,38.81 3.53,38.81 3.53,21.17 7.06,38.81 0,7.06 3.53,14.11 3.53,21.17 3.53,7.06 7.06,10.58 7.06,17.64 3.53,14.11 3.53,24.7 10.58,35.28l31.75 63.5c3.53,7.06 3.53,7.06 10.58,14.11 21.17,21.17 -3.53,28.22 -17.64,14.11 -7.06,-7.06 -14.11,-14.11 -21.17,-24.7 -7.06,-10.58 -10.58,-17.64 -14.11,-31.75 0,-7.06 -3.53,-10.58 -7.06,-14.11 -3.53,-3.53 0,-14.11 -3.53,-17.64 -10.58,0 -10.58,17.64 -14.11,28.22 -7.06,24.7 0,21.17 0,35.28 0,7.06 0,7.06 0,10.58l3.53 63.5c0,7.06 0,38.81 7.06,49.39 0,7.06 3.53,14.11 3.53,21.17 0,10.58 0,14.11 3.53,21.17 7.06,10.58 3.53,7.06 7.06,17.64 0,10.58 3.53,10.58 3.53,24.7 -10.58,0 -17.64,-7.06 -21.17,-14.11 -10.58,-17.64 -7.06,-7.06 -14.11,-21.17 -3.53,-7.06 -3.53,-7.06 -7.06,-10.58 0,-3.53 -3.53,-10.58 -3.53,-14.11 -10.58,-24.7 -10.58,-56.45 -14.11,-84.67 -3.53,-52.92 3.53,-88.2 3.53,-130.53l3.53 -63.5c3.49,-31.8 7.02,-88.24 -0.04,-123.52l0 0zm-278.7 754.97c0,-14.11 3.53,-17.64 7.06,-31.75 3.53,-7.06 3.53,-21.17 14.11,-24.7 3.53,3.53 3.53,7.06 7.06,10.58 10.58,24.7 3.53,0 14.11,35.28 3.53,10.58 -7.06,70.56 -10.58,84.67 -3.53,14.11 -7.06,45.85 -10.58,52.91 -7.06,10.58 -10.58,17.64 -14.11,17.64 -3.53,-7.06 0,-3.53 0,-7.06 0,-3.53 -3.53,-49.38 -3.53,-56.44 -7.07,-31.74 -3.54,-42.32 -3.54,-81.13l0 0zm-335.16 -433.93c0,3.53 0,3.53 -3.53,3.53 0,0 -21.17,10.58 -17.64,-7.06 0,-3.53 3.53,-3.53 3.53,-7.06 0,-14.11 10.58,-17.64 17.64,-24.7 3.53,-3.53 7.06,-7.06 10.58,-10.58 3.53,-3.53 3.53,-10.58 7.06,-14.11 7.06,-17.64 21.17,-28.22 24.7,-42.34 3.53,-7.06 3.53,-10.58 7.06,-14.11 3.53,-7.06 3.53,-10.58 3.53,-17.64 3.53,-7.06 3.53,-3.53 7.06,-14.11 0,-7.06 3.53,-7.06 3.53,-17.64 3.53,-14.11 10.58,-63.5 3.53,-77.61 -3.53,-7.06 -3.53,-10.58 0,-17.64 14.11,-3.53 17.64,3.53 28.22,10.58 0,24.7 -3.53,56.45 -10.58,77.61 -3.53,7.06 -3.53,31.75 -7.06,35.28 -7.06,10.58 0,10.58 -10.58,31.75l-14.11 28.22c-7.06,14.11 0,7.06 -17.64,28.22 -3.53,7.06 -7.06,7.06 -10.58,10.58 -3.53,3.53 -7.06,7.06 -10.58,10.58 -0.02,14.14 -7.08,17.66 -14.14,28.25zm-98.78 -21.17c-7.06,0 -10.58,-14.11 -17.64,-28.22 -7.06,-17.64 -7.06,-56.45 -7.06,-77.61 0,-10.58 3.53,-10.58 3.53,-17.64 3.53,-28.22 7.06,-17.64 10.58,-31.75 3.53,-7.06 3.53,-7.06 7.06,-14.11l17.64 -28.22c7.06,-10.58 14.11,-14.11 21.17,-24.7 7.06,-7.06 14.11,-14.11 21.17,-21.17l24.7 -17.64c10.58,-10.58 14.11,-10.58 28.22,-17.64 10.58,-3.53 0,-7.06 28.22,-17.64 17.64,-7.06 10.58,-10.58 31.75,-10.58 17.64,0 42.34,7.06 59.97,0 7.06,-3.53 14.11,0 21.17,-3.53 7.06,0 10.58,-3.53 17.64,-3.53 10.58,-3.53 49.39,-7.06 56.45,-7.06 0,7.06 -10.58,14.11 -17.64,17.64 -24.7,3.53 -14.11,3.53 -28.22,7.06l-84.67 21.17c-7.06,3.53 -3.53,3.53 -10.58,7.06 -3.53,0 -10.58,3.53 -14.11,3.53 -7.06,3.53 -45.86,14.11 -49.39,21.17 -10.58,10.58 -28.22,10.58 -45.86,28.22 -7.06,7.06 -17.64,7.06 -38.81,31.75 -21.17,24.7 -14.11,14.11 -28.22,45.86 -14.11,35.28 -7.06,31.75 -10.58,42.34 -3.53,10.58 -3.53,31.75 0,45.86 0,7.06 0,10.58 0,17.64 -0.02,7.04 7.04,7.04 3.51,31.74l0 0zm560.94 -31.75c0,3.53 -14.11,21.17 -21.17,28.22 -14.11,14.11 -10.58,21.17 -21.17,24.7 0,-14.11 0,-14.11 3.53,-24.7 3.53,-7.06 7.06,-14.11 10.58,-21.17 3.53,-10.58 7.06,-10.58 10.58,-17.64 0,-3.53 0,-10.58 10.58,-17.64 3.53,-7.06 3.53,-10.58 7.06,-17.64 3.53,-7.06 3.53,-10.58 7.06,-14.11 3.53,-10.58 10.58,-14.11 14.11,-28.22 3.53,-14.11 10.58,-17.64 10.58,-31.75 3.53,-21.17 10.58,-35.28 14.11,-52.92 0,-7.06 3.53,-10.58 3.53,-17.64 3.53,-14.11 0,-28.22 3.53,-42.34 0,-17.64 3.53,-21.17 0,-42.34 0,-7.06 -3.53,-10.58 -3.53,-17.64 0,-10.58 3.53,-17.64 10.58,-14.11 3.53,3.53 10.58,28.22 10.58,35.28 7.06,24.7 3.53,105.84 -3.53,127.01 -3.53,17.64 3.53,14.11 -3.53,42.34 -3.53,14.11 -3.53,24.7 -3.53,38.81 0,67.03 7.06,38.81 7.06,59.97 0,14.11 3.53,10.58 3.53,21.17 -3.53,3.53 -7.06,3.53 -14.11,3.53 -14.11,-7.06 -3.53,-42.34 0,-42.34 -17.64,-10.58 -17.64,-3.53 -28.22,3.53 -24.68,10.58 -21.15,14.11 -28.21,17.64z"/>
 </g>
</svg>
