<?xml version="1.0" encoding="utf-8"?>
<!-- Generator: Adobe Illustrator 26.0.3, SVG Export Plug-In . SVG Version: 6.00 Build 0)  -->
<svg version="1.1" id="Слой_1" xmlns="http://www.w3.org/2000/svg" xmlns:xlink="http://www.w3.org/1999/xlink" x="0px" y="0px"
	 viewBox="0 0 239.5 150.2" style="enable-background:new 0 0 239.5 150.2;" xml:space="preserve">
<style type="text/css">
	.st0{fill:#181914;}
</style>
<g>
	<path class="st0" d="M221.5,111.1c-0.1-0.5-0.2-1-0.4-1.5c-0.2-0.6-0.7-1.1-0.8-1.8c-0.1-0.6-0.1-1.2-0.3-1.7
		c-0.2-0.7-0.8-1.2-0.8-1.9c0-0.8,0.2-1.6,0-2.3c-0.2-1.2-0.9-2.3-1.4-3.4c-1-1.5-1.3-3.3-1.1-5.1c0-1.5,0-3,0-4.4
		c-0.4-2.3-0.5-4.5-0.9-6.8c0-1-0.4-1.9-0.4-2.9c-0.4-2.3-1.5-4.4-2.3-6.6c-1.2-2.6-2.1-5.3-3.3-7.9c-0.6-1.7-1.2-3.4-1.5-5.2
		c-0.1-0.4-0.4-0.8-0.5-1.2c-0.3-1.9-0.4-3.9-0.2-5.8c0.2-1.1,0.5-2.2,0.9-3.3c0.5-1.3,0.7-2.7,1.2-4s1-2.6,1.4-3.9
		c0.4-1.6,0.3-3.3,0.3-4.9c0-1-0.3-1.9-0.5-2.8c-0.6-1.3-1-2.7-1.6-4c-0.9-1.7-1.5-3.4-2.5-5.1c-0.7-1.5-1.9-2.8-2.9-4
		c-1.5-1.4-3-2.7-4.7-3.9c-1.3-0.7-2.4-1.6-3.6-2.4c-1.2-0.5-2.5-0.8-3.8-1.2c-1.5-0.2-3-0.4-4.4-0.4c-0.8,0-1.7-0.3-2.5-0.4
		c-2.9-0.3-5.8-0.4-8.7-0.4c-3.6,0.4-7.2,0.3-10.8,1.2c-3.2,0.5-6.5,1-9.6,2.2c-2.9,1.1-5.7,2.2-8.2,3.9c-0.8,0.6-1.7,1-2.3,1.8
		c-1.2,1.2-2,2.6-2.8,4c-0.4,0.9-0.4,1.9-0.7,2.8c-0.4,1.2-0.3,2.5-0.2,3.7c0.1,0.8,0.1,1.7,0.4,2.5c0.3,1.3,0.4,2.7,1.1,3.8
		c-0.2,1.2-0.5,2.5-0.6,3.7c-0.3,2.2-0.2,4.4-0.4,6.6c-0.2,1.5,0,3-0.3,4.5c-0.1,0.8,0,1.7-0.1,2.5c-0.3,2.4-0.5,4.8-0.5,7.2
		c-0.1,1.3-0.1,2.6-0.1,3.9c0,1.4-0.1,2.7,0.1,4.1c0.3,1.3-0.1,2.7,0.3,4.1c0,1-0.1,2.1-0.1,3.1c-0.2,2.1-0.4,4.2-0.3,6.4
		c0.2,2.1,0.1,4.2,0.5,6.3c0.3,2.7,0.4,5.5,0.6,8.2c0.1,4.6,0.8,9.1,1.1,13.7c0.4,1.6,0.2,3.3,0.9,4.8c0.1,1.5,0.4,2.9,0.6,4.4
		c0.4,2.5,0.7,5,1,7.5c0.3-0.3,0.7-0.3,1.1-0.4c1.3-0.1,2.6-0.1,3.9,0c0,0.1-0.1,0.2-0.2,0.3c0.3,1.6,0.6,3.2,0.5,4.8
		c0.1,0,0.4,0.1,0.5,0.2c0.2,1.2-0.2,2.4,0.1,3.6c0.2,1,0.1,2,0.1,3c0.1,1.6,0.8,3.1,0.5,4.7c0.6,0.1,1.1-0.1,1.7-0.1
		c1.1-0.1,2.2,0,3.4-0.1c0-0.6,0.1-1.1,0.1-1.7c-0.4-3.7-1-7.4-0.8-11.1c-0.7,0-1.5,0.1-2.2,0.1c-0.1-0.9-0.4-1.7-0.4-2.6
		c0.1-0.3-0.4-0.6-0.5-0.3c0,1,0.3,1.9,0.2,2.9c-0.7,0-1.5,0-2.2,0c-0.2-1.1-0.4-2.3-0.4-3.4c1,0.1,1.9,0.3,2.9,0.2l-0.2,0.2
		c1.2,0,2.3,0.1,3.4,0.4c2,0.3,4-0.1,6,0.2c1.4,0.1,2.8,0.2,4.2,0.3c2.8,0.4,5.7-0.4,8.5-0.2c1.2,0.1,2.4-0.1,3.6-0.1
		c0.1,0.8,0.4,1.7,0.1,2.6c-0.2,0.5-1.3,1-0.6,1.6c0.3-0.5,0.6-0.9,1-1.3c0.3-0.1,0.7-0.1,1.1-0.1c1.1,0.2,2.2,0.4,3.3,0.4
		c0.1-0.7-0.7-0.6-1.1-0.6c-1.1,0.1-2.1-0.3-3.1-0.2c0-0.6,0-1.2-0.1-1.8c-0.3-1.2,0-2.4-0.2-3.5c-0.1-2.3-0.2-4.6-0.4-6.9
		c0,0,0.1-0.1,0.2-0.2c1.3-0.3,2.9,0.4,4-0.5c0.2-0.7-0.1-1.3-0.2-2c0.5,0,0.9,0,1.4,0c0.1,0.7,0,1.4,0.1,2c0.3,2.1,0.3,4.1,0.3,6.2
		c0,1.6-0.3,3.2-0.2,4.8c0.1,0,0.4-0.1,0.6-0.1c0-3.4,0.3-6.8,0-10.2c-0.2-0.8-0.1-1.7-0.2-2.5c-0.1-0.3,0-0.7-0.4-0.7
		c-0.6,0-1.1,0-1.7,0c-0.1-0.9-0.4-1.8-0.2-2.8c0.2-0.8,0.2-1.7,0.3-2.5c0.4-1.3,0.3-2.7,0.3-4.1c0-1.2-0.1-2.5-1-3.4
		c-0.5-0.5-1-0.9-1.2-1.6c-0.1-0.6-0.1-1.2-0.2-1.9c-1,0-2.1,0.5-3.1-0.1c0-0.9,0-1.8-0.1-2.7c-0.3-1.4-0.5-2.8-0.7-4.1
		c1,1.4,2.8,1.6,4.4,1.9c1.3,0,2.6-0.1,3.7-0.7c0.8-0.2,1.3-0.8,1.9-1.4c0.4-0.5,1-1,1.1-1.7c0-0.5-0.2-0.9-0.4-1.4
		c-0.7-1.4-2.1-2.2-3.5-2.8c-1.3-0.5-2.7-0.1-4.1,0c-1.7,0.1-3.2,1.3-3.9,2.8c-0.3-1-0.4-2.1-0.8-3.1c-0.5-1.5-0.6-3.1-0.6-4.6
		c0-1.4-0.6-2.8-0.6-4.3c0.1-1.9,0.3-3.8,0.1-5.6c-0.2-1-0.1-2.1,0.1-3.1c0.5,1.8,1.2,3.5,1.8,5.3c0.4,1.1,0.7,2.2,1.7,3
		c0.6,0.7,1.6,0.8,2.4,0.5c0.6-0.4,1-1.1,1.4-1.6c0,1.1-0.1,2.2,0.4,3.2s1.6,1.9,2.8,2c1.2,0,2.3,0.3,3.5,0.2
		c1.4-0.1,2.8,0.2,4.3,0.3c1-0.1,1.9-0.8,2.7-1.4c-0.4,1.3-0.9,2.6-1.3,3.9c-0.5,2-1.2,4-1.2,6.1c0.1,1.5-0.4,3-0.2,4.4
		c-0.1,1.5,0.4,2.9,0.9,4.3c0.5,1.6,1.3,3,1.7,4.6c0.1,0.7,0.2,1.4,0.3,2c-1.7-0.6-3.5-0.7-5.2-0.1c-1,0.3-1.8,1.1-2.4,1.9
		c-0.7,0.9-1.1,2-1,3.1c-0.1,1.3,0,2.9,1.2,3.6c1.6,0.9,3.5,0.4,5.2,0.2c-0.6,2-0.9,4.2,0,6.2c0.1,0.1,0.2,0.2,0.3,0.3
		c0-0.3,0.1-0.6,0-0.9c-0.7-1.6-0.4-3.4,0-5.1s0.9-3.4,1.6-4.9c0.5-1.1,0.7-2.4,0.9-3.6c-0.1-0.5-0.2-1-0.2-1.5
		c-0.1-1.9-1.1-3.6-1.7-5.4c-0.4-1.1-0.7-2.2-0.9-3.3c0.1-1.3-0.3-2.6,0-3.9c0.3-1.1,0.1-2.2,0.2-3.4c0.3-1.6,0.7-3.1,1.1-4.6
		c0.4-1.7,1.2-3.4,1.5-5.1s0.5-3.4,0.9-5.1c0.1-0.9,0.5-1.8,0.6-2.7c0.1-2,0.5-3.9,0.5-5.8c0.1-2.1,0.2-4.2,0.2-6.4
		c-0.2-1.4-0.3-2.8-0.6-4.2c1.4-0.3,2.6-1,3.8-1.7c0.8-0.3,1.2-1.1,1.9-1.5c0.2-0.8,0.9-1.4,1.6-1.8c0.6-0.3,0.7-1,1-1.5
		c1.2-2.2,1.5-4.7,2.6-7c0.6-1.3,0.6-2.7,0.8-4c-0.3-1.5-0.3-3-0.9-4.5c-0.4-1.2-0.9-2.3-1.5-3.4c0.3-0.5,0.4-1.1,0.5-1.7
		c0.3,0.5,0.6,1,0.8,1.6c0.8,2.1,1.8,4.2,2,6.4c0.1,1.6,0.1,3.2-0.2,4.8c-0.3,1-0.7,2-1,3c-0.8,1.7-0.9,3.5-1.6,5.2
		c-1,2.5-1.1,5.3-0.7,7.9c0.3,2.4,1,4.7,1.8,7c0.7,1.7,1.5,3.4,2.1,5.2c1.1,2.9,2.5,5.7,3.4,8.7c0.4,1.1,0.2,2.4,0.5,3.5
		c0.5,2.2,0.5,4.4,0.9,6.5c0.2,1.3,0,2.6,0.1,3.9c0.1,1.4-0.2,2.8,0.2,4.1c0.4,1.5,1.1,2.9,1.8,4.2c0.6,1.1,0.6,2.3,0.5,3.5
		c-0.1,0.9,0.6,1.5,0.9,2.3c0.3,0.6,0.2,1.2,0.3,1.8c0.3,0.8,0.9,1.5,1.1,2.3c0.2,1,0.1,2,0,3c0,1.7,0.4,3.5-0.3,5.2
		c-0.3,0.8-0.8,1.9-0.2,2.7c0.2,0,0.3-0.1,0.5-0.1c-0.1-0.3-0.2-0.5-0.4-0.8c0.2-1.2,0.9-2.3,0.9-3.5c0-1,0-2.1-0.1-3.1
		C221.3,112.9,221.7,112,221.5,111.1z M152.3,132.3c1.3-0.1,2.6-0.1,3.9,0c0.2,1.3,0.2,2.6,0.2,3.9c0.2,2.1,0.5,4.3,0.7,6.4
		c0.1,0.4,0,0.8-0.2,1.2c-1.2,0.2-2.5,0.2-3.7,0.2c-0.2-1.6-0.8-3.3-0.7-4.9c0.1-1.1-0.2-2.2-0.2-3.3
		C152.3,134.7,152.2,133.5,152.3,132.3z M196,107.5c-0.3-0.7-0.9-1-1.6-1.2c-1-0.1-1.8,1.1-1.4,2.1c0.7,0.9,2.1,0.9,2.9,0.1
		c-0.7,1.9-1.6,3.8-2.1,5.9c-1.7,0.2-3.5,0.8-5-0.1c-1.1-0.6-1.1-2.1-1.1-3.2c0-1.6,0.9-3,2.1-4c1.1-1,2.6-1,4-1.1
		c0.8,0.1,1.7,0.2,2.3,0.9C196,107.1,196,107.3,196,107.5z M193.9,108.1c0.3,0.3,0.9,0.3,1.2,0c0.1-0.3,0.2-0.6,0.3-0.9
		c0.1,0.3,0.3,0.7,0.1,1c-0.5,0.7-1.7,0.5-2.1-0.2c0-0.3,0.2-0.6,0.3-0.9C193.7,107.4,193.6,107.9,193.9,108.1z M193.8,107.5
		c0.2-0.1,0.4-0.6,0.7-0.4c0.5,0.1,0.4,0.7,0,0.9C194.2,108.1,194,107.8,193.8,107.5z M206.4,28.8c-0.1-0.3-0.2-0.6-0.3-0.8
		c0.4-0.6,0.7-1.4,0.7-2.1C207.3,26.8,207.2,28,206.4,28.8z M206.3,24.7c0.1,0.9,0.1,1.9-0.6,2.7c-0.4-0.4-0.8-0.8-1.2-1.1
		c0.7-1.1,1-2.4,0.6-3.7C205.6,23.3,206,24,206.3,24.7z M204.7,28.9c-0.3,0-0.7,0-1,0c-0.1,0.4,0.1,1-0.4,1.1
		c0.1-0.4,0.2-0.8,0.3-1.3c-0.5,0-0.8,0.5-1.2,0.5c0.1-0.2,0.2-0.4,0.3-0.6c0.3-0.1,0.5-0.3,0.8-0.4c0.1-0.4-0.4-0.5-0.7-0.7
		c-0.1-0.2-0.2-0.4-0.3-0.7c0.6-0.3,1,0.4,1.2,0.8c0.4-0.2,0.7-0.4,1.2-0.2c-0.2,0.4-0.6,0.6-0.9,0.8
		C204.2,28.6,204.5,28.7,204.7,28.9z M204.1,21.6c0.7,1,0.9,2.2,0.5,3.3c-0.2,0.4-0.4,0.8-0.8,0.9c-0.3-0.1-0.5-0.3-0.7-0.4
		c0.3-0.7,0.7-1.3,0.6-2.1c-0.1-1-0.6-2.1-1.6-2.6c-1.3-0.6-3,0.2-3.4,1.6c-0.2-0.2-0.3-0.4-0.5-0.6c0.7-1.5,2.5-2.2,4.1-1.8
		C203.2,20.3,203.7,21,204.1,21.6z M202.7,23.8c0.1-1-0.9-2-1.9-1.8c-0.7,0.1-1.1,0.7-1.5,1.3c-0.4-0.5,0.1-1,0.4-1.4
		c0.5-0.7,1.5-0.9,2.3-0.7c1.3,0.6,1.9,2.5,0.9,3.7c-0.1,0.2-0.3,0.4-0.5,0.5C202.4,24.8,202.7,24.3,202.7,23.8z M200.8,23.2
		c-0.5-0.1-0.7,0.4-1,0.7c-0.3-1,1.1-2.1,1.9-1.3c0.5,0.4,0.7,1.1,0.5,1.6c-0.2,0.3-0.5,0.5-0.7,0.7
		C201.8,24.3,201.6,23.3,200.8,23.2z M201,24.5c-0.2-0.1-0.5-0.2-0.7-0.2c0.1-0.2,0.3-0.5,0.5-0.7C201.1,23.8,201.1,24.2,201,24.5z
		 M199.6,19.9c-0.7,0.3-1.1,0.9-1.6,1.3c-0.2-0.2-0.3-0.4-0.5-0.6c0.8-1.4,2.7-2,4.2-1.3C201,19.4,200.3,19.5,199.6,19.9z
		 M199.1,18.9c-0.8,0.2-1.3,0.8-1.9,1.3c-0.1-0.1-0.3-0.3-0.4-0.4c0.2-0.5,0.3-1.1,0.8-1.4c1.1-0.8,2.6-0.5,3.6,0.2
		C200.5,18.6,199.8,18.6,199.1,18.9z M199.7,17.5c-1.3-0.2-2.6,0.5-3.4,1.5c-0.2-0.6-0.3-1.3-0.8-1.7c0.5-0.6,0.8-1.3,0.7-2.1
		C197.3,16,198.5,16.7,199.7,17.5z M194.5,14.3c0.3,0.1,0.6,0.2,0.9,0.3c0.1,0.6,0.5,1.4,0,1.9c-0.4,0.6-1.1,0.4-1.6,0.1
		c0.1-0.1,0.3-0.2,0.4-0.3C194.4,15.6,194.8,14.9,194.5,14.3z M193.2,13.9c0.7-0.1,0.9,0.6,0.9,1.2c-0.1,0.4-0.4,0.9-0.8,1.1
		c-0.2-0.2,0-0.5,0-0.7C193.5,14.9,193.3,14.4,193.2,13.9z M192.1,13.5c0.6,0.4,1,1.3,0.7,1.9c-0.3,0.1-0.5-0.2-0.7-0.3
		C192.1,14.6,192.1,14,192.1,13.5z M190.9,13.4c0.1,0,0.3,0,0.4,0c0.2,0.4,0.3,0.9,0.1,1.4c-0.2,0-0.5,0-0.7,0
		c0.1-0.3,0.3-0.6,0.4-0.8C191.1,13.7,191,13.5,190.9,13.4z M190.4,13.6c0.4,0.2,0.2,0.6-0.1,0.8c-0.4-0.1-0.6-0.4-0.7-0.7
		C189.8,13.5,190.2,13.3,190.4,13.6z M188.8,13.2c0.1,0,0.4,0,0.5,0c-0.2,0.4-0.3,0.8-0.1,1.2c-0.3,0-0.5,0-0.8,0
		C188.3,13.9,188.5,13.5,188.8,13.2z M187.1,13.6c0.2-0.2,0.3-0.4,0.5-0.6c0.1,0,0.3,0,0.5,0c-0.2,0.4-0.3,0.8-0.4,1.3
		c-0.2,0-0.4,0-0.6,0C187.1,14.1,187.1,13.9,187.1,13.6z M192.1,30.4c0.9-0.7,1.6-1.7,2.3-2.6c-0.1-0.2-0.2-0.5,0-0.8
		c0.1,0.1,0.2,0.3,0.3,0.5c0.6-0.5,1.5-0.7,2.1-1.3c0.1,0.9,0.1,1.8-0.4,2.6c-0.4,0.6-0.9,1-1.3,1.6c-0.8,1.2-2.2,1.6-3.5,1.8
		c-0.5,0.1-1,0.4-1.3,0.9c0.5,0.1,0.8-0.4,1.2-0.5c0.5-0.1,1,0,1.5-0.2s1-0.5,1.5-0.7c0,0.6-0.1,1.2-0.3,1.8c-0.8,0.3-1.7,0-2.5,0.1
		c0-0.3,0-0.5-0.3-0.7c-0.3,0.2-0.3,0.6-0.3,1c-1.2,0.5-2.5,0.3-3.7,0.3c-0.4,0-0.8,0.3-1.1,0.4c0.2,0.6,0.7,0.1,1.1,0.1
		c0.7,0,1.4,0,2,0.1c-0.9,0.6-2,0.8-3,1.2c-0.7,0.3-1.5,0.3-2.3,0.3c-0.7-0.1-1.2-0.6-1.8-1s-1.3-0.6-1.9-1c-0.7-0.4-1.3-0.9-2.1-1
		c-0.8-0.2-1.7,0.1-2.5,0.2c-0.7,0.1-1.4,0.2-2.2,0.2c-1.4-0.2-2.8-0.8-4.2-1c-1.1-0.1-2.2-0.6-3.3-0.7c-3.2-0.1-6.3-1.6-8.4-4.1
		c-1.1-1.4-1.7-3.2-1.6-5c0.5-0.4,1.2-0.6,1.8-0.8c0.9-0.4,1.9-0.8,2.8-1.2c1.6-0.5,2.9-1.5,4.4-2.1c1.7-0.9,3.5-1.5,5.4-1.7
		c-1.2,1.6-1.7,3.5-3,5.1c-0.3,0.4-0.3,0.9-0.7,1.3c-0.6,0.8-1.2,1.7-1.8,2.5c-0.4,0.6-0.9,1-1.2,1.6c0,0.9,0,2.1,1.1,2.4
		c0.7,1,1.9,0.6,2.9,0.4c0.2-0.4,0.4-0.7,0.6-1.1c0.3,0,0.6,0,0.9-0.2c0.7-0.3,1.5-0.6,2-1.2c0.7-0.8,1.5-1.7,1.7-2.8
		c0.2-1.1,0.2-2.3,0.4-3.4c0.1-1.3,0.7-2.5,1.5-3.5c0,1-0.3,1.9-0.3,2.9c0.2,0.6,0.2,1.2,0.2,1.8c0,0.5,0.3,1,0.3,1.5
		c0,1-0.6,2.1-0.2,3.1c0.3,0.8,0.5,1.6,0.9,2.3c1.4,2,3.8,3,6.1,3.6c0.7,0.1,1.3,0.6,2,0.3c1-0.4,2.1-0.5,3.1-0.8
		C188.7,31.8,190.6,31.6,192.1,30.4z M198.3,28.2c0.1-0.1,0.2-0.2,0.3-0.4c0,0.5,0,0.9,0,1.4c0.3,0.7,0.9-0.2,1.3-0.3
		c-0.1,0.5-0.8,0.6-1,1.1c0.3,0.1,0.5,0.1,0.8,0.2c0,0.1-0.1,0.3-0.2,0.4c-0.5,0.2-0.7-0.5-1.1-0.4c-0.2,0.3-0.4,0.7-0.7,1
		c0-0.3,0.1-0.6,0.1-0.8c0.1-0.2,0.2-0.4,0.3-0.6c-0.4-0.2-0.8,0.2-1.2,0.2c0.2-0.8,1-0.6,1.6-0.6C198.6,28.9,198.5,28.5,198.3,28.2
		z M197.5,30.3c-0.1,0.4-0.2,0.9,0,1.3c-0.3,0.1-0.6,0.2-0.9,0.3c0-0.4,0.2-0.8-0.1-1.2c0-0.1-0.1-0.2-0.2-0.3
		c-0.1,0-0.4-0.1-0.6-0.1c0.3-0.3,0.5-0.6,0.8-0.9c0,0.3,0.1,0.6,0.2,0.9C197,30.3,197.3,30.3,197.5,30.3z M196.5,31.4
		c-0.4,0-1.1,0.2-0.8-0.5c0.1-0.1,0.2-0.2,0.2-0.3h0.2C196.3,30.9,196.4,31.1,196.5,31.4z M195.4,31.3c0.1,0.2,0.2,0.4,0.4,0.7
		c-0.3,0-0.6,0.1-0.9,0.1c0-0.2,0-0.5,0-0.6c0.1-0.1,0.3-0.3,0.4-0.5C195.3,31.1,195.3,31.2,195.4,31.3z M191.7,43.4
		c0.6,0.2,1.3,0.4,1.8,0.8c0.2,0.1,0.1,0.4,0.2,0.6c-1.7,0.2-3.3-0.4-4.9-0.5c-1.1-0.1-2.1-0.3-3.2-0.3c-0.1,0.1-0.2,0.3-0.2,0.4
		c1.2-0.3,2.4,0.1,3.6,0.2c0.5,0,1,0.1,1.4,0.3c-0.7,0.3-1.4,0.6-1.8,1.2c-0.8,0-1.6-0.1-2.4-0.3c0,0.1,0,0.3,0,0.4
		c0.7,0,1.4,0.1,2.1,0.3c-0.1,0.3-0.3,0.7-0.4,1c-1.1,0-2.4,0.2-3,1.1c-0.6,0.8-0.9,1.8-1.4,2.6c-0.5,0.7-1.1,1.2-1.8,1.8
		c-0.3-0.8-0.6-1.5-0.7-2.3c-0.1-0.6-0.1-1.2-0.3-1.7c0.9-1.1,1.7-2.3,2.8-3.2c0.6-0.4,1.2-0.9,1.3-1.7c0.2-0.5-0.3-1-0.9-0.8
		c-0.7,0.5-1.3,1-2,1.4c0-1,0.2-2.1,0.4-3.1c1.6-0.7,3.4-0.8,5.1-0.5c1.2,0,2.5,0.3,3.6,0.6c0.8,0.2,1.5,0.6,2.1,1.2
		c0.1,0.3,0.1,0.6,0.2,0.8c-0.6-0.1-1.3-0.3-1.9-0.5c-1.9-0.5-3.9-1-5.9-0.9l-0.2,0.3C187.4,42.3,189.6,42.8,191.7,43.4z
		 M183.9,40.4c-0.7,0-1.4,0.3-2.2,0.4c-0.1,1.1-0.4,2.2-0.4,3.3c0.1,1.1-1.2,1.4-1.9,1.9c0,0.3,0.3,0.4,0.5,0.3
		c0.6-0.3,1-0.9,1.6-1.3c0.7-0.5,1.5-1,2.2-1.5c0.1,0,0.3-0.1,0.5-0.1c0,0.4-0.1,0.8-0.2,1.1c-0.7,0.6-1.4,1-2,1.7
		c-0.9,1-1.6,2.2-2.5,3.1c-0.9,0.7-2.1,1-3.1,1.4c-1.1,0.3-1.9-0.8-1.8-1.8c1.4-1.4,2.9-2.9,4.1-4.5c0.7-1.5,1.7-2.8,2.1-4.5
		c0.9-0.4,2-0.3,2.9-0.4c0.7-0.1,1.3,0.4,1.9,0.7C185,40.4,184.5,40.4,183.9,40.4z M174.1,47.8c-0.1-1.7-0.1-3.4-0.2-5.1
		c-0.2-1-0.1-2-0.6-2.9c-0.2,0-0.5-0.1-0.6-0.1c-0.2,0.6-0.2,1.2-0.1,1.8c0,1.5,0.4,3,0.4,4.5c0,0.8,0.2,1.7,0.4,2.5l0.2-0.1
		c0,0.2,0,0.4,0.1,0.6c-2.7,0-5.4-0.1-8.1,0.2c-0.5,0.1-0.9,0.4-1.3,0.6c0-2.1-0.4-4.1-0.7-6.1c-0.3-1.2-0.5-2.4-0.7-3.6
		c2-0.4,4-0.1,5.9-0.2c1.6-0.2,3.2-0.1,4.8-0.3c1.3,0.1,2.6,0,3.9,0.2c-0.4,1.6,0.3,3.2,0.7,4.8c-0.9,1.2-1.9,2.3-2.9,3.4
		c-0.4,0.4-0.7,0.9-1.2,1.1c-0.1-0.1-0.2-0.3-0.3-0.4C173.9,48.4,174.2,48.2,174.1,47.8z M156.6,60.3c-0.3-1.3-0.8-2.5-0.9-3.8
		c0-1.3-0.2-2.5-0.1-3.8c0.5,0,1,0.4,1.6,0.2c1.3-0.2,2.6-0.3,3.9-0.5c1-0.2,2,0,3-0.1c0.4-0.6-0.1-1.4,0.1-2.1
		c0.2,0,0.4-0.1,0.6-0.1c0.4,3.1,0.9,6.2,1.6,9.3c-1-0.1-1.9-0.1-2.9-0.1c-1.3,0.1-2.5,0.5-3.7,0.6C158.7,60,157.6,60.1,156.6,60.3z
		 M157.4,66.3c-0.4,0-0.8-0.1-1.2-0.1c-0.3-1.8-0.7-3.6-0.4-5.5c0.5-0.1,0.9-0.2,1.4-0.2C157.3,62.5,157.6,64.4,157.4,66.3z
		 M155,60.5c-1.6,0.4-3.3,0.3-5,0.3c-0.3-2.3-0.8-4.6-0.5-6.9c1.7-0.1,3.3-0.6,4.9-0.9C154.4,55.5,154.6,58,155,60.5z M152.8,52.9
		c-0.2-1.3-0.3-2.7-0.5-4c-0.1-0.4,0.1-0.7,0.1-1.1c1.1,0,2.2,0,3.2,0.3c0.4,1.3,0.4,2.7,0.5,4.1C155.1,52.3,153.9,52.6,152.8,52.9z
		 M150.9,34.5c-0.5-0.1-1-0.2-1.6-0.2c-0.2-2-0.2-4-0.2-6c-0.1,0-0.4-0.1-0.5-0.2c2-2.1,4.2-4,6.8-5.3c0.2,1.7,0.6,3.5,1.7,4.9
		c1.4,1.8,3.4,3.1,5.5,3.8c0.5,2.6,0.5,5.3,0.7,8c-0.3,0-0.6,0-0.9,0c-0.3-1.7-0.6-3.4-0.9-5c-0.5-0.2-0.9,0.1-1.4,0.1
		c-1.3,0.4-2.7,0.4-4,0.6c-1.1,0.2-2.2-0.3-3.3-0.5c-0.5,0-0.4-0.7-0.5-1c-0.2-1.6-0.4-3.1-0.5-4.7c0-0.4,0-0.9-0.3-1.3
		c-0.4,0-0.9,0.1-1.2,0.3C150.7,30.3,150.8,32.4,150.9,34.5z M154.8,41.4c-0.3,0.1-0.6,0.1-0.9,0.1c0-2.1-0.4-4.1-0.7-6.1
		c0.3,0.1,0.5,0.2,0.8,0.3C154.5,37.5,154.6,39.4,154.8,41.4z M152.5,35.2c0.4,1.2,0.4,2.4,0.6,3.6c0.1,0.9,0.1,1.8,0.1,2.7
		c-0.2,0-0.4,0-0.6,0c-0.2-1-0.3-2.1-0.4-3.1c0-1.1-0.3-2.2-0.4-3.3C152.1,35.2,152.3,35.2,152.5,35.2z M154.8,41.9
		c0.3,1.9,0.6,3.8,0.8,5.7c-1.7-0.2-3.4-0.2-5.1,0c-0.4-1.9-0.8-3.8-0.7-5.8C151.4,41.9,153.1,41.9,154.8,41.9z M164.6,32.2
		c1.2,0.1,2.5,0.2,3.7,0.6c0.8,0.3,1.8,0.2,2.6,0.5c1,0.4,2,0.6,3,0.8c0.1,1.7,0.1,3.3,0,5c-1.9,0.1-3.8,0.1-5.6,0.4
		c-0.9,0.1-1.8,0-2.8,0c-0.2-0.9-0.4-1.8-0.4-2.8C164.9,35.2,164.6,33.7,164.6,32.2z M185.5,39.7c-0.6-0.3-1.3-0.7-2.1-0.5
		c-1,0.1-2.2-0.1-3,0.7c-0.5,1.5-1.3,2.8-2.1,4.1c-0.4-1.2-0.7-2.4-0.7-3.7c0.2-1.1,0.3-2.3,0.6-3.5c0.3-1,0.7-1.9,1.3-2.7
		c1.2,0.6,2.5,1.1,3.5,1.9c0.7,0.5,1.5,0.5,2.3,0.4C185.1,37.6,185.4,38.7,185.5,39.7z M177.7,37.2c-0.1,0.7-0.2,1.3-0.3,2
		c-0.3,0-0.6,0-0.9,0c-0.1-0.7-0.4-1.4-0.4-2.1c0-1.1,0-2.2,0.2-3.3c0.9-0.2,1.8-0.3,2.7,0.1C178.5,35,177.9,36,177.7,37.2z
		 M177.3,14.8c-0.6,0.8-1.6,1.2-2.3,2c-1.3,1.4-2.3,3.1-2.3,5.1c-0.3,1.4,0,2.9-0.8,4.1c-0.7,0.9-1.3,2.1-2.6,2.1
		c0.8-0.7,1.7-1.4,2.3-2.4c-0.1-0.1-0.3-0.3-0.4-0.3c-0.9,1.4-2.4,2.3-3.5,3.5c-0.2,0.2-0.3,0.7-0.7,0.7c-0.5,0-0.4-0.7-0.2-0.9
		c0.8-1,1.7-1.8,2.3-3c-0.1,0-0.3,0-0.4,0c-0.5,1.1-1.4,1.8-2.2,2.7c-0.4,0.4-0.4,0.9-0.2,1.4c-0.3,0-0.7-0.1-0.9-0.3
		c0.8-1.2,1.7-2.4,2-3.8c-0.1,0-0.3,0-0.4,0c-0.1,0.5-0.3,1-0.6,1.4c0-0.4,0-0.8,0-1.2c-0.2,0-0.4,0-0.5,0c0.1,0.7-0.3,1.3-0.7,1.8
		c-0.4,0.3,0.1,0.8,0.2,1.1c-0.1,0.4-0.6,0.1-0.7-0.2c-0.1-0.4-0.2-0.8-0.3-1.2c0.4-0.7,1.1-1.3,1.5-2c0.7-1.2,1.5-2.3,2.3-3.3
		c0.9-1.4,1.6-2.9,2.3-4.4c0.3-0.5,0.6-1.1,1.3-1.1C173.7,16.3,175.4,15.2,177.3,14.8z M176.8,13.2c0.5,0.2,1,0.5,0.9,1.1
		c-0.7,0-1.5,0.2-2.2,0.5C174.8,13.9,176.1,13.3,176.8,13.2z M165.6,27.7c0.3-0.2,0.7,0.2,0.3,0.4C165.6,28.3,165.2,27.9,165.6,27.7
		z M186.2,12.8c0.2,0.1,0.5,0.1,0.7,0.2c-0.3,0.4-0.4,0.9-0.4,1.4c-0.2,0-0.4,0-0.6,0C185.8,13.9,185.9,13.3,186.2,12.8z
		 M181.2,12.3c0.2,0.3,0.6,0.6,0.8,0.9c0.1,0.4,0,0.9,0.2,1.3c0.3,0.1,0.5,0,0.5-0.3c0.1-0.6-0.3-1.2-0.6-1.8
		c1.2,0.1,2.3,0.2,3.5,0.3c-0.2,0.6-0.3,1.1-0.3,1.7c-0.8,0.1-1.6,0.2-2.3,0.3c-0.6-0.1-1.2-0.1-1.9-0.1c0.4-0.8,0.1-1.6-0.4-2.3
		C180.8,12.3,181,12.3,181.2,12.3z M179.4,12.3c0.3,0.2,0.7,0.3,1.1,0.6c0.4,0.5,0.3,1.1-0.1,1.6c-0.3,0-0.7,0-1,0
		c0-0.4,0.1-0.7,0-1.1c-0.2-0.5-0.6-0.7-0.9-1.1C178.8,12.2,179.1,12.3,179.4,12.3z M177.1,12.2c0.4,0.5,1.3,0.4,1.6,1
		c0.4,0.4,0,1.1-0.5,1.2c0-0.9-0.8-1.8-1.7-1.6c-0.9,0-1.6,0.7-1.9,1.4c0.1,0.3,0.3,0.5,0.4,0.8c-0.2,0.1-0.4,0.1-0.7,0.2
		c-0.2-0.1-0.3-0.2-0.5-0.4c-0.2-1.3,1.2-2,2.1-2.6C176.4,12.3,176.8,12.2,177.1,12.2z M173.8,15.5c-0.3,0.1-0.7,0.2-1,0.2
		c-0.5-0.4-0.5-1.1-0.3-1.6c0.5-0.7,1.2-1.2,2-1.5C173.6,13.4,173.2,14.6,173.8,15.5z M171.3,13.1c0.6-0.6,1.5-0.4,2.3-0.6v0.1
		c-0.6,0.5-1.4,0.9-1.6,1.7c-0.2,0.6-0.1,1.2,0.3,1.7c-0.3,0.1-0.7,0.1-1,0.2C170.3,15.4,170.4,13.8,171.3,13.1z M170.9,12.7
		c-0.9,0.9-1.2,2.5-0.4,3.6c-1.2,0.2-2.3,0.5-3.5,0.8c0.2-0.8,0.5-1.6,0-2.4c-0.3-0.6-0.8-0.9-1.4-1.2
		C167.4,13.1,169.1,12.8,170.9,12.7z M163.3,15.2c0.6,0.5,0.5,1.4,0.4,2.2c-0.3,0.9-1.2,1.4-2,1.7c-0.9,0.3-2.2,0-2.3-1.1
		c-0.1-0.7,0.2-1.6,0.8-2c0.9-0.3,2.2,0.5,1.8,1.5c-0.4,0.3-0.9,0.4-1.4,0.3c0-0.3-0.1-0.6,0-0.9c0.2-0.1,0.5-0.1,0.7-0.1
		c-0.2,0.1-0.4,0.3-0.6,0.4c-0.1,0.5,0.7,0.2,0.8-0.1c0-0.2,0-0.5,0-0.6c-0.3-0.1-0.7-0.4-1-0.1c-0.4,0.4-0.7,1.2-0.2,1.6
		c0.5,0.5,1.3,0.3,1.7-0.1c0.5-0.4,0.5-1.2,0.2-1.7c-0.6-0.7-1.6-1-2.4-0.7c-0.5,0.3-0.7,0.9-1,1.4c-0.1,0.7-0.1,1.6,0.5,2.1
		c1,0.8,2.5,0.6,3.5-0.1c1-0.5,1.5-1.5,1.4-2.6c0-1.1-0.9-2-1.8-2.4c1.1-0.2,2.2-0.4,3.3,0.1c0.5,0.3,1.1,0.8,1.1,1.5
		c0.1,0.7-0.4,1.2-0.6,1.8c-0.4,0.2-0.8,0.4-1.1,0.6c0.4-0.8,0.9-1.6,0.7-2.6c-0.2-0.6-0.6-1-0.9-1.5c-0.2,0-0.6,0-0.8,0
		c0.1,0.7,1.1,0.8,1.2,1.5c0.2,1.1-0.5,2.1-1.2,3c-0.6,0.4-1.4,0.7-2,1.1c-0.7,0.5-1.5,0.6-2.2,1c-0.6-0.5-1.3-0.9-1.6-1.6
		c-0.2-0.6-0.5-1.2-0.3-1.8c0.2-1.3,1.4-2.3,2.7-2.6C161.6,14.2,162.7,14.4,163.3,15.2z M143,36.6c-0.3-1.6-0.8-3.2-0.9-4.9
		c-0.2-1.2-0.3-2.5,0.1-3.7c0.3-0.9,0.4-1.9,0.7-2.9c0.6-1.1,1.2-2.2,2-3.2c-0.1,0.8-0.4,1.7,0,2.5c0.4,1.1,1.1,2.3,2.4,2.5
		c0-0.1,0-0.4,0.1-0.5c-1.3-0.4-2-1.7-2.1-2.9c0.1-1,0.3-2.1,1-2.9c-0.3,1-0.7,2.1-0.2,3.1c0.3,0.6,0.5,1.4,1.3,1.6
		c0.3-0.8-0.6-1.1-0.9-1.8c-0.5-1.3,0.1-3,1.3-3.8c1.1-0.2,2.4,0.2,2.9,1.3c0.3,0.6,0.6,1.3,0.3,2c-0.3,0.9-1.4,1.3-2.3,1.2
		c-1.1,0.1-1.7-1.2-1.5-2.1c0.1-0.7,0.9-1.5,1.7-1.2c0.6,0.2,0.9,0.8,1.1,1.4c-0.3,0.5-0.8,0.9-1.4,0.7c-0.2-0.5,0.2-0.7,0.4-1.1
		c-0.4-0.2-0.8,0-0.9,0.4c-0.1,0.4,0.1,0.7,0.2,1c0.4,0.1,0.8,0.4,1.2,0.2c0.4-0.2,0.6-0.6,0.9-0.9c0-0.9-0.6-2.1-1.7-2.1
		c-0.9-0.1-1.7,0.7-1.9,1.5c-0.4,1.1,0.3,2.3,1.3,2.7c1.3,0.3,3-0.2,3.4-1.7c0.2-1.1-0.2-2.3-1-3c-0.6-0.6-1.4-0.7-2.2-0.9
		c0.4-0.2,0.8-0.4,1.2-0.2c1.1,0,2.1,0.7,2.6,1.7c0.2,0.9,0,1.7-0.2,2.6c0.2,0,0.4,0,0.6,0c0.3-0.9,0.2-1.8,0-2.7
		c-0.4-1.2-1.6-1.9-2.8-2.2c0.4-0.2,0.8-0.4,1.2-0.6c1.6,0,2.8,1.4,3.2,2.9c0.2,0.6-0.2,1.2,0,1.8c0.5,0.3,0.7-0.5,0.6-0.8
		c0.1-1.9-1.2-3.6-2.9-4.3c1.7-0.7,3.4-1.4,5.1-2.1c-0.6,0.9-1.5,1.8-1.2,2.9c0.3,1.2,1,2.6,2.4,2.6c0-0.2,0.1-0.4,0.1-0.6
		c-0.4-0.1-0.7-0.2-1.1-0.3c-0.5-0.6-0.9-1.4-1-2.2c0.2-1.1,0.9-1.8,1.6-2.6c0.4-0.1,0.8-0.2,1.2-0.4c0.1,0,0.4,0,0.5-0.1
		c-0.8,0.5-1.6,1.3-1.7,2.3c-0.4,1.5,0.6,2.8,1.5,3.9c-1.2,0.5-2.3,1.2-3.5,1.5c-2.1,1-4.1,2.4-5.7,4.1c-0.6,0.7-1.3,1.2-1.8,2
		c-0.5-0.8-1.6-0.6-2.5-0.6c-1.2,0.3-2.3,1.1-2.8,2.3c-0.9,1.8-0.2,4,1.3,5.2c-0.3,0.6-0.5,1.2-0.8,1.8
		C143.2,36.9,143.1,36.8,143,36.6z M145.3,31c-0.4,0.4,0,0.9,0.1,1.3c-0.1,0.4-0.3,0.7-0.5,1.1c-0.9-0.4-0.9-1.5-0.6-2.3
		c0.2-1.2,1.7-1.9,2.8-1.2c-0.2,0.2-0.4,0.5-0.6,0.7C146,30.6,145.5,30.6,145.3,31z M146,31.2c-0.1,0.2-0.3,0.5-0.4,0.7
		c0-0.1-0.1-0.4-0.1-0.5C145.6,31.3,145.8,31.2,146,31.2z M144.6,29.7c-0.8,0.6-0.9,1.8-0.9,2.7c0,0.7,0.6,1.1,1.1,1.5
		c-0.1,0.3-0.3,0.6-0.4,0.8c-1.8-1.3-1.9-4.3-0.1-5.7c0.6-0.4,1.3-0.8,2-0.8c0.6,0,1.1,0.3,1.7,0.5c-0.2,0.2-0.3,0.4-0.5,0.6
		C146.5,28.8,145.3,29.1,144.6,29.7z M144.6,35.2c0.1,0,0.3-0.1,0.4-0.1c0-0.1,0.1-0.3,0.1-0.4h-0.3c0.6-1.3,1.1-2.7,2-3.8
		c0,1.2,0,2.4,0.1,3.5c-0.6,0.1-1.3,0.1-1.9,0.2c0.1,0.1,0.2,0.2,0.3,0.3c2-0.2,4-0.2,6,0c0.3,2.2,0.6,4.4,0.6,6.6
		c-1.6,0-3.3,0-4.9-0.2c-1.4-0.2-2.8,0.2-4.1,0.3C143.4,39.4,143.6,37.1,144.6,35.2z M148.7,47.7c-0.8,0-1.7,0-2.5-0.1
		c-0.1-0.6-0.2-1.2-0.3-1.8c-0.1-1.4-0.4-2.8-0.4-4.2c0.8-0.1,1.6,0,2.5,0C148.3,43.7,148.3,45.7,148.7,47.7z M143,42.1
		c0.4-0.1,0.8-0.2,1.1-0.3c0.5,1.9,0.3,3.8,0.6,5.7c-0.7-0.1-1.4-0.1-2.1,0C142.9,45.7,142.7,43.9,143,42.1z M142.5,49.1
		c0-0.4,0-0.8,0.1-1.2c1-0.3,2,0,3,0c1.5,0.2,3.1,0.1,4.7,0.1c0.2,1.7,0.5,3.5,0.4,5.2c-1.6,0.3-3.2,0.3-4.7,0.5
		c-1.2,0-2.4,0-3.7,0.1C142.4,52.3,142.5,50.7,142.5,49.1z M142.4,54.3l0.3-0.2c0.3,2.1,0.2,4.2,0.3,6.3c-0.4,0-0.8,0.1-1.2,0.1
		C142,58.4,142,56.3,142.4,54.3z M141.8,60.8c1.3-0.2,2.7-0.3,4-0.1c0.1-0.1,0.2-0.2,0.3-0.4c-0.5,0-1,0-1.5-0.1c0-2-0.3-4-0.4-6
		c1.2,0,2.3,0,3.4-0.2c0.1,0.9,0.3,1.7,0.3,2.6c0,1.3,0.3,2.6,0.2,4c-0.7-0.2-1.4-0.2-2.1-0.2c0,0.1,0.1,0.3,0.2,0.4
		c0.8-0.1,1.5,0.1,2.3,0.2c1.9,0.1,3.9,0.2,5.8,0c0.1,1.6,0.1,3.3,0,5c-2.1-0.1-4.2-0.5-6.3-0.5c0-0.3,0-0.6-0.1-0.9
		c-0.5-0.1-1.1-0.1-1.6,0c-0.2,0.2-0.1,0.5-0.2,0.8c-1.5,0-3.1-0.1-4.5,0.5C141.8,64.1,141.8,62.5,141.8,60.8z M142,77
		c0-1,0-2,0.1-3c2.2,0,4.4-0.1,6.7,0.1c2.1,0,4.2,0.2,6.2,0.3c-0.7,0.2-1.5,0.4-1.9,1.1c-0.8-0.7-1.8-1.4-2.9-1
		c-0.9,0.2-1.2,1.1-1.2,1.9c-0.6,0.4-1,1.2-1.8,0.9c-1-0.5-1-2-0.1-2.6c0.3-0.1,0.7-0.1,1.1,0c0.2,0.4,0.3,0.8,0.5,1.1
		c0.2-0.5,0.1-1.2-0.4-1.4c-0.6-0.2-1.4-0.2-1.8,0.4c-0.3,0.5-0.8,1.1-0.5,1.7c0.1,0.7,0.6,1.3,1.3,1.4s1.3-0.5,1.9-0.8
		c0.7,0.9,2.1,0.8,2.8,0c0.3-0.5,0.1-1.3-0.4-1.6c-0.4,0-1,0-1,0.5c0.3-0.1,0.7-0.1,1-0.2c0.1,0.3,0.2,0.6,0.2,0.9
		c-0.4,0.8-1.8,0.9-2.3,0.1c-0.2-0.6-0.1-1.5,0.6-1.7c0.9-0.3,1.8,0.1,2.4,0.7c0.4,0.5,0.6,1,1.1,1.4c0.7,0.6,1.6,0.7,2.4,0.5
		c0.7-0.6,0.2-1.9-0.7-2c-0.4-0.2-1.4,0.2-0.9,0.8c0.3,0,0.6-0.1,0.9-0.2c0.5,0.1,0.5,0.6,0.5,1c-0.7,0.2-1.5-0.1-2.1-0.5
		c-0.1-0.3-0.3-0.6-0.5-0.9c0.5-0.8,1.6-1.1,2.4-0.6c0.9,0.4,1.3,1.3,1.7,2.1c-1.3,0.7-2.1,2.8-1,4c-1.3,0.5-2.4,1.5-3.8,1.4
		c-0.7,0-1.3-0.2-2-0.3c0.4-0.5,0.9-0.9,1.2-1.4c0.2-0.4,0.4-0.9,0.9-1.2c0.5-0.3,1.1-0.2,1.7,0c0.1,0.4,0.4,0.8,0.1,1.2
		c-0.3,0.5-1,0.7-1.5,0.6c0.2-0.4,0.6-0.7,0.3-1.1c-0.3,0.2-0.9,0.5-0.8,1c0.1,0.5,0.6,0.8,1.1,0.6c1,0,1.9-1.3,1.3-2.2
		c-0.6-0.9-2-0.8-2.7,0c-0.1-1-1.1-1.7-2.1-1.7c-0.6,0-1.2,0.2-1.7,0.5c-0.7-0.8-2-0.5-2.4,0.4c-0.1-0.6-0.4-1.1-0.9-1.3
		c-0.8-0.2-1.7-0.2-2.3,0.4c-0.4,0.6-0.6,1.3-0.6,2c0.1,0.8,0.9,1.3,1.6,1.4c0.7,0.2,1.4-0.1,2.1-0.3c0.5,0,0.8,0.6,1.3,0.5
		c0.6,0,1.5-0.1,1.8-0.8c0.7,0,1.3-0.4,1.7-1c-0.2-0.5-0.7-0.7-1.2-0.7c0,0.1,0,0.3,0,0.3c0.3,0,0.5,0.1,0.8,0.1
		c-0.2,0.6-1,1-1.6,0.7c-0.4-0.4-0.3-1.2,0.1-1.6c1-0.7,2.7-0.3,3,1c-0.1,1.1-1,1.9-2,2.3c-1.7-0.3-3.4-0.2-5.1-0.3
		c-1,0-2.1-0.2-3-0.7C141.7,79.8,141.9,78.4,142,77z M163.9,82.1c0-0.3,0.1-0.7-0.2-0.9c-0.3-0.2-0.8-0.3-1,0
		c-0.3,0.5-0.4,1-0.6,1.5c0.4,0.5,1,0.8,1.7,0.8c0.3-0.1,0.6-0.3,0.9-0.4c0.1,0.2,0.2,0.4,0.3,0.6c-1.4-0.2-2.9-0.2-4.3-0.4
		c0.2-0.4,0.5-0.8,0.6-1.2c0.1-0.4,0-0.9,0.1-1.3c0.2-0.6,0.8-1,1.4-1.3c0.3-0.1,0.5,0.3,0.8,0.5c0.4,0.5,1.2,0.7,1.3,1.4
		c0,0.7-0.4,1.5-1.1,1.7c-0.5,0.1-0.9-0.2-1.3-0.5c0.1-0.4,0.2-0.7,0.3-1c0.3,0,0.8-0.2,0.8,0.3c-0.1,0-0.4,0.1-0.5,0.2
		C163.3,82.4,163.6,82.3,163.9,82.1z M166.7,81.7c-0.3,0.3-0.5,0.7-0.2,1c0.4,0.1,0.8,0.1,1.2,0c0.1,0.4,0.3,0.8,0.5,1.2
		c-0.9-0.2-1.9,0.3-2.7-0.3c-0.6-0.4-0.4-1.2-0.1-1.7c0.3-0.9,1.9-0.9,2.2,0c0.1,0.5-0.4,0.5-0.8,0.5c0.1-0.2,0.2-0.4,0.4-0.6
		C167,81.7,166.8,81.7,166.7,81.7z M170.8,82.1c-0.1-0.4-0.4-0.7-0.6-0.9c0.6,0,1.2,0,1.9-0.1c-0.7,0.5-1,1.3-0.9,2.1
		c-0.6,0.7-1.9,1-2.6,0.3c-0.5-0.5-0.6-1.5,0.1-1.8c0.6-0.4,1.9-0.1,1.6,0.8c-0.2,0-0.5,0.1-0.7,0.1c-0.1-0.2-0.2-0.3-0.4-0.4
		c-0.1,0.1-0.2,0.2-0.4,0.3C169.2,83.3,170.7,83.1,170.8,82.1z M171.4,83.8c0.1,0.2,0.2,0.3,0.3,0.5c-0.3-0.1-0.6-0.1-0.9-0.2
		C171,84,171.2,83.9,171.4,83.8z M168,81.6c-0.1-0.1-0.2-0.3-0.3-0.4c0.2,0,0.5,0,0.7,0.1C168.3,81.3,168.2,81.4,168,81.6z
		 M165.3,81.2c-0.1-0.2-0.2-0.5-0.3-0.7c0.3,0.1,0.6,0.2,1,0.3C165.7,80.9,165.5,81,165.3,81.2z M163.9,97.3
		c0.2,1.4,0.4,2.9,1.2,4.2c1.3,2.2,2.8,4.4,3.1,7c0.2,1.7-1,3.3-1,5c0,0.7,0,1.5,0,2.2c-0.5,0-1,0-1.4-0.1c-0.5-1.6,0-3.2,0.7-4.6
		c0.9-1.5,0.9-3.5,0-5.1c-0.7-1.3-1.8-2.3-2.4-3.6c-0.3-0.5-0.4-1.1-0.6-1.6c-0.2-1.4,0-2.9-0.9-4.1c-0.5-0.6-0.5-1.5-1-2.1
		c-0.4-0.6-0.9-1-1.5-1.5c1.4,0.3,2.9,0.1,4.3,0.3C164.8,94.9,163.6,96,163.9,97.3z M164.3,97.3c1.3-0.3,2.6,0.1,3.9,0.2
		c1.2,0.1,2.4,0.2,3.7,0.2c0.4,1.4,0.4,2.9,0.4,4.3c-1.7,0.3-3.3,0-5-0.1c-0.5,0-1.1-0.1-1.6-0.2C164.7,100.4,164.6,98.8,164.3,97.3
		z M150,114.5c0.8,0,1.7,0.1,2.5,0.1c1,0,2.1-0.1,3.1,0c1.7,0.3,3.4-0.1,5,0.4c0.3,2,0.6,4.1,0.7,6.1c-1.3,0-2.7-0.2-4-0.1
		c-0.6,0-1.3-0.1-1.9-0.1c-1.8-0.3-3.7-0.1-5.5-0.7C150,118.3,149.6,116.4,150,114.5z M157.1,101.7c0.4-0.4,0.1-1,0-1.5
		c-0.5-0.3-1.1-0.3-1.7-0.1c0-0.9-0.1-1.8-0.3-2.7c0.7-0.2,0.8,0.4,0.9,0.9c0.6,0.2,0.6-0.6,0.3-1s-0.9-0.4-1.3-0.4
		c-0.1-1.5-0.6-2.9-0.5-4.5c0.4,0,0.8,0.1,1.2,0.1c-0.5,0.5-1,1.1-0.9,1.8c0.2,0.9,0.7,1.8,1.5,2.2c0.8,0.5,1.7,0.6,2.5,0.4
		c0.9-0.2,1.5-1.1,1.3-1.9c-0.1-0.8-0.8-1.4-1.4-1.8c-0.8-0.4-1.9,0.1-2,1c0,0.5,0.5,0.9,0.9,1.1c0.5,0.3,1.3,0,1.1-0.7
		c-0.4,0-0.9,0.4-1.2,0c-0.5-0.3-0.2-1,0.3-1.1c0.6-0.2,1.1,0.3,1.5,0.7c0.7,0.6,0.5,1.9-0.4,2.2c-0.8,0.2-1.7,0.1-2.4-0.3
		c-0.8-0.4-1.1-1.3-1.3-2.1c0.2-0.3,0.3-0.8,0.6-1s0.7-0.3,1.1-0.4c1.6,0.1,3.4,0.5,4.4,1.9c0.5,0.6,0.6,1.5,1,2.2
		c0.7,1,0.7,2.3,0.8,3.5c-0.6-0.3-1.3-0.4-1.8-0.9c-0.7-0.6-1.1-1.5-2-1.9c-1-0.3-2.2,0.3-2.7,1.2c-0.1,0.7,0.4,1.2,0.8,1.6
		c0.1,0,0.3,0.1,0.4,0.2c0.3,0,0.5,0,0.8,0c-0.7,0.4-1.3,1-1.4,1.9c0,0.8,0.3,1.6,0.8,2.1c0.5,0.3,1.1,0.4,1.7,0.5
		c-0.2,0.3-0.4,0.5-0.7,0.8c-0.2-0.3-0.4-0.7-0.8-0.8c-0.7-0.2-1.4,0-2.1,0.2c-0.2-1.5-0.2-3-0.5-4.5c0.1-0.1,0.2-0.3,0.3-0.5
		c0.3-0.1,0.6-0.3,0.9,0c0.3,0.3,0.1,0.7,0,1c-0.2-0.1-0.4-0.2-0.6-0.2C155.9,101.9,156.8,102.2,157.1,101.7z M145.8,82.5
		c0.6,0,1.2,0,1.8,0c0.2,1.3,0.2,2.6,0.2,3.9c0.4,0,0.8,0,1.2-0.1c0.7,0.1,1.4,0.5,2.1,0.7c0.4-0.2,0.2-0.7,0.2-1
		c-0.1-0.9,0-1.9-0.1-2.8c1.5,0.1,3,0.3,4.6,0.4c0,0.3,0,0.7,0,1c0.8,0.2,1.7,0,2.5,0c0.1-0.2,0.1-0.5,0.1-0.8
		c0.7,0.2,1.4,0.2,2.1,0.2c0,0.7,0.1,1.3,0,2c-0.2,1.8-0.3,3.6-0.2,5.4c0,0.5,0,1-0.1,1.4c-1.4-0.1-2.8-0.3-4.2-0.6
		c-0.4-2.4-0.9-4.8-1-7.2c-0.4,0-0.8,0-1.1,0.1c-0.1,0.7,0,1.5,0.1,2.2c0.2,1.6,0.3,3.2,0.6,4.8c-2-0.2-4-0.5-6-1.1
		c-0.8-0.2-1.6-0.3-2.4-0.4c-0.6-1.6-0.5-3.4-0.8-5c-0.3,0-0.2-0.1,0-0.1C145.7,84.4,145.6,83.4,145.8,82.5z M148,82.5
		c0.6,0.1,1.3,0.2,1.9,0.3c0,0.3,0.1,0.7,0.1,1c-0.1,0.7,0,1.4-0.1,2.1c-0.6-0.1-1.2-0.1-1.7,0C148.2,84.7,148,83.6,148,82.5z
		 M160,80.1c0.2,0.5,0.6,0.8,0.8,1.2c0.1,0.4,0.1,0.8,0,1.1c-0.2,0.4-0.7,0.6-1,0.9c-0.8-0.1-1.6-0.2-2.5-0.3
		c0.3-0.2,0.7-0.4,0.7-0.8c0.1-0.3-0.2-0.5-0.5-0.7c0.7-0.2,1.6-0.3,2-1.1c0.7-1.2-1-2.6-2.1-1.8c-0.5,0.3-0.5,0.8-0.4,1.3
		c0.2,0,0.4,0,0.6,0c0-0.2-0.1-0.5-0.1-0.7c0.4-0.4,1-0.4,1.4,0c0.6,0.5,0.2,1.5-0.5,1.6c-0.6,0.2-1.4,0.5-1.8-0.2
		c-0.6-1.3,0.5-3.2,2-3.1c0.7-0.1,1.3,0.4,1.6,1C160.2,79.1,159.8,79.6,160,80.1z M157.6,82.2c-0.2,0.2-0.4,0.4-0.6,0.5
		c-0.1-0.2-0.3-0.4-0.4-0.6c-0.2,0.2-0.4,0.5-0.6,0.8c-0.7,0-1.4,0-2.1-0.1c0.7-0.4,1.5-0.7,2.3-1.1
		C156.8,81.5,157.2,81.9,157.6,82.2z M159.9,102.3c-0.4-0.1-1-0.1-1.3,0.3c-0.2,0.6,0.2,1.2,0.8,1.2c0-0.1,0-0.3,0-0.4
		c-0.4,0-0.6-0.2-0.5-0.6c0.2,0,0.6-0.1,0.8-0.1c0.6,0.4,0.9,1.4,0.2,1.9c-0.3,0.3-0.7,0.1-1.1,0c-1.3-0.2-1.8-2.2-0.8-3
		c0.6-0.7,1.6-1,2.5-0.7c0.9,0.1,1.3,1.1,1.7,1.8c0.5,1,1.6,1.4,2.5,1.8c0.3,0.4,0.6,0.8,0.8,1.2c-1.2-1.3-3.3-2-5-1.2
		C161,103.6,160.7,102.6,159.9,102.3z M162.1,101.3c-0.6-1.1-2.1-1.2-3.2-0.8c0.2-0.2,0.3-0.4,0.5-0.7c0.1-0.4-0.2-0.8-0.4-1.1
		c-0.3,0.1-0.6,0.2-0.8,0.3c0.3,0.2,0.8,0.2,0.9,0.6c-0.2,0.7-1,0.7-1.5,0.5c-0.3-0.4-0.8-1-0.3-1.5c0.6-0.5,1.5-1,2.1-0.4
		c0.9,0.7,1.5,1.9,2.6,2.2c1.4,0.4,1.7,2,2.3,3.1C163,103.3,162.7,102.1,162.1,101.3z M158.2,105.6c0.7,0.5,0.5,1.4,0.2,2
		c-0.4,0.2-0.8,0.3-1.2,0.2c-0.1-0.1-0.2-0.4-0.3-0.5c0.2-0.2,0.4-0.4,0.5-0.7c-0.2,0-0.5,0.1-0.7,0.1c0,0.4-0.2,1,0.2,1.3
		c0.4,0.4,1.1,0.3,1.6,0c0.2,1.1,0.8,2.3,1.9,2.8c0.5,0.3,1.2,0.4,1.8,0.4c-0.7,0.3-1.3,1-1.4,1.8c0.1-0.9-0.3-1.9-1-2.5
		c-0.6-0.5-1.4-0.3-2.1-0.2c0.1-0.9-0.4-1.7-1.1-2.1c-0.3-0.6-0.5-1.3-0.5-2C156.6,105.6,157.4,105.3,158.2,105.6z M159.2,113.3
		c0.2-0.4,0.3-0.8,0-1.1c-0.6-0.3-1.6,0-1.6,0.8c0,0.5,0.3,1,0.7,1.3c-0.2,0-0.4,0-0.6,0c-0.2-0.7-0.8-1.3-0.8-2.1
		c-0.2-1.4,2-2.3,2.8-1.2c0.7,0.8,1,2.3,0,2.9c-0.8,0.4-1.8-0.4-1.7-1.2c0.3-0.2,0.7-0.3,1.1-0.3c0,0.1-0.1,0.2-0.1,0.3
		c-0.2,0-0.5,0.1-0.6,0.2C158.6,113.3,158.9,113.3,159.2,113.3z M156.1,108.4c0.4,0.3,1.1,0.6,1.1,1.3c0.1,0.6-0.2,1.1-0.5,1.6
		c-0.5,1,0.1,2.1,0.5,3c-0.2-0.1-0.7,0.1-0.7-0.2C155.9,112.2,156.1,110.3,156.1,108.4z M160,114.4c0.4-0.3,0.7-0.7,0.8-1.2
		c-0.1,1.1,1,2,2,1.8c0.7-0.2,1.4-0.9,1-1.7c-0.2-0.6-1.1-0.7-1.4-0.2c-0.2,0.3-0.1,0.6,0,0.8c0.3-0.2,0.4-0.9,0.9-0.7
		c0.3,0.3,0.4,0.7,0,1c-0.7,0.9-2.3,0-2.1-1.1c0.1-1.1,1.2-1.7,2.2-1.9c1.2-0.1,1.9,1.2,1.8,2.3c-0.1,0.7,0,1.4,0.1,2.1
		C163.4,115.7,161.7,114.9,160,114.4z M163.9,110.8c1.3-0.8,1.7-2.8,0.8-4c-0.6-1-2-1.2-3.1-1c-0.7,0.3-1.4,1-1.3,1.8
		c0.1,0.6,0.3,1.2,0.8,1.7c0.4,0.4,1.1,0.5,1.7,0.5c0.6-0.2,1.1-0.8,1-1.4c-0.1-0.4-0.3-0.9-0.6-1.2c-0.3-0.3-1,0-0.9,0.4
		c0,0.2,0.2,0.4,0.3,0.5c0.1-0.2,0.2-0.5,0.3-0.6c0.5,0.5,0.6,1.4-0.1,1.8c-0.5-0.1-1,0-1.3-0.4c-0.3-0.3-0.5-0.7-0.6-1.2
		c-0.3-0.8,0.5-1.7,1.4-1.6c0.7,0.1,1.4,0.1,1.9,0.6c0.8,0.8,0.8,2.1,0.2,3c-1,1.1-2.8,1.1-4,0.4c-1.2-0.8-1.7-2.6-1-3.9
		c0.8-1.6,2.9-2.2,4.5-1.4c1.6,0.5,2.3,2.2,2.6,3.7c0.2,1.3-0.4,2.5-0.9,3.6C165.1,111.6,164.6,111.1,163.9,110.8z M162.4,86.3
		c-0.1-0.7,0.1-1.5,0.1-2.2c0.4,0,0.8,0,1.2,0.1c0.2,1.1,0.3,2.2,0.4,3.3c0.1,1.8,0.3,3.7,0.1,5.5c-0.5,0-1.1,0-1.6,0
		c-0.1-0.7-0.2-1.4-0.2-2.1C162.6,89.3,162.5,87.8,162.4,86.3z M161.3,77.5c-0.1-1.1,0-2.1-0.1-3.2c0.6,0,1.2,0,1.8,0
		c0.2,1.6,0.4,3.3,0.4,5C162.6,78.7,161.9,78.2,161.3,77.5z M162.3,79.1c-0.4,0.5-1.1,0.9-1.3,1.6c-0.2-0.2-0.5-0.5-0.6-0.8
		c0.1-0.7,0.5-1.5-0.1-2.1c-0.5-0.7-1.4-0.8-2.2-0.8c-0.8-0.8-1.3-2-2.5-2.4c1.4,0.3,2.6,1,3.7,1.9
		C160.4,77.3,161.3,78.2,162.3,79.1z M146.7,80.1c0.1,0.1,0.3,0.2,0.5,0.2c0.3-0.1,0.5-0.2,0.8-0.2c0.1,0.3,0.3,0.5,0.5,0.8
		c-0.5,0.4-1.2,0.7-1.8,0.3c-1-0.4-0.7-1.8,0-2.4c0.4-0.4,0.9-0.1,1.4,0c0,0.4-0.1,0.9-0.5,1c-0.5,0.4-0.6-0.3-0.8-0.6
		C146.4,79.6,146.6,79.9,146.7,80.1z M143.8,79.9c0.5,0.5,1.2,0.2,1.7-0.1c0,0.3,0,0.6,0,0.9c-0.5,0.2-1,0.6-1.5,0.5
		c-0.6,0-1-0.4-1.5-0.8c0-0.7,0-1.6,0.7-2s2-0.3,2.2,0.6C145.5,79.8,144.5,80,143.8,79.9c0.1-0.4,0-0.6,0-0.9
		C143.5,79.1,143.4,79.7,143.8,79.9z M145.3,85.5c-0.2,0-0.6,0-0.8,0c-0.1-1.1-0.1-2.1-0.1-3.2c0.2,0,0.6,0,0.8,0
		C145.3,83.4,145.3,84.5,145.3,85.5z M142,89.6c-0.2-2.6-0.4-5.1-0.4-7.7c0.8,0.2,1.6,0.4,2.5,0.4c0.1,2.2,0.1,4.5,0.6,6.6
		c0.1,0.4,0.1,0.9,0.1,1.4c-0.3-0.1-0.5-0.3-0.5-0.6c-0.3-1.3-0.4-2.7-0.6-4c-0.5,0-1.1-0.1-1.5,0.2c0.3,1.3,0.4,2.6,0.5,4
		C142.5,89.9,142,90,142,89.6z M143.8,90.1c-0.2,0-0.5,0-0.7-0.1c-0.2-1.3-0.2-2.6-0.5-3.8c0.2,0,0.6,0,0.8,0
		C143.5,87.5,143.8,88.8,143.8,90.1z M142.8,100.4c-0.1-3.3-0.4-6.6-0.7-10c2.8,0.2,5.6,0.6,8.3,1.4c0.5,0.1,1.1,0.2,1.6,0.3
		c0.3,1.1,0.3,2.3,0.4,3.4c0.5,0,0.9,0,1.4-0.1c-0.1-1-0.1-2.1-0.4-3.1c0.1,0,0.3,0,0.4,0c0.4,2.7,1,5.3,1.2,8
		c0.3,1.9,0.6,3.9,0.6,5.8c0.2,1.5-0.1,3.1,0.1,4.6c0,0.3,0,0.7,0,1c0,0.8,0.2,1.6,0.3,2.5c-0.6,0-1.3-0.2-1.9-0.2
		c-2.5,0.2-4.9-0.2-7.4-0.4c-0.5-2.7-0.6-5.5-1.2-8.1c-0.7,0-1.4,0-2.1,0C143.1,103.8,143,102.1,142.8,100.4z M146.5,118.2
		c0.2,1.5,0,2.9,0.4,4.4c-0.1,0-0.4,0-0.5,0c-0.2-2.8-0.5-5.6-0.6-8.5c0.2,0,0.4,0,0.6,0C146.6,115.5,146.4,116.9,146.5,118.2z
		 M143.3,106.1c0.6,0,1.2,0,1.8-0.1c0.1,0.5,0.2,1.1,0.2,1.6c-0.6,0.1-1.3,0-1.9-0.1C143.4,107,143.4,106.6,143.3,106.1z
		 M143.8,110.9c0-0.9-0.1-1.9-0.2-2.8c0.6,0.1,1.3,0.2,1.9,0.2c0.3,1.8,0.5,3.6,0.6,5.4c-0.7,0-1.3,0-2,0
		C144,112.7,143.7,111.8,143.8,110.9z M154.6,128.2c-0.4,0-0.7-0.1-1.1-0.1c-0.2-1.1-0.3-2.2-0.5-3.3c0.5,0,1,0.1,1.5,0.1
		C154.6,126,154.8,127.1,154.6,128.2z M160.2,128.8c-0.9,0-1.7,0-2.6-0.1c-0.7-0.2-1.5-0.4-2.3-0.4c-0.2-1.3-0.2-2.6-0.4-3.8
		c-0.8-0.1-1.6-0.2-2.4-0.2c0.1,1.2,0.3,2.5,0.4,3.7c-0.6,0-1.1-0.1-1.7-0.2c-1.7-0.2-3.4,0-5.1,0c-0.4-2.9-0.7-5.8-1.2-8.7
		c-0.2-0.8-0.2-1.7-0.3-2.5c-0.2-0.8-0.3-1.6-0.5-2.4c0.4,0,0.9-0.1,1.3-0.1c0.2,2.9,0.3,5.9,0.6,8.8c0.4,0,0.9,0.3,1.3-0.1
		c0.1-0.3,0-0.7,0-1c-0.3-1.1-0.2-2.3-0.3-3.5c-0.2-1.4-0.1-2.8,0-4.2c0.6,0,1.2,0.1,1.8,0.1c0.3,1.6,0.1,3.2,0.2,4.9
		c0.2,1.7,0.1,3.3,0.4,5c0.3,0.1,0.6,0.1,0.9,0c-0.1-1.1-0.2-2.3-0.3-3.4c1.2,0.2,2.5,0.4,3.7,0.4c1.4,0.1,2.8,0.4,4.3,0.3
		c1.8,0,3.6,0.1,5.3,0c0.2,1.3,0.4,2.6,0.4,4c-1.2-0.1-2.5-0.2-3.7,0.2C160.1,126.7,160.2,127.8,160.2,128.8z M163.4,128.8
		c-0.9-0.1-1.8,0-2.7-0.1c-0.2-0.9-0.2-1.9-0.2-2.8c1.6-0.2,3.2,0,4.9,0.1c0,1,0.4,2,0.4,3C165,129,164.2,129,163.4,128.8z
		 M163.9,121.6c0.1,0,0.3,0,0.4,0c0.1,1,0.4,2.1-0.1,3.1C164.1,123.7,163.8,122.7,163.9,121.6z M171.2,126.4c0.1,0,0.2,0,0.2,0
		c-0.1,0.9,0,1.8,0,2.7C171.2,128.2,171.3,127.3,171.2,126.4z M175.1,129c-0.1,0-0.3,0-0.4,0c0-0.7-0.1-1.5-0.1-2.2
		c0.2,0,0.4,0,0.6,0C175.1,127.5,175.1,128.3,175.1,129z M179.2,128.9c-0.3,0-0.5,0.1-0.8,0.1c0-0.8,0-1.5,0-2.3c0.3,0,0.6,0,0.9,0
		C179.2,127.4,179.2,128.1,179.2,128.9z M177.9,126.3c0.1,0.9,0.1,1.9,0,2.9c-0.7,0-1.4-0.1-2.1-0.1c-0.2-0.9-0.2-1.8-0.3-2.7
		c-0.5,0-1-0.1-1.4,0.2c0,0.8,0.1,1.7,0,2.6c-0.7,0.1-1.3,0.1-2,0.2c-0.2-1-0.2-2.1-0.2-3.1c-0.4,0-0.8-0.1-1.1,0.1
		c0,1.1,0.2,2.1,0.1,3.2c-1,0-2,0.1-3-0.1c-0.5-0.1-1-0.1-1.5-0.1c-0.2-1.1-0.4-2.1-0.6-3.2c-1-1.2-0.7-3-0.8-4.5
		c-0.6-0.4-1.2-0.2-1.9-0.3c-0.2-1.8-0.8-3.6-0.6-5.4c2.2,0.6,4.5,0.3,6.7,0.8c1.5,0.1,3,0.2,4.5,0c1-0.3,2.1-0.1,3.1-0.2
		c0.7-0.1,1.4,0.1,2.1,0.2c0.4,1.1,0.4,2.3,0.4,3.5c-0.5,0-0.9,0-1.4,0c0,1.3,0,2.7,0.2,4c0.5,0,1,0.1,1.5,0.2c0,0.7,0,1.3,0,2
		C179,126.3,178.4,126.2,177.9,126.3z M179.3,121.3c0.1,0.8,0.1,1.5,0.1,2.3c-0.3,0-0.7,0-1,0.1c0-1.1-0.1-2.2-0.2-3.3
		c0.3,0,0.6,0.1,0.9,0.2C179.2,120.8,179.2,121.1,179.3,121.3z M183.3,109.2c-0.7,0-1.5-0.2-1.9-0.9c-0.2-0.4,0.2-0.9,0.6-0.9
		c0.5,0,1,0,1.4-0.1C183.4,108,183.3,108.6,183.3,109.2z M182.1,103.5c-0.2,1-1.2,1.9-2.3,1.6c-0.7-0.2-0.6-1.2-0.1-1.6
		C180.4,103,181.6,102.6,182.1,103.5z M180.1,107.9c0.4-0.4,0.3-1,0.2-1.4c-0.5-0.5-1.2-0.8-2-0.7c0.1-1.7-0.4-3.5,0-5.2
		c0.9,0.4,1.8,0.1,2.8,0.1c0,0.6,0.1,1.2,0.2,1.8c-0.8,0.2-1.8,0.3-2.2,1.1c-0.5,0.7-0.2,1.8,0.7,2c1.2,0.3,2.3-0.6,2.9-1.6
		c0.6,0.8,0.7,1.8,0.7,2.8c-0.8,0.2-1.8,0.1-2.3,0.8c-0.4,0.5,0,1.2,0.4,1.6c0.5,0.3,1.2,0.5,1.8,0.7c-0.9,0-1.7-0.3-2.6-0.2
		c-0.8,0-1.6,0.2-2.5,0.3c0-0.5,0.1-1,0.1-1.5C178.9,108.4,179.6,108.4,180.1,107.9z M178.3,107.8c0-0.5,0-0.9,0-1.4
		c0.4,0,1-0.2,1.4,0.1c0.4,0.3,0.3,0.8-0.1,1.1C179.3,108,178.8,107.8,178.3,107.8z M183.1,110.5c-0.1,1.1-0.2,2.2-0.4,3.3
		c-0.2,1.6,0.6,3.2,0.6,4.8c-1.2,0.5-2.4,0.1-3.6,0.1c0-0.5-0.1-1-0.2-1.4c-0.5-2.3-1.1-4.5-1.3-6.9
		C179.8,109.9,181.5,109.9,183.1,110.5z M177.8,110.8c0.1,1.8,0.5,3.5,0.9,5.2c-1.3-0.1-2.7,0-4-0.1c-0.6,0-1.2,0.3-1.8,0.3
		c-1.7,0-3.5,0-5.1-0.4c-0.2-1.4-0.2-3,0.3-4.3s0.7-2.9,0.3-4.2c-0.5-1.8-1.5-3.5-2.4-5.1c2.6,0.3,5.3,0.5,7.9,0.1
		c1.3-0.2,2.7-0.3,4-0.5c0,2.2,0.4,4.3,0,6.5C177.8,109,177.6,109.9,177.8,110.8z M177.9,100c-0.1,0.4-0.1,0.8-0.1,1.2
		c-1.1,0.3-2.3,0.3-3.4,0.5c-0.4-1.3-0.7-2.6-0.5-4c-0.2,0-0.4,0-0.5,0c0.1,0.7,0.1,1.4,0.1,2c0.1,0.7,0.3,1.3,0.3,2
		c-0.3,0-0.6,0.1-0.9,0.1c-0.1-1.4-0.3-2.8-0.3-4.3c1-0.1,2.1,0.1,3.1-0.1c0.7-0.1,1.5-0.1,2.2-0.2C177.9,98.3,178.1,99.1,177.9,100
		z M180.2,94.2c0.5-0.5,1.1-0.1,1.5,0.3C181.2,94.5,180.7,94.4,180.2,94.2z M184.6,94.4c-0.2-0.2-0.3-0.3-0.4-0.5
		c0-1,1.6-1.2,2.1-0.4C185.8,93.9,185.2,94.1,184.6,94.4z M185.8,88.6c-0.1,0.5-0.8,0.6-1.2,0.4c-0.1-0.3,0-0.7,0.3-0.8
		C185.2,88.2,185.7,88.2,185.8,88.6z M177.2,90.3c0.3-1.2,1.4-2,2.5-2.5c0.9-0.2,1.8-0.3,2.7-0.4s1.9,0,2.8,0.4
		c-0.2,0.1-0.5,0.3-0.7,0.4c-0.1,0.3-0.4,0.7-0.1,0.9c0.6,0.8,1.8,0.1,1.8-0.7c0.9,0.8,2,1.8,1.9,3.1c-0.3,0.7-0.9,1.3-1.5,1.8
		c-0.1-0.1-0.2-0.3-0.3-0.5c-0.7-0.3-1.7-0.4-2.2,0.4c-0.4,0.4-0.1,0.9,0.1,1.3c-0.6,0-1.2,0.1-1.8,0.2c-0.5-0.7-1.3-1.2-2.2-1
		c-0.1,0.1-0.2,0.3-0.3,0.4c-0.5-0.1-1-0.2-1.4-0.6c-0.3-0.3-0.6-0.6-1-0.9C177.3,91.8,176.9,91.1,177.2,90.3z M177.7,96.9
		c-3.2,0.6-6.4,0.3-9.6,0.1c-1.3-0.1-2.6-0.4-3.9-0.2c0.4-1.1,0.9-2.2,0.9-3.4c1.1,0.1,2.1-0.1,3.2-0.1c0.9,0,1.7-0.3,2.5-0.3
		c2.1-0.1,4.2-0.5,6.3-0.4C177.3,94,177.5,95.4,177.7,96.9z M170.3,88.8c0.3,0,0.6,0.1,0.9,0.1c0.1,1.2,0.1,2.4,0.1,3.6
		c-0.2,0-0.6,0-0.8,0C170.4,91.3,170.5,90,170.3,88.8z M171.8,89c0.8-0.1,1.7-0.1,2.5-0.3c0.1,1.1,0.3,2.3,0.2,3.4
		c-0.9,0.2-1.7,0.2-2.6,0.2C171.7,91.3,171.7,90.2,171.8,89z M175.7,87.8c0.4,1.4,0.6,2.9,1.1,4.2c-0.6,0.1-1.1,0.1-1.7,0.2
		c-0.2-1.2-0.2-2.5-0.3-3.7c0-0.1-0.1-0.2-0.1-0.3c-0.8,0.2-1.7,0.4-2.6,0.4c-0.7,0-1.5-0.2-2.2-0.2c-0.1,1.4,0.2,2.8,0.1,4.2
		c-1.3,0.5-2.6,0.2-3.9,0.4c-0.1-2.9-0.6-5.7-0.5-8.6c2,0,4,0,6,0.3c1.1,0.2,2.3,0,3.5,0.2C175.1,85.9,175.4,86.8,175.7,87.8z
		 M174.8,81.8c0.1,0.8,0,1.6,0.1,2.5c-0.9,0.1-1.9,0.1-2.8-0.3c-0.5-0.5-0.7-1.4-0.3-2c0.4-0.8,1.8-0.5,2.1,0.2
		c0.1,0.7-0.8,0.9-1.3,0.5c0.3-0.2,0.5-0.4,0.5-0.7c-0.4,0-1,0.2-0.9,0.7c0.3,0.9,1.6,0.8,2,0c0.3-0.5,0.1-1-0.3-1.3
		c-0.4-0.4-1-0.3-1.5-0.4c0.7-0.1,1.4-0.1,2,0.2C174.8,81.2,174.8,81.6,174.8,81.8z M174.5,68.3c-0.3,2-0.2,4-0.2,6
		c0.2,2.1-0.3,4.3,0.3,6.4c-1.5-0.3-2.9,0.1-4.4,0.1c-1.5,0.1-3-0.2-4.3-0.6c-0.4-2.2-0.2-4.4-0.4-6.6c-0.4,0-0.7-0.1-1.1-0.1
		c0.1,2.1,0.3,4.2,0.2,6.2c-0.2-0.1-0.4-0.2-0.5-0.3c-0.4-1.9-0.3-3.8-0.7-5.7c-0.8,0-1.7,0.1-2.5,0c0,1.1,0,2.2,0.1,3.2
		c-0.7-0.5-1.4-1-2.1-1.6c-0.3-1-0.2-2.1-0.3-3.2c-0.1-1-0.3-2-0.5-3c-0.4,0-0.8,0-1.2,0c-0.1,1.8,0.5,3.6,0.5,5.4
		c-0.8-0.2-1.6-0.6-2.4-0.6c-4-0.2-8-0.6-12-0.4c-0.2,0-0.4,0-0.7,0c-0.3-1-0.1-2.1-0.2-3.2c-0.2-1.4-0.2-2.9,0-4.3
		c0.5-0.5,1.3-0.4,1.9-0.5c0.2,2.1,0.1,4.1,0.4,6.2c0.3,0.3,0.8,0.2,1.1,0.1c0-0.9,0-1.9-0.1-2.8c0.1-1.1,0-2.3,0-3.4
		c0.4,0,0.7,0,1.1,0c0,0.6-0.1,1.3,0.1,1.9h0.1h0.2c0.1-0.9,0-1.8,0-2.7c0.2,0,0.5,0,0.8,0c0.1,1.4,0.3,2.8,0.2,4.2
		c0,0.9,0.2,1.8,0,2.6c-0.3,0-0.8,0.2-0.8-0.2c-0.1-1.2,0-2.4-0.1-3.6c-0.1,0-0.2,0-0.2,0c0,0.1-0.1,0.2-0.1,0.2c0,1.3,0,2.7,0.1,4
		c0.4,0.4,1.1,0.1,1.6-0.1c0.2-0.5,0.1-1.1,0.1-1.6c-0.1-1.5,0.1-3-0.2-4.5c0,0,0.1-0.1,0.2-0.1c2.6,0.2,5.3,0.5,7.9,0.9
		c1.1,0.2,2.3,0.3,3.4,0.3c0-0.7,0-1.4-0.1-2c0-1.5,0-3.1-0.2-4.6c0.8-0.1,1.6-0.2,2.4-0.4c0.6,1.5,0.6,3.2,0.5,4.8
		c0.7,0.3,1.5,0.1,2.3,0.1c0.2-1.7,0-3.4-0.3-5.1c0.7,0,1.5,0.1,2.2,0.3c0.3,1.5,0.4,3,0.6,4.5c-0.1,2.2,0.4,4.3,0.8,6.4
		c0.2,0.8,0.5,1.6,0.9,2.4s0.4,1.8,0.7,2.6c-0.6,0-1.2,0.1-1.8,0.1c0.1,1,0,2,0,3c0.8,0.1,1.6,0.1,2.5,0.1c0,0.5,0,1.1,0.1,1.6
		c0.1,0,0.2,0,0.3,0c0-0.1,0.1-0.2,0.2-0.2c-0.2-1.9-0.4-3.9-1-5.8c-0.1-1.4-1.1-2.6-1.4-4c-0.3-2-0.9-4-0.8-6
		c-0.2-2.5-0.5-4.9-1.1-7.3c-0.6-2.5-1-5-1.2-7.6c0.8-0.3,1.6-0.2,2.4-0.3c2.2-0.1,4.4-0.1,6.6,0c0.4,0.7,0.8,1.6,1.7,1.7
		c1.5-0.5,3.2-0.9,4.5-2c0.2,1.4,0.4,2.9,0.9,4.2c1-0.7,2-1.5,2.7-2.6c0.5-0.8,0.8-1.6,1.3-2.3c0.5-0.6,1.4-0.8,2.2-0.7
		c-0.4,1.7-1.2,3.2-1.9,4.7c-1.7-0.1-3.6,0.2-4.9,1.4c-0.5,0.6-1,1.2-1.2,1.9c-0.4,1.1-1,2.2-1.7,3.1c-0.7,0.6-1.2,1.3-1.5,2.1
		c-0.1,0-0.2,0.1-0.2,0.1c-0.1-0.6,0.1-1.3-0.3-1.7c-0.8-0.1-1.5,0.2-2.3,0.2c0.1,0.9,0.2,1.8,0.2,2.7c0.7,0.1,1.4-0.2,2.1-0.3
		C174.8,64,174.8,66.2,174.5,68.3z M168.1,76.4c0.5,0,1,0,1.5,0c0.1,0.7,0.2,1.3,0.4,2c-0.6,0.1-1.2,0.2-1.8,0.2
		C168.1,77.9,168.1,77.2,168.1,76.4z M188.1,54.5c0.2-0.4,0.2-0.9,0.4-1.3c0.1,0,0.4,0.1,0.5,0.1c0.3,1.2-0.2,2.5,0,3.7
		c-0.4-0.1-0.7-0.1-1.1-0.2c-0.1,0.2-0.1,0.4-0.2,0.6c-0.2-0.2-0.4-0.4-0.6-0.5c0.4,0,0.9-0.1,1.3-0.3c0-0.6,0.1-1.1,0-1.7
		c-0.6,0-1.3,0-1.9,0.2c0.1,0.5,0.2,1,0.1,1.5c-0.8-0.4-1.5-0.9-2.4-1.1c0.3,0,0.6,0,0.9,0c0.3-0.5,0.2-1.1,0.2-1.7
		c-0.7,0-1.3,0-2,0c0,0.5,0.1,1,0,1.5c-0.6,0-0.3-0.7-0.4-1.1c-0.5-0.1-1.1-0.1-1.6-0.2c1.4-0.9,3.1-1,4.6-0.8c0,0.5,0,1.1,0,1.6
		C186.8,54.5,187.4,54.5,188.1,54.5z M186.5,54.1c0-0.3,0-0.7,0.1-1c0.4,0,0.9,0,1.3,0c0,0.3,0,0.6,0,0.9
		C187.4,54,186.9,54,186.5,54.1z M187.3,63.6c0-0.4,0.1-0.9-0.2-1.2c-0.6-0.6-1.4-0.8-2.2-0.7c-0.1-0.4,0-0.9-0.4-1.2
		c-0.3-0.3-0.8-0.5-1.2-0.5v-0.3c0.6-0.1,1.2-0.3,1.5-0.8c-0.3-0.5-0.7-1-1.3-1.2c-0.7-0.3-1.4,0-2.1,0.2c0.5-0.3,1.2-0.6,1.1-1.3
		c0.1-0.6-0.5-0.9-0.8-1.3c0.3,0.1,0.7,0.2,1,0.3c1,0.2,2,0.6,2.9,0.9c0,0,0,0.1,0,0.2c-0.7,0.3-0.9,1.2-0.4,1.9
		c0.6,0.3,1.3,0.3,1.9-0.1c0.1-0.3,0.2-0.6,0.2-0.9c0.2,0.3,0.5,0.5,0.7,0.8c-0.6,0-1.3,0.5-1.2,1.2c0.4,0.2,1,0.3,1.4,0
		c0-0.2,0-0.5,0.1-0.7C189.2,60.4,188.1,62.2,187.3,63.6z M188.8,62.9c0,0.1,0,0.4,0,0.5c-0.3,0-0.5,0-0.8-0.1
		C188.2,63,188.5,62.9,188.8,62.9z M182.1,63.3c0-0.4-0.1-0.9-0.5-1.2c-0.7-0.6-2-0.1-2.2,0.8c0.1,0.2,0.1,0.4,0.2,0.6
		c0.4,0.1,0.4,0.5,0.4,0.9c0.4,0,0.8,0.1,1.1,0.2c-0.4,1.2-1,2.4-1.3,3.6c-0.3-1.4-0.6-2.8-0.9-4.1c0.2,0,0.6,0.1,0.8,0.2
		c0-0.1,0-0.2,0-0.3c-0.2-0.1-0.3-0.2-0.5-0.3c-0.7-0.1-0.8-0.9-1-1.4c-0.3-0.7-0.6-1.4-1-2c0.5-0.5,0.9-1.1,1.3-1.7
		c0.1,0.3,0.1,0.6,0.2,0.9c-0.1,0.1-0.3,0.2-0.4,0.2c-0.5,0.9,0.2,2.1,1.2,2.4c0.6-0.2,1.2-0.3,1.7-0.5c0.2-0.7,0.1-1.4-0.4-1.9
		c0-0.2,0.1-0.5,0.1-0.7c0.4,0.4,0.8,1,1.4,0.8c0.4,0,0.8,0,1.1-0.1V60c-0.6,0-1.1,0.3-1.6,0.8c-0.4,0.7,0,1.6,0.7,2
		c0.5,0.1,1,0,1.4,0c-0.2,0.8,0.2,1.6,0.9,2c-1.2,0-2.5-0.4-3.7-0.6C181.4,63.9,181.9,63.7,182.1,63.3z M180.8,63.7
		c-0.5-0.1-1.1-0.5-1.1-1.1c0.4-0.3,1-0.6,1.5-0.4c0.3,0.3,0.4,0.7,0.5,1.1C181.4,63.4,181.1,63.6,180.8,63.7z M182.1,56
		c0.2,0.5,0,1.1-0.5,1.3c-0.4,0.3-0.9,0-1.3-0.3c0-0.5-0.1-0.9,0-1.4C181,55.5,181.6,55.6,182.1,56z M180.5,54.9
		c0.3-0.3,0.6-0.7,0.8-1c0,0.3,0,0.6,0.1,1C181.1,54.9,180.8,54.9,180.5,54.9z M182.1,58.4c0,0,0,0.1,0,0.2c0,0.1,0.1,0.4,0.2,0.5
		c0.4-0.1,0.7-0.1,1.1-0.3c0-0.1,0-0.4,0-0.5c-0.3-0.1-0.6-0.2-0.9-0.3c-0.1,0-0.2-0.1-0.2-0.2l-0.1-0.1c0.9-0.2,1.8,0.3,2.3,1
		c-0.9,0.7-2.1,0.4-3.1,0.2c-0.1-0.1-0.2-0.3-0.3-0.4c0.1-0.1,0.2-0.3,0.3-0.4c0.1,0,0.4-0.1,0.5-0.2h0.2
		C182.1,58.1,182.1,58.3,182.1,58.4z M180.6,57.9c0.2,0,0.5,0.1,0.6,0.1c-0.2,0.2-0.4,0.3-0.6,0.5c-0.2-0.3-0.4-0.7-0.8-0.8
		c-0.3,0-0.6,0-0.8,0c0.3-0.6,0.6-1.2,0.9-1.7c0,0.4,0,0.8,0.1,1.2C180.3,57.3,180.5,57.5,180.6,57.9z M179.1,57.9
		c0.3,0,0.6-0.1,0.8,0c0.2,0.2,0.5,0.5,0.4,0.9c-0.1,0.2-0.3,0.4-0.4,0.5c-0.3-0.1-0.6-0.3-0.9-0.4c-0.1-0.1-0.1-0.4-0.2-0.5
		C178.9,58.3,179,58.1,179.1,57.9z M180.5,59.7c0.2,0.4,0.3,0.9,0.2,1.4c-0.5,0.4-1.3,0.3-1.9,0.1c-0.4-0.3-0.5-0.8-0.5-1.3
		c0.1-0.1,0.3-0.3,0.4-0.4C179.3,59.4,179.9,59.5,180.5,59.7z M184.6,61.3c-0.2,0.5-0.7,0.8-1.2,1c-0.4-0.1-0.8-0.2-1.3-0.2
		c-0.2-0.4-0.4-0.9,0-1.3C182.7,59.9,184.5,60.1,184.6,61.3z M184.6,62.2c0.8-0.5,1.8,0,2.3,0.6c-0.1,0.5,0,1.2-0.6,1.4
		c-0.4,0.1-0.9,0.1-1.4,0C184.1,63.9,183.9,62.7,184.6,62.2z M181.7,54.8c0.2-0.3,0.4-0.5,0.7-0.6c0.1,0.1,0.2,0.2,0.2,0.2
		c0,0.1-0.1,0.3-0.2,0.4C182.2,54.8,182,54.8,181.7,54.8z M183.8,54.3c0.4,0,0.8-0.1,1.2-0.1c-0.1,0.3-0.1,0.5-0.2,0.8
		c-0.3,0-0.7,0-1,0C183.8,54.8,183.8,54.5,183.8,54.3z M186.1,56.9c0.3-0.1,0.6,0.3,0.8,0.4c-0.2,0.4-0.2,1.2-0.9,1.1
		c-0.6,0-0.9-0.6-0.7-1.1C185.6,57.2,185.9,57.1,186.1,56.9z M187.1,56.4c0-0.3,0-0.6,0.1-0.9c0.3-0.1,0.6-0.2,1-0.2
		c0,0.3,0,0.7,0,1C187.7,56.3,187.4,56.4,187.1,56.4z M187.8,58.8c0,0.1,0,0.4-0.1,0.5c-0.1,0-0.3,0-0.4,0c0-0.1,0-0.3,0.1-0.3
		C187.4,58.9,187.7,58.8,187.8,58.8z M188.4,58.2c0-0.3,0-0.6,0-0.9c0.2,0,0.4,0,0.6,0c0,0.3,0,0.6,0,0.9
		C188.9,58.2,188.6,58.2,188.4,58.2z M175.5,61.5c-0.5,0-1.1,0.1-1.6,0.3c0-0.6,0-1.2,0-1.7c0.5-0.1,1-0.3,1.5-0.3
		C175.5,60.4,175.5,60.9,175.5,61.5z M180.6,77.6c-0.6,0.2-1.4,0.1-1.9-0.5c-0.8-0.6-1.1-1.5-1.4-2.4c-0.8-2.3-1.7-4.5-2.4-6.8
		c0.2-1.5,0.4-3,0.6-4.4c0.2-1,0.7-2,1.2-2.9c1.2,1.7,1.7,3.8,2.1,5.8c0.3,1,0.3,2.1,0.5,3.1c-0.1,0.6-0.4,1.1-0.3,1.7
		c0.1,0,0.3,0,0.4,0c0.4-2.2,1-4.5,2.2-6.4c1.1,0.2,2.2,0.4,3.3,0.5c1,0.2,2-0.2,2.9-0.2c-0.9,1.4-1.9,2.7-2.5,4.3
		c-0.9,1.5-1.7,3.1-2.5,4.7C182.2,75.1,181.8,76.6,180.6,77.6z M190.6,80.9c-0.6-0.4-0.8-1.3-0.3-1.8c0.3-0.4,0.7-0.5,1.1-0.5
		c0,0.7,0.5,1.6,1.3,1.6C192.2,80.8,191.4,81.2,190.6,80.9z M192,78.5c0.3-0.6,1-1,1.7-1.2c0.5-0.1,1.1-0.4,1.6-0.1
		c0.5,0.2,0.7,0.9,0.3,1.3c-0.6,1-1.8,0.9-2.8,1.1C192.2,79.8,191.8,79,192,78.5z M196.2,79.4c-0.5,0.9-1.4,1.6-2.3,2.1
		c-0.7,0.3-1.6,0-2.3-0.1c0.8,0,1.5-0.6,2-1.2c1.2-0.1,2.1-0.8,2.8-1.7c0.1-0.8-0.2-1.7-1.1-1.8c-1.3-0.2-2.6,0.4-3.4,1.3
		c-1.2-0.1-2.4,1-2.1,2.2c0.1,0.5,0.4,0.8,0.8,1.1c-1.1,0-2.3,0.1-3.4-0.1c-1.1-0.1-2.4-0.1-3.3-0.9c-1.2-1-1.1-2.7-1.1-4
		c-0.1-0.9,0.6-1.5,0.9-2.3c0.5-1.1,1.2-2.2,1.8-3.3c0.3,0,0.6-0.1,0.9-0.2c0.1,0,0.3,0,0.4-0.1c0.5-0.4,1.2-0.7,1.9-1
		c0.1,0.6,1.1,0.6,1,1.3c0.1,0.6-0.6,0.7-1.1,0.8c-0.7,0.1-1.7-0.2-1.8-1c-0.1,0.2-0.2,0.5-0.2,0.7c0.5,0.4,1.2,0.6,1.8,0.7
		c0.6-0.2,1.5-0.2,1.6-1c0.2-0.7-0.3-1.3-0.9-1.7c1.3-0.2,2.6-0.2,3.8,0.4c-0.4,0.1-0.7,0.2-1.1,0.3c-0.2,1.1,0.5,2.3,1.6,2.4
		c0.9,0.1,1.8,0,2.5-0.6c0.2,0.3,0.4,0.5,0.6,0.8c-1,0.1-2.1,0.1-2.7,0.9c-0.2,0.7-0.2,1.7,0.5,2.1c0.4,0.4,1.1,0.4,1.6,0.3
		c0.5-0.2,0.8-0.6,1.3-0.9C196.6,76.4,196.5,77.9,196.2,79.4z M192.7,70.3c0,0.3-0.1,0.6,0.1,0.9c0.4,0.4,1,0.3,1.5,0.3
		c0.1-0.4,0.2-0.7,0.2-1.1c0.3,0.3,0.5,0.6,0.8,0.9c-0.8,0.9-2.5,0.9-3.1-0.2c-0.2-0.3-0.6-1,0-1.1c0.7-0.1,1.5-0.2,2,0.3
		C193.7,70.3,193.2,70.3,192.7,70.3z M194.1,71c-0.4,0.4-1.2,0.1-1.3-0.5C193.3,70.5,194,70.5,194.1,71z M196.6,73.1
		c0.5,0.9-0.4,2-1.3,2.2c-1,0.3-1.9-1.1-1.3-1.9C194.8,72.8,195.8,72.9,196.6,73.1z M197.7,71.6c-0.1,0.5-0.3,1.1-0.5,1.6
		c-0.7-1.4-1.7-2.6-3-3.5c-0.6-0.3-1.2-0.5-1.8-0.8c-0.8-0.4-1.8-0.4-2.7-0.3c-1.5,0.1-2.8,1.1-4.2,1.7c0.8-1.6,1.6-3.3,2.8-4.7
		c0.3-0.3,0.6-1,0-1.2c-0.6-0.1-1.1,0.3-1.7,0.4c0.3-0.3,0.6-0.6,0.9-0.9c0.6-0.1,1.8,0.2,1.7-0.8c0.2-0.6-0.5-0.5-0.8-0.6
		c0.1-0.1,0.2-0.4,0.2-0.5c0.4,0,1,0.1,1.4-0.2c0.1-0.4,0.1-0.8,0.2-1.2c-0.4-0.1-0.7-0.2-1.1-0.2c0-0.5,0-1.1-0.2-1.6
		c0.2-0.1,0.5-0.2,0.7-0.4c0,0.3-0.2,0.7,0.1,1c0.7,0.1,1.4-0.1,2-0.1c0.2-0.5,0.2-1,0.2-1.6c-0.6-0.3-1.4-0.1-2-0.4
		c-0.1,0.1-0.3,0.2-0.4,0.2c0-0.3-0.1-0.5-0.1-0.8c1.3,0.1,2.7,0.2,4,0.1c0.2-0.8,0.3-1.7,0.5-2.6c0.2,0,0.4,0.1,0.6,0.1
		c-0.1,0.7-0.3,1.4-0.4,2c0.4,0,0.8,0,1.3,0c0.3-0.4,0.4-1,0.5-1.5c0.2,0,0.5,0.1,0.7,0.1c-0.1,0.4-0.2,0.8-0.2,1.2
		c-1.6,0.7-2.3,2.4-2.4,4c0,1,0,2,0.7,2.8c1,1,2.3,1.6,3.5,2.3C198.3,67.5,197.7,69.5,197.7,71.6z M188.8,61.4
		c0.1-0.2,0.2-0.4,0.3-0.5c0.2,0,0.4,0,0.6,0c0,0.2,0,0.4,0,0.6C189.4,61.4,189.1,61.4,188.8,61.4z M190,58.9
		c0.1-0.3,0.1-0.6,0.2-0.9c0.4-0.1,0.8-0.1,1.3-0.1c0,0.3,0,0.6,0,0.9C190.9,58.9,190.5,58.9,190,58.9z M192.7,55.8
		c0.3-0.6,0.4-1.3,0.5-1.9c0.2,0.9,0,1.8-0.2,2.7c-1.2-0.1-2.4-0.2-3.6-0.2c0.2-1,0.2-2.1,0.3-3.1c0.2,0,0.5,0,0.7,0
		c0.1,0.8,0.1,1.7,0,2.5C191.1,55.9,191.9,55.9,192.7,55.8z M190.8,53.4c0.6,0.1,1.1,0.3,1.7,0.4c0,0.5-0.1,1-0.1,1.5
		c-0.6,0-1.1,0-1.7,0C190.8,54.8,190.8,54.1,190.8,53.4z M194.6,56c0.2-0.5,0.2-1.1,0.7-1.4c0,0.4,0,0.9-0.1,1.3
		C195,56,194.8,56,194.6,56z M195.5,63.2c0.4-0.2,0.8-0.4,1.3-0.1c0.5,0.1,0.5,0.7,0.4,1.1C196.5,64.1,196,63.6,195.5,63.2z
		 M198.2,64.7c-0.2,0-0.3-0.1-0.5-0.1c0.1-0.4,0.1-0.9,0-1.3c0.2,0.1,0.3,0.1,0.5,0.2C198.2,63.9,198.2,64.3,198.2,64.7z
		 M198.2,62.9c-0.3-0.2-0.5-0.4-0.8-0.6c0.1-0.4,0.4-0.7,0.8-0.9c0,0.1,0.1,0.2,0.2,0.2C198.3,62,198.2,62.5,198.2,62.9z M198.2,59
		c0,0.6,0.1,1.2,0.1,1.9c-0.8,0.1-1.8,1.1-1.1,1.9c-0.7-0.3-1.5-0.3-2.1,0.2c-0.6-0.7-0.7-1.6-0.7-2.5c0.4,0.3,0.8,0.6,1.3,0.9
		c0.8,0.1,1.7-0.5,1.7-1.4c0.1-0.7-0.5-1.1-1.1-1.3c-0.5-0.1-1,0.1-1.5,0.3c0.1,0.1,0.2,0.2,0.3,0.3c0.6-0.5,1.4-0.2,1.9,0.2
		c0.1,0.6-0.2,1.3-0.9,1.3c-0.7,0.2-1.7-0.4-1.3-1.2c-0.3-0.5,0-1.1,0.2-1.5c0.5-0.9,1.4-1.7,2.5-1.4c-0.5,0.2-1.3,0.3-1.3,1
		C195.9,58.7,197.3,59.1,198.2,59z M197,56.2c0.1-0.3,0.1-0.7,0.2-1c0.1,0.1,0.2,0.1,0.3,0.2c0.1,0.3,0.2,0.6,0.3,0.9
		C197.5,56.2,197.3,56.2,197,56.2z M197.9,57.5c0.1,0.3,0.1,0.6,0.2,0.8c-0.5,0.1-1.1,0.2-1.5-0.2c-0.1-0.4,0.1-0.8,0.4-1
		C197.3,57.2,197.7,57.3,197.9,57.5z M198.8,51.6c-0.1,1.1-0.1,2.1-0.2,3.2c-2.4,0.2-4.5-1.2-6.8-1.6c-1.1-0.3-2.3-0.4-3.5-0.5
		c-0.7,0-1.5,0.1-2.2-0.1c0.5-1.4,1.4-2.8,1.7-4.3c0.6-1.2,1.3-2.7,2.7-3c1.6-0.1,3.2,0.1,4.7,0.4c0.9,0.3,1.7,0.5,2.6,0.4
		c-0.1,1.7,0.5,3.3,1.1,4.8C199.1,51.1,198.9,51.4,198.8,51.6z M195.8,45.4c-0.6-0.2-1.1-0.3-1.7-0.5c-0.1-0.4-0.2-0.9-0.3-1.3
		c0.2,0.1,0.6,0.2,0.8,0.2c0.1-0.3,0.2-0.6,0.3-0.9c0.5,0,0.4,0.7,0.5,1.1c0.3,0,0.6-0.1,0.9-0.1c0,0.4-0.5,0.6-0.8,0.7
		C195.6,44.9,195.7,45.2,195.8,45.4z M199.2,51.6c0.3,0.5,0.3,1.1-0.1,1.6C199.1,52.7,199.1,52.1,199.2,51.6z M205.5,49.5
		c-0.1,0.4-0.5,0.6-0.8,0.9c-0.9,0.7-1.3,1.8-2.2,2.4c-1,0.8-2.1,1.3-3.3,1.8c0-0.2,0-0.5-0.1-0.7c0.7-0.5,1-1.4,0.7-2.2
		c-0.7-1.4-1.3-2.8-1.6-4.3c-0.2-0.4,0-0.8,0.2-1.2c0.7,0.7,0.8,1.8,1.4,2.6c0.4,0.6,0.7,1.3,1.1,1.9c0.1-0.1,0.3-0.2,0.4-0.3
		c-0.2-0.8-0.9-1.4-1.3-2.2c-0.3-0.5-0.5-1.1-0.8-1.6s-1-0.6-1.2-1.1c-0.2-0.3-0.2-0.7-0.2-1.1c0.5,0.1,0.9,0.2,1.2,0.6
		c1,1.2,2,2.3,2.7,3.7c0.1,0.3,0.4,0.2,0.6,0.2c0.1-0.7-0.6-1.2-1-1.8c-1-1.2-1.8-2.5-3.1-3.3c-0.1-0.4-0.1-0.9,0.1-1.2
		c0.2-0.3,0.5,0,0.7,0.1c0.5,0.3,0.6,0.9,1,1.3c0.9,1.2,2,2.3,2.7,3.7c0.1,0.3,0.4,0.4,0.6,0.3c0.1-0.3-0.1-0.5-0.2-0.7
		c-1.3-1.7-2.7-3.4-3.9-5.1c0.9-0.2,1.8,0.3,2.4,1c0.9,0.9,1.8,1.7,2.5,2.7c0.4,0.6,0.9,1.1,1.3,1.8
		C205.6,48.3,205.5,48.9,205.5,49.5z M204,45.1c-0.5-0.5-0.9-1-1.4-1.4c-0.4-0.4-0.9-0.7-1.1-1.2c0.7,0.4,1.3,1.1,2.1,1.4
		C204.1,44,203.9,44.6,204,45.1z M208.4,32.8c0,0.2,0.1,0.5,0.2,0.7c-0.3,0.1-0.6,0.3-0.8,0.5c0.2,0.2,0.4,0.3,0.5,0.5
		c0,0.1-0.1,0.4-0.1,0.5c-0.3-0.2-0.5-0.5-0.8-0.7c-0.3,0.2-0.5,0.5-0.8,0.7c0.1-0.5,0.3-0.9,0.5-1.4c-0.3-0.1-0.7-0.2-1-0.3
		c0.3-0.6,0.8-0.2,1.1,0.2c0.5-0.4-0.2-1,0.1-1.5c0.1-0.1,0.2-0.2,0.4-0.3c0.1,0.5-0.1,1.1,0.3,1.6
		C208.1,33.1,208.2,32.9,208.4,32.8z M207.7,31.3c-0.7,0.1-0.8,0.7-1,1.2c-0.4,0.1-1,0.3-1.1,0.8c-0.1,0.4,0.4,0.5,0.7,0.6
		c-0.1,0.5-0.4,1-0.1,1.4c0.4,0.2,0.7-0.2,1.1-0.4c0.3,0.2,0.8,0.6,1.1,0.3c0.4-0.3,0.2-0.8,0.2-1.2c0.5,1.2,0.5,2.6,0.7,3.9
		c-0.1,1.2-0.1,2.5-0.6,3.7c-0.6,1.3-1,2.6-1.4,4c-0.2,0-0.4,0-0.6,0c-0.1,0.1-0.2,0.4-0.3,0.5c0.2,0.2,0.4,0.4,0.6,0.6
		c-0.3,0.7-0.6,1.4-0.9,2.1c-0.1-0.4-0.1-0.8-0.3-1.2c-0.4-0.6-0.8-1.1-1.3-1.6c0.1-0.8-0.1-1.5-0.3-2.2c-0.9-0.4-1.8-1-2.5-1.6
		c-0.1,0-0.4,0.1-0.5,0.2c-0.5-0.2-1.1-0.4-1.7-0.4c0-0.8,0-1.6,0-2.5c-0.2-0.3-0.4-0.6-0.7-0.9c0,0.1-0.1,0.4-0.1,0.5
		c0.5,1,0.3,2.1,0.2,3.1c-1-0.1-1.2,0.9-1.1,1.7c-0.6,0.4-0.4,1.1-0.2,1.7c-0.4,0-0.7,0-1.1,0c-0.1-0.2-0.1-0.4-0.2-0.7
		c0.2-0.3,0.3-0.5,0.5-0.8c-0.1-0.1-0.2-0.4-0.3-0.5c-0.3-0.1-0.5-0.1-0.8-0.2c-0.1-0.3-0.2-0.6-0.4-0.8c-0.5-0.1-0.9,0.1-1.1,0.6
		c-0.3,0-0.6,0-0.8,0c-0.2-0.9-1-1.5-1.9-1.9c-1.7-0.7-3.5-1-5.3-1.1c-0.5-0.3-0.5-0.9-0.6-1.4c-0.1-0.7-0.2-1.5,0.1-2.2
		c0.9-0.7,2.1-0.9,3.2-1.4c0.8-0.3,1.7-0.7,2.4-1.3c1-0.3,2.2,0.2,3.2-0.3c0.1-0.4,0.2-0.9,0.3-1.3c1-0.2,1.9-0.4,2.9-0.6
		c1.1-0.1,2.2-0.2,3.3,0.1c1.3,0.4,1.4,2,1.5,3.1c-0.2,2.3-0.5,4.6-1.5,6.7c0.1,0.1,0.1,0.3,0.2,0.4c0.2-0.3,0.4-0.5,0.6-0.7
		c0.2,0.4,0.5,0.7,1,0.8c0.1-0.4,0.6-1.1,0.1-1.5c-0.3-0.3-0.7-0.1-1.1,0c0.3-0.8,0.5-1.6,0.6-2.4c0.2-1.7,0.7-3.4,0.1-5
		c-0.2-0.9-1-1.6-1.9-1.7c-0.2,0-0.3-0.1-0.5-0.1c-0.4,0-0.8,0-1.2,0c-0.1-0.1-0.3-0.2-0.4-0.4c0.5-0.2,1.3,0.2,1.7-0.3
		c0.3-0.3,0-0.7-0.2-1c0.3-0.3,0.5-0.6,0.5-1.1c-0.4-0.2-0.9-0.2-1.3-0.1c0-0.3-0.1-0.6-0.1-0.9c-0.1-0.1-0.4-0.2-0.5-0.3
		c-0.5,0.3-0.8,0.8-0.7,1.4c-0.4,0.1-1,0.1-1,0.8c-0.1-0.1-0.1-0.2-0.1-0.3c0.6-1,0.8-2.2,0.6-3.3c0.6-0.7,1.3-1.4,1.7-2.2
		c0.4,0.3,0.8,0.6,1.2,0.9c-0.1,0.2-0.2,0.4-0.3,0.6c0.2,0,0.5,0.1,0.6,0.1c0-0.1,0.1-0.3,0.2-0.4c0.6,0.3,1.2,0.6,1.9,0.8
		c0.8,0.3,1.4,0.8,2.1,1.2c-0.7,0.2-1.3-0.3-1.9-0.6c-0.3,0.2-0.8,0.4-0.7,0.9c0,0.4,0.4,0.7,0.6,1c-0.3,0.3-0.7,0.7-0.6,1.2
		c0.2,0.3,0.6,0.3,0.9,0.2c0.1,0.3,0.1,0.9,0.6,0.8c0.5,0,0.6-0.6,0.7-1c0.4,0,0.7-0.1,0.9-0.4c-0.4-0.5-0.1-1.1,0.1-1.6
		c0.4,0.5,0.7,1.2,0.9,1.8C206.8,29.8,207.5,30.4,207.7,31.3z M202.2,40.9c0.4-0.2,0.6,0.4,0.2,0.6C202.1,41.6,201.9,41,202.2,40.9z
		 M207.2,29.4c-0.1,0-0.3,0-0.3,0c0.3-0.7,0.6-1.3,0.7-2C207.8,28.1,207.5,28.8,207.2,29.4z"/>
	<path class="st0" d="M180.1,62.9c0.2,0.3,0.3,0.7,0.7,0.6c0.6,0,0.6-0.7,0.5-1.1c-0.3,0-0.6-0.1-0.9-0.1
		C180.3,62.5,180.2,62.7,180.1,62.9z M180.6,62.6c0.3-0.1,0.4,0,0.3,0.3C180.6,63,180.5,62.9,180.6,62.6z"/>
	<path class="st0" d="M190.3,73.5c0.6,0.3,1.2,0.1,1.8-0.1c-0.1-0.3,0-0.6-0.3-0.7c-0.8-0.3-1.8-0.7-2.5,0
		C189.3,73.2,189.9,73.3,190.3,73.5z M190.1,72.6c0.6,0,1.2,0.1,1.6,0.6c-0.7,0-1.5,0.2-2.1-0.3C189.6,72.5,189.9,72.6,190.1,72.6z"
		/>
	<path class="st0" d="M189.3,110.5c0.7,0.3,1.6,0.3,2.3,0c1-0.5,0.9-2.2-0.1-2.6c-0.8-0.3-1.6-0.5-2.4-0.1
		C188.5,108.5,188.4,109.9,189.3,110.5z M189.3,108.5c0.7-0.8,2.5-0.5,2.6,0.6c0,0.5-0.3,0.8-0.7,1c-0.6,0-1.4,0.2-1.9-0.3
		C189.1,109.5,188.8,108.9,189.3,108.5z"/>
	<path class="st0" d="M198.1,25.7c-0.3,0.3-0.3,1.1,0.2,0.8C198.9,26.4,198.5,25.8,198.1,25.7z"/>
	<path class="st0" d="M192.5,36c0,0.3,0,0.7,0.1,1c0.2-0.2,0.4-0.4,0.6-0.6C193.1,36,192.8,36,192.5,36z"/>
	<path class="st0" d="M194.5,44.2c-0.1,0.5,0.6,0.8,0.8,0.3C195.1,44,194.8,44.2,194.5,44.2z"/>
	<path class="st0" d="M194.3,58.7c0-0.3,0.1-0.7,0-1c-0.6-0.2-1.2-0.2-1.8-0.3c0,0.4,0,0.9,0,1.3C193.1,58.7,193.7,58.7,194.3,58.7z
		 M193.1,58.1c0.3,0,0.6,0,0.8-0.1c0,0.1,0,0.2,0,0.3c-0.3,0-0.6,0-0.9,0C193.1,58.3,193.1,58.2,193.1,58.1z"/>
	<path class="st0" d="M179.6,61.2c0.4,0,0.7-0.1,0.9-0.5c0.1-0.9-1.2-1.2-1.7-0.7C178.7,60.6,179.3,60.9,179.6,61.2z M179.2,60
		c0.4,0.1,0.8,0.2,1,0.6c-0.4,0.1-0.8,0-1.1-0.2C179.2,60.3,179.2,60.1,179.2,60z"/>
	<path class="st0" d="M187.3,60c-0.5,0-1,0-1.5,0.1c-0.2,0.2-0.3,0.4-0.5,0.6c0.3,0.9,1.4,1,2.2,0.8c0.3-0.2,0.4-0.6,0.6-0.8
		C187.9,60.4,187.7,60,187.3,60z M187.4,61.2c-0.6,0-1.7,0.1-1.6-0.8c0.4,0,0.7,0,1.1,0c0.2,0.1,0.4,0.2,0.6,0.4
		C187.5,60.9,187.5,61.1,187.4,61.2z"/>
	<path class="st0" d="M188.3,70.9c0.3-0.4-0.2-0.9-0.5-0.5C187.4,70.6,187.9,71.2,188.3,70.9z"/>
	<path class="st0" d="M192.8,74.4c-0.7-0.3-1.3,0.2-1.7,0.8c0.2,0.6,0.4,1.1,0.9,1.5c0.7,0,1.2-0.6,1.5-1.2
		C193.4,75.1,193.2,74.6,192.8,74.4z M192.3,76.1c-0.3-0.3-0.6-0.6-0.6-1c0.4-0.2,1-0.5,1.2,0.1C193.2,75.6,192.6,75.9,192.3,76.1z"
		/>
	<path class="st0" d="M148,76.3c-0.2,0-0.6,0-0.8,0c0.2-0.3,0.3-0.5,0.5-0.8c-0.3,0.1-0.6,0.2-0.7,0.5c-0.1,0.5,0.5,0.8,1,0.6
		c0.2-0.2,0.4-0.4,0.6-0.7c-0.2-0.1-0.4-0.1-0.6-0.2V76.3z"/>
	<path class="st0" d="M180.1,90c-0.1-0.2,0-0.4,0-0.6c0.5,0.8,1.4,1,2.2,1.2c0.6,0.1,1.6-0.3,1.5-1c0.1-0.9-0.7-1.5-1.5-1.8
		c-0.7,0.2-1.5,0-2.1,0.5c-0.3,0.2-0.2,0.6-0.3,1c-0.4-0.2-0.7-0.4-1.1-0.4c-0.4,0.1-0.6,0.5-0.8,0.9c0.2,0.3,0.3,0.6,0.5,0.9
		C179.2,90.7,179.8,90.5,180.1,90z M182.4,88.4c0.7-0.1,1.4,0.6,1.2,1.4c-0.4,0.7-1.3,0.4-1.9,0.2c-0.6-0.2-1.3-0.5-1.3-1.2
		C180.7,88.1,181.8,88,182.4,88.4z M179.1,89.1c0.3,0.1,0.6,0.4,0.8,0.7c-0.3,0.2-0.7,0.4-1,0.6c-0.1-0.3-0.2-0.5-0.3-0.8
		C178.7,89.4,178.9,89.2,179.1,89.1z"/>
	<path class="st0" d="M182.8,89.7c0.1-0.1,0.2-0.4,0.2-0.5c-0.3-0.3-0.6-0.7-1.1-0.7c-0.3,0-0.8,0.1-0.8,0.5
		C181.5,89.5,182.2,90.1,182.8,89.7z M181.4,88.8c0.5-0.1,1,0.1,1.4,0.5C182.3,89.5,181.7,89.2,181.4,88.8z"/>
	<path class="st0" d="M182.9,91c-0.4,0.6-0.4,1.6,0.4,1.9c0.8,0.1,1.2-0.8,1.1-1.5C184.1,90.9,183.5,90.9,182.9,91z M183.3,92.6
		c-0.4-0.3-0.3-0.8-0.3-1.2c0.4,0.1,0.7,0.2,1.1,0.3C184.1,92.1,183.9,92.7,183.3,92.6z"/>
	<path class="st0" d="M174.7,104.7c0-0.3,0.1-0.7-0.3-0.8c-1.2,0.2-2.4,0.1-3.6,0.3c0,1,0.1,2,0.1,3c0.1,2.3,0.1,4.6,0.3,6.8
		c1.3,0.3,2.7,0.2,4,0c0.1-2.1-0.3-4.2-0.4-6.3C174.9,106.7,174.7,105.7,174.7,104.7z M174,112.4c-0.6,0-1.1,0-1.7-0.1
		c-0.1-1.4-0.1-2.8-0.1-4.2c0.6-0.1,1.1-0.3,1.7-0.1C174,109.5,174.1,110.9,174,112.4z"/>
	<path class="st0" d="M190.1,112c0.5-0.7-0.2-1.5-1-1.4c-0.3,0-0.6,0.2-0.5,0.6C188.6,112,189.5,112.3,190.1,112z M189.1,111.2
		c0.2-0.2,0.8,0.1,0.6,0.4C189.4,111.9,188.9,111.5,189.1,111.2z"/>
	<path class="st0" d="M189.8,112.5c-0.6,0.2-0.7,1-0.3,1.4c0.4,0.6,1.6,0.8,1.9,0C191.8,113,190.6,112.3,189.8,112.5z M189.8,113
		c0.5-0.2,0.9,0.1,1.3,0.3C191,114.3,189.5,113.9,189.8,113z"/>
	<path class="st0" d="M198.7,32.2c0.5,1,0,2-0.2,3c0.2,0,0.4-0.1,0.5-0.1c0.1-0.9,0.3-1.9,0.1-2.8C199,32.2,198.8,32.2,198.7,32.2z"
		/>
	<path class="st0" d="M192.4,38.3c0.2,0,0.4,0.1,0.5,0.1c0.1-0.1,0.2-0.3,0.2-0.4c-0.2-0.2-0.4-0.4-0.6-0.5
		C192.5,37.8,192.4,38,192.4,38.3z"/>
	<path class="st0" d="M207.8,39.1c-0.3,0.3-1,0.5-0.8,1c0.4,0.2,0.6-0.2,0.9-0.4c0.1,0.4-0.2,1.3,0.5,1.3c0.2-0.4,0-0.9-0.1-1.3
		c0.2,0.1,0.6,0.3,0.7-0.1c-0.1-0.2-0.3-0.4-0.5-0.6c0.1-0.1,0.4-0.2,0.5-0.3c0-0.1,0-0.4,0-0.5c-0.3,0.1-0.6,0.3-0.9,0.5
		c-0.3-0.3-0.7-0.5-1.2-0.3C207.2,38.7,207.5,38.9,207.8,39.1z"/>
	<path class="st0" d="M207.1,42.7c-0.1-0.1-0.2-0.3-0.3-0.3c-0.3,0.3-0.5,0.6-0.8,0.9c-0.1-0.2-0.2-0.5-0.3-0.7
		c-0.1,0-0.3,0-0.4,0.1c0.1,0.4,0.4,0.7,0.4,1c-0.1,0.2-0.2,0.3-0.4,0.5c0,0.1,0,0.3,0,0.4c0.1,0,0.2,0,0.3-0.1s0.2-0.3,0.3-0.4
		c0.1,0.3,0.2,0.6,0.4,0.9c0.6-0.1,0.3-0.7,0.1-1c0.3,0,0.5,0,0.8,0.1c0-0.1,0-0.3,0-0.5c-0.3-0.1-0.6-0.1-0.9-0.2
		C206.6,43.2,206.9,43,207.1,42.7z"/>
	<path class="st0" d="M192.2,110.6c-0.6,0.3-0.8,1.1-0.7,1.7c0.2,0.5,0.8,0.8,1.3,1c1-0.3,1.4-1.6,0.9-2.5
		C193.3,110.6,192.7,110.4,192.2,110.6z M193.5,111.5c0.1,0.4-0.2,0.8-0.5,1.1c-0.1-0.1-0.2-0.2-0.3-0.3c0.7-0.1,0.4-1.2-0.2-1
		c-0.5,0.1-0.4,1,0.1,0.9c0,0.2,0,0.3,0,0.5c-0.3-0.2-0.6-0.4-0.8-0.7c0-0.4,0.2-1,0.7-1C193,110.9,193.5,111.1,193.5,111.5z"/>
	<path class="st0" d="M196.4,33.5c0-0.3,0.1-0.6,0-0.8c-0.2,0.2-0.4,0.3-0.4,0.6c0,0.6,0,1.3,0.2,1.8c0.1,0,0.4,0.1,0.5,0.1
		C196.6,34.6,196.3,34.1,196.4,33.5z"/>
	<path class="st0" d="M204.9,45.9c0.5,0.4,0.8-0.2,0.7-0.6C205.2,45.2,204.5,45.5,204.9,45.9z"/>
	<path class="st0" d="M188.8,76.3c-0.2,0.1-0.6,0.3-0.5,0.7c0.3,0.3,1.1,0.3,1.1-0.2C189.5,76.5,189.1,76.2,188.8,76.3z"/>
	<path class="st0" d="M143.9,95.1c-0.3,0-0.7-0.2-0.9,0.1c-0.1,0.5,0,1,0.1,1.5c0.3,0,0.6,0,0.9,0C144,96.1,144,95.6,143.9,95.1z"/>
	<path class="st0" d="M190.1,35.4c-0.3,0.4-0.7,0.8-0.8,1.3c-0.1,0.6-0.1,1.2,0,1.8c0,0.6,0.5,0.9,0.9,1.3c0.7-0.6,0.9-1.6,0.8-2.5
		C191.1,36.6,190.9,35.7,190.1,35.4z M190,38.8c-0.1,0-0.3-0.1-0.4-0.1c0-0.9-0.3-2,0.5-2.7C190.3,37,190.1,37.9,190,38.8z"/>
	<path class="st0" d="M146.4,128.5c-0.1,0.1-0.2,0.3-0.4,0.4c0.1,0.8,0.2,1.5,0.3,2.3c0.4,2.1,0.6,4.3,1.2,6.4c0.2,1,0.8,1.9,1.1,3
		c0.1,0,0.3,0,0.3,0c0-0.1,0-0.2,0-0.3c-1.2-2.3-1.5-4.9-2-7.4C146.8,131.3,146.5,129.9,146.4,128.5z"/>
	<path class="st0" d="M204.4,37.5c0.1,0.6,0.7,0.8,1.2,1.1c0.8,0,1.4-0.7,1.6-1.4c0.2-1.1-1.1-2.1-2.1-1.4
		C204.5,36.1,204.2,36.8,204.4,37.5z M206.3,36.2c0.8,0.5,0.3,1.7-0.5,1.8c-0.4-0.3-0.9-0.4-1-0.9C204.7,36.4,205.6,35.6,206.3,36.2
		z"/>
	<path class="st0" d="M206,37.3c0.1-0.1,0.2-0.2,0.3-0.3c0-0.1-0.1-0.4-0.2-0.5c-0.5,0-0.7,0.3-0.6,0.7
		C205.6,37.2,205.9,37.3,206,37.3z"/>
	<path class="st0" d="M196.6,39.3c-0.3,1-0.6,2.1-0.2,3.1c0.1,0,0.3,0,0.4,0c-0.1-0.5-0.2-0.9-0.2-1.4c0.1-0.5,0.3-1,0.4-1.6
		C196.9,39.4,196.7,39.3,196.6,39.3z"/>
	<path class="st0" d="M185.6,75.4c0.3-0.2,0-0.6-0.1-0.9c-0.6,0-1.1,0.3-1,1C184.9,75.6,185.4,75.7,185.6,75.4z"/>
	<path class="st0" d="M205.2,41.8c0.3,0.1,0.6,0.5,0.9,0.2c0.2-0.4-0.3-0.4-0.5-0.6c0.3,0,0.7-0.1,0.9-0.3c-0.3-0.5-0.7-0.3-1.1-0.2
		c0.1-0.3,0.2-0.6,0.1-1c-0.5,0-0.5,0.5-0.7,0.9c-0.3-0.2-0.7-0.5-0.9,0c0.2,0.2,0.4,0.4,0.6,0.6c-0.1,0.3-0.1,0.6-0.1,0.9
		c0.1,0,0.3,0,0.5,0C205,42.2,205.1,41.9,205.2,41.8z"/>
	<path class="st0" d="M189.4,65.4c0.7,0.1,1.3,0.2,2,0.2c0.2-0.3,0.2-0.7,0.3-1.1c-0.6-0.3-1.3-0.4-2-0.5
		C189.5,64.5,189.4,64.9,189.4,65.4z M190.9,64.7c0.2,0,0.4,0.1,0.3,0.3c-0.5,0.1-1,0-1.4-0.1C190,64.7,190.5,64.7,190.9,64.7z"/>
	<path class="st0" d="M184.5,76.5c0.9,0.5,2.2-0.2,2.4-1.2c0.1-1-1.3-1.7-2.1-1.2c-0.4,0.2-0.8,0.5-1,0.9
		C183.6,75.5,184,76.1,184.5,76.5z M185.3,74.2c0.5-0.1,0.9,0.3,1.3,0.6c0,0.5-0.2,1.1-0.7,1.3c-0.4,0.1-0.9,0-1.3,0
		c-0.2-0.3-0.4-0.6-0.5-0.9C184.3,74.7,184.7,74.2,185.3,74.2z"/>
	<path class="st0" d="M190.2,75.6c-1-0.4-2.3-0.4-3,0.5c-0.3,0.3-0.4,0.9-0.1,1.3c0.5,0.4,1.2,0.8,1.8,1c0.8-0.3,1.9-0.5,2.2-1.4
		C191.3,76.2,190.7,75.7,190.2,75.6z M187.5,77c-0.3-0.7,0.5-1.1,1.1-1.3c0.8-0.1,2,0.1,2.2,1C190,77.7,188.4,77.8,187.5,77z"/>
	<path class="st0" d="M152.4,108.7c0.5,0,1,0,1.5,0c0-0.1,0.1-0.3,0.2-0.5c-0.3-1.9-0.4-3.8-0.5-5.7c0-0.2-0.1-0.4-0.2-0.5
		c-0.5,0-0.9,0.2-1.4,0.3c0,0.8,0.2,1.7,0.2,2.5C152.3,106.1,152.1,107.4,152.4,108.7z M153.2,102.6c0,1.9,0.3,3.8,0.4,5.7
		c-0.2,0-0.6,0-0.8,0c-0.1-1.9-0.2-3.7-0.2-5.6C152.8,102.6,153,102.6,153.2,102.6z"/>
	<path class="st0" d="M181.3,56.7c0-0.2,0-0.4,0-0.6c-0.2,0-0.4,0-0.6,0c0,0.2,0,0.4,0,0.6C180.9,56.7,181.1,56.7,181.3,56.7z"/>
	<path class="st0" d="M179.7,58.9c0.2-0.1,0.4-0.3,0.5-0.5c-0.1-0.1-0.4-0.3-0.5-0.3c-0.1,0.1-0.4,0.3-0.5,0.4
		C179.3,58.6,179.5,58.8,179.7,58.9z"/>
	<path class="st0" d="M183.4,62c0.6-0.3,0.6-1.3-0.2-1.3c0,0.2,0.1,0.6,0.1,0.7c-0.2,0-0.4,0-0.7-0.1l0.4-0.2
		c-0.1-0.1-0.3-0.2-0.4-0.3c-0.3,0.3-0.3,0.7,0,1C182.9,61.8,183.2,61.9,183.4,62z"/>
	<path class="st0" d="M186.5,62.8c-0.4-0.5-1-0.6-1.6-0.5c-0.6,0.2-0.3,0.9-0.1,1.2c0.3,0.1,0.6,0.3,0.8,0.6
		C186.3,64,186.7,63.4,186.5,62.8z M184.9,62.7c0.5-0.1,0.9,0,1.3,0.3c-0.2,0.2-0.3,0.3-0.5,0.5C185.3,63.4,184.9,63.2,184.9,62.7z"
		/>
	<path class="st0" d="M193.5,63.6c-0.3-0.7-1.2-1.2-1.8-0.5c0,0.4,0.1,0.9,0.1,1.3c0.4,0,0.7-0.1,1.1-0.1c0.1,0.4,0.2,0.9,0.7,0.9
		c0-0.2,0-0.4,0-0.7l-0.3,0.1c0-0.1,0-0.4,0.1-0.5c0.5,0,1.1,0,1.6,0c0,0.2,0.1,0.4,0.1,0.6c-0.5,0-0.9-0.1-1.4-0.1
		c0.1,0.1,0.2,0.3,0.2,0.4c0.4,0,0.9,0,1.3,0c0.5-0.3,0.2-0.9,0-1.2C194.8,63.5,194.1,63.6,193.5,63.6z M192.2,64c0-0.2,0-0.5,0-0.7
		c0.2,0.1,0.5,0.1,0.7,0.2C192.7,63.7,192.5,63.9,192.2,64z"/>
	<path class="st0" d="M172.8,68.9c-0.7,0-1.3,0-2,0.1c-0.7,0.4-0.3,1.4-0.3,2c0.2,2.5,0,5.1,0.3,7.7c0.8,0.3,1.7,0.2,2.5,0.2
		c0.1-2.2-0.2-4.3-0.2-6.5C173.1,71.2,173.3,70,172.8,68.9z M171.1,74.4c0.2-1.6-0.2-3.2-0.1-4.8c0.5-0.1,0.9-0.2,1.4-0.3
		c0.4,0.9,0.2,1.9,0.2,2.8c0,0.7,0.1,1.5,0.1,2.2C172.2,74.5,171.6,74.6,171.1,74.4z"/>
	<path class="st0" d="M150.7,105.3c0.1-1.2-0.1-2.5-0.2-3.7c0-2.1-0.5-4.2-0.4-6.3c-1.3-0.1-2.6,0.2-3.9,0c0.2,3.3,0.3,6.7,0.5,10
		C148,105.7,149.3,105.3,150.7,105.3z M148.9,99.4c0.4,0.8,0.2,1.7,0.3,2.6c0.1,0.7,0.1,1.5,0.1,2.2c-0.5,0-1,0.1-1.6,0.1
		c-0.2-1.6-0.4-3.1-0.4-4.7C147.9,99.4,148.4,99.4,148.9,99.4z"/>
	<path class="st0" d="M191.1,110c0.1-0.3,0.3-0.5,0.4-0.8c-0.4-1-2-1.3-2.4-0.2C189.6,109.9,190.3,110.2,191.1,110z M191.1,109.2
		c-0.4,0.4-1.1,0.2-1.4-0.3C190.2,108.8,190.6,109,191.1,109.2z"/>
	<path class="st0" d="M195.3,60.2c0.3,0.3,0.7,0.2,1.1,0.3c0-0.2,0.1-0.4,0.1-0.7c-0.3-0.4-0.8-0.3-1.2-0.2
		C195.3,59.7,195.2,60,195.3,60.2z"/>
	<path class="st0" d="M193.1,60.3c-0.7-0.3-1.4-0.2-2.1-0.2c-0.1,0.8-0.2,1.5-0.2,2.3c0.7,0,1.4,0,2.1,0
		C193.2,61.7,193.2,61,193.1,60.3z M192.6,61.8c-0.4,0-0.9,0-1.3,0c0-0.4,0.1-0.8,0.2-1.2c0.4,0,0.9,0,1.4,0
		C192.7,61,192.7,61.4,192.6,61.8z"/>
	<path class="st0" d="M179.6,93.3c1,0.1,2.1-0.2,2.7-1.1c0.2-1-0.9-1.8-1.8-1.6c-0.6,0.1-1.2,0.3-1.7,0.6c-0.5,0.2-0.7,0.7-0.5,1.2
		C178.3,93,179,93.2,179.6,93.3z M178.6,91.7c0.4-0.3,0.8-0.5,1.2-0.7c0.1,0.1,0.2,0.2,0.3,0.3c-0.3,0.1-0.5,0.2-0.8,0.3
		c0,0.2,0,0.5,0,0.7c0.6,0.2,1.2,0.3,1.8,0c0.3-0.2,0.5-0.5,0.3-0.8c-0.3-0.5-0.9-0.3-1.3-0.3c0-0.1,0.1-0.3,0.1-0.4
		c0.7,0,1.4,0.2,1.7,0.9c0.2,0.5-0.3,0.8-0.7,1c-0.6,0.4-1.3,0.2-2,0.3C178.8,92.7,178.4,92.3,178.6,91.7z M181.1,91.5
		c0.2,0.8-1.1,0.6-1.6,0.7C179.7,91.5,180.5,91.4,181.1,91.5z"/>
	<path class="st0" d="M190.7,74.6c0.6-0.1,1.3-0.2,1.8-0.6c0.4-0.3,0.5-0.8,0.3-1.3c-0.4-0.6-1.2-1.1-2-1.1c-0.9,0-2,0.1-2.6,0.8
		c0.1,0.3-0.1,0.7,0.2,0.9C189,74.1,190.1,73.9,190.7,74.6z M188.6,72.6c0.2-0.3,0.5-0.4,0.8-0.5c0.9-0.2,2-0.3,2.7,0.3
		c0.2,0.2,0.5,0.4,0.4,0.7c0,0.5-0.5,0.7-0.9,0.9c-0.9,0-1.9-0.2-2.7-0.6C188.6,73.2,188.6,72.9,188.6,72.6z"/>
	<path class="st0" d="M195.8,73.7c-0.6-0.5-1.4,0.4-0.9,1C195.4,74.7,196,74.2,195.8,73.7z"/>
	<path class="st0" d="M144,77.5c0.5-0.1,1.1-0.3,1.5-0.7c-0.1-0.2-0.4-0.4-0.6-0.2c-0.5,0.2-0.9,0.8-1.5,0.4
		c-0.5-0.2-0.5-0.9-0.5-1.3c0.3-0.3,0.5-0.9,1.1-0.8c0.5,0,1,0.4,0.9,0.9c-0.2,0.5-0.7,0.5-1.1,0.6c0-0.2,0.1-0.6,0.1-0.8
		c-0.5,0-0.7,0.7-0.3,0.9c0.5,0.3,1,0,1.4-0.3c0.5-0.5,0.1-1.3-0.5-1.5c-0.9-0.5-1.9,0.4-2,1.3C142.4,76.6,143.1,77.6,144,77.5z"/>
	<path class="st0" d="M185,78.1c-0.4,0.1-0.8,0.4-0.9,0.8c0.2,0.7,0.7,1.5,1.4,1.7c0.7-0.1,1.6,0.1,2.1-0.6c0.3-0.3,0.2-0.8-0.1-1.1
		C186.9,78.2,185.9,77.8,185,78.1z M186.6,79.7c-0.1-0.4-0.5-0.7-0.9-0.6c-0.4,0-0.3,0.6-0.4,0.8c-0.4-0.2-0.6-0.6-0.7-1.1
		c0.8-1,2.3-0.3,2.8,0.6C187.1,79.7,186.7,80.4,186.6,79.7z"/>
	<path class="st0" d="M194.2,78.9c0.3-0.2,0.2-0.6,0-0.8c-0.4,0.1-0.7,0.4-1,0.7C193.5,79,193.9,79.2,194.2,78.9z"/>
	<path class="st0" d="M149.7,128.4c-0.5,0-1.1-0.1-1.6,0c-0.3,0.1-0.1,0.5-0.1,0.7c0.3,1.3,0.1,2.7,0.4,4.1c0.6,0,1.1,0,1.7-0.1
		c0.3-0.3,0.2-0.8,0.2-1.2C150.1,130.8,150.2,129.5,149.7,128.4z M148.8,132.7c0-1.2-0.2-2.5-0.2-3.7c0.3,0,0.6-0.1,0.9-0.1
		c0.2,1.3,0.3,2.5,0.3,3.8C149.4,132.7,149.1,132.7,148.8,132.7z"/>
</g>
</svg>
