<?xml version="1.0" encoding="utf-8"?>
<!-- Generator: Adobe Illustrator 26.0.3, SVG Export Plug-In . SVG Version: 6.00 Build 0)  -->
<svg version="1.1" id="Слой_22" xmlns="http://www.w3.org/2000/svg" xmlns:xlink="http://www.w3.org/1999/xlink" x="0px"
	 y="0px" viewBox="0 0 239.5 150.2" style="enable-background:new 0 0 239.5 150.2;" xml:space="preserve">
<g>
	<path d="M163.2,94.3c-0.6-0.7-1.1-1.6-1.5-2.4c0,1.8,1.1,3.3,2,4.8c0.8,1.2,1.7,2.3,2.8,3.2c1.1,1,1.8,2.4,3,3.2
		c1.3,0.9,3,1,4.4,0.5c1.4-0.5,2.9-0.4,4.4-0.8c1.1-0.2,2.1-0.7,3.1-1.2c-1.2,1.1-2.8,1.5-4.4,1.9c3.1,0.5,6,1.6,8.7,3.2
		c2.9,1.6,5.6,3.8,8.8,4.8c-0.5,2.6-0.9,5.3-0.9,8c-1.1-1.5-2.1-3.2-3.4-4.5c-0.3-0.3-0.7-0.5-1.1-0.7c-0.1,1.6,0.4,3.1,0.6,4.7
		c1.7,8.3,3.5,16.5,5.6,24.7c0.4,1.3,0.6,2.7,1.3,3.9c0.2-1.9,0-3.8-0.2-5.7c-0.5-6.7-1.4-13.3-1.3-20c0-3,0.1-6.1,0.2-9.1
		c0-0.4,0.1-0.8,0.3-1.1c0.1,0.3,0.2,0.7,0.2,1.1c0.4,5.4,0.7,10.8,1.4,16.1c0.7,3.9,1.2,7.9,1.7,11.9c0.2,1.3,0.3,2.7,0.8,4
		c0.2-3.7-0.3-7.3-0.1-11c0-0.4,0.1-0.7,0.4-1c1.6,2,2.3,4.6,3.7,6.8c0.9,1.4,1.3,2.9,1.8,4.5c0,0.6,0.2,1.3,0.2,1.9
		c0.1-1.9,0.1-3.9,0.1-5.8c0.1-1,0-2,0.1-3.1c0.1-0.7,0.3-1.5,0.2-2.2c0.4-5.3,1.1-10.5,1.8-15.7c1.2-8.1,2.6-16.2,4.4-24.2
		c0.7-3.2,1.4-6.3,2.6-9.4c1.3-3.6,2.2-7.3,2.6-11c0.9-2.3,2.2-4.5,3-6.9c0.2-0.5-0.1-1-0.3-1.5c2.5,1.4,5.1,2.7,7.2,4.7
		c1.2,1.1,2,2.7,2,4.4c0,1.9-0.4,3.7-0.7,5.5c-1.3,7.3-3.1,14.5-4.1,21.9c-1.2,9.5-1.6,19.1-2.6,28.7c-0.2,2.7-2.2,4.7-4,6.5
		c-1.3,1.3-1.5,3.2-1.8,4.9c-0.3,2.4-0.7,4.9-0.3,7.4c0.7-0.6,0.8-1.6,1-2.4c0.4-1.6,0.5-3.3,0.8-5c0.1-0.7,0.5-1.5,1.2-1.8
		c1.4-0.4,2.8,0.3,4.2,0c0.8-0.2,1.1-1.1,1.3-1.8c0.5-2.1,0.6-4.3,0.7-6.5c0.4-7.2,0.5-14.4,0.8-21.5c0.2-4.4,0.3-8.9,0.9-13.3
		c1.3-7,2.9-13.9,4.2-20.9c0.1-0.9,0.3-1.8,0.3-2.6c-0.2-0.6-0.6-1.2-0.9-1.8c2.4,0,4.6,1.2,6.9,1.7c-1.2-0.8-2.5-1.2-3.7-1.9
		c-4.9-2.2-9.6-4.7-14.3-7.1c0-0.5,0-1,0-1.5c0.3,0,0.6-0.1,1-0.1c0.1-0.4,0-1,0.4-1.2c0.4-0.2,0.8-0.3,1.1-0.4
		c0.1-0.7,0.2-1.5,0.4-2.2c0.2,0,0.6,0,0.8,0c-0.1-0.8,0.1-1.6,0.5-2.3c0.2-1.6-0.5-3-0.7-4.6c0.2,0,0.5,0.1,0.6,0.2
		c0.6,1.3,0.3,2.7,0.6,4.1c0.3-2.4,0.1-5-1-7.1c-0.5-2-1.9-3.7-2.6-5.6c1.2,0.9,2.2,2,2.7,3.4c-0.1-2-2.1-3.1-3.3-4.4
		c-1.2-1.7-2.4-3.5-3.5-5.2c0.2,0.1,0.7,0.2,0.9,0.3c-1.3-1.2-2.6-2.5-3.3-4.2c-2.2-5.3-5.7-9.9-9.3-14.3c4.7,2.9,8,7.7,9.7,12.9
		c-0.4-2.4-1.5-4.6-2.7-6.6c-1.9-3.2-4.9-5.7-8.2-7.4c-2.4-2.5-5.2-4.8-8.5-6c-1.2-0.5-2.5-0.6-3.7-1c-1.6-1-3.5-1.7-5.4-1.9
		c-3.4-0.4-6.9-0.1-10.3,0.5c-0.6,0.1-1.1-0.3-1.7-0.4c-0.8-0.3-1.7-0.2-2.5,0.1c-1.2-0.9-2.9-0.6-4.2-0.2c-3.2,1-6.4,2.2-9.1,4.3
		c-1.9,1.5-3.9,3-5.7,4.6c-2.9,2.4-4.5,6.2-4.4,9.9c0,1,0.1,2,0.3,3c-0.3,0-0.8-0.1-1.1-0.2c-0.3,0.2-0.3,0.7-0.4,1
		c-0.3,0.1-0.4,0.3-0.4,0.5c0,1.1-0.5,2.1-0.4,3.1c0.2,0.9,0.5,1.7,1.1,2.3c0.6-2,1.5-3.9,2.5-5.7c0.4-0.1,0.7-0.1,0.8-0.6
		c0.2,0,0.7,0.1,0.9,0.1c-0.2-0.3-0.3-0.6-0.5-0.9c0.3,0.1,0.7,0.2,1,0.4c-0.1-0.2-0.3-0.7-0.4-0.9c0.3,0.2,0.6,0.4,1,0.6
		c-0.2-0.4-0.5-0.9-0.7-1.3c0.3,0.1,0.9,0.3,1.2,0.5c-0.1-0.2-0.4-0.6-0.5-0.8c0.5,0.2,1,0.4,1.5,0.6c0,0.1,0.1,0.2,0.1,0.3
		c0.1-0.4,0.4-0.6,0.7-0.7c0-0.1,0-0.3,0-0.4c0.3,0.1,0.6,0.2,0.9,0.2c-0.2-0.2-0.4-0.5-0.6-0.7c0,0,0.1-0.1,0.2-0.2l0.5,0.2
		c-0.2-0.3-0.3-0.7-0.5-1c0.5,0.4,1.1,0.7,1.6,1.1c-0.2-0.4-0.4-0.8-0.6-1.2c0.2,0.1,0.6,0.2,0.8,0.3c0-0.2,0-0.5,0-0.6
		c0.4,0.2,0.7,0.4,1.1,0.5c-0.3-0.4-0.6-0.7-0.9-1.1c0.3,0.1,0.9,0.3,1.3,0.4c-0.1-0.2-0.3-0.5-0.4-0.6c0.4,0.1,0.7,0.2,1.1,0.3
		c0,0,0.1,0.1,0.1,0.2c0.1-0.7,0.7-0.3,1.2-0.2c-0.2-0.4-0.7-0.7-0.6-1.2c0.4,0.2,0.9,0.5,1.3,0.7c-0.4-0.4-0.7-0.8-1-1.2
		c0.5,0.2,1.1,0.5,1.6,0.7c-0.2-0.4-0.4-0.9-0.6-1.3c0.8,0.5,1.6,1.1,2.4,1.6c-0.3-0.5-0.6-1.1-0.9-1.6c0.2,0.1,0.5,0.3,0.6,0.4
		c0,0.3,0.1,0.4,0.4,0.3c0.1-0.1,0.2-0.4,0.3-0.6c0.4,0.3,0.9,0.7,1.4,1c-0.5-0.9-1.2-1.7-1.8-2.6c0.8,0.5,1.5,1,2.3,1.6
		c-0.1-0.3-0.3-1-0.4-1.3c0.5,0.3,0.9,0.7,1.4,1c-0.5-0.9-1.1-1.9-1.5-2.9c0.8,0.8,1.3,1.7,2.2,2.3c-0.2-0.5-0.4-1-0.6-1.5
		c0.3,0.3,0.7,0.5,1,0.8c-0.2-0.4-0.4-0.9-0.5-1.3c0.4,0.3,0.8,0.7,1.2,1c-0.1-0.5-0.3-1-0.4-1.5c0.3,0.5,0.6,1,0.9,1.5l0,0.2
		c0.7-0.4,0.7-1.3,0.7-2c0.1,0.1,0.2,0.3,0.3,0.4c0,0.3,0.1,0.4,0.4,0.4c0-0.2,0.1-0.5,0.1-0.7c0.2,0.4,0.5,0.7,0.7,1.1
		c-0.1-0.4-0.3-0.8,0-1.2c0.6,0,0.4-0.6,0.5-1c0.5,0.7-0.1,1.3,0,2c0.1-0.1,0.3-0.2,0.4-0.3c0.1,0.2,0.4,0.5,0.5,0.7
		c0-0.8,0-1.5,0.1-2.3c0.1,0.2,0.2,0.6,0.2,0.8c0.1,0.3,0.2,0.6,0.4,0.8c0.1-0.4,0.1-0.9,0.2-1.3c0.2,0.5,0.4,1,0.6,1.5
		c0.1-0.5,0.2-1,0.2-1.5c0.3,0.7,0.6,1.4,0.8,2.2c0-0.7,0.1-1.3,0.1-2c0.2,0.2,0.3,0.5,0.5,0.7c0-0.5,0.1-1.1,0.1-1.6
		c0.3,0.8,0.6,1.5,1,2.3c0-0.4,0.1-0.9,0.1-1.3c0.3,0.7,0.5,1.3,0.8,2c0.1-0.6,0.1-1.3,0.2-1.9c0.2,0.7,0.3,1.5,0.5,2.2
		c0-0.2,0.1-0.5,0.2-0.6c0.1,0.3,0.2,0.6,0.4,0.8c0.1-0.2,0.2-0.4,0.3-0.6c0.1-0.4,0.2-0.8,0.2-1.2c0.1,0.4,0.2,0.7,0.3,1.1
		c0.2-0.4,0.3-0.8,0.4-1.2c0,0.4,0.1,0.8,0.2,1.1c0.3-0.6,0.6-1.2,1-1.7c-0.1,0.5-0.2,1.1-0.3,1.6c0.3-0.3,0.7-0.7,1-1
		c-0.2,0.4-0.3,0.7-0.5,1.1l0.6-0.2c-0.2,0.3-0.4,0.7-0.6,1c0.6-0.2,1.2-0.5,1.9-0.8c-0.4,0.4-0.9,0.8-1.4,1.2
		c0.6-0.1,1.1-0.2,1.7-0.4c0,0.2,0.1,0.4,0.1,0.6c0.3-0.1,0.6-0.1,0.9-0.2c-0.1,0.1-0.3,0.4-0.4,0.6c0.5,0,1,0,1.5,0.1
		c-0.2,0.1-0.6,0.2-0.8,0.3c-0.3,0-0.6,0.1-0.9,0.2c0.8,0.2,1.5,0.8,2.4,0.6c0.4,0.1,0.7,0.1,1.1,0.2c-0.8,0.2-1.6,0.4-2.4,0.6
		c1,0.1,1.9,0.1,2.9,0.2c-0.5,0.1-0.9,0.2-1.4,0.3c0.9,0.4,1.9,0.4,2.9,0.5c-1,0.1-2,0.2-2.9,0.2c0.6,0.2,1.3,0.4,1.9,0.5
		c-0.4,0.1-0.9,0.2-1.3,0.3c0.2,0.1,0.5,0.3,0.7,0.4l0.1,0c0.4,0.2,0.8,0.4,1.1,0.7c-0.6,0-1.2-0.1-1.9-0.2c0.9,0.4,1.8,0.7,2.7,1
		c-0.5,0.1-1,0.2-1.4,0.3c1.6,0.4,3.4,0.7,4.8,1.8c-1.8-0.6-3.7-1.6-5.6-1.2c0.9,0.3,1.9,0.4,2.7,0.7c-0.3,0-0.9,0.1-1.2,0.1
		c0.7,0.3,1.3,0.5,2,0.7c-0.3,0.1-0.6,0.2-0.8,0.3c-0.2-0.9-1,0.3-0.1,0.1c0.1,0,0.4,0.1,0.5,0.1c0.6,0.4,1.3,0.8,1.9,1.3
		c0.6,0.6,1.2,1.3,1.4,2.1c-0.4-0.5-0.8-1-1.3-1.4c-0.6-0.8-1.5-1.1-2.4-1.4c0.5,0.5,1.2,0.8,1.7,1.3c0,0.1,0,0.3,0,0.4
		c-0.7-0.5-1.5-1-2.3-1.3c0.6,0.6,1.4,1,1.9,1.7c0.8-0.4,0.2,0.8,0,0c-1.2-0.2-2.2-0.8-3.4-1c0.8,0.4,1.6,0.7,2.4,1.1
		c-0.7,0.2-1.5,0-2.2,0c0.6,0.3,1.3,0.7,1.9,0.6c0.2,0.1,0.6,0.2,0.8,0.3c-1.2,0.1-2.5,0-3.7-0.1c1.7,0.5,3.5,1,5.3,1.3
		c-0.6,0.1-1.1,0.1-1.7,0.2c1.3,0.3,2.7,0.6,3.8,1.5c-1.1-0.1-2.1-0.5-3.2-0.7c0.4,0.2,0.8,0.3,1.2,0.4c-0.3,0.3-0.7,0.5-1.2,0.3
		c0.3,0.1,0.6,0.2,0.8,0.2c0.8-0.5,1.6,0.1,2.3,0.3c-0.5,0-1-0.1-1.5-0.1c0.8,0.5,1.6,0.8,2.2,1.5c-1.2-0.4-2.4-1-3.6-1.2
		c1.9,0.9,3.8,2,5.1,3.7c1.2,1.7,3.3,2.8,5.4,2.7c-0.5-0.3-1.1-0.4-1.6-0.6c0.9-0.2,1.9-0.4,2.8,0c0.6,0.2,1,0.9,1.5,1.4
		c1.9-1.4,4.1-2.5,6.5-2.5c2.1,0.1,3.8,1.6,4.9,3.3c0.7,1.2,1.4,2.6,1.2,4c-0.4,2-0.9,4-1.5,6c-0.8,2.8-1.6,5.7-3.2,8.3
		c-0.9,1.6-2.6,2.8-4.4,3c-1.4,0.1-2.6-0.8-3.5-1.7c0,4.7,0,9.5-1.8,13.9c0.5-2,0.9-4,0.6-6c-0.3,1.8-0.5,3.6-1.1,5.3
		c0.1-1.7,0.4-3.4,0.1-5.1c-0.4,2.1-0.5,4.3-1.4,6.4c0.3-1.8,0.6-3.7,0.4-5.5c-0.8,2.7-1.6,5.5-3.3,7.8c-1.6,2.2-3.5,4.3-5.4,6.3
		c-0.8,0.8-1.7,1.6-2.7,2.2c-3.1,1.9-6.2,3.8-9.3,5.7c-2.7,1.6-5.9,2.5-9,2.1c0.5,0.6,1.1,1.2,1.7,1.7c-1.7,0.3-3.6-0.1-5-1.1
		c-1.4-1-2-2.6-2.6-4.1C165.5,96.3,164.2,95.4,163.2,94.3z M151.2,28.2c-0.2-0.3-0.5-0.7-0.5-1.1c0-0.7,0-1.3,0.1-2
		c0-0.2,0-0.6,0-0.8h0.4C151.1,25.6,151.1,26.9,151.2,28.2z M151.7,25.5c0.6,0.8,0.6,1.8,0.9,2.7C151.8,27.6,151.7,26.5,151.7,25.5z
		 M152.6,25c0.1,0.2,0.1,0.6,0.4,0.7c0-0.2,0.1-0.6,0.1-0.8c0.2,0.2,0.3,0.4,0.5,0.7c0-0.2,0-0.5,0-0.7c0.1,0.1,0.3,0.3,0.4,0.4
		c0.2-0.5,0.3-1.1,0.5-1.6c0.4,1.1,0.7,2.3,1,3.4c-0.3,0.1-0.6,0.2-0.9,0.3c-0.5-0.4-0.8-0.9-1.4-1.2c0.1,0.6,0.5,1.2,0.8,1.8
		c-1.1-1-2-2.4-1.8-4C152.5,24.4,152.6,24.7,152.6,25z M155.5,22.6c0.2,1.1,0.6,2.2,1.1,3.2c-0.3-0.1-0.6-0.2-0.9-0.2
		c-0.3-0.4-0.6-0.9-0.7-1.4C155.3,23.7,155.4,23.2,155.5,22.6z M156.3,22.4c0.4,1.2,1.1,2.4,1.8,3.4
		C156.8,25.1,156.1,23.8,156.3,22.4z M157.2,21.6c0.5,1,1.1,1.9,1.4,3c-0.7-0.7-1.3-1.6-1.5-2.5C156.8,22,157,21.1,157.2,21.6z
		 M158.3,21.3c0.2,0.5,0.5,1,0.8,1.5c0-0.3,0.1-0.8,0.1-1c0.4,0.7,0.8,1.4,1.1,2.1c-0.3-0.2-0.6-0.4-0.8-0.7l-0.2,0.4
		c-0.8-0.8-1.3-1.8-1.3-2.9C158,20.8,158.2,21.1,158.3,21.3z M160,19.7c0.2,1.6,1.3,2.8,2,4.2C160.8,22.9,159.5,21.5,160,19.7z
		 M162.2,21.1c-0.2-0.5-0.2-1.1-0.2-1.6c0.5,0.9,1.1,1.8,1.4,2.8c-0.3-0.2-0.5-0.4-0.8-0.7c-0.1,0-0.3,0.1-0.4,0.2
		c-0.4-0.4-0.7-0.9-0.7-1.5C161.8,20.6,162,20.8,162.2,21.1z M163.4,17.9c0.3,1.5,0.6,3.1,1.2,4.6C163.4,21.3,163,19.5,163.4,17.9z
		 M165,21.7c-0.4-1-0.7-2.1-0.3-3.1C164.9,19.6,165.1,20.6,165,21.7z M167.2,20.3c-0.2-0.4-0.4-0.8-0.4-1.2c0-0.5,0.1-1,0.1-1.5
		l-0.3,0c0,0.3-0.1,0.5-0.1,0.8c-0.1,0.6-0.2,1.2-0.3,1.8c0-0.2-0.1-0.7-0.1-0.9c0-0.5,0-0.9,0-1.4c0-0.4,0.1-0.8,0.1-1.1
		c0,0.2,0.1,0.7,0.2,0.9c0.4-0.2,0.6-0.5,0.9-0.8C167.1,18.1,167.2,19.2,167.2,20.3z M195.9,16.5c3.2,0.6,5.5,3.1,7.9,5.1
		c-0.1,0.1-0.2,0.2-0.3,0.3C201.2,19.8,198.5,18.3,195.9,16.5z M188.4,25.1c1.9-0.2,3.9-0.4,5.8,0C192.3,25.4,190.3,25.6,188.4,25.1
		z M187,23.6c1.4-0.4,2.8-0.4,4.3-0.2c-0.7,0.2-1.4,0.3-2.2,0.4l0,0.2c-0.1,0.1-0.2,0.2-0.3,0.3c1.1-0.1,2.3-0.1,3.4,0.2
		c-1.4,0.2-2.7,0-4.1,0c0.1-0.1,0.2-0.3,0.3-0.5c-0.1-0.1-0.4-0.2-0.5-0.3C187.6,23.7,187.3,23.6,187,23.6z M186.8,22.9
		c1.6-0.7,3.5-1.3,5.3-0.9C190.3,22.2,188.6,22.8,186.8,22.9z M186.6,22.3c1.6-1.2,3.7-1.5,5.7-1.3
		C190.4,21.5,188.5,21.7,186.6,22.3z M183.4,21.3c0.6-1.5,1.6-3.1,3.2-3.6C185.4,18.7,184.5,20.1,183.4,21.3z M171,21L171,21L171,21
		C171,21,171,21,171,21z M169.2,15.7c0.1,0.9,0.1,1.7,0,2.6c-0.1,0-0.2-0.1-0.3-0.2c-0.1-0.9,0-1.9,0.1-2.8
		C169.1,15.4,169.2,15.6,169.2,15.7z M171.8,13.6c-0.1,0.9-0.3,1.8-0.7,2.6c0-0.3-0.1-0.8-0.1-1.1l-0.2,0c-0.2,1.2,0,2.5-0.5,3.7
		c0-0.2,0-0.7-0.1-0.9c0-0.6,0-1.3-0.1-1.9l-0.1,0c-0.2,0.5-0.3,1.1-0.5,1.6c-0.1-0.6,0-1.1,0.1-1.7c0.1-0.2,0.2-0.5,0.4-0.7
		c0.1,0.1,0.2,0.3,0.3,0.4c0.3-0.2,0.4-0.5,0.7-0.7C171.3,14.5,171.5,14,171.8,13.6z M172.5,14.3c-0.5,1.5-0.7,3.1-1,4.7
		C171.2,17.4,171.4,15.5,172.5,14.3z M173.3,15.5c0,0.1,0,0.3,0,0.4c0,0.2,0,0.4-0.1,0.6c-0.1,0.7-0.3,1.4-0.5,2.1
		C172.3,17.5,172.6,16.3,173.3,15.5z M174.8,14.6c-0.5,1.1-0.8,2.2-1,3.3c-0.2-0.7-0.2-1.5,0.1-2.1C174,15.3,174.4,14.9,174.8,14.6z
		 M176.2,15c-0.1,0.3-0.3,0.6-0.4,1c-0.1,0.4-0.2,0.7-0.3,1.1c-0.1,0.6-0.3,1.2-0.5,1.8c-0.1-0.3-0.2-0.6-0.3-1
		c-0.1,0.5-0.3,1-0.5,1.5c-0.1-1.5,0.5-2.9,1.2-4.3C175.7,15,176,15,176.2,15z M177.1,17c-0.1,0.2-0.2,0.4-0.3,0.6
		c-0.1,0.4-0.1,0.7-0.3,1.1l0-0.2c0.1-0.2,0.2-0.5,0.2-0.6c0-0.1-0.1-0.4-0.2-0.5c-0.2,0-0.5,0-0.7,0c0.1-0.5,0.3-1,0.4-1.5
		c0.2-0.3,0.5-0.5,0.7-0.7C177,15.7,176.7,16.5,177.1,17z M180.1,15.1c-0.2,1.2-0.7,2.2-1.3,3.3c0-0.5,0-0.9-0.2-1.3
		c-0.1,0.5-0.3,1.1-0.5,1.6c-0.1-0.4-0.1-0.7-0.1-1.1c0-0.1,0.1-0.4,0.2-0.5c0-0.2,0.1-0.5,0.1-0.6c0,0,0-0.1,0.1-0.1
		c0.2-0.3,0.4-0.6,0.6-0.9c-0.1,0.6-0.2,1.2-0.4,1.7c0.1,0,0.4-0.1,0.5-0.2C179.3,16.2,179.7,15.6,180.1,15.1z M181.6,13.8
		c-0.1,1.7-1,3.3-2,4.7C180,16.9,180.8,15.3,181.6,13.8z M181.7,16.3c-0.1,0.7-0.3,1.4-0.4,2.1c-0.1,0.2-0.2,0.5-0.3,0.7
		C180.8,18.1,180.9,17,181.7,16.3z M183.5,14.8c-0.6,1.4-1.4,2.7-1.7,4.2c-0.4-0.9,0-1.7,0.3-2.5C182.5,15.8,182.9,15.2,183.5,14.8z
		 M184.1,15c-0.2,0.9-0.6,1.7-1.1,2.4C182.9,16.4,183.3,15.5,184.1,15z M183.4,17.9c0.1,0.2,0.2,0.3,0.3,0.5c0.7-1.3,2.2-2,3.4-2.7
		c-0.8,0.9-1.8,1.5-2.6,2.4c-0.7,0.7-1.1,1.7-1.8,2.4c0.2-0.6,0.5-1.2,0.8-1.8c-0.2,0.1-0.5,0.2-0.6,0.3c-0.2,0.3-0.4,0.6-0.6,0.9
		c0.3-0.8,0.6-1.6,1-2.4c0.6-1,1.6-1.6,2.6-2.1C185,16.2,184.1,17,183.4,17.9z M188.2,19.1c-1.2,0.5-2.4,1.1-3.6,1.6
		C185.5,19.6,186.8,19,188.2,19.1z M188.9,20c1.5-0.2,3-0.5,4.5-0.1c-1.7,0.2-3.4,0.4-5.1,0.7l-0.2-0.1c0-0.1,0.1-0.2,0.1-0.3
		C188.5,20.2,188.7,20.1,188.9,20c-0.3,0-0.9-0.1-0.9,0.4c-0.3,0-0.6-0.1-0.9-0.1c0.1,0.2,0.9,0.1,0.7,0.5c-0.5,0.2-1,0.3-1.4,0.5
		c0.2-0.2,0.5-0.6,0.7-0.8c-0.8,0.2-1.5,0.5-2.3,0.7c2.1-1.4,4.6-2.3,7.1-2C190.9,19.6,189.9,19.7,188.9,20z M208,24.7
		c-0.1,0.1-0.2,0.2-0.3,0.4c-0.1-0.3-0.3-0.6-0.6-0.9c-2.7-3.1-5.6-6.2-8.9-8.7c-1.2-1-2.6-1.7-4.1-2.2c1.6,0,3.1,0.8,4.4,1.6
		C202.3,17.5,205.1,21.2,208,24.7z M208.8,26.2c-0.4,0-0.7-0.5-0.7-0.9c0.1,0,0.3,0,0.4,0C208.7,25.6,208.9,25.9,208.8,26.2z
		 M215.3,74c-0.9,1.8-1.8,3.7-2.5,5.5c-2.7,6.9-5.9,13.6-9,20.3c0.1-1.6,0.3-3.3,0.4-4.9l-0.1,0c-0.4,1.5-0.8,2.9-1.4,4.4
		c-0.2,0.6-0.4,1.2-1,1.6c-0.3-1.2-0.2-2.5-0.1-3.7c0.2-3.2,0.8-6.4,1.6-9.6c0.6-2.4,1.2-4.8,2-7.1c-0.3,3.8-0.8,7.5-0.9,11.3
		c1-2.9,1.8-5.8,2.2-8.8c0.2-3.7,0.2-7.3,0.9-11c0.9,0.3,1.8,0.7,2.8,0.5c1.5-0.3,2.8-1.2,3.8-2.3c0.9-0.9,0.8-2.3,1.5-3.4
		c0.5-0.8,1.2-1.4,2-2c-0.5,2.4-1.1,4.8-1.6,7.2C215.8,72.6,215.6,73.3,215.3,74z M200.8,119c-1-1.3-1.8-2.9-1.9-4.7
		c1,0.9,2.5,1.1,3.7,0.7c1.1-0.4,2.3-0.7,3.1-1.6c-1.6,0.1-3,0.9-4.6,0.8c-0.3,0-0.6-0.3-0.4-0.6c1-2.2,1.9-4.5,2.4-6.9
		c-1.1,1-1.8,2.3-3,3.2c1.6-4,3.4-7.9,5.4-11.7c3.5-6.5,6.1-13.3,9.8-19.7c-0.5,2.8-1.3,5.6-2.2,8.3c-1.3,4.3-2,8.6-2.9,13
		c-1.5,8.2-2.7,16.4-3.6,24.6C204.5,122.9,202.5,121.1,200.8,119z M201.1,128.3c1.1-0.2,2.2-0.4,3.4-0.4c0.7,0.5,1.1,1.3,1.5,2.1
		c0.1,1.3-0.2,2.7-0.2,4c-0.5,2.4,0.2,4.9-0.6,7.2c-1.3-2.4-2.5-4.8-3.4-7.4C201.1,132.1,201,130.1,201.1,128.3z M198.2,113.2
		c-0.2,1.4-0.1,2.9,0.6,4.2c1.4,2.7,3.6,4.7,6,6.5c0.1,0.8,0.3,1.7-0.1,2.5c-1,0.9-2.4,1.2-3.6,1.8c-1.5-3.6-3-7.3-4.2-11
		C196.4,115.7,197.4,114.3,198.2,113.2z"/>
	<path d="M167.1,36.3c-1.3,0.1-2.4,0.7-3.7,0.9c-0.8,0.1-1.6,0.2-2.3,0.2c1.1-0.2,2.3-0.3,3.4-0.7c0.9-0.3,1.9-0.7,2.9-0.7
		c2.6-0.1,5.2-0.2,7.8,0.4C172.5,36.1,169.8,36.2,167.1,36.3z"/>
	<path d="M147.1,39c-0.3,0-0.6,0-0.9,0c-0.4-0.3-0.8-0.5-1.2-0.8c0.2-0.1,0.5-0.2,0.7-0.2c-0.5-0.3-0.9-0.5-1.4-0.8
		C145.4,37.3,146.7,37.9,147.1,39z"/>
	<path d="M150.2,41.6c2.2-1.5,4.8-2.2,7.3-3C155.1,39.6,152.6,40.4,150.2,41.6z"/>
	<path d="M173.6,39c-1.9,0-3.9,0.5-5.7,1.1c-3,1.1-6.1,1.9-9.1,3c3-1.5,6.3-2.3,9.4-3.4c2.6-0.9,5.3-1,8-0.8
		C175.4,39,174.5,39,173.6,39z"/>
	<path d="M145.2,42.3c-0.7,0.4-1.5,0.6-2.1,1.2c-0.4,0.4-0.3,1-0.3,1.5c-0.2,0.2-0.4,0.4-0.6,0.6c1,0.4,2.3,0.1,3.1,1.1
		c-0.4,0.2-0.8,0.5-1.3,0.7c0.5-0.1,1.1-0.5,1.4,0c0.2,0.3,0.2,0.7,0.2,1.1c-0.4,0-0.8,0.1-1.2,0.1c0.4,0.4,0.9,0.5,1.4,0.6
		c-0.5,0.3-0.9,0.8-1.5,0.8c-0.7-0.3-1.2-1.1-1.2-1.9c-0.1,0.4-0.4,0.9-0.1,1.3c0.5,1.2,2.3,1.6,3,0.4c0.1,0.5,0.3,0.9,0.4,1.4
		c0.1-0.8,0-1.6,0-2.3c0.7-0.5,1.2-1.2,2.1-1.5c1.6-0.6,3.1-1.4,4.6-2.2c-1.6,0.3-3,1.2-4.5,1.8c-0.9,0.3-1.5,1.1-2.2,1.8
		c0.1-3.3-0.2-6.6,0.6-9.8c-0.7,0.2-1.5,0.5-1.7,1.3c-0.2-0.4-0.1-0.8-0.1-1.2c-0.4,0.4-0.4,0.9-0.2,1.4
		C144.4,41.2,144.8,41.8,145.2,42.3z M145.5,41.5c-0.7-0.5,0.1-1.1,0.7-1C145.9,40.8,145.7,41.2,145.5,41.5z M143.8,44.8
		c0.7,0.3,1.4,0.5,2,1C145,45.7,143.7,45.7,143.8,44.8z M145.7,43.5c-0.5,0.3-1,0.4-1.5,0.5c0.1,0.1,0.2,0.4,0.3,0.6
		c-0.3-0.1-0.7-0.2-0.9-0.6C144.1,43.3,145,43.4,145.7,43.5z"/>
	<path d="M176.2,42.3c-1.5-0.3-3-0.3-4.4-0.2c-3.7,0.5-7,2.4-10.3,4.1c1.8-1.2,3.7-2.2,5.7-3C170,42,173.2,41.4,176.2,42.3z"/>
	<path d="M183.4,48c-1.2,0.7-2.5-0.1-3.8,0.1c-0.9,0.1-1.5-0.6-2.4-0.6c-1.6,0.1-3.2-0.3-4.8,0c-0.2,0.1-0.4,0.2-0.6,0.4
		c0.1-0.4,0.2-0.8,0.3-1.2c-0.7,0.4-1.4,0.9-2.1,1.2c0.2-0.5,0.5-1,0.8-1.4c-0.9,0.6-1.3,1.7-2.2,2.3c-0.8,0.4-0.6,1.4-1.2,2
		c-0.1-0.4-0.2-0.8-0.2-1.1c-0.1,0.1-0.2,0.4-0.3,0.6l0.2,0.1c-0.5,0.1-0.8,0.4-1,0.8c-0.1,0-0.3-0.1-0.3-0.1
		c-0.2,0.4-0.3,0.8-0.5,1.2c-0.1-0.1-0.3-0.4-0.4-0.5c0,0.2,0,0.5-0.1,0.7c-0.2-0.2-0.3-0.4-0.5-0.6c-0.1,0.1-0.3,0.2-0.4,0.2
		c-0.1-0.1-0.3-0.2-0.4-0.2c0.4,0.4,0.7,0.7,1.1,1.1c-0.6,0.1-1.2,0.2-1.8,0.3c0.4,0,0.9,0.1,1.3,0.1c-0.1,0.3-0.1,0.6-0.2,0.9
		c-0.9,0.2-2.1,0.3-2.8-0.5c-1-1.3-1.5-3.2-0.5-4.7c0.1,0.7,0.2,1.3,0.5,2c0.3-1.1,0.7-2.4,1.6-3.2c0.1,0.4,0.3,0.7,0.4,1
		c0.4-1.3,0.9-2.7,2.3-3.2c-0.6,0.7-1.1,1.5-1.3,2.4c0.4-0.5,0.8-1,1.3-1.4c0,0.2-0.1,0.7-0.1,1c0.2-0.3,0.3-0.6,0.5-0.9
		c0.1,0.1,0.3,0.2,0.4,0.2c0.4-0.4,0.8-0.7,1.2-1.1c0,0.1,0,0.4,0,0.6c0.4-0.4,0.9-0.8,1.5-1c-0.4,0.5-0.7,1-1.1,1.5
		c1-0.6,1.8-1.3,2.8-1.9c0.8-0.4,1.3-1.3,2.1-1.7c-0.1,0.2-0.4,0.6-0.5,0.8c0.5-0.1,0.9-0.1,1.4-0.2c-0.7,0.3-1.4,0.7-2,1.3
		c0.8,0.1,1.4-0.5,2.1-0.8c1-0.5,2.1-0.3,3.1-0.3c-0.8,0.3-1.5,0.8-1.9,1.6c0.7-0.4,1.3-0.7,2.1-0.9l0.3,0.2c0.6-0.2,1.3-0.6,2-0.6
		c-0.5,0.4-0.9,0.9-1.3,1.4c1.7-0.5,3.5-1.2,4.4-2.8c-0.1,0.4-0.2,0.8-0.4,1.1c-0.4,0.9-1.6,1.2-1.9,2.2c0.2-0.1,0.6-0.2,0.8-0.2
		c-0.1,0.1-0.3,0.4-0.4,0.6c0.5-0.1,1-0.2,1.5-0.3c-0.4,0.4-0.9,0.7-1.5,1c0.7-0.1,1.4-0.3,2.1-0.5l0,0.4c0.7-0.4,1.6-0.1,2.3-0.5
		C184.2,47.3,183.9,47.8,183.4,48z"/>
	<path d="M130.8,71.8c2.6,0.6,5.2,1.9,7.2,3.7c3.5,3.4,7,6.8,11.3,9.2c0.6,0.3,1.2,0.5,1.8,0.7c1.9,0.6,3.4,1.9,5.2,2.6
		c1.3,0.4,2.6,0.7,4,0.7c0.5,0.9,0.9,1.9,1.3,2.9c0.2-0.1,0.4-0.1,0.6-0.2c0.4,0.3,0.8,0.9,1.3,1c0.5-0.2,0.8-0.7,1.2-0.9
		c-0.1-0.5,0-1.1,0.4-1.4c1-0.7,2.2-0.4,3.3-0.6c1.1-0.3,1.9-1.1,2.8-1.6c2.9-1.7,6.3-2.3,9.6-1.8c-0.9-0.8-2.1-1.6-3.3-1.2
		c-1.2,0.4-2.4,0.3-3.6,0.5c-1.5,0.2-3-0.4-4.4-0.8c0.9-0.3,1.9-0.7,2.8-0.7c0-0.2,0-0.5,0.1-0.6c-0.2,0-0.6,0.1-0.8,0.1
		c0.4-0.1,0.7-0.3,1.1-0.3c0.6,0.2,1-0.3,1.4-0.5c-0.2,0.2-0.7,0.6-1,0.8c0.2,0,0.5,0.1,0.6,0.1c-0.5,0.2-1.2-0.1-1.3,0.6
		c-0.6,0-1.1,0.2-1.6,0.4c0.9,0.3,1.9,0.4,2.9,0.4c1.3,0.1,2.3-0.8,3.3-1.4c1.7-1.1,3.6-2,5-3.4c-1.7,0.3-3.4,0.9-5,1.3
		c-1.1,0.3-1.9,1.1-3,1.4c0.9-0.6,1.9-1,2.6-1.8c1.8-1.9,2.8-4.4,4.3-6.6c2.1-3.2,3.4-6.9,4-10.7c0.9-3.5,1.2-7.2,0.9-10.8
		c0.4-0.2,0.7-0.3,1.1-0.5c-0.4,0-0.8,0-1.2,0c-0.3-1.5-1.3-2.8-2.7-3.5c1,1,1.8,2.3,2,3.7c-0.4,0.4-0.9,0.7-1.3,1
		c0.5,0,1-0.2,1.5-0.4c0.1,0.7,0.1,1.3,0.1,2c0,5.9-1.3,11.9-4.2,17.1c-1.4,2.5-3.2,4.7-5,7c-0.7,1-1.8,1.5-3,1.7
		c0,0.1,0.1,0.3,0.2,0.4c-0.4,0-0.9-0.1-1.3-0.2c0,0.1,0.1,0.4,0.1,0.5c-0.3,0-0.6,0-0.9,0.1c0.2,0.1,0.6,0.3,0.8,0.4
		c-0.8,0.1-1.5-0.1-2.3-0.1c0.4,0.2,0.9,0.4,1.3,0.7c-0.6,0-1.2-0.1-1.8,0c-0.6-0.4-1.2-0.1-1.8,0.1c0.2,0.1,0.5,0.2,0.6,0.3
		c-0.2,0.2-0.5,0.4-0.7,0.6c-0.3-0.1-0.6-0.3-0.9-0.4c0.2,0.2,0.5,0.4,0.7,0.6c0,0.1-0.1,0.3-0.1,0.4c1.3,0.8,3,0.8,4.4,1.2
		c-1.1,0.6-2.7,0-3.6,1.1c0.5-0.1,1.1-0.6,1.6-0.1c0.1,0.7-0.9,1.2-1.5,1c-1.3-0.4-2.6-0.2-3.9-0.3c0.6-0.7,1.3-1.3,1.8-2.1
		c-0.6,0.4-1.2,0.9-1.9,1.3c0.4-0.6,0.8-1.2,1.2-1.9c-0.3,0.2-0.7,0.4-1,0.7c0.3-0.7,0.6-1.3,0.9-1.9c-0.7,0.7-1.1,1.6-1.8,2.4
		c0.2-0.7,0.4-1.4,0.7-2c-0.4,0.6-0.9,1.2-1.3,1.7c0-0.2,0-0.7,0.1-0.9c-0.6,1-1.3,2-2.3,2.6c0.1-0.2,0.2-0.5,0.3-0.7
		c-0.4,0.1-0.7,0.2-1.1,0.2c-0.3-1.4-0.5-2.9-1.3-4.1c-1.5-2.4-3.2-4.7-4.9-7c-1-1.5-1.4-3.2-1.5-5c0.7,0.4,1.6,1,2.4,0.6
		c0.7-0.3,1.5-0.6,2-1.2c0-0.7-0.8-0.9-1.3-1.3c-0.6,0.8-1.2,1.6-2.2,1.7c-0.7-0.1-1.1-0.8-1.1-1.5c0.9-0.4,1.3-1.6,2.4-1.7
		c-0.3-0.2-0.7-0.4-1-0.5c0.9-0.4,1.9-0.7,2.6-1.4c-1.7,0.4-3.5,1.5-5.3,0.9c-0.6-0.1-0.5-0.8-0.6-1.3c0.4,0.2,0.7,0.5,1.1,0.7
		c-1.5-1.1-1.7-3.5-0.3-4.8c1.1-0.7,2.5-0.5,3.8-0.4c-1,0.2-2.2,0.6-2.5,1.7c-0.4,1.2,0.3,2.4,1.3,2.9c-0.2,0.2-0.4,0.4-0.7,0.6
		c1.5-0.4,2.3-1.9,3.8-2.2c0.1-0.6,0.1-1.3-0.1-1.9c0.2,0.1,0.6,0.2,0.8,0.3c-0.4-0.4-0.7-0.8-1-1.3c0.4,0.2,1,0.3,1.2,0.8
		c0.3,1.3-0.4,2.5-0.2,3.8c0.1,0.8,0.3,1.6,0.4,2.3c-0.1-1-0.2-2,0-3.1c0.2-1.4,0.9-2.8,0.6-4.2c-0.3-1.2-0.7-2.6-1.7-3.4
		c-1.6-1.2-3.4-2-5.2-2.9c0.2,0.4,0.4,0.8,0.6,1.1c-0.6-0.4-1.1-0.7-1.7-1.1c0-0.1-0.1-0.2-0.1-0.3c0,0.2-0.1,0.5-0.1,0.6
		c-0.3-0.3-0.7-0.5-1-0.8c0.1,0.4,0.3,0.8,0.7,1c0,0.1,0,0.4,0,0.5c-0.5-0.5-1-1.1-1.3-1.7l0.1-0.2c-0.5,0.2-1.1,0.9-0.5,1.4
		c0.1,0.2,0.2,0.4,0.2,0.5c-0.4-0.3-0.8-0.6-1.2-0.8c0.3,0.9,1.2,1.4,2,1.9c-1.9-0.3-3.4-2.5-2.5-4.4c-0.2,0.3-0.5,0.6-0.7,1
		c-0.1,0.5-0.1,1-0.2,1.5c-0.4-0.4-0.5-1-0.7-1.5c-0.4,0.7-0.4,1.4,0,2.1c0.3,0.3,0.5,0.7,0.7,1c-0.6-0.3-1-0.8-1.3-1.3
		c0,0.3,0.1,0.8,0.2,1c-0.1,0.1-0.3,0.4-0.4,0.5c0.4,0.3,0.8,0.5,1.1,0.8c-0.2,0.1-0.5,0.2-0.6,0.3c0,0.2,0.1,0.5,0.2,0.7
		c0.2,0,0.6-0.1,0.8-0.1c0.1,0.3,0.2,0.7,0.3,1c-0.1,0.1-0.3,0.3-0.4,0.4c0.3,0,0.7,0,1,0c0-0.7-0.1-1.7,0.7-1.9
		c1.1,0.1,2,1,3.1,1.2c1.5,0.2,2.9-0.3,4.4-0.2c1,0.1,1.8,0.7,2.4,1.4c-0.3,0-0.7,0-1,0c-0.3-0.1-0.6-0.2-0.9-0.2
		c-0.7-0.3-1.4-0.2-2.2-0.1c-0.9,0-1.9,0.4-2.8,0.5c-1.1,0.2-1.7,1.1-2.5,1.7c-0.2-0.8-0.5-1.6-1.2-2.2c0.4,1.3,1.2,2.4,1.7,3.7
		c0.3,0.8,1.2,1.3,1.8,1.8c0.1,0.7,0.2,1.4,0.3,2.1l0.4-0.2c-0.1,0.3-0.2,0.8-0.2,1c0.1-0.2,0.3-0.5,0.4-0.6
		c0.4,0.4,0.8,0.8,0.8,1.3c0.4,2.1-0.1,4.3,0.9,6.3c1.9,4.2,4.7,8,6.8,12.2c-2.2-0.1-4.5-0.6-6.5-1.6c-1.8-0.9-3.9-1.3-5.5-2.5
		c-1.9-1.4-3.6-3-5.4-4.5c-2.4-1.9-4.7-4.1-7.5-5.5C133.3,72.2,132.1,71.8,130.8,71.8z M153.8,61.9c-0.5-0.3,0.2-0.9,0.5-0.6
		C154.7,61.7,154.2,62.3,153.8,61.9z M147.7,61.6c0.8-0.6,1.7-0.9,2.6-1.3C149.7,61.1,148.8,61.7,147.7,61.6z M160.7,88.8
		c0.2,0,0.7,0,0.9,0c-0.1,0.5-0.1,1-0.2,1.5C161.2,89.8,160.9,89.3,160.7,88.8z"/>
	<path d="M147,50.4c0.7-0.5,1.6-0.6,2.5-0.6C148.7,50,147.9,50.2,147,50.4z"/>
	<path d="M177.3,50.8c-1.2-0.2-2.5-0.2-3.7-0.2C174.7,50,176.2,50,177.3,50.8z"/>
	<path d="M180.1,57.8c-0.1,0.1-0.2,0.4-0.2,0.5c-0.2-0.3-0.3-0.5-0.4-0.8c0,0.2-0.1,0.6-0.2,0.8c-0.1,0.2-0.2,0.3-0.3,0.5
		c-0.1-0.2-0.2-0.5-0.3-0.7c-0.2,0.9-0.6,1.8-1.2,2.4l0,0.1c-0.1,0.1-0.2,0.2-0.3,0.2c0-0.1-0.1-0.4-0.1-0.5
		c-0.3,0.1-0.5,0.2-0.8,0.3c0.1-0.2,0.2-0.5,0.3-0.7l0.1,0c0.2-0.3,0.4-0.6,0.6-0.9c-1.1,0.3-2,1.1-3.1,1.2c1-0.7,2.2-1.3,3.1-2.1
		c-0.7,0.3-1.4,0.6-2,1c-1.2,0.8-2.8,0.9-4.2,0.9c0.3-0.1,0.5-0.3,0.8-0.4c-0.3-0.1-0.7-0.1-1-0.2c0.4,0,0.9,0,1.3,0
		c1.2-0.6,2.6-0.8,3.8-1.4c1.4-0.7,2.8-2,2.8-3.6c-2.1-1.9-5.6-2.3-7.9-0.7c-0.7,0.5-1.5,1.3-1.2,2.3c-0.1,0-0.4,0.1-0.6,0.1
		c0-0.6,0.1-1.1,0.2-1.7c-0.4,0.3-1,0.4-1.2,0.9c-0.4,0.9-0.8,1.8-1.3,2.6c0-0.2,0.1-0.6,0.1-0.8c-0.2,0.1-0.6,0.2-0.8,0.2
		c0.2-0.2,0.5-0.5,0.6-0.7c-0.5,0.1-1,0.1-1.5,0.1c-1.3,1-3.1,0.6-4.7,0.8c1.3-0.8,3-0.4,4.4-0.7l0.2-0.4c-0.8,0.1-1.5,0.1-2.3,0.1
		c0.8-0.6,1.8-0.5,2.7-0.5c-0.1,0.2-0.4,0.5-0.6,0.6c0.8,0.1,1.3-0.5,1.8-1c0-0.1-0.1-0.3-0.1-0.4c0.3-0.3,0.7-0.5,1-0.8
		c-0.2,0-0.6-0.1-0.7-0.1c0.3-0.2,0.6-0.4,0.9-0.5c0-0.1-0.1-0.3-0.2-0.4c1.1-0.2,2.2-0.6,3-1.4c-0.1,0-0.3-0.1-0.4-0.1
		c2.6-1.1,5.5-1.2,8.1-0.1c0.3-0.2,0.5-0.2,0.8-0.2c1.4-0.1,2.6-0.6,3.8-1.4c-0.7,1-1.9,1.7-3.1,1.6l0.2,0.2
		c0.9,0.1,1.8-0.1,2.7-0.5c-0.8,1-2.1,1-3.2,1c0.5,0.3,1.1,0.4,1.6,0.5c-1.7,0.6-3.1-1-4.7-1.3c-1.3-0.2-2.7-0.4-4,0.2
		c0.8,0,1.6-0.1,2.3,0c2.1,0.2,3.7,1.6,5.7,2.2c0.6,0,1.1,0,1.6,0.1c-0.6,0.1-1.2,0.1-1.9,0.1c0.3,0.3,0.7,0.5,1,0.8
		c-0.7-0.3-1.4-0.7-2-1.1C180,55.1,180.4,56.5,180.1,57.8z"/>
	<path d="M199.4,51.6c0.4,1.5,0.3,3.1-0.6,4.4C199.1,54.5,199.2,53,199.4,51.6z"/>
	<path d="M174.5,57.7c-1.3,0.4-2.6,0.6-4,0.7c2.6,0.3,5.5-0.5,7-2.8c0.3-1.2-0.6-2.5-1.9-2.5c-1.4-0.3-2.9,0.9-2.8,2.3
		C172.7,56.5,173.6,57.2,174.5,57.7z M174.1,54.7c0-0.2,0.1-0.6,0.2-0.8c0.3,0,0.6,0.2,0.5,0.6C174.6,54.5,174.3,54.6,174.1,54.7z"
		/>
	<path d="M163.8,54.6c-0.1,0.1-0.4,0.3-0.6,0.4c0.5,0.1,1.1,0.2,1.6,0.3c-1.2,0.4-2.4,0-3.6,0.1c0.3-0.2,0.5-0.3,0.8-0.5
		c-0.8-0.2-1.5-0.5-2.1-0.9C161.1,54.2,162.4,54.7,163.8,54.6z"/>
	<path d="M196.1,57.2c0,1.8-0.1,3.7-0.7,5.5c-0.6,1.5-0.9,3.2-1.9,4.5c-0.3,0.3-0.6,0.8-1.1,0.5c-0.3-2.6,1-5,1.7-7.4
		c0.6-1.9,0.6-4,1.6-5.7C196.2,55.4,196.1,56.3,196.1,57.2z"/>
	<path d="M213.9,55.1c0.7,0.2,0.9,1.1,1,1.8c0.2,2.1,0.1,4.3-1.3,6c-0.5,0.7-1.3,1.4-1.4,2.3c-0.3-0.1-0.6-0.3-0.9-0.4
		c-0.4,0.4-0.8,0.8-1.3,1.1c-0.1-0.4-0.1-0.8-0.2-1.2c-0.5,0.2-1,0.3-1.5,0.5c0.9-0.8,2.1-1.1,2.9-1.9c0.1-0.3,0.2-0.5,0.3-0.8
		c0.4,0.3,0.8,0.9,1.2,0.3c1.3-1.5,1.3-3.8,1-5.6C213.6,56.5,213.3,55.6,213.9,55.1z"/>
	<path d="M169,56c0.1,0.1,0.2,0.3,0.3,0.4c-0.6,0.7-0.7,1.8-1.6,2.3c0-0.6,0-1.3-0.1-1.9C168.1,56.7,168.8,56.7,169,56z"/>
	<path d="M203.2,63.3l0.2-0.3c0-0.5,0.1-1,0.1-1.6c0-0.4,0.2-0.8,0.3-1.2c0.1,0.5,0.2,0.9,0.2,1.4c0.2,1.6,0.2,3.3,0.3,4.9
		c-0.1-0.3-0.2-0.6-0.3-0.9c-0.4,1.2-0.1,2.5-0.2,3.8c-0.2-0.6-0.5-1.1-0.7-1.7c0,0.7-0.2,1.5-0.4,2.1c0.4-1.8,0.1-3.6,0.2-5.4
		c0-1.6-0.2-3.1-0.2-4.7C203,60.9,203.2,62.1,203.2,63.3z"/>
	<path d="M171.8,64.2c-1.9-0.8-3.8-2-4.7-3.9c1.5,0.6,2.7,1.8,4.2,2.4c1.8,0.9,3.9,0.5,5.8,0.9C175.6,64.5,173.6,64.9,171.8,64.2z"
		/>
	<path d="M162.7,80.1c-1.1-0.3-2.2-0.3-3.4-0.5c-1.8-0.5-3.4-2.4-2.7-4.3c0.2,0.9,0.1,1.9,0.8,2.5c1.2,1.1,3,1.2,4.5,0.9
		c1-0.1,0.8-1.3,1.1-2.1c0.3-0.9,1.4-1.2,2.2-1.2c1.2,0,2.5-0.5,3.7,0c0.5,0.1,1.2,0.5,1.5-0.1c0.7-1.2-0.4-2.4-1-3.4
		c1.7,0.9,2.7,3.2,1.7,4.9c-1,1.6-3.1,1.5-4.6,2.4c-1,0.8-0.4,2.5-1.5,3.2c-1,0.7-2.1,1.3-3.1,2c-0.9-1.2-0.9-2.8-1.3-4.2
		c0.6,0,1.2-0.1,1.7,0.1c0.5,0.3,0.2,1.3,0.9,1.4C163.3,81.2,163.5,80.2,162.7,80.1z"/>
	<path d="M177.1,91.7c-2,0.7-4.1,0.5-6,1.1c-0.9,0.3-1.4,1.2-2.4,1.4c-0.9,0.2-1.9-0.1-2.8-0.2c0-0.1,0.1-0.3,0.2-0.3
		c-0.5-0.3-1-0.7-1.1-1.3c0.6,0.3,1.3,0.6,1.9,0.3c1.7-0.7,3.7-1,5.3-2.1c0.5-0.3,1-0.6,1.5-0.9c-0.5,0.6-1.1,1-1.7,1.5
		C173.6,90.8,175.5,91,177.1,91.7z"/>
	<path d="M180.8,93.4c1.3-0.4,2.6-0.6,3.7-1.3C183.8,93.3,182.2,93.6,180.8,93.4z"/>
	<path d="M176.6,93.4c-1.2,0.1-2.5,0.1-3.7,0.1l-0.1,0.2l-0.3,0.1l-0.2-0.2c-0.9,0.3-1.7,0.7-2.5,1.2
		C171.4,92.8,174.3,92.7,176.6,93.4z"/>
	<path d="M167.4,97.5c0.1-0.6,0.3-1.3,1-1.4C168.2,96.6,167.9,97.2,167.4,97.5z"/>
	<path d="M202.2,66.9c0-0.8,0-1.7,0.1-2.5c-0.2-0.4,0.1-0.7,0.4-1c0.1,1.1,0.2,2.2-0.1,3.2c-0.1,1.3-0.1,2.7-0.4,4
		c-0.1-0.9-0.2-1.9,0-2.8C201.7,67.6,201.7,66.8,202.2,66.9z"/>
	<path d="M202.9,48.4c1.5,1.6,2.5,3.7,2.3,5.9c0.7-1.7,0.2-3.5-1-4.9l0.1-0.5c0.9,0.8,1.7,1.7,2.3,2.7c-0.2,1.5-0.1,3.1-0.6,4.5
		c-0.5,0.3-1.1-0.2-1.6-0.3c1.1,1.2,2.3,2.7,2.2,4.4c-0.5,0.9-1.4,2-0.8,3c1.2,0.4,2.4-0.3,3.4-0.8c-0.3,0-0.7,0.1-1,0.1
		c-0.5-0.6-0.4-1.4-0.8-2c-0.3-0.6-0.9-1.2-0.6-1.8c0.4-0.2,0.9,0,1.3,0.1c0.1-0.4,0.2-0.9,0.4-1.3c0.5-0.1,0.9,0.3,1.4,0.4
		c-0.4-0.3-0.8-0.6-1.1-0.9c-0.2-0.5-0.3-1-0.5-1.5c-0.3-0.1-0.7-0.1-1-0.2c0.1-1.4,0.9-2.6,1.3-3.9c0.1-0.4,0.2-0.8,0.5-1.1
		c0.4-0.1,0.8,0,1.2,0.1c-0.4-0.2-0.7-0.4-1-0.6c1.1-1.2,2.7-0.8,4.2-1.1c0.8-0.1,1.6,0,2.3,0.2c-1.2-1.4-3-2.6-4.9-2.3
		c-1.7,0-2.7,1.6-4,2.4l0.4,0c-0.1,0.2-0.2,0.6-0.3,0.9c-0.4-0.4-0.7-0.8-1.1-1.3c0.3,0.1,0.8,0.2,1,0.2c0-0.1-0.1-0.4-0.2-0.5
		c-0.9-0.2-1.7-0.5-2.5-0.7c-0.2-0.1-0.4-0.2-0.7-0.2c-0.1,0.2-0.3,0.4-0.4,0.7c-0.3,0-0.6-0.1-0.8-0.1
		C202.3,48.1,202.5,48.4,202.9,48.4z M204.2,48.3c1,0.4,1.8,1.2,2.6,2c0,0.3,0,0.6-0.1,1C206.2,50,205.1,49.2,204.2,48.3z"/>
	<path d="M199.6,55.7c0.1-0.7,0.2-1.5,0.3-2.2c0-0.2,0-0.6,0-0.7c0.2-0.2,0.4-0.4,0.6-0.5c-0.1-0.7-0.3-1.3-0.3-2
		c0.4,0.5,0.5,1.2,0.7,1.8c0-0.8,0-1.5-0.3-2.3c0.1,0,0.3,0.1,0.4,0.1c-0.2-0.5-0.3-1-0.5-1.6c0.4,0.4,0.6,0.8,0.8,1.3
		c0.1-0.3,0.2-0.6,0.3-1c0.1-0.1,0.4-0.3,0.5-0.3l-0.1,0.3c0.7,1,1.2,2.1,1.7,3.2c-0.7-0.5-1-1.2-1.4-1.9c0.1,0.6,0.1,1.3-0.1,1.9
		c-0.2,1,0.1,2,0.5,2.9c-0.4-0.4-0.7-0.9-1-1.3c-0.1,0.9-0.2,1.7-0.3,2.6c0.2,0.3,0.2,0.6,0,0.9c-0.3,0-0.4-0.2-0.5-0.5
		c0,0.2-0.1,0.7-0.1,0.9c-0.1-0.7-0.2-1.3-0.1-2c-0.2-0.2-0.3-0.5-0.5-0.7C200.2,55,199.9,55.4,199.6,55.7z"/>
</g>
</svg>
