<?xml version="1.0" encoding="utf-8"?>
<!-- Generator: Adobe Illustrator 26.0.3, SVG Export Plug-In . SVG Version: 6.00 Build 0)  -->
<svg version="1.0" id="Слой_1" xmlns="http://www.w3.org/2000/svg" xmlns:xlink="http://www.w3.org/1999/xlink" x="0px" y="0px"
	 viewBox="0 0 239.5 150.2" style="enable-background:new 0 0 239.5 150.2;" xml:space="preserve">
<style type="text/css">
	.st0{fill:#3D3D3D;}
</style>
<g>
	<path class="st0" d="M168.8,99.6c0.1,0.1,0.3,0.1,0.4,0.1c0.6,0,1.1-0.5,1.1-1.1s-0.5-1.1-1.1-1.1s-1.1,0.5-1.1,1.1
		c0,0.2,0,0.3,0.1,0.5l-2.1,2.2l-6.2-6.4l0,0h-2.4c-0.2-0.6-0.7-1.1-1.3-1.1c-0.8,0-1.4,0.6-1.4,1.4s0.6,1.4,1.4,1.4
		c0.6,0,1.2-0.4,1.3-1.1h2.1l6.5,6.7l0,0l0,0L168.8,99.6z M156.3,96c-0.4,0-0.8-0.3-0.8-0.8s0.3-0.8,0.8-0.8c0.4,0,0.8,0.3,0.8,0.8
		S156.7,96,156.3,96z"/>
	<path class="st0" d="M116.8,76.7h-8.6v0.7l0,0l2.1,2.2c-0.1,0.2-0.1,0.4-0.1,0.6c0,0.6,0.5,1.1,1.1,1c0.6,0,1-0.6,1-1.2
		s-0.5-1.1-1.1-1c-0.1,0-0.2,0-0.4,0.1l-1.6-1.7h7.3l3,3.1l0,0l0,0h5.4c0.2,0.5,0.6,0.8,1.1,0.7c0.6,0,1-0.6,1-1.2s-0.5-1.1-1.1-1
		c-0.4,0-0.8,0.3-0.9,0.7h-5.1L116.8,76.7z"/>
	<path class="st0" d="M210.7,96L210.7,96L210.7,96h-17.5l0,0l-0.3,0.3h-13.3c0-0.1,0-0.1,0-0.2c0-0.8-0.6-1.4-1.4-1.4
		s-1.4,0.6-1.4,1.4c0,0.2,0.1,0.5,0.2,0.7l-3,3.1l-4.1-4.3l0,0l-0.5-0.5l0,0l0,0l-0.5,0.5l0,0l-2.3,2.3c-0.1-0.1-0.3-0.1-0.5-0.1
		c-0.6,0-1.1,0.5-1.1,1.1s0.5,1.1,1.1,1.1s1.1-0.5,1.1-1.1c0-0.2,0-0.3-0.1-0.5l2.3-2.3l6.1,6.3h-6.2c-0.1-0.4-0.5-0.7-1-0.7
		c-0.6,0-1.1,0.5-1.1,1.1s0.5,1.1,1.1,1.1c0.5,0,0.9-0.3,1-0.7h6.9l2,2l0,0l0,0l0.5-0.5l0,0h4.6v3.2h0.3v-3.2h1.1v3.2h0.3v-3.2h1.1
		v3.2h0.3v-3.2h3.1l2.3,2.3l0.4-0.5l0,0l2.2-2.2H205c0.2,0.6,0.7,1.1,1.3,1.1c0.8,0,1.4-0.6,1.4-1.4s-0.6-1.4-1.4-1.4
		c-0.6,0-1.2,0.4-1.3,1.1h-10l1.8-1.9h9.9c0.1,0.4,0.5,0.7,1,0.7c0.6,0,1.1-0.5,1.1-1.1s-0.4-1-0.9-1.1v-3.6h2.6l5,5.2
		c-0.1,0.2-0.1,0.4-0.1,0.6c0,0.8,0.6,1.4,1.4,1.4c0.8,0,1.4-0.6,1.4-1.4s-0.6-1.4-1.4-1.4c-0.3,0-0.6,0.1-0.8,0.3l-1.7-1.8l3.2-3.3
		l-0.3-0.4l-3.2,3.3l-1.2-1.2l3.2-3.3l-0.3-0.4l-3.2,3.3L210.7,96z M206.3,103.2c0.4,0,0.8,0.3,0.8,0.8c0,0.4-0.3,0.8-0.8,0.8
		c-0.4,0-0.8-0.3-0.8-0.8C205.6,103.6,205.9,103.2,206.3,103.2z M178.3,104v-6.5c0.5,0,0.9-0.3,1.1-0.7v6.1L178.3,104z M177.5,97.3
		c0.2,0.1,0.4,0.2,0.6,0.2v6.6L177,103v-5.2L177.5,97.3z M178.2,95.3c0.4,0,0.8,0.3,0.8,0.8c0,0.4-0.3,0.8-0.8,0.8
		c-0.4,0-0.8-0.3-0.8-0.8C177.4,95.7,177.8,95.3,178.2,95.3z M176.6,98.1v4.5l-2.2-2.3L176.6,98.1z M179.3,104l3.9-4
		c0.1,0.1,0.3,0.1,0.4,0.1c0.6,0,1.1-0.5,1.1-1.1s-0.5-1.1-1.1-1.1s-1.1,0.5-1.1,1.1c0,0.2,0,0.3,0.1,0.5l-3,3.1v-6h12.9l-5,5.2l0,0
		l-0.5,0.5l0,0l0,0l0.5,0.5l0,0l1.1,1.2C188.6,104,179.3,104,179.3,104z M207.6,100.3c-0.4,0.1-0.7,0.3-0.9,0.7h-10.1l0,0l0,0
		l-4.9,5l-2-2l0,0l0,0l-1.6-1.7l5.4-5.6h14.1V100.3z M217.5,102.5c0,0.4-0.3,0.8-0.8,0.8c-0.4,0-0.8-0.3-0.8-0.8s0.3-0.8,0.8-0.8
		C217.1,101.7,217.5,102.1,217.5,102.5z"/>
	<path class="st0" d="M187.7,55.8L187.7,55.8l-4.4,4.5l0,0l0,0v5.4H181v-4.8c0.6-0.2,1-0.7,1-1.4c0-0.8-0.6-1.4-1.4-1.4
		c-0.8,0-1.4,0.6-1.4,1.4c0,0.7,0.4,1.2,1,1.4v8.2H178V58.2c0.4-0.1,0.7-0.6,0.7-1c0-0.6-0.5-1.1-1.1-1.1s-1.1,0.5-1.1,1.1
		c0,0.5,0.3,0.9,0.7,1V61l-2.2,2.3c-0.1,0-0.2-0.1-0.3-0.1c-0.6,0-1.1,0.5-1.1,1.1c0,0.6,0.5,1.1,1.1,1.1s1.1-0.5,1.1-1.1
		c0-0.2-0.1-0.4-0.2-0.6l1.7-1.7v7.1h-2.1l0,0l-2.8,2.9c-0.2-0.1-0.4-0.2-0.7-0.2c-0.8,0-1.4,0.6-1.4,1.4s0.6,1.4,1.4,1.4
		c0.8,0,1.4-0.6,1.4-1.4c0-0.3-0.1-0.5-0.2-0.7l2.6-2.6h4.7h0.7v-0.7v-2.6h2.4v6.9h0.7v-3.8h3.1v-0.3H184V68h3.1v-0.3H184v-1.4h3.1
		V66H184v-1.4h3.1v-0.3H184V63h3.1v-0.3H184v-2.1l4.2-4.3l3.5,3.6c-0.1,0.2-0.1,0.3-0.1,0.5c0,0.6,0.5,1.1,1.1,1.1s1.1-0.5,1.1-1.1
		c0-0.2-0.1-0.4-0.2-0.6l2.5-2.6l4.1,4.2l-0.3,0.3l2,2.1l1.9-1.9h7v0.4h1V59h-1v2.5h-7l-1.9-1.9l-1.2,1.3l-4.6-4.7l0,0l0,0l-3.1,3.2
		c-0.1,0-0.2-0.1-0.3-0.1s-0.3,0-0.4,0.1l-3.5-3.6l0,0l-0.5-0.5l0,0l0,0L187.7,55.8z M179.8,59.6c0-0.4,0.3-0.8,0.8-0.8
		c0.4,0,0.8,0.3,0.8,0.8c0,0.4-0.3,0.8-0.8,0.8C180.2,60.4,179.8,60,179.8,59.6z M171.8,74c-0.4,0-0.8-0.3-0.8-0.8
		c0-0.4,0.3-0.8,0.8-0.8s0.8,0.3,0.8,0.8C172.6,73.6,172.2,74,171.8,74z"/>
	<path class="st0" d="M145.2,114.8c0.1,0.1,0.3,0.1,0.5,0.1c0.6,0,1.1-0.5,1.1-1.1s-0.5-1.1-1.1-1.1s-1.1,0.5-1.1,1.1
		c0,0.2,0,0.3,0.1,0.5l-2.7,2.8c-0.2-0.1-0.3-0.1-0.5-0.1c-0.6,0-1.1,0.5-1.1,1.2c0,0.6,0.5,1.2,1.1,1.2s1.1-0.5,1.1-1.2
		c0-0.2-0.1-0.4-0.1-0.5L145.2,114.8z"/>
	<path class="st0" d="M113.4,97.6h-9.9c-0.2-0.6-0.7-1.1-1.3-1.1c-0.8,0-1.4,0.6-1.4,1.4s0.6,1.4,1.4,1.4c0.6,0,1.2-0.4,1.3-1.1h9.2
		l-2.1,2.2H82l-3-3.1l0,0l0,0H-0.4V98h79.1l3,3.1h29.2l3-3.1L113.4,97.6z M102.2,98.7c-0.4,0-0.8-0.3-0.8-0.8c0-0.4,0.3-0.8,0.8-0.8
		s0.8,0.3,0.8,0.8C102.9,98.4,102.6,98.7,102.2,98.7z"/>
	<path class="st0" d="M72.6,94h56.7l2.3,2.3h-10.1c-0.2-0.6-0.7-1.1-1.3-1.1c-0.8,0-1.4,0.6-1.4,1.4s0.6,1.4,1.4,1.4
		c0.6,0,1.2-0.4,1.3-1.1h10.8l0,0l0.5-0.5l-3.2-3.3l0,0h-16.9l0.8-0.8h17.8l3,3.1l0,0l0,0h7.3c0.1,0.4,0.5,0.7,1,0.7
		c0.6,0,1.1-0.5,1.1-1.1s-0.5-1.1-1.1-1.1c-0.5,0-0.9,0.3-1,0.7h-7l-3-3.1l0,0h-17.4l0.8-0.8h18.9l3,3.1l0,0l0,0h7.9
		c0.2,0.6,0.7,1.1,1.3,1.1c0.8,0,1.4-0.6,1.4-1.4s-0.6-1.4-1.4-1.4c-0.6,0-1.2,0.4-1.3,1.1h-0.4v-6.8h1l5,5.2
		c-0.1,0.2-0.1,0.4-0.1,0.6c0,0.8,0.6,1.4,1.4,1.4s1.4-0.6,1.4-1.4s-0.6-1.4-1.4-1.4c-0.3,0-0.6,0.1-0.8,0.3l-5.1-5.3l0,0h-8.7l0,0
		l0,0l-3,3.1H117l3.7-3.8h8.5l2.8-2.9h7v1.9h-5.8c-0.2-0.5-0.6-0.8-1.1-0.7c-0.6,0-1,0.6-1,1.2s0.5,1.1,1.1,1c0.4,0,0.8-0.3,0.9-0.7
		h16.2l5.2,5.4l0,0l0,0h10.2v1.1h-2v0.9H157c-0.1-0.5-0.5-0.9-1-0.9c-0.6,0-1.1,0.5-1.1,1.1c0,0.2,0,0.3,0.1,0.4l-3.9,4h-12.3
		c-0.1-0.4-0.5-0.7-1-0.7c-0.6,0-1.1,0.5-1.1,1.1s0.5,1.1,1.1,1.1c0.5,0,0.9-0.3,1-0.7h12.5l4.1-4.2c0.1,0.1,0.3,0.1,0.5,0.1
		c0.5,0,1-0.4,1-0.9h5.9v3.1h4.3v-4.4h-2v-1.1h18l0,0l2.2-2.2l0.7,0.7V91h5.8v-2.7h-3v-2.4c0.7-0.1,1.2-0.7,1.2-1.4
		c0-0.8-0.6-1.4-1.4-1.4c-0.8,0-1.4,0.6-1.4,1.4c0,0.2,0,0.3,0.1,0.5l-2,2.1l-3.7-3.8l4.3-4.4h8.2l0.7,0.8l-2.4,2.5
		c-0.2-0.1-0.3-0.1-0.5-0.1c-0.6,0-1.1,0.5-1.1,1.1s0.5,1.1,1.1,1.1s1.1-0.5,1.1-1.1c0-0.1,0-0.3-0.1-0.4l2.5-2.5l3.4,3.5l-4,4.1
		c-0.1-0.1-0.3-0.1-0.5-0.1c-0.6,0-1.1,0.5-1.1,1.1s0.5,1.1,1.1,1.1s1.1-0.5,1.1-1.1c0-0.2,0-0.3-0.1-0.5l4-4.1l2.1,2.2l-2.4,2.4
		c-0.2-0.1-0.3-0.1-0.5-0.1c-0.6,0-1.1,0.5-1.1,1.1s0.5,1.1,1.1,1.1s1.1-0.5,1.1-1.1c0-0.1,0-0.3-0.1-0.4l2.4-2.5l2.5,2.5l0,0l0,0
		l5.8-6c0.2,0.1,0.5,0.2,0.7,0.2c0.8,0,1.4-0.6,1.4-1.4s-0.6-1.4-1.4-1.4c-0.8,0-1.4,0.6-1.4,1.4c0,0.2,0.1,0.5,0.2,0.7l-0.4,0.4
		H201V79h1.9l2.1,2.1c-0.1,0.2-0.2,0.4-0.2,0.6c0,0.6,0.5,1.1,1.1,1.1s1.1-0.5,1.1-1.1s-0.5-1.1-1.1-1.1c-0.1,0-0.3,0-0.4,0.1
		l-2.3-2.4l0,0l0,0h-17.5l0,0l-4.5,4.6l-3.1-3.3l1.9-2l0,0l0.1-0.1l0.4-0.4l0,0l0,0l-3.8-3.9c0.1-0.1,0.1-0.3,0.1-0.5
		c0-0.6-0.5-1.1-1.1-1.1s-1.1,0.5-1.1,1.1s0.5,1.1,1.1,1.1c0.2,0,0.3,0,0.4-0.1l3.3,3.4l-4.4,4.5h-11.4l-2.7-2.8h11.3
		c0.2,0.6,0.7,1.1,1.3,1.1c0.8,0,1.4-0.6,1.4-1.4s-0.6-1.4-1.4-1.4c-0.6,0-1.2,0.4-1.3,1.1h-11.9l-2.3-2.3h10.9h0.7v-0.7v-5.5
		l2.1-2.2c0.2,0.1,0.3,0.1,0.5,0.1c0.6,0,1.1-0.5,1.1-1.1s-0.5-1.1-1.1-1.1s-1.1,0.5-1.1,1.1c0,0.1,0,0.3,0.1,0.4l-1.7,1.7v-8.7
		c0.6-0.2,1-0.7,1-1.4c0-0.8-0.6-1.4-1.4-1.4c-0.8,0-1.4,0.6-1.4,1.4c0,0.7,0.4,1.2,1,1.4v4.3l-3.9-4c0.1-0.2,0.2-0.4,0.2-0.7
		c0-0.8-0.6-1.4-1.4-1.4c-0.8,0-1.4,0.6-1.4,1.4c0,0.8,0.6,1.4,1.4,1.4c0.3,0,0.5-0.1,0.7-0.2l4.4,4.5V67h-12.2v-5.8l3.3,3.4
		c-0.1,0.1-0.1,0.3-0.1,0.5c0,0.6,0.5,1.1,1.1,1.1s1.1-0.5,1.1-1.1s-0.5-1.1-1.1-1.1c-0.2,0-0.3,0-0.5,0.1l-0.7-0.7v-8.2
		c0.2-0.1,0.3-0.2,0.3-0.4c0-0.3-0.2-0.5-0.4-0.5s-0.4,0.2-0.4,0.5c0,0.2,0.1,0.4,0.3,0.4V56h-2.8v-2.4c0.6-0.2,1-0.7,1-1.4
		c0-0.8-0.6-1.4-1.4-1.4c-0.8,0-1.4,0.6-1.4,1.4c0,0.7,0.4,1.2,1,1.4v4.8h-4v-9.7l8-8.2l-0.3-0.3l0,0l-4.4-4.5l7.4-7.7
		c0.2,0.2,0.5,0.3,0.8,0.3c0.8,0,1.4-0.6,1.4-1.4s-0.6-1.4-1.4-1.4c-0.8,0-1.4,0.6-1.4,1.4c0,0.2,0,0.4,0.1,0.6l-0.9,0.9l-1.2-1.2
		l5.8-6l0,0l0,0l-5.1-5.3c0.1-0.2,0.2-0.4,0.2-0.7c0-0.8-0.6-1.4-1.4-1.4c-0.8,0-1.4,0.6-1.4,1.4s0.6,1.4,1.4,1.4
		c0.3,0,0.5-0.1,0.7-0.2l4.6,4.8l-5.3,5.5l-3.2-3.4c0.1-0.2,0.2-0.4,0.2-0.7c0-0.8-0.6-1.4-1.4-1.4c-0.8,0-1.4,0.6-1.4,1.4
		s0.6,1.4,1.4,1.4c0.3,0,0.5-0.1,0.7-0.2l3.2,3.3h-7v-4.7h-0.3v4.7H151v-4.7h-0.3v4.7h-0.9v-4.7h-0.3v4.7h-3.8V25h0.7v-2.2h-2.1V25
		h0.7v14.6l-3-3.1c0-0.1,0.1-0.3,0.1-0.4c0-0.6-0.5-1.1-1.1-1.1s-1.1,0.5-1.1,1.1s0.5,1.1,1.1,1.1c0.2,0,0.4-0.1,0.5-0.2l3.5,3.6
		l0,0l0,0l3.8,3.9v4.9l-4.8-5c0.1-0.2,0.2-0.5,0.2-0.8c0-0.8-0.6-1.4-1.4-1.4s-1.4,0.6-1.4,1.4c0,0.8,0.6,1.4,1.4,1.4
		c0.2,0,0.5-0.1,0.6-0.2l3.9,4.1l-2.3,2.3c-0.1-0.1-0.3-0.1-0.5-0.1c-0.6,0-1.1,0.5-1.1,1.1c0,0.5,0.4,1,0.9,1.1v6.6h-5l-0.4,0.4
		l-4.1-4.3l2.4-2.5l2.1,2.2c-0.1,0.2-0.1,0.4-0.1,0.6c0,0.6,0.5,1.1,1.1,1c0.6,0,1-0.6,1-1.2c0-0.6-0.5-1.1-1.1-1
		c-0.1,0-0.3,0-0.4,0.1l-4.2-4.3l0,0l-0.1-0.1l-0.4-0.4l0,0l0,0l-0.8,0.8l-6.3-6.5l3.4-3.5l7.2,7.4c-0.1,0.2-0.1,0.3-0.1,0.5
		c0,0.6,0.5,1.1,1.1,1c0.6,0,1-0.6,1-1.2c0-0.6-0.5-1.1-1.1-1c-0.1,0-0.3,0-0.4,0.1l-7.7-7.9l0,0l0,0l-10.2,10.5l0,0l-0.5,0.5l0,0
		l0,0l0.5,0.5l0,0l2.4,2.5l-3.8,4c-0.2-0.1-0.5-0.2-0.7-0.2c-0.8,0-1.4,0.6-1.4,1.4c0,0.8,0.6,1.4,1.4,1.4s1.4-0.6,1.4-1.4
		c0-0.2-0.1-0.5-0.2-0.7l3.9-4l1.3,1.4c-0.3,0.4-0.4,0.8-0.4,1.3s0.2,0.9,0.4,1.3l-8.8,9l-3.7-3.8c0.1-0.2,0.2-0.5,0.2-0.8
		c0-0.8-0.6-1.4-1.4-1.4s-1.4,0.6-1.4,1.4s0.6,1.4,1.4,1.4c0.2,0,0.5-0.1,0.6-0.2L115,67H83.9l2.1-2.1c0.2,0.1,0.5,0.2,0.8,0.2
		c0.8,0,1.4-0.6,1.4-1.4c0-0.8-0.6-1.4-1.4-1.4s-1.4,0.6-1.4,1.4c0,0.2,0.1,0.4,0.2,0.6L83,67h-3.4l0,0l0,0H68.1
		c-0.1-0.6-0.6-1-1.3-1c-0.8,0-1.4,0.6-1.4,1.4s0.6,1.4,1.4,1.4c0.6,0,1.2-0.4,1.3-1.1h11.2l4.6,4.8H-0.4v0.7h85l2.7,2.8h-6.2l0,0
		l-2.8,2.9H-0.4v0.7h79l2.8-2.9h2.7l1.9,2c-0.1,0.2-0.1,0.4-0.1,0.6c0,0.6,0.5,1.1,1.1,1c0.6,0,1-0.6,1-1.2s-0.5-1.1-1.1-1
		c-0.1,0-0.2,0-0.4,0.1L85,76.7h6.6l5.6,5.8H-0.4v0.7H98l5.3,5.5h-8.9l-3-3.1l0,0H-0.4v0.7h70v3.8h-70v0.7h105.8l0.8,0.8H-0.4v0.7
		h112.9l-0.8,0.8H72.3l0,0l0,0L69.5,96H-0.4v0.7h70.2l0,0l0,0L72.6,94z M120.1,97.5c-0.4,0-0.8-0.3-0.8-0.8c0-0.4,0.3-0.8,0.8-0.8
		s0.8,0.3,0.8,0.8C120.9,97.1,120.6,97.5,120.1,97.5z M199.7,83.4h1.1v1.1L199.7,83.4z M210.9,81.2c0.4,0,0.8,0.3,0.8,0.8
		c0,0.4-0.3,0.8-0.8,0.8c-0.4,0-0.8-0.3-0.8-0.8C210.1,81.6,210.4,81.2,210.9,81.2z M209,83.4l-4.6,4.8l-3.3-3.4v-1.4H209z
		 M200.7,83.1h-1.3l-4.2-4.4h5.6v4.4H200.7z M173.5,77.5c0.4,0,0.8,0.3,0.8,0.8c0,0.4-0.3,0.8-0.8,0.8c-0.4,0-0.8-0.3-0.8-0.8
		C172.8,77.8,173.1,77.5,173.5,77.5z M168.5,58.2c0-0.4,0.3-0.8,0.8-0.8c0.4,0,0.8,0.3,0.8,0.8c0,0.4-0.3,0.8-0.8,0.8
		S168.5,58.7,168.5,58.2z M163,59.2c0-0.4,0.3-0.8,0.8-0.8c0.4,0,0.8,0.3,0.8,0.8c0,0.4-0.3,0.8-0.8,0.8S163,59.6,163,59.2z
		 M158.9,15.2c0-0.4,0.3-0.8,0.8-0.8c0.4,0,0.8,0.3,0.8,0.8c0,0.4-0.3,0.8-0.8,0.8C159.3,15.9,158.9,15.6,158.9,15.2z M119.3,60.3
		c-0.4,0-0.8-0.3-0.8-0.8c0-0.4,0.3-0.8,0.8-0.8c0.4,0,0.8,0.3,0.8,0.8C120.1,60,119.7,60.3,119.3,60.3z M86.8,62.9
		c0.4,0,0.8,0.3,0.8,0.8c0,0.4-0.3,0.8-0.8,0.8S86,64.1,86,63.7C86,63.3,86.3,62.9,86.8,62.9z M146.1,92.9c0.4,0,0.8,0.3,0.8,0.8
		c0,0.4-0.3,0.8-0.8,0.8c-0.4,0-0.8-0.3-0.8-0.8C145.3,93.2,145.7,92.9,146.1,92.9z M152.2,92.2c0,0.4-0.3,0.8-0.8,0.8
		s-0.8-0.3-0.8-0.8c0-0.4,0.3-0.8,0.8-0.8S152.2,91.8,152.2,92.2z M134.1,89.5L134.1,89.5l3-3.1h1l2.5,2.5c-0.1,0.2-0.2,0.4-0.2,0.6
		c0,0.8,0.6,1.4,1.4,1.4c0.8,0,1.4-0.6,1.4-1.4s-0.6-1.4-1.4-1.4c-0.3,0-0.5,0.1-0.7,0.2l-1.9-2h4.9v6.8h-6.9l-3-3.1l0,0h-18.5
		l0.7-0.7h17.7V89.5z M141.7,88.8c0.4,0,0.8,0.3,0.8,0.8c0,0.4-0.3,0.8-0.8,0.8S141,90,141,89.6S141.3,88.8,141.7,88.8z M114.7,90.2
		h-9l-0.7-0.7h10.4L114.7,90.2z M148.6,78.6v2.8h-1.1v-2.8H148.6z M147.2,78.6v2.8h-1.1v-2.8H147.2z M145.8,78.6v2.8h-1.1v-2.8
		H145.8z M144.4,78.6v2.8h-1.1v-2.8H144.4z M143.1,78.6v2.8H142v-2.8H143.1z M148.9,81.4v-2.8h1.1v2.8H148.9z M141.7,78.6v2.8h-3.9
		v-2.8H141.7z M188.7,83.7c0.4,0,0.8,0.3,0.8,0.8c0,0.4-0.3,0.8-0.8,0.8c-0.4,0-0.8-0.3-0.8-0.8S188.2,83.7,188.7,83.7z M187.8,85.5
		c0.2,0.2,0.5,0.3,0.8,0.3v2.4h-2l-0.7-0.7L187.8,85.5z M180.7,83.2l-1,1h-20.4c-0.2-0.6-0.7-1.1-1.3-1.1c-0.8,0-1.4,0.6-1.4,1.4
		s0.6,1.4,1.4,1.4c0.6,0,1.2-0.4,1.3-1.1h5v2.5h-6.8l-3-3.1c0.1-0.1,0.1-0.3,0.1-0.5c0-0.6-0.5-1.1-1.1-1.1s-1.1,0.5-1.1,1.1
		s0.5,1.1,1.1,1.1c0.2,0,0.3,0,0.5-0.1l3.2,3.3l0,0l0,0h20.6c0.1,0.4,0.5,0.7,1,0.7c0.6,0,1.1-0.5,1.1-1.1s-0.5-1.1-1.1-1.1
		c-0.5,0-0.9,0.3-1,0.7h-13.2v-2.5H180l0,0l1.1-1.2l3.7,3.8l-2,2H155l-5.2-5.4l0,0l0,0h-10.4V82h36l0,0l2.2-2.2L180.7,83.2z
		 M158.8,84.5c0,0.4-0.3,0.8-0.8,0.8s-0.8-0.3-0.8-0.8c0-0.4,0.3-0.8,0.8-0.8S158.8,84.1,158.8,84.5z M162.7,81.4h-12.5v-2.8h9.7
		L162.7,81.4z M156.6,60.2v-0.6h2.8v3.5L156.6,60.2z M156.6,57.9h2.8v1.4h-2.8V57.9z M159.4,56.3v1.4h-2.8v-1.4H159.4z M155.5,52.2
		c0-0.4,0.3-0.8,0.8-0.8c0.4,0,0.8,0.3,0.8,0.8c0,0.4-0.3,0.8-0.8,0.8C155.9,53,155.5,52.7,155.5,52.2z M155.9,58.7v3.9h-4v-3.9
		H155.9z M163.5,26.1c0.4,0,0.8,0.3,0.8,0.8c0,0.4-0.3,0.8-0.8,0.8c-0.4,0-0.8-0.3-0.8-0.8C162.7,26.5,163,26.1,163.5,26.1z
		 M154.5,22.6c0-0.4,0.3-0.8,0.8-0.8c0.4,0,0.8,0.3,0.8,0.8c0,0.4-0.3,0.8-0.8,0.8S154.5,23.1,154.5,22.6z M142,43.8
		c0-0.4,0.3-0.8,0.8-0.8c0.4,0,0.8,0.3,0.8,0.8c0,0.4-0.3,0.8-0.8,0.8C142.4,44.6,142,44.2,142,43.8z M144.7,53.5
		c0.5-0.1,1-0.5,1-1.1c0-0.2,0-0.3-0.1-0.5l2.2-2.3l0.9,0.9v9.6h-4L144.7,53.5L144.7,53.5z M126.2,59.4c0.4,0.3,0.8,0.4,1.3,0.4
		c1.2,0,2.2-1,2.2-2.3s-1-2.3-2.2-2.3c-0.5,0-0.9,0.2-1.3,0.5l-4.2-4.4l5.8-6l6.3,6.5l-1.3,1.4c-0.1-0.1-0.3-0.1-0.5-0.1
		c-0.6,0-1.1,0.5-1.1,1.1s0.5,1.1,1.1,1.1s1.1-0.5,1.1-1.1c0-0.2,0-0.3-0.1-0.5l2.1-2.2l1.5,1.6l-4.2,4.3c-0.2-0.1-0.5-0.2-0.7-0.2
		c-0.8,0-1.4,0.6-1.4,1.4c0,0.8,0.6,1.4,1.4,1.4c0.8,0,1.4-0.6,1.4-1.4c0-0.2-0.1-0.5-0.2-0.7l1.3-1.3l4.1,4.3l-3.7,3.8
		c-0.2-0.1-0.4-0.2-0.7-0.2c-0.8,0-1.4,0.6-1.4,1.4s0.6,1.4,1.4,1.4c0.8,0,1.4-0.6,1.4-1.4c0-0.3-0.1-0.5-0.2-0.7l0.5-0.5l4.6,4.8
		c-0.1,0.2-0.2,0.4-0.2,0.6c0,0.8,0.6,1.4,1.4,1.4c0.8,0,1.4-0.6,1.4-1.4s-0.6-1.4-1.4-1.4c-0.3,0-0.5,0.1-0.8,0.2l-4.6-4.8l3.4-3.5
		h4.9l-3.2,3.3c-0.2-0.1-0.4-0.1-0.6-0.1c-0.6,0-1,0.6-1,1.2s0.5,1.1,1.1,1c0.6,0,1-0.6,1-1.2c0-0.1,0-0.2-0.1-0.4l3.7-3.8h0.5v2.1
		h0.3v-2.1h0.9v2.1h0.3v-2.1h0.9v2.1h0.3v-2.1h0.5v-0.7V44.3l0,0l-3.8-3.9V30l4.7,4.9c-0.1,0.2-0.1,0.4-0.1,0.6
		c0,0.8,0.6,1.4,1.4,1.4c0.8,0,1.4-0.6,1.4-1.4c0-0.8-0.6-1.4-1.4-1.4c-0.3,0-0.6,0.1-0.8,0.3l-5.1-5.3v-1.5h13.3l-1.3,1.4h-1.7v2
		h2.1v-1.5l1.7-1.7l1.2,1.2l-6.6,6.8l0,0l0,0l4.6,4.8l-3.2,3.3l-4.5-4.6c0.1-0.1,0.1-0.3,0.1-0.4c0-0.6-0.5-1.1-1.1-1.1
		s-1.1,0.5-1.1,1.1s0.5,1.1,1.1,1.1c0.2,0,0.3,0,0.5-0.1l4.5,4.6l-4,4.1l0,0v16.2l-3.6,3.7l-2.5-2.6c0.1-0.1,0.1-0.3,0.1-0.5
		c0-0.6-0.5-1.1-1.1-1.1s-1.1,0.5-1.1,1.1s0.5,1.1,1.1,1.1c0.2,0,0.3,0,0.5-0.1L147,69l-3.6,3.7h-14.3v-6.3h2.2v-4.8h-4.7v4.8h2.2
		v6.3H124l2.2-2.2c0.2,0.1,0.5,0.2,0.8,0.2c0.8,0,1.4-0.6,1.4-1.4s-0.6-1.4-1.4-1.4s-1.4,0.6-1.4,1.4c0,0.2,0.1,0.4,0.2,0.6
		l-2.7,2.8h-1.6l-4-4.1L126.2,59.4z M132.7,58.7c0,0.4-0.3,0.8-0.8,0.8c-0.4,0-0.8-0.3-0.8-0.8c0-0.4,0.3-0.8,0.8-0.8
		S132.7,58.3,132.7,58.7z M135,66c0,0.4-0.3,0.8-0.8,0.8c-0.4,0-0.8-0.3-0.8-0.8c0-0.4,0.3-0.8,0.8-0.8S135,65.5,135,66z
		 M141.8,69.5c0.4,0,0.8,0.3,0.8,0.8c0,0.4-0.3,0.8-0.8,0.8c-0.4,0-0.8-0.3-0.8-0.8S141.4,69.5,141.8,69.5z M151.6,34.7
		c0.4,0,0.8,0.3,0.8,0.8c0,0.4-0.3,0.8-0.8,0.8s-0.8-0.3-0.8-0.8S151.1,34.7,151.6,34.7z M97.4,67.7v4.8h-1.1v-4.8H97.4z M96,67.7
		v4.8h-1.1v-4.8H96z M94.6,67.7v4.8h-1.1v-4.8H94.6z M93.2,67.7v4.8h-1.1v-4.8H93.2z M91.9,67.7v4.8h-1.1v-4.8H91.9z M90.5,67.7v4.8
		h-1.1v-4.8H90.5z M130.2,65H128v-2.3h2.2V65z M126.1,69.1c0-0.4,0.3-0.8,0.8-0.8c0.4,0,0.8,0.3,0.8,0.8c0,0.4-0.3,0.8-0.8,0.8
		C126.5,69.9,126.1,69.6,126.1,69.1z M111.3,63.4c0-0.4,0.3-0.8,0.8-0.8c0.4,0,0.8,0.3,0.8,0.8c0,0.4-0.3,0.8-0.8,0.8
		C111.7,64.2,111.3,63.8,111.3,63.4z M120.4,72.5H97.7v-4.8h18.1L120.4,72.5z M66.8,68.2c-0.4,0-0.8-0.3-0.8-0.8
		c0-0.4,0.3-0.8,0.8-0.8s0.8,0.3,0.8,0.8C67.6,67.8,67.2,68.2,66.8,68.2z M80.3,67.7h8.9v4.8H85L80.3,67.7z M85.6,73.3h58.2l0,0l0,0
		l8.2-8.4l0,0l0,0v-2h4v6v0.7h0.7h6.2l-2.2,2.3c-0.2-0.1-0.4-0.2-0.7-0.2c-0.8,0-1.4,0.6-1.4,1.4s0.6,1.4,1.4,1.4
		c0.8,0,1.4-0.6,1.4-1.4c0-0.3-0.1-0.5-0.2-0.7l2.7-2.8h1c0.1,0.4,0.5,0.7,1,0.7c0.6,0,1.1-0.5,1.1-1.1s-0.5-1.1-1.1-1.1
		c-0.5,0-0.9,0.3-1,0.7h-8.3v-1.7h12.2v7.6h-11.6l-2.4-2.5v-3.1h-2.3V74h1.1v0.9h-7.2l6.8-7c0.1,0.1,0.3,0.1,0.5,0.1
		c0.6,0,1.1-0.5,1.1-1.1s-0.5-1.1-1.1-1.1s-1.1,0.5-1.1,1.1c0,0.2,0,0.3,0.1,0.5l-7.3,7.5H126c-0.2-0.6-0.7-1.1-1.3-1.1
		c-0.8,0-1.4,0.6-1.4,1.4s0.6,1.4,1.4,1.4c0.6,0,1.2-0.4,1.3-1.1h31l2.3,2.3h-38.7l-3-3.1h-11.1l0,0l0,0l-1.1,1.2H88.2L85.6,73.3z
		 M160.7,73.1c0,0.4-0.3,0.8-0.8,0.8c-0.4,0-0.8-0.3-0.8-0.8c0-0.4,0.3-0.8,0.8-0.8C160.4,72.4,160.7,72.7,160.7,73.1z M125.4,75.2
		c0,0.4-0.3,0.8-0.8,0.8c-0.4,0-0.8-0.3-0.8-0.8c0-0.4,0.3-0.8,0.8-0.8C125,74.4,125.4,74.8,125.4,75.2z M154,74.8V74h0.9v-0.6
		l1.5,1.5L154,74.8L154,74.8z M99,83.3h29l2.2-2.2c0.1,0.1,0.3,0.1,0.5,0.1c0.6,0,1-0.6,1-1.2s-0.5-1.1-1.1-1c-0.6,0-1,0.6-1,1.2
		c0,0.2,0.1,0.3,0.1,0.5l-1.9,2H98.3l-5.6-5.8h12l-2.2,2.3c-0.1-0.1-0.3-0.1-0.5-0.1c-0.6,0-1.1,0.5-1.1,1.1s0.5,1.1,1.1,1.1
		s1.1-0.5,1.1-1.1c0-0.2,0-0.3-0.1-0.5l3.9-4h10.5l3,3.1l0,0h17.2v2.8h-5.8l-2.8,2.9h-21.8c-0.2-0.5-0.6-0.8-1.1-0.7
		c-0.6,0-1,0.6-1,1.2s0.5,1.1,1.1,1c0.4,0,0.8-0.3,0.9-0.7h12.5l-3.7,3.8h-11.8L99,83.3z M76.6,86.5v3.8h-1.1v-3.8H76.6z M75.2,86.5
		v3.8h-1.1v-3.8H75.2z M73.8,86.5v3.8h-1.1v-3.8H73.8z M72.4,86.5v3.8h-1.1v-3.8H72.4z M76.8,90.2v-3.8h1.1v3.8H76.8z M69.9,86.5H71
		v3.8h-1.1V86.5z M78.2,90.2v-3.8h13l3,3.1l0,0l0,0h9.9l0.7,0.7C104.8,90.2,78.2,90.2,78.2,90.2z M107.1,91.8l-0.8-0.8h7.6l-0.8,0.8
		H107.1z"/>
	<rect x="136.7" y="39" class="st0" width="3.4" height="3.4"/>
	<rect x="177" y="112.9" class="st0" width="1.4" height="2.7"/>
	<rect x="150.1" y="28.5" class="st0" width="1.4" height="1.4"/>
	<polygon class="st0" points="186.6,82.7 185.3,82.7 185.3,81.4 184.6,81.4 184.6,82.7 183.4,82.7 183.4,83.4 184.6,83.4 
		184.6,84.7 185.3,84.7 185.3,83.4 186.6,83.4 	"/>
	<polygon class="st0" points="196.7,119.9 196.7,120.6 197.9,120.6 197.9,121.9 198.6,121.9 198.6,120.6 199.9,120.6 199.9,119.9 
		198.6,119.9 198.6,118.6 197.9,118.6 197.9,119.9 	"/>
	<polygon class="st0" points="134.9,69.5 134.9,70.2 136.2,70.2 136.2,71.5 136.9,71.5 136.9,70.2 138.2,70.2 138.2,69.5 
		136.9,69.5 136.9,68.2 136.2,68.2 136.2,69.5 	"/>
	<polygon class="st0" points="130.6,103.5 130.6,103.1 129.8,103.1 129.8,102.2 129.3,102.2 129.3,103.1 128.5,103.1 128.5,103.5 
		129.3,103.5 129.3,104.4 129.8,104.4 129.8,103.5 	"/>
	<polygon class="st0" points="107,104.6 108.3,103.2 107,101.9 107,102.8 103.7,102.8 103.7,103.7 107,103.7 	"/>
	<polygon class="st0" points="154.8,77.4 154.8,77 156.2,77 156.2,76.6 154.8,76.6 154.8,76.2 154.2,76.8 	"/>
	<polygon class="st0" points="188.5,98.8 188.5,98.4 187.1,98.4 187.1,98 186.5,98.6 187.1,99.2 187.1,98.8 	"/>
	<polygon class="st0" points="185.2,114.3 183.8,114.3 183.8,113.9 183.2,114.5 183.8,115.2 183.8,114.7 185.2,114.7 	"/>
	<polygon class="st0" points="175.6,58 172.9,58 172.9,57.3 171.9,58.4 172.9,59.5 172.9,58.7 175.6,58.7 	"/>
	<polygon class="st0" points="88.5,97.7 91.8,97.7 91.8,98.6 93.1,97.2 91.8,95.9 91.8,96.8 88.5,96.8 	"/>
	<polygon class="st0" points="121.4,108.3 124.1,111 126.8,108.3 124.1,105.5 	"/>
	<polygon class="st0" points="149.6,103.2 148.2,104.7 149.6,106.1 151,104.7 	"/>
	<polygon class="st0" points="129.7,44.8 131.7,46.9 133.7,44.8 131.7,42.8 	"/>
	<polygon class="st0" points="158.5,38.1 160.8,35.8 158.5,33.4 156.1,35.8 	"/>
	<polygon class="st0" points="161.1,21.2 160.1,20.2 159,21.2 160.1,22.3 	"/>
	<path class="st0" d="M160.1,24.6l3.3-3.4l-3.3-3.4l-3.3,3.4L160.1,24.6z M160.1,19.3l1.9,2l-1.9,2l-1.9-2L160.1,19.3z"/>
	<polygon class="st0" points="178.2,118.6 176.2,120.7 178.2,122.8 180.2,120.7 	"/>
	<polygon class="st0" points="197.4,116.2 199.1,118 200.9,116.2 199.1,114.5 	"/>
	<polygon class="st0" points="211.6,100.5 208.8,103.4 211.6,106.4 214.5,103.4 	"/>
	<path class="st0" d="M225.4,86.5l2.7-2.8l-2.7-2.8l-2.7,2.8L225.4,86.5z M227.2,83.7l-1.7,1.8l-1.7-1.8l1.7-1.8L227.2,83.7z"/>
	<polygon class="st0" points="191.6,104.3 193.6,102.3 191.6,100.2 189.6,102.3 	"/>
	<rect x="166.7" y="85.6" class="st0" width="8.4" height="1.1"/>
	<polygon class="st0" points="170.4,59.8 170.4,65.2 175.6,59.8 	"/>
	<rect x="146.3" y="52.4" class="st0" width="1.8" height="7"/>
	<path class="st0" d="M222.2,58.9c0,0.2,0,0.3,0.1,0.4l-4,4.1h-9.7l0,0l0,0l-4.7,4.9l-4.2-4.3c0.1-0.2,0.2-0.4,0.2-0.6
		c0-0.8-0.6-1.4-1.4-1.4c-0.8,0-1.4,0.6-1.4,1.4s0.6,1.4,1.4,1.4c0.3,0,0.5-0.1,0.7-0.2l2.5,2.5h-9.4l3.9-4l-0.5-0.5l-2.9,3l-2.9-3
		c0.1-0.2,0.2-0.5,0.2-0.8c0-0.8-0.6-1.4-1.4-1.4c-0.8,0-1.4,0.6-1.4,1.4c0,0.8,0.6,1.4,1.4,1.4c0.2,0,0.5-0.1,0.7-0.2l3,3l-4.5,4.6
		c-0.2-0.2-0.5-0.3-0.8-0.3c-0.8,0-1.4,0.6-1.4,1.4s0.6,1.4,1.4,1.4c0.8,0,1.4-0.6,1.4-1.4c0-0.2,0-0.4-0.1-0.6l3.8-3.9h4.6v2.9
		h-1.4c-0.2-0.9-0.9-1.5-1.8-1.5c-1,0-1.8,0.8-1.8,1.9c0,1,0.8,1.9,1.8,1.9c0.9,0,1.6-0.7,1.8-1.5h16c0.2,0.6,0.7,1.1,1.3,1.1
		c0.8,0,1.4-0.6,1.4-1.4s-0.6-1.4-1.4-1.4c-0.6,0-1.2,0.4-1.3,1.1h-3.8l4-4.1h3.7l2,2c-0.1,0.2-0.2,0.4-0.2,0.7
		c0,0.8,0.6,1.4,1.4,1.4c0.8,0,1.4-0.6,1.4-1.4s-0.6-1.4-1.4-1.4c-0.3,0-0.5,0.1-0.7,0.2l-1.5-1.5h4.5c0.2,0.6,0.7,1.1,1.3,1.1
		c0.8,0,1.4-0.6,1.4-1.4s-0.6-1.4-1.4-1.4c-0.6,0-1.2,0.4-1.3,1.1h-9.5l0,0l0,0l-4.7,4.8H203l6-6.1h9.7l0,0l4.2-4.3
		c0.2,0.1,0.3,0.1,0.5,0.1c0.6,0,1.1-0.5,1.1-1.1s-0.5-1.1-1.1-1.1C222.7,57.9,222.2,58.3,222.2,58.9z M186.9,72.7
		c-0.4,0-0.8-0.3-0.8-0.8c0-0.4,0.3-0.8,0.8-0.8c0.4,0,0.8,0.3,0.8,0.8C187.7,72.4,187.3,72.7,186.9,72.7z M219.1,68.9
		c0,0.4-0.3,0.8-0.8,0.8c-0.4,0-0.8-0.3-0.8-0.8c0-0.4,0.3-0.8,0.8-0.8C218.7,68.2,219.1,68.5,219.1,68.9z M221.9,65.1
		c0.4,0,0.8,0.3,0.8,0.8c0,0.4-0.3,0.8-0.8,0.8s-0.8-0.3-0.8-0.8C221.2,65.4,221.5,65.1,221.9,65.1z M197.7,63.4
		c0-0.4,0.3-0.8,0.8-0.8c0.4,0,0.8,0.3,0.8,0.8c0,0.4-0.3,0.8-0.8,0.8C198.1,64.2,197.7,63.8,197.7,63.4z M212.5,69.9
		c0.4,0,0.8,0.3,0.8,0.8c0,0.4-0.3,0.8-0.8,0.8c-0.4,0-0.8-0.3-0.8-0.8C211.7,70.3,212.1,69.9,212.5,69.9z M196.9,70.3v-2.9h5.1
		l1.4,1.4l-1.4,1.5H196.9z"/>
	<path class="st0" d="M153.3,101.8c0.3,0,0.5-0.2,0.5-0.5s-0.2-0.5-0.5-0.5s-0.5,0.2-0.5,0.5S153.1,101.8,153.3,101.8z"/>
	<path class="st0" d="M154.6,103.6c0,0.3,0.2,0.5,0.5,0.5s0.5-0.2,0.5-0.5s-0.2-0.5-0.5-0.5C154.8,103.2,154.6,103.4,154.6,103.6z"
		/>
	<path class="st0" d="M197.1,110.5c0,0.4,0.3,0.8,0.8,0.8c0.4,0,0.8-0.4,0.8-0.8s-0.3-0.8-0.8-0.8
		C197.5,109.7,197.1,110.1,197.1,110.5z"/>
	<ellipse class="st0" cx="199.9" cy="112.1" rx="0.8" ry="0.8"/>
	<ellipse class="st0" cx="201.9" cy="113.8" rx="0.8" ry="0.8"/>
	<path class="st0" d="M187.7,79.8c-0.4,0-0.7,0.3-0.7,0.7c0,0.4,0.3,0.7,0.7,0.7s0.7-0.3,0.7-0.7C188.4,80.1,188.1,79.8,187.7,79.8z
		"/>
	<path class="st0" d="M193.4,118.8h-1v-5h2.5c0.2,0.6,0.7,1.1,1.3,1.1c0.8,0,1.4-0.6,1.4-1.4s-0.6-1.4-1.4-1.4
		c-0.6,0-1.2,0.4-1.3,1.1H191c-0.2-0.6-0.7-1.1-1.3-1.1c-0.8,0-1.4,0.6-1.4,1.4c0,0.2,0.1,0.5,0.2,0.7l-4.6,4.7h-2v-6.2h4.3V112H182
		v-1.2l0,0h-0.7h-2.9v-1H177v2.7h1.4v-0.9h2.9v8.1h0.3h0.3h0.6l1.7,1.7c-0.1,0.1-0.1,0.3-0.1,0.4c0,0.6,0.5,1.1,1.1,1.1
		s1.1-0.5,1.1-1.1s-0.5-1.1-1.1-1.1c-0.2,0-0.3,0.1-0.5,0.1l-1.2-1.2h9.8c0.1,0.4,0.5,0.7,1,0.7c0.6,0,1.1-0.5,1.1-1.1
		s-0.5-1.1-1.1-1.1C193.9,118.1,193.5,118.4,193.4,118.8z M196.2,112.7c0.4,0,0.8,0.3,0.8,0.8c0,0.4-0.3,0.8-0.8,0.8
		c-0.4,0-0.8-0.3-0.8-0.8S195.8,112.7,196.2,112.7z M189.7,112.7c0.4,0,0.8,0.3,0.8,0.8c0,0.4-0.3,0.8-0.8,0.8
		c-0.4,0-0.8-0.3-0.8-0.8S189.3,112.7,189.7,112.7z M188.9,114.6c0.2,0.1,0.5,0.2,0.7,0.2c0.6,0,1.2-0.4,1.3-1.1h1.1v5h-7.2
		L188.9,114.6z"/>
	<path class="st0" d="M165.1,120.4c0-1.3-1-2.3-2.2-2.3v-2.5h2c0.1,0.6,0.6,1.1,1.2,1.1c0.7,0,1.2-0.6,1.2-1.2
		c0-0.7-0.5-1.2-1.2-1.2c-0.2,0-0.5,0.1-0.6,0.2l-1.8-1.8c0.1-0.2,0.2-0.4,0.2-0.5h6.6v3.2l-3.6,3.7l0,0l0,0l1.3,1.3
		c-0.1,0.2-0.2,0.4-0.2,0.6c0,0.8,0.6,1.4,1.4,1.4c0.8,0,1.4-0.6,1.4-1.4s-0.6-1.4-1.4-1.4c-0.3,0-0.5,0.1-0.7,0.2l-0.8-0.8l3.2-3.3
		h1.5l1.9,1.9c-0.1,0.1-0.1,0.3-0.1,0.4c0,0.6,0.5,1.1,1.1,1.1s1.1-0.5,1.1-1.1s-0.5-1.1-1.1-1.1c-0.2,0-0.3,0.1-0.5,0.1l-1.4-1.4
		h2.7V106h-5.8v2.2l-9.3-9.5l0,0l0,0h-44l-3.9,4c-0.1-0.1-0.3-0.1-0.5-0.1c-0.6,0-1.1,0.5-1.1,1.1s0.5,1.1,1.1,1.1s1.1-0.5,1.1-1.1
		c0-0.2,0-0.3-0.1-0.5l3.7-3.8h2.5l3,3.2l-4.3,4.4c-0.2-0.1-0.4-0.2-0.6-0.2c-0.8,0-1.4,0.6-1.4,1.4s0.6,1.4,1.4,1.4
		s1.4-0.6,1.4-1.4c0-0.3-0.1-0.5-0.2-0.7l4.2-4.4l5.1,5.3l-5.8,5.9h-1.2c0-0.9-0.7-1.6-1.6-1.6c-0.4,0-0.7,0.1-1,0.4l-7.1-7.4v-0.8
		h-1.3v0.4h-41c-0.2-0.6-0.7-1.1-1.3-1.1c-0.8,0-1.4,0.6-1.4,1.4s0.6,1.4,1.4,1.4c0.6,0,1.2-0.4,1.3-1.1h40.9v0.3h0.8l7.1,7.5
		c-0.1,0.2-0.2,0.5-0.2,0.7c0,0.9,0.7,1.7,1.6,1.7c0.7,0,1.3-0.4,1.5-1h6.4v5.1H118l-7.7-8.1c0.1-0.2,0.2-0.4,0.2-0.7
		c0-0.8-0.6-1.4-1.4-1.4s-1.4,0.6-1.4,1.4s0.6,1.4,1.4,1.4c0.3,0,0.5-0.1,0.7-0.2l7.9,8.3l0,0h42.9c0.2,1.1,1.1,1.9,2.2,1.9
		C164.1,122.8,165.1,121.7,165.1,120.4z M118,109c-0.4,0-0.8-0.3-0.8-0.8c0-0.4,0.3-0.8,0.8-0.8c0.4,0,0.8,0.3,0.8,0.8
		C118.8,108.6,118.5,109,118,109z M68.3,106.3c-0.4,0-0.8-0.3-0.8-0.8c0-0.4,0.3-0.8,0.8-0.8c0.4,0,0.8,0.3,0.8,0.8
		C69.1,105.9,68.7,106.3,68.3,106.3z M162.7,118.1c-1.1,0.1-1.9,0.9-2.1,2h-26.3V115h6.6l0,0l0,0l4.7-4.9c0.1,0,0.2,0.1,0.3,0.1
		c0.5,0,0.8-0.4,0.8-0.8c0-0.5-0.4-0.8-0.8-0.8s-0.8,0.4-0.8,0.8c0,0.1,0,0.2,0.1,0.3l-4.5,4.7h-4.2v-4c0.7-0.1,1.2-0.7,1.2-1.4
		c0-0.3-0.1-0.5-0.2-0.7l4.4-4.5l1,1c-0.1,0.2-0.2,0.4-0.2,0.6c0,0.8,0.6,1.4,1.4,1.4c0.8,0,1.4-0.6,1.4-1.4s-0.6-1.4-1.4-1.4
		c-0.3,0-0.5,0.1-0.7,0.2l-1.9-1.9h8.2l2.4,2.5l-4.5,4.6l0,0v5.9c-0.4,0.2-0.6,0.6-0.6,1c0,0.6,0.5,1.1,1.1,1.1s1.1-0.5,1.1-1.1
		c0-0.5-0.3-0.9-0.8-1v-5.6l4.3-4.4l1.5,1.6c-0.1,0.1-0.1,0.3-0.1,0.5c0,0.6,0.4,1,1,1.1v2.5h-2.9v5.8h5.8v-1.1h5v2.4H162.7z
		 M129.7,120.1V115h1.2v5.1H129.7z M131.2,120.1V115h1.2v5.1H131.2z M132.8,120.1V115h1.2v5.1H132.8z M137,108.8
		c0,0.4-0.3,0.8-0.8,0.8c-0.4,0-0.8-0.3-0.8-0.8c0-0.4,0.3-0.8,0.8-0.8C136.7,108.1,137,108.4,137,108.8z M144,104.5
		c0.4,0,0.8,0.3,0.8,0.8c0,0.4-0.3,0.8-0.8,0.8c-0.4,0-0.8-0.3-0.8-0.8S143.6,104.5,144,104.5z M162.5,111c0.4,0,0.8,0.3,0.8,0.8
		c0,0.4-0.3,0.8-0.8,0.8c-0.4,0-0.8-0.3-0.8-0.8S162,111,162.5,111z M170.4,111.6h-6.6c0-0.2-0.1-0.4-0.2-0.5l4.3-4.4l2.5,2.6V111.6
		z M126.7,99.4v6.1l-5.9-6.1H126.7z M129.8,108.1l2.2,2.3c-0.1,0.1-0.1,0.3-0.1,0.5c0,0.6,0.5,1.1,1.1,1.1s1.1-0.5,1.1-1.1
		s-0.5-1.1-1.1-1.1c-0.2,0-0.3,0-0.5,0.1l-2.2-2.3l0,0l-0.1-0.1l-0.4-0.4l0,0l0,0l-0.8,0.8l-2-2.1v-6.4h27.8l4.5,4.7
		c-0.1,0.1-0.1,0.3-0.1,0.5c0,0.6,0.5,1.1,1.1,1.1s1.1-0.5,1.1-1.1s-0.5-1.1-1.1-1.1c-0.2,0-0.3,0-0.5,0.1l-4-4.1h5l6.6,6.8
		l-4.3,4.4c-0.2-0.1-0.4-0.2-0.7-0.2s-0.6,0.1-0.8,0.3l-3.5-3.6c0.1-0.1,0.1-0.3,0.1-0.5c0-0.6-0.5-1.1-1.1-1.1s-1.1,0.5-1.1,1.1
		s0.5,1.1,1.1,1.1c0.2,0,0.3,0,0.4-0.1l3.6,3.7c-0.1,0.2-0.1,0.4-0.1,0.6c0,0.8,0.6,1.4,1.4,1.4c0.3,0,0.5-0.1,0.7-0.2l1.8,1.9
		c-0.1,0.1-0.1,0.2-0.1,0.4h-7.2V111H155v-2.5c0.5-0.1,0.9-0.5,0.9-1.1s-0.5-1.1-1.1-1.1c-0.2,0-0.3,0-0.5,0.1l-4.6-4.8l0,0l0,0
		h-17.5l0,0l0,0l-0.5,0.5l2.5,2.6c-0.1,0.1-0.1,0.3-0.1,0.5c0,0.6,0.5,1.1,1.1,1.1s1.1-0.5,1.1-1.1s-0.5-1.1-1.1-1.1
		c-0.2,0-0.3,0-0.4,0.1l-1.8-1.9h7.4l1,1l-4.4,4.5c-0.2-0.1-0.4-0.2-0.6-0.2c-0.8,0-1.4,0.6-1.4,1.4c0,0.7,0.5,1.3,1.2,1.4v4h-12.4
		L129.8,108.1z M128.2,115h1.2v5.1h-1.2V115z M108.3,111.3c0-0.4,0.3-0.8,0.8-0.8c0.4,0,0.8,0.3,0.8,0.8c0,0.4-0.3,0.8-0.8,0.8
		C108.7,112.1,108.3,111.7,108.3,111.3z"/>
	<path class="st0" d="M223.5,78.1c0,0.2,0,0.4,0.1,0.6l-4.2,4.3l0,0l-0.5,0.5l4.7,4.9h-9.3v-5.1l1.9,1.9c-0.1,0.2-0.2,0.4-0.2,0.7
		c0,0.8,0.6,1.4,1.4,1.4c0.8,0,1.4-0.6,1.4-1.4s-0.6-1.4-1.4-1.4c-0.3,0-0.5,0.1-0.7,0.2l-2-2l1.5-1.5c0.1,0.1,0.3,0.1,0.5,0.1
		c0.6,0,1.1-0.5,1.1-1.1s-0.5-1.1-1.1-1.1s-1.1,0.5-1.1,1.1c0,0.2,0,0.3,0.1,0.4l-7.6,7.8H207c-0.1-0.1-0.3-0.2-0.5-0.2
		c-0.3,0-0.6,0.3-0.6,0.6s0.3,0.6,0.6,0.6c0.2,0,0.4-0.1,0.5-0.2h17.3l0,0l0.5-0.5l-5-5.1l4.2-4.3c0.2,0.2,0.5,0.3,0.8,0.3
		c0.8,0,1.4-0.6,1.4-1.4s-0.6-1.4-1.4-1.4C224.1,76.7,223.5,77.4,223.5,78.1z M218.2,85.9c0,0.4-0.3,0.8-0.8,0.8
		c-0.4,0-0.8-0.3-0.8-0.8c0-0.4,0.3-0.8,0.8-0.8C217.8,85.2,218.2,85.5,218.2,85.9z M214.1,83.4v5.1h-4.9L214.1,83.4z M225.7,78.1
		c0,0.4-0.3,0.8-0.8,0.8c-0.4,0-0.8-0.3-0.8-0.8c0-0.4,0.3-0.8,0.8-0.8C225.3,77.4,225.7,77.7,225.7,78.1z"/>
	<path class="st0" d="M216.9,57.5h-7.6c-0.1-0.4-0.5-0.7-1-0.7c-0.6,0-1.1,0.5-1.1,1.1s0.5,1.1,1.1,1.1c0.5,0,0.9-0.3,1-0.7h7.6
		c0.2,0.6,0.7,1.1,1.3,1.1c0.8,0,1.4-0.6,1.4-1.4s-0.6-1.4-1.4-1.4C217.6,56.4,217,56.9,216.9,57.5z M219,57.9
		c0,0.4-0.3,0.8-0.8,0.8c-0.4,0-0.8-0.3-0.8-0.8s0.3-0.8,0.8-0.8C218.6,57.1,219,57.4,219,57.9z"/>
	<rect x="92.4" y="102.4" class="st0" width="2.3" height="1"/>
	<rect x="88.7" y="102.4" class="st0" width="2.3" height="1"/>
	<rect x="85" y="102.4" class="st0" width="2.3" height="1"/>
	<rect x="105.1" y="61.9" class="st0" width="1.4" height="4.2"/>
	<rect x="102.5" y="61.9" class="st0" width="1.4" height="4.2"/>
	<rect x="99.9" y="61.9" class="st0" width="1.4" height="4.2"/>
	<rect x="90" y="107.2" class="st0" width="1.4" height="4.2"/>
	<rect x="87.4" y="107.2" class="st0" width="1.4" height="4.2"/>
	<rect x="84.8" y="107.2" class="st0" width="1.4" height="4.2"/>
	<rect x="97.3" y="61.9" class="st0" width="1.4" height="4.2"/>
	<rect x="94.6" y="61.9" class="st0" width="1.4" height="4.2"/>
	<rect x="214.3" y="59.1" class="st0" width="1" height="3.3"/>
	<rect x="212.5" y="59.1" class="st0" width="1" height="3.3"/>
	<ellipse class="st0" cx="204" cy="98.7" rx="0.6" ry="0.6"/>
	<ellipse class="st0" cx="201.2" cy="98.7" rx="0.6" ry="0.6"/>
	<ellipse class="st0" cx="198.5" cy="98.7" rx="0.6" ry="0.6"/>
	<ellipse class="st0" cx="195.7" cy="98.7" rx="0.6" ry="0.6"/>
	<ellipse class="st0" cx="185.6" cy="102.8" rx="0.6" ry="0.6"/>
	<ellipse class="st0" cx="182.8" cy="102.8" rx="0.6" ry="0.6"/>
	<path class="st0" d="M184,78.4c0-0.2-0.1-0.3-0.3-0.3s-0.3,0.1-0.3,0.3c0,0.2,0.1,0.3,0.3,0.3C183.8,78.7,184,78.5,184,78.4z"/>
	<path class="st0" d="M182.4,78.4c0-0.2-0.1-0.3-0.3-0.3s-0.3,0.1-0.3,0.3c0,0.2,0.1,0.3,0.3,0.3S182.4,78.5,182.4,78.4z"/>
	<path class="st0" d="M180.9,78.4c0-0.2-0.1-0.3-0.3-0.3s-0.3,0.1-0.3,0.3c0,0.2,0.1,0.3,0.3,0.3S180.9,78.5,180.9,78.4z"/>
	<path class="st0" d="M171.4,80c0-0.4-0.3-0.6-0.6-0.6s-0.6,0.3-0.6,0.6c0,0.4,0.3,0.6,0.6,0.6C171.1,80.7,171.4,80.4,171.4,80z"/>
	<path class="st0" d="M168.4,80c0-0.4-0.3-0.6-0.6-0.6s-0.6,0.3-0.6,0.6c0,0.4,0.3,0.6,0.6,0.6C168.1,80.7,168.4,80.4,168.4,80z"/>
	<path class="st0" d="M165.4,80c0-0.4-0.3-0.6-0.6-0.6s-0.6,0.3-0.6,0.6c0,0.4,0.3,0.6,0.6,0.6C165.1,80.7,165.4,80.4,165.4,80z"/>
	<rect x="163.3" y="71.1" class="st0" width="4.9" height="3.1"/>
	<rect x="137" y="87.4" class="st0" width="1" height="5.2"/>
	<polygon class="st0" points="128.5,85.9 120.8,85.9 118.8,87.9 128.5,87.9 	"/>
</g>
</svg>
