<?xml version="1.0" encoding="utf-8"?>
<!-- Generator: Adobe Illustrator 26.0.3, SVG Export Plug-In . SVG Version: 6.00 Build 0)  -->
<svg version="1.0" id="Слой_1" xmlns="http://www.w3.org/2000/svg" xmlns:xlink="http://www.w3.org/1999/xlink" x="0px" y="0px"
	 viewBox="0 0 239.5 150.2" style="enable-background:new 0 0 239.5 150.2;" xml:space="preserve">
<style type="text/css">
	.st0{fill:#1D1D1B;}
</style>
<g>
	<path class="st0" d="M100.4,104.8c0.5,0.1,1,0.2,1.4,0.2c0,1.4,0,2.8,0,4.2c0.6-0.6,1.3-1.2,2.4-1.3c1.4,0,2.5,0.6,2.6,1.9
		c0.2,2.1,0,4.2,0.1,6.3c-0.4,0-0.8,0-1.3,0c-0.2-2.3,0.2-6.1-0.2-6.7c-0.3-0.5-1.1-0.5-1.5-0.4c-1.1,0.3-1.4,0.7-1.9,1.4
		c-0.1,1.7,0,3.7-0.1,5.4c-0.3,0.4-1.5,0.5-1.4-0.3C100.4,112,100.4,108.4,100.4,104.8z"/>
	<path class="st0" d="M118.9,104.9c1,0,2.1-0.1,3.1,0c0.4-0.1,0.6,0.4,0.5,0.8c0,3.1,0,6.2,0,9.3c0.8,0,1.5,0,2.3,0
		c0,0.4,0,0.8,0,1.2c-2.1,0-4.2,0-6.2,0c0-0.3,0-0.8,0-1.1c0.8,0,1.7,0,2.5,0c0-3,0-5.9,0-8.9c-0.7,0-1.5,0-2.2,0
		C118.9,105.7,118.9,105.3,118.9,104.9z"/>
	<path class="st0" d="M127.8,104.9c1.2,0,2.5,0,3.7,0c0,3.4,0,6.7,0,10.1c0.8,0,1.6,0,2.5,0c-0.1,0.4,0.1,0.9-0.3,1.1
		c-2,0.1-4.1,0-6.2,0c0-0.4,0-0.8,0-1.2c0.8,0,1.7,0,2.5,0c0-3,0-5.9,0-8.9c-0.8,0-1.5,0-2.2,0C127.8,105.7,127.8,105.3,127.8,104.9
		z"/>
	<g>
		<path class="st0" d="M110.1,109.1c1.4-1.7,4.5-1.6,5.6,0.4c0.5,0.9,0.4,2,0.5,3c-1.9,0-3.8,0-5.7,0c0.2,0.9,0.4,1.8,1.2,2.3
			c1.3,0.7,2.7,0.2,4.1,0.1c0,0.3,0,0.8,0,1.1c-2,0.4-4.6,0.7-6.1-1.1C108.9,113,108.8,110.7,110.1,109.1z M110.8,110.3
			c0,0.3,0,0.7,0,1c1.6,0,2.7,0,4.1,0c0-0.7,0-1.5-0.9-2c-0.7-0.3-1.3-0.3-2.1-0.1C111.3,109.4,110.9,109.7,110.8,110.3z"/>
	</g>
	<g>
		<path class="st0" d="M138.1,116.1c-0.5-0.1-1.3-0.6-1.6-1.3c-1-1.7-0.9-4,0.3-5.6c1.6-1.9,5.2-1.7,6.2,0.7
			c0.7,1.9,0.6,4.4-1.2,5.7c-1,0.8-3,0.6-3.2,0.5C138.6,116.2,138.2,116.2,138.1,116.1z M138.6,109.3c-1.5,0.9-1.5,3-1.1,4.5
			c0.5,1.5,2.6,1.9,3.6,0.7c0.8-0.9,0.8-2.3,0.6-3.4C141.7,109.7,140,108.5,138.6,109.3z"/>
	</g>
</g>
<g>
	<path class="st0" d="M181.6,104.9c1.3,0,2.6,0,3.9,0c0,3.4,0,6.7,0,10.1c0.8,0,1.6,0,2.4,0c0,0.4,0,0.8,0,1.1c-2.1,0-4.3,0-6.4,0
		c0-0.4,0-0.8,0-1.1c0.9,0,1.8,0,2.6,0c0-3,0-6,0-8.9c-0.8,0-1.6,0-2.4,0C181.6,105.7,181.6,105.3,181.6,104.9z"/>
	<g>
		<path class="st0" d="M195.3,104.9c0.5,0,0.9,0,1.4,0c0,3.7,0,7.5,0,11.2c-0.4,0-0.8,0-1.3,0c0-0.5,0-1,0-1.4
			c-0.6,0.7-1.3,1.5-2.3,1.6c-1.3,0.3-2.6-0.8-2.9-2c-0.5-1.8-0.4-4,0.9-5.4c1.1-1.1,2.8-1.1,4.2-0.8
			C195.3,107,195.3,106,195.3,104.9z M191.8,110.1c-0.6,1.2-0.6,2.7-0.2,4c0.2,0.7,0.9,1.3,1.7,1.1c0.8-0.4,1.5-1.1,1.9-1.8
			c0.2-1.3,0.1-2.7,0-4C194.1,109,192.5,108.9,191.8,110.1z"/>
	</g>
	<path class="st0" d="M153.4,108.1c0.4,0,0.9,0,1.3,0c0.3,2.2,0.5,4.3,0.8,6.5c0.6-1.5,1-3.1,1.5-4.6c0.3,0,0.7,0,1,0
		c0.5,1.6,1,3.1,1.6,4.6c0.3-2.2,0.5-4.4,0.8-6.5c0.4,0,0.9,0,1.3,0c-0.3,2.7-0.7,5.3-1.1,8c-0.6,0-1.1,0-1.7,0
		c-0.5-1.4-0.9-2.8-1.4-4.2c-0.5,1.4-0.9,2.8-1.4,4.2c-0.6,0-1.1,0-1.6,0C154.2,113.5,153.8,110.8,153.4,108.1z"/>
	<g>
		<path class="st0" d="M165.8,108c1.6-0.4,3.5,0.3,4.2,1.9c0.6,1.5,0.6,3.3-0.2,4.7c-1.3,2.2-5.1,2.3-6.3,0
			C162.1,112.4,162.8,108.6,165.8,108z M165.7,109.2c-0.8,0.4-1.4,1.2-1.5,2.1c-0.1,1-0.1,2.2,0.6,3.1c0.8,1,2.6,1.1,3.4,0
			c0.8-1.1,0.7-2.6,0.4-3.8C168.3,109.4,166.9,108.8,165.7,109.2z"/>
	</g>
	<path class="st0" d="M175.9,108.1c1-0.3,2.2-0.1,2.8,0.8c0.5,0.7,0.4,1.5,0.5,2.3c-0.5,0-0.9,0-1.4,0c-0.2-0.7-0.1-1.5-0.7-1.9
		c-0.8-0.5-1.6,0.1-2.2,0.6c-0.4,0.4-1,0.8-0.9,1.5c0,1.6,0,3.2,0,4.8c-0.5,0-1,0-1.4,0c0-2.7,0-5.3,0-8c0.4,0,0.8,0,1.3,0
		c0,0.5,0,0.9,0,1.4C174.5,109,175.1,108.3,175.9,108.1z"/>
	<path class="st0" d="M146.2,111.2c1.6,0,3.2,0,4.8,0c0,0.4,0,0.9,0,1.3c-1.6,0-3.2,0-4.8,0C146.2,112.1,146.2,111.6,146.2,111.2z"
		/>
</g>
<g>
	<path class="st0" d="M213.3,104.9c0.5,0,0.9,0,1.4,0c-1.9,4.3-3.6,8.6-5.5,13c-0.5,0-0.9,0-1.3,0
		C209.7,113.6,211.5,109.2,213.3,104.9z"/>
	<path class="st0" d="M91.2,111.9c1.8-1.5,3.6-3,5.4-4.5c0.3,0.3,0.6,0.6,0.9,0.9c-1.4,1.2-2.9,2.4-4.4,3.6c1.5,1.2,2.9,2.4,4.4,3.6
		c-0.3,0.3-0.6,0.6-0.9,0.9C94.8,114.8,93,113.3,91.2,111.9z"/>
	<path class="st0" d="M217.6,108.3c0.3-0.3,0.6-0.6,0.9-0.9c1.8,1.5,3.6,3,5.4,4.5c-1.8,1.5-3.6,3-5.4,4.5c-0.3-0.3-0.6-0.6-0.9-0.9
		c1.4-1.2,2.9-2.4,4.4-3.6C220.5,110.7,219.1,109.5,217.6,108.3z"/>
</g>
</svg>
