<?xml version="1.0" encoding="utf-8"?>
<!-- Generator: Adobe Illustrator 26.0.3, SVG Export Plug-In . SVG Version: 6.00 Build 0)  -->
<svg version="1.0" id="Слой_1" xmlns="http://www.w3.org/2000/svg" xmlns:xlink="http://www.w3.org/1999/xlink" x="0px" y="0px"
	 viewBox="0 0 238.1 150.2" style="enable-background:new 0 0 238.1 150.2;" xml:space="preserve">
<style type="text/css">
	.st0{fill:#1D1D1B;}
</style>
<g>
	<path class="st0" d="M151.2,77.5c-1.4-7.1-4.4-13.9-9-19.6c-2.8-3.4-6.2-6.3-10.1-8.3c-4.4-2.3-9.3-3.4-14.2-3
		c-2.5,0.2-4.9,0.7-7.2,1.6c-3.9,1.5-7.4,3.8-10.5,6.6c-3.4,3.1-6,6.9-8.1,11c-2,4.1-3.4,8.5-4.2,13c-1.6,9.6-0.4,19.8,3.8,28.7
		c1.9,4,4.3,7.8,7.4,10.9c2.7,2.8,5.9,5.1,9.4,6.8c3.8,1.8,8,2.6,12.2,2.4c5.4-0.2,10.8-2.2,15.2-5.4c3.6-2.6,6.6-5.9,9-9.6
		c2.8-4.4,4.8-9.4,6-14.6C152.4,91.3,152.5,84.2,151.2,77.5z M150.4,98.5c-1.2,4.8-2.9,9.4-5.7,13.5c-2.5,3.9-5.7,7.4-9.4,10.2
		c-4,2.8-8.6,4.6-13.4,5c-3.9,0.3-7.9-0.2-11.5-1.7c-3.7-1.5-7-3.7-10-6.4c-2.9-2.8-5.4-6.2-7.3-9.8c-4.5-8.5-6.1-18.3-4.9-27.9
		c0.6-5.1,2-10.2,4.2-14.9c1.8-3.7,4.1-7.1,6.9-10.1c2.7-2.8,6-5.2,9.5-6.9c2.9-1.4,6.1-2.2,9.2-2.4c4.6-0.3,9.4,0.6,13.5,2.7
		c4.1,2,7.5,5,10.5,8.5c4.9,6.1,8,13.5,9.1,21.3C152.1,85.8,151.9,92.3,150.4,98.5z"/>
	<path class="st0" d="M118.9,106.5c-0.2,0.1-0.4,0.2-0.6,0.3c0.1,0.1,0.1,0.2,0.2,0.3C118.6,107,119.2,106.9,118.9,106.5z"/>
	<path class="st0" d="M144.4,63.8c-2.2-3.7-4.9-7-8.3-9.6c-3.4-2.6-7.2-4.6-11.4-5.4c-2.6-0.5-5.2-0.6-7.9-0.3
		c-4.9,0.5-9.6,2.7-13.5,5.8c-3.4,2.6-6.1,5.9-8.2,9.5c-2.3,3.8-3.9,8-4.9,12.4c-2.3,10-1.6,20.7,2.6,30.2c1.8,4.1,4.2,7.9,7.3,11.1
		c2.7,2.8,6,5.2,9.6,6.8c3.4,1.5,7,2.2,10.6,2.1c3.3-0.1,6.5-0.8,9.4-2.1c4.4-1.9,8.2-4.9,11.2-8.6c3.1-3.8,5.4-8.2,7.1-12.8
		c2.1-6.2,2.8-12.8,2.4-19.3C149.9,76.5,148,69.8,144.4,63.8z M142.2,100.9c0.4,0.1,0.7,0.2,1,0.5c-0.3,0.3-0.6,0.4-1,0.5
		C142.1,101.6,142,101.2,142.2,100.9z M140.1,101.6c0.5-0.4,1-0.8,1.7-1c-0.2,0.2-0.4,0.3-0.6,0.5c-0.4,0.4-0.7,0.9-1.4,1
		c-0.9,0.5-2,0.9-2.6,1.9c0.1-0.2,0.1-0.4,0.3-0.6C138.2,102.5,139.2,102,140.1,101.6z M140.3,106.2c-0.4,0.2-0.7,0.6-1.2,0.9
		c0.1-0.9,1-1.6,2-1.6C141.1,105.9,140.6,106,140.3,106.2z M143,105.9c-0.8,0.5-1.8,0.8-2.6,1.4c-0.3,0.2-0.6,0.5-0.9,0.7
		C140.2,106.7,141.6,105.9,143,105.9z M139,106.3c0-0.3,0-0.7,0.3-0.9c0.2-0.2,0.5-0.1,0.7-0.1C139.7,105.7,139.3,106,139,106.3z
		 M113.8,117.6c0-0.1,0-0.1,0.1-0.2c1.2-1.3,2.3-2.4,3.5-3.7c0.7-0.7,1.4-1.6,2.1-2.3c0-0.1,0-0.2,0-0.2c0.8,0,1.8,0,2.6-0.1
		c-2.3,2.1-4.7,4.2-6.9,6.4c-0.1,0.1-0.2,0.2-0.3,0.2c0-0.1,0.1-0.2,0.2-0.3c1.3-1.3,2.6-2.6,3.9-4c0.6-0.7,1.4-1.4,1.9-2.2
		C118.3,113.2,116,115.5,113.8,117.6z M113.8,111.6c-1.7,1.5-3.4,2.9-4.9,4.5c-0.2,0.2-0.3,0.4-0.6,0.5c0.9-1,2-2.1,3-3.3
		c0.6-0.7,1.3-1.5,1.9-2.2c0-0.1,0-0.2,0-0.3c0.8,0.1,1.7,0.2,2.5,0.3c-0.2,0.3-0.5,0.5-0.7,0.7c-1.6,1.4-3.1,2.8-4.7,4.3
		c-0.2,0.2-0.5,0.5-0.8,0.7c0-0.1,0.1-0.2,0.1-0.2c1.7-1.8,3.4-3.6,4.9-5.4C114.2,111.3,114,111.5,113.8,111.6z M109.4,112
		c-1.4,1.2-2.6,2.4-4,3.6c0-0.1,0.1-0.1,0.1-0.2c1.5-1.6,2.9-3,4.2-4.7c-1.6,1.3-3,2.6-4.5,4c-0.2,0.2-0.4,0.5-0.7,0.6
		c1.2-1.3,2.3-2.4,3.5-3.7c0.3-0.4,0.7-0.8,0.9-1.4c-1.6,1.3-3.1,2.7-4.7,4.1c0-0.2,0-0.4,0.1-0.5c1.5-1.4,3-2.8,4.5-4.2
		c0.9,0.7,2.2,0.9,3.3,1.2c-0.2,0.3-0.5,0.5-0.7,0.7c-1.7,1.5-3.4,2.9-4.9,4.5v-0.1c1.5-1.5,2.9-3,4.2-4.7
		C110.2,111.3,109.8,111.7,109.4,112z M105.9,95.7c0-0.2,0-0.3,0-0.5c0.5-0.2,0.9-0.5,1.3-0.9c-0.4,0-0.9,0.2-1.4,0.4
		c0-0.2,0-0.3,0-0.5c0.6-0.3,1.4-0.7,1.9-1.3c-0.6,0.2-1.4,0.4-1.9,0.7c0-0.1,0-0.3-0.1-0.4c0.8-0.4,1.7-0.9,2.4-1.6
		c-0.8,0.3-1.7,0.6-2.5,1.2c0-0.2,0-0.3,0-0.5c0.9-0.5,1.9-1,2.7-1.8c-0.9,0.3-1.9,0.7-2.7,1.3c0-0.2,0-0.3,0-0.5
		c1-0.5,2-1.2,2.8-1.8c-1,0.3-2,0.7-2.8,1.3c0-0.2,0-0.4,0-0.5c0.8-0.5,1.8-0.9,2.6-1.6c0.1-0.1,0.3-0.2,0.4-0.3
		c-1,0.4-2,0.8-2.9,1.5c0-0.2,0-0.4,0-0.5c1-0.5,2-1.2,2.9-1.9c-0.9,0.3-1.9,0.7-2.8,1.3c0-0.2,0.1-0.4,0.1-0.6
		c0.6-0.4,1.4-0.7,2-1.3c0.3-0.2,0.6-0.4,0.8-0.7c-0.9,0.4-1.8,0.7-2.6,1.3c0-0.2,0.1-0.4,0.1-0.6c0.9-0.5,1.9-1,2.6-1.8
		c-0.8,0.3-1.7,0.7-2.5,1.2c0-0.2,0.1-0.4,0.1-0.5c0.5-0.3,1-0.7,1.6-1c0.3,0,0.6,0,1,0c0.1-0.4,0-0.9,0.1-1.4
		c0.1-0.5,0.2-1,0.4-1.5c0,0.7,0.2,1.5,0.4,2.2c0,2.1-0.1,4.3-0.3,6.4c-0.2,1.2-0.3,2.2-0.7,3.3c-0.8,2.2-1.8,4.3-2.3,6.6
		c-0.2,0.7-0.1,1.6,0.2,2.3c0.4,0.8,1.3,1.5,2.2,1.8c0.7,0.2,1.5,0.2,2.2,0.1c-0.1,0.4-0.2,0.8-0.3,1.3c-1,0.1-2.2,0.1-3.3-0.4
		c-1.3-0.6-2.1-2.1-2.2-3.5c-0.1-1.8,0.1-3.5,0.3-5.2c0.3-0.2,0.6-0.4,0.8-0.7C106.4,95.5,106.1,95.7,105.9,95.7z M115.7,56.9
		c-3.4,1.3-6.5,3-9.2,5.4c1.3-1.4,2.7-2.6,4.3-3.7c2.4-1.6,4.9-2.9,7.7-3.9c-0.2,0-0.4,0.1-0.6,0.1c-2.3,0.6-4.6,1.7-6.7,2.9
		c-1.4,0.8-2.6,1.8-3.9,2.7c3.1-3.5,7.4-5.9,11.7-7.4c0,0.3-0.1,0.7,0,1c0.3,0.2,0.9,0,1,0.5c0,1,0,2-0.1,3c0,0.3-0.2,0.6-0.5,0.7
		c-0.7,0.3-1.7,0.4-2.4,0.5c-2.4,0.3-4.6,1-6.7,2.2c2.5-1.7,5.2-2.9,8.2-3.8c-2.2,0.3-4.3,1-6.3,2c-2.9,1.5-5.7,3.6-7.8,6.3
		c-0.2,0.3-0.4,0.6-0.7,0.9c0.8-1.7,2.1-3.1,3.5-4.4c1.7-1.5,3.6-2.7,5.6-3.8c1.8-0.9,3.6-1.8,5.4-2.4
		C117.5,56.2,116.5,56.6,115.7,56.9z M106.9,83.3c-0.4,0-0.8-0.3-1-0.7c-0.2-0.3-0.3-0.8-0.2-1.2c0.6-1.2,1.7-1.9,2.5-2.8
		c0.7-1.4,1.6-2.6,2.4-3.8c0.4,1,0.7,2.2,1.2,3.3c-0.6,0.6-1.3,1.4-1.8,2c-0.7,0.9-1.5,1.9-2.2,2.7
		C107.6,83.1,107.3,83.4,106.9,83.3z M107.6,84.2c-0.4,0.2-0.8,0.3-1.3,0.5c0-0.2,0.1-0.4,0.1-0.7C106.9,84.1,107.3,84.2,107.6,84.2
		z M109.1,76.1c-0.6,0.8-1.2,1.8-1.7,2.7c-0.2,0.3-0.5,0.6-0.8,0.8c0.7-1.6,1.6-3.3,2.6-4.6C109.2,75.4,109.3,75.8,109.1,76.1z
		 M106,79c-0.1-0.2-0.2-0.4-0.1-0.6c0.8-1.7,1.8-3.3,2.9-4.7c0.1-0.1,0.1-0.1,0.2-0.2c0,0.2,0.1,0.4,0.1,0.7
		C107.9,75.6,106.8,77.3,106,79z M110.7,73.4c-0.9-3-1.9-6.1-2.7-9.1c-0.1-0.4-0.2-0.9,0-1.3c0.4,0.1,0.8,0.3,1.2,0.5
		c1.7,1,3.3,2.4,4.6,4c0.9,1,1.6,2.2,2.2,3.5c0.9,2,1.7,4,2.3,6.1c0.1,0.5,0.3,1,0.4,1.6c0,0.3-0.1,0.6-0.3,0.7
		c-1.2,0.7-2.5,1.2-3.8,1.6c-0.3,0.1-0.6,0.2-0.9,0.1c-0.3-0.2-0.4-0.5-0.5-0.8C112.1,77.9,111.4,75.8,110.7,73.4z M102.3,80.9
		c0.2-0.5,0.3-1,0.6-1.6c0,0.2,0.2,0.3,0.1,0.5c-0.3,0.8-0.6,1.8-0.9,2.6C101.9,81.9,102.2,81.4,102.3,80.9z M101.8,79.9
		c0-0.3-0.2-0.7,0-1c0.2-0.4,0.4-0.9,0.6-1.4c0,0.2,0.1,0.4,0.1,0.6C102.2,78.7,102,79.3,101.8,79.9z M102.9,74.6c0-0.2,0-0.4,0-0.6
		c1.5-2.3,3.1-4.5,5.1-6.3c0,0.2,0.1,0.5,0.1,0.7C106.2,70.2,104.4,72.3,102.9,74.6z M102.9,72.5c0-0.3,0-0.6,0.1-0.8
		c1.4-2,3-3.9,4.9-5.6c0,0.3,0.1,0.5,0.1,0.8C106.1,68.5,104.4,70.5,102.9,72.5z M108.3,69c0,0.2,0.1,0.4,0.1,0.6
		c-1.9,1.8-3.5,3.9-4.7,6.2c-0.1,0.3-0.3-0.1-0.4-0.2C104.6,73.2,106.3,71,108.3,69z M108.5,70.4c0,0.2,0.1,0.5,0.1,0.7
		c-1.7,1.7-3,3.7-4.2,5.7c-0.1-0.1-0.2-0.2-0.3-0.3C105.3,74.3,106.8,72.2,108.5,70.4z M109.1,63.1c-0.1,0-0.2-0.1-0.3-0.1
		c1.7-1.4,3.6-2.2,5.6-2.8C112.6,60.9,110.8,61.8,109.1,63.1z M107.5,64.2c-0.8,0.6-1.7,1.4-2.4,2.1c0.6-1,1.5-1.9,2.4-2.7
		C107.4,63.8,107.4,64,107.5,64.2z M104.2,68.2c1-1.3,2.2-2.4,3.6-3.5c0,0.3,0.3,0.6,0,0.8c-1.6,1.3-3,2.7-4.3,4.3
		c-0.3,0.4-0.6,0.8-1,1.3c0.1-0.4,0.3-0.9,0.5-1.4C103.2,69.2,103.8,68.7,104.2,68.2z M102.4,72.6c-0.2,0.4-0.1,0.8-0.3,1.3
		c-0.1,0.2-0.2,0.4-0.4,0.5C101.7,73.7,101.9,73.1,102.4,72.6z M102.1,75.3c0,0.2,0.1,0.5,0,0.7c-0.2,0.3-0.3,0.6-0.5,0.9
		C101.4,76.4,101.9,75.8,102.1,75.3z M102.1,86.3c0-0.1,0.1-0.2,0.1-0.2c-0.2,0.2-0.1,0.5-0.2,0.7c-0.6,2.9-0.8,6-0.8,8.9
		c0,2.7,0.1,5.6-0.6,8.2c0.1-1.2,0.2-2.2,0.2-3.4c-0.1-2.6-0.3-5.1-0.1-7.8C100.7,90.6,101.2,88.4,102.1,86.3z M101.9,102.2
		c0.5-2.6,0.4-5.3,0.5-8.1c0-2.5,0.1-5.1,0.7-7.7c0,4.4,0.6,8.9,0,13.3c-0.3,2-0.7,4-2,5.7c-0.4,0.6-1,1.2-1.7,1.6
		C100.8,105.8,101.5,104,101.9,102.2z M102.8,84.3c0,0.1-0.1,0.1-0.1,0.2c0-0.2-0.1-0.3,0-0.5c0.2-1,0.5-2.1,0.9-3.1
		c0.1,0.1,0.1,0.2,0.2,0.3C103.3,82.2,103.1,83.3,102.8,84.3z M103.6,85.6c0.2-1,0.4-2.2,0.7-3.3c0.1,0.2,0.2,0.3,0.1,0.5
		c-0.4,1.2-0.6,2.4-0.9,3.7C103.3,86.2,103.6,85.9,103.6,85.6z M104.4,88.4c0.1-1.3,0.3-2.6,0.6-3.9c0.1,0.3,0.1,0.7,0,1
		c-0.3,1.2-0.4,2.2-0.6,3.4C104.4,88.7,104.3,88.6,104.4,88.4z M105.1,77.3c0.9-1.9,2.2-3.8,3.7-5.3c0,0.3,0.2,0.6,0,0.8
		c-1.3,1.5-2.4,3.1-3.4,4.9C105.2,77.5,105,77.5,105.1,77.3z M111.4,111.7c0.2-0.3,0.5-0.6,0.6-0.9c0.3,0,0.6,0.1,1,0.1
		c0,0.1,0,0.2,0,0.3c-2,1.6-3.8,3.4-5.7,5.1c0,0,0,0-0.1-0.1C108.8,114.7,110.2,113.2,111.4,111.7z M110.9,116.5
		c1.4-1.4,2.7-2.8,4-4.3c0.3-0.3,0.6-0.6,0.8-1c0.4,0,0.8,0,1.3,0.1c-1.3,1.2-2.6,2.4-4,3.6c-0.8,0.7-1.7,1.6-2.5,2.3
		C110.6,116.8,110.8,116.7,110.9,116.5z M117,111.3c0.4-0.1,0.8,0,1.2,0c-0.8,0.8-1.8,1.6-2.6,2.4c-1.3,1.2-2.5,2.4-3.8,3.6h-0.1
		C113.4,115.2,115.3,113.4,117,111.3z M117.9,111.6c0.1-0.1,0.1-0.2,0.2-0.3c0.4,0,0.7,0,1.2,0c0.1,0.2-0.2,0.3-0.3,0.5
		c-2.1,1.9-4.1,3.7-6.1,5.7c-0.1,0.1-0.2,0.1-0.3,0.1C114.3,115.5,116.2,113.6,117.9,111.6z M122.2,111.2c0.4,0,0.7,0,1.2-0.1
		c-2.4,2.2-4.9,4.3-7.1,6.7c-0.1,0-0.2,0-0.2,0C118.1,115.7,120.3,113.5,122.2,111.2z M123.6,111.1c0.4,0,0.8,0,1.3-0.1
		c-2.3,2.1-4.7,4.2-7,6.5c-0.2,0.2-0.3,0.4-0.6,0.4C119.4,115.7,121.7,113.5,123.6,111.1z M124.9,111.1c0.4-0.2,0.8-0.1,1.4-0.2
		c-0.8,0.8-1.9,1.7-2.7,2.5c-1.5,1.3-2.8,2.6-4.2,4c-0.1,0.1-0.3,0.2-0.4,0.2C120.8,115.3,123,113.4,124.9,111.1z M125.7,111.7
		c0.2-0.3,0.5-0.5,0.6-0.8c0.3,0,0.6-0.1,0.8-0.1c-0.4,0.5-0.8,1.2-1.4,1.7c-1.4,1.3-2.7,2.5-4,3.7c-0.3,0.2-0.5,0.5-0.8,0.6
		C122.5,115.1,124.2,113.5,125.7,111.7z M120.4,110.3c-2.6,0-5.1,0-7.8-0.4c-0.9-0.2-1.8-0.3-2.6-0.7c-0.2-0.2-0.5-0.4-0.4-0.7
		c0.3-0.1,0.4,0.3,0.7,0.4c0.7,0.3,1.6,0.4,2.4,0.6c2.4,0.3,4.8,0.4,7.3,0.5c2.7,0,5.4,0,8.1-0.3c-0.2,0.1-0.4,0.2-0.6,0.2
		C125.2,110.1,122.8,110.2,120.4,110.3z M122.2,95.7c0.1,0.1,0.3,0.1,0.4,0.2c-0.2,0.1-0.3,0.3-0.5,0.4c-0.2-0.1-0.4-0.2-0.5-0.3
		C121.8,95.9,121.9,95.7,122.2,95.7z M121.1,95.8c-0.2-0.1-0.3-0.2-0.5-0.3c0.2-0.1,0.4-0.2,0.6-0.3c0.1,0.1,0.3,0.2,0.5,0.3
		C121.5,95.5,121.3,95.7,121.1,95.8z M123,96.2c0.2,0,0.4,0.1,0.6,0.2c-0.2,0.1-0.4,0.3-0.6,0.4c-0.2-0.1-0.4-0.2-0.5-0.3
		C122.6,96.4,122.8,96.3,123,96.2z M133.5,102c0.4,0.5,0.9,1.2,1.6,1.5c0.4,0.2,0.8,0.3,1.4,0.5c-0.5,0-1,0-1.5-0.2
		c-0.6-0.2-1.2-0.8-1.7-1.4c-0.8-0.9-1.3-2.2-0.9-3.5c0.1-0.4,0.2-0.7,0.6-0.9c-0.1,0.4-0.3,0.7-0.3,1.2
		C132.5,100.3,132.9,101.3,133.5,102z M137.3,106.8c0.4,0,0.8,0.1,1.3,0c-0.2,0.3-0.6,0.5-1,0.5c-0.3,0-0.6,0-0.9,0
		C136.8,107,137,106.8,137.3,106.8z M136.9,106.2c0.1-0.2,0-0.4,0.2-0.5c0.1,0,0.3,0,0.4,0.1c0,0.2-0.1,0.3-0.2,0.5
		C137.2,106.2,137,106.2,136.9,106.2z M129.7,106.7c-0.1-0.1-0.2-0.3-0.3-0.4c0.1-0.1,0.3-0.1,0.4-0.2c0.1,0.1,0.2,0.2,0.3,0.4
		C130.1,106.4,130,106.5,129.7,106.7z M130.5,106.8c0.1,0.1,0.2,0.2,0.3,0.3c-0.1,0.1-0.2,0.1-0.3,0.2c-0.1-0.1-0.2-0.2-0.2-0.3
		C130.3,106.9,130.4,106.8,130.5,106.8z M129.8,107.5c-0.1,0-0.2,0.1-0.4,0.1c-0.1-0.1-0.2-0.2-0.3-0.3c0.1-0.1,0.2-0.1,0.3-0.2
		C129.7,107.3,129.8,107.4,129.8,107.5z M128.5,103.6c0.1,0.1,0.1,0.3,0.2,0.4c-0.2,0.1-0.3,0.2-0.5,0.3c-0.1-0.1-0.1-0.3-0.2-0.4
		C128.1,103.8,128.3,103.7,128.5,103.6z M127.8,103.6c-0.1-0.2-0.2-0.3-0.3-0.5c0.2-0.1,0.4-0.2,0.5-0.3c0.1,0.1,0.2,0.3,0.3,0.4
		C128.1,103.4,127.9,103.5,127.8,103.6z M128.8,104.5c0.1,0.1,0.2,0.3,0.3,0.4c-0.1,0.1-0.3,0.2-0.4,0.3c-0.1-0.1-0.2-0.3-0.3-0.4
		C128.5,104.7,128.7,104.5,128.8,104.5z M129.3,105.3c0.1,0.1,0.2,0.2,0.3,0.4c-0.1,0.1-0.3,0.2-0.4,0.2c-0.1-0.1-0.2-0.2-0.3-0.4
		C129,105.4,129.2,105.4,129.3,105.3z M130.1,105.4c-0.1-0.1-0.2-0.2-0.3-0.4c0.1-0.1,0.2-0.1,0.4-0.2c0.1,0.1,0.2,0.3,0.3,0.4
		C130.4,105.3,130.3,105.3,130.1,105.4z M129.5,104.7c-0.1-0.1-0.1-0.2-0.2-0.4c0.1-0.1,0.3-0.2,0.4-0.2c0.1,0.1,0.2,0.3,0.2,0.4
		C129.8,104.5,129.6,104.5,129.5,104.7z M129,103.8c-0.1-0.1-0.2-0.3-0.2-0.4c0.1-0.1,0.3-0.2,0.4-0.2c0.1,0.1,0.1,0.3,0.2,0.4
		C129.3,103.7,129.2,103.8,129,103.8z M128.6,103.1c-0.1-0.1-0.2-0.3-0.2-0.4c0.2-0.1,0.3-0.2,0.5-0.2c0.1,0.1,0.1,0.3,0.2,0.4
		C128.9,102.9,128.8,103,128.6,103.1z M128.2,102.2c-0.1-0.1-0.2-0.3-0.3-0.5c0.2-0.1,0.4-0.2,0.5-0.2c0.1,0.1,0.2,0.3,0.3,0.4
		C128.5,102.1,128.3,102.1,128.2,102.2z M127.5,101.5c-0.2-0.1-0.3-0.3-0.4-0.5c0.2-0.1,0.4-0.2,0.6-0.3c0.1,0.1,0.3,0.3,0.4,0.5
		C127.9,101.4,127.8,101.5,127.5,101.5z M127.4,102c0.1,0.1,0.2,0.3,0.3,0.4c-0.2,0.1-0.3,0.2-0.5,0.3c-0.1-0.2-0.4-0.3-0.4-0.5
		C127,102.2,127.2,102,127.4,102z M127.1,103.2c0.1,0.2,0.2,0.3,0.3,0.5c-0.1,0.1-0.3,0.2-0.5,0.3c-0.1-0.2-0.2-0.3-0.3-0.5
		C126.8,103.4,127,103.3,127.1,103.2z M127.1,105c-0.1,0.1-0.3,0.2-0.4,0.3c-0.1-0.2-0.2-0.4-0.3-0.5c0.1-0.1,0.3-0.1,0.4-0.2
		C126.9,104.7,127,104.9,127.1,105z M127.1,104.3c0.2-0.1,0.3-0.2,0.5-0.2c0.1,0.2,0.1,0.3,0.2,0.5c-0.1,0.1-0.3,0.2-0.4,0.2
		C127.3,104.7,127.2,104.5,127.1,104.3z M128,104.9c0.1,0.1,0.2,0.3,0.3,0.4c-0.1,0.1-0.3,0.2-0.4,0.2c-0.1-0.1-0.2-0.3-0.3-0.4
		C127.8,105.1,127.9,105,128,104.9z M128.5,105.7c0.1,0.1,0.3,0.2,0.3,0.4c-0.1,0.1-0.2,0.1-0.3,0.2c-0.1-0.1-0.2-0.3-0.3-0.4
		C128.2,105.9,128.4,105.8,128.5,105.7z M129,106.5c0.1,0.1,0.2,0.2,0.3,0.4c-0.1,0.1-0.2,0.1-0.3,0.2c-0.1-0.1-0.2-0.3-0.3-0.4
		C128.8,106.5,128.9,106.5,129,106.5z M130.4,109.6c0.4,0.2,0.4,0.7,0.4,1.2c0.1,0,0.2,0.1,0.3,0.1c-0.2,0.1-0.4,0.2-0.6,0.1
		c-0.2-0.2-0.3-0.5-0.5-0.7c-0.2-0.2-0.4-0.3-0.7-0.5C129.5,109.5,130.1,109.4,130.4,109.6z M130.7,109.2c-0.1-0.1-0.3-0.1-0.2-0.3
		c0.2-0.2,0.5-0.3,0.8-0.2c0.3,0.2,0.4,0.6,0.3,0.9c0,0.1,0.1,0.2,0.2,0.2c-0.2,0-0.4,0.1-0.5-0.1C131,109.7,131,109.4,130.7,109.2z
		 M133.1,111.8c0.3,0.2,0.3,0.6,0.2,0.9c-0.2-0.1-0.3-0.4-0.4-0.5c-0.4-0.2-0.8-0.2-1.3-0.2C131.8,111.6,132.6,111.4,133.1,111.8z
		 M135.5,111.2c0.7-0.3,1.6-0.1,2.4-0.2c0.3,0,0.6-0.2,0.9-0.3c-0.5,0.7-1.5,0.8-2.3,0.9c-0.7,0-1.5,0.1-2.2,0.5
		C134.6,111.6,135.1,111.4,135.5,111.2z M134.9,110.7c0.4-0.6,1.2-0.9,1.8-0.8c0.7,0.1,1.5,0.2,2.1-0.2c-0.3,0.5-1,0.7-1.7,0.7
		C136.5,110.3,135.6,110.4,134.9,110.7z M134.7,109.7c-0.3-0.1-0.4-0.3-0.6-0.5c0.1-0.2,0.3-0.3,0.5-0.2
		C134.9,109.2,134.8,109.5,134.7,109.7z M133.9,109.9c0.2,0.1,0.3,0.4,0.2,0.6c-0.3,0.1-0.5-0.3-0.8-0.5
		C133.4,109.9,133.7,109.7,133.9,109.9z M133.7,107.2c0.2-0.2,0.6-0.4,0.8-0.1c0.2,0.2,0.1,0.5-0.1,0.6
		C134.1,107.5,133.8,107.4,133.7,107.2z M133.5,106.5c0.3-0.8,0.7-1.8,1.7-2C134.7,105.2,134.2,106.1,133.5,106.5z M133.5,108.1
		c-0.3-0.1-0.6-0.2-0.9-0.4c0.1-0.2,0.3-0.3,0.6-0.3C133.5,107.5,133.7,107.8,133.5,108.1z M133.4,110.7c0.3,0.2,0.3,0.5,0.2,0.8
		c-0.3-0.3-0.6-0.6-1.2-0.5C132.7,110.7,133.1,110.6,133.4,110.7z M135.2,113.6c0.9-0.2,2-0.1,2.8-0.5c0.4-0.1,0.7-0.4,1-0.7
		c-0.2,0.6-0.7,1-1.4,1.3c-0.9,0.4-2,0.3-3,0.6c-0.6,0.2-1.3,0.6-1.8,0.9C133.5,114.4,134.4,113.8,135.2,113.6z M137.5,112.5
		c-0.8,0.2-1.7,0.1-2.4,0.3c-0.5,0.1-1,0.4-1.5,0.6c0.4-0.6,1-1,1.8-1.3c0.8-0.2,1.8,0,2.6-0.3c0.4-0.1,0.7-0.4,1.2-0.6
		C138.8,112,138.2,112.4,137.5,112.5z M138.1,109.3c-0.5,0.2-1,0-1.7,0c-0.4,0-0.7,0.1-1,0.2c0.2-0.4,0.6-0.6,1-0.7
		c0.5-0.1,1,0.2,1.7,0.1c0.2,0,0.4-0.1,0.6-0.2C138.6,109,138.4,109.2,138.1,109.3z M138.6,105c0.1,0,0.3,0,0.3,0
		c0,0.3-0.2,0.5-0.4,0.6C138.4,105.4,138.4,105.2,138.6,105z M137.6,107.8c0.4,0.2,0.8,0.1,1.2,0c-0.3,0.3-0.7,0.6-1.2,0.5
		c-0.5-0.1-1.2-0.1-1.7,0C136.3,107.8,137.1,107.5,137.6,107.8z M134.9,106.2c0.3-0.6,0.7-1.4,1.6-1.5
		C136,105.3,135.6,105.9,134.9,106.2z M132.5,108.2c0.3,0.2,0.2,0.5,0.1,0.8c0,0.2-0.2,0.3-0.4,0.2c-0.2-0.1-0.2-0.3-0.3-0.5
		c-0.1-0.1-0.3-0.2-0.4-0.3C131.7,108.1,132.2,107.9,132.5,108.2z M131.3,106.7c-0.1-0.1-0.2-0.1-0.3-0.2c0.1-0.1,0.2-0.1,0.3-0.2
		c0.1,0.1,0.1,0.2,0.2,0.2C131.5,106.5,131.4,106.5,131.3,106.7z M130.7,106.1c-0.1-0.1-0.2-0.3-0.3-0.4c0.1-0.1,0.2-0.1,0.3-0.2
		c0.1,0.1,0.2,0.2,0.3,0.3C130.9,105.9,130.8,106,130.7,106.1z M130.2,103.6c0,0,0.1-0.1,0.2-0.1c0,0.2,0.1,0.4,0.1,0.6
		C130.4,104,130.3,103.8,130.2,103.6z M130.1,103.3c-0.1-0.1-0.2-0.3-0.2-0.4c0.1-0.1,0.2-0.1,0.3-0.2c0.1,0.2,0.1,0.3,0.2,0.5
		C130.2,103.3,130.1,103.3,130.1,103.3z M129.5,102.6c-0.1-0.1-0.2-0.3-0.2-0.4c0.1-0.1,0.2-0.1,0.3-0.2c0.1,0.1,0.1,0.3,0.2,0.4
		C129.7,102.4,129.6,102.5,129.5,102.6z M129,101.7c-0.1-0.1-0.2-0.3-0.3-0.4c0.1-0.1,0.3-0.1,0.4-0.2c0.1,0.1,0.2,0.3,0.3,0.4
		C129.3,101.6,129.2,101.6,129,101.7z M128.5,101c-0.1-0.1-0.3-0.3-0.4-0.4c0.2-0.1,0.3-0.2,0.5-0.2c0.1,0.1,0.2,0.3,0.3,0.4
		C128.8,100.9,128.7,100.9,128.5,101z M127.9,100.4c-0.2-0.2-0.3-0.3-0.5-0.5c0.2-0.1,0.3-0.2,0.5-0.3c0.2,0.1,0.3,0.3,0.5,0.5
		C128.2,100.2,128.1,100.3,127.9,100.4z M127,99.6c-0.1-0.1-0.3-0.3-0.4-0.4c0.2-0.1,0.3-0.2,0.5-0.2c0.1,0.1,0.3,0.2,0.4,0.3
		C127.4,99.4,127.2,99.5,127,99.6z M126.4,99c-0.2-0.1-0.3-0.2-0.5-0.3c0.1-0.2,0.3-0.2,0.4-0.3c0.2,0.1,0.3,0.2,0.5,0.3
		C126.7,98.8,126.5,98.9,126.4,99z M125.7,98.4c-0.2,0-0.3-0.2-0.5-0.3c0-0.2,0.3-0.2,0.4-0.3c0.2,0.1,0.3,0.2,0.5,0.3
		C125.9,98.3,125.8,98.4,125.7,98.4z M124.8,97.8c-0.2-0.1-0.4-0.2-0.5-0.3c0.2-0.1,0.4-0.2,0.5-0.3c0.2,0.1,0.3,0.2,0.4,0.4
		C125.1,97.7,124.9,97.7,124.8,97.8z M123.9,97.3c-0.2,0-0.4-0.2-0.5-0.3c0.2-0.1,0.5-0.2,0.7-0.3c0.1,0.1,0.2,0.2,0.4,0.3
		C124.3,97.1,124.1,97.2,123.9,97.3z M123.1,97.1c0.2,0.1,0.4,0.2,0.5,0.4c-0.3,0.2-0.5,0.3-0.7,0.5c-0.3-0.1-0.5-0.3-0.7-0.5
		C122.5,97.3,122.8,97.2,123.1,97.1z M124,97.6c0.2,0.1,0.3,0.3,0.5,0.4c-0.2,0.1-0.5,0.3-0.7,0.5c-0.2-0.2-0.5-0.3-0.7-0.5
		C123.4,98,123.7,97.7,124,97.6z M124.8,98.3c0.2,0.1,0.3,0.3,0.5,0.4c-0.2,0.1-0.4,0.3-0.6,0.5c-0.2-0.1-0.5-0.3-0.7-0.5
		C124.2,98.5,124.5,98.4,124.8,98.3z M125.6,98.8c0.2,0.1,0.3,0.3,0.5,0.4c-0.2,0.1-0.4,0.3-0.6,0.4c-0.2-0.2-0.4-0.3-0.6-0.5
		C125,99.1,125.2,98.9,125.6,98.8z M126.3,99.4c0.1,0.1,0.3,0.3,0.4,0.4c-0.2,0.1-0.4,0.3-0.6,0.4c-0.2-0.2-0.4-0.3-0.6-0.5
		C125.8,99.6,126,99.5,126.3,99.4z M126.9,100.1c0.2,0.2,0.3,0.3,0.5,0.5c-0.2,0.1-0.4,0.3-0.6,0.3c-0.2-0.2-0.4-0.3-0.6-0.5
		C126.5,100.3,126.7,100.2,126.9,100.1z M127.2,101.8c-0.2,0.1-0.4,0.2-0.6,0.4c-0.2-0.2-0.4-0.4-0.5-0.5c0.2-0.1,0.4-0.2,0.7-0.3
		C126.9,101.4,127.1,101.6,127.2,101.8z M127,103c-0.2,0.1-0.3,0.2-0.5,0.3c-0.2-0.2-0.3-0.4-0.5-0.5c0.2-0.1,0.4-0.2,0.6-0.3
		C126.7,102.6,126.8,102.8,127,103z M126.7,104.2c-0.1,0.1-0.3,0.2-0.4,0.2c-0.1-0.2-0.2-0.4-0.4-0.6c0.2-0.1,0.3-0.2,0.5-0.2
		C126.5,103.8,126.6,104,126.7,104.2z M126.1,104.5c-0.1,0.1-0.2,0.1-0.3,0.2c-0.1-0.2-0.2-0.4-0.4-0.6c0.1-0.1,0.3-0.1,0.4-0.2
		C125.9,104.1,126,104.3,126.1,104.5z M126.2,104.9c0.1,0.2,0.2,0.4,0.3,0.5c-0.1,0.1-0.2,0.1-0.3,0.2c-0.1-0.2-0.2-0.4-0.3-0.6
		C126,105,126.1,104.9,126.2,104.9z M126.6,105.6c0.1,0.2,0.2,0.3,0.3,0.5c-0.1,0-0.2,0.1-0.3,0.1c-0.1-0.2-0.2-0.3-0.3-0.5
		C126.4,105.7,126.5,105.7,126.6,105.6z M127.1,106.4c0.1,0.2,0.3,0.3,0.2,0.6c-0.2-0.1-0.4-0.3-0.5-0.5
		C126.9,106.5,127,106.5,127.1,106.4z M127.2,106c-0.1-0.2-0.2-0.3-0.3-0.5c0.1-0.1,0.3-0.1,0.4-0.2c0.1,0.1,0.2,0.3,0.3,0.5
		C127.4,105.9,127.3,105.9,127.2,106z M127.8,106.1c0.1,0.1,0.2,0.3,0.3,0.4c-0.1,0.1-0.2,0.1-0.3,0.2c-0.1-0.1-0.2-0.3-0.3-0.5
		C127.5,106.2,127.7,106.2,127.8,106.1z M128.4,107c0.1,0.1,0.2,0.2,0.3,0.4c-0.1,0.1-0.2,0.1-0.4,0.2c-0.1-0.2-0.2-0.3-0.3-0.5
		C128.1,107.1,128.2,106.9,128.4,107z M129.2,107.7c-0.4,0.1-0.7,0.2-1.2,0.3C128.4,107.8,128.8,107.5,129.2,107.7z M129.3,110.5
		c0.4,0.3,0.5,0.8,0.5,1.3c0.1,0,0.3,0.1,0.3,0.1c-0.2,0.1-0.4,0.3-0.6,0.2c-0.2-0.2-0.3-0.5-0.5-0.7c-0.2-0.3-0.6-0.6-0.9-0.8
		C128.5,110.3,129,110.3,129.3,110.5z M132.2,114.1c0.3,0.3,0.3,0.7,0.2,1c-0.2-0.2-0.3-0.5-0.5-0.6c-0.5-0.4-1.3-0.4-1.9-0.3
		C130.6,113.5,131.6,113.5,132.2,114.1z M131.9,113c-0.4-0.1-0.7-0.1-1.2,0c0.3-0.4,0.9-0.6,1.4-0.4c0.4,0.1,0.7,0.6,0.6,1
		C132.6,113.5,132.3,113.1,131.9,113z M135.1,115c1-0.3,2.1-0.2,3-0.6c0.4-0.2,0.7-0.4,1-0.8c-0.2,0.6-0.8,1-1.5,1.4
		c-1.2,0.4-2.4,0.4-3.5,0.9c-0.6,0.3-1.3,0.7-1.8,1.2C133.1,116.1,134,115.2,135.1,115z M133.6,65.2c1.7,1.7,2.9,3.7,3.8,5.8
		c0.3,0.7,0.7,1.7,0.3,2.4c-0.3,0.6-0.9,0.7-1.6,0.9c0.1,0.6,0.1,1.4-0.3,1.8c-0.2,0.2-0.6,0.2-0.7,0.5c-0.1,0.4,0,0.8,0.1,1.3
		c0.2,0.5,0.3,0.9,0.5,1.5c0.5,0.9,1,1.8,1.5,2.7c0.2,0.4,0.3,0.9,0.1,1.4c-0.1,0.2-0.3,0.4-0.5,0.3c-0.7-0.1-1.6-0.2-2.3-0.2
		c-0.7,0-1.6,0-2.1,0.4c-0.2,0.1-0.2,0.4-0.1,0.6c0.3,0.3,0.7,0.4,1.2,0.3c0.4-0.1,0.7,0.2,0.9,0.5c0.3,0.3,0.4,0.7,0.6,1l0.1-0.1
		c0-0.4-0.1-0.9,0.2-1.4c0.2,0.6,0.3,1.4,0.4,2.1c0.1,0.3-0.2,0.6-0.4,0.6c-0.3,0.1-0.5-0.3-0.7-0.2c-0.7,0.2-1.5,0.6-2.3,0.9
		c-0.3,0.1-0.6,0.4-1,0.2c-0.2-0.1-0.3-0.2-0.4-0.3c-0.1,0.2-0.2,0.5-0.1,0.8c0.1,0.2,0.3,0.3,0.6,0.3c0.9-0.1,1.8-0.7,2.8-0.6
		c0.4,0.1,1,0.2,1.2,0.7c0.3,0.7,0.2,1.6,0,2.4c-0.1,0.3-0.3,0.7-0.1,1c0.3,0.7,0.6,1.7,0.2,2.5c-0.4,0.6-1.3,0.6-1.9,0.7
		c0.4-0.3,0.9-0.6,1.3-1c-0.7,0.2-1.5,0.6-2.1,1c-0.3,0.1-0.6,0-0.9,0c0.6-0.4,1.4-0.8,2-1.5c-0.9,0.4-1.9,0.9-2.8,1.5
		c-0.3,0-0.6,0-0.8-0.1c0.7-0.4,1.5-0.8,2.2-1.4c0.2-0.1,0.3-0.2,0.4-0.4c-1.2,0.5-2.2,1-3.3,1.7c-0.2,0-0.4-0.1-0.7-0.1
		c0.9-0.5,1.9-1.2,2.7-1.9c-1.2,0.5-2.3,1-3.4,1.8c-0.3,0-0.7-0.1-1-0.1c0.6-0.4,1.4-0.7,2-1.2c0.3-0.2,0.7-0.4,0.9-0.7
		c-1.2,0.5-2.4,1-3.5,1.8c-0.3,0-0.5-0.1-0.8-0.1c1.2-0.6,2.2-1.2,3.3-2c-1.3,0.5-2.5,1.2-3.7,1.9c-0.2,0.1-0.5-0.1-0.7-0.2
		c1.2-0.6,2.4-1.3,3.6-2c0.1-0.1,0.2-0.1,0.3-0.2c-0.2,0-0.4,0.1-0.5,0.2c-1.3,0.6-2.6,1.2-3.8,1.9c-0.2-0.1-0.5-0.1-0.5-0.3
		c1.2-0.6,2.2-1.3,3.3-1.8c0-0.1-0.1-0.2-0.1-0.2c-1.3,0.6-2.5,1.3-3.7,2c-0.2-0.1-0.4-0.2-0.5-0.3c0.9-0.5,2-1,2.9-1.7
		c0-0.1-0.1-0.2-0.1-0.3c-1,0.5-2.2,1-3.1,1.8c-0.2-0.1-0.4-0.2-0.6-0.3c0.2-0.2,0.4-0.2,0.6-0.3c0.7-0.4,1.4-0.7,2.1-1.2
		c0-0.1-0.1-0.2-0.2-0.3c-0.9,0.5-1.9,0.9-2.7,1.5c-0.2,0.1-0.4-0.1-0.6-0.2v-0.1c1-0.5,2-1,2.9-1.7c0.1-0.1-0.1-0.2-0.1-0.3
		c-0.9,0.5-2,1-2.9,1.7c-0.1,0-0.2,0.2-0.3,0.1c-0.2-0.1-0.3-0.2-0.4-0.3c1.2-0.6,2.3-1.3,3.5-1.9c0-0.1-0.1-0.2-0.2-0.3
		c-1.2,0.6-2.4,1.3-3.6,2c-0.1-0.1-0.4-0.2-0.4-0.4c1.3-0.6,2.4-1.4,3.7-2c-0.1-0.1-0.1-0.2-0.2-0.3c-1.3,0.6-2.5,1.4-3.8,2.1
		c-0.2-0.1-0.3-0.3-0.4-0.5c1.3-0.6,2.5-1.4,3.8-2.1c0.1-0.1,0.1-0.2,0.2-0.3v0.2c0.2-0.1,0.4-0.2,0.6-0.3c-0.1-0.1-0.1-0.3-0.3-0.2
		c-1.5,0.8-3,1.6-4.5,2.5c-0.1-0.1-0.2-0.3-0.3-0.4c1.3-0.7,2.6-1.5,3.9-2.2c-0.1-0.1-0.2-0.2-0.2-0.3c-1.3,0.7-2.6,1.4-3.8,2.2
		c-0.1-0.2-0.2-0.4-0.3-0.5c1.5-0.8,2.8-1.6,4.3-2.4c0.1-0.1,0.2-0.1,0.3-0.2c0.3-0.1,0.6-0.3,0.9-0.5c0-0.1-0.1-0.2-0.1-0.3
		c-1.8,1-3.7,2-5.4,3c-0.1-0.2-0.1-0.4-0.1-0.6c1.8-0.9,3.6-2,5.3-2.9c0-0.1-0.1-0.2-0.2-0.3c-1.8,0.9-3.6,1.9-5.2,2.9
		c0-0.2-0.1-0.4-0.1-0.6c-0.3,1.8,0.5,3.6,1.7,4.9c-0.1,0.1-0.2,0.2-0.2,0.3c0.2,0,0.3,0,0.5,0c0.1,0.1,0.2,0.2,0.4,0.3
		c-0.2,0.1-0.4,0.3-0.5,0.5c0.3,0,0.6-0.1,0.8-0.2c0.1,0.1,0.3,0.2,0.4,0.3c-0.3,0.2-0.6,0.4-0.7,0.6c0.4-0.1,0.8-0.2,1.2-0.4
		c0.1,0.1,0.4,0.1,0.4,0.3c-0.3,0.2-0.7,0.4-0.9,0.8c0.2-0.1,0.4-0.1,0.6-0.2c0.2,0.1,0.4,0.2,0.6,0.3c-0.2,0.2-0.4,0.3-0.6,0.5
		c0.3-0.1,0.6-0.2,0.9-0.3c0.2,0.1,0.4,0.2,0.5,0.3c-0.3,0.2-0.5,0.3-0.7,0.6c0.4-0.1,0.7-0.3,1.2-0.4c0.2,0.1,0.4,0.2,0.5,0.3
		c-0.3,0.2-0.5,0.4-0.8,0.6c-0.1,0-0.2-0.1-0.3-0.1c0.3,0.2,0.7,0.4,1,0.6v0.1c0.3,0,0.6,0.3,0.8,0.5c0.3,0.1,0.5,0.3,0.8,0.5
		c-0.1,0-0.2,0.1-0.2,0.2c0.1,0,0.2-0.1,0.3-0.1c0.2,0.2,0.4,0.3,0.6,0.5c0,0-0.1,0.1-0.2,0.2c0.1,0,0.2-0.1,0.3-0.1
		c0.2,0.2,0.4,0.3,0.6,0.5c-0.1,0.1-0.2,0.2-0.3,0.2c0.1-0.1,0.3-0.1,0.4-0.2c0.2,0.2,0.4,0.4,0.6,0.6c-0.2,0.1-0.4,0.3-0.6,0.4
		c-1-0.8-2.1-1.7-3.3-2.3c1.3,0.9,2.5,1.9,3.6,3c-0.2,0.1-0.3,0.2-0.5,0.4c-0.8-0.7-1.7-1.5-2.6-2.1l0,0c1,0.8,2.2,1.7,2.9,2.8
		c-0.2,0.1-0.3,0.2-0.5,0.3c-0.6-0.7-1.4-1.4-2.1-1.9c0.6,0.6,1.4,1.3,2,2c-0.1,0.1-0.2,0.2-0.3,0.2c-0.5-0.5-1-1.2-1.7-1.5
		c0.6,0.5,1.3,1.2,1.8,1.9c0,0.1,0.2,0.3,0.1,0.4c-0.3,0.2-0.6,0.4-0.9,0.6c0.4-0.1,0.7-0.3,1.2-0.5c0.1,0.2,0.2,0.4,0.3,0.6
		c-0.5,0.3-1.2,0.6-1.6,1c0.6-0.3,1.2-0.5,1.7-0.8c0.1,0.2,0.2,0.4,0.3,0.5c-0.6,0.4-1.4,0.8-2,1.3c0.7-0.2,1.5-0.7,2.2-1
		c0.1,0.1,0.3,0.2,0.4,0.3c0,0.2-0.2,0.2-0.3,0.3c-0.4,0.2-0.8,0.5-1.3,0.7l0.1,0.1c0.6-0.3,1.3-0.7,2-1c0.2,0.1,0.4,0.2,0.6,0.3
		c-0.3,0.2-0.5,0.4-0.8,0.5c-0.5,0.1-1,0.2-1.7,0.3c-0.2,0-0.5-0.1-0.6,0.1c-0.5,0.1-0.9,0.1-1.5,0.2c0.1-0.2-0.2-0.3-0.3-0.5
		c-0.2,0.1-0.3,0.2-0.5,0.3c0.1,0.1,0.2,0.2,0.3,0.2c-0.6,0.1-1.3,0.1-1.8,0.1c0.1-0.1,0.3-0.2,0.4-0.3c-0.1-0.1-0.2-0.2-0.3-0.3
		c-0.3,0.2-0.7,0.4-1,0.6c-0.4,0.1-0.7,0-1.2,0c0.3-0.1,0.5-0.3,0.8-0.4c-0.1-0.1-0.2-0.2-0.2-0.4c-0.4,0.3-0.9,0.5-1.4,0.8
		c-0.3,0-0.6,0-1,0c0.3-0.2,0.7-0.4,1.2-0.6c-0.1-0.1-0.1-0.2-0.2-0.3c-0.5,0.3-1.2,0.6-1.6,1c-0.3,0-0.7,0-1,0
		c0.8-0.5,1.7-0.9,2.4-1.5c0-0.1-0.1-0.2-0.1-0.3c-1,0.5-2,1-2.9,1.7c-0.3,0-0.6-0.1-0.9-0.1c0.9-0.5,1.9-1,2.8-1.7
		c-0.1-0.1-0.1-0.2-0.2-0.3c-1,0.6-2.2,1.2-3.3,1.9c-0.3,0-0.6-0.1-0.8-0.1c1.3-0.7,2.5-1.5,3.8-2.2c0-0.1-0.1-0.2-0.1-0.3
		c-1.4,0.7-2.8,1.5-4.1,2.4c-0.2,0.1-0.5-0.1-0.7-0.2c1.6-0.8,3.1-1.8,4.6-2.7c0-0.1-0.1-0.2-0.1-0.3c-1.7,0.9-3.3,1.8-4.8,2.7
		c-0.1,0-0.2-0.1-0.2-0.2c0.1-0.2,0.1-0.4,0.3-0.5c1.6-0.8,3-1.7,4.5-2.6c0-0.1-0.1-0.2-0.1-0.3c-1.5,0.7-2.9,1.6-4.4,2.4
		c0.1-0.3,0.1-0.7,0.4-0.8c1.3-0.6,2.4-1.4,3.7-2.1c0.2-0.1,0.1-0.5-0.1-0.3c-1.2,0.6-2.4,1.3-3.6,2c0-0.2,0.1-0.5,0.1-0.7
		c1.2-0.6,2.3-1.3,3.4-1.9c0-0.1-0.1-0.2-0.1-0.4c-1,0.6-2.1,1.2-3.1,1.8c0-0.2,0.1-0.5,0.1-0.7c0.9-0.5,1.9-1,2.8-1.6
		c0-0.1-0.1-0.3-0.1-0.3c-0.8,0.5-1.7,0.9-2.5,1.5c0-0.2,0-0.4,0.1-0.6c0.8-0.4,1.6-0.8,2.3-1.4c-0.1-0.1-0.2-0.2-0.2-0.3
		c-0.7,0.3-1.4,0.7-2.1,1.2c0-0.2,0-0.4,0.1-0.6c0.6-0.4,1.3-0.7,1.9-1.2c0-0.1,0-0.2,0-0.2s0,0.1,0,0.2c0.2-0.2,0.9-0.3,0.6-0.7
		c-0.8,0.4-1.6,0.8-2.4,1.4c0.1-0.2-0.1-0.6,0.2-0.7c1-0.6,2.1-1.3,3-1.9c0.4-0.2,0.7-0.4,1.2-0.7c0.3-0.1,0.5-0.3,0.8-0.5
		c-0.6,0.3-1.3,0.6-1.9,0.9c-1,0.5-2.2,1.2-3.3,1.8c0-0.2,0-0.4,0.1-0.6c1.4-0.8,2.7-1.6,4-2.5c0,0,0.1,0,0.2,0
		c0.2-0.2,0.4-0.3,0.6-0.5c-0.3,0.1-0.6,0.3-0.8,0.5v-0.1c-1.3,0.7-2.6,1.4-3.9,2.1c0-0.2,0-0.4,0-0.6c1.6-0.9,3.1-1.8,4.6-2.9
		c-1.6,0.7-3,1.6-4.6,2.4c0-0.2-0.1-0.4,0.1-0.6c1.5-0.8,3-1.8,4.4-2.7c-1.6,0.7-3,1.5-4.5,2.3c0-0.2,0-0.4,0-0.5
		c1.4-0.8,2.8-1.7,4.2-2.6c-1.5,0.6-2.8,1.4-4.2,2.1c0-0.2,0-0.4,0-0.5c1.4-0.8,2.8-1.7,4.1-2.6c-1.5,0.6-2.7,1.4-4.1,2.1
		c0-0.2,0-0.3-0.1-0.5c0.2-0.1,0.3-0.3,0.6-0.3c0,0.1,0,0.2,0.1,0.3c0-0.1,0-0.2,0-0.3c1.2-0.7,2.3-1.4,3.4-2.1
		c-0.8,0.4-1.6,0.7-2.4,1.2c0-0.2,0-0.4,0-0.6c0.7-0.4,1.6-0.8,2.2-1.5c-0.2,0.1-0.3,0.2-0.5,0.3c-0.2-0.6-0.3-1.3-0.4-1.9
		c0.4,0,0.8-0.2,1.2-0.5c-0.3,0.1-0.6,0.2-0.9,0.1c-0.9-0.2-1.7-0.9-2.3-1.6c-0.7-0.9-1.5-1.9-1.8-3.1c-0.3-1-0.5-2.2-0.4-3.4
		c0.1-0.5,0.6-0.9,1-1.2c0.2-0.1,0.4,0.2,0.4,0.4c-0.6,0.9-0.9,2.2-0.6,3.4c0.2,0.7,0.6,1.6,1.4,2c-0.5-1-0.8-2.2-0.5-3.3
		c0.1,0.3,0.1,0.7,0.3,1c0.1,0.3,0.5,0.4,0.7,0.7c0.4,0.7,0.4,1.6,0.4,2.4h0.1c0.3-0.4,0.6-0.8,0.8-1.3c0.1-0.7-0.5-1.3-0.5-2
		c0-0.4,0.3-0.7,0.5-1c0.8,1.5,1.6,2.9,2.1,4.5c0.6,0,0.9-0.6,1.4-0.9c1.4-0.7,2.7-1.5,4-2.2c0.3-0.2,0.7-0.4,1-0.6
		c0.4-0.2,0.8-0.4,1.2-0.7c-0.8,0.3-1.7,0.8-2.5,1.3c-1.2,0.5-2.2,1.2-3.3,1.7c0.1-0.2,0.2-0.5,0.3-0.7c1.7-0.8,3.3-1.8,4.8-2.8
		c-0.5,0.2-1,0.4-1.5,0.7c-1.2,0.5-2.2,1.2-3.3,1.7c0-0.2,0-0.4,0-0.6c1.3-0.6,2.5-1.4,3.7-2.1c-1.3,0.5-2.5,1.2-3.8,1.8
		c0-0.2,0-0.3-0.1-0.5c0.9-0.5,1.9-1,2.7-1.6c-0.3,0.1-0.5,0.2-0.8,0.3c-0.6,0.3-1.4,0.6-2,0.9c0-0.2-0.1-0.4-0.1-0.6
		c0.6-0.4,1.4-0.7,1.9-1.3c-0.6,0.2-1.2,0.5-1.8,0.7c0.2-0.3,0.5-0.5,0.6-0.9c0.4-0.4,0.9-0.6,1.4-0.9c-0.4,0.2-0.8,0.4-1.4,0.6
		c0-0.2,0-0.4-0.1-0.6c0.5-0.3,1.2-0.6,1.6-1c-0.5,0.1-1.2,0.4-1.7,0.6c0-0.2,0-0.4,0-0.6c0.7-0.4,1.5-0.8,2.1-1.5
		c-0.7,0.3-1.5,0.6-2.1,1c0-0.2,0.1-0.4,0.1-0.6c1.6-0.6,3.1-1.3,4.7-1.9c1.7-0.5,3.5-0.5,5.2-0.1c0.1,0,0.3,0,0.4,0.2
		c-0.2,0-0.4,0.1-0.7,0.1c0.4,0.2,0.9,0.2,1.4,0.4c-1.2,0-2.4-0.1-3.5,0.4c-1.3,0.5-2.2,1.5-3.3,2.2c1.3-0.4,2.2-1.3,3.5-1.7
		c0.7-0.2,1.5-0.3,2.2-0.4c0.1,0.1,0.1,0.2,0,0.3c-0.4,0.1-0.9,0-1.4,0.2c-0.6,0.2-1.2,0.5-1.8,0.8c-0.6,0.4-1.4,0.7-2,1.3
		c0.5-0.1,1,0.1,1.6,0c0.2-0.1,0-0.4,0.1-0.5c0.4-0.2,0.9,0.3,1.3-0.2c0.6,0.3,1.4,0.7,2.1,0.6c0.4-0.3,0.6-0.8,1-1.2
		c0,0.2,0,0.4,0,0.6c0.6-0.4,1.3-0.8,2-1.2c0.4-0.2,0.9-0.3,1.4-0.2c0.3,0.4,0.5,0.9,0.7,1.4c0-0.3-0.1-0.6,0.1-0.9
		c0.2-0.4,0.8-0.4,0.9-0.9c0.1-0.5,0-0.9-0.1-1.5c0-0.1,0.1-0.2,0.2-0.2c0.5-0.2,1.2-0.2,1.5-0.7c0.2-0.3,0.1-0.6,0.1-0.9
		c-0.4-0.3-0.8-0.4-1.4-0.5c-2.4-0.5-4.9-0.4-7.3-0.1c-2.3,0.3-4.4,1.2-6.6,2c-1.3,0.5-2.6,1-3.9,1.6c-0.1-0.2-0.1-0.3-0.2-0.5
		c0.5-0.3,1.2-0.6,1.6-1c-0.6,0.1-1.2,0.4-1.7,0.6c-0.1-0.2-0.1-0.3-0.2-0.5c0.5-0.3,1.2-0.6,1.6-1c-0.6,0.2-1.2,0.4-1.7,0.7
		c-0.1-0.2-0.1-0.3-0.2-0.5c0.5-0.3,1.2-0.6,1.6-1c-0.6,0.2-1.2,0.4-1.7,0.7c-0.1-0.1-0.1-0.3-0.2-0.4c0.5-0.3,1.2-0.6,1.6-1.2
		c-0.6,0.2-1.2,0.4-1.7,0.7c-0.1-0.1-0.1-0.3-0.2-0.4c0.6-0.3,1.3-0.6,1.7-1.2c-0.6,0.2-1.3,0.4-1.8,0.8c-0.1-0.2-0.2-0.4-0.3-0.6
		c0.5-0.3,1-0.7,1.7-0.9c2.2-0.8,4.4-1.7,6.6-2.4c2.3-0.7,4.6-1.5,7-1.8c0.3-0.1,0.7-0.1,1.2-0.1c-0.1-0.2-0.3-0.3-0.5-0.4
		c-0.5,0-1.2,0.1-1.7,0.2c-0.5,0.1-1,0-1.6-0.2c0.9-0.1,1.9-0.2,2.8-0.3c-0.3-0.2-0.6-0.5-0.9-0.6c-0.5,0-1,0.2-1.5,0.3
		c-0.4,0-0.7-0.1-1.2-0.1c0.7-0.2,1.6-0.3,2.3-0.3c-0.2-0.2-0.5-0.4-0.8-0.5c-0.8,0-1.7,0.6-2.4,0.1c0.6-0.2,1.4-0.2,2-0.3
		c-0.2-0.2-0.5-0.3-0.7-0.4c-0.4,0.1-0.7,0.2-1.2,0.3c-0.3,0-0.6-0.1-0.9-0.2c0.5-0.2,1-0.2,1.7-0.3c-0.2-0.1-0.5-0.3-0.7-0.4
		c-0.3,0.1-0.6,0.2-1,0.3c-0.2,0-0.5-0.1-0.7-0.2c0.4-0.2,0.8-0.2,1.3-0.3c-0.3-0.1-0.6-0.4-1-0.2c-0.5,0.2-1,0.1-1.6-0.1
		c0.4-0.1,0.8-0.2,1.2-0.2c-0.3-0.1-0.5-0.3-0.8-0.2c-0.7,0.2-1.4,0-2.1-0.2c0.2-0.1,0.5-0.1,0.8-0.2c-0.2-0.1-0.4-0.1-0.5-0.2
		c-0.3,0.1-0.6,0.2-0.9,0.2c-1-0.1-2.1-0.2-3,0.1c0.6,0.1,1.3,0.2,1.9,0.3c0,0,0,0.1-0.1,0.2c0.6-0.1,1.3,0.3,1.9,0.5
		c-0.2,0.1-0.5,0.1-0.6,0.3c0.3,0,0.6-0.2,0.9-0.2c0.3,0.1,0.5,0.3,0.8,0.5c-0.3,0.1-0.6,0.2-1,0.3v0.1c0.4-0.1,0.8-0.2,1.3-0.3
		c0.2,0.1,0.4,0.3,0.6,0.4c-0.4,0.2-1,0.2-1.5,0.5c0.5-0.1,1.2-0.3,1.7-0.4c0.2,0.2,0.5,0.3,0.7,0.5c-0.4,0.1-0.9,0.3-1.4,0.4
		c-0.2,0.1-0.3,0.1-0.4,0.2c0.7-0.1,1.4-0.3,2.1-0.5c0.2,0.1,0.4,0.3,0.6,0.5c-0.6,0.2-1.3,0.4-1.9,0.6c-0.1,0.1-0.3,0.1-0.4,0.2
		c0.8-0.2,1.7-0.4,2.6-0.5c0.2,0.1,0.3,0.3,0.5,0.5c-0.7,0.2-1.5,0.4-2.2,0.7c-0.1,0.1-0.4,0.1-0.4,0.3c1-0.2,2-0.4,3-0.6
		c0.2,0.2,0.4,0.3,0.5,0.5c-3.3,0.9-6.5,2-9.7,3.4c-0.6,0.2-1.3,0.2-1.9,0.1c1.9-1.3,4-2.1,6.1-2.8c0.1,0,0.2-0.1,0.2-0.2
		c-0.1,0-0.3,0-0.4,0.1c-2.2,0.6-4.3,1.5-6.3,2.6c-0.3,0.2-0.6-0.1-0.9-0.3V68c2-1.3,4.1-2.3,6.4-3c0.3-0.1,0.7-0.1,0.9-0.4
		c-2.7,0.7-5.2,1.8-7.7,3.3c-0.2-0.2-0.3-0.4-0.5-0.6c0.1-0.1,0.3-0.2,0.5-0.3c2.2-1.4,4.5-2.4,6.9-3.3c0.1,0,0.3-0.1,0.4-0.2
		c-0.1,0-0.2,0-0.3,0.1c-2.7,0.8-5.3,1.9-7.8,3.5c-0.2-0.2-0.4-0.4-0.5-0.6c1.8-1.2,3.7-2.2,5.8-2.9c0.6-0.2,1.3-0.5,1.9-0.7
		c0.1-0.1,0.3-0.1,0.4-0.2c-0.4,0.1-0.8,0.2-1.3,0.4c-2.4,0.8-4.8,1.9-7,3.4c-0.2-0.2-0.3-0.3-0.5-0.5c2.4-1.6,5-2.8,7.8-3.8
		c0.2-0.1,0.4-0.1,0.5-0.3c-1.2,0.3-2.3,0.7-3.5,1.2c-1.8,0.7-3.5,1.6-5.1,2.5c-0.2-0.1-0.4-0.3-0.6-0.5c2.5-1.8,5.3-3.1,8.3-4.1
		c0,0-0.1-0.1-0.2-0.1c-2.5,0.7-4.9,1.8-7.1,3c-0.4,0.2-0.9,0.5-1.4,0.8c-0.2-0.2-0.4-0.3-0.6-0.5c2.3-1.7,4.9-2.9,7.5-4
		c-0.5-0.1-0.9,0.2-1.4,0.3c-2.3,0.8-4.5,2-6.6,3.4c-0.2-0.2-0.4-0.3-0.6-0.4c2-1.5,4.2-2.7,6.4-3.7c2.1-0.4,4.3-0.5,6.4-0.3
		s4.1,1,6,2C130.3,62.2,132.1,63.7,133.6,65.2z M114.1,89.3c-0.2,0.1-0.4,0.2-0.6,0.3c0-0.2-0.1-0.4-0.1-0.7
		c0.1-0.1,0.3-0.2,0.4-0.2c-0.1,0-0.1-0.1-0.2-0.1c-0.1,0-0.2,0.1-0.3,0.1c-0.1-0.2-0.1-0.5-0.2-0.7c0.3,0.1,0.5,0.4,0.8,0.4
		c0,0-0.1,0.1-0.1,0.2C113.9,88.7,114,88.9,114.1,89.3z M112.4,90.6c0,0.2,0.1,0.3,0.1,0.5c-0.1,0.1-0.3,0.1-0.4,0.2
		c0-0.2-0.1-0.4-0.1-0.5C112.1,90.7,112.3,90.6,112.4,90.6z M111.9,90.3c0-0.2,0-0.4-0.1-0.6c0.1,0,0.2,0,0.2,0
		c0,0.1,0.1,0.3,0.1,0.4S112,90.3,111.9,90.3z M112.6,91.6c0,0.1,0.1,0.3,0.1,0.4c-0.2,0.1-0.3,0.2-0.5,0.3c0-0.2,0-0.3,0-0.5
		C112.3,91.7,112.5,91.7,112.6,91.6z M112.7,90.4c0.2-0.1,0.4-0.3,0.6-0.4c0.1,0.2,0.1,0.4,0.1,0.6c-0.2,0.1-0.4,0.2-0.6,0.3
		C112.8,90.8,112.7,90.6,112.7,90.4z M112.3,92.7c0.2-0.1,0.3-0.2,0.5-0.3c0,0.2,0,0.3,0.1,0.5c-0.2,0.1-0.4,0.2-0.5,0.3
		C112.3,93.1,112.3,92.9,112.3,92.7z M112.8,91.5c0.2-0.1,0.5-0.3,0.7-0.4c0,0.2,0.1,0.3,0.1,0.5c-0.3,0.1-0.5,0.3-0.8,0.4
		C112.9,91.8,112.9,91.6,112.8,91.5z M113.8,91.9c0,0.2,0.1,0.4,0.1,0.6c-0.3,0.1-0.6,0.3-0.9,0.5c0-0.2,0-0.4,0-0.6
		C113.2,92.2,113.5,92,113.8,91.9z M113.7,90.9c0.2-0.1,0.5-0.3,0.7-0.4c0.1,0.2,0.1,0.4,0.2,0.6c-0.3,0.1-0.5,0.2-0.8,0.4
		C113.8,91.3,113.7,91,113.7,90.9z M114.6,90.3c0.2-0.2,0.4-0.3,0.6-0.4c0,0.2,0.2,0.4,0.2,0.6c-0.2,0.1-0.5,0.3-0.7,0.4
		C114.7,90.7,114.7,90.5,114.6,90.3z M114.6,90.1c-0.1-0.2-0.1-0.5-0.2-0.7c0.2-0.1,0.4-0.3,0.6-0.4c0.1,0.3,0.2,0.5,0.2,0.8
		C115,89.9,114.8,90,114.6,90.1z M114.3,89.2c-0.1-0.2-0.1-0.4-0.2-0.6c0.3,0.1,0.7,0,0.8,0.3C114.8,88.9,114.6,89,114.3,89.2z
		 M114.2,89.5c0.1,0.2,0.1,0.4,0.2,0.7c-0.2,0.1-0.5,0.2-0.7,0.3c0-0.2-0.1-0.4-0.1-0.6C113.8,89.8,114,89.6,114.2,89.5z
		 M113.2,89.7c-0.2,0.1-0.4,0.2-0.6,0.3c0-0.2-0.1-0.4-0.1-0.6c0.2-0.1,0.3-0.2,0.5-0.3C113.1,89.3,113.1,89.5,113.2,89.7z
		 M112.4,89c0-0.2-0.1-0.3-0.1-0.5c0.2-0.1,0.3-0.2,0.5-0.3c0.1,0.2,0.1,0.4,0.2,0.6C112.7,88.8,112.6,88.9,112.4,89z M112.1,88.1
		c-0.1-0.2-0.1-0.3-0.1-0.5c0.1-0.1,0.3-0.1,0.4-0.2c0.1,0.2,0.1,0.3,0.2,0.5C112.5,88,112.3,88.1,112.1,88.1z M111.6,86.6
		c0.1,0.1,0.2,0.2,0.3,0.3C111.8,87.4,111.7,86.9,111.6,86.6z M111.9,89.3c0,0-0.1,0.1-0.2,0.1c-0.1-0.2-0.1-0.4-0.1-0.6
		C111.7,88.8,111.8,89,111.9,89.3z M122.2,58.4c-0.2,0-0.5,0-0.7-0.1c0.1-1.3,0-2.6,0.2-3.9c0.1-0.4,0.5-0.6,0.9-0.7
		c0.3,0,0.8-0.1,1,0.1c-0.3,0.2-0.8,0.2-1.2,0.4c-0.2,0.2-0.3,0.5-0.3,0.7C122.2,56.2,122.2,57.3,122.2,58.4z M125.4,49.2
		c-0.3,0.6-0.6,1.2-1,1.7c-0.1,0-0.2-0.1-0.3-0.1c0.2-0.6,0.4-1.2,0.5-1.8C124.8,49.1,125.1,49.2,125.4,49.2z M123.5,48.9
		c0.2,0,0.5,0.1,0.7,0.1c-0.1,0.5-0.3,1.2-0.5,1.7c-0.2,0-0.3-0.1-0.5-0.1C123.4,50.1,123.4,49.5,123.5,48.9z M122.4,48.7
		c0.2,0,0.4,0,0.6,0.1c-0.1,0.5-0.1,1.2-0.2,1.7c-0.2,0-0.3-0.1-0.5-0.1C122.4,49.8,122.4,49.2,122.4,48.7z M122,48.7
		c0,0.5,0,0.9-0.1,1.5c-0.2-0.1-0.4-0.1-0.5-0.2c-0.1-0.4-0.1-0.9-0.1-1.4C121.6,48.7,121.9,48.6,122,48.7z M121.4,50.6
		c0.9,0.3,1.9,0.6,2.8,0.8c0,0.4-0.1,0.8-0.1,1.4c-0.9-0.3-1.9-0.6-2.8-0.8C121.4,51.4,121.4,51,121.4,50.6z M119.5,48.7
		c0.3,0.4,0.3,0.9,0,1.4C119.3,49.7,119.2,49.1,119.5,48.7z M118.5,48.9c0.4,0.3,0.4,0.8,0.1,1.3C118.4,49.9,118.4,49.3,118.5,48.9z
		 M117.8,49c0.4,0.2,0.3,0.9,0.2,1.4C117.6,50.2,117.6,49.5,117.8,49z M117.3,48.7c0,0.6,0,1.2,0,1.8l-0.1-0.1l-0.3-1.7
		C117,48.7,117.2,48.7,117.3,48.7z M121,50.7c0,0.3-0.1,0.6-0.1,0.9c-4.1,1.4-8.1,3.1-11.4,6c-3.5,2.7-6.1,6.5-7.5,10.6
		c-0.8,2.4-1.3,4.8-1.5,7.3c-0.1,2.4,0,4.8,0.6,7.2c0.1,0.3-0.1,0.6-0.4,0.7c-0.2-0.2-0.4-0.4-0.4-0.6c-0.7-2.1-0.8-4.4-0.8-6.6
		c0.1-4.8,1.5-9.7,4.1-13.8c2-3.1,4.8-5.9,8.1-7.9C114.2,52.8,117.6,51.5,121,50.7z M116.2,49c0.5,0.5,0.5,1.4,0.4,2
		C116.2,50.5,116.1,49.8,116.2,49z M115.6,49.2c0.5,0.6,0.5,1.5,0.4,2.2C115.6,50.7,115.4,50,115.6,49.2z M114.8,49.2
		c0.5,0.6,0.6,1.6,0.5,2.3C114.8,50.9,114.7,50.1,114.8,49.2z M113.8,49.6c0.6,0.6,0.6,1.5,0.6,2.3C114,51.1,113.8,50.3,113.8,49.6z
		 M112.9,49.8c0.6,0.6,0.7,1.6,0.7,2.4C113.2,51.4,112.9,50.6,112.9,49.8z M112.9,52.6c-0.5-0.7-0.8-1.6-0.8-2.5
		C112.7,50.7,112.9,51.6,112.9,52.6z M112.1,53c-0.5-0.7-0.9-1.6-0.9-2.5C111.8,51.1,112,52.1,112.1,53z M111.4,53.4
		c-0.1-0.1-0.2-0.1-0.2-0.2c-0.5-0.7-0.8-1.6-0.9-2.4C111,51.4,111.2,52.5,111.4,53.4z M110.7,54.1c-0.6-0.8-1.3-1.8-1.5-2.7
		C110,52,110.5,53,110.7,54.1z M109.9,54.5c-0.7-0.7-1.3-1.8-1.6-2.8C109.2,52.4,109.6,53.4,109.9,54.5z M107.5,51.8
		c0.4,0.8,0.9,1.7,1.3,2.5c-0.2,0-0.3-0.2-0.4-0.4c-0.4-0.6-0.9-1.3-1.4-1.9C107.2,52,107.4,51.9,107.5,51.8z M108.5,55.4
		c-0.8-0.7-1.5-1.6-1.8-2.6C107.6,53.3,108.1,54.4,108.5,55.4z M107.7,55.9c-0.8-0.6-1.6-1.6-1.9-2.6C106.8,54,107.3,55,107.7,55.9z
		 M107,56.7c-0.8-0.7-1.7-1.7-2.1-2.7C105.9,54.6,106.6,55.6,107,56.7z M105.1,55.6c0.4,0.5,0.8,1,1,1.7c-0.9-0.7-1.8-1.6-2.3-2.7
		C104.4,54.9,104.8,55.2,105.1,55.6z M105.5,57.7h-0.1c-0.8-0.6-1.7-1.5-2.2-2.4C104.3,55.8,104.9,56.9,105.5,57.7z M104.8,58.5
		c-0.9-0.6-2-1.4-2.5-2.3C103.3,56.7,104.3,57.4,104.8,58.5z M104.2,59.2c-1-0.5-2-1.4-2.7-2.3C102.6,57.4,103.5,58.3,104.2,59.2z
		 M103.7,60.1c-1.2-0.6-2.3-1.4-3-2.5C101.8,58.1,102.8,59.1,103.7,60.1z M99.7,58.1c0.7,0.5,1.5,1.2,2.1,1.7
		c0.2,0.2,0.4,0.3,0.5,0.5c-0.3-0.1-0.5-0.2-0.7-0.4c-0.7-0.4-1.6-0.9-2.3-1.4C99.4,58.5,99.6,58.4,99.7,58.1z M102.4,61.7
		c-0.8-0.3-1.7-0.7-2.4-1.3c-0.4-0.3-0.7-0.5-1-0.9C100.3,59.9,101.5,60.8,102.4,61.7z M100.2,61.4c0.5,0.3,1.2,0.7,1.6,1.2
		c-1.3-0.4-2.5-1-3.6-2C98.9,60.8,99.6,61.1,100.2,61.4z M100.3,63.1c0.3,0.2,0.5,0.3,0.8,0.6c-1.4-0.4-2.7-0.9-3.9-1.9
		C98.4,61.9,99.5,62.4,100.3,63.1z M100.6,64.6c-0.4,0-0.7-0.2-1.2-0.3c-1-0.3-2.1-0.7-2.9-1.5C98,63.1,99.4,63.8,100.6,64.6z
		 M100.3,65.7c-0.5,0-0.9-0.1-1.4-0.2c-1-0.3-2.1-0.6-2.9-1.3C97.5,64.3,98.9,65,100.3,65.7z M97.6,65.8c0.7,0.3,1.5,0.5,2.2,0.9
		c-1.4-0.1-2.7-0.5-3.9-1.2c-0.1-0.1-0.2-0.1-0.4-0.2C96.1,65.5,96.8,65.6,97.6,65.8z M94.1,66.3c1.7,0.3,3.4,0.7,5,1.4l0.1,0.1
		c-0.7,0.1-1.6-0.1-2.3-0.2c-1.2-0.2-2.2-0.2-3.4-0.2C93.8,66.9,93.9,66.6,94.1,66.3z M95.4,68.3c1.2,0.1,2.4,0.4,3.5,0.8
		c-0.8,0.1-1.6,0-2.4-0.1c-1-0.1-2-0.3-2.9-0.7C94.1,68.2,94.8,68.3,95.4,68.3z M98.6,70.3c-1.8,0.1-3.7-0.1-5.4-0.7
		C95.1,69.4,96.8,69.7,98.6,70.3z M97.3,71.1c0.4,0,0.7,0.1,1.2,0.2c-1.9,0.2-3.8,0.1-5.7-0.3C94.2,70.7,95.8,70.8,97.3,71.1z
		 M96.3,72.3c0.6,0.1,1.2,0.1,1.8,0.3c-1.9,0.3-3.9,0.3-5.8,0C93.6,72.1,95,72.2,96.3,72.3z M97.8,73.7c0.1,0,0.3,0,0.3,0.1
		c-1.5,0.2-2.8,0.4-4.3,0.3c-0.8,0-1.6,0-2.4-0.2C93.4,73.4,95.6,73.5,97.8,73.7z M97,74.8c0.3,0,0.6,0,1,0.1
		c-0.2,0.1-0.4,0.1-0.6,0.2c-2,0.3-4.1,0.5-6.2,0.4C93.1,74.9,95.1,74.8,97,74.8z M95.2,78.4c-1.5,0.3-2.9,0.5-4.5,0.5
		c2.3-0.8,4.7-1.3,7.2-1.3C97,77.9,96.1,78.2,95.2,78.4z M97.9,78.7c-2.4,0.9-4.8,1.6-7.4,1.9c2-0.9,4.2-1.5,6.4-1.8
		C97.2,78.7,97.6,78.7,97.9,78.7z M90.5,76.7c0.8-0.2,1.8-0.2,2.6-0.3c1.5-0.1,2.8,0,4.3,0.1c-2.4,0.4-4.8,0.9-7.1,1.5
		C90.3,77.6,90.4,77.1,90.5,76.7z M92.4,81.2c1.2-0.5,2.4-0.9,3.6-1.2c0.6-0.1,1.3-0.3,2-0.3c-1,0.4-2,0.8-3,1.2
		c-1.3,0.4-2.6,0.8-3.9,1.4c-0.3,0.1-0.6,0.3-0.8,0.5C90.7,81.9,91.6,81.6,92.4,81.2z M91.4,83.4c1.6-0.9,3.3-1.8,5-2.3
		c0.5-0.1,1-0.3,1.7-0.3c-0.7,0.2-1.4,0.6-2,0.9c-1.3,0.6-2.6,1.2-3.9,1.8c-0.8,0.4-1.7,0.8-2.3,1.6C90.1,84.3,90.8,83.8,91.4,83.4z
		 M92.9,84.3c1.3-0.9,2.7-1.7,4.2-2.2c0.3-0.1,0.7-0.2,1.2-0.2c-1.8,0.7-3.4,1.9-4.9,2.9c-1.3,0.9-2.6,1.9-3.5,3.3h-0.1
		C90.3,86.4,91.6,85.3,92.9,84.3z M89.9,94.8c-0.1-0.9-0.3-1.8-0.3-2.7c0.5-1.3,1.4-2.5,2.2-3.6c1.4-1.8,3-3.5,4.8-4.7
		c0.6-0.4,1.2-0.7,1.8-1c-0.1,0.2-0.3,0.3-0.5,0.5c-1.5,1.2-2.7,2.5-3.9,4c-1.4,1.7-2.5,3.5-3.4,5.4C90.4,93.4,90.1,94.1,89.9,94.8z
		 M91.3,97.1c-0.1,0.3-0.2,0.7-0.4,1c0-0.5,0.2-1,0.4-1.6c0.7-2.3,1.8-4.5,2.9-6.6c1-1.8,2.2-3.6,3.6-5.1c0.4-0.4,0.9-0.9,1.6-1.2
		c-0.9,0.8-1.7,1.8-2.3,2.7c-1.3,1.8-2.3,3.7-3.3,5.6C92.9,93.7,92,95.4,91.3,97.1z M94.1,107.9c-0.5-1-1-2-1.4-3
		c0.6-1.6,1.4-3.1,2.1-4.7c0.1-0.2,0.2-0.4,0.3-0.5C94.5,102.4,94.3,105.2,94.1,107.9z M96.5,100.6c0.7-4.6,2-9.1,3.5-13.5
		c0.2-0.7,0.4-1.4,0.7-2.1c0.3-0.1,0.5,0.2,0.3,0.4c-0.6,2.2-1.4,4.4-2,6.6c-1.4,4.2-2.4,8.6-2.9,13C96.2,103.5,96.4,102,96.5,100.6
		z M96.8,106.5c0.3-1.4,0.4-2.8,0.7-4.2c0.3-1.2,0.6-2.2,1-3.3c0,2-0.5,4.1-0.9,6c-0.2,0.9-0.6,1.8-1,2.7
		C96.7,107.4,96.7,107,96.8,106.5z M98.1,107.1c0.6-1.9,0.8-3.8,1.2-5.8c0.2,1.9,0.2,3.8-0.3,5.6c-0.4,1.5-1.3,2.7-2.2,3.9
		C97.2,109.5,97.8,108.3,98.1,107.1z M97.9,113.8c0.8,0.1,1.7,0.2,2.5,0.2c-0.1,0.1-0.2,0.3-0.2,0.4c-0.6,0-1.4-0.1-2-0.2
		C98.1,114.1,98,114,97.9,113.8z M99.6,115.9c-0.2-0.1-0.3-0.3-0.4-0.4c0.2,0,0.4,0,0.6,0C99.7,115.6,99.6,115.7,99.6,115.9z
		 M98.8,115c-0.1-0.1-0.2-0.2-0.3-0.3c0.5,0,0.9,0,1.5,0c-0.1,0.1-0.1,0.2-0.2,0.3C99.5,115,99.2,115,98.8,115z M100.3,116.8
		c-0.1-0.1-0.2-0.3-0.4-0.4c0.3-1.6,1.5-2.8,2.7-3.8c0.9-0.5,2-1,3.1-1c-0.3,0.3-0.5,0.5-0.8,0.8c-1.7,0.4-3,1.8-3.9,3.3
		C100.8,116,100.7,116.5,100.3,116.8z M101.1,117.6c0.7-0.7,1.4-1.6,2-2.3c0.2-0.2,0.4-0.5,0.6-0.6c-0.7,1.2-1.7,2.1-2.4,3.1
		C101.4,117.8,101.2,117.6,101.1,117.6z M101.9,118.3c0.7-0.8,1.5-1.7,2.2-2.5c-0.1,0.3-0.3,0.6-0.5,0.8c-0.5,0.6-0.9,1.3-1.5,1.9
		C102,118.4,101.9,118.3,101.9,118.3z M102.4,118.8c0.7-0.8,1.5-1.7,2.1-2.5c0.1-0.1,0.1-0.1,0.2-0.1c-0.6,0.9-1.4,1.9-2.1,2.8
		C102.6,118.9,102.5,118.9,102.4,118.8z M103.1,119.4c0.8-0.9,1.6-1.9,2.3-2.7c0,0.2-0.2,0.4-0.3,0.6c-0.5,0.7-1.2,1.5-1.7,2.1
		C103.5,119.6,103.2,119.5,103.1,119.4z M103.9,120c0.7-0.8,1.4-1.7,2.1-2.5c0.1-0.1,0.2-0.1,0.3-0.2c-0.6,1-1.5,1.9-2.2,2.8
		C104,120.1,104,120.1,103.9,120z M104.6,120.5c0.6-0.7,1.4-1.6,2-2.4c0.1-0.1,0.2-0.2,0.3-0.2c-0.6,0.9-1.4,1.9-2.1,2.7
		C104.7,120.6,104.6,120.6,104.6,120.5z M105.3,121.1c0.7-0.9,1.5-1.8,2.3-2.7c0,0.1-0.1,0.2-0.1,0.3c-0.6,0.8-1.3,1.7-1.9,2.5
		C105.5,121.2,105.4,121.1,105.3,121.1z M106.2,121.5c0.6-0.7,1.3-1.5,1.9-2.3c0.1-0.2,0.3-0.3,0.4-0.4c-0.1,0.2-0.2,0.3-0.3,0.5
		c-0.6,0.8-1.3,1.7-1.9,2.4C106.3,121.6,106.2,121.5,106.2,121.5z M106.9,122c0.7-0.9,1.6-1.8,2.3-2.7c0.1-0.1,0.2-0.2,0.3-0.2
		c-0.7,1-1.6,2.1-2.3,3C107.1,122.2,107,122,106.9,122z M107.7,122.4c0.9-1,1.8-2.2,2.7-3.1c0,0.1-0.1,0.3-0.2,0.4
		c-0.7,1-1.6,2-2.3,3C107.9,122.6,107.6,122.6,107.7,122.4z M108.7,122.8c0.8-1,1.8-2,2.6-3c0.1-0.1,0.2-0.3,0.4-0.3
		c-0.8,1.3-1.9,2.4-2.8,3.7C108.8,123,108.5,123,108.7,122.8z M109.4,123.4c1-1.3,2.1-2.5,3.3-3.8v0.1c-0.9,1.3-2,2.5-2.9,3.8
		C109.6,123.4,109.5,123.4,109.4,123.4z M110.3,123.7c1-1.3,2.1-2.5,3.1-3.7c0.1-0.1,0.2-0.2,0.3-0.2c-0.1,0.1-0.1,0.3-0.2,0.4
		c-0.9,1.3-1.9,2.5-2.9,3.7C110.6,123.8,110.4,123.7,110.3,123.7z M111.2,124c1-1.4,2.2-2.7,3.4-4c0.1-0.1,0.2-0.3,0.4-0.4
		c-1.2,1.6-2.3,3-3.5,4.5C111.4,124.1,111.2,124.1,111.2,124z M112.1,124.4c1.3-1.5,2.4-2.9,3.7-4.3c0.1-0.1,0.2-0.4,0.5-0.4
		c-1.3,1.7-2.5,3.3-3.8,4.8C112.4,124.5,112.3,124.5,112.1,124.4z M113.1,124.7c1.2-1.4,2.4-2.8,3.6-4.2c0.3-0.3,0.5-0.7,0.9-1
		c-0.1,0.3-0.4,0.5-0.6,0.8c-1.2,1.6-2.4,3-3.7,4.6C113.3,124.8,113.1,124.8,113.1,124.7z M114,125c1.3-1.6,2.6-3,3.9-4.6
		c0.3-0.4,0.6-0.8,1-1.2c-0.1,0.3-0.4,0.5-0.6,0.8c-1.3,1.7-2.6,3.4-4,5C114.2,125,114.1,125,114,125z M115,125.2
		c1.6-1.9,3.1-3.8,4.8-5.8c0.1-0.1,0.2-0.3,0.4-0.3c-1.6,2.1-3.1,4.1-4.8,6.1C115.3,125.2,115.1,125.2,115,125.2z M122.9,121.2
		c0.3,0.1,0.6,0,0.8-0.1c-0.2,0.2-0.4,0.4-0.6,0.4c-0.9,0.2-1.9-0.5-2.8-0.3c-0.1,0.1-0.2,0.3-0.3,0.4c0.7,0,1.5,0.3,2.2,0.6
		c0.4,0.1,0.8,0,1.2-0.1c-0.2,0.2-0.5,0.4-0.8,0.5c-1,0.1-2-0.5-3-0.2c-0.2,0.1-0.3,0.3-0.4,0.5c0.8,0,1.6,0.2,2.4,0.4
		c0.5,0.1,1,0.1,1.6-0.1c-0.4,0.5-1,0.6-1.7,0.6c-0.9-0.1-1.9-0.3-2.8-0.1c-0.2,0.2-0.4,0.5-0.5,0.7c1.2-0.2,2.2,0.3,3.4,0.4
		c0.4,0,0.7-0.1,1-0.2c-0.3,0.4-0.9,0.6-1.5,0.6c-0.9,0-2-0.2-2.9-0.1c-0.3,0-0.6,0-0.8,0.3c-0.4,0-0.7-0.1-1-0.1
		c3.9-4.8,7.8-9.5,11.5-14.4c0.7,0.1,1.2,0.8,1.4,1.5c0.1,0.3,0.3,0.3,0.6,0.3c-0.1,0.2-0.4,0.3-0.6,0.2c-0.4-0.2-0.5-0.6-0.8-0.9
		c-0.2-0.3-0.5-0.4-0.8-0.5c-0.1,0.1-0.2,0.3-0.3,0.4c0.6,0.2,1,0.8,1.4,1.5c0.1,0.3,0.4,0.3,0.6,0.3c-0.3,0.3-0.8,0.2-1-0.1
		c-0.3-0.4-0.7-0.9-1.4-1c-0.1,0.1-0.2,0.3-0.3,0.4c0.3,0.1,0.5,0.2,0.7,0.4c0.3,0.3,0.4,0.7,0.7,1c0.2,0.1,0.4,0.1,0.5,0.1
		c-0.2,0.2-0.6,0.3-0.8,0.1c-0.5-0.4-0.8-1-1.6-1.2c-0.1,0.1-0.2,0.3-0.3,0.4c0.6,0.1,1,0.6,1.4,1.2c0.1,0.2,0.4,0.2,0.7,0.2
		c-0.2,0.4-0.8,0.3-1,0c-0.4-0.3-0.8-0.7-1.4-0.7c-0.1,0.1-0.2,0.2-0.3,0.4c0.3,0.1,0.5,0.2,0.8,0.4c0.2,0.2,0.4,0.4,0.6,0.6
		c0.2,0.1,0.4,0.1,0.6,0.1c-0.2,0.2-0.4,0.3-0.7,0.3s-0.6-0.3-0.8-0.4c-0.3-0.2-0.6-0.3-0.9-0.3c-0.2,0.1-0.2,0.3-0.3,0.4
		c0.5,0.1,0.9,0.4,1.4,0.7c0.2,0.2,0.6,0.2,0.9,0.2c-0.3,0.3-0.7,0.4-1,0.2c-0.5-0.2-1-0.5-1.6-0.6c-0.1,0.1-0.2,0.3-0.3,0.4
		c0.5,0,0.9,0.4,1.4,0.7c0.2,0.2,0.5,0.2,0.8,0.2c-0.3,0.3-0.8,0.4-1.3,0.2s-0.9-0.4-1.5-0.5c-0.1,0.1-0.2,0.3-0.3,0.4
		c0.9,0,1.5,1,2.4,0.8c-0.3,0.3-0.7,0.4-1.2,0.3c-0.5-0.2-1.2-0.4-1.8-0.4c-0.1,0.2-0.2,0.3-0.3,0.4c0.6,0.1,1.3,0.4,1.9,0.6
		c0.3,0.1,0.6,0.1,0.8,0c-0.1,0.3-0.5,0.4-0.7,0.4c-0.8,0-1.7-0.5-2.5-0.3c-0.1,0.1-0.1,0.2-0.2,0.3
		C121.6,120.6,122.2,121,122.9,121.2z M126.7,120.5c-0.4,0.1-0.7,0.3-1,0.5c0.4-0.6,1.3-0.9,2-1c1.2-0.3,2.5-0.1,3.6,0.4
		C129.7,120.3,128.2,120.2,126.7,120.5z M131.2,121.5c-2.2,0-4.5,0.2-6.5,1.5c0.6-0.7,1.5-1.3,2.4-1.6
		C128.5,121,130,121,131.2,121.5z M128.6,118.9c-0.7,0-1.5,0.1-2.1,0.5c0.5-0.7,1.6-0.9,2.4-0.9c0.7,0,1.6,0.2,2.2,0.7
		C130.3,119,129.4,118.9,128.6,118.9z M124.3,124.6c0.7-0.8,1.8-1.4,2.8-1.7c1.4-0.5,2.8-0.6,4.2-0.2
		C128.9,122.8,126.5,123.4,124.3,124.6z M127.2,118c0.3-0.6,1-0.8,1.8-0.9c0.9-0.1,2,0.3,2.4,1.2C130.3,117.4,128.6,117.2,127.2,118
		z M128.1,116.7c0.6-0.8,2-1.2,2.8-0.5c0.3,0.2,0.6,0.6,0.7,1C130.7,116.2,129.2,116.2,128.1,116.7z M131.9,116.3
		c-0.2-0.3-0.4-0.7-0.8-0.9c-0.6-0.3-1.5-0.2-2.1,0c0.5-0.6,1.6-0.9,2.3-0.5C131.8,115.1,132.1,115.8,131.9,116.3z M135.6,120
		c-0.7,0.2-1.5,0.3-2.1,0.6c-0.4,0.2-0.8,0.5-1.3,0.7c0.5-0.6,1.2-1.2,1.9-1.5c0.7-0.3,1.6-0.4,2.4-0.6
		C136.2,119.4,135.9,119.7,135.6,120z M137.4,117.8c-1.4,0.5-2.8,0.6-4.1,1.5c-0.4,0.2-0.7,0.5-1.2,0.8c0.7-1.2,2-1.9,3.3-2.3
		c1-0.3,2.3-0.4,3.3-1c0.3-0.2,0.6-0.5,0.8-0.8C139.2,116.9,138.3,117.4,137.4,117.8z M138.6,115.9c-1.3,0.8-2.8,0.8-4.2,1.5
		c-0.8,0.3-1.6,0.8-2.2,1.4c0.7-1.2,1.9-2,3.3-2.3c1-0.3,2.3-0.3,3.3-0.9c0.4-0.2,0.7-0.6,1-0.9C139.4,115,139.1,115.6,138.6,115.9z
		 M142,113c-0.4,0.2-0.8,0.4-1.2,0.7c0.4-0.7,1.2-1.3,2-1.6C142.5,112.5,142.4,112.9,142,113z M143.4,111.4
		c-0.9,0.3-1.9,0.6-2.7,1.4c0.1-0.4,0.4-0.6,0.7-0.9c0.6-0.5,1.5-0.8,2.3-1C143.6,110.9,143.5,111.2,143.4,111.4z M144.2,110
		c-1.3,0.4-2.6,0.7-3.6,1.7c0.2-0.5,0.7-0.8,1.2-1.2c0.8-0.5,1.9-0.8,2.8-1.2C144.4,109.6,144.3,109.8,144.2,110z M144.8,108.8
		c-1.3,0.3-2.5,0.6-3.6,1.3c-0.3,0.2-0.6,0.4-0.8,0.7v-0.1c0.6-0.9,1.7-1.5,2.7-1.9c0.7-0.2,1.4-0.4,2.1-0.6
		C145.1,108.2,145,108.5,144.8,108.8z M145.6,107.4c-1,0.3-2,0.6-3,0.9c-0.8,0.3-1.7,0.6-2.4,1.3c0.2-0.5,0.7-0.7,1.2-1
		c1.5-0.8,3-1.4,4.6-1.9C145.8,107,145.7,107.2,145.6,107.4z M146.1,106.1c-1.2,0.3-2.3,0.7-3.5,1.2c-1,0.4-2,0.8-2.8,1.6
		c0.3-0.5,0.8-0.9,1.4-1.3c1.2-0.6,2.3-1.2,3.6-1.6c0.5-0.2,1-0.3,1.6-0.4C146.3,105.7,146.2,105.9,146.1,106.1z M146.9,104.3
		c-1.4,0.6-2.8,0.9-4.2,0.8c1.2-0.1,2.3-0.3,3.4-0.9c-1.4,0.4-2.8,0.3-4.3,0.3c0.2-0.2,0.5-0.1,0.8-0.2c0.9-0.1,1.9-0.2,2.7-0.7
		c-1.2,0.2-2.3,0.2-3.5,0.1c0,0,0-0.1,0-0.2c1-0.1,2.1-0.2,3-0.6c-1.3,0-2.5,0.1-3.7-0.1c-0.2-0.1-0.6-0.2-0.6-0.6
		c0.3-0.4,0.7,0.1,1,0.1c0.7,0.1,1.6-0.2,2.1-0.7c1.3,0.4,2.5,0.9,3.8,1.4C147.2,103.4,147.1,103.9,146.9,104.3z M147.6,102.5
		c-0.2-0.1-0.4-0.1-0.6-0.2c0.3-0.1,0.5-0.3,0.8-0.4C147.8,102,147.7,102.2,147.6,102.5z M148,101.3c-0.4,0.3-0.8,0.5-1.3,0.8
		c-0.2,0-0.3-0.1-0.4-0.1c0.6-0.3,1.3-0.7,1.9-1C148.1,101.1,148,101.2,148,101.3z M148.3,100.4c-0.7,0.6-1.6,1-2.4,1.6
		c-0.3,0-0.5-0.2-0.7-0.2c1.3-0.5,2.5-1.2,3.5-2.2C148.4,99.7,148.4,100.1,148.3,100.4z"/>
	<path class="st0" d="M126.2,83.6c0.2,0,0.4-0.1,0.5-0.3C126.5,83.4,126.4,83.5,126.2,83.6z"/>
	<path class="st0" d="M125.9,86c0.3-0.2,0.6-0.4,0.9-0.6c-0.3,0.1-0.6,0.3-0.9,0.4C126,85.9,125.9,85.9,125.9,86z"/>
	<path class="st0" d="M125.7,88.2c0.3-0.1,0.5-0.3,0.7-0.5C126.2,87.9,125.8,87.9,125.7,88.2z"/>
	<path class="st0" d="M117.1,98.3c0.2-0.1,0.4-0.3,0.6-0.4c-0.2,0.1-0.4,0.1-0.6,0.2C117.1,98.2,117.1,98.3,117.1,98.3z"/>
	<path class="st0" d="M117.4,99.1c0.1,0.2,0.6-0.2,0.3-0.2C117.5,98.9,117.4,99,117.4,99.1z"/>
	<path class="st0" d="M118,99.7c-0.1,0-0.2,0.1-0.3,0.2C117.8,100.2,118.3,99.7,118,99.7z"/>
	<path class="st0" d="M118,104.1c0.3-0.1,0.6-0.3,0.7-0.5C118.5,103.7,118.1,103.8,118,104.1z"/>
	<path class="st0" d="M120.5,105.8c0.2-0.1,0.4-0.2,0.6-0.4C121,105.5,120.6,105.6,120.5,105.8z"/>
	<path class="st0" d="M110.8,65.6c-0.6,0-1.3,0.3-1.5,0.8C109.9,66.4,110.5,66,110.8,65.6z"/>
	<path class="st0" d="M114,73.2c-0.7,0.1-1.6,0.4-2,1C112.8,74.3,113.5,73.9,114,73.2z"/>
	<path class="st0" d="M110,79.7c0.1-0.1,0-0.3,0-0.5c-0.2-0.6-0.4-1.3-0.6-1.8c-0.1,0-0.2,0-0.2,0v0.1c0.1,0.6,0.4,1.2,0.6,1.8
		C109.7,79.5,109.7,79.9,110,79.7z"/>
	<path class="st0" d="M109.1,80.2c0.1,0,0.2,0,0.3,0c0-0.6-0.3-1.3-0.5-1.9c-0.1,0-0.2,0-0.2,0c-0.1,0.2,0,0.4,0.1,0.6
		C108.8,79.4,108.9,79.9,109.1,80.2z"/>
	<path class="st0" d="M128.6,66.9c1.5-0.4,3-0.6,4.6-0.6c0.1,0.1,0.1,0.3,0.2,0.4c-1.5,0.1-3,0.4-4.4,1c1.6-0.4,3.1-0.6,4.8-0.5
		c0.1,0.1,0.1,0.2,0.2,0.3c-1.6,0.1-3.3,0.3-4.7,1c1.6-0.4,3.3-0.6,4.9-0.4c0.2,0,0.3,0.2,0.4,0.3c-1.7,0-3.4,0.2-4.9,0.9
		c1.7-0.4,3.4-0.4,5-0.2c0.2,0,0.4,0,0.5,0.3c-1.7-0.1-3.5,0.1-5,0.7c0,0,0,0,0,0.1c1.7-0.4,3.5-0.4,5.2,0.1
		c0.3,0.1,0.5,0.4,0.6,0.7c0,0,0,0,0.1,0c-0.1-0.2-0.1-0.5-0.2-0.7c-0.5-1.9-1.7-3.6-3.3-4.9c0,0.1,0.1,0.2,0.1,0.3
		C131.4,66,130,66.3,128.6,66.9z"/>
	<path class="st0" d="M111.3,66.3c-0.6,0.1-1.4,0.3-1.7,0.9C110.3,67.3,110.9,66.8,111.3,66.3z"/>
	<path class="st0" d="M115.9,103c-0.2,0.1-0.4,0.2-0.6,0.3c0,0.1,0.1,0.2,0.1,0.3c0.2-0.1,0.4-0.2,0.6-0.3
		C116,103.2,115.9,103.1,115.9,103z"/>
	<path class="st0" d="M111.7,67.2c-0.7,0.1-1.5,0.4-1.8,1C110.7,68.2,111.3,67.7,111.7,67.2z"/>
	<path class="st0" d="M112.8,69.7c-0.7,0.1-1.6,0.4-2,1.2C111.5,70.7,112.3,70.3,112.8,69.7z"/>
	<path class="st0" d="M113.1,70.6c-0.7,0.1-1.6,0.4-2.1,1.2C111.8,71.7,112.6,71.2,113.1,70.6z"/>
	<path class="st0" d="M124.8,84.4c0.4-0.1,0.8-0.3,1.2-0.6c-0.3,0.1-0.5,0.2-0.7,0.3C125,84.2,124.8,84.2,124.8,84.4z"/>
	<path class="st0" d="M132.1,90.8c0-0.1,0.1-0.3,0-0.4c-0.3,0-0.5,0.3-0.6,0.6C131.6,91,131.8,90.9,132.1,90.8z"/>
	<path class="st0" d="M134.6,92.6c0.1-0.5,0.3-1.2,0.3-1.7c-0.4,0-0.7,0-1.2,0.1c-0.4,0.1-0.8,0.4-1,0.8
		C133.4,91.8,134,92.2,134.6,92.6z"/>
	<path class="st0" d="M112.1,68c-0.7,0.1-1.6,0.4-1.9,1C111,68.9,111.7,68.5,112.1,68z"/>
	<path class="st0" d="M114.7,79.3c0.6-0.1,1.4-0.4,1.7-1c-0.2,0.1-0.3,0.2-0.5,0.2C115.3,78.6,114.9,78.9,114.7,79.3z"/>
	<path class="st0" d="M123.1,87.3c-0.3,0.1-0.6,0.3-0.9,0.4c0.1,0.1,0.1,0.2,0.2,0.3c0.3-0.2,0.5-0.3,0.8-0.4
		C123.3,87.5,123.1,87.4,123.1,87.3z"/>
	<path class="st0" d="M112.4,68.9c-0.7,0-1.5,0.3-1.8,0.9C111.2,69.9,111.8,69.5,112.4,68.9z"/>
	<path class="st0" d="M113.7,72.3c-0.7,0.1-1.6,0.5-2.1,1.2C112.5,73.3,113.3,72.9,113.7,72.3z"/>
	<path class="st0" d="M124.4,75c-0.7,0.1-1.3,0.5-1.7,1C123.4,75.8,124.1,75.6,124.4,75z"/>
	<path class="st0" d="M111.2,78.4c0.1,0,0.2-0.1,0.2-0.2c-0.2-0.8-0.5-1.7-0.8-2.5c-0.1,0-0.4,0-0.3,0.2
		C110.6,76.7,110.8,77.5,111.2,78.4z"/>
	<path class="st0" d="M110.7,78.7c-0.2-0.6-0.4-1.3-0.6-1.9c0-0.1-0.2-0.3-0.3-0.1l-0.1,0.1c0.2,0.7,0.4,1.4,0.7,2.1
		C110.4,79,110.8,78.9,110.7,78.7z"/>
	<path class="st0" d="M132.7,77.6c-0.6,0.1-1.3,0.5-1.7,1C131.7,78.6,132.5,78.4,132.7,77.6z"/>
	<path class="st0" d="M122.7,84.3c-0.3,0.2-0.7,0.4-1,0.6c-1.5,0.7-2.9,1.6-4.4,2.4c-0.2,0.1-0.5,0.3-0.2,0.5
		c1.6-0.8,3.1-1.8,4.7-2.6c0,0,0-0.1-0.1-0.2c0,0,0.1,0.1,0.2,0.1c0.3-0.2,0.7-0.4,0.9-0.6C122.8,84.4,122.7,84.3,122.7,84.3z"/>
	<path class="st0" d="M123.1,89.5c-0.2,0.1-0.4,0.2-0.6,0.3c0.1,0.1,0.1,0.2,0.2,0.3c0.2-0.1,0.3-0.2,0.5-0.3
		C123.3,89.6,123.1,89.5,123.1,89.5z"/>
	<path class="st0" d="M126.3,89.9c-0.3,0.1-0.5,0.2-0.8,0.3l0.1,0.1C125.9,90.3,126.1,90.1,126.3,89.9z"/>
	<path class="st0" d="M118,101.8c-0.3,0.1-0.5,0.3-0.8,0.4c0,0,0,0.1,0.1,0.1C117.6,102.4,117.8,102.1,118,101.8
		C118,101.9,118,101.9,118,101.8z"/>
	<path class="st0" d="M113.5,71.5c-0.7,0.2-1.6,0.4-2,1.2C112.3,72.5,113,72.1,113.5,71.5z"/>
	<path class="st0" d="M112.4,75.2c0.8-0.1,1.6-0.6,2.2-1.2C113.7,74.2,112.8,74.5,112.4,75.2z"/>
	<path class="st0" d="M114.8,74.9c-0.8,0.1-1.7,0.5-2.3,1.3C113.4,76.1,114.1,75.5,114.8,74.9z"/>
	<path class="st0" d="M115.2,75.8c-0.8,0.2-1.8,0.5-2.3,1.4C113.8,76.9,114.7,76.5,115.2,75.8z"/>
	<path class="st0" d="M124.8,75.6c-0.7,0-1.3,0.5-1.7,1C123.8,76.6,124.5,76.3,124.8,75.6z"/>
	<path class="st0" d="M113.3,77.9c0.8-0.1,1.6-0.6,2.2-1.3C114.7,76.8,113.8,77.2,113.3,77.9z"/>
	<path class="st0" d="M131.4,79.5c0.6-0.1,1.4-0.4,1.7-1C132.5,78.6,131.9,79,131.4,79.5z"/>
	<path class="st0" d="M132.3,76.9c-0.7,0-1.4,0.4-1.7,1C131.3,77.8,132.1,77.5,132.3,76.9z"/>
	<path class="st0" d="M113.9,78.6c0.8-0.1,1.6-0.6,2.1-1.2C115.2,77.5,114.4,77.9,113.9,78.6z"/>
	<path class="st0" d="M115.1,100.3c0,0.1,0.1,0.2,0.1,0.3c0.3-0.2,0.5-0.3,0.8-0.5c0-0.1,0-0.2-0.1-0.3
		C115.7,99.9,115.4,100.1,115.1,100.3z"/>
	<path class="st0" d="M115.3,101.2c-0.2,0.1-0.4,0.2-0.6,0.3c0,0.1,0.1,0.2,0.1,0.3c0.2-0.1,0.4-0.2,0.6-0.4
		C115.3,101.4,115.3,101.3,115.3,101.2z"/>
	<path class="st0" d="M115.6,102.1c-0.2,0.1-0.4,0.2-0.6,0.3c0,0.1,0.1,0.2,0.1,0.3c0.2-0.1,0.4-0.2,0.6-0.4
		C115.7,102.2,115.6,102.1,115.6,102.1z"/>
	<path class="st0" d="M120,107.3c0.2-0.1,0.4-0.2,0.5-0.4c-0.2-0.4-0.5,0-0.7,0.1C119.9,107.2,120,107.2,120,107.3z"/>
	<path class="st0" d="M124,82.9c0.3-0.2,0.7-0.3,0.9-0.6c-0.4,0.2-0.8,0.4-1.2,0.6C123.7,83,123.9,83,124,82.9z"/>
	<path class="st0" d="M123.4,83.3c0.1-0.1,0.3-0.2,0.3-0.3c-0.5,0.1-0.8,0.4-1.4,0.6c0,0.1,0.1,0.2,0.2,0.2
		C122.7,83.6,123,83.4,123.4,83.3z"/>
	<path class="st0" d="M124.4,83.7c0.3-0.2,0.6-0.4,0.9-0.5v-0.1C125,83.3,124.6,83.5,124.4,83.7C124.3,83.6,124.3,83.7,124.4,83.7z"
		/>
	<path class="st0" d="M117.6,86.4c1.6-0.9,3.3-1.8,4.8-2.7c-0.1,0-0.2-0.1-0.2-0.1c-1.6,0.8-3.1,1.7-4.6,2.5
		c-0.2,0.2-0.5,0.3-0.6,0.5C117.1,87,117.4,86.5,117.6,86.4z"/>
	<path class="st0" d="M124,83.7c-0.4,0.1-0.7,0.4-1.2,0.6c0,0,0.1,0.1,0.2,0.2c0.3-0.2,0.7-0.4,1-0.6
		C124.1,83.8,124.1,83.8,124,83.7L124,83.7z"/>
	<path class="st0" d="M124.5,84.8c0.2,0,0-0.3-0.1-0.2c-0.3,0.2-0.7,0.3-1,0.6c0.1,0,0.2,0.1,0.2,0.1
		C123.9,85.1,124.2,84.9,124.5,84.8z"/>
	<path class="st0" d="M125.4,85.2c0.3-0.2,0.7-0.3,0.9-0.6C126,84.7,125.7,84.9,125.4,85.2C125.4,85.1,125.4,85.2,125.4,85.2z"/>
	<path class="st0" d="M123.3,85.1c-0.3,0.2-0.7,0.3-1,0.5c0,0.1,0.1,0.2,0.2,0.2c0.3-0.1,0.6-0.3,0.9-0.5
		C123.4,85.3,123.3,85.2,123.3,85.1z"/>
	<path class="st0" d="M124.8,85.3c-0.3,0.1-0.6,0.3-0.9,0.5c0,0,0.1,0.1,0.1,0.2c0.3-0.1,0.6-0.3,0.9-0.5
		C125.1,85.3,124.9,85.3,124.8,85.3z"/>
	<path class="st0" d="M122.9,86.6c0.3-0.2,0.6-0.3,0.9-0.5c0,0-0.1-0.1-0.1-0.2c-0.3,0.1-0.5,0.2-0.8,0.4
		C122.7,86.4,122.9,86.5,122.9,86.6z"/>
	<path class="st0" d="M124.5,86.6c0,0,0.1,0.1,0.2,0.1c0.3-0.2,0.6-0.4,0.9-0.5l-0.1-0.1C125.1,86.2,124.8,86.4,124.5,86.6z"/>
	<path class="st0" d="M124.3,87v-0.1c-0.3-0.1-0.5,0.2-0.8,0.3c-0.2,0,0,0.2,0,0.3C123.8,87.3,124.1,87.2,124.3,87z"/>
	<path class="st0" d="M125,87.4l0.1,0.1c0.3-0.2,0.6-0.3,0.9-0.6C125.7,87,125.4,87.2,125,87.4z"/>
	<path class="st0" d="M124.1,88.1c0.2-0.2,0.5-0.3,0.7-0.5v-0.1c-0.3,0-0.5,0.2-0.8,0.4C123.9,88,124,88.1,124.1,88.1z"/>
	<path class="st0" d="M121.4,88.2c0.1,0.1,0.2,0.2,0.3,0.2c0.2-0.1,0.4-0.2,0.6-0.4c0-0.1-0.1-0.2-0.2-0.2
		C121.9,87.9,121.7,88.1,121.4,88.2z"/>
	<path class="st0" d="M123.8,88.3c-0.1-0.1-0.1-0.1-0.2-0.2c-0.3,0.1-0.5,0.3-0.8,0.4c0.1,0.1,0.1,0.2,0.2,0.2
		C123.3,88.6,123.5,88.4,123.8,88.3z"/>
	<path class="st0" d="M124.6,88.9c0.2-0.2,0.6-0.3,0.7-0.6c-0.3,0.1-0.5,0.2-0.8,0.4C124.5,88.7,124.5,88.8,124.6,88.9z"/>
	<path class="st0" d="M123.5,89.6c0.2-0.1,0.5-0.3,0.7-0.4c0,0-0.1-0.1-0.1-0.2c-0.3,0.1-0.5,0.2-0.7,0.3
		C123.4,89.4,123.5,89.5,123.5,89.6z"/>
	<path class="st0" d="M125.8,89.2c-0.3,0.1-0.5,0.2-0.8,0.4c0,0,0,0.1,0.1,0.1C125.4,89.6,125.7,89.4,125.8,89.2z"/>
	<path class="st0" d="M124.7,89.8c-0.3-0.2-0.6,0.1-0.8,0.2c0.1,0.1,0.1,0.1,0.2,0.2C124.3,90.1,124.5,90,124.7,89.8z"/>
	<path class="st0" d="M123.6,90.2c-0.2,0.1-0.3,0.2-0.5,0.3c0.1,0.1,0.1,0.2,0.2,0.3c0.2-0.1,0.3-0.2,0.5-0.3
		C123.7,90.4,123.7,90.3,123.6,90.2z"/>
	<path class="st0" d="M125.1,90.7c0.1-0.1,0-0.2-0.1-0.2c-0.2,0.1-0.4,0.2-0.6,0.3c0.1,0.1,0.1,0.1,0.2,0.2
		C124.8,90.9,124.9,90.8,125.1,90.7z"/>
	<path class="st0" d="M126.7,90.7c-0.2,0.1-0.6,0.2-0.7,0.4C126.3,91,126.6,90.9,126.7,90.7z"/>
	<path class="st0" d="M124.1,91c-0.2,0.1-0.3,0.1-0.5,0.2c0.1,0.1,0.1,0.2,0.2,0.3c0.1-0.1,0.3-0.2,0.4-0.2
		C124.2,91.1,124.1,91,124.1,91z"/>
	<path class="st0" d="M125,91.6c0,0.1,0,0.2,0.1,0.2c0.2,0,0.4-0.2,0.6-0.3C125.6,91.1,125.2,91.5,125,91.6z"/>
	<path class="st0" d="M126.6,91.9c0.2,0,0.5-0.1,0.6-0.4C126.9,91.6,126.7,91.7,126.6,91.9z"/>
	<path class="st0" d="M124.1,92c0,0.1,0.1,0.2,0.1,0.2c0.1,0,0.3-0.1,0.4-0.1c0-0.1-0.1-0.2-0.1-0.3C124.4,91.9,124.3,91.9,124.1,92
		z"/>
	<path class="st0" d="M125.4,92.3c0.2,0.3,0.4,0.1,0.7-0.1c0-0.1-0.1-0.1-0.1-0.2C125.9,92.1,125.7,92.2,125.4,92.3z"/>
	<path class="st0" d="M127.2,92.7c0.2-0.1,0.4-0.2,0.4-0.4c-0.2,0.1-0.4,0.2-0.6,0.2C127.1,92.6,127.2,92.6,127.2,92.7z"/>
	<path class="st0" d="M117,98.4l-0.1-0.1c-0.3,0.1-0.6,0.3-0.9,0.4c0,0.1,0,0.2,0,0.3C116.2,98.8,116.5,98.6,117,98.4z"/>
	<path class="st0" d="M116.2,99.9c0.3-0.2,0.8-0.3,0.9-0.7c-0.3,0.1-0.6,0.3-0.9,0.5C116.2,99.7,116.2,99.8,116.2,99.9z"/>
	<path class="st0" d="M116.5,100.8c0.3-0.2,0.7-0.3,0.9-0.7c-0.3,0.1-0.6,0.3-0.9,0.4C116.5,100.6,116.5,100.7,116.5,100.8z"/>
	<path class="st0" d="M116.3,100.9c0.1-0.1,0-0.3-0.1-0.2c-0.3,0.1-0.5,0.3-0.7,0.4c0,0.1,0.1,0.2,0.1,0.3
		C115.8,101.2,116,101.1,116.3,100.9z"/>
	<path class="st0" d="M116.9,101.4c0,0.1,0.1,0.2,0.1,0.2c0.3-0.2,0.5-0.3,0.8-0.5l-0.1-0.1C117.4,101.1,117.2,101.3,116.9,101.4z"
		/>
	<path class="st0" d="M116.7,101.8c0-0.1,0-0.2-0.1-0.2c-0.2,0.1-0.5,0.3-0.7,0.4c0,0.1,0.1,0.2,0.1,0.3
		C116.1,102.1,116.4,101.9,116.7,101.8z"/>
	<path class="st0" d="M117,102.7c0,0-0.1-0.1-0.1-0.2c-0.2,0.1-0.5,0.2-0.7,0.3c0,0.1,0,0.2,0.1,0.3
		C116.5,103,116.8,102.8,117,102.7z"/>
	<path class="st0" d="M117.6,103.3c0.3-0.1,0.5-0.3,0.8-0.5c-0.3,0-0.5,0.2-0.8,0.3C117.6,103.2,117.6,103.3,117.6,103.3z"/>
	<path class="st0" d="M116.5,103.7c0,0.1,0.1,0.2,0.1,0.2c0.2-0.1,0.4-0.3,0.6-0.4c0,0-0.1-0.1-0.1-0.2
		C117,103.4,116.8,103.6,116.5,103.7z"/>
	<path class="st0" d="M116.2,103.8c-0.2,0.1-0.4,0.2-0.5,0.3c0,0.1,0.1,0.2,0.1,0.3c0.2-0.1,0.3-0.2,0.5-0.3
		C116.3,104,116.3,103.9,116.2,103.8z"/>
	<path class="st0" d="M117.1,104.8c0.2-0.2,0.5-0.2,0.6-0.5c-0.3,0.1-0.5,0.2-0.7,0.3C117,104.5,117.1,104.7,117.1,104.8z"/>
	<path class="st0" d="M118.4,105c0.2-0.1,0.5-0.3,0.6-0.5C119,104.5,118.4,104.5,118.4,105z"/>
	<path class="st0" d="M116.7,104.7c-0.2,0.1-0.3,0.2-0.5,0.3c0,0.1,0.1,0.2,0.2,0.2c0.1-0.1,0.3-0.2,0.4-0.2
		C116.7,104.9,116.7,104.8,116.7,104.7z"/>
	<path class="st0" d="M117.5,105.6c0.2-0.1,0.4-0.2,0.6-0.4c0,0-0.1-0.1-0.1-0.2c-0.2,0.1-0.4,0.2-0.6,0.3
		C117.4,105.4,117.5,105.5,117.5,105.6z"/>
	<path class="st0" d="M119,105.7c0.2-0.1,0.6-0.2,0.6-0.5C119.4,105.4,119,105.4,119,105.7z"/>
	<path class="st0" d="M117,105.5c-0.2,0.1-0.3,0.2-0.5,0.2c0.1,0.1,0.1,0.2,0.2,0.2c0.1-0.1,0.3-0.1,0.4-0.2
		C117.1,105.7,117.1,105.6,117,105.5z"/>
	<path class="st0" d="M118.4,105.8c-0.2,0.1-0.4,0.2-0.6,0.3c0,0.1,0.1,0.2,0.1,0.3c0.2-0.1,0.4-0.2,0.5-0.3
		C118.5,106,118.4,105.9,118.4,105.8z"/>
	<path class="st0" d="M120,106.2c0-0.1-0.1-0.1-0.1-0.2c-0.2,0.1-0.4,0.2-0.6,0.3C119.6,106.7,119.8,106.3,120,106.2z"/>
	<path class="st0" d="M121.8,106.1c-0.2,0.1-0.6,0.1-0.6,0.4C121.4,106.4,121.6,106.3,121.8,106.1z"/>
	<path class="st0" d="M117.1,106.5c0,0.1,0.1,0.2,0.1,0.3c0.1-0.1,0.3-0.1,0.4-0.2c0-0.1-0.1-0.2-0.1-0.3
		C117.3,106.3,117.2,106.4,117.1,106.5z"/>
	<path class="st0" d="M121.8,107.3c0.2-0.1,0.3-0.2,0.5-0.3c-0.2-0.2-0.4,0-0.6,0.1C121.6,107.2,121.8,107.3,121.8,107.3z"/>
	<path class="st0" d="M132.9,90.7c-0.4,0-0.7,0.4-0.8,0.8C132.5,91.5,132.9,91.3,132.9,90.7z"/>
	<path class="st0" d="M120.3,107.7c0.1,0.1,0.1,0.2,0.2,0.3c0.2-0.1,0.4-0.2,0.5-0.3c0-0.1-0.1-0.2-0.2-0.2
		C120.7,107.5,120.5,107.6,120.3,107.7z"/>
	<path class="st0" d="M115.8,99.1c0-0.1,0-0.2-0.1-0.2c-0.3,0.2-0.6,0.3-0.9,0.5c0,0.1,0.1,0.2,0.1,0.3
		C115.2,99.5,115.5,99.3,115.8,99.1z"/>
	<path class="st0" d="M122.3,107.9c0.2,0.2,0.4-0.1,0.6-0.2c-0.1-0.1-0.1-0.1-0.2-0.2C122.5,107.6,122,107.7,122.3,107.9z"/>
	<path class="st0" d="M115,100.3c-0.2,0.1-0.5,0.2-0.7,0.4c0,0.1,0.1,0.2,0.2,0.3c0.2-0.1,0.4-0.3,0.6-0.4
		C115.1,100.5,115,100.4,115,100.3z"/>
	<path class="st0" d="M118.2,100.9c0.1-0.1,0-0.2-0.1-0.1C118,100.9,118,100.9,118.2,100.9z"/>
	<path class="st0" d="M118.6,101.7c0.1-0.1-0.1-0.3-0.2-0.1C118.2,101.7,118.5,101.8,118.6,101.7z"/>
	<path class="st0" d="M118.7,107.6c0.1,0.1,0.1,0.2,0.2,0.3c0.2-0.1,0.3-0.2,0.5-0.3c-0.1-0.1-0.1-0.2-0.2-0.3
		C119.2,107.4,119,107.5,118.7,107.6z"/>
</g>
<g>
	<path class="st0" d="M34.6,38.7l-0.3,1.6h-3.4L34,27.3h3.6l3.1,12.9h-3.4L37,38.7H34.6z M34.9,36.7h1.6l-0.8-4.5L34.9,36.7z"/>
	<path class="st0" d="M47.3,34.3v6.1H44V27.5h3.6l1.9,5.5l1.9-5.5h3.6v12.9h-3.3v-6.1l-2.2,5.1L47.3,34.3z"/>
	<path class="st0" d="M58.5,27.5H65l0.6,2.3h-3.7V33h2.8v2.2h-2.8v2.8h3.6l-0.6,2.3h-6.4V27.5z"/>
	<path class="st0" d="M77.8,35.1c0,0.3-0.2,0.6-0.3,0.8c-0.3,0.3-0.6,0.3-1.1,0.3l1.7,4h-3.4l-1.6-4h-0.5v4h-3.4V27.3h6.4
		c0.8,0,1.4,0.2,1.7,0.5c0.3,0.3,0.6,0.8,0.6,1.2v6.1L77.8,35.1L77.8,35.1z M72.5,29.7v4.5h1.7c0.2,0,0.3-0.2,0.3-0.3V30
		c0-0.2-0.2-0.3-0.3-0.3H72.5z"/>
	<path class="st0" d="M81.5,27.5h3.4v12.9h-3.4V27.5z"/>
	<path class="st0" d="M91.3,40.4c-0.9,0-1.7-0.2-2-0.5c-0.3-0.3-0.6-0.8-0.6-1.6V29c0-0.5,0.2-0.9,0.6-1.2c0.3-0.3,0.8-0.5,1.4-0.5
		h4.5l0.6,2.3h-3.3c-0.2,0-0.3,0.2-0.3,0.3v7.6c0,0.2,0.2,0.3,0.3,0.3h3.3l-0.6,2.3h-3.9L91.3,40.4L91.3,40.4z"/>
	<path class="st0" d="M102.4,38.7l-0.3,1.6h-3.4l3.1-12.9h3.6l3.1,12.9H105l-0.3-1.6H102.4z M102.9,36.7h1.6l-0.8-4.5L102.9,36.7z"
		/>
	<path class="st0" d="M111.7,27.5h3.3l1.7,5.1v-5.1h3.4v12.9h-3.4l-1.9-5.5v5.5h-3.1L111.7,27.5L111.7,27.5z"/>
	<path class="st0" d="M129.2,27.5h6.5l0.6,2.3h-3.7V33h2.8v2.2h-2.8v2.8h3.6l-0.6,2.3h-6.4L129.2,27.5L129.2,27.5z"/>
	<path class="st0" d="M146.3,33.6l2.3,6.7h-3.4l-1.2-4.5l-1.2,4.5h-3.4l2.3-6.7l-2.3-6.2h3.4l1.2,4.5l1.2-4.5h3.3L146.3,33.6z"/>
	<path class="st0" d="M158.6,27.5c0.6,0,1.2,0.2,1.6,0.5c0.3,0.3,0.5,0.6,0.5,1.1v6.2c0,0.3,0,0.5-0.2,0.6c-0.2,0.2-0.2,0.3-0.3,0.5
		c-0.2,0.2-0.5,0.3-0.8,0.3c-0.3,0.2-0.6,0.2-1.1,0.2h-3v3.4h-3.4V27.4h6.7L158.6,27.5L158.6,27.5z M155.4,29.7v5.1h1.7
		c0.2,0,0.2,0,0.3,0v-0.2v-4.5c0-0.2-0.2-0.3-0.3-0.3h-1.7V29.7z"/>
	<path class="st0" d="M173,35.1c0,0.3-0.2,0.6-0.3,0.8c-0.3,0.3-0.6,0.3-1.1,0.3l1.7,4h-3.4l-1.6-4h-0.5v4h-3.4V27.3h6.4
		c0.8,0,1.4,0.2,1.7,0.5c0.3,0.3,0.6,0.8,0.6,1.2v6.1L173,35.1L173,35.1z M167.7,29.7v4.5h1.7c0.2,0,0.3-0.2,0.3-0.3V30
		c0-0.2-0.2-0.3-0.3-0.3C169.4,29.7,167.7,29.7,167.7,29.7z"/>
	<path class="st0" d="M176.9,27.5h6.5l0.6,2.3h-3.7V33h2.8v2.2h-2.8v2.8h3.6l-0.6,2.3h-6.4L176.9,27.5L176.9,27.5z"/>
	<path class="st0" d="M188.2,40.4l-0.6-2.3h3.6c0.3,0,0.5-0.2,0.5-0.3v-2.3c0-0.2,0-0.3-0.2-0.3c-0.2,0-0.3,0-0.5,0h-1.7
		c-0.3,0-0.5,0-0.8,0c-0.2,0-0.5-0.2-0.6-0.2c-0.2-0.2-0.3-0.3-0.5-0.5c-0.2-0.2-0.2-0.5-0.2-0.8v-4.5c0-0.5,0.2-0.9,0.6-1.2
		c0.5-0.3,0.9-0.5,1.7-0.5h4.7l0.6,2.3H191c-0.3,0-0.5,0.2-0.5,0.3v2.3c0,0.2,0,0.2,0.2,0.3c0.2,0.2,0.2,0,0.3,0h2.2
		c0.5,0,0.9,0.2,1.2,0.3s0.5,0.5,0.5,1.1v4.2c0,0.8-0.2,1.2-0.6,1.6c-0.3,0.3-1.1,0.5-2,0.5C192.3,40.4,188.2,40.4,188.2,40.4z"/>
	<path class="st0" d="M199.6,40.4l-0.6-2.3h3.6c0.3,0,0.5-0.2,0.5-0.3v-2.3c0-0.2,0-0.3-0.2-0.3c-0.2,0-0.3,0-0.5,0h-1.7
		c-0.3,0-0.5,0-0.8,0c-0.2,0-0.5-0.2-0.6-0.2c-0.2-0.2-0.3-0.3-0.5-0.5c-0.2-0.2-0.2-0.5-0.2-0.8v-4.5c0-0.5,0.2-0.9,0.6-1.2
		c0.5-0.3,0.9-0.5,1.7-0.5h4.7l0.6,2.3h-3.9c-0.3,0-0.5,0.2-0.5,0.3v2.3c0,0.2,0,0.2,0.2,0.3c0.2,0.2,0.2,0,0.3,0h2.2
		c0.5,0,0.9,0.2,1.2,0.3c0.3,0.2,0.5,0.5,0.5,1.1v4.2c0,0.8-0.2,1.2-0.6,1.6c-0.3,0.3-1.1,0.5-2,0.5
		C203.6,40.4,199.6,40.4,199.6,40.4z"/>
</g>
<g>
	<g>
		<path d="M229.5,131.8V19.3v-0.6v-6.4h2.3v-6H226v2.4h-6.1h-0.6H17.8h-0.6h-6.1V6.4H5.3v6h2.3v6.4v0.6v112.5v0.6v6.4H5.3v6h5.8
			v-2.4h6.1h0.6h201.5h0.6h6.1v2.4h5.8v-6h-2.3v-6.4L229.5,131.8L229.5,131.8z M228.4,131.8h-5.6V130v-0.6V21.7v-0.6v-1.8h5.6V131.8
			z M224.4,139c-1,0-1.9-0.9-1.9-1.9s0.8-1.9,1.9-1.9s1.9,0.9,1.9,1.9C226.3,138.2,225.5,139,224.4,139z M219.3,131.8v2.4h-1.1v-3.6
			h3.4v1.2H219.3z M221.6,133v1.2h-1.1V133H221.6z M217,129.4v4.8h-5.5c0.3-5.6,4.7-10.2,10.1-10.5v5.7H217z M15.5,129.4v-5.7
			c5.4,0.3,9.8,4.8,10.1,10.5h-5.5v-4.8L15.5,129.4L15.5,129.4z M8.8,140h1.1v1.2H8.8V140z M10.8,137.1c0-1.1,0.8-1.9,1.9-1.9
			s1.9,0.9,1.9,1.9s-0.8,1.9-1.9,1.9S10.8,138.2,10.8,137.1z M15.5,133h1.1v1.2h-1.1C15.5,134.2,15.5,133,15.5,133z M15.5,131.8
			v-1.2H19v3.6h-1.1v-2.4H15.5z M12.7,12.1c1,0,1.9,0.9,1.9,1.9S13.8,16,12.7,16s-1.9-0.9-1.9-1.9C10.8,13,11.7,12.1,12.7,12.1z
			 M17.8,19.3V17H19v3.6h-3.4v-1.2H17.8z M15.5,18.1V17h1.1v1.2H15.5z M20.1,21.7V17h5.5c-0.3,5.6-4.7,10.1-10.1,10.5v-5.7H20.1z
			 M26.8,134.2c-0.3-6.3-5.2-11.4-11.3-11.7V28.6c6.1-0.3,11-5.4,11.3-11.7h183.6c0.3,6.3,5.2,11.4,11.3,11.7v93.9
			c-6.1,0.3-11,5.4-11.3,11.7H26.8z M221.6,21.7v5.7c-5.4-0.3-9.8-4.8-10.1-10.5h5.5v4.8C217,21.7,221.6,21.7,221.6,21.7z
			 M228.4,11.1h-1.1V10h1.1V11.1z M226.3,14.1c0,1.1-0.8,1.9-1.9,1.9s-1.9-0.9-1.9-1.9s0.8-1.9,1.9-1.9
			C225.5,12.1,226.3,13,226.3,14.1z M221.6,18.1h-1.1V17h1.1V18.1z M221.6,19.3v1.2h-3.4V17h1.1v2.4H221.6z M228.4,18.1h-5.6v-1.4
			c0.5,0.3,1,0.5,1.6,0.5c1.7,0,3.1-1.4,3.1-3.2c0-0.6-0.2-1.2-0.5-1.7h1.4L228.4,18.1L228.4,18.1z M227.2,7.6h3.4v3.6h-1.1V8.8
			h-2.3V7.6z M226.1,10v1.4c-0.5-0.3-1-0.5-1.6-0.5c-1.7,0-3.1,1.4-3.1,3.2c0,0.6,0.2,1.2,0.5,1.7h-1.4V10H226.1z M219.3,10v2.8
			c0,0,0,0,0,0s0,0,0,0v2.9h-1.7H217H20.1h-0.6h-1.7V10H219.3z M16.6,10v5.8h-1.3c0.3-0.5,0.5-1.1,0.5-1.7c0-1.8-1.4-3.2-3.1-3.2
			c-0.6,0-1.1,0.2-1.6,0.5V10L16.6,10L16.6,10z M6.5,11.1V7.6h3.4v1.2H7.6v2.4H6.5z M9.9,10v1.2H8.8V10H9.9z M10.1,12.4
			c-0.3,0.5-0.5,1.1-0.5,1.7c0,1.8,1.4,3.2,3.1,3.2c0.6,0,1.1-0.2,1.6-0.5v1.4H8.8v-5.8L10.1,12.4L10.1,12.4z M8.8,19.3h5.6v1.8v0.6
			v107.7v0.6v1.8H8.8V19.3z M8.8,133h5.6v1.4c-0.5-0.3-1-0.5-1.6-0.5c-1.7,0-3.1,1.4-3.1,3.2c0,0.6,0.2,1.2,0.5,1.7H8.8V133z
			 M9.9,143.6H6.5V140h1.1v2.4h2.3V143.6z M11.1,141.2v-1.4c0.5,0.3,1,0.5,1.6,0.5c1.7,0,3.1-1.4,3.1-3.2c0-0.6-0.2-1.2-0.5-1.7h1.4
			v5.8L11.1,141.2L11.1,141.2z M17.8,141.2v-5.8h1.7h0.6H217h0.6h1.7v2.9c0,0,0,0,0,0c0,0,0,0,0,0v2.8L17.8,141.2L17.8,141.2z
			 M220.5,141.2v-5.8h1.4c-0.3,0.5-0.5,1.1-0.5,1.7c0,1.8,1.4,3.2,3.1,3.2c0.6,0,1.1-0.2,1.6-0.5v1.4L220.5,141.2L220.5,141.2z
			 M230.7,140v3.6h-3.4v-1.2h2.3V140H230.7z M227.2,141.2V140h1.1v1.2H227.2z M227,138.8c0.3-0.5,0.5-1.1,0.5-1.7
			c0-1.8-1.4-3.2-3.1-3.2c-0.6,0-1.1,0.2-1.6,0.5V133h5.6v5.8L227,138.8L227,138.8z"/>
		<ellipse cx="11.4" cy="81.1" rx="0.6" ry="0.6"/>
		<ellipse cx="11.4" cy="71.3" rx="0.6" ry="0.6"/>
		<ellipse cx="11.4" cy="66.4" rx="0.6" ry="0.6"/>
		<ellipse cx="11.4" cy="76.2" rx="0.6" ry="0.6"/>
		<ellipse cx="11.4" cy="56.7" rx="0.6" ry="0.6"/>
		<ellipse cx="11.4" cy="61.6" rx="0.6" ry="0.6"/>
		<ellipse cx="11.4" cy="46.9" rx="0.6" ry="0.6"/>
		<ellipse cx="11.4" cy="120.2" rx="0.6" ry="0.6"/>
		<ellipse cx="11.4" cy="86" rx="0.6" ry="0.6"/>
		<ellipse cx="11.4" cy="22.4" rx="0.6" ry="0.6"/>
		<ellipse cx="11.4" cy="130" rx="0.6" ry="0.6"/>
		<ellipse cx="11.4" cy="115.4" rx="0.6" ry="0.6"/>
		<ellipse cx="11.4" cy="125.1" rx="0.6" ry="0.6"/>
		<ellipse cx="11.4" cy="95.8" rx="0.6" ry="0.6"/>
		<ellipse cx="11.4" cy="90.9" rx="0.6" ry="0.6"/>
		<ellipse cx="11.4" cy="100.7" rx="0.6" ry="0.6"/>
		<ellipse cx="11.4" cy="110.5" rx="0.6" ry="0.6"/>
		<ellipse cx="11.4" cy="105.6" rx="0.6" ry="0.6"/>
		<ellipse cx="11.4" cy="51.8" rx="0.6" ry="0.6"/>
		<ellipse cx="11.4" cy="32.2" rx="0.6" ry="0.6"/>
		<ellipse cx="11.4" cy="27.3" rx="0.6" ry="0.6"/>
		<ellipse cx="11.4" cy="42" rx="0.6" ry="0.6"/>
		<ellipse cx="11.4" cy="37.1" rx="0.6" ry="0.6"/>
		<ellipse cx="225.8" cy="90.9" rx="0.6" ry="0.6"/>
		<ellipse cx="225.8" cy="86" rx="0.6" ry="0.6"/>
		<ellipse cx="225.8" cy="95.8" rx="0.6" ry="0.6"/>
		<ellipse cx="225.8" cy="81.1" rx="0.6" ry="0.6"/>
		<ellipse cx="225.8" cy="76.2" rx="0.6" ry="0.6"/>
		<ellipse cx="225.8" cy="100.7" rx="0.6" ry="0.6"/>
		<ellipse cx="225.8" cy="115.4" rx="0.6" ry="0.6"/>
		<ellipse cx="225.8" cy="110.5" rx="0.6" ry="0.6"/>
		<ellipse cx="225.8" cy="105.6" rx="0.6" ry="0.6"/>
		<ellipse cx="225.8" cy="120.2" rx="0.6" ry="0.6"/>
		<ellipse cx="225.8" cy="71.3" rx="0.6" ry="0.6"/>
		<ellipse cx="225.8" cy="125.1" rx="0.6" ry="0.6"/>
		<ellipse cx="225.8" cy="61.6" rx="0.6" ry="0.6"/>
		<ellipse cx="225.8" cy="32.2" rx="0.6" ry="0.6"/>
		<ellipse cx="225.8" cy="37.1" rx="0.6" ry="0.6"/>
		<ellipse cx="225.8" cy="22.4" rx="0.6" ry="0.6"/>
		<ellipse cx="225.8" cy="27.3" rx="0.6" ry="0.6"/>
		<ellipse cx="225.8" cy="42" rx="0.6" ry="0.6"/>
		<ellipse cx="225.8" cy="66.4" rx="0.6" ry="0.6"/>
		<ellipse cx="225.8" cy="46.9" rx="0.6" ry="0.6"/>
		<ellipse cx="225.8" cy="130" rx="0.6" ry="0.6"/>
		<ellipse cx="225.8" cy="56.7" rx="0.6" ry="0.6"/>
		<ellipse cx="225.8" cy="51.8" rx="0.6" ry="0.6"/>
		<ellipse cx="153.8" cy="12.8" rx="0.6" ry="0.6"/>
		<ellipse cx="158.6" cy="12.8" rx="0.6" ry="0.6"/>
		<ellipse cx="130.2" cy="12.8" rx="0.6" ry="0.6"/>
		<ellipse cx="168" cy="12.8" rx="0.6" ry="0.6"/>
		<ellipse cx="149.1" cy="12.8" rx="0.6" ry="0.6"/>
		<ellipse cx="144.4" cy="12.8" rx="0.6" ry="0.6"/>
		<ellipse cx="172.7" cy="12.8" rx="0.6" ry="0.6"/>
		<ellipse cx="134.9" cy="12.8" rx="0.6" ry="0.6"/>
		<ellipse cx="139.7" cy="12.8" rx="0.6" ry="0.6"/>
		<ellipse cx="163.3" cy="12.8" rx="0.6" ry="0.6"/>
		<ellipse cx="177.4" cy="12.8" rx="0.6" ry="0.6"/>
		<ellipse cx="210.5" cy="12.8" rx="0.6" ry="0.6"/>
		<ellipse cx="205.8" cy="12.8" rx="0.6" ry="0.6"/>
		<ellipse cx="215.2" cy="12.8" rx="0.6" ry="0.6"/>
		<ellipse cx="201" cy="12.8" rx="0.6" ry="0.6"/>
		<ellipse cx="196.3" cy="12.8" rx="0.6" ry="0.6"/>
		<ellipse cx="182.1" cy="12.8" rx="0.6" ry="0.6"/>
		<ellipse cx="186.9" cy="12.8" rx="0.6" ry="0.6"/>
		<ellipse cx="191.6" cy="12.8" rx="0.6" ry="0.6"/>
		<ellipse cx="68.9" cy="12.8" rx="0.6" ry="0.6"/>
		<ellipse cx="45.3" cy="12.8" rx="0.6" ry="0.6"/>
		<ellipse cx="50" cy="12.8" rx="0.6" ry="0.6"/>
		<ellipse cx="54.7" cy="12.8" rx="0.6" ry="0.6"/>
		<ellipse cx="64.2" cy="12.8" rx="0.6" ry="0.6"/>
		<ellipse cx="59.4" cy="12.8" rx="0.6" ry="0.6"/>
		<ellipse cx="26.4" cy="12.8" rx="0.6" ry="0.6"/>
		<ellipse cx="21.7" cy="12.8" rx="0.6" ry="0.6"/>
		<ellipse cx="73.6" cy="12.8" rx="0.6" ry="0.6"/>
		<ellipse cx="40.5" cy="12.8" rx="0.6" ry="0.6"/>
		<ellipse cx="35.8" cy="12.8" rx="0.6" ry="0.6"/>
		<ellipse cx="31.1" cy="12.8" rx="0.6" ry="0.6"/>
		<ellipse cx="92.5" cy="12.8" rx="0.6" ry="0.6"/>
		<ellipse cx="111.3" cy="12.8" rx="0.6" ry="0.6"/>
		<ellipse cx="101.9" cy="12.8" rx="0.6" ry="0.6"/>
		<ellipse cx="106.6" cy="12.8" rx="0.6" ry="0.6"/>
		<ellipse cx="120.8" cy="12.8" rx="0.6" ry="0.6"/>
		<ellipse cx="116.1" cy="12.8" rx="0.6" ry="0.6"/>
		<ellipse cx="78.3" cy="12.8" rx="0.6" ry="0.6"/>
		<ellipse cx="87.8" cy="12.8" rx="0.6" ry="0.6"/>
		<ellipse cx="97.2" cy="12.8" rx="0.6" ry="0.6"/>
		<ellipse cx="83" cy="12.8" rx="0.6" ry="0.6"/>
		<ellipse cx="125.5" cy="12.8" rx="0.6" ry="0.6"/>
		<ellipse cx="191.6" cy="138.3" rx="0.6" ry="0.6"/>
		<ellipse cx="196.3" cy="138.3" rx="0.6" ry="0.6"/>
		<ellipse cx="186.9" cy="138.3" rx="0.6" ry="0.6"/>
		<ellipse cx="182.1" cy="138.3" rx="0.6" ry="0.6"/>
		<ellipse cx="177.4" cy="138.3" rx="0.6" ry="0.6"/>
		<ellipse cx="215.2" cy="138.3" rx="0.6" ry="0.6"/>
		<ellipse cx="210.5" cy="138.3" rx="0.6" ry="0.6"/>
		<ellipse cx="201" cy="138.3" rx="0.6" ry="0.6"/>
		<ellipse cx="205.8" cy="138.3" rx="0.6" ry="0.6"/>
		<ellipse cx="73.6" cy="138.3" rx="0.6" ry="0.6"/>
		<ellipse cx="64.2" cy="138.3" rx="0.6" ry="0.6"/>
		<ellipse cx="97.2" cy="138.3" rx="0.6" ry="0.6"/>
		<ellipse cx="68.9" cy="138.3" rx="0.6" ry="0.6"/>
		<ellipse cx="59.4" cy="138.3" rx="0.6" ry="0.6"/>
		<ellipse cx="87.8" cy="138.3" rx="0.6" ry="0.6"/>
		<ellipse cx="83" cy="138.3" rx="0.6" ry="0.6"/>
		<ellipse cx="172.7" cy="138.3" rx="0.6" ry="0.6"/>
		<ellipse cx="54.7" cy="138.3" rx="0.6" ry="0.6"/>
		<ellipse cx="78.3" cy="138.3" rx="0.6" ry="0.6"/>
		<ellipse cx="26.4" cy="138.3" rx="0.6" ry="0.6"/>
		<ellipse cx="21.7" cy="138.3" rx="0.6" ry="0.6"/>
		<ellipse cx="31.1" cy="138.3" rx="0.6" ry="0.6"/>
		<ellipse cx="35.8" cy="138.3" rx="0.6" ry="0.6"/>
		<ellipse cx="50" cy="138.3" rx="0.6" ry="0.6"/>
		<ellipse cx="45.3" cy="138.3" rx="0.6" ry="0.6"/>
		<ellipse cx="40.5" cy="138.3" rx="0.6" ry="0.6"/>
		<ellipse cx="92.5" cy="138.3" rx="0.6" ry="0.6"/>
		<ellipse cx="153.8" cy="138.3" rx="0.6" ry="0.6"/>
		<ellipse cx="149.1" cy="138.3" rx="0.6" ry="0.6"/>
		<ellipse cx="144.4" cy="138.3" rx="0.6" ry="0.6"/>
		<ellipse cx="163.3" cy="138.3" rx="0.6" ry="0.6"/>
		<ellipse cx="158.6" cy="138.3" rx="0.6" ry="0.6"/>
		<ellipse cx="168" cy="138.3" rx="0.6" ry="0.6"/>
		<ellipse cx="139.7" cy="138.3" rx="0.6" ry="0.6"/>
		<ellipse cx="134.9" cy="138.3" rx="0.6" ry="0.6"/>
		<ellipse cx="111.3" cy="138.3" rx="0.6" ry="0.6"/>
		<ellipse cx="106.6" cy="138.3" rx="0.6" ry="0.6"/>
		<ellipse cx="116.1" cy="138.3" rx="0.6" ry="0.6"/>
		<ellipse cx="125.5" cy="138.3" rx="0.6" ry="0.6"/>
		<ellipse cx="130.2" cy="138.3" rx="0.6" ry="0.6"/>
		<ellipse cx="120.8" cy="138.3" rx="0.6" ry="0.6"/>
		<ellipse cx="101.9" cy="138.3" rx="0.6" ry="0.6"/>
	</g>
</g>
</svg>
