<?xml version="1.0" encoding="utf-8"?>
<!-- Generator: Adobe Illustrator 26.0.3, SVG Export Plug-In . SVG Version: 6.00 Build 0)  -->
<svg version="1.0" id="Слой_1" xmlns="http://www.w3.org/2000/svg" xmlns:xlink="http://www.w3.org/1999/xlink" x="0px" y="0px"
	 viewBox="0 0 238.1 150.2" style="enable-background:new 0 0 238.1 150.2;" xml:space="preserve">
<style type="text/css">
	.st0{fill:#1D1D1B;}
</style>
<g>
	<path class="st0" d="M138.4,28.5c0.1,0,0.3,0,0.4,0c0-1.6,0-3.1,0-4.8c-0.1,0-0.3,0.1-0.4,0.1C138.4,25.5,138.4,27,138.4,28.5z"/>
	<path class="st0" d="M140.5,28.6c0-1.5,0-3.1,0-4.6c-0.1-0.1-0.3-0.1-0.4-0.3c-0.1,1.6,0,3.3,0,4.8
		C140.3,28.6,140.3,28.6,140.5,28.6z"/>
	<path class="st0" d="M131.2,28.2c-0.6,0.1-0.9,0.7-1.3,0.9c0.3,0,0.4,0,0.7,0c0.3-0.4,0.7-0.6,1.3-0.7c0,0.1-0.1,0.3-0.1,0.3
		c0.1-0.3,0.3-0.7,0.6-0.9c0.4-0.4,0.3-1.3,0.3-1.8c-0.3-0.6-0.3-1.3-0.3-1.9c-0.7,0.6-0.3,1.6,0,2.2
		C132.7,27.3,132.1,28,131.2,28.2z"/>
	<path class="st0" d="M138.1,28.5c0-1.5,0-3.1,0-4.6c-0.7,0-1.6,0-2.2,0c-0.1,1.6,0,3.1-0.1,4.8C136.3,28.6,137.2,28.5,138.1,28.5z"
		/>
	<path class="st0" d="M139.7,28.8c0-1.3,0-2.8,0-4.3c0-0.3-0.1-0.4-0.3-0.7c-0.3,1.6,0,3.3-0.1,4.8
		C139.3,28.6,139.6,28.8,139.7,28.8z"/>
	<path class="st0" d="M141.4,28.8c0-1.6,0-3.1,0-4.8c-0.1,0-0.3,0.1-0.3,0.1c-0.1,1.5,0,3-0.1,4.5C140.9,28.6,141.2,28.8,141.4,28.8
		z"/>
	<path class="st0" d="M134.2,27.7c0-1,0.7-1.8,1-2.7c0-0.4-0.3-0.7-0.6-1.2c-0.1,0.1-0.3,0.3-0.3,0.4l0.3,0.1l0.3,0.4
		c-0.3-0.1-0.6-0.3-0.7-0.4c0,0.1,0,0.3,0,0.3c0.3,0,0.6,0.1,0.7,0.4c-0.3,0-0.7,0-1,0c0-0.3,0-0.7,0.3-1l0.3,0.3
		c0.1-0.1,0.3-0.4,0.3-0.6c-0.3,0.1-1.2-0.1-1.2,0.6c-0.3,1,0.6,1.9,0.6,3c0,0.6-0.4,0.9-0.7,1.3C133.6,28.9,134.2,28.3,134.2,27.7z
		"/>
	<path class="st0" d="M142.1,28.8c0-1.6,0.1-3.3-0.1-4.9c-0.3,0.3-0.3,0.7-0.3,1.3c0,1.3-0.1,2.4,0,3.7
		C141.8,28.8,142,28.8,142.1,28.8z"/>
	<path class="st0" d="M143,28.9c0-1.6,0-3.3,0-4.8c-0.1,0.1-0.3,0.3-0.3,0.3c0,1.5,0,2.8,0,4.3C142.7,28.8,142.9,28.8,143,28.9z"/>
	<path class="st0" d="M143.9,24.9c0-0.3-0.1-0.6-0.3-0.7c-0.1,1.6,0,3.3-0.1,4.8c0.1,0,0.3-0.1,0.4-0.1
		C143.9,27.4,143.9,26.2,143.9,24.9z"/>
	<path class="st0" d="M144.7,28.9c0.1-1.2,0-2.2,0-3.3c0-0.4,0.1-1.2-0.3-1.3c-0.1,1.6-0.1,3.3,0,4.9
		C144.4,29.1,144.5,28.9,144.7,28.9z"/>
	<path class="st0" d="M131.2,27.7c0.4-0.1,0.6-0.4,0.7-0.7c-0.1-0.3-0.3-0.9-0.6-1.2c-0.3-0.1-0.7-0.1-1.2-0.3c0-0.3,0-0.6,0-0.9
		c-0.1,0-0.3-0.1-0.3-0.1c-0.1,1,0,2.1,0.3,3.1c-0.4,0.6-1,1.3-1.8,1.8c0,0.1,0,0.3,0,0.3s0.1-0.1,0.1-0.3
		C129.9,29.4,130.2,27.7,131.2,27.7z M130.6,26.2c0.3,0,0.3,0,0.6,0c0,0.1,0.1,0.4,0.3,0.6c-0.3,0-0.7,0-1,0.1
		C130.5,26.7,130.6,26.5,130.6,26.2z"/>
	<path class="st0" d="M145.4,29.2c0-1.5,0-3.1,0-4.6c-0.1-0.1-0.3-0.3-0.3-0.3c0,1.6,0,3.3,0,4.8C145.1,29.2,145.4,29.2,145.4,29.2z
		"/>
	<path class="st0" d="M146.3,29.2c0-1.6,0-3.1,0-4.8c-0.1,0-0.3,0-0.3,0c-0.1,1.6,0,3.1-0.1,4.8H146.3z"/>
	<path class="st0" d="M128.4,27.6c0.3,0.3,0.4,0.4,0.4,0.7c0.3-0.3,0.7-0.4,0.7-0.9c0-0.3-0.3-0.7-0.3-1.2c0.1-0.6,0.3-1.3,0.3-1.8
		c-0.6,0.1-0.4,0.7-0.4,1c-0.4,0.6-1.3,0.7-1.3,1.8c-0.1,0.4,0.3,0.7,0.4,1c0.1-0.1,0.3-0.3,0.3-0.3c-0.7-0.3-0.3-0.9,0.1-1
		c0.1,0.1,0.3,0.4,0.4,0.6C129,27.6,128.5,27.6,128.4,27.6z"/>
	<path class="st0" d="M147.2,29.5c0-1.5,0-3,0-4.5c0.1-0.3-0.3-0.3-0.4-0.4c0,1.6,0,3.3,0,4.8C146.9,29.4,147.1,29.5,147.2,29.5z"/>
	<path class="st0" d="M124.5,30.4c0.4-0.1,0.7-0.3,1.3-0.3c0-0.7-0.1-1.3,0-2.1c0.7-1.2,2.1-2.1,2.8-3.3c-0.7,0-1.3,0.3-1.8,0.3
		c-0.7,0.7-1.6,1.5-2.2,2.4C124.5,28.5,124.8,29.4,124.5,30.4z"/>
	<path class="st0" d="M148,29.5c0.1-1.6,0-3.3,0-4.8c-0.1,0.1-0.3,0.3-0.3,0.3c-0.1,1.6,0,3.1,0,4.8C147.7,29.7,148,29.7,148,29.5z"
		/>
	<path class="st0" d="M148.4,29.7c0.1,0,0.3,0.1,0.4,0.1c0-1.6,0-3.1,0-4.8c-0.1,0-0.3-0.1-0.3-0.1
		C148.4,26.5,148.4,28.2,148.4,29.7z"/>
	<path class="st0" d="M122.7,28.6c0.9-1.2,2.1-2.2,3-3.3c-0.4,0.1-0.9,0.1-1.3,0.4c-0.7,0.9-1.8,1.8-2.4,2.7c-0.1,0.9,0,1.8-0.1,2.8
		c0.1,0,0.4-0.1,0.6-0.1C122.7,30.3,122.4,29.4,122.7,28.6z"/>
	<path class="st0" d="M149.2,30h0.4c0-1.5,0.1-3,0-4.6c-0.1-0.1-0.3-0.3-0.3-0.3C149.3,26.7,149.2,28.3,149.2,30z"/>
	<path class="st0" d="M150.5,30.3c0-1.6,0-3.3,0-4.9c-0.1,0-0.3,0-0.4,0c0,1.6,0,3.1,0,4.8C150.2,30.1,150.4,30.3,150.5,30.3z"/>
	<path class="st0" d="M151.4,25.6c-0.1,0-0.3,0-0.4,0c0,1.5,0,3.1,0,4.6c0.1,0.1,0.3,0.3,0.4,0.3C151.3,28.8,151.4,27.3,151.4,25.6z
		"/>
	<path class="st0" d="M152.2,30.7c0-1.6,0-3.3,0-4.8c-0.1,0-0.3-0.1-0.4-0.1c0,1.6,0,3.3,0,4.8C151.9,30.6,152,30.7,152.2,30.7z"/>
	<path class="st0" d="M153.1,31c0.1-1.6,0-3.3,0-4.8c-0.1-0.1-0.3-0.3-0.4-0.3c0,1.6,0,3.3,0,4.8C152.6,30.9,152.9,31,153.1,31z"/>
	<path class="st0" d="M153.8,26.5c-0.1-0.1-0.3-0.3-0.3-0.3c-0.1,1.6-0.1,3.3-0.1,4.8c0.1,0.1,0.3,0.3,0.4,0.3
		C153.8,29.7,153.8,28.2,153.8,26.5z"/>
	<path class="st0" d="M154.6,26.5c-0.1,0-0.3,0-0.3-0.1c0,1.6,0,3.3,0,4.8c0.1,0,0.3,0.1,0.3,0.1C154.6,29.8,154.6,28.3,154.6,26.5z
		"/>
	<path class="st0" d="M120.4,28.8c0-0.3,0-0.6,0-0.7l-0.3,0.1l-0.1-0.7c0.1,0.1,0.3,0.3,0.4,0.4c0.1-0.1,0.3-0.3,0.4-0.4
		C120.9,27.7,120.6,28.2,120.4,28.8c0.6-0.1,0.9-0.3,1.3-0.7c0-0.4-0.1-0.9-0.3-1.3c-0.6,0.3-1,0.3-1.6,0.6
		C119.7,27.7,119.8,28.3,120.4,28.8z"/>
	<path class="st0" d="M155.5,31.8c0-1.6,0-3.3,0-4.8c-0.1-0.1-0.3-0.3-0.3-0.3c-0.1,1.8-0.1,3.3,0,5.1
		C155.2,31.8,155.3,31.8,155.5,31.8z"/>
	<path class="st0" d="M119.5,30.9c0,0.3,0,0.7,0,0.9c-0.1,0.1-0.3,0.3-0.3,0.3c0.3,0.4,0.7,0,0.9-0.1c0-0.4,0-0.9-0.1-1.3
		c-0.3-0.4-0.7-0.7-1.2-1.3c0-0.7,0-1.3-0.1-2.2c0,0.1,0,0.3,0,0.3c-0.1,0-0.3,0.1-0.4,0.3c0,0.6-0.1,1.2,0,1.8
		C118.8,29.8,119.2,30.3,119.5,30.9z"/>
	<path class="st0" d="M156.2,28.6c0.3,0.4,0.9,0.7,0.9,1.3c0.3,0.7,0.3,1.6,1,1.9c0.1-0.3,0-0.6,0-0.7c-0.7-0.3-0.1-0.9,0.3-0.9
		c0.3,0.1,0.4,0.4,0.6,0.7c-0.3,0-0.7,0-1,0c0.3,0.1,0.4,0.3,0.6,0.3c-0.1,0.3-0.3,0.3-0.3,0.6c0.7,0,1.3-0.9,1-1.8
		c-0.3-0.7-1.3-0.7-1.9-1c-0.3-0.3-0.7-0.6-0.9-1c-0.1-0.4,0-0.9-0.4-1.2C155.9,27.4,155.6,28.2,156.2,28.6z"/>
	<path class="st0" d="M159.9,31.8c-0.4,0.4-0.9,0.9-1.2,1.5c0.1,0.1,0.3,0.3,0.4,0.3c0.3-0.6,0.7-1,1-1.5c0-0.7,0-1.5,0-2.2
		c-0.7-0.7-1.3-1.8-2.4-2.1c0.6,0.7,1.2,1.3,1.8,1.8C160.1,30.3,159.8,31,159.9,31.8z"/>
	<path class="st0" d="M116.2,31.3c0.3,0.4,0.7,0.9,1.2,1.3c0.3,0.3,0.7,0,1.2,0c-0.7-0.4-1.2-1-1.8-1.6c0-0.7,0-1.8,0-2.5
		c-0.1-0.1-0.1-0.3-0.3-0.4C115.9,28.9,116.4,30.3,116.2,31.3z"/>
	<path class="st0" d="M115.5,31.6c0.3,0.7,1,1.2,1.5,1.8c0.1-0.1,0.3-0.3,0.4-0.3c-0.6-0.4-1-1-1.5-1.6c-0.1-0.9,0-1.8,0-2.8
		c-0.1,0-0.3,0.1-0.3,0.1C115.5,29.8,115.3,30.7,115.5,31.6z"/>
	<path class="st0" d="M160.7,29.8c0.1,0.7,0,1.6,0,2.4c-0.3,0.4-0.7,0.7-0.9,1.3c-0.3,0.3,0.1,0.6,0.3,0.7c0.1-0.7,0.7-1.2,1.2-1.8
		c0-0.9,0-1.8,0-2.7c-0.3-0.4-0.9-0.7-1.5-1C160.1,28.9,160.4,29.2,160.7,29.8z"/>
	<path class="st0" d="M114.3,30.6c0.6-0.3,0.7-0.9,0.7-1.5c-0.1,0-0.4,0.1-0.7,0.1c0,0.1,0,0.4,0,0.6c-0.4-0.3-1-0.1-1.3,0.3
		C113.4,30.3,113.7,30.7,114.3,30.6z"/>
	<path class="st0" d="M160.8,34.5c0.3-0.3,0.4-0.6,0.7-0.7c0.3,0.3,0.4,1.2-0.3,0.7c0.3,0.3,0.6,0.3,0.9,0.6
		c0.6-0.7,0.3-1.5,0.1-2.2c-0.3-0.7-0.1-1.8-0.1-2.7c0-0.3-0.1-0.4-0.4-0.6c0,1.2,0,2.2,0,3.4C161,33.1,160.2,33.9,160.8,34.5z"/>
	<path class="st0" d="M163.4,34.9c0-1.5,0-3.1,0-4.6c-0.1,0-0.3-0.1-0.4-0.1c0,1.5,0,3,0,4.5c-0.1,0.1-0.3,0.4-0.4,0.7
		C162.9,35.7,163.2,35.4,163.4,34.9z"/>
	<path class="st0" d="M163.8,36.1c0.1-0.3,0.4-0.4,0.4-0.7c0.1-1.2,0-2.2,0-3.3c0-0.4,0.1-1-0.3-1.3c-0.1,1.5-0.1,2.8-0.1,4.3
		c0,0.3-0.3,0.6-0.4,0.7C163.4,36,163.7,36,163.8,36.1z"/>
	<path class="st0" d="M112.5,32.1c0.7,0.7,1.5,1.6,2.2,2.4c0.1-0.1,0.4-0.3,0.6-0.3c-0.7-0.7-1.5-1.6-2.2-2.4
		c-0.6-0.7-1.5-0.3-2.2-0.4c-0.3,0.3-0.7,0.4-1,0.7C110.7,31.9,111.6,31.9,112.5,32.1z"/>
	<path class="st0" d="M164.1,36.3c0.1,0.7,0.7-0.1,0.9-0.3c-0.1-1.5,0.1-3.1-0.1-4.6c-0.1,0-0.3-0.1-0.3-0.1c0,1.5,0,3,0,4.6
		C164.4,36,164.3,36.1,164.1,36.3z"/>
	<path class="st0" d="M164.9,36.9c0.4,0.3,0.9,0.7,1.3,0.9c-0.1-0.3-0.4-0.7-0.7-1c0.1-0.3,0.3-0.7,0.3-1.2c0-1.3,0-2.5,0-3.9
		c-0.1,0-0.3-0.1-0.4-0.3c0,1.3,0,2.8,0,4.2C165.3,36.3,165,36.4,164.9,36.9z"/>
	<path class="st0" d="M166.7,37.2c0,0.4-0.1,1.2,0.4,1.3c0-0.7,0.1-1.8-0.4-2.4c-0.1-1.2,0-2.4,0-3.6c-0.1-0.1-0.3-0.3-0.4-0.3
		c0,1.3,0,2.4,0,3.7C166.2,36.4,166.8,36.7,166.7,37.2z"/>
	<path class="st0" d="M111.9,34.2c0.4,0.3,0.7,0.9,1.2,1.3c0.1-0.1,0.3-0.3,0.4-0.3c-0.4-0.6-0.9-1-1.5-1.5c-0.7-0.3-1.6,0-2.4-0.1
		c-0.3-0.3-0.6-0.6-0.7-0.9c-0.3,0.1-0.3,0.3-0.6,0.3c0.3,0.4,0.7,0.7,1.2,1.2C110.2,34.2,111.1,34,111.9,34.2z"/>
	<path class="st0" d="M168.6,36c0.6,0,0.9,0.7,1.3,1c0,0.4,0,0.7-0.1,1.3c-0.3,0.4-0.7,0.7-1.2,1.3c0.1,0.1,0.3,0.3,0.3,0.3
		c0.4-0.4,0.9-0.9,1.3-1.3c0-0.6,0.1-1.2,0-1.6c-0.3-0.4-0.7-0.9-1.2-1.3c-0.4,0-1,0-1.3-0.4c-0.7-0.7,0.3-1.9-0.7-2.5
		c0,0.7-0.1,1.6,0,2.2C167.4,35.4,167.9,36,168.6,36z"/>
	<path class="st0" d="M168.5,34.3c0.3,0,0.6-0.1,0.7-0.1c-0.4-0.3-0.9-0.7-1.5-0.9C167.7,33.7,168,34,168.5,34.3z"/>
	<path class="st0" d="M110.7,36.9c-1-1.2-2.1-2.2-3.1-3.3c-0.3,0.1-0.3,0.3-0.6,0.3c1,1.2,2.1,2.2,3.3,3.6
		C110.4,37.2,110.7,37,110.7,36.9z"/>
	<path class="st0" d="M109.5,37.6c-1-1.2-2.1-2.2-3.1-3.4c-0.1,0.1-0.3,0.3-0.4,0.3c1,1.2,2.1,2.2,3.1,3.4
		C109,37.9,109.3,37.8,109.5,37.6z"/>
	<path class="st0" d="M167.9,34.3c-0.1,0.3,0.1,0.7,0.3,0.6C168.5,34.8,168.2,34.3,167.9,34.3z"/>
	<path class="st0" d="M168.8,34.9c-0.3,0.4,0.7,0.6,0.7,0.1C169.4,34.9,168.9,34.9,168.8,34.9z"/>
	<path class="st0" d="M170.7,38.8c-0.4,0.4-0.9,0.9-1.3,1.5c0.1,0,0.3,0.3,0.3,0.3c0.6-0.4,1-1,1.5-1.6c0-0.7,0-1.5,0-2.2
		c-0.3-0.4-0.7-0.9-0.6-1.5c-0.1-0.1-0.3-0.3-0.3-0.3c0,0.3,0,0.7,0,1.2c0.3,0.3,0.4,0.4,0.6,0.7C170.9,37.5,170.9,38.1,170.7,38.8z
		"/>
	<path class="st0" d="M108.1,38.8c-1-1.2-2.2-2.2-3.3-3.4c-0.1,0.1-0.3,0.3-0.4,0.3c1,1.2,2.1,2.2,3.1,3.4
		C107.7,39,108,39,108.1,38.8z"/>
	<path class="st0" d="M173.1,37.3c-0.3-0.3-0.6-0.4-0.9-0.6c-0.3-0.3-0.3-0.6-0.6-0.7C171.5,37,172.2,37.6,173.1,37.3z"/>
	<path class="st0" d="M168.9,36.7c-0.3,0-0.6,0-0.7,0c-0.3,0.3-0.6,0.7-0.7,1c0.3,0.3,0.3,0.6,0.6,0.9c0.7-0.3-0.1-0.6-0.3-0.9
		l0.3-0.1c0,0.1,0.1,0.3,0.3,0.4c0-0.3,0-0.6,0-0.7c0.9,0.3,0.3,1,0.1,1.6c0.4-0.3,1.2-0.4,1-1.2C169.5,37.5,169.2,37,168.9,36.7z"
		/>
	<path class="st0" d="M105.3,41.1c0.3-0.3,0.6-0.6,0.9-0.7c-0.3-0.3-0.4-0.4-0.7-0.7c-0.4,0-0.9,0.1-1.3,0c-0.7-0.6-1.2-1.3-1.8-1.8
		c-0.3,0.3-0.7,0.4-0.9,0.7c0.4,0.7,1.2,1.3,1.8,2.1C103.7,41.1,104.6,40.6,105.3,41.1z"/>
	<path class="st0" d="M172.2,39.4c0.3,0.3,0.4,0.6,0.7,0.9c0.1,0.4,0,1,0,1.5c-0.1,0-0.4,0-0.7,0c0.1-0.3,0.3-0.6,0.3-0.9
		c-0.3-0.3-0.3-0.7-0.7-0.9c-0.6-0.3-1.3,0.3-1.3,0.7c-0.1,0.7,0.6,1,1,1.3c0.6,0,1,0,1.6,0c0.3-0.6,0.1-1.3,0.1-1.9
		c-0.3-0.3-0.6-0.7-0.9-1c0.1-0.1,0.3-0.3,0.3-0.4c0.4,0,0.9,0,1.3,0c0.4,0.3,0.7,0.9,1.5,1c-0.4-0.6-0.9-1-1.5-1.5
		c-0.4,0-1-0.1-1.5,0.1C172.4,38.5,172.1,39,172.2,39.4z M171.9,41.8c-0.1,0-0.3,0-0.4,0c0-0.4-0.6-0.7-0.1-1.2
		c0.3-0.1,0.4,0.3,0.7,0.4c-0.1,0.1-0.3,0.3-0.4,0.4L171.9,41.8z"/>
	<path class="st0" d="M104.4,42.1c-0.3-0.4-1-0.6-1.5-1c-0.7-0.7-1.3-1.5-1.9-2.2c-0.1,0.1-0.3,0.3-0.3,0.3c0.7,0.9,1.6,1.8,2.4,2.7
		C103.5,42.1,104,42.4,104.4,42.1z"/>
	<path class="st0" d="M135.1,39c-0.1,2.1,0,4.2-0.1,6.3c-0.3,0.6-1,0.9-0.7,1.6c0.4-0.4,0.9-0.9,1.3-1.3c0-2.2,0-4.3,0-6.4
		C135.4,39,135.2,39,135.1,39z"/>
	<path class="st0" d="M135.1,47.2c-0.3,0.4-0.7,1.2-0.3,1.6c0.3,0.3,0.7,0.3,1,0.4c0.3-0.3,0.6-0.4,0.7-0.7c0-0.6-0.3-1-0.3-1.6
		c0-2.7,0-5.4,0-7.9c-0.1,0-0.3,0-0.4,0c0,2.8,0,5.4,0,8.2C135.7,47.2,135.2,47.2,135.1,47.2z M136,48.2c-0.1,0.3-0.3,0.4-0.3,0.6
		c-0.3-0.1-0.7-0.3-0.4-0.6C135.4,47.6,135.7,48.1,136,48.2z"/>
	<path class="st0" d="M136,53.2c0.7-0.6,0.3-1.6-0.3-2.2c0.4-0.7,1-1.3,1.6-1.8c0-0.3,0.1-0.7,0.1-1c0-0.4-0.4-0.7-0.4-1.3
		c0-2.5,0-5.1,0-7.6c-0.1-0.1-0.3-0.3-0.3-0.3c-0.1,2.2,0,4.5-0.1,6.7c0,0.6-0.1,1.3,0.3,1.8c0.3,0.6,0.3,1.3-0.3,1.8
		c-0.9,0.9-1.6,1.8-2.2,3C134.5,52.9,135.2,53.8,136,53.2z M135.2,52.9c0.1-0.3,0.3-0.3,0.4,0C135.5,53.2,135.4,53.2,135.2,52.9z
		 M135.4,51.8c0.1,0.1,0.3,0.3,0.4,0.4c-0.3,0.1-0.7,0.1-1,0.3C135.1,52.3,135.2,52,135.4,51.8z"/>
	<path class="st0" d="M140.2,39c0,0.9,0,1.8,0,2.8c0.1,1.3-2.1,1.8-1.6,3.3c0,0.3,0.7,0.6,0.7,0.1c-0.1-0.3-0.3-0.4-0.3-0.6
		c0.3,0,0.4-0.3,0.7-0.1c0.3,0.1,0.1,0.4,0.1,0.7c0,0.1,0.1,0.3,0.1,0.3c0.9-0.3,0.3-1.3,0.6-1.8c0.4-1.5,0.3-3,0.3-4.5
		C140.5,39,140.3,39,140.2,39z"/>
	<path class="st0" d="M141.4,39c-0.1,0-0.3,0-0.4,0c0,2.1,0.1,4.3-0.1,6.4c0.1,0,0.4-0.1,0.6-0.1C141.4,43.2,141.4,41.1,141.4,39z"
		/>
	<path class="st0" d="M132.1,43.9c-0.1,0.6,0.1,1,0.7,1.3v-0.7c-0.1,0-0.3,0-0.4,0c0-0.4,0.3-0.6,0.7-0.7c0,0.1,0.1,0.3,0.1,0.4
		c-0.1,0.3-0.3,0.6-0.3,0.9c0.3,0,0.6-0.3,0.9-0.3c0.7-1.8,0.7-3.9,0.7-5.8h-0.4c0,0.9,0,1.8,0,2.8C133.7,42.7,132.7,43,132.1,43.9z
		"/>
	<path class="st0" d="M141.8,45.2c0.1,0.1,0.3,0.1,0.4,0.3c0-2.1,0.1-4.2,0-6.1c-0.1,0-0.3-0.1-0.4-0.3
		C141.8,41.1,141.8,43.2,141.8,45.2z"/>
	<path class="st0" d="M142.6,45.2c0.1,0,0.3,0.1,0.4,0.1c0.1-2.1,0-4,0.1-6.1c-0.1,0-0.3-0.1-0.4-0.1
		C142.6,41.2,142.6,43.2,142.6,45.2z"/>
	<path class="st0" d="M143.3,45.4c0.1,0,0.3-0.1,0.4-0.1c0-1.9,0.1-3.9,0-5.8c-0.1,0-0.3,0-0.4,0C143.3,41.4,143.3,43.5,143.3,45.4z
		"/>
	<path class="st0" d="M102,44.3c0.4-0.3,0.7-0.7,1.3-1.2c-1-1.2-2.1-2.2-3.1-3.4c-0.1,0.1-0.3,0.3-0.3,0.3c0.9,1,1.9,2.1,2.8,3.1
		C102.5,43.5,102.3,43.9,102,44.3z"/>
	<path class="st0" d="M131.3,39.6c-0.7,0.1-1.6,0.3-2.4,0.4c-0.1,1.8,0,3.6-0.1,5.4c0.7,0,1.6,0,2.4,0
		C131.3,43.5,131.3,41.5,131.3,39.6z"/>
	<path class="st0" d="M132.5,40c-0.3,0.3-0.6,0.6-0.7,0.9c-0.1,0.6,0.3,1,0.7,1.3c0.4-0.1,0.9-0.3,1.2-0.7c0-0.3,0.1-0.6,0.1-0.9
		C133.6,40.2,133,40,132.5,40z M132.4,40.9c0,0.1,0.1,0.3,0.3,0.6C132.2,41.7,132.1,40.9,132.4,40.9z M132.7,41.2c0-0.1,0-0.3,0-0.4
		C133.1,40.5,133.1,41.7,132.7,41.2z"/>
	<path class="st0" d="M138.2,42.1c0.4,0.4,1.3,0,1.3-0.7c0.3-0.7-0.6-1.5-1.3-1.2C137.6,40.5,137.5,41.7,138.2,42.1z M139,40.6
		c0,0.3,0.3,0.7-0.3,0.6c0.1,0.3,0.3,0.4,0.3,0.6c-0.3-0.3-0.6-0.6-0.7-1C138.4,40.8,138.7,40.6,139,40.6z"/>
	<path class="st0" d="M145.4,40c-0.3,0.3-0.9,0.4-0.9,0.9c-0.3,0.4,0.3,0.9,0.6,1.2c0.1-0.3-0.1-0.7-0.3-1c0.1-0.1,0.4-0.3,0.6-0.3
		c0.1,0.1,0.3,0.3,0.3,0.3c-0.1,0.1-0.3,0.3-0.3,0.3l-0.3-0.4c-0.4,0.4-0.1,0.7,0.3,0.7c-0.1,0.1-0.4,0.3-0.7,0.3
		c0.6,0,1.3-0.3,1.3-0.9C146.5,40.6,145.9,40.2,145.4,40z"/>
	<path class="st0" d="M145,43.8c-0.1,0.3-0.3,0.6-0.3,0.9c0.1,0.3,0.3,0.7,0.6,1c0.1-0.3,0.3-0.6,0.4-0.9l-0.3-0.3
		c-0.1,0.1-0.3,0.3-0.4,0.3c0.1-0.3,0.6-0.9,0.9-0.4c0,0.4-0.1,0.7,0,1.3c0.7-0.3,0.7-1.2,0.9-1.8c0.6-1.2,0.3-2.5,0.3-3.9
		c-0.1,0-0.3-0.1-0.4-0.1c0,1,0,2.2,0,3.3C146,43.3,145.4,43.6,145,43.8z"/>
	<path class="st0" d="M174,40.6c-0.6,0.7,0.3,1.6,0.9,1.8c-0.1-0.3-0.3-0.6-0.3-0.7c-0.4-0.3-0.3-0.7,0.1-0.9c0.6,0.1,0.3,0.7,0.3,1
		h-0.3c0.1,0.1,0.3,0.3,0.3,0.4c0.7-0.4,0.7-1.3,0.3-1.9C174.9,40,174.3,40,174,40.6z"/>
	<path class="st0" d="M128.5,40c-0.1,0-0.3,0.1-0.4,0.1c0,1.8,0,3.6,0,5.4c-0.3,0.7-1.2,1.3-1.9,1.3c-0.6,0.1-0.7,0.7-1,1.2
		c0.1,0.3,0.3,0.4,0.3,0.7c0.3,0.3,0.7,0.6,1,0.3c0.7-0.3,0.7-1,0.9-1.8c0.1-0.7,1.2-1.2,1-1.9C128.5,43.6,128.5,42,128.5,40z
		 M126.1,48.7c0,0.1,0,0.3-0.1,0.3c-0.1-0.3-0.3-0.4-0.3-0.7c-0.1,0-0.3-0.1-0.4-0.1c0.3-0.3,0.3-0.4,0.7-0.6
		C126.6,47.9,126.4,48.5,126.1,48.7z"/>
	<path class="st0" d="M147.5,44.6c-0.7,0.7-1.3,1.5-2.1,2.2c-0.3,0.3-0.7,0.4-0.7,1c-0.1,0.6,0.3,1.3,1,1.3c0.3-0.1,0.6-0.3,0.7-0.4
		c0.3-0.7,0.1-1.3-0.3-1.8c0.7-0.7,1.3-1.3,1.9-2.2c0-1.5,0.1-3,0-4.5c-0.1-0.1-0.3-0.3-0.4-0.3C147.5,41.5,147.5,43.2,147.5,44.6z
		 M145.9,48.2c-0.3,0-0.6-0.1-0.7,0C145,47.6,146,47.6,145.9,48.2z"/>
	<path class="st0" d="M99.6,42.3c0.1-0.3,0.3-0.4,0.6-0.7c0-0.1-0.1-0.3-0.1-0.4c-0.1-0.1-0.3-0.3-0.4-0.4c-0.1,0-0.4-0.1-0.6-0.3
		c0.3,0.3,0.7,0.3,0.7,0.7c0.1,0.3-0.3,0.7-0.6,0.9c-0.3-0.3-0.7-0.4-1-0.6c0,0.3,0.1,0.4,0.3,0.7c-0.1,0.1-0.3,0.3-0.3,0.3
		C98.7,42.3,99.2,42.3,99.6,42.3z"/>
	<path class="st0" d="M127.2,40.5c0,0.9,0,1.9,0,2.8c-0.7,0.1-1.8,0.3-1.9,1.2c-0.3,0.7,0.4,1.5,1.2,1.3c0.7-0.3,0.7-1.2,1-1.8
		c0.4-1.2,0.1-2.4,0.3-3.6H127.2z M126.1,44.8c0,0.3,0.1,0.6,0.3,0.7h-0.3c-0.1-0.3-0.3-0.7-0.3-1.2c0.3,0.1,0.6,0.1,0.7,0.3
		C126.6,44.6,126.3,44.8,126.1,44.8z"/>
	<path class="st0" d="M145.1,50.2c0.7,0,1.8,0.1,2.2-0.7c0-0.9,0-1.8,0-2.7c0.4-0.6,1-1,1.3-1.6c0-1.5,0.1-3.1,0-4.6
		c-0.1-0.1-0.3-0.3-0.3-0.3c0,1.6,0,3.1,0,4.8c-0.4,0.6-1,1-1.3,1.6c-0.1,0.9,0,1.8-0.1,2.8c-0.4,0.4-1.3,0.3-1.9,0.3
		c-0.4,0.3-1,0.7-0.7,1.5C144.4,50.9,144.8,50.6,145.1,50.2z"/>
	<path class="st0" d="M175.5,42.6c-0.3,0-0.7,0-1,0c-0.3,0.3-0.6,0.7-0.9,1c-0.4-0.3-0.7-0.9-1.3-1c0.4,0.6,0.9,1,1.5,1.6
		c0.3-0.3,0.7-0.7,1-1c0.3,0,0.6,0,0.9,0c0.4,0.6,1,1.5,1.9,1c0.1-0.7,0.1-1.3,0.1-1.9c-0.1-0.4-0.6-0.7-0.7-1
		c0-0.3-0.1-0.6-0.1-0.7c-0.7,0.6,0.1,1.3,0.6,1.8c0,0.6,0,1,0,1.6C176.4,43.6,176.1,43,175.5,42.6z"/>
	<path class="st0" d="M126.6,42.1c0.3-0.4,0.3-1,0.3-1.6c-0.7-0.1-0.4,0.7-0.6,1.2c-0.7,0.7-1.5,1.5-2.1,2.2c-0.1,2.4,0,4.9,0,7.5
		c0.3,0.4,0.7,0.7,0.9,1.3c0,0.7,0,1.3,0,2.2c0.3,0,0.3,0,0.6,0c-0.1-0.7,0-1.6-0.1-2.2c-0.3-0.6-1-0.9-0.9-1.5c0-2.2,0-4.5,0-6.9
		C125.2,43.5,126,42.9,126.6,42.1z"/>
	<path class="st0" d="M149.2,47.2c-0.4,0-1.2,0.1-1.3,0.7c-0.3,0.4,0.1,0.9,0.3,1.3c0.3-0.3,0.4-0.3,0.7-0.6
		c-0.1,0.1-0.4,0.4-0.6,0.6c0.6,0.3,1.3-0.3,1.3-0.7c-0.1-2.5,0-5.1,0-7.6c-0.1,0-0.3-0.1-0.4-0.1C149.2,42.9,149.2,44.9,149.2,47.2
		z M148.1,48.7c0-0.3,0.3-0.6,0.4-0.7c0.3,0.3,0.3,0.4,0.4,0.6C148.9,48.5,148.4,48.7,148.1,48.7z"/>
	<path class="st0" d="M122.4,53.8c0,0.3,0.1,0.7,0.3,1c0.7,0,1.3,0,1.9,0c-0.3-0.3-0.7-0.4-0.7-1c0-3.3,0-6.9,0-10.2
		c0.7-0.9,1.9-1.5,1.9-2.8c-0.6,0.3-1,0.3-1.6,0.6c-0.4,0.4-0.9,0.9-1.3,1.5c-0.4,0.3-0.3,1-0.3,1.5
		C122.5,47.6,122.4,50.8,122.4,53.8z"/>
	<path class="st0" d="M150.1,49c-0.3,0.3-0.4,0.4-0.6,0.7c-0.6,0-1.2,0-1.8,0c-0.3,0.3-0.7,0.9-1.3,0.9c-0.6,0.1-1.3,0-1.5,0.6
		c-0.4,0.7,0.3,1.5,0.9,1.8c0.7-0.3,1-0.9,0.9-1.6c0.4-0.3,0.7-0.7,1.2-1c0.4,0,1,0,1.5,0c0.3-0.3,0.7-0.7,1-1.3c0.1-0.4,0-1,0-1.6
		c-0.3-2.1,0-4.3-0.1-6.4c-0.1-0.1-0.3-0.3-0.4-0.3c0,1.5,0,3.1,0,4.6C150.1,46.7,150.4,47.8,150.1,49z M145.3,52.3
		c0-0.3,0.3-0.7,0.6-0.9c0.1,0.3,0.3,0.6,0.3,0.7C145.9,52.1,145.4,52.1,145.3,52.3z"/>
	<path class="st0" d="M151.1,40.9c-0.4,0.7,0.3,1,0.7,1.3c0.3-0.1,0.4-0.3,0.7-0.3c-0.1-0.1-0.3-0.1-0.3-0.3c-0.1,0-0.3,0.1-0.3,0.1
		c-0.3-0.3-0.4-0.4-0.7-0.6C151.1,41.1,151.1,41.1,151.1,40.9z"/>
	<path class="st0" d="M153.4,44.1c0.3-0.6,0.3-1.2,0.4-1.8c-0.1,0-0.3-0.1-0.3-0.1c-0.7,0.3-1.8,0.3-1.9,1.3c-0.3,0.7,0.4,1,0.9,1.3
		C152.8,44.6,153.1,44.5,153.4,44.1z M152,43.5c0,0.3,0.1,0.6,0.3,0.7c0-0.3,0-0.7,0-0.9c0.7,0.3,0.3,0.9,0.1,1.3h-0.3
		C152,44.2,151.6,43.8,152,43.5z"/>
	<path class="st0" d="M176.1,45.4c-0.1-0.7-0.1-1.8-1-1.8c-0.6-0.1-0.7,0.6-1,1c0.4,0.4,0.7,1.2,1.5,1c0.4,0,0.7,0.1,1.3,0.1
		c0.7,0,1.2-0.6,1.5-1c0.1-0.7,0-1.5,0-2.2c-0.1-0.1-0.3-0.3-0.4-0.4c0,0.7,0,1.6,0,2.4C177.5,45.2,176.9,45.7,176.1,45.4z
		 M175.1,45.5L175.1,45.5c-0.1-0.3-0.3-0.4-0.6-0.6c0.1-0.3,0.3-0.3,0.3-0.6c0.3,0.1,0.3,0.3,0.6,0.4
		C175.1,44.9,175.1,45.1,175.1,45.5z"/>
	<path class="st0" d="M99.5,43.5c-0.4,0.6-0.9,1.8-0.1,2.2c0.4,0.4,0.9,0,1.3-0.3c0.3-1.2-0.6-1.9-0.7-3
		C99.9,42.7,99.8,43,99.5,43.5c-0.4-0.1-1-0.3-1.5-0.4C98.4,43.3,99,43.6,99.5,43.5z"/>
	<path class="st0" d="M151.7,49.3l0.1-0.4c0.1,0,0.3-0.1,0.3-0.3c0,0.3-0.1,0.6-0.3,0.7c0.3-0.3,1-0.4,0.9-1c0.1-0.6-0.4-1-0.7-1.5
		c0.7-0.9,1.5-1.8,2.2-2.5c0-0.6,0-1,0-1.6c-0.1,0-0.3-0.1-0.4-0.1c0,0.4,0,0.9,0,1.3c-1,1.3-2.7,2.4-3.1,4.2
		C151,48.7,151.4,49.1,151.7,49.3z M152,47.8c0.1,0.3,0.3,0.4,0.4,0.7c-0.3,0-0.7,0-1,0.1C151.6,48.2,151.7,48.1,152,47.8z"/>
	<path class="st0" d="M121.2,42.7c0.1,0.3,0.3,0.6,0.4,0.7c0.1,1.3,0,2.7,0,3.9c-0.3,0.3-0.3,0.3-0.6,0.6c0.3-0.1,0.4-0.3,0.6-0.3
		c0.3,0.9-0.6,1.3-1.2,1.9c-0.4,0.6-1.3,0.3-1.8,0.9c-0.6,0.7,0,1.9,0.9,1.8c0.7-0.3,0.7-1.3,1.2-1.9c0.4-0.6,1.2-1,1.5-1.8
		c-0.1-1.8,0-3.3,0-5.1C122.2,43,121.8,42.3,121.2,42.7z M118.8,51.5c0.1-0.3,0.3-0.7,0.7-0.6c0,0.1,0.1,0.4,0.1,0.7
		C119.4,51.7,119.1,51.7,118.8,51.5z"/>
	<path class="st0" d="M149.3,51.1c-0.3-0.1-0.4-0.3-0.7-0.3c-0.6,0.1-0.9,0.6-1.2,1c0.1,0.3,0.3,0.7,0.4,0.9
		c0.3,0.4,1.2,0.3,1.3-0.3c0.4-0.7,0.7-1.5,1.3-2.2c0.9-0.3,1.9,0.3,2.7-0.4c1-0.9,0.3-2.4,0.6-3.4c0.4-0.6,1-1,1.5-1.6
		c0-0.4,0-0.9,0-1.3c-0.1-0.1-0.3-0.1-0.4-0.3c0,0.4,0,0.9,0,1.3c-0.6,0.6-1.2,1.2-1.6,1.8c-0.3,1.2,0.4,2.7-0.7,3.4
		c-0.7,0.1-1.3,0-1.9,0C150.1,50,149.8,50.6,149.3,51.1z M148.3,52.3c0.3-0.3,0.4-0.1,0.4,0.1C148.4,52.7,148.3,52.7,148.3,52.3z
		 M148,52.1c0-0.3,0.1-0.4,0.3-0.6c0.3,0,0.4,0.3,0.6,0.6C148.6,52.1,148.4,52.1,148,52.1z"/>
	<path class="st0" d="M120.3,45.4c0.6-0.3,1-0.7,0.7-1.3c-0.1-0.4-0.4-0.7-0.7-0.7c-0.3,0.3-0.9,0.3-1,0.7
		C118.9,44.6,119.7,45.4,120.3,45.4z M120.6,44.2c-0.3,0.3-0.3,0.9-0.7,0.9c0-0.3,0.1-0.6,0.1-0.7l-0.3-0.1
		C119.8,43.9,120.3,43.8,120.6,44.2z"/>
	<path class="st0" d="M177.5,46.4c-0.7,0-1.3,0-2.1,0c0.1,0.1,0.3,0.4,0.4,0.4c0.6,0,1.2,0.1,1.8,0c0.6-0.4,1-0.9,1.3-1.5
		c0.1-0.7,0.3-1.6-0.3-2.2c0,0.7,0,1.3,0,1.9C178.4,45.5,177.9,46,177.5,46.4z"/>
	<path class="st0" d="M154.1,46.7c-0.1,0.9,0,1.8,0,2.7c-0.4,0.6-0.9,1.3-1.8,1.3c-0.7,0.1-1.8,0.3-2.1,1.2
		c-0.1,0.6,0.3,1.2,0.7,1.5c0-0.1,0-0.4-0.1-0.7c0.1,0,0.3,0,0.4,0c-0.1,0.1-0.3,0.4-0.3,0.7c1-0.3,1.2-1.3,1.3-2.1
		c1,0,1.3-0.9,2.1-1.5c0.3-0.9-0.1-1.8,0.1-2.8c0.3-0.7,1.2-1.2,1.6-1.8c0.1-0.6,0.3-1.3-0.4-1.8c0,0.4,0.1,0.9,0,1.5
		C155.3,45.4,154.6,46,154.1,46.7z M150.5,52.3c0.3-0.3,0.3-0.4,0.7-0.4c0.1,0.1,0.3,0.3,0.4,0.4C151.3,52.3,151,52.3,150.5,52.3z"
		/>
	<path class="st0" d="M152.8,52.1c-0.6,0.7,0.4,2.1,1.3,1.5c0.7-0.3,0.7-1.3,0-1.8c0.4-0.6,0.9-1,1.3-1.5c0.1-1-0.1-2.1,0.1-3
		c0.4-0.7,1.2-1.2,1.6-1.8c0-0.6,0.3-1.3-0.4-1.5c0,0.4,0.1,1-0.1,1.3c-0.4,0.6-1,1-1.5,1.6c-0.1,1,0,1.9-0.1,3
		C154.4,50.8,153.5,51.2,152.8,52.1z M153.7,53.5c-0.1,0-0.3,0-0.3,0c0.1-0.1,0.3-0.3,0.4-0.6c-0.3,0-0.6-0.1-0.7-0.1
		c0.3-0.3,0.6-0.6,0.9-0.3C153.8,52.9,153.7,53.2,153.7,53.5z"/>
	<path class="st0" d="M118.8,44.1c-0.3,0.1-0.4,0.3-0.7,0.4c0,0.6,0,1.2,0,1.8c0.3,0.3,0.6,0.7,0.7,1c-0.3,0.3-0.4,0.6-0.6,0.9
		c0,0.4,0.3,1.2,0.7,1c-0.1-0.3-0.3-0.4-0.4-0.7c0.3-0.4,0.7-0.7,1-0.1c-0.1,0.3-0.3,0.6-0.4,0.9c0.6,0.1,0.7-0.3,1.2-0.7
		c0-0.7-0.7-1.3-1.2-2.1C118.3,46,118.8,44.8,118.8,44.1z"/>
	<path class="st0" d="M178.4,49c-0.3,0-0.7,0.1-0.9,0.1c0.1,0.1,0.3,0.3,0.4,0.4c0.9,0.1,1.5-0.9,2.1-1.5c0.1-1,0-2.1,0-3.1
		c0-0.3-0.3-0.6-0.4-0.7c0,1.3,0,2.4,0,3.7C179.1,48.2,178.8,48.7,178.4,49z"/>
	<path class="st0" d="M117.3,44.9c-0.1,0.7,0,1.8,0.1,2.5c0.1,1.3-0.1,2.8,0,4.2c0,0.3,0.3,0.6,0.3,0.7c0.7,0.7,1.5,1.6,2.2,2.5
		c0.3,0,0.6,0,0.9,0c-1.3-0.7-1.9-1.9-3-3c0-1.5,0-2.8,0-4.3c-0.3-0.9-0.3-1.9-0.1-2.8C117.6,44.6,117.4,44.8,117.3,44.9z"/>
	<path class="st0" d="M155.9,47.2c-0.1,1,0,2.1,0,3.1c-0.3,0.3-0.7,0.7-0.7,1c0,1,0,2.1-0.3,3.1c-0.3,0.7-0.1,1.5,0.6,1.9
		c0.4,0,1-0.1,1.3-0.6c0.4-0.7-0.3-1.5-1-1.6c0-0.9,0-1.8,0-2.8c0.3-0.3,0.6-0.7,0.7-1c0-1-0.1-2.1,0-3.1c0.6-0.9,1.5-1.6,2.2-2.4
		c-0.1-0.1-0.3-0.3-0.3-0.3C157.4,45.5,156.6,46.4,155.9,47.2z M155.6,55.1c0.4,0,0.3,0.7,0.1,0.7C155.7,55.7,155.6,55.4,155.6,55.1
		c-0.1,0.1-0.4,0.3-0.6,0.3C155.2,55.4,155.2,55,155.6,55.1z"/>
	<path class="st0" d="M94.8,47.9c-0.3,0.3-0.6,0.7-0.6,1c-0.1,0.7,0.6,1.2,1.3,1c0.4-0.1,0.6-0.6,0.7-1c-0.3-0.7-0.7-1.3-1-2.2
		c-0.1-0.6,0-1.2,0-1.8C94.7,45.8,95,47,94.8,47.9z M95.9,49c-0.1,0.3-0.3,0.4-0.4,0.7c-0.1-0.3-0.3-0.4-0.4-0.7l0,0
		c0.1-0.1,0.3-0.3,0.4-0.3C95.4,48.7,95.6,48.8,95.9,49z"/>
	<path class="st0" d="M158.9,45.4c-0.7,0.7-1.5,1.6-2.2,2.4c0,0.9-0.1,1.8,0,2.8c0,0.7-0.7,0.9-0.7,1.5c-0.1,0.4,0,1,0,1.5
		c0.3,0.4,0.7,0.7,1.2,1.2c1,0,2.1,0,3.1,0c0.6,0,0.7-0.6,1.2-0.7c1.6,0,3.3,0,4.8,0c0.3,0,0.7,0,0.7,0.3c0.3,0.7,0.3,1.8,1.2,2.2
		c0.6,0.3,1.2-0.4,1.3-1c-0.3-0.3-0.4-0.7-0.7-1.2c-0.7-0.3-1.3-0.4-1.9-0.7c-1.6-0.1-3.3,0-4.8-0.1c-0.9-0.3-1.2,1.2-1.9,0.9
		c-0.7,0-1.6,0-2.4,0c-0.7-0.3-1.2-0.9-0.9-1.8c-0.1-0.7,0.9-1,0.9-1.8c0-0.9,0-1.8,0-2.8c0.7-0.9,1.5-1.8,2.2-2.5
		C159.2,45.5,159,45.2,158.9,45.4z M168.2,56.3c-0.3-0.1-0.3-0.3,0-0.4C168.5,55.9,168.5,56,168.2,56.3z M167.9,55
		c0.4-0.3,0.7,0.7,0.1,0.4C167.6,55.7,167.4,55.1,167.9,55z"/>
	<path class="st0" d="M180.3,48.4c-0.4,0.7-1,1.2-1.6,1.8c-0.1,0-0.4,0.1-0.6,0.1c0.3,0.3,0.4,0.6,0.7,0.3c0.7-0.6,1.3-1.3,1.8-1.9
		c0.1-0.7,0-1.5,0-2.2c0.1,0,0.3,0.1,0.4,0.3c-0.1,0.7,0,1.5,0,2.2c-0.7,0.7-1.5,1.8-2.2,2.5c0.1,0.1,0.3,0.3,0.4,0.3
		c0.7-0.9,1.5-1.8,2.2-2.5c0-0.7,0-1.3,0-1.9c0-0.4-0.4-0.6-0.7-0.7c0-0.4-0.3-0.7-0.4-1C180.3,46.1,180.3,47.3,180.3,48.4z"/>
	<path class="st0" d="M115.8,49.3c0.7,0,1.3-0.7,1-1.5c-0.3-0.7-0.7-1.2-1.3-1.8c-0.1,0.1-0.3,0.3-0.4,0.4c0.1,0.3,0.3,0.3,0.4,0.6
		c-0.3,0.4-0.4,0.7-0.6,1.3C115.2,48.7,115.5,49.1,115.8,49.3z M116.1,47.8c0.1,0.1,0.3,0.3,0.3,0.4c-0.3,0.3-0.3,0.4-0.3,0.7h-0.3
		c0.1-0.1,0.3-0.3,0.4-0.4c-0.1,0-0.4,0-0.7,0C115.6,48.2,115.8,47.9,116.1,47.8z"/>
	<path class="st0" d="M157.7,48.1c-0.6,0.7,0.1,1.3,0.6,1.8c0-0.3,0-0.6,0-0.7c-0.6,0.3-0.4-0.7-0.1-0.7c0.3-0.3,0.4,0.3,0.6,0.3
		c-0.3,0.3-0.3,0.6-0.3,1c1-0.3,1-1.3,0.6-2.1c0.3-0.6,1-0.9,1.3-1.6h-0.3C159.2,46.7,158.4,47.3,157.7,48.1z"/>
	<path class="st0" d="M94.2,47.9c0.1-0.4,0.3-1,0.3-1.6c-0.4,0.7-0.7,1.3-1.3,2.1c0,0.1,0.1,0.3,0.1,0.3
		C93.6,48.5,94.1,48.2,94.2,47.9z"/>
	<path class="st0" d="M160.1,47.3c-0.4,0.7,0.3,1.8-0.6,2.4c-0.3,0.4-0.9,0.3-1.3,0.6c-0.3,0.3-0.6,0.7-0.6,1.3
		c-0.3,0.3-0.7,0.3-0.7,0.7c-0.3,0.6,0.3,1,0.4,1.5c0.3-0.3,0.3-0.7,0.3-1.3h-0.3c0.3-0.1,0.4-0.1,0.7-0.3c0.1,0.3,0.3,0.7-0.1,0.9
		c0.1,0.1,0.3,0.3,0.3,0.4c0.1-0.1,0.3-0.4,0.6-0.7c0.1-0.7-0.3-1.3-0.6-1.9c0.3-0.3,0.3-0.6,0.7-0.6c0.7,0,1.3-0.6,1.5-1.2
		c0.1-0.6,0-1.2,0.1-1.8c0.3-0.3,0.4-0.6,0.7-0.9C160.7,46.3,160.2,47,160.1,47.3z"/>
	<path class="st0" d="M114.6,46.9c-0.9,0.3-0.4,1.3-0.6,1.9c1,1,0.3,3.1,1.6,3.9c0.7,0.3,1.6-0.7,1.2-1.5c-0.6-0.9-1.5-1.8-2.2-2.5
		C114.6,48.2,114.7,47.5,114.6,46.9z"/>
	<path class="st0" d="M138.4,47.2c-0.1,0.3-0.3,0.3-0.4,0.6c0,0.4,0.1,0.9,0.4,1.3C138.4,48.5,138.4,47.9,138.4,47.2z"/>
	<path class="st0" d="M160.7,48.2c0,0.6,0.4,1.3,1,1.2c0.6,0,0.7-0.7,1.2-1c-0.4-0.3-1-0.7-1.5-1.2
		C161.3,47.5,160.8,47.6,160.7,48.2z"/>
	<path class="st0" d="M113.7,47.6c-0.6,0.3-1,0.9-1.6,1.3c0.4,0.3,1,0,1.3-0.3C113.5,48.4,113.7,48.1,113.7,47.6z"/>
	<path class="st0" d="M179.4,52.1c0.1,0.1,0.3,0.3,0.3,0.3c0.9-1,1.8-1.9,2.8-3c0-0.7,0-1.3-0.4-2.1c0,0.6,0,1.3,0,1.8
		C181.2,50.2,180.1,51.1,179.4,52.1z"/>
	<path class="st0" d="M94.2,50.8c0.4,0.6,1.3,0.3,1.8,0.3c0.6-0.4,1-1.2,1.6-1.8c0.3-0.1,0.7-0.3,0.7-0.7c-0.3,0-0.9-0.1-1.2,0.3
		c-0.4,0.6-0.9,1.2-1.5,1.6c-0.3,0.1-0.7,0-1.3,0c-0.6-0.4-0.9-1-1.3-1.3c-0.3-0.3-0.6,0.1-0.7,0.3C93.3,49.4,93.6,50.2,94.2,50.8z"
		/>
	<path class="st0" d="M126.7,50.3c-0.4,0.7-0.3,1.3-0.3,2.2c0,0.7-0.1,1.6,0.3,2.2c0.6,0,1.2,0,1.8,0c0-2.1,0-4.3,0-6.4
		C127.8,49.1,127.2,49.7,126.7,50.3z M127.8,53.6c-0.3-0.3-1.2-1.2-0.3-1.5c0,0,0-0.1,0-0.3c0.1,0,0.4,0,0.6,0
		c0,0.1-0.1,0.3-0.1,0.3c0,0.1,0.1,0.4,0.1,0.6l0.3-0.1C128.1,53,127.9,53.5,127.8,53.6z"/>
	<path class="st0" d="M160.5,53.3c0.7-0.7,0.7-2.1,1-3c0.4-0.1,1,0,1.3-0.4c0.3-0.3,1-0.7,0.4-1.3c-0.3,0.3-0.7,0.7-1,1
		c-0.3,0.3-0.7,0.1-1.2,0.1c-0.6,0.6-1.3,1.2-1.8,1.8c-0.3,0.3-0.3,0.7-0.3,1.2c0.3,0.3,0.3,0.4,0.6,0.7c0.1-0.3,0.3-0.7,0.3-0.9
		c-0.1,0-0.4,0-0.6,0c0.1-0.3,0.3-0.6,0.6-0.6c0.1,0.1,0.3,0.3,0.4,0.3C159.8,52.6,160.2,53,160.5,53.3z"/>
	<path class="st0" d="M180.1,53.2c0.9-1,1.9-2.1,2.8-3.1c0.4-0.3,0-0.7-0.3-1.3c0,0.3,0,0.6,0,0.9c-1,1.2-2.1,2.2-3,3.3
		C179.9,53,180.1,53.2,180.1,53.2z"/>
	<path class="st0" d="M111.6,49.6c-0.7,0-0.3,0.7-0.3,1.3c0.4,0.7,1,1.5,1.9,1.6c0.7,0.3,0.9,1,1.6,1.3c0.9,0.1,1.8,0,2.8,0.1
		c0.4,0.3,0.3,0.7,0.4,1.2c0.1,0,0.4-0.1,0.6-0.1c-0.1-0.7-0.6-1.6-1.3-1.5c-0.7,0-1.5,0-2.2,0c-0.6-0.6-1.2-1.6-2.2-1.3
		c-0.3-0.3-0.7-0.7-1-1.2C111.7,50.3,111.7,49.9,111.6,49.6z"/>
	<path class="st0" d="M94.1,51.8c0.7,0,1.5,0,2.2,0c0.4-0.7,0.9-1.3,1.3-2.1c-0.6,0.4-0.9,1.2-1.6,1.5c-0.6,0.1-1.3,0-1.8,0
		c-0.6-0.7-1-1.5-1.9-1.6c-0.1,0.3-0.3,0.3-0.3,0.6c0.3,0,0.6,0.1,0.7,0.1C93.2,50.9,93.6,51.4,94.1,51.8z"/>
	<path class="st0" d="M165.3,53c0.3-0.1,0.6-0.3,0.7-0.7c0.3-0.9-0.7-1.5-1.2-2.1c-0.3,0.6-0.6,1-0.7,1.6
		C164.3,52.4,164.7,53,165.3,53z M164.6,52.3c0.1-0.3,0.3-0.4,0.3-0.7c0.3,0.1,0.6,0.3,0.6,0.7C165.3,52.3,164.9,52.3,164.6,52.3z"
		/>
	<path class="st0" d="M137,51.7c-0.4,0.7,0.4,1.8,1.3,1.5c0-0.7,0-1.6,0-2.4C137.9,50.9,137.2,51.1,137,51.7z M138.2,52
		c-0.3,0.3-0.3,0.7-0.1,1.2h-0.3c0-0.1,0-0.4,0.1-0.6h-0.4C137.5,52,137.8,51.7,138.2,52z"/>
	<path class="st0" d="M92,53.5c0.3-0.6-0.7-0.9-0.1-1.3c0.3-0.6,1.3,0.4,0.7,0.7L92,52.7c0.1,0.1,0.3,0.3,0.4,0.4L92,53.5
		c1.2-0.1,2.2,0.1,3.6-0.1c0.1-0.1,0.3-0.3,0.3-0.4c-0.7,0-1.5,0-2.2,0c-0.1,0-0.3-0.1-0.3-0.1c0.1-0.6,0-1.3-0.4-1.5
		c-0.7-0.4-1.8,0.6-1.5,1.3C91.4,53,91.7,53.3,92,53.5z"/>
	<path class="st0" d="M108.4,53c0.9,0.3,2.1-0.7,1.3-1.8c-0.3,0.3-0.4,0.6-0.6,0.9c-0.1,0-0.3,0-0.3,0c0.1,0.1,0.3,0.3,0.3,0.4
		c-0.3,0-0.6-0.1-0.7-0.1C108.4,52.7,108.4,52.9,108.4,53z"/>
	<path class="st0" d="M91.5,54.5c0.3,0.1,0.7,0,1.2,0.1c0.7-0.4,1.5-0.3,2.2-0.3c0.1-0.1,0.3-0.3,0.3-0.4c-0.7,0-1.3,0-2.1,0
		c-0.4,0.3-1,0.3-1.5,0.3c-0.4-0.4-1-0.9-0.7-1.6c-0.1,0.3-0.3,0.6-0.4,0.7C90.8,53.6,91.1,54.1,91.5,54.5z"/>
	<path class="st0" d="M149.3,53.3c-1.8,0-3.4-0.1-5.2,0c0,0.1,0,0.4-0.1,0.7c0.4-0.1,0.7-0.3,1.3-0.3c1.6,0,3.3,0,4.9,0
		c0.9,1,1.9,2.1,2.8,3.1c0.3,0.3,0.7,0.7,1.2,0.7c0.6,0,1.3,0,1.8,0c0.7-0.6,1.3-1.5,2.1-2.1c2.5-0.1,5.1,0,7.6,0
		c0.4,0.6,0.9,1,1.5,1.6c0.4,0,0.9,0,1.3,0c0.4-0.3,0.7-0.7,1-1c-0.1-0.1-0.3-0.3-0.3-0.4c-0.3,0.3-0.4,0.7-0.7,0.9
		c-0.3,0.1-0.7,0.1-1.2,0.1c-0.4-0.4-0.9-0.9-1.3-1.3c-0.3-0.3-0.7-0.3-1.2-0.3c-2.2,0.1-4.6-0.1-6.9,0c-0.7,0.7-1.3,1.5-2.1,2.2
		c-0.7,0-1.3,0-1.9-0.1c-1.2-1.2-2.2-2.5-3.4-3.7C150.4,53.2,149.8,53.3,149.3,53.3z"/>
	<path class="st0" d="M108,54.5c0.1,0.3,0.3,0.6,0.4,0.7c0.3-0.3,0.6-0.3,0.7-0.1c-0.1,0-0.4,0.1-0.7,0.1v0.3c0.7,0.1,1.3-0.4,1.5-1
		c-0.3-0.4-0.3-1-0.9-1C108.4,53.3,108.1,54.1,108,54.5z M109,55c-0.1-0.3-0.3-0.4-0.4-0.6c0,0.1-0.1,0.3-0.1,0.4
		c-0.1,0-0.3,0-0.3,0c0.1-0.3,0.3-0.6,0.4-0.7C109,54.4,109.3,54.7,109,55z"/>
	<path class="st0" d="M134.2,54.2c1.3,0,2.8,0.1,4.3,0c0-0.3,0-0.3,0-0.6c-1.3,0-2.8,0-4.2,0C134.2,53.8,134.2,54.1,134.2,54.2z"/>
	<path class="st0" d="M91.1,55.4c1.2,0.4,2.2-0.3,3.4-0.1c0.1-0.3,0.3-0.3,0.3-0.6c-1.3,0-2.4,0.7-3.7,0.3c-0.4-0.3-0.7-0.7-1-1.2
		c-0.1,0.1-0.3,0.3-0.3,0.3C90.2,54.5,90.6,55,91.1,55.4z"/>
	<path class="st0" d="M106.2,55.7c-0.1,0.1-0.3,0.3-0.3,0.3c0.3,0.1,0.4,0.4,0.7,0.4c1.3,0,2.7,0,3.9,0c0.7,0,1.5-0.3,2.2-0.3
		c0.3-0.3,0.6-0.4,0.6-0.7c0.3-0.7-0.7-1.8-1.5-1.2c-0.4,0.6-0.6,1.3-1.2,1.8c-1.3,0.1-2.7,0-3.9,0
		C106.6,56.2,106.5,55.9,106.2,55.7z M112.6,54.8c0.9-0.1,0.3,1.3-0.3,1.3l0.1-0.4C112.2,55.4,112.2,55,112.6,54.8z"/>
	<path class="st0" d="M151,55.4c-0.3-0.4-0.7-0.9-1.3-0.9c-1-0.1-2.1,0-3.1,0c-0.7,0-1.8-0.1-2.4,0.6c0.4,0.3,1,0.3,1.5,0.3
		c2.2,0.3,4.6,0.9,6.9,1.8C152,56.3,151.4,55.9,151,55.4z"/>
	<path class="st0" d="M90.3,56.3c1.3,0,2.4,0.1,3.7,0c0-0.1,0.1-0.3,0.1-0.4c-1.2,0-2.4,0-3.6,0c-0.4-0.1-0.7-0.7-1-0.9
		C89.1,55.6,90,55.9,90.3,56.3z"/>
	<path class="st0" d="M89.7,57.2c1.3,0.1,2.5,0,3.9,0c0-0.1,0.1-0.3,0.1-0.4c-1.3,0-2.5,0-3.9,0c-0.3-0.3-0.4-0.6-0.7-0.9
		C88.7,56.5,89.3,56.9,89.7,57.2z"/>
	<path class="st0" d="M159.8,58.4c0.3-0.3,0.4-0.4,0.7-0.6c0.4,0,0.9,0,1.3-0.1c0,0.1-0.1,0.3-0.3,0.4c0.6,0,1.3-0.3,1.8,0.1
		c0.6,0.4,0.7,1.3,1.5,1.5c0-0.3,0-0.6,0-0.9c-0.1,0-0.3-0.1-0.4-0.1c0.3-0.3,0.4-0.3,0.7-0.6c0.1,0.3,0.3,0.3,0.3,0.6
		c0,0.1-0.1,0.3-0.1,0.3v0.3c0,0.1,0,0.3,0.1,0.4c0.3-0.3,0.6-0.7,0.7-1c-0.1-0.3-0.3-0.7-0.6-1c-0.6-0.3-0.7-0.9-1.3-1.3
		c-0.7-0.1-1.3,0-2.2,0c-0.1-0.1-0.3-0.3-0.3-0.3c-0.6,0-1.2-0.1-1.8-0.1c0,0.3,0,0.7,0,1c-0.1-0.1-0.4-0.3-0.6-0.3
		C159.8,57.2,159.8,58,159.8,58.4z M161.4,56.5c0.3,0.3,0.4,0.7-0.1,0.9c-0.4,0.1-1.3,0.4-1.5-0.3C160.4,56.9,160.8,56.8,161.4,56.5
		z"/>
	<path class="st0" d="M105.6,56.9c0.3,0.3,0.4,0.3,0.6,0.6c1.6,0,3.3,0,4.8,0c1,0,2.2-0.3,3.3,0c0.6,0.6,1.3,1,2.1,1.5
		c0-0.3,0-0.6,0-0.7l-0.3-0.1c0.1-0.4,0.3-0.7,0.3-1.3c-0.4,0.3-0.9,0.4-1.3,0.7c-0.6-0.7-1.6-0.6-2.4-0.6c-2.1,0.3-4.2,0.1-6.1,0.3
		c-0.3-0.3-0.4-0.4-0.6-0.6C105.6,56.5,105.6,56.6,105.6,56.9z"/>
	<path class="st0" d="M168.8,58.1c-0.4-0.3-1.2-0.4-1.5,0.1c-0.6,0.6-0.1,1.6,0.7,1.8c0.4,0,0.9-0.3,0.9-0.9c0.1-0.9,1-1.3,1.5-2.1
		c-0.1-0.1-0.3-0.3-0.3-0.3C169.7,57.2,169.2,57.7,168.8,58.1z M168,59.8c-0.1,0-0.3,0-0.3,0c0-0.1,0.1-0.3,0.1-0.4
		c-0.3-0.1-0.3-0.3-0.6-0.3c0.3-0.1,0.4-0.3,0.6-0.4c0.1,0.1,0.3,0.3,0.4,0.4H168C168,59.2,168,59.6,168,59.8z"/>
	<path class="st0" d="M92.6,59c0.3,0,0.3-0.3,0.4-0.4c-0.9-0.1-1.8,0-2.7,0c-0.7-0.4-1.2-1.2-1.8-1.8c0,0.1,0,0.3,0,0.6
		c0.4,0.6,0.9,1,1.3,1.6C90.8,59,91.7,59,92.6,59z"/>
	<path class="st0" d="M182.4,57.8c1.6,0,3.3,0,4.9,0c-0.1-0.3-0.3-0.4-0.3-0.7c-1.8,0-3.3,0-5.1,0C182.2,57.4,182.2,57.5,182.4,57.8
		z"/>
	<path class="st0" d="M104.9,58c0,0.1-0.1,0.3-0.3,0.3c0.4,0.7,1.2,1.3,1.8,1.9c0.3,0.3,0.7,0.3,1.2,0.3c0.3,0.3,0.4,0.4,0.7,0.4
		c0.9,0,1.8,0,2.8,0c0.4-0.7,1.3-0.7,2.1-1c1-0.4,0.6-2.2-0.4-2.1c-0.7,0.3-1,1-1.2,1.8c-0.3,0.3-0.4,1-1,0.7
		c-0.9-0.1-1.9,0.3-2.8-0.3c-0.1-0.3-0.1-0.4-0.3-0.7c0.4,0.3,0.9,0.9,1.5,0.6c0.3-0.3,0-0.7,0-1c0.1-0.1,0.3-0.3,0.3-0.3
		c0.3,0.3,0.3,0.3,0.6,0.6c-0.1,0-0.4,0.1-0.7,0.1l0,0c0,0.1,0,0.3,0,0.3v0.1c0,0,0.1,0.1,0.3,0.3c0.9-0.1,1.2-1.3,0.7-1.9
		c-0.3-0.1-0.7-0.3-1-0.1c-0.4,0.3-0.7,0.7-0.7,1.3c-0.3-0.3-0.9-0.3-1.3-0.3c-0.6-0.6-1.2-1.2-1.6-1.8c-0.1,0.1-0.3,0.3-0.3,0.3
		c0.6,0.7,1.2,1.3,1.8,1.9c0.1,0,0.3,0,0.4,0c0.1,0.1,0.3,0.3,0.3,0.4c-0.3,0-0.7-0.1-1-0.3C106.1,59.2,105.5,58.4,104.9,58z
		 M112.6,58.4c0.3,0,0.4,0.1,0.6,0.3c-0.1,0.3-0.1,0.6-0.3,0.9c-0.3,0-0.4-0.1-0.6-0.3h0.6c0-0.1-0.1-0.4-0.1-0.7
		c-0.1,0.1-0.4,0.3-0.6,0.4C112.3,59,112.5,58.7,112.6,58.4z"/>
	<path class="st0" d="M170,58.1c-0.1,0.3,0,0.7-0.3,1c-0.7,0.7-1.3,1.5-2.2,2.2c-0.6,0.4-0.3,1.5,0.3,1.8c0.4,0.3,1-0.1,1.3-0.6
		c0.3-0.7,0.4-1.8,0.7-2.7c0.3-0.3,0.4-0.7,0.6-1.2c0-0.4,0.6-0.7,0.3-1.3C170.4,57.7,170.3,58,170,58.1z M167.9,62.5
		c-0.4-0.3,0.3-0.6,0.3-0.7c0.1,0.1,0.3,0.3,0.3,0.4C168.3,62.3,168,63.1,167.9,62.5z"/>
	<path class="st0" d="M89.9,59.9c0.7,0,1.8,0.1,2.5,0c0.1-0.1,0.3-0.3,0.3-0.4c-0.7,0-1.5,0-2.2,0c-0.3,0-0.6,0-0.7-0.3
		c-0.4-0.4-0.9-1-1.3-1.5c0,0.1-0.1,0.3-0.1,0.4C88.7,58.9,89.1,59.5,89.9,59.9z"/>
	<path class="st0" d="M172.1,60.1c-0.1-0.3-0.3-0.6-0.4-0.7c-0.1-0.3-0.3-0.7-0.6-0.9C170.4,59,171,60.2,172.1,60.1z"/>
	<path class="st0" d="M184.9,58.4c0,0.1,0.1,0.3,0.3,0.3c-0.7-0.1-1.8,0.3-2.2-0.3c-0.1,0-0.3,0-0.3,0c0,0.1,0.1,0.3,0.1,0.4
		c1.8,0,3.4,0.3,5.2,0.3c-0.1-0.3-0.3-0.4-0.3-0.7C186.7,58.4,185.8,58.4,184.9,58.4z"/>
	<path class="st0" d="M159,61.6c0.3,0.4,0.3,1,0.3,1.6c0.3,0,0.7,0,1.2,0c0.3,0.4,0.6,0.7,1,1c0-0.3,0-0.6,0-0.9l-0.6,0.3
		c0.1-0.3,0.3-0.4,0.4-0.7c0.1,0.1,0.4,0.3,0.6,0.4h-0.3c0,0.3,0,0.7,0.1,1c0.3-0.3,0.6-0.6,0.7-0.9c0.3-0.1,0.4-0.1,0.6-0.3
		c-0.1-1,0.4-1.8,1.2-2.4c-0.1-0.1-0.3-0.3-0.3-0.4c-0.3-0.3-0.6-0.7-0.9-1c-0.7-0.1-1.8,0.3-1.3,1.3h-0.3c0.1,0.1,0.3,0.3,0.3,0.3
		c-0.1,0-0.4,0.1-0.6,0.3c0,0.1-0.1,0.3-0.1,0.3c0.1-0.1,0.4-0.3,0.7-0.3c0,0.3,0,0.6,0.1,0.9c-0.6,0.1-1.2,0-1.6-0.1
		c0.1-0.3,0.7-0.3,0.7-0.7c-0.3-0.1-0.4-0.1-0.7-0.1c0-0.3,0-0.7,0-0.7c-0.1,0.3-0.3,0.6-0.4,0.7c0-0.3,0-0.4,0-0.7
		c0.6-0.3,1.3-0.6,1.8-0.1c0-0.1,0.1-0.3,0.1-0.4c-0.7,0.1-1.5-0.1-2.1-0.7c0-0.1,0.1-0.3,0.1-0.3c-0.1,0-0.3,0-0.3,0
		c0,0.1,0,0.3,0,0.4c-0.4-0.1-0.7-0.3-1.2-0.4c-0.9,0.4-1.9,0.3-2.8,0.3c1,0.7,1.8,1.8,2.4,2.8C158.1,61.6,158.6,61.6,159,61.6z"/>
	<path class="st0" d="M160.2,58.7c0.1,0,0.3,0,0.4,0C160.7,58.4,160.1,58.4,160.2,58.7z"/>
	<path class="st0" d="M161,58.7c0.3,0.1,0.7,0.3,0.7-0.1C161.6,58.4,161,58.4,161,58.7z"/>
	<path class="st0" d="M89.1,62.6c0.7,0,1.8,0.1,2.5,0c0.1-0.1,0.3-0.3,0.3-0.3c-0.9,0-1.8,0-2.8,0C89,62,88.8,62,88.7,61.7
		c0.1-0.7-0.3-1.5-0.9-1.9c0,0.1-0.1,0.3-0.3,0.4c0.3,0.3,0.3,0.4,0.6,0.6C87.9,61.6,88.4,62.2,89.1,62.6z"/>
	<path class="st0" d="M102,88.8c0.6,0,1.3,0.1,1.8-0.1c0.9-0.9,1.5-2.2,2.7-3c0.7,0,1.6-0.1,2.2,0.1c0.7,0.7,1.3,1.6,2.2,2.4
		c1.9-0.1,3.9,0,5.8,0c1.2-1.2,2.2-2.4,3.3-3.7c0-4.3,0-8.5,0.1-12.7c0-1.2,0.1-2.2-0.3-3.3c0.7,0,1.3,0,2.1,0
		c0.3,0.1,0.4-0.1,0.7-0.3c-0.7-0.1-1.6-0.1-2.5,0c0-0.7-0.7-1.2-0.4-1.9c0.3,0.3,0.3,0.6,0.4,0.9c0.3-0.1,0.4-0.3,0.6-0.3
		c0,0.3-0.1,0.6-0.1,0.7c0.3-0.3,0.3-0.6,0.6-0.9c0.3,0.3,0.3,0.4,0.6,0.7c0.1-0.1,0.3-0.3,0.4-0.3c-0.1,0.3-0.3,0.6-0.3,0.7
		c0.3,0,0.6-0.1,0.7-0.3c-0.1-0.3-0.3-0.7-0.3-1c-0.1,0-0.3,0-0.3,0c0.1-0.3,0.3-0.6,0.3-0.9c0-0.1,0.1-0.4,0.1-0.6
		c0.1,0,0.3,0,0.3,0c-0.1,0-0.4-0.1-0.6-0.3c-0.7,0-1.6-0.1-2.4,0.3c-0.6-0.7-1.3-1.3-1.5-2.1c-0.3-0.1-0.3-0.1-0.6-0.3
		c-0.7,0.1-1.5,1-0.9,1.8c1.2,0.9,2.1,2.2,3.3,3.1c0.3,0.1,0.1,0.4,0,0.6c-0.7-0.3-1-0.7-1.6-1.3c-0.3-0.3-0.7-0.7-0.7-1.2
		c-0.6-0.3-1.2-0.9-1.5-1.5c0-0.7-0.1-1.6,0.1-2.4c0.7,0.1,1.2-0.3,1.5-0.7c-0.4,0-1,0-1.5,0c0.1-0.3,0.1-0.7,0.3-1.2
		c-0.1,0-0.3,0-0.4,0l-0.6-0.4c0,0.4,0,0.6,0,0.9l0.4-0.1c-0.3,1.3-0.3,2.8-0.3,4.3c1.3,1.6,2.8,3,4.2,4.6c-0.1,5.1,0,10-0.1,15.1
		c-0.1,0.3-0.4,0.7-0.7,1c-0.7,0.7-1.5,1.8-2.4,2.5c-1.8-0.1-3.6,0-5.4-0.1c-0.7-0.7-1.5-1.6-2.2-2.4c-0.9-0.1-1.8,0-2.8,0
		c-1,0.7-1.8,2.1-2.7,3c-0.7,0-1.3,0-2.1,0C101.4,88.7,101.6,88.8,102,88.8z M122.2,65.6c-0.1,0.3-0.3,0.6-0.4,0.9
		c-0.4,0-0.9,0-1.3-0.1c-0.1-0.3-0.3-0.4-0.3-0.7C120.7,65,121.6,65,122.2,65.6z M118,64.3l-0.3-0.3c-0.3,0-0.4,0.1-0.7,0.1
		c0.3-0.3,0.3-0.7,0.7-0.6C118,63.5,118.2,64,118,64.3z"/>
	<path class="st0" d="M184.6,60.5c-0.3,0-0.7,0-1.2-0.1c0.1,0.3,0.1,0.4,0.3,0.7c0.3,0,0.6,0,0.7,0.1c0.7,0.7,1.5,1.5,2.2,2.4
		c0.3,0.3,0.4,0.7,0.9,0.7c0.7,0.3,0.7-1.2,1.6-1c-0.1-0.3-0.1-0.7-0.3-0.9c-0.9-0.3-1.8-0.6-2.8-0.9
		C185.4,61.6,185.1,61,184.6,60.5z M187.2,63.1c0.4-0.6,1.3,0.7,0.4,0.7c0,0.1,0.1,0.3,0.3,0.4c-0.1,0-0.3,0-0.3,0
		C187.3,63.8,186.7,63.4,187.2,63.1z"/>
	<path class="st0" d="M88.7,63.5c0.7,0.1,1.8,0,2.5,0.1c0-0.1,0.1-0.3,0.3-0.4c-0.9,0-1.8,0-2.7,0c-0.4-0.3-0.7-0.7-1-1.2
		c0-0.4,0.1-1-0.3-1.3c-0.4,0.3-0.1,1-0.1,1.5C87.6,62.5,88.1,63.1,88.7,63.5z"/>
	<path class="st0" d="M106.8,62.5c-0.1,0.3-0.3,0.6-0.3,0.7c0.3-0.1,0.6-0.3,0.7-0.3c0.7-0.6,0.3-2.2-0.7-1.8c-0.9,0.3-1,1.8,0,2.1
		c-0.1-0.4-0.3-1.3,0.3-1.3C106.8,62,107.1,62.2,106.8,62.5z"/>
	<path class="st0" d="M102.3,65.5c3,0,6,0,9,0c1-0.6,1.5-1.8,2.2-2.7c-0.3,0-0.6-0.1-0.9-0.1l0.6-0.3c0.3,0.1,0.3,0.3,0.6,0.4
		c0.3-0.6,0.3-1.5-0.3-1.8c-0.6-0.3-1,0.3-1.6,0.3c0.1,0,0.3,0,0.3,0.1c-0.3,0.7,0.3,1.6,0.1,2.4c-0.3,0.3-0.7,0.7-1,1
		c-2.4,0-4.8,0-7.5,0c-0.7,0-1.5,0.1-2.1-0.3C101.6,65,101.9,65.5,102.3,65.5z M112.9,61.6c0.3-0.1,0.3,0.3,0.4,0.6
		c-0.3,0.1-0.6,0.1-0.9,0.3C112.6,62,112.6,61.6,112.9,61.6z"/>
	<path class="st0" d="M122.4,61.6c-0.4,0.1-0.9,0.3-1.3,0.4c-0.3-0.3-0.4-0.4-0.7-0.6c0.1,0,0.3-0.1,0.4-0.3
		c-0.3-0.1-0.3-0.3-0.6-0.3c0,0.3,0,0.6-0.1,0.9c0.3,0.3,0.3,0.6,0.6,0.9c-0.1,0-0.4-0.1-0.6-0.3c0,0.1,0,0.4,0,0.7
		c0.3,0.1,0.6,0.1,0.9,0.3c-0.1-0.1-0.4-0.3-0.6-0.4c0.6-0.3,1.3-1.2,1.9-0.3C122.4,62.3,122.4,62,122.4,61.6
		c0.3,0.6,0.3,1.2,0.4,1.6c-0.6,0.1-1.2,0.3-1.8,0.1c0,0.1,0,0.3,0,0.3c-0.1,0-0.4-0.1-0.7-0.1V64c0.6-0.1,1.2-0.1,1.8-0.3
		c0.1,0.1,0.3,0.3,0.4,0.3c-0.1-0.3-0.3-0.6-0.3-0.7c0.9,0,0.9,1.2,1.6,1.3c-0.1-0.3-0.1-0.7-0.3-1.2c0.7-0.9-0.3-2.1-1.3-2.4
		C122.4,61.1,122.4,61.4,122.4,61.6z"/>
	<path class="st0" d="M102.9,62c-0.3,0.3-0.3,0.7-0.4,1c-0.1,0.1-0.3,0.3-0.3,0.3c0.6,0,1.3,0.3,1.6-0.3c0.3-0.6,0-1.3-0.4-1.6
		c-0.1,0.3-0.4,0.6-0.1,0.7c0.4,0.3,0,0.7-0.1,1.2c-0.1,0-0.3,0-0.4-0.1C102.8,62.8,103.2,62.5,102.9,62z"/>
	<path class="st0" d="M170.3,62.3c0.6,0.3,0.7,1.2,1.5,0.9c1-0.3,1-1.8,0-2.1c-0.7-0.3-1.2,0.6-1.2,1.2
		C170.4,62.3,170.4,62.3,170.3,62.3z M171.5,61.9c0.3,0.1,0.3,0.3,0.4,0.6c-0.3,0-0.7,0-0.9,0.1C171,62.2,171,61.9,171.5,61.9z"/>
	<path class="st0" d="M103.1,64.6c2.7,0,5.4,0.1,8.1,0c0.3-0.3,0.7-0.7,0.7-1.3c-0.1-0.3-0.3-0.3-0.3-0.6c0-0.4-0.1-0.9-0.4-1.3
		c-0.7,0.1-1.3,0-2.1,0.3c-0.3,0.3-0.4,0.6-0.6,0.9c0.1,0.3,0.3,0.6,0.4,0.9c0.3,0.1,0.6,0.3,0.7,0.3c0.7-0.3,0.7-1.3,1.3-1.8
		c0,0.4,0.3,1,0.4,1.5c-0.1,0.3-0.3,0.4-0.4,0.7c-2.5-0.1-5.2,0-7.8-0.1c-0.3,0-0.7-0.1-0.9-0.3c0,0.1-0.1,0.4-0.1,0.6
		C102.3,64.4,102.8,64.6,103.1,64.6z M109.3,63.5c-0.1-0.3-0.3-0.6-0.4-0.9c0.3-0.1,0.3-0.3,0.6-0.3
		C110.1,62.5,109.6,63.1,109.3,63.5z"/>
	<path class="st0" d="M174,65.6c-0.6,0.6-1,1.3-1.6,1.8c-0.4,0.1-0.9,0.1-1.3,0c-0.6-0.4-1-1.2-1.6-1.6c-0.6-0.1-1,0-1.6,0
		c-0.4-0.3-0.9-0.9-1.3-1.3c-0.3-0.9-0.3-1.9-0.9-2.7c-0.4-0.4-1.2,0-1.5,0.4c-0.1,0.7,0.3,1.3,0.7,1.6c0-0.1,0-0.4,0.1-0.6
		c0.1,0,0.3,0.1,0.6,0.1c-0.1,0.1-0.3,0.3-0.4,0.3c1.2,0.4,1.6,1.8,2.7,2.5c0.6,0,1.2,0,1.6,0c0.6,0.6,1,1.2,1.6,1.8
		c0.6,0,1.2,0,1.8-0.1c0.6-0.6,1.2-1.2,1.8-1.8C174.6,65.9,174.3,65.6,174,65.6z M164.6,63.1c0-0.3,0.3-0.7,0.6-0.6
		c0.3,0,0.3,0.3,0.3,0.6C165.3,63.1,164.9,63.1,164.6,63.1z"/>
	<path class="st0" d="M188.4,65c-0.4,0-1,0.1-1.5-0.1c-1.2-0.9-1.8-2.2-3-3.1c0.1,0.6,0.3,1.2,0.7,1.6c0.7,0.7,1.3,1.5,2.1,2.2
		c0.6,0.3,1.3,0,1.9,0.1c0.3,0.3,0.6,0.4,0.7,0.6c0.3,0,0.6-0.1,0.7-0.3c-0.3-0.1-0.4-0.3-0.7-0.3c0-0.1,0.3-0.3,0.3-0.4
		c-0.1,0-0.4,0.1-0.6,0.1c-0.3-0.4,0.3-0.7,0.3-1.3C188.8,64,188.8,64.7,188.4,65z"/>
	<path class="st0" d="M172.5,63.7c-0.6,0-1.3,0.1-1.8-0.3c-0.4-0.1-1-0.6-1.5-0.3c-0.4,0.1-0.6,0.7-0.6,1.2c0.1,0.4,0.6,0.7,1,0.9
		c0.4-0.3,0.7-0.6,1-0.9c0.7,0,1.3,0,1.9,0c0.3-0.3,0.4-0.4,0.7-0.7c-0.1-0.3-0.3-0.4-0.3-0.7C173,63.2,172.8,63.5,172.5,63.7z
		 M169.8,64.6c0.1,0.1,0.3,0.3,0.3,0.4c-0.1,0-0.3,0-0.4,0C169.7,65,169.7,64.6,169.8,64.6h-0.6c0.1-0.3,0.3-0.6,0.7-0.7
		C170,64.1,170.4,64.6,169.8,64.6z"/>
	<path class="st0" d="M86.6,65.8c1.3,0,2.8,0,4.2,0c0-0.1,0-0.3,0-0.4c-1.3-0.1-2.8,0.3-4.3-0.3c0.1-0.1,0.3-0.3,0.3-0.3
		c1.3,0.3,2.7,0.1,4,0.1c0.1-0.1,0.3-0.3,0.3-0.3c-1.3-0.3-2.8,0.1-4-0.1c-0.3-0.3-0.4-0.4-0.7-0.7c0,0.3,0.1,0.6,0.1,0.9
		c-0.1,0.3-0.3,0.4-0.4,0.7C86.1,65.5,86.4,65.6,86.6,65.8z"/>
	<path class="st0" d="M173,65c-0.7,0-1.6-0.4-2.2,0.3c-0.3,0.6-0.1,1.3,0.4,1.8c0.1-0.1,0.3-0.3,0.3-0.4l-0.4-0.3c0.3,0,0.7,0,0.9,0
		l-0.4,0.1c0.1,0.1,0.3,0.3,0.3,0.4c0.6-0.7,1.3-1.3,2.2-1.9c-0.1-0.3-0.3-0.4-0.3-0.7C173.6,64.6,173.3,64.9,173,65z M171,66.1
		c0.1-0.3,0.3-0.4,0.6-0.6c0.3,0,0.3,0.3,0.4,0.6C171.6,66.1,171.3,66.1,171,66.1z"/>
	<path class="st0" d="M123.4,66.5c-0.3-0.4,0.6-0.4,0.4-0.9c0-0.3,0-0.6,0-0.7c-0.3,0.3-0.7,0.6-0.7,1c-0.1,0.4,0.3,0.9,0.4,1.3
		c0.1,0,0.3,0,0.3,0s0-0.1,0-0.3c-0.1-0.1-0.3-0.3-0.3-0.3c0.1,0,0.3-0.1,0.4-0.1C123.9,66.5,123.6,66.5,123.4,66.5z"/>
	<path class="st0" d="M173.3,68.5c-0.7,0-1.8,0-2.5,0c-0.6-0.6-1.2-1.2-1.6-1.8c-0.9,0-1.8,0-2.8-0.1c-0.1-0.4-0.1-0.9-0.3-1.3
		c-0.3-0.4-1.3-0.6-1.6,0c-0.4,0.6,0,1.8,0.7,1.8c1.2,0.3,2.4,0.1,3.7,0.3c0.7,0.4,1,1.5,1.9,1.8c0.7,0,1.8,0,2.5,0
		c0.6-0.3,0.9-0.7,1.3-1.3c0-0.1-0.1-0.4-0.1-0.6C174.2,67.6,173.7,68,173.3,68.5z M165.3,65.9c-0.1,0.3-0.1,0.6-0.3,0.7
		c-0.1-0.3-0.6-0.7-0.3-1.2c0.3-0.1,0.6,0.1,0.7,0.3h-0.1V65.9z"/>
	<path class="st0" d="M146.2,63.7c0,0-0.7-1.3-3-1.8c-1.9-0.3-6.1-0.1-9-0.1c0,0,0,0.6,0,1.5c0,0.1,0,0.4,0,0.6c0,1.2,0,1.6,0,2.5
		c0,2.2,0,4.6,0,6.9c0.6,0,1.2,0,1.8,0h0.7c0.7,0,0.6,0,1.5,0h0.7c1.6,0,3.1,0.1,4.8-0.3c2.2-0.7,3.4-2.8,3.4-5.2
		C147.2,66.7,146.9,64.7,146.2,63.7z"/>
	<path class="st0" d="M101.4,66.2c3,0,6,0.1,9,0.1c0.4,0,0.7,0.7,1.2,0.7c1.3,0,2.8,0,4.2,0c0.6,0,0.7,0.6,1.2,0.9
		c0.7,0.7,0.4,1.8,1,2.7c0.3-0.3,0.4-0.4,0.7-0.7l-0.7-0.1c0.3-0.4,0.7-0.6,1-0.1c-0.3,0.3-0.3,0.3-0.6,0.6l0.3-0.1
		c-0.1,0.3-0.3,0.6-0.3,0.7c0.4-0.1,0.7-0.3,1-0.7c0.3-0.9-0.4-1.8-1.3-1.6c-0.1-0.3-0.3-0.4-0.3-0.7c-0.7-0.3-1.2-1.5-2.2-1.3
		c-1.3,0-2.5,0.1-3.7,0c-0.4,0-0.7-0.7-1.3-0.7c-3-0.1-6,0-9-0.1C101.4,65.9,101.4,66.1,101.4,66.2z"/>
	<path class="st0" d="M90.3,67.3c0.1-0.3,0.1-0.3,0.3-0.6c-1.6,0-3.3,0-4.8,0c0,0.1-0.1,0.3-0.1,0.4C87.2,67.1,88.7,67.1,90.3,67.3z
		"/>
	<path class="st0" d="M101.1,67.1c2.8,0,5.8,0,8.8,0c0.6,0,0.7,0.7,1.3,0.7c1.5,0,3,0,4.5,0c0.1,0.1,0.3,0.3,0.4,0.4
		c-0.6,0.3-0.7,0.7-1.2,1.2c0.3,0.4,0.4,0.7,0.7,1.3c0.1-0.3,0.3-0.6,0.4-0.9h-0.6c0.3-0.3,0.3-0.6,0.6-0.7c0.3,0,0.3,0.4,0.4,0.6
		h-0.4c0.1,0.3,0.3,0.6,0.3,0.9c1-0.9,0.6-2.8-0.6-3.3c-1.5,0-2.8,0-4.3,0c-0.7,0-0.7-0.9-1.5-0.7c-2.8,0-5.8,0-8.8,0
		C101.1,66.8,101.1,67.1,101.1,67.1z"/>
	<path class="st0" d="M170.6,71.9c-0.3-0.3-0.6-0.6-0.7-0.9c-0.1-0.7,0-1.5,0-2.2c-0.3-0.4-0.7-0.9-1.2-1.3c-2.8-0.1-5.8,0-8.8-0.1
		c-0.4,0-0.7-0.4-1-0.6c-0.3,0.4,0.3,0.7,0.7,1c3,0.1,6,0,9.1,0.1c0.3,0.3,0.9,0.7,0.7,1.3c0,0.6,0,1.2,0,1.8c0.3,0.4,0.7,0.7,1,1.2
		c1.8,0,3.4,0.1,5.2,0c0-0.1,0.1-0.3,0.1-0.4C174,71.9,172.4,71.9,170.6,71.9z"/>
	<path class="st0" d="M190.2,67.6c-1.5,0-2.8,0-4.3,0c-0.1-0.1-0.3-0.3-0.4-0.3c0.1,0.3,0.1,0.6,0.3,0.7c1.6,0,3.1,0,4.8,0
		C190.2,67.9,190.2,67.7,190.2,67.6z"/>
	<path class="st0" d="M90.3,68.2c0-0.1,0-0.3,0-0.4c-1.6-0.1-3.1,0-4.8,0c0,0.1,0,0.3,0,0.4C87.2,68.2,88.7,68.2,90.3,68.2z"/>
	<path class="st0" d="M106.9,67.7c-0.7,0.3-0.9,1.5-0.3,1.8c0.4,0.3,0.9,0.1,1.3-0.1c0.3-0.4,0.1-1,0-1.5
		C107.5,67.9,107.2,67.6,106.9,67.7z M107.4,68.8c0,0.3-0.3,0.4-0.3,0.7c-0.3-0.1-0.6-0.6-0.3-0.7C106.9,68.5,107.2,68.5,107.4,68.8
		z"/>
	<path class="st0" d="M159.8,69.6c1.9,0,3.9,0,5.8,0c0.9-0.1,1.3,0.7,2.2,0.9c0.3-0.3,0.7-0.3,0.7-0.7c0.3-0.6-0.1-1.3-0.7-1.5
		c-0.7,0-1.3,0.9-2.2,0.7c-1.9,0-3.9,0.1-5.8,0c-0.4-0.4-0.9-1-1.3-1.5C158.4,68.6,159.3,69.2,159.8,69.6z M167.9,69.2
		c0.3,0,0.3,0.4,0.3,0.7l-0.4-0.1c0.1,0.3,0.3,0.6,0.3,0.7c-0.3-0.1-0.4-0.3-0.4-0.4C167.1,69.6,167.4,69,167.9,69.2z"/>
	<path class="st0" d="M100.5,68.9c1.3,0,2.8,0,4,0c0.9,0.9,1.8,1.8,2.5,2.8c1.2,0,2.2,0,3.6,0c0.4,0,0.6-0.4,0.6-0.7
		c0-0.7,0.3-1.6-0.4-2.1c-0.4-0.3-1-1.2-1.8-0.7c-0.7,0.3-0.7,1.2-0.3,1.8c0.1-0.1,0.3-0.3,0.3-0.4c-0.6-0.6,0.3-1.2,0.6-0.4
		c-0.1,0.3-0.3,0.7-0.4,1.2c0.6,0,1-0.4,1.3-0.7c0.1,0,0.3,0.1,0.3,0.1c0,0.4,0,1-0.1,1.5c-0.7,0.3-1.6,0.1-2.4,0.1
		c-0.3,0-0.7,0.1-1-0.3c-0.9-0.7-1.5-1.8-2.4-2.5c-1.3-0.1-2.8,0-4.2-0.1C100.7,68.6,100.7,68.8,100.5,68.9z"/>
	<path class="st0" d="M90,69c0-0.1,0.1-0.3,0.1-0.6c-1.6,0-3.3,0-4.8,0c0,0.1,0,0.3,0,0.4C87,69,88.5,68.9,90,69z"/>
	<path class="st0" d="M104.4,69.8c0.9,0.9,1.8,1.8,2.5,2.8c1.5,0.1,3,0.1,4.5,0c0.3-0.3,0.4-0.4,0.7-0.7c0.3-0.4,0.1-0.9,0.3-1.3
		c0.3-0.1,0.7,0,1.2-0.3c0.6-0.4,0.4-1.5-0.3-1.8c-0.3-0.3-0.7,0.1-1.2,0.3c-0.6,1,0.3,2.5-0.7,3.4c-1.3,0-2.8,0-4.2,0
		c-0.9-0.7-1.8-1.8-2.7-2.8c-1.3,0-2.5,0-3.9,0c-0.1,0.1-0.3,0.3-0.3,0.4C101.7,69.8,102.9,69.6,104.4,69.8z M112.8,69.2
		c0.3,0,0.3,0.3,0.4,0.6c-0.3,0-0.7,0-1,0C112.3,69.6,112.5,69.2,112.8,69.2z"/>
	<path class="st0" d="M102.5,89.6c0.7,0,1.3,0.1,1.9-0.3c1.3-0.1,2.8,0,4.3,0c0.4-0.1,0.7-0.4,1.3-0.3c2.4-0.1,4.8,0.1,7.3,0
		c1.3-1.3,2.4-2.7,3.9-4c0.1-0.7,0.1-1.6,0.1-2.2c0-3.4,0-7,0-10.5c0.7-0.9,1.8-1.8,2.5-2.8c0.3-0.3,0.1-0.7,0.3-0.9
		c-1.2,1.2-2.2,2.2-3.3,3.4c0,4.3,0,8.4,0,12.7c-1.3,1.3-2.2,2.8-3.7,3.9c-2.4,0-4.8,0-7.3,0c-0.4,0-0.7,0.3-1.3,0.3
		c-1.3,0-2.7,0-4,0c-0.7,0.4-1.8,0.3-2.7,0.3C101.9,89.6,102,89.7,102.5,89.6z"/>
	<path class="st0" d="M175.1,69.2c0-0.1-0.1-0.4-0.1-0.7c-0.3-0.3-0.7,0.3-0.9,0.6c-0.3,0.6,0.1,1,0.4,1.5c0.3,0,0.6,0,0.7,0
		c0-0.3-0.1-0.7-0.1-1l-0.1,0.3v0.6c-0.3-0.3-0.6-0.6-0.7-1C174.6,69.2,175.1,69.2,175.1,69.2z"/>
	<path class="st0" d="M170.4,72.9c-0.7-0.4-1-1.3-1.8-1.8c-0.7,0-1.6,0.1-2.2-0.6c-2.2,0-4.3,0-6.4,0c-0.6-0.6-1.3-1.3-1.8-1.9
		c0,0.1-0.1,0.4-0.1,0.6c0.6,0.4,1.2,1.2,1.8,1.8c2.2,0,4.3,0.1,6.6,0.1c0.1,0.1,0.3,0.3,0.4,0.4c0.4,0,1,0,1.5,0.1
		c0.6,0.6,1.2,1.3,1.8,1.8c1.8,0,3.7,0,5.5,0c0-0.1,0.1-0.3,0.1-0.4C174,72.8,172.2,72.9,170.4,72.9z"/>
	<path class="st0" d="M185.5,68.8c0,0.1,0.1,0.3,0.3,0.4c1.6,0,3.1,0,4.8,0c-0.1-0.1-0.3-0.3-0.3-0.4
		C188.7,68.9,187.2,68.8,185.5,68.8z"/>
	<path class="st0" d="M89.9,69.9c0.1-0.1,0.1-0.3,0.3-0.4c-1.5,0.1-3.1,0-4.6,0c0,0.1-0.1,0.3-0.1,0.3l0.1,0.3
		C86.9,69.9,88.4,69.8,89.9,69.9z"/>
	<path class="st0" d="M172.2,71c0-0.6-0.1-1.5-0.9-1.6c-1.2-0.1-1.5,1.6-0.4,2.1c1.5,0,3.1,0,4.6,0c0-0.1,0.1-0.3,0.1-0.4
		C174.5,71,173.4,71,172.2,71z M171.3,71.1c-0.1,0-0.3,0-0.3,0c0-0.1,0-0.3,0.1-0.3c-1,0,0.1-1.2,0.4-0.4
		C171.5,70.7,171.5,71,171.3,71.1z"/>
	<path class="st0" d="M113.2,94.9c0.7-0.7,1.3-1.3,1.9-2.1c0.3-0.1,0.7-0.1,1-0.1c0.4-0.3,0.9-0.7,1.2-1.3c0.1-0.4,0-0.9,0-1.3
		c1.3-1.3,2.7-2.8,3.9-4.2c0.3-0.3,0.4-0.7,0.3-1c0-4,0-8.1,0-12c0.6-0.7,1.3-1.3,1.9-2.1c0-0.3,0-0.4,0-0.7
		c-0.7,0.7-1.3,1.5-2.2,2.2c-0.4,0.3-0.3,0.9-0.3,1.3c-0.1,3.9,0,7.6,0,11.5c-0.1,0.3-0.3,0.4-0.4,0.7c-1.2,1.3-2.4,2.5-3.6,3.9
		c-0.6,0.6,0.1,1.5-0.6,2.1c-0.3,0.6-1,0.7-1.6,0.7c-0.6,0.4-1,1-1.5,1.6c-0.3,0.3-0.4,0.6-0.9,0.6c-2.8,0-5.8,0-8.8,0
		c0.1,0.1,0.1,0.3,0.3,0.4C107.2,94.9,110.2,94.9,113.2,94.9z"/>
	<path class="st0" d="M165.8,77.3c0.7-0.6,0.3-2.1-0.7-1.8c-1.3,0.1-2.7,0.3-4,0.3c-0.4-0.3-0.7-1-1.2-1.5c-0.1-1,0-1.9,0-3
		c-0.4-0.7-1.5-1.5-2.1-1.9c-0.3,0.9,1,1.6,1.5,2.2c0,0.9-0.1,1.9,0,2.8c0.3,0.4,0.6,0.7,0.9,1.2c0.6,0.7,1.8,0.3,2.5,0.6
		c0.7,0.3,1.3,0.7,1.9,1.3c0.3-0.3,0.3-0.6,0.6-0.7c-0.3,0-0.6,0-0.7,0.1c0.1-0.3,0.3-0.7,0.7-0.6c0.3,0.6-0.3,1-0.3,1.5
		C165.2,77.6,165.5,77.3,165.8,77.3z"/>
	<path class="st0" d="M100.4,70.5c1.2,0.1,2.4,0.1,3.6,0.1c0.9,0.9,1.8,1.9,2.7,2.8c2.8,0,5.8,0,8.7,0c0.7-0.1,1,0.6,1.3,0.9
		c0.7,0.6,0.3,1.9,1.3,2.4c0.7,0.4,1.8-0.4,1.3-1.3c-0.3-0.7-0.9-0.7-1.5-1c-0.9-0.3-1.3-1.8-2.2-1.6c-2.7,0-5.4,0-7.9,0
		c-0.3,0-0.7,0-0.9-0.3c-0.7-0.9-1.6-1.8-2.4-2.7c-1.3,0-2.7,0-3.9,0C100.2,70.2,100.4,70.5,100.4,70.5z M118.3,75.8
		c0.1,0,0.3,0.1,0.4,0.3c-0.1,0.3-0.3,0.7-0.4,1c-0.3-0.3-0.3-0.6-0.4-0.7C117.9,75.9,118.2,75.8,118.3,75.8z"/>
	<path class="st0" d="M185.8,70.2c0,0.1,0.1,0.3,0.1,0.6c1.5,0,3.1,0,4.6,0c0-0.1,0-0.3,0-0.4C189,70.2,187.3,70.2,185.8,70.2z"/>
	<path class="st0" d="M89.7,72.5c-0.1-0.7,0-1.3,0.3-1.9C89.1,70.8,89,71.9,89.7,72.5z"/>
	<path class="st0" d="M176,78.9c0-0.3,0-0.4-0.1-0.7c-0.3-0.3-0.4-0.7-0.9-0.7c-2.8-0.1-5.5-0.1-8.4-0.1c-0.3,0.3-0.6,0.4-0.7,0.7
		c-1.3,0-2.7,0-3.9,0c-0.3,0-0.4-0.1-0.7-0.6c-0.7-0.9-1.3-1.8-2.1-2.5c0-1,0-2.1,0-3.1c-0.3-0.6-1-0.9-1.6-1.3
		c-0.3,0.7,0.7,1,1,1.6c0,1-0.1,2.1,0,3.1c0.6,0.9,1.3,1.6,1.9,2.4c0.3,0.3,0.7,0.9,1.3,0.9c1.3,0,2.8,0.1,4.2,0
		c0.3-0.3,0.4-0.4,0.7-0.7c2.5,0,5.1,0,7.6,0C175.1,77.9,175.5,78.6,176,78.9z"/>
	<path class="st0" d="M86.6,73.2c0.4,0.3,0.7-0.3,1-0.6c0.4-0.7-0.3-1.8-1.2-1.5c-0.6,0.3-1,0.7-1.6,0.9c0,0.3,0,0.6,0,0.7
		C85.5,72.9,86.1,72.9,86.6,73.2z M86.7,71.7c0.1,0.1,0.3,0.3,0.4,0.3c0,0.1,0,0.3,0,0.4c-0.3,0-0.7,0-0.9,0
		C86.1,72.2,86.4,72,86.7,71.7z"/>
	<path class="st0" d="M100.4,71.4c1,0,2.1,0,3.1,0c0.3,0,0.4,0.3,0.6,0.3c0.7,0.7,1.5,1.6,2.2,2.4c2.8,0,5.7,0,8.4,0
		c0.6,0,0.9,0.3,1.3,0.7c-0.4,0.3-1.2,0.4-1.3,1.2c-0.1,0.6,0.3,1,0.7,1.3c0-0.1,0.1-0.4,0.1-0.7l-0.3-0.1c-0.1-0.6,0.4-0.7,0.9-0.6
		c0.1,0.4-0.1,0.7-0.4,0.6c0,0.3,0.1,0.7,0.1,0.9c0.3-0.3,0.7-0.6,0.9-0.9c0-0.6,0-1.2-0.1-1.8c-0.3-0.4-0.6-0.7-0.9-1
		c-3.1,0-6.1,0-9.3,0c-0.7-0.7-1.3-1.6-2.2-2.4c-0.1-0.3-0.3-0.4-0.6-0.3c-1.2,0-2.2,0-3.4,0C100.2,71.1,100.2,71.3,100.4,71.4z"/>
	<path class="st0" d="M105.3,95.8c2.7,0,5.4,0,8.1,0c0.9-0.4,1.3-1.5,2.2-2.1c0.3-0.1,0.7-0.1,1.3-0.3c0.3-0.7,1-0.9,1.5-1.6
		c0.1-0.6-0.1-1.2,0.3-1.6c1.3-1.3,2.5-2.7,3.9-4.2c0.3-0.3,0.3-0.9,0.3-1.3c0-3.9,0-7.6,0-11.5c-0.1-0.7,0.6-1.2,1-1.6
		c0-0.3,0-0.4,0.1-0.7c-0.6,0.4-1,1-1.6,1.6c0,4.3,0,8.7,0,13c-1.3,1.5-2.8,3-4.2,4.5c-0.4,0.4,0,1.2-0.4,1.6
		c-0.3,0.4-0.7,0.7-1.2,1.3c-0.3,0-0.7,0-1,0.1c-0.7,0.7-1.3,1.5-2.1,2.2c-3,0-6,0-9,0C104.6,95.7,105,95.8,105.3,95.8z"/>
	<path class="st0" d="M186.1,71.6c0,0.1,0,0.3,0,0.4c1.6,0,3.3,0,4.8,0c-0.1-0.1-0.1-0.3-0.3-0.4C189.1,71.6,187.6,71.6,186.1,71.6z
		"/>
	<path class="st0" d="M156.9,71.6c-0.1,0.1-0.6,0.7-0.6,0.9c0.3,0.3,0.9,0.7,1,1c0.1,0.7-0.1,1.6,0.1,2.4c1.8,1.9,3.4,3.9,5.4,5.7
		c0.3,0.3,0.6,0.6,0.7,0.9c0,1.8,0,3.3,0,5.1c-0.6,0.6-1,1.2-1.6,1.8c-0.6,0.6-0.3,1.3-0.3,2.1c-0.3,0.6-0.9,0.7-1.3,1.3
		c0.6,0,1-0.3,1.3-0.6c0.7-0.6,0.3-1.5,0.4-2.2c0.6-0.7,1.3-1.3,1.8-2.2c0.1-1.8,0-3.4,0.1-5.4c0.7,0,1.5,0,2.2,0
		c0.4-0.3,0.7-0.7,1.3-1.3c0.4,0.1,0.9,0.4,1.3,0.3c0.9-0.4,0.4-2.2-0.6-1.9c-1.2,0.4-1.3,1.9-2.2,2.5c-0.7,0-1.6,0.1-2.2-0.1
		c-1.9-2.1-3.9-4.2-5.7-6.3c-0.1-0.7,0-1.9,0-2.7C157.7,72.2,157.4,72,156.9,71.6z M168.3,80c0,0.3,0.3,0.6,0,0.7
		c-0.1-0.1-0.3-0.3-0.4-0.6c0,0.3,0.1,0.6,0.1,0.7c-0.1-0.3-0.3-0.4-0.3-0.7C167.7,80.1,168,80,168.3,80z"/>
	<path class="st0" d="M169.1,76.5c2.2,0,4.5,0,6.9,0c0-0.9,0-1.8,0-2.7c-2.2-0.1-4.3,0-6.4,0c-0.4-0.4-0.9-1-1.3-1.5
		c-0.4-0.3-1-0.3-1.5-0.3c-1,0-2.1,0-3.1,0c-0.7,0-1.3-0.1-2.1,0.3c-0.3,0.3-0.7,0.7-0.9,1.2c-0.3,0.7,0.1,1.5,0.7,1.8
		c0.7,0.3,1.2-0.4,1.8-0.3c1.3,0,2.5,0,3.9,0C167.6,75.5,168,76.7,169.1,76.5z M161.7,74.7c-0.1,0-0.3,0-0.3,0
		c0.1-0.3-0.1-0.7-0.3-1c0.3-0.1,0.4-0.1,0.7-0.1c0,0.1,0,0.4,0.1,0.7l-0.4-0.1C161.3,74.3,161.6,74.7,161.7,74.7z"/>
	<path class="st0" d="M104,72.9c0.1-0.7-0.7-1-1.3-1c-0.4,0.4-0.7,1-0.4,1.8c0.1,0.1,0.3,0.3,0.4,0.3c0-0.1,0.1-0.3,0.3-0.4
		l-0.4-0.1c0.1-0.3,0.3-0.4,0.4-0.7c0.1,0.1,0.3,0.3,0.4,0.3c0.1,0.4-0.4,0.7-0.7,1.2C103.4,74.3,104,73.8,104,72.9z"/>
	<path class="st0" d="M186.3,73.1c0,0.1-0.1,0.3-0.1,0.4c1.3,0,2.5,0,3.9,0c0.3,0,0.7,0.1,0.9,0.3c-0.1-0.3-0.1-0.4-0.3-0.7
		C189.3,73.1,187.8,73.1,186.3,73.1z"/>
	<path class="st0" d="M86,74.3c0.4,0.9,0.6,2.2,1.8,2.5c0.3-0.1,0.7-0.3,0.9-0.7c0.3-0.7-0.1-1.5-0.7-1.8c-0.7-0.3-1.6-0.3-2.1-1
		c-0.3,0-0.6,0-0.7-0.1c-0.1,0.1-0.1,0.3-0.3,0.3C85.1,73.8,85.8,73.8,86,74.3z M87.6,75.2c0.6,0,0.3,1-0.3,0.9l0.3,0.4
		c-0.3,0-0.6,0-0.7,0c0.1-0.1,0.3-0.4,0.4-0.6C86.6,76.1,87.2,74.9,87.6,75.2z"/>
	<path class="st0" d="M89.3,75c0.1-0.6,0.3-1,0.3-1.6C89,73.8,89.1,74.6,89.3,75z"/>
	<path class="st0" d="M156.6,75.5c-0.9-0.6-1.2-1-1.9-1.6c-0.1,0.1-0.7,0.6-0.7,0.6c0.7,1,2.5,1.6,3.6,2.2
		C157.5,76.5,156.9,75.8,156.6,75.5z"/>
	<path class="st0" d="M157.5,74c-0.9-0.1-1-0.4-1.8-1c-0.1,0.1-0.7,0.7-0.7,0.7c0.7,1,1.9,1.6,3,3C158,76.5,157.8,74,157.5,74z"/>
	<path class="st0" d="M99.9,78.5c3.4,0,6.9,0,10.3,0c0.4-0.4,0.9-0.7,1.3-1.3c0.1-0.4,0-0.7,0.1-1.3c-0.3-0.3-0.4-0.7-0.9-1
		c-0.4-0.1-0.9,0.3-1.3,0.4c-0.3,0.1-0.7,0.4-0.9,0.9c-0.1,0.6,0.3,1.2,0.7,1.3c-0.1-0.4-0.7-1-0.1-1.5c0.4,0.1,0.9,0.6,0.3,0.9
		c0,0.1,0,0.4,0,0.7c0.3-0.3,0.9-0.3,1-0.9c0-0.4,0-1,0.1-1.5c0.3,0.3,0.4,0.4,0.7,0.7c0.1,0.7-0.3,1.5-0.9,2.1c-2.7,0-5.4,0-7.9,0
		c-0.7,0-1.5,0-2.2-0.1C99.8,78,99.9,78.3,99.9,78.5z"/>
	<path class="st0" d="M190.9,76.8c0-0.7,0-1.3,0-1.9c-0.3-0.1-0.7-0.1-1-0.1c-0.4,0.4-0.7,1.2-0.3,1.8
		C189.9,77.1,190.5,76.8,190.9,76.8z M189.9,75.5c0.3-0.3,0.4,0.3,0.7,0.3c-0.1,0.3-0.3,0.6-0.4,0.7l0.1-0.4
		C189.6,76.7,189.4,75.8,189.9,75.5z"/>
	<path class="st0" d="M102.9,75c-0.4,0-0.7,0.6-0.9,0.7c0.1,0.6,0.4,1,1,1.3c0.3-0.3,0.9-0.3,1-0.9C104,75.8,103.5,74.7,102.9,75z
		 M102.6,76.8c0.3-0.3,0.3-0.7,0.3-1c-0.1,0.1-0.4,0.3-0.7,0.4c0-0.3,0.3-0.6,0.6-0.7c0.1,0.3,0.3,0.3,0.4,0.6
		C103.2,76.4,102.9,76.8,102.6,76.8z"/>
	<path class="st0" d="M106.8,77.1c1-0.3,0.7-1.8-0.1-2.1c-0.3,0.1-0.4,0.1-0.7,0.3c-0.1,0.3-0.3,0.4-0.4,0.7
		c0.1,0.3,0.3,0.7,0.4,1.2c0.1-0.3,0.3-0.6,0.4-0.7c-0.7,0.3-0.3-0.4,0-0.7c0.4,0.3,0.7,0.7,0,0.9l0.1,0.1c-0.1,0.1-0.3,0.3-0.3,0.4
		C106.4,77.1,106.6,77.1,106.8,77.1z"/>
	<path class="st0" d="M85.5,75.3c-0.1,0-0.4,0-0.7,0c-0.1,0.4,0.3,0.7,0.4,1.3c-0.3,0.3-0.3,0.6-0.6,0.9
		C85.8,77.6,86.3,75.9,85.5,75.3z"/>
	<path class="st0" d="M110.5,79.4c0.3-0.3,0.7-0.7,1.2-1.2c0.3-0.1,0.7-0.3,1.2-0.3c-0.3-0.3-0.6-0.7-0.6-1c0.3-0.7,1.6,0.7,0.3,0.3
		c0.3,0.3,0.3,0.4,0.6,0.7c0.6-0.4,0.7-1.3,0.3-1.9c-0.3-0.1-0.4-0.1-0.7-0.3c-0.7,0.3-1.2,0.9-0.9,1.6c-0.4,0.6-0.9,1.3-1.5,1.6
		c-3.4,0.1-6.9-0.1-10.5,0c0,0.1-0.1,0.3-0.1,0.4C103.4,79.4,106.9,79.4,110.5,79.4z"/>
	<path class="st0" d="M186.3,76.1c0,0.1,0.1,0.3,0.1,0.4c0.6,0,1.3,0,1.8,0c1,0.7,1.8,1.9,2.7,2.8c0.1-0.6-0.3-0.9-0.6-1.3
		c-0.7-0.7-1.3-1.3-1.8-2.1C187.8,75.9,186.9,76.1,186.3,76.1z"/>
	<path class="st0" d="M190.5,80.1c0.3,0.3,0.3-0.3,0.4-0.3c-0.1,0-0.3-0.1-0.6-0.1c-0.7-0.7-1.5-1.8-2.2-2.5c-0.7-0.1-1.3,0-2.1,0
		c0.3,0.7,1.3,0.3,1.8,0.4C188.8,78.3,189.6,79.4,190.5,80.1z"/>
	<path class="st0" d="M89.6,77.9c-1.5,0-3.1,0-4.6,0c0,0.1-0.1,0.3-0.1,0.4c1.5,0,3.1,0,4.6,0C89.4,78.3,89.4,78,89.6,77.9z"/>
	<path class="st0" d="M186.9,80.3c0.4,0,0.9,0.1,1.3-0.3c0.6-0.6,0.3-1.6-0.4-1.8c-0.7-0.3-1.5,0.3-1.3,1
		C186.3,79.7,186.7,80,186.9,80.3z M186.9,78.9c0.3-0.4,0.6-0.1,0.9-0.1c-0.1,0.1-0.3,0.3-0.3,0.6v0.3c0,0.1,0,0.3,0,0.3
		c-0.1,0-0.3,0-0.3,0.1c0-0.1-0.1-0.4-0.1-0.7C186.9,79.4,186.7,79.2,186.9,78.9z"/>
	<path class="st0" d="M171.9,78.9c-0.1,0-0.4-0.1-0.6-0.1c-0.1,0.1-0.3,0.1-0.4,0.3c-0.1-0.3-0.3-0.3-0.4-0.4c-1,0-1.9,0-3,0
		c-0.6,0.3-0.9,0.9-1.5,1.3c-0.3-0.3-0.7-0.6-1.3-0.3c-0.9,0.4-0.6,2.2,0.6,2.2c-0.3-0.3-0.4-0.7-0.7-1.2c0.1-0.3,0.3-0.4,0.4-0.6
		c0.3,0.3,0.3,0.4,0.4,0.7h-0.6c0.3,0.3,0.4,0.4,0.7,0.7c0.6-0.7,1.2-1.6,1.8-2.4c1,0,2.1-0.1,3.1,0.1c-0.1,0.6-0.1,1.2,0.3,1.6
		c0.3,0.1,0.6,0.3,0.7,0.4c0.3-0.3,0.6-0.4,0.9-0.7c0.1,0.1,0.3,0.3,0.4,0.4c0.1-0.1,0.3-0.3,0.3-0.3
		C172.7,80,172.2,79.4,171.9,78.9z"/>
	<path class="st0" d="M89.6,79.2c0-0.1-0.1-0.3-0.3-0.4c-1.5-0.1-3,0-4.5,0c0,0.1,0,0.3,0,0.4C86.4,79.2,87.9,79.2,89.6,79.2z"/>
	<path class="st0" d="M100.2,81.6c3.9,0,7.8,0,11.7,0c0.6-0.4,1.6-0.9,1.5-1.8c0-0.6-0.6-0.9-1-0.9c-0.4,0.1-0.7,0.6-0.9,0.9
		c-3.9,0.1-7.6,0-11.5,0C99.9,80.4,99.8,81.2,100.2,81.6z M112.3,79.7c0.3,0.1,0.3,0.3,0.4,0.6c-0.3,0-0.7,0-1,0
		C112,80,112.2,79.7,112.3,79.7z"/>
	<path class="st0" d="M174.8,78.9c-0.6,0-0.9,0.6-0.9,1.2c-0.1,0.7,1.2,1.3,1.6,0.7C176.1,80,175.7,78.9,174.8,78.9z M174.9,80.7
		c-0.1,0-0.3,0-0.3,0l0.1-0.3c-0.1-0.1-0.3-0.3-0.4-0.4c0.1-0.3,0.4-0.4,0.7-0.6C175.2,80,175.1,80.3,174.9,80.7z"/>
	<path class="st0" d="M118.3,83.4c0.6-0.1,0.7-0.7,0.9-1.2c-0.3-0.3-0.3-0.7-0.7-0.9c-0.6-0.4-1-1-1.6-1.5c-0.3,0.1-0.4,0.3-0.7,0.3
		c0,0.1,0,0.3,0.1,0.6c-0.4-0.1-0.9-0.3-1.3-0.1c-0.1-0.3-0.3-0.6-0.4-0.7c0.3-0.3,0.6-0.4,0.7-0.7c-0.3,0-0.7-0.1-0.9-0.1
		c-0.3,1-0.1,1.9-0.3,3c0.3,0.1,0.6,0.3,0.7,0.3c-0.3,0-0.7,0.1-0.9,0.1v0.1c0.6-0.1,1.3-0.1,1.8-0.1c0-0.1,0-0.3,0-0.4
		c-0.3,0-0.7,0-1.2,0c-0.1-0.1-0.3-0.4-0.3-0.6c0.3,0,0.7,0,1,0c0.3-0.3,0.6-0.3,0.9-0.3v0.4c0.1-0.3,0.4-0.9,0.7-1.2
		c-0.1,0.3-0.3,0.9-0.3,1.3c0.1,0,0.3,0.1,0.4,0.1c-0.3,0.1-0.7,0.3-1.2,0.4C117.3,81.5,117.1,83.4,118.3,83.4z M117.9,82.1
		c0.3-0.3,0.4,0.1,0.7,0.3c-0.3,0.3-0.3,0.6-0.6,0.9c0-0.1-0.1-0.3-0.1-0.4C117.7,82.5,117.7,82.2,117.9,82.1z"/>
	<path class="st0" d="M146.6,89.3c2.4-0.3,3-2.2,3.1-3c0.1-1.2,0-2.2,0-3.3c-0.1-1.3-0.9-2.1-1.6-2.7c-1.6-1.3-2.8-0.9-5.1-1
		c-2.8,0-5.8,0-8.8,0c0,3.3,0,6.6,0,10c3.3,0,6.4,0,9.6,0H146.6z"/>
	<path class="st0" d="M86,81.3c0.3-0.6-0.1-1.2-0.4-1.6c-0.1,0-0.4-0.1-0.7-0.1c0,0.3,0,0.6,0,0.7c0.3,0.1,0.4,0.3,0.6,0.4
		c0,0.3-0.3,0.4-0.4,0.6c0,0.1,0,0.3,0,0.4C85.4,81.9,85.7,81.8,86,81.3z"/>
	<path class="st0" d="M88.7,80.9c0.3-0.7-0.7-1.6-1.5-1.2c-0.6,0.3-0.6,1-0.6,1.6c-0.4,0.4-0.7,1-1.5,1.2c0,0.1,0,0.3,0,0.4
		c0.7,0,1.2-0.6,1.8-0.7C87.6,82.2,88.5,81.9,88.7,80.9z M87.6,80.6c0.6,0.3-0.1,0.9-0.3,1.3c-0.1,0-0.3,0-0.4,0
		c0.1-0.1,0.3-0.3,0.3-0.4h-0.6C86.9,80.9,87.2,80.4,87.6,80.6z"/>
	<path class="st0" d="M89.7,81.9c-0.1-0.3-0.3-0.6-0.3-0.7c0-0.4,0-0.7,0-1.3C88.7,80.4,89,81.6,89.7,81.9z"/>
	<path class="st0" d="M187.2,80.9c-0.4,0-0.6-0.3-0.9-0.6c0,1-0.3,2.1-0.3,3.3c1.5,0.1,3,0,4.6,0.1c0.1-0.9,0.3-1.8,0.3-2.7
		C189.6,80.9,188.4,80.9,187.2,80.9z"/>
	<path class="st0" d="M175.7,81.5c-0.6,0-1,0-1.6,0c-0.3-0.3-0.4-0.4-0.6-0.7c-0.1,0.1-0.3,0.3-0.3,0.3c0.3,0.3,0.6,0.6,0.9,0.7
		c0.6,0.1,1.2,0,1.8,0C175.7,81.9,175.7,81.6,175.7,81.5z"/>
	<path class="st0" d="M173.3,81.9c-0.3-0.6-0.7-0.7-1.2-0.6c0-0.1,0-0.3,0-0.4c-0.3,0.1-0.4,0.3-0.6,0.4c0-0.6-0.7-0.4-0.9-0.1
		c-0.4,0-0.9-0.1-1.3,0.1c-0.3,0.3-0.7,0.3-1,0.3c-0.9-0.1-1.3,0.7-1.8,1.3c-0.4,0-1-0.1-1.5-0.3c-0.6,0.1-0.9,0.7-0.7,1.3
		c0.1,0.4,0.6,0.6,0.9,0.7c0.3-0.3,0.7-0.3,0.7-0.7c0.3-0.7,1-1,1.3-1.8c0.3-0.6,0.9-0.3,1.5-0.4c1.2-0.7,2.7-0.3,3.9-0.3
		c0.3,0.9,0.1,1.9,0.1,2.8c0.3,0.9,1.3,0.7,2.1,0.7c0-0.1,0-0.3,0-0.4c-0.6,0-1.3,0.3-1.8-0.3C173.3,84,173.6,83,173.3,81.9z
		 M164.9,84.8c0-0.3,0.1-0.7,0.1-0.9l-0.4,0.3c0-0.4,0.3-0.7,0.7-0.7c0,0.1,0.1,0.4,0.3,0.6C165.3,84.3,165.3,84.6,164.9,84.8z"/>
	<path class="st0" d="M106.2,83.6c0.1,0.3,0.3,0.6,0.3,0.7c0.3-0.3,0.4-0.6,0.7-0.9c-0.1-0.4-0.3-1-0.7-1.2c-0.6-0.3-1,0.3-1.3,0.7
		c-0.1,0.4,0.3,0.9,0.6,1.3C105.9,84,106.1,83.9,106.2,83.6c-0.6-0.1-0.3-0.4-0.3-0.7C106.5,82.8,106.9,83.4,106.2,83.6z"/>
	<path class="st0" d="M109.3,82.4c-0.4-0.6-1.3,0-1.5,0.6c-0.1,0.6,0.3,1,0.7,1.3c0-0.1,0-0.4,0.1-0.7c-0.9-0.3,0.4-1.2,0.6-0.3
		c-0.3,0.3-0.4,0.6-0.4,1C109.6,84.2,110.1,83,109.3,82.4z"/>
	<path class="st0" d="M103.1,82.1c-0.7-0.1-0.9,0.6-1.3,1c-0.4,0.6-1.3,1-1.3,1.8c0.9-0.3,1.9-0.4,2.8-0.9
		C104.3,83.6,104,82.4,103.1,82.1z M102.6,84c-0.1-0.3-0.3-0.6-0.3-0.9c0.3-0.1,0.4-0.3,0.7-0.3c0.1,0.3,0.3,0.4,0.3,0.7l-0.4-0.1
		C103.1,83.9,102.9,84,102.6,84z"/>
	<path class="st0" d="M100.5,83.7c0.1-0.3,0.3-0.6,0.3-0.7c-0.3-0.1-0.4-0.3-0.7-0.4c0,0.4,0.1,1,0.1,1.5
		C100.4,84,100.4,83.9,100.5,83.7z"/>
	<path class="st0" d="M116.4,85.8c0.3-0.7,0.3-1.5,0.3-2.2c-0.7,0-1.6,0-2.4,0c0,0.3,0,0.7,0.1,1.2c0,0-0.1,0-0.1,0.1
		c-0.1-0.7-0.7-1.2-1-1.8c-0.3-0.4-1-0.3-1.3,0.1c-0.6,0.4-0.1,1.2,0.1,1.6c0.3-0.1,0.3-0.3,0.6-0.3c0-0.1,0-0.3,0-0.4L112,84
		c0.1-0.1,0.3-0.3,0.3-0.4c0.3-0.1,0.6,0.3,0.6,0.6c-0.3,0.3-0.3,0.6-0.6,0.7c0.6,0.4,1.2,1.5,2.1,1.2c-0.1-0.1-0.3-0.3-0.3-0.4
		c0.1,0,0.4-0.1,0.6-0.1c0,0.3-0.1,0.6-0.1,0.7c0.3-0.1,0.7-0.3,0.9-0.4c-0.3-0.3-0.6-0.7-0.7-1c0.1-0.4,0.7-0.6,1.2-0.7
		c0.3,0.3,0.6,0.6,0.9,0.9c-0.3,0.3-0.7,0.3-0.9,0.4C115.5,85.5,116.1,85.5,116.4,85.8z"/>
	<path class="st0" d="M166.7,102c-1-1.3-2.2-2.4-3.3-3.7c0-2.2,0-4.5,0-6.9c0-0.3-0.1-0.7,0.3-0.9c1.3-1.3,2.7-2.8,4-4.3
		c0.3-0.4,0.9-0.3,1.5-0.3c0.6-0.6,1.2-1.2,1.8-1.8c0.3,0.3,0.7,0.6,1.3,0.3c0.7-0.3,0.7-1.3,0.3-1.9c-0.3-0.1-0.7-0.3-1.2,0.1
		c-0.7,0.7-1,1.8-1.8,2.5c-0.3,0.4-1,0.3-1.5,0.3c-1.3,1.5-2.8,3-4.2,4.5c-0.3,0.3-0.6,0.7-0.4,1c0,2.2,0,4.3,0,6.6
		c0,0.3-0.1,0.7,0.3,1c1,1.2,2.2,2.4,3.3,3.6C166.4,102.3,166.5,102.1,166.7,102z M171.2,83.4c0.3-0.3,0.7-0.3,0.7,0.1
		c-0.3,0.3-0.3,0.6-0.4,0.9V84C171.3,83.9,170.9,83.6,171.2,83.4z"/>
	<path class="st0" d="M174.5,82.5c-0.6,0.3-0.7,1.3-0.3,1.8c0.3,0.3,0.7,0.3,1.2,0.3c0.1-0.6,0.3-1.2,0.3-1.8
		C175.2,82.5,174.9,82.5,174.5,82.5z M175.1,83.4c0,0.3,0.1,0.6,0.1,0.7c-0.3,0-0.6,0.1-0.7,0.1C174.5,83.9,174.5,83.1,175.1,83.4z"
		/>
	<path class="st0" d="M87.3,84c0.3-0.3,0.6-0.6,0.7-0.7c0.6-0.1,1,0,1.6,0c0-0.1,0-0.3,0-0.4c-0.6,0-1.2,0-1.8,0
		c-0.3,0.3-0.6,0.7-0.9,0.7c-0.6,0-1.3,0-1.8,0c0,0.1,0,0.3,0,0.4C86,84.2,86.6,84,87.3,84z"/>
	<path class="st0" d="M161.9,85.1c0.3-0.3,0.6-0.4,0.7-0.6c0.3-0.7-0.3-1.8-1.2-1.8c0.1,0.4,0.6,0.9,0.6,1.5c-0.1,0-0.3,0-0.3,0
		C162,84.3,161.9,84.6,161.9,85.1z"/>
	<path class="st0" d="M166.2,102.7c-1.2-1.3-2.4-2.7-3.6-4c-0.1-2.8,0-5.5,0-8.4c0.4-0.7,1.2-1.3,1.8-1.9c1.2-1.2,2.2-2.5,3.3-3.6
		c0.1,0,0.4,0.1,0.6,0.3c0.1,0,0.4-0.1,0.6-0.1c0.3-0.4,0.6-1.2,0.1-1.6c-0.3-0.4-0.7-0.4-1.3-0.3c-0.7,0.7-0.7,1.6-1.3,2.4
		c-1.3,1.3-2.4,2.5-3.6,3.9c-0.3,0.3-0.7,0.7-0.7,1.3c0,2.2,0.1,4.8,0,7c0,0.6-0.1,1.2,0.3,1.6c1.2,1.2,2.2,2.4,3.3,3.6
		C165.9,102.9,166.1,102.7,166.2,102.7z M167.9,83.7c0.1-0.3,0.4-0.3,0.6-0.3c0.3,0.4,0,0.7-0.1,1.3c-0.1,0-0.3,0-0.3,0
		C168.2,84.3,167.6,84,167.9,83.7z"/>
	<path class="st0" d="M87.6,85.1c0.3-0.3,0.7-0.6,1-0.7c0.4-0.1,1.3,0.3,1.3-0.4c-0.6,0-1,0-1.6,0c-0.3,0.3-0.6,0.7-0.9,0.7
		c-0.7,0.1-1.3,0-2.2,0c0,0.1-0.1,0.3-0.1,0.4C86.1,85.1,86.9,85.1,87.6,85.1z"/>
	<path class="st0" d="M88.1,86c0.3-0.3,0.6-0.4,0.7-0.7c0.3,0,0.7,0,1.2,0c0-0.1,0.1-0.3,0.1-0.4c-0.4,0-0.9,0-1.3,0.1
		c-0.3,0.3-0.4,0.6-0.7,0.7c-0.7,0-1.6,0-2.4,0c0,0.1,0,0.3,0,0.4C86.3,86,87.2,86.1,88.1,86z"/>
	<path class="st0" d="M185.8,84.5c0,0.1-0.1,0.3-0.1,0.4c1.6,0,3.1,0,4.8,0c0-0.1,0.1-0.3,0.3-0.4C188.8,84.5,187.3,84.5,185.8,84.5
		z"/>
	<path class="st0" d="M168.8,88.7c0.7-0.7,0.7-2.1,1.8-2.8c0.3-0.4,1-0.3,1.5-0.3c0.3,0.3,0.6,0.7,0.9,0.9c0,0.4,0,0.7,0,1.3
		c0.3,0.4,0.7,0.9,1.3,1.3c0.3-0.7-0.6-1-0.7-1.5c0-0.4,0-0.9-0.1-1.3c-0.3-0.4-0.7-0.9-1.3-1.3c-0.4-0.1-0.9-0.1-1.3,0
		c-0.6,0.4-1,1-1.6,1.6c-0.4-0.3-0.9-0.3-1.3,0c-0.3,0.4-0.3,0.9-0.1,1.3c0.1,0.1,0.3,0.4,0.6,0.6c0.1-0.1,0.3-0.3,0.3-0.4
		c-0.1-0.1-0.4-0.3-0.7-0.4c0.1-0.3,0.3-0.3,0.3-0.6c0.3,0.1,0.6,0.3,0.7,0.6l-0.6-0.1C168.5,88.1,168.5,88.2,168.8,88.7z"/>
	<path class="st0" d="M88.4,86.9c0.3-0.3,0.6-0.6,0.7-0.7c0.3,0,0.7,0,1,0c0-0.1-0.1-0.3-0.1-0.4c-0.3,0-0.7,0-1,0
		c-0.3,0.3-0.4,0.6-0.7,0.7c-0.9,0.1-1.8,0-2.8,0c0.1,0.1,0.3,0.3,0.3,0.4C86.6,86.9,87.5,86.9,88.4,86.9z"/>
	<path class="st0" d="M102.9,87.8c-0.1-0.3-0.4-0.6-0.6-0.7c0.3-0.1,0.4-0.7,0.7-0.3C103.5,87,102.9,87.5,102.9,87.8
		c0.9-0.1,1.2-0.7,1.3-1.6c0,0-0.1,0.1-0.3,0.1c-0.3-0.3-0.6-0.7-1-0.7c-0.7,0.3-1.3,0.6-1.8,1C101,87.8,102.2,87.6,102.9,87.8z"/>
	<path class="st0" d="M185.4,85.8c0,0.1,0,0.3,0,0.4c1.6,0,3.1,0,4.8,0c0-0.1,0-0.3,0-0.4C188.7,85.8,187,85.8,185.4,85.8z"/>
	<path class="st0" d="M174,89.6c-0.4-0.7-1.2-1.2-1.6-1.8c0.1-0.6,0.1-1.3-0.4-1.8c-0.7-0.4-1.8,0.7-1.3,1.5
		c0.3,0.6,0.7,0.7,1.3,0.6c0.6,0.6,1,1.2,1.6,1.8C173.7,89.9,173.9,89.7,174,89.6z M171.5,88.1c0-0.1-0.1-0.4-0.1-0.7
		c-0.1,0-0.3-0.1-0.4-0.3c0.1-0.4,0.7-0.7,0.9-0.3C171.6,87.3,171.5,87.6,171.5,88.1z"/>
	<path class="st0" d="M174.9,86.3c-0.6,0.3-0.9,1-0.6,1.8C174.6,87.5,174.8,86.9,174.9,86.3z"/>
	<path class="st0" d="M88.7,87.9c0.3,0.3,0.3,0.7,0.7,0.7c0.4,0.3,0.7-0.1,1.2-0.3c0-0.3-0.1-0.9-0.1-1.2c-0.1,0.3-0.3,0.4-0.3,0.7
		c-0.3-0.1-0.7,0-0.9-0.3c0.1-0.3,0.7-0.9,0.9-0.3c0.1-0.1,0.3-0.3,0.3-0.4c-0.1-0.7-0.7-0.6-1.3-0.3c-0.1,0.3-0.3,0.4-0.4,0.7
		c-0.9,0-1.8-0.3-2.7-0.1c-0.3,0.1-0.4,0.3-0.3,0.7C86.7,87.5,87.8,87.9,88.7,87.9z"/>
	<path class="st0" d="M106.6,88.7c0.9-0.1,1.3-1.5,0.6-1.9c-0.7-0.6-1.8,0.3-1.3,1.2c0.1,0.3,0.4,1,0.6,0.4c0-0.1,0.1-0.3,0.3-0.3
		c-0.7-0.1-0.3-0.7,0.1-0.7c0.3,0.1,0.3,0.4,0.4,0.7h-0.6C106.8,88.2,106.8,88.4,106.6,88.7L106.6,88.7
		C106.6,88.4,106.6,88.5,106.6,88.7z"/>
	<path class="st0" d="M185.2,87.2c0,0.1,0,0.3,0,0.4c1.6,0,3.1,0,4.8,0c0-0.1,0.1-0.3,0.1-0.4C188.4,87.2,186.9,87.2,185.2,87.2z"/>
	<path class="st0" d="M88.4,88.8c0.3,0.3,0.6,0.9,1,0.9c0.6,0.1,1.8,0.1,1.5-0.7c-0.3,0.1-0.3,0.3-0.6,0.3s-0.7,0-1.2,0
		c-0.3-0.3-0.6-0.7-0.9-0.9c-0.6-0.1-1.2-0.1-1.8-0.3c-0.3,0.1-0.3,0.3-0.6,0.4c0,0.1,0.3,0.3,0.3,0.4c0.1-0.1,0.3-0.3,0.4-0.4
		C87.2,88.7,87.8,88.7,88.4,88.8z"/>
	<path class="st0" d="M173.6,90.5c-0.4-0.6-1-1.2-1.6-1.8c-0.7-0.1-1.6-0.1-2.2,0c-0.6,0.3-1,0.6-1.8,0.6c-0.4,0.4-0.9,0.9-1.3,1.3
		c0,0.6,0,1.2,0,1.8c0.3,0.3,0.6,0.6,0.9,0.9c-0.1,0.4-0.3,0.7-0.3,1.3c0,0.4,0.6,0.6,0.7,0.9c0-0.3,0-0.6,0-0.7
		c-0.1,0-0.3-0.1-0.4-0.1c0-0.6,0.4-0.7,0.9-0.4c-0.1,0.3-0.3,0.7-0.3,0.9c0.1,0.1,0.3,0.3,0.3,0.3c0.6-0.3,0.7-0.9,0.6-1.3
		c-0.3-0.7-1.3-1.2-1.9-1.8c-0.3-0.4,0-1,0-1.5c0.3-0.3,0.7-0.7,0.9-1c0.6,0.1,1.2,0,1.5-0.4c0.7,0,1.3,0,2.1,0
		c0.7,0.6,1,1.3,1.8,1.8C173.6,90.8,173.6,90.6,173.6,90.5z"/>
	<path class="st0" d="M184.8,88.7c0,0.1,0,0.3,0,0.4c1.5,0.1,3.1,0,4.6,0c0.1-0.1,0.1-0.3,0.3-0.4C188.1,88.7,186.4,88.5,184.8,88.7
		z"/>
	<path class="st0" d="M120.1,89.7c-0.6,0.4-0.3,1.2,0.1,1.8c0.3-0.1,0.3-0.3,0.6-0.4c0.1,0.1,0.3,0.4,0.3,0.6
		c0.7-0.3,0.7-1.2,0.6-1.8C121.2,89.6,120.4,89.1,120.1,89.7z M121.2,90.5c0,0.4-0.6,0.3-0.7,0.3c0-0.1,0-0.3,0-0.4
		C120.7,90.2,121.2,90,121.2,90.5z"/>
	<path class="st0" d="M104,93.9c1.2,0.1,2.2,0,3.4,0.1c1.2,0,2.2,0.1,3.4,0c1-1,1.9-2.1,2.8-3.1c0.4,0.3,0.9,0.4,1.3,0.7
		c0.3-0.3,0.4-0.3,0.7-0.6c-0.1,0.3-0.3,0.6-0.3,0.7c0.6-0.1,1-0.7,1-1.3c0-0.6-0.7-1-1.3-0.7c-0.6,0.1-1.3,0.3-1.8,0.4
		c-1.2,0.9-1.8,2.1-3,3c-1.9,0.1-3.9,0-5.8,0c-0.6,0-0.7-0.7-1.3-0.9c-0.3-0.3-0.4,0.3-0.3,0.4C103.4,93.2,103.5,93.7,104,93.9z
		 M115.3,90.2c0.3,0.1,0.7,0.1,0.7,0.6c-0.3-0.1-0.7-0.3-1,0C115.2,90.6,115.3,90.5,115.3,90.2z"/>
	<path class="st0" d="M173,91.2c-0.4-0.6-1-1.2-1.5-1.8c-0.6,0-1.2,0-1.8,0c-0.3,0.3-0.6,0.7-1,0.7c-0.6,0-1.2,0.3-1.2,0.7
		c-0.3,0.7,0.3,1.2,0.9,1.3c0.3-0.3,0.7-0.4,1-0.7c0-0.3,0-0.7-0.1-1.2c0.4-0.7,1.3-0.4,2.1-0.4c0.6,0.6,1,1.2,1.6,1.8
		C173,91.7,173.1,91.5,173,91.2z M168.3,91.7c0,0.1,0.1,0.4,0.1,0.6c-0.3-0.3-0.3-0.4-0.6-0.7c0.3-0.1,0.3-0.4,0.6-0.3
		c0.1,0.3,0.3,0.3,0.3,0.6h-0.4V91.7z"/>
	<path class="st0" d="M184.6,89.6c0,0.1,0,0.3,0,0.4c1.6,0,3.1,0,4.8,0c0.1-0.1,0.3-0.3,0.3-0.3C187.9,89.4,186.3,89.6,184.6,89.6z"
		/>
	<path class="st0" d="M110.1,91.8c0.7-0.6,0.3-2.1-0.7-1.8c-0.4,0.3-1.3,0.4-1.3,1.2c-0.3,0-0.6-0.1-0.7-0.1c0,0.4,0,0.7,0,1.3
		c0.3-0.1,0.6-0.3,0.7-0.3C108.6,91.8,109.3,92.3,110.1,91.8z M109.6,90.6l0.1,0.4c-0.3-0.1-0.3-0.3-0.4-0.4c0.1,0.3,0.1,0.7,0.3,1
		c-0.3-0.3-0.4-0.4-0.7-0.7C109,90.8,109.2,90.3,109.6,90.6z"/>
	<path class="st0" d="M170.4,96.7c-0.7,0.1-1-0.9-1.8-0.9c-0.7,0-1.5,0.1-1.9-0.6c0-0.7,0-1.3,0-1.9c-0.3-0.4-0.7-0.7-1-1.3
		c0.3-0.3,0.4-0.7,0.4-1.3c-0.1-0.4-0.4-0.7-0.7-0.9c-0.7,0-1.3,0.6-1.2,1.3c0.3,0.9,1.3,1.3,1.9,2.1c0.1,0.6,0,1.3,0,1.9
		c0.3,0.3,0.6,0.7,0.9,1c0.6,0.1,1.3,0,1.8,0.1c0.3,0.3,0.6,0.7,0.9,0.9C170.3,97.2,170.4,96.9,170.4,96.7z M165.3,91.8
		c-0.1,0-0.3,0.1-0.4,0.1c-0.1-0.3-0.3-0.6-0.3-0.9c0.3-0.1,0.3-0.3,0.6-0.3c0.1,0.3,0.3,0.3,0.4,0.6c-0.3,0-0.6-0.1-0.7-0.1
		C165,91.4,165.3,91.7,165.3,91.8z"/>
	<path class="st0" d="M91.4,90.6c0-0.1-0.1-0.3-0.1-0.4c-1.6,0-3.3,0-4.8,0c0.1,0.1,0.3,0.3,0.3,0.4C88.1,90.6,89.7,90.6,91.4,90.6z
		"/>
	<path class="st0" d="M105.6,91.1c0.3,0.1,0.7,0.1,1.2,0.3c0-0.1,0-0.3,0-0.4c0.1-0.1,0.4-0.3,0.7-0.4c-1.8-0.3-3.6-0.1-5.4-0.3
		c0.1,0.3,0.3,0.6,0.3,0.9C103.5,91.1,104.6,91.1,105.6,91.1z"/>
	<path class="st0" d="M188.4,91.5c-0.3-0.3-0.4-0.7-0.7-0.9c-0.4-0.3-0.9,0.3-1.3,0.4c-0.3,0.7,0,1.5,0.7,1.8s1.2-0.6,1.6-0.9h0.3
		c0-0.1-0.1-0.3-0.1-0.3c0.3-0.3,0.3-0.7,0.6-1.3C189,90.8,188.8,91.2,188.4,91.5z M186.9,92.1c-0.3-0.3,0.1-1,0.6-0.7
		c0.3,0,0.3,0.4,0.3,0.7C187.3,92,187,92.1,186.9,92.1z"/>
	<path class="st0" d="M172.5,93c0-0.1,0.1-0.4,0.1-0.6c-0.4-0.6-0.7-1.3-1.3-1.8c-0.6-0.4-1,0.1-1.3,0.4c0,0.3,0,0.6,0.1,0.7
		c0.1,0.1,0.3,0.4,0.4,0.6c0.1-0.1,0.3-0.3,0.3-0.4c-0.1-0.1-0.3-0.3-0.4-0.3c0.1-0.3,0.3-0.6,0.6-0.4c0.3,0,0.3,0.3,0.4,0.6
		c-0.1,0-0.3,0.1-0.6,0.1c0.1,0.3,0.3,0.3,0.4,0.6C171.8,92,172.1,92.7,172.5,93z"/>
	<path class="st0" d="M87.2,91.5c1.5,0,2.8,0,4.3,0c0-0.1-0.1-0.3-0.3-0.4c-1.6,0-3.3-0.1-4.9,0C86.6,91.4,86.9,91.7,87.2,91.5z"/>
	<path class="st0" d="M107.1,93c-0.3-0.3-0.6-0.4-0.7-0.7h0.4c0-0.1-0.1-0.4-0.1-0.6c-0.1-0.1-0.3-0.3-0.3-0.4
		c-0.7,0.1-0.3,0.9,0.1,1c-0.3,0.1-0.4,0.3-0.7,0.3C106.2,92.7,106.6,92.9,107.1,93z"/>
	<path class="st0" d="M91.1,92.4c0.4,0.3,0.7,0.7,1.2,1c0-0.7-0.6-1.2-1-1.5c-1.5,0-3-0.1-4.3,0c0.3,0.3,0.3,0.6,0.7,0.4
		C88.7,92.4,89.9,92.4,91.1,92.4z"/>
	<path class="st0" d="M183.7,92c0,0.3-0.3,0.7,0.1,1c0.3,0.4,0.7,0.9,1.3,1.2c0.9,0.1,1.9,0,3,0.1c0-0.1,0.1-0.3,0.3-0.4
		c-1,0-2.1-0.1-3.1-0.1C184.6,93.2,184.2,92.7,183.7,92z"/>
	<path class="st0" d="M89.1,94.3c0.1,0.3,0.3,0.6,0.3,0.7c0.3-0.3,0.9-0.6,0.7-1.2c0.1-0.7-0.9-1.3-1.5-0.7
		c-0.6,0.4-0.3,1.3,0.1,1.8C89,94.8,89.1,94.6,89.1,94.3c-0.1-0.1-0.3-0.1-0.4-0.4c0.3-0.3,0.6-0.7,0.7-0.3
		C89.9,93.9,89.6,94.3,89.1,94.3z"/>
	<path class="st0" d="M168.6,99.4c-0.4,0-0.9,0-1.3-0.1c-0.9-0.6-0.3-1.8-0.6-2.5c-0.4-0.6-0.9-1-1.3-1.5c0.3-0.4,0.7-0.9,0.3-1.5
		c-0.3-0.6-1.2-0.7-1.6-0.3c-0.4,0.4-0.1,1.3,0.1,1.8c0.3-0.3,0.4-0.6,0.9-0.4c0,0.1-0.1,0.3-0.1,0.3l-0.1,0.1
		c-0.1,0-0.3,0.1-0.3,0.3c0.6,0.6,1.3,1,1.8,1.6c0.1,0.7-0.3,1.8,0.4,2.4C167.3,100,168.5,100.3,168.6,99.4z M164.3,94.5
		c0.3-0.3,0.3-0.3,0.6-0.6c0.3,0.3,0.3,0.3,0.6,0.6C165,94.5,164.6,94.3,164.3,94.5z"/>
	<path class="st0" d="M171.9,94.2c0.1-0.3,0.3-0.4,0.3-0.7c-0.3-0.1-0.6-0.3-0.9-0.3c-0.4,0.1-0.7,0.6-0.7,1c0,0.6,0.4,1,1,1.2
		c0-0.1-0.1-0.3-0.1-0.6C171.5,94.6,171.8,94.3,171.9,94.2c-0.3,0-0.7-0.1-1-0.1C171,93.7,171.6,93.6,171.9,94.2z"/>
	<path class="st0" d="M184.8,94.5c-0.4-0.3-0.7-0.9-1.3-1.3c0,0.1,0,0.3,0,0.3c0.4,0.6,1,1.5,1.8,1.3c0,0.1,0,0.3-0.3,0.3
		c-0.6,0-1.2,0-1.8,0c-0.3-0.1-0.4-0.3-0.7-0.4c-0.3,0.4,0.3,0.9,0.7,0.9c1.3,0,2.7,0.1,3.9,0c0-0.1,0.1-0.3,0.1-0.4
		c-0.7,0-1.3,0-2.1,0c0-0.1-0.1-0.3-0.1-0.4c0.7,0,1.6,0,2.4,0c0-0.1,0.1-0.3,0.1-0.4C186.9,94.6,185.8,94.6,184.8,94.5z"/>
	<path class="st0" d="M90.2,96.3c0.6-0.6,1-1.2,1.6-1.8c0.3,0,0.7,0,0.7,0c0-0.6-0.6-0.4-1-0.4c-0.6,0.6-1,1.2-1.6,1.8
		c-0.7,0-1.3,0-1.9,0c0.1,0.1,0.1,0.3,0.3,0.4C89,96.3,89.7,96.3,90.2,96.3z"/>
	<path class="st0" d="M116.8,95.2c0-0.3,0.1-0.7,0.1-1c-0.3,0.1-0.7,0.1-1,0.4c-0.6,0.7,0.1,1.9,1,1.8c-0.1-0.1-0.3-0.3-0.6-0.4
		c0.1-0.1,0.3-0.3,0.4-0.3c-0.3,0-0.4,0.1-0.7,0.1c0.1-0.3,0.3-0.6,0.3-0.7C116.7,94.9,116.8,95.1,116.8,95.2z"/>
	<path class="st0" d="M165.5,103.2c-1.2-1.3-2.4-2.5-3.6-3.9c-0.3-0.3-0.3-1-0.6-1.3c-0.9-1.2-1.9-2.2-3-3.3
		c-0.1,0.1-0.1,0.3-0.3,0.4c1,1.2,2.1,2.2,3.1,3.4c0,0.3,0,0.6,0.1,0.7c1.3,1.3,2.5,2.8,3.9,4.2
		C165.3,103.5,165.3,103.3,165.5,103.2z"/>
	<path class="st0" d="M90.5,97.2c0.7-0.3,1-1,1.6-1.6c0.3-0.1,0.7-0.1,0.9-0.1c-0.1-0.1-0.3-0.3-0.3-0.4c-0.3,0-0.6,0.1-0.7,0.1
		c-0.4,0.6-1,1.2-1.6,1.8c-0.7,0-1.3,0-1.9,0C88.8,97.3,89.7,97,90.5,97.2z"/>
	<path class="st0" d="M162.9,105.7c-1.5-1.8-3.1-3.3-4.6-5.1c0-1.3,0-2.8,0-4.2c0-0.3-0.3-0.7-0.4-0.9c-0.7,0,0,0.6,0,0.9
		c0,1.5-0.1,2.8,0,4.3c1.5,1.8,3.1,3.4,4.8,5.2C162.8,105.9,162.8,105.7,162.9,105.7z"/>
	<path class="st0" d="M93.2,95.8c-0.7,0.7-1.6,1.8-1.5,3c0.3,0.3,0.4,0.6,0.9,0.6c0.4-0.1,0.9-0.4,0.9-1c0-0.4-0.3-0.9-0.4-1.3
		c0.3-0.1,0.3-0.3,0.6-0.3C93.3,96.4,93.5,96,93.2,95.8z M92.6,99.1c-0.1,0-0.3,0-0.4,0c0.1-0.1,0.3-0.3,0.3-0.3
		c-0.7-0.1-0.3-1.2,0.3-0.7C93.3,98.4,92.7,98.8,92.6,99.1z"/>
	<path class="st0" d="M157.1,100.8c0,0.4,0.4,0.7,0.7,1.2c1.3,1.3,2.7,2.8,4,4.3c0.1,0.3,0.6,0.3,0.4-0.1c-1.5-1.8-3.3-3.4-4.8-5.4
		c-0.1-1.5,0-3-0.1-4.5c-0.1-0.1-0.3-0.4-0.3-0.6c-0.4,0.3,0,0.7,0,1.3C157.1,98.2,157.1,99.4,157.1,100.8z"/>
	<path class="st0" d="M105.8,96.7c2.8,0,5.7,0,8.5,0c0.4,0,0.7,0.7,1.3,0.6c0.4-0.1,1.5,0.3,1.3-0.4c-0.4,0-1,0-1.5,0
		c-0.3-0.3-0.7-0.6-1-0.6c-3.1,0-6.3,0-9.4,0C105,96.6,105.5,96.7,105.8,96.7z"/>
	<path class="st0" d="M182.2,96.4c-0.3,0.3-0.4,0.7-0.3,1.3c-0.1,0.3-0.3,0.7-0.3,0.9c0.9-0.1,1-1,1-1.8c1.3,0.1,2.5,0,3.9,0
		c0.3,0.1,0.6-0.3,0.7-0.4C185.8,96.3,184,96.3,182.2,96.4z"/>
	<path class="st0" d="M154.1,98.5c0.7-0.3,1.8-0.9,1.8-1.8c-0.3,0.3-0.6,0.3-0.9,0.6c0,0.3-0.1,0.4-0.3,0.6c0-0.1,0-0.4,0-0.7
		c-1.3,0.7-2.8,1-4.3,1.3v0.1C151.7,98.5,152.9,98.7,154.1,98.5z"/>
	<path class="st0" d="M167.4,101.1c-0.6-0.7-1.3-1.5-1.9-2.2c0.4-0.4,0.7-1.3,0.3-1.8c-0.3-0.4-1.3-0.3-1.5,0.3
		c-0.3,0.6,0,1.2,0.3,1.6c0.1-0.1,0.3-0.3,0.3-0.4c-0.3-0.3-0.6-0.6-0.1-0.7c0.4-0.3,0.6,0.1,0.7,0.4h-0.7l0.6,0.4
		c-0.3,0.1-0.3,0.3-0.6,0.3c0.7,0.7,1.8,1.6,2.4,2.5C167.1,101.4,167.3,101.2,167.4,101.1z"/>
	<path class="st0" d="M169.2,98.2c0.3-0.1,0.6-0.3,0.7-0.6c-0.4,0-1-0.1-1.2-0.6c-0.4-0.3-1-0.3-1.3,0.3c-0.6,0.7,0,1.5,0.7,1.8
		c0.1-0.4-0.3-0.7-0.4-1.2c0.3-0.4,0.7-0.3,0.9,0.1c-0.3,0.3-0.3,0.6-0.3,1C168.6,98.8,168.9,98.5,169.2,98.2z"/>
	<path class="st0" d="M113.8,97.8c0.7,0.6,1.9,0.3,2.8,0.3l0.1-0.3v-0.3c-0.9-0.1-1.9,0.3-2.8-0.3c-2.8,0-5.7-0.1-8.4,0
		c0.1,0.1,0.3,0.3,0.3,0.4C108.6,97.8,111.1,97.8,113.8,97.8z"/>
	<path class="st0" d="M184,97.3c-0.9,0.7-1.6,1.9-1.9,3.1c-0.1,0.6,0.3,0.9,0.7,1.3c0.1-0.3,0.3-0.4,0.3-0.6c0,0.1,0,0.4,0,0.7
		c0.3-0.3,0.7-0.3,0.7-0.7c0.3-0.7-0.3-1.5-0.7-2.2c0.3-0.3,0.7-0.9,1.2-1.2c0.7-0.1,1.6,0,2.4,0l0.3-0.4
		C186,97.3,185.1,97.3,184,97.3z M183.3,100.9L183.3,100.9c-0.3,0.1-0.3,0.3-0.4,0.3c-0.4-0.4,0.3-0.7,0.6-1
		C183.3,100.3,183.7,100.9,183.3,100.9z"/>
	<path class="st0" d="M117,98.8c-0.1-0.1-0.3-0.3-0.3-0.3c-0.7,0-1.6,0-2.5,0c-0.3,0-0.4-0.3-0.7-0.3c-2.2,0-4.8,0-7,0
		c0.3,0.4,0.6,1,0.9,1.3c1.8,0,3.9,0,5.7,0.1c0.6,0.3,1.2,0.3,1.8,0.3c4.5,0,9,0,13.6,0c0-0.3,0-0.7,0-1.2
		C124.6,98.8,120.9,98.8,117,98.8z"/>
	<path class="st0" d="M184.3,99c-0.3,0.7,0.4,1.6,1.3,1.6l-0.3-0.4l0.4,0.1c0-0.1,0-0.3,0-0.3c0.3-0.6,0.6-1,0.7-1.6
		C185.8,98.4,184.6,98.1,184.3,99z M184.8,98.8c0.3,0,0.9,0,0.9,0.4c-0.3,0.3-0.7,0.3-1,0.4C184.8,99.6,184.8,99.3,184.8,98.8z"/>
	<path class="st0" d="M93.5,100.9c0.4-0.4,0.9-0.9,1.3-1.3c-0.1-0.3-0.3-0.6-0.4-0.9c-0.4,0.4-0.9,1-1.3,1.3c-0.3,0.1-0.7,0.1-1.2,0
		c-0.9-0.3-1.5-1.2-2.5-1.3c0.3,0.3,0.3,0.7,0.6,0.9c0.1,0.4,0.3,0.7,0.3,1.2C91.4,100.9,92.4,100.9,93.5,100.9z"/>
	<path class="st0" d="M160.7,99.6c0.1-0.7-0.7-1.5-1.5-1c-0.7,0.3-0.4,1.3-0.1,1.8c0.3,0.1,0.4,0.1,0.7,0.3
		C160.2,100.3,160.7,100.2,160.7,99.6z M159.2,99.9c0.1-0.3,0.3-0.7,0.4-0.9c0.1,0.3,0.3,0.3,0.4,0.6
		C159.8,99.7,159.5,99.9,159.2,99.9z"/>
	<path class="st0" d="M136.6,98.8c-0.7,0-1.6,0-2.2,0c0,0.7,0,1.3,0,1.9C135.2,100.8,135.8,99.7,136.6,98.8z"/>
	<path class="st0" d="M137.8,99.9c-0.1,0.6,0.3,1,0.7,1.3c0-0.3,0-0.7-0.3-1.2c0.3-0.3,0.3-0.7,0.3-1.2
		C138.1,99.1,137.8,99.3,137.8,99.9z"/>
	<path class="st0" d="M181.5,101.5c0-0.7,0.1-1.5,0-2.2c-0.1-0.3-0.3-0.3-0.7-0.3c0.1,0.1,0.3,0.3,0.3,0.4c0,0.7,0,1.3,0,1.9
		c0.3,0.6,0.7,0.9,1.2,1.3c0.4,0.4,0.7,1,1.3,1.3c0-0.1-0.1-0.3-0.1-0.6C182.8,103,182.2,102.4,181.5,101.5z"/>
	<path class="st0" d="M152.8,110.2c-0.9-1-1.8-1.8-2.7-3c0-1.3,0-2.5,0-3.7c0.4-0.1,1.3,0.1,1.3-0.7c0.1,0.1,0.3,0.4,0.3,0.7
		c-0.1,0.1-0.3,0.3-0.4,0.3c0.1,0,0.4,0,0.6-0.1v0.1c0.6,0,1.3,0.1,1.8,0c-0.6-0.3-1.3-0.1-1.8-0.1c-0.1-0.4-0.3-0.7-0.3-1.3h-0.1
		c0-0.7,0.1-1.3-0.3-1.9h0.3c0-0.1,0.1-0.3,0.1-0.4c0,0.1,0,0.3,0,0.4l0.3-0.1c0,0.1,0,0.4,0,0.7c0.3-0.1,0.4-0.3,0.4-0.7
		c0.1,0,0.3,0,0.3,0.1c0,0,0.1,0,0.3-0.1h0.1c0.3,0.3,0.9,0.3,0.7,0.9c0,0.6-0.6,0.6-0.9,0.7c-0.3-0.3-0.4-0.4-0.6-0.7
		c-0.3,0-0.3,0-0.6-0.1c0,0.1,0,0.4,0.1,0.6c0.4,0.1,0.3,0.7,0.4,1c0.3-0.3,0.6-0.3,0.9-0.6c0,0.3,0.3,0.6,0.6,0.6
		c0-0.3,0.1-0.6,0.1-0.7l0.3,0.3c-0.1-0.1-0.3-0.4-0.3-0.7l0.3,0.1c0-0.3,0-0.7,0-1.2c0,0.1-0.1,0.3-0.3,0.3h-0.3
		c0-0.4-0.3-0.9-0.6-1.2c-1.3,0-2.7-0.1-4,0c-1.2,0-2.2-0.1-3.3,0c-0.6,0-0.9,0.3-0.9,0.7c0,0.7,0,1.6,0,2.5c0.1,0.3,0,0.9,0.6,0.9
		c-0.3,0.1-0.4,0.3-0.7,0.4c0.3-0.1,0.7-0.1,0.9-0.4c-0.3-0.3-0.3-0.4-0.3-0.7s0.3-0.7,0.4-0.1c0.3-0.1,0.4-0.3,0.7-0.4
		c0.1,0.1,0.3,0.4,0.4,0.6c0-0.1,0.1-0.4,0.1-0.6c0.1,0,0.3,0.1,0.4,0.1c0-0.3,0-0.7,0-1.2c-0.3,0.9-1,0.7-1.8,0.7
		c0-0.3-0.1-0.6-0.1-0.7c0-0.1-0.1-0.4-0.1-0.7c0.4,0.4,1,0.1,1.6,0.1c0.1,0.1,0.3,0.3,0.4,0.4c0.3,0.7,0.1,1.6,0.1,2.2
		c0.3,0.1,0.4,0.3,0.7,0.3c-0.3,1.2,0,2.2,0,3.4c0.3,0.9,1.3,1.5,1.8,2.2c0.7,0.7,1.9,1.6,1.3,2.8c0.6,0.1,1.2-0.3,1.8-0.6
		C153.1,111.4,153.2,110.7,152.8,110.2z M148.6,100.8c0.1,0,0.4,0,0.7,0c0,0.1,0.1,0.3,0.1,0.4c-0.3,0.1-0.3,0.3-0.4,0.3l0.4,0.3
		c-0.1,0-0.4,0.1-0.6,0.1c0.1-0.3,0.1-0.4,0.3-0.6l-0.4,0.1C148.6,101.2,148.6,100.9,148.6,100.8z M148.3,105.3
		c0.3-0.3,0.3-0.4,0.6-0.7c0.3,0.3,0.3,0.4,0.6,0.6C149,105.3,148.7,105.3,148.3,105.3z"/>
	<path class="st0" d="M109.5,102.6c0.6,0,0.7-0.7,0.6-1.3c-0.4-0.9-1.8-0.7-2.5-1.3c0.6,0.7,1,1.6,1.9,1.6
		C109.5,101.8,109.5,102.3,109.5,102.6z"/>
	<path class="st0" d="M93.8,102.3c0.4-0.3,0.7-0.7,1.2-1c0.3-0.3,0.7-0.6,0.3-1c-0.6,0.4-1,1.2-1.6,1.6c-0.9,0.1-1.9,0-3,0.1
		c0.1,0.1,0.3,0.3,0.3,0.4C92.1,102.4,93,102.4,93.8,102.3z"/>
	<path class="st0" d="M112.2,102.4c0-0.1,0.1-0.4,0.3-0.7c0,0.1,0,0.4,0,0.7c0.3-0.1,0.7-0.3,0.9-0.6c0-0.3,0.1-0.6,0.1-0.9
		c-0.3-0.3-0.4-0.6-0.7-0.7c-0.6,0-1,0.3-1.2,0.7c-0.3,0.7-0.9,1.3-1.3,1.8c0.1,0.1,0.3,0.3,0.3,0.3c0.4-0.3,0.7-0.7,1.3-1.3
		C111.7,102.1,111.9,102.3,112.2,102.4z M112.2,100.9c0.3,0,0.3,0.4,0.6,0.7c-0.3-0.3-0.7-0.4-1,0
		C111.9,101.4,111.9,100.9,112.2,100.9z"/>
	<path class="st0" d="M180.7,102.4c-0.1-0.7,0.3-1.6-0.3-2.2c-0.1,0.7,0,1.8,0,2.5c0.7,0.7,1.5,1.8,2.2,2.5c0.1,0,0.3,0,0.3,0
		C182.4,104.2,181.2,103.5,180.7,102.4z"/>
	<polygon class="st0" points="151.6,100.6 151.6,100.8 151.6,100.8 	"/>
	<path class="st0" d="M116.2,100.6c-1.5,0-2.4,1.3-3.4,2.2c-0.6,0-1,0-1.6,0.1c-0.3,0.3-0.4,0.3-0.7,0.6c0.1,0.1,0.3,0.3,0.3,0.3
		c0.4-0.7,1.5-0.4,2.2-0.7c0.4-0.3,0.7-0.7,1.2-1.2c0.4,0.3,0.7,0.4,1.3,0.7c0-0.1,0-0.3,0-0.3l0.4-0.1c-0.1,0.1-0.3,0.3-0.3,0.4
		c0.6,0,1.2-0.3,1.2-0.9C117,101.4,116.7,100.9,116.2,100.6z M116.2,101.8c0,0.4-0.4,0.3-0.7,0.3c-0.1-0.3-0.1-0.4,0.1-0.7
		C115.8,101.1,116.2,101.5,116.2,101.8z"/>
	<path class="st0" d="M123.4,102c0.3-0.6-0.1-1-0.4-1.3c-0.3,0-0.6,0-0.7,0c-0.7,0.3-0.7,1.3-1,2.1c-0.3,0.4-0.7,0.9-0.7,1.6
		c0.1,2.2-0.3,4.3-0.1,6.4c0,0.3,0.3,0.4,0.4,0.3c0-0.9,0-1.8,0-2.8c0.3-1.5,0.1-3.1,0.3-4.6C121.6,102.9,123,103,123.4,102z
		 M123,101.8l-0.4-0.1c0,0.1,0.1,0.4,0.1,0.7c-0.1,0-0.4,0-0.6,0c0.1-0.3,0.3-0.4,0.4-0.7c-0.3,0-0.6,0-0.7,0
		C122.1,101.2,122.8,101.4,123,101.8z"/>
	<path class="st0" d="M127.5,104.4c-0.4-0.6-0.9-1-1.3-1.8c0.3-0.6,0.3-1.2,0.3-1.8c-0.4-0.4-1.2-0.4-1.6,0
		c-0.1,0.6-0.3,1.3,0.3,1.6c0.7,0.4,1.2,1.2,1.8,1.8c0.4,0.3,0.1,1.2,0.4,1.5c0.3,0.3,0.6,0.7,0.9,1.2c0-0.1,0.1-0.4,0.1-0.6
		c-0.3-0.3-0.4-0.6-0.7-0.9C127.6,105.1,127.6,104.8,127.5,104.4z M125.5,102.1c0,0.1,0.1,0.3,0.1,0.3c-0.1,0-0.3,0-0.4,0
		C125.4,102.4,125.5,102.1,125.5,102.1c-0.6,0.3-0.6-0.6-0.3-0.7C125.8,100.9,126.4,102.3,125.5,102.1z"/>
	<path class="st0" d="M128.4,100.9c-0.3,0.3-0.3,0.7-0.3,1.3c0.1,0.1,0.3,0.3,0.4,0.4C128.4,101.8,128.5,101.4,128.4,100.9z"/>
	<path class="st0" d="M96,101.7c0-0.1,0-0.3,0-0.4c-0.6,0.4-1,1.2-1.8,1.6c-0.9,0-1.8,0-2.8,0c0,0.1,0.1,0.3,0.3,0.4
		c0.9,0,1.9,0,2.8,0C95.1,102.7,95.6,102.3,96,101.7z"/>
	<path class="st0" d="M179.9,101.4c-0.6,0.6-0.3,1.3-0.3,2.1c0.7,1,1.8,1.9,2.7,3c0.1-0.1,0.3-0.3,0.3-0.3c-0.7-0.7-1.3-1.6-2.2-2.2
		C179.6,103,179.9,102.1,179.9,101.4z"/>
	<path class="st0" d="M183.9,103.3c0.3-0.4,0.7-1,0.7-1.6c-0.3,0.3-0.6,0.3-0.7,0.6C183.9,102.7,183.9,103,183.9,103.3z"/>
	<path class="st0" d="M92.7,104.2c0.7,0,1.3,0,1.9,0c0.7-0.4,1.2-1.2,1.8-1.8c0.3-0.3-0.3-0.4-0.4-0.1c-0.4,0.4-0.9,1.2-1.5,1.5
		c-0.9,0-1.8-0.1-2.7,0C92.1,103.9,92.3,104.2,92.7,104.2z"/>
	<path class="st0" d="M96.9,103.3c0.1-0.1,0-0.3,0-0.6c-0.7,0.6-1.3,1.3-1.8,1.9c-0.9,0-1.8,0-2.7,0c0.1,0.1,0.3,0.3,0.4,0.4
		c0.7,0,1.6,0.1,2.2,0C95.9,104.5,96.3,103.9,96.9,103.3z"/>
	<path class="st0" d="M178.7,103.2c-0.1,0.1-0.1,0.3-0.3,0.4c0.9,1.2,2.1,2.2,3,3.3c0.1,0.3,0.6,0.1,0.3-0.3
		C180.7,105.4,179.6,104.4,178.7,103.2z"/>
	<path class="st0" d="M97.4,103.5c-1.2,1.2-2.1,2.2-3.3,3.4c0.3,0.3,0.4,0.7,0.7,1.2c1-1.2,2.1-2.2,3.3-3.4
		C97.8,104.2,97.5,103.9,97.4,103.5z"/>
	<path class="st0" d="M113.1,106c0.6-0.4,0.7-1.6,0-1.9c-0.6-0.3-1,0.3-1.3,0.6c0.1,0.1,0.3,0.3,0.3,0.4c0.1-0.1,0.4-0.3,0.6-0.4
		c0.3,0.1,0.3,0.3,0.6,0.4c-0.1,0-0.4,0-0.7,0.1C112.6,105.4,112.8,105.7,113.1,106z"/>
	<path class="st0" d="M116.4,105.4c0.3-0.3,0.3-0.4,0.3-0.7c-0.1-0.1-0.3-0.3-0.3-0.3c0-0.1,0.1-0.3,0.3-0.3
		c-0.6-0.4-1.3-0.3-1.8,0.3c0.1,0.3,0.3,0.3,0.3,0.6c0-0.3,0.4-0.7,0.7-0.4c0.3,0.1,0.3,1-0.4,0.6c0.1,0.1,0.3,0.3,0.3,0.6
		c-0.1,0-0.4,0-0.6,0.1l0.4-0.3c-0.3-0.3-0.4-0.4-0.7-0.7c-0.1,0.7,0,1.8-0.7,2.2c0.1,0.1,0.3,0.3,0.4,0.4
		C115.2,106.6,115.8,106,116.4,105.4z"/>
	<path class="st0" d="M118.3,104.1c-0.4,0.3-0.3,0.9-0.3,1.3c0.3,0.1,0.3,0.1,0.6,0.3c0.1-0.3,0.3-0.3,0.4-0.6h-0.7
		c0.1-0.3,0.3-0.6,0.6-0.7c0.1,0.1,0.3,0.3,0.4,0.4c-0.1,0.3-0.3,0.6-0.1,0.9c0.1,0.1,0.3,0.3,0.3,0.3c0.1,1.2-0.1,2.2,0,3.4
		c0,0.3-0.1,0.9,0.3,0.7c0.3-1.8-0.1-3.9,0.3-5.7C120,104.1,118.9,103.5,118.3,104.1z"/>
	<path class="st0" d="M123,112.2c0-0.6,0-1,0-1.6c0.3-0.4,0.7-0.7,0.9-1.2c0.1-1,0.1-2.2,0-3.3c-0.1-0.7-0.3-1.8-0.9-2.1
		c-0.4-0.3-1.3,0.3-1.3,0.7c-0.1,0.3,0.3,0.7,0.3,1c0.4,0.3,1,0.3,1.5,0.6c0,0.9,0,1.8,0,2.8c-0.3,0.6-1.2,0.9-1,1.8
		C122.7,111.3,122.4,112,123,112.2z M122.5,105.9c0-0.3,0-0.4,0.1-0.7c-0.1,0-0.4-0.1-0.7-0.1c0.3-0.3,0.4-0.4,0.7-0.6
		C123.1,104.8,122.8,105.4,122.5,105.9z"/>
	<path class="st0" d="M126.6,105.4c-0.1-0.4,0-1.2-0.6-1.5c-0.7-0.4-1.8,0.4-1.3,1.3c0.3,1.2,1.8,0.7,2.4,1.5c0.3,0.3,0.7,0.6,0.7,1
		c0.1,1.9,0,3.9,0.1,5.8c0.1,0.1,0.3,0.3,0.3,0.3c0.1-2.2,0-4.3,0.1-6.4C127.8,106.8,127,106.2,126.6,105.4z M125.8,105.1
		c-0.1-0.1-0.3-0.3-0.4-0.4c-0.1,0.1-0.3,0.4-0.4,0.6C124.6,104.4,126,104.4,125.8,105.1z"/>
	<path class="st0" d="M138.8,115.3c0.1-1.5,0.1-3,0.1-4.3c-0.3-0.7-1-1-1.3-1.8c-0.1-0.7,0-1.6,0-2.5c0.3-0.1,0.6-0.3,0.7-0.3
		c0-0.7,0-1.5,0-2.2c-0.7,0.6-0.7,1.8-1.2,2.5c-0.1,0.9-0.1,1.8,0,2.8c0.3,0.6,0.7,1,1.3,1.5c0,1,0,2.2,0,3.3
		C138.5,114.6,138.4,115.2,138.8,115.3z"/>
	<path class="st0" d="M155.6,110.7c0.3-0.1,0.6-0.3,0.9-0.4c0.1-0.3,0.1-0.6,0.3-0.7c0,0.3,0,0.6,0,0.7c0.1-0.1,0.3-0.3,0.6-0.4
		c0-1.3,0-2.5,0-3.9c-0.3-0.7-0.7-1.3-1.3-1.8c-0.6-0.4-1.3,0.3-1.5,0.7c0.1,0.6,0.3,1,0.7,1.3c0.1-0.3,0.3-0.7,0.3-1
		c-0.3,0-0.6,0.1-0.7,0.1c0.3-0.4,0.7-0.7,1-0.3c-0.1,0.3-0.3,0.7-0.4,1c0.1,0.3,0.3,0.4,0.3,0.7
		C155.6,108.1,155.6,109.5,155.6,110.7z"/>
	<path class="st0" d="M160.1,108c0.4-0.3,0.9-0.6,1.3-1c-0.6-0.7-1.5-1.3-1.8-2.2c-0.1-0.4-0.6-0.6-0.7-0.7
		c-0.3,0.1-0.4,0.3-0.7,0.3c-0.4,0.7-0.3,1.6,0.4,1.9c0-0.1,0.1-0.4,0.1-0.7c0.3,0.3,0.3,0.4,0,0.7
		C159.3,106.6,160.1,107.2,160.1,108z M158.3,105.4c0-0.1,0-0.4,0-0.6c0.4-0.3,0.7-0.1,0.9,0.3C158.9,105.4,158.7,105.4,158.3,105.4
		z"/>
	<path class="st0" d="M178.2,104.1l-0.4,0.1c0.9,1,1.9,2.2,2.8,3.3c0.1,0.1,0.7,0.7,0.6,0.1C180.3,106.5,179.1,105.3,178.2,104.1z"
		/>
	<path class="st0" d="M128.4,105.7c0-0.4,0-0.9,0-1.3C128.1,104.8,128.1,105.3,128.4,105.7z"/>
	<path class="st0" d="M153.8,105.4c0,0,0.1-0.1,0.3-0.1c-0.1-0.3-0.3-0.3-0.3-0.4c-0.4,0-0.9,0-1.3,0c0-0.3-0.1-0.4-0.1-0.1
		c-0.3,0-0.6,0.1-0.7,0.3c0.1,0.3,0.1,0.6,0.3,0.7c-0.1,0.1-0.3,0.3-0.3,0.3c0,0.3-0.1,0.6-0.1,0.7h0.3c-0.3,0.3-0.4,1.2,0.3,1.3
		l-0.3-0.6c0.3-0.3,0.6-0.3,0.7-0.4c0.3,0,0.4,0,0.7-0.1c0,0.1,0.1,0.3,0.1,0.4c0-0.1,0.1-0.3,0.3-0.6c0.3,0,0.4,0,0.6,0
		c0,0.4,0.1,0.9,0.1,1.3c-0.3,0.1-0.3,0.3-0.6,0.3c0,1,0,2.2,0,3.3c0.6-0.3,1-0.4,1.6-0.7c0-0.7,0-1.8,0.1-2.5c0-0.7-0.7-1.2-1-1.8
		C154.1,106.3,154,105.9,153.8,105.4z M153.1,106.8c-0.3,0-0.6-0.1-0.7-0.1c-0.1-0.3-0.3-0.7-0.1-1c0.3-0.1,0.4-0.3,0.7-0.3
		c0.3,0.3,0.6,0.6,0.7,0.9C153.5,106.5,153.2,106.5,153.1,106.8z"/>
	<path class="st0" d="M135.2,113.2c0.7,0.7,1.2,1.8,2.2,2.1c-0.4-0.7-1.3-1.3-1.8-2.2c0-2.5,0-4.9,0-7.5c-0.3-0.7-0.9-0.9-1.5-0.7
		c0,0.1,0,0.3,0,0.4c0.3,0.1,1-0.1,1,0.3C135.4,108.1,135.2,110.7,135.2,113.2z"/>
	<path class="st0" d="M177.5,105.1c0.4,0.7,1.2,1.3,1.8,1.8c0.6,0.6,0.9,1.2,1.5,1.6c0-0.1,0.1-0.3,0.1-0.3c-1-1.2-2.1-2.4-3.3-3.4
		C177.5,104.8,177.5,105,177.5,105.1z"/>
	<path class="st0" d="M144.1,105c-0.1,0.7,0,1.6,0,2.2c0.1,0,0.4,0,0.7,0c0,0.3,0.1,0.7,0.1,1c0.1,0,0.3,0.1,0.4,0.1v-0.1h-0.3
		c0-0.1,0-0.3,0-0.4c0.4,0,1-0.6,1.5-0.1c0.3-0.3,0.4-0.7,0.9-0.7c-0.1-0.3-0.3-0.4-0.3-0.7c0.1-0.3,0.1-0.4,0.1-0.7
		c-0.7,0-1.6-0.1-2.5-0.1c0.1,0.1,0.3,0.4,0.3,0.6c-0.1,0-0.3,0-0.4,0C144.5,105.4,144.4,105.1,144.1,105z M145.6,106.5V106
		c0.4,0,0.9,0,1.3,0.3c-0.3,0.4-0.6,1-1.2,0.9c-0.3-0.1-0.4-0.3-0.7-0.3c0-0.4,0.1-0.7,0-1.3C145.3,105.9,145.4,106,145.6,106.5z"/>
	<path class="st0" d="M179.4,108c-0.3,0-0.7-0.1-1.2-0.1c0-0.3,0-0.7,0-1.2c-0.4-0.4-0.7-0.9-1.3-1.3c0,0.1-0.1,0.3-0.1,0.4
		c0.3,0.3,0.7,0.7,0.9,1c0,0.4,0,1,0,1.5c0.4-0.3,1.3-0.7,1.8,0c-0.1,0.9-1.3,0.7-1.8,0c0,0.3,0,0.7,0,1c0.7,0.1,1.3,0.1,2.1,0
		c0,0-0.1-0.1-0.3-0.3C179.9,108.7,179.7,108.3,179.4,108z"/>
	<path class="st0" d="M99.5,106.5c-0.1,0-0.3-0.1-0.3-0.1c-1,1-1.9,2.2-3,3.3c0,0.1-0.1,0.4-0.1,0.6C97.4,109,98.4,107.7,99.5,106.5
		z"/>
	<path class="st0" d="M177.3,110.2c0-0.9,0-1.9,0-2.8c-0.3-0.3-0.6-0.7-0.9-1c-0.1,0.1-0.1,0.3-0.3,0.3c0.3,0.3,0.6,0.6,0.7,1
		c0.1,1,0,2.1,0.1,3.1c0.3,0.4,0.7,0.7,1,1.2C178.5,111.1,177.3,110.8,177.3,110.2z"/>
	<path class="st0" d="M99.8,107.1c-1,1.2-2.1,2.2-3.1,3.4c0.1,0.1,0.1,0.3,0.3,0.3c1-1.2,2.1-2.2,3.3-3.3
		C99.9,107.2,99.9,107.1,99.8,107.1z"/>
	<path class="st0" d="M115.2,107.5c0,0.3,0.4,0.4,0.7,0.6c0.3,0.3,0.4,0.4,0.7,0.7C117.3,108,115.9,106.8,115.2,107.5z"/>
	<path class="st0" d="M176.6,108.1c-0.3-0.3-0.6-0.7-1-1c-0.1,0.4,0.3,0.7,0.6,1.3c0.1,1-0.1,1.9,0.1,3c0.3,0.4,0.7,1.2,1.3,1.2
		c-0.3-0.4-0.7-0.7-1-1.3C176.4,110.2,176.6,109.2,176.6,108.1z"/>
	<path class="st0" d="M149.5,110.4c-0.7-0.9-1.5-1.8-2.2-2.5c0.1-0.3,0.3-0.3,0.4-0.6c-0.3,0.1-0.4,0.3-0.7,0.4
		c0.1,0.3,0.3,0.6,0.4,0.9c-0.4,0.1-0.9,0.1-1.3,0.3c0.6,0.7,1.2,1.3,1.6,1.9c0.3,0.7,0.3,1.9,1.3,2.2c-0.1-0.3-0.3-0.6-0.4-0.9
		c0.1-0.3,0.3-0.4,0.3-0.7c0.3,0.1,0.3,0.3,0.6,0.4c-0.3,0.3-0.3,0.7-0.3,1C150.2,112.6,150.1,111.1,149.5,110.4z"/>
	<path class="st0" d="M123.1,108.1c-0.1-0.4-0.4-0.7-0.9-0.7c-0.4,0.1-0.9,0.4-1.2,0.9c0.1,0.3,0.3,0.7,0.4,1.2
		c0.3-0.1,0.6-0.3,0.7-0.3c-0.3,0.4-0.7,0.7-0.7,1.3c0,0.4-0.1,1.2,0.4,1.3c0-0.6,0-1,0-1.6C122.4,109.5,123.4,109,123.1,108.1z
		 M121.6,108.9c0-0.3,0.3-0.7,0.6-0.7c0.3,0.1,0.3,0.4,0.3,0.7C122.4,108.9,121.9,108.9,121.6,108.9z"/>
	<path class="st0" d="M126.1,112.6c0-1.3,0.3-2.5,0.3-3.9c0.3-0.6-0.3-1.3-1-1.3s-1.2,1.2-0.7,1.6c0.3,0.3,0.7,0.4,1,0.6
		c-0.1,1,0.3,2.2-0.4,3.3C125.7,113.2,126.3,113.1,126.1,112.6z M124.9,109c0-0.3,0.3-0.9,0.7-0.7c0.1,0.3,0.1,0.4,0.3,0.7
		C125.7,109,125.2,109,124.9,109z"/>
	<path class="st0" d="M100.4,107.7c-1,1.2-2.1,2.2-3.1,3.4c0.1,0.1,0.3,0.3,0.3,0.3c1-1.2,2.1-2.2,3.1-3.3
		C100.5,108,100.4,107.8,100.4,107.7z"/>
	<path class="st0" d="M139.3,109.6c0,1.8,0,3.7,0,5.7c0.1-0.1,0.3-0.3,0.3-0.3c0-2.1,0-4.2,0.1-6.3c-0.4,0-0.7,0-1.3,0.1
		c-0.1-0.1-0.3-0.3-0.3-0.3c0-0.3,0-0.7,0-0.9C137.6,108.4,138.2,109.8,139.3,109.6z"/>
	<path class="st0" d="M175.2,108c-0.1,0.1-0.3,0.3-0.4,0.4c0.6,0.4-0.1,1-0.3,1.6c0.3-0.1,0.6-0.3,0.7-0.3
		C176,109.3,175.7,108.4,175.2,108z"/>
	<path class="st0" d="M118.9,110.1c0.1-0.6,0.3-1.3-0.3-1.6c-0.6-0.6-1.8,0.1-1.3,0.9c0.3-0.3,0.6-0.6,1.2-0.4
		c0,0.1-0.1,0.4-0.1,0.7C118.5,109.9,118.8,110.1,118.9,110.1z"/>
	<path class="st0" d="M151.7,108.6c0.3,0,0.7-0.1,1-0.1C152.3,108.3,151.7,108,151.7,108.6z"/>
	<path class="st0" d="M100.8,108.6c-1,1.2-2.2,2.2-3.1,3.4h0.4c1-0.9,1.9-2.1,2.8-3C101.3,108.7,101.1,108.1,100.8,108.6z"/>
	<path class="st0" d="M129.1,108.7c-0.1,0-0.3-0.1-0.4-0.1c0,1.8,0,3.6,0,5.4c0.1,0,0.3,0.1,0.4,0.1
		C129.1,112.3,129.1,110.5,129.1,108.7z"/>
	<path class="st0" d="M129.6,113.7c-0.1,0.3,0.3,0.4,0.3,0.7c0.1-1.9,0.1-3.9,0-5.8c-0.1,0.1-0.3,0.3-0.3,0.3
		C129.6,110.5,129.6,112.2,129.6,113.7z"/>
	<path class="st0" d="M146.2,111.1c-0.7-0.7-1.6-1.5-2.1-2.4c-0.3,0-0.7,0.1-1,0.1c0.1,0.1,0.3,0.4,0.4,0.6
		c-0.3,0.1-0.4,0.3-0.6,0.3l0.4,0.3c-0.4,0.1-0.6-0.3-0.6-0.6h-0.3c0.1-0.3,0.3-0.6,0.7-0.7c-0.3,0-0.9,0.1-1.3,0.1
		c0,0.6-0.1,1.2,0.3,1.8c0.6,0.7,1.3,1.5,2.1,2.2c0,0.6,0,1.3,0,1.8c0.7-0.3,1.5-0.3,2.2-0.4C146.6,113.2,147.1,111.9,146.2,111.1z"
		/>
	<path class="st0" d="M130.3,108.6c0,1.9,0,3.9,0,5.8c0.1,0,0.3-0.1,0.4-0.1c0.1-1.8,0-3.7,0-5.5
		C130.6,108.7,130.5,108.7,130.3,108.6z"/>
	<path class="st0" d="M101.4,109c-1,1-1.9,2.1-2.8,3.1c-0.3,0.1-0.1,0.3,0,0.6c1.2-1.2,2.2-2.4,3.3-3.7
		C101.7,109,101.4,109,101.4,109z"/>
	<path class="st0" d="M174.5,109.8c0.3-0.3-0.1-0.7-0.4-0.6C173.9,109.5,174.2,109.9,174.5,109.8z"/>
	<path class="st0" d="M134.8,110.1c-0.3-0.7-1.2-0.7-1.8-0.7c-0.4,0-0.7,0.4-0.9,0.9c-0.1,0.7-0.7,1.3-0.7,1.9
		c0,0.6,0.4,0.9,0.7,1.2c0-0.1,0-0.4-0.1-0.7c-0.7-0.3-0.1-0.9,0.3-0.7c0.4,0.4-0.3,0.9-0.3,1.3c0.3-0.1,1-0.3,1-0.7
		c0.3-0.7-0.3-1.3-0.6-2.2c-0.1-0.3,0.1-0.7,0.4-0.7c0.4,0,1-0.1,1.3,0.3c0.1,1.2,0,2.2,0,3.6c0.1,0.6-0.6,0.9-0.7,1.3
		c0.3,0,0.4,0,0.7,0c0.3-0.3,0.7-0.7,0.6-1.2C134.8,112.5,134.9,111.1,134.8,110.1z"/>
	<path class="st0" d="M102.2,109.6c-0.9,0.9-1.8,1.8-2.5,2.8c-0.3,0.3-0.6,0.6-0.7,0.9c0.1,0,0.3,0,0.4-0.1c0.9-1,1.8-1.9,2.8-3
		C102.5,110.1,102.2,109.8,102.2,109.6z"/>
	<path class="st0" d="M174,110.2c-0.3-0.3-0.7-0.7-0.6,0c1,1.2,2.1,2.4,3.3,3.4c0-0.1-0.1-0.3-0.1-0.4
		C175.7,112.2,174.8,111.1,174,110.2z"/>
	<path class="st0" d="M124.9,110.4c-0.6-0.4-1.5,0.3-1.5,0.9c0,0.4,0.3,0.7,0.6,1c0.3-0.3,0.7-0.7,0.3-1.3v0.6l-0.3-0.1
		c0-0.1,0.1-0.3,0.3-0.4c0.4-0.6,1.2,0.4,0.4,0.7c0,0.1,0.1,0.4,0.3,0.6C125.5,112,125.7,110.8,124.9,110.4z"/>
	<path class="st0" d="M138.1,111.6c0.1-0.6-0.4-0.9-0.9-1.3c-0.4,0.3-1,0.4-1,1c-0.1,0.6,0.3,1,0.7,1.3c0.1-0.4-0.6-0.7-0.3-1.2
		c0.3-0.3,0.7,0,0.9,0.3c-0.1,0.1-0.4,0.3-0.6,0.3l0.1,0.6C137.5,112.3,138.1,112.2,138.1,111.6z"/>
	<path class="st0" d="M172.7,110.7c0.7,0.9,1.6,1.8,2.4,2.7c0.3,0.3,0.3,0.7,0.3,1.3c0.3-0.3,0.3-0.7,0.3-1c-0.9-1-1.8-2.2-2.8-3.3
		C172.8,110.5,172.7,110.7,172.7,110.7z"/>
	<path class="st0" d="M103.4,112.6c0.3-0.6,0-1.2-0.3-1.5c-0.3,0.1-0.9-0.1-1.2,0.3c-0.3,0.4-0.3,0.9-0.4,1.3c-0.1,0.7-1,1-1.2,1.8
		c0.4,0.3,0.7-0.4,0.9-0.6C101.6,113.1,102.8,113.4,103.4,112.6z M102.8,112.5c-0.1,0-0.3,0-0.4,0l0.3,0.4c-0.3-0.3-0.4-0.4-0.7-0.7
		c0.3-0.3,0.4-0.3,0.7-0.6C102.6,111.7,103.2,112.2,102.8,112.5z"/>
	<path class="st0" d="M140.8,115c0-0.4,0-0.9,0-1.3c0.6-0.3,1.5-0.3,1.8-1c0.3-0.7-0.3-1.8-1.2-1.3c-0.7,0.3-0.7,1.2-1,1.8
		c-0.3,0.6-0.3,1.3-0.3,2.1C140.3,115,140.6,115,140.8,115z M141.8,111.9c0.3,0.1,0.3,0.3,0.4,0.7c-0.3,0-0.7,0.1-0.9,0.1
		C141.4,112.3,141.4,112,141.8,111.9z"/>
	<path class="st0" d="M174.6,113.5c-0.7-0.7-1.3-1.3-1.9-2.1c-0.4,0-0.9,0-1.3,0.4c0.4,0.1,1.2-0.1,1.5,0.3c0.3,0.4,0.7,0.7,1,1.3
		c0-0.1,0-0.3,0-0.3c0.7,0.4,0.6,1.3,0.6,2.1C175.1,115,175.1,114,174.6,113.5z"/>
	<path class="st0" d="M104.3,113.8c0.1-0.7,0.3-1.8-0.3-2.2c0,0.7,0,1.3,0,1.9c-0.4,1-1.8,1.6-2.1,2.8
		C102.9,115.8,103.5,114.7,104.3,113.8z"/>
	<path class="st0" d="M172.1,112.6c-0.6,0-1.3-0.3-1.8,0.4c0.4,0,0.9-0.1,1.5-0.1c0.6,0.6,1.2,1.2,1.8,1.8c0.1,0.4,0,1,0,1.5
		c0.6-0.3,0.4-1,0.3-1.5C173.6,113.8,172.8,113.2,172.1,112.6z"/>
	<path class="st0" d="M105.5,114.1c0.4,0,0.7,0,1.3,0c-0.1-0.1-0.3-0.3-0.4-0.4c-0.3,0-0.7,0-1,0.1c-0.7,0.7-1.3,1.3-2.1,2.2
		c-0.3,0.3-0.7,0.6-0.4,1C103.5,116.2,104.4,115,105.5,114.1z"/>
	<path class="st0" d="M173.3,115.2c-0.4-0.4-0.9-1-1.3-1.5c-0.9,0-2.1-0.3-2.8,0.4c0.9,0,1.8,0,2.7,0c0.4,0.3,0.7,0.7,1.2,1.2
		c0.1,0.6,0,1.2,0.1,1.8C173.6,116.5,173.3,115.8,173.3,115.2z"/>
	<path class="st0" d="M105.5,114.7c-0.7,0.4-0.4,1.3-0.1,1.8c0.4,0.1,0.9,0.3,1.3-0.3C107.2,115.6,106.4,114.1,105.5,114.7z
		 M106.1,116.2c-0.3,0-0.6,0-0.7,0c0-0.3,0-0.6,0-0.7c0.3-0.1,0.7,0,1,0.3C106.2,115.9,106.1,116.1,106.1,116.2z"/>
	<path class="st0" d="M169.1,115.2c-0.1-0.3-0.3-0.4-0.6-0.7c-0.4,0.3-0.9,0.7-1.3,1c0.3,1.2,1.2,2.1,1.5,3.3c0.1,0.4,0.4,0.7,0.7,1
		c0-0.1,0.1-0.3,0.1-0.3c-0.3-0.3-0.6-0.6-0.6-1C169.1,117.4,169.2,116.2,169.1,115.2z M168.5,116.2c-0.3-0.1-0.4-0.3-0.7-0.4
		c0.1-0.3,0.3-0.6,0.7-0.6c0.1,0.1,0.3,0.3,0.3,0.4C168.6,115.9,168.5,116.2,168.5,116.2z"/>
	<path class="st0" d="M171.5,114.9c-0.6-0.3-1.2,0.6-1,1c0,0.4,0.4,0.7,0.7,1l0.1-0.4c-0.1-0.1-0.4-0.4-0.6-0.6
		c0.3,0,0.6,0.1,0.7,0.3c-0.3-0.1-0.4-0.3-0.7-0.4c0.4-0.3,0.7-0.1,0.9,0.3c-0.3,0.3-0.4,0.6-0.4,0.9c0.3-0.3,0.6-0.3,0.7-0.7
		C172.5,115.8,172.2,114.9,171.5,114.9z"/>
	<path class="st0" d="M107.1,117.7c0.4,0,1-0.3,1-0.7c0-0.4,0-1.2,0-1.8c-0.1,0-0.3-0.1-0.4-0.3c-0.1,0.7,0.3,1.6-0.3,2.2
		c-1,0.1-2.2,0-3.3,0c-0.3,0-0.7,0.3-0.3,0.4C104.9,117.7,106.1,117.7,107.1,117.7z"/>
	<path class="st0" d="M108.6,115.8c0.3,0.9,0.7,1.8,0.6,2.8c-0.1,1,0.3,2.2-0.3,3c0.1,0,0.3,0,0.3,0.1c0.1-0.1,0.3-0.3,0.3-0.3
		c0-1.2,0-2.2,0-3.4c0-0.4,0.3-0.7,0.4-1C109.6,116.4,109,116.1,108.6,115.8z"/>
	<path class="st0" d="M166.4,118.7c-0.3-0.6-0.7-0.9-1.2-1.3c-0.4-0.1-0.9,0.1-1.3,0.3c0.3,0,0.7,0,1.2,0c0.3,0.3,0.7,0.6,0.9,0.9
		c0.1,0.6,0,1.2,0.1,1.6c0.3,0.4,0.7,0.7,1,1.2c0.1-0.6-0.4-0.7-0.7-1.2C166.4,119.8,166.5,119.3,166.4,118.7z"/>
	<path class="st0" d="M112,119.9c0.1-0.6,0.1-1.3,0.1-1.9c-0.1,0-0.3-0.1-0.4-0.1c0,0.7,0.1,1.3,0,1.9c-0.6,0.7-1.3,1.3-1.8,2.1
		c0,0.1,0,0.3,0,0.3C110.7,121.7,111.3,120.8,112,119.9z"/>
	<path class="st0" d="M112.6,118.3c-0.1,0.7,0,1.3-0.1,1.9c-0.6,0.7-1.3,1.5-2.1,2.2c0.1,0,0.3,0.1,0.4,0.1c0.7-0.7,1.3-1.5,2.1-2.2
		C112.8,119.8,113.2,118.7,112.6,118.3z"/>
	<path class="st0" d="M163.8,120.1c0.3,0.3,1,0.6,1.3,0.1c0.7-0.4,0.3-1.3-0.3-1.8c-0.3,0-0.4,0-0.7,0
		C163.8,118.7,163.5,119.3,163.8,120.1c0.1-0.3,0-0.9,0.4-1.2c0.3-0.3,0.4,0.3,0.6,0.4c-0.1,0.1-0.3,0.4-0.4,0.6l-0.1,0.1l0.1-0.4
		C164.3,119.8,164,119.9,163.8,120.1z"/>
	<path class="st0" d="M113.7,118.9c-0.1,0-0.3-0.1-0.3-0.1c0,0.6,0,1.2,0,1.8c-0.7,0.7-1.3,1.5-2.1,2.2c0,0.1,0,0.3,0,0.3
		c0.4,0,0.7-0.4,0.9-0.7c0.4-0.6,1-1,1.3-1.6C113.7,120.2,113.7,119.5,113.7,118.9z"/>
	<path class="st0" d="M107.7,119.6c-0.6,0-1,0-1.6,0c0.1,0.1,0.4,0.3,0.6,0.3c0.3,0,0.7,0,1,0c0.1,0.3,0.1,0.6,0.3,0.9
		c0.1,0,0.3,0.1,0.3,0.3C108.4,120.5,108.1,119.9,107.7,119.6z"/>
	<path class="st0" d="M114.6,119.3c-0.1,0-0.3,0-0.3,0c0.1,1.3,0.1,2.7,0,3.9c0,0.4-0.1,0.7-0.3,1.2c0.1,0,0.3,0.1,0.3,0.1
		c0.3-0.4,0.3-0.9,0.3-1.3C114.6,121.9,114.6,120.7,114.6,119.3z"/>
	<path class="st0" d="M161.6,120.5c-0.1,0.1-0.3,0.3-0.3,0.3c0-0.1,0-0.3-0.1-0.4l-0.3-0.1h-0.1v-0.1h0.1l-0.1,0.1
		c0.4-0.1,0.9-0.1,1.3-0.1c-0.3-0.1-0.7-0.3-1.2-0.3c0.3,0,0.6,0,0.7,0l-0.1-0.4c-0.3,0.1-0.4,0.3-0.7,0.3c-0.7,0.3-1.3,0.6-2.1,0.9
		c0.3,0.3,0.6,0.7,1,0.7c0.3,0.1,0.7-0.3,1-0.3c0.3,0.1,0.3,0.3,0.6,0.4C161.6,121.3,161.9,120.5,161.6,120.5z"/>
	<path class="st0" d="M116.2,120.2c-0.6-0.1-0.7,0.4-1,0.7c-0.1,0.9,0,1.9,0,2.8c-0.1,0.3-0.3,0.4-0.6,0.7c0.1,0.1,0.1,0.3,0.3,0.3
		c0.3-0.3,0.4-0.4,0.7-0.7c0.1-0.9,0-1.9,0.1-2.8C115.8,121,116.2,120.8,116.2,120.2z"/>
	<path class="st0" d="M117.3,120.8c-0.6-0.1-0.7,0.3-1.2,0.7c-0.1,1,0,2.2-0.1,3.3c0,0.3-0.1,0.7,0.3,0.9c0-1.3,0-2.7,0.1-3.9
		C116.8,121.3,117,121.1,117.3,120.8z"/>
	<path class="st0" d="M118,121c-0.7,0.1-1.2,0.7-1,1.5c0,1,0,2.1,0,3.1c0.1,0.1,0.3,0.3,0.3,0.4c0.1-1.3,0-2.5,0-3.9
		C117.4,121.9,118,121.4,118,121z"/>
	<path class="st0" d="M164.7,121.9c-0.7,0.3-1-0.6-1.5-0.9c-0.3,0-0.6,0-0.7,0c0,0.1,0,0.3,0,0.4c-0.1,0-0.4,0-0.6,0
		c0.1,0.3,0.1,0.3,0.3,0.6c0.4,0.6,1,1.2,1.5,1.8c0.3-0.3,0.7-0.3,0.7-0.7c0.1-0.4,0.7-0.3,0.9-0.3c0.3-0.1,0.3-0.3,0.6-0.3
		C165.5,121.9,165,121.6,164.7,121.9z"/>
	<path class="st0" d="M157.2,121.3c-0.4,0.3-1,0.4-1.5,0.7c0,0.9,0,1.8,0,2.8c0.3,0.6,0.9,1,1.3,1.6c0.4-0.3,1-0.4,1.5-0.6
		c-0.4-0.6-0.9-1-1.5-1.6C157.2,123.4,157.2,122.3,157.2,121.3z"/>
	<path class="st0" d="M119.7,122v-0.3c-0.7,0.6-1.3,1.3-1.8,1.9c-0.1,0.7,0,1.6-0.1,2.4c0.1,0.1,0.3,0.3,0.3,0.3c0-0.7,0-1.8,0-2.5
		C118.6,123.2,119.2,122.8,119.7,122z"/>
	<path class="st0" d="M120.9,122.3c-0.6,0.7-1.3,1.5-1.9,2.2c-0.6,0.4-0.3,1.3-0.3,1.8c0.1,0,0.3,0.1,0.3,0.1c0-0.4,0-0.9,0-1.5
		c0.7-0.7,1.6-1.6,2.2-2.5C121.2,122.5,121,122.5,120.9,122.3z"/>
	<path class="st0" d="M122.8,122.8L122.8,122.8c-0.3,1.8-0.1,3.3-0.1,4.9c0,0,0.1,0.1,0.3,0.1c0.3-1,0.1-2.1,0.1-3.1
		C123,124.3,123.3,123.5,122.8,122.8z"/>
	<path class="st0" d="M151.6,126.4c-0.3,0.3-0.4,0.4-0.7,0.7c0.3,0.3,0.7,0.4,0.9,0.9c0.1,0,0.3,0,0.3,0.1c0.3-0.4,0.7-0.7,0.9-1.3
		c0-1.3,0-2.5,0-3.9c-0.6,0.3-1,0.3-1.5,0.6C151.6,124.4,151.6,125.5,151.6,126.4z"/>
	<path class="st0" d="M123.4,123.4c0,1.3,0,2.8,0,4.3c0,0.3,0.1,0.6,0.3,0.7c0.3-1.6,0.1-3.3,0.1-4.9L123.4,123.4z"/>
	<path class="st0" d="M124.6,123.4c-0.1,0.1-0.3,0.3-0.3,0.3c0,1.5-0.1,3,0,4.5c0.1,0.1,0.3,0.3,0.3,0.3
		C124.6,127,124.6,125.2,124.6,123.4z"/>
	<path class="st0" d="M125.5,123.8c-0.1,0-0.3,0.1-0.3,0.3c-0.1,0.9,0,1.8,0,2.8c0,0.7-0.1,1.3,0.3,1.9c0.3,0.1,0.4,0.1,0.7,0.3
		c-0.3-0.3-0.3-0.3-0.4-0.6C125.5,126.7,125.5,125.2,125.5,123.8z"/>
	<path class="st0" d="M127.5,124.4L127.5,124.4c0,0.4,0.3,0.9-0.1,1.2c-0.1-0.1-0.3-0.3-0.4-0.3c0,0.1,0,0.3,0,0.3
		c-0.7,0-0.6-1,0.1-1.2c-0.1-0.3-0.4-0.3-0.7-0.3c-0.7,0.9,0.3,1.9,0.6,2.8c0.3-0.1,0.7-0.3,0.9-0.3c0-0.7,0.1-1.3,0.1-2.1
		L127.5,124.4z"/>
	<path class="st0" d="M143.2,127.1L143.2,127.1c-0.7,0.9-1.8,1.8-2.7,2.8c1.2-0.1,2.4-0.3,3.6-0.3c1-1.2,2.2-2.2,3.3-3.6
		c0.4-0.4,0.3-1.2,0.3-1.8c-0.7,0.3-1.8,0.3-2.5,0.4C144.5,125.6,143.9,126.4,143.2,127.1z"/>
	<path class="st0" d="M129.6,125.6c0.1,0.1,0.3,0.4,0.3,0.7c0.6-0.3,0.9-0.7,1.2-1.3c-0.3-0.1-0.6-0.1-0.7-0.3c0,0.3,0,0.4,0,0.7
		c-0.3,0-0.7-0.1-1.2-0.1c0-0.3,0.1-0.6,0.3-0.7c-0.1,0-0.3,0-0.4,0.1c-0.1,0.7,0.3,1.3,0.7,1.6L129.6,125.6L129.6,125.6z"/>
	<path class="st0" d="M132.2,125.6c0-0.1,0-0.3,0-0.4c-0.1-0.1-0.3-0.1-0.3-0.3c0,0.1,0,0.3,0,0.4c-0.7,0.9-1.6,1.6-2.2,2.5
		c0,0.4-0.3,1.2,0.3,1.6c0-0.4,0-0.9,0-1.3C130.6,127.4,131.5,126.5,132.2,125.6z"/>
	<path class="st0" d="M142.3,125.3c-0.1,0-0.4-0.1-0.6-0.3c0,0.1-0.1,0.1-0.3,0.3c-1.2,0.7-1.8,1.9-2.8,3c-0.4,0.6-1.3,1-1.3,1.9
		c0.1,0,0.3,0,0.4,0c0.7-1.3,1.8-2.1,2.8-3.3C141.4,126.4,141.7,125.6,142.3,125.3z"/>
	<path class="st0" d="M119.8,125.3c-0.4,0.3-0.4,0.9-0.4,1.5c0.1,0.1,0.3,0.3,0.4,0.3c0.1,0,0.3-0.1,0.3-0.1
		c0.3,0.1,0.6,0.4,0.9,0.3c0.1-0.3,0.3-0.6,0.3-0.9C121.5,125.5,120.6,124.9,119.8,125.3z M120.9,126.8c-0.3,0-0.7,0-1.2,0
		c0.1-0.3,0.1-0.9,0.7-0.9C120.9,125.8,120.9,126.4,120.9,126.8z"/>
	<path class="st0" d="M133.6,125.3c-0.1,0-0.3-0.1-0.3-0.1c-0.7,1.2-1.8,1.9-2.7,3.1c-0.1,0.3-0.1,0.7-0.1,1.3
		c0.1,0,0.3,0.1,0.3,0.1c0-0.4-0.1-0.7,0.1-1.3C131.6,127.4,132.8,126.4,133.6,125.3z"/>
	<path class="st0" d="M131.9,128.6c0.9-1.2,2.2-2.1,2.7-3.4c-0.3,0-0.3,0.1-0.6,0.3c-0.6,1.3-1.6,2.1-2.4,3.1c0,0.4-0.1,1-0.1,1.5
		C132.1,129.7,131.9,129.1,131.9,128.6z"/>
	<path class="st0" d="M136.4,126.5c0-0.3-0.1-0.4-0.1-0.7c0.4,0,0.9,0,1.5,0l-0.1-0.4c-0.7-0.1-1.3,0-2.1,0c0,0.3,0,0.7,0,1l0.4-0.3
		c-0.3,0.4-0.6,0.9-1,1.3c-0.4,0.3-1,0.3-1.5,0.4c-0.7,0.3-0.7,1.3-0.3,1.8c0.6,0.1,1.3,0.4,1.6-0.3
		C135.1,128.5,135.4,127.1,136.4,126.5z M133.1,129.5c-0.1-0.7,0.3-1,0.9-1c0.1,0.3,0.3,0.6,0.3,0.7
		C134.2,129.5,133.6,129.4,133.1,129.5z"/>
	<path class="st0" d="M139.7,125.5c-1.3,1.3-2.5,2.8-3.9,4.2c-0.1,0.1-0.1,0.3-0.3,0.4c0.1,0,0.3,0,0.4,0c1.5-1.5,2.8-3.1,4.3-4.6
		C140.3,125.5,139.9,125.5,139.7,125.5z"/>
	<path class="st0" d="M136.6,127c0.3-0.1,0.6-0.1,0.9-0.1c0.1-0.1,0.3-0.4,0.3-0.6c-0.3,0-0.7,0-1.2,0
		C136.6,126.2,136.6,126.7,136.6,127z"/>
	<path class="st0" d="M149.3,128.8c0.1,0,0.3,0,0.3,0.1c0-0.6,0.3-0.9,0.9-1c0-0.1,0-0.3,0-0.4C149.9,127.6,149.6,128.2,149.3,128.8
		z"/>
	<path class="st0" d="M151,127.7c-0.1,0.3,0,0.4,0.3,0.3C151.3,127.7,151.1,127.6,151,127.7z"/>
</g>
</svg>
