<?xml version="1.0" encoding="utf-8"?>
<!-- Generator: Adobe Illustrator 23.0.1, SVG Export Plug-In . SVG Version: 6.00 Build 0)  -->
<svg version="1.1" id="Слой_1" xmlns="http://www.w3.org/2000/svg" xmlns:xlink="http://www.w3.org/1999/xlink" x="0px" y="0px"
	 viewBox="0 0 238.1 150.2" style="enable-background:new 0 0 238.1 150.2;" xml:space="preserve">
<path d="M190,137.5c-0.2,0-0.3,0-0.5,0c-1.5,0-3.1,0-4.6,0c-0.4,0-0.5-0.1-0.5-0.5c0-2.3,0-4.6,0-6.9c0-0.7,0-0.7-0.8-0.8
	c-2-0.1-4-0.4-5.9-0.9c-4.4-1.1-8.3-3-11.5-6.3c-3.1-3.2-5-6.9-5.8-11.3c-0.1-0.4,0-0.5,0.4-0.5c1.9-0.2,3.7-0.4,5.6-0.6
	c1.5-0.2,3.1-0.3,4.6-0.5c1.6-0.2,3.1-0.3,4.7-0.5c0.4,0,0.8-0.1,1.2-0.1c0.2,0,0.3,0.1,0.4,0.3c0.5,4.3,2.7,7.4,6.6,9.3
	c0.2,0.1,0.3,0.1,0.6,0.2c0-0.3,0-0.5,0-0.6c0-5.2,0-10.3,0-15.5c0-0.7,0-0.7-0.7-0.8c-4.4-0.4-8.5-1.5-12.3-3.8
	c-4.4-2.7-7.2-6.5-8.1-11.6c-0.8-4.3-0.5-8.6,1.5-12.6c1.7-3.4,4.5-5.7,8-7.3c2.5-1.2,5.1-1.9,7.8-2.2c1.1-0.1,2.3-0.2,3.4-0.3
	c0.3,0,0.4-0.2,0.4-0.5c0-1.1,0-2.2,0-3.3c0-0.4,0.1-0.5,0.5-0.5c1.6,0,3.2,0,4.8,0c0.3,0,0.4,0.1,0.4,0.4c0,1.1,0,2.1,0,3.2
	c0,0.6,0,0.6,0.6,0.6c3.7,0,7.3,0.6,10.7,2.2c5.2,2.4,8.6,6.4,10.1,12c0.1,0.2,0.1,0.4,0.1,0.6c-1,0.2-2,0.3-3,0.5
	c-2.2,0.3-4.4,0.7-6.6,1c-1.8,0.3-3.6,0.6-5.3,0.8c-0.3,0.1-0.4-0.1-0.5-0.4c-0.7-1.8-1.7-3.4-3.2-4.7c-0.8-0.7-1.7-1.2-2.8-1.4
	c0,0.2-0.1,0.4-0.1,0.5c0,4.2,0,8.4,0,12.5c0,0.4,0.1,0.5,0.5,0.6c4.1,0.8,8,1.9,11.8,3.7c2.9,1.4,5.6,3.2,7.7,5.7
	c2,2.3,3.3,5,3.7,8c0.1,1,0.1,2.1,0,3.2c0,1-0.1,2-0.2,3c-0.7,6-3.6,10.7-8.9,13.8c-2.8,1.7-5.9,2.7-9.1,3.2
	c-1.7,0.3-3.4,0.3-5.2,0.5c-0.4,0-0.5,0.1-0.5,0.5c0,2.5,0,5.1,0,7.6C190,137.2,190,137.3,190,137.5z M190.1,111.1
	c0,0.3,0,0.5,0,0.8c0,2,0,4,0,6c0,0.6,0,0.6,0.6,0.5c1.7-0.4,3.2-1.1,4.6-2.2c3-2.5,3.3-7,0.5-9.8c-1.4-1.4-3.2-2.1-5.1-2.6
	c-0.6-0.1-0.6-0.1-0.6,0.5C190.1,106.6,190.1,108.9,190.1,111.1z M184.5,74c-1.2,0.1-2.9,0.9-3.9,1.7c-2.3,1.8-2.7,5.1-1.4,7.3
	c1.1,2,3,3.1,5.2,3.6c0,0,0.1,0,0.1,0C184.5,82.4,184.5,78.2,184.5,74z"/>
</svg>
