<?xml version="1.0" encoding="utf-8"?>
<!-- Generator: Adobe Illustrator 26.0.3, SVG Export Plug-In . SVG Version: 6.00 Build 0)  -->
<svg version="1.0"
	 id="Слой_1" image-rendering="optimizeQuality" text-rendering="geometricPrecision" shape-rendering="geometricPrecision" xmlns:xodm="http://www.corel.com/coreldraw/odm/2003"
	 xmlns="http://www.w3.org/2000/svg" xmlns:xlink="http://www.w3.org/1999/xlink" x="0px" y="0px" viewBox="0 0 238.1 150.2"
	 style="enable-background:new 0 0 238.1 150.2;" xml:space="preserve">
<style type="text/css">
	.st0{fill:#020202;}
</style>
<g>
	<g>
		<path class="st0" d="M206.6,96.5c2.6,0,5.3,0.4,7.5,1.3c2.2,0.8,3.9,2.6,5,4.6c-0.3,1.2-0.7,2.2-0.9,3.4c-0.3,1.8-0.8,3.5-1.2,5
			c-0.8,2.4-1.2,5-1.8,7.4c-0.7,3.2-1.5,6.5-2.4,9.8c-0.3,1.3-0.5,3-0.8,4.2c-0.5,1.5-1.8,2.8-3.2,3.5c-1.2,0.4-2.3,0.9-3.6,0.8
			c-2.7,0-5.4-0.7-7.8-1.2c-0.5,0.3-0.8-0.1-1.3-0.3c-0.7,0.1-1.2-0.1-1.6-0.4c-1.8,0.1-3.4,0.1-5,0c-3.1,0-6.2-0.1-9.3-0.7
			c-2-0.1-3.9-0.1-5.9-0.3c0.1-0.1,0-0.4-0.3-0.5c-1.3-0.1-2.7,0-4-0.4c-0.4-0.1-1.2-0.1-0.9-0.8c0.1,0.1,0.4,0.4,0.7,0.4
			c2,0.1,3.9,0.1,5.9,0.3c2.2,0.3,4.3,0.5,6.3,0.7c2.7,0,5.4,0.5,7.9,0.3c-2.7,0-5.4-0.7-8.1-0.7c-4-0.1-8.2-0.7-12.3-0.9l-0.1,0.4
			c-0.3-0.3-0.7-0.4-0.8-0.9c1.3-0.3,2.7,0,4,0.1c2.2,0.3,4.3,0.5,6.6,0.5c3.4,0.3,7,0.7,10.5,0.8c-1.1,0-2.2-0.3-3.2-0.3
			c-2.8-0.3-5.5-0.8-8.3-1.1c-3.4-0.3-6.6-0.5-10-0.7c-1.2-0.3-2.3-0.1-3.4-0.3c-0.1,0.1,0,0.4,0,0.7c-0.7-0.9-1.6-0.4-2.7-0.7
			c0-0.4-0.3-0.8-0.4-1.2c-1.1,0-2,0-3.2-0.3c0,0-0.1-0.3,0-0.4c-0.7,0-0.8-0.7-0.8-1.2c-0.4-0.4-0.9-0.7-1.2-1.1
			c0.3-0.1,0.7,0,0.8,0.1c1.8,0.3,3.8,0.4,5.5,0.8c2.2,0.3,4.3,0.5,6.5,0.3c0.3-0.1,0.5-0.3,0.8-0.3c0.3-0.1,0.4,0,0.7-0.1
			c-3-0.5-5.8-0.4-8.8-0.8c-1.6,0-3.1-0.4-4.8-0.7c-0.1,0.1-0.4,0.4-0.7,0.5l0.3-0.5c-0.1-0.1-0.5-0.3-0.8-0.1
			c0.1-0.4,0.1-0.8,0.1-0.9c-0.1-0.1-0.4-0.1-0.4-0.4c0.8-3.2,2.3-6.3,3.6-9.6c0.8-2.2,1.9-4,2.7-6.2c1.3-2.8,2-5.7,3.4-8.3
			c0.5-1.5,1.1-2.7,1.6-4.2c0.1,0.1,0.4,0,0.7,0c0.1-0.1,0.1-0.4,0.3-0.5c0.1,0.1,0.5,0.3,0.5,0.3c0.1-0.4,0.3-0.7,0.8-0.5
			c0.1-0.1,0.1-0.4,0.4-0.4c0.9,0.4,1.8,0.9,2.6,1.5c0.4-1.1,0.9-2.3,1.3-3.4c0.3-0.3,0.8-0.3,1.2-0.4c0.4-1.1,0.9-2.3,1.9-3.2
			c0.3-0.3,0.8-0.5,1.3-0.1c2.2,1.3,4.3,2.2,6.6,3.1c2.4,1.2,5.1,1.9,7.8,2.7c2.7,1.1,5.4,1.5,8.1,2.2c0.8-0.3,1.8-0.1,2.4,0.1
			C204.2,96.9,205.5,96.6,206.6,96.5z M205,97c-0.8,0.3-1.8,0.3-2.4,0.9c0.9,0.7,2.3,0.1,3.5,0.1c1.5,0,3-0.3,4.4-0.1
			c2.2,0.4,4.3,1.1,5.8,2.7c0.9,0.8,1.5,1.9,2.3,3c0.1-0.4,0.4-0.9,0.3-1.3c-1.3-2.4-3.6-3.9-6.1-4.7C210.4,96.9,207.7,96.5,205,97z
			 M209.6,98.7c-2.4,0.3-5.1,0.8-7.3,2c-0.8,0.3-0.7,1.2-0.7,1.8c2.2-1.6,4.4-2.8,7.1-2.7c2.8,0.3,5.5,1.3,7.4,3.2
			c0.8,0.9,0.9,2.3,1.5,3.5c0.1-0.8,0.3-1.8,0.1-2.4c-0.4-1.6-1.8-2.8-3.1-3.8C213.4,98.9,211.3,98.8,209.6,98.7z M208.8,100.5
			c-0.7,0-1.2,0.5-1.9,0.7l0.1,0.3c-0.1,0.1-0.4,0.4-0.7,0.5l0.5,0.3c-0.3,0.1-0.3,0.3-0.7,0.5c0.1,0.1,0.4,0.1,0.5,0.3
			c-0.3,0.3-0.7,0.5-0.9,0.8c0.3-0.1,0.7-0.1,0.9-0.3c-0.1,0.4-0.4,0.7-0.8,0.9c-0.3,0.5-0.4,0.9-0.5,1.5c0,0-0.1,0.1,0,0.4
			c-0.4,0.4-0.7,0.9-1.2,1.6c0,0.4,0.3,0.9,0,1.5c-0.1-0.1-0.4-0.1-0.5-0.3c-0.1,0.1-0.1,0.4-0.3,0.5c-0.4,0-0.7,0-1.1,0
			c0,0.4,0.1,0.8,0.1,1.3c0.4,0,0.7-0.1,0.9-0.3c-0.1,0.1-0.3,0.5-0.3,0.5c0.4,1.5,0.9,2.8,1.9,4l-0.1,0.1l0.1,0.1
			c-0.5-1.2-0.9-2.7-0.7-4c0.7,0.4,0.4,1.2,0.7,1.9c0.3,0.7,0.5,1.6,1.2,2.2c-0.5-1.2-1.2-2.7-0.5-4.2c0.5,0.7,0.5,1.2,0.8,2
			c0.1,0.1,0.4,0,0.5-0.3c0.4,0.5,0.3,1.3,0.7,1.9c0.7,1.5,2.2,2.3,3.5,3.1c0.8,0.1,1.6,0,2.4-0.3c0.1-0.1,0-0.4,0-0.7
			c-0.1-0.1-0.5-0.3-0.7-0.3c-0.3,0.1-0.5,0.3-0.5,0.4c-0.5-0.7-1.1-1.5-2-1.9c0.4-0.4,1.1-0.1,1.5-0.3c-1.1-1.3-2.7-1.9-4.2-2.6
			c0.4-0.4,1.2-0.4,1.9-0.1c-0.1,0.1-0.1,0.4-0.3,0.5l0.3-0.1c0.4,0.4,0.9,0.8,1.8,0.9c0.3,0.3,0.4,0.4,0.8,0.7
			c0.1-0.4,0.4-0.9,0.3-1.3c-0.1,0.4-0.4,0.7-0.7,0.8c0.1-0.4,0.3-0.7,0.1-0.9c-0.7-0.4-1.1-0.8-1.5-1.5c-0.7,0.1-1.3,0.3-1.9,0.1
			c0.9-0.7,1.9-1.1,3.1-0.8c-0.3,0.1-0.5,0.4-0.7,0.5c0.5,0.8,1.9,0.5,2.4,1.6c0,0.7,0.3,0.9,0.5,1.2c0,0.4,0.1,0.7,0,1.1
			c0.5-0.8,0.9-1.9,0.5-3c0.1-0.1,0.3-0.3,0.4-0.4c-0.1-0.3-0.4-0.4-0.8-0.5c0-0.4,0-0.7,0-1.1c-0.3,0.5-0.1,0.9,0,1.5
			c-0.1,0.4-0.3,0.7-0.3,1.2c-0.1-0.1-0.3-0.3-0.4-0.4c-0.1-0.8,0.1-1.9,0-2.7c-0.3-0.5,0-1.1,0.1-1.3c0.1,0.1,0.4,0,0.7,0
			c0.3,0.3,0.8,0.7,1.1,1.1c0.1-0.1,0.1-0.4,0.3-0.5c-0.1-0.3-0.4-0.4-0.5-0.7c0.1-0.8,0.7-1.2,0.8-2c0.3-1.2-0.3-2.4-0.9-3.2
			c-0.7-0.9-1.6-1.1-2.4-1.6C211.7,100.9,210.1,100.8,208.8,100.5z M201.1,97.3c-0.9,2.3-1.9,4.8-2.3,7.4c-0.3,2.4-0.4,4.6-1.1,6.9
			c0,0-0.3,0.1-0.4,0c0.3-1.2,0.4-2.2,0.7-3.2c-0.7,1.2-0.9,2.6-1.3,4c-0.5,2.3-1.1,4.7-0.9,7.1c-0.3,0.1-0.3,0.3-0.5,0.4
			c-0.4,0.7-0.8,1.5-0.9,2.3c-0.4,2.7-0.7,5.4-0.1,8.1c0.3,1.3,0.3,2.8,1.2,3.8c-0.1-1.3-0.4-2.7-0.5-3.9c0.1,0.3,0.4,0.4,0.5,0.7
			c0.1,0.1,0.1,0.1,0.4,0c-0.3-0.3-0.1-0.7-0.4-1.2c-0.4-0.1-0.5,0.4-0.8,0.5c0-1.1,0-2,0-3.1c0-1.6,0.3-3.2,0.7-4.7l-0.1-0.3
			c-0.1,0.4-0.3,0.5-0.4,0.9c0,0-0.1-0.3-0.3-0.3c0.4-0.9,0.1-1.9,0.8-2.6c0,0.7-0.3,1.3-0.1,1.9c0.7-2,0.3-4.3,0.8-6.3
			c0.1-0.1,0.1-0.4,0.4-0.7c-0.1,0.9-0.5,1.9-0.3,2.8c0.4-1.1,1.1-2,1.1-3.1c0.3-2.4,0.9-4.6,1.5-6.9c0.8-2.4,1.2-5,2-7.3
			c0.4-0.9,0.5-1.9,1.5-2.6C202,97.3,201.5,97.3,201.1,97.3z M193.4,95.7c-2.6-0.8-5.3-1.5-7.9-2.6c-2.6-0.9-5.3-2-7.5-3.5
			c-0.1-0.1-0.7-0.4-0.9-0.1c-1.2,0.9-1.6,2.4-2.2,3.8c-0.9,1.8-1.5,3.4-2.3,5.1c-1.3,2.8-2.3,5.5-3.4,8.3c-1.3,2.8-2.4,5.7-3.6,8.5
			c2,0.7,3.9,1.2,5.9,1.8c4.6,1.5,9.3,2.7,14,3.8c2.7,0.4,5.3,1.3,8.1,1.8c0.1-0.4,0.1-0.9,0.3-1.3c-0.8-0.1-1.6-0.4-2.4-0.5
			c-2-0.7-4.3-0.7-6.3-1.3c-3-0.5-5.7-1.5-8.5-2.2c-2.7-0.9-5.8-1.8-8.5-2.6c0.9-3,2.4-5.7,3.6-8.5c2-4.6,3.9-9.3,6.1-13.6
			c0.1-0.4,0.4-0.9,0.7-1.2c1.5,0.4,2.8,1.3,4.3,1.8c2.2,0.8,4.4,1.8,6.7,2.4c3.6,1.2,7.3,2.7,11.2,2.8c0.1-0.1,0.3-0.5,0.3-0.7
			C198.1,97.2,195.9,96.5,193.4,95.7z M196.7,98.1c0,0.4,0.1,1.3-0.5,1.5c-0.4-0.4,0-1.1,0.3-1.3c-0.9-0.1-1.9-0.5-3-0.5
			c-0.4,0-0.5,0.3-0.8,0.5c0.3,0.3,0.4,0.5,0.7,0.9c1.3,0.8,3,0.8,4.7,0.8c0.7,0,1.2,0.1,1.5-0.3c0.3-0.3,0.1-0.8-0.3-0.9
			C198.5,98.1,197.6,98.2,196.7,98.1z M201.5,100.1c-0.7,1.6-1.2,3.5-1.5,5.3c-1.1,3.2-1.8,6.7-2.4,10.2c-0.1,1.3-0.4,3-0.5,4.6
			c-0.3,1.8-0.3,3.4-0.7,5.1c-0.4,0-0.8-0.1-1.2-0.1c0,0-0.1,0.1,0,0.4c0.4,0.1,0.8,0.1,1.2,0.3c0.1,0.8-0.8,0.5-1.5,0.4
			c0.4,0.1,0.8,0.1,1.3,0.3c0.1,0.7-0.1,1.2,0.1,1.9c-0.4-0.1-0.9-0.4-1.2-0.1c0.4,0.1,0.8,0.1,1.2,0.3c-0.1,0.8,0.1,1.8,0.1,2.3
			l0.1,0.1c-0.1-1.3,0-2.6,0.1-3.9c0,0,0.3-0.1,0.5-0.3c0.5-4.3,1.1-8.8,1.8-13.2c0.4-1.5,0.4-3,0.8-4.4c-0.3,0.3-0.3,0.7-0.7,0.8
			c0.4-1.6,1.1-3.1,1.9-4.7C201.5,103.8,201.4,101.7,201.5,100.1C201.5,100,201.5,100.1,201.5,100.1z M181.6,93.4
			c0.5,0.3,0.3,0.8,0.1,1.1c-0.3,0.1-0.4,0-0.7,0.1c1.2,0.5,2.3,1.1,3.6,1.5c-0.1-0.3-0.4-0.4-0.5-0.7c0.3-0.5,0.4-0.9,0.8-1.3
			c-0.5-0.3-1.1-0.4-1.8-0.7C182.4,93.4,182,93.4,181.6,93.4z M185.2,95.2c-0.1,0.4-0.3,0.7,0.3,0.9c0.8,0.5,1.6,1.1,2.6,1.2
			l0.1-0.1c0.1-0.4,0.1-0.9,0.5-1.2c0.1-0.1,0.3-0.3,0.1-0.4C187.6,95.3,186.4,94.7,185.2,95.2z M189,96.5c0,0.4-0.4,0.7-0.7,0.9
			c0.9,0.4,2,0.7,3.1,0.7c0.1-0.1,0.3-0.3,0.4-0.4c0.1-0.1-0.1-0.3,0-0.4c-0.8-0.7-1.6-1.1-2.7-1.5C188.9,95.7,189.1,96.2,189,96.5z
			 M192.6,99.3c-4.3-1.1-8.5-2.8-12.5-4.4c-0.7-0.3-2.2-0.7-2.7,0.4c-2.2,5.4-4.7,10.6-6.9,16c0.8,0.7,1.6,1.1,2.6,1.5
			c-0.1,0.4-0.3,0.7-0.4,1.1c-0.5,0.3-0.9,0.3-1.2,0.5c1.2,0.5,2.6,0.8,3.8,1.3c0.4,0.1,0.8,0.1,1.2,0.1c1.5,0.9,3.6,1.8,5.4,0.9
			c1.3,1.3,3.2,1.9,5.1,1.6c0.8-0.1,1.9-0.7,2-1.9c2.2,0.4,4,0.8,6.2,1.2c0-0.4,0.1-0.8,0.1-1.2c-0.4-0.5-0.8-1.2-0.9-1.9
			c-1.5-4.6,0.4-10.2,4.7-12.7c0.3-0.5,0.5-1.2,0.5-1.9C197.2,100.4,194.9,99.9,192.6,99.3z M194.2,109.7c-0.3,2.2-0.1,4.3,1.1,6.2
			c0-0.7,0.3-1.3,0.1-2c-0.9-3.8-0.1-7.9,3-10.5c0.3-0.3,0.3-0.7,0.4-1.1C196.3,103.9,194.6,106.7,194.2,109.7z M174.2,93.1
			c-2.6,6.5-5.7,12.5-8.1,19c-0.9,1.9-1.6,4.2-2.6,6.1c9.7,2.7,19.8,5,29.8,6.7c0.1-0.1,0.1-0.4,0.3-0.5c-2.7-1.1-5.7-1.5-8.5-2.2
			c-1.9-0.4-3.9-0.7-5.8-1.2c0.1-0.1,0.1-0.4,0.3-0.3c0.4,0.1,0.5,0.3,0.9,0.4c4,0.8,8.1,1.8,11.8,2.7c-0.7-0.4-1.5-0.5-2-0.8
			c0,0,0.1-0.1,0.1-0.4c0.7,0,1.1,0.4,1.6,0.4c0.7,0,1.2,0.3,1.8,0.3v-0.4l-0.1-0.1c-2.8-0.7-5.8-1.1-8.6-1.8
			c-6.3-1.3-12.3-3.5-18.7-5.3c-0.1,0.1,0,0.4,0,0.4c0.9,0.4,2,0.7,3,0.9c2.4,0.5,4.8,1.5,7.3,2c2.4,0.5,4.7,1.2,7.3,1.6
			c1.8,0.3,3.6,0.8,5.5,1.3c0.4,0.1,0.7,0.3,0.9,0.7c-1.5-0.5-3-0.8-4.4-1.2c-3.2-0.7-6.3-1.3-9.6-2.2c-1.2-0.3-2.2-0.7-3.5-0.8
			c-1.6-0.4-3.5-0.9-5.3-1.5c-0.4-0.1-0.7,0.1-0.8,0.5c2.6,0.4,5.1,1.2,7.7,2c1.5,0.4,3.1,0.7,4.7,0.8c0.1,0.3,0.1,0.3,0.3,0.5
			c-0.9-0.4-1.9-0.4-3-0.5c-3.1-0.7-6.2-1.6-9.3-2.3c-0.7,0-0.8-0.7-1.2-1.1c-0.1-0.3,0-0.7,0.1-0.9c-0.4-0.1-0.5-0.3-0.9-0.4
			c0-0.4,0.1-0.9,0.3-1.3c1.2-2.6,2.4-5.5,3.5-8.2c1.6-4.6,3.6-8.9,5.8-13.3C174.6,93.1,174.2,93,174.2,93.1z M215.1,110
			c0.3,0.5,0.3,0.8,0.8,0.9C215.9,110.5,215.6,110.2,215.1,110z M169.9,95.4c-0.5,1.5-1.2,2.8-1.8,4.3c-0.7,2-1.5,3.8-2.3,5.8
			c-2,4.6-4,9-5.9,13.6c1.1,1.1,2.2,1.8,3.6,1.9c2.2,0.4,4,0.8,6.1,1.3c3,0.8,6.2,1.2,9.3,1.6c3,0.5,5.9,1.2,8.9,1.1
			c1.3,0.1,2.8,0.3,4.3,0.5c0.4,0.1,0.7,0,0.8-0.1c-3-0.5-5.7-0.9-8.6-1.3c-3.5-0.8-6.7-1.5-10.1-2.2c-2.3-0.5-4.6-0.9-6.7-1.8
			c-1.5-0.4-3.4-0.5-4.7-1.1c0.1-0.4,0-0.7,0-1.1c1.9-4,3.5-8.3,5.4-12.4c1.3-2.8,2.6-5.8,3.6-8.8C171.5,96.2,170.7,95.7,169.9,95.4
			z M168.7,97c-1.3,2.8-2.2,5.8-3.4,8.3c-1.2,3.1-2.6,6.3-3.8,9.3c2-5,4.4-9.6,6.3-14.7c0.5-1.5,1.1-2.7,1.6-4.2
			C168.8,96,168.9,96.5,168.7,97z M168.3,96.4c-0.5,1.9-1.5,3.8-2.3,5.5c-2,5-4,10-5.8,15.1c-0.8,1.5-1.5,3.1-2.2,4.7
			c-0.1,0.4-0.4,0.9-0.3,1.3c0.8-2,1.6-3.9,2.4-5.9c1.9-4.7,3.8-9.3,5.7-14c0.9-2.3,1.9-4.7,2.7-6.7L168.3,96.4z M167,97.4
			c-0.8,2-1.8,3.9-2.4,6.1c-1.3,4-3.1,7.8-4.8,11.7c-1.1,3.1-2.6,5.8-3.4,9l0.3,0.3c0.7-2,1.3-3.8,2.2-5.8c1.6-3.5,2.8-7.1,4.3-10.8
			c1.3-3.8,3.1-7.7,4.6-11.4C167.2,96.6,167.2,97.2,167,97.4z M202.5,112.7c-0.7,2,0.5,4.2,1.9,5.8c1.5,1.6,3.1,3.2,5,4
			c0.5,0.3,0.9,0.1,1.3,0.1c-1.8-0.7-3.4-2-4.7-3.4c0-0.4,0.3-0.3,0.7,0c1.2,1.1,2.3,2.2,3.8,2.6c0.3-0.3,0.8-0.3,1.1-0.7
			c-1.2-0.3-2.3-0.5-3.1-1.2c-0.9-0.7-1.6-1.8-2.3-2.6C204.6,116,203.5,114.3,202.5,112.7z M201.4,113.9c-0.1,2.3,1.1,4.4,2,6.2
			c0.3,0.5,0.7,0.9,0.7,1.5c-0.7-0.4-0.9-1.3-1.3-2.2c-0.5-0.8-1.2-1.5-1.5-2.4c-0.4-0.9-0.4-2-0.7-3c-0.3,0.5-0.1,1.2,0.1,1.9
			c0.1,0.7,0.7,1.3,0.4,2c-1.1-0.8-0.9-2.4-1.6-3.6c-0.3,0.7-0.1,1.3-0.3,2.2s0,1.6,0.1,2.3c0.7,0.9,1.8,1.3,2.6,2
			c0,0-0.1,0.1-0.1,0.4c-1.2-0.7-2.4-1.6-3.4-2.6c-0.1,0.4,0,0.7-0.1,0.9c0.8,0.7,1.5,1.5,2.6,1.9c1.2,0.5,2.7,0.4,4,0.9
			c1.3,0.3,2.7,1.1,4,1.2c1.5,0.4,2.8,1.3,3.8,2.4c-0.3-0.9-1.2-1.8-2-2c-1.9-1.2-3.9-1.2-5.8-2.3c0.1-0.1,0.1-0.4,0.3-0.5
			c0.4,0.1,0.8,0.1,1.2,0.3C204.2,119.3,202.3,116.7,201.4,113.9z M202,122.6c-1.3-0.1-2.7-0.4-4.2-0.7c-0.1,0.4-0.1,0.9-0.1,1.3
			c3.2,0.3,6.7,0.4,9.6,2c2.2,0.8,4.2,2.7,4.8,5.1c0.1-0.9,0.5-1.9-0.3-2.6c-0.7-1.3-1.9-2.4-3.2-3.2
			C206.6,123.6,204.5,122.8,202,122.6z M197.6,123.6c-0.1,0.1,0,0.4,0,0.7c0.9,0.1,1.9,0.4,2.8,0.3c2.6,0.3,5.4,1.1,7.7,2.3
			c0.9,0.4,1.9,1.2,2.6,1.9l-0.3,0.1c0.8-0.1,0.9,1.2,1.3,1.8c-0.1-1.1-1.1-2-1.8-3c-1.2-1.1-2.7-1.8-4-2.4
			C203.5,124.1,200.4,123.8,197.6,123.6z M195.9,121.4c-0.3,0.7-0.3,1.6-0.5,2.4c0.1,0.1,0.5,0.3,0.7,0.3c0.1-0.1,0-0.7,0.1-0.8
			h-0.4c0.1-0.1,0.1-0.4,0.4-0.4C196.1,122.3,196.5,121.7,195.9,121.4z M209.6,128.1c1.1,1.3,1.9,3.2,1.2,4.8
			c-0.5,1.2-1.9,2-3.2,2.4c-1.2,0.4-2.4,0.7-3.6,0.4c0.1,0.1,0.3,0.3,0.4,0.4c1.6,0,3.2-0.1,4.6-0.9c1.5-0.7,2.8-2,2.7-3.6
			c0-1.1-0.5-1.9-1.2-2.7C210.3,128.5,209.9,128.3,209.6,128.1z M200.7,125.8c1.2,0.5,2.6,0.8,4,1.3c1.2,0.7,2.6,1.2,3.4,2.4
			c0.5,0.8,0.7,1.9,0.1,2.7c-0.4,0.9-1.3,1.3-2.3,1.6c-1.9,0.7-4.3,0.5-6.5,0.1c-0.8-0.1-1.5-0.4-2.4-0.3c1.6,0.7,3.5,0.9,5.4,1.1
			c1.8-0.1,3.6-0.3,5.4-0.9c1.2-0.5,1.9-2.2,1.3-3.4c-0.3-0.9-1.1-1.9-1.9-2.4C205.3,126.8,203,126.4,200.7,125.8z M195.3,124.2
			c-0.1,0.4,0.4,0.4,0.7,0.3C196.1,124.2,195.3,124.1,195.3,124.2z M197.5,126.1l-0.1,0.1c1.2,0.1,2.3,0.5,3.5,0.8
			c2,0.7,4,1.2,5.3,3.1c0.1,0.7,0.3,1.5-0.3,2.2c-0.4,0.7-1.2,0.9-2,1.3c1.3-0.3,3-0.7,3.5-2.2c0.1-0.9-0.5-1.6-1.1-2.3
			C203.9,127.1,200.7,127.1,197.5,126.1z M199.5,127.5c-0.8-0.1-1.5-0.5-2.2-0.3c0.9,0.4,1.9,0.4,2.8,0.7c1.5,0.4,3.2,0.8,4.3,2.3
			c0.1,0.7,0.1,1.8-0.7,2c-1.8,0.8-3.6,0.4-5.5-0.1c-0.4-0.1-0.7-0.3-1.2-0.1c1.6,0.4,3.5,0.8,5.3,0.8c1.1,0,2,0,2.6-0.8
			c0.7-0.5,0.4-1.5-0.3-2C203.4,128.5,201.4,128,199.5,127.5z M197.3,128c1.6,0.4,3.6,0.7,5.1,1.9c0.4,0.4,0.7,1.1,0,1.5
			c-0.8,0.9-2.2,0.7-3.1,0.5c0.9,0.1,2.2,0.3,3.2,0.1c0.7-0.1,1.2-0.9,0.8-1.5c-0.4-0.5-0.8-0.9-1.6-1.2
			C200.6,128.7,199,128,197.3,128z M189.4,126.7c-2.8-0.3-5.7-0.4-8.3-0.4c0.4,0.4,1.3,0.3,1.9,0.5c2.4,0.1,4.8,0.3,7.3,0.4
			c1.1,0,2,0,3.1,0.1l0.1-0.1C191.9,127.1,190.6,126.8,189.4,126.7z M199.2,129.3c0.7,0.4,1.5,0.8,1.2,1.5c-0.3,0.1-0.5,0.3-0.9,0.3
			c0.7,0,1.5,0,1.5-0.7C201,129.9,200,129.8,199.2,129.3z M196.8,130c0.1,0.1,0.3,0.3,0.3,0.5c0.9,0.1,1.9,0.4,2.8,0.3
			C199,130.2,197.7,130,196.8,130z M181.6,125c-1.2-0.3-2.6-0.4-3.8-0.4c-4.7-0.8-9.3-1.1-13.7-2.4c-0.4,0-0.5-0.3-0.5-0.7
			c-0.1-0.1-0.4-0.1-0.5-0.3c-0.1,0.1-0.3,0.5-0.3,0.7c0.7,0.3,1.3,0.3,2,0.7c2.6,0.4,5.3,1.1,7.7,1.5c1.6,0.3,3.1,0.7,4.4,0.8
			c1.2,0.1,2.4,0.3,3.6,0.4c2.4,0.1,5,0.5,7.4,0.7C185.8,125.7,183.6,125.4,181.6,125z M187,128.4c-2.6-0.4-5.3-0.4-7.8-1.1
			c-1.2-0.1-2.2-0.3-3.4-0.3c-2.8-0.1-5.5-0.8-8.2-1.2c-0.4,0-1.2-0.3-1.2-0.7c-2.8-0.7-5.5-1.3-8.3-2c-0.1,0.1,0,0.7-0.1,0.8
			c2.3,0.5,4.7,1.1,7.1,1.3c0,0-0.1,0.1-0.3,0.3c-1.2-0.1-2.6-0.4-3.6-0.7c-1.2-0.3-2.4-0.3-3.4-0.9c0.1-0.1,0-0.4,0-0.7
			c-0.3,0.5-0.4,0.9-0.7,1.2c2,0.1,3.9,0.7,5.7,0.8c1.2,0.3,2.4,0.3,3.6,0.7c3.1,0.7,6.2,1.1,9.4,1.5c3.5,0.1,6.9,0.7,10.1,1.2
			c2.7,0.4,5.4,0.7,7.8,1.1c0.1-0.1,0-0.4-0.1-0.7C191.4,128.9,189.3,128.5,187,128.4z M195.3,130.6c-0.1,0.4,0,0.4,0.3,0.3
			C195.7,130.4,195.7,130.4,195.3,130.6z M187.2,129.3c-0.7,0-1.3-0.3-2-0.1c2.8,0.7,5.7,0.9,8.6,1.3l-0.1-0.3
			C191.5,130,189.4,129.6,187.2,129.3z M195.5,131.6c-0.3,0.1,0.1,0.7,0.4,0.4C196,131.8,195.6,131.5,195.5,131.6z M176.2,125.3
			c-3.5-0.5-7-1.3-10.5-1.9l-0.1,0.1c0.1,0.1,0.3,0.3,0.4,0.5c0.3,0.5,0.7,0.4,0.9,0.7c0.1-0.1,0.3-0.5,0.3-0.7c2,0.1,4,0.8,5.9,1.2
			c1.9,0.4,4,0.8,6.2,1.1C178.6,125.7,177.3,125.6,176.2,125.3z M197.6,134.6c0,0-0.1,0.1-0.1,0.4c2.2,0.7,4.3,1.1,6.5,1.3
			c-0.1-0.1-0.3-0.3-0.4-0.4C201.6,135.5,199.5,135.1,197.6,134.6z M175.1,129.1c-1.2-0.1-2.4-0.1-3.6-0.3c-3.1-0.1-6.1-0.5-9-0.7
			c-1.3-0.1-2.6-0.3-4-0.1c-0.1,0.1,0,0.4,0,0.7c1.3,0.1,2.7,0,4,0.1c1.3,0.1,2.8,0.3,4.2,0.4c3.2,0.3,6.6,0.1,9.8,0.8
			c2.8,0.3,5.5,0.8,8.3,0.8c2,0.1,3.8,0.4,5.8,0.7C185.5,130.3,180.4,129.3,175.1,129.1z M159.6,119.1c-0.4,1.1-0.8,2.2-1.2,3.1
			c2.3,0.9,4.8,1.5,7.1,2.3c0.1,0.1,0.3-0.1,0.3-0.3c-0.7,0-1.3-0.3-1.9-0.5c0.3-0.7,0.9,0.4,1.3-0.1c-0.4-0.4-1.3-0.3-2-0.8
			c-0.1,0.1-0.1,0.4-0.1,0.4c0.1,0.1,0.7,0.3,1.2,0.3l-0.4,0.4c-0.9-0.4-1.9-0.4-2.7-0.9c0.3-0.5,0.4-1.1,0.8-1.5
			c-0.7-0.3-1.2-0.5-1.9-0.9c0.1-0.1,0.1-0.4,0.3-0.5C160,119.5,159.8,119.1,159.6,119.1z M187.2,131.6c-1.3-0.1-2.8-0.3-4.3-0.3
			c3.2,0.8,6.6,0.9,10.1,1.3C191.1,132.2,189.1,131.8,187.2,131.6z M182.7,128.8c-2.4-0.3-4.8-0.4-7.3-0.7c2.7,0.9,5.8,1.1,8.9,1.2
			C183.9,128.8,183.3,128.8,182.7,128.8z M161.5,122.6c0.5,0.3,1.1,0.4,1.6,0.7c-0.1-0.3-0.1-0.3-0.3-0.5c-0.4-0.1-0.5-0.3-0.9-0.4
			c0.1-0.4,0.3-0.7,0.4-1.1C161.8,121.3,161.9,122.1,161.5,122.6z M170.5,125.3c-0.9-0.4-1.9-0.5-2.8-0.7c-0.3,0.1-0.3,0.1-0.1,0.4
			c0.4,0,0.9,0.1,1.2,0.7c1.8,0.3,3.6,0.4,5.4,0.7C173,125.7,171.8,125.6,170.5,125.3z M174.9,130.2c-4-0.1-8.2-0.7-12.4-0.7
			c-0.3,0.3,0.1,0.7,0.1,0.8c2,0,4-0.3,6.1,0c2.6,0,5.1,0.1,7.7,0.4c1.2,0.1,2.4,0.3,3.5,0.1C178.2,130.6,176.5,130.4,174.9,130.2z"
			/>
	</g>
	<path class="st0" d="M208.9,106.1c0.9-0.4,2,0,3,0.4c0.4,0.4,0.9,0.8,1.3,1.3c-0.3,0.1-0.5,0.3-0.5,0.3c-0.3,0.5-0.8,0.9-1.2,1.3
		c-0.1-0.1-0.4,0-0.5,0.3c-0.1-0.1-0.4,0-0.7,0c0.1-0.1,0.3-0.5,0.4-0.4c-0.1-0.1-0.5-0.3-0.7-0.3c0.3-0.3,0.8-0.3,1.2-0.4
		c-0.1-0.3-0.3-0.5-0.3-0.8c-0.1,0.1-0.3,0.5-0.1,0.8c-0.4-0.4-1.2-0.7-1.6-1.2c0.9-0.4,2.2-0.1,2.7,0.7c0-1.1-1.3-1.3-2-1.1
		c-0.5,0.3-1.1,0.7-1.8,0.3c0.1-0.1,0.1-0.4,0.1-0.4C208.4,106.9,208.6,106.5,208.9,106.1z"/>
	<g>
		<path class="st0" d="M185.6,103c1.5,0.4,3.1,1.1,3.8,2.6c0.4,0.9,0.4,2.2-0.5,3c-0.8,0.9-2,1.1-3.2,1.2c-1.5,0.3-3.1-0.1-4.2-1.1
			c-0.9-0.7-2-1.9-1.8-3c0.1-1.2,1.2-2,2.2-2.4C183.2,102.8,184.4,102.7,185.6,103z M185.1,104.2c-1.2-0.3-2.6-0.3-3.2,0.9
			c-0.7,0.5-0.3,1.6,0.1,2.2c1.2,1.1,3.1,1.5,4.8,0.9c0.9-0.4,1.5-1.6,0.8-2.6C187,104.6,186,104.4,185.1,104.2z"/>
	</g>
	<g>
		<path class="st0" d="M183.1,114.8c0.8-0.3,1.5-0.3,2.6,0s2.2,0.3,2.8,1.3c0.4,0.5,0.1,1.3-0.4,1.5c-0.9,0.4-2.2,0.4-3.4,0.1
			c-0.8-0.1-1.8-0.3-2.2-1.3C182.3,115.9,182.5,115.2,183.1,114.8z M185.6,115.2c-0.4,0.7-0.8,1.5-0.5,2.3c0.4,0.1,0.5-0.3,0.5-0.4
			c0.3-0.5,0.4-1.1,0.4-1.6C186,115.3,185.6,115.2,185.6,115.2z"/>
	</g>
	<path class="st0" d="M179.8,113.6c0.7,0.3,1.5,0.5,2,1.1c0.4,0.5,0.4,1.2,0.1,1.9c-0.8,0.5-1.9,0.5-2.8,0.3
		c-0.1-0.3-0.1-0.3-0.3-0.5C179.8,115.8,180,114.4,179.8,113.6z"/>
	<path class="st0" d="M176.6,113.5c0.9-0.7,2.2-0.1,3.1,0c0.1,0.3,0.1,0.3,0.3,0.5c-0.5-0.3-0.5,0.4-0.9,0.7
		c-0.4,0.4-0.4,1.1-0.3,1.8c-0.8-0.5-2-0.7-2.7-1.8C175.9,114.3,176.1,113.7,176.6,113.5z"/>
	<path class="st0" d="M173,112c1.1-0.7,2.3,0.1,3.1,0.4c-0.1,0.8-0.5,1.5-0.7,2.2c0.1,0.3,0.3,0.5,0.4,0.5c-1.2-0.3-2.2-0.7-3.5-1.2
		l0.1-0.1c0.9,0.1,0.9-0.8,1.2-1.3C173.5,112.4,173.4,112.4,173,112z"/>
	<path class="st0" d="M168.3,131.2c0.4,0,0.5,0.3,0.7,0.4c-1.2-0.1-2.2-0.3-3.4-0.3c-0.1-0.1-0.3-0.3-0.4-0.4
		C166.2,131.1,167.2,131.1,168.3,131.2z"/>
</g>
</svg>
