<?xml version="1.0" encoding="utf-8"?>
<!-- Generator: Adobe Illustrator 26.0.3, SVG Export Plug-In . SVG Version: 6.00 Build 0)  -->
<svg version="1.0" id="Слой_1" xmlns="http://www.w3.org/2000/svg" xmlns:xlink="http://www.w3.org/1999/xlink" x="0px" y="0px"
	 viewBox="0 0 238.1 150.2" style="enable-background:new 0 0 238.1 150.2;" xml:space="preserve">
<g>
	<g>
		<path d="M166.9,67.9l-16.3-28.4l-0.3-1.5l-0.4,1.5l-16.3,28.4l-0.7,0.3l0.9,0.4l16.4,9.1l0.2-0.1l0.2,0.1l16.4-9.1l0.9-0.4
			L166.9,67.9z M165.5,67.3l-9.7-4.1l-1.2-6.8L165.5,67.3L165.5,67.3z M144.4,68.7l5.2-6.4v14.2L144.4,68.7z M134.8,67.2l10.8-10.8
			l-1.2,6.8L134.8,67.2L134.8,67.2z M154.5,56.1c-0.6-0.4-3.1-2.2-3.9-2.8V41.6L154.5,56.1z M150.6,53.4c0.9,0.5,3.5,2.6,3.9,2.9
			l-3.9,4.8v-0.3V53.4z M149.7,60.7V61l-3.9-4.8c0.4-0.3,3.1-2.2,3.9-2.9V60.7z M145.8,56.4l3.8,4.7l-5,2.1L145.8,56.4z M154.6,56.4
			l1.2,6.8l-5-2.1L154.6,56.4z M149.7,53.3c-0.9,0.5-3.3,2.3-3.9,2.8l3.9-14.4V53.3z M150.6,62.3l5.2,6.4l-5.2,7.8V62.3z
			 M154.7,56.2l0.9-6.2l9.7,16.8L154.7,56.2z M154.6,55.9l-3.8-14.3l4.7,8.2L154.6,55.9z M145.8,55.9l-0.9-6.1l4.7-8.2L145.8,55.9z
			 M145.7,56.2l-10.6,10.6l9.7-16.8L145.7,56.2z M134.8,68.3l14.9-6.3v0.1l-5.3,6.5l-9.3-0.2L134.8,68.3z M144.3,68.8l5.1,7.6
			l-14.2-7.8L144.3,68.8z M156,68.8l9.1-0.2l-14.2,7.8L156,68.8z M156,68.7l-5.3-6.5v-0.1l2.9,1.2l12,5l-0.3,0.2L156,68.7z"/>
		<path d="M150.1,79.7L135,71.4l-1.4-0.7l0.9,1.4l15.4,26.4l0.4,1.4l0.4-1.4l0,0L165.8,72l0.9-1.4l-1.4,0.7L150.1,79.7z M164.2,73.1
			L154,84.3l-3.4-3.6v-0.1L164.2,73.1L164.2,73.1z M149.7,96.4l-3.3-12l3.3-3.5V96.4z M150.6,80.8l3.3,3.5l-3.3,12V80.8z
			 M146.3,84.3l3.3,12l-13.1-22.8L146.3,84.3z M154.1,84.3l9.8-10.8l-13.1,22.8L154.1,84.3z M149.7,80.4v0.1l-3.4,3.6L136.1,73
			l-0.1-0.1L149.7,80.4z"/>
	</g>
	<path d="M196.1,73.7l-0.7-14c0.7-0.2,1.3-0.9,1.3-1.7c0-1-0.7-1.7-1.7-1.7h-0.1l-3.1-6.5c0.3-0.2,0.4-0.5,0.4-0.9
		c0-0.6-0.5-1.2-1.2-1.2c-0.1,0-0.3,0-0.4,0.1L186,41c0.4-0.3,0.6-0.7,0.6-1.4c0-1-0.7-1.7-1.7-1.7c-0.4,0-0.9,0.2-1.2,0.4l-6.6-5.6
		c0.1-0.2,0.2-0.3,0.2-0.5c0-0.6-0.5-1.2-1.2-1.2c-0.4,0-0.7,0.2-1,0.4l-10-5c0.1-0.1,0.1-0.3,0.1-0.5c0-0.6-0.5-1.2-1.2-1.2
		c-0.5,0-1.1,0.4-1.1,1l-11.6-1.6c0-1.4-1.1-2.5-2.5-2.5c-1.3,0-2.3,1-2.5,2.2l-9.3,1.8c-0.1-0.5-0.5-0.9-1.1-0.9
		c-0.6,0-1.2,0.5-1.2,1.2c0,0.2,0,0.3,0.1,0.5l-10,5c-0.2-0.3-0.5-0.4-0.9-0.4c-0.6,0-1.2,0.5-1.2,1.2c0,0.2,0.1,0.4,0.2,0.5
		l-6.6,5.6c-0.3-0.3-0.7-0.4-1.2-0.4c-1,0-1.7,0.7-1.7,1.7c0,0.5,0.2,1.1,0.6,1.4l-4.6,6.9c-0.1-0.1-0.3-0.1-0.4-0.1
		c-0.6,0-1.2,0.5-1.2,1.2c0,0.3,0.2,0.6,0.4,0.9l-3.1,6.5h-0.1c-1,0-1.7,0.7-1.7,1.7c0,0.9,0.5,1.5,1.4,1.7l-0.7,13.8
		c-1.3,0.1-2.2,1.2-2.2,2.5c0,1.4,1.1,2.5,2.5,2.5c0.1,0,0.2,0,0.3,0l4.1,12.8c-0.2,0.3-0.3,0.6-0.3,1c0,1,0.7,1.7,1.7,1.7l0,0
		l5,6.7c0,0.1,0,0.1,0,0.2c0,0.6,0.5,1.2,1.2,1.2c0,0,0,0,0.1,0l11.4,8.4c0,0.1-0.1,0.3-0.1,0.4c0,1,0.7,1.7,1.7,1.7
		c0.5,0,1-0.2,1.3-0.6l10.4,3.4c0,0.1,0,0.3,0,0.4c0,1.4,1.1,2.5,2.5,2.5c1.3,0,2.2-1,2.5-2.1h8.3c0.2,0.7,0.9,1.4,1.7,1.4
		c1,0,1.7-0.7,1.7-1.7c0-0.1,0-0.1,0-0.2l11.2-3.6c0.3,0.3,0.7,0.6,1.3,0.6c1,0,1.7-0.7,1.7-1.7c0-0.1,0-0.3-0.1-0.4l11.2-8.2
		c0.1,0,0.2,0,0.3,0c0.7,0,1.4-0.6,1.4-1.4c0-0.1,0-0.3-0.1-0.4l4.8-6.5l0,0c1,0,1.7-0.7,1.7-1.7c0-0.4-0.1-0.7-0.3-1l4.1-12.6
		c0.2,0,0.3,0,0.5,0c1.4,0,2.5-1.1,2.5-2.5C198.3,74.9,197.4,73.9,196.1,73.7z M190.9,50.1C190.9,50.1,191,50.1,190.9,50.1l2.9,6.7
		c-0.1,0.1-0.3,0.3-0.4,0.4c-1.4-0.3-3.4-0.9-5.4-1.4C189.2,53.5,190.3,51.2,190.9,50.1z M188.2,92.3l-5.5,0.6l-1.3-6.6l6.9,5.2
		C188.2,91.9,188.2,92.1,188.2,92.3L188.2,92.3z M171.7,94.4c0,0.3,0.1,0.5,0.2,0.7l-7.8,5c-0.2-0.3-0.5-0.4-1-0.4
		c-0.6,0-1.2,0.5-1.2,1.2v0.1l-11.1,1.9c-0.1-0.9-0.9-1.5-1.7-1.5c-0.9,0-1.6,0.6-1.7,1.5l-9.2-1.9v-0.1c0-0.6-0.5-1.2-1.2-1.2
		c-0.3,0-0.7,0.2-1,0.4l-7.8-5c0.1-0.2,0.2-0.5,0.2-0.7c0-1-0.7-1.7-1.7-1.7c-0.3,0-0.6,0.1-0.9,0.2l-5.1-6.9
		c0.2-0.2,0.2-0.5,0.2-0.7c0-0.7-0.5-1.3-1.3-1.3l0,0l-2.8-9.1c0.4-0.2,0.7-0.6,0.7-1.2c0-0.6-0.4-1.1-1-1.3l0.4-7
		c0.7-0.2,1.4-0.9,1.4-1.7c0-0.6-0.3-1.2-0.7-1.5l2.1-7c0.5-0.1,0.9-0.5,0.9-1.1c0-0.1,0-0.3-0.1-0.4l7.4-8.7
		c0.2,0.1,0.4,0.1,0.5,0.1c1,0,1.7-0.7,1.7-1.7c0-0.1,0-0.2,0-0.3l14-6c0.2,0.3,0.6,0.5,1.1,0.5c0.5,0,1.1-0.3,1.3-0.9h6.7
		c0.2,0.5,0.6,0.9,1.3,0.9c0.4,0,0.7-0.2,1.1-0.5l14.5,6.2l0,0c0,0.6,0.5,1.2,1.2,1.2c0.1,0,0.1,0,0.2,0l7.2,8.5
		c-0.3,0.3-0.4,0.7-0.4,1.2c0,1,0.7,1.7,1.7,1.7c0.1,0,0.2,0,0.4,0l2.1,7.1c-0.3,0.2-0.4,0.5-0.4,1c0,0.5,0.3,1,0.9,1.1l0.4,7.6
		c-0.5,0.2-1,0.6-1,1.3c0,0.5,0.3,1,0.7,1.2l-2.8,9.1l0,0c-0.7,0-1.3,0.5-1.3,1.3c0,0.3,0.1,0.5,0.2,0.7l-5.1,6.9
		c-0.2-0.1-0.5-0.2-0.9-0.2C172.5,92.7,171.7,93.4,171.7,94.4z M172.8,96l-0.9,4.7h-7.5l7.8-5C172.5,95.9,172.6,96,172.8,96z
		 M162.6,101.8l-2.5,5.1l-9.2-3.2c0,0,0,0,0-0.1l11.4-2C162.4,101.7,162.5,101.8,162.6,101.8z M147.7,103.6l-7.5,2.9l-2.3-4.8
		c0.1,0,0.1-0.1,0.2-0.1L147.7,103.6z M135.9,100.7h-7.5l-0.9-4.7c0.2-0.1,0.3-0.2,0.5-0.3L135.9,100.7z M112.2,91.6l6.9-5.2
		l-1.3,6.6l-5.5-0.6c0,0,0,0,0-0.1C112.3,92.1,112.3,91.9,112.2,91.6z M107.3,58c1.6-0.4,3.6-1,5.5-1.5c1.1,2.1,2.2,4.4,3,5.9
		c-0.3,0.3-0.6,0.7-0.6,1.3c0,0.3,0.1,0.7,0.3,1l-2.8,2.9l-5.8-8.3c0.2-0.3,0.3-0.6,0.3-1.1C107.3,58.1,107.3,58,107.3,58z
		 M116.4,62c-0.7-1.5-1.8-3.6-3-5.8c2.2-0.5,4.3-1.2,5.5-1.5c0.1,0.1,0.2,0.1,0.3,0.2l-2.1,6.9c-0.1,0-0.2,0-0.2,0
		C116.8,61.9,116.7,62,116.4,62z M116.7,65.4l-0.4,7h-0.1l-3-4.3l2.9-3C116.2,65.2,116.4,65.3,116.7,65.4z M115.6,72.8
		c-0.2,0.2-0.2,0.5-0.2,0.7l0,0l-8.2,1.7c-0.1-0.3-0.2-0.5-0.3-0.7l5.9-6L115.6,72.8z M107.2,76.1l8.3-1.7c0.1,0.1,0.2,0.2,0.3,0.3
		l-2.1,6.6l-6.8-4.1C107.1,76.8,107.2,76.5,107.2,76.1z M116.4,75l2.8,9.1c-0.1,0.1-0.2,0.2-0.3,0.3l-4.6-2.8L116.4,75z M119.9,86.4
		h0.1c0.2,0,0.3,0,0.4-0.1l5.2,7c-0.1,0.1-0.2,0.3-0.2,0.4l-6.8-0.9L119.9,86.4z M118.3,47l9.3-2.6l0.1,0.1l-7.2,8.6
		c-0.1,0-0.2-0.1-0.2-0.1L118.3,47z M129.9,41.9l3.2-7.6l11,2.1l-13.8,5.9C130.2,42.1,130.1,42,129.9,41.9z M156.4,36.4l11-2.1
		l3.3,8l-0.1,0.1L156.4,36.4z M172.6,44.3l9.5,2.7l-1.7,5.3c-0.1,0-0.2,0-0.3,0c-0.2,0-0.4,0-0.6,0.1L172.6,44.3z M183.6,62.6
		c-0.1,0-0.1,0-0.2,0l-2.2-7.2c0.2-0.1,0.3-0.3,0.4-0.4c1.3,0.3,3.2,0.9,5.3,1.4C185.6,58.7,184.5,61.1,183.6,62.6z M183.9,64.7
		l3.3,3.4l-3,4.3c0,0,0,0-0.1,0l-0.4-7.6C183.8,64.8,183.9,64.8,183.9,64.7z M180.1,86.4c0.1,0,0.3,0.1,0.4,0.1h0.1l1.3,6.6
		l-6.8,0.9c-0.1-0.2-0.1-0.3-0.2-0.5L180.1,86.4z M181.2,84.1l2.8-9.1l2.2,6.6l-4.6,2.8C181.5,84.3,181.4,84.2,181.2,84.1z
		 M184.7,74.7c0.1-0.1,0.2-0.2,0.3-0.3l8.4,1.8v0.1c0,0.3,0.1,0.6,0.2,1l-6.7,4.1L184.7,74.7z M193.5,75.4l-8.3-1.7l0,0
		c0-0.3-0.1-0.5-0.2-0.7l2.9-4.2l6.1,6.1C193.7,74.9,193.6,75.1,193.5,75.4z M187.8,67.4l-3.3-3.3c0.1-0.1,0.1-0.3,0.1-0.4
		c0-0.3-0.1-0.5-0.2-0.7c0.7-1.5,2.1-4.1,3.4-6.5c1.9,0.5,3.9,1.1,5.5,1.5c0,0.1,0,0.1,0,0.2c0,0.4,0.1,0.7,0.3,1.1L187.8,67.4z
		 M187.2,55.6c-2-0.5-4.1-1.1-5.3-1.4c0-0.1,0-0.1,0-0.2c0-0.5-0.3-1.1-0.7-1.4l1.7-5.4l7,1.9c0,0.3,0.1,0.5,0.3,0.7
		C189.7,50.9,188.5,53.3,187.2,55.6z M185,41.3c0.1,0,0.3,0,0.4-0.1l4.6,7l-6.9-1.9l1.6-5.1C184.8,41.3,184.9,41.3,185,41.3z
		 M184,41.1l-1.6,5.2l-9.7-2.8l10.7-3.2C183.5,40.6,183.7,40.9,184,41.1z M176,33.3h0.1c0.1,0,0.3,0,0.4-0.1l6.7,5.8
		c-0.1,0.2-0.1,0.4-0.1,0.6l-10.7,3.2c-0.1-0.2-0.2-0.4-0.4-0.5L176,33.3z M175.4,32.9l-3.9,9.1l-3.3-7.9l7.1-1.4
		C175.3,32.9,175.4,32.9,175.4,32.9z M175,32.2l-7.1,1.4l-2.7-6.3L175,32.2z M163.9,27c0.1,0.1,0.3,0.1,0.4,0.1l0,0l2.8,6.5l-11,2.1
		c0-0.1-0.1-0.2-0.2-0.3C158,33.2,162.2,28.7,163.9,27z M151.4,24.9l11.9,1.6l0,0c-1.7,1.8-6,6.3-7.9,8.4c-0.2-0.1-0.3-0.1-0.5-0.1
		c-0.1,0-0.2,0-0.3,0c-1.2-2.2-2.9-6.2-4.1-8.7C151,25.8,151.2,25.3,151.4,24.9z M149.1,26.6c0.3,0,0.5-0.1,0.9-0.1
		c1.1,2.6,2.9,6.4,4.1,8.7c-0.2,0.2-0.3,0.4-0.4,0.7h-6.6c-0.1-0.4-0.3-0.7-0.6-1c0.6-2.3,1.7-6.1,2.3-8.4
		C148.9,26.6,149,26.6,149.1,26.6z M137.1,26.4l9.4-1.8c0.2,0.7,0.7,1.4,1.4,1.7c-0.6,2.3-1.7,6.1-2.3,8.4c-0.2,0-0.3,0-0.5,0.1
		C143.1,32.8,138.8,28.3,137.1,26.4C137.1,26.5,137.1,26.5,137.1,26.4z M136.1,27C136.2,27,136.2,27,136.1,27c0.2,0,0.3,0,0.4-0.1
		c1.7,1.8,5.9,6.2,7.9,8.4c-0.1,0.1-0.1,0.2-0.2,0.3l-11-2.1L136.1,27z M135.3,27.1l-2.7,6.3l-7.1-1.4L135.3,27.1z M125.2,32.8
		l7.1,1.4l-3.1,7.4c-0.1,0-0.2,0-0.4,0c0,0,0,0-0.1,0L125,33C125.1,32.9,125.2,32.9,125.2,32.8z M123.8,33.2c0.1,0,0.2,0.1,0.4,0.1
		c0.1,0,0.1,0,0.1,0l3.6,8.4c-0.4,0.2-0.6,0.5-0.9,1l-10-3c0-0.2,0-0.4-0.1-0.6L123.8,33.2z M117.1,40.4l10,3c0,0.1,0,0.2,0.1,0.3
		l-9.2,2.6l-1.6-5.2C116.8,40.9,117,40.6,117.1,40.4z M115.1,41.3c0.1,0,0.3,0.1,0.4,0.1c0.1,0,0.2,0,0.3,0l1.6,5.1l-6.8,1.9
		L115.1,41.3z M110.6,49.1l7-1.9l1.8,5.9c-0.4,0.2-0.6,0.5-0.6,1.1v0.1c-1.3,0.3-3.4,0.9-5.5,1.5c-1.2-2.3-2.3-4.7-3-5.9
		C110.4,49.6,110.6,49.4,110.6,49.1z M109.5,50.2C109.5,50.1,109.5,50.1,109.5,50.2c0.6,1.1,1.8,3.3,3,5.6c-2,0.5-4.1,1.1-5.4,1.4
		c-0.1-0.2-0.2-0.3-0.4-0.4L109.5,50.2z M105.9,59.8c0.2,0,0.3-0.1,0.5-0.2l5.9,8.4l-6,6.1c-0.3-0.2-0.7-0.4-1.2-0.5L105.9,59.8z
		 M110.6,90.6L110.6,90.6c-0.3,0-0.6,0.1-0.9,0.2l-3.9-12.5c0.2-0.1,0.5-0.3,0.6-0.4l7,4.2L110.6,90.6z M114.1,82.4l4.6,2.8
		c0,0,0,0,0,0.1c0,0.2,0,0.4,0.1,0.5l-7,5.3c-0.1-0.1-0.3-0.2-0.4-0.3L114.1,82.4z M116.6,99.7c-0.2,0-0.4,0.1-0.5,0.2l-4.6-6.2
		c0.3-0.2,0.5-0.4,0.7-0.7l5.5,0.6L116.6,99.7z M117.2,99.8l1.2-6.1l6.8,0.9c0.1,0.9,0.7,1.5,1.6,1.5l0.9,4.6h-9.8
		C117.7,100.4,117.5,100.1,117.2,99.8z M128.5,109.8l-11-8.1c0.1-0.1,0.1-0.1,0.1-0.2h10.1l1.4,7.7
		C128.9,109.3,128.7,109.4,128.5,109.8z M130,109.1l-1.4-7.7h7.8l0.1,0.1l-6,7.7C130.3,109.1,130.1,109.1,130,109.1z M131.1,109.7
		l6-7.7h0.1l2.3,4.8l-8.1,3.2C131.3,109.9,131.2,109.8,131.1,109.7z M141.8,114.7l-10.3-3.3c0-0.1,0.1-0.3,0.1-0.5v-0.1l8.3-3.2
		l3,6.2C142.4,113.8,142,114.2,141.8,114.7z M144,113.3c-0.2,0-0.3,0-0.5,0l-3-6.2l7.5-3c0.1,0.1,0.2,0.2,0.3,0.3l-3.7,8.8
		C144.4,113.3,144.2,113.3,144,113.3z M154.7,115.4h-8.3c-0.1-0.7-0.5-1.4-1.2-1.7l3.7-8.8c0.1,0,0.2,0,0.3,0c0.2,0,0.3,0,0.4-0.1
		l5.5,9.7C155,114.7,154.8,115,154.7,115.4z M156.4,114c-0.2,0-0.3,0-0.5,0.1l-5.4-9.7l0.1-0.1l9.3,3.2l-3.1,6.5
		C156.5,114,156.5,114,156.4,114z M157.9,114.9c-0.1-0.2-0.3-0.4-0.6-0.6l3.1-6.4l8.4,3c0,0,0,0,0,0.1c0,0.2,0,0.3,0.1,0.5
		L157.9,114.9z M169.1,110.1l-8.3-2.9l2.6-5.2h0.1l6,7.7C169.2,109.8,169.1,109.9,169.1,110.1z M170.5,109.1c-0.2,0-0.3,0-0.5,0.1
		l-6-7.7l0.1-0.1h7.8L170.5,109.1z M172,109.8c-0.2-0.2-0.4-0.4-0.7-0.5l1.4-7.7h9.9c0.1,0.1,0.1,0.2,0.2,0.3L172,109.8z
		 M182.4,100.7h-9.7l0.9-4.6c0.9-0.1,1.5-0.7,1.6-1.5l6.8-0.9l1.2,5.9C182.8,99.8,182.4,100.3,182.4,100.7z M184.6,99.8
		c-0.2-0.1-0.4-0.2-0.7-0.3l-1.2-5.9l5.5-0.6c0.2,0.3,0.4,0.5,0.7,0.7L184.6,99.8z M188.7,91l-7-5.3c0.1-0.2,0.1-0.3,0.1-0.5
		c0,0,0,0,0-0.1l4.6-2.8l2.8,8.4C188.9,90.8,188.8,90.9,188.7,91z M190.7,90.8c-0.2-0.1-0.5-0.2-0.9-0.2l0,0l-2.9-8.6l6.9-4.2
		c0.2,0.2,0.4,0.4,0.7,0.6L190.7,90.8z M194.4,74.3l-6.1-6.2l5.9-8.4c0.1,0.1,0.3,0.1,0.5,0.2l0.7,14C195,73.8,194.7,74,194.4,74.3z
		"/>
</g>
<g>
	<path d="M117.5,131.2v-8h6.3v1h-5.3v2.3h3.2v1h-3.2v2.9h5.6v1h-6.6V131.2z"/>
	<path d="M127,131.2V124h-3.4v-1h7.8v1H128v7.1H127z"/>
	<path d="M131.8,131.2v-8h1v3.2h4.7v-3.2h1v8h-1v-3.9h-4.7v3.9H131.8z"/>
	<path d="M141,131.2v-8h6.3v1h-5.3v2.3h3.2v1h-3.2v2.9h5.6v1H141V131.2z"/>
	<path d="M149.1,131.2v-8h4.6c0.7,0,1.4,0.2,1.8,0.6c0.4,0.4,0.6,1,0.6,1.6c0,0.5-0.2,1.1-0.5,1.5c-0.3,0.4-0.9,0.6-1.4,0.7l2,3.5
		h-1.1l-2-3.5H150v3.5H149.1z M150.1,126.7h3.5c0.5,0,0.9-0.1,1.2-0.3c0.2-0.2,0.4-0.5,0.4-1c0-0.4-0.1-0.7-0.4-1
		c-0.2-0.2-0.6-0.3-1.1-0.3h-3.6L150.1,126.7L150.1,126.7z"/>
	<path d="M158,131.2v-8h6.3v1H159v2.3h3.2v1H159v2.9h5.6v1H158V131.2z"/>
	<path d="M167,123.2v5.2c0,0.9,0.1,1.4,0.4,1.7c0.3,0.3,1,0.4,1.8,0.4s1.5-0.1,1.8-0.4c0.3-0.3,0.4-0.9,0.4-1.7v-5.2h1v5.4
		c0,1-0.2,1.7-0.7,2.1c-0.5,0.4-1.4,0.6-2.6,0.6s-2-0.2-2.6-0.6c-0.5-0.4-0.7-1.2-0.7-2.1v-5.4H167z"/>
	<path d="M174.8,131.2v-8h1l3.2,4.9l3.3-4.9h1v8h-1v-6.3l-3.2,4.8l-3.2-4.8v6.3H174.8z"/>
</g>
</svg>
