<?xml version="1.0" encoding="utf-8"?>
<!-- Generator: Adobe Illustrator 26.0.3, SVG Export Plug-In . SVG Version: 6.00 Build 0)  -->
<svg version="1.1" id="Слой_9" xmlns="http://www.w3.org/2000/svg" xmlns:xlink="http://www.w3.org/1999/xlink" x="0px" y="0px"
	 viewBox="0 0 239.5 150.2" style="enable-background:new 0 0 239.5 150.2;" xml:space="preserve">
<g>
	<path d="M138.3,127.4c-0.2,0-0.3,0-0.4,0c-1.1,0.1-2.1-0.2-3.1-0.7c-0.7-0.4-1.4-0.8-2.1-1.2c-0.4-0.2-0.5-0.6-0.5-1
		c0-0.7,0-1.4,0-2.1c0-0.7,0-1.5,0-2.2c0-0.8,0.4-1.2,1.2-1.2c1.8,0,3.6-0.1,5.4-0.1c0.1,0,0.2,0,0.4-0.1c-0.1-0.3-0.1-0.6-0.2-0.9
		c0-0.1-0.2-0.2-0.3-0.2c-0.3,0-0.5,0-0.8,0c-0.8,0-1.6-0.1-2.4-0.5c-0.8-0.4-1.7-0.7-2.6-1.1c-0.5-0.2-0.8-0.6-0.8-1.2
		c0-1.4,0-2.8-0.1-4.2c0-0.6,0-0.6,0.6-0.6c1.3,0,2.6,0,4-0.1c0.2,0,0.5,0,0.7,0c-0.1-1.4-0.3-2.7-0.3-4c0-1.6,0.1-3.2,0.3-4.7
		c0.4-2.7,1.9-4.8,3.9-6.6c1.8-1.6,3.9-2.6,6.3-3.2c1.3-0.3,2.7-0.5,4-0.6c3.6-0.4,7,0.1,10.4,1.2c0.9,0.3,1.8,0.7,2.7,1.2
		c1.4,0.8,2.7,1.6,4,2.5c0.8,0.6,1.5,1.3,2.3,2c1.6,1.4,2.6,3.1,3.4,5c0.2,0.6,0.4,1.2,0.4,1.8c0.1,0.9-0.3,1.4-1.3,1.6
		c-2,0.3-4,0.7-6,1c-0.5,0.1-1.1,0.2-1.6,0.3c-0.3,0-0.6-0.1-0.8-0.2c-0.9-0.4-1.8-0.9-2.8-1.3c-0.9-0.4-1.3-1-1.4-2
		c-0.2-1.4-0.7-2.8-1.6-4c-0.1-0.1-0.3-0.3-0.4-0.3c-2.2-0.2-4.3,0-6.1,1.2c-1.2,0.8-2,1.8-2.6,3.1c-0.7,1.7-1,3.4-0.8,5.2
		c0.1,0.6,0.1,0.6,0.6,0.6c2.5,0,5,0.1,7.5,0.1c0.2,0,0.4,0,0.6,0.1c1,0.4,2,0.7,3,1.2c1,0.4,1.3,1,1.2,2.1c-0.1,1.2-0.1,2.4,0,3.5
		c0,1-0.2,1.3-1.2,1.3c-1,0-1.9,0-2.9,0c-2,0-3.9,0-5.9,0c-0.3,0-0.7,0-1.1,0c0.1,0.3,0.2,0.6,0.3,0.8c0,0.1,0.2,0.2,0.3,0.2
		c1.8,0,3.7-0.1,5.5-0.1c0.7,0,1.4,0.2,2,0.5c0.8,0.5,1.7,0.9,2.5,1.3c0.3,0.2,0.6,0.4,0.6,0.8c0,0.9,0,1.8,0,2.7c0,1-0.1,2-0.1,3
		c0,0.5-0.3,0.6-0.7,0.6c-0.8,0-1.7-0.1-2.5-0.1c-2.4,0-4.8,0-7.3-0.1c-0.1,0-0.3,0.1-0.4,0.2c0,0,0,0,0,0.1
		c-0.5,1.1-0.9,2.1-1.4,3.2c0,0,0,0,0,0c1.4-0.8,2.9-0.6,4.4-0.5c2.6,0.1,4.9,1,7.2,1.9c0.4,0.2,0.8,0.3,1.3,0.4
		c1.1,0.3,2.2,0.2,3.2-0.2c0.6-0.3,1.2-0.5,1.8-0.7c0.2-0.1,0.3-0.1,0.5-0.2c0.4-0.4,0.8-0.3,1.2-0.1c1,0.5,2,1,3,1.6
		c0.6,0.3,0.9,0.8,1.2,1.4c0.7,1.5,1.3,3,2,4.5c0.3,0.7,0,1.2-0.5,1.6c-0.8,0.7-1.7,1-2.7,1.3c-2,0.6-4,0.6-6,0.5
		c-2.7-0.2-5.4-0.9-7.9-1.8c-3-1.1-6.1-1.4-9.2-0.9c-0.9,0.1-1.7,0.5-2.6,0.8c-2.2,0.6-4.4,1.2-6.5,2.2c-0.5,0.2-0.9,0.2-1.4,0
		c-1.4-0.4-2.8-1-3.8-2c-0.5-0.5-0.9-1.1-1.2-1.7c-0.7-1.4-1.3-2.8-1.9-4.3c-0.3-0.7-0.1-1,0.5-1.5c0.8-0.6,1.7-1.2,2.5-1.9
		c1.3-1.1,2.2-2.5,3.1-4C138.3,127.5,138.3,127.5,138.3,127.4z M136,135.7c0.3-0.3,0.6-0.5,0.8-0.8c0.1-0.1,0.2-0.3,0.2-0.5
		c0-0.6-0.1-1.2-0.1-1.8c-0.1-0.6-0.1-1.3-0.2-1.9c-0.8,0.7-0.8,0.8-0.8,1.2c0,1.1,0,2.1,0,3.2C136,135.4,136,135.6,136,135.7
		c-0.1-0.2-0.3-0.4-0.3-0.6c0-1.1,0-2.2,0-3.3c-0.3,0.2-0.7,0.2-0.7,0.7c0.1,0.9,0.1,1.8,0.1,2.6C135.3,135.7,135.6,135.9,136,135.7
		z M145.3,93c-1.2,0.4-2.2,1.2-3.2,1.9c0.7,0.7,1.5,1.4,2.2,2.1c0.1,0.1,0.3,0.1,0.3,0.1c0.2-0.2,0.5-0.4,0.6-0.6
		c0.1-0.1,0.1-0.3,0-0.4c-0.4-0.7-0.9-1.3-1.4-2c0,0,0.1-0.1,0.1-0.1c0.8,0.5,1.1,1.4,1.8,2c0.4-0.3,0.8-0.6,1.2-0.9
		C146.5,94.5,145.9,93.8,145.3,93c0.2,0.1,0.4,0.1,0.5,0.3c0.5,0.5,0.9,1,1.4,1.5c0.1,0.1,0.3,0.2,0.4,0.1c0.4-0.2,0.8-0.4,1.1-0.6
		c-0.1-0.1-0.1-0.2-0.1-0.2c-0.6-0.5-1.2-1-1.8-1.5c-0.1-0.1-0.2-0.1-0.3,0C146.1,92.7,145.7,92.9,145.3,93z M156.1,112.1
		C156.1,112.1,156.1,112.1,156.1,112.1c-1.3,0-2.7-0.1-4,0c-0.6,0-1.1,0-1.7,0c-0.4,0-0.6-0.2-0.7-0.6c-0.6-2.4-0.8-4.8,0.1-7.1
		c0.8-2.1,2.1-3.7,4.2-4.6c1.6-0.6,3.3-0.8,4.9-0.7c1.2,0.1,2.3,0.3,3.3,0.9c1.4,0.8,2.2,2.2,2.8,3.7c0.3,0.8,0.5,1.6,0.7,2.4
		c0.2,0.6,0.5,0.8,1.2,0.7c0.1,0,0.2-0.1,0.4-0.1c2.1-0.4,4.3-0.8,6.4-1.2c0.7-0.1,1-0.5,1-1.2c0-0.4-0.1-0.7-0.2-1.1
		c-1.1-2.5-2.6-4.7-4.9-6.3c-1-0.7-1.9-1.5-3-2.1c-2.1-1.3-4.4-1.6-6.8-1.7c-2.5-0.1-5,0.1-7.5,0.6c-2.3,0.4-4.3,1.3-6.1,2.7
		c-0.9,0.7-1.8,1.6-2.5,2.6c-0.7,1-1.3,2.1-1.6,3.3c-0.6,2-0.6,4-0.5,6c0.1,1,0.2,2.1,0.4,3.1c0.1,0.9,0.1,1-0.8,1
		c-0.1,0-0.3,0-0.4,0c-1.2,0-2.4,0-3.6,0c-0.6,0-0.6,0-0.6,0.6c0,1.2,0.1,2.4,0,3.5c0,0.7-0.1,0.7,0.6,0.7c1.5,0,2.9,0,4.4,0
		c0.8,0,1.2,0.3,1.4,1c0.2,0.7,0.5,1.4,0.7,2.1c0.2,0.7,0,0.9-0.7,1c-0.8,0.1-1.5,0.1-2.3,0.1c-1.1,0-2.1,0-3.2-0.1
		c-0.7,0-0.9,0.1-0.9,0.9c0,0.1,0,0.2,0,0.3c0,1.3,0,2.5,0,3.8c0,0.5,0.2,0.7,0.7,0.7c0.9,0,1.8-0.1,2.7-0.2
		c0.8-0.1,1.6-0.2,2.4-0.2c1.1,0,1.1,0.1,0.9,1.1c-0.3,1.4-1,2.6-1.8,3.7c-1.3,1.8-2.8,3.2-4.6,4.4c-0.5,0.4-0.6,0.5-0.3,1.1
		c0.7,1.6,1.4,3.3,2.1,4.9c0.3,0.8,0.9,1,1.7,0.6c0.9-0.4,1.7-0.8,2.6-1c1.6-0.5,3.2-0.9,4.7-1.4c1-0.3,2-0.6,3-0.7
		c2.4-0.1,4.8-0.1,7.1,0.7c2.3,0.8,4.6,1.5,7,2c2.4,0.5,4.8,0.6,7.2-0.1c1-0.3,1.9-0.6,2.8-1.1c0.7-0.3,0.8-0.7,0.6-1.5
		c0-0.1-0.1-0.3-0.1-0.4c-0.6-1.4-1.2-2.7-1.9-4.1c-0.1-0.3-0.3-0.5-0.5-0.7c-0.1-0.1-0.3-0.1-0.4-0.1c-0.5,0.2-1,0.4-1.4,0.7
		c-1.7,0.9-3.4,1.3-5.3,1.3c-1.6,0.1-3-0.4-4.5-0.9c-2.1-0.7-4.2-1.2-6.4-1.6c-0.5-0.1-1.1-0.1-1.6-0.2c-1.5-0.1-3,0.3-4.4,0.7
		c-0.7,0.2-1.3,0.6-1.9,0.9c-0.1,0.1-0.3,0-0.4,0c0-0.1,0-0.3,0.1-0.4c0.3-0.3,0.7-0.5,0.9-0.9c0.9-1.1,1.7-2.3,2.5-3.4
		c0.4-0.6,0.7-1.3,0.9-1.9c0.3-1,0.5-1.2,1.5-1.2c1.3,0,2.6,0,3.8,0c1.8,0,3.5,0.1,5.3,0.2c0.5,0,0.5,0,0.5-0.6c0-0.5,0-1,0-1.5
		c0-1.1,0.1-2.1,0.1-3.2c0-0.6-0.1-0.6-0.6-0.6c-1.5,0-3.1,0.1-4.6,0.1c-1.5,0-3,0.1-4.5,0c-0.8,0-0.9-0.3-1-0.9
		c-0.1-0.8-0.3-1.6-0.5-2.4c-0.2-0.6-0.2-0.6,0.4-0.5c0.1,0,0.1,0,0.2,0c1.5,0,2.9-0.1,4.4-0.1c1.9,0,3.8,0,5.7,0.1
		c0.4,0,0.5-0.1,0.5-0.5c0-1.4,0.1-2.8,0.1-4.1c0-0.6-0.2-0.8-0.8-0.8C159.7,112.1,157.9,112.1,156.1,112.1z M139.2,98.6
		c0.1-0.1,0.1-0.1,0.2-0.2c0.8,0.9,1.6,1.7,2.5,2.6c0.1-0.3,0.3-0.5,0.4-0.8c-1.1-0.7-1.6-2-2.4-3c-0.4,0.7-0.7,1.4-1.1,2
		c-0.2,0.3-0.1,0.5,0.1,0.7c0.7,0.7,1.3,1.4,2,2.1c0.2,0.2,0.3,0.4,0.4,0.6c0,0-0.1,0.1-0.1,0.1c-1.1-0.7-1.7-1.8-2.7-2.8
		c-0.2,0.9-0.4,1.9-0.6,2.8c0,0.1,0,0.2,0.1,0.2c0.5,0.6,0.9,1.2,1.4,1.8c0.5,0.6,1,1.1,1.5,1.7c0,0,0.1,0,0.1-0.1
		c0-0.5,0.1-1,0.1-1.5c0-0.1-0.1-0.2-0.2-0.3c-0.8-0.8-1.6-1.7-2.4-2.5c-0.2-0.2-0.2-0.5-0.4-0.9c1,1.1,2,2.1,3,3.1
		c0.3-1.1,0.5-2.1,0.7-3C140.9,100.5,140.1,99.6,139.2,98.6z M141,110.3C141,110.3,141.1,110.3,141,110.3c0-0.7,0.1-1.2-0.5-1.7
		c-0.9-0.9-1.7-2-2.5-3c-0.1-0.1-0.1-0.3-0.2-0.4c0,0,0.1,0,0.1,0c1,1.1,2,2.3,3,3.5c0-0.5,0-0.9,0-1.3c0-0.1-0.1-0.2-0.1-0.3
		c-0.9-0.8-1.6-1.7-2.3-2.7c-0.2-0.3-0.4-0.7-0.7-1.1c0,0.2-0.1,0.3-0.1,0.4c0,0.7,0,1.5-0.1,2.2c0,0.5,0,0.9,0.5,1.3
		c0.7,0.6,1.2,1.4,1.8,2.1C140.3,109.6,140.7,110,141,110.3z M139.9,127.3c-0.1,0-0.2,0-0.4,0c-0.6,0-0.6,0-0.5,0.6
		c0.2,0.9,0.4,1.8,0.6,2.7c0.1,0.6,0.2,1.1,0.3,1.8c0.3-0.4,0.6-0.8,0.8-1.1c0.2-0.2,0.2-0.5,0.1-0.7
		C140.5,129.5,140.2,128.4,139.9,127.3z M142,95.1c-0.3,0.3-0.6,0.6-1,0.9c0.7,0.9,1.5,1.8,2.2,2.7c0.3-0.3,0.6-0.6,0.9-0.9
		c0.1-0.1,0.1-0.4,0-0.5C143.4,96.6,142.7,95.9,142,95.1z M138.7,128c-0.3,0.4-0.6,0.7-0.7,1.1c-0.1,0.2,0.1,0.6,0.2,0.8
		c0,0.2,0,0.4,0.1,0.6c0.1,1,0.3,2,0.4,3c0.3-0.2,0.5-0.4,0.7-0.6c0.3-0.2,0.3-0.4,0.3-0.8C139.3,130.8,139,129.5,138.7,128z
		 M165.5,133.6c-1.1-0.1-1.7,0.7-2.3,1.3c0.9,0.2,1.8,0.3,2.6,0.4c0.1,0,0.4-0.1,0.5-0.3c0.5-0.7,1-1.5,1.4-2.3c0,0,0,0,0-0.1
		c-0.1,0-0.1,0-0.2,0c-0.1,0-0.2,0.1-0.4,0.1c-0.9,0.5-1.6,1.3-2.4,2c-0.1,0.1-0.2,0.2-0.3,0.2c0,0-0.1-0.1-0.1-0.1
		C164.7,134.6,165.1,134.1,165.5,133.6z M132.8,111.9c0,0.7-0.1,1.4,0.4,1.9c0.8,0.9,1.5,1.8,2.3,2.7c0.1,0.1,0.3,0.2,0.5,0.3
		c0,0,0.1-0.1,0.1-0.1c-0.1-0.3,0-0.8-0.2-1C134.9,114.5,133.9,113.2,132.8,111.9z M137.3,134.7c0.3-0.3,0.6-0.5,0.9-0.7
		c0.2-0.1,0.2-0.3,0.2-0.5c-0.2-1-0.3-2-0.5-3c-0.1-0.3-0.1-0.6-0.2-1c-0.6,0.5-0.7,0.7-0.6,1.4c0.1,0.9,0.1,1.9,0.2,2.8
		C137.3,134,137.3,134.3,137.3,134.7z M141.2,111.5c0.2-0.6-0.2-0.8-0.5-1.1c-0.6-0.6-1.2-1.3-1.7-2c-0.4-0.5-0.7-0.9-1.1-1.4
		c0,0.9,0.1,1.8,0.1,2.7c0,0.1,0.1,0.2,0.2,0.3c0.5,0.3,1.1,0.5,1.6,0.7c0-0.1,0.1-0.1,0.1-0.2c-0.4-0.3-0.8-0.6-1.1-1
		c-0.5-0.5-0.7-0.9-0.7-1.1C139.1,109.5,140.1,110.5,141.2,111.5z M166.4,135.1c0,0,0.1,0.1,0.1,0.1c0.4,0,0.8-0.1,1.2-0.1
		c0.3,0,0.5-0.2,0.7-0.5c0.4-0.7,0.7-1.5,1.1-2.2c0-0.1,0-0.2,0-0.4c-0.1,0-0.3,0-0.4,0c-0.5,0.1-0.7,0.6-1,0.9
		C167.5,133.7,166.9,134.4,166.4,135.1z M136.1,125.2c0-0.7,0.2-1.4-0.6-1.7c0,0-0.1-0.1-0.1-0.1c-0.8-1-1.5-2-2.3-3
		c-0.1-0.1-0.2-0.3-0.3-0.5c-0.2,0.9-0.2,1.6,0.6,2.2c0.2,0.2,0.4,0.4,0.6,0.6C134.7,123.5,135.4,124.3,136.1,125.2z M142.9,99.2
		c-0.7-1-1.4-2-2.1-3c-0.3,0.3-0.5,0.6-0.8,0.9c0.9,0.9,1.4,2,2.4,2.9C142.7,99.7,142.8,99.4,142.9,99.2z M136.7,138.9
		c-0.2-0.6-0.2-1.2-0.7-1.6c-0.8-0.7-1.6-1.4-2.4-2.1c-0.2-0.2-0.5-0.3-0.8-0.5c0,0-0.1,0.1-0.1,0.1
		C133.6,136.5,135.3,137.6,136.7,138.9z M132.9,121.9c-0.1,0-0.1,0-0.2,0.1c0,0.2,0,0.5,0.1,0.7c0.4,0.6,0.8,1.2,1.3,1.7
		c0.5,0.7,1.1,1.4,1.6,2.1c0.1,0.1,0.2,0.1,0.3,0.1c0,0,0.1-0.1,0.1-0.2c0.1-0.5-0.2-0.8-0.5-1.2C134.7,124,133.8,123,132.9,121.9z
		 M141.1,130.8c0.3-0.5,0.6-1,0.9-1.4c0-0.1,0-0.2,0-0.2c-0.3-0.6-0.5-1.3-0.8-1.9c-0.3,0-0.6,0-0.9,0
		C140.6,128.4,140.8,129.5,141.1,130.8z M136,115.3c0.1-0.6,0-1.1-0.4-1.5c-0.8-0.9-1.6-1.9-2.4-2.9c-0.1-0.1-0.3-0.2-0.5-0.3
		c-0.1,0.6,0,0.9,0.4,1.3C134.2,113,135.1,114.2,136,115.3z M150.4,93.7c-0.7-0.6-1.3-1.1-1.9-1.6c-0.1,0-0.2-0.1-0.2-0.1
		c-0.4,0.1-0.8,0.2-1.2,0.3c0.1,0.1,0.2,0.2,0.2,0.2c0.6,0.5,1.1,0.9,1.7,1.4c0.1,0.1,0.3,0.1,0.4,0.1C149.7,94,150,93.9,150.4,93.7
		z M133.4,136.3C133.4,136.3,133.3,136.3,133.4,136.3c0.1,0.4,0.2,0.8,0.3,1.2c0,0.1,0.1,0.2,0.2,0.3c0.5,0.4,1,0.8,1.4,1.2
		c0.7,0.6,1.4,1.1,2.1,1.7c0,0,0.1-0.1,0.1-0.1c-0.3-0.4-0.5-0.8-0.8-1.2c-0.6-0.6-1.3-1.2-1.9-1.7
		C134.3,137.2,133.9,136.7,133.4,136.3z M133.3,119.8c0,0-0.1,0.1-0.1,0.1c0.9,1.2,1.8,2.4,2.9,3.5c0-0.5,0-1-0.2-1.3
		c-0.4-0.6-0.9-1.1-1.4-1.5C134.1,120.3,133.7,120,133.3,119.8z M132.7,134.1c0.8,0.5,1.6,0.9,2.3,1.3c-0.1-1-0.1-1.9-0.2-2.8
		c-0.8,0.5-0.7,0.5-0.7,1.3c0,0.3,0,0.5,0,0.8c0,0-0.1,0-0.1,0c-0.1-0.4-0.1-0.8-0.2-1.3C133.4,133.7,133.1,133.9,132.7,134.1z
		 M158,110.4c0,0,0,0.1,0.1,0.1c-0.2,0.5-0.9,0.6-1.3,1c1,0.4,1.4-0.5,2.2-0.8c-1-0.5-1.9-0.9-2.8,0c-0.3,0.3-0.8,0.5-1.3,0.8
		c0.7,0.1,1.3,0.1,1.8-0.3c0.3-0.2,0.6-0.4,0.9-0.6C157.7,110.5,157.8,110.5,158,110.4z M153.8,131.2
		C153.8,131.1,153.8,131.1,153.8,131.2c-0.4-0.1-0.8-0.1-1.1-0.1c-0.1,0-0.3,0-0.4,0.1c-0.6,0.5-1.1,0.9-1.7,1.4
		c-0.1,0.1-0.3,0.3-0.4,0.4c0,0,0,0.1,0.1,0.1c0.6-0.1,1.2-0.1,1.7-0.4C152.6,132.3,153.2,131.7,153.8,131.2z M168.6,134.8
		c0,0,0.1,0.1,0.1,0.1c0.5-0.2,1-0.3,1.5-0.6c0.2-0.1,0.3-0.6,0.4-0.9c0.1-0.1,0.1-0.3,0.2-0.4c0-0.1,0-0.2-0.1-0.3
		c-0.2-0.1-0.5-0.2-0.7-0.4C169.5,133.2,169,134,168.6,134.8z M161.6,102.2c0,0-0.1,0.1-0.1,0.1c0.1,0.2,0.1,0.4,0.2,0.5
		c0.2,0.3,0.6,0.5,0.8,0.8c0.7,0.7,1.4,1.5,2.1,2.2c0.1,0.1,0.3,0.2,0.5,0.4c0.1-0.7-0.1-0.9-0.5-1.3c-0.3-0.2-0.5-0.5-0.7-0.7
		C163.1,103.5,162.3,102.9,161.6,102.2z M148.7,92c0.6,0.4,1.1,0.9,1.7,1.3c0.5,0.4,0.8,0.3,1.4,0c-0.3-0.4-0.7-0.8-1-1.1
		c-0.2-0.2-0.5-0.4-0.8-0.4C149.5,91.7,149.1,91.9,148.7,92z M159.2,132.1c-0.4-0.1-0.8-0.3-1.2-0.4c-0.1,0-0.2,0-0.3,0.1
		c-0.3,0.2-0.6,0.5-0.9,0.7c-0.3,0.2-0.5,0.3-0.9,0.6c0.6,0.1,1,0.2,1.5,0.3c0.1,0,0.2,0,0.3-0.1
		C158.1,132.9,158.6,132.5,159.2,132.1z M150.7,91.7c0.6,0.5,1.1,1,1.6,1.4c0.1,0.1,0.2,0.1,0.3,0c0.4-0.1,0.7-0.1,1.1-0.2
		C152.7,91.7,151.9,91.3,150.7,91.7z M164.5,104.6c0.1,0,0.1-0.1,0.2-0.1c-0.2-0.7-0.3-1.4-1.1-1.8c-0.6-0.3-1-0.7-1.6-1
		c-0.3-0.2-0.6-0.3-0.9-0.4c0,0.6,0.4,0.8,0.7,1c0.9,0.5,1.7,1.2,2.4,1.9C164.4,104.3,164.4,104.4,164.5,104.6z M154.8,91.4
		c0.9,0.8,2.2,1.6,3.4,1.2C157.4,91.2,156.1,91.4,154.8,91.4z M155.9,92.7c-0.4-0.3-0.9-0.6-1.2-0.9c-0.6-0.6-1.3-0.3-2-0.3
		C153.9,92.8,154.4,92.9,155.9,92.7z M154.3,132.6c0.1,0.1,0.1,0.1,0.2,0.1c0.6,0.2,1.3,0.3,1.8-0.3c0.3-0.3,0.8-0.5,1.2-0.8
		c0,0,0-0.1,0-0.1c-0.4,0-0.8-0.1-1.1,0c-0.4,0.1-0.7,0.3-1.1,0.5C154.9,132.2,154.6,132.4,154.3,132.6z M160.8,132.8
		c-0.6-0.4-1.1-0.6-1.8-0.2c-0.2,0.1-0.4,0.2-0.6,0.3c-0.2,0.1-0.3,0.3-0.5,0.4C159.1,134.1,159.9,133.4,160.8,132.8z M152.3,132.5
		c0,0,0,0.1,0.1,0.1c0.8,0,1.7,0.2,2.2-0.6c0.1-0.2,0.4-0.2,0.6-0.4c0.1-0.1,0.3-0.2,0.4-0.3c0-0.1,0-0.1,0-0.2
		c-0.4,0-0.8-0.1-1.1,0C153.7,131.6,153.1,132.1,152.3,132.5z M151.7,131.2c-1.3,0-2.5,0.9-3.1,2.2c0.1,0,0.1,0,0.2,0
		c0.4-0.1,0.8-0.3,1.1-0.6C150.5,132.2,151.1,131.7,151.7,131.2z M138.2,142.1c0.1-0.1,0.1-0.1,0.2-0.2c-0.3-0.3-0.5-0.6-0.8-0.9
		c-1-0.9-2-1.7-3-2.6c-0.1-0.1-0.2-0.1-0.3-0.3c0.3,1,1,1.5,1.7,2.1c0.5,0.4,0.9,0.8,1.4,1.2C137.5,141.7,137.8,141.9,138.2,142.1z
		 M154.4,120.8c1.2,0.3,2-0.1,2.8-1.4c-0.4,0-0.9-0.1-1.2,0.1C155.5,119.9,155,120.4,154.4,120.8z M162.4,133.5
		c-0.4-0.2-0.8-0.5-1.3-0.3c-0.5,0.2-1,0.5-1.5,0.7c0.5,0.2,1,0.5,1.4,0.4C161.4,134.2,161.9,133.7,162.4,133.5z M151,111.5
		c1.1,0.2,2.3-0.3,2.8-1.2c-0.4,0-0.9-0.1-1.2,0C152,110.6,151.5,111.1,151,111.5z M152.9,111.5c0.6,0,1.2,0.1,1.7-0.3
		c0.3-0.2,0.6-0.3,0.9-0.5c0.1-0.1,0.3-0.2,0.4-0.3c-0.3-0.1-0.6-0.1-0.8-0.1c-0.2,0-0.5,0-0.6,0.1
		C153.9,110.7,153.5,111.1,152.9,111.5z M135.2,126.2c-0.8-1.1-1.7-2.2-2.5-3.3c-0.1,0.7-0.1,0.7,0.3,1.2c0.2,0.2,0.4,0.4,0.5,0.7
		C134,125.5,134.5,126,135.2,126.2z M163.8,133.7c0,0,0-0.1,0-0.1c-0.3,0-0.7-0.1-1,0c-0.3,0.1-0.6,0.3-0.8,0.5
		c-0.2,0.1-0.4,0.2-0.7,0.4c0.5,0.1,0.8,0.3,1.2,0.3c0.1,0,0.3,0,0.4-0.1C163.2,134.4,163.5,134.1,163.8,133.7z M140.5,117.9
		c0.9,0.7,1.4,1.8,2.5,2.4c0-0.2,0-0.5-0.1-0.6c-0.5-0.5-1-1-1.4-1.6C141.2,117.7,140.9,117.7,140.5,117.9z M133.8,111.2
		C133.8,111.2,133.8,111.2,133.8,111.2c0.7,0.8,1.4,1.6,2.2,2.5c0-0.4,0-0.8,0-1.1c0-0.1-0.1-0.3-0.2-0.3
		C135.1,111.9,134.5,111.6,133.8,111.2z M163.8,102.3c-0.5-1.1-2-1.9-3-1.7c0.1,0.1,0.1,0.2,0.2,0.3
		C161.8,101.4,162.8,101.9,163.8,102.3z M152.8,120.7c0,0,0,0.1,0.1,0.1c0.3,0,0.8,0.1,1,0c0.5-0.3,1-0.8,1.5-1.3
		c-0.5,0-0.9-0.1-1.3,0.2c-0.2,0.2-0.5,0.3-0.8,0.5C153.2,120.5,153,120.6,152.8,120.7z M150,110.3c0.1,0.5,0.2,0.9,0.3,1.3
		c0.6-0.5,1.1-0.8,1.7-1.3C151.3,110.3,150.7,110.3,150,110.3z M138.9,110.9c-0.3-0.1-0.5-0.2-0.7-0.3c-0.5,0.4-0.9,0.8-1.4,1.3
		C137.7,112.1,138.5,111.8,138.9,110.9z M164.3,106C164.3,106,164.4,106,164.3,106c-0.8-1-1.7-1.9-2.6-2.9
		C161.6,103.9,163.5,105.9,164.3,106z M135.4,111.5c0.3,0.1,0.4,0.2,0.6,0.3c0.1,0,0.3,0.1,0.4,0c0.4-0.4,0.8-0.8,1.2-1.2
		C136.7,110.4,136.1,110.9,135.4,111.5z M139.9,119.6c-0.5-0.3-0.6-0.3-1,0.1c-0.2,0.2-0.4,0.4-0.6,0.6c-0.1,0.1-0.3,0.3-0.5,0.4
		C138.9,120.9,139.4,120.6,139.9,119.6z M160.2,92.6c-0.5-1-1.5-0.9-2.5-1.1C158.4,92.3,159.1,92.9,160.2,92.6z M132.9,113.8
		c-0.2,0.8,1.3,2.6,2.2,2.6C134.3,115.5,133.6,114.6,132.9,113.8z M136.3,120.7c0.1,0,0.2,0.1,0.3,0.1c0.6,0.1,1.6-0.6,2-1.4
		c-0.3,0.1-0.7,0-0.9,0.2C137.2,119.8,136.8,120.3,136.3,120.7z M157.7,120.7c1,0.2,1.5,0,1.8-0.8c-0.3-0.1-0.6-0.2-0.7-0.1
		C158.5,120,158.2,120.3,157.7,120.7z M142.8,127.2c-0.4,0-0.8,0-1.2,0c0.2,0.6,0.4,1.1,0.6,1.7c0,0,0.1,0,0.1,0
		C142.5,128.3,142.6,127.8,142.8,127.2z M156.5,120.8c0.6,0.1,1,0.1,1.3-0.5c0.1-0.2,0.3-0.3,0.4-0.5c0.1-0.1,0.2-0.2,0.2-0.3
		c0,0-0.1-0.1-0.1-0.1C157.6,119.5,157.1,120.2,156.5,120.8z M141.1,120c-0.4-0.1-0.7-0.2-0.9-0.1c-0.3,0.2-0.6,0.6-0.8,0.9
		C140.5,120.9,140.5,120.9,141.1,120z M153.7,119.6c0,0,0-0.1,0-0.1c-0.3,0.1-0.7,0.1-1,0.2c-0.2,0.1-0.4,0.3-0.6,0.5
		c-0.1,0.1-0.1,0.3,0,0.5c0,0,0.2,0.1,0.3,0C152.8,120.4,153.3,120,153.7,119.6z M141.7,119.8c0,0,0.1-0.1,0.1-0.1
		c-0.1-0.1-0.2-0.2-0.2-0.3c-0.4-0.4-0.8-0.9-1.1-1.3c-0.2-0.3-0.4-0.3-0.7-0.2C140.4,118.5,140.9,119.3,141.7,119.8z M137.1,119.7
		c-0.5-0.2-1.4,0.2-1.7,0.7c0.3,0,0.5,0.2,0.7,0.1C136.4,120.2,136.7,120,137.1,119.7z M171,133c-0.2,0.4-0.3,0.7-0.4,1.1
		c0,0,0.1,0.1,0.1,0.1c0.4-0.2,0.8-0.4,1.3-0.7C171.7,133.3,171.4,133.2,171,133z M158.2,111.6c0.7,0.3,1.1-0.2,1.6-0.6
		c-0.2-0.1-0.4-0.2-0.5-0.2C158.9,111,158.5,111.3,158.2,111.6z M142.6,119.1C142.6,119.1,142.7,119.1,142.6,119.1
		c0-0.4-0.1-0.7-0.3-1c-0.2-0.3-0.4-0.4-0.8-0.2C141.9,118.3,142.3,118.7,142.6,119.1z M142.4,120.7c-0.9-0.7-1.1-0.6-1.4,0.1
		C141.5,120.8,141.9,120.8,142.4,120.7z M139.8,111.4c-0.5-0.4-0.8-0.3-1.2,0.4C139.1,112,139.5,111.8,139.8,111.4z M160.3,92
		c0.4,0.6,1.5,0.9,2,0.7C161.6,92.5,160.9,92.3,160.3,92z M161.1,111.6c-0.8-0.5-1-0.5-1.6,0C160,111.6,160.5,111.6,161.1,111.6z
		 M134.1,119.6C134.1,119.6,134,119.6,134.1,119.6c0.4,0.2,0.7,0.4,0.9,0.5c0.3-0.2,0.5-0.3,0.7-0.4c0,0,0,0,0-0.1
		C135.1,119.6,134.6,119.6,134.1,119.6z M159.5,120.8c0.5,0,0.9,0,1.5-0.1C159.9,120.2,159.9,120.1,159.5,120.8z M135.9,121.8
		c0.1,0,0.1,0,0.2,0c0-0.2,0.1-0.5,0-0.6c-0.3-0.2-0.7-0.4-1-0.6c0,0,0,0.1-0.1,0.1C135.3,121.1,135.6,121.4,135.9,121.8z
		 M132.8,124.1c0,0.7,0.4,1.2,1,1.3C133.5,125,133.1,124.5,132.8,124.1z M136,110.7c-0.6-0.2-0.8,0.2-1.3,0.5
		c0.2,0.1,0.4,0.2,0.5,0.1C135.5,111.2,135.7,110.9,136,110.7z M136.5,141.3C136.5,141.3,136.6,141.2,136.5,141.3
		c-0.4-0.5-0.8-0.9-1.3-1.3C135.4,140.8,136,141,136.5,141.3z M162.9,105.4c-0.3-0.4-0.6-0.7-0.9-1.1
		C162,104.9,162.3,105.3,162.9,105.4z M133.6,115.8c-0.3-0.3-0.5-0.6-0.7-0.9C132.6,115.4,133,115.7,133.6,115.8z M139.9,118.2
		c0.1,0.7,0.3,1,0.9,1.1C140.5,118.9,140.2,118.6,139.9,118.2z M135.9,137c-0.1-0.6-0.3-0.7-0.9-0.8
		C135.3,136.5,135.6,136.7,135.9,137z M133.8,110.6c0.6,0.5,0.7,0.5,1,0C134.5,110.6,134.2,110.6,133.8,110.6z M161.6,100.3
		c-0.4-0.1-0.8-0.3-1.2-0.4C160.5,100.3,160.5,100.3,161.6,100.3z M139.8,111.9c0.3,0,0.5,0,0.9,0
		C140.3,111.6,140.1,111.5,139.8,111.9z M152.5,119.7c-0.5-0.1-0.6,0-0.4,0.4C152.2,120,152.3,119.9,152.5,119.7z"/>
	<g>
		<path d="M214,115.1c0.8,0.1,1.5,0.2,2.2,0.2c1.2,0,2.3,0.5,3.4,0.9c0.5,0.2,1,0.3,1.4,0.5c0.5,0.2,0.9,0.5,1.3,0.8
			c0.1,0.1,0.2,0.3,0.2,0.4c0.1,1.3,0.1,2.5,0.1,3.8c0,0.4-0.2,0.6-0.6,0.6c-0.2,0-0.3,0-0.5,0c-2.3,0-4.7,0-7,0.1
			c-1.1,0-2.2,0.1-3.3,0.2c-0.2,0-0.3,0.1-0.3,0.3c0,0.4,0,0.9,0,1.3c1.8,0.1,3.7,0.2,5.5,0.2c0.2,0,0.4,0,0.5,0.1
			c0.8,0.3,1.5,0.6,2.3,0.9c0.6,0.2,1.3,0.5,1.9,0.7c0.6,0.2,0.8,0.4,0.8,1.1c0,0.9,0,1.8,0.1,2.6c0,0.5,0.1,1,0.1,1.5
			c0,0.4-0.1,0.6-0.5,0.6c-3.2,0.1-6.4,0.2-9.6,0.3c-0.4,0-0.5,0.2-0.5,0.5c0,1.4,0.1,2.8,0.1,4.1c0,0.8,0,1.6,0,2.4
			c0,0.8,0,1.6,0.1,2.3c0,0.4-0.1,0.5-0.5,0.5c-0.6,0-1.3-0.1-1.9,0c-1.6,0.1-3.3,0.2-4.9,0.3c-0.7,0-1.4,0-2.2-0.4
			c-0.8-0.4-1.7-0.7-2.5-1.1c-0.7-0.3-1-0.8-1-1.5c0-1.8-0.1-3.7-0.1-5.5c0-0.6,0-1.1,0-1.7c0-0.3-0.1-0.4-0.4-0.4
			c-1.7-0.2-3.4-0.2-5.1-0.2c-0.5,0-1-0.2-1.5-0.4c-1-0.3-2-0.7-2.9-1.1c-0.9-0.4-1-0.7-1-1.7c0.1-1.1,0-2.2,0-3.3
			c0-0.7,0.1-1,0.8-1.1c0.5-0.1,1-0.1,1.5,0c2.9,0.2,5.7,0.4,8.6,0.5c0.1,0,0.3,0,0.5,0c0-0.7,0-1.4-0.1-2.1c0-0.1-0.2-0.2-0.4-0.2
			c-0.9,0-1.8,0-2.8,0c-1,0-2.1-0.1-3.1-0.2c-0.8-0.1-1.5-0.4-2.1-0.7c-0.6-0.3-1.3-0.5-2-0.6c-0.5-0.2-0.7-0.3-0.7-0.9c0-1,0-2,0-3
			c0-0.2,0-0.4-0.1-0.6c-0.1-0.7,0-0.8,0.7-0.9c0.1,0,0.2,0,0.3,0c1.2,0.2,2.5,0.2,3.7,0.1c1.4-0.1,2.9-0.1,4.3-0.2
			c-0.2-0.4-0.3-0.8-0.5-1.1c-1.1-2.2-2.2-4.4-3.4-6.5c-1.3-2.3-2.7-4.5-4-6.8c-0.6-1-1.1-2.1-1.6-3.1c-0.8-1.4-1.6-2.7-2.4-4
			c-0.2-0.3-0.4-0.7-0.5-1c-0.2-0.5,0-0.8,0.5-0.9c1.1-0.2,2.2-0.4,3.2-0.6c1.1-0.2,2.1-0.3,3.2-0.5c0.1,0,0.3,0,0.4,0.1
			c0.9,0.6,1.9,0.9,3,1.1c1.2,0.3,2,1,2.6,2.2c1.5,3.1,3.1,6.1,4.6,9.2c0.7,1.6,1.3,3.2,2,4.8c0.1,0.2,0.2,0.4,0.3,0.7
			c0.2-0.4,0.3-0.7,0.5-1c0.9-1.8,1.8-3.7,2.9-5.4c1.5-2.4,2.6-5,3.7-7.6c0.5-1.2,1.1-2.4,1.7-3.6c0.1-0.2,0.3-0.4,0.6-0.3
			c1.3,0.5,2.7,0.4,4.1,0.5c1.3,0.1,2.5,0.2,3.8,0.3c0.3,0,0.6,0.3,0.9,0.4c1.2,0.5,2.3,0.9,3.5,1.4c0.4,0.2,0.4,0.3,0.2,0.7
			c-0.5,0.9-1,1.8-1.5,2.7c-1.5,2.4-3.1,4.8-4.6,7.3c-0.9,1.4-1.7,2.8-2.5,4.3c-1.1,2.1-2.2,4.1-3.3,6.2
			C214.1,114.8,214.1,114.9,214,115.1z M214.4,95.9c0.1,0.1,0.3,0.2,0.4,0.3c0.3,0.4,0.5,0.8,0.8,1.2c0.4-0.8,0.8-1.5,1.1-2.2
			c-0.4-0.8-0.9-1.5-0.9-2.5c0.4,0.7,0.7,1.4,1.1,2.2c0.1-0.4,0.2-0.7,0.4-1c0.4-0.8,0.4-0.9-0.4-1.2c-0.1-0.1-0.3,0-0.5-0.1
			c-0.5-0.5-1.3-0.5-2-0.7c0.1,0.1,0.1,0.2,0.1,0.3c0.5,1,1,2,1.5,3c0.1,0.3,0.1,0.6,0.2,0.9c0,0-0.1,0-0.1,0
			c-0.2-0.4-0.4-0.8-0.6-1.1c-0.4-0.8-0.7-1.7-1.1-2.5c0-0.1-0.1-0.2-0.1-0.3c0-0.3-0.2-0.5-0.5-0.5c-0.2,0.3-0.4,0.6-0.5,0.8
			c-0.1,0.1-0.1,0.3,0,0.3c0.2,0.5,0.5,1,0.8,1.5C214.1,94.8,214.5,95.3,214.4,95.9c-0.5-0.9-1-1.9-1.6-2.9c-0.2,0.4-0.4,0.7-0.5,1
			c0,0.1,0,0.2,0,0.3c0.1,0.3,0.3,0.6,0.4,0.9c0,0-0.1,0-0.1,0.1c-0.2-0.3-0.4-0.6-0.6-0.9c-0.2,0.5-0.4,0.8-0.1,1.4
			c0.8,1.3,1.4,2.6,2.1,3.9c0,0,0.1,0.1,0.1,0.2c0.3-0.5,0.7-0.9,0.2-1.5c0,0,0-0.1,0-0.1c-0.4-0.7-0.8-1.4-1.1-2.1
			c-0.1-0.1-0.1-0.2-0.1-0.3c0.1,0,0.1-0.1,0.2-0.1c0.6,0.9,1.1,1.8,1.7,2.7c0.5-0.7,0.5-0.7,0.3-1C214.9,97,214.7,96.4,214.4,95.9z
			 M221.7,131.5c0-1.3,0.1-2.5,0.1-3.6c0-0.9-0.3-1.1-1.3-1.1c-0.8,0-1.6,0-2.3,0c-1.1,0-2.3-0.1-3.4-0.1c-1.2,0-2.4,0-3.6,0
			c-0.3,0-0.5-0.1-0.5-0.4c0-0.9-0.2-1.9-0.1-2.8c0.1-1.4,0.5-1.6,1.9-1.5c0.8,0,1.6,0.1,2.4,0c2.2,0,4.4-0.1,6.5-0.1
			c0.6,0,0.7-0.1,0.7-0.7c0-1-0.1-2.1-0.1-3.1c0-0.3-0.2-0.4-0.4-0.4c-1.4-0.1-2.8-0.4-4.3-0.3c-1.4,0.1-2.8,0.1-4.3,0.1
			c-1,0-0.9-0.1-0.5-0.9c1-1.9,2.2-3.6,3.1-5.5c0.7-1.6,1.7-3.2,2.6-4.7c1.2-2,2.5-4,3.7-6c1.1-1.7,2.1-3.5,3.2-5.2
			c0.2-0.3,0.4-0.7,0.6-1.1c-1.2-0.2-2.4-0.5-3.6-0.5c-1.2,0-2.3-0.2-3.5-0.4c-0.5-0.1-0.6,0.1-0.8,0.4c-0.2,0.5-0.4,1-0.7,1.4
			c-0.5,1.1-1,2.3-1.5,3.4c-1.3,2.7-2.6,5.4-4.1,8c-1.3,2.2-2.7,4.5-3.7,6.9c-0.2,0.5-0.6,0.9-0.9,1.4c-0.1-0.1-0.1-0.1-0.2-0.2
			c-0.6-1.1-1.3-2.2-1.8-3.3c-0.8-1.7-1.5-3.5-2.2-5.3c-1.1-2.6-2.3-5.1-3.5-7.6c-0.7-1.5-1.6-3-2.4-4.5c-0.3-0.5-0.6-0.6-1.1-0.5
			c-1,0.1-2,0.2-3,0.4c-0.9,0.1-1.7,0.3-2.6,0.5c-0.2,0.1-0.3,0.2-0.2,0.4c0.2,0.3,0.3,0.7,0.5,1c0.6,1.1,1.1,2.2,1.7,3.3
			c1,1.9,1.9,3.7,3,5.5c0.7,1.3,1.5,2.5,2.3,3.7c1.8,2.9,3,6,4.5,9c0.2,0.4,0,0.6-0.4,0.6c-0.5,0-1,0-1.6,0c-1.9,0-3.7,0.4-5.6,0.2
			c-0.3,0-0.6-0.1-0.9-0.1c-0.4,0-0.7,0.1-0.7,0.6c0,1.1,0,2.2,0,3.3c0,0.2,0.2,0.4,0.4,0.4c1.4,0,2.9,0,4.3,0c1.9,0,3.8,0,5.7,0
			c0.3,0,0.6,0.1,0.6,0.5c0.1,1,0.1,2,0.1,3c0,0.4,0,0.8,0,1.1c0,0.1-0.2,0.3-0.3,0.4c-0.2,0.1-0.4,0.1-0.7,0
			c-0.6-0.1-1.3-0.1-1.9-0.2c-2-0.1-3.9-0.2-5.9-0.3c-0.6,0-1.3-0.1-1.9-0.1c-0.6,0-0.7,0.2-0.6,0.7c0,0.3,0,0.6,0,0.9
			c0,0.9,0,1.7,0,2.6c0,0.3,0.1,0.5,0.4,0.5c0.6,0,1.2,0.1,1.8,0.1c0.5,0,1.1,0,1.6,0c2.1,0.1,4.2,0.2,6.2,0.3c0.6,0,0.7,0,0.7,0.6
			c0.1,1.3,0.2,2.6,0.2,3.9c0.1,1.7,0.1,3.3,0.2,5c0,0.3,0,0.6,0,0.8c2.5-0.1,4.9-0.2,7.3-0.3c0-0.6,0-1.2,0-1.8c0-2.3,0-4.5,0-6.8
			c0-1,0.3-1.3,1.3-1.4c0.2,0,0.3,0,0.5,0c0.6,0,1.3,0.1,1.9,0c1.5-0.1,3-0.2,4.6-0.3C220,131.5,220.8,131.5,221.7,131.5z
			 M191.7,100.2c0,0.1,0,0.1-0.1,0.2c-1,0.1-1.7-0.6-2.7-0.6c0.2,0.3,0.4,0.6,0.5,0.9c0.1,0.1,0.2,0.2,0.3,0.2
			c0.8,0.2,1.5,0.3,2.3,0.5c0.1,0,0.3,0.1,0.4,0.2c0,0,0,0.1,0,0.1c-0.9,0.4-1.7-0.5-2.7-0.4c0.2,0.3,0.4,0.7,0.7,0.8
			c0.5,0.2,1.1,0.2,1.7,0.3c0.1,0,0.3,0.1,0.5,0.2c-0.7,0.4-1.4-0.1-2.1,0.1c0.2,0.2,0.3,0.6,0.5,0.7c0.9,0.4,1.9,0.6,2.9,0.6
			c0-0.1,0-0.2-0.1-0.2c-0.8-1.4-1.6-2.8-2.4-4.3c-0.1-0.1-0.2-0.2-0.3-0.2c-0.7-0.2-1.4-0.3-2.1-0.5c-0.2-0.1-0.5-0.1-0.8-0.2
			c0.3,0.5,0.3,0.9,0.9,1c0.7,0.1,1.4,0.3,2.1,0.5C191.4,100.1,191.6,100.2,191.7,100.2z M188.2,125c0.1,0.6,0.1,1.2,0.2,1.9
			c0,0,0.1,0.1,0.1,0.1c0.9,0.9,1.7,1.9,2.6,2.8c0.3,0.3,0.5,0.7,0.8,1.1c0.1,0.1,0.2,0.1,0.4,0.2c0-0.6,0-1,0-1.5
			c-0.2-0.1-0.4-0.2-0.6-0.4c-0.3-0.4-0.6-0.9-1-1.3c-0.6-0.7-1.3-1.4-1.9-2.1c-0.1-0.1-0.2-0.2-0.3-0.4c0,0,0.1,0,0.1-0.1
			c1.2,1.2,2.6,2.2,3.6,3.7c0-0.4,0-0.7,0-1c0-0.2-0.1-0.4-0.2-0.6C190.9,126.5,189.8,125.5,188.2,125z M209.4,100.9
			c0,0-0.1,0-0.1,0c-0.2,0.3-0.3,0.6-0.4,0.8c-0.1,0.1-0.1,0.3-0.1,0.5c0.3,1.5,0.7,2.9,1,4.4c0.1,0.3,0.2,0.6,0.3,1
			c0.2-0.3,0.3-0.4,0.4-0.6c0.3-0.4,0.4-0.8,0.2-1.2c-0.3-0.9-0.5-1.8-0.8-2.7C209.8,102.3,209.6,101.6,209.4,100.9z M203,139.7
			c0-0.6,0-1.1,0-1.6c0-0.4-0.2-0.6-0.4-0.8c-0.6-0.5-1.2-1-1.7-1.5c-0.6-0.6-1.1-1.3-1.7-1.9c-0.1,0.6-0.1,1.2,0.4,1.7
			c0.8,0.9,1.5,1.8,2.2,2.7C202.2,138.8,202.6,139.2,203,139.7z M208.2,111.1c0.3-0.6,0.6-1.2,0.9-1.8c0-0.1,0-0.1-0.1-0.2
			c-0.1-0.2-0.2-0.4-0.2-0.6c-0.2-0.8-0.3-1.6-0.5-2.3c-0.2-0.8-0.4-1.7-0.6-2.5c0,0-0.1,0-0.1,0c-0.1,0.3-0.4,0.6-0.3,0.9
			c0,0.7,0.1,1.4,0.3,2.1c0.2,1,0.4,2,0.6,3C208.1,110.1,208.1,110.6,208.2,111.1z M206.8,105.1c-0.4,0.5-0.6,1-0.5,1.6
			c0.3,2,0.6,3.9,0.8,5.9c0,0.1,0.1,0.2,0.1,0.5c0.2-0.4,0.4-0.8,0.5-1.1c0-0.1,0-0.2,0-0.2c0-0.3-0.1-0.5-0.1-0.8
			c-0.1-0.6-0.1-1.2-0.1-1.7c-0.2-1.1-0.4-2.2-0.6-3.2C206.9,105.7,206.9,105.4,206.8,105.1z M203,141.6c0.2-0.8,0-1.2-0.4-1.8
			c-1-1.2-1.9-2.4-2.9-3.6c-0.1-0.2-0.3-0.4-0.5-0.6c0,0.5,0,0.9,0,1.3c0,0.1,0.1,0.2,0.1,0.3c0.7,0.8,1.3,1.6,2,2.4
			C201.9,140.1,202.4,140.9,203,141.6z M198.4,111.3c-0.2,0-0.4,0.1-0.5,0c-0.9-0.3-1.7-0.6-2.6-0.9c-0.1,0-0.1,0-0.3,0
			c0.1,0.4,0.2,0.7,0.6,0.8c1,0.4,1.9,0.8,2.9,1.3c0.2,0.1,0.4,0.2,0.5,0.4c0,0-0.1,0.1-0.1,0.1c-1.2-0.2-2.2-1-3.4-1.4
			c0.1,0.3,0.3,0.5,0.5,0.6c0.5,0.3,1.1,0.5,1.6,0.8c0.6,0.3,1.2,0.6,2,0.9C199.1,112.9,198.7,112.1,198.4,111.3z M192.2,120.4
			c0.2-0.5,0.1-0.7-0.3-1c-0.2-0.1-0.3-0.2-0.4-0.4c-0.5-0.6-1-1.1-1.5-1.7c0-0.1-0.1-0.1-0.1-0.2c0,0,0.1-0.1,0.1-0.1
			c0.4,0.1,0.6,0.4,0.8,0.7c0.4,0.6,0.8,1.1,1.5,1.4c0-0.3,0-0.7-0.1-0.9c-0.2-0.3-0.5-0.5-0.7-0.8c-0.1-0.1-0.3-0.3-0.4-0.4
			c-0.9-0.3-1.8-0.6-2.7-0.9c0,0.1,0,0.2,0,0.3c0,0,0.1-0.1,0.1-0.1c0.3,0.2,0.6,0.4,0.8,0.6c0.4,0.4,0.7,0.9,1.1,1.4
			c0.2,0.3,0.4,0.5,0.7,0.7C191.3,119.6,191.7,120,192.2,120.4z M212.5,103.1c0.4-0.6,0.9-1.1,0.4-1.9c-0.1-0.2-0.1-0.4-0.2-0.5
			c-0.5-1.2-1.1-2.4-1.6-3.6c0,0-0.1,0-0.1,0c-0.1,0.3-0.3,0.7-0.2,1c0.4,1.2,0.9,2.4,1.3,3.6C212.3,102.1,212.4,102.6,212.5,103.1z
			 M208.5,102.3c-0.4,0.5-0.7,0.9-0.5,1.5c0.3,1,0.5,2.1,0.8,3.2c0.1,0.6,0.3,1.3,0.4,1.9c0.6-0.8,0.7-0.8,0.4-1.6
			c-0.1-0.3-0.2-0.6-0.2-0.9C209.1,105.1,208.8,103.7,208.5,102.3z M197.4,109.8c0,0.1-0.1,0.2-0.1,0.2c-0.9-0.2-1.8-0.5-2.7-0.7
			c0,0-0.1,0.1-0.1,0.1c0.2,0.2,0.3,0.4,0.5,0.5c1,0.4,2.1,0.7,3.2,1.1c-0.4-0.8-0.8-1.5-1.3-2.2c0-0.1-0.2-0.1-0.3-0.1
			c-0.5-0.1-1-0.1-1.4-0.2c-0.4-0.1-0.8-0.2-1.3-0.3c0.1,0.4,0.2,0.7,0.7,0.8c0.7,0.1,1.5,0.3,2.2,0.6
			C197.1,109.5,197.2,109.7,197.4,109.8z M211.7,95.7c-0.3,0.5-0.4,0.9-0.1,1.4c0.6,1.3,1.2,2.7,1.8,4.1c0,0.1,0.1,0.1,0.1,0.3
			c0.2-0.3,0.3-0.6,0.5-0.9c0-0.1,0-0.2,0-0.3C213.2,98.8,212.4,97.3,211.7,95.7z M199.3,132.4c0,0-0.1,0-0.1,0
			c0.1,0.4,0,0.9,0.2,1.1c0.9,1,1.8,2,2.7,3c0.2,0.2,0.5,0.4,0.8,0.6c0,0,0.1-0.1,0.1-0.1c-0.1-0.3,0.2-0.7-0.2-1
			c-0.8-0.7-1.5-1.5-2.3-2.2C200.1,133.4,199.7,132.9,199.3,132.4z M206,106.7C205.9,106.7,205.9,106.7,206,106.7
			c-0.2,0.4-0.5,0.8-0.5,1.2c0.1,1.4,0.3,2.8,0.5,4.1c0.1,0.6,0.5,1.1,0.8,1.7c0,0,0.1,0,0.1,0C206.6,111.4,206.3,109,206,106.7z
			 M187.1,96.2c0.1,0.4,0.3,0.7,0.7,0.8c0.3,0.1,0.6,0.1,0.9,0.2c0.6,0.1,1.2,0.3,1.9,0.4c-0.3-0.6-0.6-1.2-0.8-1.6
			c-1.2-0.2-2.2-0.6-3.3-1.1c0.2,0.4,0.3,0.8,0.6,0.9c0.6,0.3,1.4,0.4,2,0.6c0.2,0.1,0.4,0.2,0.7,0.3c0,0.1-0.1,0.1-0.1,0.2
			C188.8,96.6,188,96.4,187.1,96.2z M202.9,135.8c0,0,0.1-0.1,0.1-0.1c0-0.5,0.2-1.1-0.4-1.5c-0.6-0.5-1.2-1-1.6-1.6
			c-0.5-0.6-1-0.6-1.7-0.5C200.5,133.3,201.7,134.6,202.9,135.8z M188.3,116.7c-0.2,0.6,0,1,0.3,1.4c0.7,0.9,1.3,1.7,2.2,2.4
			c0.3,0.3,0.6,0.7,0.9,0.9c0.1,0.1,0.3,0.2,0.5,0.2c0.2,0,0.1-0.8-0.1-0.9c-0.7-0.7-1.5-1.4-2.2-2.1c-0.4-0.4-0.7-1-1.1-1.4
			C188.7,117.1,188.5,116.9,188.3,116.7z M209.9,99.7c-0.3,0.4-0.4,0.8-0.2,1.3c0.4,1.3,0.8,2.6,1.2,3.9c0.1,0.3,0.2,0.6,0.3,1.1
			c0.3-0.5,0.5-0.8,0.6-1.1C211,103.1,210.6,101.3,209.9,99.7z M210.6,98.3c0,0-0.1,0-0.1,0c-0.1,0.3-0.4,0.7-0.3,1
			c0,0.4,0.2,0.8,0.3,1.2c0.2,0.6,0.4,1.1,0.6,1.7c0.3,0.8,0.5,1.5,0.8,2.3c0.4-0.4,0.5-0.7,0.2-1.1c0-0.1-0.1-0.2-0.1-0.2
			c-0.4-1.3-0.8-2.6-1.2-3.9C210.8,98.8,210.7,98.5,210.6,98.3z M186.8,92.8c0.7,0.3,1.5,0.5,2.2,0.8c0.1,0,0.3-0.1,0.3-0.1
			c0.3-0.6,0.6-1.2,0.8-1.8c-0.1,0-0.2,0-0.2,0c-0.8,0.1-1.6,0.2-2.4,0.3c-0.1,0-0.1,0-0.2,0.1C187.2,92.2,187,92.5,186.8,92.8z
			 M189.3,130.1c0,0,0.1-0.1,0.1-0.1c-0.4-0.5-0.7-0.9-1.1-1.4c0,0,0.1-0.1,0.1-0.1c0.1,0.1,0.2,0.2,0.3,0.3
			c0.2,0.3,0.5,0.6,0.7,0.9c0.5,0.6,1.1,1.1,1.9,1.3c-1-1.2-2-2.4-3-3.6c-0.1,0.6-0.2,1.2-0.2,1.7c0,0.2,0.1,0.4,0.2,0.5
			C188.7,129.8,189,129.9,189.3,130.1z M196.1,107.3c-0.3-0.5-0.6-1-0.9-1.5c0-0.1-0.2-0.1-0.3-0.1c-0.4-0.1-0.9-0.1-1.3-0.2
			c-0.4-0.1-0.9-0.3-1.3-0.4c0.3,0.8,0.3,0.9,1.1,1c0.4,0.1,0.9,0.1,1.3,0.2c0.2,0,0.5,0.2,0.7,0.3c0,0.1,0,0.1,0,0.2
			c-0.8-0.1-1.6-0.2-2.3-0.4c0,0.2,0.1,0.3,0.2,0.4C194.1,107.1,195,107.3,196.1,107.3z M202.6,141.7c-1.1-1.4-2.2-2.9-3.3-4.4
			c0.1,0.6,0,1.2,0.4,1.7c0.4,0.5,0.9,1.1,1.2,1.7C201.3,141.4,201.9,141.5,202.6,141.7z M189.5,93.6c0.7-0.1,1.2-0.3,1.4-0.9
			c0.1-0.3,0.3-0.6,0.4-0.9c0.1-0.1,0.2-0.1,0.3-0.2c0,0.1,0,0.3,0,0.4c-0.2,0.4-0.4,0.8-0.7,1.2c0,0,0,0.1,0.1,0.1
			c0.2-0.1,0.6-0.1,0.7-0.3c0.3-0.4,0.5-0.8,0.7-1.3c-0.5-0.2-0.9-0.6-1.5-0.3c-0.1,0.1-0.3,0.1-0.4,0.3
			C190.3,92.3,189.9,92.9,189.5,93.6z M203.4,126c0.1-0.6,0.1-0.8-0.3-1.2c-0.6-0.6-1.1-1.2-1.6-1.9c-0.4-0.5-0.6-0.6-1.3-0.4
			C201.2,123.7,202.1,125,203.4,126z M186,93.6c0-0.1,0.1-0.2,0.1-0.3c1,0.4,2,0.8,3,1.2c0,0,0.1-0.1,0.1-0.1
			c-0.2-0.2-0.4-0.4-0.7-0.5c-0.9-0.3-1.7-0.7-2.6-1c-0.1,0-0.3-0.1-0.4-0.1c0,0-0.1,0.1-0.1,0.1c0.3,0.4,0.5,0.9,0.8,1.3
			c0,0.1,0.1,0.1,0.2,0.1c1.1,0.4,2.1,0.8,3.2,1.1c0,0,0,0,0.1-0.1c-0.1-0.3-0.3-0.5-0.6-0.6C188,94.5,187,94,186,93.6z
			 M200.6,115.7c-0.5-0.5-0.5-1.4-1.4-1.7c-1-0.3-1.8-0.9-2.8-1.4c-0.1-0.1-0.2-0.1-0.4-0.2c0.2,0.6,0.5,0.9,1,1.2
			C198.2,114.3,199.4,115,200.6,115.7z M194.9,105.4c-0.3-0.5-0.5-0.8-0.7-1.2c0-0.1-0.2-0.1-0.3-0.1c-0.6-0.1-1.2-0.1-1.8-0.2
			c-0.3,0-0.6-0.2-1-0.3c0.4,0.6,0.6,1.1,1.3,1.2c0.4,0,0.7,0.2,1.1,0.3C194,105.2,194.4,105.3,194.9,105.4z M187.7,97.3
			c0.2,0.5,0.3,0.9,0.9,1c0.8,0.1,1.6,0.3,2.5,0.5c-0.2-0.4-0.3-0.7-0.5-1C189.6,98,188.7,97.2,187.7,97.3z M199.7,122.5
			c0,0-0.1,0-0.1,0.1c0.1,0.3,0,0.7,0.2,0.9c0.4,0.5,0.8,0.9,1.2,1.4c0.1,0.2,0.2,0.5,0.4,0.6c0.3,0.2,0.7,0.3,1.1,0.4
			C201.5,124.6,200.6,123.5,199.7,122.5z M200.9,116.9c0.1-0.1,0.1-0.2,0.2-0.2c-1.3-1.2-2.8-1.9-4.3-2.9c0.1,0.6,0.2,0.7,0.6,0.9
			c0.6,0.3,1.1,0.6,1.7,1C199.7,116,200.3,116.4,200.9,116.9z M188.4,118.2c0,0-0.1,0-0.1,0.1c0,0.3-0.1,0.5,0,0.8
			c0,0.1,0.3,0.2,0.5,0.3c0.1,0.1,0.2,0.2,0.3,0.3c0.3,0.4,0.5,0.8,0.9,1.1c0.3,0.2,0.7,0.3,1,0.5c0-0.1,0.1-0.1,0.1-0.2
			C189.8,120.4,189.2,119.2,188.4,118.2z M196.6,108.3c-0.1-0.4-0.3-0.7-0.7-0.6c-0.2,0-0.3,0-0.5-0.1c-0.7-0.1-1.3-0.3-2-0.4
			c0.2,0.4,0.3,0.8,0.8,0.8c0.4,0,0.7,0.1,1.1,0.2C195.8,108.2,196.2,108.3,196.6,108.3z M193.7,126c1,0.1,1.9-0.2,2.3-0.9
			C195.1,124.8,194.4,125.3,193.7,126z M197.4,116.1c0,0,0-0.1,0-0.1c-0.2,0-0.4-0.1-0.6,0c-0.7,0.5-1.3,1-2,1.5
			c0.4,0.1,0.8,0,1.2-0.2C196.5,116.9,196.9,116.5,197.4,116.1z M201,132.1c0.6,0.8,1.4,1.5,1.9,1.7C203,132.9,202,132,201,132.1z
			 M205.4,111.2c0,0,0.1,0,0.1,0c-0.1-0.9-0.3-1.8-0.4-2.8c-0.2,0.2-0.3,0.3-0.4,0.5c-0.1,0.2-0.2,0.4-0.2,0.5
			C204.8,110,205.1,110.6,205.4,111.2z M196.1,115.9c-0.5,0.1-1-0.3-1.3,0.4c-0.1,0.1-0.2,0.2-0.4,0.3c-0.2,0.2-0.4,0.4-0.6,0.6
			C194.3,117.5,195.1,117,196.1,115.9z M194.3,124.9c-0.4,0-0.8-0.1-1,0.1c-0.4,0.2-0.7,0.6-1.1,1
			C192.8,126.2,193.3,126,194.3,124.9z M201.6,122.5c0.6,0.6,1.2,1.2,1.7,1.8c0,0,0.1,0,0.1-0.1c-0.1-0.3-0.1-0.6-0.2-0.8
			c-0.1-0.2-0.4-0.3-0.6-0.5C202.4,122.5,202,122.4,201.6,122.5z M216.2,115.8c-0.3,0-0.7-0.3-0.9,0.2c-0.1,0.1-0.3,0.2-0.4,0.3
			c-0.3,0.2-0.6,0.4-1,0.6C215.1,117.2,215.5,116.3,216.2,115.8z M215.4,125.2c-1-0.1-1.6,0.7-2.4,1
			C214,126.4,214.7,125.7,215.4,125.2z M214.7,126.2c1,0.1,1.6-0.2,2.2-0.9c-0.3-0.2-0.6-0.2-0.9,0
			C215.6,125.5,215.2,125.8,214.7,126.2z M195.7,126c0.7,0.2,1.5-0.1,1.9-0.8C196.9,125,196.2,125.3,195.7,126z M191.8,116.9
			c0.3,0.1,0.6,0.3,0.8,0.2c0.3-0.2,0.6-0.6,0.9-0.9C192.8,115.9,192.2,116.2,191.8,116.9z M211.3,126.3c0.5-0.5,1-0.9,1.4-1.3
			c-0.4,0-0.7-0.2-0.9,0.2c0,0.1-0.2,0.1-0.2,0.1C211.1,125.5,211,125.7,211.3,126.3z M214,125.1c0,0,0-0.1-0.1-0.1
			c-0.9,0.1-1.4,0.7-2.1,1.3c0.2,0,0.4,0.1,0.5,0C212.9,125.9,213.4,125.5,214,125.1z M212.9,116.9c0,0,0,0.1,0,0.1
			c0.2-0.1,0.4-0.1,0.5-0.2c0.2-0.1,0.4-0.3,0.7-0.5c0.3-0.2,0.6-0.4,0.9-0.6c0,0,0-0.1,0-0.1c-0.2,0-0.5,0-0.7,0.1
			C213.9,116,213.4,116.4,212.9,116.9z M192.8,117.3c0.2,0,0.4,0,0.5,0c0.4-0.4,0.8-0.8,1.3-1.3c-0.4,0-0.6,0-0.9,0
			c0,0,0.1,0.1,0.1,0.1C193.5,116.5,193.2,116.9,192.8,117.3z M192.9,91.8c-0.3,0.4-0.6,0.8-0.9,1.2c0.3,0,0.5,0,0.8,0
			c0.2-0.3,0.4-0.6,0.6-0.9C193.2,92,193.1,91.9,192.9,91.8z M198.2,116.3c-0.2,0-0.4,0-0.5,0.1c-0.3,0.2-0.5,0.4-0.7,0.6
			c-0.1,0.1-0.3,0.2-0.5,0.4C197.1,117.5,197.6,117.2,198.2,116.3z M197.2,126.1c0.7,0.2,1.1,0,1.5-0.7
			C198.4,125.2,197.7,125.5,197.2,126.1z M217.2,115.9c0-0.1,0-0.1-0.1-0.2c-0.1,0-0.3,0.1-0.4,0.1c-0.2,0.1-0.4,0.3-0.6,0.5
			c-0.2,0.2-0.5,0.3-0.8,0.5C216.4,117.1,216.7,116.3,217.2,115.9z M221.1,92.3c-0.8-0.3-1.3-0.1-1.7,0.4
			C220.1,93.1,220.5,92.5,221.1,92.3z M194.8,92.6C194.8,92.6,194.8,92.5,194.8,92.6c-0.3-0.2-0.5-0.3-0.8-0.4c-0.1,0-0.2,0-0.3,0
			c-0.2,0.2-0.3,0.5-0.5,0.8C193.8,92.8,194.3,92.7,194.8,92.6z M200.7,125.2c-0.3-0.5-0.7-1-1-1.5
			C199.5,124.7,199.8,125.1,200.7,125.2z M198.5,126.1c0.8,0.2,1,0.1,1.4-0.5C199.3,125.3,199.3,125.3,198.5,126.1z M192.8,125
			c-0.8-0.3-0.9,0.5-1.4,0.8c0.2,0.1,0.5,0.2,0.6,0.1C192.3,125.6,192.5,125.3,192.8,125z M197.1,114.6c0.1,1.2,1.1,0.9,1.7,1.3
			c0,0,0-0.1,0.1-0.1C198.3,115.4,197.7,115,197.1,114.6z M216.5,116.8c0.8,0.3,1.1-0.3,1.5-0.8c-0.2-0.1-0.4-0.1-0.5,0
			C217.2,116.3,216.9,116.6,216.5,116.8z M219.3,126.3c0,0,0-0.1,0-0.1c-0.4-0.2-0.8-0.3-1.2-0.5c-0.1,0.2-0.3,0.4-0.4,0.6
			C218.3,126.3,218.8,126.3,219.3,126.3z M188.3,119.4c-0.3,0.7,0.2,1.3,1,1.2C188.9,120.2,188.6,119.8,188.3,119.4z M185.6,92.3
			C185.6,92.3,185.6,92.3,185.6,92.3c0.4,0.2,0.8,0.3,1.2,0.4c0.1-0.2,0.3-0.4,0.5-0.7C186.6,92.1,186.1,92.2,185.6,92.3z
			 M200.3,140.7c-0.3-0.5-0.6-0.9-0.9-1.4C199.3,140.5,199.2,140.2,200.3,140.7z M199.1,116.7c-0.4-0.3-0.4-0.2-1.1,0.6
			C198.6,117.4,198.7,117.3,199.1,116.7z M216.6,126.1c0.6,0.2,1-0.1,1.4-0.6c-0.2-0.1-0.5-0.2-0.6-0.1
			C217.1,125.6,216.9,125.9,216.6,126.1z M200.9,125.9c-0.6-0.3-0.6-0.3-1.2,0.3C200.2,126.3,200.6,126.4,200.9,125.9z M191.6,124.9
			c-0.7-0.2-0.5-0.1-1.1,0.5C191,125.6,191.2,125.6,191.6,124.9z M199.2,117.2c0.4,0,0.8,0,1.2,0
			C199.9,116.7,199.5,116.7,199.2,117.2z M190.8,126.2c0.4,0.3,0.8,0.6,1.2,0.9C192.1,126.5,191.7,126.2,190.8,126.2z M219.4,92.1
			c-0.6-0.1-1,0.1-1.5,0.4C218.3,92.6,219,92.5,219.4,92.1z M190.7,124.8c-0.4,0-0.8-0.2-1,0.2C190.1,125.4,190.4,125.2,190.7,124.8
			z M217.9,116.8c0.4,0.1,0.8,0.2,1-0.3C218.3,116.1,218.2,116.7,217.9,116.8z M202.6,126.5c-1-0.5-1.2-0.6-1.5-0.2
			C201.5,126.4,202,126.4,202.6,126.5z M218.9,116.8c0.4,0.1,0.7,0.1,1.1,0.2C219.3,116.4,219.2,116.4,218.9,116.8z M191.9,116.2
			c-0.4-0.1-0.7,0.1-0.9,0.4C191.5,116.8,191.7,116.5,191.9,116.2z M216.9,92.1c0.6,0.4,0.7,0.4,1.1-0.2
			C217.6,92,217.3,92.1,216.9,92.1z M221.8,92.4c-0.4,0.2-0.8,0.4-1.2,0.5C221.2,93,221.5,92.9,221.8,92.4z M221.9,92.9
			c0.3,0,0.6,0,0.9,0c0,0,0,0,0-0.1c-0.2-0.1-0.5-0.2-0.8-0.4C222,92.7,221.9,92.8,221.9,92.9z M211,125.2c0,0,0.1,0,0.1,0.1
			c0.2-0.1,0.3-0.2,0.5-0.4c0,0,0-0.1,0-0.1c-0.2,0-0.3,0-0.4,0.1C211,124.9,211,125.1,211,125.2z M189.7,116.1
			c0.7,0.4,0.9,0.4,1.1,0.1C190.5,116.2,190.1,116.1,189.7,116.1z M202.3,132.2c0.2,0.2,0.4,0.3,0.6,0.5
			C202.9,132.1,202.9,132.1,202.3,132.2z"/>
		<path d="M216.9,94.2c-0.2-0.4-0.3-0.7-0.5-1.1C216.9,93.4,217.1,93.7,216.9,94.2z"/>
	</g>
	<path d="M117.3,134.5c-1.6-1.4-3.1-3-4.9-4.2c-0.4-0.2-0.8-0.5-1.2-0.8c-0.5-0.3-0.9-0.5-1.4-0.7c-0.7-0.3-1.2-0.2-1.8,0.3
		c-1.3,1.1-2.6,2-4.1,2.6c-2,0.9-4,1.7-6.2,1.3c-1.7-0.3-3.5-0.7-5.2-1.2c-2.8-0.9-3.7-3.3-4.3-6c0.2,0,0.4,0,0.6,0
		c5.9,0,11.8,0,17.8-0.1c0.2,0,0.6-0.2,0.7-0.4c0.6-1.3,1.2-2.7,1.8-4c0.1-0.3,0.1-0.6-0.2-0.8c-0.3-0.3-0.6-0.6-1-0.8
		c-0.6-0.6-1.2-1.1-1.9-1.7c-0.1-0.1-0.4-0.2-0.6-0.2c-0.8,0-1.5,0.1-2.3,0.1c-1.5,0-3.1,0.1-4.6,0.1c-2.9,0-5.8-0.1-8.7-0.2
		c-0.8,0-1.5,0-2.4,0c0.1-0.5,0.4-0.8,0.8-0.9c0.3,0,0.6-0.1,0.9-0.1c1.8,0,3.6,0.1,5.4,0.1c5.4,0,10.8,0.1,16.1,0.1
		c0.9,0,1.3-0.2,1.6-1.1c0.1-0.2,0.1-0.4,0.2-0.7c0.3-0.9,0.7-1.8,1-2.6c0.2-0.5,0.2-0.8-0.3-1.1c-0.4-0.3-0.8-0.6-1.1-0.9
		c-1-1.3-2.2-1.6-3.9-1.6c-3,0.1-6.1-0.1-9.1-0.2c-3,0-6.1,0-9.1-0.1c-0.3,0-0.6,0-1-0.1c0.5-0.7,0.8-1.3,1.3-1.8
		c1.5-2,3.3-3.6,5.8-4.4c2.7-0.8,5.4-1.1,8.2-0.7c3.3,0.5,6.3,1.5,8.8,3.9c0.1,0.1,0.2,0.2,0.3,0.3c0.6,0.5,0.7,0.5,1.1-0.1
		c1.1-1.5,2-3.2,2.7-4.9c0.2-0.5,0.1-0.8-0.2-1.2c-1.2-1.2-2.4-2.4-3.9-3.2c-0.6-0.4-1.2-0.8-1.9-1.1c-5.2-3.1-10.7-4.6-16.7-3.6
		c-3,0.5-5.9,1.2-8.6,2.7c-5.6,3.1-9,7.9-10.6,14.1c-0.1,0.2-0.1,0.4-0.4,0.4c-1.1,0-2.3,0.1-3.4,0.1c-0.9,0-1.5,0.3-2,1
		c-0.9,1.1-1.4,2.5-2,3.8c-0.1,0.2,0,0.6,0.1,0.8c1,1.1,1.8,2.6,3.6,2.9c-0.1,0.1-0.2,0.2-0.3,0.2c-1.3,1.2-1.8,2.8-2.4,4.4
		c-0.1,0.3-0.1,0.7,0.1,0.9c0.8,1.3,2.1,2,3.4,2.6c0.3,0.1,0.7,0.1,1.1,0.1c0.7,0,1.3-0.1,2-0.2c0.8-0.1,0.7-0.2,0.9,0.6
		c0.5,1.8,1.4,3.4,2.6,4.9c2.3,3.1,5.1,5.8,8.1,8.2c2,1.6,4.3,2.7,6.8,3.2c1.5,0.3,3.1,0.4,4.6,0.7c2.6,0.4,5.1,0.4,7.7-0.3
		c3.6-1,6.8-2.9,9.9-5c0.6-0.4,1.1-1,1.5-1.6C117.9,135.5,117.8,135,117.3,134.5z M110.1,129.7c0.9,0.6,1.8,1.1,2.8,1.7
		c-1.2-0.1-2.1-0.7-2.8-1.6C110,129.8,110.1,129.7,110.1,129.7z M111.2,131.6c-0.5,0.4-1,0.8-1.5,1.2c0,0,0,0-0.1-0.1
		c0.2-0.5,0.5-1.1,0.8-1.7C110.7,131.2,110.9,131.4,111.2,131.6z M109.8,131.1c-0.4,0.7-0.6,1.5-1,2.1c-0.3,0.4-0.8,0.6-1.3,0.8
		c0,0,0-0.1,0-0.1c0.7-1.2,1.4-2.5,2.1-3.8C109.9,130.5,110.1,130.7,109.8,131.1z M107.8,130.1c0.2-0.3,0.6-0.5,0.9-0.8
		c0.6,0.3,0.6,0.7,0.3,1.1c-0.5,0.8-0.9,1.7-1.3,2.6c-0.6,1.4-1.7,1.9-3.1,2.3c1.2-1.3,2.1-2.8,2.9-4.3
		C107.6,130.7,107.6,130.3,107.8,130.1z M107,130.5C107.1,130.5,107.1,130.6,107,130.5c0,0.2,0,0.3-0.1,0.5c-0.8,1.5-1.8,3-2.9,4.3
		c-0.1,0.1-0.1,0.2-0.2,0.2c-0.7,0.1-1.4,0.2-2.2,0.4c0-0.1,0-0.1-0.1-0.2c0.3-0.3,0.5-0.5,0.8-0.8c1.3-1.1,2.5-2.3,3.5-3.6
		C106.2,131,106.7,130.8,107,130.5z M103.5,132.6c0.3-0.2,0.7-0.4,1.1-0.6c0,0,0.1,0.1,0.1,0.1c-0.5,0.5-0.9,1-1.4,1.4
		c-0.7,0.7-1.4,1.4-2.1,2c-0.1,0.1-0.3,0.2-0.4,0.2c-0.3,0-0.6-0.1-1.1-0.1c1.1-0.9,2.2-1.6,3.2-2.4
		C103.2,133.1,103.3,132.8,103.5,132.6z M102.4,133.1c-0.5,0.4-1.1,0.9-1.6,1.3c-0.2,0.2-0.5,0.3-0.7,0.6c-0.5,0.7-1.1,0.7-1.9,0.3
		c0.6-0.4,1.4-0.8,1.9-1.3C100.8,133.3,101.6,133.3,102.4,133.1z M99.6,133.7C99.6,133.7,99.6,133.7,99.6,133.7
		c-0.5,0.5-1,0.9-1.5,1.3c-0.5,0.4-1,0.2-1.4,0c0.6-0.4,1.2-0.8,1.8-1.1C98.8,133.6,99.2,133.7,99.6,133.7z M97.7,133.8
		c-0.3,0.2-0.5,0.3-0.8,0.5c-0.6,0.6-1.2,0.4-1.8,0c0.4-0.1,0.9-0.2,1.2-0.5C96.7,133.4,97.2,133.7,97.7,133.8z M96.2,133.6
		c-0.6,0.2-1.1,0.5-1.6,0.6c-0.1,0-0.3-0.1-0.5-0.2C94.7,133.4,95.4,133.3,96.2,133.6z M92.1,132.4c0.8,0.2,1.6,0.5,2.5,0.7
		c-0.4,0.4-1,0.5-1.4,0.2c-0.2-0.2-0.5-0.4-0.7-0.6C92.3,132.7,92.2,132.6,92.1,132.4C92.1,132.5,92.1,132.5,92.1,132.4z
		 M105.7,118.4c0.5,0.5,1,1,1.5,1.5c-0.6,0.6-1.1,1-2,0.8c0.2-0.2,0.4-0.4,0.6-0.6c0.2-0.2,0.3-0.4,0.5-0.6c-0.1,0-0.1-0.1-0.2-0.1
		c-0.2,0.2-0.5,0.3-0.6,0.5c-0.5,1-1.4,1-2.3,0.9c0,0,0,0,0-0.1C103.9,119.9,104.8,119.2,105.7,118.4z M103.6,118.6
		c0.3-0.2,0.8-0.1,1.2-0.2c0,0,0,0.1,0.1,0.1c-0.8,0.7-1.5,1.4-2.3,2.1c-0.1,0.1-0.2,0-0.3,0c-0.4,0-0.9-0.1-1.4-0.1
		c0-0.1,0-0.1,0-0.1C101.8,119.9,102.6,119.2,103.6,118.6z M102.5,118.7c-0.7,0.6-1.4,1.2-2.1,1.8c-0.1,0.1-0.2,0.1-0.3,0.1
		c-0.4,0-0.9,0-1.4-0.1C99.8,119.4,100.8,118.3,102.5,118.7z M98.2,119.2c0.5-0.6,1.1-0.5,1.7-0.5c-0.5,0.6-1,1.1-1.5,1.6
		c-0.1,0.1-0.4,0.2-0.6,0.2c-0.4,0-0.8,0-1.1,0c0,0,0-0.1,0-0.1c0.1-0.1,0.3-0.2,0.4-0.3C97.4,119.9,97.9,119.6,98.2,119.2z
		 M94.4,118.5c1.2,0.1,2.3,0.1,3.5,0.2c0,0,0.1,0.1,0.1,0.1c-0.6,0.4-1.2,0.9-1.7,1.3c-0.6,0.6-1.4,0.4-2.2,0.4c0.7-0.7,1.6-1,2-1.8
		c0-0.1-0.1-0.1-0.1-0.2c-0.2,0.1-0.5,0.3-0.7,0.4c-0.5,0.4-1,0.8-1.5,1.2c-0.2,0.2-0.5,0.2-0.8,0.3c-0.3,0-0.7,0-1.1,0
		c0,0,0-0.1-0.1-0.1c0.8-0.6,1.5-1.2,2.3-1.9C94.3,118.5,94.4,118.5,94.4,118.5z M93.4,118.4c0,0,0,0.1,0,0.1
		c-0.6,0.6-1.2,1.2-1.9,1.7c-0.2,0.2-0.6,0.2-0.9,0.3c-0.3,0-0.6,0-0.9,0c0.9-0.7,1.7-1.4,2.6-2C92.6,118.3,93,118.4,93.4,118.4z
		 M90.2,118.6c0.4-0.2,0.9-0.1,1.4-0.2c0,0.1,0,0.1,0.1,0.2c-0.8,0.6-1.6,1.3-2.5,1.8c-0.4,0.2-1,0.1-1.5,0.2c0,0,0-0.1,0-0.1
		c0.2-0.1,0.4-0.3,0.5-0.4C88.8,119.5,89.5,118.9,90.2,118.6z M89.6,118.5c-0.8,0.6-1.5,1.1-2.3,1.8c0-0.3-0.1-0.6-0.1-0.9
		C88,119.2,88.5,118.1,89.6,118.5z M88,118.4c-0.3,0.2-0.5,0.4-0.8,0.6c0-0.3,0.1-0.4,0.1-0.6C87.6,118.4,87.7,118.4,88,118.4z
		 M110.1,109.7c0.7,0.6,1.5,1.3,2.3,1.9c-0.6,0.1-1.1,0.1-1.6,0.2c0.2-0.2,0.4-0.4,0.6-0.6c0-0.1-0.1-0.1-0.1-0.2
		c-0.7,0.4-1.3,1.2-2.2,0.7c0.5-0.5,1.4-0.6,1.8-1.3c0,0-0.1-0.1-0.1-0.1c-0.2,0.1-0.4,0.2-0.6,0.3c-0.6,0.4-1.1,0.9-1.7,1.2
		c-0.4,0.2-0.9,0-1.5,0c0.6-0.4,1-0.7,1.5-1c0.5-0.4,0.9-0.8,1.4-1.1C109.7,109.6,110,109.6,110.1,109.7z M108.5,109.7
		c0.3,0,0.6,0,0.8,0c-0.8,0.6-1.7,1.2-2.5,1.8c-0.4,0.3-0.8,0.4-1.2,0.3c-0.3,0-0.6,0-1-0.1c0.7-0.5,1.3-0.9,1.9-1.3
		C107,109.9,107.7,109.7,108.5,109.7z M106.3,109.7c0,0.1,0,0.1,0,0.2c-0.7,0.6-1.4,1.2-2.2,1.8c-0.1,0.1-0.4,0.1-0.6,0.1
		c-0.3,0-0.6-0.1-1.1-0.1c0.3-0.2,0.5-0.2,0.6-0.4c0.7-0.5,1.3-1,2-1.3C105.4,109.8,105.9,109.8,106.3,109.7z M103,109.7
		c0.5,0,1,0,1.5,0c0,0.1,0,0.1,0,0.2c-0.9,0.6-1.7,1.2-2.7,1.6c-0.4,0.2-1,0-1.6,0c0.5-0.3,1-0.6,1.5-0.9c0.3-0.2,0.6-0.5,1-0.8
		C102.8,109.8,102.9,109.7,103,109.7z M98.3,109.6c1.3,0,2.5,0.1,3.8,0.1c0,0,0.1,0,0.2,0.1c-1,0.6-1.9,1.2-2.8,1.7
		c-0.3,0.2-0.8,0.1-1.3,0c0.8-0.5,1.6-1,2.5-1.5c0-0.1-0.1-0.1-0.1-0.2c-0.3,0.1-0.5,0.1-0.8,0.2c-0.7,0.4-1.3,0.8-2,1.2
		c-0.3,0.2-0.7,0.4-1.1,0.4c-0.5,0-1.1,0-1.7,0c0,0,0-0.1,0-0.1c0.5-0.3,1-0.6,1.4-0.9c0.5-0.3,1-0.6,1.5-1
		C98.1,109.6,98.2,109.6,98.3,109.6z M97.4,109.6c-0.9,0.6-1.8,1.2-2.7,1.8c-0.6,0.4-1.2,0.2-1.9,0.2c0.9-0.6,1.8-1,2.5-1.6
		C96,109.4,96.7,109.6,97.4,109.6z M95.2,109.6c-0.2,0.1-0.3,0.2-0.5,0.3c-0.3,0.2-0.7,0.4-1,0.6c-1,0.8-2,1.2-3.3,0.9
		c0.6-0.3,1.1-0.7,1.7-1c0.2-0.1,0.4-0.2,0.5-0.3C93.2,109.3,94.2,109.6,95.2,109.6z M90.2,109.4c0.8,0,1.5,0.1,2.4,0.1
		c-1,0.7-1.9,1.3-2.8,1.9c-0.3,0.2-0.7,0.2-1,0.2c0.7-0.7,1.7-0.9,2.3-1.7c-1.1,0.2-1.9,1-2.9,1.4c0-0.4,0.1-0.7,0.5-0.9
		c0.5-0.3,1-0.6,1.5-1C90.1,109.5,90.2,109.4,90.2,109.4z M89.8,109.5c-0.4,0.2-0.8,0.4-1.1,0.6C88.9,109.4,88.9,109.4,89.8,109.5z
		 M112.7,97.1C112.7,97.1,112.7,97.1,112.7,97.1c-0.4-0.1-0.8-0.1-0.8-0.8C112.3,96.6,112.5,96.8,112.7,97.1z M111.4,96.5
		c-0.9-0.3-1.6-0.6-2.1-1.5C111,95.8,111,95.8,111.4,96.5z M109.3,95.7c-0.5-0.1-0.9-0.2-1.1-0.7c-0.2-0.4-0.7-0.6-1-1
		C108.2,94.1,108.7,94.9,109.3,95.7z M106.9,94c0.2,0.4,0.6,0.7,1,1.2c-0.5-0.1-0.9-0.2-1.2-0.3c-0.3-0.5-0.6-1-0.8-1.5
		C106.2,93.5,106.6,93.6,106.9,94z M105.4,93.4c0.3,0.4,0.4,0.8,0.7,1.4c-0.4-0.1-0.7-0.1-1-0.2c-0.1,0-0.2-0.1-0.2-0.1
		c-0.3-0.5-0.5-1-0.8-1.5C104.5,93,105.1,92.9,105.4,93.4z M104.3,94.4c-0.3,0-0.7-0.1-1-0.1c-0.1,0-0.2,0-0.2-0.1
		c-0.4-0.6-0.8-1.1-1.1-1.7C103.4,92.3,103.9,93.3,104.3,94.4z M101.4,92.4c0.1,0,0.2,0.1,0.3,0.2c0.3,0.5,0.6,1.1,0.9,1.6
		c-0.3,0-0.6,0-1,0c-0.1,0-0.2-0.1-0.3-0.3c-0.3-0.4-0.5-0.8-0.8-1.2c-0.1-0.2-0.3-0.2-0.4-0.4c0,0-0.1,0.1-0.1,0.1
		c0.3,0.5,0.6,1.1,0.9,1.6c-0.9,0.2-0.9,0.2-1.4-0.5c-0.2-0.3-0.3-0.6-0.5-0.9c-0.1-0.2-0.3-0.4-0.4-0.5c0,0-0.1,0.1-0.1,0.1
		c0.3,0.6,0.5,1.2,0.8,1.9c-0.4,0.1-0.8,0.1-1.3,0.2c-0.3-0.8-0.6-1.5-0.9-2.3C98.6,92.2,100,92.3,101.4,92.4z M96.7,92.3
		c0.3,0.8,0.5,1.5,0.8,2.3c-0.5,0.1-1,0.2-1.5,0.3c-0.3-0.8-0.6-1.6-0.9-2.4C95.7,92.4,96.2,92.3,96.7,92.3z M93,92.8
		c0.3,0.7,0.5,1.3,0.8,1.9c0.1,0.1,0.2,0.2,0.4,0.3c0-0.1,0.1-0.3,0-0.4c-0.3-0.6-0.5-1.2-0.8-1.9c0.5-0.1,0.9-0.2,1.4-0.3
		c0.3,0.8,0.5,1.6,0.8,2.4c-0.8,0.2-1.7,0.4-2.6,0.7c-0.3-0.8-0.6-1.6-1-2.5C92.3,93,92.6,92.9,93,92.8z M91.6,93.2
		c0.3,0.9,0.6,1.7,0.9,2.6c-0.4,0.1-0.7,0.2-0.9,0.3c-0.3-0.9-0.7-1.7-1-2.6C91,93.4,91.3,93.3,91.6,93.2z M90.3,93.6
		c0.3,0.9,0.6,1.7,1,2.6c-0.3,0.1-0.6,0.2-1,0.4c-0.3-0.9-0.7-1.8-1-2.7C89.5,93.8,89.9,93.7,90.3,93.6z M88.8,94.1
		c0.3,1,0.6,1.9,0.9,2.8c-0.4,0.2-0.7,0.4-1.1,0.6c-0.4-1-0.8-1.9-1.2-2.9C87.9,94.4,88.3,94.2,88.8,94.1z M86.5,95
		c0.2-0.1,0.5-0.2,0.7-0.4c0.3,0.9,0.5,1.8,0.8,2.7c0.1,0.4,0,0.6-0.3,0.8c-0.2,0.1-0.3,0.2-0.6,0.4c-0.3-1.1-0.6-2-0.9-3
		C86.2,95.3,86.3,95.1,86.5,95z M85.9,95.5c0.3,0.9,0.5,1.8,0.8,2.7c0.2,0.7,0.2,0.7-0.4,1.2c-0.2-0.7-0.5-1.4-0.7-2.1
		c-0.1-0.2-0.1-0.4-0.2-0.6C85.1,95.9,85.1,95.9,85.9,95.5z M84.8,96.2c0.1,0.3,0.1,0.5,0.2,0.8c0.2,0.7,0.4,1.5,0.6,2.2
		c0.1,0.4,0.2,0.7-0.2,0.9c-0.1,0.1-0.3,0.2-0.3,0.3c-0.1-0.4-0.2-0.8-0.3-1.2c-0.2-0.6-0.4-1.2-0.6-1.8
		C84.1,96.6,84.1,96.6,84.8,96.2z M83,97.6c0.2-0.2,0.5-0.4,0.7-0.6c0.3,1.2,0.7,2.4,1,3.7c-0.2,0.1-0.4,0.4-0.7,0.7
		c-0.4-1.2-0.7-2.3-1.1-3.4C83,97.8,83,97.7,83,97.6z M82.1,98.5c0.1-0.2,0.3-0.3,0.6-0.6c0.1,0.5,0.3,1,0.4,1.5
		c0.2,0.7,0.4,1.4,0.6,2c0,0.1,0,0.3,0,0.3c-0.3,0.3-0.5,0.5-0.9,0.9c-0.3-1.3-0.6-2.5-0.8-3.7C81.9,98.8,82,98.6,82.1,98.5z
		 M80.8,99.9c0.2-0.2,0.4-0.5,0.6-0.7c0.3,1.3,0.7,2.5,1,3.9c-0.2,0.2-0.4,0.5-0.7,0.8c-0.1,0-0.1,0-0.2,0c-0.3-1.2-0.7-2.3-1-3.5
		C80.6,100.2,80.7,100,80.8,99.9z M79.6,101.3c0.2-0.3,0.4-0.5,0.6-0.7c0.4,1.2,0.8,2.4,1.1,3.6c0,0.1,0,0.2,0,0.3
		c-0.3,0.4-0.5,0.9-0.9,1.4c-0.6-1.3-0.9-2.6-1.1-4C79.4,101.6,79.5,101.4,79.6,101.3z M79.1,102.1c0.1,0.6,0.2,1.1,0.3,1.6
		c0.2,0.8,0.4,1.6,0.6,2.3c0.1,0.4,0.1,0.7-0.1,1.1c-0.2,0.3-0.3,0.6-0.4,1c0,0-0.1,0-0.1,0c-0.3-1.3-0.6-2.7-1-4
		C78.2,103.2,78.6,102.7,79.1,102.1z M77.4,105.1c0.2-0.4,0.4-0.9,0.6-1.3c0.4,1.6,0.8,3.1,1.3,4.7c0,0.1,0,0.2,0,0.3
		c-0.2,0.5-0.3,0.9-0.5,1.5c-0.3-0.8-0.5-1.5-0.8-2.3c-0.2-0.7-0.4-1.3-0.6-2C77.2,105.6,77.2,105.4,77.4,105.1z M77.1,106
		c0.1,0.4,0.3,0.8,0.4,1.2c0.3,1.1,0.7,2.2,1,3.4c0.1,0.2,0,0.5,0.1,0.8c-0.1,0-0.1,0-0.2,0.1c-0.2-0.3-0.3-0.5-0.5-0.8
		c-0.3-0.8-0.6-1.7-1-2.4C76.4,107.4,76.6,106.7,77.1,106z M77.3,111.2c0.1,0.1,0.2,0.2,0.4,0.4c-0.5,0-0.9,0.1-1.2,0.1
		c0,0,0,0,0-0.1C76.8,111.6,77,111.4,77.3,111.2z M75.2,111.8c0.5-0.4,0.9-0.8,1.5-1.2c0.1,0.1,0.3,0.3,0.5,0.5
		C76.4,111.2,76,111.9,75.2,111.8z M76.3,107.8c0.3,0.8,0.6,1.5,0.9,2.4C75.9,109.5,75.7,108.9,76.3,107.8z M75.8,109.9
		c0.1,0.1,0.3,0.2,0.5,0.4c-0.6,0.5-1.2,1-1.8,1.4c-0.3,0.2-0.6,0.2-0.9,0C74.4,111.1,75.1,110.5,75.8,109.9z M75.4,109.7
		c-0.7,0.6-1.4,1.2-2.1,1.8c-0.2-0.2-0.3-0.3-0.5-0.5c0.3-0.3,0.8-0.5,1-0.9C74.2,109.5,74.8,109.6,75.4,109.7z M73.7,109.7
		c-0.4,0.4-0.7,0.7-1,0.9c-0.1,0.1-0.2,0-0.3,0c0-0.1,0-0.1,0-0.2C72.8,110.3,73,109.7,73.7,109.7z M72.5,109.8
		C72.6,109.8,72.6,109.8,72.5,109.8c-0.1,0.2-0.2,0.4-0.4,0.5c-0.2-0.1-0.3-0.3-0.5-0.5C72,109.8,72.2,109.8,72.5,109.8z
		 M68.5,113.6c0.2,0.5,0.3,1,0.5,1.5C68.3,114.6,68.2,114.2,68.5,113.6z M70.4,116.5c-0.2-0.3-0.6-0.5-0.7-0.8
		c-0.3-0.7-0.6-1.5-0.9-2.2c-0.2-0.5,0-0.8,0.3-1.2C69.6,113.7,70,115.1,70.4,116.5C70.5,116.5,70.4,116.5,70.4,116.5z M70.9,116.1
		c-0.1,0-0.1,0-0.2,0c-0.2-0.7-0.5-1.4-0.7-2c-0.2-0.6-0.4-1.1-0.6-1.6c-0.1-0.3-0.1-0.6,0.1-0.9c0.4-0.6,0.9-1.1,1.3-1.8
		c0.8,0.9,1.5,1.7,2.3,2.5c0.1,0,0.1-0.1,0.2-0.1c-0.2,0.1-0.3,0.3-0.5,0.4c-0.2-0.4-0.4-0.8-0.7-1.3c-0.2,0.7,0.7,1.3,0.1,2
		c-0.4-1.1-0.7-2.1-1.1-3.1c-0.1,0-0.1,0-0.2,0c0,0.1,0,0.2,0,0.2c0.3,0.9,0.6,1.9,0.9,2.8c0.1,0.3,0.1,0.5,0,0.7
		c-0.1,0.2-0.2,0.5-0.4,0.7c-0.4-1.3-0.8-2.6-1.3-3.8c0,0-0.1,0-0.1,0c0,0.1,0,0.3,0,0.4c0.3,1.2,0.7,2.5,1,3.8
		C71.2,115.4,71,115.8,70.9,116.1z M71.7,118.2c0.6,0.3,1,0.7,1.1,1.4c0.1,0.5,0.2,1,0.4,1.4c0.3,0.5,0,0.9-0.3,1.3
		c-0.5-1.2-0.9-2.4-1.4-3.6C71.4,118.6,71.6,118.4,71.7,118.2z M76.7,119.1c-0.7-0.5-0.9-0.7-1.2-1.8c0.3-0.2,0.5-0.1,0.6,0.2
		c0,0.1,0.1,0.1,0.1,0.2C76.3,118.1,76.5,118.6,76.7,119.1z M76.3,117.2c0.4-0.1,0.6-0.1,0.7,0.4c0.1,0.4,0.2,0.8,0.4,1.2
		c-0.1,0-0.1,0-0.2,0.1C76.8,118.3,76.5,117.8,76.3,117.2z M76.7,119.8c0,0,0,0.1-0.1,0.1c-0.4,0-0.8,0.1-1.1,0.1c0,0,0-0.1-0.1-0.1
		c0.2-0.2,0.4-0.5,0.6-0.5C76.3,119.4,76.5,119.7,76.7,119.8z M75.8,119c-0.2,0.3-0.4,0.5-0.6,0.8c-0.2-0.1-0.3-0.2-0.5-0.3
		c0.2-0.4,0.3-0.7,0.5-1C75.4,118.6,75.6,118.8,75.8,119z M74.5,119.3c-0.2-0.2-0.5-0.3-0.7-0.5c0.3-0.3,0.5-0.6,0.7-0.9
		C75,118.1,75,118.2,74.5,119.3z M73.5,118.5c0,0-0.2,0.1-0.2,0c-0.1-0.1-0.1-0.2-0.1-0.2c0.1-0.4,0.4-0.5,0.8-0.4
		C73.8,118.2,73.7,118.4,73.5,118.5z M73.6,121c-0.2-0.6-0.4-1.2-0.7-1.8C73.8,119.6,74.2,120.6,73.6,121z M71.2,118.9
		c0,0.1,0.1,0.3,0.1,0.4c0.4,1,0.9,2.1,1.3,3.1c0,0.1,0.1,0.2,0,0.3c-0.1,0.3-0.2,0.5-0.3,0.8c-0.1-0.3-0.2-0.5-0.3-0.7
		c-0.4-0.9-0.8-1.8-1.1-2.8C70.7,119.6,70.7,119.3,71.2,118.9z M69.7,123.5c-0.1-0.3-0.3-0.7-0.4-1c0.1,0,0.1,0,0.2-0.1
		c0.1,0.3,0.2,0.7,0.4,1C69.9,123.5,69.8,123.5,69.7,123.5z M70.2,123.2c-0.2-0.3-0.3-0.7-0.4-1c-0.2-0.3-0.2-0.7,0.1-1
		c0.2,0.5,0.5,1.1,0.7,1.6c0.2,0.5,0.4,1,0.7,1.6C70.6,124.2,70.5,123.6,70.2,123.2z M71.8,124.5c-0.1,0-0.1,0-0.1-0.1
		c-0.5-1.2-1-2.3-1.5-3.5c-0.1-0.2,0.1-0.6,0.2-0.9c0,0,0.1,0,0.1,0c0.4,1.3,0.8,2.6,1.6,3.8C72,124.1,71.9,124.3,71.8,124.5z
		 M76.9,125.6c0.3,0.4,0.5,0.7,0.8,1.1c0.4,0.5,0.9,1,1.3,1.5c0.2,0.2,0.2,0.5,0.3,0.7C77.8,127.9,77,126.8,76.9,125.6z M77.1,125.4
		c0.8-0.3,1.3,0.3,1.5,1.9C78.1,126.6,77.6,126,77.1,125.4z M78.2,128.7c0.4,0.2,0.8,0.4,1.2,0.6c0.1,0.1,0.1,0.3,0.2,0.4
		c0.1,0.2,0.2,0.4,0.2,0.7C79.1,130.1,78.5,129.5,78.2,128.7z M79.4,130.7c0.1,0,0.1-0.1,0.2-0.1c0.2,0.2,0.5,0.4,0.7,0.7
		c0.4,0.6,0.7,1.2,1,1.8C80.6,132.3,80,131.5,79.4,130.7z M116.8,136.1c-0.4,0.4-0.8,0.8-1.2,1.1c-3.1,2.2-6.4,3.9-10.1,4.9
		c-2,0.6-4.1,0.6-6.1,0.4c-2.4-0.2-4.8-0.5-7.2-1.3c-4.3-1.5-7.5-4.3-10-8c-1.1-1.7-2.1-3.4-2.6-5.3c-0.1-0.5-0.2-1.1-0.3-1.6
		c-0.1-0.3-0.1-0.5-0.2-0.8c-0.2-0.8-0.5-0.9-1.3-0.8c-0.8,0.1-1.6,0.1-2.4,0.2c-0.7,0.1-1.4,0.2-2.1,0.3c-0.2,0-0.4,0.1-0.6,0.1
		c-0.3,0-0.4-0.1-0.3-0.4c0.7-1.3,1.2-2.7,2.2-3.8c0.2-0.2,0.4-0.3,0.6-0.3c0.7-0.1,1.5-0.1,2.2-0.1c0.3,0,0.3-0.1,0.3-0.3
		c0-0.4,0-0.7,0-1.1c0.1-0.9,0.2-1.7,0.3-2.7c-0.1,0-0.3,0-0.5,0c-1.4,0.1-2.8,0.1-4.1,0.2c-0.6,0-1.1,0.2-1.7,0.3
		c-0.2,0-0.3-0.1-0.5-0.1c0-0.2,0-0.4,0.1-0.5c0.6-1,1.1-2.1,1.7-3.1c0.4-0.6,0.9-0.9,1.7-0.9c1.2,0,2.4-0.1,3.6-0.1
		c0.3,0,0.4-0.2,0.5-0.5c0.7-2.3,1.5-4.5,2.8-6.6c1.8-2.8,4.2-5.1,7-7c0.6-0.4,1.3-0.8,2-1.1c4-1.5,8.2-2.5,12.6-2.2
		c3.3,0.3,6.4,1,9.3,2.8c0.8,0.5,1.6,0.8,2.4,1.3c0.7,0.4,1.4,0.9,2,1.4c0.1,0.1,0.1,0.3,0.1,0.4c-0.6,1.5-1.4,3-2.3,4.3
		c-0.1,0.1-0.2,0.2-0.2,0.3c0,0-0.1,0.1-0.2,0.1c-0.5-0.4-0.9-0.8-1.4-1.1c-2.6-1.7-5.4-2.8-8.5-3.1c-1.5-0.2-3.1-0.5-4.6-0.1
		c-1.5,0.4-3,0.7-4.5,1.3c-2.6,1-4.4,2.9-5.9,5.2c-0.5,0.8-1,1.7-1.5,2.6c-0.1,0.3-0.2,0.5-0.3,0.8c-0.1,0.6,0.1,0.9,0.7,1
		c0.4,0.1,0.8,0,1.2,0c1.3,0,2.6-0.1,3.9-0.1c3.5,0,7.1,0.1,10.6,0.2c2.5,0,4.9,0.1,7.4,0.1c0.6,0,1.2-0.1,1.8-0.1
		c-0.5,1.2-1.1,2.4-1.6,3.6c-0.2,0.4-0.6,0.4-1,0.5c-1.6,0.1-3.3,0.2-4.9,0.2c-4.5,0-9,0-13.5-0.1c-1.2,0-2.4-0.1-3.7-0.1
		c-1.2,0-1.6,0.4-1.7,1.5c-0.1,0.7,0,1.5,0,2.2c0,0.6,0.3,0.9,0.9,1c0.3,0.1,0.6,0.1,0.9,0.1c4,0.1,7.9,0.1,11.9,0.2
		c2.7,0.1,5.3,0.1,7.9-0.2c-0.4,1.1-0.8,2.1-1.1,3.2c-0.3,0.8-0.3,0.8-1.1,0.9c-5.3,0.3-10.6,0.1-15.9,0.1c-0.7,0-1.5,0-2.2,0
		c-0.1,0-0.1,0-0.2,0c0.1,1.3,0.4,2.5,0.9,3.7c1.6,3.4,4.1,5.6,7.7,6.5c1.2,0.3,2.5,0.6,3.8,0.8c2.1,0.3,4-0.2,5.9-1
		c1.3-0.5,2.5-1.2,3.6-2c0.4-0.3,0.9-0.6,1.3-0.9c0.6-0.5,1.1-0.5,1.7-0.1c1.3,0.8,2.6,1.7,3.9,2.5
		C117.2,135.2,117.2,135.6,116.8,136.1z"/>
	<g>
		<path d="M55.6,119.8c-0.8-1.4-1.8-2.5-3-3.5c-1.6-1.3-3.4-2.3-5.3-3c-0.8-0.3-1-0.4-1-1.3c-0.1-1.7-0.1-3.4-0.2-5.2
			c0-0.1,0-0.2,0-0.3c0.2,0.2,0.5,0.3,0.6,0.4c0.9,0.6,1.8,0.9,2.9,0.7c0.6-0.1,1.3-0.2,1.9-0.3c1.1-0.1,2.2-0.2,3.3-0.3
			c0.7-0.1,1-0.5,0.9-1.2c-0.1-0.4-0.2-0.8-0.3-1.2c-0.5-2.5-1.7-4.5-3.8-5.9c-1.5-1-3.2-1.8-4.8-2.7c-0.4-0.2-0.6-0.4-0.5-0.8
			c0.2-0.7,0-1.3-0.6-1.7c-0.2-0.1-0.5-0.3-0.7-0.4c-0.6-0.2-1.2-0.4-1.8-0.7c-0.6-0.3-1.1-0.4-1.7-0.4c-1.1,0.1-2.3,0.2-3.4,0.2
			c-0.4,0-0.9,0.1-1.3,0.1c-0.6,0-1,0.4-1,1c0,0.5,0,1,0.1,1.5c-0.1,0-0.2,0-0.3,0.1c-2.3,0.5-4.4,1.4-6,3.2
			c-1.5,1.6-2.3,3.6-2.9,5.7c-0.3,1-0.5,2.1-0.3,3.2c0.3,1.9,1,3.7,2.1,5.4c1.3,2,2.9,3.6,4.9,4.9c1,0.6,2,1.2,3.1,1.6
			c0.5,0.2,0.6,0.4,0.6,1c0,0.3,0,0.5,0,0.8c0,1.3,0,2.6,0,3.9c-0.3-0.2-0.6-0.4-1-0.6c-0.6-0.3-1.2-0.5-1.7-0.9
			c-0.9-0.5-1.9-0.5-2.8-0.1c-0.1,0-0.2,0.1-0.2,0.1c-1.4,0.6-2.8,0.9-4.2,1.1c-1,0.2-1.4,0.6-1.4,1.6c0,0.3,0.1,0.6,0.2,0.9
			c0.3,0.8,0.7,1.6,1.1,2.4c1,2.3,2.6,4.1,4.8,5.3c1.7,0.9,3.5,1.8,5.2,2.7c0.4,0.2,0.5,0.4,0.5,0.8c0,0.7-0.1,1.5-0.1,2.2
			c0,0.5,0.2,0.9,0.6,1.1c0.8,0.4,1.5,0.8,2.3,1.2c0.3,0.2,0.7,0.2,1.1,0.3c0.3,0,0.6,0,0.9,0c0.9,0,1.8,0.1,2.7,0.1
			c0.9,0,1.3-0.4,1.4-1.3c0-0.5,0-0.9,0-1.4c0-0.5-0.1-1.1-0.1-1.6c2.1-0.1,2.7-0.2,3.9-1.1c1-0.7,2-1.5,2.9-2.3
			c0.9-0.8,1.6-1.7,2-2.7c1.1-2.5,1.7-5,1.8-7.7C56.9,123.2,56.5,121.4,55.6,119.8z M47.3,106.7c-0.4-0.2-0.7-0.3-1.1-0.6
			c-0.1-0.1-0.1-0.4-0.1-0.5C46.5,106,46.9,106.3,47.3,106.7C47.3,106.7,47.3,106.7,47.3,106.7z M47.6,106.5c-0.4-0.7-1.3-1-1.5-1.8
			c0.5,0.3,1,0.7,1.4,1c0.2,0.2,0.2,0.5,0.3,0.7C47.7,106.5,47.7,106.5,47.6,106.5z M45,93.8c-0.3,0-0.6,0-0.9,0
			C44.3,93.5,44.5,93.5,45,93.8z M43.9,93.4c-0.3,0.4-0.6,0.7-1.1,0.5C43.2,93.1,43.4,93,43.9,93.4z M42.4,92.9
			c0.1-0.1,0.4,0,0.6,0.1c-0.5,0.5-0.8,1.2-1.7,1.1C41.7,93.6,42.1,93.2,42.4,92.9z M42.1,92.7c-0.6,0.6-1,1.5-2.1,1.4
			C40.4,93.3,41.4,92.5,42.1,92.7z M39.2,92.8c0.5,0,0.9,0,1.4,0c-0.5,0.9-1.2,1.5-1.5,1.4c0.2-0.4,0.7-0.6,0.8-1.1
			c0,0-0.1-0.1-0.1-0.1c-0.3,0.3-0.5,0.7-0.8,1.1c-0.2-0.1-0.3-0.2-0.5-0.3c0.2-0.3,0.4-0.5,0.6-0.8C39.1,92.8,39.2,92.8,39.2,92.8z
			 M38.6,92.9c-0.4,0.8-0.4,0.8-0.8,0.5C38.1,93.2,38.1,92.8,38.6,92.9z M37.7,92.9c-0.2,0.4-0.4,0.4-0.8-0.1
			C37.2,92.9,37.4,92.9,37.7,92.9z M36.4,93.2c0.1,0,0.3,0,0.4,0.1c0.6,0.3,1.2,0.6,1.7,1c0.4,0.3,0.4,0.3,0.2,1
			c-0.4-0.4-0.8-0.9-1.1-1.3c0,0-0.1,0.1-0.1,0.1c0.4,0.7,0.8,1.4,1.3,2.1c0,0-0.1,0.1-0.1,0.1c-0.1-0.1-0.3-0.2-0.4-0.4
			c-0.4-0.7-0.8-1.5-1.6-2C36.6,93.8,36.5,93.5,36.4,93.2C36.4,93.3,36.4,93.3,36.4,93.2z M37.5,96.3c0.3,0.1,0.6,0.3,1.1,0.4
			c-0.7,0.2-1.2,0.4-1.9,0.6C36.9,96.9,37.2,96.6,37.5,96.3z M34.5,98.2c0.7-0.7,1.3-1.5,2-2.3c0.1,0.1,0.3,0.2,0.5,0.3
			C36.4,97,35.7,97.9,34.5,98.2z M36.2,93.6c0.6,0.8,1.1,1.5,1.6,2.2c-0.1,0-0.1,0.1-0.2,0.1c-0.2-0.2-0.4-0.3-0.5-0.5
			c-0.2-0.1-0.3-0.3-0.5-0.4C36.1,94.7,36.1,94.2,36.2,93.6z M34.8,95.9c0.5-0.1,1-0.2,1.4-0.2c-0.9,0.8-1.6,1.6-2.2,2.5
			c-0.2,0.3-0.4,0.7-0.7,1c0,0-0.1,0.1-0.2,0.1c0.1-0.2,0.1-0.4,0.2-0.5c0.4-0.9,0.9-1.8,1.3-2.7C34.7,96,34.8,95.9,34.8,95.9z
			 M34.3,96c-0.3,0.7-0.6,1.4-0.9,2.1c-0.2,0.5-0.4,1.1-0.6,1.6c-0.1,0.3-0.3,0.5-0.5,0.7c0-0.9,0.1-1.7,0.5-2.4
			c0.2-0.5,0.5-0.9,0.7-1.4C33.6,96.2,33.8,96.1,34.3,96z M33,96.4C33,96.5,33,96.5,33,96.4c-0.1,0.5-0.3,1-0.5,1.4
			c-0.5,0.9-0.7,1.9-0.7,2.8c0,0.5-0.2,0.8-0.5,1.2c-0.1-1.7-0.1-3.3,0.8-4.8C32.2,96.7,32.7,96.6,33,96.4z M30.5,98.7
			c0-0.7,0.3-1.1,1-1.4c-0.1,0.3-0.3,0.6-0.3,0.8c-0.1,0.8-0.2,1.6-0.3,2.4c0,0.5,0.1,1.1,0.1,1.6c0,0.1-0.1,0.3-0.1,0.4
			c0,0-0.1,0-0.1,0c-0.1-0.6-0.3-1.2-0.3-1.9C30.4,100.1,30.5,99.4,30.5,98.7z M30,98.6c-0.1,1.6,0.2,3.2,0.5,4.8
			c0,0.1-0.1,0.2-0.1,0.3c-0.1-0.1-0.2-0.2-0.2-0.3c-0.6-1.3-0.8-2.6-0.8-3.9C29.4,99,29.8,98.8,30,98.6z M29.1,99.9
			c0,0.2,0.1,0.4,0.1,0.6c0,1.2,0.4,2.2,0.9,3.3c0.2,0.4,0.2,0.7-0.1,1c-0.1-0.3-0.3-0.6-0.4-0.9c-0.3-0.9-0.6-1.9-1-2.8
			C28.3,100.5,28.7,100.2,29.1,99.9z M28.2,101.2c0.3,1,0.6,1.9,1,2.8c0.1,0.3,0.3,0.6,0.4,0.9c0.3,0.4,0.3,0.4,0,1
			c-0.2-0.3-0.4-0.5-0.6-0.8c-0.4-0.8-0.7-1.6-1.1-2.4C27.6,102.1,27.9,101.7,28.2,101.2z M27.4,102.9c0.6,1,1.1,2.1,1.7,3.1
			c0.3,0.5,0.4,0.8,0.1,1.4c-0.3-0.3-0.6-0.5-0.7-0.8c-0.5-0.9-0.9-1.8-1.3-2.7C27,103.5,27.4,103.2,27.4,102.9z M26.7,105.5
			c0-0.4,0.1-0.8,0.2-1.2c0.4,0.9,0.7,1.6,1.1,2.3c0.2,0.4,0.5,0.8,0.8,1c0.5,0.4,0.5,0.8,0.5,1.4c-0.6-0.3-0.9-0.7-1.3-1.1
			c-0.4-0.6-0.9-1.2-1.3-1.8C26.8,105.9,26.7,105.7,26.7,105.5z M26.8,107.8c-0.1-0.4-0.1-0.8-0.2-1.3c0,0,0.1,0,0.1,0
			c0.1,0.2,0.3,0.5,0.4,0.7c0.5,0.6,1,1.3,1.5,1.9c0.1,0.1,0.2,0.3,0.4,0.3c0.6,0.1,0.5,0.6,0.7,1.1c-1.1-0.4-1.9-1-2.6-1.8
			C27,108.4,26.9,108.1,26.8,107.8z M27.4,109.4c0.7,0.8,1.6,1.1,2.4,1.6c0.3,0.2,0.4,0.6,0.5,0.9c0,0-0.1,0.1-0.1,0.1
			C29,111.5,27.6,111.2,27.4,109.4z M28.3,111.6c0.8,0.6,1.8,0.6,2.5,1.5C29.8,113.1,28.6,112.4,28.3,111.6z M29.2,113
			c0.6,0.4,1.5,0.3,2,1C30.5,113.7,29.6,113.9,29.2,113z M30.1,114.1c0.5,0.1,1,0.2,1.4,0.4c0.2,0.1,0.3,0.3,0.5,0.6
			C31.2,115.1,30.5,114.9,30.1,114.1z M31.4,115.4c0.9,0.1,1.1,0.2,1.4,0.7C32.4,116.3,32,116.1,31.4,115.4z M32.9,116.7
			c0.3-0.2,0.7,0.1,1,0.7C33.6,117.1,33.2,116.9,32.9,116.7z M34.9,124.4c-0.1,0.3-0.2,0.6-0.6,0.6c0.1-0.3,0.2-0.6,0.3-0.9
			C34.7,124.2,34.9,124.3,34.9,124.4z M34.3,124.1c0,0.7-0.4,1.2-1.1,1.3c0.2-0.5,0.4-1.1,0.7-1.7C34.1,123.8,34.3,124,34.3,124.1z
			 M33.1,123.4c0.2,0.1,0.3,0.1,0.5,0.2c-0.2,0.5-0.3,1-0.5,1.5c-0.2,0.5-0.5,0.7-1.1,0.7C32.3,124.9,32.7,124.2,33.1,123.4z
			 M31.8,123.7c0.1-0.2,0.5-0.2,0.7-0.3c0,0,0.1,0.1,0.1,0.1c-0.4,0.8-0.7,1.6-1.1,2.3c-0.1,0.2-0.5,0.2-0.7,0.4
			c0,0-0.1-0.1-0.1-0.1C31.1,125.2,31.4,124.4,31.8,123.7z M30.6,124.1c0.2,0,0.3-0.1,0.5-0.2c0,0,0.1,0.1,0.1,0.1
			c-0.3,0.7-0.6,1.4-0.9,2c-0.2,0.2-0.7,0.3-1.1,0.4c0.2-0.6,0.4-1.1,0.6-1.6C29.9,124.5,30.1,124.2,30.6,124.1z M28.6,125.1
			c0-0.6,0.5-0.6,1-0.7c-0.2,0.8-0.5,1.5-0.7,2.2c-0.1,0-0.2,0-0.3-0.1c-0.5-0.2-0.5-0.2-0.3-0.7C28.4,125.6,28.6,125.4,28.6,125.1z
			 M28.7,127.4c0,0-0.1,0.1-0.1,0.1c-0.5-0.4-1.1-0.8-1.6-1.2c0,0,0-0.1,0.1-0.1c0.1,0.1,0.3,0.1,0.4,0.2c0.4,0.2,0.8,0.4,1.1,0.6
			C28.6,127.1,28.7,127.3,28.7,127.4z M28.3,124.8c-0.1,0.5-0.2,0.9-0.4,1.4c-0.2-0.1-0.4-0.2-0.6-0.3
			C27.8,125.6,27.4,124.7,28.3,124.8z M27.2,124.8c0.1,0,0.1,0.1,0.2,0.1c-0.1,0.3-0.1,0.5-0.2,0.8c-0.2-0.1-0.4-0.1-0.6-0.2
			C26.8,125.3,27,125,27.2,124.8z M26.2,126.8c-0.2-0.2-0.3-0.7-0.2-1.1c0.3,0.4,0.6,0.7,0.9,1c0.4,0.4,0.8,0.7,1.3,1
			c0.5,0.3,0.6,0.7,0.7,1.2c-0.4-0.3-0.9-0.4-1.2-0.7C27.2,127.8,26.7,127.3,26.2,126.8z M26.6,127.7c0.1,0.1,0.2,0.2,0.2,0.2
			c0.6,0.4,1.1,0.9,1.7,1.2c0.6,0.3,1,0.8,1.1,1.5C28.5,129.9,27.2,129.3,26.6,127.7z M27.5,129.6c0.3,0.3,0.6,0.6,1,0.8
			c0.5,0.3,1,0.6,1.4,0.9c0.1,0.1,0.2,0.2,0.3,0.3c0.1,0.2,0.3,0.5,0.4,0.8c-0.8-0.3-1.5-0.9-2.1-1.5
			C28.1,130.6,27.6,130.3,27.5,129.6z M28.7,131.6c0.2,0.2,0.4,0.4,0.7,0.5c0.4,0.3,0.7,0.6,1.1,0.8c0.7,0.3,1,0.9,1.5,1.5
			C30.7,133.7,29.6,132.8,28.7,131.6z M37.8,140.2c0.4,0.5,0.7,0.9,1.1,1.4C37.9,141.3,37.6,141,37.8,140.2z M39.3,141.6
			c-0.2-0.3-0.4-0.6-0.6-0.9c-0.3-0.4-0.7-0.7-0.8-1.2c-0.2-0.3-0.1-0.8-0.1-1.2c0,0,0,0,0.1,0c0.9,1.3,1.7,2.7,2.6,4
			C39.8,142.3,39.5,142.1,39.3,141.6z M40.4,141.6c-0.1,0-0.1,0-0.2,0.1c-0.8-1.3-1.7-2.5-2.5-3.8c0.7,0.2,1.2,0.5,1.6,1.1
			c0.3,0.5,0.7,1,1,1.4c0.1,0.1,0.1,0.2,0.1,0.3C40.4,141.1,40.4,141.4,40.4,141.6z M40.4,140.2c-0.4-0.6-0.8-1.1-1.2-1.6
			C40.3,138.8,40.6,139.2,40.4,140.2z M56.2,125.8c-0.1,2.2-0.7,4.3-1.5,6.3c-0.6,1.3-1.4,2.5-2.5,3.4c-1.1,0.9-2.2,1.9-3.5,2.5
			c-0.9,0.4-1.8,0.5-2.7,0.4c-0.2,0-0.3,0-0.5,0c0.1,0.4,0.2,0.6,0.2,0.9c0,0.9,0.1,1.8,0,2.7c0,0.6-0.3,0.8-0.9,0.8
			c-0.8,0-1.6-0.1-2.4-0.2c-0.4,0-0.8,0-1.1,0c-0.3,0-0.4-0.1-0.4-0.4c0-1-0.1-2-0.1-3c0-0.4-0.2-0.6-0.5-0.8c-1.5-0.7-3-1.3-4.5-2
			c-2.4-1.1-4.2-2.9-5.2-5.3c-0.3-0.8-0.7-1.5-1-2.2c-0.1-0.3-0.2-0.7-0.3-1c-0.1-0.5,0.2-1,0.7-1.1c0.5-0.1,1-0.1,1.4-0.2
			c1.3-0.4,2.5-0.8,3.8-1.2c0.1,0,0.1,0,0.2-0.1c1-0.3,1.2-0.2,1.5,0.7c0.4,1,0.8,2,1.3,3c0.3,0.6,0.9,1.1,1.4,1.7
			c0.1,0.1,0.2,0.1,0.3,0.2c0.6,0.3,1,0,1-0.7c-0.1-1.3-0.2-2.7-0.2-4c0-1.5,0-3,0-4.5c0-0.1,0-0.1,0-0.2c0.1-0.8,0-0.9-0.8-1.1
			c-1-0.2-1.7-0.8-2.6-1.3c-2.3-1.4-4.3-3.2-5.7-5.6c-1-1.8-1.8-3.7-1.7-5.9c0.1-1.7,0.7-3.2,1.5-4.7c0.9-1.8,2-3.2,3.7-4.2
			c1.1-0.6,2.2-1.2,3.6-1.2c0.2,0,0.3-0.1,0.5-0.1c0.3-0.1,0.4-0.3,0.4-0.6c-0.1-0.5-0.1-1-0.1-1.5c0-0.3,0.1-0.5,0.4-0.5
			c0.1,0,0.1-0.1,0.2-0.1c1.7-0.1,3.4-0.2,5.2-0.3c0.7,0,0.9,0.2,0.7,0.9c-0.1,0.5-0.2,1-0.2,1.4c0,0.1,0.1,0.3,0.2,0.3
			c0.5,0.2,1,0.3,1.6,0.4c2.8,0.8,5.1,2.2,6.6,4.8c0.5,0.8,0.7,1.8,1,2.7c0.1,0.3,0.2,0.7,0.3,1.1c0,0.2,0,0.4-0.3,0.4
			c-1.5,0.2-3.1,0.5-4.6,0.7c-0.5,0.1-0.9,0.1-1.4,0.1c-0.4,0-0.7-0.2-0.7-0.6c-0.2-1-0.6-1.9-1.4-2.6c-0.3-0.3-0.6-0.6-0.9-0.9
			c-0.3-0.3-0.4-0.2-0.5,0.2c-0.1,0.3-0.1,0.6-0.1,0.9c0.4,1.6,0.1,3.3,0.2,5c0.1,1.2,0.1,2.3,0.1,3.5c0,0.3,0.2,0.6,0.5,0.6
			c1.1,0.1,2,0.7,2.9,1.2c1.4,0.8,2.9,1.6,4,2.8c1.5,1.6,2.7,3.4,3,5.7C56.3,123.9,56.2,124.9,56.2,125.8z M39.4,128.9
			c-0.6-0.9-1.1-1.9-1.7-2.8c-0.4-0.6-0.3-1.2-0.3-1.8c0.1,0.1,0.1,0.2,0.2,0.2c0.7,1.3,1.4,2.5,2.2,3.7c0.3,0.5,0.5,0.9,0.5,1.5
			c0,0-0.1,0-0.1,0.1C39.9,129.6,39.6,129.3,39.4,128.9z M39.7,130c-0.7-0.2-2.3-2.8-2.2-4C38.2,127.4,39,128.7,39.7,130z
			 M37.3,123.8c0-0.5,0-1,0-1.5c0,0,0.1,0,0.1,0c0.3,0.5,0.6,1.1,0.9,1.6c0.4,0.7,0.9,1.3,1.4,2c0.1,0.2,0.2,0.4,0.2,0.6
			c0,0.4,0,0.9,0,1.3c0,0-0.1,0-0.1,0.1c-0.1-0.2-0.3-0.4-0.4-0.6c-0.7-1.1-1.4-2.2-2.1-3.3C37.4,123.9,37.3,123.8,37.3,123.8z
			 M39.9,122.5c0.2,0.3,0.1,0.6,0.1,1c0,0-0.1,0-0.1,0c-0.8-1.1-1.6-2.2-2.4-3.4c0,0,0.1-0.1,0.1-0.1c0.4,0.2,0.8,0.3,1.1,0.7
			C39.1,121.4,39.6,121.9,39.9,122.5z M39,120.7c1.1,0.2,1.2,0.4,1,1.3C39.6,121.6,39.3,121.2,39,120.7z M39.4,123.4
			c0.1,0.2,0.3,0.3,0.5,0.5c0.1,0.1,0.1,0.2,0.1,0.2c0,0.4,0,0.8,0,1.4c-0.2-0.2-0.3-0.3-0.4-0.4c-0.7-0.9-1.2-2-2-2.8
			c-0.5-0.6-0.3-1.2-0.4-1.9C38.1,121.4,38.7,122.4,39.4,123.4z"/>
		<path d="M48.3,122.7c-0.4-0.3-0.7-0.5-1.1-0.8c-0.4-0.2-0.8-0.4-1.3-0.1c-0.4,0.3-0.4,0.7-0.4,1.2c0,0,0,0,0,0
			c0,1.7,0.1,3.5,0.1,5.2c0,0.8,0,1.5,0,2.3c0,0,0.1,0,0.1,0c0.1,0,0.2,0,0.3-0.1c1.8-0.7,3.1-1.9,3.4-3.8
			C49.8,125.1,49.6,123.7,48.3,122.7z M46.1,129.8c0-0.6-0.1-1.1,0.3-1.5c0.1,0.4,0.3,0.7,0.4,1.1C46.6,129.6,46.4,129.7,46.1,129.8
			z M46.2,127.3c0-0.7,0-1.5,0-2.2C46.5,125.8,46.5,126.6,46.2,127.3z M47.2,129.2c-0.5-0.9-0.7-1.5-0.5-2c0.3,0.6,0.5,1.2,0.8,1.8
			C47.4,129.1,47.3,129.2,47.2,129.2z M47.8,128.8c-0.1-1-1-1.6-1-2.5c0,0,0.1,0,0.1-0.1c0.4,0.7,0.9,1.4,1.3,2.1
			C48.1,128.5,48,128.6,47.8,128.8z M48.6,127.8c-0.5-0.7-1.1-1.4-1.6-2.1c-0.1-0.2-0.2-0.5-0.3-0.7c0,0,0.1,0,0.1-0.1
			c0.6,0.7,1.3,1.3,1.9,2C49,127.2,48.9,127.5,48.6,127.8z M49,126.6c-0.8-0.7-1.6-1.4-2.4-2.2c-0.3-0.4-0.7-0.9-0.6-1.4
			c0,0,0.1-0.1,0.1-0.1c0.3,0.4,0.7,0.7,1,1.1c0.6,0.7,1.2,1.4,1.8,2.2c0.1,0.1,0.1,0.3,0.1,0.4C49,126.5,49,126.5,49,126.6z
			 M49.1,125.5c-0.4-0.4-0.7-0.8-1.1-1.1c-0.6-0.6-1.2-1.1-1.7-1.6c-0.1-0.1-0.1-0.3-0.2-0.4c0.2,0,0.3,0,0.4,0.1
			c0.6,0.5,1.2,1,1.9,1.5C48.9,124.3,49.1,124.8,49.1,125.5z"/>
		<path d="M39,102.7c-1,0.4-1.7,1.1-2,2.1c-0.3,1-0.1,1.9,0.1,2.9c0.4,1.4,1.1,2.7,2.4,3.6c0.4,0.3,0.5,0.2,0.6-0.3
			c0.1-0.5,0.1-0.9,0.2-1.4c0.1-1.8,0.1-3.7,0.1-5.5c0,0,0,0,0,0c0-0.1,0-0.3,0-0.4C40.4,102.7,39.9,102.3,39,102.7z M39,103.7
			c0.2,0.2,0.4,0.4,0.7,0.6c0.3,0.2,0.4,0.5,0.2,0.9c-0.6-0.5-1.1-1-1.7-1.4C38.6,103.3,38.6,103.3,39,103.7z M37.6,104.9
			c0.7,0.6,1.3,1.1,2,1.6c0.4,0.4,0.5,0.6,0.3,1.3c-0.3-0.2-0.6-0.5-0.9-0.7c-0.4-0.3-0.8-0.7-1.2-1.1
			C37.3,105.7,37.3,105.5,37.6,104.9z M39.7,110.8c-0.4-0.4-0.8-0.9-1.2-1.3c0,0,0.1-0.1,0.1-0.1c0.4,0.5,1,0.7,1.2,1.2
			C39.8,110.7,39.8,110.8,39.7,110.8z M37.8,107.7c0.2,0.2,0.4,0.4,0.6,0.6c0.4,0.4,0.8,0.7,1.2,1c0.2,0.2,0.3,0.3,0.2,0.6
			C39,109.3,38.2,108.8,37.8,107.7z M39.8,109.1c-0.2-0.2-0.5-0.4-0.7-0.6c-0.5-0.4-0.9-0.9-1.4-1.3c-0.3-0.3-0.3-0.6-0.3-1
			c0.8,0.8,1.6,1.5,2.4,2.2c0.1,0.1,0.1,0.4,0.1,0.6C39.9,109,39.9,109,39.8,109.1z M39.8,106.2c-0.7-0.5-1.3-1-2-1.5
			c-0.4-0.3,0-0.5,0.1-0.7c0.3,0.3,0.7,0.6,1,0.9c0.3,0.2,0.6,0.4,0.8,0.7c0.1,0.2,0.2,0.4,0.2,0.6
			C39.9,106.2,39.9,106.2,39.8,106.2z M40,104c0,0-0.1,0-0.1,0.1c-0.3-0.3-0.7-0.5-1-0.8c0.3-0.2,0.6-0.4,0.9-0.2
			C40.1,103.3,40,103.7,40,104z"/>
	</g>
</g>
</svg>
