<?xml version="1.0" encoding="utf-8"?>
<!-- Generator: Adobe Illustrator 26.0.3, SVG Export Plug-In . SVG Version: 6.00 Build 0)  -->
<svg version="1.1" id="Слой_1" xmlns="http://www.w3.org/2000/svg" xmlns:xlink="http://www.w3.org/1999/xlink" x="0px" y="0px"
	 viewBox="0 0 239.5 150.2" style="enable-background:new 0 0 239.5 150.2;" xml:space="preserve">
<g>
	<path d="M120.2,84.1c-0.1-0.2-0.2-0.4-0.3-0.6c0.1,1.3,0.2,2.5,0,3.8c-0.1,1.4-0.2,2.8,0.1,4.1c0.1-2.3,0.6-4.7,0.2-7
		C120.2,84.3,120.2,84.2,120.2,84.1z"/>
	<path d="M168.8,35.7c0,0.3-0.1,0.6,0,0.9c0.2,1.4,0.2,2.8-0.1,4.2c-0.1,0-0.2,0.1-0.3,0.2c-0.1-0.8,0.1-1.7-0.3-2.5
		c-0.2-0.4-0.4-0.8-0.8-1c-0.2,0.1-0.4,0.2-0.4,0.5c0.2,0.5,0.5,1,0.6,1.5c0.2,0.9,0,1.9-0.1,2.8c-0.6,0.9-0.5,2.1-0.5,3.1
		c0.1,0.1,0.3,0.1,0.4,0.2c0.4-0.6,0.6-1.4,0.9-2.1c0.1-0.3,0.5-0.4,0.7-0.5c0.3,0.9-0.3,1.8-0.1,2.7c0.2,0.1,0.5,0.1,0.7,0.1
		c0.4-0.4,0.8-0.9,0.9-1.5c0.4-2,0.3-4,0.1-6C170.4,37.2,170,35.9,168.8,35.7z"/>
	<path d="M183.9,44.8c-0.1-0.2-0.1-0.5-0.3-0.5c-0.3,0.3-0.5,0.7-0.7,1c-0.1-0.1-0.4-0.1-0.3-0.3c-0.1-0.7,0.3-1.6-0.4-2.1
		c-0.6,0.5-0.5,1.3-0.6,1.9c-0.2,1.4-0.8,2.6-1.5,3.8c-0.4,0.5-1.1,1-0.7,1.7c0.4,0,0.8-0.2,1.2-0.5c0.5-0.7,0.9-1.4,1.2-2.2
		c0.1-0.3,0.4-0.4,0.6-0.6c0.1,0.3,0.1,0.6,0.2,0.8c-0.1,0.5-0.1,1.1-0.6,1.4c-0.4,0.4-1.2,0.8-1,1.5c0.3,0.3,0.6-0.1,0.8-0.3
		c0.8-0.9,1.4-2,1.9-3.1C184,46.5,184.1,45.6,183.9,44.8z"/>
	<path d="M176.1,40.5c-0.1-0.6,0-1.3-0.6-1.7c-0.5,0.5-0.5,1.2-0.8,1.8c-0.2,0.4-0.5,0.7-0.8,1.1c-0.3-0.8,0-1.7-0.2-2.5
		c-0.3-0.5-0.6-1.1-0.9-1.6c-0.3-0.4-1.1-0.5-1.3,0c-0.1,0.7,0.6,1,0.8,1.6c0.4,1.2,0.2,2.5-0.1,3.7c-0.2,1.1-1,2.1-0.8,3.2
		c0.3-0.1,0.6-0.2,0.8-0.5c0.5-0.8,0.8-1.8,1.4-2.7c0.1,0,0.4,0,0.5,0c-0.1,0.9-0.7,1.7-0.7,2.6c1-0.5,1.6-1.5,1.9-2.5
		C175.6,42.3,176.2,41.5,176.1,40.5z"/>
	<path d="M161,38c-0.1,0.5-0.1,1,0,1.4c0.4,1,0.7,2.1,0.6,3.2c-0.2-0.1-0.4-0.1-0.6-0.3c-0.4-0.6-0.6-1.3-1.1-2
		c-0.3-0.3-1-0.4-1.2,0.1c0.1,0.8,0.9,1.4,1,2.2c0.2,1.3,0,2.6,0.1,3.8c0.2,0.5,0.9,0.3,1-0.1c0.2-0.7,0.2-1.6,0.8-2.2
		c0.2,0.1,0.3,0.2,0.3,0.3c0,0.6-0.1,1.1,0.3,1.6c0.4-0.2,0.8-0.3,0.8-0.8c0.4-2,0.2-4.3-0.9-6C161.8,38.9,161.6,38.3,161,38z"/>
	<path d="M163.9,38.9c-0.3,0.8,0.2,1.6,0.2,2.5c0,1.6-0.6,3.1-0.3,4.6c0.6,0.3,1.1-0.4,1.3-0.9c0.6-2,0.7-4.3-0.3-6.2
		C164.5,39,164.2,39,163.9,38.9z"/>
	<path d="M179.8,41.2c-0.3-0.3-0.5,0.1-0.7,0.3c-0.6,0.7-0.5,1.7-1.2,2.4c-0.2,0.1-0.4-0.1-0.4-0.3c0-1,0-2.1-0.3-3.1
		c-0.2,0-0.4,0-0.5,0c-0.1,0.8-0.1,1.5-0.2,2.3c-0.1,1.1-0.5,2.1-0.8,3.2c-0.2,0.8-0.9,1.4-0.9,2.3c0.3-0.1,0.7,0,0.9-0.3
		c0.4-0.8,0.8-1.6,1.5-2.1c0,0.4,0.1,0.9-0.1,1.3c-0.4,0.8-0.8,1.5-1,2.4c-0.1,0.3,0,0.5,0.1,0.8c0.3-0.1,0.7,0,0.9-0.3
		c0.4-0.7,0.9-1.3,1.2-2c0.6-1.2,1.2-2.3,1.5-3.6C180,43.1,180.2,42.1,179.8,41.2z"/>
	<path d="M156.8,42c-0.7,0.8,0.3,2.1-0.5,2.8c-0.7,0.3-1.1-0.6-1.1-1.1s-0.2-1.2-0.8-1.4c-0.6,0.6-0.2,1.5-0.3,2.3
		c-0.3-0.7-0.1-1.5-0.8-1.9c-0.2,0.2-0.7,0.4-0.6,0.8c0.2,1.5,0.2,3.1,0.2,4.6c0,0.3,0.3,0.4,0.5,0.5c0.8-0.8,0.3-2.1,0.9-3
		c0.7,0.7,0.3,1.8,0.5,2.7c0.1,0.3,0.5,0.3,0.6,0c0.6-0.7,0.5-1.8,0.9-2.6c0.2-0.3,0.6-0.1,0.9-0.2c0.1,0.6,0.2,1.3,0.5,1.9
		c0.3,0.1,0.4-0.3,0.6-0.6c0.5-1.4-0.1-2.7-0.6-4C157.6,42.5,157.3,41.8,156.8,42z"/>
	<path d="M132,113c-0.5-0.6-0.5-1.4-0.7-2.1c-0.1-0.3-0.4-0.3-0.7-0.4c-0.1,0.2-0.1,0.4-0.2,0.7c-0.8,0.1-1.3-0.7-2-0.9
		c-0.6-0.4-1.3-0.6-1.9-0.1c0.6,0.6,1.5,0.9,2.2,1.4c0.6,0.4,1.5,0.7,1.6,1.5c0.2,0.6,0.2,1.3,0.7,1.7c0.5-0.1,0.9-0.8,1.5-0.5
		c0.4,0.7-0.1,1.7,0.3,2.4c0.2,0.3,0.6,0.4,0.9,0.2c0.3-0.4,0.3-1,0.3-1.5c0-1.7-0.3-3.4-0.8-5C132.2,110.9,132.9,112.3,132,113z"/>
	<path d="M149.5,43.7c-0.4,0.7-0.4,1.7-1.1,2.2c-0.2-0.1-0.5-0.2-0.7-0.3c-0.1-0.5-0.1-1.1-0.1-1.7c-0.2,0.1-0.5,0.2-0.6,0.3
		c-0.7,0.9-0.8,2-1,3.1c-0.1,0.9-0.6,2.1,0.3,2.8c0.7-0.7,0.5-1.8,0.7-2.7c0.1-0.3,0.6-0.8,0.9-0.4c0.5,0.9,0.2,2-0.1,2.9
		c-0.2,0.4,0.2,0.9,0.7,0.9c0.5,0.1,0.8-0.5,1-0.8c0.3-1.3,0.6-2.6,0.7-4c0.1-1,0.5-1.9,0.7-2.8c0.1-0.2,0-0.4-0.1-0.5
		C150.2,42.9,149.7,43.2,149.5,43.7z"/>
	<path d="M156,111.8c-0.6,0-1.3,0.5-1.3,1.1c-0.1,1.1,0.6,2.2,0.4,3.3c-0.2,0.1-0.4,0.1-0.6,0.1c-0.4,0-0.4-0.5-0.5-0.7
		c-0.2-0.9-0.3-1.9-0.9-2.7c-0.1-0.2-0.5-0.2-0.6,0c-0.7,0.8-0.1,2-0.5,2.9c-0.3-0.7-0.4-1.4-0.6-2.1c-0.2-0.6-0.4-1.3-1-1.5
		c0,0.5-0.3,1.1,0,1.5c0.5,1,0.6,2.2,0.7,3.3c0.1,1.2-0.1,2.5,0.2,3.8c0.1,0.5,0.5,0.9,1.1,0.7c0.3-1.1,0-2.4,0.8-3.3
		c0.6,1,0.2,2.2,0.7,3.3c0.2,0,0.3,0,0.5,0c0.4-1,0-2.2,0.6-3.2c0.1-0.2,0.2-0.5,0.5-0.4c0.2,0.1,0.5,0.4,0.5,0.6
		c0.2,0.6,0.3,1.3,0.5,1.9c0.8,0,1-0.9,1-1.6c-0.1-1.6-0.4-3.1-0.6-4.7C156.6,113.6,156.6,112.6,156,111.8z"/>
	<path d="M144.2,46.7c-0.4,0.9-0.8,1.8-1.1,2.8c-0.2,0-0.5,0-0.7-0.1c-0.1-0.7,0-1.4-0.2-2c-0.3,0.4-0.7,0.9-0.7,1.4
		c-0.1,1.2-0.1,2.4-0.5,3.6c-0.2,0.7-0.5,1.5,0.2,2c0.3-0.3,0.6-0.5,0.6-1c0.1-0.6-0.2-1.5,0.4-1.8c0.2-0.1,0.4-0.3,0.6-0.2
		c0.1,0.9-0.1,1.8,0.2,2.7c0.6-0.2,0.9-0.8,0.9-1.4c0.1-1.2,0.1-2.4,0.2-3.6c0-1,0.6-1.9,0.6-2.8C144.5,46.4,144.2,46.5,144.2,46.7z
		"/>
	<path d="M140.9,46.7c-0.2,0.1-0.4,0.1-0.5,0.3c-0.5,0.7-0.7,1.5-1,2.3c-0.1,0.3-0.4,0.4-0.7,0.6c0.1-0.7,0.1-1.4,0.1-2.1
		c-0.1,0-0.3,0.1-0.3,0.1c-0.2,0.9-0.2,1.9-0.4,2.8c-0.1,0.5-0.7,0.6-1.1,0.8c-0.2-0.8-0.1-1.6,0.1-2.4c0.1-0.3-0.1-0.6-0.2-0.9
		c-0.9,0.4-1.3,1.4-1.4,2.3c-0.1,0.9-0.6,1.9-0.4,2.8c0,0.2,0.1,0.3,0.3,0.4c0.3-0.8,0.4-1.8,1.2-2.3c0.1,1.4-0.4,2.7-0.4,4.1
		c0,0.3,0.1,0.6,0.3,0.9c0.9-0.9,0.2-2.4,1.1-3.3c0.2-0.2,0.5-0.4,0.7-0.2c0.3,0.8,0,1.6-0.1,2.3c0.1,0.2,0.2,0.3,0.4,0.4
		c0.8-0.4,0.6-1.5,0.6-2.2c0.1-1.2,0.7-2.4,1-3.5C140.4,48.8,141.1,47.8,140.9,46.7z"/>
	<path d="M123.2,48.2c0.8-1,1.9-1.7,2.8-2.6c1.1-1,2.3-1.9,3.5-2.7c1.2-1,2.7-1.8,4.2-2.3c2.3-0.8,4.8-1,7.3-0.9
		c2.4,0,4.8,0.4,7.3,0.8c2,0.1,4,0.2,5.9-0.6c0.7-0.2,1.6-0.4,2.1-1c1.8-1.2,3.6-2.4,5.3-3.8c0.5-0.5,1.2-0.8,1.8-1.3
		c1.8-1.4,4.1-2.4,6.4-2.4c2-0.2,3.9,0.5,5.7,1.2c2.4,0.9,4.4,2.5,6.4,4c0.4,0.7,1.1,1.2,1.7,1.8c0.5,0.4,0.9,1,1.5,1.2
		c-0.2-1-0.8-1.9-1.6-2.7c-0.4-0.4-0.8-0.9-1.1-1.4c-0.4-0.6-1.2-0.9-1.7-1.5c-0.4-0.5-1.1-0.7-1.6-1.1c-1.1-0.8-2.4-1.4-3.6-2.1
		c-1.3-0.4-2.4-1.1-3.8-1.2c-2.5-0.6-5.1-0.2-7.5,0.7c-0.9,0.5-1.7,1.1-2.6,1.7c-0.4,0.5-0.9,0.9-1.4,1.2c-0.7,0.7-1.4,1.4-2,2.2
		c-1.4,1.3-2.9,2.5-4.7,3.1c-1.7,0.5-3.5,0.3-5.3,0.3c-2-0.1-3.9-0.5-5.8-0.8c-2.3-0.5-4.8-0.2-7.1,0.3c-2.3,0.6-4.3,2-6.3,3.3
		c-1.4,1.3-3,2.4-4.3,3.9c-0.5,0.5-1.1,1-1.5,1.5c-0.2,0.1-0.3,0.2-0.4,0.4c-0.5,0.8-1.1,1.5-1.6,2.3c-0.2,0.3-0.7,0.6-0.4,0.9
		C121.4,49.8,122.4,49.1,123.2,48.2z"/>
	<path d="M182.9,52.5c0.4-0.2,0.8-0.4,1.2-0.6c0,0,0.1,0.1,0.2,0.1c-0.2,0.7-0.5,1.2-0.9,1.8c0.3,0.5,0.8,0.1,1.2,0.1
		c0.5-0.1,1.2-0.2,1.4,0.3c0.7,1.6,0.8,3.3,0.8,5.1c0.1,0.8,0,1.7,0.5,2.4c0.8-2.2,0.6-4.7,0-6.9c-0.2-0.7-0.6-1.3-0.8-2
		c-0.1-0.5,0.2-1,0.4-1.4c-0.2-0.3-0.5-0.5-0.7-0.8c-0.2-0.7,0.3-1.5,0-2.2c-0.1,0.1-0.2,0.3-0.3,0.4c-0.1,0-0.2-0.1-0.3-0.2
		c-1,1.1-2,2.3-2.9,3.5C182.8,52.2,182.9,52.4,182.9,52.5z"/>
	<path d="M128,53.3c-0.3-0.2-0.4-0.5-0.6-0.8c0-0.6,0-1.3,0.1-1.9c-0.6,0-0.8,0.6-0.9,1.1c-0.1,1.3,0,2.6-0.1,3.8
		c0,1.4-0.3,2.9,0.2,4.3c0.5-0.5,0.4-1.2,0.4-1.8s0.1-1.3,0.2-1.9c0.3-0.1,0.5-0.4,0.8-0.5c0.4,1-0.3,2,0.2,3
		c0.1,0.2,0.4,0.6,0.6,0.3c0.3-1,0.1-2,0.1-3c0-0.9,0.3-1.8,0.1-2.7c0.2-0.5,0.2-1,0.4-1.5s0.5-1.1,0.5-1.7c0-0.3-0.3-0.4-0.4-0.7
		C128.7,50.5,128.6,52.1,128,53.3z"/>
	<path d="M132.4,52.5c-0.2,0-0.3-0.1-0.5-0.1c-0.2-0.7-0.2-1.5-0.3-2.2c-0.5,1-0.5,2.2-0.9,3.2c-0.2,0.7-0.4,1.3-0.6,2
		c-0.2,0.6,0,1.3,0.6,1.7c0.4-1,0.3-2.3,1.4-2.9c0,0.6,0,1.3-0.2,1.9c-0.1,0.5-0.2,1.1,0.1,1.5c0.2,0.3,0.7,0.3,0.7-0.1
		c0.2-1.2,0-2.5,0.4-3.7c0.3-1.1,0.5-2.2,0.9-3.2c0.1-0.3,0-0.7-0.2-1C132.8,50.4,132.9,51.6,132.4,52.5z"/>
	<path d="M119.2,62.1c0.8-0.8,1.6-1.8,2.7-2.1c0.2,0.5,0,1.3,0.5,1.5c0.5-0.6,0.5-1.5,1.1-2.1c0.6,0.1,0.6,0.9,0.7,1.4
		c0,0.5,0.3,0.8,0.6,1.1c0.2-0.2,0.5-0.4,0.6-0.7c0.2-1.1-0.1-2.2-0.1-3.4c-0.1-1.5,0.3-3.2-0.6-4.5c-0.2,0.3-0.5,0.6-0.6,0.9
		c-0.2,0.7-0.1,1.5-0.3,2.2c-0.1,0.4-0.6,0.3-0.9,0.3c-0.4-0.4-0.6-1.1-0.9-1.6c-0.1,0-0.3,0-0.4,0c-0.2,0.9,0,1.7-0.1,2.6
		c-0.2,0.7-0.8,1.2-1.2,1.7c-1.1,1.1-1.9,2.3-3,3.4c-0.5,0.5-0.8,1-1,1.6c0.3,0,0.6,0,0.9,0C117.9,63.8,118.5,63,119.2,62.1z"/>
	<path d="M191.4,72.7c-0.4-1.4-0.6-2.9-1.1-4.4c0.4-2.4,0.7-4.8,0.8-7.2c0.3-6.6-0.5-13.3-3-19.4c-1.6-4-4-7.8-7.4-10.5
		c-3-2.5-7-3.9-10.9-4.2c-2.9-0.2-6,0.2-8.4,2.1c-1.4,1.2-2.8,2.4-4.2,3.6c-1.8,1.5-3.6,2.9-5.8,3.6c-1.7,0.6-3.6,0.4-5.3,0.1
		c-2.6-0.5-5.2-0.9-7.8-0.7c-2.2,0.2-4.4,0.8-6.4,1.6c-1.6,0.6-3.1,1.4-4.5,2.4c-4,2.9-7.1,6.9-9.9,10.9c-3,4.3-5.5,8.8-8.1,13.3
		c-0.8,1.3-1.6,2.7-2.1,4.2c-1.1,3.7-1,7.7,0.1,11.4c0.2,0.9,0.9,1.7,0.8,2.6c0,0.9,0.3,1.9,0.5,2.8c0.6,1.9,1.2,3.8,2,5.7
		c0.1,0.3,0.2,0.6,0.3,1c0.2,1.4,0.5,2.8,0.8,4.2c0.7,3,1.6,6,3.4,8.6c0.9,1.2,2.3,2.4,3.9,2.2c3,3.9,6.4,7.5,10.2,10.7
		c2.7,2.2,5.5,4.3,8.7,5.8c2.7,1.3,5.7,1.7,8.6,2c3.4,0.3,6.7,0.2,10.1-0.1c1.6-0.1,3.2,0,4.8-0.4c3.2-0.6,6.1-2.1,8.6-4
		c2.1-1.7,4-3.7,5.5-5.9c1.5-2.2,2.7-4.5,3.8-6.9c1.8-3.8,3.1-7.9,3.9-12c1.6-0.4,3.1-0.8,4.5-1.7c0.9-0.6,1.5-1.6,1.9-2.6
		c0.7-1.8,1.1-3.8,1.4-5.7c0.1-0.6,0.2-1.1,0.4-1.6v-0.1c0.4-1.2,0.5-2.4,0.7-3.6C192.2,77.8,192.2,75.2,191.4,72.7z M110.6,71.9
		c-0.2,2.1-0.5,4.2-0.6,6.4c0,2.5,0,4.9,0,7.4c-0.2-0.8-0.5-1.6-0.7-2.4c-0.3-0.9,0.1-1.8-0.3-2.6c-1.1-2.3-1.5-4.8-1.4-7.3
		c-0.1-3.1,1-6,2.5-8.7c0.4-0.6,0.7-1.3,1.3-1.7c0.5-1.5,1.6-2.7,2.2-4.1c0.6-1.4,1.7-2.5,2.4-3.9c1-1.8,2.1-3.5,3.4-5.1
		c0.6-0.9,1.4-1.7,1.8-2.7c1.1-0.7,1.7-1.9,2.6-2.8c0.6-0.6,1.2-1.2,1.8-1.8c1.4-1.3,3-2.4,4.6-3.4c2.1-1,4.3-1.8,6.5-2.2
		c0.3,0,0.6,0,0.8,0c-0.1,0-0.2-0.1-0.3-0.2c1.5-0.1,2.9-0.3,4.4-0.1c1.9,0.1,3.8,0.7,5.7,0.8c1.6,0.2,3.4,0.1,4.9-0.5
		c1.7-0.6,3.3-1.7,4.7-2.8c0.5-0.3,1-0.8,1.4-1.2c1.2-1,2.3-2.1,3.5-3.1c1.7-1.4,3.9-2,6.1-2c4-0.2,8.2,0.9,11.4,3.4
		c2.3,1.8,4.2,4.1,5.8,6.5c1.6,2.8,2.8,5.7,3.5,8.9c0.5,1.8,0.9,3.6,1,5.4c0.3,1.4,0.2,2.8,0.4,4.3c0,1.3,0.1,2.6-0.1,3.8
		c0.2,0.8-0.1,1.6-0.1,2.4c0,1.1-0.2,2.3-0.5,3.4c-0.6-0.4-0.9-1.1-1.4-1.6c-0.6-0.7-1-1.4-1.6-2.1c-0.7-0.6-1.4-1.3-2.2-1.9
		c-0.7-0.4-1.4-0.7-2.1-1c-0.2,0.1-0.4,0.1-0.5,0.1c-0.7,0-1.6,0.2-1.9-0.5c-0.7-1.5-1.6-2.8-2.6-4.2c-1.6-2-3.3-4-5.6-5.2
		c-2.6-1.5-5.8-1.2-8.7-0.5c-4.4,1.2-8.6,2.7-12.8,4.2c-2.3,1-4.7,1.8-7,2.8c-1.5,0.6-2.9,1.2-4.3,1.8c-3.1,1.5-6.2,2.9-9,4.8
		c-0.6,0.4-1.3,1.1-2.1,1c-0.9-0.1-1.8,0.2-2.8,0.1v0.1c-1.6,0-3.2,0.5-4.7,0.2c0.2,0.1,0.4,0.2,0.5,0.4c-1.2-0.2-2.5,0.1-3.7,0.2
		c-1.2,0.2-2.4,0.2-3.5,0.5c-0.2,0.1-0.4,0.3-0.6,0.4c-0.1,0-0.2,0-0.3,0C111.2,67.7,111.1,69.9,110.6,71.9z M163.2,53.8
		c0.3,2.5,0.2,5,0.3,7.5c0.1,1-0.7,2.1-1.7,2.3c-2,0.4-4,0.5-6,0.5c-1.2,0.1-2.5-0.1-3.6-0.7c-0.3-0.1-0.2-0.5-0.2-0.7
		c0-3-0.1-6.1-0.1-9.1c0.6-0.1,1.2-0.4,1.7-0.6c2.5-0.9,4.9-1.7,7.4-2.4c0.6,0.3,1.1,0.8,1.5,1.3C162.9,52.4,163.1,53.1,163.2,53.8z
		 M178.9,70.8c-0.2-0.3-0.6-0.2-0.8-0.3c0,0.4,0.1,0.9-0.1,1.3c-0.2,0.4-0.6,0.5-0.9,0.7c0.3,1.1,0.6,2.2,0.8,3.3
		c0.6,0,1.1-0.1,1.7-0.1c0.9-0.1,1.9-0.1,2.8-0.1c0.8,0.1,1.5,0.8,1.9,1.4c0.2,0,0.5,0,0.7,0c-0.2-2.4-0.9-4.9-1.8-7.1
		c0.4,0.2,0.7,0.3,1.1,0.5c0.9,2.4,1.4,4.9,1.6,7.5c-0.7,0-1.2-0.5-1.7-0.8c0.1,0.1,0.4,0.4,0.5,0.5c1,0.8,1.5,2.1,1.3,3.4
		c-0.2,2.2-1.8,4.1-3.8,5c-1.1-0.1-2.3-0.2-3.3,0.5c-1.2,0.7-1.9,1.9-2.6,3.1c-0.6,1.1-1,2.3-0.7,3.5c0.1,0.5,0.5,0.8,0.9,0.9
		c1.1,0,2.2-0.2,3.2-0.8c1.2-0.7,2.2-1.8,2.8-3.1c0.6-1.2,0.7-2.8-0.1-3.9c0.6,0.4,1.2,1,1.4,1.7c0.3,1.3-0.5,2.6-1.3,3.6
		c-1.4,1.7-3.5,3.1-5.7,3c-0.1,0.3-0.3,0.7-0.4,1.1v0.1c-4.4,0.6-8.8,1.1-13.2,1.8c-2.2,0.4-4.4,0.8-6.6,1.1c0.9-2,0.9-4.2,1.4-6.3
		c1.1-0.6,2.3-1.2,3.2-2c1.8-1.5,3.4-3.6,3.6-6c0.2-1.7-0.6-3.4-1.9-4.5c-1.6-1.4-3.6-2.2-5.7-2.4c-0.8-3.7-1.5-7.4-3.5-10.7
		c5.6-0.3,11.1-0.7,16.7-1c3.4-0.4,6.8,1.5,8.6,4.3c0.4,0.6,1,1.1,1.5,1.5C179.7,71.6,179.2,71.3,178.9,70.8z M182.9,71.6
		c0.5,1.4,0.8,2.9,1.1,4.3c-0.4-0.2-0.8-0.5-1.3-0.5c-1.4-0.1-2.7,0-4.1,0.1c-0.1-0.9-0.4-1.8-0.6-2.6c0.4-0.3,0.8-0.6,1-1.1
		C180.1,72.4,181.7,72.2,182.9,71.6z M178.5,90c-0.1,0.3-0.2,0.6-0.4,0.9c-0.6,0-1.2,0-1.8-0.2c0.1-0.3,0.2-0.5,0.5-0.6
		c1.3-0.5,2.7-0.6,4.1-0.6c0.3,0,1.1,0,0.9,0.6C180.8,89.8,179.6,89.9,178.5,90z M181.7,90.5c-0.9,1.5-2.1,2.9-3.9,3.2
		c-0.5,0.1-1.2,0.2-1.6-0.3c-0.4-0.8-0.1-1.7,0-2.5c0.9,0.2,1.9,0.2,2.8,0C179.9,90.9,180.8,90.8,181.7,90.5z M178.4,89.4
		c-0.6,0.1-1.2,0.2-1.7,0.4c0.7-1.4,1.6-2.9,3.1-3.4c0.7-0.2,1.6-0.3,2.1,0.3c0.6,0.8,0.4,1.8,0.2,2.6
		C180.9,89.1,179.6,89.3,178.4,89.4z M163.1,99.5c0.7-0.4,1.4-0.9,2.1-1.2c1.2-0.3,2.6-0.3,3.8-0.7c0,0.1-0.1,0.2-0.1,0.3
		c-1.5,1.4-3.3,2.4-5.1,3.4c-0.1,0-0.2,0-0.3,0.1C163.4,100.8,163.3,100.1,163.1,99.5z M135.1,102.4c0-0.9,0.6-1.7,0.7-2.6
		c-0.2,0.1-0.3,0.3-0.4,0.5c-0.2,0.7-0.5,1.4-0.7,2.1c-0.9,0.2-1.9,0.3-2.8,0.5c0.3-1.4,0.8-2.8,1.2-4.2c1.6-5.7,2.5-11.6,1.8-17.6
		c-0.4-3.6-1.4-7.1-2.8-10.4c-0.4,0-0.8,0-1.1,0c1.5,3.4,2.5,7,2.9,10.6c0.7,6-0.3,12.1-1.9,17.8c-0.3,1.2-0.8,2.5-1.1,3.7l0,0
		c-0.8,0.1-1.5,0.3-2.3,0.4c0.2-0.8,0.3-1.6,0.6-2.3c1.1-3.5,2.2-7.1,2.5-10.8c0.6-5.4,0.1-10.8-1.5-16c-0.2-0.7-0.5-1.4-0.7-2.2
		c-0.1-1,0-2,0.6-2.8c0.6-0.9,1.8-1.4,2.9-1.4c5.2-0.3,10.4-0.7,15.5-0.9c0.6,0.8,1.1,1.8,1.5,2.7c1.1,2.8,1.8,5.7,2.3,8.6
		c-3.9,2.2-5.6,7.5-3.7,11.5c0.8,1.6,2.3,3,4.1,3.2c-0.2,2.1-0.6,4.1-1,6.1c-0.2,0-0.4,0.1-0.6,0.1
		C145.8,100.5,140.5,101.4,135.1,102.4z M141.6,102.4c0,0.3,0,0.6,0,0.8c-0.6-0.2-1.2-0.3-1.8-0.6
		C140.5,102.6,141.1,102.5,141.6,102.4z M122.7,97.7c0.4-1.3,0.6-2.6,0.8-3.9c0.5-3.4,0.6-6.9,0.3-10.4c-0.6-6.2-3-12.2-6.3-17.5
		c7.5-0.8,15-1.3,22.6-1.9c0.7-0.1,1.4,0.2,2.1,0.3c1,0.2,2,0.2,3,0.3c0.7,0.3,1.2,0.8,1.8,1.2l0.1,0.1c-6.6,0.4-13.2,0.9-19.9,1.3
		c-1.1,0-2.2,0.2-3,1c-1.1,1-1.2,2.7-0.7,4c1.6,3.8,2.5,7.9,2.8,12c0.1,1.9,0.1,3.8,0,5.7c-0.2,4.9-1.8,9.7-3,14.4v0.1
		c-0.9,0.2-1.8,0.4-2.7,0.5c0.3-1.3,1-2.5,1.2-3.8C122.1,99.9,122.4,98.8,122.7,97.7z M138.6,62.2c-1.7,0.7-3.6,1.2-5.4,1.3
		c-1,0-2,0-3,0c2.7-1.7,5.5-3.1,8.4-4.4C138.5,60.1,138.5,61.1,138.6,62.2z M139.3,58.7c0.1,0,0.2-0.1,0.3-0.1
		c3.6-1.6,7.3-3.1,10.9-4.5c0.2-0.1,0.4-0.2,0.6-0.2c0,3,0.1,6.1,0.1,9.1c0.1,0.3-0.3,0.5-0.5,0.7c-0.3,0.2-0.6,0.3-0.9,0.4
		c-1.7,0-3.4-0.2-5-0.3c-1.8-0.1-3.7-0.2-5.2-1.2C139.1,61.3,139.3,60,139.3,58.7z M131.1,90.3c-0.4,1.7-1.1,3.4-2.2,4.7
		c-0.4-0.2-0.9-0.3-1.3-0.1c-0.2-0.6-0.5-1.3-0.3-2c0.1,0.5,0.4,1.1,0.9,1.2c0.9-0.2,1.5-1,1.8-1.8c0.7-1.7,0.9-3.6,1-5.5
		c0-1.6,0-3.2-0.6-4.7c-0.1-0.2-0.2-0.4-0.4-0.6c-0.1-0.3-0.2-0.7-0.2-1c-0.8-0.9-2-0.5-3-0.5c-0.2-0.2-0.3-0.4-0.5-0.6
		c0.8-0.1,1.6-0.2,2.4-0.1c0.5,0,0.8,0.5,1.1,0.9c0.2,0.3,0.3,0.9,0.7,0.9c0.2-0.2,0.1-0.6,0.1-0.9c-0.5-2.6-1.2-5.1-2.1-7.6
		c0.2,0.2,0.5,0.4,0.7,0.6c1.1,2.9,1.8,6,2.1,9.2c-0.1,0-0.4,0-0.5,0C132,84.7,131.7,87.7,131.1,90.3z M124.9,102
		c0.6-1.8,0.9-3.7,1.8-5.4c0.3-0.5,0.7-1,1.2-1.4c0.1,0,0.4,0,0.5,0c0.8,1,0.6,2.4,0.4,3.6c-0.2,0.9-0.4,1.9-0.7,2.8
		C127.2,100.6,125.7,101.2,124.9,102z M127.8,102.4c-0.1,0.2-0.2,0.5-0.3,0.7c-0.2-0.3-0.4-0.7-0.7-0.7c-1-0.1-1.9,0.5-2.3,1.4
		c-0.3-0.3,0-0.7,0.2-1.1c0.5-0.8,1.5-1.2,2.4-1.1C127.5,101.7,127.7,102.1,127.8,102.4z M127.4,87.8c0.6,0.5,1.4,0.5,2.1,0.4
		c0.3-0.1,0.7-0.2,1-0.4l0.2-0.1c-0.3,1.9-0.3,4.1-1.7,5.7c-0.2,0.1-0.5,0.2-0.7,0.2c-0.4-0.3-0.6-0.7-0.7-1.1
		C127.2,90.9,127.3,89.4,127.4,87.8z M127.4,86.4c0.7-0.7,1.7-0.8,2.6-0.5c0.5,0.2,0.7,0.7,0.7,1.2c-0.7-0.7-1.8-0.9-2.7-0.4
		c-0.3,0.2-0.4,0.6-0.5,0.9C127.4,87.1,127.4,86.8,127.4,86.4z M127.4,85.9c0-1.1-0.1-2.2,0.1-3.3c0.1-0.7,0.3-1.4,0.8-1.9
		c0.6-0.4,1.1,0.2,1.5,0.6c0.7,1.4,0.9,2.9,0.9,4.4C129.7,85.1,128.3,85.1,127.4,85.9z M126.2,74.4c0.5,0.6,1.2,0.6,1.8,0.4
		c0.2-0.2,0.4-0.3,0.5-0.5c0.6,1.7,1,3.4,1.4,5.2c-0.3-0.3-0.5-0.5-0.8-0.8c-0.8,0-1.7,0-2.5,0c-0.2-1.1-0.5-2.1-0.8-3.1
		C126.1,75.2,126.2,74.8,126.2,74.4z M125.9,73.1c0.6,0.2,0.7,0.9,1.2,1.4C126.5,74.2,126.2,73.7,125.9,73.1z M127.8,103.4
		c0.7-2.5,1.8-5.1,1.4-7.8c0.7,1.9,0.2,3.9-0.2,5.8c-0.2,0.7-0.4,1.5-0.7,2.2c-0.1,0-0.4,0.1-0.5,0.1V103.4z M152.7,82.3
		c-0.5,0.4-1.3,0.9-1,1.7c0.4,0.1,0.8,0.1,1.1,0.4c0,0.3,0,0.5,0.1,0.8c-0.3,0.2-0.7,0.4-1.1,0.5c0-0.1-0.1-0.3-0.2-0.4
		c-0.2,0.2-0.4,0.4-0.6,0.6c0.2,0.6,0.9,0.3,1.4,0.3c0,0.2,0,0.5,0,0.7c-0.3,0.3-0.7,0.2-1.1,0.2c0.1,0.5,0.1,1.1,0.3,1.6
		c0.3,0.5,0.8,0.8,1.3,1.2c0,0.2,0,0.5,0,0.8c-0.1,0-0.3-0.1-0.4-0.2c-0.9-0.5-1.5-1.3-1.9-2.2c-0.9-2.4,0-5.2,1.9-6.7
		C152.8,81.7,152.8,82,152.7,82.3z M149.1,89.1c0.6,1.7,2,3,3.8,3.5c0,0.1,0,0.2,0,0.3c-0.9-0.3-1.8-0.7-2.5-1.4
		c-1.3-1.3-1.9-3.1-1.9-4.9c-0.1-3,1.5-6,4.1-7.5c0,0.1,0,0.2,0,0.3C149.3,81.3,147.7,85.6,149.1,89.1z M151.8,100.6
		c0,1.3,0.1,2.5,0.1,3.8c-3.2,0-6.3-0.3-9.4-0.9c-0.1-0.4-0.1-0.8-0.2-1.2C145.5,101.7,148.7,101.1,151.8,100.6z M152.8,97.2
		c0.3-2,0.6-4.1,0.8-6.2c0.2-2.2,0.2-4.4,0-6.7c-0.2-3-0.6-6.1-1.3-9.1c-0.5-2.4-1.2-4.8-2.3-6.9c-0.6-1.2-1.6-2.3-2.7-3.2
		c-0.2-0.2-0.5-0.4-0.8-0.5c0.5,0,1.1,0,1.6,0.1c0.2,0.2,0.4,0.4,0.6,0.6c1.6,1.7,2.9,3.6,3.8,5.8c1.1,2.8,1.7,5.7,2.2,8.7
		c0.4,3.1,0.7,6.2,0.6,9.4c0,2.6-0.4,5.3-1,7.8c-0.2,1.1-0.6,2.2-0.7,3.4c-0.5,0.1-0.9-0.1-1.2-0.3
		C152.4,99.2,152.6,98.2,152.8,97.2z M153.9,100.7c0.4-0.4,1-0.4,1.4-0.7c0.9-0.4,1.9-0.3,2.9-0.6c1.2-0.3,2.4,0,3.5,0.2
		c0.3,0.1,0.6,0,0.7,0.3c0.3,0.5,0.3,1.2,0.3,1.8c-2.5,1.1-5.1,1.9-7.7,2.3c-0.7,0.1-1.5,0.1-2.2,0.3c-0.2-1.1-0.1-2.3-0.2-3.4
		C153,101,153.6,101.1,153.9,100.7z M161.6,98.8c0.5-0.1,1-0.3,1.5,0C162.7,99.2,162,99.2,161.6,98.8z M158,91.6
		c1.9-0.9,3.7-2.3,4.8-4.1c0.8-1.4,1.3-3,0.8-4.6c-0.5-1.7-1.9-2.9-3.4-3.7c-1-0.5-2.1-0.8-3.1-0.9c0-0.1-0.1-0.2-0.1-0.3
		c2.4,0.2,4.8,1.4,6.2,3.4c1,1.4,1.1,3.2,0.5,4.7c-1,2.8-3.4,4.8-6,6l0.1-0.3C157.8,91.7,157.9,91.6,158,91.6z M157.4,79.9
		c1.4,0.3,2.9,1,3.8,2.2c0.9,1.1,1,2.6,0.5,3.9c-0.7,1.8-2.1,3.1-3.7,4c0-0.3,0-0.7,0.1-1c0,0.1,0.1,0.4,0.1,0.5
		c0.4-0.4,0.8-0.9,1.3-1.2c0.4-0.2,0.5-0.6,0.7-0.9c0.1,0,0.3,0,0.4,0c0.3-1,0.6-1.9,0.7-2.9c-0.2-0.5-0.4-1-0.3-1.5
		c-0.1,0-0.3,0-0.4,0c0-0.5,0-1-0.1-1.4c-0.1,0.2-0.2,0.5-0.3,0.7c-0.5-0.3-0.7-0.7-0.9-1.2c0,0.2,0,0.5-0.1,0.6
		c-0.2-0.3-0.4-0.6-0.6-0.9c0,0.2,0,0.6,0.1,0.8c-0.3-0.1-0.5-0.3-0.6-0.6c0-0.1-0.1-0.2-0.1-0.2c-0.1,0-0.3,0-0.4,0.1v-0.3
		C157.4,80.3,157.4,80.1,157.4,79.9z M157.7,81.2c0,0.1,0,0.4-0.1,0.6c0.3,0,0.7-0.1,1.1-0.1c-0.2,0.2-0.5,0.3-0.7,0.5
		c0.4,0,0.9-0.1,1.3-0.2c-0.1,0.1-0.2,0.3-0.3,0.4c0.2,0,0.5-0.1,0.7-0.1c0.1,0.1,0.3,0.2,0.4,0.3c-0.2,0.2-0.3,0.3-0.5,0.5
		c0.2,0,0.5,0,0.6,0c0.1,0.2,0.2,0.3,0.2,0.5c-0.1,0.2-0.2,0.4-0.3,0.6c0.1,0,0.4-0.1,0.5-0.2c0,0.2,0,0.5,0.1,0.7
		c-0.1,0.1-0.3,0.2-0.4,0.3c0.1,0,0.4,0.1,0.5,0.1c-0.1,0.7-0.6,1.1-1.1,1.5c0.1,0,0.4,0.1,0.5,0.1c-0.4,0.3-0.8,0.5-1.2,0.8
		c0.1,0.1,0.2,0.2,0.3,0.3c-0.5,0.3-1.1,0.5-1.4,0.9c0-0.3,0-0.7,0-1c0.4-0.1,0.8-0.3,1-0.7c-0.4,0-0.7,0-1.1,0
		c0.2-0.5,0.9-0.2,1.3-0.3c0.1-0.1,0.2-0.3,0.3-0.4c-0.5,0-1,0-1.5,0.1c0-0.1,0-0.3-0.1-0.4c0.6,0,1.2,0,1.8-0.1
		c0-0.1,0.1-0.4,0.1-0.5c-0.7,0-1.3,0-2,0.1c0-0.1-0.1-0.2-0.1-0.3h0.1c0.7,0,1.3-0.1,2-0.1c0-0.1,0-0.4,0-0.6c-0.3,0-0.5,0-0.8,0.1
		c-0.4,0-0.9,0-1.3,0.1c0-0.1,0-0.2,0.1-0.3c0.6,0,1.1-0.1,1.7-0.1c0.1,0,0.2-0.1,0.2-0.2c-0.1-0.1-0.2-0.2-0.2-0.2
		c-0.6,0.1-1.2,0.1-1.8,0.1v-0.4c0.6,0,1.2-0.1,1.8-0.1c-0.6-0.3-1.2-0.1-1.8-0.2V83c0.5,0,1.1,0,1.6-0.1c-0.5-0.4-1.1-0.4-1.6-0.4
		c0-0.5-0.1-0.9-0.2-1.4L157.7,81.2z M155.2,72.6c1,3.6,1.7,7.4,2.1,11.1c0.2,2.6,0.3,5.2,0,7.8c-0.3,1.6-0.5,3.3-0.8,4.9
		c-0.2,0.8-0.3,1.7-0.8,2.4c-0.3,0.4-0.6,0.8-1,1c-0.1,0-0.3,0-0.4,0c0.2-0.8,0.4-1.6,0.6-2.4v-0.1c0.6-2.7,1-5.3,1-8
		c0-0.2,0-0.4,0-0.6c-0.1-5.4-0.6-10.8-2.2-15.9c-0.9-3-2.4-5.8-4.7-7.9h0.1c0.7,0,1.4-0.1,2-0.5C153.2,66.7,154.4,69.6,155.2,72.6z
		 M164.2,51.6c0.4-0.8,0.8-1.7,1.5-2.1c1.3-0.1,2.7,0,4,0.4c0.4,0.6,0.8,1.2,1.1,1.8c0.4,1.2,0.3,2.6,0.3,3.9c0,1.4,0.1,2.8-0.1,4.2
		c-0.6,0.4-1.3,0.7-2,1.1c-1.5,0.6-3.2,0.4-4.8,0.4c0-2.8,0-5.6-0.5-8.4C163.9,52.4,164,52,164.2,51.6z M171.8,59.5
		c0.2-2.1,0-4.2,0.1-6.2c0.1-0.4,0.3-0.7,0.5-1c0.2-0.2,0.4-0.8,0.8-0.5c2.2,1.7,3.7,4,5.2,6.3c-0.1,0.2-0.3,0.5-0.4,0.7
		c-0.6,0.8-1.6,1.1-2.6,1.2C174.1,60.1,172.9,59.9,171.8,59.5z M118.8,105.5c-1.4,0-2.5-1.1-3.2-2.2c-1.4-2.3-2.1-4.9-2.8-7.4
		c-1.1-4.8-1.7-9.6-1.9-14.5c0-4.3,0.4-8.5,1.4-12.7c0.2-0.6,0.3-1.3,0.7-1.8c0.7-0.5,1.5-0.6,2.4-0.7c0.6,0.9,1.2,1.8,1.7,2.7
		c1.5,2.6,2.7,5.4,3.5,8.3c0.1,0.4,0.3,0.8,0.3,1.3v-0.2c0.5,1.8,0.8,3.7,0.9,5.6c0,0.5,0.2,0.9,0.1,1.4c0.2,3.7,0,7.5-0.4,11.2
		c-0.2,2.4-0.8,4.8-1.6,7.1C119.6,104.2,119.2,104.8,118.8,105.5z M181.7,97.9c-0.4,2.3-1.2,4.5-2,6.7c-0.1,0-0.2,0-0.3,0l0.1,0.2
		c-1.3,3.2-2.8,6.4-4.8,9.2c-1.5,2.4-3.5,4.4-5.7,6.1c-1.6,1-3.2,2-4.9,2.6c-1.3,0.4-2.6,0.8-4,1s-2.9,0-4.4,0.2
		c-1.2,0.1-2.5,0-3.7,0.2c-3.2,0.1-6.4-0.3-9.6-0.8c-1.4-0.3-2.8-0.7-4-1.4c-3.7-1.6-6.8-4.1-9.9-6.6c-0.2-0.3-0.4-0.6-0.7-0.8
		c-1.1-0.9-2-2-3-2.9c-0.1-0.1-0.3-0.3-0.3-0.4c-0.5-0.3-0.7-0.8-1.1-1.2c-0.9-0.8-1.5-1.8-2.3-2.7c-0.3-0.4-0.7-0.7-0.7-1.2
		c1-0.3,2-0.4,3.1-0.6c4.7-0.9,9.5-1.7,14.3-2.6c0.6-0.2,1.2,0,1.7,0.2c1.4,0.5,2.8,0.8,4.2,1.1c1.8,0.3,3.5,0.7,5.4,0.6
		c5,0.4,10.1-0.6,14.5-2.8c1.9-0.9,3.7-2,5.3-3.3c0.5-0.4,0.8-1,1.4-1.2c2.7-0.5,5.6-0.6,8.3-1.2c1.1-0.2,2.2-0.3,3.2-0.5
		C182.3,96.5,181.8,97.2,181.7,97.9z M190.1,83.7c-0.1,0.8-0.2,1.7-0.5,2.4c-0.6,1.5-1.2,3.1-2,4.5c-0.5,1-1.1,1.9-1.5,2.8
		c0,0-0.1,0.1-0.1,0.2c-1.1,0.4-2.2,0.7-3.4,1l0.1-0.1c1.4-3,3-5.8,3.9-9c1.6-5.4,1.2-11.3-1-16.4c-1-2.1-3-3.6-5.1-4.5
		c-1.3-0.5-2.7-0.8-4-0.7c-4.2,0.3-8.4,0.6-12.5,0.9c-3.7,0.2-7.5,0.4-11.2,0.7c-0.3-0.5-0.7-1-1.1-1.4l-0.2-0.2
		c0.6,0.2,1.1,0.6,1.8,0.7c1.2,0.4,2.5,0.2,3.7,0.2c1.7-0.1,3.3-0.2,5-0.5c0.5-0.1,1-0.4,1.4-0.6c0.3-0.5,0.6-0.9,0.8-1.4
		c5.3-0.4,10.6-0.8,15.9-1.2c1-0.2,2.2-0.3,3.1,0.2c1,0.4,1.5,1.3,2.1,2c1.6,2,3,4.2,4,6.6c0.9,1.7,0.9,3.7,1.1,5.6
		C190.5,78.2,190.4,81,190.1,83.7z"/>
	<path d="M178.8,63.8c1,0.3,2,0.7,2.9,1.2c1,0.6,1.9,1.4,2.8,2.1c-0.7-1.2-1.5-2.4-2.4-3.5C181.1,63.6,180,63.7,178.8,63.8z"/>
	<path d="M115.8,69.6c0-1.4-2-2-2.9-1C114,68.3,115.3,68.5,115.8,69.6z"/>
	<path d="M143.8,73.2c0.5-0.1,0.9-0.5,0.8-1c-0.1-0.5-0.3-1-0.6-1.5c-1.1,0.1-2.1,0.2-3.2,0.2c0.2,0.7,0.5,1.5,1.1,2
		C142.4,73.3,143.1,73.3,143.8,73.2z M142.5,72.8c-0.7-0.2-1.1-0.9-1.3-1.6c0.9,0,1.8,0,2.7-0.2c0.2,0.5,0.6,1.1,0.2,1.5
		C143.6,73,143,72.9,142.5,72.8z"/>
	<path d="M136.7,72.5c0.4-0.2,0.7-0.3,1.1-0.5c0.1,0.4,0.3,0.7,0.4,1.1c-0.4-0.1-0.8-0.2-1.2-0.4c-0.1,0.1-0.3,0.2-0.4,0.3
		c1.1,0.2,2.1,0.7,3.2,0.8c-0.2-0.5-0.8-0.5-1.3-0.6c-0.1-0.4-0.3-0.9-0.5-1.3c0.3-0.1,0.6-0.2,0.9-0.5c-0.1,0-0.3,0-0.4-0.1
		c-0.9,0.4-1.8,0.9-2.7,1.4C136.1,72.9,136.5,72.9,136.7,72.5z"/>
	<path d="M114.7,72.1c0.6,0.3,1.2,0.5,1.8,0.9c0.7,0.5,1.2,1.3,1.5,2.1c0.1,0.3,0.2,0.6,0.3,0.9c0.4,1.2,0.7,2.5,1.2,3.6
		c-0.1-1.3-0.5-2.6-0.8-3.9s-1.1-2.6-2.4-3.1C115.8,72.2,115.2,72.1,114.7,72.1z"/>
	<path d="M145.2,74.2c-0.7-0.5-1.6-0.4-2.4-0.3c-0.5,0.1-0.9,0.6-0.6,1.1c0.4,1.2,1.9,1.2,2.9,0.8C145.9,75.6,145.7,74.6,145.2,74.2
		z M145.3,75.4c-0.7,0.2-1.6,0.4-2.3,0.1c-0.5-0.2-0.8-1-0.1-1.2c0.8-0.1,2-0.3,2.5,0.6C145.3,75,145.3,75.3,145.3,75.4z"/>
	<path d="M140.5,78.6c-0.7-0.3-1.4-0.3-2.1-0.1c-0.8,0.2-0.7,1.4-0.2,1.8s1.1,0.3,1.7,0.3c0.4-0.1,0.9-0.2,1.1-0.7
		C141.2,79.4,141,78.8,140.5,78.6z M140.6,80c-0.6,0.3-1.4,0.3-2.1,0.1c-0.5-0.1-0.7-0.9-0.2-1.2c0.7-0.3,1.5-0.2,2.2,0
		C140.8,79.2,141,79.7,140.6,80z"/>
	<path d="M112.1,84.3c0.2-1.8,0.2-3.7,0-5.5C111.7,80.6,111.7,82.5,112.1,84.3z"/>
	<path d="M138.8,81.2c-0.3,0.4-0.6,0.9-0.8,1.4c1,0,2-0.1,3-0.1c0,0.3,0,0.5,0,0.8c0.1-0.1,0.2-0.2,0.3-0.2c0-0.6-0.1-1.2-0.1-1.7
		c-0.5,0.1,0,0.7-0.4,0.8c-0.8,0.1-1.6,0-2.3,0.1C138.6,81.9,139.1,81.6,138.8,81.2z"/>
	<path d="M141.4,83.9c-0.8,0.7-1.5,1.6-2.6,1.9c-0.6-0.3-0.3-1-0.2-1.5c-0.5,0-0.4,0.6-0.5,0.9c-0.1,0.4,0.2,1,0.7,1
		c0.9-0.1,1.6-0.9,2.3-1.5c0,0.5-0.2,1.1,0.1,1.6C141.4,85.5,141.3,84.7,141.4,83.9z"/>
	<path d="M113,86.2c-0.1,1.9,0.6,3.8,1.7,5.4C114.2,89.8,113.6,88,113,86.2z"/>
	<path d="M113.6,94.4c0,1.4,0.9,3.2,2.5,3.2C114.8,96.9,114.2,95.5,113.6,94.4z"/>
	<path d="M119.9,94.9c-0.2,0.5-0.4,1-0.6,1.5c-0.6,1-1.5,1.9-2.3,2.8c-0.2,0.2-0.5,0.4-0.7,0.7c0.6-0.2,1.1-0.6,1.6-1
		C119.1,97.9,120,96.5,119.9,94.9z"/>
	<path d="M116.3,98c0.3-0.1,0.6-0.2,0.9-0.4c0.7-0.3,1.2-0.9,1.6-1.6c0-0.1,0-0.2,0-0.3c-0.3,0.3-0.5,0.5-0.8,0.8
		C117.4,97.1,116.8,97.5,116.3,98z"/>
	<path d="M115.3,100c-0.6-0.8-1.1-1.7-1.6-2.6c0,1.3,0.7,2.5,1.8,3.2c0.2,0,0.3,0,0.5,0C115.7,100.4,115.5,100.2,115.3,100z"/>
	<path d="M135.7,102c0.9-0.5,1.8-1.2,2.7-1.7c0-0.1,0.1-0.3,0.1-0.4c-1,0.7-2,1.4-3.1,2C135.5,101.9,135.6,102,135.7,102z"/>
	<path d="M114.4,72.4c-1.3,0.6-2.2,2-2.5,3.4c0.5-0.5,0.7-1.1,1.2-1.7C113.5,73.5,114,73,114.4,72.4z"/>
	<path d="M124.8,67.3c-1.2,0.1-2.3,0.2-3.5,0.3c0.6,1,1.1,2,1.6,3C123,69.3,123.6,68,124.8,67.3z"/>
	<path d="M114.6,70.6c1,0,1.8,0.5,2.5,1.1c-0.2-0.3-0.4-0.6-0.6-0.8c-0.9-0.6-2-0.9-3.1-0.7c-0.3,0.1-0.5,0.3-0.6,0.6
		c-0.2,0.7-0.4,1.4-0.5,2.1c0.4-0.7,0.6-1.5,0.9-2.2C113.6,70.5,114.1,70.6,114.6,70.6z"/>
	<path d="M168.5,71.2c-0.4,0-0.7,0-1.1,0c0.4,0.9,0.6,1.9,0.9,2.9c0.7,2.9,0.9,5.8,0.7,8.8c-0.3,4.1-1.5,8.1-3,12
		c-0.3,0.8-0.6,1.5-1,2.3c0.3-0.1,0.7-0.1,1-0.2c1.8-4,3.2-8.3,3.8-12.6C170.4,79.9,170,75.3,168.5,71.2z"/>
	<path d="M173.6,72.9c-0.6,0-1.2,0-1.9,0c0.9,3.5,1.2,7.1,0.7,10.7s-1.5,7-2.8,10.3c0.6-0.1,1.2-0.1,1.8-0.3
		c1.3-3.2,2.3-6.5,2.8-9.9C174.7,80.1,174.5,76.4,173.6,72.9z"/>
	<path d="M114.4,73.9c0.5,0.3,0.9,0.8,1.2,1.3c0.6,0.9,1.1,1.8,1.5,2.7c0.2,0.3,0.3,0.6,0.5,1c0.6,1.4,1,2.9,1.4,4.3
		c-0.4-3.2-1.5-6.5-3.6-8.9c-0.2-0.2-0.5-0.4-0.7-0.6c-0.3-0.2-0.7,0.1-0.9,0.3c-0.7,0.9-1.1,1.9-1.3,3
		C113,75.9,113.4,74.7,114.4,73.9z"/>
	<path d="M121.2,90.8c-0.2,1.7-0.5,3.4-0.1,5.1c0.2-1.4,0.4-2.9,0.3-4.4C121.3,91.2,121.3,91,121.2,90.8z"/>
	<path d="M137.5,76.4c0.5,0.2,1,0,1-0.6c0.3,0.6,1.1,0.9,1.6,0.4c0.1-0.7-0.1-1.3-0.4-1.9c-1.1,0.1-2.1,0.1-3.2,0.1
		C136.8,75.1,136.9,76,137.5,76.4z M139.7,74.7c0.1,0.3,0.2,0.6,0.2,1c-0.1,0.1-0.2,0.3-0.2,0.5c-0.8,0.2-1.1-0.7-1.3-1.3
		C138.9,74.7,139.3,74.7,139.7,74.7z M138,76.1c-0.7,0.1-0.8-0.8-1-1.3c0.4,0,0.8,0,1.2,0C138.3,75.2,138.5,75.8,138,76.1z"/>
	<path d="M165.7,94.3c1.6-4.4,2.9-9,2.9-13.7c0-2-0.2-4.1-0.6-6.1c-0.4,0-0.7,0-1.1,0c0.1,0.9,0.3,1.7,0.4,2.5
		c0.8,5.9-0.6,11.9-2.6,17.4C165,94.4,165.3,94.3,165.7,94.3z"/>
	<path d="M127,78.4c0.4,0,0.7,0,1.1-0.1c-0.2-0.9-0.5-1.9-0.7-2.8c-0.2-0.2-0.5-0.3-0.8-0.5c-0.1,0.3-0.3,0.7-0.2,1
		C126.5,76.8,126.8,77.6,127,78.4z"/>
	<path d="M116.3,92.6c0.3-0.2,0.6-0.3,0.8-0.6c0.6-1.6,0.8-3.4,0.8-5.1c0-2.7-0.2-5.4-1.1-8c-0.3-0.8-0.6-1.6-1.2-2.2
		c-0.3-0.3-0.7-0.8-1.2-0.8c-0.5,0.4-0.6,1-0.7,1.6c-0.4,2.3-0.5,4.7-0.4,7c0.1-0.4,0.1-0.9,0.2-1.3c0.1-0.8,0.1-1.6,0.3-2.4
		c0.1-0.8,0.5-1.4,0.7-2.2c0.1,0,0.1,0,0.2-0.1c-0.6,2.2-0.5,4.6-0.4,6.9c0.3,1.9,0.4,3.8,1.1,5.7C115.6,91.7,115.9,92.2,116.3,92.6
		z"/>
	<path d="M179.8,85.6c1.1,0.1,2.2,0,3-0.7c2.1-1.7,2.7-5,1.2-7.2c-0.2-0.2-0.5-0.4-0.7-0.7c0.3-0.4-0.2-0.7-0.5-0.7
		c-0.7-0.1-1.3-0.1-2,0c-0.2,0-0.4,0.2-0.5,0.4c-1.1,0.4-1.6,1.5-1.9,2.5c-0.4,1.6-0.6,3.3-0.2,4.8C178.5,84.8,179,85.5,179.8,85.6z
		 M179.7,77.6c0.8-1.2,2.7-1.2,3.6-0.1c0.7,0.8,0.9,1.9,1,2.9c-1-0.5-2.2-0.3-3.3-0.3c-0.8,0-1.6,0.3-2.3,0.5
		C178.8,79.7,179,78.5,179.7,77.6z M180.9,80.5c1,0,2.1-0.2,3.1,0.2c0.2,0.1,0.5,0.6,0.1,0.5c-1.1-0.4-2.3-0.4-3.5-0.2
		c0,0.3,0,0.6,0,0.9c-0.6-0.1-1.7,0-1.9-0.7C179.1,80.6,180.1,80.6,180.9,80.5z M184.2,81.7c-0.4,1.4-1.2,3-2.7,3.6
		c-0.7,0.2-1.7,0.3-2.2-0.4c-0.7-0.8-0.7-2-0.7-3.1C180.4,82.4,182.4,82.3,184.2,81.7z"/>
	<path d="M173.8,91.2c0.3,0,0.7-0.1,1-0.1c1.8-4.6,2.7-9.6,2.2-14.6c-0.4,0-0.7,0-1.1,0C176.5,81.5,175.5,86.6,173.8,91.2z"/>
	<path d="M120.8,80.2c0,0.2-0.1,0.5-0.1,0.7c0,1.6,0,3.2-0.1,4.8c0,0.4-0.1,0.7-0.1,1.1c0.5-0.8,0.6-1.7,0.7-2.6
		C121.2,82.9,121.1,81.5,120.8,80.2z"/>
	<path d="M127.8,85c0.3-0.1,0.7-0.1,1-0.2c0-1.3-0.1-2.6-0.3-3.9C127.8,82.2,127.9,83.7,127.8,85z"/>
	<path d="M116.3,95.8c-0.4-0.5-0.8-0.9-1.2-1.5c-1.6-2.2-2.4-4.8-2.6-7.5c-0.3,1.3,0,2.7,0.3,4C113.5,92.8,114.7,94.6,116.3,95.8z"
		/>
	<path d="M140.9,87.8c0,0.5-0.5,1.1-1,1c-0.4-0.3-0.2-0.9-0.3-1.3c-0.5,0.4-1,0.8-1.4,1.2c0.1-0.5,0.2-1,0.1-1.6l-0.3,0.2
		c-0.1,0.6-0.1,1.3-0.2,1.9c0.5-0.4,1-0.8,1.4-1.2c0,0.3-0.1,0.7,0.2,0.9c0.2,0.3,0.7,0.3,1,0.1c0.7-0.4,0.9-1.4,0.7-2.1
		C140.8,87.1,141,87.5,140.9,87.8z"/>
	<path d="M128.4,93c0.1-1.4,0.3-2.8,0.4-4.2c-0.4,0-0.7-0.1-1.1-0.1c0,1.5,0,3.1,0.4,4.5C128.2,93.1,128.3,93,128.4,93z"/>
	<path d="M119.4,88.8c-0.5,1.8-0.8,3.6-1.1,5.5c-0.1,0.5-0.3,0.9-0.5,1.3c0.1-0.1,0.2-0.2,0.3-0.3c0.5-0.6,0.7-1.5,0.9-2.2
		C119.3,91.7,119.5,90.2,119.4,88.8z"/>
	<path d="M140,89.7c-0.6,0.3-1,0.8-1.6,1.3c-0.4,0.3-0.8,0.6-1,1.1c0.7,0,1.3-0.1,1.9-0.1c0,0.2-0.1,0.5-0.1,0.7
		c0.4-0.1,0.3-0.5,0.4-0.8c0.3,0,0.7,0,1-0.1c0-0.1,0-0.3,0-0.4c-0.3,0-0.6,0-1,0.1C139.8,90.9,139.9,90.3,140,89.7z M139.4,91.4
		c-0.4,0.2-0.9,0.1-1.4,0.2c0.5-0.5,1-0.9,1.6-1.4C139.6,90.7,139.5,91.1,139.4,91.4z"/>
	<path d="M139.5,94.7c-0.3,0.2-0.6,0.1-0.9,0.1c0-0.5,0-0.9,0.1-1.3c-0.5,0-1,0.1-1.5,0.1c-0.1,0.6-0.3,1.2-0.4,1.8
		c0.1,0,0.2-0.1,0.3-0.1c0.1-0.4,0.2-0.9,0.3-1.4c0.3,0,0.6,0,0.9,0c0,0.4-0.2,0.8,0,1.2c0.3,0.4,0.8,0.2,1.2,0
		c0.6-0.4,0.8-1.2,0.9-2c-0.1,0-0.2,0-0.3,0C140,93.7,139.9,94.3,139.5,94.7z"/>
	<path d="M126.9,97.3c-0.5,1.2-0.9,2.4-1.3,3.6c0.4-0.1,0.8-0.2,1.1-0.4c0.4-1.6,0.8-3.2,1.1-4.8C127.3,96.2,127.1,96.8,126.9,97.3z
		"/>
	<path d="M136.4,97.7c-0.2,0.3-0.6,0.7-0.4,1.1c0.4-0.8,1-1.6,1.9-2c-0.3,0.5-0.6,1-0.5,1.6c-0.1,0.3,0.2,0.5,0.4,0.5
		c1.1-0.1,1.9-1.5,1.5-2.5C138.1,96.1,137,96.9,136.4,97.7z M137.9,98.5c-0.6-0.3-0.1-1.1,0.2-1.5s0.7-0.2,1,0
		C139.1,97.7,138.7,98.5,137.9,98.5z"/>
	<path d="M118.6,103.8c-0.3,0.3-0.6,0.6-0.9,0.9c0.7-0.2,1.4-0.8,1.7-1.4c0.4-1.3,0.8-2.7,0.9-4.1c-0.5,1-0.9,2-1.1,3.1
		C119.1,102.7,119,103.3,118.6,103.8z"/>
	<path d="M117.1,102.1c-0.3-0.1-0.5-0.2-0.8-0.3c0.3,0.3,0.6,0.7,1.1,0.7c0.5-0.5,0.8-1.2,0.8-1.9
		C117.8,101,117.5,101.6,117.1,102.1z"/>
	<path d="M178.2,101.4c-1.4,0-2.1,1.4-3.2,2c-0.3-0.2-0.5-0.4-0.8-0.6c-0.1,0.5-0.2,1.1-0.3,1.6c-0.3-0.1-0.6-0.4-0.8,0
		c-0.5,1.3,0.4,2.5,0.7,3.7c0.1,0.8,0,1.7,0.2,2.5c0.1,0,0.3,0,0.4,0c0.9-1.2,0.2-2.8,0.7-4.1c0.4,0.1,0.9,0.5,1.2,0
		c-0.3-0.5-0.5-1.1-0.3-1.7C176.5,103.6,177.7,102.7,178.2,101.4z"/>
	<path d="M171.3,106.7c-0.4-0.3-0.8,0.2-0.7,0.6c0.1,0.7,0.4,1.4,0.1,2.2c-0.7-0.2-0.7-1.2-1.2-1.7c-0.3,0.3-0.7,0.6-0.6,1.1
		c0,0.9,0.6,1.6,0.8,2.4c0.1,1.2,0.1,2.4,0.1,3.6c0,0.3,0,0.7,0.3,0.8c0.4-0.1,0.7-0.5,0.9-0.8c0.5-1-0.2-2.1,0.2-3.1
		c0.1,0,0.2,0,0.2,0c0.3,0.5,0.4,1,0.7,1.5c0,0,0.1,0,0.2,0c0.3-1.9,0.1-3.9-0.5-5.8C171.6,107.2,171.6,106.8,171.3,106.7z"/>
	<path d="M167.1,109.9c0,1.1,0.4,2.3-0.1,3.4c-0.9-0.2-0.9-1.2-1.2-1.9c-0.1-0.3-0.5-0.4-0.8-0.4c-0.2,1-0.1,2.1,0.3,3.1
		c0.4,1.1,0,2.2,0.2,3.3c0.1,0.2,0.1,0.5,0.3,0.5c0.6-0.8,0.1-2.1,1-2.8c0.1,0.7,0.2,1.5,0.2,2.2c0.1,0,0.4,0.1,0.5,0.2
		c0.2-0.4,0.4-0.9,0.4-1.3c0.2-1.7,0.2-3.4,0-5C167.7,110.7,167.5,110.2,167.1,109.9z"/>
	<path d="M162.2,111.7c-0.9,0.4-0.5,1.5-0.7,2.2c0,0.2,0.1,0.3,0.1,0.5c-0.1,0.1-0.3,0.5-0.4,0.2c-0.3-0.8,0-1.7-0.4-2.5
		c-0.2-0.1-0.4-0.2-0.6-0.3c-0.5,0.4-0.8,1-0.8,1.7c0-0.3-0.1-0.5-0.3-0.8c0,0.1-0.1,0.4-0.1,0.6c0-0.2-0.1-0.4-0.1-0.6
		c-0.4,0.3-0.2,0.9-0.2,1.3c0.2,1.7,0.2,3.4,0.3,5.1c0,0.6,0.6,0.9,1.1,0.9c0.4-1,0.3-2.2,0.3-3.3c0-0.1,0.1-0.2,0.2-0.2
		c0.1,0.8-0.1,1.7,0.3,2.4c0.2,0.4,0.7,0.3,1,0.3c0.4-1.1-0.1-2.4,0.7-3.4c0.2,0.4,0.3,0.9,0.4,1.3c0.2-0.3,0.3-0.7,0.3-1.1
		C163.4,114.6,163.2,113,162.2,111.7z"/>
	<path d="M139.6,114.2c-0.3,0.4-0.5,0.8-0.7,1.2c-0.2-0.1-0.6,0-0.7-0.3c-0.3-0.6-0.2-1.4-0.7-1.9c-0.3,0.1-0.2,0.4-0.4,0.6
		c-0.3-0.3-0.5-0.7-0.8-1c-0.2,0.8,0.1,1.6,0.1,2.4c0.2,1.1,0,2.3,0.1,3.4c0,0.4,0.5,0.6,0.8,0.4c0.4-0.7,0.2-1.5,0.6-2.2
		c0.5,0.5,0.5,1.2,0.8,1.8c0.2,0.4,0.6,0.9,1.1,0.6c0.5-0.4,0.6-1.2,0.5-1.8C140.3,116.3,140.2,115.2,139.6,114.2z"/>
	<path d="M147.1,115.6c-0.1,0.4-0.2,0.9-0.4,1.2c-0.2,0.2-0.5-0.1-0.6-0.3c-0.3-0.7-0.5-1.4-0.9-2c-0.3,0-0.7,0.1-0.8,0.5
		c-0.2,0.9,0.6,1.6,0.8,2.4c0.4,0.8,0.1,1.8,0.4,2.7c0.1,0.2,0.2,0.5,0.4,0.4c0.5-0.4,0.4-1.1,0.6-1.7c0.2,0,0.4,0,0.6,0
		c0.3,0.8,0.3,1.7,0.3,2.6c0,0.2,0.1,0.6,0.4,0.5c0.7-0.9,0.5-2.1,0.6-3.1c0-1-0.1-2-0.6-2.8C147.9,115.4,147.5,115.6,147.1,115.6z"
		/>
	<path d="M143,115.9c-0.2,0.3-0.1,1-0.6,1c-0.3-0.6-0.3-1.6-1.1-1.9c-0.2,0.6,0,1.2,0.1,1.7c0.3,1,0.1,2.1,0,3.2
		c-0.1,0.3,0.2,0.6,0.4,0.8c0.6-0.4,0.4-1.1,0.5-1.7c0-0.4,0.3-0.6,0.6-0.9c0.7,0.9,0.4,2.1,0.5,3.2c1.1-1.5,1.1-3.5,0.3-5.2
		C143.5,115.9,143.3,115.9,143,115.9z"/>
</g>
</svg>
