<?xml version="1.0" encoding="utf-8"?>
<!-- Generator: Adobe Illustrator 23.0.1, SVG Export Plug-In . SVG Version: 6.00 Build 0)  -->
<svg version="1.1" id="Слой_1" xmlns="http://www.w3.org/2000/svg" xmlns:xlink="http://www.w3.org/1999/xlink" x="0px" y="0px"
	 viewBox="0 0 238.1 150.2" style="enable-background:new 0 0 238.1 150.2;" xml:space="preserve">
<style type="text/css">
	.st0{fill:#020202;}
</style>
<g>
	<g>
		<path class="st0" d="M178.4,82.1c1.1-0.2,2.2,0,3.2,0.4c2.1,0.6,4.1,1.6,5.9,2.8c1.4,0.9,2.7,1.9,3.8,3.1c0.7,0.6,1.2,1.3,1.9,1.9
			c0.6,0.6,1.1,1.4,1.9,1.7c0.9,0.4,1.7,0.9,2.5,1.5c1,0.1,2,0,3,0c0.4,0,0.8,0.2,1.2,0.1c0.7-0.6,1.5-1.2,2.4-1.6
			c0.6,0,1.4-0.2,1.9,0.3c0.6,0.6,1.2,1.2,1.5,2c0.3,1,0.8,2,1,3.1c0.2,0.7,0.3,1.5,0.5,2.2c0.1,0.8,0.3,1.6,0.5,2.4
			c0.2,0.9,0.9,1.7,0.9,2.7c0.1,0.5,0,1,0.2,1.5c0.5,1,0.7,2.1,0.9,3.2c0.3,0.7,1.1,1,1.5,1.7c0.3,0.5,0.7,1,1,1.6
			c0.3,0.5,0.3,1.2,0.3,1.8c0,0.6-0.3,1.1-0.7,1.5c-1-0.1-1.9-0.7-2.9-0.8c-0.1,1.1-0.3,2.2-0.3,3.3c-0.1,0.9-0.1,1.9-0.3,2.8
			c-0.2,0.5-0.4,0.9-0.6,1.4c-0.5,1.1-0.8,2.3-1.3,3.4c0,0.6,0.1,1.2-0.2,1.7c-0.6,0.1-0.9,0.8-1.5,0.8c-1.4,0.2-2.8-0.1-4.2,0.1
			c-0.8,0.1-1.6,0.1-2.4,0.2c-1,0.2-2,0.6-3.1,0.7c-0.7,0-1.3,0.1-1.9,0.1c-0.9,0.1-1.8,0-2.7,0c-0.2,0.8-0.6,1.5-1.1,2.2
			c-0.3,0.4-0.7,0.8-1.2,1c-0.8,0.3-1.6,0.9-2.4,1.3c-1.9,0.9-3.7,1.9-5.6,2.7c-1.3,0.5-2.5,0.9-3.8,1.2c-0.9,0.3-1.8,0.3-2.6,0.3
			c-1.1,0-2.2-0.1-3.2-0.5c-1.1-0.5-2.2-1.1-3.3-1.6c-0.6-0.3-1.3-0.5-1.8-1c-0.9-0.8-1.7-1.7-2.4-2.6c-1.3-1.4-2.1-3.2-2.7-5
			c-0.1-0.5-0.3-1.1-0.4-1.6c-1.3-0.3-2.5-0.6-3.8-0.7c-1.4,0-2.7-0.1-4-0.6c-1.2-0.4-2.3-1.2-3.5-1.7c-0.3-0.1-0.7-0.1-1-0.2
			c-1-0.6-1.7-1.5-2.6-2.3c-0.3-0.2-0.2-0.6-0.1-0.9c0.1-0.3-0.1-0.6-0.2-0.9c-0.1-3,0.4-6,0.9-8.9c0.2-1.3,0.4-2.7,0.6-4
			c0.1-0.6,0.2-1.2,0.4-1.8c0.9-2.1,1.9-4.2,3-6.2c0.3-0.6,0.6-1.1,0.6-1.8c0.3-0.8,0.9-1.4,1.3-2.1c-0.2-0.3-0.7-0.6-0.5-1
			c0.5-1.1,1.1-2.1,1.8-3.1c0-0.3-0.4-0.4-0.5-0.7c-0.3-0.6,0.1-1.4,0.7-1.6c0.5-0.1,1-0.2,1.5-0.2c0.8,0,1.7-0.1,2.5,0.1
			c0.4,0.1,0.8-0.1,1.2-0.1c0-0.7,0-1.3,0.1-2c0.1,0,0.2-0.1,0.3-0.2c0.6-0.2,1.3-0.2,1.9,0c0.1,0.2,0.1,0.4,0.2,0.6
			c0.7,0.1,1.4,0,2.1,0.1c1,0,2.1,0.3,3.1,0.3c2,0.1,3.9,0.3,5.9,0.3c0.6-0.8,1.3-1.7,2-2.4C176.5,83.1,177.4,82.4,178.4,82.1z
			 M179.1,82.3c3.3,1.4,6.4,3.4,9.3,5.4c0.4,0.3,0.8,0.6,1.3,0.7c-0.5-0.6-1.2-0.9-1.7-1.5c0.2,0,0.4-0.1,0.6,0.1
			c0.9,0.6,1.9,1.2,2.7,2.1c1.6,1.5,2.8,3.3,4.5,4.7c0.9,0.7,1.7,1.5,2.6,2.2c0.6,0.5,1.1,1,1.6,1.5c0.6,0.6,1.2,1.2,1.8,1.9
			c0.1,0.1,0.1,0.3,0.1,0.5c-0.6,0-1.1,0-1.6,0.1c-0.6,0.2-1.3,0.1-1.9,0.2c-1.2,0.2-2.5,0.3-3.6,0.9c-1.2,0.6-2,1.6-3,2.3
			c-1,0.9-2.3,1.4-3.4,2c-1,0.5-2.1,0.8-3.1,1c-3.2,0.7-6.6,0.3-9.8,0.4c-1.3,0-2.6,0-3.9,0c-1.4,0-2.7-0.2-4.1-0.4
			c-1.3-0.1-2.3-1-3.1-1.9c-0.3-0.5-0.8-1-1.2-1.4c0,0.1,0,0.3,0,0.4c0.2,0.3,0.5,0.7,0.7,1c0.7,0.8,1.6,1.5,2,2.5
			c1.2,2.2,2.4,4.3,3.5,6.6c1.1,2.1,2.3,4,3.4,6.1c0,0,0.1-0.1,0.2-0.1c0.1-0.3,0.2-0.6,0.4-0.9c-0.8-2.2-1.7-4.3-2.6-6.5
			c-0.4-0.4-0.9-0.5-1.4-0.6c0-0.3,0-0.6,0.2-0.8c1.3,0.2,2.6,0.4,3.9,0.6c0,0.3,0,0.7,0,1c-0.3,0-0.6,0-0.9,0
			c0.6,1.5,1.2,2.9,1.8,4.4c0.3-0.7,0.5-1.3,0.8-2c0.1-0.1,0.2-0.3,0.2-0.4c-0.1-0.1-0.1-0.2-0.2-0.3c-0.2,0-0.4,0-0.6-0.1
			c0.1-0.3,0.1-0.6,0.2-0.8c0.4,0,0.8,0,1.1,0.1c1.1,0.1,2.2,0.1,3.3,0.4c-0.1,0.3-0.3,0.5-0.5,0.8c-0.5,0-1.2-0.2-1.5,0.3
			c-0.7,1.3-1.2,2.6-1.9,3.9c-0.1,0.3-0.3,0.5-0.2,0.8c0.2,0.5,0.5,1.1,0.6,1.6c0,0,0.1,0,0.1,0.1c1.4-2.7,2.9-5.3,4.3-8
			c-0.3-0.1-0.7-0.2-1-0.3c0-0.3,0.1-0.6,0.2-0.9c1.1,0.1,2.3,0,3.4,0c0,0.3-0.1,0.6-0.1,0.9c-0.3,0.1-0.6,0.1-0.9,0.2
			c-0.3,0.1-0.4,0.4-0.5,0.7c-1.6,2.8-3.1,5.6-4.6,8.3c-0.2,0.3-0.3,0.7-0.6,0.9c-0.4-0.1-0.9-0.2-1.3-0.3c-0.2-0.5-0.4-1-0.6-1.5
			c-0.1,0.2-0.3,0.4-0.3,0.7c0.2,0.5,0.5,0.9,0.7,1.3c1.2,0.3,2.5,0.5,3.7,0.6c0.6-1.8,1.1-3.6,1.7-5.4c0.3-0.9,0.8-1.8,1.2-2.6
			c1-2,2.2-3.9,3.5-5.7c0.7-1,1.8-1.6,2.8-2.5c0.5-0.4,1-0.8,1.4-1.2c-0.6,0.1-1.2,0.4-1.8,0.6c0.1,0.2,0.1,0.3,0.2,0.5
			c-1,0.6-2.2,0.5-3.3,0.4c0,0.6-0.3,1.2-0.5,1.8c-0.3,0.4-0.4,1.1-1,1.1c-0.3-0.9-0.5-1.9-0.4-2.8c-1.8,0.2-3.7-0.1-5.5-0.2
			c-2.4,0-4.8,0-7.2-0.1c-0.2,0.8-0.6,1.5-1,2.2c-0.1-0.1-0.2-0.1-0.3-0.2c-0.3-0.7-0.4-1.5-0.5-2.3c-0.5,0-1.1-0.2-1.6-0.4
			c0-0.1,0.1-0.2,0.2-0.3c1,0.4,2.1,0.4,3.2,0.6c3.2,0.4,6.4,0,9.5,0.4c2.1,0.2,4.1-0.1,6.2-0.4c1.5-0.3,3-0.8,4.4-1.4
			c0.6-0.3,1.2-0.7,1.7-1.1c1.2-0.9,2.2-2.1,3.5-2.9c0.9-0.6,1.9-0.6,2.9-0.8c1.3-0.1,2.6-0.5,4-0.5c0,0.2,0.1,0.5,0.1,0.7
			c-0.1,0-0.2,0-0.3,0c0-0.1,0-0.3,0-0.4c-0.7,0.5-1,1.4-1.4,2.2c-0.7,0.5-1.3,1-2,1.5c-0.2,0.1,0,0.4,0.1,0.6
			c0.3,0.7,0.5,1.6,0.2,2.3c0.3,0,0.6,0,0.9,0c0.4,0.1,0.7,0.3,1.1,0.3c0.3-0.6,0.4-1.3,0.7-2c0.1,0,0.2-0.1,0.3-0.2
			c-0.1,0.9-0.2,1.8-0.3,2.7c0.1,0.1,0.2,0.2,0.3,0.2c0,0,0,0.1,0,0.1c-0.1,0.1-0.3,0.2-0.3,0.4c-0.1,0.5-0.2,1.1-0.2,1.6
			c-0.6,2.2-1.3,4.3-1.8,6.6c-0.2,0.8-0.5,1.6-0.4,2.4c1,1.1,2.1,2.3,3.3,3.2c1.3,1,2.5,2.1,4,2.7c0.5,0.2,1,0.5,1.5,0.7
			c-0.1-0.7-0.2-1.4-0.3-2.1c-0.1-1.1-0.5-2.1-0.7-3.2c-1.4,1.5-4.1,1.6-5.5,0.1c-1-0.9-1.4-2.4-1.1-3.7c0.3-1.3,1.3-2.4,2.6-2.8
			c0.9-0.3,1.9-0.2,2.7,0.1c-0.7-2.9-1.7-5.8-2.2-8.8c-0.4-2.3-0.8-4.8-0.4-7.1c0-1.8,0.8-3.5,1.6-5.1c0.2-0.4,0.5-1,1.1-0.9
			c-0.3,0.4-0.7,0.7-0.8,1.1c-0.5,1.1-1,2.2-1.3,3.4c-0.2,1.1-0.2,2.3-0.3,3.5c0,2.7,0.6,5.4,1.2,8c0.5,1.9,1,3.8,1.6,5.6
			c0.4,1.9,0.9,3.9,1.4,5.8c0.3,1.2,0.6,2.4,0.8,3.6l0.1,0.1c0.1,0.9,0.3,1.8,0.4,2.7c0.1,0.5,0,0.9,0.3,1.4
			c0.4-0.6,0.1-1.4,0.1-2.1c0-0.7-0.3-1.3-0.4-2c-0.3-1.7-0.8-3.3-1.1-5c-0.7-3.1-1.5-6.1-2.3-9.1c-0.6-2.2-1.2-4.4-1.4-6.6
			c-0.2-1.8-0.1-3.6,0.1-5.4c0.2-0.9,0.4-1.8,0.8-2.6c0.4-0.8,0.8-1.5,1.4-2.1c0.2-0.2,0.7-0.3,0.9,0c1.1,1.2,1.9,2.8,1.8,4.4
			c0,0.8-0.3,1.7,0.2,2.4c0-0.3,0-0.6,0-0.9c0.1-0.1,0.2-0.1,0.2-0.2c0.3,1.1,0.4,2.3,0.6,3.4c0.4,0.3,0.5,0.9,0.9,1.2
			c-0.5-2.2-0.8-4.4-1.5-6.6c-0.5-1.2-0.7-2.5-1.6-3.4c-0.3-0.3-0.6-0.7-1-0.8c-0.5,0-1-0.1-1.5,0.2c-0.7,0.4-1.5,0.8-2,1.5
			c-0.5,0.9-1,1.9-1.3,2.9c0.1,0.1,0.2,0.2,0.3,0.4c0-0.2,0.1-0.3,0.1-0.5c0.2-1.1,0.9-2,1.4-2.9c0.1,0,0.2,0,0.3,0
			c0,0.2-0.1,0.4-0.1,0.6c0,0.1-0.1,0.2-0.2,0.3c-0.3,0.8-0.5,1.6-0.7,2.4c-0.1,0.5,0,1.1-0.2,1.6c-0.5-0.9-1-1.8-1.7-2.6
			c-0.2-0.2-0.5-0.6-0.1-0.7c0.8-0.2,1.3-0.9,1.7-1.6c-1.2-0.3-2.3-0.2-3.5-0.1c0.2,0,0.5,0.1,0.7,0.2c0.6,0,1.2,0,1.8,0.1
			c0.2,0.1,0.5,0,0.6,0.3c-0.6,0.3-1.1,0.6-1.7,0.9c-0.4,0.1-0.6-0.5-0.9-0.7c-0.9-0.6-1.7-1.3-2.6-1.9c0.1,0.4,0.3,0.7,0.6,1
			c0.9,0.8,1.7,1.5,2.6,2.3c0.2,0.1,0.2,0.3,0.2,0.5c-1-0.8-1.9-1.7-2.9-2.5c-0.6-0.5-1.1-1.1-1.7-1.7c-0.5-0.5-1-1.1-1.5-1.6
			c-1.1-1.1-2.2-2.2-3.3-3.3c-0.8-0.6-1.6-1.3-2.4-1.8c-1.1-0.8-2.3-1.3-3.5-2c-0.7-0.3-1.4-0.6-2.2-0.8
			C180.9,82.6,180,82.2,179.1,82.3z M176.9,83.2c-0.6,0.3-1.1,0.8-1.6,1.3c-0.9,1-1.8,2-2.4,3.2c-0.4,0.7-0.9,1.5-1.3,2.2
			c-0.5,0.9-0.9,2-1.5,2.9c-0.3,0.4-0.6,0.7-0.9,1c-0.7,0.8-1.4,1.7-2.3,2.3c-0.1,0.1-0.1,0.2-0.2,0.2c0,0,0.1-0.1,0.1-0.1
			c0.6-0.1,1.2-0.3,1.8-0.5c0.6-0.8,1.5-1.4,2-2.3c1.4-2,2.5-4.3,3.9-6.3c0.6-0.9,1.2-1.7,2-2.3c0.7-0.6,1.5-1.2,2.2-1.7
			C178.2,83.1,177.6,83.1,176.9,83.2z M178.6,83.8c-0.9,0.3-1.6,1.1-2.3,1.6c-1,0.9-1.6,2.1-2.4,3.2c-1.1,2-2.1,4-3.4,5.8
			c0,0.1,0,0.2-0.1,0.3c0.2-0.4,0.5-0.8,0.8-1.2c0.7-0.8,1.2-1.8,1.8-2.6c0.9-1.5,1.9-2.8,2.8-4.2c0.7-0.9,1.7-1.5,2.5-2.2
			c0.5-0.4,1.1-0.7,1.6-1.1C179.5,83.5,179.1,83.7,178.6,83.8z M178.6,86.9c-0.3,1.3-0.7,2.5-0.9,3.8c-0.1,0.5,0.3,0.9,0.6,1.3
			c0.5,0.7,0.9,1.6,1.8,1.9c0.8-0.1,1.6,0.3,2.4,0.4c1.1,0.3,2.4,0.3,3.5,0.7c0.2-0.1,0.4-0.1,0.6-0.2c0.1-0.1,0.3-0.3,0.4-0.4
			c0.1,0,0.3,0,0.4,0c0.1-0.2,0.3-0.3,0.6-0.4c0.3,0.3,0.6,0.6,1,0.8c1,0.1,2.1,0.2,3.1,0.2c0.3,0.2,0.7,0.3,1,0.4
			c-0.1-0.2-0.2-0.3-0.3-0.5c-0.4-0.4-0.8-0.8-1.1-1.3c-0.5-0.6-1.3-0.9-1.9-1.5c-0.5-0.8-0.9-1.7-1.3-2.6c-0.3-0.7-0.5-1.5-1-2.1
			c-1.1-0.6-2.1-1.3-3.2-1.8c-1-0.5-2-1.1-3-1.5C180.2,85.1,179.4,86,178.6,86.9z M160.4,85.3c-0.1,1.1,0,2.2,0,3.4
			c-0.2,0-0.3,0-0.5,0c0,0.1-0.1,0.3-0.1,0.4c0.2,0.1,0.5,0,0.7,0.2c0.1,0.4,0.1,0.8,0.1,1.3c0,0.2,0.1,0.4,0.1,0.6
			c0.6,0,1.3,0.1,1.9,0l0-0.1l-0.2-0.1c0.1-0.1,0.2-0.2,0.3-0.2c1.2,0.1,2.4,0.3,3.5,0.4c1.2,0.1,2.3,0.4,3.5,0.4
			c0.1-0.2,0.2-0.4,0.4-0.5c-2-0.2-4.1-0.3-6.1-0.5c-0.8-0.1-1.5-0.2-2.3-0.3c0,0.1,0,0.2,0,0.3c0.3,0.1,0.6,0.2,0.9,0.2
			c-0.2,0.1-0.3,0.3-0.5,0.2c-0.4-0.1-1.1,0-1.1-0.6c-0.2-1.6-0.1-3.2-0.1-4.8c0.5,0,0.9,0,1.4,0c0-0.1,0-0.2,0-0.3
			C161.6,85,160.9,85,160.4,85.3z M161.5,85.8c0,0.1,0,0.2,0,0.3c0.7,0,1.4,0.1,2.2,0.2c1.2,0.1,2.3,0.2,3.5,0.3
			c1.8,0,3.6,0.2,5.3,0.1c0.1-0.1,0.1-0.3,0.2-0.4c-1.6-0.1-3.2-0.2-4.8-0.3c-1.5,0-3-0.4-4.5-0.3C162.7,85.9,162.1,85.6,161.5,85.8
			z M161.5,86.4c0,1.1,0.1,2.3,0.2,3.4c2.5,0.4,5,0.6,7.5,0.7c0.9-0.9,1.7-1.9,2.3-3c-1.3-0.1-2.6-0.4-3.9-0.4
			C165.5,86.8,163.5,86.6,161.5,86.4z M154.8,87.5c-0.4,0.1-0.7,0.6-0.6,1c0.1,0.3,0.3,0.5,0.6,0.7c-0.1-0.4-0.5-0.8-0.3-1.2
			c0.2,0.2,0.3,0.5,0.5,0.7c0-0.2,0-0.3,0-0.5c-0.1-0.1-0.3-0.2-0.4-0.3c0.1,0,0.2-0.1,0.3-0.1l0,0.2c0.7-0.3,1.4-0.2,2.2-0.2
			c0.7-0.1,1.5-0.2,2.2,0.1c0,0.2,0,0.4,0,0.7c-0.8,0.2-1.6,0.2-2.5,0.3c-0.2,0-0.4,0.1-0.6,0.3c1.1,0,2.2-0.3,3.3-0.3
			c0.1-0.3,0.2-0.5,0.6-0.4c-0.1-0.3-0.1-0.7-0.3-1c-0.9,0-1.7,0-2.6,0C156.4,87.4,155.6,87.4,154.8,87.5z M157.2,88.2
			c0,0.1-0.1,0.2-0.1,0.3c0.6-0.1,1.3-0.1,1.9-0.2c0-0.1,0-0.2-0.1-0.2C158.3,88.1,157.8,88.1,157.2,88.2z M156,88.2
			c-0.5,0.5-0.9,1.1-1.3,1.6c-0.5,0.8-1,1.6-1.4,2.5c0.1,0,0.4-0.1,0.5-0.2c0,0.1-0.1,0.3-0.1,0.4c-0.2,0-0.5,0-0.7,0
			c-0.1,0.3,0.1,0.5,0.2,0.7c0.6-0.5,1-1.2,1.6-1.7c0.6-0.7,1.4-1.2,1.6-2.1c-0.6-0.1-0.4,0.6-0.7,0.8c-0.5,0.5-1,1.1-1.5,1.6
			c-0.1-0.4,0.2-0.7,0.4-1c0.5-0.9,1.1-1.8,1.9-2.4c0-0.1-0.1-0.1-0.1-0.2C156.2,88.3,156.1,88.3,156,88.2z M156.8,89.5
			c-0.2,0.4-0.3,0.9-0.6,1.2c-0.8,0.9-1.7,1.7-2.5,2.7c-0.4,0.7-0.8,1.3-1.3,2c0.1,0.1,0.3,0.1,0.4,0.2c-0.2,0.3-0.5,0.6-0.7,1
			c-0.8,1.8-1.8,3.6-2.7,5.4c-0.4,1-1,1.9-1.1,3c-0.2,1.3-0.4,2.6-0.6,4c-0.5,3-1.2,6-1.1,9c0.3-0.7,0.2-1.4,0.3-2.2
			c0.3-1.9,0.6-3.8,0.9-5.7c0.3-2,0.8-4,1.2-6c0.6-2,1.7-3.8,2.7-5.6c0.4-0.8,1-1.5,1.4-2.3c0.5-0.9,1.1-1.8,1.6-2.7
			c0.1,0,0.2,0,0.3,0c0,0.2,0,0.4-0.1,0.6c-0.8,1.2-1.3,2.6-2,3.8c0.3,0.1,0.7,0.2,1,0.4c0.1-0.6,0.2-1.2,0.6-1.7
			c0.4-0.4,0.7-1,1.3-1.1c0.4,1.1,0.5,2.4-0.2,3.4c0.5,0,0.9,0.1,1.3,0.4c0.5,0.3,0.9,0.7,1.2,1.2c0,0.1,0,0.2,0,0.3
			c-1,0.3-2.2,0.4-3.2-0.1c-0.1,0.7-0.5,1.4-1,1.9c-0.2,0.2-0.5,0.6-0.9,0.5c-0.3-0.9-0.3-1.8,0-2.7c0.1,0,0.2-0.1,0.2-0.1
			c0-0.1,0-0.2,0-0.4c-0.4,0.1-0.7,0-1.1-0.2c-0.1-0.1-0.2-0.1-0.3-0.2c-0.6,1.4-1.2,2.9-1.8,4.3c-0.4,1-0.3,2.2-0.5,3.2
			c0,0.6-0.1,1.1-0.1,1.7c-0.1,0.6,0.2,1.1,0.4,1.6c0,0,0.1,0,0.2,0c0.5-0.7,0.8-1.5,1.4-2.2c0.2,0.5,0.3,1.1,0.4,1.7
			c0.3,1,0.9,1.9,1.6,2.7c1-1,2.1-1.8,3-2.9c0-0.1-0.1-0.2-0.1-0.3c-0.9-1.2-0.9-2.9-0.1-4.1c0.6-0.9,1.6-1.6,2.7-1.7
			c0.5,0,0.9-0.5,1.3-0.8c0.5-0.4,1.1-0.8,1.6-1.3c-1,0.5-2,1.1-3,1.6c-1.5,0.4-3.1,0.6-4.6,0.9c-0.6,0.1-1.2,0.4-1.8,0.2
			c0.2-0.2,0.3-0.4,0.5-0.5c1.4-0.7,2.9-1.5,4.4-2.1c1.3-0.5,2.2-1.5,3.3-2.2c-0.3-0.7-0.6-1.3-0.9-2c-0.3-0.6-0.8-1.1-0.8-1.8
			c-0.2-1-0.3-2-0.4-2.9c-0.1-0.3-0.3-0.6-0.5-0.9c-0.3,0-0.6,0-0.9,0c0-0.1,0-0.2,0-0.3c0.3,0,0.6-0.1,0.9-0.1
			c0.1,0,0.2,0.1,0.3,0.1c1,0.4,1.9,0.7,2.9,1.2c1.1,0.5,2.2,1.1,2.9,2.1c0.2-0.7-0.3-1.3-0.8-1.7c-0.9-0.5-1.9-0.9-2.9-1.2
			c-0.8-0.3-1.7-0.5-2.4-0.9c-0.8,0.2-1.5,0.6-2.2,0.9c0-0.1,0-0.2,0-0.3c0.4-0.3,0.9-0.5,1.3-0.8c0.2-0.1,0.5-0.3,0.7-0.2
			c0.6,0.3,1.2,0.5,1.9,0.7c-0.6-0.9-1.9-1-2.8-1.2c0.2-0.4,0.6-0.5,0.9-0.9C157.4,89.4,157.1,89.4,156.8,89.5z M163,92.7
			c0.5,0.1,0.9,0.5,1.2,0.9c0.7,0.8,0.7,1.9,1,2.9c1.1-0.2,2-0.9,2.7-1.8c0.2-0.3,0.6-0.5,0.7-0.9c-1.7-0.4-3.3-0.9-4.8-1.5
			C163.6,92.6,163.3,92.7,163,92.7z M174.1,95.4c0.1,0.2,0.2,0.5,0.5,0.5c0.6-0.8,1.3-1.5,1.9-2.3c0.2-0.2-0.2-0.4-0.3-0.5
			C175.5,93.9,174.7,94.6,174.1,95.4z M174.7,96.3c0.1,0.2,0.2,0.3,0.3,0.5c0.6-0.8,1.3-1.6,2-2.4c0.1-0.2,0.3-0.2,0.5-0.3
			c0.2,0.2,0.4,0.4,0.6,0.6c0.1,0,0.2-0.1,0.2-0.2c0.2,0,0.3,0,0.5,0c-0.5-0.4-1-0.9-1.7-1.2C176.3,94.3,175.5,95.3,174.7,96.3z
			 M173.6,95.1c0.1,0,0.2,0,0.3,0c0.5-0.5,1-1.1,1.5-1.6C174.6,93.7,174.1,94.4,173.6,95.1z M194,93.8c0.4,0.9,0.8,1.7,1.3,2.5
			c0.7,0.2,1.4,0.4,2.1,0.6c-0.9-0.5-1.7-1.2-2.4-2C194.7,94.5,194.4,94.1,194,93.8z M180.5,94.3c-0.3,1.1-0.6,2.2-1,3.3
			c0.3,0.1,0.6,0.1,0.9,0.2c0-0.1,0-0.3,0.1-0.4c0.3-0.7,0.3-1.6,0.7-2.3c1.3,0.4,2.7,0.4,4,0.7c0.3-0.1,0.4-0.4,0.6-0.6
			c-0.1,0-0.4,0-0.5-0.1l-0.1-0.1c-1.1-0.2-2.2-0.3-3.3-0.5C181.4,94.5,181,94.3,180.5,94.3z M179.4,94.5c-0.3,0.8-0.5,1.6-0.8,2.4
			c-0.1,0.2-0.1,0.5-0.2,0.7c0.2,0,0.5,0,0.7,0c0.4-1,0.7-1.9,0.9-2.9C179.9,94.6,179.6,94.6,179.4,94.5z M187.8,94.5
			c-1.1,1.3-2,2.7-3.1,4c0,0,0,0.1,0,0.2c1,0.9,2.1,1.5,3.2,2.2c0.2,0.2,0.4,0.3,0.7,0.5c0.1-0.1,0.2-0.2,0.3-0.3
			c-0.6-0.4-1.2-0.9-1.8-1.3c-0.6-0.4-1.4-0.7-1.9-1.3c1-1.1,1.9-2.3,2.8-3.5c0.2,0.1,0.3,0.1,0.4,0.2c1.1,0.9,2.1,2,3.4,2.7
			c0-0.2,0.1-0.4-0.1-0.5c-0.9-0.7-1.9-1.4-2.8-2.2C188.5,95,188.2,94.7,187.8,94.5z M186.8,95c-0.2,0.2-0.5,0.4-0.7,0.6
			c-0.9,1.1-1.7,2.1-2.6,3.2c0.2,0.2,0.4,0.4,0.6,0.5c1,0.7,2,1.4,3.1,2c0.4,0.2,0.7,0.6,1.2,0.7c0-0.1,0-0.2,0-0.3
			c-1.2-1-2.8-1.7-4-2.8c-0.1-0.1-0.2-0.2-0.2-0.3c0.8-0.8,1.4-1.8,2.1-2.7c0.3-0.3,0.6-0.7,0.7-1.1C187,94.8,186.9,94.9,186.8,95z
			 M178.5,94.9c-0.3,1-0.5,1.9-0.8,2.9c0.1,0,0.3,0,0.4,0c0.4-0.9,0.5-1.9,0.9-2.8C178.8,94.9,178.6,94.9,178.5,94.9z M163.6,99.2
			c-0.3,1.1-0.3,2.2-0.4,3.2c0.2,0.3,0.4,0.6,0.6,0.8c-0.3-1.1,0-2.2,0.2-3.2c0.2-0.9,0.2-1.7,0.5-2.6l0.3-0.1
			c-0.2,1.2-0.5,2.4-0.7,3.7c0.1,1.4,0.2,3,1.2,4.1c0.8,0.4,1.8,0.5,2.7,0.5c-1-2.5-1.9-5-2.7-7.5c-0.3-1-0.5-2-0.8-3
			C164.2,96.5,163.9,97.8,163.6,99.2z M173.3,95.6c0.8,1.3,1.8,2.4,2.7,3.6c0.1-0.1,0.2-0.2,0.3-0.3c-1.1-1.1-1.9-2.5-2.8-3.7
			C173.4,95.3,173.2,95.5,173.3,95.6z M177,95.3c-0.6,0.6-1.1,1.2-1.6,1.9c0,0.1,0,0.2,0,0.2c0.4,0.4,0.8,1,1.2,1.4
			c0.4-0.1,0.5-0.4,0.7-0.7c-0.5,0.1-0.9-0.5-0.7-1c0.1-0.4,0.4-0.6,0.7-0.8c0.2,0.1,0.3,0.1,0.5,0.2c0.1-0.2,0.1-0.5,0.2-0.7
			c0.1-0.3-0.2-0.4-0.3-0.6C177.4,95.2,177.1,95.1,177,95.3z M172.9,95.7c0,0.2-0.1,0.4,0.1,0.5c0.8,1.2,1.7,2.3,2.6,3.5
			c0.1-0.1,0.2-0.1,0.3-0.3c-0.9-1.1-1.8-2.2-2.5-3.3C173.2,96,173,95.8,172.9,95.7z M181.3,96.3c-0.2,0.6-0.3,1.2-0.5,1.8
			c0.3,0.2,0.6,0.4,0.8,0.6c0,0.2,0,0.4,0,0.7c0.1,0,0.3,0,0.3-0.1c0.1-0.5,0.4-0.8,0.8-1c0.2,0.1,0.3,0.1,0.5,0.2
			c0.3-0.4,0.7-0.7,0.7-1.2c0.1-0.3,0-0.7,0.3-0.9c0,0.2,0.1,0.4,0.1,0.6c0-0.1,0.1-0.2,0.1-0.3c0.1-0.1,0.2-0.3,0.3-0.4
			c-0.9-0.3-1.8-0.3-2.7-0.5C181.9,95.9,181.5,96,181.3,96.3z M187.7,96.3c-0.6,0.7-1.1,1.5-1.7,2.2c1,0.7,2,1.4,3,2.1
			c0,0,0.1,0,0.2,0c0.5-0.7,1.1-1.3,1.6-1.9c0.1-0.2,0.4-0.4,0.4-0.7c-1-0.7-1.9-1.4-2.8-2.2C188.2,95.9,187.9,96.1,187.7,96.3z
			 M172.5,96.3c-0.2,0.2-0.4,0.5-0.5,0.7c0.8,1.2,1.7,2.3,2.5,3.4c0.3-0.2,0.5-0.3,0.8-0.5c-0.1-0.2-0.3-0.4-0.4-0.5
			C174,98.4,173.3,97.3,172.5,96.3z M176.9,97.5c0.2,0,0.4,0,0.6,0c0-0.2,0-0.4,0-0.5C177.2,96.9,177,97.2,176.9,97.5z M171.4,97.6
			c0.6,1,1.3,1.8,2,2.8c0,0,0,0.1,0,0.2c-1.4,1.2-2.8,2.3-4.2,3.5c0,0.1,0,0.2,0,0.3c0.1,0,0.2,0,0.4,0c1.1-0.7,2.1-1.6,3.1-2.4
			c0.5-0.5,0.8-1,1.4-1.4c-0.7-1.2-1.6-2.2-2.3-3.3C171.7,97.4,171.5,97.5,171.4,97.6z M191.9,98.1c-0.7,0.9-1.5,1.7-2.2,2.5
			c-0.4,0.5-0.9,0.9-1,1.5c-0.1,0.5-0.2,1.1-0.4,1.6c0.1,0,0.2,0,0.2,0c0.1-0.7,0.2-1.3,0.5-2c1.1-1.5,2.3-2.7,3.4-4.2
			C192.2,97.8,192,97.9,191.9,98.1z M176.3,99.7c0.1,0,0.2,0,0.3,0c0.5-0.5,1.3-1,1.5-1.7C177.5,98.6,176.8,99,176.3,99.7z
			 M176.8,99.9c0.1,0,0.2,0,0.3,0c0.6-0.6,1.2-1.2,1.7-1.8c-0.1,0-0.2-0.1-0.2-0.1C178.1,98.6,177.5,99.3,176.8,99.9z M192.5,98
			c-0.1,0.1-0.1,0.2-0.2,0.3c0.6,0.3,1.4,0.5,1.9,1c0.4,0.3,0.6,0.7,0.9,1.1c0.1,0,0.2-0.1,0.3-0.1c-0.1-0.8-0.9-1.4-1.6-1.7
			C193.4,98.5,192.9,98.2,192.5,98z M205.3,98c0.1,0.1,0.2,0.2,0.2,0.3c0,0.1,0,0.2,0,0.3c0.7,0.5,0.8,1.5,1.1,2.2
			c-0.1,0-0.3,0-0.4,0c-0.2-0.5-0.5-0.9-0.7-1.4c0,1.1,0.2,2.2,0.3,3.2c0.1,0.4,0.4,0.7,0.7,0.9c0.2-0.1,0.4-0.2,0.7-0.2
			c0,0.1,0,0.2,0,0.3c-0.2,0.1-0.4,0.3-0.7,0.2c-0.4-0.2-0.7-0.5-0.9-0.9c-0.3,0-0.5,0.3-0.7,0.5c0.1,0.7,0.8,1,1.4,1.3
			c0.6-0.1,0.9-0.7,1.4-1.1c0-0.2,0-0.5,0-0.7c-0.3,0.1-0.7,0.1-1,0.1c-0.6-0.4-0.6-1.3-0.5-1.9c0.5-0.4,0.7,0.6,1.3,0.4
			c-0.4-0.8-0.8-1.6-1.2-2.5C206,98.5,205.6,98.3,205.3,98z M170.8,98.3c0.4,0.8,1,1.5,1.5,2.2c-0.3,0.3-0.6,0.5-0.9,0.7
			c-0.9,0.6-1.8,1.3-2.6,2.1c-0.2,0.1,0.1,0.4,0.1,0.5c0.1,0,0.2-0.1,0.2-0.1c1.3-1.1,2.6-2.2,3.9-3.2c-0.6-0.9-1.2-1.7-1.8-2.6
			C171.1,98.1,171,98.2,170.8,98.3z M177.9,100.2c0.1,0.1,0.2,0.2,0.2,0.2c0.8-0.8,1.8-1.4,2.7-2.1c-0.1,0-0.3,0-0.4,0
			C179.5,98.8,178.6,99.5,177.9,100.2z M168.4,100.6c0.4,0.4,0.8,0.8,1,1.3c-0.5,0-0.7-0.5-0.9-0.8c-0.1,0-0.4,0-0.6,0
			c-0.1,0.7,0.4,1.3,0.7,1.9c0.8-0.8,1.8-1.5,2.7-2.2c0.2-0.1,0.2-0.5,0.1-0.7c-0.2-0.5-0.5-1-0.9-1.4
			C169.6,99,168.9,99.8,168.4,100.6z M179.1,99.9c-0.2,0.2-0.7,0.4-0.5,0.8c0.8-0.6,1.7-1.3,2.6-1.8c0.2-0.1,0-0.3-0.1-0.4
			C180.4,99,179.8,99.5,179.1,99.9z M191.9,98.7c-0.7,0.9-1.4,1.7-2.1,2.5c0.2,0.1,0.4,0.2,0.7,0.3c0.3,0.2,0.6,0.4,1,0.5
			c0-0.1-0.1-0.3-0.1-0.4c-0.1-0.7,0.1-1.5,0.6-2c0.3-0.3,0.7-0.3,1.1-0.4C192.7,99,192.3,98.8,191.9,98.7z M154,99.1
			c-0.2,0.2,0,0.5,0.1,0.8c0.3,0,0.7,0.1,0.8-0.2c0.1-0.3,0-0.6-0.2-0.8C154.4,98.9,154.1,98.8,154,99.1z M182.8,98.8
			c-0.1,0.1-0.2,0.2-0.3,0.2c-0.1,0.3,0,0.6,0.2,0.9c0.2-0.3,0.5-0.6,0.5-0.9C183.1,98.9,183,98.9,182.8,98.8z M179.2,100.8
			c-0.3,0.1-0.3,0.4-0.3,0.7c0.7-0.3,1.4-0.8,2.2-0.9c0.1,0.4,0.1,0.8,0.1,1.2c0,1.4,0.3,2.8,0.2,4.1c0.2,0,0.4,0,0.7,0
			c-0.2-0.6-0.1-1.2-0.2-1.9c-0.1-1.5-0.2-2.9-0.2-4.3C180.8,99.8,180,100.3,179.2,100.8z M183.2,99.8c0.6,0.4,1.2,0.9,1.9,1.2
			c0.6,0.3,1.2,0.7,1.9,0.8c-1.1-0.8-2.4-1.4-3.5-2.2C183.4,99.6,183.2,99.7,183.2,99.8z M175.8,99.8c0.6,0.4,1.2,0.6,1.8,0.9
			c0.3,0.1,0.6,0.3,0.6,0.7c0.1,0.9,0,1.9,0,2.8c-0.1,0.4-0.1,0.8-0.1,1.2c0.1,0,0.2,0,0.3,0c0-1.5,0.2-3,0.1-4.4
			c-0.5-0.4-1.1-0.5-1.6-0.8C176.6,100.1,176.3,99.8,175.8,99.8z M192.7,102c0.5-0.4,1.1-0.9,1.7-1.2c-0.1-0.5-0.5-1.1-1.1-0.8
			C192.3,100,192,101.5,192.7,102z M173.1,102c-0.1,0.3,0.1,0.6,0.3,0.9c0.8,0.9,2.4,1,3.2,0.1c0.4-0.6,1-1.1,1.3-1.7
			c-0.1,0-0.3,0-0.4,0.1c-0.5,0.5-1,1.2-1.6,1.6c-0.4,0.3-1,0.3-1.5,0.2c-0.4-0.2-0.7-0.6-0.6-1c0.3-0.5,0.7-0.9,1.2-1.3
			c0.2-0.2,0.6-0.3,0.7-0.7C174.8,100.6,173.7,101,173.1,102z M182.1,99.8c0,0.4,0,0.8,0,1.2c0.3-0.1,0.6-0.2,1-0.2
			c0.1-0.1,0.2-0.3,0.2-0.4C182.7,100.5,182.2,100.3,182.1,99.8z M175.2,101c-0.5,0.4-0.9,0.7-1.1,1.3c0.4,0.6,1.3,0.6,1.8,0.2
			c0.5-0.4,1-1,1.4-1.5c-0.1-0.1-0.2-0.1-0.2-0.2c-0.6,0.6-1.2,1.6-2.2,1.4c0-0.3-0.1-0.6,0.2-0.8c0.3-0.4,0.9-0.6,1.1-1.1
			C175.9,100.5,175.6,100.8,175.2,101z M183.5,100.5c-0.1,0.2-0.3,0.5-0.4,0.7c1.3,0.5,2.6,0.9,3.9,1.5c0.4,0.2,0.7,0.3,1.1,0.5
			c0-0.1,0-0.3,0-0.5C186.6,102,185,101.4,183.5,100.5z M179,102c0,0.1-0.1,0.2-0.1,0.2c0.2,0,0.4,0,0.6,0c0.1,0.3,0.2,0.7,0.2,1
			c-0.2,0.3-0.5,0.4-0.9,0.3c0,0.2,0,0.4,0.1,0.6c0.2,0.1,0.5,0.2,0.6,0.5c0.2,0.3,0,0.7-0.1,1c0.4,0,0.9,0.1,1.3,0.2
			c0.1-0.1,0.2-0.1,0.3-0.2c-0.1-0.7-0.1-1.4-0.2-2.1c0-0.3-0.1-0.5-0.3-0.7c-0.1,0.3-0.3,0.3-0.5,0.4c-0.1-0.4-0.1-0.9-0.1-1.3
			c0.1,0,0.2-0.1,0.3-0.1c0,0.3,0,0.5,0,0.8c0.2,0.1,0.3,0.1,0.5,0.2c-0.1-0.5-0.1-0.9-0.1-1.4C180.1,101.4,179.6,101.7,179,102z
			 M189.6,101.5c-0.1,0.1-0.2,0.3-0.2,0.4c0.6,0.3,1.3,0.5,1.8,1.1c0.2,0.3,0.5-0.2,0.3-0.3C191,102.1,190.3,101.8,189.6,101.5z
			 M207,101.8c-0.1,0-0.3,0.1-0.3,0.2c0.1,0.2,0.1,0.5,0.3,0.6c0.5-0.1,1.1-0.3,1.4,0.1c0.4,0.5,0.7,1.2,0.9,1.8
			c0.1,0.2-0.1,0.4-0.1,0.6c-0.2,0-0.5,0-0.7,0c0.3,0.4,0.7,0.7,1,1c0.2-0.1,0.4-0.1,0.7-0.2c0,0.4-0.3,0.5-0.6,0.6
			c0.1,0.6,0.2,1.1,0.3,1.7c0.3-0.1,0.5-0.2,0.8-0.2c-0.1-0.5-0.2-1-0.2-1.6c-0.1-0.6,0-1.2-0.2-1.7c-0.1,0-0.2-0.1-0.2-0.1
			c0,0.1,0,0.3-0.1,0.5c-0.1,0-0.2,0-0.3,0c0.2-0.5,0-1-0.2-1.4c-0.2-0.6-0.3-1.4-0.9-1.8C208.1,101.5,207.4,101.6,207,101.8z
			 M176,103.7c-0.6,0.3-1.3,0.2-1.9,0c-0.2-0.1-0.5-0.3-0.7-0.4c0.2,0.2,0.3,0.3,0.5,0.5c0.6,0.3,1.2,0.5,1.9,0.3
			c0.9-0.3,1.6-1.1,2.2-1.9c0-0.1,0-0.4,0-0.5C177.3,102.4,176.9,103.4,176,103.7z M189.2,102.2c0,0.1-0.1,0.3-0.1,0.4
			c0.6,0.3,1.1,0.6,1.5,1.1c0.1-0.1,0.3-0.2,0.4-0.4C190.6,102.7,189.9,102.5,189.2,102.2z M171,103.7c0.7-0.2,1.4-0.6,1.8-1.2
			c-0.1,0-0.2,0-0.3,0.1C172,102.9,171.5,103.3,171,103.7z M179.2,103.3c0.3-0.3,0.2-0.6,0-1C179,102.7,179,103,179.2,103.3z
			 M182.9,102.6c0.2,0.1,0.5,0.3,0.7,0.4c1.4,0.8,2.9,1.4,4.3,2.1c0.1,0,0.3-0.1,0.4-0.2c-0.4-0.3-0.7-0.5-1.1-0.7
			c-1-0.5-2.1-0.9-3.1-1.3C183.7,102.6,183.3,102.3,182.9,102.6z M160.5,103.7c1.1,0.4,2.1,1.2,2.4,2.4c0.1,0.6,0.9,0.7,1.3,1
			c-0.4-0.6-0.6-1.2-0.9-1.8c-0.1-0.5-0.5-0.9-0.7-1.3c-0.2-0.4-0.3-0.9-0.3-1.4C161.8,102.9,161.2,103.3,160.5,103.7z M177.1,103.9
			c-0.8,0.7-2,1.1-3.1,0.7c-0.4-0.2-0.8-0.6-1-1c0,0.3,0,0.6,0,1c0,0,0.1,0.1,0.2,0.2c1.4,0.2,2.9,0.4,4.3,0.6c0-0.3,0.1-0.7,0.3-1
			c0.4-0.4,0.2-0.9,0.2-1.4C177.7,103.3,177.4,103.6,177.1,103.9z M209.7,103.1c-0.1,0.6,0.1,1.1,0.6,1.5
			C210.3,104,210.1,103.5,209.7,103.1z M182.9,103.5c1.2,0.7,2.5,1.3,3.8,1.9c0.3,0.1,0.6-0.1,0.9-0.2c-0.7-0.4-1.4-0.7-2.1-1
			c-0.7-0.3-1.4-0.6-2-1C183.2,103.3,183,103.4,182.9,103.5z M188.8,103.6c0,0.3,0.3,0.6,0.5,0.8c0.1-0.1,0.3-0.1,0.4-0.2
			C189.4,103.9,189.1,103.7,188.8,103.6z M158.7,106.2c-0.3,0.3-0.5-0.2-0.8-0.3c-0.6-0.1-1.3,0.2-1.6,0.7c-0.4,0.6-0.2,1.5,0.5,1.8
			c0.5,0.3,1-0.1,1.5-0.1c0.2-0.1,0.3-0.3,0.5-0.5c-0.1-0.3-0.2-0.7,0.1-1c0.3-0.5,1-0.4,1.3,0c0.2-0.2,0.4-0.3,0.6-0.5
			c0.1-0.3,0.2-0.5,0.3-0.8c0.2-0.8-0.6-1.6-1.3-1.5C158.7,104.1,158.1,105.4,158.7,106.2z M182.8,104.5c0.7,0.4,1.5,0.7,2.2,1.1
			c0.4,0.2,0.8,0.2,1.3,0.2c0-0.1-0.1-0.2-0.1-0.2c-0.9-0.4-1.8-0.8-2.7-1.3C183.2,104.1,182.8,104.2,182.8,104.5z M178.7,105.5
			c0.1,0,0.2,0,0.2-0.1c0.1-0.3,0.1-0.6-0.1-0.9C178.7,104.8,178.8,105.1,178.7,105.5z M182.4,104.7c0,0.2,0,0.4,0,0.6
			c0.5,0.3,1,0.5,1.6,0.8c0.3,0.2,0.7,0,1.1-0.1C184.2,105.5,183.3,105.1,182.4,104.7z M160.7,106.8c-1.2,0.9-2.4,1.9-3.6,2.9
			c-0.9,0.8-1.7,1.6-2.6,2.4c-2.1,2-4.2,4-6.3,6c-0.4,0.5-1.1,0.9-1.2,1.7c0.5-0.3,1-0.8,1.4-1.2c0.9-0.9,1.8-1.7,2.7-2.6
			c2-1.8,4-3.7,6-5.5c1.5-1.3,2.8-2.7,4.4-3.7c0.2-0.1,0.1-0.4,0.1-0.6C161.4,106.3,161.1,106.6,160.7,106.8z M162.1,106.3
			c0,3.4,0.1,6.8-0.2,10.1c0,2.4-0.4,4.7-0.4,7c0.3,1.2,0.3,2.4,0.7,3.6c0.2,0.6,0.3,1.2,0.7,1.6c-0.2-1-0.6-2-0.7-3
			c-0.6-2.7-0.1-5.5,0.1-8.3c0-1.3,0-2.5,0.1-3.8c0-2.2,0.3-4.3,0-6.5l0.3,0c0.3,2.3,0,4.6,0,6.8c0,1.1-0.1,2.1-0.1,3.2
			c0,1.4-0.2,2.7-0.3,4.1c-0.2,2.3,0.1,4.6,0.8,6.7c0.2,0.5,0.3,1.1,0.7,1.6c0.8,0.4,1.7,0.7,2.5,0.9c-0.2-1.3-0.1-2.6-0.2-3.9
			c-0.1-3.5,0.3-6.9,0.4-10.4c0-1.1,0.2-2.3,0.3-3.4c0.1-0.7,0.2-1.4,0.2-2.1c-0.5-0.8-1-1.6-1.5-2.4c-0.2-0.4-0.7-0.6-1.1-0.8
			C163.6,107.1,162.9,106.7,162.1,106.3z M210.7,106.4c0.1,0.9,0.1,1.8,0.6,2.5C211.2,108.1,211.1,107.2,210.7,106.4z M187.6,112.1
			c-1.2,1.1-2.2,2.4-3.2,3.7c-1.2,1.5-2.2,3.2-3.3,4.8c-0.7,1.1-1.3,2.2-2,3.3c1-0.3,1.5-1.2,1.9-2.1c0.3,0,0.7,0,1,0.1
			c-0.2,0.7-0.7,1.4-1.1,2.1c-0.2,0.4-0.4,0.7-0.7,1c-0.6,0-1.1-0.1-1.6-0.1c-0.6,1.1-1.3,2.1-1.8,3.2c1,0.1,1.9,0.1,2.9,0.2
			c0.6,0,1.1,0.2,1.7,0.1c-0.3-0.2-1.1-0.1-0.9-0.6c1.1-0.2,2.1-1,2.9-1.7c0.9-0.8,1.7-1.7,2-2.9c0-0.1,0-0.3,0-0.4
			c0.1,0,0.2,0,0.3,0c0.3,1.3,1,2.4,2,3.3c-0.3-1.1-0.6-2.2-0.9-3.3c-0.7-2.5-1.1-5.2-0.6-7.9c0-0.2,0.2-0.4,0.4-0.4
			c1.3-0.5,2.6-0.9,3.8-1.4c0.8-1.4,1.2-3,2-4.5c0.3-0.6,0.5-1.2,0.7-1.8C191.2,108.6,189.4,110.3,187.6,112.1z M157.8,110.4
			c-0.8,0.9-1.9,1.5-2.6,2.6c-0.5,0.7-1.1,1.4-1.5,2.3c0.2,0.8,0.8,1.4,1.4,1.9c0.8-0.3,1.3-1,1.9-1.5c1.3-1.2,2.6-2.4,4-3.4
			c0.3-1.7,0.4-3.3,0.7-5C160.3,108,159.2,109.3,157.8,110.4z M196.6,107.7c-0.1,0.3-0.3,0.6,0,0.8c0.2,0.3,0.6,0.1,0.8,0
			c0-0.2,0-0.4,0-0.6C197.2,107.6,196.8,107.7,196.6,107.7z M210,108.4c0,0.1,0,0.2,0,0.2c0.2,0,0.4,0,0.6,0.1c0-0.1,0-0.2-0.1-0.3
			C210.4,108.4,210.2,108.4,210,108.4z M210.4,109.1c0.5,1,1.3,1.8,1.7,2.9c0.1,0.3,0.2,0.7,0.4,1c-0.3-1.4-0.7-2.8-1.5-4
			C210.7,108.9,210.6,109,210.4,109.1z M192.7,112.3c-0.1,0.2-0.1,0.3-0.2,0.5c1.2,1.1,2.1,2.5,3.2,3.8c0.2-0.5,0.4-1,0.5-1.5
			c0.4-1.1,0.9-2.3,1.5-3.4c0.5-0.8,0.9-1.6,1.3-2.4c-0.4,0-0.8,0-1.2,0c0.1,1-0.3,2-0.9,2.8c-0.1,0-0.2,0-0.3,0
			c-0.5-0.9-0.9-2-0.5-3c-0.5,0.1-1.1,0-1.6,0C193.9,110.2,193.3,111.3,192.7,112.3z M150.6,111.7c0.4,0.8,0.8,1.7,1.3,2.4
			c0,0,0.1,0,0.2,0c0.3-0.4,0.9-0.7,1-1.2c-0.5,0-1.1,0-1.6,0c0.6-0.9,0.5-2.1,0.1-3.1c-0.1-0.2-0.1-0.3-0.2-0.5
			C150.8,109.9,150.5,110.9,150.6,111.7z M210.4,109.7c0.2,1.6,0.5,3.3,0.7,4.9c0.7,0,1.3,0.3,1.9,0.5c-0.8-1.2-0.9-2.6-1.6-3.8
			C211.1,110.8,210.7,110.3,210.4,109.7z M212.7,110.7c0,0.8,0.2,1.6,0.3,2.4c0,0.8,0.3,1.5,0.7,2.2c0.1,0,0.2,0,0.3-0.1
			c0.4-0.9,0.5-2.1-0.1-2.9C213.4,111.8,213.1,111.2,212.7,110.7z M167.3,111.2c-0.2,1.1-0.3,2.3-0.5,3.4c-0.2,1.4-0.1,2.9-0.2,4.4
			c-0.1,2.2-0.3,4.3-0.3,6.5c0.1,0.3,0.1,0.6,0,0.9c0.1,0.1,0.1,0.2,0.2,0.3c0-0.2,0-0.3,0-0.5c0.1-2.9,0.4-5.7,0.5-8.6
			c0.2-1.8,0.3-3.6,0.6-5.4C167.7,111.8,167.4,111.5,167.3,111.2z M150.5,121.9c0.1,0,0.2,0,0.4,0.1c0.7-0.6,1.4-1.2,2.1-1.8
			c2.6-2.4,5.3-4.7,7.9-7.1c0-0.2,0-0.4,0.1-0.5C157.3,115.5,154,118.8,150.5,121.9z M155.4,118.4c0.2,0.4,0.5,0.7,0.8,1
			c0.7-0.3,1.6-0.5,2.3,0c-0.1-1.1,0.5-2,1.2-2.7c0.1,0,0.2,0,0.3,0c0.5,1,0.4,2.1,0.2,3.1c0.1,0,0.2-0.1,0.2-0.2
			c0.4,0,0.7,0.1,1.1,0.2c0-1.3,0.2-2.6,0.2-3.9c0-1.1,0.2-2.2,0.1-3.3C159.6,114.7,157.5,116.6,155.4,118.4z M191.7,113.1
			c-0.1,0.3-0.1,0.6-0.1,0.8c0,1.3-0.1,2.5,0.1,3.8c0.1,1.3,0.3,2.6,0.3,3.9c0,1.7,0,3.5,0,5.2c-0.1,0.6-0.4,1.1-0.7,1.6
			c-0.7,1-1.3,2-2.3,2.8c-0.7,0.3-1.3,0.7-2,1c-0.6,0.2-1.1,0.5-1.7,0.7c-0.1,0-0.3,0.1-0.4,0.1c-0.1,0-0.3,0.1-0.4,0.1
			c-1.3,0.4-2.7,0.9-4,1.4c-1.7,0.5-3.4,0.9-5.2,1.2c-0.7,0.2-1.5,0.2-2.2,0.2c-0.9,0-1.5-0.7-2.2-1.2c-0.9-0.8-1.7-1.6-2.8-2.2
			c-1.4-0.9-3.2-1.3-4.5-2.4c-0.1-0.1-0.2-0.2-0.2-0.3c0.1,0.4,0.3,0.8,0.6,1c0.7,0.4,1.4,0.8,2.1,1.1c1.4,0.6,2.8,1.3,4,2.3
			c0.8,0.6,1.5,1.4,2.4,1.8c0.9,0.4,1.8,0.2,2.7,0c1.3-0.3,2.6-0.5,3.9-0.9c1-0.3,1.9-0.5,2.8-0.9c0.7-0.4,1.6-0.6,2.3-0.9
			c0.2-0.1,0.4-0.2,0.6-0.2c0.4-0.2,0.8-0.3,1.2-0.5c0.2-0.1,0.5-0.2,0.7-0.3c0.8-0.3,1.6-0.7,2.3-1.2c0.9-0.6,1.6-1.5,2.2-2.4
			c0.4-0.8,1.1-1.5,1-2.4c0-1.1,0.2-2.2,0-3.3c-0.1-1.2,0-2.3-0.2-3.5c0-2.2-0.4-4.4-0.2-6.5C191.9,113,191.8,113.1,191.7,113.1z
			 M190.5,113.5c-1.3,0.5-2.7,0.9-4,1.5c-0.4,2.4-0.1,4.8,0.4,7.1c0.3,1.2,0.7,2.3,1,3.5c0.4,1.4,0.9,2.8,1,4.3
			c0.1,0,0.2-0.1,0.3-0.2c-0.2-1.3-0.6-2.5-0.9-3.7c-0.6-2.3-1.6-4.5-1.7-6.9c0-1.2,0-2.5,0-3.7l0.3,0c0,2.1-0.2,4.3,0.5,6.4
			c0.3,0.9,0.6,1.8,1,2.6c0.2,0.3,0.3,0.8,0.6,1c0.8,0.5,1.7,0.9,2.5,1.4c0-1.2,0-2.4,0-3.6c0-1.7-0.1-3.4-0.3-5.1
			c-0.2-1.6-0.1-3.2-0.1-4.7C191,113.3,190.7,113.4,190.5,113.5z M193,113.9c0,0.2,0,0.3,0,0.5c0.8,0.9,1.5,1.9,2.3,2.8
			c0.5,0.6,1,1.1,1.5,1.7c0.7,0.8,1.5,1.6,2.2,2.4c1.1,1.3,2.6,2.3,3.9,3.4c0.8,0.7,1.9,1,2.9,1.4c0.5,0.2,1,0.4,1.5,0.7
			c0-0.2,0-0.3,0-0.5c-0.7-0.3-1.4-0.7-2.2-1c-1.3-0.6-2.3-1.5-3.4-2.3c-0.6-0.5-1.3-0.9-1.8-1.5c-1.2-1.2-2.3-2.4-3.4-3.6
			C195.2,116.7,194.2,115.2,193,113.9z M168.4,117.6c0,0.3-0.1,0.6,0,0.9c0.4,1.2,0.9,2.4,1.2,3.6c0.1,0.2,0.1,0.4,0.3,0.5
			c0.5,0.1,1.3,0.4,1.7-0.2c0.3-0.6,0.7-1.1,0.9-1.7c-0.1-0.5-0.4-0.8-0.6-1.3c-1.1-1.7-2.2-3.4-3.2-5.2
			C168.4,115.3,168.6,116.5,168.4,117.6z M202.2,114.8c-0.2,0.3-0.5,0.7-0.5,1.1c-0.1,0.5,0.4,0.8,0.5,1.2c-0.5-0.2-1.1-0.5-1.7-0.3
			c-1.1,0.6-0.7,2.6,0.6,2.6c0.5,0.1,0.9-0.3,1.3-0.4c-0.1,0.5-0.4,1.1-0.1,1.6c0.2,0.7,1.1,1.1,1.8,0.7c0.6-0.2,0.9-0.9,0.9-1.5
			c0-0.4-0.3-0.7-0.4-1c0.3,0.1,0.6,0.2,1,0.3c0,0,0.1-0.1,0.1-0.2c-0.1-0.5-0.2-1-0.3-1.6c-0.1-0.4-0.1-0.7-0.2-1.1
			c-0.2,0.2-0.5,0.3-0.7,0.4c0-0.3,0.1-0.5,0.2-0.7c0-0.1,0-0.3,0-0.4c-0.1-0.3-0.3-0.6-0.6-0.8
			C203.4,114.4,202.7,114.5,202.2,114.8z M193.8,116.4c-0.2,1.4-0.4,2.8-0.7,4.1c0,0.2-0.1,0.5,0.1,0.7c0.8,0.8,1.5,1.7,2.3,2.5
			c1.4,1.3,2.8,2.5,4.4,3.4c0.4-0.7,0.8-1.4,1.2-2c0.1-0.1,0.2-0.3,0.1-0.5c-0.5-0.7-1.1-1.3-1.7-2c-1.9-2-3.6-4.2-5.5-6.3
			C194,116.4,193.8,116.4,193.8,116.4z M158.9,120.1c-0.1,0.2-0.1,0.3-0.2,0.5c0.2,0.2,0.4,0.6,0.7,0.4c0.4-0.1,0.3-0.6,0.1-0.9
			C159.3,120,159.1,120,158.9,120.1z M157.5,121c0.2,0.2,0.4,0.4,0.6,0.6c0.1-0.2,0.1-0.4,0.2-0.6C158,121,157.8,121,157.5,121z
			 M159.9,121.4c0,0.5-0.1,1-0.3,1.4c0.4,0.2,0.9,0.4,1.3,0.6c0.1,0,0.2,0,0.2,0.1c0-0.6,0-1.1,0-1.7c-0.2,0-0.4,0-0.7,0
			C160.4,121.6,160.1,121.5,159.9,121.4z M192.9,121.5c0,0.2-0.1,0.5,0.1,0.7c0.4,0.3,0.7,0.8,1,1.1c1.7,1.8,3.6,3.3,5.7,4.5
			c0.2,0.1,0.4,0.1,0.5,0.1c-0.3-0.3-0.7-0.5-1.1-0.8c-0.2-0.1-0.4-0.3-0.6-0.4c-0.9-0.6-1.7-1.2-2.4-1.9
			C195,123.8,194,122.6,192.9,121.5z M173.4,123.4c0.3,0.1,0.6,0.2,0.9,0.2c-0.2-0.3-0.4-0.6-0.5-0.9
			C173.6,122.9,173.5,123.2,173.4,123.4z M167.6,122.9c-0.1,0.6-0.1,1.1-0.2,1.7c0.3,0.4,0.7,0.7,1,1.1c-0.1-0.7-0.4-1.4-0.5-2.1
			C167.8,123.4,167.8,123.1,167.6,122.9z M170.2,123.7c0.3,0.7,0.5,1.4,0.7,2c0.2,0.6,0.7,1.2,1,1.7c0.2,0.3,0.4,0.4,0.7,0.6
			c0.7,0,1.3-0.1,2,0c0.8,0.1,1.8-0.2,2.2-0.9c0.4-0.7,0.7-1.5,1-2.3c-0.9-0.2-1.8-0.3-2.7-0.4c0.2,0.4,0.4,0.7,0.5,1.1
			c-0.5,0-0.5-0.5-0.8-0.8c-0.8-0.1-1.6-0.2-2.4-0.3C171.7,124.2,170.9,123.9,170.2,123.7z M184.8,126.8c0.1,0.2,0.1,0.4,0.2,0.5
			c-0.9-0.4-1.9-0.3-2.8,0.2c-0.3,0.1-0.5,0.3-0.8,0.4c0.8,0.4,1.7,1,2.6,0.9c0.3-0.1,0.7-0.3,1-0.4c0-0.2,0-0.4-0.1-0.6
			c0.2-0.2,0.3-0.3,0.5-0.5c0.4,0,0.7,0.2,0.9,0.5c0.3-0.2,0.6-0.3,0.9-0.5l0-0.1c0.1,0,0.2-0.1,0.2-0.1c-0.4,0.1-0.7,0.2-1.1,0.3
			c0.1-0.5,0.3-1,0.2-1.6c-0.1-0.6-0.5-1.1-0.8-1.6C185,124.9,184.4,125.9,184.8,126.8z M194.1,126.5c-0.1,0.7-0.2,1.3-0.4,2
			c1,0,2-0.1,3.1-0.2c0.7-0.1,1.3-0.4,1.9-0.7c-1.4-0.8-2.6-1.8-3.8-2.9C194.6,125.2,194.2,125.8,194.1,126.5z M166.8,125.9
			c0,1.4-0.4,2.7-0.3,4.1c0.1,0.6,0.5,1.2,0.9,1.7c0.3,0.4,0.8,0.6,1.2,0.9c0.9,0.6,1.7,1.4,2.5,2.1c0.5,0.5,1.1,1,1.8,1.1
			c0.7,0.1,1.5-0.1,2.2-0.2c1.7-0.3,3.4-0.6,5-1.1c0.6-0.2,1.3-0.5,1.9-0.7c2.1-0.7,4.3-1.3,6.3-2.5c0-0.1,0-0.3,0.1-0.4
			c0.1-0.4,0.1-0.8,0.1-1.2c-1.8,0.1-3.6,0.4-5.4,0.2c-2.8-0.2-5.6-0.7-8.4-1.2c-0.8-0.2-1.7,0-2.5-0.1c-1.2-0.3-2.3-0.6-3.4-1
			C168,126.9,167.5,126.3,166.8,125.9z M192.1,128.2c-0.6,1-1.3,2-2.1,2.8c-1.5,1.4-3.5,1.9-5.3,2.6c-0.9,0.4-1.8,0.6-2.7,1
			c-0.6,0.3-1.2,0.5-1.9,0.7l-0.1,0.1c-1.8,0.5-3.5,0.9-5.3,1.2c-0.6,0.1-1.2,0.3-1.8,0.1c-0.5-0.1-0.8-0.4-1.2-0.6
			c-1-0.8-1.9-1.7-3-2.4c-1.4-1-3-1.4-4.4-2.2c0.9,1.1,1.8,2.1,2.8,3.1c0.7,0.8,1.8,1,2.7,1.5c1,0.5,2,1,2.9,1.4
			c0.6,0.2,1.2,0.4,1.8,0.3c3.4,0.1,6.6-1.1,9.6-2.6c1.4-0.7,2.8-1.3,4.2-2.1c0.5-0.3,1.1-0.6,1.6-0.9c0.7-0.4,1.2-1.1,1.6-1.8
			C192,129.7,192.1,128.9,192.1,128.2C192.2,128.2,192.2,128.2,192.1,128.2z"/>
	</g>
	<g>
		<path class="st0" d="M181.5,97.4c0-0.5,0-1.1,0.5-1.3c0.4-0.1,0.5,0.4,0.6,0.6c-0.1,0.4-0.3,1-0.8,0.9
			C181.7,97.7,181.6,97.5,181.5,97.4z M182,96.6c-0.1,0.3-0.2,0.7,0,1c0.2-0.3,0.3-0.6,0.3-1C182.2,96.6,182.1,96.6,182,96.6z"/>
	</g>
	<g>
		<path class="st0" d="M182.9,96.5c0.2-0.2,0.5-0.1,0.7-0.1c0.3,0.5,0.1,1.6-0.6,1.6C182.5,97.7,182.6,96.9,182.9,96.5z M183.1,96.7
			c-0.1,0.3-0.2,0.6-0.1,1c0.1,0,0.2,0,0.3,0C183.5,97.3,183.7,96.6,183.1,96.7z"/>
	</g>
	<g>
		<path class="st0" d="M188.6,97.6c0.2-0.4,0.6-0.4,0.9-0.4c0.2,0.2,0.4,0.4,0.4,0.7c0.1,0.6-0.9,0.9-1.2,0.4
			C188.5,98,188.5,97.8,188.6,97.6z M189,98.2c0.2-0.1,0.3-0.2,0.5-0.3c0-0.1,0-0.3,0-0.4C189.1,97.7,188.9,97.9,189,98.2z"/>
	</g>
	<path class="st0" d="M187.2,97.7c0.2,0,0.4,0,0.6,0c0.1,0.5-0.3,0.8-0.6,1.1l-0.3,0c0.2-0.3,0.4-0.5,0.5-0.8l-0.3,0
		C187.1,98,187.1,97.8,187.2,97.7z"/>
	<g>
		<path class="st0" d="M187.6,99.4c-0.4-0.4,0.1-1.1,0.6-1c0.3-0.1,0.4,0.2,0.5,0.3c0,0.1-0.1,0.3-0.2,0.4
			C188.3,99.4,187.9,99.8,187.6,99.4z M187.9,98.7c-0.1,0.2-0.1,0.3-0.2,0.5c0.3,0,0.6-0.2,0.6-0.5C188.3,98.7,188,98.7,187.9,98.7z
			"/>
	</g>
	<g>
		<path class="st0" d="M188.5,99.5c0.2-0.3,0.5-0.4,0.9-0.3c0.1,0.2,0.3,0.4,0.1,0.6c-0.2,0.3-0.6,0.7-1,0.4
			c-0.1-0.1-0.2-0.3-0.2-0.4C188.3,99.7,188.4,99.5,188.5,99.5z M188.7,100c0.3-0.1,0.6-0.3,0.5-0.7
			C188.9,99.5,188.6,99.7,188.7,100z"/>
	</g>
	<g>
		<path class="st0" d="M169.9,99.3c0.7-0.1,1.2,0.7,1,1.3C170.2,100.7,169.5,99.9,169.9,99.3z M170.1,99.6c0,0.4,0.2,0.6,0.5,0.8
			C170.7,100,170.4,99.7,170.1,99.6z"/>
	</g>
	<g>
		<path class="st0" d="M169,100c0.1,0,0.3-0.1,0.4-0.2c0.1,0,0.3,0.1,0.3,0.2c0.4,0.3,0.6,0.7,0.5,1.2c-0.3,0.1-0.6,0-0.9-0.2
			C169.1,100.7,169,100.4,169,100z M169.3,100.2c0,0.4,0.3,0.7,0.6,0.8C170,100.6,169.6,100.3,169.3,100.2z"/>
	</g>
	<path class="st0" d="M201,102.8c-0.1-0.4,0-0.8,0.1-1.3c0.1,0,0.2-0.1,0.3-0.1c0.3,3.6,1.4,7.1,2.2,10.6c-0.1,0-0.2,0-0.3,0
		c-0.3-1.2-0.7-2.3-1.1-3.5c-0.2-0.6-0.4-1.3-0.6-1.9C201.4,105.4,201.2,104.1,201,102.8z"/>
	<path class="st0" d="M202.6,117.4c0.3-0.4,1-0.5,1.3-0.1c0.3,0.2,0.2,0.6,0.2,0.9c-0.2,0.3-0.6,0.6-1,0.5
		C202.5,118.6,202.5,117.9,202.6,117.4z"/>
</g>
</svg>
