<?xml version="1.0" encoding="utf-8"?>
<!-- Generator: Adobe Illustrator 26.0.3, SVG Export Plug-In . SVG Version: 6.00 Build 0)  -->
<svg version="1.1" id="Слой_11" xmlns="http://www.w3.org/2000/svg" xmlns:xlink="http://www.w3.org/1999/xlink" x="0px"
	 y="0px" viewBox="0 0 239.5 150.2" style="enable-background:new 0 0 239.5 150.2;" xml:space="preserve">
<style type="text/css">
	.st0{fill:#020202;}
</style>
<g>
	<path class="st0" d="M121.9,118.6c-0.5-0.1-0.9-0.2-1.4,0.1c-1.4,0.6-2.7,1.6-4,2.3c1.4,0.2,2.9,0.4,4.1-0.4
		C121.4,120.1,121.8,119.4,121.9,118.6z"/>
	<path class="st0" d="M121.2,37.8c-0.6-0.9-1.7-1-2.7-0.9c-1,1.2-0.2,3,1.3,3.4C120.4,39.5,121.6,38.8,121.2,37.8z M119.1,37.9
		c0.5,0.1,0.9,0.2,1.4,0.2c-0.2,0.5-0.3,1-0.6,1.5C119,39.6,119.2,38.5,119.1,37.9z"/>
	<path class="st0" d="M128.1,119.2c0.1-1-0.6-1.7-0.9-2.6c-0.5-0.9,0.4-1.8,0.2-2.7c-0.1-0.6-0.2-1.2-0.2-1.8
		c-0.5-0.4-1.1,0.3-0.9,0.9c0.1,0.9-0.4,1.6-0.8,2.3c-0.5,0.9,0,1.9,0.3,2.7c-0.7,0.1-1.6,0.4-1.6,1.3c0,1.2-0.2,2.4-1.1,3.3
		c1.4-0.2,1.9-1.7,2.4-2.8C126.4,120,127.7,120.3,128.1,119.2z"/>
	<path class="st0" d="M186.1,52.5c-1.3-0.4-2.7-0.9-4.1-0.7c-0.7,0.1-1.6,0.5-1.8,1.3c-0.1,0.8,0.4,1.6,0.7,2.3
		c1.5,2.6,3.7,4.9,4.7,7.8c-2.5-1-5-2.2-7.8-2.2c-0.6-0.1-0.7,0.5-0.8,1c2.5,0.3,4.4,1.9,6.4,3.2c2.1,1.5,4.3,3,6,5
		c0.6,0.7,1,1.5,1.7,2.2c-1.8-4-5.5-6.7-8.9-9.3c3.8,1.1,7.2,3.1,10.3,5.5c0.6,1.3,0.4,2.9,1.2,4.1c-0.2-3.1-0.9-6.1-1.6-9.1
		c1.2,1.7,2,3.6,2.6,5.5c0.4,1.2,0.4,2.4,0.9,3.5c0.2-1.2-0.1-2.4,0-3.6c-0.5-1.1-0.8-2.3-1.3-3.5c-0.3-0.7-0.1-1.5-0.1-2.2
		c0-1.5-0.4-3-1.2-4.2c-1.2-1.4-3.2-1.5-4.7-2.4c-0.8-0.4-1.6-1.1-2.5-0.8c-0.8,0.2-1.3,1.1-1.1,1.9c0.1,1,0.9,1.6,1.4,2.4
		c0.2,1.2,0.3,2.4,0.6,3.5c-0.2-0.1-0.6-0.3-0.7-0.4c-1.1-3.7-3.8-6.6-5-10.3c0.7-0.2,1.4-0.5,2.1-0.3c2.1,0.4,4.2,1.2,6.3,1.8
		c1.3,0.4,2.6,0.9,3.8,1.6c0.8,0.4,0.9,1.3,1.4,1.9c1.2,1.2,0.9,3.1,1.1,4.6c-0.3-0.1-0.7-0.2-1-0.3c-0.1,0.2-0.3,0.4-0.4,0.7
		c0.9,1.7,1.1,3.6,1.1,5.4l0.4,0.1c0-0.6,0.1-1.2,0.2-1.8c0.4,1.5,0.9,3,1.1,4.5c0.1,0.6,0.2,1.2,0.4,1.7c0.2-0.7,0.2-1.4,0.3-2.1
		c1.2-0.9,2.4-1.7,3.7-2.4c-1,2-1.9,4.2-1.9,6.4c0.3-0.5,0.5-1.1,0.7-1.7c1.5-0.7,3.1-0.9,4.8-1.1c-0.4,0.4-0.8,0.8-1.1,1.2
		c0,0.3,0.5,0.6,0.7,0.2c0.9-0.8,2.1-1.2,3.3-1.7c-0.1-0.3-0.1-0.6-0.2-1c-1.6-0.2-3.2,0.1-4.7,0.5c0.7-1.7,1.7-3.2,2.1-5
		c0.3-1.2,0-2.5,0.5-3.6c0.2-0.6,0.7-1.2,0.6-1.9c-0.5-1-1.4-1.7-2.2-2.3c-2.5-2-5.1-3.8-7.8-5.6c-0.6-0.4-1.3-0.7-2.1-0.8
		c-0.2,0.5-0.3,1-0.4,1.5c-2.4-1.3-4.6-3.1-7.3-3.6C186.1,51,186.1,51.8,186.1,52.5z M185.3,57.7c-0.4-0.8,0.8-1.2,1.4-0.8
		c0.7,0.3,1.5,1.6,0.5,2.1C186.3,59.6,185.6,58.4,185.3,57.7z M186.8,60.3c0.6-0.3,1.3-0.4,1.7-1c0.4-0.5,0.3-1.1,0.3-1.7
		c1,0.8,2.3,1.2,3.2,2.2c0.8,1.2,1.2,2.6,1.5,3.9c-1-1.5-1.9-3.2-3.3-4.3c-0.4-0.3-1.2,0-0.9,0.6c0.3,0.8,0.8,1.5,1.1,2.3
		c-0.9-0.4-1.9-0.5-2.7,0.2C187.5,61.8,187.3,61,186.8,60.3z M188.7,63.2c0.8,0.2,1.6,0.3,2.2,0.7c0.6,1.4,1,2.8,1.4,4.2
		c-1.6-1.3-3.2-2.7-5-3.8C187.7,63.8,188,63.1,188.7,63.2z M196,63.7c0.1-1.3,0.1-2.6,0-3.9c0.7,0.6,1.8,1.3,1.6,2.4
		c-0.2,1.8-0.1,3.6-0.2,5.4C197,66.3,196.6,65,196,63.7z M202.3,71.7c-0.6,0.4-1.3,0.7-1.9,1.1c0.8-2,2.1-3.8,3.5-5.5
		C203.5,68.8,202.9,70.2,202.3,71.7z M199.7,68.5c0.3-1.4,0.6-2.8,0.9-4.2c0.2-1.4,0.7-2.7,0.8-4c0.5,0.6,1.1,1.1,1.2,1.9
		c0.1,1.7-0.4,3.3-0.9,4.9C201.1,67.7,200.4,68.1,199.7,68.5z M194.2,52.8c1.4,0.7,2.5,1.7,3.7,2.7c2.3,1.9,4.8,3.8,7,5.9
		c-0.3,0.8-0.7,1.6-0.8,2.4c-0.1,1,0,1.9,0,2.9c-0.6-0.2-1.2-0.2-1.8,0c0.8-1.7,1.8-3.8,1-5.7c-1.4-2.1-3.7-3.4-5.6-5
		c-0.5-0.3-0.9-0.8-1.5-0.8c0.4,0.5,0.9,1,1.3,1.6c-1.2-0.9-2.5-1.9-3.8-2.6C193.9,53.6,194.1,53.2,194.2,52.8z M197.1,57.8
		c1.1,1,2.5,1.7,3.2,3.1c0.1,0.4-0.1,0.8-0.1,1.2c-0.5,2.2-0.4,4.6-1,6.8c-0.4,0.6-1,1-1.5,1.5c0.8-2.8,1.2-5.7,0.9-8.6
		c-0.3-1.2-1.5-1.5-2.4-2.1c-0.5-1.2-1.4-2.1-1.7-3.3c-2.2-2-5.2-2.7-8-3.6c0-0.6,0.1-1.3,0.1-1.9c0.9,0.5,1.9,0.9,2.7,1.5
		C191.9,54.1,194.6,55.8,197.1,57.8z"/>
	<path class="st0" d="M146.3,19.4c-2.1,0.5-3.6,2.2-5,3.7c-1.9,2-2.7,5.2-1.5,7.7c1.3,2.1,3.7,3.5,4.6,5.9c-2.3-0.8-4.6-1.4-7-1.7
		c-0.6,0-0.6-0.6-0.8-1c-1.2-2.2-3.6-3.4-5.9-3.9c-1.3-0.3-2.6-0.4-3.9-0.8c-1.4-0.5-2.7,0.6-4.1,0.2c-0.9-0.3-1.8-0.7-2.7-0.8
		c-1.9-0.3-3.5,1.3-5.3,1.2c-1.5-0.4-2.9-1.3-4.5-1.2c-2.1,0.2-4.3,0.6-6.3,1.3c-1.2,0.4-2.4,1.1-3.2,2.2c-0.4,0.6-0.7,1.4-0.4,2.1
		c0.3-0.7,0.5-1.5,1.1-2c0.9-0.9,2.2-1.2,3.5-1.5c1.7-0.3,3.5-0.6,5.3-0.6c1.8,0,3.2,1.6,5,1.4c1.5,0,2.7-0.9,4.2-1.2
		c1.4-0.1,2.7,1,4.2,0.8c1.1,0,2.1-0.7,3.2-0.5c1.7,0.4,3.5,0.3,5.2,0.7c1.8,0.4,3.6,1.5,4.6,3.2c-1.9-0.1-3.9,0-5.8,0.4
		c-0.5,0.1-1.1,0.4-1.7,0.1c-1.4-0.6-2.8-0.9-4.3-0.9c-3.2-0.1-6.3,0.5-9.5,0.8c-3.1,0.4-6.2-0.8-9.2,0c-2.2,0.5-3.7,2.5-4.5,4.4
		c-0.8,1.7-0.2,3.9,1.4,4.9c0.7,0.5,1.6,0.4,2.5,0.4c2.8-0.3,5.3,1.4,8.1,1.6c0,0.5-0.1,0.9,0.1,1.4c0.4,0.1,0.8,0.1,1.2-0.1
		c1.2-0.6,2.1-1.6,3.2-2.4c0.7-0.6,1.6-1.2,2.2-1.9c-0.2-1.1-0.8-2.1-1.4-2.9c-0.2-0.3-0.7-0.8-1-0.3c-0.7,0.9-1.1,2.1-1.8,3
		c-0.7,0.9-1.4,1.9-2.1,2.8c-1.1-0.4-2.3-0.6-3.3-1.1c-1.3-0.6-2.7-1.2-4.2-1.3c-0.8-0.1-1.7,0-2.5-0.3c-1.1-0.7-1.2-2.2-0.6-3.3
		c0.7-1.3,1.7-2.7,3.2-3.1c2.7-0.7,5.4,0.3,8.1-0.1c3.3-0.5,6.5-1.5,9.9-1.7c1.5-0.2,3,0,4.4,0.5c-1.5,0.8-3,1.5-4.1,2.7
		c-0.9,1.3-0.7,3-0.9,4.4c-2.2,0.6-4.3,1.7-6.1,3.1c-1.5,1.1-2,2.9-3.2,4.2c-1.2-0.8-2.5-1.6-3.9-1.9c-1.7-0.3-3.4-0.4-5.1-0.4
		c-0.3-0.5-0.5-1-0.9-1.4c-1-0.7-2.4-0.5-3.3-1.5c-1-1.1-1.7-2.5-2-3.9C99,40,99.6,39,99.7,37.9c-0.2-0.8-0.5-1.6-0.7-2.5
		c-0.2-1.2-0.1-2.3-0.1-3.5c-1,1.8-0.7,4-0.4,6c-0.2,0.9-0.7,1.7-0.7,2.7c-0.1,2.1,0.9,4.2,2.2,5.8c0.9,1,2.2,1.3,3.5,1.6
		c0.4,0.6,0.6,1.5,1.4,1.6c1.6,0.1,3.2-0.2,4.8-0.2c1.6,0,3,0.6,4.4,1.2c-0.9,0.9-1.9,1.7-2.7,2.8c-1,1.2-1.5,2.7-2.2,4.2
		c-1.5-1.5-3.4-2.5-5.1-3.7c-1-1.3-1.3-3.1-2.7-4.1c-1-0.9-2.5-0.7-3.7-0.5c-1.4,0.2-2.9-0.2-3.6-1.4c0.9-0.4,2-0.5,2.8-1.1
		c0.8-0.7,0.8-2,0.4-2.9c-0.7-1.7-1.9-3.2-3.4-4.4c-1.5-1.3-3.8-1.9-5.7-0.9c-1.8-1.6-4.5-2.3-6.8-1.6c-1.4,0.4-2.2,1.7-3.2,2.7
		c-0.4,0.5-1.2,0.4-1.7,0.7c-0.7,0.2-1.1,0.9-1.5,1.5c0-1-0.8-1.7-1.7-2c0.1,0.4,0.4,0.8,0.7,1.2c-0.2,0.1-0.5,0.2-0.7,0.3
		c0.3,0,0.9-0.1,1.2-0.1c-0.1,0.3-0.2,0.9-0.3,1.1c-0.4-0.1-0.7-0.3-1.1-0.4c-0.1,0.2-0.4,0.5-0.5,0.7c-0.2-0.1-0.5-0.2-0.7-0.3
		c0.5,0.4,1,0.9,1.3,1.4c-0.1,0.2-0.4,0.6-0.5,0.9c0-0.3-0.1-0.8-0.1-1.1c-0.3,0.1-0.6,0.1-1,0.2c0,0.4,0.1,0.8,0.1,1.2
		c-0.5,0.3-1,0.8-1.7,1c0-0.4,0.1-0.8,0.2-1.2c-0.6,0.8-1.6,0.6-2.3,1.3C67,46,66,45.7,65.1,45.6c-0.9,0.5-0.9,1.7-0.3,2.5
		c0.1,0,0.4,0,0.5,0c-0.2-0.5-0.7-0.9-0.5-1.5c0-0.5,0.7-0.8,1-0.4c-0.1,0.4-0.3,0.8-0.5,1.2c0.7-0.2,1.4-0.2,2,0.2
		c0.2-0.3,0.5-0.7,0.7-1c0.4,0,0.8,0.1,1.2,0.1c-0.1-0.3-0.1-0.6-0.2-0.9c0.6,0.2,1.4,0.6,1.9-0.1c0.6-0.7,1.5-1,2.3-1.3
		c0.3-0.8,0.1-1.6,0.1-2.4c0.2,0.2,0.5,0.5,0.7,0.7c0.3-0.4,0.5-0.7,0.8-1.1c-0.1,1.4,0.4,3-0.4,4.3c-1.4,0.8-2.9,1.4-4.4,2.1
		c-1.9,0.9-4.2,1-6,0c-0.2-0.1-0.5-0.3-0.6-0.4l0.3-0.1c-0.2-1-0.2-2.5-1.4-2.8c-2.9-0.9-5.7,0.8-8.6,0.3c-2.2-0.4-4.7,0.1-6.4,1.6
		c-0.9,0.7-1.3,2-2.5,2.2c-1.5,0.2-3.2-0.2-4.4,1c-1.2,1.1-0.7,2.8-1.2,4.2c-0.9,2-2.5,3.5-3.6,5.2c-0.8,1.5,0.7,2.9,0.6,4.5
		c0,1.3,0,2.6,0.2,3.9c-1.4-0.4-2.8-0.8-4.3-0.7c-1.1,2.5-1.9,5.1-2.5,7.8c-0.9,0.5-1.8,1.1-2.9,1.2c-1.4,0.2-2.7-0.3-4-0.7
		c-1.5-0.4-3.3-0.9-4.8,0c-1.3,1.1-1.9,2.7-2.3,4.2c-0.4,1.4-2.2,1.9-2.4,3.4c-0.2,0.9,0.6,1.6,0.8,2.4c-0.1,1-0.5,1.9-0.3,2.9
		c0.3,1.5,1.4,2.6,2.6,3.4c1.2,0.8,2.9,1,4.1,0.1c1.2-0.9,1.3-2.6,2.4-3.6c1.7-0.7,3.4,0.3,5.1,0c0.8-0.1,1.1-1,1.4-1.6
		c0.4,1.9,1,3.8,1.5,5.8c1.7,5.2,4.4,10.1,8,14.2c-0.3,0.6-1.3,0.9-1.1,1.7c0.2,1.8,0.4,3.6,0.9,5.3c0.2,1,0.6,2.1,1.6,2.5
		c1.4,0.7,2.9,1.3,4.4,1.9c-0.7-1.7-2.7-2.3-3.9-3.6c-0.5-2-0.9-4.1-1.6-6c-0.2-0.4,0.1-0.7,0.3-1c1.3,1.1,2.5,2.2,4,3
		c-0.1,1.5,0.2,3.3,1.5,4.2c1.6,0.5,3-0.7,4.4-1.2c0.9,0,1.7,0.6,2.6,0.3c0.9-0.3,1.4-1.2,2-2c1.1-1.5,2.3-2.9,3.6-4.2
		c0.6,1.3,1.5,2.5,1.7,4c-0.3,0.5-0.7,0.8-0.9,1.3c-0.3,0.6-0.3,1.4-0.6,2c-1.3,0.6-2.8,0.6-4.1,1.3c-0.8,0.4-1.1,1.3-1.8,1.7
		c-2.5,0.6-5,0.7-7.5,1c0.4,0.2,0.8,0.3,1.2,0.3c2.3,0.1,4.5,0.4,6.8,0.1c1.1-0.1,1.4-1.5,2.4-1.7c1.3-0.4,2.7-0.4,4-1.1
		c0.8-0.5,1-1.4,1.1-2.2c0.1-1.1,1.3-1.8,1-3c-0.4-1.7-1.7-3-2.6-4.4c2.2-2.1,4.5-4.3,7.2-5.8c0.8,2.5,0.8,5.3,2.3,7.5
		c0.8,1.3,2.5,2,4,1.5c1.8-0.5,3-2.1,3.9-3.6c0.7,0.6,1.2,1.5,1.8,2.2c0.9,1,2,1.9,3.3,2.4c0.7,0.3,1.5,0.3,2.2,0.7
		c0.9,1.5,1.5,3.3,3,4.5c1.8,1.4,4.2,1.6,6.4,1.7c3.7,0,7.3,0.3,11-0.2c1.1-0.2,2.2-0.3,3.1-1c-0.4-1.3-1.7-1.9-2.8-2.4
		c1.5-0.4,3-0.8,4.1-1.9c1.7-1.7,2.5-4.1,2.8-6.4c2-0.1,3.9,1.4,6,0.8c-0.8-0.5-1.7-0.6-2.5-1.1c-1.3-0.6-2.6-1.4-4-1.1
		c-0.7,0.1-1,0.8-1.2,1.4c-0.4,1.7-1.1,3.3-2.1,4.7c-1.2,1.6-3.3,2-5.1,2.6c-0.6,0-0.8,0.9-0.3,1.2c1.3,0.9,2.9,0.8,4.2,1.7
		c-3.1,0.5-6.3,0.1-9.5-0.1c-2.3-0.2-4.6-0.1-6.8-0.5c-1.2-0.3-2.4-0.9-3.1-1.9c-1-1.2-1.4-3.1-3-3.7c0.3-0.8,0.6-1.6,0.9-2.4
		c0.7,2.7,2.7,5.1,5.3,6.1c1.2,0.5,2.6,0.5,3.9,0.5c-0.9-0.8-1.4-1.9-1.9-2.9c1.1,0.5,2.2,0.8,3.4,0.7c0.5,0.7,0.9,1.6,1.9,1.8
		c1.1,0.1,2-0.8,2.6-1.7c1.6-2.7,2.5-5.8,2.4-8.9c0.8-1.2,1.6-2.5,1.9-3.9c0.7-3.1,1.4-6.1,2.3-9.1c0.8,1.5,2,2.5,3.5,3.3
		c0.5,1.2,0.8,2.4,1.5,3.5c1.1,1.7,2.5,3.2,4,4.6c1.4,1.4,2.9,2.7,4.7,3.7c-1,0.3-2,0.8-2.5,1.7c0.8-0.2,1.4-0.8,2.1-1
		c1.8,1.1,3.7,2.1,5.5,3.3c-0.2,0.8-0.4,1.8,0.4,2.3c1.6,0.9,3.5,0.9,5,1.9c-0.6,0.9-1.4,1.9-1.6,3c-0.2,1.3,0.3,2.5,0.9,3.6
		c-0.9,0.2-1.9,0.5-2.5,1.3c-0.6,0.9-1.1,1.8-1.5,2.8c-1.6-0.5-3.2-1-4.9-1.4c-0.6-0.1-1.3-0.3-1.9,0.1c-0.8,0.6-1.7,1.1-2.7,1.4
		c-0.1-0.6-0.2-1.2-0.6-1.7c-0.7-0.5-1.6-0.3-2.5-0.3c-1.7,0.1-3.4-0.3-5.1-0.5c-1-0.1-1.5,1.1-2.4,1.3c-2,0.5-4.2,0.3-6.2-0.2
		c-3.9-1-7.6-2.7-11.2-4.5c-2.2-1.1-4.6-1.9-6.8-3.2c0.6-0.6,2-1.2,1.3-2.2c-1.3-1.2-2.9-1.9-4.5-2.5c1,1.3,2.7,1.7,3.8,2.9
		c-0.6,0.5-1.5,0.8-1.8,1.5c-0.2,0.7,0.5,1.2,0.9,1.6c2,1.4,4.3,2.4,6.5,3.6c3.9,2.2,8.1,4.1,12.6,4.5c1.9,0.1,3.9,0,5.7-0.7
		c0.8-0.3,1.1-1.2,1.8-1.5c1.5,0,2.9,0.6,4.3,0.7c0.9,0.1,1.8,0,2.7,0.1c0.1,0.8-0.5,2,0.6,2.2c1.5,0.2,2.9-0.6,4.2-1.4
		c1.8,0.5,3.6,1.2,5.4,1.7c0.6,0.2,1.3,0.2,1.8-0.3c0.9-1,1.2-2.5,2.2-3.4c1-0.3,2.5-0.1,2.7-1.5c-0.1-1.4-1.5-2.4-1.3-3.8
		c0.4-1.2,1.3-2.2,2-3.3c-0.1-0.2-0.2-0.5-0.2-0.7c-1.7-1.4-4-1.7-6.1-2.3c0.1-0.6,0.1-1.1,0.2-1.7c2.8,1.7,6,2.6,9,3.9
		c1.1,0.6,2.3,0.9,3.4,1.3c-0.2-0.3-0.4-0.6-0.6-1c0.1-0.1,0.3-0.2,0.4-0.2c0.3,1.2,1.1,2.1,1.9,3c0.9,0.9,1.9,1.9,3,2.4
		c1.2,0.2,2.4-0.1,3.5,0c2.9,0.1,5.1,2.4,8,2.8c1.1,0.1,2.2-0.1,3.3-0.4c0.6,0.7,1.2,1.3,1.5,2.2c-1.1,0.4-2.7-0.1-3.4,1.1
		c-0.6,1.2-0.2,2.8,0.9,3.5c0.7,0.5,1.5-0.1,2.2-0.4c0.2,1,0.1,2.1,0.5,3c0.5,1,1.7,1.3,2.8,1.4c1.6,0.2,2.8-1.2,4.4-1.2
		c2.1-0.1,4.7,0.1,6.2-1.6c1.1-1.2,0.1-3.4,1.7-4.2c0.6-0.4,1.2-0.8,1.5-1.5c0.5-0.9,0.6-2.1,1.6-2.6c0.8-0.4,1.8-0.6,2.7-0.8
		c0.8,0.8,1.8,1.6,3,1.7c1.6,0.3,3.3-0.6,3.7-2.2c0.7-1.4,0.4-2.9-0.3-4.2c1.8-1.1,3.6-2.3,5.4-3.4c2.4-1.4,5.1-2.5,7.6-3.7
		c2.7-1.3,5.4-2.7,8.3-3.4c-0.5,2.4-0.3,4.9,0.5,7.2c0.5,1.3,1.2,2.6,2.5,3.2c1.1,0.6,2.3-0.1,3-1c1.4-1.8,2-4.3,1.4-6.6
		c1.5-1.5,1.4-3.8,1.8-5.8c0.3,1.5,0.8,3.2,2.2,4c1,0.7,2.4,0.3,3.2-0.5c1.6-1.4,2.1-3.6,2.5-5.5c0.4-1.8,0.2-3.6-0.5-5.3
		c-0.4-0.9-0.9-1.8-1.9-2.1c-1.3-0.4-2.5,0.4-3.4,1.3c-1.7,1.7-2.1,4.2-2.1,6.4c-0.3-1.2-0.8-2.3-1.9-3c3.1-4.1,4.8-9.1,6.1-14.1
		c1.1-4.1,0.8-8.4,0.8-12.6c-0.1-3.3-1-6.5-2.5-9.4c0.8-1.4,1.5-2.9,1.8-4.5c0.4-2.3-0.1-4.8-1.3-6.8c0.3-2,0.4-4.2-0.5-6.1
		c-0.5-0.9-1.4-1.9-2.5-1.8c-1.1,0-1.9,0.8-2.5,1.6c-1.6,2-2,4.5-2.1,6.9c-0.1,1,0.4,2,0.6,2.9c-0.2,0.8-0.3,1.5,0,2.3
		c-0.6,0.2-1.4,0.3-1.8,0.9c-0.9,1.3-0.3,2.9-0.1,4.4c-1.2-1.2-2.3-2.6-3.6-3.7c-1.9-1.8-4-3.3-6.1-4.9c-1.9-1.3-4.1-2.4-6.2-3.3
		c-1.6-0.7-3.3-1-5-0.9c-2.8,0.2-5.5,0.3-8.3,0.7c-2.3,0.3-4.6,0-6.8-0.6c1.2-0.5,2.8-1.6,2.1-3.1c3.9-1.3,8.2-1.5,12.3-0.6
		c3.1,0.7,6.2,1.3,9.3,1.9c1.2,0.2,2.5,0.5,3.7-0.1c0.7-0.3,1-1.2,0.7-1.8c-0.6-1.4-1.8-2.4-3-3.3c-3-2-6-3.9-9.3-5.3
		c-1.5-0.6-3-1.2-4.5-1.7c-3.4-1.1-6.9-1.5-10.5-1.5c-1.8,0.1-4,0.1-5.2,1.7c-1.2,1.8-1.8,4-2.5,6c-0.7-0.1-1.3-0.1-2-0.1
		c-0.7-0.3-1.1-1.1-1.5-1.7c-0.6-1,0.1-2.3-0.5-3.3c-0.6-1-1.6-1.8-2.3-2.8c-1.1-1.5-0.7-3.5-1.2-5.3c-0.6-2.6-2.8-4.5-5.1-5.6
		C152.8,19.3,149.4,18.5,146.3,19.4z M118,41c0.4,0.7,0.7,1.4,0.9,2.2c-1.5,0.9-2.7,2.1-4.1,3.2C115.8,44.5,116.8,42.7,118,41z
		 M67.6,46.4c0.1,0.4,0,0.6-0.4,0.5C67.1,46.4,67.2,46.3,67.6,46.4z M47.3,112.1c-0.6,0.2-1.1,0.6-1.7,0.5c-0.6-0.6-1-1.3-1.4-2
		C45.2,111.1,46.2,111.6,47.3,112.1z M46.4,69.3c-3.1-0.6-6.2-0.9-9.3-1.6c-0.4-2,0.5-4-0.2-5.9c-0.2-0.7-0.6-1.5-0.1-2.2
		c1.4-1.8,3.3-3.5,4.1-5.8c0.4-1,0-2.3,0.9-3c1.3-0.6,2.9,0.1,4.2-0.5c1.5-0.6,1.9-2.5,3.5-3c1.5-0.8,3.2-0.7,4.8-0.6
		c2.7,0.2,5.2-1.3,7.9-0.8c0.1,0.6,0.3,1.2,0.4,1.8c0.4,1.4,2.1,1.6,3.3,1.7c2.6,0.3,5-1.1,7.4-1.9c0.9-0.3,1.9-0.5,2.4-1.4
		c0.9-1.3,0.4-2.9,0.8-4.3c0.9-0.6,2.1-0.4,2.9-1.3c1-1,1.9-2.4,3.4-2.3c1.7-0.2,3.2,0.7,4.6,1.6c0.9,0.6,1.9-0.2,2.9-0.3
		c2,0,3.6,1.5,4.9,2.9c0.7,0.9,1.6,2,1.2,3.2c-0.8,0.8-2.1,0.8-2.8,1.7c0.2,2,2.4,2.9,4.2,3c0.9,0.1,1.9-0.1,2.6,0.5
		c1.3,1.3,1.5,3.6,3.3,4.4c1.8,0.8,3.7,1.5,5.3,2.6c-0.3,0.7-0.5,1.5-1.2,2c-0.9,0.7-1.4,1.7-2,2.7c-0.9-1.1-1.5-2.3-2.5-3.3
		c-0.8-1-1.5-2.4-2.9-2.7c-1.2-0.2-2.5-0.2-3.8-0.4c0.6-1,1.5-1.7,2.5-2.3c-1.3,0-2.6,0-3.8,0.4c-1.2,0.3-2.3,0.9-3.5,1.4
		c1.3-1.2,3-1.8,4.7-2.4c-0.1-0.3-0.3-0.6-0.5-0.9c-1-0.4-2-0.3-3-0.4c-0.8-1.7-2.4-2.4-3.8-3.5c0.5-0.9,1.8-1.8,1.2-2.9
		c-3.3-2.4-8.3-2.6-11.6,0c-0.5,0.5-0.9,1.1-0.9,1.8c0,0.7,0.4,1.4,0.5,2.1c-0.1,0.9-0.3,1.9-0.1,2.9c0.2,0.8,0.9,1.4,1.5,1.9
		C79.4,55,79,55.8,79,56.6c0.5,0,0.6-0.6,0.8-0.9c0.9-1.6,1.9-3.1,3.1-4.5c-0.2,2.4-0.1,4.9,0.2,7.3c0.2-1.1,0.1-2.4,0.4-3.5
		c0.9-0.6,2-1,3-1.4c-0.9,1.7-1.8,3.5-2.4,5.4c1.4-1.7,2.4-3.8,3.9-5.4c1.7-0.5,3.5-0.3,5.3-0.4c-1.1,0.9-2.3,1.8-2.9,3
		c-0.5,1-1,2.1-1.4,3.2c0.8-0.6,1.4-1.4,2.3-2c1.5-1.1,3.3-1.9,5.1-2.7c-2.2,2.2-2,5.8-0.5,8.4c-1.8-1.1-4.1-1.4-6.1-0.7
		c-1.6,0.6-2.1,2.4-2.1,3.9c0.2,2.8,1.6,5.3,3.4,7.5c-2.9-1.6-6.3-1.8-9.5-1.6c-3.8,0.3-7.3,2-10.7,3.7c-1,0.5-1.9,1.2-2.8,1.9
		c-1-0.8-2-1.8-2-3.3c-0.2,0.6-0.3,1.3,0.1,1.9c1.4,2.4,3.9,3.8,6.4,4.9c4,2.1,8.1,4,12.4,5.2c-0.5,1.4,0,2.7,0.6,4
		c-2.5-1.7-5.4-2.9-8.5-3.4c1.2,0.8,2.5,1.3,3.7,2.1c2.1,1.2,4.3,2,6.5,3c-3.1,0.6-6.2,1.5-9.2,2.6c-2.4,0.9-5,1.7-7,3.5
		c0.3,0.4,0.5,0.7,0.8,1.1c0-0.5-0.1-1-0.1-1.5c0.8,0.2,1.6,0.6,2.3,1c0.6,0.3,1.2,0.5,1.7,0.7c0,0.1-0.1,0.2-0.1,0.3
		c-1.8,0.6-3.7,1-5.6,0.5c-1-0.2-1.8-1.3-1.6-2.4c0.3-1.4,1.5-2.4,2.7-3.2c2.9-2,6.3-3.3,9.8-4C79,90.5,77,91.3,75,91.9
		c-2.7,0.9-5.5,2.2-7.1,4.6c-1.2-2.2-2.3-4.5-3.3-6.8c-1.3-3.2-2.6-6.4-3.5-9.8c2.6,2.5,5.9,4.2,9.3,5.5c1.8,0.7,3.6,1.4,5.4,1.7
		c-0.9-0.6-2-0.9-3-1.4c-3-1.4-5.9-3-8.6-4.8c-1.4-0.9-2.7-2-3.7-3.4c-1.2-1.4-0.2-3.6,1.2-4.4c2.1-1.3,4.7-1,7-1.1
		c-1.8-0.8-3.7-0.9-5.6-0.7c1.3-3.1,2.9-6,4.9-8.6c1.2,0,2.4,0.1,3.5-0.1c1.9-0.1,3.8-0.8,5.7-0.4c1.5,2.2,1.9,4.8,3,7.1
		c-0.1-2.4-0.5-4.9-1.6-7c-1.3-2.6-3.5-4.4-5.4-6.5c1.8,0.3,3.7,0.8,5.2,2c1.4,1.1,2.4,2.5,3.6,3.7c-0.4-1.1-1.1-2-1.7-2.9
		c-1.8-2.8-5.3-3.9-8.4-3.9c-1.1,0.2-2-0.6-3-0.9c-2-0.8-4.3-0.6-6.4-0.1c-0.8-1.2-2.1-2.1-3.6-1.9c-2.4-0.1-4.4,1.7-6.8,1.6
		c-1,0.1-2.1-0.3-3.1,0.2c-1,0.6-1.7,1.6-2,2.8c-0.5,2-0.1,4.2,0.9,5.9c0.7,1.1,1.7,1.9,2.6,2.9c0,1.5-0.5,2.9-0.5,4.4
		C48.8,69.4,47.6,69.5,46.4,69.3z M118.3,62.8c-0.3,0.3-0.5,0.6-0.8,0.8c-0.2-0.5-0.4-0.9-0.7-1.4c0.3-0.3,0.5-0.6,0.8-0.9
		C117.8,61.9,118,62.3,118.3,62.8z M104.4,73.5c1.7,2.2,4.1,3.9,6.1,5.9c-0.7,0.4-1.4,0.8-2.1,1.3c-0.9-1.7-2.4-2.9-4.1-3.7
		c-1.9-0.8-3.5-2.1-4.8-3.6C101.1,73.8,102.8,74.2,104.4,73.5z M111.1,80.5c-0.3-0.8,1.3-0.2,0.9,0.3
		C111.6,80.9,111.3,80.8,111.1,80.5z M113.1,80c-1.4-0.9-2.5-2.3-3.8-3.3c-1.2-0.8-2.1-2.1-3.2-3c-0.8-0.6-1.5-1.3-2.1-2.1
		c0.4-0.5,0.8-0.9,1.2-1.4c0.1,0.1,0.4,0.2,0.6,0.3c0.7-1.1,0.9-2.3,1.1-3.6c0.6-0.7,1.2-1.6,1.2-2.5c0.5,0.5,1.1,1,1.5,1.6
		c0.4-0.4,0.9-0.7,1.4-1c0.2,0.3,0.5,0.7,0.7,1c0.6-0.4,1.2-0.7,1.8-1.1c0.2,0.3,0.5,0.6,0.7,0.9c-0.2-0.3-0.4-0.7-0.5-1
		c0.3-0.2,0.6-0.4,0.9-0.6c0.3,0.4,0.6,0.9,0.9,1.3c-0.3,0.4-0.7,0.7-1,1.1c1-0.6,1.9-1.5,2.9-2.2c0.2,0.4,0.5,0.8,0.4,1.2
		c-0.3,0.3-0.6,0.6-0.8,1c0.4-0.2,0.7-0.5,1.1-0.7c0.1,0.2,0.2,0.5,0.2,0.6c0-0.2-0.1-0.6-0.1-0.8c0.9-0.4,1.6-1.3,2.6-1.5
		c-0.3,0.8-1,1.4-1.5,2.1c0.6-0.3,1.2-0.7,1.7-1.1c0.3,0.8,0.6,1.7,0.9,2.5c-0.1-1.1-0.7-2.3-0.3-3.4c0.3,0.3,0.7,0.5,1,0.8
		c-0.1-0.4-0.3-0.8-0.4-1.2c1.5,1.2,2.8,2.6,4.3,3.8c1.3,1.1,2.8,2.1,3.9,3.6c0.8,1.2,1.3,3.1,0.2,4.3c-1.7,2.3-4.7,3.1-7.4,3.7
		C119.9,80,116.5,80.6,113.1,80z M96.4,66.3c0.6-2.5-0.7-4.8-0.4-7.3c0-0.8,0.2-1.6,0.4-2.3c1.6,1.6,4,1.8,5.9,3
		c-0.1,0.5-0.1,1.1-0.8,1c-0.6-0.4-1.1-1.4-2-1.1c-0.7,0.8,0.2,1.7,0.7,2.3c-1.2,0.1-2.4,0.2-3.5,0.5c0.6,0.7,1.3,1.1,2,1.7
		c-0.6,0.1-1.1,0.2-1.7,0.3c0.1,0.7,0.9,0.6,1.4,0.8c0.9,0.2,1.6,0.8,2.3,1.2c-0.2,0.5-0.5,0.9-0.7,1.4c-1.3-0.4-2.5,0.3-3.8,0.2
		c-0.1-0.1-0.2-0.3-0.2-0.4c0.6-0.8,1.3-1.6,1.8-2.5C97.3,65.5,96.8,65.9,96.4,66.3z M116.4,64.8c-0.2-0.6-0.9-1.3-0.3-1.8
		c0.7-0.2,0.7,0.6,0.9,1.1C116.8,64.3,116.6,64.5,116.4,64.8z M118.6,63.4c0.2,0.4,0.4,0.8,0.6,1.1c-0.4,0.3-0.8,0.7-1.1,1
		c-0.1-0.4-0.3-0.9-0.4-1.3C118,64,118.3,63.7,118.6,63.4z M112.2,61.5c0.4,0.3,0.7,0.7,1,1c-0.1,0.2-0.4,0.5-0.5,0.6
		C112.4,62.7,111.6,62.1,112.2,61.5z M110.4,61.9c-0.3-0.5,0.5-0.6,0.6-0.2C111.2,62.2,110.5,62.3,110.4,61.9z M112.2,63.7
		c-0.9,0.4-1.1-0.7-1.1-1.4C111.6,62.7,112,63.2,112.2,63.7z M111.5,64.1c-0.2,0.2-0.5,0.5-0.6,0.7c-0.3-0.4-0.6-0.8-0.9-1.2
		c0.2-0.1,0.5-0.4,0.7-0.5C111,63.4,111.2,63.7,111.5,64.1z M112.5,64c0.2,0.2,0.5,0.5,0.7,0.8c-0.5,0.4-0.9,0.7-1.4,1.1
		c-0.2-0.3-0.5-0.6-0.7-0.8C111.6,64.7,112,64.3,112.5,64z M112.9,63.6c0.3-0.2,0.5-0.4,0.8-0.5c0.1,0.3,0.3,0.6,0.4,0.9
		c-0.2,0.1-0.5,0.4-0.6,0.6C113.3,64.3,113,63.9,112.9,63.6z M115.4,63.6c0.2,0.4,0.7,0.8,0.8,1.3c-0.2,0.2-0.5,0.5-0.7,0.6
		c-0.2-0.5-0.5-1-0.7-1.5C115,64,115.3,63.7,115.4,63.6z M115,63.2c-0.6,0.8-1.4-0.6-0.5-0.9C114.7,62.5,114.9,62.9,115,63.2z
		 M115.2,61.5c0.5-0.4,0.6,0.4,0.8,0.7c-0.2,0.1-0.5,0.5-0.7,0.6C115.2,62.4,114.7,61.9,115.2,61.5z M113.7,62.3
		c-0.3-0.6-1.3-1.2-0.4-1.8C113.6,61.1,114.4,61.7,113.7,62.3z M111,61.3c0.1-0.5,0.4-0.8,0.8-1C112.3,61,111.8,61.5,111,61.3z
		 M110.5,60.4c-0.3-0.4,0.4-0.8,0.7-0.5C111.4,60.3,110.8,60.7,110.5,60.4z M110.2,60.7c-0.2,0.4-0.4,0.4-0.6,0
		C109.8,60.3,110,60.3,110.2,60.7z M109.5,61.9c0.3,0.2,0.8,0.3,0.7,0.8c-0.2,0.1-0.5,0.3-0.7,0.5c-0.1-0.3-0.2-0.6-0.3-1
		c-0.3-0.1-0.7-0.3-1-0.4c0.3-0.4,0.6-0.7,1-0.9C109.3,61.3,109.4,61.6,109.5,61.9z M110.4,64.7c0.2,0.5-0.5,0.7-0.8,1
		c-0.7-1.2-1.6-2.6-3-3.2c0,0.3,0,0.6,0.1,0.9c-0.3-0.2-0.6-0.3-0.9-0.5c0.4-0.8,1.3-0.9,2.1-0.9C108.5,63.1,109.4,64,110.4,64.7z
		 M104.9,69.6c-0.3,0.5-0.7,0.8-1.2,1.2c0-0.6,0.1-1.2,0.2-1.7c-0.3-0.2-0.6-0.4-0.8-0.5c-0.8,1.4-2.5,0.7-3.6,0
		c0.3-0.2,0.7-0.3,1-0.5c0.1-0.4,0.2-0.7,0.3-1.1c1.3,0.6,2.6,1.1,4,1.3c0.3-0.8,0.8-1.4,1.2-2.2c-0.7,0.5-1.2,1.1-1.8,1.6
		c-0.6-0.3-0.4-1.1-0.5-1.7c1.2,0,2.4,0,3.2-1c-0.6-0.4-1.1-0.9-1.5-1.5c0.7,0.2,1.4,0.4,2.1,0.5c-0.2,0.2-0.4,0.4-0.6,0.6
		c0.1,0.3,0.2,0.6,0.3,0.8c-0.3,0.4-0.7,0.8-1,1.3c-0.1,0.9-0.1,1.8-0.2,2.8c-0.3-0.5-0.6-1-1-1.4C105,68.6,105,69.1,104.9,69.6z
		 M98.3,70.5c-0.4,0.4-0.9,1-1.5,0.9c-0.7-0.1-1.5-0.6-1.5-1.4c0.1-0.5,0.6-0.9,0.9-1.3C96.9,69.4,97.6,70,98.3,70.5z M96.8,68.5
		c0.9-0.1,1.5,0.5,1.7,1.3C97.9,69.5,97.3,69,96.8,68.5z M99,70.3c0-0.4,0-0.9,0-1.3c0.8,0.4,1.6,0.9,2.5,0.8c0.8,0,1.4-0.6,2.1-0.8
		c-0.2,1-1.2,1.3-2,1.8C100.8,71.4,99.9,70.5,99,70.3z M100.7,64.3c0,0.6-0.1,1.2-0.1,1.8c-0.6-0.4-1.2-0.9-1.8-1.3
		c0.2,0,0.7-0.1,0.9-0.2c-0.5-0.8-1.1-1.4-1.9-2c0.9-0.2,1.7-0.4,2.6-0.5c0.1,0.4,0.2,0.8,0.2,1.2c-0.5-0.1-0.9-0.1-1.4-0.2
		C99.8,63.6,100.3,63.9,100.7,64.3z M101.4,64.3c0.7,0.5,1.6,0.8,2,1.5c-0.1,0.7-0.3,1.4-0.3,2.1c-0.6-0.4-1.3-0.8-1.9-1.2
		C101.2,65.9,101.1,65.1,101.4,64.3z M105.9,65.2c-0.7,0.2-1.3,0.5-2,0.5c-0.3-0.2-0.6-0.5-0.9-0.7c0.2-0.7,0.5-1.4,0.9-2.1
		C104.7,63.5,105.3,64.3,105.9,65.2z M102.7,64.5c-0.5-0.3-1-0.6-1.5-0.8c0-0.6,0-1.2,0-1.7c0.8-0.2,1.5,0.2,2.1,0.6
		C103.1,63.1,102.9,63.8,102.7,64.5z M100.7,61.9c-0.3-0.6-0.6-1.2-0.9-1.9c0.5,0.3,1.2,0.4,1.3,1C101,61.3,100.8,61.7,100.7,61.9z
		 M101.7,61.1c0.5-0.3,0.9-0.7,1.3-1.1c0.5,0.8,1,1.6,1.5,2.4C103.3,62.6,102.7,61.3,101.7,61.1z M96,67.8c-0.2,0.8-1.3,1.2-1.3,2.2
		c-0.1,1.1,1.1,1.9,2.1,2c0.9,0.1,1.4-0.7,2-1.2c0.6,0.2,1.3,0.4,1.9,0.5c-1.7,1.1-3.3,2.5-5.1,3.4c-1.2-1.1-2.4-2.3-3-3.8
		C93.7,69.8,94.8,68.8,96,67.8z M92.4,70.4c-0.2-1-0.2-2.4,0.8-3c0.6-0.1,1.1,0.2,1.7,0.4C94.1,68.7,93.3,69.7,92.4,70.4z
		 M103.2,70.1c0,1,0.3,1.8,0.8,2.7c-1.5-0.1-3,0-4.4,0.1C100.7,72,102,71.1,103.2,70.1z M119.5,64.3c-0.2-0.5-0.3-0.9-0.5-1.4
		c0.2-0.2,0.5-0.5,0.7-0.6c0.2,0.4,0.4,0.9,0.6,1.3C120.1,63.8,119.7,64.1,119.5,64.3z M116.5,61.8c-0.2-0.4-0.4-0.8-0.5-1.2
		c0.5,0.2,0.9,0.4,1.4,0.6C117.1,61.3,116.8,61.6,116.5,61.8z M115.3,60.8c-0.2,0.2-0.5,0.5-0.6,0.6c-0.4-0.5-0.7-1-1.1-1.5
		c0.4,0.1,0.8,0.2,1.2,0.2C115,60.3,115.2,60.6,115.3,60.8z M112.5,60.7c-0.2-0.3-0.4-0.6-0.6-1c0.4,0,0.7,0,1.1,0
		C113.3,60.2,112.7,60.4,112.5,60.7z M87.7,51.9c-1.4,0.8-2.8,1.6-4.1,2.5c0.1-1.2,0.2-2.4,0.7-3.6c0.1-0.4,0.4-0.9,0.3-1.4
		c-0.1-0.5-0.7-0.7-1.1-0.4c-1.6,1.2-2.7,2.9-3.5,4.6c-0.4-0.4-0.8-0.8-0.9-1.4c-0.2-1,0.4-2,0.6-2.9c0-0.8-0.8-2,0-2.6
		c2.7-1.7,6.1-1.7,9-0.5c-0.4,0.8-1.2,1.7-0.6,2.6c1.1,1.5,3.3,1.5,4.3,3.1c-1,0.2-2.1,0.3-3.1,0.6c-0.1-0.4,0-1-0.5-1.1
		C88.3,51.6,88,51.8,87.7,51.9z M84.3,75.5c0.3,0.5,0.6,1,0.9,1.5c-1.1-0.2-2.2-0.3-3.4-0.4c-0.2,1,0.5,1.9,1.3,2.4
		c1.5,0.9,3.4,0.9,5.2,0.7c1.5-0.3,3.2-0.9,3.7-2.5c0.7,2,1.2,4.1,1.2,6.2c-2.9-0.4-6.5,0.1-8,2.9c-2.6-1-5-2.4-7.6-3.6
		c-1.8-0.8-3.5-1.9-5.4-2.6c-1.3-0.5-2.6-1.2-3.8-2c1.1-0.6,2.3-1.3,3.5-1.7c2.4-0.8,4.6-1.9,7.1-2.4c3-0.7,6.2-0.8,9.3-0.4
		c1.3,0.1,2.3,1.1,3,2.1C89.2,74.3,86.5,74.5,84.3,75.5z M96.2,86.4c-2.2-1.5-5.1-1.8-7.6-1.1c-0.7,0.2-1.3,0.7-1.8,1.3
		c0.9-0.4,1.8-0.9,2.9-0.9c2.5,0,5.4,0.2,7.2,2.1c0.4,1.4,0,3.1-1.2,3.9c-3.4,2-8.6,0.5-10.2-3.2c-0.3-1.3,0.4-2.8,1.6-3.4
		C90,83.8,94,83.9,96.2,86.4z M97.2,86.2c0.4,0.6,0.6,1.2,0.7,1.9C97.5,87.6,97.3,86.9,97.2,86.2z M86.5,99.6c2.4-0.7,5.1-0.9,7.5,0
		c0.1,1.9-0.2,3.8-0.3,5.6c-1.5,0.4-3.1,1-4.6,0.6c-1-0.2-2.1-0.4-2.9-1.2c-1.4-1.2-1.8-3.7-0.5-5.1c1.4-1.5,3.5-1.9,5.5-1.8
		c1.1,0.2,2.4,0.3,3.1,1.1C91.8,97.9,88.7,98,86.5,99.6z M90.8,94.3c0.5-0.6,1.4-0.5,2.1-0.5c-0.2,1.2-0.4,2.3-0.6,3.5
		c-2.6-0.5-5.9-0.5-7.7,1.7c-0.5,0.8-1.6,0.6-2.4,0.7c-2.4-0.5-4.9-0.8-7.3-1.4c-0.7-0.2-1.5-0.4-2.2-0.7c2.1-1,4.5-1.3,6.7-2.1
		c1.1-0.3,2.2-0.9,3.3-1.1c1,0.4,1.9,0.9,2.9,1.2C87.4,96,89.5,95.7,90.8,94.3z M92.6,97.5c1-1,1.6-2.4,1-3.8
		c0.6-0.2,1.3-0.4,1.9-0.6c-0.7,1.6-1.2,3.3-1.4,5.1C93.6,97.9,93.1,97.7,92.6,97.5z M53,54.9c2.1-0.3,3.7-2,5.8-2.2
		c1.1-0.3,2.2,0.2,3.1,0.9c-5.1,1.2-9.4,5.2-11,10.2c-1.1-1.4-2.2-2.8-2.4-4.6c-0.1-1.4-0.1-3.4,1.4-4.1C50.9,55,52,55.2,53,54.9z
		 M27.9,87c-1.9-0.1-3.9-1.2-5.8-0.2c-1.2,0.7-1.6,2.1-2.4,3.2c-0.6,0.7-1.7,0.5-2.4,0.1c-0.8-0.5-1.6-1.3-1.9-2.3
		c-0.1-1,0.4-1.9,0.3-2.9c-0.1-0.7-0.5-1.3-0.9-1.9c0.9-0.9,1.9-1.7,2.3-2.9c0.4-1.4,0.7-2.9,1.8-3.8c2-0.7,4,0.4,6,0.6
		c1.7,0.2,3.3-0.5,4.6-1.5c-0.1,1.1-0.3,2.3-0.4,3.4c-2.2-0.2-4.5-0.3-6.8,0C21,79,19.4,79.5,19,81c-0.5,1.5,0.9,3.1,2.4,2.9
		c1-0.1,1.8-0.7,2.8-1.1c1.5-0.7,3.2-0.5,4.9-0.5c0,0.9,0.2,1.8,0.1,2.8C28.8,85.7,28.3,86.3,27.9,87z M25,81
		c-1.4,0.1-2.6,0.8-3.9,1.2c-0.8-0.7,0-1.5,0.8-1.7c2.3-0.8,4.7-1.1,7.2-1.2c0,0.7,0,1.3,0,2C27.7,81.1,26.3,80.9,25,81z
		 M62.4,101.7c-2.4-2.1-4.7-4.3-6.5-6.9c-2.2-3.3-3.8-6.9-5.1-10.6c-0.8-3.1-1.6-6.3-1.6-9.5c0-1.3,0.2-2.6,0.9-3.7
		c0.6,3.3,1.7,6.5,3.3,9.5c2,4.1,4.8,7.7,7.8,11.2c2,2.5,3.1,5.6,4.1,8.7C64.3,100.8,63.4,101.2,62.4,101.7z M77.8,100.1
		c1.4,0.3,2.8,0.4,4.2,0.4c-1.5,1-3,1.9-4.8,2.2C77.4,101.8,77.6,100.9,77.8,100.1z M76,105.5c0.5-0.8,0.8-1.7,1.2-2.6
		c1.2,0.7,2.6,1.1,4,1c-1,1.8-0.6,3.9,0.1,5.7C79,108.9,77.5,107.2,76,105.5z M91.2,113.1c-1.6-0.5-3-1.4-4.2-2.5
		c-1.6-1.3-2.8-3.2-2.9-5.3c-0.4,0.5-0.9,1-1.2,1.6c-0.5,0.8-0.6,1.9-0.8,2.8c-0.4-1.8-0.4-3.8-0.1-5.6c0.3-0.4,0.6-0.9,1-1.3
		c-0.8,0-1.6,0-2.5,0c1.2-0.6,2-1.7,2.8-2.7c0.2,0,0.5,0,0.7,0.1c-0.5,2,0,4.4,1.8,5.6c2.4,1.6,5.5,1.1,8,0
		c-0.1,1.8,0.1,3.6,0.5,5.3c-1-0.4-2.1-0.7-3-1.3c-0.9-0.6-1.5-1.6-2.3-2.4C89,109.4,89.9,111.4,91.2,113.1z M99.5,108.3
		c-0.2,1.3-0.9,2.6-1.8,3.6c-0.3,0.4-1.1,0.7-1.4,0.2c-1.1-1.4-1.4-3.2-1.3-4.9c0.3-4.3-0.2-8.8,1.4-12.9c0.7-2.2,2.4-4.2,2-6.6
		c-0.2-1.4-1.7-1.8-2.5-2.7c-0.7-0.7-1.6-1-2.5-1.4c0.7-2.9,0.4-6-1.2-8.5c-0.8-1.8-2.1-3.5-2.6-5.4c-0.5-1.6-0.9-3.3-0.3-5
		c0.4-1,1.5-1.3,2.5-1.4c1.3-0.1,2.7-0.1,3.8,0.7c0.9,0.7,0.4,2,0.5,2.9c-0.3,0.3-0.7,0.7-1,1c-0.4-0.3-0.8-0.8-1.3-0.9
		c-1.4-0.3-2.5,1.1-2.6,2.4c-0.1,1.6,0.8,2.9,1.8,4.1c1.6,2,3.6,3.8,5.7,5.3c1.7,1.1,3.7,2.1,4.8,3.8c0.5,1.7,0,3.5-0.8,5.1
		c-1.5,2.9-2.7,5.9-3.8,8.9c-1.6,3.1-1.9,6.7-1.8,10.2c0,0.9-0.1,1.8,0.2,2.7c0.3-1.7,0.6-3.4,0.9-5.2c1-0.2,1.9-0.4,2.8-0.8
		C100.4,104.9,99.8,106.5,99.5,108.3z M102.8,96.1c-0.4,1.8-0.5,3.8-1.5,5.4c-0.6,1.3-2.1,1.7-3.3,2.2c0.4-1.9,0.4-3.8,1.2-5.6
		c1.5-3.9,3.2-7.7,4.7-11.6c0.4-1.5,0.8-3.1,0.4-4.6c-0.8-1.7-2.4-2.8-3.9-3.8c-1.6-1-3.1-2.1-4.5-3.3c1-0.6,2.1-1.1,3.1-1.7
		c1.3,2,3,3.7,5.1,4.8c1.7,1.1,3.7,2.7,3.4,5c-0.6,2.2-2.1,4-2.7,6.2C104,91.5,103.2,93.8,102.8,96.1z M120.3,84.5
		c-0.2,0.4-0.4,0.3-0.6-0.1C119.8,84.1,120,84.1,120.3,84.5z M122.1,84.8c-0.1,0.4-0.7,0.3-0.8-0.1C121,84,122.3,84.2,122.1,84.8z
		 M118.7,84.2c-0.2,0.2-0.4,0.4-0.6,0.6c-0.2-0.4-0.4-0.8-0.6-1.2C117.9,83.8,118.3,84,118.7,84.2z M119.2,83.7
		c-0.1,0.4-0.7,0-0.8-0.2C118.1,82.8,119.3,83.2,119.2,83.7z M120.7,83.5c0.2,0.4,0,0.6-0.4,0.4C120.1,83.4,120.2,83.3,120.7,83.5z
		 M112.3,80.9c0.6,0.1,1.2,0.2,1.7,0.3c-0.1,0.2-0.4,0.5-0.5,0.7C113.1,81.6,112.7,81.3,112.3,80.9z M115.9,82.1
		c-0.4,0.1-0.8-0.4-1.1-0.7C114.8,80.5,116.1,81.7,115.9,82.1z M108.7,82.9c-0.2-0.3-0.2-1,0.2-1.1
		C109.5,81.9,109.3,83.2,108.7,82.9z M110.9,81.9c0.2,0.5,0,0.6-0.5,0.5C110.2,81.9,110.4,81.7,110.9,81.9z M110.4,82.9
		c0,0.4-0.1,0.8-0.2,1.1c-0.3-0.2-0.6-0.4-0.9-0.6C109.6,83.1,109.9,82.5,110.4,82.9z M111.5,82.4c0.4,0.2,0.7,0.4,1.1,0.7
		c-0.1,0.2-0.3,0.6-0.4,0.8C111.6,83.5,111.2,83.1,111.5,82.4z M111.9,82c0.2-0.6,1.6,0.4,0.8,0.8C112.4,82.8,112.1,82.4,111.9,82z
		 M114,82.2c0.1-0.1,0.4-0.2,0.5-0.3c0.3,0.3,0.6,0.6,1,0.9c-0.2,0.2-0.4,0.4-0.5,0.6C114.6,83,114.3,82.6,114,82.2z M117.3,83.5
		c-0.4,0.1-0.7-0.3-0.8-0.6C116.2,82,117.6,83,117.3,83.5z M118.8,82.7c0.1-0.5,1.1,0,0.9,0.4C119.4,83.3,119,83,118.8,82.7z
		 M117.8,82.5c-0.1,0.4-0.7,0-0.8-0.3C116.7,81.5,117.9,82.1,117.8,82.5z M117.3,81.5c0.3-0.4,1.2,0.2,1.1,0.6
		C117.9,82.2,117.4,81.8,117.3,81.5z M115.8,81.2c0-0.5,0.8-0.3,0.9,0.1C116.7,81.8,115.9,81.6,115.8,81.2z M108.8,84.5
		c-0.2-0.7,1-0.3,0.9,0.2C109.5,85.2,108.9,84.7,108.8,84.5z M109.2,85.4c-0.1,0.2-0.3,0.5-0.4,0.7c-0.4-0.4-0.7-0.7-0.9-1.2
		C108.4,85,108.8,85.2,109.2,85.4z M109.8,92.5c-1.7-0.5-3.3-1.6-4-3.3c0.4-1.2,0.9-2.4,1.5-3.5c0.5,0.2,1,0.4,1.5,0.6
		c-0.2,0.4-0.5,0.8-0.7,1.1c0.9-0.7,1.5-1.6,2.1-2.6c0.8,0.5,1.5,1,2.3,1.5c-0.6-0.7-1.3-1.4-2-2.1c0.3-0.3,0.5-0.6,0.8-0.9
		c0.3,0.4,0.6,0.7,0.9,1.1c0.5-0.6,1-1.2,1.5-1.7c0.4,0.3,0.8,0.6,1.1,0.9c-0.6,0.6-1.2,1.2-1.8,1.8c1.1-0.6,2-1.4,2.9-2.3
		c0.3,0.2,0.6,0.5,0.8,0.7c-0.4,0.5-0.8,1-1.1,1.6c0.5-0.4,1-0.8,1.5-1.3c0.2,0.3,0.5,0.6,0.7,0.9c-0.3,0.4-0.7,0.7-1.1,1.1
		c0.5-0.3,1-0.7,1.6-0.8c0.2-0.3,0.4-0.5,0.5-0.8c0.3,0.2,0.6,0.4,0.9,0.6c-0.1,0.3-0.2,0.5-0.3,0.8c0.1-0.1,0.4-0.4,0.6-0.5
		c0.3,0.3,0.6,0.6,0.9,0.8c-0.1-0.4-1-1.1-0.3-1.4c0.8,0.4,1.4,1.1,2.1,1.7c-0.5-0.5-0.8-1.2-0.2-1.7c0.6,0.5,1.3,1,1.8,1.6
		c-0.1-0.3-0.4-0.8-0.6-1.1c1.2,0.6,2.3,1.4,3.3,2.2c0.6,0.5,1.1,1.2,1,2c-0.9,1.7-2.8,2.4-4.5,3C119.4,94.4,114.3,93.9,109.8,92.5z
		 M109.5,93.6c-0.3-0.6,0.9-0.5,0.8,0C110.2,94.1,109.6,94,109.5,93.6z M110.7,94.4c1.1,0,2.2-0.1,3.4,0c-1,0.2-2.1,0.2-3.1,0.3
		C110.9,94.7,110.8,94.5,110.7,94.4z M111,95.2c0.2,0,0.6,0.1,0.7,0.1c0,0.2,0,0.5,0,0.7c-0.2,0-0.5,0.1-0.7,0.1
		C111.1,95.9,111,95.4,111,95.2z M113,95.3c0.4,0.5-0.5,0.8-0.7,0.4C111.9,95.2,112.7,94.9,113,95.3z M118.2,96.1
		c-1.3-0.3-2.7-0.4-4.1-0.4c-0.4,0.1-0.7-0.1-0.9-0.4c1.1-0.1,2.4-0.5,3.4,0.1c-0.1-0.2-0.2-0.5-0.3-0.6c3.8,0.4,7.6-0.7,10.9-2.7
		c0.7-0.6,1.8-1.2,1.9-2.3c0.3-1.1-0.2-2.3-1.1-3.1c-1.6-1.5-3.5-2.5-5.3-3.6c-1.6-1-3.3-1.5-5-2.2c3.7-0.3,7.6-0.5,11-2.1
		c1.4-0.8,2.7-1.9,3.4-3.4c0.6-1.8-0.2-3.8-1.5-5.1c-3.9-3.9-8-7.7-12.9-10.2c-1.1-0.5-2.2-0.9-3.4-1.1c-1.9-0.3-3.7,0.3-5.6,0.6
		c0.7-1.4,1.6-2.7,2.4-4.1c0.9-1.7,2.5-2.9,3.8-4.2c1-1,1.6-2.1,2.3-3.3c0.9-1.6,2.7-2.6,4.2-3.5c0.8-0.5,1.8-0.7,2.7-1
		c0.6-1.7,0.1-4,1.9-5.1c4.2-3,9.7-2.7,14.5-1.6c0.1,0.6,0.1,1.2,0.2,1.8c0.2-0.5,0.4-1.1,0.5-1.6c0.2,0.1,0.7,0.2,1,0.3
		c-0.2,0.2-0.3,0.4-0.5,0.5c0.2,0.2,0.5,0.5,0.7,0.7c0.2-0.2,0.5-0.3,0.7-0.5c0.1,0.7,0.3,1.5,0.4,2.2c0.4-0.1,0.8-0.1,1.2-0.2
		c0.1,0.3,0.2,0.8,0.3,1.1c-0.3,0-0.9,0-1.2,0c0.8,0.2,1.6,0.3,2.4,0.4c-0.1,0.4-0.1,0.9-0.2,1.3c0.5,0,1,0,1.5,0
		c-0.1,0.5-0.2,1.1-0.3,1.6c0.3-0.6,0.9-0.5,1.5-0.4c0.1,0.2,0.2,0.5,0.3,0.7c0.1-0.1,0.2-0.4,0.2-0.5c0.2,0,0.6,0,0.8,0
		c0,0.3,0,0.9-0.1,1.2c0.4-0.4,0.6-1,1.2-1.2c0,0.8,0,1.5-0.1,2.2c0.5,0.1,2-0.1,1.5,0.8c-4.4,0.2-9,0.6-12.9,2.8
		c-3.1,1.8-6.2,4.2-7.6,7.6c-1.9-2.5-4-4.9-5.4-7.8c-0.7-1.5-0.4-3.2-0.1-4.8c-1,1.7-1.3,3.8-0.6,5.7c1.2,3,3.5,5.4,6,7.5
		c-1.3,3.2-1.2,6.8,0,10c0.8,1.4-0.1,3,0.5,4.5c0.1,0.8,0.8,1.3,1.3,1.9c-0.2,2.1-1.1,4.1-1.2,6.3c-0.1,2.3,0.6,4.5,1.6,6.5
		c-2.1,3.3-3.9,6.8-5.3,10.4c-0.6,1.3-0.1,2.8,0,4.1c0.1,1.2,0,2.5,0.6,3.6c1,0.2,1.9,0.9,2.7,1.4c0.2-0.3,0.4-0.7,0.6-1
		c0.4,0.4,0.8,0.9,1.2,1.3c-0.6,0.1-1.2,0.3-1.8,0.4c-0.2-0.1-0.5-0.4-0.6-0.5c0,0.2-0.1,0.6-0.1,0.9c-0.3-0.3-0.5-0.6-0.8-0.8
		c0.3,0,1-0.1,1.4-0.1c-0.7-1-1.9,0-2.8-0.3c0.3-0.1,1-0.2,1.3-0.3c-0.3-0.7-0.9-0.6-1.4-0.4c-0.6-1.1-1.1-2.3-1.5-3.5
		c0.1,1.1,0.4,2.1,0.7,3.1c-1.2-0.8-1.6-2.3-2.5-3.4c0.1,0.4,0.1,0.7,0.2,1.1c-1.3,0.2-1.4-1.4-1.8-2.3c-0.5,0-1,0-1.5,0
		c-0.4-0.2-0.5-0.7-0.7-1.1c0.5-0.1,0.9-0.1,1.4-0.2c-1.1,0-2.1,0-3.2,0c0-0.3,0-0.7,0.1-1c-0.6,0-1.2,0-1.7,0
		c-0.1-0.2-0.2-0.7-0.2-1c0.6,0,1.2,0,1.8,0c-1.1-0.2-2.3-0.4-3.4-0.6c0-0.1,0.1-0.4,0.1-0.5C117,96,117.7,96.3,118.2,96.1z
		 M146.7,39.6c0-0.2,0-0.6,0.1-0.8c0.4,0.3,0.8,0.5,1.1,0.8C147.5,39.7,147.1,39.7,146.7,39.6z M145.5,39.6
		c-0.3-0.4,0.4-0.9,0.7-0.5C146.5,39.6,145.8,40,145.5,39.6z M144.7,39c0,0.2,0.1,0.6,0.1,0.8c-0.4,0-0.8,0.1-1.2,0.1
		c0.1-0.3,0.2-0.7,0.3-1C144.1,38.9,144.5,38.9,144.7,39z M150.5,40.8c-0.7,0-1.5,0.1-2.2,0.2C148.4,39.6,149.9,40.4,150.5,40.8z
		 M147.6,41.1c-0.4-0.1-0.9-0.2-0.9-0.8c0.3,0,0.9-0.1,1.1-0.1C147.8,40.5,147.7,40.9,147.6,41.1z M146,40.3c0.5,0.3-0.1,1-0.5,0.6
		C145,40.6,145.6,39.9,146,40.3z M161.4,69.9c0.7-1.3,1.2-2.6,2-3.8c-0.2,2.3,0.1,4.6,0.8,6.7c-1-0.7-2.1-1.2-3.2-1.8
		c-0.1-0.1-0.2-0.3-0.3-0.4c-0.1,0.2-0.2,0.5-0.2,0.6c-1.6-0.5-3.3-0.2-4.9-0.3c-0.3-0.3-0.6-0.6-0.9-0.9c0.4-0.9,0.8-1.8,1.2-2.6
		c1.7-3,2.8-6.3,4.2-9.5c0.3-0.8,1.5-0.6,1.7,0.2c-0.2-1.4,1.4-1.4,2.2-2c0.3,0.3,0.5,0.5,0.8,0.8c-0.2-0.3-0.3-0.6-0.5-0.9
		c0.2-0.1,0.6-0.4,0.8-0.6c0.3,0.5,0.6,1,0.9,1.5c-0.1-1.1-1.2-2.1-0.7-3.2c0.3,0.4,0.6,0.7,0.9,1.1c-0.3-0.8-0.7-1.6-0.9-2.4
		c0.6-0.1,0.9,0.5,1.2,0.9c-0.2-0.7-0.5-1.4,0.3-1.8c0.2,0.4,0.4,0.8,0.6,1.2c-0.1-0.3-0.1-0.7-0.2-1c-0.4-0.8-0.8-1.6-1.1-2.4
		c0.5,0.3,0.9,0.7,1.2,1.1c0-0.2,0.1-0.5,0.1-0.7c-0.4-0.3-0.7-0.8-1-1.2c0.9,0.6,2.1,1,2.3,2.2c-0.7,2.6-2.1,5-3.1,7.6
		c-1.7,4.1-3.5,8.2-5,12.3C161,70.4,161.3,70.2,161.4,69.9z M169.2,94.7c0.9-2.2,0.7-4.7,0.3-7c1.4,0.9,2.3,2.6,2.2,4.3
		c0,1.3-0.1,2.6-0.5,3.9c-0.4,1.4-1.4,2.6-2.1,3.8c-0.9,1.5-2.2,2.7-3.1,4.3c-1.3,2.2-3.2,3.9-5.5,4.9c-1.4,0.6-3,0.2-4.5,0
		c1.3,0.8,2.8,0.9,4.2,0.9c-0.2,0.9-0.9,1.5-1.8,1.6c-2.8,0.3-5.6-0.5-8.2-1.7c-2-0.9-4.1-2.1-5.1-4.2c-0.5-0.9-0.5-2-0.4-3
		c1.1,0.8,2.2,1.6,3.4,2.2c-0.5-0.8-1.3-1.3-1.9-2c-0.8-1-1.6-2-2.3-3c0.7,0.1,1.4,0.2,2.1,0.3c0,0.2,0.1,0.6,0.1,0.8
		c0.1-0.4,0.2-0.7,0.3-1.1c0.2,0.3,0.4,0.7,0.6,1c0-0.6,0-1.2,0.1-1.8c0.6,0.1,1.3,0.2,1.7,0.7c0.1-0.1,0.2-0.2,0.3-0.3
		c-0.4-0.3-0.5-0.8-0.6-1.2c0.7,0.1,1.4,0,2,0.3c0-0.5-0.1-1.1-0.1-1.6c0.2,0.1,0.3,0.3,0.5,0.4c0.3-0.3,0.6-0.4,1-0.4
		c-0.5-0.2-1.3-0.3-0.9-1c0.5-0.1,1.1-0.2,1.6-0.4c-0.7-0.1-1.3-0.1-2-0.2c0.4-0.6,1.1-0.8,1.8-1.2c0.1,0.1,0.3,0.4,0.5,0.5
		c-0.1-0.6-0.2-1.2-0.3-1.8c0.6,0,0.8,0.5,1,0.9c-0.1-0.7-0.2-1.4-0.3-2.1c0.3,0.1,0.6,0.2,0.9,0.2c0.2-0.2,0.5-0.4,0.8-0.7
		c-0.2,0-0.7,0-0.9,0c-0.1-0.4-0.1-0.8-0.2-1.2c0.6-0.1,1,0.2,1.4,0.7c0-0.2-0.1-0.6-0.2-0.8c0.2-0.1,0.6-0.1,0.9-0.2
		c-0.3,0-0.8,0-1,0c0-0.2,0-0.7,0-0.9c0.7-0.1,1.4-0.1,2.1-0.2c-0.7-0.2-1.4-0.4-1.2-1.3c0.4,0,0.8,0,1.2,0.1
		c-0.1-0.4-0.1-0.9-0.1-1.3c0.2,0,0.5,0.1,0.7,0.2c-0.1-0.4-0.1-0.8-0.2-1.2c0.4-0.1,0.7-0.2,1.1-0.3c-0.1-0.4-0.2-0.8-0.3-1.2
		c0.9-0.4,0.9,0.8,1.2,1.3c-0.1-0.5-0.1-1-0.2-1.5c0.4,0.1,0.8,0.1,1.2,0.2c-0.1-0.5-0.2-1-0.3-1.6c0.4,0.4,0.6,0.9,0.7,1.4
		c0.1-0.5,0.2-1.1,0.4-1.6c0.8,1.7,0.7,3.7,0.9,5.6c0.2,3.7-0.6,7.3-1.7,10.7c1.4-2.1,2-4.7,2.5-7.1c0.7-0.2,1.4-0.4,2-0.7
		c0-0.3,0-0.7,0-1c0.5-0.1,1-0.2,1.4-0.4c-0.6,0-1.2-0.1-1.7-0.2c0.4-0.7,1.3-0.6,1.9-0.9c0-0.4,0-0.8,0-1.3c0.5-0.1,1-0.2,1.5-0.3
		l-0.1,0.2c1.5,4,1.2,9.1-1.7,12.4C167.8,98,168.6,96.2,169.2,94.7z M175.8,97c-0.9,2-2.2,3.8-3.2,5.8c-0.9,1.6-1.5,3.4-2.5,5
		c-0.5-1.1-1.2-1.9-2.2-2.6c1.2-1.3,2.3-2.7,3-4.4c0.7-1.7,1.1-3.5,1.7-5.1c0.3,0.6,0.6,1.3,1,2C174.4,97.4,175.1,97.2,175.8,97z
		 M175.5,100c1.1,3.4,2.1,7,2.2,10.6c-1.4,1.1-3.5,1.7-4.3,3.5c-0.6,1-0.5,2.2-0.9,3.2c-1,1.1-2.8,1.4-3.3,3
		c-0.4,1.1,0.3,2.1,0.7,3.1c-1.8,0-4.3-0.1-5.1-2.1c0.7-1.7,2.1-3.1,2.3-5c-0.1-0.3-0.2-0.7-0.3-1c2.2-1.6,3.3-4.4,3.4-7
		C172.1,105.6,173.8,102.8,175.5,100z M167.7,105c-0.2-0.1-0.6-0.2-0.8-0.3c0.9-1.7,2-3.3,3.2-4.8
		C169.4,101.6,168.4,103.2,167.7,105z M144.8,108.4c0.3,0.2,0.2,0.9-0.2,0.9C144.3,109.1,144.4,108.4,144.8,108.4z M143.4,108.4
		c-0.3-0.3,0-0.9,0.4-0.6C144.4,108.1,143.8,109.2,143.4,108.4z M145.9,109c0.5,0.2,0.1,1-0.3,0.6
		C145.1,109.4,145.5,108.6,145.9,109z M146.5,109.2c-0.7-0.6-1.3-1.2-2.1-1.7c0-0.1,0-0.4,0-0.6c-0.2,0.1-0.6,0.2-0.8,0.3
		c0.1-0.4,0.1-0.9,0.5-1.2c-0.5-0.5-0.8-1.1-1.2-1.6c0.2-0.2,0.4-0.4,0.6-0.5c-0.4-0.5-0.6-1-0.9-1.6l-0.3,0.1
		c0.1-0.3,0.2-0.7,0.4-1c-0.5-0.1-0.9-0.2-1.3-0.3c0.5-0.3,1.1-0.5,1.6-0.7c0.3,0.5,0.7,0.9,1,1.3c0.8,0.6,0.1,1.6,0.2,2.4
		c0.1,1.6,0.8,3.1,2,4.2c0.5,0.5,1.2,0.9,1.3,1.6c-0.4,0-0.8,0.1-1.2,0.1C146.4,109.7,146.5,109.4,146.5,109.2z M142.9,104.9
		c0.1,0.5-0.6,0.9-1,0.9C141.9,105.4,142.5,104.8,142.9,104.9z M141.4,105c-0.1-0.4,0.4-0.9,0.8-0.7
		C142.4,104.7,141.8,105.2,141.4,105z M143.3,105.2c0.1,0.2,0.3,0.7,0.4,1c0,0.7-0.8,0.5-1.2,0.3C142.8,106.1,143,105.6,143.3,105.2
		z M131.7,105c-0.6-0.3-1.2-0.6-1.8-0.9c-0.5-1.6-0.4-3.2-0.6-4.8c0.1-1,0.7-1.9,1.1-2.8c1.5-2.9,2.5-6.1,3.9-9.1
		c1.2,1.5,3,2.8,5.1,2.6c1,0,1.6-0.8,2.2-1.5c1.1,0.4,2.3,0.5,3.5,0.6c-1.7,3.3-3.2,6.7-4.6,10.1c-1.1,2.6-1.7,5.4-3.4,7.7
		c-0.7-0.1-1.4-0.3-2.1-0.6c-0.9-0.6-1.4-1.7-2.4-2.1C132.3,104.4,132,104.8,131.7,105z M153.8,88c0,0.5-0.8,0.4-0.9-0.1
		C152.9,87.5,153.7,87.6,153.8,88z M154.3,87.5c0.2,0,0.7-0.1,0.9-0.2c0.1,0.3,0.2,0.6,0.3,0.9c-0.4,0-0.8,0-1.2,0
		C154.4,88.1,154.4,87.7,154.3,87.5z M149.7,92.4c-0.6,1.2-0.8,2.5-1.5,3.6c-1.8,0.8-3.7,0.9-5.6,1.4c1-2.7,2-5.4,2.8-8.2
		c2.2,0.1,4.4-0.2,6.4-1.1C151.1,89.5,150.5,91,149.7,92.4z M153.5,89.2c0-0.5,0.8-0.3,0.8,0.1C154.3,89.8,153.5,89.6,153.5,89.2z
		 M153,89.7c-0.4,0.2-0.8-0.2-0.7-0.6C152.5,88.4,153.4,89.3,153,89.7z M153,91c-0.4-0.4,0.1-1.2,0.5-0.6
		C153.9,90.8,153.4,91.6,153,91z M152,91.2c-0.4-0.2-0.1-1.1,0.3-0.6C152.7,90.8,152.4,91.6,152,91.2z M152.4,92.5
		c-0.5-0.3,0-1.1,0.4-0.7C153.3,92.1,152.9,92.9,152.4,92.5z M151.6,92.6c-0.1,0-0.3-0.1-0.4-0.2C150.7,91.4,152.5,92.1,151.6,92.6z
		 M151.5,93.8c-0.3-0.4,0.4-0.9,0.7-0.5C152.5,93.7,151.8,94.2,151.5,93.8z M150.5,94c-0.1-0.5,0-0.7,0.5-0.5
		C151.1,94,150.9,94.2,150.5,94z M142.5,98.6c0.3,0.3,0,1-0.4,0.7C141.7,99,142.1,98.3,142.5,98.6z M144.3,99.2
		c-0.1,0-0.4-0.1-0.5-0.2C143.3,98,145.2,98.7,144.3,99.2z M145.2,99.3c-0.2-0.4,0-0.5,0.4-0.4C145.7,99.3,145.6,99.4,145.2,99.3z
		 M147,98.1c0.6-0.2,1.2,0.1,1.3,0.8C147.9,98.7,146.8,98.9,147,98.1z M146,98.4c-0.1-0.4,0-0.5,0.4-0.4
		C146.5,98.4,146.4,98.6,146,98.4z M149.5,97.9c-0.2-0.5,0-0.7,0.4-0.5C150.1,97.9,150,98.1,149.5,97.9z M148.9,97.3
		c0.2,0.5,0,0.6-0.5,0.5C148.3,97.3,148.5,97.2,148.9,97.3z M134.4,84.9c-0.8-2.2-1-4.7-0.5-7c0.6,3,1.8,6,4.1,8.2
		c1,1,2.3,1.7,3.5,2.3c-0.6,0.5-1.3,1.2-2.2,1C136.8,89.2,135.1,87,134.4,84.9z M141.2,101.4c0.1,0.4-0.1,0.6-0.5,0.4
		C140.6,101.4,140.8,101.3,141.2,101.4z M143.1,104.1c-0.5,0.2-0.7-0.4-0.9-0.7C142,102.4,143.5,103.6,143.1,104.1z M141.5,103.7
		c0.1,0.4-0.1,0.6-0.5,0.4C141,103.7,141.1,103.6,141.5,103.7z M155.1,86.6c0.1,0.5-0.6,0.6-0.9,0.4C153.8,86.5,154.9,86,155.1,86.6
		z M155.6,86.1c0.6,0,1,0.4,1.2,1c-0.4,0-0.9-0.1-1.3-0.1C155.6,86.7,155.6,86.3,155.6,86.1z M155.5,85.6c-0.4-0.2,0-1,0.4-0.6
		C156.3,85.3,155.9,86,155.5,85.6z M157.1,85.2c0.2,0.4,0,0.6-0.4,0.4C156.6,85.2,156.7,85.1,157.1,85.2z M156.6,84
		c0.3,0.5-0.5,0.6-0.5,0.1C155.8,83.6,156.6,83.5,156.6,84z M157,83.3c0.5,0.2,0.9,0.5,1.2,1C157.4,84.6,156.8,84.1,157,83.3z
		 M157.4,81.4c0.6,0.3,0.9,1,1,1.6C157.8,82.7,157.6,82.1,157.4,81.4z M157.2,82.9c-0.1,0-0.3,0-0.5,0
		C156,82.1,157.9,82.1,157.2,82.9z M159.3,78.5c0-0.7-0.1-1.3-0.3-2c0.4-0.2,0.8-0.5,1.1-0.7c1.1,1,2.6,1.8,2.8,3.4
		c0.1,1.2-0.3,2.4-0.5,3.6C161.8,81.1,160.9,79.4,159.3,78.5z M159.6,80.5c-0.6-0.4-0.8-1.1-0.4-1.8
		C159.3,79.3,159.5,79.9,159.6,80.5z M158.9,80.9c0.4,0.4-0.4,0.8-0.6,0.4C157.9,80.8,158.7,80.5,158.9,80.9z M161,81.1
		c0.4,0.2,0.1,1.1-0.3,0.7C160.3,81.5,160.5,80.7,161,81.1z M159.9,83.1c-0.2,0-0.7-0.1-1-0.1c0-0.4,0-0.8,0-1.2
		C159.4,82,159.6,82.5,159.9,83.1z M164.2,88.6c-0.2,0.4-0.4,0.4-0.6,0C163.7,88.2,163.9,88.2,164.2,88.6z M164,90.1
		c-0.4-0.4,0.4-0.9,0.7-0.5C165,90.1,164.3,90.6,164,90.1z M163,90.4c-0.4-0.3,0-1,0.5-0.7C163.9,90,163.4,90.7,163,90.4z
		 M165.3,86.7c0.2,0,0.5-0.1,0.7-0.1c0,0.3,0.1,0.8,0.1,1C165.7,87.6,165.5,87.1,165.3,86.7z M164.5,87.5c-0.4-0.3-0.1-1.1,0.4-0.7
		C165.3,87,164.9,87.9,164.5,87.5z M169.3,87.3c-0.6-1.7-1.6-3.2-3-4.3c0.3-0.8,0.7-1.7,1-2.5c0.5,2.5,1.4,4.8,2.8,7
		C169.9,87.5,169.5,87.4,169.3,87.3z M167,84.7c0.3,0.4,0.6,0.8,0.8,1.2c-0.2,0-0.6-0.1-0.8-0.1C167,85.5,167,85.1,167,84.7z
		 M165.6,85.3c0.4,0.3,0,1-0.4,0.7C164.8,85.7,165.2,84.9,165.6,85.3z M163.1,88.2c0-1.4-0.2-2.9-0.3-4.3c0.4-1.5,1.3-2.9,1.4-4.4
		c0.1-0.9-0.4-1.7-0.9-2.4c0.2-0.1,0.7-0.2,0.9-0.2c-0.7-0.2-1.5-0.4-2.2-0.8c0.9,0,1.8,0,2.7,0.1c-0.3-0.3-0.5-0.7-0.8-1
		c0.3,0,0.8,0.1,1,0.2c-0.3-0.4-0.5-0.9-0.7-1.3c0.8,0.8,1.6,1.7,2.2,2.7c0.6,1.2,0.2,2.6-0.2,3.7C165.2,83,164.3,85.6,163.1,88.2z
		 M161.3,75c0.3,0.4-0.3,1-0.6,0.5C160.3,75.2,161,74.5,161.3,75z M162.6,75.2c0,0.5-0.8,0.3-0.9-0.1
		C161.8,74.7,162.6,74.8,162.6,75.2z M163.1,75.5c-0.6-1,1.4-0.2,0.5,0.2C163.5,75.7,163.2,75.6,163.1,75.5z M162.9,74
		c0.2,0.5,0,0.6-0.5,0.4C162.3,73.9,162.4,73.8,162.9,74z M160.1,74.3c-1.5,1.5-3.7,2.1-5.7,2.5c-3.7,0.8-7.9,0.3-10.8-2.4
		c0.4,0.8,1,1.4,1.7,1.8c2,1.2,4.3,1.9,6.6,1.9c2.3,0.1,4.6-0.6,6.8-1.4c0.4,1.7-0.8,3.2-2,4.3c-1.1,1-2.5,1.4-3.9,1.8
		c-3.2,1.1-6.7,1.2-10,0.6c-1-0.2-1.9-0.8-2.8-1.3c1.3,1.7,3.5,2,5.5,2.4c2.3,0.3,4.7,0.3,7-0.4c1-0.3,1.9-0.7,2.9-1
		c0.4,1.5-0.9,2.6-2,3.3c-3.2,1.8-7.1,1.9-10.6,1.1c-4.7-1.4-7.7-6-8.4-10.6c-0.4-1.9-0.2-3.8-0.2-5.7c-0.3,0.8-0.4,1.6-0.7,2.4
		c-1-1.9-0.3-4.2,0.5-6c1.8-3,3.8-6,6.8-7.9c0.5,1.5,1.5,2.9,2.8,3.8c1.8,1.2,3.7,2.1,5.6,3.1c1,0.5,1.8,1.2,2.5,2.1
		c-1.1,0.1-2.2,0.1-3.3,0.5c1.6,0.9,3.5,0.5,5.2,1.3c1.3,0.4,1.9,1.7,2.8,2.6c-0.2-0.6-0.4-1.2-0.7-1.7c1.5,0.2,3.1-0.1,4.4,0.7
		C160.9,72.5,160.8,73.7,160.1,74.3z M157,47.5c-1.2,1.7-2.1,3.6-3,5.5c-1.9-0.4-3.9,0.3-5.3,1.6c-0.8-0.1-1.6,0-2.4,0
		c-0.7-0.1-1.6-0.4-2.2,0.1c-0.8,0.6-1.7,1-2.6,1.3c-4.1,1.6-7.4,5.3-8,9.7c-0.1,1-0.6,1.8-1,2.6c-1.4-4.2-0.7-9.1,2-12.5
		c2-2.3,4.5-4.2,7.3-5.5c2.3-1.1,4.8-1.7,7.3-2.1c2.2-0.4,4.5-0.5,6.7-0.2C156.2,48,156.6,47.6,157,47.5z M166.5,51.1
		c0.2,0.4-0.5,0.8-0.7,0.5C165.6,51.2,166.2,50.8,166.5,51.1z M163.9,52c-0.4-0.3-0.7-0.6-1-1c0.1-0.2,0.2-0.4,0.4-0.6
		C163.5,50.9,163.8,51.4,163.9,52z M164.1,53.7c0.1,0.5,0,0.6-0.5,0.5C163.4,53.7,163.6,53.6,164.1,53.7z M162.1,53.8
		c-0.3-0.3-0.2-0.5,0.2-0.6C162.6,53.6,162.5,53.8,162.1,53.8z M164.6,53.6c-0.5-1.1,1.3-0.3,0.4,0.2
		C164.9,53.8,164.7,53.6,164.6,53.6z M162.8,53.2c-0.3-0.4,0.4-0.7,0.7-0.4C163.7,53.1,163,53.5,162.8,53.2z M159.9,55.6
		c-0.2-0.1-0.3-0.3-0.5-0.4c-0.2,0.2-0.4,0.4-0.6,0.6c-0.1-0.2-0.2-0.4-0.3-0.5c-0.1,0.1-0.2,0.4-0.3,0.6c-0.4-0.2-0.3-0.7-0.4-1
		c0,0.5-0.1,1-0.4,1.4c-0.2-0.6-0.3-1.1-0.5-1.7c-0.1,0.6,0.2,1.2-0.1,1.7c-0.2,0-0.6,0-0.9,0.1c0.1,0.5,0.1,1,0.2,1.5
		c-0.2-0.1-0.5-0.2-0.7-0.2c0,0.2,0.1,0.5,0.1,0.7c-0.2,0.1-0.5,0.2-0.7,0.2c0,0.4,0,0.8-0.1,1.2c-0.7,0.3-1.7-0.1-1.6-1
		c1.1-2.7,2-5.5,2.9-8.3c0.4,1.1,1,2.3,2.2,2.7c1.2,0.5,2.4-0.1,3.4-0.6C161,53.6,160.5,54.6,159.9,55.6z M157.3,57.1
		c-0.2-0.5,0-0.7,0.5-0.5C157.9,57,157.7,57.2,157.3,57.1z M156.1,57.1c-0.2-0.6,0.7-0.8,0.8-0.2C157.2,57.4,156.2,57.7,156.1,57.1z
		 M160.6,57.1c-0.2-0.3,0.1-0.8,0.4-1C161.6,56.2,161.1,57.3,160.6,57.1z M162.4,56.2c-0.7-0.8,1-0.7,0.4,0
		C162.7,56.2,162.5,56.2,162.4,56.2z M163.2,55.7c-0.2-0.4,0-0.6,0.4-0.4C163.7,55.8,163.6,55.9,163.2,55.7z M163.9,55.1
		c-0.2-0.6,0.8-0.7,0.9-0.2C165,55.6,164,55.7,163.9,55.1z M161.6,55.1c-0.2-0.5,0-0.6,0.5-0.5C162.2,55.1,162.1,55.2,161.6,55.1z
		 M157.1,58.4c0.1,0.5,0,0.7-0.5,0.5C156.5,58.5,156.6,58.3,157.1,58.4z M157.2,60.6c0.2,0,0.5,0,0.6,0c0,0.1-0.1,0.3-0.2,0.5
		c-0.1,0-0.3,0.1-0.4,0.2C157.1,61.1,157.2,60.8,157.2,60.6z M148.5,61.8c2.1,1.9,4.7,3.2,7.4,3.7c-0.5,1.4-1.1,2.7-1.5,4.2
		c-0.7-0.3-1.5-0.6-2.2-0.9c-0.6-0.7-0.9-1.6-1.6-2.2c-1.5-1.4-3.5-2.3-5.3-3.2c0.9-1.5,1.7-3.1,2.4-4.7
		C147.8,59.8,148,60.9,148.5,61.8z M141.3,59c-0.2,0.6-0.8,0.6-1.3,0.9c-2.1,1-3.7,2.8-5.3,4.5c1.6-3.5,4.4-6.6,7.9-8.4
		C142.1,56.9,141.6,57.9,141.3,59z M147,55.1c0.5,0,1.1,0,1.6,0c-0.2,0.3-0.4,0.7-0.6,1C147.7,55.8,147.3,55.5,147,55.1z
		 M143.1,57.5c0.7,1,1.7,1.8,2.8,2.2c-0.4,1.1-0.8,2.3-1.1,3.5c-1.4-0.7-2.7-1.6-3.5-2.9C141.8,59.3,142.5,58.4,143.1,57.5z
		 M154,60.3c-0.3-0.5,0.6-0.6,0.7-0.1C155,60.7,154.1,60.7,154,60.3z M155.9,60.1c-0.2-0.5,0.6-0.7,0.7-0.2
		C156.8,60.4,156,60.6,155.9,60.1z M156.8,60.1c-0.4-0.4,0.3-1,0.6-0.5C157.8,60,157.1,60.6,156.8,60.1z M162.4,52.6
		c-0.1-0.3,0.1-0.9,0.5-1C163.5,51.9,162.9,52.8,162.4,52.6z M164.5,52.2c0.1,0.4,0,0.5-0.4,0.4C163.9,52.2,164.1,52.1,164.5,52.2z
		 M165.3,50.6c-0.1-0.5,0-0.6,0.5-0.5C166,50.7,165.8,50.8,165.3,50.6z M163.9,50.3c-0.1-0.1-0.3-0.2-0.4-0.3
		C163.3,48.9,164.9,50.1,163.9,50.3z M164.6,48.8c0.3,0.2,0.6,0.5,0.8,0.8c-0.2,0-0.7,0.1-0.9,0.1C164.5,49.5,164.6,49,164.6,48.8z
		 M166.2,49.3c-0.7-0.4-1-1.1-1.4-1.7C165.3,48.1,165.9,48.6,166.2,49.3z M163,48.7c-0.7-1.4-2.3-2.4-3.9-2.2
		c-0.9,0-1.6,0.7-2.5,0.6c0.2-0.8,1.1-0.6,1.6-0.8c-0.5-0.5-1.2-1-1.6-1.6c0.1-1.1,0.4-2.2,0-3.2c-0.9-2.4-3.4-3.9-4-6.4
		c-0.1-0.8-0.7-2,0.2-2.4c1.1-0.2,2.4-0.1,3.1,0.8c1.8,1.7,1.7,4.4,3.2,6.3c1.1,1.2,2.6,1.9,3.7,3.1c0.8,0.8,1.4,1.7,2.1,2.6
		c0.3,0.3,0.1,0.8,0.2,1.2c-0.5,0.1-1.1,0.1-1.6,0.4C163.4,47.6,163.3,48.2,163,48.7z M154.2,47c-0.4,0.2-0.9,0.2-1.3,0
		C153,46.5,154.1,46.6,154.2,47z M156.3,47c-0.5,0-1.1,0-1.6,0C155.1,46.7,155.9,46.4,156.3,47z M155.2,46c0.2-0.6,0.7-0.9,1.4-0.9
		c-0.1,0.2-0.1,0.7-0.2,0.9C156,46.1,155.6,46.1,155.2,46z M154.7,46.1c-0.5,0-1,0.1-1.5,0.1c0.1-0.2,0.2-0.5,0.4-0.7
		c0.4,0,0.9-0.1,1.3-0.1C154.8,45.5,154.7,45.9,154.7,46.1z M153,45.4c-0.1,0.3-0.1,0.5-0.2,0.8c-0.5,0.1-1,0.1-1.4,0.2
		c0-0.3,0.1-0.8,0.2-1.1C152.1,45.3,152.6,45.3,153,45.4z M154,44.8c0.1-0.5,0.2-1.1,0.1-1.6c0.3,0.6,1,0.9,1.5,1.3
		C155.1,44.6,154.6,44.7,154,44.8z M151.9,44.9c0.2-0.7,1-0.6,1.6-0.6C153.2,44.9,152.5,44.9,151.9,44.9z M151.9,42.7
		c-0.1,0.6-0.3,1.2-1,1.2C151,43.3,151.3,42.8,151.9,42.7z M149.4,43.9c0.1-0.6,0.4-1,1-1.1c0,0.3,0,0.8,0,1
		C150.1,43.8,149.6,43.9,149.4,43.9z M149.2,43c-0.1,0.3-0.2,0.6-0.3,1c-0.3-0.1-0.9-0.2-1.1-0.3c0.1-0.2,0.4-0.7,0.5-0.9
		C148.5,42.8,148.9,42.9,149.2,43z M153.5,43.6c-0.4,0-0.8,0-1.2,0c0.2-0.5,0.2-1.1,0.8-1.1c0.2,0.1,0.6,0.3,0.8,0.4
		C153.8,43.1,153.6,43.5,153.5,43.6z M146.4,42.5c0.1-0.3,0.2-0.8,0.2-1c0.4,0,0.7,0,1.1,0c0,0.2,0,0.6,0,0.8
		C147.3,42.4,146.8,42.5,146.4,42.5z M148.3,41.6c0.3,0,0.6,0,0.9-0.1c0,0.2,0,0.6,0,0.8c-0.3,0-0.7,0.1-1,0.1
		C148.2,42.2,148.3,41.8,148.3,41.6z M151.4,42.2c-0.5-0.4,0.2-1.1,0.6-0.6C152.5,42,151.8,42.6,151.4,42.2z M150.7,42.2
		c-0.2,0-0.7,0-0.9,0c0-0.2,0-0.6,0-0.7c0.4-0.1,0.8-0.2,1.2-0.2C150.9,41.6,150.8,41.9,150.7,42.2z M134.4,109.8
		c0.4-0.5,1-0.6,1.6-0.8c-0.2-0.1-0.7-0.2-0.9-0.3c-0.2,0.1-0.7,0.2-0.9,0.2c0-0.3,0.1-0.6,0.2-0.8c-0.1-0.1-0.4-0.4-0.5-0.5
		c0-0.1,0.1-0.4,0.2-0.5c1,0.4,2.1,0.4,3.1,0.9c-0.1,1.1,0.2,2.2,0.3,3.3c-0.7-0.4-1.1-1.2-1.3-2l-0.1-0.1
		C135.5,109.7,134.9,109.7,134.4,109.8z M132.7,109.4c-0.1-0.7,0.8-0.8,1.2-1C134,109.2,133.3,109.4,132.7,109.4z M125.9,105.6
		c-0.4,0.1-0.8,0.2-1.1,0.3c0-0.3,0-0.8-0.1-1C125.2,104.9,125.6,105.3,125.9,105.6z M126,104.5c0.6-0.1,0.8,0.4,1,0.9
		c-0.2,0-0.6,0-0.7,0C126.2,105.3,126.1,104.8,126,104.5z M127.9,106.1c-0.2-0.5,0-0.6,0.5-0.5C128.5,106.1,128.4,106.3,127.9,106.1
		z M127.8,106.8c0.3,0.4-0.4,0.9-0.7,0.5C126.8,107,127.5,106.4,127.8,106.8z M130.5,107.8c0,0.6-0.7,0.1-0.7-0.2
		C129.5,106.8,130.7,107.2,130.5,107.8z M133.5,107.9c-0.1,0.4-0.8,0.5-1.1,0.3C132.2,107.7,133.5,107.2,133.5,107.9z M123,103.4
		c-0.5-0.2-0.8-0.5-1.1-1c0.2,0,0.6-0.1,0.8-0.1C122.8,102.7,122.9,103,123,103.4z M124.4,102.6c0.2,0.6-0.8,0.7-0.8,0.1
		C123.3,102.1,124.3,102,124.4,102.6z M121.9,103.5c-0.3,0-0.8,0-1-0.1c0-0.2-0.1-0.7-0.2-0.9C121.4,102.4,121.6,103,121.9,103.5z
		 M125.2,103.2c0.2,0,0.8-0.1,1-0.1c0.1,0.5,0.2,0.9,0.3,1.4C125.7,104.5,125.4,103.8,125.2,103.2z M125.2,104.5
		c-0.7,0.2-1.1-0.3-1.3-0.9c0.2,0,0.7,0,1,0C125,103.8,125.1,104.2,125.2,104.5z M122.6,102c-0.2,0-0.6,0-0.8,0
		c-0.1-0.2-0.2-0.5-0.3-0.7c0.2,0,0.6-0.1,0.8-0.1C122.3,101.4,122.5,101.7,122.6,102z M122.6,101c0.5-0.1,1-0.1,1.6,0
		c0,0.2,0.1,0.7,0.1,0.9c-0.3,0-0.8,0-1.1,0C123,101.7,122.7,101.3,122.6,101z M121.2,102.1c-0.2,0-0.6,0-0.8,0
		c-0.1-0.3-0.2-0.6-0.3-0.9C120.6,101.3,121,101.5,121.2,102.1z M120.5,99.9c0.4-0.1,0.7-0.1,1.1-0.2c0.1,0.4,0.3,0.8,0.4,1.1
		C121.3,100.9,120.8,100.5,120.5,99.9z M116.9,99.9c-0.5-0.2-0.7-0.6-0.9-1c0.2,0,0.6-0.1,0.8-0.1C116.8,99.1,116.9,99.6,116.9,99.9
		z M117.8,100.2c0.5,0,1.3-0.1,1.3,0.6C118.5,101,117.9,100.9,117.8,100.2z M112.8,97c-0.2-0.5,0-0.6,0.5-0.5
		C113.5,97,113.3,97.1,112.8,97z M116.3,96.4c0.4,0.7-0.7,0.4-1.1,0.4c-0.1-0.1-0.3-0.4-0.4-0.5C115.3,96.2,115.8,96.2,116.3,96.4z
		 M114.6,96.4c0.1,0.5,0,0.6-0.5,0.5C113.9,96.4,114.1,96.2,114.6,96.4z M111.4,96.8c-0.3-0.8,0.9-0.4,0.8,0.2
		C112.2,97.5,111.5,97.2,111.4,96.8z M118.1,98.4c-0.5-0.2-1.2-0.3-1.3-1c0.3,0,0.9-0.1,1.3-0.1C118,97.7,118.1,98.1,118.1,98.4z
		 M116.6,98.3c-0.5-0.1-1-0.3-1.2-0.8c0.4,0,0.8-0.1,1.1-0.1C116.5,97.6,116.6,98.1,116.6,98.3z M114.4,97.8c0-0.5,0.8-0.3,0.8,0.1
		C115.1,98.5,114.3,98.2,114.4,97.8z M113.2,97.4c0.4,0.2,0.6,0.5,0.9,0.9c-0.2,0-0.7,0.1-0.9,0.1C113.1,98.2,113.2,97.7,113.2,97.4
		z M119.9,99.5c-0.8-0.1-1.5-0.1-2.3,0.1c-0.1-0.3-0.2-0.6-0.4-0.9c0.8,0.1,1.7,0.1,2.5-0.2C119.8,98.9,119.9,99.2,119.9,99.5z
		 M113.5,98.9c0.2-0.7,1.4,0.5,0.8,0.8C114,99.6,113.6,99.3,113.5,98.9z M114.8,98.7c0.8-0.1,0.8,0.7,1,1.3
		C115.1,100,115,99.3,114.8,98.7z M120.6,100.8c-0.6,0-1.2-0.2-1.4-0.8C119.9,99.8,120.5,100.1,120.6,100.8z M117.5,101
		c-0.2,0-0.6,0-0.8,0.1c0-0.2,0-0.7,0-1C117.1,100.4,117.3,100.7,117.5,101z M115.5,100.7c-0.1-0.9,1.2,0.1,0.9,0.6
		C116,101.4,115.6,101,115.5,100.7z M119.7,102.2c-0.4,0.1-0.8,0.2-1.2,0.3c-0.1-0.4-0.2-0.7-0.2-1.1
		C118.9,101.4,119.5,101.5,119.7,102.2z M117,101.9c0.2-0.2,0.4-0.3,0.5-0.5c0.2,0.4,0.4,0.8,0.5,1.2
		C117.7,102.4,117.3,102.2,117,101.9z M118.7,103c0.5,0,0.9-0.1,1.4,0c0.1,0.3,0.3,0.5,0.4,0.8C119.8,103.9,119.1,103.5,118.7,103z
		 M123.6,104.5c-0.1,0.5-0.7,0.1-0.7-0.2C122.6,103.4,123.8,103.9,123.6,104.5z M121.2,104.2c0.3,0,0.8-0.1,1.1-0.1
		c0.1,0.4,0.3,0.7,0.4,1C121.9,105.3,121.5,104.9,121.2,104.2z M122.8,105.5c0.4-0.1,0.8-0.1,1.2-0.2c0.1,0.3,0.2,0.7,0.3,1
		C123.9,106,123.4,105.7,122.8,105.5z M125,106.7c0.1-0.4,0.8-0.5,1.2-0.4C126.4,106.9,125.2,107.3,125,106.7z M126.3,107.6
		c-0.2-0.5,0-0.6,0.5-0.4C127,107.7,126.8,107.8,126.3,107.6z M127.4,108.1c-0.1-0.6,0.9-0.5,1,0
		C128.7,108.8,127.6,108.4,127.4,108.1z M128.6,107.6c0.1-0.1,0.4-0.2,0.5-0.2c0.2,0.3,0.4,0.7,0.5,1c-0.2,0-0.6,0.1-0.8,0.2
		C128.8,108.2,128.7,107.9,128.6,107.6z M129.5,109.1c0-0.5,0.8-0.4,0.8,0.1C130.3,109.6,129.5,109.5,129.5,109.1z M131.1,109.9
		c-0.3-0.5,0.5-0.6,0.6-0.1C132,110.3,131.2,110.3,131.1,109.9z M133.3,110.3c-0.2-0.4,0.4-0.7,0.7-0.5
		C134.2,110.2,133.6,110.5,133.3,110.3z M136,110.4c0.1,0.5-0.6,0.7-0.9,0.4C134.6,110.3,135.8,109.7,136,110.4z M133.7,111.1
		c-0.2-0.6,1-0.5,0.9,0.1C134.5,111.7,133.8,111.4,133.7,111.1z M135.5,111.8c-0.2-0.4,0.4-0.8,0.7-0.5
		C136.3,111.6,135.7,112,135.5,111.8z M137.6,111.6c0.2,0.5,0,0.7-0.5,0.5C137,111.6,137.1,111.5,137.6,111.6z M136.2,112.6
		c-0.2-0.5,0-0.6,0.5-0.5C136.8,112.6,136.7,112.7,136.2,112.6z M153.3,119.7c-2.2-0.7-3.8-2.4-6.1-2.8c-1.3-0.3-2.7,0-4-0.1
		c-3.2-1.7-5.6-5-5.9-8.7c1.2-1.3,1.7-3.2,2.7-4.6c0.6,3.9,3.1,7.3,6.6,9.1c2.1,1.1,4.3,2.3,6.6,2.7c-0.4-0.2-0.9-0.5-1.3-0.7
		c0.2-0.1,0.7-0.2,0.9-0.3c-0.7-0.7-1.6-1.3-2.6-1.4c0.2-0.1,0.6-0.4,0.8-0.5c-0.9-0.3-1.8-0.7-2.5-1.4c0.1,0.8-0.4,0.6-0.9,0.4
		c0.2-0.1,0.6-0.2,0.8-0.3c-0.5-0.3-1-0.8-1-1.5c2.3,1.4,4.7,2.6,7.4,2.8c1.6,0.1,3.3,0.2,4.7-0.7c0.6-0.4,0.8-1.2,1-1.9
		c2.4-0.7,4.6-2.3,6-4.4c1.3,1.1,2.8,2.6,2.5,4.5c-0.6,2-1.6,4-3.4,5.2c-2.2,1.5-4.7,2.7-7.1,3.8
		C156.9,119.5,155.1,120.1,153.3,119.7z M147.4,111c-0.1,0.5-0.8,0.4-1,0.1C146,110.4,147.3,110.4,147.4,111z M148.7,112.3
		c-0.2,0.4-0.4,0.4-0.6,0C148.3,111.9,148.5,111.9,148.7,112.3z M149.9,112.2c0.2,0.5,0,0.6-0.5,0.4
		C149.3,112.2,149.4,112,149.9,112.2z M176.2,120c-0.9,0.8-0.9,2.4-2.1,2.9c-0.6,0.3-1.2,0.6-1.6,1.2c-0.7,1-0.4,2.3-1.1,3.3
		c-2.1,1.4-4.9,0.1-7.1,1.2c-1,0.5-2.3,1.1-3.4,0.4c-0.6-1.1-0.2-2.8-1.4-3.7c-0.9-0.4-1.7,0.3-2.5,0.6c-0.2-0.6-0.8-1.5-0.2-2.1
		c0.9-0.4,2.2-0.2,2.8-1.1c0.2-1.1-1-1.8-1.6-2.6c3.1-1,5.8-2.8,8.5-4.5c0.2,2.2-2,3.5-2.9,5.3c-0.4,1.1,0.5,2.2,1.3,2.9
		c1.4,1.1,3.3,1.5,5.1,1.3c0.8,0,1.7-0.6,1.7-1.5c0.1-1-0.6-1.8-0.8-2.7c0-0.6,0.7-0.9,1.1-1.2c0.9-0.7,2-1.4,2.2-2.6
		c0.2-1.2,0.1-2.7,1-3.7c0.8-0.8,1.8-1.5,2.6-2.3c0.2,2.6,0.5,5.3,1.9,7.6C178.6,119.1,177.1,119.1,176.2,120z M209.8,112.2
		c-1.3-2-1.8-4.5-1.6-6.9c0.1-1.2,0.7-2.3,1.7-3c2,1.8,2.7,4.6,2.9,7.2c0,1.3,0.1,2.7-0.5,3.9C211.2,113.9,210.3,112.9,209.8,112.2z
		 M213.9,111c0.1-2.2-0.2-4.4-1.4-6.3c-0.5-1-1.5-1.7-2.2-2.6c0.5,0.1,1.1-0.1,1.5,0.3C213.8,104.7,215,108,213.9,111z M223.3,93
		c0.9,1.8,1.1,4,0.6,5.9c-0.5,2-1,4.3-3,5.3c0.8-1.3,1.7-2.7,1.8-4.3c0.3-2.7,0.2-5.6-1.2-8C222.3,92.1,223,92.3,223.3,93z
		 M219.3,93.4c0.5-0.7,1.2-1,2-1.3c0.4,1,0.6,2,0.5,3.1c-0.1,3.1,0,6.4-1.6,9.1c-1.2-0.6-2-1.8-2.1-3.2
		C217.7,98.6,217.7,95.6,219.3,93.4z M216,101.1c0.1,1.6-0.7,3-1,4.5c-0.1-0.1-0.3-0.3-0.4-0.5c0.5-1.5,1.1-3.1,0.8-4.7
		c-0.1-1.2-0.7-2.3-1.2-3.3C215.7,97.9,216,99.7,216,101.1z M214.3,104.3c-0.8-0.9-1.3-2-2.3-2.7c-0.7-0.4-1.5-0.2-2.3-0.1
		c0.3-1.3,0.5-2.7,1.5-3.7c0.5-0.6,1.3-0.9,2.1-1C214.5,99.1,214.4,101.8,214.3,104.3z M219.3,59.9c-0.3-0.4-0.5-0.8-0.8-1.2
		c1.1-2.1,1.7-4.8,0-6.8c0.4-0.8,0.8-1.6,1.2-2.3C220.4,53,220.5,56.6,219.3,59.9z M218.6,50.6c-0.5,1.2-1.2,2.7-2.7,2.9
		c1.7-2,2.8-4.6,2.7-7.2c0-1.2-0.3-2.3-0.4-3.4C219.6,45.1,219.5,48.1,218.6,50.6z M213.3,48.7c0.4-2.5,1.2-5.4,3.6-6.7
		c0.8,1.8,0.6,3.8,0.5,5.7c-0.3,2.1-0.8,4.3-2.3,5.8C213.3,52.7,212.9,50.4,213.3,48.7z M213.4,54.8c0.2-0.5,0.4-0.9,0.5-1.4
		c1.4,1.3,3.3,0.2,4.3-1c0.3,2,0.2,4,0.1,5.9C217.1,56.8,215.5,55.3,213.4,54.8z M175.7,47.7c3.3,1.3,6.9,0.9,10.3,0.7
		c2.8,0,5.7-0.6,8.4,0.5c3,1.3,6,2.7,8.5,4.9c3.5,2.7,6.5,5.9,9.4,9.3c2.6,3.4,5.4,7.1,5.9,11.5c0,0.1,0.1,0.4,0.1,0.6
		c0.3-1.6-0.2-3.2-0.7-4.7c-1.4-3.7-3.7-7-6.1-10.1c0-1.5-0.8-3.2,0.3-4.5c0.4-0.5,1-0.3,1.5-0.2c1.6,0.5,2.9,1.7,3.8,3
		c2.5,3.6,4,8,4.1,12.4c-0.1,3.3-0.2,6.6-0.9,9.9c-1.3,5.2-2.6,10.6-5.5,15.2c-1.1-0.5-2.5-0.5-3.4,0.3c-1.6,1.2-1.8,3.3-2,5.1
		c-0.7,0.5-1.2,1.3-1.6,2.1c-2.8,0.5-5.4,1.5-8,2.6c-3,1.3-6.1,2.4-8.8,4.2c-1.6,1.1-3.3,2.2-4.8,3.5c-1,1-2,2.3-1.9,3.8
		c0.5-1.1,1-2.2,1.9-3c0.8,1.6,0.4,3.7-1,4.8c-1.1,0.7-2.7,0.4-3.6-0.5c-1.5-1.2-1.9-3.3-2.3-5.1c-0.5-3.1-0.7-6.3-1.8-9.3
		c-0.5-1.8-1.2-3.5-1.8-5.2c0.3-0.7,0.7-1.3,0.9-2.1c0.2-2.2-0.3-4.3-0.9-6.4c-1-0.6-1.5,0.9-2.2,1.4c-0.8-0.8-1.1-2-1.6-3
		c-1-1.4-1.4-3.1-2.1-4.7c-0.6-1.5-1.4-3-2-4.5c-0.6-1.1,0.2-2.4-0.3-3.5c-0.4-1.3-1.5-2.2-2.4-3.1c-0.4-2.1-0.7-4.3-1.2-6.4
		c-0.1-0.9-0.5-1.9,0-2.8c1.2-2.4,2.3-4.7,3.3-7.2c0.8-2,1.8-4.1,2.2-6.2c0.2-0.8-0.3-1.5-0.8-2c-0.8-0.8-1.6-1.5-2.6-2.1
		c0.2-0.6,0.3-1.3,0.3-1.9c1.1,0.7,2.3,1.5,3.7,1.7C172,47.3,174,46.8,175.7,47.7z M176.4,45.9c-1.5,0.6-3,0.2-4.5,0.1
		c-2.2-0.2-4.5-0.9-6.2-2.4c0.1-0.4,0.1-0.9,0.3-1.3C169.2,43.9,172.7,45.3,176.4,45.9z M176,44.6c-2.6-0.5-5.2-1.2-7.7-2.1
		c-0.9-0.4-2.1-0.7-2.6-1.7c-0.5-1,1.1-1.4,1.8-1.1C170.5,41.1,173.3,42.8,176,44.6z M189.6,37.1c0.9,0.6,1.9,1.1,2.6,1.9
		c-1-0.1-2-0.3-2.9-0.6c-0.8-0.2-1.7,0.3-2.4-0.2c0.2-0.8,1.2-1,1.4-1.8c0.3,0.1,0.5,0.3,0.8,0.4c-0.4,0.3-0.9,0.6-1.4,0.7
		c0.3,0.3,0.6,0.5,0.9,0.7C189,37.9,189.3,37.5,189.6,37.1z M174.7,35.3c0.2-0.5,0.4-0.9,0.7-1.3C176.1,34.5,175.5,35.5,174.7,35.3z
		 M178.5,34.7c0.2,0.5-0.6,0.6-0.8,0.2C177.5,34.4,178.3,34.3,178.5,34.7z M176.4,34.9c0.7,0.2-0.2,1.6-0.6,0.9
		C175.8,35.5,176,35,176.4,34.9z M180.4,35.9c0.3,0.2,0.6,0.4,1,0.5c-0.1,0.3-0.2,0.6-0.4,0.9c-0.3-0.2-0.6-0.4-1-0.7
		C180.1,36.5,180.3,36.1,180.4,35.9z M186,36.4c0.3,0.1,0.6,0.3,0.9,0.4c-0.1,0.3-0.2,0.6-0.4,0.9C186.1,37.4,185.5,37,186,36.4z
		 M186.4,38.2l-0.1,0.2c-1.3,0-2.5,0.1-3.8,0.3c-0.5-0.2-0.9-0.7-1.3-1c0.2-0.3,0.5-0.6,0.7-0.9c0.4,0.3,0.8,0.6,1.2,0.9
		c0.3-0.4,0.6-0.9,1-1.3C184.8,37.2,185.9,37.4,186.4,38.2z M184.6,36.1c-0.3-0.8,1-0.5,0.9,0.1C185.4,36.6,184.7,36.4,184.6,36.1z
		 M183.7,36.1c-0.2,0.4-0.5,0.7-0.7,1.1c-0.3-0.2-0.5-0.4-0.7-0.7c0.2-0.4,0.4-0.7,0.6-1.1C183.1,35.6,183.4,35.8,183.7,36.1z
		 M179.2,36.5c-0.2,0.5-0.5,1-0.7,1.5c-0.2-0.2-0.7-0.6-0.9-0.8C178,36.6,178.6,36.4,179.2,36.5z M179.7,37c0.8,0.5,1.6,1.1,2.4,1.7
		c-0.6,0.2-1.3,0.4-2,0.5c-0.5-0.3-0.8-0.6-1.2-0.9C179.1,37.8,179.4,37.4,179.7,37z M187.4,36.7c-0.4-0.3-0.8-0.6-0.7-1.2
		c0.5,0.1,0.9,0.3,1.4,0.5C187.9,36.2,187.6,36.5,187.4,36.7z M186.4,35.7c-0.5-0.3-1-0.6-1.1-1.2c0.5,0.2,0.9,0.3,1.4,0.5
		C186.6,35.2,186.4,35.6,186.4,35.7z M184.3,35.5c-0.4-0.2-0.8-0.4-1.2-0.6c0.1-0.1,0.3-0.5,0.4-0.6C183.8,34.7,184.3,35,184.3,35.5
		z M182.4,35c-0.3,0.3-0.5,0.7-0.8,1c-0.2-0.5-0.4-0.9-0.6-1.4c-0.5,0.3-1,0.2-1.5,0c0.2-0.4,0.5-0.8,0.7-1.2
		C180.8,34.1,181.6,34.6,182.4,35z M176.7,34.3c-0.3-0.4,0.3-0.7,0.6-0.4C177.6,34.3,177,34.7,176.7,34.3z M175.6,33.6
		c-0.3-0.7,1-0.5,0.9,0.1C176.4,34.2,175.8,33.9,175.6,33.6z M175,33.8c-0.4,0.4-0.6,1.4-1.3,0.8c0-0.4,0.2-0.8,0.3-1.2
		C174.3,33.6,174.6,33.7,175,33.8z M172.6,34.5c0.4,0.4-0.3,1.1-0.7,0.7C171.5,34.8,172.1,34.1,172.6,34.5z M173.1,35.1
		c0.2,0,0.5,0.1,0.6,0.1c0,0.1,0.1,0.4,0.1,0.6c-0.2,0-0.6,0.1-0.8,0.1C173,35.7,173.1,35.3,173.1,35.1z M174.8,35.9
		c0.4,0.3,0,1.1-0.5,0.7C173.8,36.3,174.3,35.5,174.8,35.9z M173.2,36.7c0.2,0.6-0.7,0.8-0.8,0.3C172.1,36.4,173.1,36.1,173.2,36.7z
		 M171.5,37.3c0,0.6-0.8,0.2-0.8-0.1C170.7,36.7,171.5,36.9,171.5,37.3z M177,37.6c-0.1,0.5-0.8,0.4-1,0
		C175.9,37,177.2,36.9,177,37.6z M177.3,38.5c-0.4-0.4-0.4-0.7,0.1-1c0.9,0.5,1.7,1.1,2.5,1.7c-2,0.7-3.7,1.9-5.2,3.3
		c-1.2-0.7-2.3-1.3-3.6-1.9c1.1-1.3,2.5-2.3,4-3C175.9,37.8,176.6,38.2,177.3,38.5z M199,40.7c1.3,0.9,2.8,1.8,3.3,3.4
		c-1.2,0.6-2.6,0.3-3.9,0.1c-2.9-0.6-5.9-1-8.8-1.6c-2.3-0.4-4.7-0.5-7-0.2c-1.9,0.3-3.9,0.5-5.7,1.4c-0.6-0.4-1.2-0.8-1.8-1.1
		c4.1-2.9,9.3-3.5,14.3-3.7c0.8-0.1,1.2,0.8,1.8,1.2c-0.3-0.4-0.6-0.8-0.9-1.1c0.7,0.1,1.5,0,2.2,0.1c0.4,0.2,0.7,0.5,1.1,0.7
		c-0.7-0.6-1.5-1.2-2-1.9c0.6-0.5,1.1,0,1.1,0.7c1-0.2,1.6,0.6,2.4,1.1c-0.4-0.5-0.8-0.9-1.3-1.3c0.1-0.2,0.2-0.5,0.3-0.6
		C195.9,38.6,197.4,39.7,199,40.7z M193.6,37.7c-0.3,0.2-0.8,0.1-1-0.3C192.3,36.6,194,37.2,193.6,37.7z M191.5,37.7
		c-0.7-0.1-1.2-0.6-1.5-1.2C190.6,36.7,191.3,36.9,191.5,37.7z M192.3,37c-0.4,0.2-1-0.2-1.2-0.6C191.4,35.9,192.5,36.5,192.3,37z
		 M189.8,36.5c-1.3-0.8-2.5-1.6-3.8-2.4C187.4,34.6,189.1,35.1,189.8,36.5z M185.3,34.7c-1-0.4-2-1-2.9-1.6
		C183.4,33.3,184.9,33.5,185.3,34.7z M183.3,34.4c-0.4,0.2-0.7,0.1-1-0.2c-0.8-0.6-1.6-1.1-2.5-1.6
		C181.2,32.7,182.3,33.6,183.3,34.4z M179.9,33.3c-0.5,0.4-0.9,1.2-1.6,0.7c0.1-0.3,0.2-0.9,0.3-1.1c-0.4,0.3-0.8,0.7-1.4,0.7
		c0.1-0.4,0.2-1,0.7-1.2C178.5,32.6,179.2,32.9,179.9,33.3z M177.1,32.5c0.3,0.3,0.2,0.5-0.2,0.7c-0.4-0.1-0.8-0.3-1.1-0.5
		c-0.2,0.3-0.3,0.5-0.5,0.8c-0.5-0.3-1-0.6-1.6-0.9C174.8,32.4,175.9,32.4,177.1,32.5z M173.9,33.2c-0.3,0.4-0.6,0.7-0.9,1.1
		c-0.2-0.1-0.5-0.4-0.6-0.5c0.2-0.4,0.4-0.8,0.6-1.2C173.2,32.8,173.7,33.1,173.9,33.2z M171.6,33.5c-0.2-0.4,0.4-0.7,0.7-0.5
		C172.5,33.3,171.9,33.7,171.6,33.5z M171.6,33.6c-0.2,0.6-0.4,1.2-1,1.4C170.7,34.4,170.9,33.8,171.6,33.6z M170.1,36
		c-0.2-0.3,0.1-0.9,0.5-0.9C171.1,35.3,170.6,36.3,170.1,36z M171.8,35.7c0.4,0.3,0,1.1-0.5,0.7C170.9,36.2,171.3,35.4,171.8,35.7z
		 M169.8,36.5c0.1-0.1,0.4-0.2,0.5-0.2c-0.2,0.8-0.4,1.7-0.6,2.5c0.2-0.3,0.4-0.7,0.6-1c0.4,0.2,0.8,0.3,1.2,0.5
		c0.2-0.3,0.4-0.6,0.6-0.8c0.3,0.1,0.9,0.5,0.5,0.9c-0.6,0.7-1.2,1.4-1.6,2.2c-0.8-0.3-1.6-0.7-2.4-1
		C169,38.6,169.2,37.4,169.8,36.5z M151.8,21.2c2.6,0.6,5.4,1.7,6.9,4c1.3,1.9,0.7,4.4,2,6.3c0.7,1.2,1.9,1.9,2.7,2.9
		c0.5,0.6,0.3,1.4,0.5,2.2c0.1,1.1,1,2,1.8,2.7c-0.6,0.9-0.4,1.9,0.3,2.6c-0.3,0.5-0.8,0.9-0.7,1.5c0.1,0.5,0.4,1.1,0.5,1.6
		c-0.9-0.8-1.3-2-2-2.9c-0.9-1.2-2.1-2-3.1-3.2c-1.2-1.6-1.1-3.8-2.2-5.5c-0.8-1.3-1.9-2.5-3.5-2.7c-1.3-0.2-2.9-0.1-3.7,1
		c-0.5,0.7-0.6,1.6-0.4,2.4c0.3,1.2,0.7,2.4,1.4,3.4c1.1,1.5,2.7,2.5,3.6,4.1c0.4,0.8,0.3,1.8,0.3,2.6c-0.8-0.7-1.5-1.4-2.3-2.1
		c-2.5-2.1-5.4-3.6-8.4-5c-0.7-0.2-0.8-1-1.1-1.6c-0.8-1.8-2.4-3.2-3.4-4.8c-0.8-1.3-0.6-2.9-0.1-4.3c0.7-1.9,2.3-3.1,3.7-4.3
		C146.6,20.6,149.4,20.6,151.8,21.2z"/>
	<path class="st0" d="M109,111c-0.6,1.3-0.9,3-0.2,4.3c0.2-1.2,0.3-2.5,1.1-3.5c1.4-0.5,2.9,0.7,4.3-0.1c0.7-0.4,0.8-1.3,0.9-2.1
		c1.1-0.1,2.3-0.2,3.3-0.5c1.2-0.4,2.5-0.1,3.8-0.3c-1.2-1.2-3.1-1.2-4.6-1c-1.2,0.1-2.5-0.2-3.7,0.3c-0.7,0.4-0.7,1.4-0.8,2.1
		C111.7,110.3,109.9,109.7,109,111z"/>
	<path class="st0" d="M118.5,118.6c0.4,0.1,0.9,0.3,1.4,0c1.4-0.6,2.7-1.5,3.7-2.6c0.7-0.8,0.5-2,0.2-2.9c-0.5-1.1-1.1-2.2-2.1-3
		c-0.6-0.5-1.6-0.9-2.4-0.4c-1.3,0.8-2.8,1.2-3.8,2.4c-0.9,0.6-2.6,0.7-2.5,2.1c0.4,1.8,1.2,3.6,2.6,5
		C116.4,120,117.9,119.6,118.5,118.6z M118.5,111c0.7,2.2,2.1,4.1,4,5.3c-1,0.5-2.1,0.9-3.2,1.3c-0.8-0.2-1.3-1-1.7-1.7
		c-0.6-0.9-1.2-2-1.2-3.1C117,112.1,117.8,111.6,118.5,111z M116.7,118.7c-0.5-0.2-0.7-0.8-1-1.2c-0.7-1.2-1.4-2.3-1.8-3.7
		c0.3-0.5,0.8-0.8,1.2-1.3c-0.5,2.2,0.6,5.1,3,5.7C117.7,118.6,117.2,119,116.7,118.7z"/>
	<path class="st0" d="M151.4,121.4c-1.3-0.8-2.8-1.4-4-2.3c-1.8,0.1-3.5,0.1-5.3,0.1c0.1,0.4,0.1,0.9,0.5,1.2
		c2.1,1.5,4.8,2.7,7.4,2.3C150.6,122.4,151.8,122.1,151.4,121.4z M143.8,119.8c1.1-0.2,2.2-0.3,3.3-0.5c0.9,0.8,1.9,1.5,2.8,2.3
		C147.8,121.6,145.7,120.9,143.8,119.8z"/>
	<path class="st0" d="M184.4,100c0.3,0.1,0.5,0.2,0.8,0.3c0.6-1,1.2-2.1,1.9-3.1c-1.1-0.4-2.2-0.9-3.4-1c-0.1-0.3-0.1-0.7-0.1-1
		c-0.7-0.2-1.4-0.3-2-0.2c0.3,2.1,0.8,4.2,0.8,6.3c0.5,0.6,1.3,0.8,2.1,0.8C184.4,101.4,184.4,100.7,184.4,100z"/>
	<path class="st0" d="M119.5,41.5c0.4,0.9,1.1,1.7,1.9,2.2c1.1-1.2,2.1-2.7,2.4-4.4c-1.1,0.2-2.2,0.6-3.2,1
		C120,40.5,119.4,40.8,119.5,41.5z M121.2,42.1c-0.2-0.3-0.4-0.6-0.6-0.8c0.9-0.5,1.7-1.2,2.7-1.6C122.7,40.5,121.9,41.3,121.2,42.1
		z"/>
	<path class="st0" d="M203.2,74.1c-0.4,0.8-0.8,1.7-1,2.6c2.2-1.5,4.6-2.9,7.2-3.8c-2-0.2-3.9,0.4-5.5,1.4
		C203.6,74.3,203.4,74.2,203.2,74.1z"/>
	<path class="st0" d="M190.6,78.6c-1.1,0.2-2.1,0.4-3.1,0.8c-1-2-2.7-3.5-4.2-5.1c-1.1-0.8-2.5-1.2-3.8-1.6c0.9,0,1.9,0.4,2.8,0
		c0-0.1,0.1-0.4,0.1-0.6c-0.6-0.8-1.7-1.2-2.4-1.9c2.2-0.2,4.4,0.3,6.2,1.4c-1-1.3-1.8-2.9-3.1-4c-0.9-0.8-2,0.4-3,0.1
		c-1-0.2-2-0.1-3,0.2c-0.6-0.7-1.1-1.6-2.1-1.9c-0.8,0.2-1.5,0.7-2,1.3c-0.1,0.7,0.8,1,1.2,1.5c-0.1,0.1-0.3,0.4-0.5,0.6
		c-0.3-0.4-0.6-0.8-1-1.1c-0.2,0.4-0.4,0.7-0.5,1.1c-0.4-0.4-0.6-1.3-1.3-1.2c-0.5,0.3-1,0.7-1.4,1.2c0.1,1.1,1.3,1.6,1.9,2.3
		c-1,2-1.3,4.3-1.1,6.5c0.2,0.1,0.6,0.2,0.7,0.3c-0.2,0.9-0.5,1.9,0.1,2.8c1.6,2.7,4.3,4.7,7.2,5.6c0.5,0.2,1.2-0.2,1-0.8
		c-0.6-0.8-1.5-1.4-2.2-2.2c1.2,0.7,2.2,1.7,3.5,2.1c0.9,0.2,1.8,0,2.7,0.2c1,1.6,2,3.1,3,4.7c0.2,0.3,0.5,0.5,0.8,0.7
		c0,0.5,0,1.1,0.2,1.5c0.3,0.6,0.9,0.9,1.4,1.3c0.4,0.8,0.8,1.6,1.3,2.4c-0.8,0-1.7-0.1-2.2,0.6c-0.7,0.9-1.1,1.9-1.6,2.8
		c1.7,0,3.3-0.4,4.8-0.9c0,0.9,0,1.7,0.1,2.6c1,0.3,1.8-0.5,2.6-1c0.4-0.3,1.1-0.6,1-1.3c-0.3-0.6-0.7-1.2-1-1.8
		c0.7-0.5,1.4-1.1,2.1-1.7c0.4,0.7,0.2,2,1.1,2.3c0.9-0.4,1.8-0.9,2.5-1.6c0.2-0.3,0.6-0.6,0.4-1c-0.9-0.9-2.6-0.9-3.1-2.1
		c0.6,0.1,1.1,0.7,1.7,0.4c1.3-0.9,1.8-2.4,2.6-3.7c0.6-0.8,0.6-1.8,0.6-2.7c0-2-0.1-4-1.1-5.8c-0.7-1.1-1.8-1.8-3-2.4
		c-1.9-1-4-1.9-6.2-1.9C191.3,78.1,191.1,78.6,190.6,78.6z M194.9,94.6c-0.7,0.4-1.3,0.8-2,1.1c-0.1-1.5-1.5-2.1-2.6-2.8
		c0.5,0.1,1.5,0.4,1.5-0.4c-1.7-2.7-3.9-4.9-5.5-7.7c0.8,0.1,1.6,0.2,2.4,0.4c0.8,0.8,1.3,1.9,1.9,2.8
		C191.8,90.4,193.6,92.3,194.9,94.6z M193.6,83.6c1.1-0.2,2.1-0.6,3.2-0.4c-0.6,0.4-1.3,0.8-2,1.2c1.5,0,2.7,1.1,3.2,2.4
		c0.2,0.7,1,0.8,1.5,1.2c0.2,0.4,0.4,0.9,0.6,1.3c-0.9-0.5-1.7-1.2-2.5-1.8c0.1,1.3,0.3,2.7-0.2,4c-0.4-0.6-0.7-1.2-1.2-1.7
		c-1.7-1.5-4.3-1.6-5.8-3.3c1.7,0.4,3.1,1.5,4.6,2.3c0.6,0,0.9-0.8,0.4-1.1c-1.3-1.1-2.5-2.3-3.7-3.5c0.2-0.3,0.4-0.5,0.6-0.8
		c-0.3-0.6-0.7-1.2-1-1.8C192.2,82.1,192.8,83,193.6,83.6z M173.2,77.8c-1-1.2-0.9-3-0.1-4.3c0.1,0.2,0.3,0.7,0.4,0.9
		c0.5,0,0.9,0.1,1.4,0.1c0.1,0.7,0.3,1.4,0.6,2c0.3-0.8,0.3-1.7,0.8-2.4c0.2,1-0.2,2-0.2,3.1c0.4,0.9,1.6,1.1,1.9,2.1
		c0.3,0.7,0.7,1.3,1.2,1.9C176.9,80.9,174.5,79.8,173.2,77.8z M184.8,80.3c-0.6,0.1-1.3,0.3-1.9,0.4c-1.7-2.7-4-5.1-6.7-6.8
		c-0.3-0.8-0.7-1.5-1.1-2.2c0.5-0.3,1-0.5,1.5-0.8c1.6,2.4,3.3,4.8,5.4,6.8C182.8,78.6,183.8,79.4,184.8,80.3z"/>
</g>
<g>
	<g>
		<path class="st0" d="M5.5,141C5.5,141.1,5.5,141.1,5.5,141c0,0.3-0.1,0.5-0.3,0.6c-0.2,0.1-0.4,0.2-0.6,0.2
			c-0.6-0.1-1.1-0.7-1.1-1.3l0-130.8C3.5,9.1,3.9,8.6,4.6,8.5c0.2,0,0.4,0,0.6,0.2C5.4,8.8,5.5,9,5.5,9.2c0,0.3-0.2,0.6-0.5,0.7
			c-0.1,0-0.3-0.1-0.3-0.2c0-0.1,0.1-0.3,0.2-0.3C5,9.4,5,9.3,5,9.3C5,9.2,5,9.1,4.9,9.1C4.8,9,4.8,9,4.7,9C4.3,9,4,9.3,4.1,9.7l0,0
			l0,130.9l0,0c0,0.4,0.2,0.8,0.6,0.8c0.1,0,0.2,0,0.2-0.1C5,141.2,5,141.1,5,141c0-0.1,0-0.1-0.1-0.1c-0.1,0-0.2-0.1-0.2-0.3
			c0-0.1,0.1-0.2,0.3-0.2C5.3,140.5,5.5,140.7,5.5,141z"/>
	</g>
	<g>
		<path class="st0" d="M5.8,11.4v127.4c0,0.1-0.1,0.2-0.2,0.2c-0.1,0-0.2-0.1-0.2-0.2V11.4c0-0.1,0.1-0.2,0.2-0.2
			C5.7,11.2,5.8,11.3,5.8,11.4z"/>
	</g>
	<g>
		<path class="st0" d="M233.7,9.1C233.7,9.1,233.7,9.1,233.7,9.1c0-0.3,0.1-0.5,0.3-0.6c0.2-0.1,0.4-0.2,0.6-0.2
			c0.6,0.1,1.1,0.7,1.1,1.3l0,132.5c0.1,0.6-0.4,1.1-1.1,1.2c-0.2,0-0.4,0-0.6-0.2c-0.2-0.1-0.3-0.3-0.3-0.6c0-0.3,0.2-0.6,0.5-0.7
			c0.1,0,0.3,0.1,0.3,0.2c0,0.1-0.1,0.3-0.2,0.3c-0.1,0-0.1,0.1-0.1,0.1c0,0.1,0.1,0.2,0.1,0.2c0.1,0.1,0.2,0.1,0.2,0.1
			c0.4,0,0.7-0.3,0.6-0.7l0,0l0-132.5l0,0c0-0.4-0.2-0.8-0.6-0.8c-0.1,0-0.2,0-0.2,0.1c-0.1,0.1-0.1,0.1-0.1,0.2
			c0,0.1,0,0.1,0.1,0.1c0.1,0,0.2,0.1,0.2,0.3c0,0.1-0.1,0.2-0.3,0.2C233.9,9.7,233.7,9.4,233.7,9.1z"/>
	</g>
	<g>
		<path class="st0" d="M233.4,140.4V11.3c0-0.1,0.1-0.2,0.2-0.2s0.2,0.1,0.2,0.2v129.1c0,0.1-0.1,0.2-0.2,0.2
			S233.4,140.5,233.4,140.4z"/>
	</g>
	<g>
		<path class="st0" d="M230.5,6.9C230.5,6.9,230.5,6.9,230.5,6.9c0.3,0,0.5-0.1,0.6-0.3c0.1-0.2,0.2-0.4,0.2-0.6
			c-0.1-0.6-0.7-1.1-1.3-1.1L8.3,5C7.7,4.9,7.2,5.3,7.1,6c0,0.2,0,0.4,0.2,0.6c0.1,0.2,0.3,0.3,0.6,0.3c0.3,0,0.6-0.2,0.7-0.5
			c0-0.1-0.1-0.3-0.2-0.3C8.2,6.1,8,6.2,8,6.3C8,6.4,8,6.4,7.9,6.4c-0.1,0-0.2-0.1-0.2-0.1C7.6,6.2,7.6,6.1,7.6,6.1
			c0-0.4,0.3-0.7,0.7-0.6l0,0l221.7,0l0,0c0.4,0,0.8,0.2,0.8,0.6c0,0.1,0,0.2-0.1,0.2c-0.1,0.1-0.1,0.1-0.2,0.1
			c-0.1,0-0.1,0-0.1-0.1c0-0.1-0.1-0.2-0.3-0.2c-0.1,0-0.2,0.1-0.2,0.3C229.9,6.7,230.2,6.9,230.5,6.9z"/>
	</g>
	<g>
		<path class="st0" d="M10.1,7.2h218.3c0.1,0,0.2-0.1,0.2-0.2c0-0.1-0.1-0.2-0.2-0.2H10.1C9.9,6.7,9.8,6.8,9.8,7
			C9.8,7.1,9.9,7.2,10.1,7.2z"/>
	</g>
	<g>
		<path class="st0" d="M8.7,143.3C8.7,143.3,8.7,143.3,8.7,143.3c-0.3,0-0.5,0.1-0.6,0.3c-0.1,0.2-0.2,0.4-0.2,0.6
			c0.1,0.6,0.7,1.1,1.3,1.1l221.7,0c0.6,0.1,1.1-0.4,1.2-1.1c0-0.2,0-0.4-0.2-0.6c-0.1-0.2-0.3-0.3-0.6-0.3c-0.3,0-0.6,0.2-0.7,0.5
			c0,0.1,0.1,0.3,0.2,0.3c0.1,0,0.3-0.1,0.3-0.2c0-0.1,0.1-0.1,0.1-0.1c0.1,0,0.2,0.1,0.2,0.1c0.1,0.1,0.1,0.2,0.1,0.2
			c0,0.4-0.3,0.7-0.7,0.6l0,0l-221.7,0l0,0c-0.4,0-0.8-0.2-0.8-0.6c0-0.1,0-0.2,0.1-0.2c0.1-0.1,0.1-0.1,0.2-0.1
			c0.1,0,0.1,0,0.1,0.1c0,0.1,0.1,0.2,0.3,0.2c0.1,0,0.2-0.1,0.2-0.3C9.3,143.5,9,143.3,8.7,143.3z"/>
	</g>
	<g>
		<path class="st0" d="M229.1,143H10.9c-0.1,0-0.2,0.1-0.2,0.2c0,0.1,0.1,0.2,0.2,0.2h218.3c0.1,0,0.2-0.1,0.2-0.2
			C229.4,143.1,229.3,143,229.1,143z"/>
	</g>
</g>
</svg>
