<?xml version="1.0" encoding="utf-8"?>
<!-- Generator: Adobe Illustrator 23.0.1, SVG Export Plug-In . SVG Version: 6.00 Build 0)  -->
<svg version="1.1" id="Слой_1" xmlns="http://www.w3.org/2000/svg" xmlns:xlink="http://www.w3.org/1999/xlink" x="0px" y="0px"
	 viewBox="0 0 238.1 150.2" style="enable-background:new 0 0 238.1 150.2;" xml:space="preserve">
<g>
	<path d="M221.3,51.1c-0.4-3.2-2-6.3-4.3-8.6c-2.3-2.3-5.3-3.8-8.5-4.2c-2.9-0.4-5.9,0-8.5,1.3c-3.5,1.6-6.4,4.7-7.7,8.4
		c-1.1,3-1.2,6.3-0.3,9.4c-2.2-1.5-4.5-2.9-7.1-3.8c-4.9-1.7-10.2-2-15.2-0.8c-3.7,0.9-7.2,2.6-10.2,5c0.8-2.7,1-5.6,0.3-8.3
		c-1-4.1-3.8-7.6-7.5-9.6c-2.7-1.5-5.9-2-8.9-1.6c-3.2,0.4-6.3,1.8-8.6,4.1c-2.5,2.3-4.1,5.6-4.4,9c-0.3,3,0.3,6.1,1.8,8.7
		c1.8,3.3,4.9,5.8,8.5,7c3.3,1,7,1,10.2-0.3c0.6-0.2,1.1-0.5,1.7-0.8c-1.6,3.2-2.7,6.6-2.9,10.1c0,1-0.2,2-0.1,3
		c0.1,4.9,1.8,9.6,4.4,13.6c-0.7,0-1.5,0.2-2.2,0.3c-0.1-1.2-0.4-2.4-0.4-3.7c-0.1-2.7-2.9-4.8-5.5-4.5c-0.6,0.1-1.2,0.5-1.6,1
		c-0.5,0.6-0.4,1.5-0.3,2.2c0.4,1.6,0.8,3.3,1,4.9c0.4,3.9-0.6,7.9,0.6,11.8c0.5,1.9,2.1,3.3,2.3,5.3c0.3,1.6,1.2,3.1,2.5,4.1
		c0.3,0.2,0.6,0.4,0.7,0.7c0.4,1,1,2,2,2.6c1.3,0.9,2.8,1,4.3,0.9c0.3,0.7,0.7,1.3,1.4,1.6c0.8,0.3,1.7,0.1,2.4-0.3
		c0,5.2,0,10.5,0,15.7c0,1,0.5,1.9,1.3,2.5c0.6,0.5,1.5,0.5,2.2,0.4c0.6-0.1,1.1-0.6,1.6-1c0,1.1,0.1,2.3,0.9,3.1
		c0.4,0.4,1.1,0.5,1.5,0.1c0.8-0.7,1-1.8,1-2.8c0-6.3,0-12.7,0-19c0.6,0.4,1.4,0.3,2.1,0.2c0,0.8,0.4,1.5,1.1,1.7
		c1.1,0.5,2.3,0.3,3.3-0.3c0,1.9,0,3.8,0,5.6c0,0.6,0.2,1.2,0.6,1.6c0.8,0.9,2.2,1.1,3.1,0.4c0.7-0.4,1.1-1.2,1.1-2
		c0-2.9,0-5.9,0-8.8c0.8,0.2,1.7,0.1,2.5-0.2c0,0.5,0,1,0.3,1.4c0.4,0.6,1.2,0.8,1.9,1c0,4.7,0,9.3,0,14c0,1.1,0.8,2.1,1.9,2.4
		c1.4,0.5,3.2-0.7,3.2-2.2c0-1.7,0-3.4,0-5.1c0.6,0.5,1.3,1.1,2.1,1.1c1.5,0.1,2.8-1.3,2.7-2.8c0-3.2,0-6.4,0-9.6
		c1.5,0.3,3,0.6,4.5,0.3c1.8-0.3,3.3-1.7,3.9-3.5c0.2-0.6,0.6-1.1,0.9-1.6c0.4-0.7,0.7-1.6,0.8-2.4c0.1-1.2,0.9-2.1,1.4-3.1
		c0.8-1.4,1.2-2.9,1.4-4.5c0.2-3.4-0.4-6.8,0.2-10.2c0.2-1.4,0.6-2.8,0.9-4.1c0.3-1-0.2-2.1-1-2.6c-0.7-0.4-1.6-0.4-2.4-0.3
		c-1.4,0.3-2.7,1.2-3.4,2.5c-0.5,0.8-0.5,1.8-0.6,2.7c-0.1,1-0.3,2-0.4,2.9c-0.9-0.2-1.9-0.4-2.9-0.2c-0.6,0.1-1.1,0.4-1.6,0.7
		c1.3-1.7,2.3-3.6,3.1-5.6c2.8-7,2.5-15.2-1-21.8c4.2,2.1,9.3,2.2,13.5,0.1c2.7-1.3,5-3.5,6.5-6.1C221.1,57.5,221.7,54.3,221.3,51.1
		z M155.2,69.2c0.1-0.5,0.4-0.8,0.6-1.2c1.8-2.3,3.6-4.7,5.6-6.8c0.2-0.2,0.5-0.5,0.8-0.6c2.9-0.8,5.9-1.6,8.8-2.4
		c0.3-0.1,0.7-0.2,0.9,0.1c1.3,1.3,2.6,2.6,3.9,3.9l0.1-0.1c1.3-1.3,2.6-2.6,3.8-3.8c0.2-0.3,0.6-0.1,1-0.1c2.8,0.8,5.7,1.5,8.5,2.3
		c0.6,0.1,1,0.7,1.4,1.1c1.9,2.1,3.6,4.4,5.4,6.7c0.4,0.5,0.4,1.1,0.6,1.7c0.4,1.7,0.7,3.4,1.1,5.1c0.1,0.3-0.2,0.6-0.3,0.8
		c-0.7,1.2-1.3,2.4-2,3.6c-3.2,0.7-6.4,1.2-9.7,1.6c-0.1-1.6,0-3.2,0-4.9c-0.8-0.4-1.5-0.9-2.3-1.3c-0.7,0.5-1.5,1-2.3,1.5
		c-0.1,1.7,0,3.4-0.1,5.1c-1.7,0.1-3.5,0.2-5.2,0.3l-0.1,0c-1.9,0-3.7,0-5.6,0.1c-0.2-1.9,0-3.8-0.1-5.7c-0.7-0.5-1.5-0.9-2.2-1.3
		c-0.9,0.3-1.6,1-2.4,1.4c-0.2,1.7,0,3.5-0.1,5.2c-3-0.3-5.9-0.6-8.8-1.3c-1-1.6-1.7-3.4-2.7-5C154.3,73.3,154.8,71.2,155.2,69.2z
		 M185.6,83.8c-0.1,0.5-0.5,0.8-0.9,0.9c-1,0-2.2,0.2-3.1-0.5c0-0.1,0-0.3,0-0.5c0.2,0.1,0.4,0.3,0.6,0.5c1-0.1,1.9,0,2.9,0
		C185.2,84.1,185.4,83.9,185.6,83.8z M169.5,84.4c-0.2-0.1-0.1-0.4,0.1-0.5C170,83.8,169.8,84.4,169.5,84.4z M169.2,84.7
		c-1.2,0-2.6,0.3-3.5-0.6c0-0.1,0.1-0.2,0.1-0.4c0.2,0.2,0.5,0.4,0.7,0.6c0.8-0.3,1.8-0.1,2.6-0.1C169.2,84.3,169.2,84.6,169.2,84.7
		z M153.1,83.3c1.4,0.9,2.8,1.9,4.3,2.7c0.6,0.3,1.2,0.6,1.8,0.6c0.4,0,0.3,0.4,0.4,0.7c-0.5,0.1-1-0.2-1.4-0.4
		c-2.1-1.1-4-2.4-6-3.7l-0.1-0.2C152.5,83,152.8,83.1,153.1,83.3z M160.7,109.5c-1.8,2-4.7,2.7-7.3,2.3c1.7,0.9,3.7,0.5,5.5,0.1
		c0.1,1.3-0.9,2.5-2.1,3c-1.5,0.5-3.2,0.4-4.6-0.3c-0.5-0.3-1-0.5-1.4-1c-0.2-3.3-0.3-6.7-0.1-10.1c-0.3,0.2-0.2,0.5-0.2,0.8
		c-0.2,3,0,6,0.1,9.1c-1.1-0.9-1.7-2.4-1.8-3.8c0.3,0.1,0.5,0.3,0.8,0.4c-1-1.2-2-2.6-2.6-4.1c-0.9-2.4-0.9-5-0.6-7.5
		c0-1.8,0.1-3.6-0.3-5.4c-0.4-1.8-0.8-3.7-1-5.5c0-0.6,0.3-1.3,0.9-1.5c0.8-0.3,1.7,0,2.5,0.3c1,0.4,1.7,1.4,1.9,2.4
		c0.2,1.2,0.3,2.4,0.5,3.6c0.1,1,0.4,2.2-0.3,3.1c-0.5,0.6-0.9,1.4-0.9,2.2c0.5-0.5,0.6-1.2,1-1.7c0.7-1.2,2-2,3.4-2
		c-1.7,0.9-2.3,2.9-2.7,4.6c-0.4,1.7-0.6,3.4-0.7,5.1c0.3-0.2,0.2-0.5,0.2-0.8c0.2-2.4,0.5-4.8,1.6-6.9c0.4-0.9,1.2-1.7,2.2-1.8
		c0.8,0.1,1.6,0.7,1.9,1.5c-0.5,0.6-1.4,1-1.7,1.8c1.2-0.7,2.4-1.5,3.8-1.5c1.7-0.1,3.3,1.2,3.6,2.9c0.1,0.6,0,1.4-0.4,1.8
		c-0.8-0.5-0.5-1.5-1.1-2.1c0,0.7-0.2,1.6,0.3,2.2c0.7,0.9,1.2,1.9,1.3,3C162.7,105.9,162.1,108,160.7,109.5z M166.6,99.3
		c-0.5-0.6-0.4-1.5,0.1-2.1C167,97.9,166.8,98.6,166.6,99.3z M167,99c0-0.3,0.1-0.6,0.2-1c0.2,0.3,0.3,0.7,0.2,1
		c0,0.4,0.2,0.8,0.2,1.2C167.5,99.8,167.2,99.4,167,99z M169.7,101.6c-1-0.5-1.8-1.5-1.9-2.6c0.3-0.1,0.6-0.3,0.9-0.3
		c-0.1,0.3-0.2,0.7-0.2,1.1c0.3,0.6,0.7,1.1,1.2,1.5C169.7,101.3,169.7,101.5,169.7,101.6z M168.8,99.8c0-0.1,0-0.4,0-0.5
		c0.5,0.5,0.9,1.1,1.1,1.7C169.3,100.9,169.1,100.2,168.8,99.8z M169.9,100.2c-0.3-0.5,0.1-1.1,0.4-1.6c0.4,0.4,0.1,1,0.3,1.5
		c0.2,0.7,0.7,1.2,0.9,1.9C170.6,101.8,170.2,100.9,169.9,100.2z M170.7,99.3c0.2,0.5,0.3,1.1,0.4,1.6
		C170.8,100.5,170.3,99.8,170.7,99.3z M172.7,102.2c-0.6,0.3-0.9-0.4-1-0.8c-0.2-0.7-0.6-1.5,0-2.1c0.1,0.2,0.1,0.4,0.1,0.6
		c0.2,0.1,0.5,0.3,0.5,0.6c0.3,0.4,0.5,0.7,0.7,1.1C173,101.8,173,102.1,172.7,102.2z M175.1,103.5c-0.5,0.1-1-0.3-1.3-0.7
		c0.2,0.1,0.4,0.1,0.6,0.2c-0.5-0.6-1.3-1.4-0.9-2.2c0.2,0.3,0.4,0.7,0.7,1c0.5,0,0.9,0.4,1.3,0.7
		C175.7,102.9,175.5,103.4,175.1,103.5z M175.8,96.2c-0.1,2-0.3,4-0.2,6c-0.8-0.4-1.3-1.1-1.9-1.8c0.3-0.5,0.3-1,0.3-1.5
		c-0.1,0-0.2,0-0.2,0c0.1,0.8-0.2,1.5-0.8,2c-0.5-0.5-1-1.3-1.1-2.1c0.1-0.4,0.6-0.7,0.5-1.2c-0.1,0-0.2,0-0.3,0
		c0,0.7-0.5,1.3-1.1,1.8c-0.2-0.3-0.3-0.6-0.5-1c0.5-0.4,1.2-0.9,1.2-1.6c-0.1,0-0.2-0.1-0.3-0.1c-0.1,0.3-0.1,0.7-0.3,0.9
		c-0.3,0.3-0.8,0.4-1.2,0.8c-0.3,0.3-0.5,0.7-0.7,1c-0.1-0.4-0.4-0.8-0.2-1.2c0.5-0.4,0.9-0.8,1.1-1.4c-0.4,0.4-0.8,0.8-1.2,1
		c-0.3,0.3-0.7,0.5-1.1,0.6c-0.1-0.4-0.2-0.8-0.2-1.1c0.2-0.3,0.5-0.4,0.7-0.6c0.2-0.7,0.2-1.5,0.1-2.3c-0.1,0.3-0.2,0.7-0.3,1
		c0,0.4-0.1,0.7-0.2,1.1c-0.3,0.4-0.7,0.8-1.1,1.1c0-0.2,0-0.4,0-0.6c0.7-0.5,0.9-1.3,1.1-2c0-0.7,0.1-1.5,0-2.2
		c-0.3-1.3-1.5-2-2.6-2.6c-0.3-0.1-0.7-0.1-1-0.1c0.2,0.1,0.5,0.2,0.7,0.4c-1.1,0-2.2,0-3.2,0.4c-1.5,0.7-3.2,1.1-4.8,0.8
		c-0.8-0.2-1.6-0.6-2-1.4c1.1,0.9,2.7,1.4,4.1,0.9c-1.5,0.1-3-0.5-4.1-1.5c-1.2-1-1.8-2.5-2.4-3.9c-0.3-0.8-0.6-1.7-0.4-2.5
		c1.7,1.6,3.8,2.8,5.9,3.9c0.7,0.3,1.5,0.9,2.3,0.6c0.1-1-0.7-1.6-1.2-2.4c-0.8-1.5-1.7-3.1-2.5-4.7c2.9,0.6,5.8,1,8.7,1.3
		c0.2,0.8-0.2,1.7,0.1,2.5c0.3,0.3,0.7,0.6,1.1,0.7c0.9,0,1.8,0,2.7,0c0.3-0.2,0.6-0.6,0.9-0.8c0-0.7,0-1.4-0.1-2.1
		c1.9,0.1,3.8,0,5.7,0c-0.1,1.6,0.1,3.3-0.1,4.9c-0.5-0.5-1.4-0.9-2.1-0.5c-1,0.3-1.6,1.5-1.2,2.5c0.5,1.6,2,2.6,3.3,3.5
		C175.8,93.7,175.9,95,175.8,96.2z M172.8,89c0.8,1.1,1.8,1.9,2.9,2.7c0,0.1,0.1,0.3,0.1,0.3C174.6,91.4,173.4,90.4,172.8,89z
		 M177.9,102.5c-0.1,0.6-0.9,1.1-1.5,0.9c-0.3-0.2-0.4-0.7-0.1-1c0.5-0.4,0.9-0.8,1.4-1.1c-0.1,0.3-0.3,0.6-0.4,0.9
		c0.4-0.3,0.6-0.8,0.8-1.3l0.2,0C178.3,101.4,178,102,177.9,102.5z M179.7,101.7c-0.2,0.2-0.3,0.4-0.5,0.6c-0.3,0-0.5-0.1-0.8-0.2
		c0.1-1,0.8-1.7,1.3-2.5c0-0.1,0-0.2-0.1-0.3c0.5,0,0.3,0.6,0.4,0.9C180.1,100.7,179.9,101.2,179.7,101.7z M180.3,101.9
		c-0.1,0-0.2,0-0.3,0c0.4-1.1,0.4-2.3,1.2-3.3c0.3,0.3,0.5,0.7,0.5,1.2c-0.1,0.5-0.4,0.9-0.6,1.3C181,101.5,180.6,101.7,180.3,101.9
		z M183.5,99.5c0,0.3-0.3,0.6-0.4,0.9c-0.3,0.5-0.8,0.9-1.3,1.2c-0.1-0.1-0.2-0.2-0.2-0.3c0.1-1,1-1.7,1.2-2.7
		c0.2,0.1,0.5,0.2,0.7,0.3C183.6,99.1,183.5,99.3,183.5,99.5z M184.3,99.1c-0.1,0.4-0.4,0.7-0.7,1c0.3-0.7,0.1-1.5,0.5-2.1
		C184.3,98.3,184.4,98.7,184.3,99.1z M184.7,99.2c-0.1-0.5-0.1-1.1,0.1-1.6C185.4,97.9,185.3,98.9,184.7,99.2z M199.2,94.1
		c1.1,0.2,1.7,1.1,2.2,2c1,2.3,1.3,4.9,1.5,7.4c0,0.3,0,0.6,0.2,0.8c0-0.3,0-0.6,0-0.9c-0.3-2.7-0.5-5.5-1.9-7.9
		c-0.3-0.7-1-1.1-1.6-1.6c1.3,0,2.5,0.6,3.2,1.7c0.5,0.6,0.7,1.3,1.1,2c0.2-1.5-1.5-2.2-1.4-3.7c0.1-1.3,0.3-2.5,0.4-3.8
		c0.1-1.1,0.2-2.2,1-3c0.8-0.8,1.9-1.3,3-1.3c0.8,0,1.5,0.7,1.5,1.5c-0.1,3.1-1.4,6-1.3,9.1c-0.1,1.9,0.3,3.8,0.2,5.7
		c-0.1,2.1-0.7,4.2-1.9,5.9c-0.4,0.7-1,1.3-1.4,2c0.3-0.1,0.5-0.2,0.8-0.3c-0.1,1.5-0.8,2.9-1.9,3.9c0.1-2.9,0.2-5.8,0.1-8.7
		c-0.1,0.2-0.2,0.4-0.2,0.6c0.1,2.6,0,5.1-0.1,7.7c0,0.2,0,0.6-0.2,0.7c-1.4,1.1-3.2,1.6-5,1.2c-1.5-0.2-3-1.5-2.9-3.2
		c1.8,0.4,3.8,0.8,5.5-0.1c-1.9,0.3-3.8,0-5.5-0.9c-1.7-0.9-2.9-2.6-3.4-4.5c-0.4-1.7,0-3.5,0.9-4.9c0.2-0.4,0.6-0.7,0.7-1.2
		c0.1-0.6,0-1.1,0-1.7c-0.6,0.5-0.3,1.8-1.3,2c-0.3-0.7-0.4-1.4-0.2-2.1c0.4-1.6,1.9-2.7,3.5-2.6c1.5-0.1,2.7,0.8,3.9,1.6
		c-0.3-0.9-1.2-1.3-1.8-1.9C197.5,94.8,198.3,94.1,199.2,94.1z M196,90.5c0.7-0.4,1.1-1.1,1.6-1.7c-0.7,1-1.2,2.3-2.4,2.7
		c-1.7,0.6-3.7,0.2-5.3-0.6c-1.3-0.6-2.7-0.5-4.1-0.4c0.4-0.3,0.9-0.2,1.3-0.5c-0.7-0.2-1.3,0.2-1.9,0.5c0.7-1.1,2-1.6,3.2-1.5
		c0.9-0.1,1.6,0.5,2.5,0.7c0.6,0.3,1.3,0.1,1.9-0.2c-0.4,0-0.8,0-1.3,0c-0.9-0.1-1.6-0.5-2.4-0.8c-1.2-0.2-2.5,0.1-3.4,0.8
		c-0.5,0.4-0.7,1-1.1,1.6c-1.6,1.5-1.5,4.1-0.3,5.8c0,0.3,0,0.6,0,0.9c-0.4-0.4-0.8-0.7-1.1-1.2c-0.3-0.9-0.2-1.9-0.2-2.9
		c-0.3,0.8-0.3,1.8-0.2,2.7c0,0.5,0.5,0.6,0.8,1c0,0.4-0.1,0.8-0.2,1.1c-0.6-0.1-1-0.6-1.5-0.9c-0.3-0.2-0.5-0.5-0.8-0.8
		c0.2,0.6,0.6,1,1.1,1.4c0.1,0.4-0.1,0.8-0.2,1.2c-0.3-0.5-0.5-1-1-1.3c-0.4-0.2-0.9-0.4-1.1-0.9c-0.1-0.2,0-0.6-0.4-0.6
		c-0.1,0.8,0.6,1.3,1.2,1.7c-0.2,0.3-0.4,0.6-0.5,1c-0.7-0.4-0.9-1.2-1.3-1.9c0,0.1,0,0.4-0.1,0.6c0.9,0.8,0.1,1.9-0.4,2.6
		c-0.3-0.2-0.6-0.3-0.8-0.6c-0.2-0.4-0.2-0.9-0.2-1.3c-0.6,0.4-0.1,1.3,0.1,1.7c-0.5,0.7-1.1,1.2-1.8,1.7c0.1-1.7-0.1-3.5-0.1-5.2
		c0.1-1.5,0-3,0-4.5c0.6-0.6,1.4-1,2-1.6c0.8-0.8,1.5-1.8,1.3-2.9c-0.1-0.7-0.7-1.4-1.4-1.6c-0.7-0.3-1.4,0.1-1.9,0.5
		c0.1-1.6,0-3.2,0-4.8c1.1,0,2.2-0.1,3.3-0.2c0.6,0,1.3-0.1,1.9-0.2c0,0.9,0,1.8,0,2.7c0.3,0.2,0.6,0.5,1,0.7c0.9,0,1.9,0.1,2.8,0
		c0.3-0.2,0.6-0.5,0.8-0.8c0.1-1,0-2,0-3c3.2-0.3,6.4-0.9,9.5-1.5c-1.2,2.4-2.5,4.9-3.9,7.2c-0.1,0.2-0.1,0.5-0.1,0.7
		c0.7,0.3,1.5-0.2,2.1-0.5c2.2-1.1,4.3-2.4,6.2-4c0,2.5-1.5,4.8-3.3,6.4c-1.1,1-2.5,1.5-3.9,1.4C193.6,91.6,195,91.3,196,90.5z
		 M175.9,92c0-0.1,0-0.3,0-0.3c0.4-0.4,1-0.7,1.4-1.1c0.5-0.4,0.8-0.8,1.3-1.2C178.2,90.6,177,91.3,175.9,92z M199.6,83
		c-0.1,0.2-0.2,0.3-0.4,0.4c-1.8,1.1-3.5,2.4-5.4,3.3c-0.5,0.3-1.1,0.6-1.7,0.5c0.1-0.2,0.1-0.4,0.2-0.6c1.1-0.2,2-0.7,3-1.2
		c1.1-0.7,2.2-1.4,3.3-2.1C198.9,83.1,199.3,83,199.6,83z"/>
	<path d="M165.9,88c-0.8-0.4-1.8-0.1-2.7-0.3c0.5,0.7,1.5,0.1,2.2,0.4c1.2,0.3,1.7,1.5,2.2,2.5C167.3,89.6,166.9,88.4,165.9,88z"/>
	<path d="M185.7,87.9c-1,0.4-1.5,1.5-1.7,2.5c0.5-0.9,1-2,2-2.3c0.7-0.3,1.7,0.3,2.3-0.4C187.5,87.9,186.6,87.5,185.7,87.9z"/>
	<path d="M147.7,102.9c-0.2,0.9-0.1,1.9,0.3,2.7c0.3,0.7,0.8,1.5,1.6,1.7c-0.5-1.2-1-2.5-1.5-3.7C148,103.4,147.9,103.1,147.7,102.9
		z"/>
	<path d="M206,102.9c-0.4,0.5-0.5,1.1-0.8,1.7c-0.3,0.9-0.8,1.8-1,2.8C205.7,106.6,206.3,104.6,206,102.9z"/>
	<path d="M154.6,105.7c-0.3,1.2-0.4,2.4,0,3.6c0.1,0,0.2,0.1,0.2,0.1c0.1-1.8,0.5-3.6,0.7-5.4C155.1,104.4,154.8,105.1,154.6,105.7z
		"/>
	<path d="M163.1,88.7c-0.9-0.1-1.7,0.5-2.5,0.7c-0.6,0.2-1.3,0.1-1.9,0.1c0.1,0.2,0.3,0.2,0.5,0.3c1.1,0.4,2.1-0.4,3.1-0.7
		c1.1-0.2,2.4,0,3.3,0.7c0.4,0.3,0.6,0.7,1,0.9C166,89.3,164.4,88.8,163.1,88.7z"/>
	<path d="M172.9,124.3c-0.6,0.2-1.1,0.9-1.1,1.5c0,3.4,0,6.8,0,10.1c0,0.9,0.8,1.6,1.7,1.5c0.8-0.1,1.4-0.9,1.4-1.7
		c0-3.3,0-6.6,0-10C174.9,124.8,173.9,123.9,172.9,124.3z"/>
	<path d="M150.9,105.4c0,1,0.1,2.3,1,3c0-1.7-0.2-3.4-0.3-5.1C150.9,103.8,151,104.7,150.9,105.4z"/>
	<path d="M202.8,105.8c0-0.8,0-1.8-0.6-2.5c-0.2,1.7-0.3,3.4-0.3,5.1C202.6,107.8,202.7,106.7,202.8,105.8z"/>
	<path d="M198.9,109.5c0.5-0.5,0.4-1.3,0.5-1.9c0-1.2-0.3-2.6-1.2-3.5C198.3,105.8,198.7,107.6,198.9,109.5z"/>
	<path d="M174.8,78.5c0,0.2,0.2,0.4,0.4,0.4c0.2,0,0.4-0.2,0.4-0.4v-0.8c0.2,0,0.4,0,0.6,0v0.9c0,0.2,0.2,0.4,0.4,0.4
		s0.4-0.2,0.4-0.4v-1.1c1.5-0.5,2.1-1.7,2.1-2.8c0-1.7-1.1-2.5-2.1-2.9v-3.9c0.6,0.1,1.1,0.2,1.6,0.5l0.1-1
		c-0.6-0.3-1.1-0.4-1.7-0.5v-1.3c0-0.2-0.2-0.4-0.4-0.4s-0.4,0.2-0.4,0.4v1.2c-0.2,0-0.4,0-0.6,0v-1.2c0-0.2-0.2-0.4-0.4-0.4
		c-0.2,0-0.4,0.2-0.4,0.4v1.4c-1.2,0.4-2,1.2-2,2.4c0,1.5,0.9,2.2,2,2.7v4.6c-0.7-0.1-1.3-0.3-2-0.6l-0.1,1.3
		c0.7,0.3,1.4,0.4,2.1,0.5V78.5z M177.1,73.1c0.5,0.3,0.7,0.8,0.7,1.5c0,0.7-0.3,1.2-0.7,1.5V73.1z M175.7,67.7c0.2,0,0.4,0,0.6,0
		v3.6c-0.2-0.1-0.4-0.2-0.6-0.3V67.7z M175.7,72.3c0.2,0.1,0.4,0.2,0.6,0.3v3.9c-0.2,0-0.4,0.1-0.6,0.1V72.3z M174.1,69.2
		c0-0.6,0.3-1,0.7-1.2v2.6C174.3,70.2,174.1,69.8,174.1,69.2z"/>
</g>
</svg>
