<?xml version="1.0" encoding="utf-8"?>
<!-- Generator: Adobe Illustrator 26.0.3, SVG Export Plug-In . SVG Version: 6.00 Build 0)  -->
<svg version="1.0" id="Слой_1" xmlns="http://www.w3.org/2000/svg" xmlns:xlink="http://www.w3.org/1999/xlink" x="0px" y="0px"
	 viewBox="0 0 240 150.2" style="enable-background:new 0 0 240 150.2;" xml:space="preserve">
<g>
	<g>
		<rect x="88.3" y="110.6" width="4.3" height="0.4"/>
		<rect x="103.7" y="115.4" width="6.6" height="0.4"/>
		<rect x="98.4" y="120.5" width="11.9" height="0.4"/>
		<path d="M117.6,120.9l1.6,1.6c-0.2,0.3-0.1,0.6,0.1,0.9c0.3,0.3,0.8,0.3,1.1,0c0.3-0.3,0.3-0.8,0-1.1c-0.2-0.2-0.6-0.3-0.9-0.1
			l-1.7-1.7h-1.6v0.4C116.2,120.9,117.6,120.9,117.6,120.9z"/>
		<polygon points="82.3,115.8 83.5,115.8 83.5,115.4 82.2,115.4 		"/>
		<rect x="88.3" y="120.5" width="4.3" height="0.4"/>
		<rect x="88.3" y="115.4" width="4.3" height="0.4"/>
		<path d="M65,120.5l-4.7-4.7H73v-0.4h-4l4-4v-0.6l-4.6,4.6h-12c-0.1-0.3-0.4-0.5-0.7-0.5c-0.4,0-0.7,0.3-0.7,0.7
			c0,0.4,0.3,0.7,0.7,0.7c0.3,0,0.6-0.2,0.7-0.5h3.3l5,5H73v-0.4h-8V120.5z"/>
		<polygon points="83.5,111 83.5,110.6 80.1,110.6 80.3,111 		"/>
		<path d="M130,112.1l4.4,4.4h18.4l6-6h2.9l10,10h17c0.1,0.3,0.4,0.5,0.7,0.5c0.4,0,0.7-0.3,0.7-0.7c0-0.4-0.3-0.7-0.7-0.7
			c-0.3,0-0.6,0.2-0.7,0.5h-16.9l-9.6-9.6h14.1l6,6h33.8l5.8-5.8c0.3,0.2,0.6,0.1,0.9-0.1c0.3-0.3,0.3-0.8,0-1.1
			c-0.3-0.3-0.8-0.3-1.1,0c-0.2,0.2-0.3,0.6-0.1,0.9l-5.7,5.7h-29.4l4.7-4.7h15l9.6-9.6h9.6l1.2-1.2c0.3,0.2,0.6,0.1,0.9-0.1
			c0.3-0.3,0.3-0.8,0-1.1c-0.3-0.3-0.8-0.3-1.1,0c-0.2,0.2-0.3,0.6-0.1,0.9l-1,1h-9.6l-9.6,9.6h-15L186,116h-3.5l-3.4-3.4l4.5-4.5
			h14c0.1,0.3,0.4,0.5,0.7,0.5c0.4,0,0.7-0.3,0.7-0.7c0-0.4-0.3-0.7-0.7-0.7c-0.3,0-0.6,0.2-0.7,0.5h-14.2l-4.6,4.6l-2.3-2.3h-17.9
			l-6,6h-10.2l10.2-10.2h16.5l3.9-3.9c0.3,0.2,0.6,0.1,0.9-0.1c0.3-0.3,0.3-0.8,0-1.1c-0.3-0.3-0.8-0.3-1.1,0
			c-0.2,0.2-0.3,0.6-0.1,0.9l-3.8,3.8h-16.5L141.8,116h-7.3l-4.4-4.4h-14v0.4L130,112.1L130,112.1z"/>
		<polygon points="79.7,120.5 78.1,120.5 78.1,120.9 79.8,120.9 		"/>
		<polygon points="78.1,124.2 78.1,124.6 81.3,124.6 81.2,124.2 		"/>
		<path d="M56.5,124.2c-0.1-0.3-0.4-0.5-0.7-0.5c-0.4,0-0.7,0.3-0.7,0.7c0,0.4,0.3,0.7,0.7,0.7c0.3,0,0.6-0.2,0.7-0.5h16.6v-0.4
			C73.1,124.2,56.5,124.2,56.5,124.2z"/>
		<path d="M228,129.9c-0.3,0-0.6,0.2-0.7,0.5h-4.4l-6.8-6.8h-33.8l-6,6h-5.5l-10.3-10.3h-16.4c-0.1-0.3-0.4-0.5-0.7-0.5
			c-0.4,0-0.7,0.3-0.7,0.7c0,0.4,0.3,0.7,0.7,0.7c0.3,0,0.6-0.2,0.7-0.5h16.2l9.9,9.9h-11.5l-6-6h-18.4L130,128h-13.8v0.4h14
			l4.4-4.4h18.1l6,6h17.9l6-6H216l6.8,6.8h4.6c0.1,0.3,0.4,0.5,0.7,0.5c0.4,0,0.7-0.3,0.7-0.7C228.8,130.3,228.4,129.9,228,129.9z"
			/>
		<rect x="88.3" y="124.2" width="4.3" height="0.4"/>
		<rect x="98.4" y="124.2" width="11.9" height="0.4"/>
		<polygon points="88.3,120.9 88.3,120.5 88.3,115.8 88.3,115.4 88.3,111 88.3,110.6 88.3,103.7 83.5,103.7 83.5,110.6 83.5,111 
			83.5,115.4 83.5,115.8 83.5,118.6 82.3,115.8 82.2,115.4 80.3,111 80.1,110.6 77.2,103.7 73.1,103.7 73.1,110.8 73.1,111.4 
			73.1,115.4 73.1,115.8 73.1,120.5 73.1,120.9 73.1,124.2 73.1,124.6 73.1,132.3 78.1,132.3 78.1,124.6 78.1,124.2 78.1,120.9 
			78.1,120.5 78.1,116.5 79.7,120.5 79.8,120.9 81.2,124.2 81.3,124.6 84.4,132.3 88.3,132.3 88.3,124.6 88.3,124.2 		"/>
		<polygon points="98.4,120.9 98.4,120.5 98.4,119.4 103.7,119.4 103.7,115.8 103.7,115.4 103.7,115.4 98.4,115.4 98.4,107.7 
			104.7,107.7 104.7,103.7 92.6,103.7 92.6,110.6 92.6,111 92.6,115.4 92.6,115.8 92.6,120.5 92.6,120.9 92.6,124.2 92.6,124.6 
			92.6,132.3 98.4,132.3 98.4,124.6 98.4,124.2 		"/>
		<polygon points="116.1,120.9 116.1,120.5 116.1,112.1 116.1,111.7 116.1,108 120.5,108 120.5,103.7 105.9,103.7 105.9,108 
			110.3,108 110.3,115.4 110.3,115.8 110.3,120.5 110.3,120.9 110.3,124.2 110.3,124.6 110.3,132.3 116.1,132.3 116.1,128.4 
			116.1,128 		"/>
	</g>
</g>
<g>
	<path d="M73.5,97.9v2.3H73V97h0.6l0.5,1.9V97h0.5v3.2h-0.5L73.5,97.9z"/>
	<path d="M75.9,97.7c0-0.3,0.1-0.5,0.2-0.6s0.3-0.2,0.6-0.2c0.2,0,0.4,0.1,0.6,0.2s0.2,0.3,0.2,0.6v1.7c0,0.3-0.1,0.5-0.2,0.6
		s-0.3,0.2-0.6,0.2c-0.2,0-0.4-0.1-0.6-0.2c-0.1-0.1-0.2-0.3-0.2-0.6V97.7z M76.4,99.4c0,0.1,0,0.2,0.1,0.2c0,0,0.1,0.1,0.2,0.1
		s0.1,0,0.2-0.1c0,0,0.1-0.1,0.1-0.2v-1.7c0-0.1,0-0.2-0.1-0.2c0,0-0.1-0.1-0.2-0.1s-0.1,0-0.2,0.1s-0.1,0.1-0.1,0.2V99.4z"/>
	<path d="M79.1,97.9v2.3h-0.5V97h0.6l0.5,1.9V97h0.5v3.2h-0.5L79.1,97.9z"/>
	<path d="M83.7,98.4h0.7v0.5h-0.7v1.3h-0.5V97h1.3v0.5h-0.8V98.4z"/>
	<path d="M86.1,97v2.5c0,0.1,0,0.2,0.1,0.2c0,0,0.1,0.1,0.2,0.1s0.1,0,0.2-0.1c0,0,0.1-0.1,0.1-0.2V97h0.5v2.5
		c0,0.3-0.1,0.5-0.2,0.6s-0.3,0.2-0.6,0.2c-0.2,0-0.4-0.1-0.6-0.2c-0.1-0.1-0.2-0.3-0.2-0.6V97H86.1z"/>
	<path d="M88.9,97.9v2.3h-0.5V97H89l0.5,1.9V97H90v3.2h-0.5L88.9,97.9z"/>
	<path d="M92,98.4h0.7v1c0,0.3-0.1,0.5-0.2,0.6s-0.3,0.2-0.6,0.2c-0.2,0-0.4-0.1-0.6-0.2c-0.1-0.1-0.2-0.3-0.2-0.6v-1.7
		c0-0.3,0.1-0.5,0.2-0.6s0.3-0.2,0.6-0.2c0.2,0,0.4,0.1,0.6,0.2c0.1,0.1,0.2,0.3,0.2,0.6V98h-0.5v-0.3c0-0.1,0-0.2-0.1-0.2
		c0,0-0.1-0.1-0.2-0.1s-0.1,0-0.2,0.1s-0.1,0.1-0.1,0.2v1.7c0,0.1,0,0.2,0.1,0.2c0,0,0.1,0.1,0.2,0.1s0.1,0,0.2-0.1
		c0,0,0.1-0.1,0.1-0.2v-0.6H92V98.4z"/>
	<path d="M94,97h0.5v3.2H94V97z"/>
	<path d="M96.6,97c0.3,0,0.5,0.1,0.6,0.2s0.2,0.3,0.2,0.6v0.1c0,0.2,0,0.3-0.1,0.4s-0.1,0.2-0.2,0.2c0.1,0.1,0.2,0.1,0.3,0.3
		c0.1,0.1,0.1,0.3,0.1,0.4v0.3c0,0.2-0.1,0.4-0.2,0.6c-0.1,0.1-0.3,0.2-0.6,0.2h-0.8V97H96.6z M96.3,97.4v0.9h0.2
		c0.1,0,0.2,0,0.2-0.1c0.1,0,0.1-0.1,0.1-0.3v-0.2c0-0.1,0-0.2-0.1-0.3c0-0.1-0.1-0.1-0.2-0.1L96.3,97.4L96.3,97.4z M96.3,98.7v1
		h0.3c0.1,0,0.2,0,0.2-0.1c0,0,0.1-0.1,0.1-0.2v-0.3c0-0.2,0-0.3-0.1-0.3c-0.1-0.1-0.1-0.1-0.3-0.1H96.3z"/>
	<path d="M98.6,97h0.5v2.8h0.8v0.5h-1.3V97z"/>
	<path d="M101.6,98.3h0.7v0.5h-0.7v0.9h0.9v0.5h-1.4V97h1.4v0.5h-0.9V98.3z"/>
	<path d="M105.2,97h1.6v0.5h-0.5v2.8h-0.5v-2.8h-0.5L105.2,97L105.2,97z"/>
	<path d="M107.8,97.7c0-0.3,0.1-0.5,0.2-0.6s0.3-0.2,0.6-0.2c0.2,0,0.4,0.1,0.6,0.2s0.2,0.3,0.2,0.6v1.7c0,0.3-0.1,0.5-0.2,0.6
		s-0.3,0.2-0.6,0.2c-0.2,0-0.4-0.1-0.6-0.2c-0.1-0.1-0.2-0.3-0.2-0.6V97.7z M108.3,99.4c0,0.1,0,0.2,0.1,0.2c0,0,0.1,0.1,0.2,0.1
		s0.1,0,0.2-0.1c0,0,0.1-0.1,0.1-0.2v-1.7c0-0.1,0-0.2-0.1-0.2c0,0-0.1-0.1-0.2-0.1s-0.1,0-0.2,0.1s-0.1,0.1-0.1,0.2V99.4z"/>
	<path d="M111.3,98.9l-0.2,0.3v1h-0.5V97h0.5v1.4l0.7-1.4h0.5l-0.7,1.4l0.7,1.8h-0.5L111.3,98.9z"/>
	<path d="M113.9,98.3h0.7v0.5h-0.7v0.9h0.9v0.5h-1.4V97h1.4v0.5h-0.9V98.3z"/>
	<path d="M116.5,97.9v2.3H116V97h0.6l0.5,1.9V97h0.5v3.2h-0.5L116.5,97.9z"/>
	<path d="M118.9,97.7c0-0.3,0.1-0.5,0.2-0.6s0.3-0.2,0.6-0.2c0.2,0,0.4,0.1,0.6,0.2s0.2,0.3,0.2,0.6v0.1H120v-0.1
		c0-0.1,0-0.2-0.1-0.2s-0.1-0.1-0.2-0.1s-0.1,0-0.2,0.1s-0.1,0.1-0.1,0.2s0,0.2,0.1,0.3c0,0.1,0.1,0.2,0.2,0.2
		c0.1,0.1,0.2,0.2,0.2,0.2c0.1,0.1,0.2,0.2,0.2,0.2c0.1,0.1,0.1,0.2,0.2,0.3s0.1,0.2,0.1,0.4c0,0.3-0.1,0.5-0.2,0.6
		s-0.3,0.2-0.6,0.2c-0.2,0-0.4-0.1-0.6-0.2c-0.1-0.1-0.2-0.3-0.2-0.6v-0.2h0.5v0.2c0,0.1,0,0.2,0.1,0.2c0,0,0.1,0.1,0.2,0.1
		s0.1,0,0.2-0.1c0,0,0.1-0.1,0.1-0.2s0-0.2-0.1-0.3s-0.1-0.2-0.2-0.2c-0.1-0.1-0.2-0.2-0.2-0.2c-0.1-0.1-0.2-0.2-0.2-0.2
		c-0.1-0.1-0.1-0.2-0.2-0.3C118.9,98,118.9,97.9,118.9,97.7z"/>
</g>
</svg>
