<?xml version="1.0" encoding="utf-8"?>
<!-- Generator: Adobe Illustrator 26.0.3, SVG Export Plug-In . SVG Version: 6.00 Build 0)  -->
<svg version="1.0" id="Слой_1" xmlns="http://www.w3.org/2000/svg" xmlns:xlink="http://www.w3.org/1999/xlink" x="0px" y="0px"
	 viewBox="0 0 238.1 150.2" style="enable-background:new 0 0 238.1 150.2;" xml:space="preserve">
<g>
	<path d="M127.2,32c1.3,0.8,2.6,1.4,4,1.9c0.6-0.3,1-0.8,1.2-1.3c1.2-2.5,2.8-4.9,4-7.4c0.3-0.5-0.1-0.7-0.6-0.6
		c-0.3,0.1-0.6,0.1-0.9-0.1c-2.1-0.4-4.2-1.5-5.4-3.3c-0.9-1.1-0.6-2.6-0.6-4c-0.1-0.2-0.1-0.5,0.1-0.7c0.1-1,0.6-1.8,0.9-2.8
		c-3.4,1.6-6.6,3.7-10.1,4.9v0.3c1.1-0.4,2.1-0.9,3.3-1c0.2-0.3,0.5-0.4,0.8-0.4c0.6-0.5,1.4-0.7,2.1-0.9c0.9-0.5,1.7-1.2,2.7-1.5
		c-1,2-1,4.4-0.2,6.5c-1.1-0.7-0.8-2.4-1.1-3.5c-0.2-2.5-0.1,1.9-1.3,0.7c-0.8-0.7,1.1-2.2-0.1-2.1c-0.5,0.6-1.4,0.7-2.1,0.9
		c-0.2,0.3-0.5,0.4-0.8,0.4c-0.9,0.6-2.1,0.5-2.8,1.5c0.5,0.5,1.5,0.8,1.4,1.6c-0.2,0.8-1.2-0.4-1.6-0.2c-0.4,1.4,0.6,2.6,0.9,3.9
		c-0.5-0.4-0.8-1.1-1.2-1.6v1.7C121.7,27.7,123.9,30.5,127.2,32z M123,27.6c-0.5-0.7-1.3-1.4-1.5-2.3C121.9,26,123.4,26.7,123,27.6z
		 M120.4,21.5c0.7,0.1,1.4,0.4,1.8-0.4c0.3-1-0.5-1.4-0.9-2c1.6-0.3,3-1.2,4.6-1.6c-0.1,0.4-0.1,0.7-0.2,1.1c0.2,0.8,1,0.8,1.6,0.3
		c-0.2,1.1,0.6,2,0.7,3.1c-0.6,0.6-1.7-0.5-2.3,0.3c-0.7,0.5,0.1,1.2,0.4,1.6c-0.5,0.5-0.9,1.2-1.5,1.4c-0.4-0.3-0.4-0.9-0.7-1.2
		c-0.5,0.9,0.8,2.2-0.5,2.6C121.9,25.4,121,23.4,120.4,21.5z M125.9,26.7c0.4-0.6,0.8-1.1,1.2-1.7c0.6,0,1.1,1,0.6,1.5
		C127.3,27,126.4,27.1,125.9,26.7z M126.3,24.3c1.2,0.2-0.6,1.4-0.9,2C124.3,25.9,125.9,24.9,126.3,24.3z M126.3,22.4
		c0.5-0.3,1.2,0.4,0.5,0.7C126.3,24.2,125.4,22.8,126.3,22.4z M126.8,23.6c0.2-0.2,0.6-0.5,0.8-0.7
		C128.3,23.4,126.5,24.8,126.8,23.6z M124.4,26.7c0.4,0,0.4,0.5,0.1,0.7c-0.9,0.6-0.1,1.1,0.5,1.6c0.8,0.6,1.6,1.1,2.4,1.6
		c0.8,0.4,1.7,0.8,2.4,1.3c1-0.1,0.1-1.4,0.3-1.9c0.8,0,0.3,1.5,1,1.8c1.4-1.1,1.5-3.1,2.4-4.5c0.9-1.9-2.5,0.3-2.7-1.4
		c0.1-0.5,0.9-0.6,1.3-0.3c0.3,0,0.5-0.1,0.8-0.2c-0.8-0.4-1.6-0.9-2.1-1.6c-1.5-0.5,0.3,0.8,0.9,1.1c-0.6,0-1.1,0.3-1.3,0.9
		c0.5,1.3,1.9,1.2,3,0.9c-0.9,1.3-1.4,2.8-2.1,4.3c-0.3-0.7,0.1-2.3-1.2-1.7c-0.9,0.2-0.7,1.2-0.6,1.8c-1.5-0.8-3.1-1.4-4.5-2.4
		c-0.2-0.2-0.7-0.4-0.7-0.8c0.3-0.3,0.6-0.7,1-0.5c0.4,0.1,0.5,0,1,0s1,0,1.4-0.5c0.5-0.6,0.9-1.6,0-2.1c-1-0.3,0.4-1.9,0.5-0.7
		c0.6,0.7,0.1-1.1,0.2-1.3c0.5,0.1,0.4-0.2,0.5-0.6c0.4,0.6,1.3,0.8,1.7,1.4c1.4,1.2,3.2,1.6,5,1.4c-0.5,0.4-0.2,1.2-0.8,1.3
		c-1,1.9-2.3,3.6-3,5.6c-0.1,0.4-0.5,1.1-1,0.7c-0.4-0.4-1.4,0-1.6-0.6c-0.9-0.4-1.7-0.7-2.5-1.1c-1.5-0.8-2.8-1.9-3.8-3.3
		C123.9,27.7,123.8,26.9,124.4,26.7z"/>
	<path d="M179.1,19.2c0.3-0.1,0.5-0.1,0.8-0.1c0.5-0.5,1-1.1,1.6-1.6c0.1-0.8-1.1-1.1-1.5-1.7c-1.1,1-2.1,2.1-3.2,3.1
		C177.1,20.1,178.4,19.3,179.1,19.2z"/>
	<path d="M188.1,21c0.6-0.3,1.2-0.8,1.6-1.4c-0.7-1-1.5-1.9-2.2-3c-0.1-0.3-0.5-0.3-0.7-0.2c-0.5,0.6-1.4,1-1.8,1.7
		C185.9,19.2,186.6,20.7,188.1,21z"/>
	<path d="M193.2,29.2c0.5-0.1,0.9-0.1,1.4-0.1c1.1,0.1,2.5-1.3,1.6-2.2c-0.7-1.1-2.5-0.4-3.1,0.6C192.7,28,191.8,29.7,193.2,29.2z
		 M193.5,27.8c0.6-0.5,1.5-1.3,2.2-0.5c0.4,0.8-0.5,1.4-1.2,1.3c-0.2,0-0.7,0.1-1,0.1C192.7,29,193.3,28.1,193.5,27.8z"/>
	<path d="M129.7,59.5c1.8-3.9,4.7-7.3,8.1-10c-1.2-1.7-2.8-3-4.2-4.5c-0.4-0.7-1-1.2-1.8-1.6c-0.9,0-1.5,0.7-2.2,1.1
		c-2.6,1.9-4.9,4.2-6.9,6.8c-0.5,0.9-1.1,1.7-1.6,2.5c-0.6,0.9-1.4,2.7,0,3.3c2.5,1.1,4.7,2.6,7.3,3.4
		C129.3,61.1,129.4,60.1,129.7,59.5z M121.1,56.5c0.7-2.5,2.2-4.8,3.9-6.7c1.6-1.8,3.5-3.3,5.5-4.6c0.5-0.2,1.1-0.8,1.6-0.4
		c0.2,0,0.6,0.1,0.4,0.3c1.5,1.4,3.2,2.8,4.4,4.5c-1.6,1.3-3.4,2.4-4.5,4.2c-0.4,0.3-0.5,1-1.1,1c0-0.3,1-1.1,0.3-1
		c0,0.4-0.6,0.3-0.6,0c0.4-0.5,0.5-1.2,0.8-1.8c-0.2-1.7-2.3-1.8-3.4-0.9c-0.4-0.1-0.9-0.7-1.2-1.1c0.2-0.7,1.1-0.5,1.4-1
		c-0.8,0-1.4,0.7-2.2,0.6c0.1,0.4-0.5,1-1,1c0.4,0.3-0.1,0.7-0.2,1c-0.1,0.5,0.4,1,0.7,1.3c1.4-0.5,2.2,0.9,3.1,1.7
		c-0.5,0.3-2.2,0.5-1.2,1.2c0.6-0.2,1.3-0.6,2-0.6c-0.2-0.5,0.9-1.5,1.1-0.7c-0.7,0.9-1.6,1.8-1.9,2.9c-0.5-0.4-0.6-1.4-1.5-1.2
		c-0.3,0.2-0.4,0.6-0.5,0.9c0.3,0.4,0.3,1.7-0.1,1.1c-1.2-0.7-2.6-1.2-3.7-1.9c0.7-0.5,1.9-0.9,1.5-2.1c-0.6-0.5-1.3-0.2-1.9,0
		c0.6-1.4,1.4-2.6,2.3-3.8c0.1,0,0.2,0.1,0.3,0.2c0-0.4,0-0.9-0.5-0.8c-0.8,2.1-3,3.7-3.3,6.1c0.7,0,0.8-1,1.4-1.2
		c0.5-0.3,1.6-0.7,1.6,0.2c-0.4,0.8-1.3,1.1-2.1,1.4c1.1,1.1,2.8,1.6,4.2,2.5c1.8,0.7,0-1.9,1.1-2.2c0.8,0.4,0.5,1.6,0.7,2.3
		c0.8-0.6,0.8-1.9,1.7-2.5c-0.5,1.1-1.1,2.2-1.6,3.3c-1.4,0.1-2.6-0.7-3.8-1.3C123.8,57.6,122.3,57.3,121.1,56.5z M125.9,51.5
		c0.4-0.4,0.4-1,0.9-1.4c0.7,0,1.6,1.3,0.7,1.7c-0.3,0.5-0.8-0.6-0.9-0.1C127.1,52.5,125.5,52.2,125.9,51.5z M128.4,51.9
		c0.5,0.6,2.8,1.9,1.1,2.4C128.8,53.9,126.7,52.5,128.4,51.9z M129,51.7c-0.5-0.4,0.4-0.6,0.8-0.6c1.5-0.7,1.6,1.3,1.1,2.1
		C130,53.3,129.8,52,129,51.7z"/>
	<path d="M130.3,46.1c-0.4,1,0.9,2,1.7,1c0-0.4,0.1-0.9,0.2-1.3c-0.1,0.1-0.2,0.2-0.4,0.3c-0.1,0.5-0.4,1.1-1,1
		c-0.1-0.5-0.2-1-0.1-1.6c-1.3,0.5-2.4,1.5-3.4,2.4c-0.3,0.4-1.4,0.9-0.7,1.5C127.3,48,128.9,47,130.3,46.1z"/>
	<path d="M132.1,49.8c0.3,0.8,1.3,1,2.1,0.9c-0.8,0.5-1.6,1-2.1,1.7c0,0.3-0.3,1.4,0.2,0.8c0.7-1.3,2.2-2,2.9-3.3
		c-0.8,0-1.9,0.7-2.6,0.1c-0.3-1.7,2.3-0.7,2.9-1.3c-0.9-1.1-2.2-2-3.2-3.1c0,0-0.1,0.1-0.1,0.2c0.5,1.3,1.7,2.1,2.7,3
		c-0.5-0.1-1-0.1-1.6-0.2C132.8,48.8,132,49,132.1,49.8z"/>
	<path d="M137.7,73c-0.1-0.5-0.2-1.1-0.2-1.6v-0.2c-0.1-2.3,0.2-4.6-0.1-6.8c0-0.3-0.1-0.6-0.1-0.8c-0.3,0.1-0.7,0.1-1,0
		c-2,0.1-4,0.2-6,0.3c-0.2,0.2-0.6,0.2-0.9,0.1c-0.4,0.2-1,0-1.4,0.4c-0.4,0.5,0,1.3,0,2c0,0.1,0,0.2,0,0.3c-0.2,1.5-0.2,2.9,0,4.4
		c0,0.3,0.1,0.5,0.1,0.8c0,0.7-0.1,1.5,0.1,2.2c0,0.1,0,0.2,0.1,0.3c-0.1,0.2-0.1,0.5,0.1,0.7c0,0.1,0,0.2,0.1,0.3
		c-0.1,0.2-0.1,0.6,0.1,0.7c0,0.1,0,0.2,0.1,0.3c-0.1,0.2-0.1,0.5,0.1,0.7c0.5,1.8,0.8,3.8,1.6,5.5c0.4,1.1,1.6,0,2.3-0.1
		c2.2-1.3,4.7-2,7-3c-0.6-1.6-1.2-3.1-1.6-4.7c-0.1-0.2-0.1-0.5-0.1-0.7C137.9,73.5,137.9,73.2,137.7,73z M136.5,73.4
		c-0.1-1.3-0.3,0.7-1.1,0.2c-0.6-1.2,0.6-0.7,1.1-1.1C137.3,71.9,137.2,73.8,136.5,73.4z M136.1,78.5c-1,0.2-2,0.7-3,1.2
		c-1.3,0.8,0-1.3-0.7-2c-0.4-0.8-1.3-0.2-1.8,0.3c-0.1-1.1-0.6-2.1-0.7-3.1c0.7,1.2,2.5,1.1,2.5-0.2c0.8-0.1,1.8-0.2,2.6-0.5
		c0.2,0.7-0.6,1.1-0.5,1.7c0.9-0.2,0.5-2.1,1.7-1.7c0.1,0.8,0.5,1.5,0.6,2.2c-0.1,0-0.3-0.1-0.3-0.2c-0.5-0.3-1.4-0.3-1.6,0.4
		C134.8,77.5,135.5,78,136.1,78.5z M130,73c0.9-0.6,2,0.4,1.3,1.2C130.2,74.7,130.1,73.8,130,73z M133.9,72.9
		c0.8-0.5,1.2,0.1,1.1,0.8c-1,0.1-3,0.9-2.9-0.6C132.6,73,133.5,73,133.9,72.9z M133.7,72.2c-0.8,0.1-1.8,0.2-1.6-0.9
		c0.5-1.2,1.8-0.1,2.4,0.6C134.7,72.4,133.9,72.1,133.7,72.2z M128.7,68.6c0-1.4-0.3-2.8-0.2-4.2c2.6-0.5,5.2,0.4,7.8-0.3
		c0.4,0.5-0.5,2.2,0.3,1.8c0,2-0.1,4,0.2,6c-0.3,0-0.6,0-0.9,0c-1.3,0.2-1.4-1.8-2.8-1.9c-1.4-0.6-2.2,1.3-1.9,2.4
		c-1.3,0.5-0.9-0.4-0.8-1c-0.7-0.1-0.3,0.9-0.8,1.1c0-1.7,0-3.4-0.4-5c1.4,0.7,1.4-1.2,0.9-2.1c1.3-0.3,2.7,0,4.1-0.2
		c-0.2,0.5-0.7,1-0.3,1.5c0.3,0.9,1.3,0.4,1.9,0.2c0,1.5,0,3,0.4,4.4c0.5-1.9,0.1-4.1-0.4-5.8c-0.1,0.3-0.4,1.9-1.3,1.5
		c-0.2-0.8,0.5-1.5,0.5-2.2c-1.8-0.1-3.6,0.2-5.4,0.4c0.2,0.7,0.7,1.3,0.5,2c-0.8,0.2-0.8-0.7-1.2-1.1c0,0.5,0,1.5,0,2
		c0.2,0.2,0.3,0.6,0.1,1.1c0,0.1,0,0.3,0,0.4c0.2,0.2,0.5,3.3-0.1,2.8c0-0.3,0-0.9-0.1-1.3C128.5,70.6,128.7,69.4,128.7,68.6z
		 M128.9,73c0.5,0,1.3,1.5,0.3,1.2C128.9,73.9,129,73.4,128.9,73z M138.5,78.7c0.1,0.3-0.4,0.2-0.5,0.3c-0.8,0.8-2.3,0.9-3.3,1.5
		c-1.1,0.5-2.1,1.2-3.3,1.5c0-0.1,0.1-0.3,0.1-0.4c-0.3,0-0.6-0.1-0.8-0.4c-0.8-2.1-1.2-4.3-1.3-6.5c0.8,1.6,0.3,4,1.3,5.7
		c0.3,0.4,0.2-0.2,0.3-0.4c-0.1-0.7-0.2-2.2,0.7-2.3c0.7,0.8,0.2,2,0.2,2.9c0.5-0.2,0.9-0.5,1.4-0.7c1-0.4,2-0.8,3.1-1.1
		c0-0.7-0.9-0.9-1-1.6c-0.6-1,0.4-1.1,0.9-0.8c0.3,0.6,0.9,1.1,0.9,1.7c0.2-0.1,0.2-0.3,0.3-0.5c-0.3-0.8-0.3-1.7-0.6-2.5
		c-0.1-0.4-0.6-1,0-1.3C137.4,75.5,137.8,77.2,138.5,78.7z"/>
	<path d="M188.1,93.5c-0.5,2.8-1,5.6-1.5,8.4c-0.1,0.4-0.1,0.8-0.2,1.2c-0.2,0.8-0.2,1.6-0.1,2.5c-0.2,1.2-0.4,2.5-0.4,3.7
		c-0.1,0.5-0.1,1.1-0.1,1.6c-0.2,1.1-0.3,2.2-0.4,3.4c-0.1,0.5-0.1,1-0.1,1.5c0,0.1,0,0.3,0,0.4c-0.1,0.5-0.1,1-0.1,1.5
		c-0.2,1.6-0.6,3.1-0.6,4.7v0.1c-0.1,0.4-0.1,0.9-0.2,1.4c-0.4,0.3-0.9,0.5-1.4,0.8c-0.5,0.2-0.7,0.7-1,1.1c0.4-0.1,0.8-0.2,1.2-0.3
		c2.1-0.9,4.4-1.4,6.6-1.5c1.5,0.1,2.9,0.1,4.4,0c2.4,0.2,4.8,0.8,7.1,1.8c0.8,0.4,1.5,0.9,2.2,1.4c0.5,0.2,0.9,0.6,1.2,1
		c-0.5-0.2-0.9-0.6-1.4-0.9c-0.5-0.2-1.1-0.4-1.7-0.6c-0.4-0.1-0.8-0.2-1.3-0.2c-0.7-0.1-0.8,0.1-0.1,0.3c0.2,0,0.4,0.1,0.6,0.1
		c1.2,0.6,2.8,0.9,3.6,2.1c0.6,0.1,1-0.4,1.2-0.8v-0.1c-2.3-3.3-6.6-4.4-10.4-5.1c-0.3-0.2-0.6-0.2-0.9-0.1h-0.1
		c-0.2-0.1-0.4-0.2-0.6-0.2c-0.6,0-1.1,0.1-1.7,0.1c-0.1,0-0.3,0-0.4-0.1c-0.9-0.2-1.9-0.2-2.8,0c-0.9,0.2-1.8,0.4-2.7,0.6
		c-0.2-0.8-0.2-1.6-0.2-2.4L187,109c0-0.3,0.1-0.6,0.1-0.8c0-0.3,0.1-0.8,0.1-1.1c0-0.2,0-0.4,0.1-0.6c0,0,3-18.9,3.1-19.6
		s0.1-1,0.1-1.5c0-0.3,0-0.9,0.3-0.4c0,0,3.5,3.8,5.1,18.2c0,0.4,0,0.5,0.1,0.7c0,0.2,0.1,0.4,0.1,0.6c1.1,4.5,1.5,9.4,3.9,13.6
		c2,3.7,4.3,7.3,8,9.4l0.3,0.1c0.2-0.2,0.4-0.5,0.5-0.7c-3.5-2.4-5.5-6.2-7.9-9.7c-1.9-3.4-2.7-7.3-3.6-11.1l-1.4-9.5
		c-0.2-1.1-0.5-2.2-0.7-3.4c-0.9-2.9-1.5-5.9-3.2-8.5c-0.5-0.7-1.1-1.4-1.2-2.4c0.2-0.5,0.2-0.9-0.1-1.3c0-0.3-0.2-0.6-0.6-0.7
		c0.1,1-0.3,2-0.4,2.9c0,0.4,0,0.6-0.1,0.9c-0.1,0.4-0.2,0.7-0.3,1.1s-0.1,0.8-0.2,1.1L188.1,93.5z"/>
	<path d="M144.7,92c0.2-0.1,0.6-0.2,0.7,0.1c0.2,0,0.4,0,0.7,0.1c0.3-0.1,0.6-0.1,0.9,0.1c0.2,0,0.4,0,0.6,0.1c0.7,0.1,1.3,0.2,2,0
		c0.1,0,0.2,0,0.3-0.1c0.2-0.3,0.5-0.2,0.7-0.1c3.8-0.4,6.4-3.2,9.6-4.9c0.3-0.4,1.2-0.5,1-1.1c-1.8-1.6-3.2-3.5-4.5-5.5
		c-1-0.1-1.6,1.3-2.4,1.7c-2.3,1.8-5.1,3.8-8.3,2.9c-0.5-0.1-1-0.2-1.5-0.3c-1-0.3-2-0.8-2.9-1.3c0.5,1.5,1,2.9,1.4,4.4
		C143.5,89.3,143.3,91.4,144.7,92z M150.9,87.7c-0.5,0.4-1.1-0.9-0.3-0.9C151.3,86.4,151.8,87.7,150.9,87.7z M151.3,88.2
		c0.9-0.2,0.9,1.3,1.3,1.8C151.7,90.9,150.4,88.5,151.3,88.2z M152.3,87.8c1-0.5,2.6,0.6,1.6,1.6C153,90.7,152.3,88.7,152.3,87.8z
		 M156.3,81.7c0.5,0.2,0.9,1,1.4,1.5c0.8,0.8,1.7,1.8,2.6,2.7c-1,1.6-2.8,2.4-4.3,3.4c-0.8,0.3-1.9,1.4-2.6,0.9
		c1.2-0.3,2-2.4,0.6-2.9c-0.6-0.2-2.7,0.3-2.1-0.9c0.3,0.1,1.4,0.1,1-0.3c-0.7-0.1-1.8,0.1-1.8-0.9C153.2,84.7,155,83.4,156.3,81.7z
		 M150.5,85.5c0.3,0.1,0.4,0.4,0.5,0.7C150,86.9,149.4,86,150.5,85.5z M149.3,88.2c-0.5-0.1,0.1-0.8,0.4-1
		C150,87.3,150.8,89,149.3,88.2z M142.6,84.9c1.4,0.5,2.9,1.1,4.4,1.3c0.6,0.1,1.3,0.1,1.9,0.1c1.3,0-0.3,0.8-0.3,1.4
		c-0.4,0.9,1,1.3,1.7,1c0.3,0.5,1.2,2-0.3,1.4c-0.3-0.1-1.6-0.6-0.7,0c0.7,0.5,1.8,0.2,2.2,1c-0.3,0.1-0.7,0.2-1,0.2s-0.5,0-0.8,0
		c-0.7,0-1.4,0-2.1,0c-0.4,0-0.9,0-1.3,0c-1,0.3-1.1-0.5-1.7-0.9c-0.6-0.7-0.8-1.7-1-2.6C143.3,86.8,142.8,85.9,142.6,84.9z"/>
	<path d="M155.6,84.1c0.1,0.8,1.1,2,1.7,0.9c0.3-0.9,0.9,0.1,1.2,0.5c0.5,0.8-1.5-0.2-1.5,0.7c0,0.6,0.8,0.8,1.2,0.9
		c-0.9,0.6-2.1,0.9-2.8,1.8c0.1,0,0.2,0,0.3,0c1.1-0.8,2.5-1.4,3.5-2.2c-0.2-0.4-1.7,0.3-1.7-0.7c0.6-0.1,1.2,0,1.7-0.4
		c-0.6-0.8-1.2-1.5-1.9-2.2c-0.8-0.5,0.2,0.8-0.2,1.2c-0.6,1.1-1.1-0.9-1.4-1.4c-0.9,1.1-1.9,2-2.9,3
		C154.1,85.9,154.8,84.8,155.6,84.1z"/>
	<path d="M145.2,89.6c-0.6-0.5-0.7-1.4-1-2.1c0.5-0.2,1.3,0,1.2-0.7c0.4-0.5,2.3,0.8,2.4-0.2c-1.2,0-2.3-0.3-3.5-0.7
		c0.1,0.4,0.4,0.7,0.5,1c-0.4,0.4-0.8,0-1.2-0.1c0.1,0.3,0.1,0.6,0.2,1c0.4,0.7,0.6,1.5,1,2.2C145,89.8,145.1,89.7,145.2,89.6z"/>
	<path d="M145.5,90.6c1.1-0.1,2.9,1.3,3.7,0c-1-0.1-2.3,0.2-3.1-0.3c0.7-0.9-0.7-1.5-1-0.7C146.2,89,146,90,145.5,90.6z"/>
	<path d="M129,102c0.2,0,0.7-0.1,1-0.1c5-0.9,7.8-6,8.5-10.7c-0.3,0-0.8-0.1-1.1-0.1c-1.9,0.6-4.3,0.8-6,1.6c-0.5,0.4,0,1.8-0.1,2.5
		c-0.2,1.4-0.5,2.9-1.3,4.2c-2.2-1.3-1.7-4.3-3-6.2c-0.3,0-0.8,0-1.1,0c-1.6,0.2-3.2,0.7-4.9,0.9C121.1,98.1,124.7,102.5,129,102z
		 M132.1,93.1c1.8-0.5,3.6-0.8,5.4-0.9c0,1.1-0.5,2.1-0.9,3.1c-0.1-0.6,0-1.2,0.1-1.8c-0.4,0.2-0.7,0.7-1.2,0.5
		c-0.6-0.5,0.5-0.8,0.5-1.4c-1.1,0.2-2.2,0.3-3.3,0.7c0.5,0.5,0.9,1.2,0,1.5c-0.6-0.6-0.9-0.5-0.9,0.4c0-0.1-0.1-0.2-0.1-0.2
		C131.8,94.5,131.1,93.2,132.1,93.1z M131.8,96.3c0.2-0.4,0-1.5,0.8-1.2c0.9,0.2,1.1-1.1,0.6-1.6c0.6,0.2,1.2-0.1,1.8-0.3
		c0.1,0.5,0,1.7,0.8,1.3c0.6-0.5,0.3,0.1,0.3,0.5c-0.5,0.9-1,1.8-1.6,2.7c-0.2,0.7-0.7,1.2-1.2,1.7c-0.8,0.8-1.9,0.6-2.6-0.2
		C131.3,98.4,131.6,97.3,131.8,96.3z M131.5,100.2c-0.5,0.1-0.8-0.3-1.1-0.7C130.8,99.6,131.2,99.9,131.5,100.2z M126.4,93.6
		c0.6,0.6,0.5,1.7,0.7,2.6c-0.2,1.1-1-3-0.9-0.4c0.1,0.6-0.8,0.4-1,0c-0.2-0.6,0.6-0.9,0.5-1.5c-1.1,0-2.1,0.3-3.1,0.4
		c0.1,0.6,1,0.8,0.9,1.5c-0.3,0-0.7-0.2-1,0c0.1,0.5,0.4,1,0.6,1.5c-0.7-0.7-1.2-2-1.3-3.1C123.2,94,124.9,94,126.4,93.6z
		 M124.1,98.6c-0.3-0.7-0.7-1.3-1-2c0.8,0.1,1.2-0.7,0.7-1.3c-0.6-0.8,1-0.6,1.3-0.7c0,0.7-0.2,1.4,0.4,1.9c0.5,0.2,0.8-0.3,1.1-0.6
		c0.2,0.6,0.4,1.2,0.7,1.7c0.1,0.2,0.2,0.4,0.4,0.7c0.2,0.5,1.3,2.1,1.4,1.4c0.5,0.5,1.4,0.7,1.6,1.4c-0.9,0.4-1.5-0.7-2.4-0.3
		C126.5,101.8,124.7,100.1,124.1,98.6z"/>
	<path d="M142.7,102.6c-0.1,0-0.2,0-0.3,0C142.5,102.6,142.6,102.6,142.7,102.6z"/>
	<path d="M144.3,98c0.9,1,1.7-0.6,1.3-1.4c0.7,0.3,1.3,0.8,2,0.9c0.8,0.3-0.6,0.6-0.6,1.1c-0.5,1.4,1.2,1.1,1.8,0.6
		c-0.5,0.9-0.6,2-0.7,3c0.1,0.2,0.2,0.3,0.4,0.5c0.3-1.3,0.2-2.7,0.8-4c-0.1-1.2-1,0.7-1.7,0.5c-0.1-0.9,1.2-1,1.2-1.9
		c-1.3-0.4-2.6-0.9-3.8-1.6c0.2,0.8,0.6,1.7,0,2.4c-0.9-0.1-0.6-1.3-0.7-1.9c-1,1.6-1.5,3.5-1.9,5.4c0.5-0.7,0.6-1.5,1-2.2
		C143.8,98.7,144,95.9,144.3,98z"/>
	<path d="M141.3,104.1c0,0.2,0,0.4,0,0.6c0.5,2,0.5,4.3,1.6,6.2c0.8,0,1.5,0,2.3,0.1c0.3,0,0.7-0.1,1-0.1s0.8-0.1,1-0.1
		c1.3,0,2.5,0,3.8,0c-0.3-1.3-0.8-2.5-0.9-3.8c0.1-0.2,0.1-0.5-0.1-0.7c-0.3-1.2-0.5-2.5-0.4-3.8c-0.1-0.3-0.1-0.6,0.1-0.9
		c0.2-1.3,0.5-2.6,1-3.8c0.3-0.5-0.5-0.8-0.8-1c-1.8-0.6-3.5-1.2-5.2-2c-0.2,0-0.5-0.2-0.6,0c-1.5,2.3-2.3,4.9-2.6,7.6
		C141.3,103,141.3,103.5,141.3,104.1z M141.9,104.6c0.1,0,0.2,0,0.3,0c-0.4,1.4,0.1,2.7,0.2,4C141.6,107.5,142.1,105.8,141.9,104.6z
		 M150,109.7c-2.2,1-4.7,0.8-7,0.5c-0.5-1,0.4-1.7,0.1-2.7c-0.1,0.2-0.1,1-0.3,0.5c-0.2-1.1-0.3-2.3-0.3-3.4c1-0.5,0.9,0.6,1.5,0.9
		c0.6,0.7,1.6-0.2,1.7-0.9c0.5,0,1,0,1.5,0c0.2,0.6-0.4,1-0.5,1.5c0.6,0.1,1-0.4,1.3-0.8c-0.2,0.4,0.5,1.9-0.2,1.8
		c-1.2-0.5-1.3,1-1.1,1.8c-1-0.2-1.8,0.4-2.7,0.6c0.2-0.8,0.6-1.8-0.1-2.4c-0.3-0.5-0.6,0.2-0.7,0.5c1.2-1,0.6,1.5,0.6,2.1
		c1.4,0.1,2.9-0.2,4.3,0.2c0.1-0.9-1.3-1.2-0.9-2.2c0.9-0.1,1.1,1,1.4,1.5c0.5,0.2,0.3-0.3,0.2-0.6c-0.3-1-0.5-2.1-0.5-3.2
		c0-0.4-0.6-1.3,0.7-0.7C149.2,106.3,149.3,108.1,150,109.7z M143.9,103c0.6,0,1.4,0.3,1.2,1C144.2,104.6,143.4,103.6,143.9,103z
		 M144.9,104.8c-0.2,0.2-0.9,0.3-0.7-0.2C144.4,104.6,145.3,104.4,144.9,104.8z M147.4,104.2c-0.8-0.1-2.6,0.6-1.9-1
		C146.3,103.3,147.9,102.9,147.4,104.2z M146,101.7c0.8-0.3,1.5,0.6,1.3,1.3C146.5,102.7,144.9,102.7,146,101.7z M148.2,103.4
		c0.2-0.1,0.5-0.1,0.7-0.2C150.2,104,147.3,105.1,148.2,103.4z M141.9,102.8c0.2-0.1,0.3-0.2,0.5-0.2c-0.1,0-0.3-0.1-0.4-0.1
		c0.6-2.4,0.8-5.1,2.2-7.2c2.1,0.6,4.2,1.4,6.1,2.4c-0.6,1.6-1.2,3.3-1.2,5.1c-0.6,0.8-1.3,0-1.1-0.7c-0.6-0.6-1.2-1.9-2.3-1.3
		c-1,0.3-0.4,2.4-1.6,1.8c-0.7-0.3,0-1.1,0-1.6c-1,0.1-0.6,1.6-1.4,1.7c0.8,0.2,0.8,1.9-0.4,1.4C141.6,104.2,142,103.3,141.9,102.8z
		"/>
	<path d="M134.2,115.1c0-0.6,0-1.2,0-1.8c0-1.7,1.3-3,1.6-4.6c-2.5-0.9-4.6-2.8-7.1-3.8c-0.9-0.1-0.4,1.1-0.5,1.7
		c0.3,0.2,0.2,0.6,0.1,0.9c0,0.1,0.1,0.4,0.1,0.5c0.2,0.2,0.2,0.6,0.1,0.9c0.5,3.5,1.3,7.6,4.7,9.5c-0.1,0.3-0.1,0.6,0.1,0.9
		c0.5,1.8,1.3,3.5,2.6,4.8c1,0.9,2,1.9,3.3,2.3c0.2-0.1,0.6-0.1,0.7,0.1c0.8-0.2,2.3,0.4,2.7-0.7c0.8-2,1.8-3.8,2.4-5.9
		c-1,0.4-2.1,0.4-3.1,0.3c-0.2,0.1-0.5,0.1-0.7-0.1C138.3,119.7,134.8,118.3,134.2,115.1z M133.1,115.9c-0.5-0.6-0.3-1.8-0.3-2.6
		c0-0.1-0.2-0.3-0.2-0.4c-0.6,1.5,0.5,2.9,0.3,4.3c-2.5-1.6-2.5-4.9-3.1-7.4c1.1,0.3,1.6-1.1,1-1.9c-0.2-0.5,0.4,0,0.6,0.1
		c-0.3-0.4-0.7-0.8-1.2-0.9c0.1,0.7,0.4,1.3,0.5,1.9c-0.1,0.5-0.5,0.6-0.8,0.2c-0.3-0.3,0-1.1-0.5-1c0.2,2.6-0.7-0.1-0.4-1
		c-0.6-1.3,0.7-1.1,1.2-0.7c1.1,0.9,2.7,1.1,3.5,2c0.5,0,1,1.1,0.7,1.4C134,111.9,133.2,113.8,133.1,115.9z M143.9,120.9
		c0.5-0.2,0.3,0.5,0.2,0.7c-0.7,1.5-1.5,3-2.5,4.4c-2.5,0.2-4.6-1.6-6-3.6c-1.1-1.5-1.8-3.6-1.5-5.5c-0.4-1.3,0.9,0.7,0.9,1.2
		c1,0.9,2.6,1.5,3.5,2.3C140.2,120.8,142,121,143.9,120.9z"/>
	<path d="M133,109.3c-1.1-0.2-1.9,1.3-0.8,1.9c0.5-0.1,1.2-0.2,1.4-0.8c-0.5,0.5-1.8,0.7-1.6-0.3c0.3-0.9,1.8-0.2,1.8-0.9
		c-0.7-0.6-1.6-0.9-2.4-1.2C131.9,108.5,132.4,108.9,133,109.3z"/>
	<path d="M140.3,121.7c0.1,1.1,1.5,1.1,2.2,0.6c-0.5-0.1-1.1-0.2-1.6-0.2c0.1-0.4,0.6-0.5,0.9-0.8c-1.1,0-2.3-0.3-3.3-0.8
		c-0.9-0.1-1.6-0.9-2.4-1.2C137,120.7,138.9,120.9,140.3,121.7z"/>
	<path d="M143,121.7c-0.2,0.2-0.3,0.3-0.5,0.5c-0.3,0.7-0.7,1.4-0.9,2.2C142.1,123.5,142.8,122.7,143,121.7z"/>
	<path d="M139.7,123.2c-0.7,0.4-0.5,1.1-0.3,1.7c-1.1-0.6-2.2-1.3-3-2.3c0.3,1.6,2.2,2.6,3.7,3c1.3-0.2-1.1-1.1-0.3-1.9
		c0.6-0.7,1.4,2.5,1.7,0.8C140.8,124.5,140.8,122.7,139.7,123.2z"/>
	<path d="M141.1,126.9c-0.2,0-0.7,0-0.9,0c-0.2,0.1-0.4,0.2-0.6,0.3c-1.2,0.5-2.5,1-3.8,1.2c-0.2,0.2-0.5,0.2-0.7,0.1
		c-0.1,0-0.2,0-0.3,0.1c-0.3,0-0.8,0.1-1.1,0.1c-0.7,0-1.3,0-2,0c-1.2-0.2-2.5-0.1-3.7-0.1c-0.1,0-0.3,0-0.5-0.1
		c-0.3,0-0.8-0.1-1.1-0.1c-0.8-0.2-1.6-0.4-2.4-0.7c0.8,3,2.1,5.9,3.8,8.5c0.3,0,0.7-0.1,1-0.1c0.7-0.1,1.5,0.2,2.2-0.1
		c0.4-0.1,0.7-0.3,1.1-0.4c0.5,0,1,0.1,1.5-0.1c2.3-0.4,4.5-1,6.6-1.8c0.2,0.1,0.5,0.1,0.7-0.1c1.7-0.7,3.5-1.5,4.9-2.6
		c0.2-0.4,0.4-0.7,0.6-1.1C144.6,128.9,142.5,128.5,141.1,126.9z M134.2,129.4c1.2-1,1.1,1.7,0,0.7
		C133.8,130.1,134,129.5,134.2,129.4z M134.8,131.1c-0.5,0.3-0.7-0.1-0.6-0.6C134.7,130.3,135.5,130.8,134.8,131.1z M130.4,134.9
		c-0.3,0.1-2.6,0.7-2.4-0.3c-0.9-0.6-1.1-1.8-1.6-2.7c-0.3-1-1-1.9-1-3c1.9,0.2,3.7,0.5,5.6,0.6c-1.4,0.7-3.1-0.2-4.5-0.2
		c0.4,0.5,0.8,1,1,1.5c-0.4,0.4-0.9-0.1-1.2-0.3c0.4,1.3,0.9,2.8,1.9,3.8c0-0.4,0-1.8,0.9-1.6c0.4,0.3,0.1,0.8,0,1.2
		c0.1,0,0.3,0.1,0.4,0.1c0.8-1.3-1.1-2.2-1.6-0.9c-0.2-0.2-0.6-1.2-0.6-1.7c1.1-0.3,0.5-1.3,0-1.8c1.8,0.4,3.6,0.5,5.3,0
		c0.6-0.4,1.7,0.4,0.9,0.7c-0.9,0.2-0.7,1.5,0.2,1.5c0.9-0.1,0.3,1.2,0.7,1.8c-0.6-0.1-1.3-0.3-1.9-0.5c0.1,1,1.6,0.8,2.1,1.2
		C133.1,134.4,131.8,134.8,130.4,134.9z M135.1,134c-0.2,0.1-0.7,0.2-0.5-0.2C134.8,133.6,135.7,133.9,135.1,134z M134.8,131.6
		c0.9-0.4,0.3,1.2,0.6,1.7C134.4,134,133.8,131.7,134.8,131.6z M135.6,132.2c-0.3-0.6,0.3-0.9,0.9-0.9
		C138.3,131.5,135.2,134.5,135.6,132.2z M136.1,133.7c0.5-0.3,1-0.7,1.4-1c0.2-1.3-0.5-2.4-1.9-1.8c-0.8-0.8,1.1,0,0.8-0.8
		c-0.6,0.7-1.4-0.5-1-0.7c1.1-0.3,2.5-0.4,3.7-1c-0.1,0.6-1.2,0.7-1.7,0.9c-0.3,0.3-1.1,0.9,0.4,0.3c0.7-0.1,1.1-0.6,1.7-0.8
		c-0.1,0.8,1,1.5,1.4,0.6c0.2-0.9,0.9,0,1.3,0.3c-0.6,0-1,0.6-0.8,1.1c-0.9,0.4-1.8,0.9-2.7,1.4c-0.3,0.3-0.1,0.5,0.2,0.7
		C137.9,133.2,137,133.7,136.1,133.7z M144.5,130.6c-1.8,0.3-3.1,1.7-4.9,2c-0.1,0-0.4,0-0.5,0c1-1.1,2.7-1.1,3.9-2
		c-0.1-0.4-1.7,0.4-1.4-0.4c0.6-0.2,1.4,0.1,1.9-0.5c-1-0.3-2-0.8-2.9-1.4c0,0.4,0.3,1.3-0.4,1.2c-0.7,0.1-0.5-0.9-0.5-1.4
		c0.4-0.1,0.8-0.5,1.2-0.2c1.3,0.8,2.7,1.5,4.2,2C145.8,130.1,145,130.8,144.5,130.6z"/>
	<path d="M202.8,129.1c-1.4-1.1-3.3-1.7-5.1-1.5c0,0.1,0,0.2,0,0.3c1.3,0.1,2.4,0.6,3.4,1.3C201.7,129.7,202.3,129.4,202.8,129.1z"
		/>
	<path d="M170.3,67.6c1.1,2.5,1.3,5.5,3.4,7.4l-2.6,23.8c0,0.3,0,0.7-0.1,1l-3.8,19.2c-0.2,0.9,0,2.2-0.8,2.7
		c-0.2-0.2-0.5-0.2-0.7-0.1c-0.1,0-0.3,0-0.5-0.1c-1.1-0.1-2.3-0.3-3.4,0c-0.3,0-0.6,0.1-1,0.1c-0.2-0.1-0.5-0.1-0.7,0.1
		c-0.1,0-0.4,0-0.5,0.1c-0.3,0-0.8,0.1-1.1,0.1c-4.1,0.7-8.5,2.4-10.6,6.2c-0.5,0.9-0.8,1.9-0.8,3c0.2,0.7,0.7,1.3,1.5,1.3
		c1,0.4,1.9,1,3,1c0.3,0.2,0.6,0.2,0.9,0.1c0.1,0,0.2,0,0.3,0c1,0.1,2.2,0.3,3.2,0c0.1,0,0.2-0.1,0.3-0.1c1.1-0.1,2.3,0.2,3.4-0.1
		c0.1,0,0.2-0.1,0.3-0.1c0.3,0,0.8-0.1,1.1-0.1c0.4-0.1,0.8-0.2,1.2-0.3c0.3,0.1,0.7,0.1,0.9-0.1c0.2,0.1,0.5,0,0.7-0.2
		c0.1,0,0.2,0,0.3-0.1c0.3,0,0.8-0.1,1.1-0.1c0.2,0,0.4,0,0.7-0.1c0.2,0.1,0.5,0.1,0.7-0.1c2.1-0.5,4.3-0.9,6.3-1.7
		c2.1-0.7,1.9-3.1,2.3-4.9c0.2-1.2,0.1-2,0.2-3.3c0-0.3,0-0.8,0-1.2c-0.1-2,2.2-20.7,2.2-20.7c0.4-2.4,0.9-4.8,1.8-7.1
		c0.6-3.3,2.4-6.2,2.8-9.5c0.1,0.5,0.2,1.1,0.3,1.6c0,0.4,0.1,0.9,0.1,1.3c-0.1,1.5-0.1,3,0,4.6c0,0.3,0,0.5-0.1,0.8
		c-0.1,0.5-0.1,1-0.1,1.5c0,0.1,0,0.3,0,0.5l-0.9,7.7c-0.1,0.5-0.1,1-0.1,1.5l-2.4,14.6c-0.5,2.4-1.3,4.7-1.8,7c0,0-0.7,2.5-0.5,3.1
		c0.1,1,1.3,1.8,2.1,2.2c2,1,4.2,1.8,6.4,2.2c0,0,5.9,1,8.4,1c0.2,0,0.4,0,0.6,0.1c1,0.2,2.1,0.1,3.2,0.1c0.1,0,0.6-0.1,0.7-0.1
		c0.6-0.2,1.4-1,1.5-1c1.1-0.4,2.3-0.5,3.3-1.2c-1-0.9-2.4,0.3-3.6,0.5c0,0-0.2,0-0.3,0.1c0,0-0.4,0.1-1,0.4
		c-0.3,0.1-0.3,0.1-0.5,0.1c-1,0-1.9,0-2.9,0c-1.5-0.2-3-0.1-4.6-0.1c-0.2,0-0.4,0-0.6-0.1c-0.3,0-0.8-0.1-1.1-0.1
		c-3-0.4-6-1.1-8.7-2.5c-1.3-0.4-2.3-1.8-1.9-3.1c1.6-5.3,2.6-10.7,3.6-16.1c0.2-0.2,0.2-0.5,0.1-0.7c0.1-2.3,0.8-4.5,1.1-6.8
		c0.1-0.8,0.1-1.7,0.1-2.5c0-0.1,0-0.2,0-0.3c0.1-0.5,0.2-1.1,0.1-1.6c0-0.5,0.2-1,0.2-1.5c0.1-0.5,0.1-1,0.1-1.4c0-0.1,0-0.2,0-0.3
		c0.1-0.5,0.1-1,0.2-1.4c0-0.1,0-0.2,0-0.3c0.2-1.2,0.1-2.4,0.1-3.7c0-0.9,0-1.8,0-2.7c0-0.2,0-0.5,0-0.7c0-0.6,0-1.2,0-1.8
		c0-1.7,0.2-3.5-0.1-5.3c0-0.2-0.1-0.4-0.1-0.6c0-0.4,0-0.6-0.1-0.9c-0.1-0.6-0.2-1.2-0.4-1.9c-0.5-2-1.4-3.8-1.9-5.8
		c-0.6-2.5-1.9-4.7-2.6-7.1c1.5-2.7,3-5.4,4.2-8.3c0.4,0.5,0.7,1.1,1,1.6c2.9,5.6,4.6,11.7,6.2,17.8c0.3,1,0.6,2,0.8,3
		c0.2,0.5,0.5-0.2,0.3-0.5c0.1,0,0.2-0.1,0.2-0.1c5.4,2.3,7,8.6,8.4,13.8l2.5,14.5c0.3,1.7,0.7,3.4,1.1,5.1c0,0.3,0,0.5,0.1,0.7
		c0.3,1.7,1,3.3,1.3,5c0.5,1.4,1.3,2.7,2.2,3.8c0.1,0.1,0.2,0.2,0.3,0.3c0.9,0.5,1.6,1.2,2.6,1.4c0.5,0.1,1.1,0.2,1.6,0
		c1.1-0.3,1.5-0.9,1.6-2.4c0-0.9-0.1-1.9,0.1-2.8c0.2-1.7,2.2-0.8,2.4,0.4c1.5,3.7-0.1,10.6-3.2,11.1c-0.5,0-1,0-1.4-0.1
		c-0.2,0-0.3,0.1-0.3,0.3c0,0.1,0,0.2,0,0.3l0,0.2l0.2,0c0.5,0,0.9,0,1.7-0.1c3.3-0.3,4.4-4,4.8-6.8c0-0.3,0.1-0.8,0.1-1
		c0-0.7,0-1.2,0-1.8c0-0.3,0-0.7,0-0.9c-0.4-1.7-0.9-3.6-2.7-4.4c-0.3-0.1-1-0.1-1.3,0.1c-0.9,0.8-1.2,1.8-1.3,3
		c-0.1,0.7-0.1,1.4-0.1,2.1c0,0.4-0.3,0.9-0.7,1.2c-0.7,0.3-1,0.2-1.6,0c-1.4-0.6-2.2-2-2.9-3.2c-1.4-2.9-2.2-6-2.7-9.2l-0.8-2.8
		c-0.8-3.2-1.6-6.4-2.2-9.6c0-0.3,0-0.5-0.1-0.7c-0.1-0.6-0.2-1.1-0.3-1.7c-0.1-0.3,0-0.5-0.1-0.9c-0.5-3.7-1.9-7.3-3.6-10.7
		c-1.1-1.1-1.7-2.5-2.9-3.5c-0.6-0.5-1.3-1-2-1.3c-0.5-0.2-1.2-0.4-1.3-1.1c-1.2-5.9-3.1-11.7-5.6-17.1c-0.6-1.4-1.1-3-1.9-4.3
		c0.2-0.3,0.2-0.6,0-0.9c1.1-2.2,1.7-4.6,2.4-7c0.2-0.2,0.2-0.6,0.1-0.9c0-0.2,0.1-0.4,0.1-0.6c0-0.7,0.3-1.5,0-2.2l-0.1-0.1
		c-0.8-0.9-0.3-0.9,0.3-0.2c0.8,0.7,2.6,1.9,3.7,2.3c-0.5-0.5-0.8-0.6-1-0.9c-1.5-1.2-2.7-2.8-4.3-4c-0.9-0.6,0.7-0.9,1-0.3
		c1.6,1.5,3.4,2.8,5.2,3.9c-1.1-1.7-2.7-2.9-4.2-4.2c0.4-0.1,0.7-0.2,1.1-0.3c0.8-0.2,1.7-0.2,2.5-0.2c0.2,0.1,0.5,0.1,0.7-0.1
		c1.6-0.2,3.5-0.8,3.8-2.6c0.2-0.2,0.2-0.5,0.1-0.7c0-0.1,0-0.2,0-0.3c0-0.4-0.1-1,0.5-0.9c0.2,0.1,0.5,0.1,0.7-0.1
		c1.9-0.4,3.6-2.2,3-4.3c-0.4-2.2-1.8-4.8-4.1-5.4c-0.3-0.1-0.5,0-0.7,0.2l-0.1,0.1c-0.2-0.1-0.3-0.2-0.5-0.2
		c-0.4-0.4-0.9-0.8-1.5-0.9c-0.5-0.1-1-0.2-1.5,0c-0.5,0.1-1.1,0.4-1.6,0.6c-0.6-1.9-3.1-2.5-4.8-1.7c-1.1,0.6-1.7-1.2-2.8-1.2
		c-0.8-0.1-1.6-0.3-2.3,0c-1.3,0.4-2.6,1.1-3.4,2.3c-0.2,1.1-1.3,1.1-2.2,1c-0.3,0-0.9,0-1.2,0c-0.2,0-0.4-0.1-0.6-0.1
		c-0.8-0.1-1.6-0.3-2.3,0c-0.1,0-0.3,0.1-0.4,0.1c-0.4,0-0.6,0-0.9,0.1c-1.2,0.3-2.5,0.5-3.4,1.5c-0.5,0.4-0.1,1.2-0.7,1.6
		c-0.5,0.4-1,0.8-1.5,1.3c-0.5,0-1-0.3-1.5-0.4c-0.5-0.1-1-0.2-1.5-0.3c-0.3,0-0.8-0.1-1.1-0.1c-0.5-0.1-1-0.2-1.5-0.3
		c-0.5,0-0.9,0-1.4,0c-0.7,0-1.4,0-2.1-0.1c-0.1,0-0.4,0-0.6,0c-1.2,0-2.2-0.1-3.4-0.1c-0.3,0-0.5,0-0.8,0c0.8,0.3,1.6,0.4,2.4,0.5
		c0.7,0.1,1.4,0.1,2.1,0.1c0.3,0,0.4,0.1,0.2,0.3c-1.7,1.3-2.7,3.3-3.1,5.4c-1.3-0.7-2.7-1.3-4.2-1.6c-0.8-0.1-1.6-0.3-2.3,0
		c-0.9,0.2-1.7,0.6-2.6,0.5c-0.6-0.8-1.6-1.1-2.5-1.6c-0.2,0-0.7,0-0.9,0c-2.2,0.5-1.4,3.1-2.9,4.2c-1.1,1.3-0.5,3.3,1.1,3.9
		c0,0.3,0.1,0.8,0.1,1.1c0,0.2,0,0.4,0.1,0.6c0,0.3,0.1,0.8,0.1,1.1c0,0.2,0,0.4,0.1,0.6c0,0.3,0.1,0.8,0.1,1.1
		c0.1,0.6,0.1,1.2,0.4,1.7c1.2-0.3,2.4-0.6,3.6-0.7c0.2,0.1,0.5,0.1,0.7-0.1c0.1,0,0.4-0.1,0.5-0.1c0.5,0,0.9,0,1.4,0.1
		c0,0.1,0,0.2,0,0.3c0,0.6,0,0.7,0,1.1c-0.1,1,1.3,0.9,2,1.2c2.2,0.4,4.2,1.4,6.5,1.8c1.3-0.1,1.6,1.3,2.2,2.2
		c-0.1,0.2-0.1,0.5,0,0.7c-0.7,0.7-1.1,1.6-1.2,2.6c-0.1,0.3-0.1,0.6,0.1,0.9c0.3,0.8,0.5,1.6,1,2.2c-2,1-4.4-0.2-6.5-0.3
		c-0.8-0.1-1.7-0.3-2.5,0c-0.7,0.2-1.3,0.5-1.8,0.9c-0.3,0.5-0.6,1-0.7,1.5c0,0.3,0,0.9,0,1.3c0,0.8,0.3,1.6,1.1,2
		c1.3,0.5,1,2.2,2,3c0.6,0.9,1.8,1,2.4,1.9c1.1,1.2,2.9,0.8,4.4,0.9c3.4-0.9,6.2-3.2,8.7-5.4c0.2,0.1,0.5,0.1,0.7,0
		c0.3,0.1,0.5,0.1,0.8,0.2c2.4,0.8,4.9,1.3,7.2,2.1c0.7,0.1,0.7,0.5,0.9,1.1L170.3,67.6z M188.6,26c0.3-0.9,0.7-2,1.6-2.4
		c0.8-0.2,1.5,0,2.2,0.3c-0.1,1-1.2,1.8-1.4,2.8c-0.1,0.7-0.8,0.3-1.3,0.2C189.3,26.8,188.4,26.7,188.6,26z M188.5,27.4
		c0.5,0.1,0.9,0.3,1.3,0.5l0.3,0.1c0.4,0.1,1.1,0.4,1.3-0.1c0.3-1.4,1.4-2.5,2.6-3.3c0.3,0,0.9,0,1.3,0c1.4,0.5,1.9,2,2.3,3.3
		c0,0.3,0.1,0.8,0.1,1.1c0,0.9-0.1,2-1,2.4c-1.1,0.6-2.4,0.5-3.5,1c0.3,1.6,0.5,3.7-1.4,4.3c-0.3,0-0.8,0.1-1.1,0.1
		c-0.2,0-0.4,0-0.6,0.1c-0.3,0-0.8,0.1-1.1,0.1c-0.3,0-0.6,0.1-1,0.1c-1,0-2,0-3,0c-0.9-0.7-1.8-1.5-2.7-2.1c-0.6-0.4-1.2-0.7-1.8-1
		c0.7-0.4,1.6-0.7,2-1.4c0.4-0.3,1.7,0.4,1.4-0.2c-0.9-0.3-1.6-0.8-2-1.7c0,0.5,0.2,1,0.2,1.6c-0.9,0.4-1.7,1.1-2.7,1.4
		c-1.2-0.2-2.2-0.9-3.3-1.3c-0.4-0.1-0.1-0.5-0.1-0.7c0.3-0.9,0.2-1.8,0-2.7c-0.1-0.5-0.3-1-0.4-1.5c1.5-0.8,3.2-0.9,4.8-1.3
		c0.3,0.1,0.6,0.2,0.8,0.4c0.4,1.2,1.5,2.1,2.7,2.5c0.6,0.1,1.3,0.2,2,0C187,28.7,187.8,28.2,188.5,27.4z M175,51.4
		c-1.2,0.2-2.1-0.5-2.6-1.8c-0.2-0.8-0.1-1.7,0-2.5c0.3-0.5,0.5,0.3,0.7,0.5c-0.1,1.2,0.2,3.2,1.8,2.9c1.5-0.5,2.6-1.7,3.1-3.2
		c0.3-1.3,1.8-1.9,2.3-3.2c0.9-1.4,0,0.7-0.3,1.3C179,47.8,177.6,50.5,175,51.4z M178.3,49.8c-0.5,1.3-0.9,2.8-1.6,4
		c-0.3-1.6,0.1-3.1,1.4-3.9L178.3,49.8z M175.9,53.6c0.3,2.3-0.7,4.4-2,6.4c-1.4,0-2.8-0.8-4.3-0.9c0-0.3,0-0.8,0-1.1
		c0.1-0.8,0.1-1.5,0.1-2.3c0.3-2.7,0.9-5.3,2.1-7.7c0.1,0.7,0.1,1.4,0.4,2c0.3,0.7,0.5,1.5,1.3,1.8c0.9,0.5,3.1-1,2.5,0.9
		C175.8,52.9,175.8,53.3,175.9,53.6z M174.1,43.7c0.5-1,1-2.7,2.2-2.9c-0.2,0.4-0.4,0.9-0.4,1.4c0.8-0.5,0.9-1.5,1.3-2.2
		c0-0.3,0.1-0.8,0.1-1.1c0.5-0.3,1-0.5,1.5-0.7c0.4-0.1,0.8-0.3,1.2-0.5c-0.6-0.1-1.1,0.1-1.6,0.3c-1.2,0.2-2.2,0.8-3.4,1.1
		c0.2-0.7,0.4-1.5,0.5-2.2c0-0.6-0.5-2.3,0.5-1.5c0.7,0.6,1.6,1,2.6,1.3c0.9,0.3,1.8,0.7,2.6,1.2c0,0.6-0.2,1.1-0.4,1.7
		c-0.1,0.4-0.1,0.7-0.2,1.1c-0.1,0.3-0.2,0.6-0.3,0.8c-1.2,1.5-2.4,3.2-3.9,4.3C176.3,44.6,175.7,43,174.1,43.7z M175.9,46.3
		c-1.5,1.2-3-1.7-1.3-2.2C175.8,43.7,175.5,45.6,175.9,46.3z M175.2,33.6c0.6,0.1,1.3,0.2,1.8,0.7C176.5,34.1,175.2,34.3,175.2,33.6
		z M175.2,30.7c-0.1,0.4-0.1,0.8-0.3,1.2c-0.5-0.1-0.9-0.3-1.3-0.4c-0.3-0.1-0.8-0.2-0.9,0c-0.2,0.3-0.3,0.6-0.3,0.9
		c-0.2,0.1-0.6,0.1-0.7,0.4c-0.2,1,1.3,1.1,1.9,1.7c-1,0.9-2.6,0.9-3.8,0.7c-2-0.1-2-2.7-1.9-4.2c0.4,0.2,0.5,0.3,1,0.2
		c0.5,0,1.6-0.3,1.6-0.3c0.4-0.1,0.8-0.3,1.2-0.4c1.4-0.3,2.4-1.3,3.4-2.2c0.2,0.5,0.2,1.1,0.2,1.7
		C175.3,30.3,175.2,30.5,175.2,30.7z M168.8,35.9c0.2,0.1,0.5,0.3,0.7,0.4c0,0,1.1,0.4,2.3,0c0.9-0.2,1.7-0.4,2.6-0.8
		c-0.1,1.5,0,3.6-1.2,4.8c-1.6,0.9-3.5,1.7-5.3,1c-1.8-0.5-2.6-2.4-2.9-4.1l-0.2-1c-0.1-0.4-0.1-0.6,0.3-0.6c0.1,0,0.2,0.1,0.3,0.2
		c0.2,0.1,0.6,0.2,0.9,0c0.5-0.2,0.9-0.5,1.3-0.8C168,35.3,168.4,35.6,168.8,35.9z M174.2,48.3c0.4,0.1,1,0.2,1.6,0
		c1.2,0.4-0.5,2.2-1.4,1.5C173.6,49.7,173.3,47.6,174.2,48.3z M176.7,48.4c-0.1-0.5,0.4-0.7,0.8-1C177.7,47.4,177.1,48.4,176.7,48.4
		z M179.8,43.9c-1.1,1.6-2.5,3.5-4.6,3.7c-0.8,0.1-1.8-0.2-2.1-1c-0.9-1.8-0.3-3.9,0.8-5.4c0.6-0.9,1.4-1.9,2.5-2
		c-0.1,0.4-0.1,0.8-0.5,1.1c-1.6,1.2-2.8,3.1-2.6,5.1c0.1,1.2,1.7,2,2.7,1.2c1.8-1.2,3.2-2.9,4.3-4.8c0.7-0.7,0.8-1.9,1.6-2.3
		c-0.1,0.5-0.2,1-0.4,1.5C181.1,42.1,180.5,43,179.8,43.9z M179.3,35.7c-0.6-0.3-1.1-0.5-1.6-0.9c0.7-0.1,1.4,0.3,2,0.5
		c1.2,0.6,2.6,1,3.4,2C181.6,37.6,180.6,36.3,179.3,35.7z M183.3,39.6c-0.6,0.2-0.9-0.1-0.9-0.7C182.8,39.1,183.1,39.3,183.3,39.6z
		 M182.4,25.7c1.1,0.5,2.8,0.2,3.3,1.5c0.3,0.4,1.2,1.5-0.4,0.9C184,28.3,182.3,27.1,182.4,25.7z M184.6,22.4c0.6,0,1.1,0,1.7,0
		c0.9,0,1.2,1.2,1.2,1.9c0,0.6,0,1.3,0,1.9c-1.8-0.6-3.7-0.8-5.5-1.6C182.2,23.3,183.6,22.7,184.6,22.4z M178.8,21.3
		c0.6,0,1.2,0,1.8,0c0.6,0.2,1.2,0.4,1.5,0.9c-0.2,0.3-0.5,0.7-0.7,1s-0.4,0.6-0.7,0.8c-0.1,0-0.3-0.1-0.3-0.1
		c-1-0.2-1.9-0.4-2.9-0.6c-0.4-0.1-0.9-0.1-1.1-0.5C176.9,22,177.8,21.5,178.8,21.3z M175.9,24.6c1.3,0.2,2.5,0.5,3.7,0.6
		c0.1,0.1,0.2,0.2,0.3,0.3c-1.3,0.1-2.5,0.6-3.8,0.9c-0.3,0.1-0.3-0.3-0.4-0.5c-0.1-0.6-0.7-0.8-1.1-1.1
		C173.7,24.2,175.7,24.6,175.9,24.6z M166.5,24.7c1-0.2,2.2-0.2,3.3-0.2c0.8,0.2,1.7,0.3,2.5,0.3c0.9,0.2,1.7,0.8,2.5,1.2
		c0.1,0.3,0.4,0.6,0.3,1c-1.1,1.2-2.5,2.3-4.1,2.7c-0.1,0-0.3,0.1-0.4,0.1c-0.4,0.1-0.7,0.2-1.1,0.3c-0.3-0.2-0.7-0.2-1,0
		c-1.3-0.3-1.9-1.6-2.9-2.3c0-0.1-0.1-0.2-0.2-0.3c-0.3-0.4-0.4-1-0.3-1.6C165.2,25.2,166,25,166.5,24.7z M163.1,29.6
		c0.4,0.1,0.7,0.3,1,0.5c0.3,0.2,0.6,0.1,0.8,0c0.2-0.2,0.1-0.4,0-0.6c-1.5-0.8-1.1-1.2-1.1-1.2c0.4-0.5,0.7,0.2,0.9,0.5
		c0.1,0.2,0.2,0.3,0.4,0.5c0.6,1,2.5,0.9,1.9,2.4c0,0.1,0,0.1,0,0.2c-0.1,0.5-0.1,0.9-0.1,1.4c0.3,1.2-1.2,1.5-2.1,1
		c-1-0.3-1.8-1.4-1.7-2.4c0.7-0.1,1.5,0.5,2.1,0c0.5-0.7-0.1-0.8-0.5-1.1c-0.2-0.1-0.4-0.1-0.7-0.1
		C163.5,30.6,162.6,30.6,163.1,29.6z M161.3,28.9c0.6,0,0.6,1.6-0.1,1.2c-0.2-0.1-0.4-0.1-0.7-0.1l-2-0.1c-1.6-0.1-1.3-1.3-1.9-2
		C158.2,27.9,159.8,28.5,161.3,28.9z M157.5,31.3c0.1-0.2,0.1-0.4,0.1-0.7h0.1c0.2,0.1,0.4,0.1,0.7,0.1c0.1,0,0.4,0.1,0.5,0.1
		c0.3,0.1,0.5,0.1,0.8,0.1c0.9-0.1,2.1,0.2,1.9,1.3c0.4,1.7,2.5,2.3,2.3,4.2c0,0.2,0,0.5,0.1,0.7c0,2.4,1.5,4.8,3.9,5.4
		c0.3,0.1,0.5,0.1,0.8,0.1c0.5,0,1.1,0,1.6,0c-1.8,3.1-4.7,5.5-7.4,7.8c-0.6,0.9-1.6,1.5-2.4,2.2c-1.4-3.6-4.5-6.5-5.5-10.3
		c0.6-1.2,1.2-2.5,1.6-3.8c0.1-0.4,0.2-0.8,0-1.2c-0.2-0.5-0.4-1-0.5-1.6c0-0.3,0-0.6,0-1C156.4,33.6,157.2,32.5,157.5,31.3z
		 M153.8,28.4c0.1,0,0.4,0,0.5,0c0.4,0,0.7,0.1,1.1,0.2c1.6,1.3,0.7,3.6-0.1,5.2c-0.1,0.2-0.3,0.5-0.3,0.8c-0.1,1,0.3,1.5,0.5,2.3
		c0,0.5,0,1,0,1.6c-0.1,1.1-0.8,1.9-1.3,2.9c-0.5,0.2-0.2-0.5-0.3-0.8c-0.5-1.4-0.9-3.2-1.8-4.6C150.2,33.7,151.7,29.9,153.8,28.4z
		 M147.3,32.9c-0.5,0.3-0.7-0.1-0.9-0.5C146.7,32.4,147.8,32.5,147.3,32.9z M146.5,35.3c-0.8,0.6-2.2-0.1-2.3-1.1
		c0.6-0.4,1.3-0.4,1.9-0.6C147.1,33.2,147.1,35,146.5,35.3z M146.2,33.2c-0.8,0-1.4,0.6-2.2,0.6c-0.5-1.1,0.8-1,1.4-1.3
		C145.9,32.2,146.1,32.9,146.2,33.2z M143.8,32c0.3,0,0.7,0,1,0C144.7,32.3,143.6,32.7,143.8,32z M143.5,34.1
		c-0.6,0.6-1.2-0.7-1.5,0C141,33,144.7,32.5,143.5,34.1z M138.8,38.5c-0.3,1.3-1.2-0.2-1.2-0.8c0.2-1.6,2-2.2,3.3-2.5
		c0.3,0,0.5,0.1,0.8,0.2c0.2,0.4,0.3,0.9,0.4,1.3c-0.3,0.5-1,0.2-1.5,0.4C139.8,37.3,139,37.7,138.8,38.5z M139.4,41.2
		c0.4,0.2,0.9,0.4,1.2,0.8c-0.6,0.1-1.3,0.2-1.9,0.2C138.9,41.9,139.2,41.5,139.4,41.2z M137.3,41c-0.2-0.4-0.3-0.8-0.4-1.2
		C137.8,39.8,138,40.5,137.3,41z M142.7,32.3c1.7-0.2-0.8,1.6-1.4,0.8C141,32.2,142.3,32.6,142.7,32.3z M137.3,31.2
		c0.9-0.1,1.9,0.4,2.4,1.1c-1.1,0.4-2.4,0.4-3.6,0.7C136.1,32.3,136.6,31.5,137.3,31.2z M135,36.5c0-0.3,0-0.5,0-0.8
		c0.5-2.1,2.9-1.7,4.6-2c0.8-0.5,1.1,0.1,1.4,0.6c-0.4,0.1-0.9,0.1-1.3,0.3c-1.5,0.4-2.9,1.5-3.1,3.1
		C135.8,37.9,135.1,37.2,135,36.5z M142,42.7c-1.8,0.1-3.6,0.5-5.4,0.9c-0.1-1.6-0.4-3.1-0.5-4.7c0.7,0.3,0.4,1.9,0.9,2.8
		c0.7,1.7,0.3-2.2,1.9-1.2c0.4,0.7-0.5,1.2-0.5,1.9c1.2,0.1,2.5-0.1,3.7-0.2C143.7,41.7,142.8,43,142,42.7z M143,41.3
		c-1,0-2.1,0-2.8-0.8c-0.8-0.7-0.5-2.4,0.7-2.5c0.6,0,1.1,0,1.7,0c0.2,0.3,0.4,0.8,0.4,1.2C143,40,143,40.6,143,41.3z M153,43.7
		c-0.3,1.1,0.3,4.3-1.9,3.8c-2-0.6-4-0.8-6-1.4c-0.6-0.1-0.9-0.6-1.4-0.7c0.3-2.6,0.8-5.2,0.2-7.7c-0.5-0.7-0.8-1.7-1.2-2.6
		c0.7,0.5,1.2,1.3,1.4,2.2c0.9,2.2,0.3,4.5,0.4,6.8c0.7-0.3,1.2-1.5,2.1-0.8c0.7,0.8-0.4,1.5-0.9,1.9c1.7,0.6,3.4,1.3,5.1,1.6
		c-0.3-0.9-0.9-1.8-0.4-2.8c1.1-0.1,1.3,1.2,1.4,2.1c0.7-0.2,0.4-1.2,0.6-1.8c0.5-2.4-0.1-4.8-0.6-7.1c-0.5-0.6-0.7-2.3-1.5-2
		c1.1,1.5,1.3,3.5,1.5,5.3c-0.2,0.5-0.2,0.9,0.1,1.2c0,0.8,0,1.6,0,2.4c-0.7-0.5-1.8-0.7-2.1,0.3c-0.2,0.6,0.2,1.2,0.4,1.8
		c-1.3-0.2-2.5-0.7-3.7-0.9c0-0.5,1.1-1,0.7-1.7c-0.1-1.1-1.4-0.8-2.1-0.5c0.3-2.8,0.5-6-1.5-8.3c-0.4-0.4,0.1-0.3,0.4-0.3
		c0.4,1.3,2.8,2.3,3.3,0.7c0.3-0.6-0.1-1.2-0.2-1.9c0.3-0.1,0.7-0.1,1-0.2c0.4,0.4,0.3,1.3,0.9,1.4c-0.1-0.4-0.3-0.8-0.3-1.2
		c0.4,0.3,0.9,0.5,1.2,0.9c1.1,0.6,1.9,1.8,2.1,3.1c0.5,0.8,0.8,2.1,1,3.1C153,41.5,153,42.6,153,43.7z M159.3,57.8
		c0.5-0.4,0-1.4,0-1.4c-0.4-1.3-2.7-1.9-1.6-3.5c0.2-0.4,0.2-0.7,0-1c-0.1-0.4-0.3-0.7-0.5-1c-0.7-1.2-2.2-1.1-3.4-0.9
		c-0.2-0.5-1.2-1.2-0.5-1.5c0.2-0.4,0.1-1,0.1-1.4c0.1-1.4,0.5-2.7,0.5-4.1c1.3,2.2,2.5,4.7,3.7,7c0.6,1.4,1.3,2.7,2.3,3.8
		c0.3,0.6-0.8,1.1-0.5,1.6c1.3-1.7,2.9-3.2,4.7-4.5c2.9-2.6,5.5-5.5,8-8.5c0,0.1,0.1,0.3,0.1,0.4c0.1,0.4-0.1,0.8-0.2,1.2
		c-0.1,0.5-0.2,1,0,1.5c-0.4,0.3-0.5,0.5-0.8,1.3c-1.2,2.2-1.3,4.9-2.3,7.2c-1.6,1.4-3.3,2.8-4.9,4.3
		C163.8,58.2,160.2,58.1,159.3,57.8z M168.7,57.3c0,0.4,0,0.5-0.2,0.9c-0.1,0.2-0.1,0.4-0.1,0.7c-0.1,0-0.3,0-0.3-0.1
		c-0.2,0-0.7-0.1-1-0.1c-0.2,0-0.5,0-0.7,0c-0.4-0.1-0.7-0.2-1.1-0.2c1.3-0.8,2.2-2.1,3.4-3.1c0.1,0.2,0.1,0.4,0.2,0.5
		c-0.1,0.2-0.1,0.5-0.2,0.6C168.6,56.8,168.7,57,168.7,57.3z M181.3,81.5c0,0.1,0,0.1,0,0.2c-0.1,0.5-0.1,0.9-0.1,1.4
		c-0.6,2.5-1.3,5.1-2.3,7.5c-0.3,1.7-0.7,3.4-1.4,5c-0.1,0.9-0.3,1.9-0.7,2.7c-0.1,0.2-0.1,0.4-0.1,0.7l-0.1,0.2
		c-0.1,0.3-0.1,0.6-0.1,0.9l-0.1,0.2c-0.1,0.2-0.1,0.5-0.1,0.7l-0.1,0.2c-0.1,0.3-0.1,0.6-0.1,0.8c-0.1,0.3-0.2,0.7-0.2,1
		c-0.1,0.5-0.1,0.9-0.1,1.4c0,0.1,0,0.2,0,0.3c0,0.1,0,0.2,0,0.3c-0.1,0.5-0.1,1.1-0.1,1.6c0,0.4,0,0.7,0,1.1c0,1-0.1,1.9-0.2,2.9
		c-0.1,0.5-0.1,0.9-0.2,1.4c0,0.1,0,0.2,0,0.3c-0.1,0.7-0.1,1.5-0.1,2.2c0,0.1,0,0.2-0.1,0.3c-0.1,0.2-0.1,0.4-0.1,0.7
		c0,0.7-0.1,1.5-0.2,2.2c0,0.1,0,0.1,0,0.2c-0.1,0.5-0.1,0.9-0.1,1.4c0,0.3,0,0.9,0,1.2c0,0.1,0,0.2,0,0.3c-0.1,0.7-0.1,1.4-0.1,2.2
		c0,0.1,0,0.2,0,0.3c-0.1,0.5-0.1,0.9-0.1,1.4c-0.1,1.3,0,2.8-0.7,4c-0.2,0.1-0.3,0.3-0.4,0.5c-1.7,1-4,0.9-5.9,1.6
		c-0.3,0.1-0.7,0.3-1.1,0.1c-0.9,0.4-2,0.7-3.1,0.7c-0.3,0-0.6,0-0.8,0.1c-0.1,0-0.3,0.1-0.4,0.1c-0.3,0-0.6,0-0.8,0.1
		c-0.5,0-1.1,0.1-1.6,0.2c-0.4,0.1-0.8,0.2-1.1,0.2c-1,0-2.1,0-3.1,0c-1.3,0-2.5,0-3.8,0c-0.5,0.1-0.9,0-1.2-0.2
		c-0.1-0.4-0.1-0.8,0-1.2c1.2-1.5,3.1-2.4,4.8-3.3c0.2-0.5-0.5-0.2-0.8-0.3c-1.9,1-4.8,1.9-5.4,4.3c-0.6,0.1-0.4-0.9-0.4-1.1
		c1-2.1,3.3-3,5.3-3.8c0.2-0.1,0.5-0.3,0.7-0.4c-2-0.4-3.8,0.8-5.4,1.8c0.8-1.3,2.1-2.6,3.6-3.1c2.1-1.3,4.6-2.2,7.1-2.4
		c1.4,0,2.8,0,4.1,0c0.6,0,1.2,0,1.8,0c1.4,0.1,2.7,0.2,4,0.5c-0.4-0.3-0.9-0.5-1.4-0.6c-0.1-0.1-0.3-0.2-0.4-0.2
		c-0.2-0.2-0.3-0.4-0.4-0.6c1-4,1.9-8.3,3-12.1c0.3-1.8,0.7-3.7,1.1-5.5c0.1-0.2,0.1-0.4,0.1-0.7c0-0.2,0-0.5,0.1-0.7
		c0-0.2,0.1-0.7,0.1-1c0-0.2,0-0.5,0.1-0.7c0-0.2,0.1-0.7,0.1-1c0-0.1,0-0.3,0.1-0.4c0.1-0.4,0.1-0.8,0.1-1.2c0-0.1,0-0.3,0-0.3
		c0-0.1,0-0.1,0-0.2c0.1-0.5,0.1-0.9,0.1-1.4c0-0.2,0-0.5,0.1-0.7c0-0.2,0.1-0.7,0.1-1l0.2-6.3c0.1-0.4,0.1-0.8,0.1-1.1
		c0-0.1,0-0.4,0-0.5c0.1-0.5,0.1-0.9,0.1-1.4c0-0.2,0-0.5,0.1-0.7c0.1-0.2,0.1-0.4,0.1-0.7c0-0.5,0.2-0.9,0.3-1.4
		c0.1-0.2,0.1-0.4,0.1-0.7c0-0.2,0-0.5,0.1-0.7c0.1-0.2,0.1-0.4,0.1-0.7c0.1-1,0.1-2,0.3-3c0.1-0.3,0.1-0.5,0.1-0.8
		c0-0.3,0-0.7,0.2-0.9c1.6,1.5,3.4,2.8,5.2,4.1C180.4,80.4,181.6,80.6,181.3,81.5z M180.1,70.6c0.6,2.4,1.5,4.7,1.8,7.2
		c0.1,0.3,0.1,0.4,0.1,0.7c0,0.6,0,1.2,0,1.7c-2.5-0.9-4.4-2.9-6.4-4.6c-3-2.6-4.3-6.5-5.2-10.2c0.7,0.2,1.3,0.5,2,0.6
		s1.5,0.3,2.2,0c0.5-0.2,1-0.4,1.4-0.7c0.6-0.5,1-1.1,1.5-1.6C178.6,65.9,179.3,68.3,180.1,70.6z M181.9,53.1
		c-1.9,3.7-3.3,7.9-6.2,11c-0.3,0.2-0.5,0.4-0.9,0.6c-0.7,0-1.4,0-2.1,0c-0.3,0-0.6-0.1-0.9-0.2c-0.4-0.1-0.9-0.2-1.3-0.4
		c-2.7-0.7-5.3-1.5-8-2c-0.2,0-0.4-0.1-0.5-0.1c-0.3-0.1-0.5-0.1-0.7-0.1c-0.1,0-0.2-0.1-0.3-0.1c-0.4-0.3-0.8-0.3-1.2-0.1
		c-0.2,0-1.1-0.2-0.7,0.1c0.4,0.3-0.3,0.5-0.5,0.7c-2.5,1.8-4.9,3.9-8,4.3c-0.4-0.1-0.6-0.1-1,0l-0.3,0.1c-0.4-0.1-0.8-0.1-1.2-0.2
		c-0.7-0.1-0.8-0.9,0.1-0.8c0.3,0,0.4,0,0.7-0.1c2-0.9,4.7-1.3,5.7-3.5c-1,0.5-2,1.3-3.1,1.6c-1.8,0.5-4.1,1.7-5.9,0.5
		c-0.6-0.2-1.3-1.2-1-1.5c1,0.1,2.1,0.2,3.2,0.2c0.1,0,0.2-0.1,0.2-0.1c1.3-0.3,2.7-0.6,3.8-1.4c0.3-0.2,0.6-0.5,0.7-0.9
		c-0.3,0.1-0.6,0.3-0.9,0.5c-0.1,0-0.2,0.1-0.2,0.2c-0.9,0.4-1.9,0.7-2.9,0.8c-0.9,0-1.8,0-2.7,0c-0.9-0.3-1.8-0.6-2.7-1.1
		c-0.3-0.2-0.4-0.3-0.5-0.5c-0.1-0.2-0.1-0.3-0.2-0.5c0-0.3,0-0.9,0-1.3c0.1-0.3,0.3-0.5,0.4-0.7c1.7-1.7,4.3-0.3,6.3-0.1
		c0.8,0.1,1.7,0.3,2.5,0c0.8-0.4,2.3-0.2,2.5-1.2c-1-1.2-2.2-2.9-1.1-4.5c0.7-1.3,3.1-2.4,3.6-0.4c-0.2,0.3-0.2,0.7,0,1.1l-0.1,0.1
		c-0.3,0.4-0.5,1,0,1.3c0.5,1,1.7,1.4,2.2,2.5c0.1,0.7-0.3,0.8-0.9,0.7c0,0-0.1,0.1-0.2,0.2c-0.4,0.8,1.3,0.7,1.9,1
		c0.3,0,0.6,0.1,0.8,0.1c0.3,0.2,0.6,0.2,0.9,0.1c0.6,0.1,1.2,0.2,1.7,0.4c0.1,0,0.3,0.1,0.4,0.1c0.6,0.1,1.2,0.2,1.8,0.1
		c0.1,0,0.3,0,0.4,0c0.5,0.1,1.1,0.1,1.6,0.1c0.1,0,0.2,0,0.3,0l7.1,1.3c0.4,0.1,0.8,0.1,1.2,0.1c0.2-0.2,0.3-0.4-0.1-0.3
		c-0.5-0.2-1.2-0.5-0.7-1.1c1.9-3,2.9-6.5,4.2-9.8c0.1-2.5,2.1-4.2,2.6-6.5c0-0.7,0.1-1.3,0.4-2c0.1-0.3,0.2-0.5,0.4-0.8
		c0.2-0.3,0.6-0.3,1,0c1.3,0.6,1.3,2.6,1.1,3.8C183.7,47.3,182.8,50.2,181.9,53.1z"/>
	<path d="M168.5,133.3c-0.7-0.1-1.4-0.1-2.1-0.1c-0.3,0-0.6,0-1,0c-0.9,0-1.8-0.2-2.7,0.1c-0.2,0-0.4,0.1-0.6,0.1c-0.5,0-1,0-1.5,0
		c-1,0.1-1.7,0.7-2.6,1c-1.5,0.7-3.2,1.1-4.8,1.3H153c-0.5,0-1-0.1-1.5,0.1c-0.1,0-0.2,0.1-0.3,0.1c-0.8,0-1.5,0-2.3,0
		c-0.7,0-1.3-0.5-2-0.6c-0.1,0.8,0.8,1.1,1.2,1.6c2.1,1.7,4.4,3.2,6.7,4.5c0.4,0.3,1,0.4,1.2,0c1.4-0.2,2.7-0.4,4.1-0.8
		c2.7-1.1,5.6-1.5,8-3.2c0.8-1,1.7-2,2.2-3.3C170.7,132.9,169.3,133.4,168.5,133.3z M157.3,135.8c0.7-0.4,1.5,1,0,0.5
		C156.4,136.7,155.7,135.6,157.3,135.8z M161.1,138.6c-0.6,0.2-1.3,0.6-1.8-0.1c-0.7-0.3,0-0.8,0.4-1
		C160.2,137.7,160.7,138.2,161.1,138.6z M161.8,136.8c0.9-0.1-0.5,2-1,0.9C159.7,136.9,161.3,137,161.8,136.8z M157.3,136.9
		c-0.2-0.5,0.5-0.3,0.7-0.4c0.5-0.4,1.3,0.2,1.3,0.7C158.6,137.9,157.9,137.4,157.3,136.9z M157.6,137.8c-0.6,0.3-1.4,0-1.2-0.7
		C156.9,137,157.3,137.5,157.6,137.8z M159.5,140c-1.6,0.6-3.5,0.9-5.2,0.3c-1.9-1.2-4.1-2.1-5.8-3.6c-1.1-0.4,1.9-0.4,2-0.1
		c1.8,0.2,3.6-0.1,5.4-0.3c0.6,0.5-0.7,1-0.2,1.6c0.8,1.4,2.6-0.3,3.4,1.3c-0.7-0.1-2.3,0-1,0.6c-0.8-0.1-2.4,0.6-2-0.9
		c-0.5-1-1.8-0.4-2.1,0.4c-0.7-0.7-2.7-0.8-2.1-2.1c1.1,0.2,2.5,0.1,3.4-0.5c-0.9-0.2-2.1,0.3-3.2,0.2c-0.4,0-0.9,0.1-1.3,0.2
		c0.9-0.1,1,1,0,0.8c1.1,0.6,2.3,0.9,3.2,1.8c0.8,0.4,0.8-1,1.5-0.8c0.6,0.1,0.3,0.9,0.4,1.3c0.9-0.2,1.8,0.3,2.6-0.2
		c0.2-0.1,0.4-0.1,0.6-0.1c0-0.4,0.7-0.1,1-0.1C160.7,140.2,159.9,140,159.5,140z M160.7,139.7c0.2-0.3,0.4-0.5,0.8-0.6
		C162.7,139,161.3,139.8,160.7,139.7z M167.7,135.9c-0.7,1-2,1.8-3.2,2.3c-0.8,0.4-2,1.3-2.6,0.2c0.2-0.7,1-1.4,0.4-2.1
		c-1-0.6-2.4,1.3-3.1-0.1c0.6-0.3,1.2-0.6,1.6-1.2c0.5,0.4,1.4,0.5,1.4-0.4c1,0,2,0.2,3,0.2c-0.9,0.6-0.7,1.9,0.5,1.8
		c-0.4,0.5-1.1,0.7-1.6,1.1c1.3-0.2,2.5-1,3.1-2.2c-0.8,0.2-1.6,0.9-2.4,0.5c0.1-0.6,2.5-1.5,0.9-1.6c-0.1,0-0.1,0-0.2,0
		c-0.8-0.1-1.6-0.1-2.4-0.1c-0.4,0.2-1.6-0.5-1.3,0.2c0.4,0.7-0.9,0.6-0.7-0.1c-0.9,0.1-1.7,0.8-2.4,1.4c-0.2-0.1-0.4-0.3-0.5-0.5
		c0.8-0.3,1.5-0.8,2.1-1.3c1.2-0.1,2.4-0.1,3.5-0.1c1.3,0,2.7,0,4,0h0.2C169.4,133.9,168.3,135.7,167.7,135.9z"/>
	<path d="M129.2,134.5c0.7-0.4,2.4,0.1,2.6-0.9c-0.7,0-1.5,0.2-2.2,0.4C129.2,134,128.4,134.5,129.2,134.5z"/>
</g>
</svg>
