<?xml version="1.0" encoding="utf-8"?>
<!-- Generator: Adobe Illustrator 26.0.3, SVG Export Plug-In . SVG Version: 6.00 Build 0)  -->
<svg version="1.1" id="Слой_8" xmlns="http://www.w3.org/2000/svg" xmlns:xlink="http://www.w3.org/1999/xlink" x="0px" y="0px"
	 viewBox="0 0 239.5 150.2" style="enable-background:new 0 0 239.5 150.2;" xml:space="preserve">
<g>
	<path d="M165.3,95.1c0.5-0.2,0.9-0.5,1.3-0.9c2.7-0.3,5.3-2.3,5.8-5c0.8-0.3,1.2-1.1,1.6-1.8c2.5-0.7,4.5-3.2,4.2-5.8
		c1-0.4,1.7-1.2,2.1-2.2c2.6-1,4.4-4,3.8-6.7c-0.1-0.5-0.2-1,0.1-1.4c0.5-0.8,0.8-1.7,1.1-2.6c0.5-0.6,1.1-1,1.7-1.4
		c0.3,0,0.8,0,1,0c0,0.1,0,0.3,0,0.5c-0.4,0.1-0.9,0.2-1.2,0.5c0.3,0.1,0.8,0.2,1.1,0.2c0.4,2,1.3,3.9,2.8,5.2
		c1.2,1,2.8,1.4,4.3,1.9c2.3-0.2,4.7-0.8,6.3-2.5c1.4-1.9,1.9-4.3,1.9-6.6c0.8-0.1,1.6-0.1,2.3-0.2c-0.4,0.6-0.8,1.1-1.2,1.7
		c-0.1,1.5,0.2,2.9,0.2,4.4c0.1,0.8-0.1,1.7,0.1,2.4c1.1,0.4,2.3,0.7,3.4,0.8c1-1,1.7-2.1,2.3-3.3c1.3-2.2,1.7-4.8,2.1-7.4
		c0.7,0,1.4-0.2,2.1-0.4c0-1,0-2,0.1-3.1c-0.7-0.7-1.6-1.2-2.7-1.3c-0.2-0.8-0.3-1.6-0.5-2.5c-0.2,0.2-0.3,0.4-0.5,0.7
		c0.3,0.7,0.5,1.4,0.3,2.1c-0.2-0.9-0.5-1.7-0.3-2.6c-0.4,0-0.7,0-1.1,0c1,0.6,0.1,2.2,1.1,2.9c0.5,0,0.9,0.1,1.4,0
		c0.1,0.8,0.1,1.5,0.1,2.3c-0.8,0-1.6,0.1-2.4,0.2c0.2,2.7-0.6,5.3-1.8,7.6c-0.8,1.5-1.8,2.9-3.3,3.8c-0.2-2.2-0.3-4.4-0.3-6.7
		c0.8-1,1.5-2.1,1.8-3.4c-1.7-0.3-3.5-0.1-5.3-0.1c0,1.7,0.1,3.4-0.5,5c-0.6,2.4-2.5,4.5-4.9,5c-1.4,0.2-3,0.2-4.3-0.6
		c-2.5-1.4-3.5-4.4-3.5-7.1c-0.7,0-1.3,0-1.9,0c-0.1-0.8-0.1-1.6-0.1-2.5c0.6-0.1,1.1-0.2,1.7-0.3c-0.2-3.6,2-7.6,5.6-8.7
		c0.2,1.6,0.5,3.2,0.4,4.8c-1.3,0.8-2.8,1.9-3,3.6c1.8,0,3.6,0,5.4-0.3c0.8-0.1,0.6-1.1,0.7-1.7c-0.1-1.7,0.3-3.5,0.9-5.1
		c0.8-2,2.2-4,4.4-4.5c1.5-0.3,3.2-0.3,4.5,0.5c1.9,1,3.1,3.1,3.5,5.2c0.1-0.3,0.3-0.5,0.4-0.8c0.2,0.3,0.4,0.6,0.7,0.8l-0.2-0.8
		c-1-1.9-2.3-3.8-4.2-5c-2.7-1.5-6.4-0.7-8.1,1.9c-2,2.5-2.3,5.8-2.4,8.9c-1.1,0-2.2,0.1-3.2,0.1c0.6-0.9,1.6-1.4,2.5-2
		c0.1-1.3-0.1-2.5,0-3.8c0.2-1.2-1-1.9-1.7-2.7c-4,0.9-6.7,4.9-6.5,8.9c-0.4,0.1-0.7,0.1-1.1,0.2c-0.5-0.6-1-1.2-1.8-1.5
		c0.5-2.8-1.1-6.2-4.2-6.6c-0.3-0.6-0.6-1.3-1-1.9c0.7-0.2,1.4-0.5,2-0.9c2.5-1.8,5.2-3.4,7.5-5.4c1,1,2.2-0.1,3.3,0.3
		c3.6,0.9,7.3,1.4,11,2c3.3,0.4,6.7,1,10.1,0.7c1.5-0.1,2.9-0.8,3.7-2c0.8-1.1,0.8-2.6,0.9-4c0.1-1.5-0.9-2.9-0.9-4.4
		c-0.1-1.2,0.2-2.4-0.4-3.5c-0.7-1-1.7-1.8-2.7-2.3c-1.4-0.6-2.4-1.8-3.9-2.2c-1.2-0.3-2.3-0.9-3.5-0.8c-4.5,0.8-8.5,3.6-11.6,6.9
		c-1.5,1.6-3.5,2.3-5.2,3.7c-1-0.1-1.6,0.5-2.1,1.3c-1.1-0.3-2-0.9-3.1-1c-2.2-0.1-4.4,0.3-6.5-0.1c-0.9-0.1-1.8-0.4-2.7-0.2
		c-0.7,0.2-0.6,1.1-0.7,1.6c-0.4,1.5,0.6,2.8,1.2,4.1c0.2,1.3-0.4,2.8,0.2,4c-0.7,0-1.3,0.1-2,0.1c-0.5-0.4-0.9-0.9-1.4-1.3
		c-1.1-0.1-2.3-0.4-3.4-0.1c-0.5-0.6-0.9-1.2-1.6-1.5c-1.1-0.6-2.5-0.4-3.6-0.1c-1.4-1.4-3.8-1.8-5.4-0.6c-0.6-0.4-1.1-0.9-1.7-1.1
		c-1.3-0.4-2.6-0.1-3.8,0.2c-1.8-1.8-4.9-1.9-6.9-0.4c-1.1-1.3-3.1-1.6-4.5-0.6c-0.8-0.8-1.9-1-3-0.9c1.2-2.1,2.6-4,3.5-6.2
		c-0.3,0.1-0.6,0.2-0.8,0.5c-1.5,2.1-3,4.2-4.2,6.5c-1.2,2.6-2,5.4-2.5,8.2c-0.3-1.3-0.5-2.6-1.2-3.8c-0.7-1.5-2.1-2.5-3.3-3.5
		c1.1-0.2,1.8,0.9,2.7,1.4l0.2-0.1c-0.5-1-1.6-1.4-2.3-2.2c-1.6-1.7-3.8-2.6-6-3.1c-0.9-0.2-1.9,0-2.9-0.1c-3.2-0.6-6.5,0.7-9,2.7
		c-2-1.6-4.5-2.6-7-2.7c-0.7,0.1-1.5,0.2-1.9,0.8c1.7,0.2,3.4,1.2,3.9,3c0.7,1.6,0,3.4-1.3,4.5c-2.6-1.3-5.2-2.8-8.2-3.1
		c-1.7-0.3-3.4-0.1-5.1,0.3c0.9-0.7,1.8-1.3,2.9-1.7c1.7-0.5,3.5-0.4,5.2,0c0.1-0.1,0.2-0.3,0.3-0.4c-1.3-0.4-2.5-0.9-3.8-1.2
		c-2.3-0.4-4.8-0.5-6.8,0.8c0.2-2.6-0.4-6.1-3.1-7.3c-1.5-0.7-3.2-0.6-4.7-0.1c-3.3,1.2-5.3,4.5-6.7,7.6c-0.9,1.8-1,3.7-0.8,5.6
		c-4.7-0.8-9.2-2.6-13.2-5.2c-1.2-0.8-2.2-1.8-3.4-2.6c-1.6-1.2-2.7-2.9-4.3-4.2c-0.5-0.5-1.3-0.4-2-0.2c-3.3,1.4-5.7,4.1-8.2,6.6
		c-2.3,2.3-3.9,5.2-5.5,8c-1.5,2.2-2.3,4.7-3.3,7.1c-1.2,3.6-2.6,7.2-3,11c-0.6,3.5-1.7,6.8-2.3,10.3c-0.2,1,0.1,1.9,0.3,2.9
		c0.5,0.4,0.9,1,1.5,1c2.1,0.2,4.2,0,6.3,0.1c2.4,0.2,4.8,0.2,7.2,0.7c4,0.7,8,1.3,12,2.1c-0.3,1.3-0.7,2.6-0.6,4
		c0.2,2.3,0.5,4.7,1.5,6.9c1.3,2.7,2.7,5.4,4.9,7.4c2.9,3,6.7,5.6,11.1,5.9c1-0.8,2-1.7,2.1-3c0.1-2-0.6-4-0.9-6
		c1.5,1.8,3.6,3.1,5.8,3.7c0.3,0.1,0.6,0,0.8-0.2c-0.6-0.3-1.2-0.4-1.8-0.7c-1.9-1.6-3.2-4.1-2.9-6.6c3.7,2.4,8.2,3.3,12.5,3.1
		c1.4,1.8,2.4,4,1.9,6.3c-0.8,2.9-2.8,5.9-6,6.4c0.1,0.2,0.2,0.4,0.3,0.6c1-0.6,2.2-0.4,3.3-0.7c3.6-0.8,6.8-3.5,8-6.9
		c2.4,3,5.3,5.8,8.9,7.3c1.4,0.6,2.9,0.7,4.4,0.9c0.2,0.3,1.2-0.4,0.7-0.6c-1.7-0.3-3.5-0.2-5.1-1c-4-1.8-7.2-5-9.4-8.8
		c-0.7-1.1-0.8-2.4-1.5-3.5c-0.1,1.7,0.7,3.2,1.5,4.7c-0.9,3.8-4.3,6.6-8.1,7.3c1.6-1.7,3.1-3.7,3.4-6c0.4-2.1-0.5-4.4-1.9-6
		c0.8-0.1,1.8,0.2,2.4-0.6c-1.9,0-3.8,0-5.6-0.1c-4.8-0.3-9.5-2.3-12.9-5.8c-0.3-1.6-0.1-3.3,0-5c-0.2,0-0.6-0.2-0.7,0.2
		c-0.1,2-0.4,4-0.1,6c0.2,4,1.8,7.7,2.1,11.6c0,1.2-1,2.5-2.2,2.4c-2.5-0.3-4.9-1.4-6.9-3.1c-1.2-0.9-2.5-1.9-3.5-3.1
		c-2.8-3.2-5.1-7.2-5.1-11.6c-0.4-2,0-4,0.5-6c-2.1-0.1-4.1-0.7-6.2-1c3.4-3.6,5.7-8.2,8-12.5c1.3-2.9,2.8-5.6,4-8.5
		c1.5-3.8,3.2-7.4,4.3-11.3c0.4-1.4,0.7-2.9,1.2-4.3c2.3,1,4.7,1.5,7.2,1.6c1.8,0.4,3.6,0.3,5.5,0.2c-4.5,5.9-9.3,11.6-13.5,17.7
		c-3.1,4.5-6.4,9-9.2,13.7c-0.3,0.5-0.5,1-0.6,1.5c0.9-0.7,1.3-1.8,1.9-2.7c1.2-2,2.6-3.9,3.9-5.9c4.5-6.5,9-12.9,14-19
		c2.2-2.6,4.2-5.3,6.2-8c1.1-1.5,2.3-3.2,2.3-5.2c0-0.9,0.1-2.1-0.7-2.8c0,1.1,0.4,2.2,0.2,3.3c-0.3,2-1.7,3.6-2.8,5.2
		c-0.4,0.5-0.7,1-1.2,1.4c-2.2,0.6-4.6,0.3-6.8-0.3c-0.5-3.9,1.5-7.6,4-10.5c1.4-1.2,2.9-2.4,4.9-2.5c1.3-0.2,2.6,0.1,3.6,0.9
		c1.7,2.7,1.9,6.1,0.9,9.1c-1.3,4-3.3,7.7-5.8,11c0,0.2-0.1,0.7-0.1,0.9c-1.7,5.7-3.6,11.4-5.5,17c-1.2,3.6-2.7,7-3.8,10.6
		c0,1.3-0.6,2.7,0.3,3.8c0.1-1.7,0.6-3.3,1.2-4.9c1-1.5,2.3-2.8,3.9-3.6c2.3-1.2,4.7-2.2,7.3-2.6c2.3-0.6,4.6-0.9,6.9-1.2
		c0.4-0.1,0.7-0.4,1.1-0.6c-3.6,0.1-7.1,1-10.5,1.8c-3.2,1-6.4,2.4-8.5,5.1c1.1-3.1,2-6.3,3.2-9.4c0.6-1.5,1-3,1.5-4.5
		c0.4-1.2,1.7-1.6,2.8-1.8c3.1-0.1,6.1,1.4,7.9,3.9c0.4,0.6,0.6,1.4,1.3,1.7c-0.4-1.8-1.6-3.3-2.5-4.8c-1.7-2.6-4.2-4.9-7.3-5.3
		c0.5-1.9,1.1-3.8,1.7-5.8c2.6,4.1,7.3,6,11.5,8c1.1,0.4,2,1.2,3.2,1.5c-0.2-0.3-0.4-0.6-0.8-0.8c-2-1.3-4.2-2-6.3-3.1
		c-2.8-1.4-5.7-3.2-7.2-6c0.9-1.7,2.2-3.2,3-5c0.6-1.2,1.1-2.4,1.5-3.6c0.1-0.3,0.2-0.7,0.6-0.8c2-0.9,4.1-1.3,6.3-1.6
		c3.3-0.1,6.4,1.4,9.2,3c1.5,0.9,3.3,0.5,4.9,0.1c0.1-0.2,0.3-0.5,0.4-0.6c-1.3,0.4-2.6,0.4-4,0.4c0.8-0.9,1.5-2,1.7-3.2
		c-0.1-1.8-1-3.6-2.6-4.5c2.3-0.1,4.6,0.8,6.3,2.4c-0.4,0.4-0.7,0.9-0.8,1.5c0.9-0.6,1.4-1.7,2.4-2.3c2.1-1.5,4.8-2.3,7.4-2.1
		c-1.6,0.8-3.4,1.2-4.7,2.5c0.5-0.1,0.9-0.2,1.3-0.4c1.7-0.9,3.5-1.7,5.4-1.8c2.5,0.2,4.8,1.3,6.8,2.6c-0.2,0.2-0.4,0.3-0.6,0.5
		l0-0.6c-2.2-0.2-5.1-0.4-6.4,1.7c1-0.3,1.9-1.1,3-1c3.5,0,6.7,2.8,7.3,6.2c-1.7-1.8-4.1-3.1-6.7-2.9c-1.1,0-2.5,0.3-2.9,1.4
		c1-0.3,1.9-1.1,3-0.6c1.9,0.8,3,2.9,3.2,4.9c-1.6,0.7-3.3,1.3-5,1.9c-1.1-1.9-2.2-3.7-3.7-5.3c-1.7-1.5-3.6-3-5.9-3.5
		c-1.5-0.3-3.4-0.4-4.4,1c0,0.6-0.1,1.2,0.1,1.8c1.2,1.8,3.4,2.5,4.7,4.1c0.6,0.7,0.9,1.5,1.2,2.3c-4.2-2.7-9-4.1-13.9-4.9
		c-2.8-0.4-5.7-1-8.5-0.6c-1.7,0.1-3.4,0.3-4.9,0.9c-0.2-0.3-0.4-0.7-0.7-0.9c0,1.8,1.4,3.3,2.5,4.5c1.9,2.4,4.5,4.1,7,5.9
		c3.5,2.5,7.6,4.4,10.8,7.4c0.9,1,2.1,2.2,2,3.7c-0.6,0.7-1.6,0.7-2.4,1c-3.1-2.1-6.9-3.1-10.6-3.1c0.2,0.3,0.4,0.4,0.7,0.4
		c2.9,0.3,5.8,1,8.4,2.3c1.1,0.6,2.2,1.5,2.5,2.8c0,0.9-0.9,1.4-1.6,1.7c-1.4,0.5-2.7,0.8-4.1,1.2c-1.7,0.5-3.4,0.7-5,1.3
		c-5.1,2-10.3,4-15.2,6.5c-1.9,0.9-3.6,2.3-4.8,4.1c-0.7,1.2-0.8,2.7-0.8,4.1c0,0.3,0.2,0.5,0.5,0.6c0.1-1.3,0-2.6,0.4-3.8
		c1.4,1.4,3.3,2.2,5,3.1c1.8,0.8,3.6,1.6,5.5,2c2.1,0.5,4.3,0.9,6.4,1.1c4.3,0.3,8.7,0.3,12.7-1.5c-0.2,0.2-0.7,0.5-0.9,0.6
		c0.2,0.1,0.4,0.3,0.6,0.4c1.3-1.6,3-2.6,4.5-4c0.3-0.4,0.8-0.1,1.2,0c2.7,1.1,5.8,0.9,8.3-0.6c0,0.5,0,1-0.1,1.5l0.5,0.1
		c0-1.5,0.1-3-0.1-4.6c-0.4-8.1,0.6-16.2,3.4-23.8c0.5-1.4,1.3-2.6,1.7-4c-0.3,0.3-0.6,0.6-0.8,1c-1.3-2.4-3.7-4.1-6.4-4.4
		c-1.3,0.1-2.1-1-3-1.7c-0.3-1-0.7-2-1.3-2.9c-1.4-1.9-3.9-2.6-5.1-4.6c0-0.3,0-0.8,0-1c1.6-1.3,3.8-0.6,5.5,0c3.4,1.6,6,4.6,7.5,8
		c-0.9-0.1-1.5-0.7-2.2-1.2c-1.9-1.5-4.2-2.6-5.8-4.4c0.1-0.3,0.3-0.7,0.4-1c-0.2,0.1-0.5,0.2-0.7,0.3c0,0.4,0,0.8,0,1.2
		c2.2,2,4.8,3.5,7.2,5.3c-0.4,0.1-0.6,0.4-0.8,0.7c3.1-0.6,6-1.9,8.9-3c1.1-0.4,2.3-1,3.5-0.7c1,0.6,1.5,1.8,1.4,2.9
		c-0.3,2.7-0.9,5.3-2.1,7.7c-1.7,3.7-3.3,7.5-4.8,11.3c-0.8,2.1-1,4.3-1.4,6.4c-0.7,2.8-0.4,5.8-0.4,8.7c-0.1,2.4,0.2,4.8,0.6,7.2
		c0.1,1.2,0.2,2.5-0.7,3.4c1.6,3.3,3.3,6.6,5.3,9.7c1.3,2.2,2.6,4.4,4.3,6.2c0.3,0.4,0.6,0.4,1,0.1c-0.5-1-1.3-1.8-2-2.7
		c-1.1-1.5-2-3.1-3-4.7c2.8,0.1,5.6,0.6,8.5,0.4c7.8-0.1,15.8-0.9,23-4.1c2.1-1.1,4.3-2.2,6-3.9c0-0.1-0.1-0.3-0.1-0.5
		c-0.7,0.1-1.4,0.1-2.1-0.2c0-0.1,0.1-0.3,0.2-0.4c-0.4,0-0.8,0-1.2-0.2c-2-1.1-3.9-2.5-5.5-4.1C164,97.8,164.8,96.5,165.3,95.1z
		 M213.4,60.8c0.4,0.3,0.8,0.7,1.1,1.1c0.1,0.7,0,1.4-0.2,2.1c-0.3-0.3-0.6-0.5-0.9-0.8C213.4,62.4,213.4,61.6,213.4,60.8z
		 M213.8,64.2c-0.9,0-1.9,0.2-2.5-0.6C212.1,63.6,213.2,63.4,213.8,64.2z M211.1,64.2c0.3,0.3,1,0.4,1,0.9c-0.1,3.6-1.6,7-3.8,9.8
		c-0.7,0-1.3,0-2-0.1C209.2,72.1,210.9,68.2,211.1,64.2z M206.3,65c-0.1,0.3-0.1,0.5-0.2,0.8c-1-0.1-2.5,0.6-3.1-0.6
		C204.1,65.2,205.2,65.1,206.3,65z M201.1,71.4c0.9-1.9,1.1-4,1.3-6.1c0.2,0.4,0.5,0.7,0.6,1.1c-0.1,2.2-0.7,4.4-1.8,6.3
		c-0.8,1-2,1.6-3.3,1.9C199.1,73.7,200.4,72.8,201.1,71.4z M195.4,56.5c0,1.3,0,2.6,0,4c-0.1-0.1-0.4-0.3-0.6-0.5
		c0-1.5-0.4-3-0.4-4.5C194.7,55.9,195.1,56.2,195.4,56.5z M194.6,60.5c0.1,0.1,0.4,0.2,0.5,0.3c-1,0.6-1.7,1.4-2.4,2.2
		c-0.2,0.1-0.7,0.2-0.9,0.3C192.3,62,193.4,61.1,194.6,60.5z M75,98.1c0.9,0.7,1.8,1.4,2.7,2.1c-0.7,2.3,0.5,4.7,2,6.4
		c-1.6-0.9-2.9-2.1-4-3.6C75.6,101.3,75,99.8,75,98.1z M32.1,79.3c0.6-2.2,1.1-4.4,1.6-6.7c0.5-4,1.9-7.9,3.2-11.7
		c0.9-2.1,1.6-4.3,2.9-6.3c0.8-1.2,1.4-2.5,2.2-3.7c2.2-3.1,4.7-6.2,7.6-8.7c1.3-0.9,2.6-2,4.2-2.4c-1.2,6.4-3.7,12.4-6.5,18.3
		c-1.9,3.8-3.6,7.8-5.9,11.4c-1.7,3.3-3.8,6.4-5.8,9.5c-1.3,1.8-2.4,3.8-4.1,5.3C31.2,82.8,31.8,81,32.1,79.3z M52.3,87.4
		c-1.6-0.4-3.3-0.5-4.9-0.8c-2.2-0.5-4.4-0.7-6.6-0.9c-3.1-0.3-6.2,0.4-9.3-0.5c2.3-2.1,3.9-4.8,5.6-7.3c0.5-0.7,1.4-0.4,2.1-0.4
		c6,0.6,11.9,2.2,17.6,3.9C55.5,83.5,54.1,85.6,52.3,87.4z M57.1,80.9c-5.2-1.6-10.6-3-16-3.8c-1.1-0.1-2.3-0.2-3.4-0.1
		c2.3-3.4,4.2-7,6.3-10.5c2.3,0.5,4.6,0.6,6.8,1.2c3.9,0.8,7.6,2,11.4,3.3C60.7,74.3,59,77.7,57.1,80.9z M62.5,70.5
		c-5.9-2.1-12-3.8-18.3-4.4c1.7-3.6,3.6-7.2,5.2-10.9c4.5,4.3,10.3,7,16.4,7.9C64.7,65.5,63.8,68.1,62.5,70.5z M66.1,62.3
		c-1.8,0.1-3.5-0.5-5.2-1c-4.2-1.2-8-3.7-11.3-6.5c1.2-3,2.5-6,3.4-9.1c2.7,3.5,6.7,5.8,10.6,7.7c1.6,0.8,3.3,1.3,5.1,1.8
		C67.9,57.6,67,59.9,66.1,62.3z M68.8,54.5c-2.5-0.4-4.8-1.5-7-2.7c-3.3-1.6-6.4-3.8-8.6-6.8c0.5-1.7,0.9-3.4,1.3-5.1
		c1.6,1.2,2.6,3.1,4.3,4.3c3.3,2.7,7,4.9,11,6.3C69.6,51.9,69.3,53.3,68.8,54.5z M90.4,72c-2.4-1.9-5.9-3-8.8-1.5
		c0.5-1.4,1-2.7,1.4-4.1C86.3,66.7,88.8,69.3,90.4,72z M90.5,49.3c0.3-1,0.5-1.9,0.6-2.9c1-0.6,2-1,3.1-1.2c1.6-0.3,3.1,0.1,4.7,0.3
		c-1.4,0.2-2.9,0.4-4.1,1.2c-0.9,0.4-1.5,1.2-2.3,1.8C91.9,48.8,91.2,49,90.5,49.3z M129.8,46.7c-0.4,0-0.7-0.2-1-0.3
		c0.3,0.1,0.9,0.2,1.2,0.2C129.9,46.7,129.9,46.7,129.8,46.7z M99.7,62.4c0.3-0.5,0.6-0.6,1-0.3c0.5,0.1,0,0.7,0.1,0.9
		C100.3,63,99.8,62.9,99.7,62.4z M100.8,63.4c0.2-0.1,0.5-0.3,0.7-0.5c0-0.2,0-0.7,0-0.9c-0.2-0.2-0.4-0.4-0.7-0.7
		c-0.2,0-0.7,0-0.9,0c-0.3,0.3-0.5,0.6-0.8,1c-0.3-0.3-0.7-0.6-1-0.8c1.9-2.1,5.1-2.1,7.6-1.5c2.9,0.9,6,2.5,7.2,5.5
		c-0.3,0.7,0,1.8-0.8,2.3c-1.1,0.7-2.5,0.5-3.7,0.7C106,66.6,103.3,65.1,100.8,63.4z M110.9,78c0.3-1.1-0.5-2-1.2-2.8
		c1.2,0.1,2.4-0.4,2.9-1.6c-0.6-1.9-2-3.6-3.6-4.8c1.3,0.1,2.5-0.2,3.7-0.7c-0.1,1.7,0.6,3.3,1.2,4.9c-0.5,0.5-1.2,0.8-1.5,1.5
		c-0.6,1.3-0.1,2.8,0.3,4.1c-1.6,1-2.7,2.5-3.6,4.1c-0.5-1.1-1.4-1.9-2.4-2.5C108.2,79.9,110.2,79.6,110.9,78z M95.5,83.8
		c2.2-0.7,4.2-1.9,6.5-2.3c1.4-0.3,2.7-0.8,4.1-0.9c1.1,0.5,2.2,1.5,2.6,2.7c0.1,1.2-0.1,2.3-0.2,3.5c-1.6,1.1-3.4,1.9-5.3,2.3
		c-2.9,0.4-5.8,0-8.5-1.1c0.4-0.4,0.7-0.9,1-1.3c-0.4-0.6-0.9-1.3-1.7-1.3c-0.7,0-1.2,0.7-1.4,1.3c-0.3-0.4-0.6-0.8-0.8-1.2
		C93.1,84.7,94.3,84.2,95.5,83.8z M94.3,87.6c-0.3-0.3-0.7-0.6-1-1c0.2-0.8,1.4-0.9,1.8-0.3C95.3,86.9,94.7,87.2,94.3,87.6z
		 M103.3,98.8c-8.1,0.6-16.7-1.2-23.3-6.1c1.6-2.9,4.8-4.2,7.6-5.5c1.3-0.5,2.6-1.2,3.9-1.6c0.6,0.9,1.1,1.8,2.1,2.3
		c3.6,1.9,8,2.6,11.8,1.1c1.2-0.4,2.3-1,3.3-1.7c0.2,3,2.1,5.5,4.6,7C110.7,97,107,98.1,103.3,98.8z M114.8,94.3
		c-2.6-1.3-4.9-3.8-5.2-6.8c-0.5-2.3,0.1-4.8,1.7-6.5c1.4-1.9,4.1-2.9,6.4-2.4c1.6,0.4,3,1.3,4.2,2.4c0.5,0.6,1.2,1.3,1.1,2.1
		c-0.2,2-0.1,4-0.1,6c0,1.4-0.1,2.8,0.2,4.2C120.7,95.1,117.4,95.3,114.8,94.3z M123.1,81.2c-2.3-2.9-6.5-4.6-9.9-2.8
		c-0.4-1.2-0.6-2.5-0.2-3.7c0.4-0.5,1.1-1.5,1.8-0.8c1,0.9,2.1,1.7,3.4,2c1.9,0.6,3.9,0.4,5.8-0.1C123.6,77.7,123.3,79.4,123.1,81.2
		z M125.2,62.5c0.8,0.8,1.5,1.7,2,2.7c-1.4,3-2.3,6.2-3,9.4c-0.6,0.9-1.9,0.9-2.9,1c-3.5,0.4-7-2-7.7-5.5c-0.3-2.2-0.3-4.7,1.2-6.4
		c1.4-1.8,3.6-2.8,5.9-2.8C122.2,61,123.9,61.4,125.2,62.5z M119.6,60.3c-2.6,0.2-5.2,1.9-6.4,4.3c-1.8-2.8-4.8-4.5-8-5.3
		c-2.7-0.5-5.8-0.3-7.7,1.9c-2.8-2-5.4-4.3-7.2-7.2c2-0.8,4.2-0.8,6.3-1.1c3.9,0.2,7.8,0.9,11.7,1.8
		C112.4,56.1,116.3,57.7,119.6,60.3z M131.1,55.4c-0.1-0.5-0.2-0.9-0.3-1.4c-0.5-1.4-1.5-2.5-2.6-3.5c2.4,0.4,4.7,1.7,6,3.9
		C133.2,54.7,132.2,55,131.1,55.4z M195,39c2.4-2.5,5.1-4.8,8.3-6.2c1.5-0.6,3.1-1.3,4.7-0.9c1.3,0.3,2.6,0.7,3.8,1.5
		c-2.3-0.2-4.5,0.6-6.6,1.3c-0.9,0.4-1.9,0.7-2.5,1.6c1.3-0.3,2.4-1.2,3.8-1.5c2.4-0.9,5.3-1.3,7.6,0c1.1,0.5,2,1.4,2.5,2.5
		c0.2,0.9,0.1,1.8,0.1,2.7c-0.1,1.5,1,2.9,1,4.4c0,1.4-0.1,2.9-1,3.9c-0.9,1.3-2.6,1.3-4,1.6c-3.4,0.1-6.7-0.6-10.1-1
		c-2.1-0.4-4.2-0.6-6.2-1c-1.6-0.3-3.1-0.7-4.7-0.9c0.1-1.7-0.1-3.6-1.4-4.8C191.7,40.9,193.7,40.4,195,39z M189.5,42.3
		c1.4,0.8,1.6,2.6,1.8,4c0.1,0.7-0.8,1.6-1.4,0.8c-0.3-1.4-0.8-2.8-1.4-4.2C188.8,42.8,189.1,42.5,189.5,42.3z M175.4,45
		c-0.2-0.8-0.1-1.7-0.1-2.5c0.4-0.2,0.8-0.3,1.2-0.2c2.2,0.4,4.4,0.4,6.6,0.2c1.8-0.2,3.6,0.6,5.2,1.5c-1.7,0.1-3.4-0.5-5-0.2
		c1.7,1,4,0.2,5.7,1.3c-1.4,0.6-2.8,1.2-4.2,1.6c-1.1,0.3-2.1,1-2.9,1.8c1.2-0.1,2.1-1.1,3.2-1.3c1.4-0.4,2.7-0.9,4-1.5
		c0,0.4,0.1,0.8,0.1,1.2c-2.4,1.9-5,3.6-7.6,5.4c-0.7,0.4-1.4,0.9-2.2,0.9c-0.3-0.2-0.6-0.5-0.9-0.7c0.4-0.9,0.2-1.8,0-2.7
		c-0.2-1.2-0.9-2.3-1.9-3c0.2,1.1,1.2,1.9,1.4,3c0.2,0.8,0.1,1.7,0.1,2.5c-0.4-0.1-0.8-0.3-1.2-0.4c-0.2-0.5-0.5-0.9-0.7-1.4
		c-0.1-1,0.5-1.9,0.3-2.9C176.2,46.7,175.7,45.9,175.4,45z M137.6,47.9c0.5-0.1,1-0.3,1.6-0.4c0.4,0.5,0.4,1.2,0.4,1.8
		c-0.7,0.4-1.6,0.4-2.5,0.4C137.2,49.2,137.4,48.5,137.6,47.9z M135.7,54.5c0.2-0.7,0.4-1.4,0.6-2.2c1.3,0.5,2.6,0.3,3.8-0.4
		c0.7,0.6,1.5,1.2,2.5,1.3c1,0.2,2-0.3,2.9-0.7c-1.8,1.9-3.8,3.6-5.3,5.7c-0.7-0.9-1.7-1.6-2.8-1.7C137,55.8,136.4,55.1,135.7,54.5z
		 M150.6,63.8c0.8,3.3,2.3,6.5,3.6,9.6c0.7,1.7,1.1,3.5,1.6,5.3c-4.9-1.7-10.2-2.9-15.4-1.8c-1,0.2-1.9,0.6-2.7,1.2
		c-0.6-0.7-1.3-1.3-2-1.9c1.3-3.2,2.8-6.3,3.9-9.5c0.8-2.3,1.4-4.8,0.8-7.2c1.8-2.1,3.7-4.3,5.8-6.1c1.2,0.4,2.7,0.5,3.9-0.1
		C149.5,56.7,150.1,60.3,150.6,63.8z M176.2,75.5c-0.9,0.3-1.4,1.1-1.8,1.9c-2.3,1-4.5,3.1-4.5,5.8c-0.5,0.3-0.9,0.6-1.3,0.8
		c0.2-2-1.1-3.8-2.7-4.8c-1.4-1-3.4-1-5-0.5c-0.9,0.4-1.5,1.2-2,2c-1.3,3.1,1.5,7.4,5.1,6.7c-0.1,0.5-0.3,1-0.4,1.4
		c-2.6-0.3-5.2,1.5-6.3,3.8c-1.7-2.7-1.6-6-1.1-9c0.1-0.9,0.7-1.7,0.6-2.6c-4.2,1.1-8,3.2-12,4.7c-3.9,1.7-8,3.2-11.9,5.1
		c0.3-4.8,1.7-9.5,2.8-14.2c2.1,2.1,4.8,3.6,7.6,4.4c1.2,0.3,2.5,0.8,3.7,0.7c-0.5-0.6-1.4-0.6-2.1-0.8c-2.3-0.5-4.4-1.4-6.4-2.5
		c3.4-1.5,7.2-1.2,10.8-0.7c2.6,0.4,5.1,1.4,7.6,2.2c-0.3-3.2-1.3-6.3-2.7-9.2c2,0,3.7-1.3,5-2.8c0.5-0.7,1.4-1.4,1.2-2.4
		c-1.2,0.2-2.3,0.8-3.5,0.5c-2.1-0.2-4-1.5-5.4-2.9c-0.4-0.3-0.4-1,0-1.3c1.5-1.4,3.4-2.5,5.4-2.8c4.3-1,9-0.9,13.1,1.1
		c3.3,1.6,6.5,3.5,9,6.2c-0.3,1.3-0.2,2.7,0.5,3.9C177.4,71.3,175.9,73.3,176.2,75.5z M167.8,84.2c-1.5,0.4-2.6,1.5-3.6,2.7
		c-1.1,0-2.3,0-3.2-0.8c-1.1-1.1-2.1-2.7-1.6-4.3c0.3-1.8,2.3-2.7,3.9-2.7C165.8,79.4,168.1,81.6,167.8,84.2z M153.8,70.1
		c-0.8-1.9-1.7-3.8-2.3-5.8c2.2,2,5.4,3.1,8.3,2.1C158.3,68.3,156.5,70.7,153.8,70.1z M177.2,63.9c-3.8-3.5-8.7-5.7-13.8-6
		c-2.3-0.2-4.6,0.2-6.9,0.6c-2.1,0.5-4.2,1.5-5.6,3.2c-0.4-2.9-0.5-5.8-0.1-8.7c1.8,0.9,3.8,1,5.7,0.6c0.7,0.9,1.8,1.3,2.9,1.5
		c0.9-0.2,1.8-0.3,2.6-0.6c1.1,1.3,2.9,1.9,4.6,1.3c1,1.8,3.3,2.6,5.3,2c0.7,2.1,2.8,3,4.8,3.4c0.4,1.1,0.9,2.1,1.6,3
		c0.4,0.5,1.1,0.7,1.3,1.4C178.5,65.3,177.9,64.5,177.2,63.9z M128.8,95c-0.1-3.9-0.5-7.8,0.3-11.6c0.4-2,0.6-4,1.3-5.9
		c1.4-3.8,3.1-7.5,4.7-11.3c1.2-2.8,2.2-5.8,2.2-8.9c1.9,0.4,2.9,2.6,2.8,4.4c-0.3,3.1-1.6,6-2.8,8.8c-0.8,2.5-2.1,4.7-2.7,7.3
		c-1.1,4.6-2.4,9.3-2.4,14.1c0.2,2.2,0.7,4.4,0.1,6.6c-0.3,1.5-1.4,3.1-3.1,3.2C129.5,99.5,128.8,97.3,128.8,95z M128.9,102.6
		c1.9-0.4,3.9-1.7,4-3.8c0.6-2.3,0.1-4.7,0-7.1c4.9-1.8,9.8-4,14.6-6c2.7-1.2,5.5-2.2,8.2-3.5c-0.2,0.5-0.4,0.9-0.5,1.4
		c-0.3,3.3-0.6,6.9,1.4,9.7c-1.4,0.6-3,0.6-4.4,1.3c-1.1,0.6-2,1.5-2.3,2.7c-0.8,0.6-1.7,1.4-2.7,0.7c-2.1,0.3-3.7,1.9-4.7,3.7
		c-0.7,0.2-1.4,0.5-2.1,0.9c-1.7-0.4-3.6-0.4-5.3,0.3c-0.7,0.3-1.2,1-1.5,1.7c-1.2-0.1-2.2,0.4-3.2,1.1
		C130,104.7,129.4,103.7,128.9,102.6z M166.5,102.3c1.1,0.6,2.1,1.1,3.2,1.6c-6.3,4.8-14.3,6-22,6.8c-3.2,0-6.4,0.5-9.5,0
		c1.4-0.5,2.6-1.4,3.2-2.8c0.9,0.2,1.8,0.3,2.6-0.2c1-0.8,2.4-0.2,3.6-0.7c1.6-0.5,2.7-1.8,3.2-3.4c0.7-0.1,1.3-0.5,1.7-1
		c1,0,1.9,0.1,2.9-0.2c1.3-0.5,2.3-1.6,2.8-2.9c0.6-0.3,1.1-0.6,1.6-1c0.1,0.1,0.3,0.2,0.4,0.3c0.6,0,1.2-0.2,1.8,0
		C163.5,100.1,164.9,101.4,166.5,102.3z M162.8,97.7c-1,0.7-2.3,0.4-3.5,0.5c-0.6,0.6-1.6,0.6-1.8,1.4c-0.6,1.7-2.5,2.8-4.3,2.6
		c-1.1-0.2-2,0.7-2.9,1.2c-0.4,1.2-1,2.3-2.2,2.9c-1.2,0.8-2.9,0-4.1,0.9c-0.9,0.7-2,0.5-3,0.1c-0.3,1.3-1.3,2.4-2.6,2.8
		c-1,0.3-1.9,0-2.9-0.2c-0.5,0.1-0.8,0.6-1.3,0.7c-0.4,0-0.8,0-1.2,0c-0.9-1.4-1.7-2.9-2.3-4.4c0.9-0.6,2-1,3.1-0.9
		c0.4-0.6,0.8-1.1,1.2-1.6c1.4-0.4,3-0.9,4.5-0.5c1.2,0.5,2.2-0.5,3.2-0.8c0.8-1.4,1.9-2.7,3.5-3.3c0.8-0.3,1.6,0,2.3,0.3
		c0.5-0.4,1-1,1.8-1.1c0.4-2.6,3.3-3.8,5.7-3.7c0.1-0.2,0.3-0.5,0.4-0.6c0.5,0,0.9,0,1.4,0c0-0.5,0.1-1,0.1-1.4
		c1.3-2,3.7-3.2,6.2-2.9c-0.1-2,1.3-3.6,2.9-4.4c0.7-0.3,1.5-0.2,2.1-0.7c0.4-0.3,0.9-0.5,1.4-0.7c-0.1-0.2-0.2-0.6-0.3-0.8
		c0.5-2.3,2.3-4,4.4-4.9c0.5-0.9,1-1.7,2-2c0-1.1-0.1-2.3,0.6-3.2c0.6-0.9,1.6-1.5,2.6-1.9c-0.3-1.2-0.9-2.4-0.6-3.7
		c0.2-0.8,0.4-1.6,0.6-2.4c-1.9-0.4-2.8-2.5-3-4.3c-2.2,0.4-4.4-1.1-5-3.2c-1.9,0.6-4.3,0.1-5.3-1.9c-1,0-2.1,0.2-3.1-0.2
		c-0.7-0.2-1.2-0.9-1.8-1.3c-1.8,1.1-4.2,0.8-5.5-0.9c-1.9,0.6-3.9,0.5-5.6-0.6c-0.8,0.4-1.6,1-2.5,0.9c-1.1,0.1-2.2-0.6-3-1.3
		c-0.7,0.4-1.5,0.7-2.3,0.9c-1.2-0.1-2-0.7-2.9-1.4c-1.1,0.7-2.4,0.7-3.6,0.6c0-0.6,0.2-1.2,0.3-1.8c1.1,0.4,2.6,0.5,3.2-0.8
		c0.3,0.2,0.7,0.8,1.1,0.5c0.3-0.2,0.6-0.4,0.8-0.7c-0.4-0.6-1.2-1-1.8-0.4c0-0.2,0-0.7,0-0.9c-0.5-0.8-1.5-0.7-2.3-0.7
		c0.3-0.8,1-1.5,2-1.5c0.7,0.2,1.3,0.6,1.8,1.2c0.8-0.4,1.7-0.8,2.6-0.7c0.9,0,1.4,0.8,2,1.3c1.1-0.6,2.1-1.3,3.4-1.2
		c1.4,0,2.8,0.7,3.7,1.8c1.6-1.3,4.1-0.9,5.2,0.8c0.7-0.3,1.3-0.7,2.1-0.9c1.3-0.1,2.6,0.5,3.4,1.4c1.1-0.2,2.3-0.5,3.4-0.1
		c0.8,0.3,1.3,1.1,1.8,1.7c1.7-0.5,3.6-0.1,4.7,1.4c1,0,2-0.1,3,0.1c1.7,0.4,2.9,2,3.3,3.6c1,0.3,2.2,0.5,2.9,1.4
		c1.3,1.4,1.5,3.4,1.3,5.2c0.6,0.3,1.4,0.6,1.5,1.3c0.1,1,0.1,1.9,0.1,2.9c0.1,0.9-0.8,1.3-1.3,1.9c0,1.2-0.8,2.1-1.3,3.1
		c0.1,0.9,0.4,1.9,0.2,2.8c-0.4,1.9-1.7,3.6-3.4,4.3c-0.7,0.3-0.7,1.2-1.2,1.6c-0.5,0.3-1,0.5-1.5,0.7c0.8,2.5-1.3,5.2-3.8,5.6
		c-0.4,0.8-0.8,1.8-1.9,1.8c0.1,2-1.6,3.5-3.2,4.3c-0.9,0.6-2.3,0.2-3,1.3c-0.2,0-0.6,0.1-0.8,0.1C164.5,95.7,164.1,97.1,162.8,97.7
		z"/>
	<path d="M68.8,77.4c1.2-1.9,2.7-3.5,4-5.3c0.8-1.1,1.8-2.1,2.4-3.4c-1.2,0.7-1.9,1.9-2.7,3c-1.5,2.1-3.3,4-4.5,6.2
		c-2.1,3.6-4.3,7.3-4.9,11.5c-0.6,3-0.3,6.2,0.7,9.1c1.1,2.9,3.5,5.1,6,7c0.4,0.3,0.9,0.5,1.4,0.6c-0.7-0.9-1.6-1.5-2.4-2.1
		c-1.7-1.4-3.2-3-4.1-5c-0.9-2-1.1-4.2-1.3-6.4c0.1-1.6,0.3-3.3,0.7-4.9C64.8,83.9,66.8,80.6,68.8,77.4z"/>
	<path d="M83.8,61c0.1-0.4,0.1-0.8,0.2-1.2c-1.3,1.6-2.6,3.2-4,4.6c-1,1.1-2.2,2-3,3.3c0.4-0.1,0.8-0.2,1.1-0.5
		c0.9-0.9,1.8-1.8,2.7-2.7C81.8,63.4,82.6,62.1,83.8,61z"/>
	<path d="M131.2,112.2c0.4-0.4,0.4-0.9,0.5-1.4c-0.9,0.5-1.3,1.4-2.1,1.9c-2.2,1-4.7,0.6-7,0.3c-2.6-0.6-5.3-1.3-7.2-3.3
		c1.1-0.4,2.3-0.9,3.2-1.7c1.4-1,2.2-2.4,3.2-3.8c2,0.8,4.5,1.1,6.3-0.4c-0.2-0.2-0.4-0.4-0.6-0.6c-1.2,0.9-2.8,1-4.3,0.7
		c-1.6-0.7-3.1-1.7-4.8-2.1c-1.3-0.2-2.5-0.4-3.8-0.3c-2.5,0.4-5.2,0.4-7.6,1.4c-0.9,0.5-2,1.2-1.8,2.4c1.8,0.2,3.7-0.4,5-1.7
		c-1.6,0.2-3,1.3-4.6,1.3c0.2-0.9,1.1-1.3,1.9-1.7c2.2-0.9,4.7-0.8,7.1-1.1c1.4-0.2,2.8,0.1,4.2,0.3c-2.8,0.6-4.9,2.8-7.3,4.1
		c-2.5,1.5-5.6,1.5-8.3,0.7c-0.5-0.4-1.3-0.8-1.4-1.6c-0.1-0.9-0.1-1.9,0.4-2.8c1.4-2.2,3.9-3.2,6.3-3.9c0-0.2,0.1-0.5,0.2-0.7
		c-2.2,0.9-4.6,1.7-6.2,3.6c-1.2,1.2-1.3,2.9-1.2,4.5c0.9,1.2,2.3,1.9,3.8,2c1.9,0.1,3.9,0.2,5.7-0.6c1.4-0.6,2.7-1.4,3.9-2.4
		c1.3-1,2.8-1.7,4.2-2.3c0.9-0.3,1.8,0.1,2.5,0.6c-1.6,2.3-3.8,4.4-6.5,5.1c-0.2-0.5-0.4-1-0.6-1.5c-0.1,0.1-0.2,0.3-0.3,0.4
		c0.2,1.3,0.8,2.6,2,3.3c2.7,1.9,5.9,2.6,9.1,2.9c1.5,0.3,2.9,0,4.4-0.4c-0.8,1.2-1.8,2.3-3.2,2.8c-3.1,1.7-6.8,0.6-9.9-0.7
		c-1.3-0.5-2.4-1.7-3.8-2c2.4,2.3,5.6,3.6,8.8,3.9v0.2c-2.1,0.4-4.2,0.2-6.3-0.2c-0.7-0.1-1.4-0.8-2.1-0.6c-0.1,0.1-0.2,0.3-0.3,0.4
		c1.5,0.8,3.1,1.2,4.7,1.3c2.9,0.6,5.7-0.9,8.5-0.9c0-0.1-0.1-0.2-0.1-0.3c1.1-0.4,2.1-1,2.9-1.9
		C129.7,114.6,130.2,113.3,131.2,112.2z"/>
	<path d="M115.3,92.8c-1.9-1.3-3-3.4-3.6-5.5c-0.4-1.7-0.1-3.5,0.3-5.2c-0.3,0.1-0.5,0.3-0.6,0.6c-0.8,2.6-0.4,5.5,1.1,7.8
		c0.9,1.4,2.1,2.9,3.9,3.3C116.1,93.4,115.7,93.1,115.3,92.8z"/>
	<path d="M114.9,70.7c0.1-1.2-0.1-2.5,0.3-3.6c0.7-2.2,2.6-3.9,4.8-4.5c1.3-0.4,2.6-0.1,3.9-0.2c-0.9-0.9-2.3-0.7-3.4-0.4
		c-3.1,0.5-6,3.2-6.1,6.4C114.5,69.1,114.2,70.1,114.9,70.7z"/>
	<path d="M133.8,106.6c-0.6,0.2-1,1-0.5,1.6c0.4,0.4,1.1,0.5,1.5,0.1C135.6,107.6,134.7,106.1,133.8,106.6z M133.6,107.8
		c-0.4-0.5,0.5-0.7,0.8-0.9c0,0.3,0,0.8,0,1.1C134.2,107.9,133.8,107.8,133.6,107.8z"/>
	<path d="M140.1,104.3c-1.5-0.5-3.3,0.1-4.2,1.4c0.2,0.4,0.5,0.7,0.8,1c0,0.6-0.1,1.3-0.3,1.9c1.4,0.7,3.6,0,4.2-1.6
		C140,106.2,139.5,105.3,140.1,104.3z M140,107.1c-0.7,1-1.9,1.3-3,1.2c0.7-0.9-0.1-1.8-0.3-2.7c0.7-0.7,1.7-0.8,2.6-0.8
		C139.3,105.5,139.4,106.4,140,107.1z"/>
	<path d="M142.3,47.9c0.1,0.7,0.1,1.4,0,2.1c-0.4,0.3-1.1,0.4-0.9,1c1,0.2,2.1,0.3,3.1-0.1c0.4-0.4,0.1-1,0.1-1.5
		c0.4-0.5,0.8-1,1.3-1.4C144.9,47,143.4,47.5,142.3,47.9z M144.1,50.5c-0.7,0.1-1.3,0.2-2,0.2c0.3-0.3,0.5-0.7,0.8-1
		c0-0.5,0-1-0.1-1.5c0.7-0.3,1.5-0.3,2.2-0.3C144.3,48.5,143.8,49.5,144.1,50.5z"/>
	<path d="M142,103.8c-0.5,0.4-0.3,1.1-0.4,1.7c0.5,0.3,1,0.7,1.6,0.5c1.1-0.2,1.6-1.8,0.6-2.5C143.3,102.9,142.5,103.4,142,103.8z
		 M143.6,105.4c-0.4,0-0.9,0-1.3,0c-0.1-0.3-0.2-0.6-0.3-0.9c0.2-0.2,0.5-0.4,0.7-0.7c0.2,0,0.7,0,0.9,0
		C143.9,104.3,143.9,104.9,143.6,105.4z"/>
	<path d="M148.2,100.2c-1.5-0.1-3.6,0.6-3.7,2.3c0.7,0.6,1.5,1.3,1.3,2.4c1.5,0.1,3.5-0.5,3.8-2.1
		C148.6,102.3,148.2,101.2,148.2,100.2z M146.4,104.5c-0.1-1-0.7-1.7-1.4-2.3c0.6-0.9,1.7-1.3,2.7-1.5c0,1,0.7,1.7,1.2,2.5
		C148.3,103.9,147.3,104.2,146.4,104.5z"/>
	<path d="M147.4,49.7c-0.5-0.1-1.2,0.2-1.4-0.4c0.5,0,0.9-0.2,1.2-0.6c-0.4-0.1-0.8-0.1-1.2-0.1c-0.4,0.4-0.3,0.9-0.4,1.4
		C146.3,50.4,146.9,50.5,147.4,49.7z"/>
	<path d="M147.8,48.1c-0.8,0.5,0.6,1.1,0.2,1.8c-0.1,0.7-0.9,0.8-1.1,1.4c0.9,0.5,2.3,0.7,3.2,0.1c0-0.7-0.1-1.4,0-2.1
		c0.4-0.3,0.7-0.6,1.1-0.9C150.4,47.4,148.9,47.5,147.8,48.1z M149.5,51.2c-0.5,0-1,0-1.5,0c0.7-0.8,0.8-1.9,0.3-2.8
		c0.7-0.2,1.5-0.2,2.2-0.2C149.6,49,149.4,50.1,149.5,51.2z"/>
	<path d="M150,99.3c-0.7,0.7-0.1,1.8,0.8,2.1c0.9-0.3,1.1-1.1,1-2C151.3,99.1,150.5,98.7,150,99.3z M150.2,100.3
		c-0.1-0.5,0.7-1.3,1-0.6C152,100.3,150.5,101.2,150.2,100.3z"/>
	<path d="M152.6,49.2c-0.6-0.9-2.1,0.4-1.4,1.1C151.9,51.3,153.7,50,152.6,49.2z M151.7,50c-0.2-0.5,0-0.7,0.6-0.5
		C152.4,50,152.2,50.2,151.7,50z"/>
	<path d="M155.2,97.8c0-0.6,0-1.3,0-1.9c-1.1,0.3-2.4,0.8-3.1,1.8c-0.5,0.6,0.2,0.9,0.6,1.3c0,0.5,0,1,0,1.5
		c1.6,0.3,3.4-0.3,4.2-1.8c-0.2,0-0.7-0.1-1-0.1C155.7,98.2,155.5,98,155.2,97.8z M153.3,100.1c0-0.3,0.1-0.8,0.1-1
		c-0.3-0.4-0.7-0.8-1-1.2c0.6-0.6,1.4-1,2.2-1.4c0,1.1,0.5,2.1,1.5,2.4C155.2,99.6,154.3,100,153.3,100.1z"/>
	<path d="M157.2,49.2c-0.7-0.8-2-0.9-3-0.6c-0.5,0.1-0.3,0.8-0.4,1.1c0,0.8-0.9,1.2-0.9,1.9c1,0.8,2.4,0.8,3.5,0.4
		C155.8,51.1,155.9,49.5,157.2,49.2z M155.5,50.2c0,0.5,0,1,0,1.5c-0.6-0.1-1.3-0.1-1.9-0.2c0.6-0.7,0.9-1.5,0.9-2.3
		c0.6,0,1.2,0,1.7,0C155.9,49.5,155.7,49.9,155.5,50.2z"/>
	<path d="M156.4,96.5c0.3,0.2,0.5,0.5,0.8,0.7c0.2,0,0.7,0,0.9,0c0.2-0.4,0.7-0.8,0.6-1.3c-0.2-0.4-0.5-0.7-0.8-1.1
		C157.1,95,156.5,95.7,156.4,96.5z M158,96.6c-0.1,0.1-0.4,0.3-0.6,0.4c-0.2-0.4-0.3-0.8-0.4-1.3c0.2,0,0.7,0,1,0
		C158,95.9,158,96.3,158,96.6z"/>
	<path d="M158.3,50.7c-0.3-0.3-0.7-0.9-1.2-0.7c-0.5,0.3-0.4,1,0.1,1.3C157.7,51.5,158,51.1,158.3,50.7z"/>
	<path d="M158.6,49.7c0,0.7,0,1.3,0,2c-0.2,0.2-0.4,0.4-0.6,0.6c0.8,0.7,2,0.9,2.9,0.4c0.4-0.2,0.3-0.7,0.4-1c0-0.7,0.6-1.2,1.1-1.7
		C161.4,49,159.9,49.2,158.6,49.7z M160.8,52.3c-0.7,0-1.3,0-2,0c0.2-0.3,0.3-0.6,0.5-0.9c0-0.4-0.1-0.8-0.1-1.3
		c0.8-0.3,1.6-0.3,2.4-0.1C161.1,50.7,160.7,51.4,160.8,52.3z"/>
	<path d="M162.4,90.9c-1.5,0.3-3.2,1.2-3.6,2.8c0.5,0.3,1,0.8,1.3,1.3c0,0.5-0.6,1.3,0,1.7c1.6-0.2,3.3-1.2,3.9-2.8
		C162.8,93.5,162.5,92.1,162.4,90.9z M160.5,96c0-0.5,0-1.1,0-1.6c-0.4-0.4-0.8-0.8-1.1-1.2c0.7-0.8,1.6-1.4,2.6-1.8
		c-0.2,1.2,0.8,2,1.4,2.9C162.6,95.2,161.6,95.7,160.5,96z"/>
	<path d="M163.3,50.9c-1-0.2-1.1,0.9-1,1.6c0.2,0.1,0.6,0.2,0.8,0.3C164.2,52.7,164.4,51.1,163.3,50.9z M162.8,52.2
		c-0.5-0.4,0.3-1.2,0.7-0.7C164,51.9,163.3,52.6,162.8,52.2z"/>
	<path d="M165.8,92.8c0.2-0.6,0.4-1.5-0.3-1.9c-0.6-0.7-1.8,0.1-1.6,0.9C163.9,92.9,165.1,92.9,165.8,92.8z M164.6,92.1
		c-0.6-0.5,0.3-1.3,0.7-0.7C166.1,91.9,165,93.1,164.6,92.1z"/>
	<path d="M167.3,51.5c-0.4-1.1-2.2-1.6-3-0.6c0.3,0.5,0.4,1,0.4,1.6c-0.2,0.3-0.5,0.6-0.7,1c0.7,0.4,1.5,0.8,2.3,0.8
		c0-0.6,0-1.3,0-1.9C166.5,52.1,166.9,51.8,167.3,51.5z M164.8,53.5c0.3-0.8,0.4-1.7,0.2-2.6c0.5,0,1.1,0.1,1.6,0.1
		c-0.4,0.6-0.7,1.2-1.1,1.8c0.1,0.2,0.3,0.5,0.4,0.6C165.6,53.5,165,53.5,164.8,53.5z"/>
	<path d="M167.1,91.6c1.8,0.2,3.6-1.3,3.9-3.1c-0.5-0.3-1.2-0.5-1.6-1.1c-0.2-0.6-0.3-1.2-0.4-1.9c-1.8,0.2-3.1,2-3.2,3.8
		c0.4,0.4,0.9,0.7,1.3,1.1C167.1,90.8,167.1,91.2,167.1,91.6z M166.3,88.9c0.4-1.2,1-2.4,2.2-2.8c0.1,1.2,0.8,2.1,1.7,2.7
		c-0.1,1.2-1.4,1.9-2.4,2.4C167.7,90.2,167,89.6,166.3,88.9z"/>
	<path d="M168.7,52.8c-0.3-0.4-0.7-0.7-1.2-1c-0.3,0.4-0.5,0.9-0.8,1.3c0.4,0.4,1,0.7,1.6,0.4C168.4,53.4,168.6,53,168.7,52.8z
		 M168,53.2c-0.5,0.2-0.7,0-0.5-0.5C168,52.5,168.2,52.6,168,53.2z"/>
	<path d="M173,52.4c-1.2-0.9-2.7-1-4.1-0.5c0.2,0.7,0.3,1.4,0,2.1c-0.2,0.2-0.5,0.4-0.7,0.7c1,1.1,2.4,1.7,3.9,1.4
		c0-0.6,0-1.3,0-1.9C172.2,53.4,173.3,53.1,173,52.4z M171.6,55.7c-0.9-0.2-1.8-0.4-2.5-1c0.2-0.3,0.4-0.6,0.6-0.9c0-0.5,0-1,0-1.5
		c1-0.1,2-0.1,2.8,0.4C171.6,53.5,171.6,54.6,171.6,55.7z"/>
	<path d="M171.9,86.9c0.9-0.8-0.5-2.8-1.3-1.6c-0.6,0.4-0.2,1.1,0,1.6C171,87,171.6,87.5,171.9,86.9z M171.5,85.7
		c0.5,0.3,0,1.2-0.4,0.7C170.6,86.2,171,85.3,171.5,85.7z"/>
	<path d="M173.7,84.5c0.1,0.4,0.3,0.8,0.4,1.3c1.4-0.9,2.8-2.3,2.5-4.1c-0.3-0.2-0.6-0.3-0.9-0.5c-0.6-0.3-0.5-1.1-1-1.5
		c-1.4,0.8-2.5,2.2-2.7,3.8c0.3,0.1,0.6,0.2,1,0.4C173.2,84,173.4,84.2,173.7,84.5z M174.6,80.2c0.1,0.9,0.9,1.4,1.6,1.8
		c-0.1,1.2-0.9,2.1-1.6,3c-0.4-0.9-1.2-1.6-2-2C173,81.9,173.7,81,174.6,80.2z"/>
	<path d="M174.3,54.5c-0.8-0.5-1.4,0.4-1.3,1.2c0.2,0.1,0.6,0.3,0.8,0.4C174.3,55.8,174.9,55.1,174.3,54.5z M173.5,55.4
		c-0.1-0.4,0-0.6,0.5-0.5C174.1,55.3,174,55.5,173.5,55.4z"/>
	<path d="M175.3,54c-0.1,0.7,0,1.6-0.6,2.2c-0.3,0.4-1.1,0.8-0.6,1.4c0.6,0.7,1.4,1.5,2.4,1.3c0.1-0.6,0.1-1.1,0.2-1.7
		c0.3-0.5,0.8-0.8,1.2-1.2C177.8,54.7,176.3,54.3,175.3,54z M175.8,58.3c-0.5-0.3-0.9-0.6-1.3-1.1c0.7-0.8,1.3-1.6,1.1-2.8
		c0.6,0.4,1.2,0.7,1.7,1.1C176.6,56.3,175.9,57.2,175.8,58.3z"/>
	<path d="M178.1,80c0.1-0.4,0.3-0.8,0.4-1.3c-0.1-0.6-0.8-0.9-1.3-1c-0.7,0-1,0.8-1.3,1.3c0.1,0.3,0.2,0.6,0.4,0.9
		C176.9,80.3,177.5,80.3,178.1,80z M176.8,78.4c0.2,0,0.7,0,1,0c0,0.4,0,0.8,0,1.2c-0.4,0-0.8,0-1.2,0
		C176.6,79.2,176.5,78.7,176.8,78.4z"/>
	<path d="M179.4,57.4c-0.3-0.5-0.8-0.6-1.2-0.7c0,0.2-0.1,0.7-0.1,0.9l0.7-0.3c0,0.2,0,0.7,0,1c-0.2,0-0.6,0-0.8,0
		c-0.1-0.4-0.2-0.8-0.5-1.2c0,0.5-0.3,1.3,0.2,1.6C178.5,59.4,179.6,58.2,179.4,57.4z"/>
	<path d="M222,84.1c-1.9-2.5-4.5-4.8-7.7-5.4c-1.6-0.1-3.1,0.7-4.7,0.7c-1.6,0-3.3,0.2-4.5,1.3c-1.7,1.4-3,3.3-4.8,4.7
		c-1.3,0.9-2.7,1.7-4.2,2.1c-1.7,0.5-3.4,1.3-5.3,1.2l0-0.6l-0.5,0.9l0-0.4c-0.8-0.1-1.5,0.1-2,0.7c-1.5-1.7-3.9-2.4-5.5-4
		c-0.5-0.4-0.9-0.8-1.5-1c-1.4,0.6-3.2,1.2-3.8,2.8c-0.2,1.2,0,2.5,0.9,3.4c0.4,0.7,1.4,1.2,1.1,2.2c-0.2,1.3-1.3,2.5-0.8,3.9
		c0.4,1.5,1.8,2.6,3.3,3c1,0.2,2.3,0.6,3.1-0.3c1.1-1.2,2.2-2.5,3.4-3.6c0.9,0.4,2,0.4,2.7-0.4c1,0.3,1.9,0.6,2.7,1.2
		c2,1.6,3.9,3.3,6,4.8c4,2.4,8.4,4.7,13.2,4.1c2.1-0.6,4.2-1.4,5.9-2.9c0.1-0.1,0.3-0.2,0.4-0.2c0-0.1-0.1-0.1-0.2-0.2
		c0.5-1,1-2,1.2-3.1c0.1-1-0.1-2-0.1-3.1c0.2-1.3,0.7-2.5,0.5-3.8c-0.2-1.2,0.5-2.2,0.9-3.2C222.2,87.5,222.5,85.8,222,84.1z
		 M184.1,99.4c-1.9,0.1-4.1-0.7-4.8-2.7c-0.7-1.5,0.9-2.7,0.8-4.2c0.1-1.1-1-1.8-1.5-2.6c2.8-1.1,4.9,1.8,7.7,1.7
		c-0.4-0.6-1.1-0.7-1.7-0.9c-1.4-0.4-2.6-1.3-4.1-1.6c-0.8-0.2-1.5,0.3-2.1,0.5c-0.2-0.8-0.5-1.8,0-2.6c0.7-0.9,1.7-1.5,2.8-1.9
		c0.6-0.3,1,0.4,1.4,0.7c1.7,1.7,4.1,2.3,5.6,4.2c-0.2,1-0.1,2.1-0.5,3.1c-1.3,0.7-3,0.6-4.3,1.3c-0.5,0.3-1.2,0.6-1.2,1.3
		c0.9-0.5,1.8-1.1,2.8-1.3c1-0.2,2.1-0.4,3-0.9c0.1,0.6,0.3,1.2,0.4,1.8C186.7,96.5,185.7,98.2,184.1,99.4z M188.8,95
		c-0.5-1.1-0.7-2.3-0.4-3.5c0.2-0.7,0-1.8,0.8-2.2c0.5-0.3,1-0.1,1.5-0.1c-0.4,1.7-1,3.5-0.3,5.1C191,95.4,189.1,96,188.8,95z
		 M218,89.7c1.4,0.9,2.7,2.6,2,4.3c-0.5,1.4-0.4,2.9-0.2,4.4c-0.3,1.9-1.1,4-2.9,4.9c-1.4,0.7-2.9,1.4-4.5,1.7
		c-4.5,0.2-8.7-1.9-12.4-4.2c-2.1-1.5-4-3.2-6-4.8c-0.8-0.7-1.8-1.1-2.9-1.2c-0.6-1.7-0.6-3.7,0.1-5.3c0.7-0.5,1.8-0.4,2.7-0.7
		c1.8-0.7,3.8-1.1,5.5-2.2c2.2-1.3,3.7-3.4,5.5-5.2c1.4-1.4,3.5-1.6,5.4-1.6c-2.2,1.9-5.3,2.8-6.8,5.5c0.8-0.1,1.3-0.8,1.8-1.3
		c1.4-1.4,3.3-2.1,4.8-3.3c1.5-1.2,3.6-2,5.5-1.2c2.7,1.1,5.6,3.1,6.3,6.1l-0.6-0.1c0.1,0.1,0.3,0.2,0.4,0.3
		c-0.1,1.9-1.1,3.6-1.6,5.4c-1.1-1.8-3.1-3.1-5.2-3.3c-0.8-0.1-1.8-0.4-2.3,0.3C214.5,88.4,216.5,88.6,218,89.7z"/>
	<path d="M181.6,73.7c-0.4-0.4-0.8-0.8-1.3-1.1c-1.5,0.7-2.6,2.4-2.6,4c0.7,0.3,1.2,1.1,1.9,1.3C181,77,181.8,75.3,181.6,73.7z
		 M178.4,76.3c0-1.3,0.9-3.2,2.5-3c0.5,1.5-0.3,3-1.3,4.1C179.2,77,178.8,76.6,178.4,76.3z"/>
	<path d="M181.2,60.7c0.5-0.2,1.1-0.3,1.6-0.6c-0.2-1.4-1.4-2.6-2.8-2.5c-0.3,0.7-0.6,1.3-1.1,1.9c-0.2,0-0.7,0-1,0
		c0.2,1.1,0.8,2.2,1.9,2.6C180.3,61.6,180.7,61.1,181.2,60.7z M179.7,61.4c-0.5-0.3-0.8-0.9-1.1-1.5c1,0,1.4-1,1.8-1.8
		c0.9,0,1.4,0.8,1.9,1.5C181.2,59.9,180.4,60.7,179.7,61.4z"/>
	<path d="M182.1,71.2c-0.4-0.1-0.6-0.5-0.7-0.8c0.4-0.3,0.8-0.6,1.1-1c-0.6-0.1-1.6,0.2-1.5,1c-0.2,0.8,0.9,1.5,1.6,1
		c0.6-0.4,0.2-1.3,0.1-1.8C182.3,70.1,182.1,70.6,182.1,71.2z"/>
	<path d="M181,65.2c-0.4,1-0.2,2.1,0,3.1c0.9,0,1.7,0.1,2.5,0.3c0.4,0.1,0.6-0.5,0.8-0.7c0.6-1.3,0.4-2.9-0.5-4
		c-0.6,0.1-1,0.5-1.5,0.7C181.8,64.8,181.3,64.8,181,65.2z M183.4,68.1c-0.7-0.1-1.4-0.3-2.1-0.4c0-0.7,0-1.3,0-2
		c0.8-0.4,1.6-0.9,2.4-1C184.2,65.6,184.5,67.3,183.4,68.1z"/>
	<path d="M181.2,63.3c0.3,0,0.8,0.1,1,0.1c0.4-0.4,0.7-0.8,1-1.2c-0.1-0.2-0.3-0.6-0.5-0.8C181.6,60.7,180.2,62.2,181.2,63.3z
		 M182.5,62.5c-0.3,0.1-0.6,0.2-0.9,0.4c-0.6-0.7,0.3-1.2,0.9-1.2C182.5,61.9,182.5,62.3,182.5,62.5z"/>
	<path d="M191.7,65.2c-0.6,0.2-0.1,0.8,0,1.2c0.5,1.3,2.4,2.2,3.6,1.1c0.7-0.6,0.9-1.5,0.9-2.4C194.7,65.2,193.2,65.1,191.7,65.2z
		 M193.4,67.2c0.6-0.2,1.2-0.3,1.8-0.4C194.9,67.5,194.1,67.4,193.4,67.2z M195.8,65.7c-0.2,1-1.3,0.6-2,0.7
		c-0.5,0.1-0.9-0.2-1.3-0.6C193.6,65.8,194.7,65.7,195.8,65.7z"/>
	<path d="M210.3,89.8c-2.2,0.3-4.4,0.4-6.5-0.1c0.3,1.2,0.9,2.2,1.5,3.2c-2.5,0-4.9-0.4-7.4-0.5c0.9-1.2,1.6-2.5,1.8-4
		c-0.1-0.1-0.4-0.2-0.5-0.3c-0.2,1.7-1.3,3.1-2.7,4.1c-1.1-0.1-2.3-0.4-3.4-0.4c0.6,0.9,1.8,0.6,2.7,0.9c0.9,0.7,1.7,1.4,2.4,2.4
		c-1.5,0-3-0.6-4.5-0.7c0,0.1,0,0.3,0.1,0.4c1.5,0.6,3.2,0.7,4.7,0.9c0.6,0.7,0.8,1.8,1.2,2.7c0.9-0.5,1.9-1.1,3-0.9
		c1.1,0.2,2.2,0.7,3.2,1.2c0.2,0,0.5-0.1,0.6-0.1c0-0.6,0-1.3,0.1-1.9c1.6,0.3,3.3,0.5,4.9,0.5c-1,1.6-1.1,4,0.4,5.3
		c-0.1-1.2-0.9-2.5-0.4-3.7c0.2-0.5,0.5-1.1,1-1.3c1,0,2,0.1,2.9,0.1c-0.2-1.1-1.7-0.5-2.5-0.7c1-0.7,2.1-1.2,3.3-1.5
		c0.3-0.1,0.8-0.2,0.9-0.6c-1.3-0.2-2.8,0-3.9-0.9c1,0,2,0,2.7-0.7c-1.1-0.3-2.1,0.3-3.2,0.2C211.3,92.7,210.8,91.1,210.3,89.8z
		 M197.1,92.8c2.7,0.4,5.5,0.5,8.3,0.6c0.1,0.8,0.2,1.7,0.2,2.5c-2.2-0.3-4.3-0.7-6.5-0.7C198.5,94.5,197.8,93.6,197.1,92.8z
		 M205.4,97.8c-1.7-0.9-3.8-1.4-5.5-0.3c-0.2-0.5-0.3-1.1-0.5-1.6c2.1,0.2,4.3,0.3,6.3,0.8C205.7,97,205.5,97.5,205.4,97.8z
		 M204.9,90.6c1.5,0.4,3.2,0.7,4.8,0.1c0.2,0.9,0.4,1.8,1.2,2.5c-1.6-0.1-3.3,0-4.9-0.2C205.7,92.2,205.3,91.4,204.9,90.6z
		 M214.1,95c-0.9,0.5-1.6,1.1-2.3,1.8c-1.8-0.1-3.5-0.5-5.3-0.6c0-0.9-0.2-1.8-0.4-2.7c1.8,0.4,3.6,0.2,5.4,0.4
		C212.4,94.2,213.2,94.7,214.1,95z"/>
	<path d="M195.1,42.9c0.2,0.3,0.3,0.6,0.5,0.8c-0.8,0.3-2,0-2.4,0.9c1.1-0.1,2.1-0.3,3.2-0.4c1.3,0.4,2.4,1.3,3.5,2.2
		c0.4-1.6,2.5-1.5,3.8-1.8c0.7,0.1,1.1-0.6,1.4-1.2c1.6-0.2,3.2-0.4,4.9-0.5c-0.4,1.3-0.9,2.6-0.5,4c0.6-0.7,0.5-1.6,0.7-2.5
		c0.2-0.6,0.5-1.1,0.8-1.7c1,0.1,2,0.1,2.9-0.1c-0.7-0.7-1.8-0.3-2.6-0.4c0.7-0.8,1.5-1.4,2-2.3c0.7-0.1,1.7,0.2,2-0.6
		c-0.8-0.1-1.7-0.1-2.5-0.1c-1-0.9-1.9-2-2.9-2.9c-0.9,0.1-1.6,0.6-2.5,0.9c-1.9,0.8-4,0.9-6,1.2c0.2,0.6,0.5,1.2,0.8,1.8
		c-1.7,0.4-3.5,0.6-5.3,1c0.3-0.7,0.7-1.5,0.9-2.3c0.3-0.4-0.4-0.7-0.5-0.3c-0.4,0.8-0.7,1.6-1.1,2.4c-0.9,0.4-2.3,0-2.8,1
		c0.8,0,1.6-0.1,2.3-0.3C195.3,42.2,195.2,42.6,195.1,42.9z M202,44.1c-1,0.1-1.9,0.6-2.8,0.9c-0.5-0.2-0.9-0.6-1.4-0.9
		c2.1-0.4,4.3-0.6,6.5-0.6C203.7,44.2,202.8,44,202,44.1z M212.2,40.1c-0.7,0.8-1.3,1.6-2.1,2.4c-1.8,0.1-3.5,0.3-5.3,0.4
		c-0.5-0.8-1-1.5-1.6-2.2C206.3,40.7,209.3,40.3,212.2,40.1z M209.4,37.5c0.6,0.7,1.8,1.1,2,2.1c-2.9,0.2-5.7,0.4-8.6,0.7
		c-0.3-0.4-0.5-0.8-0.8-1.1C204.5,38.9,207.2,38.7,209.4,37.5z M196.4,41.8c2.1-0.2,4.1-0.8,6.1-0.9c0.4,0.6,1.5,1.2,1.2,1.9
		c-1.8,0.2-3.7,0.2-5.5,0.5c-0.8,0.2-1.7,0.1-2.4-0.4C196,42.6,196.2,42.2,196.4,41.8z"/>
	<path d="M205.2,58.3c-1.8-0.4-3.3,1.5-3.2,3.1c1.7,0,3.5,0.1,5.2-0.3C206.9,60,206.3,58.7,205.2,58.3z M203.1,60.9
		c-0.2,0-0.6,0.1-0.8,0.1c0.4-1.2,1.2-2.4,2.6-2.2C204.2,59.3,203.6,60.1,203.1,60.9z M203.8,60.7c0.4-0.6,0.9-1.3,1.7-1.4
		c0.7,0.1,0.7,0.9,1,1.4C205.6,60.8,204.7,60.8,203.8,60.7z"/>
	<path d="M7.6,139V84.6c0,0,0,0,0-0.1c0.1,0,0.3,0,0.4,0c1.6-0.3,2.7-1.3,3.2-2.8c0.2-0.5,0.2-0.9,0.2-1.4c0-1.2-0.4-2.4-1.3-3.2
		c-0.7-0.7-1.6-1.1-2.4-1.5c-0.7-0.3-1.4-0.6-2-1.1c-1.2-1-1.7-2.7-1.3-4.2c0.4-1.4,1.4-2.4,2.9-2.7c0.8-0.1,1.5,0,2.2,0.5
		s1.1,1.1,1.2,1.9c0.2,1.2-0.6,2.4-1.8,2.7c-0.8,0.1-1.5-0.3-1.9-0.9c0.1-0.1,0.2-0.2,0.2-0.4c0-0.3-0.2-0.5-0.5-0.5
		c-0.3,0-0.5,0.2-0.5,0.5c0,0.2,0.1,0.3,0.2,0.4c0.4,1,1.4,1.6,2.5,1.4c1.5-0.3,2.5-1.7,2.2-3.3c-0.2-0.9-0.7-1.7-1.4-2.2
		c-0.7-0.5-1.5-0.7-2.3-0.6c0,0,0.1-0.1,0.1-0.1v-56c0.5-0.1,0.9-0.6,0.9-1.1c0-0.6-0.5-1.1-1.1-1.1S6.2,9.1,6.2,9.7
		c0,0.5,0.4,1,0.9,1.1v56c0,0.1,0,0.1,0.1,0.2c-1.6,0.3-2.8,1.4-3.2,3c-0.5,1.7,0.1,3.6,1.4,4.7c0.6,0.5,1.4,0.9,2.1,1.2
		c0.8,0.4,1.6,0.7,2.3,1.4c1,1.1,1.4,2.7,0.9,4.1c-0.4,1.3-1.5,2.2-2.9,2.5c-1.6,0.3-3.1-0.8-3.4-2.4c-0.1-0.6,0-1.2,0.4-1.7
		c0.3-0.5,0.9-0.8,1.5-1c0.8-0.1,1.6,0.3,1.9,1C8.1,80.1,8,80.2,8,80.4c0,0.3,0.2,0.5,0.5,0.5c0.3,0,0.5-0.2,0.5-0.5
		c0-0.2-0.1-0.3-0.2-0.4c-0.3-1.1-1.4-1.8-2.6-1.6c-0.7,0.1-1.4,0.5-1.8,1.2C4,80.3,3.9,81,4,81.7c0.3,1.6,1.6,2.7,3.2,2.8
		c0,0,0,0,0,0.1V139c-0.5,0.1-0.9,0.6-0.9,1.1c0,0.6,0.5,1.1,1.1,1.1s1.1-0.5,1.1-1.1C8.5,139.5,8.1,139.1,7.6,139z"/>
	<path d="M234,77c-0.6-0.5-1.4-0.9-2.1-1.2c-0.8-0.4-1.6-0.7-2.3-1.4c-1-1.1-1.4-2.7-0.9-4.1c0.4-1.3,1.5-2.2,2.9-2.5
		c1.6-0.3,3.1,0.8,3.4,2.4c0.1,0.6,0,1.2-0.4,1.7c-0.3,0.5-0.9,0.8-1.5,1c-0.8,0.1-1.6-0.3-1.9-1c0.2-0.1,0.3-0.2,0.3-0.4
		c0-0.3-0.2-0.5-0.5-0.5c-0.3,0-0.5,0.2-0.5,0.5c0,0.2,0.1,0.3,0.2,0.4c0.3,1.1,1.4,1.8,2.6,1.6c0.7-0.1,1.4-0.5,1.8-1.2
		c0.4-0.6,0.6-1.4,0.5-2.1c-0.3-1.6-1.6-2.7-3.2-2.8c0,0,0,0,0-0.1V11.2c0.5-0.1,0.9-0.6,0.9-1.1c0-0.6-0.5-1.1-1.1-1.1
		s-1.1,0.5-1.1,1.1c0,0.5,0.4,1,0.9,1.1v55.9c0,0,0,0,0,0.1c-0.1,0-0.3,0-0.4,0c-1.6,0.3-2.7,1.3-3.2,2.8c-0.2,0.5-0.2,0.9-0.2,1.4
		c0,1.2,0.4,2.4,1.3,3.2c0.7,0.7,1.6,1.1,2.4,1.5c0.7,0.3,1.4,0.6,2,1.1c1.2,1,1.7,2.7,1.3,4.2c-0.4,1.4-1.4,2.4-2.9,2.7
		c-0.8,0.1-1.5,0-2.2-0.5c-0.6-0.4-1.1-1.1-1.2-1.9c-0.2-1.2,0.6-2.4,1.8-2.7c0.8-0.1,1.5,0.3,1.9,0.9c-0.1,0.1-0.2,0.2-0.2,0.4
		c0,0.3,0.2,0.5,0.5,0.5s0.5-0.2,0.5-0.5c0-0.2-0.1-0.3-0.2-0.4c-0.4-1-1.4-1.6-2.5-1.4c-1.5,0.3-2.5,1.7-2.2,3.3
		c0.2,0.9,0.7,1.7,1.4,2.2c0.7,0.5,1.5,0.7,2.3,0.6c0,0-0.1,0.1-0.1,0.1v54.5c-0.5,0.1-0.9,0.6-0.9,1.1c0,0.6,0.5,1.1,1.1,1.1
		s1.1-0.5,1.1-1.1c0-0.5-0.4-1-0.9-1.1V84.9c0-0.1,0-0.1-0.1-0.2c1.6-0.3,2.8-1.4,3.2-3C235.9,80,235.4,78.1,234,77z"/>
	<path d="M10.2,8.1c0.5,0,1-0.4,1.1-0.9h93c0.1,0,0.1,0,0.1-0.1c-0.1,0.8,0.1,1.6,0.6,2.3c0.5,0.8,1.3,1.3,2.2,1.4
		c1.5,0.3,3-0.7,3.3-2.2c0.2-1.1-0.4-2.2-1.4-2.5c-0.1-0.1-0.2-0.2-0.4-0.2c-0.3,0-0.5,0.2-0.5,0.5c0,0.3,0.2,0.5,0.5,0.5
		c0.2,0,0.3-0.1,0.4-0.2c0.7,0.4,1.1,1.1,0.9,1.9c-0.2,1.2-1.4,2.1-2.7,1.8c-0.8-0.1-1.4-0.6-1.9-1.2c-0.4-0.6-0.6-1.4-0.5-2.2
		c0.3-1.5,1.2-2.5,2.7-2.9c1.5-0.4,3.2,0.1,4.2,1.3c0.5,0.6,0.8,1.3,1.1,2c0.4,0.8,0.8,1.7,1.5,2.4c0.9,0.8,2,1.3,3.2,1.3
		c0.5,0,1-0.1,1.4-0.2c1.5-0.5,2.5-1.7,2.8-3.2c0-0.1,0-0.3,0-0.4c0,0,0,0,0.1,0h105.8c0.1,0.5,0.6,0.9,1.1,0.9
		c0.6,0,1.1-0.5,1.1-1.1s-0.5-1.1-1.1-1.1c-0.5,0-1,0.4-1.1,0.9H122c0,0,0,0-0.1,0c-0.1-1.5-1.2-2.9-2.8-3.2c-0.7-0.1-1.5,0-2.1,0.5
		c-0.6,0.4-1,1.1-1.2,1.8c-0.2,1.1,0.5,2.2,1.6,2.6c0.1,0.1,0.2,0.2,0.4,0.2c0.3,0,0.5-0.2,0.5-0.5c0-0.3-0.2-0.5-0.5-0.5
		c-0.2,0-0.3,0.1-0.4,0.3c-0.7-0.3-1.2-1.1-1-1.9c0.1-0.6,0.4-1.1,1-1.5s1.1-0.5,1.7-0.4c1.6,0.3,2.6,1.8,2.4,3.4
		c-0.3,1.4-1.2,2.4-2.5,2.9c-1.4,0.5-3.1,0.1-4.1-0.9c-0.7-0.6-1-1.4-1.4-2.3c-0.3-0.7-0.7-1.5-1.2-2.1c-1.1-1.3-3-1.9-4.7-1.4
		c-1.6,0.4-2.7,1.6-3,3.2c0-0.1-0.1-0.1-0.2-0.1h-93c-0.1-0.5-0.6-0.9-1.1-0.9C9.5,5.8,9,6.3,9,7S9.5,8.1,10.2,8.1z"/>
	<path d="M229.3,142.1c-0.5,0-1,0.4-1.1,0.9h-106c-0.1,0-0.1,0-0.1,0.1c0.1-0.8-0.1-1.6-0.6-2.3c-0.5-0.8-1.3-1.3-2.2-1.4
		c-1.5-0.3-3,0.7-3.3,2.2c-0.2,1.1,0.4,2.2,1.4,2.5c0.1,0.1,0.2,0.2,0.4,0.2c0.3,0,0.5-0.2,0.5-0.5c0-0.3-0.2-0.5-0.5-0.5
		c-0.2,0-0.3,0.1-0.4,0.2c-0.7-0.4-1.1-1.1-0.9-1.9c0.2-1.2,1.4-2.1,2.7-1.8c0.8,0.1,1.4,0.6,1.9,1.2c0.4,0.6,0.6,1.4,0.5,2.2
		c-0.3,1.5-1.2,2.5-2.7,2.9c-1.5,0.4-3.2-0.1-4.2-1.3c-0.5-0.6-0.8-1.3-1.1-2c-0.4-0.8-0.8-1.7-1.5-2.4c-0.9-0.8-2-1.3-3.2-1.3
		c-0.5,0-1,0.1-1.4,0.2c-1.5,0.5-2.5,1.7-2.8,3.2c0,0.1,0,0.3,0,0.4c0,0,0,0-0.1,0H11.6c-0.1-0.5-0.6-0.9-1.1-0.9
		c-0.6,0-1.1,0.5-1.1,1.1c0,0.6,0.5,1.1,1.1,1.1c0.5,0,1-0.4,1.1-0.9h92.9c0,0,0,0,0.1,0c0.1,1.5,1.2,2.9,2.8,3.2
		c0.7,0.1,1.5,0,2.1-0.5c0.6-0.4,1-1.1,1.2-1.8c0.2-1.1-0.5-2.2-1.6-2.6c-0.1-0.1-0.2-0.2-0.4-0.2c-0.3,0-0.5,0.2-0.5,0.5
		c0,0.3,0.2,0.5,0.5,0.5c0.2,0,0.3-0.1,0.4-0.3c0.7,0.3,1.2,1.1,1,1.9c-0.1,0.6-0.4,1.1-1,1.5c-0.5,0.3-1.1,0.5-1.7,0.4
		c-1.6-0.3-2.6-1.8-2.4-3.4c0.3-1.4,1.2-2.4,2.5-2.9c1.4-0.5,3.1-0.1,4.1,0.9c0.7,0.6,1,1.4,1.4,2.3c0.3,0.7,0.7,1.5,1.2,2.1
		c1.1,1.3,3,1.9,4.7,1.4c1.6-0.4,2.7-1.6,3-3.2c0,0.1,0.1,0.1,0.2,0.1h106c0.1,0.5,0.6,0.9,1.1,0.9c0.6,0,1.1-0.5,1.1-1.1
		C230.5,142.6,230,142.1,229.3,142.1z"/>
</g>
</svg>
