<?xml version="1.0" encoding="utf-8"?>
<!-- Generator: Adobe Illustrator 23.0.1, SVG Export Plug-In . SVG Version: 6.00 Build 0)  -->
<svg version="1.1" id="Слой_1" xmlns="http://www.w3.org/2000/svg" xmlns:xlink="http://www.w3.org/1999/xlink" x="0px" y="0px"
	 viewBox="0 0 238.1 150.2" style="enable-background:new 0 0 238.1 150.2;" xml:space="preserve">
<g>
	<path d="M75.4,115.7c3.5,0.6,7.2,0.2,10.3-1.3c5.8,0.8,12,0.2,17.2-2.6c1-0.6,1.9-1.2,2.8-1.9c0.3,0.3,0.7,0.6,1,0.9
		c-1.6,1.7-3.6,3.2-6,3.5c1.4,0.3,2.7,0,4-0.4c0.5-0.2,1-0.4,1.5-0.6c-1,1.3-2.5,2-3.9,2.8c-1,0.6-1,1.9-1.1,2.9
		c0.8-0.4,1.2-1.4,2-1.8c0.9-0.5,2-0.8,2.9-1.2c0.4-0.3,0.9-0.5,1.3-0.8c-0.3,1.2-1.1,2.1-2.1,2.8c0.7-0.2,1.3-0.3,1.9-0.6
		c0.2-0.1,0.5-0.3,0.7-0.5c1.4-1.1,2.3-2.6,3-4.2c2.2,0,4.2-1.2,6.3-1.7c1.6-0.4,3.2-0.8,4.7-1.6c1.1-0.5,2.2-1.2,3.4-1.3
		c0,1.5,0.3,2.9,1.2,4.1c1.4,0.3,2.6-0.2,3.8-0.9c-0.7-0.2-1.5-0.5-2.1-0.8c0-1.2-0.1-2.4-0.5-3.4c1-1.2,1.4-2.7,2.3-3.9
		c0.6-0.7,0.8-1.6,1.1-2.5c0.7,0,1.4,0,2.1,0.1c-0.4-0.8-0.7-2.1-1.7-2.1c-0.6,0-1.4-0.1-1.6,0.6c-0.5,1-1,2-1.9,2.7
		c0.1-1.4,0.4-2.7,0.8-4c0.1-0.7,0.8-0.5,1.3-0.6c-0.8-0.6-1.7-1.6-2.8-1c-1.1,1.3-0.8,3.1-1.2,4.7c-1.5-1-1-3.3-2.6-4.2
		c0-0.1-0.1-0.4-0.1-0.5c0.2-0.1,0.5-0.3,0.7-0.4c-0.6-0.1-1.2-0.2-1.8-0.5l0.3,0.2c-0.5,0.1-1,0.3-1.5,0.4
		c-0.2,1.8,1.2,3.1,2.4,4.2c0.1,0.5,0.1,1,0.2,1.5c-1.3-0.9-2.4-1.9-3.8-2.5c0-0.5,0-1,0-1.5c-0.7,0.9-1.9,1.8-1.4,3.1
		c0.8,0.9,2.1,1.4,3,2.2c0.5,0.4,0.4,1.1,0.4,1.6c-1.2,0.1-2.3,0.4-3.4,0.8c-1.4,0.5-2.9,0.3-4.3,0.3c-0.8-1.1-1.2-2.4-1.8-3.6
		c-0.3-0.4,0.1-0.9,0.2-1.3c1.8-4,2.7-8.3,3-12.6c0.4-4.5,1.3-9.2,4.1-12.8c1.8-2.3,4.8-3.6,7.8-3.2c4,0.5,7.4,3.1,9.9,6.2
		c2.4,3.2,4.2,6.8,6.3,10.2c1.1,1.8,2.3,3.5,3.3,5.2c-0.9,0.1-1.8,0.2-2.7,0.2c-1.2-0.7-2.2-1.6-3.2-2.5c-1-0.9-1.4-2.2-2-3.4
		c0,1.6,0.6,3.1,1.4,4.4c0.2,0.4,0.7,0.5,1.1,0.6c0.1,0.3-0.3,0.9-0.7,0.7c-0.1-0.1-0.3-0.4-0.5-0.6c-1-0.9-1.8-2-2.7-3
		c-0.9-1.1-2.6-1.2-3.7-0.4c1.5-0.1,2.7,1,3.3,2.2c0.6,1.2,1.4,2.2,2.3,3.2c-1.5,0.1-2.7-0.8-3.5-2c0.6,2.6,3,4.5,5.6,5
		c0,3-0.5,5.9-0.8,8.8c-0.2,1.6-0.3,3.2-1.3,4.6c-1.4,0.4-2.9,0.2-4.2,0.8c-1.3,0.8-0.7,2.5-0.4,3.7c0.4-0.7,0.7-1.9,1.7-1.8
		c1.1,0.3,2.2,0.6,3.4,0.4c0.5,1.8,2.3,2.6,3.5,3.9c0.9,0.9,2.1,1.3,3.1,2c0.3,0.4,0.1,1,0.1,1.5c-0.2,0.1-0.5,0.4-0.6,0.5
		c1.2,0,2.2-0.6,2.9-1.5c-0.1-0.6-0.1-1.1-0.4-1.6c-0.9-0.6-2-1.1-2.8-1.9c-0.2-0.1-0.5-0.4-0.6-0.6c1.7,0.3,3.3,1,4.9,1.6
		c0,0.4,0,0.9,0.1,1.3c0.1-0.1,0.3-0.2,0.3-0.3c0.8-0.6,1.5-1.3,1.3-2.4c-0.7-0.5-1.3-1.1-2.2-1.1c-1-0.1-1.9-0.3-2.8-0.7
		c1.7-1.3,4.1,0.1,5.7-1.4c0,0.3,0.1,0.8,0.2,1c0.9-0.8,1.4-2.1,0.8-3.3c-0.9,0-1.7,0-2.6,0.1c-1.1,0.7-2.3,1.3-3.6,1
		c0-0.1,0-0.4,0-0.6c1.2-0.7,2.5-1.4,3.4-2.6c0.6,0,1.1,0.2,1.7,0.5c-0.6-0.9-0.9-2.2-2.1-2.5c-2-0.1-2.9,2.5-4.9,2.4
		c-1-0.3-0.6-1.5-0.6-2.2c0.8-2.2,1.5-4.5,3.1-6.3c2.5-0.5,4.9,1.1,6.7,2.7c1.7,1.4,2.1,3.6,3.5,5.3c2.6,3.7,7.5,5.1,11.9,4.8
		c1.5,0,2.9-0.7,4.4-0.5c6.2,1,12.8-0.3,18-3.7c2.4,0.7,5.1,0.4,7.3,1.8c-0.7,0.2-1.3,0.4-2,0.6c-1.7,0.7-3.7,0.7-5.5,0.3
		c1.7,1.2,3.9,1.2,5.9,1.3c-1.3,0.6-2.7,0.9-4.1,1c-0.8,0-1.5,0.4-2.1,0.7c-0.4,0.7-0.8,1.4-0.9,2.2c0.4-0.4,0.9-0.8,1.3-1.2
		c2-0.6,4.2-0.1,6.3-0.4c-0.8,1.1-2.2,1.7-3.5,1.9c2.7,0.7,5.4-0.3,7.3-2.2c1-0.8,1.5-2.4,2.9-2.7c2.1-0.7,3.6-2.4,5.5-3.4
		c2.3-1.4,5.1-1.9,7.6-3c1.4-0.5,2.8-1.3,4.3-1c0.3,1.5,0.3,3.6,1.9,4.3c1.3,0.4,2.5-0.6,3.6-1.2c-0.6-0.2-1.2-0.3-1.9-0.5
		c-0.1-0.1-0.4-0.4-0.5-0.5c-0.1-0.9-0.1-1.9-0.5-2.8c-0.1,0-0.4-0.1-0.5-0.1c0.6-0.9,1.2-1.8,1.6-2.8c0.5-1.3,1.5-2.3,1.8-3.7
		c0.2-0.3,0.3-0.6,0.5-0.9c0.5,0,1,0,1.5,0c0.1,0.1,0.4,0.4,0.5,0.5c-0.3-0.9-0.6-1.9-1.4-2.4c-1-0.4-2.4,0-2.5,1.1
		c-0.2,0.9-0.8,1.6-1.5,2.2c0-0.6,0-1.2,0-1.8c0.3-0.9,0.4-1.9,0.6-2.8c0.3,0,0.9-0.1,1.2-0.2c-0.7-0.6-1.5-1.3-2.5-1.3
		c-0.5,0.7-1.2,1.3-1.2,2.2c-0.1,1.1-0.1,2.2-0.3,3.2c-0.8-0.8-1.4-1.8-1.7-2.9c-0.2-0.8-0.8-1.2-1.4-1.8c0.2-0.3,0.3-0.5,0.5-0.8
		c-0.9,0.1-2.4-0.4-2.9,0.6c-0.2,1.9,1.7,3,2.7,4.2c0,0.5,0.1,1,0.1,1.5c-1.3-1-2.7-1.9-4.2-2.6c0-0.5,0.1-1,0.1-1.5
		c-0.7,0.9-1.8,1.8-1.5,3.1c0.9,1.4,2.8,1.6,3.8,2.9c0.1,0.4,0.1,0.8,0.1,1.2c-2.9,1.6-6.3,1-9.3,1.8c-1.3,0.2-2.7,1-4,0.4
		c-2-1.1-2.9-3.5-4.8-4.9c1-3,1.6-6.1,1.7-9.3c-0.2-2-0.4-4.1-1-6.1c-1.4-4.4-4-8.3-7.4-11.3c-2.8-2.6-5.8-5-8.9-7
		c-3.4-2.2-7-4.1-9.8-7.1c-1.5-1.5-2.8-3.3-3.2-5.4c-0.4-2.5,0.7-5.3,2.9-6.7c0.8-0.1,1.7,0,2.5,0c-0.5,0.3-1.1,0.5-1.6,0.8
		c2.3,0.1,4.5-0.7,6.5-1.6c-1.1,1.1-2.4,1.7-3.8,2.2c2.3,0.4,4.3-0.5,6.3-1.5c-0.8,1.1-2.1,1.6-3.2,2.2c1.7,0.3,3.2-0.5,4.6-1.1
		c0.2-0.2,0.3-0.5,0.5-0.7c0,0.2-0.1,0.6-0.1,0.8c-0.7,0.5-1.5,1-2.1,1.6c1.6-0.1,3.2-0.5,4.8-0.9c-0.5,0.4-1.1,0.8-1.6,1.2
		c1.1,0.1,2.2-0.1,3.4-0.3c-0.5,0.5-1.1,0.9-1.8,1.2c0.7,0.5,1.5,0.9,2.3,1.4c-0.5,0.1-1.1,0.1-1.6,0.2c0.6,0.8,1.4,1.6,2.3,2.1
		c-0.6-0.1-1.2-0.2-1.7-0.4c0.5,0.7,1,1.3,1.5,1.9c-0.3,0-0.8,0-1.1,0.1c0.4,0.7,0.9,1.4,1.7,1.6c-0.4,0.1-0.8,0.1-1.2,0.2
		c0.5,0.8,1.1,1.4,1.9,1.9c0.1,0.1,0.3,0.3,0.4,0.5c-0.6-0.2-1.2-0.4-1.9-0.5c0.6,1,1.7,1.7,2.8,2.1c-0.2,0.1-0.7,0.2-1,0.3
		c0,0.5,0.5,0.6,0.8,0.7c1,0.3,2,0.5,3,0.8c-0.2,0.2-0.7,0.7-0.9,1c1.1,0.1,2.3-0.1,3.4-0.4c0.1-0.1,0.3-0.3,0.3-0.3
		c0,0.1,0,0.4,0,0.5c-0.2,0.3-0.7,0.8-0.9,1c1.6,0.1,3.3-0.7,3.9-2.1c1.2,1,2.6,1.3,4.1,1.1c-0.9-0.5-1.8-1.1-2.4-1.9
		c1.1,0.6,2.2,0.9,3.4,0.8c-0.4-0.2-0.8-0.4-1.2-0.6c-0.1-0.1-0.2-0.4-0.3-0.6c0.1,0.1,0.4,0.3,0.6,0.4c0.5-0.2,1.1-0.3,1.6-0.5
		c-0.2-0.1-0.5-0.3-0.7-0.5c0.3-1-0.1-1.9-0.3-2.9c0.6-1.9,0.6-3.9-0.1-5.8c-0.4,1.9-0.9,3.9-2.5,5.2c-1-0.4-2.2-0.7-2.8-1.7
		c-0.4-0.7-0.7-1.6-1-2.4c1.5-0.2,3.1-0.4,4.5-1c1.5-0.7,3.2-1.1,4.9-1c-1-1.2-2.6-1.8-4.1-1.7c-1.5,0-3,0.6-4.5,0.3
		c-1-0.2-1.7-1-2-1.9c-0.9-2.6-2.4-5.1-4.6-6.7c0.8-0.1,1.6-0.1,2.4-0.2c0.8-0.2,1.7-0.3,2.5-0.6c-0.2,0.3-0.4,0.7-0.6,1.1
		c1.3,0,2.5-0.4,3.5-1c-0.2,0.3-0.3,0.7-0.5,1c0.8-0.2,1.6-0.4,2.4-0.5c-0.1,0.3-0.4,1-0.5,1.4c0.4,0,0.8,0,1.3,0c0.9,0.9,0.4,2,0,3
		c-0.1,0.3-0.2,0.6-0.4,0.9c0.7-0.7,1.3-1.5,1.9-2.2c2.5,2.5,6.3,2.7,9.4,4.1c1.8,0.8,3.3,2.4,3.7,4.3c0.4,2.2-1.5,4.1-3.4,4.6
		c-1.8,0.4-3.8,0.3-5.5,1.2c-1,0.6-1.8,1.8-1.6,3c0.6,2.7,2.9,4.9,2.4,7.8c0,0.7-0.5,1.3-1.1,1.5c-0.1,0.7,0.7,1,0.8,0.1
		c1.1-1.1,1.2-2.6,0.9-4.1c-0.7-1.8-1.7-3.5-2-5.4c0.2-1.4,1.7-2.2,2.9-2.4c2-0.3,4.1-0.2,5.8-1.5c1.6-1.1,2.3-3,2.1-4.9
		c-0.4-1.1-0.8-2.3-1.6-3.2c-2-2.3-5.1-3.2-8-4c-1.6-0.4-3.1-1.2-4.2-2.4c0.5-1.1,1.1-2.1,2.1-2.7c-0.2,0.5-0.3,1-0.5,1.5
		c0.9-0.5,1.6-1.1,2.3-1.8c-0.3-0.2-0.5-0.4-0.8-0.6c0-0.5,0-1,0.1-1.4c-1.2,0.9-2.5,2-4.1,2c0.2-0.5,0.4-1.1,0.5-1.6
		c-1,0.8-2.1,1.6-3.4,1.6c0.8-0.5,1.6-1,2-1.9c0.6-0.9,0.3-2.1,0.4-3.1c0.1-1.2,0.8-2.1,1.5-3c-0.4,0.9-0.9,1.7-0.8,2.7
		c0.1,1.4,1.5,2.6,2.9,2.5c0.8-0.3,1.5-1,2.4-1.1c0.8,0.3,1.5,0.8,2.3,1.2c0.8-0.7,1.6-1.4,2.4-2.2c0.4,0.8,1,1.5,1.6,2.2
		c-0.6-0.3-1.2-0.7-1.7-1.2c-0.3,0.8-0.4,1.7-0.4,2.6c-0.4-0.5-0.8-1.1-1.2-1.5c-0.1,0.7-0.1,1.5-0.1,2.2c-0.1-0.1-0.4-0.2-0.6-0.3
		c-0.2-0.5-0.4-1.1-0.6-1.6c-0.4,0.7-0.8,1.4-1.5,1.8c0-0.3-0.1-1-0.1-1.4c-0.4,0.5-0.8,1-1.2,1.6c0.2,0.1,0.5,0.2,0.7,0.3
		c-0.3,0.5-0.5,1.1-0.6,1.7c0.8-0.4,1.4-1,2-1.7c0.5,0.5,1.1,1,1.6,1.6c0,1.4-0.4,2.8-0.6,4.3c1.3-1.2,2.1-2.9,2.2-4.7
		c0.2,0,0.7,0,0.9,0c-0.5-0.5-1.2-1.1-1.5-1.8c1,0.7,2,1.4,3.2,1.2c-0.5-0.4-1.1-0.8-1.7-1.2c-0.2-0.5-0.4-1-0.4-1.5
		c0.6-0.4,1.1,0.3,1.7,0.4c1.2,0.6,2.5-0.2,3.1-1.2c-0.4,0.1-1.2,0.2-1.5,0.3c-0.7-0.2-1.5-0.5-1.9-1.1c1.3-0.1,2.3-0.7,3.1-1.6
		c-0.7,0.1-1.5,0.4-2.2,0.1c0.6-0.5,1.2-1.1,1.7-1.8c-0.5,0.1-1,0.1-1.6,0.2c0-0.5-0.1-1.1-0.2-1.6c-0.5,0.4-0.9,1.1-1.7,1.1
		c-1.2-0.1-1.9-1.2-2.6-2c2.8-1.5,6.1-0.5,9.1-0.7c1.1,0,2-0.6,2.9-1.2c0.6-1.2,0.2-2.6-0.7-3.5c-1.6-1.7-3.9-2.5-6.2-2.6
		c-1.6-0.1-3.4-0.4-4.8-1.3c-1.7-1.5-1.3-4.2-3-5.7c-1.1-1-2.6-0.2-3.8,0.2c1,0,2.3-0.4,3.1,0.4c0.7,0.7,0.9,1.7,1.2,2.6
		c0.6,2.2,2.3,4.4,4.8,4.5c3.2,0.1,6.8,0.9,8.6,3.8c0.3,1.6-1.6,2-2.9,1.9c-2.3-0.2-4.5-0.2-6.8-0.1c-0.8,0.2-1.6,0.5-2.4,0.6
		c-0.8-0.2-1.7-0.7-2.6-0.4c-0.8,0.3-1.4,1-2.1,1.4c-0.8-0.1-1.5-0.6-2.2-0.6c-0.5,0.2-0.9,0.5-1.3,0.7c0.1,0.1,0.2,0.4,0.3,0.5
		c-0.4,0.6-0.7,1.3-1,1.9c0.1-0.4,0.3-1.2,0.4-1.6c-0.8,0.3-1.6,0.3-2.4,0.5c-0.2-1.3-1.1-2.5-2.5-2.2c0.1-1.1,0.2-2.1,0.1-3.2
		c-0.2-0.1-0.6-0.3-0.8-0.4c-0.7,0.6-1.5,1-2.3,1.1c-1.9-0.9-3.7-2-5.8-2.4c-1.4-0.2-2.8-0.1-4.1-0.8c-2.8-1.3-5.4-3.4-6.9-6.2
		c-0.4-0.8-1-1.5-1.5-2.2c-0.2,0-0.5,0.1-0.7,0.1c-0.1,1.9,1,3.4,1.9,5c-1.8-1-2.9-2.9-3.8-4.6c-0.9-1.6-1.2-3.5-2.5-4.9
		c-1.5,0.6-1.5,2.4-1.4,3.7c0.2,2.2,1.4,4.1,2.6,5.9c-2-1.1-3.3-3-4.7-4.7c-1.2-1.5-1.8-3.3-3-4.8c-0.3-0.5-0.9-0.3-1.4-0.3
		c-0.5,1.5-0.1,3.1,0.4,4.5c-0.9-1-1.9-2-3.2-2.6c0.4,0.9,1,2,0.4,3c-1.2-1.7-3.4-1.9-5.3-2.1c0.3,0.1,0.5,0.3,0.8,0.4
		c0.5,0.3,0.9,0.6,1.4,0.9c-1.9-0.4-4-0.2-5.7,0.9c1.6,0.4,3.3,0.4,4.7,1.3c1.5,1,2.2,2.8,2.4,4.5c-0.9-0.8-1.8-1.8-3.1-1.8
		c-1.3,0-2.6-0.1-3.9-0.3c0.2,0.5,0.4,1.1,0.8,1.4c0.6,0.6,1.4,0.4,2.1,0.5c0.7,0.3,1.5,0.5,2,1.1c0.3,0.5,0.4,1,0.6,1.5
		c-1.5-0.9-3.3-1.7-5-1.2c0.8,0.8,1.8,1.3,2.6,2.2c1.9,2,3.5,4.4,5.5,6.4c-2.7-1.1-4.2-4.2-7.3-4.4c0,0.1,0,0.2,0,0.3
		c3.1,0.8,3.9,4.4,6.5,5.9c0.8,0.5,1.7,0.9,2.6,1.2c-2.9,0.7-5.8,1.8-8.2,3.6c1.6,0,3.2-0.2,4.9,0.1c-2.9,0.9-5.5,2.7-7.5,5.1
		c1.4-0.4,2.9-1,4.4-0.8c-3,2.5-5.3,5.8-6,9.7c1.3-1.4,2.6-3,4.5-3.5c-1.4,3.1-3.4,6.2-3.1,9.7c0.7-1.5,1.8-2.7,2.9-3.9
		c0,0.3-0.1,0.6-0.1,0.9c-0.9,2.7-1.5,5.6-1.1,8.4c0.8-1.5,1.5-3.2,2.6-4.5c0.1,3.1-0.5,6.5,1.2,9.3c0.1-1.4,0.2-2.8,0.5-4.2
		c0.2-0.4,0.4-0.7,0.6-1.1c0.2,2.8,0.5,5.7,2.1,8c0.1-1.4,0.2-2.9,0.9-4.2c0.3,2.9,1.6,5.8,3.6,7.9c-0.3-1.3-0.5-2.6-0.4-3.9
		c1.1,2.7,2.4,5.3,4.4,7.5c0-1.2,0.1-2.4,0.5-3.4c0.1-0.1,0.4-0.2,0.5-0.2c0.6,2.5,1.1,5.1,2.7,7.2c0.1-1.5,0.3-2.9,0.9-4.2
		c0.1,0,0.4-0.1,0.5-0.2c0.1,1.9,0.6,3.8,1.6,5.4c0.2-1.1,0.6-2.2,1.2-3.1c0.1,1.9-0.5,4.1,0.4,5.9c0.5-1.1,1.3-2.1,2.3-2.7
		c-0.7,1.8-1.8,3.5-1.9,5.5c1-0.9,2.1-1.6,3.4-2.1c-1.3,1.3-2.7,2.5-3.6,4.2c1.3-0.3,2.6-0.6,4-0.5c-1.7,0.7-3.3,1.7-4.8,2.7
		c1.4,0.1,2.8,0.2,4.1,0.8c-2.2,0-4.3-0.5-6.5,0c1.5,0.3,2.5,1.4,2.9,2.8c-1.8-1.1-3.5-2.4-5.3-3.6c0.5,1.3,0.9,2.6,1.2,3.9
		c-1.1-2-2.2-4-4-5.5c0.2,1.3,0.4,2.6,0.2,3.9c-0.2-0.5-0.3-1.1-0.4-1.6c-0.2,0-0.5,0.1-0.7,0.1c0.1-0.1,0.4-0.2,0.5-0.3
		c-0.4-1.7-1.2-3.3-2.1-4.8c-0.1,1.5-0.1,3.1-0.5,4.5c-0.2-1.1-0.4-2.1-0.6-3.1c-0.4-1.6-1-3.1-1.6-4.7c-0.2,1.8-0.4,3.7-1,5.4
		c-0.6-2.9-0.8-5.9-1.9-8.7c-0.3,1.8-0.5,3.6-1.2,5.3c-0.1-2.8,0.2-5.6-0.8-8.3c-0.4,1.6-0.7,3.2-1.3,4.7c-0.1,0-0.2,0-0.2,0
		c0.5-3.5-0.6-7-2.8-9.8c0.4,2,0.5,4.1-0.2,6c-0.6-2.1-0.9-4.2-1.6-6.3c-0.4-1.2-0.8-2.4-1.4-3.6c0,1.5,0.2,3.1-0.3,4.6
		c-0.1,0-0.2,0-0.3,0c-0.3-2.9-0.7-6-2.4-8.4c-0.1,1.7-0.2,3.4-0.5,5.1c-0.5-3.2-1-6.6-3-9.3c0,1.7,0.2,3.4,0,5.1
		c-0.7-3.2-1-6.8-3.3-9.4c0.3,1.8,0.4,3.7,0.2,5.6c-0.4-2-0.7-4-1.7-5.8c-0.6-1.2-1.6-2.2-2.6-3.1c0.4,1.9,1.1,3.9,0.7,5.8
		c-1.4-3-3.1-5.9-5.9-7.8c0.6,1.9,1.5,3.8,1.5,5.8c-1.7-3.1-4.4-5.7-7.8-6.7c0,0.1,0,0.2,0,0.3c1.4,1.4,2.5,3.1,3.1,5
		c-2.2-1.8-4.3-3.7-7-4.7c-0.4-0.1-0.9-0.1-1.3-0.2c1.3,1.2,2.7,2.6,3.1,4.4c-2.7-1.5-5.6-2.9-8.7-3.5c0,0.1,0,0.2,0,0.2
		c1.4,0.9,2.9,1.9,3.3,3.6c-2.6-1.3-5.5-2.3-8.5-1.8c1.7,0.6,3.8,1.1,4.7,2.8c-2.7-0.3-5.5-0.7-8.1,0.4c1.7,0.2,3.5,0.6,5,1.4
		c-3,0.1-6.2,1-8.4,3.1c1.4-0.1,2.7-0.1,4.1-0.1c-2.6,0.9-5.3,2.3-6.9,4.7c1.4-0.4,2.7-1,4.1-1.2c-2.4,1.6-4.3,4-5.6,6.6
		c1.1-0.9,2.3-1.5,3.6-2c-2.1,2.1-4.2,4.4-5.6,7.1c-0.1,0.1-0.2,0.4-0.3,0.5c1.2-0.9,2.5-1.9,4-1.8c-2.2,2.1-4.6,4.1-5.8,6.9
		c1.5-0.9,3.1-1.8,4.8-2.3c-2.1,1.9-4.5,3.6-6,6.1c1.6-0.7,3.2-1.6,4.9-1.6c-2.4,1.1-4.7,2.4-6.2,4.6c1.9-0.3,3.8-1,5.8-0.8
		c-2.3,0.8-4.6,1.7-6.6,3.2c1.7,0.2,3.5,0.5,4.6,1.8c-1.9-0.3-3.8-0.5-5.7,0c1.1,0.9,2,2.1,2.1,3.6c-1.3-1.1-2.5-2.3-4-3.1
		c-0.3,0-0.7-0.1-1-0.1c1,1.4,1.8,2.9,1.6,4.6c-1.1-1.8-2.2-3.5-3.8-4.8c0.1,1.6,0,3.3-0.5,4.8c-0.3-2.3-0.4-4.8-1.7-6.9
		c-0.4,2-0.8,4-1.8,5.8c0.1-1.9,0.3-3.8,0-5.7c-1.1,1.1-2,2.3-3.3,3.2c1-1.8,2.2-3.6,2.7-5.6c-0.3,0.2-0.5,0.3-0.8,0.5
		c-0.9,0.5-1.9,1-2.9,1c2-1.4,3.8-2.9,5.5-4.6c-1.4,0.3-2.8,0.6-4.2,0.7c2.5-1.3,5.1-2.5,7.2-4.4c-1.7,0.1-3.4,0.2-5,0
		c2.7-1.1,5.4-2.3,7.6-4.3c-1.2,0-2.5,0-3.7-0.2c2.2-0.9,4.4-2,6.2-3.5c-0.5,0-1.1,0-1.6,0c0,0,0.1,0.1,0.1,0.2c-1,0.1-2,0.2-3,0.3
		c0.2-0.1,0.5-0.2,0.7-0.3c2.3-1.4,4.6-2.8,6.8-4.5c-0.5,0.1-1,0.2-1.4,0.3c-0.8,0.2-1.6,0.4-2.4,0.5c2.3-1.8,4.7-3.5,6.5-5.8
		c-0.8,0.4-1.6,0.8-2.4,1.2c-0.4,0.1-0.9,0.2-1.3,0.3c2.2-1.7,4.4-3.8,5.1-6.6c-1.2,1-2.4,2.1-3.8,2.9c1.4-2.5,3-5.1,3.4-8
		c-0.1,0.1-0.4,0.2-0.5,0.3c-0.8,1.1-1.7,2.2-2.6,3.2c0.7-2.6,1.5-5.3,1.2-8c-0.5,1.1-0.9,2.4-1.9,3.1c0.9-2.4,0.4-5-0.1-7.4
		c-0.1,0-0.2,0-0.3,0c0.1,1.3-0.2,2.6-0.9,3.8c-0.4-2.5-0.4-5.4-2-7.5c-0.1,1.6,0,3.2-0.7,4.7c-0.1-0.8-0.2-1.6-0.3-2.4
		c-0.3-1.8-0.7-3.6-1.7-5.1c-0.2,1.5-0.2,3.1-0.7,4.5c-0.1-2.2-0.6-4.3-1.6-6.3c0,1.6,0,3.2-0.3,4.8c-0.1,0-0.2,0-0.3,0
		c-0.4-1.9-0.6-3.8-1.2-5.7c-0.3,1.7-0.8,3.3-1.5,4.7c0.6-2.4,0.6-5-0.1-7.4c-0.8-1.6-2-3-3.6-3.8c-1.5-0.9-3.5-1.5-4-3.3
		c-0.4-1.6,1-2.6,1.7-3.8c0.4-0.5,0.1-1.1-0.1-1.6c-0.4-0.2-0.7-0.4-1.1-0.6c0.2,0.4,0.3,0.9,0.5,1.3c-1,1.6-3.1,2.8-2.7,5
		c0.8,3.1,4.7,3.8,6,6.7c0.2,0.6,0.3,1.3,0.3,2c-0.7-1-1.4-2.1-2.5-2.8c-2.1-1.5-5-2.1-6.5-4.3c-1.3-2.2-0.6-5,0.2-7.3
		c0.1-0.9,0.2-1.9,0-2.9c-0.3-0.5-0.7-0.9-1.1-1.3c0.4,1.2,0.8,2.6,0.3,3.8c-0.9,2.3-2.6,4.5-2.2,7.1c0.7,2.7,3,4.5,5.3,5.7
		c-2.6-0.6-4.9-2.3-6.3-4.6c-1.7-2.8-2.1-6.1-2.8-9.3c-0.8-3-4.2-4.3-7-3.9c1.3,0.4,2.8,0.8,3.6,2c1.2,1.8,1.1,4.2,1.6,6.2
		c0.8,4,3.2,7.5,6,10.4c-1.9-1.1-3.6-2.5-5-4.1c-0.2-0.1-0.4-0.1-0.6-0.2c0.1,0,0.4-0.1,0.6-0.2c-0.2-0.1-0.4-0.2-0.6-0.3
		c-1.3-1.7-2.5-3.5-3.5-5.5c-0.9-1.9-2.7-3.4-4.7-4.1c-1.6-0.5-3.3-0.6-5-0.5c-1.1,0.2-2.1,0.3-3.2,0.5c3.1,0.1,6.5,0.2,8.9,2.3
		c1.9,1.6,2.1,4.1,3.3,6.1c2.1,3.6,5.3,6.3,8.6,8.7c-2.3-0.6-4.6-1.3-6.5-2.7c-2.1-1.6-3.6-3.8-4.7-6.3c-0.6-1.4-1.3-2.8-2.6-3.6
		c-2.3-1.4-5.1-1.3-7.6-0.8l0,0.6c2.5,0.1,5,0.9,6.7,2.7c1.2,1.1,1.5,2.8,2.3,4.2c1.2,2.5,3.5,4.3,5.8,5.7c1.7,1,3.5,1.9,5.5,2.3
		c-4.4,0-8.6-2-11.6-5.1c-1.1-1.1-2.1-2.4-3.5-3.1c-1.6-0.6-3.2,0.3-4.6,0.9c1.2-0.1,2.5-0.6,3.7,0c2,0.9,2.6,3.3,4.2,4.6
		c4.6,4,10.8,5.5,16.7,6.5c-5.4,0.9-10.7-1.2-15.2-3.9c-2-1.1-4.2-2.4-6.6-2.2c-1.2,0.1-1.8,1.3-1.8,2.3c0.1-0.2,0.3-0.5,0.4-0.6
		c2.3-1.1,4.6,0.4,6.5,1.6c2.7,1.9,5.7,3.2,8.9,3.9c3.1,0.8,6.4,0.7,9.5,0.7c-3.6,0.9-7.3,1.1-10.9,0.2c-2.4-0.6-4.8-1.7-7.3-1.1
		c-0.6,0.4-0.7,1.2-0.5,1.9c0-0.2,0-0.7,0.1-0.9c1.8-0.8,3.7,0.1,5.4,0.8c2.2,1,4.5,1.6,6.8,1.8c2.9,0.4,5.9-0.1,8.8-0.2
		c0-0.1,0.1-0.1,0.1-0.2c1.6-0.1,3.1-0.4,4.6-0.8c2.7,1.8,4.8,4.7,5.7,7.8c0.6,2.6,0.3,5.5-1.4,7.7c-0.1,0.1-0.2,0.4-0.2,0.6
		c-2.3,3.2-5.6,5.4-8.3,8.2c-3.7,3.8-6.9,8.2-8.8,13.2c-1.5,4.2-2.1,8.9-0.7,13.2c0.2,0.6,0.3,1.2,0.4,1.8c-1.6-0.2-3-1.2-4.3-2.1
		c0-0.8,0-1.6-0.1-2.4c-0.8-2.5-2.8-4.3-3.6-6.8c-0.1,1.1-0.1,2.3-0.2,3.4c-0.4-1.6-0.6-3.2-0.7-4.8c-0.1-1.3-1.1-2.3-2.1-3
		c0.5,1,1,2.1,0.9,3.3c-0.1,1.7-0.2,3.4,0,5.1c-0.8-1.2-1.3-2.6-1.6-4.1c-0.2,1.3-0.3,2.7,0,4.1c0.5,1,0.9,2,1.6,2.9
		c0.7,0.9,1.6,1.6,1.9,2.7c-1.1,0.1-2.2,0.1-3.2,0.4c-1.9,0.7-3.3,2.2-5.1,3c-0.8,0.4-2,0.1-2.1-1c-0.5-1.2,0.3-2.9-1-3.7
		c-1.2-0.2-2.3,0.2-3.4,0.5c0.7,0.3,1.9,0.4,2,1.3c0.1,1.3-0.4,2.8,0.7,3.8c-0.7,0.9-1.4,1.8-1.8,2.8c-0.4,1-1.4,1.6-1.9,2.6
		c-0.3,0.8-0.5,1.7-0.8,2.5c-0.2,0-0.7,0-0.9,0c0.3,0.3,1,1,1.3,1.4l-0.7,0.3c0.6-0.2,1.3-0.4,1.9-0.5c0.8-1,1.2-2.2,1.5-3.5
		c1.3,1.5,0,3.4,0.2,5.1c0.3,0.2,0.6,0.5,0.9,0.7c-0.4,0.1-1.2,0.2-1.5,0.2c0.8,0.6,1.7,1.2,2.7,0.8c1.1-0.6,1.3-2.1,0.9-3.2
		c-0.3-1-0.4-2-0.3-3c0.7,1.1,1.5,2.1,2,3.3c0.3,0.7,0.9,1.1,1.5,1.4c-0.4,0.2-0.4,0.7-0.7,0.9c0.9-0.2,2-0.1,2.6-0.9
		c0.5-0.9-0.3-1.7-0.6-2.5c-0.7-0.5-1.4-1.1-2-1.7c0-0.5,0-0.9,0-1.4c1.2,1.1,2.8,1.2,4.3,1.6c0.1,0.4,0.2,0.8,0.4,1.2
		c0.5-1,0.8-2.2,0.5-3.3c-0.8-0.4-1.7-0.6-2.6-0.4c-0.9,0.3-2.3-0.6-1.9-1.6c1.9-0.9,3.8-1.7,5.9-1.5c2.1,0.1,4.4,0.6,5.9,2.2
		C67.7,111.7,71.1,114.9,75.4,115.7z M208.6,33.4c0.4-0.7,1.2-0.7,1.9-0.7c1.3,1,2.4,2.1,3.6,3.3c0.2,0.1,0.6,0.4,0.8,0.5
		c0.5-0.6,1.1-1.1,1.6-1.7c0.3,0,0.7-0.1,1-0.1c-0.2,0.3-0.3,0.7-0.7,0.8c-1,0.3-1.2,2.1-2.5,1.7c-1-0.5-1.5-1.6-2.5-2.1
		c-0.2,0.1-0.7,0.3-0.9,0.5c0.3,0.4,0.8,0.7,0.8,1.2c-1.2,0.2-2.2-0.3-3-1.1C208.4,34.9,208,34,208.6,33.4z M74.4,108.7
		c0.5-0.4,1-0.8,1.5-1.2c-0.3,1.8-1,3.4-2,4.9c-0.5,0-1,0-1.6,0C72.1,110.8,73.4,109.7,74.4,108.7z M71.8,92.5c0,0.7,0.1,1.3,0.1,2
		c-0.9-0.5-1.6-1.3-2-2.3c1-0.9,2.2-1.7,3.5-1.6c1.5,0,2.6,1.2,3.3,2.4c0.2,0.7,0.2,1.5,0.3,2.2c-1,0.1-1.9,0.2-2.9,0.2
		c0.3-0.6,0.9-1,1.4-1.4c-0.5,0-1-0.1-1.6-0.1c0-0.5,0-1,0-1.6c-0.4,0.3-0.8,0.7-1.2,1C72.5,93.1,72.2,92.8,71.8,92.5z M77.1,100
		c0.3,1.3-1.5,1.4-2.4,1.6c0.3-0.5,0.6-1,0.9-1.6c-0.5,0.1-1.1,0.1-1.6,0.2c-0.1-0.4-0.1-0.8-0.2-1.2c-0.1,0-0.3,0-0.5,0
		c-0.1,0.4-0.2,0.8-0.3,1.1c-0.5-0.1-1.1-0.2-1.6-0.3c0.3,0.5,0.6,1.1,0.9,1.6c-0.9-0.2-1.8-0.6-2.6-1.2c0.3-2.2,2.9-3.6,5-2.8
		C75.8,98,76.8,98.9,77.1,100z M69.6,106.6c1.4-0.5,2.9-0.3,4.3,0c0.2,0.1,0.5,0.4,0.6,0.5c0.1,0,0.4,0.1,0.6,0.1
		c-1.1,1.1-2,2.6-3.6,3c-0.8,0.2-1.2-0.6-0.8-1.2c0.8-0.8,2-1.2,3-1.6c0-0.2,0-0.4,0-0.5c-1.3,0.6-2.7,1.4-4.1,0.7
		C69.5,107.3,69.6,106.9,69.6,106.6z M76.3,86.7c0.7,1.1-1.1,1.9-2.1,1.8c0.3-0.5,0.6-1,0.9-1.4c-0.5,0.1-0.9,0.3-1.4,0.5
		c-0.2-0.4-0.4-0.9-0.6-1.3c-0.2,0.5-0.4,0.9-0.6,1.4c-0.4-0.1-0.8-0.2-1.2-0.2c0.3,0.4,0.5,0.9,0.7,1.4c-0.8-0.1-1.6-0.4-2.4-0.6
		c0.1-1.5,1.3-2.6,2.6-3.3C73.9,84.7,75.6,85.3,76.3,86.7z M73.9,80.6c1.3-0.5,2.8-0.9,4.1-0.1c1.5,0.9,1.9,2.8,1.4,4.4
		c-0.9-0.1-1.7-0.3-2.5-0.5c0.4-0.2,0.8-0.5,1.3-0.7c0-0.1,0-0.4,0-0.5c-0.3,0-0.8-0.1-1.1-0.1c0.1-0.4,0.3-0.9,0.4-1.3
		c-0.2,0-0.5,0-0.6,0c-0.2,0.2-0.5,0.6-0.6,0.8c-0.3-0.4-0.6-0.7-0.9-1.1c0,0.6,0,1.1-0.1,1.7C74.3,82.6,73.7,81.7,73.9,80.6z
		 M82.5,78.4c-0.8,0.3-1.7,0.5-2.6,0.4c0.4-0.4,0.8-0.7,1.2-1.1c-0.5,0-0.9,0-1.4,0c0-0.3-0.1-0.9-0.1-1.2c-0.3,0.3-0.7,0.6-1,1
		c-0.4-0.2-0.7-0.4-1.1-0.5c0.2,0.5,0.4,0.9,0.6,1.4c-0.7-0.1-1.4-0.6-2-1c0.3-1.9,2.9-2.9,4.5-1.9C81.8,76,82.3,77.2,82.5,78.4z
		 M85.8,72.4c0.7,1.1,0.4,2.5-0.1,3.7c-1,0.2-1.8-0.3-2.3-1.1c0.5,0,1,0,1.5,0c-0.3-0.3-0.6-0.6-0.9-0.9c0.2-0.3,0.5-0.6,0.7-0.9
		c-0.4,0-0.8,0.1-1.3,0.1c-0.1-0.4-0.3-0.8-0.4-1.2c-0.2,0.5-0.4,0.9-0.6,1.4c-0.6-0.7-0.4-1.7-0.4-2.5C83.5,70.9,85,71.2,85.8,72.4
		z M88.7,67.8c0.8,0.6,0.9,1.6,1,2.5c-0.7,0.2-1.4,0.3-2.1,0.2c0.2-0.2,0.7-0.6,1-0.8c-0.9,0-1.1-0.7-1.2-1.4
		c-0.2,0.2-0.5,0.6-0.6,0.9c-0.3-0.2-0.6-0.4-0.9-0.6c0,0.4,0,1.1,0,1.4c-0.5-0.5-1-1-1.5-1.5c0.4-0.4,0.9-0.8,1.3-1.1
		C86.7,67.1,87.9,66.9,88.7,67.8z M91,64.4c-0.2,0.1-0.6,0.4-0.8,0.5c-0.1-0.4-0.3-0.7-0.4-1.1c-0.1,0.3-0.4,0.9-0.5,1.2
		c-0.2-0.3-0.4-0.6-0.6-0.8c0-0.4,0-0.7,0-1.1c1.3-0.5,3-0.2,3.7,1.1c0.6,1,0.3,2.2-0.1,3.2c-0.9,0-1.6-0.4-2.2-1.1
		c0.5,0.1,0.9,0.1,1.4,0.2c-0.2-0.3-0.4-0.6-0.6-0.8C90.9,65.2,90.9,64.8,91,64.4z M90,60.5c0.2,0.3,0.5,0.7,0.7,1
		c-0.6,0-1.2-0.1-1.9-0.1c-0.2-1.1,0.5-2.1,1.2-2.9c0.7-0.1,1.5-0.3,2.2,0c0.5,0.3,1,0.7,1.5,1.1c-0.5,0.5-0.9,0.9-1.4,1.4
		c0-0.3,0-1,0-1.4c-0.1,0.2-0.4,0.5-0.6,0.6c-0.3-0.3-0.6-0.5-0.9-0.8c0,0.3,0,0.8,0,1.1C90.7,60.5,90.2,60.5,90,60.5z M88.2,51
		c0.7-0.6,1.7-0.1,2.5,0.1c-0.2,0.5-0.4,1.1-0.7,1.6c-0.1-0.3-0.1-0.8-0.2-1.1c-0.3,0.3-0.8,0.5-1.2,0.4c0,0.5,0,1,0,1.5
		c-0.4,0-0.9-0.1-1.3-0.1C87.2,52.5,87.4,51.5,88.2,51z M78.4,44c0.6,0.3,1.1,0.7,1.7,1.1c0.1,0.6,0,1.3,0.6,1.6
		c1.5,1,3.4,1.7,4.3,3.3c-1.4-1.5-3.3-2.2-5.1-3.3C78.9,46.2,78.2,45.1,78.4,44z M83.9,43.9c0.1,0.8-1,1-1.4,1.5
		c-0.2-0.7-0.3-1.5-0.5-2.2c-0.5,0.3-1,0.7-1.5,1c-0.5-0.3-1-0.6-1.5-0.9C80.6,42.8,82.4,43.2,83.9,43.9z M93.8,51.7
		c-0.7,0-1.5,0.1-2.2,0.1c0.2-0.6,0.6-1.2,0.5-1.9c-0.7-0.1-1.4,0.2-2.1,0.4c0.2-0.7,0.3-1.5,0.5-2.2c-0.7,0.2-1.4,0.4-2.1,0.7
		c0.1-0.7,0.2-1.4,0.3-2.1c-0.7,0.2-1.4,0.5-2.1,0.8c0-0.6,0-1.1,0-1.7c-0.1-0.2-0.3-0.3-0.4-0.5c-0.5,0.4-1,0.8-1.6,1.2
		c0-0.8-0.1-1.5-0.1-2.3c0.8,0.4,1.6,0.8,2.4,1.1c0.5,0.4,1,0.8,1.5,1.2C90.5,47.8,92.3,49.6,93.8,51.7z M95,53.8
		c-0.7,0-1.5,0-2.2,0c0.3-0.7,0.7-1.3,1-2C94.2,52.4,94.6,53.1,95,53.8z M92.2,68.4c0.8,0,1.6,0,2.3,0c-0.4-0.6-0.8-1.2-1.3-1.8
		c0.7-0.2,1.5-0.3,2.3-0.4c-0.4-0.5-0.8-0.9-1.2-1.4c0-0.1-0.1-0.3-0.1-0.4c0.6-0.2,1.3-0.2,1.7-0.6c-0.1-0.7-1-1-1.4-1.5
		c0.6-0.3,1.2-0.6,1.8-0.9l0-0.4c-0.7-0.3-1.3-0.8-2.1-0.9c0.8-0.3,1.5-0.9,2.1-1.5c-0.6-0.2-1.3-0.5-1.9-0.7c0.5-0.6,1-1.2,1.5-1.7
		c-0.9-0.2-1.8-0.3-2.7-0.4c0,0.9-0.9,0.9-1.5,1.2c0.1-0.3,0.2-0.7,0.3-1c-0.2,0-0.6,0.1-0.8,0.2c-0.1-0.3-0.3-0.6-0.4-0.9
		c0,0.2-0.1,0.7-0.2,0.9c-0.3,0-0.8-0.1-1-0.1c0.2,0.2,0.5,0.7,0.6,0.9c-0.6-0.2-1.1-0.3-1.7-0.5c0.2-2.1,3.5-2.8,4.2-0.7
		c0.4,0,0.8,0,1.2,0l-0.2-0.3c0.4-0.5,0.7-1,1.1-1.5c1.4,2.8,1.9,6.1,1.4,9.2c-0.4,2.7-1.6,5.1-2.9,7.5C93,69.8,92.6,69.1,92.2,68.4
		z M92.1,72.3c-0.5,0.7-1,1.4-1.6,2c-0.2-0.7-0.5-1.3-0.7-2c0.7,0.1,1.5,0.1,2.2,0.2c-0.3-0.7-0.6-1.4-0.8-2.1
		c0.7,0,1.5,0.1,2.2,0.1C93,71.1,92.6,71.7,92.1,72.3z M85.9,79.8c-0.2-0.7-0.5-1.4-0.7-2.1c0.7,0.1,1.4,0.1,2.2,0.2
		c-0.2-0.7-0.5-1.4-0.7-2.1c0.6,0.1,1.1,0.2,1.7,0.4c0.2-0.2,0.3-0.4,0.5-0.6c-0.2-0.5-0.5-1.1-0.7-1.6c0.8,0.1,1.6,0.3,2.4,0.4
		c-0.5,0.5-1,1.1-1.3,1.8c-0.2,0.1-0.4,0.2-0.6,0.3C87.8,77.5,86.8,78.6,85.9,79.8z M82.2,85c-0.8,0-0.9-1.1-1.3-1.6
		c0.8,0,1.5,0,2.3,0c-0.3-0.7-0.6-1.3-1-2c0.7-0.1,1.4,0.2,2-0.2c0.1-0.7-0.4-1.2-0.5-1.9c0.7,0.1,1.5,0.2,2.2,0.4
		C84.6,81.5,83.4,83.2,82.2,85z M79.7,91.6c-0.4-0.3-0.9-0.7-1.3-1c0-0.1-0.1-0.4-0.1-0.5c0.6-0.2,1.3-0.5,1.9-0.8
		c-0.6-0.5-1-1-1.5-1.5c0.8-0.1,1.6-0.2,2.4-0.2c-0.4-0.7-0.8-1.3-1.2-2c0.7,0,1.5,0,2.2,0C80.9,87.4,80.2,89.4,79.7,91.6z
		 M96.3,100.2c0,0.7,0,1.4-0.1,2.1c-0.2-0.1-0.6-0.2-0.8-0.2c-0.4-0.3-0.8-0.6-1.1-0.9c-0.2,0.7-0.3,1.5-0.5,2.2
		c-0.4-0.5-1.6-1.1-1.2-1.7C93.9,101.3,95.2,100.9,96.3,100.2z M103.6,84.7c0.5,0.5,1.4,0.7,1.6,1.4c-0.6,0.3-1.3,0.6-1.9,0.8
		c0.6,0.5,1.2,1,1.8,1.5c-0.7,0.2-1.4,0.5-2.1,0.7c0.5,0.6,1.1,1.1,1.7,1.7c-0.7,0.2-1.4,0.4-2.1,0.6c0.5,0.6,0.9,1.2,1.4,1.8
		c-0.7,0.1-1.5,0.1-2.2,0.2C102.8,90.7,103.1,87.6,103.6,84.7z M105.5,100.4c0.4-0.3,0.8-0.7,1.1-1c0.4,0.3,0.7,0.7,1.1,1
		c0-0.6,0.1-1.2,0.1-1.8c0.6,0.6,1.3,1.2,1.5,2.1c0.1,0.8-0.9,0.9-1.4,1.2c-1.4,0.6-2.9,0.2-4.1-0.7c-0.9-1.2-1.3-2.6-1-4.1
		c1,0,1.9,0,2.9,0.1c-0.3,0.6-0.9,0.9-1.5,1.2c0.4,0.1,0.9,0.2,1.3,0.4C105.5,99.3,105.5,99.8,105.5,100.4z M105,78
		c0.7-0.1,1,0.9,1.5,1.2c-0.7,0.2-1.4,0.6-2,1c0.7,0.2,1.2,0.7,1.7,1.2c-0.6,0.2-1.2,0.4-1.8,0.5c0,0.3,0,0.5,0,0.8
		c0.5,0.3,0.9,0.6,1.4,1c-0.7,0.3-1.4,0.6-2,1c0-0.8,0.2-1.6,0.1-2.3c0.1,0,0.2,0,0.3,0.1C104.2,80.9,104.2,79.3,105,78z
		 M105.7,75.5c0.6,0.3,0.9,1,1.4,1.5c-0.7,0.1-1.4,0.6-2,0.3C105.2,76.8,105,75.7,105.7,75.5z M111.8,88.1c-0.1-0.6-0.1-1.1-0.2-1.7
		c0.3,0.1,0.6,0.2,0.9,0.2c0.4,0.7,0.8,1.4,0.9,2.1c-0.8,0.4-1.7,0.9-2.6,1.1c-1.4,0-2.8-0.6-3.5-1.8c-0.7-1-0.6-2.3-0.4-3.5
		c1,0.2,2.2-0.1,2.9,0.8c-0.3,0.1-0.9,0.2-1.2,0.2c0,0.1-0.1,0.4-0.1,0.6c0.3,0,0.9,0.1,1.1,0.1c0,0.5-0.1,1-0.1,1.5
		c0.4-0.2,0.8-0.5,1.3-0.7C111.1,87.4,111.4,87.8,111.8,88.1z M107.3,71.1c0.6,0.3,0.8,1,1.1,1.5c-0.7,0.1-1.5,0.3-2.2,0.4
		c0.5,0.5,1,1.1,1.4,1.7c-0.6,0.2-1.3,0.4-2,0.5c-0.1-1.1,0.5-2.1,0.8-3.1C106.8,71.7,106.8,71.2,107.3,71.1z M113,63.1
		c0.3,0.6,0.2,1.2,0.3,1.8c0.1,0.1,0.3,0.2,0.4,0.2c-0.2,0-0.5,0-0.6,0c-0.5-0.1-1-0.6-1.6-0.3c-0.3,0.6,0.2,1.3,0.2,1.9
		c-0.7-0.1-1.4-0.1-2.1-0.2c0.3,0.7,0.5,1.4,0.8,2.1c-0.7,0-1.4,0-2.1,0c0.4,0.6,0.7,1.3,1,1.9c-0.7,0.1-1.5,0.1-2.3,0.2
		c1.1-2.2,2.4-4.3,4.1-6.2C111.9,64.1,112.3,63.3,113,63.1z M112.1,74.6c0.4-0.2,0.9-0.4,1.3-0.5c0.2,0.5,0.5,0.9,0.8,1.3
		c0-0.3,0.1-1,0.1-1.3c0.2,0,0.5-0.1,0.7-0.1c0.3,0.8,0.5,1.6,0.6,2.5c-1.6,0.7-3.6,0.7-4.9-0.7c-1.3-1.3-1.2-3.3-0.5-4.9
		c1,0,2.1,0.3,2.8,1c-0.6,0.2-1.2,0.3-1.8,0.5c0.3,0.2,0.7,0.5,1,0.7C112.3,73.6,112.2,74.1,112.1,74.6z M142.6,63.8
		c-0.7,0.3-1.3,0.6-2,0.9c0-0.7,0.2-1.4-0.2-2c-0.7-0.1-1.3,0.5-1.9,0.8c0-0.7,0-1.5,0-2.2c-0.7,0.4-1.3,0.8-2,1.2c0-0.7,0-1.3,0-2
		c-0.8,0.1-1.5,0.5-2,1.1c-0.2-0.7-0.3-1.5-0.4-2.2C137.2,60.5,140.2,61.8,142.6,63.8z M144.4,65.1c-0.6,0.6-1.3,0.8-2.1,1
		c0.1-0.7,0.2-1.4,0.3-2.1C143.3,64.3,143.8,64.7,144.4,65.1z M149.4,70.9c-0.8,0-1.6,0.1-2.4,0.1c0.2-0.5,0.5-1.1,0.8-1.6
		c-0.2-0.2-0.3-0.3-0.5-0.5c-0.5,0.2-1.1,0.3-1.7,0.4c0.1-0.7,0.3-1.5,0.5-2.2c-0.7,0.2-1.5,0.4-2.2,0.6c0.2-0.7,0.5-1.5,0.7-2.2
		c0.3,0.4,0.7,0.8,1,1.1c0.6,0.7,1.3,1.4,2,2.1C148.3,69.4,148.8,70.2,149.4,70.9z M156.1,80.5c-0.8,0-1.6,0-2.4,0
		c0.4-0.6,0.7-1.2,1.1-1.8c-0.8,0-1.5,0-2.3,0c0.3-0.7,0.6-1.3,1-2c-0.8,0-1.5,0.1-2.3,0.1c0.3-0.7,0.7-1.4,1-2.1
		c-0.8,0-1.5,0.1-2.3,0.1c0.2-0.6,1-1.2,0.5-1.9c-0.5-0.3-1.1,0-1.7,0.1c0.2-0.7,0.1-1.7,1-1.8c1.9,2.8,3.9,5.6,5.7,8.5
		C155.7,79.9,155.9,80.2,156.1,80.5z M149.9,85.8c0.3,0.3,0.6,0.6,0.9,1c0,0.1,0.1,0.4,0.1,0.6c-0.9-0.1-1.8-0.5-2.6-0.9
		c0.3-1.9,2.1-3.6,4-3.4c1.7,0.1,3,1.4,3.5,3c-0.8,0.5-1.6,1-2.5,1.3c0.2-0.6,0.4-1.3,0.6-1.9c-0.5,0.2-0.9,0.4-1.4,0.6
		c-0.2-0.4-0.3-0.9-0.5-1.3c-0.1,0.1-0.4,0.2-0.5,0.2c0,0.3-0.1,0.7-0.1,1C151.1,85.9,150.5,85.9,149.9,85.8z M176.4,76.5l0.1-0.2
		c0.6-0.4,1.2-0.6,1.9-0.8c-0.1,0.7-0.2,1.4-0.3,2.1c0.7-0.2,1.4-0.4,2.1-0.7c-0.1,0.7-0.1,1.4-0.2,2.2c0.7-0.3,1.4-0.5,2.1-0.8
		c-0.2,0.8-0.4,1.5-0.5,2.3c0.7-0.1,1.4-0.3,2.1-0.5c-0.2,0.7-0.4,1.4-0.6,2.1c0.7-0.1,1.5-0.1,2.2-0.1c-0.3,0.7-0.7,1.4-1,2
		c0.8,0,1.5,0.1,2.3,0.2c-0.4,0.6-0.9,1.2-1.3,1.8c0.7,0.1,1.4,0.3,2.1,0.4c-0.1,0.1-0.2,0.4-0.2,0.6c-0.4,0.3-0.8,0.7-1.2,1.1
		c-1.1-4.3-4.1-7.8-7.6-10.3C177.6,77.4,177,77,176.4,76.5z M172.6,73.7l0.2-0.2c0.5-0.3,1.1-0.6,1.7-0.8c0,0.7-0.1,1.5-0.1,2.2
		c0.7-0.3,1.4-0.5,2.1-0.7c0,0.6-0.1,1.2-0.3,1.8C174.8,75.7,173.7,74.5,172.6,73.7z M168.9,70.7l0.1-0.2c0.6-0.4,1.3-0.4,1.9-0.7
		c0,0.6-0.5,1.3-0.1,1.9c0.7,0.3,1.3-0.4,1.9-0.5c-0.1,0.6,0,1.3-0.3,1.9c-0.1,0-0.3,0.1-0.4,0.2C170.7,72.6,169.9,71.6,168.9,70.7z
		 M162.6,63.1c0.8,0,1.5,0,2.3,0c-0.3,0.6-0.6,1.2-1,1.9c0.7,0,1.4,0,2.1-0.1c-0.2,0.7-0.4,1.4-0.7,2.1c0.7-0.1,1.5-0.3,2.2-0.4
		c-0.2,0.7-0.4,1.4-0.6,2.2c0.8-0.1,1.5-0.3,2.2-0.5c-0.2,0.6-0.2,1.3-0.5,1.9l-0.2,0C166.1,68.2,164.1,65.8,162.6,63.1z
		 M166.7,45.6c0.5,0,1.1-0.1,1.6-0.1c0.1,0.3,0.3,0.7,0.4,1.1c0.1,0,0.3-0.1,0.4-0.1c0.1-0.4,0.1-0.8,0.2-1.3c0.1,0,0.4,0.1,0.6,0.1
		c0.2,0.8,0.4,1.7,0.5,2.6c-1.4,0.6-3,0.3-4.3-0.5c-0.5-0.7-1.2-1.4-1.2-2.4c-0.1-1,0.1-1.9,0.4-2.8c0.2-0.1,0.5-0.4,0.7-0.5
		c0.7,0.3,1.3,0.7,2,1c0,0.2-0.1,0.5-0.1,0.6c-0.5,0-1.1,0-1.6,0c0.4,0.3,0.9,0.7,1.3,1C167.2,44.8,167,45.2,166.7,45.6z
		 M170.4,52.5c-0.6,0.7-1.3,1.5-2.2,1.8c-0.9,0.3-1.8,0.1-2.7,0.1c-1.5-0.8-2.4-2.3-2.5-4c0.9-0.3,1.8-0.5,2.8-0.4
		c0,0.1-0.1,0.4-0.1,0.5c-0.4,0.3-0.8,0.6-1.2,0.9c0.5,0,1.1,0,1.6,0c0,0.5,0,0.9,0,1.4c0.1,0,0.3-0.1,0.4-0.1
		c0.3-1.1,1.3-0.6,2-0.2c-0.2-0.6-0.3-1.2-0.5-1.8C169.1,51,169.9,51.7,170.4,52.5z M170.7,57c0.1,1.7-1.1,3.2-2.7,3.7
		c-2,0.6-4.1-0.7-4.7-2.6c0.8-0.6,1.5-1.4,2.6-1.2c-0.3,0.5-0.6,1-0.9,1.5c0.5-0.2,1-0.3,1.5-0.5c0.3,0.5,0.6,0.9,0.9,1.3
		c0.1-0.5,0.2-1,0.3-1.6c0.5,0,1,0.1,1.5,0.1c-0.4-0.5-0.7-1-1.1-1.5C169,56.5,169.8,56.7,170.7,57z M161.4,60.8
		c0.7,0.1,1.5,0.2,2.2,0.3c-0.4,0.6-0.7,1.3-1.1,1.9C162.1,62.3,161.8,61.6,161.4,60.8z M160.6,58.7c0.7,0,1.4,0.3,2.1,0.4
		c-0.4,0.6-0.9,1.2-1.4,1.7C161.1,60.1,160.6,59.4,160.6,58.7z M159,51.4c0.7,0.3,1.3,0.7,2,1c-0.5,0.4-0.9,0.8-1.4,1.2
		c-0.1,0.8,1.2,0.7,1.8,1.1c-0.6,0.5-1.2,1-1.7,1.6c0.7,0.2,1.5,0.4,2.2,0.6c-0.4,0.5-0.8,1.1-1.3,1.5l-0.2,0.1
		C159.5,56.2,159.3,53.8,159,51.4z M164.2,42.1c-0.8,0-1.5,0-2.3-0.1c0.4,0.7,0.7,1.3,1,2c-0.7,0-1.4,0-2.1,0.1
		c0.4,0.6,0.8,1.3,1.1,2c-0.6,0.1-1.2,0-1.7,0.4c-0.3,0.8,0.8,1.1,1.2,1.7c-0.7,0.2-1.4,0.5-2.1,0.9c0.6,0.4,1.2,0.9,1.8,1.3
		c-0.7,0.3-1.4,0.7-2.1,1.1c0.2-2.8,0.9-5.6,2.1-8.1c0.7-1.1,1.2-2.3,2.2-3C163.9,40.7,163.9,41.5,164.2,42.1z M165.1,38.2
		c0.2,0.7,0.4,1.4,0.5,2.1c-0.7-0.1-1.3-0.1-1.9-0.4C163.7,39.2,164.5,38.7,165.1,38.2z M167.1,36.6c0,0.7,0.1,1.5,0.1,2.2
		c-0.7-0.2-1.4-0.5-2.2-0.6c0.1-0.1,0.2-0.2,0.2-0.3C165.9,37.5,166.5,37.1,167.1,36.6z M171.8,33.7c0.2-0.3,0.7-0.3,0.8,0.1
		c-1.1,0.3-2.1,0.7-3.2,0.9c-0.9,0.1-1.9-0.2-2.8-0.3c-1.7-0.6-3.2-1.4-4.4-2.8C165,33.4,168.5,34.6,171.8,33.7z M167.6,31.9
		c1.5,0.8,3.3,0.4,4.8-0.1c-0.3,0.3-0.6,0.5-0.9,0.8c-1.8,0.8-3.9,0.3-5.6-0.8c-2.8-1.9-4.4-5.1-6.7-7.5
		C162.2,26.6,164.1,30.3,167.6,31.9z M165.2,27.9c0.7,1.1,1.9,1.8,3.1,2.3c1.2,0.2,2.4,0.4,3.6,0.4c0.3-0.2,0.6-0.3,0.8-0.5
		c-0.3,0.3-0.5,0.5-0.8,0.8c-2.3,0.4-4.8,0.1-6.6-1.5c-2.3-2.2-2.7-5.7-5-7.9c-1-0.2-2.1-0.3-3.2-0.4c1.2,0,2.3,0,3.5,0
		C162.8,22.9,163.6,25.7,165.2,27.9z M165.2,23.9c1.1,1,2,2.3,3.4,2.9c1.4,0.5,3,0.5,4.5,0.8c-1.7,0-3.6,0.4-5.2-0.4
		C166.6,26.5,165.8,25.2,165.2,23.9z M166.7,27.4c1.6,1.4,3.8,1.4,5.8,1.7c-1.2,0.3-2.5,0.3-3.8,0.1c-1.9-0.5-3.4-2.1-4-3.9
		c-0.4-1.4-0.9-2.7-1.3-4C164.5,23.4,165,25.8,166.7,27.4z M167.8,24.2c1.5,1.3,3.5,1.7,5.4,2.3c-1.7,0.3-3.3-0.5-4.9-1
		c-3.1-1.7-4.3-5.3-6.4-7.9c-0.7-1-2-1.3-3.1-1.7c0.8-0.1,1.7-0.2,2.5,0.1c1.3,0.6,2,1.9,2.7,3.1C165,21,166.1,22.9,167.8,24.2z
		 M174.4,26c-3.4-0.5-6.7-2.4-8.1-5.6C168.2,23.2,171.3,25,174.4,26z M188.6,25.1c-1.7,0.4-3.4,0-5.2,0.1c0.6,0.5,1.3,0.7,2.1,0.7
		c0,0.1-0.1,0.4-0.2,0.5c-0.7,0.1-1.4,0.2-2.1,0.3c-4.5-0.1-9.2-0.9-12.8-3.8c-1.1-1-2.6-2-2.6-3.7c0.4,0.1,0.8,0.1,1.1,0.5
		c1.3,1.4,2.9,2.9,4.9,3.1c-1.6-1.6-3.5-3-4.6-5.1c-0.9-1.8-1.9-3.7-1.9-5.8c0.5,0.2,1,0.6,1.2,1.1c1.5,3.2,3.9,6,6.6,8.4
		c0.6,0,1.3,0.1,1.8-0.4c-1-1.7-2.9-3.3-2.5-5.6c1.1,1.2,2,2.7,3.1,3.9C180.4,22.5,184.2,25,188.6,25.1z M180.6,30.7
		c-0.9-0.8-2.1-1.5-2.4-2.7c0.2-0.1,0.6-0.3,0.8-0.4C179.8,28.4,180.3,29.5,180.6,30.7z M180.5,27c0.1,0.2,0.4,0.5,0.6,0.7
		c0,0.8,0,1.7-0.1,2.5C180.4,29.4,179.5,28,180.5,27z M179.9,31.1c-1-0.4-2.3-0.6-2.7-1.7C178.4,29.1,179.6,29.9,179.9,31.1z
		 M176.9,31.2c0.8-0.8,2.3-0.6,2.7,0.4C178.7,31.6,177.6,31.9,176.9,31.2z M177.4,32.1c0.7-0.2,1.4-0.2,2.1-0.3
		c-0.7,0.6-1.5,1-2.3,1.3C177.3,32.8,177.4,32.5,177.4,32.1z M182.8,28.3c0.1-0.1,0.4-0.3,0.6-0.4c0.2,0.2,0.3,0.3,0.5,0.5
		c-0.7,0.9-1.6,1.5-2.7,1.7c0.3-0.1,0.6-0.3,0.9-0.4C182.3,29.3,182.5,28.8,182.8,28.3z M181.4,30c-0.1-0.8,0-1.7,0.1-2.5
		c0.2,0,0.7,0,1,0C182.4,28.4,182.2,29.4,181.4,30z M194.3,32.8c-0.2-0.1-0.6-0.3-0.8-0.3c0,0.3,0.1,1,0.1,1.3
		c-0.2-0.2-0.5-0.6-0.6-0.8c-0.1,0.7-0.1,1.4-0.2,2.1c0.8,0.5,1.8,0.6,2.6,0.1c-0.1,0.3-0.1,0.7-0.2,1c-0.8,1-2.1,1.1-3.3,1
		c-0.9-0.6-2.1-1.4-1.9-2.6c0-0.9,1-1.4,1.8-1.7l0-0.4c-1.6,0-3.3-0.2-4.9-0.9c0-0.3,0-0.7,0.1-1c1-0.1,1.9,0.1,2.8,0.4
		c-0.7-0.5-1.4-1.2-1.6-2.1c1.3-0.2,2.3,0.7,2.9,1.8c-0.3-0.8-0.6-1.7-0.8-2.6c0.6,0,1.2,0.1,1.4,0.8
		C192.6,30.4,193.3,31.7,194.3,32.8z M197.4,28.8c-0.2,0.4-0.4,0.9-0.5,1.3c0.3,0.3,0.7,0.4,1.1,0.5c0,0.7,0,1.4,0.1,2.1
		c-0.8-0.5-1.7-0.9-2.7-1.3c0.7-0.2,1.6-0.1,2.2-0.8c-1.3-0.1-2.6-0.2-4,0c0.9-1,2.4-0.6,3.2-1.6C197,29,197.3,28.9,197.4,28.8z
		 M200.7,27.5c0,0.3,0,1-0.1,1.3c-0.3,0.9-0.5,1.8-0.7,2.7c-0.7-0.8-1.5-1.6-2.1-2.5c0.4,0.1,0.8,0.2,1.2,0.3
		c-0.2-0.5-0.5-1.1,0-1.6c0.1,0.2,0.4,0.6,0.6,0.8C199.7,27.8,200,27.4,200.7,27.5z M199.6,34.3c-0.3-0.3-0.5-0.6-0.4-1.1
		C199.5,32.5,200.1,34.2,199.6,34.3z M203,33.1c-0.5,0.5-0.9,1.2-1.8,1c-1.2,0-1.1-1.5-1.2-2.4c0.6-0.8,1.4-1.3,2.4-1
		c-0.3,0.3-0.5,0.5-0.8,0.8c0,0.4,0,0.8,0,1.2C202.1,32.8,202.5,33,203,33.1z M199.5,53.3c-1.7-0.7-3.2-2-3.7-3.9
		c2,2.4,5.3,4,8.4,2.9c1.4-0.5,2.8-0.8,4.2-0.6c-2.2,0.5-4.2,1.7-6.5,1.9C201.1,53.5,200.3,53.4,199.5,53.3z M185.3,38.2
		c1.2-0.7,2.6-0.1,3.8,0.2c-0.9,0-1.8-0.1-2.7,0c-0.8,0.9,0.2,2,0.9,2.5c2,1.2,4.5,1.3,6.8,1.6c-2.4,1.2-5.3,0.8-7.6-0.5
		c1.3,1.7,3.7,1.9,5.2,3.3c3.7,3.2,4.4,8.4,5.2,13c1.8-0.6,2.6-2.4,3.5-3.9c-0.3,1.8-0.9,3.6-2,5.1c0,0.2-0.1,0.5-0.1,0.6
		c0.8,0.3,1.7,0.3,2.6,0.2c0.8-0.3,1.6-0.6,2.4-0.9c1.1,0.3,2.2,0.9,3.4,0.6c-0.3-0.5-0.7-1-1.1-1.5c1.1-1,1.6-2.5,2-3.9
		c0.2,1.6-0.2,3.1-0.7,4.5c0.3,0.6,1.1,1.6,0.3,2.2c-1.3,0.3-2.6-0.7-3.9-0.3c-1.7,0.5-3.4,0.8-5.1,0.6c-0.9-0.7-1.8-1.5-2.1-2.7
		c-0.7-2.4-0.7-4.9-1.6-7.2c-1-3-3.4-5.4-6.1-7c-1.5-0.9-3.3-2-3.7-3.8C184.2,40.1,184.8,39.1,185.3,38.2z M179.7,45.6
		c1.3-1.2,2.2-2.8,2.2-4.6c-1.4,1.8-4,2.5-6.2,1.6c0.4-0.1,0.8-0.2,1.2-0.2c1.4-0.6,2.7-1.4,3.7-2.6c-2.7,0-5.6-0.3-7.8-2.1
		c1.3,0.3,2.6,0.4,3.9,0.6c-1.7-1.1-3.4-2.4-4.9-3.8c1.8,0.8,3.5,1.9,5.5,2.4c-1.1-1.4-2.2-3.2-1.9-5.1c1.1,2.1,3.1,3.6,5,5
		c0,0-0.1-0.1-0.1-0.2c-0.8-1-1.3-2.1-1.3-3.4c1,1,2.2,1.7,3.5,2.2c-0.6-1-0.5-2.2-0.3-3.4c0.4,0.9,0.9,1.7,1.5,2.5
		c1.8,1.4,4.3,1.4,6.1,2.8c1,0.7,1.9,1.6,3,2.1c0.6-0.1,1.2-0.2,1.8-0.3c-0.6,0.3-1.2,0.5-1.8,0.7c-0.2,0.2-0.2,0.4-0.1,0.7
		c2.9,1,6,0,8.6-1.4c0,0.3-0.1,0.8-0.2,1.1c0.7-0.6,1.5-1.1,2.2-1.8c-0.1,0.5-0.1,0.9-0.2,1.4c0.9-0.5,1.7-1.2,2.2-2.1
		c0,0.4-0.1,0.8-0.1,1.1c-0.9,1.3-2.3,2.1-3.9,2.5c0.2-0.3,0.5-0.8,0.7-1c-2.8,0.9-5.9,1.6-8.8,0.7c-0.6-0.3-1.3-0.7-2-0.9
		c0.2,0,0.5-0.1,0.6-0.1c0.1-0.2,0.4-0.5,0.6-0.6l-0.5,0.2c-2.1-1.5-4.3-3.4-7.1-2.9c-0.3,0.4-0.6,0.9-0.9,1.4
		c-0.4,1.6-0.4,3.2-0.6,4.8c-0.2,1.1-1,2-2,2.6C180.8,45.5,180.3,45.6,179.7,45.6z M171.1,45.3c1.1,0,2.1-0.2,3-0.7
		c-1.7-0.4-3.3-0.9-4.8-1.7c1.1-0.4,2.2-0.7,3.2-1.3c-1.4-0.5-2.9-0.9-4.1-1.9c0.9-0.2,1.7-0.5,2.6-0.8c-1.2-1.1-2.4-2.2-3-3.7
		c1.6,1,3.4,1.5,5.2,1.7c-0.8,0.2-1.7,0.2-2.5,0.2c0.8,0.8,1.8,1.4,2.7,2c-0.5,0.2-1.1,0.5-1.7,0.7c1.1,0.5,2.2,0.9,3.3,1.2
		c0.6,0,1.2,0.1,1.8,0.1c-1.3,0.5-2.6,1.1-3.9,1.5c1.4,1,3.2,1.2,4.8,1.6c-1,0.5-2,0.9-3.1,1.2c1.1,0.2,2.3,0.2,3.5-0.1
		c0.1,0,0.4,0,0.6,0C176.4,46.5,173.5,46.6,171.1,45.3z M174.2,64c-0.8,2.1-3.4,2.7-5.3,1.8c0.1-0.9,0.2-2,0.9-2.7
		c0.2,0.5,0.4,1.1,0.6,1.6c0.3-0.4,0.4-0.9,0.7-1.4c0.5,0.2,0.9,0.3,1.4,0.5c-0.2-0.5-0.4-1-0.6-1.5c0.4-0.3,0.7-0.5,1.1-0.8
		c-0.6-0.1-1.2-0.2-1.8-0.2c0.6-0.9,1.7-1.3,2.7-1.4C174.4,61.2,174.8,62.7,174.2,64z M176.6,70.7c-1.6,0.6-3.4,0-4.5-1.2
		c0.5-0.8,1-1.7,1.8-2.2c0,0.6,0,1.3,0,1.9c0.4-0.4,0.8-0.7,1.1-1.1c0.4,0.3,0.8,0.7,1.2,1c0-0.5-0.1-1.1-0.1-1.6
		c0.5-0.1,1-0.2,1.4-0.4c-0.5-0.2-0.9-0.4-1.4-0.7c0-0.1,0.1-0.5,0.1-0.6c0.8,0,1.6-0.1,2.4-0.1C179.4,67.7,178.5,70,176.6,70.7z
		 M185.1,69.8c-0.3,0.9-0.5,1.9-1.3,2.5c-1.1,1.1-2.8,1.2-4.1,0.7c0.1-0.9,0.2-1.9,0.5-2.8c0.4,0.4,0.6,1,0.8,1.5
		c0.5-0.2,0.3-0.8,0.5-1.2c0.5,0.1,1.1,0.1,1.6,0.2c-0.2-0.3-0.5-0.6-0.7-1c0-0.1,0-0.4,0-0.5c0.3-0.3,0.6-0.5,1-0.8
		c-0.5,0-1.1,0-1.6,0.1c0-0.2,0-0.5,0-0.7c0.7-0.4,1.5-0.9,2.3-1.1C184.6,67.7,184.9,68.7,185.1,69.8z M187.5,77.4
		c-1.7,1.4-4.2,0.8-5.5-0.7c0.5-0.8,1.1-1.5,1.8-2.2c0.1,0.6,0.1,1.3,0.1,1.9c0.4-0.3,0.7-0.7,1.1-1c0.4,0.4,0.8,0.7,1.2,1.1
		c0-0.5,0-1.1-0.1-1.6c0.5-0.1,1-0.1,1.6-0.2c-0.6-0.4-1.2-0.7-1.7-1.1c1-0.2,2-0.2,3-0.1C189,74.8,188.8,76.4,187.5,77.4z
		 M193.6,79.9c-1.1,1.2-2.7,1-4.1,0.9c0-0.9,0-1.7,0.1-2.6c0.2,0,0.5-0.1,0.7-0.2c0.1,0.5,0.3,0.9,0.4,1.4c0.2-0.4,0.4-0.7,0.6-1.1
		c0.5,0,1,0.1,1.5,0.1c-0.2-0.5-0.5-1-0.7-1.6c0.2,0,0.6-0.1,0.8-0.2c0-0.2,0.1-0.5,0.2-0.6c-0.5,0-1.1,0-1.6,0
		c0.5-1,1.6-1.4,2.6-1.5C195,76.2,195.2,78.5,193.6,79.9z M195.1,83.9c-0.3,1.5-1.4,3-3,3.4c-2,0.5-4.1-0.9-4.6-2.8
		c0.8-0.5,1.6-1,2.4-1.3c-0.1,0.6-0.3,1.2-0.5,1.8c0.3-0.1,1-0.4,1.3-0.5c0.2,0.5,0.4,0.9,0.7,1.3c0.2-0.5,0.4-1,0.5-1.5
		c0.5,0.1,1,0.3,1.4,0.4c-0.4-0.5-0.7-1-1.1-1.5C193.4,82.9,194.3,83.4,195.1,83.9z M199.7,89.3c-1.1,1.9-4,2.3-5.7,0.9
		c-0.2-0.9,0.6-1.6,0.9-2.3c0.2,0,0.5,0.1,0.6,0.2c0,0.5,0,1,0,1.6c0.3-0.4,0.6-0.8,0.8-1.2c0.5,0.2,0.9,0.4,1.4,0.6
		c-0.1-0.5-0.1-1-0.2-1.5c0.4-0.2,1-0.2,1.2-0.6c-0.5-0.1-0.9-0.2-1.4-0.3c0-0.1,0-0.4,0-0.5c0.2-0.1,0.6-0.2,0.8-0.3
		c0.6-0.1,1.2-0.1,1.8-0.2C200.4,86.8,200.5,88.2,199.7,89.3z M200.8,101.7c0,0.2,0,0.7,0,0.9c-0.7,0.5-1.5,0.9-2.4,1.1
		c0.5-0.7,1-1.3,1.6-1.9C200.2,101.8,200.6,101.7,200.8,101.7z M201.5,104.2c-1,0.4-2.1,0.4-3.2,0.3c0.8-0.8,2-1.2,3.1-1.1
		C201.4,103.6,201.5,104,201.5,104.2z M197.9,105c1.2,0.1,3.9-0.7,3.8,1.3C200.3,106.4,199.1,105.7,197.9,105z M197.7,105.7
		c0.4,0.1,0.8,0.1,1.2,0.2c1,0.6,2.5,1,2.2,2.4C199.5,108.5,198.6,106.9,197.7,105.7z M196.3,107.7c0.1-0.3,0.4-1,0.5-1.4
		c0.4,0.7,0.3,1.6,0.7,2.3c0.4-0.8-0.3-1.8-0.3-2.7c0.9,0.9,1.9,1.8,2.2,3.1c-0.2,0.1-0.5,0.4-0.6,0.6c-0.3-0.3-0.5-0.9-1-0.8
		c-0.5,0.1-0.6,0.8-0.9,1.2c-0.2-0.1-0.5-0.4-0.6-0.6C196.3,108.9,196.3,108.3,196.3,107.7z M196.3,106.6c-0.2,1-0.4,2-0.7,3
		c-0.2,0-0.6,0-0.8,0C194.7,108.4,195.5,107.5,196.3,106.6z M192.2,99.6c0.6-0.5,1.2-1,1.9-1.5c-0.1,0.6-0.1,1.2-0.2,1.8
		c0.5-0.2,0.9-0.5,1.4-0.7c0.1,0.2,0.4,0.6,0.5,0.9c0.1,0,0.4,0,0.5,0.1c0-0.5,0-0.9,0-1.4c0.4,0,1.1,0,1.4,0
		c-0.3-0.3-0.7-0.7-1-0.9c0-0.1-0.1-0.4-0.1-0.5c0.9,0,1.9,0.1,2.7,0.5c-0.2,0.9-0.2,1.8-0.8,2.5c-0.9,1.5-2.9,2.2-4.5,1.5
		C193.2,101.4,192.1,100.7,192.2,99.6z M190.5,96.2c-1.1-0.6-2.2-1.7-2.1-3c0.7-0.4,1.4-0.7,2.2-0.9c0.7,0.8,1,1.8,1.4,2.7
		c0.2-0.5,0.4-0.9,0.6-1.4c0.5,0.1,1,0.2,1.5,0.3c-0.3-0.5-0.7-1-1-1.5c1,0,1.8,0.4,2.6,0.9C195.7,95.6,192.7,97.2,190.5,96.2z
		 M187.1,102c0.5-0.3,0.9-0.6,1.4-1c0.1,0.2,0.4,0.6,0.5,0.8c0.1,0,0.4,0,0.6,0c-0.2-0.5-0.4-1.1,0.1-1.6c0.5,0.7,1.1,1.3,1.3,2.1
		c0.1,0.6-0.5,0.8-0.9,1.1c-1.1,0.3-2.4,0.6-3.5,0c-1.1-0.4-1.6-1.5-2.1-2.5c0-0.8,0-1.5,0-2.3c0.9-0.1,1.8,0,2.7,0.1
		c0,0.1,0.1,0.4,0.1,0.6c-0.5,0.2-1,0.4-1.5,0.6c0.5,0.2,1,0.3,1.5,0.5C187.2,101,187.1,101.5,187.1,102z M184.4,105.6
		c0.9,0,2.1-0.4,2.8,0.4c-0.5,0.3-1,0.6-1.5,0.9c0.4,0,1.1,0.1,1.5,0.1c0,0.6,0,1.1-0.1,1.7c0.4-0.3,0.8-0.7,1.2-1
		c0.4,0.3,0.8,0.7,1.1,1c0-0.7,0-1.3,0-1.9c0.7,0.6,1.3,1.3,1.9,2c-1.3,1.9-4.3,2.3-5.9,0.5C184.4,108.4,184.3,106.9,184.4,105.6z
		 M181.6,107.8c-1.2,0-2.1-0.7-2.9-1.6c-0.2-0.8-0.6-1.6-0.4-2.5c0.3-1.2,1.3-2.1,2.3-2.7c0.7,0.6,1.2,1.4,1.5,2.3
		c-0.5-0.1-1-0.4-1.5-0.6c0.1,0.7,0.6,1.7-0.6,1.7c0,0.1,0,0.4,0,0.5c0.3,0,0.8,0.1,1.1,0.1c-0.1,0.5-0.1,0.9-0.1,1.4
		c0.4-0.4,0.8-0.7,1.2-1C182.2,106.2,181.9,107,181.6,107.8z M175.7,108.2c0.9,0.1,2,0,2.6,0.9c-0.3,0-1,0.1-1.3,0.2
		c0,0.1,0.1,0.4,0.1,0.5c0.2,0,0.7,0.1,1,0.1c-0.2,0.5-0.3,1-0.5,1.5c0.4-0.2,0.9-0.4,1.3-0.6c0.3,0.3,0.6,0.6,0.9,1
		c0-0.5,0-1,0-1.5c0.1,0,0.4,0,0.5,0.1c0.4,0.7,0.7,1.4,0.9,2.1c-0.2,0.1-0.6,0.3-0.9,0.5c-1.4,0.5-3.1,0.3-4-0.9
		C175.3,111,175.5,109.5,175.7,108.2z M171.6,108c-1.1-0.9-2.1-2.1-2.9-3.2c1.6,0.5,3.3,1.1,4.6,2.2c0,0.4,0,0.9-0.1,1.3
		C172.7,108.2,172,108.4,171.6,108z M167.5,104.7c1.3,1.1,2.5,2.3,3.3,3.8c0.3,0.6,0.1,1.2,0,1.8c-0.7-0.1-1.5-0.2-1.8-0.9
		C168.2,108,167.9,106.3,167.5,104.7z M166.6,104.4c0.6,2.2,2.1,4.6,1.2,6.9c-0.5,0-1.1,0-1.6,0
		C165.3,109.1,166.1,106.6,166.6,104.4z M165.7,95.8c0.3-0.8,0.4-1.7,0.6-2.6c-0.7,0.1-1.4,0.3-2.1,0.5c0.2-0.7,0.3-1.5,0.5-2.2
		c-0.7,0.2-1.5,0.4-2.2,0.5c0.2-0.7,0.5-1.5,0.7-2.2c-0.7,0.1-1.4,0.3-2.1,0.5c0.1-0.7,0.3-1.4,0.5-2.1c-0.7,0.1-1.5,0.1-2.2,0.2
		c0.2-0.5,0.5-1.1,0.8-1.6c-0.2-0.2-0.3-0.3-0.5-0.5c-0.5,0.1-1.1,0.2-1.7,0.3c0.2-0.7,0.5-1.4,0.8-2.1c-0.7,0-1.4,0.1-2.2,0.1
		c0.3-0.7,0.5-1.4,0.8-2.1c-0.7,0-1.5,0.1-2.2,0.1c0.3-0.7,0.7-1.4,1-2c0.5,0.7,0.9,1.4,1.4,2.1c0.9,1.2,1.6,2.4,2.6,3.5
		c0.1,0,0.3-0.1,0.5-0.1l-0.2,0.5c2.3,2.9,4.8,5.7,7.7,7.9c0,0-0.1,0-0.1,0c1.2,0.9,2.5,1.7,3.7,2.5c1.9,0.7,3.8,1.5,5.8,1.4
		c3.6,0.1,7.1-2.2,8.3-5.6c0.3-1.6,0.5-3.1,0-4.7c0.7,0.3,1.5,0.6,2.2,0.9c-0.6,0.4-1.2,0.9-1.8,1.3c0.5,0.3,1.1,0.7,1.6,1.1
		c0,0.1,0,0.3,0,0.4c-0.6,0.2-1.2,0.4-1.9,0.6c0.5,0.6,0.9,1.2,1.4,1.8c-0.8,0.1-1.5,0.1-2.3,0.1c0.3,0.7,0.7,1.4,1,2.1
		c-0.8-0.1-1.5-0.2-2.3-0.4c0.2,0.7,0.3,1.5,0.4,2.2c-0.7-0.3-1.5-0.6-2.2-1c0,0.8,0,1.5-0.1,2.3c-0.6-0.4-1.2-0.9-1.8-1.4
		c-0.3,0.6-0.2,1.6-0.8,2c-0.5-0.5-0.8-1.1-1.2-1.6c-0.4,0.6-0.8,1.3-1.3,1.9c-0.3-0.6-0.5-1.3-0.8-1.9c-0.6,0.5-1.1,1-1.7,1.5
		c-0.2-0.7-0.4-1.4-0.5-2.2c-0.6,0.5-1.2,1-1.8,1.4c-0.1-0.7-0.1-1.4-0.2-2.1c-0.7,0.3-1.3,0.6-2,1c0-0.8,0-1.5,0-2.3
		c-0.7,0.3-1.4,0.7-2,1c0-0.8,0.1-1.6,0.2-2.3C167.2,94.9,166.2,95,165.7,95.8z M165.5,104.3c0,2-0.2,3.9-0.8,5.8
		c-0.2,0.7-0.8,1.1-1.4,1.6c-0.4-0.2-0.8-0.4-1.2-0.6C161.9,108.4,164,106.3,165.5,104.3z M159.8,107c1.3-1.5,3.1-2.4,4.9-3.1
		c-0.8,1.4-1.6,2.9-2.7,4.1c-0.5,0.6-1.3,0.9-2.1,1C159.5,108.4,159.2,107.6,159.8,107z M158.6,104c1.6-0.7,3.4-0.7,5.2-0.8
		c-1.4,1.2-3,2.4-4.9,2.6C157.7,106.1,157.6,104.3,158.6,104z M157.1,102c0.4-0.3,0.8-0.9,1.4-0.8c1.6,0,3,0.8,4.5,1.3
		c-1.4,0.4-2.9,0.6-4.4,0.5C157.9,103,157.6,102.3,157.1,102z M155.8,94.3c0.6-2,3.2-3.2,5.1-2.3c1.4,0.6,2.3,2.1,2.3,3.6
		c-0.9,0.3-1.9,0.7-2.9,0.3c0.2-0.2,0.7-0.6,1-0.8c0-0.1,0.1-0.4,0.1-0.6c-0.5,0.1-0.9,0.1-1.3,0.2c-0.1-0.5-0.2-1-0.3-1.5
		c-0.3,0.4-0.7,0.8-1,1.3c-0.4-0.2-0.9-0.4-1.3-0.7c0.2,0.6,0.4,1.2,0.6,1.9C157.3,95.5,156.5,94.9,155.8,94.3z M150.4,89.6
		c1.7-0.9,3.8,0.1,4.9,1.5c-0.6,0.8-1.2,1.5-2,2.1c-0.1-0.7,0.1-1.3,0.3-2c-0.5,0.3-1,0.7-1.4,1c-0.1-0.2-0.2-0.6-0.3-0.8
		c-0.2,0-0.5-0.1-0.7-0.2c0,0.5,0.1,1,0.1,1.5c-0.5,0-1,0-1.5,0c0.1,0.1,0.2,0.3,0.3,0.5c0.4,0.2,0.8,0.5,1.1,0.9
		c-0.9,0.1-1.9,0-2.8-0.1C148,92.2,148.8,90.4,150.4,89.6z M144.4,80c1.4-1,3.2-0.4,4.6,0.2c0,1.1-0.6,2-1.4,2.8
		c-0.1-0.5-0.1-1.1-0.1-1.6c-0.5-0.1-0.7,0.6-1,0.9c-0.4-0.3-0.9-0.6-1.3-0.9c0,0.6,0.1,1.1,0.1,1.7c-0.4,0.2-0.9,0.3-1.3,0.5
		c0.6,0.2,1.1,0.5,1.7,0.7c-0.2,0.2-0.5,0.4-0.7,0.5c-0.7,0-1.5,0.1-2.2,0.1C142.5,83.1,142.6,80.9,144.4,80z M141.3,77.3
		c0-1.4,0.7-2.8,1.8-3.6c0.9-0.7,2.1-0.5,3.2-0.4c1,0.3,1.7,1.2,2.4,1.9c-0.6,0.8-1.4,1.5-2.2,2c0-0.7,0.2-1.3,0.4-2
		c-0.4,0.2-0.7,0.5-1.1,0.7c-0.4-0.4-0.8-0.7-1.2-1.1c0,0.5-0.1,1-0.1,1.5c-0.5,0-1-0.1-1.5-0.1c0.1,0.1,0.2,0.4,0.2,0.5
		c0.4,0.2,0.7,0.5,0.8,1C143.1,77.8,142.2,77.6,141.3,77.3z M137,70.6c1.4-1.1,3.3-0.8,4.8-0.2c-0.2,0.9-0.3,2.2-1.4,2.5
		c0-0.4-0.1-1.2-0.1-1.6c-0.3,0.4-0.6,0.9-1,1.4c-0.2-0.2-0.5-0.4-0.7-0.7c-0.2,0-0.5,0-0.7,0c0,0.1,0.1,0.4,0.2,0.5
		c0.1,0.3,0.2,0.6,0.3,0.9c-0.4,0.1-0.7,0.3-1.1,0.4c0,0.1,0,0.3,0,0.5c0.5,0,1,0.1,1.5,0.2c-0.5,1-1.8,1-2.8,1
		C135.4,73.8,135.6,71.8,137,70.6z M132.6,68.5c0-1.5,0.5-3.3,2-4c1.5-0.9,3.6-0.5,4.8,0.8c0.4,1.1-0.9,1.9-1.7,2.5
		c0-0.6,0-1.3,0.1-1.9c-0.3,0.3-0.6,0.6-1,0.9c-0.5-0.1-0.9-0.6-1.3-0.9c0,0.5,0.1,1,0.1,1.5c-0.5,0.1-1.1,0.2-1.6,0.4
		c0.5,0.2,0.9,0.5,1.4,0.7c0,0.1-0.1,0.4-0.2,0.6c-0.6,0-1.2,0-1.8,0C133.2,68.8,132.8,68.6,132.6,68.5z M130.1,60.5
		c-0.2-0.7-0.5-1.4-1-2.1c-0.4,0.6-0.8,1.2-1.1,1.8c-0.4-0.7-0.8-1.4-1.2-2.1c2.4,0.2,4.7,0.4,7,1.1c-0.2,0.7-0.9,1.1-1.4,1.7
		c-0.2-0.7-0.4-1.4-0.7-2.1C131.2,59.4,130.6,59.9,130.1,60.5z M130,63.8c0.4,0.8,0.7,1.7,0.5,2.6c-0.6-0.3-1-0.8-1.4-1.3
		c0,0.6,0.1,1.1,0.1,1.7c-0.4,0-0.8,0.1-1.3,0.1c0,0.1,0.1,0.4,0.1,0.5c0.4,0.2,0.7,0.3,1.1,0.5c-0.2,0.5-0.5,0.9-0.7,1.4
		c0.6-0.3,1.2-0.5,1.8-0.5c-0.4,0.9-0.9,1.6-1.6,2.2c-1.1-0.5-2-1.3-2.3-2.5C125.5,66.3,127.6,63.5,130,63.8z M125.7,60.2
		c-0.5-0.6-0.9-1.2-1.4-1.8c-0.3,0.7-0.6,1.4-0.9,2.1c-0.5-0.6-1-1.2-1.5-1.7c-0.2,0.7-0.4,1.4-0.6,2.2c-0.5-0.4-0.9-1.2-1.7-1.3
		c-0.3,0.6-0.4,1.3-0.6,2c-0.6-0.5-1.1-0.9-1.7-1.4c-0.2,0.8-0.5,1.6-0.1,2.3c-0.7-0.3-1.3-0.7-1.9-1.2c-0.4,0.7-0.3,1.5-0.3,2.2
		c-0.6-0.2-1.1-0.5-1.6-0.7l-0.2-0.2c0.5-0.4,1-0.8,1.5-1.3c1.5-0.7,2.9-1.4,4.3-2c2.5-0.9,5.1-1.2,7.7-1.3
		C126.4,58.9,126.1,59.5,125.7,60.2z M121.5,68.2c-1.2-1.2-1.5-2.9-1.4-4.5c0,0.2,0.1,0.4,0.1,0.6c0.4-1.7,2-2.9,3.7-2.9
		c0.3,0,0.6,0.1,0.9,0.1c0,0.9,0.1,1.8,0,2.7c-0.4-0.2-0.7-0.5-0.9-1c-0.1,0-0.4,0-0.5,0c0,0.3,0,0.9,0,1.1c-0.5,0-1.1,0-1.6,0
		c0.3,0.4,0.7,0.7,1,1.1c-0.2,0.5-0.5,0.9-0.8,1.3c0.5-0.1,0.9-0.3,1.4-0.4c0.1,0.2,0.3,0.3,0.4,0.5c-0.6,0.5-1.1,1.1-1.7,1.6
		C122,68.3,121.7,68.2,121.5,68.2z M115.9,71.1c-0.9-1.4-0.6-3.2,0.2-4.6c0.8,0.3,1.5,0.6,2.2,0.9c0,0.2,0.1,0.5,0.1,0.6
		c-0.6,0-1.1,0.1-1.7,0.1c0.4,0.3,0.9,0.7,1.3,1c-0.2,0.4-0.4,0.9-0.6,1.4c0.4-0.1,1.1-0.4,1.5-0.5c0,0.3,0.1,0.8,0.1,1
		c0.2,0.1,0.5,0.2,0.6,0.2c0-0.3,0.1-0.9,0.1-1.2c0.2,0,0.5-0.1,0.6-0.1c0.3,0.8,0.5,1.6,0.7,2.4C119.4,73.2,116.9,72.8,115.9,71.1z
		 M111.4,83.3c-1.6-0.2-2.5-1.7-3.2-3c0.8-0.6,1.6-1,2.6-1.3c0,0.1,0,0.4,0,0.6c-0.3,0.4-0.6,0.8-0.8,1.2c0.5-0.2,1-0.3,1.4-0.5
		c0.1,0.4,0.3,0.9,0.5,1.3c0.5-0.1,0.5-0.9,0.8-1.3c0.4,0.2,0.8,0.3,1.2,0.5c0-0.1-0.1-0.4-0.1-0.6c-0.2-0.4-0.4-0.8-0.5-1.3
		c0.8,0.3,1.8,0.5,2.4,1.3C115.5,82.2,113.3,83.8,111.4,83.3z M110.1,96.4c-1.8,0.1-3.3-1.3-3.8-2.9c0.8-0.5,1.6-1,2.5-1.4
		c-0.1,0.6-0.4,1.1-0.6,1.7c0.5-0.1,0.9-0.2,1.4-0.3c0.2,0.5,0.5,0.9,0.9,1.2c0.1-0.5,0.2-1,0.2-1.5c0.5,0.1,0.9,0.3,1.4,0.4
		c0-0.2,0-0.5,0-0.6c-0.2-0.1-0.6-0.3-0.8-0.4c0-0.2,0.1-0.5,0.1-0.7c0.9,0.2,1.7,0.5,2.5,0.9C113.6,94.7,112,96.4,110.1,96.4z
		 M112.2,103.5c0,1-1,1.3-1.8,1.7C110.5,104.3,111.4,103.8,112.2,103.5z M112.8,105.5c-0.9,0.3-1.9,0.6-2.7-0.1
		C110.9,105.3,112.5,104.2,112.8,105.5z M109.2,107.3c0.4-0.1,0.7-0.3,0.9-0.6c0-0.2,0.1-0.5,0.1-0.6c1,0,1.9,0.2,2.8,0.7
		c-0.2,0.2-0.4,0.5-0.6,0.7c-0.7-0.2-1.3-0.5-1.9-0.5c0.7,0.6,2,1,1.9,2.2c-1.1-0.1-2-0.7-2.3-1.8c-0.1,0.2-0.3,0.3-0.4,0.5
		c0.8,0.4,1,1.2,1.1,2C109.4,109.9,109.5,108.2,109.2,107.3z M109.2,107.8c0,0.7,0.1,1.4,0.1,2.2c-0.9,0.3-0.8-0.8-1-1.4
		c-0.2,0.6-0.6,1.1-1,1.5C106.8,108.8,107.9,107.6,109.2,107.8z M100.4,103.9c0.9-0.2,1.8-0.3,2.6-0.4c0,0.2,0.1,0.5,0.2,0.7
		c-0.4,0.2-0.8,0.3-1.2,0.5c0,0.1,0.1,0.4,0.1,0.5c0.4,0,0.8,0,1.3,0c0,0.5,0,1.1,0,1.6c0.4-0.4,0.7-0.7,1.1-1.1
		c0.4,0.3,0.8,0.6,1.3,0.8c-0.1-0.5-0.3-1-0.5-1.6c0.2,0,0.6,0,0.8,0c0.4,0.6,1.3,1.1,1.3,1.9c-1.2,1.7-3.7,2-5.5,1
		C100.9,106.7,100.4,105.3,100.4,103.9z M99.6,97.4c0.2,0.7,0.4,1.5,0.6,2.2c-0.7-0.2-1.5-0.4-2.2-0.6c0.1,0.7,0.3,1.5,0.4,2.2
		c-0.5-0.4-1.8-0.4-1.8-1.1c0.6-0.5,1.3-1,1.9-1.5c0.8-0.9,1.5-1.8,2.2-2.8c0.3-0.7,0.6-1.4,0.9-2.1c0.6,0.5,1.1,1.1,1.6,1.7
		c-0.8,0-1.5,0.1-2.3,0.1c0.3,0.7,0.6,1.4,0.9,2.1C101.1,97.5,100.4,97.4,99.6,97.4z M94.4,108.4c-1-1.6-0.4-3.8,1-5
		c0.6,0.4,1.2,0.8,1.8,1.2c0,0.2,0.1,0.5,0.1,0.7c-0.6-0.1-1.1-0.1-1.7-0.2c0.3,0.4,0.7,0.8,1.1,1.2c-0.4,0.4-0.7,0.8-1.1,1.2
		c0.6,0,1.1,0,1.7,0c0,0.3,0,0.9,0,1.1l0.4,0c0.3-0.4,0.5-0.9,0.8-1.3c0.4,1,0.5,2,0.1,3C97.1,110.5,95.2,109.9,94.4,108.4z
		 M88.6,107.5c0.8,0.1,1.6,0.3,2.4,0.5c0,0.2,0.1,0.6,0.1,0.8c-0.5,0-1,0.1-1.5,0.1c0.4,0.3,0.8,0.5,1.2,0.8c-0.2,0.5-0.3,1-0.5,1.5
		c0.5-0.2,1-0.4,1.5-0.7c0.2,0.4,0.5,0.9,0.7,1.3c0.1-0.6,0.2-1.3,0.6-1.8c0.6,0.8,0.9,1.8,0.9,2.8c-0.9,0.3-1.7,0.5-2.6,0.4
		c-1,0-1.8-0.7-2.7-1.2C88,110.7,87.9,109,88.6,107.5z M83.8,109.7c-1.7,0-3-1.2-4.2-2.3c1.5,0,2.9,0.3,4.3,0.9
		C83.9,108.8,83.8,109.3,83.8,109.7z M80.7,111.3c-1-1.1-1.6-2.5-2.2-3.8c1.6,1,4,2,3.9,4.2C81.9,111.6,81.2,111.8,80.7,111.3z
		 M77.7,107.7c1,1.5,2.2,3,2.4,4.8c0.2,0.9-1.3,1.2-1.7,0.4C77.6,111.3,77.7,109.4,77.7,107.7z M77.6,92.5c0.7-0.3,1.4-0.6,2.1-1
		c-0.4,3.4,1,7.2,3.9,9.1c0.6,0.2,1.2,0.5,1.8,0.7c2.3,0.5,4.7,1,7,0.3c-0.3,0.7-0.6,1.4-0.9,2.1c-0.6-0.2-0.8-1.2-1.4-1.5
		c-0.5,0.5-0.8,1.1-1.2,1.7c-0.3-0.7-0.6-1.3-0.9-2c-0.4,0.5-0.9,0.9-1.3,1.4c-0.1,0-0.3,0.1-0.4,0.1c-0.2-0.6-0.4-1.3-0.5-1.9
		c-0.6,0.5-1.2,0.9-1.8,1.4c-0.1-0.7-0.2-1.4-0.2-2.1c-0.5,0.2-1,0.4-1.6,0.6c-0.1,0.1-0.3,0.3-0.4,0.4c0-0.8,0.1-1.5,0.4-2.3
		c-0.7,0.1-1.5,0.1-2.2,0.2c0.3-0.7,0.7-1.4,1-2.1c-0.8,0-1.5,0-2.3-0.1c0.4-0.6,0.9-1.2,1.4-1.8c-0.7-0.2-1.4-0.4-2.1-0.6
		c0.5-0.5,1.1-1,1.7-1.4C78.9,93.4,78.3,93,77.6,92.5z M76.6,114c-0.4,0.1-0.9,0.1-1.3,0.1c-0.2-0.8-0.5-1.6-0.2-2.3
		c0.4-1.4,0.8-2.8,1.7-4C77,109.9,77.9,112.2,76.6,114z"/>
	<polygon points="168,94.5 168,94.5 168,94.5 	"/>
	<path d="M151.4,36.8c0.8-1.2,0.9-3.1,0-3.9c-0.3-0.3-0.6-0.5-1-0.7c0.3-1.1,0.4-2.4,0-3.5c-0.6-1.9-2.5-3.1-4.5-2.9
		c-1.5-1.8-4-2.2-6.2-1.6c-0.5-0.6-1-1.2-1.7-1.6c0.2-1.4-0.1-3.1-1.6-3.8c-1-0.7-2.3-0.1-3.3-0.7c-1-0.5-2.1-0.9-3.2-0.6
		c-2.2,0.4-4.7,2.1-4.6,4.6c-1.4-0.1-2.8-0.1-4.1,0.5c-0.6,0.3-1,0.6-1.2,0.9c-1.3,1.3-2,3-3.1,4.3c-0.7,0.9-1.7,1.2-2.6,1.7
		c2.9,0.4,4.6-2.9,7.5-3c1.5,0.2,2.5,1.2,3.6,2c0.8,0.7,1.9,1,2.9,1.4c-1.9,1.5-2.9,3.7-4.8,5.1c-0.9,0.7-2,0.9-3.1,1.2
		c1.5,0.3,3,0.1,4.3-0.6c1.7-1,3.6-2,5.6-1.7c2.7,1.2,3.7,4.5,6.6,5.4c1.2,0.5,2.6,0.3,3.8,0.3c1.1,1.2,2.9,1.4,4.4,0.9
		c1.1-0.4,1.6-1.6,2.7-2.1C149.2,38.3,150.7,38.1,151.4,36.8z M134.9,26.5c-0.6,0.3-0.8,0-1.2,0c-1.3,1.7-3.9,1.9-5.7,0.9
		c-1-0.5-1.6-1.5-2.5-2.1c-1.8-0.8-4-0.5-5.6,0.6c1.2-1.3,2.9-2.3,4.8-1.9c2.2,0.1,3.2,2.5,5.4,2.7c1.4,0.5,2.6-0.5,3.8-1
		c0.6-0.2,1.2-0.6,1.4-1.3c0.2-0.6,0-1.1-0.4-1.4c-0.6-0.8-1.9-1.2-2.7-1.4c-0.3-0.1-0.8-0.1-1.3-0.1c-0.8,0.1-1.3,0.3-1.6,1
		c-0.4,0.6-0.1,1.7,0.3,2.1c0.9,0.8,2.1,0.6,2.8,0c0.1-0.2,0.1-0.4,0.1-0.6c-0.4-1-1.3,0.5-1.6-0.2c-0.4-0.5,0-1.1,0.6-1.2
		c0.8-0.1,1.3,0.6,1.6,1.2c0.1,1-0.8,1.9-1.8,1.9c-1.9,0.4-3.8-1.7-3.1-3.6c0.5-1.6,2.5-2.2,4-1.7c0.9,0.2,1.4,1.3,2.4,1.5
		c0.9,0.2,1.8,0.6,2,1.6C137.1,24.6,136,25.9,134.9,26.5z M144.3,36.2c-1.9,1.9-5.1,1.7-7,0c-1.1-0.9-1.5-2.3-2.5-3.3
		c-1.6-1.1-3.6-1.2-5.4-0.8c-0.5,0.2-1.1,0.5-1.6,0.7c1-0.7,2-1.4,3.2-1.8c1.4-0.4,2.9-0.1,4.2,0.5c1.3,0.7,2,2.1,3,3.1
		c1.5,1.4,4,1.9,5.7,0.6c1.3,0,3-0.7,2.8-2.3c0-1.4-1.5-1.8-2.3-2.7c-0.8-0.9-1.9-1.2-3.2-0.7c-0.9,0.4-1.7,1.4-1.5,2.5
		c0,1.9,3.8,2.7,3.7,0.6c-0.3-1.5-1.5,0.7-1.7-0.5c0-0.7,0.1-1.6,1-1.4c1.9,0.4,1.5,3.6-0.3,3.8c-1.7,0.4-3.5-0.6-4-2.2
		c-0.9-2.1,0.8-4.6,3-4.8c1.9-0.4,3.5,1,4.3,2.5c1.4,0.4,2.8,1.4,2.7,3C148.5,34.9,146.3,36.8,144.3,36.2z"/>
	<path d="M116.2,37.8c-2.9,0.7-5.2,2.6-7.1,4.9c2.2-1.3,4.8-2.5,7.4-2.1c2.4,0.4,3.4,3.2,5.8,3.6c1.4,0.2,2.5-0.6,3.6-1.3
		c0.9,0.8,2,0.8,3.1,0.5c1.2-0.3,1.6-1.8,1.7-3.1c0.1-1.9-1.8-3.3-3.6-3.2c-1.6,0-2.7,1.4-4.1,1.9c-1.6,0.5-2.9-0.6-4.3-1
		C117.8,37.8,117.1,37.6,116.2,37.8z M115.5,39.3c1.1-0.1,2.3-0.4,3.3,0.1c1.3,0.5,2.3,2,3.9,1.8c1.4-0.1,2.1-1.4,3.1-2.2
		c1-1,3.1-0.7,3.6,0.7c0.3,0.9,0.2,1.5-0.1,2.1c-0.5,0.7-1.2,0.7-1.9,0.4c-0.4-0.2-0.7-0.7-0.7-1c0.5,0,1,0.1,1.4,0.3
		c0.1,0.1,0.5,0.1,0.6,0c0.4-0.4,0.4-1,0.1-1.5c-0.3-0.5-0.9-0.4-1.3-0.4c-2,0.1-2.4,2.8-4.4,2.9c-1.7,0.2-2.9-1.2-4.1-2.1
		C117.9,39.6,116.6,39.4,115.5,39.3z"/>
	<path d="M191,93.2c0,0.1-0.1,0.3-0.1,0.4l-0.3-0.1l-0.1-0.3C190.6,93.2,190.9,93.2,191,93.2z"/>
	<path d="M183.3,126.5c1.2,1,2.4,2.2,4,2.4c1.6,0.1,2.8-1.5,4.4-1.2c1.8,0.5,3.4,2.1,5.4,2c1.8,0.1,3.4-0.9,5.1-1.3
		c0.9,0.2,1.6,0.7,2.4,1.1c-2.4,0-5.3,1.6-5.4,4.3c-1.6-0.1-3.3,0-4.5,1.1c-1.5,1.4-2.7,3.2-4.7,3.8c-0.3,0.1-0.9,0.2-1.1,0.2
		c2.3,0.8,4.2-1.2,6.5-1.1c2.1-0.2,3.4,1.8,5.1,2.6c1,0.6,2.3,0.4,3.4,0.4c0.2-0.1,0.4-0.2,0.6-0.3c0.8,0.6,1.8,0.7,2.8,0.7
		c0.8-0.4,1.5-0.8,2.1-1.5c0.1-0.2,0.3-0.4,0.4-0.6c1.5-0.3,3-1.5,2.7-3.2c-0.2-0.3-0.3-0.7-0.5-1c-0.4-0.2-0.8-0.5-1.1-0.7
		c0-0.8-0.1-1.6-0.2-2.4c0.9-0.1,1.8-0.2,2.7-0.4c1.9,0.9,4.2,1.4,6.3,0.8c1.2-0.3,2.1-1.2,2.9-2.1c1.6-0.5,3.8-0.8,4.2-2.7
		c0.4-1.6-1.1-2.7-2.4-3.1c0.1-1.2,0-2.5-1-3.4c-1.4-1.1-3.3-1.5-5-1.1c-1.5-0.6-3-1.3-4.7-1.1c-2.2,0.2-4.5,0.9-6.2,2.3
		c-0.9,0.7-1.2,1.8-1.4,2.9c-1-0.2-1.9-0.2-2.9-0.2c-1.3,0.3-2.7,0.6-3.9,1.3c-1.2,0.7-2.4,1.9-3.9,1.6c-2-0.2-3.5-1.9-5.5-1.7
		c-0.8,0.6-1,1.8-2,2.3C186.4,127.6,184.8,127.1,183.3,126.5z M207.1,133.2c1.3,0.1,2.8,1.2,2.4,2.7c-0.2,1.3-1.4,1.9-2.6,1.9
		c-1.1,1.2-3,1.7-4.5,1c-1.6-0.5-2.3-2.2-3.9-2.7c-1.4-0.3-2.9-0.1-4.2,0.6c1.2-1.4,3.2-1.8,5-1.3c1.6,0.5,2.5,2.2,4.2,2.4
		c1.7,0.4,3.2-0.9,4.7-1.5c0-0.6,0.1-1.2-0.2-1.8c-1-0.6-2-1.1-3.1-1.5c-1.1,0.2-2.4,0.9-2.1,2.3c0.4,1.1,1.7,0.9,2.6,0.8
		c0-0.2,0.1-0.7,0.1-0.9c-0.4,0-0.8,0-1.2,0c0.1-0.4,0.1-0.8,0.2-1.2c0.5,0.2,1.3,0.3,1.5,0.9c0.2,0.7,0.1,1.5-0.6,1.8
		c-1.1,0.3-2.5,0.3-3.3-0.7c-0.8-0.6-0.5-1.7-0.5-2.5c0.7-0.8,1.5-1.7,2.6-1.5C205.4,131.7,206.4,132.4,207.1,133.2z M186.9,128
		c0.6-0.2,1.2-0.3,1.7-0.6c0.5-0.5,0.9-1,1.4-1.6c2.5-0.3,4.5,2.1,7.1,1.6c2.7-0.7,5.2-2.6,8.1-2.2c2.4,0.1,3.9,2.3,6.1,3
		c1.2,0.5,2.6,0.4,3.9,0.3c1.2-0.3,2.3-1.1,3.6-1.3c1-0.2,1.5-1,1.6-1.9c-0.8-1.2-2.2-1.2-3.4-1.9c-1-0.6-2.2-0.5-3.3-0.6
		c0.2,0.1,0.4,0.1,0.6,0.2c-0.7,0.1-1.3,0.3-2,0.5c-0.5,0.7-0.6,1.4-0.5,2.2c1.2,0.8,2.8,1,4.1,0.4c0-0.2,0.1-0.5,0.1-0.7
		c-0.6-0.1-1.3-0.2-1.9-0.3c0-0.4,0-0.7,0-1.1c0.9,0,1.9-0.1,2.5,0.7c0.8,0.9-0.3,2.2-1.3,2.4c-1.6,0.2-3.4,0.2-4.6-0.9
		c-0.8-0.6-1.2-1.7-0.7-2.7c0.4-1.2,1.6-1.7,2.7-2.1c1.7-0.2,3.6-0.2,5,1c0.9,0.9,2.3,0.6,3.4,1.3c1.5,0.6,1.5,2.9,0.3,3.8
		c-1,0.9-2.3,0.8-3.5,1c-1.9,1.7-4.8,1.8-7.1,1c-2.1-0.7-3.6-2.7-5.8-3c-2.1-0.2-4.1,0.6-5.9,1.4c-1.6,0.7-3.3,0.5-4.9-0.1
		c-1.1-0.5-2.3-1.5-3.6-1.3C189.4,127.3,188.4,128.2,186.9,128z"/>
	<path d="M114.8,130.9c1.7,0,3.1,1.1,4.3,2c1.7,1.4,3.9,2.6,6.1,1.9c1.4-0.3,2.3-1.6,3.5-2.4c1.4-0.3,2.3,1.4,3.7,1.3
		c1.4,0,2.4-0.9,3.3-1.7c0.6,0.2,1.1,0.3,1.7,0.4c-0.1,0.5-0.1,1.1-0.2,1.6c-1.5-0.1-3.1-0.3-4.5,0.5c-1.5,0.8-2.4,2.4-3.4,3.7
		c-0.7,1-1.8,1.5-2.8,2c2.6,0.2,4.3-2.4,6.9-2.2c1.8,0.2,2.8,2,4.2,2.9c1.3,0.9,2.9,0.8,4.4,0.7c0.6,0.3,1.3,0.6,2,0.8h0.7
		c1.5-0.2,2.3-1.7,3.6-2.1c1-0.3,2.2-1,2.2-2.3c0.2-1.1-0.8-1.8-1.3-2.7c-0.1-0.8,0-1.5-0.2-2.3c-0.7-1.3-2.2-1.9-3.6-1.8
		c-1-0.7-2.2-1.1-3.4-1.2c-0.1-1.2-0.6-2.3-1.5-3.2c0-1,0.3-2.1-0.1-3.1c-0.9-1.7-3-2.4-4.8-2.4c-1.5,0.1-2.8,1.1-3.6,2.3
		c-1.4-0.4-3.1-0.7-4.4,0.2c-1.3,1-1.8,2.6-2.3,4.1c-0.4,1-0.7,2.3-1.9,2.7c-1.7,0.5-3.7,0.1-5-1.2c-0.9-0.8-1.8-2-3.2-1.8
		c-1.5,0.2-2.6,1.3-4,1.8c-2.1,0.8-4.6,0.2-6.3-1.2c1.1,1.5,2.4,3.2,4.3,3.8C111.3,132.5,112.9,130.8,114.8,130.9z M140.9,138.5
		c1.8,0.8,3.5-0.5,5.2-1.1c0.1-0.2,0.2-0.6,0.3-0.8c-0.1-0.4-0.3-0.7-0.4-1.1c-1.2-0.6-2.3-1.9-3.8-1.5c-1.3,0.1-1.9,1.7-1.2,2.8
		c0.6,0.1,1.3,0.4,1.9,0.3c0.3-0.3,0.6-0.6,0.8-0.9c-0.5-0.1-1-0.1-1.4-0.2c0-0.3-0.1-0.7-0.1-1c0.8-0.2,1.4,0.2,1.9,0.7
		c-0.1,0.6-0.3,1.2-0.5,1.8c-1.3,0.5-3,0.4-3.8-0.9c-0.8-0.9-0.3-2.1,0.1-3.1c1.6-1.3,4.2-1,5.3,0.8c1.1,0.3,2.5,1,2.3,2.4
		c0.2,1.6-1.6,2.5-3,2.3c-1.6,1.7-4.3,1.3-5.9-0.1c-0.7-0.7-1.2-1.8-2.2-2.1c-1.6-0.6-3.5-0.3-5,0.5c1.4-1,3.2-2,5-1.4
		C138.4,135.9,139.1,138.1,140.9,138.5z M116.8,130.1c-1.1-0.9-2.5-0.6-3.8-0.6c1.1-0.4,2.5-1,3.6-0.3c1.8,1,3.3,2.8,5.6,3
		c2.2,0.3,3.4-2.1,5.1-3c1.4,0,2.4,1.5,3.7,1.8c1.6,0.7,3.1-0.3,4.3-1.4c1.1,0.3,2.9,0.6,3.2-0.9c0.4-1.1-0.7-1.6-1.5-2
		c-0.2-0.5-0.4-1-0.6-1.5c-0.8-0.3-1.9-0.7-2.7-0.2c-0.7,0.3-1.4,1-2.2,0.9c-0.9-0.1-2.2,0.3-2,1.4c0.3,1.6,2.2,1.9,3.6,1.9
		c0.2-0.1,0.7-0.3,0.9-0.4c0-0.3-0.1-0.5-0.1-0.8c-0.5,0-1.1-0.1-1.6-0.1c0-0.4,0-0.7,0-1.1c0.5,0,1.1,0,1.6,0
		c0.5,0.5,0.9,1,1.2,1.6c-0.4,0.6-0.8,1.2-1.5,1.5c-1.9,0.2-4-0.3-5.3-1.8c-0.7-0.7-0.6-2,0.2-2.7c0.9-1,2.4-0.6,3.6-0.6
		c1.1-0.6,2.1-1.7,3.4-1.5c1.5-0.1,2.7,1.3,2.5,2.7c0.6,0.3,1.3,0.6,1.7,1.2c0.7,0.9,0.6,2.5-0.5,3.2c-1.1,0.7-2.4,0.3-3.6,0.1
		c-0.8,0.6-1.4,1.6-2.5,1.8c-2.2,0.8-3.7-2-5.8-1.4c-1.2,0.9-2,2.5-3.7,2.6C121,133.4,118.9,131.6,116.8,130.1z"/>
	<path d="M39.6,128.9L39.6,128.9c1.9-1.4,4-2.7,6.4-2.9c2.6-0.1,4,2.7,6.4,2.9c1.4,0,2.5-0.9,3.4-1.8c0.4,0.2,0.8,0.4,1.2,0.6
		c-1.1,1.2-1.9,2.6-3.1,3.7c-0.7,0.7-1.7,1-2.7,1.4c3.1,0.6,5.2-2.8,8.3-2.2c2.2,0.6,3,3.1,5,4.1c1.1,0.7,2.5,0.6,3.8,0.6
		c1,0.2,1.9,1,3,0.9c1.4,0.1,2.5-1,3.4-2c0.9-0.3,1.8-0.6,2.7-1c0.9-0.2,0.6-1.4,0.8-2.1c0.3-1.2-0.5-2.1-1.3-2.9
		c0-1.3,0.4-2.8-0.6-3.9c-0.8-1.1-2.2-1.3-3.4-1.5c-2.9-3-8.7-1-9.4,3.1c-1.2-0.2-2.4-0.4-3.6-0.3c0-0.8,0.2-1.7-0.1-2.4
		c-0.6-1.3-2.1-2-3.5-1.8c-1.7,0.1-2.7,1.7-4.1,2.4c-1.8,0.8-3.5-0.9-5.3-0.6C43.7,123.6,41.3,126.3,39.6,128.9z M57.1,129.6
		c1.1-0.8,2.1-1.7,3.5-2c1.7-0.2,3.6,0.5,4.6,1.9c0.9,1.1,2,2.2,3.5,2.3c1,0.3,1.9-0.3,2.7-0.7c0.7-0.1,1.5-0.2,2-0.8
		c0.5-0.5,0.3-1.4,0.3-2c-0.9-0.6-1.7-1.4-2.7-2c-1-0.3-2.3-0.4-3,0.5c-0.4,0.6-0.8,1.5-0.2,2.2c0.6,1.1,2.9,1.2,2.9-0.3
		c-0.5,0-0.9-0.1-1.4-0.1c0-0.3-0.1-0.7-0.1-1c0.5-0.2,1.3-0.5,1.6,0.1c0.8,0.7,0.3,1.8,0,2.6c-1.4,0.8-3.3,0.3-4.1-1.1
		c-1-1.3-0.3-3.2,0.8-4.2c0.9-0.3,1.8-0.8,2.8-0.5c1.1,0.2,1.9,1.1,2.5,2.1c1,0.3,2.1,0.9,2.4,2c0.5,1.4-0.6,2.7-1.6,3.5
		c-0.6,0-1.3,0-1.9,0c-0.6,0.5-1.2,0.9-1.9,1.3c-1.5,0.1-3.2-0.2-4.3-1.3c-0.9-0.9-1.4-2.2-2.5-2.9
		C61.1,128.2,58.8,128.4,57.1,129.6z M46.1,124.6c1-0.1,2-0.3,2.9,0.1c1.1,0.5,2.1,1.4,3.4,1.1c1.9-0.2,2.1-2.6,3.8-3.1
		c0.7-0.3,1.4,0.1,2.1,0.2c0.4,0.7,0.9,1.4,0.7,2.2c-0.2,0.4-0.6,0.8-0.9,1.1c-0.5,0-0.9,0-1.4,0c-0.1-0.4-0.1-0.7-0.2-1.1
		c0.6,0,1.3,0.4,1.8,0c0.3-1.4-1.4-1.3-2.3-1.2c-1.1,1.2-1.7,3.1-3.6,3.4c-1-0.1-2-0.4-2.7-1.1C48.7,125.3,47.3,125,46.1,124.6z"/>
	<path d="M101,135.8c-0.3,0.4-1,0.9-0.8,1.5l0.3-0.5c1.6-0.7,3.3-1.7,5.2-1.5c2.1,0.2,3,2.7,5.1,2.8c1.1,0.1,1.9-0.6,2.7-1.2
		c0.8,0.5,1.6,0.6,2.5,0.5c0.6-0.6,1-1.2,1.4-1.9c0-0.5,0-1-0.1-1.4c-0.2-0.3-0.3-0.7-0.5-1c-1-0.8-2.4-1.1-3.6-0.6
		c-1.1,0.6-2.1,1.8-3.5,1.6c-0.9-0.2-1.8-0.6-2.7-1C104.7,132.8,102.6,134.3,101,135.8z M105.1,134.3c1,0,2.2-0.3,3.1,0.4
		c0.9,0.5,1.8,1.3,2.9,1c1.2-0.5,1.7-1.8,2.8-2.3c0.7-0.3,1.4,0.1,2.1,0.4c0.2,0.6,0.6,1.3,0.3,1.9c-0.4,0.7-1.2,0.7-1.9,0.8
		c0-0.4-0.1-0.7-0.1-1.1c0.5,0.1,1,0.3,1.5,0.4c0-0.3,0-1,0-1.3c-0.6-0.1-1.3-0.3-2,0c-0.9,0.7-1.4,2-2.6,2.3
		c-1.3,0.2-2.4-0.8-3.4-1.6C107,134.5,106,134.5,105.1,134.3z"/>
</g>
</svg>
