<?xml version="1.0" encoding="utf-8"?>
<!-- Generator: Adobe Illustrator 26.0.3, SVG Export Plug-In . SVG Version: 6.00 Build 0)  -->
<svg version="1.1" id="Слой_45" xmlns="http://www.w3.org/2000/svg" xmlns:xlink="http://www.w3.org/1999/xlink" x="0px"
	 y="0px" viewBox="0 0 239.5 150.2" style="enable-background:new 0 0 239.5 150.2;" xml:space="preserve">
<g>
	<polygon points="114.3,71.7 114.3,71.7 114.3,71.7 	"/>
	<path d="M231.8,44c-3.2-1.6-6.9-1.9-10.3-2.8c1.4-0.6,2.9-0.6,4.3-1.1c-2.3-0.4-4.7-0.9-6.9-1.7c1.6-0.4,3.3-0.4,4.8-1.3
		c-2.3-0.1-4.5-1.1-6.6-1.8c-1.5-0.5-3.2-0.2-4.7-0.3c1.8-1.3,4.5-0.9,6-2.8c-1,0-2.1,0.3-3.1,0.1c-1.7-0.3-3.3-1-5-1.3
		c-1.3-0.3-2.6,0-3.8-0.1c1.8-1.9,4.7-1.2,6.6-2.9c-1,0-2,0.2-3,0c-1.9-0.3-3.8-1.4-5.8-1.3c-0.9,0-1.8,0.4-2.7,0.7
		c0-0.1-0.1-0.2-0.2-0.3c0.9-1.8,3.5-1.6,5-2.6c-2,0.2-4-0.1-5.9-0.7c2.7-0.2,5.5-0.2,8.2-0.7c1.7-0.3,3.5-0.3,5.2-0.9
		c1-0.4,2.1-0.7,3.1-0.9c3.7-0.5,7.5-0.5,11.3-1c0.9-0.1,2-0.4,2.5-1.3c-0.2-0.9-1.5-0.8-2.3-1c-6-0.1-11.9,0.7-17.9,0.9
		c-1.7-0.1-3.4-0.3-5.1-0.2c-2.2,0-4.3,0.5-6.5,0.5c1.3-0.7,2.8-1.3,4.2-1.9c-5.1,0-10.4-0.4-15.1,1.8c1.1-1.5,2.2-3.1,2.8-4.9
		c-2,2.1-5,2.8-7.4,4.3c0.9-1.6,2-3.1,2.4-4.9c-1.1,1-2,2.3-3.5,2.8c-2.3,0.7-4.9,1.5-6.4,3.5c-1.1,0-2.2-0.1-3.2,0.5
		c-0.9,0.7-1.6,1.5-2.4,2.3c-0.7,0.5-0.4,1.6-1.2,2c0.2-0.5,0.3-1,0.5-1.5c-2.1,1.2-4.6,1.7-6.9,2.1c-1.3,0.2-2.6,0.2-3.9-0.2
		c0-1.6-0.6-3.4,0.5-4.8c1.5-1.8,4-2.1,5.5-3.9c1.3-1.3,1.8-3.2,2.4-4.9c1.2-2.1,3-3.8,5-5.2c-2.1,1.3-4.2,2.9-5.3,5.1
		c-0.7,1.8-1.2,3.8-2.7,5.1c-1.5,1.5-3.9,1.9-5.2,3.7c-1,1.3-0.6,3.1-0.5,4.6c-1.1,0.7-2.8,1-3,2.5c-0.6,2.1-0.3,4.6,1.4,6.1
		c0.9,0.8,1.6,1.8,2.5,2.6c-0.8,1.3-1.2,3-0.6,4.4c0.8,1.5,2.2,2.5,3.1,3.9c0.7,1.3,1.1,2.7,1.5,4.1c-3.6,0.4-7.2,1.1-10.3,2.9
		c-2.9,1.6-5.7,3.4-8.1,5.7c0-1.2,0.2-2.4,0.5-3.5c1.7-0.9,3.7-0.7,5.3-1.8c0.9-1.1,1.8-2.1,2.5-3.3c0.5-0.7-0.2-1.4-0.6-1.9
		c-1-0.8-2.3-0.2-3.4-0.1c0.3-2.2,2.4-3.7,2.7-5.9c0.1-0.7-0.4-1.2-1.1-1.4c-1.1-0.3-2.1-0.8-3.1-1.2c-1,1.1-2.5,1.5-3.6,2.6
		c-0.4-0.9-0.4-2.2-1.4-2.6c-2-0.4-4,0.1-5.8,1c-0.6,0.7-1.3,1.4-2,2c-1,1.5-1.3,3.4-1.9,5.1c0.7-0.7,1.3-1.5,2-2.3
		c0.8-0.9,2-1.2,3.1-1.6c0.7,0.1,1.4,0.4,2.1,0.7c0.3,2.1-1.9,3.2-2.5,5c-0.6,1.4-0.1,2.9,0.4,4.2c-0.7,1.1-1.5,2.6-3.1,2.3
		c-0.3-0.8-0.9-1.6-1.2-2.4c-0.4-1.2-0.4-2.5-0.4-3.7c-0.7,2.1-2.3,3.9-2,6.2c0.3,2.3,2.6,3.4,4.5,4c1.2,0.4,2.4-0.4,3.4-1
		c0,1.9,0,3.8,0.3,5.6c0.3,1.4-0.1,2.8,0,4.2c0.2,3.1,1.8,6,3.8,8.4c2,2.5,5.2,3.8,7.1,6.4c-2.9,0.2-5.6-1.3-8.5-1.4
		c-1.3,0.1-1.9,1.4-2.6,2.3c-1.1,1.4-0.4,3.3-0.1,4.9c0.6,1,1,2.2,1.9,3c0.7,0.7,1.7,1,2.6,1.4c-0.4-0.8-0.8-1.6-1-2.5
		c-0.2-0.8,0.3-1.5,0.4-2.3c-0.2-0.7-0.5-1.3-0.7-1.9c0.9-0.9,2.1-1.3,3.3-0.9c0.5,1,0.8,2.1,1.5,3c1,0.9,2.2,1.6,3.5,1.9
		c0.4,0.9,0.9,1.9,1.8,2.5c0.8,0.6,1.7,0.6,2.6,0.9c0.5,0.4,0.8,1,1.3,1.4c0.7,0.5,1.6,0.7,2.2,1.3c0.2,0.9-0.6,1.6-1.1,2.3
		c-1,0.7-2.1,1.6-3.4,1.7c-0.8-0.6-1.5-1.3-2.3-1.8c1.6-0.9,3.1-1.8,4.5-2.9c-1,0.3-2,0.7-2.9,1.3c-2.8,1.8-6,2.9-9.4,2.9
		c-3.1-0.1-6.3-0.4-8.9-2c-3.2-2-5.9-5-6.9-8.7c-1.3-5.3-1.5-10.7-2.3-16c-1.1-5-3.2-10.1-7.4-13.4c-1-0.9-2.4-1.1-3.5-1.8
		c-5-2.3-10.7-3.1-16.2-3.1c-6.1,0.3-11.7,3.2-16.9,6.3c-5.7,3.4-10,8.9-12.6,14.9c-1.7,4.2-3.5,8.4-3.8,13c-0.6,4.5,0.1,9,1.1,13.3
		c0.3,2,0.8,3.8,1.5,5.7c-2.4,4.3-4.4,8.8-6.9,13c-1.5,2.4-3.6,4.7-6.4,5.4c-2.6,0.5-5.1-0.7-7-2.3c-2.2-1.8-4.3-4.1-7.2-4.7
		c-3.2-0.7-6.3,1.4-9.6,0.8c-2.1-0.5-3.6-2.1-5-3.6c1.1,2.2,3.2,4.1,5.7,4.4c-2.1,1.2-4,2.9-6.4,3.3c-2,0.3-4.1-0.1-6.1-0.4
		c1.9,0.6,3.9,1,5.9,0.8c1.4-0.1,2.5-0.9,3.8-1.4c-1,1.5-1.8,3.2-2.9,4.7c-1.2,1.6-3.3,1.8-5,2.5c0.4,0.1,0.8,0.1,1.2,0.2
		c1.4-0.4,2.9-0.7,4-1.8c1.7-1.8,2.3-4.5,4.2-6c1-0.7,2-1.7,3.3-1.9c1.5-0.3,3-0.6,4.5-0.8c2-0.4,4,0.5,5.7,1.5
		c-2.7-0.6-5.6-0.9-8.1,0.5c-2.1,1.3-4.3,2.4-6.4,3.7c2.2-0.9,4.2-2,6.3-3.2c3.4-2,8.2-1.4,11,1.4c2.2,2,5.2,3.7,8.2,3.2
		c3.2-0.7,5.5-3.4,7.2-6.1c2.3-4,4.2-8.2,6.4-12.2c0.3,0.9,0.9,1.8,1,2.8c-0.6,1.6-1.5,3-2.6,4.2c0.6-0.4,1.1-0.8,1.6-1.3
		c-0.2,0.7-0.4,1.4-0.6,2.1c0.5-0.2,0.9-0.5,1.4-0.7c0,0.3,0.1,0.8,0.1,1c0.5-0.6,0.9-1.2,1.5-1.8c-0.8,0.3-1.6,0.6-2.4,0.9
		c0.2-1.5,0.5-2.9,1.2-4.3c0.8,1.4,1.5,2.7,2.1,4.2c-0.6,2.2-1.9,4.1-3.1,6c-2.2,3.4-4.8,6.7-8.4,8.6c-2.4,1.3-5.5,1.4-7.8-0.1
		c-1.9-1.2-4.3-1.8-6.4-1c-2.2,0.6-3.8,2.3-4.7,4.4c-1.1,2.4-2.1,4.8-4,6.7c-1.2,1.1-2.7,1.7-4.1,2.3c0.9-1.2,2.2-2.1,2.9-3.5
		c0.7-1.5,0.9-3.1,1.4-4.7c0.5-0.8,1.4-1.2,2.1-1.8c-0.6,0.1-1.1,0.1-1.6,0.5c-3.1,2.1-4.9,5.7-7.9,7.9c-1.9,1.6-4.4,2.4-6.8,2.6
		c-2.7,0.2-5.4-0.5-8.1-0.7c2.7-0.8,5.4-2.2,7.1-4.5c1.4-1.7,2.3-3.8,2.5-6c-0.2,0.1-0.5,0.2-0.7,0.3c-0.2,3.3-2.4,6.3-5.2,8
		c-1.7,1.1-3.8,1.5-5.7,2.3c-1.6,0.7-3.2,1.1-4.7,1.9c3-0.7,6.2-1.7,9.3-1c4,0.8,8.4,0.7,11.8-1.7c3-1.9,4.8-5,7.4-7.4
		c-0.3,1.8-0.7,3.6-1.8,5.1c-1.1,1.4-2.2,2.7-3.7,3.7c1.8-0.7,3.9-0.9,5.4-2.1c2.6-1.9,3.8-5,5-7.8c1.2-2.6,4-4.3,6.8-4
		c2,0.1,3.5,1.5,5.2,2.1c1.8,0.2,3.8,0.5,5.5-0.3c4.4-1.9,7.4-5.7,9.9-9.6c1.1-1.7,2.1-3.5,2.9-5.4c2.9,5.3,7.1,10,12.3,13
		c2.5,1.4,5.2,2.4,8.1,2.8c3.1,0.3,6.3,0.1,9.2-1c1-0.4,1.8-1.1,2.6-1.8c-1.3,0.5-2.5,1.2-3.8,1.6c-2.6,0.7-5.3,0.9-8,0.6
		c-6.1-1-11.6-4.6-15.5-9.4c-3-3.3-5-7.3-7-11.3c-1.2-2.3-1.5-4.8-2.5-7.2c-0.6-3.1-1.4-6.3-1.6-9.5c-0.1-2.7,0.1-5.4,0.5-8.1
		c0.6-3.2,1.8-6.1,3-9.1c2.3-5.6,6-10.9,11.1-14.4c4.1-2.8,8.6-5,13.3-6.5c0.2,0.6,0.5,1.1,0.7,1.7c-0.2,0.5-0.4,0.9-0.6,1.4
		c-0.9-0.4-1.6-1.1-2.1-1.9c-0.2,0.8-0.5,1.5-0.8,2.3c-0.6-0.4-1.1-0.9-1.6-1.4c-0.2,1-0.9,2-0.5,3.1c0.3,0.8,1,1.4,1.7,1.9
		c-1.7,0.1-3.1,1.1-4.3,2.2c-2.1,0.1-4,1.5-4.6,3.5c-0.4,1.5-0.7,3.1-1.5,4.4c1.1-0.8,2.2-1.5,3.4-1.9c-0.4,3.2-3.4,4.7-5.6,6.5
		c0.1-1.6-0.2-3.3,0.3-5c0.5-1.4,1.8-2.4,2.7-3.5c-1.6,0.9-3.1,2.4-3.3,4.4c-0.2,1.8,0.1,3.6-0.4,5.3c1.2-0.9,2.3-2,3.6-2.7
		c-0.8,3.2-4.1,4.4-6,6.7c0.1-1.7-0.4-3.6,0.3-5.2c0.6-1,1.3-1.9,1.9-2.9c-0.8,0.8-1.7,1.6-2.2,2.6c-0.5,1-0.4,2.3-1,3.3
		c-0.9,1.4-1.1,3.2-0.6,4.9c0.3,1.2,0.5,2.5,0.6,3.7c1.5-2.1,3.3-3.9,4.2-6.4c0.5-1.1,0.2-2.6,1.3-3.4c1.2-1,1.5-2.4,2.2-3.7
		c1.2-1.3,2.2-2.7,2.5-4.4c1.4-0.5,2.6-1.4,3.7-2.4c1-0.3,2.1-0.4,3.2-0.7c-0.1,1.4,0.5,2.7,1.3,3.9c-6.1,2-11.1,6.9-13.6,12.8
		c-1.9,4.3-2.8,9.2-1.4,13.7c0.7,2.6,1.9,5.2,3.1,7.6c1.7,4.2,3.9,8.3,7.4,11.2c1.9,1.5,4.3,2.4,6.8,2.3c2.6-0.1,4.9-2,6-4.3
		c0.5-1.2,1.5-2.3,1.4-3.7c0-1.2-0.6-2.3-1.1-3.3c-0.5,0.3-0.9,0.5-1.4,0.8c-0.3-0.5-0.7-1-1-1.5c-0.2-1,0.1-2.1,0.3-3.1
		c1.4,0.7,1.8,2.2,2.4,3.5c-0.2-1.5-1.2-2.8-1.6-4.2c-0.3-1.2-1.5-1.7-2.4-2.4c-0.6-0.7-1.1-1.7-2-2c-1.2-0.5-2.3-1.5-3.7-1.4
		c-1.2,0.1-2.5-0.5-3.6,0.1c-0.9,0.5-1.6,1.3-2.4,1.9c0.6,0.3,1.2,0.7,1.8,1c-1.5,0.7-3.2,0.4-4.8,0.1c0.7-1.5,2.3-2.2,3.7-2.9
		c-1.5,0.4-2.9,1.3-4.3,1.8c-1,0.4-1.7,1.3-2.5,2c-0.5-1.3-1-2.6-1.4-4c2.9-1.6,6.1-2.4,9.3-3c4.5-0.5,9.2-0.1,13.3,2.1
		c4.1,2.1,7.5,5.7,9.5,9.9c1.1,2.2,1.5,4.5,2.3,6.8c-1,1.3-1.5,2.9-1.6,4.6c0.4-0.9,0.6-1.8,1-2.6c0.5-1.4,1.7-2.5,2.7-3.6
		c0,1.5-0.4,2.9-0.9,4.2c-1,1.3-2.6,2.2-3.3,3.8c-0.8,1.9-2.4,3.6-4.4,4.3c-0.8,0.3-1.5,1-2.3,1.3c-2.9,0.1-5.9,0.7-8.6-0.4
		c-1.3-0.3-2.3-1.3-3.5-1.9c-1.5-0.7-2.7-1.9-3.8-3.1c-0.7-2.2-2.4-4-4.7-4.6c-0.4-1.8-1.2-3.5-2.6-4.9c-0.3-1.4-0.7-2.7-1.7-3.8
		c-0.8-0.8-0.4-2-0.7-3.1c-0.3-1.2-1.1-2.2-2-3.1c0.3-1.6,0.1-3.3-0.5-4.9c0-1.4,0.6-2.8,0.2-4.1c-0.3,2-0.6,4.1-1.6,5.9
		c-0.6-1.1-1.3-2.1-1.8-3.3c-0.4-1.3-0.2-2.8,0-4.1c0.6,1.3,0.9,2.7,1.4,4.1c1.4-2.5,3-5.1,2.9-8.1c-0.5,1.3-0.6,2.6-1.1,3.9
		c-0.4,1.1-1.1,2.1-1.7,3.2c-0.4-1.5-1.1-3-1-4.6c0-1.1,0.2-2.2,0.3-3.3l0-0.3c-0.6,1.4-0.8,3-0.7,4.5c0.1,1-0.8,1.8-0.7,2.9
		c-0.3,2.5,1.9,4.4,2.5,6.7c0.2-1.1,0.5-2.1,1-3.1c0.9,2.2,0.3,4.6,0.1,6.8c-0.8-0.9-1.6-1.7-2.1-2.8c-0.5-1.1-0.4-2.4-0.8-3.6
		c-0.7,3.2,1.6,5.8,3.5,7.9c-0.1-1.2-0.3-2.4,0-3.6c0.5,1.1,1.3,2.1,1.6,3.3c0.1,1.4,0,2.7-0.2,4.1c-1-0.9-2.2-1.7-2.8-3
		c-0.5-1.1-0.9-2.2-1.5-3.3c0.2,1.7,0.9,3.2,1.8,4.6c0.7,0.8,0.1,2,0.6,2.9c0.7,2.6,3.5,3.4,5.2,5.3c-0.3-1.1-0.5-2.1-0.7-3.2
		c2.2,1.4,2,4.3,3,6.5c-0.9-0.6-1.9-1.1-2.8-1.8c-0.9-0.8-1.4-2-2.3-2.9c0.3,1.7,1.4,3.2,2.9,4c1.3,0.7,2.4,1.7,3.7,2.5
		c-0.7-1.3-1.4-2.6-1.6-4c1.2,0.7,2.5,1.4,3.2,2.7c0.8,1.3,0.9,2.9,1.3,4.3c-1.3-0.5-2.6-0.8-3.7-1.7c-1.1-0.8-1.7-2.1-2.8-2.9
		c0.4,1,0.9,1.9,1.7,2.6c1.7,1.8,4.3,2.1,6.3,3.2c-0.7-1-1.2-2.1-1.4-3.2c1.9,1.2,2.7,3.4,4,5.2c-1.6-0.2-3.2-0.2-4.7-0.9
		c-1.3-0.6-2-2-3.2-2.7c0.7,1.5,1.8,2.7,3.3,3.3c1.6,0.6,2.7,2.1,4.4,2.4c1.5,0.3,2.9,0.9,4.4,0.8c1.3-0.1,2.6,0.2,3.9-0.1
		c1.4-0.4,2.8,0.2,4.2-0.2c1.4-0.4,2.8-0.9,4.3-1.1c2-0.4,3.3-2.2,4.7-3.5c-0.4-0.1-0.9-0.2-1.3-0.2c1.3-1.3,2.7-2.4,4.1-3.6
		c-2,0.1-3.8,0.7-5.7,1.3c1.1-2.2,2.8-4,5.1-4.9c-0.4,1.5-1.4,2.6-2.2,3.8c2.1-1,2.6-3.4,3.1-5.5c-0.6,0.5-1.3,1.1-2.1,1.2
		c0.8-1.6,1.2-3.5,0.9-5.3c-0.6,0.8-1.2,1.6-1.8,2.4c-1-4-2.4-8.1-5.2-11.2c-3.9-4.7-9.9-7.8-16-7.8c-4-0.3-7.9,0.7-11.6,2
		c-0.8,0.3-1.5,0.8-2.2,1.3c-1.1-4.7,0-9.6,2.1-13.9c3.1-6.5,9.6-11.3,16.7-12.3c3.2-0.4,6.8,0.5,8.8,3.1c0.9,1.6,1.6,3.3,1.9,5.1
		c0.3,2.2-0.3,4.4,0.1,6.6c0.1,0.6,0.1,1.2,0.1,1.8c0.5,1.3,1.2,2.6,1.7,4c-0.7-0.1-1.3-0.2-2-0.3c3.7,4.3,5.5,10,9.5,14.1
		c3.2,3.3,6.7,6.5,10.9,8.5c3.4,1.9,7.3,2.7,11.1,3.2c4.2,0.6,8.4,0.8,12.6,0.2c2.4-0.3,4.7-1.3,7.2-1.8c4.3-1,8.6-2.3,12.4-4.4
		c-0.3,1.6,0.5,3.1,0.1,4.6c0.2,0,0.6,0,0.8-0.1c0.3-1,0.5-2.1,1.1-3c1-1.8,2.6-3.2,3.4-5.2c0.4,1.3,0.8,2.7,0.7,4.1
		c-0.1,1,0,2.5,1.3,2.4c-0.3-3.7,2.6-6.4,3.5-9.8c0.8,2.1,0.1,4.7,1.7,6.5c0.3-0.9-0.1-1.9,0-2.8c0.3-3.2,2.7-5.9,2.5-9.2
		c0.9,0.7,1.9,1.3,2.4,2.3c0.7,1,0.8,2.5,2.1,3c-0.2-1.2-0.6-2.3-0.6-3.6c-0.1-2.7,0.4-5.6-1.2-7.9c1.7,0.5,3.3,1.3,4.7,2.5
		c0.8,0.8,2,1,3.1,0.8c-0.7-0.6-1.6-1.2-2.1-2c-1.1-1.8-1.5-4-2.9-5.7c-0.7-1.1-1.9-1.6-3-2.2c1.4,0,2.7,0.2,4,0.7
		c1,0.2,2.2,0.8,3-0.1c-3-0.8-5-3.3-7.6-4.9c-1-0.7-2.3-0.8-3.5-1.1c1-0.4,2-0.9,3.1-0.9c1.5-0.1,3.2,0.6,4.5-0.5
		c-1.2-0.2-2.4-0.2-3.6-0.6c-2.6-0.9-5.2-2.3-8.1-2.2c-1.3,0-2.7,0.9-3.9,0c1.8-1.3,4.2-1.2,6-2.3c0-0.4,0.1-0.8,0.1-1.2
		c-0.9,0.4-1.7,0.9-2.7,0.9c-2.4,0.1-4.7-1.2-7.1-1.3c-0.8-0.1-1.6,0-2.4-0.1c2.2-1.1,4.6-1,6.9-1.4c-0.8-0.2-1.5-0.7-2.3-0.6
		c-1.9,0.2-3.7-0.8-5.5-1.4c-1-0.3-2.1-0.3-3.1-0.4c2.4-0.7,4.9-0.1,7.3-0.5c-0.8-1-2.2-0.5-3.2-1.2c-1.8-1.2-3.6-2.4-5.6-3.2
		c2-0.8,4.2-0.7,6.4-0.8c7.6,0.3,15.1,2.1,22.7,2.5c3.5,0.4,7.1,0.1,10.6-0.7c0.1,0.7,0.3,1.3,0.4,2c0.1,1.1-0.5,2.2,0.1,3.2
		c0.3-1.6,1.3-2.7,2.6-3.6c1.3-1,2.4-2.3,3-3.8c0.3,1.2,0.7,2.4,0.6,3.7c0,1-0.3,1.9,0.1,2.9c0.5-1.1,0.6-2.4,1.5-3.4
		c1.3-1.7,2.6-3.4,3.2-5.4c0.9,1.1,1.4,2.5,1.6,3.9c0.1,0.6,0.3,2,1.3,1.6c-0.4-2.6,1.2-4.9,1.7-7.3c0.3-1.1,0.2-2.2,0.1-3.3
		c1.3,1.3,2.5,2.6,3.2,4.2c0.3,1,1.3,1.3,2.2,1.4c-1.5-1.8-1.6-4.2-1.8-6.5c-0.1-1.7-0.8-3.2-1.6-4.7c1.5,0.5,3.1,0.9,4.3,2.1
		c0.5,0.6,1.3,0.9,2.1,0.9c-0.8-1.2-1.7-2.4-2.3-3.8c-0.9-1.9-2.4-3.6-4.6-4c0.9,0.8,2,1.4,2.8,2.3c1,1.1,1.6,2.5,2.2,3.8
		c-1.4-1.2-3.1-1.8-4.9-1.9c0.2-1.5,0-3-0.4-4.5c3,0.1,5.9,1.4,8.9,0.5C231.9,45.3,232.7,44.3,231.8,44z M74.3,87.7
		c-0.2-1.3-0.5-2.6-0.8-4c-0.3-1.4,0.3-2.7,0.9-3.9c0.2,1.2,0,2.4,0.1,3.6c1.2-1.2,2.3-2.4,3.7-3.3C78.1,83.1,76,85.4,74.3,87.7z
		 M100.6,108.2c1.2,1.6,1.6,3.7,0.4,5.4c-0.2-1.6-0.5-3.2-1.3-4.5C100,108.8,100.4,108.4,100.6,108.2z M98.6,108.6
		c1.4,1.9,2.4,4.6,1.1,6.8c-1,1.4-2.3,2.7-4.1,3.1c-3.1,0.7-6.2-0.8-8.4-2.9c-2.8-2.8-4.8-6.4-6.3-10c1.9-1.7,4.5-2.1,7-2.3
		C92.1,103.4,96.1,105.5,98.6,108.6z M98.3,102.1c0.8,0.5,1.1,1.5,1.6,2.3c-0.5-0.1-1-0.3-1.5-0.4c-0.1,1-0.2,2-0.3,3.1
		c-0.6-0.7-1.6-1.3-1.8-2.3c-0.4-1.4-0.9-2.7-1.6-3.9C95.8,101.2,97.2,101.3,98.3,102.1z M96.7,101c-1-0.2-1.9-0.5-2.8-0.8
		c0.7,1.1,1.3,2.3,1.7,3.6c-0.6-0.3-1.2-0.5-1.6-1.1c-0.9-1.1-0.8-2.7-1.6-3.9C94.1,98.8,96,99.3,96.7,101z M91.2,97.9
		c0.8,0,1.6,0.3,2.3,0.6c-0.5,0.1-1,0.1-1.5,0.2c0.4,0.8,0.8,1.7,1.1,2.5c-1.5-0.5-2.6-1.6-3.8-2.4C89.9,98.4,90.5,98,91.2,97.9z
		 M85.9,99.7c0.7-0.7,1.3-1.5,2.2-1.9c0.7-0.2,1.5-0.1,2.3-0.2c-0.6,0.4-1.1,0.9-1.7,1.3c0.6,0.3,1.3,0.6,1.8,1
		C89,100.3,87.4,100.4,85.9,99.7z M86.7,101.1c1.2-0.8,2.7-0.6,4-0.8c0.7,0.4,1.5,0.8,2.2,1.2c0.6,0.8,1,2,2.1,2.3
		c0.8,0.1,0.9,1,1.1,1.5c-2.5-1.2-5-2.5-7.8-2.6c-2.7,0-5.6,0.5-7.7,2.3c-0.4-0.8-0.7-1.6-1.1-2.4c1.5,0.1,3.3,0.4,4.5-0.8
		C84.8,101.2,85.9,101.5,86.7,101.1z M82.8,99.5c-0.2,0.6-0.5,1.1-0.7,1.6c0.8,0,1.5,0.1,2.3,0.3c-1.4,1.2-3.6,1.5-5.2,0.6
		C80.2,101,81.4,100,82.8,99.5z M76.5,110.6c-0.7-1.1-0.9-2.4-1.3-3.7c1,0.7,1.9,1.6,2.9,2.4c-0.2-0.9-0.3-1.8-0.2-2.8
		c0.8,1,1.5,2.1,1.8,3.3c0,0.4,0,0.9,0,1.3c0,0.7,0,1.4,0.1,2.1C78.6,112.4,77.4,111.7,76.5,110.6z M91.6,127.6
		c-1.1-0.2-2-0.9-3-1.4c1.7-0.1,3.4,0.5,5.1,0.8c-1.4-1-2.8-2.1-3.3-3.8c2.1,0.6,3.2,2.6,4.5,4.2C93.8,127.6,92.7,127.8,91.6,127.6z
		 M93.7,128.2c0.8-0.3,1.6-0.5,2.4-0.8c-0.9-0.6-1.7-1.3-2.3-2.3c1.7,0.4,3.1,1.5,4.8,2.1C97.2,128,95.4,128.6,93.7,128.2z
		 M97.1,128.4c0.9-0.5,1.9-0.8,2.8-1.3c-0.9-0.4-1.8-0.6-2.6-1.1c1.4,0,2.8,0.4,4.1,0.8C100.2,127.9,98.7,128.6,97.1,128.4z
		 M100.6,128.1c0.7-0.6,1.4-1.2,2.1-1.7c-0.7-0.1-1.5-0.1-2.2-0.3c2.2-0.6,4.3,0.4,6.4,0.6C105,127.8,102.8,128.4,100.6,128.1z
		 M111.6,124.1c-0.9,1-1.7,2.1-3,2.5c-1.5-0.5-3-0.5-4.5-0.9c0.8-0.6,1.6-1.2,2.6-1.4C108.3,123.8,110,124.2,111.6,124.1z
		 M113.5,120.7c-0.9,1-1.9,2-3.1,2.8c-0.9,0.2-1.9,0-2.9,0C109.2,122,111.3,121,113.5,120.7z M189.6,16.1c-1,2.1-2.7,3.7-4.5,5
		c4.7-2.7,10.3-3.6,15.7-3.1c-1.3,0.8-2.9,1.2-4,2.3c1.4,0,2.7-0.2,4.1-0.5c2.6-0.5,5.3-0.7,7.9-0.4c2.2,0.3,4.4,0,6.5-0.2
		c4.1-0.3,8.2-0.7,12.4-0.7c0.9,0,1.9,0.1,2.8,0.4c-1,0.7-2.3,0.9-3.5,1.1c-3.5,0.4-7.1,0.5-10.6,0.9c-1.4,0.1-2.6,1-4,1.2
		c-2.7,0.3-5.4,0.8-8.1,1c-1.3,0.1-2.6,0-3.9,0.2c-1.7,0.4-3.6-0.2-5.3,0.5c-1.4,0.6-3.1,0.5-4.6,0.3c-1.9-0.3-3.5-1.4-5.2-2.4
		c-1.1-0.6-2.4-0.9-3.6-1.2C183.9,18.5,186.9,17.5,189.6,16.1z M177.7,18.9c2.1-1.5,5-1.5,7-3.2c-1,1.8-2.1,3.5-3.5,5
		c-1.7-0.3-3.4-0.4-5.1-0.6C176.6,19.7,177.1,19.3,177.7,18.9z M158.4,50c4.1,2.8,6.9,7.9,6.3,12.9c-1.8,0.5-3.5,1.1-5.2,1.7
		c0.1-2-0.6-3.9-1.8-5.4c-1.9-2.4-4.5-4.2-7.3-5.3C152.8,52.2,155.5,50.8,158.4,50z M172.8,108.3c-0.6-0.5-1-1.2-1.4-1.9
		c0.5,0,0.9,0,1.4,0C172.8,107,172.8,107.7,172.8,108.3z M173.7,108.7c-0.5,0.4-0.9,0.7-1.4,1c-0.2-0.5-0.4-1-0.6-1.5
		C172.3,108.3,173,108.5,173.7,108.7z M168.2,107.3c0.3-0.2,0.8-0.6,1-0.9c0.2,0.4,0.4,0.7,0.6,1.1
		C169.4,108.3,168.7,107.5,168.2,107.3z M169.8,108.9c0,1-1.1,0.1-0.8-0.5C169.2,107.9,169.9,108.5,169.8,108.9z M167.1,108.2
		c0.3-0.2,0.8-0.6,1.1-0.8c0.3,0.5,0.6,1.1,0.5,1.7C168.1,108.8,167.6,108.5,167.1,108.2z M168.3,111.1c-0.5-0.6-0.6-1.4-0.8-2.1
		c0.4,0.2,0.7,0.4,1.1,0.6C168.7,110.1,168.7,110.7,168.3,111.1z M158.9,112.1c0.1-4-1.1-7.9-3.5-11.1c1.6,0.3,3.2,0.2,4.7-0.1
		c1.5-0.7,2.3-2.4,3.8-3.1c1.6-0.9,0.6-2.9-0.2-4c0.6-0.2,1.3-0.5,1.9-0.7c0.7,0.4,1.4,0.9,2.2,0.6c1.2-0.9,2-2.1,3.1-3.1
		c0.8,0.4,1.7,0.7,2.1,1.6c1.4,2.2,1,5.1,0.1,7.4c-1.1,3.3-3.6,5.8-6.2,8.1c-0.9-3-2.7-5.7-5.2-7.6c1.9,2.4,4.3,4.7,4.8,7.9
		C164.2,109.8,161.6,111.1,158.9,112.1z M165.4,109.5c-0.1,0.6-0.3,1.3-0.4,1.9c-0.4-0.3-0.8-0.5-1.2-0.8
		C164.3,110.2,164.9,109.8,165.4,109.5z M163.6,110.6c-0.1,0.5-0.2,1-0.3,1.5c-0.5-0.2-0.9-0.3-1.4-0.5
		C162.4,111.3,163,110.9,163.6,110.6z M159.2,113.3c-0.4,0.4-0.7,0.3-0.8-0.3C158.9,112.7,159.1,112.8,159.2,113.3z M159.9,93.5
		c1.8-1,3-2.7,4-4.4c1.3,0.6,2.1,1.9,2.1,3.4C164.1,93.5,162,93.5,159.9,93.5z M157.2,66.5c0.7-0.4,1.5-0.8,2.2-1.1
		c0.3,0.6,0.6,1.1,1,1.7C159.2,67.6,158,67.4,157.2,66.5z M161.1,67.1c-0.5,1.5-2.7,1.9-3.7,0.7C158.6,67.7,159.9,67.9,161.1,67.1z
		 M157.7,67.4c-1,0.7-2.2,1.3-3.5,0.8c0.9-0.6,1.8-1.1,2.7-1.6C157.1,66.8,157.4,67.1,157.7,67.4z M155.7,70.5
		c-0.1,1.8-2.2,1.7-3.6,1.9c0.3-0.4,0.6-0.8,0.9-1.2C153.9,71.2,154.8,70.9,155.7,70.5z M151.6,69.9c0.8-0.5,1.5-1.3,2.5-1.5
		c0.4,0.6,0.6,1.3,0.8,2C153.8,71,152.7,70.5,151.6,69.9z M156.6,70.7c0.1,0.8,0.1,1.7-0.4,2.4c-0.5,0.7-1.5,0.8-2.2,1.1
		C154.5,72.8,155.5,71.7,156.6,70.7z M154.7,68.9c0.7-0.1,1.5-0.3,2.2-0.5c0.8,0.2,1.5,0.5,2.3,0.8c-0.7,0.6-1.3,1.6-2.4,1.4
		C155.7,70.7,155.2,69.6,154.7,68.9z M159,70.3c0.1,1.3-0.7,2.6-2.2,2.7c0.1-0.6,0.2-1.3,0.3-1.9C157.8,70.8,158.4,70.6,159,70.3z
		 M158.4,72.8c0.6-0.5,0.8-1.2,1.1-1.9c0.2,0.1,0.7,0.2,0.9,0.3c-0.2,0.8-0.4,1.6-0.9,2.2c-0.7,0.8-1.8,0.8-2.8,1c0-0.4,0-0.8,0-1.2
		C157.2,73.1,157.8,73.1,158.4,72.8z M160.7,71.4c0.6-0.1,1.2-0.2,1.8-0.3c0.1,0.8,0.2,1.7-0.4,2.3c-0.6,0.4-1.4,0.4-2.2,0.5
		C160.2,73,160.5,72.2,160.7,71.4z M162.7,73.9c-0.1,0.4-0.4,1-0.8,1C161.3,74.5,162.6,73,162.7,73.9z M163.2,74
		c0.8,0,1.7-0.3,2.3,0.2c0,0.5,0,1-0.4,1.3c-0.8,1.1-2.2,0.4-3.2,0.3C162.4,75.2,162.8,74.6,163.2,74z M165.6,76
		c0.6,0.1,1.1,0.2,1.7,0.4c-0.5,0.5-0.9,1.3-1.6,1.5c-0.8,0.2-1.6-0.2-2.3-0.3c0.2,0.3,0.3,0.5,0.5,0.8c-0.3,0.5-0.7,1-1,1.5
		c0.7-0.3,1.2-0.9,1.5-1.6c1.3-0.2,2.4,0.6,3.4,1.4c-0.7,1.1-1.7,1.6-2.9,1.8c-0.2-0.4-0.3-0.8-0.5-1.2c-1.2-0.2-2.5-0.5-3.6-1.1
		c1.3-0.3,2.3-1.2,2.5-2.6C164,76.6,164.8,76.3,165.6,76z M170.5,80.6c-1.1,0.3-2-0.3-2.8-0.9c0.8-0.4,1.5-0.9,2.3-1.3
		c0.8,0,1.6,0.1,2.4,0.1C172.1,79.4,171.6,80.4,170.5,80.6z M173.8,81.2c-0.3,0.7-0.5,1.5-1.2,2.1c-0.8,0.5-1.8,0.2-2.7,0
		c0.6-0.8,1-1.6,1.3-2.5C172,81.1,172.9,81.2,173.8,81.2z M168.5,78.8c-0.8,0.3-1.6-0.2-2.3-0.4c0.6-0.7,1.1-1.5,1.6-2.4
		c0.8,0.4,1.6,0.7,2.5,0.9C169.8,77.6,169.4,78.5,168.5,78.8z M164.7,81.6c1.2,0.2,2.4-0.4,3.1-1.3c0.8,0.6,1.9,0.9,2.9,1
		c-0.6,0.9-1.1,2-2.2,2.2c-0.9,0.1-1.9-0.3-2.8-0.3c0.9,0.5,1.9,1,2.9,0.7c1-0.4,1.9,0.1,2.9,0.3c-0.9,1-2.1,1.4-3.2,2.1
		c2.2-0.2,3.6-2,5.2-3.4c1-0.1,2-0.3,3-0.6c-0.1,0.6-0.1,1.3-0.6,1.7c-1,1.2-2.5,0.3-3.8,0.2c0.5,0.4,1.1,0.7,1.7,1
		c-0.9,0.8-2,1.2-3.1,1.5c2.4,0.5,4.6,1.6,7.1,1.8c-0.8,0.6-1.5,1.5-2.6,1.3c-1.4,0-2.1-1.3-3.1-2.1c0.4,1,1.1,2,2.2,2.3
		c1.4,0.2,2.4,1.2,3.8,1.5c-1,1.3-2.6,1.3-4.1,1.2c-0.6-1.1-1.5-2.4-2.9-2.5c0.1-0.7,0.3-1.6-0.3-2.3c-1.2-1.3-3.2-1.4-4.3-2.7
		c-0.7-0.8-1.4-1.7-2.3-2.4C164.4,82.5,164.5,82,164.7,81.6z M178.8,100c-0.8,0-1.4-0.7-1.9-1.3c0.5-0.4,1-0.7,1.6-1.1
		c0.5,0.8,1.3,1.4,2.2,1.8C180.1,99.7,179.5,99.9,178.8,100z M179,100.5c0.3,0.6,0.6,1.2,0.9,1.8c-0.6-0.1-1.3,0.1-1.7-0.3
		c-0.6-0.4-0.4-1.1-0.6-1.7C178,100.3,178.5,100.4,179,100.5z M175.7,96c0.7-0.3,1.4-0.6,2.1-0.9c0.8,0.1,1.6,0.5,2.4,0.8
		c-0.6,0.5-1.1,1.2-1.9,1.4C177.2,97.4,176.4,96.7,175.7,96z M177.7,97.9c-1.1,0.5-2.3,0.6-3.4,0.2c0.1-0.9,0.2-1.8,0.4-2.7
		C175.6,96.5,176.4,97.4,177.7,97.9z M174.6,95.3c-0.2-0.8-0.3-1.6-0.5-2.3c1.4,0.1,2.7,0.6,4,1.2C177.2,95.2,175.9,95.7,174.6,95.3
		z M174.5,98.7c0.1,0.4,0.1,1.2-0.4,1.1C173.5,99.6,174,98.2,174.5,98.7z M175.7,102.5c-1-0.1-1.9-0.5-2.5-1.3
		c0.1-0.3,0.3-0.8,0.4-1.1C174.8,100.1,176.1,101.1,175.7,102.5z M174.6,98.9c0.6,0,1.2-0.1,1.8-0.1c0.4,0.3,0.6,0.7,1,1.1
		c-0.1,0.5-0.2,0.9-0.3,1.4C175.9,101,174.9,100.1,174.6,98.9z M180,98.6c-0.6-0.2-0.8-1-1-1.5c0.6,0.1,1.1,0.3,1.7,0.4
		c0.8,0.1,1.8-0.5,2.4,0.4C182.1,98.3,181.1,99.2,180,98.6z M179.8,96.9c0.1-0.3,0.3-0.8,0.4-1c0.8-0.4,1.6-0.8,2.3-1.3
		c0.6,0.3,1.3,0.5,1.9,0.7C183.1,96.3,181.6,97.6,179.8,96.9z M180.7,95.2c-1,0.4-1.9-0.1-2.7-0.7c1.1-0.4,2.3-0.8,3.3-1.5
		c0.5,0,1,0,1.4,0.1C182.2,93.9,181.7,94.9,180.7,95.2z M181.5,92.6c0.2-0.7,0.4-1.4,0.6-2.1c0.8-0.5,1.5-1,2.1-1.8
		c0.3,0,0.8,0,1.1,0c-0.3,1.1-0.5,2.4-1.4,3.2C183.3,92.5,182.4,92.6,181.5,92.6z M180.3,93.1c-1.1,0.7-2.5,0.5-3.6,0.2
		c1.2-0.6,1.7-2,3-2.6c0.6-0.5,1.4-0.1,2.1-0.1C181.4,91.5,181.3,92.6,180.3,93.1z M178.4,90.8c-0.7,0.2-1.5-0.1-2.2-0.3
		c0.7-0.6,1.4-1.3,2-2c0.8,0.3,1.5,0.5,2.3,0.7C179.8,89.8,179.3,90.6,178.4,90.8z M178.2,88.3c0.7-0.6,1.1-1.3,1.6-2.1
		c0.8-0.4,1.6-0.7,2.4-1.1c0.2,1,0.3,2.3-0.6,3C180.6,88.9,179.3,88.5,178.2,88.3z M181.2,85c-1.2,0.7-2.7,0.1-3.9,0.7
		c0.6,0.2,1.1,0.4,1.7,0.6c0.4,0.4-0.2,0.8-0.5,1.1c-1,0.8-2.4,0.5-3.6,0.3c0.6-0.4,1.2-0.7,1.6-1.2c0.9-1.4,2.8-1.8,3.4-3.5
		c0.8,0.2,1.7,0.4,2.5,0.6C182,84.1,181.8,84.7,181.2,85z M178.8,84c-0.6,0.7-1.4,0.9-2.3,1.1c0,0.9-0.5,1.7-1.3,2
		c-1,0.5-2.1,0-3.1,0c1.1-0.7,1.8-1.9,3.2-2.1c1.1-0.3,1.5-1.5,1.7-2.6c0.8-0.1,1.7-0.2,2.5-0.4C179.3,82.6,179.4,83.5,178.8,84z
		 M165.6,109.8c0.5,0.3,0.9,0.6,1.4,0.9c-0.2,0.4-0.5,0.9-0.8,1.3C165.7,111.4,165.5,110.6,165.6,109.8z M165.6,109.4
		c0.5-0.4,1.1-0.7,1.6-1c0.1,0.7,0.1,1.4,0.1,2.1C166.7,110.1,166.2,109.7,165.6,109.4z M169.3,106.3c1.2-1.4,2.6-2.8,3.4-4.5
		c0.5,0.4,1.1,0.7,1.7,1c0,0.5,0.1,1.1,0.1,1.6c-0.9,0-1.7-0.6-2.4-1.2c0.3,0.9,0.5,1.9,0.6,2.8c-0.7-0.2-1.3-0.5-2-0.8
		c0.3,0.7,0.4,1.4,0.5,2.1C170.6,107.2,170,106.8,169.3,106.3z M171.4,107.8c0,0.5,0,1-0.1,1.5c-0.5-0.5-0.9-1.1-1.3-1.7
		C170.5,107.7,170.9,107.7,171.4,107.8z M172.8,104.6c0.6,0.1,1.2,0.2,1.7,0.3c0.1,0.5,0.2,1,0.2,1.5
		C173.7,107.1,173.1,105.4,172.8,104.6z M174.7,103.1c0.4-0.1,0.8-0.2,1.2-0.3c0.7,0.7,1,1.5,0.9,2.5
		C175.6,105,175,104.1,174.7,103.1z M175.8,101.4c1,0,1.9,0.4,2.5,1.2c0,0.3-0.1,0.9-0.1,1.1C177,103.6,176.2,102.6,175.8,101.4z
		 M178.7,104c0.1,0.2,0.2,0.5,0.3,0.6c-0.5,0.4-0.9,0.8-1.4,1.2c-0.2-0.6-0.3-1.2-0.4-1.7C177.6,104,178.1,104,178.7,104z
		 M178.6,102.8c0.8-0.2,1.6-0.3,2.4-0.4c-0.5,0.7-1.1,1.3-1.7,1.8C179.1,103.8,178.8,103.3,178.6,102.8z M179.4,100.6
		c0.7-0.5,1.3-1,1.9-1.5c0.4,0.7,0.8,1.3,1.2,1.9c-0.4,0.5-0.9,0.9-1.3,1.4C180.5,102,179.8,101.4,179.4,100.6z M182,99.1
		c0.4-0.3,0.8-0.6,1.2-0.9c0.5,0.1,0.9,0.3,1.4,0.4c-0.6,0.7-1.1,1.5-1.7,2.2C182.5,100.2,182.2,99.6,182,99.1z M182.8,97.3
		c0.5-0.7,1.1-1.4,1.7-2c0.7-0.4,1.5-0.7,2.2-1.1c-0.6,1.4-1.3,2.8-2,4.1C184,98,183.4,97.7,182.8,97.3z M182.5,94.2
		c0.3-0.6,0.4-1.2,1-1.6c0.8,0.1,1.5,0.6,2.3,0.5c0.5-0.1,1-0.4,1.6-0.5c-0.2,0.5-0.3,1-0.5,1.4C185.4,94.4,183.9,95.1,182.5,94.2z
		 M184.3,92.4c0.3-0.5,0.6-0.9,0.9-1.4c0.9,0.1,1.9-0.1,2.7-0.5c-0.1,0.5-0.2,1.1-0.4,1.6C186.5,92.7,185.3,92.8,184.3,92.4z
		 M187.6,90c-0.7,0.4-1.5,0.6-2.3,0.7c0-0.7,0.1-1.3,0.1-2c0.7-0.5,1.4-1.1,2.1-1.7C187.6,88,188,89.1,187.6,90z M184.4,88.5
		c0.1-0.7,0.1-1.3,0.1-2c-0.5,1-0.6,2.2-1.5,3c-0.7,0.8-1.8,0.6-2.8,0.5c0.2-1.3,1.9-1.3,2.3-2.6c0.3-1,1.7-0.7,2.3-1.6
		c0.5-0.6,0.9-1.4,1.2-2.1c0.5,1,1,1.9,1.4,2.9C186.6,87.5,185.6,88.2,184.4,88.5z M183,86.5c-0.2-0.6-0.5-1.1-0.8-1.7
		c0.2-1.3,1.3-1.9,2.3-2.6c0.5,0.5,0.9,1,1.4,1.6C185.1,84.8,184.3,85.9,183,86.5z M179.9,82.5c-0.1-1.2,1.3-1.7,1.9-2.6
		c0.8,0.7,1.7,1.3,2.5,2C183.1,83.1,181.3,83.2,179.9,82.5z M177,82c0.6-1.3,0.8-2.8,1.9-3.8c0.8,0.5,1.6,1,2.4,1.6
		C180.4,81.3,178.7,81.7,177,82z M173.7,82.6c0.2-1,0.3-2.2,1.4-2.6c0.7-0.1,1.5-0.2,2.3-0.2C177.8,81.6,175.3,82.6,173.7,82.6z
		 M171.7,80.7c0.3-0.6,0.7-1.2,1-1.8c0.8,0,1.5-0.1,2.2-0.1C174.6,80.2,173.2,81.1,171.7,80.7z M172.7,78.6c1-0.7,2-1.5,2.9-2.3
		C176.4,78.1,174,78.9,172.7,78.6z M172.7,78.1c-0.9,0.2-1.8,0.1-2.8,0.1c0.3-1.2,1.3-1.9,2.2-2.7c1,0.3,1.9,0.7,2.9,1
		C174.3,77.1,173.7,77.8,172.7,78.1z M168.2,76c0.5-0.5,1-1.1,1.5-1.7c0.7,0.3,1.4,0.7,2.1,1C170.9,76.6,169.4,76.4,168.2,76z
		 M165.7,75.5c0.1-0.3,0.1-0.9,0.2-1.3c0.7-0.3,1.3-0.6,2-1c0.5,0.3,0.9,0.7,1.4,1C168.4,75.4,167.1,76.4,165.7,75.5z M165,73.8
		c0.4-0.6,0.7-1.2,1-1.9c0.5,0.4,1,0.9,1.5,1.3C166.7,73.6,165.9,73.8,165,73.8z M163.2,74c0-0.8-0.1-1.7-0.2-2.5
		c0.9,0.1,1.7,0,2.6-0.2C165.5,72.7,164.5,73.6,163.2,74z M162.8,70.8c-0.7-0.5-1.2-1.1-1.9-1.6c0.3,0.6,0.6,1.1,0.9,1.7
		c-1.1,0.1-2.2,0-2.8-1c0.1-0.3,0.4-0.8,0.6-1c0.2-0.1,0.6-0.2,0.8-0.3c1.1,0.7,2.4,1,3.7,0.6c0.4,0.6,0.7,1.2,1.1,1.9
		C164.4,71.1,163.5,71.3,162.8,70.8z M160.8,68.4c0.1-0.3,0.3-0.8,0.5-1c0.7,0,1.4,0,2.1-0.1c0.1,0.5,0.3,1.1,0.4,1.7
		C162.8,69,161.8,68.8,160.8,68.4z M163.1,66.9c-1.4,0.4-2.8-0.3-3.5-1.6c1.5-0.6,3.1-1.2,4.7-1.5C163.6,64.7,163.2,65.8,163.1,66.9
		z M149.6,54.4c2.6,0.9,5,2.5,6.9,4.5c1.4,1.6,2.6,3.8,2.3,6c-1.7,1-3.6,1.7-5.2,2.9c-0.7-4.5-4.4-8.7-9-9.2
		C146.3,57.1,147.7,55.5,149.6,54.4z M147.2,39.4c0.2,1,0.1,2.1-0.2,3.1c-1.5,0.3-2.9,0.8-4.1,1.6C143.7,42.1,145,40.1,147.2,39.4z
		 M134.2,44.3c0.6-1.4,0.9-3.2,2.4-3.9c0.8-0.1,1.2,0.8,1.2,1.5C136.4,42.3,135.2,43.2,134.2,44.3z M133.3,49.9
		c0.1,1.4,0.5,2.8,1.3,4c-0.4,0.9-1.3,1.3-2.1,1.6C131.4,53.7,132.6,51.7,133.3,49.9z M140.1,57.4c0.6-0.8,1.9-1.1,2.3-2.2
		c-1.8,0.9-3.3,2.4-5.2,3c-1.8,0-3.2-1.2-4.6-2.1c0.8-0.4,1.6-0.9,2.3-1.3c0.8,0,1.8,0.3,2.4-0.4c1.1-1.3,2.1-2.5,3.1-3.8
		c-0.6,0.3-1.1,0.7-1.7,1.1c-0.3-1.3-0.8-2.8,0-4.1c0.9-1.6,2.6-3,2.2-5c-0.9-0.2-1.7-0.6-2.6-0.8c-0.1-0.9-0.7-1.5-1.3-2.1
		c1.9-1.1,4-1.6,6.1-1.2c0.2,1,0.8,1.9,0.8,2.8c-0.7,1.2-1.2,2.4-1.8,3.7c1.4-0.8,2.7-1.6,4.2-1.9c0.5,0.6,1,1.2,1.6,1.7
		c-0.3-0.6-0.6-1.1-0.9-1.7c0.8-1.3,0.8-2.9,0.3-4.3c1.1-0.1,2,0.6,3,0.9c0.6,0.2,1.3,0.4,1.3,1.1c-0.4,1.5-1.3,2.8-2.2,4.1
		c-0.5,0.6-0.5,1.4-0.6,2.1c-0.4-0.3-0.8-0.5-1.2-0.8c-2.4,0.4-4.5,1.8-6.3,3.5c2.1-1.1,4.1-3.1,6.7-2.7c0.3,0.9,0,1.9-0.4,2.8
		c-2.1-0.5-4.4-0.5-6.3,0.7c1.4-0.2,2.8-0.8,4.2-0.6c1.2,0.1,2.2,0.9,3.5,1c-0.4-0.3-0.7-0.5-1.1-0.8c0.4-0.8,0.7-1.7,0.8-2.6
		c1-0.1,2-0.6,3-0.5c0.7,0.1,0.9,0.8,1.3,1.3c-0.9,1.2-1.8,2.5-2.8,3.6c-0.9,0.6-2,0.6-3,0.9c-0.7,0.2-1.5,0.5-2.3,0.2
		c0.4,0.4-0.7,0.3-0.1,0.8c-0.6,0.2,0.1,0.8-0.3,1.2c-0.2,1.1,0.3,2.4-0.7,3.2c-1.6,1.5-3,3.3-3.8,5.3
		C140.1,61.4,139.9,59.4,140.1,57.4z M144,59c4.6,0.4,8.5,4.6,9,9.1c-1.1,0.9-2.2,1.8-3.2,2.8c-1.9-3.1-5.6-5.7-9.4-4.9
		C140.7,63.3,142,60.8,144,59z M140.4,66.6c3.7-0.7,7.2,1.7,8.9,4.8c-1.3,1.8-2.8,3.8-3,6.1C143.1,74.9,140.5,70.9,140.4,66.6z
		 M147.6,78.4c-0.8-0.4-0.6-1.4-0.4-2.2c0.8-2.4,2.4-4.3,4.1-6.1c0.4,0.3,0.9,0.6,1.3,0.9c-0.8,1-2.1,1.5-3.2,2.1
		c0.8-0.1,1.6-0.5,2.5-0.6c0.8,0,1.7,0.1,2.5,0.2c-0.7,1.6-2.5,1.9-4,2.6c1.4,0,2.6-0.8,3.9-0.9c0.7-0.1,1.4-0.3,2-0.5
		c-0.3,0.6-0.5,1.2-1,1.6c-1.2,0.4-2.4,0.3-3.6,0.6c1.1,0.2,2.2,0.2,3.2-0.1c0.8-0.2,1.3-1.2,2.2-1.3c0.9-0.1,1.7-0.4,2.5-0.8
		c0.6,0,1.2,0.2,1.8,0.2c-0.8,2-3.1,1.6-4.9,1.6c0.9,0.3,1.8,0.5,2.7,0.7c-1.3,1.1-3,1.7-4.5,2.5c1.4-0.3,2.7-0.7,3.9-1.5
		c0.7-0.5,1-1.5,1.9-1.6c0.8-0.2,1.4,0.4,2.1,0.6c-0.1,1.3-1.1,2-2.2,2.5c-0.6-0.2-1.2-0.4-1.9-0.4c-1.1,0.5-2,1.5-3.1,2
		c-1.4,0.6-2.9,1-4.4,1.5C150.3,80.6,149,79.5,147.6,78.4z M143,91.7c-1.2-0.6-2.3-1.7-2.6-3.1c0.3-0.8,1.3-0.5,2-0.4
		C142.4,89.4,142.5,90.6,143,91.7z M159.2,95.7c-0.5-0.9-1.7-1-2.5-1.6c-0.5-0.6-0.9-1.3-1.3-2c-0.4,0.2-0.9,0.5-1.4,0.2
		c-1.8-0.5-2.5-2.4-3.1-4c-0.1,0.3-0.2,0.6-0.4,0.9c-1-0.5-2.2-1-2.9-1.9c-0.6-0.8-0.8-1.7-1.2-2.6c-1.3-1-3.4-0.4-4,1.1
		c0.1,0.8,0.4,1.5,0.7,2.3c-1-0.4-2.1-0.6-3.1,0c-0.1-1.6-0.9-3.4,0.2-4.8c0.6-0.8,1.3-2.1,2.5-2c2.3,0.2,4.5,1.1,6.8,1.4
		c1.9,0.1,3.6-0.9,5.3-1.3c1.5-0.4,2.7-1.5,4.1-2.3c0.9-0.2,1.6,0.6,2.4,0.9c0.9,0.5,2,0.6,2.9,0.9c0.3,1.1-0.2,2.3-0.9,3.2
		c-0.7,0.8-1.9,0.8-2.9,1.1c0.2-1.3-0.7-2.4-1.9-2.8c0.3-0.4,0.5-0.9,0.7-1.3c-1.1,0.7-1.6,1.9-2.5,2.8c-0.7,0.8-1.6,1.4-2.5,2.1
		c1.3,0.1,2.6,0.3,3.9,0.2c0.6,1.8,1,3.7,1.5,5.6c-0.1-1.9-0.4-3.8-1-5.7c1.3-0.5,2.8-0.6,4.1-1.1c0.8-0.3,1.2-1.1,1.6-1.7
		c0.8,0.8,1.5,1.8,2.3,2.6c1.1,1.1,2.8,1.3,3.9,2.3c0.7,0.6,0.6,1.7,0,2.3c-1,1-1.9,2.1-3,3c-0.4-0.1-0.8-0.2-1.2-0.3
		c0.5-1.9-0.6-4-2.6-4.5c1-0.4,2-0.8,2.9-1.2c-1.5,0-2.8,0.7-4.1,1.2c0.1,0.2,0.4,0.7,0.5,0.9c-0.9,2.1-2.9,3.5-4.9,4.5
		c1.6-0.5,3.3,0.1,4.9-0.1c0.6,0.7,1.2,1.6,1.3,2.5c0.1,0.9-0.9,1.1-1.5,1.6c-1.3,0.7-1.9,2.2-3.3,2.7c0.1-1-0.1-2.1-0.9-2.9
		C159,97.2,159.5,96.4,159.2,95.7z M160.1,84.3c-0.3,0.4-0.6,1-1.2,1.1c-1.2,0.2-2.4,0.3-3.7,0.4c1.1-1,2-2.1,3.1-3.1
		C159,83.1,159.6,83.6,160.1,84.3z M158.5,98.2c0.4,0.7,0.7,1.5,0.7,2.3c-1.5,0.3-3.1,0.3-4.6-0.1C156,99.8,157.2,99,158.5,98.2z
		 M146.8,99.5c0.7,2,1.7,4,1.8,6.2c0.1,2.9-0.2,5.9-1.7,8.4c-3.3,0-6.5-0.4-9.7-1c2-1.9,3.4-4.4,4-7.1c0.4-2.2,0.6-4.7-0.6-6.7
		C142.7,99.7,144.7,99.9,146.8,99.5z M145.1,114.8c-0.2,0.4-0.5,0.9-0.7,1.3c-0.3-0.5-0.5-0.9-0.8-1.4
		C144.1,114.8,144.6,114.8,145.1,114.8z M140.3,99.4c1.4,4.5,0.1,9.5-3.1,12.8c-0.3,0.3-0.7,0.7-1.2,0.6c-3-0.7-5.7-2.2-8.1-4.1
		c3.8-2.5,7.4-6.5,7-11.3C136.5,98.6,138.4,99.1,140.3,99.4z M131.6,111.9c-0.4,0.4-0.8,0.9-1.2,1.3c-0.4-0.8-0.8-1.6-1.1-2.5
		C130,111.1,130.8,111.5,131.6,111.9z M134.4,97.3c0.2,4.7-3.1,8.8-7,11.1c-2.4-1.7-4.4-4.1-6.1-6.6c4.3-0.3,8.3-3.6,9.5-7.7
		C131.9,95.3,133.1,96.3,134.4,97.3z M124.3,106.6c0.6,0.4,1.1,0.9,1.6,1.4c-0.7,0.2-1.4,0.5-2.1,0.8
		C123.9,108.1,124.1,107.3,124.3,106.6z M123.5,108.6c-0.5,0.1-1.1,0.3-1.6,0.4c0.1-0.5,0.1-1,0.2-1.5c0.4-0.8,1.3-0.9,1.9-1.3
		C123.8,107,123.6,107.8,123.5,108.6z M126.2,108.1c0.4,0.4,0.9,0.8,1.3,1.3c-0.4,0.2-1.2,0.7-1.6,0.9
		C125.8,109.6,126,108.8,126.2,108.1z M121.6,103.2c-0.8,0.3-1.6,0.7-2.3,1.1c0.1-1.1,0.6-2.1,1-3
		C120.7,101.9,121.2,102.6,121.6,103.2z M130.5,93.7c-1.3,4-5.1,7.4-9.4,7.4c-1.4-2.1-2.5-4.4-3.1-6.9c1.6,0.3,3.3,0.3,4.9-0.2
		c2.3-0.8,4.3-2.6,5.1-4.9C128.6,90.8,129.4,92.4,130.5,93.7z M109.3,78.9c-0.9-2.2,0.8-4.3,0.7-6.5c1.4,1.1,2.6,2.5,3,4.2
		c1-0.4,2-0.4,3,0c-0.5,0.4-0.9,1.1-1.7,1c-0.8-0.1-1.5-0.3-2.3-0.3c1,0.4,2.2,0.5,2.9,1.5c-0.8,0.7-1.9,0.1-2.9,0.2
		c-0.4-1-0.8-2-1.2-2.9C110.3,77,110.1,78.1,109.3,78.9z M109.4,79c-0.4,0.6-0.9,1.2-1.4,1.8c0-0.6-0.1-1.2-0.1-1.8
		C108.4,79,108.9,79,109.4,79z M107.7,69.7c-0.7-0.4-1.5-0.7-2.2-1.2c-2.1-1.2-2.7-3.7-4.6-5.2c1.3,0,2.6-0.1,3.9,0.4
		c1.3,0.5,2.3,1.3,3.4,2.2c-0.3-0.5-0.5-0.9-0.8-1.4c0.4-0.4,0.8-0.8,1.2-1.2c0.4,0.8,0.7,1.7,0.6,2.6c0.4-0.9,0.8-1.7,1.6-2.4
		c0.1,0.6,0.2,1.1,0.4,1.7c-1.2,0.6-2.4,1.1-2.8,2.5c-0.5-0.4-1-0.7-1.5-1C107.1,67.6,107.4,68.6,107.7,69.7z M90.3,64.8
		c1-1.3,1.9-2.9,3.6-3.4c1.1-0.3,2.4-0.7,3.2,0.2c-0.3-0.8-0.5-1.6-0.4-2.4c0.7,0.6,1.5,1.1,2.3,1.7c-0.6,0.3-1.2,0.6-1.9,0.9
		c0,0,0,0,0,0c-0.9,0.6-1.8,1-2.8,1.4c1.3,0.4,2.7,0.8,3.7,1.7C95.7,66.4,93,65,90.3,64.8z M96.2,65.9c-0.5,0.8-0.9,1.6-1.3,2.5
		c-0.7-0.6-1.4-1.4-2-2.2C93.9,65.6,95.1,66,96.2,65.9z M91.1,62.9c-0.2-0.9-0.2-1.8,0.2-2.7c0.4,0.3,0.9,0.7,1.3,1
		C92.2,61.9,91.7,62.4,91.1,62.9z M101.9,61.5c-0.6-0.2-1.3-0.4-1.9-0.6c0.3-0.5,0.7-1,1-1.5C101.3,60.1,101.6,60.8,101.9,61.5z
		 M101.8,57.3c0.5,0.5,1,1,1.5,1.5c-0.4,0.7-0.8,1.3-1.4,1.8C101.5,59.6,101.6,58.4,101.8,57.3z M99.6,61c-0.4-0.5-1-1-0.8-1.7
		c0.1-0.7,0.7-1.2,1.1-1.7c0.3,0.5,0.6,1,0.9,1.5C100.3,59.7,99.9,60.4,99.6,61z M98.3,60c-0.5-0.5-1.2-1-1.2-1.8
		c-0.1-1.1,0.6-2.1,1.2-2.9c0.3,0.8,0.6,1.6,1.1,2.3C98.7,58.3,98.4,59.1,98.3,60z M95.7,63c1.1-0.5,2.1-1.2,3.3-1.6
		c1.5-0.3,2.8,0.7,4.2,1.1c-0.4-0.4-0.8-0.7-1.2-1.1c0.3-0.5,0.5-0.9,0.8-1.4c0.6,0.9,1.1,1.8,0.9,2.9c-1.3,0-2.6-0.1-3.9-0.1
		c1.1,1,2.3,2,3.1,3.3C99.9,66.6,98.3,63.6,95.7,63z M115.4,83.4c-0.4-0.8-1-1.3-1.7-1.8c0.7-0.1,1.4-0.4,2.1-0.4
		c0.8,0.1,1.3,0.9,1.9,1.4C116.8,82.9,116.1,83.2,115.4,83.4z M117.5,83.1c-0.2,0.8-0.4,1.7-0.7,2.5c-0.3-0.7-0.7-1.4-1.1-2
		C116.4,83.4,117,83.2,117.5,83.1z M112,66.4c0,0.4,0.1,0.9,0.1,1.3c-0.8,0.4-1.6,0.8-2.4,1.2C109.6,67.5,110.9,66.8,112,66.4z
		 M109.3,68.5c-0.2-0.2-0.6-0.5-0.8-0.7c0.4-0.8,1-1.4,1.7-1.9C110.1,66.8,109.7,67.7,109.3,68.5z M116.5,73.9c-0.1,0.4-1.1,0.6-1,0
		C115.6,73.4,116.7,73.2,116.5,73.9z M116.1,72.7c0.1-0.4,1-0.4,0.9,0.1C116.9,73.2,116.1,73.2,116.1,72.7z M119.2,74.1
		c-0.4,0.4-0.8,0.8-1.2,1.2c-0.8,0-1.5-0.5-2.3-0.8C116.8,73.8,118,73.7,119.2,74.1z M116.7,73.4c0.9-0.6,1.9-1.1,2.9-0.6
		c-0.2,0.2-0.7,0.7-0.9,0.9C118,73.6,117.4,73.5,116.7,73.4z M117.3,72.3c0-0.1,0-0.3,0.1-0.5c0.5-0.8,1.6-0.6,2.3-0.6
		c-0.1,0.4-0.3,0.7-0.5,1.1C118.6,72.3,117.9,72.3,117.3,72.3z M119.3,70.6c0.3-0.4,1.1-0.2,1.1,0.3
		C120.2,71.4,119.3,71.2,119.3,70.6z M118.7,69.4c0.5-0.7,1.5-0.2,2.2-0.3c-0.2,0.2-0.5,0.7-0.7,0.9
		C119.6,70.3,118.5,70.2,118.7,69.4z M119.1,68.9c-0.6,0-1.1-0.4-1.7-0.6c0.7-0.4,1.3-0.9,2-1c0.5,0.1,1,0.4,1.6,0.6
		C120.3,68.2,119.8,68.8,119.1,68.9z M116.7,68.7c-0.5-0.3-1-0.5-1.6-0.8c0.9-0.7,2.1-1.3,3.3-0.7C117.9,67.7,117.3,68.2,116.7,68.7
		z M114.7,68c-0.7,0.6-1.6-0.2-2.3-0.3c0.9-1,2.2-1.4,3.5-0.8C115.5,67.3,115.1,67.7,114.7,68z M116.7,66.7
		c-0.8,0.3-1.4-0.5-2.1-0.8c0.6-0.3,1.2-0.7,1.8-0.9c0.8-0.1,1.5,0.3,2.2,0.7C118,66.1,117.4,66.6,116.7,66.7z M112.4,67.2
		c0-1.5,1.3-2.4,2.6-2.7C115,66,113.6,66.7,112.4,67.2z M112.7,61.9c0.4,1.2-0.3,2.5-1.5,3c0-0.6-0.1-1.2,0.1-1.9
		C111.5,62.5,112.2,62.3,112.7,61.9z M111.4,62c0.1-1.3,1.1-2,2.2-2.2c-0.3,0.6-0.6,1.2-0.8,1.9C112.5,61.8,111.8,61.9,111.4,62z
		 M115.8,63.4c-0.8,1-2,1.1-3.1,1.2c0-0.2,0-0.6,0-0.8C113.5,62.9,114.8,63.1,115.8,63.4z M111,62.8c-0.5,0.7-1.3,1-1.9,1.5
		c-0.6-1.6,0.4-3.5,2.2-3.4C111.2,61.5,111.2,62.2,111,62.8z M113.2,64.7c-0.4,0.5-0.8,1.1-1.3,1.5c-0.6,0.2-1.2,0.3-1.8,0.4
		C110.8,65.4,111.9,64.6,113.2,64.7z M113.5,68.7c-0.4,0.7-1.1,1.1-1.8,1.5c-0.4-0.4-0.8-0.9-1.2-1.3
		C111.3,68.4,113,67.6,113.5,68.7z M114.9,69.8c-0.7,0.8-1.3,1.5-2,2.3c-0.3-0.6-0.6-1.2-0.9-1.9C112.8,69.7,113.8,69.7,114.9,69.8z
		 M113.2,69.3c0.8-0.8,1.9-1.1,3-0.8c-0.3,0.4-0.6,0.9-1,1.3C114.6,69.6,113.9,69.4,113.2,69.3z M116.3,68.8c0.7,0,1.4,0,2.1,0.2
		l-0.2,0.3c-0.6,0.8-1.7,0.6-2.6,0.8C115.8,69.6,116,69.2,116.3,68.8z M119.3,70.4c-0.4,0.2-1.1,0.6-1.5,0.8c-0.5-0.2-1-0.5-1.6-0.7
		C117.2,69.9,118.3,69.7,119.3,70.4z M117.1,70.9c0,0.2-0.1,0.6-0.1,0.8c-0.5,0.7-1.4,0.8-2.2,1.2C114.7,71.5,116,71.1,117.1,70.9z
		 M115.5,72.9c-0.1,0.4-0.2,0.8-0.3,1.2c-0.5,0-1,0.1-1.6,0C113.3,73.2,114.7,72.8,115.5,72.9z M115.8,74.7
		c-0.8,0.5-1.7,1.1-2.6,1.6c0-0.3-0.1-0.8-0.2-1C113.7,74.4,114.9,74.4,115.8,74.7z M116.1,75.1c0.6,0.1,1.1,0.3,1.7,0.5
		c-0.1,0.3-0.4,0.8-0.6,1.1c-1-0.3-2-0.6-3-0.9C114.9,75.6,115.5,75.3,116.1,75.1z M118.3,77.5c-1.1,0.7-2.7,2-3.8,0.5
		c0.6-0.4,1.3-0.9,2-1.1C117.1,76.9,117.7,77.3,118.3,77.5z M117.3,79.6c-0.5,0.4-1.1,0.8-1.6,1.2c-0.4-0.5-0.8-1-1.2-1.5
		C115.4,79,116.5,79,117.3,79.6z M116,80.8c0.8-0.5,1.6-0.8,2.5-0.8c-0.2,0.8-0.5,1.5-0.7,2.2C117.2,81.7,116.6,81.2,116,80.8z
		 M116.5,78.8c0.7-0.3,1.3-0.8,2.1-0.9c0.9,0.4,0.1,1.3,0,1.9C117.9,79.6,117.2,79.2,116.5,78.8z M117.4,76.6
		c0.8-0.7,1.8-0.9,2.8-0.8c-0.2,0.8-0.6,1.6-1,2.4C118.6,77.6,118,77.1,117.4,76.6z M118.1,75.5c0.7-0.8,1.6-1.2,2.6-1.3
		c-0.6-0.1-1.3-0.2-1.9-0.3c0.7-0.8,1.6-1.2,2.6-1.3c-0.3,1-0.7,2-1.1,3C119.6,75.5,118.9,75.5,118.1,75.5z M119.4,72.5
		c0.3-1.1,1.5-1.5,2.5-1.5C121.9,72.5,120.5,72.7,119.4,72.5z M120.3,70.5c0.2-0.9,1.1-1,1.8-1.1c-0.7-0.2-1.4-0.4-2.1-0.8
		c0.7-0.3,1.5-0.6,2.3-0.7c-0.7-0.1-1.5-0.3-2-0.8c0.7-0.4,1.5-0.6,2.4-0.6c0,1.4,0,2.9-0.6,4.2C121.4,70.9,120.8,70.7,120.3,70.5z
		 M117.6,66.6c1.1-0.9,2.5-0.8,3.8-0.2C120.3,67.1,118.8,67.5,117.6,66.6z M117.2,64.5c0.9-0.4,1.9-0.6,2.9-0.2
		c0.1,0.4,0.4,1.1,0.6,1.4C119.3,65.9,118.2,65.3,117.2,64.5z M115,65.2c0.3-1.5,1.9-2.1,3.2-1.7C117.3,64.3,116.2,64.8,115,65.2z
		 M116.2,62.9c1-0.7,2.2-0.8,3.3-0.4C118.5,63.3,117.3,63.1,116.2,62.9z M115.8,63.1c-0.8-0.2-1.6-0.3-2.4-0.4
		c0.4-0.3,0.9-0.7,1.3-1c0.7-0.5,1.6,0,2.3,0.1C116.6,62.2,116.2,62.6,115.8,63.1z M113,62.7c0.1-1.2,0.7-2.3,1.9-2.6
		C115.2,61.3,113.7,61.8,113,62.7z M113.4,59.5c-0.9,0.2-1.6,0.7-2.3,1.2c-0.2-0.1-0.5-0.3-0.7-0.4c0.7-1.4,1.9-2.2,3.4-2.4
		C113.7,58.5,113.6,59,113.4,59.5z M108.4,62.7c-0.1-0.8-0.5-1.7,0-2.4c0.4-0.9,1.4-1,2.3-1.3C110.5,60.6,109.2,61.5,108.4,62.7z
		 M108.2,63c-0.5,0.5-1,1-1.4,1.6c-0.4-1.4-0.2-2.8,0.8-3.9C107.8,61.5,107.9,62.3,108.2,63z M107.4,60.5c-0.4,0.6-0.9,1.2-1.3,1.7
		c-0.9-1.5,0.1-3.2,1.4-4.1C107.4,59,107.5,59.7,107.4,60.5z M105.9,63.8c-0.9-0.1-0.3-1.5,0.3-1.1C106.3,63,106.5,64,105.9,63.8z
		 M105.2,60.4c-0.7-1.3-0.1-2.7,0.8-3.7c0.1,0.6,0.2,1.2,0.2,1.8C106,59.2,105.6,59.8,105.2,60.4z M105.1,60.4
		c0.2,0.6,0.4,1.2,0.6,1.8c-0.2,0.4-0.4,0.8-0.6,1.2c-0.3-0.1-0.8-0.2-1.1-0.3C103.9,62,104.4,61.1,105.1,60.4z M103.9,61.4
		c-1-1.2-0.5-2.7,0.3-3.8c0.5,0.8,0.4,1.9,0.5,2.9C104.4,60.7,104.2,61,103.9,61.4z M102,66.6c1.1-0.6,1.6,0.9,2.2,1.5
		c-0.7,0.4-1.4,0.8-2.1,1.3C102,68.5,101.8,67.6,102,66.6z M110.7,69.8c1.1,0.9,1.6,2.4,2.3,3.6c0-0.5-0.1-0.9-0.2-1.4
		c0.5-0.2,1-0.4,1.4-0.3c-0.7-1.3,1.1-1.7,2.1-1.5c-0.4,0.8-1.3,1.1-2.1,1.5c0.2,0,0.4,0.2,0.5,0.3c-0.9,0.8-1.7,1.6-2,2.8
		c-0.9-1.5-2.3-2.5-3.4-3.8c0,1,0.1,2.1-0.2,3.1c-1.4-1.8-1.1-4.2-1.6-6.3C108.7,68.5,109.8,69,110.7,69.8z M115.3,80.7
		c-0.7,0.3-1.3,0.8-2,0.9c-0.7-0.5-0.6-1.7-0.9-2.5C113.5,79.4,114.6,79.8,115.3,80.7z M113.2,81.9c0.6,0.3,1.2,0.8,1.8,1.2
		c-0.7,0.3-1.5,0.6-2.2,0.8C112.6,83.3,112.7,82.2,113.2,81.9z M115.1,83.8c0.5,0.3,0.8,0.7,1.2,1.1c-1.2,0.2-2.5,0.1-3.5-0.7
		C113.6,84,114.4,83.5,115.1,83.8z M115.7,85.2c0.5,0.3,0.9,0.6,1.3,0.9c-1.1,0.4-2.2,0.4-3.1-0.3C114.4,85.6,115,85.2,115.7,85.2z
		 M116.9,91.6c0.1,0.9,0.3,1.9,0.5,2.8c-0.2,0.1-0.5,0.4-0.7,0.5c-0.8-0.2-1.7-0.3-2.5-0.4C114.8,93.2,115.8,92.3,116.9,91.6z
		 M113.2,92c0.5-1.5,2-2.1,3.4-2.6c0.1,0.7,0.1,1.4,0.2,2.1C115.8,92.3,114.5,92.3,113.2,92z M114.8,86.5c0,0.2,0.1,0.6,0.2,0.9
		c-1,0.1-1.9,0.3-2.8,0.6C112.5,86.8,113.6,86.2,114.8,86.5z M116.7,86.5c0,0.3,0.1,0.8,0.1,1.1c-0.7,0-1.4,0-2.1,0
		C115.3,87,116,86.7,116.7,86.5z M116.6,87.8c0,0.5,0.1,0.9,0.1,1.4c-0.8,0.1-1.6,0.2-2.5,0.3C114.7,88.6,115.6,88,116.6,87.8z
		 M114.3,89.6c-0.4,0.7-0.9,1.3-1.3,2c-0.6-0.2-1.2-0.4-1.8-0.7C112,90,113,89.4,114.3,89.6z M113.1,92c-0.6,0.4-1.2,0.7-1.8,1.1
		c-0.6-0.5-1.1-0.9-1.7-1.4C110.7,91.3,112,91.4,113.1,92z M114.9,92.4c-0.4,0.6-0.7,1.2-1,1.8c-0.8-0.3-1.7-0.6-2.5-0.8
		C112.3,92.5,113.6,92.3,114.9,92.4z M116.4,95c-0.6,0.8-1,1.7-1.3,2.7c-1-0.5-2.1-0.8-3.2-0.9c0.3-0.5,0.7-0.9,1.1-1.3
		C114,94.7,115.3,94.9,116.4,95z M115.4,98c0.2-1.4,1-2.5,2-3.5c0.3,1.2,0.7,2.4,1.2,3.6C117.6,97.8,116.5,97.8,115.4,98z
		 M118.3,98.1c-0.7,0.8-1.2,1.8-1.4,2.8c-0.8-0.4-1.7-0.6-2.6-0.7c0.4-0.6,0.7-1.4,1.4-1.7C116.5,98.1,117.5,98.2,118.3,98.1z
		 M127.8,88.8c-0.6,0.7-1,1.6-1.6,2.3c-1.4,1.7-3.5,2.7-5.7,2.8c-0.9,0-2.2,0.2-2.8-0.7c-0.4-1.8-0.5-3.6-0.5-5.5
		c3.2,1.3,7.4,1.4,10.1-1.2C127.5,87.2,127.6,88,127.8,88.8z M126.3,86.5c-2.6,2-6.1,1.6-9,0.6c0.1-1.5,0.5-2.9,0.9-4.3
		c2.8,0.9,5.8,0.4,8.5-0.7C126.7,83.6,127.7,85.3,126.3,86.5z M126.1,77.3c0.1,1.4,0.3,2.7,0.4,4.1c-2.5,1.3-5.4,1.6-8.2,0.9
		c0.6-1.5,1.1-3.1,1.7-4.7C122,78.3,124.2,78.3,126.1,77.3z M125.9,76.5c-1.5,1.5-3.8,1-5.6,0.8c0.4-1,0.9-2.1,1.3-3.1
		c1.4,0,2.8-0.2,4-1C125.7,74.2,126,75.4,125.9,76.5z M123.2,65.8c1,2.1,1.8,4.3,2.2,6.6c-1,0.8-2.4,1.1-3.6,1.2
		c0.3-1.3,0.8-2.6,1.2-3.9C123.3,68.5,123.1,67.1,123.2,65.8z M122.6,66.5c-0.6-0.2-1.2-0.3-1.7-0.5c0-0.5-0.1-1-0.1-1.4
		c0.5-0.2,0.9-0.3,1.4-0.5C122.3,64.9,122.5,65.7,122.6,66.5z M121.7,63.8c-0.3,0.1-0.8,0.4-1.1,0.5c-0.7-0.4-1.5-0.6-2.3-0.9
		c0.9-0.5,1.9-0.8,2.9-1C121.5,62.9,121.8,63.3,121.7,63.8z M121.1,62.4c-1.5,0-2.8-0.8-4.3-0.7c0.2-1,1-1.4,1.8-1.9
		C119.6,60.5,120.4,61.4,121.1,62.4z M118.6,59.5c-0.9,0.3-1.7,0.8-2.1,1.6c-0.4-0.1-0.9-0.1-1.3-0.2c0.2-0.8,0.6-1.6,1.3-2.2
		C117.2,59,117.9,59.2,118.6,59.5z M116.3,58.5c-0.6,0.5-1.1,1.5-2,1.4c-1-0.6,0-1.6,0.4-2.3C115.2,57.9,115.7,58.2,116.3,58.5z
		 M114.5,57.7c-1.3,0.2-2.7,0.3-3.8,1.2c-0.2-0.9,0-1.7,0.4-2.5C112.2,56.7,113.4,57.1,114.5,57.7z M110.8,56.3
		c-0.4,0.8-0.7,1.6-0.6,2.4c-0.9,0.3-1.7,0.8-2.4,1.3c0.1-0.7,0-1.5,0.4-2.1c0.4-0.8,1.4-1.1,2-1.7c-1.7-0.1-2.2,1.8-3.6,2.3
		c-0.4-1.1,0-2.1,0.3-3.1C108.2,55.6,109.5,56,110.8,56.3z M106.8,55.4c-0.6,0.9-1.4,1.7-2.2,2.4c-0.3-0.9-0.4-1.8-0.7-2.8
		c-0.1,1.1,0.2,2.4-0.7,3.3c-1-0.8-1.2-2.1-1.7-3.2c0.2,1.3,0.1,2.6-0.6,3.8c-1.1-1.3-0.5-2.8,0.1-4.1
		C103,54.9,104.9,55.1,106.8,55.4z M100.9,54.8c-0.5,0.9-0.9,1.8-1.1,2.7c-0.7-0.7-1-1.7-1-2.7C99.5,54.8,100.2,54.8,100.9,54.8z
		 M94.2,55.5c1.3-0.4,2.7-0.6,4.1-0.7c-1,0.9-1.7,2.1-1.7,3.4C95.4,57.8,94.7,56.7,94.2,55.5z M94.8,57.5c0.6,0.4,1.2,0.8,1.9,1.1
		c-0.2,0.7-0.3,1.4-0.4,2.1c-0.4,0-0.9,0-1.3,0C94.4,59.7,94.5,58.6,94.8,57.5z M93.9,58.7c0.2,0.7,0.4,1.4,0.6,2.1
		c-0.6,0.2-1.3,0.5-1.9,0.8C92.9,60.5,92.7,59,93.9,58.7z M92,57.6c0.4,0.3,0.7,0.6,1.1,0.9c-0.3,0.7-0.6,1.4-0.8,2.2
		C91.5,59.8,91.8,58.6,92,57.6z M90.3,61.9c-0.9-1-1.2-2.2-0.8-3.5c0.7,0.3,1.3,0.6,2,1C91,60.2,90.6,61,90.3,61.9z M81.5,71.4
		c0.4-1.6,0.6-3.4,1.7-4.7c0.8-1,2-1.3,3.1-1.7c-0.6,1.5-1.4,2.8-2.3,4.1c1.1-0.4,2.2-0.8,3.4-0.7C85.9,70.2,83.4,70.3,81.5,71.4z
		 M90.7,67.3c-1.8,0.7-3.7,0.5-5.5,0.8c0.8-1.2,1.2-2.7,2.3-3.6c1-1,2.3-1.4,3.6-1.6c-0.3,1.1-1.3,1.9-2.1,2.7
		c1.4-0.3,2.8-0.4,4.2,0.2C92.4,66.3,91.6,66.9,90.7,67.3z M92.3,71.1c-0.6-1.1-0.8-2.3-1.1-3.5c0.6-0.3,1.1-0.6,1.7-1
		c0.4,0.7,0.8,1.2,1.4,1.8C93.2,69,92.7,70,92.3,71.1z M92.6,71.4c0.4-1.3,1-2.5,2.4-2.9c0.3,0.7,0.5,1.4,0.8,2.1
		C94.7,70.8,93.6,71.1,92.6,71.4z M96.5,70.1c0.5-0.9,1.3-1.5,2.2-1.9c0,0.7,0.1,1.5,0.1,2.2C98,70.3,96.9,70.9,96.5,70.1z M99.1,70
		c-0.2-1.4,0.6-2.5,1.3-3.5c-0.8,0.5-1.3,1.4-2.3,1.7c-1,0.4-1.6,1.3-2.2,2.2c-0.2-0.8-0.6-1.7-0.4-2.5c0.2-1,1-1.7,1.8-2.3
		c0.2,0.9,0.3,1.7,0.8,2.5c0.1-0.9-0.3-1.7-0.4-2.6c0.2-0.1,0.6-0.2,0.8-0.3c1,0.6,2,1.4,3.2,1.5c-0.1,0.9-0.1,1.8,0.1,2.6
		c-0.7,0.2-1.5,0.5-2.1,0.9c0.9,0.1,1.6-0.3,2.4-0.6c-0.1,0.5-0.2,1-0.2,1.4C100.8,70.8,99.8,70.7,99.1,70z M104.4,68.4
		c1,0.5,1.9,1,3,1.4c-0.8,0.3-1.5,0.7-2.2,1.2c-0.1-0.8-0.2-1.6-0.5-2.4c-0.1,0.7-0.1,1.3,0,2c-0.9,0-1.7,0.2-2.6,0.5
		C102.2,69.9,103.2,69,104.4,68.4z M102.6,71.3c0.8-0.1,1.6-0.1,2.4-0.1c-0.1,0.4-0.3,0.9-0.5,1.3C103.9,72.1,103.2,71.7,102.6,71.3
		z M104.9,72.9c0.4-0.2,1.3-0.5,1.8-0.6c-0.6-0.1-1.3-0.1-1.9-0.1c0.8-1,1.8-1.7,2.9-2.1c0.2,1.4-1.6,2-1.1,3.4
		c0.4-0.7,0.7-1.4,1.1-2.1c0.2,0.5,0.4,1.1,0.5,1.6c-0.8,0.1-1.6,0.4-2.1,1.1C105.7,73.7,105.3,73.3,104.9,72.9z M108.9,73.8
		c-0.6,0.8-1.6,0.8-2.5,0.8C106.9,73.7,108,73.1,108.9,73.8z M106.7,75.4c-0.2-0.5,0.7-0.7,0.7-0.1
		C107.6,75.9,106.7,76.1,106.7,75.4z M107.6,77.9c0.2-0.1,0.5-0.4,0.7-0.6c-0.4-0.1-0.7-0.2-1.1-0.2c0.6-1,0.9-2.3,2-3
		c0.1,1.5-0.8,2.9-0.5,4.4c-0.2,0.1-0.6,0.3-0.9,0.4C107.8,78.6,107.6,78.1,107.6,77.9z M110.7,77c0.5,1.3,1.4,2.4,1.7,3.8
		c0.1,1.2,0,2.5-0.1,3.8l-0.4,0.2c-1-1-1.8-2.2-2.2-3.6c-0.6,0.6-1.2,1.3-1.9,1.9C107.8,80.6,110.3,79.3,110.7,77z M107.9,87.8
		c0.4,0.2,0.9,0.3,1.3,0.5c-0.6-1.1-1.4-2.2-1.4-3.5c-0.1-1.2,0.9-2.1,1.6-2.9c0.9,1.6,2.1,3,2.7,4.8c-0.1-0.6-0.2-1.2-0.3-1.8
		c0.8,0,1.6,0.1,2.3,0.2c-0.5,1.1-1.8,1.5-2.5,2.5c-0.6,0.3-1.3,0.6-1.9,0.9c0.8-0.1,1.7-0.3,2.5-0.2c0.9-0.1,1.7-0.5,2.6-0.4
		c-0.2,0.5-0.5,1-0.8,1.6c-0.7-0.1-1.4-0.1-2-0.4c-1.1-0.4-2.4,0.1-3.4,0.7C108.5,89,108.2,88.4,107.9,87.8z M108.8,90.1
		c1-0.8,2.2-1,3.5-0.8c-0.8,1-1.4,2.1-2.8,2.2C109.3,91,109.1,90.5,108.8,90.1z M108.9,92.2c0.9,0.4,1.5,1,2.2,1.7
		c0.9,0.2,1.8,0.4,2.6,0.6c-0.9,0.6-1.6,1.3-2.1,2.3C110.8,95.2,109.9,93.6,108.9,92.2z M111.8,97.1c1.2,0,2.4,0.4,3.4,1.1
		c-0.5,0.7-1,1.5-1.4,2.3C113.2,99.4,112.5,98.3,111.8,97.1z M113.9,100.6c1.1,0.1,2.2,0.3,3.1,0.8c-0.4,0.7-0.8,1.5-1,2.3
		C115.2,102.6,114.5,101.6,113.9,100.6z M117.7,101.7c0.7-0.2,1.5-0.4,2.2-0.6c-0.9-0.1-1.8,0.1-2.7,0.3c0.3-1.1,0.8-2.2,1.5-3.1
		c0.5,0.9,1,1.8,1.5,2.7c-0.3,1-1,2-1.2,3.1c-0.8-0.2-1.7-0.3-2.6-0.3C116.6,102.9,116.9,102,117.7,101.7z M116.4,104.1
		c0.9-0.1,1.9,0.1,2.7,0.4c-0.2,0.6-0.5,1.2-0.7,1.8C117.7,105.6,117,104.9,116.4,104.1z M121.6,103.5c-0.2,1-0.3,2.1-0.2,3.1
		c-0.9-0.1-1.7-0.1-2.6-0.1C118.9,105,120.3,104.1,121.6,103.5z M121.5,109.1c-0.8-0.7-1.6-1.4-2.4-2.2c0.9-0.1,1.8,0,2.6,0.2
		C121.6,107.8,121.6,108.5,121.5,109.1z M122.2,104.1c0.5,0.6,1,1.3,1.6,1.9c-0.7,0.3-1.3,0.6-2,0.9
		C121.9,106,121.4,104.7,122.2,104.1z M123.5,110.7c-0.5-0.5-1.1-0.9-1.7-1.4c0.7-0.2,1.4-0.3,2-0.4
		C123.7,109.6,123.6,110.1,123.5,110.7z M125.6,108.3c0,0.6-0.1,1.2-0.1,1.8c-0.6,0.2-1.1,0.4-1.7,0.6
		C123.8,109.6,124.6,108.8,125.6,108.3z M124.1,111.1c0.6-0.3,1.2-0.5,1.8-0.7c-0.1,0.6-0.3,1.1-0.4,1.7
		C125,111.8,124.5,111.5,124.1,111.1z M127.1,109.6c0.2,0.6,0.4,1.3,0.6,1.9c-0.7,0.2-1.4,0.4-2,0.6
		C126,111.3,126.5,110.4,127.1,109.6z M127.8,113.3c-0.5-0.3-1.1-0.6-1.6-0.9c0.6-0.2,1.2-0.4,1.9-0.5
		C128,112.4,127.9,112.9,127.8,113.3z M127.7,109.5c0.5,0.3,1,0.6,1.5,0.9c-0.3,0.4-0.7,0.9-1,1.3
		C127.9,111,127.8,110.3,127.7,109.5z M129,111c0.3,0.7,0.5,1.3,0.8,2c-0.5,0.2-1.1,0.4-1.6,0.7C128.3,112.7,128.6,111.8,129,111z
		 M130.2,114.5c-0.5-0.2-1-0.5-1.5-0.7c0.6-0.2,1.1-0.3,1.7-0.5C130.3,113.7,130.2,114.1,130.2,114.5z M131.6,112.2
		c0.2,0.6,0.4,1.1,0.6,1.7c-0.5,0.3-1,0.5-1.6,0.8C130.6,113.8,131,112.9,131.6,112.2z M131.2,114.7c0.5-0.2,0.9-0.4,1.3-0.6
		c0.2,0.4,0.3,0.9,0.5,1.3C132.4,115.2,131.8,115,131.2,114.7z M134.4,115.4c0.3-0.6,1.2-0.2,1.1,0.4
		C135.3,116.3,134.4,115.9,134.4,115.4z M136.5,116.2c-0.3-0.5-0.6-1.1-0.8-1.6c-0.8,0.1-1-0.9-1.5-1.3c0.1,0.5,0.3,1.1,0.4,1.6
		c-0.4,0.2-0.8,0.4-1.3,0.6c-0.4-0.8-0.2-1.6,0.1-2.4c-0.2,0.2-0.7,0.6-0.9,0.9c-0.2-0.6-0.5-1.2-0.7-1.8c2,0.9,4.1,1.7,6.4,1.8
		c-0.2,0.4-0.5,0.9-0.7,1.3c-0.2-0.3-0.5-0.9-0.7-1.3c-0.1,0.6-0.2,1.1-0.5,1.7c0.4-0.1,0.8-0.2,1.2-0.3c0.1,0.2,0.4,0.7,0.5,1
		C137.5,116.4,137,116.3,136.5,116.2z M138.2,116.5c-0.2-0.8-0.2-1.6,0.2-2.3c0.2,0.3,0.7,1,0.9,1.4
		C138.9,115.9,138.6,116.2,138.2,116.5z M139,116.3c0.1-0.4,1-0.5,0.9,0C139.8,116.7,138.9,116.8,139,116.3z M139,114.1
		c0.4-0.1,0.9,0,1,0.5C140.1,115.7,138.5,114.8,139,114.1z M140.5,114.2c0.3,0.5,0.7,1.1,1,1.7c-0.4,0.3-0.8,0.6-1.2,0.9
		C140.2,115.9,140.3,115,140.5,114.2z M141.2,116.7c-0.1-0.7,1.3-0.8,1.1,0C142.1,117.1,141.4,117.1,141.2,116.7z M142.4,115.5
		c-0.8,0.1-1.1-0.5-1.4-1.1c0.7,0.1,1.4,0.3,2.1,0.5c0.3,0.4,0.5,0.8,0.8,1.2c-0.4,0.3-0.8,0.6-1.2,0.9
		C142.6,116.5,142.5,116,142.4,115.5z M143.7,116.7c0.1-0.5,1.1-0.4,1,0.1C144.6,117.3,143.6,117.3,143.7,116.7z M146,117
		c-0.2-0.7,1.3-0.9,1.3-0.2C147.1,117.3,146.4,117.4,146,117z M147.2,116.1c-0.4-0.3-0.9-0.7-1.3-1c0.1,0.2,0.3,0.7,0.4,1
		c-0.4,0.4-0.8,0.7-1.2,1c0-0.8,0-1.5,0-2.3c0.8,0,1.5,0,2.3,0C147.3,115.2,147.2,115.7,147.2,116.1z M147.6,116.8c0-0.5,0-1,0-1.6
		c0.7,0.6,1.5,1.2,2.3,1.7C149.1,117,148.3,116.9,147.6,116.8z M147.8,114.9c0.5-0.1,1-0.1,1.5-0.2c-0.1,0.5-0.1,0.9-0.2,1.4
		C148.7,115.7,148.3,115.3,147.8,114.9z M150,116.8c-0.3-0.7-0.4-1.5-0.2-2.3c0.4,0.5,0.8,1,1.2,1.5
		C150.7,116.3,150.2,116.7,150,116.8z M151.4,114.7c0.4,0.7-0.5,1-0.8,0.4C150,114.5,151.1,114.3,151.4,114.7z M150.9,116.3
		c0.4-0.4,0.6-0.3,0.7,0.2C151.2,116.9,151,116.8,150.9,116.3z M156.2,115.3c-0.7,0.5-1.6,0.8-2.4,0.6c-0.1,0.1-0.2,0.3-0.3,0.4
		c-0.1-0.1-0.3-0.4-0.5-0.5c-0.2,0.2-0.5,0.7-0.7,1c-0.3-0.7-0.7-1.4-0.4-2.2l-0.2-0.2c0.4,0,0.8,0,1.2-0.1l0.3,0
		c0.5-0.1,0.9-0.2,1.4-0.3c0.1,0,0.4-0.1,0.5-0.1c0.2,0.2,0.4,0.5,0.6,0.8C155.9,113.8,157,115.2,156.2,115.3z M155.8,113.7
		c0.3-0.5,1.2-0.2,1.1,0.3C156.7,114.6,155.8,114.2,155.8,113.7z M158.1,114.2c-0.1,0.7-0.8,0.8-1.3,1.3c0.4-0.6,0.4-1.4,0.3-2.1
		C157.7,112.7,158.5,113.6,158.1,114.2z M158.2,112.3c-3.4,1.1-7,1.7-10.5,1.9c2.2-4.6,2.4-10.4-0.5-14.7c1.6-0.3,3.1-0.8,4.5-1.5
		c1.4,1.6,3.2,2.8,4.2,4.7C157.5,105.7,158.5,109,158.2,112.3z M158.4,114.4c0.1-0.5,1.1-0.4,1,0.1C159.3,115,158.3,115,158.4,114.4
		z M159.3,112.8c0.7-0.3,1.4-0.7,2.1-1.1c0,0.3,0,0.7-0.1,1c-0.8,0.1-0.9,1-1.3,1.6C159.8,113.8,159.6,113.3,159.3,112.8z
		 M161.6,114c-0.1,0.5-1.2,0.4-1-0.2C160.7,113.2,161.8,113.4,161.6,114z M162.7,113.9c-1.2,0.4-1-1.3-1-2c0.5,0.2,0.9,0.4,1.4,0.6
		C162.9,113,162.8,113.4,162.7,113.9z M163.2,113.1c0.1-0.6,1-0.3,0.9,0.2C164,113.9,163.1,113.7,163.2,113.1z M163.7,111.1
		c0.4,0.2,0.8,0.4,1.2,0.6c-0.2,0.4-0.5,0.8-0.7,1.2C163.9,112.3,163.8,111.7,163.7,111.1z M164.6,113.3c0.2-0.5,0.4-1,0.6-1.5
		c0.4,0.3,0.9,0.6,1.3,0.9C165.9,112.8,165.2,113,164.6,113.3z M166.7,112.4c0.2-0.5,0.5-1.1,0.7-1.6c0.5,0.3,1,0.6,1.6,0.8
		C168.2,111.9,167.4,112.1,166.7,112.4z M170,110.8c-0.2,0.7-1.2,0.3-0.9-0.3C169.1,109.6,170.3,110.2,170,110.8z M170.5,110.8
		c-0.2-0.6-0.3-1.2-0.5-1.8c0.7,0.3,1.4,0.6,2.1,0.8C171.5,110.1,171,110.4,170.5,110.8z M171.6,113.9c-0.1-1-0.5-2-0.2-3
		c1.2-0.9,2.4-1.6,3.7-2.3C173.9,110.3,172.6,112,171.6,113.9z M173.9,108.6c-0.4-0.6-0.6-1.3-0.8-2c0.8,0.3,1.7,0.5,2.5,0.7
		C175,107.8,174.4,108.2,173.9,108.6z M175.6,107.3c-0.3-0.7-0.5-1.5-0.7-2.3c0.9,0.3,1.8,0.6,2.6,0.9
		C176.9,106.4,176.2,106.8,175.6,107.3z M179.1,108.8c-0.7,1.3-1,2.7-1.5,4.1c0-1.9,0.1-3.9-1-5.6c1.7-1.2,3.2-2.7,4.7-4.1
		C181.2,105.3,180.1,107.1,179.1,108.8z M183,107.2c-0.1-1.5-0.6-3-1.3-4.4c1.4-1.4,2.5-2.9,3.7-4.4
		C185.8,101.5,183.7,104.2,183,107.2z M189.3,101c-0.9-1.4-2.3-2.3-3.6-3.1c0.8-1.7,1.7-3.5,2.3-5.3C189.9,95,189.2,98.2,189.3,101z
		 M190.8,88.2c1.7,2,2.2,4.6,3.6,6.8c-1.8-1.5-3.9-2.9-6.3-2.8c0.5-2.1,0.4-4.2-0.2-6.3C188.9,86.6,189.9,87.3,190.8,88.2z
		 M192.8,86c-1.7-0.5-3.4-0.8-5.2-0.4c-0.8-1.7-2.1-3.2-3.5-4.5C187.7,81.2,190.1,84.1,192.8,86z M187.7,78.9
		c-1.5,0.3-2.9,0.8-4.1,1.7c-1.6-1.3-3.3-2.4-5.1-3.4C181.7,76.3,184.8,77.8,187.7,78.9z M178.7,78.1c-0.8,1.4-2.3,1.6-3.7,1.5
		c0.2-1,0.7-1.9,1.2-2.7C177.1,77.2,177.9,77.6,178.7,78.1z M175.2,73.5c1.4,0.4,2.9,0.8,4.4,0.9c-1.2,0.4-2.5,0.9-3.5,1.8
		c-2.4-0.9-4.9-1.6-7.1-2.9C171,73,173.2,72.9,175.2,73.5z M173.1,71c-1.7,0.4-3.3,1.7-5.1,1.5c-1.4-0.7-2.4-2.1-3.3-3.4
		C167.7,68.7,170.3,70.7,173.1,71z M171,67.6c-2.2-0.2-4.3,0.6-6.5,1.1c-0.8-1.4-0.8-3.1,0-4.5C167,64.8,168.7,66.8,171,67.6z
		 M170.7,62.3c-1.8,0.2-3.5,0.2-5.3,0.6c0.5-5-2.1-10-6.1-13c2.8-0.5,5.6-0.8,8.5-0.8c2.5,2.7,4.5,6.2,4.1,10
		C171.7,60.2,171.6,61.5,170.7,62.3z M171.6,62.4c0.6-1.2,1-2.5,1-3.8c0.2-3.5-1.7-6.7-3.8-9.4c3.6,0.1,7.2,0.8,10.8,1.3
		c2.4,3.9,1.4,8.7-0.4,12.6C176.6,62.8,174.1,62.4,171.6,62.4z M169.2,48.6c0.8-1.2,1.6-2.3,2.5-3.5c0.4,1.4,1,2.7,1.9,3.8
		C172.1,48.8,170.7,48.7,169.2,48.6z M174.5,45.4c1.1,1.3,1.9,2.7,2.7,4.2c-0.8-0.2-1.7-0.2-2.5-0.5
		C174.2,47.8,174.5,46.6,174.5,45.4z M183.4,45.5c2.5,0.8,5.4,0.4,7.5,2.2c0.8,0.7,2,1.4,3.1,0.6c-0.9-0.3-2-0.5-2.6-1.3
		c-1.1-1.5-1.5-3.4-2.5-5.1c1.6,1,3.3,1.8,5.2,2.2c1.6,0.3,2.9,1.3,4.2,2.1c-0.7,1.8-2.6,2.7-4.4,3.2c-5.1,1.7-10.5,0.6-15.8,0.3
		c-0.9-1.1-0.9-2.5-0.7-3.8c1.2,1,2.3,2.1,3.8,2.5c1.8,0.6,3.7,0.4,5.6,0.4c1.1,0,2,0.8,3.1,0.8C188.4,47.5,185.3,47.5,183.4,45.5z
		 M205.6,44.4c0.8-0.1,1.3-1.1,2.2-1.2c1.2-0.2,2.1,0.7,3.1,1.1c-1.4,0.6-2.6-0.1-3.9-0.6c0.5,0.5,1.2,0.9,1.8,1.3
		c-1.1,0.7-2.4,0.7-3.7,0.9c0.8,0.1,1.5,0.1,2.3,0.1c0.3,0.5,0.5,0.9,0.8,1.4c-1.5,0.4-2.9-0.4-4.2-0.9c0.6,0.4,1.3,0.8,1.9,1.3
		c-1,0.3-2.1,0.1-3.1,0.1c1.1,0.2,2.3,0.5,3.5,0.4c0.9-0.1,1.6-0.6,2.5-0.8c0.2,0.1,0.6,0.3,0.8,0.4c0.1,0.5,0.2,1,0.4,1.5
		c-1.3,0.5-2.5-0.2-3.8-0.5c0.7,0.5,1.5,0.9,2.2,1.3c-1.5,0.4-2.7-0.6-3.9-1.3c0.6,0.6,1.3,1.2,1.8,1.8c0.3,0.6,0,1.2,0.2,1.8
		c0.5,0.9,1.3,1.5,1.9,2.3c-1.2-0.2-2.2-0.9-3.3-1.3c0.8,0.9,2,1.2,3,1.8c0.8,1.2,2.1,2,2.7,3.3c-0.8,0-1.7,0-2.4-0.5
		c-1.3-0.6-1.5-2.1-2.3-3.2c0.2,1.1,0.7,2.1,1.1,3c-1.3-0.1-2.2-1.1-3-2c0.7,1,1.3,2.2,1.3,3.4c-0.9-0.3-1.9-0.6-2.7-1
		c0.6-1.3,1.3-2.7,1.1-4.1c-0.4-4.3-3.4-7.9-7.1-9.8c1.2-0.2,2.5-0.2,3.7-0.4c-2.2-1.5-5.2-1.4-7.1-3.4c1.9,0.1,3.7,0.7,5.6,0.9
		c2.7,0.3,5.2,1.5,7.8,1.8c-1.2,0.9-2.7,0.9-4,1C203.7,44.5,204.6,44.6,205.6,44.4z M213.2,59.2c0.9,0,1.7,0.1,2.6,0.2
		c-0.6,0.4-1.3,0.8-1.9,1.1C213.7,60.2,213.4,59.5,213.2,59.2z M213.6,60.9c-0.8,0-1.7,0.1-2.4-0.5c-0.5-0.5-0.6-1.3-0.6-2
		c0.8,0.4,1.6,0.8,2.4,1C213.2,60,213.4,60.5,213.6,60.9z M210.2,57.6c0.7-0.1,1.4-0.2,2-0.3c0.4,0.6,0.9,1.2,1.3,1.8
		C212.2,59.1,211.1,58.3,210.2,57.6z M210.4,57c-0.9-0.3-1.5-1.2-2.2-1.9c0.8-0.1,1.6-0.3,2.4-0.4c0.5,0.8,1.2,1.4,1.9,2.1
		C211.8,56.9,211.1,57.3,210.4,57z M210.7,54.2c-0.9,0.5-2.1,0.4-2.9-0.4c-0.4-0.4-1.5-1-0.8-1.6c0.7,0.1,1.3,0.5,2.1,0.5
		c0.9-0.3,1.7-0.8,2.6-1.2c0.4-0.1,0.9-0.5,1.3,0c0.6,0.6,1.4,1.1,2.1,1.5c-1.5,0.5-2.9,0-4.2-0.7c0.5,0.5,1.1,1,1.7,1.4
		c-1.2,0.1-2.3-0.5-3.4-1C209.7,53.3,210.2,53.7,210.7,54.2c0.7-0.1,1.4-0.1,2.1-0.2c0.5,0.7,1.2,1.3,1.8,1.9
		c-0.5,0.2-1.1,0.4-1.6,0.4C211.8,56.2,211.2,55.1,210.7,54.2z M215,50.2c-0.7-0.2-1.1-0.9-1.6-1.4c0.3-0.2,0.9-0.5,1.2-0.7
		c1.2,0.2,2,1,2.8,1.9C216.6,50.2,215.8,50.5,215,50.2z M217.3,51.9c-0.7,0.3-1.3,0.8-2,0.6c-1.1-0.1-1.8-0.9-2.5-1.6
		C214.3,50.1,216.2,50.5,217.3,51.9z M216.2,48.6c0.3-0.1,0.9-0.4,1.2-0.5c0.8,0.5,1.7,0.8,2.6,1.2c-0.6,0.2-1.1,0.5-1.7,0.6
		C217.4,49.7,216.8,49,216.2,48.6z M216.8,47c0.7-0.1,1.5-0.3,2.2-0.6c0.6,0.7,1.3,1.2,2,1.8C219.5,49.1,217.9,48.1,216.8,47z
		 M217.1,47.8c-1.7,1-3.6-0.4-4.2-2c0.6,0,1.4-0.3,1.9,0.2C215.7,46.4,216.7,46.8,217.1,47.8z M214.2,48.2c-1.3,0.4-2.3-0.5-3.2-1.3
		c0.6-0.2,1.1-0.5,1.7-0.7C213.1,46.9,213.7,47.6,214.2,48.2z M211.3,46.4c-0.9-0.1-1.6-0.6-2.4-0.9c0.7,0.8,2,1.1,2.4,2.2
		c-1.5,0.2-2.9-0.6-3.9-1.7c1.1-0.8,2.3-1.3,3.6-1.4c0.6,0.4,1.2,0.8,1.8,1.2C212.3,46,211.9,46.2,211.3,46.4z M212.5,48.4
		c0.8,0.3,1.1,1.2,1.5,1.9c-0.9,0.1-1.8,0.4-2.6-0.1c-0.9-0.4-1.4-1.3-1.8-2.1C210.5,48.1,211.6,47.8,212.5,48.4z M212.6,51.1
		c-1.5,0.6-3.1,0.1-4.4-0.7c0.6-0.2,1.2-0.8,1.8-0.7C210.8,50.2,211.6,50.7,212.6,51.1z M210.3,51.9c-0.7,0.2-1.5,0.5-2.2,0.3
		c-0.9-0.2-1.3-1-1.9-1.5c0.6,0,1.3,0,1.9,0C208.9,51,209.6,51.5,210.3,51.9z M213,53.8c0.7-0.1,1.3-0.2,2-0.3
		c0.7,0.6,1.4,1.1,2,1.6C215.5,55.9,213.8,55.2,213,53.8z M216.7,55.6c0.3,0.6,0.5,1.2,0.9,1.7c-0.1-0.8-0.3-1.5-0.5-2.3
		c1.1,0.1,2.1-0.7,3.1-0.2c-0.9,1.2-1.7,2.8-3.3,3.1c-1.2,0-1.9-1-2.3-2C215.3,55.8,216,55.7,216.7,55.6z M217.4,54.6
		c-0.9-0.2-1.6-0.8-2.3-1.3c1-0.4,1.9-1,2.9-1.4c0.7,0.6,0.9,1.6,1.3,2.4C218.7,54.5,218.1,54.6,217.4,54.6z M216.3,50.8
		c0.6-0.3,1.2-0.6,1.8-0.8c0.9,0.2,1.6,1,2.4,1.5C219,52.2,217.5,51.7,216.3,50.8z M218.9,50.1c0.5-0.3,0.9-0.6,1.4-0.9
		c0.6,0.5,1.3,0.9,1.9,1.3C221.2,51.4,219.9,50.9,218.9,50.1z M222,49.9c-0.5-0.3-1-0.6-1.5-1c0.3-0.3,0.5-0.5,0.8-0.8
		c0.3,0,0.8,0.1,1,0.1C222.2,48.8,222.1,49.3,222,49.9z M219.4,46.4c0.9-0.1,1.8-0.2,2.7-0.5c0.1,0.6,0.1,1.3,0.2,1.9
		C221.1,47.9,220.2,47.2,219.4,46.4z M220.5,45.9c-1.4,0.2-2.5-0.9-3.1-2c1.4,0.1,2.8,0.4,4.1,0.7C222.2,45.3,221.2,46,220.5,45.9z
		 M218.8,46.1c-1.4,0.8-2.9,0.2-4.1-0.6c0.8-0.5,1.7-0.8,2.5-1.3C217.6,44.9,218.2,45.5,218.8,46.1z M213.1,43.6
		c0.5,0.6,1.2,1.1,1.8,1.5c-1.3,0.5-2.6,0-3.7-0.7c0.2-0.1,0.6-0.4,0.8-0.6c-1,0-2-0.2-2.8-0.8c1-0.2,2-0.2,3.1-0.1
		c0,0.2,0,0.6,0,0.9c1.4-1,3.1-0.3,4.6,0.1C215.7,45,214.3,44.3,213.1,43.6z M194.3,50.1c1.9-0.6,4-1.5,4.6-3.5
		c1.5,1.5,2.9,3.2,3.7,5.2c0.6,1.6,0.9,3.4,0.1,5c-1.5,3.4-4.8,5.9-8.3,7c0.9-2.1,1.7-4.3,1.9-6.5C196.4,54.7,196,52,194.3,50.1z
		 M202.7,58.4c0,1.3,0.2,2.6,0.7,3.8c-1.1-0.1-2.1-0.6-3-1.2C201.2,60.2,201.9,59.3,202.7,58.4z M203,58.9c0.7,0.4,1.5,0.8,2.3,1
		c-0.1,1,0.1,2.1,0.3,3.1c-0.5-0.2-1-0.4-1.4-0.8C203.1,61.5,203.2,60.1,203,58.9z M185.6,63.9c-2-0.2-4-0.5-5.9-0.8
		c2.1-3.8,2.8-8.7,0.7-12.7c2.5,0.3,5,0.4,7.4,0.5c2.6,3.8,1.4,8.8-1.2,12.2C186.3,63.5,186.1,64.1,185.6,63.9z M186.5,64.1
		c1.2-1.1,1.9-2.5,2.4-3.9c1.2-2.9,1.2-6.4-0.4-9.1c1.4-0.1,2.8-0.2,4.1-0.5c0.4-0.1,0.9-0.3,1.2,0.1c1.3,1.2,1.6,3.1,1.8,4.7
		c0.3,2.3-0.5,4.6-1.3,6.8c-0.3,0.8-0.6,1.8-1.6,1.9C190.8,64.9,188.6,64.4,186.5,64.1z M192.3,64.7c0.9-0.2,1.9-0.4,2.8-0.6
		c0.1,0.2,0.4,0.7,0.5,0.9C194.5,64.9,193.4,64.8,192.3,64.7z M197.1,64.6c0.4-0.4,0.7-0.3,0.8,0.2
		C197.5,65.3,197.2,65.2,197.1,64.6z M197.9,63.4c-0.7,0.4-1.1,1-1.4,1.8c-0.4-0.4-0.8-0.8-1.2-1.2c0.8-0.3,1.7-0.6,2.5-0.9
		c0.7-0.6,1.4-1.2,2.1-1.8c0.1,0.7,0.2,1.4,0.4,2.1c-0.5-0.1-1-0.2-1.5-0.4c0.1,0.2,0.4,0.7,0.5,1c-0.3,0.4-0.6,0.7-0.9,1.1
		C198.2,64.6,198,64,197.9,63.4z M199,64.9c0.4-0.4,0.9-0.8,1.3-1.2c0.4,0.4,0.7,0.8,1,1.3C200.5,64.9,199.7,64.9,199,64.9z
		 M200.2,61.4c0.9,0.4,1.8,0.9,2.8,1.1c-0.3,0.8-0.5,1.6-0.8,2.4C200.9,64.2,200.4,62.8,200.2,61.4z M202.7,64.6
		c0.2-0.8,0.5-1.5,0.8-2.2c0.9,0.6,2,0.9,3.1,1.3C205.3,64.2,204,64.4,202.7,64.6z M205.9,67.4c-0.1-0.9-0.3-1.8-0.7-2.6
		c1.7-0.4,3.3-1,5-1.6C209,64.9,207.4,66,205.9,67.4z M206.8,63.7c-0.9-1-1.2-2.4-1.2-3.8c0.7,0.6,1.4,1.3,2.4,1.5
		c-1.2-0.9-2.3-2.1-2.8-3.6c0.6,0.1,1.2,0.3,1.9,0.4c0.2,1.1,0.6,2.1,0.9,3.2c1,0.2,2,0.5,3,0.7C209.6,62.7,208.2,63.3,206.8,63.7z
		 M209,61.1c-1.1-0.7-1.3-2-1.8-3.1c0.9,0.4,1.9,0.8,2.9,1.1c0.4,0.9,1,1.7,1.7,2.5C210.8,61.6,209.8,61.7,209,61.1z M212.3,66
		c-0.1-1.2-0.5-2.4-1-3.4c1.7-0.7,3.3-1.7,4.8-2.6C215.2,62.2,213.7,64.1,212.3,66z M214.7,58.9c-1.1-0.2-1.7-1.1-2.3-1.9
		c0.6-0.3,1.3-0.5,1.9-0.8c0.6,1.1,1.5,1.8,2.6,2.3C216.1,58.7,215.4,59.2,214.7,58.9z M218.6,64c-0.3-1.6-0.9-3.3-2.2-4.3
		c1.7-1.1,3.1-2.7,4.2-4.3C220.8,58.4,219.3,61.2,218.6,64z M220.3,54.7c-0.6-0.7-1.1-1.5-1.6-2.3c1.1-0.3,2.1-0.8,3.2-1.3
		C221.5,52.3,220.9,53.5,220.3,54.7z M222.8,49.9c0.5,1.4,1.2,2.8,1.3,4.3c0.1,1.5,0.3,3,0.5,4.5c-0.9-1.6-2.1-2.9-3.6-3.9l0-0.3
		C221.8,53.1,222.4,51.5,222.8,49.9z M225.8,44.8c-3.2-0.7-6.4-1-9.6-1.5c-2.5-0.4-5-1.1-7.6-0.6c-2.4,0.5-4.7-0.4-6.9-1
		c-3-0.7-6.1-1.5-9.3-1.2c1.7,1.9,4.3,2.3,6.5,3.2c-2,0.4-4.1,0.3-6.1-0.3c-2.4-0.8-4.6-2.1-6.8-3.4c1,1.1,2.2,2,2.8,3.3
		c0.5,1,0.9,2.1,1.3,3.1c-1.9-0.8-4-0.7-6-1.3c-1.7-0.7-3.3-1.5-4.9-2.3c1,1.1,2.6,1.6,3.4,2.9c0.9,1.3,2.5,1.8,3.8,2.5
		c-1.5,0.1-3.1,0.1-4.6-0.2c-1.6-0.3-2.9-1.4-4.3-2.2c0-1.1,0-2.2-0.3-3.3c-0.3,1.7-0.3,3.5-0.6,5.2c-1-1.6-2.1-3.1-3.2-4.6
		c0,1.7,0.4,3.4,0.1,5.1c-1.3-1.7-1.5-3.9-2-5.9c-0.3,0.9-0.1,2-0.8,2.8c-0.5,0.6-1,1.3-1.4,2c-0.2-0.8-0.4-1.7-0.8-2.5
		c-0.7-1.6-0.9-3.3-1.3-5c-0.2,1.9,0,4,0.9,5.7c0.6,1,0.4,2.2,0.3,3.3c-1.7-0.1-3.4,0-5.1,0.2c-0.4-1.8-0.7-3.8-2-5.3
		c-1.1-1.4-2.9-2.6-2.7-4.6c0.1-1.1,0.6-3,2-2.7c2.3,0.6,4.5,1.7,6.6,2.7c2.3,1,3.6,3.6,6.2,3.8c2.5,0.1,4.6-1.5,6.7-2.6
		c1.4,1.1,3.1,2.5,5,1.7c-1.6-0.5-3.2-0.9-4.5-1.9c0.4-0.4,0.8-0.9,1.1-1.3c-0.6,0.3-1.1,0.6-1.6,0.9c-0.5-0.3-0.9-0.6-1.4-0.9
		c0.4,0.4,0.8,0.8,1.1,1.3c-1.8,0.9-3.5,2.1-5.5,2.5c-1.8,0.3-3.3-0.9-4.5-2c-1.4-1.4-3.3-2-5-2.9c-1.9-0.8-3.9-1.8-6-1.6
		c-0.9-1.4-2.3-2.3-3.2-3.7c-0.7-1.7-0.5-3.5-0.1-5.2c0.9-0.3,2.1-0.3,2.7-1.1c3.4,1,6.9-0.3,10.1-1.3c-0.1,0.6-0.2,1.2-0.3,1.8
		c1.6-1.3,2.4-3.2,3.8-4.7c1.1-1.3,3-0.8,4.5-0.8c-1.5,1.9-3.6,3.2-5.6,4.4c2.4-0.8,4.5-2.4,6-4.4c1.9,0.2,3.8,0.4,5.7,0.8
		c2.2,0.5,3.9,2.2,6,2.9c1.1,0.4,2.3,0.6,3.4,0.5c1.6-0.3,3.3-0.7,5-0.8c2.2-0.1,4.3,0.6,6.5,0.9c-1.4,0.6-2.8,1.4-3.5,2.8
		c1.3-0.1,2.5-0.5,3.8-0.6c2.4-0.2,4.6,1.2,7,1.5c-0.9,0.3-1.9,0.4-2.9,0.8c-1.1,0.4-2,1.4-2.8,2.2c1.7-0.2,3.4-0.7,5.1-0.2
		c2.2,0.6,4.4,1.4,6.7,1.5c-2.1,0.7-4.3,1-6.1,2.5c2.1,0.3,4.2-0.4,6.2,0.3c1.6,0.5,3.2,1.2,4.9,1.7c-2.2,0.4-4.7,0.5-6.2,2.3
		c0.7-0.3,1.3-0.7,2-0.8c1.7,0.1,3.2,0.8,4.8,1.2c-0.9,0.4-1.8,1.2-2.8,0.8c-3.6-0.8-7.2-1.2-10.7-1.9c-2.2-0.4-4.2-1.3-6.1-2.3
		c1.2-0.3,2.4-0.3,3.6-0.7c-2.7-0.3-4.9-2-7.6-2.4c2.3-0.7,4.8-0.8,7.2-0.6c0.7,0.1,1.4,0.1,2.1,0c-0.9-0.4-1.9-0.4-2.8-0.8
		c-3.7-1.4-6.8-4.2-10.6-5.4c-3.1-1.2-6.6-0.9-9.7,0.2c2.5-0.2,4.9-1,7.4-0.5c4.6,0.8,8.2,4.1,12.4,5.9c-3.8-0.3-7.5,1.5-11.2,0.6
		c-2.1-1.6-4.3-2.9-6.7-3.9c2.3,1.5,4.8,2.8,6.8,4.7c-0.1,0.4-0.2,0.8-0.3,1.2c-1.9-0.4-3.9-0.5-5.9-0.5c1.7,0.7,3.5,0.6,5.2,1
		c3.8,0.5,7.7,0.4,11.2,2.2c3.7,2,7.9,2.1,12,2.9c4.2,0.9,8.5,1.5,12.6,2.6c1.1,0.3,2.3,0.6,3.1,1.4
		C229.9,45.6,227.8,45.2,225.8,44.8z M202,36.5c-2.6-0.7-5.3-1-8-1.3c0.1-0.6,0.2-1.1,0.2-1.7c1.1,0.2,2.1,0.3,3.2,0.3
		c2.5,0.2,4.8,1.2,7.1,2.3C203.7,36.3,202.8,36.8,202,36.5z"/>
	<path d="M97.2,61.6C97.2,61.6,97.2,61.6,97.2,61.6C97.2,61.6,97.2,61.6,97.2,61.6C97.2,61.6,97.2,61.6,97.2,61.6z"/>
	<path d="M212,36.5c-1.3,0.3-2.5,0.6-3.7,1.2c1.8-0.3,3.7-0.5,5.4-1.3c-2.6-0.3-4.8-2.2-7.5-2.2C208.1,34.9,210.1,35.6,212,36.5z"/>
	<path d="M175.9,29.3c-1.6-0.2-3.3-0.3-4.9-0.2c1.6,0.2,3.2,0.4,4.7,0.5c2.7,0.3,4.9,2,7.2,3.4c1.3,0.7,2.5,1.7,3.9,1.9
		c-1.2-0.8-2.6-1.4-3.8-2.2C180.8,31.3,178.6,29.6,175.9,29.3z"/>
	<path d="M186.1,35.8c-2-0.5-4-1.5-6.1-1.6C182,35,184,35.6,186.1,35.8z"/>
	<path d="M173.2,31.3c1.7,1.1,3.5,2,5,3.4c1.6,1.1,3.1,2.6,5.1,2.8c-1.1-0.7-2.4-1.1-3.4-1.9C177.8,34,175.8,32.1,173.2,31.3z"/>
	<path d="M177.3,25.4c-2.9,0.3-5.9,0.5-8.5,1.9c0.4,0,0.9,0,1.3-0.2C172.4,26.3,174.8,25.8,177.3,25.4z"/>
	<path d="M173.8,33.9c-0.7-0.9-1.5-1.8-2.7-2c-0.3-0.1-0.7-0.1-1-0.2c0.1,0.3,0.4,0.8,0.5,1.1c0.3,0.7,0.6,1.4,1.3,1.8
		c0.8,0.4,1.8,0.4,2.6,0.7c0.8,0.5,1.4,1.2,2.3,1.6C175.8,35.8,174.6,35,173.8,33.9z M171.9,34.2c-0.7-0.5-1-1.4-1.4-2.1
		c1.6,0.2,2.6,1.4,3.4,2.6C173.3,34.6,172.5,34.6,171.9,34.2z"/>
	<path d="M169.4,38.1c1.8,1.4,3.8,3.7,6.3,2.9c-0.9-0.2-1.9-0.1-2.8-0.7C171.7,39.6,170.6,38.8,169.4,38.1z"/>
	<path d="M158,31.8c0.4,0.9,0.9,1.8,2,1.7C159.5,32.8,158.8,32.2,158,31.8z"/>
	<path d="M66.2,117.2c-0.7,0.8-1,1.8-1.8,2.6c-0.7,0.8-1,1.9-1.8,2.5c-0.9,0.8-1,2.2-2.3,2.6c-1.6,1.3-3.5,2-5,3.3
		c1.3,0,2.8,0.4,3.9-0.5c1.9-1.3,3.9-2.8,5.2-4.8c1.2-0.8,1.9-2.1,2.8-3.1c1-1.1,1-2.7,2.2-3.6c-0.8,0.5-1.6,1-2.4,1.5
		c0.1-0.9,0.3-1.7,0.3-2.6C66.9,115.8,66.7,116.7,66.2,117.2z M58.8,127.7c-0.8,0.5-1.8,0.4-2.7,0.3c0.7-0.6,1.4-1.1,2.2-1.5
		c-0.1,0.4-0.1,0.8-0.2,1.1c0.9-0.9,1.4-2.2,2.7-2.7c-0.2,0.4-0.4,0.8-0.6,1.2c0.6-0.4,1.2-0.7,1.8-0.9
		C61.3,126.3,59.9,126.9,58.8,127.7z M61.2,125.1c0.4-1,0.8-2.1,1.7-2.9c-0.1,0.6-0.3,1.3-0.6,1.9c0.4-0.3,1.2-0.8,1.6-1
		C63.6,124.3,62.4,124.8,61.2,125.1z M63,123.1c0.4-1.2,0.7-2.5,1.7-3.4c-0.1,0.8-0.4,1.4-0.7,2.1c0.7-0.4,1.4-0.8,2.2-1.2
		C65.6,122,64.3,122.7,63,123.1z M68.3,117.3c-0.5,1.8-1.7,3.3-3.5,3.8c0.4-1.4,0.7-2.9,1.8-3.9c-0.1,0.6-0.1,1.1-0.2,1.7
		C66.9,118.2,67.6,117.7,68.3,117.3z"/>
	<path d="M46.2,126.4c-4.6-1.1-9.7-0.2-13.3,2.9c-1.8,1.5-3.1,3.6-4.5,5.5c-2.2,3.1-5.2,5.3-8,7.7c2.2-1.4,4.2-3,6.1-4.8
		c2.7-2.6,4.1-6.3,7.2-8.5c2.1-1.4,4.5-2.6,7.1-2.7c2.3-0.3,4.5,0.1,6.7,0.6C47,126.7,46.7,126.5,46.2,126.4z"/>
	<path d="M16.7,137.8c2.7-1,5.4-2.9,6.7-5.5c0.1-0.5,0.1-1,0.2-1.5c6.2-0.4,10.2-6.3,16.3-6.8c1.7-0.3,3.3,0.5,4.8,1.1
		c-1-1.6-3.1-1.8-4.9-1.7c-4.1,0.4-7.4,3.1-10.9,5.1c-2.2,1.1-4.7,2.1-7.2,1.5c-1.8-0.3-3.4-1.2-4.9-2.2c1.6,1.8,3.9,2.9,6.4,3.1
		c-0.1,2.4-2.3,3.9-4.1,5.3c-2,1.5-4.6,1.9-7.1,1.5c-2-0.2-4-0.7-6-1.3C9.5,137.7,13.2,138.7,16.7,137.8z"/>
	<path d="M32.3,136.3c-2.2,2.3-4.6,4.4-7.3,6.1c2.5-1.2,4.7-3,6.7-5c2.4-2.4,4.1-5.5,7-7.3c1.9-1.3,4.2-1.6,6.5-2.1
		c-2-0.4-4,0.5-5.8,1.3C36.3,130.8,34.5,133.8,32.3,136.3z"/>
</g>
</svg>
