<?xml version="1.0" encoding="utf-8"?>
<!-- Generator: Adobe Illustrator 26.0.3, SVG Export Plug-In . SVG Version: 6.00 Build 0)  -->
<svg version="1.1" id="Слой_42" xmlns="http://www.w3.org/2000/svg" xmlns:xlink="http://www.w3.org/1999/xlink" x="0px"
	 y="0px" viewBox="0 0 239.5 150.2" style="enable-background:new 0 0 239.5 150.2;" xml:space="preserve">
<g>
	<path d="M222.5,22.3c1.6-1.4,3.2-3.1,3.3-5.3c0.2-1.8-0.6-3.6-0.9-5.3c-0.1-1.5-0.2-3,0.3-4.4c0.2,0.1,0.5,0.2,0.6,0.3
		c0.2-1.1,1-1.8,1.6-2.7c-0.9,0-1.3,0.8-1.9,1.3c-1.4,1.5-1.2,3.7-1,5.6c0,0.7,0.6,1.4,0.3,2c0.1,0,0.2,0.1,0.2,0.1
		c0.5,1.5,0.6,3.2-0.1,4.6c-0.5,1.2-1.5,2.1-2.3,3.1c0-0.6,0.1-1.3,0.2-1.9c0.2-0.9,1-1.6,1.4-2.4c-1-0.1-1.6,1-2.2,1.5
		c0.1,0.2,0.1,0.5,0.2,0.7l0.4-0.6c-0.4,1-0.6,2.1-0.6,3.3C222.2,22.3,222.4,22.3,222.5,22.3z"/>
	<path d="M228.5,17.2c-0.5,1.4-0.9,2.8-1.4,4.2c-0.2,0.4,0,0.8,0.2,1.2c0.4-1.1,0.5-2.2,1-3.3c0.3-0.9,0.8-1.8,0.8-2.8
		c0.2-1.5-0.3-2.9-0.5-4.3c-0.1-0.9,0.2-1.9,0.4-2.7c0.1-0.1,0.3-0.2,0.4-0.3c0-0.1,0-0.4,0-0.5c-0.1,0-0.3,0-0.4,0
		c-0.8,0.8-1.1,1.8-1.5,2.8c0.2,0,0.4,0,0.6,0C228.1,13.5,229,15.3,228.5,17.2z"/>
	<path d="M227.2,17.9c0.6-0.8,0.9-1.8,1-2.9c-0.9,0.4-0.6-0.9-0.9-1.4c-0.9-1.9-1.8-4-1.3-6.1c-0.2,0.1-0.4,0.2-0.6,0.3
		c-0.1,1.5,0.2,3.1,0.8,4.5c0.5,1.2,1.3,2.4,1.1,3.7C227.3,16.7,226.8,17.4,227.2,17.9z"/>
	<path d="M228.2,15.1c-0.1-1.1-0.4-2.2-0.2-3.3c-0.2,0.1-0.4,0.2-0.6,0.4C227.6,13.2,227.3,14.4,228.2,15.1z"/>
	<path d="M228.3,24.7c0.6-1,1-2,1.2-3.1c0.3-1.6,1.8-2.6,3.2-2.9c0.5-0.5-0.3-0.6-0.7-0.4c-2.3,0.6-3.6,2.9-4.7,4.9
		c0-0.4-0.3-0.6-0.7-0.6c0.5,0.7-0.3,1.6,0.3,2.3c0.7-1.1,1.2-2.3,1.9-3.4c0,0.5,0,1-0.2,1.5c-0.6,1.4-1.5,2.7-2.6,3.8
		c-0.9-0.8-1.8-1.5-3-1.7c-1.8-0.2-3.6,0.5-4.7,1.9c-0.6,0.6-0.8,1.5-1.3,2.2c-1.9,0.6-3.9,0.9-5.5,2.1c-0.6,0.4-0.8,1.1-0.8,1.8
		c0.6,0.6,1.5,0.8,2.3,0.9c1.5,0.1,2.9,0.2,4.4,0.1c0.4,0.8,1,1.6,1.8,2.2c-1.8,1.4-4.1,1.7-6.2,2.1c-1.4,0.2-2.8,0.8-4.1,1.5
		c-0.9,0.5-1.6,1.2-2,2.2c0.5,0,0.9-0.1,1.3-0.2c-1.5,1.4-2.7,3.1-3.1,5.1c-0.4,0-0.7,0-1.1,0.1c0.3-1,0.6-2,1.2-2.8
		c-0.1,0-0.4-0.1-0.5-0.1c-0.6,0.7-1.3,1.4-1.9,2.2c-0.2-0.5-0.3-1-0.5-1.4c-0.6,0.1-0.5,1.2-0.7,1.7c-0.8-0.2-1.5-0.5-2.3-0.8
		c0,0.1,0,0.4,0,0.5c0.5,0.4,0.9,0.8,1.4,1.2c-0.5,0.2-1.1,0.5-1.5,0.9c0.6,0.2,1.2,0.2,1.8,0.2c-0.3,0.9-0.7,1.7-0.9,2.6
		c0.1,0.1,0.2,0.2,0.2,0.3c0.7-0.5,1.2-1.2,1.8-1.8c0.1,0.5,0.2,1,0.6,1.4c0.2-0.6,0.4-1.3,0.6-1.9c0.4,0.1,0.8,0.1,1.2,0.2
		c-0.3,1.7-0.6,3.4-1.4,4.9c0.3,0,0.7-0.1,1-0.1c-1,1-1.9,2.2-2.6,3.5c-1.2,2.1-3.3,3.7-5.7,4.1c-2.4,0.5-4.9-0.2-7.3-0.1
		c-0.7,0-1.4,0.2-1.8,0.8c1,0.3,1.8,0.8,2.6,1.4l-0.1,0.1c-2-0.2-3.7-1.6-5.7-1.6c-1.2-0.1-2.2,0.7-3.2,1.1c0.5-1.2-0.1-2.5-0.1-3.7
		c1.2-0.5,1.8-1.6,2.5-2.6c1.3-1.6,3.5-1.5,5.2-2.3c0,3.2,3,5.9,6.1,5.6c2.7-0.1,5.1-2.3,5.4-5c0.5-3.4-2.4-6.8-5.8-6.6
		c0.5-0.5,0.9-1.1,1.5-1.5c0.7-0.6,1.6-1,1.9-1.9c-0.5,0.1-1.1,0.3-1.6,0.4c1.3-1.5,3.2-2,4.6-3.4c1.4-1.2,2.2-2.9,3.4-4.3
		c1.1-1.4,2.6-2.3,3.7-3.6c-0.1,0-0.4-0.1-0.5-0.1c-0.9,0.7-2,1.3-3.1,1.5c0.6-1.1,1.2-2.3,2.3-3c2.3-1.5,5.1-1.9,7.3-3.5
		c-0.1-0.2-0.3-0.5-0.4-0.7c-1.5,0.9-3.3,1.1-5,1.4c-2.3,0.4-4.5,1.4-6,3.1c-1.4,1.6-2.4,3.5-3.9,5c1.5-2.3,2-5.1,1.7-7.8
		c0.6-2.5,3.1-3.9,4.5-6c-0.4,0.8-0.9,1.5-1.1,2.3c1.2-0.7,2.1-1.8,3.4-2.2c0.2,0.2,0.4,0.4,0.6,0.6c-0.6,0.2-1.4,0.3-1.9,0.8
		c0.5,0.2,0.9,0.4,1.4,0.6c-0.4,0.7-0.8,1.4-1.2,2.2c0.9-0.2,1.6-0.9,2.3-1.5c0.1,0.6,0.2,1.2,0.5,1.7c0.3-0.7,0.6-1.3,0.8-2
		c0.8,0.3,1.5,0.7,2.4,0.7c-0.4-0.7-0.9-1.3-1.5-1.8c0.5-0.2,0.9-0.5,1.3-0.8c-0.4-0.1-0.7-0.2-1.1-0.4c0.1-0.3,0.3-0.6,0.5-0.8
		c1.9-0.1,3.9,0.1,5.7-0.7c1.1-0.4,1.9-1.2,2.6-2.1c-0.6,0.9-0.9,2-1.9,2.5c0,0.2,0.1,0.4,0.1,0.6c1.5-0.9,1.9-2.7,3-4.1
		c0.4-0.7,1.3-0.8,1.9-1.2c-0.7-0.4-1.4,0-2,0.4c-1.4,0.8-2,2.5-3.4,3.2c-2,1-4.2,0.7-6.4,0.9c-2.1,0.1-4.1,0.7-5.8,1.9
		c0.8-0.8,0.9-2,1.1-3c-0.1-0.1-0.3-0.3-0.3-0.3c-0.6,1.3-1.3,2.6-2.4,3.7c-1,1.1-2.3,2-2.9,3.4l-0.2-0.1c0.2-0.5,0.4-1.1,0.6-1.6
		c-0.6,0-0.4,1-1.1,0.8c-0.1,0-0.2,0.1-0.3,0.1c-0.2,0.4-0.4,0.8-0.5,1.1c-0.3-1.3-0.5-2.9,0.5-4.1c1.7-1.8,4.2-2.5,6-4.1
		c0.5-0.5,1.2-0.9,1.2-1.7c-0.4,0-0.6,0.4-0.9,0.7c-2,2.1-5,2.8-6.9,5c-0.8,1.1-0.6,2.6-0.5,3.9c0.1,0.6,0.1,1.3,0.4,1.8
		c0.3-0.7,0.5-1.4,1-2.1l0.2,0.1c-0.3,1.3,0.1,2.7-0.1,4.1c-0.1,2-0.8,3.9-1.9,5.6c-0.4,0.6-1,1-1.3,1.6c1-0.2,1.7-1,2.5-1.6
		c1.7-1.4,2.5-3.5,4-5c1.5-1.5,3.5-2.4,5.5-2.7c1.1-0.1,2.2-0.4,3.4-0.6c-1.8,1-4,1.4-5.7,2.6c-1,0.7-1.7,1.9-2.2,3
		c0,0.3-0.2,0.8,0.2,0.9c0.5-0.1,1-0.3,1.4-0.5c-1.4,1.2-2.5,2.6-3.5,4.2c-1,1.5-2.4,2.7-4,3.6c-1.1,0.6-2.2,1.4-2.8,2.6
		c0.4,0,0.8,0,1.2,0c-1.2,0.7-2,1.8-3,2.8c-0.1,0.3-0.1,0.7-0.3,1c-1.2,2.1-3.1,3.9-5.4,4.6c-1.4,0.5-2.9,0.6-4.1,1.5
		c-0.9,0.6-1.3,1.8-2.1,2.5c-2.1,1.5-4.9,1-7.2,2.2c-0.3,0.6-0.4,1.3-0.8,1.8c-0.9,0.4-1.9,0.4-2.9,0.6c-0.2-1.5,0.4-2.9,0.4-4.3
		c0.1-1.9-1-3.4-1.6-5.2c0.3-0.4,0.5-0.7,0.8-1.1c0.2,0.4,0.4,0.8,0.8,1.2c0.4-0.5,0.2-1.2,0.3-1.8c0.7,0.4,1.4,0.9,2.2,1.2
		c0.1-0.9-0.8-1.5-1.2-2.2c0.6-0.3,1.3-0.6,1.5-1.2c-0.4-0.4-1.1-0.1-1.6-0.1c0.3-0.7,0.7-1.4,1-2.1c0.1-0.2,0.1-0.6-0.2-0.6
		c-0.7,0.6-1.3,1.4-2,2.1c-0.2-0.6-0.4-1.1-0.7-1.6c-0.2,0.5-0.4,1.1-0.4,1.7c-0.3-0.3-0.6-0.5-1-0.8c-0.1,0.5,0,1.1,0.1,1.6
		c-0.5-0.5-0.2-1.2-0.2-1.8c0.3-2.8,2-5.2,3.8-7.1c0.8-1,1.8-2.1,1.9-3.4c0.2-0.9,0-1.9,0.2-2.8c0.2,0.9,0.2,1.9,0.1,2.8
		c-0.3,2.1-2.4,3.4-2.7,5.5c0.7-0.1,0.9-0.9,1.4-1.3c1.7-1.5,3.9-1.9,5.8-3.2c1.4-1.1,2.5-2.6,2.8-4.3c0.3-1.4,1.1-2.5,2-3.6
		c0.1,0,0.4-0.1,0.5-0.2c0.1,0.1,0.2,0.3,0.3,0.4c0.9-0.7,2-1.1,2.7-2c0.3-0.3,0.2-0.7,0-1c-0.9,1.9-3.3,1.7-4.5,3.3
		c-0.6,0.9-1.2,1.8-1.4,2.8c-0.5,2.2-2,4.1-4,4.9c-1.4,0.8-2.9,1.2-4.1,2.2c0.9-1.3,1.8-2.8,1.9-4.4c0-1.1-0.2-2.2-0.1-3.3
		c0.3-0.3,0.7-0.7,0.3-1.1c-0.7,0.6-1.2,1.4-1.3,2.3c-0.1,0.9,0.1,1.8-0.1,2.7c-0.3,1-0.8,1.9-1.4,2.7c-0.1,0-0.2-0.1-0.2-0.1
		c-0.7,1.3-1.9,2.2-2.6,3.5c-1.8,2.8-2,6.4-1,9.5c0.4,1.5,1.2,2.9,1.6,4.4c0.4,1.9-0.8,3.6-0.3,5.5c-1.1,0.3-2.2,0.9-2.8,1.9
		c-0.6,1.1-0.2,2.4-0.6,3.6c-0.4,0.3-0.7,0.7-0.8,1.3c0.1,0.8-0.6,1.4-0.3,2.2c0.3,0.6,0.6,1.2,1,1.8c0.5,0.4,1,0.9,1.4,1.4
		c0.1,0.5,0.2,1,0.3,1.5c-1.4,0.8-2.8,1.6-4.4,2.2c0,0-0.1-0.1-0.2-0.1c-0.2-1,0.1-2-0.2-2.9c-0.3-0.8-0.4-1.7-0.5-2.6
		c-0.4-1-1.2,0.5-0.9,1c0.2-0.2,0.5-0.4,0.7-0.6c-0.3,1.2,0.5,2.2,0.4,3.3c0,0.7,0,1.4,0.1,2.1c-0.4,0.1-0.8,0.1-1.2,0.3
		c0.5,0.2,1,0.2,1.6,0.1c1.7-0.5,3.3-1.3,4.8-2.3c0.6,1,1.2,2,1.9,2.9c-1.5,0.5-3.1,1.1-4.7,1.2c-1,0.1-2,0-3,0
		c0.2-0.1,0.5-0.4,0.7-0.6c-1,0-2.2,0.2-3-0.5c-0.6-0.5-1.3-0.9-2-1.2c-0.7-0.8-1.4-1.6-2.3-2.1c1.5,0.2,2.6,1.7,4.2,1.7
		c0.5-0.3-0.2-0.4-0.3-0.5c-0.4-0.8-0.6-1.7-0.8-2.6c-0.2-0.9-0.8-1.6-1.2-2.4c0.6,0.4,1.2,1,1.5,1.7c0.4,0.8,0.6,1.8,1.4,2.4
		c0.1-0.9-0.2-1.7-0.1-2.5c0-1-0.5-1.9-0.8-2.8l0.2,0.1c0.4,0.8,0.8,1.6,1,2.4c0.2,0.9,0.2,1.9,0.7,2.6c0.3-1.3-0.4-2.6-0.5-3.9
		c0.3,0.4,0.2,1.1,0.7,1.3l0.1-0.2c0.1-1.5-1.4-2.5-2.5-3.2c-0.1,0.3-0.2,0.5-0.2,0.8c0.3,1.1,0.9,2.2,0.7,3.4
		c-0.4-0.8-0.8-1.6-1.5-2.2c-0.4-0.3-0.7-0.8-1.2-0.7c-0.3,0.8,0.3,1.4,0.7,2c0.8,1.1,0.8,2.4,1.2,3.6c-1.2-0.3-2.1-1.7-3.4-1.4
		c-0.7,0.4,0.3,0.9,0.6,1.2c0.9,0.5,1.2,1.6,2.2,2c1,0.5,1.7,1.3,2.7,1.7c0.1,0,0.2-0.1,0.3-0.1c0.8,0.4,1.7,0.5,2.6,0.7
		c0.1,0,0.2-0.1,0.2-0.1c2.2,0.1,4.3-0.7,6.3-1.3c0.2,0.1,0.5,0.4,0.7,0.5c0-0.2,0-0.5-0.1-0.7c-0.5-0.4-0.9-0.9-1.3-1.4
		c-0.6-1-1.4-2-1.4-3.2c0.9-0.3,1.5-1.1,2.2-1.8c0.8,1,1.7,2.1,2.9,2.6c-0.2,0.1-0.5,0.2-0.7,0.3c0.9,1.4,2.4,2.2,3.9,2.7
		c0.1-0.1,0.3-0.3,0.4-0.4c-1.4-0.5-2.6-1.2-3.7-2.2c0.8-0.4,1.6,0.2,2.5,0.1c1.9-0.1,3.6-0.9,5.3-1.6c-0.9,1.6-1.3,3.5-0.6,5.3
		c0.4,1,0.7,2.3,1.8,2.8c-0.1-0.6-0.5-1.2-0.8-1.7c0.8,0.3,1.4,0.8,1.9,1.4c-1.4,0.6-2.3,1.8-3.3,2.9c-0.9,1.1-2,1.9-3.3,2.4
		c-1.6-1.5-3.3-3.1-3.9-5.3c0.9,0.5,1,1.7,1.8,2.3c0.1-1.3-1.2-2.1-1.6-3.3c1,0.9,1.5,2.3,2.6,3.2c-0.2-1.3-1.2-2.2-1.9-3.2
		c-0.9-0.9-1.7-2-2.8-2.6c0,0.1,0.1,0.4,0.1,0.5c0.8,0.7,1.8,1.4,2.2,2.4c-0.5-0.5-1-1-1.5-1.4c-0.2,0.1-0.3,0.3-0.5,0.4
		c0.6,0.3,1,0.8,1.5,1.2c-0.3,0.7-0.7,1.4-0.9,2.2c0.1,0.4,0.4,0.8,0.1,1.2c-1.5,2.4-4,3.8-6.5,4.9c-2.9,1.4-6.2,1.4-9.4,1.6
		c-3.4,0.2-6.9-0.2-10.2,0.6c-4.2,0.9-7.9,3.5-10.4,6.9c-2.2,2.9-3.5,6.3-3.9,9.9c-0.2,2.7,0.1,5.5,1.5,7.9c0.5,1,1.4,2,0.9,3.1
		c-1,1.2-2.6,1.9-4.1,1.7c-1.9-0.2-3.9-0.7-5.6-1.6c-1.4-0.8-2.7-1.7-4-2.4c-1.8-0.8-4-1.2-5.7-0.2c-1.9,0.8-2.9,2.8-3.3,4.7
		c0.9,0.2,1.3-1,2.2-0.9c2.7,0.4,4,3,5.9,4.6c2.3,2.4,5.8,3.4,9,3c1-0.1,2-0.5,3.1-0.7c-0.7,0.4-1.4,0.9-2.2,1.3
		c-2.8,1.3-6,1.6-8.8,3c-4.6,2.2-8.1,6.7-9.1,11.7c0.2,0,0.5,0.1,0.7,0.1c0.7-0.8,1.4-1.8,2.5-2.1c1.9-0.5,3.8,0.2,5.6,0.3
		c3.5,0.4,7.1-0.2,10-2.3c3.7-2.6,6.5-6.7,7-11.3c0.3-2.4-0.2-4.8-0.6-7.2c-0.8-2.8-1-5.7-0.9-8.6c0.2-3.3,1.7-6.4,4.2-8.6
		c1.9-2,4.4-3.4,7.1-4.1c2.1-0.5,4.2-0.3,6.3-0.1c3.1,0.3,5.8,1.8,8.8,2.6c4.7,1.5,9.8,1.7,14.6,0.6c4.3-0.8,8.4-3.5,10.2-7.6
		c1.5-3.3,1.3-7.2,0.1-10.5c-0.3-1.1-1.2-1.9-1.2-3.1c-0.4-0.7-1.1-0.6-1.8-0.6c-0.6-0.6-1.2-1.2-2-1.5c-0.4-0.2-0.9-0.3-1-0.9
		c-0.8-2.1-0.1-4.4,1.2-6c-2.2,0.3-4.3,1-6.5,0.6c-1.4-0.2-2.9-0.6-4.1-1.4c0.4,0.2,0.8,0.3,1.1,0.5c0.1-0.1,0.3-0.4,0.4-0.5
		c-0.6-0.2-1.1-0.3-1.7-0.5c2.6-0.4,5.2-0.1,7.7,0.6c0.4,0.1,0.8,0.1,1.1-0.1c-2.9-1.2-6.1-1.2-9.2-1.1c1.9-1,4.3-1,6.3-0.3
		c-0.1-0.2-0.2-0.4-0.3-0.6c-1.6-0.5-3.3-0.4-4.9,0c1.5-1.1,3.6-1.3,5.4-0.7c1,0.5,1.9,1.2,2.8,1.9c-1-0.3-1.9-0.7-2.9-1.1
		c0.8,1.3,2.6,1.2,3.8,2c-0.3,0.2-0.7,0.2-1.1,0.2c-0.1,0.1-0.2,0.2-0.3,0.2c-2.2-0.1-4.5,0.1-6.6-0.5c0.1,0.2,0.2,0.4,0.3,0.6
		c2.4,0.5,5,0.5,7.4,0.1c0.4-0.1,0.7-0.4,1.1-0.4c0.2,0.1,0.6,0.2,0.5-0.2c-0.5-1-1.1-1.9-1.5-3c-0.8-0.4-1.2-1.3-2-1.8
		c0,0.1,0,0.4,0,0.6c0.2,0.2,0.3,0.4,0.5,0.6c-0.4-0.1-0.7-0.1-1,0.1c0.7,0.3,1.4,0.5,2.1,0.8c0.4,0.7,0.8,1.4,1.1,2.2
		c-1.5-0.8-2.6-2.2-4.2-2.8c-2-1-4.4-0.3-6.2,0.9c0.5-0.8,0.9-1.6,1.8-2.1c0.5-0.3,1.1-0.5,1.3-1c-1.9,0.2-3.2,2-3.7,3.7
		c-1-1.2-1.6-2.7-2.8-3.9c0.8-0.5,1.2-1.4,1.5-2.3c-1,0.4-1.1,1.6-1.9,2.3c-0.3-1.2-0.1-2.7,0.6-3.7c1.4-1.4,3.5-1.1,5.3-1.7
		c-0.1,0.2-0.2,0.7-0.3,1c0.9-0.6,0.9-1.9,1.3-2.7c0.4,0.9,0.5,1.8,1.1,2.6c-0.2-0.1-0.5-0.3-0.7-0.4c-0.2,0.7-0.5,1.4-0.7,2.1
		c0.5,0,0.5-0.5,0.7-0.8c0.1,0,0.3,0.1,0.3,0.1l-0.5-0.2c0.1-0.4,0.5-0.6,0.9-0.7c0.5,1.4,2,0.7,2.9,0.2c-0.3,0.4-0.7,0.8-1,1.3
		c0.8,0.1,1.1-0.9,1.7-1.3c0.1,0.4,0.3,0.9,0.6,1.3c-0.1,0.1-0.2,0.3-0.2,0.4c1.3,0,2.6-0.2,3.7,0.6c1.7,1.5,2.8,3.6,3.8,5.7
		c1.6,2.8,2.5,5.9,4.5,8.5c-0.4,0.5-1.1,0.7-1.6,1.1c0.8,0.2,1.4-0.4,2-0.9c1.3,0.6,2.7,1,3.8,1.9c1.6,1.2,2.8,2.9,4.5,3.9
		c1.5,0.9,3.3,0.3,4.9-0.1c0.9-0.4,1.9-0.2,2.8-0.2c1.3-0.1,2.4,0.7,3.6,1.2c-0.8,0-1.5-0.5-2.2-0.3c-0.6,0.1-1.2,0.1-1.8,0
		c-0.5,0-1.1-0.2-1.4,0.3c0.6,0.1,1.1,0.2,1.7,0.3c0.5,0.3,1,0.7,1.5,1c0.1,0.5,0.3,1,0.3,1.6c-0.4-0.3-0.6-0.8-0.8-1.2
		c-0.7-0.5-1.3-1-2.2-1.1c-0.8-0.1-1.5-1.1-2.3-0.5c0.7,0.3,1.4,0.5,1.9,1.1c0.3,0.5,0.9,0.7,1.4,0.6c-0.2-0.1-0.5-0.4-0.7-0.6
		c0.4,0.1,0.8,0.3,1.1,0.7c-0.9,0.2-0.1,0.9,0.3,1.2c-1-0.3-1.8-0.8-2.6-1.5c-1.1,0.6-2.3,0-3.2-0.6c-0.1,0.1-0.3,0.3-0.3,0.3
		c0.7,0.5,1.5,0.8,2.4,1c0.4-0.1,0.8-0.2,1.2-0.2c0.5,0.9,0.2,1.9-0.3,2.7c0.1-0.8,0.3-1.6-0.1-2.3c-1.6,0.3-3.3,0-4.6-1
		c-2.1-1.6-4.5-2.7-7-3.5c-1.2-0.3-2.5-0.8-3.6-1.4c-0.9-0.5-1.4-1.5-2-2.3c-0.9-1.3-1.9-2.6-2.8-4c-0.9-1.3-2.1-2.5-2.7-4.1
		c-0.1,0.3-0.2,0.6-0.3,0.8c2.2,3,4.4,6,6.5,9.1c1.3,1.2,3.1,1.6,4.7,2.2c1.8,0.8,3.7,1.4,5.4,2.5c1.3,0.8,2.4,2,4,2.1
		c0.7,0.2,1.6-0.1,2.2,0.4c-0.3,0.6-0.6,1.2-0.3,1.9c0.1,0,0.4,0,0.6,0c0.7-0.8,1-1.7,1-2.7c0.3,0.8-0.3,2.1,0.7,2.5
		c0.1-0.3,0.4-0.8,0.6-1c-0.2,0.1-0.5,0.2-0.7,0.2c0-0.4,0-0.8-0.1-1.2c0.1,0.1,0.4,0.2,0.5,0.2l-0.4,0.4c0.1,0.1,0.4,0.3,0.5,0.4
		c0.1-0.2,0.3-0.5,0.3-0.7c0.4-0.1,0.7-0.2,0.8-0.6c0.2,0.4,0.9,0.7,1.1,0.1c-0.1-1.1-0.3-2.3-1.5-2.7c1-0.4,2,0.2,3,0.3
		c0.2-0.3,0.4-0.6,0.4-1c-1-0.3-1.9-0.9-2.9-1.2c-1.1-0.1-2.1-0.1-3.2-0.1c-1.6,0.4-3.2,1.1-4.9,0.7c-2.3-1-3.6-3.4-5.7-4.6
		c-1.3-0.8-2.8-1.1-3.9-2.1c-0.9-1.5-1.7-3.1-2.5-4.7c-0.7-1.7-1.7-3.3-2.4-4.9c-0.4-1-1-1.8-1.7-2.7c0.9-0.1,1.9,0,2.8,0.2
		c3,1,4.7,4.2,7.8,4.8c0.3,0.1,0.8-0.1,0.5-0.4c-1.3-0.2-2.5-0.9-3.5-1.7c0-0.1,0.1-0.2,0.1-0.3c0.9,0.8,2,1.3,3.2,1.6
		c0-0.1,0.1-0.2,0.1-0.3c-0.6-0.4-1.3-0.6-2-0.9c0.9,0,1.7,0.2,2.6,0.3c3.1,0.4,6.3-0.8,8.7-2.9c2.2-1.7,3.6-4.5,6.4-5.5
		c0.7-0.3,1.5-0.4,2.2,0c0.2-0.1,0.3-0.3,0.5-0.4c-0.3-0.2-0.6-0.5-1-0.5c-1.7-0.2-3.4,0.4-4.9,1.2c0.9-1,1.8-2.1,2.9-2.8
		c-0.2-0.1-0.6-0.3-0.8-0.4c-0.1,0.4-0.2,0.8-0.6,1c-1,0.9-1.9,1.9-2.6,3.1c0.1,0,0.3,0.1,0.4,0.1c1.1-0.5,2-1.2,3.1-1.4
		c-2,1-3.3,2.9-4.9,4.4c-0.9,0.9-1.9,1.7-3,2.4c-0.3-1.1-1.2-1.8-1.8-2.6c0.7-0.5,1.7-0.9,2.1-1.8c-0.7,0.1-1.4,0.2-2.1,0.3
		c0.6-1,1.2-2.1,1.4-3.3c-1.2,0.4-1.8,1.8-2.8,2.5c-0.3-0.8-0.3-1.8-1-2.3c-0.3,0.5,0,1,0.4,1.3c0,0.5,0,1.5,0.6,1.7
		c0.8-0.5,1.3-1.3,2-1.9c-0.3,0.9-0.7,1.7-1.2,2.6c0.5,0,1.1,0,1.6-0.1c-0.6,0.3-1.2,0.7-1.7,1.1c0.5,0.4,1,0.9,1.3,1.5
		c-0.7-0.3-1.3-0.6-2-1c-0.2,0.4-0.3,0.8-0.5,1.3c-0.2-0.3,0-0.9-0.4-1c-0.8,0.6-1.5,1.4-2.1,2.2c0-0.4,0-0.7,0-1.1
		c-0.3,0.6-0.7,1.2-1,1.8c-1.2,0.1-2.1-0.9-3.3-0.8l0.4,0.5c-0.2,0-0.3,0.1-0.5,0.1c-1.1-1.1-2.4-2.1-3.9-2.7
		c-1.1-0.4-2.3-0.5-3.5-0.3c-1.1-1.2-2.6-2-4.3-1.7c-0.2-0.4-0.5-0.9-0.7-1.3c1.2-0.1,2.1-0.8,3.1-1.2c1.4-0.5,2.9,0.1,4.2,0.7
		c1.5,0.6,3.5,1.1,4.9,0c-1.4,0-2.6-0.8-3.7-1.6c1.5-0.1,3,0,4.6,0.2c2.4,0.2,4.9-0.1,6.9-1.5c1.4-0.9,2.3-2.2,3.1-3.6
		c0.8-1.4,1.9-2.5,3-3.6c-0.4-0.3-0.9-0.2-1.4,0c1-2.2,0.8-4.6,1.6-6.9c0.4-1.6,1.4-3,2.6-4.1c0.3-0.4,0.8-0.6,0.9-1.1
		c-0.4-0.4-0.9-0.1-1.4-0.1c0.7-0.8,1.6-1.5,2.7-1.7c0.4,0.3,0.7,0.6,1,1c-0.5,0.2-0.9,0.4-1.4,0.7c-0.4,0.7,1,0.2,1.2,0.8
		c0.2,0,0.5,0,0.6,0c0-0.5-0.3-0.7-0.7-0.8c0.3-0.2,0.6-0.3,0.9-0.5c0-0.4-0.4-0.7-0.6-1c0.4,0.1,0.7,0.3,1.1,0.4
		c0.1-0.3,0.2-0.7,0.3-1c0.1,0.2,0.3,0.5,0.4,0.6c0.5-0.3,1-0.7,1.5-1.1c-0.3,0.7-0.7,1.3-1.1,1.9c0.4,0,0.7,0,1.1,0.1
		c-0.3,0.2-0.6,0.3-0.9,0.5c0.4,0.3,0.7,0.7,1,1c-0.5-0.2-1-0.4-1.4-0.5c-0.2,0.5-0.4,1-0.6,1.5c-0.1-0.4-0.1-0.7-0.2-1.1
		c-0.8,0.3-1.3,0.9-1.9,1.5c0.2-0.4,0.4-0.7,0.6-1.1c-0.1-0.2-0.2-0.4-0.3-0.6c-0.4,0.9-0.9,1.6-1.3,2.5c0.1,0,0.4,0.1,0.5,0.1
		c0.7-0.5,1.3-1.1,2-1.6c0,0.5,0.1,1,0.4,1.4c0.6-0.5,0.7-1.3,0.8-2c1,0.1,1.9,0.8,2.9,0.5c-0.6-0.4-1.2-0.9-1.7-1.5
		c0.6-0.3,1.2-0.6,1.7-0.9c-0.6-0.3-1.3-0.2-1.9-0.2c0.5-0.6,0.8-1.5,1.4-2c2.1-0.5,4-1.7,5.7-3c1-0.6,2-0.9,3.1-1
		c1.2-0.2,2.2-1,3-1.9c-0.7,1.7-2.4,2.5-4,3.2c-1.3,0.6-2.4,1.6-3.1,2.8c-0.1,0.2-0.1,0.4,0,0.7c0.6-0.7,1.3-1.2,2.2-1.6l0.1-0.1
		l0.4,0.5l0-0.6c0,0.2,0.1,0.5,0.2,0.7c0.6-0.8,1.8-1.1,2-2.2c-1.1,0.6-2.3,1-3.4,1.5c1.4-1.5,3.6-1.8,5.1-3.2
		c1.3-1.4,1.6-3.5,3-4.8c0.6-0.6,1.5-0.9,2.2-1.2c-0.6-0.5-1.4-0.1-1.9,0.2c-1.9,0.9-2.4,3.2-3.9,4.6c-1.3,1.2-3.2,0.9-4.7,1.8
		c1.7-1.7,2.8-3.8,3.6-6C226,27,227.6,26.2,228.3,24.7z M208.5,24.3c0.3-0.5,0.7-0.9,1.3-0.8c-0.2,0.4-0.5,0.8-0.7,1.2
		c0.2,0.3,0.6,0.1,0.9,0.2c-0.3,0.2-0.8,0.3-0.8,0.7c0.3,0.3,0.7,0.6,1,1c-0.6-0.1-1.1-0.3-1.7-0.5c-0.1,0.4-0.2,0.8-0.3,1.2
		c-0.1-0.3-0.2-0.6-0.3-0.9c-0.7,0.1-1.1,1.1-1.8,1.1c0.6-0.3,0.7-1,1-1.5c-0.2-0.1-0.6-0.3-0.8-0.4c0.4-0.2,0.9-0.3,1.3-0.5
		c-0.2-0.4-0.4-0.7-0.7-1.1C207.5,24.1,208,24.2,208.5,24.3z M188.7,54.2c0.6,1.3,1.2,2.6,2.3,3.6c-0.3-1.3-1.5-2.2-1.7-3.6
		c0.8-0.7,1.8-1.2,2.4-2.1c0.7,1.3,1.2,2.8,2.3,3.8c-0.6-1.4-1.4-2.6-2-4c0.5-0.7,0.9-1.4,1.4-2.1c0.1,0.4,0.3,0.8,0.4,1.1
		c0.3-0.6-0.1-1.2-0.2-1.8c0.4,0,0.7,0,1.1,0.1c0.4,1.5,1.1,2.9,2,4.2c0.2,0.4,0.5,0.4,0.9,0.4c-1.1-1.3-2-2.9-2.5-4.5
		c1.6,0.5,3.1,1.6,3.7,3.3c0.5,1.1,0.4,2.4,0.2,3.6c-0.1-0.1-0.3-0.2-0.3-0.2c0.2,0.3,0.2,0.6,0.1,0.9c-1.2-0.9-1.7-2.4-2.9-3.3
		c0.3,0.9,1.1,1.5,1.3,2.4c-0.3-0.4-0.7-0.7-1-1.1c0,1.2,1.1,2.1,1.9,2.8c-0.2,0.3-0.5,0.6-0.7,0.9c-0.8-0.7-1.5-1.5-2-2.4
		c-0.1,0.8,0.6,1.4,1.1,2c0.3,0.3,0.7,0.5,0.6,1c-1.1-0.7-1.7-2-2.6-2.9c0.1,1.3,1.2,2.1,2,3c-0.4,0.1-0.9,0.6-1.3,0.4
		c-1.3-1.1-2.2-2.5-3.2-3.9c-0.1,0.3,0,0.7,0.2,0.9c0.7,1.2,1.6,2.2,2.6,3.2c-1.2,0-2.5-0.1-3.6-0.8
		C189.6,58.1,188.4,56.2,188.7,54.2z M168.8,51.5c0.1-0.2,0.3-0.5,0.4-0.6c-0.4-0.2-0.8-0.3-0.7-0.9c0.2,0.1,0.6,0.2,0.7,0.3
		c0-0.2,0.1-0.6,0.1-0.8c0.1,0.1,0.4,0.2,0.6,0.3c0.1-0.2,0.2-0.6,0.2-0.8c0.2,0.2,0.5,0.8,0.8,0.3c0.3-0.3,0.5-0.6,0.7-0.9
		c-0.1,0.5-0.3,1-0.5,1.5c0.4,0,0.7,0.1,1.1,0.1c-0.4,0.2-0.7,0.5-1.1,0.8c0.3,0.4,0.7,0.8,1,1.3c-0.6-0.1-1.3-1.3-1.8-0.5
		c0,0.3-0.1,0.6-0.1,0.9c-0.2-0.3-0.3-0.6-0.5-0.8c-0.4,0.4-0.7,0.9-0.9,1.4C168.8,52.6,169.4,51.9,168.8,51.5z M172.7,83.9
		c0.7,1.8,2,3.2,3.4,4.5c-1.4-0.3-2.6-1.2-3.3-2.4C172.4,85.4,171.8,84.3,172.7,83.9z M172.4,86.3c0.3,0.3,0.5,0.7,0.7,1.1
		c-0.3,0-0.6,0.1-0.9,0.2c0,0.2,0,0.5,0,0.7c-0.4-0.1-0.8-0.2-1.2-0.2C171.5,87.6,172,86.9,172.4,86.3z M159,93.6
		c-0.1-0.2-0.3-0.4-0.4-0.6c1,0,1.9,0,2.9-0.2c0.2,0.2,0.5,0.4,0.7,0.7c-1,0-1.9-0.2-2.9-0.2c-0.1,0.6,0.7,0.5,1.1,0.6
		c1.1,0.2,2.7-0.2,3.3,1c-0.7,0-1.5-0.1-2.2-0.2c0.1,0.3,0.3,0.6,0.4,0.9c0.3-0.4,0.9-0.2,1.1,0.2c0.5,0.6-0.5,1.4-1.1,1
		c-0.4-0.2-0.8-1.1,0.1-1.1c-0.3-0.1-0.6-0.3-0.9-0.4c0.1-0.2,0.3-0.5,0.4-0.6c-2.1-0.3-4.1-0.5-6.2-0.8c-0.1,0.2-0.3,0.5-0.4,0.6
		c0.2,0.1,0.7,0.3,0.9,0.3l0.1-0.3c0.4,0.2,0.9,0.3,1,0.8c-0.1,0.4-0.5,0.6-0.8,0.8c-0.3-0.1-0.6-0.3-0.9-0.4c0.2-0.6-0.2-1.1-0.8-1
		c0.8,0.4,0.1,0.7-0.2,1.1c-0.2-0.1-0.7-0.2-0.9-0.2c0,0.1,0,0.4-0.1,0.5l-0.4-0.4c0.2-0.1,0.3-0.1,0.4-0.2c-0.4-1,0.9-0.6,1.2-1.2
		c-0.4-0.4-1.1-0.3-1.6-0.3c0.2,0.7-0.2,1.3-0.4,1.8c-0.5,0-1-0.1-0.9-0.7c-0.2,0-0.5-0.1-0.7-0.1l0.1-0.2c0.3,0.1,0.6,0.2,0.9,0.3
		c0.3-0.3,0.7-0.6,1-1c-1.7,0-3.1,0.8-4.5,1.5c1.1-1.6,3.2-2.2,5.1-2.3C155.3,93.3,157.2,93.1,159,93.6z M164.7,97.6
		c0.5,0,0.8,0.4,1.2,0.6c-2.9,0.5-5.8-0.1-8.6-0.8c-2.6-0.8-5.5-1-8.1,0l0.4,0.2c2.2-0.6,4.6-0.6,6.8,0c3.1,0.8,6.4,1.4,9.6,1
		c-0.2,0.4-0.3,0.7-0.5,1.1c-1.6,0.3-3.3,0.1-4.9-0.3c-2.7-0.5-5.3-1.8-8.1-2c-1-0.1-2,0.1-2.9,0.3c-0.1-0.1-0.3-0.3-0.4-0.4
		c-0.3-0.1-0.9-0.2-0.7-0.6l0,0.3c0.2,0,0.6,0,0.8,0c2.4-1.3,5.2-1.2,7.8-0.6c-0.1-0.2-0.2-0.4-0.3-0.5l0.6,0
		c-0.1,0.1-0.2,0.4-0.2,0.5c0.3,0.1,1,0.3,1.3,0.4c0.1-0.2,0.3-0.5,0.4-0.7c0.2,0,0.5,0.1,0.6,0.2l-0.2,0.2l-0.2-0.3
		c-0.1,0.1-0.4,0.4-0.5,0.6C160.6,97.5,162.6,97.6,164.7,97.6z M163.8,95.7c0.3-0.1,0.5-0.2,0.8-0.2c0.3,0.1,0.6,0.2,0.8,0.4
		c-0.1,0.3-0.2,0.6-0.3,0.9c-0.4,0.1-0.8,0.4-1.1,0C163.8,96.4,163.8,96,163.8,95.7z M165.3,101.1c-0.3,0.5-0.5,1.1-1,1.3
		c-0.5,0-0.8-0.4-0.9-0.9c0.1-0.5,0.6-0.8,1-1.1c0.1,0.1,0.2,0.3,0.3,0.4l0.1-0.4C164.8,100.6,165.1,100.9,165.3,101.1z M163,100.9
		c-0.2,0.4-0.4,0.8-0.5,1.2c-0.3-0.1-0.6-0.1-0.9-0.2c-0.1-0.3-0.1-0.7-0.2-1.1C161.9,100.4,162.5,100.6,163,100.9z M160.9,100.5
		c0,0.1,0,0.4,0,0.5c-0.2,0.2-0.4,0.4-0.6,0.6c-0.4-0.2-1.1-0.3-1.1-0.8c0-0.2,0.1-0.5,0.2-0.7C159.9,100,160.5,100.1,160.9,100.5z
		 M158.9,100c-0.2,0.5-0.6,1.3-1.3,0.8c-0.6-0.3-0.2-1,0.1-1.3C158.2,99.6,158.6,99.7,158.9,100z M156.9,99.4
		c-0.1,0.3-0.3,0.6-0.4,0.9c-0.4-0.1-0.8-0.2-1.1-0.4c0-0.3,0-0.6,0.1-0.9C156,98.9,156.5,99,156.9,99.4z M154.3,99.7
		c-0.5,0.1-0.7-0.4-1-0.8c0.2-0.2,0.4-0.3,0.7-0.5c0.3,0.2,0.8,0.3,0.9,0.8C155,99.5,154.5,99.8,154.3,99.7z M152.8,99.1
		c-0.4,0.4-1,0.3-1.3-0.1c-0.1-0.4,0.1-0.6,0.4-0.7C152.3,98.2,153.1,98.6,152.8,99.1z M151.2,98.2c-0.2,0.5-0.4,0.9-0.6,1.4
		c-0.4-0.2-0.9-0.3-1-0.8c0.3-0.4,0.8-0.4,1.2,0.1c0-0.2,0.1-0.6,0.1-0.8L151.2,98.2z M148.6,96.5c0.2-0.5,0.6-0.6,1.1-0.5
		c0.1,0.1,0.2,0.4,0.2,0.5C149.4,96.6,149,96.7,148.6,96.5z M149.9,95.9c0.1-0.4,0.5-0.6,1-0.7c0.1,0.3,0.2,0.5,0.3,0.8
		C150.8,96.3,150.3,96.2,149.9,95.9z M157.7,95c0.3-0.1,0.6-0.1,1-0.2c0.2,0.4,0.3,0.8,0.3,1.2c-0.4,0.2-0.8,0.4-1.2,0.1
		C157.2,95.9,157.4,95.3,157.7,95z M161.5,97.1c-0.4-0.1-0.7-0.3-0.9-0.7c-0.8,0.5-1.6-0.5-1.1-1.2c0.4-0.2,0.9-0.2,1.3,0
		c0,0.4,0.2,0.7,0,1.1C161.1,96.5,161.3,96.8,161.5,97.1z M150.5,93.3c-0.9,0.4-1.6,1-2.4,1.6c-0.1-0.2-0.4-0.5-0.5-0.6
		c0.4-0.3,0.8-0.6,1.3-0.8C149.4,93.3,150,93.4,150.5,93.3z M147.6,93.6c0,0.5-0.8,0.4-1,0C146.8,93.4,147.4,93.3,147.6,93.6z
		 M140.5,96.1c0.5-0.4,1.1-0.7,1.7-1c-0.1,1.5-0.8,2.9-1.7,4.1c-0.1,0-0.3-0.1-0.3-0.1C139.8,98,140.3,97.1,140.5,96.1z
		 M140.4,100.7c-0.3-0.2-0.4-0.6-0.5-0.9c0.3-0.1,0.6-0.4,1-0.1c0.1,0.2,0.2,0.4,0.4,0.7C140.9,100.5,140.7,100.6,140.4,100.7z
		 M140.8,101.3c0.3,0.3,0.5,0.8,0,1.1c-0.2-0.1-0.6-0.2-0.8-0.2C140.2,101.8,140.4,101.4,140.8,101.3z M141,99.2
		c0.7-1.2,1.5-2.4,2.6-3.2c0.6-0.4,1.3-0.2,1.9-0.2c0.2,0.2,0.3,0.4,0.5,0.6c0,0.2,0.1,0.5,0.1,0.6c-1,1.7-3,2.1-4.7,2.8
		C141.4,99.7,141.1,99.3,141,99.2z M138.7,97.4c0.3-0.4,0.8-0.6,1.1-0.9c-0.3,0.9-0.5,1.9-0.3,2.9c-0.2,0.1-0.4,0.2-0.5,0.2l0.4,0.3
		c-0.4,0.2-0.8,0.5-1.1,0c0.3-0.3,0.7-0.5,1.1-0.8C138.2,99.3,138.4,98,138.7,97.4z M136.2,99.8c0.6-0.5,1.2-1.1,1.7-1.7
		c0.1,0.4,0.1,0.8,0.2,1.2c-0.8-0.3-1.5,0.2-2,0.8C136.2,100,136.2,99.8,136.2,99.8z M138,99.8c-0.1,0.2-0.2,0.5-0.3,0.6
		c-0.2,0-0.5-0.1-0.7-0.2C137.1,99.8,137.4,99.6,138,99.8z M136.2,100.5c0.5-0.3,0.7,0.7,0.1,0.8
		C135.8,101.6,135.7,100.5,136.2,100.5z M135.3,101.7c0.4-0.3,0.4,0.3,0.5,0.6c-0.3,0.1-0.6,0.3-0.9,0.4
		C135,102.4,134.9,101.9,135.3,101.7z M135,103.5l-0.4,0.5c0.2,0,0.5,0.1,0.7,0.1c0-0.9,0.9-1.4,1-2.2c0.4-0.2,0.8-0.6,1.1-0.9
		c0.6-0.4,1.3-0.3,2-0.4c0.2,0.2,0.4,0.4,0.5,0.5c-0.1,0.3-0.2,0.5-0.4,0.8c0.1,0.1,0.2,0.4,0.2,0.6c-0.4,0.8-1.3,1.3-1.7,2.1
		c-0.6,0.6-1.4,1.1-2.1,1.7c-0.3,0.1-0.6,0.2-0.8,0.3c-0.1,0.1-0.2,0.4-0.3,0.6c-0.5,0.1-0.8,0.4-1,0.8c0-0.4,0-0.7-0.1-1
		c0.3-0.4,0.4-0.8,0.5-1.3c0.2-0.3,0.6-0.5,0.6-0.9c0-0.5-0.4-0.9-0.7-1.3C134.4,103,135,102.8,135,103.5z M136.4,107.1
		c-0.1,0.2-0.2,0.5-0.3,0.6c-0.1,0-0.4,0-0.5,0c0-0.3-0.4-0.6,0-0.8C135.8,106.6,136.1,106.9,136.4,107.1z M134.7,108.5
		c-0.6-0.2-0.2-0.8,0.2-1C135.2,107.8,135.3,108.5,134.7,108.5z M134.3,104.2c0.2,0.5,0.1,0.8-0.4,1
		C133.6,104.8,133.8,104.3,134.3,104.2z M134.3,108.7c0,0.6-1,0.9-1.1,0.2c0.1-0.1,0.3-0.4,0.3-0.5
		C133.8,108.5,134.1,108.6,134.3,108.7z M133,107c0.7,0,0.4,0.7,0.2,1C132.8,107.8,132.3,107,133,107z M132.4,108.1
		c0.8,0.3,0,1.3,0.9,1.7c-0.4,0.2-0.8,0.3-1.3,0.5C132.1,109.5,132.2,108.8,132.4,108.1z M132.7,113.7c0,0.3-0.1,0.6-0.3,0.8
		C131.8,114.4,132.2,113.3,132.7,113.7z M132.7,116.2c-0.4-1,0.4-2,0.7-2.9c0.5,0.4,0.9,0.7,1.4,1c0,0.2-0.1,0.5-0.1,0.7
		c-0.4-0.2-0.7-0.3-1.1-0.5C133.2,115,133,115.6,132.7,116.2z M133.8,112.9c0.4-0.2,0.8-0.4,1.3-0.6c-0.1,0.5-0.1,1-0.2,1.5
		C134.5,113.5,134.2,113.2,133.8,112.9z M133.1,116.9c0.3-0.6,0.5-1.2,0.8-1.8c0.3,0.2,0.7,0.4,1,0.7c0,1.5,0,2.9,0.3,4.4
		c0.2,0.3,0.2,0.7,0.2,1c-0.4-0.2-0.4-0.6-0.4-0.9C134.4,119,133.6,118,133.1,116.9z M117.5,118.6c1.9,0.3,3.5,1.5,5.2,2.5
		c1.6,1,3.4,1.6,5.2,2.1c-3.6,0-6.6-2.2-9.9-3.1c-1.7-0.4-3.5-0.2-5.2,0.4C113.9,119.1,115.8,118.3,117.5,118.6z M113.3,121.6l0-0.1
		c0.1-0.2,0.2-0.3,0.1-0.5c-0.4,0.1-0.8,0.3-1.3,0.4c1.3-1.1,3.1-1.2,4.8-1.1c3.4,0.3,6.1,2.8,9.5,3.1c0.9,0.1,1.9,0.1,2.8,0
		c1.1-0.2,2.3-0.1,3.3-0.6c0.7-0.3,1.2-0.8,1.7-1.4c0-0.3,0-0.6,0.1-0.9c0.4,0.6,0.4,1.6-0.2,2c-1,0.9-2.1,1.7-3.4,2.2
		c-3.4,0.9-7.1,0.6-10.1-1.3c0,0.1-0.1,0.4-0.1,0.6c1,0.3,1.9,0.9,2.9,1.1c2.3,0.7,4.7,0.6,7,0.2c1.7-0.4,3-1.5,4.3-2.5
		c-0.1,0.6,0,1.4-0.6,1.9c-1.1,1-2.3,2-3.8,2.3c-3.2,0.8-6.7,0.3-9.6-1.3C118.2,124.5,116.3,121.9,113.3,121.6z M122.8,128.7
		c-2.5-1.1-4.3-3.3-6.2-5.2c2.4,1.8,5,3.7,8.1,4.1c2.3,0.3,4.7,0.3,6.8-0.6c1.1-0.4,1.9-1.3,2.9-1.9c-0.6,0.9-1.1,1.9-1.9,2.7
		C129.6,129.5,125.9,129.8,122.8,128.7z M132.9,137.7c-2,2.5-4.9,4.5-8.1,5.1c-2.5,0.4-5.2,0.2-7.7-0.3c3.3-0.7,6.7-0.7,9.9-1.7
		c2.8-0.8,5-2.7,7.1-4.6C134,136.8,133.3,137.1,132.9,137.7z M135.6,123.7c0.3,0.7,0.1,1.5,0.1,2.3c0.2-0.2,0.4-0.3,0.6-0.4
		c0.1,2.5,0.2,5.1-0.8,7.4c-0.8,2.4-2.9,4-4.9,5.5c-2.3,1.7-5.3,2.4-8.1,2.8c-2,0.4-4,0.3-6,0.9c-0.6,0.2-1.3,0.3-2,0.3
		c1.7-1.1,3.7-1.5,5.6-2.1c2.3-0.7,4.6-1.2,6.8-2.1c2.6-0.9,4.9-2.6,6.8-4.7c1.5-2.2,2.2-4.9,2.4-7.5c-0.2,0.2-0.6,0.4-0.6,0.8
		c-0.3,2.4-0.9,4.8-2.4,6.7c-1.7,1.8-3.8,3.3-6.2,4.2c-2.5,1.1-5.3,1.6-7.9,2.5c-1.9,0.6-3.9,1.1-5.5,2.3c2.2-2.9,5.8-4,9-5.2
		c3.2-1.1,6.3-2.5,9-4.6c1.6-1.2,3-2.9,3.4-4.9c0.2-1,0.6-2,0.3-3c-0.5,0.9-0.4,1.9-0.7,2.8c-0.5,1.2-0.9,2.6-1.9,3.5
		c-2.7,2.7-6.2,4.4-9.7,5.6c-2.2,0.9-4.5,1.5-6.6,2.8c-1.6,0.9-2.9,2.2-3.9,3.7c0.5-0.9,0.9-1.7,1.4-2.6c-0.1,0-0.2-0.1-0.3-0.2
		c-0.2,0.2-0.4,0.5-0.5,0.8c0.2-0.5,0.3-1,0.6-1.4c1.3-1.6,2.7-3.2,4.4-4.4c1.6-1.1,3.4-1.9,5.3-2.4c2.5-0.7,5.1-1.3,7.3-2.8
		c-1.7,1.7-3.8,2.9-5.9,3.8c-2.5,0.9-5,1.7-7.3,2.9c-1.5,0.8-2.8,2-3.8,3.3c0.2,0,0.5,0.1,0.6,0.1c1.8-2.7,5-3.9,7.9-4.9
		c2.2-0.8,4.4-1.6,6.3-2.9c1-0.6,1.8-1.4,2.7-2c-0.1-0.3-0.1-0.5-0.2-0.8c0.2,0.1,0.4,0.2,0.6,0.4c0.1-0.2,0.2-0.6,0.3-0.8
		c1.1-1.3,2.3-2.6,2.9-4.2c-0.1-0.2-0.1-0.5,0.1-0.7c0.1,0.1,0.2,0.3,0.3,0.4c0.1-0.8-0.3-1.6-0.1-2.4
		C135.7,122.7,135.4,123.3,135.6,123.7z M135,111.8c-1,0.5-2,0.9-2.8,1.6c0-0.3-0.1-0.6-0.1-0.9c1.1-0.6,2.4-1.1,3.6-1.6
		C135.4,111.2,135.4,111.7,135,111.8z M135.2,110.5c-1.1,0.5-2.2,0.9-3.3,1.4c0-0.4,0-0.8,0-1.2c1.4-0.6,2.8-1.1,4.3-1.6
		C136,109.7,135.8,110.3,135.2,110.5z M134.5,109.3c0.2-0.3,0.5-0.5,0.8-0.6c0.1-0.1,0.2-0.3,0.3-0.5c0.3-0.1,0.6-0.2,0.8-0.3
		c0.2-0.3,0.4-0.7,0.9-0.6C136.8,108.5,135.6,109,134.5,109.3z M137.1,107c-0.6,0-0.7-0.8-0.2-1C137.7,105.8,137.6,106.7,137.1,107z
		 M138.4,106.1c-0.2,0-0.6-0.1-0.7-0.1c0.2-0.4,0.4-0.7,0.8-0.9C138.6,105.3,138.7,105.8,138.4,106.1z M138.8,105.1
		c-0.1-0.4,0.1-0.7,0.2-1.1c0.4,0.2,0.7,0.4,1.1,0.5C139.7,104.7,139.3,104.9,138.8,105.1z M141.2,103.7c-0.1-0.1-0.4-0.2-0.5-0.2
		c-0.1,0.6-0.7,0.6-1,0.2c0.1-0.2,0.3-0.5,0.4-0.7c0.8,0.1,1.5-0.3,2.3-0.2C142,103,141.6,103.3,141.2,103.7z M143.1,102.3
		c-0.5,0-1.1-0.1-1.6-0.1c0.1-0.2,0.2-0.5,0.3-0.7c1.1-0.1,2.2,0,3.2,0C144.4,101.8,143.8,102.1,143.1,102.3z M144.4,101.1
		c-1.1-0.1-2.3,0-3.4,0.1c0.2-0.3,0.3-0.6,0.5-0.9c1-0.3,1.9-0.8,2.8-1.1c0.7-0.3,1.7,0.1,1.8,0.9
		C146,100.9,145.1,101.2,144.4,101.1z M146.3,101.1c0.8-0.9,0.1-2.2-0.9-2.5c0.5-0.5,1.2-0.9,1.2-1.6c0.1-0.4-0.1-0.8-0.2-1.2
		c-0.5-0.3-1-0.5-1.6-0.6c-0.8,0.1-1.6,0.5-2.2,1.1c0-0.4,0-0.8,0-1.2c0.6-0.3,1.3-0.7,2-0.7c1.1,0.3,2.3,1.1,2.6,2.3
		c0.2,0.7-0.3,1.4-0.6,2c0.6,0.6,1.4,1.3,1.3,2.2C147.3,100.8,146.8,100.9,146.3,101.1z M148.3,100.4c-0.2-0.8-0.6-1.4-1.2-2
		c0.5-0.8,0.7-1.9,0.2-2.7c-0.4-0.8-1.3-1.3-2.1-1.8c1-0.3,2,0.5,2.5,1.3c0.7,1,0.4,2.3-0.1,3.3c0.5,0.5,1.1,1.1,1.3,1.8
		C148.9,100.7,148.4,100.8,148.3,100.4z M148.7,98.8c0.2-0.1,0.4-0.2,0.6-0.3c0,0.4,0.1,0.8,0.3,1.2
		C149.2,99.5,148.9,99.2,148.7,98.8z M170.1,104.7c-4.4,0-8.7-1.4-12.8-2.9c-2.5-1-5.1-1.1-7.8-1.2c0-0.1-0.1-0.4-0.1-0.6
		c2.4,0,4.9,0.1,7.1,1c0.2-0.2,0.3-0.5,0.5-0.7c0,0.2-0.1,0.5-0.2,0.7c2.4,0.8,4.8,1.8,7.3,2c1,0,1.8,0.6,2.8,0.8
		c1.2,0.3,2.5,0.5,3.7,0.5C170.4,104.4,170.2,104.6,170.1,104.7z M172.1,104.7c-0.4,0-0.8,0-1.2,0.1c0-0.3,0.4-0.9-0.2-0.9
		c-1.8-0.2-3.7-0.2-5.3-1.1c0.2-1.5,0.8-3,1.3-4.4c-0.4-0.3-1-0.5-1.2-1.1c0.1-0.6,0.2-1.1,0.3-1.7c-1.3-0.8-2.5-1.7-3.6-2.6
		c-0.1-0.4,0.7-0.5,0.8-0.2c1.1,1.2,2.5,2.1,3.9,2.9c-0.2,0.5-0.5,1.1-0.7,1.6c0.5,0.3,1,0.6,1.5,0.9c-0.6,1.3-1,2.6-1.1,4
		c-0.1,0.4,0.1,0.8,0.5,0.9c1.8,0.4,3.6,0.3,5.4-0.1C172.4,103.5,172.2,104.1,172.1,104.7z M176.2,104c0.6-0.5,1.2-1,1.7-1.7
		c0.1,0.4,0.1,0.8,0.2,1.2C177.5,103.8,176.9,103.9,176.2,104z M180.4,102.7c-0.2-0.4-0.3-0.7-0.5-1.1c0.4-0.5,0.7-1.1,1.1-1.6
		c0.4,0.5,0.9,1,1.3,1.5C181.7,101.9,181.1,102.3,180.4,102.7z M185,99.1c-0.3,0.2-0.7-0.4-0.4-0.6C184.9,98.3,185.3,98.8,185,99.1z
		 M187,91.8c-0.8-0.1-1.5,0-2.3,0c0.3-0.6,0.5-1.3,0.7-1.9c0.4-0.3,0.9-0.5,1.3-0.7C187,90,187.2,90.9,187,91.8z M186.6,88.8
		c-0.7,0.3-1.6,0.5-1.8,1.3c-0.2,0.8-0.8,1.5-0.7,2.3c1-0.2,2-0.3,3.1-0.2c-0.1,0.2-0.2,0.6-0.2,0.8c-1.7-0.4-3.4,0-4.8,0.9
		c-0.3,0.2-0.3,0.8,0.2,0.8c1.6,0.2,3.2-0.2,4.7-0.4c-0.2,0.9-1.5,0.3-1.6,1.1c0.4,0.4,1,0.7,0.8,1.4c-1.3-0.8-2.8-1.8-4.4-1.5
		c0.6,1.5,2.2,2.1,3.6,2.7l-0.1,0.3c-0.5-0.2-1-0.3-1.6-0.3c0.2,0.5,0.3,0.9,0.5,1.3c-0.1,0.3-0.3,0.6-0.4,0.8
		c-0.4-1-0.7-2.1-1.4-2.9c-0.4-0.5-0.9-1.2-1.7-1.2c0.1,1.8,1.1,3.5,2.3,4.8c-0.1,0.1-0.3,0.2-0.4,0.3c-0.7-0.5-1.1-1.3-1.7-1.9
		c-0.4,0.1-0.5,0.6-0.7,0.9c-0.3,0.5-0.7,0.9-0.9,1.4c0.1,0.5,0.3,0.9,0.4,1.4c-0.4,0.2-0.9,0.4-1.3,0.6c-0.1-0.6,0.1-1.5-0.5-1.7
		c-1.1,0.9-1.9,2.1-3.3,2.6c-0.7,0.2-1.4,0.2-2.1,0.3c0.1-0.6,0.3-1.2,0.5-1.8c-0.1-0.1-0.2-0.3-0.3-0.5c-1.9,0.5-3.8,0.5-5.7,0.2
		c0-1.7,0.7-3.2,1.2-4.8c-0.5-0.2-1-0.5-1.5-0.8c0.2-0.6,0.9-1.2,0.6-1.8c-1.4-0.7-2.8-1.7-3.9-2.8c2-0.6,3.8-1.5,5.5-2.6
		c0.8,1.1,1.9,2.1,3,2.9c1,0,2-0.2,3-0.2c0-0.1,0.1-0.3,0.1-0.4c-0.5-0.8-0.9-1.6-1.5-2.3c-1-0.6-2.3-0.6-3.4-1
		c0.8-0.4,1.7,0.1,2.6,0.1c0.1-0.3,0.1-0.6,0-0.9c0.3,0,0.7,0,1-0.3c0.7,0.6,1.7,0.8,2.4,1.5c0.3,0,0.6,0.1,0.9,0.2
		c-0.2,0.1-0.3,0.1-0.5,0.2c0.4,0.3,0.9,0.7,1.3,1c0.1-0.5,0-0.9-0.1-1.4c0.2,0,0.6-0.1,0.7-0.1c0.1,1,0.2,2,0.6,2.9
		c0.2,0,0.4,0.1,0.6,0.1c-0.4-1-0.9-2.2-0.5-3.3c0.5,1,0.6,2.2,0.6,3.3c-0.2,0.1-0.4,0.3-0.5,0.4c0.3,0,0.8,0.6,1,0
		c0.2-1.3,0-2.6-0.5-3.8c0.3-0.2,0.6-0.4,1-0.6c0.1,0.6,0.2,1.3,0.6,1.8c0.7-0.6,1.4-1.2,2.2-1.7c0.2-1,0-2.1-0.1-3.1
		c0.2-0.2,0.4-0.4,0.6-0.6c0.3,1,0.2,2,0.2,2.9c0.4-0.1,0.7-0.3,1.1-0.4c0,0.4,0,0.9,0.1,1.3c0.5-0.1,0.9-0.2,1.4-0.2
		C186.7,88.4,186.6,88.7,186.6,88.8z M187.1,93.6c-1.4,0.5-3,0.7-4.5,0.6C183.9,93.4,185.6,93.1,187.1,93.6z M185.8,97.6
		c-1.2-0.4-2.2-1.1-3.2-1.9c1.2,0,2.3,0.6,3.2,1.3C185.8,97.2,185.8,97.5,185.8,97.6z M183.3,100.2c-0.9-1-1.6-2.2-1.9-3.5
		C182.4,97.6,183.2,98.8,183.3,100.2z M169.4,89.4c1.1-0.1,2.2,0.2,3.2,0.5c1,0.2,1.3,1.3,1.8,2.1c-0.7,0.1-1.4,0.2-2.2,0.2
		C171.1,91.4,170.1,90.5,169.4,89.4z M181.1,88c0.7-0.7,1.3-1.5,1.8-2.3c0.1,0.8,0.2,1.6,0.1,2.4c-0.5,0.5-1.1,0.9-1.6,1.3
		C181.3,88.9,181.2,88.4,181.1,88z M186.5,87.6c-0.2,0.2-0.5,0.2-0.8,0.2c0-0.5,0.1-0.9,0.1-1.4c-0.4,0.1-0.8,0.3-1.2,0.4
		c0.1-0.9,0-1.7-0.1-2.6c0.3,0.1,0.7,0.3,0.8,0.6C185.8,85.8,186.2,86.7,186.5,87.6z M183.9,83.4c0.5-0.2,1.2,0,1.4,0.6
		c-0.5,0.1-1.1,0.1-1.6,0.4c-1.6,0.9-2.1,2.9-3.7,3.9c-0.8,0.5-1.8,0.6-2.7,0.5c0.9-0.6,1.8-1,2.5-1.8C181,85.6,182,83.9,183.9,83.4
		z M179.3,75.5c-1.6,0.7-3.4,1.3-5.2,0.7c-1.2-0.3-2.1-1.2-2.8-2.1C173.7,75.7,176.6,75.9,179.3,75.5z M166.5,69.1
		c0.7,1.2,1.6,2.2,2.6,3.2c-1.1-0.5-2.4-1-3.1-2C166.2,69.9,166.4,69.5,166.5,69.1z M165.9,72.5c-0.1-0.5-0.2-1-0.1-1.5
		c0.9,0.8,2,1.2,3.1,1.7C168,72.6,166.9,72.9,165.9,72.5z M170.5,72.7c0,0.2-0.1,0.6-0.1,0.8c-0.5-0.1-0.5-0.7-0.6-1.1
		C170,72.5,170.4,72.6,170.5,72.7z M168.3,75.1c-0.3-0.2-0.6-0.5-0.9-0.8c0.6-0.3,1.2-0.4,1.9-0.5c-0.1-0.2-0.2-0.4-0.3-0.5
		c-0.8,0.3-1.7,0.7-2.6,0.2c0-0.1,0.1-0.3,0.2-0.4c1,0.1,2,0,2.9,0c0,0.3,0.1,0.5,0.2,0.8C169.3,74.3,168.9,74.8,168.3,75.1z
		 M169.7,72c-1.2-0.8-2.5-2-2.8-3.5C168.3,69.3,169,70.8,169.7,72z M208.5,90.3c-0.4-0.1-0.4-0.3-0.2-0.6
		C208.7,89.8,208.7,90,208.5,90.3z M198.1,68.2c0.1,0.5,0.1,1.2,0.6,1.5c0.3-0.6,0.5-1.3,0.8-1.9c0.9,0.6,1.9,1,2.8,1.5
		c-2,1-4.2,1.5-6.4,1.1C196.6,69.7,197.4,69,198.1,68.2z M180,63.2c-1.2,0.4-2.4,0.9-3.7,1.3c-1-0.9-1.2-2.4-1.6-3.6
		c1.7-0.5,3.6-0.7,5.3-1.1C180.1,60.8,180.8,62.1,180,63.2z M203.1,48.6c-0.1,0.2-0.3,0.5-0.4,0.7c-0.3-1.3-1.1,0.3-1.6,0.6
		c0.2-0.6,0.4-1.1,0.7-1.7c-0.3-0.1-0.7-0.2-1-0.3c0.2-0.2,0.9-0.5,0.3-0.8c-0.2-0.2-0.4-0.4-0.6-0.6c0.5,0.1,0.9,0.4,1.4,0.4
		c0.1-0.3,0.2-0.6,0.2-1c0.1,0.3,0.2,0.6,0.4,0.8c0.5-0.3,1-0.7,1.4-1.1c-0.2,0.5-0.4,0.9-0.6,1.4c0.1,0.1,0.2,0.3,0.3,0.3
		c0.2,0,0.5,0,0.7-0.1c-0.3,0.2-0.7,0.5-1,0.8c0.4,0.2,0.7,0.4,1.1,0.5C204.1,48.6,203.6,48.6,203.1,48.6z M204.8,48.4
		c-0.1,0-0.4-0.1-0.6-0.2c-0.1-0.3,0.4-0.6,0.7-0.5C205.1,47.9,205.1,48.2,204.8,48.4z M213.3,38.6c0.2-0.2,0.5-0.2,0.7,0
		C214.2,39.3,212.9,39.3,213.3,38.6z M215.1,33.5c-1.3-0.1-2.8,0-3.9-0.9c0.3-1.3,1.6-1.7,2.7-2.1c1-0.3,2.1-0.7,3.1-0.9
		c-0.1,0.5-0.7,0.5-1.1,0.6c-0.8,0.2-1.9,0.5-2.1,1.4c0.2,1,1.4,1.1,2.2,1.1c0.5,0.1,1.2-0.1,1.3,0.5
		C216.6,33.7,215.8,33.5,215.1,33.5z M216.9,32.5c-0.9,0-1.8-0.1-2.7-0.5c0.4-1.1,1.6-1.1,2.5-1.4C216.8,31.2,216.9,31.9,216.9,32.5
		z M219.7,36c-0.6-0.6-1.2-1.2-1.6-1.9c1.5-0.2,2.9-0.4,4.3-0.6C221.6,34.3,220.6,35.1,219.7,36z M221.6,33
		c-1.3,0.2-2.6,0.5-3.9,0.4c0-0.1-0.1-0.4-0.1-0.5c1.9,0.1,3.8-0.3,5.6-0.8C223,32.8,222.2,32.9,221.6,33z M217.4,32.5
		c-0.4-1.8,0.2-3.6,1.1-5.1c1.1-1.5,3.2-2.2,5-1.8c0.9,0.2,1.5,1,2.2,1.5c-1,1.3-1.3,2.9-2.1,4.3C221.7,32.2,219.6,32.5,217.4,32.5z
		"/>
	<path d="M216.8,24c-0.1-0.1-0.2-0.3-0.2-0.5c-0.5,0.2-0.9,0.5-1.3,0.9c1.1,0.3,2.3-0.2,3.3-0.7c1.6-0.7,2.7-2.2,3.4-3.7
		c0-0.2-0.1-0.5-0.1-0.7c-0.5,1.1-1.1,2.1-2,2.9C219,23,217.9,23.6,216.8,24z"/>
	<path d="M196.7,24.8c0.1,0.1,0.4,0.3,0.5,0.4c0.8-1.2,1.6-2.5,2.9-3.2c2.1-1.1,4.7-1.8,6.1-3.9c0,0.3,0,0.7,0,1
		c0.8-1.4,1.4-3.5,0.2-4.8c-0.1,0.3-0.1,0.7,0,1c0.3,1.3-0.5,2.7-1.5,3.5c-1.9,1.8-4.8,2.1-6.6,4C197.7,23.4,197.4,24.3,196.7,24.8z
		"/>
	<path d="M197.3,24.1c0.1-1.9,1.8-3.3,1.8-5.2c0-0.5,0-1.1-0.2-1.6c-0.5-0.1-0.6,0.3-0.3,0.6c0.1,1-0.5,2-1,2.9
		c-0.6,0.9-0.9,2-1.1,3.1C196.7,24,197,24.2,197.3,24.1z"/>
	<path d="M213.4,28.9c0.9-0.5,1.6-1.3,2.1-2.2c-0.9,0.1-1.4,1-2.2,1.3C213.3,28.4,213.3,28.7,213.4,28.9z"/>
	<path d="M187.3,37.2c0.4-0.3,1-0.4,1.2-0.9c-1,0-2,0.6-2.7,1.3c0.5-0.6,0.7-1.5,1.4-1.9c-0.1-0.2-0.4-0.5-0.6-0.2
		c-0.7,1.2-1.6,2.3-2.5,3.3c0.4,0.2,0.8,0,1.1-0.3c0,0.1,0.1,0.3,0.1,0.4c3.7,0.7,7.6-1.8,9-5.2c0.6-1.7,0.4-3.6,0.2-5.3
		c0.5,1.3,1.2,2.5,1.1,4c0.1,0,0.3-0.1,0.5-0.1c0.1-1.1,0.6-2.2,0.6-3.4c0-1.2,0-2.4,0.1-3.6c0.1-0.4-0.2-0.8-0.4-1.2
		c-0.1,0.7,0,1.5-0.4,2.1c0.1,0,0.2,0.1,0.3,0.1c-0.1,1.4,0,2.9-0.3,4.3c-0.8-1.5-1.3-3.2-1.3-5c-0.1,0-0.3,0-0.4,0
		c-0.6,1.2-0.1,2.6-0.1,3.8c-0.1,0.1-0.2,0.3-0.2,0.4c0.1,0,0.3,0,0.3-0.1c0.1,1.6,0.1,3.3-0.8,4.7c-1.5,2.6-4.4,4.3-7.3,4.1
		C186.4,38,186.8,37.6,187.3,37.2z"/>
	<path d="M221.7,42.7c-1.3,1.7-3,3.7-5.3,3.8c0.8-0.7,1.7-1.4,2.3-2.3c1.5-1.9,2.2-4.5,4.3-6c0-0.2-0.1-0.4-0.1-0.6
		c-1.5,1.2-2.6,2.9-3.4,4.6c-1.2,1.9-2.7,4-5,4.6c-0.1,0.1-0.2,0.4-0.2,0.5c1-0.1,2-0.3,3-0.4c1.6-0.3,2.9-1.4,3.9-2.6
		c-0.6,1.8-1.7,3.5-3.3,4.5c-2.7,1.6-6,1.5-8.8,2.6c-1.2,0.6-2.4,1.6-2.9,2.9c-0.4,1.5-0.6,3.2-0.2,4.7c0.1-0.1,0.3-0.4,0.5-0.5
		c-0.4-1.3-0.2-2.7,0.1-3.9c0.4-1.2,1.5-2.1,2.6-2.7c2.8-1.2,6.1-1,8.7-2.6c2.1-1.1,3.1-3.3,4-5.3c0.6-1.5,1.8-2.7,3.3-3.1l0-0.3
		C223.8,40.3,222.6,41.7,221.7,42.7z"/>
	<path d="M183.1,38.1c-0.8,0.6-1.8,0.8-2.8,1.1c0.6-0.5,1.2-1.1,2-1.4c-0.1-0.2-0.4-0.5-0.6-0.3c-1.2,0.6-1.9,1.8-3,2.5
		c0,0.2-0.1,0.4-0.1,0.7c1.4-1.3,3.5-1.2,5-2.4c1.4-1,2.2-2.5,3.4-3.7c0.1,0.2,0.1,0.3,0.2,0.5c0.7-0.8,1.5-1.7,2.6-1.8
		c0.5-0.1,1.2,0.1,1.6-0.3c-1.3-0.6-2.8,0-3.9,0.8C185.7,34.9,184.8,36.9,183.1,38.1z"/>
	<path d="M184.6,31.2c-0.3-0.1-0.5-0.2-0.8-0.4c-0.3,0.5-0.7,1-1,1.6c-0.4,0.9-0.3,2-0.6,2.9c-0.2,0.7-0.7,1.3-0.8,2
		c0.8-0.3,1.1-1.1,1.6-1.7c-0.3,0.5-0.6,1-0.7,1.6c0.2,0,0.4,0,0.6,0c0.3-1.8,2.3-1.9,3.2-3.2c-0.1-0.1-0.2-0.3-0.2-0.4
		c-0.8,0.9-2,1.3-3,1.8C182.8,33.9,183,31.8,184.6,31.2z"/>
	<path d="M193.6,46.4c-0.4-0.9-1.3-1.4-1.9-2.2c0.5-0.4,0.9-0.8,1.4-1.2c-0.5-0.2-1-0.3-1.5-0.3c0.5-0.8,0.9-1.6,1.3-2.5
		c-1,0.1-1.6,1.2-2.4,1.7c-0.2-0.5-0.2-1.1-0.5-1.5c-0.7,0-0.6,1.1-0.9,1.6c-0.8-0.5-1.7-1-2.6-1.5c-0.1,1.2,1,1.9,1.7,2.8
		c-0.6,0.5-1.6,0.7-1.9,1.4c0.5,0.3,1.1,0.2,1.7,0.2c-0.1,0.2-0.4,0.6-0.5,0.9c0.1,0.2,0.1,0.4,0.2,0.7c0.4-0.7,0.8-1.3,1.2-2
		c-0.5,0-1,0-1.5,0c0.5-0.3,1-0.6,1.6-0.9c-0.5-0.6-0.9-1.2-1.4-1.8c0.7,0.3,1.3,0.6,1.9,1c0.1-0.4,0.2-0.9,0.4-1.3
		c0.2,0.4,0.1,1,0.6,1.2c0.5-0.4,0.9-0.8,1.4-1.2c-0.3,0.5-0.6,1.1-0.8,1.7c0.3,0,0.6,0.1,1,0.1c-0.3,0.3-0.6,0.6-0.8,1
		c0.4,0.4,0.8,0.8,1.2,1.3c-0.2-0.1-0.6-0.3-0.8-0.4c-0.2,0.1-0.4,0.2-0.7,0.3C191.8,45.6,192.6,46.6,193.6,46.4z"/>
	<path d="M213.6,53.1c0.3,0.3,0.6,0.1,0.9,0.1c-0.3,0.2-0.7,0.9-1.1,0.4c0,0,0,0.1-0.1,0.1c-0.1-0.2-0.1-0.3-0.2-0.5
		c-1.3,0.8-2.8,1.1-4.1,1.9c-1,0.6-1.9,1.4-2.6,2.3c0.1,0.2,0.1,0.4,0.2,0.7c1.5-2.4,4.2-3.4,6.7-4.3c-0.5,0.8-1.6,1.1-2.3,1.6
		c-1.9,1.2-3.7,2.8-4.6,4.9c-0.2,1-0.6,2.2-0.1,3.2c1-1.3,2.2-2.5,3.5-3.4c-0.1-0.2-0.1-0.4-0.2-0.5c-1.1,0.9-2.2,1.7-3,2.8
		c-0.1-0.8,0-1.6,0.4-2.3c1.2-2.1,3.1-3.6,5.1-4.7c1.9-1.2,4-2.4,5.3-4.3c0-0.1-0.1-0.4-0.1-0.5C216.4,51.7,215,52.5,213.6,53.1z"/>
	<path d="M190,46.5c-0.1-0.4-0.2-0.8-0.4-1.2c-0.8,0.4-1.4,1.1-2.1,1.6c-0.1-0.3-0.1-0.5-0.2-0.8c-0.3,0.6-0.7,1.2-1,1.8
		c1.3,0,1.9-1.4,3-1.9c0.4,0.3,0.2,1.5,0.9,1.2c0.4-0.8,0.4-1.8,0.9-2.6C190.1,44.7,190.3,45.9,190,46.5z"/>
	<path d="M179.1,43.7c0.8-0.5,1.8-0.2,2.7-0.1c-1-1.4-3.1-1.4-4.5-0.6c-1.9,0.9-2.7,3.4-1.7,5.2c0.9,1.9,3.3,2.8,5.2,1.9
		c1.4-0.6,2.2-2,2.4-3.4c-0.5,0-0.7,0.4-1,0.8c-0.8,1.2-2.9,1.3-3.8,0.2C177.2,46.6,177.6,44.4,179.1,43.7z M177.6,44.6
		c-0.7,1.1-0.4,2.7,0.6,3.6c1,1.2,3,1,4.1,0.1c-0.4,0.6-0.9,1.1-1.6,1.5c-1.6,0.8-3.7,0.2-4.6-1.3c-0.8-1.3-0.7-3.2,0.4-4.2
		c0.8-0.9,2-1.2,3.2-1.2C178.9,43.3,177.9,43.7,177.6,44.6z"/>
	<path d="M210.9,60c1-0.7,2.2-1.3,3-2.2c-0.1,0-0.4-0.1-0.5-0.1c-0.9,0.8-2.1,1.3-3.3,1.7C210.4,59.6,210.7,59.7,210.9,60z"/>
	<path d="M198.1,62.9c-0.2,0.6-0.3,1.2-0.4,1.8c-0.4-0.1-0.9-0.8-1.2-0.2c0.5,0.3,1,0.6,1.5,0.9C198.2,64.6,198.5,63.7,198.1,62.9z"
		/>
	<path d="M197.3,65.8c-0.3-0.5-0.6-0.9-1.1-1.1c-0.1-0.3,0.1-0.6,0.3-0.7c-0.6-0.1-1.1-0.9-1.7-0.4c0.7,0.8,1.4,1.5,2,2.4
		c-0.4,0.2-0.8,0.4-1.2,0.7c0.2,0.1,0.5,0.2,0.7,0.2C196.6,66.4,197.2,66.2,197.3,65.8z"/>
	<path d="M197.7,66.9c-0.4-0.1-0.9-0.2-1.3-0.2c0.2,0.2,0.3,0.5,0.5,0.7c-0.2,0.3-0.5,0.8-0.7,1c0.2,0,0.5,0.1,0.6,0.1
		C197,68,197.4,67.5,197.7,66.9z"/>
	<path d="M195.3,66.7c-0.5,0.4,0.5,0.8,0.8,0.6C196.4,66.8,195.6,66.6,195.3,66.7z"/>
	<path d="M177.7,62.6c-0.3-0.1-0.6-0.2-0.8-0.3c0.3,0.2,0.6,0.4,0.9,0.6c0.7-0.6,0.5-1.7,1.2-2.4C178.1,60.8,178,61.9,177.7,62.6z"
		/>
	<path d="M176.9,62.7c-0.3,0.1-0.6,0.2-0.9,0.2c0.6,0.3,1.2,0.6,1.8,0.8C177.7,63.3,177.2,63,176.9,62.7z"/>
	<path d="M196.2,72.9c0.8-0.4,1.7-0.3,2.5-0.6c0-0.2,0-0.3,0-0.5c-0.8,0.1-1.6-0.1-2.4,0c0.1,0.2,0.2,0.4,0.5,0.5
		C196.3,72.3,196.1,72.6,196.2,72.9z"/>
	<path d="M176.6,63.5c-0.1,0.3,0.1,0.5,0.5,0.4C177.1,63.5,176.9,63.4,176.6,63.5z"/>
	<path d="M174.7,66.3c0.4-0.1,0.8-0.2,1.3-0.2c0.6,0.1,1.3,0.6,1.8,0.1C176.9,65.8,175.2,65.1,174.7,66.3z"/>
	<path d="M170.8,64c0.5,0.3,1,0.5,1.4,0.8c0.4,0.3,0.7,0.8,1.3,1C173.3,64.6,172,63.9,170.8,64z"/>
	<path d="M174.6,66.6c-0.4-0.1-0.9-0.2-1.3-0.2C173.5,66.9,174.3,67.3,174.6,66.6z"/>
	<path d="M170.8,75.2c-0.3,0.3,0,1.1,0.4,1.2C171.4,76,171.2,75.3,170.8,75.2z"/>
	<path d="M174.9,82.4c-0.2-0.8-1-1.3-1.5-2c-0.7-0.8-1.1-1.8-1.9-2.6c-0.1,0.7,0.4,1.3,0.7,1.9C173,80.7,173.8,81.8,174.9,82.4z"/>
	<path d="M162.2,76.9c0.1-0.8,0.1-1.6,0-2.4c-0.3,0.1-0.5-0.1-0.7-0.2c0,0.1-0.1,0.3-0.1,0.4C161.7,75.4,161.7,76.3,162.2,76.9z"/>
	<path d="M179.9,83.2c-0.4,0.8-0.5,1.6-0.5,2.4c-0.1,0.3,0.6,0.3,0.5-0.1c0.2-0.8,0.3-1.7,0.5-2.5C180.2,83.1,180,83.1,179.9,83.2z"
		/>
	<path d="M176.2,84.6c0.1-0.3,0.1-0.7,0.2-1c-0.4,0-0.7,0-1.1,0.1C175.5,83.9,175.8,84.3,176.2,84.6z"/>
	<path d="M176.8,84.7c-0.4,0.8,0.1,1.8,0.2,2.7C177.6,86.6,177.1,85.6,176.8,84.7z"/>
	<path d="M183,89.5c-1.1,1.1-2.2,2.5-2.1,4.1c0.2,0,0.4,0,0.6-0.1c1.6-1,2.7-2.8,3.1-4.6C184,88.5,183.4,89.1,183,89.5z M181.4,92.9
		c0.4-1.4,1.3-2.8,2.6-3.5C183.4,90.8,182.6,92.1,181.4,92.9z"/>
	<path d="M179.1,93.6c-0.2-1.3-1.2-2.3-2.2-3.1c-0.8-0.6-1.7-1.3-2.7-1.2C174.9,91.4,176.9,93.1,179.1,93.6z M178.4,93
		c-1.4-0.7-2.7-1.8-3.5-3.1C176.4,90.6,177.7,91.6,178.4,93z"/>
	<path d="M178,94.7c0.2-0.1,0.8-0.2,0.6-0.6c-1.8-0.9-3.9-1.2-5.9-0.9c-0.1,0.1-0.3,0.3-0.4,0.4c0.8,0.9,2.1,1,3.2,1.2
		C176.4,94.9,177.2,94.9,178,94.7z M177.9,94.2c-1.6,0.3-3.2,0-4.7-0.6C174.7,93.5,176.4,93.7,177.9,94.2z"/>
	<path d="M170.7,94.2c0-0.5-0.6-0.7-0.9-1c0.3-0.2,0.6-0.4,0.9-0.6c-0.4-0.7-1.1-1-1.6-1.5c-0.3-0.2-0.5-0.6-0.9-0.4
		c-1.3,0.6-2.6,1.1-4,1.7c1.3,1.2,3,1.9,4.6,2.8C169.5,95,170.1,94.6,170.7,94.2z M168.3,91.2c0.6,0.4,1.1,0.9,1.7,1.3
		c-0.3,0.2-0.7,0.4-1,0.7c0.3,0.3,0.7,0.6,1,0.9c-0.4,0.2-0.8,0.4-1.2,0.5c-1.3-0.6-2.5-1.3-3.7-2.1
		C166.2,92.1,167.2,91.6,168.3,91.2z"/>
	<path d="M178.3,95.2c-1.3,0.4-2.5,1-3.6,1.9c-0.3,0.3-0.7,0.5-0.7,1c0.5,0.2,1.1,0,1.6-0.1c1.3-0.4,2.7-1.2,3.4-2.5
		C178.9,95.4,178.5,95.3,178.3,95.2z M174.9,97.7c1-0.9,2.2-1.5,3.4-1.9C177.4,96.7,176.2,97.5,174.9,97.7z"/>
	<path d="M179.6,96c-1,1.2-1.2,2.9-1.2,4.4c-0.1,0.4,0.4,0.9,0.7,0.4c0.6-1,1.1-2.3,1-3.5C180.2,96.9,180.2,96.2,179.6,96z
		 M179,100.3c-0.3-1.2,0.2-2.5,0.6-3.6C180,97.9,179.5,99.2,179,100.3z"/>
	<path d="M172.7,97.7c1.3,0,2.2-1.3,2.7-2.3c-0.9-0.4-1.8-0.8-2.7-1.1c-1.1,0-2.1,0.5-3.1,1.1c-0.6,0.4-1.4,0.7-1.7,1.4
		C169.4,97.5,171.1,97.8,172.7,97.7z M172.4,94.8c0.8,0.2,1.6,0.6,2.4,0.8c-0.6,0.5-1,1.4-1.9,1.5c-1.4,0.2-2.9,0-4.2-0.7
		C169.9,95.9,171,95,172.4,94.8z"/>
	<path d="M174.6,99.1c-0.6,1.1-0.7,2.4-0.9,3.7c-0.1,0.3,0,0.9,0.4,0.6c1.3-0.5,2.4-1.3,3.5-2.1c0.2-1,0-2,0.1-3
		c-0.1-0.1-0.3-0.2-0.3-0.3C176.5,98.4,175.5,98.7,174.6,99.1z M177.1,101.1c-0.9,0.7-1.9,1.3-2.9,1.8c0.1-1.2,0.4-2.3,0.6-3.5
		c0.8-0.3,1.6-0.6,2.5-0.8C177.2,99.5,177.3,100.4,177.1,101.1z"/>
	<path d="M172.6,99.2c0-0.3,0.5-0.9,0-1c-1,0-2,0-3-0.2c-0.4,1.5-1.4,2.7-2,4.1c1.7,0.3,3.5,0.1,5.2-0.2c0.4-0.8,0.7-1.6,1-2.4
		C173.4,99.3,173,99.2,172.6,99.2z M172.3,101.3c-1.3,0.3-2.7,0.3-4.1,0.3c0.5-1.1,1.1-2.1,1.6-3.1c0.8,0.1,1.6,0.1,2.4,0.1
		c-0.1,0.3-0.3,0.7-0.4,1c0.4,0,0.7,0.1,1.1,0.1C172.8,100.3,172.5,100.8,172.3,101.3z"/>
	<path d="M114.4,121.5c1.9,0.3,3.8,1,5.4,2c0.2-0.1,0.4-0.2,0.6-0.2c-2-1-4.1-2-6.4-2.4C114.2,121.1,114.3,121.3,114.4,121.5z"/>
</g>
</svg>
