<?xml version="1.0" encoding="utf-8"?>
<!-- Generator: Adobe Illustrator 26.0.3, SVG Export Plug-In . SVG Version: 6.00 Build 0)  -->
<svg version="1.0" id="Слой_1" xmlns="http://www.w3.org/2000/svg" xmlns:xlink="http://www.w3.org/1999/xlink" x="0px" y="0px"
	 viewBox="0 0 239.5 150.2" style="enable-background:new 0 0 239.5 150.2;" xml:space="preserve">
<style type="text/css">
	.st0{fill:#070707;}
</style>
<g>
	<path class="st0" d="M133,105.1c0.1-0.1,0.2-0.3,0.3-0.4c0.1,0.1,0.2,0.2,0.3,0.3c0.1-0.1,0.2-0.2,0.2-0.3c0.1,0.1,0.2,0.2,0.3,0.3
		c0.1-0.1,0.2-0.3,0.3-0.3c0.1,0.1,0.2,0.3,0.3,0.4c0.1-0.1,0.2-0.2,0.3-0.3c0.1,0.1,0.2,0.3,0.3,0.4c0.1-0.1,0.4-0.3,0.2-0.5
		c-0.6-0.9-1.3-1.8-1.9-2.7c1.5-2.8,2.9-5.6,4.4-8.3c0.8-1.5,1.6-3,2.4-4.5c-0.1-0.1-0.3-0.2-0.4-0.2c-2.3,4.4-4.6,8.8-6.9,13.2
		c0.6,0.8,1.2,1.7,1.8,2.5c-1-1-1.9-2.1-2.9-3.2c2-4.4,3.9-8.7,5.9-13.1c-0.1-0.1-0.3-0.2-0.4-0.2c-2,4.5-4,8.9-6,13.4
		c0.9,1,1.8,2,2.6,2.9c-0.9-0.7-1.7-1.5-2.6-2.3l-0.1-0.1c-0.4-0.4-0.8-0.7-1.2-1.1c1.6-3.9,3.2-7.9,4.8-11.9
		c0.2-0.4,0.4-0.8,0.4-1.2c-0.1,0-0.3,0-0.4,0c-1.8,4.4-3.6,8.9-5.3,13.3c0.9,0.8,1.9,1.7,2.8,2.5c0.2,0.2,0.4,0.4,0.6,0.6
		c-1.5-1.1-3-2.4-4.6-3.5c1.4-4.2,2.8-8.3,4.1-12.5c0.1-0.3,0-0.5-0.3-0.5c-1.5,4.4-2.9,8.7-4.4,13.1c0.4,0.3,0.8,0.7,1.2,0.9
		c0.6,0.6,1.3,1,1.9,1.5c0.6,0.4,1.2,1,1.8,1.3v0.1c-0.4-0.3-0.9-0.6-1.4-0.9c-0.4-0.2-0.4-0.3-1-0.6c-0.1-0.1-0.2-0.2-0.3-0.2
		c-1.1-0.8-2.3-1.5-3.5-2.3c1.2-4.1,2.4-8.3,3.5-12.5c-0.1,0-0.3-0.1-0.4-0.1c-1.2,4.2-2.4,8.5-3.6,12.7
		C128.6,102.3,130.8,103.6,133,105.1z"/>
	<path class="st0" d="M128.8,107.2c-2-0.6-4.1-1.2-6.1-1.9c-0.2-0.1-0.5-0.1-0.7-0.2c-1.4-0.5-2.9-0.9-4.4-1.4
		c0.1-1.6,0.1-3.2,0.2-4.7c0.1-1.6,0.1-3.2,0.2-4.7c-0.1,0-0.3,0-0.5,0c-0.1,3.3-0.2,6.6-0.3,9.9c3.9,1.1,7.7,2.4,11.6,3.5
		C128.8,107.5,128.8,107.3,128.8,107.2z"/>
	<path class="st0" d="M129.4,106.9c0-0.1,0.1-0.3,0.1-0.4c-3.5-1.2-7-2.4-10.6-3.6c0.1-1.8,0.2-3.5,0.3-5.3c0.1-1.6,0.1-3.2,0.3-4.7
		c-0.1,0-0.3,0-0.5,0c-0.1,1.6-0.2,3.2-0.3,4.8c-0.1,1.9-0.2,3.7-0.3,5.6c3.5,1.2,7,2.4,10.5,3.6
		C129.2,106.8,129.3,106.9,129.4,106.9z"/>
	<path class="st0" d="M119.6,112.7c2.2,0.3,4.3,0.5,6.5,0.7c0.5,0.1,0.8-0.5,1.1-0.7c-0.1-0.1-0.2-0.2-0.3-0.3
		c-0.2,0.2-0.4,0.4-0.6,0.6c-2.2-0.3-4.4-0.5-6.6-0.7c-2.5-0.3-5-0.6-7.5-0.8c-0.2-2-0.3-4-0.4-6c-0.1-0.6,0-1.1-0.2-1.7
		c-0.1,0-0.3,0-0.4,0c0.2,2.7,0.4,5.4,0.6,8C114.4,112.1,117,112.4,119.6,112.7z"/>
	<path class="st0" d="M132.3,105.3c0.1-0.1,0.2-0.3,0.2-0.4c-2.4-1.3-4.7-2.7-7.1-4c-0.2-0.1-0.3-0.2-0.3-0.4l0.1-0.2
		c0.9-3.9,1.9-7.7,2.8-11.6c-0.2,0-0.3,0-0.5,0c-1,4.1-2,8.2-3,12.3C127.2,102.4,129.8,103.8,132.3,105.3z"/>
	<path class="st0" d="M128.5,104.8c0.2,0.1,0.3,0.1,0.5,0.2c0.6,0.4,1.2,0.6,1.8,0.9c0-0.1,0.1-0.3,0.2-0.4c-3-1.3-6-2.7-9.1-4
		c0.2-1.2,0.4-2.4,0.5-3.6v-0.2c0.2-1,0.3-2,0.5-3v-0.1c0.2-1.4,0.4-2.9,0.7-4.3c-0.2,0-0.3,0-0.5,0c-0.1,1.3-0.4,2.6-0.6,3.9l0,0
		c-0.1,0.8-0.2,1.3-0.4,2.3c-0.1,0.6-0.1,0.9-0.2,1.3c-0.2,1.3-0.4,2.5-0.6,3.8C123.8,102.7,126.2,103.8,128.5,104.8z"/>
	<path class="st0" d="M130.3,105.9c-3.3-1.3-6.6-2.5-9.8-3.8c0.3-3.5,0.7-7,1.1-10.5c-0.2,0-0.3,0-0.5,0c-0.4,3.6-0.7,7.2-1.1,10.8
		c3.4,1.4,6.8,2.6,10.2,4C130.1,106.2,130.2,106,130.3,105.9z"/>
	<path class="st0" d="M125.4,115c0.3,0,0.6,0.1,0.8,0c0.4-0.4,0.8-0.9,1.2-1.3c-0.1-0.1-0.2-0.2-0.4-0.3c-0.3,0.4-0.7,0.8-1,1.1
		c-4.8-0.2-9.6-0.6-14.4-0.8c-0.3-2.4-0.6-4.8-0.8-7.2c-0.1,0-0.3,0-0.4,0.1c0.2,2.5,0.5,5,0.8,7.6
		C115.9,114.5,120.6,114.8,125.4,115z"/>
	<path class="st0" d="M138.5,124c-0.5-1.6-1-3.1-1.5-4.7c-0.2,0-0.3,0.1-0.5,0.1c1.4,4.2,2.7,8.5,4.1,12.7c-2.2,1.4-4.4,2.9-6.6,4.4
		c0.1,0.2,0.2,0.5,0.4,0.3c2.2-1.4,4.6-3,6.8-4.5C140.3,129.5,139.4,126.8,138.5,124z"/>
	<path class="st0" d="M137.6,131.1c-0.9-3.9-1.8-7.7-2.8-11.6c-0.1,0-0.3,0.1-0.4,0.1c1,4,1.9,7.9,2.8,11.9
		c-1.1,0.6-2.2,1.2-3.3,1.8h-0.1c-1.5,0.9-3.1,1.7-4.6,2.6c0.1,0.1,0.2,0.3,0.2,0.4c2.7-1.5,5.4-3.1,8.2-4.6
		C137.7,131.6,137.7,131.3,137.6,131.1z"/>
	<path class="st0" d="M123.2,100.3c-0.1,0.3-0.1,0.6-0.2,0.9c2.8,1.4,5.6,3,8.5,4.3c0-0.1,0-0.3,0.1-0.4c-1.4-0.7-2.8-1.5-4.3-2.2
		h-0.1c-1.2-0.6-2.5-1.2-3.7-1.9c0.7-3.8,1.5-7.7,2.2-11.5c-0.1,0-0.3,0-0.4,0C124.6,93,123.9,96.6,123.2,100.3L123.2,100.3z"/>
	<path class="st0" d="M136.1,103.6c0.2,0.6,0.4,1.1,0.5,1.7c0.1,0,0.3-0.1,0.4-0.1c-0.1-0.5-0.3-1-0.5-1.5c2.7-4,5.4-8,8-12
		c1.2,0.5,2.5,1.1,3.7,1.6l0.1,0.1c0.9,0.4,1.8,0.8,2.7,1.2c0-0.1,0.1-0.3,0.2-0.4c-2.3-1-4.6-2-6.8-3
		C141.6,95.3,138.9,99.4,136.1,103.6z"/>
	<path class="st0" d="M139.4,106.6c0.1,0.1,0.2,0.2,0.4,0.3c2.9-3.3,5.8-6.6,8.7-9.9c0.2-0.3,0.4,0,0.6,0.1c2.2,1.1,4.4,2.2,6.6,3.3
		c0.1-0.1,0.1-0.3,0.2-0.4c-2.5-1.2-4.9-2.5-7.4-3.7C145.4,99.7,142.4,103.1,139.4,106.6z"/>
	<path class="st0" d="M117.7,107.4c0.1,0,0.4,0.1,0.4,0.1h0.1c3.1,0.9,6.2,1.6,9.3,2.4c0-0.2,0.1-0.3,0.1-0.5
		c-3.1-0.8-6.1-1.6-9.2-2.4h-0.1c-1-0.2-2.1-0.6-3.2-0.8c0-2.9-0.1-5.7-0.2-8.6c-0.1,0-0.3,0.1-0.4,0.1c0,3,0.1,5.9,0.2,8.9
		C115.7,106.8,116.7,107.2,117.7,107.4z"/>
	<path class="st0" d="M141.2,109.5c0.1,0.1,0.2,0.2,0.3,0.4c2.5-2.4,5.1-4.8,7.6-7.1c0.3-0.3,0.6-0.6,1-0.9c2.7,1.7,5.4,3.3,8,5
		c0.1-0.1,0.2-0.3,0.3-0.4c-2.8-1.8-5.6-3.5-8.4-5.2C147.1,104,144.2,106.7,141.2,109.5z"/>
	<path class="st0" d="M141.5,110.5c0.1,0.1,0.2,0.3,0.3,0.4c2.8-2.5,5.6-4.9,8.4-7.4c2.6,1.7,5.2,3.5,7.8,5.2l0.1,0.1
		c0.2,0.1,0.3,0.2,0.5,0.3c0.1-0.1,0.1-0.2,0.2-0.4c-2.9-1.9-5.7-3.8-8.6-5.7C147.3,105.4,144.4,108,141.5,110.5z"/>
	<path class="st0" d="M136,105.1c0.1-0.1,0.3-0.2,0.4-0.3c-0.4-0.7-0.8-1.5-1.2-2.2c2.4-4.2,4.8-8.4,7.2-12.6
		c2.1,0.7,4.1,1.6,6.2,2.3c0-0.1,0.1-0.3,0.1-0.4c-2.2-0.8-4.3-1.7-6.5-2.4c-2.5,4.4-5,8.8-7.5,13.1
		C135.1,103.5,135.5,104.3,136,105.1z"/>
	<path class="st0" d="M146.2,103l-0.2,0.2c-1.7,1.8-3.5,3.5-5.2,5.3c0.1,0.1,0.2,0.2,0.3,0.3c2.9-2.9,5.7-5.8,8.7-8.7
		c2.6,1.5,5.2,3.1,7.9,4.6c0-0.1,0.1-0.3,0.2-0.4c-2.7-1.6-5.4-3.2-8.1-4.8C148.5,100.7,147.4,101.9,146.2,103z"/>
	<path class="st0" d="M147.4,109.3L147.4,109.3c-0.2,0.1-0.3,0.2-0.4,0.3c-0.2,0.1-0.3,0.2-0.4,0.3c-1.6,1.1-3.2,2.1-4.9,3.2
		c0.1,0.1,0.1,0.3,0.2,0.4c2.6-1.7,5.1-3.3,7.7-5c3,2.6,5.9,5.1,8.9,7.6c0.1-0.1,0.2-0.2,0.3-0.4c-3.1-2.6-6.1-5.3-9.1-7.9
		C148.9,108.3,147.4,109.3,147.4,109.3z"/>
	<path class="st0" d="M141.4,99.1c-1.4,1.8-2.7,3.6-4.1,5.5c0.1,0.3,0.1,0.6,0.2,0.8c0.2,0,0.3,0,0.5-0.1c-0.1-0.2-0.1-0.4-0.2-0.7
		c1.3-1.8,2.6-3.5,3.9-5.2c1.4-1.9,2.9-3.8,4.3-5.8c0.1-0.1,0.2-0.4,0.4-0.2c2.2,1.1,4.4,2.1,6.6,3.2c0.1-0.1,0.2-0.3,0.2-0.4
		c-2.4-1.1-4.8-2.3-7.2-3.5C144.6,94.9,143,97,141.4,99.1z"/>
	<path class="st0" d="M141.7,112.2c0.1,0.1,0.2,0.2,0.3,0.4c2.7-2,5.4-3.9,8-5.8c2.9,2.3,5.8,4.7,8.7,7c0.1-0.1,0.2-0.2,0.3-0.3
		c-3-2.4-6-4.8-9-7.3C147.2,108.2,144.4,110.2,141.7,112.2z"/>
	<path class="st0" d="M138.5,105.9c0.2,0.1,0.4,0.3,0.5,0c2.1-2.6,4.2-5.1,6.3-7.7c0.4-0.5,0.8-0.9,1.1-1.4c0.5-0.5,0.9-1.1,1.3-1.6
		c2.2,1,4.4,2.1,6.6,3.2c0.2,0.1,0.3-0.2,0.4-0.3c-2.4-1.1-4.7-2.3-7.1-3.4C144.5,98.4,141.5,102.1,138.5,105.9z"/>
	<path class="st0" d="M128,108.5c-3.7-1.1-7.4-2.2-11.1-3.3l0,0c-0.2,0-0.4-0.1-0.6-0.1c0-3,0.1-6.1,0.1-9.1c-0.2,0-0.3,0-0.4,0
		c0,3.2-0.1,6.3-0.1,9.4c4,1.2,8,2.4,12.1,3.6C127.9,108.8,127.9,108.6,128,108.5z"/>
	<path class="st0" d="M140.2,107.5c0.1,0.1,0.2,0.2,0.3,0.3c2.9-3.1,5.8-6.3,8.7-9.4c2.5,1.4,5,2.7,7.5,4.2c0.1-0.2,0.3-0.5,0-0.5
		c-2.5-1.4-5-2.8-7.6-4.2C146.2,101.1,143.2,104.3,140.2,107.5z"/>
	<path class="st0" d="M141.5,113.8c0.1,0.1,0.2,0.3,0.2,0.4c2.4-1.4,4.9-2.8,7.3-4.3c2.9,2.8,5.9,5.6,8.8,8.4
		c0.2,0.2,0.3-0.1,0.5-0.2c-3.1-2.9-6.1-5.9-9.2-8.8C146.6,110.8,144,112.3,141.5,113.8z"/>
	<path class="st0" d="M141.3,114.5l0.1,0.3c0.1,0,0.3-0.2,0.5-0.2c2.3-1.1,3.9-1.8,5.9-2.9c0.2-0.1,0.4-0.3,0.6-0.1
		c3,3.1,5.9,6.1,8.9,9.2c0.1-0.1,0.2-0.2,0.4-0.3c-3.1-3.2-6.2-6.4-9.3-9.6C146,112.1,143.6,113.3,141.3,114.5z"/>
	<path class="st0" d="M127,110.9c0-0.2,0-0.3,0-0.5c-4.3-0.9-8.6-1.9-13-2.8c-0.2-2.6-0.3-5.3-0.5-7.9c-0.1,0-0.3,0-0.4,0
		c0.2,2.7,0.3,5.5,0.5,8.2C118.1,108.9,122.6,109.9,127,110.9z"/>
	<path class="st0" d="M126.8,112c0.1-0.1,0.3-0.3,0.4-0.4c-0.1-0.1-0.2-0.2-0.3-0.3c-0.2,0.1-0.4,0.3-0.6,0.2
		c-4.4-0.8-8.8-1.4-13.2-2.2c-0.1-2.5-0.4-5-0.5-7.5c-0.1,0-0.3,0-0.4,0c0.2,2.6,0.4,5.3,0.5,7.9C117.4,110.4,122.1,111.2,126.8,112
		z"/>
	<path class="st0" d="M143.2,114.1c-0.5,0.2-0.9,0.4-1.3,0.6c-0.1,0.1-0.3,0.1-0.4,0.1c-0.1,0.1-0.3,0.2-0.5,0.2
		c0,0.1,0.1,0.3,0.2,0.3c-0.1,0-0.2,0.1-0.3,0.1c0,0.2,0.1,0.3,0.1,0.5c-0.1,0-0.3,0-0.4,0c0,0.1,0,0.4,0.1,0.5c-0.1,0-0.3,0-0.4,0
		c0,0.1,0,0.3,0,0.4c1.2-0.1,2.3-0.2,3.5-0.4c1.1,1.7,2.2,3.5,3.3,5.2c0.9,1.4,1.7,2.8,2.7,4.2c0.6,1,1.2,2,1.9,2.9
		c0.1-0.1,0.3-0.1,0.4-0.2c-2.7-4.2-5.3-8.4-8-12.6c-1,0.1-2,0.2-2.9,0.3c-0.1,0-0.2,0-0.2,0c0.2-0.1,0.3-0.1,0.6-0.1
		c1.2-0.3,2.5-0.5,3.7-0.8c2,2.9,4.1,5.8,6.2,8.7l0.2,0.3c0.7,0.9,1.3,1.8,2,2.8c0.1-0.1,0.3-0.2,0.4-0.3c-2.9-4-5.7-8-8.5-11.9
		c-1.2,0.2-2.4,0.6-3.6,0.7c1.6-0.5,3.1-1,4.6-1.5c1.1,1.4,2.2,2.8,3.3,4.3c0.4,0.5,0.8,1.1,1.3,1.7v0.1c1.4,1.7,2.7,3.3,4,5.1
		c0.1-0.1,0.2-0.2,0.4-0.3c-1.3-1.7-2.7-3.4-4-5.2c-1.5-1.9-3.3-4.1-4.8-6.1c-1.4,0.4-2.8,1-4.2,1.3c1.7-0.7,3.4-1.4,5.1-2.2
		c3,3.4,6,6.7,8.9,10.1c0.1-0.1,0.2-0.2,0.4-0.3c-3.1-3.4-6.1-6.9-9.2-10.4C146.1,112.9,144.7,113.5,143.2,114.1z"/>
	<path class="st0" d="M141.4,127.9L141.4,127.9c-0.2-0.6-0.4-1-0.5-1.5l0,0c-0.9-2.5-1.8-4.9-2.7-7.4c-0.2-0.1-0.3-0.2-0.5-0.2
		c-0.1,0.1-0.1,0.3-0.2,0.4c0.1,0,0.2,0.1,0.3,0.1c1,2.9,2.1,5.7,3.2,8.6c0.5,1.4,1,2.9,1.6,4.3c-2.1,1.4-4.1,2.8-6.2,4.2
		c0.1,0.1,0.2,0.3,0.2,0.4c2.2-1.5,4.4-3,6.5-4.4C142.5,130.9,142,129.3,141.4,127.9z"/>
	<path class="st0" d="M141.6,111.3c0.1,0.1,0.2,0.2,0.3,0.3c2.7-2.1,5.4-4.3,8.1-6.4c0.2-0.2,0.5,0.2,0.7,0.2c2.7,2,5.3,3.9,8,5.8
		c0.1-0.1,0.2-0.2,0.3-0.3c-2.9-2.2-5.9-4.3-8.8-6.4C147.3,106.8,144.5,109.1,141.6,111.3z"/>
	<path class="st0" d="M127.4,114.7c0.2-0.2,0-0.4-0.2-0.5c-0.5,0.7-0.9,1.4-1.3,2.1c-4.8,0-9.7,0-14.5,0c-0.4-2.1-0.7-4.3-1-6.4
		c-0.1,0-0.3,0-0.4,0c0.4,2.3,0.8,4.6,1.1,6.8c5.1,0,10.1,0,15.2,0C126.6,116.1,127,115.4,127.4,114.7z"/>
	<path class="st0" d="M129,117c-0.1,0-0.3,0-0.4-0.1c0-0.1,0-0.3,0-0.4c-0.1,0-0.3,0-0.4,0c0-0.3,0-0.5-0.4-0.5
		c0-0.1,0.1-0.3,0.1-0.4c-0.1,0-0.3-0.1-0.4-0.2c0-0.1,0.2-0.3,0.2-0.3c-0.1-0.1-0.3-0.1-0.4-0.2c-0.5,1.1-1,2.1-1.4,3.2
		c-0.4,0-0.8,0-1.1,0.1l0,0c-4.5,0.2-9,0.4-13.5,0.6c0,0.1,0,0.3,0,0.4c4.5-0.1,9-0.4,13.5-0.5c0.5,0,1-0.1,1.4-0.1
		c0.4-0.9,0.8-1.9,1.3-2.8h0.1c-0.6,1.3-0.9,2.7-1.4,4c-3.9,0.4-7.9,0.8-11.9,1.2l0,0c-0.8,0.1-1.6,0.2-2.4,0.2c0,0.1,0,0.3,0,0.4
		c0.8,0,1.6-0.2,2.4-0.2c0.6-0.1,1-0.1,1.5-0.2c3.6-0.4,7.2-0.7,10.8-1.1c0.3-1.2,0.8-2.3,1.1-3.5c-0.2,1.6-0.6,3.3-0.9,4.9
		c-0.6,0.1-1.3,0.2-1.9,0.3c-0.4,0-0.7,0.1-1.1,0.1h-0.1c-3.6,0.5-7.1,1-10.7,1.5c0,0.2,0,0.3,0,0.5c4-0.6,7.9-1.1,11.9-1.6h0.2
		c0.8-0.1,1.4-0.2,2.2-0.3c0.3-1.7,0.7-3.4,1-5.1c-0.3,2.1-0.6,4.1-0.8,6.2c-4.4,0.9-8.8,1.8-13.2,2.7c0,0.1,0,0.3,0,0.4
		c0.5,0,1-0.2,1.6-0.3c4-0.8,8-1.6,12-2.4c0.3-2,0.6-4,0.8-6c-0.1,2.3-0.3,4.7-0.4,7c-4.1,1.1-8.3,2.1-12.4,3.2c0,0.1,0,0.3,0.1,0.4
		c0.4-0.1,0.6-0.1,0.9-0.2c3.9-1,7.9-2,11.8-3.1C128.7,122.2,128.8,119.6,129,117z"/>
	<path class="st0" d="M139.6,118.5c-0.4-0.1-0.7-0.2-1.1-0.3c0,0.1,0,0.3-0.1,0.4c0.3,0.1,0.5,0.1,0.8,0.2c1.9,4.3,3.8,8.7,5.6,13
		c-2.1,1.4-4.3,2.9-6.4,4.3c0.1,0.1,0.2,0.2,0.3,0.3c2.2-1.5,4.4-3,6.7-4.5C143.5,127.5,141.5,123,139.6,118.5z"/>
	<path class="st0" d="M130.8,118.5c-0.1,0-0.3,0-0.4,0c0.3,3.3,0.7,6.6,1,9.9c-3.2,1.2-6.3,2.5-9.5,3.7c-0.3,0.1-0.6,0.2-1,0.4
		c0.1,0.2,0.1,0.3,0.2,0.5c3.4-1.3,7.4-2.9,10.8-4.3C131.5,125.3,131.1,121.9,130.8,118.5z"/>
	<path class="st0" d="M135.9,119.5c-0.1,0-0.3,0-0.4,0c0.3,1.1,0.6,2.2,0.9,3.3c0.9,3,1.7,6.1,2.6,9.1c-2.4,1.5-4.9,3-7.4,4.4
		c0.1,0.1,0.2,0.3,0.2,0.4c2.5-1.6,5.1-3.1,7.6-4.6C138.3,127.9,137.1,123.7,135.9,119.5z"/>
	<path class="st0" d="M129.5,117.5c-0.1,0-0.3,0-0.5,0c0,2.8,0,5.7,0,8.5c-4,1.2-7.9,2.3-11.9,3.5c0.1,0.1,0.1,0.3,0.2,0.4
		c4-1.2,8.1-2.4,12.2-3.5C129.6,123.4,129.5,120.4,129.5,117.5z"/>
	<path class="st0" d="M134.6,132c0.6-0.3,1-0.6,1.6-0.9c-0.8-3.9-1.6-7.8-2.4-11.7c-0.1,0-0.3,0.1-0.4,0.1c0.8,3.8,1.6,7.6,2.3,11.4
		c-0.8,0.4-1.5,0.8-2.3,1.2l0,0c-2,1.1-4,2.2-6.1,3.3c0.1,0.1,0.2,0.3,0.2,0.4c2-1.1,3.9-2.1,5.9-3.2
		C133.7,132.5,134.1,132.3,134.6,132z"/>
	<path class="st0" d="M132.1,122.7L132.1,122.7L132.1,122.7L132.1,122.7L132.1,122.7c-0.2-1.3-0.5-2.6-0.6-3.8c-0.1,0-0.3,0-0.4,0
		c0.1,1.2,0.5,2.4,0.6,3.6c0.3,2.3,0.7,4.6,1,6.8c-3.2,1.5-6.4,2.9-9.6,4.3c0,0.1,0.1,0.3,0.2,0.4c3.3-1.4,6.6-2.9,9.9-4.4
		C132.8,127.4,132.4,125,132.1,122.7z"/>
	<path class="st0" d="M139.8,117.1c0,0.2,0,0.4-0.1,0.6c-0.4-0.3-0.4,0.1-0.5,0.4c0.5,0.1,1,0.2,1.5,0.3c0.3,0.3,0.4,0.7,0.6,1.1
		l0,0c0.4,0.8,0.8,1.5,1.1,2.4l0.1,0.3c1.6,3,3.1,6.1,4.6,9.2c-1.9,1.3-3.8,2.8-5.7,4.1c-0.3,0.1,0.1,0.6,0.3,0.4
		c1.6-1.1,3.2-2.3,4.7-3.5l0.3-0.2c0.3-0.3,0.6-0.5,0.9-0.7c-2.3-4.5-4.5-8.9-6.7-13.4c-0.4-0.1-0.8-0.2-1.2-0.2
		c0-0.1,0-0.2-0.1-0.3c0.8,0.1,1.6,0,2.4,0.1c2.4,4.2,4.8,8.4,7.3,12.6c-1.7,1.4-3.4,2.8-5.1,4.2c0.1,0.1,0.2,0.2,0.3,0.3
		c0.7-0.6,1.4-1.2,2.1-1.8l0.1-0.1c1.1-0.9,2.1-1.7,3.2-2.5c-2.5-4.4-5-8.8-7.6-13.2C141.6,117.1,140.7,117.1,139.8,117.1z"/>
	<path class="st0" d="M132.5,119.2c-0.2,0-0.3,0-0.5,0.1c0.6,3.7,1.4,7.3,2,11c-3,1.4-5.9,3-8.9,4.4c0.1,0.1,0.1,0.3,0.2,0.4
		c3.1-1.5,6.2-3.1,9.3-4.6C133.9,126.7,133.2,123,132.5,119.2z"/>
	<path class="st0" d="M130.1,118.1c-0.1,0-0.3,0-0.4,0c0.2,3,0.3,6.1,0.5,9.1c-3.7,1.3-7.3,2.6-11,3.9c0,0.1,0.1,0.3,0.1,0.4
		c3.8-1.3,7.6-2.7,11.4-4C130.4,124.4,130.2,121.2,130.1,118.1z"/>
</g>
<g>
	<path class="st0" d="M183.9,55.6c0.2-0.2,0.3-0.5,0.5-0.7c0.1,0.1,0.4,0.3,0.6,0.5c0.1-0.1,0.3-0.4,0.4-0.6
		c0.1,0.1,0.4,0.3,0.5,0.5c0.1-0.1,0.4-0.4,0.5-0.6c0.1,0.2,0.4,0.5,0.5,0.6c0.1-0.1,0.4-0.4,0.5-0.6c0.1,0.2,0.4,0.5,0.5,0.6
		c0.2-0.2,0.7-0.5,0.3-0.8c-1.1-1.5-2.2-3-3.3-4.6c2.6-4.7,5-9.5,7.5-14.3c1.4-2.6,2.7-5.2,4.1-7.8c-0.2-0.1-0.5-0.3-0.7-0.4
		c-3.9,7.5-7.9,15.1-11.8,22.6c1.1,1.4,2.1,2.8,3.1,4.3c-1.7-1.7-3.3-3.6-4.9-5.4c3.4-7.4,6.7-14.9,10.1-22.4
		c-0.2-0.1-0.5-0.3-0.7-0.4c-3.4,7.6-6.9,15.3-10.3,22.9c1.5,1.7,3,3.4,4.5,5c-1.5-1.3-2.9-2.6-4.4-3.9l-0.1-0.1
		c-0.6-0.7-1.4-1.2-2-1.9c2.8-6.7,5.4-13.5,8.1-20.3c0.3-0.7,0.6-1.4,0.7-2.1c-0.2,0-0.5-0.1-0.6-0.1c-3,7.6-6.1,15.1-9.1,22.8
		c1.6,1.4,3.2,2.9,4.8,4.3c0.4,0.3,0.7,0.7,1.1,1c-2.6-2-5.2-4-7.8-6c2.3-7.1,4.7-14.2,7-21.4c0.2-0.4,0-0.8-0.5-0.9
		c-2.5,7.5-5,15-7.5,22.5c0.7,0.5,1.3,1.1,2.1,1.5c0.9,1,2.2,1.7,3.2,2.6c1.1,0.7,2,1.7,3.1,2.3c0,0,0,0.1,0,0.2
		c-0.7-0.6-1.6-1-2.3-1.5c-0.7-0.4-0.7-0.5-1.7-1.1c-0.2-0.1-0.4-0.3-0.5-0.4c-1.9-1.4-4-2.6-5.9-4c2.1-7.1,4.1-14.2,6.1-21.3
		c-0.2,0-0.6-0.1-0.7-0.1c-2,7.3-4.1,14.5-6.2,21.8C176.3,50.7,180.2,53,183.9,55.6z"/>
	<path class="st0" d="M176.7,59.2c-3.5-1.1-7-2.1-10.5-3.2c-0.4-0.1-0.8-0.2-1.2-0.3c-2.4-0.9-5-1.5-7.5-2.4
		c0.2-2.7,0.2-5.4,0.3-8.1s0.2-5.4,0.3-8.1c-0.2,0-0.6,0-0.8,0c-0.2,5.6-0.3,11.2-0.5,16.9c6.6,1.9,13.2,4.1,19.8,6
		C176.7,59.7,176.7,59.4,176.7,59.2z"/>
	<path class="st0" d="M177.9,58.7c0-0.2,0.2-0.6,0.2-0.8c-6-2-12-4.1-18.1-6.1c0.2-3,0.3-6,0.6-9c0.2-2.7,0.2-5.4,0.5-8.1
		c-0.2,0-0.6,0-0.8,0c-0.2,2.7-0.4,5.4-0.5,8.1c-0.2,3.2-0.4,6.3-0.6,9.5c6,2,12,4.1,18,6.1C177.4,58.5,177.6,58.6,177.9,58.7z"/>
	<path class="st0" d="M161,68.6c3.7,0.4,7.4,0.8,11.1,1.3c0.9,0.2,1.3-0.8,1.9-1.2c-0.2-0.2-0.4-0.4-0.5-0.6
		c-0.4,0.4-0.7,0.7-1.1,1.1c-3.7-0.4-7.5-0.8-11.2-1.3c-4.3-0.4-8.5-1-12.8-1.4c-0.3-3.4-0.5-6.8-0.7-10.2c-0.1-1,0-2-0.3-2.9
		c-0.2,0-0.5,0-0.7,0c0.3,4.6,0.7,9.2,0.9,13.7C152.1,67.6,156.5,68.1,161,68.6z"/>
	<path class="st0" d="M182.7,55.9c0.1-0.2,0.3-0.5,0.4-0.7c-4-2.3-8-4.6-12.1-6.9c-0.3-0.1-0.4-0.3-0.4-0.7l0.1-0.3
		c1.6-6.6,3.2-13.3,4.9-19.9c-0.3,0-0.5-0.1-0.8-0.1c-1.7,7-3.5,14-5.1,21.1C174,50.9,178.4,53.3,182.7,55.9z"/>
	<path class="st0" d="M176.2,55.1c0.3,0.1,0.6,0.2,0.9,0.3c1,0.6,2.1,1,3.1,1.5c0.1-0.2,0.2-0.5,0.3-0.7c-5.2-2.3-10.3-4.6-15.5-6.9
		c0.3-2,0.6-4.1,0.9-6.1v-0.3c0.3-1.7,0.5-3.4,0.8-5.1v-0.2c0.4-2.5,0.8-4.9,1.1-7.4c-0.3,0-0.5,0-0.8,0c-0.2,2.3-0.7,4.5-1,6.7V37
		c-0.1,1.3-0.4,2.2-0.6,3.9c-0.2,1-0.2,1.5-0.3,2.2c-0.4,2.2-0.7,4.3-1,6.5C168.2,51.5,172.2,53.3,176.2,55.1z"/>
	<path class="st0" d="M179.3,56.9c-5.6-2.2-11.2-4.4-16.8-6.5c0.5-6,1.2-12,1.8-18c-0.3,0-0.5,0-0.8-0.1c-0.7,6.2-1.2,12.3-2,18.5
		c5.8,2.3,11.6,4.5,17.4,6.8C179,57.5,179.2,57.1,179.3,56.9z"/>
	<path class="st0" d="M170.9,72.6c0.5,0,0.9,0.1,1.4,0c0.7-0.7,1.3-1.5,2-2.2c-0.2-0.2-0.4-0.3-0.6-0.5c-0.6,0.6-1.2,1.3-1.7,2
		c-8.2-0.4-16.4-1-24.7-1.4c-0.5-4.1-1-8.2-1.3-12.4c-0.2,0-0.5,0.1-0.7,0.1c0.3,4.3,0.9,8.6,1.3,12.9
		C154.7,71.6,162.8,72.1,170.9,72.6z"/>
	<path class="st0" d="M193.3,87.9c-0.8-2.7-1.7-5.3-2.6-8c-0.3,0-0.5,0.1-0.8,0.1c2.4,7.3,4.7,14.5,7,21.8c-3.8,2.5-7.6,5-11.4,7.5
		c0.2,0.3,0.3,0.8,0.7,0.5c3.8-2.5,7.9-5.2,11.7-7.7C196.4,97.4,194.9,92.6,193.3,87.9z"/>
	<path class="st0" d="M191.9,100c-1.6-6.6-3.1-13.2-4.7-19.8c-0.2,0.1-0.5,0.2-0.7,0.2c1.6,6.8,3.2,13.6,4.8,20.4
		c-1.9,1-3.7,2.1-5.6,3.1l-0.1,0.1c-2.6,1.5-5.2,3-7.9,4.4c0.1,0.2,0.3,0.4,0.4,0.7c4.7-2.6,9.3-5.3,14-7.8
		C192,100.8,192,100.4,191.9,100z"/>
	<path class="st0" d="M167.2,47.4c-0.1,0.5-0.2,1-0.3,1.5c4.8,2.5,9.6,5,14.6,7.4c0-0.2,0.1-0.6,0.1-0.8c-2.5-1.2-4.9-2.5-7.3-3.7
		l-0.1-0.1c-2.1-1.1-4.2-2.1-6.3-3.2c1.2-6.6,2.5-13.1,3.7-19.7c-0.3,0-0.5,0-0.8-0.1C169.6,34.8,168.4,41.1,167.2,47.4L167.2,47.4z
		"/>
	<path class="st0" d="M189.2,52.9c0.3,1,0.6,1.9,0.9,2.9c0.2,0,0.5-0.1,0.7-0.2c-0.2-0.9-0.5-1.7-0.8-2.5
		c4.6-6.8,9.2-13.7,13.8-20.5c2.1,0.9,4.2,1.9,6.4,2.8l0.2,0.1c1.6,0.6,3,1.3,4.6,2c0.1-0.2,0.2-0.5,0.3-0.7
		c-3.9-1.7-7.8-3.4-11.7-5.1C198.7,38.7,194,45.9,189.2,52.9z"/>
	<path class="st0" d="M194.9,58.1c0.2,0.2,0.4,0.3,0.6,0.5c4.9-5.6,9.9-11.2,14.8-16.9c0.3-0.4,0.7,0,1.1,0.1
		c3.7,1.9,7.5,3.8,11.2,5.7c0.1-0.2,0.2-0.5,0.4-0.7c-4.2-2.1-8.4-4.3-12.6-6.3C205.2,46.3,200.1,52.2,194.9,58.1z"/>
	<path class="st0" d="M157.8,59.5c0.1,0,0.6,0.2,0.7,0.1h0.1c5.3,1.5,10.5,2.7,15.9,4.2c0-0.3,0.1-0.5,0.1-0.8
		c-5.3-1.4-10.5-2.7-15.8-4.1h-0.2c-1.8-0.4-3.6-1-5.4-1.4c-0.1-4.9-0.2-9.8-0.3-14.7c-0.2,0-0.6,0.1-0.7,0.1
		c0,5.1,0.2,10.1,0.3,15.2C154.3,58.6,156,59.1,157.8,59.5z"/>
	<path class="st0" d="M198,63c0.2,0.2,0.4,0.4,0.5,0.6c4.3-4.1,8.7-8.1,13-12.2c0.5-0.5,1.1-1.1,1.7-1.5c4.6,2.9,9.2,5.7,13.8,8.5
		c0.1-0.2,0.3-0.5,0.4-0.6c-4.8-3-9.6-5.9-14.4-8.9C208,53.7,203,58.4,198,63z"/>
	<path class="st0" d="M198.5,64.7c0.2,0.2,0.3,0.4,0.5,0.6c4.7-4.3,9.6-8.4,14.3-12.7c4.5,2.9,8.9,5.9,13.4,8.9l0.2,0.1
		c0.3,0.1,0.5,0.3,0.8,0.5c0.1-0.2,0.2-0.4,0.3-0.6c-4.9-3.3-9.8-6.5-14.7-9.8C208.4,56.1,203.5,60.4,198.5,64.7z"/>
	<path class="st0" d="M189,55.6c0.2-0.1,0.5-0.3,0.6-0.4c-0.7-1.2-1.3-2.5-2-3.7c4.1-7.2,8.2-14.3,12.3-21.5c3.6,1.3,7.1,2.7,10.6,4
		c0.1-0.2,0.1-0.5,0.2-0.8c-3.7-1.4-7.4-2.8-11.2-4.2c-4.3,7.5-8.5,15-12.9,22.4C187.5,52.8,188.2,54.2,189,55.6z"/>
	<path class="st0" d="M206.5,51.9l-0.3,0.3c-2.9,3.1-5.9,6-8.9,9c0.2,0.2,0.3,0.4,0.5,0.6c4.9-5,9.8-10,14.8-14.9
		c4.5,2.6,9,5.3,13.5,7.9c0.1-0.2,0.2-0.5,0.3-0.7c-4.6-2.7-9.3-5.5-13.9-8.2C210.4,48,208.5,50,206.5,51.9z"/>
	<path class="st0" d="M208.6,62.7l-0.1,0.1c-0.1,0.1-0.4,0.3-0.5,0.4c-0.3,0.2-0.4,0.3-0.7,0.4c-2.8,1.8-5.6,3.7-8.4,5.4
		c0.1,0.2,0.2,0.5,0.4,0.7c4.4-2.8,8.7-5.7,13.1-8.5c5.1,4.4,10.1,8.7,15.2,13.1c0.2-0.2,0.3-0.4,0.5-0.6c-5.2-4.4-10.4-9-15.6-13.4
		C211.1,61.1,208.6,62.7,208.6,62.7z"/>
	<path class="st0" d="M198.3,45.3c-2.3,3.1-4.7,6.2-7,9.3c0.1,0.5,0.2,1,0.3,1.4c0.3,0,0.5-0.1,0.8-0.1c-0.1-0.4-0.2-0.8-0.3-1.1
		c2.2-3,4.5-6,6.7-8.9c2.5-3.3,5-6.6,7.4-9.9c0.2-0.2,0.4-0.7,0.7-0.4c3.8,1.9,7.6,3.7,11.4,5.5c0.1-0.2,0.3-0.5,0.3-0.7
		c-4.1-2-8.2-4-12.3-5.9C203.8,38.1,201,41.7,198.3,45.3z"/>
	<path class="st0" d="M198.8,67.8c0.1,0.2,0.3,0.4,0.5,0.6c4.6-3.4,9.2-6.7,13.8-10c5,4,10,8,14.9,12c0.1-0.1,0.4-0.4,0.5-0.6
		c-5.1-4.2-10.3-8.3-15.5-12.4C208.3,60.9,203.5,64.3,198.8,67.8z"/>
	<path class="st0" d="M193.3,56.9c0.3,0.1,0.7,0.5,0.9,0.1c3.6-4.4,7.1-8.8,10.7-13.1c0.6-0.8,1.3-1.5,1.9-2.4
		c0.8-0.8,1.5-1.8,2.3-2.7c3.8,1.8,7.5,3.6,11.3,5.4c0.4,0.2,0.5-0.3,0.6-0.6c-4.1-1.9-8.1-3.9-12.2-5.8
		C203.7,44.1,198.4,50.4,193.3,56.9z"/>
	<path class="st0" d="M175.3,61.4c-6.3-1.9-12.7-3.8-19-5.7h-0.1c-0.3-0.1-0.6-0.2-0.9-0.2c0-5.2,0.1-10.4,0.2-15.6
		c-0.3,0-0.5,0-0.8,0c-0.1,5.4-0.2,10.8-0.2,16.2c6.9,2,13.7,4.1,20.6,6.2C175.2,61.9,175.3,61.6,175.3,61.4z"/>
	<path class="st0" d="M196.2,59.7c0.2,0.2,0.4,0.3,0.6,0.5c5-5.4,9.9-10.7,14.9-16.1c4.2,2.4,8.6,4.7,12.8,7.1
		c0.2-0.3,0.5-0.8,0-0.9c-4.3-2.4-8.6-4.7-12.9-7.1C206.5,48.6,201.3,54.1,196.2,59.7z"/>
	<path class="st0" d="M198.4,70.4c0.1,0.2,0.3,0.5,0.4,0.7c4.2-2.5,8.4-4.8,12.5-7.3c5,4.8,10,9.6,15.1,14.4
		c0.3,0.4,0.6-0.2,0.8-0.3c-5.2-5-10.5-10.1-15.7-15.1C207.1,65.3,202.8,67.9,198.4,70.4z"/>
	<path class="st0" d="M198.1,71.6l0.1,0.6c0.2-0.1,0.5-0.3,0.9-0.4c3.9-1.9,6.8-3.2,10.1-4.9c0.3-0.1,0.7-0.5,1-0.1
		c5.1,5.2,10.1,10.5,15.2,15.7c0.2-0.2,0.4-0.3,0.6-0.5c-5.3-5.5-10.6-11-15.9-16.4C206.2,67.6,202.1,69.5,198.1,71.6z"/>
	<path class="st0" d="M173.7,65.4c0-0.3,0-0.5,0-0.8c-7.4-1.5-14.8-3.3-22.2-4.7c-0.3-4.5-0.5-9-0.8-13.6c-0.2,0-0.6,0-0.8,0
		c0.3,4.7,0.5,9.4,0.8,14.1C158.4,62.1,166.1,63.8,173.7,65.4z"/>
	<path class="st0" d="M173.3,67.3c0.2-0.2,0.5-0.4,0.8-0.7c-0.2-0.2-0.3-0.4-0.5-0.6c-0.3,0.2-0.7,0.5-1.1,0.3
		c-7.5-1.3-15.1-2.4-22.6-3.8c-0.2-4.3-0.6-8.5-0.9-12.8c-0.3,0-0.5,0-0.8,0c0.3,4.5,0.7,9,0.9,13.5C157.2,64.6,165.2,66,173.3,67.3
		z"/>
	<path class="st0" d="M201.5,71c-0.8,0.3-1.6,0.6-2.3,1.1c-0.2,0.2-0.5,0.2-0.7,0.1c-0.2,0.1-0.6,0.3-0.8,0.4
		c0.1,0.1,0.2,0.4,0.3,0.6c-0.1,0-0.4,0.1-0.6,0.1c0.1,0.3,0.2,0.5,0.2,0.8c-0.2,0-0.6,0-0.8,0c0,0.2,0.1,0.6,0.1,0.8
		c-0.2,0-0.5,0-0.7,0.1c0,0.2,0,0.6,0,0.8c2-0.2,4-0.4,6-0.6c1.9,3,3.8,5.9,5.7,8.9c1.5,2.4,3,4.8,4.6,7.1c1,1.7,2.1,3.4,3.2,5
		c0.2-0.1,0.5-0.2,0.7-0.4c-4.6-7.1-9.1-14.3-13.6-21.5c-1.7,0.1-3.4,0.3-5,0.5c-0.2,0-0.3,0-0.4,0c0.4-0.1,0.5-0.2,0.9-0.2
		c2.1-0.4,4.2-0.9,6.3-1.3c3.5,5,7,9.9,10.6,14.8l0.3,0.4c1.2,1.5,2.3,3.1,3.4,4.7c0.2-0.2,0.4-0.3,0.7-0.4
		c-4.9-6.8-9.7-13.6-14.6-20.4c-2,0.4-4.1,1-6.1,1.2c2.7-0.8,5.3-1.7,7.9-2.5c1.9,2.4,3.8,4.8,5.7,7.3c0.6,0.8,1.4,1.8,2.2,2.8
		l0.1,0.1c2.4,2.9,4.5,5.7,6.8,8.7c0.2-0.2,0.4-0.3,0.6-0.5c-2.3-2.9-4.7-5.8-6.9-8.8c-2.6-3.3-5.7-7.1-8.2-10.4
		c-2.4,0.6-4.8,1.7-7.2,2.2c2.9-1.2,5.8-2.4,8.7-3.7c5.1,5.8,10.2,11.5,15.3,17.3c0.2-0.2,0.4-0.3,0.6-0.5
		c-5.3-5.9-10.4-11.8-15.7-17.7C206.3,68.9,203.9,70,201.5,71z"/>
	<path class="st0" d="M198.3,94.5l-0.1-0.2c-0.3-0.9-0.6-1.5-0.9-2.4v-0.1c-1.5-4.2-3.1-8.4-4.6-12.6c-0.3-0.1-0.6-0.3-0.8-0.4
		c-0.1,0.2-0.2,0.5-0.3,0.7c0.1,0.1,0.4,0.2,0.5,0.2c1.8,4.9,3.6,9.8,5.4,14.7c0.9,2.4,1.8,4.9,2.7,7.3c-3.5,2.4-7.1,4.9-10.6,7.2
		c0.1,0.2,0.3,0.4,0.4,0.7c3.7-2.5,7.5-5.1,11.2-7.6C200.2,99.8,199.4,96.9,198.3,94.5z"/>
	<path class="st0" d="M198.7,66.2c0.2,0.2,0.3,0.4,0.5,0.6c4.6-3.7,9.3-7.4,13.9-11c0.4-0.4,0.8,0.3,1.1,0.4
		c4.6,3.3,9.1,6.6,13.7,10c0.2-0.2,0.3-0.4,0.5-0.6c-5-3.7-10-7.4-15.1-11C208.5,58.5,203.6,62.3,198.7,66.2z"/>
	<path class="st0" d="M174.4,71.9c0.3-0.4-0.1-0.6-0.3-0.8c-0.9,1.2-1.5,2.5-2.3,3.7c-8.3,0-16.6,0-24.9,0c-0.6-3.7-1.2-7.3-1.8-11
		c-0.2,0-0.6,0-0.8,0c0.6,3.9,1.3,7.8,1.9,11.7c8.7,0,17.3,0,26,0C172.9,74.3,173.6,73.1,174.4,71.9z"/>
	<path class="st0" d="M177.2,75.9c-0.2,0-0.5-0.1-0.7-0.1c0-0.2,0-0.6,0-0.8c-0.2,0-0.5,0-0.7,0c0.1-0.5-0.1-0.8-0.6-0.9
		c0.1-0.2,0.2-0.5,0.2-0.7c-0.2-0.1-0.6-0.2-0.8-0.3c0.1-0.1,0.3-0.4,0.3-0.6c-0.2-0.1-0.5-0.2-0.7-0.3c-0.9,1.8-1.7,3.6-2.5,5.5
		c-0.6,0-1.3,0.1-1.9,0.1l0,0c-7.7,0.3-15.4,0.7-23.1,0.9c0,0.2,0,0.6,0,0.8c7.7-0.2,15.3-0.7,23-0.9c0.9,0,1.7-0.2,2.4-0.2
		c0.7-1.6,1.4-3.2,2.2-4.8c0,0,0.1,0,0.2-0.1c-1,2.2-1.5,4.6-2.4,6.9c-6.7,0.7-13.6,1.4-20.3,2.1l0,0c-1.4,0.1-2.7,0.3-4.1,0.4
		c0,0.2,0,0.6,0,0.7c1.4,0,2.7-0.3,4.1-0.3c1-0.1,1.7-0.2,2.5-0.3c6.2-0.7,12.3-1.2,18.5-1.9c0.6-2,1.3-4,1.9-6
		c-0.3,2.8-1.1,5.6-1.6,8.4c-1.1,0.1-2.3,0.3-3.3,0.5c-0.6,0.1-1.3,0.2-1.9,0.2h-0.2c-6.1,0.9-12.2,1.7-18.3,2.6c0,0.3,0,0.5,0,0.8
		c6.8-1,13.5-1.9,20.3-2.8h0.3c1.3-0.1,2.5-0.4,3.8-0.6c0.5-2.9,1.1-5.8,1.8-8.7c-0.5,3.5-1,7.1-1.4,10.6c-7.5,1.6-15,3.1-22.5,4.6
		c0,0.2,0,0.5,0,0.7c0.9-0.1,1.8-0.3,2.7-0.5c6.8-1.4,13.7-2.8,20.5-4.2c0.5-3.4,0.9-6.9,1.4-10.3c-0.2,4-0.5,8-0.8,12
		c-7.1,1.8-14.2,3.6-21.3,5.5c0,0.2,0.1,0.5,0.2,0.7c0.6-0.2,1-0.3,1.6-0.4c6.7-1.7,13.5-3.5,20.3-5.2
		C176.6,84.8,176.8,80.4,177.2,75.9z"/>
	<path class="st0" d="M195.2,78.5c-0.6-0.2-1.2-0.3-1.9-0.5c0,0.2-0.1,0.5-0.1,0.7c0.5,0.1,0.9,0.2,1.4,0.4
		c3.2,7.4,6.5,14.8,9.7,22.3c-3.7,2.4-7.3,4.9-10.9,7.3c0.1,0.1,0.4,0.4,0.5,0.6c3.8-2.6,7.6-5.1,11.4-7.7
		C201.9,93.9,198.5,86.2,195.2,78.5z"/>
	<path class="st0" d="M180.1,78.5c-0.2,0-0.6,0-0.7,0c0.5,5.6,1.2,11.3,1.7,16.9c-5.4,2.1-10.8,4.2-16.2,6.3
		c-0.5,0.2-1.1,0.4-1.8,0.7c0.1,0.3,0.2,0.6,0.3,0.8c5.8-2.3,12.7-5,18.5-7.3C181.3,90.1,180.7,84.3,180.1,78.5z"/>
	<path class="st0" d="M188.8,80.2c-0.2,0-0.5,0-0.7,0c0.4,1.9,1,3.8,1.6,5.6c1.5,5.2,2.9,10.4,4.5,15.6c-4.2,2.5-8.4,5.1-12.6,7.6
		c0.1,0.2,0.3,0.5,0.4,0.7c4.3-2.7,8.7-5.3,13-7.9C193,94.6,190.9,87.4,188.8,80.2z"/>
	<path class="st0" d="M178,76.8c-0.2,0-0.6,0-0.8,0c0.1,4.8,0,9.7,0.1,14.5c-6.8,2-13.6,4-20.4,6c0.1,0.2,0.2,0.5,0.3,0.7
		c6.9-2.1,13.9-4.1,20.8-6.1C178,86.9,177.9,81.8,178,76.8z"/>
	<path class="st0" d="M186.6,101.7c1-0.5,1.8-1,2.7-1.5c-1.4-6.7-2.7-13.3-4.1-20c-0.3,0-0.5,0.1-0.8,0.1c1.3,6.5,2.7,13,3.9,19.5
		c-1.3,0.7-2.6,1.4-3.9,2.1l0,0c-3.5,1.9-6.9,3.7-10.4,5.6c0.1,0.2,0.3,0.5,0.4,0.7c3.4-1.8,6.8-3.6,10.1-5.5
		C185.2,102.4,185.9,102.1,186.6,101.7z"/>
	<path class="st0" d="M182.4,85.7L182.4,85.7L182.4,85.7C182.4,85.7,182.4,85.6,182.4,85.7C182.4,85.6,182.4,85.6,182.4,85.7
		c-0.3-2.1-0.8-4.4-1.1-6.5c-0.2,0-0.6,0-0.8,0c0.2,2,0.8,4.2,1,6.2c0.5,3.9,1.2,7.8,1.8,11.7c-5.5,2.5-11,4.9-16.5,7.4
		c0.1,0.2,0.3,0.5,0.3,0.6c5.7-2.5,11.3-5,17-7.5C183.6,93.7,182.9,89.7,182.4,85.7z"/>
	<path class="st0" d="M195.6,76c0.1,0.3,0,0.7-0.1,1c-0.7-0.4-0.7,0.2-0.8,0.6c0.8,0.2,1.7,0.3,2.5,0.5c0.5,0.5,0.7,1.3,1,1.9v0.1
		c0.7,1.3,1.4,2.6,2,4l0.2,0.4c2.7,5.2,5.3,10.4,7.9,15.7c-3.3,2.3-6.5,4.7-9.7,7.1c-0.6,0.2,0.1,1,0.4,0.6c2.7-2,5.4-3.9,8.1-5.9
		l0.5-0.3c0.5-0.4,1.1-0.8,1.6-1.2c-3.9-7.6-7.7-15.3-11.5-22.9c-0.6-0.2-1.3-0.4-2-0.3c0-0.1-0.1-0.4-0.1-0.5
		c1.4,0.1,2.7,0.1,4.1,0.1c4.2,7.2,8.3,14.4,12.4,21.6c-2.9,2.4-5.8,4.7-8.7,7.1c0.2,0.2,0.3,0.4,0.5,0.5c1.2-1,2.4-2,3.6-3l0.1-0.1
		c1.8-1.5,3.6-2.9,5.4-4.4c-4.3-7.5-8.6-15.1-13-22.6C198.7,76.1,197.1,76,195.6,76z"/>
	<path class="st0" d="M183.2,79.8c-0.3,0-0.5,0.1-0.8,0.1c1.1,6.3,2.4,12.5,3.4,18.8c-5.1,2.5-10.2,5.1-15.3,7.6
		c0.1,0.2,0.2,0.5,0.3,0.7c5.3-2.6,10.6-5.3,15.9-7.9C185.5,92.6,184.3,86.2,183.2,79.8z"/>
	<path class="st0" d="M179,77.8c-0.2,0-0.6,0-0.8,0c0.3,5.2,0.6,10.4,0.8,15.6c-6.3,2.2-12.5,4.4-18.8,6.6c0,0.3,0.1,0.5,0.1,0.8
		c6.5-2.2,13-4.6,19.5-6.8C179.5,88.6,179.2,83.2,179,77.8z"/>
</g>
<g>
	<path class="st0" d="M112.2,17.9c0.1-0.1,0.2-0.2,0.2-0.4c0.1,0.1,0.2,0.2,0.3,0.2c0.1-0.1,0.2-0.2,0.2-0.3
		c0.1,0.1,0.2,0.2,0.3,0.2c0.1-0.1,0.2-0.2,0.3-0.3c0.1,0.1,0.2,0.2,0.3,0.3c0.1-0.1,0.2-0.2,0.3-0.3c0.1,0.1,0.2,0.2,0.3,0.3
		c0.1-0.1,0.4-0.3,0.2-0.4c-0.6-0.8-1.2-1.6-1.7-2.4c1.3-2.4,2.6-4.9,3.9-7.4c0.7-1.3,1.4-2.7,2.1-4c-0.1-0.1-0.3-0.2-0.3-0.2
		c-2,3.9-4.1,7.8-6.1,11.8c0.6,0.7,1.1,1.5,1.6,2.2c-0.9-0.9-1.7-1.9-2.6-2.8c1.8-3.9,3.5-7.8,5.3-11.6c-0.1,0-0.3-0.1-0.4-0.2
		c-1.8,4-3.6,7.9-5.4,11.9c0.8,0.9,1.6,1.7,2.4,2.6c-0.8-0.7-1.5-1.3-2.3-2L111,15c-0.3-0.4-0.7-0.6-1.1-1c1.4-3.5,2.8-7,4.2-10.5
		c0.1-0.4,0.3-0.7,0.4-1.1c-0.1,0-0.2,0-0.3,0c-1.6,3.9-3.2,7.9-4.7,11.8c0.8,0.7,1.7,1.5,2.5,2.2c0.2,0.2,0.4,0.4,0.6,0.5
		c-1.4-1-2.7-2.1-4.1-3.1c1.2-3.7,2.4-7.4,3.7-11.1c0.1-0.2,0-0.4-0.3-0.4c-1.3,3.9-2.6,7.8-3.9,11.7c0.4,0.3,0.7,0.6,1.1,0.8
		c0.5,0.5,1.1,0.9,1.7,1.3c0.5,0.4,1,0.9,1.6,1.2v0.1c-0.4-0.3-0.8-0.5-1.2-0.8c-0.4-0.2-0.4-0.2-0.9-0.5c-0.1-0.1-0.2-0.2-0.2-0.2
		c-1-0.7-2.1-1.4-3.1-2.1c1.1-3.7,2.1-7.4,3.2-11.1c-0.1,0-0.3,0-0.4-0.1c-1.1,3.8-2.1,7.5-3.2,11.3
		C108.3,15.3,110.3,16.5,112.2,17.9z"/>
	<path class="st0" d="M108.5,19.7c-1.8-0.5-3.6-1.1-5.4-1.7c-0.2-0.1-0.4-0.1-0.6-0.2c-1.3-0.5-2.6-0.8-3.9-1.2
		c0.1-1.4,0.1-2.8,0.1-4.2c0.1-1.4,0.1-2.8,0.1-4.2c-0.1,0-0.3,0-0.4,0c-0.1,2.9-0.2,5.8-0.3,8.8c3.4,1,6.8,2.1,10.3,3.1
		C108.5,20,108.5,19.8,108.5,19.7z"/>
	<path class="st0" d="M109.1,19.4c0-0.1,0.1-0.3,0.1-0.4c-3.1-1-6.3-2.1-9.4-3.2c0.1-1.6,0.2-3.1,0.3-4.7c0.1-1.4,0.1-2.8,0.3-4.2
		c-0.1,0-0.3,0-0.4,0c-0.1,1.4-0.2,2.8-0.3,4.2c-0.1,1.6-0.2,3.3-0.3,4.9c3.1,1.1,6.2,2.1,9.3,3.2C108.9,19.3,109,19.4,109.1,19.4z"
		/>
	<path class="st0" d="M100.4,24.6c1.9,0.2,3.8,0.4,5.8,0.7c0.5,0.1,0.7-0.4,1-0.6c-0.1-0.1-0.2-0.2-0.3-0.3
		c-0.2,0.2-0.4,0.4-0.6,0.6c-1.9-0.2-3.9-0.4-5.8-0.7c-2.2-0.2-4.4-0.5-6.7-0.7c-0.2-1.8-0.2-3.5-0.4-5.3c0-0.5,0-1-0.1-1.5
		c-0.1,0-0.3,0-0.4,0c0.2,2.4,0.3,4.8,0.5,7.1C95.7,24.1,98,24.3,100.4,24.6z"/>
	<path class="st0" d="M111.6,18c0.1-0.1,0.2-0.3,0.2-0.4c-2.1-1.2-4.2-2.4-6.3-3.6c-0.2-0.1-0.2-0.2-0.2-0.4l0.1-0.2
		c0.8-3.4,1.7-6.9,2.5-10.3c-0.1,0-0.3,0-0.4,0c-0.9,3.7-1.8,7.3-2.7,11C107.1,15.4,109.4,16.7,111.6,18z"/>
	<path class="st0" d="M108.3,17.6c0.2,0.1,0.3,0.1,0.5,0.2c0.5,0.3,1.1,0.5,1.6,0.8c0-0.1,0.1-0.3,0.2-0.4c-2.7-1.2-5.4-2.4-8.1-3.6
		c0.2-1.1,0.3-2.1,0.5-3.2v-0.1c0.2-0.9,0.3-1.8,0.4-2.6V8.6c0.2-1.3,0.4-2.5,0.6-3.8c-0.1,0-0.3,0-0.4,0c-0.1,1.2-0.4,2.3-0.5,3.5
		l0,0c-0.1,0.7-0.2,1.1-0.3,2c-0.1,0.5-0.1,0.8-0.2,1.2c-0.2,1.1-0.4,2.2-0.5,3.4C104.1,15.7,106.2,16.6,108.3,17.6z"/>
	<path class="st0" d="M109.8,18.5c-2.9-1.1-5.8-2.3-8.8-3.4c0.3-3.1,0.6-6.2,1-9.4c-0.1,0-0.3,0-0.4,0c-0.3,3.2-0.6,6.4-1,9.6
		c3,1.2,6,2.3,9,3.5C109.7,18.8,109.8,18.6,109.8,18.5z"/>
	<path class="st0" d="M105.5,26.7c0.2,0,0.5,0.1,0.7,0c0.4-0.4,0.7-0.8,1-1.1c-0.1-0.1-0.2-0.2-0.3-0.3c-0.3,0.3-0.6,0.7-0.9,1
		c-4.3-0.2-8.5-0.5-12.8-0.7c-0.3-2.1-0.5-4.3-0.7-6.4c-0.1,0-0.3,0-0.4,0.1c0.2,2.2,0.5,4.5,0.7,6.7
		C97.1,26.2,101.3,26.4,105.5,26.7z"/>
	<path class="st0" d="M117.1,34.6c-0.4-1.4-0.9-2.8-1.3-4.2c-0.1,0-0.3,0-0.4,0.1c1.2,3.8,2.4,7.6,3.7,11.3c-2,1.3-3.9,2.6-5.9,3.9
		c0.1,0.2,0.2,0.4,0.3,0.3c2-1.3,4.1-2.7,6.1-4C118.7,39.6,117.9,37.1,117.1,34.6z"/>
	<path class="st0" d="M116.4,40.9c-0.8-3.4-1.6-6.9-2.4-10.3c-0.1,0-0.3,0.1-0.4,0.1c0.9,3.5,1.7,7.1,2.5,10.6
		c-1,0.5-1.9,1.1-2.9,1.6l0,0c-1.4,0.8-2.7,1.6-4.1,2.3c0.1,0.1,0.1,0.2,0.2,0.3c2.4-1.3,4.8-2.7,7.3-4.1
		C116.5,41.3,116.4,41.1,116.4,40.9z"/>
	<path class="st0" d="M103.6,13.6c-0.1,0.3-0.1,0.5-0.1,0.8c2.5,1.3,5,2.6,7.6,3.8c0-0.1,0-0.3,0.1-0.4c-1.3-0.6-2.5-1.3-3.8-1.9
		h-0.1c-1.1-0.6-2.2-1.1-3.3-1.7c0.6-3.4,1.3-6.8,1.9-10.3c-0.1,0-0.3,0-0.4,0C104.8,7.1,104.2,10.3,103.6,13.6L103.6,13.6z"/>
	<path class="st0" d="M115,16.5c0.2,0.5,0.3,1,0.5,1.5c0.1,0,0.3-0.1,0.4-0.1c-0.1-0.4-0.3-0.9-0.4-1.3c2.4-3.5,4.8-7.1,7.1-10.7
		c1.1,0.5,2.2,1,3.3,1.4l0.1,0.1c0.8,0.3,1.6,0.7,2.4,1c0-0.1,0.1-0.3,0.1-0.4c-2-0.9-4-1.8-6.1-2.6C119.9,9.1,117.5,12.8,115,16.5z
		"/>
	<path class="st0" d="M118,19.1c0.1,0.1,0.2,0.2,0.3,0.3c2.6-2.9,5.1-5.8,7.7-8.8c0.1-0.2,0.4,0,0.6,0.1c1.9,1,3.9,2,5.8,3
		c0.1-0.1,0.1-0.3,0.2-0.4c-2.2-1.1-4.4-2.2-6.5-3.3C123.3,13,120.6,16.1,118,19.1z"/>
	<path class="st0" d="M98.7,19.9c0,0,0.3,0.1,0.4,0.1h0.1c2.8,0.8,5.5,1.4,8.2,2.2c0-0.1,0.1-0.3,0.1-0.4c-2.8-0.7-5.4-1.4-8.2-2.1
		h-0.1c-0.9-0.2-1.9-0.5-2.8-0.7c0-2.5-0.1-5.1-0.1-7.6c-0.1,0-0.3,0.1-0.4,0.1c0,2.6,0.1,5.3,0.2,7.9
		C96.9,19.4,97.8,19.6,98.7,19.9z"/>
	<path class="st0" d="M119.6,21.7c0.1,0.1,0.2,0.2,0.3,0.3c2.2-2.1,4.5-4.2,6.8-6.3c0.3-0.3,0.6-0.5,0.9-0.8c2.4,1.5,4.8,3,7.1,4.4
		c0.1-0.1,0.2-0.2,0.2-0.3c-2.5-1.6-5-3.1-7.5-4.6C124.8,16.8,122.2,19.3,119.6,21.7z"/>
	<path class="st0" d="M119.8,22.6c0.1,0.1,0.2,0.2,0.3,0.3c2.5-2.2,5-4.4,7.4-6.6c2.3,1.5,4.6,3.1,7,4.6l0.1,0.1
		c0.2,0.1,0.3,0.2,0.4,0.2c0.1-0.1,0.1-0.2,0.2-0.3c-2.6-1.7-5.1-3.4-7.7-5.1C125,18.1,122.4,20.4,119.8,22.6z"/>
	<path class="st0" d="M114.9,17.9c0.1-0.1,0.2-0.2,0.3-0.2c-0.3-0.6-0.7-1.3-1-1.9c2.1-3.7,4.3-7.4,6.4-11.2
		c1.9,0.7,3.7,1.4,5.5,2.1c0-0.1,0.1-0.3,0.1-0.4c-1.9-0.7-3.9-1.5-5.8-2.2c-2.2,3.9-4.4,7.8-6.7,11.7
		C114.1,16.4,114.5,17.1,114.9,17.9z"/>
	<path class="st0" d="M124,15.9l-0.2,0.2c-1.5,1.6-3.1,3.1-4.6,4.7c0.1,0.1,0.2,0.2,0.3,0.3c2.6-2.6,5.1-5.2,7.7-7.8
		c2.4,1.3,4.7,2.8,7,4.1c0-0.1,0.1-0.3,0.2-0.4c-2.4-1.4-4.8-2.9-7.2-4.3C126,13.9,125,14.9,124,15.9z"/>
	<path class="st0" d="M125.1,21.5L125.1,21.5c-0.1,0.1-0.3,0.2-0.4,0.2c-0.1,0.1-0.2,0.1-0.4,0.2c-1.4,0.9-2.9,1.9-4.3,2.8
		c0.1,0.1,0.1,0.2,0.2,0.4c2.3-1.5,4.5-3,6.8-4.4c2.6,2.3,5.3,4.5,7.9,6.8c0.1-0.1,0.2-0.2,0.3-0.3c-2.7-2.3-5.4-4.7-8.1-7
		C126.4,20.7,125.1,21.5,125.1,21.5z"/>
	<path class="st0" d="M119.7,12.5c-1.2,1.6-2.4,3.2-3.6,4.8c0.1,0.3,0.1,0.5,0.2,0.8c0.1,0,0.3,0,0.4-0.1c0-0.2-0.1-0.4-0.1-0.6
		c1.2-1.6,2.3-3.1,3.5-4.6c1.3-1.7,2.6-3.4,3.9-5.1c0.1-0.1,0.2-0.3,0.4-0.2c2,1,3.9,1.9,5.9,2.9c0-0.1,0.1-0.3,0.2-0.4
		c-2.1-1-4.2-2.1-6.4-3.1C122.6,8.8,121.1,10.6,119.7,12.5z"/>
	<path class="st0" d="M120,24.2c0.1,0.1,0.2,0.2,0.2,0.3c2.4-1.7,4.8-3.5,7.2-5.2c2.6,2.1,5.2,4.1,7.8,6.2c0.1-0.1,0.2-0.2,0.3-0.3
		c-2.7-2.2-5.4-4.3-8-6.5C124.9,20.6,122.4,22.4,120,24.2z"/>
	<path class="st0" d="M117.1,18.5c0.1,0.1,0.3,0.3,0.5,0c1.9-2.3,3.7-4.6,5.6-6.8c0.3-0.4,0.7-0.8,1-1.2c0.4-0.4,0.8-0.9,1.2-1.4
		c2,0.9,3.9,1.9,5.9,2.8c0.2,0.1,0.3-0.2,0.3-0.3c-2.1-1-4.2-2-6.3-3C122.5,11.9,119.8,15.2,117.1,18.5z"/>
	<path class="st0" d="M107.8,20.8c-3.3-1-6.6-2-9.9-2.9l0,0c-0.2,0-0.3-0.1-0.5-0.1c0-2.7,0.1-5.4,0.1-8.1c-0.1,0-0.3,0-0.4,0
		c0,2.8-0.1,5.6-0.1,8.4c3.6,1,7.1,2.1,10.7,3.2C107.7,21.1,107.8,21,107.8,20.8z"/>
	<path class="st0" d="M118.6,20c0.1,0.1,0.2,0.2,0.3,0.3c2.6-2.8,5.2-5.6,7.8-8.4c2.2,1.3,4.4,2.4,6.6,3.7c0.1-0.2,0.3-0.4,0-0.5
		c-2.2-1.2-4.5-2.5-6.7-3.7C124,14.2,121.3,17.1,118.6,20z"/>
	<path class="st0" d="M119.8,25.6c0,0.1,0.1,0.3,0.2,0.4c2.2-1.3,4.3-2.5,6.5-3.8c2.6,2.5,5.2,5,7.8,7.5c0.1,0.2,0.3-0.1,0.4-0.1
		c-2.7-2.6-5.5-5.2-8.2-7.9C124.3,22.9,122.1,24.2,119.8,25.6z"/>
	<path class="st0" d="M119.6,26.2l0.1,0.3c0.1,0,0.3-0.1,0.5-0.2c2-1,3.5-1.6,5.2-2.6c0.2,0,0.4-0.3,0.5-0.1
		c2.6,2.7,5.3,5.4,7.9,8.2c0.1-0.1,0.2-0.2,0.3-0.3c-2.8-2.8-5.5-5.7-8.3-8.5C123.8,24.1,121.7,25.1,119.6,26.2z"/>
	<path class="st0" d="M107,22.9c0-0.1,0-0.3,0-0.4c-3.9-0.8-7.7-1.7-11.5-2.5c-0.2-2.3-0.3-4.7-0.4-7.1c-0.1,0-0.3,0-0.4,0
		c0.1,2.4,0.3,4.9,0.4,7.3C99,21.2,103,22.1,107,22.9z"/>
	<path class="st0" d="M106.7,23.9c0.1-0.1,0.3-0.2,0.4-0.3c-0.1-0.1-0.2-0.2-0.3-0.3c-0.2,0.1-0.3,0.3-0.6,0.2
		c-3.9-0.7-7.8-1.3-11.8-2c-0.1-2.2-0.3-4.4-0.5-6.7c-0.1,0-0.3,0-0.4,0c0.1,2.3,0.3,4.7,0.5,7C98.4,22.5,102.5,23.2,106.7,23.9z"/>
	<path class="st0" d="M121.4,25.9c-0.4,0.2-0.8,0.3-1.2,0.6c-0.1,0.1-0.2,0.1-0.4,0.1c-0.1,0.1-0.3,0.2-0.4,0.2
		c0,0.1,0.1,0.2,0.1,0.3c-0.1,0-0.2,0-0.3,0.1c0,0.1,0.1,0.3,0.1,0.4c-0.1,0-0.3,0-0.4,0c0,0.1,0,0.3,0.1,0.4c-0.1,0-0.3,0-0.3,0
		c0,0.1,0,0.3,0,0.4c1-0.1,2.1-0.2,3.1-0.3c1,1.5,2,3.1,2.9,4.6c0.8,1.2,1.5,2.5,2.4,3.7c0.5,0.9,1.1,1.8,1.6,2.6
		c0.1-0.1,0.2-0.1,0.3-0.2c-2.4-3.7-4.7-7.4-7.1-11.2c-0.9,0.1-1.7,0.2-2.6,0.3c-0.1,0-0.1,0-0.2,0c0.2-0.1,0.3-0.1,0.5-0.1
		c1.1-0.2,2.2-0.5,3.3-0.7c1.8,2.6,3.7,5.1,5.5,7.7l0.1,0.2c0.6,0.8,1.2,1.6,1.8,2.5c0.1-0.1,0.2-0.2,0.3-0.2
		c-2.5-3.5-5.1-7.1-7.6-10.6c-1.1,0.2-2.1,0.5-3.2,0.6c1.4-0.4,2.8-0.9,4.1-1.3c1,1.3,2,2.5,3,3.8c0.3,0.4,0.7,1,1.1,1.5l0,0
		c1.2,1.5,2.4,3,3.5,4.5c0.1-0.1,0.2-0.2,0.3-0.3c-1.2-1.5-2.4-3-3.6-4.6c-1.3-1.7-3-3.7-4.3-5.4c-1.3,0.3-2.5,0.9-3.8,1.1
		c1.5-0.6,3-1.3,4.5-1.9c2.6,3,5.3,6,7.9,9c0.1-0.1,0.2-0.2,0.3-0.3c-2.7-3.1-5.4-6.2-8.2-9.2C123.9,24.8,122.6,25.3,121.4,25.9z"/>
	<path class="st0" d="M119.7,38.1L119.7,38.1c-0.2-0.6-0.3-0.9-0.5-1.3l0,0c-0.8-2.2-1.6-4.4-2.4-6.5c-0.1-0.1-0.3-0.1-0.4-0.2
		c-0.1,0.1-0.1,0.3-0.2,0.4c0.1,0,0.2,0.1,0.3,0.1c0.9,2.5,1.8,5.1,2.8,7.6c0.5,1.3,0.9,2.6,1.4,3.8c-1.8,1.3-3.7,2.5-5.5,3.8
		c0.1,0.1,0.1,0.2,0.2,0.4c1.9-1.3,3.9-2.6,5.8-4C120.7,40.8,120.3,39.3,119.7,38.1z"/>
	<path class="st0" d="M119.9,23.4c0.1,0.1,0.2,0.2,0.3,0.3c2.4-1.9,4.8-3.8,7.2-5.7c0.2-0.2,0.4,0.1,0.6,0.2
		c2.4,1.7,4.7,3.5,7.1,5.2c0.1-0.1,0.2-0.2,0.2-0.3c-2.6-1.9-5.2-3.8-7.8-5.7C125,19.3,122.5,21.3,119.9,23.4z"/>
	<path class="st0" d="M107.3,26.3c0.2-0.2,0-0.3-0.2-0.4c-0.4,0.6-0.8,1.3-1.2,1.9c-4.3,0-8.6,0-12.9,0c-0.3-1.9-0.6-3.8-0.9-5.7
		c-0.1,0-0.3,0-0.4,0c0.3,2,0.7,4.1,1,6.1c4.5,0,9,0,13.5,0C106.5,27.6,106.9,26.9,107.3,26.3z"/>
	<path class="st0" d="M108.7,28.4c-0.1,0-0.3,0-0.4,0c0-0.1,0-0.3,0-0.4c-0.1,0-0.3,0-0.4,0c0-0.3,0-0.4-0.3-0.5
		c0-0.1,0.1-0.3,0.1-0.3c-0.1,0-0.3-0.1-0.4-0.2c0-0.1,0.1-0.2,0.2-0.3c-0.1-0.1-0.2-0.1-0.4-0.2c-0.4,0.9-0.9,1.9-1.3,2.8
		c-0.3,0-0.7,0-1,0.1l0,0c-4,0.1-8,0.4-12,0.5c0,0.1,0,0.3,0,0.4c4-0.1,8-0.4,12-0.4c0.5,0,0.9-0.1,1.3-0.1c0.4-0.8,0.7-1.7,1.1-2.5
		h0.1c-0.5,1.2-0.8,2.4-1.3,3.6c-3.5,0.4-7.1,0.7-10.6,1.1l0,0c-0.7,0.1-1.4,0.2-2.1,0.2c0,0.1,0,0.3,0,0.4c0.7,0,1.4-0.2,2.1-0.2
		c0.5-0.1,0.9-0.1,1.3-0.2c3.2-0.3,6.4-0.6,9.6-1c0.3-1,0.7-2.1,1-3.1c-0.2,1.5-0.6,2.9-0.8,4.3c-0.6,0.1-1.2,0.1-1.7,0.2
		c-0.3,0-0.7,0.1-1,0.1h-0.1c-3.2,0.5-6.3,0.9-9.5,1.3c0,0.1,0,0.3,0,0.4c3.5-0.5,7-1,10.5-1.5h0.1c0.7-0.1,1.3-0.2,2-0.3
		c0.3-1.5,0.6-3,0.9-4.5c-0.2,1.8-0.5,3.7-0.7,5.5c-3.9,0.8-7.8,1.6-11.7,2.4c0,0.1,0,0.3,0,0.4c0.5,0,0.9-0.1,1.4-0.2
		c3.5-0.7,7.1-1.4,10.6-2.2c0.2-1.8,0.5-3.6,0.7-5.4c-0.1,2.1-0.2,4.2-0.4,6.3c-3.7,0.9-7.4,1.9-11.1,2.9c0,0.1,0,0.3,0.1,0.4
		c0.3-0.1,0.5-0.1,0.8-0.2c3.5-0.9,7-1.8,10.5-2.7C108.4,33,108.6,30.7,108.7,28.4z"/>
	<path class="st0" d="M118.1,29.7c-0.3-0.1-0.6-0.2-1-0.2c0,0.1,0,0.3-0.1,0.4c0.2,0.1,0.5,0.1,0.7,0.2c1.7,3.9,3.4,7.7,5,11.6
		c-1.9,1.2-3.8,2.5-5.7,3.8c0.1,0.1,0.2,0.2,0.3,0.3c2-1.3,4-2.7,5.9-4C121.6,37.8,119.8,33.7,118.1,29.7z"/>
	<path class="st0" d="M110.3,29.7c-0.1,0-0.3,0-0.4,0c0.3,2.9,0.6,5.9,0.9,8.8c-2.8,1.1-5.6,2.2-8.4,3.3c-0.3,0.1-0.6,0.2-0.9,0.4
		c0.1,0.2,0.1,0.3,0.2,0.4c3-1.2,6.6-2.6,9.6-3.8C110.9,35.8,110.6,32.7,110.3,29.7z"/>
	<path class="st0" d="M114.8,30.6c-0.1,0-0.3,0-0.4,0c0.2,1,0.5,2,0.8,2.9c0.8,2.7,1.5,5.4,2.3,8.1c-2.2,1.3-4.4,2.6-6.5,4
		c0.1,0.1,0.2,0.3,0.2,0.4c2.2-1.4,4.5-2.7,6.8-4.1C117,38.1,115.9,34.4,114.8,30.6z"/>
	<path class="st0" d="M109.2,28.9c-0.1,0-0.3,0-0.4,0c0,2.5,0,5,0,7.5c-3.5,1-7.1,2.1-10.6,3.1c0,0.1,0.1,0.2,0.2,0.4
		c3.6-1.1,7.2-2.1,10.8-3.2C109.2,34.1,109.1,31.5,109.2,28.9z"/>
	<path class="st0" d="M113.6,41.8c0.5-0.3,0.9-0.5,1.4-0.8c-0.7-3.5-1.4-6.9-2.1-10.4c-0.1,0-0.3,0-0.4,0.1c0.7,3.4,1.4,6.7,2,10.1
		c-0.7,0.3-1.4,0.7-2,1.1l0,0c-1.8,1-3.6,1.9-5.4,2.9c0.1,0.1,0.2,0.3,0.2,0.3c1.8-0.9,3.5-1.9,5.3-2.8
		C112.9,42.1,113.3,42,113.6,41.8z"/>
	<path class="st0" d="M111.5,33.5L111.5,33.5L111.5,33.5L111.5,33.5L111.5,33.5c-0.2-1.1-0.4-2.3-0.6-3.4c-0.1,0-0.3,0-0.4,0
		c0.1,1.1,0.4,2.2,0.5,3.2c0.3,2,0.6,4.1,0.9,6.1c-2.8,1.3-5.7,2.5-8.6,3.8c0,0.1,0.1,0.2,0.2,0.3c3-1.3,5.9-2.6,8.8-3.9
		C112.1,37.6,111.7,35.5,111.5,33.5z"/>
	<path class="st0" d="M118.3,28.4c0,0.2,0,0.4-0.1,0.5c-0.4-0.2-0.4,0.1-0.4,0.3c0.4,0.1,0.9,0.2,1.3,0.3c0.3,0.3,0.4,0.7,0.5,1l0,0
		c0.3,0.7,0.7,1.4,1,2.1l0.1,0.2c1.4,2.7,2.8,5.4,4.1,8.2c-1.7,1.2-3.4,2.4-5,3.7c-0.3,0.1,0.1,0.5,0.2,0.3c1.4-1,2.8-2,4.2-3.1
		l0.3-0.2c0.3-0.2,0.6-0.4,0.8-0.6c-2-4-4-7.9-6-11.9c-0.3-0.1-0.7-0.2-1-0.2c0-0.1,0-0.2-0.1-0.3c0.7,0,1.4,0,2.1,0.1
		c2.2,3.7,4.3,7.5,6.5,11.2c-1.5,1.2-3,2.4-4.5,3.7c0.1,0.1,0.2,0.2,0.3,0.3c0.6-0.5,1.3-1,1.9-1.6l0,0c0.9-0.8,1.9-1.5,2.8-2.3
		c-2.3-3.9-4.5-7.8-6.8-11.7C119.9,28.5,119.1,28.5,118.3,28.4z"/>
	<path class="st0" d="M111.9,30.4c-0.1,0-0.3,0-0.4,0c0.6,3.3,1.2,6.5,1.8,9.7c-2.7,1.3-5.3,2.6-7.9,3.9c0.1,0.1,0.1,0.2,0.2,0.4
		c2.7-1.4,5.5-2.7,8.2-4.1C113.1,37.1,112.5,33.7,111.9,30.4z"/>
	<path class="st0" d="M109.7,29.4c-0.1,0-0.3,0-0.4,0c0.1,2.7,0.3,5.4,0.4,8.1c-3.3,1.1-6.5,2.3-9.8,3.4c0,0.1,0.1,0.3,0.1,0.4
		c3.4-1.2,6.7-2.4,10.1-3.5C110,35,109.8,32.2,109.7,29.4z"/>
</g>
<g>
	<path class="st0" d="M220,129.4c0-0.1,0.1-0.1,0.1-0.2c0,0,0.1,0.1,0.2,0.1c0,0,0.1-0.1,0.1-0.2l0.1,0.1c0,0,0.1-0.1,0.2-0.2
		c0,0,0.1,0.1,0.1,0.2c0,0,0.1-0.1,0.2-0.2c0,0,0.1,0.1,0.1,0.2c0.1-0.1,0.2-0.1,0.1-0.2c-0.3-0.5-0.7-0.9-1-1.3
		c0.8-1.4,1.5-2.8,2.2-4.2c0.4-0.7,0.8-1.5,1.2-2.3c0,0-0.1-0.1-0.2-0.1c-1.1,2.2-2.3,4.4-3.5,6.6c0.3,0.4,0.6,0.8,0.9,1.3
		c-0.5-0.5-1-1.1-1.4-1.6c1-2.2,2-4.4,3-6.6c-0.1,0-0.2-0.1-0.2-0.1c-1,2.2-2,4.5-3,6.7c0.4,0.5,0.9,1,1.3,1.5
		c-0.4-0.4-0.9-0.8-1.3-1.1l0,0c-0.2-0.2-0.4-0.4-0.6-0.6c0.8-2,1.6-4,2.4-5.9c0.1-0.2,0.2-0.4,0.2-0.6c0,0-0.1,0-0.2,0
		c-0.9,2.2-1.8,4.4-2.7,6.7c0.5,0.4,0.9,0.9,1.4,1.3c0.1,0.1,0.2,0.2,0.3,0.3c-0.8-0.6-1.5-1.2-2.3-1.7c0.7-2.1,1.4-4.2,2.1-6.3
		c0.1-0.1,0-0.2-0.1-0.3c-0.7,2.2-1.5,4.4-2.2,6.6c0.2,0.2,0.4,0.3,0.6,0.4c0.3,0.3,0.6,0.5,0.9,0.8c0.3,0.2,0.6,0.5,0.9,0.7
		C219.9,129.2,219.9,129.2,220,129.4c-0.3-0.3-0.6-0.4-0.8-0.6c-0.2-0.1-0.2-0.1-0.5-0.3l-0.1-0.1c-0.6-0.4-1.2-0.8-1.7-1.2
		c0.6-2.1,1.2-4.2,1.8-6.2c-0.1,0-0.2,0-0.2,0c-0.6,2.1-1.2,4.3-1.8,6.4C217.8,128,218.9,128.7,220,129.4z"/>
	<path class="st0" d="M217.9,130.5c-1-0.3-2-0.6-3.1-0.9c-0.1,0-0.2-0.1-0.4-0.1c-0.7-0.3-1.5-0.4-2.2-0.7c0.1-0.8,0-1.6,0.1-2.4
		c0-0.8,0-1.6,0.1-2.4c-0.1,0-0.2,0-0.2,0c0,1.6-0.1,3.3-0.1,4.9C214,129.5,216,130.1,217.9,130.5
		C217.9,130.7,217.9,130.5,217.9,130.5z"/>
	<path class="st0" d="M218.3,130.3c0-0.1,0-0.2,0.1-0.2c-1.8-0.6-3.5-1.2-5.3-1.8c0.1-0.9,0.1-1.8,0.2-2.6c0.1-0.8,0.1-1.6,0.1-2.4
		c-0.1,0-0.2,0-0.2,0c0,0.8-0.1,1.6-0.1,2.4c-0.1,0.9-0.1,1.9-0.2,2.8C214.7,129.1,216.4,129.7,218.3,130.3
		C218.1,130.3,218.2,130.3,218.3,130.3z"/>
	<path class="st0" d="M213.3,133.2c1.1,0.1,2.2,0.2,3.2,0.4c0.3,0.1,0.4-0.2,0.6-0.4c-0.1-0.1-0.1-0.1-0.2-0.2
		c-0.1,0.1-0.2,0.2-0.3,0.3c-1.1-0.1-2.2-0.2-3.3-0.4c-1.3-0.1-2.5-0.3-3.8-0.4c-0.1-1-0.1-2-0.2-3c0-0.3,0-0.6-0.1-0.8
		c-0.1,0-0.2,0-0.2,0c0.1,1.3,0.2,2.7,0.3,4C210.7,132.9,212,133.1,213.3,133.2z"/>
	<path class="st0" d="M219.7,129.5c0-0.1,0.1-0.2,0.1-0.2c-1.2-0.7-2.4-1.4-3.5-2c-0.1,0-0.1-0.1-0.1-0.2V127
		c0.5-1.9,0.9-3.9,1.4-5.8c-0.1,0-0.2,0-0.2,0c-0.5,2.1-1,4.1-1.5,6.2C217.1,128.1,218.4,128.8,219.7,129.5z"/>
	<path class="st0" d="M217.8,129.3c0.1,0,0.2,0.1,0.3,0.1c0.3,0.2,0.6,0.3,0.9,0.4c0-0.1,0.1-0.2,0.1-0.2c-1.5-0.7-3-1.4-4.5-2
		c0.1-0.6,0.2-1.2,0.3-1.8v-0.1c0.1-0.5,0.1-1,0.2-1.5l0,0c0.1-0.7,0.2-1.4,0.3-2.2c-0.1,0-0.2,0-0.2,0c-0.1,0.7-0.2,1.3-0.3,2l0,0
		c0,0.4-0.1,0.6-0.2,1.1c-0.1,0.3,0,0.4-0.1,0.7c-0.1,0.6-0.2,1.3-0.3,1.9C215.4,128.2,216.6,128.8,217.8,129.3z"/>
	<path class="st0" d="M218.7,129.8c-1.6-0.6-3.3-1.3-4.9-1.9c0.2-1.8,0.4-3.5,0.5-5.3c-0.1,0-0.2,0-0.2,0c-0.2,1.8-0.4,3.6-0.6,5.4
		c1.7,0.7,3.4,1.3,5.1,2C218.6,130,218.7,129.9,218.7,129.8z"/>
	<path class="st0" d="M216.2,134.4c0.1,0,0.3,0,0.4,0c0.2-0.2,0.4-0.4,0.6-0.6c-0.1,0-0.1-0.1-0.2-0.1c-0.2,0.2-0.3,0.4-0.5,0.6
		c-2.4-0.1-4.8-0.3-7.2-0.4c-0.1-1.2-0.3-2.4-0.4-3.6c-0.1,0-0.2,0-0.2,0c0.1,1.3,0.3,2.5,0.4,3.8
		C211.5,134.1,213.8,134.3,216.2,134.4z"/>
	<path class="st0" d="M222.8,138.9c-0.2-0.8-0.5-1.6-0.8-2.3c-0.1,0-0.2,0-0.2,0c0.7,2.1,1.4,4.3,2.1,6.4c-1.1,0.7-2.2,1.5-3.3,2.2
		c0.1,0.1,0.1,0.2,0.2,0.1c1.1-0.7,2.3-1.5,3.4-2.2C223.7,141.7,223.2,140.3,222.8,138.9z"/>
	<path class="st0" d="M222.4,142.5c-0.5-1.9-0.9-3.9-1.4-5.8c-0.1,0-0.1,0-0.2,0.1c0.5,2,0.9,4,1.4,6c-0.5,0.3-1.1,0.6-1.6,0.9l0,0
		c-0.8,0.4-1.5,0.9-2.3,1.3c0,0.1,0.1,0.1,0.1,0.2c1.4-0.8,2.7-1.5,4.1-2.3C222.4,142.7,222.4,142.6,222.4,142.5z"/>
	<path class="st0" d="M215.1,127c0,0.1,0,0.3-0.1,0.4c1.4,0.7,2.8,1.5,4.3,2.2c0-0.1,0-0.2,0-0.2c-0.7-0.3-1.4-0.7-2.1-1.1l0,0
		c-0.6-0.3-1.2-0.6-1.9-0.9c0.3-1.9,0.7-3.9,1.1-5.8c-0.1,0-0.1,0-0.2,0C215.8,123.4,215.5,125.2,215.1,127L215.1,127z"/>
	<path class="st0" d="M221.6,128.7c0.1,0.3,0.2,0.6,0.3,0.8c0.1,0,0.2,0,0.2,0c-0.1-0.3-0.1-0.5-0.2-0.7c1.3-2,2.7-4,4-6
		c0.6,0.3,1.2,0.5,1.9,0.8h0.1c0.5,0.2,0.9,0.4,1.3,0.6c0-0.1,0.1-0.2,0.1-0.2c-1.1-0.5-2.3-1-3.4-1.5
		C224.4,124.5,223,126.6,221.6,128.7z"/>
	<path class="st0" d="M223.3,130.2c0.1,0,0.1,0.1,0.2,0.1c1.4-1.7,2.9-3.3,4.3-4.9c0.1-0.1,0.2,0,0.3,0c1.1,0.6,2.2,1.1,3.3,1.7
		c0-0.1,0.1-0.1,0.1-0.2c-1.2-0.6-2.5-1.3-3.7-1.9C226.3,126.7,224.8,128.4,223.3,130.2z"/>
	<path class="st0" d="M212.4,130.6h0.2l0,0c1.6,0.4,3.1,0.8,4.6,1.2c0-0.1,0-0.2,0-0.2c-1.6-0.4-3.1-0.8-4.6-1.2l0,0
		c-0.5-0.1-1.1-0.3-1.6-0.4c0-1.4-0.1-2.9-0.1-4.3c-0.1,0-0.2,0-0.2,0c0,1.5,0,3,0.1,4.5C211.4,130.3,211.9,130.5,212.4,130.6z"/>
	<path class="st0" d="M224.2,131.6c0.1,0.1,0.1,0.1,0.2,0.2c1.3-1.2,2.5-2.4,3.8-3.6c0.2-0.2,0.3-0.3,0.5-0.4c1.3,0.8,2.7,1.7,4,2.5
		c0,0,0.1-0.1,0.1-0.2c-1.4-0.9-2.8-1.7-4.2-2.6C227.1,128.9,225.6,130.2,224.2,131.6z"/>
	<path class="st0" d="M224.3,132.1c0.1,0.1,0.1,0.1,0.2,0.2c1.4-1.2,2.8-2.5,4.2-3.7c1.3,0.9,2.6,1.7,3.9,2.6h0.1
		c0.1,0,0.1,0.1,0.2,0.1c0-0.1,0.1-0.1,0.1-0.2c-1.4-1-2.9-1.9-4.3-2.9C227.2,129.6,225.8,130.9,224.3,132.1z"/>
	<path class="st0" d="M221.5,129.4c0,0,0.1-0.1,0.2-0.1c-0.2-0.4-0.4-0.7-0.6-1.1c1.2-2.1,2.4-4.2,3.6-6.3c1,0.4,2.1,0.8,3.1,1.2
		c0-0.1,0-0.1,0.1-0.2c-1.1-0.4-2.2-0.8-3.3-1.2c-1.2,2.2-2.5,4.4-3.8,6.6C221.1,128.6,221.3,129,221.5,129.4z"/>
	<path class="st0" d="M226.6,128.4l-0.1,0.1c-0.8,0.9-1.7,1.8-2.6,2.6c0.1,0.1,0.1,0.1,0.2,0.2c1.4-1.5,2.9-2.9,4.3-4.4
		c1.3,0.7,2.6,1.6,3.9,2.3c0-0.1,0.1-0.2,0.1-0.2c-1.4-0.8-2.7-1.6-4.1-2.4C227.8,127.2,227.2,127.8,226.6,128.4z"/>
	<path class="st0" d="M227.3,131.5L227.3,131.5c-0.1,0.1-0.2,0.1-0.2,0.1c-0.1,0-0.1,0.1-0.2,0.1c-0.8,0.5-1.6,1.1-2.4,1.6
		c0,0.1,0.1,0.1,0.1,0.2c1.3-0.8,2.6-1.7,3.8-2.5c1.5,1.3,3,2.5,4.4,3.8c0-0.1,0.1-0.1,0.1-0.2c-1.5-1.3-3-2.6-4.6-3.9
		C228,131,227.3,131.5,227.3,131.5z"/>
	<path class="st0" d="M224.3,126.4c-0.7,0.9-1.4,1.8-2,2.7c0,0.1,0.1,0.3,0.1,0.4c0.1,0,0.2,0,0.2,0c0-0.1-0.1-0.2-0.1-0.3
		c0.6-0.9,1.3-1.7,2-2.6c0.7-1,1.5-1.9,2.2-2.9c0.1,0,0.1-0.2,0.2-0.1c1.1,0.5,2.2,1.1,3.3,1.6c0-0.1,0.1-0.2,0.1-0.2
		c-1.2-0.6-2.4-1.2-3.6-1.7C225.8,124.3,225,125.4,224.3,126.4z"/>
	<path class="st0" d="M224.4,133c0,0.1,0.1,0.1,0.1,0.2c1.3-1,2.7-2,4-2.9c1.5,1.2,2.9,2.3,4.4,3.5c0,0,0.1-0.1,0.1-0.2
		c-1.5-1.2-3-2.4-4.5-3.6C227.2,131,225.8,132,224.4,133z"/>
	<path class="st0" d="M222.8,129.8c0.1,0,0.2,0.1,0.3,0c1.1-1.3,2.1-2.6,3.1-3.8c0.2-0.2,0.4-0.5,0.6-0.7c0.2-0.2,0.4-0.5,0.7-0.8
		c1.1,0.5,2.2,1.1,3.3,1.6c0.1,0.1,0.2-0.1,0.2-0.2c-1.2-0.6-2.4-1.1-3.6-1.7C225.8,126.1,224.3,127.9,222.8,129.8z"/>
	<path class="st0" d="M217.5,131.1c-1.9-0.5-3.7-1.1-5.6-1.7l0,0c-0.1,0-0.2-0.1-0.3-0.1c0-1.5,0-3,0.1-4.6c-0.1,0-0.1,0-0.2,0
		c0,1.6-0.1,3.2-0.1,4.7c2,0.6,4,1.2,6,1.8C217.5,131.3,217.5,131.2,217.5,131.1z"/>
	<path class="st0" d="M223.6,130.6c0.1,0,0.1,0.1,0.2,0.1c1.5-1.6,2.9-3.1,4.4-4.7c1.2,0.7,2.5,1.4,3.7,2.1c0.1-0.1,0.1-0.2,0-0.3
		c-1.3-0.7-2.5-1.4-3.8-2.1C226.6,127.4,225.1,129,223.6,130.6z"/>
	<path class="st0" d="M224.3,133.8c0,0,0.1,0.1,0.1,0.2c1.2-0.7,2.4-1.4,3.7-2.1c1.5,1.4,2.9,2.8,4.4,4.2c0.1,0.1,0.2-0.1,0.2-0.1
		c-1.5-1.5-3.1-2.9-4.6-4.4C226.8,132.3,225.6,133,224.3,133.8z"/>
	<path class="st0" d="M224.2,134.1v0.2c0.1,0,0.2-0.1,0.3-0.1c1.2-0.6,2-0.9,3-1.4c0.1,0,0.2-0.2,0.3,0c1.5,1.5,3,3.1,4.4,4.6
		c0.1,0,0.1-0.1,0.2-0.1c-1.6-1.6-3.1-3.2-4.7-4.8C226.6,133,225.4,133.5,224.2,134.1z"/>
	<path class="st0" d="M217.1,132.3c0-0.1,0-0.2,0-0.2c-2.2-0.4-4.3-1-6.5-1.4c-0.1-1.3-0.2-2.6-0.2-4c-0.1,0-0.2,0-0.2,0
		c0.1,1.4,0.2,2.8,0.2,4.1C212.6,131.3,214.8,131.9,217.1,132.3z"/>
	<path class="st0" d="M216.9,132.9c0.1-0.1,0.1-0.1,0.2-0.2c0-0.1-0.1-0.1-0.1-0.2c-0.1,0.1-0.2,0.1-0.3,0.1
		c-2.2-0.4-4.4-0.7-6.6-1.1c-0.1-1.3-0.2-2.5-0.3-3.8c-0.1,0-0.1,0-0.2,0c0.1,1.3,0.2,2.6,0.3,4
		C212.2,132.1,214.6,132.5,216.9,132.9z"/>
	<path class="st0" d="M225.2,134c-0.2,0.1-0.5,0.2-0.7,0.3c-0.1,0.1-0.1,0.1-0.2,0c-0.1,0-0.2,0.1-0.2,0.1s0.1,0.1,0.1,0.2
		c0,0-0.1,0-0.2,0c0,0.1,0,0.2,0.1,0.2c-0.1,0-0.2,0-0.2,0c0,0.1,0,0.2,0,0.2s-0.1,0-0.2,0c0,0.1,0,0.2,0,0.2
		c0.6-0.1,1.2-0.1,1.7-0.2c0.6,0.9,1.1,1.7,1.7,2.6c0.5,0.7,0.9,1.4,1.3,2.1c0.3,0.5,0.6,1,0.9,1.5c0.1,0,0.1-0.1,0.2-0.1
		c-1.3-2.1-2.7-4.2-4-6.3c-0.5,0-1,0.1-1.5,0.2h-0.1c0.1,0,0.2-0.1,0.3-0.1c0.6-0.1,1.2-0.3,1.9-0.4c1,1.5,2.1,2.9,3.1,4.3l0.1,0.1
		c0.4,0.4,0.7,0.9,1,1.4c0.1,0,0.1-0.1,0.2-0.1c-1.4-2-2.8-4-4.3-6c-0.6,0.1-1.2,0.3-1.8,0.4c0.8-0.2,1.6-0.5,2.3-0.7
		c0.6,0.7,1.1,1.4,1.7,2.1c0.2,0.2,0.4,0.5,0.6,0.8l0,0c0.7,0.8,1.3,1.7,2,2.5c0.1,0,0.1-0.1,0.2-0.1c-0.7-0.9-1.4-1.7-2-2.6
		c-0.8-1-1.7-2.1-2.4-3c-0.7,0.2-1.4,0.5-2.1,0.6c0.9-0.3,1.7-0.7,2.5-1.1c1.5,1.7,3,3.4,4.5,5.1c0.1,0,0.1-0.1,0.2-0.1
		c-1.5-1.7-3.1-3.5-4.6-5.2C226.6,133.3,225.9,133.7,225.2,134z"/>
	<path class="st0" d="M224.3,140.8L224.3,140.8c-0.1-0.3-0.2-0.5-0.3-0.8l0,0c-0.4-1.2-0.9-2.5-1.3-3.7c-0.1,0-0.2-0.1-0.2-0.1
		c0,0.1-0.1,0.1-0.1,0.2c0,0,0.1,0,0.2,0.1c0.5,1.4,1,2.9,1.6,4.3c0.3,0.7,0.5,1.4,0.8,2.2c-1,0.7-2.1,1.4-3.1,2.1
		c0,0.1,0.1,0.1,0.1,0.2c1.1-0.7,2.2-1.5,3.3-2.2C224.8,142.4,224.6,141.5,224.3,140.8z"/>
	<path class="st0" d="M224.4,132.5c0,0.1,0.1,0.1,0.1,0.2c1.4-1.1,2.7-2.2,4.1-3.2c0.1-0.1,0.2,0.1,0.3,0.1c1.3,1,2.7,1.9,4,2.9
		c0-0.1,0.1-0.1,0.1-0.2c-1.5-1.1-2.9-2.2-4.4-3.2C227.2,130.3,225.8,131.4,224.4,132.5z"/>
	<path class="st0" d="M217.2,134.2c0.1-0.1,0-0.2-0.1-0.2c-0.2,0.3-0.4,0.7-0.7,1.1c-2.4,0-4.9,0-7.3,0c-0.2-1.1-0.3-2.2-0.5-3.2
		c-0.1,0-0.2,0-0.2,0c0.2,1.1,0.4,2.3,0.5,3.4c2.5,0,5.1,0,7.6,0C216.8,134.9,217,134.6,217.2,134.2z"/>
	<path class="st0" d="M218.1,135.4c-0.1,0-0.2,0-0.2,0c0-0.1,0-0.2,0-0.2c-0.1,0-0.2,0-0.2,0c0-0.1,0-0.2-0.2-0.3
		c0,0,0.1-0.1,0.1-0.2c-0.1,0-0.2-0.1-0.2-0.1s0.1-0.1,0.1-0.2c-0.1,0-0.1-0.1-0.2-0.1c-0.2,0.5-0.5,1.1-0.7,1.6c-0.2,0-0.4,0-0.6,0
		l0,0c-2.3,0.1-4.5,0.2-6.8,0.3c0,0.1,0,0.2,0,0.2c2.2-0.1,4.5-0.2,6.7-0.3c0.3,0,0.5-0.1,0.7-0.1c0.2-0.5,0.4-0.9,0.6-1.4
		c0,0,0,0,0.1,0c-0.3,0.7-0.5,1.4-0.7,2c-2,0.2-4,0.4-5.9,0.6l0,0c-0.4,0-0.8,0.1-1.2,0.1c0,0.1,0,0.2,0,0.2c0.4,0,0.8-0.1,1.2-0.1
		c0.3,0,0.5-0.1,0.7-0.1c1.8-0.2,3.6-0.4,5.4-0.6c0.2-0.6,0.4-1.2,0.6-1.8c-0.1,0.8-0.3,1.6-0.5,2.5c-0.3,0-0.7,0.1-1,0.1
		c-0.2,0-0.4,0-0.6,0.1l0,0c-1.8,0.3-3.6,0.5-5.4,0.8c0,0.1,0,0.2,0,0.2c2-0.3,4-0.6,5.9-0.8h0.1c0.4,0,0.7-0.1,1.1-0.2
		c0.2-0.9,0.3-1.7,0.5-2.5c-0.1,1-0.3,2.1-0.4,3.1c-2.2,0.5-4.4,0.9-6.6,1.3c0,0.1,0,0.2,0,0.2c0.3,0,0.5-0.1,0.8-0.1
		c2-0.4,4-0.8,6-1.2c0.1-1,0.3-2,0.4-3c0,1.2-0.1,2.3-0.2,3.5c-2.1,0.5-4.2,1.1-6.2,1.6c0,0,0,0.1,0,0.2c0.2,0,0.3-0.1,0.5-0.1
		c2-0.5,4-1,5.9-1.5C217.9,138,218,136.7,218.1,135.4z"/>
	<path class="st0" d="M223.3,136.1c-0.2-0.1-0.4-0.1-0.5-0.1c0,0.1,0,0.1,0,0.2c0.1,0,0.3,0.1,0.4,0.1c0.9,2.2,1.9,4.3,2.8,6.5
		c-1.1,0.7-2.1,1.4-3.2,2.2c0,0,0.1,0.1,0.1,0.2c1.1-0.7,2.2-1.5,3.3-2.3C225.3,140.7,224.3,138.4,223.3,136.1z"/>
	<path class="st0" d="M218.9,136.1c-0.1,0-0.2,0-0.2,0c0.1,1.7,0.3,3.3,0.5,5c-1.6,0.6-3.2,1.2-4.8,1.9c-0.2,0.1-0.3,0.1-0.5,0.2
		c0,0.1,0.1,0.2,0.1,0.2c1.7-0.7,3.7-1.5,5.4-2.1C219.3,139.5,219.1,137.8,218.9,136.1z"/>
	<path class="st0" d="M221.5,136.6c-0.1,0-0.2,0-0.2,0c0.1,0.6,0.3,1.1,0.5,1.7c0.4,1.5,0.9,3,1.3,4.6c-1.2,0.7-2.5,1.5-3.7,2.2
		c0,0.1,0.1,0.2,0.1,0.2c1.3-0.8,2.5-1.5,3.8-2.3C222.7,140.9,222.1,138.8,221.5,136.6z"/>
	<path class="st0" d="M218.3,135.6c-0.1,0-0.2,0-0.2,0c0,1.4,0,2.8,0,4.3c-2,0.6-4,1.2-6,1.7c0,0.1,0.1,0.1,0.1,0.2
		c2-0.6,4.1-1.2,6.1-1.8C218.3,138.6,218.3,137.1,218.3,135.6z"/>
	<path class="st0" d="M220.8,142.9c0.3-0.2,0.5-0.3,0.8-0.4c-0.4-1.9-0.8-3.9-1.2-5.9c-0.1,0-0.1,0-0.2,0c0.4,1.9,0.8,3.8,1.1,5.7
		c-0.4,0.2-0.8,0.4-1.1,0.6l0,0c-1,0.5-2,1.1-3,1.6c0,0,0.1,0.1,0.1,0.2c1-0.5,2-1.1,3-1.6C220.4,143.1,220.6,143,220.8,142.9z"/>
	<path class="st0" d="M219.6,138.2L219.6,138.2L219.6,138.2L219.6,138.2L219.6,138.2c-0.1-0.6-0.2-1.3-0.3-1.9c-0.1,0-0.2,0-0.2,0
		c0.1,0.6,0.2,1.2,0.3,1.8c0.2,1.1,0.3,2.3,0.5,3.4c-1.6,0.7-3.2,1.4-4.8,2.2c0,0,0.1,0.1,0.1,0.2c1.7-0.7,3.3-1.5,5-2.2
		C220,140.6,219.7,139.4,219.6,138.2z"/>
	<path class="st0" d="M223.4,135.4c0,0.1,0,0.2,0,0.3c-0.2-0.1-0.2,0-0.2,0.2c0.2,0,0.5,0.1,0.7,0.1c0.2,0.1,0.2,0.4,0.3,0.6l0,0
		c0.2,0.4,0.4,0.8,0.6,1.2l0.1,0.1c0.8,1.5,1.6,3.1,2.3,4.6c-1,0.7-1.9,1.4-2.8,2.1c-0.2,0.1,0,0.3,0.1,0.2c0.8-0.6,1.6-1.2,2.4-1.7
		l0.2-0.1c0.2-0.1,0.3-0.2,0.5-0.4c-1.1-2.2-2.2-4.5-3.4-6.7c-0.2-0.1-0.4-0.1-0.6-0.1c0,0,0-0.1,0-0.2c0.4,0,0.8,0,1.2,0
		c1.2,2.1,2.4,4.2,3.6,6.3c-0.8,0.7-1.7,1.4-2.5,2.1c0.1,0.1,0.1,0.1,0.2,0.2c0.4-0.3,0.7-0.6,1.1-0.9l0,0c0.5-0.4,1.1-0.8,1.6-1.3
		c-1.3-2.2-2.5-4.4-3.8-6.6C224.4,135.4,223.9,135.4,223.4,135.4z"/>
	<path class="st0" d="M219.8,136.5c-0.1,0-0.2,0-0.2,0c0.3,1.8,0.7,3.7,1,5.5c-1.5,0.7-3,1.5-4.5,2.2c0,0.1,0.1,0.1,0.1,0.2
		c1.5-0.8,3.1-1.5,4.6-2.3C220.5,140.3,220.1,138.4,219.8,136.5z"/>
	<path class="st0" d="M218.6,135.9c-0.1,0-0.2,0-0.2,0c0.1,1.5,0.2,3.1,0.2,4.6c-1.8,0.6-3.7,1.3-5.5,1.9c0,0.1,0,0.1,0,0.2
		c1.9-0.7,3.8-1.3,5.7-2C218.8,139.1,218.7,137.5,218.6,135.9z"/>
</g>
<g>
	<path class="st0" d="M69.7,16.9c0-0.1,0.1-0.1,0.1-0.2c0,0,0.1,0.1,0.2,0.1c0,0,0.1-0.1,0.1-0.2l0.1,0.1c0,0,0.1-0.1,0.2-0.2
		c0,0,0.1,0.1,0.1,0.2c0,0,0.1-0.1,0.2-0.2c0,0,0.1,0.1,0.1,0.2c0.1-0.1,0.2-0.1,0.1-0.2c-0.3-0.5-0.7-0.9-1-1.3
		c0.8-1.4,1.5-2.8,2.2-4.2c0.4-0.7,0.8-1.5,1.2-2.3c0,0-0.1-0.1-0.2-0.1c-1.1,2.2-2.3,4.4-3.5,6.6c0.3,0.4,0.6,0.8,0.9,1.3
		c-0.5-0.5-1-1.1-1.4-1.6c1-2.2,2-4.4,3-6.6c-0.1,0-0.2-0.1-0.2-0.1c-1,2.2-2,4.5-3,6.7c0.4,0.5,0.9,1,1.3,1.5
		c-0.4-0.4-0.9-0.8-1.3-1.1l0,0c-0.2-0.2-0.4-0.4-0.6-0.6c0.8-2,1.6-4,2.4-5.9c0.1-0.2,0.2-0.4,0.2-0.6c0,0-0.1,0-0.2,0
		c-0.9,2.2-1.8,4.4-2.7,6.7c0.5,0.4,0.9,0.9,1.4,1.3c0.1,0.1,0.2,0.2,0.3,0.3c-0.8-0.6-1.5-1.2-2.3-1.7c0.7-2.1,1.4-4.2,2.1-6.3
		c0.1-0.1,0-0.2-0.1-0.3c-0.7,2.2-1.5,4.4-2.2,6.6c0.2,0.2,0.4,0.3,0.6,0.4c0.3,0.3,0.6,0.5,0.9,0.8c0.3,0.2,0.6,0.5,0.9,0.7
		c0,0,0,0,0,0.1c-0.2-0.2-0.5-0.3-0.7-0.5c-0.2-0.1-0.2-0.1-0.5-0.3l-0.1-0.1c-0.6-0.4-1.2-0.8-1.7-1.2c0.6-2.1,1.2-4.2,1.8-6.2
		c-0.1,0-0.2,0-0.2,0c-0.6,2.1-1.2,4.3-1.8,6.4C67.5,15.5,68.6,16.2,69.7,16.9z"/>
	<path class="st0" d="M67.6,18c-1-0.3-2-0.6-3.1-0.9c-0.1,0-0.2-0.1-0.4-0.1c-0.7-0.3-1.5-0.4-2.2-0.7c0.1-0.8,0-1.6,0.1-2.4
		c0-0.8,0-1.6,0.1-2.4c-0.1,0-0.2,0-0.2,0c0,1.6-0.1,3.3-0.1,4.9c1.9,0.6,3.9,1.2,5.8,1.7V18z"/>
	<path class="st0" d="M67.9,17.8c0-0.1,0-0.2,0.1-0.2c-1.8-0.6-3.5-1.2-5.3-1.8c0.1-0.9,0.1-1.8,0.2-2.6c0.1-0.8,0.1-1.6,0.1-2.4
		c-0.1,0-0.2,0-0.2,0c0,0.8-0.1,1.6-0.1,2.4c-0.1,0.9-0.1,1.9-0.2,2.8C64.3,16.6,66,17.2,67.9,17.8L67.9,17.8z"/>
	<path class="st0" d="M63,20.7c1.1,0.1,2.2,0.2,3.2,0.4c0.3,0.1,0.4-0.2,0.6-0.4c-0.1-0.1-0.1-0.1-0.2-0.2c-0.1,0.1-0.2,0.2-0.3,0.3
		c-1.1-0.1-2.2-0.2-3.3-0.4c-1.3-0.1-2.5-0.3-3.8-0.4c-0.1-1-0.1-2-0.2-3c0-0.3,0-0.6-0.1-0.8c-0.1,0-0.2,0-0.2,0
		c0.1,1.3,0.2,2.7,0.3,4C60.4,20.4,61.7,20.6,63,20.7z"/>
	<path class="st0" d="M69.3,17c0-0.1,0.1-0.2,0.1-0.2c-1.2-0.7-2.4-1.4-3.5-2c-0.1,0-0.1-0.1-0.1-0.2v-0.1c0.5-1.9,0.9-3.9,1.4-5.8
		c-0.1,0-0.2,0-0.2,0c-0.5,2.1-1,4.1-1.5,6.2C66.8,15.5,68.1,16.2,69.3,17z"/>
	<path class="st0" d="M67.4,16.8c0.1,0,0.2,0.1,0.3,0.1c0.3,0.2,0.6,0.3,0.9,0.4c0-0.1,0.1-0.2,0.1-0.2c-1.5-0.7-3-1.4-4.5-2
		c0.1-0.6,0.2-1.2,0.3-1.8v-0.1c0.1-0.5,0.1-1,0.2-1.5l0,0c0.1-0.7,0.2-1.4,0.3-2.2c-0.1,0-0.2,0-0.2,0c-0.1,0.7-0.2,1.3-0.3,2l0,0
		c0,0.4-0.1,0.6-0.2,1.1c-0.1,0.3,0,0.4-0.1,0.7c-0.1,0.6-0.2,1.3-0.3,1.9C65.1,15.7,66.3,16.2,67.4,16.8z"/>
	<path class="st0" d="M68.3,17.3c-1.6-0.6-3.3-1.3-4.9-1.9c0.2-1.8,0.4-3.5,0.5-5.3c-0.1,0-0.2,0-0.2,0c-0.2,1.8-0.4,3.6-0.6,5.4
		c1.7,0.7,3.4,1.3,5.1,2C68.3,17.5,68.3,17.4,68.3,17.3z"/>
	<path class="st0" d="M65.9,21.9c0.1,0,0.3,0,0.4,0c0.2-0.2,0.4-0.4,0.6-0.6c-0.1,0-0.1-0.1-0.2-0.1c-0.2,0.2-0.3,0.4-0.5,0.6
		c-2.4-0.1-4.8-0.3-7.2-0.4c-0.1-1.2-0.3-2.4-0.4-3.6c-0.1,0-0.2,0-0.2,0c0.1,1.3,0.3,2.5,0.4,3.8C61.1,21.6,63.5,21.7,65.9,21.9z"
		/>
	<path class="st0" d="M72.5,26.4c-0.2-0.8-0.5-1.6-0.8-2.3c-0.1,0-0.2,0-0.2,0c0.7,2.1,1.4,4.3,2.1,6.4c-1.1,0.7-2.2,1.5-3.3,2.2
		c0.1,0.1,0.1,0.2,0.2,0.1c1.1-0.7,2.3-1.5,3.4-2.2C73.3,29.2,72.9,27.8,72.5,26.4z"/>
	<path class="st0" d="M72,29.9c-0.5-1.9-0.9-3.9-1.4-5.8c-0.1,0-0.1,0-0.2,0.1c0.5,2,0.9,4,1.4,6c-0.5,0.3-1.1,0.6-1.6,0.9l0,0
		c-0.8,0.4-1.5,0.9-2.3,1.3c0,0.1,0.1,0.1,0.1,0.2c1.4-0.8,2.7-1.5,4.1-2.3C72.1,30.2,72.1,30,72,29.9z"/>
	<path class="st0" d="M64.8,14.5c0,0.1,0,0.3-0.1,0.4c1.4,0.7,2.8,1.5,4.3,2.2c0-0.1,0-0.2,0-0.2c-0.7-0.3-1.4-0.7-2.1-1.1l0,0
		c-0.6-0.3-1.2-0.6-1.9-0.9c0.3-1.9,0.7-3.9,1.1-5.8c-0.1,0-0.1,0-0.2,0C65.5,10.8,65.2,12.7,64.8,14.5L64.8,14.5z"/>
	<path class="st0" d="M71.2,16.1c0.1,0.3,0.2,0.6,0.3,0.8c0.1,0,0.2,0,0.2,0c-0.1-0.3-0.1-0.5-0.2-0.7c1.3-2,2.7-4,4-6
		c0.6,0.3,1.2,0.5,1.9,0.8h0.1c0.5,0.2,0.9,0.4,1.3,0.6c0-0.1,0.1-0.2,0.1-0.2c-1.1-0.5-2.3-1-3.4-1.5C74,12,72.7,14.1,71.2,16.1z"
		/>
	<path class="st0" d="M72.9,17.6c0.1,0,0.1,0.1,0.2,0.1c1.4-1.7,2.9-3.3,4.3-4.9c0.1-0.1,0.2,0,0.3,0c1.1,0.6,2.2,1.1,3.3,1.7
		c0-0.1,0.1-0.1,0.1-0.2c-1.2-0.6-2.5-1.3-3.7-1.9C75.9,14.2,74.4,15.9,72.9,17.6z"/>
	<path class="st0" d="M62,18.1h0.2l0,0c1.6,0.4,3.1,0.8,4.6,1.2c0-0.1,0-0.2,0-0.2c-1.6-0.4-3.1-0.8-4.6-1.2l0,0
		c-0.5-0.1-1.1-0.3-1.6-0.4c0-1.4-0.1-2.9-0.1-4.3c-0.1,0-0.2,0-0.2,0c0,1.5,0,3,0.1,4.5C61,17.8,61.5,17.9,62,18.1z"/>
	<path class="st0" d="M73.8,19.1c0.1,0.1,0.1,0.1,0.2,0.2c1.3-1.2,2.5-2.4,3.8-3.6c0.2-0.2,0.3-0.3,0.5-0.4c1.3,0.8,2.7,1.7,4,2.5
		c0,0,0.1-0.1,0.1-0.2c-1.4-0.9-2.8-1.7-4.2-2.6C76.8,16.3,75.3,17.7,73.8,19.1z"/>
	<path class="st0" d="M74,19.6c0.1,0.1,0.1,0.1,0.2,0.2c1.4-1.2,2.8-2.5,4.2-3.7c1.3,0.9,2.6,1.7,3.9,2.6h0.1c0.1,0,0.1,0.1,0.2,0.1
		c0-0.1,0.1-0.1,0.1-0.2c-1.4-1-2.9-1.9-4.3-2.9C76.9,17.1,75.4,18.3,74,19.6z"/>
	<path class="st0" d="M71.2,16.9c0,0,0.1-0.1,0.2-0.1c-0.2-0.4-0.4-0.7-0.6-1.1c1.2-2.1,2.4-4.2,3.6-6.3c1,0.4,2.1,0.8,3.1,1.2
		c0-0.1,0-0.1,0.1-0.2c-1.1-0.4-2.2-0.8-3.3-1.2c-1.2,2.2-2.5,4.4-3.8,6.6C70.7,16.1,71,16.5,71.2,16.9z"/>
	<path class="st0" d="M76.3,15.8l-0.1,0.1c-0.8,0.9-1.7,1.8-2.6,2.6c0.1,0.1,0.1,0.1,0.2,0.2c1.4-1.5,2.9-2.9,4.3-4.4
		c1.3,0.7,2.6,1.6,3.9,2.3c0-0.1,0.1-0.2,0.1-0.2c-1.4-0.8-2.7-1.6-4.1-2.4C77.5,14.7,76.9,15.3,76.3,15.8z"/>
	<path class="st0" d="M76.9,19L76.9,19c-0.1,0.1-0.2,0.1-0.2,0.1c-0.1,0-0.1,0.1-0.2,0.1c-0.8,0.5-1.6,1.1-2.4,1.6
		c0,0.1,0.1,0.1,0.1,0.2c1.3-0.8,2.6-1.7,3.8-2.5c1.5,1.3,3,2.5,4.4,3.8c0-0.1,0.1-0.1,0.1-0.2c-1.5-1.3-3-2.6-4.6-3.9
		C77.7,18.5,76.9,19,76.9,19z"/>
	<path class="st0" d="M73.9,13.9c-0.7,0.9-1.4,1.8-2,2.7c0,0.1,0.1,0.3,0.1,0.4c0.1,0,0.2,0,0.2,0c0-0.1-0.1-0.2-0.1-0.3
		c0.6-0.9,1.3-1.7,2-2.6c0.7-1,1.5-1.9,2.2-2.9c0.1,0,0.1-0.2,0.2-0.1c1.1,0.5,2.2,1.1,3.3,1.6c0-0.1,0.1-0.2,0.1-0.2
		c-1.2-0.6-2.4-1.2-3.6-1.7C75.5,11.8,74.7,12.9,73.9,13.9z"/>
	<path class="st0" d="M74.1,20.5c0,0.1,0.1,0.1,0.1,0.2c1.3-1,2.7-2,4-2.9c1.5,1.2,2.9,2.3,4.4,3.5c0,0,0.1-0.1,0.1-0.2
		c-1.5-1.2-3-2.4-4.5-3.6C76.8,18.5,75.4,19.5,74.1,20.5z"/>
	<path class="st0" d="M72.4,17.3c0.1,0,0.2,0.1,0.3,0c1.1-1.3,2.1-2.6,3.1-3.8c0.2-0.2,0.4-0.5,0.6-0.7s0.4-0.5,0.7-0.8
		c1.1,0.5,2.2,1.1,3.3,1.6c0.1,0.1,0.2-0.1,0.2-0.2c-1.2-0.6-2.4-1.1-3.6-1.7C75.5,13.6,73.9,15.4,72.4,17.3z"/>
	<path class="st0" d="M67.2,18.6c-1.9-0.5-3.7-1.1-5.6-1.7l0,0c-0.1,0-0.2-0.1-0.3-0.1c0-1.5,0-3,0.1-4.6c-0.1,0-0.1,0-0.2,0
		c0,1.6-0.1,3.2-0.1,4.7C63.1,17.5,65.1,18.1,67.2,18.6C67.2,18.7,67.2,18.7,67.2,18.6z"/>
	<path class="st0" d="M73.3,18.1c0.1,0,0.1,0.1,0.2,0.1c1.5-1.6,2.9-3.1,4.4-4.7c1.2,0.7,2.5,1.4,3.7,2.1c0.1-0.1,0.1-0.2,0-0.3
		c-1.3-0.7-2.5-1.4-3.8-2.1C76.3,14.9,74.8,16.5,73.3,18.1z"/>
	<path class="st0" d="M74,21.3c0,0,0.1,0.1,0.1,0.2c1.2-0.7,2.4-1.4,3.7-2.1c1.5,1.4,2.9,2.8,4.4,4.2c0.1,0.1,0.2-0.1,0.2-0.1
		c-1.5-1.5-3.1-2.9-4.6-4.4C76.5,19.8,75.2,20.5,74,21.3z"/>
	<path class="st0" d="M73.9,21.6v0.2c0.1,0,0.2-0.1,0.3-0.1c1.2-0.6,2-0.9,3-1.4c0.1,0,0.2-0.2,0.3,0c1.5,1.5,3,3.1,4.4,4.6
		c0.1,0,0.1-0.1,0.2-0.1c-1.6-1.6-3.1-3.2-4.7-4.8C76.2,20.4,75,21,73.9,21.6z"/>
	<path class="st0" d="M66.7,19.8c0-0.1,0-0.2,0-0.2c-2.2-0.4-4.3-1-6.5-1.4c-0.1-1.3-0.2-2.6-0.2-4c-0.1,0-0.2,0-0.2,0
		c0.1,1.4,0.2,2.8,0.2,4.1C62.2,18.8,64.5,19.3,66.7,19.8z"/>
	<path class="st0" d="M66.6,20.3c0.1-0.1,0.1-0.1,0.2-0.2c0-0.1-0.1-0.1-0.1-0.2C66.6,20,66.5,20,66.4,20c-2.2-0.4-4.4-0.7-6.6-1.1
		c-0.1-1.3-0.2-2.5-0.3-3.8c-0.1,0-0.1,0-0.2,0c0.1,1.3,0.2,2.6,0.3,4C61.9,19.6,64.2,19.9,66.6,20.3z"/>
	<path class="st0" d="M74.8,21.4c-0.2,0.1-0.5,0.2-0.7,0.3c-0.1,0.1-0.1,0.1-0.2,0c-0.1,0-0.2,0.1-0.2,0.1s0.1,0.1,0.1,0.2
		c0,0-0.1,0-0.2,0c0,0.1,0,0.2,0.1,0.2c-0.1,0-0.2,0-0.2,0c0,0.1,0,0.2,0,0.2s-0.1,0-0.2,0c0,0.1,0,0.2,0,0.2
		c0.6-0.1,1.2-0.1,1.7-0.2c0.6,0.9,1.1,1.7,1.7,2.6c0.5,0.7,0.9,1.4,1.3,2.1c0.3,0.5,0.6,1,0.9,1.5c0.1,0,0.1-0.1,0.2-0.1
		c-1.3-2.1-2.7-4.2-4-6.3c-0.5,0-1,0.1-1.5,0.2h-0.1c0.1,0,0.2-0.1,0.3-0.1c0.6-0.1,1.2-0.3,1.9-0.4c1,1.5,2.1,2.9,3.1,4.3l0.1,0.1
		c0.4,0.4,0.7,0.9,1,1.4c0.1,0,0.1-0.1,0.2-0.1c-1.4-2-2.8-4-4.3-6c-0.6,0.1-1.2,0.3-1.8,0.4c0.8-0.2,1.6-0.5,2.3-0.7
		c0.6,0.7,1.1,1.4,1.7,2.1c0.2,0.2,0.4,0.5,0.6,0.8l0,0c0.7,0.8,1.3,1.7,2,2.5c0.1,0,0.1-0.1,0.2-0.1c-0.7-0.9-1.4-1.7-2-2.6
		c-0.8-1-1.7-2.1-2.4-3c-0.7,0.2-1.4,0.5-2.1,0.6c0.9-0.3,1.7-0.7,2.5-1.1c1.5,1.7,3,3.4,4.5,5.1c0.1,0,0.1-0.1,0.2-0.1
		c-1.5-1.5-3-3.2-4.5-5C76.2,20.8,75.5,21.1,74.8,21.4z"/>
	<path class="st0" d="M73.9,28.3L73.9,28.3c-0.1-0.3-0.2-0.5-0.3-0.8l0,0c-0.4-1.2-0.9-2.5-1.3-3.7c-0.1,0-0.2-0.1-0.2-0.1
		c0,0.1-0.1,0.1-0.1,0.2c0,0,0.1,0,0.2,0.1c0.5,1.4,1,2.9,1.6,4.3c0.3,0.7,0.5,1.4,0.8,2.2c-1,0.7-2.1,1.4-3.1,2.1
		c0,0.1,0.1,0.1,0.1,0.2c1.1-0.7,2.2-1.5,3.3-2.2C74.5,29.8,74.2,29,73.9,28.3z"/>
	<path class="st0" d="M74,20c0,0.1,0.1,0.1,0.1,0.2c1.4-1.1,2.7-2.2,4.1-3.2c0.1-0.1,0.2,0.1,0.3,0.1c1.3,1,2.7,1.9,4,2.9
		c0-0.1,0.1-0.1,0.1-0.2c-1.5-1.1-2.9-2.2-4.4-3.2C76.9,17.8,75.5,18.9,74,20z"/>
	<path class="st0" d="M66.9,21.7c0.1-0.1,0-0.2-0.1-0.2c-0.2,0.3-0.4,0.7-0.7,1.1c-2.4,0-4.9,0-7.3,0c-0.2-1.1-0.3-2.2-0.5-3.2
		c-0.1,0-0.2,0-0.2,0c0.2,1.1,0.4,2.3,0.5,3.4c2.5,0,5.1,0,7.6,0C66.5,22.4,66.7,22,66.9,21.7z"/>
	<path class="st0" d="M67.7,22.9c-0.1,0-0.2,0-0.2,0c0-0.1,0-0.2,0-0.2c-0.1,0-0.2,0-0.2,0c0-0.1,0-0.2-0.2-0.3c0,0,0.1-0.1,0.1-0.2
		c-0.1,0-0.2-0.1-0.2-0.1s0.1-0.1,0.1-0.2c-0.1,0-0.1-0.1-0.2-0.1c-0.2,0.5-0.5,1.1-0.7,1.6c-0.2,0-0.4,0-0.6,0l0,0
		c-2.3,0.1-4.5,0.2-6.8,0.3c0,0.1,0,0.2,0,0.2c2.2-0.1,4.5-0.2,6.7-0.3c0.3,0,0.5-0.1,0.7-0.1c0.2-0.5,0.4-0.9,0.6-1.4
		c0,0,0,0,0.1,0c-0.3,0.7-0.5,1.4-0.7,2c-2,0.2-4,0.4-5.9,0.6l0,0c-0.4,0-0.8,0.1-1.2,0.1c0,0.1,0,0.2,0,0.2c0.4,0,0.8-0.1,1.2-0.1
		c0.3,0,0.5-0.1,0.7-0.1c1.8-0.2,3.6-0.4,5.4-0.6c0.2-0.6,0.4-1.2,0.6-1.8c-0.1,0.8-0.3,1.6-0.5,2.5c-0.3,0-0.7,0.1-1,0.1
		c-0.2,0-0.4,0-0.6,0.1l0,0c-1.8,0.3-3.6,0.5-5.4,0.8c0,0.1,0,0.2,0,0.2c2-0.3,4-0.6,5.9-0.8h0.1c0.4,0,0.7-0.1,1.1-0.2
		c0.2-0.9,0.3-1.7,0.5-2.5c-0.1,1-0.3,2.1-0.4,3.1c-2.2,0.5-4.4,0.9-6.6,1.3c0,0.1,0,0.2,0,0.2c0.3,0,0.5-0.1,0.8-0.1
		c2-0.4,4-0.8,6-1.2c0.1-1,0.3-2,0.4-3c0,1.2-0.1,2.3-0.2,3.5c-2.1,0.5-4.2,1.1-6.2,1.6c0,0,0,0.1,0,0.2c0.2,0,0.3-0.1,0.5-0.1
		c2-0.5,4-1,5.9-1.5C67.6,25.5,67.6,24.2,67.7,22.9z"/>
	<path class="st0" d="M73,23.6c-0.2-0.1-0.4-0.1-0.5-0.1c0,0.1,0,0.1,0,0.2c0.1,0,0.3,0.1,0.4,0.1c0.9,2.2,1.9,4.3,2.8,6.5
		c-1.1,0.7-2.1,1.4-3.2,2.2c0,0,0.1,0.1,0.1,0.2c1.1-0.7,2.2-1.5,3.3-2.3C75,28.1,74,25.9,73,23.6z"/>
	<path class="st0" d="M68.6,23.6c-0.1,0-0.2,0-0.2,0c0.1,1.7,0.3,3.3,0.5,5c-1.6,0.6-3.2,1.2-4.8,1.9c-0.2,0.1-0.3,0.1-0.5,0.2
		c0,0.1,0.1,0.2,0.1,0.2c1.7-0.7,3.7-1.5,5.4-2.1C68.9,27,68.8,25.3,68.6,23.6z"/>
	<path class="st0" d="M71.1,24.1c-0.1,0-0.2,0-0.2,0c0.1,0.6,0.3,1.1,0.5,1.7c0.4,1.5,0.9,3,1.3,4.6c-1.2,0.7-2.5,1.5-3.7,2.2
		c0,0.1,0.1,0.2,0.1,0.2c1.3-0.8,2.5-1.5,3.8-2.3C72.4,28.3,71.8,26.2,71.1,24.1z"/>
	<path class="st0" d="M68,23.1c-0.1,0-0.2,0-0.2,0c0,1.4,0,2.8,0,4.3c-2,0.6-4,1.2-6,1.7c0,0.1,0.1,0.1,0.1,0.2
		c2-0.6,4.1-1.2,6.1-1.8C68,26.1,68,24.6,68,23.1z"/>
	<path class="st0" d="M70.5,30.4c0.3-0.2,0.5-0.3,0.8-0.4c-0.4-1.9-0.8-3.9-1.2-5.9c-0.1,0-0.1,0-0.2,0c0.4,1.9,0.8,3.8,1.1,5.7
		c-0.4,0.2-0.8,0.4-1.1,0.6l0,0c-1,0.5-2,1.1-3,1.6c0,0,0.1,0.1,0.1,0.2c1-0.5,2-1.1,3-1.6C70.1,30.6,70.3,30.5,70.5,30.4z"/>
	<path class="st0" d="M69.3,25.7L69.3,25.7L69.3,25.7L69.3,25.7L69.3,25.7c-0.1-0.6-0.2-1.3-0.3-1.9c-0.1,0-0.2,0-0.2,0
		c0.1,0.6,0.2,1.2,0.3,1.8c0.2,1.1,0.3,2.3,0.5,3.4c-1.6,0.7-3.2,1.4-4.8,2.2c0,0,0.1,0.1,0.1,0.2c1.7-0.7,3.3-1.5,5-2.2
		C69.6,28.1,69.4,26.9,69.3,25.7z"/>
	<path class="st0" d="M73.1,22.9c0,0.1,0,0.2,0,0.3c-0.2-0.1-0.2,0-0.2,0.2c0.2,0,0.5,0.1,0.7,0.1c0.2,0.1,0.2,0.4,0.3,0.6l0,0
		c0.2,0.4,0.4,0.8,0.6,1.2l0.1,0.1c0.8,1.5,1.6,3.1,2.3,4.6c-1,0.7-1.9,1.4-2.8,2.1c-0.2,0.1,0,0.3,0.1,0.2c0.8-0.6,1.6-1.2,2.4-1.7
		l0.2-0.1c0.2-0.1,0.3-0.2,0.5-0.4c-1.1-2.2-2.2-4.5-3.4-6.7c-0.2-0.1-0.4-0.1-0.6-0.1c0,0,0-0.1,0-0.2c0.4,0,0.8,0,1.2,0
		c1.2,2.1,2.4,4.2,3.6,6.3c-0.8,0.7-1.7,1.4-2.5,2.1c0.1,0.1,0.1,0.1,0.2,0.2c0.4-0.3,0.7-0.6,1.1-0.9l0,0c0.5-0.4,1.1-0.8,1.6-1.3
		c-1.3-2.2-2.5-4.4-3.8-6.6C74,22.9,73.6,22.9,73.1,22.9z"/>
	<path class="st0" d="M69.5,24c-0.1,0-0.2,0-0.2,0c0.3,1.8,0.7,3.7,1,5.5c-1.5,0.7-3,1.5-4.5,2.2c0,0.1,0.1,0.1,0.1,0.2
		c1.5-0.8,3.1-1.5,4.6-2.3C70.2,27.7,69.8,25.9,69.5,24z"/>
	<path class="st0" d="M68.2,23.4c-0.1,0-0.2,0-0.2,0c0.1,1.5,0.2,3.1,0.2,4.6c-1.8,0.6-3.7,1.3-5.5,1.9c0,0.1,0,0.1,0,0.2
		c1.9-0.7,3.8-1.3,5.7-2C68.4,26.6,68.3,25,68.2,23.4z"/>
</g>
<g>
	<path class="st0" d="M221.8,13c0-0.1,0.1-0.1,0.1-0.2l0.1,0.1l0.1-0.1l0.1,0.1l0.1-0.1l0.1,0.1l0.1-0.1l0.1,0.1
		c0-0.1,0.2-0.1,0.1-0.2c-0.2-0.4-0.5-0.7-0.8-1.1c0.6-1.1,1.1-2.2,1.7-3.3c0.3-0.6,0.6-1.2,0.9-1.8c0,0-0.1-0.1-0.2-0.1
		c-0.9,1.7-1.8,3.5-2.7,5.2c0.2,0.3,0.5,0.7,0.7,1c-0.4-0.4-0.8-0.8-1.1-1.2c0.8-1.7,1.5-3.4,2.3-5.1c0,0-0.1-0.1-0.2-0.1
		c-0.8,1.8-1.6,3.5-2.4,5.3c0.3,0.4,0.7,0.8,1,1.2c-0.3-0.3-0.7-0.6-1-0.9l0,0c-0.1-0.2-0.3-0.3-0.5-0.4c0.6-1.5,1.2-3.1,1.9-4.7
		c0.1-0.2,0.1-0.3,0.2-0.5h-0.1c-0.7,1.7-1.4,3.5-2.1,5.2c0.4,0.3,0.7,0.7,1.1,1c0.1,0.1,0.2,0.2,0.2,0.2c-0.6-0.5-1.2-0.9-1.8-1.4
		c0.5-1.6,1.1-3.3,1.6-4.9c0-0.1,0-0.2-0.1-0.2c-0.6,1.7-1.1,3.4-1.7,5.2c0.2,0.1,0.3,0.3,0.5,0.3c0.2,0.2,0.5,0.4,0.7,0.6
		c0.2,0.2,0.5,0.4,0.7,0.5l0,0c-0.2-0.1-0.4-0.2-0.5-0.4c-0.2-0.1-0.2-0.1-0.4-0.2l-0.1-0.1c-0.4-0.3-0.9-0.6-1.4-0.9
		c0.5-1.6,0.9-3.3,1.4-4.9c0,0-0.1,0-0.2,0c-0.5,1.7-0.9,3.3-1.4,5C220,11.9,220.9,12.4,221.8,13z"/>
	<path class="st0" d="M220.1,13.9c-0.8-0.2-1.6-0.5-2.4-0.7c-0.1,0-0.2,0-0.3-0.1c-0.6-0.2-1.1-0.3-1.7-0.5c0.1-0.6,0-1.2,0.1-1.9
		c0-0.6,0-1.2,0.1-1.9c0,0-0.1,0-0.2,0c0,1.3-0.1,2.6-0.1,3.9c1.5,0.4,3,0.9,4.6,1.4C220.1,14,220.1,13.9,220.1,13.9z"/>
	<path class="st0" d="M220.4,13.7c0,0,0-0.1,0-0.2c-1.4-0.5-2.8-0.9-4.2-1.4c0-0.7,0.1-1.4,0.1-2.1c0-0.6,0.1-1.2,0.1-1.9
		c0,0-0.1,0-0.2,0c0,0.6-0.1,1.2-0.1,1.9s-0.1,1.5-0.1,2.2c1.4,0.5,2.8,0.9,4.1,1.4C220.3,13.7,220.3,13.7,220.4,13.7z"/>
	<path class="st0" d="M216.5,16c0.8,0.1,1.7,0.2,2.5,0.3c0.2,0,0.3-0.2,0.4-0.3l-0.1-0.1c-0.1,0.1-0.2,0.2-0.3,0.2
		c-0.9-0.1-1.7-0.2-2.6-0.3c-1-0.1-2-0.2-3-0.3c-0.1-0.8-0.1-1.6-0.2-2.4c0-0.2,0-0.4-0.1-0.7c0,0-0.1,0-0.2,0
		c0.1,1.1,0.2,2.1,0.2,3.2C214.4,15.8,215.5,15.9,216.5,16z"/>
	<path class="st0" d="M221.5,13.1c0,0,0.1-0.1,0.1-0.2c-0.9-0.5-1.8-1.1-2.8-1.6c-0.1,0-0.1-0.1-0.1-0.2V11c0.4-1.5,0.7-3,1.1-4.6
		c-0.1,0-0.1,0-0.2,0c-0.4,1.6-0.8,3.2-1.2,4.8C219.5,11.9,220.5,12.5,221.5,13.1z"/>
	<path class="st0" d="M220,12.9c0.1,0,0.1,0,0.2,0.1c0.2,0.1,0.5,0.2,0.7,0.3c0,0,0.1-0.1,0.1-0.2c-1.2-0.5-2.4-1.1-3.6-1.6
		c0.1-0.5,0.1-0.9,0.2-1.4V10c0.1-0.4,0.1-0.8,0.2-1.2l0,0c0.1-0.6,0.2-1.1,0.3-1.7c-0.1,0-0.1,0-0.2,0c-0.1,0.5-0.2,1-0.2,1.5l0,0
		c0,0.3-0.1,0.5-0.1,0.9c0,0.2,0,0.3-0.1,0.5c-0.1,0.5-0.2,1-0.2,1.5C218.2,12.1,219.1,12.5,220,12.9z"/>
	<path class="st0" d="M220.7,13.3c-1.3-0.5-2.6-1-3.9-1.5c0.1-1.4,0.3-2.8,0.4-4.1c-0.1,0-0.1,0-0.2,0c-0.2,1.4-0.3,2.8-0.4,4.3
		c1.3,0.5,2.7,1,4,1.6C220.6,13.5,220.7,13.4,220.7,13.3z"/>
	<path class="st0" d="M218.8,16.9c0.1,0,0.2,0,0.3,0c0.2-0.2,0.3-0.3,0.5-0.5l-0.1-0.1c-0.1,0.1-0.3,0.3-0.4,0.4
		c-1.9-0.1-3.8-0.2-5.7-0.3c-0.1-0.9-0.2-1.9-0.3-2.8c0,0-0.1,0-0.2,0c0.1,1,0.2,2,0.3,3C215,16.7,216.9,16.8,218.8,16.9z"/>
	<path class="st0" d="M223.9,20.5c-0.2-0.6-0.4-1.2-0.6-1.8c-0.1,0-0.1,0-0.2,0c0.5,1.7,1.1,3.3,1.6,5c-0.9,0.6-1.7,1.1-2.6,1.7
		c0,0.1,0.1,0.2,0.2,0.1c0.9-0.6,1.8-1.2,2.7-1.8C224.6,22.6,224.3,21.6,223.9,20.5z"/>
	<path class="st0" d="M223.6,23.3c-0.4-1.5-0.7-3-1.1-4.6c-0.1,0-0.1,0-0.2,0.1c0.4,1.6,0.7,3.1,1.1,4.7c-0.4,0.2-0.9,0.5-1.3,0.7
		l0,0c-0.6,0.3-1.2,0.7-1.8,1c0,0.1,0.1,0.1,0.1,0.2c1.1-0.6,2.1-1.2,3.2-1.8C223.6,23.4,223.6,23.3,223.6,23.3z"/>
	<path class="st0" d="M217.9,11.1c0,0.1,0,0.2-0.1,0.3c1.1,0.6,2.2,1.2,3.3,1.7c0,0,0-0.1,0-0.2c-0.6-0.3-1.1-0.6-1.7-0.9l0,0
		c-0.5-0.2-1-0.5-1.5-0.7c0.3-1.5,0.6-3,0.8-4.5c-0.1,0-0.1,0-0.2,0C218.5,8.3,218.2,9.7,217.9,11.1L217.9,11.1z"/>
	<path class="st0" d="M223,12.4c0.1,0.2,0.1,0.4,0.2,0.7c0,0,0.1,0,0.2,0c0-0.2-0.1-0.4-0.2-0.6c1.1-1.6,2.1-3.1,3.2-4.7
		c0.5,0.2,1,0.4,1.5,0.6h0.1c0.4,0.1,0.7,0.3,1,0.5c0,0,0-0.1,0.1-0.2c-0.9-0.4-1.8-0.8-2.7-1.2C225.2,9.2,224.1,10.8,223,12.4z"/>
	<path class="st0" d="M224.3,13.6l0.1,0.1c1.1-1.3,2.3-2.6,3.4-3.9c0.1-0.1,0.2,0,0.2,0c0.9,0.4,1.7,0.9,2.6,1.3
		c0-0.1,0.1-0.1,0.1-0.2c-1-0.5-1.9-1-2.9-1.5C226.7,10.9,225.5,12.3,224.3,13.6z"/>
	<path class="st0" d="M215.8,13.9c0,0,0.1,0,0.2,0l0,0c1.2,0.3,2.4,0.6,3.6,1c0-0.1,0-0.1,0-0.2c-1.2-0.3-2.4-0.6-3.6-0.9l0,0
		c-0.4-0.1-0.8-0.2-1.2-0.3c0-1.1-0.1-2.3-0.1-3.4c0,0-0.1,0-0.2,0c0,1.2,0,2.3,0.1,3.5C215,13.7,215.4,13.8,215.8,13.9z"/>
	<path class="st0" d="M225,14.7l0.1,0.1c1-0.9,2-1.9,3-2.8c0.1-0.1,0.2-0.2,0.4-0.3c1,0.7,2.1,1.3,3.2,2l0.1-0.1
		c-1.1-0.7-2.2-1.4-3.3-2.1C227.3,12.6,226.2,13.7,225,14.7z"/>
	<path class="st0" d="M225.1,15.1l0.1,0.1c1.1-1,2.2-1.9,3.3-2.9c1,0.7,2.1,1.4,3.1,2l0,0c0.1,0,0.1,0.1,0.2,0.1l0.1-0.1
		c-1.1-0.8-2.3-1.5-3.4-2.3C227.4,13.1,226.3,14.1,225.1,15.1z"/>
	<path class="st0" d="M222.9,13l0.1-0.1c-0.2-0.3-0.3-0.6-0.5-0.9c0.9-1.6,1.9-3.3,2.8-4.9c0.8,0.3,1.6,0.6,2.4,0.9
		c0-0.1,0-0.1,0-0.2c-0.9-0.3-1.7-0.7-2.6-1c-1,1.7-2,3.4-3,5.2C222.6,12.4,222.8,12.7,222.9,13z"/>
	<path class="st0" d="M227,12.2L227,12.2c-0.7,0.8-1.4,1.5-2.1,2.2l0.1,0.1c1.1-1.1,2.3-2.3,3.4-3.4c1,0.6,2.1,1.2,3.1,1.8
		c0,0,0-0.1,0.1-0.2c-1.1-0.6-2.1-1.3-3.2-1.9C227.9,11.3,227.4,11.7,227,12.2z"/>
	<path class="st0" d="M227.4,14.7L227.4,14.7c-0.1,0-0.1,0.1-0.2,0.1c-0.1,0-0.1,0.1-0.2,0.1c-0.6,0.4-1.3,0.8-1.9,1.3
		c0,0.1,0.1,0.1,0.1,0.2c1-0.7,2-1.3,3-2c1.2,1,2.3,2,3.5,3l0.1-0.1c-1.2-1-2.4-2.1-3.6-3.1C228,14.3,227.5,14.7,227.4,14.7z"/>
	<path class="st0" d="M225.1,10.7c-0.5,0.7-1.1,1.4-1.6,2.1c0,0.1,0,0.2,0.1,0.3c0.1,0,0.1,0,0.2,0c0-0.1,0-0.2-0.1-0.3
		C224.2,12.1,224.7,11.4,225.1,10.7c0.7-0.8,1.2-1.5,1.8-2.3c0,0,0.1-0.2,0.2-0.1c0.9,0.4,1.7,0.8,2.6,1.3c0,0,0.1-0.1,0.1-0.2
		c-0.9-0.5-1.9-0.9-2.8-1.4C226.3,9,225.7,9.8,225.1,10.7z"/>
	<path class="st0" d="M225.2,15.8l0.1,0.1c1-0.8,2.1-1.5,3.2-2.3c1.1,0.9,2.3,1.8,3.4,2.8l0.1-0.1c-1.2-1-2.4-1.9-3.6-2.9
		C227.4,14.3,226.3,15,225.2,15.8z"/>
	<path class="st0" d="M223.9,13.3c0.1,0,0.2,0.1,0.2,0c0.8-1,1.6-2,2.5-3c0.1-0.2,0.3-0.4,0.4-0.6c0.2-0.2,0.4-0.4,0.5-0.6
		c0.9,0.4,1.7,0.8,2.6,1.2c0.1,0.1,0.1-0.1,0.1-0.1c-0.9-0.4-1.9-0.9-2.8-1.3C226.3,10.4,225.1,11.8,223.9,13.3z"/>
	<path class="st0" d="M219.8,14.4c-1.5-0.4-2.9-0.9-4.4-1.3l0,0c-0.1,0-0.1,0-0.2-0.1c0-1.2,0-2.4,0-3.6c-0.1,0-0.1,0-0.2,0
		c0,1.2,0,2.5,0,3.7C216.6,13.6,218.2,14,219.8,14.4C219.8,14.5,219.8,14.4,219.8,14.4z"/>
	<path class="st0" d="M224.6,14l0.1,0.1c1.1-1.2,2.3-2.5,3.4-3.7c1,0.6,2,1.1,2.9,1.6c0.1-0.1,0.1-0.2,0-0.2c-1-0.5-2-1.1-3-1.6
		C227,11.4,225.8,12.7,224.6,14z"/>
	<path class="st0" d="M225.1,16.4c0,0,0.1,0.1,0.1,0.2c1-0.6,1.9-1.1,2.9-1.7c1.2,1.1,2.3,2.2,3.5,3.3c0.1,0.1,0.1,0,0.2-0.1
		c-1.2-1.2-2.4-2.3-3.6-3.5C227.1,15.3,226.1,15.9,225.1,16.4z"/>
	<path class="st0" d="M225,16.7v0.1c0,0,0.1-0.1,0.2-0.1c0.9-0.4,1.6-0.7,2.3-1.1c0.1,0,0.2-0.1,0.2,0c1.2,1.2,2.3,2.4,3.5,3.6
		l0.1-0.1c-1.2-1.3-2.4-2.5-3.7-3.8C226.9,15.8,225.9,16.2,225,16.7z"/>
	<path class="st0" d="M219.4,15.3c0-0.1,0-0.1,0-0.2c-1.7-0.3-3.4-0.7-5.1-1.1c-0.1-1-0.1-2.1-0.2-3.1c0,0-0.1,0-0.2,0
		c0.1,1.1,0.1,2.2,0.2,3.2C215.9,14.5,217.7,14.9,219.4,15.3z"/>
	<path class="st0" d="M219.3,15.7c0.1-0.1,0.1-0.1,0.2-0.2l-0.1-0.1c-0.1,0.1-0.2,0.1-0.3,0.1c-1.7-0.3-3.5-0.6-5.2-0.9
		c-0.1-1-0.1-2-0.2-2.9c-0.1,0-0.1,0-0.2,0c0.1,1,0.2,2.1,0.2,3.1C215.6,15.1,217.5,15.4,219.3,15.7z"/>
	<path class="st0" d="M225.8,16.6c-0.2,0.1-0.4,0.1-0.5,0.2c0,0-0.1,0-0.2,0c0,0-0.1,0.1-0.2,0.1c0,0,0,0.1,0.1,0.1h-0.1
		c0,0.1,0,0.1,0.1,0.2c0,0-0.1,0-0.2,0c0,0,0,0.1,0,0.2c0,0-0.1,0-0.2,0c0,0,0,0.1,0,0.2c0.5,0,0.9-0.1,1.4-0.1
		c0.4,0.7,0.9,1.4,1.3,2c0.4,0.5,0.7,1.1,1.1,1.6c0.2,0.4,0.5,0.8,0.7,1.2c0.1,0,0.1,0,0.2-0.1c-1.1-1.6-2.1-3.3-3.1-4.9
		c-0.4,0-0.8,0.1-1.2,0.1h-0.1c0.1,0,0.1,0,0.2-0.1c0.5-0.1,1-0.2,1.5-0.3c0.8,1.1,1.6,2.3,2.4,3.4l0.1,0.1c0.3,0.4,0.5,0.7,0.8,1.1
		c0.1,0,0.1-0.1,0.2-0.1c-1.1-1.6-2.2-3.1-3.4-4.7c-0.5,0.1-0.9,0.2-1.4,0.3c0.6-0.2,1.2-0.4,1.8-0.6c0.4,0.6,0.9,1.1,1.3,1.7
		c0.1,0.2,0.3,0.4,0.5,0.7l0,0c0.5,0.7,1,1.3,1.6,2l0.1-0.1c-0.5-0.7-1.1-1.3-1.6-2c-0.6-0.8-1.3-1.6-1.9-2.4
		c-0.6,0.1-1.1,0.4-1.7,0.5c0.7-0.3,1.3-0.6,2-0.8c1.2,1.3,2.4,2.6,3.5,4L231,20c-1.2-1.4-2.4-2.7-3.6-4.1
		C226.9,16.1,226.4,16.3,225.8,16.6z"/>
	<path class="st0" d="M225.1,22L225.1,22c-0.1-0.2-0.2-0.4-0.2-0.6l0,0c-0.3-1-0.7-1.9-1.1-2.9c-0.1,0-0.1-0.1-0.2-0.1
		c0,0.1,0,0.1-0.1,0.2c0,0,0.1,0,0.1,0.1c0.4,1.1,0.8,2.3,1.2,3.4c0.2,0.6,0.4,1.1,0.6,1.7c-0.8,0.6-1.6,1.1-2.4,1.7
		c0,0.1,0.1,0.1,0.1,0.2c0.9-0.6,1.7-1.2,2.6-1.7C225.5,23.2,225.3,22.5,225.1,22z"/>
	<path class="st0" d="M225.2,15.5l0.1,0.1c1.1-0.8,2.1-1.7,3.2-2.5c0.1-0.1,0.2,0.1,0.3,0.1c1,0.8,2.1,1.5,3.1,2.3l0.1-0.1
		c-1.1-0.9-2.3-1.7-3.5-2.5C227.4,13.7,226.3,14.6,225.2,15.5z"/>
	<path class="st0" d="M219.6,16.8c0.1-0.1,0-0.1-0.1-0.2c-0.2,0.3-0.4,0.6-0.5,0.8c-1.9,0-3.8,0-5.7,0c-0.1-0.8-0.3-1.7-0.4-2.5
		c0,0-0.1,0-0.2,0c0.1,0.9,0.3,1.8,0.4,2.7c2,0,4,0,6,0C219.2,17.3,219.4,17.1,219.6,16.8z"/>
	<path class="st0" d="M220.2,17.7c0,0-0.1,0-0.2,0c0,0,0-0.1,0-0.2c0,0-0.1,0-0.2,0c0-0.1,0-0.2-0.1-0.2c0,0,0-0.1,0.1-0.2
		c0,0-0.1-0.1-0.2-0.1l0.1-0.1c-0.1,0-0.1-0.1-0.2-0.1c-0.2,0.4-0.4,0.8-0.6,1.3c-0.1,0-0.3,0-0.4,0l0,0c-1.8,0.1-3.5,0.2-5.3,0.2
		c0,0,0,0.1,0,0.2c1.8,0,3.5-0.2,5.3-0.2c0.2,0,0.4,0,0.6,0c0.2-0.4,0.3-0.7,0.5-1.1l0,0c-0.2,0.5-0.4,1.1-0.6,1.6
		c-1.5,0.2-3.1,0.3-4.7,0.5l0,0c-0.3,0-0.6,0.1-0.9,0.1c0,0,0,0.1,0,0.2c0.3,0,0.6-0.1,0.9-0.1c0.2,0,0.4-0.1,0.6-0.1
		c1.4-0.1,2.8-0.3,4.3-0.4c0.1-0.5,0.3-0.9,0.4-1.4c-0.1,0.6-0.3,1.3-0.4,1.9c-0.2,0-0.5,0.1-0.8,0.1c-0.1,0-0.3,0-0.4,0.1l0,0
		c-1.4,0.2-2.8,0.4-4.2,0.6c0,0.1,0,0.1,0,0.2c1.6-0.2,3.1-0.4,4.7-0.6h0.1c0.3,0,0.6-0.1,0.9-0.1c0.1-0.7,0.3-1.3,0.4-2
		c-0.1,0.8-0.2,1.6-0.3,2.4c-1.7,0.4-3.4,0.7-5.2,1.1c0,0,0,0.1,0,0.2c0.2,0,0.4-0.1,0.6-0.1c1.6-0.3,3.1-0.6,4.7-1
		c0.1-0.8,0.2-1.6,0.3-2.4c0,0.9-0.1,1.8-0.2,2.8c-1.6,0.4-3.3,0.8-4.9,1.3c0,0,0,0.1,0,0.2c0.1,0,0.2-0.1,0.4-0.1
		c1.6-0.4,3.1-0.8,4.7-1.2C220.1,19.8,220.1,18.7,220.2,17.7z"/>
	<path class="st0" d="M224.4,18.3c-0.1,0-0.3-0.1-0.4-0.1c0,0.1,0,0.1,0,0.2c0.1,0,0.2,0.1,0.3,0.1c0.7,1.7,1.5,3.4,2.2,5.1
		c-0.8,0.6-1.7,1.1-2.5,1.7l0.1,0.1c0.9-0.6,1.7-1.2,2.6-1.8C225.9,21.8,225.1,20.1,224.4,18.3z"/>
	<path class="st0" d="M220.9,18.3c0,0-0.1,0-0.2,0c0.1,1.3,0.3,2.6,0.4,3.9c-1.2,0.5-2.5,1-3.7,1.5c-0.1,0.1-0.2,0.1-0.4,0.2
		c0,0.1,0.1,0.1,0.1,0.2c1.3-0.5,2.9-1.1,4.3-1.7C221.2,21,221,19.6,220.9,18.3z"/>
	<path class="st0" d="M222.9,18.7c0,0-0.1,0-0.2,0c0.1,0.4,0.2,0.9,0.4,1.3c0.3,1.2,0.7,2.4,1,3.6c-1,0.6-1.9,1.2-2.9,1.7
		c0,0,0.1,0.1,0.1,0.2c1-0.6,2-1.2,3-1.8C223.9,22,223.4,20.3,222.9,18.7z"/>
	<path class="st0" d="M220.4,17.9c0,0-0.1,0-0.2,0c0,1.1,0,2.2,0,3.3c-1.6,0.5-3.1,0.9-4.7,1.4c0,0.1,0,0.1,0.1,0.2
		c1.6-0.5,3.2-0.9,4.8-1.4C220.4,20.2,220.4,19.1,220.4,17.9z"/>
	<path class="st0" d="M222.4,23.6c0.2-0.1,0.4-0.2,0.6-0.3c-0.3-1.5-0.6-3.1-0.9-4.6c-0.1,0-0.1,0-0.2,0c0.3,1.5,0.6,3,0.9,4.5
		c-0.3,0.2-0.6,0.3-0.9,0.5l0,0c-0.8,0.4-1.6,0.9-2.4,1.3l0.1,0.1c0.8-0.4,1.6-0.8,2.3-1.3C222.1,23.8,222.2,23.7,222.4,23.6z"/>
	<path class="st0" d="M221.4,19.9L221.4,19.9L221.4,19.9L221.4,19.9L221.4,19.9c-0.1-0.5-0.2-1-0.2-1.5c0,0-0.1,0-0.2,0
		c0.1,0.5,0.2,1,0.2,1.4c0.1,0.9,0.3,1.8,0.4,2.7c-1.3,0.6-2.5,1.1-3.8,1.7l0.1,0.1c1.3-0.6,2.6-1.2,3.9-1.7
		C221.7,21.8,221.5,20.9,221.4,19.9z"/>
	<path class="st0" d="M224.4,17.7c0,0.1,0,0.2,0,0.2c-0.2-0.1-0.2,0-0.2,0.1c0.2,0,0.4,0.1,0.6,0.1c0.1,0.1,0.2,0.3,0.2,0.4l0,0
		c0.1,0.3,0.3,0.6,0.5,0.9l0.1,0.1c0.6,1.2,1.2,2.4,1.8,3.6c-0.7,0.5-1.5,1.1-2.2,1.6c-0.1,0,0,0.2,0.1,0.1c0.6-0.4,1.2-0.9,1.9-1.4
		l0.1-0.1c0.1-0.1,0.2-0.2,0.4-0.3c-0.9-1.8-1.8-3.5-2.6-5.3c-0.1,0-0.3-0.1-0.5-0.1v-0.1c0.3,0,0.6,0,0.9,0c1,1.7,1.9,3.3,2.9,5
		c-0.7,0.6-1.3,1.1-2,1.6l0.1,0.1c0.3-0.2,0.6-0.5,0.8-0.7l0,0c0.4-0.3,0.8-0.7,1.3-1c-1-1.7-2-3.5-3-5.2
		C225.2,17.7,224.8,17.7,224.4,17.7z"/>
	<path class="st0" d="M221.6,18.6c-0.1,0-0.1,0-0.2,0c0.3,1.4,0.5,2.9,0.8,4.3c-1.2,0.6-2.3,1.2-3.5,1.7c0,0.1,0,0.1,0.1,0.2
		c1.2-0.6,2.4-1.2,3.6-1.8C222.1,21.5,221.9,20.1,221.6,18.6z"/>
	<path class="st0" d="M220.6,18.1c0,0-0.1,0-0.2,0c0.1,1.2,0.1,2.4,0.2,3.6c-1.4,0.5-2.9,1-4.3,1.5c0,0.1,0,0.1,0,0.2
		c1.5-0.5,3-1.1,4.5-1.6C220.8,20.6,220.7,19.4,220.6,18.1z"/>
</g>
<g>
	<path class="st0" d="M173.7,120.1l0.1-0.1l0.1,0.1l0.1-0.1l0.1,0.1l0.1-0.1l0.1,0.1l0.1-0.1l0.1,0.1c0,0,0.1-0.1,0.1-0.2
		c-0.2-0.3-0.5-0.6-0.7-1c0.5-1,1-2,1.6-3c0.3-0.5,0.6-1.1,0.9-1.6l-0.1-0.1c-0.8,1.6-1.7,3.2-2.5,4.8c0.2,0.3,0.4,0.6,0.7,0.9
		c-0.4-0.4-0.7-0.8-1-1.1c0.7-1.6,1.4-3.1,2.1-4.7l-0.1-0.1c-0.7,1.6-1.4,3.2-2.2,4.8c0.3,0.4,0.6,0.7,1,1.1
		c-0.3-0.3-0.6-0.5-0.9-0.8l0,0c-0.1-0.1-0.3-0.3-0.4-0.4c0.6-1.4,1.1-2.8,1.7-4.3c0.1-0.1,0.1-0.3,0.1-0.4h-0.1
		c-0.6,1.6-1.3,3.2-1.9,4.8c0.3,0.3,0.7,0.6,1,0.9c0.1,0.1,0.2,0.1,0.2,0.2c-0.6-0.4-1.1-0.8-1.6-1.3c0.5-1.5,1-3,1.5-4.5
		c0-0.1,0-0.2-0.1-0.2c-0.5,1.6-1,3.1-1.6,4.7c0.1,0.1,0.3,0.2,0.4,0.3c0.2,0.2,0.5,0.4,0.7,0.5c0.2,0.2,0.4,0.4,0.7,0.5l0,0
		c-0.2-0.1-0.3-0.2-0.5-0.3c-0.1-0.1-0.1-0.1-0.4-0.2l-0.1-0.1c-0.4-0.3-0.8-0.5-1.2-0.8c0.4-1.5,0.9-3,1.3-4.5c0,0-0.1,0-0.2,0
		c-0.4,1.5-0.9,3.1-1.3,4.6C172.2,119,173,119.5,173.7,120.1z"/>
	<path class="st0" d="M172.3,120.8c-0.7-0.2-1.5-0.4-2.2-0.7c-0.1,0-0.2,0-0.3-0.1c-0.5-0.2-1-0.3-1.6-0.5c0-0.6,0-1.1,0.1-1.7
		c0-0.6,0-1.1,0.1-1.7c0,0-0.1,0-0.2,0c0,1.2-0.1,2.4-0.1,3.5c1.4,0.4,2.8,0.9,4.2,1.3C172.2,120.9,172.2,120.9,172.3,120.8z"/>
	<path class="st0" d="M172.5,120.7c0,0,0-0.1,0-0.2c-1.3-0.4-2.5-0.9-3.8-1.3c0-0.6,0.1-1.3,0.1-1.9s0-1.1,0.1-1.7c0,0-0.1,0-0.2,0
		c0,0.6-0.1,1.1-0.1,1.7c0,0.7-0.1,1.3-0.1,2c1.3,0.4,2.5,0.9,3.8,1.3C172.4,120.7,172.4,120.7,172.5,120.7z"/>
	<path class="st0" d="M169,122.8c0.8,0.1,1.5,0.2,2.3,0.3c0.2,0,0.3-0.2,0.4-0.3l-0.1-0.1c-0.1,0.1-0.2,0.2-0.2,0.2
		c-0.8-0.1-1.6-0.2-2.4-0.3c-0.9-0.1-1.8-0.2-2.7-0.3c-0.1-0.7-0.1-1.4-0.2-2.1c0-0.2,0-0.4-0.1-0.6h-0.1c0.1,1,0.1,1.9,0.2,2.9
		C167.1,122.6,168,122.7,169,122.8z"/>
	<path class="st0" d="M173.5,120.1l0.1-0.1c-0.8-0.5-1.7-1-2.5-1.5c-0.1,0-0.1-0.1-0.1-0.1v-0.1c0.3-1.4,0.7-2.8,1-4.2
		c-0.1,0-0.1,0-0.2,0c-0.4,1.5-0.7,2.9-1.1,4.4C171.7,119.1,172.6,119.6,173.5,120.1z"/>
	<path class="st0" d="M172.1,120c0.1,0,0.1,0,0.2,0.1c0.2,0.1,0.4,0.2,0.7,0.3c0,0,0-0.1,0.1-0.2c-1.1-0.5-2.2-1-3.3-1.5
		c0.1-0.4,0.1-0.9,0.2-1.3v-0.1c0.1-0.4,0.1-0.7,0.2-1.1l0,0c0.1-0.5,0.2-1,0.2-1.5c-0.1,0-0.1,0-0.2,0c0,0.5-0.1,0.9-0.2,1.4l0,0
		c0,0.3-0.1,0.5-0.1,0.8c0,0.2,0,0.3-0.1,0.5c-0.1,0.5-0.1,0.9-0.2,1.4C170.5,119.2,171.3,119.6,172.1,120z"/>
	<path class="st0" d="M172.8,120.3c-1.2-0.5-2.4-0.9-3.5-1.4c0.1-1.3,0.3-2.5,0.4-3.8c-0.1,0-0.1,0-0.2,0c-0.1,1.3-0.3,2.6-0.4,3.9
		C170.3,119.5,171.5,119.9,172.8,120.3C172.7,120.5,172.8,120.4,172.8,120.3z"/>
	<path class="st0" d="M171,123.6c0.1,0,0.2,0,0.3,0c0.1-0.1,0.3-0.3,0.4-0.5l-0.1-0.1c-0.1,0.1-0.2,0.3-0.4,0.4
		c-1.7-0.1-3.5-0.2-5.2-0.3c-0.1-0.9-0.2-1.7-0.3-2.6c0,0-0.1,0-0.2,0c0.1,0.9,0.2,1.8,0.3,2.7C167.6,123.4,169.3,123.5,171,123.6z"
		/>
	<path class="st0" d="M175.7,126.8c-0.2-0.6-0.4-1.1-0.5-1.7c-0.1,0-0.1,0-0.2,0c0.5,1.5,1,3.1,1.5,4.6c-0.8,0.5-1.6,1-2.4,1.6
		c0,0.1,0.1,0.2,0.1,0.1c0.8-0.5,1.7-1.1,2.4-1.6C176.4,128.8,176.1,127.8,175.7,126.8z"/>
	<path class="st0" d="M175.4,129.4c-0.3-1.4-0.7-2.8-1-4.2c-0.1,0-0.1,0-0.2,0c0.3,1.4,0.7,2.8,1,4.3c-0.4,0.2-0.8,0.4-1.2,0.7l0,0
		c-0.6,0.3-1.1,0.6-1.7,0.9l0.1,0.1c1-0.5,2-1.1,2.9-1.6C175.5,129.6,175.4,129.5,175.4,129.4z"/>
	<path class="st0" d="M170.2,118.3c0,0.1,0,0.2-0.1,0.3c1,0.5,2,1.1,3.1,1.5c0,0,0-0.1,0-0.2c-0.5-0.3-1-0.5-1.5-0.8l0,0
		c-0.4-0.2-0.9-0.4-1.3-0.7c0.2-1.4,0.5-2.8,0.8-4.1c-0.1,0-0.1,0-0.2,0C170.7,115.7,170.5,117,170.2,118.3L170.2,118.3z"/>
	<path class="st0" d="M174.9,119.5c0.1,0.2,0.1,0.4,0.2,0.6c0,0,0.1,0,0.2,0c0-0.2-0.1-0.4-0.2-0.5c1-1.4,1.9-2.9,2.9-4.3
		c0.4,0.2,0.9,0.4,1.3,0.6l0,0c0.3,0.1,0.6,0.3,1,0.4c0,0,0-0.1,0.1-0.2c-0.8-0.3-1.6-0.7-2.5-1.1
		C176.9,116.5,175.9,118,174.9,119.5z"/>
	<path class="st0" d="M176.1,120.6l0.1,0.1c1-1.2,2.1-2.4,3.1-3.5c0.1-0.1,0.2,0,0.2,0c0.8,0.4,1.6,0.8,2.4,1.2
		c0-0.1,0.1-0.1,0.1-0.2c-0.9-0.4-1.8-0.9-2.6-1.3C178.2,118.1,177.1,119.4,176.1,120.6z"/>
	<path class="st0" d="M168.3,120.9h0.1l0,0c1.1,0.3,2.2,0.6,3.3,0.9c0-0.1,0-0.1,0-0.2c-1.1-0.3-2.2-0.6-3.3-0.9l0,0
		c-0.4-0.1-0.8-0.2-1.1-0.3c0-1,0-2.1-0.1-3.1c0,0-0.1,0-0.2,0c0,1.1,0,2.1,0.1,3.2C167.5,120.7,167.9,120.8,168.3,120.9z"/>
	<path class="st0" d="M176.7,121.6l0.1,0.1c0.9-0.9,1.8-1.7,2.7-2.6c0.1-0.1,0.2-0.2,0.4-0.3c1,0.6,1.9,1.2,2.9,1.8l0.1-0.1
		c-1-0.6-2-1.2-3-1.9C178.8,119.7,177.8,120.6,176.7,121.6z"/>
	<path class="st0" d="M176.8,122l0.1,0.1c1-0.9,2-1.8,3-2.7c0.9,0.6,1.9,1.2,2.8,1.9l0,0c0.1,0,0.1,0.1,0.2,0.1c0,0,0-0.1,0.1-0.1
		c-1-0.7-2.1-1.4-3.1-2.1C178.9,120.2,177.9,121.1,176.8,122z"/>
	<path class="st0" d="M174.8,120.1l0.1-0.1c-0.1-0.3-0.3-0.5-0.4-0.8c0.9-1.5,1.7-3,2.6-4.5c0.7,0.3,1.5,0.6,2.2,0.8
		c0-0.1,0-0.1,0-0.2c-0.8-0.3-1.6-0.6-2.3-0.9c-0.9,1.6-1.8,3.1-2.7,4.7C174.5,119.5,174.7,119.8,174.8,120.1z"/>
	<path class="st0" d="M178.5,119.3L178.5,119.3c-0.7,0.7-1.3,1.3-1.9,2l0.1,0.1c1-1,2.1-2.1,3.1-3.1c1,0.5,1.9,1.1,2.8,1.7
		c0,0,0-0.1,0.1-0.1c-1-0.6-1.9-1.2-2.9-1.7C179.3,118.5,178.9,118.9,178.5,119.3z"/>
	<path class="st0" d="M178.9,121.6L178.9,121.6c-0.1,0-0.1,0.1-0.1,0.1c-0.1,0-0.1,0.1-0.1,0.1c-0.6,0.4-1.2,0.8-1.8,1.1l0.1,0.1
		c0.9-0.6,1.8-1.2,2.7-1.8c1.1,0.9,2.1,1.8,3.2,2.7l0.1-0.1c-1.1-0.9-2.2-1.9-3.3-2.8C179.5,121.2,178.9,121.5,178.9,121.6z"/>
	<path class="st0" d="M176.8,117.9c-0.5,0.7-1,1.3-1.5,2c0,0.1,0,0.2,0.1,0.3c0.1,0,0.1,0,0.2,0c0-0.1,0-0.2-0.1-0.2
		c0.5-0.6,0.9-1.3,1.4-1.9c0.5-0.7,1-1.4,1.6-2.1l0.1-0.1c0.8,0.4,1.6,0.8,2.4,1.2l0.1-0.1c-0.9-0.4-1.7-0.8-2.6-1.2
		C177.9,116.4,177.3,117.1,176.8,117.9z"/>
	<path class="st0" d="M176.9,122.6l0.1,0.1c1-0.7,1.9-1.4,2.9-2.1c1,0.8,2.1,1.7,3.1,2.5l0.1-0.1c-1.1-0.9-2.2-1.7-3.2-2.6
		C178.9,121.2,177.9,121.9,176.9,122.6z"/>
	<path class="st0" d="M175.7,120.3c0.1,0,0.1,0.1,0.2,0c0.8-0.9,1.5-1.8,2.3-2.8c0.1-0.2,0.3-0.3,0.4-0.5c0.2-0.2,0.3-0.4,0.5-0.6
		c0.8,0.4,1.6,0.8,2.4,1.1c0.1,0,0.1-0.1,0.1-0.1c-0.9-0.4-1.7-0.8-2.6-1.2C177.9,117.7,176.8,119,175.7,120.3z"/>
	<path class="st0" d="M172,121.3c-1.3-0.4-2.7-0.8-4-1.2l0,0c-0.1,0-0.1,0-0.2-0.1c0-1.1,0-2.2,0-3.3c-0.1,0-0.1,0-0.2,0
		c0,1.1,0,2.3,0,3.4c1.4,0.4,2.9,0.9,4.3,1.3C171.9,121.4,171.9,121.3,172,121.3z"/>
	<path class="st0" d="M176.3,120.9l0.1,0.1c1-1.1,2.1-2.3,3.1-3.4c0.9,0.5,1.8,1,2.7,1.5c0.1-0.1,0.1-0.2,0-0.2
		c-0.9-0.5-1.8-1-2.7-1.5C178.5,118.6,177.4,119.8,176.3,120.9z"/>
	<path class="st0" d="M176.8,123.2l0.1,0.1c0.9-0.5,1.8-1,2.6-1.5c1.1,1,2.1,2,3.2,3c0.1,0.1,0.1,0,0.2-0.1
		c-1.1-1.1-2.2-2.1-3.3-3.2C178.6,122.1,177.7,122.6,176.8,123.2z"/>
	<path class="st0" d="M176.7,123.4L176.7,123.4c0,0.1,0.1,0,0.2,0c0.8-0.4,1.4-0.7,2.1-1c0.1,0,0.2-0.1,0.2,0
		c1.1,1.1,2.1,2.2,3.2,3.3l0.1-0.1c-1.1-1.1-2.2-2.3-3.3-3.4C178.4,122.6,177.6,123,176.7,123.4z"/>
	<path class="st0" d="M171.6,122.1c0-0.1,0-0.1,0-0.2c-1.6-0.3-3.1-0.7-4.7-1c-0.1-0.9-0.1-1.9-0.2-2.8c0,0-0.1,0-0.2,0
		c0.1,1,0.1,2,0.2,3C168.4,121.4,170,121.8,171.6,122.1z"/>
	<path class="st0" d="M171.5,122.5c0.1,0,0.1-0.1,0.2-0.1l-0.1-0.1c-0.1,0.1-0.1,0.1-0.2,0.1c-1.6-0.3-3.2-0.5-4.7-0.8
		c-0.1-0.9-0.1-1.8-0.2-2.7c-0.1,0-0.1,0-0.2,0c0.1,0.9,0.1,1.9,0.2,2.8C168.1,122,169.8,122.2,171.5,122.5z"/>
	<path class="st0" d="M177.4,123.3c-0.2,0.1-0.3,0.1-0.5,0.2c0,0-0.1,0-0.2,0c0,0-0.1,0.1-0.2,0.1c0,0,0,0.1,0.1,0.1h-0.1
		c0,0.1,0,0.1,0.1,0.2c0,0-0.1,0-0.2,0c0,0,0,0.1,0,0.2h-0.1c0,0,0,0.1,0,0.2c0.4,0,0.8-0.1,1.3-0.1c0.4,0.6,0.8,1.2,1.2,1.9
		c0.3,0.5,0.6,1,1,1.5c0.2,0.4,0.4,0.7,0.7,1.1c0,0,0.1,0,0.1-0.1c-1-1.5-1.9-3-2.9-4.5c-0.4,0-0.7,0.1-1.1,0.1h-0.1
		c0.1,0,0.1,0,0.2,0c0.4-0.1,0.9-0.2,1.3-0.3c0.7,1,1.5,2.1,2.2,3.1l0.1,0.1c0.3,0.3,0.5,0.7,0.7,1l0.1-0.1c-1-1.4-2-2.9-3.1-4.3
		c-0.4,0.1-0.9,0.2-1.3,0.3c0.6-0.2,1.1-0.3,1.7-0.5c0.4,0.5,0.8,1,1.2,1.5c0.1,0.2,0.3,0.4,0.5,0.6l0,0c0.5,0.6,1,1.2,1.4,1.8
		l0.1-0.1c-0.5-0.6-1-1.2-1.4-1.9c-0.5-0.7-1.2-1.5-1.7-2.2c-0.5,0.1-1,0.3-1.5,0.5c0.6-0.2,1.2-0.5,1.8-0.8
		c1.1,1.2,2.1,2.4,3.2,3.6l0.1-0.1c-1.1-1.2-2.2-2.5-3.3-3.7C178.5,122.9,177.9,123.1,177.4,123.3z"/>
	<path class="st0" d="M176.8,128.2L176.8,128.2c-0.1-0.2-0.1-0.4-0.2-0.5l0,0c-0.3-0.9-0.7-1.8-1-2.6c-0.1,0-0.1-0.1-0.2-0.1
		c0,0.1,0,0.1-0.1,0.2h0.1c0.4,1,0.7,2.1,1.1,3.1c0.2,0.5,0.4,1,0.6,1.5c-0.7,0.5-1.5,1-2.2,1.5l0.1,0.1c0.8-0.5,1.6-1.1,2.4-1.6
		C177.2,129.3,177,128.7,176.8,128.2z"/>
	<path class="st0" d="M176.9,122.3l0.1,0.1c1-0.8,1.9-1.5,2.9-2.3c0.1-0.1,0.2,0.1,0.2,0.1c1,0.7,1.9,1.4,2.9,2.1l0.1-0.1
		c-1-0.8-2.1-1.5-3.2-2.3C178.9,120.7,177.9,121.5,176.9,122.3z"/>
	<path class="st0" d="M171.8,123.5c0.1-0.1,0-0.1-0.1-0.2c-0.2,0.2-0.3,0.5-0.5,0.8c-1.7,0-3.5,0-5.2,0c-0.1-0.8-0.2-1.5-0.4-2.3
		c0,0-0.1,0-0.2,0c0.1,0.8,0.3,1.6,0.4,2.5c1.8,0,3.6,0,5.5,0C171.4,124,171.6,123.7,171.8,123.5z"/>
	<path class="st0" d="M172.3,124.3h-0.1c0,0,0-0.1,0-0.2h-0.1c0-0.1,0-0.2-0.1-0.2v-0.1c0,0-0.1-0.1-0.2-0.1l0.1-0.1
		c0,0-0.1,0-0.1-0.1c-0.2,0.4-0.4,0.8-0.5,1.1c-0.1,0-0.3,0-0.4,0l0,0c-1.6,0.1-3.2,0.1-4.8,0.2c0,0,0,0.1,0,0.2
		c1.6,0,3.2-0.2,4.8-0.2c0.2,0,0.3,0,0.5,0c0.2-0.3,0.3-0.7,0.5-1l0,0c-0.2,0.5-0.3,1-0.5,1.5c-1.4,0.2-2.8,0.3-4.3,0.4l0,0
		c-0.3,0-0.6,0.1-0.9,0.1c0,0,0,0.1,0,0.2c0.3,0,0.6-0.1,0.9-0.1c0.2,0,0.4,0,0.5-0.1c1.3-0.1,2.6-0.3,3.9-0.4
		c0.1-0.4,0.3-0.8,0.4-1.3c-0.1,0.6-0.2,1.2-0.3,1.8c-0.2,0-0.5,0.1-0.7,0.1c-0.1,0-0.3,0-0.4,0l0,0c-1.3,0.2-2.6,0.4-3.8,0.5
		c0,0.1,0,0.1,0,0.2c1.4-0.2,2.8-0.4,4.3-0.6h0.1c0.3,0,0.5-0.1,0.8-0.1C172,125.4,172.1,124.8,172.3,124.3
		c-0.1,0.6-0.2,1.4-0.3,2.1c-1.6,0.3-3.1,0.7-4.7,1c0,0,0,0.1,0,0.2c0.2,0,0.4-0.1,0.6-0.1c1.4-0.3,2.9-0.6,4.3-0.9
		c0.1-0.7,0.2-1.4,0.3-2.2c0,0.8-0.1,1.7-0.2,2.5c-1.5,0.4-3,0.8-4.5,1.2v0.1c0.1,0,0.2-0.1,0.3-0.1c1.4-0.4,2.8-0.7,4.3-1.1
		C172.2,126.2,172.3,125.3,172.3,124.3z"/>
	<path class="st0" d="M176.1,124.9c-0.1,0-0.3-0.1-0.4-0.1c0,0.1,0,0.1,0,0.2c0.1,0,0.2,0.1,0.3,0.1c0.7,1.6,1.4,3.1,2,4.7
		c-0.8,0.5-1.5,1-2.3,1.5l0.1,0.1c0.8-0.5,1.6-1.1,2.4-1.6C177.5,128.1,176.8,126.5,176.1,124.9z"/>
	<path class="st0" d="M173,124.9c0,0-0.1,0-0.2,0c0.1,1.2,0.2,2.4,0.4,3.6c-1.1,0.4-2.3,0.9-3.4,1.3c-0.1,0.1-0.2,0.1-0.4,0.1
		c0,0.1,0.1,0.1,0.1,0.2c1.2-0.5,2.7-1,3.9-1.5C173.2,127.3,173.1,126.1,173,124.9z"/>
	<path class="st0" d="M174.8,125.2c0,0-0.1,0-0.2,0c0.1,0.4,0.2,0.8,0.3,1.2c0.3,1.1,0.6,2.2,0.9,3.3c-0.9,0.5-1.8,1.1-2.6,1.6
		l0.1,0.1c0.9-0.6,1.8-1.1,2.7-1.7C175.7,128.3,175.2,126.7,174.8,125.2z"/>
	<path class="st0" d="M172.5,124.5c0,0-0.1,0-0.2,0c0,1,0,2,0,3.1c-1.4,0.4-2.8,0.8-4.3,1.3c0,0.1,0,0.1,0.1,0.2
		c1.5-0.4,2.9-0.9,4.4-1.3C172.5,126.6,172.5,125.6,172.5,124.5z"/>
	<path class="st0" d="M174.3,129.7c0.2-0.1,0.4-0.2,0.6-0.3c-0.3-1.4-0.6-2.8-0.9-4.2c-0.1,0-0.1,0-0.2,0c0.3,1.4,0.6,2.7,0.8,4.1
		c-0.3,0.1-0.5,0.3-0.8,0.4l0,0c-0.7,0.4-1.5,0.8-2.2,1.2l0.1,0.1c0.7-0.4,1.4-0.8,2.1-1.1C174,129.9,174.2,129.8,174.3,129.7z"/>
	<path class="st0" d="M173.4,126.4L173.4,126.4L173.4,126.4L173.4,126.4L173.4,126.4c-0.1-0.4-0.2-0.9-0.2-1.4c0,0-0.1,0-0.2,0
		c0,0.4,0.2,0.9,0.2,1.3c0.1,0.8,0.2,1.6,0.4,2.5c-1.2,0.5-2.3,1-3.5,1.6l0.1,0.1c1.2-0.5,2.4-1.1,3.6-1.6
		C173.7,128.1,173.5,127.2,173.4,126.4z"/>
	<path class="st0" d="M176.2,124.3c0,0.1,0,0.1,0,0.2c-0.1-0.1-0.2,0-0.2,0.1c0.2,0,0.4,0.1,0.5,0.1c0.1,0.1,0.1,0.3,0.2,0.4l0,0
		c0.1,0.3,0.3,0.6,0.4,0.8l0.1,0.1c0.6,1.1,1.1,2.2,1.7,3.3c-0.7,0.5-1.4,1-2,1.5c-0.1,0,0,0.2,0.1,0.1c0.6-0.4,1.1-0.8,1.7-1.2
		l0.1-0.1c0.1-0.1,0.2-0.2,0.3-0.3c-0.8-1.6-1.6-3.2-2.4-4.8c-0.1,0-0.3-0.1-0.4-0.1v-0.1c0.3,0,0.6,0,0.9,0c0.9,1.5,1.7,3,2.6,4.5
		c-0.6,0.5-1.2,1-1.8,1.5l0.1,0.1c0.3-0.2,0.5-0.4,0.8-0.6l0,0c0.4-0.3,0.8-0.6,1.1-0.9c-0.9-1.6-1.8-3.2-2.7-4.7
		C176.9,124.4,176.5,124.3,176.2,124.3z"/>
	<path class="st0" d="M173.6,125.1c-0.1,0-0.1,0-0.2,0c0.2,1.3,0.5,2.6,0.7,3.9c-1.1,0.5-2.1,1.1-3.2,1.6c0,0,0,0.1,0.1,0.1
		c1.1-0.6,2.2-1.1,3.3-1.7C174.1,127.8,173.8,126.5,173.6,125.1z"/>
	<path class="st0" d="M172.7,124.7c0,0-0.1,0-0.2,0c0.1,1.1,0.1,2.2,0.2,3.3c-1.3,0.5-2.6,0.9-4,1.4c0,0.1,0,0.1,0,0.2
		c1.4-0.5,2.7-1,4.1-1.4C172.8,127,172.8,125.8,172.7,124.7z"/>
</g>
</svg>
