<?xml version="1.0" encoding="utf-8"?>
<!-- Generator: Adobe Illustrator 26.0.3, SVG Export Plug-In . SVG Version: 6.00 Build 0)  -->
<svg version="1.0" id="Слой_1" xmlns="http://www.w3.org/2000/svg" xmlns:xlink="http://www.w3.org/1999/xlink" x="0px" y="0px"
	 viewBox="0 0 239.5 150.2" style="enable-background:new 0 0 239.5 150.2;" xml:space="preserve">
<path d="M204.9,48.3c-0.3-0.7-0.3-1.3-0.4-2c-0.4-3.1-2.2-6.9-3.8-9.6l0,0c-0.4-1-1.2-1.8-1.8-2.9c-1.2-2.2-3.3-3.8-5-5.4
	c-1.6-1.7-3.1-2.5-5.6-3.9l-1.7-0.8c-1.7-0.7-2.6-0.9-4.2-1.2l-2.2-0.4c-1.8-0.4-3.8-0.4-5.6-0.3c-1.4,0-1.8,0-3.4,0.1
	c-1.7,0.1-2.7,0.4-4.1,0.7c-1.3,0.3-3.4,1.3-4.7,1.6l0,0c-2,0.7-3.7,1.4-5.6,2.2c-1.6,0.5-2.9,1.6-4.2,2.2c-3.1,2-6.1,4.1-8.9,6.4
	c-0.7,0.3-0.4,0.4-1,0.8l-0.7,0.5c-0.8,0.5-1.4,1.3-2.5,1.4c-1.4-0.3-2.2-1.7-3.7-2.1c-0.1-0.1-0.3-0.1-0.4-0.3
	c-0.4-0.3-0.4-0.1-0.5-0.4c-2.1-2.2-4.7-3.7-7.2-5.4c-1-0.8-2.1-1.4-3.3-1.8c-2.1-0.8-4.1-2-6.3-2.6c-0.5-0.1-1.2-0.4-1.7-0.5v-0.1
	c-1.3-0.4-2.6-0.7-3.8-1c-2-0.8-4.1-0.7-6.1-1c-2-0.1-3.8-0.1-5.8,0.3c-2.1,0-4.1,0.4-6.4,1.2c-1.8,0.5-2.7,1-4.7,2.4
	c-2.1,0.8-3.3,2.2-4.8,3.8c-0.1,0.1-1.3,1-1.7,1.7l0,0c-1.3,1.6-2.5,2.6-3.4,4.4c-0.1,0.1-0.5,0.9-0.7,1c-0.1,0.3-0.3,0.4-0.4,0.8
	c-0.1,0.3-0.3,0.5-0.4,0.8c-1.3,3-2.9,6.4-3,9.8l-0.1-0.1c-0.1,3.3-0.1,6.7,0.1,9.9c0.1,0.9,0.4,2.2,0.5,3l0,0c0,0.1,0,0.3,0,0.3
	l0,0l0,0l0,0c0.9,3,2.9,7.7,4.1,10.6l0,0l0,0l0,0l0,0c0.7,1.3,1.4,2.6,2.1,3.8l0.3,0.5c0.4,0.8,0.5,0.9,1,1.6
	c1.4,2.7,3.3,5.2,5.1,7.7c0.4,0.7,0.9,1.2,1.3,1.7s0.5,0.5,0.8,1.2c0.3,0.1,0.5,0.8,0.8,0.9c1.3,2.1,2.7,3.7,4.4,5.4
	c0.5,0.7,0.7,0.9,1,1.2c0.3,0.3,0.4,0.8,0.7,1c0.1,0.5,1.3,1.8,2.1,2.4c0.5,0.7,1.3,1.2,1.8,1.8c2,2,3.8,4.1,5.9,5.9
	c1.7,1.8,3.7,3.5,5.5,5.2l0.3,0.3c0.4,0.3,0.4,0.5,0.8,0.8c0.1,0.1,0.1,0.3,0.3,0.4c0.5,0.5,1.2,1,1.8,1.6c4.6,3.9,9.2,8,13.7,11.9
	l0.7,0.7c3.1,2.7,5.9,4.7,8.5,8c0.3,0.4,0.9,0.7,1.3,0.3c1.2-1.2,2.2-2.5,3.4-3.7c2-1.7,3.8-3.5,5.8-5.1c4.7-3.9,9.4-8.1,14-12.3
	l0.9-0.7c1.7-1.6,3.5-3.1,5.1-4.8c0.9-0.8,1.8-1.6,2.5-2.5l0.4-0.4c0.1-0.1,0.5-0.5,0.7-0.7c1.6-1.4,3-3.3,4.6-4.8l0.1-0.1
	c0.1-0.1,0.7-0.7,0.8-0.8c3.9-3.9,6.8-7.7,10.2-12.2c0-0.1,0.3-0.3,0.3-0.4l0.1-0.3c1.2-1.4,2.2-3,3.4-4.4c0.7-0.8,1.2-1.7,1.7-2.6
	c1-1.7,2.1-3.4,3.1-5.1l0,0l0,0l0,0l0,0c0.1-0.3,0.8-1.4,0.9-1.8c2.1-3.8,3.7-8,4.8-12.2C205,57.3,205.3,52.7,204.9,48.3z M198,72.5
	c-0.1,0.3-0.1,0.5-0.1,0.7c-0.3,0.7-0.8,1.2-1.4,1.6c0.7-2.4,2-4.4,2.9-6.7c0.3,0,0.7,0,0.9,0c-0.7,1-1.3,2.6-1.7,3.5l-0.4,0.7
	C198.1,72.2,198.1,72.3,198,72.5L198,72.5L198,72.5z M142.4,122.1l0.1-1.6c0.4-0.1,1.2,0,1.4-0.1c-0.3,1-0.5,2-0.8,3
	c-0.3,0-0.7,0-0.8,0C142.5,123,142.5,122.5,142.4,122.1z M140.5,120.6c0.5-0.3,1.2-0.3,1.4,0.1c-0.1,0.7-0.3,2.1-0.4,2.5
	c-0.3,0-0.8,0.1-1,0.1C140.5,122.5,140.5,121.5,140.5,120.6z M140.5,119.8c0-1,0-2.1,0-3.1c0.7,0,1.3,0,2,0c-0.1,1-0.3,2.1-0.4,3.1
	C141.6,119.8,141.1,119.8,140.5,119.8z M140.1,55.1c2-0.4,3.9-1.2,6-1.3c0.3,1.3,0.1,2.5,0.3,3.8c-2.1,0.5-4.1,0.9-6.1,1.3
	C140.1,57.6,140.1,56.2,140.1,55.1z M146.3,48.5c-0.1-0.9-0.3-1.8-0.5-2.7c1.7-0.9,3.3-2.1,5.2-2.6c0.4,0.9,0.7,1.8,0.8,2.7
	C150,46.7,148.1,47.7,146.3,48.5z M145.2,42.8c1.4-0.9,3.1-1.7,4.6-2.6c0.4,0.8,0.8,1.4,0.9,2.2c-1.6,0.9-3.3,1.7-4.8,2.6
	C145.6,44.3,145.5,43.6,145.2,42.8z M145.6,48.8c-1.8,0.4-3.7,1-5.5,1.3c0-0.9,0-1.8,0-2.9c1.7-0.4,3.4-1,5.2-1.3
	C145.4,47,145.5,47.9,145.6,48.8z M148.5,38.1c0.4,0.5,0.8,1,1,1.6c-1.6,0.8-2.9,1.7-4.4,2.4c-0.1-0.5-0.4-1-0.5-1.6
	C145.9,39.6,147.2,38.8,148.5,38.1z M144.5,39.8l-0.5-0.8c0.9-0.8,2-1.4,3-2.2c0.7-0.1,0.9,0.5,1.3,0.8
	C146.9,38.3,145.6,39.1,144.5,39.8z M201.9,53.6c-0.5,0-1,0-1.7,0c0-2,0-3.8,0-5.8c0.5,0,1,0,1.7,0.1
	C201.9,49.8,202,51.8,201.9,53.6z M199.5,60.6c0.1-2.1,0.4-4.2,0.8-6.3c0.4,0,1,0.1,1.4,0.1c-0.1,1.7-0.5,3.4-0.7,5.2
	C201.2,60.6,200.2,60.6,199.5,60.6z M199.7,53.6c-0.8,0-1.6,0-2.4,0c0-1.8,0-3.8-0.1-5.6c0.8,0,1.6,0,2.4,0
	C199.5,49.8,199.7,51.8,199.7,53.6z M152.4,105.6c0.7-1.6,0.9-3.3,1.8-4.8c1-0.3,2.2-0.4,3.4-0.7c-0.8,1.6-1.4,3.3-2.1,4.8
	C154.4,105.3,153.5,105.4,152.4,105.6z M155.1,105.8c-0.7,1.4-1.3,3-2.1,4.4c-0.8,0.1-1.6,0.3-2.4,0.4c0.4-1.4,0.9-2.9,1.6-4.3
	C153.1,106.2,154.1,106.1,155.1,105.8z M196.7,53.9c-0.9,0-1.8,0.1-2.7,0.1c0-2,0-3.8-0.1-5.8c0.9-0.1,2-0.1,2.9-0.3
	C196.5,50,196.8,51.9,196.7,53.9z M193.7,47.5c-0.3-1.7-0.7-3.4-0.9-5.1c0.9-0.1,2-0.3,2.9-0.3c0.3,1.8,0.5,3.5,0.9,5.4
	C195.6,47.4,194.6,47.5,193.7,47.5z M147.3,63.2c1.8-0.8,4.6-2,6.3-2.6c0.1,1.7,0,3.3,0.1,5c-2.2,0.7-4.2,1.7-6.4,2.4
	C147.3,66.3,147.3,64.8,147.3,63.2z M154.3,60.3c2-0.9,4.1-1.6,6-2.6c0,1.7,0,3.4,0.1,5.1c-2,0.9-4.1,1.6-6.1,2.4
	C154.3,63.6,154.3,61.9,154.3,60.3z M154.3,65.9c2-0.8,4.1-1.6,6-2.4c0,1.8,0,3.7-0.4,5.5c-2,0.7-3.9,1.6-5.9,2.1
	C154.1,69.5,154.1,67.6,154.3,65.9z M160.7,69.6c1.8-0.7,3.7-1.4,5.6-2c-0.1,2-0.5,3.8-0.8,5.8c-1.8,0.7-3.7,1.3-5.5,1.7
	C160.3,73.3,160.6,71.4,160.7,69.6z M161.2,63.3c2-0.9,3.9-1.4,5.9-2.2c-0.1,1.8-0.5,3.8-0.4,5.6c-2,0.7-3.8,1.3-5.8,2
	C160.9,67,160.9,65.1,161.2,63.3z M161.1,57.4c2-0.8,3.9-1.6,5.8-2.5c0.1,1.8,0.1,3.5,0,5.4c-2,0.7-3.8,1.4-5.8,2.1
	C161.1,60.8,161.1,59.1,161.1,57.4z M167,67.5c1.7-0.9,3.7-1.2,5.5-1.8c-0.3,2-0.7,3.9-0.9,6c-1.7,0.5-3.5,1-5.2,1.4
	C166.6,71.3,167,69.5,167,67.5z M167.2,66.6c0.3-2,0.1-3.9,0.5-5.8c1.8-0.4,3.5-1.3,5.5-1.7c-0.3,1.8-0.4,3.8-0.5,5.6
	C170.9,65.5,169.1,65.9,167.2,66.6z M173.1,58.3c-1.8,0.4-3.7,1.3-5.5,1.6c0-1.7-0.1-3.5,0-5.2c1.8-0.5,3.7-1.3,5.5-1.8
	C173.2,54.7,173.2,56.5,173.1,58.3z M167.6,54.2c-0.1-1.6-0.4-3.1-0.7-4.8c1.8-0.8,3.7-1.4,5.5-2.1c0.3,1.7,0.5,3.4,0.5,5.1
	C171.2,52.8,169.3,53.5,167.6,54.2z M167,48.5c-0.4-1.4-0.7-2.9-0.9-4.2c1.7-0.8,3.5-1.4,5.2-2.2c0.4,1.4,0.9,3,0.9,4.4
	C170.4,47.2,168.7,48,167,48.5z M167,54.3c-2,0.9-3.9,1.6-5.9,2.5c-0.3-1.6-0.3-3.1-0.4-4.7c2-0.8,3.8-1.8,5.8-2.5
	C166.6,51.1,166.6,52.7,167,54.3z M166.3,73.9c1.7-0.7,3.4-0.9,5-1.4c-0.5,2-1,4.1-1.6,6c-1.6,0.7-3.1,0.9-4.8,1.3
	C165.4,78,165.7,75.9,166.3,73.9z M172.1,72.3c1.6-0.4,3.1-0.8,4.7-1.2c-0.5,2.1-1.3,4.1-1.7,6.1c-1.4,0.5-3,0.7-4.4,1
	C170.9,76.4,171.5,74.3,172.1,72.3z M172.2,71.6c0.4-2,0.8-3.9,1-5.9c1.6-0.7,3.3-1,5-1.3c-0.5,2.1-0.8,4.2-1.3,6.3
	C175.3,70.8,173.8,71.2,172.2,71.6z M173.4,64.8c0.1-2,0.1-3.9,0.5-5.9c1.7-0.4,3.3-1,5.1-1.3c-0.3,2-0.4,3.9-0.7,5.9
	C176.6,63.8,175.1,64.2,173.4,64.8z M178.9,64c1.4-0.4,3-0.7,4.4-1c-0.4,2.1-1,4.2-1.4,6.4c-1.4,0.3-2.9,0.5-4.3,0.9
	C178,68.2,178.6,66.1,178.9,64z M179.7,57.3c1.6-0.3,3-0.7,4.6-1c-0.1,2.1-0.5,4.1-0.7,6c-1.4,0.1-2.9,0.8-4.4,0.8
	C179.1,61.2,179.4,59.3,179.7,57.3z M179.5,50.9c1.6-0.3,3-0.8,4.6-1c0,2,0.1,3.8,0,5.8c-1.6,0.1-3,0.5-4.4,0.9
	C179.5,54.7,179.5,52.8,179.5,50.9z M184.1,62.9c1.3-0.3,2.6-0.5,3.9-0.7c-0.5,2.1-0.8,4.2-1.6,6.1c-1.2,0.5-2.5,0.5-3.8,0.8
	C183.2,67.1,183.7,65,184.1,62.9z M184.4,62.1c0.1-2.1,0.4-4.1,0.5-6.1c1.4-0.3,2.7-0.5,4.2-0.7c-0.3,2-0.5,3.9-0.8,6
	C187,61.7,185.7,62,184.4,62.1z M184.9,55.3c-0.1-1.8-0.1-3.8-0.1-5.6c1.4-0.3,2.9-0.5,4.2-0.8c0,2,0,3.8,0.1,5.8
	C187.8,54.9,186.3,55.1,184.9,55.3z M184.8,48.9c-0.3-1.7-0.5-3.4-0.8-5.2c1.3-0.3,2.6-0.5,3.9-0.8c0.4,1.8,0.8,3.5,0.9,5.4
	C187.4,48.4,186.1,48.8,184.8,48.9z M184.1,49.1c-1.6,0.5-3.1,0.9-4.7,1c0-1.7-0.8-3.4-0.5-5.1c1.4-0.3,2.9-0.8,4.3-1
	C183.6,45.7,183.8,47.4,184.1,49.1z M178.9,56.8c-1.7,0.4-3.4,0.9-5.1,1.3c0-1.8-0.1-3.7,0-5.5c1.7-0.4,3.4-0.9,5.1-1.4
	C178.9,53.1,179,54.9,178.9,56.8z M173.6,51.9c-0.1-1.7-0.3-3.3-0.5-5c1.7-0.4,3.3-1.3,5-1.4c0.4,1.6,0.5,3.3,0.7,5
	C177,50.9,175.3,51.5,173.6,51.9z M172.9,46.3c-0.4-1.4-0.8-2.9-1-4.3c1.6-0.5,3.3-1.2,4.8-1.7c0.4,1.4,0.8,3,1.3,4.4
	C176.3,45.3,174.6,45.8,172.9,46.3z M171.5,41.2c-0.7-1.2-1.2-2.4-1.7-3.7c1.4-0.7,3-1.3,4.6-1.7c0.7,1.2,1.2,2.5,1.7,3.7
	C174.7,40.2,173.1,40.7,171.5,41.2z M170.9,41.5c-1.7,0.8-3.4,1.4-5.2,2.2c-0.5-1.2-0.9-2.4-1.2-3.7c1.6-0.7,3.1-1.3,4.7-2.1
	C169.8,39,170.4,40.3,170.9,41.5z M166.3,48.8c-1.8,1-3.9,1.7-5.8,2.6c-0.1-1.4-0.4-2.7-0.7-4.2c1.8-0.9,3.7-1.7,5.5-2.6
	C165.7,45.9,165.9,47.4,166.3,48.8z M154.3,59.5c0-1.6-0.1-3-0.1-4.6c2-0.7,3.8-1.8,5.9-2.5c0.1,1.4,0.4,3,0.5,4.4
	C158.3,57.8,156.2,58.7,154.3,59.5z M154.1,72c2-0.7,3.9-1.4,5.9-2.1c-0.1,1.8-0.4,3.7-0.5,5.5c-2,0.8-3.9,1.3-5.9,2
	C153.7,75.5,153.9,73.7,154.1,72z M160,75.9c1.7-0.7,3.5-1.3,5.4-1.6c-0.5,1.8-0.8,3.8-1.3,5.6c-1.4,0.5-3.7,1.2-5.1,1.6
	C159.5,79.8,159.5,77.7,160,75.9z M164.7,80.7c1.6-0.4,3.1-0.9,4.8-1.2c-0.8,2-1.3,3.9-2,5.9c-1.3,0.5-3,0.8-4.3,1
	C163.8,83.9,164.2,82.9,164.7,80.7z M167.1,86.3c-0.8,2-1.4,3.9-2.2,5.8c-1.3,0.3-2.6,0.5-3.9,0.8c0.7-1.8,1.3-3.8,1.8-5.6
	C163.8,87,166.2,86.6,167.1,86.3z M168,86.1c1.3-0.4,2.6-0.7,3.9-0.8c-0.7,2-1.8,3.8-2.5,5.9c-1.2,0.4-2.5,0.7-3.7,0.8
	C166.4,90,167.2,88,168,86.1z M168.3,85.4c0.7-2,1.4-4.1,2-6c1.4-0.4,2.9-0.8,4.4-1c-0.8,2.1-1.4,4.2-2.4,6.3
	C170.9,84.8,169.6,85,168.3,85.4z M175.5,78.1c1.3-0.3,2.6-0.5,3.9-0.8c-0.8,2.1-1.8,4.1-2.6,6.3c-1.2,0.3-2.5,0.5-3.7,0.8
	C173.9,82.2,174.7,80.2,175.5,78.1z M175.7,77.3c0.5-2.1,1.2-4.2,1.7-6.3c1.4-0.3,2.9-0.7,4.3-0.9c-0.8,2.1-1.3,4.3-2.1,6.4
	C178.3,76.7,177,76.9,175.7,77.3z M182.5,69.9c1.2-0.3,2.5-0.4,3.7-0.7c-0.7,2.1-1.4,4.2-2.2,6.4c-1.2,0.3-2.4,0.5-3.5,0.7
	C181.1,74.2,181.9,72.1,182.5,69.9z M187,69.2c1-0.1,2.1-0.4,3.1-0.5c-0.8,2.1-1.4,4.3-2.5,6.3c-0.9,0.5-2,0.4-2.9,0.5
	C185.4,73.4,186.3,71.3,187,69.2z M187.2,68.4c0.5-2.1,1-4.2,1.6-6.3c1.2-0.1,2.2-0.3,3.4-0.4c-0.7,2.1-1.2,4.2-1.6,6.3
	C189.5,68.2,188.4,68.3,187.2,68.4z M188.9,61.4c0.3-2,0.5-3.9,0.7-5.9c1.2-0.4,2.4-0.5,3.5-0.7c-0.1,2.1-0.5,4.1-0.8,6.1
	C191.2,61,190.1,61.2,188.9,61.4z M193.1,54c-1,0.4-2.4,0.3-3.4,0.4c0-1.8,0-3.8,0-5.6c1.2-0.1,2.4-0.3,3.4-0.5
	C193,50.2,193.1,52.2,193.1,54z M193,47.6c-1.2,0.1-2.4,0.4-3.5,0.5c-0.4-1.7-0.7-3.5-0.9-5.2c1.2-0.1,2.2-0.3,3.4-0.5
	C192.3,44.1,192.7,45.9,193,47.6z M188.4,42.2c-0.5-1.6-1-3.1-1.7-4.6c1-0.3,2.2-0.5,3.4-0.5c0.5,1.6,1.2,3.1,1.7,4.7
	C190.6,41.9,189.6,42,188.4,42.2z M187.6,42.2c-1.3,0.4-2.6,0.5-3.9,0.8c-0.5-1.6-1.2-3-1.4-4.7c1.2-0.1,2.4-0.5,3.5-0.7
	C186.7,39.1,187.2,40.7,187.6,42.2z M183.1,43.3c-1.4,0.4-3,0.8-4.3,1.2c-0.5-1.4-1-3-1.4-4.6c1.4-0.4,2.9-0.8,4.3-1.3
	C182.1,40.3,182.7,41.7,183.1,43.3z M177.2,39.4c-0.8-1.2-1.4-2.5-2.1-3.8c1.3-0.5,2.7-1,4.2-1.3c0.7,1.3,1.3,2.6,2.1,3.8
	C179.9,38.5,178.5,38.8,177.2,39.4z M174.6,34.9c-0.5-1-1.8-1.8-2-2.9c1.2-0.5,2.4-0.9,3.5-1.3c0.9,1,1.7,2,2.6,3
	C177.3,34.1,176,34.7,174.6,34.9z M174,35.2c-1.4,0.7-3,1.3-4.6,1.7c-0.7-0.9-1.2-1.8-1.8-2.7c1.4-0.7,2.7-1.2,4.2-1.8
	C172.5,33.4,173.2,34.3,174,35.2z M168.9,37.4c-1.7,0.7-3.3,1.4-4.8,2.1c-0.5-0.9-1-2-1.6-2.9c1.4-0.7,3-1.4,4.3-2.2
	C167.6,35.3,168.3,36.4,168.9,37.4z M163.6,39.8c-1.7,0.8-3.4,1.7-5.1,2.6c-0.4-0.9-0.8-1.8-1.3-2.7c1.6-1,3.3-1.8,4.8-2.7
	C162.5,37.8,163,38.8,163.6,39.8z M164,40.4c0.3,1.2,0.8,2.4,1.2,3.5c-1.8,0.8-3.7,1.7-5.5,2.6c-0.4-1.2-0.7-2.4-1-3.5
	C160.3,42.1,162,41.1,164,40.4z M159.9,51.5c-2,0.9-4.1,2-6,2.7c-0.1-1.4-0.4-2.7-0.4-4.2c2-0.8,3.8-1.8,5.6-2.7
	C159.4,48.8,159.6,50.2,159.9,51.5z M153.6,59.9c-2.1,0.8-4.3,2-6.4,2.6c0-1.4-0.1-3-0.1-4.4c2.1-0.9,4.1-1.7,6.1-2.7
	C153.2,56.9,153.5,58.3,153.6,59.9z M147.3,68.5c2.1-0.8,4.2-1.6,6.3-2.4c0,1.8-0.1,3.5-0.4,5.4c-2.1,0.5-4.1,1.4-6.1,2
	C147.2,71.8,147.3,70.2,147.3,68.5z M159.2,76.3c-0.1,1.8-0.7,3.7-0.9,5.5c-1.7,0.7-3.5,1.2-5.4,1.6c0.1-1.8,0.5-3.5,0.7-5.2
	C155.5,77.4,157.3,76.8,159.2,76.3z M159,82.3c1.4-0.4,3.5-0.9,5-1.4l0,0c-0.4,2-1,3.8-1.4,5.8c-0.1,0-0.5,0.1-0.8,0.3
	c-1.3,0.4-2.6,0.8-3.9,1.2C158.1,86.1,158.5,84.2,159,82.3z M162,87.5c-0.5,2-1.2,3.8-1.8,5.6c-1.3,0.4-2.7,0.7-4.1,1
	c0.4-1.8,0.9-3.7,1.4-5.5C159.1,88.4,160.6,87.9,162,87.5z M159.9,93.9c-0.7,1.8-1.3,3.7-2.1,5.4c-1.2,0.3-2.4,0.5-3.7,0.7
	c0.5-1.7,1.2-3.4,1.6-5.1C157.2,94.6,158.6,94.3,159.9,93.9z M158.3,100.1c1-0.5,2.2-0.5,3.3-0.7c-0.9,1.7-1.7,3.4-2.6,5.1
	c-0.9,0.1-1.8,0.3-2.7,0.5C156.9,103.4,157.7,101.7,158.3,100.1z M158.6,99.2c0.7-1.7,1.3-3.4,2-5.1c1.2-0.7,2.6-0.7,3.9-1
	c-0.9,1.8-1.7,3.8-2.7,5.6C160.8,98.8,159.8,99,158.6,99.2z M165.4,92.9c1-0.5,2.4-0.5,3.4-0.8c-0.9,2-2,3.8-3,5.8
	c-0.7,0.1-1.8,0.1-2.7,0.3c-0.1,0-0.1,0-0.1-0.1C163.8,96.3,164.5,94.6,165.4,92.9z M169.7,91.8c1-0.1,2.1-0.3,3.1-0.5
	c-1.2,2-2.4,3.8-3.4,5.8c-0.9,0.1-1.8,0.4-2.7,0.5C167.6,95.6,168.8,93.8,169.7,91.8z M170.2,91.1c0.8-2.1,1.7-3.9,2.6-6
	c1.2-0.3,2.4-0.5,3.5-0.7c-0.9,2.1-2,4.1-3,6.1C172.2,90.7,171.3,90.9,170.2,91.1z M177.2,84.1c1-0.1,2.1-0.3,3.1-0.5
	c-1.2,2-2.4,4.1-3.3,6.1c-0.9,0.3-2,0.4-2.9,0.5C175.1,88.2,176.1,86.2,177.2,84.1z M177.6,83.3c0.8-2.1,1.6-4.2,2.6-6.1
	c1-0.5,2.4-0.5,3.4-0.7c-0.9,2.1-2,4.2-2.9,6.4C179.7,83.1,178.6,83.2,177.6,83.3z M184.4,76.4c0.9-0.4,2-0.4,3-0.4
	c-1.2,2-2,4.2-3.1,6.1c-0.9,0.3-1.8,0.4-2.7,0.7C182.4,80.7,183.5,78.6,184.4,76.4z M188.2,75.9c0.7-0.5,1.7-0.3,2.5-0.5
	c-1.2,2.1-2.1,4.4-3.4,6.4c-0.7,0.1-1.4,0.3-2.1,0.3C186.1,80.1,187.1,78,188.2,75.9z M188.6,75c0.8-2.1,1.7-4.2,2.4-6.4
	c0.9-0.1,1.7-0.3,2.6-0.4c-0.8,2.2-1.7,4.3-2.6,6.5C190.1,74.8,189.3,75,188.6,75z M191.3,67.9c0.4-2.1,1-4.2,1.6-6.3
	c0.9-0.3,1.8-0.3,2.9-0.3c-0.7,2.1-1.3,4.2-1.7,6.3C193.1,67.6,192.2,67.8,191.3,67.9z M193,60.8c0.3-2.1,0.5-4.1,0.8-6.1
	c0.9-0.1,1.8-0.1,2.9-0.1c-0.3,2-0.7,3.9-0.8,6C195,60.7,194,60.7,193,60.8z M197.5,54.4c0.8-0.1,1.4-0.1,2.2-0.1
	c-0.3,2.1-0.7,4.1-0.9,6.1c-0.8,0-1.4,0.1-2.2,0.1C196.9,58.5,196.9,56.5,197.5,54.4z M197.3,47.4c-0.4-1.8-0.8-3.5-1-5.4
	c0.8,0,1.4,0,2.2,0c0.4,1.8,0.8,3.5,1,5.4C198.8,47.2,198,47.4,197.3,47.4z M196,41.2c-0.7-1.6-1.3-3.1-1.8-4.7c0.7,0,1.3-0.1,2-0.1
	c0.8,1.6,1.3,3.3,2.1,4.8C197.5,41.2,196.7,41.2,196,41.2z M195.4,41.5c-0.9,0.1-2,0.1-2.9,0.1c-0.5-1.6-1.2-3.1-1.7-4.6
	c0.9-0.1,1.8-0.3,2.7-0.1C194.2,38.2,194.7,39.8,195.4,41.5z M190.4,36.2c-0.9-1.3-1.8-2.6-2.6-4.1c0.8-0.1,1.7-0.3,2.5-0.3
	c0.8,1.3,1.8,2.6,2.5,3.9C192.1,36.1,191.3,36.2,190.4,36.2z M189.6,36.4c-1,0.3-2.1,0.4-3.1,0.5c-0.8-1.2-1.7-2.5-2.2-3.9
	c0.9-0.1,1.8-0.4,2.7-0.5C188,33.6,188.8,35.1,189.6,36.4z M185.8,37c-1.2,0.3-2.5,0.5-3.7,0.9c-0.9-1.2-1.6-2.5-2.2-3.8
	c1.2-0.4,2.4-0.7,3.5-1C184.2,34.4,185,35.7,185.8,37z M179.3,33.5c-0.8-1-1.7-1.8-2.5-2.9c1-0.4,2.1-0.9,3.1-0.9c1.2,0.8,2,2,2.9,3
	C181.6,33,180.4,33.2,179.3,33.5z M176.1,29.9c-0.9-0.8-2-1.4-2.9-2.1c0.9-0.4,1.8-0.7,2.9-1c1,0.7,2.2,1.3,3.1,2.2
	C178.2,29.4,177.2,29.7,176.1,29.9z M175.5,30.3c-1.2,0.3-2.4,0.9-3.7,1.2c-0.9-0.5-1.8-1.2-2.5-2c1-0.5,2.1-0.9,3.1-1.4
	C173.5,28.9,174.6,29.6,175.5,30.3z M170.9,31.7c0,0.1,0,0.3,0,0.4c-1.2,0.5-2.5,0.9-3.7,1.6c-0.8-0.7-1.6-1.3-2.2-2.1
	c1.2-0.5,2.5-1.2,3.7-1.7C169.3,30.5,170.2,31,170.9,31.7z M166.6,34c-1.4,0.7-3,1.4-4.4,2.1c-0.7-0.7-1.2-1.4-1.8-2.1
	c1.3-0.7,2.6-1.6,4.1-2C165.1,32.6,165.8,33.2,166.6,34z M159.8,33.5c-0.7-0.3-1.3-0.8-2-1.2c1.2-0.7,2.2-1.4,3.4-2
	c0.8,0.3,1.6,0.8,2.4,1.2C162.3,32.2,161.1,33,159.8,33.5z M161.5,36.2c-1.4,1-3.1,1.7-4.7,2.6c-0.5-0.7-0.9-1.4-1.4-2.1
	c1.4-0.8,2.7-1.8,4.3-2.5C160.4,34.9,160.9,35.6,161.5,36.2z M156.2,39.2c-1.6,0.9-3.1,2-4.8,2.7c-0.3-0.7-0.7-1.3-0.9-2.1
	c1.4-1,3-1.8,4.6-2.7C155.3,37.8,155.8,38.6,156.2,39.2z M156.5,39.9c0.4,0.9,0.8,1.8,1.2,2.7c-1.7,1-3.5,2-5.4,2.9
	c-0.3-0.9-0.5-1.8-0.9-2.7C153.2,41.7,154.9,40.8,156.5,39.9z M152.8,46c1.7-0.9,3.4-1.8,5.2-2.7c0.3,1.2,0.8,2.4,0.9,3.5
	c-2,0.8-3.8,2-5.8,2.6C153.1,48.4,152.6,47.2,152.8,46z M152.8,50.8c0.1,1.3,0.3,2.6,0.5,3.9c-2.1,0.8-4.1,2-6.1,2.6
	c-0.1-1.3-0.3-2.6-0.1-3.8C148.9,52.5,150.7,51.4,152.8,50.8z M147.2,74.3c2.1-0.8,4.1-1.4,6.1-2.1c-0.1,1.8-0.3,3.5-0.4,5.4
	c-2,0.5-3.9,1.2-5.9,1.8C147.1,77.7,147.1,76,147.2,74.3z M158.1,82.5c-0.4,1.8-0.7,3.8-1.2,5.6c-1.6,0.4-3.3,0.9-4.8,1.3
	c0.3-1.8,0.5-3.5,0.8-5.4C154.5,83.7,156.4,83.2,158.1,82.5z M156.6,89c-0.3,1.8-0.9,3.5-1.2,5.4c-1.4,0.4-2.9,0.8-4.4,1
	c0.3-1.7,0.7-3.4,0.9-5.1C153.5,89.9,155.1,89.4,156.6,89z M155.1,95.2c-0.5,1.7-1,3.3-1.4,5c-0.3,0.1-2.7,0.7-3,0.7l0,0
	c-0.4,0-0.7,0.1-0.9,0.3c0.4-1.7,0.7-3.4,1.2-5C152.3,95.9,153.7,95.5,155.1,95.2z M152.8,101.3c0.3,0,0.4,0.1,0.4,0.1
	c-0.5,1.4-1,2.9-1.4,4.4c-1,0.3-2.1,0.4-3.1,0.5c0.4-1.4,0.7-3,0.9-4.4C150.5,101.7,151.8,101.4,152.8,101.3z M151.4,106.5
	c-0.5,1.4-1,2.9-1.6,4.3c-0.9,0.1-1.7,0.3-2.6,0.4c0.4-1.4,0.7-2.7,1-4.2C149.4,106.8,150.5,106.8,151.4,106.5z M149.6,111.5
	c-0.4,1.3-0.8,2.6-1.4,3.8c-0.5,0.4-1.3,0.1-2,0.3c0.4-1.2,0.8-2.5,1-3.7C147.9,111.7,148.6,111.6,149.6,111.5z M147.7,116
	c-0.7,1.3-0.7,3.8-2.7,3.7c0.3-1.2,0.7-2.4,0.9-3.4C146.4,116.3,147.3,116.2,147.7,116z M148.5,116c0.7-0.1,1.3-0.3,1.8-0.4
	c-0.7,1.2-1.3,2.4-1.8,3.7c-0.4,0-1,0-1.3,0C147.6,118.3,148,117.2,148.5,116z M148.9,115.4c0.4-1.3,0.9-2.6,1.4-3.9
	c0.8-0.1,1.6-0.3,2.4-0.3c-0.7,1.3-1.2,2.7-2,3.9C150.1,115.1,149.4,115.3,148.9,115.4z M153.5,110.9c0.7-0.1,1.4-0.3,2.1-0.4
	c-0.9,1.4-1.7,2.9-2.5,4.2c-0.4,0-1.2,0.1-1.6,0.1C152,113.6,152.7,112.3,153.5,110.9z M153.9,110.2c0.7-1.4,1.3-2.9,2-4.4
	c0.9-0.3,1.8-0.4,2.7-0.5c-0.8,1.6-1.7,3.3-2.6,4.7C155.2,110,154.5,110.2,153.9,110.2z M159.4,105.1c0.8-0.1,1.7-0.3,2.5-0.4
	c-0.9,1.7-2.1,3.1-3,4.8c-0.7,0.1-1.3,0.1-2,0.3C157.7,108.1,158.6,106.6,159.4,105.1z M159.9,104.3c0.9-1.7,1.7-3.4,2.6-5.1
	c0.3-0.1,2-0.4,2.4-0.4c0.1,0,0.1,0,0.3,0.1c-0.7,1.8-1.8,3.4-2.7,5.1C161.6,104,160.7,104.1,159.9,104.3z M166.3,98.5
	c0.8-0.4,1.8-0.4,2.6-0.5c-1,1.7-2.1,3.4-3.3,5.1c-0.3,0.5-1.6,0.5-2.2,0.7c0-0.1-0.1-0.1-0.1-0.3
	C164.5,101.8,165.1,100.1,166.3,98.5z M169.8,97.9c0.7-0.4,1.6-0.3,2.2-0.4c-1.2,1.8-2.6,3.7-3.8,5.6c-0.7,0-1.3,0.1-2,0.1
	C167.5,101.3,168.7,99.6,169.8,97.9z M170.4,96.9c1-2,2.2-3.9,3.4-5.9c0.9-0.3,1.8-0.3,2.7-0.4c-1.2,2-2.4,3.8-3.7,5.8
	C172.1,96.9,171.2,96.8,170.4,96.9z M177.3,90.5c0.7-0.3,1.4-0.3,2.2-0.4c-1,1.8-2.4,3.5-3.4,5.4c-0.4,1-1.7,0.8-2.6,0.9
	C174.8,94.5,176,92.4,177.3,90.5z M177.7,89.7c1.2-2.1,2.4-4.2,3.4-6.3c0.9-0.1,1.7-0.3,2.6-0.4c-1.2,2.1-2.4,4.2-3.7,6.3
	C179.3,89.5,178.5,89.6,177.7,89.7z M184.5,83.1c0.8-0.1,1.6-0.3,2.4-0.5c-1,2.1-2.4,3.9-3.7,5.9c-0.4,0.8-1.6,0.4-2.2,0.7
	C182.1,87.1,183.5,85.2,184.5,83.1z M187.8,82.5c0.4-0.1,1.3-0.1,1.7-0.3c-1.4,2.1-2.7,4.2-4.2,6.3c-0.5,0.1-0.9,0.1-1.4,0.1
	C185,86.6,186.3,84.5,187.8,82.5z M188.2,81.6c1-2.1,2.2-4.2,3.3-6.3c0.7-0.1,1.2-0.1,1.8-0.3c-0.9,2.2-2.4,4.3-3.4,6.5
	C189.3,81.6,188.6,81.6,188.2,81.6z M191.7,74.7c0.8-2.2,1.8-4.3,2.6-6.5c0.7-0.1,1.3-0.1,2.1-0.3c-0.8,2.2-1.8,4.3-2.7,6.4
	C193,74.6,192.3,74.7,191.7,74.7z M194.6,67.5c0.5-2.1,1.3-4.2,1.7-6.3c0.8,0,1.4,0,2.2,0c-0.7,2.1-1.3,4.2-1.8,6.3
	C196,67.5,195.4,67.5,194.6,67.5z M199.3,61.1c0.4,0,1.2,0,1.4,0c-0.7,2.1-1.3,4.2-2,6.3c-0.5,0-0.9,0-1.4,0.1
	C198,65.3,198.5,63.1,199.3,61.1z M200.2,47.2c-0.3-1.8-0.8-3.5-1-5.4c0.4,0,1.2,0.1,1.6,0.1c0.3,1.8,0.7,3.5,1,5.4
	C201.4,47.4,200.6,47.2,200.2,47.2z M198.8,41.1c-0.5-1.6-1.2-3.1-1.8-4.7c0.4,0,1.2,0,1.4,0c0.7,1.6,1.3,3.1,2,4.8
	C199.9,41.2,199.2,41.1,198.8,41.1z M196.7,35.8c-1.2-1.3-2-2.7-3-4.2c0.4,0,1,0.1,1.4,0.1c1,1.3,2,2.7,2.7,4.2
	C197.6,36,196.9,35.8,196.7,35.8z M195.8,35.8c-0.7,0-1.4,0-2.1,0c-0.7-1.4-1.7-2.7-2.6-4.1c0.7-0.1,1.3-0.1,1.8-0.3
	C193.9,33,195,34.4,195.8,35.8z M190.3,31c-1-0.9-2.1-2-3-3c0.4,0,1.2,0,1.6,0c1.3,0.9,2.4,2.2,3.5,3.3
	C191.7,31.1,190.9,31.5,190.3,31z M189.7,31.4c-0.8,0-1.6,0.1-2.4,0.1c-1.2-0.9-2.2-2-3.1-3.1c0.8-0.1,1.4-0.3,2.2-0.4
	C187.5,29.2,188.7,30.2,189.7,31.4z M186.6,31.9c-1,0.1-2.1,0.3-3.1,0.5c-0.9-1-1.8-2-2.7-3c0.9-0.3,1.7-0.7,2.7-0.8
	C184.6,29.7,185.5,30.7,186.6,31.9z M180,28.8c-1-0.7-2.1-1.4-3.1-2.1c0.7-0.3,1.4-0.5,2.1-0.8c1.3,0.7,2.5,1.4,3.8,2.2
	C181.9,28.4,181,28.8,180,28.8z M176,26.3c-1-0.4-2.1-0.7-3-1c0-0.1,0.1-0.4,0.1-0.5c1.6-0.9,3.1,0.5,4.7,0.8
	C177.3,25.9,176.6,26,176,26.3z M174.9,26.5c-0.8,0.3-1.6,0.7-2.5,0.8c-1.2-0.3-2.2-0.7-3.3-1.3c0.8-0.3,1.6-0.7,2.4-0.8
	C172.9,25.8,173.9,26,174.9,26.5z M171.4,27.9c-0.9,0.5-1.8,0.9-2.9,1.2c-1-0.1-1.8-0.7-2.7-1c0.9-0.5,1.7-1.2,2.7-1.2
	C169.6,27.1,170.5,27.5,171.4,27.9z M167.7,29.6c-1.2,0.5-2.2,1.2-3.4,1.6c-0.8-0.3-1.7-0.8-2.5-1.2c1-0.7,2.1-1.2,3.3-1.7
	C165.9,28.6,166.8,29,167.7,29.6z M159.1,28.9c0.7-0.4,1.2-0.8,1.8-1c1-0.1,2,0,3,0.1C162.6,28.9,161.2,30.2,159.1,28.9z
	 M159.1,29.9l1.2,0.1c-1,0.7-2.1,1.3-3.3,2c-0.5-0.3-1-0.5-1.6-0.8c0.5-0.4,1-0.8,1.6-1.2C157.7,29.8,158.5,29.9,159.1,29.9z
	 M157.3,32.6c0.5,0.5,1.6,0.7,1.6,1.6c-1.3,0.8-2.6,1.6-3.9,2.4c-0.5-0.5-0.9-0.9-1.4-1.4C154.8,34.1,156,33.4,157.3,32.6z
	 M154.4,36.6c-1.4,0.9-2.9,1.7-4.2,2.6c-0.4-0.5-0.8-1-1.2-1.6c1.3-0.9,2.6-1.7,3.9-2.5C153.5,35.7,154,36.2,154.4,36.6z
	 M146.7,49.2c1.7-0.9,3.5-2,5.4-2.6c0.3,1.2,0.4,2.2,0.7,3.4c-2,0.9-3.8,1.8-5.8,2.7C146.8,51.5,146.2,50.2,146.7,49.2z M146.9,80.1
	c2-0.5,3.9-1.3,5.9-1.8c-0.4,1.8-0.4,3.7-0.7,5.4c-1.8,0.5-3.7,1-5.5,1.6C146.8,83.5,146.9,81.8,146.9,80.1z M152.2,84.5
	c-0.4,1.7-0.5,3.5-0.8,5.2c-1.7,0.5-3.4,0.9-5.1,1.3c0.1-1.7,0.3-3.4,0.4-5.1C148.5,85.4,150.3,84.9,152.2,84.5z M151.1,90.5
	c-0.1,1.7-0.5,3.4-0.8,5.1c-1.6,0.4-3,0.8-4.6,1c0.1-1.6,0.3-3.1,0.4-4.8C147.7,91.3,149.4,90.9,151.1,90.5z M150.1,96.4
	c-0.3,1.6-0.5,3.1-1,4.7c-1.3,0.4-2.6,0.5-3.9,0.8c0.3-1.4,0.4-2.9,0.5-4.4C146.9,96.9,148.5,96.8,150.1,96.4z M148.9,102
	c-0.4,1.4-0.8,3-1.2,4.4c-1,0.1-2.1,0.4-3.3,0.5c0.1-1.4,0.3-2.9,0.5-4.3C146.3,102.4,147.6,102.2,148.9,102z M147.6,107.1
	c-0.3,1.3-0.7,2.7-1,4.1c-0.9,0.1-1.8,0.4-2.7,0.4c0.3-1.3,0.4-2.6,0.5-3.9C145.5,107.5,146.6,107.4,147.6,107.1z M143.8,107.1
	c-1.2,0-2.2,0.1-3.4,0.1c0-1.4,0-2.7,0-4.2c1.3-0.1,2.6-0.3,3.9-0.3C144.1,104.3,143.9,105.7,143.8,107.1z M143.9,112.4
	c0.8-0.1,1.6-0.3,2.5-0.3c-0.4,1.2-0.7,2.5-0.9,3.7c-0.7,0.1-1.3,0.1-2,0.3C143.4,114.7,143.5,113.6,143.9,112.4z M145.1,116.6
	c-0.3,1-0.7,2.2-1,3.3c-0.4,0-1,0-1.4,0c0.1-1,0.4-2.1,0.5-3.1C143.8,116.6,144.5,116.6,145.1,116.6z M144.9,120.2
	c0.3,0,0.9,0,1.2,0c-0.7,1-0.5,2.9-2.1,3C144.2,122.3,144.5,121.3,144.9,120.2z M146.8,120.2c0.4,0,0.8-0.1,1.2-0.1
	c-0.5,0.9-0.9,2-1.4,2.9c-0.3,0-0.7,0.1-0.8,0.1C146,122.1,146.4,121.1,146.8,120.2z M150,119.8c-0.9,1-1.3,2.7-2.7,3.3
	C148,121.9,148.1,119.7,150,119.8z M149.2,119.2c0.7-1.2,1.3-2.2,1.7-3.4c0.5-0.1,1.2-0.3,1.7-0.3c-0.8,1.2-1.4,2.4-2.2,3.5
	C150.1,119.1,149.6,119.2,149.2,119.2z M153.5,115.4c0.3,0,0.9-0.1,1.2-0.1c-0.8,1.2-1.6,2.4-2.5,3.5c-0.3,0-0.8,0.1-1,0.1
	C152,117.9,152.7,116.6,153.5,115.4z M153.9,114.7c0.8-1.4,1.7-2.9,2.5-4.3c0.7-0.1,1.2-0.1,1.8-0.3c-0.9,1.4-1.8,2.9-2.9,4.3
	C155.1,114.6,154.3,114.6,153.9,114.7z M159.2,110c0.5,0,1-0.1,1.7-0.1c-1.2,1.4-2.1,3-3.5,4.3c-0.3,0-0.9,0.1-1.2,0.1
	C157.3,113,158.2,111.5,159.2,110z M159.6,109.4c1-1.6,2-3.1,3-4.7c0.1,0,0.3-0.1,0.4-0.3c0.5,0,1.6-0.1,1.7,0c-0.9,1.4-2,3-3,4.3
	C161.3,109.4,160.3,109.1,159.6,109.4z M165.8,104.1c0.7-0.4,1.3-0.4,2.1-0.5c-1.2,1.4-2.2,3-3.5,4.4c-0.4,0.7-1.3,0.8-2.1,0.9
	C163.4,107.4,164.5,105.7,165.8,104.1z M168.7,103.5c0.5-0.1,1-0.1,1.6-0.3c-1.4,1.7-2.9,3.4-4.3,5.1c-0.3,0-0.9,0.1-1.2,0.1
	C166,106.8,167.4,105.2,168.7,103.5z M169.3,102.7c1-2,2.6-3.5,3.7-5.5c0.7-0.1,1.3-0.3,2.1-0.3c-1.3,1.7-2.6,3.5-3.9,5.2
	C170.8,102.7,169.8,102.6,169.3,102.7z M175.9,96.7c0.5-0.1,1-0.1,1.7-0.3c-1.2,1.6-3.3,4.1-4.6,5.6c-0.4,0.1-0.8,0.1-1.2,0.3
	C173.1,100.5,174.6,98.6,175.9,96.7z M176.5,96c1.2-1.8,2.4-3.7,3.7-5.5c0.4-0.8,1.6-0.7,2.4-0.9c-1.4,2.1-2.9,3.9-4.2,6
	C177.7,95.8,177,95.9,176.5,96z M183.1,89.5c0.4,0,1.2-0.1,1.6-0.1c-1.3,1.8-2.7,3.7-4.1,5.5c-0.3,0.4-1,1.3-1.4,0.5
	C180.3,93.3,182.1,91.7,183.1,89.5z M184.8,90.1c0.4-0.7,1-0.9,1.8-1c-1.4,1.7-2.7,3.4-4.1,5.1c-0.4,0.5-0.9,0.9-1.4,1.3
	C182,93.4,183.7,92,184.8,90.1z M186.1,88.6c1.2-2.2,2.7-4.2,3.9-6.4c0.3,0,0.9-0.1,1.2-0.1c-1,2.2-2.9,3.9-3.8,6.1
	C187,88.3,186.6,88.4,186.1,88.6z M190.6,81.6c1-2,2.1-3.9,3.1-5.9c0.3-0.7,1-0.7,1.7-0.8c-1,2-2.2,3.8-3.3,5.8
	C192,81.5,191.2,81.5,190.6,81.6z M194.4,74.3c0.9-2.1,1.8-4.2,2.6-6.3c0.4,0,1.2,0,1.6,0c-0.8,2.1-2.1,4.1-2.6,6.3
	C195.6,74.3,194.8,74.3,194.4,74.3z M199.5,67.2c0.7-2,1.3-3.9,1.7-6c0.3-0.1,0.8-0.3,1-0.4c-0.5,2.1-1.4,4.2-1.7,6.3
	C200.3,67.2,199.8,67.2,199.5,67.2z M201.5,60.6c0.4-2,0.5-4.1,0.9-6c0.4-0.1,0.7,0,1,0c-0.3,1.7-0.7,4.2-0.9,5.9
	C202.4,60.4,201.9,60.4,201.5,60.6z M203.6,53.9c-0.3,0-0.7-0.1-0.9-0.3c-0.3-1.8,0-3.8-0.1-5.6c0.4,0,0.7,0,1,0.1
	C203.5,50.1,203.5,52.1,203.6,53.9z M202.8,45.1c0.1,0.8,0.3,1.7,0.4,2.5c-0.3-0.1-0.7-0.4-0.8-0.5c-0.5-1.7-0.8-3.5-1-5.4
	c0.4,0.3,0.7,1.3,1,2l0,0C202.6,44.2,202.7,44.7,202.8,45.1z M201.2,38.2c0-0.1-0.1-0.4-0.1-0.5v-0.1L201.2,38.2z M201.8,41.2v0.3
	c-0.1,0-0.5-0.1-0.8-0.1c-0.7-1.7-1.8-3.3-1.8-5.2C200.6,37.5,201,39.5,201.8,41.2z M199.4,36c-0.3,0-0.7,0-0.8,0
	c-0.8-1.6-2.2-2.7-2.6-4.4C197.5,32.7,198.2,34.5,199.4,36z M195.9,31.1c-1.7-0.7-2.9-2.4-4.2-3.5C193.4,28.4,194.6,29.9,195.9,31.1
	z M194.3,31.1c-0.7,0-1.3,0-1.7-0.5c-0.9-0.9-2-1.8-2.9-2.9c0.3,0,0.9,0.1,1.3,0.1C192.1,28.9,193.3,29.9,194.3,31.1z M189.3,26.7
	c0.5,0,1.2-0.3,1.7,0.3c-0.7-0.1-1.4,0-2.1,0.1c-1.3-0.9-2.7-1.6-3.9-2.6C186.7,24.7,187.9,26,189.3,26.7z M184.2,25
	c1.3,0.7,2.6,1.3,3.5,2.4c-2,0.4-3.4-1.4-5-2.4C183.2,25,183.8,25,184.2,25z M185.5,27.5c-0.8,0.3-1.7,0.7-2.5,0.1
	c-1-0.7-2-1.2-2.9-2c0.5-0.1,1.2-0.3,1.7-0.3C183.2,25.9,184.2,26.8,185.5,27.5z M182.3,24.1c0,0.1-0.1,0.5-0.1,0.7
	c-1.3-0.4-2.6-0.8-3.8-1.3c-0.1-0.1-0.3-0.4-0.3-0.4C179.4,23.1,180.8,23.9,182.3,24.1z M176.6,23.5c0.1,0,0.4,0.1,0.5,0.1
	c1.2,0.4,2.4,0.8,3.5,1.2c-1.8,0.8-3.7-0.5-5.4-0.9C175.6,23.9,176.3,23.7,176.6,23.5z M172.1,23c0.9,0.3,1.7,0.4,2.6,0.7
	c-1.4,0.4-2.9,0.3-4.3-0.1C170.9,23,171.4,22.9,172.1,23z M172.6,24.3c-1.4,0.8-3.1,0.1-4.7,0C169.3,23.5,171,24.1,172.6,24.3z
	 M169.8,25.1c-1.2,1.2-2.9,0.8-4.3,0.5C166.6,24.5,168.5,25.2,169.8,25.1z M167.2,26.5c-1.4,0.9-3.1,1-4.8,0.8
	C163.4,25.6,165.5,26.3,167.2,26.5z M162.1,26.5c-1,0.8-2.5,0.9-3.7,0.9C159.4,26.4,160.9,26.7,162.1,26.5z M156.6,28.2
	c1.3-0.7,1.8-0.1,2.9-0.1c-0.7,0.4-1.3,0.7-2,0.9C156.9,29.4,156.1,29.3,156.6,28.2z M156.4,29.7c-0.5,0.4-1,0.8-1.6,1
	c-0.1,0.1-0.5,0.3-0.7,0.3c-0.5,0-1-0.1-1.6-0.1C153.7,30.3,155.1,29.7,156.4,29.7z M153.7,32.3c0.3-0.1,0.7-0.5,0.8-0.7
	c0.5,0.3,1.2,0.4,1.7,0.7c-1.2,0.8-2.2,1.8-3.5,2.2c-0.4-0.3-0.8-0.5-1-0.8C152.4,33.2,153.1,32.7,153.7,32.3z M152,34.7l0.1,0.4
	c-1.2,0.8-2.4,1.4-3.5,2.2l-0.3-0.3c-0.1-0.1-0.5-0.5-0.7-0.7C149.2,35.6,150.5,33.6,152,34.7z M150.1,33.9c-1,0.8-2,2-3.3,2.1
	C146.9,34.7,148.8,33.7,150.1,33.9z M144.9,36.5c0.5-0.4,1.2-0.5,1.7-0.3c-0.9,0.7-2,1.3-3,1.8l-0.3-0.3
	C143.9,37.4,144.3,37,144.9,36.5z M143.2,38.1c-0.8,0.9-2,0.9-3,1.3C140.4,38.1,142.1,38.3,143.2,38.1z M140,123.2c-0.4,0-0.8,0-1,0
	c-0.1-0.5-0.3-0.9-0.4-1.7c0-0.3,0-0.9,0-1.2c0.5,0,0.9,0,1.4,0.1C140,121.5,140,122.3,140,123.2z M139.9,119.8c-0.5,0-1,0-1.7-0.1
	c-0.1-1-0.3-2.1-0.4-3.1c0.7,0,1.3,0,2,0.1C139.9,117.9,139.9,118.8,139.9,119.8z M79.3,44.7c0.1-0.7,0-1.3,0-2
	c0.4,0,1.3-0.1,1.7-0.1c-0.4,1.8-0.8,3.5-1,5.4c-0.4,0-1.2,0-1.6,0c0.1-0.8,0.7-2.2,0.9-3l0,0C79.2,45,79.3,44.9,79.3,44.7
	L79.3,44.7L79.3,44.7z M139.6,43.4c-1.6-0.1-3-0.7-4.6-1c0.1-0.5,0.3-1.2,0.4-1.7c1.2,0.3,2.5,0.5,3.7,0.9
	C139.7,41.9,139.4,42.9,139.6,43.4z M139.6,74.7c-2.1,0-4.2-0.7-6.3-0.8c-0.1-1.7-0.1-3.3-0.1-5c2.1,0.4,4.3,0.7,6.4,1.2
	C139.5,71.6,139.6,73.1,139.6,74.7z M83.4,48.8c0.9,0,2,0.1,2.9,0.1c0,2,0,3.9,0,5.8c-1-0.1-2-0.3-2.9-0.4
	C83.4,52.5,83.5,50.6,83.4,48.8z M119.9,93.4c-0.5-2-1.4-3.8-1.8-5.8c1.4,0.5,3,0.8,4.4,1.2c0.7,1.7,1,3.5,1.4,5.4
	C122.6,94.1,121.2,93.7,119.9,93.4z M124.2,95.1c0.7,1.6,1,3.4,1.7,5c-1.3-0.4-3.5,0-3.9-1.6c-0.5-1.4-1-2.9-1.7-4.3
	C121.6,94.5,122.9,94.6,124.2,95.1z M86.9,49.1c1,0,2.2,0.3,3.3,0.4c0,1.8,0,3.8,0,5.6c-1.2,0-2.4-0.3-3.5-0.4
	C86.9,52.8,86.5,50.9,86.9,49.1z M90.2,55.9c0.4,2,0.5,4.1,0.9,6c-1,0-2.1-0.1-3.1-0.1c-0.5-2-0.8-4.2-0.9-6.1
	C88.1,55.6,89.1,55.7,90.2,55.9z M100.2,57c-1.6-0.4-3-0.7-4.6-0.9c0-1.8,0-3.8,0-5.6c1.6,0.4,3.1,0.5,4.6,1.2
	C100.1,53.4,100.2,55.2,100.2,57z M95.7,62.7c-1.3-0.1-2.6-0.4-3.9-0.5c-0.3-2.1-0.5-4.1-0.8-6.1c1.3,0.3,2.6,0.4,4.1,0.7
	c0,0.7,0,1.4,0.3,2.1C95.4,60,95.5,61.4,95.7,62.7z M95.7,56.8c1.6,0.3,3,0.7,4.6,1c0.1,2,0.4,3.9,0.7,5.9c-1.4-0.3-3-0.7-4.4-0.9
	C96,60.8,96,58.7,95.7,56.8z M101,64.5c0.5,2.1,0.8,4.2,1.3,6.1c-1.4-0.4-2.9-0.7-4.3-0.9c-0.5-2.1-1-4.1-1.4-6.1
	C98,63.8,99.4,64.1,101,64.5z M118.6,63.6c0.1,0.5-0.1,1.4,0,2c0,1,0.5,2.9,0.4,3.4c-2-0.5-3.9-1.2-5.8-2c-0.1-1.8-0.3-3.7-0.4-5.5
	C114.8,62.1,116.7,62.9,118.6,63.6z M112.8,55.5c2,0.8,3.8,1.6,5.8,2.2c0,1.7,0,3.4,0,5.2c-2-0.7-3.8-1.4-5.8-2.1
	C112.8,59,112.8,57.2,112.8,55.5z M119.1,69.7c0.3,1.4,0.4,2.7,0.5,4.2c0,0.3,0,0.4,0.1,0.7c0,0.1,0,0.4,0.1,0.8
	c-1.8-0.7-3.5-1-5.4-1.6c-0.4-2-0.7-3.9-0.9-5.9C115.3,68.4,117.1,69.2,119.1,69.7z M119.3,58.1c2,0.8,4.1,1.6,6,2.4
	c0,1.7,0,3.3,0,5c-2-0.8-4.1-1.4-6-2.4C119.3,61.4,119.3,59.7,119.3,58.1z M119.5,65.7c0-0.5-0.3-1.2-0.1-1.7c2,0.7,3.9,1.4,5.9,2.2
	c0.4,1.7,0.3,3.5,0.4,5.2c-2-0.7-3.9-1.4-5.9-2.1C119.6,68.5,119.7,66.5,119.5,65.7z M125.5,59.5c-2.2-0.4-4.1-1.6-6.1-2.2
	c0.1-1.6,0.1-3.1,0.4-4.7c2,0.9,3.9,1.8,6,2.6C125.6,56.6,125.5,58.1,125.5,59.5z M119.7,51.8c0.3-1.3,0.5-2.6,0.7-3.9
	c2.1,0.7,3.9,1.7,5.8,2.6c-0.1,1.3-0.1,2.6-0.4,3.9C123.7,53.6,121.7,52.7,119.7,51.8z M118.9,51.5c-1.8-0.9-3.8-1.6-5.6-2.5
	c0.4-1.4,0.5-2.9,0.9-4.2c1.8,0.9,3.5,1.7,5.4,2.5C119.5,48.8,119.5,50.2,118.9,51.5z M119.1,52.3c-0.1,1.6-0.4,3.1-0.5,4.6
	c-2-0.8-3.9-1.6-5.8-2.4c0.3-1.6,0.4-3.1,0.4-4.8C115.3,50.6,117.1,51.5,119.1,52.3z M113.6,73.5c-1.7-0.5-3.4-0.9-5-1.4
	c-0.8-2-0.8-4.1-1.3-6.1c1.7,0.7,3.7,0.9,5.2,1.7C112.9,69.6,113.3,71.6,113.6,73.5z M107.3,65.4c-0.3-2-0.3-3.8-0.7-5.8
	c1.8,0.1,3.5,1.2,5.4,1.4c0.4,1.8,0.4,3.8,0.4,5.8C110.7,66.3,109,65.8,107.3,65.4z M112,54.3l-0.5-0.1c-1.7-0.5-3-0.9-4.7-1.7v-0.8
	c0.1-1.4,0.3-2.9,0.4-4.2c1.8,0.7,3.7,1.2,5.4,2.1C112.4,51.4,112.4,52.5,112,54.3z M112,55.1c0,1.7,0,3.5,0,5.2
	c-1.8-0.5-3.7-1.2-5.5-1.7c0-1.8,0-3.7,0-5.5C108.5,53.9,110.2,54.5,112,55.1z M107.7,71.8c-1.6-0.3-3.1-0.7-4.7-1
	c-0.4-2-0.8-4.1-1.2-6c1.6,0.3,3.3,0.7,4.8,1.2C107,67.9,107.3,69.9,107.7,71.8z M101.5,63.8c-0.1-2-0.5-3.9-0.5-5.9
	c1.7,0.5,3.4,0.8,5,1.4c0,2,0.4,3.8,0.5,5.8C104.9,64.6,103.2,64.2,101.5,63.8z M106,52.3c-1.7-0.4-3.3-0.9-5-1.3
	c0.1-1.7,0.4-3.3,0.5-5c1.7,0.1,3.4,0.9,5.1,1.3C106.5,49.1,106.1,50.6,106,52.3z M106,53.2c-0.1,1.8-0.1,3.5-0.1,5.4
	c-1.6-0.5-3.3-0.9-5-1.3c0-1.8,0-3.8,0-5.6C102.6,52.2,104.4,52.5,106,53.2z M102.3,71.4c0.8,2,1.3,4.2,2,6.3
	c-1.3-0.3-2.7-0.5-4.1-0.9c-0.5-2.1-1.4-4.2-2.1-6.3C99.6,70.9,101,71,102.3,71.4z M103.2,71.4c1.6,0.4,3,0.8,4.6,1.2
	c0.5,2,1,4.1,1.6,6.1c-1.4-0.3-2.7-0.7-4.2-0.8C104.4,75.9,103.8,73.7,103.2,71.4z M108.7,72.9c1.7,0.5,3.5,0.7,5.1,1.4
	c0.4,2,0.8,3.9,1.3,5.8c-1.6-0.3-3-0.8-4.6-1C109.7,77.1,109.3,75,108.7,72.9z M115.3,80.8c0.5,2,1,3.9,1.7,5.9
	c-1.6-0.3-3-0.7-4.4-1c-0.5-2-1.4-3.9-2-5.9C112.1,80.1,113.7,80.5,115.3,80.8z M114.5,74.4c1.8,0.5,3.5,1,5.4,1.7
	c0.4,1.8,0.7,3.7,1,5.6c-1.7-0.3-3.4-0.9-5-1.3C115.3,78.5,114.9,76.4,114.5,74.4z M119.7,70c2,0.8,3.9,1.4,5.9,2.1
	c0.4,1.7,0.3,3.5,0.5,5.4c-2-0.5-3.8-1.2-5.8-1.7C120.3,73.8,120,71.8,119.7,70z M126,65.5c0.1-1.6,0-3.1,0-4.8
	c1.8,0.8,4.4,1.3,6.1,2.5l0.1,0.1c0,1.6,0.1,3-0.1,4.7C130.2,67.1,128.1,66.5,126,65.5z M132.3,68.5c0.1,1.7,0.3,3.4,0.4,5.1
	c-2.1-0.7-4.2-1.3-6.3-2.1c-0.1-1.7-0.1-3.4-0.1-5.2C128.2,67.2,130.2,67.9,132.3,68.5z M132.3,62.4c-2-0.5-4.4-1.6-6.1-2.4
	c0-1.4,0.1-2.9,0.3-4.3c2.1,0.8,4.2,1.7,6.3,2.6C132.4,59.7,132.4,61,132.3,62.4z M132.6,57.4c-2.1-0.8-4.1-1.8-6.1-2.6
	c0-1.3,0.3-2.6,0.4-3.9c2,0.7,3.9,1.7,5.9,2.6C132.7,54.8,132.7,56.1,132.6,57.4z M126.3,49.8c-1.8-0.9-3.8-1.8-5.8-2.7
	c0.4-1.2,0.7-2.4,0.9-3.5c1.8,0.9,3.5,1.8,5.4,2.6C126.8,47.5,126.5,48.7,126.3,49.8z M121.8,42.9c0.4-0.9,0.8-1.8,1.2-2.9
	c1.6,0.9,3.3,1.8,5,2.7c0,0.9-0.5,1.8-0.7,2.7C125.2,44.9,123.5,43.8,121.8,42.9z M121.2,42.6c-1.7-0.9-3.5-1.6-5.1-2.7
	c0.5-0.9,1-1.8,1.6-2.6c1.7,0.7,3.1,1.7,4.7,2.4C122,40.7,121.6,41.7,121.2,42.6z M120.8,43.2c0.3,1.2-0.5,2.4-0.8,3.5
	c-1.8-0.8-3.7-1.7-5.5-2.6c0.5-1,0.9-2.2,1.3-3.4C117.5,41.5,119.1,42.2,120.8,43.2z M113.8,43.9c-1.7-0.7-3.5-1.3-5.2-2.1
	c0.5-1.2,1-2.4,1.6-3.5c1.7,0.7,3.3,1.4,5,2.1C114.8,41.6,114.2,42.8,113.8,43.9z M113.7,44.6c-0.4,1.4-0.7,2.7-0.9,4.2
	c-1.8-0.7-3.7-1.3-5.4-2.1c0.4-1.4,0.8-2.9,1.2-4.2C110.2,43.3,112,43.8,113.7,44.6z M106.8,46.7c-1.7-0.4-3.3-1-5-1.4
	c0.4-1.6,0.8-3,1.3-4.4c1.6,0.5,3.1,1,4.8,1.6C107.4,43.7,107,45.3,106.8,46.7z M101.1,45c-1.4-0.3-3-0.8-4.4-1c0.4-1.6,1-3,1.4-4.6
	c1.4,0.4,2.9,0.8,4.3,1C102.1,42,101.5,43.4,101.1,45z M100.8,45.5c0,1.7-0.4,3.4-0.5,5.1c-1.6-0.1-3.1-0.7-4.6-1
	c0.4-1.7,0.4-3.4,0.8-5.1C98,44.9,99.3,45.3,100.8,45.5z M94.9,49.6c-1.2-0.5-2.7-0.4-3.8-1c0.1-1.6,0.5-3.4,0.8-5
	c1.3,0.3,2.6,0.5,3.9,0.8C95.5,46,95.4,47.9,94.9,49.6z M94.9,50.2c0,1.8,0,3.8,0,5.6c-1.3-0.3-2.7-0.4-4.1-0.8
	c0.1-1.8,0-3.7,0.1-5.5C92.3,49.8,93.6,50,94.9,50.2z M91.2,62.8c0.4,2.1,1,4.1,1.6,6.1c-1-0.1-2.1-0.3-3-0.3c-0.9-2-1.3-4.2-2-6.3
	C89,62.4,90.2,62.4,91.2,62.8z M91.9,62.8c1.3,0.1,2.6,0.4,3.9,0.7c0.4,2.1,0.9,4.2,1.4,6.1c-1.3-0.1-2.5-0.4-3.8-0.7
	C93,67,92.5,64.9,91.9,62.8z M97.5,70.4c0.5,2.1,1.4,4.2,2,6.3c-1.3-0.4-3.5,0.1-3.8-1.6c-0.7-1.7-1.3-3.5-1.8-5.4
	C95.1,70,96.3,70.2,97.5,70.4z M100,77.6c0.8,2.1,1.8,4.1,2.6,6.1c-1-0.1-2.1,0-3-0.5c-1.2-2-2-4.2-3-6.3
	C97.6,77.1,98.8,77.3,100,77.6z M100.6,77.7c1.3,0.3,2.6,0.5,3.9,0.8c0.8,2.1,1.7,4.2,2.4,6.1c-1.2-0.3-2.4-0.5-3.5-0.7
	C102.3,81.9,101.7,79.7,100.6,77.7z M105.5,78.6c1.4,0.3,2.9,0.4,4.2,0.9c0.9,2,1.3,4.1,2.1,6c-1.3-0.3-2.7-0.5-4.1-0.8
	C107,82.7,106.1,80.7,105.5,78.6z M112,86.3c0.9,2,1.7,3.9,2.5,5.9c-1.2-0.3-2.5-0.1-3.5-0.8c-0.9-2-1.8-3.9-2.6-5.9
	C109.4,85.8,110.7,86.1,112,86.3z M112.8,86.6c1.4,0.3,2.7,0.7,4.2,0.8c0.8,2,1.4,3.8,2.1,5.8c-1.3-0.3-2.6-0.5-3.8-0.9
	C114.4,90.5,113.7,88.4,112.8,86.6z M117.6,86.9c-0.5-1.8-1.2-3.8-1.6-5.6c1.7,0.5,3.4,0.8,5,1.4c0.5,1.8,0.9,3.7,1.3,5.6
	C120.8,87.7,119.1,87.5,117.6,86.9z M120.6,76.4c1.8,0.5,3.8,1,5.6,1.8c0.4,1.7,0.5,3.7,0.8,5.4c-1.8-0.5-3.5-1-5.2-1.6
	C121.2,80.2,121,78.2,120.6,76.4z M126.9,77.6c0-1.8-0.4-3.5-0.5-5.2c2.1,0.7,4.2,1.3,6.1,2.1c0,1.7,0.1,3.4,0.1,5.1
	C130.9,78.9,128.9,78.2,126.9,77.6z M127.1,50.2c0-1.2,0.3-2.4,0.7-3.5c1.8,0.8,3.7,1.7,5.5,2.6c0,1.2-0.1,2.2-0.3,3.4
	C130.9,52.1,129,50.9,127.1,50.2z M127.8,46c0.3-0.9,0.5-1.8,0.7-2.9c1.7,0.7,3.4,1.6,5,2.5c0.3,0.9-0.1,2-0.1,2.9
	C131.4,47.9,129.7,46.8,127.8,46z M133.5,53.8c2,0.3,3.9,0.8,5.9,1.2c0,1.3,0.1,2.5,0.1,3.8c-2.1-0.1-4.2-0.8-6.3-1.2
	C133.3,56.4,133.3,55.1,133.5,53.8z M139.4,54.3c-2-0.5-3.8-0.9-5.8-1.2c0-1.2,0.1-2.4,0.3-3.5c1.8,0.4,3.7,0.9,5.5,1.2
	C139.4,52.1,139.4,53.1,139.4,54.3z M139.4,50.1c-1.8-0.4-3.7-0.8-5.5-1.3c0.1-0.9,0.3-1.8,0.4-2.7c1.7,0.4,3.4,0.8,5.1,1.3
	C139.4,48.3,139.4,49.2,139.4,50.1z M133.7,45.1c-1.7-0.9-3.4-1.7-5-2.6c0.3-0.7,0.5-1.3,0.9-2.1c1.6,0.5,3,1.4,4.4,2.4
	C134.3,43.6,133.9,44.3,133.7,45.1z M128.2,42.1c-1.7-0.9-3.3-1.8-5-2.6c0.4-0.8,0.9-1.4,1.3-2.2c1.3,0.8,2.9,1.6,4.2,2.5
	C129.2,40.5,128.4,41.5,128.2,42.1z M122.7,39.2c-1.6-0.9-3.1-1.6-4.7-2.6c0.7-0.7,1.2-1.3,1.7-2c1.6,0.7,2.9,1.7,4.3,2.5
	C123.7,37.8,123.1,38.5,122.7,39.2z M117.5,36.4c-1.6-0.7-3-1.3-4.4-2.1c0.7-0.7,1.4-1.3,2.2-2c1.4,0.5,2.6,1.3,3.9,2
	C118.7,34.9,118,35.6,117.5,36.4z M117.1,36.9c-0.5,0.9-1.2,2-1.7,2.9c-1.6-0.7-3.1-1.4-4.7-2.1c0.7-1,1.3-2,2-3
	C114.1,35.4,115.5,36.2,117.1,36.9z M109.8,37.3c-1.4-0.5-2.9-1.2-4.3-1.6c0.8-1,1.4-2,2.4-3c1.4,0.5,2.7,1.2,4.2,1.7
	C111.2,35.3,110.7,36.6,109.8,37.3z M109.7,38.1c-0.5,1.2-1,2.4-1.6,3.5c-1.7-0.1-3.1-1-4.7-1.4c0.5-1.3,1.2-2.5,1.8-3.7
	C106.6,36.9,108.2,37.4,109.7,38.1z M102.6,39.9c-1.3-0.5-2.7-0.8-4.2-1.2c0.5-1.3,1.3-2.6,2.1-3.8c1.4,0.1,2.7,0.9,4.1,1.2
	C103.9,37.4,103.2,38.6,102.6,39.9z M97.7,38.5c-1.3-0.3-2.5-0.5-3.8-0.8c0.8-1.3,1.4-2.6,2.2-3.8c1.2,0,2.4,0.5,3.5,0.7
	C99.2,36,98.4,37.1,97.7,38.5z M97.5,39.2c-0.5,1.4-0.9,3-1.4,4.6c-1.3-0.4-2.6-0.5-3.9-0.8c0.5-1.6,1-3.1,1.7-4.7
	C95,38.6,96.2,38.8,97.5,39.2z M91.5,42.6c-1.2,0-2.4-0.1-3.4-0.4c0.5-1.6,1.2-3,1.7-4.6c1,0.1,2.1,0.3,3.3,0.4
	C92.6,39.6,91.9,41.1,91.5,42.6z M91.1,43.6c-0.1,1.4-0.5,3.7-0.8,5.1c-1.2,0-2.2-0.1-3.4-0.1c0.1-1.8,0.7-3.5,0.9-5.4
	C89,43.2,90,43.3,91.1,43.6z M86.2,48.1c-0.9,0-1.8,0-2.9-0.1c0.4-1.7,0.7-3.5,0.9-5.2c0.9,0,1.8,0,2.7,0.1
	C86.9,44.7,86.5,46.4,86.2,48.1z M86.2,55.5c0.3,2,0.5,4.1,0.8,6c-0.9,0-1.8-0.1-2.7-0.3c-0.3-2-0.7-4.1-0.9-6
	C84.3,55.2,85.2,55.3,86.2,55.5z M87.1,62.1c0.7,2.1,1.2,4.2,1.8,6.3c-0.9,0-1.7-0.1-2.6-0.1c-0.7-2.1-1.3-4.2-2-6.3
	C85.3,62,86.2,62,87.1,62.1z M89.1,69.1c0.9,2.1,1.7,4.2,2.5,6.4c-0.8-0.1-1.6-0.1-2.4-0.3c-0.9-2.1-1.8-4.3-2.6-6.4
	C87.4,68.9,88.2,69.1,89.1,69.1z M89.9,69.3c1,0,2.1,0.1,3.3,0.3c0.7,2.2,1.6,4.2,2.2,6.4c-0.9-0.1-2-0.3-2.9-0.4
	C91.5,73.7,90.8,71.4,89.9,69.3z M95.7,76.8c1,2.1,2,4.2,3,6.3c-0.9-0.1-2-0.1-2.7-0.5c-1-2.1-2.1-4.2-3.1-6.3
	C93.7,76.5,94.7,76.5,95.7,76.8z M98.8,83.9c0.5,0.4,0.8,1,1,1.6c0.8,1.6,1.7,3,2.5,4.6c-0.8-0.1-1.4-0.3-2.2-0.3
	c-1.3-2.1-2.5-4.2-3.8-6.3C97.2,83.6,98,83.6,98.8,83.9z M99.8,84c1,0.1,2.1,0.3,3.1,0.4c1.2,2,2.1,4.1,3.1,6.1
	c-0.9-0.1-1.8-0.3-2.9-0.5C102.1,88,101,86.1,99.8,84z M103.8,84.8c1.2,0.1,2.4,0.4,3.5,0.7c0.9,2,1.7,3.9,2.7,5.9
	c-1-0.1-2.1-0.3-3.1-0.4C105.9,88.8,104.8,86.7,103.8,84.8z M110.3,92.1c1,1.8,2.1,3.7,3,5.6c-0.8-0.1-1.7-0.1-2.5-0.3
	c-1.2-2-2.5-3.8-3.4-5.9C108.3,91.7,109.4,92,110.3,92.1z M111.2,92.4c1.2,0.3,2.4,0.5,3.5,0.7c0.8,1.8,1.7,3.7,2.5,5.5
	c-1-0.1-2.1-0.4-3-0.5C113.3,96,112.3,94.2,111.2,92.4z M115.7,93.1c1.3,0.3,2.5,0.5,3.8,0.8c0.7,1.7,1.4,3.5,2,5.2
	c-1.2-0.1-2.2-0.4-3.4-0.7C117.4,96.7,116.3,95,115.7,93.1z M121.8,100.1c0.9,1.6,1.4,3.3,2.2,4.8c-0.9-0.1-1.8-0.3-2.9-0.5
	c-0.8-1.7-1.7-3.4-2.6-5C119.6,99.7,120.8,99.7,121.8,100.1z M122.6,100.3c1.2,0.3,2.4,0.3,3.5,0.8c0.7,1.6,1,3.1,1.7,4.7
	c-0.9-0.3-1.8-0.4-2.9-0.4C124,103.7,123.4,102,122.6,100.3z M126.8,101.3c1.3,0.1,2.5,0.3,3.7,0.7c0.5,1.4,0.8,2.9,1,4.3
	c-1-0.1-2.1-0.3-3.1-0.4C128.1,104.4,127.4,102.8,126.8,101.3z M126.7,100.3c-0.7-1.6-1-3.3-1.6-5c1.4,0.1,2.9,0.7,4.3,0.8
	c0.3,1.7,0.7,3.3,1,4.8C129.2,100.9,127.8,100.7,126.7,100.3z M124.8,94.5c-0.7-1.7-0.9-3.5-1.6-5.4c1.6,0.4,3.3,0.8,4.8,1.3
	c0.4,1.7,0.7,3.4,1,5C127.6,95.2,126.1,95,124.8,94.5z M123.3,88.6c-0.7-1.8-1-3.8-1.4-5.6c1.7,0.4,3.5,0.9,5.2,1.4
	c0.3,1.7,0.5,3.5,0.9,5.2C126.4,89.4,124.8,88.7,123.3,88.6z M127.1,78.4c2,0.7,3.9,1.3,5.9,1.7c0.1,1.7,0.1,3.4,0.4,5.1
	c-1.8-0.3-3.7-0.9-5.5-1.4C127.4,82,127.2,80.2,127.1,78.4z M133.1,63.4c2,0.4,4.1,0.8,6,1c0.1,0.1,0.3,0.3,0.4,0.4
	c0.1,1.4,0,2.9,0,4.3c-2.2-0.3-4.4-0.7-6.5-1.2C133.1,66.5,133.1,65,133.1,63.4z M139.5,63.8c-2.1-0.3-4.3-0.8-6.4-1.2
	c-0.1-1.4,0-2.9,0-4.3c2.1,0.4,4.3,0.7,6.4,1.3C139.5,61.1,139.5,62.5,139.5,63.8z M139.2,46.6c-1.6-0.5-3.3-0.8-4.8-1.3
	c0.1-0.8,0.4-1.6,0.5-2.2c1.4,0.4,2.9,0.7,4.2,1.2C139.9,44.9,139.4,45.8,139.2,46.6z M134.4,42.2c-1.4-0.8-3-1.6-4.4-2.5
	c0.3-0.5,0.7-1,1-1.6c1.3,0.8,2.6,1.6,3.9,2.2C134.8,41.1,134.6,41.6,134.4,42.2z M129.5,39.4c-1.6-0.7-3-1.7-4.4-2.4
	c0.5-0.5,0.9-0.9,1.4-1.4c1.3,0.8,2.7,1.4,3.9,2.5C130.1,38.5,129.8,38.8,129.5,39.4z M124.6,36.5c-1.4-0.7-2.7-1.6-4.2-2.4
	c0.7-0.5,1.2-0.9,1.8-1.4c1.2,0.8,2.4,1.6,3.7,2.2C125.5,35.6,125.1,36,124.6,36.5z M119.6,33.7c-1.2-0.7-2.5-1.3-3.8-2
	c0.8-0.4,1.6-0.9,2.4-1.3c1.2,0.7,2.4,1.2,3.3,2.1C121,33,120.4,33.4,119.6,33.7z M115.3,31.4c-1.2-0.4-2.4-0.8-3.3-1.7
	c0.9-0.3,1.7-0.7,2.6-1c1,0.5,2.1,1,3,1.6C116.9,30.6,116.1,31.1,115.3,31.4z M114.5,31.9c-0.7,0.8-1.4,1.4-2.2,2.1
	c-1.2-0.7-2.5-1-3.7-1.7c0.5-0.9,1.6-1.3,2.4-2.1C112.1,30.7,113.4,31.3,114.5,31.9z M107.6,32c-1-0.5-2.2-0.9-3.4-1.3
	c0.9-0.8,2-1.4,2.9-2.1c1,0.4,2.1,0.8,3,1.2C109.7,30.9,108.5,31.4,107.6,32z M107.2,32.6c-0.7,1-1.6,2-2.4,3
	c-1.3-0.4-2.6-0.8-3.9-1.3c0.9-1,1.7-2.1,2.6-3C104.7,31.7,106,32.2,107.2,32.6z M100.2,34.1c-1-0.4-2.2-0.7-3.4-0.9
	c0.8-1.2,1.8-2.1,2.7-3.1c1,0.3,2.1,0.7,3.1,0.9C101.9,32,101.1,33.1,100.2,34.1z M96.2,33c-1-0.1-2.1-0.3-3-0.5c1-1,2.1-2.1,3-3.1
	c0.9,0.3,1.8,0.1,2.6,0.7C98,31,97,31.9,96.2,33z M95.7,33.6c-0.8,1.3-1.6,2.7-2.4,3.9c-1-0.1-2.1-0.4-3.1-0.5
	c0.9-1.2,1.6-2.6,2.5-3.8C93.6,33,94.6,33.4,95.7,33.6z M89.5,36.8c-0.8,0.4-1.8-0.1-2.7-0.1c0.8-1.3,1.7-2.6,2.5-3.9
	c0.9,0,1.7,0.1,2.6,0.1C91.2,34.1,90.4,35.4,89.5,36.8z M89.1,37.7c-0.7,1.6-1.3,3.1-1.8,4.7c-0.9,0-1.8-0.1-2.6-0.1
	c0.4-1.6,1.2-3.1,1.8-4.7C87.3,37.4,88.2,37.5,89.1,37.7z M83.9,42c-0.7,0-1.3-0.1-2.1-0.1c0.7-1.6,1.2-3.1,2-4.7
	c0.7-0.3,1.3,0,2.1,0C85.1,38.8,84.5,40.4,83.9,42z M83.7,42.8c-0.4,1.8-0.7,3.5-0.9,5.4c-0.7,0-1.4,0-2.1,0
	c0.1-1.8,0.5-3.5,0.9-5.4C82.3,42.6,83,42.8,83.7,42.8z M82.7,48.7c0,1.8,0,3.8,0,5.6c-0.8,0-1.4,0-2.2,0c0-1.8,0-3.8,0.1-5.6
	C81.3,48.7,81.9,48.7,82.7,48.7z M80.5,55.1c0.8,0,1.4,0,2.2,0.1c0.3,2,0.5,4.1,0.9,6c-0.8,0-1.4-0.1-2.2-0.1
	C81.1,59,80.7,57,80.5,55.1z M80.9,61c-0.4,0-1.2,0-1.6,0c-0.3-2-0.7-3.9-0.9-5.9c0.4,0,1.2,0,1.6,0C80.1,57,80.3,59,80.9,61z
	 M83.7,61.9c0.5,2.1,1.2,4.1,1.7,6.1c-0.7,0-1.4,0-2.1-0.1c-0.5-2.1-1.2-4.2-1.8-6.3C82.3,61.7,83.1,61.9,83.7,61.9z M85.7,68.8
	c0.9,2.1,1.8,4.2,2.6,6.3c-0.7,0-1.3,0-2-0.1c-0.9-2.1-1.8-4.2-2.7-6.4C84.4,68.7,85.1,68.8,85.7,68.8z M89,76
	c0.9,2.1,2.2,4.2,3.1,6.3c-0.5-0.1-1.2-0.1-1.7-0.3c-1-2.1-2.4-4.2-3.4-6.3C87.5,75.7,88.3,75.9,89,76z M89.5,75.9
	c0.8,0.1,1.7,0.3,2.5,0.3c1,2.1,2.1,4.2,3.1,6.3c-0.8,0-1.4-0.1-2.2-0.1C91.7,80.2,90.7,78.1,89.5,75.9z M95.9,83.9
	c1,1.8,2.2,3.7,3.3,5.5c-0.7,0-1.3,0-2-0.1c-1.2-2.1-2.6-4.1-3.8-6.3C94.2,83.3,95.5,82.9,95.9,83.9z M100.1,90.8
	c1.2,1.8,2.5,3.5,3.7,5.5c-0.8,0-1.6,0-2-0.8c-1.3-1.8-2.6-3.5-3.9-5.4C98.5,90.3,99.6,90,100.1,90.8z M100.6,90.5
	c0.8,0.3,2.1-0.3,2.6,0.7c1.2,1.8,2.4,3.8,3.5,5.6c-0.8-0.1-1.4-0.3-2.2-0.7C103.2,94.3,101.9,92.4,100.6,90.5z M103.8,90.9
	c0.9,0.3,2.1,0,2.9,0.7c1.2,1.8,2.2,3.7,3.3,5.6c-0.8-0.1-1.6-0.1-2.4-0.4C106.3,95,105.1,92.9,103.8,90.9z M110.3,98
	c1.3,1.7,2.5,3.5,3.4,5.5c-0.7-0.1-1.3-0.3-2-0.4c-1.2-1.8-2.6-3.5-3.7-5.4C108.9,97.7,109.7,97.7,110.3,98z M111.4,98.3
	c0.9,0.1,1.8,0.1,2.6,0.5c1,1.7,2,3.5,3.1,5.1c-0.8-0.1-1.7,0-2.4-0.4C113.6,101.7,112.4,100,111.4,98.3z M114.8,98.9
	c0.9,0.1,1.8,0.3,2.7,0.4c1,1.6,1.8,3.4,2.7,5.1c-0.8,0-1.6,0-2.4-0.3C116.9,102.4,115.9,100.6,114.8,98.9z M120.8,105.2
	c1,1.4,1.8,3,2.7,4.6c-0.7-0.1-1.7,0.1-2.1-0.5c-1-1.4-2-3-2.9-4.4C119.2,104.9,120,104.9,120.8,105.2z M121.7,105.4
	c0.9,0.4,2.5-0.1,3,1c0.7,1.3,1.2,2.5,1.8,3.8c-0.8-0.1-1.6,0-2.2-0.3C123.4,108.5,122.6,106.9,121.7,105.4z M125.2,106.1
	c0.9,0.1,1.8,0.3,2.9,0.4c0.5,1.4,1.2,2.9,1.6,4.4c-0.8-0.1-1.6-0.4-2.4-0.5C126.5,109,125.9,107.5,125.2,106.1z M128.9,106.8
	c0.9,0.1,1.8,0.1,2.9,0.3c0.5,1.4,0.9,2.9,1.3,4.2c-0.9-0.1-1.8-0.3-2.7-0.4C129.9,109.4,129.3,108.1,128.9,106.8z M133.2,112
	c0.4,1.2,0.7,2.4,1,3.7c-0.7,0-1.3,0-2-0.1c-0.5-1.3-1-2.6-1.6-3.9C131.6,111.7,132.4,111.9,133.2,112z M134.5,116.3
	c0.4,1.2,0.7,2.2,0.9,3.4c-2.1,0.1-2.1-2.2-2.7-3.7C133.2,116.2,133.9,116.3,134.5,116.3z M133.9,112.1c0.9,0.1,1.7,0.3,2.6,0.4
	c0.3,1.2,0.4,2.4,0.5,3.7c-0.7-0.1-1.3-0.1-2-0.3C134.6,114.6,134.3,113.3,133.9,112.1z M135.7,103c1.3-0.1,2.6,0.1,4.1,0.3
	c0,1.4,0,2.7,0,4.2c-0.9-0.1-2.2-0.1-3.3-0.3C136.1,105.8,136.1,104.4,135.7,103z M135.8,107.8c0.1,1.3,0.4,2.6,0.5,3.9
	c-0.8,0-1.7-0.1-2.5-0.1c-0.5-1.4-0.9-2.7-1.2-4.2C133.7,107.4,134.8,107.7,135.8,107.8z M132.4,106.5c-0.4-1.4-0.8-3-1.2-4.4
	c1.3,0.3,2.5,0.5,3.8,0.7c0.3,1.4,0.4,2.9,0.7,4.3C134.6,106.9,133.5,106.8,132.4,106.5z M131.1,101.1c-0.4-1.6-0.8-3.1-1-4.7
	c1.4,0.3,2.9,0.7,4.4,0.9c0.1,1.6,0.4,3.1,0.5,4.7C133.7,101.7,132.3,101.7,131.1,101.1z M129.8,95.6c-0.4-1.7-0.7-3.3-0.9-5
	c1.6,0.4,3.3,0.8,4.8,1.2c0.3,1.6,0.4,3.1,0.5,4.8C132.8,96.4,131.4,96,129.8,95.6z M128.6,89.9c-0.3-1.7-0.5-3.5-0.8-5.2
	c1.8,0.5,3.7,0.9,5.4,1.4c0.3,1.7,0.3,3.4,0.5,5C132,90.7,130.3,90.3,128.6,89.9z M133.3,74.6c2.1,0.4,4.2,0.7,6.3,1
	c0,1.7,0,3.3,0,5c-0.4,0-1.2-0.1-1.6-0.3c-0.5-0.1-0.9-0.1-0.9-0.1c-1.3,0-2.4-0.3-3.7-0.5C133.5,78,133.3,76.3,133.3,74.6z
	 M135.2,39.9c-1.3-0.7-2.6-1.3-3.9-2.1c0.4-0.4,0.7-0.7,1-1c0.8,0.5,1.4,1,2.2,1.4c0.1,0.1,0.5,0.4,0.8,0.5
	C135.4,38.8,135.3,39.4,135.2,39.9z M130.9,37.3c-1.3-0.7-2.4-1.4-3.7-2.2c0.4-0.4,0.9-0.7,1.3-0.9c1,0.7,2.1,1.4,3.3,2.1
	C131.5,36.6,131.2,37.1,130.9,37.3z M126.5,34.7c-1.3-0.4-2.4-1.3-3.5-2.1c0.7-0.3,1.3-0.4,2-0.7c1,0.7,2.1,1.3,3.1,2.1
	C127.6,34.1,127.1,34.4,126.5,34.7z M122.3,32.2c-1-0.7-2-1.2-3-1.8c0.8-0.1,1.6-0.4,2.4-0.5c0.7,0.4,1.4,0.8,2.1,1.2
	C123.5,31.7,122.9,31.9,122.3,32.2z M118.4,29.8c-1-0.3-1.8-0.9-2.7-1.4c1.2,0,2.5-0.7,3.5,0c0.5,0.3,0.9,0.5,1.4,0.8
	C119.9,29.6,119.2,29.8,118.4,29.8z M112.4,26.9c0.3,0,0.9-0.1,1.6-0.4c0.7,0.3,3,0.8,3.4,1C115.7,28,114,28,112.4,26.9z
	 M113.7,28.2c-0.9,0.4-1.8,0.8-2.7,1.2c-1-0.3-2-0.7-2.9-1c0.8-0.8,1.8-0.9,2.9-1.3C112,27.3,112.9,27.9,113.7,28.2z M107.8,27.7
	c-1,0.4-2.1-0.3-3-0.4c0-0.1,0.1-0.3,0.1-0.4c1.4-0.4,2.9-1.3,4.3-0.7c0.3,0.1,0.8,0.3,1,0.4C109.5,27.1,108.7,27.5,107.8,27.7z
	 M106.4,28.4c-0.9,0.8-2,1.4-3,2.2c-0.9-0.3-2-0.7-2.9-1c1-0.7,2.1-1.4,3.1-2.1C104.6,27.6,105.5,28,106.4,28.4z M102.3,27.5
	c-0.9,0.7-2,1.3-2.9,2c-0.8-0.3-1.7-0.4-2.5-0.5c1.2-0.8,2.4-1.7,3.5-2.4C101.1,26.7,102.5,26.7,102.3,27.5z M96.4,28.2
	c-0.7,0.5-1.6,0-2.2-0.1c1.2-0.9,2.4-1.6,3.5-2.4c0.5,0.1,1,0.1,1.7,0.3C98.7,27.2,97.5,27.6,96.4,28.2z M95.4,29
	c-0.9,1.2-2.1,2.2-3.1,3.3c-0.8-0.1-1.6-0.1-2.4-0.3c1.2-1,2.2-2.4,3.4-3.3C94.1,28.9,94.7,29,95.4,29z M92.1,29c-0.9,1-2.1,2-3,3
	c-0.7,0-1.2,0-1.8-0.1c1-1,2.1-2.1,3.1-3C90.8,28.4,92.3,28.1,92.1,29z M88.7,32.6c-0.9,1.4-1.7,2.7-2.6,4.2c-0.7,0-1.3,0-2-0.1
	c0.8-1.4,1.8-2.7,2.6-4.2C87.4,32.4,88.1,32.4,88.7,32.6z M83.4,36.5c-0.4,0-1,0-1.4,0.1c0.9-1.2,1.8-2.5,2.6-3.8l0,0l0,0
	c0.5-0.3,1-0.5,1.6-0.4C85.2,33.7,84.4,35.2,83.4,36.5z M83,37.3c-0.7,1.6-1.3,3.1-1.8,4.7c-0.5,0-1,0-1.6,0
	c0.8-1.6,1.4-3.3,2.1-4.8C81.9,37.1,82.7,37.1,83,37.3z M80,48.7c0,1.8-0.3,3.8,0,5.6c-0.5,0-1.2,0-1.7,0c0-1.8,0.1-3.7,0-5.6
	C78.8,48.7,79.3,48.7,80,48.7z M78.6,61.1c-0.3,0-0.7,0-0.9,0c-0.3-2-0.8-3.9-0.8-5.9h0.7C78,57,78.3,59.1,78.6,61.1z M78.8,61.7
	c0.5,2.1,1.2,4.2,2,6.1c-0.3,0-0.8,0-1.2,0c-0.3-2.1-1.3-4.1-1.7-6.1C78.1,61.7,78.5,61.7,78.8,61.7z M79.4,61.7
	c0.4,0,1,0.1,1.4,0.1c0.8,2,1.3,4.1,2,6.1c-0.5,0-1,0-1.6-0.1C80.9,65.8,79.8,63.8,79.4,61.7z M83.2,68.9c0.9,2,1.7,4.1,2.6,6
	c-0.4,0-1,0-1.4,0c-0.9-2.2-1.8-4.3-2.9-6.4C82,68.7,83,68.3,83.2,68.9z M86.2,75.6c1.2,2.1,2.4,4.2,3.5,6.3c-0.7,0-1.3-0.1-1.6-0.8
	c-1-2-2.2-3.8-3.4-5.8C85.3,75.6,85.7,75.6,86.2,75.6z M90.3,82.7c1,2.2,3,4.1,3.8,6.3c-0.5-0.3-1.2-0.5-1.4-1.2
	c-1.2-1.8-2.5-3.5-3.7-5.4C89.4,82.5,90,82.7,90.3,82.7z M90.9,82.8c0.7,0.1,1.7-0.1,2,0.7c1.2,1.8,2.4,3.7,3.5,5.6
	C96,89.1,95.3,89,95,89C93.7,86.9,92.3,84.9,90.9,82.8z M97.2,90.1c1.3,2,2.6,3.8,4.1,5.6c-0.4,0-0.8-0.1-1.2-0.1
	c-1.3-2.1-3-3.8-4.2-5.9C96.2,89.7,96.8,90,97.2,90.1z M103.6,98.8c0.8,1.2,2.1,2.2,2.6,3.7c-1-0.4-1.6-1.3-2.2-2.1
	c-1-1.3-2.2-2.5-3.1-3.9C102.3,96.4,102.9,97.9,103.6,98.8z M105.9,100.5c-0.9-1.2-2.1-2.4-2.9-3.7c0.4,0,1,0,1.3,0
	c1.2,2,3,3.7,4.1,5.8C107.2,102.7,106.6,101.4,105.9,100.5z M105.3,97.2c0.7,0.1,1.3,0.1,2,0.3c1.2,1.8,2.6,3.5,3.8,5.5
	c-0.4-0.1-1.2-0.3-1.6-0.3C108.1,100.9,106.6,99.2,105.3,97.2z M111.9,103.7c1,1.7,2.6,3.1,3.7,4.8c-0.3,0-0.8-0.1-1.2-0.1
	c-1.3-1.7-2.9-3.3-4.1-5C110.7,103.6,111.2,103.6,111.9,103.7z M112.7,104c0.7,0.1,1.2,0.1,1.8,0.3c1.2,1.6,2.4,3.1,3.5,4.7
	c-0.5-0.1-1.3,0.1-1.7-0.5C115,107,113.8,105.4,112.7,104z M115.4,104.3c0.8,0.1,1.4,0.3,2.2,0.4c0.9,1.7,2.1,3.1,3,4.8
	c-0.5,0-1.2-0.1-1.7-0.1C117.8,107.7,116.5,106,115.4,104.3z M121.2,110.2c1.2,1.3,2,2.9,3,4.3c-0.3,0-0.9-0.1-1.3-0.3
	c-1.2-1.4-2.2-2.9-3.3-4.3C120,110,120.8,110.2,121.2,110.2z M122.1,110.3c0.7,0.1,1.4,0,2.1,0.4c0.8,1.3,1.6,2.6,2.4,4.1
	c-0.4,0-1-0.1-1.4-0.1C123.9,113.3,123,111.7,122.1,110.3z M124.8,110.8c0.7,0.1,1.4,0.1,2.1,0.4c0.8,1.2,1.4,2.6,2.1,3.9
	c-0.7-0.3-1.6,0.1-2-0.5C126.3,113.3,125.5,112,124.8,110.8z M127.8,111.2c0.8,0.1,1.4,0.3,2.2,0.3c0.5,1.3,1.2,2.5,1.6,3.9
	c-0.7-0.1-1.3-0.1-1.8-0.3C129,113.8,128.4,112.5,127.8,111.2z M131.9,116.2c0.5,1.2,0.9,2.2,1.3,3.4c-2,0-2.1-2.4-3.1-3.7
	C130.7,115.9,131.4,116,131.9,116.2z M134.8,123.2c-1.4-0.4-1.6-2.1-2.4-3.3C134.3,119.8,134.3,122.1,134.8,123.2z M134.4,120.2
	c0.5,0.1,0.9,0.3,1.4,0.3c0.3,1,0.8,2.1,0.3,3C135.2,122.6,134.8,121.4,134.4,120.2z M136.2,119.8c-0.3-1-0.7-2.2-0.9-3.3
	c0.7,0,1.3,0.1,2,0.1c0.1,1,0.3,2.1,0.5,3.1C137.1,119.7,136.6,119.7,136.2,119.8z M137.8,120.4l0.1,0.9c0.1,0.7,0.1,1.3,0.3,2
	c-0.3,0-0.7,0-0.9,0c-0.4-0.9-0.7-2-0.9-2.9C136.7,120.5,137.5,120.5,137.8,120.4z M139.9,116c-0.8,0-1.4,0-2.2,0
	c-0.1-1.2-0.4-2.5-0.5-3.7c0.9,0.1,1.7,0.1,2.6,0.3C139.9,113.8,139.9,115,139.9,116z M139.7,111.9c-0.9,0-1.8-0.1-2.7-0.3
	c-0.1-1.2-0.3-2.4-0.4-3.7h0.3l0,0c0.9,0,2.1,0,3,0C139.7,109.2,139.7,110.5,139.7,111.9z M135.8,102.2c-0.3-1.6-0.5-3.1-0.5-4.7
	c1.4,0.1,3,0.3,4.4,0.5c0,1.4,0,2.9,0,4.3C138.4,102.3,137.1,102.3,135.8,102.2z M135,96.8c0-1.6-0.3-3.3-0.5-4.8
	c1.7,0.1,3.4,0.4,5.1,0.5c0,1.6,0,3.1,0,4.7C138.2,97.2,136.6,96.9,135,96.8z M139.7,91.8c-1.8,0-3.5-0.4-5.2-0.7
	c-0.1-1.7-0.3-3.3-0.4-5c2,0.3,3.8,0.4,5.6,0.8C139.7,88.6,139.7,90.1,139.7,91.8z M133.9,85.4c0-1.7-0.1-3.4-0.3-5.1
	c2,0.1,3.9,0.7,6,0.9c0,1.7,0,3.3,0,5C137.8,86,135.8,85.7,133.9,85.4z M135.6,40l0.5-1c1,0.4,2.2,0.7,3.3,0.9
	c0,0.3,0.1,0.8,0.3,1.2C138.2,40.9,136.9,40.5,135.6,40z M139.6,39.2c-1-0.3-2.5-0.3-3-1.3C137.5,38.3,139.2,38.1,139.6,39.2z
	 M136.5,37.9c-0.3,0-0.8,0.1-1,0.1c-0.9-0.5-1.8-1.2-2.6-2c0.5,0.1,1.2,0.1,1.8,0.3C135.2,36.9,135.8,37.4,136.5,37.9z M134.4,35.3
	c-0.9,0-1.6-0.5-2.1-1.2C133.2,34.3,133.9,34.8,134.4,35.3z M133.2,36c-1.4,0.1-2.7-0.9-3.5-2C131.1,33.9,132.4,34.8,133.2,36z
	 M129,32.8l0.8,0.9c-1.4,0-2.6-0.9-3.7-1.7C127.2,31.8,128.4,31.9,129,32.8z M126.9,31.3c-1,0-2.5-0.3-3.4-1c0-0.1-0.1-0.4-0.1-0.4
	C124.8,29.9,126,30.3,126.9,31.3z M121.2,29L121.2,29c-0.3-0.3-0.7-0.7-0.9-0.8c1.3,0,2.6,0.3,3.7,1.2C123,29.3,122.1,29.4,121.2,29
	z M120.8,27.9c-1.2-0.1-2.4-0.3-3.3-0.9C118.6,27.1,120.4,26.5,120.8,27.9z M115.9,25.8c0.3,0,0.7,0.1,0.9,0.1
	c0.7,0,1.2,0.1,1.8,0.3c-0.8,0.4-2,0.5-4.6,0.4c0.5-0.3,1.2-0.7,1.4-0.9L115.9,25.8z M112.9,24.8c0.7,0.3,1.3,0.5,2,0.7
	c-1.4,0.1-3.8,1-4.8,0.5l-0.4-0.4C110,25.6,112.3,25,112.9,24.8z M111.2,24.3c0.1,0,0.4,0,0.5,0h0.1c-1.4,0.3-3.8,0.9-5,0.3
	C108.3,24.5,109.8,24.2,111.2,24.3z M109,23.9c-0.8,0.1-1.6,0.3-2.4,0.4c-0.7,0-1.3,0-2-0.3C106,23.3,107.7,23.3,109,23.9z
	 M106.5,25.1c0,0.1,0.1,0.4,0.1,0.5c-0.4,0.1-0.9,0.3-1.3,0.5c-0.7,0.3-1.2,0.4-1.8,0.7c-0.7-0.3-1.3-0.4-2-0.7
	C103.1,25.5,104.8,24.7,106.5,25.1z M104.2,24.3c-1.3,0.9-3,1.3-4.6,1.4c0-0.1-0.1-0.4-0.3-0.5C100.9,24.8,102.5,23.9,104.2,24.3z
	 M99.4,23.3l-0.7,0.5h-1.2C98.1,23.7,98.8,23.4,99.4,23.3z M98.9,24.5c0.8-0.5,2-0.7,2.9-0.5c-1.6,0.4-3.3,1.6-5,1.2
	C97.4,24.8,98.4,24.6,98.9,24.5z M96.7,25.6c-1,1-2.4,1.8-3.7,2.5c-0.3,0-0.9,0-1.2,0c0.9-0.9,2.1-1.4,3-2.1
	C95.4,25.6,96,25.5,96.7,25.6z M92.5,26.2c0.1-0.1,0.5-0.3,0.7-0.4c0.5-0.3,1-0.4,1.6-0.5c-1.4,1-2.9,2.5-4.7,2.6
	C90.7,27.2,91.6,26.7,92.5,26.2z M90,28.4c-1.3,1.2-2.4,2.7-4.1,3.7c-0.4,0-0.4-0.1-0.4-0.4C86.8,30.6,88.3,28.1,90,28.4z
	 M87.9,28.4c-0.5,0.8-1.4,1.8-2.2,2.4c-0.8,1-1.3,1.2-2,1C85.2,30.9,86.6,28.9,87.9,28.4z M81.4,35.3c0.8-1,1.3-2.2,2.4-3.1
	c0.1,0.1,0.3,0.1,0.3,0.3c-0.8,1.4-2.2,3.4-3.3,4.4C80.6,36.4,81.1,35.8,81.4,35.3z M80.1,37.5c0.3,0,0.7-0.1,0.8-0.1
	c-0.8,1.7-1.2,3.5-2.5,5l-0.1-0.5C78.8,40.4,79.4,39,80.1,37.5z M77.5,44.9c0.3-0.5,0.3-2.4,1-1.6c0,0.4,0,0.8-0.1,1.2
	c-0.3,1.2-0.7,2.9-0.9,4.1C76.3,47.7,77.5,46,77.5,44.9z M76.8,48.8c0.3,0,0.7,0.1,0.9,0.1c-0.1,1.7,0,3.5-0.1,5.2
	c-0.1,0.1-0.4,0.5-0.5,0.8C76.4,52.8,76.9,50.8,76.8,48.8z M76.2,59.8c0-0.4-0.1-2.2-0.1-2.6l0,0l0,0l0,0c0-0.5-0.3-1.2-0.4-1.7
	c0.3,0,0.7-0.1,0.9-0.1L76.2,56c0.3,1.7,0.7,3.5,0.8,5.2c-0.3-0.1-0.5-0.1-0.8-0.3C76.3,61,76.2,60.6,76.2,59.8z M76.6,62
	c0.1,0,0.4,0,0.7,0c0.4,1.4,1,2.7,1.3,4.3C77.7,65.8,77.5,63.3,76.6,62z M80.6,71.6L80.6,71.6c-0.5-0.9-1-1.8-1.6-2.7
	c0.7,0,1.3-0.1,2-0.1c0.9,2.2,2.1,4.3,2.9,6.5C83.4,74.8,81,72.2,80.6,71.6z M86.2,81.1c-1-1.8-1.8-3.8-2.7-5.8
	c0.3,0.1,0.8,0.3,1,0.3c0.7,2.2,2.2,3.9,3.3,6c-0.5,0-0.8,0-1.3,0L86.2,81.1z M91.2,87.5c-1-1.4-2.1-2.9-3.3-4.3l-1-1
	c0.7,0.3,1.4,0.1,1.7,0.8c1.3,2,2.7,3.8,3.9,5.8C92,88.4,91.5,88,91.2,87.5z M96.6,94.7c0,0-0.1-0.3-0.3-0.3l-0.4-0.5
	c-1-1.8-2.4-2.9-3.4-4.8c0.1,0.1,0.5,0.3,0.7,0.3c1,1.7,2.5,3.3,3.7,4.8c0.1,0.4,0.3,0.8,0.4,1.2C97.1,95.2,96.8,94.8,96.6,94.7z
	 M96.8,93.3c-0.9-1.3-2.2-2.5-3-4.1c1,0.3,1.6,1.2,2.2,2c1,1.4,2.4,2.9,3.3,4.4C98.1,95.4,97.6,94.2,96.8,93.3z M103.2,101
	c-0.4-0.5-0.7-0.9-1-1.4c-0.4-0.5-0.9-0.9-1.4-1.3l-0.1-0.1c-0.4-0.7-0.8-1.3-1.3-1.8c0.1,0,0.3-0.1,0.4-0.3c1.6,2,3.4,3.8,4.8,5.9
	c-0.3-0.1-0.8-0.4-1-0.5L103.2,101z M103.9,102.6c0.5,0,1,0,1.6,0c0.5,0.7,1,1.2,1.6,1.8C106,103.7,104.9,103.2,103.9,102.6z
	 M111.1,107.9c-0.8,0-1.2-0.9-1.3-1.6l-0.1,0.4c-1-1.3-2.5-2.4-3.1-3.9c1.2,0.3,1.6,1.4,2.4,2.2c0.3,0.4,0.9,0.8,0.9,1.4h0.1
	C110.6,106.6,111.2,107.3,111.1,107.9z M108,103.1c1.7-0.1,2.2,1.6,3.3,2.6c0.7,0.9,1.8,1.7,2,2.9
	C111.1,107.1,109.8,104.9,108,103.1z M116.1,113.4c-0.1-0.1-0.5-0.4-0.8-0.5c0-0.1,0-0.5,0-0.7c0.5,0.1,0.9,0.4,1,0.9
	C116.3,113.2,116.2,113.3,116.1,113.4z M117.4,113.4c-1.3-1.6-2.6-3-4.1-4.3c0.3,0,0.7,0,0.9,0c1.3,1.6,2.6,3,3.9,4.6
	C118,113.6,117.6,113.6,117.4,113.4z M116.7,111.1c-0.4-0.7-1.3-1.2-1.3-2c0.7,0.4,1.3,0.9,1.7,1.6c0.9,1.2,2,2.2,2.7,3.4
	C118.4,113.6,117.8,112.1,116.7,111.1z M119.6,112.5c-0.8-1-1.6-2-2.4-2.9c0.7,0,1.4,0,1.8,0.7c0.9,1.3,2,2.5,2.9,3.9
	C120.8,114.2,120.3,113.3,119.6,112.5z M124.4,118.1c-0.7-0.7-1.2-1.4-1.8-2.1c-0.4-0.4-0.7-0.7-1-1c0.3,0,0.8,0.1,1,0.1
	c1,1.2,2.2,2.4,2.9,3.9C125.2,118.7,124.7,118.3,124.4,118.1z M125.9,118c-0.8-1-1.7-2-2.4-3c0.3,0,0.9,0.1,1.2,0.3
	c1,1.2,1.8,2.5,2.7,3.8C126.7,119.1,126.1,118.5,125.9,118z M125.5,115.3c0.4,0.1,1,0.3,1.4,0.3c0.8,1.2,1.4,2.4,2.4,3.5
	c-0.3,0-0.7,0-0.9,0C127.3,117.9,126.4,116.6,125.5,115.3z M130.9,122.6l-0.9-0.9c-0.4-0.5-0.7-1.4-1-2c0.3,0,0.7,0.1,0.9,0.1
	c0.7,1.2,1.6,2.1,1.8,3.4C131.4,123.1,131,122.7,130.9,122.6z M130.6,120.2c0-0.3,0-0.7,0-0.9c-1.4-0.5-1.8-2.5-2.7-3.7
	c1.8-0.4,2.1,1.4,2.9,2.5c0.4,0.5,0.5,1.2,0.7,2c1.2,0.5,1.3,2.1,2,3C131.9,122.8,131.6,121.1,130.6,120.2z M135.3,127.4
	c-0.4-0.9-0.7-1-0.8-1.6c-0.4-0.5-0.8-1-1.2-1.7c0-0.1,0.1-0.5,0.1-0.8c0.4,0.7,0.8,1.3,1.2,2c0.1,0.1,0.3,0.5,0.4,0.7
	c0.1,0.4,0.3,0.5,0.5,0.9c0.4,0.7,1.3,2.5,1.7,2.9C136.7,129.4,136.2,128.5,135.3,127.4z M137,126.3c-0.3-0.3-0.5-0.5-0.8-0.8
	c0,0.3-0.1,0.9-0.3,1.2c-0.4-0.7-0.8-1.4-1.3-2.1c0-0.3,0-0.8-0.1-0.9c0.7,0.7,1,1.4,1.3,2.2c0.1-0.3,0.4-0.5,0.5-0.8
	c-0.1-0.3-0.5-0.8-0.7-1c0.3,0,0.7,0.1,0.9,0.1c0.1,0.7,0.4,1.2,0.5,1.8c0,0.1,0.1,0.5,0.1,0.7C137.4,126.4,137.1,126.3,137,126.3z
	 M138.7,124.7c-0.1,0.7-0.3,1.3-0.3,2c-0.3-0.4-0.4-0.8-0.7-1.3c-0.1-0.5-0.3-1-0.3-1.4c0.3,0,0.9,0.1,1.2,0.1c0.4,0,1,0,1.3,0
	c0,0.9,0,1.8-0.1,2.7C139.4,126.1,139.5,124.9,138.7,124.7z M140,129c-0.4-0.7-0.5-1.4-0.5-2.2C140.3,127.2,139.9,128.3,140,129z
	 M140.1,40c1.2-0.4,2.2-0.7,3.5-0.9c0,0.4,0,0.8-0.1,1c-1.2,0.3-2.2,0.7-3.4,0.9C140.1,40.8,140.1,40.3,140.1,40z M144.2,40.7
	c0.1,0.5,0.1,1.2,0.1,1.7c-1.4,0.4-2.9,0.8-4.3,1c0-0.4,0-1.3,0-1.7C141.4,41.5,142.8,40.9,144.2,40.7z M144.7,43
	c0.1,0.8,0.4,1.6,0.5,2.4c-1.7,0.4-3.4,0.9-5.1,1.3c0-0.8,0-1.6,0-2.4C141.6,43.8,143.2,43.4,144.7,43z M145.8,49.6
	c0.1,1.2,0.1,2.2,0.1,3.4c-2,0.4-3.9,0.9-5.9,1.3c0-1.2,0-2.2,0-3.4C142,50.4,143.9,50,145.8,49.6z M146.3,58.3
	c0.1,1.4,0.3,2.9,0.3,4.3c-2.2,0.3-4.3,1-6.4,1.2c0-1.3,0-2.7,0-4.1C142.1,59.1,144.3,58.7,146.3,58.3z M140.4,64.5
	c2.1-0.3,4.2-0.8,6.3-1c0,1.6,0,3,0,4.6c-2.1,0.5-4.3,1-6.5,1.2C140.3,67.6,140,66.1,140.4,64.5z M140.1,70c2.1-0.4,4.3-0.8,6.4-1.2
	c0,1.7,0,3.3,0,4.8c-2.1,0.4-4.3,0.9-6.4,0.9C140.1,73.1,140.1,71.6,140.1,70z M140.1,75.5c2.1-0.3,4.2-0.7,6.3-1
	c-0.1,1.7-0.1,3.4-0.1,5.1c-2,0.4-4.1,0.7-6,0.9C140.3,78.8,140.1,77.2,140.1,75.5z M146.3,80.3c-0.1,1.7-0.4,3.4-0.4,5.1
	c-1.8,0.3-3.7,0.5-5.5,0.8c-0.1-1.7-0.1-3.3-0.1-5C142.2,80.8,144.3,80.5,146.3,80.3z M140.3,87c1.8-0.4,3.8-0.5,5.6-0.8
	c-0.1,1.7-0.3,3.3-0.4,5c-1.7,0.1-3.4,0.7-5.2,0.7C140.3,90.1,140.4,88.6,140.3,87z M140.4,92.5c1.7-0.1,3.4-0.4,5.1-0.5
	c-0.3,1.6-0.4,3.3-0.4,4.8c-1.6,0.1-3.1,0.4-4.7,0.4C140.4,95.6,140.4,94.1,140.4,92.5z M140.4,98c1.4-0.3,3-0.4,4.4-0.5
	c-0.1,1.6-0.3,3.1-0.7,4.6c-1.3,0.3-2.6,0.3-3.8,0.3C140.4,100.9,140.4,99.4,140.4,98z M143.7,107.8c-0.1,1.3-0.3,2.6-0.4,3.9
	c-0.9,0.1-1.8,0.1-2.7,0.3c0-1.3,0-2.6,0-3.8C141.6,107.9,142.6,107.9,143.7,107.8z M143.2,112.4c-0.1,1.2-0.4,2.4-0.5,3.7
	c-0.7,0-1.4,0-2.1,0c0-1,0-2.2-0.1-3.3C141.3,112.5,142.2,112.4,143.2,112.4z M140.7,128.9c-0.1-0.5-0.1-1,0-1.6
	c0.1,0,0.4-0.1,0.5-0.3c0,0.1,0,0.4,0,0.5C141.1,128,140.8,128.5,140.7,128.9z M142,128c-0.1-0.3-0.3-0.8-0.4-1
	c0.3-0.9,0.4-1.7,0.4-2.6c-0.3,0.1-0.7,0.3-0.8,0.4c0,0.7-0.1,1.4-0.5,2c-0.1-0.9-0.3-1.8-0.3-2.7c0.9,0.1,1.8,0.3,2.6,0
	c-0.3,0.8-0.7,1.6-0.9,2.4C142.1,126.9,142.1,127.4,142,128z M144.1,126.1c-0.3,0-0.8-0.1-1-0.1c0.4-0.8,0.3-2.2,1.4-2.4
	c-0.1,0.5-0.4,1.2-0.7,1.7c0.1,0.1,0.4,0.4,0.5,0.5c0.3-0.9,0.7-1.7,1.2-2.5c0.1,0.1,0.3,0.3,0.3,0.4c-0.4,0.8-0.8,1.6-1.2,2.2
	C144.6,126.1,144.3,126.1,144.1,126.1z M148.1,124.6c-0.4,0.4-0.7,0.9-1,1.3c-0.5,0-1.2,0.1-1.7,0.1c0.4-0.5,0.7-1.2,1-1.7
	c0.3-0.4,0.5-0.7,0.9-1c0,0.9-1.6,1.8-0.5,2.6c0.7-0.9,1-2.1,2-2.7C148.6,123.6,148.4,124.2,148.1,124.6z M150.7,122.7
	c-0.3-0.4-0.4-0.8-0.7-1c-0.3,0.7-0.5,1.2-1.2,1.4c0.4-1.2,1.2-2.2,1.8-3.3l0.9-0.1c-0.5,0.7-1,1.3-1.6,2c0.3,0,0.7,0,0.9,0
	c0.7-0.8,1-2.1,2.4-2.2C152.6,120.5,151.5,121.7,150.7,122.7z M153.2,119.1c0.5-1.6,1.7-2.7,2.6-3.9c0.3,0,0.9-0.1,1.2-0.1
	C155.7,116.3,154.8,118.1,153.2,119.1z M156.5,118.7c0.5-1,1.4-1.8,2.1-2.7c0.3-0.3,0.3-0.7,0.1-0.9c-1.3,1.3-2.2,2.9-3.8,3.9
	c0.5-1.2,1.4-2.1,2.2-3c0.4-0.4,0.8-1.2,1.4-1c0.3-2.1,2.2-3.3,3.1-5.1c0.4,0,1.2-0.1,1.6-0.1c-1.4,1.4-2.6,3.4-4.2,4.7
	c-0.4,0.9,1,0.3,1.3,0.3C159.1,116,157.9,117.6,156.5,118.7z M162.8,112.1c-0.7,0.8-1.2,1.7-2.4,1.7c1.2-1.4,2.4-2.7,3.4-4.2
	c0.3-0.5,0.9-0.4,1.4-0.5C164.5,110.2,163.6,111.1,162.8,112.1z M164.7,111.5c0.3-0.8,0.5-1.4,0.8-2.2c0.5-0.1,1-0.4,1.6-0.5
	C166.3,109.8,165.5,110.5,164.7,111.5z M167,108.3c0.8-1.4,2-2.5,3-3.8c0.7-0.8,1.2-1.8,2.2-1.6c-1,1.3-2.1,2.6-3.3,3.8
	C168.4,107.4,167.9,108.2,167,108.3z M169.6,107.8c-0.1,0-0.3,0-0.4,0.1l-0.3,0.1c0.9-1.7,2.5-2.9,3.5-4.4c0.4-0.7,0.9-0.8,1.6-1
	C173.5,103.4,170.5,106.8,169.6,107.8z M175.3,103.1c-1.6,1.6-2.4,2.2-3.8,3.5l-0.1,0.1c-0.1,0.1-0.5,0.5-0.8,0.8
	c-0.3,0-0.4,0.1-0.7,0.1c1.3-1.2,4.1-4.2,5-5.2c0.4,0,0.9-0.1,1.4-0.1C176.4,102.3,175.5,103,175.3,103.1z M179,98.3
	c-1,0.9-3.3,2.9-4.2,3.8c-0.3,0-0.7,0-0.9,0c1.4-1.8,3.3-4.2,4.8-5.9c0.4,0.1,0.8,0,1.3,0l1.6-0.1c0.5-0.1,0.8-0.3,1.3-0.5
	c-0.4,0.5-2,1.2-2.5,1.6L179,98.3z M183.6,94.8c-0.3,0-0.7,0.1-0.9,0.1c1.3-1.8,3-3.4,3.9-5.4c0.4-0.3,0.8-0.5,1.2-0.8
	C186.6,90.9,184.5,92.5,183.6,94.8z M191.7,83.3c-1,1.4-2.1,3-3,4.4c-0.3,0.1-0.7,0.4-0.9,0.5c1.2-2.1,2.7-4.1,4.1-6.1
	c0.4-0.7,1.3-0.3,2-0.4C193.1,82.4,192.2,82.7,191.7,83.3z M193.7,81.1c-0.4,0-0.8,0-1.2,0c1.3-2.1,2.5-4.2,3.7-6.3
	c0.1,0,0.5-0.1,0.8-0.3C196.1,77.1,194,78.8,193.7,81.1z M198.9,72.6c0,0.3,0,0.7,0,0.9c-0.3,0.1-0.9,0.5-1,0.7
	c0.3-0.4,0.4-0.8,0.7-1.2L198.9,72.6c0-0.1-0.1-0.3-0.3-0.4c0.7-1,1.6-3,2-4.3c0.1,0,0.4,0,0.5,0C200.5,69.5,199.8,71.2,198.9,72.6z
	 M201.5,67.1c-0.1,0.1-0.4,0.3-0.7,0.3c0.9-2,1.3-4.2,2.1-6.1c0.1,0,0.5,0,0.7,0.1C202.6,63.1,202.2,65.1,201.5,67.1z M203.7,60.6
	l-0.7-0.1c0.3-1.8,0.7-4.1,0.8-5.9c0.1,0,0.4,0.1,0.5,0.1C204.4,56.6,204.1,58.5,203.7,60.6z M204.6,53.8c-0.1,0-0.5,0.1-0.8,0.1
	c0.1-1.8,0-3.8,0-5.6c0.3,0,0.7,0,0.8,0.1C204,50.1,204.3,52.1,204.6,53.8z"/>
</svg>
