<?xml version="1.0" encoding="utf-8"?>
<!-- Generator: Adobe Illustrator 26.0.3, SVG Export Plug-In . SVG Version: 6.00 Build 0)  -->
<svg version="1.1" id="Слой_1" xmlns="http://www.w3.org/2000/svg" xmlns:xlink="http://www.w3.org/1999/xlink" x="0px" y="0px"
	 viewBox="0 0 239.5 150.2" style="enable-background:new 0 0 239.5 150.2;" xml:space="preserve">
<style type="text/css">
	.st0{enable-background:new    ;}
</style>
<g>
	<path d="M146.6,106.4c-0.2-0.2-0.3-0.4-0.3-0.7c0-0.3,0.1-0.5,0.3-0.7s0.4-0.3,0.7-0.3s0.5,0.1,0.7,0.3c0.2,0.2,0.3,0.4,0.3,0.7
		c0,0.3-0.1,0.5-0.3,0.7s-0.4,0.3-0.7,0.3S146.7,106.6,146.6,106.4z"/>
	<path d="M152.5,106.4c-0.2-0.2-0.3-0.4-0.3-0.7c0-0.3,0.1-0.5,0.3-0.7s0.4-0.3,0.7-0.3s0.5,0.1,0.7,0.3c0.2,0.2,0.3,0.4,0.3,0.7
		c0,0.3-0.1,0.5-0.3,0.7s-0.4,0.3-0.7,0.3S152.7,106.6,152.5,106.4z"/>
	<path d="M158.5,106.4c-0.2-0.2-0.3-0.4-0.3-0.7c0-0.3,0.1-0.5,0.3-0.7s0.4-0.3,0.7-0.3s0.5,0.1,0.7,0.3c0.2,0.2,0.3,0.4,0.3,0.7
		c0,0.3-0.1,0.5-0.3,0.7s-0.4,0.3-0.7,0.3S158.7,106.6,158.5,106.4z"/>
</g>
<g class="st0">
	<path d="M85.1,49.2v-4.1L84,49.2h-1.3l1.3-4.7l-1.2-4.3h1.3l1,3.8v-3.8h1.4V44l1-3.8h1.3l-1.2,4.2l1.3,4.8h-1.3l-1.1-4.1v4.1H85.1z
		"/>
	<path d="M90.5,42.6h0.2c1,0,1.5,0.5,1.5,1.6v1.9h-1.9v1.5c0,0.3,0.1,0.5,0.4,0.5c0.2,0,0.3-0.2,0.3-0.5v-1.1h1.2v1.1
		c0,1.1-0.5,1.6-1.5,1.6h-0.2c-0.5,0-0.8-0.1-1.1-0.4S89,48.2,89,47.7v-3.5c0-0.5,0.1-0.8,0.4-1.1C89.6,42.7,90,42.6,90.5,42.6z
		 M90.3,44.2V45H91v-0.8c0-0.3-0.1-0.5-0.4-0.5c-0.1,0-0.2,0-0.2,0.1c-0.1,0-0.1,0.1-0.1,0.2S90.3,44.1,90.3,44.2z"/>
	<path d="M92.9,47.4c0-0.4,0.1-2,0.1-4.7h3v6.5h-1.3v-5.3h-0.6c0,2,0,3.3-0.1,4c0,0.5-0.2,0.9-0.3,1c-0.2,0.2-0.5,0.3-0.9,0.3h-0.5
		V48h0.1c0.1,0,0.2,0,0.3-0.1C92.8,47.8,92.9,47.6,92.9,47.4z"/>
	<path d="M96.4,48.2v-1.5c0-0.3,0-0.6,0.1-0.8s0.2-0.4,0.5-0.5c0.1-0.1,0.2-0.1,0.4-0.2c0.2-0.1,0.3-0.2,0.5-0.2
		c0.2-0.1,0.3-0.1,0.3-0.1c0.1,0,0.1-0.1,0.1-0.1s0-0.1,0-0.2v-0.4c0-0.2,0-0.3-0.1-0.3s-0.1-0.1-0.2-0.1l0,0c-0.1,0-0.2,0-0.3,0.1
		s-0.1,0.2-0.1,0.3v0.7h-1.2V44c0-0.8,0.5-1.2,1.4-1.2H98c0.6,0,1,0.1,1.2,0.3s0.3,0.5,0.3,0.9v3.9c0,0.1,0,0.1,0,0.2
		c0,0,0.1,0,0.2,0h0.2v1.2h-1.2c-0.3,0-0.4-0.2-0.4-0.7c-0.3,0.5-0.6,0.8-1.1,0.8l0,0c-0.2,0-0.4-0.1-0.6-0.3
		C96.5,48.7,96.4,48.5,96.4,48.2z M98.3,47.6v-1.7c-0.2,0.1-0.4,0.2-0.5,0.3s-0.2,0.3-0.2,0.5v0.9c0,0.3,0.1,0.4,0.3,0.4
		C98.2,48.1,98.3,47.9,98.3,47.6z"/>
	<path d="M101.5,49.2h-1.3v-6.5h1.3v2.6h0.7v-2.6h1.3v6.5h-1.3v-2.6h-0.7V49.2z"/>
	<path d="M107.4,49.2h-1.2v-3.6l-0.9,3.6h-1.4v-6.5h1.2v3.8l0.9-3.8h1.4V49.2z"/>
	<path d="M109.3,42.6h0.2c1,0,1.5,0.5,1.5,1.6v1.9h-1.9v1.5c0,0.3,0.1,0.5,0.4,0.5c0.2,0,0.3-0.2,0.3-0.5v-1.1h1.2v1.1
		c0,1.1-0.5,1.6-1.5,1.6h-0.2c-0.5,0-0.8-0.1-1.1-0.4s-0.4-0.7-0.4-1.2v-3.5c0-0.5,0.1-0.8,0.4-1.1
		C108.4,42.7,108.8,42.6,109.3,42.6z M109.1,44.2V45h0.7v-0.8c0-0.3-0.1-0.5-0.4-0.5c-0.1,0-0.2,0-0.2,0.1c-0.1,0-0.1,0.1-0.1,0.2
		S109.1,44.1,109.1,44.2z"/>
	<path d="M112.6,48.2v-1.5c0-0.3,0-0.6,0.1-0.8s0.2-0.4,0.5-0.5c0.1-0.1,0.2-0.1,0.4-0.2c0.2-0.1,0.3-0.2,0.5-0.2
		c0.2-0.1,0.3-0.1,0.3-0.1c0.1,0,0.1-0.1,0.1-0.1s0-0.1,0-0.2v-0.4c0-0.2,0-0.3-0.1-0.3s-0.1-0.1-0.2-0.1l0,0c-0.1,0-0.2,0-0.3,0.1
		s-0.1,0.2-0.1,0.3v0.7h-1.2V44c0-0.8,0.5-1.2,1.4-1.2h0.2c0.6,0,1,0.1,1.2,0.3s0.3,0.5,0.3,0.9v3.9c0,0.1,0,0.1,0,0.2
		c0,0,0.1,0,0.2,0h0.2v1.2h-1.2c-0.3,0-0.4-0.2-0.4-0.7c-0.3,0.5-0.6,0.8-1.1,0.8l0,0c-0.2,0-0.4-0.1-0.6-0.3
		C112.7,48.7,112.6,48.5,112.6,48.2z M114.5,47.6v-1.7c-0.2,0.1-0.4,0.2-0.5,0.3s-0.2,0.3-0.2,0.5v0.9c0,0.3,0.1,0.4,0.3,0.4
		C114.4,48.1,114.5,47.9,114.5,47.6z"/>
	<path d="M119.5,46.8v0.8c0,1.1-0.5,1.7-1.5,1.7h-0.3c-0.5,0-0.9-0.2-1.1-0.5s-0.4-0.7-0.4-1.1v-1.1h1.2v0.9c0,0.3,0.1,0.5,0.4,0.5
		c0.2,0,0.3-0.2,0.3-0.5v-0.9c0-0.3-0.1-0.4-0.4-0.4h-0.6V45h0.6c0.1,0,0.2,0,0.2-0.1s0.1-0.2,0.1-0.4v-0.3c0-0.2,0-0.3-0.1-0.4
		s-0.1-0.1-0.2-0.1c-0.2,0-0.3,0.2-0.3,0.5v0.5h-1.2v-0.6c0-0.5,0.1-0.9,0.3-1.2c0.2-0.3,0.6-0.4,1.1-0.4h0.2c0.6,0,1,0.1,1.2,0.4
		c0.2,0.3,0.3,0.7,0.3,1.2v0.4c0,0.3-0.1,0.6-0.2,0.7s-0.3,0.3-0.5,0.3c0.2,0.1,0.4,0.2,0.5,0.3S119.5,46.4,119.5,46.8z"/>
	<path d="M119.9,48.2v-1.5c0-0.3,0-0.6,0.1-0.8s0.2-0.4,0.5-0.5c0.1-0.1,0.2-0.1,0.4-0.2c0.2-0.1,0.3-0.2,0.5-0.2
		c0.2-0.1,0.3-0.1,0.3-0.1c0.1,0,0.1-0.1,0.1-0.1s0-0.1,0-0.2v-0.4c0-0.2,0-0.3-0.1-0.3c0-0.1-0.1-0.1-0.2-0.1l0,0
		c-0.1,0-0.2,0-0.3,0.1s-0.1,0.2-0.1,0.3v0.7h-1.2V44c0-0.8,0.5-1.2,1.4-1.2h0.2c0.6,0,1,0.1,1.2,0.3s0.3,0.5,0.3,0.9v3.9
		c0,0.1,0,0.1,0,0.2c0,0,0.1,0,0.2,0h0.2v1.2h-1.2c-0.3,0-0.4-0.2-0.4-0.7c-0.3,0.5-0.6,0.8-1.1,0.8l0,0c-0.2,0-0.4-0.1-0.6-0.3
		C119.9,48.7,119.9,48.5,119.9,48.2z M121.8,47.6v-1.7c-0.2,0.1-0.4,0.2-0.5,0.3s-0.2,0.3-0.2,0.5v0.9c0,0.3,0.1,0.4,0.3,0.4
		C121.7,48.1,121.8,47.9,121.8,47.6z"/>
	<path d="M123.6,42.7h1.3v0.7c0.3-0.5,0.7-0.7,1.1-0.7l0,0c0.3,0,0.6,0.1,0.7,0.3c0.2,0.2,0.2,0.5,0.2,0.9V48c0,0.4-0.1,0.7-0.3,0.9
		s-0.4,0.3-0.7,0.3l0,0c-0.3,0-0.7-0.2-1-0.6v2.8h-1.3C123.6,51.4,123.6,42.7,123.6,42.7z M124.9,44.3v3.4c0,0.2,0,0.3,0.1,0.4
		c0.1,0.1,0.2,0.1,0.3,0.1c0.2,0,0.3-0.2,0.3-0.5v-3.4c0-0.3-0.1-0.5-0.3-0.5C125,43.8,124.9,44,124.9,44.3z"/>
	<path d="M128.1,49.2v-5.3h-0.9v-1.2h3.1v1.2h-0.9v5.3H128.1z"/>
	<path d="M131.9,49.2h-1.3v-6.5h1.3v2.6h0.8v-2.6h1.3v6.5h-1.3v-2.6h-0.8V49.2z"/>
	<path d="M134.3,47.6v-3.4c0-0.5,0.1-1,0.4-1.2c0.3-0.3,0.7-0.4,1.1-0.4h0.2c0.5,0,0.9,0.1,1.1,0.4c0.3,0.3,0.4,0.7,0.4,1.2v3.4
		c0,0.5-0.1,0.9-0.4,1.2c-0.3,0.3-0.7,0.5-1.1,0.5h-0.2c-0.5,0-0.9-0.2-1.2-0.5C134.5,48.5,134.3,48.1,134.3,47.6z M135.6,44.3v3.3
		c0,0.3,0.1,0.5,0.4,0.5s0.4-0.2,0.4-0.5v-3.3c0-0.3-0.1-0.5-0.4-0.5S135.6,44,135.6,44.3z"/>
	<path d="M138,49.2v-6.5h2.4v1.2h-1.1v5.3H138z"/>
	<path d="M140.7,47.6v-3.4c0-0.5,0.1-1,0.4-1.2c0.3-0.3,0.7-0.4,1.1-0.4h0.2c0.5,0,0.9,0.1,1.1,0.4s0.4,0.7,0.4,1.2v3.4
		c0,0.5-0.1,0.9-0.4,1.2c-0.3,0.3-0.7,0.5-1.1,0.5h-0.2c-0.5,0-0.9-0.2-1.2-0.5C140.8,48.5,140.7,48.1,140.7,47.6z M142,44.3v3.3
		c0,0.3,0.1,0.5,0.4,0.5c0.2,0,0.4-0.2,0.4-0.5v-3.3c0-0.3-0.1-0.5-0.4-0.5S142,44,142,44.3z"/>
	<path d="M149.1,49.2h-1.2v-3.6l-0.9,3.6h-1.4v-6.5h1.2v3.8l0.9-3.8h1.4V49.2z"/>
	<path d="M149.5,49.2v-6.5h2.4v1.2h-1.1v5.3H149.5z"/>
	<path d="M152.2,42.7h1.3v0.7c0.3-0.5,0.7-0.7,1.1-0.7l0,0c0.3,0,0.6,0.1,0.7,0.3c0.2,0.2,0.2,0.5,0.2,0.9V48c0,0.4-0.1,0.7-0.3,0.9
		s-0.4,0.3-0.7,0.3l0,0c-0.3,0-0.7-0.2-1-0.6v2.8h-1.3V42.7z M153.5,44.3v3.4c0,0.2,0,0.3,0.1,0.4c0.1,0.1,0.2,0.1,0.3,0.1
		c0.2,0,0.3-0.2,0.3-0.5v-3.4c0-0.3-0.1-0.5-0.3-0.5C153.6,43.8,153.5,44,153.5,44.3z"/>
	<path d="M155.9,47.6v-3.4c0-0.5,0.1-1,0.4-1.2c0.3-0.3,0.7-0.4,1.1-0.4h0.2c0.5,0,0.9,0.1,1.1,0.4s0.4,0.7,0.4,1.2v3.4
		c0,0.5-0.1,0.9-0.4,1.2c-0.3,0.3-0.7,0.5-1.1,0.5h-0.2c-0.5,0-0.9-0.2-1.2-0.5C156,48.5,155.9,48.1,155.9,47.6z M157.2,44.3v3.3
		c0,0.3,0.1,0.5,0.4,0.5c0.2,0,0.4-0.2,0.4-0.5v-3.3c0-0.3-0.1-0.5-0.4-0.5S157.2,44,157.2,44.3z"/>
	<path d="M162,49.2l-1-2.9v2.9h-1.3v-6.5h1.3v2.5l1-2.5h1.3l-1.2,2.9l1.3,3.6H162z"/>
	<path d="M163.4,48.2v-1.5c0-0.3,0-0.6,0.1-0.8s0.2-0.4,0.5-0.5c0.1-0.1,0.2-0.1,0.4-0.2c0.2-0.1,0.3-0.2,0.5-0.2
		c0.2-0.1,0.3-0.1,0.3-0.1c0.1,0,0.1-0.1,0.1-0.1s0-0.1,0-0.2v-0.4c0-0.2,0-0.3-0.1-0.3c0-0.1-0.1-0.1-0.2-0.1l0,0
		c-0.1,0-0.2,0-0.3,0.1s-0.1,0.2-0.1,0.3v0.7h-1.2V44c0-0.8,0.5-1.2,1.4-1.2h0.2c0.6,0,1,0.1,1.2,0.3s0.3,0.5,0.3,0.9v3.9
		c0,0.1,0,0.1,0,0.2c0,0,0.1,0,0.2,0h0.2v1.2h-1.2c-0.3,0-0.4-0.2-0.4-0.7c-0.3,0.5-0.6,0.8-1.1,0.8l0,0c-0.2,0-0.4-0.1-0.6-0.3
		C163.5,48.7,163.4,48.5,163.4,48.2z M165.3,47.6v-1.7c-0.2,0.1-0.4,0.2-0.5,0.3s-0.2,0.3-0.2,0.5v0.9c0,0.3,0.1,0.4,0.3,0.4
		C165.2,48.1,165.3,47.9,165.3,47.6z"/>
	<path d="M168.3,45.1h5.2V46h-5.2V45.1z"/>
	<path d="M177.1,46.3h1.2v1.5c0,0.4-0.1,0.8-0.4,1.1c-0.2,0.3-0.6,0.5-1.1,0.5h-0.2c-0.5,0-0.9-0.1-1.1-0.4
		c-0.3-0.3-0.4-0.7-0.4-1.1v-3.5c0-1.1,0.5-1.6,1.5-1.6h0.2c1,0,1.4,0.5,1.4,1.4v1.2H177v-0.9c0-0.2,0-0.3-0.1-0.4s-0.1-0.1-0.3-0.1
		c-0.1,0-0.2,0-0.3,0.1c0,0.1-0.1,0.2-0.1,0.4v3.3c0,0.3,0.1,0.5,0.3,0.5s0.3-0.2,0.3-0.5v-1.5H177.1z"/>
	<path d="M179.5,49.2v-5.3h-0.9v-1.2h3.1v1.2h-0.9v5.3H179.5z"/>
	<path d="M181.9,48.2v-1.5c0-0.3,0-0.6,0.1-0.8s0.2-0.4,0.5-0.5c0.1-0.1,0.2-0.1,0.4-0.2c0.2-0.1,0.3-0.2,0.5-0.2
		c0.2-0.1,0.3-0.1,0.3-0.1c0.1,0,0.1-0.1,0.1-0.1s0-0.1,0-0.2v-0.4c0-0.2,0-0.3-0.1-0.3s-0.1-0.1-0.2-0.1l0,0c-0.1,0-0.2,0-0.3,0.1
		c0,0.1-0.1,0.2-0.1,0.3v0.7H182V44c0-0.8,0.5-1.2,1.4-1.2h0.2c0.6,0,1,0.1,1.2,0.3s0.3,0.5,0.3,0.9v3.9c0,0.1,0,0.1,0,0.2
		c0,0,0.1,0,0.2,0h0.2v1.2h-1.2c-0.3,0-0.4-0.2-0.4-0.7c-0.3,0.5-0.6,0.8-1.1,0.8l0,0c-0.2,0-0.4-0.1-0.6-0.3
		C182,48.7,181.9,48.5,181.9,48.2z M183.8,47.6v-1.7c-0.2,0.1-0.4,0.2-0.5,0.3s-0.2,0.3-0.2,0.5v0.9c0,0.3,0.1,0.4,0.3,0.4
		C183.7,48.1,183.8,47.9,183.8,47.6z"/>
	<path d="M186.4,49.2v-5.3h-0.9v-1.2h3.1v1.2h-0.9v5.3H186.4z"/>
	<path d="M188.9,49.2v-6.5h1.3v2.2h0.5c0.6,0,1,0.1,1.2,0.3s0.3,0.6,0.3,1.1v1.5c0,0.5-0.1,0.9-0.3,1.1c-0.2,0.2-0.6,0.3-1.2,0.3
		C190.7,49.2,188.9,49.2,188.9,49.2z M190.2,48.1h0.3c0.2,0,0.4-0.1,0.4-0.4v-1.4c0-0.1,0-0.2-0.1-0.3s-0.2-0.1-0.3-0.1h-0.3
		L190.2,48.1L190.2,48.1z"/>
	<path d="M194.5,49l-1-6.3h1.3l0.5,4l0.5-4h1.2l-1.3,7.8c-0.1,0.3-0.1,0.6-0.3,0.7s-0.3,0.2-0.5,0.2h-1.2v-1.2h0.6
		c0.1,0,0.2,0,0.2-0.1c0,0,0.1-0.1,0.1-0.3v-0.3C194.6,49.5,194.6,49.2,194.5,49z"/>
	<path d="M199,49.2l-0.7-3.9v3.9h-1.2v-6.5h1.6l0.7,3.6l0.7-3.6h1.5v6.5h-1.3v-3.9l-0.7,3.9H199z"/>
	<path d="M203.4,49.2h-1.3v-6.5h1.3v2.6h0.8v-2.6h1.3v6.5h-1.3v-2.6h-0.8V49.2z"/>
	<path d="M207.3,42.6h0.2c1,0,1.5,0.5,1.5,1.6v1.9h-1.9v1.5c0,0.3,0.1,0.5,0.4,0.5c0.2,0,0.3-0.2,0.3-0.5v-1.1h1.2v1.1
		c0,1.1-0.5,1.6-1.5,1.6h-0.2c-0.5,0-0.8-0.1-1.1-0.4s-0.4-0.7-0.4-1.2v-3.5c0-0.5,0.1-0.8,0.4-1.1
		C206.4,42.7,206.8,42.6,207.3,42.6z M207.1,44.2V45h0.7v-0.8c0-0.3-0.1-0.5-0.4-0.5c-0.1,0-0.2,0-0.2,0.1c-0.1,0-0.1,0.1-0.1,0.2
		C207.1,44,207.1,44.1,207.1,44.2z"/>
	<path d="M210.8,42.6h0.2c1,0,1.5,0.5,1.5,1.6v1.9h-1.9v1.5c0,0.3,0.1,0.5,0.3,0.5s0.3-0.2,0.3-0.5v-1.1h1.2v1.1
		c0,1.1-0.5,1.6-1.5,1.6h-0.2c-0.5,0-0.8-0.1-1.1-0.4s-0.4-0.7-0.4-1.2v-3.5c0-0.5,0.1-0.8,0.4-1.1C210,42.7,210.3,42.6,210.8,42.6z
		 M210.6,44.2V45h0.7v-0.8c0-0.3-0.1-0.5-0.4-0.5c-0.1,0-0.2,0-0.2,0.1c-0.1,0-0.1,0.1-0.1,0.2S210.6,44.1,210.6,44.2z"/>
</g>
<g class="st0">
	<path d="M138.9,124.1v-8.6h2.6v1.3h-1.3v7.4h-1.3V124.1z"/>
	<path d="M141.8,123.2v-1.5c0-0.3,0-0.6,0.1-0.8s0.2-0.4,0.5-0.5c0.1-0.1,0.2-0.1,0.3-0.2s0.3-0.2,0.5-0.2c0.2-0.1,0.2-0.1,0.3-0.1
		s0.1-0.1,0.1-0.1s0-0.1,0-0.2v-0.4c0-0.2,0-0.3-0.1-0.3c0-0.1-0.1-0.1-0.2-0.1l0,0c-0.1,0-0.2,0-0.2,0.1s-0.1,0.2-0.1,0.3v0.7h-1.1
		V119c0-0.8,0.4-1.2,1.3-1.2h0.2c0.5,0,0.9,0.1,1.1,0.3s0.3,0.5,0.3,0.9v3.7c0,0.1,0,0.1,0,0.2c0,0,0.1,0,0.2,0h0.2v1.2H144
		c-0.3,0-0.4-0.2-0.4-0.7c-0.3,0.5-0.6,0.7-1,0.7l0,0c-0.2,0-0.4-0.1-0.6-0.3C141.9,123.7,141.8,123.4,141.8,123.2z M143.6,122.6
		V121c-0.2,0.1-0.3,0.2-0.4,0.3c-0.1,0.1-0.2,0.3-0.2,0.5v0.9c0,0.3,0.1,0.4,0.3,0.4C143.5,123,143.6,122.9,143.6,122.6z"/>
	<path d="M148.7,124.1h-1.2v-3.5l-0.8,3.5h-1.3v-6.2h1.2v3.7l0.8-3.7h1.3V124.1z M147.1,117.6L147.1,117.6c-0.4,0-0.7-0.1-0.9-0.3
		c-0.2-0.2-0.3-0.5-0.3-0.9l0,0h0.9l0,0c0,0.3,0.1,0.4,0.3,0.4l0,0c0.2,0,0.3-0.1,0.3-0.4l0,0h0.9l0,0c0,0.4-0.1,0.7-0.3,0.9
		S147.5,117.6,147.1,117.6z"/>
	<path d="M152.5,120.5h-0.8v3.6h-1.3v-8.6h2.1c0.5,0,0.8,0.1,1,0.3s0.3,0.6,0.3,1.1v2C153.8,120,153.4,120.5,152.5,120.5z
		 M151.7,116.6v2.6h0.3c0.2,0,0.3-0.1,0.4-0.2c0.1-0.1,0.1-0.3,0.1-0.5v-1.4c0-0.2,0-0.3-0.1-0.4s-0.2-0.2-0.4-0.2L151.7,116.6
		L151.7,116.6z"/>
	<path d="M157.5,124.1h-1.2v-3.5l-0.8,3.5h-1.3v-6.2h1.2v3.7l0.8-3.7h1.3V124.1z"/>
	<path d="M159.2,117.9v2.5c0,0.1,0,0.2,0.1,0.3c0.1,0.1,0.1,0.1,0.3,0.1c0.1,0,0.2,0,0.3,0V118h1.2v6.2h-1.2v-2.5
		c-0.2,0.1-0.5,0.2-0.7,0.2c-0.4,0-0.7-0.1-0.9-0.3c-0.2-0.2-0.3-0.5-0.3-1V118L159.2,117.9L159.2,117.9z"/>
	<path d="M164.8,124.1h-1.2v-3.5l-0.8,3.5h-1.3v-6.2h1.2v3.7l0.8-3.7h1.3V124.1z"/>
</g>
<g class="st0">
	<path d="M86.5,72.5l-0.3-2.4h-1.4l-0.2,2.4h-1.7l1.6-12.8h2.3l1.7,12.8H86.5z M85.5,63.5L85,68.2h1L85.5,63.5z"/>
	<path d="M93.1,69.1v1.2c0,1.6-0.7,2.4-2.1,2.4h-0.4c-0.7,0-1.2-0.2-1.6-0.7c-0.3-0.4-0.5-0.9-0.5-1.5V69h1.8v1.3
		c0,0.5,0.2,0.7,0.5,0.7s0.5-0.2,0.5-0.7V69c0-0.4-0.2-0.6-0.5-0.6h-0.9v-1.7h0.9c0.2,0,0.3,0,0.4-0.1s0.1-0.3,0.1-0.6v-0.5
		c0-0.3,0-0.5-0.1-0.6s-0.2-0.2-0.4-0.2c-0.3,0-0.5,0.3-0.5,0.8v0.7h-1.8v-0.9c0-0.8,0.2-1.3,0.5-1.7c0.3-0.4,0.8-0.6,1.6-0.6h0.3
		c0.8,0,1.4,0.2,1.7,0.5c0.3,0.4,0.5,0.9,0.5,1.7V66c0,0.5-0.1,0.8-0.2,1s-0.4,0.4-0.7,0.5c0.3,0.1,0.6,0.3,0.7,0.5
		S93.1,68.6,93.1,69.1z"/>
	<path d="M93.6,71.1v-2.2c0-0.5,0.1-0.8,0.2-1.1s0.4-0.5,0.7-0.7c0.1-0.1,0.3-0.2,0.5-0.3c0.2-0.1,0.4-0.2,0.7-0.3
		c0.2-0.1,0.4-0.2,0.4-0.2c0.1-0.1,0.2-0.1,0.2-0.2c0,0,0-0.1,0-0.2v-0.6c0-0.2,0-0.4-0.1-0.5s-0.2-0.1-0.3-0.1l0,0
		c-0.2,0-0.3,0-0.4,0.1s-0.1,0.2-0.1,0.5v1h-1.6V65c0-1.2,0.6-1.8,1.9-1.8H96c0.8,0,1.4,0.2,1.6,0.5S98,64.5,98,65v5.5
		c0,0.1,0,0.2,0.1,0.2s0.1,0.1,0.2,0.1h0.3v1.7h-1.8c-0.4,0-0.6-0.3-0.6-1c-0.4,0.7-0.9,1.1-1.5,1.1h-0.1c-0.4,0-0.6-0.1-0.8-0.4
		C93.7,71.8,93.6,71.5,93.6,71.1z M96.3,70.2v-2.4c-0.3,0.2-0.5,0.3-0.7,0.5s-0.2,0.4-0.2,0.7v1.3c0,0.4,0.1,0.6,0.4,0.6
		C96.1,70.9,96.3,70.7,96.3,70.2z"/>
	<path d="M98.9,63.3h1.8v1c0.4-0.7,0.9-1,1.5-1l0,0c0.4,0,0.8,0.2,1,0.5c0.2,0.3,0.3,0.7,0.3,1.3v5.8c0,0.6-0.1,1-0.4,1.3
		s-0.6,0.5-1,0.5l0,0c-0.5,0-0.9-0.3-1.4-0.9v4h-1.8V63.3z M100.8,65.5v4.8c0,0.2,0,0.4,0.1,0.5s0.2,0.2,0.4,0.2
		c0.3,0,0.5-0.2,0.5-0.7v-4.8c0-0.4-0.2-0.7-0.5-0.7C100.9,64.8,100.8,65.1,100.8,65.5z"/>
	<path d="M105.2,72.5V65H104v-1.8h4.4V65h-1.3v7.5H105.2z"/>
	<path d="M110.5,66.7h7.4V68h-7.4V66.7z"/>
	<path d="M122,72.5h-1.8v-9.2h1.8V67h1.1v-3.8h1.8v9.2h-1.8v-3.7H122V72.5z"/>
	<path d="M127.6,63.1h0.3c1.4,0,2.1,0.8,2.1,2.3v2.7h-2.7v2.1c0,0.5,0.2,0.7,0.5,0.7s0.5-0.2,0.5-0.7v-1.5h1.8v1.6
		c0,1.6-0.7,2.3-2.1,2.3h-0.3c-0.6,0-1.1-0.2-1.5-0.6s-0.5-1-0.5-1.7v-5c0-0.7,0.2-1.2,0.5-1.6C126.4,63.3,126.9,63.1,127.6,63.1z
		 M127.3,65.4v1.2h1v-1.2c0-0.5-0.2-0.7-0.5-0.7c-0.1,0-0.3,0-0.3,0.1c-0.1,0.1-0.1,0.2-0.1,0.2C127.3,65.1,127.3,65.3,127.3,65.4z"
		/>
	<path d="M132.4,72.5h-1.8v-9.2h4.7v9.2h-1.8V65h-1.1L132.4,72.5L132.4,72.5z"/>
	<path d="M136.4,70c0.1-0.6,0.1-2.8,0.1-6.7h4.4v9.2H139V65h-0.8c0,2.8-0.1,4.7-0.2,5.6c-0.1,0.7-0.2,1.2-0.5,1.5
		c-0.2,0.3-0.7,0.4-1.3,0.4h-0.7v-1.8h0.2c0.2,0,0.3-0.1,0.4-0.2S136.4,70.3,136.4,70z"/>
	<path d="M141.5,70.3v-4.8c0-0.8,0.2-1.4,0.6-1.8c0.4-0.4,0.9-0.6,1.6-0.6h0.3c0.7,0,1.2,0.2,1.6,0.6c0.4,0.4,0.6,1,0.6,1.7v4.8
		c0,0.7-0.2,1.2-0.6,1.7c-0.4,0.5-0.9,0.7-1.6,0.7h-0.3c-0.7,0-1.3-0.2-1.7-0.7S141.5,70.9,141.5,70.3z M143.3,65.5v4.7
		c0,0.5,0.2,0.7,0.5,0.7s0.5-0.2,0.5-0.7v-4.7c0-0.5-0.2-0.7-0.5-0.7S143.3,65.1,143.3,65.5z"/>
	<path d="M147.7,67.6l-1.3-4.3h1.8l0.7,2.7l0.6-2.7h1.6l-1.2,4.3l1.3,5h-1.7l-0.7-2.9l-0.8,2.9h-1.7L147.7,67.6z"/>
	<path d="M151.5,70.3v-4.8c0-0.8,0.2-1.4,0.6-1.8c0.4-0.4,0.9-0.6,1.6-0.6h0.3c0.7,0,1.2,0.2,1.6,0.6c0.4,0.4,0.6,1,0.6,1.7v4.8
		c0,0.7-0.2,1.2-0.6,1.7c-0.4,0.5-0.9,0.7-1.6,0.7h-0.3c-0.7,0-1.3-0.2-1.7-0.7S151.5,70.9,151.5,70.3z M153.3,65.5v4.7
		c0,0.5,0.2,0.7,0.5,0.7s0.5-0.2,0.5-0.7v-4.7c0-0.5-0.2-0.7-0.5-0.7S153.3,65.1,153.3,65.5z"/>
	<path d="M161.7,72.5h-1.8v-5.1l-1.3,5.1h-1.9v-9.2h1.8v5.4l1.3-5.4h1.9V72.5z M159.3,62.8L159.3,62.8c-0.6,0-1-0.1-1.3-0.4
		c-0.3-0.3-0.5-0.7-0.5-1.3V61h1.3l0,0c0,0.4,0.1,0.6,0.4,0.6l0,0c0.3,0,0.4-0.2,0.4-0.6l0,0h1.3l0,0c0,0.6-0.2,1-0.5,1.3
		C160.2,62.6,159.8,62.8,159.3,62.8z"/>
	<path d="M165.9,72.5H164v-9.2h4.7v9.2h-1.8V65h-1.1v7.5H165.9z"/>
	<path d="M169.3,71.1v-2.2c0-0.5,0.1-0.8,0.2-1.1c0.1-0.3,0.4-0.5,0.7-0.7c0.1-0.1,0.3-0.2,0.5-0.3c0.2-0.1,0.4-0.2,0.7-0.3
		c0.2-0.1,0.4-0.2,0.4-0.2c0.1-0.1,0.2-0.1,0.2-0.2c0,0,0-0.1,0-0.2v-0.6c0-0.2,0-0.4-0.1-0.5s-0.2-0.1-0.3-0.1l0,0
		c-0.2,0-0.3,0-0.4,0.1s-0.1,0.2-0.1,0.5v1h-1.6V65c0-1.2,0.6-1.8,1.9-1.8h0.3c0.8,0,1.4,0.2,1.6,0.5c0.3,0.3,0.4,0.8,0.4,1.3v5.5
		c0,0.1,0,0.2,0.1,0.2c0,0,0.1,0.1,0.2,0.1h0.3v1.7h-1.8c-0.4,0-0.6-0.3-0.6-1c-0.4,0.7-0.9,1.1-1.5,1.1h-0.1
		c-0.4,0-0.6-0.1-0.8-0.4C169.4,71.8,169.3,71.5,169.3,71.1z M172,70.2v-2.4c-0.3,0.2-0.5,0.3-0.7,0.5s-0.2,0.4-0.2,0.7v1.3
		c0,0.4,0.1,0.6,0.4,0.6C171.9,70.9,172,70.7,172,70.2z"/>
	<path d="M174.7,63.3h1.8v1c0.4-0.7,0.9-1,1.5-1l0,0c0.4,0,0.8,0.2,1,0.5c0.2,0.3,0.3,0.7,0.3,1.3v5.8c0,0.6-0.1,1-0.4,1.3
		c-0.3,0.3-0.6,0.5-1,0.5l0,0c-0.5,0-0.9-0.3-1.4-0.9v4h-1.8L174.7,63.3L174.7,63.3z M176.5,65.5v4.8c0,0.2,0,0.4,0.1,0.5
		s0.2,0.2,0.4,0.2c0.3,0,0.5-0.2,0.5-0.7v-4.8c0-0.4-0.2-0.7-0.5-0.7S176.5,65.1,176.5,65.5z"/>
	<path d="M182,63.1h0.3c1.4,0,2.1,0.8,2.1,2.3v2.7h-2.7v2.1c0,0.5,0.2,0.7,0.5,0.7s0.5-0.2,0.5-0.7v-1.5h1.8v1.6
		c0,1.6-0.7,2.3-2.1,2.3H182c-0.6,0-1.1-0.2-1.5-0.6s-0.5-1-0.5-1.7v-5c0-0.7,0.2-1.2,0.5-1.6C180.8,63.3,181.3,63.1,182,63.1z
		 M181.7,65.4v1.2h1v-1.2c0-0.5-0.2-0.7-0.5-0.7c-0.1,0-0.3,0-0.3,0.1c-0.1,0.1-0.1,0.2-0.1,0.2C181.7,65.1,181.7,65.3,181.7,65.4z"
		/>
	<path d="M186.8,72.5H185v-9.2h1.8V67h1.1v-3.8h1.8v9.2h-1.8v-3.7h-1.1V72.5z"/>
	<path d="M190.3,72.5v-9.2h1.8v3.1h0.7c0.8,0,1.4,0.1,1.7,0.4s0.4,0.8,0.4,1.5v2.2c0,0.8-0.1,1.3-0.4,1.6s-0.8,0.4-1.7,0.4H190.3z
		 M192.1,70.9h0.4c0.4,0,0.5-0.2,0.5-0.5v-1.9c0-0.2,0-0.3-0.1-0.4s-0.2-0.1-0.4-0.1h-0.4V70.9z"/>
</g>
<g class="st0">
	<path d="M115.3,89.3v-4.5c0-0.7,0.2-1.3,0.5-1.7s0.9-0.6,1.5-0.6h0.3c0.7,0,1.2,0.2,1.5,0.6s0.5,0.9,0.5,1.6v4.5
		c0,0.6-0.2,1.1-0.6,1.6c-0.4,0.4-0.9,0.7-1.5,0.7h-0.3c-0.7,0-1.2-0.2-1.6-0.6C115.5,90.5,115.3,89.9,115.3,89.3z M117,84.9v4.4
		c0,0.5,0.2,0.7,0.5,0.7s0.5-0.2,0.5-0.7v-4.4c0-0.4-0.2-0.7-0.5-0.7C117.2,84.2,117,84.4,117,84.9z"/>
	<path d="M122,91.4h-1.7v-8.7h1.7v3.5h1v-3.5h1.7v8.7H123v-3.5h-1V91.4z"/>
	<path d="M128.6,91.4h-1.7v-8.7h4.4v8.7h-1.7v-7h-1V91.4z"/>
	<path d="M132,82.7h1.7v0.9c0.4-0.7,0.9-1,1.4-1l0,0c0.4,0,0.7,0.2,1,0.5s0.3,0.7,0.3,1.2v5.4c0,0.5-0.1,1-0.4,1.3
		c-0.3,0.3-0.6,0.4-0.9,0.4l0,0c-0.4,0-0.9-0.3-1.3-0.8v3.8H132V82.7z M133.7,84.8v4.5c0,0.2,0,0.4,0.1,0.5s0.2,0.2,0.3,0.2
		c0.3,0,0.5-0.2,0.5-0.6v-4.5c0-0.4-0.2-0.6-0.5-0.6C133.9,84.2,133.7,84.4,133.7,84.8z"/>
	<path d="M136.9,89.3v-4.5c0-0.7,0.2-1.3,0.5-1.7c0.4-0.4,0.9-0.6,1.5-0.6h0.3c0.7,0,1.2,0.2,1.5,0.6c0.4,0.4,0.5,0.9,0.5,1.6v4.5
		c0,0.6-0.2,1.1-0.6,1.6c-0.4,0.4-0.9,0.7-1.5,0.7H139c-0.7,0-1.2-0.2-1.6-0.6S136.9,89.9,136.9,89.3z M138.6,84.9v4.4
		c0,0.5,0.2,0.7,0.5,0.7s0.5-0.2,0.5-0.7v-4.4c0-0.4-0.2-0.7-0.5-0.7S138.6,84.4,138.6,84.9z"/>
	<path d="M144.4,87.5h1.7v1.9c0,0.6-0.2,1-0.5,1.5c-0.3,0.4-0.8,0.6-1.5,0.6h-0.3c-0.7,0-1.2-0.2-1.5-0.6s-0.5-0.9-0.5-1.5v-4.7
		c0-1.4,0.7-2.1,2.1-2.1h0.3c1.3,0,1.9,0.6,1.9,1.9V86h-1.7v-1.2c0-0.3,0-0.4-0.1-0.6s-0.2-0.2-0.4-0.2s-0.3,0.1-0.4,0.2
		s-0.1,0.3-0.1,0.5v4.4c0,0.4,0.1,0.7,0.4,0.7c0.3,0,0.5-0.2,0.5-0.6v-1.7H144.4z"/>
	<path d="M147.6,91.4v-7h-1.2v-1.6h4.1v1.6h-1.2v7H147.6z"/>
	<path d="M150.8,89.3v-4.5c0-0.7,0.2-1.3,0.5-1.7c0.4-0.4,0.9-0.6,1.5-0.6h0.3c0.7,0,1.2,0.2,1.5,0.6c0.4,0.4,0.5,0.9,0.5,1.6v4.5
		c0,0.6-0.2,1.1-0.6,1.6c-0.4,0.4-0.9,0.7-1.5,0.7h-0.3c-0.7,0-1.2-0.2-1.6-0.6C151,90.5,150.8,89.9,150.8,89.3z M152.6,84.9v4.4
		c0,0.5,0.2,0.7,0.5,0.7s0.5-0.2,0.5-0.7v-4.4c0-0.4-0.2-0.7-0.5-0.7C152.7,84.2,152.6,84.4,152.6,84.9z"/>
	<path d="M157.4,89.3v-4.5c0-0.7,0.2-1.3,0.5-1.7c0.4-0.4,0.9-0.6,1.5-0.6h0.3c0.7,0,1.2,0.2,1.5,0.6c0.4,0.4,0.5,0.9,0.5,1.6v4.5
		c0,0.6-0.2,1.1-0.6,1.6c-0.4,0.4-0.9,0.7-1.5,0.7h-0.3c-0.7,0-1.2-0.2-1.6-0.6S157.4,89.9,157.4,89.3z M159.2,84.9v4.4
		c0,0.5,0.2,0.7,0.5,0.7s0.5-0.2,0.5-0.7v-4.4c0-0.4-0.2-0.7-0.5-0.7S159.2,84.4,159.2,84.9z"/>
	<path d="M164.1,82.7v3.4c0,0.2,0,0.3,0.1,0.4s0.2,0.1,0.4,0.1c0.1,0,0.3,0,0.4-0.1v-3.8h1.7v8.7H165V88c-0.3,0.1-0.6,0.2-1,0.2
		c-0.5,0-0.9-0.1-1.2-0.4c-0.2-0.3-0.4-0.8-0.4-1.4v-3.6L164.1,82.7L164.1,82.7z"/>
	<path d="M169.2,82.6h0.3c1.3,0,1.9,0.7,1.9,2.2v2.5h-2.6v2c0,0.4,0.2,0.6,0.5,0.6s0.4-0.2,0.4-0.6v-1.4h1.7v1.5
		c0,1.5-0.7,2.2-2,2.2h-0.3c-0.6,0-1.1-0.2-1.4-0.5c-0.3-0.4-0.5-0.9-0.5-1.6v-4.7c0-0.6,0.2-1.1,0.5-1.5
		C168,82.8,168.5,82.6,169.2,82.6z M168.9,84.8v1.1h1v-1.1c0-0.5-0.2-0.7-0.5-0.7c-0.1,0-0.2,0-0.3,0.1s-0.1,0.1-0.1,0.2
		C168.9,84.5,168.9,84.6,168.9,84.8z"/>
	<path d="M173.7,91.4H172v-8.7h1.7v3.5h1v-3.5h1.7v8.7h-1.7v-3.5h-1V91.4z"/>
	<path d="M177,91.4v-8.7h1.7v2.9h0.7c0.8,0,1.3,0.1,1.6,0.4s0.4,0.7,0.4,1.4v2.1c0,0.7-0.1,1.2-0.4,1.5c-0.3,0.3-0.8,0.4-1.6,0.4
		C179.4,91.4,177,91.4,177,91.4z M178.7,89.9h0.4c0.3,0,0.5-0.2,0.5-0.5v-1.8c0-0.2,0-0.3-0.1-0.4s-0.2-0.1-0.4-0.1h-0.4V89.9z"/>
	<path d="M184.4,91.1l-1.4-8.4h1.7l0.7,5.3l0.6-5.3h1.6L186,93.1c-0.1,0.4-0.2,0.8-0.4,1s-0.4,0.3-0.7,0.3h-1.6v-1.6h0.7
		c0.1,0,0.2,0,0.3-0.1c0-0.1,0.1-0.2,0.1-0.3V92C184.5,91.7,184.5,91.5,184.4,91.1z"/>
	<path d="M190.5,91.4l-0.9-5.1v5.1H188v-8.7h2.2l0.9,4.8l0.9-4.8h2.1v8.7h-1.7v-5.2l-0.9,5.2H190.5z"/>
	<path d="M196.2,91.4h-1.7v-8.7h1.7v3.5h1v-3.5h1.7v8.7h-1.7v-3.5h-1V91.4z"/>
	<path d="M199.5,91.4v-8.7h1.7v2.9h0.7c0.8,0,1.3,0.1,1.6,0.4s0.4,0.7,0.4,1.4v2.1c0,0.7-0.1,1.2-0.4,1.5c-0.3,0.3-0.8,0.4-1.6,0.4
		C201.9,91.4,199.5,91.4,199.5,91.4z M201.3,89.9h0.4c0.3,0,0.5-0.2,0.5-0.5v-1.8c0-0.2,0-0.3-0.1-0.4s-0.2-0.1-0.4-0.1h-0.4V89.9z
		 M206.1,82.7v8.7h-1.7v-8.7H206.1z"/>
	<path d="M211.3,91.4h-1.6v-4.8l-1.2,4.8h-1.8v-8.7h1.6v5.1l1.2-5.1h1.8V91.4z M209,82.3L209,82.3c-0.6,0-1-0.1-1.2-0.4
		c-0.3-0.3-0.4-0.7-0.4-1.2v-0.1h1.3v0.1c0,0.4,0.1,0.5,0.4,0.5l0,0c0.3,0,0.4-0.2,0.4-0.5v-0.1h1.2v0.1c0,0.5-0.1,1-0.4,1.2
		S209.5,82.3,209,82.3z"/>
</g>
</svg>
