<?xml version="1.0" encoding="utf-8"?>
<!-- Generator: Adobe Illustrator 26.0.3, SVG Export Plug-In . SVG Version: 6.00 Build 0)  -->
<svg version="1.1" id="Слой_1" xmlns="http://www.w3.org/2000/svg" xmlns:xlink="http://www.w3.org/1999/xlink" x="0px" y="0px"
	 viewBox="0 0 239.5 150.2" style="enable-background:new 0 0 239.5 150.2;" xml:space="preserve">
<style type="text/css">
	.st0{enable-background:new    ;}
</style>
<g>
	<path d="M144.7,96.4c-0.2-0.2-0.3-0.4-0.3-0.7c0-0.3,0.1-0.5,0.3-0.7s0.4-0.3,0.7-0.3s0.5,0.1,0.7,0.3c0.2,0.2,0.3,0.4,0.3,0.7
		s-0.1,0.5-0.3,0.7s-0.4,0.3-0.7,0.3C145,96.7,144.8,96.6,144.7,96.4z"/>
	<path d="M150.2,96.4c-0.2-0.2-0.3-0.4-0.3-0.7c0-0.3,0.1-0.5,0.3-0.7s0.4-0.3,0.7-0.3s0.5,0.1,0.7,0.3c0.2,0.2,0.3,0.4,0.3,0.7
		s-0.1,0.5-0.3,0.7s-0.4,0.3-0.7,0.3C150.6,96.7,150.4,96.6,150.2,96.4z"/>
	<path d="M155.8,96.4c-0.2-0.2-0.3-0.4-0.3-0.7c0-0.3,0.1-0.5,0.3-0.7s0.4-0.3,0.7-0.3s0.5,0.1,0.7,0.3c0.2,0.2,0.3,0.4,0.3,0.7
		s-0.1,0.5-0.3,0.7s-0.4,0.3-0.7,0.3C156.2,96.7,156,96.6,155.8,96.4z"/>
</g>
<g>
	<g>
		<path d="M135.6,113h-0.2c-0.1-0.1-0.1-0.2-0.2-0.3c-0.2,0.3-0.4,0.4-0.7,0.4c-0.6,0-1-0.3-1.3-1c-0.3-0.6-0.4-1.6-0.4-2.8
			c0-1.1,0.1-2,0.4-2.7c0.3-0.6,0.7-0.9,1.3-0.9c0.2,0,0.5,0.1,0.6,0.4c0.1-0.1,0.2-0.2,0.2-0.3h0.2v1.7h-0.2
			c-0.1-0.6-0.3-1-0.4-1.3c-0.1-0.3-0.3-0.4-0.5-0.4s-0.3,0.1-0.5,0.3s-0.2,0.5-0.2,0.8v4.8c0,0.3,0.1,0.6,0.2,0.8
			c0.1,0.2,0.3,0.3,0.5,0.3s0.4-0.2,0.6-0.5c0.1-0.3,0.3-0.8,0.4-1.5h0.2L135.6,113L135.6,113z"/>
		<path d="M137.7,108c0.5,0,0.9,0.2,1.1,0.7c0.3,0.4,0.4,1,0.4,1.8s-0.1,1.5-0.4,1.9c-0.3,0.4-0.6,0.7-1.1,0.7s-0.9-0.2-1.1-0.7
			c-0.3-0.4-0.4-1.1-0.4-1.9s0.1-1.4,0.4-1.8C136.8,108.2,137.2,108,137.7,108z M138.3,111.9v-2.5c0-0.4-0.1-0.7-0.2-0.9
			c-0.1-0.2-0.3-0.3-0.5-0.3s-0.3,0.1-0.5,0.3s-0.2,0.5-0.2,0.8v2.6c0,0.3,0.1,0.6,0.2,0.8c0.1,0.2,0.3,0.3,0.4,0.3
			c0.2,0,0.3-0.1,0.5-0.3C138.2,112.4,138.3,112.2,138.3,111.9z"/>
		<path d="M142.6,111.4c0,0.6-0.2,1-0.3,1.3c-0.2,0.3-0.4,0.4-0.8,0.4c-0.5,0-0.9-0.2-1.1-0.7c-0.3-0.4-0.4-1.1-0.4-1.9
			s0.1-1.4,0.4-1.8c0.3-0.4,0.7-0.7,1.2-0.7c0.3,0,0.5,0.1,0.7,0.2c0.2,0.2,0.3,0.4,0.3,0.7c0,0.1,0,0.3-0.1,0.4s-0.2,0.1-0.3,0.1
			s-0.2,0-0.3-0.1s-0.1-0.2-0.1-0.3c0-0.1,0-0.2,0.1-0.3c0.1-0.1,0.1-0.1,0.2-0.1c0.1,0,0.2-0.1,0.2-0.1c0-0.1-0.1-0.1-0.2-0.2
			c-0.1-0.1-0.2-0.1-0.4-0.1s-0.3,0.1-0.5,0.3c-0.1,0.2-0.2,0.4-0.2,0.7v2.6c0,0.3,0.1,0.6,0.2,0.8c0.1,0.2,0.3,0.3,0.5,0.3
			s0.4-0.1,0.6-0.4S142.5,111.9,142.6,111.4C142.6,111.4,142.6,111.4,142.6,111.4z"/>
		<path d="M144.8,108c0.5,0,0.9,0.2,1.1,0.7c0.3,0.4,0.4,1,0.4,1.8s-0.1,1.5-0.4,1.9c-0.3,0.4-0.6,0.7-1.1,0.7s-0.9-0.2-1.1-0.7
			c-0.3-0.4-0.4-1.1-0.4-1.9s0.1-1.4,0.4-1.8C143.9,108.2,144.3,108,144.8,108z M145.4,111.9v-2.5c0-0.4-0.1-0.7-0.2-0.9
			s-0.3-0.3-0.5-0.3s-0.3,0.1-0.5,0.3s-0.2,0.5-0.2,0.8v2.6c0,0.3,0.1,0.6,0.2,0.8c0.1,0.2,0.3,0.3,0.4,0.3c0.2,0,0.3-0.1,0.5-0.3
			C145.3,112.4,145.4,112.2,145.4,111.9z"/>
		<path d="M152,113h-0.2c-0.1-0.1-0.1-0.2-0.2-0.3c-0.2,0.3-0.4,0.4-0.7,0.4c-0.6,0-1-0.3-1.3-1c-0.3-0.6-0.4-1.6-0.4-2.8
			c0-1.1,0.1-2,0.4-2.7c0.3-0.6,0.7-0.9,1.3-0.9c0.2,0,0.5,0.1,0.6,0.4c0.1-0.1,0.2-0.2,0.2-0.3h0.2v1.7h-0.2
			c-0.1-0.6-0.3-1-0.4-1.3c-0.1-0.3-0.3-0.4-0.5-0.4s-0.3,0.1-0.5,0.3s-0.2,0.5-0.2,0.8v4.8c0,0.3,0.1,0.6,0.2,0.8
			c0.1,0.2,0.3,0.3,0.5,0.3s0.4-0.2,0.6-0.5c0.1-0.3,0.3-0.8,0.4-1.5h0.2L152,113L152,113z"/>
		<path d="M156.1,113h-1.6v-0.2h0.3V109c0-0.2,0-0.3-0.1-0.4s-0.1-0.2-0.2-0.2c-0.2,0-0.3,0.1-0.5,0.4c-0.2,0.2-0.3,0.5-0.3,0.7v3.4
			h0.3v0.2h-1.6v-0.2h0.5V106h-0.5v-0.2h1.3v3c0.3-0.5,0.6-0.8,1-0.8c0.3,0,0.5,0.1,0.7,0.3c0.2,0.2,0.2,0.5,0.2,0.9v3.6h0.5
			L156.1,113L156.1,113z"/>
		<path d="M159.6,112.3c0,0.2-0.1,0.4-0.2,0.6c-0.1,0.1-0.3,0.2-0.5,0.2c-0.3,0-0.5-0.2-0.6-0.5c-0.2,0.3-0.5,0.5-0.9,0.5
			c-0.3,0-0.5-0.1-0.7-0.3c-0.2-0.2-0.3-0.5-0.3-0.8s0.1-0.5,0.2-0.7c0.1-0.2,0.4-0.4,0.8-0.7c0.5-0.3,0.7-0.5,0.7-0.6v-1.3
			c0-0.2,0-0.3-0.1-0.4s-0.2-0.1-0.4-0.1c-0.1,0-0.2,0-0.3,0.1s-0.2,0.1-0.2,0.1c0,0.1,0,0.1,0.1,0.2c0.2,0.1,0.2,0.2,0.2,0.4
			c0,0.1,0,0.2-0.1,0.3c-0.1,0.1-0.2,0.1-0.3,0.1s-0.3,0-0.4-0.1c-0.1-0.1-0.1-0.2-0.1-0.4c0-0.2,0.1-0.4,0.4-0.6
			c0.2-0.2,0.5-0.3,0.8-0.3s0.6,0.1,0.9,0.4c0.2,0.3,0.4,0.6,0.4,1v3c0,0.2,0.1,0.2,0.2,0.2c0.1,0,0.2-0.2,0.2-0.6h0.2L159.6,112.3
			L159.6,112.3z M158.2,112.1v-1.9c-0.1,0.1-0.2,0.2-0.3,0.2c-0.2,0.2-0.4,0.3-0.4,0.4c-0.1,0.1-0.1,0.3-0.1,0.5v0.8
			c0,0.3,0.1,0.5,0.4,0.5c0.1,0,0.2-0.1,0.3-0.2C158.2,112.4,158.2,112.3,158.2,112.1z"/>
		<path d="M163.7,113H162v-0.2h0.3V109c0-0.2,0-0.3-0.1-0.4s-0.1-0.2-0.2-0.2c-0.2,0-0.3,0.1-0.5,0.4c-0.2,0.2-0.3,0.5-0.3,0.7v3.4
			h0.3v0.2h-1.6v-0.2h0.5v-4.5h-0.5v-0.2h1.3v0.7c0.3-0.5,0.6-0.8,1-0.8c0.3,0,0.5,0.1,0.7,0.3c0.2,0.2,0.2,0.5,0.2,0.9v3.6h0.5v0.1
			H163.7z"/>
		<path d="M167,110.7h-1.9v1.1c0,0.3,0.1,0.6,0.2,0.8c0.1,0.2,0.3,0.3,0.5,0.3s0.4-0.1,0.6-0.4c0.2-0.3,0.3-0.6,0.3-1.1h0.2
			c0,0.6-0.2,1-0.4,1.3s-0.5,0.4-0.9,0.4c-0.5,0-0.9-0.2-1.1-0.7c-0.3-0.4-0.4-1.1-0.4-1.9s0.1-1.4,0.4-1.9c0.2-0.4,0.6-0.6,1.1-0.6
			c0.4,0,0.8,0.2,1,0.7C166.9,109.1,167,109.8,167,110.7z M166.1,110.5V109c0-0.3,0-0.5-0.1-0.6s-0.2-0.2-0.3-0.2
			c-0.2,0-0.3,0.1-0.4,0.3c-0.1,0.2-0.1,0.4-0.1,0.7v1.3C165.2,110.5,166.1,110.5,166.1,110.5z"/>
		<path d="M169.3,113h-1.8v-0.2h0.5V106h-0.5v-0.2h1.3v7h0.5V113z"/>
	</g>
</g>
<g>
	<g class="st0">
		<path d="M93.1,61.5h-2.6v-0.2h0.7v-6.6h-0.7v-0.2h1.9v6.8h0.7V61.5z M91.8,51c0.2,0,0.4,0.1,0.5,0.2c0.1,0.1,0.2,0.3,0.2,0.5
			s-0.1,0.4-0.2,0.5s-0.3,0.2-0.5,0.2s-0.4-0.1-0.5-0.2c-0.1-0.1-0.2-0.3-0.2-0.5s0.1-0.4,0.2-0.5C91.4,51.1,91.6,51,91.8,51z"/>
		<path d="M94.3,54.4c-0.1-0.6-0.1-1.1-0.1-1.3c0-0.7,0.1-1.2,0.4-1.6c0.2-0.4,0.6-0.6,1-0.6c0.3,0,0.5,0.1,0.7,0.3s0.3,0.5,0.3,0.7
			s0,0.3-0.1,0.5c-0.1,0.1-0.2,0.2-0.4,0.2c-0.2,0-0.3-0.1-0.4-0.2c-0.1-0.1-0.2-0.3-0.2-0.4c0-0.2,0-0.3,0.1-0.4
			c0.1-0.1,0.1-0.2,0.1-0.2c0-0.1-0.1-0.2-0.3-0.2c-0.2,0-0.3,0.1-0.4,0.3s-0.2,0.4-0.2,0.7c0,0.8,0.2,1.6,0.5,2.2h0.8v0.2h-0.7v6.6
			h0.7v0.2h-2.6v-0.2h0.7v-6.6h-0.7v-0.2H94.3z"/>
		<path d="M105,54.6c-0.3,0-0.5,0.1-0.6,0.2s-0.2,0.4-0.4,0.8l-2.1,7.8c-0.3,1-0.7,1.5-1.2,1.5c-0.2,0-0.5-0.1-0.6-0.2
			c-0.2-0.1-0.3-0.3-0.3-0.6c0-0.2,0.1-0.4,0.2-0.5s0.3-0.2,0.5-0.2s0.3,0,0.4,0.1s0.2,0.2,0.2,0.4c0,0.1,0,0.2-0.1,0.3l0,0
			c0,0.1,0,0.1,0.1,0.1s0.2-0.1,0.3-0.3c0.1-0.2,0.2-0.5,0.3-0.9l0.5-2l-1.9-6.6h-0.6v-0.2h2.5v0.2h-0.7l1.2,4.5l0.7-2.5
			c0.2-0.8,0.3-1.2,0.3-1.3s0-0.2,0-0.2c0-0.1,0-0.3-0.1-0.4c-0.1-0.1-0.2-0.2-0.3-0.2H103v-0.2h2.1L105,54.6L105,54.6z"/>
		<path d="M107.3,54.2c0.7,0,1.2,0.3,1.6,1c0.4,0.6,0.6,1.5,0.6,2.6c0,1.2-0.2,2.1-0.6,2.8c-0.4,0.6-0.9,1-1.6,1s-1.3-0.3-1.7-1
			c-0.4-0.7-0.6-1.6-0.6-2.8c0-1.1,0.2-2,0.6-2.6C106,54.6,106.5,54.2,107.3,54.2z M108.1,59.9v-3.7c0-0.6-0.1-1-0.2-1.3
			s-0.4-0.4-0.7-0.4c-0.3,0-0.5,0.1-0.7,0.4c-0.2,0.3-0.2,0.7-0.2,1.1v3.7c0,0.4,0.1,0.8,0.2,1.1c0.2,0.3,0.4,0.4,0.6,0.4
			c0.3,0,0.5-0.1,0.7-0.4C108,60.6,108.1,60.3,108.1,59.9z"/>
		<path d="M115.6,61.5h-1.9v-0.7c-0.3,0.6-0.8,0.8-1.5,0.8c-0.4,0-0.8-0.1-1-0.4c-0.2-0.3-0.3-0.7-0.3-1.2v-5.3h-0.7v-0.2h1.9v5.8
			c0,0.6,0.2,0.9,0.6,0.9c0.2,0,0.4-0.1,0.6-0.4c0.2-0.3,0.3-0.6,0.3-0.9v-5.2h-0.4v-0.2h1.7v6.8h0.7
			C115.6,61.3,115.6,61.5,115.6,61.5z"/>
		<path d="M127.1,54.6c-0.3,0-0.5,0.1-0.6,0.2c-0.1,0.1-0.2,0.4-0.4,0.8l-1.6,5.9h-0.2l-1.3-4.6l-1.3,4.6h-0.2l-2-7h-0.6v-0.2h2.5
			v0.2h-0.7l1.2,4.5l1.3-4.7h0.1l1.3,4.7l0.6-2.5c0.2-0.8,0.3-1.2,0.3-1.3s0-0.2,0-0.2c0-0.1,0-0.3-0.1-0.4
			c-0.1-0.1-0.2-0.2-0.3-0.2H125v-0.2h2.1V54.6z"/>
		<path d="M131.8,60.4c0,0.4-0.1,0.6-0.3,0.8s-0.4,0.3-0.7,0.3c-0.5,0-0.8-0.2-0.9-0.7c-0.2,0.5-0.7,0.7-1.3,0.7
			c-0.4,0-0.7-0.1-1-0.4c-0.3-0.3-0.4-0.7-0.4-1.2c0-0.4,0.1-0.7,0.3-1c0.2-0.3,0.6-0.6,1.1-1c0.7-0.4,1-0.7,1.1-0.8v-1.8
			c0-0.2-0.1-0.4-0.2-0.6c-0.1-0.1-0.3-0.2-0.6-0.2c-0.2,0-0.3,0-0.5,0.1s-0.2,0.1-0.2,0.2c0,0.1,0.1,0.2,0.2,0.2
			c0.2,0.1,0.3,0.3,0.3,0.6c0,0.2-0.1,0.3-0.2,0.5s-0.3,0.2-0.5,0.2s-0.4-0.1-0.5-0.2c-0.1-0.1-0.2-0.3-0.2-0.5
			c0-0.3,0.2-0.6,0.5-0.9c0.3-0.3,0.8-0.4,1.2-0.4c0.5,0,0.9,0.2,1.3,0.6c0.4,0.4,0.5,0.9,0.5,1.5v4.4c0,0.2,0.1,0.4,0.2,0.4
			c0.2,0,0.3-0.3,0.3-0.9h0.2v0.1H131.8z M129.8,60.1v-2.7c-0.1,0.1-0.2,0.2-0.4,0.4c-0.3,0.2-0.5,0.4-0.6,0.6
			c-0.1,0.2-0.1,0.5-0.1,0.8v1.2c0,0.5,0.2,0.8,0.5,0.8c0.1,0,0.3-0.1,0.4-0.3C129.7,60.7,129.8,60.4,129.8,60.1z"/>
		<path d="M137.7,61.5h-2.4v-0.2h0.4v-5.6c0-0.3,0-0.5-0.1-0.6c-0.1-0.2-0.2-0.2-0.3-0.2c-0.2,0-0.5,0.2-0.7,0.5
			c-0.2,0.4-0.4,0.7-0.4,1.1v4.9h0.4v0.2h-2.4v-0.2h0.7v-6.6h-0.7v-0.2h1.9v1c0.4-0.7,0.9-1.1,1.5-1.1c0.4,0,0.7,0.1,1,0.4
			c0.2,0.3,0.3,0.7,0.3,1.2v5.3h0.7v0.1H137.7z"/>
		<path d="M141.3,60c-0.1,1-0.6,1.6-1.3,1.6c-0.3,0-0.5-0.1-0.7-0.3s-0.3-0.5-0.3-0.8v-5.8h-0.8v-0.2h0.8v-2h1.3v2h0.8v0.2h-0.8v6.2
			c0,0.2,0.1,0.3,0.2,0.3c0.3,0,0.5-0.4,0.6-1.1h0.2V60z"/>
		<path d="M148,60c-0.1,1-0.6,1.6-1.3,1.6c-0.3,0-0.5-0.1-0.7-0.3s-0.3-0.5-0.3-0.8v-5.8h-0.8v-0.2h0.8v-2h1.3v2h0.8v0.2H147v6.2
			c0,0.2,0.1,0.3,0.2,0.3c0.3,0,0.5-0.4,0.6-1.1h0.2V60z"/>
		<path d="M150.9,54.2c0.7,0,1.2,0.3,1.6,1s0.6,1.5,0.6,2.6c0,1.2-0.2,2.1-0.6,2.8c-0.4,0.6-0.9,1-1.6,1c-0.7,0-1.3-0.3-1.7-1
			s-0.6-1.6-0.6-2.8c0-1.1,0.2-2,0.6-2.6C149.6,54.6,150.2,54.2,150.9,54.2z M151.8,59.9v-3.7c0-0.6-0.1-1-0.2-1.3
			c-0.2-0.3-0.4-0.4-0.7-0.4s-0.5,0.1-0.7,0.4c-0.2,0.3-0.2,0.7-0.2,1.1v3.7c0,0.4,0.1,0.8,0.2,1.1c0.2,0.3,0.4,0.4,0.6,0.4
			c0.3,0,0.5-0.1,0.7-0.4C151.7,60.6,151.8,60.3,151.8,59.9z"/>
		<path d="M159,54.8c0.3-0.4,0.6-0.6,1-0.6c0.6,0,1.1,0.3,1.5,1s0.6,1.6,0.6,2.6c0,1.1-0.2,1.9-0.6,2.6s-0.9,1-1.5,1
			c-0.4,0-0.8-0.2-1-0.6v0.5h-1.9v-0.2h0.7v-10h-0.7V51h1.9V54.8z M160.8,59.6v-3.5c0-0.5-0.1-0.9-0.2-1.2c-0.2-0.3-0.4-0.4-0.7-0.4
			c-0.2,0-0.4,0.1-0.6,0.3c-0.2,0.2-0.3,0.5-0.3,0.7v4.6c0,0.3,0.1,0.5,0.3,0.7s0.4,0.3,0.6,0.3c0.3,0,0.5-0.1,0.7-0.4
			C160.7,60.5,160.8,60.1,160.8,59.6z"/>
		<path d="M167.2,58.1h-2.7v1.6c0,0.5,0.1,0.9,0.3,1.2s0.5,0.4,0.8,0.4c0.4,0,0.6-0.2,0.9-0.6c0.2-0.4,0.4-0.9,0.5-1.6h0.3
			c-0.1,0.8-0.2,1.5-0.5,1.9s-0.7,0.6-1.3,0.6c-0.7,0-1.2-0.3-1.6-1c-0.4-0.6-0.6-1.6-0.6-2.7c0-1.2,0.2-2.1,0.5-2.7
			c0.4-0.6,0.9-0.9,1.6-0.9c0.6,0,1.1,0.3,1.4,1S167.2,56.8,167.2,58.1z M165.9,57.8v-2.1c0-0.4-0.1-0.7-0.2-0.9
			c-0.1-0.2-0.3-0.3-0.5-0.3s-0.4,0.1-0.6,0.4c-0.1,0.3-0.2,0.6-0.2,1v1.9C164.4,57.8,165.9,57.8,165.9,57.8z"/>
		<path d="M173.6,54.2c0.7,0,1.2,0.3,1.6,1s0.6,1.5,0.6,2.6c0,1.2-0.2,2.1-0.6,2.8c-0.4,0.6-0.9,1-1.6,1c-0.7,0-1.3-0.3-1.7-1
			s-0.6-1.6-0.6-2.8c0-1.1,0.2-2,0.6-2.6C172.3,54.6,172.9,54.2,173.6,54.2z M174.5,59.9v-3.7c0-0.6-0.1-1-0.2-1.3
			c-0.2-0.3-0.4-0.4-0.7-0.4s-0.5,0.1-0.7,0.4c-0.2,0.3-0.2,0.7-0.2,1.1v3.7c0,0.4,0.1,0.8,0.2,1.1c0.2,0.3,0.4,0.4,0.6,0.4
			c0.3,0,0.5-0.1,0.7-0.4C174.4,60.6,174.5,60.3,174.5,59.9z"/>
		<path d="M178.6,54.9c0.2-0.4,0.5-0.7,1-0.7c0.3,0,0.5,0.1,0.7,0.3s0.3,0.4,0.3,0.6c0,0.2-0.1,0.4-0.2,0.5
			c-0.1,0.1-0.3,0.2-0.5,0.2s-0.3-0.1-0.5-0.2c-0.1-0.1-0.2-0.3-0.2-0.4c0-0.1,0.1-0.3,0.2-0.5c0-0.1,0.1-0.1,0.1-0.1
			c0-0.1,0-0.1-0.1-0.1c-0.2,0-0.4,0.1-0.6,0.4c-0.2,0.3-0.3,0.6-0.3,1v5.3h0.7v0.2h-2.6v-0.2h0.7v-6.6h-0.7v-0.2h1.9L178.6,54.9
			L178.6,54.9z"/>
		<path d="M183.6,61.5H181v-0.2h0.7v-6.6H181v-0.2h1.9v6.8h0.7L183.6,61.5L183.6,61.5z M182.3,51c0.2,0,0.4,0.1,0.5,0.2
			c0.1,0.1,0.2,0.3,0.2,0.5s-0.1,0.4-0.2,0.5c-0.1,0.1-0.3,0.2-0.5,0.2s-0.4-0.1-0.5-0.2c-0.1-0.1-0.2-0.3-0.2-0.5s0.1-0.4,0.2-0.5
			C181.9,51.1,182.1,51,182.3,51z"/>
		<path d="M187.9,54.9c0.3-0.6,0.6-0.8,1-0.8c0.2,0,0.3,0.1,0.4,0.2c0.1,0.1,0.2,0.3,0.2,0.5s0,0.3-0.1,0.4
			c-0.1,0.1-0.2,0.2-0.3,0.2c-0.3,0-0.4-0.1-0.4-0.4c0-0.2-0.1-0.2-0.2-0.2c-0.1,0-0.2,0.1-0.3,0.4c0.3,0.5,0.5,1.1,0.5,1.9
			c0,0.8-0.2,1.4-0.6,1.9c-0.4,0.5-0.9,0.8-1.5,0.8c-0.1,0-0.2,0-0.3,0l-0.3-0.1h-0.1c-0.8,0-1.2,0.3-1.2,0.8c0,0.4,0.3,0.5,1,0.5
			h1.2h1.1c0.5,0,0.8,0.1,1.1,0.4c0.2,0.3,0.4,0.7,0.4,1.3c0,0.7-0.3,1.3-0.8,1.7c-0.5,0.5-1.2,0.7-2.1,0.7c-0.7,0-1.2-0.1-1.7-0.4
			c-0.4-0.3-0.7-0.6-0.7-1c0-0.5,0.4-1,1.3-1.5c-0.8-0.2-1.2-0.6-1.2-1.3c0-0.8,0.4-1.3,1.3-1.3c-0.7-0.5-1-1.3-1-2.4
			c0-0.8,0.2-1.4,0.6-1.9c0.4-0.5,0.9-0.8,1.5-0.8C187,54.2,187.5,54.4,187.9,54.9z M185.8,62.1c-0.3,0.2-0.5,0.4-0.6,0.6
			c-0.2,0.2-0.2,0.5-0.2,0.7c0,0.4,0.1,0.7,0.4,0.9c0.3,0.2,0.6,0.3,1,0.3c0.7,0,1.3-0.2,1.8-0.5c0.5-0.3,0.7-0.8,0.7-1.3
			c0-0.2-0.1-0.4-0.2-0.6c-0.1-0.1-0.4-0.2-0.6-0.2h-1.4C186.2,62.1,185.9,62.1,185.8,62.1z M187.3,58.5v-3.2c0-0.2-0.1-0.4-0.2-0.6
			c-0.2-0.2-0.3-0.2-0.5-0.2s-0.4,0.1-0.5,0.2c-0.2,0.1-0.2,0.3-0.2,0.5v3.3c0,0.2,0.1,0.4,0.2,0.6c0.2,0.2,0.3,0.2,0.5,0.2
			s0.4-0.1,0.5-0.2C187.2,59,187.3,58.8,187.3,58.5z"/>
		<path d="M192.4,61.5h-2.6v-0.2h0.7v-6.6h-0.7v-0.2h1.9v6.8h0.7L192.4,61.5L192.4,61.5z M191.1,51c0.2,0,0.4,0.1,0.5,0.2
			c0.1,0.1,0.2,0.3,0.2,0.5s-0.1,0.4-0.2,0.5c-0.1,0.1-0.3,0.2-0.5,0.2s-0.4-0.1-0.5-0.2c-0.1-0.1-0.2-0.3-0.2-0.5s0.1-0.4,0.2-0.5
			C190.7,51.1,190.9,51,191.1,51z"/>
		<path d="M198.4,61.5H196v-0.2h0.4v-5.6c0-0.3,0-0.5-0.1-0.6c-0.1-0.2-0.2-0.2-0.3-0.2c-0.2,0-0.5,0.2-0.7,0.5
			c-0.2,0.4-0.4,0.7-0.4,1.1v4.9h0.4v0.2H193v-0.2h0.7v-6.6H193v-0.2h1.9v1c0.4-0.7,0.9-1.1,1.5-1.1c0.4,0,0.7,0.1,1,0.4
			c0.2,0.3,0.3,0.7,0.3,1.2v5.3L198.4,61.5L198.4,61.5z"/>
		<path d="M203.5,60.4c0,0.4-0.1,0.6-0.3,0.8s-0.4,0.3-0.7,0.3c-0.5,0-0.8-0.2-0.9-0.7c-0.2,0.5-0.7,0.7-1.3,0.7
			c-0.4,0-0.7-0.1-1-0.4c-0.3-0.3-0.4-0.7-0.4-1.2c0-0.4,0.1-0.7,0.3-1s0.6-0.6,1.1-1c0.7-0.4,1-0.7,1.1-0.8v-1.8
			c0-0.2-0.1-0.4-0.2-0.6c-0.1-0.1-0.3-0.2-0.6-0.2c-0.2,0-0.3,0-0.5,0.1c-0.1,0.1-0.2,0.1-0.2,0.2c0,0.1,0.1,0.2,0.2,0.2
			c0.2,0.1,0.3,0.3,0.3,0.6c0,0.2-0.1,0.3-0.2,0.5c-0.1,0.1-0.3,0.2-0.5,0.2s-0.4-0.1-0.5-0.2s-0.2-0.3-0.2-0.5
			c0-0.3,0.2-0.6,0.5-0.9c0.3-0.3,0.8-0.4,1.2-0.4c0.5,0,0.9,0.2,1.3,0.6c0.4,0.4,0.5,0.9,0.5,1.5v4.4c0,0.2,0.1,0.4,0.2,0.4
			c0.2,0,0.3-0.3,0.3-0.9h0.2v0.1H203.5z M201.5,60.1v-2.7c-0.1,0.1-0.2,0.2-0.4,0.4c-0.3,0.2-0.5,0.4-0.6,0.6
			c-0.1,0.2-0.1,0.5-0.1,0.8v1.2c0,0.5,0.2,0.8,0.5,0.8c0.1,0,0.3-0.1,0.4-0.3C201.4,60.7,201.5,60.4,201.5,60.1z"/>
		<path d="M206.6,61.5H204v-0.2h0.7v-10H204V51h1.9v10.2h0.7L206.6,61.5L206.6,61.5z"/>
		<path d="M207.8,63.2c0.4-0.3,0.7-0.5,0.9-0.8s0.3-0.6,0.3-0.8s-0.1-0.3-0.2-0.3c-0.1,0-0.1,0-0.2,0.1c-0.1,0.1-0.3,0.2-0.5,0.2
			s-0.4-0.1-0.5-0.2c-0.2-0.2-0.2-0.4-0.2-0.6c0-0.3,0.1-0.5,0.3-0.7s0.4-0.3,0.6-0.3c0.3,0,0.5,0.1,0.7,0.4c0.2,0.2,0.3,0.6,0.3,1
			c0,1-0.5,1.7-1.4,2.3L207.8,63.2z"/>
	</g>
	<g>
		<g>
			<path d="M82.5,50.1c-0.6,0.5-1.1,1-1.4,1.5s-0.5,1-0.5,1.5c0,0.3,0.1,0.5,0.3,0.5c0.1,0,0.2-0.1,0.3-0.2c0.2-0.3,0.5-0.4,0.8-0.4
				s0.6,0.2,0.9,0.5c0.2,0.3,0.4,0.7,0.4,1.1c0,0.5-0.1,0.9-0.4,1.3c-0.3,0.3-0.6,0.5-1,0.5c-0.5,0-0.9-0.2-1.2-0.7
				c-0.3-0.5-0.5-1-0.5-1.8c0-1.8,0.7-3.1,2.2-4.2L82.5,50.1z"/>
			<path d="M86.1,50.1c-0.6,0.5-1.1,1-1.4,1.5s-0.5,1-0.5,1.5c0,0.3,0.1,0.5,0.3,0.5c0.1,0,0.2-0.1,0.3-0.2c0.2-0.3,0.5-0.4,0.8-0.4
				s0.6,0.2,0.9,0.5c0.2,0.3,0.4,0.7,0.4,1.1c0,0.5-0.1,0.9-0.4,1.3c-0.3,0.3-0.6,0.5-1,0.5c-0.5,0-0.9-0.2-1.2-0.7
				c-0.3-0.5-0.5-1-0.5-1.8c0-1.8,0.7-3.1,2.2-4.2L86.1,50.1z"/>
		</g>
	</g>
	<g>
		<g>
			<path d="M211.1,80.8c0.6-0.5,1.1-1,1.4-1.5c0.3-0.5,0.5-1,0.5-1.5c0-0.3-0.1-0.5-0.3-0.5c-0.1,0-0.2,0.1-0.3,0.2
				c-0.2,0.3-0.5,0.4-0.8,0.4s-0.6-0.2-0.9-0.5c-0.2-0.3-0.4-0.7-0.4-1.1c0-0.5,0.1-0.9,0.4-1.3c0.3-0.3,0.6-0.5,1-0.5
				c0.5,0,0.9,0.2,1.2,0.7s0.5,1,0.5,1.7c0,1.7-0.7,3.1-2.2,4.2L211.1,80.8z"/>
			<path d="M214.8,80.8c0.6-0.5,1.1-1,1.4-1.5c0.3-0.5,0.5-1,0.5-1.5c0-0.3-0.1-0.5-0.3-0.5c-0.1,0-0.2,0.1-0.3,0.2
				c-0.2,0.3-0.5,0.4-0.8,0.4s-0.6-0.2-0.9-0.5c-0.2-0.3-0.4-0.7-0.4-1.1c0-0.5,0.1-0.9,0.4-1.3c0.3-0.3,0.6-0.5,1-0.5
				c0.5,0,0.9,0.2,1.2,0.7s0.5,1,0.5,1.7c0,1.7-0.7,3.1-2.2,4.2L214.8,80.8z"/>
		</g>
	</g>
	<g>
		<g>
			<path d="M92.7,72c0.3-0.5,0.8-0.7,1.3-0.7c0.7,0,1.3,0.4,1.8,1.3c0.5,0.8,0.7,1.9,0.7,3.2s-0.2,2.4-0.7,3.2
				c-0.5,0.8-1.1,1.3-1.8,1.3c-0.5,0-0.9-0.2-1.3-0.7v0.6h-2.4v-0.3h0.8V67.7h-0.8v-0.3h2.4V72z M94.9,77.9v-4.2
				c0-0.6-0.1-1.1-0.3-1.5c-0.2-0.3-0.5-0.5-0.8-0.5c-0.2,0-0.5,0.1-0.7,0.4s-0.3,0.6-0.3,0.9v5.6c0,0.3,0.1,0.7,0.3,0.9
				c0.2,0.3,0.5,0.4,0.7,0.4c0.4,0,0.6-0.2,0.8-0.5C94.8,79,94.9,78.6,94.9,77.9z"/>
			<path d="M102.7,76h-3.3v2c0,0.6,0.1,1.1,0.4,1.4c0.2,0.3,0.6,0.5,0.9,0.5c0.4,0,0.8-0.2,1.1-0.7c0.3-0.5,0.5-1.1,0.6-2h0.3
				c-0.1,1-0.3,1.8-0.7,2.3c-0.4,0.5-0.9,0.7-1.6,0.7c-0.9,0-1.5-0.4-2-1.2c-0.5-0.8-0.7-1.9-0.7-3.3s0.2-2.5,0.7-3.3
				c0.4-0.8,1.1-1.1,1.9-1.1s1.4,0.4,1.7,1.2C102.5,73.3,102.7,74.5,102.7,76z M101.1,75.7v-2.6c0-0.5-0.1-0.8-0.2-1.1
				c-0.1-0.3-0.3-0.4-0.6-0.4c-0.3,0-0.5,0.2-0.7,0.5s-0.3,0.7-0.3,1.3v2.3C99.3,75.7,101.1,75.7,101.1,75.7z"/>
			<path d="M109.9,72.1c0.2-0.5,0.7-0.8,1.3-0.8c0.3,0,0.6,0.1,0.8,0.3c0.2,0.2,0.3,0.5,0.3,0.8c0,0.2-0.1,0.5-0.2,0.6
				c-0.2,0.2-0.4,0.3-0.6,0.3s-0.4-0.1-0.6-0.2c-0.1-0.1-0.2-0.3-0.2-0.5s0.1-0.4,0.2-0.6c0.1-0.1,0.1-0.1,0.1-0.1
				c0-0.1-0.1-0.1-0.2-0.1c-0.2,0-0.5,0.2-0.7,0.5s-0.3,0.8-0.3,1.2v6.4h0.8v0.3h-3.2v-0.3h0.8v-8.1h-0.8v-0.3h2.4L109.9,72.1
				L109.9,72.1z"/>
			<path d="M118,76h-3.3v2c0,0.6,0.1,1.1,0.4,1.4c0.2,0.3,0.6,0.5,0.9,0.5c0.4,0,0.8-0.2,1.1-0.7c0.3-0.5,0.5-1.1,0.6-2h0.3
				c-0.1,1-0.3,1.8-0.7,2.3c-0.4,0.5-0.9,0.7-1.6,0.7c-0.9,0-1.5-0.4-2-1.2c-0.5-0.8-0.7-1.9-0.7-3.3s0.2-2.5,0.7-3.3
				c0.4-0.8,1.1-1.1,1.9-1.1s1.4,0.4,1.7,1.2C117.8,73.3,118,74.5,118,76z M116.5,75.7v-2.6c0-0.5-0.1-0.8-0.2-1.1
				c-0.1-0.3-0.3-0.4-0.6-0.4c-0.3,0-0.5,0.2-0.7,0.5s-0.3,0.7-0.3,1.3v2.3C114.7,75.7,116.5,75.7,116.5,75.7z"/>
			<path d="M124.6,78.9c0,0.4-0.1,0.8-0.3,1c-0.2,0.2-0.5,0.4-0.9,0.4c-0.6,0-1-0.3-1.1-0.9c-0.3,0.6-0.8,0.9-1.6,0.9
				c-0.5,0-0.9-0.2-1.2-0.5c-0.3-0.4-0.5-0.9-0.5-1.5c0-0.5,0.1-0.9,0.4-1.2c0.2-0.4,0.7-0.8,1.4-1.2c0.8-0.5,1.2-0.9,1.3-1v-2.2
				c0-0.3-0.1-0.5-0.3-0.7c-0.2-0.2-0.4-0.3-0.7-0.3c-0.2,0-0.4,0-0.6,0.1s-0.3,0.2-0.3,0.3c0,0.1,0.1,0.2,0.2,0.3
				c0.3,0.2,0.4,0.4,0.4,0.7c0,0.2-0.1,0.4-0.2,0.6s-0.3,0.2-0.6,0.2c-0.3,0-0.5-0.1-0.6-0.3c-0.2-0.2-0.2-0.4-0.2-0.6
				c0-0.4,0.2-0.8,0.6-1.1c0.4-0.3,0.9-0.5,1.5-0.5s1.1,0.2,1.6,0.7c0.4,0.5,0.7,1.1,0.7,1.9v5.4c0,0.3,0.1,0.4,0.3,0.4
				c0.3,0,0.4-0.3,0.4-1.1h0.3L124.6,78.9L124.6,78.9z M122.1,78.5v-3.3c-0.1,0.1-0.3,0.3-0.5,0.4c-0.4,0.3-0.6,0.5-0.7,0.8
				c-0.1,0.2-0.2,0.6-0.2,0.9v1.4c0,0.6,0.2,0.9,0.7,0.9c0.2,0,0.4-0.1,0.5-0.3C122,79.2,122.1,78.9,122.1,78.5z"/>
			<path d="M131.6,80.2h-2.4v-0.6c-0.3,0.5-0.8,0.7-1.3,0.7c-0.7,0-1.3-0.4-1.8-1.3c-0.5-0.8-0.7-1.9-0.7-3.2s0.2-2.4,0.7-3.2
				c0.5-0.8,1.1-1.3,1.8-1.3c0.5,0,0.9,0.2,1.3,0.7v-4.4h-0.8v-0.3h2.4v12.5h0.8V80.2z M129.2,78.6V73c0-0.4-0.1-0.7-0.4-0.9
				c-0.2-0.3-0.5-0.4-0.7-0.4c-0.4,0-0.6,0.2-0.8,0.5c-0.2,0.3-0.3,0.8-0.3,1.5v4.2c0,0.6,0.1,1.1,0.3,1.5s0.5,0.5,0.8,0.5
				c0.2,0,0.5-0.1,0.7-0.4C129.1,79.3,129.2,78.9,129.2,78.6z"/>
			<path d="M138.4,71.8c-0.3,0-0.6,0.1-0.7,0.2c-0.1,0.1-0.3,0.5-0.4,1l-2.6,9.5c-0.3,1.2-0.8,1.8-1.5,1.8c-0.3,0-0.6-0.1-0.8-0.3
				c-0.2-0.2-0.3-0.4-0.3-0.7c0-0.3,0.1-0.5,0.2-0.6c0.2-0.2,0.3-0.2,0.6-0.2c0.2,0,0.4,0.1,0.5,0.2s0.2,0.3,0.2,0.4
				c0,0.2,0,0.3-0.1,0.4v0.1c0,0.1,0,0.1,0.1,0.1s0.2-0.1,0.3-0.4c0.1-0.2,0.3-0.6,0.4-1.1l0.7-2.5l-2.3-8.1H132v-0.3h3.1v0.3h-0.9
				l1.5,5.5l0.8-3c0.2-0.9,0.4-1.4,0.4-1.5s0-0.2,0-0.3c0-0.2-0.1-0.3-0.2-0.5c-0.1-0.1-0.3-0.2-0.4-0.2h-0.4v-0.3h2.5L138.4,71.8
				L138.4,71.8z"/>
			<path d="M142.6,78.4c-0.2,1.3-0.7,1.9-1.6,1.9c-0.4,0-0.7-0.1-0.9-0.4s-0.3-0.6-0.3-1v-7.1h-1v-0.3h1v-2.4h1.5v2.4h1v0.3h-1v7.6
				c0,0.2,0.1,0.4,0.2,0.4c0.4,0,0.6-0.4,0.8-1.3L142.6,78.4L142.6,78.4z"/>
			<path d="M146.1,71.3c0.9,0,1.5,0.4,2,1.2c0.5,0.8,0.7,1.8,0.7,3.2c0,1.5-0.2,2.6-0.7,3.4s-1.1,1.2-2,1.2s-1.6-0.4-2-1.2
				c-0.5-0.8-0.7-1.9-0.7-3.4c0-1.4,0.2-2.5,0.7-3.2C144.5,71.7,145.2,71.3,146.1,71.3z M147.2,78.2v-4.5c0-0.7-0.1-1.2-0.3-1.6
				c-0.2-0.3-0.5-0.5-0.8-0.5s-0.6,0.2-0.8,0.5c-0.2,0.4-0.3,0.8-0.3,1.4v4.6c0,0.5,0.1,1,0.3,1.3c0.2,0.4,0.5,0.5,0.8,0.5
				s0.6-0.2,0.8-0.5C147.1,79.2,147.2,78.7,147.2,78.2z"/>
			<path d="M156.1,72c0.3-0.5,0.8-0.7,1.3-0.7c0.7,0,1.3,0.4,1.8,1.3s0.7,1.9,0.7,3.2s-0.2,2.4-0.7,3.2s-1.1,1.3-1.8,1.3
				c-0.5,0-0.9-0.2-1.3-0.7v0.6h-2.4v-0.3h0.8V67.7h-0.8v-0.3h2.4V72z M158.2,77.9v-4.2c0-0.6-0.1-1.1-0.3-1.5
				c-0.2-0.3-0.5-0.5-0.8-0.5c-0.2,0-0.5,0.1-0.7,0.4s-0.3,0.6-0.3,0.9v5.6c0,0.3,0.1,0.7,0.3,0.9c0.2,0.3,0.5,0.4,0.7,0.4
				c0.4,0,0.6-0.2,0.8-0.5S158.2,78.6,158.2,77.9z"/>
			<path d="M166.1,76h-3.3v2c0,0.6,0.1,1.1,0.4,1.4c0.2,0.3,0.6,0.5,0.9,0.5c0.4,0,0.8-0.2,1.1-0.7s0.5-1.1,0.6-2h0.3
				c-0.1,1-0.3,1.8-0.7,2.3s-0.9,0.7-1.6,0.7c-0.9,0-1.5-0.4-2-1.2c-0.5-0.8-0.7-1.9-0.7-3.3s0.2-2.5,0.7-3.3
				c0.4-0.8,1.1-1.1,1.9-1.1c0.8,0,1.4,0.4,1.7,1.2C165.9,73.3,166.1,74.5,166.1,76z M164.5,75.7v-2.6c0-0.5-0.1-0.8-0.2-1.1
				c-0.1-0.3-0.3-0.4-0.6-0.4s-0.5,0.2-0.7,0.5s-0.3,0.7-0.3,1.3v2.3C162.7,75.7,164.5,75.7,164.5,75.7z"/>
			<path d="M175.9,77.4c-0.1,1-0.3,1.8-0.6,2.2c-0.3,0.4-0.8,0.7-1.5,0.7c-0.9,0-1.5-0.4-2-1.2c-0.5-0.8-0.7-1.9-0.7-3.3
				s0.2-2.5,0.7-3.3s1.2-1.2,2.1-1.2c0.5,0,0.9,0.1,1.3,0.4c0.3,0.3,0.5,0.7,0.5,1.2c0,0.3-0.1,0.5-0.2,0.7
				c-0.2,0.2-0.4,0.3-0.6,0.3c-0.2,0-0.3-0.1-0.5-0.2c-0.1-0.1-0.2-0.3-0.2-0.5s0.1-0.4,0.2-0.5s0.2-0.2,0.4-0.3
				c0.2,0,0.3-0.1,0.3-0.2s-0.1-0.2-0.3-0.4s-0.4-0.2-0.7-0.2s-0.6,0.2-0.8,0.5s-0.3,0.7-0.3,1.2V78c0,0.6,0.1,1.1,0.4,1.4
				c0.2,0.3,0.6,0.5,0.9,0.5c0.4,0,0.7-0.2,1-0.6c0.2-0.4,0.4-1.1,0.5-1.9H175.9z"/>
			<path d="M179.8,71.3c0.9,0,1.5,0.4,2,1.2c0.5,0.8,0.7,1.8,0.7,3.2c0,1.5-0.2,2.6-0.7,3.4s-1.1,1.2-2,1.2s-1.6-0.4-2-1.2
				c-0.5-0.8-0.7-1.9-0.7-3.4c0-1.4,0.2-2.5,0.7-3.2C178.2,71.7,178.9,71.3,179.8,71.3z M180.9,78.2v-4.5c0-0.7-0.1-1.2-0.3-1.6
				c-0.2-0.3-0.5-0.5-0.8-0.5s-0.6,0.2-0.8,0.5c-0.2,0.4-0.3,0.8-0.3,1.4v4.6c0,0.5,0.1,1,0.3,1.3c0.2,0.4,0.5,0.5,0.8,0.5
				s0.6-0.2,0.8-0.5C180.8,79.2,180.9,78.7,180.9,78.2z"/>
			<path d="M185.9,72c0.3-0.5,0.8-0.7,1.3-0.7c0.7,0,1.3,0.4,1.8,1.3s0.7,1.9,0.7,3.2s-0.2,2.4-0.7,3.2s-1.1,1.3-1.8,1.3
				c-0.5,0-0.9-0.2-1.3-0.7V84h0.8v0.3h-3.2V84h0.8V71.8h-0.8v-0.3h2.4V72z M188.1,77.9v-4.2c0-0.6-0.1-1.1-0.3-1.5
				c-0.2-0.3-0.5-0.5-0.8-0.5c-0.2,0-0.5,0.1-0.7,0.4S186,72.7,186,73v5.6c0,0.3,0.1,0.7,0.3,0.9c0.2,0.3,0.5,0.4,0.7,0.4
				c0.4,0,0.6-0.2,0.8-0.5C188,79,188.1,78.6,188.1,77.9z"/>
			<path d="M193.9,80.2h-3.2v-0.3h0.8v-8.1h-0.8v-0.3h2.4v8.4h0.8V80.2z M192.3,67.3c0.2,0,0.4,0.1,0.6,0.3c0.2,0.2,0.3,0.4,0.3,0.6
				s-0.1,0.4-0.3,0.6s-0.4,0.3-0.6,0.3c-0.2,0-0.4-0.1-0.6-0.3c-0.2-0.2-0.3-0.4-0.3-0.6s0.1-0.4,0.3-0.6
				C191.9,67.4,192.1,67.3,192.3,67.3z"/>
			<path d="M199.8,76h-3.3v2c0,0.6,0.1,1.1,0.4,1.4c0.2,0.3,0.6,0.5,0.9,0.5c0.4,0,0.8-0.2,1.1-0.7s0.5-1.1,0.6-2h0.3
				c-0.1,1-0.3,1.8-0.7,2.3s-0.9,0.7-1.6,0.7c-0.9,0-1.5-0.4-2-1.2c-0.5-0.8-0.7-1.9-0.7-3.3s0.2-2.5,0.7-3.3
				c0.4-0.8,1.1-1.1,1.9-1.1c0.8,0,1.4,0.4,1.7,1.2C199.6,73.3,199.8,74.5,199.8,76z M198.2,75.7v-2.6c0-0.5-0.1-0.8-0.2-1.1
				c-0.1-0.3-0.3-0.4-0.6-0.4s-0.5,0.2-0.7,0.5s-0.3,0.7-0.3,1.3v2.3C196.4,75.7,198.2,75.7,198.2,75.7z"/>
			<path d="M207.2,80.2h-2.4v-0.6c-0.3,0.5-0.8,0.7-1.3,0.7c-0.7,0-1.3-0.4-1.8-1.3c-0.5-0.8-0.7-1.9-0.7-3.2s0.2-2.4,0.7-3.2
				c0.5-0.8,1.1-1.3,1.8-1.3c0.5,0,0.9,0.2,1.3,0.7v-4.4H204v-0.3h2.4v12.5h0.8V80.2z M204.8,78.6V73c0-0.4-0.1-0.7-0.4-0.9
				c-0.2-0.3-0.5-0.4-0.7-0.4c-0.4,0-0.6,0.2-0.8,0.5s-0.3,0.8-0.3,1.5v4.2c0,0.6,0.1,1.1,0.3,1.5s0.5,0.5,0.8,0.5
				c0.2,0,0.5-0.1,0.7-0.4C204.7,79.3,204.8,78.9,204.8,78.6z"/>
		</g>
	</g>
</g>
</svg>
