<?xml version="1.0" encoding="utf-8"?>
<!-- Generator: Adobe Illustrator 26.0.3, SVG Export Plug-In . SVG Version: 6.00 Build 0)  -->
<svg version="1.1" id="Слой_7" xmlns="http://www.w3.org/2000/svg" xmlns:xlink="http://www.w3.org/1999/xlink" x="0px" y="0px"
	 viewBox="0 0 239.5 150.2" style="enable-background:new 0 0 239.5 150.2;" xml:space="preserve">
<style type="text/css">
	.st0{fill:#161616;}
</style>
<g>
	<path class="st0" d="M114.9,82.9c11.7,0,23.4,0,35.1,0c0.4,1.1,1.1,2,2,2.7c-0.9,2.2-2.2,4.3-2.8,6.5l0.4,0.3l0.3-0.2
		c1-2,1.9-4.1,2.8-6.2c1.5,0.2,3.2,0,4.4-1c0.1-0.1,0.2-0.2,0.3-0.3c1.7,2.3,3.8,4.2,5.8,6.3c3.5,3.5,6.9,7,10.4,10.4
		c1.3,1.4,2.9,2.7,4,4.3c0.2,0.2,0.3,0.4,0.5,0.5c1.7,1.2,3,2.9,4.5,4.3c2.7,2.8,5.5,5.6,8.2,8.3c0.5,0.5,1.1,1.3,1.9,0.7
		c-1.9-2.3-4.1-4.4-6.3-6.5c-7.2-7.5-14.7-14.7-21.9-22.2c-2.3-2.2-4.3-4.8-6.8-6.8c0.2-0.4,0.4-0.8,0.6-1.3c1.5,0,3,0,4.5,0
		c0-0.7,0-1.4,0-2c-1.5,0-3,0-4.5,0c-0.4-1.1-1.2-2-2-2.8c4.3-9.5,8.6-19,12.8-28.5c-0.2,0-0.7-0.1-0.9-0.1
		c-4.1,9.5-8.5,18.9-12.7,28.4c-1.1-0.2-2.4-0.3-3.3,0.3c-1.6-1-2.5-3.2-4.4-3.7c0,0.3,0.1,0.9,0.1,1.2c1,1.2,2.1,2.4,3.4,3.2
		c-0.6,0.5-1,1.2-1.2,2c-17.8,0.1-35.7,0-53.5,0.1c0,0.7,0,1.3,0,2C102.6,83,108.7,82.8,114.9,82.9z M155,78.2
		c2.5,0.5,3.7,3.9,2,5.8c-1.6,2.1-5.2,1.6-6.1-0.9C149.5,80.6,152.3,77.4,155,78.2z"/>
	<path class="st0" d="M119.2,66.1c-1.2,0.4-1.1,1.7-0.6,2.6c1,0.6,2,0.5,2.8-0.4C121.6,67,120.6,65.5,119.2,66.1z"/>
	<path class="st0" d="M124.3,58.5c0,1.3,0,2.7,0,4c0.5,0,1,0,1.4,0c0.1-1.3,0.1-2.7,0.1-4.1c5.6,0,11.3,0.1,16.9-0.1
		c0-0.6,0-1.1-0.1-1.7c-3.6,0-7.2,0-10.9,0c-2,0.1-4,0-5.9,0c0-1.9,0-3.7,0-5.6c-0.5,0-1,0-1.5,0c0,1.9,0,3.7,0,5.6
		c-1.4-0.2-3.2,0-4.1-1.4c-0.8-1.3-0.5-3-0.5-4.4c-0.5,0-1,0-1.6,0c-0.1,2.1-0.3,4.5,1.3,6.1C120.6,58.4,122.6,58.4,124.3,58.5z"/>
	<path class="st0" d="M124.4,66.6c0,0.6,0,1.2-0.1,1.8c6.1,0,12.3,0,18.4,0c0-0.4,0-1.2,0-1.6c-4.7-0.3-9.3-0.2-14-0.1
		C127.3,66.5,125.8,66.6,124.4,66.6z"/>
	<path class="st0" d="M195.4,85.1c-1.3,0.9-1.2,2.7-1.7,4c-0.1,0.8-1,1.3-1.8,1.2c-2.1-0.7-1.8-4.3,0.4-4.7c0-0.2-0.1-0.6-0.1-0.7
		c-2.2,0.5-3,3.2-1.9,5c0.6,1.3,2.7,1.5,3.6,0.3c1-1.2,0.5-3.1,1.6-4.3c0.7-0.5,1.8-0.4,2.4,0.3c1,1.4,0.4,4-1.5,4.3
		c0,0.2,0,0.6,0,0.8c2-0.3,3.2-2.6,2.5-4.5C198.6,85.2,196.7,84.3,195.4,85.1z"/>
	<path class="st0" d="M189.9,44.5l0.8,0c0-0.9,0-1.9-0.1-2.8c2.8,0,5.5,0,8.3,0L199,41c-2.8-0.1-5.6,0-8.3,0c0-0.9,0-1.8,0-2.8
		l-0.7,0C190,40.3,189.9,42.4,189.9,44.5z"/>
	<path class="st0" d="M199,37.8c0.3-1.1-1.5-1.1-1.1,0C198.3,37.9,198.7,37.9,199,37.8z"/>
	<path class="st0" d="M214.4,73.1c-2.5-1-5-2.1-7.6-3c0,0.2,0.1,0.6,0.1,0.8c2.1,0.7,4.1,1.6,6.1,2.4c0.5,0.2,1,0.3,1.3,0.8
		c-2.6,0.8-5,2-7.5,2.9c0,0.2,0.1,0.5,0.1,0.7c3-1.3,6.1-2.4,9.1-3.7C215.4,73.6,214.9,73.3,214.4,73.1z"/>
	<path class="st0" d="M207.4,67.7c0-1.5,0-2.9,0-4.4l-0.7-0.1c0,1.7,0,3.4,0,5.1c3,0.1,5.9,0,8.9,0c0-1.7,0-3.5,0-5.2
		c-0.2,0-0.5,0-0.7,0c0,1.5,0,3,0,4.5c-1.2,0-2.3,0-3.5,0c0-1.5,0.1-3-0.2-4.4c-1,1.2-0.3,3-0.5,4.4
		C209.7,67.7,208.6,67.7,207.4,67.7z"/>
	<path class="st0" d="M214.8,44.7c0,0.2,0,0.7,0,1c0.2,0,0.6-0.1,0.8-0.1C216,44.9,215.5,44.6,214.8,44.7z"/>
	<path class="st0" d="M139.9,46.7c2.7-2.3,3.6-6.4,2.7-9.8c-0.7-2.6-2.6-4.9-5.2-5.8c0,0.6,0,1.2,0,1.9c3.8,1.9,4.9,7.2,2.8,10.7
		c-1.2,2.2-3.7,3.3-6.1,3.5c0-5.6,0-11.1,0-16.7c-2.3,0-4.6,0.4-6.4,1.8c-4.2,3.1-4.7,9.8-1.3,13.6C129.7,49.7,136.1,50,139.9,46.7z
		 M126,37.7c0.8-2.9,3.4-5.3,6.4-5.3c0,4.9,0,9.8,0,14.7C128,46.9,124.7,41.9,126,37.7z"/>
	<path class="st0" d="M198.8,51.4c0-0.2,0.1-0.5,0.1-0.7c-2.7,0-5.5,0-8.2,0c0-1.4-0.2-2.9,0.5-4.1c0.8-0.4,1.8-0.7,2.6-0.2
		c1.2,0.8,0.7,2.4,0.9,3.6c1.5-1.2,2.8-2.6,4.2-3.9c0-0.2,0.1-0.7,0.1-1c-1.2,1.2-2.4,2.4-3.6,3.6c-0.1-1.2-0.4-2.7-1.6-3.1
		c-1.4-0.7-3.3,0.2-3.6,1.7c-0.3,1.3-0.1,2.7-0.1,4C192.9,51.3,195.8,51.3,198.8,51.4z"/>
	<path class="st0" d="M194,65.4c0,1.8,0,3.5,0,5.3c-1.4,0-2.8,0-4.2,0c0,0.2,0.1,0.5,0.1,0.7c2.9,0,5.8,0.1,8.8,0l0.2-0.6
		c-1.4-0.1-2.8-0.1-4.2-0.1c0-1.8,0-3.5,0-5.3c1.5,0,3,0.2,4.5-0.2c-0.4-0.3-0.9-0.6-1.5-0.5c-2.3,0-4.7,0-7,0c-0.4,0-1,0.1-1,0.6
		C191.2,65.5,192.6,65.3,194,65.4z"/>
	<path class="st0" d="M215.7,89.3c0-1.7,0-3.4,0-5.1c-0.2,0-0.6,0-0.8,0c0,1.5,0.1,3,0,4.6c-2.8-0.2-5.6-0.2-8.3,0
		c0.1,0.1,0.2,0.4,0.3,0.5C209.8,89.4,212.7,89.2,215.7,89.3z"/>
	<path class="st0" d="M196,62.2c2.4-0.7,3.6-3.6,2.7-5.9c-1-2.8-4.8-3.6-7.1-1.9c-1.5,1-2.1,3-1.7,4.7
		C190.5,61.7,193.6,63.2,196,62.2z M195.9,54.5c2.6,0.7,3.3,4.5,1.3,6.2c-1.9,2-5.8,1.1-6.5-1.6C189.6,56.1,193.1,53.1,195.9,54.5z"
		/>
	<path class="st0" d="M215,56c-2.5,0-5,0-7.5,0c-0.1-0.7-0.1-1.3-0.2-2c-0.1,0.1-0.3,0.3-0.4,0.4c-0.1,1.3-0.1,2.7,0,4
		c0.1,0.1,0.4,0.2,0.5,0.2c0-0.6,0-1.2,0-1.8c2.6-0.1,5.1-0.1,7.7,0c0,0.6,0,1.1,0,1.7l0.7,0.1c0-1.4,0-2.9,0-4.4l-0.7,0
		C215,54.8,215,55.4,215,56z"/>
	<path class="st0" d="M213.7,45.5c0-0.2,0-0.5,0-0.6c-2.3-0.1-4.7-0.1-7,0c0,0.2,0,0.5,0.1,0.7C209.1,45.5,211.4,45.5,213.7,45.5z"
		/>
	<path class="st0" d="M207.4,49.6c0-0.9,0-1.9,0-2.8l-0.7-0.1c0,2.1,0,4.2,0,6.3l0.7-0.1c0-0.9,0-1.8,0-2.7c2.8-0.1,5.7,0.2,8.5-0.2
		c-0.1-0.1-0.4-0.4-0.5-0.5C212.8,49.5,210.1,49.6,207.4,49.6z"/>
	<path class="st0" d="M198.9,92.8c-0.2,0-0.5-0.1-0.6-0.1c-0.1,0.7-0.1,1.3-0.1,2c-2.5,0-5.1,0-7.6,0c0-0.6,0.1-1.1,0.1-1.7
		c-0.2,0-0.6,0-0.8-0.1c0,1.4,0,2.8,0,4.3l0.7-0.1c0-0.6,0-1.2,0-1.8c2.5,0,5,0,7.6,0c0,0.7-0.1,1.5,0.3,2.1
		C199.4,96.1,198.8,94.3,198.9,92.8z"/>
	<path class="st0" d="M192.3,73.6c-2.6,0.4-3.1,3.7-1.6,5.5c0.9,0.6,2.2,0.9,3.1,0c1.2-1.2,0.7-3.1,1.7-4.5c0.6-0.8,1.7-0.5,2.5,0
		c1,1.7,0.5,4.1-1.6,4.6c0,0.2,0.1,0.5,0.1,0.7c2.7-0.4,3.5-4.1,1.6-5.9c-1-0.9-2.8-0.7-3.5,0.6c-0.6,1.3-0.5,2.9-1.3,4.1
		c-0.7,0.1-1.6,0.3-2.2-0.3c-0.6-0.9-0.7-2.2-0.1-3.2C191.3,74.5,192.6,74.6,192.3,73.6z"/>
	<path class="st0" d="M207.7,81.2c2.4,0,4.8,0,7.3,0c0,0.6,0,1.2,0,1.8c0.2,0,0.5,0,0.7,0c0-1.4,0-2.9,0-4.3c-0.2,0-0.5,0-0.7,0
		c0,0.6,0,1.2,0,1.8c-2.5,0-5-0.1-7.4,0c-0.1-0.7-0.2-1.4-0.4-2c-0.7,0.6-0.3,1.6-0.4,2.4c0.1,0.8-0.3,1.9,0.5,2.4
		C207.4,82.6,207,81.7,207.7,81.2z"/>
</g>
</svg>
