<svg width="12" height="10" viewBox="0 0 12 10" fill="none" xmlns="http://www.w3.org/2000/svg">
<path fill-rule="evenodd" clip-rule="evenodd" d="M11.8764 7.83487C11.8764 8.7516 11.1333 9.49032 10.221 9.49032H1.93476C1.01803 9.49032 0.279297 8.74715 0.279297 7.83487V1.95619C0.279297 1.03945 1.02248 0.30072 1.93476 0.30072H10.221C11.1377 0.30072 11.8764 1.0439 11.8764 1.95619V7.83487Z" fill="url(#paint0_linear_93_8197)"/>
<path d="M11.8755 3.19229V2.97868H9.74834V0.295227H9.53473V2.97868H7.81252C7.58556 2.25776 6.94919 1.72818 6.17486 1.65698V0.295227H5.96125V1.64363C5.12461 1.65698 4.42149 2.2177 4.18118 2.98313H2.62807V0.299678H2.41446V2.98313H0.273926V3.19674H2.41446V6.20506H0.273926V6.41867H2.41446V9.49374H2.62807V6.41867H4.14558C4.33694 7.2553 5.08011 7.88277 5.97015 7.90057V9.49374H6.18375V7.88277C7.01149 7.80267 7.68346 7.20635 7.86592 6.41867H9.54364V9.49374H9.75724V6.41867H11.8844V6.20506H10.6161V3.19674H11.8755V3.19229ZM4.11442 6.2006H2.62807V3.19229H4.13222C4.10997 3.30799 4.09663 3.42815 4.09663 3.54831C4.09663 3.99332 4.25683 4.42499 4.54609 4.76765C4.25683 5.11477 4.09663 5.54198 4.09663 5.987C4.09218 6.06265 4.10552 6.1294 4.11442 6.2006ZM6.0013 7.68697C5.06676 7.68697 4.30578 6.92598 4.30578 5.99145C4.30578 5.56868 4.46599 5.15927 4.7597 4.8433L4.82645 4.7721L4.7597 4.7009C4.46599 4.38494 4.30578 3.97552 4.30578 3.55275C4.30578 2.61822 5.06676 1.85724 6.0013 1.85724C6.93584 1.85724 7.69681 2.61822 7.69681 3.55275C7.69681 3.97552 7.53661 4.38494 7.2429 4.7009L7.17614 4.7721L7.2429 4.8433C7.53661 5.15927 7.69681 5.56868 7.69681 5.99145C7.70126 6.92598 6.94029 7.68697 6.0013 7.68697ZM10.3981 6.2006H7.89262C7.90152 6.1294 7.91487 6.06265 7.91487 5.987C7.91487 5.54198 7.75467 5.11477 7.46541 4.76765C7.75467 4.42054 7.91487 3.99332 7.91487 3.54831C7.91487 3.42815 7.90152 3.30799 7.87927 3.19229H10.3981V6.2006Z" fill="url(#paint1_linear_93_8197)"/>
<defs>
<linearGradient id="paint0_linear_93_8197" x1="6.07658" y1="-2.17696" x2="6.07658" y2="21.0179" gradientUnits="userSpaceOnUse">
<stop stop-color="#FFCA3F"/>
<stop offset="0.0969" stop-color="#CA7C22"/>
<stop offset="0.1888" stop-color="#FDDB7A"/>
<stop offset="0.4201" stop-color="#FFAD45"/>
<stop offset="0.5538" stop-color="#A95F0D"/>
<stop offset="0.6562" stop-color="#FFAD45"/>
<stop offset="0.7903" stop-color="#FFFF9B"/>
<stop offset="0.868" stop-color="#FFED7C"/>
<stop offset="1" stop-color="#FFCA3F"/>
</linearGradient>
<linearGradient id="paint1_linear_93_8197" x1="6.07566" y1="-7.79995" x2="6.07566" y2="21.2418" gradientUnits="userSpaceOnUse">
<stop stop-color="#FFCA3F"/>
<stop offset="0.0969" stop-color="#CA7C22"/>
<stop offset="0.1888" stop-color="#FDDB7A"/>
<stop offset="0.4201" stop-color="#FFAD45"/>
<stop offset="0.5538" stop-color="#A95F0D"/>
<stop offset="0.6562" stop-color="#FFAD45"/>
<stop offset="0.7903" stop-color="#FFFF9B"/>
<stop offset="0.868" stop-color="#FFED7C"/>
<stop offset="1" stop-color="#FFCA3F"/>
</linearGradient>
</defs>
</svg>
