<?xml version="1.0" encoding="utf-8"?>
<!-- Generator: Adobe Illustrator 24.0.2, SVG Export Plug-In . SVG Version: 6.00 Build 0)  -->
<svg version="1.1"
	 id="Слой_1" shape-rendering="geometricPrecision" image-rendering="optimizeQuality" text-rendering="geometricPrecision" xmlns:xodm="http://www.corel.com/coreldraw/odm/2003"
	 xmlns="http://www.w3.org/2000/svg" xmlns:xlink="http://www.w3.org/1999/xlink" x="0px" y="0px" viewBox="0 0 238.1 150.2"
	 style="enable-background:new 0 0 238.1 150.2;" xml:space="preserve">
<style type="text/css">
	.st0{fill-rule:evenodd;clip-rule:evenodd;}
</style>
<g id="Layer_x0020_1">
	<path class="st0" d="M85.8,93l0.4,0.3v0.1l0.9,2v0.1l0.5,1.2c0,0,0,0.1,0.1,0.1s0,0.1,0.1,0.1l3.1,5.2c0,0,0,0.1,0.1,0.1l2.3,3.1
		c0.4,0.8,1.1,1.2,1.6,2c0.5,0.8,1.3,1.4,1.9,2c0.3,0.3,0.4,0.5,0.8,0.6v0.5l-2.6,0.9h-0.1h-0.1c0,0-0.1,0-0.1,0.1l-1.9,0.7h-0.1
		h-0.1l-1.2,0.5h-0.1l-0.3,0.1h-0.1l-0.9,0.5c-0.2,0.1-0.3,0.1-0.4,0.2l-6.5,2h-0.1l-2.1,0.6h-0.1l-2.1,0.4h-0.1l-0.4,0.2
		c-0.2,0.1-0.3,0-0.5,0.1l-1.7,0.3c-1.1,0.1,0,0.2-1,0.3l-2.4,0.2c-0.3,0.1,0.3,0-0.4,0.2c-0.7,0.1-2,0-2.5-0.2l-1.1-0.3
		c-0.4-0.2-0.7-0.2-1.1-0.6l-0.6-0.9c-0.1-0.1,0,0.1-0.1-0.3c-0.2-0.9,0.1-1.7,0.3-2.4l0.2-0.4c0.5-1,1-2.4,1.9-3.2l2.8-3.6
		c0.5-0.8,2.4-2.4,3.1-3.2c0.9-0.9,1.7-2,2.8-2.6l0.2-0.1c0.2-0.1,0.3-0.2,0.3-0.3l0.9-1c0.5-0.5,0.5-0.3,1.1-0.9l3.1-2.6
		c0,0,0.1,0,0.1-0.1c0,0,0.1,0,0.1-0.1c0.4-0.3,0.9-1,1.3-1.2c0.2-0.1,0.1,0,0.3-0.2C85.4,93.6,85.6,93.3,85.8,93z M36.9,135.9
		c1,0,0.7,0.7,1.8,0.9c0.3,0,2.4,0,2.6,0l2.4-0.7c0,0,0.1,0,0.1-0.1l1.5-0.6v-0.9c-0.3-0.1-0.2,0.1-0.3-0.3h-0.9
		c-0.2,0.4-0.3,0.3-0.7,0.3l-0.2,0.1c-0.7,0.3-1.6,0.6-2.3,0.7c-0.4,0-1.1,0-1.6,0c-1,0-1.6-0.4-1.9-1.3l-0.3-0.9
		c-0.1-0.4-0.1-1,0-1.4l2.4-5.2l1.4-2c0.3-0.5-0.3-0.2,0.3-0.4v-0.5c-0.3-0.1-0.2,0.1-0.3-0.3h-0.9l-2.9,4.5l-0.1,0.2l-0.2,0.3
		c0,0,0,0.1-0.1,0.1l-0.1,0.2l-0.5,1.1v0.1l-0.4,1.6v0.1l0.5,3.7C36.9,135.7,36.9,135.1,36.9,135.9L36.9,135.9z M217.5,26.3v1.1
		c0.3,0.1,0.2-0.1,0.3,0.3c0.3-0.1,0.2,0.1,0.3-0.3h2.5c0.2,0.4,0.5,0.5,0.8,1l0.2,0.3c0.3,0.7,0.3,1.8,0,2.4v0.1l-0.3,1.2
		c-0.2,0.4-0.4,0.6-0.6,1c0,0,0,0.1-0.1,0.1l-0.1,0.2c-0.3,0.4-0.4,0.5-0.8,1c0,0,0,0.1-0.1,0.1l-1.9,2.4c0,0-0.1,0.2-0.2,0.3
		l-0.2,0.2l-4.9,4.6c-0.3,0.3-0.2,0.3-0.5,0.3v0.5c0.3,0.1,0.2-0.1,0.3,0.3h0.9c0.2-0.5,0.6-0.7,1-1c0.3-0.2,0.3-0.3,0.5-0.4
		l2.7-2.7c1.4-1.4,2.5-2.4,3.2-3.4c0,0,0-0.1,0.1-0.1l0.9-1.2c0.5-1,0.9-1.2,1.3-2.5l0.3-1v-0.1c0-0.1,0.1,0.1,0.1-0.4
		c0.2-1-0.1-1.7-0.3-2.4c-0.2-0.6-0.5-1.1-1-1.5l-1.4-0.7C219.2,25.7,217.9,26.3,217.5,26.3z M141.4,45.2h-1.7
		c-0.2-0.6-0.4-0.1-0.9-2.1c-0.1-0.3,0-0.2-0.1-0.3c-0.1-0.3,0,0.3-0.2-0.4s0.1-1.7-0.1-2.4v-0.1c-0.3-0.8-0.3-2.4-0.2-3.1
		c0.2-0.7,0.3,0.3,0.3-1.7c0-1.3,0-2.6,0-3.9l0.3,0.2c0.5,0.2,0.7,0,1.2,0.2l4,1h0.1l0.8,0.2v0.5c-0.5,0.2-0.1-0.1-0.3,0.4l-0.7,2.3
		c-0.2,1.2,0.3,0-0.3,1.7c-0.2,0.7,0.1,1.7-0.1,2.4c-0.2,0.6-0.3,0-0.3,1.1c0,0.7-0.2,1-0.3,1.6v0.1l-0.3,0.5c0,0,0,0.1-0.1,0.1
		C142.1,44.8,141.7,44.5,141.4,45.2L141.4,45.2z M127.3,30.5c1.7,0,3.3,0,5,0c0.5,0,1.9-0.1,2.4,0c0.5,0.1,0.3,0.3,1,0.3
		c0.3,0,0.9,0,1.3,0l0.1,2.1c-0.2,0.6-0.3,8,0,8.9v0.1c0.2,0.5,0,0.9,0.2,1.4l0.2,0.5c0,0.1,0.1,0.2,0.1,0.3v0.1
		c0.3,0.9,0.7,1.6,1.7,2.3l0.5,0.3c0.7,0.3,1.8-0.3,2.4-0.6c0.4-0.3,0-0.3,0.9-0.4l0.2-0.5c0.3-0.4,0.5-0.5,1-1.3l1-4.5
		c0.3-0.7,0.2-1.5,0.2-2.3l0.7-2.7c0,0,0-0.1,0.1-0.1c0.2-0.3,0.3-0.6,0.3-1h0.5c0.2,0.4,1.1,0.7,1.6,0.9l1.1,0.5
		c0.1,0.1,0.2,0.1,0.3,0.2l0.3,0.2c0.1,0.1,0.2,0.1,0.3,0.2l2.2,1c0.2,0.1,0.1,0,0.3,0.2l0.5,0.3c0,0,0.1,0,0.1,0.1
		c0,0,0.1,0,0.1,0.1l0.3,0.2c0.3,0.2,0.1,0.1,0.3,0.2c0.5,0.3,0.7,0.7,1.4,0.7v14.1c-0.4,0.2-0.2-0.3-0.3,0.5l-1.1,4.4
		c0,0,0,0.1-0.1,0.1c0,0,0,0.1-0.1,0.1l-0.2,0.4c-0.3,0.8-1,1.6-1.6,2.1l-1.3,0.6c-0.9,0-1.5-0.5-2.1-1c-0.3-0.3-0.6-0.7-0.7-1.1
		c-0.1-0.3,0-0.3-0.1-0.5c-0.1-0.3,0-0.2-0.1-0.3l-0.1-0.2V57c-0.1-0.3-0.1-0.4-0.2-0.8l-0.3-1.3c-0.2-0.7-0.4-1.5-1-2l-0.8-0.6
		c-0.3-0.1,0,0-0.3-0.1l-0.4-0.2c-0.5-0.2-0.6-0.2-1.1,0l-1.1,0.3c0,0-0.1,0-0.1,0.1c-0.4,0.3-0.8,0.3-1.1,0.7l-0.5,0.5
		c-0.8,0.8-1.5,1.7-1.9,2.7l-1.3,5.1c-0.1,0.7-0.2,0.5-0.3,1.6c-0.1,1-0.3,0.6-0.3,1.6c0,0.3,0,0.4-0.1,0.8l-0.3,0.8
		c0,0.3,0,0.5,0,0.8c-0.1,0.4-0.1,0.2-0.1,0.3l-0.1,0.2v0.1l-0.2,0.7v0.1l-1.1,2.5l-0.2,0.2l-0.5,0.5c-0.1,0.1,0,0.1-0.2,0.2
		l-0.4,0.3c0,0-0.1,0-0.1,0.1l-2.4,0.1c-0.3-0.1,0,0-0.3-0.1c-0.5-0.3-1-0.7-1.3-1.1c-0.9-1-1.2-2.6-1.6-3.9c-0.2-0.6-0.3-2.3-0.1-3
		l1.5-4.5c0,0,0-0.1,0.1-0.1l2.1-4.7l0.1-0.2l1-2.8v-0.1c0.1-0.3,0.1-0.4,0.2-0.7v-0.1c0.3-0.9,0.3-2.9,0-3.8l-1.4-3.8
		c0,0,0-0.1-0.1-0.1l-0.5-1L131,42l-0.8-1.3c0,0,0-0.1-0.1-0.1c0,0,0-0.1-0.1-0.1l-1.6-2.8c0,0,0-0.1-0.1-0.1l-1-3.3
		c-0.3-0.8-0.1-1.8-0.3-2.6L127.3,30.5L127.3,30.5z M111.7,34.2c0.6,0,0.8-0.2,1.3-0.3c0.3-0.2,0,0,0.4-0.2c0.3-0.1,0.2,0,0.4-0.1
		l1.3-0.5h0.1l2.7-0.8h0.1l1.3-0.3h0.1l2.4-0.5c0.4-0.2,1-0.1,1.5-0.2c0.3-0.1-0.3,0,0.4-0.2c0.5-0.1,1.1,0.1,1.6-0.1
		c0.3-0.1-0.2,0,0.3-0.2c0,0.9-0.2,2,0.1,2.7l0.8,3v0.1l0.3,0.8c0.1,0.3,0.1,0.3,0.2,0.6l0.3,0.4c0,0,0,0.1,0.1,0.1l0.3,0.4
		c0,0,0,0.1,0.1,0.1l3.1,5.7c0,0,0,0.1,0.1,0.1v0.1l0.4,1.4v0.1l0.2,0.4c0.1,0.5,0,1,0.1,1.5v0.1v0.4c0,0.2,0-0.1-0.1,0.3
		c-0.2,1,0.1,1-0.3,2.4l-1,2.7c0,0,0,0.1-0.1,0.1l-0.5,1.3c0,0,0,0.1-0.1,0.1c0,0,0,0.1-0.1,0.1c0,0,0,0.1-0.1,0.1
		c0,0,0,0.1-0.1,0.1l-0.8,1.6c0,0,0,0.1-0.1,0.1l-1.7,4.7c-0.1,0.5-0.3,0.7-0.3,1.3l-0.1,1c-0.2,0.6,0.1,0.1-0.1,1.3l0.5,2.9V69
		l0.9,1.7c0,0,0,0.1,0.1,0.1l0.8,1c0.5,0.5,1,1,1.5,1.5c1,0.5,2.4,0.8,3.3,0.4l0.6-0.2h0.1c0.5-0.2,0.8-0.6,1.3-1
		c0.2-0.1,0.1,0,0.3-0.2c0.3-0.3,0.5-0.7,0.8-1l0.1-0.2c0,0,0-0.1,0.1-0.1l0.1-0.2c0,0,0-0.1,0.1-0.1c0,0,0-0.1,0.1-0.1l1.5-4.5
		c0.1-0.6-0.1-0.9,0.1-1.5c0.2-0.4,0.1,0.3,0.2-0.5c0-0.3,0-0.4,0-0.7c0.1-1.1,0.3,0,0.3-1.3c0-0.3,0-0.4,0-0.7v-0.1v-0.1
		c0.3-0.9,0.3-1.7,0.5-2.4v-0.1l1-2.5c0.1-0.1,0.1-0.3,0.2-0.3c0,0,0-0.1,0.1-0.1c0,0,0-0.1,0.1-0.1l2-1.8c0.8-0.4,1.3-0.3,2.4-0.3
		l0.6,1.4v0.1v0.1l0.1,0.2c0.2,0.4,0,0.7,0.2,1.1l0.5,2.3v0.1v0.1V59c0,0,0,0.1,0.1,0.1c0.2,0.4,0.1,0.2,0.3,0.4
		c0.1,0.1,0.2,0.3,0.3,0.3l0.1,0.2c0,0,0,0.1,0.1,0.1l2.4,1.6c0.6,0.2,1.8,0.1,2.2-0.1l2.1-2c0,0,0-0.1,0.1-0.1c0,0,0-0.1,0.1-0.1
		l1.6-3.2c0.4-1.3,0.5-2.5,0.8-3.3c0.4-1.4-0.2-4.4,0.2-5.8l0.1-0.3v-0.1l-0.1-0.2c-0.1-0.2-0.1-0.1-0.1-0.3c0-0.3,0-1,0-1.4
		c0-1.7,0-3.6,0-5.3h0.5l0.7,0.8c0,0,0.1,0,0.1,0.1c0.2,0.1,0.1,0,0.3,0.2c0.5,0.3,1,0.9,1.4,1.3l0.5,0.4c0,0,0.1,0,0.1,0.1l4.4,4.5
		c0,0,0.1,0.1,0.2,0.2l4.5,6.2c0,0,0,0.1,0.1,0.1l1.7,3.1c0,0.1,0.1,0.2,0.2,0.3l0.1,0.2c0,0,0,0.1,0.1,0.1c0,0,0,0.1,0.1,0.1
		l2.9,8.1c0.1,0.4-0.1,0.3,0.3,0.4v0.3c-0.7,0-1.3,1-1.5,1l-1.8,1.3c-0.3,0.2,0.1,0-0.3,0.3l-2.8,2c0,0-0.1,0-0.1,0.1l-2.5,1.9
		c0,0-0.1,0-0.1,0.1c0,0-0.1,0-0.1,0.1l-0.3,0.2c-0.3,0.2-0.4,0.5-0.8,0.6c-0.2,0.1-0.1,0.1-0.3,0.1c0-0.1,0-0.3,0-0.4l1.6-4.5
		c0.2-0.5,0.2-1.5,0.1-2.1l-0.4-1.4c-0.3-0.6-1-1.2-1.6-1.6l-1-0.3c-0.7-0.3-3.1-0.3-3.8,0l-0.3,0.1h-0.1c-0.2,0.1-0.3,0-0.5,0.1
		l-1.3,0.4c-0.1,0-0.2,0.1-0.3,0.1l-1.9,0.9c0,0-0.1,0-0.1,0.1c0,0-0.1,0-0.1,0.1l-3.5,2.4c-0.2,0.1-0.3,0.2-0.3,0.3l-1.5,1
		c-0.4,0.3,0.3-0.2-0.2,0.1c-0.3,0.2-0.1,0.1-0.3,0.3l-0.6,0.5c0,0-0.1,0-0.1,0.1l-1,0.9c0,0-0.1,0.1-0.2,0.1l-0.2,0.1l-0.2,0.1
		l-0.2,0.1c-0.2,0.2-0.3,0.3-0.5,0.5l-3.3,3.6c0,0-0.1,0.1-0.1,0.2l-0.9,1c0,0,0,0.1-0.1,0.1l-2.8,4.5c-0.1,0.3,0,0-0.1,0.3
		l-0.5,1.2v0.1v0.1L137,85c-0.5,1.7-0.3,1.7-0.5,2.6c-0.2,0.7,0,0-0.2,0.4c-0.2,0.6,0,1.5-0.2,2.2c-0.1,0.5-0.3,0.3-0.2,0.8l0.2,0.3
		l0.1,0.1c-0.4,0.2-0.6,0.5-1,0.8l-2.4,1.4l-0.2,0.1l-4.1,2.3c-0.1,0.2-0.1,0-0.2,0.3H128c0-0.2,0-0.3,0-0.5l-0.3-2.2
		c-0.2-0.5-0.1-1.1-0.2-1.7c-0.2-1-0.2,0.2-0.3-1c0-0.2,0-0.3,0-0.5l-0.4-1.6c-0.1-0.1-0.1-0.3-0.2-0.4l-0.3-0.7c0,0,0-0.1-0.1-0.1
		l-2.5-2.5l-3.1,0.7c0,0-0.1,0-0.1,0.1l-0.9,0.5c0,0-0.1,0-0.1,0.1c0,0-0.1,0-0.1,0.1l-1.7,1.3c-0.6,0.6-1.2,1.1-1.7,1.8l-0.1,0.2
		c-0.1,0.2-0.2,0.3-0.3,0.3l-3.8,3.8c-0.1,0.1-0.3,0.3-0.3,0.3l-1.5,0.9c-0.3,0.2-0.3,0.1-0.4,0.3h-1.7c-0.2-0.4,0-0.2-0.3-0.5
		c-0.2-0.2-0.3-0.3-0.4-0.4s-0.1-0.4-0.2-0.6c-0.2-0.6-0.2-1.7-0.2-2.5c0-0.2,0-0.3,0-0.3c0.1-0.3,0.1-0.3,0.1-0.3l1.4-4.5
		c0.3-0.9,0.3-2.6,0-3.5l-1.9-3.2c-0.2-0.2-0.1-0.1-0.3-0.3l-0.6-0.3c-0.9-0.2-2.3,0.3-2.9,0.6l-2,1.1c-0.4,0.3-0.7,0.7-1.1,1
		l-1.7,1.7c-0.3,0.4-0.9,0.9-1.2,1.3l-4.2,8.1c0,0,0,0.1-0.1,0.1l-1.3,3.1c0,0,0,0.1-0.1,0.1c0,0,0,0.1-0.1,0.1l-0.1,0.2
		c0,0,0,0.1-0.1,0.1l-0.2,0.3l-0.1,0.2l-0.2,0.3c-0.1,0.2,0-0.1-0.1,0.3c0,0.2,0,0.3,0,0.5h-0.3c0,0,0-0.1-0.1-0.1
		c0,0,0-0.1-0.1-0.1l-1-1.9c0,0,0-0.1-0.1-0.1l-2.7-7.3c-0.2-0.6-0.4-1-0.4-1.5l-0.8-4.2c-0.2-0.5-0.1-1-0.3-1.6l-0.1-0.9
		c0-0.5,0-1,0-1.6l0.3-0.2c0,0,0.1,0,0.1-0.1l0.7-0.3c0,0,0.1,0,0.1-0.1c0,0,0.1,0,0.1-0.1l0.4-0.2h0.1l3.8-1.3
		c0.2-0.1,0.3-0.1,0.5-0.2h0.1l0.2-0.1c0.3-0.1,0.1,0,0.3-0.1l1.6-0.4h0.1h0.1c0.3-0.1,0.4-0.1,0.7-0.2h0.1l0.2-0.1h0.1l5.2-1.6h0.1
		l1.3-0.4c0.1,0,0.2-0.1,0.3-0.1l1-0.4c0.5-0.3,1.1-0.4,1.7-0.8c0.2-0.1,0,0,0.3-0.2l1.2-0.6c0,0,0.1,0,0.1-0.1l1.9-1
		c0,0,0.1,0,0.1-0.1l2.9-1.7c0,0,0.1,0,0.1-0.1l3.1-2.1c0,0,0.1,0,0.1-0.1l0.4-0.3c0.7-0.7,1-0.7,2.1-1.8c0.5-0.5,1-1,1.6-1.6
		c0.2-0.2,0.3-0.3,0.3-0.3c0,0,0.1-0.1,0.2-0.2l2.1-2.9c0,0,0-0.1,0.1-0.1l2.3-3.9c0,0,0-0.1,0.1-0.1c0,0,0-0.1,0.1-0.1l1.1-3.1
		c0.1-0.3,0.1-0.3,0.1-0.6v-0.1l0.1-0.2c0.3-0.8,0.3-2.6,0-3.4v-0.1c-0.1-0.2,0-0.1-0.1-0.3l-0.3-1.2v-0.1l-0.1-0.2
		c0,0,0-0.1-0.1-0.1l-2-2.8l-0.7-0.4c-0.7-0.3-4.5-0.3-5.4,0.1c-0.8,0.3-3.6,0.2-4.5,0.1c-0.2,0-0.3,0-0.3,0
		c-0.3-0.1-0.3-0.1-0.3-0.1h-0.1l-1.3-0.5c0,0-0.1,0-0.1-0.1c-0.7-0.3-1-1-1.4-1.7l-0.3-0.8c-0.2-0.5,0-0.8-0.4-1v-0.9l3.4-1.8
		c0,0,0.1,0,0.1-0.1c0,0,0.1,0,0.1-0.1L110,35c0,0,0.1,0,0.1-0.1l1-0.5c0,0,0.1,0,0.1-0.1l0.3-0.2C111.8,34.3,111.6,34.6,111.7,34.2
		L111.7,34.2z M157.6,37.6L157.6,37.6l-2-1.3l-0.2-0.1l-7-3.6h-0.1c-0.2-0.1-0.2,0-0.3-0.1l-1.1-0.5c-0.4-0.3-1-0.3-1.4-0.4
		l-0.6-0.2h-0.1l-0.2-0.1c-0.1-0.1-0.2-0.1-0.3-0.1l-1.7-0.5c-0.2-0.1-0.2-0.1-0.3-0.1l-1.7-0.3h-0.1l-0.9-0.1
		c-0.7-0.1-0.3-0.2-1.6-0.3l-0.5-0.2c-0.8-0.3-1.8,0-2.5-0.3c-0.8-0.3-7.9-0.3-8.7,0l-2.4,0.3c-0.5,0.2-1,0-1.5,0.2l-1.5,0.3
		c-0.1,0,0.1,0-0.3,0.1l-2.2,0.5c-0.3,0.1-0.3,0-0.5,0.1c-0.3,0.1-0.1,0-0.3,0.1l-3.7,1.2c-0.2,0.1-0.2,0.1-0.3,0.1
		c-0.3,0.1-0.8,0.2-0.9,0.5h-0.9v0.3c-0.5-0.1-0.1-0.1-0.4,0l-6.2,3.4c0,0-0.1,0-0.1,0.1l-0.3,0.3l-4.6,3.5c0,0-0.1,0-0.1,0.1
		c0,0-0.1,0-0.1,0.1c0,0-0.1,0-0.1,0.1l-0.2,0.1c-0.8,0.6-2.9,2.9-3.7,3.7l-1.6,1.8c0,0-0.1,0.1-0.1,0.2c-0.2,0.2-0.1,0.1-0.3,0.3
		c-0.3,0.3-0.1,0-0.3,0.3l-1.1,1.7c-0.3,0.4,0.2-0.3-0.1,0.2c-0.3,0.3-0.1,0.1-0.3,0.3l-0.5,0.8l-0.3,0.3c0,0,0,0.1-0.1,0.1
		l-1.1,1.7c0,0,0,0.1-0.1,0.1l-1.2,2.2c0,0,0,0.1-0.1,0.1l-0.4,0.9l-0.1,0.2l-0.4,1c0,0,0,0.1-0.1,0.1l-2.1,4.2
		c-0.1,0.2,0,0.1-0.1,0.3l-1.7,6.3c0,0.3,0,0.3,0,0.6c-0.1,1.1-0.1,0-0.3,1c-0.1,0.6,0.1,1.2-0.2,1.8c-0.3,0.9,0,2.4-0.3,3.2
		c-0.3,0.7-0.2,3.6-0.1,4.3c0.1,0.9,0.3,0.3,0.3,2.1c0,1,0.3,1.2,0.3,2.3l-2.5,1.7c0,0-0.1,0-0.1,0.1c0,0-0.1,0-0.1,0.1L80.1,85
		c0,0-0.1,0-0.1,0.1c0,0-0.1,0-0.1,0.1c-0.2,0.1-0.1,0-0.3,0.2l-2.6,1.8c0,0-0.1,0-0.1,0.1l-1,0.7c0,0-0.1,0-0.1,0.1L75,88.8
		c0,0-0.1,0-0.1,0.1c0,0-0.1,0-0.1,0.1c-0.2,0.1-0.1,0.1-0.3,0.2l-0.4,0.2c0,0-0.1,0-0.1,0.1c-0.2,0.1-0.1,0-0.3,0.2l-1.9,1.5
		c0,0-0.1,0-0.1,0.1l-0.2,0.1l-0.3,0.3L71,91.7c-0.6,0.3-0.8,0.6-1.1,0.9l-1.3,1c-0.4,0.3,0.3-0.2-0.2,0.1l-4.9,3.8
		c0,0-0.1,0-0.1,0.1l-1.3,1c-0.4,0.3-0.7,0.8-1.1,1l-0.2,0.1l-1.1,1l-0.3,0.3c0,0-0.1,0-0.1,0.1l-1,0.8c-0.1,0.1-0.3,0.3-0.3,0.3
		s-0.1,0.1-0.2,0.2l-0.5,0.3c-0.7,0.4-1.1,1.2-1.9,1.7l-1.2,1.1c-0.1,0.1-0.2,0.2-0.3,0.3l-2.4,2.1c-0.7,0.7-1,0.7-2,1.7
		c-1.7,1.7-3.3,3.3-5,5c-1.3,1.3-2.4,2.3-3.1,3.4c-0.6,0.9-1.1,1-1.7,2l-0.8,0.9c-0.3,0.4,0.2-0.3-0.1,0.2l-2.4,3.1
		c0,0-0.1,0.1-0.1,0.2l-0.6,1c0,0,0,0.1-0.1,0.1l-1,1.7c0,0,0,0.1-0.1,0.1l-1.7,4.1v0.1c-0.3,0.6-0.1,1.3-0.3,2l1,3.8
		c0.1,0.1,0.3,0.3,0.3,0.3l1,0.8c0.3,0.3-0.2-0.1,0.2,0.1l0.1,0.1l2.1,0.9h0.1l0.2,0.1c2.5,0.9,5.1,0.5,7.8,0.6c1,0,1.1-0.3,2.1-0.3
		c0.3,0,1,0.1,1.2,0c0.7-0.2,0,0,0.4-0.2l1.1-0.1c0.8-0.1,0.2,0,0.5-0.2c0.5-0.2,0.6,0,1.1-0.1c0.6-0.1,0.1-0.2,1.6-0.3
		c0.3,0-0.1,0,0.3,0c0.4-0.1,0.2-0.1,0.3-0.1l1.2-0.3h0.1l1.1-0.3c0.3-0.1,0.3-0.1,0.6-0.1l1-0.3h0.1l1.9-0.5c0.3-0.1,0.3,0,0.5-0.1
		l1.5-0.5c0.3-0.1,0.3,0,0.5-0.1h0.1l1.3-0.3c0.1,0,0.3-0.1,0.4-0.2l5.7-1.9c0.3-0.1-0.1,0.1,0.2-0.1l4.4-1.6c1-0.3,2-0.6,2.9-1
		l0.2-0.1l2.4-1c0.1,0,0.2-0.1,0.3-0.1h0.1h0.1l7.5-3.1h0.1l3.5-1.5c0,0,0.1,0,0.1-0.1l1.2-0.6c1.2-0.4,1.7-0.9,2.8-1.2l0.3-0.1
		c0.8-0.3,0.8-0.3,1.5-0.7l0.3-0.2c0,0,0.1,0,0.1-0.1l1.7-0.7c0,0,0.1,0,0.1-0.1c0,0,0.1,0,0.1-0.1l2.4-1.1c0.3-0.1,0.3-0.1,0.5-0.2
		l2.7-1.3c0.1-0.1,0.3-0.2,0.3-0.2l2.1-1c0.4-0.1,0.6,0.1,0.9,0.3l3.1,1.4c0,0,0.1,0,0.1,0.1l2.2,0.8h0.1l3.8,1.2h0.1l1,0.3h0.1
		l1.1,0.3c0.3,0.1,0.2,0,0.5,0.1c0.3,0,0.2,0,0.5,0.1l0.2,0.1c0.2,0.1-0.1,0,0.3,0.1s0.8,0,1.2,0.1l0.2,0.1h0.1l0.7,0.1
		c2.1,0,1.3,0.2,2.3,0.3c1.2,0.1,7,0.1,7.5-0.1c0.6-0.2,2.2-0.2,2.7-0.3l1.1-0.1c0.8-0.1,0.5-0.2,1.6-0.3l1.6-0.3h0.1l2.9-0.8h0.1
		h0.1h0.1h0.1l3.6-1.2h0.1l1.4-0.7c0,0,0.1,0,0.1-0.1l1.6-0.7c0.1,0,0.3-0.3,0.4-0.3c0,0,0.1,0,0.1-0.1l0.4-0.2h0.1
		c0.3-0.2,0,0,0.3-0.2c0.3-0.2,0.1-0.1,0.3-0.3l0.2-0.1c0,0,0.1,0,0.1-0.1l0.3-0.2c0,0,0.1,0,0.1-0.1l0.2-0.1l0.7-0.3
		c0,0,0.1,0,0.1-0.1c0.1,0,0.3-0.3,0.4-0.3l1.1-0.7c0,0,0.1,0,0.1-0.1c1-0.4,1.8-1.4,2.5-1.8c0.1,0,0.2-0.1,0.2-0.1l2.6-2.2
		c1-0.6,3.4-3.1,3.8-3.7c0.3-0.5,0.8-1,1.6-1.7l1.4-1.9c0,0,0-0.1,0.1-0.1c0,0,0.1-0.1,0.1-0.2l1.3-1.8c0,0,0-0.1,0.1-0.1
		c0.1-0.2,0.2-0.3,0.3-0.3l0.3-0.7l0.1-0.2l0.6-0.9c0,0,0-0.1,0.1-0.1c0.1-0.1,0.1-0.1,0.2-0.3l1-2l0.1-0.2c0,0,0-0.1,0.1-0.1
		l0.1-0.2l3.6-9.6v-0.1c0.3-0.6,0.2-1.1,0.3-1.5l0.4-2.1c0-1,0.3-1.2,0.3-2.3c0-0.4-0.1-0.8,0.3-1v-3.1c0.5,0,0.7-0.3,1-0.6
		c0.4-0.3,1.1-0.6,1.7-1c0.3-0.3,0-0.1,0.3-0.3l2.4-1.7c0,0,0.1,0,0.1-0.1l4.9-3.6c0,0,0.1,0,0.1-0.1c0,0,0.1,0,0.1-0.1l0.9-0.5
		c0,0,0.1,0,0.1-0.1c0.5-0.3,0.8-0.8,1.3-1c0.3-0.1,0.1,0,0.3-0.2l3.1-2.4c0.2-0.1,0.1,0,0.3-0.2c0.3-0.3,0.5-0.6,1-0.9
		c0.5-0.3,1-0.9,1.5-1.1c0.4-0.3,0.8-0.8,1.2-1c0,0,0.1,0,0.1-0.1c0,0,0.1,0,0.1-0.1l0.8-0.6c0.2-0.2,0,0,0.3-0.2l1-0.8
		c0.1-0.1,0.2-0.2,0.2-0.2c0.1-0.1,0.3-0.3,0.3-0.3c0,0,0.1,0,0.1-0.1c0,0,0.1,0,0.1-0.1c0,0,0.1,0,0.1-0.1c0.6-0.3,1-1,1.7-1.5
		c0.2-0.1,0.3-0.3,0.4-0.3c1-1,1.4-1.1,2.5-2.3c0.7-0.7,0.8-0.5,2.3-2l1-1c0,0,0.1,0,0.1-0.1l0.3-0.2c0,0,0.1,0,0.1-0.1l0.7-0.7
		c0.3-0.3,0.4-0.4,0.8-0.8c0.9-0.9,6.7-6.5,7.2-7.3c0.4-0.7,1.1-1.1,1.6-1.8l0.1-0.2c0.1-0.2,0-0.1,0.2-0.3l0.4-0.5
		c0.8-0.8,0.5-0.6,1-1.3l1.2-1.5c0.3-0.3,0.1-0.1,0.3-0.4c0,0,0-0.1,0.1-0.1l0.3-0.3c0.1-0.2,0.1-0.1,0.2-0.3l2.8-4.7l1-3.1
		c0.2-0.7,0-1.5,0-2.3l-0.1-1v-0.1l-1.6-2.4c0,0-0.1-0.1-0.2-0.2l-0.2-0.2l-2.1-1.1c-1.3-0.6-2.3-0.4-3.3-0.8h-0.1
		c-0.6-0.2-4.2-0.2-5.2-0.1c-1,0.1-0.6,0.3-2,0.3l-2.7,0.3c-0.8,0-0.3,0.2-1.3,0.3l-0.8,0.1h-0.1l-1.5,0.3c-0.8,0.3-0.9,0.1-1.3,0.3
		l-2,0.5h-0.1l-0.2,0.1l-1,0.2h-0.1l-1.1,0.3h-0.1l-2.7,0.7h-0.1l-9.1,3.5c-0.1,0-0.2,0.1-0.3,0.1l-3.2,1.1h-0.1l-1,0.3
		c-0.2,0.1-0.2,0.1-0.3,0.1l-7.5,3c-0.3,0.1-0.3,0.1-0.5,0.2l-1.8,0.7c-0.1,0-0.3,0.2-0.3,0.2l-2.4,1c-0.2,0.1-0.2,0-0.3,0.1l-4.6,2
		c0,0-0.1,0-0.1,0.1l-1,0.5l-0.2,0.1l-1.5,0.6c-0.1,0.1-0.2,0.1-0.3,0.2l-1.6,0.6c-0.4,0.2-0.9,0.3-1,0.7h-0.5
		c-0.1-0.3-0.1-0.2-0.2-0.3c-0.3-0.4-1-0.7-1.3-1C157.6,37.5,158.1,37.7,157.6,37.6L157.6,37.6z M126.8,121.8H124
		c-0.2-0.3-0.4-0.3-0.9-0.3l-2.4-0.4c-0.5-0.2-1-0.2-1.8-0.4l-0.2-0.1l-0.2-0.1l-4.3-1.3c-0.1,0-0.1,0-0.2-0.1l-1-0.3
		c0,0-0.1,0-0.1-0.1c0,0-0.1,0-0.1-0.1l-0.9-0.4c-0.5-0.2-1.2-0.6-1.7-0.6l0.8-0.7l0.2-0.1l0.3-0.2c2-1,5.5-2.5,7.2-3.7l0.5-0.3
		c0,0,0.1,0,0.1-0.1c0,0,0.1,0,0.1-0.1l0.7-0.3c0,0,0.1,0,0.1-0.1l0.7-0.3l0.2-0.1l1.7-0.9c0.1-0.1,0.1,0,0.2-0.1l1-0.5
		c0,0,0.1,0,0.1-0.1l2-1.1c0,0,0.1,0,0.1-0.1l1.3-0.7c0,0,0.1,0,0.1-0.1l1.2-0.6c0.2-0.1,0,0,0.2-0.1l1.5-0.9c0,0,0.1,0,0.1-0.1
		l3.8-2c0,0,0.1,0,0.1-0.1l0.3-0.2c0,0,0.1,0,0.1-0.1c0,0,0.1-0.1,0.2-0.1c0.3-0.3-0.1-0.1,0.4-0.3c0,0.9-0.2,1.7-0.3,2.4l-2.2,7
		v0.1l-0.4,0.9c-0.1,0.1-0.1,0.2-0.2,0.3l-0.2,0.3c-0.1,0.1-0.1,0.2-0.2,0.3c-0.3,0.6-0.5,1.3-1,1.8l-1.2,1.7c0,0,0,0.1-0.1,0.1
		c-0.4,0.8-1.4,1.5-2,2.1C127.2,121.2,126.8,121.4,126.8,121.8L126.8,121.8z M94.8,104.9c0.6,0,0.4-0.1,0.8-0.3l0.7-0.4
		c0.2-0.1,0.3-0.2,0.3-0.3l1.7-0.9c1.4-0.7,1.7-0.6,3.3-0.6l1.8,0.4h0.1l0.7,0.3c0,0,0.3,0.3,0.3,0.3c1.6,1.1,0.6,0.6,1.8,1.4
		c0.7,0.4,0.6,0.8,1.2,1v0.3c-0.3,0-0.1,0-0.3,0l-5.2,2.3h-0.1l-0.3,0.2c0,0-0.1,0-0.1,0.1l-0.6,0.3c-0.9,0.4-1.3,0.2-1.5,0.8h-0.9
		c-0.2-0.5-2.5-2.5-3-3.1c0,0,0-0.1-0.1-0.1l-0.2-0.3c-0.2-0.3-0.3-0.6-0.8-0.8C94.8,105.5,94.8,104.9,94.8,104.9z M145.7,119.5
		c0-0.2,0-0.1,0-0.3c0.1-0.4,0.5-0.7,0.8-1c0,0,0.2-0.2,0.2-0.3c0.1-0.2,0.1-0.1,0.2-0.3c0,0,0-0.1,0.1-0.1c0.3-0.4,0.8-0.8,1-1.3
		c0.6-1,1.1-1,1.7-2c0.1-0.2,0-0.1,0.2-0.3c0.3-0.3,0.1-0.1,0.3-0.3c1.5-1.4,6.6-6.8,7.4-7.4l0.3-0.2c0.5-0.3,0.8-0.9,1.3-1.2
		l2.7-1.9c0,0,0.1,0,0.1-0.1l2.6-1.8c0,0,0.1,0,0.1-0.1c0,0,0.1,0,0.1-0.1l1-0.8c0.2-0.2,0.1-0.1,0.3-0.2l3.7-2.1c0,0,0.1,0,0.1-0.1
		c0.5-0.3,0.3-0.4,1.1-0.4l-2.5,4.1l-0.1,0.2l-0.2,0.3c0,0-0.1,0.1-0.1,0.2l-0.7,1.1c0,0,0,0.1-0.1,0.1c-0.5,1-1.8,2.1-2.3,2.9
		l-4.3,4.4c-0.6,0.4-1,0.9-1.5,1.3l-0.7,0.4c-0.3,0.3-0.1,0.1-0.3,0.3c-0.3,0.3-0.1,0.1-0.4,0.3l-1,0.8c0,0-0.1,0-0.1,0.1l-1.4,0.9
		c-0.2,0.1-0.1,0.1-0.3,0.2l-2.3,1.4c0,0-0.3,0.3-0.4,0.3L145.7,119.5L145.7,119.5z M128.4,122.1c0.3-0.6,1-1.1,1.5-1.7l4.5-7.6
		l0.1-0.2l0.2-0.5v-0.1c0-0.1,0-0.1,0.1-0.2c0.1-0.2,0.2-0.4,0.2-0.6v-0.1l0.2-0.6v-0.1l0.6-2.1v-0.1l0.7-2.7
		c0.2-0.6-0.3-0.3,0.3-0.5v-1.7l1.7-1c0,0,0.1,0,0.1-0.1l2.2-1.2l-1.2,3.3c0,0,0,0.1-0.1,0.1c0,0,0,0.1-0.1,0.1l-0.4,1.1v0.1
		l-0.1,0.2c0,0,0,0.1-0.1,0.1l-0.1,0.2l-0.7,2.5c-0.1,0.3-0.1,0.1-0.1,0.4c0,0.2,0,1,0,1.1c0,0.4,0,0.2,0.1,0.4v0.1v0.1
		c0.4,1.5,0.1,1.1,1.3,2.4c0.2,0.2,0.3,0.3,0.5,0.6h2.5c0.2-0.3,0.1-0.2,0.4-0.3l0.8-0.3c0,0,0.1,0,0.1-0.1l2.5-1.7
		c0.5-0.5,1.1-0.9,1.7-1.5c0.7-0.7,1.3-1.3,1.8-2.1l1.7-1.9c0.1-0.2,0-0.1,0.2-0.3l1.7-1.7c0.4-0.4,0.6-0.9,1.5-1.7
		c0.3-0.3,0.5-0.5,0.9-0.9c0.6-0.6,1.1-1.2,1.8-1.7l1.1-0.9c0.4-0.3,0.7-0.6,1.1-0.9l0.3-0.2c0.1,0,0.2-0.1,0.3-0.2l7.9-3.1
		c0.1,0,0.2-0.1,0.3-0.1l2.3-0.9h0.1l1.9-0.6c0,0,0.1,0,0.1-0.1l0.2-0.1c0,0.4-0.3,0.9-0.3,1.3c-0.3,0.6-0.5,0.9-1.1,1.1l-5.3,3
		c0,0-0.1,0-0.1,0.1l-5.1,3.4c-0.4,0.3,0.3-0.2-0.2,0.1l-0.6,0.5c-0.2,0.2-0.2,0.1-0.3,0.2l-2.8,2.3c0,0-0.1,0-0.1,0.1l-0.9,0.9
		c-0.4,0.4-0.8,0.8-1.2,1.2c-1,1-1.4,1-2.4,2.2c-0.2,0.2-0.3,0.3-0.5,0.5c-0.2,0.2-0.2,0.1-0.3,0.3c0,0-0.1,0.1-0.1,0.2l-0.9,1.1
		c-0.1,0.1-0.2,0.2-0.3,0.3l-1.7,1.7c-0.5,0.5-0.8,1.1-1.3,1.7l-0.7,0.7c0,0,0,0.1-0.1,0.1l-2.3,2.9c0,0,0,0.1-0.1,0.1
		c-0.3,0.5-0.7,1.3-1.1,1.5l-1.6,0.4h-0.1l-0.3,0.1h-0.1h-0.1l-2.1,0.3c-1,0.1,0.1,0.1-0.9,0.3l-1.6,0.3c-0.3,0-0.8,0-1.1,0
		c-1,0-1.1,0.3-2.1,0.3C131.6,122.1,130,122.1,128.4,122.1L128.4,122.1z M173.9,91.3c-0.6,0-0.8,0.1-1.3,0.3l-0.6,0.2
		c-0.2,0.1-0.2,0.1-0.3,0.1l-2.1,0.7h-0.1l-2.3,0.9h-0.1l-2.4,0.8h-0.1l-2.8,1h-0.1l-2.5,1.4c0,0-0.1,0-0.1,0.1l-2.9,2.1l-6.6,7.2
		c-1,1-3.5,3.8-4.4,4.3c0,0-0.1,0-0.1,0.1c0,0-0.1,0-0.1,0.1l-0.2,0.1c0,0-0.1,0-0.1,0.1c0,0-0.1,0-0.1,0.1l-2.4,1.4
		c-0.5,0.3-0.3-0.2-0.4,0.3h-1.5c-0.2-0.3-0.4-0.5-0.7-1.3l-0.2-1.8c0-0.9,0.2-1.5,0.3-2.2V107l0.3-0.7l0.1-0.2l0.2-0.5v-0.1
		l0.7-1.4l0.2-0.3l0.7-1.8c0-0.1,0.1-0.2,0.1-0.3l0.1-0.2v-0.1c0.3-0.7-0.1-0.5,0.3-0.7v-1.1c0.7,0,1.2-0.6,1.7-0.9
		c0,0,0.1,0,0.1-0.1l2.9-1.7c0.7-0.5-0.6,0.4,0.2-0.1l3.2-1.9l0.2-0.1l3.7-2.3c0,0,0.1,0,0.1-0.1c0.2-0.1,0.1,0,0.3-0.2
		c0.1,0,0.3-0.3,0.4-0.3l0.2-0.1c0,0,0.1,0,0.1-0.1l1.2-0.7c0,0,0.1,0,0.1-0.1l1.6-1c0.8-0.4,1-0.8,1.7-1.1l0.8-0.3
		c0,0,0.2-0.2,0.3-0.2l0.1-0.1l3.1-2c0,0,0.1,0,0.1-0.1l0.3-0.2c0.4-0.2,1.2-0.2,1.8-0.2l1.4-0.2c0.6-0.2,1.4-0.1,2-0.3l1-0.3
		c0.1,0,0.2-0.1,0.2-0.1c0.2-0.1,0.3-0.1,0.5-0.2l3.6-1l-0.2,1.2v0.1l-0.5,2.4c-0.1,0.3-0.1,0.5-0.2,1c0,0.1-0.1,0.2-0.1,0.2
		l-0.3,0.9v0.1l-0.3,1C173.9,91,173.9,91.1,173.9,91.3L173.9,91.3z M124.5,86.5c0,0.3,0,0.1,0,0.3l0.2,0.4c0,0,0,0.1,0.1,0.1
		l0.3,0.4c0,0.1,0.1,0.2,0.2,0.3l0.4,1.7c0.1,0.3,0,0.4,0.1,0.7l0.4,1.8v0.1l0.1,1.2c0,1.2,0.2,0.2,0.3,1.1c0.2,1.5-0.3,1,0.3,1.2
		v0.9l-0.4,0.1h-0.1l-1,0.5c0,0-0.1,0-0.1,0.1c0,0-0.1,0-0.1,0.1l-1.6,1c0,0-0.1,0-0.1,0.1l-4.1,2.1c0,0-0.1,0-0.1,0.1l-0.5,0.3
		c-0.3,0.2,0.3-0.1-0.2,0.1l-0.4,0.3c-0.1,0.1-0.2,0.1-0.3,0.2c0,0-0.1,0-0.1,0.1l-0.2,0.1c-0.5,0.3,0.3-0.2-0.2,0.1
		c0,0-0.1,0-0.1,0.1c-0.1,0.1-0.1,0-0.2,0.1l-1,0.4c0,0-0.1,0-0.1,0.1l-0.4,0.3c0,0-0.1,0-0.1,0.1l-1.6,0.8c0,0-0.1,0-0.1,0.1
		l-1,0.5l-0.2,0.1c-0.2,0.1-0.1,0-0.3,0.1l-0.9,0.3c-0.3,0.2,0.1,0-0.2,0.1c-0.1,0.1-0.2,0.1-0.3,0.2c-0.3,0.2-0.5,0-0.8,0.5h-0.5
		c-0.3-0.6,0.1,0-0.3-0.3c-0.7-0.4-1.2-1.2-1.9-1.7c-0.3-0.2-0.1,0-0.4-0.3c-0.2-0.1-0.3-0.3-0.4-0.4l-1.3-0.8c0,0-0.1,0-0.1-0.1
		c0,0-0.1,0-0.1-0.1l-2.6-1c-0.3,0-1.1,0-1.4,0c-0.5,0-0.7,0.2-1.1,0.3l-1.3,0.5c0,0-0.1,0-0.1,0.1l-0.9,0.4c0,0-0.1,0-0.1,0.1
		l-1.4,0.9c0,0-0.1,0-0.1,0.1l-1.6,1.1c-0.1,0,0,0-0.3,0.2l-2-3.2c0,0,0-0.1-0.1-0.1l-0.3-0.4c-0.2-0.3-0.2-0.4-0.4-0.5V100
		c0.3-0.1,0.4-0.6,0.7-1l0.4-0.9c0.1-0.1,0.1-0.2,0.2-0.3l1-2.2c0,0,0-0.1,0.1-0.1l3.9-8.4c0.1-0.1,0.2-0.3,0.2-0.3l1.7-2.3
		c0.5-0.5,0.4-0.4,0.8-1l1.7-1.3c0.1-0.1,0.2-0.2,0.3-0.3l0.2-0.1c0,0,0.1,0,0.1-0.1l0.3-0.2c0,0,0.1,0,0.1-0.1l0.7-0.3
		c0.8-0.3,0.5,0.2,0.8-0.3h2c0.2,0.5,0.6,0.7,0.9,1.2l0.4,1.1c0.1,0.3,0.1,0.3,0.1,0.8l-0.2,1.2v0.1c-0.3,0.9,0,0.7-0.4,1.9
		l-0.1,0.2l-0.9,2.5v0.1l-0.2,1c-0.4,1.4,0,3.1,0.9,4.3c0.3,0.4,0.4,0.8,0.9,1l0.5,0.3l0.2,0.1c0.8,0.4,1.5,0.2,2.3-0.1l0.9-0.4
		c0.8-0.3,1-0.7,1.4-1l1.2-1.1c1-1,2-2,3.1-3.1c0.2-0.2,0.3-0.2,0.3-0.3c0.2-0.2,0.3-0.3,0.4-0.4c0,0,0-0.1,0.1-0.1l0.2-0.3
		c0.1-0.2,0.3-0.3,0.3-0.4l2.4-1.9c0,0,0.1,0,0.1-0.1l0.8-0.3c0.6-0.3,1-0.5,1.8-0.4C124.5,86.2,123.3,86.5,124.5,86.5L124.5,86.5z
		 M175.9,82.2c-0.2,0-0.3,0-0.5,0l-4.7,1.5c-1.2,0.4-0.5,0-1.5,0.3l-1.1,0.2c0.2-0.3,0.3-0.3,1.2-0.9l0.7-0.4c0,0,0.1,0,0.1-0.1
		l5.3-3.6c0.7-0.4,0-0.3,0.9-0.4c0,1,0.2,1.7-0.2,2.5L175.9,82.2L175.9,82.2z M151,82.2c0-2.6,0.1-0.9,0.3-2.5c0-0.3,0-0.1,0.1-0.3
		v-0.1v-0.1l0.1-0.2c0.1-0.2,0.1-0.2,0.1-0.3l1.3-3.1c0.1-0.2,0.1-0.1,0.2-0.3c0.1-0.1,0.1-0.2,0.3-0.3l0.1-0.2c0,0,0-0.1,0.1-0.1
		c0,0,0-0.1,0.1-0.1c0,0,0-0.1,0.1-0.1c0.4-0.7,0.3-0.1,0.9-1.1l0.6-0.7c0.6-0.4,0.9-0.3,1.6-0.3l0.5,1.3c0.2,0.5-0.3,0.2,0.3,0.4
		V78l-5.7,3.7c0,0-0.1,0-0.1,0.1C151.2,82.1,151.6,82.1,151,82.2L151,82.2z M164.3,73.2c-0.1,0.3,0.1,0.2-0.3,0.3
		C164.1,73.1,164,73.3,164.3,73.2z M159,76.9c0.2-0.4,0.3-0.7,0.2-1.3c-0.1-0.3-0.1,0.2-0.2-0.7l-0.4-2.4l-0.2-0.3
		c-0.1-0.2,0-0.1-0.2-0.3c-0.2-0.2-0.1-0.1-0.2-0.2l-1.4-1c-0.5-0.2-1,0-1.4,0.3l-0.9,0.6c0,0-0.1,0-0.1,0.1c-0.1,0-0.8,0.6-1.1,1.1
		l-0.6,1c-0.1,0.2,0,0.1-0.2,0.3l-0.5,0.9c0,0,0,0.1-0.1,0.1c0,0,0,0.1-0.1,0.1c-0.5,1-0.9,1.2-1.3,2.5l-0.1,0.3
		c0,0.1-0.1,0.2-0.1,0.3l-0.2,0.5V79v0.1c0,0.2,0,0.3-0.1,0.3l-0.4,2.4c-0.2,0.4-0.2,1.1-0.2,1.7l-4.8,3c0,0-0.1,0-0.1,0.1l-5.2,3.1
		c0,0-0.1,0-0.1,0.1l-0.8,0.5c0,0-0.1,0-0.1,0.1c-0.3,0.3-0.2,0.3-0.6,0.4c0-2,0.2-0.4,0.3-3c0-0.3,0-0.3,0.1-0.5v-0.1l0.5-2.2v-0.1
		l1.7-4.5l0.1-0.2l1.3-2.1l0.1-0.1l0.3-0.4c0.3-0.4-0.2,0.3,0.1-0.2l1.9-2.4c0-0.1,0.2-0.3,0.3-0.3l2.3-2.3c0,0,0.1-0.1,0.2-0.1
		c0,0,0.1,0,0.1-0.1c0,0,0.1,0,0.1-0.1l2.1-1.6c0,0,0.1-0.1,0.2-0.1c0.2-0.2,0.1-0.1,0.3-0.3c0.2-0.2,0.1-0.2,0.3-0.3l2.2-1.6
		c0.2-0.1,0.2-0.1,0.3-0.2c0.1-0.1,0.2-0.1,0.3-0.3l0.1-0.1l0.3-0.2c0,0,0.1,0,0.1-0.1c0,0,0.1,0,0.1-0.1l4.4-2.3h0.1l2.3-0.5
		c0.3-0.1,0.3-0.1,0.5-0.1c0.5,0,1.2-0.1,1.7,0.1l0.2,0.1h0.1l1,0.3c0.7,0.4,0.7,1.3,1,2c0.2,0.6-0.1,0.5-0.2,1.8l-0.5,1.7
		c-0.3,1-0.6,1.4-1,2.4c-0.1,0.1-0.2,0.3-0.2,0.3l-0.3,0.5c-0.8,1.5-0.5,1.7-2.1,2.6c0,0-0.1,0-0.1,0.1
		C159.7,76.6,159.6,76.9,159,76.9L159,76.9z M84.7,72.6c0-1.6,0.1-1,0.3-1.7c0.1-0.3,0-0.7,0-1c0-1,0.3-1,0.3-1.8l0.3-1.7
		c0.1-0.3,0.2-0.3,0.2-0.8c0.9,0,0.3,0,1-0.4c0,0,0.1,0,0.1-0.1l1.4-0.9c0.9-0.5,1.7-1.3,2.5-1.8L96,58c0.2-0.1,0.1-0.1,0.3-0.2
		l0.4-0.3c0,0,0.1,0,0.1-0.1c0,0,0.1,0,0.1-0.1c0.2-0.1,0.1-0.1,0.3-0.2l1-0.6l0.1-0.1l1.7-1c0,0,0.1,0,0.1-0.1l1.5-0.9
		c0,0,0.1,0,0.1-0.1c0,0,0.1,0,0.1-0.1l1.3-0.7c0,0,0.1,0,0.1-0.1l0.2-0.1c0,0,0.1,0,0.1-0.1l5.5-2.3l1.9-0.3c0.6,0,1.2-0.1,1.8,0.2
		l1.6,2c0.1,0.2,0.1,0.2,0.1,0.3l-1.1,3.9c0,0,0,0.1-0.1,0.1l-0.4,1.1c0,0,0,0.1-0.1,0.1l-0.3,0.5c0,0,0,0.1-0.1,0.1l-1.4,1.9
		c-0.5,0.5-1,1.1-1.6,1.5c-0.5,0.3-1,0.8-1.6,1l-2.1,0.9c-0.2,0.1-0.3,0.1-0.5,0.2l-0.5,0.2c-0.3,0.1-0.3,0-0.7,0.2l-1.2,0.2
		c-1.1,0.1,0,0.3-1.2,0.3c-1.6,0.1-0.8,0-1.8,0.3c-0.6,0.1-1.4,0-1.9,0.2L97,66.1c-0.3,0-0.5,0-0.8,0h-0.1L94,66.7h-0.1l-0.5,0.2
		h-0.1L89,69.1c-0.5,0.3-0.9,0.7-1.3,1l-2.4,2l-0.2,0.2C84.8,72.5,85,72.5,84.7,72.6L84.7,72.6z M84.3,77.2c0.1-0.3-0.1-0.2,0.3-0.3
		v-2.3c0.4-0.2,0.7-0.5,1-0.9l1.8-1.6c0,0,0.1-0.1,0.2-0.1l0.9-0.8c0,0,0.1,0,0.1-0.1l6.4-3.1c0.3-0.1,0.2,0,0.3-0.1l0.3-0.1
		c1.7-0.4,1.2-0.2,2.4-0.3c0.6-0.1,0.6-0.3,1.7-0.3c1.3,0,1.1-0.3,2.5-0.3l2.4-0.5c0.3-0.1,0.5-0.1,0.8-0.2l3-1.4c0,0,0.1,0,0.1-0.1
		l0.6-0.3c1.4-1,1.5-1.2,2.8-2.4l3.7-6.1c0.4-1.1,0.3-2.8-0.1-3.8l-0.1-0.3c0,0-0.1-0.2-0.2-0.3l-0.1-0.1l-0.6-0.9
		c-0.1-0.1-0.2-0.1-0.3-0.2l-0.3-0.2c-1.7-0.9-1.8-0.1-2.1-0.8h-0.5c-0.2,0.5-0.6,0.1-2.2,0.5l-0.3,0.1c-0.3,0.1-0.3,0-0.5,0.1
		l-4.6,1.8l-0.2,0.1l-3.8,2c0,0-0.1,0-0.1,0.1L98.3,55c0,0-0.1,0-0.1,0.1l-0.4,0.3c0,0-0.1,0-0.1,0.1L93,58.8c0,0-0.1,0-0.1,0.1
		c-0.5,0.3-0.9,0.8-1.3,1l-1.5,1.2c0,0-0.1,0-0.1,0.1c0,0-0.1,0-0.1,0.1c0,0-0.1,0-0.1,0.1l-3.5,2.4l0.6-2.4v-0.1v-0.1l0.1-0.2
		c0-0.1,0.2-0.3,0.2-0.3l0.1-0.2l0.5-1.6c0.3-0.6,0.6-1,0.9-1.8l0.1-0.4v-0.1v-0.1l0.8-1.6c0.3-0.5,0.3-0.3,0.8-1.2l0.3-0.8
		c0,0,0-0.1,0.1-0.1c0,0,0-0.1,0.1-0.1l2.9-4.2c0.3-0.6,0.9-1,1.1-1.5c0.6-1,3.8-3.9,5-5.1l0.8-0.6c0.6-0.3,1.1-1,1.7-1.5
		c0,0,0.1,0,0.1-0.1l1.1-0.8c0,0,0.1-0.1,0.1-0.2c0.1-0.1,0.1,0,0.2-0.3h0.5l0.3,0.5c0.1,0.3,0,0.3,0.1,0.6l1.3,2.4
		c0.3,0.3,0.8,0.8,1.2,1l1,0.5c0.2,0.1,0.3,0.1,0.5,0.2l1.2,0.2c0.9,0.2-0.2,0.1,0.6,0.3c0.4,0.1,2.4,0.1,2.9,0h0.1h0.1
		c0.7-0.3,1.7-0.1,2.5-0.2c1.1-0.1-0.1-0.2,1.1-0.3c0.9-0.1,2.4,0,2.9,0.5c0.2,0.2,0,0,0.2,0.3l0.4,0.7c0,0,0,0.1,0.1,0.1l0.2,0.3
		c0,0,0,0.1,0.1,0.1l0.5,1.3c0.2,0.4,0.1-0.3,0.2,0.5c0,0.2,0,0.5,0,0.7c0,0.3,0,0.3,0.1,0.6l0.1,0.3c0,0.3,0,0.1,0,0.3
		c-0.2,1-0.1,1.2-0.3,2.2c-0.1,0.3,0,0.2-0.1,0.3l-0.2,0.6V53l-0.4,1.4c-0.1,0.3,0,0.1-0.1,0.3l-0.2,0.3c-0.3,0.7-0.3,0.7-0.7,1.4
		c-0.1,0.2-0.1,0.1-0.2,0.3l-0.5,1.1c0,0,0,0.1-0.1,0.1c-0.4,0.6-0.9,1.1-1.1,1.8c-0.4,0.9-0.5,0.7-1.4,2c-0.5,0.7-1.2,1.2-1.9,1.9
		l-4.8,3.8c0,0-0.1,0-0.1,0.1l-1.5,0.9c0,0-0.1,0-0.1,0.1c0,0-0.1,0-0.1,0.1l-1.3,0.8c0,0-0.3,0.1-0.3,0.2c-0.2,0.1-0.1,0-0.3,0.2
		c-0.1,0.1-0.3,0.2-0.3,0.2s-0.1,0-0.1,0.1l-1,0.4c0,0-0.1,0-0.1,0.1l-0.4,0.3c0,0-0.1,0-0.1,0.1l-0.5-0.3c0,0-0.1,0-0.1,0.1
		l-0.7,0.3c0,0-0.1,0-0.1,0.1l-1.5,0.6c-0.1,0.1-0.2,0.1-0.3,0.2l-4.2,1.5h-0.1l-3.1,0.7H94C93.9,74,93.8,74,93.7,74l-1.6,0.4H92
		c-0.3,0.1-0.2,0-0.3,0.1L91,74.8c-0.2,0.1-0.3,0.1-0.5,0.2l-1.4,0.4c-0.2,0-0.2,0.1-0.3,0.1h-0.1l-1,0.3h-0.1l-0.4,0.1H87l-1.5,0.6
		c0,0-0.1,0-0.1,0.1l-0.3,0.2C84.7,77.2,85.1,77.2,84.3,77.2L84.3,77.2z M176.8,64.2l-0.7-0.2c-0.1-0.3,0,0-0.1-0.3l-0.2-0.9
		c0-0.1-0.1-0.2-0.1-0.2c0-0.1-0.1-0.2-0.1-0.3l-0.3-1.1v-0.1l-0.3-0.8v-0.1l-1.6-3.7c0,0,0-0.1-0.1-0.1l-0.4-0.9l-0.1-0.2l-3.1-5.4
		c-0.2-0.2-0.1-0.1-0.2-0.2l-1.6-2.1c-0.3-0.4-0.1-0.5-0.5-0.7l0.4-0.3h0.1h0.1l0.9-0.3c0.1,0,0.2-0.1,0.3-0.1l0.4-0.2h0.1l4.5-1.6
		h0.1l1.1-0.3h0.1l9.3-2.3c1-0.3,6-0.3,6.6,0l0.2,0.1l0.3,0.2c0.8,0.3,0.5,0.2,1.3,0.8c0.3,0.2,0.1,0.1,0.3,0.2v2.5
		c-0.5,0.3-0.1-0.1-0.3,0.6v0.1l-1.2,2.2c0,0,0,0.1-0.1,0.1l-0.5,0.8c-0.3,0.6-0.7,1.2-1.2,1.7l-6.1,6.5c0,0-0.1,0-0.1,0.1l-0.9,0.9
		c-0.7,0.7-1.3,1.4-2.2,1.9c-0.4,0.3,0.3-0.2-0.2,0.1l-2.7,2.4C177.8,63.6,177.3,63.6,176.8,64.2C176.8,64.1,176.9,63.9,176.8,64.2z
		 M83.8,84.5l0.5,2.9c0,0.2,0,0.3,0.1,0.5c0.2,0.4-0.2,0.2,0.3,0.3l-2.7,2.5c-0.9,0.5-1.8,1.4-2.5,1.8l-1,0.9c0,0-0.1,0-0.1,0.1
		L78,93.8c-0.3,0.3-0.3,0.3-0.7,0.6L76.4,95c-0.1,0.1-0.2,0.2-0.2,0.2l-0.3,0.3l-0.3,0.3c0,0-0.1,0-0.1,0.1c0,0-0.1,0-0.1,0.1
		c-0.6,0.3-1,1-1.6,1.4c-1.3,0.8-2.2,2.2-3.3,3.1l-1.4,1.1c-0.7,0.7-6,6.3-6.6,6.5v0.5c0.3,0.1,0.4,0.3,0.5,0.5h0.3
		c0.2-0.3,0-0.1,0.3-0.3l8.6-8.6c0.4-0.4,0.5-0.3,1.1-0.9c1-1,0.8-1,2-1.7c0.2-0.1,0.3-0.2,0.3-0.3c0.7-0.7,1.2-1,1.7-1.4
		c0.4-0.4,1-0.7,1.4-1.1l4-3.1c0.2-0.2,0.2-0.1,0.3-0.2l0.9-0.5c0.4-0.3,0.7-0.5,1.2-0.8c0,0.4-0.1,0.7,0.3,0.9v0.5
		c-0.3,0.1-0.3,0.1-0.5,0.3l-2.5,2c-0.4,0.3-0.6,0.7-1,1l-0.2,0c-0.6,0.3-1,1.1-1.7,1.6c-1,0.6-1.5,1.6-2.4,2
		c-0.9,0.5-6.2,5.9-6.6,6.5l-0.3,0.4c-0.2,0.2-0.1,0.1-0.2,0.2l-3.3,4.4c0,0,0,0.1-0.1,0.1l-0.6,1c0,0.1-0.1,0.2-0.2,0.3
		c-0.7,1.4-1,2.7-0.8,4.3L66,117c0.4,0.4,0.8,0.9,1.4,1.1l2.8,0.8c1.4,0,3.5,0.3,4.8-0.2c0.3-0.1,0-0.1,0.4-0.1
		c0.9-0.1,0.8,0.1,1.5-0.2l7.4-1.8c0.1,0,0.3-0.1,0.3-0.1l2.2-0.6h0.1l1.3-0.4h0.1l0.2-0.1h0.1h0.1l1.5-0.5h0.1l0.4-0.1h0.1l0.9-0.4
		c0.2-0.1,0.2-0.1,0.3-0.1h0.1l2.4-0.9c0.1,0,0.1,0,0.2-0.1l1.4-0.4h0.1l5.7-2.4c0.1-0.1,0.2-0.1,0.3-0.2l0.4-0.3c0,0,0.1,0,0.1-0.1
		l6.8-3c0.1-0.1,0.2-0.1,0.3-0.2c0,0,0.1,0,0.1-0.1c0,0,0.1,0,0.1-0.1l0.4-0.3c0,0,0.1,0,0.1-0.1l0.2-0.1c0,0,0.1,0,0.1-0.1l2.5-1.1
		c0.8-0.3,1-0.4,1.8-0.9l1.6-0.8c0,0,0.1,0,0.1-0.1c0,0,0.1,0,0.1-0.1l0.7-0.3c0,0,0.1,0,0.1-0.1l0.2-0.1c0,0,0.1,0,0.1-0.1l1.9-1
		c0.1-0.1,0.3-0.2,0.3-0.2c0,0,0.1,0,0.1-0.1l1.7-0.9c0.1-0.1,0.1,0,0.2-0.1l8.1-4.4l0.2-0.1l3.8-2.2c0,0,0.1,0,0.1-0.1l0.2-0.1
		l0.3-0.2c0,0,0.1,0,0.1-0.1l4.8-2.8c0,0,0.1,0,0.1-0.1l1.3-0.8c0.2-0.1,0.1-0.1,0.3-0.2l1.4-0.9c0,0,0.1,0,0.1-0.1l0.5-0.3
		c0.1-0.1,0.3-0.3,0.4-0.3L147,86c0,0,0.1,0,0.1-0.1l4.3-2.6c0,0,0.1,0,0.1-0.1l1.3-1c0,0,0.1,0,0.1-0.1l2.2-1.4c0,0,0.1,0,0.1-0.1
		l2-1.3c0.2-0.1,0.1-0.1,0.3-0.2l6.3-4.3l0.1-0.1l2.6-1.7c0.4-0.3,0-0.1,0.4-0.4l2.6-1.7c0,0,0.1-0.1,0.2-0.1l1.7-1.4l0.2-0.1
		l1.1-0.9c0.2-0.1,0.1,0,0.3-0.2s0.1-0.1,0.2-0.2s0,0,0.2-0.2l0.6-0.3c0.4-0.3,0.8-0.8,1.2-1c0.2-0.1,0.1,0,0.3-0.2l1.3-1
		c0.7-0.4,1-1.1,1.8-1.6c0.4-0.3,0.7-0.7,1.1-1l1.5-1.2c0.2-0.2,0.3-0.3,0.5-0.4c1.4-0.9,3.8-3.4,4.9-4.7c0.2-0.2,0,0,0.2-0.3
		l0.7-0.3c0-0.8,0.3-0.7,0.6-1l1.6-1.6c0.1-0.1,0.3-0.3,0.3-0.3l0.5-0.8c0-0.1,0.2-0.3,0.3-0.3c0.2-0.2,0.3-0.3,0.4-0.4l0.7-1
		c0.1-0.1,0,0,0.2-0.2l1.9-3.1c0,0,0-0.1,0.1-0.1l0.5-1c0-0.2,0-0.3,0.1-0.3c0.2-0.9,0.5-1.7,0.3-3l-0.2-0.4c0,0,0-0.1-0.1-0.1
		c-0.3-0.5-0.7-1-1.1-1.3c-0.2-0.2,0-0.1-0.3-0.2l-1.4-0.7c-0.5-0.3-0.9,0-1.7-0.3l-2.1-0.2c-0.4,0-0.3,0-0.7,0.1h-0.1h-0.1
		c-0.8,0.3-1.7-0.1-2.4,0.2c-1,0.3-0.8,0.1-1.7,0.2c-0.4,0.1-0.2,0-0.3,0.1l-2.5,0.6c-0.3,0.1,0.1,0.1-0.7,0.2l-1,0.3
		c-1,0.3-1.5,0.3-2.2,0.5l-0.4,0.2h-0.1l-0.2,0.1h-0.1l-2.5,0.7H173l-1.8,0.6H171H171h-0.1l-0.4,0.2c-0.1,0-0.1,0-0.2,0.1
		c-0.1,0-0.2,0.1-0.3,0.1l-1.8,0.7H168l-0.5,0.2h-0.1l-0.2,0.1l-0.2,0.1c-0.3,0.2-0.1-0.1-0.3,0.3h-0.5c-0.1-0.3-0.1-0.2-0.2-0.3
		l-0.7-0.6v-0.5l2.5-1h0.1l0.6-0.2l0.2-0.1h0.1l6.3-2.8h0.1l0.5-0.2h0.1l1-0.4v-0.5c-0.3-0.1-0.4-0.3-0.5-0.5l-3,1.2
		c0,0-0.1,0-0.1,0.1l-0.5,0.2h-0.1l-5.2,2.2l-0.2,0.1l-1.4,0.5c0,0-0.1,0-0.1,0.1c-0.3,0.2,0.1,0-0.2,0.1c-0.1,0.1-0.3,0.1-0.3,0.2
		c-0.3,0.2-0.5,0.2-0.6,0.4l-1.4-1.1l0.9-0.4c0,0,0.1,0,0.1-0.1c0,0,0.1,0,0.1-0.1l0.2-0.1l1.8-0.7h0.1l0.3-0.1h0.1h0.1l2.1-0.9h0.1
		l1.2-0.5c0,0,0.1,0,0.1-0.1l0.6-0.3c0.3-0.1,0.3-0.1,0.5-0.2l1.3-0.5h0.1l3.7-1.6h0.1c0.2-0.1,0.2-0.1,0.3-0.1
		c0.5-0.2,0.4-0.3,0.9-0.5v-0.5c-0.3-0.1-0.4-0.3-0.5-0.5h-0.3c-0.2,0.4-0.9,0.5-1.3,0.7h-0.1l-0.3,0.1c-0.3,0.1-0.2,0-0.4,0.2
		l-4.7,1.9h-0.1H170l-1.2,0.5h-0.1l-0.8,0.3h-0.1l-2.7,1.1c0,0-0.1,0-0.1,0.1l-1.6,0.6c-0.3,0.2-0.6,0.2-0.8,0.5h-0.9
		c-0.1-0.3-0.3-0.4-0.5-0.5V40l0.1-0.1l1.9-0.8c1-0.5,1.6-0.8,2.6-1.2l7-3.1c0.3-0.1,0.2,0,0.4-0.1h0.1l3.9-1.7h0.1l6.9-2.5
		c0.2-0.1,0.2-0.1,0.3-0.1l1.4-0.6h0.1h0.1l0.4-0.2c0.3-0.1,0.2,0,0.4-0.2h0.1l1.3-0.5h0.1l2.6-0.9h0.1l6.1-1.8h0.1l1.7-0.5h0.1h0.1
		h0.1l7.5-1.7c0.2-0.1,0,0,0.3-0.1l1-0.2h0.1l0.6-0.1c1,0,0.6-0.2,1.6-0.3l1-0.1c1-0.3,2.4-0.1,3.3-0.3c0.6-0.2,3.1-0.2,3.8,0
		l0.2,0.1c0.8,0.3,1.1-0.2,3.8,0.7l0.2,0.1h0.1l0.4,0.3c0,0,0.1,0,0.1,0.1l0.4,0.3c0.3,0.2,0.3,0.3,0.5,0.4l1.1,1.3l0.4,1.9
		c0,0.1,0,0.3,0,0.3l-1.4,4.4c0,0,0,0.1-0.1,0.1c0,0,0,0.1-0.1,0.1l-0.4,0.9c0,0,0,0.1-0.1,0.1l-0.2,0.3c0,0,0,0.1-0.1,0.1l-0.9,1.3
		c-0.1,0.1-0.2,0.3-0.2,0.3s0,0.1-0.1,0.1l-2,2.9c-0.4,0.8-1.2,1.3-1.5,1.7c0,0,0,0.1-0.1,0.1l-1.7,2c-0.2,0.2,0,0-0.2,0.2l-3.9,4.2
		c-0.3,0.3-0.3,0.3-0.7,0.6l-1,1c-1.2,1.2-2.4,2.8-3.9,3.7c-0.6,0.3-1,0.9-1.4,1.4l-0.7,0.7c-0.2,0.2-0.2,0.1-0.3,0.2
		c-0.8,0.5-1.6,1.6-2,1.8l-0.3,0.2c0,0-0.2,0.1-0.3,0.2l-0.2,0.2l-0.5,0.5c-0.4,0.4-1,0.7-1.4,1.1l-2.6,2.2c-0.4,0.3-0.6,0.7-1,1
		l-1.9,1.5c-0.3,0.2-0.1,0.1-0.3,0.3l-2.1,1.6c-0.4,0.3-0.6,0.7-1,1l-0.6,0.3c-0.2,0.2-0.3,0.3-0.5,0.4l-3.8,2.7
		c-0.4,0.3,0.3-0.2-0.2,0.1l-2.7,2c0,0-0.1,0-0.1,0.1c0,0-0.1,0-0.1,0.1c0,0-0.1,0-0.1,0.1c0,0-0.1,0-0.1,0.1l-1,0.6
		c-0.3,0.2-0.3,0.3-0.5,0.5l-0.6,0.3c-0.1,0.1-0.3,0.2-0.3,0.2l-1,0.8c-0.3,0.3,0.3-0.2-0.2,0.1l-1.4,1c0,0-0.1,0-0.1,0.1
		c0,0-0.1,0-0.1,0.1l-0.3,0.3L176,77c0,0-0.1,0-0.1,0.1c0,0-0.1,0-0.1,0.1l-0.2,0.1c0,0-0.1,0-0.1,0.1l-0.4,0.3c0,0-0.1,0-0.1,0.1
		c0,0-0.1,0-0.1,0.1l-1,0.7c-0.2,0.1-0.1,0-0.3,0.2l-1.7,1.2c0,0-0.1,0-0.1,0.1l-0.8,0.5c0,0-0.1,0-0.1,0.1l-3.1,2.1
		c0,0-0.1,0-0.1,0.1c-0.7,0.4-0.7,0.3-1.4,0.9c0,0-0.1,0.1-0.2,0.1c0,0-0.1,0-0.1,0.1c0,0-0.1,0-0.1,0.1l-0.3,0.2l-2.2,1.4
		c0,0-0.1,0-0.1,0.1l-4.3,2.8c-0.2,0.2-0.1,0.1-0.3,0.3l-1,0.5c-0.2,0.1-0.3,0.2-0.3,0.3l-5.3,3.2c0,0-0.1,0-0.1,0.1l-0.4,0.3
		c0,0-0.1,0-0.1,0.1c0,0-0.1,0-0.1,0.1l-0.3,0.2c0,0-0.1,0-0.1,0.1l-3.3,2c0,0-0.1,0-0.1,0.1l-3.3,1.9c0,0-0.1,0-0.1,0.1l-1.5,0.9
		l-0.2,0.1l-1.9,1c0,0-0.1,0-0.1,0.1l-0.2,0.1c-0.3,0.1-0.2,0.1-0.3,0.3l-0.6,0.4c0,0-0.1,0-0.1,0.1l-0.2,0.1l-2.9,1.6l-0.2,0.1
		l-2.4,1.3c0,0-0.1,0-0.1,0.1l-9.7,5.4c0,0-0.1,0-0.1,0.1c0,0-0.1,0-0.1,0.1l-3.7,1.8c0,0-0.1,0-0.1,0.1l-13.9,7.1
		c-0.1,0-0.2,0.1-0.3,0.2l-3.3,1.7c-0.2,0.1-0.2,0-0.3,0.1l-2,1c-0.1,0-0.2,0.1-0.3,0.2l-1.4,0.5c0,0-0.1,0-0.1,0.1
		c0,0-0.1,0-0.1,0.1l-1,0.5c0,0-0.1,0-0.1,0.1l-1.7,0.7h-0.1h-0.1l-1.1,0.5l-0.2,0.1l-2.4,1h-0.1h-0.1l-1.1,0.5
		c-0.3,0.1,0,0-0.3,0.1l-3,1.2c0,0-0.1,0-0.1,0.1l-2.4,1c-0.3,0.1-0.2,0-0.4,0.1l-2.1,0.9h-0.1l-0.9,0.3c0,0-0.1,0-0.1,0.1l-3.5,0.6
		l-0.2,0.1l-2.1,0.8l-0.2,0.1h-0.1l-0.4,0.1h-0.1l-7.8,2.7c-0.2,0.1-0.3,0-0.5,0.1l-5.5,1.7h-0.1h-0.1h-0.1l-1.2,0.3h-0.1l-4.2,1H55
		l-3.1,0.6c-0.4,0.2-0.4,0.1-0.9,0.1c-0.8,0.1-0.4,0.3-1.7,0.3c-0.7,0-0.8,0.3-1.6,0.3l-1.8,0.2c-0.8,0.3-4.9,0.3-5.9-0.1
		c-0.5-0.2-1.1-0.1-1.7-0.3l-1.1-0.3c0,0-0.2-0.1-0.3-0.2c-0.5-0.3-1.1-0.5-1.6-1l-0.1-0.1l-0.3-0.4c-0.1-0.2-0.1-0.1-0.2-0.3
		c-0.8-1.3-0.1,0.3-0.7-1.7c-0.2-0.5-0.2-1.3,0-1.7l0.1-0.2v-0.1c0.1-0.3,0-0.3,0.1-0.5l0.3-1.1v-0.1l1.4-3c0,0,0-0.1,0.1-0.1
		L36,127c0,0,0-0.1,0.1-0.1l0.8-1.3c0,0,0.1-0.3,0.2-0.3l3.4-4.6c0.2-0.3,1-1,1.4-1.7c0.6-1,2.1-2.1,3-3l1-1.3
		c0.2-0.2,0.2-0.2,0.3-0.3c1.7-1.7,1.5-1.2,2.1-1.8l0.5-0.5c0.7-0.7,2.7-3,3.6-3.5l2.7-2.4c0.8-0.4,1.2-1.2,2-1.7l0.2-0.1
		c0.5-0.3,0.9-1,1.4-1.3c0,0,0.1,0,0.1-0.1l0.2-0.1c0.4-0.3,0.7-0.7,1.1-1l2.1-1.6c0.4-0.3,0.6-0.6,1-1L65,98
		c0.3-0.2,0.1-0.1,0.3-0.3l8.2-6.2c0.1-0.1,0.2-0.2,0.3-0.2c0,0,0.1,0,0.1-0.1l5.2-3.8c0,0,0.1,0,0.1-0.1c0,0,0.1,0,0.1-0.1
		c0.6-0.3,0.6-0.6,1-0.8l0.3-0.2l0.3-0.3L83.8,84.5L83.8,84.5z"/>
</g>
</svg>
