<?xml version="1.0" encoding="utf-8"?>
<!-- Generator: Adobe Illustrator 26.0.3, SVG Export Plug-In . SVG Version: 6.00 Build 0)  -->
<svg version="1.1" id="Слой_38" xmlns="http://www.w3.org/2000/svg" xmlns:xlink="http://www.w3.org/1999/xlink" x="0px"
	 y="0px" viewBox="0 0 239.5 150.2" style="enable-background:new 0 0 239.5 150.2;" xml:space="preserve">
<g>
	<path d="M231.6,8.5c-3.8,2-7.6,3.8-11.2,6.1c-4.1,2.5-8.1,5.2-12.2,7.7c0-0.6,0-1.2,0-1.7c-1.3,1.2-2.6,2.4-3.8,3.6
		c-1.2-1.3-2.5-2.5-3.9-3.6c0.1,1.7,0.2,3.4,0.4,5.2c-1.7,0.2-3.5,0.5-5.2,0.9c0.9,0.7,1.8,1.3,2.7,1.9c-3.3,2.1-6.6,4.2-10,6
		c0-0.2,0-0.7,0-0.9c0.3-0.2,0.7-0.3,1-0.5c-0.3-0.2-0.6-0.4-0.9-0.6c0.1-0.4,0.3-0.8,0.4-1.2c-0.4,0.1-0.8,0.3-1.2,0.4
		c-0.2-0.3-0.4-0.7-0.5-1c-0.2,0.4-0.3,0.7-0.5,1.1c-0.4,0-0.9-0.1-1.3-0.1c0.2,0.3,0.4,0.6,0.6,0.9c-0.3,0.3-0.6,0.6-0.9,0.9
		c0.3,0,0.7,0.1,1,0.1c0.1,0.4,0.1,0.8,0.4,1.1c0.2-0.2,0.5-0.5,0.7-0.7c0.2,0.1,0.6,0.4,0.9,0.5c-5.5,3.1-11.3,5.6-16.8,8.7
		c-3.8,2.1-7.6,4.1-11.5,6.2c-3.5,1.9-7,3.8-10.5,5.7c-0.2-0.3-0.5-0.7-0.7-1c-0.2,0.6-0.4,1.1-0.6,1.7c-0.8,0.6-1.9,0.4-2.9,0.4
		c0.2,0.3,0.3,0.6,0.5,0.8c-2.1,1.1-4.3,2.2-6.2,3.8c-3,2.4-5.7,5-8.7,7.4c-1.1,0.9-2.4,1.4-3.7,2c-4.5,2.2-8.7,5-13.1,7.4
		c-2.3,1.4-4.7,2.6-6.9,4.2c-5.3,3.7-10.7,7.1-16,10.8c-1.7,1.3-2.6,3.4-3.4,5.3c-1.1,3-2.1,6-2.8,9c-0.6,2.6-0.7,5.2-0.8,7.8
		c-0.1,2.1,0.3,4.2,0.8,6.2c0.4,1.5,0.8,3.1,1.9,4.2c0.9,0.9,2.1,1.4,3.2,1.9c1.8,0.8,2.8,2.7,4.3,3.8c1.8,1.1,3.8,1.8,5.9,2.1
		c2.1,0.6,4.3,1.1,6.5,0.8c1.6-0.1,2.8-1.3,4.2-2c2-0.3,4.1,0.2,5.9-0.8c1.4-1.1,2.3-2.7,3.7-3.9c2-1.8,4.7-2.3,6.8-3.8
		c2.8-2,5.2-4.4,8.1-6.2c3.2-2.1,6.8-3.3,10.1-5.1c2.1-1.1,4.1-2.2,6.2-3.2c1.6-0.8,3.4-1,5.1-1.3c2.2-0.4,4.3-0.7,6.5-1.3
		c1.3-0.3,2.6-0.9,3.9-0.8c0.1,0.4,0.1,0.8,0.2,1.3c0.3-0.3,0.5-0.5,0.8-0.8c0.4,0.2,0.7,0.4,1.1,0.6c0-0.3-0.1-0.8-0.1-1.1
		c0.4-0.2,0.8-0.3,1.2-0.5c-0.1-0.1-0.4-0.3-0.6-0.5c5.5-1.3,10.9-3.1,16.3-5c3.1-1.1,6.3-2.2,9.3-3.4c2.4-1,4.8-2.1,7.2-3.2
		c0.9-0.4,1.8-0.7,2.6-1.3c0.3,0.1,0.7,0.3,1,0.4c0-0.2-0.1-0.7-0.1-0.9c2.3-0.9,4.6-1.9,7.1-2.2c0-0.1-0.1-0.2-0.1-0.3
		c2.8-1.2,5.8-1.8,8.7-2.8c0.1-0.1,0.3-0.4,0.5-0.5c-1.8,0.2-3.5,0.6-5.2,0.9c-1,0.1-2,0.3-3,0.5c-2.8,0.5-5.6,1.2-8.4,2.1
		c-0.1-0.1-0.4-0.3-0.5-0.3l-0.2-0.3c-0.1,0.3-0.3,0.7-0.4,1c-0.4,0-0.9,0-1.3,0c0.2,0.3,0.5,0.7,0.7,1c-0.4,0.2-0.8,0.5-1.2,0.6
		c-3.7,1-7.4,2-11.2,2.7c-1.6,0.3-3.2,1-4.9,0.7c-2.3-0.3-4.6-0.1-6.9,0.4c0.4-0.9,0.8-1.7,1-2.6c-0.8,0.3-1.5,0.7-2.3,0.9
		c-0.6-0.6-0.9-1.5-1.5-2.1c2.9-0.5,5.8-0.9,8.7-1.5c0.8-0.1,1.6-0.5,2.5-0.4c0.4,0.7,0.7,1.5,1.1,2.3c-1.8,0.6-3.7,1-5.5,1.6
		c2.9,0.1,5.8,0.4,8.6-0.1c3.5-1,7-1.9,10.6-2.9c-3.7,0.8-7.4,2-11.1,2.8c-1.8,0.3-3.7,0.1-5.5,0c2.7-0.6,5.4-1.4,8-2.6
		c2.7-1.1,4.9-3.1,7.6-4.1c2.4-1,4.8-2,7.3-2.4c2.9-0.6,5.9-0.7,8.8-0.9c0,0.1,0.1,0.3,0.1,0.4c0.2,0,0.7,0,1,0
		c0.1,0.4,0.1,0.8,0.2,1.2c0.3-0.3,0.5-0.5,0.8-0.8c0.4,0.2,0.7,0.4,1.1,0.6c0-0.3-0.1-0.8-0.1-1.1c1.4-0.8,3.1-1,4.7-1.2
		c-1,0.9-2.1,1.7-3.1,2.6c-0.8,0.7-1.9,0.5-2.9,0.6c-3,0-6-0.1-9-0.4c1.6-0.3,3.2-0.5,4.8-0.9c-0.8-0.3-1.7,0-2.5,0.2
		c-1.8,0.4-3.5,0.6-5.3,1.1c3.1,0.2,6.2,0.3,9.3,0.4c4,0.2,8-0.5,12-0.8c-2.2,1-4.5,1.9-6.8,2.6c-2.7,0.9-5.5,1.1-8.3,1.7
		c0,0,0,0.1,0,0.2c0.4,0.1,0.9,0,1.4-0.1c2.3-0.5,4.6-0.7,6.9-1.4c2.9-0.9,5.8-2.1,8.6-3.4c0.1-0.3,0.1-0.6,0.2-0.8
		c0.4,0.2,0.8,0.4,1.3,0.6c-0.1-0.4-0.1-0.7-0.2-1.1c0.4-0.1,0.8-0.3,1.2-0.4c-0.3-0.2-0.6-0.5-0.9-0.7c0.1-0.4,0.3-0.7,0.4-1.1
		c-0.5,0.1-0.9,0.2-1.4,0.3c0.3-0.3,0.6-0.5,1.1-0.6c2.4-0.7,4.8-1.5,7-2.6v-0.6c-2.7,1.3-5.7,2.2-8.6,3c-3.1,0.8-6.3,1.1-9.4,1.6
		c0.1-0.3,0.2-0.8,0.3-1.1c-0.3,0.1-0.8,0.3-1.1,0.4c-0.2-0.4-0.5-0.7-0.7-1.1c-0.1,0.4-0.2,0.8-0.4,1.2c-0.4,0-0.9-0.1-1.3-0.1
		c0.2,0.3,0.4,0.6,0.6,0.9c-4.1,0.3-8.3,0.4-12.3,1.6c-3,1-6.1,2.2-8.8,4c-2.4,1.6-5.2,2.8-8,3.6c0.4-1,0.7-2.1,1.2-3.1
		c0.6-0.4,1.3-0.6,2-0.7c1.2,0.2,2.4,0.6,3.6,0.8c-0.3-0.6-0.7-1.2-1-1.8c2.5-1.1,5.2-2,7.6-3.5c1.7-1,3.4-2.1,5.3-2.8
		c0.5,0.1,0.9,0.2,1.4,0.3c0.1,0.4,0.1,0.8,0.2,1.2c0.3-0.3,0.5-0.5,0.8-0.8c0.4,0.2,0.7,0.4,1.1,0.6c0-0.4-0.1-0.7-0.1-1.1
		c0.3-0.1,0.6-0.2,0.9-0.4c0.1-0.4-0.5-0.6-0.7-0.9c5-1.1,10.2-1.2,15.1-2.9c4.6-1.3,8.5-4.2,12.2-7.2l0,0.3v-1.2
		c-1.9,1.6-3.9,3-6,4.3c-4,2.6-8.6,3.9-13.3,4.5c-2.9,0.4-5.9,0.8-8.7,1.4c-0.2-0.3-0.4-0.7-0.7-1c-0.1,0.4-0.3,0.7-0.4,1.1
		c-0.4,0-0.8-0.1-1.2-0.1c0,0.1,0.1,0.4,0.2,0.6c-2.3,0.7-4.3,1.9-6.3,3.2c-2.4,1.4-5,2.5-7.6,3.5c-0.6-0.5-0.9-1.3-1.3-1.9
		c1.1-0.6,2.1-1.6,3.3-2c1.4-0.5,2.8-1,4.3-1.5c0.1,0.1,0.2,0.5,0.3,0.6c0.3-0.2,0.5-0.5,0.8-0.7c0.4,0.2,0.7,0.4,1.1,0.6
		c0-0.3-0.1-0.8-0.2-1c0.8-0.4,1.6-0.7,2.4-1c5.2-1.8,10.4-3.5,15.3-5.9c0.1,0.5,0.2,1.1,0.4,1.6c0.6-0.6,1.1-1.2,1.7-1.8
		c0.7,0.5,1.4,1,2.2,1.3c-0.1-0.8-0.3-1.5-0.3-2.3c1.6-0.5,3-1.3,4.6-1.8c3.2-1,6.4-2,9.5-3v-0.4c-4.1,1.3-8.1,2.6-12.2,3.8
		c-0.6-0.3-1.1-0.6-1.7-0.9c0.4-0.8,0.7-1.6,1-2.5c-0.8,0.3-1.6,0.6-2.3,1c-0.4-0.8-0.9-1.5-1.4-2.2c-0.3,0.8-0.5,1.6-0.7,2.4
		c-0.9-0.2-1.8-0.3-2.7-0.3c0.5,0.7,0.9,1.3,1.4,2c-0.7,0.6-1.4,1.2-2,1.9c0.9,0,1.8,0.1,2.7,0.2c-1.1,0.7-2.4,0.8-3.6,1.2
		c0.3,0.1,0.6,0.3,0.9,0.4c-0.2,0-0.6-0.1-0.8-0.2c-0.6-0.2-1.2,0.1-1.7,0.2c-0.3,0.1-0.6,0.2-0.8,0.2c-0.1,0-0.4,0.1-0.5,0.2
		l-0.2,0.1c-0.4,0-0.8,0.1-1.2,0.3c-2.4,0.7-4.8,1.5-7.2,2.2c-0.3,0.1-0.7,0.3-0.9,0.5c2-0.3,3.9-1.1,5.8-1.6
		c0.9-0.2,1.9-0.8,2.9-0.4c-3.4,1-6.8,2.2-10.2,3.2c0.2-0.7,0.9-1,1.6-1.2c-0.8,0.1-1.5,0.3-2.3,0.6c-0.2-0.3-0.5-0.6-0.7-0.9
		c-0.1,0.3-0.2,0.8-0.2,1.1c-0.4,0-0.8-0.1-1.3-0.1c0,0.1,0,0.4,0.1,0.5c0.1,0.1,0.4,0.4,0.6,0.5c-0.4,0.3-0.9,0.7-1.4,0.8
		c-1.5,0.4-3,1.3-4.5,0.6c1.7-0.8,3.6-1,5.4-1.7c-2.5,0.3-4.9,1.9-7.5,1.5c0.2-0.3,0.5-0.5,0.9-0.7c3.1-1.4,6.2-2.8,9.3-4.3
		c2.7-1.3,5.3-2.9,8-4.3c0,0.4,0.1,0.9,0.1,1.3c0.3-0.2,0.5-0.5,0.8-0.8c0.4,0.2,0.7,0.4,1.1,0.6c0-0.4,0-0.7,0-1.1
		c0.3-0.2,0.7-0.3,1.1-0.5c-0.4-0.2-0.7-0.5-1.1-0.7c4-2.2,8.2-4.2,12.3-6.1c4.4-1.9,8.9-3.6,13.3-5.3v-1.6c-4.4,1.5-8.7,3.4-13,5.1
		c-4.6,2.1-9.1,4.3-13.5,6.8c-0.2-0.1-0.5-0.4-0.7-0.5c0,0.2,0.1,0.7,0.1,0.9c0,0,0,0,0,0l-0.4,0c-0.4,0-0.8,0.1-1.2,0.1
		c0.1,0.1,0.3,0.4,0.3,0.6c-4.5,2.7-9.1,5.3-13.9,7.5c1.6-1.9,4.2-2.2,5.9-3.8c1-1,2.2-1.7,3.4-2.5c2.5-1.6,4.9-3.3,7.5-4.8
		c1.6-1,3.5-1.7,5.2-2.4c-4.7,1.4-8.7,4.4-12.9,6.9c-0.1-0.1-0.3-0.2-0.3-0.2c0.2-0.3,0.5-0.7,0.8-1c-3.4,1.2-6.8,2.7-10.1,4
		c-3,1-6,2.1-9.1,2.9c-0.6-0.5-1.1-0.9-1.7-1.4c2.8-0.6,5.7-1.3,8.4-2.4c5.5-2.1,10.9-4.3,16.2-6.7c5.3-2.5,11-4,16.5-6.1
		c2.1-0.8,4.4-1.4,6.5-2.1c0.1,0.1,0.3,0.2,0.4,0.3c-1.8,0.8-3.7,1.4-5.4,2.3c1.9-0.5,3.7-1.5,5.6-2.1c0.3-0.1,0.6-0.2,1-0.4
		c0.9-0.3,1.8-0.7,2.7-1.1c0.6-0.2,1.1-0.4,1.7-0.7V55c-3,0.8-5.9,1.9-9,2.5c3.1-0.9,6-2.4,9-3.6v-0.7c-2.7,1.2-5.5,2.4-8.3,3.4
		c-5.2,1.7-10.4,3.3-15.6,4.8c-5.8,1.5-11.5,3.4-17.3,4.9c0-0.2,0.1-0.5,0.2-0.7c-0.3,0.1-0.7,0.3-1,0.4c-0.3-0.3-0.5-0.7-0.8-1
		c-0.1,0.4-0.2,0.7-0.3,1.1c-0.4-0.1-0.9-0.1-1.3-0.2c0.2,0.3,0.4,0.6,0.6,0.9c-3.8,1.2-7.8,1.8-11.8,2.6c-0.6-0.3-1.1-0.6-1.6-1
		c3.2-1.4,6.4-2.7,9.7-4c11.3-4.7,22.4-10,33.8-14.7c4.6-1.8,9.2-3.5,13.8-5.2v-0.8c-2.7,0.9-5.4,1.9-8.2,2.9
		c-10.5,3.7-20.6,8.6-30.9,13c-5.8,2.6-11.8,4.9-17.5,7.6c0.1-0.4,0.2-0.8,0.4-1.2c-0.8,0.3-1.6,0.6-2.3,1c-0.4-0.8-0.8-1.5-1.3-2.2
		c-0.4,0.8-0.6,1.6-0.8,2.4c-0.9-0.1-1.8-0.3-2.7-0.3c0.5,0.7,0.9,1.3,1.4,2c-0.6,0.5-1.3,1-1.8,1.7c0,0.1,0.1,0.2,0.1,0.2
		c0.7,0.1,1.5,0,2.2,0.1c0,0.4,0,0.8,0,1.2c-3.3,0.6-6.7,1.1-10.1,1.5c-0.1-0.3-0.2-0.6-0.2-0.9c0.4-0.2,0.8-0.3,1.2-0.5
		c-0.3-0.2-0.7-0.4-1-0.6c0.1-0.4,0.3-0.8,0.4-1.2c-0.4,0.1-0.7,0.3-1.1,0.4c-0.3-0.3-0.5-0.7-0.8-1c-0.1,0.4-0.2,0.7-0.3,1.1
		c-0.4-0.1-0.9-0.1-1.3-0.1c0.2,0.3,0.4,0.6,0.6,1c-0.3,0.3-0.5,0.6-0.8,0.9c0.3,0,0.8,0.1,1,0.1c0,0.3,0.1,0.6,0.1,1
		c-2.3,0.2-4.6,0.3-6.9,0.4c0-0.3-0.1-0.8-0.2-1.1c0.8-0.2,1.7-0.4,2.4-0.9c-0.5-0.6-1.3-0.8-1.9-1.2c3.1-1.3,6.2-2.8,9.3-4.3
		c-0.5,0.1-0.9,0.3-1.4,0.4c0.4-0.5,0.8-0.9,1.2-1.4c0.7,0.6,1.4,1,2.2,1.3c-0.1-0.4-0.1-0.9-0.2-1.3c2.8-1.3,5.6-2.5,8.4-3.7
		c4-1.7,8.3-2.7,12.4-4.1c-2.3,0.6-4.5,1.4-6.8,2c-4.9,1.4-9.5,3.6-14.1,5.7c0-0.2-0.1-0.7-0.1-1c0.9-0.2,1.7-0.5,2.5-0.9
		c-0.4-0.3-0.7-0.5-1.1-0.8c4.7-0.6,9-2.4,13.5-3.8c4.9-1.8,10-3.2,14.7-5.5c0.2,0.3,0.5,0.7,0.7,1c-0.4,0.4-0.9,0.8-1.4,0.9
		c-2.6,0.7-5.1,1.4-7.6,2.3c1.7-0.3,3.3-1,5-1.4c1.4-0.4,2.8-1,4.3-0.9c0.1,0.4,0.2,0.9,0.2,1.3c0.3-0.3,0.5-0.5,0.8-0.8
		c0.4,0.2,0.8,0.4,1.2,0.6c0-0.4-0.1-0.7-0.1-1.1c0.4-0.1,0.7-0.3,1.1-0.4c-0.3-0.2-0.5-0.5-0.8-0.7c0.6-0.2,1.1-0.3,1.6-0.6
		c-0.6,0.1-1.2,0.3-1.7,0.4c0.1-0.3,0.3-0.8,0.4-1.1c-0.4,0.1-0.7,0.3-1.1,0.4c-0.2-0.3-0.3-0.6-0.5-0.9c2.7-1.2,5.2-2.7,7.8-4.1
		c0.1,0.7,0.2,1.4,0.4,2.1c0.6-0.6,1.1-1.2,1.7-1.8c0.7,0.5,1.4,1,2.2,1.3c-0.1-0.8-0.2-1.6-0.4-2.3c0.9-0.2,1.7-0.5,2.5-1
		c-0.6-0.3-1.1-0.6-1.7-1c0.2-0.3,0.5-0.4,0.8-0.6c8.1-4.4,16.1-9,24.2-13.5v-0.9c-8.3,4.6-16.7,9.2-25,13.9c0.2-0.5,0.4-1,0.5-1.6
		c-0.8,0.3-1.6,0.7-2.4,1c-0.4-0.8-0.8-1.5-1.4-2.1c-0.2,0.8-0.5,1.6-0.7,2.4c-0.9-0.2-1.7-0.3-2.6-0.4c0.4,0.7,0.8,1.4,1.3,2
		c-0.7,0.6-1.3,1.2-1.9,1.9c0.5,0,1,0.1,1.5,0.1c-3.6,2.3-7.6,4.1-11.5,5.9c-3.6,1.6-7.3,2.7-11,4c-5.1,1.7-10.1,4-15.6,4.6
		c0.3-0.5,0.4-1.1,1-1.4c3.5-1.9,7.1-3.4,10.7-5c3.4-1.6,6.9-2.7,10.3-4.3c0.9-0.3,1.7-0.5,2.6-0.7c0.7-0.2,1.5-0.3,2.2-0.5
		c-1.6-0.1-3.2-0.1-4.8,0c-1,0-1.9,0.1-2.9,0.1c1.9-1.3,4-2.5,6-3.7c0.9-0.5,1.7-1.2,2.7-1.4c2.4-0.6,4.8-1.2,7-2.2
		c2.3-1,4.6-2.2,6.9-3.4c0.4-0.2,0.7-0.5,0.8-0.9c-2,0.5-3.9,1.3-5.9,1.8c1.2-0.8,2.4-1.4,3.6-2.1c4.2-2.2,8.4-4.5,12.6-6.7
		c5.3-2.7,10.6-5.3,15.9-8.2v-0.5c-8,4.3-16.1,8.1-24,12.5c-3.7,2.1-7.6,3.8-11,6.4c1.9-0.5,3.6-1.3,5.5-1.6c0.1-0.9,0.9,0.2,0,0
		c-3.6,2.1-7.4,3.7-11.5,4.4c-0.5,0.1-1,0.2-1.5,0.5c-2.6,1.6-5.2,3.2-7.7,4.7c0-0.3-0.1-0.8-0.1-1.1c0.4-0.2,0.8-0.4,1.2-0.6
		c-0.1-0.1-0.4-0.2-0.6-0.3c-0.5,0.2-1.1,0.4-0.9,1.1c-0.4-0.1-0.8-0.1-1.1,0.2c-0.1-0.5-0.4-0.7-0.9-0.7c0.1-0.1,0.4-0.3,0.6-0.4
		c-0.1-0.1-0.3-0.4-0.5-0.6c0.5,0,0.9-0.1,1-0.7c0.3,0.4,0.6,0.6,1.1,0.3c0,0.2-0.1,0.7-0.2,0.9l0.7-0.2l-0.4-0.2
		c0.6-1,1.8-1.3,2.8-1.8c5.3-2.9,10.7-5.6,16.1-8.3c10.3-5.4,21-9.9,31.4-15.1v-0.4c-10.4,5.4-21.2,9.9-31.6,15.3
		c-5.6,2.9-11.3,5.7-16.9,8.8c-0.7,0.4-1.5,0.6-2.3,0.7c-0.2-0.3-0.4-0.6-0.6-1c-0.2,0.4-0.3,0.7-0.4,1.1c-0.4,0-0.9-0.1-1.3-0.1
		c0.2,0.3,0.4,0.6,0.7,0.9c-0.4,0.4-0.7,0.7-1.1,1.1c0.4,0,0.9-0.1,1.3-0.1c0.1,0.4,0.1,0.8,0.2,1.3c0.3-0.3,0.6-0.5,0.8-0.8
		c0.3,0.2,0.6,0.3,0.9,0.5c-0.7,0.7-1.8,0.7-2.7,1.1c-2.6,1-5.3,1.7-7.9,2.7c-1.4,0.4-2.7,1-4.1,1.3c0.7-0.4,1.4-0.7,2-1.2
		c-2.2,0.8-4.1,2-6.3,2.7c-2.5,0.8-4.9,1.6-7.4,2.4c-5.2,2-10.4,3.9-15.5,5.9c-1.4,0.5-2.9,0.8-4.3,1.2c-2.4,0.7-4.7,1.5-7,2.3
		c-2.9,1-5.6,2.3-8.3,3.5c-1.4,0.7-2.9,1.2-4.3,2c-0.5,0.3-1,0.5-1.5,0.7c0.1-0.2,0.2-0.6,0.2-0.8c-1.1,0.6-2.3,1.1-3.2,2
		c0.1,0,0.4,0.1,0.6,0.2c-0.5,0.3-0.9,0.7-1.4,1.1c-1.2,0.9-2.2,1.9-3.1,3c-1.6,2.1-4.1,3-6.2,4.4c-1.9,0.8-3.8,1.6-5.6,2.8
		c1.7-0.8,3.4-1.7,5.2-2.4c-0.2,0.3-0.7,0.8-1,1.1c0.4-0.3,0.8-0.7,1.3-1c2-0.9,3.9-2.1,5.5-3.5c0.1,0.1,0.3,0.3,0.4,0.4
		c-2.6,1.8-5.2,3.5-7.6,5.6c-3.3,3-7.2,6-11.8,6.3c0.8-1.2,1-3.2,2.8-3.3c1.1-0.2,2.3-0.6,3.1-1.4c0.7-0.1,1.4-0.3,2.1-0.7
		c-0.7,0.2-1.3,0.4-2,0.5c0.6-0.5,1.1-1,1.7-1.4c-1.2,0.5-2,1.8-3.3,2.3c-0.9,0.4-1.8,0.5-2.8,0.6c1.1-1.1,2.4-1.9,3.6-2.8
		c2.8-1.9,5.7-3.7,8.6-5.5c1.1-0.7,2.3-1.3,3.3-2.1c-0.4,0.2-0.8,0.3-1.1,0.5c-4.5,2.8-9.1,5.4-13.4,8.6c-1.4,1-2.4,2.5-3.5,3.8
		c-1.6,1.2-3.4,2.3-4.7,4c-0.8,1-1.3,2.2-1.8,3.4c0.1,0.2,0.2,0.3,0.4,0.5c0.4-1.8,1.4-3.5,2.8-4.7c1.2-1.1,2.5-2.2,4.1-2.8
		c-0.7,0.7-1.5,1.3-2.4,1.7c0.3,0.1,0.5,0.3,0.8,0.4c-0.6,1.1-1.3,2.2-2.3,3c-0.9,0.8-1.5,1.9-2.1,2.9c-0.1-1,0.4-2,0.7-2.9
		c-0.2,0.4-0.4,0.8-0.6,1.2c-0.5,1-0.3,2.1-0.7,3.1c-0.3,0.6-0.5,1.3-0.7,2c-0.3-0.7-0.2-1.4-0.2-2.2c0.3-1-0.1-2,0.3-3
		c0.7-1.8,1.4-3.7,2.5-5.3c1-1.5,2.8-2.3,4.3-3.4c4-2.9,8.3-5.5,12.3-8.3c3.1-2.2,6.5-3.9,9.8-5.9c0.1,0.1,0.3,0.2,0.5,0.2
		c-0.4,0.3-0.8,0.5-1.2,0.8c0.5-0.2,1-0.4,1.4-0.7c0.3-0.3,0.7-0.7,0.7-1.2c2.1-1.3,4.2-2.5,6.3-3.7c0.1,0.1,0.3,0.3,0.4,0.4
		c0.1-0.1,0.4-0.2,0.6-0.2c1.2-0.7,2.4-1.4,3.5-2.2c0.8-0.4,1.6-0.9,2.3-1.3c0.6-0.3,1.1-0.5,1.7-0.8c-0.2-0.1-0.5-0.2-0.6-0.3
		c2.6-2,5-4.4,7.5-6.4c1.9-1.6,4.1-2.8,6.4-3.9c0.1,0.1,0.4,0.4,0.6,0.5c-0.7,0.6-1.4,1.2-2,2c0.8,0,1.6,0,2.4,0.1
		c0,0.4,0,0.8,0,1.2c-4.6,2.2-9.2,4.3-13.8,6.5c4.7-2,9.2-4.3,13.8-6.3c0.1,0.4,0.2,0.8,0.3,1.2c0.6-0.6,1.1-1.2,1.6-1.8
		c0.7,0.5,1.5,1,2.3,1.3c-0.1-0.8-0.2-1.6-0.4-2.4c0.8-0.2,1.6-0.5,2.4-0.8c-0.1-0.2-0.1-0.4-0.2-0.7c5.5-3.7,10.7-7.8,16.3-11.2
		c0.4-0.2,0.8-0.3,1.3-0.3c-0.1,0.3-0.2,0.6-0.4,0.8c-0.1,0.1-0.4,0.3-0.5,0.4c0.2,0,0.6,0.1,0.8,0.1c-3,2-5.9,4.1-8.9,6.2
		c-0.3,0.2-0.5,0.5-0.6,0.9c6.3-2.8,12.4-5.9,18.8-8.4c-5.6,1.8-10.7,4.7-16.2,6.8c2.3-1.8,4.7-3.4,7.1-4.9c0.1,0.2,0.2,0.5,0.2,0.6
		c0.1-0.1,0.4-0.3,0.6-0.4l-0.3,0c0-0.3-0.1-0.6-0.1-0.9c0-0.1-0.1-0.3-0.2-0.4c0-0.2,0-0.5-0.1-0.7c0.3-0.1,0.6-0.3,0.8-0.4l0.4,0
		c0-0.1,0-0.3,0-0.4c0-0.2,0-0.5-0.1-0.6c7.3-4.1,14.2-8.7,21.5-12.7c1.1-0.6,2.2-1.4,3.4-1.8c-3.9,2.8-7.9,5.6-12.1,8.1
		c-3.8,2.4-7.7,4.6-11.4,7.1c-0.1-0.1-0.2-0.4-0.3-0.5c-0.2,0.2-0.4,0.3-0.6,0.5c0,0.4,0,0.9,0.3,1.2c-0.4,0.2-0.5,0.6-0.6,1
		c-0.1-0.1-0.3-0.3-0.5-0.4c-0.1,0.1-0.2,0.3-0.3,0.4c0.4,0.3,0.8,0.5,1.2,0.7c0-0.4-0.1-0.8-0.1-1.2c0.4-0.1,0.8-0.3,1.1-0.4
		c-0.2-0.1-0.5-0.4-0.7-0.6c5.4-3.6,11.1-6.8,16.5-10.3c3-2.1,6-4.2,9-6.3c-0.8,1.3-1.2,2.9-2.2,4.1c1.7-1,3.6-1.7,5.5-2.1
		c0.5,1.6,1.1,3.2,2,4.7c0.3-0.3,0.5-0.5,0.8-0.8c-0.1-0.1-0.2-0.2-0.2-0.3c0.5-1.2,0.9-2.3,1.4-3.5c1.4,0.5,2.9,0.9,4.3,1.2
		c-1.5,0.9-3.2,1.4-4.8,2.2c2-0.5,3.7-1.6,5.7-2.2c-1-1.3-1.7-2.9-2.6-4.3c1.3-0.9,2.6-1.7,3.7-2.7c1.2-1.1,2.7-1.6,4.1-2.4
		c7.5-4,15.1-7.9,22.7-11.5V13c-8.6,4.2-17.2,8.7-25.7,13.2c-0.4,0.2-0.9,0.5-1.4,0.4c-1.2-0.1-2.4-0.4-3.6-0.6
		c2-1.5,4.1-2.8,6.1-4.3c-2.3,1.3-4.4,3-6.7,4.4c0-1,0.1-2,0.2-3c4.1-2.6,8.1-5.2,12.2-7.8c3.7-2.4,7.8-4.4,11.7-6.5
		c2.3-1.2,4.8-2.2,7.2-3.3V5C236.9,6.2,234.2,7.2,231.6,8.5z M230.8,81.5l0-0.4l0-0.2c0.5,0.1,0.9,0.7,1.4,0.2
		c-0.3,0.5-0.3,0.9,0.2,1.1c-0.5,0.2-0.7,0.5-0.5,1c-0.2-0.1-0.5-0.2-0.6-0.3c-0.2,0.1-0.4,0.3-0.6,0.4c0-0.5-0.3-0.7-0.8-0.7
		c0.2-0.2,0.3-0.4,0.5-0.6c-0.1-0.1-0.3-0.4-0.4-0.6C230.2,81.5,230.6,81.5,230.8,81.5z M229.5,81.1c0.2,0.3,0.4,0.6,0.5,0.8
		c-0.3,0.3-0.6,0.6-0.8,1c0.3,0,0.7,0,1.1,0c0,0.2,0.1,0.8,0.1,1c-2.4,0.4-4.9,0.6-7.3,0.8c1.2-1.1,2.5-2.1,3.8-3.1
		C227.6,81.4,228.6,81.3,229.5,81.1z M219.1,81.6c0.6,0.2,1,0,1-0.6c0.1,0.2,0.3,0.5,0.5,0.6c0.2-0.1,0.5-0.2,0.7-0.3
		c-0.3,0.5-0.1,0.9,0.4,1.2c-0.6,0-0.8,0.3-0.6,1c-0.1-0.1-0.4-0.3-0.5-0.3c-0.2,0.1-0.4,0.1-0.6,0.2c-0.2-0.4-0.5-0.6-1-0.5
		C219.4,82.4,219.6,82,219.1,81.6z M209.8,78.9c0.2,0,0.6,0,0.8,0c0.1-0.2,0.2-0.5,0.3-0.7c0.2,0.6,0.6,0.7,1.1,0.3
		c-0.3,0.4-0.3,0.8,0.1,1.1c-0.4,0.2-0.5,0.5-0.4,0.9c-0.4-0.1-0.8-0.2-1.2,0c-0.1-0.4-0.4-0.6-0.9-0.6c0.1-0.1,0.4-0.4,0.6-0.5
		C210.1,79.4,209.9,79.1,209.8,78.9z M220.2,71.3c0.5-0.4,1-0.8,1.4-1.3c-0.3-0.5-0.7-1-1.1-1.5c0.6,0.1,1.2,0.2,1.9,0.3
		c0.2-0.6,0.4-1.2,0.6-1.8c0.3,0.6,0.5,1.2,1,1.6c0.6-0.3,1.1-0.5,1.7-0.8c-0.3,0.6-0.6,1.2-0.7,1.8c0.5,0.3,1,0.5,1.5,0.8
		c-0.6,0.2-1.3,0.2-1.7,0.7c0,0.6,0.1,1.1,0.2,1.7c-0.5-0.4-1-0.8-1.7-0.9c-0.4,0.4-0.7,0.8-1.1,1.2c0-0.6,0.2-1.2-0.2-1.7
		C221.5,71.3,220.8,71.4,220.2,71.3z M202,78.9c-0.1-0.2-0.3-0.5-0.4-0.7c0.6,0.3,0.9-0.1,1.1-0.6c0.1,0.1,0.3,0.4,0.4,0.6
		c0.2-0.1,0.6-0.2,0.8-0.3c-0.1,0.1-0.3,0.4-0.3,0.6c0.4,0.3,0.5,0.6,0,0.8c0,0.2,0,0.5,0,0.6c-0.4-0.3-0.9-0.3-1.1,0.2
		c0-0.6-0.4-0.7-0.9-0.7C201.6,79.3,201.9,79.1,202,78.9z M211.6,69.3c0.5,0.2,0.8,0,0.9-0.5c0.2,0.2,0.4,0.3,0.6,0.5
		c0.1-0.1,0.4-0.2,0.6-0.3c-0.1,0.2-0.2,0.6-0.2,0.8c0.1,0.1,0.4,0.2,0.5,0.3c-0.5,0.1-0.6,0.6-0.6,1.1c-0.1-0.1-0.4-0.3-0.5-0.4
		c-0.1,0.1-0.4,0.3-0.5,0.4c-0.1-0.4-0.4-0.6-0.8-0.7C211.9,70.1,211.9,69.7,211.6,69.3z M208.6,47.9c0.5-0.4,1-0.8,1.4-1.4
		c-0.3-0.5-0.7-0.9-1-1.4c0.6,0.1,1.2,0.2,1.8,0.2c0.2-0.6,0.4-1.1,0.6-1.7c0.4,0.5,0.5,1.2,1.1,1.4c0.6-0.2,1.1-0.4,1.7-0.7
		c-0.3,0.6-0.5,1.2-0.7,1.8c0.5,0.3,1,0.5,1.5,0.8c-0.6,0.2-1.4,0.2-1.7,0.8c0,0.5,0.1,1.1,0.2,1.6c-0.5-0.4-1-0.8-1.6-0.9
		c-0.4,0.4-0.8,0.9-1.2,1.3c0.1-0.6,0-1.2-0.1-1.7C209.8,47.9,209.2,47.9,208.6,47.9z M201.5,53.2c0,0.2,0,0.5,0,0.7
		c0.5,0.1,0.8,0.6,1.4,0.1c-0.3,0.4-0.3,0.8,0.2,1c-0.4,0.2-0.7,0.5-0.5,1c-0.4-0.3-0.8-0.3-1.1,0.1c-0.1-0.5-0.4-0.7-0.9-0.7
		c0.1-0.2,0.4-0.5,0.5-0.6c-0.1-0.1-0.3-0.5-0.4-0.6c0.2,0,0.6,0.1,0.8,0.1l0-0.4c-0.4-0.1-0.8-0.1-1.2-0.3
		C200.8,53.5,201.2,53.3,201.5,53.2z M88.3,125.3c-1-0.6-1.4-1.8-1.5-3c0.7,1.3,2,2.1,3.2,3c0.7,0.5,1.5,1,2.3,1.4
		C90.8,126.8,89.5,126.1,88.3,125.3z M87.2,118.6c0.2,1,0.2,2,0.5,3c0.6,1.2,1.7,2,2.6,2.9c0,0.1,0,0.3,0.1,0.3c-0.1,0-0.3,0-0.3,0
		c-1.1-0.8-2.4-1.7-2.8-3C86.9,120.7,87.1,119.7,87.2,118.6z M91.5,125.1c0.6,0.2,1.2,0.3,1.8,0.6c-0.1,0.1-0.3,0.2-0.3,0.3
		C92.5,125.8,92,125.5,91.5,125.1z M99.5,132.4c0.1-0.4,0.8-0.4,0.8,0.1C100.1,132.5,99.7,132.5,99.5,132.4z M110.7,131.3
		c-0.4,0.1-0.8,0.2-1.1,0.4c-0.1,0.1-0.3,0.2-0.4,0.2l-0.1,0.1c-0.1,0-0.2,0.1-0.3,0.1c-0.4,0-0.8,0.2-1.1,0.5
		c-0.1,0.1-0.4,0.2-0.6,0.3c-0.3,0-0.6,0.2-0.8,0.3c-1.6,0.3-3.3,0.1-4.8-0.7c-0.4-0.2-0.8-0.6-1.4-0.6c-1.2-0.1-2.4-0.4-3.6-0.6
		c-0.1-0.1-0.3-0.2-0.4-0.2c-1.2-0.9-2.2-1.9-3-3.1c-0.1,0.1-0.2,0.4-0.2,0.6c-0.5-0.5-1.1-1-1.6-1.4c0.5-0.3,1-0.1,1.4,0.3
		c0.4-0.2,0.8,0,1.2,0.2c0.1,0.2,0.3,0.3,0.4,0.5c0.8,0.8,1.6,1.6,2.5,2.3c0.2,0.2,0.5,0.5,0.7,0.7c0.2,0,0.5-0.1,0.6-0.1
		c-0.2-0.2-0.3-0.3-0.5-0.5c-0.1-0.1-0.2-0.3-0.3-0.3c0.8,0.3,1.6,0.4,2.4,0.5c0.3,0.1,0.7,0,0.8,0.3c-0.6,0.2-1.3,0.1-2,0.2
		c0.8,0.2,1.7,0,2.4,0.4c1.8,1,4.1,1.1,6.1,0.5c0.2-0.1,0.5-0.1,0.7-0.2c1-0.3,1.9-0.7,2.8-1.2c0.2,0,0.6,0.1,0.8,0.1
		C111.1,131,110.9,131.1,110.7,131.3z M126.1,123.7c-1.5,0.8-3.2,1.5-4.7,2.4c-1.7,1.1-3,2.8-4.3,4.4c-0.5,0.6-1.3,0.8-2.1,0.8
		c-1.2,0.1-2.4,0.1-3.5,0.3l0.1-0.6c0.7,0.1,1.5,0.4,2.1-0.1c1.2-0.7,2.7-0.8,3.8-1.6c1.2-0.9,1.9-2.3,2.8-3.4
		c1-1.1,2.5-0.8,3.7-1.4c1.6-0.8,2.9-2,4.1-3.3c1.3-1.6,3.5-2,5-3.5c0.1,0.1,0.3,0.2,0.4,0.4C130.9,119.7,128.8,122.1,126.1,123.7z
		 M116.5,129.3c0-0.4,0.5-0.7,0.9-0.6C117.4,129,116.9,129.3,116.5,129.3z M121,124.8c0.5-0.8,1.5-0.8,2.2-1.2c0.8-0.3,1.4-1,2-1.5
		c0.8-0.5,1.8-0.8,2.6-1.2c-0.8,1.2-2,2-3.2,2.9C123.6,124.4,122.3,124.7,121,124.8z M169.2,106.1c-0.4-0.3-0.8-0.3-1.2,0
		c-0.1-0.5-0.5-0.6-1-0.6c0.1-0.1,0.4-0.4,0.6-0.5c-0.1-0.2-0.2-0.5-0.3-0.7c0.5,0.2,0.8,0,0.9-0.6c0.3,0.5,0.7,0.7,1.2,0.3
		c-0.2,0.4-0.1,0.8,0.1,1.1C169.1,105.4,169,105.7,169.2,106.1z M206.7,89.7c0.2-0.3,0.3-0.5,0.5-0.8c1.8-0.4,3.6-0.9,5.4-1.3
		c0.4-0.1,0.9-0.1,1.3,0c-2.4,0.7-4.8,1.6-7.2,2.4L206.7,89.7z M204.5,90.6c-0.1-0.3-0.3-0.5-0.4-0.7c0.6,0.3,0.9,0,1-0.6
		c0.3,0.5,0.7,0.7,1.2,0.3c-0.5,0.5-0.2,0.8,0.3,1.1c-0.5,0.1-0.7,0.5-0.6,1c-0.5-0.4-0.9-0.3-1.2,0.2c0.2-0.7-0.3-0.8-0.9-0.8
		C204.1,91,204.3,90.8,204.5,90.6z M188.4,95.9c1.2-0.6,2.5-0.7,3.8-1c4-0.7,7.8-1.7,11.7-2.8c-4.5,1.9-9,3.9-13.6,5.5
		c-6.7,2.3-13.5,4.7-20.4,6.4c0-0.1,0-0.4,0.1-0.6c-0.4,0.2-0.7,0.3-1.1,0.5c-0.2-0.4-0.4-0.7-0.6-1.1c-0.1,0.4-0.3,0.8-0.4,1.2
		c-0.4-0.1-0.8-0.1-1.2-0.1c0.2,0.3,0.3,0.6,0.5,0.9c-3.8,1.1-7.6,1.8-11.4,2.5c-0.3,0-0.8,0-1.1,0c1.6-1,3.6-1.3,5.3-2.3
		c-1.2,0.2-2.3,0.7-3.4,1.1c-1.5,0.6-3,1.1-4.4,1.9c-3.4,1.7-6.7,3.6-10.2,5c-0.9,0.4-1.8,0.6-2.7,0.6c-2.2,0-4.3,0.5-6.5,0.7
		c-3.2,0.2-5.3,3.3-8.5,3.7c0.5-1.3,1.6-2.1,2.6-3c0.7-0.6,1.4-1.3,2.4-1.6c1.1-0.3,2.2-0.3,3.3-0.3c-0.3,0.2-0.6,0.5-0.8,0.7
		c3.1-0.9,6.4-0.3,9.5-1.2c1.8-0.3,3.2-1.5,4.7-2.4c3.4-1.8,6.8-3.7,10.4-5.1c2.8-1,5.8-1.4,8.7-2.4c3.8-1.3,7.5-2.7,11-4.7
		c0,0.2,0,0.7,0,1c-5,2.7-10.5,4-15.8,5.9c1-0.1,1.8-0.6,2.7-0.8c4.3-1.5,8.7-2.6,12.8-4.4c1.1-0.2,2.3-0.3,3.5-0.5
		c-0.9-0.1-1.7,0.2-2.6,0.2c0.6-0.5,1.3-0.8,2-1c0.3,0.1,0.6,0.4,0.9,0.6c0.2,0,0.5,0.1,0.7,0.1c-0.1-0.4-0.2-0.9-0.2-1.3
		c2-0.7,4.1-1.3,6.2-1.8c0.3,0,0.8,0.1,1,0.2c-2.2,1-4.4,2.1-6.7,2.6c2.5-0.3,4.8-1.7,7.2-2.5C187.8,96.1,188.1,96,188.4,95.9z
		 M182,95c0.3-0.1,0.7-0.1,1-0.1c-0.3,0-0.5,0.2-0.6,0.5l0.1,0.2c1.6-0.3,3.2-0.7,4.8-0.6c-1.1,0.1-2.2,0.6-3.3,0.7
		c-0.1,0.1-0.4,0.2-0.5,0.2c-1.4,0.4-2.7,1.1-4.1,1.4c0.6-0.9,2.7-0.5,2.5-1.9c-0.2,0-0.7-0.1-1-0.1C181.4,95.1,181.7,95,182,95z
		 M177.3,92.3c0.3,0.5,0.5,1.2,1.1,1.5c0.5-0.2,1.1-0.5,1.7-0.7c-0.3,0.6-0.5,1.2-0.7,1.8c0.5,0.3,1,0.6,1.6,0.8
		c-0.6,0.1-1.3,0.2-1.8,0.7c0.1,0.6,0.2,1.1,0.3,1.7c-0.5-0.4-1-0.7-1.6-0.9c-0.4,0.4-0.7,0.8-1.1,1.2c0-0.6,0-1.2-0.3-1.7
		c-0.6,0-1.2-0.1-1.8-0.1c0.5-0.4,1-0.8,1.4-1.3c-0.3-0.5-0.7-1-1.1-1.5c0.6,0.1,1.3,0.2,1.9,0.2C177,93.4,177.2,92.8,177.3,92.3z
		 M139.8,108c-1.7,0.4-3.5,0.8-4.8,1.9c-0.4,0.3-0.4,0.8-0.4,1.2c-1.2-0.1-2.4,0-3.6-0.3c-0.2-1.3,0.1-2.7,1.4-3.2
		c1.5-0.3,3.1-0.1,4.5-0.9c0.8-0.6,1.3-1.8,2.5-1.8c1.3-0.1,2.5-0.4,3.8-0.7c2.6-0.8,5.4-1.1,8-2c-1.7,0.3-3.3,0.9-5,1.2
		c-2.2,0.4-4.3,1.4-6.6,1.3c0.8-0.8,2-0.8,3-1.1c4.1-0.7,8-2,11.8-3.5c1.4-0.6,2.7-1.3,4-2c0.5-0.3,1.1-0.7,1.7-0.7
		c0.4-0.5,1-0.6,1.6-0.8c2.3-0.8,4.7-1,7-1.4c1.9-0.3,3.6-1,5.3-1.7c0.3,0.5,0.6,0.9,0.9,1.4c-1.1,0.3-2.2,0.6-3.3,0.8
		c-3.3,0.6-6.4,1.8-9.5,2.8c-3.7,1.3-7.4,2.3-11,3.7c1.2-0.2,2.3-0.7,3.4-1c4.2-1.4,8.5-2.7,12.7-4c0.9-0.3,1.9-0.7,2.9-0.5
		c-2.4,0.8-4.8,1.7-7,2.9c-3,1.6-6.2,2.6-9.3,3.9c-1.8,0.8-3.4,2.1-5.1,3C145.9,106.9,142.8,107.4,139.8,108z M147.1,107.3
		c-1.7,0.9-3.5,1.4-5.2,2c-2.2,0.7-4.4,1.6-6.7,1.8c0-1,1.1-1.2,1.8-1.5C140.2,108.4,143.7,108.1,147.1,107.3z M156.5,94.9
		c-0.6-0.1-1.1-0.1-1.7-0.1c0.5-0.4,1-0.8,1.3-1.4c-0.4-0.5-0.7-0.9-1-1.4c0.6,0.1,1.2,0.2,1.8,0.2c0.2-0.6,0.4-1.2,0.6-1.8
		c0.3,0.5,0.4,1.4,1.1,1.5c0.6-0.2,1.1-0.4,1.6-0.7c-0.3,0.6-0.6,1.2-0.7,1.8c0.5,0.2,1,0.5,1.5,0.8c-0.6,0.2-1.4,0.1-1.7,0.8
		c0,0.5,0.2,1.1,0.2,1.6c-0.5-0.4-1-0.8-1.6-0.9c-0.4,0.4-0.8,0.8-1.2,1.3C156.9,96.1,157,95.4,156.5,94.9z M156.2,95.5
		c-0.5,0.5-1,1-1.5,1.6c-0.8,0.2-1.6,0.4-2.4,0.5C153.2,96.3,154.5,94.6,156.2,95.5z M141.6,101.2c-0.1-0.4-0.5-0.5-0.8-0.7
		c0.1-0.4,0.3-0.8,0.4-1.1c-0.3,0.1-0.6,0.2-1,0.3c0.7-0.7,1.6-1,2.4-1.4c1.3-0.6,2.5-1.3,3.8-1.8c-0.6,1-1.6,1.6-2.1,2.6
		c1-1,2-2.1,3-3.1c1.2-1.2,2.9-1.4,4.2-2.4c-0.8,0.2-1.6,0.6-2.3,1c-2,0.7-3.8,1.9-5.7,2.7c0.8-0.8,1.5-1.7,2.6-2.1
		c1.7-0.7,3.4-1.2,5.1-1.9c1.2-0.5,2.2-1.1,3.4-1.6c0,0.1,0,0.4-0.1,0.5c0.3,0.2,0.6,0.4,0.8,0.7c-0.7,0.5-1.4,0.8-2,1.3
		c-2,1.5-3.1,4-5.2,5.5c-1.5,1.2-3.4,1.7-5.4,1.8c0-0.1-0.1-0.2-0.2-0.3c0.6-0.7,1.3-1.3,1.7-2.1
		C143.1,99.5,142.6,100.7,141.6,101.2z M140.3,101.9c-0.3,0-0.9-0.6-1,0.2c-0.1-0.1-0.2-0.4-0.3-0.6c-0.1,0-0.4,0.1-0.5,0.1
		c0.2,0.5,0.2,1.1-0.5,1.2c-1.5,0.5-3.2,1.4-4.7,0.4c1.5-0.7,3-1.3,4.4-2.2c-0.1,0.2-0.2,0.5-0.2,0.6l0.7,0.1
		c0.1-0.3,0.2-0.5,0.4-0.6c0-0.2-0.1-0.6-0.2-0.9c0.5,0.1,0.8,0,0.9-0.5c0.3,0.3,0.7,0.4,1.2,0.2c-0.3,0.4-0.2,0.7,0.1,1
		C140.4,101.1,140.1,101.4,140.3,101.9z M154.9,91.4c0.8-0.5,1.5-0.9,2.3-1.4c-0.1,0.5-0.3,0.9-0.4,1.4
		C156.2,91.4,155.6,91.4,154.9,91.4z M176.9,86.2c-0.2-0.4-0.4-0.7-0.6-1.1c2.4-0.8,4.9-1.2,7.3-2c-8.5,2.2-17,4.2-25.2,7.4
		c-0.2-0.3-0.5-0.5-0.5-0.9c3-2.2,6.8-3,10.3-4c0.5-0.2,1.1-0.3,1.6-0.4c2.9-0.7,5.8-1.3,8.8-2c0.8-0.1,1.6-0.3,2.4-0.5
		c0.7-0.2,1.4-0.3,2.1-0.5c0.7,0.6,1.4,1.1,2.2,1.5c-0.4,0.5-0.7,1.1-1.1,1.5c-2.1,0.8-4.3,1.6-6.5,1.9c0.1-0.4,0.3-0.8,0.4-1.3
		C177.7,85.9,177.3,86.1,176.9,86.2z M177.2,88.4c-0.4-0.3-0.8-0.3-1.1,0.2c-0.1-0.5-0.4-0.8-0.9-0.7c0.1-0.2,0.3-0.4,0.4-0.7
		c-0.1-0.1-0.3-0.4-0.4-0.5c0.5,0.1,1,0.1,1-0.6c0.3,0.5,0.7,0.5,1.2,0.2c-0.2,0.4-0.3,0.8,0.1,1.1
		C177.2,87.6,177.1,87.9,177.2,88.4z M158.9,91.4c-0.1-0.2-0.3-0.6-0.4-0.8c5.8-2.2,11.7-3.9,17.7-5.5c-0.1,0.4-0.2,0.8-0.3,1.2
		c-0.4-0.1-0.9-0.1-1.3-0.2c0.2,0.3,0.4,0.7,0.6,1c-0.4,0.4-0.8,0.8-1.4,0.9c-3.2,0.8-6.4,1.7-9.5,2.9c-1.3,0.4-2.4,1.2-3.8,1.3
		c0.2-0.6,0.4-1.2,0.6-1.8C160.5,90.7,159.7,91.1,158.9,91.4z M164.9,99.1c3.3-1.5,6.6-2.6,10-3.7c-0.6,0.5-1.1,1-1.6,1.6
		c0.4,0,0.9,0,1.3,0c-2.3,1-4.7,1.8-7.1,2.7c-2.4,0.9-5,1.4-7.6,1.8C161.7,100.7,163.3,100,164.9,99.1z M175.5,91.1
		c-3.7,0.9-7.5,1.7-11.2,2.8c1.1,0,2-0.4,3-0.7c3.3-0.8,6.5-1.6,9.9-2.2c-0.2,0.8-0.4,1.6-0.7,2.4c-0.6-0.2-1.2-0.3-1.8-0.4
		c0.4-0.3,1.1-0.4,1.1-1c-2.7,0.7-5.4,1.6-8.2,2c-0.5,0.1-1,0.2-1.6,0c0,0.1-0.1,0.5-0.2,0.6c2,0,3.9-0.6,5.8-1
		c-3.8,1.2-7.9,1-11.7,2.6c0.1-0.4,0.6-0.5,1-0.6c1.6-0.5,3.2-0.9,4.9-0.9c-0.2-0.2-0.4-0.3-0.5-0.5c-0.2,0-0.7,0.1-1,0.1
		c-0.2-0.2-0.3-0.4-0.5-0.6c-0.4,0.2-0.3,0.6-0.5,0.9c-1.2,0-2.3,0.6-3.5,0.8c0.7-0.6,1.7-0.6,2.5-0.9c-0.1-0.1-0.4-0.3-0.5-0.4
		c0.1-0.1,0.3-0.2,0.4-0.3c-0.5-0.2-0.9-0.4-1.2-0.8c-0.3-0.1-0.6-0.1-0.8-0.2c0-1.1,1.5-0.4,2.1-0.6c-0.3,0.3-0.7,0.4-1.1,0.5
		c0.4-0.1,0.8-0.1,1.1,0.2c0-0.1-0.1-0.5-0.1-0.6l0.5,0.1l-0.1-0.4c1.1,0.2,2.1-0.5,3.2-0.6c0.1-0.3,0.2-0.5,0.5-0.5
		c2.7-0.8,5.5-1.4,8.3-2c0.5-0.1,1,0.1,1.4-0.2c0.4-0.4,0.9,0,1.4,0.2c0-0.1,0-0.4,0-0.6c1.9-0.5,3.9-0.9,5.8-1.6
		c-0.2,0.5-0.4,0.9-0.5,1.4c1.6-0.5,3.3-1,4.9-1.5c0.1,0.5,0.3,0.9,0.5,1.4C184,89.5,179.7,90.1,175.5,91.1z M193.6,76
		c-0.2-0.6,0.5-0.6,0.9-0.8c3.9-1.2,7.4-3.3,11.1-4.8c-1.3,1.7-2.9,3.3-4.9,4.2c-1.2,0.6-2.4,1.2-3.7,1.7c-0.3,0.1-0.6,0.3-0.9,0.4
		c-0.5,0.3-1,0.5-1.6,0.7c0,0.1,0.1,0.4,0.2,0.5c-0.2,0-0.5,0.1-0.7,0.2c-0.1,0.1-0.2,0.4-0.3,0.6c0.2,0,0.6,0,0.8,0
		c-0.4,0.2-0.8,0.3-1.3,0.3c0.2-0.2,0.3-0.3,0.5-0.5C193.3,77.7,193.7,76.8,193.6,76z M191.8,76.1c-0.6,0.8-1.4,1.4-2,2
		c-0.3-0.4-0.7-0.8-1-1.2C189.8,76.8,190.8,76.4,191.8,76.1z M189.7,78.7c1.2-1,2.3-2,3.4-3c-0.1,1.5-0.5,3-0.2,4.5
		c1.5,0.2,2.9,0.4,4.4,0.7c-1.3,0.8-2.6,1.6-3.7,2.6c0.7,1.3,1.5,2.6,2.2,3.9c-1.4-0.4-2.8-1.1-4.4-1.2c-0.6,1.4-1.1,2.8-1.7,4.2
		c-0.5-1.4-0.9-2.9-1.7-4.2c-1.4,0.4-2.8,0.9-4.2,1.3c0.8-1.3,1.8-2.5,2.1-4c-1.2-0.9-2.5-1.6-3.7-2.6c1.4-0.3,3.1-0.1,4.4-0.8
		c0-1.5-0.2-2.9-0.3-4.4C187.4,76.8,188.5,77.8,189.7,78.7z M186.1,77.7c0,0.7,0.1,1.4,0.1,2.1c-1.8,0.2-3.5,0.5-5.2,0.9
		c0.3,0.3,0.6,0.5,0.9,0.8c-0.8,0.3-1.6,0.5-2.4,0.6c-1.9,0.4-3.7,0.9-5.6,1.3c-1.1,0.2-2.2,0.4-3.2,0.9c-0.2,0-0.5-0.1-0.7-0.1
		c0.2,0.2,0.5,0.3,0.7,0.5c-0.8-0.1-1.6-0.3-2.4-0.1c-0.4,0.1-0.8,0.2-1.2,0.2c-0.1,0-0.4,0.1-0.5,0.1c-1.1,0.1-2.1,0.5-3.2,0.8
		c-0.1,0-0.3,0.1-0.5,0.1c-0.4,0.1-0.8,0.2-1.1,0.3c-0.5,0.1-1,0.3-1.4,0.4c0.5,0,1.1,0,1.6,0.1c-2,0.7-3.8,1.7-5.5,2.8
		c-2.4,1.4-4.9,2.7-7.6,3.6c-1.6,0.6-3.3,0.9-4.7,2c-1.9,1.8-4,3.4-6.3,4.6c-1.7,1.2-3.6,2.1-5.4,3.2c1,0.9,2.4,0.8,3.6,0.5
		c0.9-0.2,1.8-0.7,2.8-0.8c0.2-0.2,0.5-0.3,0.7-0.5c0.2,0.1,0.5,0.3,0.7,0.4c0.1,0,0.2,0.1,0.2,0.1c0.3-0.9,1.3-0.9,2.2-1.1
		c1.5-0.3,3.2-0.4,4.5-1.3c3.3-1.8,4.6-6,8.3-7.2c-0.5,0.7-1.1,1.2-1.7,1.7c0,0.1,0,0.4,0,0.6c-1.1,0.7-1.9,1.7-2.5,2.8
		c1.6-0.3,3.2-0.6,4.7-1c0.2,1,0.9,0,1.2-0.3c0.5-0.3,1.1-0.5,1.7-0.2c-2.1,1.4-4.4,2.5-6.8,3.3c-2.4,0.9-4.8,1.7-7.3,2.3
		c-1.5,0.4-3.1,0.5-4.6,1c-1.4,0.5-2.6,1.4-3.6,2.6c-1.2,0.8-2.7,0.7-4,0.8c-1.2,0.3-2.4,1.3-2.4,2.7c-0.1,0.8-0.2,2.1,0.9,2.3
		c2.3,0.2,4.6,0.4,6.8-0.3c3.3-1,6.5-2,9.6-3.4c2.3-1,4.2-2.8,6.5-3.8c2.5-1.2,5.2-1.8,7.9-2.3c4.8-0.8,9.3-3,13.9-4.6
		c-0.2,0.6-0.9,0.8-1.4,1.1c-3.6,1.8-7.3,3.3-11.2,4.5c-2.6,0.8-5.3,1.1-7.8,2.1c-2,0.8-4,1.8-6,2.8c-2,1.1-4.1,2-6,3.3
		c-3,2-6.8,1.5-10.2,1.9c-1.6-0.7-3.3-0.3-5,0c1-1,1.1-2.5,1.5-3.8c0.5-1.6,0.5-3.2,0.1-4.8c-0.8-2.9-1.8-5.8-4-7.9
		c1.9,0.4,3.9,1.1,5.9,0.7c2.4-0.5,4.7-1.6,6.9-2.8c3.1-1.7,5.7-4.1,8.2-6.5c2.3-2.2,4.9-4.1,7.9-5.1c2.2-0.8,4.5-1.6,6.8-2.1
		c0.2-0.2,1.1,0.2,0.5,0.4c-1.6,0.5-3.3,0.7-4.9,1.5c-3.3,1.5-6.6,3-9.2,5.6c-2.1,2-4.5,3.9-6.5,6c3.9-0.3,7.6-1.4,11.1-3.1
		c-0.5,0.1-1,0.2-1.5,0.5c-2.7,1.1-5.6,1.8-8.6,2.1c1.6-2,3.6-3.7,5.5-5.4c2.5-2.5,5.7-3.9,8.8-5.3c1.5-0.7,3.2-1.2,4.9-1.4
		c-0.5,0.5-0.9,1-1.4,1.5c0.8,0,1.6,0.1,2.4,0c0,0.9,0.1,1.8,0.4,2.6c0.6-0.6,1.1-1.2,1.7-1.8c0.5,0.4,1.1,0.9,1.7,1.2
		c0.9-0.3,0.1-1.5,0.2-2.2c0.8-0.2,1.8-0.4,2.4-1c-0.7-0.3-1.4-0.7-2.1-1.1c0.9-0.2,1.8-0.6,2.8-0.7c3.3-0.4,6.5-1,9.8-1.3
		C181.8,78.4,183.9,78.1,186.1,77.7z M118.5,91.4c3.5-1.7,7.8-0.8,11.2-2.9c3.2-1.4,6.2-3.2,9.4-4.7c0.6-0.3,1.3-0.4,1.9-0.5
		c2.1-0.3,4.3-1,6.4-0.3c-2.8,0.9-5.8,1.7-8.1,3.7c-0.6,0.5-0.8,1.4-0.6,2.1c0.3,0.7,1.2,0.9,1.8,1.1c1.1,0.3,2.2-0.2,3.2-0.6
		c-2.8,2.7-6.1,4.7-9.7,6.1c-1,0.4-2.1,0.8-3.1,0.9c-1.4,0.1-2.8-0.1-4.2-0.4c1.1-0.7,2.3-1.2,3.4-1.8c2.5-1.4,5.4-1.9,8-3.3
		c-2.1,0-4.3-0.1-6.4,0.4c-2,0.1-3.3,2-5.2,2.5c-0.7,0.2-1.5,0.3-2.3,0.3c2.6-2.9,6.5-3.8,9.9-5.3c-2.2,0.3-4.4,0.6-6.6,1.2
		c-1.5,0.4-2.4,1.8-3.8,2.5c-1,0.5-2,0.9-3,1.3C121.2,92.3,119.5,91.9,118.5,91.4z M126.7,94.1c1.9-0.6,3.1-2.5,5.1-2.7
		c1.2,0,2.4-0.7,3.6,0c-1.9,0.5-3.7,1.1-5.4,2.1c-1.5,0.9-2.9,1.8-4.4,2.6c-0.5-0.6-1.5-0.7-1.9-1.3
		C124.6,94.5,125.7,94.5,126.7,94.1z M165.5,79c-0.3-0.6-0.6-1.2-0.9-1.7c2.8-0.2,5.6-0.7,8.4-1.4c4.3-0.2,8.6-0.1,12.8-1.2
		c0.1,0.6,0.1,1.1,0.1,1.7c-0.1,0.3-0.6,0.2-0.9,0.4c-3.6,0.7-7,1.8-10.6,2.4c-2.4,0.3-4.7,0.6-7.1,0.7c0.2-0.6,0.4-1.2,0.6-1.8
		C167.1,78.3,166.3,78.7,165.5,79z M165.2,79.6c0.6-0.2,1.2-0.5,1.8-0.7c-0.3,0.6-0.6,1.2-0.8,1.8c0.5,0.3,1,0.6,1.6,0.9
		c-0.6,0.1-1.3,0.2-1.8,0.7c0.1,0.5,0.2,1.1,0.3,1.6c-0.5-0.4-1-0.8-1.7-0.9c-0.3,0.4-0.7,0.8-1.1,1.2c0-0.6,0-1.2-0.3-1.7
		c-0.6-0.1-1.3-0.1-1.9-0.1c0.5-0.4,1-0.8,1.5-1.3c-0.3-0.6-0.7-1.1-1.1-1.5c0.6,0.1,1.2,0.2,1.9,0.3c0.2-0.6,0.4-1.2,0.6-1.9
		C164.5,78.6,164.8,79.1,165.2,79.6z M196.1,67.1c-0.1-0.2-0.3-0.5-0.4-0.6c0.6,0.3,0.9-0.1,1.1-0.7c0,0.7,0.7,0.7,1.1,0.3
		c-0.3,0.5-0.2,0.9,0.3,1.2c-0.7,0-0.6,0.6-0.5,1c-0.2-0.1-0.5-0.3-0.7-0.4c-0.1,0.1-0.3,0.4-0.4,0.6c0-0.6-0.3-0.9-0.9-0.8
		C195.7,67.5,196,67.2,196.1,67.1z M184.4,70.1c3.2-0.6,6.4-1.1,9.5-2c0.6-0.2,1.3-0.3,2-0.2c0.1,0.4,0.1,0.8,0.2,1.2
		c0.3-0.3,0.6-0.5,0.8-0.8c0.3,0.2,0.7,0.4,1,0.6c0-0.4-0.1-0.7-0.1-1.1c0.4-0.2,0.7-0.3,1.1-0.5c-0.1-0.1-0.3-0.4-0.4-0.5
		c5.3-1.2,10.5-3,15.7-4.4c4-1,7.9-2.4,11.9-3.5c-3,1.1-6.2,2.1-9.2,3.1c-5,1.6-9.6,4-14.5,5.9c-3,1.2-5.9,2.4-8.9,3.5
		c-3.7,1.4-7.6,2.3-11.5,3c-1.8,0.3-3.7,0.4-5.6,0.6c5.1-1.4,10.1-3.2,14.8-5.6l0.1-0.4c-2.4,0.5-4.7,1.3-7.1,1.8
		c-0.6,0.1-1.2,0.3-1.8,0.4c-0.1,0-0.4,0.1-0.5,0.1c0-0.1,0-0.4,0-0.6C182.8,70.6,183.6,70.3,184.4,70.1z M178.7,73.5
		c0.4-0.4,0.7-1.1,1.3-1.2c0.4-0.2,0.8,0.1,1.2,0.3C180.5,73,179.6,73.2,178.7,73.5z M182.1,72.3c0.1-0.6,0.6-0.5,1.1-0.6
		c0.5-0.1,1.1-0.2,1.6-0.4c0.6-0.2,1.2-0.3,1.9-0.4C185.1,71.4,183.6,72,182.1,72.3z M176.9,70.6c0.4-0.4,1.1-0.7,1.3-1.3
		c-0.1-0.6-0.7-1-1-1.5c0.6,0.1,1.2,0.2,1.8,0.3c0.2-0.6,0.4-1.2,0.7-1.8c0.2,0.6,0.5,1.1,0.9,1.6c0.6-0.1,1.2-0.8,1.8-0.6
		c-0.4,0.5-0.6,1.1-0.8,1.7c0.5,0.3,1.1,0.5,1.6,0.8c-0.6,0.2-1.3,0.2-1.8,0.7c0,0.6,0.1,1.2,0.2,1.8c-0.5-0.4-1-1-1.6-0.9
		c-0.5,0.3-0.8,0.8-1.2,1.2c0-0.6,0.2-1.3-0.2-1.8C178.1,70.5,177.5,70.6,176.9,70.6z M165.5,72.7c0.3-0.3,0.8-0.9,0.1-1.3
		c0.6,0.2,0.9,0,0.9-0.6c0.1,0.1,0.4,0.4,0.5,0.5c0.2-0.1,0.6-0.2,0.7-0.3c-0.2,0.4-0.4,1,0.3,1c-0.2,0.1-0.4,0.2-0.6,0.4
		c0,0.2,0,0.6,0,0.8c-0.1-0.1-0.4-0.3-0.5-0.4c-0.2,0.1-0.5,0.4-0.7,0.5c0-0.2,0-0.5,0-0.7C166.2,72.7,165.8,72.7,165.5,72.7z
		 M160.2,72.1c-0.6,0.1-1.4,0.2-1.8,0.7c0.1,0.6,0.2,1.1,0.3,1.7c-0.5-0.4-1-0.8-1.7-0.9c-0.3,0.4-0.7,0.8-1.1,1.2
		c0-0.6,0-1.2-0.4-1.7c-0.6-0.1-1.2-0.1-1.8-0.1c0.5-0.4,1-0.8,1.4-1.3c-0.3-0.5-0.7-1-1-1.5c0.6,0.1,1.2,0.2,1.7,0.3
		c0.2-0.6,0.4-1.2,0.6-1.8c0.3,0.5,0.6,1.1,1,1.5c0.6-0.2,1.2-0.5,1.8-0.7c-0.3,0.6-0.7,1.2-0.6,1.8
		C159.2,71.5,159.7,71.8,160.2,72.1z M159.5,70.8c0.3-0.7,0.6-1.5,0.8-2.3c-0.8,0.3-1.6,0.7-2.3,1c-0.4-0.8-0.8-1.5-1.4-2.2
		c-0.3,0.8-0.5,1.7-0.7,2.5c-0.9-0.2-1.7-0.4-2.6-0.3c0.4,0.7,0.9,1.3,1.4,2c-0.5,0.4-1,1-1.6,1.3c-2.7,0.9-5.5,1.4-8.4,1.6
		c2.6-1.8,5.1-3.8,7.7-5.6c3.1-2.2,6.2-4.5,9.4-6.5c2-0.9,4.1-1.6,6.2-2.4c-0.2,0.6-0.3,1.1-0.4,1.7c-0.9-0.3-1.8-0.4-2.7-0.4
		c0.4,0.7,0.9,1.3,1.4,1.9c-0.5,0.7-1.5,1.1-1.7,2c0.8,0,1.5,0,2.3,0.1c0,0.8,0.1,1.7,0.3,2.5C164.4,68.7,162,69.8,159.5,70.8z
		 M134.4,74c-0.6,0.4-1.4,0.5-2,1.1c0.3-0.1,0.9-0.3,1.3-0.4c-1,0.9-2,1.8-2.9,2.8c-1.1,1.2-2.5,2.2-3.6,3.4c-0.2,0-0.5,0.1-0.7,0.1
		c1.1-0.9,1.8-2.2,2.6-3.3l0-0.2l-0.1-0.1c0-0.1,0-0.2,0.1-0.3c0.9-1.2,1.9-2.4,3.3-3c2.5-1.2,5.2-2.1,7.8-3.2
		c0,0.1,0.1,0.2,0.1,0.2c-0.7,0.3-1.4,0.6-1.9,1.2c1.6-0.5,3.1-1.4,4.6-2.2c1.3-0.7,2.7-1.3,4.1-1.9c4-1.4,7.8-3.3,11.7-4.6
		c-0.4,0.4-0.9,0.8-1.4,1.1c-4.6,3.3-9.3,6.5-13.8,10c0.9,0.4,1.9,0.1,2.8,0.2c-1.3,0.3-2.6-0.2-3.9,0.2c-3.1,0.4-6.4,1.1-8.8,3.3
		c-1.3,1.3-2.8,2.8-4.8,2.6c2.1-1.4,2.8-3.9,4.7-5.5c0.8-0.7,1.6-1.3,2.5-1.9c0.7-0.5,1.6-0.7,2.2-1.3
		C136.9,72.8,135.5,73.2,134.4,74z M170.2,62.8c0.3,0.5,1,0.6,1.5,1c-0.6,0.1-1.3,0.2-1.8,0.7c0.1,0.6,0.2,1.1,0.3,1.7
		c-0.5-0.4-1-0.9-1.7-0.9c-0.4,0.4-0.7,0.8-1.1,1.2c-0.1-0.6,0.2-1.3-0.4-1.8c-0.6-0.1-1.2-0.1-1.7-0.1c0.5-0.4,1.2-0.8,1.4-1.4
		c-0.4-0.5-0.7-0.9-1-1.4c0.6,0,1.3,0.4,1.8,0.2c0.2-0.6,0.4-1.1,0.6-1.7c0.2,0.6,0.5,1.2,1,1.6c0.6-0.2,1.2-0.5,1.7-0.7
		C170.7,61.6,170.4,62.2,170.2,62.8z M164.6,59.4c7-2.3,14-4.6,21-6.9c2.3-1,4.9-1.3,7.4-1.3c0.1,0.1,0.3,0.2,0.4,0.3
		c-0.4,0.1-0.8,0.2-1.2,0.3c-1.6,0.4-3.3,0.8-4.9,1.3c-0.8,0.2-1.6,0.6-2.5,0.4c0.2,0.2,0.3,0.3,0.5,0.5c0.3,0,0.9-0.1,1.1-0.1
		c-1.4,0.5-2.8,1-4.2,1.6c-3.7,1.6-7.5,3-11,5c-0.6,0.3-1.2,0.5-1.7,0.8c-0.3-0.6-0.6-1.1-1-1.7c2.1-0.8,4.1-1.6,6.2-2.4
		c2.7-1,5.6-1.6,8.4-2.5c0.4-0.1,0.9-0.2,1.4-0.2c0-0.2,0-0.5,0.1-0.7c-0.4,0.2-0.8,0.4-1.3,0.6c-3.2,0.9-6.5,1.6-9.6,2.9
		c-2.7,1.1-5.3,2.1-8,3.2c-4.3,1.6-8.4,3.5-12.7,4.9c2.5-1.3,5.1-2.6,7.6-3.9C161.7,60.3,163.2,59.9,164.6,59.4z M121.5,75.4
		l0.1,0.1l-0.1,0.1L121.5,75.4L121.5,75.4z M118.1,78.3l0.3-0.3l0.2,0.3c0.1-0.7,0.9-1,1.4-1.3c-0.4,0.5-0.9,0.9-1.4,1.3
		c-0.9,0.8-1.8,1.7-2.8,2.4C116.3,79.7,117.3,79.1,118.1,78.3z M110,87c1.4-1.1,2.7-2.4,4.1-3.5c1.4-1.4,2.5-3,4.1-4.3
		c1.6-1.3,3.1-2.9,4.9-4c1.8-1.2,4-1.8,5.9-2.9c0.2,0.1,0.3,0.3,0.5,0.4c-0.5,0.1-0.9,0.2-1.3,0.5c0.7-0.1,1.4-0.4,2-0.8l-0.7,0.1
		c0-0.1,0.1-0.4,0.1-0.6c2.5-1,4.9-2.1,7.5-3c0,0.1,0.1,0.3,0.1,0.4l-0.5-0.1c0,0.1-0.1,0.4-0.1,0.6c0.9-0.4,1.7-0.7,2.6-1
		c0.1,0,0.2-0.1,0.3-0.1c2-0.8,3.9-1.6,5.9-2.3c3.8-1.1,7.4-2.5,11.1-3.8c0.3-0.1,0.6-0.2,0.9-0.2c-2,1.1-4.1,2.1-6.2,3.1
		c-2.3,0.9-4.6,1.9-7,2.8c-3.5,1.3-7.1,2.5-10.6,3.8c-1.1,0.5-2.3,0.9-3.3,1.6c-1.8,1.3-2.7,3.5-4.5,4.7c-1.1,0.6-2.2,1.2-3.4,1.4
		c0.9-0.6,1.9-1.1,2.8-1.7c0-0.1,0.1-0.3,0.2-0.4c-1.2,0.3-2.3,0.7-3.5,1c-0.8,0.2-1.4,0.9-2,1.4c-0.7,0.5-1.5,0.8-2.2,1.2
		c1.3-1.9,2.7-3.7,4.7-4.9c0.5-0.3,1.1-0.6,1.4-1.1c-1.7,0.9-3.4,2.1-4.7,3.6c-1,1.2-2.1,2.3-2.8,3.7c1.1-0.6,2.2-1.2,3.4-1.8
		c0.1,0.1,0.3,0.3,0.4,0.3c2.9-0.1,5.9-1.2,7.9-3.4c-0.6,1.5-1.7,2.7-3.2,3.3c-0.9,0.5-1.9,0.7-2.8,1.3c0.2,0,0.6,0.1,0.8,0.1
		c-3.5,0.7-6.9,1.7-9.9,3.7c-1.2,0.8-2.3,1.7-3.2,2.9c1.7-0.8,3.4-1.6,5.2-2.2c0.2,0,0.5,0.1,0.6,0.1c-0.2,0.2-0.7,0.5-0.9,0.7
		c0.4-0.1,0.7-0.2,1.1-0.4c1.2-0.5,2.4-0.8,3.6-1.2c-1.5-0.1-2.9,0.2-4.4,0.3c3.8-1.6,7.8-2.4,11.7-3.8c-1.1-0.1-2.2-0.2-3.3-0.3
		c0.8-0.5,1.7-0.8,2.5-1.3c1.8,0.3,3.7,0.6,5.4-0.4c-1.5,1.6-3,3.2-4.7,4.7c-1.7,1.5-3.9,2.3-6.1,2.8c-1.9,0.5-3.9,0.9-5.3,2.4
		c-0.3,0.3-0.6,0.9-1.1,0.8c0,0.2,0.1,0.5,0.2,0.6c0.9-0.3,1.5-1,2.3-1.4c1.4-0.7,3-0.9,4.5-1.2c2.1-0.5,4.1-1.3,5.8-2.6
		c3.1-2.4,5.4-5.7,8.3-8.3c1.9-1.8,4.7-1.7,7.2-1.9c-0.8,0.5-1.7,0.6-2.5,0.9c-1.8,0.6-3.7,1.2-5,2.5c-1,0.9-2,1.8-2.9,2.8
		c1-0.8,1.8-1.8,2.8-2.6c1.4-1.4,3.3-1.9,5.1-2.5c2.1-0.6,4.2-1.1,6.4-1.4c0.3,0,0.7-0.2,1-0.3c-1.9-0.4-3.8,0.1-5.7-0.4
		c1.9-0.3,3.8-0.3,5.7-0.4c2.6-0.1,5.1-0.2,7.7-0.2l0-0.5c-2.4,0.1-4.8,0.2-7.3,0.3c-0.4,0-0.8,0-1.2-0.2c1.7-0.2,3.4-0.6,5-1.1
		c1.1-0.4,2.3-0.1,3.4-0.1c0,0.9,0.1,1.8,0.4,2.6c0.4-0.4,0.7-0.8,1.1-1.2c1-0.2,1.9,0.2,2.7,0.7c0-0.2,0-0.6,0-0.8
		c6.4-0.2,12.7-0.8,19-2c0,0.2,0.1,0.7,0.2,0.9c-2.3,0.5-4.7,0.9-7,1.4c-5.7,1.3-11.6,1.2-17.4,1.6c-2.6,0-5.3,0.1-7.8,0.8
		c-2.7,0.7-5.3,1.9-7.5,3.7c-0.8,0.6-1.4,1.3-2.3,1.7c0.7-0.3,1.7-0.4,2.1-1.1l0.5,0.2c4.2-1.9,9-1.9,13.5-1.5
		c0.4,0,0.8,0.1,1.1-0.2c-2.5-0.3-5.1-0.2-7.6-0.1c-1.9,0.1-3.7,0.5-5.4,1.1c-0.5,0.2-1.1,0.3-1.7,0.3c2.3-1.7,5.1-2.6,7.9-3.2
		c3.3-0.7,6.7-0.3,10.1-0.6c2.4-0.1,4.8-0.2,7.2-0.4c-0.2,0.6-0.3,1.2-0.5,1.8c-0.9-0.2-1.8-0.3-2.6-0.3c0.2,0.4,0.4,0.8,0.6,1.1
		c-2.7,0.5-5.2,1.4-7.8,2.3c-2.9,1.1-5.4,3-7.6,5.1c-0.9,1-2.2,1.5-3.4,2c-1,0.4-2.3,0.4-3.2-0.3c-0.6-0.6-0.3-1.6,0.4-2
		c2.8-2.3,6.4-3.2,9.9-4c0.5-0.1,1-0.3,1.5-0.4c-1.7-0.1-3.5,0-5.3-0.1c-1.3-0.1-2.6,0.5-3.9,0.1c3.7-0.9,7.5-1.3,11.3-1.6
		c1-0.1,2.1,0,3.1-0.3c-0.8-0.2-1.5-0.5-2.3-0.5c-0.3,0.2-0.6,0.3-1,0.3c-3.8,0.2-7.6,0.4-11.2,1.4c-4.1,1.4-7.8,3.8-11.7,5.6
		c-1,0.4-1.9,1.1-2.9,1.3c-1.7,0.4-3.4,0.4-5,1.1c-1.6,0.6-3.3,1.2-5.1,1.4c1,0.6,2.3,0.7,3.2,1.5c0.3,0.5-0.1,1.1-0.2,1.7
		c1.4-0.5,2.7-1,4.1-1.7c1.3-0.6,2.1-1.8,3.4-2.3c1-0.4,2.2-0.6,3.3-0.7c-2.6,1.4-5.5,2.5-7.5,4.8c-0.4,0.2-0.9-0.1-1.3-0.1
		c-1.6,0-3.1,0.5-4.6,0.5c-0.7,0.1-0.9-0.6-1.2-1c-0.9-1.1-1.9-2.3-3.3-2.5c0.3,0,0.7,0.1,1,0.1c0.2-0.2,0.3-0.3,0.5-0.5
		c-1.3,0.1-2.5-0.2-3.7-0.3c0.6-1.1,1.7-1.8,2.8-2.4c-1.3,0.4-2.3,1.2-3.2,2.3c-0.3,0.5-0.9,0.3-1.4,0.4c-1.6-0.1-3.2,0.3-4.6,0.8
		C106.2,90.5,108,88.6,110,87z M120.6,80.7c0.6-1,1.7-1.5,2.8-1.7C122.5,79.6,121.6,80.2,120.6,80.7z M87.6,107.8
		c0.2-1.4,0.6-2.7,1-4c0.4-1.2,1-2.4,1.7-3.4c0.6-0.8,1.5-1.4,2.1-2.2c0.8-1,1.4-2.2,2-3.3c1.3,0,2.5,0,3.8-0.1
		c-2.4,1.6-4.6,3.4-6.6,5.5c-0.6,0.6-1.1,1.3-1.5,2c0.8-1,1.6-2,2.6-2.9c3-2.6,6.2-4.9,9.9-6.3c2.5-1.1,5.4-1.7,8.1-1.2
		c1.2,0.3,2.7,0.3,3.6,1.3c0.7,0.7,1.2,1.5,1.8,2.3c0.5,0.7,1.5,0.5,2.2,0.5c1.9-0.1,4.1-0.9,5.8,0.4c2.7,1.9,3.7,5.2,4.5,8.2
		c0.4,1.4,0.4,2.9,0,4.3c-0.3,1.2-0.3,2.5-1.3,3.4c-2.6,2.5-4.7,5.5-6.5,8.7c-0.9,1.6-1.2,3.4-1.8,5.1c0.6-0.8,0.8-1.8,1.2-2.8
		c0.6-1.9,1.9-3.4,3-5c1.1,0.2,2.1-0.2,3.2-0.6c1.7-0.6,2.9-1.9,4.5-2.6c1.1-0.5,2.3-0.6,3.5-0.7c1.5-0.1,3-0.5,4.5-0.6l0.1,0.1
		c-1.4,0.7-2.9,1.3-4.5,1.4c-1.1,0.1-2.1,0.2-3.1,0.8c1.5-0.5,3.1-0.7,4.6-0.8c-0.9,0.7-1.9,1.1-2.8,1.7c-2.1,1.5-4.4,2.8-6.7,3.8
		c1.5-1.6,2.9-3.1,4.6-4.4c-2.2,1.3-3.7,3.4-5.6,4.9c-1.2,1.2-2.6,2-4.3,2.3c-1.1,1.4-1.8,3.3-3.5,4c0.2-0.4,0.4-0.8,0.6-1.2
		c-1.1,0.8-2.1,1.7-3.4,2.2c-1.2,0.5-2.5,0.6-3.7,1.1c1.5,0.1,2.9-0.7,4.4-0.8c-0.8,0.5-1.5,1.3-2.5,1.5c-0.7-0.1-1.3-0.3-1.9-0.5
		c-1.6-0.2-3.2,0-4.8-0.2c0,0.1,0,0.3,0,0.4c0.9,0,1.7,0.2,2.5,0.4c-0.5,0.2-0.9,0.3-1.4,0.4c-0.3,0.1-0.7,0.1-1.1,0.2
		c-1.6,0.2-3.2,0.2-4.7-0.4c-1.3-0.9-2.6-1.8-3.8-2.9c-0.6-0.5-1.3-1-2-1.4c1.4,1.2,2.6,2.4,3.9,3.6c-1.2-0.1-2.3-0.5-3.3-1.3
		c-0.8-0.9-1.5-2-2.6-2.8c0.7,0.2,1.3,0.4,2,0.6c-0.9-1-2.4-1.1-3.2-2.1c2.7,0.7,5.5,0.9,8.1,1.7c1.4,0.4,1.8,2,2.9,2.8
		c0.7,0.3,1.6,0.9,2.4,0.6c-0.8-0.3-1.8-0.4-2.5-1c-0.8-1-1.4-2.3-2.7-2.7c-1.7-0.5-3.5-0.8-5.3-1.1c-1.5-0.3-3.1-0.6-4.3-1.5
		c-1-0.8-1.9-1.9-1.9-3.3c-0.1-2.3,0.1-4.5,0.2-6.8c0.1-2.1-1.3-4.1-1.1-6.2c0.1-1.6,0.9-2.9,1.4-4.4c-0.8,1.6-1.6,3.3-1.6,5.2
		c0,1.5,0.6,2.9,0.8,4.4c0.1,3-0.5,5.9-0.1,8.9c-0.2,0-0.6,0.1-0.8,0.2c0.2,0,0.6,0,0.8,0c0.3,0.6,0.7,1.1,1,1.7
		c-1-0.8-2.3-1.6-2-3.1c0.1,0.3,0.2,0.9,0.2,1.1c0.1-0.2,0.2-0.4,0.4-0.5c-0.1-0.6-0.2-1.1-0.3-1.7c-0.7-0.7-1.4-1.4-1.9-2.3
		c0.4-0.4,0.8-0.8,1.1-1.2c-0.2,0-0.5,0.1-0.6,0.1c-0.2,0.4-0.5,0.7-0.7,1.1c-0.7-2.5,0.1-5,0.8-7.4c-0.1-0.1-0.3-0.2-0.4-0.2
		c-0.2,1.9-1.1,3.7-1,5.7c0.2,2.1,0.3,4.3,0.4,6.4l-0.2,0.3c-0.5-2.1-1-4.3-0.9-6.5c0.1-2.1,0.2-4.2,0.5-6.2
		c0.3-1.9,0.9-3.7,1.4-5.6c0.1,0.1,0.2,0.3,0.2,0.5c0,1.6,0.1,3.2-0.2,4.8c0.2,0.1,0.3,0.3,0.5,0.4c-0.2,1.2,0.9,2.2,0.6,3.4
		c-0.2,0.9,0.1,2-0.7,2.7c0.1,0.1,0.2,0.2,0.3,0.4c0.3-0.6,0.5-1.1,0.8-1.7c-0.2-0.5-0.3-1-0.1-1.5c0.1,0.3,0.2,0.9,0.3,1.3
		c0.4-1.2-0.5-2.2-0.8-3.3C87.5,109.5,87.6,108.6,87.6,107.8z M188.1,34.1c-0.4-0.3-0.8-0.4-1.1,0.1c-0.1-0.5-0.4-0.8-1-0.6
		c0.1-0.2,0.4-0.5,0.6-0.7c-0.1-0.1-0.3-0.4-0.4-0.6c0.6,0.2,0.9,0,1-0.5c0.3,0.5,0.7,0.6,1.2,0.2c-0.2,0.4-0.3,0.9,0.3,1.1
		C188.1,33.3,187.9,33.6,188.1,34.1z M150.6,59.8c0.1,0.6,0.2,1.1,0.3,1.7c-0.5-0.4-1-0.7-1.6-0.9c-0.4,0.4-0.8,0.8-1.2,1.3
		c0-0.6,0-1.3-0.3-1.8c-0.6,0-1.2,0-1.8,0c0.5-0.4,1.1-0.8,1.4-1.4c-0.4-0.5-0.7-0.9-1-1.5c0.6,0.1,1.1,0.2,1.7,0.3
		c0.2-0.6,0.4-1.2,0.6-1.9c0.3,0.5,0.5,1.1,1,1.5c0.6-0.1,1.2-0.5,1.8-0.7c-0.3,0.6-0.6,1.2-0.7,1.8c0.5,0.3,1,0.6,1.5,0.8
		C151.7,59.2,151.1,59.3,150.6,59.8z M181.6,39.8c-5,3.2-10.3,5.9-15.2,9.1c-4,2.7-7.9,5.5-11.7,8.3c-0.6,0.5-1.3,0.9-2,1.3
		c-0.4,0-0.8-0.3-1.2-0.5c0.4-0.8,0.7-1.7,1-2.5c-0.8,0.3-1.7,0.7-2.5,1c0-0.2-0.1-0.5-0.1-0.7c6.9-3.9,13.9-7.5,20.9-11.3
		c6.5-3.8,13.5-6.8,20-10.6c2.8-1.6,5.6-3.4,8.3-5.1c0.1,0.1,0.2,0.4,0.3,0.5C193.4,32.9,187.4,36.2,181.6,39.8z M212.1,27
		c-1.3,0.8-2.6,1.6-3.8,2.6c0.7,1.3,1.5,2.6,2.2,3.9c-1.4-0.5-2.8-1.2-4.3-1.2c-0.6,1.4-1,2.8-1.7,4.1c-0.4-1.4-0.9-2.8-1.7-4.1
		c-1.5,0.3-2.9,0.8-4.3,1.3c0.7-1.3,1.8-2.5,2.1-4c-1.2-0.8-2.5-1.6-3.7-2.5c1.5-0.2,3-0.3,4.4-0.7c-0.1-1.5-0.2-3-0.3-4.6
		c1.1,1,2.1,2.2,3.4,3c1.1-1,2.2-2,3.3-3c-0.1,1.5-0.4,3-0.2,4.5C209,26.6,210.5,26.8,212.1,27z"/>
	<path d="M215.9,21c3.3-2,6.3-4.2,9.7-6.1c4.5-2.7,9.2-4.8,13.9-6.9V7c-4,1.8-7.9,3.6-11.6,5.9C223.8,15.4,219.9,18.2,215.9,21z"/>
	<path d="M191.7,42.7c0-0.1,0.1-0.3,0.2-0.4c0.9-0.2,1.6-0.6,2.5-0.9c2.9-1.2,5.7-2.4,8.6-3.6c0.3-0.1,0.6-0.3,0.9-0.5
		c-4,1.6-7.9,3.3-11.8,4.9c0-0.2-0.1-0.8-0.2-1c0.4-0.2,0.8-0.3,1.2-0.6c-0.3-0.2-0.6-0.3-1-0.4c0.1-0.4,0.3-0.8,0.4-1.3
		c-0.3,0.1-0.7,0.3-1,0.5c-0.3-0.3-0.5-0.7-0.8-1c-0.1,0.4-0.2,0.7-0.3,1.1c-0.4-0.1-0.8-0.1-1.2-0.2c0.1,0.3,0.3,0.7,0.5,1
		c-0.3,0.3-0.6,0.6-0.9,1c0.4,0,0.8,0,1.2,0c0,0.4,0.1,0.8,0.1,1.2c0.3-0.2,0.6-0.4,0.8-0.7c0.2,0.1,0.7,0.2,0.9,0.3
		c-0.9,0.8-2.1,1.1-3.1,1.6c-1.5,0.7-3.1,1.3-4.7,2c2.5-0.8,5-2,7.4-3L191.7,42.7z M191.4,41.5c-0.1-0.1-0.4-0.2-0.5-0.3
		c-0.1,0.1-0.4,0.3-0.5,0.5c0-0.5-0.4-0.9-0.9-0.7c0.1-0.1,0.4-0.4,0.5-0.6c-0.1-0.2-0.3-0.4-0.4-0.6c0.6,0.3,1-0.4,1.5-0.5
		c0,0.1,0,0.3,0,0.4l0.7-0.1c-0.1,0.2-0.2,0.5-0.2,0.6c0.1,0.1,0.4,0.3,0.5,0.4C191.5,40.6,191.5,41.1,191.4,41.5z"/>
	<path d="M218.6,40.1c0.2-0.4,0.3-0.8,0.5-1.2c-0.4,0.1-0.8,0.3-1.2,0.4c-0.2-0.3-0.4-0.7-0.7-0.9c0,0.3-0.1,0.8-0.2,1
		c-0.5,0-0.9-0.1-1.3-0.1c0.2,0.3,0.4,0.7,0.6,1c-0.3,0.3-0.6,0.6-0.9,1c0.4,0,0.8,0,1.1,0c0,0.4,0.1,0.8,0.1,1.2
		c0.3-0.2,0.6-0.5,0.9-0.7c0.4,0.2,0.7,0.4,1.1,0.5c0-0.4-0.1-0.7-0.1-1.1c0.4-0.1,0.8-0.3,1.2-0.5
		C219.3,40.4,218.9,40.2,218.6,40.1z M218.2,41.5c-0.4-0.4-0.9-0.3-1.2,0.1c0.1-0.6-0.3-0.7-0.8-0.8c0.6-0.3,0.4-0.7,0.1-1.2
		c0.6,0.2,0.9-0.1,1-0.6c0.2,0.5,0.7,0.5,1.2,0.3c-0.4,0.5-0.3,0.8,0.3,1C218.2,40.6,218,40.9,218.2,41.5z"/>
	<path d="M199.2,64.1c1.5-0.2,3-0.7,4.5-1.1c4.4-1.2,8.8-2.1,13-3.8c-1.8,0.5-3.4,1.2-5.2,1.7c-3.2,0.8-6.4,1.6-9.7,2.2
		c3.8-2.5,7.9-4.4,12-6.5c4.7-2.2,9.3-4.5,14-6.6c3.8-1.7,7.7-3,11.6-4.4v-0.4c-5.2,1.8-10.3,3.7-15.3,6
		C215.8,55.3,207.2,59.1,199.2,64.1z"/>
	<path d="M181.3,46.9c0-0.4-0.2-0.4-0.5-0.2C180.8,47.1,181,47.2,181.3,46.9z"/>
	<path d="M136.1,69.7c-1.7,1.1-3.7,1.5-5.5,2.5c2-0.5,3.9-1.7,5.9-2.2C136.4,69.9,136.3,69.8,136.1,69.7z"/>
	<path d="M216.8,79.2l0,0.4c4.3,0,8.7,0.4,13-0.3c3.4-0.5,6.6-1.7,9.8-3v-0.5c-2.1,0.8-4.2,1.6-6.3,2.3c-4.4,1.2-9,1.3-13.6,1
		c2.7-0.6,5.5-0.9,8.1-1.9c4.1-1.6,8.1-3.7,11.7-6.3v-0.3c-3.3,2.5-7,4.5-10.8,6.1C224.9,78.2,220.8,78.9,216.8,79.2z"/>
	<path d="M126.9,74.2c0.4,0.1,1.3-0.7,0.5-0.6C127.1,73.6,126.4,74,126.9,74.2z"/>
	<path d="M126.4,74.2c-0.9,0.4-1.9,0.7-2.5,1.5C124.7,75.3,125.7,74.9,126.4,74.2z"/>
	<path d="M129,77.4c1.1-0.8,2.2-1.5,3.3-2.4C131.1,75.6,129.8,76.3,129,77.4z"/>
	<path d="M112.2,80.7c1.3-0.4,2.4-1.5,3.6-2.1C114.5,78.9,113.4,79.9,112.2,80.7z"/>
	<path d="M129.9,85.3c0.4-0.5,0.8-1,1.1-1.5c-0.8,0.6-1.5,1.3-2.2,2c0,0.1,0,0.3,0,0.4c2.3-1.4,4.8-2.4,7.3-3.5
		C134,83.5,132,84.6,129.9,85.3z"/>
	<path d="M216.5,83c0,0.3-0.1,0.5-0.1,0.8c0.4-0.4,1.3-0.1,1.6-0.7C217.5,82.8,216.9,83.2,216.5,83z"/>
	<path d="M131.7,83.1c-0.4-0.1-0.5,0.1-0.5,0.4C131.6,83.6,131.8,83.5,131.7,83.1z"/>
	<path d="M114.6,88.2c0-0.4-0.2-0.4-0.5-0.2C114.1,88.4,114.3,88.4,114.6,88.2z"/>
	<path d="M104.6,88.3c-0.3-0.2-1.2,0.2-0.8,0.5C104.1,88.8,104.7,88.6,104.6,88.3z"/>
	<path d="M152.9,90.7c1.2-0.3,2.2-1,3.3-1.5l-0.1-0.1C155.1,89.7,153.9,90.1,152.9,90.7z"/>
	<path d="M151.7,93.5c0.7-0.2,1.4-0.5,2.1-0.9C153,92.6,152.3,93,151.7,93.5z"/>
	<path d="M93,115.2c-0.4,2.7,0,5.7,1.8,7.9c1.8,1.6,4.4,1.4,6.6,2.1c1.5,0.5,1.9,2.2,3.3,2.9c1.7,0.9,3.9,1.4,5.7,0.5
		c1.7-0.8,3.4-1.7,4.8-3c1.2-1,1.5-2.6,2.3-3.9c1.3-2.2,3.2-4,5-5.8c1.1-1.1,1.2-2.7,1.5-4.1c0.6-3,0.7-6,0.4-9
		c-0.2-1.5-0.3-3.1-1.2-4.5c-0.6-0.9-1.6-1.5-2.7-1.3c-1.9,0.2-3.7,0.9-5.7,1c-0.6,0.1-1.2-0.2-1.5-0.6c-0.8-0.9-1.5-1.9-2.5-2.7
		c-1.6-1.5-3.9-1.7-6-1.2c-3.3,1.2-6.1,3.5-8.6,6c-2.6,2.6-3.9,6.2-4,9.9c0,1.1,0.4,2.1,0.7,3C93.3,113.3,93,114.3,93,115.2z
		 M93.5,105.8c0.6-2.1,1.7-4.2,3.3-5.7c2.1-2.2,4.5-4.2,7.3-5.5c1.6-0.8,3.6-0.9,5.3-0.2c1.3,0.6,2.2,1.8,3.1,2.9
		c0.5,0.7,1.2,1.3,2,1.4c2.3,0.2,4.5-0.8,6.8-0.9c1.3,0.2,1.9,1.7,2.1,2.9c0.7,4.3,0.5,8.8-0.7,13.1c-0.4,1.2-1.4,2-2.3,2.9
		c-1.6,1.6-3.1,3.3-4.1,5.4c-0.5,1-0.8,2.2-1.7,3c-1.4,1.3-3.1,2.3-4.9,3c-1.4,0.6-2.9,0.2-4.3-0.3c-1.6-0.6-2.1-2.5-3.7-3
		c-2-0.7-4.2-0.5-6.1-1.6c-1.1-0.8-1.6-2.1-2-3.4c-0.7-2.4-0.1-4.8,0.1-7.2C92.6,110.4,92.9,108,93.5,105.8z"/>
	<path d="M92.4,96c-0.4,0.1-0.9,0.4-0.9,0.8c0.3,0.1,0.7-0.2,0.9-0.4C92.4,96.3,92.4,96.1,92.4,96z"/>
	<path d="M90.9,97.5c-0.4-0.1-1,0.5-0.8,0.9C90.5,98.5,90.8,97.9,90.9,97.5z"/>
	<path d="M96.3,120.5c0,0.9,0.6,1.9,1.6,1.9c1.7,0.1,3.2-1,4.9-0.8c1,0.1,1.5,0.9,2.2,1.5c1.6,1.6,4.2,1.8,6.3,1
		c1.6-0.9,3-2.4,3.7-4.2c0.2-0.5,0.3-1.1,0.8-1.3c2.2-1.3,4.3-2.8,5.6-5c0.8-1.5,0.6-3.2,0.7-4.8c0.2-1.9-0.3-3.8-1.1-5.5
		c-0.6-1.2-1.6-2.4-3-2.6c-1.7-0.3-3.1,1.1-4.7,1.4c-0.6,0.1-1.3,0.2-1.7-0.3c-1.1-1.2-1.9-2.6-3.3-3.5c-1.1-0.7-2.4-0.8-3.6-0.6
		c-2.9,0.3-5.3,2.2-6.9,4.5c-1.6,2.5-2.1,5.6-2.1,8.5c0,1.2,0.6,2.2,1,3.2C96.7,116.2,96.3,118.3,96.3,120.5z M99.2,102.2
		c1.3-1.5,2.9-2.8,4.9-3.2c1.3-0.3,2.8-0.4,4,0.5c1.5,1,2.1,2.8,3.6,3.7c1.9,0.6,3.6-0.6,5.3-1.2c1.1-0.5,2.2,0.5,2.8,1.3
		c1,1.6,1.6,3.6,1.4,5.5c-0.2,1.4,0.1,2.8-0.4,4.1c-1,2.1-2.8,3.6-4.6,4.9c-0.5,0.4-1.1,0.7-1.2,1.3c-0.6,1.9-2,3.5-3.7,4.4
		c-1.3,0.6-2.9,0.5-4.3-0.1c-1.4-0.5-2-2.1-3.4-2.5c-1.7-0.4-3.3,0.3-5,0.6c-0.7,0.2-1.3-0.4-1.2-1.1c0-2.2,0.3-4.3,0.5-6.5
		c-0.2-1.1-1-2.1-1-3.3C96.7,107.8,97.3,104.6,99.2,102.2z"/>
	<path d="M211.6,34c3.1-1.1,6.1-2.6,9.1-3.8c6.2-2.7,12.5-5.3,18.7-8v-0.4c-8.2,3.6-16.4,7.1-24.6,10.7
		C213.8,33,212.6,33.3,211.6,34z"/>
	<path d="M233.6,40c1.4-1.3,2.8-2.7,4.3-3.8c0.5-0.4,1-0.8,1.4-1.2c-2.1,1.3-3.9,3.1-5.7,4.8c-1.3,1.4-2.9,2.6-3.8,4.4
		c-0.4,0.5-0.5,1.3-1.2,1.5c-7.8,3.2-15.8,5.6-23.8,8.3c2.8-0.7,5.6-1.7,8.4-2.6c5.3-1.7,10.7-3.5,15.9-5.6c1.1-0.4,2.2-0.9,3.3-1.3
		c0.5-0.2,0.9-0.4,1.4-0.6c0.1,0,0.3-0.1,0.4-0.2l0.1,0c0.3-0.1,0.6-0.2,0.9-0.3c0.1,0,0.3-0.1,0.3-0.2l0.1-0.1c0,0,0.1-0.1,0.2-0.1
		c1.2-0.4,2.4-0.9,3.5-1.5l0.1-0.1v-0.7v-0.5c-3.1,1.4-6.1,2.8-9.3,4.1C230.9,42.7,232.3,41.3,233.6,40z"/>
	<path d="M183.1,46.2c0.4-0.3-0.3-0.4-0.5-0.2c-0.2,0-0.8,0.3-0.5,0.6C182.6,46.5,182.9,46.4,183.1,46.2z"/>
	<path d="M216.9,59.2c1.3-0.2,2.5-0.8,3.7-1.2c6.5-2.2,12.6-5.4,18.9-8.3v-0.3c-4.3,2.1-8.6,4.2-13,6.1
		C223.4,56.9,220.1,57.9,216.9,59.2z"/>
	<path d="M176.6,54.4c2.1-0.8,4.1-2,6.1-3c1-0.6,2.1-0.9,2.9-1.6c-2.7,1.2-5.2,2.6-7.8,3.8C177.4,53.9,177,54.1,176.6,54.4z"/>
	<path d="M220,63.2c0.5-0.1,1-0.2,1.4-0.4c2.2-0.9,4.5-1.6,6.7-2.5c-0.4,0.1-0.8,0.1-1.1,0.3C224.7,61.5,222.3,62.4,220,63.2z"/>
	<path d="M105.9,87.4c-0.2,0-0.8,0.5-0.4,0.6C105.9,88.1,106.7,87.3,105.9,87.4z"/>
	<path d="M123.4,73.9c0.3,0,0.6-0.1,0.9-0.3C124.1,73.1,123.4,73.5,123.4,73.9z"/>
	<path d="M122.6,74.4c-0.1,0-0.5,0.1-0.6,0.2l0.2,0.1C122.3,74.6,122.5,74.4,122.6,74.4z"/>
	<path d="M158.5,87.8C158.5,87.8,158.5,87.7,158.5,87.8L158.5,87.8L158.5,87.8z"/>
	<path d="M156.8,88.8c0.4,0.1,1.3-0.1,0.8-0.7C157.2,88.2,157,88.5,156.8,88.8z"/>
	<path d="M118.3,126.7c0.4,0.1,0.5-0.1,0.5-0.5C118.4,126.2,118.3,126.3,118.3,126.7z"/>
</g>
</svg>
