<?xml version="1.0" encoding="utf-8"?>
<!-- Generator: Adobe Illustrator 26.0.3, SVG Export Plug-In . SVG Version: 6.00 Build 0)  -->
<svg version="1.1" id="Слой_31" xmlns="http://www.w3.org/2000/svg" xmlns:xlink="http://www.w3.org/1999/xlink" x="0px"
	 y="0px" viewBox="0 0 239.5 150.2" style="enable-background:new 0 0 239.5 150.2;" xml:space="preserve">
<style type="text/css">
	.st0{fill:#070707;}
</style>
<g>
	<path class="st0" d="M232,75.2c-25.8-10.9-51.6-21.9-77.4-32.6c0.1-1.5,0.7-3,1-4.5c0.2-1.1-0.5-2.1-1.2-2.9
		c-1.6-1.5-3.8-2.6-6.1-2.3c-0.3-0.6-0.6-1.3-1.1-1.7c-2-1.5-4.6-2.2-7.1-2.1c-0.6-1.1-1.5-2.1-2.8-2.3c-1.9-0.2-3.8-0.1-5.6,0.1
		c-1.2-0.5-2.3-1.6-3.7-1.4c-0.7,0.1-1.7,0.3-1.8,1.1c-0.3,1.1-0.1,2.3,0.1,3.4c-1-0.5-2-0.9-3-1.2c-1.1-0.4-2.3-0.4-3.3-1
		c-3.9,1.8-7.9,3.3-11.8,5c-1.5,0.7-3.1,1.2-4.6,2.1c0.4,0.2,0.8,0.3,1.3,0.5c1.1-0.7,2.4-1.1,3.7-1.7c3.6-1.5,7.1-3,10.7-4.5
		c-0.2,1.3-0.4,2.5-0.5,3.8c-0.9-0.4-1.9-0.8-2.9-0.4c-1.5,0.6-3.1,0.7-4.7,1.3c-1.1,0.4-1.1,1.6-0.9,2.6c-0.7-0.1-1.4-0.3-2.1-0.2
		c-0.6,0.1-1.2,0.4-1.8,0.5c-0.7-0.2-1.3-0.6-1.9-1.1c-0.7-0.5-1.2-1.1-2-1.6c-1.4,0.1-2.6,0.6-4,0.9c-3.1-1.2-6.5-0.2-9.4,1
		c-1,1.8-1.9,3.8-2.7,5.7c-1.5,0.4-2.9,1.2-4.2,1.9C57.4,54.1,32.9,64.5,8.4,74.9c-1,0.4-2.1,0.7-2.9,1.4
		c28.6,12.2,57.3,24.3,86,36.3c0-0.3-0.1-0.8-0.2-1.1c-5.7-2.4-11.4-4.8-17.2-7.2c5-5,8-12.1,7.8-19.2c0.7,0.4,1.3,0.9,2,1.3
		c1.2,0.5,2.6,0.6,3.9,1.1c0.5,0.7,1,1.3,1.6,1.9c-0.4,1.5-0.3,3.1-0.2,4.7c0.1,1.4,1.1,2.5,2,3.4c-0.5,2.4-0.6,4.9-0.6,7.4
		c0,0.8,0.8,1.5,0.7,2.3c-0.1,2-0.2,4.1,0.5,6.1c0.1,2,1.1,3.8,2.2,5.5c0.4,0.8,0.6,1.8,1.2,2.5c0.8,1.2,1.7,2.6,3.3,2.6
		c0.1-1.1-0.2-2.2-0.6-3.2c0.7,0.7,1.4,1.4,2.5,1.1c0-1-0.4-2-0.8-3c0.5,0.1,0.9,0.1,1.4,0.2c0.2-0.9-0.1-1.7-0.3-2.6
		c6.3,2.8,12.7,5.3,19,8.1c3.2-1.5,6.6-2.8,9.9-4.2c34.8-14.6,69.6-29.2,104.4-44C233.5,75.7,232.7,75.6,232,75.2z M216.3,69.5
		c-2.3,5.6-8,9.5-14.1,9.7c3-3.9,5.7-7.9,8-12.3C212.2,67.8,214.2,68.7,216.3,69.5z M209.8,66.8c-2.9,5.4-6.4,10.6-10.6,15.1
		c-2.5,2.6-5.2,5.2-8.5,6.8c-1.3,0.5-2.8,1-4.1,0.3c-1.4-0.9-1.7-2.7-1.7-4.3c0.1-4.1,1.6-8,3.2-11.8c0.4,0.4,0.8,0.9,1.1,1.4
		c-0.5,2.5-1.4,5.1-0.8,7.6c0.2,1.1,1,2.3,2.2,2.4c2.1,0.2,3.8-1.3,5.4-2.6c4.8-4.4,8.3-10.2,10.9-16.2
		C207.9,66,208.8,66.4,209.8,66.8z M189.6,74.7c2.3,2.2,5.1,3.8,8.2,4.6c-1.7,1.8-3.5,3.6-5.8,4.4c-1.1,0.5-2.6,0-3-1.2
		C188.2,80,188.9,77.2,189.6,74.7z M206.4,65.4c-2,4.9-4.8,9.5-8.2,13.5c-5-1-9.5-4.5-11.5-9.3c-1.8-3.9-1.8-8.5-0.2-12.5
		C193.2,59.8,199.8,62.6,206.4,65.4z M148.2,33.6c2.2-0.2,4.5,1,5.6,3c0.6,1.6,0.1,3.4,0,5c-1.5-1.6-3.5-3.3-5.9-3.1
		C148.2,36.9,148.3,35.3,148.2,33.6z M148,38.9c2.3-0.1,4.4,1.5,5.7,3.3c0,2-1.3,3.6-2.2,5.3c-0.6,0.8-1,2-2.2,2.2
		c-2.5,0.5-5.4,1.2-7.8-0.1c0.2-0.5,0.4-1,0.5-1.5c-1.2,0.4-1.6,2.3-3,2c-0.7,0-1.3-0.4-1.8-0.6c0.8-1.3,1.8-2.5,2.2-4
		c-1.2,0.4-1.4,1.9-2.1,2.7c-0.7,1.4-2.6,1.4-4,1c-0.8-0.3-0.8-1.2-0.9-1.9c1.5-0.8,3-1.6,4.3-2.7c0.5-0.4,1-0.9,1.2-1.6
		c0.8-2.7,0.8-5.6-0.3-8.3c0.9-0.8,2.4-0.7,3,0.4c0.2,1.7-0.3,3.4-0.8,5c0.4-0.1,0.8-0.4,0.9-0.8c0.5-1.4,0.6-2.8,0.6-4.3
		c2-1.3,4.6,0,5.9,1.7c0.2,1.4-0.2,2.8-0.1,4.2l0.2,0.3C147.9,40.5,147.8,39.7,148,38.9z M152.2,64.4c0.9,0.5,2,0.4,3,0.4
		c0.1,0.2,0.4,0.5,0.5,0.7c-1.4,0.2-2.8,0.2-4-0.5c-1.7-0.8-2.7-2.7-2.5-4.5c0.2,0.1,0.6,0.2,0.9,0.2
		C149.9,62.2,150.8,63.8,152.2,64.4z M150.5,60.9c1.1,0.3,2.2,0.5,3.2,1.1c0.5,0.8,0.9,1.6,1.3,2.4
		C152.8,64.8,150.4,63.2,150.5,60.9z M149.9,64.2c1.4,1.7,3.8,2.2,5.9,1.6c0.3,0.6,0.6,1.2,0.8,1.7c-1.5-0.3-3-0.9-4.5-1.3
		c-1.2-0.3-2.3-1-3.6-1.3c-1.2-0.3-2.4-0.3-3.5-0.6c-1-1.9-1.6-4-2.3-6.1c1.9,0.6,3.9,1.3,5.8,1.9C148.6,61.6,148.9,63.1,149.9,64.2
		z M177.9,91.3c-1.9-0.6-3.7-1.4-5.7-1.9c0.2-1.4,0.4-2.9,0.2-4.4c-0.2-1.6-1.1-3-1.6-4.4c0.7,0.3,1.3,0.7,1.8,1.1
		c1.6,1.4,3.4,2.6,4.8,4.3C178,87.7,177.9,89.5,177.9,91.3z M173.2,94.7c-0.9,1.3-2.1,2.7-3.8,2.5c1.1-1.2,2.7-2.1,3-3.8
		c0-1.2-0.5-2.4-0.5-3.6c1.9,0.6,3.8,1.4,5.8,2c0.2,1.8-0.6,3.8-2.3,4.6c-0.9,0.5-2,0.3-2.9,0.3c0.8-1,1.8-2,2-3.4
		C173.8,93.4,173.6,94.1,173.2,94.7z M171.9,86.1c-1.2-0.5-2.4-0.9-3.5-1.5c-0.8-1.4-1.1-3.1-1.7-4.6c1.1,0.2,2.4,0.3,3.2,1.3
		C171,82.6,171.7,84.3,171.9,86.1z M167.6,84.2c-0.4-0.1-0.7-0.2-1.1-0.4c-0.5-1.7-1.2-3.2-2.1-4.7c0.6,0.2,1.2,0.4,1.7,0.8
		C166.7,81.3,167.1,82.8,167.6,84.2z M164.6,80.9c0.6,1,0.8,2.3,1.4,3.3c1.9,1,3.9,1.8,5.9,2.6c-0.1,1.4-0.5,2.7-0.4,4.1
		c0,0.8,0.3,1.7,0.3,2.5c-0.7,1.8-2.5,2.8-4,3.9c-0.9,0.7-2,1.5-3.2,1.1c-1.3-0.4-2.6-0.8-3.9-1.1c1.3-1.3,2.6-2.5,4-3.7
		c-0.7-1.4-1.1-3.1-2.3-4.1c0,1.4,1,2.5,1.6,3.8c-1.1,1-2.3,2-3.6,2.9c0.7-2,1.3-4.1,1.4-6.3c0-1.2-0.5-2.4-1-3.5
		c-0.6-1.4-1.3-2.8-2.3-4c0-2.3,0-4.6-0.6-6.8C160.8,76.1,163.2,78.3,164.6,80.9z M139.9,106.6c-0.6-1.4-1.4-2.7-2.2-4
		c1.4,0.6,2.4,1.7,3.8,2.3c0.9,0.3,1.8-0.3,2.4-0.9c1.4-1.4,2.6-3,3.7-4.6c1.2,0.9,2.7,1.5,4.2,1.6
		C148.5,103.9,144.2,105.7,139.9,106.6z M149.9,103.8c-0.3-0.3,0.2-0.9,0.5-0.7C150.7,103.4,150.3,104,149.9,103.8z M142.7,107
		c0.5-0.1,0.9-0.3,1.4-0.4c0.3,0.6,0.6,1.3,0.9,1.9c-0.5,0.1-1,0.4-1.5,0.4C143.1,108.3,142.9,107.7,142.7,107z M143,109.2
		c-0.2,0.1-0.7,0.3-1,0.4c-0.2-0.8-0.4-1.6-0.5-2.4c0.2,0,0.6,0,0.8,0C142.5,107.8,142.8,108.5,143,109.2z M144.4,106.5
		c0.5-0.2,0.9-0.4,1.4-0.7c0.3,0.5,0.6,1.1,0.9,1.6c-0.5,0.3-1,0.6-1.5,0.8C145,107.7,144.7,107.1,144.4,106.5z M146.2,105.6
		c0.5-0.3,1-0.5,1.5-0.8c0.2,0.4,0.4,0.9,0.6,1.3c-0.4,0.4-0.9,0.7-1.3,1.1C146.8,106.7,146.5,106.2,146.2,105.6z M148.1,104.6
		c0.5-0.3,1-0.6,1.5-0.9c0.4,0.9-0.4,1.5-0.9,2.1C148.5,105.3,148.3,104.9,148.1,104.6z M122.8,113.8c-0.2-1.2-0.3-2.5-0.4-3.7
		c0.8-0.5,1.8-0.8,2.6-0.4c0.4,0.9,0.4,2,0.6,2.9C124.5,112.5,123.5,113.1,122.8,113.8z M126.1,113.8c0.4,0.7,1,1.4,1.6,2
		c-1.2,0.4-2.3,1.2-2.9,2.3c-0.6-0.9-1.2-1.7-1.6-2.7C122.3,113.8,125.3,112.2,126.1,113.8z M122.4,109.6c0.1-0.8,0.2-1.7,0.3-2.5
		c1,0.2,1.9,0.4,2.9,0.6c-0.1,0.5-0.2,1-0.3,1.6C124.3,109,123.3,109.1,122.4,109.6z M122.6,106.3c-2.5-0.6-4.8-1.6-7.3-2.1
		c2.4-1.4,4.7-2.9,6.6-4.9c4-3.8,7.5-8.2,10.4-12.9c0.6-1,1.2-2,1.7-3.1c0.5,0.2,1,0.4,1.4,0.5c-2.1,1.1-2.7,4.1-1.3,6
		c1.2,1.6,3,2.6,4.7,3.5c-0.8,1.2-1.5,2.4-2.4,3.5c0.2,0.3,0.4,0.6,0.6,0.8c-1.1,1.6-1.9,3.3-3.2,4.8c-1.6,1.5-3.4,2.8-5.2,4.2
		C126.8,107.5,124.6,106.8,122.6,106.3z M82.6,72.9c-4.1-2.7-7-7.3-7.5-12.2c-0.4-1.7-0.3-4,1.6-4.8c1.3,3.3,3.6,6.3,6.6,8.1
		C82.4,66.9,82.3,69.9,82.6,72.9z M84.3,62.9c2.3-6.9,7.6-13,14.6-15.5c1.9-0.7,4-0.9,6-1.2c0.5,0.2,0.9,0.6,1.3,0.9
		c1.9,1.6,4,3,5.6,4.9c1,1.4,1.8,2.9,2.4,4.4c-0.3-0.4-0.6-0.9-0.9-1.3c-2.9-2.2-5.7-4.7-8.6-6.9c-1-0.9-2.3-0.2-3.4,0
		c-3.9,1.1-7.8,2.8-10.6,5.7c-2.8,3.1-5.1,6.9-6,11c-0.5,3.2-0.6,6.5-0.2,9.7c0.1,1.3,0.6,2.5,1.1,3.7c0.2,0.6,0.9,0.7,1.5,1
		c2.7,1,5.4,2.1,8.2,3.1c6.1-1.1,12.2-3.4,16.7-7.8c2.1-1.9,2.5-4.9,2.9-7.5c0.6-3.5,0.3-7.2-0.7-10.6c0.7,0.7,0.8,1.8,1,2.7
		c0.7,3.2,0.5,6.5,0.2,9.7c-0.3,1.9-0.6,3.8-1.7,5.4c-0.9,1.3-2.3,2.2-3.5,3.3c-2.4,2.1-5.2,3.5-8.1,4.6c-1.5,0.6-3.1,1.1-4.8,1.3
		c-4.4-0.4-8.4-2.3-12.1-4.5c-1-1.7-1.7-3.7-2-5.6C82.9,70,82.9,66.3,84.3,62.9z M121.2,51.9c0.9,0.2,1.8,0.4,2.6,0.9
		c-0.5,1.3-1.1,2.6-1.9,3.8c-0.4,0.3-0.9-0.2-1.4-0.3c0.1-0.6,0.2-1.2,0.2-1.8c-0.4,0.7-0.3,1.8-1.3,1.9c0.3-1.4,0.6-2.7,0.8-4.1
		c0.1-0.1,0.4-0.3,0.5-0.4c0,0.9,0,1.8,0,2.6C121.1,53.6,121.1,52.8,121.2,51.9z M133.9,51.6c-0.6,0.3-1.3,0-1.9-0.2
		c0.1-0.7,0.3-1.5,0.5-2.2c1.1,0.7,2.3,0.7,3.5,0.6C135.3,50.5,134.7,51.2,133.9,51.6z M136.9,49.7c0.8,0.4,1.6,0.7,2.4,0.9
		c-0.7,0.5-1.4,1.1-2.3,1.4c-0.6,0.4-1.1-0.3-1.7-0.5C135.9,51,136.4,50.4,136.9,49.7z M133,52.5c0.2,0.8,0.5,1.5,1.2,1.9
		c0.6,0.4,1.3,0.9,1.2,1.7c-0.3,1-1.1,1.8-2.1,2.1c-0.9,0.2-1.7-0.3-2.5-0.6c-1,1.4-2.1,2.8-3.2,4.1c-1.3-1.1-2.8-2-4-3.3
		c0-0.7,0.6-1.3,1.1-1.7c1.2-1.1,2.6-2.2,4.2-2.7c0.9-0.4,2-0.6,2.4-1.6C131.6,51.5,132.5,52.3,133,52.5z M141.5,63.8
		c0.8,0.2,1.6,0.4,2.4,0.7c-0.1,1.3-0.4,2.6-1,3.8c-1-0.7-2-1.4-3-2.2C140.4,65.3,141,64.6,141.5,63.8z M140.3,59
		c0.6-0.2,1.2-0.5,1.8-0.7c0.5,1.9,1.1,3.7,1.6,5.6c-0.7-0.2-1.5-0.4-2.2-0.6C141.1,61.9,140.8,60.4,140.3,59z M153,80.8
		c-0.6-0.1-1.2-0.3-1.7-0.4c0.4-1.1,0.9-2.3,1.3-3.4c0.5,0.1,0.9,0.2,1.4,0.3C153.7,78.4,153.3,79.6,153,80.8z M154.4,77.4
		c0.6,0.1,1.2,0.3,1.8,0.4c-0.4,1.1-0.5,2.3-1.1,3.3c-0.6,0-1.2-0.1-1.8-0.2C153.8,79.7,154.1,78.5,154.4,77.4z M151.8,75
		c-0.3-0.3-0.1-1.1,0.3-0.6C152.8,74.6,152.3,75.9,151.8,75z M152.1,76.8c-0.4,1.2-0.9,2.4-1.3,3.6c-0.6-0.2-1.2-0.3-1.8-0.5
		c0.5-1.1,0.9-2.3,1.4-3.5C151,76.5,151.5,76.6,152.1,76.8z M118.3,85.1c-2,2.7-4.1,5.2-6.1,7.8c-0.5,0.8-1.8,1.3-1.6,2.5
		c-1-0.4-1.9-0.7-2.9-1.2c2.8-2.2,5-5.1,7.5-7.6c1.3-1.5,2.4-3.2,3.6-4.8c1.8-2.4,3.4-4.9,4.9-7.5c0.6-1,1.2-2.1,2.2-2.7
		c1-0.5,2.2-0.1,3.2,0.4c1.4,0.7,2.8,1.5,4.2,2.2c0,0.5-0.6,0.7-1,0.5c-1.6-0.5-2.9-1.6-4.4-2.2c-0.7-0.3-1.5,0-1.9,0.6
		c-0.7,0.7-0.9,1.7-1.5,2.5c-2.1,2.6-3.9,5.3-6,7.8C118.4,84,118.7,84.6,118.3,85.1z M102.1,91.7c0.6,0.4,1.1,0.7,1.7,1.1
		c-0.4,0.4-0.7,0.9-1.2,1.1c-0.6,0.4-1.1-0.3-1.6-0.5C101.4,92.9,101.8,92.3,102.1,91.7z M100.7,93.2c-0.3-0.2-0.6-0.5-0.9-0.7
		c0.4-0.6,0.7-1.1,1.1-1.7c0.3,0.2,0.6,0.5,1,0.7C101.4,92.1,101.1,92.6,100.7,93.2z M95.8,84.1c1.9,0.2,3.8,0.5,5.6,0.1
		c5.5-0.9,11-3,15.2-6.7c0.5-0.5,1.2-1.1,1.3-1.9c0.7-4,0.8-8.1,0.2-12.1c0.5-0.6,1.6-0.4,2.3-0.9c1.1,0.9,2.3,1.8,3.5,2.7
		c-1,1.3-2,2.5-2.9,3.8c-0.3,0.5,0.2,1,0.6,1.3c0.9,0.7,1.8,1.3,2.7,2c-1.8,2.8-3.4,5.7-5.4,8.4c-1.5,1.9-2.7,3.9-4.3,5.7
		c-2.4,2.5-4.5,5.4-7.4,7.4C102.8,91.5,98.1,88.8,95.8,84.1z M115.7,58.3c0.4,0.3,0.8,0.7,1.1,1c-0.3,0.6-0.5,1.2-0.6,1.8
		c0.4,0.9,1.2,1.8,1.2,2.8c0.3,3.8,0.2,7.6-0.8,11.3c-0.6-0.3-1.2-0.7-1.8-1.1c1-2.3,1.4-4.9,1.5-7.4
		C116.6,63.9,116.3,61.1,115.7,58.3z M108.7,46.8c0.4-1.1,0.9-2.2,1.5-3.3c1,0.1,1.9,0.1,2.9,0.1c1.3,0.8,2.5,1.8,3.7,2.8
		c-0.7,0.4-1.2,1-1.9,1.3c-0.4-0.2-0.7-0.5-1-0.8c-1.3,0.9-1.8,2.4-2.5,3.7C110.8,49.2,110.1,47.7,108.7,46.8z M110.1,49.4
		c-1-0.7-1.9-1.5-2.8-2.3C108.6,47.2,109.7,48.2,110.1,49.4z M116.4,52.2c-0.8-0.8-1.4-1.8-1.8-2.8c0.5-0.6,1-1.1,1.5-1.7
		C115.9,49.2,116.1,50.7,116.4,52.2z M113.6,48.6c0.1,0.3,0.3,0.9,0.4,1.1c-0.5,0.7-1,1.5-1.5,2.2c-0.2-0.3-0.4-0.6-0.4-0.9
		C112.4,50,113,49.3,113.6,48.6z M114.2,50.2c0.2,0.4,0.5,0.8,0.6,1.3c-0.3,0.6-0.7,1.3-1.1,1.9c-0.6,0-0.7-0.8-1-1.1
		C113.3,51.5,113.7,50.9,114.2,50.2z M115.1,51.8c0.4,0.4,0.8,0.8,1.1,1.3c-0.6,0.7-1,1.7-1.8,2.2c-0.2-0.4-0.5-0.9-0.6-1.3
		C114.2,53.2,114.7,52.5,115.1,51.8z M114.8,55.9c0.5-0.9,1.2-1.6,1.8-2.4c0.3,0.3,0.7,0.6,1,1c-0.7,0.9-1.4,1.9-2.1,2.8
		C115.3,56.8,114.7,56.4,114.8,55.9z M118.9,60.3c1.2-0.7,2-2,2.8-3.1c0.4,0.3,0.9,0.6,1.1,1.1c0,0.8-1.2,1.3-0.9,2.1
		c0.7,0.1,0.9-1,1.3-1.4c0.2,0.2,0.3,0.3,0.5,0.5c-0.8,1-1.5,2.1-2.3,3.1c-0.3,0-0.6,0-0.8-0.1c0.2-0.5,1.6-1.2,0.8-1.6
		c-0.8,0.5-1.3,1.6-2.3,1.8c-0.7,0.3-1.5-0.4-1.7-1c0-1.6,1.1-2.9,1.7-4.3c0.1-0.5,0.6-0.6,1.1-0.7C119.8,57.8,119.2,59,118.9,60.3z
		 M120.4,56.7c0.4,0.1,0.7,0.3,1.1,0.4c-0.6,0.9-1.1,1.8-2,2.3C119.7,58.5,120.1,57.6,120.4,56.7z M135.5,67
		c-0.2,0.1-0.6,0.3-0.8,0.4c-0.6-0.5-1.3-1-1.9-1.5c0.4-0.2,0.8-0.4,1.3-0.6C134.5,65.8,135,66.4,135.5,67z M134,64.7
		c0.8-0.2,1.5-0.5,2.3-0.7c0.4,0.7,1,1.4,1.6,2c-0.7,0.3-1.3,0.6-2,0.8C135.2,66.1,134.6,65.4,134,64.7z M144.2,77.9
		c-0.9-0.2-1.4-1-1.4-1.9c0.3-0.8,0.7-1.5,1-2.2c0.6,0.3,1.3,0.5,1.9,0.8C145.2,75.7,144.7,76.8,144.2,77.9z M146.2,74.8
		c0.6,0.2,1.2,0.5,1.8,0.7c-0.5,1.1-1.1,2.2-1.6,3.3c-0.6-0.2-1.2-0.5-1.8-0.7C145.1,77,145.6,75.9,146.2,74.8z M134.8,73.8
		c-0.1,0.2-0.3,0.5-0.4,0.6c-1.6-1-3.3-1.9-5-2.8c-0.9-0.5-1.9-0.9-3-0.7c-0.8,0.1-1.4,0.7-2,1.3c-1-1-2.4-1.5-3.1-2.6
		c0.9-1.3,1.9-2.5,2.9-3.8C127.7,68.4,131.4,71,134.8,73.8z M130.5,69.7c0.7-1.1,1.5-2.1,2.3-3.1c0.4,0.3,0.8,0.6,1.1,1
		c-0.7,1-1.5,2-2.2,3C131.4,70.3,131,70,130.5,69.7z M135.9,73.2c1.5,0.9,3,1.8,4.5,2.6c-0.8,1.7-1.6,3.3-2.4,5
		c-1.5-1.4-2.9-2.9-4.4-4.2C134.4,75.5,135.2,74.4,135.9,73.2z M138.3,73.9c0.5-0.7,1-1.5,1.5-2.2c0.6,0.3,1.1,0.6,1.7,0.9
		c-0.4,0.8-0.9,1.6-1.4,2.3C139.5,74.6,138.9,74.2,138.3,73.9z M139.3,79.4c0.6,0.3,1.2,0.5,1.7,0.8c-0.5,1-1.6,1-2.5,1
		C138.7,80.6,139,80,139.3,79.4z M139.5,79.1c0.1-1.3,1.3-0.2,1.8,0.1C141.1,80.1,140,79.2,139.5,79.1z M140,77.9
		c0.3-0.6,0.6-1.2,1-1.8c0.5,0.2,1,0.4,1.5,0.6c-0.2,0.7-0.5,1.4-1,1.9C141,78.4,140.5,78.2,140,77.9z M142.4,75.9
		c-0.7-0.2-1.3-0.4-1.9-0.7c0.5-0.8,0.9-1.6,1.4-2.3c0.5,0.3,1.1,0.5,1.6,0.8C143.1,74.4,142.7,75.1,142.4,75.9z M137.5,69.5
		c0.1-0.3,0.3-0.6,0.4-0.9c1.6,1,3.1,2,4.8,2.9c0.8,0.3,1.2,1.2,1.6,1.9C141.9,72.3,139.7,70.9,137.5,69.5z M137.7,70.3
		c0.5,0.4,1.1,0.7,1.7,1.1c-0.5,0.8-1,1.5-1.5,2.3c-0.6-0.3-1.2-0.7-1.9-1C136.6,71.9,137.1,71.1,137.7,70.3z M135.2,73.2
		c-0.5-0.4-1.1-0.8-1.6-1.2c0.7-1,1.4-2.1,2.2-3.1c0.5,0.4,1,0.8,1.5,1.2C136.6,71.1,135.9,72.2,135.2,73.2z M133.3,71.7
		c-0.4-0.3-0.8-0.6-1.2-0.9c0.8-1,1.5-2,2.3-3c0.3,0.3,0.7,0.5,1,0.8C134.7,69.7,134,70.7,133.3,71.7z M132.2,65.4
		c-0.4-0.2-0.8-0.5-1.2-0.8c0.9,0.1,1.8,0.1,2.8,0.2C133.3,65,132.8,65.3,132.2,65.4z M131.4,65.6c0.3,0.3,0.7,0.6,1,0.8
		c-0.8,1-1.5,2-2.2,3c-0.4-0.3-0.8-0.5-1.2-0.8C130.1,67.9,130.9,66.8,131.4,65.6z M128.3,68c-1-0.9-2.1-1.6-3.2-2.5
		c1.2-0.6,2.2-1.6,2.7-2.9c0.9,0.8,2,1.6,2.9,2.4C130.1,66.2,129.4,67.4,128.3,68z M126.8,62.6c-0.5,1-1.4,1.8-2.4,2.3
		c-0.5-0.1-0.8-0.4-1.2-0.7c0.8-1.1,1.6-2.2,2.5-3.3C126.1,61.4,127.1,61.8,126.8,62.6z M122.9,63.9c-0.4-0.3-0.8-0.6-1.2-0.9
		c0.8-1.1,1.6-2.1,2.4-3.2c0.4,0.3,0.7,0.5,1.1,0.8C124.5,61.7,123.6,62.8,122.9,63.9z M117.3,58.9c-0.5-0.4-0.9-0.9-1.4-1.4
		c0.7-0.9,1.4-1.9,2.2-2.8c0.3,0.3,0.6,0.6,1,0.8C118.5,56.7,117.9,57.8,117.3,58.9z M116.3,75.8c-1.7,1.9-3.9,3.4-6.2,4.6
		c-2.8,1.5-5.8,2.9-9,3.1c1.4-0.7,3-1.1,4.4-1.8c1.7-0.9,3.3-1.8,4.7-3c1.5-1.3,3.1-2.4,4.3-4C115.1,75,115.7,75.4,116.3,75.8z
		 M122.2,79.7c0.4-0.6,1.1-0.3,1.6,0.1c0.7,0.9,0.5,2.2,0.1,3.2c-0.8,1.7-2,3.2-3.3,4.6c-0.6-1.1-1.1-2.3-1.6-3.4
		C120.1,82.6,121.1,81.2,122.2,79.7z M124.9,81.6c0.2-1.4-0.6-2.6-1.9-3c0.9-1.1,1.6-2.2,2.4-3.4c1,2.1,1.9,4.2,2.9,6.3
		c-2.1,2.9-4.1,6-6.1,9c-0.5-0.8-1-1.6-1.4-2.4C122.5,86.2,124.5,84.2,124.9,81.6z M128.6,81.9c0.9,0.1,1.8,0.4,2.7,0.6
		c-2.1,3.2-4.1,6.4-6.1,9.6c-1-0.1-1.9-0.4-2.7-0.9C124.5,88.1,126.7,85.1,128.6,81.9z M128.9,81.3c-1-2.1-1.9-4.1-2.9-6.2
		c0.8,0.3,1.6,0.4,2.3,0.9c1.1,2,2,4,3.1,6C130.5,81.7,129.7,81.5,128.9,81.3z M125.5,74.4c0.5-0.6,1-1.6,1.9-1.4
		c1.7,0.5,3,1.7,4.7,2.2c0.7,0.2,1.3-0.4,2-0.6c-0.3,0.4-0.5,1.2-1,1.3c-1.8-0.6-3.4-1.8-5.2-2.2c-0.4,0.3-0.7,0.7-1,1
		C126.4,74.6,126,74.5,125.5,74.4z M133,76.7c1.6,1.8,3.4,3.3,5,5.1c0.8,0,1.6-0.2,2.4-0.1c1.4,0.8,2.7,1.7,4.1,2.4
		c1,0.4,1,1.7,1.3,2.6c-3.9-1.2-7.7-2.5-11.4-4.1c-0.3-0.2-0.5-0.6-0.7-0.8c-1.5-2.4-3.1-4.8-4.7-7.2
		C130.4,75.4,131.8,75.9,133,76.7z M143.4,100.3c0.2,0.1,0.6,0.4,0.9,0.6c-0.8,0.8-1.5,2-2.8,2C142.1,102,142.7,101.2,143.4,100.3z
		 M140.9,102.6c-1.2-0.5-2.3-1.2-3.4-2c0.7-0.8,1.4-1.7,2.1-2.5c1.1,0.7,2.3,1.4,3.4,2.1C142.2,100.9,141.8,102.1,140.9,102.6z
		 M142.9,99.5c3.5-2.9,4.9-7.5,4.8-11.9c0.8,0.5,1.7,0.8,2.3,1.4c0,0.5-0.1,1.1-0.3,1.6c-1.1,3.5-2.8,7-5.1,9.8
		C144,100.2,143.4,99.9,142.9,99.5z M142.5,99.3c-0.8-0.5-1.7-1-2.5-1.6c0.7-1.1,1.5-2.2,2.3-3.2c1.8-2.3,3.1-5,4.8-7.4
		C147.5,91.5,146.1,96.4,142.5,99.3z M143.1,87.1c-0.7,1-1.3,1.9-2,2.9c-1.2-0.7-2.5-1.5-3.7-2.2c0.5-0.8,0.9-1.7,1.4-2.5
		C140.3,85.9,141.7,86.5,143.1,87.1z M138.4,85.2c-1,1.9-2,3.7-3,5.5c-0.8-0.8-1.5-1.7-1.5-2.9c-0.1-1.2,0.3-2.8,1.6-3.2
		C136.5,84.2,137.5,84.8,138.4,85.2z M137.2,88.3c1.2,0.7,2.5,1.4,3.7,2.1c-0.6,0.9-1.2,1.8-1.8,2.7c-1.2-0.6-2.3-1.4-3.3-2.2
		C136.3,90.1,136.7,89.2,137.2,88.3z M143.5,87.3c0.7,0.3,1.4,0.6,2.1,0.8c-1.4,2.4-2.9,4.8-4.7,6.9c-1.6,2.1-3.2,4.1-5.1,5.9
		c0.5-1.1,1.2-2.1,1.9-3.2c-0.2-0.3-0.4-0.5-0.6-0.8C139.3,93.7,141.4,90.5,143.5,87.3z M136.3,101.8c0.3,0.6,1.4,1.3,0.9,2
		c-0.2,0.5-0.8,0.4-1.2,0.6c-0.2-0.5-0.5-1-0.7-1.4C135.5,102.7,135.9,102.2,136.3,101.8z M136.8,101.2c0.1-0.1,0.3-0.3,0.3-0.3
		c1.3,0.9,2.6,1.8,4.2,2.3c0.6,0.2,1.3,0,1.7-0.4c3.5-3.2,5.7-7.6,7.1-12.1c0.2-0.7,0.5-1.6-0.1-2.1c-1.1-0.8-2.4-1.3-3.6-2
		c-0.4-0.6-0.5-1.3-0.7-2c1.3,0.6,2.5,1.4,3.7,2.1c0.6,0.3,1.3,0.6,1.7,1.2c0.1,0.7,0,1.3-0.2,2c-0.7,2.9-1.6,5.8-3.1,8.4
		c-1.2,2-2.6,3.8-4.2,5.4c-0.5,0.5-1.3,1.1-2,0.8c-0.9-0.3-1.5-1-2.3-1.4C138.5,102.5,137.4,102.1,136.8,101.2z M145.3,83.9
		c-1.5-0.9-2.9-1.7-4.4-2.5c0.7-1.1,1-2.5,1.8-3.5c1.5,0.8,2.9,1.5,4.5,2.2C146.6,81.4,145.9,82.7,145.3,83.9z M146.8,79
		c0.6-1.1,1.1-2.2,1.7-3.3c0.5,0.2,1,0.3,1.5,0.5c-0.5,1.1-0.9,2.3-1.4,3.4C148,79.4,147.4,79.2,146.8,79z M149,72.3
		c0.6,0.2,1.4,0.1,1.6,0.8c0.4,1,0.7,2,1,3C150.2,75.3,149.7,73.7,149,72.3z M150,75.6c-0.5-0.2-1.3-0.2-1.6-0.8
		c-0.7-1.3-1.4-2.6-2-4c0.6,0.2,1.5,0.1,1.7,0.9C148.6,73,149.2,74.3,150,75.6z M147.8,74.8c-0.8-0.3-1.7-0.6-2.4-1
		c-0.9-0.8-1.1-2.2-2.3-2.7c-1.8-0.9-3.6-2-5.2-3.1c-0.2,0.4-0.5,0.9-0.7,1.3c-0.7-0.5-1.4-1-2-1.6c1-0.5,2.1-0.9,3.1-1.4
		c2.2,1.6,4.5,3,6.9,4.1c0.4,0.1,0.5,0.5,0.7,0.8C146.4,72.3,147.2,73.5,147.8,74.8z M139.4,65.6c-0.8-0.6-1.5-1.4-2.2-2.2
		c0.4-0.3,0.8-0.6,1.2-0.9c0.6,0.3,1.3,0.5,1.9,0.8C140.1,64,139.8,64.8,139.4,65.6z M138.7,62.1c0.4-0.4,0.9-0.9,1.3-1.3
		c0.1,0.7,0.2,1.3,0.2,2C139.8,62.5,139.2,62.3,138.7,62.1z M132.5,64.1c-1.7-0.2-3.3-0.9-4.6-2c1.1-1.3,2-2.6,3.1-3.9
		c1.4,0.5,2.6,1.4,4,1.7c1.4,0.4,2.9,0.2,4.3,0.2C137.9,62.4,135.3,64.3,132.5,64.1z M123,57.7c-0.3-0.3-0.6-0.5-0.9-0.8
		c0.9-1.2,1.4-2.6,2-3.9c0.7,0.6,1.3,1.3,1.8,2C124.8,55.8,123.9,56.7,123,57.7z M119.2,54.7c-0.7-0.5-1.5-0.9-2-1.6
		c-0.8-1.8-1.1-3.9-0.7-5.8c0.5-0.9,1.3,0,1.8,0.3C120.2,49.5,119.6,52.4,119.2,54.7z M113.8,43.3c0.5-0.9,1-1.8,1.2-2.8
		c2.3,1,4.6,2.1,6.9,3.1c-0.2,1-0.5,2-1.2,2.7c-0.5,0.5-1.3,0.8-1.9,0.4C117.1,45.6,115.5,44.4,113.8,43.3z M112.9,43
		c-1.9,0.1-3.9-0.2-5.4-1.4c-0.4-0.9,0.2-2.2,1.3-2.3c2-0.2,4,0.3,5.8,1.1C114.3,41.3,113.9,42.4,112.9,43z M109.6,43.4
		c-0.6,1-1,2.2-1.6,3.2c-0.5,0-1,0.2-1.5,0c-2-1.5-4.2-2.8-6.5-3.8c0.8-1.1,1.4-2.4,1.8-3.7c0.9,0.5,1.7,0.8,2.6,1.2
		c0.8,0.3,1.3,1,2,1.4C107.5,42.4,108.6,43,109.6,43.4z M113.5,71c-0.4,1.5-1.3,2.8-2.5,3.8c-4.3,3.9-9.9,6-15.5,7.2
		c-3.1-1-6.1-2.3-9.2-3.3c-0.5-1.1-1-2.3-1.2-3.5c-0.5-3.5-0.4-7.2,0.3-10.7c0.6-2.2,1.5-4.4,2.8-6.3c1.2-1.9,2.5-3.7,4.3-5
		c2.8-2.2,6.1-3.5,9.5-4.5c0.7-0.1,1.6-0.6,2.2,0c2.7,2.2,5.3,4.4,8,6.6c1,0.6,1.3,1.7,1.6,2.8C115.1,62.2,114.6,66.7,113.5,71z
		 M95.2,84.1c-0.4,0.5-0.8,1-1.2,1.5c-0.3-0.7-0.6-1.4-0.9-2.1C93.8,83.7,94.5,83.9,95.2,84.1z M91.7,83.1c-1.2-0.1-2.5-0.3-3.7-0.7
		c-0.7-0.5-1.3-1.3-1.9-2C87.9,81.4,89.9,82.1,91.7,83.1z M92.1,83.7c0.6,1.8,1.7,3.4,2.7,5c-1.5-0.7-2.9-1.7-4.2-2.8
		C91.1,85.2,91.6,84.5,92.1,83.7z M94.7,86.8c-0.2-0.3-0.3-0.6-0.5-0.9c0.4-0.5,0.7-0.9,1.1-1.4c0.2,0.4,0.4,0.7,0.6,1.1
		C95.6,86,95.4,86.9,94.7,86.8z M96.2,86c0.3,0.5,0.7,1,1,1.4c-0.3,0.5-0.7,1-1,1.4c-0.4-0.5-0.8-0.9-1.2-1.4
		C95.5,87,95.8,86.5,96.2,86z M97.7,87.8c0.6,0.9-0.1,1.6-0.6,2.3c-0.2-0.3-0.4-0.6-0.5-0.9C96.9,88.6,97.3,88.2,97.7,87.8z
		 M98.5,88.8c0.3,0.2,0.5,0.4,0.8,0.7c-0.3,0.5-0.6,1.1-0.9,1.6c-0.3-0.2-0.6-0.5-0.8-0.7C97.8,89.8,98.1,89.3,98.5,88.8z
		 M99.6,89.8c0.3,0.2,0.6,0.5,0.9,0.7c-0.3,0.5-0.7,1.1-1,1.6c-0.3-0.2-0.6-0.5-0.9-0.7C98.9,90.9,99.3,90.4,99.6,89.8z M100,93.6
		c1.8,1.2,3.7,2.2,5.6,3.2c-2,0.2-4-0.5-5.9-1.1c-3.1-1.2-6.2-2.7-8.5-5.2c0.8,0.4,1.6,0.9,2.4,1.3C95.8,92.8,97.9,93.2,100,93.6z
		 M103.3,94.8c0.5-0.5,0.9-1,1.3-1.5c0.8,0.5,1.6,0.9,2.4,1.4c-0.3,0.5-0.6,1.1-1.2,1.2C104.9,95.6,104.1,95.2,103.3,94.8z M108,95
		c0.2,0.1,0.6,0.2,0.7,0.3c-0.3,0.5-0.5,1.1-0.8,1.6c-0.4-0.1-0.7-0.3-1.1-0.4C107.2,96.1,107.6,95.6,108,95z M109.1,95.6
		c0.4,0.1,0.7,0.2,1.1,0.3c-0.2,0.6-0.4,1.1-0.6,1.7c-0.4-0.1-0.8-0.3-1.2-0.4C108.6,96.6,108.8,96.1,109.1,95.6z M110.7,95.9
		c0.1,0.2,0.4,0.5,0.5,0.7c0.2,0.5,0.3,1,0.5,1.5c-0.4,0-0.8-0.1-1.1-0.1C109.5,97.6,110.5,96.6,110.7,95.9z M111.1,94.9
		c0.9-0.9,1.8-1.9,2.5-3c1.7-2.3,3.7-4.4,5.2-6.8c0.7,1.7,1.4,3.3,2.3,4.8c-1.8,2.8-4.4,4.8-6.9,6.9c-0.6,0.5-1.2,0.9-1.9,1.3
		C111.9,97.1,111.5,96,111.1,94.9z M116.2,96.1c1.9-1.5,3.8-3.2,5.2-5.3c0.7,0.6,1.2,1.4,2.1,1.7c0.7,0.2,1.4,0.2,2.1,0.3
		c1.8-2.9,3.6-5.8,5.3-8.7c0.4-0.7,0.9-1.4,1.1-2.2c-0.9-2-2-3.9-3-5.8c-0.3-0.6-0.9-1-1.5-1.2c0.2-0.2,0.4-0.4,0.6-0.7
		c1.7,2.7,3.3,5.3,5.1,8c0.4,0.5,0.2,1.1,0,1.6c-0.8,1.7-1.8,3.1-2.8,4.7c-2.1,3-4.2,5.9-6.8,8.4c-2.7,2.8-5.6,5.6-9.2,7.1
		c-0.6-1.7-1.2-3.5-1.8-5.3C113.8,98,115,97,116.2,96.1z M131.3,106.8c1.5,1.4,3.1,2.8,4.5,4.3c-0.9,0.7-1.7,1.4-2.8,1.8
		c-0.6,0.2-1.2-0.1-1.6-0.6c-0.8-1.1-1.5-2.3-2.2-3.5C129.9,108,130.6,107.4,131.3,106.8z M131.7,106.3c1-1,2-1.9,3-2.9
		c1.1,2.4,1.7,4.9,1.7,7.5C134.8,109.5,133.3,107.9,131.7,106.3z M136.1,105c0.6-0.3,1.1-0.6,1.6-1c0.5,0.9,1,1.9,1.4,2.8
		c-0.2,1.1-1.5,1.5-2.4,0.9C136.5,106.8,136.3,105.9,136.1,105z M139.5,107.7c0.3,1.4,0.5,2.7,0.6,4.1c-0.9,0.4-1.9,0.5-2.8,0.2
		c-0.1-1.2-0.1-2.4-0.4-3.6C137.9,108.5,138.8,108.3,139.5,107.7z M148,99c0.5-0.9,0.9-1.8,1.4-2.7c1.5,0.4,3.3,0.8,4.3,2
		c0.3,0.8-0.4,1.6-1.1,1.9C150.9,100.6,149.3,100,148,99z M149.6,96c0.9-2.5,1.9-4.9,2.1-7.5c0.1-0.9-0.7-1.6-1.4-1.9
		c-1.5-0.8-2.9-1.7-4.4-2.5c0.6-1.3,1.3-2.5,1.9-3.8c2.1,0.7,4.2,1.4,6.4,1.8c1,5.2,0.5,10.5-0.3,15.7
		C152.6,96.9,151.1,96.4,149.6,96z M154.7,82.3c1,0.2,2,0.3,3,0.4c0,0.5,0,0.9-0.1,1.4c-0.9,0-1.8-0.1-2.7-0.1
		C154.9,83.4,154.8,82.8,154.7,82.3z M157.1,88c-0.6,0-1.1-0.1-1.7-0.2c0-0.5,0-0.9,0-1.4c0.7,0,1.4,0,2.1,0
		C157.3,87,157.5,87.6,157.1,88z M157.2,88.4c-0.1,0.6-0.2,1.1-0.3,1.7c-0.5,0-1,0-1.5-0.1c0-0.6,0-1.2,0-1.8
		C156,88.3,156.6,88.4,157.2,88.4z M155.3,86c-0.1-0.5-0.1-1.1-0.2-1.6c0.8,0,1.6,0,2.5,0.1c0,0.5,0,1,0,1.5
		C156.8,86,156,86,155.3,86z M155.3,90.5c0.5,0,0.9,0,1.4,0c-0.1,0.7-0.3,1.3-0.5,2c-0.2,0.1-0.5,0.3-0.7,0.3
		c0.1,0.1,0.4,0.3,0.5,0.4c-0.3,0.9-0.7,1.9-1.2,2.7C155,94.2,155.4,92.4,155.3,90.5z M156.8,93.2c1-3.3,1.4-6.8,1.6-10.3
		c1.2,1.7,2.1,3.6,2.8,5.5c0.6,1.5,0.1,3.1-0.2,4.6c-0.3,1.3-0.6,2.6-1.3,3.7c-0.5,0.6-1.2,1.1-1.9,1.6c-1,0-1.9-0.4-2.9-0.6
		C155.5,96.2,156.3,94.7,156.8,93.2z M157.8,81.2c-0.7,0-1.4,0-2.1-0.1c0.4-1.1,0.7-2.3,1-3.4c0.3,0,0.7,0.1,1,0.1
		C157.8,79,157.8,80.1,157.8,81.2z M153.2,76.4c-0.4-0.3-0.2-0.9-0.4-1.3c1.5,0.3,3,0.6,4.5,0.9c0.1,0.4,0.2,0.8,0.3,1.2
		C156.1,77.1,154.7,76.8,153.2,76.4z M151.6,73.4c-0.3-0.4-0.6-0.9-0.9-1.2c-0.5-0.3-1.2-0.3-1.8-0.3c-0.2-0.4-0.4-0.8-0.7-1.2
		c-0.6-0.4-1.3-0.3-1.9-0.5c-0.8-0.6-1.8-1.1-2.6-1.6c0.4-1.2,0.8-2.4,1.2-3.7c1.3,0.2,2.6,0.3,3.8,0.6c1.2,0.3,2.2,0.9,3.4,1.3
		c1.6,0.4,3.2,1,4.9,1.4c0.1,0.6,0.3,1.3,0,1.9c-0.7,1.7-1.9,3.1-2.7,4.7C153.2,74.8,152.5,73.8,151.6,73.4z M140,58.5
		c-0.5,0.1-0.5,0.6-0.6,1c-2,0.3-4.1,0.1-6.1-0.6c1.4-0.7,2.8-1.9,2.5-3.7c2.5,0.4,5,0.5,7.5,0.9C142.6,57.3,141.3,58.1,140,58.5z
		 M136.2,54.9c-1.2,0-2-1-2.7-1.8c0.5-0.4,1-0.7,1.5-1c0.6,0.6,1.3,1.7,2.2,1.1c0.7-0.5,1.5-0.1,2.3,0c2.4,0.3,4.8,0.2,7-0.6
		c-0.9,1-1.2,2.6-2.6,3.1C141.4,55.5,138.8,55.1,136.2,54.9z M145.6,52.1c-2.3,0.7-4.7,0.6-7-0.1c0.8-0.8,1.7-1.5,2.5-2.3
		c0.7,0.4,1.4,0.8,2.2,0.9c2.1,0.2,4.3-0.2,6.3-0.6c-0.7,0.7-1.4,1.5-2.1,2.2C146.9,52.2,146.3,51.8,145.6,52.1z M145.2,31.1
		c1.6,1,2.1,3.1,2.3,4.9c-1.7-1.4-3.9-2.6-6.1-1.5c-0.1-1.6-0.6-3.2-1.1-4.7C142,29.8,143.7,30.2,145.2,31.1z M137,27.8
		c2.4,1.1,3.5,3.9,3.7,6.4c-1.1-0.5-2.3-0.8-3.2,0.1c-1.3-2.6-3.2-4.9-5.4-6.8C133.7,27.5,135.3,27.6,137,27.8z M126.9,28
		c0.3-1.6,2.4-1.5,3.5-0.7c3.1,2.1,5.7,5.1,6.9,8.6c0.7,1.8,0.3,3.6,0,5.4c-0.5-3.6-1.8-7.2-4.2-9.9c-0.6-0.6-1.2-1.3-2-1.6
		c0.7,1.2,1.9,2.1,2.7,3.3c1.8,2.7,3,6.1,2.9,9.4c-0.7,1.6-2.4,2.6-3.7,3.8c-0.5-1-0.9-2.1-1.4-3.2c-0.2-0.5-0.3-1.2-0.1-1.7
		c0.8-1.9,2.5-3.3,3.5-5.1c-1.2,0.9-2,2.2-2.9,3.4c-0.6,0.9-1.3,1.9-0.9,3c0.4,1.2,1,2.4,1.5,3.6c-0.4,0.4-1,0.8-0.9,1.5
		c0.1,1.9-0.4,4-2,5.1c-1.2,0.6-2.5,1.1-3.6,1.9c-0.5-0.9-1.2-1.6-2-2.3c0.4-0.8,0.7-1.7,0.8-2.6c-0.5,0.7-0.7,1.6-1,2.4
		c-0.9-0.4-1.9-0.8-2.9-0.8c0-0.6,0-1.2,0-1.7c-0.1,0-0.2,0-0.3,0c0,0.7,0,1.3-0.1,2c-0.1-0.1-0.4-0.3-0.5-0.3
		c-0.1-1.3-0.2-2.7-1-3.8c0.8-0.3,1.7-0.6,2.2-1.3c0.8-1.1,1.1-2.4,1.2-3.8c1.1-0.2,2.4-0.6,2.8-1.8c0.4-0.9,0.2-1.8,0-2.7
		c0.5,0.2,0.9,0.5,1.4,0.5c1.4-0.4,2.4-1.8,2.8-3.1c1.5,0,2.7-1.1,3-2.6c-0.4-1-1.2-1.7-2-2.3c0-0.6,0.3-1.2-0.3-1.6
		c-0.2,0.7-0.4,1.4-0.7,2.1c1.1,0.2,2.1,0.9,2.4,2c-1.9,0.3-3.9-1.8-3.2-3.7c0.4-0.6,1.1-0.8,1.7-1.2c-1,0.1-2.2,0.8-2.1,1.9
		c0,1.8,1.7,3.3,3.4,3.4c-0.9,1.8-3.5,1.4-4.6,0C127,31.7,126.6,29.8,126.9,28z M123.6,32.4c0.1,1.5,0.3,3.2-0.8,4.3
		c-0.7,0.8-1.7,0.2-2.4-0.2c0.6-0.3,1.3-0.5,1.6-1.1c0.6-1.4-0.4-2.9,0.3-4.3c1.5-0.2,2.9,0.7,4.2,1.2c0.1,0.5,0.2,1,0.4,1.5
		c0.6,0.7,1.4,1,2.2,1.4c-0.3,1-1,2.2-2.2,2.2c-1.1-0.2-2.2-0.6-2.9-1.4C124.1,34.9,124.7,33.2,123.6,32.4z M119.5,31.7
		c0.2-0.7,0.3-1.7,1.1-2c1.9-0.4,3.9,0.3,5.6,1.2c0.1,0.4,0.2,0.8,0.3,1.2c-1.1-0.4-2.2-1-3.4-1.2c-0.5-0.1-1-0.1-1.3,0.4
		c-0.3,1.4,0.3,2.8-0.1,4.1c-0.3,0.8-1.5,1.2-1.9,0.3C118.8,34.6,119.3,33,119.5,31.7z M121.4,37.7c0.9,0.2,1.7-0.4,2.4-1
		c0.9,0.7,1.3,1.9,1.4,3c0,1.2-1.2,2.1-2.3,2.3c-0.4-0.2-0.7-0.5-1-0.7c-1.6-1.4-3.5-2.3-5.3-3.3c0.6-0.6,1.2-1.3,1.4-2.2
		c-0.8,0.3-1.1,1.2-1.9,1.6c-0.9,0.4-1.9,0.3-2.9,0.2c1-0.7,1.6-1.8,2.4-2.7c0.9-0.4,1.8-0.1,2.7-0.1
		C118.7,36.3,120,37.4,121.4,37.7z M111.8,34.8c1.4-0.5,2.9-0.9,4.3-1.4c1-0.3,2,0.2,2.5,1.1c-1,0.1-2.2-0.2-3.1,0.2
		c-0.9,0.8-1.3,2.1-2.5,2.6c-0.8,0.1-1.5-0.4-2-0.9C110.6,35.8,111.1,35,111.8,34.8z M106.2,38.9c0.3-0.9,0.9-2.1,2.1-1.9
		c1.4,0.2,2.8,0.5,4.1,1.1c1.1,0.6,2.5,0,3.6,0.7c1.9,1.2,4.1,2.1,5.9,3.5c0.1,0.2,0.2,0.7,0.2,0.9c-2.4-0.9-4.7-2.1-7.1-3.1
		c0-0.5-0.1-1-0.3-1.5c-0.1,0.3-0.2,1-0.2,1.3c-1.9-0.8-4-1.3-6-0.9c-1,0.3-1.2,1.4-1.6,2.3C106.3,40.6,105.9,39.8,106.2,38.9z
		 M102,34.9c1,1.3,2.4,2.2,3.7,3.2c-0.2,0.6-0.4,1.2-0.6,1.8c-1.3-0.6-2.8-1-3.8-2c-0.9-0.8-1.8-1.5-2.7-2.3
		C99.8,35.5,100.9,35.2,102,34.9z M97.7,35.7c1.3,1,2.4,2.1,3.7,3.1c-0.4,1.4-1,2.7-1.8,3.9c-1.9-0.5-3.8-0.9-5.7-1.3
		c0.5-1.5,1.4-2.9,1.6-4.4c-0.5-1.2-2.1-0.8-3.1-1.1C94,35.1,96,35.1,97.7,35.7z M89.5,36.5c1.9-0.6,4-0.3,5.8,0.5
		c-0.4,1.5-1.2,3-1.6,4.5c-2.1-0.2-4.2-0.2-6.2,0.1C88.2,39.9,88.8,38.2,89.5,36.5z M86.9,42.4c4.5-0.4,8.9,1.4,12.5,3.9
		c-0.3-0.7-0.9-1.1-1.5-1.5c-2.4-1.4-5-2.3-7.7-2.8c5-0.2,10,1.1,14.2,3.8c-2.9,0.2-5.8,0.7-8.4,2.2c-6.1,3.2-10.6,9.1-12.6,15.6
		c-2.7-1.6-4.8-4.3-6.1-7.2c-0.2-0.4-0.4-0.9-0.9-0.7c-1.2,0.3-1.6,1.6-2,2.6c0.1,3.9,1.2,7.9,3.7,11c1.3,1.6,2.7,3.2,4.6,4.1
		c0.3,1.8,0.8,3.6,1.5,5.2c-4.2-1.9-7.1-5.8-9-9.8c-1.4-3.1-2.3-6.7-1.6-10.1c0.6-3,1.5-5.9,3.3-8.4c1.2-1.8,2.8-3.2,4.4-4.6
		C83,44.3,84.7,42.8,86.9,42.4z M77.4,73.7c0.9,1,1.8,2.1,2.8,3c-1.1,1.4-2.3,2.7-3.4,4.1c-0.8-1.4-1.6-2.7-2.2-4.2
		c-0.2-0.7-0.8-1.2-1.1-1.9c-0.9-1.5-1.7-3.1-2.6-4.7c0.8-1.3,1.7-2.7,2.6-4c0.9,3.4,3.5,6.1,3.9,9.6C77.5,75.1,77.4,74.4,77.4,73.7
		z M7.2,76.3c3.8-1.7,7.6-3.2,11.4-4.8C38.8,63,59,54.6,79.2,46.1C77.6,48,76,49.8,75,52c-1.4,3-2.3,6.4-2.2,9.7
		c0,1.3,0.4,2.5,0.5,3.7c-0.1,0.1-0.3,0.3-0.4,0.4c-4.5-3.7-10.2-6.2-16.2-6.4c-6.7-0.3-13.5,2-18.6,6.4c-5.6,4.8-9,12.1-9,19.5
		C21.9,82.4,14.5,79.3,7.2,76.3z M73.8,103.9c-0.4,0.1-0.8-0.2-1.1-0.3c-14.3-6-28.6-12-43-18c0-5.9,2.1-11.7,5.8-16.3
		c3.4-4.2,8.2-7.3,13.5-8.6c8.2-2.2,17.5-0.1,23.7,5.7c-0.8,1.2-1.6,2.4-2.2,3.7c1.8,3.6,3.9,7.1,5.7,10.7c0.3,0.8,1.1,1.2,1.8,1.6
		c1.2,0.8,2.3,1.6,3.5,2.4C81.6,91.9,78.9,99,73.8,103.9z M77,81.2c1.2-1.4,2.3-2.9,3.5-4.2c0.9,0.7,1.8,1.4,2.8,1.9
		c1.8,0.6,2.4,2.5,3.7,3.7c-1,1.1-1.9,2.2-2.8,3.4C81.9,84.3,79.5,82.8,77,81.2z M88,86.9c-1.1-0.3-2.2-0.5-3.3-0.8
		c0.9-1,1.7-2.1,2.6-3.1c1.3,0.3,2.6,0.6,3.9,0.8c-0.5,0.7-0.8,1.7-1.7,1.8C88.8,85.7,88.4,86.3,88,86.9z M89,88.1
		c-0.2-0.8,0.5-1.5,1-2c1.6,1.7,3.7,2.8,5.7,3.8c1,0.8,1.9,1.8,2.9,2.7c-2-0.4-4-1-5.7-2.1C91.5,89.8,90.1,89.1,89,88.1z
		 M91.8,105.5c-0.1-0.8,0-1.6,0-2.4c1.3,0.9,2.5,1.9,3.9,2.6c0.6,0.3,1.1,0.8,1.3,1.4c-0.1,0.7-0.9,0.8-1.5,0.6
		C94.1,107.3,92.9,106.4,91.8,105.5z M95.9,101.8c0.8,0.5,1.6,1,1.9,1.9c0.2,0.6-0.1,1.4-0.7,1.7c-0.7,0.2-1.3-0.2-1.8-0.5
		c-1.1-0.6-2.2-1.4-3.2-2.2c-0.2-1,0.1-2,0.1-3.1C93.4,100.3,94.6,101.1,95.9,101.8z M92.2,98.3c1.1,0.8,2.2,1.6,3.1,2.6
		c-1.1-0.5-2-1.2-3.1-1.8C92.2,98.9,92.2,98.5,92.2,98.3z M92,107.2c1,0.6,1.8,1.8,3,1.8c-0.3-0.5-0.7-0.9-1.1-1.3
		c1,0.3,2.4,1.1,3.3,0.2c0.6-0.5,0-1.2-0.2-1.8c0.6-0.5,1.4-1.1,1.3-2c-0.1-1.5-1.6-2.2-2.7-2.9c0.2-0.1,0.6-0.4,0.8-0.6
		c-1.7-1.2-3.4-2.4-4.8-4c-1.5-1.7-1-4.1-1.1-6.2c3.3,3.5,7.7,5.7,12.3,6.8c1.1,0.3,2.3,0.4,3.5,0.2c0.6-0.1,1.2,0.3,1.7,0.5
		c1.3,0.5,2.6,0.8,3.9,1c0.1,0.4,0.2,0.8,0.3,1.1c-1.5-0.1-2.9-0.4-4.2-1.1c-2.9,1.1-6.1,0.2-8.6-1.5c0,0.5,0.3,0.9,0.7,1.1
		c2.1,1.6,4.7,2.1,7.3,1.9c-1.4,1.1-3.1,1.6-4.7,2.3c1.7,0.2,3.1-0.8,4.5-1.5c-0.6,1.9-1.2,3.9-2.2,5.6c-0.7,1.1-2.2,0.9-3.3,1
		c0.6,0.8,1.7,0.4,2.5,0.5c-0.5,1.3-1.2,2.6-2.4,3.4c-0.8,0.7-2,1.2-2.4,2.3c0.7-0.2,1.3-0.7,1.9-1c-0.4,0.9-0.7,2.1-1.7,2.4
		c-1.8,0.4-3.7-0.1-5.3-0.9c1.1-0.7,2.8-1.4,2.5-3c-0.3-1-1.1-1.7-1.9-2.3c0.5,1,1.6,1.6,1.7,2.8c-0.4,1.2-1.6,1.6-2.5,2.3
		c-0.6-0.6-1.4-1.1-1.6-1.9C91.9,110.7,91.9,108.9,92,107.2z M95.3,119.2c-1.4-1.6-2.4-3.5-2.8-5.6c0.9,0.8,1.9,1.4,2.9,1.9
		c0.1,1.5,0.8,2.9,1,4.4C96,119.7,95.6,119.5,95.3,119.2z M98.1,123.3c-1.1-0.6-1.8-1.7-2.6-2.8c0.6,0,1.1-0.1,1.6-0.4
		C97.5,121.2,98,122.2,98.1,123.3z M98.3,116.2c0.2,1.8,1.2,3.4,1.6,5.2c-1.3-0.8-2.3-2.1-3.4-3.2c-0.3-0.8-0.4-1.7-0.5-2.5
		c1.3,0.2,2.6,0.3,3.9,0.1c0.3,0.9,0.6,1.7,0.8,2.6C99.7,118,99.4,116.7,98.3,116.2z M119.8,123.4c-6.2-2.5-12.4-5.2-18.6-7.8
		c-0.2,0.1-0.5,0.3-0.7,0.4c0.4-0.9,1.1-1.7,1.3-2.8c0.1-1.3,1.6-1.6,2.4-2.6c0.8-0.6,0.6-1.6,0.9-2.5c2-2.3,1.9-5.6,3.5-8.1
		c1.3,0.6,2.7,1,4.1,1c0.5,1.4,0.9,2.8,1.4,4.2c0.4,0.3,0.9,0.1,1.3,0.1c2.3,0,4.6,0.8,6.8,1.5c-0.6,2.9-0.6,6,0.5,8.7
		c0.7,2,2.2,3.7,4,4.8C124.4,121.5,122.1,122.5,119.8,123.4z M128.2,119.9c-1.2,0.6-2.2-0.7-3.1-1.4c0.5-0.9,1.1-1.8,2.2-2.1
		c1-0.5,1.8,0.5,2.7,0.9c-0.5,0.7-1.2,1.3-1.2,2.2c0.6-0.5,0.9-1.4,1.6-1.8c0.7,0,1.4,0.2,2.1,0.3
		C131.2,118.8,129.6,119.2,128.2,119.9z M127.5,114.6c-1.6-1.9-1.8-4.5-1.4-6.8c0.8,0.1,1.7,0.1,2.4,0.6c0.7,1.5,1.3,3,2.1,4.5
		c0.4,0.7,1,1.2,1.8,1.5c0.2,1.1,0.5,2.1,0.9,3.2C131,117.3,128.9,116.3,127.5,114.6z M133.8,117.2c-0.4-1-0.8-2.1-1-3.2
		c1.3-0.8,2.5-1.7,3.7-2.8C136.4,113.5,135.7,115.9,133.8,117.2z M135.4,116.8c-0.2-0.4,0.3-1,0.7-0.6
		C136.4,116.6,135.7,117.1,135.4,116.8z M139.8,115c-1,0.5-2,0.9-3,1.2c-0.2-0.1-0.6-0.3-0.8-0.5c0.4-1.1,0.8-2.2,1-3.3
		c1,0.3,2,0.2,3-0.1C140,113.2,140.2,114.2,139.8,115z M140,107.1c0.3,0,0.7,0,1,0c0.2,0.9,0.4,1.7,0.5,2.6c-0.3,0-0.7,0.1-1,0.1
		C140.4,108.9,140.2,108,140,107.1z M140.6,114.6c0.1-1.4,0.1-2.8,0-4.2c1.7-0.5,3.5-0.8,5.1-1.6c0.9-0.5,1.7-1.1,2.6-1.7
		c0.6,0.2,1.4,0.4,1.8,0.9c0.5,0.6,0.7,1.4,1,2.2C147.7,111.8,144.2,113.2,140.6,114.6z M151.6,110.1c-0.5-1.4-1.2-2.9-2.8-3.4
		c1.1-0.9,2.1-2,2.8-3.2c1,1.8,1.8,3.7,1.8,5.7C152.9,109.5,152.3,109.8,151.6,110.1z M154.2,109c0-0.9-0.1-1.8-0.2-2.6
		c0.8,0.5,1.6,1.1,2.3,1.7C155.6,108.4,154.9,108.7,154.2,109z M153.7,105.4c-0.4-1.2-1-2.4-1.7-3.5c1.1-0.8,2.2-1.7,2.5-3.1
		c1.1,0.4,2.3,0.7,3.4,1c0.8-0.7,1.5-1.4,2.2-2.1c1.8,0.4,3.5,1.2,5.2,1.6c1.5,0.3,2.5-1,3.4-1.9c1.1,0.3,2.3,0.3,3.2-0.5
		c1.4,0.4,2.8,0.6,4.2,0.4c0.8-0.2,1.2-0.9,1.7-1.5c0.7-0.3,1.4,0.1,2.1-0.3c1.1-0.5,2.3-0.8,3.3-1.3c0.7-0.3,1.5-1,1.3-1.9
		c-0.4-1.9-1.4-4-3.2-4.8c-1.2-0.5-2.4-1-3.3-2c-1.8-1.9-3.8-3.5-5.9-5c-0.6-0.6-1.6-0.2-2.2-0.9c-0.9-0.9-2.3-0.5-3.4-0.8
		c-1-0.3-2-0.7-2.9-1.2c-0.8-0.7-1.5-1.7-2.6-2.1c-1.4-0.5-3-0.8-4.4-0.4c-0.6-0.1-1.2-0.2-1.8-0.3c0.8-1.5,1.9-2.9,2.6-4.5
		c0.7-1.5-0.3-3-0.8-4.4c-0.5-1.7-1.4-3.3-2.2-4.9c-0.5-0.9-1.6-0.9-2.5-1c-3.2-0.3-6.2-1.4-9.2-2.3c0.6-0.7,0.9-1.5,1.8-1.8
		c1.2-0.5,1.3-2,2.3-2.7c2.5-1.3,4.1-3.9,5.6-6.2c0.7-1.1,1.4-2.2,1.8-3.5c3.6,1.5,7.3,3,10.9,4.6c-2.5-0.1-4.9,0.9-6.7,2.7
		c-3,2.9-3.4,7.9-0.9,11.3c1.9,2.6,5.2,4.2,8.4,3.7c4.5-0.5,8.2-4.8,7.7-9.3c0-2.3-1.1-4.4-2.7-5.9c5,2.2,10.1,4.2,15.1,6.4
		c-1.7,4.1-1.6,9,0.3,13.1c0.4,0.9,1,1.7,1.3,2.6c-1.7,4-3.3,8.1-3.3,12.4c0,1.7,0.5,3.7,2.2,4.5c2,0.8,4.1-0.3,5.9-1.3
		c3.6-2.2,6.5-5.4,9.2-8.6c6.4,0,12.5-4.1,14.9-10c5.2,2.2,10.5,4.3,15.7,6.6c-25.1,10.4-50.2,21-75.2,31.5
		C156.3,106.6,155.2,105.6,153.7,105.4z M178.5,87.1c2.6,1.1,5.4,3.1,5.5,6.2c-1.8,0.9-3.7,2-5.8,2.1
		C178.7,92.6,178.5,89.8,178.5,87.1z M171.2,51.6c1.7,1.8,2.3,4.6,1.9,7c-0.2,2.1-1.6,3.9-3.2,5.1c-1.9,1.5-4.4,1.9-6.7,1.5
		c-3.3-0.7-6-3.4-6.6-6.7c-0.4-2.3,0.1-4.7,1.5-6.5c1.4-1.8,3.7-3.2,6-3.2C166.8,48.6,169.4,49.7,171.2,51.6z"/>
	<path class="st0" d="M100.8,69.2c-0.8-0.9-1.8-0.4-2.7,0.1c-0.5-0.7-1-1.4-1.6-2c2.4-2.1,4.9-4,7.3-6c0.2-0.2,0.4-0.5,0.5-0.7
		c-0.4,0.1-0.8,0.2-1.2,0.4c-2.7,1.6-5.4,3.3-8.1,4.9c-0.7,0.5-1.5,0-2.3,0c-3.8-0.3-7.2,3.1-7.2,6.8c-0.2,2.2,0.9,4.5,2.7,5.8
		c2,1.5,4.8,1.8,7,0.6c2.2-1,3.5-3.3,3.9-5.7c3.1-2.9,6.3-5.8,9.5-8.7c-0.1,0-0.4,0-0.6,0C105.6,66.2,103.2,67.6,100.8,69.2z
		 M98.6,73.2c-0.4,1.6-0.9,3.3-2.1,4.4c-1.6,1.6-4.2,2.2-6.4,1.4c-2-0.7-3.5-2.4-4-4.4c-0.7-2.9,0.7-6.3,3.5-7.6
		c1.5-0.8,3.3-0.8,4.9-0.3c2.1-1.3,4.2-2.7,6.4-3.8c-1.7,1.6-3.5,2.9-5.3,4.4c1,0.7,1.8,1.7,2.3,2.8c0.5-0.4,1.1-1.1,1.9-1
		c0.2,0.2,0.5,0.4,0.7,0.7c1.6-0.9,3.1-2,4.7-2.8C103.2,69.1,100.8,71,98.6,73.2z"/>
	<path class="st0" d="M129,101.2c-1.6-0.7-3.3-1.2-4.9-1.7c-0.7,2-2.3,3.5-4.1,4.5c1.9,0.8,3.9,1.4,5.9,2.1
		C127.4,104.8,128.7,103.1,129,101.2z M125.9,105.5c-1.7-0.4-3.2-1.1-4.8-1.6c1.5-1,2.7-2.3,3.4-3.9c1.4,0.5,2.8,1,4.1,1.5
		C128,103,127.2,104.5,125.9,105.5z"/>
	<path class="st0" d="M166.5,92.3c1.3,0.9,3.3,1.6,4.7,0.6c-1-0.1-2.1,0.2-3.1-0.3c-1.8-0.7-3.2-2.3-4.8-3.3
		C164,90.6,165.3,91.4,166.5,92.3z"/>
	<path class="st0" d="M81.8,79.1c-1.5-0.6-3,1.4-1.9,2.6c0.6,0.9,1.8,0.9,2.6,0.4C83.5,81.4,83.1,79.4,81.8,79.1z"/>
	<path class="st0" d="M96.3,100.3c1.2-0.2,2.5-0.6,3.4-1.6C98.6,99.2,97.4,99.6,96.3,100.3z"/>
	<path class="st0" d="M101.7,104.6c0.2-0.7,0.7-1.3,1.1-1.9c-1.6,1-1.8,3.4-0.8,4.8C101.8,106.5,101.5,105.6,101.7,104.6z"/>
	<path class="st0" d="M103.6,40.6c-1.3-0.4-2.6,1.2-1.7,2.3c0.5,1,2.1,1,2.6,0.1C105.1,42.2,104.6,40.9,103.6,40.6z"/>
	<path class="st0" d="M105.9,44.5c0.3,0.4,0.9,0.7,1.4,0.4c0.9-0.2,0.9-1.9,0-2.1C106.3,42.2,105.1,43.7,105.9,44.5z"/>
	<path class="st0" d="M128.4,105.1c0.9,1.1,2.7-0.5,2-1.6C129.5,102.6,127.9,104.1,128.4,105.1z M130,103.6c0,0.4,0,0.8-0.1,1.2
		c-0.4,0.2-0.8,0.3-1.2,0.2C128.8,104.3,129.3,103.8,130,103.6z"/>
	<path class="st0" d="M144.9,45c1.7,0.6,3.5,0.8,5,1.8c0.6,0.1,0.5-0.7,0.7-1.1c-2.3,0-4.3-1-6.5-1.4
		C144.3,44.7,144.6,44.9,144.9,45z"/>
	<path class="st0" d="M159.6,77.2c0.2,0.6,0.6,1.1,0.9,1.6c1,1.6,0.1,4,1.6,5.4c-0.2-1.4-0.5-2.7-0.6-4.1
		C161.5,78.9,160.7,77.8,159.6,77.2z"/>
	<path class="st0" d="M85.4,82.6c-0.7-1.1-2.6-0.2-2.1,1C83.8,84.9,86,83.8,85.4,82.6z"/>
</g>
</svg>
