<?xml version="1.0" encoding="utf-8"?>
<!-- Generator: Adobe Illustrator 26.0.3, SVG Export Plug-In . SVG Version: 6.00 Build 0)  -->
<svg version="1.0" id="Слой_1" xmlns="http://www.w3.org/2000/svg" xmlns:xlink="http://www.w3.org/1999/xlink" x="0px" y="0px"
	 viewBox="0 0 239.5 150.2" style="enable-background:new 0 0 239.5 150.2;" xml:space="preserve">
<g>
	<path d="M151.9,112c0.4-0.3,0.7-0.6,1.2-1c0.1,0.1,0.1,0.3,0.3,0.3c-0.4,0.1-0.7,0.4-1,0.6C152.2,112,151.9,112,151.9,112z"/>
	<path d="M152.3,105.3c0.3,0,0.3,0.4,0,0.6C152.5,105.9,152.3,105.5,152.3,105.3z"/>
	<path d="M176.1,105.9l-0.1,0.1c-0.3,0.3-0.6,0.7-0.9,1C174.8,106.7,175.4,105.6,176.1,105.9z"/>
	<path d="M137.8,118.8c0,0.1,0,0.4,0,0.6c-0.1,0-0.4,0-0.6,0C137.4,118.9,137.5,118.8,137.8,118.8z"/>
	<path d="M155.6,121.2c-0.3-0.1-0.6-0.4-1-0.6v-0.4C155.3,120,155.6,120.6,155.6,121.2z"/>
	<path d="M208.8,96.8l0.1-0.3c0.3-0.4,0.4,0.3,0.6,0.4c0-0.3,0.1-0.7,0.3-1c0.1,0.3,0.1,0.6,0.3,1c-0.3,0.6-0.9,0.3-1.3,0.1V96.8z"
		/>
	<path d="M186,38.2c-0.1-0.3,0-0.4,0.3-0.3C186.5,38.1,186.3,38.2,186,38.2z"/>
	<path d="M206,93.5c0.3-0.1,0.4-0.1,0.3,0.1C206.3,93.7,206.1,93.5,206,93.5z"/>
	<path d="M190,37.2c0-0.1-0.1-0.4-0.1-0.6c-0.1,0-0.3,0.1-0.4,0.1c-0.3,0.6-0.4,1.2-0.7,1.9c0.1,0,0.3,0.1,0.4,0.1
		c-0.3,0-0.6,0-0.9,0c0.1,0,0.3-0.1,0.3-0.1c0-0.4,0-1,0.1-1.3c-0.7,0.1-0.6,1-0.9,1.6c0.1-0.4-0.1-1.2,0.3-1.6
		c0.6-0.6,1.3-1,2.1-1.5c0,0.1-0.1,0.4-0.1,0.6C190,36.6,190,36.9,190,37.2z"/>
	<path d="M190.3,30.7L190.3,30.7c0.4,0.1,0.6,0.3,0.9,0.6c-0.3,0-0.6,0-0.9,0.1C190.3,31.1,190.3,30.8,190.3,30.7z"/>
	<path d="M213.1,86.4c-0.4,0.4-0.9,0.9-1.5,0.9C211.7,86.7,212.5,86.3,213.1,86.4z"/>
	<path d="M208.8,90.7c0.1,0.3,0,0.4-0.3,0.3C208.3,90.7,208.5,90.7,208.8,90.7z"/>
	<path d="M195.6,103.6c0.3,0.3,0.4,0.6,0.7,0.9c-0.1,0.1-0.3,0.3-0.3,0.4C195.9,104.3,195.3,104,195.6,103.6z"/>
	<path d="M174,70.2c-0.4-0.6-0.7-1.2-0.7-1.9c0-0.4,0.4-0.1,0.6,0C173.9,69,174.2,69.6,174,70.2z"/>
	<path d="M158.5,70.5c0.1-0.4-0.3-0.7-0.4-1.2c0.3,0,0.4,0,0.7,0c0,0.1,0.1,0.3,0.1,0.4c0,0.1,0,0.6,0,0.7
		C158.7,70.6,158.5,70.6,158.5,70.5z"/>
	<path d="M114.3,92.6c0.1,1.3,0,3,0.6,4.3c0.1,0.1,0.1,0.1,0.3,0.3c0.7,0.7,0.9,1.6,1.3,2.5c1.5,0,2.8,0,4.3-0.3
		c0.7,2.4,2.5,4.1,3.3,6.4c0.4,1.3,0.6,2.7,0.7,4.1c0,1.2-0.3,2.4-0.3,3.4c-0.1,0.7-0.4,1.3-0.4,2.1c0.6-0.1,0.6-0.9,0.7-1.3
		c0.3-0.9,0.4-1.8,0.4-2.7l0.1-0.1c0.1,1.5,0.3,2.8,0.1,4.3c0,0.7-0.3,1.3-0.3,2.1h0.1c0-0.1,0-0.4,0-0.6c0.3-0.3,0.1-0.7,0.3-1
		c0.3-0.9,0-1.8,0.3-2.7c0-1.3-0.4-2.5-0.4-3.8c0.1-0.1,0.4-0.1,0.6-0.3c0.1-0.3,0.1-0.4,0.1-0.6c0,0,0.1,0.1,0.3,0.1
		c0,0.3-0.1,0.7,0,0.9c0.4,0.3,0.9,0.6,1.3,1c-0.1,0-0.3,0.1-0.4,0.1c-0.3-0.3-0.7-0.4-1.2-0.6l0.1-0.1c-0.1-0.1-0.4-0.3-0.6-0.4
		c-0.1,0.6-0.3,1.2,0,1.8c0.4,1,0.3,2.2,0.3,3.3c0.1,1-0.3,1.9-0.1,3c0.1-0.3,0.3-0.4,0.3-0.7c0.3-1.6,0.3-3.3,0.1-4.9h0.3
		c0,0.1,0.1,0.3,0.3,0.3c0.1,1.6,0,3.3,0.1,4.9c0,0.6-0.1,1.3-0.1,1.9c0.6-0.3,0.6-1,0.6-1.5c0.1-0.9,0.1-1.8,0.1-2.8h0.1
		c0.1,1-0.1,2.1,0,3c0.1,0.6-0.1,1.2-0.3,1.9c0.4-0.1,0.7-0.6,0.7-1c0.1-1,0.1-2.2,0.1-3.3c0-0.3-0.1-0.7,0.1-1
		c0.1,0,0.1,0.1,0.3,0.1c-0.1,0.6-0.1,1.2,0,1.6c0,1.6,0,3.1-0.1,4.7c0.1-0.1,0.4-0.3,0.4-0.4c0.4-1.8,0.3-3.7,0-5.5
		c0.4,0.1,0.9,0.1,1.2,0.3c-0.4,0.6-0.1,1.5-0.3,2.2c-0.1,1,0.1,2.2-0.1,3.3c-0.1,0.4-0.1,0.7-0.1,1.2c0.6-0.3,0.6-1,0.6-1.6
		c0.3,0.1,0.3,0.4,0.3,0.7c0.4-1.3,0-2.8,0.4-4.1l0.1,0.1c0.1,1.6-0.3,3.3-0.1,4.9c0.6-1.6,0.6-3.3,0.6-4.9c0.1,0,0.1,0.1,0.3,0.1
		c0.1,1-0.1,1.9-0.1,3c0.1,0,0.4,0,0.6,0c0-0.4,0-0.7,0-1.2c0,0.1,0.1,0.3,0.1,0.4l0.1-0.1c0,0.7-0.1,1.5-0.1,2.1v0.1
		c0,0.3-0.1,0.4-0.4,0.6c0.1-0.6,0.1-1.2,0.1-1.8l-0.3,0.1c-0.1,0.7-0.1,1.6-0.1,2.4c-0.9,0.9-1.2,2.2-1.3,3.4
		c0.1,0,0.3-0.1,0.4-0.1c0.1-0.6,0.4-1.3,0.7-1.9c0.3-0.7,0.9-1.2,1.2-1.9c1-0.6,1.8-1.6,3-2.1c1.3-0.6,3-0.9,4.4-0.7
		c0.7,0.3,1.5,0.4,2.4,0.7c-0.4,1-0.4,2.1-1,3.1c-0.1-0.9,0-1.8,0-2.7c-0.1-0.3-0.4-0.3-0.6-0.3c-0.3,1.2-0.7,2.4-1,3.7
		c-0.1-0.1-0.4-0.4-0.6-0.7c0.1-0.1,0.1-0.3,0.3-0.4c-0.1-0.4-0.7-1-1.2-0.6c-0.9,1.2-1.2,2.7-2.4,3.7c-0.1,0.1-0.1,0.4-0.3,0.7
		c0.1,0,0.3,0,0.4,0c0.9-0.9,1.5-2.1,2.1-3.3c0-0.4,0.1-0.7,0.6-0.7c0.1,1-0.3,2.1-0.1,3.1h0.1c0.4,0.4,0.9,0,1-0.4
		c0.3-0.7,0.4-1.5,0.6-2.2c0,0,0.1-0.1,0.3-0.1c0,0.3,0,0.6,0,1c-0.1,0.4-0.1,0.9,0,1.3c0.1,0,0.4,0,0.6,0.1l0,0
		c0.9-1.5,0.7-3.3,1.5-4.7l0.3,0.1c-0.1,1-0.4,2.1-0.3,3.1c0,0.4-0.3,0.7-0.1,1.2c0,0.1,0,0.3,0,0.3c0,0.4,0.6,0.6,0.7,0.3
		c0.4-0.9,0.4-1.9,0.9-2.8v0.1c0-0.1,0-0.4,0-0.6c0.3-0.3,0.3-0.7,0.4-1.2c0.6,0,1,0,1.5,0.1c-0.1,0.7-0.6,1.3-0.7,1.9
		c-0.1,0-0.3-0.1-0.3-0.1c0.1-0.4,0.3-0.9,0.1-1.3c-0.4,0.1-0.4,0.6-0.6,1c-0.1,1-0.6,1.9-0.6,2.8c-0.1,0.1-0.1,0.7,0.1,0.9
		c0.6-0.1,0.7-0.9,1-1.3c0.1-1,0.7-1.9,1-2.8c0.1-0.3,0.1-0.4,0.3-0.6c0.3,0.1,0.6,0.3,0.9,0.4c-0.1,0-0.4,0-0.6,0.1
		c0.1,0.4-0.4,0.9-0.3,1.3c-0.1,0.6-0.4,1.3-0.6,2.1h-0.1c0,0.3,0,0.6,0,0.9c0.1,0,0.4,0,0.6,0c0-0.1,0-0.4,0-0.6
		c0.1-0.3,0.1-0.6,0.1-0.9h0.1c0.1-0.9,0.4-1.8,0.7-2.8c0.1,0,0.3,0.1,0.3,0.3c0,1-0.6,1.8-0.7,2.8c-0.1,0.6-0.3,1.3-0.3,2.1
		c-0.1,0.3,0,0.6,0.3,0.7c0,0.4,0,1,0,1.5c0.4,0.1,0.9-0.1,0.9-0.6l0.1-0.1c0-0.1,0.1-0.6,0.1-0.9c-0.1,0-0.4,0.1-0.6,0.1
		c0-1,0.6-1.9,0.9-3c0.1-0.6,0.4-1.3,0.6-1.9c-0.4-0.3-0.6,0.3-0.7,0.6c0-0.3-0.1-0.7-0.1-1c0.4,0,0.7,0,1.2,0l0.4,0.1
		c0.1-0.1,0.3-0.4,0.4-0.6c0.3,0,0.4-0.1,0.7-0.1c0.1,0.4,0.3,0.9,0.6,1.3c-0.9,0.1-0.6,1.2-0.9,1.6c-0.4,0.9-0.7,1.6-1,2.5h-0.1
		c0.1-0.6,0.1-1.3,0.3-1.9c0.1-0.3,0.1-0.4,0.1-0.7c0-0.6,0-1.2,0.4-1.6l0.1,0.6c0.1-0.1,0.3-0.4,0.4-0.6c-0.1-0.1-0.4-0.4-0.6-0.6
		c0,0.1,0,0.4-0.1,0.6l-0.1-0.4c0,0.1-0.1,0.4-0.1,0.4c-0.1,0.1-0.1,0.4-0.3,0.6c-0.1,0.3-0.3,0.6-0.4,1c-0.4,0.3-0.6,0.9-0.7,1.3
		c-0.1,0.3,0,0.4,0.1,0.6c0,0.1-0.1,0.3-0.3,0.4c0.4,0.1,0.3,0.6,0.4,0.9c-0.1,0.4-0.1,0.9,0.1,1.3c0.3-0.1,0.6-0.4,0.7-0.7h0.1
		c-0.1,0.6-0.1,1.2-0.1,1.8c0.1,0,0.3,0,0.4,0c0-0.1,0.1-0.3,0.1-0.4c0.6-0.3,0.3-1.2,0.6-1.8c0.7,0.4,0,1.5,0.1,2.1
		c-0.3,0.3,0.1,0.7,0.4,0.6l0.1-0.1c0.4-0.9,0.3-2.2,1.2-3c0,0.1,0.1,0.4,0.3,0.6l0,0c0.1,0,0.3,0.1,0.4,0.1
		c0.3,0.6,0.4,1.3,0.3,2.1c0,0.9,0.3,1.8,0.1,2.7c-0.1,1.9-0.3,3.8-0.9,5.6c0.3,0,0.6-0.3,0.6-0.7c0.4-2.2,0.9-4.4,0.6-6.7
		c-0.1-1,0.1-2.1-0.3-3c0-0.1,0.1-0.6,0.1-0.7l0.1-0.1c-0.9-0.7-0.9-2.1-1.6-3c-0.4-0.6-1-0.9-1.3-1.5c0.9-0.1,1.3,0.7,2.1,1.2
		c0.6,0.4,0.9,1.2,1.3,1.6c0.1,0.6,0.4,1.2,0.7,1.6c0,0.3,0,0.6,0.1,0.9c0,0.6,0,1.2,0.4,1.8c0.1,0.9-0.1,1.6,0.1,2.5
		c0,0.1,0,0.3,0,0.4c0-0.3,0.1-0.6,0.1-0.9c0-0.4,0-0.7-0.1-1.2c0-1,0-2.1-0.3-3s-0.7-1.8-1.2-2.7c-0.6-0.4-1.3-1.2-0.7-1.8h-0.1
		c0,0.1-0.1,0.3-0.1,0.4c-0.4,0-0.6-0.6-0.9-0.9c0.3-0.1,0.7-0.3,1-0.4c-0.1-0.1-0.1-0.3-0.3-0.4c-0.1-0.1-0.3-0.4-0.3-0.6
		c0.1,0,0.4,0,0.6-0.1c0,0.1,0,0.4,0,0.4c0.1,0,0.3,0,0.4,0c-0.1,0.1-0.1,0.4-0.3,0.6c1.2,0.3,2.4-0.1,3.5-0.3
		c0.3,1-0.6,1.8-0.7,2.7c0.7-0.3,0.6-1.5,1.5-1.9c-0.4-0.1-0.4-0.6-0.6-0.9c0.1,0,0.3,0,0.4,0c0,0.1,0.1,0.4,0.1,0.6
		c0.1-0.1,0.3-0.3,0.3-0.3v-0.3c0.3,0.1,0.4,0.3,0.7,0.3c0.1-0.1,0.1-0.3,0.3-0.3c0.4,0,0.9-0.1,1.5-0.3c0.1,0.6-0.3,1-0.4,1.5
		c-0.3,0.9-0.9,1.8-1.2,2.8c-0.1,0.4-0.6,0.7-0.6,1.3c0.6-0.3,0.7-1,1.2-1.6c0.6-1.2,0.9-2.5,1.3-3.8c0.3-0.4,1-0.1,1.5-0.1
		c-0.7,1.6-1.6,3.3-2.2,4.9c0.4-0.3,0.6-0.9,0.9-1.3c0.4-0.9,1-1.8,1.2-2.8c0.1-0.3,0.3-0.7,0.6-1c0.4-0.1,0.9-0.3,1.5-0.4
		c-0.3,0.6-0.7,1.2-1,1.8c-0.3,0.9-0.9,1.6-1.3,2.4c0,0.1,0,0.3,0,0.4c0.3-0.3,0.6-0.7,0.9-1c0.6-1.2,1.3-2.4,1.9-3.7
		c0.3,0,0.6,0,0.9,0.1c-0.1,0.7-0.6,1.3-0.9,1.9c0-0.1-0.1-0.3-0.3-0.3l-0.1,0.1c-0.1,0.4,0.1,0.9,0.7,0.7c0.6-0.7,0.9-1.6,1.6-2.2
		c-0.1,0.6-0.6,1.2-0.9,1.8c0,0.1,0.1,0.3,0.1,0.4c0.3-0.1,0.6-0.4,0.7-0.7c0.1,0.1,0.3,0.3,0.3,0.4c0.4-0.3,0.6-0.7,0.9-1.2
		c0.1-0.4,0.4-0.7,0.6-1.2c0.3-0.1,0.6-0.1,1-0.3c-0.1,0.7-0.6,1.5-1,1.9c-0.1,0-0.3-0.1-0.4-0.1c-0.3,0.6,0.4,0.6,0.9,0.4
		c0.6-0.7,0.9-1.5,1.2-2.4c0.1-0.4,0.6-0.3,0.9-0.3c-0.3,0.6-0.7,1.2-1.3,1.6c-0.1,0.3,0.3,0.3,0.6,0.3c0.3-0.3,0.4-0.9,0.9-0.9
		c0,0,0-0.1,0-0.3c0.1-0.3,0.4-0.6,0.4-1h0.1c0.3-0.1,0.6-0.3,0.9-0.4c0.1,0.1,0.3,0.3,0.3,0.3c-0.4,0.6-0.9,1.3-1.5,1.8
		c-0.1,0-0.4,0-0.6,0.1c0,0.1,0,0.3,0,0.4c1.5-0.3,2.1-1.9,2.8-3c0.6-0.1,1.2-0.3,1.8-0.6c1.2-0.4,2.4-0.6,3.4-1
		c0.1-0.1,0.4-0.3,0.6-0.3c1.3-0.3,2.5-1,3.7-1.6c1-0.4,1.8-1.2,2.7-1.6c1.2-0.7,2.4-1.3,3.5-2.1c1.6-0.4,2.8-1.6,4.1-2.7
		c0.1,0,0.3-0.1,0.4-0.1c0.1,0.6,0.7,0.9,1.2,0.9c1.9-0.1,3.8,0,5.8-0.4c0,0.3,0,0.6-0.3,0.9h0.3c0,0.3,0,0.4,0,0.7
		c0.1-0.6,0.1-1.2,0.1-1.6h0.3c0.1,0.3,0.1,0.6,0.1,0.9c0.1-0.1,0.1-0.3,0.3-0.4c0-0.1-0.1-0.3-0.1-0.4c0.4-0.1,1,0,1.5-0.1
		c0,0.7-0.1,1.5-0.4,2.1c0-0.4,0-1-0.1-1.5c-0.1,0.7,0,1.6-0.4,2.4c-0.1,0-0.3,0.1-0.4,0.1c0-0.6,0-1,0-1.6
		c-0.4,0.6-0.3,1.5-0.3,2.2c0,0.1,0,0.4,0,0.6c-0.1,0.4-0.4,0.7-0.7,1c0-0.4,0-0.9,0-1.3c0.3-0.6,0.6-1.3,0.1-2.1
		c-0.9,0.9-0.3,2.4-0.9,3.4c0-0.7,0-1.3,0-2.1c0-0.6,0.1-1.2-0.3-1.6c-0.1,1,0,2.1-0.1,3.1c-0.3,0.3-0.7,0.6-1,1
		c0.1-0.7,0.4-1.5,0.4-2.2c-0.4,0.3-0.7,0.6-0.9,1c-0.1,0-0.4,0.1-0.6,0.1c0.1-0.4,0.4-1,0.4-1.6c-0.7,0.7-1,1.8-1.9,2.5
		c0-0.4,0-0.9-0.1-1.3c-0.3,0.7-0.1,1.6-0.6,2.4c-0.1,0.3-0.6,0.6-0.9,0.9c-0.6,0.4-0.7,1.3-1.5,1.8c0.1-0.6,0.3-1.2,0.6-1.8
		c0.3-0.3,0.7-0.4,0.9-0.9c0.3-0.6,0.6-1.3,1-1.9c0-0.1-0.1-0.3-0.1-0.3c-0.6,0.9-1.2,1.9-1.9,2.7c0-0.3-0.1-0.6-0.1-1
		c-0.1,0.6-0.1,1.3-0.4,1.9c-0.1,0.4-0.6,0.6-0.9,0.9c-0.3,0.4-0.6,0.7-1,1c-0.3,0.4-0.7,0.9-1.2,1.2c0.3,0.3,0.7,0.1,1,0
		c0.3,0.1,0.4,0.3,0.7,0.3c0.3-0.1,0.6-0.3,0.7-0.6c0.7-0.7,1.8-1.3,2.4-2.4c0.1-0.3,0.4-0.7,0.9-0.9c0,0.3-0.1,0.4-0.3,0.7
		c0,0.6-0.1,1.3-0.3,1.9c-0.1,0-0.3,0.1-0.4,0.1c0.1,0,0.3,0.1,0.3,0.3c1.5-0.9,2.8-1.8,4.1-3c0.6-0.7,1.5-1.2,1.9-1.9
		c0.3-0.4,0.9-0.7,1.2-1.3c0.9-0.4,1.3-1.3,2.1-1.9c0.7-0.9,1.6-1.5,2.5-2.4c0.7-0.3,1.2-0.9,1.8-1.3c0.6-0.7,1.5-1.3,2.1-2.1
		c0.9-0.9,1.3-2.1,2.2-3c1.5-2.5,2.8-5.2,4.3-7.7c0.1-0.3,0.3-0.7,0.4-1c1-1.3,1.3-3,1.9-4.6c0.4-1.2,0.9-2.4,1-3.5
		c0.7-2.2,1.2-4.6,1.8-6.9c0-0.9,0.3-1.8,0.4-2.7c0.1-1.9,0.7-3.7,0.6-5.6l0.1,0.1c0.1-1.3,0.4-2.7,0.4-4c0.3-1.5-0.1-3,0-4.6
		c-0.1-2.4-0.3-4.7-0.7-7.1c-0.3-1.2-0.1-2.2,0-3.4c0.1-0.6,0-1.3,0.1-1.9h-0.4c0,0.1,0.1,0.4,0.1,0.6c0,0.6,0,1.2,0,1.6h-0.4
		c-0.1-0.6-0.4-1.2-0.9-1.6c0,0.6,0.3,1.3,0.4,1.9c0.3,0.9,0.3,1.8,0.6,2.7c0.4,2.1,0.7,4.1,0.7,6.1c0.1,1.3,0,2.7,0.1,3.8
		c-0.1,1.8-0.1,3.5-0.4,5.3c-0.1,1.6-0.1,3.3-0.7,4.7c-0.1,2.1-0.6,4.1-1,6.2c-0.4,1.3-0.4,2.7-0.9,4c-0.6,1.5-0.7,3.1-1.5,4.4
		c-0.4,1.5-1,3-1.6,4.3c-0.6,0.6-0.6,1.3-1.2,1.9c-1.2,1.9-2.1,3.8-3.3,5.8c-0.6,1.2-1.6,2.2-2.2,3.3l-0.3,0.3c0-0.3,0-0.7,0-1.2
		c-0.3,0.4,0,1.2-0.4,1.6c-0.6,0.6-1,1.2-1.6,1.8l-0.1-0.1c0-0.9,0.1-1.8-0.1-2.8c-0.3,0.1-0.4,0.3-0.4,0.6c0,0.7,0,1.5,0,2.2
		c-0.1,0-0.3,0-0.4,0c0-0.6,0-1.3,0-1.9c0,0-0.1,0-0.3,0c-0.1,1-0.3,1.9-0.1,3c-0.1,0-0.4,0.1-0.6,0.1c-0.7-0.3-1.5,0.3-2.2,0
		c-0.1-0.4,0.3-1.2,0.1-1.6c-0.3,0.4-0.4,1.2-0.4,1.8c-0.4,0-0.9-0.1-1.2,0.1c-0.7,0-1.6,0-2.4,0.1c-1,0.3-2.2,0.1-3.3,0.1
		c-0.7,0.1-1.8,0.4-2.1-0.3c0-0.6,0.9-0.7,1.2-1.2c0.3-0.1,0.6-0.3,1-0.6c0.6-0.4,1-1.3,1.8-1.5c0,0.1,0.1,0.3,0.1,0.4
		c-0.4,0.6-1,1-1.3,1.6c0.7,0,1.3-0.4,2.1-0.7c0.7-0.1,1.3-0.6,1.9-0.7c0.1-0.3,0.1-0.4,0.1-0.6c0.9,0.1,1.6-0.3,2.5-0.4l-0.3-0.1
		c1-0.3,2.1-0.9,3.1-1.2c0.7-0.7,1.8-1.3,2.5-1.9c0.3,0.4-0.1,0.9-0.1,1.3c0,0.7-0.3,1.5-0.1,2.2l0.3,0.1c0-0.6,0.1-1.2,0.3-1.8
		c0.1,0,0.4,0.1,0.6,0.1c0.4-0.7,0.3-1.8-0.3-2.4c0.9-0.9,1.6-1.9,2.5-2.8c0.4-0.6,1-1,1.3-1.6c0.3-0.4,0.6-0.7,0.7-1.2
		c0-0.4,0.1-1.2,0.6-1.3c0-0.3-0.1-0.6-0.3-0.9l0.3-0.1c-0.1,0-0.3,0-0.6,0.1c0.1,0.3,0.1,0.4,0.3,0.7c-0.9,1.3-1.6,2.7-2.8,3.8
		c-2.7,1.2-5,3-7.7,4c0,0-0.1,0.1-0.1,0.3c0.9,0.1,1.6-0.6,2.4-0.9c1.2-0.6,2.4-1.3,3.5-1.9c0.1-0.1,0.3-0.3,0.6-0.4
		c0,0.1,0,0.4,0,0.6c-1.2,1.5-2.7,2.7-4.1,3.7c-0.6,0.6-1.5,0.9-2.2,1.2c-0.4,0.1-0.9,0.3-1.3,0.4c-0.3-0.3-0.7-0.3-1.2-0.3
		c0.4-0.1,1-0.1,1.5-0.1c0.3,0,0.4-0.1,0.3-0.4c-0.9,0-1.8,0-2.7,0c0.4-0.4,1.3-0.3,1.8-0.4c0-0.1,0.1-0.3,0.1-0.3
		c-0.3-0.1-0.4-0.3-0.7-0.3c0-0.1,0-0.4,0.1-0.6c-0.4-0.1-1-0.4-1.5-0.7c0.1-0.1,0.4-0.3,0.6-0.4c-0.1-0.1-0.3-0.3-0.4-0.4
		c0-0.4,0-1-0.1-1.5c-0.1,0-0.4,0-0.6,0c0,0.4,0,0.9,0,1.3c-0.1,0-0.3-0.1-0.4-0.1c0-0.1-0.1-0.4-0.1-0.6c0-0.1,0-0.4,0-0.6
		c0,0-0.1,0-0.3,0c0,0.4,0,1.3-0.6,0.9c-0.1-0.6,0-1.2,0-1.8c0.3-0.1,0-0.4,0-0.7c-0.3,0.7-0.3,1.6-0.3,2.5c-0.1,0-0.4,0-0.6,0.1
		c-0.1-1,0.3-2.1,0.3-3.3l-0.1,0.1c-0.1,1-0.3,1.9-0.4,3c-0.1-0.6-0.1-1.3-0.1-2.1c0.3-0.7,0.3-1.5,0.4-2.2c-0.3,0.4-0.4,1-0.6,1.5
		c-0.1,0.9,0,1.9-0.1,2.8c0.1,0.1,0.3,0.3,0.4,0.4c-0.1,0.1-0.3,0.3-0.4,0.6c0.3,0.1,0.4,0.3,0.7,0.6c0.3-0.1,0.6-0.1,0.9-0.1
		c0,0.1,0,0.4-0.1,0.6c-0.4,0-1-0.3-1.3,0.1c0.6,0.1,1.3,0.4,2.1,0.6c0,0.1,0.1,0.3,0.1,0.3c-0.6-0.1-1.2-0.4-1.9-0.3
		c0,0.1-0.1,0.1-0.1,0.3c0.7,0.3,1.3,0.6,2.1,0.7c0.4,0,1-0.3,1.3,0.1c-0.6,0-1,0-1.6-0.1v0.3c0.1,0,0.3,0,0.4,0c0,0.1,0,0.4,0,0.6
		c0.4,0.1,1,0.3,1.5,0.1c0.3,0,0.7,0,1.2,0c-0.1,0.1-0.4,0.3-0.6,0.3c-0.9,0-1.9-0.1-2.5,0.6c-0.3-0.1-0.6-0.4-0.7-0.7
		c-0.4,0-0.6-0.4-0.7-0.7c-0.6-0.6-0.9-1.3-1-2.1c-0.3,0-0.6,0-0.9,0.1c0.1-0.3,0.4-0.4,0.7-0.6c-0.3-0.4-0.1-1.2-0.3-1.8
		c-0.3-1.3-0.4-2.8,0-4.3c0-1.2,0.3-2.4,0.6-3.5c0.1-0.6,0.6-1.2,0.7-1.9c0.1-0.1,0.4-0.3,0.6-0.6c0-0.7,0.4-1.3,0.6-2.1
		c0.6-1.5,1-3,1.3-4.4c0-0.9-0.1-1.6-0.1-2.4s-0.4-1.5-0.6-2.2c-0.6-1.3-0.9-2.8-1.8-4.1c-0.3-0.4-0.6-0.9-0.7-1.2
		c-0.3-0.4-0.6-1-0.9-1.3c-0.7-1.3-1.8-2.5-2.5-4c-0.1-0.3-0.3-0.4-0.4-0.6c-0.3-0.4-0.4-0.9-0.9-1.2c0-0.1,0-0.3,0-0.3h-0.1
		c-0.3-0.6-0.6-1.2-1-1.8c-0.3-0.4-0.4-0.9-0.9-1.2c0-0.1-0.1-0.3-0.1-0.4c-0.3-0.3-0.4-0.6-0.7-1c-1.3-1.8-2.7-3.4-4-5.2
		c-0.9-0.9-1.8-1.8-2.5-3c-0.1,0.1-0.3,0.4-0.4,0.6c0-0.1,0-0.3,0-0.4c0.1,0,0.3-0.1,0.4-0.1c-0.1-0.1-0.3-0.4-0.6-0.6
		c-0.4-0.4-0.7-1-1.2-1.3c-0.6-0.7-1.6-1.2-2.1-1.9c-0.4-0.4-1.2-0.9-1.6-1.3c-0.6-0.4-1.3-0.9-1.8-1.5c-0.4-0.3-0.9-0.7-1.3-1.2
		c-0.3-0.1-0.4-0.3-0.7-0.6c-0.1-0.1-0.3-0.3-0.4-0.4c-0.3-0.3-0.6-0.4-0.9-0.6v-0.1h-0.3l0.1-0.1c-0.1-0.1-0.4-0.3-0.6-0.4
		c-0.4-0.4-1-0.7-1.5-1.2c-0.3-0.3-0.7-0.7-1.2-1c-1-1.3-2.8-1.9-4-3.1c-0.3,0-0.6-0.1-0.6-0.4h-0.1v-0.1c-0.4,0-0.6-0.3-0.9-0.4
		c-0.4-0.3-0.9-0.9-1.5-0.7c0-0.1,0-0.3-0.1-0.3l-0.1,0.1c-0.6-0.4-1-0.9-1.6-1.2c-0.4-0.4-1-0.7-1.6-1c-0.1-0.1-0.3-0.1-0.4-0.3
		c-0.6-0.6-1.5-0.9-2.2-1.5c-0.3-0.1-0.7-0.4-1-0.6c-0.7-0.6-1.6-0.7-2.4-1.3s-1.6-0.9-2.5-1.3c-1-0.4-2.1-0.6-3-1
		c-0.9-0.3-1.9-0.3-2.8-0.4c-0.4-0.1-0.9-0.1-1.5-0.3c-0.4-0.1-1.3-0.6-1.5,0c0-0.7-0.9-0.4-1.3-0.3c-0.6,0.1-1.2-0.3-1.8,0
		c-1.3,0.3-3,0.6-3.8,1.8c0.1,0,0.4,0,0.6,0c-0.3,0.1-0.6,0.1-0.7,0.3c-0.3,0.3-0.7,0.6-0.9,0.9c-0.3,0.3-0.6,0.7-0.6,1.2h-0.1
		c0,0.1,0,0.3-0.1,0.3h-0.1c0,0.4-0.3,0.9-0.4,1.2s-0.3,0.6-0.4,0.9c-0.3,0.6-0.4,1.2-0.4,1.8c0.3,1.2-0.1,2.2,0,3.3
		c0.1,0.9,0,1.8,0,2.7c-0.1,0.6-0.1,1.3,0,2.1c-0.3-1.2-0.3-2.5-0.4-3.8c0-0.4,0-0.9-0.3-1.2c0-1.8,0-3.7,0.4-5.5
		c0.4-1.2,1.3-2.4,1.8-3.5c0.6-1,1.3-1.8,2.1-2.7c0.7-0.9,1.6-1.6,2.7-2.1c0.4-0.3,1-0.4,1.5-0.7c0.7-0.3,1.6-0.3,2.4-0.6
		c1-0.6,2.2-0.6,3.4-0.9c0.1-0.7,1.3-0.7,1.8-1.3c0.3,0.1,0.7,0.3,1.2,0.4c-0.1,0-0.3,0.1-0.3,0.4c0.1,0,0.3,0,0.4,0
		c0.1,0.1,0.1,0.3,0.3,0.4c0.3,0,0.4,0,0.7,0c-0.4-0.1-0.9-0.1-0.9-0.7c0.1,0,0.6,0,0.9,0c0.1,0.1,0.3,0.3,0.4,0.4
		c0.4,0,0.9,0,1.2,0l-0.1-0.3c0.3,0,0.4-0.1,0.7-0.1c0-0.1,0.1-0.3,0.1-0.4c0.4-0.4,1-0.9,1.6-1c0.6,0.7,1.5,0.3,2.1-0.1
		c0.6-0.1,1.2-0.3,1.6-0.4c1.6-0.6,3.3-1,4.7-1.8c0.1,0,0.4,0,0.6,0c0.6,0.4,1.6,0.1,2.4,0.1c0.1-0.1,0.3-0.3,0.4-0.6
		c0.6,0,1.2-0.1,1.8-0.1c-0.3,0.7-1,1-1.8,1c-0.4,0.7-1.3,0.7-2.1,1.2h-0.1c-0.6,0.1-1.3,0.1-1.8,0.6c0.1,0,0.4,0.1,0.6,0.3
		c-0.7,0.3-1.5,0.6-2.2,0.7c-0.7,0-1.3,0-2.1,0c0.1-0.3,0.4-0.7,0.6-1c0.4-0.1,1-0.3,1.5-0.4c-0.6,0.1-1.2,0.3-1.8,0.3
		c-0.9,0-1.6,0.6-2.4,1c-1.2,0.3-2.2,0.7-3.4,1c1.2-0.1,2.2-0.4,3.3-0.9c0.1,0.3,0.3,0.6,0.4,1c0.1,0,0.1,0.1,0.3,0.3
		c-0.4,0.3-1,0.4-1.5,0.7c0.1,0,0.6,0.1,0.7,0.1v0.1c0.7-0.4,1.5-0.7,2.4-0.4c-0.6,0.4-1.3,0.4-1.9,0.7c0,0.1-0.1,0.3-0.1,0.4
		c0.3,0,0.7,0,1.2,0c0.1,0.1,0.4,0.4,0.7,0.4c1,0.1,2.1,0.3,3,0.7c0.3,0.1,0.7,0.4,1.2,0.6c1.3,0.4,2.4,1.3,3.5,2.1
		c0.6,0.3,0.9,1,1.6,1.2c0.1-0.3,0-0.6-0.3-0.7c-1.3-1.2-3-2.1-4.6-2.8c-0.1,0-0.1-0.1-0.3-0.3c0.7,0.1,1.5,0.4,2.2,0.3
		c-0.6-0.3-1.5-0.4-2.2-0.6c-0.3-0.4,0.3-0.4,0.4-0.3c0.6-0.1,1.2-0.3,1.6-0.6c-1,0-2.1,0.3-3,0.7c-0.3,0-0.6,0-0.9-0.1
		c0.6-0.4,1.3-0.4,1.9-0.7c-1-0.1-1.9,0.7-3,0.4c0.9-0.9,2.4-0.6,3.3-1.5c-1.2,0.1-2.4,0.7-3.5,1c-0.4,0.1-0.9,0-1.3-0.1
		c0.7-0.6,1.6-0.7,2.5-1.2c1.2,0,2.4-0.6,3.4-1c0,0,0.1,0,0.1-0.1c0.6-0.3,1.2-0.4,1.8-0.7c-0.6,0.7-1.3,1.5-2.2,1.8
		c0.1,0,0.3,0,0.3,0.1c0.1,0,0.6,0,0.7,0c0.6-0.6,1.3-1,2.1-1.5c0.1,0.1,0.1,0.3,0.3,0.4c0.7-0.4,1.6-0.7,2.4-1.2
		c1-0.1,1.8-1.2,2.8-1.3c-0.1-0.1-0.1-0.4-0.3-0.6c0.4-0.1,0.9-0.3,1.3-0.6c0.4-0.3,1-0.3,1.3-0.7c0.9-0.3,1.8-0.4,2.8-0.6l0.6-0.6
		c0.3,0,0.6-0.1,1-0.1c1.2-0.1,2.4-0.3,3.7-0.3c1.8,0,3.4,0,5.2,0.3c0.7,0,1.6,0,2.4,0.1c0.3,0.1,0.7,0.1,1.2,0.1
		c1.3,0.4,2.7,0.6,3.8,1.2c1.8,0.6,3.3,1.5,4.7,2.5c-0.1,0.1-0.3,0.3-0.4,0.4c-0.3-0.3-0.7-0.6-1.2-0.6c-0.1-0.1-0.1-0.3-0.3-0.3
		c-0.6,0-1,0-1.6,0c-0.3-0.1-0.7-0.3-1-0.4c0,0.4-0.1,0.7-0.3,1.2H193l0.1-0.3c-0.4-0.1-0.9-0.4-1.5-0.3c-0.1,0-0.6-0.1-0.7-0.1
		c0.4-0.3,1.3,0.1,1.5-0.4c-1.8-0.1-3.4,0.3-5.2,0.1c-0.9,0.1-1.6,0.4-2.5,0.4l-0.1,0.1c-0.3,0-0.7,0.1-1,0.1
		c-0.7-0.1-1.5,0.3-2.1,0.6c0,0.1-0.1,0.4-0.1,0.6l0.1-0.1c0.9,0.4,1.9,0.9,3,1.2c0.4,0.3,1,0.4,1.6,0.3c-1.2-0.1-2.1-0.9-3.1-1.2
		c0.1-0.1,0.3-0.3,0.4-0.3c0.4,0.1,0.9,0.1,1.3,0.4c1,0.6,2.4,0.9,3.4,1.5c0.4,0.6,0.6,1.3,0.9,2.1c0-0.6,0.1-1.2-0.3-1.5
		c0-0.3,0.1-0.6,0-0.7c-0.3-0.3-0.4-0.6-0.4-0.9c0.1,0,0.4,0.3,0.6,0.3c0.1,0,0.1,0,0.3,0c0.4,0.6,1.2,1.2,1,2.1
		c0.1,0.1,0.3,0.3,0.4,0.4c-0.1-0.1-0.1-0.3-0.3-0.6c0-0.1,0-0.4,0-0.6c-0.3-0.3-0.4-0.6-0.4-1c0.3,0.1,0.6,0.1,0.9,0.3
		c0.1,0.1,0.3,0.3,0.6,0.4c0.1,1,1,1.9,1.2,3c0.1,0,0.3,0,0.3,0c0-1.2-0.7-2.1-1-3.1c0.4,0,0.7,0,1.2,0c0.1,0,0.3,0.1,0.3,0.1
		c0.3,0.1,0.6,0,0.9-0.1c0.3,0.1,0.6,0.1,0.9,0.3c0.4,0.3,0.4,0.9,0.6,1.3c0.3,0.3,0.3,0.7,0.6,1c0-0.3,0-0.7,0-1
		c-0.1,0-0.3-0.1-0.3-0.3c-0.1-0.6-0.3-1.2-0.4-1.8c0.4,0.3,0.4,0.9,0.7,1.2c0.4,0.4,0.1,1,0.6,1.3c0.4,0.4,0.3,1,0.6,1.6
		c0-0.1,0-0.4,0-0.4c0.3,0.1,0.6,0.4,0.9,0.7c0.3-0.4,0.1-0.9,0-1.3c0.1,0,0.4,0,0.6-0.1c0.7,0.3,1.6,0.4,2.4,0.4c0-0.1,0-0.3,0-0.4
		c-0.7,0.3-1.5-0.3-2.2-0.3c0-0.3-0.1-0.6-0.1-1c0.6,0.3,1.2,0.3,1.8,0.4c0,0.3,0,0.4,0.4,0.4c0-0.4-0.1-1-0.3-1.5h-0.1
		c-0.1-0.3-0.4-0.6-0.6-0.9c0.4,0,0.7,0.3,1,0.4c0,0.1,0,0.4,0,0.6c0.3,0.1,0.6,0.3,0.9,0.4c0,0.6,0.6,0.7,0.9,1.2
		c-0.1-0.3-0.1-0.4-0.1-0.7c0.3-0.1,0.4-0.3,0.7-0.3c1,0.9,2.2,1.6,3.3,2.5c1,0.9,2.2,1.5,3.1,2.5c1.5,1.2,2.5,2.8,3.8,4.1
		c0.7,1,1.8,1.9,2.2,3.3c-0.9-0.4-1.6-1.3-2.7-1.8h-0.3v-0.3c-0.1,0-0.3,0-0.4,0.1v-0.3c-0.7-0.1-1.3-0.7-2.1-0.7
		c-0.3-0.1-0.6-0.1-1-0.3c-0.4-0.1-1.2,0.1-1.3-0.4c-0.6,0-1,0-1.6,0v-0.3c-0.6,0-1.2,0-1.6,0c-0.9-0.1-1.8,0.3-2.7,0.1
		c-0.9,0.1-1.6,0.3-2.4,0.4v-0.3c0,0-0.1,0-0.3,0c-0.1,0.1-0.4,0.4-0.6,0.6c1.6-0.4,3.3-0.1,4.7-0.3c0.4,0.1,0.9,0,1.3,0
		c0.7,0,1.5,0,2.2,0.1c0.7,0,1.5,0.3,2.2,0.3c0.3,0.3,0.9,0.4,1.3,0.4c0.6,0.3,1,0.4,1.6,0.6v0.4c0.1,0,0.3,0,0.4,0v0.3
		c0.3,0.1,0.7,0.3,0.9,0.6c0.7,0.1,1.2,0.7,1.8,1.2c0.9,0.7,1.9,1.3,2.5,2.5c1.3,1.6,2.8,3.1,3.5,5.2c0.3,0.6,0.6,1.3,0.9,1.9
		c0.3,0.9,1,1.8,0.9,2.8h0.1c0-0.3,0-0.6-0.1-0.9c-0.3-0.3,0-0.9-0.4-1.2c0-0.3-0.1-0.4-0.1-0.7c-0.3-0.7-0.7-1.3-1-2.2
		c-0.3-0.4-0.4-1-0.7-1.5c-0.3-0.6-0.7-1-1-1.5c-1.3-1.5-2.4-3.1-4-4.3c0-0.7-0.4-1.5-0.9-2.1c-0.7-0.9-1.3-1.8-2.1-2.7
		c-1.6-1.8-3.1-3.5-5-5c-1.9-1.6-4-3.1-5.9-4.6c-0.7-0.9-1.8-1.6-2.7-2.4c-1.6-1.5-3.5-2.7-5.6-3.5c-0.9-0.1-1.5-0.7-2.4-0.7
		c-0.9-0.3-1.8-0.6-2.8-0.6c-1.2-0.4-2.4,0-3.5-0.3c-1.3,0-2.8-0.3-4.1-0.3c-1-0.1-2.2-0.1-3.3-0.3c-0.6-0.3-1.2,0.3-1.8-0.1v0.4
		c-0.1-0.1-0.1-0.4-0.4-0.6c-0.7,0-1.6-0.1-2.4,0c-0.7-0.3-1.6-0.1-2.4-0.1h-0.1l-0.1,0.1c-0.9,0-1.6,0-2.4,0.1
		c-0.6,0.1-1.3,0-1.9,0.4c-0.4-0.1-1,0-1.5,0.1c-0.9,0-1.8,0.3-2.8,0.3c-0.4,0-0.9-0.1-1.2,0.3c-0.9,0.1-1.6,0.3-2.5,0.4
		c-1.2-0.1-2.5,0.3-3.7,0.3c-0.3,0-0.4,0.1-0.7,0.3c-1,0.1-2.1,0.6-3.1,1.2c-0.1,0-0.4,0.1-0.6,0.3c-0.7,0.6-1.6,1-2.4,1.6
		c-1,0.7-2.2,1.3-3.3,1.9c-0.9,0.3-1.8,0.1-2.5,0.6c-0.9,0.4-1.9,0.6-2.8,0.9c-0.6,0.3-1.2,0.6-1.8,0.9c-0.4,0.3-0.7,0.6-1.3,0.9
		c-1,0.7-1.8,1.8-2.5,2.7c-1,1-1.3,2.5-2.2,3.7c-0.6,0.7-0.6,1.8-0.9,2.7c-0.1,1.5-0.1,3,0.1,4.3c0,0.9,0,1.8,0.1,2.5
		c0.1,1.2,0.4,2.5,0.3,3.7l-0.1,0.1c0,2.2-1.3,4.1-1.8,6.2c-0.3,0.1-0.1,0.6-0.3,0.9c-0.4,1-0.7,1.9-1.2,3c0,0.1-0.1,0.3-0.1,0.4
		c-0.3,0.7-0.1,1.6-0.3,2.4c-0.1,0.7,0,1.6,0.1,2.4c0.1,0.7,0.1,1.5,0.4,2.2c0.3,1,0.4,2.1,1.2,2.8c0,0.3,0.1,0.4,0.3,0.6
		c0,0.3-0.3,0.4-0.4,0.7c-1,1-2.1,2.1-3,3.3c-0.3,0.4-0.6,1-1.3,0.9l-0.1-0.3c-0.1,0-0.3,0-0.3,0c-0.1-0.1-0.3-0.3-0.4-0.3
		c-0.6,0.6-1.2,1.2-1.6,1.9c-0.3,0.7-0.6,1.5-1.2,2.1c0,0.1,0,0.3,0,0.3c-0.4,0.3-0.4,0.9-0.7,1.3c-0.1,0.1-0.4,0.3-0.4,0.6
		c0,0.7,0.4,1.5,0.6,2.1c0.1,0.7,0.7,1.5,0.4,2.2c-0.3,1-0.4,2.1-0.6,3.1c-0.3,1-0.3,2.1-0.3,3.3c-0.1,0.3-0.4,0.4-0.6,0.6
		c0,0.6,0,1.2-0.1,1.8c-0.3,0-0.6,0-0.9,0.1c-0.3,0.1-0.6,0.1-0.9,0.3l-0.1,0.1c-0.4-0.1-0.9,0-1.2,0.1c-0.7,0-1.5,0.3-1.8,0.9
		C114,91.9,114,92.3,114.3,92.6z M187.9,23.3c-0.4,0-0.9-0.3-1.2-0.4c-0.9-0.3-1.8-0.6-2.5-0.9c-0.3-0.1-0.4-0.4-0.6-0.7
		c0.4,0,0.9-0.1,1.3-0.3c0.3,0.1,0.4,0.3,0.6,0.4c0.3,0.1,0.6,0.3,0.9,0.4C187.2,22.1,187.5,22.7,187.9,23.3z M192.2,22.7
		c0.3,0.1,0.4,0.1,0.7,0.3c0.1,0,0.3-0.1,0.3-0.1c0.6,0.1,1,0.4,1.5,0.7l-0.3,0.3c-0.3,0-0.6-0.1-0.9-0.3
		C193.1,23.4,192.4,23.3,192.2,22.7z M197.4,23.3c-0.6,0-0.9-0.3-1.3-0.7c-0.4,0.6,0.6,1,0.3,1.5c-0.1-0.4-0.3-0.9-0.7-1.2
		c-0.3-0.3-0.6,0-0.9,0c-0.4-0.3-1.2-0.3-1.6-0.6c-0.3-0.1-0.6-0.3-0.9-0.4c0.1,0.3,0.1,0.4,0.1,0.7c-1.2,0-2.2-0.4-3.3-0.9l0.3-0.3
		c0.9,0,1.6,0.4,2.5,0.7c-0.1-0.3-0.3-0.6-0.4-0.7c0.9,0.1,1.9,0.1,2.8,0.6c-0.1-0.3-0.1-0.4-0.3-0.7c0.4,0,0.7,0,1.2,0.1
		c-0.1,0-0.4,0.3-0.6,0.3c0.4,0.6,1.2,0.3,1.8,0.4C197,22.3,197.4,22.7,197.4,23.3z M170.2,16.8c-0.1,0-0.3,0.1-0.4,0.1
		s-0.4,0-0.6,0.1c-0.3,0.1-0.7,0.1-1.2,0.1c0.1-0.1,0.1-0.3,0.3-0.4c1.2-0.1,2.2-0.6,3.3-0.7c0.3,0,0.7-0.1,1-0.3
		c0.6,0,1.2,0.1,1.8,0.1c0.1,0.1,0.3,0.3,0.4,0.4c-0.9,0.1-1.9,0.1-2.8,0.1c-0.3,0-0.6,0.1-0.9,0.3
		C170.8,16.6,170.5,16.6,170.2,16.8z M167.1,19.9c0.3-0.1,0.6-0.3,0.9-0.4c0.1-0.1,0.4-0.3,0.6-0.6c-0.1,0-0.3,0-0.4,0
		c0.1-0.3,0.3-0.4,0.3-0.7c0.6,0,0.3,0.4,0.3,0.9c0.3-0.3,0.4-0.4,0.6-0.7c0.3-0.1,0.4-0.3,0.7-0.3c0-0.1-0.1-0.3-0.1-0.4
		c0.1,0,0.3,0,0.4,0.1c0.1,0.3,0.1,0.6,0.3,1c-1.5,0.9-3,1.6-4.4,2.4c-0.4,0.1-0.9,0.4-1.2,0.7v-0.3
		C165.6,20.6,166.3,20.3,167.1,19.9z M153.5,18.7c-0.1,0-0.4,0.1-0.6,0.1c0.1,0.1,0.3,0.3,0.4,0.4c-0.1-0.1-0.4-0.1-0.6-0.3
		c-0.3,0.1-0.6,0.3-1,0.3C152,18.7,152.9,18.9,153.5,18.7z M162.5,18.1c0.3,0,0.4-0.1,0.7-0.3c0.3,0,0.6,0,0.9,0
		c0,0.1,0.1,0.3,0.1,0.3C163.7,18.4,162.8,18.9,162.5,18.1z M154.5,20c0.1-0.6,0.9-0.7,1.3-1c0-0.4,0.1-0.7,0.6-0.9
		c-0.1,0.3-0.1,0.6-0.3,0.7c0.6,0,1-0.3,1.3-0.7h0.1c0.4,0,0.7-0.3,0.9-0.6c0.7-0.1,1.5-0.3,2.2-0.4c0.9-0.1,1.8-0.1,2.7-0.3
		c0.1,0,0.6,0.1,0.7,0.1c-0.3,0.1-0.6,0.3-0.9,0.3c-0.1,0-0.3,0.1-0.4,0.1c-0.6,0.1-1.2,0.4-1.9,0.6c-1,0.1-1.9,0.6-3,0.9
		c-0.4,0-0.7,0.3-1.2,0.4C156.1,19.5,155.4,19.9,154.5,20z M150.5,21.2c-0.1-0.3,0.1-0.4,0.3-0.7c0.6,0,1-0.3,1.5-0.6
		c0.7-0.3,1.3-0.7,2.1-0.9c-0.1-0.3-0.7-0.9-0.1-1c0.7-0.1,1.5-0.3,2.2-0.3c-0.3,0.1-0.6,0.4-0.9,0.7c0,0.1,0,0.4,0,0.4h-0.1
		c-0.9,0.7-2.1,0.9-3.1,1.6C151.7,20.9,151.1,21.7,150.5,21.2z M148.3,22.3c0.4-0.9,1.5-0.6,2.2-0.9c0.4,0,0.4,0.3,0.3,0.7
		c-0.6-0.1-1.3,0-1.9,0.1C148.6,22.3,148.3,22.3,148.3,22.3z M201.4,103.6c-0.1-0.3-0.1-0.4,0-0.7c0.6,0.4,1.3,0.4,1.9,0.7
		c-0.1,0-0.6,0.1-0.7,0.1c0.1,0.1,0.4,0.1,0.6,0.3c-0.1,0.1-0.1,0.4-0.3,0.6c-0.1-0.3-0.1-0.6-0.3-1
		C202.1,103.6,201.8,103.6,201.4,103.6z M201.1,107c0.3-0.1,0.6-0.1,1-0.1c-0.9,0.4-1.9,0.9-3,1.3
		C199.5,107.4,200.4,107.4,201.1,107z M197.4,116.3c0,0.6-0.4,1.2-0.1,1.8c0,0.4-0.1,0.9-0.1,1.3c-0.1,0.1-0.3,0.3-0.6,0.6
		c-0.1,0-0.3-0.1-0.3-0.1c0.1-0.7,0.4-1.3,0.7-2.1c0-0.1-0.1-0.3-0.3-0.3C197,117,197.1,116.6,197.4,116.3z M204.6,111.8
		c-0.1-0.4-0.1-1-0.1-1.5c0.1,0,0.6,0,0.9-0.1c0,0.1,0,0.3,0,0.4v0.1c0,0,0.1,0.1,0.1,0.3c0-0.3,0-0.6,0.1-0.9
		c0.6-0.1,1.3-0.1,1.9-0.1c-0.3,0.4-0.7,0.9-1.3,1.2c-0.9,0.6-1.3,1.3-2.1,1.9C204,112.7,204.5,112.3,204.6,111.8z M151.9,127.8
		c0.1-0.1,0.1-0.4,0.3-0.6c0.3-0.4,0.4-1,0.6-1.5h0.1c0,0.1-0.1,0.3-0.1,0.6c0.1,0.3,0.1,0.4,0.3,0.7c-0.1,1-0.6,1.9-0.7,2.8
		C152.2,129.1,151.9,128.6,151.9,127.8z M152,124.7c0.1,0.1,0.3,0.3,0.6,0.4c-0.1,0.6-0.4,1.2-0.7,1.6c-0.3,0.4-0.4,1-0.7,1.5
		c-0.1-0.4,0-0.9,0-1.3C151.4,126.2,151.7,125.4,152,124.7z M118,95.4c-0.1,0-0.3,0.1-0.4,0.1c0-0.4-0.1-0.7-0.3-1.2
		c0-0.6-0.1-1.3,0.1-1.8v0.3l0.6-0.1c0,0.3-0.1,0.4-0.1,0.7C117.7,94.3,118.3,94.8,118,95.4z M124.1,71.5c-0.1,0.4-0.3,0.9-0.4,1.2
		c-0.4,1.2-1.2,2.2-1.6,3.3c-0.1,0.1-0.3,0.3-0.4,0.4c-0.3-0.1-0.6-0.1-1-0.3c0-0.1,0-0.3-0.1-0.4c0.4-0.6,0.7-1.3,1.2-2.1
		c0.6-0.9,1-1.8,1.8-2.5c0.1,0,0.4-0.1,0.6-0.1C123.9,71.2,124.1,71.3,124.1,71.5z M124.2,73.3c-0.4,1.2-1.2,2.2-1.6,3.4
		c-0.1,0.3-0.1,0.6-0.3,1c0,0.1-0.1,0.3-0.3,0.3c0-0.3,0-0.6,0.1-0.9c0.3-1.3,1-2.7,1.6-3.8H124.2z M128.9,64.4
		c0.3,0.1,0.6,0.3,0.9,0.6c0.1,0.3,0.3,0.4,0.3,0.7c-0.3-0.1-0.6-0.4-0.9-0.6C129.2,64.8,129.1,64.5,128.9,64.4z M129.8,55.8
		c-0.1-0.3-0.3-0.7-0.1-1c0.3-1,0.6-1.9,0.9-3l0.1,0.1c0,0.1,0,0.3,0,0.4c0,0.1-0.1,0.3-0.3,0.3c0,0.1-0.1,0.3-0.1,0.3
		C130.1,54,130,54.9,129.8,55.8z M131.2,47.4c-0.1,0.9-0.3,1.9-0.6,2.8c-0.3,0.7-0.4,1.6-0.7,2.4c-0.3,0.9-0.7,1.6-0.9,2.5l-0.1,0.3
		c-0.3,0.9-0.6,1.8-0.6,2.7c-0.1,1.2,0,2.4-0.4,3.4c-0.1-0.9-0.3-1.8-0.3-2.7c0-1.8,0.6-3.4,1.2-5c0.6-1.6,1.2-3.3,1.8-4.9
		C130.6,48.3,130.9,47.8,131.2,47.4z M135.3,38.2c-0.1,0.3-0.3,0.4-0.6,0.6c0,0.1-0.1,0.3-0.1,0.3s0,0.1-0.1,0.1
		c-1,0-1.6,0.9-2.1,1.6c-0.1,0.4,0.1,0.9,0.1,1.3c0,0.7-0.1,1.5,0.1,2.2c0.1,0.3,0.1,0.7-0.1,1c0.1,0.1,0.3,0.3,0.3,0.4
		c-0.1,0-0.3,0-0.4,0l0.1-0.1c-0.1,0-0.4,0-0.4,0c0-0.6-0.1-1-0.1-1.6c0-0.7,0-1.6,0-2.4c0-1,0.4-2.1,1.2-2.8
		C133.8,38.8,134.4,38.2,135.3,38.2z M130.6,88.9c0.3-0.1,0.7-0.3,1.2-0.3c0,0.1,0.1,0.3,0.1,0.3c-0.1,0.1-0.3,0.1-0.3,0.3
		c-0.3,0.3-0.6,0.4-1,0.7C130.7,89.7,130.7,89.2,130.6,88.9z M130.9,91.4c0,0.9,0.4,1.8,0.7,2.7c-0.1,0-0.3,0.1-0.4,0.1
		c-0.3-0.6-0.6-1.2-1-1.6C130.4,92.2,130.7,91.9,130.9,91.4z M135.3,94.3c0.3-0.7,1.3-0.7,2.1-0.6l0.1,0.1c0.1,0.1,0.3,0.3,0.6,0.4
		c0.1,0.3,0.4,0.4,0.6,0.7c0.3,0.9,0.4,1.8,0.3,2.7c0,0.3,0,0.4-0.1,0.6c-0.4,0.6-0.9,1.5-1.8,1.3c0.1-0.6,0.3-1.2,0.3-1.8
		C137.5,96.5,136.8,94.8,135.3,94.3z M138.4,106.5c-0.1,0-0.3,0.1-0.4,0.1c0.6-0.4-0.1-1.3,0.1-1.9c0.4,0.1,0.6,0.7,0.7,1.2
		c0.1-0.3,0.1-0.6,0.1-1c0.1,0,0.3-0.1,0.3-0.1c0.7-0.9-0.1-1.9-0.6-2.5c0.1-0.1,0.1-0.4,0.3-0.6c0.1-0.1,0.3-0.4,0.3-0.6
		c0.3,0.4,0.1,1.3,0.9,1.3c0-0.6,0.1-1.2,0.3-1.8c0.3,0.1,0.4,0.1,0.7,0.1c0.3,0.7,1,1.2,1.8,1.3c0.1-0.3,0.3-0.6,0.3-1
		c0.9,0.3,1.6,0.6,2.4,1.2c0.6,0.4,1.3,0.6,1.6,1.2c-0.3,1.3,0.3,2.8,1.3,3.7c-0.1,0-0.6,0.1-0.7,0.3c0.1,0.6,0.4,1.2,0.6,1.8
		c0.1,0.4,0.3,0.9,0.3,1.3c-0.1-0.1-0.1-0.3-0.3-0.4c-0.4-0.7-0.4-1.8-1.2-2.5c0,0.9,0.6,1.6,0.6,2.7c-0.7-1-1-2.4-1.5-3.5
		c-0.1,0-0.3,0.1-0.4,0.1c0.1,0.6,0.6,1.2,0.1,1.6c-0.1-0.3-0.3-0.6-0.6-0.9c0.1,0.3,0.3,0.6,0.3,0.9c0.1,0.4,0.4,1,0.6,1.6
		c0,0.1,0,0.3,0,0.4c0.1,0.1,0.3,0.4,0.3,0.7c-0.1,0-0.4,0-0.6,0c-0.3-0.9-0.3-1.8-0.9-2.5c-0.1,0-0.3,0-0.4-0.1
		c0-0.1,0.1-0.4,0.1-0.6c0.1-0.4,0-1-0.1-1.5c-0.1,0.1-0.4,0.3-0.6,0.4c0-0.4-0.1-0.9-0.1-1.3c-0.1,0-0.3-0.1-0.4-0.1
		c0,0.4,0,1,0.1,1.5c-0.1,0-0.1,0-0.3,0c0-0.3,0-0.7-0.1-1c-0.1,0-0.4-0.1-0.6-0.1c-0.1-0.3-0.1-0.7-0.4-1c0,0.4-0.1,0.9-0.1,1.3
		c-0.1,0-0.3-0.1-0.3-0.1s-0.1,0-0.3,0.1c-0.1-0.3-0.1-0.7,0.1-0.9c0-0.1,0-0.3,0-0.4c-0.3,0-0.4,0-0.7,0.1c0,0-0.1,0-0.3,0
		c0,1.5,0.1,3,0.3,4.3c-0.1,0-0.3,0-0.3,0s-0.1,0-0.3,0c0.3-1.2-0.6-2.2-0.1-3.3c0.1-0.7-0.1-1.5-0.1-2.1h-0.1
		c0.1,0.4,0.3,0.7,0.3,1.2c0,0.7-0.4,1.6-0.1,2.4c0,0.6,0,1,0,1.6c-0.6-0.4-0.4-1.3-0.6-2.1c-0.1-0.3-0.1-0.4-0.3-0.7
		c-0.1,0.4-0.1,0.7-0.1,1.2c0.1,0.4,0.1,0.9,0.1,1.2c-0.3-0.1-0.4-0.3-0.4-0.6c-0.3-0.1-0.7-0.3-1-0.4
		C138.3,107,138.3,106.8,138.4,106.5z M144.9,109.8C144.8,109.8,144.8,109.6,144.9,109.8c-0.1-0.1-0.1-0.1-0.1-0.1
		c0-0.3,0.6-0.4,0.6,0C145.2,109.6,144.9,109.8,144.9,109.8z M145.5,109.8c0.1,0.3,0.3,0.7,0.4,1.2c-0.1,0-0.3,0-0.4,0
		C144.9,110.5,145.1,110.1,145.5,109.8z M150.1,101.8c-0.4,0-0.9,0-1.3,0v-0.1c0.3-0.4,0.7-0.7,1.2-1c1.2-0.3,2.5,0,3.5,0.7
		c0.4,0.4,0.7,0.9,1.2,1.2c-0.3,0.4-0.7,0.9-1,1.3c-0.1,0-0.3,0-0.3,0.1c0-0.1-0.1-0.3-0.1-0.4c-0.1-0.3-0.4-0.4-0.7-0.6
		c0-0.1-0.1-0.3-0.1-0.4l-0.3-0.3c0,0-0.1,0-0.1-0.1C151.1,102.1,150.5,101.9,150.1,101.8c0,0.1,0,0.6,0,0.7c0.3,0,0.6-0.1,0.9-0.1
		c0,0.1,0,0.4,0,0.6c-0.1-0.1-0.3-0.3-0.4-0.3s-0.3,0-0.4,0C150.1,102.4,150.1,102.1,150.1,101.8z M157,110.5L157,110.5
		c-0.4-0.1-0.4-0.3-0.1-0.4c0.1,0.1,0.1,0.1,0.3,0.3L157,110.5z M157.8,111.4c-0.1,0-0.4,0.1-0.6,0.3H157
		C157,111.3,157.6,111.1,157.8,111.4z M153.6,104.6c0.3-0.6,0.9-1.2,1.3-1.6c1,0.3,1.9,0.7,3,1c1.2,0.3,2.2,0.6,3.1,1.2
		c-0.6,0.7-1.2,1.5-1.6,2.5c0.1,0.1,0.3,0.3,0.3,0.3c0.3-0.7,0.6-1.5,1.3-2.1c0.1,0,0.4,0,0.6,0c0,0.1,0,0.4,0,0.6
		c-0.3,0.1-0.4,0.3-0.7,0.4c-0.4,0.3-0.7,0.6-0.9,1.2c0,0.4,0.3,0.9,0.4,1.3c0,0.6,0.1,1,0.1,1.6c-0.1,0-0.3,0-0.6,0
		c0-0.3,0-0.7,0-1c-0.3,0-0.4,0-0.7,0.1c0.3,0.1,0.6,0.3,0.7,0.4c0,0.4-0.4,0.4-0.7,0.4c-0.1-0.1-0.3-0.3-0.4-0.4
		c-0.1-0.7,0-1.5,0.3-2.1c-0.1-0.1-0.1-0.3-0.3-0.4c-0.1,0.3-0.3,0.6-0.4,0.9c0-0.4,0.1-1,0.1-1.5
		C157.3,106.2,155.6,105.2,153.6,104.6z M162.2,110.7l0.1,0.1c-0.1,0-0.6,0-0.7,0c0,0.3,0,0.4,0,0.7c-0.6,0.1-1,0.4-1.5,0.7
		c-0.1,0-0.4,0.1-0.6,0.1c0.1-0.1,0.3-0.3,0.3-0.4c0.4-0.3,1-0.6,1.5-0.3c0-0.4,0-1,0-1.5c1.5,0.3,2.5-1,3.7-1.6
		c0.9-0.4,1.6-1.3,2.5-1.9c-1.3,0.6-2.2,1.9-3.7,2.2c-0.3-0.3-0.6-0.7-0.9-1.2c-0.6,0.4,0.1,1.2-0.3,1.8c-0.4,0-1.3,0.3-1.5-0.4
		s0.9-1,1-1.8c-0.6,0.1-0.9,0.7-1.3,1.2c-0.3-0.6,0.1-1.2,0.6-1.3c0.1-0.1,0.4-0.1,0.6-0.3c0.3-0.4,0-0.9,0-1.3c0.3,0,0.7,0,1.2,0
		c0,0.4,0.1,0.9,0.3,1.3c-0.3,0-0.6,0-0.9,0c0,0.1,0,0.3,0,0.4c0.4-0.1,0.7-0.1,1.2-0.3c0.1-0.3,0.1-0.6,0.3-0.9
		c0.4-0.3,1-0.4,1.3-0.9c0.9-0.3,1.8-0.3,2.7-0.3c0.7,0.1,1.3-0.3,2.1-0.7c0,0.1,0,0.3,0.1,0.3c0.1-0.3,0.1-0.6,0.4-0.9
		c0.3-0.3,0.7-0.1,1-0.3c0-0.3,0-0.7,0-1c0.1,0.1,0.3,0.3,0.3,0.4c0,0.3,0,0.7,0.1,1.2c-0.1,0.1-0.1,0.3-0.3,0.3
		c0.3-0.3,0.6-0.6,0.9-0.9c0.3,0.3,0.6,0.4,0.9,0.7c0.3,0.3,0.4,0.6,0.4,0.9c-0.9,0-1.8-0.1-2.7,0c-0.4,0.1-0.9,0.6-1.2,0.9
		c-0.6,0.7-1.5,1.2-2.1,1.9c-1.3,0.9-2.7,1.6-3.8,2.4c-0.1,0-0.3,0.1-0.4,0.1c-0.1-0.3,0.3-0.4,0.4-0.6c1.3-0.7,2.4-1.8,3.5-2.7
		c-1.3,0.6-2.2,1.6-3.5,2.2C163.7,109.8,163.1,110.5,162.2,110.7z M171.1,107.4v0.3c-0.1,0.1-0.1,0.3-0.3,0.3l-0.1,0.1V108
		c-0.3,0-0.6,0-0.7,0.3c-0.1,0.1-0.3,0.3-0.6,0.4c-0.4,0.3-0.9,0.4-1.3,0.6l-0.3-0.1c0.4-0.3,0.9-0.6,1.3-0.9
		c0.6-0.4,1.3-0.7,1.9-1.3c-0.1,0-0.4,0-0.6-0.1c0.1-0.1,0.3-0.3,0.4-0.4s0.3-0.3,0.4-0.4c0.1-0.3,0.3-0.7,0.9-0.7
		c0.9,0,2.1-0.3,2.5,0.6c0.1,0.4,0.1,1-0.6,0.9c0.3-0.4,0.1-0.7-0.1-1c-0.1,0-0.3,0-0.4,0c-0.1,0.1-0.3,0.4-0.6,0.6
		c-0.1,0-0.6,0-0.7,0c-0.1-0.3-0.3-0.4-0.3-0.7c-0.1,0.1-0.4,0.3-0.6,0.3c0,0.3,0,0.7,0.3,0.9l-0.1,0.1c0,0-0.1-0.1-0.3-0.3
		C171.1,107.1,171.1,107.3,171.1,107.4z M174.6,105.6c-0.1-0.4,0.1-0.6,0.6-0.4c0.1,0.1,0.3,0.1,0.4,0.3
		C175.4,105.5,174.9,106.1,174.6,105.6z M173.7,103.3c-0.1-0.1-0.3-0.1-0.4-0.3c1.2-0.9,2.4-1.8,3.1-3c1.9-2.7,3.5-5.6,4.7-8.6
		c0.6-1.3,1.2-2.7,1.5-4.1c0.3-0.4,0.1-1.2,0.6-1.6c0.1,0.3,0,0.7,0,1c-0.7,3.7-2.5,7.1-4,10.5l-0.1,0.1c-0.6,1-1.3,1.9-2.1,2.8
		C176.4,101.6,174.9,102.4,173.7,103.3z M181.3,104c-0.4,0-0.4,0.4-0.6,0.6c-0.1-0.3-0.3-0.6-0.4-0.7c-0.1,0.3-0.3,0.6-0.4,0.9
		c-0.3,0.3-0.7,0.6-1.2,0.9h-0.1c-0.6,0-1.2,0-1.8,0c0.7-2.7,1.9-5.3,3.5-7.7c1.2-1.8,2.7-3.4,4.4-4.7c0,0.1,0,0.4,0,0.6
		c-0.1,0.4-0.1,0.9-0.1,1.5c0,1.3-0.6,2.5-0.4,3.7v0.3c-0.1,0.6-0.1,1.2-0.6,1.5c-0.1,0.4-0.1,0.7-0.4,1.2c-0.6,0.9-0.9,1.9-1.3,2.8
		c1-0.3,1-1.5,1.6-2.2c0.4,0.6,0,1.5-0.1,2.1c-1,0.4-1.9,1-3,1.5c0-0.1-0.1-0.3-0.3-0.3c0.1-0.1,0.4-0.3,0.6-0.4
		C180.8,105.2,181.6,104.8,181.3,104z M183.6,91.6c0-0.3-0.1-0.6-0.1-1c-0.1-0.6-0.1-1.2-0.1-1.9c0.1-0.4,0.3-0.9,0.4-1.3
		c0.1,0.6,0.1,1.3,0.3,1.9C184.1,90.1,184.1,90.9,183.6,91.6z M182.5,93.7c-0.9,1-1.5,2.2-2.4,3.3c0.1-0.4,0.3-1,0.6-1.5
		c0.9-1.6,1.3-3.3,2.1-4.9c0,0.7,0.1,1.3,0.3,2.1C183.2,92.9,182.8,93.4,182.5,93.7z M177.9,75c-0.9-1.5-1.3-3.1-2.2-4.4
		c-0.1-0.3-0.9-1-0.1-1.2c1.6,2.7,3.7,5,5.3,7.8c0.6,0.9,0.7,2.1,1.3,3c0.4,1,0.6,2.2,0.7,3.4c-0.7-0.3-0.4-1.2-0.9-1.8
		c-0.4-0.6-0.4-1.3-0.7-2.1c0.1,1.5,0.4,3,0.4,4.4c-0.1,0-0.3,0.1-0.4,0.1c0.1,1,0.4,1.9,0.3,3c0,0-0.1,0.1-0.1,0.3
		c-0.1,0.3-0.3,0.7-0.3,1.2c-0.1-0.3-0.4-0.7-0.3-1c0.3-1,0.3-2.1-0.3-3.1c-0.3,0.9,0.3,1.8,0.1,2.7c-0.3-0.6-0.4-1.2-0.6-1.8
		c-0.3,0.7-0.3,1.5,0.1,2.2l0.1,0.1c0,0.1,0,0.3,0.1,0.4c0,0.1-0.1,0.4-0.1,0.7c-0.3-0.7-0.3-1.5-1-2.1c0,0.6,0.3,1.2,0.4,1.8
		c-0.3-0.1-0.6-0.4-0.9-0.6c0,0.4,0.1,1,0.6,1.2c0.3,0.7,0.3,1.5,0.4,2.4c0,0.1,0,0.3,0,0.4c-0.3,0.4-0.4,0.9-0.6,1.3
		c-0.1,0.1-0.3,0.3-0.3,0.4c-0.1,0.3-0.3,0.7-0.6,0.9c0-1.3,0-2.7,0-4c-0.1-0.7-0.6-1.6-1.3-1.9c0.4,0.6,0.9,1.2,0.9,1.9
		c0.3,1.6,0.1,3.1,0.1,4.7l-0.1,0.1l-0.1,0.1c-0.1,0-0.4,0.1-0.6,0.1c-0.1-0.3-0.1-0.4-0.1-0.7c0,0.4,0,1-0.3,1.5c0-0.6,0-1.2,0-1.8
		c0.1-0.6,0.1-1,0.1-1.6c0.1,0,0.4,0,0.6,0c-0.1-0.9-0.1-1.8-0.6-2.5c-0.3-0.6-0.6-1.2-1.2-1.8c0,0,0,0.1,0,0.3
		c0.1,0.3,0.3,0.4,0.4,0.7c-0.1,0.3-0.4,0.7-0.6,1c0-0.7-0.1-1.3-0.4-2.1c-0.1-0.3-0.4-0.7-0.6-0.1c0.1,1,0.6,1.9,0.6,3
		c0,0.6,0.3,1.2,0.3,1.8c0.1,0,0.4,0,0.6,0.1c0,0.4,0,0.9,0,1.3c0,0.7-0.1,1.3-0.3,2.1c-0.1-0.3-0.1-0.6-0.3-0.9c0-1,0-2.2-0.7-3.1
		c-0.3-1.2-0.1-2.4-0.7-3.4c-0.4,0.6,0,1.3,0,1.9c0.3,1.2,0.1,2.4,0.3,3.4v0.3c-0.3-1-0.1-2.1-0.6-3.1c-0.1,1.3,0.1,2.7-0.1,3.8
		c0.1,0,0.4,0.1,0.6,0.1c-0.1,1-0.1,2.2-0.1,3.3c-0.1,0.1-0.4,0.4-0.6,0.6c0,0.3-0.1,0.4-0.1,0.7c-0.3,0.4-0.7,0.7-1.2,1
		c-0.1-0.3-0.1-0.6-0.3-0.9c-0.4-0.3-0.9-0.7-1.5-1c0-0.3-0.1-0.4-0.1-0.7c0-0.1,0-0.3,0-0.3c0-0.3-0.1-0.6-0.1-0.9l-0.1,0.1
		c0.1,0.6,0.1,1.2,0.3,1.8c-0.9-0.1-2.1-0.6-3,0c-1.6,1-3,2.8-3,4.9c-0.3,0.1-0.4,0.1-0.7,0.3c0.3-1.3,0-2.5-0.3-3.8
		c-0.1,0.1-0.3,0.4-0.3,0.6c0,0.9,0,1.8-0.3,2.7c0.1,0,0.4-0.1,0.6-0.1c0,0.1,0.1,0.4,0.1,0.6c-0.3,0-0.7,0-1-0.1
		c0-0.3-0.1-0.7-0.1-1c0,0.6-0.3,1.2-0.7,1.6H161c0.1-0.3,0.1-0.4,0.3-0.7c-0.4-0.4,0.1-1.2-0.1-1.6c0.1-0.3,0.4-0.7-0.1-0.9
		c0,0.1,0,0.3-0.1,0.4v0.1c0,0.3,0.1,0.4,0.3,0.6c0.1,0.4,0,0.7-0.1,1c-0.6-0.3-1.2-0.4-1.9-0.6c0-0.4,0.1-0.9,0.1-1.3
		c0.9-0.4,0.6-1.5,0.4-2.2c-0.3-0.6-0.6-1-1.2-1.2c-0.1-0.4-0.3-1-0.9-1.3c0.1,0.6,0.4,1.3,0.7,1.9l0,0c-0.1-0.1-0.3-0.4-0.6-0.6
		c-0.6,0.4-1.3,0.4-1.9,0.3c-1-0.1-2.2-0.1-3.1-0.9c-0.3,0-0.6,0-0.9-0.1c0.3-0.1,0.6-0.1,0.9-0.1c-0.7-0.1-1.5-0.6-2.1-1
		c-0.1-0.6-0.6-1-1-1.3c-0.1-0.1-0.4-0.4-0.7-0.4c-0.1,0.1-0.3,0.4-0.3,0.6c0-0.1-0.1-0.3-0.3-0.4c-0.1,0.1-0.4,0.3-0.6,0.4
		c-0.1-0.1-0.3-0.3-0.4-0.4c0.6,0,1.2,0,1.6-0.3c-0.6-0.4-1.3,0-2.1-0.3c-0.7-0.3-1.6-0.9-1.6-1.8c-0.1,0-0.4,0-0.6,0l-0.1-0.1
		c-1.2-0.1-2.4-1-2.8-2.2c0-0.6-0.3-1.2-0.6-1.8c0.1,0,0.3-0.1,0.3-0.1c-0.1-0.1-0.3-0.3-0.4-0.4c-0.3,0-0.4,0.3-0.4,0.4
		c-0.4,0.9-0.4,1.9-0.1,2.8c-0.1,0.4-0.3,0.9-0.4,1.5c-0.1-0.1-0.3-0.3-0.1-0.6c0.3-0.4-0.1-1-0.3-1.5c0.3-0.3,0.1-0.7,0-1.2
		c0.3-1-0.1-2.1,0-3.1c0-0.4,0.1-0.7,0.1-1.2c0.3-1.6,0.6-3.1,0.7-4.7c0-0.7,0.3-1.5,0.3-2.2c0-0.1,0-0.4,0.1-0.6
		c0.6-0.7,0.7-1.6,1-2.5c0.1-0.3,0.3-0.6,0.6-0.9c0-0.1,0.1-0.3,0.1-0.4c0.4-0.4,0.6-1,0.7-1.6c0,0.1,0.1,0.6,0.1,0.7
		c0-0.1,0.1-0.4,0.1-0.6c0.3-0.3,0.6-0.6,0.9-0.9c0.1-0.1,0.3-0.3,0.4-0.4c0.1-0.3,0.1-0.4,0.3-0.6c0.1,0,0.3,0,0.4-0.1
		c0.4-0.1,0.9-0.3,1.3-0.3c0.6,0.1,1.3,0.3,1.9,0c0.6,0.7,1.3,1.2,2.2,1.6c0.7,0.4,1.8,1,1.9,1.9c-0.1-0.1-0.4-0.1-0.7-0.1
		c-0.3-0.9-1.6-0.9-2.2-0.4c0.3,0.1,0.6,0.1,1,0.1c-0.4,0-0.7,0-1.2,0.1c0.4,0.3,0.9,0.6,1.3,0.6c0.4,0.1,1-0.1,1.3,0.3
		c-0.1,0.6-0.7,0.4-1,0.1c-0.1,0.1-0.1,0.3-0.3,0.4c-0.1,0-0.4,0-0.6,0c-0.1,0-0.4,0.1-0.6,0.1c0.3,0,0.6,0,0.9,0
		c0.3-0.1,0.7-0.3,1-0.3c-1.5,1.6-3,3.1-4.7,4.6c-0.9,0.3-1.5,1.2-1.8,1.9c-0.3,0.6,0,1.3,0,1.9c-0.1-0.3-0.3-0.4-0.4-0.6
		c-0.3,0.6-0.6,1.2-1.2,1.6c0-0.3,0-0.6,0-0.9c-0.3,0.4-0.6,0.7-1,1c-0.1,0.1-0.1,0.4-0.1,0.6c-0.1,0.1-0.3,0.3-0.3,0.4
		c0-0.3,0.1-0.7,0.1-1c-0.6,0.1-1.2,0.6-1.5,1.2c0,0.3,0,0.6,0.1,1c-0.3,0.4-0.4,1-0.6,1.6c0.7-0.1,0.9-1,1.6-1.3
		c0.9-0.6,2.1-0.7,2.8-1.8c-0.1-0.1-0.3-0.4-0.3-0.4c0.3-0.1,0.6-0.4,0.9-0.6c-0.1,0.3-0.1,0.4-0.1,0.7c0.3,0.1,0.6,0.4,0.7,0.7
		c0.4,1,1.3,1.9,2.2,2.5c0,0.1,0,0.4,0,0.6c-0.1,0-0.1,0.1-0.3,0.3c-0.1,0.1-0.3,0.3-0.4,0.4c-0.6,0.7-1.2,1.8-1,2.8
		c0.1,0.3,0.3,0.6,0.4,0.7c0.1,0.3,0.6,0.3,0.9,0c0.3-0.3,0.7-0.6,0.9-1c0.3-0.7,0.9-1.5,0.3-2.2c-0.4,0.6-0.6,1.3-0.9,2.1
		c-0.1-0.3-0.3-0.6-0.4-1c0.1-0.4,0.3-0.9,0.4-1.3c0.1,0.1,0.4,0.1,0.6,0.3c0-0.3-0.1-0.6-0.1-1c0-0.1,0.1-0.3,0.1-0.4v-0.1
		c-0.3-0.9-1-1.3-1.6-2.1c-0.1-0.3-0.4-0.7-0.6-1.2v-0.1c-0.1-0.9-0.1-1.8-0.3-2.7c0.3-1,1.2-1.5,1.6-2.4c1.8-1.2,3.1-2.8,4.7-4.1
		c1-1,2.1-2.2,2.7-3.5c0.1-0.6,0-1.3-0.1-2.1c0-0.1-0.1-0.3-0.1-0.4c-0.1-0.4-0.3-1-0.4-1.5c0-0.6-0.1-1-0.3-1.6
		c-0.1-0.6,0-1.2-0.1-1.8c-0.1-0.4-0.4-0.3-0.7-0.4c0-0.1-0.1-0.3-0.1-0.4c-0.3,0-0.6-0.1-0.9-0.1c-0.3-0.3-0.4-0.4-0.7-0.7
		c0-0.1-0.1-0.3-0.1-0.3c-0.1-0.3-0.1-0.6-0.3-0.9c-0.6-0.1-1-0.1-1.6-0.3c0.4-0.3,0.9-0.7,1.3-1.2c0.7-0.7,1.2-1.6,1.8-2.5
		c0.6-0.7,1.3-1.2,2.1-1.8c1.2-0.4,2.4-0.1,3.5,0c1.3,0.4,2.5,0.9,3.7,1.6c1,0.7,2.4,1.3,3.3,2.1c0.9,0.7,1.9,1.3,2.7,2.2
		c1.3,0.9,2.4,2.1,3.5,3.1c1.5,1,3,2.2,4.3,3.7c-0.1,0.3-0.7,0.4-0.4,0.7c0.6,1.3,1.5,2.5,1.9,3.8c-0.1,0.1-0.3,0.3-0.4,0.3
		c1.2,1.6,1.3,3.7,2.1,5.6c0,0.7-0.1,1.6,0.4,2.4c0.3,0.3,0.3-0.3,0.3-0.4c0-1-0.6-2.1-0.6-3.1c0-0.6-0.3-1.2-0.4-1.8
		C177.9,76.1,177.9,75.6,177.9,75z M153.3,56.3c-0.6,0.4-1.2,1-1.6,1.5c-0.1,0.1-0.4,0.3-0.6,0.6c0-0.1,0-0.4,0-0.4
		c0.6-0.9,1.6-1.9,2.8-1.8C153.8,56.1,153.5,56.3,153.3,56.3z M149.6,63.5c-0.3,0.1-0.7,0.1-1,0.3c0.3-0.4,0.6-0.7,1-0.7
		c0.1,0.3,0.1,0.6,0.3,0.9c0,0.1,0,0.3,0.1,0.4c0.1,0,0.3,0.1,0.3,0.3c0,0.1,0.1,0.1,0.3,0.3c0.6,0.6,0.9,1.5,1.2,2.4
		c0.3,0,0.6,0,0.9,0c0,0,0,0.1,0,0.3c0,0,0,0.1-0.1,0.1c-0.3,0-0.6-0.1-0.7-0.1c0.3,0.4,0.6,1,1,1.3c-0.1,0-0.3,0.1-0.4,0.1
		c-1.3-0.6-3.1-0.6-4.3,0.1c-0.1,0-0.4-0.1-0.7-0.1c0.3-0.7,0.9-1.6,0.6-2.5c0-0.1,0-0.4-0.1-0.6c0.1,0,0.3-0.1,0.3-0.3
		c-0.1-0.1-0.3-0.4-0.3-0.4C148.3,64.2,149.6,64.5,149.6,63.5z M151.4,71.3c-0.6,0.1-1.2-0.1-1.6-0.6c0.1-0.3,0.6,0,0.9,0.1
		c0.1,0,0.6,0,0.9,0c0-0.3-0.1-0.6-0.3-0.9c-0.1,0-0.6,0-0.9,0c0.1-0.1,0.1-0.3,0.3-0.4c0.1,0,0.3,0,0.3,0.1c0.4,0.3,1,0.3,1.2,0.9
		C151.9,70.9,151.6,71.2,151.4,71.3z M152.9,71c0.3,0.6,0.6,1.2,0.7,1.8h0.1l0.1-0.3c0,0.4-0.1,0.9-0.4,1.2c0-0.1-0.1-0.4-0.1-0.4
		c-0.6-0.3-1.2-0.6-1.6-1C151.6,71.5,152.3,71.2,152.9,71z M141.8,93.7h0.4c-0.1-0.3-0.3-0.6-0.3-0.9c0.3,0.1,0.6,0.3,0.7,0.6
		c0.6,0.9,1.3,1.5,2.1,2.2c0.1,0.1,0.3,0.4,0.4,0.6c0.3-0.1,0.4,0.1,0.6,0.3c0.6,0.7,1.6,0.9,2.5,1.2c1,0.3,1.9,1,2.8,1.5
		c1.5,0.6,3.1,1,4.6,1c0.9,0.1,1.9,0.1,2.7,0.6c0.1,0.1,0.3,0.3,0.4,0.4c-0.1,0.6-0.1,1.2-0.3,1.9c0.1-0.1,0.4-0.3,0.6-0.3
		c0.1,0.3,0.1,0.6,0.3,0.9c-0.4,0-0.7,0-1.2,0.1c-1-0.3-1.9-0.6-2.8-1c-0.7-0.6-1.2-1.3-1.9-1.9c-1.3-0.6-2.8-0.9-4.3-0.3
		c-0.3,0-0.6-0.1-0.9-0.1c-0.1,0-0.3,0-0.4,0c-0.3,0-0.6-0.1-1-0.1c-0.1-0.1-0.3-0.3-0.6-0.4c0-0.1,0-0.4-0.1-0.6s-0.1-0.4-0.3-0.6
		c0,0.1-0.1,0.1-0.1,0.3c-1-0.6-1.9-1.3-2.8-2.1c-0.4-0.3-0.7-0.9-1-1.3C142.3,94.7,142,94.1,141.8,93.7z M145.4,101.2
		c-0.3,0-0.4,0-0.7,0c0-0.7-0.3-1.5-0.7-2.1C144.9,99.3,144.8,100.6,145.4,101.2z M145.2,99.6c0.4,0.3,0.6,0.6,0.6,1
		C145.4,100.6,145.1,100,145.2,99.6z M146.8,102.5c0,0,0-0.1,0-0.3c0-0.1,0-0.3,0-0.3l0.1-0.1c0.1,0,0.3,0,0.4,0
		c-0.1-0.3-0.1-0.6-0.3-1c0.1,0,0.4,0.1,0.6,0.1c0.3-0.1,0.6-0.3,0.9-0.3c0,0.1-0.1,0.4-0.1,0.6
		C147.9,101.6,147.6,102.5,146.8,102.5z M148.8,102.1c0,0.1,0,0.4,0,0.6c-0.1,0.1-0.3,0.1-0.3,0.3c0,0.1,0,0.4,0,0.6
		C148.2,103.1,147.9,102.2,148.8,102.1z M143.1,93.1c0.3,0.1,0.9,0,1,0.4c0.4,0.6,0.7,1.2,1.2,1.6l0,0
		C144.3,94.8,143.9,93.8,143.1,93.1z M171.4,103c-0.6,0.1-0.9,0.7-1.5,1c0.1-0.7,0.6-1.8,0-2.5c0.1,0,0.3,0,0.4-0.1
		C170.8,101.9,171.2,102.4,171.4,103z M169.5,100.6c-0.7-0.3-1.5,0.1-2.2,0c1.2-0.7,2.8-0.4,4,0.3c0.4,0.3,0.7,0.9,0.6,1.3
		C171.1,101.8,170.5,100.9,169.5,100.6z M169.7,104c-1.2,1-2.7,0.3-4,0.9c0.3-0.7,0.6-1.5,0.7-2.2s0.6-1.6,1.5-1.6
		c0.6-0.1,1.3-0.1,1.8,0.3C169.9,102.2,170.2,103.1,169.7,104z M164.6,105.6c-0.1,0-0.6,0-0.7,0c0.1-0.3,0.3-0.4,0.7-0.4l0.1-0.1
		c0.7-1.2,0.7-3,2.1-3.7c-0.3,0.4-0.7,0.9-0.7,1.5C165.9,103.9,165.3,104.9,164.6,105.6z M158.8,112.3c-0.1,0-0.4,0-0.6,0
		c0.1-0.1,0.3-0.3,0.3-0.4c0.4-0.1,0.7-0.4,1.2-0.6c0.1,0,0.3-0.1,0.4-0.1c0,0.1-0.1,0.3-0.1,0.3
		C159.5,111.8,159.3,112.1,158.8,112.3z M154.4,105.9c0,0.7,0.3,1.3,0.6,1.9c-0.3-0.1-0.7-0.3-0.9-0.6c0-0.6,0.1-1.2,0.3-1.6
		c0-0.1,0.1-0.4,0.1-0.6c0.6,0.9,0.9,1.8,1.2,2.7c0.1,0.3,0.3,0.7,0.3,1.2c-0.4-0.1-0.6-0.4-0.9-0.9
		C155,107.4,155,106.5,154.4,105.9z M156.1,107.3c0,0.1,0,0.4,0.1,0.4l-0.3-0.1c-0.1-0.7-0.4-1.3-0.7-1.9c0.1,0,0.6,0.1,0.7,0.1
		C155.9,106.2,156,106.8,156.1,107.3z M156.3,109.8c-0.4,0.1-0.9,0.3-1.2,0.7c-0.1,0.1-0.3,0.3-0.3,0.3c-0.4-0.3-0.6-0.9-0.9-1.3
		c-0.3-0.4-0.6-0.9-0.7-1.5c0.1,0,0.3,0,0.4-0.1c0.3,0.6,0.6,1.3,1,1.9c0.1,0.3,0.3,0.1,0.6,0.1c-0.1-0.4-0.4-0.9-0.9-1.3
		c0.1,0,0.3,0,0.4,0c0.3,0.3,0.6,0.6,0.9,0.9C155.9,109.5,156.3,109.3,156.3,109.8z M149.5,105.5c0,0.3,0,0.4-0.1,0.7
		c-0.1,0-0.3,0-0.3,0.1c-0.1,0-0.3-0.1-0.3-0.1c-0.6-0.7-0.9-1.8-0.7-2.8c0.3,0.4,0.4,1,0.4,1.6c0,0.1,0.1,0.1,0.1,0.3
		C148.8,105.6,149.3,106.5,149.5,105.5C149.3,105.5,149.3,105.5,149.5,105.5z M134.9,93.8c-0.6-0.4-0.9-1-1.3-1.6
		c-0.1-0.1-0.1-0.3-0.3-0.3c-0.6-0.6-0.9-1.2-1.5-1.6c0.6-0.3,1.3-0.3,2.1-0.4c0.1,0.3,0.4,0.4,0.7,0.6c0.6,0.6,1,1.3,1.6,2.1
		c0.1,0.3,0.4,0.3,0.7,0.3c-0.4-0.7-0.4-1.8-0.1-2.5c0.1-1.5,0.6-2.8,1-4.1l0,0c0.4-0.9,0.4-1.9,0.1-3c-0.3-0.9,0.1-1.6,0.4-2.4
		c0-0.3,0-0.6,0.1-0.9c0.4-1.6,0.7-3.1,1.3-4.7c0.6-0.9,1.2-1.8,1.6-2.8c0.1-0.3,0.3-0.4,0.4-0.7c0.1-0.1,0.1-0.3,0.3-0.3
		c0.1-0.9,0.7-1.6,0.9-2.5c0.1-0.4,0.4-1,0.7-1.5c0,0,0.1-0.1,0.3-0.3c0.3-0.6,0.6-1.2,0.9-1.8c0.7-0.7,1.2-1.6,1.8-2.5
		c0.7-1,0.9-2.2,1.6-3.1c0.1,0,0.3-0.1,0.3-0.1c0-0.1,0-0.4,0-0.6c0.4-0.7,1-1.3,1.5-1.9c1-1.3,2.5-2.2,3.7-3.4
		c0.9-1,2.1-1.8,3.1-2.8c0.6-0.6,1.3-1,1.9-1.3c0.4-0.1,0.9,0.4,1.3,0.4c0.7,0.7,1.6,1.2,2.7,1.8c0,0.1,0.1,0.3,0.1,0.4
		c0.1,0.1,0.3,0.3,0.6,0.3l-0.1,0.3c-0.7-0.3-1.6-0.6-2.4-0.9c-0.3,0.1-0.7,0.4-1,0.6c0.7,0.4,1.6,0.6,2.4,1
		c0.7,0.3,1.3,0.9,1.9,1.2c0-0.1,0-0.4,0-0.6s0-0.3,0-0.3c0.1,0.1,0.3,0.3,0.4,0.3s0.3,0,0.4,0c0.3,0.3,0.6,0.7,1,0.9
		c0.7,0.3,1.2,1,2.1,1.2c-0.3,0.3-0.4,0.9,0.1,0.9c0.7,0.3,1.2,0.9,1.8,1.3c0.9,0.7,1.8,1.2,2.7,1.9c0.3,0.3,0.6,0.4,0.9,0.6
		c0.3-0.1,0.6-0.4,0.9-0.4c0.3,0.1,0.6,0.4,1,0.6c0,0.3,0,0.6,0,0.9c1.2,1,1.9,2.5,3,3.7c0.7,1.2,1.9,1.9,2.5,3.1
		c0.6,1,1.3,2.1,1.8,3.1c-0.1,0.3-0.3,0.6-0.4,0.9c-0.1-0.3-0.4-0.7-0.7-1c-0.9-0.9-1.5-1.8-2.1-2.8c-0.1,0-0.4,0-0.4,0
		c0.1,0.3,0.3,0.7,0.6,1c0.7,0.9,1.3,1.9,2.1,2.8c-0.1,0.3-0.3,0.6-0.4,0.9c0.3,0.3,0.6,0.4,0.9,0.6v0.1c-0.4,0.7,0.3,1.5,0.6,2.1
		c0.3,0.6,0.7,1.2,0.9,1.8c0.3,1.2,0.9,2.2,1.2,3.5c0.1,1,0.9,1.9,0.9,3c0,0.3,0,0.7-0.3,0.9c-0.1-0.4-0.3-0.7-0.6-0.9
		c0.1,1.2,0.7,2.4,0.4,3.5c-0.1,0-0.3-0.1-0.4-0.3c-0.3-1.2-0.3-2.4-0.3-3.7c0.1,0,0.4,0,0.6,0c-0.1-0.1-0.1-0.4-0.3-0.6
		c0.1-0.4,0.1-1,0-1.5c-0.3-1-0.6-2.4-1.3-3.3c0.3,0.7,0.6,1.5,0.6,2.4c-0.1,0.1-0.3,0.3-0.3,0.4c-0.1-0.4-0.3-1-0.3-1.6
		c-0.6-0.7-1-1.6-1.2-2.5c-1-2.5-3-4.4-4.4-6.8c-1.2-1.8-2.4-3.5-4-4.9c-1.2-0.9-2.4-1.8-3.4-2.8c-2.4-2.2-4.7-4.3-7.5-5.8
		c-1.6-1.2-3.5-1.9-5.6-2.4c-0.4-0.1-0.7-0.4-1.2-0.4c-0.9,0-1.8-0.1-2.7,0.3c-1.2,0.4-1.9,1.5-2.7,2.4c-0.3,0.3-0.6,0.6-0.7,1
		c-0.7,1.2-2.1,2.1-2.7,3.4c-0.3,0.6-0.7,1.2-1,1.9c-0.4,0.9-1,1.8-1.3,2.7c0.1,0,0.3,0,0.4,0c0.3-0.7,0.9-1.3,1-2.2
		c0,0.1,0,0.3,0,0.4v0.1c-0.3,0.4-0.6,1-0.9,1.5c-0.1,0.1-0.1,0.3-0.1,0.6c-0.1-0.1-0.3-0.3-0.6-0.3c-0.3,0.9-0.6,1.9-0.9,2.8
		c-0.4,0.7-0.7,1.6-0.9,2.4v-0.1c-0.1,1.3-0.7,2.8-1.6,3.8c-1.3,1.9-2.5,4.1-2.1,6.5c0.3,1.2,0.1,2.4-0.1,3.5
		c-0.1,0.6-0.7,1-0.9,1.6c-0.4,1.5-0.6,3-0.4,4.6c0,0.3,0.1,0.7,0.1,1c-0.4,0-1-0.1-1.5,0.1C135.5,93.5,135.2,93.8,134.9,93.8z
		 M185.9,95c0,0.4-0.1,0.7-0.4,1c0.1-0.7,0.1-1.3,0.1-2.1C186,94.1,185.9,94.7,185.9,95z M194.4,81.8c-0.1-0.4-0.9-1.2,0-1.3
		c0.1,0.4,0.1,1.2,0.7,1.5c0.1-0.1,0.1-0.4,0.3-0.6c0.3,0,0.6,0.1,0.6,0.4c-0.1,0-0.4,0.1-0.6,0.1c-0.1,0.6-0.6,0.4-1,0.3
		c-0.1,0.1-0.1,0.4-0.3,0.6c0-0.1,0-0.6,0-0.7c-0.3,0.3-0.7,0.6-0.6,1.2c-0.1,0-0.3-0.1-0.4-0.1c0-0.1-0.1-0.4-0.1-0.6
		c0.1,0,0.4,0,0.6,0.1c-0.1-0.3-0.3-0.7-0.4-1c0-0.1-0.1-0.4-0.1-0.6c0.3,0,0.4,0.1,0.4,0.3c0.1,0.3,0.3,0.6,0.4,0.7
		C193.8,82.1,194.1,82,194.4,81.8z M196.1,86.9c-0.1,0.1-0.3,0.4-0.3,0.6c-0.7-0.9-1-2.2-1.6-3.3c0.1,0,0.3-0.1,0.4-0.1l0.1-0.1
		c0.1,0.4,0.4,1,0.7,1.5C195.6,85.8,195.8,86.4,196.1,86.9z M195.3,87.6c-0.3,0-0.6,0.1-0.9,0.1c-0.1-0.7-0.3-1.5-0.7-2.1
		c-0.1-0.4-0.6-1.2,0-1.6C194.3,85.4,194.7,86.6,195.3,87.6z M194.1,88c-0.1,0.1-0.3,0.3-0.4,0.3c-0.4-1-0.6-2.1-1.2-3
		c0-0.3,0.3-0.6,0.6-0.6c0.1,0.4,0.3,0.9,0.4,1.3C193.8,86.9,194,87.5,194.1,88z M193.3,88.5c0,0-0.1,0-0.3,0
		c-0.3-0.9-0.6-1.9-1-2.8c0.1-0.1,0.3-0.3,0.3-0.3c0,0.1,0.1,0.3,0.1,0.4C192.8,86.7,193.1,87.6,193.3,88.5z M193,89.1
		c-0.1,0.1-0.3,0.3-0.3,0.4c-0.4-1-0.4-2.1-1-3c0-0.1,0-0.4,0-0.4l0.3-0.1C192.4,87,192.5,88,193,89.1z M191.3,84.4
		c-0.1-0.3-0.1-0.7-0.3-1c0-0.3,0-0.6,0-0.9c0-0.1,0.1-0.3,0.1-0.3c0.1,0.6,0.4,1.3,0.6,1.9C191.8,84.1,191.5,84.2,191.3,84.4z
		 M192.1,89.4c0,0.3,0,0.6-0.3,0.9c-0.4-0.4-0.6-1.2-0.7-1.8c-0.1-0.4-0.3-0.9-0.4-1.2c0.1-0.3,0.3-0.4,0.3-0.7l0.1-0.1l0.1,0.1
		C191.6,87.6,191.8,88.5,192.1,89.4z M190.4,86.6c-0.1-0.1-0.3-0.1-0.4-0.3c0.4-0.1,0.7-0.3,0.7-0.7c0.1,0.1,0.3,0.3,0.4,0.4
		C190.7,86,190.6,86.3,190.4,86.6z M190.3,83.6c0-0.4,0-0.9,0.1-1.3C190.6,82.7,191,83.6,190.3,83.6z M189.6,77.4c0-0.3,0-0.4,0-0.7
		c0.7,0.6,0.7,1.6,0.9,2.5c0.3,0.3,0.7,0.7,0.9,1.2c-0.1,0-0.4,0-0.6,0C190.6,79.3,189.9,78.4,189.6,77.4z M189.7,92.8
		c-0.1-0.3-0.3-0.4-0.6-0.6c-0.3,0.1-0.6,0.3-0.7,0.4c0.1,0.4,0.3,1,0.3,1.5c-0.1,0-0.6-0.1-0.7-0.1c0,0,0-0.1-0.1-0.3
		c-0.1,0.7,0.4,1.8-0.1,2.4c-0.1,0-0.3-0.1-0.3-0.1c-0.1-0.4-0.3-0.7-0.4-1.2c-0.1-0.1-0.3-0.1-0.6-0.1c-0.1-1.5,0.1-2.8,0.1-4.3
		c0.3,0,0.6,0,0.9,0l0.1-0.1c0.1-0.3,0.4-0.6,0.7-0.9c0.7,0.4,0.7,1.2,1,1.9C189.7,91.4,190,92,189.7,92.8z M189.3,78.4
		c-0.4-0.1-0.4-0.7-0.7-1c-0.3-0.4-0.1-0.9-0.1-1.3c0.3,0,0.6,0.3,0.7,0.4C189,77.3,189.4,77.8,189.3,78.4z M187.3,86.6
		c0.4,0.4,0.3,1.2,0.3,1.8c-0.3,0-0.6,0.1-0.9,0.1c0-0.9,0-1.8,0.3-2.7c0.1,0,0.3,0,0.3,0.1C187.3,86.3,187.3,86.4,187.3,86.6z
		 M187.3,82.7c0.3,0.3,0.3,0.7,0.3,1.2h0.3c0.3,0.6,0.6,1.3,0.7,2.1c-0.1,0.1-0.3,0.3-0.3,0.4c-0.1-0.6-0.3-1-0.4-1.6
		C187.6,84.1,187.2,83.3,187.3,82.7z M188.7,87c0.4-0.4,0.4,0.3,0.4,0.7c-0.1,0.1-0.3,0.3-0.6,0.4C188.5,87.8,188.5,87.5,188.7,87z
		 M188.4,82.4c0.1,0.3,0.3,0.6,0.4,0.9c0.1,0.4,0.1,0.9,0.1,1.3c-0.1,0-0.3-0.1-0.4-0.1c-0.1-0.3-0.1-0.6-0.3-0.9
		C188.2,83.2,188.1,82.7,188.4,82.4z M188.2,80.5h0.1c0.1,0,0.4,0,0.4,0c0.1,0.6,0.3,1.2,0.1,1.8c-0.1,0.1-0.1,0.3-0.3,0.3l0,0
		c-0.1-0.3-0.3-0.6-0.4-0.9l-0.1-0.3C188.2,81.2,188.2,80.8,188.2,80.5z M188.1,96.2c0-0.1,0.1-0.3,0.1-0.3c0.6,0.7,0.4,1.6,0.1,2.5
		c-0.1-0.1-0.3-0.3-0.4-0.4c-0.1-0.3-0.1-0.4-0.1-0.7C187.8,96.8,187.9,96.5,188.1,96.2z M189.3,99.3c0,0.4-0.1,1-0.1,1.5
		c-0.1,0-0.3-0.1-0.4-0.1c-0.1-0.3-0.1-0.6-0.3-0.9c0-0.3,0-0.6-0.1-0.9c0.1,0,0.3,0,0.3,0c0.1,0.1,0.3,0.1,0.4,0.3L189.3,99.3z
		 M189.1,101.2c-0.6,0.6-1.5,0.9-2.1,1.5h-0.3c-0.1-1.2,0-2.7-0.6-3.8c-0.3-1.2-0.1-2.4,0-3.4c0.1-0.1,0.3-0.3,0.4-0.3
		c0.3,0.9,0.6,1.8,0.7,2.7c-0.3-0.3-0.6-0.4-0.7-0.7c0,0.7,0.3,1.3,0.4,2.1c0.1,0.9,0.3,1.6,0.6,2.5c0.4,0.1,0.9,0.1,1-0.3
		c-0.1-0.1-0.4-0.3-0.6-0.3c0-0.1,0-0.3,0.1-0.3l0.1-0.1C188.2,100.9,188.7,101.4,189.1,101.2z M185.6,83.6
		c-0.1-0.6-0.4-1.2-0.4-1.8c-0.1-0.1-0.3-0.1-0.4-0.3c0.1-0.3,0.1-0.6,0.3-0.9c-0.1-0.3-0.4-0.6-0.7-0.9c-0.1-0.6-0.3-1.2-0.6-1.8
		c0.3-0.3,0.4-0.4,0.9-0.6c0.3,0.6,0.4,1.2,0.6,1.6c0,0.4,0.1,0.9,0.4,1.2c0.1,0.3,0.3,0.4,0.6,0.6c0-0.4-0.1-0.9,0-1.3
		c0.1,0.3,0.3,0.7,0.3,1.2c-0.1,0.1-0.4,0.1-0.4,0.3c0,0.3,0.1,0.7,0.1,1.2C186,82.7,186,83.3,185.6,83.6z M184.5,73.7
		c0.3,0.6,0.7,1.2,1,1.9c0.1,0.4,0.1,0.9-0.3,1.2c-0.4-0.7-0.6-1.6-1-2.5c-0.9-1.2-1-2.7-2.1-3.8l0.1-0.4
		C183.4,71,183.8,72.5,184.5,73.7c0.1-0.1,0.4-0.4,0.6-0.4c-0.9-0.6-0.9-1.6-1.5-2.5c0-0.1,0-0.3,0-0.4c0.3,0.6,0.7,1,0.9,1.8
		c0.1,0.3,0.3,0.6,0.6,0.9c0,0.3,0,0.6,0.1,0.9C185.1,73.9,184.8,73.7,184.5,73.7z M184.8,70.5c-0.3-0.4-0.6-0.7-0.9-1.2h0.3
		c0.3,0.4,0.7,0.7,1,1C185.1,70.5,184.8,70.5,184.8,70.5z M180.5,66.5c0.6,0.9,1.3,1.6,1.9,2.5c0.3,0.3,0.3,0.6,0.3,0.9
		c-0.1-0.1-0.3-0.3-0.4-0.3c-0.3-0.3-0.4-0.6-0.7-0.9c-0.1,0-0.3,0.1-0.3,0.1c-0.4-0.6-0.9-1.2-1.6-1.8c0-0.1,0-0.4,0-0.6
		c-0.3,0-0.4,0-0.7,0.1c0-0.1,0-0.3,0.1-0.4c-0.7-0.7-1.2-1.6-2.1-2.4c-0.4-0.4-0.9-1-1.2-1.5h0.4c1.8,1.3,3.4,2.8,5,4.3
		C181,66.5,180.7,66.5,180.5,66.5z M146.5,41.3c0.1,0,0.4,0,0.6,0c0.3-0.3,0.4-0.6,0.7-0.9c0.7,0.3,1.5,0.7,2.2,0.7
		c1.5,0.7,3,1.8,4.4,2.5c1.2,0.9,2.4,1.5,3.5,2.4c0.6,0.4,1.2,0.7,1.8,1c0.7,0.6,1.6,1.2,2.4,1.6c0.6,0.4,1.2,0.9,1.8,1.5
		c0.7,0.6,1.5,1,2.2,1.6c0.3,0.3,0.7,0.4,1,0.7c0.9,0.6,1.6,1.3,2.5,1.9c0.1-0.1,0.3-0.3,0.3-0.4c0,0.3,0,0.6,0,0.9
		c-0.3,0.3-0.7,0.6-1,1c-1.2-0.9-2.4-1.8-3.7-2.4c-0.9-0.4-1.6-1-2.4-1.5l-0.1-0.1c-0.3-0.1-0.7-0.4-1-0.7c-1.3-0.9-2.5-1.9-4.1-2.5
		c-0.1-0.1-0.4-0.3-0.7-0.4c-0.6-0.3-1-0.9-1.8-0.9c-1-0.9-2.4-1.5-3.5-2.2c-1.8-1-3.7-1.8-5.5-2.8c-0.7-0.6-2.2-0.7-2.1-1.9
		c0.3-0.3,0.6-0.6,1-1c0.1,0.1,0.3,0.3,0.4,0.3c-0.3,0.3-0.6,0.7-0.9,1c0.6-0.1,1-0.6,1.6-1l0.3,0.1l0.1,0.3c-0.3,0.3-0.7,0.6-1,1.2
		c0.6-0.1,1-0.4,1.2-1c0.3,0.1,0.6,0.3,1,0.3C147.3,40.7,146.8,40.9,146.5,41.3z M139,39.1c-0.7,0.6-1.6-0.1-2.5-0.1
		c0-0.1-0.1-0.3-0.1-0.4c0.4-0.3,0.9-0.6,1.3-0.6c0,0.1-0.1,0.4-0.1,0.4s0.1,0.1,0.3,0.1c0.3-0.3,0.7-0.6,1.2-0.6 M135.2,65
		L135.2,65c-0.3,0.4-0.7,0.4-1.2,0.4c0.1-0.4,0.6-0.9,1-1c0-0.1,0-0.3,0-0.4c0.1,0,0.4,0,0.6-0.1C135.5,64.2,135.3,64.7,135.2,65z
		 M134,46.5c-0.1-1-0.1-2.1,0.1-3.1c0.3-0.7,0.1-1.5,0.4-2.2c0.1-0.3,0.1-0.7,0.3-1l0,0c0.3,0,0.6,0,0.9,0c0,0.4-0.3,0.7-0.6,0.9
		c-0.4,0.9-0.6,1.8-0.6,2.8c-0.1,0.1-0.3,0.3-0.3,0.4C134.1,45,134.3,45.8,134,46.5z M135.6,49.6c0.4,0.3,0.3,0.9,0.3,1.3h-0.3h-0.3
		c0,0.1,0,0.4,0,0.6c-0.4-0.3-0.9-0.6-1.3-1c0-0.3,0.1-0.7,0.4-0.7c0.3,0.4,0.3,1.2,1,1.2c-0.1-0.6-0.3-1-0.3-1.6L135,49
		c0-0.4,0.1-0.9,0.3-1.3C135.6,48.3,135.6,48.9,135.6,49.6z M137.1,82c0,0.1,0,0.4,0,0.6c-0.6,0.4-0.3,1.3-0.4,1.9
		c-0.1,1.5-0.4,3.1-0.9,4.6c-0.1,0.3-0.3,0.6-0.4,1c0.3,0.4,0.6,0.9,0.7,1.5c-0.6-0.3-0.9-1.2-1.5-1.5c-0.1-0.3-0.1-0.4-0.3-0.6
		c0.3,0,0.7-0.1,0.7-0.6c0.3-1,0.1-2.1,0.6-3.1c0.1-0.3,0.1-0.7,0.1-1.2c0-0.4,0-0.9-0.3-1.2C135.9,82.9,136.5,82.3,137.1,82z
		 M136.9,86c0.1,0,0.4,0.1,0.6,0.1c-0.9,0-0.6,1.2-0.9,1.9C136.6,87.3,136.8,86.7,136.9,86z M139.3,47.1c-0.1,0.3-0.1,0.6-0.3,0.9
		l-0.1,0.3c0.1,0,0.6,0.1,0.7,0.1c-0.1,0-0.3,0-0.4,0c0.6,0.3,0.3,0.9,0.1,1.3c-0.1,0-0.4,0-0.6,0c0-0.1-0.1-0.4-0.1-0.6
		c0.1-0.3,0.3-0.4,0.4-0.7c-0.1,0-0.4,0-0.6,0c0-0.3,0.1-0.6,0.3-0.7h0.3C139.1,47.5,139.3,47.4,139.3,47.1z M139.3,39.6
		c0.1-0.3,0.4-0.6,0.6-0.7c0.1-0.1,0.4-0.4,0.6-0.6c0.1,0,0.6,0,0.7,0c-0.4,0.4-0.9,1-1.2,1.5h-0.1
		C139.7,39.6,139.4,39.6,139.3,39.6z M141.5,38.4c0.3-0.1,0.7,0,1.2,0c-0.3,0.6-0.9,0.7-1.2,1.2c-0.1,0.4-1.2,0.3-0.9-0.3
		C140.9,39,141.2,38.7,141.5,38.4z M143,38.5c0.1,0,0.4,0.1,0.6,0.1c-0.3,0.4-0.7,0.9-1,1.2c0,0.1,0.1,0.4,0.1,0.4
		c-0.1,0-0.3,0-0.4,0s-0.3-0.1-0.3-0.1l-0.3-0.1C141.8,39.6,142.4,39,143,38.5z M144,38.8c0.1,0,0.4,0.1,0.4,0.1
		c-0.1,0.6-0.6,0.9-1,1.3c0,0.1,0,0.4,0,0.6c-0.1,0-0.3,0-0.4,0h-0.1C142.7,39.9,143.4,39.3,144,38.8z M131.9,87.6
		c0.6-0.7,1.3-1.3,1.6-2.2c0.1-0.1,0.3-0.3,0.3-0.4l0.1-0.1c0-0.1,0.1-0.3,0.1-0.3c0.3-0.3,0.4-0.6,0.7-0.9c0.1,0.6,0,1.3,0,1.9
		c0,1-0.6,2.1-0.7,3.3c-0.6,0.3-1.2,0.3-1.8,0.4C132.2,88.8,132.1,88.2,131.9,87.6z M138.3,32.6c-0.3,0.4-0.6,0.9-1,1.2
		c0.1,0.1,0.3,0.3,0.3,0.3c-0.3,0.7-0.7,1.3-1.5,1.8c-0.1,0-0.4,0-0.6,0c0.6-0.6,1.3-1.2,1.9-1.8c-0.1-0.4-0.3-0.9-0.4-1.3
		c-0.1,0.4-0.3,0.7-0.4,1.2c-0.4,0-0.7,0-1.2,0c0,0.1-0.1,0.3-0.1,0.4c0.4,0,0.9,0.1,1.3,0.1c-0.3,0.4-0.7,0.9-1,1.3
		c-0.6,0.1-1.3,0.3-1.9,0l0.1-0.3c0.6-0.9,1.3-1.6,2.1-2.5c0.4-0.3,0.7-0.4,1-0.9C137.2,32.5,137.8,32.5,138.3,32.6z M139.6,32.6
		c-0.6,0.4-1,0.9-1.5,1.3v-0.3c0.1-0.3,0.4-0.6,0.6-0.7l0.1-0.1c0.1,0,0.4,0,0.6-0.1L139.6,32.6z M139.9,33.6
		c-0.9,0.6-1.6,1.5-2.4,2.4c-0.1,0-0.4,0-0.6,0.1l0.1-0.3c0.3-0.3,0.6-0.7,0.9-1c0.7-0.6,1.2-1.6,2.2-2.1
		C140.3,33.1,140.3,33.5,139.9,33.6z M139.4,34.4c0.1-0.4,0.6-0.6,0.9-0.7c0,0.1,0,0.4,0,0.6C140.5,34.7,139.4,34.8,139.4,34.4z
		 M142.5,33.1c-0.4,0.6-1,1-1.5,1.6c-0.6,0.6-1,1.2-1.5,1.8c-0.3-0.1-0.9,0.1-1-0.4c-0.3,0.1-0.6,0.1-0.9,0.3c0-0.7,0.7-1,1.2-1.3
		c0.4,0,1,0.1,1.5,0c0.6-0.4,0.6-1.3,0.1-1.9C141.2,32.9,142,32.9,142.5,33.1z M143.4,33.2c-0.1,0.3-0.4,0.6-0.7,0.9
		c-0.9,0.9-1.5,1.8-2.5,2.5c-0.1-0.1-0.3-0.3-0.4-0.3c0.6-0.6,1.3-1,1.8-1.8C142.1,34.1,142.5,33.2,143.4,33.2z M145.5,34.1
		c-0.1,0.1-0.4,0.3-0.6,0.4c-0.9,0.1-1.2,0.9-1.5,1.5c0.3,0.1,0.4,0.4,0.7,0.6c0.3,0.1,0.7,0.3,1.2,0.4c-0.1,0.3-0.3,0.4-0.4,0.7
		c-0.6,0.3-1.2,0-1.6-0.1c-0.1-0.1-0.4-0.3-0.6-0.3c-0.1,0-0.3,0-0.4,0c-0.1-0.1-0.3-0.3-0.4-0.3c0.7-0.7,1.9-1.2,2.1-2.5
		c-0.9,0.7-1.3,1.8-2.4,2.4c-0.1,0-0.4,0-0.6-0.1c0.6-0.9,1.5-1.5,2.1-2.4c0.4-0.3,0.6-1.2,1.3-0.9c0.1,0.4-0.4,0.7-0.4,1.2
		C144.2,34.2,144.8,33.2,145.5,34.1z M146.5,35.9c-0.3,0.3-0.6,0.6-0.7,0.9c0-0.3,0.1-0.6,0.1-0.9l0.1-0.3c-0.6,0-1.2,0.4-1.6,0.7
		c-0.1-0.1-0.3-0.4-0.3-0.6c0.6-0.4,1.2-1,1.8-1.6c0.6,0,1.2,0.3,1.6,0.4C147.4,35.1,147,35.6,146.5,35.9z M148.2,35.3
		c-0.6,0.9-1.3,1.5-2.1,2.4c-0.1,0.6-0.6,1-1.2,0.7c0.3-1.5,2.1-2.2,2.7-3.5C147.9,34.8,148.5,34.8,148.2,35.3z M160.4,41.8
		c-0.7,0.1-1.6,0-2.4,0.4c-0.1,0.6-0.1,1.2,0.1,1.6c0.4,0.7,0.6,1.6,1.2,2.2c-0.4-0.3-0.9-0.7-1.3-0.9c-2.1-1.3-4.3-2.4-6.4-3.7
		c-0.4-0.3-0.9-0.9-1.6-0.9c-1-0.9-2.2-1.3-3.4-1.8l-0.1-0.1l-0.1-0.1c0.1-0.1,0.3-0.1,0.4-0.1c0.1-1,1.3-1.6,1.6-2.5
		c0.1-0.1,0.3-0.3,0.4-0.3c0.6-0.1,1,0.1,1.6,0.3c0.9,0.4,1.6,0.7,2.4,1.2c0.9,0.4,1.8,0.9,2.5,1.5c1.2,0.6,2.4,1.2,3.5,1.9
		c0.1,0.1,0.3,0.1,0.4,0.3c0.3,0.1,0.6,0.3,0.9,0.4C160.4,41.5,160.4,41.6,160.4,41.8z M173,49.6c-0.4,0.7-0.9,1.3-1.3,2.1
		c-0.4,0.1-0.7-0.3-0.9-0.7c0.1-0.3,0.3-0.7,0.4-1c-0.1,0-0.4,0-0.4,0c-0.1,0.1-0.3,0.3-0.6,0.6l-0.1,0.1c0,0.4,0,0.9,0,1.2
		c0.3,0.3,0.7,0.6,1.2,0.7c-0.1,0.4-0.4,0.9-0.7,1.2c-0.6-0.3-1.2-0.3-1.8-0.3c0.1,0,0.6-0.1,0.7-0.1c-0.4-0.4-1-1-1.5-1.5
		c-0.6-0.6-1.2-1-1.9-1.6c-1-0.7-2.1-1.6-3.1-2.5c-0.4-0.4-1.2-0.6-1.6-1c-0.9-0.9-1.8-1.8-2.4-3c-0.1-0.4-0.1-1-0.1-1.5
		c1-0.3,2.1-0.1,3.1-0.1c0.7,0.7,1.8,0.9,2.7,1.3c0.4,0.3,0.9,0.6,1.5,0.9c1.8,1.2,3.7,1.9,5.3,3.3c0.6,0.4,1.3,0.9,1.5,1.6
		C172.9,49.3,172.9,49.5,173,49.6z M193.3,68.8c-0.4-0.3-0.7-0.6-0.9-1v-0.3C192.7,67.9,193,68.4,193.3,68.8z M194.7,70.9
		c-0.4-0.4-1.3-0.9-1-1.6c0.1,0.3,0.3,0.4,0.4,0.7C194.4,70.3,194.6,70.6,194.7,70.9z M198.6,76.1c-0.1,0-0.4,0.1-0.6,0.1l-0.3,0.1
		l0,0c-0.4-0.4-0.7-0.9-0.9-1.5c0.1,0,0.3,0,0.4,0c0,0.1,0.1,0.3,0.3,0.4c0.9-0.1,0-0.9-0.3-1.2c0.1,0.1,0.3,0.3,0.6,0.4
		C198,75,198.3,75.6,198.6,76.1z M196.7,81.8c-0.6-0.6-1-1.2-1.6-1.9c-0.4-0.4-0.9-0.9-1.3-1.5c-1-1.3-2.5-2.4-3.5-3.8
		c-0.1-0.1-0.3-0.3-0.3-0.4c0-0.1-0.1-0.3-0.3-0.3c-0.1,0.1-0.3,0.3-0.3,0.4c0-0.1-0.1-0.3-0.1-0.4c0-0.1,0-0.3-0.1-0.4
		c-1.3-1.6-3-2.8-4.4-4.3c-2.2-1.9-4-4.1-6.2-5.9c-1.3-1.2-2.8-2.2-4.1-3.4c-0.3,0.3-0.6,0.6-0.7,0.7c-1.8-1.2-3.4-2.4-5-3.7
		c0.1-0.1,0.3-0.4,0.3-0.6c0.1,0,0.4,0,0.4,0c0.1-0.4,0.4-0.7,0.6-1.2c0.1,0.1,0.3,0.3,0.3,0.4c0,0.1-0.1,0.4-0.3,0.4
		c0.1-0.1,0.3-0.3,0.4-0.6c-0.1-0.3-0.1-0.4-0.1-0.6c0.4-0.4,0.4-1,0.4-1.6c0.3-0.3,0.4-0.7,0.6-1.2c0.3-0.1,0.4-0.4,0.7-0.6v0.1
		c0-1,1-1.8,1.2-2.8h0.3c0.1,0.1,0.3,0.3,0.4,0.3c1,1,2.2,1.9,3.3,3.1c0.9,0.6,1.6,1.5,2.4,2.2c0.3,0.3,0.6,0.6,0.9,0.9
		c1.6,1.8,3.8,3.1,5.5,4.9c0.1,0.3,0.4,0.4,0.7,0.4c0.7,1,1.6,1.9,2.7,2.8c0.3,0.7,0.9,1.2,1.5,1.8l0.1,0.1
		c-0.1,0.1-0.3,0.3-0.3,0.4c0.7,1.2,1.3,2.2,2.2,3.3c0,0.1,0,0.4,0.1,0.6c-0.1,0.1-0.3,0.4-0.6,0.6c-0.7-0.3-1.3-1-1.5-1.8
		c-0.3-0.1-0.6,0.1-0.4,0.4c0.3,0.9,1.3,2.2,2.4,1.3c0.1-0.1,0.4-0.4,0.6-0.6c0.6,0.9,1.2,1.8,1.8,2.7c0-0.1-0.1-0.3-0.3-0.3
		c-0.1,0-0.3,0-0.3,0c-0.3-0.4-0.7-0.7-1.2-1c0,0.3,0.1,0.7,0.3,0.9c0.7,0.9,1.3,1.8,2.1,2.7c0,0.6,0.3,1,0.6,1.5
		c0.1,0.1,0.3,0.3,0.4,0.4c0.4,0.7,0.9,1.6,1.2,2.4c0.7,1.2,1.6,2.4,2.2,3.5c0.4,0.4,0.7,0.9,0.6,1.5c-0.1,0.1-0.3,0.3-0.4,0.4
		c0.1-0.4-0.1-0.7-0.4-1c0.1-0.1,0.1-0.3,0.3-0.4c-0.4-0.4-0.9-1-1.2-1.6c-0.1-0.1-0.3-0.3-0.3-0.4c-0.6-0.9-1-1.6-1.6-2.5
		c-0.3-0.6-0.7-1-1.2-1.5c-1-0.9-1.5-2.4-2.7-3c0-0.1-0.1-0.3-0.1-0.3c-0.6-0.6-1.2-1.2-1.8-1.9c-0.1-0.3-0.6-0.1-0.9-0.3
		c-0.4-0.7-1-1.2-1.6-1.8c-0.1-0.3-0.3-0.4-0.4-0.7c-0.1-0.6-0.9-0.7-1.2-1.2c-0.9-0.9-1.9-1.6-2.8-2.5c-0.3-0.3-0.6-0.4-0.9-0.6
		c0-0.1,0-0.3,0-0.3c-0.9-0.6-1.6-1.5-2.5-2.1c-1.5-1.5-3.1-2.8-4.6-4.1c0-0.1,0-0.3-0.1-0.4c-0.6-0.1-0.6,0.4-0.9,0.9
		c-0.3,0.1-0.1,0.6-0.1,0.9c0.1-0.1,0.3-0.3,0.3-0.3c1.3,1.2,3,2.4,4.3,3.5c0.1,0,0.4,0,0.6,0c0,0.4,0.4,0.7,0.9,1
		c0,0.3,0,0.6,0.1,0.9c0.3,0.1,0.6,0.4,0.9,0.6c0.1,0,0.3,0.1,0.4,0.1c0,0.3,0.1,0.4,0.4,0.6c0.9,0.6,1.8,1.3,2.5,2.2l0,0
		c0.6,0.6,1.2,1.2,1.9,1.6v0.1c0.6,0.3,0.4-0.4,0.9-0.6c-0.1,0.3-0.3,0.6-0.4,0.9c0.4,0.4,1,0.9,1.5,1.3c1,0.7,1.8,1.8,2.8,2.7
		c0.3,0.6,1,1,1.5,1.5c0.1,0.3,0.3,0.6,0.7,0.7c0.3,0.6,0.7,1.2,1.3,1.8c0.6,0.6,0.9,1.5,1.6,2.1c0.4,0.7,0.9,1.3,1.5,2.1
		c0.6,0.9,1.3,1.6,1.8,2.7c0-0.1,0-0.1,0.1-0.3c0,0.6-0.1,1.2-0.3,1.9c0,0.1-0.1,0.3-0.1,0.3l-0.3,0.1c-0.3-0.9-0.7-1.8-1.2-2.7
		c-0.3-0.6-0.9-1-1.2-1.6C197.2,82.7,197,82.3,196.7,81.8z M198.4,106.2c-0.3-0.9-1-1.3-1.6-2.1c0.6,0,0.7,0.7,1.3,1
		c0.4,0.3,0.7,0.4,1,0.9C198.9,106.2,198.4,106.7,198.4,106.2z M197.4,105.8c-0.4,0-0.7-0.4-1-0.7l0.1-0.3
		C197,104.8,197.1,105.3,197.4,105.8z M198.1,106.7c-0.3-0.1-0.7-0.3-0.7-0.7l0.1-0.1C197.8,105.9,198,106.4,198.1,106.7z
		 M196.2,105.5L196.2,105.5l0.1-0.3c0.3,0.3,0.6,0.6,0.9,1c0.3,0.3,0.6,0.4,0.7,0.9h-0.1c-0.4-0.4-0.7-1-1.3-1.2
		C196.4,105.9,196.2,105.6,196.2,105.5z M188.5,111.4c0.4,0.1,0.3,1-0.1,0.6C188.1,111.7,188.1,111.1,188.5,111.4z M188.1,110.5
		c-0.3,0-0.4-0.6-0.1-0.4C188.1,109.9,188.4,110.5,188.1,110.5z M187.9,110.8c0.1,0.3,0,0.4-0.3,0.3
		C187.5,110.8,187.6,110.7,187.9,110.8z M187,108c0-0.4,1-0.4,0.6,0C187.3,108,187.2,108,187,108z M186.8,109.9
		c0.3,0,0.7,0.4,0.3,0.6C186.8,110.7,186.3,110.1,186.8,109.9z M183.8,110.1c0.3-0.3,0.6-0.3,1-0.3c0.1,0.1,0.3,0.3,0.4,0.6v0.1
		c-0.1,0-0.4,0.1-0.6,0.1c0-0.1,0-0.4,0-0.6C184.4,110.1,183.9,110.1,183.8,110.1z M184.8,109.3c0.4-0.6,1-0.3,1.5,0.1
		c0,0.1,0.1,0.3,0.1,0.4C185.9,109.9,185.6,109.3,184.8,109.3z M181.3,114.4c0.1-0.3,0.3-0.6,0.6-0.7c0-0.3-0.1-0.7,0.1-1
		c0.1-0.4-0.1-0.9,0.3-1.2c0,0.6-0.1,1-0.1,1.6c0.4-0.1,0.6-0.6,0.4-1c0.3,0,0.4,0.1,0.7,0.1c0,0.3,0,0.6,0,0.9l-0.3-0.1
		c0,0.3,0,0.6-0.1,0.9c-0.1,0-0.3,0.1-0.4,0.1c0.1,0.3,0.3,0.6,0.6,0.7c0,0.1,0,0.3,0,0.4c-0.1,0-0.3,0-0.4,0c0-0.1,0-0.4,0-0.6
		c-0.1,0-0.3,0-0.4-0.1c0.1-0.6-0.9-0.6-0.4,0C181.6,114.4,181.4,114.4,181.3,114.4z M178.2,113.5c0.1-0.3,0.4-0.6,0.7-0.4
		c0.3,0.1,0.4,0.3,0.7,0.4l0.1,0.1c-0.1,0.1-0.3,0.3-0.4,0.3c-0.1-0.3-0.3-0.4-0.4-0.7C178.6,113.5,178.3,113.5,178.2,113.5z
		 M172,117.2c0.1-0.3,0.4-0.4,0.7-0.4C172.9,117.2,172.4,117.3,172,117.2z M168,123.1c0-0.4,0.1-0.7,0.1-1.2c0.3,0,0.7,0,1,0
		c-0.1,0.3-0.4,0.4-0.6,0.7C168.4,122.8,168.1,122.9,168,123.1z M165.8,117.2c0.1,0.3,0.1,0.7-0.3,0.7l-0.1-0.1
		C165.3,117.3,165.5,117.2,165.8,117.2z M165.2,117.5c-0.4,0.3-1,0.1-1.5,0c0.3-0.3,0.6-0.6,0.7-0.9c0-0.3,0-0.6,0-0.9
		c0.3,0,0.6-0.1,0.9-0.1C165.3,116.1,165.3,116.9,165.2,117.5z M162.5,118.5c0.3-0.3,0.6-0.6,1-0.7c0.4,0.1,0.9,0.3,1.2,0.4
		c-0.1,0-0.4,0-0.6,0c-0.1,0-0.4,0.1-0.4,0.1C163.4,118.6,162.9,118.5,162.5,118.5z M161,118.2c0.3-0.3,0.6-0.6,0.9-0.7v-0.1
		c0-0.1,0.1-0.3,0.1-0.4c0.1,0.1,0.3,0.3,0.3,0.3c0.4,0.3,0,0.9-0.3,1C161.8,118.2,161.3,118.2,161,118.2z M157.8,122.3
		c-0.1-0.6-0.7-1.2-0.9-1.8c0.1,0,0.1,0.1,0.3,0.1l0.1,0.3c0.1,0,0.3,0,0.3,0c0.1,0.3,0.1,0.6,0.3,0.9c0.3,0.3,0.7,0.6,0.6,1.2
		C158.2,122.8,157.8,122.8,157.8,122.3z M154.5,120.9c0.6,0.1,1,0.7,1.5,1.2c0,0.1,0,0.4,0,0.4c0.1,0,0.4,0,0.6,0
		c-0.3-0.6-0.6-1.2-0.9-1.8c0.7,0.3,1.2,1,1.6,1.5c0,0.1,0,0.6-0.1,0.7c-0.7,0-1.5,0.1-2.2,0.1c0.1-0.3,0.4-0.3,0.7-0.3
		c-0.1-0.4-0.3-0.7-0.6-1C155,121.5,154.8,121.2,154.5,120.9z M152.9,123.4c0.1-0.6,0.3-1,0.1-1.6c0.3,0.4,0.6,0.7,0.9,1.2l-0.1,0.3
		c-0.1-0.1-0.4-0.4-0.6-0.6C153.2,122.8,153,123.2,152.9,123.4z M152.5,120.4c0.1,0,0.4,0,0.6,0c0.1,0.4,0.4,0.9,0.6,1.3
		C153.2,121.5,152.6,121,152.5,120.4z M134.6,116.9c0.1,0.1,0.3,0.4,0.4,0.6c0.3,0,0.4-0.1,0.7-0.1c0.1,0.6,0,1.2,0,1.8
		c0.1-0.3,0.4-0.6,0.7-0.9c0.9,0.6,0.1,1.9-0.9,1.8c-0.3,0.3-0.7,0.4-1,0.7C134.6,119.4,134.6,118.1,134.6,116.9z M127,109.5
		c0.1,0,0.3,0,0.4,0c0.7,0.6,1.6,1,2.4,1.6c-0.4,0.1-0.9-0.3-1.2-0.4C128.1,110.2,127.3,110.1,127,109.5z M120.4,89.4l0.1-0.1
		c0-1,0-1.9,0-3c0.3-0.6,0.1-1.3,0.3-2.1c0.1-1,0.3-2.2,0.9-3.1c0.3-0.7,0.3-1.6,0.7-2.4h-0.1c-0.1,0-0.4-0.1-0.6-0.1
		c0,0.3,0,0.4-0.1,0.7c0-0.3,0-0.6-0.3-0.6c-0.1,0.1-0.3,0.4-0.3,0.7c0,0.1,0,0.4-0.1,0.6c-0.1-0.3-0.1-0.7-0.3-1
		c-0.1-0.7-0.7-1.3-0.6-2.1c0.3,0.1,0.7,0.1,1.2,0.3c-0.1,0.1-0.3,0.1-0.3,0.3c0,0.6,0,1.2,0,1.8h0.3c0-0.6,0.1-1.2,0.4-1.8
		c0,0.3,0,0.6,0.1,0.9c0.1,0,0.3,0,0.3,0.1l0.1-0.3c0,0.1,0,0.4,0.1,0.4c0.1-0.4,0.3-0.9,0.4-1.3c0.1-0.1,0.1-0.4,0.1-0.6
		c1-1.8,1.9-3.5,2.8-5.3c1.6-1.5,2.7-3.5,4.4-5c0.7-0.6,1.3-1.5,1.9-2.2c0.1-0.3,0.4-0.4,0.6-0.7c0.1,0,0.3,0.1,0.4,0.3
		c-1,1.2-2.1,2.2-3,3.4c-1.3,1.2-2.2,2.8-3.3,4.3c-0.3,0.6-0.7,1-0.7,1.8c0.4-0.4,0.7-1,1-1.6c0.7-1.3,2.1-2.4,3-3.7
		c0.9-0.9,1.3-2.1,2.2-3c0.1-0.1,0.4-0.4,0.7-0.3c-1.2,1-2.1,2.5-3.1,3.5c-0.4,0.4-0.7,0.9-1,1.3c-0.1,0.1-0.3,0.3-0.4,0.4
		c-0.1,0-0.3,0.1-0.4,0.1c-0.1,0.7-0.7,1.2-1,1.9c0,0.1,0.1,0.3,0.1,0.4c-0.1,0.1-0.3,0.1-0.6,0.3c0,0.1,0.1,0.4,0.1,0.6
		c0.9-0.9,1.8-1.8,2.5-2.8c0.6-0.7,1.2-1.2,1.8-1.9c0.3-0.4,0.6-1,1.2-1.3c0,0.6-0.6,1-1,1.3c0,0.1,0.1,0.4,0.3,0.6l0.3-0.1
		c0,0.3,0,0.6-0.1,0.9c-0.3,0.1-0.6,0.1-0.6,0.6c-0.6,1-1.6,1.8-1.9,3c-0.1,0-0.1,0-0.3,0c-0.1,0.3-0.1,0.4-0.3,0.7
		c-0.1,0.1-0.1,0.3-0.3,0.4c0.1-0.3,0.1-0.6,0.1-0.9c0.1-0.1,0.1-0.3,0.3-0.4c0.3-0.9,0.9-1.9,1.6-2.5c0.1-0.3,0.3-0.4,0.3-0.6
		c0.1,0,0.3-0.1,0.4-0.3c0.4-0.3-0.1-0.6-0.3-0.7c-0.9,1.3-1.9,2.4-2.8,3.7c-0.9,1.3-1.6,2.8-2.2,4.3c-0.1,0.4-0.3,0.9-0.3,1.5
		l-0.1,0.1l-0.1,0.1c0,0,0,0.1,0,0.3c-0.1,1-0.4,1.9-0.6,2.8c-0.1,0.3-0.1,0.6-0.3,1c-0.4,0.7-0.4,1.6-0.4,2.5
		c-0.1,0.9-0.3,1.8-0.3,2.7c0,0.7-0.1,1.3,0,2.1c0,1.5,0.1,2.8,0.6,4.1c1.3,2.8,2.8,5.6,4.9,8c0.9,0.6,1.6,1.3,2.4,2.1
		c0.4,0.4,0.7,1.2,1.5,1.3c0.3,0.4,0.9,0.7,1.5,1.2c0.9,0.7,1.8,1.2,2.7,1.8c0.6,0.4,1.3,0.6,1.9,0.9c0.7,0.3,1.3,0.7,2.1,0.7
		c0.4,0.6,1.3,0.6,1.9,0.7c1,0.3,2.1,0.3,3.1,0.6c0.3,0,0.6,0,0.9,0c1.3,0.1,2.7,0.6,4,0.6c1.2,0.1,2.5,0,3.7,0.1
		c0.6,0.1,1.3,0.1,1.9,0.1c0.9,0,1.6,0,2.4,0c1.3,0,2.7-0.1,4-0.4c1.6-0.4,3.3-0.3,4.9-1c1-0.1,2.1-0.3,3-0.9
		c0.7-0.3,1.5-0.6,2.2-0.7c0-0.1,0-0.4,0-0.6c-0.3,0-0.6,0.1-0.9,0.1c0.4-0.1,0.9-0.3,1.2-0.3c0.3-0.1,0.6-0.3,0.7-0.6l0.1-0.1
		c0,0,0.1-0.1,0.3-0.1l0.3-0.1c0,0.1,0,0.3,0,0.3c-0.4,0.4-1.2,0.7-1.8,0.9c0.1,0.1,0.3,0.3,0.3,0.4c0.7-0.3,1.5-0.7,2.2-1v-0.1
		c0,0,0.1-0.1,0.1-0.3c0.3,0,0.4-0.1,0.7-0.1c0.6,0,1-0.3,1.5-0.4c0.9-0.6,1.9-0.9,2.8-1.5c0.7-0.6,1.9-0.4,2.4-1.2
		c0.1-0.1,0.4-0.1,0.6-0.1c0.3-0.1,0.4-0.1,0.7-0.3c0.3-0.1,0.6-0.4,0.9-0.4c1.9-0.9,3.7-2.2,5.3-3.5c-0.1,0-0.1-0.1-0.3-0.1V100
		l0.1-0.1c0.3-0.4,0-0.9-0.1-1.3c-0.1-0.6-0.1-1.3-0.3-2.1c0.1,0,0.3,0,0.4,0c0,0.6,0,1.2,0,1.8c0,0.4,0.1,0.7,0.1,1.2h0.3
		c0,0.3-0.1,0.4-0.1,0.7c0.9-0.4,1.3-1.2,2.1-1.6c0.6-0.4,1.2-0.9,1.8-1.3c0.3-0.4,0.7-0.9,1.3-1.2c0.1-0.3,0.4-0.6,0.7-0.9h0.1
		c0.3,0.3,0,0.7,0,1c-0.1,0.9-0.1,1.8-0.1,2.5c-0.7,0.7-1.5,1.5-2.2,2.2c-0.4,0.3-0.9,0.4-1.3,0.7c-0.3,0.4-0.7,0.9-0.9,1.3
		c0.4-0.3,0.9-0.6,1.2-0.9c0.1,0,0.1,0.1,0.3,0.1c-0.1,0.1-0.3,0.3-0.3,0.3c-0.3,0.3-0.4,0.9-0.9,1c-0.9,0.4-1.6,1-2.5,1.6
		c-0.3,0.6,0.6,0.6,0.9,0.7c0-0.1,0-0.6,0-0.7c0.1,0,0.4,0,0.6,0c0.3-0.3,0.6-0.6,0.9-0.7c-0.1,0.3-0.3,0.4-0.4,0.6
		c0.1,0.1,0.1,0.4,0.3,0.6c0.1,0,0.3,0.1,0.4,0.3l0.1,0.1c0.1,0.1,0.4,0.4,0.6,0.6c0-0.3,0-0.6,0.1-0.9c0.1-0.1,0.4,0,0.6,0
		c-0.3,0.1-0.4,0.4-0.6,0.7c0,0.1,0,0.4,0,0.6c-0.3,0-0.4-0.1-0.4-0.4c-0.1,0-0.4-0.1-0.6-0.1c0-0.3-0.1-0.6-0.6-0.7
		c0,0.4,0,1,0,1.5c0.1,0,0.4,0,0.6,0c0.3,0.3,0.6,0.7,0.7,1.2c-0.3-0.1-0.6-0.3-0.9-0.4c0,0.4,0,0.9-0.1,1.2
		c0.3,0.1,0.4,0.3,0.7,0.4c0-0.4,0.4-0.6,0.7-0.6c-0.1-0.1-0.3-0.6-0.3-0.7c0.4,0.3,0.9,0.6,1.2,1c0-0.1,0.1-0.4,0.3-0.6
		c-0.3-0.4-0.7-0.7-1-1.2l0.1-0.1c0.6-0.1,1,0.4,0.9,1c0.1,0,0.4,0,0.6,0c-0.3,0.3-0.4,0.6-0.7,0.7c-0.4,0-0.9,0-1.3,0
		c-0.1,0.4-0.4,0.9-0.6,1.5c0-0.3-0.1-0.7-0.3-1c-0.1,0-0.3,0-0.3,0c-0.1-0.6-0.7-0.9-1.2-1.3c-0.1,0.4-0.1,0.7-0.3,1.2
		c0.1,0.3,0.1,0.4,0.3,0.9c-0.6-0.1-0.7-0.4-0.9-1c-0.3,0.1-0.6,0-0.6-0.4c-0.3,0-0.4,0.3-0.4,0.6c-0.1,0-0.3,0-0.4,0
		c0-0.4,0-0.7,0-1.2c-0.1,0-0.6,0-0.7,0c0,0.1,0.1,0.4,0.1,0.6c-0.6-0.4-0.3-1.2-0.6-1.8c0.4,0.1,1,0.4,0.9,1c0.4-0.3,1,0.1,0.9,0.7
		c0.1,0,0.4-0.1,0.6-0.1c0.1,0.1,0.3,0.4,0.3,0.6c0.1-0.1,0.3-0.3,0.4-0.4c-0.3-0.3-0.6-0.4-1-0.6l0.1-0.3c0.1,0.3,0.4,0.4,0.6,0.7
		c0.1-0.1,0.3-0.3,0.4-0.3l-0.3-0.3l-0.1-0.4c-0.1,0-0.4,0-0.6,0c0.1-0.1,0.1-0.6,0.3-0.4c0.3,0.1,0.6,0.3,0.7,0.4
		c0,0.1,0.1,0.4,0.1,0.6c0.1,0,0.4,0,0.6-0.1c0,0.1,0.1,0.3,0.1,0.4h0.3c0.1-0.4,0-1,0-1.5c-0.1,0.3-0.3,0.4-0.4,0.7
		c0-0.1,0.1-0.4,0.1-0.6c-0.1-0.1-0.3-0.3-0.4-0.4c0.1,0,0.3-0.1,0.4-0.1c-0.1-0.4,0-1.2-0.7-1c0,0.6,0,1.2,0,1.8
		c-0.1-0.4-0.3-0.9-0.4-1.3c-0.3-0.1-0.7-0.3-0.9-0.7c-1.2,1-2.8,1.3-4,2.5c-1.9,1.2-3.8,2.2-5.8,3.1c0,0.1-0.1,0.4-0.1,0.6
		c0.6-0.1,1.2-0.4,1.6-0.7c0,0.1,0,0.3,0,0.4c-0.7,0.1-1.5,0.3-2.2,0.7v-0.1c0.1,0,0.3-0.1,0.4-0.1l0.1-0.4
		c-0.7,0.3-1.6,0.4-2.2,0.9c-0.6,0.3-1.3,0.3-1.8,0.7c-0.3,0.1-0.6,0.3-1,0.3c0.1,0,0.3,0.1,0.4,0.1c-0.3,0.1-0.6,0.1-0.7,0.3
		c-0.9,0.4-1.8,0.7-2.7,0.9c-0.6,0.1-1.2,0.3-1.6,0.6l-0.1,0.1c-0.4,0-0.9,0.1-1.2,0.1c-0.3,0.3-0.7,0.3-1,0.1l-0.1,0.1
		c-0.7-0.1-1.6,0.3-2.1-0.3c0.4-0.1,1-0.1,1.5-0.3c0.6-0.1,1.2-0.1,1.6-0.4c1-0.1,2.1-0.3,3-0.7c1-0.6,2.4-0.7,3.3-1.5
		c-0.6,0.1-1.2,0.3-1.8,0.6c-0.3,0-0.4,0-0.7,0c-0.1,0.1-0.3,0.3-0.3,0.3c-0.9,0.3-1.8,0.6-2.8,0.9c-3.4,0.4-6.9,1.2-10.5,1.2
		c0.1,0.1,0.4,0.3,0.6,0.6c0.1,0,0.6,0,0.7,0c0.1-0.1,0.1-0.3,0.3-0.4c0.1,0.1,0.1,0.4,0.3,0.6c1-0.1,2.1-0.4,3.1-0.4v0.3
		c-1,0.1-1.9,0.3-3,0.6h-0.1c-0.4,0-1,0.4-0.3,0.6c0,0.3-0.4,0.7,0,1c0.3,0.3,0.7,0.1,1.2,0.1c0,0.1,0,0.3-0.1,0.3
		c-0.4,0.3-0.9,0.6-1.2,0.9c-0.1,0-0.4,0-0.6,0.1c-0.4-0.6-0.7-1.3-0.6-2.1c0.1-0.1,0.6-0.3,0.4-0.7l-0.1-0.1
		c-0.1,0.1-0.3,0.3-0.3,0.3c-0.9,0.7-0.1,1.9,0.3,2.8c0.1,0,0.4,0,0.6,0v0.1c-0.1,0.4-0.3,0.9-0.3,1.2c0.1,0,0.3,0.1,0.3,0.1
		c-0.3,0.1-0.6,0.3-0.7,0.4c0-0.4-0.1-0.7-0.4-1c-0.1-0.1-0.3-0.3-0.4-0.4c-0.1-0.3-0.4-0.7-0.7-0.9c-0.6-0.4-1.3-0.1-2.1-0.1
		c-1,0-2.2-0.1-3.3,0.3c-0.1-0.1-0.3-0.3-0.4-0.4c-0.1,0-0.6,0-0.7,0c0-0.4,0-1-0.1-1.5c-0.3-0.4-0.9-0.6-1.3-0.7
		c-0.1,0-0.4-0.1-0.6-0.1c0.3-0.1,0.6-0.1,1-0.3c0.7,0.1,1.3,0.9,2.1,1c0,0,0.1,0.1,0.1,0.3s0.1,0.4,0.3,0.6
		c0.7,0.1,1.5-0.1,2.2-0.1c1.2,0,2.2-0.1,3.3-0.7l0.1-0.3c0-0.1,0.1-0.3,0.1-0.4c0-0.1,0.1-0.4,0.1-0.6c-0.9,0.1-1.9,0-3,0.1
		c-1,0.1-2.1,0-3.1-0.1c-0.6-0.1-1-0.1-1.6-0.3c-0.3,0-0.6-0.1-1-0.1c-1.3-0.4-3-0.3-4.3-0.4c-0.6,0-1-0.4-1.6-0.3
		c-0.9,0-1.8-0.3-2.8-0.4c-0.3-0.1-0.7-0.1-1.2-0.3c-1-0.6-2.1-1-3.1-1.3c-0.9-0.1-1.6-0.6-2.5-1c-0.6-0.3-1-0.7-1.8-0.9
		c-0.6-0.4-1.5-0.7-2.1-1.5c-0.1-0.4-0.6,0-0.9,0.1c0.4,0.3,0.9,0.6,1.2,0.9c-0.6-0.3-1-0.6-1.6-1c0.1-0.1,0.3-0.4,0.3-0.6
		c-1-0.7-2.1-1.3-2.8-2.4c-1.3-0.7-1.9-2.2-2.7-3.4c-0.6-0.7-0.9-1.8-1.6-2.5c0-0.1-0.1-0.3-0.1-0.4c-0.4-0.4-0.7-1.2-1-1.8
		c-0.1-0.3-0.4-0.4-0.3-0.9c0.1-0.4-0.3-1,0-1.5c-0.1,0.1-0.3,0.3-0.4,0.4c0-0.3,0-0.6,0.1-0.9c0-0.1-0.1-0.3-0.1-0.3
		c0-0.3,0.1-0.6,0.1-0.9c0.1,0,0.3,0.1,0.6,0.1c0.1,1.2,0.3,2.5,1,3.4c0-1.3-0.4-2.8-0.9-4.1c0.1-0.4,0-0.9,0-1.3
		c-0.1,0.1-0.3,0.4-0.6,0.6c-0.1-0.6-0.3-1.3-0.6-1.9C120.2,91.3,120.2,90.3,120.4,89.4z M190,107.4h-0.1c-0.3-0.1-0.6-0.1-0.9-0.3
		c-0.1,0.1-0.3,0.3-0.3,0.4l-0.3-0.3V107c0.6-0.1,1-0.9,1.6-0.7C190.2,106.7,190,107.1,190,107.4z M193.3,104.3
		c0.4-0.3,0.9-0.6,1.2-0.9c0.1-0.1,0.3-0.3,0.4-0.4c0.4,0.4,0,1,0,1.5c-0.1-0.1-0.3-0.3-0.4-0.3c-0.3,0.1-0.4,0.1-0.7,0.3
		C193.6,104.3,193.3,104.3,193.3,104.3z M193.3,105.3c-0.1-0.1-0.4-0.1-0.6-0.3c0-0.3,0.1-0.4,0.1-0.7
		C193.4,104.5,193.6,104.9,193.3,105.3z M194,104.5c0.3-0.1,0.4,0.1,0.6,0.3v0.1C194.4,105,193.8,104.6,194,104.5z M127,93.4
		c0,0.3,0,0.6,0.1,0.9c0.3,0.7,0.6,1.6,0.7,2.5c-0.6-0.3-0.7-1-0.9-1.6c-0.1-0.7-0.3-1.5-0.4-2.2C126.6,92.9,126.7,93.2,127,93.4z
		 M126.9,92.3c-0.3-0.1-0.3-0.3-0.1-0.6C126.9,91.9,127,92,126.9,92.3z M128.1,100.3c-0.4-0.6-0.9-1.2-1.2-1.9
		c-0.1-0.3-0.4-0.6-0.6-0.9c0.1-0.3,0-1,0.3-0.9c0.4,0.6,0.6,1.3,0.9,1.8C127.5,99.3,128.2,99.7,128.1,100.3z M118.9,91.9
		c0,0.3-0.1,0.7-0.1,1c-0.3-0.3-0.6-0.6-1-0.3c-0.1,0-0.1-0.1-0.3-0.3c0.1-0.3,0.3-0.4,0.6-0.6c-0.3-0.1-0.4-0.3-0.7-0.4
		c0-0.1,0.1-0.4,0.1-0.4c0.6,0,1.2,0,1.8,0C119.2,91.2,119.2,91.6,118.9,91.9c0.3,0,0.4-0.1,0.6-0.3c0-0.9,0-1.8,0-2.7
		c0.1,0,0.3,0,0.4,0c0,0.3,0,0.7-0.1,1c0,0.7,0,1.5,0,2.2C119.8,92,119.2,92.3,118.9,91.9z M114.8,91.4c0.3-0.1,0.7-0.3,1-0.4
		c0.1,0,0.3,0,0.3,0c0.3,0,0.7,0,0.9,0l-0.1,0.3c-0.4,0.1-1,0-1.3,0.4c-0.1,1.2,0,2.5,0.1,3.7c0.1,0,0.4,0.1,0.4,0.1
		c0,0.1,0,0.4,0.1,0.6c0.6-0.1,1.2-0.3,1.8-0.4c0.1,0.3,0.3,0.7,0.4,1.2c0,0.1,0.1,0.3,0.1,0.4s0,0.4,0,0.6
		c-0.1-0.1-0.1-0.3-0.3-0.4c0-0.1,0-0.3-0.1-0.4c-0.1-0.3-0.4-0.7-0.7-1c0.1,0.4,0.6,1,0.1,1.5c-0.1-0.3-0.1-1-0.9-0.9
		c0.1,0.7,0.6,1.5,0.9,2.1c0,0.1,0.1,0.6,0.1,0.7c-0.1,0-0.6,0-0.9,0V99c0.1,0,0.4,0,0.6,0c-0.3-0.9-0.6-1.6-1-2.4
		c-0.1,0-0.3,0.1-0.4,0.1c0.4,0.7,0.9,1.6,0.7,2.5c-0.3-0.9-0.6-1.6-1-2.4c0-0.1,0-0.3-0.1-0.3c-0.1,0-0.3,0.1-0.3,0.1
		c-0.4,0-0.4-0.6-0.4-0.9C114.9,94.3,114.9,92.9,114.8,91.4z"/>
	<path d="M209.5,99.3c-0.9,0.4-1.9,1-3,1.2c0.6-0.6,1.5-0.6,2.1-1c1.2-0.7,2.4-1.2,3.4-1.9c1.2-0.7,2.4-1.8,3.5-2.4
		c-0.4,0.9-1.5,1.3-2.2,1.9C212.2,97.8,210.7,98.4,209.5,99.3z"/>
	<path d="M159,124.9c0.3-0.4,0.6-1,1.2-1.3c-0.1,0.6-0.6,1-0.7,1.5c-0.4,0.7-0.6,1.6-1.3,2.1c0-0.1-0.1-0.3-0.1-0.3
		C158.5,126.3,158.5,125.4,159,124.9z"/>
	<path d="M178,83.6c-0.3-1.3,0-2.7-0.3-3.8c-0.1-0.4-0.1-1-0.6-1.2c0.1-0.4-0.1-1-0.3-1.5c-0.4,0.1-0.4,1.2,0,1.3
		c0.1,0.7,0.3,1.3,0.4,2.1c0.1,0.3,0,0.4-0.1,0.7c-0.3-0.4-0.4-1-0.4-1.5c0,0.3,0,0.7-0.1,1c-0.4-0.1-0.7-0.4-1.2-0.6
		c0-0.1-0.1-0.3-0.1-0.4c-0.1-0.6-0.7-0.1-1,0c-0.6-0.6-0.6-1.5-1.2-2.1c-0.3,0-0.4-0.1-0.7-0.1c-0.1,0-0.4-0.1-0.6-0.1
		c0.1,0.3,0.4,0.7,0.6,1c-0.4-0.1-0.9-0.3-1.3-0.4c0,0.1,0.1,0.3,0.1,0.4c0.1,0,0.4,0,0.6,0.1c0.4,0.1,1,0.4,1.5,0.6
		c-0.3-0.3-0.6-0.6-0.6-1c0.4,0.1,0.7,0.4,0.9,0.7c0.7,1.2,1,2.7,0.9,4H174c-0.1-0.1-0.4-0.3-0.6-0.6c-0.6-0.3-0.9-0.7-1.2-1.3
		c-0.3-0.3-0.4-0.7-0.7-1.2c-0.6-0.6-1.2-1-1.6-1.6c-0.1-0.3-0.4-0.4-0.7-0.7l-0.1-0.1c-0.4-0.3-0.7-0.7-1.2-0.9
		c-0.7-0.3-1.3-0.7-2.2-0.6c-0.3,0-0.6,0-0.9,0c-0.1-0.3-0.4-0.6-0.7-0.7c0-0.4,0.3-0.7,0.6-0.9c0,0.1,0,0.6,0,0.7
		c0.3-0.1,0.6-0.1,0.9-0.3c0.6,0.4,1.6,0.9,2.1,0.1c0.1,0.3,0.3,0.6,0.4,0.9c0.7,0.4,1.5,0.9,2.2,1.2l0.1,0.1c0-0.9,0.6,0.1,0.9,0.1
		c0.1,0.1,0.3,0,0.4-0.1c0.3-0.4,0.1-1.2-0.1-1.6c-0.6-0.6-1.5-0.9-2.2-1.3c-0.1,0-0.3-0.1-0.4-0.3c-0.3-0.4-0.6-0.9-1.2-0.9
		c-0.3-0.4-0.7-0.3-1.2-0.1c-0.9-0.1-1.8-0.4-2.7,0c-0.1,0.1-0.3,0.1-0.4,0.3c-0.3,0.1-0.6,0.3-0.7,0.6c0.1,0.1,0.3,0.3,0.4,0.3
		c-0.1,0.3-0.4,0.6-0.6,1c-0.1,0.3-0.3,0.7-0.4,1l-0.1,0.1c0-0.3,0.1-0.7,0.1-1c-0.4,0.1-0.9,0.3-1.3,0.6c-0.3,0.1-0.6,0.4-0.9,0.6
		c0-0.1,0-0.3-0.1-0.6c-0.1,0-0.3,0-0.3,0c0,0.4,0.1,0.9-0.3,1c-0.7,0.1,0,0.7-0.1,1.2c0.1,0.4-0.3,1.3,0.4,1.3
		c0-0.3,0.1-0.6,0.1-0.7c0,0.3,0.1,0.7,0.1,1.2c0.3-0.1,0.6-0.3,0.9-0.4c0,0.3,0.1,0.6,0.1,0.9c0.1,0.1,0.4,0.1,0.6,0.1
		c0.1-0.7-1-1.3-0.4-2.2l0.3,0.3c-0.1,0.3,0.3,0.4,0.4,0.6c0.3,0.1,0.6-0.3,0.9-0.4c0.1,0.1,0.3,0.1,0.6,0.3c0,0.7,1,0.4,1.5,0.7
		c0.6,0.1,1,0.4,1.6,0.4c0,0.1,0.1,0.3,0.1,0.3c1,0.6,2.4,0.9,3.5,1c0.6,0.1,1,0.4,1.5,0.6c0,0.1,0,0.3-0.1,0.3s-0.3,0-0.4,0
		c-0.3,0.1-0.6,0.3-0.7,0.4c-0.4-0.1-0.9-0.3-1.3-0.3c-0.3-0.6-1-0.4-1.5-0.6c-0.1,0.1-0.3,0.4-0.3,0.6h-0.1
		c-0.3,0.1-0.6,0.1-0.9,0.1c0-0.1,0-0.4,0-0.6c-0.1,0-0.3,0-0.6,0c0-0.4-0.1-1-0.1-1.5c-0.1,0-0.3-0.1-0.3-0.1
		c0.1,0.4,0.1,0.9,0.1,1.5c-0.6-0.4-1.2-0.9-1.6-1.3c-0.1-0.1-0.1-0.4-0.3-0.6c-0.1,0-0.3,0-0.4,0c0,0.3,0,0.6,0.1,0.9
		c0.3,0.3,0.6,0.4,0.9,0.6c0,0.3-0.1,0.4-0.1,0.7c0.1,0.3,0.4,0.4,0.6,0.7c0.1,0.1,0.1,0.3,0.3,0.4c0-0.3,0-0.4,0-0.6
		c-0.6,0.1-0.9-0.7-0.3-0.9c0.6,0.9,1.8,0.9,2.4,1.6c0.7,0.3,1.3,0.6,1.9,0.9c0.1,0,0.1,0.1,0.3,0.3c0.1,0,0.4,0,0.6,0
		c0.1,0.1,0.3,0.3,0.4,0.4c-0.4,0.1-0.9,0.1-1.3,0.1c0.3,0.4,0.4,1.2,1,1.3c-0.1-0.3-0.1-0.6-0.1-0.9c0.9-0.1,1,1,1.9,0.9
		c0-0.1,0.1-0.4,0.1-0.6c0.4,0.3,0.9,0.7,1.3,0.6c-0.1-0.3-0.1-0.7-0.4-0.9c-0.3-0.3-0.7-0.4-1-0.7c0-0.3-0.4-0.4-0.1-0.7
		c0.3-0.1,0.6-0.3,0.9-0.3c0.4,0.1,0.3-0.4,0-0.4c0-0.1,0-0.3,0-0.4c0.1-0.1,0.1-0.1,0.3-0.3c0.3,0.4,0.6,0.7,1.2,0.7
		c0.4,0.7,1,1.5,1.8,1.9c0.1,0.1,0.1,0.3,0.3,0.4c0-0.9-0.9-1.5-1.3-2.1c0.3,0.1,0.4,0.3,0.7,0.4c0-0.1,0.1-0.3,0.1-0.4
		c0.4,0.1,0.6,0.4,0.9,0.6c0-0.4,0-0.9,0.3-1.2c0.1,0.4,0.6,1,0.1,1.6c0,0.1,0,0.3-0.1,0.3c0,0,0.1,0.1,0.3,0.3
		c0.1-0.1,0.1-0.3,0.3-0.6c0.1-0.1,0.4-0.4,0.6-0.4c0.1,0.3,0,0.9,0.4,1C178.3,84.6,178.2,84.1,178,83.6z M164.4,78.7
		c0.3,0,0.6,0,1,0c0,0.3,0,0.6,0,0.9c-0.1,0-0.4,0-0.6,0C164.7,79.3,164.6,79,164.4,78.7z M167.4,77.4c-0.9,0.1-1.8,0.6-2.7,0.9
		c-0.1-0.3-0.3-0.7-0.3-1c0.3,0,0.6,0,0.9,0c0.3-0.1,0.4-0.3,0.6-0.6c0.1,0,0.4,0.1,0.6,0.1c-0.1,0.3-0.3,0.4-0.4,0.7
		c0.3,0.1,0.6-0.1,0.9-0.1C166.9,77.4,167.2,77.4,167.4,77.4z M167.8,78.1c0,0.1-0.1,0.4-0.1,0.6c-0.1,0-0.3-0.1-0.3-0.1
		C167.1,78.3,167.5,77.8,167.8,78.1z M168.4,79.3c-0.3,0.1-0.6,0.4-0.9,0.6c-0.1,0-0.4,0-0.6,0c-0.1-0.1-0.4-0.3-0.6-0.4
		c-0.1,0-0.4,0-0.6,0c-0.1-0.4,0.1-0.9,0.3-1.3c0.1,0,0.4,0,0.6-0.1c0,0.1,0,0.3,0,0.3c-0.4,0.1-0.4,0.6-0.4,1
		c0.9,0.3,1.5-0.3,2.2-0.7C168.4,78.9,168.4,79.2,168.4,79.3z M170,81.4c-0.9-0.1-1.8-0.4-2.5-1c0.4,0,0.9-0.1,1-0.4
		c0.1,0,0.4-0.1,0.6-0.1C169.6,80.2,169.9,80.8,170,81.4z M175.7,82.9c-0.1,0-0.6,0.1-0.7,0.1c0-0.1-0.1-0.4-0.1-0.6
		c0-0.4,0-0.7,0-1.2c0.1,0.1,0.4,0.3,0.6,0.3c-0.1,0.1-0.1,0.3-0.1,0.6l0.1,0.1c0.1,0.1,0.1,0.3,0.3,0.3
		C175.5,82.6,175.7,82.9,175.7,82.9z"/>
	<path d="M157.5,42.5c-0.6,0.3-1-0.1-1.5-0.3c-0.1-0.3-0.1-0.4-0.3-0.6c0.1-0.4,0.3-0.9,0.4-1.2c0.1,0,0.3,0,0.4,0.1
		c-0.1,0.4-0.1,0.9-0.3,1.5c0.4,0.3,0.9,0.3,1.5,0.3c0-0.1,0-0.3,0-0.4c0.1,0,0.4,0,0.6,0C158.2,41.9,157.9,42.4,157.5,42.5z"/>
	<path d="M157.6,115.8c0.6,0,1,0,1.5,0.1c-0.1,0.4,0.1,1.2-0.6,1.2c0-0.3,0.1-0.6,0.1-1c-0.6-0.1-1.2-0.3-1.6-0.1
		c0.3,0.1,0.4,0.3,0.7,0.6c-1.2,0-2.4,0.1-3.5,0c0-0.1,0.1-0.3,0.1-0.3s-0.1-0.1-0.1-0.3C155.3,116.1,156.4,115.8,157.6,115.8z"/>
	<path d="M161,55.2c-0.3-0.3-0.9-0.4-1.2-0.9c0.3-0.1,0.6,0,0.7,0.3c0.3,0.1,0.6,0.1,1,0.3C161.6,55.2,161.3,55.7,161,55.2z"/>
	<path d="M175.2,17.7c0.3-0.1,0.6-0.1,0.9,0.1c0,0.1,0,0.4,0,0.6c0,0-0.1,0-0.1-0.1C175.7,18.1,175.4,18,175.2,17.7z"/>
	<path d="M149.3,73.1c-0.7,0-1-0.7-1.3-1.3c0.4,0.1,0.9,0.4,1.3,0.7C149.5,72.5,149.6,73,149.3,73.1z"/>
	<path d="M142.1,78.6c-0.1-0.1-0.1-0.7,0.1-0.7C142.3,78,142.4,78.6,142.1,78.6z"/>
	<path d="M151.6,80.8c0.1-0.4,0-0.9,0-1.3c0.6-0.1,0.4,0.7,0.6,1.2C152.3,81,151.7,81,151.6,80.8z"/>
	<path d="M172.7,84.5c0.6,0.3,0.9,0.9,1.3,1.2c0.4,0.6,1.2,0.9,1.2,1.6c-0.6-0.6-1.3-1-1.8-1.8C173.2,85.2,172.4,85.1,172.7,84.5z"
		/>
	<path d="M157.8,71.9h-0.1C156.9,71.3,158.4,71.5,157.8,71.9z"/>
	<path d="M180,73.3c0.3,0.9,1.3,1.3,1.3,2.4c0.1,0.1,0.3,0.3,0.3,0.3c0,0.1,0,0.4,0,0.6l-0.1-0.1c-0.7-1.5-1.9-2.7-2.5-4.3
		c0,0,0.1,0,0.3,0C179.2,72.5,179.8,72.8,180,73.3z"/>
	<path d="M121.1,88.6c0.1,1.5,0.1,3.1,0,4.6c-0.4-1.3,0-2.7-0.4-4C120.7,88.9,120.8,88.2,121.1,88.6z"/>
	<path d="M195.9,56.7c-0.7-1-1-2.5-2.1-3.4c-0.6-0.6-0.7-1.6-1.3-2.2c-0.4-0.4-0.6-1-0.9-1.5c-0.6-0.3-0.6-0.9-1.2-1.2
		c-0.4-0.3-0.6-0.9-0.9-1.2c-0.6-0.7-1.2-1.3-1.9-2.1c-0.3-0.3-0.9-0.3-1-0.6c-0.6-1-2.1-1.3-2.5-2.5c-0.4,0-1.2,0-1-0.7
		c0.1,0.1,0.1,0.3,0.3,0.3c0.1,0,0.4,0,0.6,0c1,1.2,2.7,1.8,3.4,3.1c0.4,0,0.7,0.3,1,0.6c0.6,0.1,0.7,0.9,1.5,1v-0.3
		c-0.3-0.4-0.7-0.7-0.9-1.2c-0.4-0.4-0.9-0.9-1.2-1.3c0-0.1,0.1-0.3,0.1-0.3c0.4,0.3,0.9,0.4,1.3,0.9c0.3,0.4,0.6,0.9,1,1.3
		c0.1,0.1,0.1,0.7,0.4,0.4c0.1-0.6,0.3-1.2,0.4-1.6c0.1,0,0.3,0,0.4,0c0,0.9,0.1,1.6-0.1,2.5c0.1,0.3,0.3,0.6,0.3,1
		c-0.1,0.4,0.3,0.9,0.4,1.3V49c0.1,0.3,0.1,0.7,0.6,0.7c-0.1-0.7-0.1-1.5-0.4-2.1c0.1-0.1,0.4-0.3,0.6-0.4c0.1,1.2,0.3,2.4,0.3,3.5
		c1.2,1.9,2.2,3.8,3.3,5.8C196.1,56.6,195.9,56.7,195.9,56.7z"/>
	<path d="M158.1,71.2c-0.1-0.3-0.1-0.4,0.1-0.4C158.4,71,158.2,71.2,158.1,71.2z"/>
	<path d="M206.6,97.7c0.1,0.3,0,0.4-0.3,0.3C206.1,97.8,206.3,97.7,206.6,97.7z"/>
	<path d="M170.3,69.6c-0.1-0.6-0.3-1.3-0.4-1.9c0.6,0.1,0.7,0.7,1,1.2C171.1,69,170.6,70,170.3,69.6z"/>
	<path d="M153.9,96c0.4,0.4,0.6,1.2,0.4,1.8c-0.3-0.4-0.4-0.9-0.7-1.3c-0.1,0-0.3,0.1-0.4,0.1c-0.1-0.6-0.1-1.3,0-1.9
		C153.8,95,153.9,95.4,153.9,96z"/>
	<path d="M162.2,68.5c0-0.3,0-0.4,0.3-0.3C162.5,68.4,162.5,68.5,162.2,68.5z"/>
	<path d="M165.6,84.4c0.3,0,0.6-0.1,0.6,0.3c0,0.3,0.3,0.9-0.1,1c-0.4-0.4-0.7-0.7-1.2-1.2C164.9,83.9,165.6,83.9,165.6,84.4z"/>
	<path d="M147.1,88.8c0.3,0.3-0.1,0.7-0.4,0.6C146.4,89.1,146.8,88.6,147.1,88.8z"/>
	<path d="M218.8,43.4c0.4,0.7,0.9,1.5,1.2,2.2c0,0.1,0,0.3,0,0.4h0.1c0.4,0.6,0.9,1.3,0.9,2.1c0.1,0.9,0.7,1.6,0.6,2.4
		c-0.9-0.4-0.9-1.6-1.3-2.4c-0.1,0-0.4,0-0.4,0c-0.1-0.6-0.4-1-0.7-1.5c-0.6,0.3-1.3-0.7-0.6-0.9c-0.1,0-0.4,0.1-0.6,0.1
		c0-0.1,0-0.4,0-0.6c-0.1,0-0.4,0-0.6,0c-0.3-0.4-0.6-0.9-0.7-1.2c0.1-1-0.9-1.6-0.9-2.7c0.3,0.1,0.6,0.1,0.6,0.4
		c0.4,0.9,0.6,2.1,1.3,2.8c0.1-0.7-0.9-1-0.4-1.8c0.6,0.6,0.6,1.3,1.2,1.9c0,0,0.1-0.1,0.3-0.1c-0.1-0.7-0.9-1.2-0.9-1.9
		C218.4,43.1,218.7,43.1,218.8,43.4z"/>
	<path d="M148.2,41.2c0.4,0.1,0,0.7-0.3,0.6C147.4,41.5,147.9,41,148.2,41.2z"/>
	<path d="M166.3,64c-0.1-0.6-0.4-1.5,0.1-1.9c0,0.7,0.7,1.5,0,2.1L166.3,64z"/>
	<path d="M167.1,67.8c-0.1-0.3-0.4-0.4-0.6-0.6c0,0.3,0,0.6,0,0.9c-0.1,0-0.4,0-0.6-0.1l0.3-0.3c0,0,0.1-0.1,0.3-0.3
		c-0.4-0.3-0.9-0.3-1.3-0.3c0-0.1-0.1-0.3-0.1-0.4c-0.1,0-0.3,0-0.4,0c-0.1,0-0.3,0-0.4,0c-0.1-0.1-0.3-0.3-0.4-0.3
		c0,0.4,0.1,0.7,0.1,1.2c-0.1-0.1-0.3-0.1-0.4-0.3c-0.3,0.1-0.7,0.3-1.2,0.3c0-0.1-0.1-0.3-0.1-0.4c-0.1-0.4-0.6-0.9-0.6-1.5
		c0.6,0.1,0.1,1,0.9,1c0.1-0.6-0.3-1.2-0.3-1.8c1.2,0,0.1,1.5,1,1.8c0.1-0.3,0.1-0.6,0.3-0.9c0.1,0,0.4,0.1,0.6,0.1
		c0.1-0.7-0.3-1.3-0.6-1.9c0.1-0.1,0.4,0,0.7-0.1c0-0.3-0.1-0.4-0.1-0.6c0.1-0.3,0.1-0.6,0.4-0.7c0.1,0.6,0.3,1.2,0.1,1.8
		c0,0.1,0.1,0.3,0.1,0.4c0.1,0.3,0.4,0.4,0.6,0.6c0-0.3,0-0.6,0-1c-0.3-0.7-0.4-1.5-0.4-2.2c0.1,0,0.4,0,0.6,0c0,0.4,0.1,0.7,0,1.2
		c0.4,0.6,0.4,1.5,0.4,2.4c0.1,0,0.4,0,0.7,0.1c-0.1-0.3-0.1-0.6-0.3-0.9c0.1-0.3,0.3-0.4,0.4-0.7c0.3,0.4,0.6,1.2,0.3,1.8
		c0.1,0.1,0.1,0.3,0.3,0.3c0,0.1,0,0.3-0.1,0.3c0,0.1,0.1,0.3,0.1,0.3c0.1,0,0.3,0,0.4,0.1C168,67.6,167.4,67.5,167.1,67.8z"/>
	<path d="M180.4,82.6c0,0.4,0,0.9,0,1.2C180,83.9,179.7,82.6,180.4,82.6z"/>
	<path d="M121,84.6c0.6-0.7,0.3-1.9,1-2.5c0,0.3,0.1,0.7-0.3,0.9c-0.3,1.5-0.6,2.8-0.6,4.3C121.1,86.4,121,85.5,121,84.6z"/>
	<path d="M208.6,87.6h-0.1C208.6,87.6,208.6,87.6,208.6,87.6z"/>
	<path d="M206.7,90.7L206.7,90.7c-0.4,0.9-0.9,1.8-1.5,2.8c-0.3,0.3-0.4,0.6-0.6,1c-0.4,1.3-1,2.7-1,4.1c0.1-0.1,0.3-0.3,0.3-0.4
		c-0.3,1-0.4,2.1-0.1,3c0.3,0.4,0.7,0.7,1,1c0.6,0.1,1,0.4,1.6,0.3c0-0.4-0.6-0.1-0.9-0.3l0.1-0.3c1.2-0.9,2.7-1.3,3.8-2.2
		c1.5-0.6,2.7-1.5,4-2.2c0.1-0.3,0.3-0.3,0.6-0.4c-0.3,0-0.4,0.1-0.7,0.1c-0.9,0.9-2.1,1.2-3.1,1.9c-1.2,0.7-2.4,1.2-3.5,1.9
		c-0.4,0.3-0.9,0.4-1.5,0.6c0,0.1,0.1,0.3,0.1,0.4c-0.3-0.3-1.2-0.1-0.9-0.7c-0.6,0.3-0.6-0.6-0.7-0.9c0-0.7-0.1-1.9,0.7-2.2
		c0.1,0.6,0.1,1.2,0.3,1.8c0,0-0.1,0.1-0.3,0.3c-0.1,0-0.1-0.1-0.3-0.1c-0.1,0.3,0.1,0.9,0.1,1.2c0.1-0.1,0.1-0.4,0.1-0.7
		c0.4-0.3,0.6,0.4,0.7,0.7c0.1-0.4,0-1,0.4-1.3c0.9-0.6,1.9-1,3-1.6c1.3-0.9,3.1-1.3,4.3-2.4c-1.2-0.1-1.8,1.2-3,1.2
		c0.9-0.6,1.3-1.6,1.3-2.7c0,0-0.1-0.1-0.3-0.3c0.3-0.7,1.6-0.6,1.5-1.6c-0.4,0.1-0.9,0.6-1.5,0.6c-0.1,0.3-0.1,0.4-0.3,0.7
		c-0.1-0.3-0.6-0.3-0.9-0.1l-0.1-0.1c0,0.1,0,0.4,0,0.6c0.4,0.1,0.3,0.7,0.4,1c-0.3,0.1-0.7,0-0.7,0.4c-0.9,0.1-1.6,0.7-2.5,1.2
		c-0.4,0-0.4-0.9,0-0.9c0.6-0.4,1.6-0.4,1.5-1.3c-0.4,0.1-0.9,0.3-1.2,0.6c0.1-0.6,1-0.6,1.3-1.2c0-0.3,0-0.4,0-0.7
		c-0.4,0-0.4,0.4-0.7,0.7c-0.3,0.1-0.4,0.3-0.7,0.4h-0.1c0-0.3,0.1-0.6,0.1-0.9c0.9-0.3,1.6-1,2.5-1.5c0.4-0.3,1-0.4,1.5-1
		c0.1-0.1,0.6-0.1,0.6-0.4c0.6,0.1,1.3-0.4,1.5-1c-0.4,0-0.7,0.1-1.2,0.1c0-0.4,0-0.9,0-1.2c0.1,0,0.3-0.1,0.4-0.3
		c-0.1-0.1-0.1-0.3-0.1-0.6c-0.1,0.1-0.3,0.3-0.3,0.4c-0.4,0.1-0.4-0.3-0.3-0.6c0.4-0.1,0.7-0.3,1-0.4c0.1,0.1,0.4,0.1,0.6,0.3
		c0.1,1,0.6,1.9,0.9,2.8c-0.9,0.6-1.9,1-2.7,1.8c-0.6,0.4-1.3,0.7-1.8,1.3c-0.1,0-0.4,0.1-0.6,0.1c0,0.1,0,0.4-0.1,0.6
		c0.9-0.7,2.1-1.2,3.1-1.9c0.9-0.4,1.6-1.2,2.5-1.6c-0.1-0.6-0.4-1.2-0.6-1.8c-0.4-0.6-0.6-1.2-1-1.8c0.3-0.3,0.4-0.3,0.7-0.3
		c0.3,0.6,0.7,1,1,1.6c0.4,1.2,0.6,2.5,1.3,3.4c0-0.4-0.1-0.9-0.3-1.3c0.6-0.1,0.4-0.6-0.1-0.4c-0.1-0.3-0.1-0.4,0.1-0.6
		c-0.1-0.4-0.3-1-0.4-1.5c-0.1-0.6-0.4-1-0.7-1.5c0-0.1,0-0.4,0-0.6c-0.1-0.1-0.3-0.3-0.4-0.4c-0.1,0-0.3,0-0.4-0.1
		c-0.9-0.4-1.9,0-2.7,0.4c-0.6,0.4-1.5,0.6-1.9,1.3c-0.3,0.3-0.4,0.9-0.9,0.7c0.3,0.1,0,0.6-0.1,0.9c0.1,0,0.4,0,0.6,0
		c-0.3,0.6-1,0.9-1.2,1.6c-0.6-0.6,0.6-0.9,0.4-1.5C207.6,88.9,207,89.8,206.7,90.7z M210.3,88.5c0.3-0.1,0.6-0.3,1-0.4
		c0.1,0,0.3,0,0.4,0c0,0.4-0.3,0.7-0.7,1c-0.1,0-0.3,0.1-0.4,0.1C210.4,88.9,210.3,88.8,210.3,88.5z M210.1,86.9
		c0.6-0.4,1.2-0.9,1.9-0.7c-0.4,0.7-1.5,0.4-1.9,1.3C210.1,87.3,210.1,87,210.1,86.9z M208.5,89.8c0.3-0.3,0.6-0.6,0.7-0.9
		c0.1,0.3,0.6,0.4,0.4,0.9C209.4,90,208.9,90,208.5,89.8z M205.1,97.1c0.3-0.1,0.7-0.3,1-0.4c-0.1-0.1-0.3-0.4-0.4-0.6
		c0.1-0.1,0.4-0.3,0.6-0.3c0.1,0.6,0.4,1,0.6,1.6c0.1,0,0.3,0,0.3,0c0.3-0.1,0.6-0.4,1-0.6c0.1,0.6,0.6,0.9,1.2,0.7
		c-0.3,0.4-0.7,0.7-1.2,0.9c-0.7,0.3-1.5,1-2.2,1.3c0-0.4,0-1-0.1-1.5c-0.1,0-0.1-0.1-0.3-0.1c0.1,0.6,0.3,1.2,0.3,1.8
		C205.2,99.3,205.1,98.1,205.1,97.1z M205.7,96.3c-0.4,0.6-1.3,0.9-1.2,1.6c0,0-0.1,0-0.3,0c0.1-0.4,0.1-0.9,0.3-1.2
		C204.8,96.3,205.4,96.5,205.7,96.3z M206,94.4c0.1,0.3,0.3,0.7,0.3,1c-0.3,0.1-0.6,0.3-0.7,0.4c-0.3,0.1-0.4,0.3-0.7,0.4
		c0.1-0.4,0.3-1,0.9-0.9C205.5,95,205.7,94.7,206,94.4z M206.7,94.3c0.1,0.1,0.3,0.4,0.3,0.6c-0.1,0-0.3,0.1-0.4,0.3
		C206.1,95.1,206.1,94,206.7,94.3z M207,91.4c0.6,0.1,0,0.9-0.1,0.3C206.9,91.7,206.9,91.6,207,91.4z"/>
	<path d="M147,22.7c0,0.1,0.1,0.3,0.1,0.6c-0.1,0-0.6,0.1-0.7,0.1c0-0.1-0.1-0.3-0.1-0.4C146.5,22.9,146.7,22.9,147,22.7z"/>
	<path d="M149.9,23.3c0.1-0.1,0.6-0.3,0.6,0C150.4,23.3,150.2,23.4,149.9,23.3L149.9,23.3z"/>
	<path d="M166.8,23.9c-0.1,0.1-0.3,0.3-0.4,0.4c-0.9,0-1.9,0.7-2.8,0.1c0.4-0.3,0.9-0.3,1.3-0.3c0.9-0.1,1.8-0.3,2.7-0.4
		C167.5,24,167.1,23.9,166.8,23.9z"/>
	<path d="M152.3,79c0-0.3-0.6-0.6-0.3-1c0.1-0.3,0.3-0.9,0.9-0.6c0.1,0.4,0.1,1,0.1,1.6c-0.1,0.3-0.3,0.6-0.4,1
		C152.2,79.8,152.3,79.3,152.3,79z"/>
	<path d="M192.5,24.3c0.6,0,0.6,0.7,0.3,1C192.7,25.1,192.1,24.6,192.5,24.3z"/>
	<path d="M179.2,83.9c0-0.4-0.1-0.9-0.6-1.2c0,0.1-0.1,0.4-0.1,0.7c-0.3-0.3-0.1-0.7-0.1-1c0.3,0,0.7,0.1,1,0.1
		C179.7,82.9,180,83.9,179.2,83.9z"/>
	<path d="M142.4,90.9c-0.4,0-0.3-0.9,0.1-0.7C142.8,90.4,142.7,90.9,142.4,90.9z"/>
	<path d="M159.1,127.7c-0.1,0-0.3,0-0.4,0c0.9-1.5,1.3-3.1,2.2-4.4C160.6,124.9,160,126.3,159.1,127.7z"/>
	<path d="M178.6,89.1c0.6,0.7,0.9,1.8,0.6,2.7c-0.1,0.4,0,1,0,1.5c-0.3-0.9-0.1-1.9-0.3-2.8c-0.1-0.7-0.4-1.6-1-2.1
		c0.1,0,0.4,0.1,0.4,0.3c0.1,0,0.3,0,0.3,0C178.5,88.6,178.5,88.9,178.6,89.1z"/>
	<path d="M167.7,27c0.1,0.4,0.1,1,0.1,1.6c0.4,0.3,0.7,0.7,1,1.2c0.6,0.6,1.3,1,1.8,1.8c0,0.1-0.1,0.3-0.1,0.4
		c-0.4-0.4-1-0.9-1.5-1.3c-0.1,0.1-0.4,0.1-0.7,0.3c-0.3-0.3-0.6-0.6-0.9-0.7c0-0.4,0-0.9,0.1-1.2c-0.3-0.4-0.4-0.9-0.4-1.5
		C167.1,27.1,167.4,27,167.7,27z"/>
	<path d="M149.9,90.7c0.1,0,0.3-0.1,0.3-0.1c0,0.7-0.3,1.5-0.3,2.2c-0.1,0.1-0.3,0.3-0.4,0.4c0.3,0.1,0.6,0.4,0.9,0.6
		c0.1-0.1,0.6-0.1,0.6-0.4c-0.1-0.3-0.4-0.4-0.6-0.7c0.1-0.3,0.4-0.1,0.6-0.1c0.1,0.4,0.3,0.7,0.3,1.2c-0.1,0.3-0.3,0.4-0.4,0.7
		c0.1,0.1,0.1,0.3,0.3,0.3c0.3,0,0.3-0.4,0.6-0.6c0.1,0.3,0.1,0.4,0.3,0.6c-0.3,0.1-0.6,0.4-0.9,0.6c-0.4,0.1-0.6-0.3-0.7-0.6
		c-0.3,0-0.4,0-0.7,0c-0.1-0.3-0.3-0.7-0.3-1.2c-0.1,0-0.3,0-0.3,0c0-0.3-0.1-0.6,0-0.9C149.5,91.9,149.8,91.3,149.9,90.7z"/>
	<path d="M175.8,75.3c-0.1,0-0.4-0.1-0.7-0.1c-0.1-0.6-0.4-1.3-1-1.6c-0.6-0.3-0.6-1-0.9-1.5c-0.1-0.3-0.6-0.7-0.4-1.2
		c0.4-0.3,0.6,0.1,0.7,0.4c0.1,0,0.3,0,0.3,0c0.3,0.9,0.9,1.6,1.3,2.5c0.1,0.3,0.1,0.6,0.6,0.6c0-0.6-0.4-1.3-0.4-1.9
		c0,0,0.1-0.1,0.1-0.3c0.6,0.3,0.3,1.2,0.6,1.8c0.6,0.9,0.6,1.9,0.9,2.8C176,76.8,176,75.8,175.8,75.3z"/>
	<path d="M141.4,102.2c-0.3-0.4-0.7-0.7-1-1.2C141.1,100.8,141.8,101.6,141.4,102.2z"/>
	<path d="M182.3,113.3c0.1,0.4,0.1,0.6-0.3,0.3C181.9,113.3,182,113.2,182.3,113.3z"/>
	<path d="M152.9,85.1c0.4-0.4,0.1-1.2,0.6-1.8c0.1,0.4,0.3,0.9,0.4,1.3c0.1,0,0.4,0,0.7,0l-0.1,0.1c0,0.1,0.1,0.3,0.1,0.4l-0.1,0.1
		l0.1,0.1C153.9,85.8,153.3,85.4,152.9,85.1z"/>
	<path d="M174.6,35.1c-0.7-0.9-1.6-1.6-2.7-2.2c-0.3-0.1-0.4-0.4-0.6-0.7c0.3,0,0.6,0.1,0.7,0.4c0.4,0.1,0.9,0,1-0.4
		c1,0.7,1.9,1.3,2.8,2.4c0.4,0.3,0.7,0.7,1.2,1c0,0.1,0,0.4,0,0.6c-0.4-0.3-0.7-0.7-1.2-1c0,0.1-0.1,0.4-0.1,0.6c-0.1,0-0.3,0-0.4,0
		C175.5,35.1,174.9,34.5,174.6,35.1z"/>
	<path d="M151.1,39.4c-0.4,0.1-1.3,0.3-1.5-0.3h-0.1c-0.1-0.4-0.3-1-0.1-1.5c0-0.4,0.4-0.7,0.9-0.7c-0.3,0.4-0.3,1-0.3,1.6
		c0.4,0.1,1,0.1,1.5-0.1C152,38.4,151.4,39.3,151.1,39.4z"/>
	<path d="M131.8,132.4c-0.1,1-0.1,2.1,0,3.1c0.1,1.2,0.7,2.1,1.3,3c0.1,0.3,0.4,0.3,0.7,0.4c0-0.1,0-0.3,0-0.4
		c-0.4-0.9-1.2-1.8-1.5-2.8c-0.3-1.5-0.3-3.1,0.6-4.4c0.1,0.1,0.3,0.1,0.4,0.3c0.1,0.3,0.1,0.4,0.3,0.7c0.3,0.3,0.6,0.7,0.9,1.2h0.1
		c0.1,0.4,0.4,0.4,0.7,0.4v0.4l-0.3,0.1c0,0.3,0,0.6,0,0.9c0.1-0.3,0.3-0.6,0.6-0.9c0.1,0,0.3,0.1,0.4,0.3c0,0.4,0.1,1-0.4,1h0.1
		c-0.1,0.9,0.6,1.6,1.2,1.9c0,0.1,0,0.3,0.1,0.3c0.6,0.1,1,0.1,1.6,0.1c-0.1,0.1-0.3,0.4-0.4,0.6c0.4,0,0.9-0.3,1-0.7
		c0.7-0.3,1.6-0.7,1.3-1.6c0.1-0.1,0.3-0.3,0.3-0.3c-0.1-0.9,0-2.1-0.9-2.7c-0.1-0.1-0.1-0.3-0.3-0.4c-0.4-0.1-0.9-0.4-1.3-0.6
		c-0.1-1.2,0-2.4-0.1-3.5c-0.3-0.4-0.3-0.9-0.3-1.3c0.6,0.1,1.3,0.1,1.6,0.7c-0.6,0.7-0.9,1.6-0.6,2.7c0.1,0.3,0.1,0.4,0.1,0.7
		c0.7,0.6,1.3-0.1,1.8-0.6c0.3-0.4,0.9-0.9,1-1.5c0.3-0.3,0.1-0.6,0.3-1c-0.3-0.1-0.3-0.4-0.3-0.7c1.8,1.2,4,2.5,4.6,4.7
		c0.4,0.3,0.3,0.9,0.3,1.3c0.1,0.7,0.1,1.5,0.1,2.2c-0.3,0.6-0.1,1.2-0.4,1.6c-0.3,0.7-0.7,1.3-1.3,1.9c-0.4,0.4-1.2,0.4-1.3,1.2
		c0.7,0.1,1.3-0.4,2.1-0.9c0.7-0.7,1.5-1.8,1.3-3c0.6-1.2,0.1-2.5,0.3-3.8l-0.1-0.1c0-0.7-0.6-1.3-0.9-2.1c-0.9-1.6-2.7-2.4-4-3.5
		c-0.1,0-0.3,0-0.6-0.1c0,0.1,0,0.3,0,0.4c-0.6,0.1-1.2-0.1-1.8-0.3c0,0.1-0.1,0.1-0.1,0.3c-0.1-0.1-0.3-0.1-0.4-0.3
		c-0.1,0.1-0.1,0.1-0.3,0.3c-0.7-0.4-2.1-0.7-2.7,0c0.3,1.3,0.6,2.8,0.9,4.1c0,0.1,0,0.4,0,0.6l-0.3,0.1c0-0.9-0.3-1.8-0.6-2.5
		c-0.1-0.4,0.1-1.3-0.6-1.5c0.1,1.2,0.4,2.2,0.6,3.4c0.1,0.3,0,0.6,0.3,0.7c-0.1,0.1-0.3,0.3-0.4,0.4c-0.1-1-0.4-2.1-0.6-3.3
		c-0.1-0.3,0.1-0.7-0.1-1c0,0.4-0.1,0.9-0.3,1.3c0.3,0.6,0.1,1.3,0.4,1.9c0.1,0.4,0.3,0.9,0.3,1.3c-0.1,0-0.4,0-0.6,0
		c-0.3-0.3-0.6-0.7-0.9-1c-0.3-0.6-0.4-1.3-0.6-2.1c0.3-0.1,0.6-0.4,0.9-0.7h0.1c0-0.4-0.1-0.7-0.1-1.2c-0.6,0.3-1,0.6-1.3,1.2
		c-0.1,0.1-0.3,0.3-0.3,0.3C132.5,130.8,132.1,131.5,131.8,132.4z M140.2,128c0.4,0.1,1,0.1,1.5,0.3c-0.1,0.4,0,0.9-0.3,1.2
		c-0.4,0.6-1,1.3-1.8,1.5c-0.1-0.6-0.1-1.2,0-1.8C139.7,128.7,140,128.4,140.2,128z M138.1,132.1c-0.1,0-0.1,0-0.3,0
		c0-1,0-2.1-0.4-3.1c-0.1-0.6-0.1-1.2-0.3-1.6c0.3,0.1,0.6,0.1,0.9,0.1C138,129,138,130.6,138.1,132.1z M136.3,133.6
		c0.3,0,0.6,0,0.7,0c0.6,1.3,0.9,2.7,1.3,4.1c-0.4-0.1-0.9-0.3-1.2-0.6c0-0.1,0-0.3,0-0.4c0-0.7-0.3-1.5-0.6-2.1
		C136.5,134.2,136.5,133.9,136.3,133.6z"/>
	<path d="M212.9,40.9c0.7-0.1,0.9,0.6,1.3,1c0-0.1,0.1-0.6,0.1-0.9c0.6,0.4,0.6,1.2,1.2,1.8l0.1-0.3h0.1c0.4,0.3,0.6,1,0.7,1.6
		c-0.4,0.1-0.6-0.3-0.9-0.4c-0.3,0-0.6,0-0.7-0.3c-0.1-0.1-0.4-0.3-0.6-0.4c-0.1-0.1-0.3-0.3-0.4-0.3c-1-0.6-2.1-0.7-3.1-1
		c-1-0.3-2.1-0.4-3.1-0.6v0.3c0-0.1,0-0.3,0-0.3c-0.1,0-0.3,0-0.4,0c2.2-0.6,4.4,0.1,6.4,1C213.7,41.5,213.2,41.2,212.9,40.9z"/>
	<path d="M168.7,86.7c-0.7-0.1-0.9-1-0.7-1.6C168.3,85.5,168.6,86.1,168.7,86.7z"/>
	<path d="M157,73.9c-0.3,0-0.3-0.6,0-0.6S157.3,73.9,157,73.9z"/>
	<path d="M121,88c-0.1-0.1,0-0.6,0.3-0.4C121.4,87.8,121.3,88.2,121,88z"/>
	<path d="M157.2,64.7c-0.3-0.3,0-0.6,0.1-0.9C157.6,64.1,157.8,65,157.2,64.7z"/>
	<path d="M178.9,56.4c0,0.4-0.4,0.9-0.3,1.3c0.3,0.3,0.6,0.4,0.9,0.7c0.1,0,0.4,0,0.6,0c0,0.1,0,0.4,0,0.6c-0.7,0.3-1.6-0.1-2.1-0.9
		c-0.1-0.6,0.1-1.2,0.3-1.6C178.5,56.4,178.8,56.4,178.9,56.4z"/>
	<path d="M157.5,53.2L157.5,53.2c0.1,0.1,0.4,0.3,0.7,0.3c0.1-0.1,0.3-0.3,0.4-0.4c1.3,0.6,2.8,0.9,4,1.6c0,0.1,0,0.4,0,0.6
		c-0.4,0-0.7-0.3-1.2-0.4c-0.1-0.1-0.3-0.3-0.3-0.3c-0.1,0-0.4,0-0.6-0.1c-0.3-0.3-0.9-0.4-1.2-0.6c0.1,0.3,0.3,0.4,0.3,0.7
		c-0.9-0.3-1.6-0.6-2.4-1c-0.1,0.3,0.1,0.4,0.3,0.6c0.9,0.4,1.9,0.6,2.7,1.2c0.3,0.1,0.3,0.7,0.6,0.9c1.2,0.6,2.4,1.3,3.5,1.8
		c1.6,0.7,2.8,1.9,4.1,3c0.9,1,2.2,1.3,3.1,2.4c0.7,0.6,1.3,1.5,2.1,2.2c0.7,1.3,2.1,2.2,2.8,3.5c-0.6-0.3-0.9-0.9-1.3-1.3
		c-1.3-1.2-2.1-2.7-3.4-3.7c-1.2-1-2.5-1.8-3.7-2.8c-1.3-1.2-2.8-2.4-4.4-3.1c-1.2-0.4-2.2-1.2-3.4-1.6v-0.1c-1.2-0.4-2.4-1-3.7-1.2
		c0.1-0.1,0.3-0.1,0.4-0.3s0.3-0.1,0.4-0.3c-0.3-0.3-0.7-0.4-1.2-0.7C156.7,53.6,156.9,53,157.5,53.2z"/>
	<path d="M185.3,61.6c-0.1,0.4-0.1,0.9-0.1,1.5c0.4,0.3,0.6,1,1.2,1c0.1-0.1,0.1-0.3,0.3-0.3c0-0.1,0.1-0.3,0.1-0.4
		c0,0.1,0,0.4,0.1,0.6c-0.4,0.1-0.4,0.7-0.9,0.6c-0.6-0.3-1-1-1.3-1.6c0-0.3,0.1-0.7,0.1-1C184.5,61.7,185.1,61.6,185.3,61.6z"/>
	<path d="M170.6,82.3c0.1,0.3,0,0.4-0.3,0.3C170.2,82.3,170.3,82.3,170.6,82.3z"/>
	<path d="M163.2,65.6c-0.4,0-0.4-1,0-0.7C163.4,65,163.5,65.6,163.2,65.6z"/>
	<path d="M178.8,71.5l-0.1,0.1c-0.4-0.4-0.9-0.9-1.3-1.3c0,0-0.1,0-0.3,0c-0.1-0.3-0.3-0.6-0.3-1C177.7,69.7,178,70.8,178.8,71.5z"
		/>
	<path d="M161.6,71.6c-0.1,0-0.3,0-0.3-0.1c-0.1,0.3-0.3,0.4-0.4,0.7c0.4,0,0.9,0.1,1.2-0.3c0,0.3,0.1,0.6,0.1,0.9
		c0.1,0.1,0.4,0.1,0.7,0.3c-0.1,0.6,0.3,1.5-0.6,1.6c-0.3-0.1-0.4-0.4-0.7-0.6l-0.3,0.4c0,0.1,0,0.4,0.1,0.6c-0.1,0-0.3-0.1-0.4-0.1
		s-0.4-0.1-0.6-0.1c-0.1,0.1-0.6,0.7-0.7,0.3s0.7-0.1,0.6-0.6c0-0.4-0.4-0.1-0.7-0.1c-0.1-0.4-0.3-0.9-0.3-1.3
		c-0.1-0.1-0.3-0.3-0.3-0.4c0-0.1,0.1-0.4,0.1-0.4c0.6,0.3,1,1.5,1.8,0.9c-0.1-0.1-0.4-0.1-0.6-0.3c0-0.1,0-0.4,0-0.6
		c-0.1,0-0.4,0.1-0.6,0.1c0-0.7,0.7-0.9,1.2-1.2c0-0.3,0-0.6,0-1c0.6,0.1,0.3,0.7,0.4,1c0.1,0,0.3-0.1,0.6-0.1
		C161.6,71.2,161.6,71.5,161.6,71.6z"/>
	<path d="M159,70.9c0,0.4,0,0.7,0,1.2C158.4,71.9,158.7,71.2,159,70.9z"/>
	<path d="M156.6,75.8c-0.1,0-0.4,0-0.6,0c0,0.4-0.3,0.9-0.7,1.2c-0.1,0.3-0.1,0.6-0.1,0.9c-0.1-0.3-0.3-0.6-0.1-0.9
		c0.3-0.3,0-0.7-0.1-1c0,0.1-0.1,0.4-0.1,0.6c-0.3-0.3-0.6-0.6-0.3-0.9c0.3,0,0.4-0.1,0.4-0.4c0.1,0,0.3,0.1,0.3,0.1
		c0.1-0.1,0.3-0.3,0.3-0.4c0,0.1,0.1,0.3,0.3,0.4c-0.1-0.4-0.3-0.9-0.1-1.5c0.3,0.1,0.6,0.6,0.7,0.9c0-0.3,0.1-0.6,0.3-0.9
		c0.1,0.3,0.3,0.7,0.3,1C157,75.3,156.7,75.6,156.6,75.8z"/>
	<path d="M179.1,75.6c0.7,0.9,0.7,2.2,1.3,3.3c0.1,1.2,0.9,2.2,0.9,3.4c-0.1-0.1-0.3-0.3-0.4-0.4c0-1.8-1.2-3.1-1.3-4.7
		c0-0.3-0.1-0.7-0.6-0.7c0.1,0.7,0.4,1.5,0.6,2.4c0.3,1.3,0.9,2.5,0.7,3.8c-0.6-0.6-0.7-1.6-0.9-2.5c-0.1-1.3-0.7-2.7-0.9-4.1
		c0.1,0,0.3-0.1,0.3-0.1c-0.1-0.4-0.3-1-0.3-1.5C178.8,74.7,178.8,75.2,179.1,75.6z"/>
	<path d="M150.1,84.5c0,0.6,0.1,1.3-0.4,1.6c-0.1,0-0.3-0.1-0.4-0.1c0.1,1,1.6-0.3,1.8,0.7c0.3,0,0.4,0,0.7,0.1
		c-0.1-0.3-0.1-0.6-0.3-0.9c0.3,0.4,0.6,0.9,0.7,1.5c0.1-0.3,0.3-0.6,0.6-1c0.1,0.3,0.4,0.6,0.6,0.9c0.4,0.3,0.9,0.9,1,1.3
		c0.1-0.1,0.1-0.1,0.1-0.3c0.3,0.1,0.4,0.3,0.7,0.4l0.1-0.1c-0.1-0.1-0.3-0.4-0.3-0.6c0.1-0.1,0.3-0.3,0.4-0.3
		c-0.1-0.1-0.3-0.4-0.6-0.6c0-0.1,0-0.4,0-0.4c0.1,0.1,0.4,0.4,0.6,0.6c0-0.3,0-0.7,0-1c-0.1-0.1-0.4-0.1-0.6-0.3
		c0-0.6,0.3-0.9,0.9-1.2c0,0.4,0.1,0.9,0.3,1.3c0-0.1,0.1-0.6,0.1-0.9c0-0.3,0-0.4,0-0.7c0.7,0.6,1.6,1.3,1.9,2.2
		c-0.1,0.7-0.3,1.5-0.3,2.4c-0.4,0.6-1,1-1.6,1.5c-0.1,0-0.6,0-0.7,0c-0.9-0.1-1.6-0.4-2.4-0.6c-0.3,0.1-0.4,0.3-0.7,0.4
		c0.1,0.3,0.6,0.7,0.3,1.2c-0.3-0.3-0.6-0.7-0.7-1.2c-0.1,0-0.3,0.1-0.4,0.3c0.1-0.3,0.1-0.6,0.3-1c0.1,0.1,0.3,0.4,0.4,0.6
		c0-0.1,0.1-0.4,0.1-0.6c0.7-0.1,1.3,0,2.1-0.1c-0.4-0.3-1-0.3-1.5-0.4c0,0-0.1-0.1-0.1-0.3c-0.1-0.1-0.3-0.3-0.4-0.4
		c-0.1-0.1-0.3-0.3-0.6-0.4c0-0.1,0.1-0.6,0.1-0.7c-0.7,0.1-1.3,0.4-2.1,0.3c0-0.1-0.1-0.3-0.1-0.4c0-0.1,0-0.3-0.1-0.4
		c-0.4,0.4-1,0-1.6-0.1c-0.1-0.3-0.3-0.6-0.3-1h0.3c-0.1-0.4-0.1-0.9-0.3-1.3c0.3,0,0.6-0.1,0.7-0.1c0.1,0.1,0.1,0.4,0.1,0.6
		c0.3-0.1,0.6-0.4,0.9-0.4C149.6,84.2,149.9,84.4,150.1,84.5C149.8,84.6,149.9,84.5,150.1,84.5z"/>
	<path d="M154.2,78.7c-0.3,0-0.4-0.1-0.7-0.1c-0.1-0.6-0.3-1.3,0.1-1.8c0.1-0.4,0.6,0,0.9,0.1C154.4,77.6,154.4,78.1,154.2,78.7z"/>
	<path d="M173.3,123.5c0.3,0,0.6,0,0.9-0.3c0.4-0.4,0.9-0.9,1.5-1.3c0.1-0.3,0.6,0.3,0.1,0.4c-0.4,0.4-1.3,0.7-1.3,1.5
		c0.3-0.1,0.6-0.3,0.9-0.4c0.7,0,1.5,0.7,2.2,0.3c0.3,0.1,0.7,0.4,0.7,0c0.9-0.7,1.9-1.3,2.8-2.1c0-0.1,0-0.1,0-0.3
		c0.1-0.1,0.4-0.1,0.6-0.3c0,0.3-0.1,0.6-0.3,0.9c-0.6,0.1-1,0.9-1.5,1.3c0.4,0.1,0.7-0.1,1.2-0.4c0.1,0.1,0.3,0.3,0.4,0.6
		c0.4-0.3,0.7-0.7,1-1.2c0.4,0.3,0.1,0.6-0.1,0.9c-0.3,0.3,0.3,0.3,0.4,0.3c0.3-0.3,0.6-0.7,0.9-1.2c0.1,0.1,0.3,0.3,0.3,0.3
		c0.1-0.1,0.1-0.3,0.3-0.6l-0.1-0.1c0.3-0.1,0.6-0.3,0.9-0.4c0,0.4-0.3,1,0,1.3c0.3-0.4,0.4-1,0.4-1.8c0.3-0.6,0.7-1,1.2-1.3
		c0,0.3,0,0.4,0,0.7c-0.4,0.4-0.7,0.9-1.2,1.2c0.3,0.1,0.4,0,0.7-0.1c0.3,0,0.7,0.1,1-0.1c0.6-0.3,0.9-0.9,1.5-1.2
		c0,0.4,0.3,0.9,0.7,1.3c1.2-0.4,1.8-1.5,2.7-2.2c0.3-0.3,0.4-0.7,0.7-1c0.1-0.1,0.4,0,0.7,0v-0.1c0-0.7,0.1-1.5,0.3-2.1
		c-0.1,0-0.3,0.1-0.4,0.1c-0.3,0.7-0.7,1.6-1.3,2.2c-0.1-0.1-0.3-0.4-0.3-0.6c0.3-1.2,1.6-1.8,1.6-3.1c-0.6,0.4-0.9,1.5-1.5,1.9
		c-0.1-0.3-0.1-0.4-0.3-0.7c-0.1,0-0.1,0.1-0.3,0.3c0.1,0.3,0.1,0.6,0.3,0.9c-0.1,0.3-0.4,0.6-0.6,0.9c-0.1-0.3-0.1-0.7,0-1.2
		c-0.1,0.3-0.4,0.4-0.6,0.7c-0.1,0-0.3,0-0.4,0c0,0.3,0,0.4,0,0.7c-0.7,0.4-1,1.6-1.9,1.8c0.1-0.6,0.3-1.2,0.4-1.8
		c0-0.1,0.1-0.3,0.1-0.3c-0.1-0.3-0.1-0.6-0.4-0.7c-0.1,0.1-0.4,0.3-0.6,0.3c-0.1-0.3-0.1-0.6-0.3-0.7c-0.1,0.1-0.3,0.1-0.4,0.3
		c0,0.4,0.1,0.9,0.1,1.3c-0.3,0.7-0.7,1.3-1.3,1.8c0.3-0.9,0-1.6-0.1-2.4c-0.1,0.7,0.1,1.8-0.7,2.4c-0.6,0.3-0.7,1.2-1.5,1.2
		l0.1-0.3c0.1-0.6,0.4-1,0.9-1.2c0-0.3,0-0.6,0.1-0.9c-0.7,0.7-1.3,1.8-2.1,2.4c0.1-0.6,0.3-1,0.6-1.6c-0.1,0-0.4,0-0.6,0
		c-0.1,0.3-0.4,0.7-0.7,1c0.1-0.3,0.1-0.7,0.1-1c-0.3,0.1-0.4,0.4-0.7,0.6c-0.1-0.3-0.3-0.7-0.6-1.2c-0.1,0.1-0.3,0.4-0.4,0.7
		c-0.1,0.1-0.3,0.3-0.4,0.3l0.1,0.1c-0.1,0.1-0.3,0.3-0.3,0.4c-0.1-0.3-0.3-0.6-0.4-0.9c-0.7,0.6-1.5,1-1.8,1.9
		c0-0.1-0.1-0.3-0.1-0.3c0.1-0.4,0.4-0.7,0.3-1.2c-0.4,0.1-0.7,0.6-0.9,1c-0.6,0.3-1,1-1.6,1.3C173.9,122.6,173.4,123.1,173.3,123.5
		z M190.3,120.1c0-0.3,0-0.7,0-1c0.1-0.3,0.4-0.4,0.7-0.7c0.1-0.1,0.3-0.3,0.4-0.4c0.3,0.1,0.4,0.4,0.3,0.7
		C191.3,119.2,190.9,119.7,190.3,120.1z M190.7,117.8c0.1,0.1,0,0.6-0.3,0.6C190.2,118.1,190.4,117.6,190.7,117.8z M189,121
		c0-0.4,0.1-1,0.6-1.2c0,0.1,0,0.4,0,0.4c0.1,0,0.3,0,0.4,0C189.7,120.6,189.6,121.2,189,121z"/>
	<path d="M142.4,82.6c-0.3-0.3-0.4-0.6-0.4-1c0-0.7-0.1-1.5,0.1-2.2C142.3,80.4,142.7,81.4,142.4,82.6z"/>
	<path d="M150.4,79.3c0.3,0.1,0.7,0.3,1,0.6c-0.3,0.4-0.4,0.9-0.6,1.3C150.1,81,150.2,79.9,150.4,79.3z"/>
	<path d="M149.9,81.5c-0.3-0.1-0.6-1.3-0.1-1.3C150.4,80.4,150.4,81.2,149.9,81.5z"/>
	<path d="M213.1,88.5c0.4,0.3,0.4,1-0.1,1C212.9,89.1,212.5,88.5,213.1,88.5z"/>
	<path d="M155.1,96.6c0.4,0.3,0.4,0.7,0.6,1.2c-0.3,0-0.4,0.1-0.7,0.1C155,97.7,154.7,96.9,155.1,96.6z"/>
	<path d="M145.9,90.4c-0.1-0.3,0.1-0.9,0.4-0.7C146.7,90,146.2,90.4,145.9,90.4z"/>
	<path d="M150.8,92c-0.7,0.1-0.3-1,0.1-0.9C151.4,91.3,151.3,92,150.8,92z"/>
	<path d="M198.7,96.3c0-0.4,0.3-1.2,0.6-1.5c0.4,0.1,0.3,0.7,0,1C199.2,96,199,96.5,198.7,96.3z"/>
	<path d="M123.5,101.2c0.1,0.3,0.6,0.4,0.6,0.7c0.3,1,1.2,1.5,1.6,2.4c0.3,0.6,0.9,1,1.2,1.8c0.3,0.3,0.6,0.6,0.9,0.9
		c0.3,0.4,0.6,0.7,1,1.2c0.7,0.9,1.9,1.2,2.7,1.8c1.6,0.9,3.1,2.1,4.9,2.4c1,0.4,2.2,0.7,3.3,1.3c1.3,0.1,2.7,0.7,4,1
		c1,0,1.9,0.6,3,0.7c0,0.1,0,0.3,0,0.4c0,0-0.1-0.1-0.1-0.3c-0.3-0.1-0.6,0-0.9-0.3c-2.2-0.1-4.3-0.7-6.4-1.3
		c-1-0.6-2.2-0.7-3.3-1.2c-0.7-0.3-1.5-0.4-2.1-0.9c-0.1,0-0.3-0.1-0.4-0.1c-0.6-0.6-1.3-1-2.1-1.5c-1.2-1-2.8-1.5-3.7-2.8
		c-0.9-0.9-1.5-1.9-2.4-2.8c-0.9-1.3-1.6-2.7-2.5-4c0-0.1,0-0.3,0-0.4c-0.3-0.1-0.3-0.3-0.3-0.6C123,100,123.5,100.6,123.5,101.2z"
		/>
	<path d="M142.7,135.2c-0.1-0.3-0.1-0.7-0.1-1c0.7,0.4,0,1.8,0.9,1.9c0.1-0.1,0.3-0.4,0.4-0.6c0-0.6-0.1-1.3-0.3-1.9
		c0.1,0,0.3,0.1,0.4,0.1c0,0.7,0,1.6,0,2.4c0.1,0,0.6,0,0.7,0c0-0.9-0.3-1.9-0.3-2.8c0.3-0.1,0.7-0.3,1-0.3c0.3,0.6,0.6,1.3,0.7,1.9
		c-0.1,0.1-0.3,0.3-0.4,0.3c-0.3-0.3-0.3-0.9-0.3-1.2c-0.1-0.3-0.3-0.9-0.7-0.7c0.1,1-0.1,2.2,0.6,3c0.4,0,0.7,0.1,1.2,0.4
		c0,0.1,0,0.4,0,0.6c-0.3,0.1-0.6,0.3-0.9,0.3c0.1-0.3,0.4-0.4,0.4-0.9c-1-0.3-2.4-0.6-3.4,0c0.1,1,1.2,1.6,2.2,1.5
		c0-0.1,0.1-0.3,0.1-0.3c0,0.1,0,0.3,0,0.4c-0.3,0.1-0.6,0.3-0.7,0.4v-0.3c-1.2,0.1-2.2-0.9-2.4-1.9c-0.1,0-0.3,0-0.4,0
		c0.1-0.4,0.1-0.9,0.3-1.5C142.1,135.1,142.4,135.1,142.7,135.2z"/>
</g>
</svg>
