<?xml version="1.0" encoding="utf-8"?>
<!-- Generator: Adobe Illustrator 26.0.3, SVG Export Plug-In . SVG Version: 6.00 Build 0)  -->
<svg version="1.0" id="Слой_1" xmlns="http://www.w3.org/2000/svg" xmlns:xlink="http://www.w3.org/1999/xlink" x="0px" y="0px"
	 viewBox="0 0 239.5 150.2" style="enable-background:new 0 0 239.5 150.2;" xml:space="preserve">
<style type="text/css">
	.st0{fill:#393939;}
</style>
<g>
	<path class="st0" d="M182.6,114.6c0-0.1,0-0.2-0.1-0.4C182.5,114.4,182.6,114.5,182.6,114.6z"/>
	<path class="st0" d="M157.4,25.3c1.1,0.1,1.8,0.1,3.1-0.5l0.2-0.1c0.7-0.5,1.7-1.1,1.6-2.1c-1,0.2-1.5,1.2-2.3,1.6
		c-0.6,0.4-1.2,0.4-1.7,0.1c-0.5-1-0.4-2.1,0.4-3.3c0.6-0.7,1.5-1.2,2.5-1.2c0,0.4,0.1,0.7,0.1,1.1c0.6,0.1,1.1-0.2,1.5-0.7
		c0-0.4,0-0.7,0-1.2c-0.5,0-1,0-1.5,0.2c-0.6,0-1.6,0.2-2.2,0.4c-1,0.2-1.4,0.6-2.1,1.4c-1,1-1.2,1.7-1.1,2.8
		C156,24.5,156.7,25.1,157.4,25.3z"/>
	<path class="st0" d="M173.5,26l0.4,0.2c1.2,0.6,2.7,1,4.1,0.4c0.1-0.4,0.6-1.1,0-1.2c-0.6,0.2-1,1-1.6,0.9c-0.6,0-1.2-0.5-1.7-0.7
		c-0.5-1.5,0.1-3,0.2-4.6c0.7-0.4,1.5-0.4,2.2,0c0,0.5,0,0.9,0,1.4c0.1,0.1,0.2,0.4,0.2,0.5c0.5,0,1,0,1.4-0.2c0-0.2,0-0.6,0-1
		c-0.5-0.4-1-0.6-1.6-0.9c-0.2-0.2-0.4-0.2-0.7-0.5c-0.4-0.1-0.6-0.2-1-0.2c-1-0.1-2.2-0.1-3,0.7c-0.9,0.9-0.6,2.2-0.4,3.2
		C172.3,24.7,172.6,25.3,173.5,26z"/>
	<path class="st0" d="M148.2,28.4c1.2-0.2,2.1-1.1,3.1-1.8c0.4-0.2,0.6-0.5,0.9-0.6c0-0.2,0-0.4,0-0.6c-0.2,0-0.4,0-0.6,0
		c-0.6,0.6-1.4,1.1-2.1,1.7c-0.4,0.1-0.9,0.2-1.1-0.2c-0.2-0.6-0.2-1.5,0.1-2.1c0.1-0.2,0.2-0.4,0.5-0.6c0.6-0.5,1.4-1,2.1-1.2
		c0,0.6,0.5,0.7,1,0.6c0.6-0.5,1.2-1,1.1-2c-0.9-0.1-1.6,0.2-2.2,0.6c-0.7,0.5-1.5,0.7-2.1,1.4c-0.7,0.4-1.4,1-2,1.6
		c-0.6,0.6-1.2,1.4-1,2.3C146.3,28.3,147.3,28.8,148.2,28.4z"/>
	<path class="st0" d="M162.2,33.5c0.4,0.2,0.7,0.2,1.1,0.1c0.4-0.1,0.6-0.6,0.6-0.9c-0.4,0.2-0.9,0.2-1.1,0c-0.2-0.5,0.4-1,1-0.7
		c-0.2-0.6-1.2-0.5-1.6,0c-0.2,0.2-0.4,0.7,0,1.2C161.9,33.3,162.1,33.3,162.2,33.5z"/>
	<path class="st0" d="M161.7,73.1c-0.1,0.2,0,0.5,0.2,0.6c1.4,0.1,2.7,0.2,4.1-0.4c0-0.1,0-0.2,0-0.4c-0.9-0.2-1.7-0.6-2.6-0.6
		C162.8,72.3,162.2,72.6,161.7,73.1z"/>
	<path class="st0" d="M157.2,33.5c-0.2,0.1-0.6,0.1-1-0.1c-0.2-0.2-0.1-0.7,0.1-1c-0.1,0-0.4,0.2-0.5,0.4c-0.2,0.2-0.4,0.4-0.5,0.7
		c0,0.2,0.1,0.5,0.2,0.6C155.9,34.3,156.9,33.9,157.2,33.5z"/>
	<path class="st0" d="M151,34.4c-0.2,0-0.6-0.1-0.9-0.1s-0.4-0.5-0.1-0.6s0.6-0.2,1-0.4c-0.4,0-0.9-0.1-1.2,0.1
		c-0.5,0.2-0.7,0.7-0.4,1.2C149.8,35.1,151,35.4,151,34.4z"/>
	<path class="st0" d="M199.8,75.9c1.6-2.1,3-4.4,3.7-7c-0.1-0.2-0.2-0.5-0.4-0.7c-0.2,0.9-0.6,2-1,3.1c-0.4,1.2-1.2,2.5-2,3.6
		c-2.2,3.1-4.9,5.7-8,7.9c-3.9,2.8-8.2,5.2-12.8,6.9c0.1,0.1,0.2,0.1,0.4,0.2c0.2-0.1,0.4-0.2,0.6-0.4c3.9-1.4,7.5-3.4,10.9-5.7
		C194.5,81.5,197.5,79,199.8,75.9z"/>
	<path class="st0" d="M141.5,37.4c0-0.1,0-0.2,0.1-0.4c-0.6-0.1-1.1,0.4-0.9,1C141,37.8,141.3,37.6,141.5,37.4z"/>
	<path class="st0" d="M140.3,38.1c0.1-0.2,0-0.4-0.4-0.4C139.8,38.1,139.9,38.3,140.3,38.1z"/>
	<path class="st0" d="M185.3,50.8L185.3,50.8c0,1,0.2,1.8,0.6,2.6c0,0.2,0,0.5,0.1,0.6c0-0.9,0-1.6,0.1-2.5c0-0.2-0.2-0.5-0.2-0.7
		c-0.1-1.1-0.9-2.1-1.4-3.1c-0.1-0.4-0.6-0.5-0.6,0c-0.2-0.1-0.5-0.2-0.7-0.4c0.2,1,1.1,1.6,1.5,2.6
		C184.8,50.2,184.9,50.7,185.3,50.8z"/>
	<path class="st0" d="M184.6,84c0,0,0.1,0,0.1-0.1C184.7,84,184.6,84,184.6,84L184.6,84z"/>
	<path class="st0" d="M180.2,84.5c0.1-0.4,0.4-0.6,0.5-1c0.6-0.1,1.1-0.5,1.6-0.9c0-0.5-0.1-1.1-0.2-1.6c-0.2,0.4-0.4,0.7-0.4,1.1
		c-0.4,0.1-0.7,0.1-1.2,0.2l-0.1,0.2c-0.2,0.4-0.4,0.9-0.5,1.4c-0.1,0.1-0.5,0.4-0.6,0.4c-0.1-1.2,0.5-2.3,0.5-3.6
		c-0.2-0.2-0.5-0.5-0.6-0.7c0.4,1.5-0.2,2.8-0.6,4.3c-0.4-0.1-0.9-0.1-1.2-0.2c-0.1,0-0.4-0.1-0.5-0.1c-0.4-0.2-0.7-0.4-1.2-0.4
		c-0.2,0.2-0.6,0.4-1,0.5c0.1-0.7,0.7-1.2,0.9-2c0.1-1,0.1-1.8-0.2-2.7c-0.5,0-1-0.2-1.5-0.5c0-0.2,0.1-0.6,0.1-0.9
		c0.1-0.4,0.4-0.9,0.2-1.2s-0.5-0.2-0.7-0.2c0-1-1.2-1.1-2-1c0,0.9,0.7,1.4,0.7,2.2c-0.6,0.6-1.4,0.9-2.2,1c-0.2,0-0.5,0-0.9,0
		c-0.1,0.4-0.2,0.7-0.2,1.1c-0.5,0-0.9,0.2-1.1,0.7c0.2,0,0.6,0,0.9,0c0.1,0.5,0.4,1.1,0.5,1.6c-0.4,0-0.9,0-1.2,0.1
		c-0.1,1.5,0.9,3.2,2.5,3.2c0.7,0.1,1.6-0.9,2.2-0.2c-0.5,0.2-1,0.5-1.4,0.7c-0.5,0.2-1.1,0.5-1.1,1.2c0.4,0.1,0.6,0.2,1,0.4
		c-0.1,0.7-1,0.6-1.5,0.7c-0.9,0-1.8,0.2-2.6,0.6c0,0.1,0,0.2-0.1,0.4c0.1,0,0.2-0.2,0.2-0.2c0.7,0,1.5,0,2.1-0.1
		c3.1-0.4,6-1,8.9-2.2c0.5-0.1,0.6-0.7,0.9-1.2c1.4-0.6,2.8-0.1,4.2-0.9c0.5-0.2,1-0.5,1.5-0.7c-1.4,0.6-2.8,0.6-4.3,0.7L180.2,84.5
		L180.2,84.5z M170.4,80.8c-0.1,0.4-0.2,0.7-0.2,1.2c-0.1-0.5-0.2-1-0.1-1.5c0.2-0.5,0.6-1,1-1.5c0.2,0,0.6,0,0.9,0.1
		C171.4,79.7,170.7,80.1,170.4,80.8z M171.9,82.4c-0.4-0.1-0.5-0.4-0.5-0.7c0.1,0,0.4,0,0.5,0C171.9,81.9,171.9,82.2,171.9,82.4z
		 M172,80.8c-0.4,0-0.4-0.6,0-0.6S172.3,80.8,172,80.8z M173.4,81.4c-0.4,0.5-0.9-0.4-0.4-0.6C173.4,80.9,173.5,81.1,173.4,81.4z
		 M176.2,85.7c-0.4-0.2-0.9-0.5-0.7-1.1c0.5,0,1,0,1.5,0c0.1,0.2,0.2,0.5,0.5,0.6C177.2,85.6,176.7,85.8,176.2,85.7z"/>
	<path class="st0" d="M169.1,78.8c0-0.1,0-0.1,0.1-0.2c-0.7,0.4-1.5,0-2.1,0c0,0,0,0.1-0.1,0.1c0,0,0,0,0.1,0
		C167.6,79,168.3,78.8,169.1,78.8z"/>
	<path class="st0" d="M161.5,82.7C161.5,82.7,161.3,82.7,161.5,82.7c-0.4,0-0.6,0-1,0C160.7,82.8,161.1,82.8,161.5,82.7z"/>
	<path class="st0" d="M202.5,119.2l3.9-1l-0.2-12.4l-0.4,0.1c-0.7-1.2-3.2-3.3-3-4.1c0.2-0.6,0.2-1.5,0.2-2.1c0-1-0.6-1.7-1-2.6
		c0-0.1-0.1-0.2-0.1-0.4c-0.1,0-0.2,0-0.4,0.1c-0.2-0.9-0.6-1.8-0.4-2.8c0.5-2.6,0.7-5.2,1.4-7.7c0.4-2.3,1-4.7,1.7-6.9
		c0.5-0.7,1-1.6,1.5-2.5c1.6-3.3,2.3-7,2.7-10.7c-0.1-2.2-0.1-4.6-0.1-6.8c0-1.4-0.2-2.7-0.2-4.1c-0.4-2.6-0.9-5.2-1.5-7.7
		c-1-3.8-2.2-7.6-4.3-11.1c-4.4-7.6-10.8-14.3-18.9-17.7c-2.5-1-4.9-1.6-7.5-2.1c-1.4-0.1-2-0.4-3.6-0.5c-0.5,0-1.4-0.1-2,0h-4.8
		c-1.2,0.1-2.5,0.4-3.7,0.5c-7.4,1.2-14.3,4.6-19.8,9.5c-2.6,2.3-5,5-6.8,8.1c-2,3.1-3,6.8-3.7,10.3c0,0.1-0.1,0.2-0.1,0.4
		c-0.2,2-0.6,3.9-0.6,5.9c0,0.6-0.2,1.1-0.5,1.6c-1.5,2.2-1.7,4.9-1.5,7.4c0.1,3.2,0.2,6.3,0.6,9.5c0.2,1.1,0.1,2.3,0.7,3.2
		c0,0.1,0.2,0.2,0.2,0.4c-0.2,0.2-0.7,0.5-0.7,1c-0.1,0.6,0,1.2,0.1,1.7c0.4,2,0.9,3.8,2,5.4c0.6,1,1.6,1.6,2.3,2.5
		c0.2,1.1,0.1,2.3,0.4,3.4c0,1.2,0,2.6,0.1,3.8c0.1,0.9,0.1,1.7,0.1,2.6c-0.7,0.4-1.5-0.1-2.2-0.2c-0.1,0.9-0.2,1.7-0.4,2.6
		c0.2,0.2,0.6,0.4,1,0.6c0.1,0,0.4,0,0.5,0.1c1.1,0.4,2.1,1,3.3,1c0,0,0.1-0.1,0.2-0.2c0.4-0.9,0.6-1.8,0.5-2.8
		c-0.5-0.1-1.1-0.1-1.6-0.4c-0.2-0.4-0.5-0.7-0.7-1.1c0-3,0-5.9,0-8.9c0.5,0.1,1,0.4,1.5,0.5c0.1,0.1,0.2,0.2,0.4,0.5
		c0.9,1.1,1.4,2.3,2,3.6c0,0,0.1,0.1,0.1,0.2c0.1,0.5,0.2,1,0.5,1.4c0.4,0.1,0.7,0.1,1.1,0.1c0.6,1.6,1.1,3.2,1.1,4.9
		c0,1,0,2.1,0,3.1v0.1c-0.5,0-1.2,0-1.6,0.5c-0.2,0.5-0.4,1.2-0.7,1.7c-0.7,0.6-1.7,0.9-2.5,0.5c0.1,0.7,1,1,1.6,1.4
		c-1.8,0.9-4.1,0.5-5.9,1.5c-1.6,1-2.3,2.7-3.3,4.2c-0.6,1-1.7,1.6-2.6,2.5c2.2-1.5,4.3-3.1,6.6-4.3c2-1.1,4.2-1.7,6.5-2
		c1.5-0.2,3.1-0.2,4.7-0.1c2,0.5,3.9,1.2,5.9,1.6c1.4,0.1,2.8,0.1,4.1-0.2c0-0.1,0-0.4,0.1-0.6c-1.5-0.4-3-0.4-4.4-0.5
		c-1.1-0.1-2.3,0.1-3.2-0.6c-0.4-0.4-0.4-0.9-0.6-1.2c0.7,0,1.6,0,2.3,0.2c0.5,0.1,1,0.1,1.4,0.2c-0.1,0-0.2,0.1-0.2,0.1
		c1.5,0.1,3.1,0.4,4.6,0.1c-1.6-0.6-3.2-0.6-4.8-0.9c-1.2-0.2-2.5-0.9-3.7-1.4c-1.4-0.4-2.6-1.2-3.6-2.1c0-1.5,0.1-3,0-4.4
		c-0.1-0.6-0.2-1.2-0.4-1.8c0.2,0,0.5,0.1,0.7,0.2c0.6,0.5,1.4,1.1,2.2,1c0.2-0.1,0.6-0.1,0.9-0.2c0.9,1,2.1,1.4,3.2,1.8
		c0.6,0.4,1.2-0.1,1.8,0.1c2.8,0.9,5.7,1.5,8.5,2c0.6,0.1,1.2,0.1,1.8,0.1c1.1,0.2,2.2,0.1,3.4,0.2c0.6,0,1.1,0.5,1.5,1
		c1.7,0.1,3.4-0.1,5.2-0.2c0-0.5,0-0.9-0.1-1.4c1.4-0.1,2.6-0.5,3.9-0.5c0,0.6,0,1.4-0.1,2c-1,0.6-2.2,1.2-2.8,2.3
		c-0.4,0.6-0.5,1.4-0.6,2c0.5-0.2,0.6-0.7,0.9-1.2c0.2-0.5,0.7-0.9,1.2-1.2c0.9-0.4,1.7-1,2.5-1.5c0.7,0,1.5-0.2,2.3,0
		c0.7,0.1,1.4,0.2,2.1,0.5c0-0.1,0-0.2,0-0.4c-0.4-0.2-0.7-0.4-1.2-0.6c-0.1,0-0.2-0.1-0.4-0.2c0.1-0.1,0.2-0.4,0.4-0.5l0.2-0.1
		c0.1-0.1,0.2-0.1,0.5-0.2c0.2,0,0.5,0,0.6,0.1c0.4,0.5,0.9,0.9,1.4,1c0.1,0,0.2,0.1,0.4,0.2c0,0.2-0.1,0.5-0.1,0.7
		c-0.1,0.4-0.2,0.7-0.2,1.1c2.7-0.7,5.5-0.5,8.1,0.1l1.6-0.4v0.1l-1.6,0.4l-3,0.7l0.1,6.8l4.7-1.1v-1.2l-3,0.7v-1.7l2.7-0.6v-1.2
		l-2.7,0.6v-1.4l2.3-1.4v-0.4c6.3,2,11.2,6.1,11.2,6.1c0.1,0,0.2,0,0.4,0l0.1,5.8c0,0.2,0,0.5,0,0.7l-3.1-5.3l-0.5,0.1l3,5
		c0.2,0.5,0.5,1,0.7,1.4c0,0,0,0.1,0.1,0.1v0.1c0,0.1,0,0.2,0,0.4h-0.1c-0.1-0.4-0.2-0.7-0.5-1.1c-0.1-0.4-0.4-0.7-0.7-1.2l-3.3-5.5
		l-3.9,1l0.2,12.5l3-0.7l-0.1-6.5c0-0.4,0-0.7,0-1.1s-0.1-0.9-0.1-1.2h0.1c0.1,0.2,0.2,0.5,0.4,0.9c0,0,0,0.1,0.1,0.1
		c0,0.2,0,0.5,0,0.6c0,0.4,0,0.7,0,1.1l0.1,6.5l-2.1,0.2v0.6l3-0.7l-0.1-6.5c0-0.1,0-0.4,0-0.5L202.5,119.2z M132.1,49.8
		c0.1-0.5,0.5-1,0.7-1.5c-0.2,0-0.6,0-0.9,0c-0.5,1.1-0.4,2.3-0.6,3.6c-0.6-0.4-0.2-1-0.2-1.5c0.2-1.7,0.4-3.3,0.6-5
		c0-0.1,0-0.2,0-0.2c0.6-2.7,1.5-5.3,2.7-7.7c0.5-1.1,1.2-2.2,1.7-3.4c0.5-0.7,1-1.6,1.7-2.3c0.9-0.9,1.8-1.7,2.7-2.6
		c1.1-1.1,2.2-2.2,3.6-3c0.1,0.2,0.2,0.6,0.2,0.9c0.4-1,0.6-2.3,1.5-3.1c4.7-3.1,10-5,15.4-6c1.6-0.2,3.2-0.5,4.9-0.4
		c0.1,0.1,0.4,0.2,0.5,0.2c0,0.9-0.4,1.5-0.6,2.2c-0.1,0.7-0.2,1.5-0.5,2.1c-0.2,0.6-0.5,1.1-0.5,1.7c0.9-0.7,1.2-1.8,1.7-2.7
		s0.6-2,1.4-2.7c0.9-0.7,2.1-0.6,3.2-0.9c2.6,0.2,4.9,0.7,7.5,1.4l0.2,0.1c2.2,0.6,4.4,1.4,6.5,2.6c0.9,1.2,1.7,2.5,2.6,3.7
		c0.2,0.4,0.5,0.9,0.6,1.4c-0.5-0.1-0.9-0.5-1.2-0.9c-0.6-0.5-1.5-1-2.1-1.5c-0.9-0.6-1.5-0.9-2.3-1.4c-0.2,0-0.9-0.2-1.1-0.2
		c0.4,0.6,0.7,1.2,0.7,2c0,1,0.1,2,0,2.8c0,0.5-0.6,0.5-1,0.6c0,0.1,0,0.4,0,0.5c0.5,0.1,1,0.2,1.4,0.5c0.5,0.4,1.1,0.9,1.7,1
		c0.2,0.1,0.6,0.1,0.9,0.2c-0.2-0.5-0.4-1-0.6-1.5c1.1,0.2,2.1,0.7,3.2,0.7c0.6,0,0.7-0.7,0.9-1.2c0.1-0.1,0.1-0.2,0.2-0.2l0.1-0.2
		c0.1-0.9-0.2-1.6-0.6-2.5c-0.1-0.5-0.2-1-0.5-1.4c1,0.5,2.1,1.2,2.6,2.2c0.1-0.2,0.2-0.6,0.4-0.9c0.1,0,0.5,0.1,0.6,0.1
		c4.1,3.4,7.5,7.6,9.6,12.5c0.7,1.8,1.6,3.7,2.2,5.5c0.5,2.7,1.6,5.3,1.8,8c-1.1-1.7-1.6-3.8-3.1-5.3c-1.5-2.2-3-4.4-4.9-6.4
		c-3-3-6.3-5.3-9.8-7.4c-4.2-2.5-8.7-4.3-13.4-5.5c-1.8-0.5-3.7-0.9-5.5-1.2c-3.1-0.5-6.1-0.5-9.2-0.4c-2.3,0.2-4.6,0.7-6.8,1.5
		c-4.2,1.4-8.2,3-11.8,5.4c-4.3,3-7.3,7.5-8.9,12.5c-0.2,0.7-0.4,1.5-0.6,2.2c0.1,0.1,0.2,0.2,0.5,0.5c0.5-0.6,0.6-1.5,0.9-2.3
		c0.2,0,0.6,0,1,0c0.1-0.4,0.2-0.7,0.2-1.1c-0.6-0.6,0-1.2,0.2-1.8c0.4-0.5,0.7-1.1,1.1-1.6c0.1,0,0.5,0,0.7,0
		c0.2,0.5-0.2,1-0.7,1.1c0.1,0.2,0.2,0.4,0.4,0.6c0.4-0.4,0.9-0.7,0.7-1.2c0-0.5-0.4-0.6-0.7-0.7c0.4-0.4,0.7-0.7,1.1-1.2
		c0.9-0.9,2-1.4,3-2c0.2-1,1.2-1.6,2.1-2c0.2-0.2,0.6-0.2,1-0.1c-0.1,2-0.5,3.9,0.1,5.8c-0.5,0.4-1.1,0.5-1.7,0.7
		c0,0.1,0,0.5,0.1,0.6c-2.5,1.4-4.3,3.6-5.8,5.9c-0.5,1-1.1,1.8-1.5,3c0-0.5,0-1,0.1-1.6c0.9-2,2-3.8,3.6-5.3c0.9-1,2.1-1.6,3.1-2.5
		c-0.6,0.1-1.1,0.4-1.7,0.5c-0.6-0.2-0.2-0.5,0.1-0.6c0.1,0,0.2-0.1,0.4-0.2c0.1-0.9,0-1.7,0.1-2.7c-0.1,0-0.2,0.1-0.4,0.2l-0.2,0.1
		c-0.1,0.1-0.4,0.2-0.5,0.2c0.1,0.1,0.2,0.2,0.5,0.4c0,0.2,0,0.6,0,0.7c-1.2,1.2-2.8,2.2-3.9,3.7c-1.4,1.6-2.2,3.4-3,5.4
		c-0.1,0.1-0.2,0.4-0.4,0.6C132.2,49.9,132.1,49.9,132.1,49.8z M184.9,25.1c0.4,0.1,0.7,0.2,1.1,0.5c0.6,0.4,1.4,0.7,1.7,1.5
		c0.1,0.5,0,1.1-0.2,1.6c-0.9-0.1-1.8-0.2-2.6-0.9C184.8,26.9,185.1,26,184.9,25.1z M201.1,48.5c-1-1-2-2.1-3.1-3
		c-1.4-1.2-3-2.2-4.6-3.1c-2-1-3.8-2.2-5.9-3c0,0.4,0.1,0.7,0.1,1.2c4.1,2.1,8.2,4.3,11.3,7.7c1.4,1.4,2.3,3.1,3.2,4.8
		c0.4,0.7,0.4,1.7,0.1,2.5c-0.4-0.7-0.6-1.5-1-2.1c-2.1-3.6-5-6.5-8.5-8.9c-1.4-1-2.7-1.6-4.2-2.2c-0.5-0.2-1-0.4-1.4-0.6
		c-0.1-0.1-0.2-0.2-0.2-0.4c0-0.1,0-0.4,0-0.5c-0.9-0.2-1.7-0.5-2.5-0.9c-0.2,0-0.4-0.1-0.6-0.2c-0.2-0.1-0.5-0.1-0.7-0.2
		c0.1-0.9,0-1.8,0.1-2.7c0.2-0.9,0.5-1.7,0-2.6c-0.1,0.4-0.2,0.6-0.4,1c-0.2,0-0.6,0-0.7,0c0-0.2,0-0.6,0-0.9c-0.1,0-0.4,0-0.6,0
		c0,0.4,0,0.6,0,1l0.1,0.1c0.4,0.2,0.7,0.4,1.1,0.5c0,0.4,0,0.7-0.2,1c-0.5,0-1-0.2-1.5-0.4c-0.4-0.2-0.9-0.4-0.9-0.9
		c0.1-0.1,0.4-0.2,0.5-0.2c0-0.2,0-0.6-0.1-0.9c-0.5-0.2-1.1-0.5-1.6-0.6c-0.4-0.1-0.7-0.2-1.1-0.2c-1.4-0.2-2.7-0.7-4.2-0.6
		c0,0.5,0.1,0.9,0.5,1.2v0.2c-0.9-0.4-2-0.7-2.6-1.6c-0.4-0.5-0.2-1.1-0.2-1.6c2.1-0.7,4.2,0.4,6.3,0.5c0.4,0,0.6,0.1,1,0.2
		c0.6,0.2,1.2,0.4,1.7,0.7c0.2,0.2,0.5,0.6,1,0.6c1.2,0.2,2.3,0.5,3.6,0.7c0.5,0.2,1.1,0.4,1.6,0.6c0.2,0.1,0.6,0.4,0.9,0.5
		c0.5,0.2,0.9,0.6,1.4,0.9c1,0.6,2,1.1,3,1.5c0.5,0.2,1.1,0.5,1.6,0.9c3.3,1.7,5.9,4.6,8.1,7.5c0.1,0,0.4,0,0.5,0
		c0.1,0,0.4,0.2,0.5,0.2c0,0.6,0,1.2,0.2,1.7c0.4,0.7,0.7,1.5,1.1,2.3v0.1c0.1,0.7,0.5,1.5,0.6,2.3C203,51.7,202.4,49.7,201.1,48.5z
		 M204.4,60.3c-0.2,0-0.6,0.2-0.9,0c-0.1-0.5-0.1-1.4,0.5-1.4c0,0.1,0.1,0.4,0.1,0.6C204.3,59.8,204.3,60,204.4,60.3z M145.6,35.7
		c-0.1,0.1-0.4,0.2-0.5,0.4c-0.1-0.2-0.2-0.6-0.4-0.9c-0.1,0.2-0.4,0.4-0.6,0.6c0.1-0.4,0-0.7,0.4-0.9c1.7-0.9,3.4-1.5,5.3-2.2
		c0.2-0.1,0.5-0.2,0.6-0.4c1.1-0.5,2.2-0.7,3.2-1.1c1-0.2,2-0.5,2.8-0.9c1.6-0.2,3.1-0.6,4.7-0.7c0.5-0.1,1-0.2,1.5-0.2
		c1.5,0,3,0.1,4.4,0.1c0,0-0.1,0.1-0.2,0.1c-1.1,0-2.2,0-3.4,0.1c-1.5,0.2-3.1,0.2-4.7,0.7c-1.1,0.1-2.1,0.5-3.1,0.7
		c-0.1,0-0.2,0-0.4,0.1c-1.5,0.2-2.8,0.9-4.3,1.4c1.7,0,3.3-0.6,5-0.9c4.3-0.6,8.7-0.9,13-0.7c0.7,0,1.6,0.1,2.3,0.1v0.1
		c-0.4,0.2-1,0.5-1,1c-0.2,0-0.4,0-0.6-0.1c-0.5-0.1-1.1-0.2-1.5,0.2c-0.2,0.2-0.2,0.6-0.1,0.9c0.2,0.5,1,0.6,1.5,0.6
		c-0.1-0.1-0.2-0.2-0.2-0.4c-0.4-0.2-1-0.5-0.6-1c0.5-0.2,1-0.1,1.5-0.1c0.2,1.4,1.6,2.1,2.8,2.7c-0.1,0.1-0.2,0.1-0.2,0.2
		c-0.7-0.1-1.6-0.2-2.3-0.2c0,0,0-0.1,0.1-0.1c-1,0-2-0.1-3-0.2c-3.1-0.1-6.1-0.1-9.3,0.1c-0.6,0-1.2-0.1-1.8,0
		c-3.2,0.4-6.3,1.1-9.2,2.1c-1.1,0.4-2.1,1-3.1,1.2c0-0.5,0-1,0-1.4c0.1,0,0.4,0.1,0.5,0.2c0.5,0.2,0.9-0.1,1.2-0.2
		c0-0.2,0-0.6,0-0.9C145.8,35.7,145.6,35.7,145.6,35.7z M145.1,39.8c0.5-0.5,1.2-0.6,1.8-0.9c1.1-0.4,2.1-0.7,3.2-1
		c2.1-0.6,4.1-1.1,6.3-1.4l-0.4-0.4c1.4,0,2.6-0.2,3.9-0.4c2.7-0.1,5.5-0.1,8.4,0c1.4,0,2.7,0.4,4.1,0.4c0.2,0,0.4,0,0.6,0.1
		c1.1,0.1,2.2,0.4,3.2,0.6c1.5,0.2,2.8,0.7,4.3,1.1c0.4,0.1,0.9,0.2,1.2,0.4c0.5,0.1,1.2,0.2,0.9,1c-0.5,0.1-1,0-1.5-0.1
		c-1.2-0.2-2.6-0.6-3.8-0.7c-0.9-0.4-1.8-0.4-2.8-0.6c-1.7-0.4-3.4-0.5-5.2-0.9c-3-0.1-5.9-0.1-8.9,0c-0.4,0-0.9,0-1.2,0.1
		c-2.5,0.2-4.9,0.6-7.3,1.2c-1.1,0.4-2.3,0.6-3.4,1c-0.4,0.1-0.7,0.2-1,0.4c-0.4,0.1-0.7,0.2-1.2,0.4c-0.4,0.1-0.6,0.4-1,0.4
		C145.1,40.3,145,40.1,145.1,39.8z M140.2,48.3c0.1,0.6-0.4,1.2,0,1.8c-0.1,0.6-0.1,1.2,0,1.8c-0.4,0.4-1,0-1.4,0.1
		c-0.2,0.1-0.5,0.5-0.7,0.4c-0.5-0.5-0.6-1.4-1.4-2c0.1-0.5,0.2-0.9,0.5-1.4c0.4,0.1,0.6,0.2,1,0.2c0.1-1.2,0.6-2.3,1.2-3.4
		c0.4,0.2,0.7,0.2,1.2,0.2C140.4,47,140.1,47.6,140.2,48.3z M137,53.4c0.4,0.2,0.7,0.6,0.7,1.1c-0.1,0-0.5,0-0.6,0
		C137,54.1,137,53.7,137,53.4z M137.1,57.1c0,0.5,0,0.7,0,1c-0.1,0-0.2,0-0.2,0.1c-1-1.5-1.6-3.2-1.7-5c0-0.1,0.1-0.2,0.2-0.4
		c0.1,0.5,0.4,1,0.5,1.4c0.1,0.5,0.4,1.1,0.5,1.6C136.6,56.2,136.9,56.7,137.1,57.1z M184.8,87.9c-0.6,0-0.6,0.5-0.5,0.9
		c-1.1-0.2-2.1,0.2-3.1,0.6c0,0.1,0,0.2,0,0.4c0.4,0,0.6,0,1,0c-0.4,0.1-0.9,0.4-1.2,0.4c-0.2,0-0.5-0.4-0.6-0.5
		c-1,0.1-1.8,0.7-2.8,1c-3.2,0.9-6.5,1.2-9.8,1.6c0,0.6,0,1.1,0,1.6l-0.4-0.1l-0.1-0.2c-1.7,0-3.4,0.1-5.2,0c-0.1-0.4-0.1-0.7-0.2-1
		c-1.2,0.1-2.5-0.1-3.7-0.2c-1.8-0.4-3.8-0.6-5.5-1.4c-0.6-0.4-1.2-0.6-2-0.6c-0.2,0.2-0.5,0.5-0.6,0.6c0-0.1-0.1-0.4-0.1-0.6
		c-0.1,0-0.2-0.1-0.2-0.1c-0.1,0-0.5-0.2-0.7-0.2c-0.1,0.1-0.4,0.2-0.5,0.4c-0.1,0-0.4,0-0.5,0c0.2-0.2,0.6-0.4,0.9-0.5
		c-0.5-0.2-1-0.4-1.5-0.6c0,0-0.1,0.1-0.2,0.2c-0.1,0.4-0.4,0.6-0.5,1c-0.4,0-0.7,0.1-1,0.1c-0.2,0-0.4,0-0.6-0.1c0,0.2,0,0.4,0,0.6
		c0.2,0,0.5,0.1,0.7,0.1c0,0.1,0.2,0.2,0.2,0.4c-0.2,0.4-0.5,0.7-0.7,1.1c-0.4-0.7-0.6-1.5-1-2.1s-1.1-1-1.8-1.1
		c-0.6-0.4-1.5-0.5-2-1.1c0-0.2-0.1-0.6-0.1-0.7c0.6-0.2,1.4-0.4,1.8,0.1c0.9,0.6,1.8,1.7,3,1c0.2,0,0.5,0.1,0.7,0.2
		c0,0.1,0,0.2,0,0.4c0.2,0,0.6,0,1,0c-0.1-0.1-0.2-0.4-0.4-0.5c0.5,0,1,0.1,1.4,0.2c1.8,0.7,3.7,1.2,5.5,1.7c1.7,0.5,3.4,0.6,5.2,1
		c2.8,0.2,5.7,0.2,8.5,0c3.6-0.5,7.3-0.9,10.7-1.8c0.4,0,0.6-0.2,0.9-0.5c-1.2,0-2.5,0.5-3.7,0.7c-2.2,0.4-4.3,0.9-6.5,1
		c-1.4,0-2.7,0.4-4.1,0.2c-1.7,0-3.3,0.1-5-0.1c-1.5-0.1-3-0.2-4.4-0.6c-0.6-0.1-1.2-0.2-1.8-0.4c-3.7-0.9-7.4-2.2-10.6-4.4
		c-2.3-1.5-4.2-3.6-5.8-5.8c-0.6-0.9-1-1.8-1.5-2.7c-1-2.5-1.4-5-1.8-7.6c-0.1-0.4-0.5-0.5-0.9-0.6l-0.2-0.1c0-0.5,0.1-1,0.2-1.5
		c0.2,0.4,0.5,0.9,0.7,1.2l0.1,0.2h0.1c0.1-1.2-0.1-2.5,0.2-3.6s1.5-1.8,1.7-3.1c-0.4,0.2-0.7,0.5-1.1,0.6c0.1-0.9,0.5-1.7,0.7-2.5
		c0.5,0.1,1,0.2,1.4,0.5c0,1.1-0.1,2.1-0.2,3.2c-0.1,3-0.2,6,0.2,9h0.1c0.1,0.4,0.2,0.9,0.4,1.2c0.6,2.1,1.7,3.9,3.1,5.7
		c1.2,1.6,2.8,3,4.6,3.9c0.6,0.4,1.1,0.6,1.7,1.1c1,0.7,2.1,1.1,3.2,1.6c4.1,1.6,8.5,2.8,12.9,2.5c-0.7-0.2-1.5-0.1-2.3-0.2
		c-1.2-0.4-2.7-0.1-3.8-0.9c-0.5-0.4-1.1-0.6-1.7-0.6c0.4-0.5,0.9-1,1.1-1.5c0.6,0.2,1.1,0.6,1.7,0.7c0.5-0.4,0.7-1,1.2-1.4
		c0.7,0.2,1.5,0.7,2.2,1c0.9,0.2,1.7,0.6,2.5,1c0.5-0.4,0.9-0.9,1.4-1c0.6-0.2,1.5-0.6,1.6-1.5c0-0.5-0.4-1-0.5-1.4
		c-1,0.2-2,0.9-3.1,0.9c-1.2-0.1-2.5,0.5-3.7,0.2c-0.1-0.1-0.4-0.2-0.5-0.5c0-0.6,0.1-1.1,0.6-1.5c0.5,0,0.9,0,1.4,0
		c-0.1,0-0.2,0-0.2-0.1s-0.1-0.2-0.2-0.4c-0.1,0-0.2,0-0.4,0c0,0.1-0.1,0.4-0.1,0.5c-0.6,0-1.1-0.5-1.4-1c-0.1,0.1-0.1,0.1-0.2,0.2
		c-0.4-0.4-1-0.6-1.2-1.2c0.5,0,1,0.1,1.4,0.2c0.4-0.4,0.9-0.4,1.4-0.4c0,0,0.1,0.2,0.2,0.2c0,0.1,0,0.2,0,0.4c0.1,0,0.2,0,0.4,0
		c0-0.2,0.1-0.5,0.2-0.7c0.5-0.1,1.1-0.1,1.6,0.1c0.2,0.5,0.4,1,0.5,1.5c-0.2,0.2-0.4,0.4-0.5,0.6c-0.1,0-0.2,0-0.4,0
		c0.2,0.2,0.5,0.5,0.7,0.6c1.4-0.1,2.8-0.4,4.2-0.5c0-0.1,0-0.4,0-0.5s-0.1-0.4-0.1-0.5c0.2-0.1,0.6-0.4,0.9-0.5c0,0,0-0.1,0-0.2
		c-0.1-0.1-0.4-0.2-0.5-0.2c-0.1,0.2-0.4,0.4-0.5,0.6c-0.7,0-1.5-0.1-2.2,0.1c-0.5,0.2-1.4,0.4-1.7-0.1c0-0.5,0.1-1,0.1-1.6
		c0.6-0.2,1.4-0.5,2-0.2l0.1,0.1c0.6-0.6,1.4-0.4,2.1-0.5c0.2-0.1,0.4-0.2,0.5-0.5c-0.9-0.1-1.7,0-2.5,0c-0.4,0.1-0.9,0.1-1.2,0.2
		c-1.8,1.1-4.1-0.5-5.9,0.4c-1,0.2-2.2,0.4-3-0.4c-0.2-0.2-0.5-0.6-0.7-0.9c-0.1,0-0.2,0-0.4,0.1c-0.1,0.5-0.4,0.9-0.7,1.1
		c-0.4,0.1-0.6,0.2-1,0.2c-0.4,0.2-0.6,0.4-1,0.6c-0.6,0.6-1.1,1.5-0.7,2.3c0.2,1,0.7,1.7,1.4,2.5c-0.6,0.2-1.4,0.5-2,0
		c-0.6-0.6-0.9-1.4-1.1-2.1c0-0.5,0-0.9,0-1.4c0.2-0.1,0.5-0.4,0.7-0.5s0.6-0.2,0.9-0.4c-0.4-0.4-0.9-0.6-1.2-1.1
		c-0.9-1.2-1.4-2.6-1.7-4.1c-0.5-2.5-0.4-5-0.4-7.5c0.1-2.6,0-5.2,0-7.7c1.2-0.4,2.5-1.2,3.8-1.1c0.9,0,1.7,0.2,2.6,0.2
		c1.4,0,2.7,0.1,4.2,0c-0.4-0.7-1-1.5-1.7-1.7c-1.4-0.5-2.8-0.4-4.1-1c-0.4-0.1-0.9-0.5-1.2-0.2c-1,0.4-1.5,1.4-2.5,1.6
		c-0.4,0.1-0.6-0.1-0.9-0.2c0.1-0.7,0.4-1.4,0.5-2.1c0.1-0.4,0.2-0.6,0.4-1c1-2.5,2.1-5.2,4.6-6.6c1.1-0.4,2.1-1,3.3-1.2
		c2.2-0.5,4.4-0.6,6.6-0.4c2.1,0,4.2,0.5,6.3,1c2.5,0.6,4.6,1.8,6.6,3.1c1.1,0.7,2.3,1.2,3.3,2.2c1.2,1.5,2.5,3.1,3.4,4.7
		c0.6,0.9,0.4,1.8,0.6,2.8c0.5,2.7,0.6,5.4,0.4,8.1c0,1.6-0.4,3.1-0.5,4.7l-0.1,0.1c-0.2,2.2-0.9,4.3-1.5,6.4
		c0.5,0.1,0.9,0.2,1.4,0.2c0.6-0.7,1.5-1.4,1.8-2.3c0.5-1.1,0.6-2.2,0.7-3.4c0.4-2.3,0.7-4.6,0.6-6.9c0-2.6-0.4-5.2-0.9-7.7
		c-0.2-0.9-0.5-1.8-1.2-2.5c-1.4-1.5-2.7-3.1-4.3-4.4c-3-2.6-6.5-4.3-10.2-5.4c-1.6-0.5-3.2-1-4.9-1h-0.2c-1.7-0.1-3.4-0.4-5.2-0.2
		c-1.8,0-3.8,0.2-5.4,1.2c-0.9,0.4-1.6,0.7-2.2,1.4c-0.9,0.9-1.5,2-2.1,3.1c-0.6,1-1.2,2.1-1.7,3.2c0,0.1-0.1,0.2-0.1,0.4
		c-1.2,2.3-1.5,5-1.5,7.6c-0.1,4.1,0.4,8.1,1,12.2c0.2,1.7,1,3.3,2,4.8c0.1,0.2,0.2,0.5,0.2,0.7c-0.4-0.2-0.6-0.5-1-0.9
		c-0.2-0.4-0.5-0.5-1-0.5c-0.1,0.4-0.2,0.6-0.2,1c-0.2,0-0.5,0.1-0.7,0.2c-0.2,0.4-0.2,0.7-0.2,1.1c-0.7-0.7-1.2-1.6-1.7-2.6
		c-0.9-1.5-1.5-3.2-1.8-4.9c-0.1-0.5-0.2-1-0.4-1.5c0-0.1,0-0.4,0-0.5c0-0.6,0-1.2-0.2-1.8c-0.2,0-0.4,0.1-0.6,0.1
		c-0.5-4.7-0.9-9.3-1.1-14c0-0.7-0.2-1.5,0-2.2c0.1,0.1,0.4,0.2,0.5,0.4c0,1.8,0.2,3.6,0.2,5.4c0,0.5,0,1,0.1,1.6
		c0.5-1.2,0.5-2.6,1-3.9c0.2-0.9,0.6-1.7,1.1-2.6c0.2-0.9,0.2-1.7,0.9-2.5c0.1,0.4,0.4,0.7,0.5,1c0,0.2,0,0.5,0.1,0.9
		c0.2-0.1,0.5-0.2,0.7-0.2c0,1-0.4,1.8-0.4,2.8c0.4-0.4,0.6-0.9,0.7-1.4c0.4-0.9,0.7-1.8,0.7-2.8c0-0.2-0.1-0.5-0.2-0.6v-0.1
		c-0.6-0.1-0.9-1-0.1-1.2c-0.1-1.6,0.7-3,1.1-4.6c0.2-0.6,0.2-1.7,1.1-2c0.2,0.2,0.1,0.6,0.1,1c-0.1,0.7-0.2,1.5-0.7,2.1v0.1
		c-0.2,0.7-0.5,1.5-0.7,2.2c0,0.2,0.1,0.5,0.1,0.7c0.2-0.4,0.5-0.6,0.7-1.1c0.1-0.6,0.4-1.1,0.5-1.7c0.4-0.9,0.7-1.7,1-2.6
		c0.2-0.7,0.7-1.5,1.6-1.7c0,0,0.1-0.1,0.1-0.2c0,0.1,0,0.4,0,0.5h-0.1c-0.1,0.2-0.2,0.4-0.4,0.6c-0.2,0.5-0.6,1-0.9,1.5
		c0.6-0.2,1.1-0.6,1.5-1c0.5-0.5,0.9-0.9,1.1-1.5c0.2-0.4,0.4-1,0.7-1.1c1.4-0.6,2.7-0.7,4.1-1.1c1.5-0.4,3-0.5,4.4-0.7
		c2.3-0.1,4.7-0.1,7.1,0c2,0.4,3.9,0.5,5.9,1.1c0.5,0.1,1,0.2,1.5,0.4c0.7,0.1,1.4,0.4,2.1,0.6c0.5,0.1,1.1,0.4,1.6,0.6
		c0.2,0.1,0.4,0.1,0.6,0.2c0.4,0.1,0.7,0.2,1.1,0.4c0,0.4-0.1,0.9,0,1.2c0.7,0.6,1.6,1,2.6,1.2c0-0.2-0.1-0.6-0.2-0.9
		c-0.1-0.2-0.2-0.4-0.2-0.6c0-0.1-0.1-0.4-0.1-0.5c0.1,0.2,0.2,0.4,0.5,0.6c0.4,0.5,0.7,1,1.1,1.6c0,0,0.1-0.2,0.2-0.2
		c0.1-0.1,0.2-0.4,0.4-0.5c0.4,0.2,0.6,0.4,1,0.6c0.2,0.2,0.5,0.5,0.7,0.6c0.2,0,0.6,0,1,0c1.5,1.5,3.1,3,4.6,4.6
		c-0.9,1.1-1.6,2.2-2.2,3.4c0,0.2-0.1,0.4-0.2,0.6c-0.5,1.6-0.1,3.2,0,4.8c0.2-0.5,0.4-1,0.4-1.5c0-1.5,0.4-2.8,1.1-4.2
		c0.4,0.1,0.6,0.2,0.9-0.1c0.2-0.2,0.6-0.5,0.9-0.6c0.1,0,0.4-0.1,0.6-0.1c0.1,1.8,0.6,3.7,1.1,5.4c0.1,0,0.2,0.1,0.4,0.1
		c0-0.9-0.1-1.7-0.2-2.6c0.1-0.4,0.4-0.9-0.1-1.1c-0.1,0-0.1-0.1-0.2-0.2c-0.1-0.4-0.2-0.7-0.4-1c0.2-0.4,0.7-0.2,1.1-0.2
		c0.1-0.6,0.5-1.2,0-1.7c-0.5-0.4-1.1-0.7-1.2-1.5c0-0.1-0.1-0.2-0.1-0.4c0.5-0.4,1.4-0.5,1.6-1.2c0-0.4,0-0.6-0.1-1
		c-0.4-1.2-1.6-1.7-2.3-2.7c1.1,0.5,2.2,1,2.8,2c0.1,0.4,0.6,0.2,0.9,0.2c0,0.6,0,1.1,0,1.7c0.2,0.5,0.6,0.7,1.1,0.9
		c0.1,0.2,0.5,0.6,0,0.7c-0.7,0.2-1.5,0.6-1.8,1.4c-0.4,0.9-0.4,1.6-0.2,2.3c0.4,1.2,0.4,2.5,0.9,3.6c0,0.4,0.1,0.6,0.1,1
		c0.1,1,0.2,2.1,0.1,3.1c-0.1,0.6-0.5,1.2-0.7,1.8c0.2,0.5,0.7,1,0.7,1.6c0.2,2.5,0,5-0.6,7.5c-0.1-0.7-0.2-1.6-0.5-2.3
		c-0.4,0.6-0.6,1.2-0.9,2c-1,2.5-2.3,4.8-4.4,6.4c-0.4,0.2-0.4,0.6-0.5,1c-0.2-0.2-0.4-0.9-0.9-0.6c0,0.4,0,0.7-0.1,1.2
		c0,0.1-0.1,0.2-0.1,0.5c-1.5,0-2.8,0-4.3,0v0.1c1.1,0.1,2.2,0.2,3.2,0.5c0.2,0.5-0.5,0.5-0.7,0.6c-0.7,0.5-1.2,1-1.8,1.4
		c1.4-0.6,2.6-1.4,3.7-2.2c6.1-4.3,10.9-10.8,12.5-18.2c0.2-1.2,0.5-2.5,0.6-3.7c0.6,0,1.1,0,1.6,0c0.1,0.2,0.2,0.5,0.5,0.7
		c0.1,0.2,0.2,0.5,0.2,0.7c0.1,1.6-0.5,3.1-0.7,4.7c0.1-0.2,0.2-0.5,0.2-0.7c0.2,1,0,2,0.1,3c0,1.1,0.6,2.1,1,3.2
		c0.4-0.4,0.9-0.7,1.2-1.1c0-0.4,0.1-0.7,0.1-1c0.7-3.3,0.6-6.6,0.6-10c-0.1-1.2-0.2-2.5-0.5-3.7c0.1-0.1,0.2-0.2,0.4-0.2
		c0.4,1.5,0.5,3.1,0.6,4.7c0.7,3.9,1,7.3,0,10.5c-0.2,0.9-0.2,1.8-0.7,2.7c0.1-0.5,0.1-1,0.2-1.6c-0.1,0-0.5,0.1-0.6,0.2
		c-0.4,0.6-0.6,1.2-0.9,1.8c-0.1,0-0.4,0-0.5,0c-1.6,3.2-3.7,6.1-6.1,8.7c-0.6,0.5-1.1,1.2-1.8,1.5c0-0.1,0-0.4,0-0.5
		c1.5-1.6,2.8-3.4,4.3-5c1.1-1.4,2-2.8,2.7-4.4c-2,2.5-3.8,5-5.9,7.3c-0.6,0.6-1,1.4-1.8,1.6l0.2-0.4c0-0.2,0-0.6,0-0.7
		c-0.2,0-0.4,0-0.6,0c-0.1,0.4-0.2,0.6-0.4,1c-0.2,0-0.5,0-0.7,0c0,0.1,0,0.5,0,0.6c0.4,0.1,0.6,0.2,1,0.2c0.1,0.2,0.2,0.5,0.4,0.7
		c-0.4,0.2-0.7,0.6-1.1,0.9c-0.2-0.1-0.6-0.4-0.9-0.1c-0.9,0.5-1.6,1.1-2.5,1.5c-0.4,0-0.6-0.1-1-0.2c0.1,1.2,0.4,2.3,0.5,3.4
		c-0.1,0-0.4,0-0.5,0c-0.1-0.5-0.2-1.1-0.4-1.6c0-0.1,0-0.4-0.1-0.5c-1.4,0.5-2.7,1.2-3.9,1.7C185.4,88.8,185.2,88.4,184.8,87.9z
		 M150.4,85.7c0.5-0.2,0.9-0.2,1.4-0.2c0,0.4,0,0.6,0,0.9c-0.2,0-0.6,0-0.9,0C150.8,86.1,150.5,86,150.4,85.7z M153.6,81.4
		c0.2-0.2,0.4-0.5,0.6-0.6c0.6-0.1,1.4-0.4,1.7,0.4c0,0.4,0,0.9-0.5,1.1c-0.4,0.1-0.7,0.2-1.1,0.2C154.1,82.2,153.7,81.8,153.6,81.4
		z M190.1,97.9c0,0.1,0,0.2,0,0.4c-0.2,0.5-0.1,1.1-0.2,1.6c-0.2-0.6-0.5-1.1-0.5-1.7c-0.4-0.9-0.4-2,0-2.8c0-0.2,0.2-0.4,0.4-0.5
		c0,0.1,0,0.4,0,0.4h0.2c-0.2,0.6-0.4,1.2-0.4,1.8c0.1,0,0.6,0,0.7,0C190.2,97.3,190.1,97.5,190.1,97.9z M193.2,99.5
		c-0.1,0-0.2,0-0.4,0c-0.5-0.6-0.9-1.2-1.4-1.7c0-0.1,0-0.2,0-0.4c0.4,0.2,0.7,0.5,1.1,0.9c0.2,0.1,0.5,0.2,0.7,0.2
		C193.2,98.9,193.2,99.3,193.2,99.5z M195.4,94.3c0.2-0.4,0.6-0.9,0.9-1.4c-0.5,0.1-0.9,0.4-1.2,0.7c-0.2,0.1-0.5,0.1-0.7,0.2
		c-0.7,0.9-1.7,2.2-0.7,3.3c0.1,0.2,0.1,0.5,0.2,0.7c-0.2,0-0.5,0-0.7,0c-1-0.7-1.8-1.6-2.8-2.5c-0.1-0.5-0.2-1.1-0.4-1.6
		c-0.1-1-0.2-2.1,0-3.1c0.2-0.7,0.9-1.2,1.5-1.6c3.2-2.5,6-5.2,8.7-8.1c1.4-1.5,2.2-3.1,3.1-4.9c0.1,0.2,0.4,0.6,0.5,0.9
		c0.4,1.2-0.2,2.1-0.5,3.1c-0.4,1.2-0.6,2.5-0.9,3.8c-0.4,0.9-0.9,1.6-1,2.5c-0.2,1.8-0.6,3.8-0.5,5.8c0,0.2,0,0.5,0,0.9
		c-0.2,0.2-0.4,0.6-0.6,0.9c-0.1,0-0.5,0-0.7,0.1c-0.4-1-0.2-2.2-1-3.1c-0.6-0.7-1.5-1.7-2.5-1.5c-0.4,0-0.7,0.1-1,0.2
		c-0.2,0.1-0.5,0.4-0.9,0.5c0.7-0.1,1.4-0.2,2.1-0.1c0.2,0,0.5,0.1,0.7,0.2c-0.1,0.4,0.2,1.2-0.4,1.1c-0.2-0.4-0.4-0.9-0.7-1.1
		c0,0-0.1,0.1-0.2,0.2l-0.1,0.1c-0.4,0.4-0.5,0.9-0.6,1.4c0.6,0,1.2,0,1.8-0.1c0.1,0.4,0.1,0.6,0.2,1c0.7,0.4,1.4,0.6,2,1.1
		c-0.9,0.1-1.8,0.2-2.7,0.5C195.9,94.7,195.6,94.5,195.4,94.3z M200.9,101.5c-0.2,0.5-0.7,0.6-1.2,0.5c-0.7,0-1.4-0.7-2-1.1
		c0,0.4,0,0.7,0,1.1c-0.2,0-0.5-0.1-0.9-0.2c0-0.5,0-1,0.1-1.5c0.5-1.2,0-2.7,1-3.8c0.1,1.1,0,2.3-0.1,3.4c0.1,0,0.2,0,0.4,0
		c0.2-0.6,0.7-1.2,0.6-2c0-0.7,0-1.6,0.2-2.3c0.4,0,0.9,0.1,1.2,0.1c0,0.1,0.1,0.4,0.2,0.5c0.4,1,0.6,1.8,0.7,2.7
		c0.1-0.5,0.2-1,0.4-1.5C201.9,98.8,201.6,100.2,200.9,101.5z"/>
	<path class="st0" d="M167.1,58.4c1.2,0.4,2.5,0.2,3.7-0.1c1.8-0.1,3.9-0.2,5.7,0.6c0-0.2,0-0.4,0-0.6c-0.7-0.4-1.6-0.6-2.5-1
		c-0.4-0.5-0.9-0.7-1.4-1c-0.7,0-1.5,0-2.2,0c-0.7,0.2-1.5,0.1-2.2,0.1c-0.9,0.4-1.7,1-2.5,1.7c0,0.1-0.1,0.4-0.1,0.5
		C166,58.5,166.5,58.2,167.1,58.4z"/>
	<path class="st0" d="M167.7,63c0.6-0.2,0.2-1,0.4-1.5c0.1,0,0.2,0,0.4,0c0.1,0.2,0.4,0.4,0.5,0.6c0.7,0,1.7,0.2,2.1-0.6
		c-0.2-0.4-0.4-0.7-0.4-1.2c0.1,0,0.4,0,0.5,0c0,0.1,0.1,0.2,0.1,0.2c0.2,0.1,0.6,0.1,1,0.2c0,0.4,0,0.6-0.1,1c0.5,0,1,0.1,1.5-0.2
		c0.7-0.1,1.5,0,2.1,0.4c0.7,0.5,1.7,0.1,2.5-0.1c-0.2-0.4-0.7-0.5-1.1-0.9c-0.2-0.4-0.7-0.5-1.2-0.6c-0.6-0.1-1.1-0.5-1.8-0.4
		c-1.8-0.6-3.8-0.9-5.8-0.5c-0.2,0-0.5,0.1-0.9,0.1c-0.2,0.1-0.4,0.2-0.6,0.4c-0.5,0.6-1.2,1-2,1.1c0,0.5,0,1.1,0.2,1.6
		c0.1,0,0.4,0,0.5,0c0.7-0.6,1.4-1.4,2.2-1.8c-0.5,0.6-1,1.2-1.2,2.1C166.9,63,167.4,63.2,167.7,63z"/>
	<path class="st0" d="M157.3,69.2c0.2-0.2,0.4-0.4,0.6-0.5c0.6-0.7,1.1-1.6,1.4-2.5c0.1-0.9,0.1-1.6,0-2.5c-0.1,0.2-0.2,0.6-0.4,0.9
		c-0.2,0.7-0.4,1.6-0.6,2.3C157.9,67.9,157.5,68.6,157.3,69.2z"/>
	<path class="st0" d="M151.7,63.1c0.7,0.6,1.7,0.2,2.3-0.5c0-0.1,0-0.2,0-0.4c-0.2-0.1-0.4-0.4-0.5-0.6c0.9-0.1,1.5,0.4,2.1,0.9
		c0.1,0.5-0.2,0.6-0.6,0.6c0,0.1,0,0.4,0,0.5c0.5,0.1,1,0.1,1.5,0.2c-0.4,1-1.6,0.9-2.3,1.4c0.5,0,1,0.1,1.5,0
		c0.5-0.2,1-0.4,1.5-0.6c0.1,0.1,0.2,0.2,0.5,0.2c0-0.5,0.2-0.9,0.7-1c-0.6-0.1-0.7-0.9,0-1c0.1-0.9-0.5-1.5-1.1-2.1
		c-1.2-1.1-3.1-1.4-4.7-1c-1.2,0.2-2.5,0.9-3.3,1.8c-0.6,0.7-0.7,1.6-1.1,2.3c0.6,0.1,1-0.5,1.6-0.7c0.2,0,0.4-0.2,0.5-0.4
		C150.8,62.8,151.2,62.7,151.7,63.1z"/>
	<path class="st0" d="M172.8,64.3c1-0.1,2.1-0.1,3.1-0.1c-0.4-0.4-1-0.5-1.6-0.6c-1.5-0.2-2.8,0.2-4.3,0.5c-0.9,0.1-1.7-0.1-2.6-0.1
		c0.4,0.2,0.6,0.5,1,0.6C169.9,64.8,171.4,64.6,172.8,64.3z"/>
	<path class="st0" d="M175.2,74.9c-0.7-1.2-1.6-2.2-2.8-3.1c-0.1,0.2-0.4,0.2-0.6,0.2c-0.2-0.2-0.6-0.5-0.9-0.7
		c-0.4-0.1-0.7-0.2-1.2-0.2c-0.6-0.5-1-1-1.4-1.6c-0.1,0-0.4-0.1-0.5-0.1c0.2,0.9,0,1.7-0.1,2.6c0.5,0.2,0.9,0.5,0.9,1.1
		c0.5,0.7,1.4,1.4,2,2c0-0.2,0-0.6-0.1-0.7c-0.2-0.5-0.5-0.9-0.7-1.4c-0.1-0.2-0.5-0.9,0.1-0.9c1.4,0.4,2.6,1.4,3.6,2.3
		c0,0.4,0,0.6,0,1c0.2,0.2,0.5,0.5,0.9,0.7c0.5,0.2,0.9,0.6,1.1,1c0,0.6,0.2,1.4,0.5,2c0.2-1,0.2-2.1-0.2-3
		C175.6,75.8,175.4,75.4,175.2,74.9z"/>
	<path class="st0" d="M187.4,80.4c0.5,0,0.7-0.5,1-0.9c-0.2-0.5-0.5-1-0.7-1.5c0.1-0.9-0.2-1.7-0.2-2.6c-0.2-2,0.2-3.9,0-5.9
		c-0.5,0.2-0.4,0.9-0.5,1.4c-0.2,2.1-0.7,4.3-0.4,6.4C186.9,78.3,187.4,79.3,187.4,80.4z"/>
	<path class="st0" d="M161,74.4c-0.1-0.2-0.2-0.4-0.4-0.6c-0.1-0.9-1-0.2-1.6-0.5c-0.2-0.2-0.5-0.6-0.7-0.9c-0.6,0-0.7-0.6-0.9-1.2
		c-0.6,0.5-0.5,1.2-0.6,1.8c-0.4,0.2-0.9,0.2-1.2,0.2c-0.1-1-0.1-2.1,0.5-2.8c0.1-0.1,0.4-0.1,0.5-0.2c0-0.1,0-0.4,0-0.5
		c-0.1,0.1-0.7,0-0.6,0.4c-0.7,0.4-1.1,1.2-1.5,1.8h0.1l-0.1,0.1l-0.1,0.1l-0.1-0.2c-1.5,0.6-2.5,1.8-3.4,3
		c-0.6,0.7-0.5,1.7-0.5,2.6c0,0.2,0.1,0.6,0.2,0.9c0.4-0.9,0.7-1.7,0.9-2.7v-0.1c0.7-1.2,1.5-2.6,2.8-3.3c0,0.6,0,1.2,0.2,1.7
		c0.5,0,0.9,0,1.2,0c0.5,0.2,1,0.5,1.5,0.4c0.4-0.4,0.7-0.7,1.2-0.6c0,0.4,0,0.9,0,1.4c0.5,0,1.1-0.1,1.6-0.1c0.6,0.6,1,1.5,1.5,2.1
		c0.7,0,1.4,0,2.1-0.2c-0.2-0.2-0.4-0.6-0.6-0.9c0.5,0,0.4-0.2,0.4-0.4c0.5-0.2,0.5-0.6,0.5-1.1C162.9,73.9,161.9,74.4,161,74.4z"/>
	<path class="st0" d="M191.1,84.7c-0.2,0-0.4,0-0.6,0c0,0.4,0,0.6,0,1c0.4,0.1,0.7,0.2,1.2,0.2c0.2-0.1,0.2-0.6,0.4-0.9
		c-0.4,0-0.7,0.1-1,0.2C191.1,85.2,191.1,84.9,191.1,84.7z"/>
	<path class="st0" d="M184.9,87.8c0.2,1,1.6,0.4,2.2,0.1c0.6-0.4,1.4-0.6,2-1c0.5-0.1,0.5-0.7,0.5-1.2c-0.5,0.1-0.9,0.2-1.2,0.2
		C187.4,86.8,186.1,87.1,184.9,87.8z"/>
	<path class="st0" d="M170.4,101.8c0.5-0.6,0.7-1.6,1.5-2.1c0.1,0,0.5,0.1,0.6,0.1c0.5-0.4,0.4-1,0.5-1.5c0.2-0.4,0.7-0.5,1.1-0.7
		c-0.2,0-0.5,0.1-0.7,0.2c-0.4,0.1-0.9,0.4-1.1,0.6c-0.1,0.4,0.2,0.6,0.4,0.9c-0.4,0-0.7,0-1.1-0.1
		C171,100.1,170.3,100.9,170.4,101.8z"/>
	<path class="st0" d="M131.4,117.1c0.2-0.4,0.2-0.7,0.2-1.2c0-0.2-0.2-0.5-0.4-0.7c-0.2-0.1-0.5-0.2-0.7-0.4c-0.1,0-0.4,0-0.6,0
		s-0.5,0.1-0.9,0.1l-2.5,0.6l0.1,6.8l2.6-0.6c0.6-0.1,1-0.2,1.4-0.5c0.4-0.2,0.6-0.4,0.7-0.6c0.2-0.2,0.4-0.5,0.5-0.9
		c0.1-0.2,0.1-0.6,0-1c-0.1-0.4-0.2-0.6-0.5-0.7c-0.2-0.2-0.6-0.2-1-0.2C130.8,117.7,131.2,117.5,131.4,117.1z M128.2,116.4l0.7-0.2
		c0.2,0,0.5,0,0.6,0c0.1,0.1,0.2,0.2,0.4,0.4c0,0.2,0,0.5-0.2,0.7c-0.2,0.2-0.5,0.4-0.9,0.5l-0.6,0.1
		C128.2,117.8,128.2,116.4,128.2,116.4z M130.1,120c-0.2,0.2-0.5,0.4-0.9,0.5l-0.7,0.2v-1.7l0.9-0.2c0.2-0.1,0.5,0,0.7,0
		c0.1,0.1,0.2,0.2,0.4,0.5C130.2,119.5,130.2,119.8,130.1,120z"/>
	<polygon class="st0" points="137.3,114.3 137.3,113 132.8,114.1 132.9,120.9 137.6,119.8 137.6,118.4 134.6,119.2 134.5,117.5 
		137.2,116.8 137.2,115.6 134.5,116.4 134.5,114.9 	"/>
	<polygon class="st0" points="148.4,110.4 144.1,111.4 144.2,118.2 146,117.8 146,115 148.4,114.4 148.4,113.2 146,113.8 
		145.8,112.3 148.5,111.7 	"/>
	<polygon class="st0" points="151.2,116.6 151.1,109.7 149.4,110.2 149.5,117 	"/>
	<path class="st0" d="M157.6,111.2c0-0.4,0.1-0.7,0-1.2c-0.1-0.5-0.4-0.9-0.9-1.1c-0.5-0.1-1.1-0.1-1.8,0l-2.5,0.6l0.1,6.8l1.7-0.4
		v-2.7l0.2-0.1c0.2,0,0.4,0,0.6,0c0.1,0,0.2,0.1,0.4,0.4l1,2l1.7-0.4l-1-2.1c-0.1-0.2-0.2-0.5-0.4-0.6c-0.1-0.1-0.2-0.2-0.5-0.2
		C157,111.8,157.4,111.6,157.6,111.2z M155.7,111.3c-0.1,0.2-0.5,0.4-0.9,0.5l-0.6,0.1v-1.6l0.7-0.1c0.2-0.1,0.5,0,0.7,0
		c0.1,0.1,0.2,0.2,0.4,0.5C155.9,110.8,155.9,111.1,155.7,111.3z"/>
	<path class="st0" d="M163.4,111.4c-0.1-0.4-0.2-0.7-0.5-0.9c-0.2-0.2-0.7-0.4-1.2-0.5c-0.1,0-0.2-0.1-0.5-0.1
		c-0.5-0.1-0.7-0.2-0.9-0.5c0-0.2,0-0.4,0.1-0.6c0.1-0.2,0.5-0.2,0.9-0.4c0.2,0,0.5-0.1,0.7-0.1s0.5,0,0.7,0.1l0.1-1.4
		c-0.2,0-0.6,0-1,0c-0.4,0-0.7,0.1-1.2,0.2c-0.9,0.2-1.5,0.5-1.8,1c-0.4,0.5-0.5,1.1-0.4,1.7c0.1,0.4,0.2,0.6,0.5,0.9
		c0.2,0.2,0.6,0.4,1,0.4c0.1,0,0.2,0,0.4,0c0.7,0.1,1.1,0.4,1.2,0.6c0,0.2,0,0.5-0.2,0.6c-0.2,0.2-0.6,0.4-1,0.5
		c-0.2,0-0.5,0.1-0.7,0.1s-0.6,0-0.9-0.1v1.4c0.4,0,0.7,0,1.1,0c0.4,0,0.7-0.1,1.1-0.1c1-0.2,1.6-0.6,2.1-1.1
		C163.5,112.7,163.5,112,163.4,111.4z"/>
	<polygon class="st0" points="168.8,105.7 163.8,106.8 163.8,108.1 165.4,107.7 165.5,113.2 167.4,112.8 167.2,107.3 168.8,106.9 	
		"/>
	<polygon class="st0" points="172.5,104.7 172.6,111.4 177.1,110.4 177.1,109.1 174.4,109.7 174.4,104.3 	"/>
	<polygon class="st0" points="179.4,103.1 177.7,103.6 177.8,110.3 179.5,109.8 	"/>
	<polygon class="st0" points="180.8,102.8 180.9,109.6 182.6,109.2 182.5,105.9 184.8,108.6 186.8,108.1 184.1,105.3 186.4,101.5 
		184.2,102 182.5,105.2 182.5,102.5 	"/>
	<polygon class="st0" points="128.9,132 128.1,132.1 128.1,132.7 128.9,132.6 	"/>
	<path class="st0" d="M132.2,129.5l0.1,6.3c-0.5,0.4-1.1,0.6-1.8,0.9c-0.6,0.2-1.4,0.5-2.2,0.6c-1.6,0.4-3,0.4-4.2-0.1
		c0.1,0,0.1,0.1,0.2,0.1c1.2,0.7,3,0.9,4.8,0.4c0.9-0.1,1.5-0.4,2.2-0.6c0.6-0.2,1.2-0.6,1.8-0.9l-0.1-6.9L132.2,129.5z"/>
	<polygon class="st0" points="143.1,122 147.6,132.8 145.1,133.4 145.3,134.1 148.4,133.3 143.7,121.9 	"/>
	<path class="st0" d="M159.1,123.5l0.1,6.3c-0.5,0.4-1.1,0.6-1.8,0.9c-0.6,0.2-1.4,0.5-2.2,0.6c-1.6,0.4-3,0.4-4.2-0.1
		c0.1,0,0.1,0.1,0.2,0.1c1.2,0.7,3,0.9,4.8,0.5c0.9-0.2,1.5-0.4,2.2-0.6c0.6-0.2,1.2-0.6,1.8-0.9l-0.1-6.9L159.1,123.5z"/>
	<polygon class="st0" points="170.3,115.4 174.7,126.2 172.3,126.8 172.5,127.4 175.7,126.7 170.9,115.2 	"/>
	<path class="st0" d="M185.3,118.7c-0.2-0.2-0.6-0.4-1-0.5c1-0.4,1.7-0.9,2.2-1.5c0.5-0.6,0.6-1.5,0.4-2.3c-0.2-1-0.7-1.6-1.6-2
		c-0.1,0-0.1,0-0.2-0.1c0.5,0.4,0.7,0.9,1,1.6c0.2,0.9,0.1,1.6-0.4,2.3c-0.4,0.6-1.1,1.1-2,1.5c-0.1-0.1-0.4-0.1-0.6-0.2
		c1-0.4,1.7-0.9,2.2-1.5c0.5-0.6,0.6-1.5,0.4-2.3c-0.2-1-0.7-1.6-1.6-2c-0.9-0.4-2-0.4-3.3,0l-4.4,1.1l0.2,12.4l3.1-0.7l-0.1-4.9
		l0.6-0.1c0.5-0.1,0.7-0.1,1,0c0.1,0,0.2,0.1,0.4,0.2c-0.2-0.1-0.5-0.1-1,0l-0.6,0.1l0.1,4.9l-2.2,0.5v0.6l3.1-0.7l-0.1-4.9l0.6-0.1
		c0.1,0,0.2,0,0.4-0.1c0,0,0,0,0,0.1v0.1l1.7,3.4l3.1-0.7l-1.8-3.8c-0.2-0.4-0.4-0.7-0.6-1c0.1,0.1,0.2,0.1,0.2,0.2
		c0.2,0.2,0.5,0.6,0.7,1.1l1.8,3.8l-2.5,0.6l0.2,0.6l3.1-0.7l-1.8-3.8C185.8,119.3,185.6,118.9,185.3,118.7z M182.2,116.1
		c-0.4,0.4-0.9,0.6-1.5,0.7V115l1.2-0.2c0.2,0,0.4-0.1,0.6-0.1c0-0.1-0.1-0.2-0.1-0.4c-0.4-0.1-0.7-0.1-1.4,0l-1.2,0.2l0.1,2.5
		l-0.4,0.1l-0.1-3l1.2-0.2c0.5-0.1,1-0.1,1.4,0c0.1,0.1,0.2,0.1,0.4,0.4c0.1,0.1,0.1,0.2,0.1,0.4v0.1
		C182.7,115.4,182.6,115.7,182.2,116.1z"/>
	<polygon class="st0" points="192.6,110.1 192.8,121.9 190.5,122.4 190.5,123.1 193.7,122.3 193.4,109.8 	"/>
	<polygon class="st0" points="206.6,106.9 206.8,118.7 203.5,119.5 203.9,120 207.7,119.2 207.5,106.6 	"/>
	<path class="st0" d="M128,137c0.9-0.1,1.5-0.4,2.2-0.6c0.6-0.2,1.2-0.6,1.8-0.9l-0.1-6.9l-4.9,1.2v2.2l2-0.5v0.4v0.6v1.6
		c-0.2,0.1-0.5,0.2-0.6,0.2c-0.2,0.1-0.4,0.1-0.6,0.1c-0.6,0.1-1.1,0.1-1.6,0c-0.4-0.5-0.7-1-0.9-1.8c-0.4-1.4-0.1-2.6,0.6-3.6
		c0.7-1,1.8-1.7,3.4-2.1c0.5-0.1,1-0.1,1.5-0.1c0.5,0,1,0.1,1.5,0.2l0.1-2.6c-0.2,0-0.6,0-0.9,0l-0.1,2.2c-0.5-0.1-1-0.2-1.5-0.2
		c-0.5,0-1,0-1.5,0.1c-1.6,0.4-2.7,1.1-3.4,2.1c-0.7,1-0.9,2.2-0.6,3.6c0.2,0.9,0.5,1.5,1,2c-0.7-0.5-1.1-1.2-1.4-2.2
		c-0.4-1.4-0.1-2.6,0.6-3.6c0.7-1,1.8-1.7,3.4-2.1c0.5-0.1,1-0.1,1.5-0.1c0.5,0,1,0.1,1.5,0.2l0.1-2.6c-0.6-0.1-1.4-0.1-2,0
		c-0.6,0-1.4,0.1-2.1,0.4c-1.4,0.4-2.6,0.7-3.4,1.4c-0.9,0.6-1.6,1.4-2.2,2.2c-0.5,0.7-0.7,1.5-0.9,2.3c-0.1,0.9,0,1.7,0.1,2.6
		c0.4,1.8,1.2,3.1,2.6,3.8C124.4,137.4,126,137.5,128,137z"/>
	<path class="st0" d="M142.5,121l-3.9,1l-4.2,13.5l3.3-0.7l0.9-2.8l4.7-1.1l0.1,0.4l-4.6,1L138,135l-2.2,0.5l-0.2,0.7l3.3-0.7
		l0.9-2.8l3.7-0.9l0.5,1.5l3.2-0.7L142.5,121z M139.2,129.4l1.5-5.4l0.2,0.7l-1.2,4.6L139.2,129.4z M140.8,129l0.7-2.7l0.9,2.3
		L140.8,129z"/>
	<path class="st0" d="M154.9,131c0.9-0.1,1.5-0.4,2.2-0.6c0.6-0.2,1.2-0.6,1.8-0.9l-0.1-6.9l-4.9,1.2v2.2l2-0.5v0.4l-0.7,0.1v0.6
		l0.7-0.1v1.6c-0.2,0.1-0.5,0.2-0.6,0.2c-0.2,0.1-0.4,0.1-0.6,0.1c-0.6,0.1-1.1,0.1-1.6,0c-0.4-0.5-0.7-1-0.9-1.8
		c-0.4-1.4-0.1-2.6,0.6-3.6s1.8-1.7,3.4-2.1c0.5-0.1,1-0.2,1.5-0.1c0.5,0,1,0.1,1.5,0.2l0.1-2.6c-0.2,0-0.6,0-0.9,0l-0.1,2.2
		c-0.5-0.1-1-0.2-1.5-0.2s-1,0-1.5,0.1c-1.6,0.4-2.7,1.1-3.4,2.1c-0.7,1-0.9,2.2-0.6,3.6c0.2,0.9,0.5,1.5,1,2
		c-0.7-0.5-1.1-1.2-1.4-2.2c-0.4-1.4-0.1-2.6,0.6-3.6s1.8-1.7,3.4-2.1c0.5-0.1,1-0.1,1.5-0.1s1,0.1,1.5,0.2l0.1-2.6
		c-0.6,0-1.4,0-2,0c-0.6,0-1.4,0.1-2.1,0.4c-1.4,0.4-2.6,0.7-3.4,1.4c-0.9,0.6-1.6,1.4-2.2,2.2c-0.5,0.7-0.7,1.5-0.9,2.3
		c-0.1,0.9,0,1.7,0.1,2.6c0.4,1.8,1.2,3.1,2.6,3.8C151.4,131.2,153,131.4,154.9,131z"/>
	<path class="st0" d="M169.7,114.5l-3.9,1l-4.2,13.5l3.3-0.7l0.9-2.8l4.7-1.1l0.1,0.4l-4.4,1l-0.9,2.8l-2.2,0.5l-0.2,0.7l3.3-0.7
		l0.9-2.8l3.7-0.9l0.5,1.5l3.2-0.9L169.7,114.5z M166.4,122.7l1.5-5.4l0.2,0.7l-1.2,4.6L166.4,122.7z M168,122.4l0.7-2.7l0.9,2.3
		L168,122.4z"/>
	<polygon class="st0" points="192.2,109.1 189,109.8 189.3,122.3 192.4,121.5 	"/>
</g>
</svg>
