<?xml version="1.0" encoding="utf-8"?>
<!-- Generator: Adobe Illustrator 26.0.3, SVG Export Plug-In . SVG Version: 6.00 Build 0)  -->
<svg version="1.0" id="Слой_1" xmlns="http://www.w3.org/2000/svg" xmlns:xlink="http://www.w3.org/1999/xlink" x="0px" y="0px"
	 viewBox="0 0 239.5 150.2" style="enable-background:new 0 0 239.5 150.2;" xml:space="preserve">
<g>
	<path d="M192.7,18.8c2.7-0.1,5.4,0.6,7.7,1.8c1.2,0.6,2.3,1.5,3.2,2.5c1.1,1.3,2.1,2.8,2.7,4.4c0.1,0.3,0.3,0.7,0.3,1l0,0
		c0,0.1,0,0.2,0,0.4c0,0.1,0,0.3,0,0.4c-0.3-0.9-0.9-1.5-1.6-2c-1.1-0.9-2.4-1.6-3.7-2.2c-2.4-1.2-4.9-2.4-7.2-3.8
		c-0.7-0.5-1.5-0.9-2.1-1.5c-0.1-0.2-0.4-0.4-0.2-0.6C192.1,18.8,192.4,18.8,192.7,18.8z"/>
	<path d="M186.5,20.6c1.1-0.7,2.4-1.1,3.6-1.5c-0.4,0.2-0.7,0.5-0.8,0.9c-0.1,0.4,0.1,0.9,0.4,1.2c0.4,0.5,0.8,0.9,1.2,1.2
		c2.5,1.6,5.1,3,7.8,4.2c2.5,1.1,4.9,2.2,7.5,3.3c1.1,0.5,2.3,0.9,3.4,1.4c1.3,0.5,2.5,1.1,3.8,1.6c0.4,0.1,0.7,0.3,1.1,0.4
		c0.1,0.1,0.2,0.1,0.4,0.2l0,0c0.1,0,0.2,0.1,0.4,0.1c0.1,0.1,0.2,0.1,0.4,0.2c0.1,0.1,0.2,0.1,0.4,0.2c1.4,0.7,2.9,1.3,4.3,2
		c1.1,0.6,2.2,1.2,3.1,2c0.4,0.4,0.9,0.9,1.1,1.5c0.1,0.4,0.1,0.9-0.1,1.3c-0.3,0.5-0.7,0.9-1.2,1.2c-0.8,0.5-1.7,0.8-2.6,0.9
		c-1.4,0.2-2.9,0.2-4.4,0.2c-3.8-0.2-7.5-0.8-11.3-1.5c-0.5,0.6-1.1,1.2-1.6,1.8c0.2-0.5,0.6-0.9,0.6-1.4c0.1-0.7-0.3-1.3-0.8-1.8
		c-0.8-0.8-1.8-1.4-2.8-2c-2.2-1.2-4.5-2.2-6.8-3.2c-2.5-1-5.1-2.1-7.5-3.3c-1.2-0.6-2.4-1.3-3.6-2.2c-0.6-0.5-1.3-1.1-1.8-1.8
		c-0.2-0.2-0.1-0.5,0-0.8c-1.5-0.2-3-0.4-4.5-0.4c-1.1,0-2.1,0-3.2,0.1c-0.4,0.1-0.9,0.2-1.3,0.5c-0.3,0.2-0.4,0.6-0.2,0.9
		c0.2,0.4,0.7,0.7,1.1,1c1,0.6,2,1.1,3,1.5c3,1.3,6,2.5,9,3.7c2.9,1.2,5.7,2.3,8.5,3.7c1.9,0.9,3.7,1.9,5.4,3.1
		c0.9,0.6,1.7,1.3,2.3,2.3c0.1,0.2,0.3,0.5,0.2,0.7c0,0.4-0.3,0.8-0.5,1.1c-0.2,0.2-0.4,0.5-0.7,0.6c-0.9,0.5-1.8,0.8-2.8,1
		c0.2-0.2,0.4-0.4,0.5-0.7c0.1-0.5-0.2-0.9-0.4-1.2c-0.5-0.6-1.1-1.1-1.7-1.5c-1.8-1.2-3.7-2.2-5.6-3.2c-2.8-1.4-5.7-2.7-8.6-3.8
		c-1.2-0.5-2.4-0.9-3.6-1.4c-1.4-0.5-2.9-1-4.3-1.6c-1.7-0.7-3.4-1.4-5-2.2c-1.3-0.6-2.5-1.3-3.6-2.1c-0.7-0.5-1.5-1.1-2-1.9
		c-0.3-0.5-0.4-1.1-0.2-1.6c0.3-0.8,1-1.2,1.8-1.6c1-0.5,2.1-0.7,3.2-0.8c2.2-0.2,4.4-0.1,6.6,0.1c2.7,0.2,5.4,0.7,8.1,1.2
		c0.4-0.7,1.1-1.4,1.6-2c-0.3,0.5-0.6,1-0.7,1.6c0,0.5,0.3,0.9,0.5,1.2c0.8,0.9,1.7,1.5,2.7,2.2c2.1,1.3,4.4,2.3,6.8,3.2
		c3.4,1.4,6.8,2.9,10,4.8c1,0.6,2.1,1.3,2.8,2.2c0.3,0.3,0.6,0.8,0.4,1.3c2.1,0.3,4.2,0.4,6.4,0.3c0.7,0,1.5-0.1,2.1-0.4
		c0.3-0.2,0.7-0.5,0.6-0.9c0-0.4-0.3-0.6-0.5-0.8c-0.8-0.6-1.6-1-2.5-1.4c-2-1-4.1-1.8-6.2-2.6c-4.2-1.5-8.2-3.3-12.2-5.3
		c-2.2-1.1-4.4-2.1-6.4-3.6c-0.7-0.5-1.4-1.1-1.7-2C185.5,21.7,185.9,21,186.5,20.6z"/>
	<path d="M179.9,36.9c0.4,1,1.2,1.8,2.1,2.4c2,1.4,4.2,2.3,6.3,3.4c1.2,0.6,2.4,1.2,3.6,1.9c0.8,0.4,1.5,0.9,2.2,1.5
		c0.3,0.2,0.5,0.5,0.7,0.8c0.1,0.1,0.1,0.3-0.1,0.4c-0.2,0.1-0.5,0.2-0.7,0.2c-2.4,0.1-4.8-0.4-6.9-1.5c-1.2-0.6-2.4-1.3-3.4-2.3
		c-1.4-1.4-2.5-3-3.2-4.9C180.2,38.1,179.9,37.5,179.9,36.9z"/>
</g>
<g>
	<path id="XMLID_193_" d="M202.6,61c-0.9-0.9-1.9-1.3-3.2-0.5c0.6-1.2,0.6-2.3-0.5-3.2c1.4,0.3,2.3-0.1,2.9-1.4
		c0.2,1.4,0.8,2.2,2.3,2.3C202.9,58.8,202.4,59.7,202.6,61z"/>
	<path id="XMLID_179_" d="M196,74.6c-1.1-0.3-1.8,0-2.4,1.1c0.1-1.3-0.3-1.9-1.4-2.2c0.9-0.4,1.5-0.9,1.4-2c0.6,0.8,1.3,1.1,2.5,0.6
		C195.5,73,195.2,73.8,196,74.6z"/>
	<path id="XMLID_168_" d="M179.2,79.8c-0.9,0.4-1.2,1-1.1,2.2c-0.8-0.8-1.4-1.2-2.5-0.5c0.4-1,0.8-1.8-0.1-2.5
		c1,0.2,1.7-0.2,2.2-1.2C177.8,78.9,178.1,79.6,179.2,79.8z"/>
	<path id="XMLID_131_" d="M177.7,49.4c0.3,0.3,0.8,0.7,1.2,1.1c-0.2,0.4-0.4,1-0.6,1.5c-0.5,0-1.1-0.1-1.6-0.1
		c-0.1-0.5-0.3-1-0.4-1.6C176.7,50.1,177.2,49.7,177.7,49.4z"/>
	<path id="XMLID_118_" d="M151.9,35.9c0.2,0.4,0.4,1,0.6,1.4c-0.4,0.3-0.8,0.7-1.1,1c-0.4-0.2-0.9-0.5-1.4-0.8
		c0.1-0.4,0.2-1,0.4-1.5C150.8,36,151.4,35.9,151.9,35.9z"/>
	<path id="XMLID_117_" d="M215.9,61c-0.2-0.4-0.4-1-0.6-1.4c0.4-0.3,0.8-0.7,1.2-1c0.4,0.2,0.9,0.5,1.3,0.8c-0.1,0.5-0.2,1-0.4,1.5
		C216.9,60.9,216.4,61,215.9,61z"/>
	<path id="XMLID_106_" d="M156.2,49.8c0.1-0.5,0.1-1,0.1-1.5c0.5-0.1,1-0.2,1.5-0.3c0.2,0.4,0.4,0.8,0.7,1.3c-0.3,0.3-0.7,0.7-1,1
		C157.1,50.2,156.6,50,156.2,49.8z"/>
	<path id="XMLID_96_" d="M221.1,56.1c-0.1-0.5-0.1-1-0.2-1.4c0.4-0.2,0.9-0.4,1.3-0.5c0.3,0.3,0.6,0.7,0.9,1
		c-0.2,0.3-0.5,0.8-0.7,1.2C222,56.3,221.6,56.2,221.1,56.1z"/>
	<path id="XMLID_94_" d="M173.3,66.5c0.4,0.2,0.8,0.3,1.2,0.5c0,0.4-0.1,0.9-0.1,1.3c-0.4,0.1-0.8,0.2-1.3,0.3
		c-0.2-0.3-0.5-0.7-0.7-1.2C172.7,67.2,173,66.8,173.3,66.5z"/>
	<path id="XMLID_32_" d="M157.4,75.5c-0.2-0.4-0.3-0.6-0.4-0.9c0.2-0.2,0.4-0.3,0.6-0.5c0.2,0.1,0.4,0.2,0.9,0.4
		C158.1,74.9,157.7,75.2,157.4,75.5z"/>
</g>
<path id="XMLID_183_" d="M68.5,139.5c-0.4-1-1.2-1.2-1.9-1.2c0.2-0.8,0.3-1.6,0.4-2.4c0.7,0.4,1.5,0.4,2.3-0.4
	c-0.2,1.1,0.1,1.8,1.1,2.3C69.3,137.9,68.7,138.4,68.5,139.5z"/>
<path id="XMLID_182_" d="M154.9,60c-0.2,0.8-0.4,1.6-0.6,2.4c-0.6-0.3-1.4-0.6-2.2,0.3c0.2-1.1-0.1-1.9-1-2.4c1.1-0.1,1.8-0.5,2-1.7
	C153.5,59.6,154.1,60.2,154.9,60z"/>
<path id="XMLID_175_" d="M121.8,82c1.1,0.1,1.7-0.4,2.2-1.3c0.2,1.1,0.8,1.6,1.9,1.7c-0.9,0.5-1.3,1.2-1.1,2.3
	c-0.8-0.6-1.5-0.8-2.4-0.2C122.6,83.5,122.8,82.7,121.8,82z"/>
<path id="XMLID_00000101811247971973503480000002565571097286937788_" d="M117.7,85.6c1.1,0.1,1.7-0.4,2.2-1.3
	c0.2,1.1,0.8,1.6,1.9,1.7c-0.9,0.5-1.3,1.2-1.1,2.3c-0.8-0.6-1.5-0.8-2.4-0.2C118.5,87.1,118.8,86.3,117.7,85.6z"/>
<path id="XMLID_00000066494931122921143050000011257780391679275199_" d="M78.4,108.3c1.1-0.2,1.6-0.9,1.8-1.9
	c0.5,1,1.2,1.3,2.3,1.1c-0.7,0.7-0.9,1.5-0.4,2.5c-0.9-0.4-1.7-0.4-2.4,0.4C79.6,109.5,79.6,108.6,78.4,108.3z"/>
<path id="XMLID_00000121982841134116787020000003629389198659031428_" d="M73.4,114.1c1.1-0.2,1.6-0.9,1.8-1.9
	c0.5,1,1.2,1.3,2.3,1.1c-0.7,0.7-0.9,1.5-0.4,2.5c-0.9-0.4-1.7-0.4-2.4,0.4C74.6,115.3,74.6,114.4,73.4,114.1z"/>
<path id="XMLID_170_" d="M61.1,127.3c0.7-0.5,1.3-0.9,1.9-1.3c0.5,0.4,1.1,0.9,1.8,1.4c-0.6,0.4-1,1.1-0.7,2.1
	c-0.8-0.7-1.6-0.7-2.6,0.1C61.8,128.6,61.9,127.7,61.1,127.3z"/>
<path id="XMLID_162_" d="M81,120.1c0.2,0.8,0.4,1.5,0.6,2.3c-0.7,0-1.4,0.3-1.7,1.5c-0.3-1.2-0.8-1.8-1.9-1.8
	c0.8-0.6,1.2-1.2,0.9-2.3C79.7,120.5,80.4,120.6,81,120.1z"/>
<path id="XMLID_161_" d="M96.5,73.2c-0.1,1.1,0.4,1.7,1.3,2.1c-0.9,0.3-1.5,0.7-1.6,1.8c-0.6-0.7-1.2-1.2-2.2-0.9
	c0.7-0.8,0.7-1.5,0.2-2.4C95.2,74.1,95.9,74,96.5,73.2z"/>
<path id="XMLID_156_" d="M120.4,62.9c0.9-0.4,1.3-1,1.3-2c0.7,0.8,1.4,1,2.5,0.4c-0.7,1-0.8,1.8,0,2.5c-1-0.2-1.7,0-2.2,0.9
	C121.8,63.8,121.4,63.1,120.4,62.9z"/>
<path id="XMLID_153_" d="M137.5,52c0.2,1,0.8,1.4,2,1.5c-1,0.6-1.4,1.2-1.2,2.2c-0.7-0.6-1.4-0.8-2.3-0.2c0.3-0.9,0.2-1.6-0.6-2.3
	C136.4,53.2,137.1,53,137.5,52z"/>
<path id="XMLID_143_" d="M141.8,82c-0.5,0.3-1.1,0.6-1.6,0.8c-0.4-0.4-0.8-0.9-1.2-1.3c0.2-0.4,0.6-1,0.9-1.6
	c0.5,0.1,1.2,0.2,1.8,0.4C141.7,80.8,141.8,81.4,141.8,82z"/>
<path id="XMLID_120_" d="M41.7,141.4c0-0.5,0.1-1.1,0.2-1.6c0.5-0.1,1-0.2,1.6-0.4c0.3,0.4,0.6,1,0.9,1.4c-0.3,0.4-0.7,0.8-1.1,1.2
	C42.8,141.8,42.2,141.6,41.7,141.4z"/>
<path id="XMLID_104_" d="M107.4,61.5c0.4,0.4,0.7,0.7,1.1,1.1c-0.2,0.4-0.5,0.9-0.7,1.4c-0.4-0.1-0.9-0.2-1.5-0.3
	c-0.1-0.4-0.2-1-0.2-1.5C106.5,62,107,61.7,107.4,61.5z"/>
<path id="XMLID_95_" d="M72,106.3c-0.5,0.1-1,0.1-1.4,0.2c-0.2-0.4-0.4-0.9-0.6-1.3c0.3-0.3,0.7-0.6,1.1-0.9
	c0.4,0.2,0.8,0.5,1.2,0.7C72.2,105.3,72.1,105.8,72,106.3z"/>
<path id="XMLID_00000025440710788123513610000010595355687348744086_" d="M223.1,12.1c1.1-0.2,1.6-0.9,1.8-1.9
	c0.5,1,1.2,1.3,2.3,1.1c-0.7,0.7-0.9,1.5-0.4,2.5c-0.9-0.4-1.7-0.4-2.4,0.4C224.3,13.4,224.3,12.5,223.1,12.1z"/>
<path id="XMLID_00000083796156224696021040000009917368777055830676_" d="M216.5,18.4c1.1-0.2,1.6-0.9,1.8-1.9
	c0.5,1,1.2,1.3,2.3,1.1c-0.7,0.7-0.9,1.5-0.4,2.5c-0.9-0.4-1.7-0.4-2.4,0.4C217.6,19.6,217.7,18.8,216.5,18.4z"/>
<path id="XMLID_00000157294269735245163040000010974981246661894577_" d="M225.8,24c0.2,0.8,0.4,1.5,0.6,2.3c-0.7,0-1.4,0.3-1.7,1.5
	c-0.3-1.2-0.8-1.8-1.9-1.8c0.8-0.6,1.2-1.2,0.9-2.3C224.4,24.4,225.2,24.5,225.8,24z"/>
<path id="XMLID_00000115479922420358565180000010627738905317087665_" d="M216.8,10.1c-0.5,0.1-1,0.1-1.4,0.1
	c-0.2-0.4-0.4-0.9-0.6-1.3c0.3-0.3,0.7-0.6,1.1-0.9c0.4,0.2,0.8,0.5,1.2,0.7C217,9.2,216.9,9.7,216.8,10.1z"/>
<path id="XMLID_61_" d="M86.9,62.3c0.4-0.1,0.8-0.3,1.2-0.4c0.2,0.3,0.5,0.6,0.8,1c-0.2,0.3-0.4,0.6-0.7,1c-0.3-0.1-0.8-0.2-1.2-0.4
	C87,63.1,87,62.7,86.9,62.3z"/>
<path id="XMLID_55_" d="M59.7,138.8c0.4,0.1,0.8,0.1,1.1,0.2c0.1,0.4,0.2,0.8,0.2,1.1c-0.3,0.2-0.7,0.4-1.1,0.6
	c-0.3-0.3-0.6-0.6-0.9-0.8C59.3,139.5,59.5,139.1,59.7,138.8z"/>
<path id="XMLID_46_" d="M211.6,19.6c-0.3,0-0.7,0-1,0c-0.1-0.2-0.2-0.6-0.3-0.9c0.2-0.2,0.5-0.4,0.8-0.6c0.3,0.2,0.5,0.4,0.8,0.6
	C211.8,18.9,211.7,19.2,211.6,19.6z"/>
<path id="XMLID_28_" d="M130,97.2c-0.4-0.2-0.7-0.3-1.2-0.6c0.4-0.2,0.6-0.4,0.9-0.6c0.1,0.2,0.3,0.6,0.5,0.9
	C130.1,97.1,130.1,97.1,130,97.2z"/>
<path id="XMLID_27_" d="M76,84.7c0.4,0.3,0.6,0.4,0.9,0.7c-0.3,0.2-0.7,0.4-1,0.6c-0.1-0.1-0.2-0.1-0.2-0.2
	C75.8,85.4,75.9,85.1,76,84.7z"/>
<path id="XMLID_21_" d="M112.6,93c-0.2,0.3-0.4,0.6-0.7,0.9c-0.2-0.3-0.4-0.5-0.7-0.9c0.4-0.1,0.8-0.2,1.2-0.3
	C112.4,92.9,112.5,93,112.6,93z"/>
<path id="XMLID_14_" d="M74.6,126.4c-0.2,0.2-0.3,0.5-0.6,0.6c-0.2,0.1-0.5-0.2-0.7-0.3c0-0.1,0-0.2,0-0.3c0.4-0.1,0.8-0.2,1.1-0.2
	C74.5,126.2,74.6,126.3,74.6,126.4z"/>
</svg>
