<?xml version="1.0" encoding="UTF-8"?>
<!DOCTYPE svg PUBLIC "-//W3C//DTD SVG 1.0//EN" "http://www.w3.org/TR/2001/REC-SVG-20010904/DTD/svg10.dtd">
<!-- Creator: CorelDRAW -->
<svg xmlns="http://www.w3.org/2000/svg" xml:space="preserve" width="84mm" height="53mm" version="1.0" style="shape-rendering:geometricPrecision; text-rendering:geometricPrecision; image-rendering:optimizeQuality; fill-rule:evenodd; clip-rule:evenodd"
viewBox="0 0 8400 5300"
 xmlns:xlink="http://www.w3.org/1999/xlink"
 xmlns:xodm="http://www.corel.com/coreldraw/odm/2003">
 <defs>
  <style type="text/css">
   <![CDATA[
    .fil0 {fill:black;fill-rule:nonzero}
   ]]>
  </style>
 </defs>
 <g id="Слой_x0020_1">
  <metadata id="CorelCorpID_0Corel-Layer"/>
  <path class="fil0" d="M8219.4 37.51c46.56,61.39 89.75,124.02 129.59,187.77l-8.46 -100.14 -2.98 0 -8.91 -11.89 -2.96 0c0,-6.77 -5.93,-5.87 -5.93,-10.4l-11.89 -4.47 0 -2.98c-5.95,-3.98 -16.77,-11.89 -23.76,-11.89l0 -2.96 -5.96 0 0 -2.98 -26.72 -11.89c-4.38,0 -5.93,-1.58 -5.93,-5.96 -6.27,0 -2.66,-2.96 -8.91,-2.96l-8.91 -19.29 -8.28 0 0.01 0.04zm133.03 2755.34c-99.57,157.23 -219.8,306.39 -360.77,447.43 -365.89,364.85 -804.96,599.02 -1295.12,688.95 -221.24,39.03 -663.73,39.03 -884.97,0 -490.12,-89.93 -934.29,-325.82 -1295.08,-688.95 -479.94,-481.92 -719.88,-1053.78 -719.88,-1724.07 0,-552.93 171.83,-1060.45 492.93,-1480.74l-92.66 0c-207.06,285.92 -353.9,613.92 -430.89,968.25 -51.06,235.86 -54.46,760.25 -8.51,979.14 51.06,232.48 127.63,453.09 226.34,653.31 362.5,729.67 1061.94,1243.86 1870.32,1374.52 197.42,32.24 602.47,32.24 799.87,0 534.4,-86.55 1014.32,-332.61 1402.36,-722.88 109.94,-109.65 208.81,-229.16 296.08,-357.63l0 -137.33 -0.02 0zm-266.71 -2755.34c101.13,124 189.5,258.43 263.27,401.71l0 -73.72c-63.64,-115.59 -136.51,-225.22 -217.88,-327.99l-45.39 0zm263.27 1199.04c-13.88,-0.23 -28.08,-0.34 -42.46,-0.34l-211.04 0.02 -78.27 -88.24c-42.53,-47.52 -81.67,-110.31 -88.51,-139.16 -45.96,-207.03 -243.35,-531.13 -447.58,-734.75 -148.07,-147.65 -199.11,-229.12 -88.51,-142.55 228.08,181.56 461.21,515.86 553.13,794.18 25.52,76.35 35.74,89.93 71.48,89.93 51.06,0 51.06,-6.81 0,-140.85 -121.97,-324.64 -343.28,-621.51 -615.22,-837.25l-31.45 0c141.31,112.94 312.39,287.28 398.2,411.3 88.49,127.27 228.03,402.19 248.45,488.71 22.11,95.03 -28.92,37.34 -78.29,-88.24 -98.71,-254.54 -296.13,-529.46 -507.17,-709.32 -61.59,-52.89 -108.14,-88.19 -133.16,-102.45l-19.56 0c6.32,15.64 57.8,71.02 9.77,29.51 -13.11,-9.14 -22.16,-21.3 -23.31,-29.51l-124.5 0c11.1,10.18 18.07,19.56 20.17,27.82 6.48,22.52 -14.62,17.6 -99.5,-27.82l-39.57 0c32.15,16.7 62.32,33.96 89.73,51.53 107.24,67.89 127.66,74.68 93.61,30.55 -18.7,-25.45 -18.7,-25.45 1.69,-6.79 13.6,11.89 25.52,30.55 25.52,40.72 0,23.17 53.25,46.3 34.05,11.89 -10.22,-18.66 -8.53,-18.66 8.51,-3.38 11.91,10.18 32.33,15.25 44.24,10.18 32.33,-11.87 268.92,227.4 359.1,359.75 90.23,134.06 165.11,285.09 214.45,431.02 30.62,88.22 62.97,142.52 120.82,205.31l79.98 84.86c84.89,-0.02 170.29,-1.09 255.2,0.24l0 -16.87zm0 72.87c-108.71,-3.94 -217.91,-4.93 -326.67,-7.04l-57.87 -79.73c-32.33,-44.13 -74.88,-132.37 -95.3,-198.57 -39.14,-132.35 -146.36,-351.27 -224.65,-466.63 -64.66,-91.65 -294.41,-334.3 -343.75,-359.77 -18.73,-10.18 23.83,37.34 95.28,106.92 222.93,217.2 347.18,414.06 440.79,692.36 32.33,93.34 78.29,193.45 115.72,240.96l61.28 83.14 245.09 0c33.67,0 63.53,0.21 90.08,0.69l0 -12.33zm0 85.27c-118.35,-4.27 -237.23,-5.24 -355.62,-7.44l-57.85 -71.3c-78.29,-96.72 -76.62,-89.93 -125.96,-261.31 -49.37,-171.4 -158.25,-385.22 -268.87,-529.46 -42.57,-54.31 -71.48,-103.51 -66.4,-110.31 15.32,-15.27 -100.38,-130.66 -122.49,-122.2 -10.22,3.41 -68.09,-32.22 -127.66,-78.04 -86.3,-65.09 -193.76,-126.23 -307.81,-177.16l-44.33 0c195.5,89.5 437.23,242.65 437.23,287.42 0,27.14 85.08,110.33 139.57,137.47 96.99,49.23 299.51,415.77 360.79,660.09 31.02,114.52 101.1,193.11 171.9,283.4l267.2 0c36.81,0 70.14,0.29 100.3,0.91l0 -12.07zm0 39.76c-39.83,0.04 -88.74,0.78 -149.67,1.99l-291.03 5.1 -49.37 -72.94c-28.92,-42.42 -64.66,-135.76 -86.8,-222.28 -20.42,-81.47 -61.26,-198.52 -88.49,-261.31 -57.87,-127.29 -153.15,-281.71 -165.09,-269.84 -5.12,5.1 6.79,28.86 25.52,56 91.89,128.96 224.65,461.55 224.65,558.27 0,41.78 93.59,181.71 122.53,227.4l166.76 0c125.96,0 170.21,6.79 187.24,25.45 18.73,22.07 -3.41,25.45 -182.1,25.45l-204.23 0 -52.75 -74.66c-35.74,-50.92 -61.26,-115.38 -79.96,-205.34 -30.64,-145.93 -85.08,-300.37 -146.36,-417.44 -22.13,-40.72 -40.84,-86.55 -42.53,-101.8 -1.71,-16.99 -20.44,-54.31 -42.55,-84.86 -25.52,-37.34 -28.92,-49.23 -10.22,-33.93 20.44,16.97 28.92,16.97 28.92,1.69 0,-39.01 -299.53,-315.64 -427.16,-395.38 -102.88,-64.03 -219.87,-119.4 -329.09,-158.47l-69.56 0c15.61,4.99 33.26,10.85 53.16,17.64 153.17,50.9 280.81,115.4 406.75,205.34 129.35,93.34 321.67,288.48 308.04,312.23 -6.79,8.46 -64.66,-35.67 -134.45,-106.92 -182.07,-184.99 -408.46,-320.72 -648.41,-390.32 -42.57,-12.3 -78.47,-27.93 -90.77,-37.99l-327.74 -2.06 -0.18 6.08c0,39.01 -5.1,40.72 -93.61,40.72 -88.51,0 -93.59,-1.69 -93.59,-42.42l0.14 -4.38 -338.36 0c-17.42,12.44 -48.47,28.51 -83.85,41.75 -105.5,42.42 -299.51,156.13 -285.9,169.69 5.12,5.1 28.95,-6.79 56.18,-25.45 56.13,-39.01 234.85,-128.96 291,-145.93 22.11,-8.48 37.43,-5.1 37.43,5.1 0,20.35 -246.74,144.22 -290.98,147.62 -39.14,3.41 -134.47,72.94 -134.47,98.42 0,10.2 -30.64,44.13 -69.78,72.94 -96.99,74.68 -260.39,293.58 -338.65,454.78 -74.88,152.72 -129.35,334.3 -146.36,487.02l-11.94 101.82 182.12 183.27c69.11,0 588.84,-3.32 588.84,11.89 0,17.85 -592.86,19.56 -672.23,20.37l-149.77 -134.06 18.7 -166.3c10.22,-91.62 35.76,-218.92 56.18,-285.07 49.37,-161.2 168.47,-385.2 272.28,-514.16 47.65,-59.38 81.7,-110.31 78.29,-115.4 -20.42,-18.66 -187.2,218.92 -265.49,376.74 -96.99,193.45 -148.07,369.95 -165.09,573.57l-10.22 140.83 161.68 142.57 183.83 0c153.17,0 185.5,5.08 185.5,25.45 0,20.37 -30.64,25.45 -175.28,25.45 -168.49,0 -178.69,1.69 -246.76,52.61 -39.14,28.83 -71.48,54.28 -71.48,55.98 0,20.37 62.97,208.7 96.99,290.15 57.87,137.47 192.3,342.78 279.09,424.25 66.4,62.79 64.69,61.1 -20.4,-45.8 -154.89,-190.06 -251.88,-373.33 -308.06,-580.34l-22.11 -81.47 59.56 -49.21c56.13,-47.52 64.66,-49.23 241.66,-49.23 110.62,0 183.79,6.79 183.79,16.99 0,10.18 -56.18,16.97 -134.47,16.97 -131.04,0 -134.45,1.71 -211.02,67.87 -90.2,79.78 -90.2,78.06 8.53,288.46 37.43,79.78 69.78,156.15 71.48,169.71 3.38,37.34 66.35,135.78 85.08,135.78 8.51,0 39.14,20.35 66.38,45.8 42.55,40.72 47.65,42.42 30.64,10.18 -10.22,-20.35 -27.23,-42.42 -35.74,-47.49 -10.22,-5.1 -17.03,-25.47 -17.03,-42.44 0,-16.97 -30.62,-62.79 -68.05,-101.82 -78.29,-79.73 -103.81,-127.25 -161.68,-279.98l-40.84 -106.91 66.35 -52.59c61.28,-49.23 76.6,-52.59 194.03,-52.59 74.86,0 129.32,6.79 129.32,16.94 0,8.48 -44.22,16.97 -96.97,16.97 -88.51,1.71 -105.52,6.81 -163.37,61.1 -51.08,47.52 -62.99,67.89 -52.77,96.75 17.03,55.98 119.13,252.83 151.48,291.84 37.45,45.82 30.64,28.86 -64.69,-161.2l-81.67 -161.18 125.94 -106.92 245.07 3.41c132.73,0 243.35,6.77 243.35,13.56 0,17.76 -333.92,13.56 -379.54,13.56l-62.97 54.31c-34.05,30.55 -76.6,64.48 -91.92,72.93 -28.92,16.96 -28.92,20.36 0,81.46 17.03,33.93 35.74,62.79 44.24,62.79 6.81,0 39.14,40.72 71.48,91.65 32.33,50.9 68.07,96.72 79.98,103.51 23.83,15.27 22.11,13.56 -61.28,-108.61 -32.33,-49.21 -56.18,-96.7 -51.06,-105.21 5.1,-6.77 -1.71,-39.01 -17.03,-67.87 -27.23,-50.89 -27.23,-54.3 18.73,-101.78 30.64,-32.24 64.66,-49.23 95.28,-49.23 56.18,0 59.56,16.99 11.91,61.1 -20.4,16.99 -49.34,52.59 -68.07,76.35 -30.64,44.11 -30.64,44.11 37.43,147.62 59.56,91.65 66.38,112.02 56.16,168.02l-11.91 62.79 -56.18 -67.89c-71.48,-83.14 -76.58,-59.41 -5.1,28.83 42.53,54.33 49.37,74.68 39.14,123.91 -8.51,50.9 -5.12,62.79 20.4,71.25 42.57,11.89 51.04,16.97 178.69,113.71 59.56,44.13 166.8,108.59 239.99,144.24 73.19,33.93 132.73,72.94 132.73,84.86 0,45.8 -291.03,-106.92 -468,-247.75 -97.02,-76.37 -107.24,-81.45 -59.56,-30.55 76.58,83.14 280.83,215.51 418.66,274.89 102.1,42.44 137.83,74.68 86.8,74.68 -78.29,0 -561.61,-288.5 -532.69,-319.03 13.63,-11.87 -110.62,-140.83 -127.63,-130.66 -18.73,11.87 -148.07,-168.02 -229.77,-320.72 -188.91,-356.35 -231.44,-834.88 -105.5,-1221.8 69.78,-213.8 251.86,-522.65 333.58,-563.37 54.44,-27.14 139.55,-110.28 139.55,-137.45 0,-42.42 236.56,-200.24 433.98,-288.5l2.52 -1.1 -48.83 0c-99,44.82 -181.42,94.39 -288.96,170.79 -71.5,50.92 -134.42,88.24 -139.55,83.16 -6.79,-5.1 -35.76,13.56 -66.35,40.72 -30.66,27.14 -13.65,8.46 37.43,-40.72 97.82,-93.36 226.84,-182.8 362.19,-253.95l-44.43 0c-127.07,69.63 -241.76,158.4 -370.49,282.8 -83.39,78.06 -149.77,151.03 -149.77,161.2 1.69,10.18 23.83,-6.79 49.34,-37.34 81.7,-95.03 73.19,-22.04 -10.22,86.55 -176.98,229.09 -294.41,529.46 -330.15,834.9 -40.86,368.23 81.67,804.33 308.04,1102.99 47.65,61.1 85.08,122.17 85.08,134.04 0,29.69 63.26,82.89 10.22,44.13 -66.38,-50.9 -202.52,-251.16 -284.19,-415.75 -229.77,-471.73 -219.55,-1048.68 28.92,-1500.08 32.33,-59.41 56.16,-112 51.06,-117.07 -17.01,-15.27 -180.38,344.45 -217.84,481.92 -52.77,195.16 -52.77,634.64 -1.71,824.71 90.2,320.7 233.15,565.07 464.62,795.85 85.08,84.86 136.14,145.93 120.82,145.93 -37.43,1.69 -260.39,-217.23 -352.26,-344.5 -294.43,-408.96 -396.55,-974.02 -260.39,-1464.43 45.96,-168 175.31,-442.89 209.35,-444.58 62.95,-5.12 69.76,-8.51 66.33,-37.34 0,-16.97 3.43,-27.14 8.53,-22.07 11.94,11.89 54.46,-22.04 54.46,-44.13 0,-8.46 -6.79,-11.87 -13.63,-6.79 -6.79,3.41 -13.6,-8.46 -13.6,-27.14 0,-76.44 241.66,-294.59 466.04,-433.8l-38.02 0c-115.41,71.03 -217.03,152.7 -322.48,258.99 -108.93,110.31 -159.99,147.65 -204.23,151.03 -19.38,3.88 -42.78,54.6 -8.53,35.65 31.88,-19.81 3.47,16.99 -22.11,16.99 -23.24,0 -46.43,53.07 -11.91,33.93 31.52,-19.67 4.42,16.99 -23.83,16.99 -30.64,0 -175.28,302.04 -226.34,475.11 -44.27,142.57 -47.65,174.81 -47.65,475.15 -1.69,286.78 3.38,337.68 37.43,466.63 86.8,320.7 270.59,622.76 517.39,856.93 137.83,130.7 205.9,179.89 173.59,122.2 -16.15,-28.13 18.7,1.99 18.7,25.45 0,25.45 195.72,144.24 338.65,205.34 704.57,298.67 1504.43,123.89 2040.5,-444.58 119.15,-128.96 163.37,-191.75 110.62,-161.2 -31.79,15.79 1.56,-18.68 23.83,-18.68 24.14,0 44.88,-53.4 13.63,-33.93 -15.32,8.51 -18.7,6.79 -10.22,-6.79 6.79,-10.18 18.7,-15.25 27.21,-10.18 6.81,5.08 25.54,-10.2 40.84,-33.93 28.95,-44.13 20.42,-57.69 -13.6,-20.37 -10.22,11.87 -17.01,16.97 -15.32,13.56 5.12,-8.46 -62.97,-57.69 -69.78,-50.9 -1.69,3.38 -23.8,35.63 -51.06,71.27 -25.52,35.63 -42.53,74.66 -39.12,86.55 13.6,33.93 -263.79,296.96 -410.15,392.01 -229.77,147.62 -495.23,240.96 -764.15,269.82l-107.19 11.89 0 -95.05c0,-71.25 5.1,-93.34 25.52,-93.34 18.73,0 25.54,18.68 25.54,69.58l0 71.27 100.4 -11.87c228.06,-25.47 522.49,-139.16 731.8,-281.71 115.74,-78.06 342.08,-283.4 342.08,-308.85 0,-10.2 -68.07,47.52 -151.48,125.58 -233.15,218.9 -488.42,352.96 -798.15,420.85 -205.95,45.82 -207.64,45.82 -207.64,-25.45 0,-64.5 23.83,-79.78 39.14,-23.78 8.53,30.55 17.03,33.93 91.92,22.07 117.43,-16.97 336.96,-86.52 456.09,-147.62 117.43,-57.69 279.11,-164.61 313.14,-205.34 11.94,-15.27 35.76,-27.16 49.37,-27.16 32.35,0 139.57,-100.11 139.57,-128.96 0,-28.86 154.86,-234.17 251.88,-334.3l78.29 -79.76 316.57 -0.02c96.3,0 169.23,1.21 222.87,3.78l0 -15.7c-195.56,-0.66 -498.54,-7.33 -554.8,-8.38 -90.04,97.96 -185.68,197.06 -260.36,307.14 -40.84,56 -79.98,100.13 -86.8,95.03 -17.01,-10.2 -141.26,117.07 -127.63,130.66 16.99,18.68 -207.64,173.07 -359.12,247.75 -127.61,64.48 -301.2,120.48 -445.89,145.93 -42.53,6.79 -56.13,3.38 -56.13,-15.25 0,-15.25 15.32,-25.45 37.43,-25.45 59.54,0 284.21,-67.87 401.62,-120.48 239.99,-108.59 496.93,-322.41 638.21,-532.84 37.43,-56 107.19,-142.52 153.15,-191.75l86.8 -88.22 314.83 -0.02c107.46,0 194.79,1.93 258.69,5.76l0 -10.38c-68.05,-3.08 -153.06,-5.69 -241.68,-7.26l-350.59 -6.79c-80.23,88.33 -160.75,175.8 -228.06,274.92 -195.7,288.48 -488.44,505.68 -822.02,607.52 -136.16,42.42 -129.32,40.72 -129.32,13.56 0,-10.2 47.65,-33.96 107.21,-50.92 57.87,-16.97 163.37,-59.41 233.15,-93.34 69.76,-33.93 136.16,-61.1 144.64,-61.1 30.66,-1.69 127.66,-67.89 127.66,-86.57 0,-10.18 47.63,-62.77 103.81,-118.79 57.87,-55.98 149.77,-166.28 205.95,-246.04 56.18,-79.78 129.32,-173.1 163.37,-208.72l61.28 -62.79 348.87 0c115.01,0 207.48,1.71 275.73,5.17l0 -19.54c-31.23,-1.63 -65.16,-2.62 -98.74,-2.62 -158.27,0 -177,-3.36 -158.27,-25.44 19.97,-23.19 146.98,-31.29 257.01,-23.77l0 -16.22c-28.62,-1.54 -59.01,-2.41 -88.54,-2.41 -156.58,0 -188.91,-8.46 -156.58,-40.72 11.95,-11.91 134.28,-10.48 245.12,-2.82l0 -22.46c-26.17,-1.17 -53.43,-1.86 -80.04,-1.86 -107.19,0 -177,-6.79 -177,-16.99 0,-16.46 134.23,-21.32 257.04,-17.09l0 -14.81 -8.54 -0.32c-175.33,-8.48 -239.99,-15.27 -245.07,-32.24 -5.57,-17.58 126.93,-22.52 253.61,-18.48l0 -18.53c-38.15,-1.2 -245.14,-5.52 -253.61,-30.88 -3.41,-13.58 16.99,-20.35 71.48,-20.35 42.53,0 78.27,6.81 78.27,16.99 0,11.38 52.24,16.96 103.86,16.84l0 -67.17c-69.78,-3.19 -163.12,-5.41 -289.32,-7.39l-416.97 -6.77 -37.45 -52.64c-28.92,-42.42 -37.43,-88.24 -45.96,-218.9 -27.21,-485.33 -333.53,-918.04 -794.77,-1118.28 -69.74,-30.55 -141.24,-56 -156.56,-56 -17.03,0.02 -30.64,-11.89 -30.64,-25.45 0,-32.24 49.34,-22.07 195.7,37.32 149.77,62.79 326.74,181.58 442.51,300.37 115.72,117.1 236.54,290.19 221.24,315.64 -11.91,18.64 37.45,118.79 69.76,144.22 30.64,23.76 73.19,183.27 91.92,346.19 13.6,117.1 25.52,152.7 73.19,218.9l56.16 79.76c206.92,4.2 414.41,6.63 621.19,14.67l0 -113.35c-50.15,-0.23 -114.62,0.54 -199.09,1.95l-342.08 6.79 -62.97 -76.37c-42.55,-52.61 -61.26,-91.65 -61.26,-132.37 0,-81.47 -44.24,-259.64 -95.28,-388.61 -47.65,-120.48 -158.29,-312.23 -171.9,-298.65 -5.12,5.1 8.48,32.24 28.9,59.41 97.02,139.14 221.24,493.79 221.24,639.72 0,37.34 22.11,81.47 69.78,140.85l69.76 86.52c54.76,0 439.08,-5.48 439.08,16.99 0,22.58 -444.2,16.99 -507.15,16.99l-45.96 -61.1c-37.43,-49.21 -52.75,-96.7 -71.48,-217.2 -11.91,-84.86 -34.05,-196.83 -49.34,-247.75 -15.32,-50.92 -28.92,-108.61 -32.33,-127.27 -5.12,-42.44 -44.27,-127.25 -57.87,-127.27 -6.81,0.02 -44.27,-49.21 -83.39,-108.59 -165.09,-251.16 -437.39,-456.47 -721.6,-546.4 -57.87,-16.99 -98.71,-39.01 -98.71,-54.31 0,-25.47 10.22,-23.78 182.1,39.01 175.28,62.79 343.78,173.1 503.74,332.61 81.7,81.45 148.07,144.24 148.07,139.14 0,-5.1 -35.76,-49.23 -78.29,-100.13 -151.46,-176.48 -432.26,-356.34 -656.91,-422.52 -59.56,-16.99 -98.71,-37.34 -98.71,-50.92 0,-30.55 127.66,5.1 302.94,86.55 69.76,30.55 173.59,89.93 229.73,132.37 119.15,84.86 306.37,268.1 297.84,291.86 -8.51,23.76 71.48,142.55 95.3,142.55 23.85,0 127.66,212.13 170.21,347.86 13.6,45.82 32.33,127.27 40.84,178.19 17.17,111.19 67.91,167.68 131.04,252.83l316.54 1.69c72.71,0 134.7,0.89 187.21,2.9l0 -93.24zm3.44 1143.58c-328.52,643.42 -966.94,1120.94 -1689.91,1245.98 -216.1,39.03 -604.16,39.03 -816.9,1.69 -890.03,-157.82 -1616.74,-816.22 -1863.5,-1690.16 -119.15,-425.9 -103.81,-941.78 42.55,-1377.88 89.11,-265.48 225.98,-509.22 399.83,-722.19l-45.26 0c-254.73,320.6 -424.52,704.18 -490.71,1124.36 -27.23,171.38 -23.85,549.81 6.79,739.85 35.76,222.28 125.94,487 238.28,705.92 275.71,536.25 787.95,975.74 1356.38,1165.8 262.06,86.55 461.19,118.79 764.11,118.79 302.94,0 502.07,-32.24 764.15,-118.81 553.53,-185.08 1053.78,-606.69 1334.2,-1123.85l-0.01 -69.5zm-2231.99 -2542.56c1.78,18.46 2.55,13.96 6.69,0l-6.69 0zm69.21 0c6.38,10.52 10.64,14.45 13.6,0l-13.6 0zm-1081.47 0c-322.83,250.86 -563.22,610.67 -669.97,1005.6 -40.84,152.72 -45.94,198.52 -45.94,466.65 0,252.85 5.1,317.33 35.74,436.12 105.52,393.66 262.08,654.97 561.61,938.38 730.08,688.97 1880.54,661.83 2598.73,-61.1 163.37,-162.92 342.06,-427.64 374.39,-549.81 6.81,-23.78 -16.99,10.18 -52.75,76.35 -151.46,274.92 -314.85,470.08 -534.38,634.67 -234.87,176.5 -551.44,312.23 -832.22,358.06 -270.61,42.42 -641.59,10.2 -888.36,-78.06 -1162.37,-414.03 -1615.07,-1761.39 -936.03,-2788.05 34.05,-52.59 125.94,-161.2 204.21,-242.65 69.54,-72.16 143.59,-137.52 221.2,-196.16l-36.23 0zm104.59 0c-137.13,100 -405.25,354.43 -405.25,387.88 0,8.48 74.86,-61.1 166.78,-152.72 92.91,-94.44 180.6,-170.32 273.89,-235.16l-35.42 0zm789.43 236.87l5.12 225.69 306.32 0 10.22 -449.68 183.81 0 10.22 449.68 119.13 10.18c328.46,30.55 553.11,232.5 553.11,498.93 0,125.56 -40.84,218.9 -134.45,312.21 -39.14,39.01 -69.74,76.37 -69.74,84.86 0,8.48 28.9,33.93 64.66,54.33 105.5,66.17 207.61,169.69 255.27,261.31 37.45,71.3 45.96,106.92 45.96,220.61 0,168 -47.63,269.8 -180.38,388.59 -144.67,128.96 -294.43,190.04 -519.06,210.41l-134.47 11.89 -10.22 432.71 -183.81 -0.02 -10.22 -432.74 -306.35 0.02 -10.22 432.69 -183.79 0 -10.22 -432.74 -566.71 -8.46c20.69,-84.99 44.11,-169.87 66.38,-254.54l117.41 0c62.97,0 127.66,-5.08 142.95,-10.18 23.85,-8.51 27.23,-93.34 27.23,-770.4 0,-677.06 -3.38,-761.92 -27.23,-770.42 -15.3,-5.1 -95.3,-10.18 -178.71,-10.18l-151.46 0 0 -220.61 570.12 -8.46 10.22 -449.68 183.79 0 5.1 223.99 0.02 0.01zm251.88 -157.82c0,16.97 -166.78,44.11 -182.07,30.55 -5.12,-5.1 -3.41,-16.97 3.41,-27.14 13.6,-22.07 178.69,-25.45 178.69,-3.38l-0.03 -0.03zm-510.55 57.69c0,30.55 -17.01,47.49 -68.05,71.27 -37.41,16.99 -68.07,35.65 -68.07,44.11 0,16.92 -178.83,118.13 -165.09,127.29 5.12,5.08 39.14,-10.2 74.88,-33.96 34.05,-23.78 78.29,-44.11 95.3,-44.11 17.01,0 54.46,-11.89 85.1,-25.47 66.33,-30.55 35.72,-10.18 -91.94,66.17 -85.08,49.23 -110.6,56 -228.03,57.69l-132.75 3.41c17.55,-19.04 73.75,-85.33 97.02,-81.47 27.21,6.81 148.05,-71.25 137.83,-88.24 -8.51,-13.58 216.12,-135.73 248.48,-135.73 12.23,-0.03 15.32,30.9 15.32,39.04zm510.55 11.89c0,8.48 -18.7,16.99 -40.84,16.99 -22.13,0 -64.66,5.1 -93.59,10.18 -40.86,8.51 -52.77,5.1 -52.77,-16.97 0,-22.04 18.73,-27.14 93.61,-27.14 51.06,0 93.59,6.79 93.59,16.97l0 -0.03zm0 59.38c0,20.35 -22.13,25.45 -93.59,25.45 -96.99,0 -129.32,-27.14 -45.96,-39.01 103.83,-15.27 139.55,-11.89 139.55,13.56zm553.13 108.64c428.88,203.62 706.28,614.27 735.2,1087.73 8.51,140.83 17.03,169.69 57.87,230.76 56.31,81.72 89.75,78.45 176.98,96.72l-51.06 13.56c-81.7,23.76 -115.72,6.81 -239.95,-123.89 -88.51,-93.32 -108.93,-125.56 -86.8,-128.96 17.01,-3.41 28.92,-22.04 28.92,-47.49 0,-32.24 -8.53,-40.72 -42.57,-40.72 -54.35,0 -58.14,-33.96 0,-33.96 34.05,0 42.57,-8.46 42.57,-42.42 0,-33.96 -8.53,-42.42 -45.96,-44.13l-47.65 -3.38 47.65 -6.81c35.74,-5.1 45.96,-16.97 45.96,-49.21 0,-32.24 -8.53,-40.72 -45.96,-42.44 -35.74,-1.69 -39.14,-3.41 -13.6,-10.18 18.7,-5.1 42.55,-15.25 52.75,-23.78 25.52,-22.04 57.87,154.44 59.56,325.84 0,101.8 3.38,117.07 16.99,83.16 23.85,-56 -8.48,-322.43 -56.13,-463.26 -117.41,-356.37 -386.33,-641.46 -736.94,-777.19 -64.66,-25.45 -120.82,-56 -125.94,-67.87 -10.2,-30.55 69.78,-6.79 228.08,67.87l0.03 0.05zm-556.51 -45.83c-8.51,25.45 -183.79,40.75 -183.79,15.27 0,-20.37 40.86,-30.55 124.23,-33.93 45.98,-1.69 62.97,5.08 59.56,18.66zm-507.15 47.52c0,23.78 -132.73,88.24 -166.76,81.47 -18.73,-5.1 0,-22.07 56.16,-52.61 93.59,-49.21 110.6,-54.31 110.6,-28.86zm879.87 -6.77c-14.69,14.69 -67.17,-8.48 -22.11,-8.48 18.7,-1.71 28.9,3.38 22.11,8.48zm-369.34 49.21c0,40.75 -5.1,42.44 -93.61,42.44 -88.51,0 -93.61,-1.69 -93.61,-42.44 0,-40.72 5.12,-42.44 93.61,-42.44 88.49,0 93.61,1.69 93.61,42.44zm777.75 166.28c112.31,95.05 192.34,188.37 265.49,302.08 57.87,89.93 59.56,96.7 28.95,105.23 -47.65,11.87 -44.24,72.92 5.1,88.24l37.43 13.58c-53.74,9.72 -76.58,3.88 -76.58,71.25 0,30.55 10.22,61.1 22.11,64.48 10.22,5.1 3.41,10.2 -16.99,10.2 -30.64,1.71 -39.14,11.89 -39.14,44.13 0,32.24 8.51,42.42 39.14,44.13l37.41 0 -37.43 15.27c-49.37,20.35 -52.75,84.83 -5.1,84.83 46.64,0 43.16,33.93 0,33.96 -25.54,0 -34.05,11.87 -34.05,42.42 0,32.24 8.48,42.42 39.12,42.42 25.54,0 85.1,47.54 180.38,142.57l142.97 144.24 -83.39 5.1c-69.78,5.08 -83.39,10.18 -83.39,39.03 0,30.55 13.63,33.91 117.43,39.01l117.43 5.1 -8.53 -44.11c-8.51,-44.13 5.1,-50.92 62.97,-25.47 32.33,13.6 32.33,15.27 -3.41,15.27 -22.13,1.69 -39.14,8.51 -39.14,15.25 0,8.51 17.03,23.78 39.14,33.96 34.05,16.99 30.64,18.68 -30.64,18.68 -61.26,1.69 -78.29,11.87 -154.89,98.42 -47.65,54.26 -110.62,144.22 -142.95,198.52 -105.52,186.65 -406.75,464.96 -515.65,476.82 -49.37,5.1 -148.07,54.33 -148.07,72.94 0,8.51 -37.45,25.47 -85.1,40.75 -68.07,22.04 -85.08,23.74 -85.08,5.05 0,-11.87 40.86,-35.6 90.2,-52.59 90.92,-29.15 174.38,-73.35 258.69,-117.05l-127.66 -8.51c-136.16,-10.18 -132.75,-18.66 22.13,-50.9 228.06,-45.82 457.8,-215.51 551.41,-405.57 40.84,-79.76 47.63,-117.1 47.63,-230.77 0,-179.86 -51.06,-288.48 -205.9,-431 -59.56,-57.69 -119.15,-103.54 -127.66,-103.54 -10.22,0 5.12,-27.12 34.05,-59.38 125.94,-142.52 168.47,-332.59 112.31,-498.89 -56.16,-168.02 -284.19,-356.37 -468,-385.2 -54.49,-8.48 -61.28,-15.27 -54.49,-50.92l6.81 -40.72c107.67,56.83 221.74,112.67 314.85,191.75l0.09 -0.06zm-1288.3 -140.83c0,8.46 -17.01,16.97 -37.41,16.97 -32.33,0 -34.05,-3.41 -13.6,-16.97 32.31,-22.07 51.04,-22.07 51.04,0l-0.03 0zm-626.26 217.2c-127.66,161.2 -217.86,354.65 -265.51,559.99 -39.14,171.4 -35.72,191.75 42.55,281.71l69.78 78.04c33.1,0 251.88,-5.17 251.88,16.99 0,22.22 -261.04,16.94 -299.53,16.94l-144.67 -147.6 17.01 -125.58c35.74,-252.85 132.75,-488.71 284.21,-694.05 59.56,-79.78 83.39,-101.8 88.49,-79.78 3.43,15.27 -16.99,57.71 -44.22,93.34l0 -0.02 0.01 0.02zm-360.78 -45.82c0,10.2 -18.73,50.92 -42.57,91.62 -54.44,91.65 -134.42,310.54 -173.59,470.05 -47.65,198.54 -40.86,568.47 17.03,780.6 85.08,320.7 231.44,573.55 466.31,809.41 78.29,78.06 141.24,154.44 137.83,168 -8.48,42.44 -285.9,-246.06 -393.12,-407.24 -114.05,-171.4 -197.42,-354.67 -253.57,-556.58 -34.05,-127.27 -39.14,-179.86 -37.45,-449.68 0,-281.69 5.1,-317.33 47.65,-458.16 73.19,-244.37 231.46,-549.81 231.46,-447.99l0.02 -0.03zm367.55 137.47c-71.45,95.03 -178.69,337.68 -209.31,476.85l-28.95 132.37 83.39 83.14c79.98,81.45 88.49,84.86 175.28,84.86 56.18,0 86.8,6.79 79.98,16.94 -5.1,8.51 -61.26,16.99 -124.25,16.99 -108.91,0 -114.03,-1.69 -185.5,-71.27 -40.84,-39.03 -73.19,-86.55 -73.19,-106.92 0,-79.76 73.19,-329.2 134.45,-456.47 79.98,-168.02 177.02,-303.75 185.5,-261.33 3.41,16.94 -13.63,54.31 -37.45,84.86l0.05 -0.02zm-32.33 183.27c-40.84,79.73 -88.49,195.14 -105.52,257.93l-30.62 115.4 66.35 74.68c56.18,62.79 76.58,74.68 131.04,76.35 44.22,1.71 62.97,10.18 62.97,27.14 0,18.68 -20.42,25.45 -81.7,25.45 -73.17,0 -88.49,-6.79 -156.56,-76.35l-73.19 -74.68 35.74 -145.93c39.14,-157.82 88.49,-279.99 165.06,-398.78 78.29,-122.2 69.76,-42.44 -13.6,118.79l0.03 0zm120.84 -106.92c-3.41,8.48 -39.17,79.76 -80,162.92 -98.71,200.21 -105.5,256.21 -35.76,337.68l52.77 64.46 187.2 0c153.15,0 185.5,5.08 185.5,25.45 0,28.86 -76.58,35.63 -93.61,8.46 -11.21,-22.38 -193.02,-22.38 -204.23,0 -5.1,8.51 -35.74,16.99 -68.09,16.99 -47.63,0 -68.07,-13.56 -117.41,-72.94l-61.28 -74.66 27.23 -91.65c54.46,-184.96 156.58,-388.61 195.72,-388.61 10.2,0.02 15.3,5.1 11.91,11.89l0 -0.02 0.05 0.03zm61.26 33.95c-57.87,88.22 -107.19,184.94 -134.42,257.93l-25.54 74.66 120.82 147.6c36.91,0 287.62,-5.26 287.62,16.99 0,22.38 -309.1,16.94 -353.97,16.94 -25.29,-28.45 -105.52,-114.28 -105.52,-145.93 0,-40.72 85.08,-244.35 141.26,-334.28 27.23,-44.13 61.28,-79.73 74.88,-79.73 22.13,0 22.13,6.77 -5.12,45.8l0 0.02 -0.01 0zm248.49 -20.37c0,16.97 -17.01,25.45 -51.06,25.45 -42.53,0 -59.56,13.56 -102.12,79.76 -28.92,44.13 -51.06,91.65 -51.06,105.23 0,40.72 120.82,154.39 165.06,154.39 23.83,0 39.14,10.2 39.14,25.45 0,18.68 -20.42,25.47 -88.49,25.47 -76.58,0 -97.02,-6.79 -144.67,-54.31 -30.64,-30.55 -56.18,-64.48 -56.18,-76.35 0,-32.24 62.97,-154.44 114.03,-222.3 23.85,-30.55 39.14,-61.1 34.05,-64.48 -13.6,-13.58 -108.93,132.37 -149.77,223.99l-34.05 79.73 73.19 74.68c66.35,67.87 78.29,72.94 161.68,72.94 49.34,0 90.18,6.79 90.18,16.94 0,10.2 -54.46,16.99 -131.04,16.99 -124.25,0 -134.42,-3.38 -187.22,-54.31 -30.64,-30.55 -56.16,-69.58 -56.16,-88.24 0,-44.11 91.92,-239.27 144.67,-308.85 37.45,-47.52 51.06,-52.59 134.47,-56 74.88,-1.69 95.28,3.38 95.28,23.74l0 0.02 0.07 0.06zm-91.91 184.96l-1.69 127.27c-18.46,-17.71 -93.61,-85.71 -93.61,-103.51 0,-13.58 85.08,-149.34 93.61,-149.34 2.17,0 1.69,118.16 1.69,125.58zm57.87 -100.13c0,34.84 -34.02,32.06 -34.02,0 0,-32.06 34.02,-34.81 34.02,0zm28.92 11.89c-12.48,33.12 -14.85,-49.66 -1.69,-32.24 5.1,5.1 6.79,20.35 1.69,32.24zm0 118.79c-12.48,33.12 -14.85,-49.66 -1.69,-32.26 5.1,5.1 6.79,20.37 1.69,32.26zm-28.92 -13.58c0,13.24 -34.02,32.38 -34.02,11.87 0,-25.16 34.02,-19.83 34.02,-11.87zm1929.88 95.03l11.91 42.44c-17.19,-28.59 -51.06,-78.47 -51.06,-110.31 0,-22.07 1.69,-22.07 13.6,0 8.53,13.56 20.44,44.11 25.54,67.89l0.01 -0.02zm-1929.88 15.25c0,24.52 -34.02,43.7 -34.02,11.89 0,-36.05 34.02,-31.63 34.02,-11.89zm28.92 22.07c-12.48,33.12 -14.85,-49.66 -1.69,-32.24 5.1,5.1 6.79,20.37 1.69,32.24zm5.1 310.54c0,16.97 -17.01,25.45 -51.06,25.45 -34.02,0 -51.06,-8.46 -51.06,-25.45 0,-16.97 17.01,-25.45 51.06,-25.45 34.05,0 51.06,8.48 51.06,25.45zm0 59.41c0,22.25 -102.12,21.55 -102.12,0 0,-22.16 102.12,-22.86 102.12,0zm0 50.92c0,21.25 -109.18,23.26 -93.59,0 10.81,-21.64 93.59,-23.15 93.59,0zm0 127.27c0,27.14 -76.58,35.63 -91.89,10.18 -13.6,-20.35 6.81,-35.63 52.75,-35.63 23.85,0 39.14,10.18 39.14,25.45zm0 59.38c0,22.22 -102.12,21.52 -102.12,0 0,-22.18 102.12,-22.83 102.12,0zm0 67.87c0,21.93 -80.5,21.79 -93.59,0 -15.09,-22.54 93.59,-22.63 93.59,0zm0 118.79c0,22.25 -102.12,21.52 -102.12,0 0,-22.13 102.12,-22.83 102.12,0zm2212.4 0l42.53 11.89 -45.96 11.89c-56.16,16.97 -224.65,195.14 -302.92,324.08 -127.63,208.72 -389.73,425.92 -633.11,520.93 -139.55,56.02 -224.65,74.68 -214.43,47.54 6.81,-20.37 178.69,-84.86 192.32,-71.27 10.22,11.87 108.93,-30.55 124.23,-54.33 6.81,-10.18 57.87,-49.21 114.03,-84.83 141.26,-91.65 330.17,-286.78 413.56,-427.64 79.98,-132.35 217.84,-296.94 246.78,-293.53 11.89,1.69 39.1,6.79 62.97,15.27zm-2212.4 67.86c0,10.17 -44.24,16.95 -98.73,16.95 -90.18,0 -107.19,6.79 -170.16,61.1l-71.48 61.08 32.33 45.82c20.44,27.14 27.25,54.31 20.44,67.89 -10.22,13.56 -30.64,-5.1 -68.07,-62.79 -28.97,-45.82 -52.77,-88.24 -52.77,-95.03 0,-6.79 17.01,-35.63 39.14,-61.1 35.72,-47.47 40.84,-49.16 204.21,-49.16 98.73,-1.69 165.09,5.08 165.09,15.27l0 -0.03zm2256.65 18.64c5.12,8.48 -6.81,15.25 -27.23,15.25 -44.24,0 -178.69,142.57 -273.99,288.5 -81.7,125.58 -275.71,322.41 -319.95,322.41 -17.01,0 -62.97,30.55 -100.4,67.87 -81.67,76.35 -168.47,123.89 -333.58,179.89 -137.85,47.52 -146.34,47.52 -146.34,16.97 0,-11.87 23.83,-27.14 51.06,-33.93 98.71,-18.66 280.83,-100.11 410.13,-181.56 153.2,-98.46 321.67,-268.13 428.88,-431.02 42.53,-66.2 107.19,-154.44 146.34,-196.83 56.18,-64.46 76.58,-76.35 112.34,-69.56 23.8,3.38 47.65,13.55 52.75,22.02l-0.01 -0.01zm-2348.57 52.62c-5.1,22.04 -10.22,52.59 -10.22,67.87 0,23.76 -13.6,30.55 -57.87,30.55 -32.33,0 -61.26,10.2 -66.35,20.37 -10.22,27.14 -69.78,-3.41 -74.88,-39.03 -6.81,-35.65 112.31,-117.07 170.18,-117.07 44.24,0 49.37,5.08 39.17,37.32l-0.03 -0.01zm86.8 0c-12.48,33.12 -14.82,-49.68 -1.69,-32.24 5.1,5.1 6.79,20.35 1.69,32.24zm-28.92 -3.39c0,27.62 -16.33,15.27 -25.54,0 -12.16,-24.21 25.54,-21.16 25.54,0zm2169.85 524.39c15.32,25.45 -250.19,279.99 -391.4,375 -451.01,303.77 -987.11,390.3 -1497.66,246.06 -185.48,-52.61 -478.18,-191.75 -454.35,-215.51 10.22,-10.2 62.97,6.79 149.77,50.9 127.63,64.5 343.73,139.16 462.88,161.23l54.46 10.18 6.79 -193.45 11.91 173.07 78.29 11.89c163.37,22.04 158.27,25.45 153.17,-108.61 -3.38,-66.2 -1.71,-118.79 1.69,-118.79 27.23,0 52.75,72.94 54.49,149.34 0,62.79 6.79,91.65 25.52,98.42 13.6,5.1 90.2,1.69 171.9,-10.2 389.71,-50.9 781.16,-252.85 1038.14,-532.84 103.81,-113.71 117.41,-122.2 134.42,-96.72l-0.02 0.03zm-2130.69 13.56c-16.61,0.72 322.98,678.28 -224.65,15.27 -20.42,-25.45 -5.12,-27.14 170.16,-23.74 173.61,3.38 178.71,3.38 54.49,8.46l0 0.01zm726.66 22.04c0,37.34 -18.73,40.75 -122.53,23.78 -103.81,-16.97 -83.39,-57.71 28.95,-57.71 81.67,0 93.61,3.38 93.61,33.93l-0.03 0zm335.27 79.76c-3.38,27.16 -6.79,8.48 -6.79,-37.34 0,-47.49 3.41,-67.87 6.79,-47.49 3.41,22.04 3.41,59.36 0,84.83zm-941.13 -39.01c10.22,40.72 -1.69,95.03 -20.42,95.03 -20.44,0 -190.58,-108.59 -190.58,-122.17 0,-6.79 45.94,-13.58 100.4,-13.58 91.87,0 100.4,3.41 110.6,40.75l0 -0.03zm1162.37 -13.59c-27.23,15.27 -78.27,37.34 -115.72,49.23 -57.87,20.37 -66.4,20.37 -66.4,0 0,-13.56 11.91,-25.45 25.52,-25.45 13.65,0 25.54,-11.87 25.54,-25.47 0,-18.66 20.42,-25.45 90.18,-25.45l88.51 1.69 -47.65 25.45 0.02 0zm-556.51 52.62c0,18.66 -10.22,23.76 -37.45,15.27 -22.11,-5.1 -64.66,-10.2 -93.59,-10.2 -34.05,0 -56.18,-8.46 -56.18,-22.04 0,-13.58 27.23,-18.68 93.61,-15.27 69.76,5.08 93.61,13.56 93.61,32.24zm-544.56 -3.39c0,34.84 -34.02,32.04 -34.02,0 0,-32.04 34,-34.86 34.02,0zm28.88 11.87c-12.5,33.14 -14.82,-49.66 -1.71,-32.24 5.12,5.1 6.81,20.37 1.71,32.24zm-505.41 39.06c62.97,56 183.79,134.06 289.31,186.65 131.04,66.2 319.93,128.96 331.84,108.61 18.73,-30.55 42.55,-15.27 42.55,27.12 0,39.03 -5.1,42.44 -45.96,32.24 -108.93,-25.45 -325.03,-113.69 -418.66,-168 -108.91,-64.48 -122.53,-69.58 -103.81,-39.01 15.73,31.34 -18.73,-0.61 -18.73,-25.47 0,-11.89 -13.6,-18.66 -28.92,-18.66 -17.03,1.69 -27.23,-3.38 -25.54,-11.89 1.69,-8.48 -30.64,-44.13 -73.19,-81.45 -64.66,-57.69 -69.78,-66.2 -34.05,-57.69 23.83,5.08 61.28,27.14 85.1,47.52l0.06 0.03zm958.12 -15.26c34.05,6.77 62.97,18.64 62.97,27.12 0,23.76 -175.28,8.48 -183.79,-16.97 -6.81,-22.07 23.8,-25.45 120.82,-10.18l0 0.03zm62.97 83.14c0,27.14 -74.88,33.93 -148.07,15.27 -69.76,-18.68 -40.84,-40.72 54.46,-40.72 71.48,0 93.61,5.08 93.61,25.45zm-66.38 42.44c49.37,0 66.38,6.77 66.38,27.14 0,23.74 -11.91,25.45 -62.97,16.97 -35.76,-5.1 -78.29,-10.2 -93.59,-10.2 -17.03,0 -30.66,-11.89 -30.66,-27.14 0,-18.64 8.53,-23.76 27.23,-16.94 15.32,5.1 56.18,10.18 93.61,10.18l0 -0.01zm-457.8 227.38c173.59,59.41 200.82,57.69 200.82,-6.79 0,-28.83 8.53,-50.9 17.03,-50.9 21.91,0 17.01,135.1 17.01,157.82l-69.78 -11.87c-188.87,-30.55 -527.55,-178.19 -539.46,-234.19 -3.41,-20.35 28.92,-8.46 119.13,37.34 68.07,35.65 183.79,84.86 255.25,108.61l0 -0.02zm483.34 -159.49c22.11,0 40.84,6.77 40.84,16.97 0,8.48 -42.53,16.97 -93.61,16.97 -74.88,0 -93.61,-5.08 -93.61,-27.14 0,-22.04 11.94,-25.45 52.77,-16.97 28.92,5.1 71.48,10.2 93.61,10.2l0 -0.03zm-17.03 69.58c8.48,13.58 -1.71,16.97 -34.05,11.89 -23.83,-5.1 -49.34,-1.69 -54.46,5.1 -15.32,27.16 -57.87,16.99 -47.63,-10.2 11.91,-30.5 117.41,-35.6 136.14,-6.77l0 -0.02zm-107.2 61.1c-11.91,3.41 -32.35,3.41 -42.55,0 -27.21,-11.62 66.56,-11.98 42.55,0zm20.45 56c0,13.58 -17.03,27.14 -37.45,30.55 -30.64,5.1 -39.14,-3.38 -39.14,-30.55 0,-27.14 8.51,-35.65 39.14,-30.55 20.44,3.41 37.45,16.99 37.45,30.55zm93.58 0c0,22.34 -72.74,21.89 -59.56,0 9.99,-19.88 59.56,-24.66 59.56,0zm-114.03 62.79c-11.91,3.38 -32.35,3.38 -42.55,0 -27.21,-11.64 66.56,-11.98 42.55,0zm1483.63 -3162.1c5.01,47.15 133.75,171.22 169.01,158.43 30.64,-11.87 80,49.23 66.4,83.16 -11.91,32.24 112.31,210.43 139.55,200.24 30.64,-11.87 79.98,67.89 54.49,93.34 -23.83,23.76 69.76,227.4 100.4,215.51 25.4,-8.39 69.87,80.48 42.53,88.24 -25.54,8.48 -23.85,49.21 6.81,152.72 17.01,54.31 35.72,88.24 51.06,88.24 32.58,0 35.85,50.9 -5.12,50.9 -23.83,0 -40.84,-33.93 -76.6,-166.3 -104.1,-371.87 -325.48,-714.54 -619.6,-964.48l-30.71 0c318.37,260.77 548.89,617.66 646.94,1023.86 25.52,101.82 35.74,122.2 71.48,132.39 54.44,13.56 71.48,0 61.28,-44.13 -6.81,-23.78 0,-42.44 16.99,-50.92 23.85,-13.56 23.85,-25.45 -3.38,-122.17 -20.44,-69.58 -39.17,-106.92 -59.56,-110.28 -34.02,-6.79 -73.17,-93.34 -45.94,-101.84 28.92,-10.18 22.11,-49.18 -23.83,-139.14 -27.23,-56 -54.46,-84.83 -74.88,-84.83 -35.74,0 -79.98,-81.47 -54.46,-106.92 25.52,-25.45 -98.71,-203.62 -136.16,-193.45 -39.14,10.18 -90.18,-45.82 -76.58,-83.16 8.98,-22.38 -30.37,-76.89 -74.3,-119.4l-145.82 -0.01zm-2780.45 -2.09c-44.81,42.81 -85.65,98.76 -76.5,121.54 13.6,37.32 -37.43,93.32 -76.58,83.14 -37.45,-10.18 -161.68,168.02 -136.16,193.45 25.52,25.45 -18.73,106.92 -54.44,106.92 -20.44,0 -47.65,28.83 -74.88,84.83 -45.96,89.93 -52.75,128.96 -23.83,139.14 27.23,8.48 -11.91,95.03 -45.98,101.8 -20.4,3.41 -39.12,40.75 -59.54,110.31 -27.23,95.03 -27.23,108.61 -3.43,120.48 32.35,18.66 15.32,122.2 -18.7,122.2 -23.85,0 -44.27,84.83 -44.27,181.56 0,39.05 8.53,56.02 25.54,56.02 35.72,0 34.02,95.03 -1.71,115.38 -23.83,13.56 -25.52,33.96 -17.01,128.96 8.53,74.66 20.44,112.02 35.74,112.02 30.62,0 49.34,83.14 23.83,111.97 -30.64,37.34 11.89,212.11 52.75,222.28 39.14,10.18 69.76,88.24 47.63,123.89 -23.8,37.32 62.99,227.38 97.02,213.82 35.74,-13.56 86.8,67.89 61.28,96.72 -25.54,32.24 98.71,208.72 141.26,201.93 35.74,-6.81 98.71,66.17 76.58,91.62 -18.7,22.09 144.67,184.94 170.21,169.69 28.95,-18.66 102.09,39.03 91.89,72.94 -11.91,44.11 158.25,164.59 190.6,137.45 30.64,-25.45 102.12,20.37 102.12,62.79 0,39.01 211.02,132.37 222.96,100.11 13.6,-35.65 108.93,0 108.93,40.72 0,42.42 204.19,96.7 229.73,61.1 22.11,-28.86 110.62,-15.27 110.62,15.25 0,11.87 11.91,27.14 27.21,32.24 44.27,16.97 228.06,11.87 228.06,-6.79 0,-22.18 102.12,-22.86 102.12,0 0,18.66 183.81,23.76 228.03,6.79 15.32,-5.1 27.23,-20.37 27.23,-32.24 0,-30.55 88.51,-44.11 110.62,-15.25 25.52,35.63 229.77,-18.68 229.77,-61.1 0,-40.72 95.3,-76.37 108.91,-40.72 11.91,32.24 222.96,-61.1 222.96,-100.11 0,-42.42 71.48,-88.24 102.09,-62.79 30.64,25.45 200.85,-91.65 192.32,-134.06 -6.79,-32.24 62.97,-93.34 90.2,-76.37 27.21,16.99 188.91,-147.62 168.49,-171.38 -20.44,-23.76 51.06,-98.44 85.08,-89.93 11.91,3.38 51.06,-35.65 86.8,-86.55 51.06,-71.27 61.26,-96.72 47.65,-115.4 -25.54,-28.86 22.11,-105.21 62.97,-100.13 18.7,1.69 42.53,-30.55 71.48,-98.42 42.53,-96.75 42.53,-100.13 11.91,-122.2 -17.01,-13.56 -42.55,-23.74 -54.46,-23.74 -30.64,0 -110.62,181.56 -98.71,222.3 13.6,40.72 -20.44,101.8 -49.37,89.93 -32.33,-11.89 -151.46,152.7 -139.55,193.45 11.91,33.93 -44.27,98.42 -71.48,81.45 -20.44,-11.87 -180.41,152.72 -166.78,173.1 13.6,23.76 -49.37,72.94 -80,62.79 -34.05,-13.58 -199.11,105.21 -199.11,142.57 0,37.32 -79.98,78.04 -90.2,47.52 -8.53,-27.16 -216.1,71.25 -216.1,101.8 0,11.89 -20.44,32.24 -44.27,42.44 -34.05,15.27 -45.98,15.27 -57.87,-1.69 -10.22,-18.68 -34.02,-18.68 -125.94,6.79 -61.26,16.97 -112.31,40.72 -112.31,50.9 0,30.55 -69.78,45.82 -98.71,22.07 -32.33,-27.14 -211.04,-16.97 -234.87,13.58 -23.83,30.55 -91.92,30.55 -115.72,0 -23.83,-30.55 -202.54,-40.72 -234.85,-13.58 -28.97,23.76 -98.71,8.46 -98.71,-22.07 0,-10.18 -51.08,-33.96 -112.36,-50.9 -91.85,-25.45 -115.7,-25.45 -125.92,-6.79 -11.91,16.97 -23.83,16.97 -57.85,1.69 -23.85,-10.2 -44.27,-30.55 -44.27,-42.44 0,-30.55 -207.64,-128.99 -216.12,-101.8 -10.22,30.55 -90.2,-10.2 -90.2,-47.52 0,-37.34 -165.06,-156.15 -199.11,-142.57 -30.62,10.2 -93.59,-39.01 -79.98,-62.79 13.6,-20.37 -146.36,-184.96 -166.78,-173.1 -27.23,16.99 -83.41,-47.52 -71.48,-81.45 11.91,-40.75 -107.24,-205.36 -139.55,-193.45 -28.95,11.87 -62.99,-49.23 -49.37,-89.93 13.6,-44.13 -68.09,-222.3 -102.12,-222.3 -34.02,0 -61.28,-69.58 -39.14,-96.72 11.91,-13.58 10.22,-50.92 -3.38,-110.3 -22.13,-95.02 -45.96,-137.44 -68.07,-123.88 -25.52,15.27 -30.64,-83.14 -5.1,-101.8 32.33,-23.76 13.6,-227.38 -22.13,-240.96 -34.02,-11.87 -30.64,-106.9 1.74,-106.9 15.3,0 25.52,-15.27 25.52,-40.75 0,-22.04 5.1,-74.66 10.22,-118.79 10.22,-66.17 6.79,-78.04 -18.73,-78.04 -18.7,0 -25.52,-8.48 -18.7,-27.16 5.12,-15.25 10.22,-37.32 10.22,-50.9 0,-13.56 11.91,-23.78 25.52,-23.78 15.32,0 34.05,-33.91 51.06,-88.24 30.64,-103.54 32.35,-144.26 6.81,-152.72 -27.37,-7.81 17.17,-96.68 42.53,-88.24 27.23,10.2 115.74,-174.79 103.83,-215.51 -13.63,-40.72 22.11,-105.21 51.06,-95.03 25.52,10.2 149.74,-159.49 142.95,-195.14 -8.51,-39.03 34.05,-98.44 62.97,-86.57 34.13,12.99 167.65,-114.96 169.16,-160.45l-143.78 0zm218.06 0c-861.72,728.19 -930.99,2035.65 -125.98,2838.31 284.19,283.38 667.11,480.21 1053.42,543 728.41,117.1 1467,-186.65 1889.09,-778.88 88.51,-122.2 222.93,-366.56 202.52,-366.56 -6.81,0 -44.27,59.41 -81.7,130.7 -420.37,816.22 -1404.05,1214.98 -2287.28,926.53 -956.44,-310.54 -1516.36,-1330.39 -1261.08,-2297.64 102.82,-393.95 331.64,-741.13 642.19,-995.46l-31.18 0zm-375.88 0c38.65,32.4 71.12,40.29 71.12,14.62 0,-3.03 -4.25,-8.22 -11.24,-14.62l-59.88 0zm-140.39 0c-25.04,35.05 -23.09,40.34 19.17,84.2 54.49,56 74.88,59.38 117.41,11.89 30.64,-33.96 30.64,-35.65 -27.21,-84.86l-79.65 -11.23 22.77 0c10.16,4.23 22.79,12.97 39.9,26.48 56.13,45.82 30.64,74.68 -34.05,42.42 -51.06,-23.76 -61.28,-40.72 -39.14,-61.08 3.1,-3.4 6.15,-6.02 9.3,-7.82l-28.5 0zm3536.92 50.26c6.81,20.35 -6.81,42.42 -40.84,67.87 -28.92,20.35 -51.06,42.42 -51.06,50.9 0,27.14 37.45,11.89 78.29,-32.24 35.74,-37.34 45.94,-42.44 57.87,-22.07 8.51,13.58 20.42,20.37 25.54,13.58 13.76,-13.74 -85.6,-117.53 -69.78,-78.04l-0.02 0zm23.8 151.01c-54.44,40.75 -57.87,59.41 -20.42,101.8 25.54,28.88 30.64,28.88 85.08,-6.77 59.56,-39.03 71.48,-76.35 37.43,-110.31 -28.92,-28.83 -49.34,-25.45 -102.12,15.27l0.03 0.01zm76.57 32.24c-13.6,49.23 -64.66,72.94 -88.49,44.13 -15.32,-18.68 -10.22,-30.55 27.21,-57.69 54.49,-39.01 73.21,-35.67 61.28,13.56zm-3706.61 -18.66c-10.22,18.66 15.32,39.01 32.35,23.74 26.92,-26.87 -4.47,-58.5 -32.35,-23.74zm-183.78 152.7l-28.92 49.23 57.87 35.63c62.97,39.01 102.12,45.82 91.89,15.27 -5.1,-11.89 -32.33,-27.14 -61.28,-33.96 -61.28,-16.97 -61.28,-18.66 -35.72,-66.17 16.99,-33.93 18.7,-33.93 78.29,1.71 78.29,45.8 93.61,32.22 17.01,-15.27 -74.88,-45.8 -83.39,-45.8 -119.15,13.56l0.01 0zm3967.04 71.27c-71.5,37.34 -86.8,72.94 -23.85,56 78.18,-19.45 20.78,63.2 103.81,23.76 51.08,-22.07 52.77,-32.24 13.63,-78.04l-30.64 -35.63 -62.97 33.93 0.02 -0.02zm85.08 37.34c3.41,16.94 -5.1,28.86 -18.7,28.86 -27.23,0 -51.06,-40.75 -32.33,-57.71 17.01,-16.97 45.94,-1.69 51.04,28.86l-0.01 -0.01zm-4115.1 1.69c0,18.66 137.83,79.76 156.58,67.87 20.42,-11.87 -15.32,-39.03 -68.07,-49.23 -15.32,-3.38 -42.53,-10.18 -57.85,-16.97 -17.03,-6.79 -30.64,-6.79 -30.64,-1.69l-0.02 0.02zm-32.3 88.24c-25.54,56.02 -25.54,52.61 32.33,83.16 68.07,35.6 100.4,32.24 117.41,-13.58 18.73,-44.13 11.91,-52.61 -68.07,-86.55 -59.56,-25.45 -61.28,-25.45 -81.67,16.97zm107.19 16.97c30.64,11.89 35.76,49.23 11.94,66.2 -18.73,10.18 -103.83,-25.45 -103.83,-44.13 0,-11.87 27.23,-27.14 54.46,-30.55 5.1,-1.69 22.11,3.41 37.43,8.48zm4014.67 -15.25c-56.16,28.83 -73.19,76.35 -35.72,100.11 11.89,8.46 15.32,3.38 8.51,-15.27 -11.91,-32.24 27.21,-50.92 56.16,-23.78 17.01,15.27 18.73,11.89 8.51,-18.66 -12.37,-40.13 24.52,-52.19 44.09,-20.82l0 -39.02c-5.54,-6.26 -10.94,-10.16 -15.17,-9.74 -6.81,0 -37.45,13.56 -66.4,27.16l0.02 0.02zm-4174.66 132.34c-10.22,25.47 -13.6,50.92 -8.48,59.38 15.3,23.78 129.32,56 144.64,40.72 23.83,-27.14 37.43,-91.62 18.73,-91.62 -10.22,0 -18.73,11.89 -18.73,25.45 0,16.99 -18.7,25.45 -59.54,25.45 -47.65,0 -59.56,-6.77 -59.56,-32.24 0,-18.66 8.51,-35.63 20.44,-39.01 15.32,-5.1 15.32,-10.2 0,-20.35 -13.65,-6.79 -27.25,3.41 -37.45,32.24l-0.05 -0.02zm4224.02 -13.55c-52.75,18.66 -71.48,32.24 -64.66,50.9 5.1,13.58 10.22,32.24 10.22,40.72 0,20.26 41.38,22.97 28.95,-10.2 -13.65,-32.24 22.11,-52.59 40.84,-23.74 10.22,16.97 15.32,13.56 15.32,-15.27 0,-5.48 0.54,-10.28 1.52,-14.44l0 -37.84c-10.81,3.02 -21.55,6.32 -32.19,9.87zm-4271.65 156.12c-27.21,74.66 -25.54,103.51 3.38,64.46 18.73,-23.74 30.64,-27.14 69.76,-11.87 57.87,22.07 117.46,8.51 76.62,-16.97 -13.65,-10.18 -45.98,-16.97 -71.5,-16.97 -34.05,0 -45.96,-10.18 -51.08,-39.03 -5.1,-32.24 -8.48,-30.55 -27.21,20.37l0.03 0.01zm4298.89 -28.85c-56.16,20.37 -62.97,52.59 -10.22,44.11 5.54,-0.68 10.6,-0.71 15.17,-0.21l0 -45.71 -4.95 1.8 0 0.01zm4.95 111.57c-9.07,4.16 -48.28,19.08 -15.18,19.08 4.44,0.2 9.57,-0.33 15.18,-1.45l0 -17.63zm-4274.89 81.87c74.86,23.76 112.31,18.66 95.28,-11.87 -15.77,-19.7 -138.21,-12.59 -170.16,-11.89l74.88 23.78 0 -0.02zm-80 86.55c3.41,39.01 15.32,49.21 71.48,59.38 78.29,16.97 78.29,15.27 83.39,-47.52 3.41,-47.54 0,-49.23 -78.27,-54.31 -81.72,-5.1 -81.72,-5.1 -76.6,42.44l0 0.01zm64.66 15.25c0,27.14 -27.23,32.24 -42.53,6.79 -13.6,-22.04 6.79,-54.28 27.23,-42.42 8.51,6.79 15.3,22.07 15.3,35.65l0 -0.02zm68.09 -18.66c0,43.32 -81.94,25.52 -39.14,-13.58 18.73,-20.37 39.14,-13.56 39.14,13.58zm-170.18 279.97c0,44.11 6.81,50.92 44.27,50.92 30.62,0 47.63,-10.2 52.75,-33.93 11.91,-47.54 49.37,-32.26 42.55,16.97 -3.41,23.76 0,33.93 11.89,27.14 10.22,-6.79 18.73,-35.63 18.73,-62.79 0,-45.85 -5.12,-50.92 -45.96,-45.82 -34.05,3.41 -49.37,15.27 -52.75,42.44 -3.41,22.07 -17.03,39.03 -32.33,39.03 -18.73,0 -23.83,-11.89 -18.73,-42.44 12.14,-56.52 -20.42,-58.57 -20.42,8.51l0 -0.03zm136.13 125.61c0,11.87 -32.33,30.55 -71.48,40.7l-73.17 16.97 85.08 -1.69c74.86,-3.38 85.1,-8.48 90.2,-42.44 8.57,-51.31 -30.64,-43.32 -30.64,-13.56l0.01 0.02zm-85.05 110.28c-44.27,11.87 -59.56,47.54 -37.48,81.47 17.03,27.14 142.97,35.63 151.48,8.46 5.1,-11.87 -6.81,-20.37 -27.23,-20.37 -51.06,0 -47.65,-62.79 3.41,-72.94 34.05,-6.79 34.05,-6.79 -5.1,-8.46 -23.83,0 -61.28,5.1 -85.08,11.87l0 -0.03zm25.51 52.61c13.24,22.02 -42.55,22.16 -42.55,0 0,-25.54 32.99,-19.02 42.55,0zm-57.87 128.97c1.69,16.99 6.79,50.9 13.6,74.66 11.94,40.72 11.94,40.72 22.13,5.1 6.81,-27.19 25.52,-37.34 66.35,-42.44 56.18,-5.08 93.61,-47.49 42.57,-47.49 -15.32,0 -42.57,10.18 -62.97,20.35 -28.95,18.68 -37.43,16.97 -59.56,-10.18 -23.83,-33.93 -23.83,-33.93 -22.11,0l-0.01 0zm168.49 139.14c0,42.44 -17.03,47.52 -47.65,16.99 -15.3,-15.27 -20.42,-13.58 -20.42,6.79 0,45.81 -32.33,52.57 -49.37,10.18l-17.01 -39.01 0 39.01c-1.69,47.5 28.92,61.08 102.12,40.7 59.56,-15.23 85.08,-59.34 51.06,-93.3 -13.63,-13.58 -18.73,-8.51 -18.73,18.66l0 -0.02zm-32.33 112c-32.35,11.87 -62.97,30.55 -66.38,40.72 -6.81,22.07 28.92,139.16 42.53,139.16 40.84,0 141.26,-44.13 141.26,-61.1 0,-25.45 -35.72,-16.99 -95.28,22.07 -32.33,20.35 -37.45,20.35 -45.98,-1.69 -11.89,-30.57 -5.1,-35.65 69.78,-52.61 69.92,-12.32 76.78,-47.06 -6.81,-22.04 -78.27,20.35 -122.53,-10.2 -51.06,-37.34 25.54,-8.48 52.75,-16.99 61.28,-16.99 8.51,0 20.42,-8.46 25.54,-16.99 13.6,-22.04 -1.69,-20.35 -74.88,6.81zm151.46 315.62c-13.6,8.48 -42.55,16.97 -62.97,16.97 -20.44,0 -42.55,8.51 -49.37,18.68 -6.79,13.56 0,15.27 25.54,6.79 40.84,-11.87 49.34,20.37 15.3,57.69 -18.7,18.68 -16.99,22.09 8.53,11.89 17.01,-5.1 35.72,-10.2 39.14,-10.2 3.41,0 6.79,-11.87 6.79,-25.45 0,-35.51 68.09,-52.14 68.09,-76.35 0,-22.07 -18.7,-20.35 -51.06,0l0.01 -0.02zm3934.69 18.65c7.96,25.45 130.95,76.21 154.82,67.17l0 -17.28c-1.49,-0.43 -3.18,-0.65 -5.08,-0.65 -11.91,0 -39.14,-15.25 -62.99,-33.93 -45.94,-35.63 -96.99,-45.82 -86.77,-15.27l0.02 -0.04zm-3929.57 112c-44.24,40.72 -49.37,52.59 -34.02,84.83 20.4,47.52 44.22,49.21 112.31,8.46 57.85,-32.24 76.58,-84.83 20.4,-54.28 -44.24,22.04 -47.63,22.04 -59.54,-10.2 -6.81,-16.97 1.69,-37.32 18.7,-50.9 17.03,-11.89 22.13,-23.78 11.91,-23.78 -10.22,0 -40.84,20.37 -69.78,45.85l0.02 0.02zm34.05 64.48c13.6,32.24 -22.13,52.61 -40.84,23.78 -22.13,-33.93 -18.7,-49.23 8.51,-49.23 13.63,0 27.23,11.89 32.33,25.45zm3827.47 -56c5.1,11.89 30.64,28.86 61.28,37.34 32.33,10.18 54.46,28.86 57.87,50.9 3.38,25.47 11.91,18.68 34.02,-28.86 28.92,-61.1 28.92,-62.79 -1.69,-42.42 -23.85,15.25 -39.14,13.56 -71.48,-8.51 -47.65,-33.91 -88.51,-37.34 -80,-8.48l0 0.03zm-44.24 79.76c-5.12,8.48 1.69,23.76 15.32,35.63 37.43,32.24 11.91,69.58 -40.84,57.69 -42.55,-10.18 -42.55,-10.18 -10.22,13.6 64.66,47.49 122.53,50.9 151.46,10.18 15.32,-22.07 20.44,-44.11 10.22,-54.28 -27.23,-33.93 -117.43,-78.06 -125.94,-62.79l0 -0.03zm102.09 101.82c-18.14,29.38 -97.44,27.55 -40.84,-28.86 23.83,-23.78 57.85,0 40.84,28.86zm-3839.36 -49.2c-44.24,44.13 -49.37,56 -34.05,86.52 13.63,23.78 28.95,30.57 47.65,23.78 15.32,-6.79 49.34,-20.37 76.58,-28.86 56.16,-20.35 61.28,-55.98 5.1,-40.72 -52.75,13.6 -74.88,-35.63 -32.33,-67.87 17.01,-13.58 22.13,-22.07 10.22,-23.76 -11.91,-0.02 -44.24,23.76 -73.19,50.9l0.02 0.01zm34.07 59.36c0,43.27 -81.94,25.54 -39.17,-13.56 18.73,-20.37 39.17,-13.58 39.17,13.56zm91.87 91.64c-39.14,42.42 -52.75,47.52 -73.19,30.55 -20.42,-16.94 -22.13,-15.25 -5.1,15.27 10.22,18.68 30.62,45.82 45.94,57.69 22.11,18.68 23.8,16.97 15.32,-6.79 -8.51,-20.35 5.1,-44.13 44.24,-76.35 81.31,-65.66 30.75,-82.04 -27.23,-20.37l0.02 0zm3499.01 -39.01c0,19.81 119.13,136.82 119.13,111.97 0,-10.2 -8.51,-23.78 -17.01,-28.86 -30.64,-18.66 1.71,-44.13 39.14,-32.24 28.92,8.46 32.33,5.1 18.7,-10.2 -10.22,-10.18 -37.43,-22.07 -59.56,-25.45 -22.11,-1.69 -54.44,-10.18 -69.76,-16.97 -4.9,-1.96 -30.62,-9.36 -30.62,1.71l-0.02 0.04zm-78.31 93.34c-32.33,35.65 -32.33,35.65 27.23,84.86 69.78,59.38 71.48,59.38 112.34,13.56 32.33,-35.63 32.33,-35.63 -27.23,-84.83 -69.76,-59.38 -71.48,-59.38 -112.34,-13.58l0 -0.01zm98.73 27.14c40.86,37.34 39.14,49.23 -11.91,47.52 -47.65,0 -85.08,-32.24 -69.76,-57.69 16.99,-27.14 45.94,-23.76 81.67,10.18l0 -0.01zm-3391.78 -5.07c19.47,23.58 -179.75,248.97 -1.67,95.03 49.34,-40.72 54.44,-52.59 39.14,-83.14 -11.91,-20.37 -28.95,-35.65 -39.14,-35.65 -11.94,0 -11.94,6.79 1.67,23.78l0 -0.02zm3207.97 81.45c-30.62,35.65 -30.62,35.65 0,25.47 40.86,-15.27 78.29,15.25 78.29,66.17 0,49.23 18.7,50.92 59.54,6.79 32.33,-35.65 11.91,-47.52 -22.11,-13.58 -15.34,15.27 -20.44,8.48 -20.44,-30.55 0,-47.49 -25.52,-91.65 -51.06,-91.65 -6.79,0.02 -25.52,16.99 -44.24,37.34l0.02 0.01zm-3189.24 39l-57.87 59.41 91.92 91.65 57.85 -56c34.05,-32.24 54.46,-66.17 49.34,-74.68 -6.81,-10.18 -32.33,6.79 -59.54,39.01 -44.27,54.31 -49.34,56 -76.58,28.86 -27.21,-27.14 -25.52,-30.55 20.42,-79.73 27.23,-27.16 44.27,-54.33 40.86,-59.41 -5.1,-3.38 -35.76,18.68 -66.38,50.9l-0.02 -0.01zm112.31 122.2l-51.08 59.38 42.57 30.55c40.84,32.24 40.84,32.24 88.49,-11.87 54.49,-52.59 57.87,-74.66 15.32,-112.02 -39.14,-35.63 -37.43,-37.34 -95.28,33.93l-0.02 0.03zm100.4 -10.15c11.91,16.97 -52.75,100.13 -76.6,100.13 -13.6,0 -8.51,-74.68 8.53,-100.13 13.58,-23.76 54.44,-23.76 68.07,0zm17.01 98.37l-45.94 67.89c22.67,20.19 92.86,86.55 117.41,86.55 25.54,0 107.24,-103.51 95.3,-123.89 -10.22,-16.97 -56.18,20.37 -56.18,47.52 0,32.26 -45.94,64.48 -59.56,44.13 -5.1,-10.2 10.22,-45.82 35.74,-78.06 23.83,-32.24 37.45,-59.38 28.95,-59.38 -8.53,0 -32.35,22.07 -52.75,50.92 -39.14,50.92 -71.48,66.17 -71.48,33.93 0,-26.6 78.65,-113.33 64.66,-127.27 -5.12,-5.1 -28.95,22.07 -56.18,57.69l0.03 -0.03zm2741.66 -52.57c-12.27,20.42 84.79,124.11 103.81,145.93l93.61 -61.1 -35.76 -35.65c-68.07,-72.15 -39.89,39.03 -114.03,-30.55 -20.42,-18.66 -40.84,-27.12 -47.65,-18.66l0.02 0.03zm139.55 100.13c-13.6,16.99 -23.83,18.68 -42.53,1.69 -22.11,-16.97 -20.44,-23.76 5.1,-42.42 37.45,-27.14 66.38,6.79 37.45,40.72l-0.02 0.01zm-241.66 -15.3c-13.6,23.76 68.07,139.16 100.4,139.16 10.22,0 32.33,-13.56 47.65,-30.55 22.11,-23.78 22.11,-33.93 3.38,-59.38 -18.73,-25.45 -28.95,-27.14 -56.16,-13.56 -27.23,15.25 -39.14,11.87 -57.87,-18.68 -16.99,-25.45 -28.95,-30.55 -37.43,-16.97l0.03 -0.02zm132.73 69.58c5.12,8.48 -1.69,23.76 -13.6,33.93 -27.23,22.07 -54.44,-3.38 -35.74,-32.24 13.63,-20.37 37.45,-22.07 49.34,-1.69zm-262.08 10.18c0,5.08 18.75,39.01 42.57,76.35 47.65,74.68 74.88,83.16 115.72,37.34 34.05,-37.34 1.71,-91.65 -49.37,-78.06 -20.4,5.1 -44.24,-1.69 -56.16,-16.99 -22.11,-25.45 -52.77,-37.32 -52.77,-18.66l0.01 0.02zm153.2 74.68c0,8.46 -10.22,23.74 -23.83,33.93 -27.21,22.04 -54.46,-3.41 -35.74,-32.24 13.6,-20.37 59.56,-22.09 59.56,-1.69l0.01 0zm-2367.27 -20.38c-10.22,25.45 -25.52,61.1 -34.02,76.35 -10.22,22.07 -6.81,33.93 17.01,47.54 51.06,27.14 61.26,22.04 91.89,-44.13 32.33,-64.48 28.95,-81.45 -23.85,-108.59 -27.21,-15.27 -35.74,-11.87 -51.06,28.83l0.03 0zm57.87 -1.69c17.01,18.66 -6.81,55.98 -30.64,47.52 -34.95,-13.09 -4.2,-82.26 30.64,-47.52zm-15.3 100.13c-13.13,34.88 -82.51,4.22 -47.65,-30.53 18.73,-16.99 56.16,6.79 47.65,30.53zm85.04 -30.57c-5.1,16.97 -17.01,47.52 -25.54,67.89 -8.51,22.04 -8.51,39.03 0,39.03 8.53,0 23.83,-23.76 35.74,-50.92 17.03,-40.72 28.92,-49.23 56.18,-40.72 23.8,6.77 30.64,3.38 25.54,-11.89 -11.94,-37.32 -80,-39.01 -91.92,-3.38l0 -0.01zm1921.38 20.4c0,32.24 8.53,45.8 22.13,40.72 35.74,-13.58 45.96,30.55 13.6,55.98 -30.64,25.47 -30.64,25.47 -1.69,16.99 17.01,-5.08 35.74,-10.18 39.14,-10.18 15.32,0 5.1,-56 -18.7,-101.8 -34.05,-64.5 -54.49,-64.5 -54.49,-1.69l0.01 -0.02zm-1809.04 25.45c-44.22,117.1 -42.53,125.58 32.33,147.62 39.14,11.89 73.19,16.99 78.29,13.6 23.83,-23.78 57.87,-134.06 42.55,-142.57 -17.03,-10.15 -56.18,52.61 -44.24,72.94 13.6,22.07 -18.73,59.41 -39.14,47.52 -13.63,-8.46 -10.22,-30.55 6.81,-72.92 13.6,-33.96 22.11,-64.5 16.99,-69.58 -3.41,-5.1 -20.44,18.68 -34.05,52.61 -13.63,35.65 -37.43,62.79 -51.06,62.79 -20.44,0 -20.44,-8.48 1.69,-71.27 27.21,-76.37 18.73,-113.71 -10.22,-40.75l0.05 0.01zm1696.74 -28.86c-11.91,20.4 16.99,89.93 39.14,89.93 8.51,0 16.99,11.87 16.99,25.47 0,30.48 44.85,49.52 8.53,-39.03 -30.64,-71.25 -52.75,-96.72 -64.66,-76.37zm-62.97 54.31c0,16.99 11.91,40.75 25.52,52.61 35.76,28.86 32.33,49.23 -11.91,66.17 -34.05,11.87 -42.53,6.79 -68.07,-56 -32.33,-78.04 -40.84,-45.8 -11.91,39.03 17.01,47.49 25.54,54.28 64.66,44.11 68.07,-16.97 78.29,-33.96 54.46,-110.31 -20.44,-69.58 -52.77,-91.65 -52.77,-35.63l0.02 0.02zm-187.21 35.62c-15.32,9.4 17.03,142.55 17.03,151 0,18.68 64.66,3.41 78.27,-16.97 13.63,-22.07 -30.59,-151.03 -51.04,-151.03 -10.2,0 -30.62,8.46 -44.24,16.94l-0.02 0.06zm-990.5 44.13c-18.73,28.86 -10.22,149.31 10.22,162.9 10.22,6.79 35.74,13.56 54.46,13.56 28.92,0 39.14,-13.56 47.65,-71.27 11.91,-74.66 -11.89,-127.25 -32.33,-66.17 -15.32,50.92 -56.18,44.11 -62.97,-11.89 -3.43,-25.43 -10.22,-37.32 -17.03,-27.12l0 -0.01zm80.01 108.64c5.1,8.46 6.79,23.74 0,33.96 -13.65,22.02 -59.56,1.69 -59.56,-27.19 0,-27.14 44.22,-32.24 59.56,-6.77zm621.17 -74.68c0,23.74 5.1,23.74 25.52,6.79 15.32,-11.87 28.92,-18.66 30.64,-15.25l28.95 54.28c20.42,42.44 20.42,50.92 0,64.5 -13.63,8.48 -35.74,11.87 -45.94,6.79 -38.33,-10.94 -31.11,47.99 52.75,15.25 28.9,-10.2 34.02,-56 17.03,-122.2 -13.65,-45.8 -108.93,-56 -108.93,-10.18l-0.02 0.02zm-522.46 1.69c34.02,8.46 39.12,49.18 8.48,61.1 -17.01,6.79 -17.01,10.18 0,10.18 10.22,1.69 20.42,16.99 20.42,33.93 0,25.45 -8.51,30.55 -37.43,23.76 -30.64,-8.48 -34.05,-5.1 -20.44,11.87 11.94,10.2 34.05,16.99 51.06,13.6 25.54,-3.41 34.05,-23.78 37.48,-86.57 5.1,-78.04 3.38,-79.73 -42.57,-78.04 -28.92,1.67 -35.76,5.08 -16.99,10.18l-0.01 -0.01zm389.69 67.87c5.12,71.3 10.22,81.47 45.96,86.57 57.87,8.46 73.19,-15.27 59.54,-95.03 -10.22,-64.48 -15.32,-71.25 -61.23,-71.25 -49.37,0 -49.37,1.69 -44.27,79.73l0 -0.02zm81.69 -3.41c0,56 -3.41,59.41 -34.02,42.44 -51.08,-27.16 -44.27,-101.82 11.91,-101.82 13.63,0 22.11,22.07 22.11,59.38zm-306.3 -25.45c0,22.04 -11.91,33.93 -34.05,33.93 -25.52,0 -34.02,11.87 -34.02,44.11 0,39.01 5.1,42.42 56.16,37.34 51.06,-5.1 54.46,-10.2 59.54,-78.06 3.43,-56 0,-71.3 -20.42,-71.3 -17.58,0 -27.21,18.32 -27.21,33.98zm17.02 76.35c0,33.28 -68.09,33.28 -68.09,0 0,-33.26 68.09,-33.28 68.09,0zm136.13 -76.35c0,22.04 -11.91,33.93 -34.05,33.93 -25.54,0 -34.05,11.87 -34.05,42.42 0,35.65 8.53,42.44 51.08,42.44 49.34,0 51.06,-3.41 51.06,-76.37 0,-42.42 -6.81,-76.35 -17.01,-76.35 -8.53,-0.02 -17.03,15.25 -17.03,33.93zm17.06 76.35c0,33.28 -68.07,33.28 -68.07,0 0,-33.28 68.07,-33.26 68.07,0zm-1133.42 -3409.11c-66.38,62.79 -76.6,76.35 -32.33,42.42 119.13,-89.93 170.16,-135.76 151.48,-137.45 -10.22,0 -62.97,42.42 -119.15,95.03zm798.17 390.28c-17.03,6.79 -22.13,88.24 -22.13,324.1l0 312.23 260.36 -5.1c251.9,-5.08 263.82,-6.77 331.86,-52.57 202.52,-134.09 180.41,-434.45 -40.84,-546.45 -54.44,-27.14 -105.5,-33.93 -287.6,-37.34 -120.84,-1.67 -231.44,0.02 -241.66,5.1l0.01 0.03zm500.34 91.64c96.99,42.44 141.24,117.1 141.24,235.88 0,84.86 -5.1,96.72 -74.88,164.59l-73.19 74.66 -148.05 0c-95.32,0 -144.69,-6.79 -137.85,-16.97 5.1,-10.2 51.06,-16.99 100.4,-16.99 103.83,0 163.39,-35.63 197.42,-118.79 11.91,-27.14 32.33,-50.9 44.27,-50.9 52.75,0 23.83,-86.57 -59.56,-171.4 -78.29,-83.14 -86.8,-86.55 -194.01,-95.03 -112.36,-10.18 -233.15,3.38 -233.15,25.45 0,6.79 76.58,8.48 170.16,6.79 161.68,-6.79 170.18,-5.1 212.74,37.34 47.65,47.52 54.49,78.06 17.03,78.06 -15.3,0 -25.54,15.25 -25.54,42.42 0,42.44 -1.71,42.44 -165.09,45.82l-166.78 1.69 187.2 11.87c103.81,6.79 188.91,13.58 192.3,15.27 20.44,10.18 -6.79,74.66 -49.34,110.28 -76.6,66.17 -253.57,57.71 -253.57,-10.18 0,-6.79 57.87,-13.58 127.63,-13.58 114.03,0 127.63,-3.38 127.63,-32.24 0,-27.14 -18.73,-32.24 -156.58,-42.42 -86.8,-6.79 -171.9,-15.27 -187.2,-20.37 -17.01,-5.1 -30.64,-1.69 -30.64,8.51 0,10.18 34.05,18.66 76.58,18.66 42.55,0 76.62,6.79 76.62,16.97 0,16.97 -57.87,25.45 -124.27,20.35 -46.41,-4.22 -18.25,41.13 3.43,33.93 25.43,-4.22 25.99,30.57 -6.81,30.57 -27.23,0 -35.76,27.12 -10.22,37.32 8.51,1.69 5.1,15.27 -8.53,27.14 -20.42,18.68 -23.85,-15.27 -23.85,-234.17l0 -254.54 192.34 0.02c151.46,0 205.9,6.79 262.08,33.93l0.04 0.06zm-243.4 313.93c-6.79,13.58 -13.6,25.45 -17.01,25.45 -7.33,0 -13.74,-50.92 10.22,-50.92 8.48,0 11.91,11.89 6.79,25.45l0 0.02zm-91.9 59.41c0,23.1 -34.02,21.05 -34.02,0 0,-21.75 34.02,-23.26 34.02,0zm-45.93 -310.55c-28.92,5.1 -37.43,22.07 -42.53,86.55 -5.12,44.13 -6.81,79.78 -6.81,79.78 3.38,3.36 255.4,-17.44 291.05,-20.37l-136.16 -5.1c-115.74,-5.1 -122.56,-6.79 -45.96,-11.87l88.51 -6.79 0 -67.89c0,-64.48 -1.71,-66.17 -54.49,-64.48 -30.62,1.69 -73.17,6.79 -93.59,10.18l-0.02 -0.01zm165.11 56c0,66.17 1.69,67.87 59.54,67.87 57.87,0 59.56,-1.69 59.56,-67.87 0,-66.17 -1.69,-67.87 -59.56,-67.87 -57.85,0 -59.54,1.69 -59.54,67.87zm-294.44 639.72c-15.23,11.35 -11.91,596.9 -11.91,683.83l42.55 10.2c23.8,5.1 168.47,8.48 319.95,3.41 265.51,-5.1 280.83,-8.48 357.38,-52.61 260.39,-152.72 217.86,-541.29 -71.48,-638.03 -61.28,-20.35 -617.79,-27.16 -636.49,-6.79l0 -0.01zm662.06 88.24c163.37,74.66 209.33,298.65 88.51,436.08 -85.1,95.03 -136.16,108.61 -432.29,108.61l-262.08 0 0 -576.93 268.92 0c222.96,0 279.09,5.1 336.96,32.24l-0.02 0zm-588.87 18.68c0,8.48 6.79,16.94 15.32,16.94 21.86,0 45.73,-33.93 11.91,-33.93 -15.32,0 -27.21,6.79 -27.21,16.99l-0.02 0zm272.3 -3.4c178.69,3.41 219.53,10.18 255.27,37.34 34.05,27.14 37.45,33.93 13.63,33.93 -25.54,0 -30.62,15.27 -30.62,76.35 0,56 6.79,76.37 25.52,76.37 18.73,0 25.54,20.35 25.54,84.86 0,96.68 -34.05,130.64 -146.36,145.91l-66.35 10.18 47.65 -44.13c37.43,-33.93 45.94,-57.69 45.94,-120.46 0,-56 6.81,-76.35 25.54,-76.35 18.7,0 25.52,-18.68 25.52,-67.87 0,-49.23 -6.81,-67.89 -25.52,-67.89 -13.65,0 -25.54,-11.87 -25.54,-25.45 0,-20.37 -32.33,-25.45 -187.2,-25.45 -114.03,0 -187.22,6.79 -187.22,16.99 0,10.18 73.19,16.97 183.79,18.66 100.4,1.69 168.49,5.1 153.2,10.2 -40.86,10.18 -44.27,140.83 -5.12,140.83 18.73,0 25.52,20.37 25.52,74.66 0,64.48 -6.79,79.76 -59.54,118.77 -49.37,37.34 -74.88,45.82 -141.26,40.72 -68.07,-5.08 -79.98,-10.18 -85.08,-44.11 -6.81,-40.72 -6.81,-40.72 134.42,-37.34 93.61,1.69 139.57,-20.37 107.21,-50.9 -8.53,-6.79 -83.39,-16.97 -168.47,-22.07 -83.39,-3.38 -132.75,-5.08 -105.52,0 57.87,8.51 62.97,56 5.12,56 -22.13,0 -44.24,11.89 -51.08,25.45 -5.1,13.56 -20.42,25.45 -35.72,25.45 -34.97,0 -32.17,33.93 0,33.93 36.12,0 28.99,36.23 6.79,28.86 -10.22,-1.69 -22.11,5.1 -27.23,15.27 -8.19,24.55 131.06,27.19 131.06,6.79 0,-10.2 62.97,-16.99 151.46,-16.99 83.39,0 171.9,-6.79 194.01,-15.25 74.88,-28.86 114.03,-86.57 114.03,-166.31 0,-54.28 6.79,-72.94 25.52,-72.94 18.73,0 25.54,-20.35 25.54,-76.35 0,-59.41 -6.81,-76.35 -27.23,-76.35 -15.32,0 -49.37,-18.68 -78.29,-42.44 -47.65,-40.72 -57.87,-42.42 -265.51,-39.03l-216.1 3.41 212.71 6.79 -0.03 -0.04zm-163.41 402.17c-6.81,13.56 -13.63,25.45 -17.01,25.45 -7.31,0 -13.74,-50.92 10.22,-50.92 8.53,0 11.91,11.89 6.81,25.47l-0.02 0zm-105.5 -349.58c12.52,40.75 57.44,8.3 13.6,-13.56 -11.91,-3.41 -18.73,3.38 -13.6,13.56zm68.07 103.51c5.12,61.1 1.71,67.89 -32.33,67.89 -22.11,0 -39.12,6.79 -39.12,13.58 0,20.35 311.42,3.41 336.96,-18.68 11.91,-10.2 20.42,-40.75 16.99,-69.58 -5.1,-47.52 -11.89,-52.59 -71.45,-57.69l-64.69 -5.1c2.08,20.58 18.61,137.47 -5.1,137.47 -23.69,0 -7.15,-115.54 -5.12,-135.78l-142.93 0 6.79 67.89zm-62.97 137.47c-16.99,25.45 5.12,42.41 27.25,20.37 27.89,-27.89 -16.09,-42.6 -27.25,-20.37zm-5.1 64.46c12.57,40.72 57.44,8.28 13.6,-13.6 -11.91,-3.35 -18.73,3.41 -13.6,13.6zm1073.72 1966.37c-0.52,-3.09 -1.02,-4.69 -1.56,-4.69 -5.05,0 -11.33,1.8 -16.65,4.69l18.21 0zm1048.61 -682.86c-9.63,1.85 -16.94,5.46 -20.42,11.08l13.04 0 7.4 -11.08 -0.02 0z"/>
 </g>
</svg>
