<?xml version="1.0" encoding="UTF-8"?>
<!DOCTYPE svg PUBLIC "-//W3C//DTD SVG 1.0//EN" "http://www.w3.org/TR/2001/REC-SVG-20010904/DTD/svg10.dtd">
<!-- Creator: CorelDRAW -->
<svg xmlns="http://www.w3.org/2000/svg" xml:space="preserve" width="84mm" height="53mm" version="1.0" style="shape-rendering:geometricPrecision; text-rendering:geometricPrecision; image-rendering:optimizeQuality; fill-rule:evenodd; clip-rule:evenodd"
viewBox="0 0 8400 5300"
 xmlns:xlink="http://www.w3.org/1999/xlink"
 xmlns:xodm="http://www.corel.com/coreldraw/odm/2003">
 <defs>
  <style type="text/css">
   <![CDATA[
    .fil0 {fill:black;fill-rule:nonzero}
   ]]>
  </style>
 </defs>
 <g id="Слой_x0020_1">
  <metadata id="CorelCorpID_0Corel-Layer"/>
  <g id="_105553260672704">
   <g>
    <path class="fil0" d="M8335.62 3011.02c-425.62,0 -847.69,0 -1273.31,0 -14.18,0 -21.29,3.56 -31.92,14.19 -28.38,31.91 -60.3,63.85 -92.21,95.76 -7.1,7.1 -17.74,10.65 -24.83,10.65 -131.24,0 -262.46,0 -393.7,0 -7.09,0 -17.74,-7.09 -24.83,-14.18 -24.83,-31.92 -46.11,-63.85 -70.94,-92.22 -7.09,-7.09 -17.74,-14.18 -28.38,-14.18 -95.77,0 -187.98,0 -283.75,0 -14.18,0 -21.29,3.55 -28.38,17.73 -21.29,46.12 -102.86,42.56 -127.69,7.09 -24.82,-35.47 -3.55,-85.12 42.56,-92.21 35.48,-3.55 67.39,3.55 88.68,39.01 3.55,7.09 14.18,10.64 24.83,10.64 99.31,0 198.63,0 297.93,0 14.19,0 24.83,3.55 31.92,17.74 21.29,28.38 42.56,53.2 60.3,81.57 10.64,17.73 21.29,21.29 39.01,21.29 117.04,0 234.1,0 351.14,0 17.73,0 31.92,-7.09 42.56,-17.74 24.83,-28.38 53.21,-53.2 78.03,-85.12 10.65,-14.19 21.29,-14.19 39.01,-14.19 425.62,0 854.8,0 1280.42,0 3.55,3.54 3.55,7.08 3.55,14.17zm-2316.09 28.38c24.83,0 46.12,-17.73 46.12,-39.01 0,-17.73 -21.29,-39.01 -42.57,-39.01 -21.28,0 -46.11,17.74 -49.65,39.01 -3.55,21.28 21.28,39.01 46.1,39.01z"/>
    <path class="fil0" d="M8335.62 2333.58c-78.03,0 -156.07,0 -230.55,0 -312.11,0 -620.69,0 -932.81,0 -17.73,0 -31.92,-7.09 -42.56,-21.28 -42.56,-60.3 -88.68,-117.05 -134.78,-177.34 -7.09,-7.1 -21.29,-14.19 -31.92,-14.19 -109.95,0 -223.45,0 -333.4,0 -28.38,0 -49.66,7.09 -67.39,28.38 -31.92,35.47 -81.57,35.47 -113.5,0 -10.65,-10.64 -10.65,-39.01 -3.56,-60.3 7.09,-28.38 28.38,-39.01 56.75,-42.56 35.47,-3.55 63.85,3.55 81.57,39.01 3.55,7.09 17.74,7.09 24.83,10.65 124.13,0 248.28,0 368.87,0 17.74,0 28.38,7.09 39.01,17.73 46.12,60.3 88.68,117.04 134.78,177.34 10.64,14.18 21.29,17.74 35.47,17.74 383.06,0 766.12,0 1149.18,0 0.01,10.64 0.01,17.73 0.01,24.82zm-1823.08 -187.98c21.29,0 46.12,-14.18 46.12,-31.92 0,-17.73 -21.29,-39.01 -42.57,-39.01 -17.73,0 -46.11,24.83 -46.11,39.01 0,14.18 21.27,28.37 42.56,31.92z"/>
    <path class="fil0" d="M8335.62 2574.77c-319.22,0 -638.43,0 -954.1,0 -297.94,0 -599.42,0 -897.36,0 -21.28,0 -35.47,0 -49.65,21.29 -24.83,42.56 -106.41,35.47 -127.69,-7.09 -10.64,-21.29 -10.64,-42.56 3.56,-60.3 17.73,-21.29 42.56,-31.92 70.94,-28.38 24.82,3.55 46.11,14.18 60.29,39.01 3.56,3.55 10.65,7.09 17.74,10.65 3.55,0 7.09,0 10.64,0 624.25,0 1244.95,0 1869.18,0 -3.55,7.09 -3.55,14.18 -3.55,24.82zm-1964.96 21.28c24.83,0 46.11,-14.19 42.56,-31.92 0,-21.29 -21.29,-39.01 -46.11,-39.01 -21.29,0 -42.56,21.29 -42.56,39.01 3.55,21.27 21.28,31.92 46.11,31.92z"/>
    <path class="fil0" d="M8335.62 2734.38c-368.88,0 -741.29,0 -1110.17,0 -145.42,0 -287.29,0 -432.71,0 -17.73,0 -28.38,3.55 -42.56,14.18 -31.92,24.83 -63.85,49.65 -92.22,78.03 -10.64,7.09 -17.73,14.19 -14.18,31.92 7.09,35.47 -10.64,56.75 -46.11,67.39 -35.47,10.64 -78.04,-3.55 -88.68,-31.92 -17.74,-46.11 7.09,-85.12 63.85,-85.12 14.18,0 24.83,7.09 39.01,7.09 10.64,0 21.29,-3.55 28.38,-7.09 35.47,-24.83 67.39,-53.21 99.31,-81.57 14.18,-10.65 24.82,-14.19 42.56,-14.19 517.83,0 1039.22,0 1557.06,0 -3.54,7.09 -3.54,14.19 -3.54,21.28zm-1808.89 134.77c0,17.74 24.82,39.01 46.11,39.01 21.29,0 49.65,-21.28 46.11,-39.01 0,-17.73 -28.38,-39.01 -49.65,-39.01 -21.29,0 -42.57,21.28 -42.57,39.01z"/>
    <path class="fil0" d="M8335.62 432.47c-454,365.33 -907.99,730.65 -1358.43,1095.97 21.28,46.12 0,78.03 -31.92,88.68 -46.12,14.18 -88.68,-3.55 -102.86,-39.01 -7.09,-21.29 3.55,-49.65 24.83,-60.3 24.82,-14.18 53.2,-17.73 81.57,-3.55 7.09,3.55 17.73,3.55 21.28,0 53.21,-42.56 102.86,-81.57 156.07,-124.13 92.22,-74.48 180.89,-145.43 273.11,-219.91 102.86,-85.12 205.72,-170.24 312.12,-251.82 95.76,-78.03 195.07,-156.06 290.84,-234.09 88.68,-70.95 173.8,-141.87 262.46,-212.82 24.83,-17.73 49.66,-39 74.48,-56.74 -3.55,3.54 -3.55,10.63 -3.55,17.72zm-1422.28 1092.43c-24.83,0 -42.57,17.74 -42.57,39.01 0,21.29 21.29,39.01 42.57,39.01 24.82,0 46.11,-17.73 46.11,-39.01 -3.55,-24.82 -21.29,-39.01 -46.11,-39.01z"/>
    <path class="fil0" d="M8335.62 2471.91c-464.63,0 -932.81,0 -1397.46,0 -46.11,0 -46.11,0 -46.11,-46.11 0,-28.38 0,-60.3 0,-88.68 0,-17.73 -7.09,-28.38 -21.29,-39.01 -31.92,-17.73 -42.56,-39.01 -35.47,-63.85 7.09,-28.38 39.01,-53.2 70.94,-49.65 67.39,3.55 92.22,56.74 60.3,102.86 -3.55,7.09 -14.18,14.18 -21.29,14.18 -17.73,3.55 -24.83,14.18 -24.83,28.38 0,39.01 0,78.03 0,124.13 471.74,0 943.46,0 1415.2,0 0.01,3.56 0.01,10.66 0.01,17.75zm-1429.38 -191.53c28.38,0 46.12,-14.19 46.12,-31.92 0,-17.74 -21.29,-39.01 -42.56,-42.56 -24.83,0 -46.12,17.73 -46.12,42.56 0,17.73 21.28,31.92 42.56,31.92z"/>
    <path class="fil0" d="M8335.62 3443.75c-305.03,0 -610.05,0 -915.09,0 -17.74,0 -28.38,7.09 -39.01,17.73 -35.47,39.01 -70.94,74.48 -106.41,113.51 -7.09,7.09 -17.74,10.64 -28.38,10.64 -99.31,0 -195.08,0 -294.38,0 -14.19,0 -35.47,-14.18 -46.12,-24.82 -74.48,-67.39 -145.42,-138.33 -219.9,-205.72 -10.64,-10.65 -21.29,-14.19 -39.01,-14.19 -67.39,0 -138.33,0 -205.72,0 -21.29,53.21 -85.12,67.39 -124.13,35.47 -31.92,-28.38 -24.83,-74.48 14.18,-92.21 42.56,-21.29 95.77,-3.55 109.95,42.56 70.94,0 145.42,0 219.9,0 10.65,0 24.83,3.55 31.92,14.18 78.03,74.48 156.07,148.98 237.64,219.91 7.09,7.09 21.29,14.18 35.47,14.18 88.68,0 177.34,0 269.55,0 10.65,0 28.38,-7.09 35.47,-17.74 35.48,-35.47 70.95,-70.94 102.86,-109.95 10.65,-10.64 21.29,-14.18 39.01,-14.18 308.58,0 617.16,0 925.73,0 -3.53,3.52 -3.53,7.08 -3.53,10.63zm-1964.96 -78.03c28.38,0 46.11,-17.74 46.11,-35.47 0,-17.74 -24.82,-39.01 -46.11,-39.01 -24.83,0 -46.11,17.73 -46.11,39.01 -3.54,17.73 21.28,35.47 46.11,35.47z"/>
    <path class="fil0" d="M8335.62 730.41c-56.74,46.11 -113.5,88.67 -170.25,134.77 -106.41,85.13 -216.36,170.25 -322.76,258.93 -109.95,88.68 -223.45,177.34 -333.4,266.02 -85.13,67.38 -170.25,134.77 -255.38,202.16 -31.92,24.83 -63.85,49.66 -95.77,78.03 -3.55,3.56 -3.55,14.19 -3.55,21.29 7.09,39.01 -3.55,63.85 -42.56,78.04 -35.47,14.18 -78.03,-3.56 -92.22,-35.48 -14.18,-31.91 10.65,-70.94 46.12,-78.03 14.18,-3.55 31.92,-3.55 42.56,0 28.38,14.18 42.56,0 56.75,-14.18 95.76,-78.03 191.53,-152.51 287.29,-230.55 85.12,-67.39 166.69,-134.77 251.82,-202.16 67.39,-53.21 138.33,-109.95 205.72,-163.16 60.29,-49.65 120.59,-99.31 180.89,-145.42 67.39,-53.21 134.78,-106.41 202.16,-159.61 10.65,-10.64 24.83,-17.73 35.48,-28.38 7.1,-0.01 7.1,10.64 7.1,17.73zm-1252.04 939.91c-21.28,0 -46.11,21.29 -46.11,39.01 0,17.74 24.83,39.01 46.11,39.01 24.83,0 46.12,-21.28 46.12,-39.01 -0.01,-21.27 -17.75,-39.01 -46.12,-39.01z"/>
    <path class="fil0" d="M8335.62 3567.88c-312.12,0 -627.79,0 -939.92,0 -17.73,0 -28.38,7.09 -39.01,17.74 -28.38,31.92 -60.3,67.39 -88.67,99.31 -7.1,7.09 -17.74,10.64 -24.83,10.64 -117.04,0 -234.1,0 -354.68,0 -14.18,0 -28.38,-10.64 -39.01,-17.74 -31.92,-24.82 -60.3,-53.2 -92.22,-81.57 -14.18,-10.64 -24.82,-21.29 -46.11,-14.18 -28.38,7.09 -70.94,-17.74 -74.48,-42.56 -7.09,-39.01 10.64,-60.3 53.21,-70.94 31.91,-7.1 56.74,3.55 78.03,28.38 17.73,17.73 14.18,39 -14.18,78.03 39,35.47 81.57,67.39 120.59,102.86 3.55,3.55 10.64,3.55 17.74,3.55 113.5,0 226.99,0 340.49,0 10.65,0 21.29,-7.09 28.38,-14.18 31.92,-31.92 60.3,-63.85 92.22,-95.77 7.09,-7.09 17.73,-10.64 28.38,-10.64 319.22,0 638.43,0 954.1,0 -0.03,-3.57 -0.03,-0.02 -0.03,7.07zm-1631.56 -10.64c28.38,0 49.66,-14.18 49.66,-35.47 0,-21.29 -17.74,-39.01 -46.12,-39.01 -28.38,0 -46.11,14.18 -46.11,35.47 -3.53,24.83 14.21,39.01 42.57,39.01z"/>
    <path class="fil0" d="M8335.62 1038.98c-336.94,266.02 -670.35,532.04 -1007.31,794.5 7.09,39.01 0,60.3 -28.38,74.48 -24.82,14.18 -67.38,10.65 -92.21,-10.64 -17.74,-17.74 -21.29,-39.01 -14.18,-56.75 7.09,-17.73 24.82,-31.92 42.56,-39.01 21.29,-10.64 49.65,-7.09 70.94,7.09 7.09,3.56 17.73,0 24.83,-3.55 53.2,-39.01 102.86,-81.57 156.06,-124.13 74.48,-60.3 148.98,-117.04 223.46,-177.34 74.48,-60.3 148.97,-120.6 223.45,-177.34 70.94,-56.75 145.42,-113.5 216.36,-170.25 63.85,-49.65 124.14,-99.31 187.99,-145.42 -3.57,10.63 -3.57,17.72 -3.57,28.36zm-1078.25 858.34c31.92,0 49.66,-14.18 49.66,-35.47 0,-21.29 -21.29,-35.47 -46.12,-35.47 -31.92,0 -46.11,14.18 -46.11,39.01 0.01,17.75 17.75,31.93 42.57,31.93z"/>
    <path class="fil0" d="M8335.62 3110.34c-351.14,0 -705.82,0 -1056.96,0 -17.74,0 -24.83,3.56 -35.47,17.74 -21.29,39.01 -95.77,42.56 -124.13,7.09 -24.83,-31.92 -14.19,-70.94 24.82,-88.68 42.56,-17.73 88.68,0 106.41,42.57 361.79,0 723.56,0 1081.79,0 3.54,7.09 3.54,14.19 3.54,21.28zm-1156.28 -49.65c-24.83,0 -46.12,21.29 -46.12,42.56 0,17.74 21.29,35.47 46.12,35.47 24.83,0 46.11,-17.73 46.11,-39.01 0,-21.3 -21.27,-39.02 -46.11,-39.02z"/>
    <path class="fil0" d="M8335.62 1344.01c-102.86,78.03 -202.17,159.61 -305.03,237.64 -102.86,78.03 -202.16,159.6 -305.02,237.64 -70.94,53.2 -138.33,109.95 -209.26,163.15 -10.64,7.09 -17.74,14.19 -10.64,31.92 7.09,17.74 -10.65,46.11 -31.92,56.75 -28.38,10.64 -56.75,10.64 -85.13,-3.56 -35.47,-21.28 -35.47,-70.94 0,-92.21 28.38,-17.74 56.75,-17.74 85.13,0 10.64,7.09 17.73,7.09 28.38,0 131.24,-106.41 266.01,-209.26 397.24,-315.67 109.95,-88.68 223.45,-173.8 333.4,-262.47 31.92,-24.82 67.39,-53.2 99.31,-78.03 3.54,10.66 3.54,17.75 3.54,24.84zm-904.45 720.02c24.83,0 49.66,-17.74 49.66,-39.01 0,-21.29 -24.83,-42.56 -46.12,-42.56 -21.29,0 -46.11,21.28 -49.65,39.01 0,21.27 24.82,42.56 46.11,42.56z"/>
    <path class="fil0" d="M8335.62 4415.57c-187.98,0 -379.51,-3.55 -567.49,-3.55 -53.21,0 -106.41,0 -159.6,0 -21.29,0 -35.47,-7.09 -53.21,-17.74 -70.94,-60.29 -145.42,-117.04 -216.36,-177.34 -10.65,-7.09 -17.74,-14.18 -35.47,-7.09 -28.38,10.65 -67.39,0 -81.58,-21.28 -17.73,-21.29 -17.73,-46.12 3.56,-70.95 28.38,-28.37 78.03,-28.37 106.41,0 21.29,17.74 21.29,46.12 0,74.48 56.74,46.12 117.04,95.77 173.8,141.87 10.64,7.1 21.29,14.19 28.38,21.29 31.92,35.47 70.94,39.01 117.04,39.01 223.46,0 443.36,0 663.26,0 3.55,0 10.64,0 14.18,0 7.08,7.12 7.08,14.21 7.08,21.3zm-1053.42 -223.44c24.83,0 49.65,-17.73 49.65,-35.47 0,-21.29 -21.29,-42.56 -46.11,-42.56 -24.83,0 -49.66,17.73 -49.66,39.01 -3.53,21.29 14.2,39.02 46.12,39.02z"/>
    <path class="fil0" d="M8335.62 1918.61c-35.47,24.82 -70.94,46.11 -106.41,70.94 -88.68,60.29 -173.8,120.59 -262.47,180.89 -7.09,7.09 -17.73,7.09 -28.37,7.09 -46.12,0 -92.22,0 -138.33,0 -14.19,0 -24.83,3.55 -31.92,17.74 -14.19,24.82 -39.01,28.38 -60.3,31.91 -28.38,0 -49.65,-10.64 -63.85,-35.47 -17.74,-31.91 10.64,-74.48 53.21,-78.03 35.47,-3.55 60.29,7.09 78.03,39.01 3.55,3.55 10.64,10.64 17.73,10.64 49.66,0 95.77,0 145.43,0 7.09,0 14.18,-3.55 21.28,-7.09 127.69,-85.12 251.82,-173.8 379.51,-258.92 -3.54,3.55 -3.54,14.19 -3.54,21.29zm-627.8 209.25c-28.38,0 -49.65,17.74 -46.12,39.01 0,24.83 17.74,39.01 49.66,39.01 28.38,0 49.65,-17.73 46.11,-42.56 -3.54,-17.72 -24.82,-35.46 -49.65,-35.46z"/>
    <path class="fil0" d="M8335.62 3848.08c-276.66,0 -553.31,0 -829.97,0 0,0 -3.55,0 -3.55,0 -21.29,53.21 -74.48,53.21 -106.41,42.56 -21.29,-7.09 -35.47,-28.37 -35.47,-53.2 0,-21.29 24.82,-46.12 46.11,-53.21 39.01,-10.64 85.13,3.56 99.31,49.66 276.66,0 556.86,0 833.51,0 -3.53,7.1 -3.53,10.64 -3.53,14.19zm-908 31.92c28.38,0 49.65,-17.73 49.65,-39.01 0,-17.73 -24.82,-39.01 -46.11,-39.01 -24.83,0 -49.65,17.74 -49.65,42.56 0.01,17.73 17.74,35.46 46.11,35.46z"/>
    <path class="fil0" d="M8335.62 1748.36c-102.86,74.48 -202.17,148.97 -301.49,223.45 -14.18,10.65 -28.38,17.74 -49.65,17.74 -14.18,0 -28.38,0 -42.56,0 -21.29,0 -42.56,-3.56 -56.75,24.82 -17.73,31.92 -74.48,31.92 -106.41,10.65 -21.29,-14.19 -24.83,-35.47 -21.29,-60.3 3.56,-17.74 35.47,-39.01 53.21,-42.56 35.47,0 67.39,3.55 81.57,39.01 0,3.55 10.64,7.09 14.18,7.09 28.38,0 56.75,3.55 81.58,0 17.73,-3.55 35.47,-21.29 53.2,-31.92 95.77,-70.94 195.08,-141.87 290.84,-212.81 3.57,7.09 3.57,17.74 3.57,24.83zm-510.74 191.52c-24.83,0 -46.12,17.74 -46.12,39.01 0,24.83 17.74,39.01 46.12,39.01 24.82,0 46.11,-17.74 46.11,-39.01 -0.01,-21.27 -21.29,-39.01 -46.11,-39.01z"/>
    <path class="fil0" d="M8335.62 3209.65c-127.69,0 -255.37,0 -383.06,0 -49.65,0 -95.77,0 -141.87,0 -14.18,0 -21.29,3.55 -31.92,17.74 -17.73,31.91 -49.65,35.47 -81.57,31.91 -24.82,-3.55 -46.11,-17.73 -53.2,-42.56 -7.09,-24.82 7.09,-53.2 35.47,-63.85 46.11,-21.28 88.67,0 106.41,39.01 180.89,0 365.32,0 546.21,0 3.53,7.11 3.53,14.2 3.53,17.75zm-617.16 31.92c28.38,0 42.57,-14.18 42.57,-35.47 0,-24.83 -17.74,-39.01 -46.12,-39.01 -21.29,0 -46.11,21.29 -46.11,39.01 0.01,17.73 24.84,35.47 49.66,35.47z"/>
    <path class="fil0" d="M8335.62 3351.52c-173.8,0 -347.59,0 -524.93,0 -14.18,0 -24.82,0 -31.92,17.74 -17.73,31.91 -49.65,35.47 -81.57,31.91 -24.82,-3.55 -46.11,-17.73 -53.2,-42.56 -7.09,-21.29 0,-42.56 24.82,-60.3 35.47,-24.82 88.68,-14.18 106.42,21.29 7.09,14.19 14.18,14.19 28.37,14.19 177.34,0 351.14,0 528.48,0 3.53,7.1 3.53,14.19 3.53,17.73zm-620.7 31.93c21.29,3.55 46.12,-17.73 46.12,-35.47 0,-21.29 -24.83,-39.01 -46.12,-39.01 -21.28,0 -49.65,21.29 -49.65,39.01 3.54,14.18 24.81,35.47 49.65,35.47z"/>
    <path class="fil0" d="M8335.62 3660.1c-205.72,0 -407.89,0 -613.6,0 -14.19,0 -21.29,3.55 -31.92,17.73 -24.83,42.57 -92.22,39.01 -120.6,14.19 -14.18,-14.19 -21.28,-35.47 -14.18,-53.21 10.64,-17.73 24.83,-35.47 42.56,-39.01 39.01,-14.18 67.39,0 92.22,39.01 3.55,7.09 17.73,7.09 24.82,7.09 184.44,0 365.33,0 549.76,0 21.29,0 42.56,0 67.39,0 3.55,3.55 3.55,10.66 3.55,14.2zm-663.26 -7.09c0,-21.29 -21.29,-39.01 -46.11,-39.01 -24.83,0 -46.12,21.29 -46.12,42.56 0,21.29 21.29,35.47 46.12,35.47 28.38,-0.01 46.11,-17.75 46.11,-39.02z"/>
    <path class="fil0" d="M8335.62 4795.09c-85.12,0 -166.7,0 -251.82,0 -24.83,0 -46.11,-7.09 -67.39,-21.29 -74.48,-60.29 -148.97,-117.04 -219.9,-177.34 -10.64,-10.64 -21.29,-10.64 -35.47,-3.55 -24.83,10.65 -46.12,3.55 -67.39,-10.64 -35.47,-24.83 -31.92,-74.48 7.09,-95.77 35.47,-17.74 78.03,-7.09 95.77,17.74 14.18,17.73 17.73,35.47 3.55,56.74 -10.64,14.18 -3.55,17.74 3.55,24.83 74.48,60.29 148.98,120.59 227,177.34 10.64,10.64 28.38,14.18 42.56,14.18 85.12,0 170.25,0 255.37,0 7.08,7.12 7.08,14.21 7.08,17.76zm-588.78 -290.84c-35.47,0 -53.2,10.64 -53.2,35.47 0,21.29 21.28,39.01 49.65,39.01 28.38,0 49.65,-17.74 49.65,-39.01 -3.54,-24.83 -17.73,-35.47 -46.1,-35.47z"/>
    <path class="fil0" d="M8335.62 4114.1c-113.5,0 -223.45,0 -336.94,0 -14.19,0 -24.83,3.55 -35.47,17.73 -24.83,42.57 -99.31,42.57 -124.14,0 -17.73,-28.38 0,-67.38 35.47,-78.03 39.01,-10.64 85.13,3.55 95.77,35.47 3.55,7.09 14.18,10.65 24.83,10.65 102.86,0 209.25,0 312.11,0 7.1,0 17.74,0 24.83,0 3.54,3.53 3.54,7.09 3.54,14.18zm-478.83 -7.09c0,21.29 17.74,39.01 46.12,39.01 24.82,0 49.65,-17.74 49.65,-39.01 0,-24.83 -21.29,-42.56 -46.11,-42.56 -28.38,0 -49.66,17.73 -49.66,42.56z"/>
    <path class="fil0" d="M8335.62 2901.07c-49.65,0 -99.31,0 -148.97,0 -14.19,0 -24.83,3.56 -35.47,17.74 -21.29,35.47 -88.68,42.56 -117.05,14.18 -17.73,-17.73 -21.28,-39.01 -14.18,-56.74 7.09,-21.29 24.83,-35.47 46.11,-39.01 39.01,-7.1 67.39,3.55 92.22,39.01 3.55,7.09 14.18,10.64 21.29,10.64 53.2,0 102.86,0 156.06,0 -0.01,0 -0.01,7.09 -0.01,14.18zm-244.74 -49.65c-24.83,0 -46.12,17.73 -46.12,39.01 0,17.73 21.29,39.01 46.12,39.01 21.29,0 49.65,-21.29 46.11,-39.01 0,-21.28 -24.82,-39.01 -46.11,-39.01z"/>
    <path class="fil0" d="M8335.62 4628.38c-56.74,0 -113.5,0 -170.25,0 -21.29,49.66 -70.94,63.85 -113.5,39.01 -21.29,-10.64 -31.92,-31.92 -28.38,-56.74 3.55,-24.83 21.29,-46.12 42.56,-49.66 42.56,-7.09 74.48,0 95.77,49.66 56.74,0 113.5,0 173.8,0 0,10.64 0,14.19 0,17.73zm-241.19 35.47c24.83,0 49.65,-21.28 46.12,-39.01 0,-21.28 -28.38,-42.56 -49.66,-42.56 -24.83,0 -49.65,21.29 -46.11,42.56 0,21.28 24.82,39.01 49.65,39.01z"/>
    <path class="fil0" d="M8335.62 4245.32c-24.83,0 -42.56,3.56 -56.74,28.38 -21.29,35.47 -99.31,31.92 -120.6,-3.55 -14.18,-21.29 -10.64,-49.65 10.64,-67.39 35.47,-31.92 95.77,-28.38 117.05,14.18 14.18,24.83 35.47,10.65 49.65,17.74 0,3.55 0,7.11 0,10.64zm-113.5 28.38c0,0 0,0 0,0 3.55,0 7.09,0 10.64,0 21.29,0 35.47,-14.18 35.47,-31.91 0,-10.65 -14.18,-24.83 -24.83,-35.48 -17.73,-10.64 -39.01,-10.64 -53.2,3.56 -7.09,7.09 -17.74,24.82 -14.18,31.92 3.55,10.64 17.73,21.28 28.37,28.37 3.54,7.1 10.64,3.54 17.73,3.54z"/>
    <path class="fil0" d="M8335.62 3986.41c-7.09,0 -14.18,0 -21.29,0 -21.29,0 -39.01,0 -53.2,24.83 -21.29,42.56 -99.31,35.47 -124.14,-7.09 -17.73,-31.92 7.09,-74.48 49.66,-81.57 35.47,-7.1 63.85,7.09 81.57,35.47 3.55,7.09 10.64,10.64 17.73,10.64 17.74,0 31.92,0 49.66,0 0.01,7.08 0.01,14.17 0.01,17.72zm-131.24 -46.11c-28.38,0 -49.65,17.73 -49.65,39.01 0,21.29 21.29,39.01 46.11,39.01 28.38,0 53.21,-17.74 53.21,-39.01 -0.01,-17.72 -24.84,-35.46 -49.67,-39.01z"/>
    <path class="fil0" d="M3586.4 2340.67c-3.55,0 -7.09,3.56 -14.18,3.56 -42.56,-7.09 -81.57,-17.74 -113.5,-46.12 -46.12,-39.01 -81.58,-85.12 -95.77,-145.42 -35.47,-141.87 49.65,-290.84 202.16,-315.67 148.98,-24.83 269.56,78.03 290.85,212.81 14.18,95.77 -17.74,173.8 -88.68,234.1 -42.56,35.47 -92.21,60.3 -152.51,63.85 -7.09,-0.01 -17.74,-3.55 -28.37,-7.11z"/>
    <path class="fil0" d="M4466.01 2330.03c134.78,-3.55 255.37,113.5 248.28,258.93 -3.55,134.77 -102.86,230.54 -226.99,248.28 -63.85,10.64 -120.6,-7.1 -166.7,-42.57 -70.94,-49.65 -109.95,-124.13 -106.41,-212.81 0,-141.88 109.95,-255.37 251.82,-251.83z"/>
    <path class="fil0" d="M4714.29 1595.84c0,67.39 -17.73,127.69 -63.85,173.81 -28.38,28.37 -63.85,63.85 -102.86,74.48 -63.85,14.18 -134.78,17.73 -198.63,-17.74 -39.01,-21.29 -67.38,-49.65 -95.76,-85.12 -28.38,-42.57 -42.57,-88.68 -42.57,-141.87 0,-138.33 113.51,-255.38 262.47,-251.82 127.7,-0.02 244.75,106.38 241.2,248.26z"/>
    <path class="fil0" d="M3891.43 2330.03c138.33,0 255.37,113.5 251.82,255.37 -3.55,141.87 -109.95,248.28 -244.73,248.28 -148.97,0 -258.93,-109.95 -255.37,-258.92 0,-134.78 113.5,-248.27 248.28,-244.73z"/>
    <path class="fil0" d="M4746.21 2340.67c-156.07,3.56 -251.82,-120.59 -251.82,-248.28 3.55,-152.51 109.95,-251.82 251.82,-251.82 138.33,0 258.92,109.95 248.28,276.66 -3.54,109.94 -106.4,230.54 -248.28,223.44z"/>
    <path class="fil0" d="M3894.97 1344.01c138.33,0 251.82,113.5 248.28,255.37 -3.55,152.52 -117.04,244.73 -237.64,248.28 -163.16,3.56 -262.46,-109.95 -262.46,-255.37 0,-138.33 109.95,-248.28 251.82,-248.28z"/>
    <path class="fil0" d="M5015.78 1457.51c85.12,-7.09 145.42,67.39 145.42,145.43 0,95.76 -70.94,152.51 -145.42,152.51 -81.57,0 -145.42,-49.65 -145.42,-152.51 -3.56,-85.13 70.92,-152.52 145.42,-145.43z"/>
    <path class="fil0" d="M4317.05 3074.87c0,60.3 -24.83,106.42 -78.03,131.24 -10.65,3.55 -17.74,7.09 -28.38,10.65 -85.13,28.38 -173.8,-46.12 -180.89,-124.14 -7.1,-85.12 46.11,-148.97 120.59,-163.15 74.48,-14.19 152.51,39 166.7,117.04 3.55,7.08 0.01,17.72 0.01,28.36z"/>
    <path class="fil0" d="M3338.12 2723.73c-70.94,7.09 -148.97,-56.74 -145.42,-148.97 3.55,-81.57 63.85,-141.87 145.42,-141.87 88.68,0 148.98,67.39 145.42,152.51 0,78.04 -60.29,145.42 -145.42,138.33z"/>
    <path class="fil0" d="M3323.92 1744.81c-81.57,7.09 -148.97,-70.95 -141.86,-159.61 7.09,-60.3 60.29,-134.78 156.06,-127.69 63.85,3.56 138.33,56.75 131.24,163.16 -3.55,60.3 -67.4,134.78 -145.44,124.14z"/>
    <path class="fil0" d="M4171.63 1258.89c-63.85,7.09 -145.42,-49.66 -145.42,-141.87 0,-81.57 60.29,-141.87 134.77,-148.98 95.77,-7.09 152.52,67.39 156.07,138.33 3.54,88.68 -63.85,156.07 -145.42,152.52z"/>
    <path class="fil0" d="M4884.54 2581.86c-3.55,-81.57 67.39,-141.87 138.33,-145.42 81.57,-3.55 148.97,67.39 148.97,138.33 0,81.57 -60.29,145.42 -131.24,148.98 -88.67,7.07 -163.15,-60.31 -156.06,-141.89z"/>
    <path class="fil0" d="M3515.46 4429.77c0,-109.95 0,-216.36 0,-322.76 0,-7.09 -10.64,-17.74 -17.73,-21.29 -28.38,-14.18 -46.12,-39.01 -42.57,-63.85 3.56,-24.83 31.92,-46.11 60.3,-49.65 31.92,-3.56 60.3,3.55 78.03,35.47 14.19,28.38 0,67.39 -28.38,74.48 -21.28,7.09 -24.82,17.73 -24.82,35.47 0,102.86 0,205.72 0,308.58 0,31.91 0,31.91 -31.92,31.91 -312.12,0 -624.25,0 -936.37,0 -3.55,0 -3.55,0 -10.64,0 0,241.19 0,482.37 0,723.56 -10.64,0 -17.74,0 -24.83,0 0,-248.28 0,-496.56 0,-748.38 329.86,-3.54 652.62,-3.54 978.93,-3.54zm56.75 -397.26c0,-21.28 -24.83,-42.56 -46.12,-42.56 -21.29,0 -42.56,21.29 -42.56,42.56 0,17.74 21.29,35.47 42.56,35.47 24.84,0 46.12,-17.73 46.12,-35.47z"/>
    <path class="fil0" d="M5842.19 5178.15c-7.09,0 -14.18,0 -21.29,0 0,-241.19 0,-482.36 0,-723.55 -10.64,0 -17.73,0 -28.37,0 -308.58,0 -617.16,0 -929.28,3.55 -21.29,0 -24.83,-7.09 -24.83,-28.38 0,-102.86 0,-205.72 0,-308.58 0,-21.29 -3.55,-31.92 -24.82,-39.01 -24.83,-7.09 -35.47,-35.47 -35.47,-56.74 3.55,-24.83 28.38,-49.66 49.65,-49.66 24.83,-3.55 53.21,-3.55 74.48,14.18 35.47,31.92 24.83,81.58 -17.73,99.31 -7.1,3.55 -17.74,14.18 -17.74,21.29 0,106.41 0,212.81 0,322.76 326.31,0 649.08,0 971.84,0 3.56,248.27 3.56,496.55 3.56,744.83zm-943.47 -1145.64c0,-21.28 -21.29,-39.01 -42.56,-39.01 -21.29,0 -46.11,21.29 -46.11,42.57 0,17.73 24.82,35.47 46.11,35.47 21.29,-3.56 42.56,-21.29 42.56,-39.03z"/>
    <path class="fil0" d="M3334.57 4362.38c0,-92.22 0,-180.89 0,-269.56 -7.09,-3.55 -17.74,-3.55 -24.83,-10.64 -21.29,-10.64 -35.47,-28.38 -35.47,-53.21 0,-24.82 14.18,-42.56 35.47,-49.65 21.29,-7.09 46.12,-7.09 67.39,-3.55 28.38,7.09 46.12,35.47 42.56,60.3 -3.55,28.38 -21.28,49.65 -63.85,56.74 0,95.77 0,191.54 0,290.84 -305.02,0 -610.05,0 -915.09,0 0,266.02 0,532.04 0,798.04 -10.64,0 -17.73,0 -28.38,0 0,-273.11 0,-542.66 0,-819.32 308.59,0.01 613.62,0.01 922.2,0.01zm56.74 -329.87c0,-17.73 -21.28,-39.01 -42.56,-39.01 -21.29,0 -49.65,21.29 -49.65,39.01 0,17.74 24.82,39.01 46.11,39.01 21.28,-3.54 46.1,-21.27 46.1,-39.01z"/>
    <path class="fil0" d="M5941.5 4383.65c-308.58,0 -610.05,0 -915.09,0 0,-95.76 0,-191.53 0,-287.29 -17.74,-7.09 -31.92,-10.64 -42.56,-21.28 -28.38,-21.29 -24.83,-67.39 3.55,-88.68 28.38,-21.29 74.48,-17.74 99.31,3.55 35.47,31.92 24.82,81.57 -17.74,95.77 -7.09,3.55 -10.64,3.55 -17.74,7.09 0,88.68 0,177.34 0,269.56 305.03,0 610.06,0 918.64,0 0,273.1 0,546.21 0,819.32 -7.1,0 -17.74,0 -28.38,0 0.01,-266 0.01,-532.02 0.01,-798.04zm-950.55 -351.14c0,17.74 24.83,35.47 46.12,35.47 21.28,0 46.11,-21.28 46.11,-39.01 0,-17.73 -28.38,-39.01 -49.65,-39.01 -17.75,-0.01 -42.58,21.28 -42.58,42.55z"/>
    <path class="fil0" d="M71.47 2993.29c10.65,0 17.74,0 24.83,0 418.53,0 833.5,0 1252.03,0 17.74,0 28.38,3.55 39.01,17.73 28.38,31.92 53.21,60.3 85.13,88.68 7.09,7.09 17.73,14.18 28.38,14.18 124.13,0 248.28,0 372.41,0 7.09,0 17.74,-7.09 21.29,-14.18 21.29,-28.38 46.11,-56.74 67.39,-88.68 7.09,-14.18 17.73,-14.18 31.92,-14.18 99.3,0 198.62,0 297.93,0 14.18,0 21.29,-3.55 31.92,-17.73 24.83,-42.57 99.31,-46.12 127.69,-3.56 24.82,35.47 -3.56,85.13 -53.21,88.68 -35.47,3.55 -67.39,-3.55 -81.57,-39.01 -3.55,-3.55 -10.65,-7.09 -17.74,-7.09 -99.3,0 -195.07,0 -294.38,0 -7.09,0 -17.73,3.55 -21.29,10.64 -24.82,31.92 -46.11,63.85 -70.94,95.77 -7.09,7.09 -17.73,14.18 -24.83,14.18 -131.23,0 -262.46,0 -393.7,0 -7.09,0 -17.73,-3.55 -24.82,-10.64 -31.92,-31.92 -63.85,-63.85 -92.22,-99.31 -10.64,-10.64 -17.74,-10.64 -31.92,-10.64 -358.23,0 -716.46,0 -1071.14,0 -60.3,0 -120.6,0 -184.43,0 -17.74,-7.11 -24.83,-7.11 -17.74,-24.84zm2312.55 -31.92c-21.29,0 -42.56,21.29 -42.56,39.01 0,21.29 21.29,39.01 46.11,39.01 24.83,0 46.12,-21.29 46.12,-39.01 -3.57,-17.72 -28.4,-39.01 -49.67,-39.01z"/>
    <path class="fil0" d="M71.47 2308.76c10.65,0 21.29,0 28.38,0 372.42,0 744.84,0 1117.26,0 17.73,0 31.92,-7.1 42.56,-21.29 42.56,-60.3 88.68,-117.04 131.24,-177.34 10.64,-14.18 21.29,-17.74 35.47,-17.74 124.13,0 248.28,0 368.88,0 14.18,0 21.28,-3.55 31.91,-17.73 14.19,-28.38 56.75,-39.01 88.68,-28.38 31.92,10.64 49.65,35.47 49.65,67.39 0,24.82 -17.73,35.47 -31.91,46.11 -21.29,14.18 -74.48,7.09 -92.22,-10.64 -17.74,-21.29 -42.56,-31.92 -70.94,-28.38 -106.41,0 -216.36,0 -322.76,0 -17.74,0 -35.47,7.09 -46.12,21.29 -46.11,56.74 -92.21,113.5 -134.77,170.25 -10.65,14.18 -21.29,17.73 -39.01,17.73 -379.51,0 -755.48,0 -1131.45,0 -21.3,3.55 -31.94,3.55 -24.85,-21.27zm1819.54 -163.16c21.29,0 42.56,-17.74 42.56,-31.92 0,-17.73 -28.38,-42.56 -46.11,-42.56 -21.29,0 -39.01,17.73 -39.01,39.01 0,17.73 21.27,35.47 42.56,35.47z"/>
    <path class="fil0" d="M2330.81 5181.69c-10.64,0 -21.28,0 -28.38,0 0,-301.49 0,-599.42 0,-897.36 287.3,0 571.05,0 861.89,0 0,-28.38 0,-56.74 0,-85.12 0,-28.38 0,-56.75 0,-88.68 0,-14.18 -3.55,-21.28 -17.73,-24.82 -31.92,-10.65 -46.12,-35.47 -42.57,-60.3 3.56,-28.38 31.92,-49.65 63.85,-53.21 28.38,0 56.75,3.56 74.48,31.92 17.74,31.92 7.09,67.39 -24.82,81.57 -21.29,7.09 -24.83,17.74 -24.83,35.47 0,60.3 0,117.05 0,180.9 -287.29,0 -574.6,0 -861.89,0 0,290.87 0,581.7 0,879.63zm805.13 -1149.18c0,17.74 24.83,39.01 46.12,35.47 21.28,0 46.11,-21.28 46.11,-39.01 0,-17.73 -24.83,-39.01 -46.11,-39.01 -28.38,3.54 -49.66,21.28 -46.12,42.55z"/>
    <path class="fil0" d="M6079.83 4277.26c0,301.48 0,599.42 0,900.89 -7.09,0 -14.18,0 -24.83,0 0,-294.38 0,-585.22 0,-879.62 -287.29,0 -574.59,0 -861.88,0 0,-7.09 0,-14.18 0,-21.29 0,-56.74 0,-109.95 0,-166.69 0,-14.19 -3.55,-24.83 -17.74,-28.38 -28.38,-10.65 -42.56,-35.47 -39.01,-60.3 3.55,-24.83 31.92,-49.65 56.75,-49.65 17.73,0 35.47,0 53.2,7.09 24.83,7.09 35.47,28.38 35.47,53.2 0,24.83 -14.18,46.12 -35.47,53.21 -17.73,7.09 -21.28,14.18 -21.28,31.92 0,53.2 0,106.41 0,163.15 280.2,-3.53 567.49,-3.53 854.79,-3.53zm-872.53 -287.31c-21.29,0 -46.11,21.29 -46.11,39.01 0,17.74 24.82,35.47 46.11,39.01 21.29,0 46.11,-17.73 46.11,-39.01 -3.55,-17.72 -21.28,-35.46 -46.11,-39.01z"/>
    <path class="fil0" d="M67.93 2574.77c0,-7.09 0,-14.18 0,-21.29 7.09,0 14.19,0 21.29,0 163.16,0 326.31,0 489.47,0 450.45,0 904.45,0 1354.9,0 14.18,0 24.82,0 35.47,-17.73 31.91,-42.56 99.3,-42.56 124.13,0 17.74,24.83 10.64,56.74 -14.18,78.03 -21.29,17.74 -42.56,14.18 -63.85,14.18 -24.83,-3.55 -42.56,-14.18 -56.75,-35.47 -3.55,-7.09 -21.29,-14.18 -31.92,-14.18 -95.76,0 -195.07,0 -290.84,0 -514.3,0 -1028.58,0 -1546.42,0 -3.56,-3.54 -10.65,-3.54 -21.3,-3.54zm1964.95 21.28c24.83,0 42.56,-14.19 42.56,-31.92 0,-21.29 -21.29,-39.01 -42.56,-39.01 -28.38,0 -46.11,17.73 -42.56,39.01 0,21.27 17.73,31.92 42.56,31.92z"/>
    <path class="fil0" d="M2905.41 2230.72c-99.31,3.56 -138.33,-49.65 -141.87,-124.13 -3.55,-85.12 53.21,-134.78 127.69,-138.33 74.48,0 127.68,53.21 127.68,124.13 3.54,85.13 -42.57,138.33 -113.5,138.33z"/>
    <path class="fil0" d="M4795.86 3330.25c-74.48,-3.56 -127.68,-60.3 -120.59,-138.33 7.09,-78.04 63.85,-124.14 134.78,-120.6 70.94,3.55 127.68,56.75 120.59,145.42 -3.54,67.39 -60.28,117.05 -134.78,113.51z"/>
    <path class="fil0" d="M4802.97 858.09c74.48,-7.09 131.24,70.94 131.24,127.69 0,78.03 -70.95,131.24 -127.69,131.24 -74.48,0 -131.24,-56.75 -131.24,-134.78 0,-70.94 63.84,-131.24 127.69,-124.15z"/>
    <path class="fil0" d="M3412.6 985.78c-3.55,-67.39 60.3,-131.24 131.24,-131.24 56.75,0 127.69,49.65 127.69,131.24 0,70.94 -56.75,131.24 -124.14,131.24 -78.04,0 -134.79,-53.21 -134.79,-131.24z"/>
    <path class="fil0" d="M3540.29 3330.25c-70.94,10.64 -127.69,-56.75 -131.24,-120.6 -3.55,-85.12 56.74,-138.33 127.69,-138.33 70.94,0 127.68,49.65 131.23,127.69 3.56,70.94 -56.74,138.33 -127.68,131.24z"/>
    <path class="fil0" d="M5586.82 2113.68c0,74.48 -70.94,124.13 -131.24,117.04 -85.12,-7.09 -127.68,-63.85 -124.13,-134.77 3.55,-78.04 67.39,-134.78 152.51,-120.6 56.75,7.09 113.49,60.3 102.86,138.33z"/>
    <path class="fil0" d="M128.23 5178.15c63.85,-53.21 124.13,-106.41 184.43,-159.6 49.65,-42.57 99.31,-85.13 148.97,-124.14 152.52,-124.13 305.03,-248.28 457.54,-372.41 266.02,-216.37 532.04,-432.71 798.04,-649.08 124.13,-99.3 248.28,-198.62 368.88,-301.48 17.73,-14.19 28.37,-17.74 49.65,-17.74 63.85,0 131.24,0 195.07,0 14.19,0 21.29,-7.09 28.38,-17.74 17.74,-28.37 42.57,-39 70.94,-35.47 28.38,3.56 53.21,14.19 60.3,46.12 7.09,17.73 0,35.47 -14.18,49.65 -35.47,35.47 -95.77,28.38 -124.13,-14.18 -3.56,-7.09 -17.74,-14.18 -24.83,-14.18 -63.85,0 -127.69,-3.56 -187.99,0 -14.18,0 -28.37,3.55 -35.47,14.18 -237.63,191.54 -475.27,386.61 -712.91,581.69 -138.33,109.95 -273.11,223.45 -411.44,333.4 -109.95,88.68 -219.9,180.89 -333.4,273.11 -39.01,31.92 -81.57,63.85 -120.6,99.31 -113.5,99.3 -226.99,198.62 -344.04,297.93 -17.74,10.63 -31.94,17.72 -53.21,10.63zm2291.26 -1578.35c24.83,0 46.12,-17.73 49.65,-39.01 0,-21.29 -21.28,-39.01 -49.65,-39.01 -28.38,0 -42.56,14.18 -42.56,39.01 -3.55,24.83 14.18,42.56 42.56,39.01z"/>
    <path class="fil0" d="M8271.77 5185.24c-14.18,-7.09 -28.38,-7.09 -39.01,-17.73 -95.77,-85.13 -191.54,-170.25 -290.84,-251.82 -81.57,-70.94 -170.25,-138.33 -251.82,-205.72 -92.22,-74.48 -184.43,-152.52 -276.66,-227 -301.49,-244.72 -602.96,-489.47 -904.45,-734.19 -67.39,-56.75 -134.78,-113.51 -202.17,-166.7 -7.09,-7.09 -17.73,-10.64 -28.38,-10.64 -67.38,0 -131.23,0 -198.62,0 -7.1,0 -21.29,7.09 -24.83,17.73 -24.83,39.01 -81.57,49.65 -117.04,21.29 -17.74,-14.18 -24.83,-31.92 -17.74,-53.21 7.09,-31.92 31.92,-42.56 60.3,-46.11 31.92,-3.55 56.74,7.09 74.48,35.47 3.55,7.09 17.73,14.18 28.38,14.18 67.39,0 134.78,0 202.17,0 10.64,0 17.73,3.55 24.82,7.09 120.6,95.77 241.19,195.08 361.79,290.85 170.24,138.33 340.49,276.66 507.19,411.43 78.03,63.85 156.06,124.14 230.54,187.99 117.05,95.77 234.1,191.53 347.59,287.29 49.66,42.56 106.41,81.57 156.07,120.59 102.86,85.13 202.16,173.8 305.02,258.93 17.74,17.73 39.01,31.92 56.75,49.65 0.01,3.54 -3.54,7.08 -3.54,10.63zm-2284.17 -1585.44c28.38,0 46.12,-14.18 46.12,-39.01 0,-24.83 -17.74,-39.01 -46.12,-39.01 -24.83,0 -46.11,17.74 -49.65,39.01 0,21.28 21.29,39.01 49.65,39.01z"/>
    <path class="fil0" d="M7643.98 5185.24c-14.18,-7.09 -28.38,-10.64 -39.01,-21.29 -95.76,-81.57 -191.53,-163.15 -287.29,-241.19 -60.29,-53.2 -120.59,-106.41 -184.43,-156.06 -81.57,-67.39 -163.16,-138.33 -244.73,-205.72 -60.29,-53.21 -120.59,-102.86 -180.89,-156.06 -56.74,-49.66 -113.5,-99.31 -170.25,-145.43 -63.85,-53.2 -124.13,-106.41 -187.98,-156.06 -95.77,-81.57 -187.99,-159.61 -283.75,-241.19 -3.56,-3.55 -14.19,-7.09 -17.74,-7.09 -159.6,0 -322.76,0 -482.36,0 -17.74,42.56 -56.75,63.85 -109.96,46.11 -21.28,-7.09 -35.47,-21.29 -39,-46.11 -3.56,-24.83 7.09,-42.57 28.37,-56.75 39.01,-24.82 88.68,-10.64 109.96,28.38 7.09,14.18 17.73,10.65 31.91,10.65 148.98,0 297.94,0 446.91,0 24.83,0 46.12,7.09 63.85,24.82 127.69,109.95 258.93,219.9 386.61,329.85 78.04,67.39 156.07,134.78 237.64,202.17 113.5,99.31 230.55,195.08 344.05,294.38 81.57,70.94 163.16,141.87 244.73,209.26 81.57,67.39 163.15,134.78 241.19,205.72 31.92,24.83 60.3,53.21 92.21,78.03 3.5,-3.51 3.5,0.03 -0.04,3.58zm-2152.93 -1305.24c21.29,0 46.12,-17.73 46.12,-39.01 0,-21.29 -24.83,-39.01 -49.66,-35.47 -24.82,0 -42.56,17.74 -42.56,39.01 -0.01,21.29 17.72,35.47 46.1,35.47z"/>
    <path class="fil0" d="M2838.01 3848.08c-163.16,0 -322.76,0 -482.37,0 -7.09,0 -14.18,3.55 -21.29,7.09 -95.76,81.58 -191.53,163.16 -287.29,244.73 -102.86,88.68 -209.26,177.34 -312.12,262.47 -102.85,88.67 -205.71,177.34 -312.11,266.01 -92.22,78.04 -187.99,156.07 -280.2,237.64 -85.13,70.94 -166.7,141.87 -248.28,212.81 -35.47,28.38 -67.39,56.75 -102.86,85.12 -10.65,7.1 -21.29,10.65 -35.47,14.19 0,-3.55 -3.56,-3.55 -3.56,-7.09 42.57,-35.47 85.13,-74.48 127.69,-109.95 49.65,-42.57 99.31,-81.58 148.97,-124.14 60.3,-49.65 120.6,-102.86 180.9,-152.51 70.94,-60.3 141.87,-120.6 212.81,-184.43 67.39,-56.75 138.33,-117.05 205.72,-173.8 70.94,-60.3 141.87,-120.6 212.81,-180.9 70.94,-60.29 141.87,-120.59 212.81,-180.89 63.85,-53.2 124.13,-106.41 187.98,-159.6 28.38,-24.83 56.75,-49.66 88.68,-70.94 7.09,-3.56 14.18,-7.1 21.29,-7.1 152.51,0 308.57,0 461.09,0 21.28,0 31.91,-3.55 42.56,-21.28 14.18,-28.38 56.74,-39.01 92.21,-24.83 28.38,10.64 42.57,35.47 39.01,67.39 -3.55,28.38 -31.91,46.11 -67.38,49.65 -35.49,7.11 -67.41,-14.17 -81.6,-49.64zm74.49 -42.56c-24.83,0 -46.11,17.74 -46.11,39.01 0,17.74 24.82,35.47 46.11,35.47 28.38,0 46.11,-14.18 46.11,-35.47 -0.01,-21.27 -21.28,-39.01 -46.11,-39.01z"/>
    <path class="fil0" d="M7931.27 5185.24c-10.64,-7.09 -24.82,-10.64 -35.47,-17.73 -95.76,-81.57 -191.53,-159.61 -283.75,-241.19 -70.94,-60.3 -141.87,-124.14 -216.36,-184.43 -102.86,-88.68 -209.26,-177.34 -315.67,-266.02 -70.94,-60.3 -141.87,-124.13 -216.36,-184.43 -102.86,-85.13 -202.17,-173.8 -305.03,-258.93 -92.22,-78.03 -184.43,-159.6 -280.2,-237.63 -21.29,-17.74 -46.11,-39.01 -67.39,-56.75 -14.18,-14.18 -28.38,-17.73 -49.65,-17.73 -99.31,0 -198.63,0 -297.94,0 -14.18,0 -24.82,3.55 -31.91,17.73 -10.65,24.83 -49.66,39.01 -78.04,35.47 -31.92,-7.09 -53.2,-24.82 -56.74,-49.65 -7.09,-28.38 10.64,-56.75 42.56,-67.39 39.01,-10.64 74.48,0 95.77,39.01 3.55,7.09 14.18,10.64 24.82,10.64 102.86,0 205.72,3.56 308.58,0 31.92,0 46.12,17.74 63.85,35.47 74.48,63.85 148.98,127.69 223.46,187.99 81.57,67.39 163.15,138.33 241.19,209.26 81.57,70.94 163.15,138.33 244.73,209.25 81.57,67.39 159.6,138.33 241.18,205.72 102.86,85.13 202.17,170.25 305.03,255.38 70.94,60.29 138.33,120.59 209.26,180.89 70.94,60.29 138.33,117.04 209.26,177.34 7.09,3.55 10.64,10.64 14.18,14.18 14.2,-3.54 10.64,0 10.64,3.55zm-2160.02 -1510.96c-28.38,0 -46.11,14.18 -46.11,39.01 0,21.29 17.73,35.47 42.56,35.47 28.38,0 49.65,-17.73 49.65,-39.01 3.55,-17.73 -17.72,-35.47 -46.1,-35.47z"/>
    <path class="fil0" d="M468.73 5174.6c35.47,-31.92 74.48,-63.85 109.95,-95.77 60.29,-49.65 120.59,-99.31 180.89,-152.51 70.94,-60.3 141.87,-120.6 212.81,-180.89 70.94,-60.3 141.87,-120.6 212.81,-180.9 81.57,-67.39 163.16,-138.33 244.73,-205.72 70.94,-60.29 138.33,-120.59 209.26,-180.89 81.57,-70.94 166.69,-138.33 248.28,-209.26 81.57,-67.39 159.6,-138.33 241.19,-205.72 21.29,-17.73 42.56,-39 67.39,-56.74 7.09,-3.55 17.73,-3.55 24.82,-3.55 106.42,0 212.81,0 315.67,0 14.19,0 21.29,0 28.38,-17.74 10.65,-21.29 49.66,-39.01 70.94,-35.47 42.57,7.09 60.3,21.29 63.85,49.66 7.09,39 -35.47,78.03 -81.57,67.38 -24.83,-7.09 -49.65,-14.18 -60.3,-42.56 0,-3.55 -10.64,-10.64 -17.73,-10.64 -106.41,0 -216.36,0 -322.76,0 -10.65,0 -24.83,10.64 -35.47,17.73 -127.69,109.95 -258.93,219.91 -386.61,326.32 -113.51,95.77 -227,195.07 -340.5,290.84 -127.69,109.95 -255.37,216.36 -383.06,326.31 -81.57,70.95 -166.7,141.87 -248.28,212.81 -106.41,92.22 -216.36,184.44 -326.31,276.66 -7.1,7.1 -21.29,7.1 -28.38,10.65 3.54,7.09 0,3.55 0,0zm2163.57 -1500.32c-24.83,0 -49.65,17.74 -49.65,35.47 0,21.29 21.29,39.01 49.65,39.01 24.83,0 42.56,-14.18 42.56,-35.47 0,-24.81 -14.19,-39.01 -42.56,-39.01z"/>
    <path class="fil0" d="M71.47 418.29c81.57,67.39 163.16,131.24 244.73,198.63 70.94,56.74 141.87,113.5 212.81,170.24 78.03,63.85 156.07,124.14 230.55,187.99 85.12,70.94 173.8,138.33 258.92,209.26 88.68,74.48 180.89,145.42 269.56,216.36 42.56,35.47 88.67,70.94 131.24,106.41 3.55,3.55 17.73,3.55 21.28,3.55 39.01,-14.18 88.68,0 102.86,31.92 17.74,42.56 -7.09,81.57 -49.65,81.57 -17.74,0 -35.47,0 -53.21,-7.09 -24.82,-7.09 -42.56,-35.47 -35.47,-67.39 7.09,-17.73 0,-28.38 -14.18,-39.01 -70.94,-56.74 -141.87,-117.04 -216.36,-173.8 -120.6,-95.77 -237.64,-195.07 -358.24,-290.84 -124.13,-99.31 -248.28,-198.63 -372.41,-301.49 -124.13,-99.3 -248.28,-198.62 -368.88,-301.48 -7.09,-7.1 -10.64,-17.74 -14.18,-24.83 7.09,3.55 10.63,0 10.63,0zm1411.65 1181.09c21.29,0 42.57,-14.18 42.57,-31.91 0,-17.74 -28.38,-42.57 -46.12,-42.57 -21.29,0 -42.56,24.83 -42.56,42.57 0,17.73 21.29,31.91 46.11,31.91z"/>
    <path class="fil0" d="M64.38 2727.29c7.09,-3.56 10.64,-10.65 14.2,-14.2 3.55,0 10.64,0 14.18,0 510.74,0 1021.49,0 1532.23,0 14.19,0 28.38,3.55 39.01,14.18 31.92,28.38 67.39,53.21 102.86,81.57 10.65,10.65 21.29,10.65 35.47,7.1 17.74,-3.56 39.01,-7.1 60.3,0 28.38,7.09 42.56,28.37 42.56,53.2 0,31.92 -10.64,42.56 -39.01,53.21 -24.82,7.09 -46.11,7.09 -70.94,-3.56 -24.82,-14.18 -35.47,-31.91 -31.92,-63.85 3.56,-14.18 -3.55,-17.73 -10.64,-24.82 -35.47,-28.38 -70.94,-60.3 -109.95,-88.68 -7.09,-7.09 -17.74,-7.09 -28.38,-7.09 -344.05,0 -684.55,0 -1028.58,0 -166.7,0 -329.85,0 -496.56,0 -3.56,0 -10.65,0 -14.19,0 -7.09,-3.53 -7.09,-7.06 -10.64,-7.06zm1769.87 102.85c-21.29,0 -49.65,21.29 -49.65,39.01 0,17.74 28.38,39.01 49.65,39.01 21.29,0 46.12,-21.28 46.12,-39.01 -3.56,-17.73 -24.83,-39.01 -46.12,-39.01z"/>
    <path class="fil0" d="M1483.12 2450.63c0,-42.57 0,-81.58 0,-120.6 0,-10.64 -10.64,-28.38 -17.73,-28.38 -28.38,0 -31.92,-21.29 -35.47,-39.01 -3.55,-17.73 0,-42.56 10.64,-53.2 31.92,-39.01 102.86,-39.01 127.69,14.18 14.18,24.83 3.55,56.74 -21.29,70.94 -24.83,14.18 -35.47,28.38 -31.92,56.74 3.56,31.92 0,67.39 0,99.31 0,14.18 -3.55,21.29 -21.28,21.29 -468.19,0 -932.82,-3.55 -1401,-3.55 -10.64,0 -24.83,7.09 -21.29,-17.74 468.18,0.02 936.37,0.02 1411.65,0.02zm14.19 -170.25c21.29,0 42.56,-14.19 42.56,-28.38 0,-17.74 -28.38,-42.56 -49.65,-42.56 -21.29,0 -39.01,21.28 -39.01,42.56 3.54,17.73 21.27,28.38 46.1,28.38z"/>
    <path class="fil0" d="M71.47 712.67c53.21,42.56 102.86,81.57 156.07,124.13 60.29,46.12 120.59,95.77 177.34,141.87 78.03,63.85 156.06,124.14 234.09,187.99 78.04,60.3 152.52,120.59 230.55,180.89 78.03,60.3 152.51,120.59 226.99,184.43 49.66,39.01 99.31,81.57 152.52,120.6 7.09,3.55 17.73,7.09 28.38,3.55 35.47,-7.09 70.94,-3.55 88.67,17.73 21.29,21.29 17.74,67.39 -3.55,88.68 -3.55,0 -7.09,3.55 -10.64,3.55 -28.38,0 -56.75,3.56 -85.13,3.56 -14.18,0 -35.47,-46.12 -28.38,-67.39 7.09,-21.29 0,-35.47 -17.73,-49.66 -191.54,-152.51 -383.06,-308.58 -574.6,-461.09 -166.69,-134.78 -333.4,-266.02 -500.1,-400.79 -17.73,-14.19 -39.01,-28.38 -60.3,-46.12 -7.09,-7.09 -14.18,-21.28 -17.73,-31.92 -3.54,3.54 0.01,3.54 3.55,-0.01zm1280.42 1003.76c0,-21.29 -24.83,-46.12 -42.57,-42.57 -17.73,0 -42.56,24.83 -42.56,42.57 0,14.18 24.83,35.47 46.12,35.47 14.18,-3.54 39.01,-21.28 39.01,-35.47z"/>
    <path class="fil0" d="M64.38 3443.75c3.55,-7.11 7.09,-10.64 10.64,-10.64 7.1,0 14.19,0 21.29,0 297.94,0 599.42,0 897.36,0 17.73,0 28.38,3.55 39.01,17.73 31.92,35.47 67.39,70.94 102.86,106.41 10.64,10.65 24.82,17.74 39.01,17.74 88.67,0 177.34,0 266.01,0 35.47,0 49.66,-24.83 67.39,-42.56 67.39,-60.3 134.78,-127.69 202.17,-187.99 7.09,-7.09 21.29,-14.18 31.92,-14.18 70.94,0 145.42,0 216.36,0 24.83,-49.65 56.74,-63.85 102.86,-46.12 24.83,7.1 46.11,35.48 42.56,56.75 -3.55,24.83 -24.83,49.65 -53.21,53.21 -49.65,7.09 -78.03,-7.1 -88.67,-49.66 -70.94,0 -145.42,0 -219.9,0 -7.1,0 -14.19,3.55 -21.29,10.65 -74.48,67.39 -145.42,138.33 -219.9,205.72 -21.29,21.28 -42.57,31.91 -74.48,31.91 -88.68,-3.55 -180.9,0 -269.56,0 -10.64,0 -21.29,-3.55 -28.38,-10.64 -35.47,-35.47 -70.94,-74.48 -106.41,-113.5 -10.64,-10.65 -21.29,-17.74 -39.01,-17.74 -294.38,0 -592.32,0 -886.71,0 -7.09,-7.09 -17.72,-7.09 -31.92,-7.09zm1968.5 -74.49c24.83,0 49.65,-17.74 49.65,-35.47 0,-17.74 -24.82,-39.01 -49.65,-42.57 -21.29,0 -46.11,21.29 -46.11,39.01 0,21.29 21.28,35.49 46.11,39.03z"/>
    <path class="fil0" d="M71.47 1024.8c333.41,266.02 670.35,528.48 1003.76,794.5 24.82,-17.74 53.2,-24.83 85.12,-14.18 35.47,14.18 49.65,39.01 39.01,78.03 -7.09,31.92 -28.38,49.65 -67.39,46.11 -49.65,-3.55 -70.94,-28.38 -78.03,-74.48 0,-10.64 -10.65,-24.82 -21.29,-31.92 -39.01,-35.47 -81.57,-67.38 -124.13,-102.85 -120.6,-95.77 -244.73,-195.08 -365.33,-290.85 -148.94,-124.16 -305.01,-248.31 -461.07,-372.44 -7.1,-7.09 -14.19,-17.74 -17.74,-24.83 3.55,-3.55 3.55,-7.09 7.09,-7.09zm1064.05 872.52c21.29,0 42.57,-17.74 42.57,-31.92 0,-21.29 -24.83,-42.56 -49.66,-42.56 -21.29,0 -42.56,21.29 -42.56,42.56 3.55,14.18 28.38,31.92 49.65,31.92z"/>
    <path class="fil0" d="M4990.95 5089.47c70.94,0 134.78,0 205.72,0 0,31.92 0,60.3 0,92.22 -7.09,0 -14.18,0 -21.29,0 0,-7.09 0,-14.18 0,-17.74 0,-46.11 0,-46.11 -49.65,-46.11 -39.01,0 -78.03,0 -117.04,0 -7.1,0 -14.19,0 -17.74,3.55 -17.73,10.65 -21.29,0 -24.83,-14.18 0,-3.55 0,-10.64 0,-14.18 0,-113.51 0,-223.46 0,-336.95 0,-35.47 -7.09,-56.74 -35.47,-78.03 -63.85,-53.21 -127.68,-109.95 -191.53,-166.7 -3.55,-3.55 -14.19,-3.55 -21.29,-7.09 -21.29,-3.55 -42.56,0 -60.3,-3.55 -39.01,-10.64 -42.56,-67.39 -21.29,-88.68 31.92,-31.91 99.31,-35.47 120.6,10.65 7.09,14.18 0,35.47 3.55,53.2 0,7.09 0,14.19 3.55,17.74 74.48,63.85 145.43,127.68 219.91,195.07 7.09,7.1 10.64,17.74 10.64,28.38 0,117.05 0,230.55 0,347.59 -3.54,3.54 -3.54,10.63 -3.54,24.81zm-297.93 -610.05c24.82,0 46.11,-14.18 46.11,-31.92 0,-17.73 -24.83,-39.01 -46.11,-39.01 -24.83,0 -46.12,21.29 -46.12,39.01 0,17.74 21.28,31.92 46.12,31.92z"/>
    <path class="fil0" d="M3419.69 5117.85c-7.09,0 -14.18,-3.55 -21.28,-7.09 -49.66,0 -99.31,0 -148.98,0 -14.18,0 -21.29,7.09 -21.29,17.74 0,14.18 0,31.92 0,46.11 -10.64,0 -14.18,0 -24.82,0 0,-28.38 0,-60.3 0,-92.21 67.39,0 134.77,0 205.72,0 0,-10.65 0,-17.74 0,-28.38 0,-117.05 0,-230.55 0,-344.05 0,-17.74 3.55,-28.38 17.73,-39.01 49.65,-42.56 99.31,-85.13 145.42,-131.24 24.83,-21.29 49.66,-42.56 74.48,-63.85 -3.55,-10.64 -7.09,-17.74 -7.09,-28.38 -3.55,-39.01 14.18,-60.3 56.75,-70.94 28.38,-7.09 70.94,10.64 81.57,39.01 17.73,35.47 -10.65,78.03 -56.75,81.57 -7.09,0 -14.18,3.55 -17.73,0 -31.92,-14.18 -49.66,7.09 -67.39,24.83 -60.3,53.2 -120.6,106.41 -180.89,159.6 -14.19,10.65 -17.74,24.83 -17.74,39.01 0,120.6 0,241.19 0,361.79 0,10.64 -7.09,21.28 -10.64,35.47 -3.51,3.56 -7.07,3.56 -7.07,0.02zm287.29 -638.43c24.83,0 46.12,-14.18 46.12,-31.92 0,-21.28 -21.29,-39.01 -46.12,-39.01 -21.28,0 -46.11,21.29 -46.11,39.01 0.01,10.63 21.29,35.46 46.11,31.92z"/>
    <path class="fil0" d="M5430.75 1312.09c-3.55,-60.29 42.57,-106.41 102.86,-106.41 63.85,0 109.96,53.21 106.42,109.95 -3.56,56.75 -53.21,109.95 -106.42,109.95 -53.2,-3.54 -102.86,-56.74 -102.86,-113.49z"/>
    <path class="fil0" d="M2919.59 1312.09c0,70.94 -53.2,106.41 -106.41,106.41 -60.3,-3.55 -102.86,-42.56 -102.86,-106.41 0,-60.29 46.11,-106.41 106.41,-106.41 60.3,-3.54 109.95,49.67 102.86,106.41z"/>
    <path class="fil0" d="M1649.82 3571.44c-7.09,-17.74 -17.73,-31.92 -21.29,-46.12 -3.55,-24.83 21.29,-56.74 67.39,-63.85 42.56,-7.09 74.48,28.38 74.48,67.39 0,28.38 -21.29,39.01 -42.56,46.11 -14.18,3.56 -28.38,0 -42.56,3.56 -14.18,3.55 -28.38,10.64 -42.56,21.28 -35.47,28.38 -67.39,56.75 -102.86,85.13 -7.1,7.09 -17.74,7.09 -24.83,7.09 -117.04,0 -234.1,0 -354.68,0 -10.64,0 -21.29,-7.09 -28.38,-14.18 -31.92,-31.92 -60.3,-67.39 -95.77,-102.86 -7.09,-7.09 -21.28,-10.65 -31.92,-10.65 -305.02,0 -610.05,0 -915.09,0 -10.64,0 -21.28,7.1 -28.38,-14.18 10.65,0 21.29,0 28.38,0 305.03,0 610.06,0 915.09,0 39.01,0 53.21,28.38 78.04,49.65 21.29,21.29 42.56,46.12 63.85,67.39 3.55,3.56 14.18,7.1 17.73,7.1 113.51,0 230.55,0 344.05,0 10.65,0 21.29,-3.56 28.38,-10.65 42.55,-31.93 78.02,-63.85 113.49,-92.21zm46.12 -14.2c31.91,0 46.11,-14.18 46.11,-39.01 0,-21.29 -17.74,-35.47 -42.56,-35.47 -28.38,0 -49.66,14.18 -49.66,39.01 3.54,21.29 21.28,35.47 46.11,35.47z"/>
    <path class="fil0" d="M4068.77 3663.65c-7.09,-49.65 39.01,-102.86 102.86,-102.86 70.94,0 102.86,49.66 106.41,106.41 3.55,53.21 -53.21,113.51 -92.22,109.95 -70.95,-3.55 -120.6,-49.66 -117.05,-113.5z"/>
    <path class="fil0" d="M2710.32 2869.15c-7.09,-60.29 53.21,-109.95 102.86,-106.41 56.74,0 106.41,42.56 106.41,106.41 0,60.3 -46.11,102.86 -106.41,102.86 -56.75,3.56 -109.95,-53.2 -102.86,-102.86z"/>
    <path class="fil0" d="M5636.47 2869.15c3.56,56.75 -46.11,102.86 -102.86,102.86 -53.2,0 -102.86,-49.65 -102.86,-102.86 0,-63.85 53.21,-106.41 102.86,-106.41 49.66,0.02 106.4,49.67 102.86,106.41z"/>
    <path class="fil0" d="M4274.49 528.24c3.55,56.74 -42.57,99.31 -102.86,99.31 -60.3,0 -106.41,-49.66 -102.86,-106.41 3.55,-53.21 42.56,-99.31 102.86,-102.86 60.29,0.01 109.95,49.66 102.86,109.96z"/>
    <path class="fil0" d="M4841.98 5149.77c88.67,0 177.34,0 266.01,0 0,10.65 0,17.74 0,24.83 -56.74,0 -109.95,0 -163.15,0 -35.47,0 -70.94,0 -102.86,0 -17.74,0 -28.38,-3.55 -28.38,-24.83 0,-106.41 0,-212.81 0,-319.22 0,-35.47 -10.65,-56.75 -35.47,-81.57 -42.56,-35.47 -81.57,-74.48 -124.14,-113.51 -14.18,-14.18 -24.82,-28.37 -49.65,-17.73 -10.64,3.55 -28.38,0 -42.56,-3.55 -21.29,-7.09 -39.01,-21.29 -42.56,-46.12 -3.56,-28.38 7.09,-46.11 28.37,-60.3 42.57,-24.82 106.42,-7.09 113.51,46.12 0,7.09 0,17.73 -3.55,24.83 -10.65,17.73 -3.56,24.82 10.64,35.47 53.21,49.65 106.41,99.3 156.07,148.97 7.09,7.09 14.18,24.83 14.18,39.01 0,106.41 0,212.81 0,319.22 3.54,10.65 3.54,17.74 3.54,28.38zm-251.82 -553.31c24.82,0 42.56,-14.18 46.11,-31.91 0,-21.29 -21.29,-39.01 -46.11,-39.01 -24.83,0 -46.12,21.28 -46.12,39.01 0,14.18 24.83,31.91 46.12,31.91z"/>
    <path class="fil0" d="M3558.02 5149.77c0,-117.04 0,-230.54 0,-340.49 0,-21.29 3.56,-39.01 21.29,-53.21 53.21,-46.12 102.86,-95.77 152.51,-141.87 7.1,-7.09 14.19,-14.18 7.1,-28.38 -10.65,-21.29 -7.1,-42.56 10.64,-60.3 17.73,-17.73 42.56,-28.38 67.39,-21.28 42.56,7.09 60.3,28.37 60.3,60.29 0,35.47 -24.83,63.85 -63.85,60.3 -14.19,0 -24.83,-7.09 -39.01,-3.55 -10.65,3.55 -21.29,10.64 -31.92,17.73 -49.66,46.12 -99.31,92.22 -148.98,141.87 -7.09,7.09 -10.64,17.74 -10.64,28.38 0,117.04 0,230.55 0,344.05 0,21.29 -7.09,24.83 -24.83,24.83 -88.67,0 -173.8,0 -262.46,0 -3.55,0 -3.55,0 -7.09,0 0,-7.09 0,-17.74 0,-28.38 92.21,0.01 180.88,0.01 269.55,0.01zm248.28 -553.31c21.29,0 46.12,-17.73 46.12,-31.91 0,-17.74 -24.83,-39.01 -46.12,-39.01 -21.28,0 -42.56,17.73 -46.11,39.01 3.55,14.18 24.83,31.91 46.11,31.91z"/>
    <path class="fil0" d="M901.44 1982.44c46.11,-24.82 81.57,-24.82 113.5,3.55 24.83,21.29 28.38,74.48 -14.18,92.22 -35.47,14.18 -67.39,21.29 -95.77,-7.09 -10.64,-10.65 -17.73,-24.83 -17.73,-39.01 0,-21.29 -10.65,-39.01 -24.83,-49.65 -145.42,-113.51 -290.84,-227 -436.27,-344.05 -113.5,-92.22 -230.54,-180.9 -344.04,-273.11 -7.1,-7.09 -10.65,-21.29 -17.74,-31.92 3.55,0 3.55,-3.55 7.09,-3.55 276.66,216.35 553.31,432.71 829.97,652.61zm56.74 78.03c21.29,0 42.57,-14.18 42.57,-31.91 0,-21.29 -17.74,-35.47 -46.12,-35.47 -17.73,0 -42.56,21.28 -42.56,35.47 3.55,17.73 24.84,31.91 46.11,31.91z"/>
    <path class="fil0" d="M71.47 3089.06c10.65,0 21.29,0 31.92,0 340.5,0 684.55,0 1025.04,0 17.74,0 28.38,0 35.47,-17.74 10.65,-24.83 49.66,-35.47 81.57,-28.38 24.83,3.55 49.66,28.38 53.21,53.21 3.55,21.29 -7.09,42.56 -24.83,53.2 -35.47,24.83 -102.86,10.65 -117.04,-28.38 -3.55,-7.09 -14.18,-10.64 -24.83,-10.64 -131.23,0 -266.01,0 -397.24,0 -212.81,0 -429.17,0 -641.98,0 -14.18,0.01 -28.38,3.55 -21.29,-21.27zm1106.62 10.64c0,21.29 17.73,39.01 42.56,39.01 24.82,0 49.65,-17.74 49.65,-35.47 0,-21.29 -21.29,-39.01 -42.56,-42.56 -24.81,-3.54 -49.65,17.73 -49.65,39.02z"/>
    <path class="fil0" d="M2454.95 2188.16c-60.3,-3.55 -88.68,-31.92 -85.13,-88.68 3.56,-53.2 42.57,-88.67 99.31,-85.12 42.56,3.55 81.57,49.65 78.03,92.22 0.02,53.2 -39.01,85.13 -92.21,81.58z"/>
    <path class="fil0" d="M6313.91 5178.15c-7.09,0 -14.18,0 -24.82,0 0,-10.64 0,-17.73 0,-28.38 0,-219.9 0,-443.35 0,-663.26 0,-17.73 0,-24.82 -21.29,-31.91 -28.38,-7.1 -42.56,-31.92 -39.01,-60.3 3.55,-21.29 28.38,-49.66 53.21,-49.66 21.28,0 46.11,3.56 63.85,14.19 21.28,10.64 31.91,35.47 21.28,56.74 -7.09,17.74 -21.28,35.47 -35.47,39.01 -17.73,7.09 -21.28,14.18 -21.28,31.92 0,219.9 0,439.8 0,656.17 3.53,14.19 3.53,24.84 3.53,35.48zm31.92 -773.21c0,-24.82 -21.28,-39.01 -49.65,-39.01 -21.29,0 -42.56,21.29 -42.56,39.01 0,21.29 24.82,39.01 49.65,39.01 24.83,0 46.12,-21.27 42.56,-39.01z"/>
    <path class="fil0" d="M2096.73 5178.15c-10.64,0 -14.18,0 -21.29,0 0,-7.09 0,-14.18 0,-21.29 0,-223.45 0,-443.35 0,-666.81 0,-17.73 -3.55,-28.38 -24.83,-35.47 -14.18,-7.09 -28.37,-24.82 -35.47,-39.01 -7.09,-21.29 0,-42.56 21.29,-56.74 28.38,-17.74 74.48,-17.74 99.31,3.55 31.92,28.38 24.83,78.03 -17.74,92.22 -21.28,7.09 -21.28,17.73 -21.28,35.47 0,219.9 0,439.8 0,656.16 0.01,10.63 0.01,21.28 0.01,31.92zm-10.64 -812.23c-28.38,0 -46.12,14.18 -46.12,39.01 0,17.73 24.83,39.01 46.12,39.01 24.82,0 46.11,-21.29 46.11,-39.01 -3.55,-21.28 -24.84,-39.01 -46.11,-39.01z"/>
    <path class="fil0" d="M5143.46 3592.71c0,46.11 -42.56,92.22 -92.21,92.22 -46.12,0 -88.68,-42.57 -85.13,-88.68 0,-49.65 31.92,-88.68 81.58,-92.22 63.83,-3.54 88.66,42.57 95.76,88.68z"/>
    <path class="fil0" d="M1068.13 4192.13c-17.73,-28.38 -17.73,-46.11 -3.55,-67.39 14.18,-17.73 49.66,-31.92 70.94,-28.38 7.09,0 14.19,3.56 21.29,7.09 28.38,10.65 42.56,35.48 39.01,56.75 -3.55,24.83 -28.38,49.65 -56.74,49.65 -7.1,0 -17.74,3.56 -24.83,0 -28.38,-14.18 -46.12,3.56 -63.85,17.74 -67.39,56.74 -138.33,113.5 -205.72,166.69 -10.64,7.1 -24.83,14.19 -35.47,14.19 -237.64,3.55 -475.27,3.55 -712.91,3.55 -3.55,0 -7.09,0 -10.65,0 -3.55,0 -7.09,-3.55 -10.64,-7.09 3.55,-3.55 7.09,-7.09 10.64,-7.09 17.74,0 35.47,0 56.75,0 219.9,0 439.8,0 656.17,-3.56 10.64,0 21.28,0 28.37,-7.09 74.5,-63.83 156.07,-127.67 241.19,-195.06zm49.67 0c31.92,0 49.65,-17.73 49.65,-39.01 0,-21.29 -21.28,-39.01 -46.11,-39.01 -24.83,0 -49.65,21.29 -49.65,42.56 0,17.73 24.82,35.46 46.11,35.46z"/>
    <path class="fil0" d="M5040.6 694.94c-63.85,0 -88.67,-46.12 -88.67,-88.68 0,-53.21 46.11,-88.68 95.77,-88.68 46.11,3.56 85.12,42.56 81.57,92.22 0,49.68 -42.56,88.69 -88.67,85.14z"/>
    <path class="fil0" d="M71.47 1897.32c63.85,42.56 127.69,88.67 191.54,131.24 60.29,42.56 120.59,81.57 180.89,124.13 7.09,3.55 14.18,7.09 17.73,7.09 46.12,0 88.68,0 134.78,0 14.19,0 21.29,-3.55 28.38,-14.18 24.83,-39.01 81.57,-49.65 117.04,-17.74 21.29,17.74 28.38,42.57 17.74,67.39 -7.09,21.29 -31.92,35.47 -56.75,35.47 -35.47,0 -67.38,-3.55 -85.12,-39.01 -3.55,-7.09 -17.73,-7.09 -24.83,-7.09 -46.11,0 -92.21,0 -134.77,0 -10.65,0 -24.83,-3.55 -35.47,-10.64 -109.96,-74.48 -219.91,-152.51 -329.86,-227 -21.3,-17.74 -28.39,-31.93 -21.3,-49.66zm610.07 227c-14.19,21.29 -31.92,35.48 -35.47,49.66 -3.56,14.18 24.82,35.47 46.11,35.47 17.74,0 49.65,-24.83 42.56,-35.47 -14.19,-17.74 -31.93,-31.93 -53.2,-49.66z"/>
    <path class="fil0" d="M3401.96 613.36c0,56.75 -35.47,88.68 -88.68,88.68 -46.11,0 -85.12,-42.56 -85.12,-92.21 0,-56.75 42.56,-88.68 88.67,-88.68 42.57,0 85.13,28.38 85.13,92.21z"/>
    <path class="fil0" d="M3327.48 3684.93c-53.21,7.09 -92.22,-42.57 -88.68,-88.68 0,-49.65 42.56,-88.68 92.22,-88.68 53.2,0 85.12,39.01 81.57,99.31 0.01,46.13 -39,78.05 -85.11,78.05z"/>
    <path class="fil0" d="M5994.71 2099.48c0,49.66 -35.47,88.68 -88.68,88.68 -49.65,0 -88.68,-39.01 -88.68,-85.12 0,-49.66 39.01,-88.68 88.68,-88.68 53.21,-3.54 88.68,35.47 88.68,85.12z"/>
    <path class="fil0" d="M71.47 1727.07c78.03,56.74 152.51,113.5 230.55,170.25 28.38,21.29 53.2,42.56 81.57,60.3 17.73,10.64 42.56,7.09 60.3,10.64 28.38,3.55 49.65,0 67.39,-28.38 17.73,-28.38 78.03,-24.83 102.85,-7.09 24.83,17.73 31.92,60.3 14.19,88.68 -3.56,7.09 -10.65,10.64 -14.19,14.18 -24.82,14.18 -88.67,7.09 -106.41,-17.74 -21.29,-24.82 -42.56,-35.47 -74.48,-28.38 -39.01,7.1 -70.94,-7.09 -102.86,-31.91 -81.57,-63.85 -166.69,-124.14 -248.28,-187.99 -10.64,-7.09 -14.18,-24.82 -21.29,-39.01 3.57,0 7.12,0 10.66,-3.55zm496.56 290.84c17.74,0 42.57,-17.73 42.57,-31.92 0,-14.18 -24.83,-42.56 -39.01,-42.56 -17.74,0 -46.12,24.83 -46.12,42.56 0,14.19 21.29,31.92 42.56,31.92z"/>
    <path class="fil0" d="M3717.63 5178.15c-10.65,0 -14.19,0 -21.29,0 0,-3.55 -3.55,-3.55 -3.55,-7.09 0,-106.41 0,-209.26 0,-315.67 0,-7.09 3.55,-17.74 10.64,-21.29 42.56,-39.01 88.68,-78.03 134.78,-117.04 3.55,-3.55 7.09,-14.18 7.09,-21.29 -3.55,-46.11 21.29,-67.39 60.3,-74.48 39.01,-7.09 78.03,17.74 81.57,56.75 0,14.18 -7.09,39.01 -17.74,49.65 -21.28,17.74 -46.11,28.38 -74.48,14.18 -21.28,-10.64 -35.47,-7.09 -53.2,14.19 -31.92,31.91 -67.39,63.85 -102.86,92.21 -14.18,10.65 -17.74,24.83 -17.74,42.56 0,88.68 0,177.34 0,266.02 -3.52,3.57 -3.52,10.66 -3.52,21.3zm202.16 -461.09c24.83,0 42.57,-14.18 42.57,-35.47 0,-21.29 -21.29,-35.47 -46.12,-35.47 -21.29,0 -46.11,17.73 -46.11,35.47 3.56,17.73 24.84,39.02 49.66,35.47z"/>
    <path class="fil0" d="M4703.65 5178.15c-7.09,0 -14.19,0 -24.83,0 0,-7.09 0,-17.73 0,-24.83 0,-85.12 0,-170.24 0,-255.37 0,-31.92 -7.09,-49.65 -31.92,-67.39 -35.47,-28.38 -67.39,-60.29 -99.31,-88.67 -7.09,-7.1 -21.28,-7.1 -31.91,-7.1 -14.19,0 -28.38,7.1 -42.57,7.1 -39.01,0 -67.38,-28.38 -67.38,-60.3 0,-31.92 31.91,-60.3 70.94,-63.85 49.65,-3.55 78.03,28.38 74.48,78.03 0,7.09 3.55,14.18 7.09,17.74 42.56,39.01 88.68,74.48 131.24,113.5 7.09,7.09 14.18,14.18 14.18,21.29 -0.01,113.49 -0.01,219.9 -0.01,329.85zm-223.44 -461.09c24.82,3.55 46.11,-17.74 49.65,-35.47 0,-17.74 -24.83,-39.01 -46.11,-39.01 -24.83,0 -46.12,17.73 -46.12,35.47 -3.54,24.83 17.74,39.01 42.58,39.01z"/>
    <path class="fil0" d="M6899.14 5178.15c-10.64,0 -17.74,0 -28.38,0 0,-92.21 0,-187.98 0,-280.2 -60.3,0 -120.59,0 -177.34,0 -7.09,0 -10.64,7.09 -17.73,14.18 -17.74,24.83 -42.57,35.48 -74.48,31.92 -28.38,-3.55 -53.21,-14.18 -63.85,-46.11 -7.1,-24.83 7.09,-53.21 35.47,-67.39 42.56,-17.74 78.03,-7.09 102.86,31.92 3.55,7.09 14.18,7.09 21.28,7.09 56.75,0 117.05,0 173.8,0 17.74,0 24.83,3.55 24.83,24.83 3.54,95.78 3.54,191.55 3.54,283.76zm-290.83 -255.37c28.38,0 46.11,-14.18 46.11,-35.47 0,-21.29 -21.28,-39.01 -46.11,-39.01 -28.38,0 -46.11,14.18 -46.11,35.47 3.55,24.81 21.27,39.01 46.11,39.01z"/>
    <path class="fil0" d="M1515.04 4897.95c0,95.77 0,187.99 0,280.2 -10.64,0 -17.73,0 -24.82,0 0,-3.55 -3.56,-3.55 -3.56,-7.09 0,-92.22 0,-187.98 0,-280.2 0,-14.18 3.56,-17.74 17.74,-17.74 56.74,0 117.04,0 173.8,0 14.18,0 21.29,0 31.92,-14.18 24.82,-39.01 88.67,-42.56 120.59,-10.64 24.83,28.38 21.29,63.85 -10.64,81.57 -39.01,24.83 -88.68,14.18 -113.5,-21.29 -3.56,-7.09 -10.65,-10.64 -17.74,-10.64 -56.74,0.01 -113.49,0.01 -173.79,0.01zm258.91 24.83c28.38,0 42.57,-14.18 42.57,-35.47 0,-21.29 -17.74,-35.47 -46.12,-35.47 -24.82,0 -46.11,17.73 -46.11,39.01 3.56,17.73 24.84,31.93 49.66,31.93z"/>
    <path class="fil0" d="M901.44 3848.08c-276.66,0 -556.86,0 -837.06,0 7.09,-7.09 7.09,-10.64 10.64,-14.18 7.1,0 14.19,0 21.29,0 258.93,0 517.84,0 776.76,0 10.65,0 17.74,0 28.38,0 17.74,-46.11 60.3,-60.3 99.31,-49.65 24.83,7.09 46.11,35.47 46.11,60.29 0,24.83 -24.82,49.66 -53.2,53.21 -42.58,7.08 -70.96,-7.11 -92.23,-49.67zm74.48 31.92c28.38,0 49.65,-14.18 49.65,-35.47 0,-21.29 -21.29,-42.56 -46.11,-42.56 -21.29,0 -49.66,21.29 -49.66,42.56 -3.53,17.74 17.75,35.47 46.12,35.47z"/>
    <path class="fil0" d="M614.15 3191.92c21.29,-56.75 92.21,-60.3 124.13,-28.38 14.18,14.18 24.83,28.38 17.74,49.65 -7.09,24.83 -24.83,42.56 -49.66,46.11 -35.47,3.56 -70.94,3.56 -92.21,-39 -3.55,-7.1 -14.18,-10.65 -21.29,-10.65 -113.5,0 -230.55,0 -344.05,0 -53.2,0 -109.95,0 -166.69,0 -7.1,0 -14.19,-7.09 -21.29,-10.64 0,-3.56 3.55,-7.09 3.55,-7.09 187.98,0 368.88,0 549.77,0zm74.48 49.65c24.82,0 46.11,-17.74 46.11,-35.47 0,-17.74 -24.82,-39.01 -46.11,-39.01 -28.38,0 -46.12,17.73 -46.12,42.56 0,17.74 17.74,31.92 46.12,31.92z"/>
    <path class="fil0" d="M71.47 3333.79c180.89,0 361.79,0 542.66,0 28.38,-42.57 53.21,-53.21 99.31,-42.57 24.83,7.09 49.66,35.47 49.66,56.75 0,24.82 -24.83,49.65 -49.66,53.2 -42.55,7.11 -70.93,-3.54 -95.75,-39.01 -3.56,-7.09 -14.19,-10.64 -24.83,-10.64 -156.07,0 -308.58,0 -461.09,0 -17.74,0 -35.47,0 -49.65,0 -3.56,0 -10.65,-7.09 -14.19,-10.64 0,-3.54 0,-3.54 3.54,-7.09zm613.61 49.66c24.82,3.55 49.65,-17.73 49.65,-39.01 0,-17.73 -28.38,-39.01 -49.65,-39.01 -21.29,0 -46.12,21.29 -46.12,39.01 0.01,21.28 21.29,39.01 46.12,39.01z"/>
    <path class="fil0" d="M1944.2 5178.15c-10.64,0 -14.18,0 -24.82,0 0,-141.87 0,-283.75 0,-425.62 -10.65,-3.55 -17.74,-3.55 -24.83,-7.09 -24.83,-10.65 -35.47,-28.38 -35.47,-53.21 0,-21.29 21.29,-46.11 42.56,-53.2 21.29,-7.09 46.12,-7.09 67.39,3.55 24.83,10.64 35.47,31.92 31.92,56.74 0,24.83 -17.74,42.57 -39.01,46.12 -17.74,3.55 -17.74,14.18 -17.74,24.83 0,124.13 0,248.28 0,375.96 0,14.19 0,21.28 0,31.92zm-14.18 -446.91c31.92,0 49.65,-14.18 49.65,-35.47 0,-24.83 -17.73,-39.01 -46.11,-39.01 -24.83,0 -46.12,17.74 -49.65,35.47 3.55,24.83 21.28,39.01 46.11,39.01z"/>
    <path class="fil0" d="M6466.43 5178.15c-10.65,0 -14.19,0 -24.83,0 0,-7.09 0,-17.73 0,-24.83 0,-124.13 0,-248.28 0,-372.41 0,-17.74 0,-28.38 -21.29,-31.92 -21.28,-3.55 -35.47,-21.29 -39.01,-46.11 0,-28.38 7.09,-46.12 31.92,-56.75 24.83,-10.64 46.12,-14.18 70.94,0 24.83,10.65 39.01,35.47 39.01,60.3 -3.55,24.83 -21.29,42.56 -56.74,53.2 0,134.77 0,276.64 0,418.52zm-14.19 -517.84c-28.37,0 -46.11,14.19 -46.11,39.01 0,21.29 17.74,35.47 46.11,35.47 28.38,0 46.12,-14.18 46.12,-35.47 -0.01,-24.82 -21.29,-39.01 -46.12,-39.01z"/>
    <path class="fil0" d="M5338.54 5178.15c-10.64,0 -14.18,0 -21.29,0 0,-7.09 0,-10.64 0,-14.18 0,-113.51 0,-230.55 0,-344.05 0,-17.74 0,-28.38 -24.83,-35.47 -42.56,-14.18 -49.65,-70.94 -14.18,-99.31 24.83,-21.29 56.75,-21.29 85.13,-7.09 24.82,10.64 35.47,31.92 35.47,56.74 0,24.83 -17.74,42.57 -39.01,46.12 -21.29,3.55 -21.29,17.73 -21.29,31.92 0,56.74 0,113.5 0,170.25 0,67.38 0,131.22 0,195.07zm-14.2 -411.44c24.83,0 49.66,-17.73 49.66,-35.47 0,-17.73 -24.83,-39.01 -46.12,-35.47 -24.82,0 -46.11,17.74 -46.11,39.01 -3.53,14.2 17.75,31.93 42.57,31.93z"/>
    <path class="fil0" d="M3072.1 5178.15c-10.64,0 -14.18,0 -24.82,0 0,-10.64 0,-17.73 0,-28.38 0,-109.95 0,-219.9 0,-329.85 0,-17.74 0,-35.47 -24.83,-42.56 -31.92,-10.65 -42.56,-39.01 -31.92,-67.39 10.65,-28.38 49.66,-53.21 81.57,-46.12 46.12,10.65 70.95,42.57 56.75,78.04 -7.09,17.73 -21.29,35.47 -39.01,39.01 -21.29,7.09 -17.74,17.73 -17.74,28.38 0,113.5 0,226.99 0,336.94 0,14.2 0,21.29 0,31.93zm-14.18 -411.44c24.83,0 46.12,-14.18 46.12,-31.92 0,-21.28 -21.29,-39 -46.12,-39 -21.29,0 -46.11,17.73 -46.11,39 0,14.19 21.29,31.92 46.11,31.92z"/>
    <path class="fil0" d="M67.93 3653.01c3.55,-3.56 10.65,-7.09 14.19,-7.09 14.18,0 28.37,0 42.56,0 184.43,0 368.87,0 553.3,0 17.74,0 28.38,0 39.01,-17.74 17.74,-35.47 70.95,-42.56 102.86,-21.29 21.29,14.19 31.92,35.47 28.38,60.3 -3.54,24.83 -24.82,39.01 -46.11,42.56 -42.56,10.65 -67.39,-3.55 -92.22,-39.01 -3.55,-7.09 -14.18,-10.64 -24.82,-10.64 -195.08,0 -390.15,0 -585.23,0 -10.64,0 -17.73,0 -28.38,0 -3.54,-3.54 -3.54,-3.54 -3.54,-7.09zm709.37 -42.56c-24.82,0 -46.11,17.73 -46.11,39 0,24.83 21.29,39.01 49.65,39.01 28.38,0 46.12,-21.28 46.12,-39.01 -7.09,-17.73 -24.83,-39 -49.66,-39z"/>
    <path class="fil0" d="M67.93 4784.45c7.09,0 14.19,-3.55 21.29,-3.55 78.03,0 156.07,0 234.1,0 17.73,0 31.92,-3.56 46.11,-17.74 74.48,-60.3 148.98,-117.04 223.46,-177.34 3.55,-3.55 10.64,-17.73 7.09,-21.29 -14.18,-24.82 -10.65,-46.11 7.09,-67.39 17.74,-21.28 42.56,-24.82 70.94,-21.28 39.01,7.09 60.3,35.47 53.21,70.94 -7.09,28.38 -53.21,53.2 -85.13,42.56 -21.28,-7.09 -31.92,-3.55 -49.65,10.64 -74.48,60.3 -152.51,120.6 -230.55,180.9 -7.09,3.55 -14.18,10.64 -24.82,10.64 -88.68,0 -177.34,0 -266.02,0 -3.55,0 -7.09,0 -10.64,-3.55 3.52,3.55 3.52,0.01 3.52,-3.54zm592.32 -202.17c35.47,-7.09 60.3,-28.38 49.65,-53.2 -7.09,-10.65 -21.29,-21.29 -31.92,-24.83 -17.73,-3.55 -42.56,-10.64 -53.2,14.18 -3.55,10.65 -7.09,28.38 0,39.01 3.55,10.65 21.29,14.2 35.47,24.84z"/>
    <path class="fil0" d="M4359.61 5178.15c-10.64,0 -14.18,0 -21.29,0 0,-3.55 0,-7.09 0,-10.64 0,-85.13 0,-170.25 0,-255.38 0,-14.18 -3.55,-21.28 -17.73,-28.37 -35.47,-14.19 -49.66,-39.01 -39.01,-74.48 7.09,-24.83 49.65,-49.66 78.03,-42.57 46.12,10.65 70.94,24.83 63.85,70.94 -3.55,21.29 -14.18,39.01 -35.47,46.12 -21.29,3.55 -24.83,17.73 -24.83,35.47 0,78.03 0,156.06 0,234.1 -3.55,7.08 -3.55,14.17 -3.55,24.81zm-14.2 -315.67c24.83,0 46.12,-14.18 46.12,-31.92 0,-17.73 -24.83,-39.01 -49.65,-39.01 -21.29,0 -42.57,17.74 -42.57,35.47 0,21.28 17.74,35.46 46.1,35.46z"/>
    <path class="fil0" d="M4065.22 4890.86c0,95.77 0,187.98 0,287.29 -7.1,0 -14.19,0 -24.83,3.55 0,-24.82 0,-49.65 0,-70.94 0,-67.39 0,-131.24 0,-198.63 0,-14.18 -3.55,-24.82 -17.74,-28.37 -24.82,-7.1 -39.01,-24.83 -39.01,-49.66 -3.55,-31.92 7.1,-46.11 35.47,-60.3 31.92,-14.18 60.3,-10.64 85.13,7.1 35.47,21.28 28.38,78.03 -10.65,95.76 -7.09,7.1 -17.73,10.65 -28.37,14.2zm-10.63 -28.38c28.37,0 46.11,-14.18 46.11,-35.47 0,-17.73 -21.29,-35.47 -42.56,-35.47 -24.83,0 -49.66,17.74 -49.66,39.01 -0.01,17.75 21.27,31.93 46.11,31.93z"/>
    <path class="fil0" d="M5650.66 5178.15c-7.09,0 -14.19,0 -21.29,0 0,-3.55 -3.55,-10.64 -3.55,-14.18 0,-85.13 0,-166.7 0,-251.82 0,-17.74 -3.56,-28.38 -21.29,-31.92 -24.83,-7.09 -39.01,-24.83 -39.01,-53.21 0,-28.38 10.64,-42.56 35.47,-53.2 35.47,-17.74 74.48,-7.09 95.77,21.29 21.29,28.37 10.64,78.03 -24.83,85.12 -21.29,3.55 -21.29,17.74 -21.29,31.92 0.02,88.66 0.02,177.32 0.02,266zm-10.65 -315.67c24.83,0 46.12,-17.73 46.12,-35.47 0,-17.73 -24.83,-35.47 -46.12,-35.47 -24.82,0 -46.11,17.74 -46.11,39.01 -3.54,17.75 17.75,35.47 46.11,31.93z"/>
    <path class="fil0" d="M2759.99 5178.15c-10.65,0 -14.19,0 -21.29,0 0,-3.55 0,-7.09 0,-14.18 0,-85.13 0,-170.25 0,-251.82 0,-17.74 0,-28.38 -21.29,-31.92 -17.73,-3.55 -35.47,-21.29 -35.47,-42.56 -3.55,-24.83 7.09,-42.56 28.38,-56.75 28.38,-17.73 67.39,-17.73 95.77,3.56 28.38,21.28 31.92,81.57 -10.65,95.76 -24.82,7.09 -28.37,21.29 -28.37,46.12 -7.08,81.54 -7.08,166.67 -7.08,251.79zm-14.2 -315.67c28.38,0 46.12,-14.18 46.12,-31.92 0,-21.28 -21.29,-39.01 -46.12,-39.01 -21.29,0 -46.11,21.29 -46.11,39.01 0.01,17.74 21.28,31.92 46.11,31.92z"/>
    <path class="fil0" d="M1316.42 5178.15c-7.1,0 -14.19,0 -21.29,0 0,-3.55 -3.55,-7.09 -3.55,-10.64 0,-60.3 0,-124.14 0,-184.43 0,-14.19 0,-21.29 -17.74,-28.38 -28.38,-10.65 -46.11,-35.47 -39.01,-60.3 3.55,-28.38 31.92,-49.65 63.85,-49.65 24.83,0 46.11,0 63.85,17.73 28.38,28.38 17.74,78.03 -24.83,92.22 -17.73,7.09 -21.28,14.18 -21.28,28.38 0,63.83 0,127.68 0,195.07zm-10.65 -315.67c-24.83,0 -49.65,17.74 -46.11,39.01 0,17.74 24.82,39.01 46.11,39.01 21.29,0 46.12,-21.29 46.12,-39.01 -3.56,-24.83 -17.74,-39.01 -46.12,-39.01z"/>
    <path class="fil0" d="M7094.21 5178.15c-7.09,0 -14.18,0 -21.28,0 0,-3.55 -3.56,-7.09 -3.56,-14.18 0,-60.3 0,-120.6 0,-184.43 0,-14.19 -3.55,-24.83 -17.73,-28.38 -24.83,-7.09 -42.56,-31.92 -42.56,-53.21 0,-28.38 17.73,-49.65 46.11,-53.2 17.74,-3.56 35.47,-3.56 53.21,0 24.82,7.09 42.56,28.37 46.11,53.2 0,24.83 -10.64,46.12 -42.56,56.75 -14.18,3.55 -17.74,14.18 -17.74,24.82 0,67.39 0,134.78 0,198.63zm-14.18 -315.67c-28.38,0 -46.11,14.18 -42.56,39.01 0,17.74 24.83,39.01 46.11,39.01 24.83,0 46.12,-21.29 46.12,-39.01 -3.55,-21.27 -24.84,-39.01 -49.67,-39.01z"/>
    <path class="fil0" d="M4529.86 5178.15c-10.64,0 -17.74,0 -28.38,0 0,-39.01 0,-74.48 0,-113.5 0,-17.74 0,-28.38 -21.29,-35.47 -21.29,-7.09 -35.47,-24.83 -35.47,-46.12 -3.55,-24.82 7.09,-42.56 28.38,-53.2 42.56,-28.38 102.86,-7.1 117.04,35.47 7.09,28.38 -3.55,56.74 -35.47,67.39 -17.73,7.09 -21.28,17.73 -21.28,31.91 -3.53,39.04 -3.53,74.5 -3.53,113.52zm-17.74 -163.16c24.83,0 42.57,-14.18 46.12,-35.47 0,-17.73 -21.29,-39.01 -46.12,-39.01 -21.28,0 -46.11,21.29 -42.56,39.01 0,21.29 21.28,35.47 42.56,35.47z"/>
    <path class="fil0" d="M3898.52 5178.15c-10.64,0 -17.74,0 -28.38,0 0,-39.01 0,-78.03 0,-120.59 0,-10.65 0,-21.29 -14.18,-24.83 -39.01,-17.74 -49.66,-39.01 -39.01,-74.48 10.64,-35.47 53.2,-49.65 81.57,-42.56 49.65,10.64 70.94,46.11 53.21,85.12 -7.1,14.18 -17.74,24.83 -31.92,28.38 -17.74,7.09 -21.29,14.18 -21.29,28.38 0,17.73 0,39.01 0,56.74 0,24.82 0,42.55 0,63.84zm-14.18 -163.16c24.82,0 46.11,-17.73 46.11,-35.47 0,-17.73 -24.83,-35.47 -42.56,-35.47 -24.83,0 -46.12,17.74 -46.12,35.47 0,21.29 17.73,35.47 42.57,35.47z"/>
    <path class="fil0" d="M2919.59 5178.15c-10.64,0 -14.18,0 -21.29,0 0,-3.55 0,-7.09 0,-10.64 0,-46.12 0,-92.22 0,-134.78 0,-14.18 0,-24.83 -17.73,-28.38 -24.83,-7.09 -39.01,-24.83 -42.56,-53.21 0,-24.82 10.64,-46.11 39.01,-56.74 31.91,-10.64 85.12,-7.09 99.3,31.92 14.19,31.92 0,63.85 -28.38,74.48 -24.82,7.09 -28.37,24.82 -28.37,46.11 0.02,46.12 0.02,88.68 0.02,131.24zm35.47 -227.01c0,-17.73 -24.82,-39.01 -46.11,-39.01 -21.29,0 -49.66,24.83 -46.12,39.01 0,14.19 28.38,35.47 46.12,35.47 21.29,3.56 46.11,-14.18 46.11,-35.47z"/>
    <path class="fil0" d="M5487.5 5178.15c-10.64,0 -17.74,0 -24.83,0 0,-42.56 0,-85.12 0,-127.69 0,-24.82 -3.55,-42.56 -28.38,-49.65 -28.38,-10.64 -31.91,-31.92 -31.91,-53.2 0,-24.83 21.28,-49.66 49.65,-53.21 28.38,-7.09 56.74,-7.09 81.57,17.73 28.38,28.38 21.29,78.04 -17.73,92.22 -21.29,7.09 -24.83,17.74 -24.83,35.47 0.01,46.12 -3.54,92.22 -3.54,138.33zm-10.64 -187.98c17.73,0 46.11,-21.29 46.11,-39.01 0,-17.74 -28.38,-39.01 -49.65,-39.01 -21.29,0 -42.57,21.29 -42.57,39.01 0,17.72 21.28,39.01 46.11,39.01z"/>
    <path class="fil0" d="M67.93 4096.36c7.09,0 17.74,0 24.83,0 102.86,0 209.26,0 312.12,0 14.18,0 21.28,0 28.38,-17.73 14.18,-28.38 42.56,-35.47 67.38,-35.47 28.38,0 49.66,14.18 60.3,39.01 14.18,28.38 -10.64,67.39 -49.65,74.48 -35.47,7.09 -60.3,-7.09 -81.57,-39.01 -3.56,-7.09 -17.74,-10.65 -24.83,-10.65 -106.41,0 -212.81,0 -319.22,0 -7.09,0 -14.19,-3.55 -21.29,-3.55 3.55,0.01 3.55,-3.54 3.55,-7.08zm432.71 -31.91c-28.37,0 -49.65,14.18 -49.65,39 0,24.83 17.74,42.57 46.12,42.57 24.82,0 49.65,-14.19 49.65,-39.01 0,-24.83 -17.74,-42.56 -46.12,-42.56z"/>
    <path class="fil0" d="M71.47 2901.07c-7.09,-17.73 3.55,-21.29 14.18,-17.73 46.12,0 92.22,0 134.78,0 14.18,0 21.29,-3.56 28.38,-14.19 24.83,-46.11 99.31,-46.11 127.69,-3.55 14.18,21.29 10.64,56.75 -10.65,70.94 -35.47,28.38 -95.76,21.29 -120.59,-17.73 -3.54,-17.74 -10.63,-21.28 -24.81,-17.74 -49.66,0 -99.31,0 -148.98,0zm241.19 -49.65c-24.83,0 -46.11,21.29 -46.11,42.56 0,17.74 24.82,39.01 46.11,35.47 21.29,0 46.12,-21.29 46.12,-39.01 0,-21.29 -21.29,-39.02 -46.12,-39.02z"/>
    <path class="fil0" d="M1720.76 5135.59c0,14.18 0,28.38 0,46.11 -10.64,0 -17.73,0 -28.38,0 0,-7.09 -3.55,-14.18 0,-21.28 3.56,-17.74 -3.55,-28.38 -24.82,-35.48 -21.29,-7.09 -31.92,-28.37 -35.47,-49.65 0,-17.73 7.09,-35.47 24.82,-49.65 31.92,-17.74 74.48,-17.74 99.31,3.55 28.38,24.83 24.83,67.39 -10.64,88.68 -3.54,7.07 -14.19,10.63 -24.82,17.72zm-14.19 -102.86c-24.83,0 -46.12,17.73 -46.12,39.01 0,17.73 24.83,39.01 46.12,35.47 21.28,-3.55 46.11,-10.64 46.11,-35.47 -3.55,-17.74 -21.29,-39.01 -46.11,-39.01z"/>
    <path class="fil0" d="M6693.43 5178.15c-10.64,0 -17.73,0 -28.37,0 0,-14.18 0,-28.38 0,-39.01 -21.29,-14.18 -39.01,-24.83 -49.66,-39.01 -7.09,-10.64 -7.09,-31.92 -3.55,-46.11 7.09,-28.38 42.56,-42.57 85.12,-39.01 24.83,3.55 49.66,28.38 53.21,53.2 3.55,17.74 -10.64,49.66 -31.92,53.21 -24.83,7.09 -28.38,21.29 -24.83,42.56 0,7.08 0,10.62 0,14.17zm-14.19 -145.42c-24.83,0 -46.12,17.73 -46.12,39.01 0,24.83 21.29,35.47 42.57,39.01 21.28,3.55 46.11,-17.74 46.11,-35.47 3.55,-21.28 -17.74,-39.01 -42.56,-42.55z"/>
    <path class="fil0" d="M241.72 4628.38c-60.3,0 -113.5,0 -170.25,0 0,-3.55 0,-3.55 0,-7.09 7.09,-3.55 14.18,-7.09 17.74,-7.09 46.11,0 88.67,0 134.77,0 14.19,0 21.29,-3.55 28.38,-17.74 17.74,-28.37 46.12,-42.56 85.13,-35.47 24.82,3.56 42.56,24.83 46.11,49.66 7.09,46.11 -28.38,67.39 -70.94,67.39 -35.47,0.01 -63.84,-10.63 -70.94,-49.66zm67.4 35.47c24.83,0 49.66,-17.73 49.66,-39.01 0,-21.28 -21.29,-42.56 -49.66,-42.56 -21.29,0 -49.65,21.29 -49.65,42.56 3.54,21.28 24.81,39.01 49.65,39.01z"/>
    <path class="fil0" d="M128.23 3986.41c-21.29,0 -39.01,0 -60.3,0 0,-3.55 0,-3.55 0,-7.09 7.09,0 14.19,-3.55 21.29,-3.55 21.29,0 39.01,0 53.21,-24.83 24.82,-39.01 95.76,-35.47 120.59,7.09 17.74,28.38 0,63.85 -35.47,74.48 -42.58,14.2 -78.05,0 -99.32,-46.1zm74.48 -46.11c-28.38,0 -53.21,17.73 -53.21,39.01 0,21.29 21.29,39.01 46.12,39.01 28.38,0 49.65,-14.19 49.65,-35.47 3.55,-21.26 -14.18,-39 -42.56,-42.55z"/>
    <path class="fil0" d="M64.38 4234.69c35.47,10.65 49.65,-17.73 67.39,-35.47 35.47,-31.92 95.77,-17.73 113.5,21.29 10.65,17.74 7.09,35.47 -7.09,49.65 -35.47,39.01 -109.95,31.92 -127.69,-10.64 -3.55,-7.09 -10.64,-10.64 -17.73,-14.18 -7.09,-3.55 -17.74,0 -24.83,0 0,-3.55 0,-7.11 -3.55,-10.65zm113.5 42.57c31.92,0 49.66,-14.19 53.21,-35.47 0,-17.74 -17.74,-39.01 -35.47,-39.01 -14.18,0 -31.92,3.55 -46.12,10.64 -7.09,3.55 -17.73,21.29 -17.73,28.38 3.55,10.64 14.18,21.29 24.83,31.92 7.1,3.54 17.73,3.54 21.28,3.54z"/>
   </g>
  </g>
 </g>
</svg>
