<?xml version="1.0" encoding="UTF-8"?>
<!DOCTYPE svg PUBLIC "-//W3C//DTD SVG 1.0//EN" "http://www.w3.org/TR/2001/REC-SVG-20010904/DTD/svg10.dtd">
<!-- Creator: CorelDRAW -->
<svg xmlns="http://www.w3.org/2000/svg" xml:space="preserve" width="84mm" height="53mm" version="1.0" style="shape-rendering:geometricPrecision; text-rendering:geometricPrecision; image-rendering:optimizeQuality; fill-rule:evenodd; clip-rule:evenodd"
viewBox="0 0 8400 5300"
 xmlns:xlink="http://www.w3.org/1999/xlink"
 xmlns:xodm="http://www.corel.com/coreldraw/odm/2003">
 <defs>
  <style type="text/css">
   <![CDATA[
    .fil0 {fill:black;fill-rule:nonzero}
   ]]>
  </style>
 </defs>
 <g id="Слой_x0020_1">
  <metadata id="CorelCorpID_0Corel-Layer"/>
  <g id="_105553265833696">
   <g>
    <path class="fil0" d="M7489.47 2701.23c0,134.94 -18.52,267.23 -55.56,396.88 -44.98,150.81 -113.77,291.04 -206.38,420.69 -58.21,82.02 -121.71,156.1 -193.15,224.9 -105.83,103.19 -227.54,185.21 -362.48,248.71 -84.67,39.69 -171.98,71.44 -264.58,95.25 -84.67,21.17 -169.33,37.04 -256.65,42.33 -97.9,7.94 -195.79,2.65 -293.69,-10.58 -100.54,-13.23 -201.08,-34.4 -296.33,-68.79 -158.75,-55.56 -304.27,-140.23 -433.92,-248.71 -103.19,-87.31 -195.79,-185.21 -275.17,-298.98 -95.25,-137.58 -164.04,-288.4 -203.73,-449.79 -34.4,-140.23 -50.27,-280.46 -44.98,-423.33 7.94,-211.67 60.85,-410.1 161.4,-597.96 21.17,-42.33 47.63,-82.02 71.44,-121.71 7.94,-13.23 10.58,-26.46 7.94,-44.98 -15.88,-82.02 -34.4,-164.04 -44.98,-246.06 -7.94,-76.73 -5.29,-150.81 5.29,-227.54 10.58,-79.38 26.46,-153.46 52.92,-227.54 5.29,-18.52 15.88,-23.81 34.4,-23.81 55.56,2.65 105.83,18.52 156.1,39.69 111.13,44.98 209.02,111.13 291.04,198.44 34.4,37.04 37.04,37.04 82.02,13.23 100.54,-50.27 206.38,-87.31 314.85,-111.13 116.42,-23.81 235.48,-34.4 357.19,-31.75 89.96,2.65 177.27,13.23 264.58,31.75 111.13,23.81 219.6,60.85 320.15,113.77 15.88,7.94 26.46,7.94 39.69,-5.29 71.44,-84.67 158.75,-145.52 259.29,-193.15 52.92,-23.81 108.48,-47.63 164.04,-58.21 15.88,-2.65 31.75,-2.65 47.63,0 7.94,0 15.88,10.58 18.52,18.52 13.23,34.4 23.81,71.44 31.75,105.83 23.81,100.54 34.4,201.08 29.1,304.27 -5.29,89.96 -21.17,179.92 -42.33,269.88 -2.65,15.88 -2.65,29.1 7.94,42.33 89.96,124.35 156.1,261.94 195.79,410.1 23.81,87.31 39.69,174.63 47.63,267.23 5.29,52.91 10.59,100.53 13.23,145.51zm-251.35 251.36c0,-7.94 2.65,-13.23 2.65,-15.88 -7.94,-66.15 -15.88,-132.29 -26.46,-195.79 -26.46,-161.4 -76.73,-317.5 -150.81,-463.02 -5.29,-7.94 -5.29,-21.17 -2.65,-31.75 34.4,-111.13 74.08,-219.6 108.48,-330.73 31.75,-100.54 50.27,-206.38 58.21,-312.21 10.58,-134.94 -5.29,-267.23 -47.63,-396.88 -7.94,-23.81 -10.58,-26.46 -37.04,-21.17 -10.58,2.65 -21.17,5.29 -31.75,7.94 -129.65,34.4 -240.77,103.19 -336.02,195.79 -97.9,95.25 -171.98,206.38 -243.42,320.15 -7.94,13.23 -13.23,13.23 -26.46,7.94 -100.54,-47.63 -206.38,-84.67 -317.5,-100.54 -92.6,-13.23 -187.85,-15.88 -280.46,-2.65 -68.79,7.94 -137.58,23.81 -206.38,47.63 -50.27,18.52 -103.19,37.04 -156.1,58.21 -2.65,-2.65 -5.29,-5.29 -7.94,-7.94 -52.92,-74.08 -105.83,-148.17 -161.4,-219.6 -79.38,-103.19 -174.63,-190.5 -293.69,-248.71 -52.92,-23.81 -105.83,-47.63 -164.04,-58.21 -15.88,-2.65 -26.46,0 -34.4,18.52 -31.75,95.25 -47.63,190.5 -50.27,291.04 -5.29,100.54 7.94,201.08 31.75,298.98 31.75,145.52 76.73,291.04 132.29,428.63 7.94,21.17 13.23,42.33 -2.65,63.5 -5.29,7.94 -10.58,18.52 -15.88,29.1 -79.38,185.21 -134.94,378.35 -164.04,579.44 -2.65,18.52 -5.29,37.04 -5.29,58.21 13.23,0 23.81,0 31.75,0 79.38,-2.65 156.1,-5.29 235.48,-5.29 58.21,0 116.42,7.94 164.04,42.33 63.5,42.33 124.35,84.67 187.85,129.65 21.17,13.23 39.69,31.75 58.21,47.63 18.52,-37.04 37.04,-74.08 55.56,-108.48 63.5,-111.13 148.17,-203.73 261.94,-264.58 58.21,-31.75 119.06,-50.27 182.56,-55.56 66.15,-5.29 132.29,2.65 198.44,21.17 68.79,21.17 132.29,52.92 187.85,100.54 82.02,71.44 137.58,161.4 185.21,256.65 7.94,15.88 15.88,29.1 23.81,44.98 5.29,-5.29 10.58,-7.94 13.23,-10.58 42.33,-34.4 84.67,-71.44 127,-103.19 44.98,-34.4 92.6,-63.5 148.17,-74.08 50.27,-10.58 103.19,-15.88 156.1,-15.88 74.11,-7.96 142.91,-5.31 211.7,-5.31zm-1733.02 280.45c-5.29,-5.29 -10.58,-7.94 -18.52,-13.23 -66.15,-52.92 -132.29,-105.83 -198.44,-158.75 -50.27,-39.69 -103.19,-68.79 -169.33,-71.44 -95.25,-2.65 -190.5,0 -285.75,0 -13.23,0 -26.46,2.65 -39.69,2.65 -5.29,37.04 5.29,97.9 21.17,142.88 42.33,113.77 113.77,209.02 198.44,293.69 137.58,134.94 293.69,238.13 465.67,320.15 71.44,34.4 145.52,60.85 219.6,92.6 71.44,29.1 145.52,47.63 222.25,58.21 71.44,10.58 145.52,10.58 219.6,2.65 71.44,-7.94 142.88,-23.81 211.67,-47.63 84.67,-29.1 166.69,-66.15 248.71,-100.54 145.52,-63.5 275.17,-153.46 394.23,-261.94 103.19,-95.25 187.85,-203.73 232.83,-338.67 15.88,-47.63 23.81,-97.9 29.1,-150.81 -5.29,0 -7.94,-2.65 -13.23,-2.65 -87.31,0 -177.27,-5.29 -264.58,-2.65 -66.15,2.65 -127,18.52 -185.21,52.92 -68.79,39.69 -127,92.6 -185.21,148.17 -15.88,13.23 -29.1,26.46 -44.98,42.33 -21.17,-71.44 -47.63,-134.94 -84.67,-195.79 -89.96,-140.23 -203.73,-240.77 -375.71,-261.94 -100.54,-13.23 -193.15,2.65 -283.1,50.27 -111.13,58.21 -190.5,150.81 -251.35,261.94 -21.17,39.69 -39.69,87.31 -63.5,137.58z"/>
    <path class="fil0" d="M7021.16 2095.34c-34.4,-37.04 -66.15,-74.08 -100.54,-108.48 -79.38,-82.02 -150.81,-171.98 -243.42,-238.13 -18.52,-13.23 -34.4,-26.46 -52.92,-39.69 -10.58,-7.94 -13.23,-18.52 -2.65,-29.1 87.31,-84.67 174.63,-169.33 277.81,-232.83 55.56,-34.4 116.42,-63.5 177.27,-92.6 18.52,-10.58 26.46,-5.29 29.1,15.88 7.94,87.31 18.52,171.98 26.46,259.29 5.29,63.5 -10.58,127 -26.46,187.85 -23.81,82.02 -47.63,164.04 -71.44,246.06 -5.27,7.93 -7.92,15.87 -13.21,31.75z"/>
    <path class="fil0" d="M5044.72 2100.63c-23.81,-79.38 -47.63,-150.81 -66.15,-224.9 -15.88,-52.92 -26.46,-108.48 -37.04,-161.4 -13.23,-60.85 -10.58,-121.71 -2.65,-179.92 7.94,-52.92 15.88,-105.83 23.81,-158.75 5.29,-29.1 13.23,-34.4 39.69,-21.17 132.29,74.08 264.58,150.81 370.42,261.94 26.46,26.46 55.56,50.27 87.31,79.38 -158.74,111.13 -293.68,246.07 -415.39,404.82z"/>
    <path class="fil0" d="M5751.16 2748.86c-39.69,2.65 -76.73,7.94 -116.42,7.94 -105.83,0 -203.73,-29.1 -288.4,-92.6 -13.23,-10.58 -29.1,-15.88 -44.98,-23.81 -31.75,-13.23 -47.63,-37.04 -50.27,-71.44 -2.65,-29.1 0,-60.85 -2.65,-89.96 -2.65,-34.4 15.88,-42.33 47.63,-47.63 71.44,-13.23 132.29,15.88 190.5,55.56 66.15,44.98 134.94,89.96 203.73,132.29 52.92,29.1 60.86,74.08 60.86,129.65z"/>
    <path class="fil0" d="M6423.2 2754.15c-21.17,0 -44.98,0 -66.15,0 -23.81,0 -26.46,-5.29 -26.46,-26.46 -2.65,-52.92 23.81,-92.6 66.15,-119.06 79.38,-50.27 158.75,-97.9 240.77,-148.17 50.27,-29.1 103.19,-34.4 158.75,-26.46 23.81,2.65 31.75,10.58 31.75,37.04 0,39.69 0,79.38 0,116.42 0,15.88 -5.29,29.1 -21.17,37.04 -71.44,39.69 -142.88,79.38 -216.96,113.77 -47.63,21.17 -100.54,21.17 -153.46,18.52 -5.28,-2.64 -10.57,-2.64 -13.22,-2.64l0 0z"/>
    <path class="fil0" d="M6589.89 2370.5c-29.1,0 -58.21,0 -87.31,0 -66.15,0 -105.83,-58.21 -84.67,-121.71 23.81,-71.44 87.31,-121.71 164.04,-124.35 84.67,-2.65 164.04,66.15 169.33,150.81 2.65,29.1 -7.94,58.21 -29.1,79.38 -7.94,7.94 -23.81,10.58 -34.4,13.23 -31.75,5.29 -66.14,2.64 -97.89,2.64l0 0z"/>
    <path class="fil0" d="M5483.93 2370.5c-31.75,0 -63.5,0 -95.25,0 -39.69,0 -68.79,-26.46 -74.08,-66.15 -7.94,-76.73 39.69,-140.23 108.48,-166.69 82.02,-29.1 169.33,13.23 206.38,76.73 21.17,37.04 23.81,76.73 7.94,116.42 -10.58,26.46 -29.1,39.69 -58.21,39.69 -29.11,0 -63.51,0 -95.26,0l0 0z"/>
    <path class="fil0" d="M6105.7 3367.98c95.25,0 190.5,0 283.1,0 5.29,50.27 2.65,95.25 -31.75,134.94 -15.88,18.52 -29.1,42.33 -42.33,63.5 -5.29,7.94 -10.58,13.23 -18.52,23.81 -2.65,-21.17 -5.29,-37.04 -5.29,-52.92 -2.65,-23.81 -2.65,-44.98 -5.29,-68.79 0,-13.23 -2.65,-18.52 -18.52,-18.52 -39.69,0 -79.38,0 -121.71,0 0,7.94 0,15.88 0,26.46 7.94,0 15.88,2.65 26.46,2.65 0,15.88 0,29.1 0,47.63 -21.17,0 -42.33,0 -60.85,0 -2.65,2.65 -2.65,2.65 -2.65,5.29 -2.65,29.1 -2.65,29.1 -31.75,29.1 -13.23,0 -23.81,0 -37.04,0 -7.94,-31.75 -7.94,-31.75 -39.69,-31.75 -18.52,0 -37.04,0 -52.92,0 -23.81,0 -15.88,-15.88 -15.88,-29.1 0,-13.22 2.65,-21.17 18.52,-18.52 10.58,0 18.52,0 29.1,0 7.94,-23.81 5.29,-26.46 -15.88,-26.46 -34.4,0 -71.44,0 -108.48,0 0,44.98 0,87.31 0,132.29 -5.29,-2.65 -7.94,-2.65 -10.58,-5.29 -34.4,-55.56 -71.44,-108.48 -92.6,-169.33 -10.58,-29.1 -5.29,-37.04 26.46,-39.69 79.38,0 158.75,0 240.77,0 7.94,0 13.23,0 21.17,0 0,-37.04 0,-68.79 0,-103.19 0,-7.94 -7.94,-15.88 -15.88,-21.17 -26.46,-18.52 -50.27,-37.04 -76.73,-52.92 -66.15,-39.69 -76.73,-89.96 -52.92,-161.4 5.29,-18.52 15.88,-37.04 23.81,-52.92 7.94,-18.52 21.17,-26.46 39.69,-26.46 66.15,0 132.29,0 198.44,-2.65 31.75,0 52.92,7.94 63.5,39.69 10.58,23.81 26.46,47.63 31.75,71.44 13.23,44.98 -7.94,82.02 -39.69,111.13 -23.81,23.81 -52.92,47.63 -82.02,68.79 -15.88,13.23 -23.81,29.1 -23.81,47.63 2.66,23.81 0.01,50.27 0.01,76.73z"/>
   </g>
  </g>
 </g>
</svg>
