<?xml version="1.0" encoding="UTF-8"?>
<!DOCTYPE svg PUBLIC "-//W3C//DTD SVG 1.0//EN" "http://www.w3.org/TR/2001/REC-SVG-20010904/DTD/svg10.dtd">
<!-- Creator: CorelDRAW -->
<svg xmlns="http://www.w3.org/2000/svg" xml:space="preserve" width="84mm" height="53mm" version="1.0" style="shape-rendering:geometricPrecision; text-rendering:geometricPrecision; image-rendering:optimizeQuality; fill-rule:evenodd; clip-rule:evenodd"
viewBox="0 0 840000 530000"
 xmlns:xlink="http://www.w3.org/1999/xlink"
 xmlns:xodm="http://www.corel.com/coreldraw/odm/2003">
 <defs>
  <style type="text/css">
   <![CDATA[
    .fil0 {fill:#373535}
   ]]>
  </style>
 </defs>
 <g id="Слой_x0020_1">
  <metadata id="CorelCorpID_0Corel-Layer"/>
  <path class="fil0" d="M446330 316171c32,-1055 3535,-17875 4160,-23609 480,-4403 830,-8600 1144,-13043 327,-4654 110,-9593 481,-14160 4887,7019 1737,46019 -5785,50812zm112727 68159l27352 -24 17 -15627 -27352 4 -17 15647zm-209892 83971l-3230 -57 -14243 55 53 20604 27199 -49 42 -20543 -9821 -10zm97184 -25174l27346 88 -96 -24136 -27221 -1 -29 24049zm-191481 77706l27083 4 6 -24480 -27480 52 391 24424zm65149 -9542l-61 -26992 -26675 19 -185 27050 26921 -77zm88388 -39035l27323 -3 -230 -27132 -26884 99 -209 27036zm-11587 -21368c-8660,1 -17320,-20 -25980,4 -124,12521 -194,25046 -270,37568 8799,-9 17600,-41 26398,-62l-148 -37510zm124508 -37535l27274 -37 6 -44615 -27308 0 28 44652zm114468 -99081l-118 4956c150,7282 60,14683 59,21988 -1,5503 638,17721 -297,22434l27593 -21 -68 -57053 -2764 390 -2272 -32 -3624 91 -3202 -90 -12218 41 -3152 -62 63 7358zm-143952 128988l4584 -34 4088 23 3210 -13 4581 -8 1730 5 0 -1327 81 -4232 3 -4276 -55 -3181 49 -4474 -72 -51870 21 -4234 -27278 -71 13 73644 9045 48zm104415 -90602l58 352 -7 31300 27369 -11 -57 -77293 -27275 -89 -88 45741zm75332 -559l27306 227 -3 -85393 -16469 -23 -7505 -46 -3400 10 71 85225zm35833 -178242l-35 -83 26 68119c236,13070 27,26359 26,39456 -1,6501 7,13002 6,19502 0,4492 520,15504 -283,19197l27594 24 5 -163594 -27305 27 -34 17352zm36353 -36377l104 153680 27297 67 -85 -108629 101 -4962 132 -59211 -27438 93 -111 18962zm38020 15577l20 8454 -73 3882 8 4303 15 14218 -280 33648 30248 -39 -22 -16906 4 -192871 -30008 2 88 145309zm-401133 160227c-314,-2391 -253,-9988 384,-12098l509 -3040 985 -4065c869,-5989 7870,-18420 12657,-22384 680,-563 234,-156 725,-644 391,-389 306,-385 639,-717 1191,-1103 2363,-1772 3755,-2572 -1776,4161 -4212,7829 -5821,12091 -651,1750 -1168,3500 -1640,5306 -3578,13879 -3974,29448 -2423,43804l3064 20907c-6040,-7011 -12371,-24506 -12834,-36588zm188461 -57436c24672,-1790 -3090,7401 -11793,-262 6755,1054 2829,1107 11793,262zm-7533 -33174c7236,773 27998,10005 34757,14959 -17907,-3760 -26211,-17091 -46177,-9733 -6354,2342 3749,-4494 11420,-5226zm-73454 -15119c998,1407 1155,3662 1602,5313 1305,4812 3729,9838 6291,14072 5659,9354 6606,8627 12105,14591 3412,3701 14370,10999 19728,13410l14499 6118c-14687,3763 -31694,-940 -40688,-12130 -8047,-10013 -14007,-28807 -13537,-41374zm144537 -11998c5895,-542 1422,16638 -1359,4023 -469,-2127 -359,-2996 1359,-4023zm-57932 10665c2850,7892 6884,29465 -228,7345 -5784,-17988 -13222,-13115 -15585,-17120 7144,930 12695,2866 15813,9775zm46425 -51175c422,1133 7318,16370 1536,8897 -1685,-2178 -3848,-6856 -1874,-9356l338 459zm-26907 44936c-2603,-13854 -2132,-29164 6005,-41333 4508,-6744 -1075,8145 -1750,11271 -3477,16107 -1508,21981 -2317,36578 -1166,-1282 -1607,-4778 -1938,-6516zm-134600 15830c535,-6417 4262,-19708 6047,-26400 2332,-8743 7022,-28807 12733,-35389 3934,-4535 15104,-9121 21063,-11682 3392,-1459 8640,-3810 12227,-4678 -1000,1644 -7224,5065 -9760,6784l-13608 10484c-5151,5161 -6781,6777 -10456,13958 -7603,14858 -11750,28111 -16848,43775 -143,437 -293,974 -482,1436l-916 1712zm80142 -88363c-862,625 -1233,494 -2582,656 -19020,1547 -47483,12377 -61972,23176 -2882,2148 -4613,7585 -5637,11536 -1142,4410 -2143,8917 -3240,13533 -1700,7107 -3988,14553 -6184,21526 -2464,7828 -5204,16235 -8382,23791 -3106,7386 -4024,7794 -10553,12629 -3578,2649 -7167,5290 -10736,7949 -2578,1921 -4852,4101 -7551,6001 -2837,1998 -6380,3734 -9469,5403 -3356,1814 -6371,3518 -9618,5530 -1871,1159 -3528,2113 -5553,2997 -365,159 -716,655 -1099,976 -2090,1744 -4854,3331 -7117,5040 -1668,1260 -2535,2048 -3807,3722 -434,571 -754,890 -1292,1368 -5621,4832 -13052,11724 -18721,15780 -1241,888 -1823,1079 -3023,1973l-21331 13143c-5736,3710 -4729,3428 -8109,6841 -850,858 -1681,1437 -2544,2411 -6798,7663 -4698,22481 -2938,33605 1571,3186 4001,10201 9395,10579 2736,191 5681,-1313 7462,-2611 1838,-1339 3898,-2697 5306,-4399 1005,-1385 7779,-7587 9028,-8295 772,-1388 1551,-3139 3424,-1826 -393,1270 -1093,1355 -2029,2739 -2012,4833 1440,8191 4540,12914 2470,3762 5649,8215 7833,12303 586,-1819 1772,-16200 2056,-19493 1511,-17527 -12872,-20218 -22144,-10406l-5241 5661c-1527,1717 -4549,5084 -7068,4391 -2116,-1091 -4274,-4304 -4522,-6953l-576 -1147c-2310,-6319 -848,-16679 3014,-20859 2269,-2455 4973,-2877 8427,-4314 2154,-896 7162,-3311 9144,-3642 1104,-1033 2569,-1396 4308,-1711l3590 -1077 2922 -1421 5397 -1462c273,-316 -586,-63 726,-619 912,-388 505,-166 1583,-452 -354,3733 -960,11293 -386,14818 418,6187 4788,13630 7413,18115 3223,5507 6267,9993 9065,16314l352 188c2049,7177 4459,9437 -82,16643 -1415,2246 -2402,3826 -4235,5780 -1897,2024 -2846,3286 -5494,4458 -80,602 -59,351 -530,920 -3637,4393 -3175,10074 -3442,15428 -169,3411 -508,6557 -1154,9918 -1496,7635 -5336,15242 -5524,17651 -248,3173 945,3293 2904,4941l-2698 8855c-544,1580 -132,1032 -939,1791l227 1304 -437 593c-241,1895 -392,1178 147,2654 7341,-1041 21986,-485 29882,-273 -5068,-11720 -9298,-12496 -11116,-17280 -996,-702 -1560,-1243 -1834,-3089l160 -2374 349 -3573c-370,-13917 7354,-19486 10983,-25728 5681,-9773 4990,-5874 12829,-12180 12867,-10350 27857,-40006 32565,-53996 1775,-5276 1766,-4369 7638,-4584 4144,-152 8145,-343 12274,-564 7544,-403 15608,-1293 23188,-353 1679,171 885,-66 1125,549 4482,160 7123,5181 7151,10072 1453,-2419 2514,-1493 2389,-5666 -87,-2935 -489,-5547 -752,-8267 -549,-973 -693,-2924 82,-3814l129 -1460 682 -1473c297,-725 541,-1069 972,-1673 172,-241 406,-560 621,-796 852,-936 124,-325 1063,-963 544,-1279 487,-938 1610,-1537 629,-1163 6040,-6653 8298,-7379l1611 -854c942,-949 941,-965 2516,-1437 77,-68 193,-280 225,-208 34,73 185,-175 229,-217 246,-233 498,-477 739,-703l2660 -767 773 -842 1854 -683 1501 -965c1067,-721 727,-675 1938,-824 87,-88 213,-356 258,-267 43,86 203,-205 260,-247 784,-585 198,-182 834,-532 5412,-971 10385,-2029 15610,-3125 10900,-2287 23422,-8493 31223,-16337 949,-953 1347,-1254 2275,-2280 8609,-7477 8322,-13688 21592,-13164 3262,129 5220,14560 -10415,16120 2450,5905 9040,5629 -5375,3597l-1688 -59c-6028,8229 -6446,6940 -9307,18911 3545,-555 8954,-1445 12275,-2502 5265,-1676 8657,-3879 10141,-4352 6793,-1470 7894,2482 13556,-5456 268,-376 905,-9921 3072,-15529 3639,-9419 11961,-21280 -2929,-24736 -4267,-991 -2668,-539 -992,-3394 -1525,-2769 -12532,-33479 -4956,-16644 3198,7106 17053,21547 23208,23645 195,67 19627,-1575 15112,-12709 -1813,-4470 11089,-42212 10153,-46556 -3060,-14204 -28759,-25434 5722,-34856 21509,-5876 40140,-25011 39260,-48294 -5736,15576 -5274,16736 -20605,28150 -17982,13387 -42708,3609 -51095,17243 -1423,2312 -12319,-6675 -14585,-7942 -22991,-12857 -39178,-12665 -64252,-12439 -1135,10 -1873,-64 -2990,-202z"/>
 </g>
</svg>
