<?xml version="1.0" encoding="UTF-8"?>
<!DOCTYPE svg PUBLIC "-//W3C//DTD SVG 1.0//EN" "http://www.w3.org/TR/2001/REC-SVG-20010904/DTD/svg10.dtd">
<!-- Creator: CorelDRAW -->
<svg xmlns="http://www.w3.org/2000/svg" xml:space="preserve" width="84mm" height="53mm" version="1.0" style="shape-rendering:geometricPrecision; text-rendering:geometricPrecision; image-rendering:optimizeQuality; fill-rule:evenodd; clip-rule:evenodd"
viewBox="0 0 8400 5300"
 xmlns:xlink="http://www.w3.org/1999/xlink"
 xmlns:xodm="http://www.corel.com/coreldraw/odm/2003">
 <defs>
  <style type="text/css">
   <![CDATA[
    .fil0 {fill:#373535}
   ]]>
  </style>
 </defs>
 <g id="Слой_x0020_1">
  <metadata id="CorelCorpID_0Corel-Layer"/>
  <path class="fil0" d="M7061.58 4696.25c-24.56,-97.23 82.3,-50.41 102.01,-1.35 29.12,72.47 -85.46,66.9 -102.01,1.35zm864.32 -3802.25l-49.66 0 0 74.48 -14.89 0 0 -74.48 -49.67 0 0 -432.04 49.67 0 0 -49.66 14.89 0 0 49.66 49.66 0 0 432.04zm173.76 -382.38l-44.68 0 0 49.66 -19.85 0 0 -49.66 -44.69 0 0 -218.51 44.69 0 0 -134.08 19.85 0 0 134.08 44.68 0 0 218.51zm-347.56 814.41l-49.64 0 0 79.46 -14.9 0 0 -79.46 -49.64 0 0 -645.56 49.64 0 0 -193.68 14.9 0 0 193.68 49.64 0 0 645.56zm-173.77 -84.41l-54.61 0 0 74.47 -9.94 0 0 -74.47 -49.65 0 0 -139.05 49.65 0 0 -79.46 9.94 0 0 79.46 54.61 0 0 139.05zm-178.75 119.18l-44.68 0 0 134.07 -14.9 0 0 -134.07 -49.66 0 0 -402.26 49.66 0 0 -54.61 14.9 0 0 54.61 44.68 0 0 402.26zm-168.82 327.74l-54.6 0 0 134.09 -9.94 0 0 -134.09 -54.63 0 0 -561.15 54.63 0 0 -163.87 9.94 0 0 163.87 54.6 0 0 561.15zm-178.75 79.46l-49.66 0 0 79.47 -14.88 0 0 -79.47 -44.7 0 0 -799.52 44.7 0 0 -307.89 14.88 0 0 307.89 49.66 0 0 799.52zm-173.77 129.12l-49.66 0 0 139.05 -9.92 0 0 -139.05 -54.64 0 0 -685.31 54.64 0 0 -79.44 9.92 0 0 79.44 49.66 0 0 685.31zm-173.8 44.69l-49.63 0 0 79.45 -14.89 0 0 -79.45 -49.65 0 0 -302.92 49.65 0 0 -134.09 14.89 0 0 134.09 49.63 0 0 302.92zm-173.75 362.51l-49.66 0 0 79.47 -14.9 0 0 -79.47 -49.66 0 0 -441.97 49.66 0 0 -49.65 14.9 0 0 49.65 49.66 0 0 441.97zm-178.76 695.23l-44.68 0 0 134.09 -14.9 0 0 -134.09 -49.66 0 0 -650.53 49.66 0 0 -163.89 14.9 0 0 163.89 44.68 0 0 650.53zm-168.82 327.75l-49.64 0 0 134.06 -14.9 0 0 -134.06 -49.65 0 0 -978.28 49.65 0 0 -74.49 14.9 0 0 74.49 49.64 0 0 978.28zm-178.75 253.25l-49.65 0 0 79.47 -14.9 0 0 -79.47 -44.68 0 0 -1013.04 44.68 0 0 -79.44 14.9 0 0 79.44 49.65 0 0 1013.04zm-173.77 -223.47l-44.69 0 0 79.45 -14.89 0 0 -79.45 -49.66 0 0 -561.13 49.66 0 0 -193.68 14.89 0 0 193.68 44.69 0 0 561.13zm-2437.93 446.95l-54.61 0 0 79.45 -9.93 0 0 -79.45 -54.63 0 0 -427.09 54.63 0 0 -74.47 9.93 0 0 74.47 54.61 0 0 427.09zm-178.75 441.95l-49.66 0 0 79.47 -9 0c14.58,0.6 28.88,15.19 28.88,29.77 0,14.9 -14.91,29.81 -29.81,29.81 -17.63,0 -27.43,-11.76 -29.41,-24.83l-328.61 0 -0.31 1.27 -0.09 0.33 -0.1 0.35 -0.05 0.18 -0.16 0.5 -0.01 0.03 -0.18 0.52 -0.04 0.12 -0.01 0.03 -0.24 0.65 -0.09 0.25 -0.17 0.41 -0.04 0.1 -0.22 0.52 -0.02 0.05 -0.21 0.46 -0.09 0.19 -0.15 0.32 -0.16 0.34 -0.09 0.16 -0.24 0.48 -0.01 0.03 -0.27 0.49 -0.07 0.12 -0.21 0.38 -0.15 0.26 -0.13 0.23 -0.25 0.39 -0.05 0.09 -0.3 0.48 -0.04 0.05 -0.28 0.43 -0.12 0.19 -0.2 0.28 -0.22 0.32 -0.11 0.15 -0.32 0.45 -0.01 0.01 -0.35 0.46 -0.09 0.11 -0.26 0.34 -0.2 0.24 -0.47 0.57 -0.06 0.08 -0.38 0.44 -0.04 0.04 -0.34 0.38 -0.16 0.17 -0.23 0.26 -0.27 0.28 -0.13 0.13 -0.39 0.4 -0.01 0.01 -0.41 0.41 -0.11 0.1 -0.31 0.3 -0.23 0.21 -0.19 0.18 -0.36 0.31 -0.07 0.07 -0.43 0.37 -0.06 0.05 -0.38 0.32 -0.19 0.15 -0.26 0.21 -0.32 0.25 -0.59 0.44 0 0.01 -0.46 0.34 -0.13 0.09 -0.61 0.42 -0.2 0.14 -0.41 0.26 -1.88 1.13 -0.13 0.08c-1.32,0.73 -2.68,1.35 -4.07,1.86l-0.4 0.14c-0.89,0.31 -1.81,0.58 -2.72,0.8l-0.05 0.02 -0.53 0.12 0 537.37 0.6 0.13 0.01 0.01 0.61 0.15 0.06 0.01 0.55 0.16 1.8 0.59 0.36 0.13 0.24 0.1c11.28,4.41 20.61,16.19 20.61,27.99 0,10.15 -7.07,20.49 -16.31,25.89l-0.61 0.36 -0.02 0 -0.62 0.35 -0.02 0 -0.63 0.33 -0.02 0 -0.63 0.31 -0.02 0 -0.64 0.3 -0.02 0 -0.64 0.28 -0.02 0 -0.65 0.26 -0.02 0 -0.65 0.25 -0.02 0 -0.65 0.23 -0.02 0 -0.66 0.21 -0.02 0 -0.67 0.19 -0.02 0 -0.66 0.17 -0.02 0 -0.67 0.15 -0.02 0 -0.67 0.14 -0.02 0 -0.67 0.11 -0.02 0 -0.68 0.1 -0.02 0 -0.68 0.07 -0.02 0 -0.67 0.06 -0.02 0 -0.68 0.03 -0.02 0 -0.68 0.01 -0.02 0 -0.62 -0.01 -0.06 0 -0.56 -0.02 -0.14 -0.01 -0.48 -0.04 -0.22 -0.02 -0.4 -0.04 -0.29 -0.03 -0.33 -0.04 -0.37 -0.06 -0.25 -0.03 -0.44 -0.08 -0.17 -0.03 -0.52 -0.11 -0.09 -0.01 -0.6 -0.14 -0.02 0 -0.61 -0.15 -0.06 -0.02 -0.54 -0.15 -0.14 -0.04 -0.47 -0.14 -0.21 -0.07 -0.39 -0.13 -0.29 -0.1 -0.31 -0.11 -0.36 -0.14 -0.23 -0.08 -0.44 -0.18 -0.16 -0.06 -0.5 -0.22 -0.08 -0.03 -0.58 -0.27 -0.01 0 -0.58 -0.28 -0.06 -0.03 -0.51 -0.26 -0.14 -0.07 -0.43 -0.23 -0.21 -0.12 -1.88 -1.13 -0.14 -0.08 -1.61 -1.12 -0.06 -0.05 -0.98 -0.75 -0.19 -0.16 -1.13 -0.95 -0.19 -0.16 -0.36 -0.34 -0.12 -0.1 -0.42 -0.4 -0.06 -0.05 -0.47 -0.46 0 -0.01 -1.36 -1.43 -0.16 -0.19 -0.27 -0.3c-1.52,-1.76 -2.85,-3.69 -3.97,-5.69l-0.12 -0.2 -0.23 -0.44c-1.22,-2.33 -2.15,-4.77 -2.68,-7.27l-745.29 0 0 -4.97 744.75 0c0,-5.35 1.94,-10.71 5.1,-15.38l0.03 -0.06c1.22,-1.8 2.63,-3.5 4.18,-5.05l0.02 -0.01 0.93 -0.9 0.14 -0.12 0.35 -0.32 0.2 -0.18 0.29 -0.26 0.27 -0.22 0.23 -0.2 0.34 -0.27 0.58 -0.46 0.11 -0.09 0.48 -0.36 0.04 -0.03 0.53 -0.39 0.03 -0.01 0.51 -0.36 0.09 -0.06 0.45 -0.3 0.16 -0.1 0.39 -0.25 0.23 -0.14 0.32 -0.2 0.31 -0.18 0.25 -0.15 0.38 -0.21 0.19 -0.1 0.45 -0.25 0.12 -0.06 0.53 -0.27 0.04 -0.02 0.58 -0.28 0.03 -0.01 0.56 -0.25 0.1 -0.05 0.49 -0.2 0.59 -0.24 0.25 -0.1 0.34 -0.13 0.33 -0.12 0.27 -0.09 0.41 -0.14 0.2 -0.06 0.48 -0.15 0.12 -0.03 0.56 -0.16 0.05 -0.01 0.61 -0.15 0.03 -0.01 0.58 -0.13 0 -537.38 -0.6 -0.13 -0.01 -0.01 -0.61 -0.15 -0.07 -0.01 -0.54 -0.16 -0.14 -0.04 -0.46 -0.14 -0.22 -0.07 -0.39 -0.13 -0.28 -0.09 -0.32 -0.12 -0.36 -0.13 -0.23 -0.1 -0.59 -0.24 -0.51 -0.21 -0.08 -0.04 -1.74 -0.84 -0.13 -0.06 -0.44 -0.24 -1.12 -0.64 -0.34 -0.2 -0.22 -0.14 -0.4 -0.25c-1.33,-0.86 -2.6,-1.82 -3.8,-2.86l-0.31 -0.26 -0.19 -0.18 -0.96 -0.89 -0.47 -0.45 0 -0.01 -0.46 -0.47 -0.06 -0.05 -0.84 -0.92 -0.16 -0.17 -0.27 -0.32c-0.56,-0.64 -1.09,-1.29 -1.59,-1.97l-0.05 -0.08c-3.63,-4.92 -5.89,-10.71 -5.89,-16.5 0,-2.34 0.36,-4.67 1.04,-6.92l0.01 0 0.2 -0.68 0.01 0c0.29,-0.9 0.62,-1.8 1.01,-2.67l0.01 0 0.6 -1.31 0.01 0 0.32 -0.65 0.01 0c0.78,-1.49 1.69,-2.96 2.72,-4.33l0.01 0c0.58,-0.78 1.2,-1.56 1.85,-2.3l0.01 0 1.51 -1.62 0.01 0 0.52 -0.52 0.01 0 0.53 -0.5 0.01 0 0.54 -0.5 0.01 0 0.55 -0.48 0.01 0 0.56 -0.47 0.01 0 0.57 -0.46 0.01 0c0.77,-0.6 1.57,-1.17 2.39,-1.7l0.01 0 0.61 -0.39 0.01 0 0.63 -0.38 0.62 -0.36 0.01 0 0.63 -0.35 0.01 0 0.63 -0.33 0.02 0 0.64 -0.31 0.01 0 0.64 -0.3 0.02 0 0.65 -0.28 0.01 0 0.65 -0.26 0.02 0 0.66 -0.25 0.01 0 0.66 -0.23 0.02 0 0.66 -0.21 0.02 0 0.66 -0.19 0.02 0 0.67 -0.17 0.02 0 0.67 -0.15 0.02 0 0.67 -0.14 0.02 0 0.67 -0.11 0.02 0 0.68 -0.1 0.02 0 0.68 -0.07 0.01 0 0.68 -0.06 0.02 0 0.68 -0.03 0.02 0 0.68 -0.01 0.02 0 0.62 0.01 0.06 0 0.56 0.02 0.14 0.01 0.48 0.04 0.21 0.02 0.41 0.04 0.29 0.03 0.33 0.04 0.37 0.06 0.24 0.03 0.45 0.08 0.17 0.03 0.52 0.11 0.09 0.01 0.6 0.14 0.02 0 0.61 0.15 0.05 0.02 0.55 0.15 0.14 0.04 0.47 0.14 0.21 0.07 0.39 0.13 0.28 0.1 0.32 0.11 0.35 0.14 1.33 0.54 0.09 0.03 0.57 0.27 0.02 0 0.58 0.28 0.05 0.03 0.52 0.26 0.13 0.07 0.44 0.23 0.2 0.12c1.06,0.59 2.1,1.24 3.1,1.95l0.01 0c0.99,0.71 1.95,1.47 2.88,2.29l0.19 0.16c0.98,0.88 1.91,1.81 2.79,2.79l0.16 0.19c2.26,2.57 4.15,5.45 5.5,8.5l0.03 0.09 0.22 0.5 0.06 0.16c0.62,1.52 1.12,3.07 1.46,4.66l328.76 0c2.72,-12.77 15.41,-24.29 28.32,-24.82l-4.02 0 0 -79.47 -44.7 0 0 -650.53 44.7 0 0 -193.68 14.88 0 0 193.68 49.66 0 0 650.53zm-173.77 -94.35l-49.66 0 0 79.46 -9.93 0 0 -79.46 -54.63 0 0 -134.07 54.63 0 0 -163.89 9.93 0 0 163.89 49.66 0 0 134.07zm2616.66 -993.16l-49.66 0 0 198.61 -14.88 0 0 -198.61 -49.66 0 0 -432.04 49.66 0 0 -79.45 14.88 0 0 79.45 49.66 0 0 432.04zm-173.78 -293l-49.65 0 0 213.53 -14.9 0 0 -213.53 -49.65 0 0 -288.02 49.65 0 0 -223.47 14.9 0 0 223.47 49.65 0 0 288.02zm-173.8 124.16l-54.6 0 0 79.45 -9.94 0 0 -79.45 -49.64 0 0 -516.46 49.64 0 0 -79.46 9.94 0 0 79.46 54.6 0 0 516.46zm-178.74 461.81l-44.68 0 0 79.44 -14.9 0 0 -79.44 -49.64 0 0 -903.78 49.64 0 0 -278.11 14.9 0 0 278.11 44.68 0 0 903.78zm-168.8 -64.55l-54.63 0 0 193.66 -9.93 0 0 -193.66 -54.6 0 0 -561.14 54.6 0 0 -74.49 9.93 0 0 74.49 54.63 0 0 561.14zm-178.74 203.58l-49.66 0 0 74.49 -14.9 0 0 -74.49 -44.68 0 0 -551.18 44.68 0 0 -228.44 14.9 0 0 228.44 49.66 0 0 551.18zm-173.81 273.15l-44.68 0 0 148.97 -14.9 0 0 -148.97 -54.6 0 0 -441.97 54.6 0 0 -79.47 14.9 0 0 79.47 44.68 0 0 441.97zm-173.77 228.42l-49.65 0 0 79.46 -14.9 0 0 -79.46 -49.66 0 0 -302.92 49.66 0 0 -74.49 14.9 0 0 74.49 49.65 0 0 302.92zm-173.8 223.48l-49.65 0 0 79.43 -14.88 0 0 -79.43 -44.7 0 0 -680.34 44.7 0 0 -263.2 14.88 0 0 263.2 49.65 0 0 680.34zm-178.73 -153.95l-44.68 0 0 79.46 -14.92 0 0 -79.46 -49.64 0 0 -1057.74 49.64 0 0 -74.47 14.92 0 0 74.47 44.68 0 0 1057.74zm-168.82 -144.01l-49.65 0 0 352.56 -14.9 0 0 -352.56 -49.65 0 0 -605.86 49.65 0 0 -79.45 14.9 0 0 79.45 49.65 0 0 605.86zm-173.78 -124.16l-54.62 0 0 79.46 -14.9 0 0 -79.46 -44.68 0 0 -645.57 44.68 0 0 -49.66 14.9 0 0 49.66 54.62 0 0 645.57zm-178.74 -292.98l-44.69 0 0 79.45 -14.91 0 0 -79.45 -49.65 0 0 -561.13 49.65 0 0 -273.13 14.91 0 0 273.13 44.69 0 0 561.13zm-2198.35 1089.24c28.19,140.06 -109.06,94.27 -111.7,91.41 -6.33,-6.81 -11.57,-11.86 4.25,-38.15 22.29,-37.02 57.82,-64.4 107.45,-53.26zm-1085.54 244.63c55.17,7.61 93.6,-6.95 126.69,-38.84 0.27,-8.93 -26.9,-98.47 -34.4,-111.9 -18.31,-32.75 -99.79,-15 -138.57,-14.63 -91.42,0.91 -23.14,43.61 -7.11,62.97 15.8,19.1 37.99,75.51 53.39,102.4zm1002.7 -616.13c-15.27,-37.42 8.78,-68.37 21.81,-92.96 15.62,-29.49 26.76,-61.79 42.91,-86.16 54.2,-4.62 62.96,18.22 83.62,51.32 34.24,54.85 91.55,92.41 90.35,181.02 -0.41,29.94 -11.24,89.86 -42.97,69.66 -26.04,-23.42 20.39,-62.63 -66.8,-153.5 -73.23,-76.32 -84.46,28.91 -128.92,30.62zm-472.4 -441.13c-15.41,-14.14 -34.96,-119.25 -44.49,-147.06 -15.05,-43.94 -84.17,-118.04 -25.98,-129.8 90.45,-18.26 120.92,255.8 70.47,276.86zm-814.81 -394.02l0.74 1135.15 -0.36 1.75c64.19,2.43 105.89,11.9 152.89,-16.38 5.94,-51.33 -26.23,-84.84 -4.86,-128.09 31.05,3.45 26.71,23.35 36.21,53.69 37.55,120.03 186.05,163.58 248.72,230.03 91.78,97.34 64.26,172.66 -62.6,215.67 -74.57,25.28 -104.93,14.45 -143.1,-29.36 -97.72,-112.13 -43.57,-162.95 -227.65,-156.55l-1.01 194.15c36.22,11.75 67.66,-10.56 92.89,20.62 15.34,18.98 26.98,47.98 44.26,72.05 79.93,111.42 192.61,57.98 335.75,1.5 55.94,-22.08 101.92,-56.09 168.17,-58.97 95.92,-4.18 102.09,-24.57 142.39,-90.49 84.01,-137.46 61.64,-152.95 5.82,-245.16 -14.51,-23.97 -27.34,-51.44 -38.5,-78.1 -16.28,-38.87 -10.92,-53.06 -48.35,-67.69 -34.46,-13.46 -58.73,-9.43 -86.24,3.53 5.28,86.53 151.97,213.06 103.93,317.9 -15.59,34.01 -36.11,70.73 -68.7,83.72 1.25,-45.55 25.68,-83.18 24.41,-130.79 -0.96,-35.96 -32.47,-77.31 -46.76,-104.01 -17.3,-32.3 -34.84,-63.7 -52.9,-96.36 -16.11,-29.13 -43.66,-59.22 -34.78,-100.09 65.14,-49.65 125.27,3.04 178.97,-98.83 17.97,-34.09 30.66,-59.83 43.74,-98.9 23.37,-69.85 9.59,-91.47 38.79,-98.36 22.24,63.49 -2.97,166.41 -35.92,223.98 -4.18,7.31 -15.04,22.13 -17.88,28.71 -41.27,95.43 150.57,22.05 152.51,21.59 15.9,-3.71 155.5,-20.81 165.19,-19.92 -5.91,22.1 -26.51,42.34 -40.75,73.5 -17.77,38.86 -9.03,52.05 -37.49,79.06 -28.87,27.4 -100.98,80.4 -78.07,142.34l54.33 -4.88c-6.32,34.26 -38.27,53.31 -45,85.89 -5.19,25.15 6.45,94.09 17.9,110.08 39.61,55.29 152.79,15.71 207.02,-3 103.96,-35.87 100.77,-33.15 227.85,-28.69 156.42,5.52 121.22,-161.25 247.64,-36.27 65.07,64.34 181.05,113.53 281.57,91.66 3.32,-34.73 -7.19,-32.92 -35.53,-46.65 -161.62,-78.28 -139.77,-129.97 -191.29,-229.23 -12.45,-23.95 -58.47,-88.85 -61.66,-103.29 83.97,19.5 110.6,112.77 162.21,177.31 54.08,67.65 170.14,134.09 224.19,86.25 -1.18,-28.6 -3.61,-22.25 -29.59,-35.03 -125.61,-61.78 -131.23,-165.01 -202.53,-237.27 -67.92,-68.84 -49.09,-46.38 -89.4,-163.28 -23.07,-66.86 -38.03,-124.44 -54.05,-192.37 -39.39,-166.94 -14.74,-242.62 -111.12,-386.51 -108.79,-162.43 -211.9,-281.51 -353.12,-397.58 -214.14,-176 -391.64,-389.4 -663.4,-214.62 -58.78,37.79 -91.93,57.33 -161.45,84.47 -61.94,24.17 -128.85,40.17 -188.18,64.36 -76.67,31.24 -97.71,58.33 -145.85,97.76zm8023.11 1259.36c-38.31,64.66 -60.61,125.66 43.96,146.87 54.47,11.05 70.33,3.92 85.52,-38.85 11.68,-32.9 24.13,-65.78 19.55,-109.86l-149.03 1.84zm-1106.13 -323.24c-51.93,-108.93 95.11,-223.1 129.24,-266.95 45.83,-58.88 58.92,-91.57 108.43,-17.6 40.61,60.68 68.59,99.25 33.91,134.68 -38.8,-1.43 -37.24,-18.55 -57.87,-49.05 -54.18,-1.76 -106.92,52.5 -132.58,78.13 -16.74,16.72 -32.33,39.58 -39.42,66.5 -9.76,37.04 -1.5,58.86 -41.71,54.29zm632.85 -711.59c-34.04,-60.08 40.04,-171.15 65.48,-203.74 37.18,-47.63 98.68,-128.41 164.14,-107.35 18.09,52.18 -8.89,64.47 -38.64,92.4 -24.67,23.19 -45.5,40.82 -69.49,64.39 -25.16,24.73 -41.4,44.39 -64.51,76.12 -12.67,17.42 -16.96,23.66 -25.75,41.04 -14.14,27.96 -13.01,30.92 -31.23,37.14zm848.37 1199.98l0.34 -137.57c-234.18,-7.47 -155.22,34.48 -226.64,133.33 -51.86,71.79 -223.2,-4.91 -248.32,-59.11 -22.9,-49.41 31.38,-91.74 54.24,-114.63 39.67,-39.73 46.34,-53.99 104.55,-76.22 62.37,-23.83 114.96,-74.43 138.26,-135.98 10.46,-27.65 9.28,-45.5 42.23,-45.27 20.06,60.52 -15.62,76.73 -16.23,122.21l152.35 -5.22 -0.38 -1266.24c-58.23,-27.23 -124.32,-48.88 -193.5,-65.26 -119.24,-28.21 -91.22,-20.2 -160.14,-93.61 -60.69,-64.64 -243.87,-173.51 -359.63,-92.15 -42.9,30.16 -94.71,80.43 -143.5,117.59 -133.67,101.83 -322.5,227.62 -433.84,328.93 -228.2,207.64 -269.69,291.91 -363.69,660.33 -49.09,192.38 -87.01,395.33 -221.19,541.28 -92.55,100.65 -126.17,76.53 -123.71,130.27 87.79,31.56 165.4,-15.03 213.37,-87.34 25.44,-38.36 104.98,-163.7 147.8,-167.63 -5.3,36.98 -32.13,68.29 -51.46,96.71 -25.58,37.64 -29.96,63.15 -48.94,98.28 -41.99,77.71 -147.74,125.49 -121.99,154.79 25.77,29.32 139.68,-13.21 192.28,-51.23 32.85,-23.73 111.26,-105.3 136.97,-112.64 57.71,18.23 69.86,91.19 163.58,78.31 104.88,-14.4 129.87,-7.03 211.55,22.85 38.73,14.16 137.03,64.45 172.71,41.32 93.53,-60.63 52.09,-126.39 54.9,-172.51 153.39,-8.51 38.59,-69.89 -15.6,-200.31 -41.6,-100.07 -133.33,-142.57 -137.45,-214.96 31.08,1.85 50.56,29.15 80.04,51.32 122.2,91.87 291.29,76.2 306.55,59.6 10.68,-25 -17.07,-69.57 -28.42,-97.01 -28.9,-69.95 -90.51,-290.41 -25.1,-330.24 25.01,15.5 18.2,24.48 20.5,61.08 10.21,162.12 34.51,272.39 170.71,357.45 119.04,74.35 -15,158.99 -75.29,280.33 -21.38,43.03 -13.83,77.07 -18.33,128.83 -112.13,-130.82 72.64,-259.59 84.53,-338.3 -19.82,-18.39 -46.98,-31.29 -81.77,-32.91 -37.9,27.95 -59.79,85.32 -81.93,124.52 -90.6,160.43 -74.54,125.93 -25.13,296.1 33.91,116.79 62.53,45.18 130.49,70.65 22.29,8.35 37.02,35.81 57.98,48.95 18.19,11.39 50.19,18.24 76.19,25.06 54.48,14.28 108.33,27.79 155.59,44.65 220.5,78.63 203.61,-98.57 234.23,-129.85 23.18,-15.41 32.05,-6.97 57.9,-16.68 20,-7.51 23.24,-19.66 42.34,-31.87z"/>
 </g>
</svg>
