<?xml version="1.0" encoding="utf-8"?>
<!-- Generator: Adobe Illustrator 24.0.2, SVG Export Plug-In . SVG Version: 6.00 Build 0)  -->
<svg version="1.1"
	 id="Слой_1" shape-rendering="geometricPrecision" image-rendering="optimizeQuality" text-rendering="geometricPrecision" xmlns:xodm="http://www.corel.com/coreldraw/odm/2003"
	 xmlns="http://www.w3.org/2000/svg" xmlns:xlink="http://www.w3.org/1999/xlink" x="0px" y="0px" viewBox="0 0 238.1 150.2"
	 style="enable-background:new 0 0 238.1 150.2;" xml:space="preserve">
<g id="Layer_x0020_1">
	<g id="_105553145196672">
		<path d="M1.2,75.1v74.3h117.9H237V75.1V0.8H119.1H1.2V75.1z M216.6,11.5c2.6,0.5,4,1.2,5.1,2.5c0.5,0.6,1.3,2.2,1.4,3.2
			c0.2,1.2,0.2,112.2,0,114.2c-0.3,3.5-1.6,5.7-4,6.8c-1.6,0.8-2.3,0.8-9.8,0.8c-7.9,0-7.6,0-6-1.2c1.3-1.1,3.3-3,4.5-4.6
			c3.6-4.6,5.5-9.5,6.3-15.4c0.2-1.8,0.2-6.6,0-8.4c-0.8-6.2-2.5-12.7-4.7-17.2c-0.2-0.4-0.5-1.1-0.8-1.7c-0.7-1.6-2.6-5.3-2.9-5.7
			c-0.1-0.2-0.3-0.4-0.3-0.5c0-0.1-0.4-0.7-0.8-1.4c-0.4-0.7-0.8-1.4-0.9-1.5c-0.1-0.4-4.3-6.5-5.4-8.1c-0.6-0.8-1.2-1.6-1.3-1.8
			c-0.4-0.6-4-5-4.2-5.2c-0.1-0.1-0.7-0.8-1.3-1.5c-2.9-3.5-9.9-10.7-13.5-13.8c-0.4-0.3-1-0.9-1.4-1.3c-1.1-1-4.4-3.8-6.3-5.3
			c-0.6-0.5-1.2-1-1.3-1c-0.1-0.1-0.5-0.4-0.9-0.7c-0.4-0.3-1.3-1-2.1-1.6c-1.3-1-4-3-6.7-4.9c-1.2-0.9-6-4.1-7.7-5.1
			c-0.3-0.2-0.8-0.5-1.1-0.7c-0.3-0.2-0.7-0.4-0.8-0.5c-0.1-0.1-1.4-0.8-2.8-1.7c-1.4-0.8-2.7-1.6-2.8-1.7c-0.2-0.1-0.9-0.5-1.6-0.9
			c-0.7-0.4-1.7-1-2.2-1.3c-0.5-0.3-1.3-0.7-1.7-0.9c-2.6-1.4-9.6-4.9-12.2-6c-0.4-0.2-1-0.5-1.5-0.7c-1.2-0.6-6.2-2.7-7.2-3
			c-3-1.1-5.1-2-5.1-2.1c0-0.1,0.1-0.2,0.5-0.2c0.3,0,23.3,0,51.1,0H215L216.6,11.5L216.6,11.5L216.6,11.5z M37.5,11.4
			c0.1,0.1-0.1,0.4-1,1.1C33.5,15,30.7,18.2,29,21c-0.4,0.7-1.7,3.3-2,4c-1.8,4.6-2.6,9.6-2.3,15.1c0.3,5.2,1.9,12.1,3.9,16.5
			c0.1,0.2,0.4,0.9,0.7,1.6c0.3,0.7,0.6,1.3,0.6,1.3s0.7,1.5,1.5,3.2c1.5,3,3.3,6.4,4.2,7.6c0.2,0.3,0.4,0.6,0.4,0.7
			c0,0,0.1,0.3,0.3,0.5c0.2,0.2,0.9,1.3,1.7,2.5c2,3.1,6.4,8.9,6.7,8.9c0.1,0,0.1,0.1,0.1,0.2c0,0.1,2,2.6,2.7,3.4
			c0.2,0.2,0.6,0.6,0.9,1c1.9,2.2,3.3,3.7,6,6.5c3.5,3.6,5.5,5.4,11,10.1c2.7,2.3,10,8,12.6,9.8c0.5,0.4,1.4,1,1.9,1.4
			c0.8,0.6,6.6,4.6,7.3,4.9c0.1,0.1,1.1,0.7,2.1,1.3c2.2,1.4,4.7,2.8,6.4,3.9c0.7,0.4,2.9,1.6,4.3,2.4c1.4,0.8,8.3,4.3,10.7,5.3
			c2.5,1.2,7.2,3.2,10.3,4.5c3,1.2,3.1,1.2,3.2,1.4c0.1,0.2-100.4,0.2-101.5,0c-3.1-0.5-4.6-1.9-5.4-5c-0.7-2.5-0.7,1-0.7-59
			c0-39.8,0.1-56.1,0.2-56.7c0.4-2.3,1-3.7,2.2-4.8c1-1,2.2-1.6,3.7-1.9C23.5,11.3,37.2,11.2,37.5,11.4L37.5,11.4z M81.7,12.6
			c4.5,0.4,8.1,0.9,12.1,1.7c1.4,0.3,2.7,0.5,2.8,0.6c1.4,0.2,8.5,2.2,12.2,3.4c2.1,0.7,6,2,6.5,2.3c0.2,0.1,1.4,0.6,2.8,1.1
			c2.3,0.9,4.4,1.8,5.9,2.5c5.3,2.4,9.9,4.7,14.4,7.1c2.2,1.2,3.5,2,3.7,2.1c0.1,0.1,0.5,0.3,0.8,0.5c1.1,0.6,7.1,4.5,8.7,5.5
			c2,1.3,4.2,2.9,5,3.6c0.4,0.3,1.4,1.1,2.4,1.7c1.7,1.2,3.8,2.9,4.8,3.8c1.2,1,1.9,1.5,2.1,1.7c0.2,0.1,0.3,0.2,0.4,0.3
			c0,0.1,0.5,0.4,1,0.8c6.8,5.8,14.7,14,19.3,19.9c5.6,7.3,9.6,14.1,12.5,20.9c1.8,4.4,2.8,7.9,3.6,12.8c0.3,2.3,0.3,7.4,0,9.4
			c-0.3,1.8-1,4.4-1.4,5.5c-1.8,4.8-5.1,8.9-9.5,11.9c-4,2.7-8.4,4.6-12.9,5.5c-5.4,1.2-8.1,1.5-14.5,1.5c-4.5,0-5.6-0.1-9.3-0.4
			c-1-0.1-2.9-0.3-3.7-0.5c-0.4-0.1-1.2-0.2-1.7-0.3c-3-0.4-3.9-0.6-7.6-1.5c-4.2-0.9-7.3-1.8-12.8-3.6c-4.4-1.4-10.5-3.8-13.4-5
			c-0.4-0.2-1.1-0.5-1.5-0.7c-9.2-4.1-20.2-10.3-28.1-15.8c-0.7-0.5-1.5-1.1-1.9-1.3c-0.9-0.6-7.4-5.4-8.1-6.1
			c-0.3-0.3-1-0.8-1.4-1.2c-0.5-0.3-1-0.8-1.2-0.9c-0.2-0.2-0.6-0.5-0.8-0.7c-0.5-0.4-0.7-0.5-3.3-2.8c-2.6-2.3-6.7-6.3-9.3-9.1
			c-4.8-5.1-10-11.6-12.9-16.1c-1.8-2.8-2.7-4.4-3.1-5c-0.2-0.4-0.5-0.8-0.5-0.9c-0.2-0.2-3.2-6.2-3.2-6.3c0,0-0.1-0.3-0.3-0.7
			c-1.1-2.4-2.2-5.9-2.9-8.9c-0.4-1.8-0.5-2.4-0.9-4.6c-0.2-1.4-0.2-7.4,0-8.8c1-6.2,3.3-10.8,7.5-14.9c2.4-2.3,4.2-3.6,7.4-5.1
			c1-0.5,1.9-0.9,2-0.9s0.3-0.1,0.5-0.2c0.8-0.4,5.2-1.9,6.8-2.2c3.4-0.7,5-1,9.2-1.3C72.2,12.4,78.5,12.5,81.7,12.6L81.7,12.6
			L81.7,12.6z"/>
		<path d="M175,22c-0.4,0.2-0.6,0.4-0.9,1.1c-0.4,0.8-0.4,1.1-0.5,2.6c0,1,0,3.7,0.1,5.9c0.1,3.8,0.2,4.3,0.4,4.9
			c0.5,1.4,1.3,1.9,2.5,1.9c0.8,0,1.1-0.1,2.3-1.1c0.5-0.4,0.9-0.2,1.9,1.2c0.5,0.7,1.6,1.9,2.4,2.7c2.1,2.2,4.1,3.2,6.3,3.4
			c1.3,0.1,2.2-0.1,3.5-0.7c1.1-0.5,1.4-0.5,1-0.1c-0.5,0.5-0.8,1.3-0.8,2.4c0,1.6,0.7,2.5,1.9,2.7c0.4,0,1.4,0.2,2.3,0.3
			c0.9,0.2,1.9,0.3,2.2,0.3s1.1,0.1,1.7,0.3c1.6,0.4,5.2,1,6,1c0.9,0,1.5-0.4,1.9-1.5c0.3-0.8,0.3-1,0.3-6.1c0-5.7-0.1-6-0.8-7.7
			c-0.5-1.1-0.6-1.2-1.5-1.3c-1-0.1-1.6,0-2.4,0.7c-1.1,0.8-1.1,0.8-2.4-0.9c-0.9-1.1-2.4-3-2.9-3.5c-1.5-1.5-4.2-2.7-6-2.7
			c-0.8,0-2.4,0.5-4,1.2c-0.6,0.3-0.6,0.3,0.1-0.8c0.4-0.6,0.5-0.8,0.4-1.5c0-0.5-0.1-1.1-0.2-1.3c-0.2-0.6-0.8-1.2-1.5-1.5
			c-0.6-0.3-11.7-2.1-12.6-2.1C175.6,21.7,175.2,21.9,175,22L175,22L175,22z M181.9,25.5c2,0.3,4.1,0.7,4.6,0.8
			c1.9,0.3,2,0.5,0.5,1.7c-1.5,1.3-1.8,1.5-1.7,1.9c0.1,0.3,2,2.6,5.5,6.7c1.8,2.1,3.1,3.7,3.2,4c0.1,0.4-0.1,0.6-1.1,1.3
			c-1.7,1.1-3.8,1.3-5.6,0.4c-1.2-0.6-2.8-2-4.3-4.1c-2.1-2.7-3-3.8-3.2-3.8c-0.1,0-0.8,0.5-1.5,1.1c-0.8,0.6-1.4,1-1.5,1
			c-0.2,0-0.3-0.4-0.4-4.2c-0.1-5.1-0.1-6.9,0.2-7.3C176.8,24.6,177,24.6,181.9,25.5L181.9,25.5L181.9,25.5z M196.1,31.2
			c1.6,0.6,2.8,1.7,6.2,6.1c1.4,1.8,1.5,1.9,1.9,1.7c0.2-0.1,0.8-0.6,1.4-1c1.1-0.9,1.4-1.1,1.6-0.7c0.2,0.3,0.4,10.3,0.2,10.9
			c-0.1,0.3-0.2,0.5-0.5,0.5c-0.3,0.1-3.2-0.4-7.7-1.2c-0.8-0.1-1.8-0.3-2.3-0.3c-1.6-0.2-1.5-0.5,0.2-2c1.6-1.3,1.6-1.5,0.2-3.1
			c-0.6-0.6-1.6-1.9-2.4-2.8c-0.8-0.9-1.8-2.1-2.3-2.7c-2.2-2.6-3-3.7-3-3.9c0-0.3,0.8-1,1.5-1.4C192.7,30.8,194.6,30.7,196.1,31.2
			L196.1,31.2z"/>
		<path d="M28.7,99.6c-0.2,0.2-0.5,0.6-0.7,0.9l-0.3,0.6v6c0,6.6,0,7.1,0.9,8c1.1,1.2,2.5,1.2,3.9,0c0.3-0.2,0.7-0.4,0.8-0.4
			c0.3,0,1.2,0.8,1.9,1.9c0.7,1.1,2.9,3.2,4,4c1.8,1.2,3.6,1.7,5,1.6c0.7-0.1,2.4-0.6,3.5-1c0.2-0.1,0.2-0.1,0,0.4
			c-1,1.6-1.1,2.5-0.5,3.7c0.4,0.9,1.1,1.3,2,1.3c0.4,0,1.3,0.1,2.2,0.3c4.8,0.9,8.8,1.5,9.7,1.5c0.9,0,1.5-0.3,1.9-1.1
			c0.3-0.7,0.3-0.7,0.3-6.5c0-5.7,0-5.9-0.3-6.8c-0.6-1.7-1.3-2.4-2.5-2.4c-0.7,0-1.1,0.1-2,0.8c-0.4,0.3-0.8,0.6-0.9,0.6
			c-0.2,0-1-0.9-1.5-1.5c-0.5-0.7-2.1-2.7-2.6-3.3c-1.1-1.2-3.7-2.6-5.2-2.9c-1.1-0.2-2.6,0-3.7,0.4c-0.8,0.3-1.2,0.3-1.2,0.1
			c0-0.1,0.1-0.3,0.3-0.6c0.5-1,0.3-2.4-0.5-3.3c-0.4-0.5-1.6-1.1-2.2-1.1c-0.2,0-1.1-0.1-1.9-0.3c-3-0.6-8.4-1.4-9.2-1.4
			C29.2,99.3,29,99.4,28.7,99.6L28.7,99.6L28.7,99.6z M33,102.6c5.6,1,7.7,1.3,8.2,1.4c0.5,0,0.6,0.1,0.7,0.4s0,0.4-0.2,0.5
			c-0.3,0.3-1.4,1.1-2,1.8c-0.5,0.5-0.6,0.9-0.2,1.3c0.1,0.1,0.7,0.9,1.3,1.6c1.4,1.6,2.6,3.1,4.9,5.8c1,1.2,2,2.4,2,2.5
			c0.3,0.5,0,1-0.8,1.5c-2.1,1.3-4.7,1.3-6.5,0c-1-0.7-2.1-1.8-4.1-4.4c-2-2.6-2.4-3-2.7-3c-0.2,0-1.3,0.9-2.2,1.6
			c-0.5,0.5-0.8,0.6-1,0.3c0-0.1-0.1-2.6-0.2-5.5c-0.1-4,0-5.5,0.1-5.7C30.6,102.3,30.9,102.3,33,102.6L33,102.6L33,102.6z
			 M49.6,108.8c1.7,0.5,2.9,1.6,5.3,4.7c0.5,0.6,1.1,1.4,1.5,1.9c0.3,0.4,0.8,1,1,1.2c0.4,0.5,0.4,0.5,0.8,0.2
			c0.2-0.1,0.8-0.6,1.4-1.1c0.5-0.4,1.1-0.8,1.2-0.8c0.5,0,0.5,0.3,0.6,5.8c0,4.8,0,5.4-0.2,5.6c-0.2,0.3-0.3,0.2-5.2-0.6
			c-2.5-0.4-5.4-0.9-6-1c0,0,0-0.1,0-0.3c0-0.3,0.5-0.8,1.7-1.9c0.5-0.4,0.9-0.8,0.9-0.9c0.2-0.3-0.1-0.9-0.6-1.4
			c-0.2-0.3-0.8-0.9-1.3-1.5s-1-1.2-1.1-1.3c-0.1-0.2-1.1-1.3-2-2.4c-1-1.2-1.8-2.2-1.9-2.2c0,0-0.5-0.6-1-1.2
			c-0.8-1-0.9-1.1-0.7-1.4c0.1-0.4,1.6-1.3,2.5-1.6C47.2,108.4,48.6,108.4,49.6,108.8L49.6,108.8z"/>
		<path d="M84.1,44.5c-0.3,0.2-0.7,0.5-0.7,0.7c-0.3,0.7-0.4,3.2-0.3,6c0.1,1.5,0.1,6.7,0.2,11.7l0.1,8.9l0.4,0.6
			c0.2,0.3,0.8,1.1,1.4,1.7s1.3,1.4,1.6,1.9c0.8,1.2,1.2,1.5,2.1,1.6c0.7,0.1,0.9,0,1.6-0.3c0.5-0.2,1.2-0.7,1.6-1
			c1.4-1.2,2.4-2,2.9-2.3l0.5-0.3l0.7,0.8c0.4,0.4,1.3,1.6,2.1,2.6c0.7,1,1.9,2.4,2.6,3.2c0.7,0.8,1.7,2,2.3,2.7
			c2.5,3.1,5.3,5,9,6.3c1.7,0.6,3.1,0.8,4.9,0.7c3.3-0.2,6.7-1.8,9.3-4.2c0.6-0.6,0.7-0.6,0.9-0.4c0.3,0.3,0.2,0.5-0.7,1.2
			c-0.4,0.3-1,0.8-1.3,1.1c-0.3,0.3-1,0.9-1.5,1.4c-1.6,1.4-1.9,1.8-2.1,2.4c-0.3,1.1,0,1.6,1.5,3.1c0.8,0.8,1.6,1.8,1.9,2.3
			s0.8,1,1,1.2c0.7,0.5,1.9,0.9,3,1c0.6,0.1,1.9,0.2,3,0.4c1.1,0.2,2.5,0.4,3.3,0.5c0.7,0.1,1.8,0.3,2.4,0.4
			c0.6,0.1,1.9,0.4,2.9,0.5c1,0.2,2.6,0.4,3.6,0.6c4.6,0.9,6,1.1,7.3,1.1c2,0,2.5-0.4,2.9-2.3c0.4-1.8,0.4-3.1,0.2-5.8
			c-0.2-2-0.2-4.8-0.3-11.2c-0.1-8.1-0.1-8.6-0.3-9.2c-0.3-0.7-3.7-4.3-4.5-4.7c-1.1-0.7-2.6-0.3-4.2,1.1c-1.2,1.1-2.9,2.3-3.1,2.3
			c-0.1,0-1.5-1.6-3-3.5c-5.3-6.7-9.4-10.2-13.5-11.6c-1.1-0.4-2.8-0.7-3.9-0.8c-3.2-0.3-7.4,1.3-10.2,3.9c-0.7,0.6-1.1,0.8-1.2,0.5
			c-0.1-0.2,1.8-2,3.3-3.2c1.3-1,1.7-1.4,2-2.2c0.3-0.7,0.2-1.7-0.2-2.5c-0.4-0.8-3.8-4.2-4.7-4.7c-0.4-0.2-1.1-0.4-1.7-0.5
			c-0.5-0.1-1.8-0.3-2.8-0.4c-1-0.2-2.7-0.4-3.8-0.6c-1.1-0.1-2.6-0.4-3.3-0.5c-0.7-0.2-2.7-0.5-4.3-0.7c-1.6-0.2-4.2-0.6-5.7-0.9
			C85.9,44.2,84.9,44.1,84.1,44.5L84.1,44.5L84.1,44.5z M90.9,50.7c0.7,0.1,2,0.3,2.8,0.5c4.4,0.8,5.5,1,7.7,1.3
			c2.4,0.4,8.8,1.4,10.5,1.7c1,0.2,1.2,0.4,0.7,0.9c-0.2,0.1-0.8,0.7-1.3,1.1c-0.5,0.5-1.2,1-1.5,1.3c-0.3,0.2-0.6,0.5-0.6,0.5
			c-0.1,0.1-0.7,0.6-1.4,1.2c-1.2,1-1.5,1.3-1.5,1.7c0,0.2,0.7,1.1,2.5,3.1c1.2,1.4,1.1,1.3,3.4,4c1,1.2,2.5,3,3.4,4
			c0.9,1,2.1,2.4,2.6,3.1c0.6,0.7,1.6,1.9,2.3,2.7c0.7,0.8,1.4,1.6,1.5,1.8c0.2,0.2,0.6,0.7,0.9,1.1c1.6,1.9,1.9,2.3,1.9,2.5
			c0,0.5-3.3,2.7-5,3.4c-2.3,0.9-4.8,1-7,0.2c-3.6-1.2-6-3.1-8.5-6.2c-0.2-0.3-1.3-1.6-2.4-3c-1.1-1.4-2.2-2.8-2.5-3.2
			c-2.1-2.7-3.3-4.2-3.5-4.2c-0.3-0.1-0.6,0.1-1.5,0.9c-0.7,0.6-1.6,1.3-3.6,2.9c-1.3,1-1.9,1.3-2,0.8c0-0.1-0.1-5.5-0.1-12
			c0-12.6-0.1-12.2,0.7-12.2C89.5,50.5,90.2,50.6,90.9,50.7z M127.5,63.3c1.2,0.4,2.7,1.2,3.7,1.8c0.3,0.2,0.6,0.4,0.7,0.4
			c0.2,0,2.5,2,3.3,3c0.8,1,1.5,1.7,5.9,7.5c3.3,4.2,3.4,4.3,3.8,4.2c0.2-0.1,1.1-0.8,2-1.5c3.2-2.7,4.1-3.3,4.4-3.3
			c0.2,0,0.3,0,0.3,0.1c0.1,0.8,0.2,24,0,24.1c-0.1,0.2-0.9,0.1-5.4-0.7c-2.1-0.4-5.1-0.9-6.6-1.1c-7.2-1.1-12.1-2-12.1-2.2
			c0-0.1,0.5-0.5,1.1-1c0.6-0.5,1.3-1.2,1.6-1.4c0.3-0.3,1.3-1.1,2.1-1.8c1.6-1.4,2-1.8,1.7-2.3c-0.1-0.2-2.1-2.7-4.3-5.1
			c-0.3-0.3-0.8-1-1.2-1.4c-0.3-0.4-1.2-1.4-1.9-2.3c-0.7-0.8-1.6-1.9-2-2.4s-0.8-1-0.9-1.1c-0.1-0.2-0.6-0.8-1.1-1.3
			c-1.1-1.3-3.1-3.7-3.2-3.8c0,0-0.5-0.6-1.1-1.3c-1.8-2.1-2.6-3.3-2.6-3.6c0-0.4,0.8-1.1,2.3-2.1c1.4-0.9,2.5-1.3,4.8-1.9
			c0.2,0,1,0,1.9,0C126,62.9,126.6,63,127.5,63.3L127.5,63.3L127.5,63.3z"/>
	</g>
</g>
</svg>
