<?xml version="1.0" encoding="utf-8"?>
<!-- Generator: Adobe Illustrator 24.0.2, SVG Export Plug-In . SVG Version: 6.00 Build 0)  -->
<svg version="1.1"
	 id="Слой_1" shape-rendering="geometricPrecision" image-rendering="optimizeQuality" text-rendering="geometricPrecision" xmlns:xodm="http://www.corel.com/coreldraw/odm/2003"
	 xmlns="http://www.w3.org/2000/svg" xmlns:xlink="http://www.w3.org/1999/xlink" x="0px" y="0px" viewBox="0 0 238.1 150.2"
	 style="enable-background:new 0 0 238.1 150.2;" xml:space="preserve">
<style type="text/css">
	.st0{fill-rule:evenodd;clip-rule:evenodd;}
</style>
<g id="Layer_x0020_1">
	<path class="st0" d="M174.2,7.2l1.5,1.4c0.1,0.1,0.1,0.1,0.2,0.1c0.1,0.2,0.1,0.1,0.3,0.3c0.1,0.1,0.1,0.1,0.3,0.3
		c0,0.2,0.2,0.3,0.4,0.4c0.3,0.2,1,1.1,1.2,1.1c0.1,0.1,0,0.1,0.1,0.2l0.1,0.1c0.1,0.1,0.1,0.2,0.3,0.2c0.1,0.2,0.5,0.6,0.7,0.7
		c0.1,0.1,0.3,0.2,0.4,0.4s0.2,0.3,0.4,0.3c0.1,0.1,0,0.1,0.1,0.1c0.1,0.1,0,0.1,0.1,0.2l0.1,0.1c0.1,0.1,0.1,0.1,0.3,0.2
		c0,0.1,0,0.1,0.1,0.1c0.1,0.3,0.5,0.5,0.7,0.7c0.1,0.1,0.6,0.6,0.7,0.7c0.1,0.1,0.1,0.1,0.2,0.2c0.1,0.1,0.1,0.1,0.2,0.1
		c0.1,0.1,0.2,0.2,0.4,0.3c0.1,0.2,0.8,0.8,1,1l0.3,0.3c0.1,0.1,0,0,0.1,0.1c0,0.1,0,0.1,0.1,0c0.1,0.2,0,0.1,0.1,0.2l0.1,0.1
		c0.1,0.1,0.2,0.2,0.3,0.3c0,0.1,1.1,1.2,1.3,1.2c0.1,0.2,0.3,0.3,0.4,0.5c0.2,0.1,0.3,0.3,0.5,0.4l0.1,0.2c0.1,0.1,0.1,0.1,0.1,0.1
		l0.8,0.7c0.1,0.2,1,1,1.1,1.1c0.1,0.2,0.3,0.3,0.5,0.5c0.2,0.2,0.3,0.3,0.5,0.4c0.1,0.2,0.4,0.4,0.6,0.6c0.2,0.2,0.3,0.4,0.5,0.5
		l0.9,0.9c0.2,0.3,0.4,0.4,0.6,0.6c0.2,0.2,0.4,0.5,0.6,0.6l0.9,0.8c0.1,0.3,0.4,0.5,0.6,0.7c0.3,0.2,0.4,0.4,0.6,0.6
		c0.1,0.1,0.2,0.2,0.4,0.4c0.1,0.1,0.1,0.1,0.2,0.2c0.1,0.1,0.1,0.1,0.2,0.1c0.1,0.2,0.2,0.2,0.3,0.4c0.1,0.1,0.2,0.2,0.3,0.3
		c0.2,0.2,0.4,0.5,0.7,0.6c0.1,0.2,0.5,0.6,0.7,0.7c0,0.1,0,0.1,0.1,0.1c0.1,0.2,1.1,1.1,1.3,1.2c0,0.1,0,0.1,0.1,0.1l0.3,0.3
		c0.1,1.6,0,3.2,0,4.9v69.3c0,2.1-0.1,1-0.5,1.9c-0.1,0.1-1,1.2-1,1.3c-0.1,0.1,0,0-0.1,0.1l-0.4,0.6l-0.2,0.2
		c-0.1,0.1-0.1,0.2-0.2,0.2c-0.2,0.3-1,1.3-1.1,1.5c-0.1,0.1,0,0-0.1,0.1c-0.1,0.1,0,0-0.1,0.1l-1.2,1.6c-0.1,0.2-0.1,0.1-0.1,0.2
		c-0.1,0.1-0.1,0-0.2,0.1l-0.3,0.3c-0.1,0.2-0.3,0.3-0.4,0.5c-0.1,0.1-0.3,0.4-0.4,0.5c-0.1,0.2-0.3,0.4-0.4,0.6l-0.3,0.4
		c-0.2,0.3-0.7,0.9-0.9,1.2c-0.1,0-0.1,0.1-0.2,0.2l-0.1,0.1c-0.1,0.1,0,0-0.1,0.1l-2.4,3.1c-0.2,0.3-0.6,0.7-0.8,1.1
		c0,0,0,0-0.1,0.1l0,0c-0.1,0.2-0.2,0.3-0.3,0.4c-0.2,0.1-0.5,0.5-0.6,0.8c-0.2,0.2-0.5,0.6-0.6,0.8c-0.2,0.1-0.3,0.4-0.4,0.5
		c-0.1,0.2-0.3,0.4-0.4,0.5c-0.2,0.1-0.7,0.8-0.8,1c-0.1,0.1-0.3,0.3-0.4,0.5l-2.4,3.1c-0.1,0.1-0.1,0.1-0.1,0.2
		c-0.1,0.1-0.5,0.6-0.5,0.7c-0.1,0.1-0.4,0.5-0.5,0.7c-0.1,0.1-0.5,0.6-0.5,0.7c-0.1,0-0.1,0,0,0.1c-0.2,0.1-0.3,0.4-0.5,0.6
		c-0.1,0.2-0.4,0.5-0.5,0.7l-0.4,0.5l-0.1,0.1c-0.1,0.1,0,0-0.1,0.1c-0.1,0-0.1,0-0.1,0.1c-0.2,0.2-1.2,1.6-1.3,1.7
		c-0.2,0.1-1.3,1.9-1.7,2.1v-35c0.2-0.1,0.6-0.5,0.7-0.7c0.1,0,0.1,0,0.1,0c0.2-0.1,0.9-0.7,1-0.9c0.1,0,0.1,0,0.1-0.1
		c0.2-0.1,0.4-0.3,0.5-0.5c0.2-0.1,0.4-0.3,0.5-0.5c0.2-0.1,0.9-0.7,1-0.9c0.2-0.1,0.4-0.4,0.6-0.5c0.2-0.2,0.4-0.4,0.5-0.6
		c0.1,0,0.1,0,0.1-0.1c0.2-0.1,0.3-0.2,0.4-0.3c0.1-0.1,0.1-0.1,0.2-0.2c0.1-0.1,0.1-0.1,0.2-0.2c0.1,0,1.2-1,1.3-1.2
		c0.2-0.1,0.3-0.3,0.5-0.4c0.1-0.1,0.3-0.2,0.4-0.4c0.2-0.1,0.5-0.4,0.7-0.6c0.2-0.2,0.5-0.4,0.6-0.6c0.2-0.1,0.2-0.2,0.4-0.3
		c0.1-0.1,0.1-0.1,0.2-0.2c0.1-0.1,0.1,0,0.2-0.2l0.2-0.1c0.1-0.1,0.1-0.1,0.2-0.2c0.3-0.3,1-0.8,1.1-1.1c0.2-0.1,0.3-0.2,0.4-0.4
		c0.2-0.2,0.1-1.9,0.1-2.2V50.5c0-0.8,0.1-3.8,0-4.5c0-0.3-0.7-0.8-0.7-0.8s-1-1-1.2-1c-0.1-0.1-0.2-0.2-0.3-0.3
		c-0.1-0.1-0.1-0.1-0.3-0.2c-0.2-0.2-0.4-0.4-0.6-0.5l-0.9-0.8c-0.1-0.2-0.5-0.5-0.7-0.6c-0.3-0.2-0.4-0.5-0.7-0.6
		c-0.1-0.1-0.5-0.5-0.7-0.6c-0.1-0.1-0.6-0.6-0.8-0.7c-0.3-0.2-0.5-0.5-0.8-0.7c-0.1-0.1-0.2-0.1-0.3-0.2c-0.1-0.1-0.1-0.1-0.2-0.2
		c-0.2-0.3-1.6-1.4-2-1.8c-0.3-0.3-4-3.7-4.2-3.8c-0.1,0.1-0.1,0.1-0.1,0.2c-0.2,0-0.9,0.7-1,0.9c-0.2,0.2-2.8,2.5-2.8,2.6
		c-0.2,0.1-0.5,0.3-0.6,0.6c-0.2,0.1-1.4,1.2-1.4,1.3c-0.2,0.1-0.7,0.6-0.9,0.8c-0.2,0-0.1,0.1-0.3,0.3l-0.9,0.8l0,0l0,0l-0.3,0.2
		c-0.1,0.1-0.2,0.1-0.2,0.2l-0.4,0.4c-0.1,0.1,0,0-0.1,0.1c-0.1,0,0,0-0.1,0.1c-0.1,0-0.1,0.1-0.1,0.1l-0.5,0.5
		c-0.1,0.1-0.2,0.1-0.2,0.2c-0.2,0.1-0.2,0.1-0.4,0.3c-0.1,0.1-0.2,0.2-0.3,0.3c-0.2,0.2-0.5,0.4-0.6,0.6c-0.2,0.1-0.7,0.6-0.8,0.7
		c-0.2,0.1-0.9,0.8-1.2,1l-0.3,0.4c-0.2,0-0.2,0.1-0.4,0.3c-0.4,0.4-0.2,0.8-0.2,1.7v2.2v1.9V54v2V58v1.9V62v1.9V66v1.9V70v1.9V74
		v1.9v2.2v1.9v2.2v1.9v2.2v1.9v2.2c0,0.4,0,0.8,0,1.2c0,0.4-0.1,0.6,0.3,0.8c0.1,0.1,0,0,0.1,0l0.2,0.2c0.1,0.1,0.1,0.1,0.2,0.2
		c0.4,0.3,0.9,0.9,1.3,1.2c0,0.1,0.1,0.2,0.2,0.3l0.1,0.1c0.1,0.1,0.1,0,0.1,0.1c0.1,0.2,1.4,1.4,1.6,1.5c0,0.1,0.2,0.2,0.3,0.3
		c0,0,0.1,0.1,0.2,0.1c0.1,0.1,0,0,0.2,0.1c0.1,0.1,0.1,0.1,0.2,0.2c0.1,0.1,0.1,0.1,0.2,0.2c0.3,0.3,0.8,0.9,1.1,1
		c0,0.1,0.5,0.6,0.7,0.7c0.1,0.2,0.2,0.2,0.3,0.4c0.3,0.3,0.8,0.8,1,0.9c0,0.1,0.6,0.7,0.8,0.8c0.1,0.3,0.4,0.4,0.6,0.7
		c0.2,0.2,0.4,0.5,0.7,0.6c0.1,0.1,0.2,0.2,0.4,0.4c0.1,0.1,0.1,0.1,0.2,0.2l0.2,0.1c0.3,0.5,0.9,0.5,0.9,1.3c0,0.8,0,1.5,0,2.3
		v13.2c0,5.9,0.1,11.8,0,17.6v1.6c-0.2-0.1-2.6-3.5-2.9-3.6c-0.1-0.2-0.6-0.9-0.8-1c0-0.1-0.7-0.9-0.8-1.1c-0.2-0.3-0.4-0.5-0.6-0.8
		c-0.2-0.2-0.4-0.7-0.7-0.8c0-0.1,0,0-0.1-0.1l-0.1-0.1c-0.1-0.1-0.1-0.1-0.2-0.2c-0.1-0.2-1.3-1.8-1.6-2.2l-0.8-1
		c-0.1-0.2-0.3-0.3-0.4-0.5l-0.3-0.4l0,0l0,0l0,0c-0.1-0.1-0.4-0.6-0.5-0.7c-0.1-0.2-0.8-1.2-1-1.3c0-0.2-0.3-0.5-0.5-0.7
		c-0.1-0.2-0.4-0.6-0.5-0.6c-0.1-0.2-0.2-0.3-0.3-0.4c-0.1-0.1-0.2-0.3-0.3-0.4c0-0.2-1.9-2.5-2.3-3l-0.8-0.9
		c-0.1-0.2-0.3-0.5-0.4-0.6c0-0.1-1-1.3-1.1-1.5c-0.2-0.3-0.4-0.5-0.6-0.7l-0.4-0.5c-0.1-0.1-0.1-0.1-0.2-0.2c0-0.1,0,0,0-0.1
		l-0.2-0.2c-0.1-0.1-0.1-0.2-0.2-0.3c-0.1-0.2-1.3-1.8-1.6-2.1c-0.1-0.2-1.4-1.9-1.6-2.1c0-0.1,0,0-0.1-0.2c0-0.1-0.1-0.1-0.1-0.1
		c-0.1-0.1-0.1-0.2-0.2-0.2c0-0.1-1-1.4-1.2-1.6c0-0.1,0,0-0.1-0.2l-0.1-0.1c-0.1-0.1-0.1-0.2-0.2-0.2c-0.1-0.7,0-1.8,0-2.4V87.7
		c-0.1-18.6,0.1-37.1,0-55.7c0-1,0-0.5,0.3-0.9l0.2-0.1c0.2-0.2,1-0.9,1.1-1.1c0.2-0.1,0.3-0.3,0.5-0.4c0.2-0.2,0.4-0.3,0.5-0.5
		l1.1-1.1c0.2-0.1,1-0.8,1.1-1c0.2,0,0.5-0.5,0.8-0.7l0.2-0.2c0.2-0.1,1.1-0.9,1.2-1.1l0.3-0.2c0.1-0.1,0.1-0.1,0.2-0.2l0.3-0.3
		c0.1-0.1,0,0,0.1-0.1c0.3-0.1,0.4-0.4,0.7-0.6c0.2-0.2,0.5-0.4,0.6-0.6c0.2-0.1,0.7-0.6,0.8-0.8c0.3-0.1,0.5-0.4,0.7-0.6
		c0.2-0.2,0.5-0.4,0.6-0.7l0.2-0.2c0.1-0.1,0.1-0.1,0.2-0.2c0.2-0.2,0.3-0.2,0.3-0.4c0.3-0.2,0.5-0.4,0.8-0.7
		c0.2-0.2,0.5-0.5,0.7-0.7c0.1,0,0.1,0,0.2-0.1s0.4-0.3,0.5-0.5c0.2-0.1,0.6-0.5,0.8-0.7c0.2-0.2,0.6-0.5,0.7-0.7
		c0.1-0.1,0.2-0.1,0.3-0.2l0.2-0.3c0.1-0.1,0.1-0.1,0.3-0.2c0.3-0.3,1.3-1.2,1.4-1.4c0.1,0,0.1-0.1,0.2-0.2l0.1-0.1
		c0.1-0.1,0,0,0.1-0.1c0.2-0.1,1-0.9,1.3-1.2c0.2-0.2,0.3-0.3,0.4-0.4l0.3-0.3c0.3-0.1,0.7-0.6,1-0.9l0.8-0.7c0.1-0.1,0,0,0.1-0.1
		c0.1,0,0,0.1,0.1-0.1c0.1-0.1,0.1-0.1,0.1-0.1c0.1,0,0.1,0,0.1-0.1c0.2-0.1,0.7-0.6,1-0.8c0.2-0.2,0.3-0.3,0.4-0.4
		c0.2-0.2,0.3-0.3,0.4-0.5c0.1,0,0.1,0,0.1-0.1c0.1,0,0,0,0.1,0c0.1-0.1,0,0,0-0.1c0.2-0.1,0.9-0.8,1-0.9l1-1
		C174.2,7.1,174.2,7.1,174.2,7.2L174.2,7.2z M144.7,37.1V39v2.2V43v2.2V47v2.2V51v2.2V55v2.2v1.9v2.2v1.9v2.2v1.9v2.2v1.9v2.2v1.9
		v2.2v1.9v2.2v1.9v2.2v1.9v2.2v1.9v2.2v1.9v2.2v1.9v2.2v1.9v2.2v1.9v2.2c0,0.4,0,0.8,0,1.2c0,0.4,0.2,0.7,0.4,0.8
		c0.1,0.2,0.3,0.4,0.4,0.6c0.1,0.1,0.1,0.2,0.2,0.3l0.2,0.3c0,0.2,0.4,0.8,0.6,0.9c0.1,0.3,0.5,0.8,0.7,1.1l1.4,2.1
		c0.1,0.2,0.2,0.3,0.4,0.5c0.1,0.2,0.3,0.4,0.4,0.5c0,0.1,0.4,0.7,0.5,0.7l0.1,0.1c0.1,0.1,0.7,1.1,0.8,1.2c0,0.2,1,1.6,1.2,1.7
		c0,0.1,0,0.1,0.1,0.1c0.1,0.2,0,0.1,0.2,0.2c0,0.1-0.1,0.1,0,0.1c0,0.1,1.2,1.8,1.3,1.9c0.1,0.2,0.5,0.8,0.6,0.9
		c0,0.2,0.7,1.1,0.8,1.2c0.1,0.3,0.4,0.5,0.5,0.8V144c0,0.1,0,0.2,0,0.3c0,0.3,0,0.3-0.1,0.3c-0.1-0.2-0.9-1.3-1.1-1.6
		c-0.1-0.1-1-1.5-1.1-1.6c-0.1-0.3-0.5-0.9-0.7-1.1L152,140c0-0.1-0.1-0.2-0.2-0.3c0-0.1-0.1-0.1-0.1-0.2c-0.1-0.1,0,0,0-0.1
		c0,0-0.1,0-0.1-0.1c-0.2-0.4-0.6-0.9-0.8-1.2c-0.1-0.2-0.7-1.1-0.8-1.2c-0.1-0.2-0.7-1-0.9-1.3c-0.1-0.2-0.2-0.3-0.3-0.4
		c0-0.1,0,0-0.1-0.1c0-0.1,0,0,0-0.1l-0.6-0.8c-0.1-0.1,0-0.1-0.1-0.1c-0.1-0.2-0.4-0.7-0.6-0.8c0-0.1,0.1-0.1-0.1-0.2
		c0-0.2-2.6-3.8-2.6-3.8c-0.1-0.1-0.1-0.2-0.2-0.3c-0.1-0.1-0.1-0.2-0.2-0.3c-0.1-0.2-0.2-0.4-0.4-0.6c0-0.2-0.1-0.3-0.3-0.5
		c-0.1-0.1-0.1-0.1-0.1-0.2c-0.1-0.1-0.1-0.2-0.2-0.2c-0.1-0.3-0.5-0.8-0.7-1.1l-0.5-0.8c-0.1-0.2-0.1-0.2-0.2-0.2
		c0-0.2-0.5-0.9-0.7-1.1c-0.2-0.2-0.6-1-0.8-1.1c0-0.2-0.1-0.2-0.2-0.3c-0.1-0.1-0.1-0.1-0.1-0.2c-0.1-0.1,0-0.1-0.1-0.1l-0.9-1.4
		c-0.1-0.1,0,0-0.1-0.1c0-0.2-1-1.5-1.1-1.6c-0.1-0.2-0.2-0.3-0.3-0.5c-0.1-0.2-1.2-1.9-1.4-1.9l-0.5-0.8l0,0l0,0
		c0-0.1-0.7-1.1-0.8-1.3c-0.2-0.3-0.4-0.6-0.6-0.8c-0.2-0.2-0.4-0.6-0.6-0.8v-0.4v-2.2v-1.9v-1.9v-2v-2.2v-1.9v-2.2v-1.9v-2.2v-1.9
		v-2.2v-1.9v-2.2v-1.9v-2.2v-1.9v-2.2v-1.9v-2.2v-1.9v-2.2v-1.9v-2.2v-1.9v-2.2v-1.9v-2.2v-1.9V55v-1.9V51v-1.9V47
		c0-0.3-0.1-1.7,0.1-1.9l1.7-1.6c0.8-0.8,1.9-1.9,2.6-2.5l2.6-2.5c0.2-0.2,0.5-0.4,0.7-0.6c0.2-0.2,0.4-0.4,0.7-0.7l1.2-1.1
		c0,0,0,0,0.1-0.1s0,0,0.1-0.1c0.2-0.1,0.3-0.3,0.5-0.4c0.1-0.1,0.1-0.1,0.2-0.2s0.1-0.1,0.2-0.2h0.1L144.7,37.1L144.7,37.1z
		 M203.6,35.1l0.4,0.4c0.1,0.1,0,0.1,0.1,0.1l0.1,0.1l1.4,1.3c0.1,0.1,0.1,0.1,0.2,0.2c0,0.1,0.2,0.3,0.3,0.3c0,0.1,0,0.1,0.1,0.1
		c0.2,0.4,0.5,0.6,0.8,0.8c0.2,0.2,0.7,0.7,0.9,0.8c0,0.1,0,0,0,0.1l0.2,0.1c0.1,0.1,0,0,0.1,0l0.3,0.3c0.5,0.4,1.1,1.2,1.7,1.6
		c0,0.1,0,0.1,0.3,0.3c0.1,0.1,0.2,0.2,0.3,0.3l3.2,3.1c0.3,0.3,0.4,0.2,0.4,0.9c0,0.5,0,0.9,0,1.4v66.2l-0.1,0.4
		c-0.1,0.1-1,1.4-1.1,1.5c-0.2,0.1-0.3,0.3-0.4,0.5s-0.2,0.3-0.4,0.5c-0.3,0.4-0.5,0.7-0.7,1.1c-0.2,0.4-1.3,1.9-1.4,2.1
		c0,0,0,0-0.1,0.1c-0.1,0.1,0,0,0,0.1l-0.7,0.9c-0.2,0.3-0.5,0.7-0.6,1c-0.1,0.1-0.7,0.9-0.7,1l-0.7,1l-0.2,0.2
		c-0.2,0.3-1.1,1.6-1.1,1.7c-0.1,0.1,0,0-0.1,0.1c-0.1,0.1,0,0-0.1,0.2c-0.1,0.1-0.9,1.3-1.1,1.5c-0.1,0.1-0.1,0.1-0.1,0.3
		c-0.1,0.1-0.1,0.1-0.2,0.3l-0.7,1l-0.5,0.7c-0.1,0.1,0,0,0,0.1c-0.1,0-0.1,0,0,0.1c-0.2,0.1-2.6,3.7-2.7,4l0,0
		c-0.1,0.1-0.5,0.7-0.5,0.8c-0.2,0.1-0.3,0.4-0.4,0.6c-0.2,0.2-0.3,0.4-0.4,0.7c-0.1,0.1-0.2,0.3-0.3,0.4c-0.1,0.2-0.2,0.3-0.4,0.5
		c-0.2,0.3-0.5,0.7-0.7,1c-0.2,0.3-1.3,1.9-1.4,2c-0.1,0,0,0-0.1,0.1l-0.5,0.8c-0.1,0.1-0.3,0.3-0.4,0.5c-0.1,0.1-0.1,0.2-0.2,0.3
		c-0.1,0.2-0.1,0.2-0.2,0.3c-0.2,0.1-0.2,0.3-0.4,0.5l-0.7,1c-0.2,0.2-0.3,0.4-0.3,0.6c-0.2,0.1-0.1,0.1-0.3,0.3
		c-0.2,0.2-0.5,0.9-0.7,0.9v-1.3v-1.9v-2.2v-1.9v-6.2v-1.9v-2.2c0-0.4,0-0.7,0-1.1c0-0.2,0-0.3,0.1-0.4c0.1-0.2,0.2-0.2,0.2-0.3
		c0.1,0,0,0,0.1-0.1l0.1-0.1c0.1-0.1,0.1-0.1,0.1-0.2c0.2-0.3,0.7-1,0.8-1.2c0.1-0.1,0.3-0.4,0.3-0.5l0.1-0.1l0,0l1.4-2.1V121
		c0.2-0.2,1.3-1.9,1.3-2c0.2-0.1,0.3-0.4,0.4-0.5c0.1-0.2,0.3-0.4,0.4-0.6c0.2-0.1,0.6-0.8,0.7-1c0.1,0,0.8-1.1,1-1.3
		c0.1-0.2,0.3-0.3,0.3-0.5l0,0l0,0c0.1-0.1,0,0,0.1-0.1c0.2-0.2,1.3-1.8,1.3-1.9c0.2-0.1,0.7-0.9,0.7-1.1c0.1-0.1,0.1,0,0.1-0.1
		c0.1-0.1,0.2-0.2,0.3-0.4c0.1-0.1,0.1-0.1,0.1-0.2c0.1-0.1,0.1-0.1,0.1-0.2c0.1-0.1,0.5-0.6,0.5-0.7c0.1-0.3,0-37.1,0-37.3
		c0-3.4-0.1-38.3,0.1-38.5l0,0L203.6,35.1L203.6,35.1z"/>
</g>
</svg>
