<?xml version="1.0" encoding="utf-8"?>
<!-- Generator: Adobe Illustrator 26.0.3, SVG Export Plug-In . SVG Version: 6.00 Build 0)  -->
<svg version="1.0" id="Слой_1" xmlns="http://www.w3.org/2000/svg" xmlns:xlink="http://www.w3.org/1999/xlink" x="0px" y="0px"
	 viewBox="0 0 239.5 150.2" style="enable-background:new 0 0 239.5 150.2;" xml:space="preserve">
<style type="text/css">
	.st0{fill:#070707;}
</style>
<g>
	<g>
		<path class="st0" d="M165.4,74.6c0.6-0.2,1.3-0.1,1.9-0.1c4.9,0,9.7,0,14.6,0c1.3-0.1,2,1.2,2.9,1.9c0.7,0.8,1.9,1.4,1.9,2.6
			c0,6.4,0,12.7,0,19.1c0.1,0.9-0.5,1.8-1.3,2.1c-0.6,0.1-1.2,0-1.9,0.1c-6.8,0-13.6,0-20.4,0c-1.1,0-1.8-1.2-1.8-2.2
			c0-6.3,0-12.5,0-18.8c-0.1-1.4,1.1-2.1,1.9-3C164,75.8,164.5,75,165.4,74.6z M165.2,75.6c-0.2,0.4-0.2,0.8-0.2,1.2
			c0,5,0,9.9,0,14.9c0,0.4,0.1,0.9,0.2,1.3c0.5,0.1,1,0.2,1.6,0.2c5.1,0,10.1,0,15.2,0c0.4,0,1-0.1,1-0.6c0.2-1.1,0-2.2,0.1-3.3
			c-0.1-4.2,0-8.4,0-12.6c0.1-0.5-0.2-0.8-0.5-1.2c-5.2,0-10.3,0-15.5,0C166.4,75.4,165.7,75.2,165.2,75.6z M183.8,76.5
			c0,5.2,0,10.3,0,15.5c0,0.5-0.2,0.9-0.3,1.4c0.8,1.8,1.6,3.6,2.5,5.4c0.1-6.4,0-12.7,0.1-19.1C186.2,78.1,184.6,77.5,183.8,76.5z
			 M162.1,79.6c0,6.3,0,12.7,0,19c0.9-1.7,1.6-3.5,2.4-5.3c-0.6-0.9-0.4-2.1-0.4-3.1c0.1-4.6-0.1-9.1,0.1-13.7
			C163.4,77.5,161.9,78.2,162.1,79.6z M162.7,99.5c4.9,0.2,9.8,0,14.7,0.1c2.7-0.1,5.3,0.1,8-0.1c-0.8-1.9-1.7-3.8-2.5-5.6
			c-5.9,0.1-11.7,0.1-17.6,0C164.4,95.7,163.5,97.6,162.7,99.5z"/>
	</g>
	<path class="st0" d="M173.3,79.5c0.5,0,1,0,1.5,0c0.4,2.3,1,4.6,1.2,6.9c0.5-2.3,0.8-4.6,1.1-6.9c0.6,0,1.2,0,1.7,0
		c-0.7,3.2-1.3,6.3-1.9,9.5c-0.6,0-1.1,0-1.7,0c-0.5-2.2-0.9-4.4-1.2-6.7c-0.5,2.2-0.8,4.4-1.3,6.7c-0.6,0-1.1,0-1.7,0
		c-0.6-3.2-1.2-6.3-1.8-9.5c0.6,0,1.2,0,1.9,0c0.4,2.3,0.6,4.7,1,7C172.3,84.1,172.8,81.8,173.3,79.5z"/>
	<g>
		<path class="st0" d="M135.4,104.7c0.4-0.2,0.9-0.2,1.3-0.2c5.1,0,10.3,0,15.4,0c1.2-0.2,1.9,1,2.8,1.7c0.8,0.9,2.2,1.5,2.1,2.9
			c0,6.3,0,12.7,0,19c0,1-0.8,2.2-1.9,2.1c-7.2,0-14.4,0-21.5,0c-1.3,0.1-2.1-1.2-2-2.4c0-6.1,0-12.2,0-18.3c0-0.8,0.1-1.6,0.7-2.1
			C133.4,106.6,134.3,105.5,135.4,104.7z M135.4,106.3c0,5.3,0,10.7,0,16c-0.1,0.6,0.6,0.8,1,0.8c5,0,9.9,0,14.9,0
			c0.6,0,1.2,0,1.8-0.1c0.4-0.8,0.2-1.6,0.3-2.4c0-4.3,0-8.6,0-12.9c0-0.8,0.1-1.6-0.3-2.3c-5.5-0.1-11,0-16.6,0
			C135.8,105.2,135.3,105.7,135.4,106.3z M154.2,106.5c0,5.1,0,10.1,0,15.2c0,0.6-0.2,1.1-0.3,1.6c0.8,1.8,1.6,3.6,2.4,5.3
			c0-6.4,0-12.8,0-19.3C156.4,108,154.9,107.4,154.2,106.5z M132.5,109.4c0,6.4-0.1,12.9,0,19.3c0.8-1.8,1.6-3.5,2.4-5.3
			c-0.3-0.5-0.4-1.1-0.4-1.7c0-5.1,0-10.1,0-15.2C133.8,107.4,132.4,108,132.5,109.4z M133,129.4c6.8,0.1,13.7,0,20.5,0.1
			c0.7,0,1.5,0,2.2-0.1c-0.8-1.9-1.7-3.7-2.5-5.6c-5.9,0.1-11.7,0-17.6,0C134.7,125.7,133.9,127.5,133,129.4z"/>
	</g>
	<g>
		<path class="st0" d="M164.9,104.8c0.4-0.2,0.8-0.3,1.3-0.3c5.2,0,10.5,0,15.7,0c1.2-0.1,2,1.1,2.8,1.8c0.8,0.8,2.1,1.5,2,2.8
			c0,6.4,0,12.7,0,19.1c0.1,1.1-0.9,2.3-2,2.2c-7.2,0-14.4,0-21.6,0c-1.1,0-1.8-1.1-1.8-2.1c0-6.3,0-12.5,0-18.8
			c0-0.7,0.2-1.4,0.8-1.9C163,106.6,163.9,105.6,164.9,104.8z M165,106.2c0,4.7,0,9.4,0,14c0,0.9-0.1,1.8,0.2,2.7
			c0.6,0.1,1.2,0.1,1.8,0.1c5,0,9.9,0,14.9,0c0.5,0,1.1-0.2,1-0.8c0-5.5,0-11,0-16.5c-0.1-0.1-0.3-0.4-0.5-0.5c-5.5,0-11.1,0-16.6,0
			C165.4,105.2,164.9,105.7,165,106.2z M162.1,109.3c0,6.4,0,12.8,0,19.2c0.9-1.7,1.6-3.5,2.4-5.2c-0.3-0.5-0.4-1.1-0.4-1.6
			c0-5,0-10.1,0-15.1C163.4,107.4,162,108,162.1,109.3z M183.8,106.5c0,5.1,0,10.1,0,15.2c0,0.6-0.1,1.1-0.3,1.6
			c0.9,1.8,1.6,3.6,2.5,5.4c0.1-6.4,0-12.7,0-19.1C186.1,108.1,184.6,107.4,183.8,106.5z M162.7,129.4c6.9,0.1,13.7,0,20.6,0
			c0.7,0,1.4,0,2.1-0.1c-0.9-1.9-1.7-3.7-2.6-5.6c-5.9,0.1-11.7,0.1-17.6,0C164.4,125.7,163.5,127.5,162.7,129.4z"/>
	</g>
	<g>
		<path class="st0" d="M194.6,104.7c0.4-0.3,0.8-0.2,1.3-0.3c5.2,0,10.5,0,15.7,0c1.1,0,1.8,1,2.6,1.7c0.8,0.9,2.2,1.5,2.2,2.9
			c0,4.7,0,9.3,0,14c0,1.9,0.1,3.7,0,5.6c-0.2,0.9-1,1.7-1.9,1.6c-7.2,0-14.4,0-21.6,0c-1.1,0-1.9-1.1-1.9-2.1c0-6.1,0-12.2,0-18.2
			c0-0.6,0-1.1,0.2-1.7c0.3-0.7,1-1.1,1.5-1.6C193.3,106,193.9,105.3,194.6,104.7z M194.6,106.3c0,5.2,0,10.5,0,15.7
			c-0.1,0.6,0.4,1.1,1,1.1c4.9,0,9.7,0,14.6,0c0.7,0,1.4,0,2.1-0.1c0.1-0.4,0.3-0.8,0.3-1.3c0-5,0-9.9,0-14.9c0-0.4,0.1-0.9-0.3-1.3
			c-0.4-0.3-0.9-0.2-1.3-0.2c-5.1,0-10.3,0-15.4,0C195,105.2,194.5,105.7,194.6,106.3z M191.7,109.3c0,6.4,0,12.8,0,19.2
			c0.9-1.7,1.6-3.5,2.4-5.2c-0.2-0.4-0.4-0.9-0.4-1.3c0-5.1,0-10.3,0-15.4C193.1,107.4,191.7,108,191.7,109.3z M213.4,106.5
			c0,5.2,0,10.3,0,15.5c0,0.5-0.2,0.9-0.4,1.3c0.8,1.8,1.6,3.6,2.5,5.4c0.1-6.4,0-12.9,0-19.3C215.6,108,214.2,107.4,213.4,106.5z
			 M194.8,123.8c-0.8,1.9-1.7,3.7-2.5,5.6c2.5,0.1,5,0,7.5,0.1c5,0,10.1,0,15.1,0c-0.7-1.9-1.7-3.8-2.5-5.7
			C206.6,123.9,200.7,123.8,194.8,123.8z"/>
	</g>
	<g>
		<path class="st0" d="M143.2,109.5c0.8,0,1.5,0,2.3,0c0.7,3.2,1.5,6.3,2.2,9.5c-0.6,0-1.2,0-1.8,0c-0.1-0.8-0.3-1.6-0.5-2.4
			c-0.7,0-1.5,0-2.2,0c-0.1,0.8-0.3,1.6-0.5,2.4c-0.6,0-1.1,0-1.7,0C141.7,115.8,142.5,112.6,143.2,109.5z M143.5,115
			c0.5,0,1,0,1.6,0c-0.3-1.3-0.5-2.7-0.8-4C144.1,112.3,143.8,113.7,143.5,115z"/>
	</g>
	<g>
		<path class="st0" d="M200.7,109.4c1.6,0.1,3.5-0.4,4.8,0.8c1.1,1.2,1.1,3,1.1,4.5c0,1.3-0.3,2.9-1.5,3.7c-1.3,0.8-2.9,0.5-4.3,0.5
			C200.7,115.8,200.7,112.6,200.7,109.4z M202.4,110.8c0,2.2,0,4.5,0,6.7c0.8,0,1.8-0.1,2-1c0.4-1.6,0.5-3.3,0-4.9
			C204.1,110.9,203.1,110.9,202.4,110.8z"/>
	</g>
	<path class="st0" d="M171.8,110.5c0.9-1.3,2.9-1.4,4.1-0.4c0.6,0.5,0.6,1.3,0.8,2c-0.5,0-1.1,0-1.6,0c-0.1-0.4-0.3-0.7-0.4-1.1
		c-0.2-0.1-0.6-0.2-0.8-0.3c-0.9,0.2-1.2,1.5-0.4,2.1s1.9,0.9,2.6,1.6c1.1,1.2,1,3.4-0.5,4.2c-1.1,0.6-2.6,0.6-3.6-0.2
		c-0.6-0.5-0.8-1.4-1-2.1c0.6,0,1.1,0,1.7,0c0.1,0.7,0.5,1.5,1.3,1.4c1.2,0.1,1.4-1.6,0.7-2.2c-0.9-0.8-2.1-1-2.9-1.9
		C171.2,112.6,171.3,111.4,171.8,110.5z"/>
</g>
</svg>
