<?xml version="1.0" encoding="utf-8"?>
<!-- Generator: Adobe Illustrator 26.0.3, SVG Export Plug-In . SVG Version: 6.00 Build 0)  -->
<svg version="1.0" id="Слой_1" xmlns="http://www.w3.org/2000/svg" xmlns:xlink="http://www.w3.org/1999/xlink" x="0px" y="0px"
	 viewBox="0 0 239.5 150.2" style="enable-background:new 0 0 239.5 150.2;" xml:space="preserve">
<g>
	<path d="M119.9,35c-0.3,0.2-0.6,0.4-0.7,0.8c-0.5,1.4-1.2,2.8-1.4,4.3c0.2,0,0.5-0.1,0.7-0.1C119.1,38.4,120.1,36.8,119.9,35z"/>
	<path d="M181.2,36c-0.1,0-0.4-0.1-0.6-0.1c0.2,1.1,0.6,2.2,1.2,3.2C182.1,38,181.4,37,181.2,36z"/>
	<path d="M180.2,41.7c-0.7-1.6-0.9-3.5-1.8-5c-0.2,1.8,0.6,3.6,1.3,5.2C179.9,41.9,180.1,41.8,180.2,41.7z"/>
	<path d="M121.5,39.8c0-0.3,0.1-0.6,0.3-0.8c0.2-0.6,0.3-1.3,0.4-2c-0.7,0.2-0.8,1-1,1.6c-0.2,0.9-0.7,1.8-0.8,2.7
		C121.1,41.2,121.3,40.5,121.5,39.8z"/>
	<path d="M177.6,42.7c-0.2-1.4-0.6-2.7-1-4.1c-0.1-0.5-0.5-0.7-0.9-1c0.2,1.4,0.5,2.7,1,4C176.9,42.1,177.1,42.5,177.6,42.7z"/>
	<path d="M124.4,41.9c0,0.3-0.1,0.8-0.1,1.1c0.9-0.3,0.9-1.4,1.1-2.2c0.5-0.1,0.6-0.4,0.3-0.8c0.3-0.7,0.5-1.5,0.2-2.2
		C124.9,38.9,125,40.6,124.4,41.9L124.4,41.9z"/>
	<path d="M175.1,40.9c0.2,0.1,0.5,0.2,0.6,0.3c-0.3-1.1-0.4-2.5-1.4-3.3c0,0.4,0.1,0.9,0.2,1.3C174.6,39.8,174.8,40.3,175.1,40.9z"
		/>
	<path d="M127.5,38.6c-0.1-0.1-0.3-0.3-0.5-0.4c-0.4,0.9-0.7,1.8-0.9,2.8c0.1,0.1,0.3,0.4,0.4,0.5C126.9,40.5,127.3,39.6,127.5,38.6
		z"/>
	<path d="M118.8,45l-0.5-0.1c-0.2,0.6-0.7,1.3-0.3,1.9C118.8,46.7,118.7,45.6,118.8,45z"/>
	<path d="M118.1,49c0.1,0.2,0.2,0.6,0.2,0.9c0.1-0.1,0.4-0.3,0.5-0.4c0.1-0.2,0.2-0.6,0.2-0.8c0.2-0.5,0.5-1,0.8-1.5
		c0.1-0.2,0.2-0.5,0.3-0.7c0-0.1,0-0.3,0-0.4c0-0.2,0.1-0.6,0.1-0.8c-0.1,0-0.4,0-0.6,0c-0.3,0.8-0.5,1.8-1.2,2.5
		C118.5,48.2,118.5,48.8,118.1,49z"/>
	<path d="M179.2,46l-0.2,0.5c0.3,1.1,0.4,2.4,1.3,3.2c0-0.6,0-1.3-0.1-1.9C180.1,47.1,180.1,46.1,179.2,46z"/>
	<path d="M125.5,47.6c-0.2,0-0.5-0.1-0.6-0.2c-0.5,1.4-0.8,2.8-0.7,4.2C125.1,50.5,125.1,49,125.5,47.6z"/>
	<path d="M176.6,51.5c-0.4-1.3-0.5-2.7-1.3-3.8c-0.2,1.4,0.5,2.7,1,4C176.4,51.6,176.5,51.6,176.6,51.5z"/>
	<path d="M126.3,54.6c0.3-1.9,0.9-3.7,1.5-5.4c0.1-0.5,0.1-0.9-0.5-1.1l-0.2,0.7c-0.4,2.3-1.5,4.5-1.5,6.9
		C125.9,55.4,126.1,55,126.3,54.6z"/>
	<path d="M115.2,70.4c0-2.9,0.4-5.7,0.8-8.6l-0.5,0.4c-0.8,3.4-0.9,7-1,10.5c0.1,0,0.4,0.1,0.5,0.1C115.1,72,115.2,71.2,115.2,70.4z
		"/>
	<path d="M150.4,73.4c-0.3,0.4-0.6,0.8-0.8,1.2c-0.1,0.6-0.1,1.2-0.2,1.7c0.3-0.2,0.6-0.3,1-0.5c0.2,1.7-0.7,3.3-0.6,5
		c0.3-0.6,0.6-1.2,0.9-1.8c0-0.3,0-0.5,0-0.8c0-0.8,0.1-1.7,0.2-2.5c-0.2,0-0.6,0-0.9,0C150.2,75,150.3,74.2,150.4,73.4z"/>
	<path d="M187,81.6c0.3-1.8,0.6-3.6,0.6-5.4c0.1-0.4-0.1-0.8-0.4-1c-0.2,1.6-0.2,3.2-0.5,4.7c-0.1,0.6-0.1,1.2-0.2,1.8
		c0,0.5,0,1,0,1.5C186.8,82.7,187,82.2,187,81.6z"/>
	<path d="M121.7,89.9c1-0.8,0.5-2.4-0.4-3.1c0.1-0.7,0.2-1.5,0-2.2c-0.3-1.1-0.3-2.4-1.2-3.3c-0.1,0.9-0.1,1.9,0.2,2.8
		c0.2,0.7,0.5,1.4,0.8,2.1c-0.1,0.1-0.3,0.2-0.4,0.3c-1.2-0.6-2.9,0.4-2.9,1.7c-0.1,0.7,0.2,1.3,0.5,1.9
		C119.2,90.8,120.8,90.9,121.7,89.9z M120.8,87.2c1.2,0.7,0.6,2.3-0.6,2.6l-0.1,0.2c-0.6-0.4-1.6-0.6-1.5-1.5
		C118.4,87.3,119.9,87,120.8,87.2z"/>
	<path d="M181.9,81.5c-0.1,1.5-0.7,2.9-0.7,4.3c0.7-0.7,0.9-1.7,1.1-2.6C182.3,82.7,182.6,81.9,181.9,81.5z"/>
	<path d="M120,85.9c-0.1-0.7-0.2-1.3-0.3-1.9c-0.1,0-0.3-0.1-0.4-0.1c0.1-0.5,0.1-1,0.1-1.5c-0.2-0.1-0.5-0.2-0.7-0.2
		c0.2,1,0.4,2.1,0.5,3.1C119.4,85.5,119.7,85.7,120,85.9z"/>
	<path d="M94.2,97.1C94.1,97.1,94,97,94,97c-1.3,0.9-2.8,1.7-3.7,3.1c1.5-0.6,2.5-2,3.9-2.8C94.2,97.3,94.2,97.2,94.2,97.1z"/>
	<path d="M94.3,98.2c-1.1,0.6-2.2,1.3-2.8,2.5c1.1-0.5,2.1-1.3,3-2.2C94.5,98.4,94.4,98.2,94.3,98.2z"/>
	<path d="M198.7,102.7c1,1,2.5,1,3.7,1.4c0-0.1-0.1-0.3-0.2-0.4C201.1,103.3,199.9,103,198.7,102.7z"/>
	<path d="M95.2,105.1c0.8-0.6,1.9-0.8,2.6-1.5C96.8,103.5,95.4,104.1,95.2,105.1z"/>
	<path d="M98.1,104.4c-1,0.2-2.1,0.5-2.5,1.5C96.4,105.5,97.5,105.3,98.1,104.4z"/>
	<path d="M195.3,108.3c0,0.1,0.1,0.4,0.2,0.5c1.2,0.4,2.4,0.7,3.6,0.7c0.1,0.1,0.2,0.3,0.3,0.5c0.1-0.1,0.2-0.3,0.3-0.4
		c-0.9-0.3-1.8-0.6-2.7-0.8C196.4,108.6,195.9,108.4,195.3,108.3z"/>
	<path d="M190.7,113.2c-0.9-0.4-1.8-0.7-2.8-1c-2.7-0.8-5.4-1.4-8.1-1.7c3.1,1.3,6.4,1.8,9.7,2.6
		C189.9,113.2,190.3,113.2,190.7,113.2z"/>
	<path d="M193.1,110.7c0.5,0.6,1.2,0.8,2,1c1.1,0.3,2.3,0.5,3.4,0.5c-0.1-0.1-0.3-0.4-0.3-0.5C196.4,111.3,194.7,111.1,193.1,110.7z
		"/>
	<path d="M197.7,113.3c-0.1-0.1-0.2-0.3-0.3-0.4c-1-0.2-2.1-0.2-3.1-0.4c-0.7-0.2-1.4-0.3-2.1-0.5c0.2,0.3,0.4,0.6,0.8,0.7
		C194.6,113.1,196.1,113.6,197.7,113.3z"/>
	<path d="M119.3,40.8c0.3-0.3,0.6-0.6,0.7-1c0.4-1.2,1.1-2.4,1.2-3.8c-0.1,0.1-0.4,0.2-0.5,0.3c-0.5,1.1-0.6,2.2-1.1,3.3
		C119.3,40,119.3,40.4,119.3,40.8z"/>
	<path d="M122.3,42.3c0-0.2,0-0.5,0-0.7c0.4-0.9,0.8-1.9,1.1-2.9c0-0.2,0.1-0.4,0.2-0.6c0-0.2,0-0.7,0-0.9c-0.8,0.2-0.7,1.2-1,1.9
		C122.3,40.1,121.5,41.3,122.3,42.3z"/>
	<path d="M126.8,43.5c1.1,0,0.9-1.5,1.1-2.2C126.9,41.6,127.1,42.8,126.8,43.5z"/>
	<path d="M181,45.7c-0.2,0-0.5,0-0.6,0c0.1,0.5,0.2,1,0.3,1.5l0.1,0.2c0.3,0.8,0.6,1.6,0.8,2.3c0.2,0.4,0.5,0.7,0.8,1.1
		c-0.1-0.6-0.2-1.2-0.3-1.8C181.7,48,181.3,46.9,181,45.7z"/>
	<path d="M119.5,51.1c0.1-0.1,0.3-0.2,0.4-0.3c0.6-1.6,1.6-3.3,1.4-5c-0.1,0-0.4,0.1-0.5,0.1c-0.3,1.6-1,3.1-1.3,4.7V51.1z"/>
	<path d="M123.2,50.5c0.1-0.4,0.2-0.8,0.3-1.2c0.2-0.7,0.4-1.4,0.6-2.1c-0.2-0.1-0.5-0.2-0.7-0.3c-0.1,0.5-0.3,1-0.4,1.5
		c-0.1,0.6-0.2,1.3-0.4,2C122.8,50.4,123.1,50.4,123.2,50.5z"/>
	<path d="M178.5,46.7c-0.2,0-0.5,0-0.6,0c0,0.4,0.1,0.9,0.1,1.3c0.1,0.6,0.3,1.1,0.4,1.7c0.2,0.2,0.5,0.4,0.7,0.6
		C179.1,49.1,178.9,47.9,178.5,46.7z"/>
	<path d="M185,48.4l-0.1-0.2c-0.2-0.3-0.4-0.6-0.6-1c-0.1,0.2-0.3,0.5-0.4,0.7c0.4,0.8,0.7,1.6,1.1,2.4c0.1-0.3,0.2-0.8,0.3-1
		C185,49.1,184.9,48.8,185,48.4z"/>
	<path d="M126.8,48.4c-0.1-0.1-0.2-0.4-0.3-0.5c-0.9,1.1-1,2.7-1.1,4.1C126.4,51.1,126.3,49.6,126.8,48.4z"/>
	<path d="M175,49.9c-0.2-0.6-0.4-1.2-0.7-1.7c0,0.3,0,1,0,1.4c0.6,1.9,1,3.8,1.6,5.7c0.2,0,0.5,0,0.6,0
		C176,53.4,175.5,51.6,175,49.9z"/>
	<path d="M125.3,52.4c-0.7-0.2-0.3,0.8-0.4,1.2C125.3,53.4,125.8,52.8,125.3,52.4z"/>
	<path d="M183.3,55.2c-0.2-0.7-0.1-1.8-0.8-2.2c-0.6,0.5,0.2,1.5,0.2,2.2C182.9,55.3,183.2,55.2,183.3,55.2z"/>
	<path d="M181.2,55.6c0.1,0,0.3,0.1,0.4,0.1c0.1,0.8,0.2,1.5,0.4,2.3c0.1,0,0.2,0,0.3,0c0.2-1.3-0.3-2.7-0.6-4
		c-0.1,0-0.4-0.1-0.5-0.1c0.1,0.5,0.1,0.9,0,1.4c-0.3-0.4-0.5-0.8-0.8-1.1c0,1.6,0.4,3.1,0.8,4.6C182,57.9,181.1,56.6,181.2,55.6z"
		/>
	<path d="M189.7,58.7c0.1,0.4,0.2,0.7,0.4,1.1c0.3,1,0.5,2,0.8,3.1c0.1,0.1,0.3,0.3,0.4,0.5c0.1-0.5,0.1-1,0.1-1.5v-0.2
		c-0.3-0.3-0.4-0.8-0.4-1.2c-0.7-2-1.2-4-2-6c-0.1-0.4-0.5-0.5-0.8-0.6c0.4,1.3,0.9,2.5,1.2,3.9C189.7,58,189.8,58.3,189.7,58.7z"/>
	<path d="M124.2,61.4c0,0.7-0.1,1.5-0.2,2.2s-0.2,1.3-0.1,2c0.3,0,0.5-0.2,0.5-0.6c0.2-0.9,0.3-1.9,0.4-2.8
		c-0.1-0.6-0.1-1.2,0.2-1.8c0.1-0.6,0.2-1.3,0.3-1.9c-0.4,0.4-0.7,0.7-1,1.1C124.5,60.3,124.4,60.9,124.2,61.4z"/>
	<path d="M186.6,61.5c-0.1-0.1-0.3-0.2-0.4-0.2l-0.1,0.2c0.3,1.4,0.1,3.2,1.1,4.4C187.2,64.4,186.9,63,186.6,61.5z"/>
	<path d="M115.7,70.8c0.2,0.2,0.3,0.4,0.5,0.6c0-1.2,0.1-2.5,0.2-3.7c0-0.9,0.1-1.8,0.2-2.7c0.1-0.9,0.2-1.7,0.3-2.6
		c-0.7,0.4-0.7,1.3-0.9,2C115.7,66.5,115.7,68.7,115.7,70.8z"/>
	<path d="M186,65.1c0-0.9-0.1-1.8-0.2-2.8C185.1,62.9,185.2,64.4,186,65.1z"/>
	<path d="M118.7,70.1c-0.1-2.5,0.5-4.9,0.4-7.4c-1.1,0.7-0.8,2.2-1,3.3c0,1.7-0.3,3.5,0.2,5.2C118.7,71,118.7,70.5,118.7,70.1z"/>
	<path d="M117.2,87.9c-0.3-1.1-0.1-2.6-1-3.5C116.3,85.7,116.2,87.2,117.2,87.9z"/>
	<path d="M180.2,36.3c-0.2-0.1-0.6-0.3-0.8-0.4C179.1,36.5,179.9,36.8,180.2,36.3z"/>
	<path d="M122.3,36.8c0.2-0.5,0-0.7-0.5-0.5C121.6,36.8,121.8,37,122.3,36.8z"/>
	<path d="M124.7,37.8c-1,0.1-0.8,1.4-1,2.1C124.7,39.9,124.5,38.5,124.7,37.8z"/>
	<path d="M174.2,40.2c-0.2-0.1-0.5-0.2-0.7-0.2l-0.2,0.2c0.1,0.2,0.3,0.6,0.4,0.8C173.8,40.8,174,40.4,174.2,40.2z"/>
	<path d="M122.8,42.6c0.9-0.3,1-1.4,1.1-2.1C123,40.7,123.1,41.9,122.8,42.6z"/>
	<path d="M124.2,43.6c-0.8-0.2-1.5-0.5-2.3-0.8c-0.4,0-0.8-0.2-1.1-0.4c-0.8-0.4-1.6-0.8-2.3-1.3c0.1,0.2,0.2,0.5,0.2,0.6
		c0.5,0.4,1.1,0.7,1.7,1.1c2.5,1.2,5.3,2.2,8.1,1.6c-0.1-0.1-0.4-0.3-0.5-0.4C126.8,43.9,125.5,44,124.2,43.6z"/>
	<path d="M173.9,41.1c0,0.1,0.1,0.4,0.1,0.6c0.1,0.7,0.3,1.5,1,1.9c-0.1-0.7-0.3-1.4-0.6-2.1C174.3,41.3,174,41.2,173.9,41.1z"/>
	<path d="M175.3,41.5c0,0.6,0.1,1.1,0.5,1.6C176.6,42.9,176.1,41.1,175.3,41.5z"/>
	<path d="M125.6,43.3c0.2,0,0.5-0.1,0.7-0.2c0.1-0.5,0.2-0.9,0.3-1.4C125.6,41.6,125.7,42.6,125.6,43.3z"/>
	<path d="M173.6,43.2c0.3-0.3,0-1-0.4-0.7C172.8,42.7,173.2,43.4,173.6,43.2z"/>
	<path d="M117.4,44.3c-0.2,0-0.5,0.1-0.7,0.2c-0.6,1.2-1,2.5-1.3,3.8c0.1,0.1,0.2,0.3,0.3,0.4C116.3,47.3,116.8,45.8,117.4,44.3z"/>
	<path d="M183.9,45.1c-0.2-0.1-0.4-0.3-0.6-0.4L183,45c0.2,0.7,0.4,1.3,1,1.7C184,46.2,183.9,45.6,183.9,45.1z"/>
	<path d="M118,48.1c-0.1-0.1-0.2-0.4-0.3-0.5c-0.9,0.7-1,2-1,3.1C117.4,49.9,117.7,49,118,48.1z"/>
	<path d="M115,50.9c0.2-0.5,0.3-1,0.5-1.5c-0.1,0-0.4-0.1-0.5-0.1c-0.4,1-0.6,2.1-1.2,3.1C114.8,52.7,114.7,51.4,115,50.9z"/>
	<path d="M120.6,51.6c0.3,0,0.6-0.1,0.8-0.2c0-0.3,0-0.8,0-1.1C120.9,50.6,120.6,51,120.6,51.6z"/>
	<path d="M177.1,53.3c-0.1-0.4-0.1-0.9-0.2-1.3C176.3,52.3,176.4,53.2,177.1,53.3z"/>
	<path d="M119,55.8c0.4-0.8,0.6-1.6,0.7-2.5c-0.7,0-0.8,0.8-0.9,1.3c-0.1,1.1-0.7,2-0.6,3.1C119.3,57.7,119,56.5,119,55.8z"/>
	<path d="M177.4,55.1l0.1-0.1c0-0.4-0.1-0.7-0.3-0.9C176.5,54.1,176.7,55.1,177.4,55.1z"/>
	<path d="M182.9,55.6c0,0.6,0.1,1.1,0.1,1.7c0.2,0,0.5,0.1,0.7,0.1C183.6,56.7,183.8,55.8,182.9,55.6z"/>
	<path d="M176.1,56.3c0.2,0.6,0.4,1.1,0.8,1.6c0-0.4,0-0.8,0-1.2c-0.1-0.1-0.3-0.3-0.4-0.4C176.4,56.2,176.2,56.3,176.1,56.3z"/>
	<path d="M189.3,60.2c0.1,0.5,0.2,1,0.3,1.6c-0.3-0.1-0.5-0.2-0.8-0.3c-0.1,0.1-0.3,0.2-0.3,0.3c0.4,0.2,0.9,0.4,1.3,0.6
		c0.2,0.4-0.1,1.4,0.5,1.3c0.3-1.1-0.3-2.2-0.4-3.3C189.8,60.4,189.4,60.3,189.3,60.2z"/>
	<path d="M126.4,65.4c0.1-0.3,0.2-0.9,0.3-1.2c0-0.2,0.1-0.5,0.1-0.7c0.1-0.7,0.4-1.5-0.1-2.2C126.4,62.6,126,64,126.4,65.4z"/>
	<path d="M111,63.8c0.1-0.7,0.3-1.4,0.4-2.1C110.9,62.4,110.5,63.1,111,63.8z"/>
	<path d="M184.4,62.4c-0.4,0.3-0.3,1,0.2,1.1C185.2,63.4,184.9,62.1,184.4,62.4z"/>
	<path d="M119.2,65.7c0.2,0,0.4,0.1,0.6,0.1c0.2-1.2,0.4-2.3,0.3-3.5C118.7,62.8,119.4,64.5,119.2,65.7z"/>
	<path d="M191.6,65.8c0.2,0,0.5,0.1,0.7,0.1c-0.1-0.6-0.2-1.2-0.3-1.8c-0.1-0.1-0.3-0.2-0.5-0.2c0,0.2-0.1,0.6-0.2,0.8
		C191.5,65,191.6,65.4,191.6,65.8z"/>
	<path d="M185.1,64.6c-0.2-0.1-0.4-0.2-0.6-0.2c0,0.5,0,1.1,0.1,1.6c0.1,0.1,0.4,0.2,0.5,0.3C185,65.7,185,65.2,185.1,64.6z"/>
	<path d="M183.7,65.9c0.3-0.4,0.2-1.2-0.5-1.2C183.4,65.1,183.1,65.8,183.7,65.9z"/>
	<path d="M122.1,66.9c0-0.5,0.1-1,0.1-1.5C121.4,65.5,121.4,66.7,122.1,66.9z"/>
	<path d="M124,68.6c0.5-0.8,0.4-1.7,0.3-2.6c-0.8,0.5-0.5,1.5-0.6,2.3C123.8,68.4,123.9,68.6,124,68.6z"/>
	<path d="M182.3,67.4c0.1,1.3,0.1,2.7,0.1,4l0.4-0.3l0.2-0.3c0.1-1.6,0-3.3-0.2-4.9C182.2,66.2,182.3,66.9,182.3,67.4z"/>
	<path d="M119.2,66.3c-0.3,1.8-0.2,3.7-0.2,5.5c0.2,0,0.6-0.1,0.8-0.1c-0.1-1.8,0-3.6,0.1-5.4H119.2z"/>
	<path d="M109.8,68.1c-0.4,0.3,0,1.2,0.4,0.8C110.5,68.6,110.2,67.7,109.8,68.1z"/>
	<path d="M184.7,70.8c0.1,0,0.4-0.1,0.5-0.1c0.1-0.7,0.1-1.3,0.2-2c-0.2,0-0.4,0.1-0.6,0.1C184.8,69.5,184.7,70.1,184.7,70.8z"/>
	<path d="M123.8,69c0,0.2,0,0.6,0,0.8c0.2-0.1,0.4-0.1,0.7-0.2c0-0.1-0.1-0.4-0.1-0.6C124.2,69,123.9,69,123.8,69z"/>
	<path d="M145.8,78.8c-0.3,0.8-0.4,1.6-0.4,2.4c0.7-0.5,0.8-1.4,1-2.1c0.3-1.4,1-2.7,1-4.1C146.4,76,146.2,77.5,145.8,78.8z"/>
	<path d="M182.7,75.3c-0.1,1.2-0.4,2.3-0.4,3.5c0.1,0.1,0.3,0.4,0.4,0.5c0.1-0.6,0.3-1.3,0.4-1.9c0.1-0.9,0.3-2-0.4-2.7
		C182.8,74.8,182.7,75.1,182.7,75.3z"/>
	<path d="M115.7,79.9c0-0.4-0.1-0.8-0.1-1.2c-0.1-0.9-0.2-1.9-0.4-2.8c-0.1-0.1-0.3-0.3-0.4-0.4c0,0.9,0,1.8,0.1,2.8
		c0.3,1.7,0.5,3.4,0.8,5c0,0.4,0.3,0.7,0.6,1C116.2,82.7,115.8,81.3,115.7,79.9z"/>
	<path d="M184.2,75.9c-0.1,0-0.4,0.1-0.6,0.1c0,0.5,0,0.9,0,1.4c0.2-0.1,0.6-0.3,0.8-0.4C184.3,76.6,184.2,76.3,184.2,75.9z"/>
	<path d="M182.7,79.8c-0.1-0.1-0.4-0.2-0.5-0.3c-0.1,0.5-0.2,1-0.3,1.5c0.2,0,0.5-0.1,0.7-0.1C182.6,80.5,182.6,80.2,182.7,79.8z"/>
	<path d="M186,81.8c0.4-0.3,0.1-1.2-0.4-0.8C185.2,81.3,185.5,82.2,186,81.8z"/>
	<path d="M185,84.9c0.2-0.3,0.3-0.7,0.5-1c-0.3,0-0.5-0.1-0.7-0.1c-0.1,0.6-0.1,1.3-0.2,1.9c0,0.2-0.1,0.5-0.1,0.6
		C185.1,86,185.1,85.5,185,84.9z"/>
	<path d="M126.5,85.1c0.3,0.3,0.6,0.6,1,0.8c-0.2-0.7-0.5-1.4-0.8-2c-0.1,0.2-0.2,0.6-0.3,0.8C126.4,84.8,126.4,85,126.5,85.1z"/>
	<path d="M185.4,87.2c0.1-0.2,0.4-0.6,0.5-0.8c0.3-0.7,0.4-1.5,0.4-2.3C185.4,84.8,185.4,86.1,185.4,87.2z"/>
	<path d="M175,88.2c0.8,0.2,0.9-0.6,0.9-1.2C175.3,87.2,175.1,87.7,175,88.2z"/>
	<path d="M126.6,87.2c-0.1,0.6,0.2,1,0.5,1.5C127.5,88.1,127.1,87.6,126.6,87.2z"/>
	<path d="M152.6,89.3c-0.5,0-1.2-0.1-1.6,0.3c1,0.2,2,0.2,3.1,0C153.7,89.2,153.1,89.3,152.6,89.3z"/>
	<path d="M155.3,89.7c0.7,0.1,1.5,0.1,2.3-0.1C156.9,89.3,155.8,89,155.3,89.7z"/>
	<path d="M145,89.9c1.4,0.1,2.9,0.2,4.1-0.4C147.7,89.4,146.3,89.4,145,89.9z"/>
	<path d="M112.5,94.9c-1.2-0.3-2.2,0.3-3.3,0.7c0,0.1,0.1,0.3,0.1,0.4C110.4,95.6,111.5,95.3,112.5,94.9z"/>
	<path d="M94.2,96.1c0.4-0.4,0.7-0.8,1.1-1.2c-0.8-0.1-1.5,0.4-2.2,0.8c-1.4,0.9-2.9,1.9-3.8,3.4c1.4-0.8,2.5-2.1,4-2.8
		C93.6,96.3,93.9,96.2,94.2,96.1z"/>
	<path d="M207.1,94.9c0.4,0.8,1.3,1,2,1.4c1.4,0.8,2.4,2.1,3.9,2.7C211.5,97.1,209.3,95.8,207.1,94.9z"/>
	<path d="M204.9,96.3c-0.3-0.5-0.7-0.9-1.3-0.9C203.7,96,204.3,96.2,204.9,96.3z"/>
	<path d="M98.7,95.8c-0.8,0.4,0.3,0.9,0.6,0.4C99.7,95.8,98.9,95.5,98.7,95.8z"/>
	<path d="M195.2,96.8c1,0.8,2.5,0.9,3.7,1.3C197.9,97.2,196.4,97,195.2,96.8z"/>
	<path d="M92.9,100.4c-0.3,0-0.8,0.4-0.6,0.7C92.7,101.5,93.5,100.6,92.9,100.4z"/>
	<path d="M102.6,101.2c-0.6,0.2-1.6,0.1-1.6,0.9C101.6,101.9,102.2,101.7,102.6,101.2z"/>
	<path d="M95.6,102.2l0.7-0.3l-0.2-0.5c-0.2,0.1-0.4,0.3-0.6,0.4c0.1,0.3,0.1,0.6,0.1,1c-0.6,0.2-1.1,0.5-1.4,1c1-0.3,2-0.8,3-1.2
		C96.7,102.5,96.1,102.4,95.6,102.2z"/>
	<path d="M100.3,101.9c-0.6,0.1-1.4,0.1-1.6,0.8c0.1,0,0.4,0,0.5-0.1c0.4-0.1,0.9-0.1,1.3-0.2C100.5,102.2,100.4,102,100.3,101.9z"
		/>
	<path d="M102.9,102.8c-1.1,0.3-2.3,0.6-3.4,0.7c0,0.1,0.1,0.3,0.1,0.4c0.4,0,0.8,0,1.3-0.1C101.6,103.5,102.3,103.2,102.9,102.8z"
		/>
	<path d="M101.6,104.9c0.3-0.3,0.7-0.5,1-0.8c-0.3,0-0.6,0.1-0.9,0.1c-0.6,0.1-1.2,0.2-1.8,0.2C100.4,105,101,105,101.6,104.9z"/>
	<path d="M101.5,105.5c-0.3,0.2-0.6,0.4-1,0.6c0.1,0,0.4,0.1,0.5,0.2c0.5-0.2,1-0.4,1.5-0.6C102.2,105.6,101.9,105.6,101.5,105.5z"
		/>
	<path d="M193.6,105.9c0.5,0.5,1.3,0.7,2,0.8C195.3,105.9,194.3,106,193.6,105.9z"/>
	<path d="M102.9,107.1c0-0.1,0.1-0.4,0.1-0.6c-0.4,0.2-1.6,0-1.3,0.7C102.1,107.3,102.5,107.1,102.9,107.1z"/>
	<path d="M195.6,107.7c0-0.1,0.1-0.3,0.1-0.3c-0.6-0.2-1.2-0.4-1.9-0.4C194.3,107.5,195,107.5,195.6,107.7z"/>
	<path d="M101.8,108.2c0.2,0.2,0.3,0.3,0.5,0.5c0.8-0.2,1.5-0.4,2.2-0.8C103.6,107.9,102.7,108,101.8,108.2z"/>
	<path d="M106.6,109c-1.4,0.1-2.8,0.5-4.1,0.9c0.4,0.1,0.8,0.1,1.1,0.2C104.7,110,105.7,109.6,106.6,109z"/>
	<path d="M100.3,109c-1.2,0.2-2.3,0.7-3.3,1.5C98.2,110.4,99.5,110,100.3,109z"/>
	<path d="M127.8,109.5c-0.5,0.2-1,0.3-1.4,0.7C127,110.1,127.7,110.1,127.8,109.5z"/>
	<path d="M194.7,109.5c-0.1,0-0.3,0.1-0.5,0.1c1.3,0.9,2.9,1,4.4,1.3c0.1,0.2,0.3,0.5,0.3,0.7c0-0.1,0-0.3,0-0.5
		c-0.1-0.2-0.1-0.5-0.2-0.7C197.4,110.2,196,109.9,194.7,109.5z"/>
	<path d="M106.3,110.6c0.3,0.1,0.7,0.1,1,0.2c0.4-0.2,0.7-0.4,1.1-0.5C107.6,110,106.9,110.4,106.3,110.6z"/>
	<path d="M118.4,112.1c2.5-0.3,4.9-1.2,7.3-1.7c0.1-0.1,0.2-0.3,0.3-0.4c-1.8,0.3-3.6,0.8-5.4,1.2
		C119.8,111.4,118.9,111.5,118.4,112.1z"/>
	<path d="M159.4,110.3c-0.3-0.1-0.6-0.1-0.9-0.2c-0.1,0.1-0.4,0.4-0.5,0.5c0.2,0.1,0.6,0.2,0.8,0.3
		C159.1,110.7,159.3,110.5,159.4,110.3z"/>
	<path d="M98.6,111.3c-0.5,0.1-1,0.4-1.3,0.8c0.5-0.2,0.9-0.3,1.4-0.5c0.8-0.2,1.6-0.5,2.3-0.7c0-0.1-0.1-0.4-0.2-0.5
		c-0.2,0-0.5,0.1-0.6,0.1C99.7,110.7,99.2,111,98.6,111.3z"/>
	<path d="M191.9,110.3v0.2c0.1,0.1,0.3,0.2,0.4,0.3C193.2,111.1,192.4,109.7,191.9,110.3z"/>
	<path d="M104.8,111c-0.4,0.1-0.9,0.3-1.3,0.4c0.1,0.1,0.2,0.4,0.2,0.6c0.8-0.2,1.6-0.5,2.3-0.9C105.6,111,105.2,111,104.8,111z"/>
	<path d="M110.5,111.2c-0.3,0.2-0.5,0.5-0.8,0.8c0.5-0.1,1-0.3,1.5-0.5C111,111.4,110.7,111.3,110.5,111.2z"/>
	<path d="M116.3,111.8c0.6-0.1,1.4-0.1,1.8-0.7C117.4,111.2,116.6,111.1,116.3,111.8z"/>
	<path d="M158.6,111.7l-0.2,0.3c0.8,0.5,1.6-0.1,2.3-0.5C160,111.2,159.3,111.4,158.6,111.7z"/>
	<path d="M190.8,111.7c-0.5-0.2-1.1-0.3-1.7-0.3c0.2,0.2,0.5,0.4,0.7,0.5c0.5,0.1,1.1,0.2,1.6,0.3C191.3,112,191,111.8,190.8,111.7z
		"/>
	<path d="M101.4,112.2c0.1-0.1,0.4-0.2,0.6-0.3c-0.2-0.1-0.5-0.2-0.7-0.3c-1.1,0.5-2.3,0.8-3.1,1.7
		C99.2,113.1,100.3,112.7,101.4,112.2z"/>
	<path d="M107.9,111.7c-0.2,0-0.5,0-0.7,0c-1,0.3-2,0.5-3,0.7c-0.1,0.1-0.2,0.3-0.3,0.4c0.6,0,1.2,0,1.7,0
		C106.4,112.6,107.2,112.2,107.9,111.7z"/>
	<path d="M115,111.9c-0.4,0.4,0.4,0.7,0.6,0.4C116,111.8,115.2,111.4,115,111.9z"/>
	<path d="M111.9,113.4c0.8-0.2,1.7-0.4,2.2-1.1c-0.4,0.1-0.8,0.2-1.2,0.3c-0.8,0.3-1.6,0.6-2.4,1c0.5,0,1.1,0.1,1.6,0.2
		c-0.3,0.3-0.5,0.5-0.7,0.8c2-0.6,4-1.2,5.9-2.1c-1.6,0-3.2,0.6-4.7,1.2C112.3,113.6,112.1,113.5,111.9,113.4z"/>
	<path d="M202.4,112.7c0.5,0.5,1.1,0.8,1.8,1.1C204.2,113,203.1,112.8,202.4,112.7z"/>
	<path d="M105.9,114c0.7-0.2,1.3-0.5,1.8-0.9c-0.5,0.1-0.9,0.1-1.4,0.2c-0.7,0.1-1.4,0.2-2.1,0.2C104.5,114.2,105.3,114,105.9,114z"
		/>
	<path d="M192.7,113.4c-0.5-0.1-0.9-0.3-1.4-0.4c0,0.1,0.1,0.3,0.1,0.4C191.8,113.7,192.4,113.9,192.7,113.4z"/>
	<path d="M97.7,114.9v0.4c1.5-0.7,3.2-0.8,4.6-1.7l-0.4-0.3C100.4,113.5,99,114.1,97.7,114.9z"/>
	<path d="M156.5,113.1c-0.4,0.2-0.7,0.4-0.9,0.8C156.2,114.3,157.3,113.8,156.5,113.1z"/>
	<path d="M187.9,113.2c-0.1,0.2-0.2,0.6-0.2,0.8c0.2,0,0.6,0,0.8,0C188.5,113.6,188.3,113.3,187.9,113.2z"/>
	<path d="M108.9,113.7c-0.9,0.4,0.4,1,0.7,0.3C109.9,113.6,109.2,113.5,108.9,113.7z"/>
	<path d="M159.2,114.6c0.6,0,1.3,0.1,1.6-0.6C160.2,114,159.5,113.9,159.2,114.6z"/>
	<path d="M110,115.1c0.2-0.1,0.6-0.2,0.8-0.3C110.8,113.9,109.5,114.4,110,115.1z"/>
	<path d="M139.9,114.3c-0.1,0.2-0.2,0.5-0.2,0.7c0.5,0.1,1,0.3,1.5,0.4c-0.1-0.3-0.1-0.7-0.2-1C140.6,114.3,140.2,114.3,139.9,114.3
		z"/>
	<path d="M141.8,115c0.1,0.1,0.2,0.4,0.3,0.6c0.6,0.1,1.3,0.2,2,0.3C143.9,114.8,142.6,115.1,141.8,115z"/>
	<path d="M144.5,115.6c0.1,0.1,0.2,0.4,0.2,0.6c0.2,0,0.6,0,0.7,0.1h0.5c0.2,0,0.7,0,1,0c0-0.1-0.1-0.3-0.1-0.3
		C146.1,115.7,145.3,115.5,144.5,115.6z"/>
	<path d="M177.2,37.6c-0.2,0.8,0.2,1.7,0.7,2.4C177.9,39.3,178,37.8,177.2,37.6z"/>
	<path d="M179,42.3c-0.2-0.7-0.4-1.4-0.6-2.1c-0.8,0.4-0.2,1.3-0.1,1.9C178.5,42.2,178.8,42.3,179,42.3z"/>
	<path d="M180.7,51.2c0.2,0,0.5,0.1,0.6,0.2c-0.1-0.4-0.2-0.9-0.3-1.3C180.4,50.3,180.4,50.7,180.7,51.2z"/>
	<path d="M182.7,65.8c0-0.8,0-1.7,0-2.5c0.3,0.2,0.5,0.5,0.7,0.8c0-0.4,0.1-0.9,0.1-1.3c-0.9,0.3-1.3-0.6-1.7-1.2c0,0.4,0,0.8,0,1.2
		c0,0.7,0.1,1.5,0.1,2.2C182.3,65.3,182.5,65.6,182.7,65.8z"/>
	<path d="M185.1,75.7c-0.4,0.5-0.5,1.1-0.6,1.8c0,0.5,0,1,0.1,1.5C185.3,78.1,185.4,76.8,185.1,75.7z"/>
	<path d="M118.8,85.2c-0.3-1.4-0.4-2.9-1-4.2c-0.1,0.3-0.2,1-0.2,1.3c0.5,1.3,0.4,2.8,1.2,3.9C118.8,86,118.8,85.5,118.8,85.2z"/>
	<path d="M125.4,81.9c0.2,0.6,0.4,1.2,0.7,1.8C126.6,83.1,126.5,81.7,125.4,81.9z"/>
	<path d="M175.1,85.8c0.6-0.4,0.8-1.1,1-1.7c-0.2,0-0.5,0-0.6-0.1C175.3,84.6,175,85.2,175.1,85.8z"/>
	<path d="M141.5,89.9c0.6,0.4,1.3,0.2,1.9,0.1C142.8,89.5,142.1,89.8,141.5,89.9z"/>
	<path d="M130.1,91.2c0.5-0.1,1.6,0.1,1.3-0.7C131,90.8,130,90.5,130.1,91.2z"/>
	<path d="M119.3,93c0.4,0.3,0.9,0.1,1.3,0c2.4-0.5,4.9-0.8,7.3-1.4c0.3-0.1,0.7-0.2,0.9-0.5c-1.5,0.1-2.9,0.5-4.4,0.7
		C122.7,92.1,120.9,92.3,119.3,93z"/>
	<path d="M98.6,92.5c0.8-0.3,1.6-0.5,2.3-1c-1.7,0.4-3.3,1-5,1.7c-1.3,0.6-2.7,1.1-3.7,2.1c0.8-0.2,1.6-0.6,2.4-1
		C95.9,93.6,97.2,93,98.6,92.5z"/>
	<path d="M181.3,93.5c0.2,0,0.7-0.1,0.9-0.1c-2.8-1.1-5.8-1.4-8.7-2.2c-0.3,0-1,0.1-1.4,0.1c0.5,0.3,1,0.5,1.6,0.6
		C176.3,92.3,178.8,92.9,181.3,93.5z"/>
	<path d="M114.5,95.3c0.8-0.2,1.6-0.4,2.4-0.7c0-0.1-1.2-0.3-0.6-0.6c0.5-0.1,1-0.3,1.6-0.4c0.1-0.1,0.2-0.3,0.2-0.4
		c-0.7,0.2-1.5,0.3-2.3,0.4c0,0.3,0,0.7,0,1c-0.5,0.1-1,0.3-1.4,0.4C114.4,95.1,114.5,95.2,114.5,95.3z"/>
	<path d="M178.5,93.5c0,0.9,1.2,0.6,1.8,0.8C180,93.5,179.2,93.6,178.5,93.5z"/>
	<path d="M183.4,94.4c-0.7-0.2-1.4-0.3-2-0.2c0.4,0.2,0.8,0.4,1.2,0.5c6,1.4,11.9,3,17.7,5.1c1.3,0.4,2.5,0.9,3.9,1.2
		c-0.2-0.7-0.9-0.7-1.5-0.9c-2.2-0.7-4.2-1.6-6.4-2.3c-2.5-0.8-5.1-1.5-7.6-2c0.2-0.1,0.4-0.3,0.7-0.4c1.7,0.4,3.3,0.9,5,1.3
		c-0.3-0.3-0.6-0.6-1-0.7c-1.5-0.5-3-0.8-4.5-1.1c-0.2,0.3-0.3,0.5-0.5,0.8c-1-0.3-2-0.6-3-0.7c-0.1-0.1-0.3-0.4-0.3-0.5
		c0.8,0.1,1.5,0.1,2.3,0c-1.3-0.7-2.8-0.7-4.1-1c0.2,0.1,0.6,0.4,0.8,0.5C183.7,94.1,183.6,94.3,183.4,94.4z M184.9,94.3
		c0.1,0.5-0.9,0.4-1,0.1C184.1,94.1,184.4,94.1,184.9,94.3z"/>
	<path d="M115,94c-0.7,0.1-1.5,0.2-2,0.8c0.4-0.1,0.8-0.1,1.2-0.2C114.5,94.4,114.8,94.2,115,94z"/>
	<path d="M87.8,98.6l0.3,0.1c1.2-1,2.3-2.1,3.6-3.1C90.1,96,89,97.4,87.8,98.6z"/>
	<path d="M214.3,98.7c-1-1.4-2.4-2.6-4.1-3.1c0.8,0.7,1.8,1.3,2.6,2.1C213.3,98.1,213.7,98.6,214.3,98.7z"/>
	<path d="M108.7,95.7c-0.7,0.1-1.4,0.3-2.1,0.6c-2.3,1-4.6,2-6.9,3.1c-0.8,0.4-1.6,0.4-2.4,0.5c0.3,0.3,0.6,0.5,0.9,0.8
		c2.6-0.8,4.9-2.2,7.4-3.3C106.6,96.8,107.8,96.5,108.7,95.7z"/>
	<path d="M108.5,96.9c-3.2,1.2-6.3,2.6-9.4,4.1c-0.1,0.1-0.3,0.4-0.4,0.5c0.4-0.1,0.8-0.2,1.2-0.2c2.9-0.9,5.4-2.6,8.2-3.8
		c1.3-0.6,2.6-1,3.9-1.6C110.8,95.9,109.7,96.5,108.5,96.9z"/>
	<path d="M208.4,96.5c0.1,0.9,1,1.3,1.6,1.7C210,97.3,209,96.9,208.4,96.5z"/>
	<path d="M207.8,97.9c0.2,0.6,0.9,0.9,1.4,1.2c-0.2,0.2-0.3,0.3-0.5,0.5c-0.5-0.2-1-0.7-1.5-0.4c0.6,0.5,1.3,0.9,2,1.3
		c0.5,0.1,0.6-0.1,0.1-0.5c0.1-0.2,0.3-0.3,0.4-0.5c0.4,0.4,0.8,0.8,1.4,0.8C210.4,99.2,209.1,98.3,207.8,97.9z"/>
	<path d="M210.2,97.9c0.3,0.8,1,1.3,1.7,1.6C211.8,98.7,210.9,98.3,210.2,97.9z"/>
	<path d="M203.1,99.3c-1.2-0.4-2.4-1.1-3.8-1c1.7,0.7,3.4,1.7,5.2,1.9C204.3,99.6,203.6,99.5,203.1,99.3z"/>
	<path d="M197.7,99.4l0.4,0.4c1.9,0.9,3.8,2,6,2c-0.1-0.1-0.3-0.3-0.4-0.4C201.7,100.9,199.8,100,197.7,99.4z"/>
	<path d="M95.7,100.6c-1.1,0-2,0.8-2.7,1.6c1-0.3,1.9-0.9,2.8-1.3C95.8,100.8,95.8,100.7,95.7,100.6z"/>
	<path d="M202.5,102.6c-2.1-0.5-4-1.6-6.1-1.8c1,0.6,2.1,0.8,3.1,1.3c1.2,0.4,2.3,1.2,3.6,1.3C203.7,102.8,202.8,102.7,202.5,102.6z
		"/>
	<path d="M197.8,102.4c0-0.5-0.9-0.8-1.3-0.6C196.4,102.4,197.4,102.7,197.8,102.4z"/>
	<path d="M198.2,104.9c-0.9-0.2-1.8-0.7-2.8-0.6c1.9,0.7,3.7,1.5,5.6,1.9l-0.2-0.5C200.1,105.3,199.1,105.2,198.2,104.9z"/>
	<path d="M195.8,105.3c0.8,0.8,2,1.1,3,1.5c0.6,0.1,1.2,0.2,1.8,0.4c-0.1-0.1-0.2-0.4-0.3-0.5C198.8,106.3,197.3,105.7,195.8,105.3z
		"/>
	<path d="M96.2,107.2c1-0.3,2-0.7,2.7-1.4C97.8,105.5,96.5,106.1,96.2,107.2z"/>
	<path d="M97.3,107.9c0.7-0.3,1.9-0.3,1.9-1.3C98.5,106.9,97.5,107,97.3,107.9z"/>
	<path d="M198.1,107.1c-0.7-0.2-1.4-0.4-2.2-0.5c0.6,0.6,1.4,0.8,2.2,1c-0.4,0.1-0.9,0.2-1.4,0.3c0,0,0.1,0.1,0.1,0.2
		c0.5,0.2,1,0.3,1.6,0.4l-0.6-0.4c0.4-0.2,0.8-0.3,1.1-0.5C198.8,107.5,198.4,107.3,198.1,107.1z"/>
	<path d="M97.9,109c0.5-0.2,1.4-0.3,1.4-1.1C98.8,108.2,98.2,108.4,97.9,109z"/>
	<path d="M169.4,109.2c0.8,0.6,1.9,0.6,2.9,0.8C171.7,109.1,170.4,109.4,169.4,109.2z"/>
	<path d="M178.7,110.9c0.2-0.2,0.4-0.4,0.6-0.6c-0.4-0.2-0.7-0.4-1.1-0.6c0,0.1-0.1,0.4-0.1,0.5h0.8c-0.2,0.1-0.5,0.3-0.7,0.4
		c-1.7-0.4-3.5-1-5.3-0.7c2.7,0.8,5.5,1.3,8.2,2c1.7,0.4,3.4,0.9,5.1,1.2c-0.1-0.1-0.2-0.2-0.3-0.3
		C183.5,112.1,181.1,111.4,178.7,110.9z"/>
	<path d="M101.6,114.6c-1.1,0.2-2.1,0.6-3.1,1c-0.3,0.1-0.5,0.4-0.7,0.7c1.5-0.4,2.9-1.1,4.4-1.4
		C102.1,114.6,101.9,114.6,101.6,114.6z"/>
	<path d="M104.8,115.4c1-0.1,2.1-0.2,2.9-0.9c-1.1,0.1-2.1,0.3-3.2,0.3c0,0.1,0.1,0.3,0.2,0.4c0.1,0.3,0.1,0.7,0.2,1
		c0.7,0.2,1.4,0.2,2.1,0.1c0.8-0.3,1.5-0.6,2.2-1.1C107.8,115.4,106.2,116.4,104.8,115.4z"/>
	<path d="M152.9,116.1c-0.1,0-0.4,0-0.5,0c-1.5,0-3-0.3-4.5-0.1c-0.1,0.1-0.2,0.4-0.3,0.6c1.7,0.1,3.5,0.4,5.2,0.1h0.2
		c0.4,0,0.8,0.1,1.2,0.1c0.4-0.1,0.8-0.2,1.3-0.3c-0.2-0.1-0.5-0.3-0.6-0.4C154.1,116,153.5,116.1,152.9,116.1z"/>
	<path d="M182.5,40.2c0.3-0.3-0.1-1.1-0.5-0.8S182,40.5,182.5,40.2z"/>
	<path d="M184.7,45c0.3,0.8,0.5,1.7,0.8,2.5c0.9,1.9,1.2,4.1,2.7,5.7c-0.7-2.8-1.8-5.6-2.9-8.3C185.1,44.9,184.9,45,184.7,45z"/>
	<path d="M128.4,40.8c0.2-0.5,0-0.7-0.5-0.5C127.7,40.8,127.9,40.9,128.4,40.8z"/>
	<path d="M170.3,43.4c0.1,0.9,0.3,1.7,0.9,2.3C171.3,44.9,171.3,43.7,170.3,43.4z"/>
	<path d="M136.9,59.6c2.2,0,4.4,0.2,6.6,0.1c1.9-0.7,0.6-3.2,1.5-4.5c1.9-0.2,3.9,0,5.8,0c1.3,0.1,2.6-0.1,3.9,0.2
		c1,0.2,1.4,1.5,0.7,2.2c-1.4,1.9-2.7,3.9-4.6,5.3c-0.9,0.7-2,0.9-3,1.3c0.2,0.8,0.5,1.6,0.7,2.4c-0.6,1.4-1.5,2.6-2.2,3.9
		c-2.5,4.3-4.7,9.2-4.1,14.3c0.5,0.3,1.1,0.4,1.7,0.4c2.9-0.1,5.9-0.1,8.8-0.3c0.8-0.1,1.4-0.9,1.4-1.7c0.2-3,0.7-6,1.3-8.9
		c0.4-2,1.5-4.1,3.4-5.2c0.9-0.6,2.2-1,2.4-2.2c-0.3-0.9-0.8-1.8-0.6-2.8c0.1-0.8,0.6-1.5,1-2.2c1.4-2,2.9-3.9,4.4-5.9
		c0.4-0.5,0.6-1.2,0.6-1.9c0-2.5,0.1-5,0.1-7.5c0.2-1.3-1.4-2.2-2.5-1.8c-2.8,0.8-5.6,1.6-8.4,1.5c-2.4-0.2-4.8-0.6-7.2-1
		c-1.8-0.3-3.6-1-5.5-1c-2.2,0-4.5-0.1-6.7,0.1c-0.8,0.3-0.7,1.2-0.8,1.8c0,4.1,0,8.3,0.1,12.4C135.6,59.4,136.3,59.7,136.9,59.6z
		 M158,68.3c-2.3,1.6-3.2,4.4-3.9,7c-0.6,1.7-0.2,3.6-0.9,5.2c0,1.1,0,2.4-0.5,3.4c-1.1,0.3-2.3,0.1-3.5,0.1c-2.1,0-4.3,0.2-6.4-0.2
		c0.6-0.4,1.4-0.4,2.1-0.4c2.4,0,4.9-0.1,7.3,0h0.2c0-0.1,0-0.4,0-0.5c-0.2-1.1,0-2.2,0.2-3.3c0.3-3.5,1-7.2,3-10.2
		c1-1.2,2.2-2.4,3.8-2.6C159.6,67.6,158.6,67.8,158,68.3z M136.5,54.4c0-3,0-6.1,0.1-9.1l0.1,0.1c3-0.2,6-0.2,9,0.1
		c0.3,0.1,0.6,0.2,0.9,0.4c1.3,0.1,2.6,0.7,3.9,0.7c2.7,0.5,5.4,0.4,8.1,0.5c1.9-0.5,3.8-0.9,5.6-1.3c0.1-0.1,0.2-0.2,0.3-0.3
		c0.2,0.2,0.4,0.5,0.6,0.7v0.1c0.4,0.6,0.3,1.3,0.3,2c0.1-0.7,0.1-1.3,0.3-2c0.2,2.4,0.2,4.9,0.2,7.3c0.1,1.5-1.1,2.5-2,3.5
		c-1.5,1.6-2.8,3.5-3.9,5.4c-0.3,0.6,0.1,1.7-0.8,2c0-1.6,0.7-3,1.5-4.3c1.2-2.1,3.1-3.7,4.5-5.7c-0.1-0.2-0.2-0.5-0.3-0.6l-0.3,0.5
		c-1.8,2.4-4,4.6-5.5,7.2c-0.4,0.6-0.5,1.2-0.7,1.9c0,0.8,0,1.7,0.1,2.5c-0.5,0.3-1,0.8-1.6,1c-3,3.2-4.1,7.7-4.5,11.9h-0.3
		c0.1,0.8,0,1.7,0,2.5c0.1,0.5,0,1.3-0.7,1.3c-2.6,0-5.2,0-7.7,0c-0.1,0-0.4,0-0.5,0c0-4.5,2.2-8.6,4.3-12.5
		c0.6-0.9,1.2-1.8,1.6-2.8c0.3-0.9,0.1-1.8,0-2.7c0.2-0.1,0.7-0.2,0.9-0.2c1.4-0.7,2.6-1.8,3.6-3.1c0.2,0.2,0.4,0.4,0.5,0.5
		c-1.2,1.2-2.3,2.6-3.9,3.3c0.1,1.3-0.3,2.6-1,3.7c-2.1,3.6-4.3,7.2-5.1,11.3c-0.1,0.6-0.1,1.1,0,1.7L144,82c2.4,0,4.9,0.1,7.3,0
		c0-0.1,0-0.3,0-0.4c0.1-0.9,0.1-1.9,0.4-2.8c0-0.5,0.1-1.1,0.1-1.6c0.6-3.6,1.6-7.4,4.1-10.3c0.5-0.5,1.1-1,1.5-1.6
		c0.2-0.9,0.2-1.8,0.3-2.7c0.6-1.9,2-3.5,3.1-5.1c1.1-1.5,2.6-2.8,3.4-4.5c0.1-2.2,0.1-4.5,0-6.7c-1.5,0.2-3,0.8-4.5,1.1
		c-1.9,0.4-3.9,0.3-5.8,0.3c-3,0-5.9-0.9-8.8-1.5c-0.3-0.1-0.6-0.2-1-0.2c-2.3-0.2-4.6-0.1-6.9-0.1H137c0,0.6,0,1.2,0.1,1.9
		c0.2,0.5,0.3,0.5,0.5,0c0-0.4,0-0.8,0-1.2c0.2,0,0.5,0,0.7,0c1.4,0,2.8,0,4.2,0.1c3.4,0.3,6.6,1.5,10,1.8c3.2,0.2,6.5,0.3,9.6-0.7
		c0.5-0.1,1-0.2,1.5-0.3c0,1.9,0.1,3.7,0,5.6c-0.4,1.2-1.4,2-2.1,3c-1.6,2.1-3.6,4-4.3,6.6c-0.1,0.7-0.2,1.4-0.4,2.1
		c-0.4,1.1-1.4,1.8-2.1,2.7c-0.9,1.2-1.4,2.5-2.1,3.8c-0.3,1.3-0.7,2.5-1,3.8c-0.9,0.2-0.7,1.2-0.3,1.7c-0.1,0.4-0.2,0.9-0.3,1.3
		c-0.1,0.5-0.2,1-0.3,1.6c0,0.6-0.2,1.2-0.3,1.8c-1.9,0.1-3.8-0.1-5.7,0.1c-0.4-1.7,0.4-3.3,1-4.8c0.6-1.3,1-2.7,1.9-3.9
		c0.7-1.4,1.6-2.7,2.3-4c0.6-1.2,0.4-2.8,1.7-3.6c1.3-1,2.3-2.3,3.4-3.5c1.4-1.7,3.2-3.2,3.6-5.4c0-0.8,0-1.7-0.3-2.5
		c-0.9-1.4-2.7-1.9-4.3-2.2c-1,0-2,0.1-3,0.1c-1.4,0-2.8-0.3-4.2-0.1c-1.3,0.2-2.5,0.4-3.8,0.6l-0.1,0.4c0.4-0.1,0.7-0.2,1.1-0.3
		c3.7,0.1,7.3,0.1,11,0.1c1.4,0.1,2.8,1.1,3,2.5c0.1,1.1-0.2,2.3-1.1,3.1c-0.4,0.3-0.7,0.6-0.8,1c-0.4,1-1.3,1.6-1.9,2.4
		c-0.2-0.1-0.4-0.2-0.6-0.3c1.3-1.5,2.7-2.9,3.5-4.7c0.3-0.7,0.5-1.7-0.3-2.2c-0.9-0.8-2.2-1.1-3.4-1.1c-3,0-6,0-9,0
		c0,0.2,0.1,0.6,0.1,0.8h0.2c3.3-0.4,6.6-0.1,9.9-0.1v0.4c0.7-0.1,1.3,0.4,1.7,0.9c-0.4-0.2-0.8-0.4-1.2-0.7
		c-3.3-0.2-6.7-0.2-10.1-0.2c-0.3,0-0.6,0.2-1,0.4c0.2,1,0.1,2,0,3c0.1,0.4-0.2,0.8-0.3,1.1c-2,0.3-4,0.1-6,0.2
		c-0.5,0.1-0.9-0.1-1-0.6c2.1-0.1,4.2,0.3,6.3,0c0.2-0.5,0.3-1,0.4-1.6l0,0c0-0.7,0-1.3,0.1-1.9c0.3-0.2,0.5-0.4,0.8-0.6
		c0-0.3,0.1-0.8,0.1-1c-0.2,0-0.5,0-0.7,0c-1.2,1-1,2.6-0.9,4h-0.4c0,0.1,0,0.3,0,0.4v0.2c-1.9-0.1-3.9,0.3-5.7-0.1
		C136.4,56.8,136.5,55.6,136.5,54.4z"/>
	<path d="M182.4,45.4c-0.1,0-0.2,0.1-0.3,0.1c-0.2,0.7,0.3,1.4,0.4,2c0.1,0.2,0.2,0.6,0.3,0.8c0.2,0.5,0.6,0.9,0.9,1.3
		c0-0.4-0.1-0.9-0.1-1.3C183.2,47.3,182.9,46.3,182.4,45.4z"/>
	<path d="M115.2,74.4c0.1,0.8,0.9,1.2,1.4,1.7c1.1-0.1,2.1-0.3,3-1c0-1.1,0.1-2.3-0.8-3.1c-0.3-0.2-0.6-0.4-0.8-0.5
		c-0.2,0-0.7,0.1-1,0.1c-0.1,0-0.4,0.1-0.6,0.2C115.7,72.5,115,73.3,115.2,74.4z M117.4,72.3c0.9,0,2,1.2,1.4,2
		c-0.2,1.1-1.5,0.7-2.2,0.5c-0.3-0.4-0.4-0.9-0.5-1.3l0.3,0.1l-0.2-0.5C116.6,72.8,117,72.5,117.4,72.3z"/>
	<path d="M122.5,48c0.2-0.5,0.7-1.7-0.2-1.8l-0.1,0.1c-0.2,0.4-0.3,0.9-0.4,1.3c-0.1,0.7-0.2,1.3-0.4,2c0.2-0.1,0.6-0.3,0.8-0.3
		C122.3,48.9,122.4,48.4,122.5,48z"/>
	<path d="M224.1,71.3c0.4-1.8,0.1-3.7-0.9-5.3c-1.1-1.7-3.1-2.6-5.1-2.7c-4.3,0.1-8.5,1.8-11.8,4.6c-0.9,0.9-1.8,1.8-2.6,2.8
		c-0.6,0.7-1.4,1.5-2.5,1.3c0-1,0.8-1.7,1.5-2.3c2.4-1.8,5.1-3.3,7-5.7c1-1.6,2-3.1,2.5-4.9c0.5-2,0.5-4.3-0.6-6.1s-3.2-2.9-5.2-3.1
		c-2-0.1-3.7,1-5.1,2.3c-1.8-2.7-5.6-3.4-8.3-1.9c-1,0.6-1.7,1.5-2.4,2.3c-0.1-0.2-0.3-0.6-0.4-0.9c-0.9-2.8-2.1-5.5-3-8.2
		c-0.3-0.7,0.3-1.4,0-2.1c-0.8-2.3-1.2-4.8-2.3-7c-0.4-0.9-1.4-1.8-2.5-1.5c-3.2,0.6-6.2,1.8-9.2,2.9c-2,0.7-3.8,1.9-5,3.7
		c-0.7,0.8-0.7,1.9-0.4,2.9c1.8,5,4,9.9,5.2,15s1.7,10.5,1.3,15.7c-0.3,5.5-1.6,11.1-4.6,15.7c-11.7-1.9-23.6-1.8-35.3-0.2
		c-2.5-3.6-4.9-7.5-5.6-11.9c-0.4-2.8-1.1-5.7-0.2-8.4c0.2-1-0.1-2-0.1-3c0.6-7.2,2.8-14.1,5.4-20.7c0.4-1,1.2-2,1-3.2
		s-0.7-2.5-1.7-3.3c-1.5-1.2-3.3-1.9-5.1-2.6c-2.6-1.3-5.3-2.2-8.1-2.7c-0.5-0.1-1.4-0.3-1.6,0.3c-1.4,2.5-2.4,5.2-3.3,7.8
		c-0.4,0.9,0.5,1.9,0,2.8c-0.9,2.3-1.7,4.7-2.5,7c-2.7-2-7.1-1.4-8.9,1.5c-1-1-2.2-1.8-3.6-2.2c-1.8-0.4-3.7,0.3-5.1,1.3
		c-1.9,1.3-2.8,3.7-2.6,6c0.1,2.6,1.5,4.8,2.9,6.9c1.4,1.8,3.3,3,5.1,4.3c1.3,0.9,3.1,1.8,3.4,3.5c-1.5,0.2-2.3-1.2-3.2-2.2
		c-3.3-4.1-8.5-6.5-13.7-6.7c-1.7,0-3.4,0.7-4.5,2c-1.4,1.5-1.9,3.7-1.5,5.7c0.3,1.8,1.7,3.2,3.2,4.1c-1.4,1.3-2.3,3.1-2.1,5
		c0.1,2.4,1.7,4.5,3.8,5.6c3,1.6,6.8,1.1,9.4-1c1.5-1,2.5-2.6,3.6-3.9c1.3-1.5,2.3-3.2,3.5-4.6c0.4-0.5,1-0.7,1.6-0.8
		c-0.6,1-1.2,2-2.1,2.8c-2.5,2.2-5,4.7-6.2,7.9c-0.8,1.9-1.2,4-0.9,6.1c-2.2,1.1-4.5,2.2-6.3,4c-1,0.9-2.1,1.9-2.4,3.3
		c1.5,0.8,3.1,1.4,4.4,2.4c2.5,2.1,4.4,5,5.4,8.2c0.6,2.4,0.6,4.9,1.2,7.3c0.2,0.3,0.2,1,0.6,1c2.1-0.5,4.1-1.4,6.1-2
		c0.2,0.5,0.1,1.2,0.7,1.3c1.6,0.8,3.5,0.5,5.2,0.1c5.8-1.7,11.3-3.9,17.2-5.4c4.2,3.6,9.4,5.8,14.7,6.9c6.1,1.3,12.5,1.3,18.6,0.2
		c5.3-1,10.3-3.2,14.5-6.5c0.3-0.2,0.6-0.6,1-0.4c6.2,1.6,12.4,3.3,18.6,5c1.6,0.5,3.8,0.3,4.6-1.5c2,0.2,3.8,1.2,5.6,2.1
		c0.4,0.3,1.2,0.2,1.3-0.4c1.2-3.4,0.7-7.3,2.4-10.6c1.2-2.3,2.9-4.4,5-5.9c1.2-0.9,2.7-1.3,3.9-2.1c-0.2-0.6-0.4-1.1-0.8-1.6
		c-1.6-1.9-3.8-3.2-5.9-4.4c0.1-1.2,0.5-2.5,0.3-3.8c-0.5-4.4-3.4-8-6.6-10.8c-1.1-0.9-2-2-2.6-3.3c0.7,0.1,1.3,0.4,1.8,1
		c1.3,1.7,2.5,3.6,4,5.1c1.4,1.8,2.9,3.5,5,4.4c2,0.8,4.3,1,6.4,0.3c2.4-0.8,4.4-2.9,4.8-5.5c0.4-2.1-0.6-4.2-2.1-5.6
		C222.4,74.2,223.7,73,224.1,71.3z M175.2,64.2c0.5-0.5,0.6-1.2,0.6-1.9c-0.2,0-0.7-0.1-0.9-0.2c-0.1-0.9-0.3-1.7-0.5-2.6
		c0.2-0.2,0.3-0.4,0.5-0.6l0.2,0.4c0-0.2,0-0.5,0-0.6c-0.3,0-0.6,0.1-1,0.1c-0.1-2.1-0.8-4.1-1.5-6c-1.3-3.8-3-7.4-4-11.2
		c-0.3-1.2,0.5-2.2,1.3-3l0.2-0.2c0.9-0.6,1.8-1.1,2.8-1.4c1.4-0.5,2.7-1.1,4.1-1.6c1.6-0.6,3.2-1.2,4.9-1.5c0.2,0,0.6-0.1,0.8-0.1
		c1.1,2.2,2.2,4.5,2.9,6.9c0.3,0.9-0.3,1.9,0.1,2.7c1.2,3.1,2.2,6.2,3.4,9.3c1.3,3.6,2.6,7.3,3.2,11.1c0.7,4,1,8.2,0.8,12.3
		c0,3.6-0.6,7.3-1.5,10.8c-0.4,2.1-1,4.2-2,6.1c-1.3-0.2-2.5-0.6-3.7-1c0.2-0.5,0.4-0.9,0.7-1.4c2.3-5.9,3.2-12.2,3-18.5l-0.1,0.1
		c0-2.6-0.3-5.1-0.7-7.7c-0.2-1-0.4-2-0.6-3c-0.7-2.9-1.3-5.9-2.7-8.6c-0.4-0.8-1.1-1.7-2.2-1.5c-1.3,0.2-2.5,0.8-3.6,1.4
		c-0.8,0.4-1,1.5-0.7,2.3c1.5,5.6,2.3,11.4,2.4,17.1c-0.2,4.8-0.7,9.7-2.3,14.3c-0.5,1.3-0.8,2.8-2,3.7c0-0.4,0.1-1.2,0.1-1.6
		c-0.1,0.2-0.4,0.5-0.6,0.6c-0.2,0.3-0.5,0.5-0.7,0.8c0.1-0.6,0.3-1.2,0.4-1.8c-0.5,0.5-0.9,1-1.4,1.5c-0.1-0.3-0.2-0.9-0.2-1.2
		c-0.5,0.3-0.9,0.6-1.4,1c0.5-1,1.1-2,1.6-3.1c-0.1-0.1-0.3-0.4-0.4-0.5c-0.5,0.9-1,1.9-1.5,2.7c-0.2,0.4-0.6,0.5-0.9,0.6
		c1.4-2.1,2.1-4.5,3.1-6.7c0.7-1.8,1.1-3.8,1.4-5.7c1-6.1,0.7-12.4-0.6-18.4c-0.7-3.3-1.6-6.5-2.8-9.6c-0.1-0.3-0.2-0.6-0.4-1
		c2-0.7,4-1.5,6.1-2.1c1.5-0.7,3.1-1.2,4.6-1.8c0.6-0.2,1.2-0.7,1.6-1.3c0.1-0.4,0.2-0.8,0.2-1.2c-1.6,0.5-3.1,1.2-4.8,1.6
		c0-0.1-0.1-0.2-0.1-0.2v-0.1c1.2-0.4,2.5-1,3-2.4l-0.5,0.2c-0.5,0.2-1,0.5-1.4,0.8c-0.4-1.6-0.8-3.2-1.6-4.6
		c-0.1,0-0.3,0.1-0.5,0.1c0.2,1.1,0.6,2.1,1,3.1c0.2,0.5,0.5,1,0.7,1.5l0,0l-0.1,0.1c-0.7,0.5-1.5,0.9-2.3,1.2
		c-1.9,0.8-3.9,0.7-5.9,0.8c0.8,0.6,1.9,0.5,2.8,0.5c1.5-0.1,2.9-0.6,4.3-0.9h0.2c-0.3,0.4-0.8,0.6-1.3,0.8c-2,0.7-4,1.5-6,2.1
		c-0.3-0.8-0.6-1.6-0.9-2.4c-0.6-1.5-1.2-2.9-1.8-4.3c-0.3,0.2-0.5,0.5-0.3,0.9c0.6,2,1.6,3.9,2.3,5.8c0.1,0.5-0.1,0.9-0.1,1.4
		c0.1,0.6,0.3,1.1,0.4,1.7c-0.1,0.5-0.1,1-0.1,1.5c0.2,0,0.5-0.1,0.7-0.2c0.6,2,1.4,3.9,1.9,5.9c1.3,5,1.9,10.3,1.6,15.5
		c-0.3,4.8-1.1,9.6-3.3,13.9c-0.7,1.1-1.2,2.4-2.1,3.3c-0.1-0.1-0.3-0.4-0.5-0.6C175.3,81.3,175.9,72.4,175.2,64.2z M183,91.4
		c0-0.2-0.1-0.6-0.1-0.8c-0.3,0.2-0.5,0.5-0.8,0.7c0-0.2-0.1-0.5-0.1-0.7c-0.2,0.1-0.6,0.4-0.8,0.6c-0.1-0.2-0.2-0.6-0.3-0.8
		c-0.3,0.2-0.7,0.3-1,0.5c0.2-0.7,0.3-1.5,0.4-2.2c-0.7,0.5-1,1.4-1.5,2.1c0.4-1.3,0.9-2.4,1.2-3.7c0.9-3.7,1.6-7.5,1.6-11.3
		c0-0.3,0.1-0.8,0.1-1.1v-0.2c0.2-2.6,0.1-5.2,0-7.8c-0.1-0.6-0.1-1.1-0.2-1.7c-0.3-1.4-0.6-2.9-0.8-4.3c-0.3-2.1-0.9-4.1-1-6.2
		c0.7-1.2,2.3-1.6,3.6-1.8c-0.3,1.7,0.4,3.4,1.1,5c0.1-0.2,0.2-0.6,0.3-0.8c-0.4-1.3-0.8-2.6-1.1-3.9c0.9,0.8,1.4,1.9,1.7,3.1
		c0.5,1.9,1.1,3.8,1.4,5.8c0.3,1.6,0.5,3.1,0.8,4.7c-0.2,0.2-0.3,0.4-0.5,0.5l-0.2-1c-0.2,0.3-0.4,0.7-0.3,1.1c0,1.7-0.1,3.4,0.4,5
		l-0.2,0.2c-0.4-0.4-0.8-0.7-1.2-1c-0.2,0-0.5,0.1-0.7,0.1c-0.5,0.1-1.1,0.1-1.6,0.2c-0.5,0.7-0.8,1.5-0.8,2.3
		c0.3,1.1,1.3,1.8,2.4,1.7c0.6-0.3,1.4-0.4,1.7-1.1c0.4-0.6,0.2-1.3,0.1-2c0.1-0.1,0.3-0.3,0.4-0.4c0-0.5,0.1-0.9,0.1-1.4
		c0-1.2-0.1-2.5-0.1-3.7c0.1,0,0.4,0,0.5,0c0,0.4-0.1,0.9-0.1,1.3c0.7,4.5,0.4,9.2-0.4,13.7c-0.4,1.7-0.7,3.4-1.2,5
		s-1.1,3.1-1.7,4.7c-0.2,0-0.5-0.1-0.7-0.1c0.1-0.4,0.1-0.9,0.2-1.3C183.7,90.7,183.4,91.1,183,91.4z M188.7,79.2
		c-0.3,1.5-0.3,3.1-0.8,4.5c0-0.2-0.1-0.6-0.2-0.8c0.9-4.2,1.2-8.5,1-12.8h0.3c0.1,0.9,0.1,1.7,0.2,2.6
		C189.3,74.9,189.1,77.1,188.7,79.2z M188.7,67.8c-0.9-3-0.8-6.2-1.8-9.2c0.8,1,0.9,2.4,1.2,3.7C188.3,64.1,188.7,66,188.7,67.8
		L188.7,67.8z M185.5,72.2c0.1,0,0.4,0,0.5,0c0.3,0.7,0.3,1.4,0.1,2.1c-0.7,0.6-1.6,0.7-2.4,0.2c0-0.6-0.1-1.1-0.1-1.7l0,0
		c0.2-0.5,0.5-0.7,0.8-0.7C184.9,72.4,185.2,72.4,185.5,72.2z M186.4,88.5c0.3-1,0.5-2,1-2.9c-0.1,2.2-0.9,4.3-1.9,6.3l-0.5,0.3
		C185.4,90.9,186,89.7,186.4,88.5z M174.1,46.6c0.6-0.6,1.5-0.9,2.3-0.9c0.2-0.4,0.5-0.6,0.9-0.4c1.2-0.6,2.5-0.9,3.7-1.4
		c1.1-0.4,2.2-1.1,3.4-1c-0.5,0.5-1.2,0.5-1.8,0.8c-1.8,0.6-3.5,1.5-5.3,1.9c-0.1,0.1-0.4,0.2-0.6,0.3
		C175.9,46.1,175,46.4,174.1,46.6z M132.3,88.9c-0.1,0-0.3,0.1-0.4,0.1l-0.2,0.1c-0.3-1.5-1.8-2.6-2-4.1
		C130.7,86.2,131.4,87.6,132.3,88.9z M114.3,48.8c0.2-0.5,0.3-1,0.5-1.4c0.6-1.2,1.1-2.4,1.5-3.7c0.2-0.6-0.2-1.2-0.3-1.7
		c0.1-0.3,0.3-0.5,0.4-0.8c0.6-2.5,1.8-4.8,2.7-7.2c1.4,0,2.7,0.5,3.9,1c3.2,1.2,6.6,2.2,9.4,4.3c0.6,0.9,1.4,2,0.9,3.1
		c-0.4,0.9-0.8,1.9-1.2,2.8c-2.3,6.2-4.6,12.6-4.9,19.2c0,0.5-0.1,1.1-0.2,1.6c-0.5,4.2,0,8.4,0.7,12.6c0.3,2.1,1,4.1,1.9,6
		c-0.2,0.1-0.4,0.2-0.6,0.2c0.5,1.6,1.8,2.9,2.2,4.5c-1.2-1.4-1.8-3.2-2.6-4.8c-1.4-3-2.4-6.2-2.7-9.5c-0.4-3.3-0.1-6.7,0.1-10
		c0.1-2.6,0.7-5,1-7.6c1-4.4,2.6-8.7,4.3-12.9c0.3-0.9,0.6-1.7,1.1-2.5c-0.4,1.5-1.2,3-1.6,4.5c-0.5,1.6-1.4,3.2-1.4,5
		c0.6-0.8,0.9-1.8,1.2-2.8c0.5-1.4,1-2.7,1.6-4c0.3-1.1,1-2.2,0.8-3.4c-0.1-0.7-0.6-1.3-1.1-1.8c-0.2,0.5-0.4,0.9-0.6,1.4
		c0.2,0.1,0.6,0.2,0.9,0.2c-0.2,0.3-0.4,0.7-0.6,1c-0.2-0.2-0.4-0.5-0.6-0.7c-0.2,0.8-0.5,1.6-0.7,2.3c-0.3,0.9-0.7,1.9-1.1,2.8
		c-3.2-0.8-6.3-2.1-9.3-3.3c-0.1,0-0.3-0.1-0.4-0.1c-0.3-0.1-0.6-0.2-0.9-0.3c-0.7-0.2-1.4-0.5-2.1-0.7c0.4,0.8,0.8,1.8,1.7,2.1
		c0.1,0.1,0.4,0.2,0.5,0.2c0.8,0.3,1.7,0.6,2.5,1c0.3,0.1,0.6,0.2,0.9,0.3c1.9,0.8,3.7,1.4,5.6,2.1c0.3,0.1,0.6,0.2,1,0.3
		c0.1,0,0.4,0.1,0.5,0.2c-1,3.1-1.9,6.2-2.6,9.3c0,0.1-0.1,0.3-0.1,0.4c0,0.2-0.1,0.5-0.2,0.7c0,0.7-0.1,1.4-0.3,2.1
		c-0.1,0.7-0.2,1.3-0.3,2c0,1-0.1,1.9-0.2,2.8c0,0.1,0,0.4-0.1,0.5c-0.1,3.6-0.3,7.3,0.3,10.9c0.2,1,0.4,2,0.7,3
		c1,3.2,2.4,6.3,4.1,9.2c-0.2,0-0.6,0.1-0.9,0.1c-0.5-0.9-1-1.9-1.7-2.7c-0.1-0.1-0.4-0.2-0.5-0.3c0,0.1,0.1,0.4,0.2,0.5
		c0.3,1,0.9,1.8,1.4,2.6c-0.5-0.1-1-0.3-1.5-0.4c0,0.2,0,0.6,0,0.8c-0.5-0.4-1-0.8-1.4-1.2c0.1,0.5,0.3,0.9,0.4,1.4
		c-0.4-0.3-0.9-0.7-1.3-1c0,0.3,0,1,0,1.3c-1.7-2-2.2-4.7-2.8-7.2c-0.5-2.3-1-4.5-1.1-6.9c-0.2-4.3,0-8.5,0.6-12.8
		c0.4-2.7,0.6-5.4,1.4-8.1c0.3-0.8,0-1.5-0.3-2.2c-1.3-0.4-2.5-1.2-3.9-1.4c-0.7-0.1-1.3,0.5-1.8,0.9c-0.1,0.1-0.3,0.2-0.4,0.3
		c0,0.2-0.1,0.5-0.2,0.7s-0.2,0.5-0.2,0.7c-0.9,2.5-1.6,5.1-2.2,7.7c-0.6,2.7-0.7,5.5-1,8.3c-0.3,5.6,0.2,11.3,1.9,16.7
		c0.1-0.1,0.4-0.2,0.5-0.3c-0.1,0.1-0.3,0.4-0.4,0.5c0.4,1.5,0.9,3,1.6,4.4c-1.1,0.3-2.1,0.5-3.2,0.8c-0.1-0.3-0.3-0.6-0.4-1
		c-0.3-0.6-0.5-1.2-0.7-1.8l-0.2-0.2c-1.1-3-2-6.1-2.5-9.3c-0.1-0.9-0.4-1.8-0.3-2.8l-0.1,0.1c-0.6-4.3,0.1-8.5,0.6-12.8
		c0.3,0.4,0.5,1,0.5,1.5c0.3-0.7,0.5-1.4,0.6-2.1c-0.1,0-0.4,0.1-0.5,0.2v0.6c-0.2-0.2-0.4-0.4-0.6-0.6c0.7-2.3,0.8-4.7,1.8-6.9
		c0-0.2,0.1-0.6,0.1-0.8h0.2C112.5,54.2,113.6,51.6,114.3,48.8z M129.7,46.6c0.1-1.1,0.6-2.2,1.1-3.2c0.1-0.1,0.3-0.2,0.4-0.3
		C130.8,44.3,130.3,45.5,129.7,46.6z M128.4,47.2c-1,0-1.9-0.5-2.8-0.8c-0.8-0.3-1.7-0.5-2.4-1c1.1-0.1,2.1,0.4,3.1,0.7
		C127.1,46.4,127.9,46.6,128.4,47.2z M122.7,45.3c-0.5-0.1-0.9-0.4-1.2-0.7C122.1,44.6,122.6,44.7,122.7,45.3z M121,44.4
		c-1,0-2-0.4-2.8-1C119.1,43.5,120.1,43.9,121,44.4z M115.3,83.6c-0.3-2.1-0.9-4.1-0.9-6.3c-0.2-1-0.1-2.1-0.1-3.1
		c-0.1-0.6-0.1-1.2-0.1-1.7c0-3,0.3-6,0.8-9c1-3.2,1.2-6.7,2.8-9.7c-0.1,1.4-1.1,2.7-0.5,4.1c0.8-1.6,0.9-3.3,1.6-4.9
		c0.8,0.1,1.5,0.3,2.2,0.7c0.5,1.7-1.2,3.5-0.2,5.1c0.5-1.4,0.5-3,1.2-4.4c0.1,2-0.6,4-1,6l-0.3-0.5c-0.3-0.5-0.6-1-0.9-1.5
		c0.4-1.3,0.8-2.7,0.9-4.1c-0.1-0.1-0.3-0.2-0.4-0.3c-0.5,1.3-0.7,2.7-0.8,4.1c-0.7,0-1.5-0.1-2.2,0.2c-0.6,0.3-0.8,0.9-1.1,1.4
		c-0.4,0.4-0.3,1,0,1.3c0.3,0.5,0.7,1,1.2,1.4c-0.3,1.5-0.4,3.1-0.5,4.7c0,1.3-0.2,2.5,0,3.8l0.5,0.3c0.1-1.5,0.1-3,0.2-4.5
		c0-0.5,0.2-1,0.3-1.6c0.1-0.8,0.1-1.6,0.2-2.4c1.2,0.1,2.4-0.5,2.7-1.7l0.1-0.3c-0.1,2-0.5,4-0.7,6.1c-0.1,3.2-0.1,6.4,0,9.6
		c0.3,0.9,0.4,1.8,0.4,2.8c0.4,3,1.2,5.9,2.2,8.8c-0.5,0.4-0.2,1.2,0.4,0.9c0.2,0.5,1,1.2,0.4,1.7c-0.4-0.5-0.7-1.1-1.4-1.1
		c-0.5,1.5-2.5,2.1-3.8,1.4c0,0.5-0.2,0.8-0.6,0.9l0.1-0.3C116.3,89.1,116,86.2,115.3,83.6z M114.1,66.2c0.2-2.4,0.5-4.8,1.3-7
		C114.9,61.5,114.5,63.9,114.1,66.2z M119.8,61.1c-0.8,0-1.5,0.2-2.2,0.5c-0.5-0.9-0.6-2.8,0.9-2.6
		C119.7,58.8,120.1,60.2,119.8,61.1z M109.4,56.8c0.5-0.4,1-0.8,1.6-1.1c-0.3,0.6-0.6,1.1-1.1,1.5C109.7,57.1,109.5,56.9,109.4,56.8
		z M81.8,71.5L81.8,71.5c-0.4-1.4-0.6-2.9,0.1-4.2c0.5-1,1.2-1.9,2.2-2.2c0.8-0.7,2-0.6,3-0.7c3.5,0.1,6.8,1.4,9.7,3.4
		c1.4,1,2.5,2.4,3.8,3.6c-0.3,0.3-0.6,0.5-0.9,0.8c-0.5-0.9-1.2-1.7-1.9-2.4c0,0.2,0,0.6,0,0.8c0.7,0.3,0.9,1.2,1.3,1.8
		c-0.2,0-0.5-0.1-0.6-0.1c-0.3-0.4-0.5-0.9-1.1-0.8c0.4,0.6,0.7,1.2,1.1,1.8c-0.2,0-0.7,0-1-0.1c-0.3-0.7-0.5-1.5-1.3-1.9
		c0.2,0.6,0.4,1.2,0.6,1.9c-1.9,0.1-3.7,0.3-5.6,0.3v0.1c-1.5,0.1-3,0.2-4.4,0.8c0-0.9-0.4-1.7-1.3-2.1c0.1,0.5,0.4,1.1,0.8,1.4
		c0,0.3,0.1,0.6,0.1,0.9C84.4,75,82.7,73.3,81.8,71.5z M101,79.8l0.3-0.5c0.2,0.2,0.4,0.5,0.6,0.7c0.2-0.2,0.4-0.4,0.6-0.6
		c-0.3-0.2-0.5-0.3-0.8-0.5c1.5-1.2,2.5-3,3.2-4.8c-0.5-0.1-1-0.3-1.5-0.1c-1.7,0.6-3.1,2-3.9,3.7c-0.6,1.2-1.4,2.4-2.3,3.4
		c-1.6,1.8-3.5,3.7-6,4.2c-1.9,0.3-4,0.3-5.7-0.7l-0.1-0.1c-1.3-1-2.2-2.5-2.6-4.2c-0.2-1.2-0.3-2.5,0.5-3.5
		c0.9-1.3,2.6-1.7,4.2-2.1c3-0.7,6.1-0.9,9.2-1.2c1.8-0.2,3.6,0,5.4-0.3c-1.1-0.3-2.3-0.3-3.5-0.5c0.5-0.5,1.2-0.6,1.9-0.6
		c0.2-0.2,0.3-0.3,0.5-0.5c0.7,1.4,2.5,1.5,3.7,0.7c-0.2-0.5-0.2-1.1-0.6-1.6c-1.8-2-4.3-3.3-6.2-5.2c-0.2-0.2-0.5-0.5-0.7-0.7
		c-1.8-2-3.4-4.4-4-7c-0.7-3.3,1.9-7.2,5.4-7.2c2-0.2,3.9,1.2,4.5,3c0.2,1.6,0,3.3,0,4.9c0,0.1,0,0.2,0,0.3c0.2,2.6,0.5,5.2,0.7,7.8
		c0.2,1.6,0.3,3.3,1.1,4.7c0-1.5-0.3-3-0.4-4.5c-0.2-1.5-0.4-3.1-0.5-4.6c-0.2-2.1-0.1-4.3-0.3-6.4c0-1.1-0.3-2.5,0.7-3.4
		c1.5-1.9,4.4-2.7,6.6-1.5c0.3,0.2,0.7,0.4,1,0.6c0,0.1-0.1,0.4-0.2,0.6c-1.2,0.2-2.3,0.8-2.8,1.9c0.9-0.5,1.8-1,2.8-1.4
		c-0.7,1.4-2.6,1.5-3.1,3.1c0.9-0.5,1.7-1.1,2.7-1.5c-0.8,1.3-2.3,1.8-3.1,3c0.3-0.1,0.5-0.2,0.8-0.3c0.1,0.1,0.3,0.3,0.4,0.4
		l0.3,0.2c0.3,0,0.6,0,0.9-0.1c-0.4,0.4-0.8,0.8-1.1,1.2c-0.1,0.1-0.2,0.4-0.2,0.5c0.2,0,0.7-0.1,1-0.2c-0.4,0.7-0.9,1.3-1.5,1.9
		c0.2,0,0.6,0,0.8-0.1c-0.4,1.1-0.2,2.6-1.4,3.2c0.2,0.1,0.6,0.3,0.8,0.3c-0.2,0.2-0.4,0.4-0.6,0.6c0.1,0.3,0.2,0.6,0.3,0.9
		c-0.7,0.6-1.4,1.3-1.7,2.2c0.6-0.3,1.2-0.7,1.8-1c-1.2,1.8-3.1,3.2-3.5,5.4c0.1,0.1,0.4,0.4,0.5,0.5c0.9-0.2,1.6-0.7,2.4-1.2
		c0,0.2,0,0.6,0,0.9c-0.4,0.2-0.8,0.4-1.1,0.6c0.3,0,0.9,0,1.2,0c0,0.3,0,0.9,0,1.2c-0.8-0.4-2.1-1.1-2.6,0c-0.3,1.1,0.8,2,1.5,2.7
		c0.2,0.2,0.4,0.3,0.6,0.5c-0.1,0.3,0,0.7,0.2,1s0.4,0.6,0.6,0.9c0.2,1.1,0.4,2.3,0.6,3.4c0.1,0.4,0.1,0.7,0.2,1.1
		c0.4,1.5,0.8,3,1.2,4.5c0.2,0.4,0.1,0.9,0,1.3c0.3,0.2,0.5,0.5,0.8,0.7c-0.1,0.1-0.4,0.4-0.5,0.6c0.4,0.4,0.7,0.8,1.1,1.2
		c-0.3,0-0.9-0.1-1.2-0.2c0,0.2,0.1,0.6,0.2,0.8c-0.2,0-0.6-0.1-0.8-0.1c0.1,0.2,0.1,0.5,0.2,0.7c-0.8,0.3-1.6,0.8-2.5,0.8
		c-1.1-0.6-1.3-2-1.4-3.1c-0.2-1.8-0.4-3.5-0.5-5.3c0,0.1-0.1,0.3-0.1,0.4c-0.3-2.2-0.4-4.4-0.5-6.6c0-1.4,0.1-2.9-0.1-4.3
		c-0.3,0.6-0.4,1.3-0.4,1.9c-0.1,4-0.1,8.1,0.6,12c0.2,1.3,0.6,2.6,0.5,3.9c-0.2,0.8-0.5,1.9-1.4,2.2c-0.1-0.6,0.4-1.1,0.7-1.7
		c-0.4,0.2-0.8,0.3-1.2,0.5c0.5-0.6,1-1.2,1.4-1.9c-0.6,0.4-1.3,0.9-1.9,1.3c0.3-1,1.5-1.5,1.8-2.6c-0.7,0.4-1.3,1.3-2.2,1.1
		c0.7-0.9,2.1-1.4,2-2.6c-0.9,0.6-1.5,1.7-2.7,1.9c0.7-1.1,2.2-1.7,2.5-3.1c-1,0.6-1.8,1.5-2.7,2.3c-0.1-0.2-0.3-0.4-0.4-0.6
		c1.1-0.8,2.3-1.7,2.9-2.9c-1.8,0.3-2.4,2.6-4.3,2.8c-0.2,0-0.4,0.1-0.6,0.2c-1.5,0.5-2.9,1.1-4.3,1.5c0-1.1,0-2.2,0.3-3.3
		c0.1-0.5,0.3-1,0.5-1.5C97.1,84.1,98.8,81.7,101,79.8z M106.6,74.7c0.5,0.3,1,0.6,1.4,1c0,0.5,0,1.1,0.1,1.6
		C107.4,76.6,106.2,75.9,106.6,74.7z M108.1,70.7c-0.6,0.6-1.2,1.1-1.9,1.5c0-1.4,1.1-2.4,2-3.2C108.1,69.5,108.1,70.1,108.1,70.7z
		 M102.3,96.4c-0.9,0.7-2,0.9-3,1.3c-0.2-0.1-0.4-0.3-0.6-0.4l0.6-0.2c0.1-0.1,0.2-0.3,0.2-0.4c-0.5,0.2-0.9,0.4-1.4,0.7
		c0.3,0.2,0.5,0.3,0.8,0.5c-0.6,0.1-1.3,0.2-1.9,0.3c0-0.5,0.1-1.1,0.1-1.6c-0.3,0.2-0.6,0.5-1,0.7c0.2-0.4,0.3-0.9,0.5-1.3
		c-0.4,0.3-0.7,0.6-0.9,0.9c-0.1,0-0.2-0.1-0.3-0.2c1.2-2.6,4.1-3.7,6.8-4.3c0,0.1,0,0.4,0.1,0.5c-1.8,0.3-3.7,1-5.1,2.2
		c1.6-0.6,3.1-1.5,4.9-1.4c-0.6,0.8-2,0.4-2.6,1.3c1.2,0,2.4-0.8,3.5-0.4c-1,0.3-2.1,0.5-3,0.9l-0.1,0.3c1.1,0.1,2.2-0.5,3.3-0.5
		c-0.8,0.9-2.4,0.5-3.2,1.5C100.7,96.7,101.5,96.5,102.3,96.4z M97.6,117c-0.4-1.3-0.5-2.6-0.5-4c-0.2-3.3-1.7-6.3-3.4-9
		c-1.3-2-3.2-3.4-5.1-4.6c-0.5-0.1-1-0.3-1.5-0.5c3.6-4.4,8.9-7,14.4-8.1c0.1,0.2,0.3,0.7,0.5,1c-2.2,0.7-4.5,1.5-6.1,3.2h-0.1
		c-0.7,0.9-1.2,2.1-0.6,3.2c0.8,1.5,1.9,2.8,2.5,4.3h0.1c0.9,2,1.8,3.9,2.9,5.8v0.2c1.4,2,2.2,4.4,2.9,6.7
		C101.4,115.7,99.6,116.5,97.6,117z M154.4,119c-5.6,0.1-11.3-0.3-16.7-1.9l-0.2-0.1c-2.4-0.8-4.6-2-6.7-3.3
		c-0.3-0.2-0.6-0.4-0.8-0.7c-0.1-0.3-0.3-0.5-0.6-0.5c-0.3-0.1-0.6-0.2-0.8-0.5c0.7-0.2,1.4-0.3,2.1-0.4c0.6,1.2,1.8,2,2.9,2.7
		c2.7,1.3,5.7,2.2,8.6,2.9c3.3,0.7,6.7,0.8,10.1,0.7c4.9-0.2,9.9-0.9,14.5-2.8c1.7-0.7,3.5-1.6,4.9-2.8c0,0,0,0,0.1-0.1
		c0.4-0.6,1.2-0.2,1.8,0C168,116.2,161.3,118.8,154.4,119z M163.3,110.1c-0.5,0.2-1,0.4-1.5,0.6c0,0.2-0.1,0.5-0.1,0.6
		c1.5-0.2,2.8-1.2,4.3-0.9c-2,1.1-4.2,1.4-6.2,2.3c0,0.1-0.1,0.3-0.1,0.5c2.7-0.5,5.4-1.4,7.9-2.6c-0.2,0.7-0.9,1-1.6,1.2
		c-1.6,0.6-3.2,1-4.8,1.7c-0.4,0.6,0.8,0.3,1.1,0.2c1.4-0.5,2.9-0.9,4.3-1.5c1-0.4,2-1,3-1.4c-0.1,0.7-0.9,0.9-1.4,1.2
		c-3,1.5-6.3,2.6-9.6,3.3c-0.4,0.1-0.8,0.1-1.1,0.1c-0.4,0-0.7,0-1.1,0.2c-0.2,0.2-0.7,0.5-1,0.7c0.7,0.1,1.3,0,2,0
		c2.6-0.7,5.3-1.2,7.8-2.1c1.9-0.7,3.8-1.5,5.2-3c0.3,0.1,0.6,0.1,0.9,0.2c-1.2,1.4-2.9,2.1-4.5,2.9c-2.7,1-5.4,1.8-8.2,2.2
		c-0.7,0.2-1.4,0.3-2.1,0.4c-1.3,0.3-2.5,0.3-3.8,0.2c-1.3,0-2.7,0.1-4,0c-0.9-0.1-1.8-0.2-2.6-0.2c-0.8-0.1-1.6-0.1-2.4-0.4
		c-0.4-0.2-0.9-0.3-1.4-0.3c-1.8-0.1-3.5-0.8-5.2-1.3c-2-0.9-4.3-1.6-5.5-3.6c0.2,0,0.7-0.1,0.9-0.1c5.8-1.2,11.8-1.6,17.7-1.7
		c1.6,0,3.3-0.1,4.9,0c1.8,0.3,3.6,0,5.4,0.2c0,0.1,0,0.4,0,0.6C161.3,110.1,162.3,109.9,163.3,110.1z M198,115.5
		c-0.5,0.7-1.4,1-2.2,1c-1.4,0-2.6-0.6-3.9-1c-6.5-1.8-13-3.3-19.5-5c-6.8-1.6-13.7-2.4-20.6-2.2c-7.9,0-15.7,0.7-23.4,2.4
		c-6.2,1.4-12.3,3.4-18.2,5.5c-0.8,0.3-1.6,0.6-2.5,0.8c-1,0-2.1,0.2-3-0.5c-0.9-1.1-0.9-2.7-1.5-3.9c-1.9-4.6-4.4-9-6.6-13.5
		c2.2-0.1,4.3-0.8,6.1-1.9c3.3-1.5,6.9-2.6,10.4-3.6c1.2-0.3,2.4-0.6,3.6-0.9c5.6-1.4,11.4-2.2,17.1-3.2c3.6-0.5,7.3-1,11-1
		c5.1-0.2,10.2-0.2,15.3,0.2c5.8,0.4,11.6,1.1,17.3,2.4c8.8,1.9,17.6,4.1,25.9,7.6c0.7,0.3,1.5,0.4,2.2,0.5c-0.4,0.8-0.7,1.6-1,2.4
		c-1.2,2.3-2.5,4.6-3.6,7c0,0.1-0.1,0.2-0.2,0.2C199.7,111.1,198.7,113.2,198,115.5z M199.2,94.8c0-0.1-0.1-0.4-0.2-0.5
		c1.3,0.4,2.5,0.8,3.8,1c-0.9-1-2.4-0.9-3.6-1.5c1.5-0.4,3,0.6,4.4,1.1c-0.9-1.2-2.4-1.6-3.7-2c0.1-0.1,0.2-0.3,0.2-0.4
		c2.6,0.5,5.8,1.6,6.5,4.5c-0.4-0.3-0.7-0.7-1-1c0.1,0.5,0.2,1.1,0.4,1.6c-0.3-0.4-0.6-0.7-0.9-1c0,0.5,0.1,1.1,0.1,1.6
		c-2.2-0.9-4.5-1.8-6.7-2.6l0.2-0.4c1.2,0.2,2.3,0.7,3.5,0.9C201.6,95.1,200.2,95.3,199.2,94.8z M204.7,116.4v-0.2
		c0,0.2-0.1,0.6-0.1,0.8c-1.8-0.8-3.6-1.5-5.5-1.9c0-0.2-0.1-0.5-0.1-0.6c1.7,0.3,3.4,0.9,5,1.5c-1.1-1.5-3.5-1.3-4.6-2.9
		c1.4,0.2,2.6,1.1,4,1.5c0.1,0,0.4-0.1,0.6-0.1c-1.3-1-2.9-1.3-4.3-2.1c0.8-0.3,1.6,0.2,2.3,0.1c0.1-0.8-1.2-0.6-1.7-0.9
		c0.1-0.5,0.5-0.8,0.9-0.6c0.9,0.2,1.6,0.8,2.5,1c-0.6-1-1.8-1.2-2.8-1.6c0-0.1,0-0.4,0-0.5c0.8,0,1.6,0.6,2.5,0.6
		c-0.5-0.7-1.3-0.8-2.1-1.1c0-0.3,0-0.8,0.5-0.7c0.7,0.2,1.5,0.6,2.3,0.6c-0.4-0.9-2.4-0.6-2-1.8c1.2-0.1,2.2,1,3.4,0.9
		c-0.9-0.7-2-1-3-1.5c0.1-0.1,0.2-0.4,0.3-0.5c1.1,0.2,2.1,0.8,3.1,1.3c0-0.1,0.1-0.3,0.1-0.4c-0.8-0.9-2.1-1.2-2.8-2.3
		c1.3,0.2,2.5,1.1,3.6,1.7C205.5,109.8,205.4,113.2,204.7,116.4z M207,106.5c-0.8-0.9-2-1.2-2.9-1.9l0.1-0.4c1-0.1,1.9,0.9,3,1
		c-0.3-1.3-2.5-1-2.2-2.5c1.1,0.5,2,1.2,3,1.9C207.5,105.2,207.2,105.8,207,106.5z M215.1,98.7c0,0.1-0.1,0.2-0.1,0.3
		c-2.8,1-5.2,2.9-6.8,5.4c-0.8-0.9-1.9-1.5-2.9-2.1c0.1-0.2,0.2-0.4,0.2-0.7c1,0.4,1.9,1,2.8,1.5c-0.1-1.4-2.2-1.5-2.1-3
		c1.4,0.3,2.3,1.4,3.6,2c-0.6-1.2-2.1-1.7-3.1-2.6c0.9-1.1,1.2-2.8,0.3-4c-1.6-2-4.1-2.9-6.5-3.7c0.1-0.3,0.2-0.6,0.3-0.9
		c0.5,0.1,1.1,0.1,1.6,0.4c-0.2,0.1-0.7,0.2-0.9,0.3c2.9,0.9,5.6,2.3,8.3,3.6l-0.5-0.3c0.1-0.2,0.3-0.4,0.4-0.5
		C211.6,95.7,213.6,96.9,215.1,98.7z M202.4,91.4c2.4,0.5,4.6,1.9,6.9,2.6c-0.2,0.1-0.3,0.2-0.5,0.3
		C206.7,93.1,204.4,92.6,202.4,91.4z M218.9,74.6c-0.4-0.1-0.8-0.3-1.1-0.4c-1.1-0.3-2.2-0.5-3.4-0.6c-2.2-0.2-4.4-0.4-6.6-0.5
		c0.2-0.6,0.3-1.2,0.4-1.9c-0.6,0.5-0.9,1.2-1.2,1.8c-0.2,0-0.7,0.1-0.9,0.1c0.4-0.6,0.8-1.3,1-2c-0.7,0.5-1.1,1.2-1.4,2
		c-0.2,0-0.7,0-0.9,0c-0.7,0-1.5,0.1-2.2,0.2c1.6,0.5,3.3,0.2,5,0.3c3.9,0.3,7.8,0.6,11.6,1.7c1,0.5,2,1.2,2.5,2.2
		c0.7,2.5-0.4,5.3-2.4,7c-0.8,0.7-1.9,0.9-2.9,0.9c-1.1,0-2.3,0-3.4-0.2c0.2-0.1,0.5-0.2,0.6-0.2c0.7,0,1.4,0,2.1,0.1
		c-0.7-1.3-1.6-2.5-2.5-3.7c-0.1,0.1-0.4,0.2-0.5,0.2c0.5,1,1.2,1.8,1.5,2.9c-0.8-0.7-1.4-1.7-2.1-2.6c-0.2,0-0.5-0.1-0.6-0.2
		c0.5,0.9,1.1,1.8,1.5,2.7c-1.7-1.3-2.2-3.5-3.7-5c0.3,1.4,1.4,2.4,1.6,3.8c-1.1-1.2-1.3-3.1-2.8-3.9c0.2,0.6,0.4,1.2,0.7,1.8
		c-1.2-1.3-2-2.9-3.1-4.3c-0.1,0.1-0.2,0.3-0.2,0.4c1.4,3.2,3.9,5.9,7,7.6l-0.1,0.3c-0.7-0.3-1.5-0.6-2.1-1.1
		c-2.1-1.7-4-3.8-5.2-6.3c-0.5-1-1.2-1.9-2.1-2.5c-0.9-0.7-1.9-1-3-1.1c0,0.4,0.1,0.8,0.1,1.3c0.1,0.3,0.3,0.6,0.5,0.9
		c0.8,1.2,1.7,2.4,2.8,3.4c1.2,1.2,2.5,2.4,3.4,3.8c1.7,2.6,3.1,5.7,2.5,8.9c0,0.1,0,0.4,0,0.5c-0.6-0.3-1.1-0.5-1.7-0.8
		c-0.2-0.1-0.5-0.2-0.7-0.3c-1.4-0.6-3-1.1-4.5-1.6c-0.9-0.2-1.5-1-2.3-1.6c0.1,0.6,0.4,1.1,0.7,1.7c-0.2,0-0.7-0.1-0.9-0.1
		c0.1,1.1-0.4,2-0.9,2.8c0.3-2.4,0.8-4.9,1-7.3c0.2-3.3,0.2-6.7,0-10c-0.2,0.5-0.4,1-0.4,1.5c0,1.5,0.1,3.1-0.1,4.7
		c0,1.5-0.2,3-0.4,4.5c-0.2,1.9-0.4,3.8-0.6,5.7c0,1.2-0.5,2.3-1.6,2.9c-0.1,0.1-0.3,0.2-0.4,0.3c-1-0.4-2-0.6-3-0.8
		c0.1-0.2,0.2-0.6,0.3-0.8c-0.5,0.2-1.1,0.4-1.6,0.6c0.4-0.4,0.8-0.9,1.2-1.3c-0.8,0.3-1.5,0.6-2.3,0.9c0.6-0.6,1.3-1.3,1.9-1.9
		c-0.5,0.2-1,0.3-1.6,0.5c0.6-0.6,1.3-1.1,2-1.6v-0.4c-0.4,0.2-0.8,0.3-1.3,0.5c0.2-0.3,0.4-0.6,0.5-0.9c0.1-0.7,0.3-1.4,0.4-2.1
		c0.2-0.2,0.4-0.4,0.7-0.6c-0.1-0.1-0.3-0.4-0.4-0.6c0.4-0.4,0.8-0.9,1.2-1.3c-0.2,0-0.7,0-0.9,0c0.2-0.3,0.5-0.6,0.7-0.9
		c-0.1-0.1-0.3-0.4-0.4-0.5c0.1-0.2,0.3-0.5,0.4-0.7c-0.1-0.3-0.1-0.5-0.2-0.8c0.7-0.4,1.4-0.8,1.9-1.5c-0.6,0.1-1.2,0.3-1.7,0.5
		c1-0.9,2.1-1.7,3.1-2.6c-0.4,0.1-1.2,0.3-1.6,0.3c1.1-1.1,2.5-2,3.4-3.2l0.1-0.4c0.1-0.7-0.2-1.6-1.1-1.6c-1.2,0.2-2.1,1.1-2.9,1.8
		c-0.4-0.7-1.1,0.1-0.5,0.5c-0.1,0.1-0.3,0.2-0.3,0.3c0-1.3-0.1-2.5,0-3.8c1.1,0.2,2.2,0.5,3.4,0.6c-1-0.7-2.3-0.8-3.4-1.1
		c-0.1-1-0.2-2.1-0.2-3.1c1.3,1.5,2.5,3.1,4.4,3.8c0.5,0.4,0.8-0.4,1-0.6c-0.2-0.6-0.5-1.2-0.7-1.7c-0.1-0.2-0.2-0.3-0.3-0.5
		c-1.3-1.8-3.1-3.2-4.6-4.8c0-0.2-0.2-0.7-0.2-1c1.2,1.2,2.3,2.5,3.6,3.6c0.1,0,0.2,0,0.3,0c0.2-0.4-0.2-0.7-0.4-1
		c-0.9-1-2.1-1.9-2.9-3c0.9,0.5,1.4,1.5,2.5,1.6c-0.2-0.2-0.5-0.7-0.6-0.9c0.1-0.1,0.3-0.3,0.4-0.5c-0.1-0.1-0.3-0.4-0.4-0.6h-0.5
		c0,0.2,0.1,0.6,0.2,0.8c-0.9-0.7-2-1.1-2.5-2.2c0.7,0.4,1.5,0.9,2.2,1.4c-0.3-1.4-2.1-1.5-2.6-2.9c0.5,0.2,1.1,0.4,1.6,0.7
		c-0.5-0.9-1.5-1.4-2-2.3c1.2,0.6,2.3,1.4,3.4,2.1c-0.7-1.5-2.3-2.2-3.6-3c-0.2-0.8-0.4-1.6-0.7-2.4c1.2,0.6,2.4,1.4,3.6,1.9
		c-0.5-0.6-1-1.1-1.6-1.5c-1-0.7-2.5-1.1-2.8-2.4c0.8-1,1.7-2.1,2.8-2.8c1.2-0.7,2.6-0.7,4-0.4c0.5,0.2,1.1,0.5,1.6,0.9
		c0.7,0.7,1.7,1.4,1.7,2.5c0,2.2-0.1,4.4-0.1,6.7c-0.1,3-0.6,5.9-0.9,8.8c0,0.6-0.1,1.2,0,1.8c0.9-1.9,0.9-4,1.2-6
		c0.1-0.9,0.2-1.7,0.2-2.6c0.4-2.6,0.4-5.2,0.3-7.8c-0.2-1.8,1.3-3.5,3-4c0.9-0.2,1.9-0.2,2.8,0c1.8,0.7,3.4,2.1,4,4
		c0.6,1.6,0.2,3.3-0.3,4.9c-1,2.3-2.5,4.3-4.3,6c-0.8,0.8-1.8,1.4-2.7,2.2c-0.2-0.2-0.4-0.4-0.6-0.6l-0.2,0.4
		c-0.2-0.1-0.3-0.3-0.5-0.4c0.1-0.2,0.4-0.6,0.5-0.8c-0.9,0.4-1.7,1-2,2c0.3-0.2,0.7-0.4,1-0.7c0.4,0,0.8,0.1,1.2-0.1
		c0,0.1-0.1,0.4-0.1,0.5c-1.3,1.2-3.2,2.1-3.3,4.1c1.3,1,2.9,0.4,4-0.6c0,0.1,0,0.4,0,0.6c0.2-0.1,0.5-0.2,0.7-0.2
		c0.2,0.1,0.5,0.3,0.6,0.4c0.6-1.1,1.2-2,1.9-3c-0.9,0.5-1.5,1.4-2.1,2.3c-0.4-0.1-0.8-0.2-1.2-0.2c1.1-1.4,2.3-2.7,3.7-3.8
		c2.2-1.6,4.7-2.8,7.4-3.3c2.1-0.3,4.7-0.6,6.5,0.9c1.4,1.1,1.9,3,1.7,4.7c-0.1,0.8-0.4,1.5-0.9,2.1
		C221.5,73.5,220.4,74.7,218.9,74.6z M193.8,66.2c1.6,1.9,3.9,3.4,4.7,5.8c-1.3-0.2-2-1.5-2.8-2.5C195,68.5,193.8,67.6,193.8,66.2z
		 M194.3,78.9c0.1-0.4,0-0.8,0.3-1.2c1-1.1,2.1-2.3,3.5-3c0.3,1-0.5,1.7-1.2,2.2C196,77.6,195.2,78.3,194.3,78.9z"/>
	<path d="M85,83.1c0.1,0,0.3,0.1,0.3,0.1c0.6-0.5,1-1.2,1.4-1.9C85.9,81.5,85.4,82.3,85,83.1z"/>
	<path d="M177.1,47.4c-0.2-0.1-0.5-0.2-0.6-0.2c0.1,1.4,0.6,2.7,1,4l0.3-0.1c0-0.5-0.1-1-0.1-1.5C177.5,48.9,177.3,48.2,177.1,47.4z
		"/>
	<path d="M147.9,76.2c-0.5,1.5-1.1,3.1-1.3,4.7c0.2,0,0.6,0,0.8,0c0.4-2.1,1.1-4.2,1.6-6.4C148.3,74.9,148.2,75.6,147.9,76.2z"/>
	<path d="M137.4,57.2c0.2,0,0.6-0.1,0.8-0.1h0.2c1.3-0.1,2.6-0.1,3.9-0.2c-0.1-0.7-0.1-1.4,0-2.1c0-0.3,0.1-0.6,0.1-0.9
		c0-0.3,0.1-0.8,0.1-1.1c-1.2,0.7-0.8,2.2-1.1,3.3v0.1c-1.1,0-2.2,0-3.3,0c0-1.1,0-2.3,0-3.4c0-0.3,0-0.6,0-0.9
		c-0.1-0.8-0.2-1.6-0.3-2.4c0-0.5-0.1-0.9-0.3-1.3c-0.3,3-0.2,6-0.2,9L137.4,57.2z"/>
	<path d="M179.1,50.6c-0.2,0.3-0.1,0.6,0.1,0.8c0.2-0.1,0.5-0.3,0.7-0.5C179.7,50.8,179.4,50.3,179.1,50.6z"/>
	<path d="M108.3,51.8c0.1-0.3,0.6-0.9,0-0.9c-0.2,0.1-0.5,0.2-0.7,0.2C107.8,51.3,108,51.6,108.3,51.8z"/>
	<path d="M123,50.9c-0.4-0.1-0.8,0.1-0.9,0.5c0.1,0.1,0.2,0.3,0.3,0.4c0.1,0.3,0.2,1,0.6,0.7c0.2-0.3,0.2-0.7,0.1-1
		C123,51.3,123,51,123,50.9z"/>
	<path d="M196.7,51.4c0.1-0.5,0-0.7-0.5-0.5C196,51.4,196.2,51.6,196.7,51.4z"/>
	<path d="M108.8,52.6c0,0.2,0.1,0.5,0.1,0.7c0.6-0.4,1.2-0.7,1.7-1.1c-0.1-0.1-0.2-0.4-0.3-0.5c-0.1-0.1-0.4-0.4-0.6-0.6
		c-0.6,0.2-0.6,0.8-0.4,1.3C109.2,52.4,108.9,52.5,108.8,52.6z"/>
	<path d="M99.8,51.8c0.7,0.5,1.5,1.4,2.5,1.4C101.8,52.3,100.7,52,99.8,51.8z"/>
	<path d="M202.4,53.3c0.9-0.3,1.8-0.9,2.5-1.5C203.9,52,202.8,52.4,202.4,53.3z"/>
	<path d="M102.6,54.6c-0.3-0.7-1-1.1-1.6-1.4c-0.9-0.5-1.8-0.9-2.7-0.9c0.9,0.6,1.9,1,2.8,1.6C101.6,54.1,102,54.5,102.6,54.6z"/>
	<path d="M206.2,52.3l-0.3-0.1c-1.4,0.5-3,1.1-3.9,2.4c1.2-0.4,2.2-1.3,3.4-1.8C205.6,52.6,205.9,52.4,206.2,52.3z"/>
	<path d="M195.8,55.9c-0.3-1.3-1.7-1.8-2.8-2.4c-0.4-0.2-1.4-0.6-1.1,0.2C193.3,54.2,194.6,55.1,195.8,55.9z"/>
	<path d="M191.5,54.1c0,0.1,0.1,0.4,0.2,0.6c1.6,0.7,2.9,1.8,4.5,2.6C195.1,55.7,193.3,54.7,191.5,54.1z"/>
	<path d="M204.6,54.1c-1,0.1-2.4,0.7-2.5,1.8C202.9,55.4,203.9,55,204.6,54.1z"/>
	<path d="M101.4,55.8c-1-0.6-2-1.3-3.2-1.4c1.5,1,3,2.1,4.5,3C102.7,56.6,102,56.2,101.4,55.8z"/>
	<path d="M205.9,54.4c-1.4,0.9-3.4,1.3-4,3c1.6-0.8,2.9-2.1,4.5-2.9C206.3,54.5,206,54.4,205.9,54.4z"/>
	<path d="M205.1,56.3c-1,0.3-1.9,0.9-2.7,1.5c-0.3,0.2-0.5,0.6-0.4,1c0.8-0.5,1.6-1.2,2.5-1.7C204.9,56.9,205,56.6,205.1,56.3z"/>
	<path d="M102.2,58.6c0.1-0.1,0.3-0.2,0.5-0.2c-0.9-1-2-1.8-3.4-2l0.4,0.4C100.6,57.4,101.4,58,102.2,58.6z"/>
	<path d="M206,57.4c-1.3,0.2-2.3,1-3.3,1.7c-0.4,0.2-0.4,0.7-0.5,1.1c1-0.6,1.9-1.3,2.9-1.9C205.3,58.1,205.6,57.7,206,57.4z"/>
	<path d="M102.4,60.2c0-0.2,0-0.7,0-1c-0.1-0.1-0.3-0.2-0.4-0.2c-0.9-0.5-1.7-1.1-2.6-1.5l-0.6,0.2c0.5,0.4,1,0.7,1.5,1.1
		C101,59.2,101.7,59.7,102.4,60.2z"/>
	<path d="M109,58.5c0.4-0.3,0-1-0.4-0.6C108.2,58.1,108.6,58.9,109,58.5z"/>
	<path d="M195.5,57.9c-0.2,0.5,0,0.7,0.5,0.5C196.2,57.9,196,57.8,195.5,57.9z"/>
	<path d="M98.4,58.9c0.6,0.4,1.2,0.7,1.8,1.1c-0.1-0.3-0.3-0.7-0.4-1c-0.4-0.1-0.8-0.2-1.1-0.2L98.4,58.9z"/>
	<path d="M100.4,60c0.7,0.6,1.4,1.4,2.4,1.6C102.4,60.7,101.4,59.8,100.4,60z"/>
	<path d="M204,60c-1,0.1-1.8,0.8-2.2,1.7c0.8-0.3,1.6-0.8,2.3-1.4C204.1,60.2,204.1,60.1,204,60z"/>
	<path d="M205.6,59.9c-0.4,0.4,0.3,0.8,0.6,0.4C206.6,59.9,205.9,59.4,205.6,59.9z"/>
	<path d="M100.6,61.3c0.2,1,1.4,1.3,2.2,1.9C102.8,62,101.5,61.6,100.6,61.3z"/>
	<path d="M204,61.3c-0.9,0.3-2.2,0.7-2.2,1.9C202.6,62.7,203.7,62.3,204,61.3z"/>
	<path d="M100.9,62.9c0.5,0.8,1.2,1.3,2,1.7C102.7,63.7,101.8,62.9,100.9,62.9z"/>
	<path d="M203.7,62.9c-1,0-1.7,0.8-2.1,1.6C202.5,64.3,203.2,63.6,203.7,62.9z"/>
	<path d="M103,65.7c-0.6-0.9-1.7-2.1-2.8-1.7c0.3,0.2,0.5,0.3,0.8,0.5C101.6,64.9,102.3,65.4,103,65.7z"/>
	<path d="M204.5,63.8c-1.2-0.1-2.2,0.9-2.8,1.9c0.8-0.4,1.6-0.8,2.3-1.4C204.1,64.2,204.3,63.9,204.5,63.8z"/>
	<path d="M122.6,63.9c0,0.2-0.1,0.6-0.1,0.7c-0.1,1-0.1,2.1-0.1,3.1c0,0.7-0.1,1.4,0.4,2c0.1-0.6,0.2-1.3,0.2-1.9
		C122.9,66.5,123.5,65,122.6,63.9z"/>
	<path d="M197,65.5l-0.6,0.1c0.5,0.7,1.1,1.3,1.8,1.8C198.1,66.6,197.6,66,197,65.5z"/>
	<path d="M106.8,68.5c-0.1-0.2-0.3-0.5-0.4-0.6c-0.2,0.5-0.5,0.9-0.7,1.3c0.1,0.1,0.2,0.2,0.3,0.3C106.2,69.2,106.5,68.8,106.8,68.5
		z"/>
	<path d="M197.8,68.4c0.2,0.4,0.5,0.8,0.7,1.2c0.1-0.2,0.2-0.5,0.2-0.7c-0.1-0.2-0.2-0.5-0.3-0.6C198.2,68,197.9,67.9,197.8,68.4z"
		/>
	<path d="M91.6,73.1c-0.1-1.6-1.2-2.9-2.1-4c-0.4-0.3-0.8-0.5-1.2-0.7c0.6,0.8,1.4,1.6,1.9,2.6C90.6,71.7,90.9,72.6,91.6,73.1z"/>
	<path d="M95.3,69.5c-0.3-0.4-0.7-0.8-1.1-1.2c0,0.1-0.1,0.4-0.1,0.6c0.3,0.4,0.7,0.8,1,1.2C95.2,70,95.3,69.7,95.3,69.5z"/>
	<path d="M91.9,71.6c0.3,0.5,0.6,1.2,1.3,1.3c-0.6-1.6-1.4-3.2-2.9-4.1C90.7,69.8,91.4,70.7,91.9,71.6z"/>
	<path d="M211.4,72.9c0.2,0,0.5-0.1,0.6-0.1c0.8-1.3,1.7-2.5,2.3-3.9C212.8,69.6,212.1,71.4,211.4,72.9z"/>
	<path d="M216.5,69.6c-0.9,1-1.7,2.1-2,3.4c0.2,0,0.5-0.1,0.6-0.1c0.4-1.1,1.2-2.1,1.8-3.1L216.5,69.6z"/>
	<path d="M219.7,70.1c-0.7,0.2-1.2,0.9-1.7,1.3c-0.6,0.6-1.2,1.3-1.3,2.2c0.1,0,0.3,0,0.4,0c0.5-0.7,0.9-1.4,1.3-2.2
		C219,71.2,219.5,70.8,219.7,70.1z"/>
	<path d="M218.8,74c0.2-0.1,0.7-0.2,0.9-0.2c0-0.4,0.1-0.7,0.1-1.1C219.4,73.1,219,73.5,218.8,74z"/>
	<path d="M205.2,76.5c0.1-0.5-0.3-1.7-0.9-1.2C204.2,75.8,204.7,76.2,205.2,76.5z"/>
	<path d="M95.8,81.1c0.2-0.6,0.4-1.2,0.6-1.9C95,80.1,94.8,82,93.6,83c0.4-1.3,1.2-2.3,1.7-3.5c-0.4,0.2-0.7,0.5-1,0.9
		c-0.8,1.4-1.5,2.9-2.8,3.9c0.4-1,1.1-1.9,1.4-3c-1.1,0.8-1.6,2.1-2.7,2.8c0.4-1.1,1.4-2,1.4-3.2c-1.2,1.1-1.9,2.6-2.9,3.8
		c3.4,0.5,6.3-1.9,8.3-4.4c0.8-1.2,1.6-2.3,2.2-3.6c-0.1,0-0.4,0-0.6,0.1C97.8,78.4,97,79.8,95.8,81.1z"/>
	<path d="M201.2,78.2c0.4-0.3-0.1-1-0.5-0.7C200.4,77.8,200.8,78.5,201.2,78.2z"/>
	<path d="M92.6,78.1c-0.1-0.1-0.3-0.3-0.4-0.3l-0.3,0.1C91.5,78.4,92.4,78.6,92.6,78.1z"/>
	<path d="M90.5,79c0-0.1,0-0.4,0-0.5h-0.3c-0.6,0.8-1.1,1.6-1.4,2.5C89.7,80.6,90.2,79.9,90.5,79z"/>
	<path d="M200.7,78.6c0.3,0.8,1,1.5,1.6,2.1c0.1-0.2,0.2-0.5,0.3-0.7C201.7,80,201.5,78.8,200.7,78.6z"/>
	<path d="M215.7,81.1c-0.2-0.5-0.3-0.9-0.6-1.4c-0.2-0.4-0.5-0.7-0.7-1.1c-0.1,0.1-0.3,0.2-0.3,0.2c0,0.1-0.1,0.2-0.1,0.3
		C214.4,79.8,215,80.6,215.7,81.1z"/>
	<path d="M91.9,78.7c-0.7,0.3-1,1-1.3,1.5c-0.5,0.8-1.1,1.6-1.3,2.5C90.6,81.8,91.4,80.2,91.9,78.7z"/>
	<path d="M92.8,79.8c0.2-0.3,0.5-0.6,0.7-0.8c-0.1,0-0.4,0-0.5,0c-0.4,0.7-0.9,1.3-1.3,2C92.4,81.5,92.5,80.2,92.8,79.8z"/>
	<path d="M217.2,79.8c0.2-0.4,0.1-0.7-0.3-0.9c-0.4,0.2-0.5,0.5-0.2,0.9C216.8,79.8,217.1,79.8,217.2,79.8z"/>
	<path d="M84.3,79.9c-0.4,0-0.8,0-1.1,0c0.4,0.2,0.7,0.5,1.1,0.7c-0.5,0.4-0.3,0.8,0.1,1.1c0.1-0.4,0.1-0.8,0.2-1.2
		C84.4,80.4,84.3,80.1,84.3,79.9z"/>
	<path d="M94.1,79.7c-0.9-0.1-1.1,1-1.3,1.6C93.6,81.1,93.8,80.3,94.1,79.7z"/>
	<path d="M210.5,79.6c0.3,0.7,0.5,1.5,1.3,1.7C211.6,80.6,211.3,79.9,210.5,79.6z"/>
	<path d="M220.3,82.7l0.1-0.5c-0.3-0.6-0.8-1.1-0.9-1.7c0.5,0.2,0.8,0.8,1.2,1.1c0.1-0.4,0.2-0.9,0.4-1.3c0.1-0.2,0.2-0.5,0.2-0.6
		c-0.4,0.3-0.7,0.6-1.1,0.9c-0.5-0.2-1.1-0.4-1.7-0.5C218.9,81.1,219.4,82.1,220.3,82.7z"/>
	<path d="M88.5,79.9c-0.5,0.5-0.9,1-1.2,1.6c-0.6,1-1.6,1.7-1.8,2.9c1-0.7,1.6-1.8,2.3-2.8C88.2,81.2,88.4,80.6,88.5,79.9z"/>
	<path d="M102.2,81.8c1-0.1,1.4-1.1,1.9-1.9C103.1,80.1,102.7,81.1,102.2,81.8z"/>
	<path d="M217.7,82.7c0.3,0.7,0.8,1.3,1.4,1.7c-0.2-1.2-1.3-1.8-1.8-2.8c-0.4-0.6-0.6-1.4-1.3-1.6C216.3,81,216.9,82,217.7,82.7z"/>
	<path d="M88,82.2c-0.5,0.8-1.2,1.6-1.6,2.5c1.4-0.6,2.1-2.2,2.6-3.5C88.6,81.4,88.2,81.8,88,82.2z"/>
	<path d="M218.2,84.7c-0.3-0.9-1-1.5-1.4-2.3c-0.3-0.4-0.5-1.2-1.2-1C216.3,82.6,216.8,84.1,218.2,84.7z"/>
	<path d="M103.9,81.5c-0.7,0.5-1.4,1-2,1.6c-0.2,0.3-0.4,0.6-0.7,0.9c0.4-0.2,0.9-0.4,1.3-0.7C103.1,82.8,103.5,82.2,103.9,81.5z"/>
	<path d="M200.9,81.6c0.4,1.2,1.5,1.9,2.5,2.5C202.8,82.9,201.8,82.3,200.9,81.6z"/>
	<path d="M203,82.7c0.4-0.3-0.1-1-0.5-0.7C202.2,82.2,202.6,82.9,203,82.7z"/>
	<path d="M104,82.5c-0.5,0.4-1.1,0.9-1.6,1.4V84c0,0.2,0,0.5,0,0.7C103.1,84.2,103.9,83.5,104,82.5z"/>
	<path d="M202,84.6c0.1-0.1,0.2-0.4,0.3-0.5c-0.5-0.5-1-1-1.5-1.5c0,0.2,0,0.6,0,0.8C201.2,83.7,201.6,84.2,202,84.6z"/>
	<path d="M102.2,87.7c0.8-0.4,2.1-1,1.9-2.2C103.4,86.2,102.4,86.7,102.2,87.7z"/>
	<path d="M202.4,87.7c-0.3-0.9-1.1-1.5-1.7-2l-0.2,0.1C200.6,86.7,201.7,87.3,202.4,87.7z"/>
	<path d="M100.1,87.4l-0.1,0.2C100.4,88.7,101.3,87.1,100.1,87.4z"/>
	<path d="M203.8,89.9c-1.2-0.8-2.1-2-3.4-2.9c0,0.2-0.1,0.5-0.1,0.7c0.9,0.9,1.9,1.8,3.1,2.5C203.5,90.2,203.7,90,203.8,89.9z"/>
	<path d="M100.3,89l0.4,0.1c0.6-0.3,1.1-0.8,1.4-1.3C101.3,87.8,100.8,88.5,100.3,89z"/>
	<path d="M202.9,87.6c-0.4,1,0.8,1.3,1.4,1.5C204,88.5,203.4,88.1,202.9,87.6z"/>
	<path d="M194.5,90.1c0.2-0.5,0-0.6-0.5-0.5C193.8,90.1,194,90.2,194.5,90.1z"/>
	<path d="M195.5,51.8c0.2-0.4-0.4-0.9-0.8-0.6C194.5,51.6,195.1,52,195.5,51.8z"/>
	<path d="M108,52.5c0.1,0,0.3,0.1,0.4,0.1c0.7-0.2,0.4-1.1-0.3-0.6C108.2,52.1,108.1,52.4,108,52.5z"/>
	<path d="M127.4,57.4l0.4-0.2c0.7-1.8,1.2-3.7,1.7-5.6c-0.1,0.1-0.4,0.2-0.6,0.3C128.2,53.7,127.6,55.5,127.4,57.4z"/>
	<path d="M193.7,51.9c0.6,0.6,1.4,1.1,2.2,1.4C195.7,52.4,194.6,51.6,193.7,51.9z"/>
	<path d="M196.5,52.6c0.2-0.4-0.4-0.9-0.7-0.7C195.5,52.2,196.2,52.8,196.5,52.6z"/>
	<path d="M124.3,51.9c-0.2,0-0.5,0-0.6,0c0,0.5,0,0.9,0,1.4c0.1-0.1,0.4-0.3,0.6-0.4C124.2,52.7,124.3,52.2,124.3,51.9z"/>
	<path d="M195.6,54.2c-0.3-1.2-1.7-1.5-2.6-2.1c0,0.2,0.1,0.5,0.1,0.7C193.9,53.3,194.7,53.7,195.6,54.2z"/>
	<path d="M108,53.3c0,0.1-0.1,0.4-0.1,0.5l0.2,0.2C108.8,53.9,108.6,52.8,108,53.3z"/>
	<path d="M196.7,53.8c0.1-0.5,0-0.7-0.5-0.5C196,53.8,196.2,53.9,196.7,53.8z"/>
	<path d="M99,53.5c-0.2,0.4,0.5,0.8,0.8,0.5C100,53.7,99.3,53.2,99,53.5z"/>
	<path d="M205.4,54.2c0.1-0.2,0.2-0.5,0.3-0.6c-0.1,0-0.4-0.1-0.5-0.1C204.6,53.6,204.9,54.2,205.4,54.2z"/>
	<path d="M102.6,56c-0.1-1.2-1.6-1.8-2.6-1.9C100.6,55,101.7,55.4,102.6,56z"/>
	<path d="M107.9,54.6c0,0.8,1.2,0.4,0.8-0.2C108.5,54.4,108.1,54.5,107.9,54.6z"/>
	<path d="M124.6,54.5c-0.4,0.3-0.1,1.1,0.4,0.7C125.4,54.9,125,54.1,124.6,54.5z"/>
	<path d="M196.6,54.9c0.3-0.4-0.4-0.8-0.7-0.5C195.6,54.8,196.3,55.3,196.6,54.9z"/>
	<path d="M97.4,55.7c0.1,0,0.4,0,0.5,0C98.3,54.8,96.9,54.9,97.4,55.7z"/>
	<path d="M207.2,55.6l0.1-0.3c-0.1-0.1-0.2-0.4-0.3-0.5C206.5,55,206.7,55.9,207.2,55.6z"/>
	<path d="M99.2,56.2c-0.1-0.4-0.5-0.8-0.9-0.6C98.1,56.1,98.7,56.5,99.2,56.2z"/>
	<path d="M205.8,55.6c-0.1,0.1-0.2,0.3-0.3,0.4C205.8,57,207,55.4,205.8,55.6z"/>
	<path d="M108.4,56.4c0.4-0.5-0.5-0.6-0.8-0.4l-0.1,0.2C107.8,56.5,108.1,56.6,108.4,56.4z"/>
	<path d="M196.2,55.9c-0.3,0.4,0.4,0.8,0.7,0.5C197.2,56,196.5,55.6,196.2,55.9z"/>
	<path d="M124.4,57.9c0.1-0.4,0.1-0.7,0.2-1.1c0-0.2-0.1-0.6-0.1-0.8c-0.5,0.6-0.6,1.3-0.7,2.1C124,58,124.3,57.9,124.4,57.9z"/>
	<path d="M174.4,56.4c-0.3,0.2-0.3,0.9,0.2,0.9C174.9,57.1,174.8,56.3,174.4,56.4z"/>
	<path d="M125.3,57.8c0.1-0.1,0.2-0.2,0.3-0.3c0-0.2,0.1-0.5,0.2-0.6C125.2,56,124.7,57.4,125.3,57.8z"/>
	<path d="M192.3,57c0.6,1.2,2,1.7,3.1,2.4C195.1,58,193.5,57.4,192.3,57z"/>
	<path d="M182.8,61.7c1,0.6,2.5,0.3,2.9-0.8c0.4-1,0.1-2-0.4-2.9c-1-0.1-2.1-0.4-2.9,0.3c-0.6,0.3-0.8,1-0.9,1.6
		C181.8,60.5,182,61.4,182.8,61.7z M183.2,58.6c1.1-0.6,2.1,1,1.7,1.9c-0.5,0.6-1.4,0.3-2,0.1C182.3,60,182.9,59.2,183.2,58.6z"/>
	<path d="M126.6,67.7c0-0.5,0.2-1.2-0.5-1.3c-0.4,4.5-0.3,9.1,1,13.4c0.2,0.5,0.2,1.2,0.8,1.5C126.8,76.9,126.3,72.3,126.6,67.7z"/>
	<path d="M148.5,81.1c0.5-0.2,0.4-0.8,0.6-1.3c0.1-1,0.6-2,0.4-3.1C148.7,78,148.3,79.6,148.5,81.1z"/>
	<path d="M118.5,78.2c-0.7,0.8,0,2,0.1,2.9c0.5,0.7,0.8-1,0.3-1.3h-0.1C118.9,79.3,118.8,78.7,118.5,78.2z"/>
	<path d="M116.8,82.4c-0.1,1.2,0.2,2.4,0.5,3.5c0.1-0.2,0.3-0.5,0.4-0.7C117.4,84.3,117.5,83.1,116.8,82.4z"/>
	<path d="M157.1,113.5c0.7,0.3,1.7,0.4,2.2-0.4C158.5,113,157.8,113.1,157.1,113.5z"/>
	<path d="M127.2,60.6c0.3-0.9,0.6-1.8,0.4-2.7C127,58.6,126.5,59.8,127.2,60.6z"/>
	<path d="M204.4,59.9c0.7-0.2,1.3-0.7,1.9-1.1c-0.2,0-0.5-0.1-0.6-0.2C205.1,58.9,204.5,59.2,204.4,59.9z"/>
	<path d="M98.4,59.8c-0.1,0.4,0,0.6,0.5,0.4C99,59.9,98.8,59.7,98.4,59.8z"/>
	<path d="M111.5,60.4h0.3c0.4-1.6,1.3-3.2,1-4.8c-0.2,0.6-0.4,1.2-0.6,1.9c0,0.1-0.1,0.4-0.2,0.6c-0.1,0.6-0.3,1.2-0.4,1.8
		C111.1,60.1,111.1,60.3,111.5,60.4z"/>
	<path d="M100.4,61.2c0.3-0.4-0.4-1-0.8-0.7C99.3,61,100,61.5,100.4,61.2z"/>
	<path d="M205.3,60.8c-0.2-0.5-0.8-0.5-1.1-0.1c0.1,0.1,0.3,0.4,0.3,0.6C204.7,61.2,205.1,61,205.3,60.8z"/>
	<path d="M99.6,61.6c-0.1-0.1-0.3-0.3-0.4-0.3C98.6,61.5,99.4,62.3,99.6,61.6z"/>
	<path d="M194.6,61.5c-0.4,0.4,0.4,1,0.8,0.7C195.8,61.8,195.1,61.2,194.6,61.5z"/>
	<path d="M205.1,61.9c0.5,0,0.7-0.2,0.5-0.6C205.2,61.3,205.1,61.5,205.1,61.9z"/>
	<path d="M99.8,62c0.1,0.2,0.2,0.5,0.3,0.6C101.1,62.8,100.5,61.7,99.8,62z"/>
	<path d="M204.3,62c-0.5,0.1-0.3,0.9,0.2,0.6C204.9,62.5,204.7,61.7,204.3,62z"/>
	<path d="M108,63.1c0.4,0.2,1-0.3,0.8-0.8C108.4,62.1,107.7,62.7,108,63.1z"/>
	<path d="M195.8,62.3c0,0.4,0.2,0.7,0.5,1c0.3-0.2,0.5-0.4,0.6-0.7C196.5,62.4,196.1,62.3,195.8,62.3z"/>
	<path d="M189.2,63c-0.2,0.4-0.2,0.6,0.2,0.7C189.6,63.3,189.6,63.1,189.2,63z"/>
	<path d="M100.5,65.2c0.2,0.1,0.6,0.3,0.8,0.4C101.5,65.1,100.7,64.6,100.5,65.2z"/>
	<path d="M203.4,65.6c0.4,0.1,0.7-0.1,0.9-0.4l-0.1-0.2C203.7,64.7,203.3,65.1,203.4,65.6z"/>
	<path d="M185.7,66.6c0.2,1.5-0.2,3.1,0.6,4.4c0.1-1.9,0.4-4.1-0.6-5.9C185.7,65.6,185.7,66.1,185.7,66.6z"/>
	<path d="M101.5,66.1c0.5,0.5,1.2,0.9,1.8,1.3v-0.6c-0.5-0.6-1.2-1-1.8-1.3C101.5,65.6,101.5,65.9,101.5,66.1z"/>
	<path d="M107.9,66c-0.1-0.2-0.2-0.5-0.2-0.7l-0.2,0.2c-0.5,0.5-1.2,1-1.1,1.9C107,66.9,107.5,66.5,107.9,66z"/>
	<path d="M203.2,65.5c-0.9,0.4-1.9,0.9-2,1.9C202,66.9,203,66.5,203.2,65.5z"/>
	<path d="M183.7,66.2c-0.1,0.2-0.3,0.6-0.3,0.8c0.2,1.3-0.3,2.9,0.5,4c0.2-1.5,0.3-3,0-4.5L183.7,66.2z"/>
	<path d="M103.4,68c-0.6-0.6-1.3-1.1-2-1.4c0.4,0.9,1.1,1.6,1.9,2.2C103.4,68.6,103.4,68.2,103.4,68z"/>
	<path d="M101,67.5c-0.1,0.4,0.5,0.8,0.8,0.7C102.1,67.8,101.4,67.3,101,67.5z"/>
	<path d="M121.8,69.5c0.2-0.6,0.4-1.2,0.5-1.8c-0.2,0-0.6-0.1-0.8-0.2C121.5,68.2,121.6,68.8,121.8,69.5z"/>
	<path d="M212.3,68.2c0.2-0.5,0-0.7-0.5-0.5C211.7,68.2,211.9,68.4,212.3,68.2z"/>
	<path d="M90.4,68.6c0.4-0.8-0.9-0.8-0.6,0C89.9,68.6,90.2,68.6,90.4,68.6z"/>
	<path d="M214.8,68.7c0.8-0.8-0.8-1.1-0.5-0.1C214.4,68.6,214.6,68.6,214.8,68.7z"/>
	<path d="M215.9,68.4h-0.2c0.1,0.1,0.2,0.4,0.3,0.6C216,68.8,215.9,68.6,215.9,68.4z"/>
	<path d="M87.6,69.2c0.3-0.4-0.4-0.9-0.7-0.5C86.6,69.1,87.3,69.6,87.6,69.2z"/>
	<path d="M94.2,71.8c-0.5-1-1.2-2-1.8-3c-0.3-0.1-0.6-0.2-0.9-0.3c0.9,1.5,1.8,3,2.8,4.5C94.5,72.6,94.4,72.2,94.2,71.8z"/>
	<path d="M93.8,69.9c0.5-0.1,0.1-0.8,0-1c-0.2,0-0.5,0-0.6,0C93.2,69.2,93.3,69.7,93.8,69.9z"/>
	<path d="M210.1,68.4c-0.3,0.4-0.6,0.9-0.9,1.3c0.1,0.1,0.3,0.3,0.4,0.4C210,69.6,210.6,69,210.1,68.4z"/>
	<path d="M212.4,68.7c-0.9,1.4-2.1,2.7-2.3,4.4c1.3-1.3,1.9-3,3-4.4C213,68.6,212.6,68.6,212.4,68.7z"/>
	<path d="M215.2,69c-1,1.1-2,2.4-2.2,3.9c0.1,0,0.4-0.1,0.5-0.2c0.6-1.4,1.7-2.5,2-4.1L215.2,69z"/>
	<path d="M217.3,68.6c-0.1,0.1-0.2,0.3-0.3,0.4C217.3,70,218.5,68.4,217.3,68.6z"/>
	<path d="M103.1,69.1c-0.1,0.4,0,0.6,0.4,0.4C103.7,69.1,103.5,68.9,103.1,69.1z"/>
	<path d="M201.3,69.6c0.4-0.2,0.4-0.4,0-0.6C200.9,69.2,200.9,69.4,201.3,69.6z"/>
	<path d="M211.4,68.9c-0.4-0.2-1,0.4-0.7,0.8C211.1,70,211.6,69.3,211.4,68.9z"/>
	<path d="M215.1,82.8c0.4,0.9,0.9,1.9,2,2C216.5,84,216.2,82.6,215.1,82.8z"/>
	<path d="M86.6,70.2c0.4-0.2,0.4-0.4,0-0.6C86.2,69.8,86.2,70,86.6,70.2z"/>
	<path d="M90.2,72.6c-0.6-1.1-1.2-2.6-2.5-3.1c0.4,1.3,1.5,2.4,2.1,3.6C89.9,73,90.1,72.7,90.2,72.6z"/>
	<path d="M86.3,71.4c-0.2-0.6-0.7-1.1-1.3-1.3C85.1,70.8,85.7,71.2,86.3,71.4z"/>
	<path d="M86.5,71.3c-0.2,1,0.7,1.8,1.2,2.5l0.3-0.2C87.7,72.6,87.1,71.9,86.5,71.3z"/>
	<path d="M215.3,82.7c-0.4-1.1-1-2-1.6-3c-0.3-0.4-0.6-0.7-0.9-1c0,0.2,0,0.5,0,0.6C213.5,80.5,214.1,81.9,215.3,82.7z"/>
	<path d="M202.3,81.8c-0.4-0.8-1-1.5-1.7-2.1C200.8,80.7,201.5,81.5,202.3,81.8z"/>
	<path d="M207.8,69.9c-0.3,0.2-0.7,0.6-0.4,1C207.9,71.3,208.6,69.7,207.8,69.9z"/>
	<path d="M96.1,71c0.3-0.3-0.1-0.9-0.5-0.8C94.9,70.3,95.6,71.3,96.1,71z"/>
	<path d="M208.9,70.2c-0.4,0-0.6,0.8-0.1,0.8C209.2,71,209.4,70.2,208.9,70.2z"/>
	<path d="M95.6,72.6c0.2-1-0.6-2.1-1.5-2.3C94.5,71,94.7,72.3,95.6,72.6z"/>
	<path d="M209.2,71.5c-0.2,0.3-0.5,1.4,0.2,1.1c0.5-0.7,0.8-1.5,1.2-2.3C209.9,70.4,209.5,70.9,209.2,71.5z"/>
	<path d="M87.2,70.8c-0.3,0.3,0.1,1,0.5,0.7S87.6,70.5,87.2,70.8z"/>
	<path d="M217.2,71.6c0.5-0.1,0.5-1.2-0.1-0.9C216.5,70.8,216.5,71.8,217.2,71.6z"/>
	<path d="M182.5,71.7c0,0.2-0.1,0.6-0.1,0.8C182.8,72.4,183,71.7,182.5,71.7z"/>
	<path d="M87.9,72.1c0.2,0.6,0.3,1.4,1.1,1.5C89.1,72.9,88.8,71.9,87.9,72.1z"/>
	<path d="M216.1,72.2c-0.3,0.3-0.5,0.8-0.3,1.1C216.4,73.6,216.9,72,216.1,72.2z"/>
	<path d="M217.7,73.8c0.8,0.2,1.1-1.1,1.3-1.7C218.5,72.5,217.7,73,217.7,73.8z"/>
	<path d="M84.6,72.7c0.2,0.5,0.3,1.2,1,1.3C86,73.4,85.2,72.8,84.6,72.7z"/>
	<path d="M148.4,74c0-0.3-0.1-0.6-0.3-0.8c-0.2,0.3-0.5,0.6-0.5,1C147.7,74.6,148.3,74.1,148.4,74z"/>
	<path d="M100.1,75.2c-0.1-0.6-1,0-0.6,0.4c0,0.1,0,0.4,0,0.5C100,76.7,100.8,75.4,100.1,75.2z"/>
	<path d="M117,77.2c0.1,0.6,0.2,1.3,0.2,1.9c0.2,0.4,0.4,0.8,0.6,1.2c0.1-1.2,0-2.3-0.1-3.5c0.2,0.3,0.5,0.7,0.7,1
		c0.1-0.5,0.2-1.1,0.4-1.6c0.4,1.3,0.1,3,1.2,4.1c0-0.8,0-1.5-0.1-2.3c-0.1-0.9-0.1-1.8-0.2-2.7c-0.9,0.3-1.9,0.7-2.8,1
		C117,76.6,117,77,117,77.2z"/>
	<path d="M116.7,78.9c-0.2-1,0.1-2.3-0.9-3c0,0.5,0,1,0,1.5c0,0.6,0.1,1.1,0.1,1.7c0.2,0.7,0.3,1.5,0.9,1.9
		C116.8,80.3,116.8,79.6,116.7,78.9z"/>
	<path d="M98.3,77c-0.1-1-0.9-0.1-1,0.4C97.7,77.6,98,77.3,98.3,77z"/>
	<path d="M207.2,77.6c0.2-0.4-0.3-1.1-0.7-0.9C206.3,77,206.8,77.7,207.2,77.6z"/>
	<path d="M186.2,79.6c0.1-0.6,0.1-1.1,0.2-1.7c-0.1-0.5,0.4-1.7-0.4-1.7c-0.1,0.3-0.2,0.7-0.2,1c-0.2,0.8-0.2,1.7-0.3,2.5
		c0.2,0,0.6,0,0.7,0V79.6z"/>
	<path d="M96.7,78.9c0.6,0.1,0.9-1.2,0.1-1C96.4,78.1,96.1,78.8,96.7,78.9z"/>
	<path d="M208.1,78.8c0.3-0.4-0.3-1.2-0.7-0.8C207.1,78.4,207.7,79.1,208.1,78.8z"/>
	<path d="M88.9,78.6c-0.1,0.3-0.2,0.6-0.3,0.9l-0.1,0.4c0.4-0.4,0.8-0.9,1-1.4C89.4,78.5,89.1,78.6,88.9,78.6z"/>
	<path d="M94.8,78.8c-0.2-0.4-0.8-0.3-1,0C93.8,79.7,94.6,79.4,94.8,78.8z"/>
	<path d="M95.3,78.7c0,0.1-0.1,0.4-0.2,0.5C95.6,80.2,96.3,78.2,95.3,78.7z"/>
	<path d="M103.8,78.5c-0.7,0.6-1.3,1.4-1.7,2.2C103,80.4,103.8,79.5,103.8,78.5z"/>
	<path d="M209.2,78.5c-0.1,0.1-0.4,0.4-0.5,0.5c0.2,0.1,0.5,0.3,0.7,0.4c0-0.2,0-0.6,0-0.7L209.2,78.5z"/>
	<path d="M210.8,78.9c-0.2-0.4-0.9-0.2-0.8,0.3C210.2,79.5,210.8,79.4,210.8,78.9z"/>
	<path d="M87.9,79.7c0.2-0.4,0.2-0.6-0.2-0.8c-0.4,0.2-0.5,0.5-0.3,0.9C87.6,79.8,87.8,79.7,87.9,79.7z"/>
	<path d="M211.9,78.9l-0.3-0.1c-0.1,0.1-0.3,0.3-0.5,0.4C211.3,79.7,212.2,79.5,211.9,78.9z"/>
	<path d="M202.4,79.2c-0.5,0.1-0.1,0.7,0.1,0.9C203.2,80.2,202.9,79.1,202.4,79.2z"/>
	<path d="M212.8,81c0.1-0.5-0.3-0.8-0.5-1.2l-0.1,0.1C212,80.3,212.2,81.2,212.8,81z"/>
	<path d="M87,81c0.6-0.1,0.5-1.2-0.1-0.9C86.4,80.2,86.4,81.2,87,81z"/>
	<path d="M218,80.9c0.3-0.4-0.3-1.1-0.8-0.8C216.9,80.6,217.6,81.3,218,80.9z"/>
	<path d="M119.4,81.2c0.2,0,0.5,0.1,0.6,0.1C120.4,80.5,119.2,80.4,119.4,81.2z"/>
	<path d="M84.3,81.9c0,0.2,0.1,0.5,0.2,0.7c0.6-0.5,1-1.1,1.2-1.9C85.2,81.1,84.7,81.5,84.3,81.9z"/>
	<path d="M202.6,81c-0.3,0.4,0.4,0.8,0.7,0.5C203.6,81.1,202.9,80.7,202.6,81z"/>
	<path d="M116.6,82.1c0.3-0.4,0.2-0.6-0.2-0.7C116.2,81.8,116.2,82,116.6,82.1z"/>
	<path d="M217.8,81.2c0.5,0.9,1,1.8,1.9,2.3C219.5,82.6,218.9,81.4,217.8,81.2z"/>
	<path d="M102.1,82c-0.1,0-0.4-0.1-0.5-0.1l-0.2,0.2C101.4,82.8,102.5,82.6,102.1,82z"/>
	<path d="M195,82c-0.3,0.1-0.7,0.7-0.2,0.8C195.4,82.9,195.8,81.7,195,82z"/>
	<path d="M89.4,82.8c-1-0.2-1.3,1.3-1.8,2C88.5,84.6,89.4,83.7,89.4,82.8z"/>
	<path d="M194.9,83.4c-0.5,0.1-0.3,0.9,0.2,0.6C195.6,83.9,195.4,83.1,194.9,83.4z"/>
	<path d="M182.5,85.3c1,0.3,0.5-1.1,0.7-1.7C182.4,83.8,182.4,84.6,182.5,85.3z"/>
	<path d="M104.1,84c-0.8,0.5-1.6,1.2-2.2,2C103,86.3,104.2,85,104.1,84z"/>
	<path d="M202.6,86.3c-0.1-1.1-1.2-1.6-2-2.3C200.4,85.2,201.7,85.8,202.6,86.3z"/>
	<path d="M184.2,85.2c-0.1-0.2-0.2-0.5-0.3-0.6C183,84.9,183.7,86.2,184.2,85.2z"/>
	<path d="M102.1,84.9c-0.4,0-0.8,0.2-1,0.6C101.6,85.9,102.1,85.4,102.1,84.9z"/>
	<path d="M203.4,85.5c-0.1-0.2-0.3-0.5-0.4-0.6C202.1,84.8,202.8,85.8,203.4,85.5z"/>
	<path d="M100.7,86.6c0.1-0.2,0.2-0.6,0.3-0.8C100.5,85.6,100.1,86.5,100.7,86.6z"/>
	<path d="M184.7,86.9c-0.6-0.6-1.5-1.2-2.4-1c-0.7,0.2-1.5,0.6-1.7,1.4c-0.3,1.3,0.6,3.2,2.1,2.9C184.5,90.4,185.6,88.3,184.7,86.9z
		 M183.6,89.3c-0.5,0.1-1,0.1-1.4,0.1c-0.7-0.6-0.8-2,0-2.6c0.5,0.1,1.2-0.1,1.6,0.4C184.1,87.9,184,88.7,183.6,89.3z"/>
	<path d="M118.6,93.8c-0.3-0.1-0.8,0.3-0.6,0.7C118.4,94.8,119.3,94,118.6,93.8z"/>
	<path d="M204.2,86.2c-0.1-0.1-0.3-0.3-0.4-0.4l-0.2,0.2C203.5,86.3,204.2,86.8,204.2,86.2z"/>
	<path d="M101.8,87c0.6-0.3,0.1-1-0.4-0.5C100.8,86.7,101.3,87.5,101.8,87z"/>
	<path d="M202.7,86.5c-0.3,0.4,0.4,0.9,0.7,0.6C203.7,86.6,203.1,86.2,202.7,86.5z"/>
	<path d="M193.7,87.4c-0.1,0.1-0.2,0.3-0.3,0.4C193.7,88.7,194.9,87.1,193.7,87.4z"/>
	<path d="M203.9,87.4l-0.1,0.3c0.1,0.1,0.3,0.3,0.4,0.4C204.8,88,204.4,87.1,203.9,87.4z"/>
	<path d="M159.8,90.2c0.5-0.1,1-0.3,1.5-0.5c-0.5-0.1-0.9-0.2-1.4-0.3C159.9,89.6,159.8,90,159.8,90.2z"/>
	<path d="M138.4,89.9c-1.4,0.1-2.9,0.2-4.3,0.4c-0.4,0-0.6,0.2-0.7,0.6c2.2-0.2,4.4-0.4,6.5-0.8C139.6,89.8,139,89.9,138.4,89.9z"/>
	<path d="M163.2,90.2c1.1,0.2,2.1,0.3,3.2,0.4c0-0.1,0-0.3,0.1-0.4c-1.2-0.3-2.4-0.3-3.6-0.4C162.9,90,163.1,90.1,163.2,90.2z"/>
	<path d="M171.8,91.3c-1-0.5-2-0.7-3-0.9c-0.3,0-0.9,0.1-1.2,0.1C168.8,91.1,170.4,91.7,171.8,91.3z"/>
	<path d="M193.9,90.9c-0.1,0-0.4,0.1-0.6,0.1c0.1,0.2,0.2,0.5,0.3,0.6C194,91.7,194.5,91,193.9,90.9z"/>
	<path d="M193.6,92.8c0.3-0.1,0.5-0.3,0.5-0.7L194,92C193.7,92.1,193.1,92.7,193.6,92.8z"/>
	<path d="M195.5,92.5c-0.2,0.5,0,0.7,0.5,0.5C196.2,92.5,196,92.4,195.5,92.5z"/>
	<path d="M194.3,92.9c-0.2,0.5,0,0.7,0.5,0.5C194.9,92.9,194.8,92.7,194.3,92.9z"/>
	<path d="M194.7,93.7c-0.2,0.5,0,0.6,0.5,0.5C195.4,93.7,195.2,93.5,194.7,93.7z"/>
	<path d="M98.6,95.1c-0.4-0.1-0.9,0.2-0.9,0.6C98.1,95.8,98.7,95.5,98.6,95.1z"/>
	<path d="M94.2,99.4c-0.3,0.1-0.8,0.8-0.2,0.9C94.6,100.5,95.1,99.2,94.2,99.4z"/>
	<path d="M94.6,102.5c-0.3-0.2-0.9,0.1-0.7,0.5C94.1,103.2,94.7,102.8,94.6,102.5z"/>
	<path d="M200.4,104.2c-1.7-0.6-3.3-1.2-5-1.7c0,0.1-0.1,0.3-0.1,0.4c2.1,0.7,4.3,1.5,6.3,2.4c0.1-0.3,0.2-0.6,0.3-0.9
		C201.4,104.4,200.8,104.4,200.4,104.2z"/>
	<path d="M97.1,108.8c-0.2,0.5,0,0.7,0.5,0.5C97.8,108.8,97.6,108.6,97.1,108.8z"/>
	<path d="M157.5,112.5c0.1-0.2,0.2-0.5,0.3-0.7C157.3,111.4,156.8,112.4,157.5,112.5z"/>
	<path d="M193.3,113.9c1.1,0.4,2.6,0.2,3.4,1.2c-2.4,0.2-4.6-0.8-6.9-1.1c-0.1,0.1-0.3,0.2-0.4,0.3c2.4,0.3,4.5,2,7,1.6
		c0.9,0,1.4-0.9,1.4-1.7c-1.6-0.2-3.2-0.5-4.8-0.8C193.1,113.5,193.2,113.8,193.3,113.9z"/>
	<path d="M153.8,115c0.5,0.8,1.6,0.4,2.4,0.6c0.3-0.2,0.6-0.5,0.9-0.8C156,114.7,154.8,114.8,153.8,115z"/>
	<path d="M158.5,115.2c0-0.2,0.1-0.6,0.1-0.8c-0.5,0.1-1,0.3-1.6,0.5C157.6,115,158.1,115.2,158.5,115.2z"/>
</g>
</svg>
