<?xml version="1.0" encoding="utf-8"?>
<!-- Generator: Adobe Illustrator 26.0.3, SVG Export Plug-In . SVG Version: 6.00 Build 0)  -->
<svg version="1.1" id="Слой_20" xmlns="http://www.w3.org/2000/svg" xmlns:xlink="http://www.w3.org/1999/xlink" x="0px"
	 y="0px" viewBox="0 0 239.5 150.2" style="enable-background:new 0 0 239.5 150.2;" xml:space="preserve">
<style type="text/css">
	.st0{fill:#0C0C0C;}
</style>
<g>
	<g>
		<path class="st0" d="M231.7,118.9c0.7,0.4,1,1.2,1.5,1.8c-0.4,3.3-1.3,6.4-2.1,9.6c-0.2,1-0.7,1.9-1.3,2.8c-1.1,1.6-2.1,3.3-3.1,5
			c-1,1.5-2.8,2.2-3.7,3.7c-0.3,0.4-0.5,1-1.1,1c-1.8,0-3.6,0-5.3,0c0-1.1-1.3-1.3-1.9-2.1c0.2,0.4,0.4,0.8,0.6,1.2
			c0.4,0.2,0.6,0.5,0.7,0.8c-0.4,0-0.9-0.1-1.3-0.1c-1.3-1.2-2.5-2.5-4-3.3c-1.4-0.7-2.7-1.4-4.1-2c-0.1-0.1-0.2-0.3-0.3-0.4
			c-0.9-0.4-1.7-0.9-2.5-1.4c-0.4-0.7-1.2-0.9-1.8-1.3c0.2-0.1,0.7-0.2,1-0.3c-0.2-0.1-0.3-0.1-0.5-0.2c-1.1,0.8-2.3-0.2-3.2-0.8
			c0.9-0.7,1.5,0.9,2.5,0.4c0.2-0.3,0.3-0.7,0.7-0.9c1,0.1,0.9,1.4,1.8,1.7c0,0.2,0.1,0.6,0.2,0.8c0.1-0.5,0-1,0-1.4
			c0.5,0.2,1.1,0.4,1.6,0.6c-0.1-0.2-0.4-0.6-0.5-0.8c0.1-0.2,0.2-0.5,0.3-0.7c0.2-0.1,0.7-0.2,0.9-0.3c-0.3-0.1-0.6-0.2-1-0.4
			c-0.3,0.8-1,1.2-1.9,1.2c-0.6-0.3-1.2-1.5-1.9-0.7c-0.3-0.2-0.6-0.4-0.9-0.5c0,0.2,0,0.6-0.1,0.8c-0.8-0.6-1.7-1.2-2.4-1.9
			c0.1,0.4,0.1,0.8,0.2,1.1c-0.3-0.1-0.6-0.2-0.9-0.3c0.1-0.3,0.2-0.6,0.3-0.9c-0.8,0.1-1.6-0.1-2.3-0.5c-0.4,0.2-0.7,0.4-1.1,0.6
			c0,0-0.1,0-0.1,0l0.1,0c0.2,0.2,0.7,0.5,1,0.7c-1.1-0.2-2.1-0.5-3.1-1c0.5-0.2,1-0.5,1.5-0.7c-0.8,0.2-1.6,0.5-2.3,0.7
			c-0.9-0.2-1.8-0.5-2.6-1c-1.3-0.1-2.6-0.3-3.9-0.5c-2.2-0.4-4.1-1.7-6.3-1.7c-1.4,0-2.7-0.3-4,0c0.1,0.5,0.1,1,0.2,1.6
			c-0.3,0.3-0.6,0.5-0.8,0.8c-0.6,0-1.3,0.2-1.7-0.3c-1.9-1.6-4.2-2.8-6.7-2.7c-1.6-0.3-3.1,0.1-4.6,0.4c-0.7,0.4-1.3,1-2,1.5
			c-0.1,0-0.3-0.1-0.4-0.2c-1.7,1.3-3.8,2.2-4.9,4.1c-0.3-0.3-0.5-0.6-0.8-0.9c0.2,0,0.6-0.1,0.8-0.2c-0.4-0.1-0.7,0.1-1,0.3
			c0.3,0.3,0.6,0.6,1,0.9c-0.9,1.5-0.8,3.2-0.1,4.8c1.1,1,2.5,1.6,4,1.8c0.2,1.2-1.2,1.8-2.2,2c-2.7,0.3-5-1.6-6.4-3.7
			c0.1-0.2,0.4-0.5,0.5-0.7c0.8,0.5,1.3,1.4,2,2c0.7,0.3,1.4,0.6,2,1c0,0.1,0,0.4,0,0.6c1.2,0.2,2.4,0,3.5-0.6
			c-1.9-0.2-3.9-1.3-4.5-3.2c-0.5-1.1-0.1-2.3,0.3-3.3c-0.1,0.1-0.4,0.3-0.6,0.4c-0.3-1.5,0.2-3,0.9-4.3c1.6-2,3.8-3.3,6.2-4.2
			c2.9-1.4,6.2-2.2,9.3-1.4c0.9,0.2,1.9,0.2,2.7,0.6l-0.4,0.4c0.8,0.3,1.6,0.8,2.2,1.5c0-0.1,0.1-0.4,0.1-0.5l0,0l0.1,0
			c-1-1.2-2.6-1.8-3.9-2.7c-1.5-1-3.1-1.9-4.7-2.8c0,0.3,0.1,0.5,0.1,0.8c-0.9-0.5-1.7-1.1-2.5-1.8c-1.4-0.9-3.1-1-4.5-1.8
			c-0.4-0.2-0.7-0.7-1.2-0.7c-0.1-0.1-0.2-0.4-0.3-0.6c0,0.2,0,0.6,0,0.7c-2.1-0.8-4.2-1.3-6.2-2.3c-1.6-0.7-3.3-0.8-4.8-1.8
			c-0.1,0.1-0.2,0.3-0.2,0.5c-0.3-0.3-0.6-0.5-0.8-0.8c-1.3-0.2-2.5-0.6-3.6-1.3c-0.3,0.1-0.6,0.1-0.9,0.2c-0.7-1.1-2.1-1.1-3.3-1.5
			c0.2,0.2,0.5,0.5,0.7,0.7c-0.9,0.2-1.2-0.8-1.6-1.4l0.3-0.5c-0.7-0.1-1.1,0.4-1.2,1c-0.1-0.3-0.2-0.7-0.4-1
			c-0.3,0.2-0.6,0.4-0.9,0.6c-0.1-0.1-0.2-0.4-0.2-0.5c-1,0.3-2,0.4-3,0.4c0,0.2,0,0.5,0,0.7c-0.3-0.4-0.5-1.1-1-0.5
			c0.3,0.4,0.2,0.8-0.2,1.1c0.1,0,0.4-0.1,0.5-0.2c0.1,0.2,0.2,0.4,0.3,0.6c0.8,0,1.5,0.2,2.3,0.3c0.1,0,0.4-0.1,0.6-0.1
			c0.1,0.1,0.2,0.3,0.2,0.4c0.5-0.3,1.3-0.3,1.5-0.9c-0.1-0.1-0.2-0.4-0.3-0.5c-0.1,0.1-0.3,0.4-0.4,0.5c-0.1,0-0.2,0-0.3,0.1
			c0.1-0.2,0.2-0.6,0.3-0.9c0.4,0.2,0.8,0.4,1.1,0.8c-0.1,0.2-0.4,0.5-0.5,0.7c1.2,0.6,2.6,0.8,3.9,1.1c2,0.5,4.1,1,6.1,1.7
			c0.8,0.3,1.5,0.7,2.4,0.7c0.2,0.2,0.4,0.5,0.5,0.7c0.3,0,0.6,0.1,0.9,0.1c0.4,0.2,0.9,0.4,1.4,0.5c0.3,0.8,1.4,0.7,2.2,1
			c1.5,0.1,2.6,1.1,3.9,1.6c0.3,0.2,0.5,0.5,0.8,0.7c-0.2,0.2-0.5,0.6-0.6,0.9c-0.1-0.1-0.3-0.3-0.4-0.4c-0.3,0.7-1,0.7-1.6,0.9
			c-1.2,0.5-2.2,1.2-3.3,1.8c0.2,0.1,0.6,0.3,0.8,0.5c-0.6,0-1.3,0.1-1.9,0.3c0.1,0.2,0.2,0.6,0.3,0.8c-0.1,0.1-0.4,0.2-0.5,0.2
			c-1.3,1.8-1.2,4.1-1.8,6.2c0.2,0.3,0.4,0.5,0.6,0.8c-0.2,0-0.6,0.1-0.8,0.2c0.4,0.6,1.2,0.1,1.7,0.1c0.5,0.5,0.6,1,0.2,1.6
			c-0.5-0.5-1-0.8-1.6-1.1c0,1.8,1.2,3.2,2,4.8c-0.3,0-0.6,0-0.9,0c-0.3-0.5-0.6-1-0.9-1.5c-1.5-0.3-2.9-0.8-4.5-0.8
			c-5-0.5-9.9-0.8-14.9-0.8c-4.5,0.3-9-0.1-13.4,0.6c-3.5,0.5-7.1,0.5-10.6,1c-3.7,0.6-7.6,0.9-11.2,1.9c-2.7,1-5.4,1.6-8.2,2.4
			c-4.8,1-9,3.7-13,6.5c-7.4-1.8-14.9-3.3-22.3-5.1c-3.1-0.9-6.4-1.3-9.5-2.1c-3.3-0.7-6.5-1.8-9.7-2.7c-4.4-1.2-8.7-2.6-12.9-4.3
			c-3.3-1-6.2-2.9-9.2-4.5c-0.8-0.4-1.5-0.8-2.3-1.3c3.5-0.5,7-0.8,10.4-1.3c3-0.7,6.1-1.3,9.1-2c4.3-0.9,8.4-2.2,12.7-3.3
			c2.4-0.9,4.9-1.4,7.1-2.6c2.7-1.2,5.3-2.3,8-3.6c1.7-1,3.4-1.9,5.2-2.7c1.3-0.6,2.4-1.6,3.7-2.3c1.4-0.7,2.6-1.8,3.8-2.7
			c2,1.2,3.8,2.8,6,3.8c2.2,1.2,4.6,2.1,7,2.9c1.7,0.2,3.4-0.2,5.1-0.2c5,0,10-0.3,15-0.4c4.8-0.3,9.7-0.8,14.5-1.2
			c2.8-0.1,5.6-0.3,8.3-0.7c0.1,0.1,0.4,0.2,0.5,0.3c0.1-0.2,0.1-0.5,0.2-0.7c1.2,0.1,2.2-0.5,3.4-0.7c1.6-0.4,3.2-0.9,4.9-1.1
			c1.4-0.2,2.8-0.9,4.3-0.8c2.6,0.2,5,1.2,7.5,1.8c-0.4,0.4-0.8,0.9-0.7,1.5c0.9,0.4,1.9,0.8,2.9,1c0.8-0.9,2-0.8,3.1-1.1
			c0.2,0,0.5,0,0.6,0.1c1.4-0.4,2.9-0.5,4.3-0.3c0.6-0.3,1.1-0.7,1.6-1c-1.8,0.2-3.7,0.1-5.5,0.4c-1.5,0.3-3,0.4-4.4,0.8
			c-0.5,0.1-1.2,0.4-1.7,0c0.4-0.3,0.9-0.5,1.1-1.1c0.4,0.3,0.8,0.4,1.3,0.2c3.6-0.6,7.3-1,11-0.5c-0.7,0.5-1.4,0.9-2.2,1.3
			c-0.6,0.5-1.3,0.9-2,1.2c-1.2,0.6-2.3,1.5-3.7,1.5c1.1-0.6,2.2-1.2,3.3-1.9c-1.5,0.4-3.1,0.4-4.4,1.1c-0.3,0-0.6,0.1-1,0.1
			c0.7,0.3,1.4,0.6,2.1,0.8c0.1,0.1,0.4,0.2,0.6,0.3c2.7-0.8,5.5-2,7.4-4.3c1.2,0.9,2.8,0.1,4.2,0.4c4,0.5,7.9-0.9,11.8-0.6
			c2.2-0.2,4.4-0.4,6.6-0.3c0.6,0,1,0.4,1.4,0.7c2.4-0.4,4.9-0.2,7.3-0.2c-1.3,1.1-2.6,2-3.8,3.1l-0.3-0.3c0.9-0.6,1.6-1.4,2.3-2.2
			c-2.1,0.4-4.4-0.3-6.4,0.7c0.2,0.2,0.5,0.5,0.6,0.7c-0.4,0.4-0.9,0.8-1.3,1.2c0.7-0.3,1.4-0.8,2.1-1.1c0.1,0.3,0.2,0.5,0.4,0.8
			c0.2-0.1,0.6-0.4,0.7-0.5c0.1,0.2,0.4,0.5,0.5,0.6c-0.4,0.4-0.8,0.8-1.2,1.2c-0.4-0.1-0.9-0.2-1.3-0.1c0-0.2,0-0.5,0-0.7
			c-0.2,0.3-0.4,0.7-0.6,1c-0.1-0.1-0.4-0.2-0.5-0.2c-1.1,0.5-2,1.2-3.1,1.5c0.3-0.6,0.9-0.9,1.5-1.1c0.5-0.5,1-0.9,1.5-1.4
			c-0.2,0.1-0.6,0.3-0.8,0.4c-0.2,0-0.3-0.2-0.3-0.4l-0.6,0.2c0.1,0.1,0.3,0.4,0.4,0.6c-0.5,0.2-1,0.2-1.2,0.8
			c-2,0.6-3.3,2.8-5.4,2.9l0.2,0.5c0.6-0.2,1.2-0.4,1.8-0.6c1,0.3,2-0.1,3-0.4c0.1,0,0.4,0.1,0.6,0.2c1.9-0.9,4-1.5,5.3-3.1l0.4,0.4
			c-1.1,1-2.2,2.1-3.7,2.4c1.1,0.1,2.2-0.4,3.2-0.8c1.9-0.8,3.1-2.4,4.5-3.8c0.5-0.4,0.9-1.2,1.6-1.2c0-0.3-0.1-0.6-0.1-0.9
			c0.9,0.6,1.9,0,2.9,0.2c1.7,0.1,3.4,0.3,5,0.8c0.1,0.1,0.2,0.4,0.3,0.5c0-0.2,0-0.5,0-0.7c1.1,0,2.1,1.2,3.2,0.5
			c1.7,0.3,3.4,0.6,5,1c2.4,0.3,4.9,0.8,7.2,1.5c0.1,0.3,0.2,0.7,0.2,1c0.2,0.4,0.5,0.7,0.7,1.1c0.2-0.4,0.3-0.8,0.5-1.2
			c0.3-0.2,0.6-0.3,1-0.5c2.3,0.6,4.7,1.1,6.9,1.9c1.2,0.5,2.5,1,3.7,1.5c0.3-0.1,0.6-0.2,0.8-0.2
			C227.1,117.3,229.4,118,231.7,118.9z M226.8,117.9c-0.2,1.2-0.3,2.5-0.5,3.7c-0.4,1.6-1,3.2-1.5,4.8c0.3-0.2,0.5-0.3,0.8-0.5
			c0.5-0.7,1.7-1.2,1.4-2.3c0.4-0.4,0.7-0.8,1.1-1.2c0.3,0.8-1,1-1,1.8c0.3,0,0.8,0,1.1,0c0.1-0.2,0.3-0.3,0.4-0.5
			c0.1,0,0.3,0,0.4,0c0.2-0.1,0.3-0.3,0.5-0.4c0.3-0.2,0.6-1.2,1-0.7c0.3,0.7,0.4,1.5,0.4,2.3c-0.2-0.1-0.6-0.2-0.8-0.2
			c0.1-0.4,0.2-0.7,0.3-1.1c-0.6,0.3-1.2,0.6-1.8,0.9c0.5,0,0.9,0,1.4,0c-0.2,0.2-0.6,0.5-0.8,0.6c0.3,0.5,0.7,0.9,0.9,1.5
			c0,0.6,0,1.1,0.2,1.7c-1,1.9-2,4.1-4,5c-0.3,0-0.6,0.1-0.9,0.1c0.7,0.3,1.4,0.6,2.1,1.1c-0.4,0.3-0.8,0.4-1.3,0.4
			c-0.3,0.7-0.8,1.3-1.4,1.7c-0.4,0.7-1.2,1.4-1.1,2.3c-0.4,0.2-0.9,0.4-0.9,0.9c-0.5,0-1,0-1.4-0.4c-0.1,0.1-0.3,0.2-0.4,0.3
			c0-0.4,0-0.8,0-1.1c0.3-0.4,0.8-0.8,0.9-1.4c-0.2-0.7-0.9-1.3-0.6-2c0.2,0.2,0.5,0.6,0.7,0.8c0.4-0.5,0.9-0.9,1.4-1.3
			c0.2,0.5,0,1.1-0.1,1.6c-0.4,0.2-0.7,0.5-1,0.8c0.5,0.3,1,0.6,1.4,0.8c0-0.4,0-0.8,0-1.2c0.1-0.1,0.4-0.4,0.5-0.5
			c-0.1-0.4-0.2-0.8-0.2-1.3c0.5,0,1.1,0,1.6,0c-0.3-0.3-0.5-0.7-0.8-1c0-0.2,0-0.5,0-0.6c-0.1,0-0.4-0.1-0.5-0.2
			c-0.3-0.5-0.5-1-0.8-1.5c0-0.8,0.2-1.6,0.3-2.4c-0.6,1.2-1,2.4-1.9,3.5c-0.8,0.9-1.4,2-2,3c-0.7,0.8-1.3,1.6-1.9,2.4
			c1.4,1.1,2.9,2.1,4.3,3.2c1.8-1.7,3.5-3.6,4.5-5.8c0.3,0,0.5,0,0.8,0c-0.3,0.5-0.5,0.9-0.7,1.4c0.6-0.9,1.2-1.9,1.8-2.8
			c-0.4,0.4-0.8,0.9-1.2,1.3c-0.1-0.2-0.2-0.5-0.3-0.6c1.3-1.1,1.7-2.9,2.5-4.4c1.7-3.2,1.9-7,2.1-10.6
			C230.3,118.8,228.5,118.4,226.8,117.9z M225.1,117.2c0,0.6,0.1,1.3-0.2,1.9c-0.7,1.4-0.6,3-1,4.5c-0.4,2.1-1.6,3.9-2.4,5.8
			c-1,1.6-1.6,3.3-2.1,5.1c-1,0.1-1.4,1-1.6,1.8c1.7-0.9,2.2-2.7,3.3-4.1c2-2.9,3-6.3,4.3-9.5c0.2-1.5,0.6-3,0.6-4.6
			C226.8,117.6,225.7,117.4,225.1,117.2z M222.9,117.8c-0.2-0.4-0.2-0.8,0.1-1.2c-0.4,0-0.8,0-1.2,0c0.4,1.4,1.2,2.6,1.9,3.9
			c0-0.4,0-0.9,0.1-1.3c0.5-0.4,0.2-1.2-0.2-1.5c0.1-0.1,0.2-0.4,0.2-0.6C223.5,117.3,223.2,117.5,222.9,117.8z M219.6,115.3
			c-0.9,0.7-1.7,1.5-2.5,2.2c-0.1-0.1-0.4-0.4-0.6-0.5c0.4-0.3,0.9-0.7,1.3-1.1c-0.9,0.1-1.4,1-2.1,1.5c-0.2-0.6-0.7-0.8-1.2-1
			c0.2-0.3,0.3-0.7,0.4-1.1c-0.6-0.4-1,0.2-1.4,0.5c-0.3-0.2-0.6-0.5-1-0.7c-0.3,0.4-0.5,0.9-0.4,1.4c0.2-0.1,0.6-0.4,0.8-0.6
			c0,0.1,0,0.3,0,0.4c-0.2,0.2-0.5,0.3-0.7,0.5c0,0.4-0.1,0.7-0.1,1.1c0.2,0.4,0.5,0.8,0.7,1.2c0.4-0.4,0.4-0.9,0.2-1.3
			c0.5-0.6,1.1-1.4,1.9-0.8c-0.6,0.9-1.3,1.6-2,2.5c-0.4,1,0.5,2,0.7,3c0.8-0.9,1.4-2,2.1-2.9c0.5-1.3,2-1.5,2.8-2.5l0.2,0l0.1,0.2
			c-0.3,0.6-1,0.9-1.5,1.4c-0.3,0.1-0.7,0.3-1,0.4c-0.1,0.4,0,0.9-0.4,1.2c-0.8,0.8-1.2,2.1-2.5,2.3c0.2,0.6,0.5,1.1,0.8,1.6
			c0.5-0.5,0.9-1,1.2-1.6c1.1-1.6,2.6-2.9,3.4-4.6c0.4-0.3,0.8-0.6,1.1-0.9c-0.3,0-0.6,0-0.8,0c-0.2-0.3-0.2-0.6-0.1-1
			c0.6,0.1,1.2,0.2,1.7,0.1C220.5,115.9,220,115.6,219.6,115.3z M221.1,116.9c-0.4,0.6-0.8,1.2-1.3,1.7c0.3,0.8,1,1.7,0.7,2.6
			c-0.3-0.8-0.5-1.7-0.8-2.6c-0.2,0.3-0.4,0.6-0.6,1c-0.1,0-0.4-0.1-0.5-0.1c-0.2,0.4-0.5,0.7-0.9,1c-0.1,0.3-0.2,0.5-0.3,0.8
			c-0.4,0.3-0.7,0.6-1.1,0.9c0.6,1.3,1,2.7,1.7,4c0,1.5,0.7,2.8,1.1,4.2c-0.1,0-0.3,0.1-0.4,0.1c0.1,0.5,0.2,0.9,0.2,1.4
			c0.2-0.4,0.4-0.7,0.6-1.1c0-0.2-0.1-0.6-0.1-0.8c0.2,0,0.5-0.1,0.7-0.1c-0.2-0.1-0.5-0.2-0.7-0.3c0-0.4-0.1-0.7-0.1-1.1
			c-0.1-0.5-0.2-1-0.2-1.5c0.4-0.5,0.3-1.2,0.7-1.7c0.3,0.4,0.4,1,0.5,1.5c-0.3,0.1-0.8,0.3-1.1,0.3c0.3,0.4,0.5,0.8,0.8,1.2
			c0.1-0.1,0.2-0.4,0.3-0.5c0.2,0.1,0.5,0.2,0.7,0.2c0.1-0.2,0.4-0.5,0.5-0.7c-0.6-0.7-0.8-1.7-1-2.6c0.2-0.2,0.5-0.5,0.7-0.7
			c0.1,0,0.3,0.1,0.4,0.1c-0.4,0.5-0.6,1-0.4,1.6c0.3,0.3,0.6,0.6,0.9,0.8c0.1-0.2,0.1-0.5,0.2-0.7c-0.3-0.3-0.6-0.5-0.7-0.9
			c0.2,0,0.7-0.1,0.9-0.1c-0.3-0.6-0.6-1.2-0.9-1.8c0.1-0.7,0.1-1.4-0.2-2c0.4-0.1,0.8-0.1,1.2-0.2c-0.2-0.2-0.5-0.5-0.7-0.7
			c0.2,0,0.5-0.1,0.7-0.1C221.9,119,221.4,118,221.1,116.9z M226,126.7c-1,1.1-0.7,2.6-1.1,3.9c0.8-0.4,1.9-1.5,2.5-0.2
			c0.6-0.8,1.1-1.7,1.4-2.7c-0.2-0.6-0.3-1.2-0.3-1.8C227.7,125.1,226.6,126,226,126.7z M216.5,115.4c-0.2-0.3-0.2-0.7-0.5-1
			c-0.4,0.2,0,0.7,0,1c0,0.1-0.1,0.4-0.1,0.6c0.7-0.4,1.3-0.8,2-1.2C217.3,114.5,216.4,114.3,216.5,115.4z M213.5,113.8
			 M203.3,111.8l0.1,0.4c0.3,0,0.8,0.1,1.1,0.2c-1.5,0.4-2.9-0.8-4.4-0.3c-0.4-0.2-0.7-0.4-0.8-0.8c-0.5,0.2-1,0.4-1.6,0.6
			c0.1,0.3,0.2,0.7,0.4,1c0.3-0.2,0.5-0.5,0.8-0.7c0.5,0.2,0.9,0.5,1.4,0.8c-0.7,0.2-1.4,0.2-2.1,0.2c0.3,0.6,0.3,1.6,1.2,1.7
			c-0.2,0.2-0.3,0.3-0.4,0.5c0.5,1,0.8,2.1,1.3,3.1c0.3-0.5,0.5-1.1,0.6-1.6c-0.2,0.1-0.7,0.4-0.9,0.6c0.1-0.6,0.2-1.1,0.5-1.6
			c-0.2-0.3-0.4-0.6-0.6-0.9c0.8-0.8,1.6-1.5,2.4-2.2c-0.1,0.2-0.1,0.3-0.2,0.5c-0.6,0.6-1.2,1.2-1.7,2c0.3,0.7,0.7-0.3,1-0.5
			c0.6,0.3,0.9-0.2,1.2-0.7c0,0.3,0,0.6,0,0.9c0.2,0,0.5,0,0.7,0c0.1,0.2,0.2,0.4,0.4,0.7c0.4-0.4,0.6-1.1,1.3-0.9
			c-0.7,0.7-1.5,1.3-1.7,2.3c0.1,0.1,0.4,0.2,0.5,0.2c-0.9,1-1.6,2.2-2.6,3.1c0.4-0.1,0.7-0.2,0.9-0.5c0.7-0.8,1.3-1.7,2.2-2.4
			c1.6-1.2,2.7-3,4.3-4.3C206.8,112.2,205,112.1,203.3,111.8z M210.2,116.2c-0.1,0.5-0.2,1-0.2,1.6c-0.6-0.2-0.4-0.7-0.5-1.2
			c-0.1-0.1-0.2-0.4-0.3-0.5c-0.3,0.2-0.5,0.5-0.8,0.7c0.1,0.6,0.2,1.2-0.3,1.6c0.2,0.9,0.4,1.9,0.8,2.7c-0.1,0.2-0.2,0.5-0.3,0.7
			c-0.3-1-0.6-2-1-2.9c-0.1,0.5-0.2,1-0.3,1.5c-0.1-0.1-0.3-0.3-0.5-0.4c-0.1,1.5,0,2.9,0.4,4.3c0.2,0,0.6-0.1,0.8-0.1
			c0.1,0.6,0.3,1.2,0.3,1.9c-0.2-0.5-0.3-1.2-0.7-1.5c-0.1,0-0.3,0-0.4,0c-0.3,2.6,1.2,5.1,0.4,7.6c-0.2-0.5-0.4-0.9-0.6-1.4
			c-0.3,0.3-0.6,0.6-0.9,0.9c0.8,0.4,1.6,0.8,2.4,0.8c-0.1-0.2-0.3-0.7-0.4-1c0.4,0.1,0.8,0.3,1.2,0.4l-0.3,0.4c0.3,0,0.5,0,0.8,0
			c-0.2-0.3-0.4-0.7-0.7-1c0.2-0.2,0.4-0.4,0.6-0.6c0.1-0.2,0.2-0.4,0.1-0.6c-0.4,0.6-1.2,0.8-1.8,1.3c-0.2-1.2-0.2-2.4-0.4-3.6
			c0.2,0,0.5,0,0.7,0l-0.2-0.5l0.2-0.2c1.1,0.2,0.7,1.7,1,2.6c0.2-0.2,0.5-0.5,0.7-0.6c-0.1-1.7-0.7-3.4-0.8-5.1
			c-0.3-0.5-0.5-1.1-0.8-1.6c0.1-0.1,0.2-0.3,0.3-0.4c0.1,0.8,0.6,1.5,0.8,2.3c0.2,1,0.3,2,0.4,3c0.3,0.4,0.6,0.8,0.9,1.2
			c0-0.5,0-0.9-0.2-1.4c0.2,0,0.5,0,0.8,0.1l-0.1,0.5c0.1,0.1,0.4,0.2,0.5,0.2c0.1,0.4,0.1,0.8,0.2,1.2c0.1-0.7,0-1.4-0.1-2
			c-0.4-0.2-0.8-0.3-1.2-0.5c-0.3-1.4-0.7-2.8-0.9-4.3c0.2,0.1,0.5,0.2,0.7,0.4c-0.2,1.3,0.3,2.6,0.7,3.9c0.2,0,0.5-0.1,0.7-0.1
			c0-0.4,0.1-0.8,0.1-1.1c-0.6-1.5-0.4-3.1-1-4.7c-0.2-0.4-0.3-0.9-0.4-1.3c-0.3-0.2-0.6-0.4-0.8-0.6c0.5,0.2,0.9,0.3,1.4,0.5
			c0-0.3,0-0.5-0.1-0.8c-0.2,0-0.6-0.1-0.7-0.1C210.6,117.7,210.4,116.9,210.2,116.2z M215.9,122.7c-0.4,0.6-0.7,1.2-1.1,1.8
			c-0.1,0-0.4,0-0.5,0.1c0,0.6,0,1.1,0,1.7c-0.2-0.2-0.5-0.7-0.7-1c0.1,0.4,0.2,0.7,0.3,1.1c0,0.3,0,0.6-0.1,0.8
			c0.1-0.2,0.4-0.6,0.5-0.7c0.2,0.5,0.4,1.1,0.6,1.6c0.6-0.8,1.2-1.5,1.8-2.3C216.8,124.8,216.5,123.6,215.9,122.7z M220.6,128.2
			c-0.5-0.1-0.8,0.8-0.2,1C220.9,129.2,221.1,128.3,220.6,128.2z M224.6,135.2 M213.4,124.1 M216.4,127.4c-1,0.9-1.7,2-2.8,2.8
			c-1.3,1-2.4,2.4-4,3c0.3,0.3,0.7-0.1,1-0.1c1.1-0.6,2.1-1.4,3-2.3c0.9-0.5,1.7-1.1,2.3-1.9C216.2,128.4,216.7,128,216.4,127.4z
			 M200.4,111.2 M217.1,129.4c-1.2,1-2.3,2.1-3.5,3.1c-0.3,0.3-0.8,0.5-1.3,0.6c0.4-0.5,0.8-0.9,1.2-1.3c-0.7-0.3-1,0.6-1.4,0.9
			c-0.4,0.3-0.9,0.5-1.2,0.8c0,0.3,0.1,0.6,0.2,0.9c0.4-0.4,0.8-0.8,1.3-1.2c0,0.2,0,0.7,0,0.9c0.7-0.7,1.5-1.4,2.5-1.5
			c0.1-0.1,0.2-0.3,0.3-0.4c0.9-0.5,1.7-1.1,2.5-1.7C217.4,130.2,217.3,129.8,217.1,129.4z M202.3,114.9c-0.6,0.1-1.6,0.8-0.8,1.4
			C201.7,115.8,202.8,115.4,202.3,114.9z M217.4,131.4c-1.5,1.2-3.3,2.2-4.9,3.4c0.3,1.1-0.7,1.6-1.6,1.7c-0.4-0.4-0.3-1.1,0.4-0.9
			c0-0.1,0-0.3,0-0.4c-0.8,0.5-1.5,0.9-2.3,1.3c0.3-0.4,0.7-0.8,1-1.2c-0.1-0.1-0.4-0.3-0.5-0.4c0.3-0.2,0.7-0.4,1-0.5
			c-0.9,0-1.6,0.6-2.3,1c-0.1-0.2-0.3-0.5-0.4-0.7c0.4-0.6,1.2-0.5,1.8-0.7c-0.3-0.1-0.7-0.3-1-0.4c-0.2,0.1-0.5,0.3-0.7,0.4
			c0-0.2-0.1-0.5-0.2-0.7c-0.5,0.2-1,0.3-1.5,0.5c0.7,0,1.4,0,2,0.3c-0.3,0.3-0.6,0.6-1,0.9c0.1,0.2,0.2,0.6,0.3,0.9
			c-0.8-0.6-1.8-0.8-2.7-0.5c1.2,0.6,2.4,1.5,3.6,2c1,1,2.6,0.8,3.8,0.6c-0.1-0.1-0.3-0.4-0.4-0.6c-0.4,0.2-0.8,0.4-1.2,0.3
			c0.5-0.5,1.2-0.5,1.8-0.5c0.2,0.2,0.6,0.5,0.8,0.7c0.2-0.9-0.9-1.1-1.4-1.6l0.5-0.4c0.1,0.1,0.2,0.3,0.2,0.5
			c0-0.2,0.1-0.5,0.1-0.7c1-0.2,2-0.1,2.9,0.3c-0.5,0.4-1,0.7-1.5,1.1c-0.2-0.1-0.5-0.2-0.6-0.3c0.1,0.3,0.3,0.6,0.4,0.9
			c1-0.7,2.2-1.2,3.1-2c-0.2,0-0.6-0.1-0.9-0.1c0.7-1,1.5-2.1,1.8-3.3C218.1,131.9,217.7,131.6,217.4,131.4z M205.6,118.8
			c0,0.5,0,1.1,0.1,1.6c0,0.1-0.1,0.3-0.1,0.4c0.3,1.2,0.9,2.3,1,3.5c0.2,0,0.5-0.1,0.7-0.1c-0.4-1-0.4-2-0.6-3.1
			C205.8,120.6,206.1,119.5,205.6,118.8z M202.1,116.8c-0.4,1-1.7,1.8-1.5,2.9c0.7-0.8,1.3-1.8,1.8-2.7
			C202.4,117,202.2,116.9,202.1,116.8z M203.9,118.4c-0.8,0.9-1.8,1.7-2.6,2.7c0.3,0.9,0.7,1.8,1,2.8c-0.2-0.2-0.7-0.5-1-0.7
			c0.1,0.4,0.3,0.8,0.3,1.2c-0.5-0.4-1-0.8-1.1-1.5c-0.1,0-0.2-0.1-0.2-0.1c-0.1-1,0-2.1-0.1-3.1c-0.8-1.9-1.5-3.8-2.2-5.7
			c-0.1,0.3-0.4,0.8-0.5,1.1c-0.2-0.5-0.3-1-0.4-1.5c0,0-0.1,0.1-0.1,0.2c0.3,0.5-0.1,0.8-0.6,0.9c0.1,0.5,0,0.9-0.2,1.3
			c-0.2-0.6-0.4-1.3-0.6-1.9c0.1,0.6,0.2,1.3-0.1,1.9c-0.5-0.2-0.9-0.6-1-1.2c-0.4-0.8-0.6-1.7-0.8-2.6c-0.1,0.8,0,1.6,0.3,2.3
			c0.2,0.7,0.1,1.6,0.8,2.1c0.1,0.3,0.1,0.7,0.2,1c0.3,0.4,0.3,1,0.5,1.5c0.1,0.6,0.6,1.2,0.1,1.7c-0.2-0.3-0.4-0.7-0.6-0.9
			c-0.6,0.3-0.1,0.8,0,1.2c-0.5-0.5-0.8-1.1-0.9-1.8c-0.2,0.7-0.2,1.4-0.1,2c-0.1,0.2-0.3,0.5-0.4,0.7c0.5,0.7,1.2,1.5,0.8,2.4
			c0.6,1.3,0.9,2.8,1.4,4.1c0-1-0.1-2-0.2-3c0.4,0.8,0.6,1.9,1.6,2.2c-0.3-0.6-0.5-1.1-0.8-1.7c0.1-0.1,0.2-0.3,0.3-0.4
			c0.1,0,0.4,0.1,0.6,0.2c-0.2-0.7-0.4-1.4-0.2-2c0.6,1.2,0.6,2.6,1.3,3.7c0.2-1.4-0.5-2.7-0.7-4.1c0.3,0.3,0.6,0.6,0.8,0.9
			c0.1,1.1,0.2,2.2,0.6,3.2c0.5-0.3,0.9-0.7,1.4-1c-1-1.1-0.8-2.9-2.2-3.5l0.1-0.2c0.2,0.1,0.5,0.3,0.6,0.5
			c-0.1-0.4-0.1-0.8-0.2-1.1c0.4,0,0.8-0.1,1.2-0.2c0.3,0.8,0.5,1.6,0.6,2.5c0.1-0.1,0.3-0.2,0.4-0.3c0.2,0.3,0.4,0.6,0.5,0.9
			c-0.1,0.3-0.1,0.6-0.2,0.8c0.1-0.4,0.4-0.6,0.8-0.8c0.3-0.6,1-0.5,1.5-0.6c0.7-0.5,1.3-1.1,2-1.5
			C204.7,121.3,204.4,119.8,203.9,118.4z M221.9,137.9 M196.2,111.2c-0.4-0.1-0.6,0-0.5,0.4C196.2,111.8,196.3,111.7,196.2,111.2z
			 M212.6,129.6c-0.4,0.2-0.4,0.4,0,0.7C212.9,130,213,129.8,212.6,129.6z M194.4,110.8c-0.4,0.2-0.5,1.1,0,1.3
			C195,112,194.8,111,194.4,110.8z M192.8,110.1c0.1,0.2,0.4,0.5,0.5,0.7c-0.5,0-0.9-0.4-1.3-0.7c-1.5-0.4-3.1-0.2-4.5,0.3
			c-0.7,0.7-1.4,1.4-2,2.1c0.6-0.4,1.2-0.8,2-0.7c-0.4,0.7-0.9,1.4-1.3,2c0.1,0.1,0.4,0.2,0.6,0.2c-0.1,0.2-0.3,0.5-0.4,0.7
			c0.2-0.1,0.7-0.3,1-0.3c0,0.6,0,1.2,0,1.8c0.2,0.1,0.5,0.2,0.6,0.3c-0.1,0.2-0.4,0.5-0.5,0.7c0,0.3,0.1,0.5,0.1,0.8
			c0.5-0.9,1.2-1.8,2.2-2.1c0.2-0.4,0.4-0.7,0.9-0.8c0.4-0.7,0.8-1.5,0.8-2.4c0.1,0.2,0.3,0.5,0.4,0.7c0.8-0.9,1.5-1.8,1.9-2.9
			C193.4,110.3,193.1,110.2,192.8,110.1z M205.8,124.3 M206.4,125.2c-0.4,0.3-0.8,0.4-1.3,0.5c0.1-0.1,0.2-0.3,0.3-0.5l-0.4,0.3
			c0-0.2,0-0.7,0-0.9c-0.5,0.6-1,1.3-1.3,2c-0.1-0.2-0.2-0.5-0.3-0.6c-0.6,0.8-1.6,1.4-1.6,2.4c-0.2,0.2-0.6,0.7-0.8,0.9
			c0.1-0.3,0.2-0.8,0.2-1l-0.1-0.1c-0.2,0.5-0.7,1.1,0,1.4c-0.1,0.1-0.2,0.3-0.2,0.4c1.5-0.2,2.1-1.8,3.4-2.4
			c-0.7,0.8-1.5,1.6-2.3,2.3c0.9,0.2,0.8,0.9,0.2,1.4c0.3,0.1,0.6,0.2,0.9,0.3c-0.1-0.1-0.2-0.4-0.3-0.6c0.8-0.7,1.7-1.3,2.5-2
			c0-0.3,0-0.6,0-0.9c0.3-0.2,0.7-0.3,1-0.5c-0.1-0.4-0.2-0.8-0.3-1.2c-0.1,0.2-0.2,0.7-0.3,0.9c-0.2-0.1-0.5-0.2-0.7-0.3
			c-0.2,0.2-0.7,0.5-0.9,0.7c0-0.8,0.6-1.4,1-1.9c0.4,0,0.8,0.1,1.1,0.1C206.3,125.6,206.3,125.4,206.4,125.2z M221.5,142
			 M206.9,128.2c-0.4-0.1-0.8,0.7-0.3,0.8C207.1,129.1,207.4,128.3,206.9,128.2z M218.7,140.8c-0.1,0.3,0,0.8-0.5,0.9
			c-0.7,0.3-1.2-0.4-1.7-0.6c0.3-0.2,0.9-0.5,1.1-0.7c-0.8-0.7-1.7-1.2-2.6-1.5c0.2,1.6,1.6,2.4,2.8,3.3c0.5,0,1-0.3,1.4-0.7
			C219.1,141.3,218.9,141,218.7,140.8z M201.1,122.4 M203,125.3 M206.1,129.2c-0.6,0.9-1.5,1.6-2.3,2.4c0.4,0.4,0.9,0.3,1.3,0.3
			c0.6-0.7,1.4-1.2,2.1-1.7c-0.1-0.1-0.3-0.2-0.4-0.2C207.1,129.4,206.4,129.4,206.1,129.2z M193.7,116.1c-0.2,0.3-0.4,0.7-0.6,1
			c0.8,0.5,0.8,1.6,1.5,2.2C194.7,118.3,193.9,117.2,193.7,116.1z M199.3,122.4 M199.7,127.6c-0.6,0.4-1.3,0.8-1.8,1.2
			c0.1,0,0.3,0,0.4,0c0.8-0.6,1.7-1.2,2.6-1.6c0.2,0.1,0.6,0.2,0.8,0.3c-0.1-0.1-0.3-0.4-0.4-0.5c0.7-0.2,1.3-0.6,1.2-1.4
			C201.3,125.8,200.8,127,199.7,127.6z M190.2,116.1c-0.8,0.8-1.5,1.7-2.3,2.5c0.4,1.1,0.7,2.1,1.2,3.1c0.8-0.9,1.6-1.7,2.3-2.6
			C191.3,118,190.7,117.1,190.2,116.1z M191.8,119.9c-1.2,0.9-2.1,2.1-3.1,3.2c0.2,0.5,0.7,0,1.1-0.1
			C190.8,122.2,191.9,121.3,191.8,119.9z M183.4,114.7c0.2,0.2,0.6,0.6,0.8,0.8c-0.1-0.5-0.2-1-0.3-1.4c0.1,0.1,0.4,0.2,0.5,0.3
			c0.2-0.4,0.4-0.9,0.5-1.3C184.4,113.5,183.4,114,183.4,114.7z M191.9,120.9c-0.6,1-1.5,1.8-2.4,2.5c0.2,0.2,0.5,0.5,0.6,0.6
			c-0.4,0.4-1,0.3-1.5,0.5c-0.5,0.4-0.9,0.9-1.3,1.3c-0.3-0.9,0.4-1.5,1-2.1c-0.7,0.3-1.2,1-1.9,1.4c0.6,0.6,1.1,1.3,1.5,2
			c0.3-0.1,0.5-0.2,0.8-0.3c-0.2,0-0.6,0-0.8,0.1c0.1-1.3,1.6-1.7,2.4-2.6c0,0.1,0.1,0.4,0.1,0.5c-0.5,0.4-1.1,0.7-1.6,1
			c0.4,0.2,0.7,0.4,1.1,0.7c0.5-0.4,0.9-0.8,1.5-0.9c-0.4,0.4-0.7,0.8-1.1,1.2c0.1,0.1,0.3,0.3,0.4,0.3c0,0.1-0.1,0.4-0.1,0.5
			c0.2,0,0.4-0.1,0.6-0.1c0.4,0.2,0.7,0.4,1.2,0.5c-0.4-0.2-0.7-0.4-1.1-0.6c0.2-0.1,0.7-0.4,1-0.6c0.1,0.2,0.2,0.5,0.3,0.7
			c0.1-0.1,0.4-0.4,0.5-0.6c0.1,0.1,0.3,0.4,0.4,0.6c0.2-0.2,0.4-0.4,0.5-0.5c-0.1-0.3-0.2-0.7-0.3-1.1c-0.1,0-0.2-0.1-0.2-0.2
			C193.8,123.8,192.7,122.4,191.9,120.9z M185.2,114.8L185.2,114.8c-0.1,0.6,0.2,1.3-0.1,1.8c-0.1-0.1-0.4-0.4-0.5-0.6
			c0,0.5-0.1,1-0.2,1.5c-0.3-0.6-0.3-1.2-0.3-1.8c-0.2-0.2-0.7-0.5-0.9-0.7c-0.1,0.8,0,1.5,0.5,2.2c-0.2,0.2-0.4,0.4-0.6,0.7
			c-0.3-0.4-0.4-1.7-1-1c0.1,0.2,0.3,0.5,0.4,0.7c0.1,0.4,0.1,0.8,0.3,1.2c1.1,2,1.8,4.2,3.2,6c-0.2-0.4-0.3-0.9-0.3-1.4
			c0.2,0.2,0.6,0.7,0.8,1c-0.1-0.2-0.2-0.6-0.3-0.8l0.3-0.3c0.1,0.1,0.3,0.4,0.4,0.6l0.2-0.1c-0.2-0.5-0.5-1-1.1-1.1
			c0.2-0.5,0.5-1,0.8-1.5c0.1,0.2,0.4,0.6,0.6,0.8c-0.2-0.6-0.3-1.1-0.5-1.7c-0.7-0.9-1.5-2-1.3-3.2c0.7,1.2,1.2,2.4,2.1,3.5
			C187.3,118.3,186.2,116.5,185.2,114.8z M199.3,130.1c-0.2-0.2-1-0.1-0.7,0.3C198.9,130.8,200.1,130.5,199.3,130.1z M199.9,131
			c-0.4,0.5,0.7,1,0.8,0.4C200.6,131,200.3,130.9,199.9,131z M172.1,109.5c-0.8-0.5-0.8,0.6-0.7,1.1c-0.1-0.2-0.4-0.6-0.5-0.7
			c0-0.2,0-0.5,0-0.7c-1,0-2.1,0.1-3.1,0.2c-1.5,0.4-3.1,0.1-4.6,0.7c-0.3,0.5-0.7,0.9-1.1,1.3c0.3,0,0.7,0.1,1,0.1
			c0.3-0.2,0.6-0.4,0.9-0.6c0,0.3,0,0.6,0,0.9c-0.2,0-0.5,0.1-0.7,0.2c-0.1,0.3-0.2,0.7-0.3,1c-0.4,0.2-0.8,0.4-1.2,0.6
			c0-0.1-0.1-0.3-0.1-0.4c-0.3,0.2-0.6,0.3-1,0.5c-0.3,0.3-0.5,0.6-0.8,1c-0.1-0.2-0.2-0.5-0.3-0.7c-1.2,0.2-2.1,1.1-3.1,1.6
			c1.3,0.3,2.4,1.3,3.7,1.1c2.2-0.9,4.2-2.3,6-3.9c-0.5-0.6,0.1-0.9,0.7-0.6c0.4-0.2,0.8-0.4,1.2-0.6c0.7-0.6,1.3-1.3,2.1-1.8
			c0.5-0.2,0.2,0.4,0.1,0.6c0.5,0,0.8,0.4,1.1,0.7c-0.2,0.1-0.5,0.2-0.6,0.3c0.3,0.1,1,0.3,1.3,0.4c-0.5,0.4-1.1,0.8-1.7,1
			c0.2-0.3,0.5-0.8,0.7-1c-0.5,0.4-0.9,0.7-1.4,1.1c0.2,0,0.6,0.1,0.8,0.2c-1,0.6-1.8,1.8-3.1,1.7c-1.1,0.8-2.3,1.4-3.4,2.1l0.1,0.1
			c1.6-0.4,3.3,0.1,4.8-0.7c1.8-1,3.7-2.1,5.1-3.8l0.4,0.5c-1.4,1.2-2.8,2.4-4.5,3.2c0.1,0,0.2,0.1,0.3,0.2c2.9-2,6.2-3.6,8.3-6.6
			c-1.4,0.7-2.5,1.8-3.6,2.9c0-0.3-0.1-0.7,0.2-1c1-0.9,2.1-1.7,3-2.6C176,108.6,174,109.2,172.1,109.5z M180.6,116.4
			c0.4,0.1,0.7,0.4,1.1,0.2c0.1-0.1,0.2-0.3,0.2-0.5c0.2,0.1,0.6,0.2,0.8,0.3c0.1-0.5,0.1-1,0.2-1.6
			C182.1,115.1,181.4,115.9,180.6,116.4z M181.5,117.3c0,0.6,0,1.3-0.2,1.9c-0.4-1-0.2-2.2-0.9-3.1c-0.6,0-1.3,0.2-1.9,0.3
			c0,0.2,0,0.6,0,0.8c-0.2-0.2-0.6-0.6-0.8-0.8c0.8,1.9,1.5,3.9,2.4,5.7c0.4,0.9,0.6,1.9,1.4,2.5c0-0.1,0.1-0.3,0.1-0.4
			c0.4-0.1,0.8-0.1,1.2-0.2c-0.1,0.2-0.4,0.5-0.6,0.6c0.4-0.2,0.9-0.3,1.3-0.5c0.2,0.2,0.5,0.5,0.6,0.7c0.2-0.3,0.4-0.5,0.5-0.8
			c-0.4-1.5-1.4-2.7-1.7-4.2C182.5,119.1,182.2,118,181.5,117.3z M185,124.3 M173.9,118c0.2,0.6,0.5,1.2,0.7,1.8
			c-0.3,0-0.6-0.1-1-0.2c0.1,0.5,0.4,1.1,0.9,1.4c-0.1-0.2-0.2-0.5-0.2-0.7c1.2-0.7,2-1.9,3-2.8c-0.1-0.2-0.2-0.6-0.3-0.8
			C175.8,116.8,174.7,117.1,173.9,118z M173.5,122.8c0.6-0.3,1.1-0.6,1.5-1.1c0.2,0.1,0.5,0.4,0.6,0.5c0.2-0.2,0.5-0.5,0.6-0.6
			c-0.4-0.1-0.8-0.1-1.2-0.2c0.7-0.3,1.3-0.7,2-1c0.1,0.4-0.1,0.8-0.4,1.1c0.3,0.3,0.6,0.6,0.9,0.9c-0.7,0.4-1.3,0.8-1.9,1.3
			c0.5-0.1,1.1-0.3,1.6-0.4c0.1,0.2,0.4,0.7,0.5,0.9c0.1-0.2,0.4-0.5,0.6-0.7c0.1,0.1,0.3,0.4,0.4,0.6c0-0.2,0.1-0.5,0.1-0.6
			c0.7,0.2,1.4,0.6,1.3,1.4c0.2,0.2,0.3,0.4,0.5,0.7c-0.1-0.3-0.2-0.7-0.3-1c-0.3-0.8-0.5-1.6-0.8-2.3c-0.1,0.1-0.4,0.3-0.5,0.4
			c0.8-0.7,0-1.5-0.4-2.1c-0.2-0.7-0.4-1.4-0.7-2C176.2,119.7,174.9,121.3,173.5,122.8z M169.8,110.3c-0.5,0.7-1.2,1.3-1.8,1.8
			c0,0.1,0.1,0.3,0.1,0.4c-0.9-0.3-1.9,0.5-2.2,1.4c-1.2,0.7-2.3,1.5-3.5,2.1c-0.4,0.2-0.7,0.4-1.1,0.6c-0.3,0.1-0.6,0.2-0.9,0.4
			c0.8-0.1,1.5-0.2,2.2-0.5c2.4-1.1,4.6-2.6,6.6-4.3C169.6,111.7,170.6,111,169.8,110.3z M172.7,117.2c-1.5,1.3-2.7,2.8-4,4.3
			c0.4,0,0.9,0.1,1.2-0.3c0.9-0.9,1.7-2.1,2.8-2.8c0.4-0.5,0.8-1,1.3-1.4C173.6,117,173.2,117.1,172.7,117.2z M177.2,125.4
			c0.7,0.2,1.4,0.2,2.1-0.1C178.6,125.1,177.9,124.9,177.2,125.4z M169.5,118.1c-0.7-0.2-1.4-0.2-2.1-0.3c-0.4,0.2-0.8,0.4-1.2,0.7
			c0.2,0.4,0.3,0.8,0.5,1.2c0.6,0.4,1.1,0.9,1.7,1.3c0-0.1-0.1-0.4-0.1-0.5c0.7-0.5,1.4-1.2,1.9-1.9l-0.2-0.3
			c0.6-0.1,1.1-0.5,1.6-0.8C170.7,117.3,170.1,117.7,169.5,118.1z M176.1,122.5c-0.3,0-1,0.5-0.7,0.8
			C175.7,123.3,176.4,122.8,176.1,122.5z M174.2,123.3c0.3,0.2,0.6,0.1,0.6-0.3C174.5,122.7,174.3,122.8,174.2,123.3z M175.8,125.8
			c-0.2,0.2-0.4,0.4-0.6,0.6c0.5,0,1.1,0,1.4,0.5c0.3-0.3,0.5-0.6,0.8-0.9C176.8,125.9,176.3,125.8,175.8,125.8z M161.8,110.2
			c-2.2,1.8-4.3,3.7-7,4.8c1.2,0.2,2.4-0.5,3.3-1.1c1.3-1.1,2.8-2,3.8-3.3C161.9,110.5,161.8,110.3,161.8,110.2z M156.7,110
			c-0.7,0-1.3,0.5-1.9,0.8c0.2,0.2,0.5,0.5,0.7,0.6c0.2-0.9,1-0.5,1.6-0.3c0.2-0.2,0.5-0.5,0.7-0.6c0.5,0.3,1,0.7,1.6,1
			c0.8-0.4,1.5-1,2.2-1.6C159.9,109.8,158.3,109.9,156.7,110z M170.9,121.6c0,0.4,0.9,0.7,0.8,0.1C171.8,121.3,171,121,170.9,121.6z
			 M164.8,117.2 M163.3,118c1,0.6,1.9,1.2,3,1.5c-0.3-0.5-0.6-0.9-0.9-1.4C164.7,118.1,164,118,163.3,118z M170.7,126.2
			c-0.2,0.1-0.6,0.3-0.8,0.4c0.7,0.4,1.4,0.7,2,1C171.7,127.1,171.3,126.5,170.7,126.2z M155.4,112c0,0.1,0,0.4,0,0.5
			c-0.5,0-1,0.2-1.4,0.4c-0.2-0.1-0.5-0.3-0.6-0.4c-0.3,0.1-0.6,0.3-0.9,0.4c0-0.2-0.1-0.5-0.2-0.7c-0.2,0.2-0.5,0.5-0.6,0.6
			c-0.6,0.2-1.1,0.4-1.7,0.6c1.3,0.4,2.7,0.8,4,1.3c1.3-0.7,2.8-1.1,3.8-2.3C156.9,112.6,156.1,112.6,155.4,112z M146.8,111.1
			 M149,121.3c0.2,0.4,0.9,0.4,1.1,0C149.9,120.9,149.1,120.9,149,121.3z M147,122.4c0.2-0.1,0.6-0.3,0.8-0.4
			c-2.4-0.5-4.8-1.3-7.2-1.5c-2.5-0.2-4.9-0.8-7.4-0.8c-1.4,0-2.8-0.5-4.2-0.5c-1.9-0.1-3.8-0.2-5.6-0.4c-0.2-0.1-0.5-0.4-0.6-0.5
			c-0.1,0.1-0.3,0.4-0.3,0.5c-1.5-0.5-3.2-0.3-4.8-0.6c-0.5,0.1-0.9,0.1-1.4-0.2c2.4-0.5,4.8,0.3,7.2,0.1c1.8,0.6,3.8,0.5,5.7,0.7
			c-0.1-0.8-0.5-1.9,0.4-2.4c-0.1,0.5-0.2,1-0.3,1.6c0.4-0.2,0.8-0.4,1.2-0.6c-0.2,0.5-0.7,0.8-1.2,1c0.9,0.6,2.1,0.6,3.2,0.8
			c0-0.6,0.2-1.3,0.4-1.8c0-0.1-0.1-0.4-0.2-0.5c-0.8-0.2-0.5,0.7-0.6,1.2c-0.4,0-1,0.4-1.3-0.1c0.2-0.5,0.6-1,0.6-1.5
			c-0.3-0.4-0.5-0.7-0.8-1.1c-0.1,0.4-0.2,0.7-0.3,1.1c0.3,0.1,0.8,0.2,1,0.3c-0.8,0.5-1.4-0.4-1.9-0.9c-0.4,0.1-0.7,0.3-1.1,0.4
			c0.4-0.6,0.8-1.3,1.1-2c-0.7-0.2-1.7-0.6-2.3,0.2c0.3,0.4,1.6,1.2,0.4,1.4l-0.5,0c-0.2,0.3-0.3,0.7-0.5,1
			c-0.3-0.5-0.3-1.1-0.2-1.7c-0.2,1-1.2,1.3-2,1.8c-0.1-0.1-0.3-0.4-0.4-0.5c0.6-0.4,1.3-0.8,1.8-1.3c0-0.3,0-0.6-0.1-1
			c-0.6,0-1.4-0.4-0.4-0.7c0.2-0.3,0.4-0.6,0.6-1c0.1,0.2,0.2,0.5,0.3,0.7c0.2,0,0.6,0,0.8-0.1c-0.4-0.9-1.3-0.8-2.1-0.9
			c0.3-0.4,0.7-0.8,1.1-1.1c-0.8-0.1-1.6-0.2-2.4,0c0.7,0,1.3,0.1,2,0.3c-0.3,0.1-0.9,0.4-1.2,0.5c-0.3,0.2-0.5,0.4-0.8,0.7
			c0-0.2,0.1-0.6,0.1-0.8c-0.9-0.2-2-0.6-2.7,0.3c-0.1-0.1-0.4-0.2-0.6-0.2c-0.8,0.1-1.6,0.2-2.4,0.2c0.1-0.2,0.2-0.6,0.3-0.8
			c-0.6,0.1-1.2,0.1-1.9,0.2c0.7,0.8-0.5,0.7-1,0.9c0.1-0.3,0.2-0.6,0.3-0.9c-2.5,0.2-5,0-7.4,0.7c0.3,0.1,0.7,0.2,1,0.3
			c0.1,0,0.2,0.1,0.3,0.2c0.3,0,0.7,0,1,0c-0.1-0.2-0.2-0.5-0.2-0.6c0.4,0,0.9,0.1,1.3,0.1c0.1,0.1,0.2,0.3,0.2,0.4
			c0.4,0,0.7,0,1.1,0c0.1-0.2,0.2-0.6,0.3-0.8c0.4,0.3,0.7,0.7,1.1,1c-0.2,0.1-0.5,0.2-0.7,0.4c0,0.2,0,0.5,0,0.7
			c0.7,0.2,1.4,0.5,2.1,0.8c0.5,0.2,1,0.4,1.5,0.6l0.2,0.2l0.1,0.3c-0.9,0-1.7-0.5-2.6-0.4c-0.1-0.1-0.2-0.4-0.3-0.6
			c-0.2,0.2-0.5,0.5-0.6,0.6c1.3,0.4,2.7,0.5,4.1,0.7c-0.4,0.3-0.8,0.5-1.2,0.6c-0.2,0.1-0.5,0.4-0.7,0.6c-0.4-0.1-0.9,0-1.2,0.2
			c-0.4-0.2-0.7-0.3-1.1-0.5c0.8-0.3,1.6-0.5,2.4-0.5c-0.6-0.2-1.3-0.3-2-0.4c-0.1,0.1-0.4,0.4-0.5,0.5c-0.4,0-0.8-0.1-1.1-0.1
			c0.3-0.2,0.6-0.3,0.9-0.4c-0.2-0.2-0.5-0.5-0.7-0.7c0.4-0.1,0.8-0.2,1.2-0.3c-0.3-1.4-2.1-1.8-3.1-0.9c0,0.6,0,1.1-0.2,1.7
			c-0.2-0.4-0.4-0.7-0.5-1.1c0,0.3-0.1,0.7-0.1,1c-0.7,0.2-1.4,0.5-2.2,0.5c0.4-0.5,0.8-0.9,1.2-1.4c-0.2-0.1-0.5-0.3-0.6-0.4
			c0.3-0.1,0.5-0.2,0.8-0.3c0,0.4,0.1,0.8,0.1,1.2c0.6-0.5,0.4-1.3,0.3-2c-0.3-0.1-0.6-0.3-1-0.4c-0.4,0.2-0.8,0.3-1.3,0.5
			c0.3,0.2,0.6,0.4,1,0.6c-0.4,0.2-0.8,0.4-1.1,0.5c0.1-0.7,0.3-1.4-0.2-2c-0.1,0.2-0.3,0.7-0.4,0.9c0-0.4,0-0.8,0-1.2
			c-1.1,0-2.1,0.1-3.2,0.3c0.1,0.6,0.6,0.9,1.1,1c0.3-0.4,0.7-0.4,1.1-0.3c-0.2,0.2-0.5,0.5-0.6,0.7c0.5,0.3,0.9,0.7,1.3,1.1
			c-0.9,0-1.8-0.1-2.6-0.2c-0.2,0.1-0.5,0.4-0.6,0.5c-0.2-0.5-0.4-1-0.6-1.5c0.1-0.2,0.4-0.6,0.6-0.8c-0.5,0-0.9-0.1-1.4-0.1
			c0.1,0.5,0.2,1,0.3,1.5c-0.1,0.1-0.4,0.3-0.6,0.4c-0.4-0.5-1-0.6-1.6-0.7c0.3,0.7,0.7,1.3,1.2,1.8c0.3-0.1,0.5-0.2,0.8-0.2
			l-0.5-0.3c0.3-0.3,0.5-0.6,0.8-0.9c0.2,0.2,0.5,0.7,0.6,1c0.9-0.6,2.1,0,2.7,0.7c-0.5-0.1-1.1-0.1-1.6-0.1c-0.9,0.2-1.7,0.9-2.7,1
			c-1.1-0.3-2.1-1.1-2.4-2.2c0.1-0.8,0.1-2,1.2-1.8c-0.5-0.4-1.2-0.2-1.8-0.2c0.3,0.3,0.5,0.5,0.8,0.8c-0.2,0.3-0.3,0.6-0.5,0.9
			c-0.3,0-0.6,0-0.8,0c0.4,0.2,0.8,0.3,1.1,0.7c-0.3,0.4-0.8,0.5-1.1,0.7c-0.4,0-0.7,0-1.1,0c0-0.1,0.1-0.4,0.1-0.5
			c-0.1-0.1-0.2-0.2-0.3-0.2c-0.3-0.5-0.8-0.6-1.4-0.5c0.2,0.1,0.5,0.3,0.7,0.5c-0.4,0.4-0.8,0.7-1.2,1.1c-0.5-0.7-0.4-1.7,0.3-2.2
			c0-0.3,0-0.6-0.1-0.9c-0.5,0.1-0.9,0.2-1.4,0.4c0.2,0.4,0.4,0.8,0.6,1.3c-0.3-0.1-0.6-0.3-0.9-0.4c-0.2,0.1-0.6,0.2-0.8,0.3
			c0.4,0.1,0.7,0.2,1.1,0.3c0.1,0.3,0.2,0.6,0.2,0.8c-0.4-0.2-0.9-0.9-1.2-0.2c0.1,0.4,0.4,0.8,0.7,1.1c-0.7,0-1.5,0-2.2-0.2
			c-0.1-0.6,1.3-0.4,1.1-1.2c-0.3-0.6-1.1-1.7,0.1-1.7c-0.1-0.2-0.2-0.4-0.4-0.6c-0.9,0.1-1.9,0.4-2.7,0.8c0-0.3,0-0.5,0.1-0.8
			c-0.3,0-0.5-0.1-0.8-0.1c0,0.3,0.1,1.4-0.4,0.8c-0.1-0.1-0.3-0.3-0.4-0.5c-1,0.2-2,0.4-3.1,0.3c0.1,0.2,0.1,0.5,0.2,0.7
			c0.4,0,0.8-0.1,1.2-0.1c-0.4,0.2-0.8,0.3-1.2,0.5c0.3,0.3,0.7,0.5,1,0.8c-1.5-0.2-2.6-1.4-3.9-2.1c-0.7-0.2-1.3-0.1-2-0.1
			c1.2,1.2,2.7,1.8,4.2,2.3c1.1,0.4,2,1.3,3.3,1.4c1.5,0.2,2.9,0.7,4.3,0.8c1.3,0.2,2.6,0.8,4,0.5c1.6-0.1,3.2-0.1,4.7,0.4
			c0.2,0.4,0.6,1.1,0.7-0.1c1.2-0.1,2.4,0.1,3.5,0.3c-0.2,0.4-0.4,0.8-0.6,1.3c-0.2,0-0.5,0.1-0.7,0.2c0,0.2-0.1,0.5-0.2,0.6
			c-1.5,0.3-3.1,0-4.6,0.3c-0.1-0.1-0.4-0.2-0.6-0.3c-0.1,0.1-0.4,0.2-0.5,0.3c-0.6-0.2-1.2-0.2-1.7-0.1c0.1,0.3,0.1,0.6,0.2,0.9
			c-0.8-0.2-1.7-0.1-2.5,0c0.1,0.5,0.2,0.9,0.3,1.4c0.5,0.4,1.1-0.1,1.6-0.3c0.6,0,1.2,0,1.7,0c-0.5,0.4-1.1,0.7-1.6,1
			c0.1-0.2,0.2-0.6,0.3-0.8c-0.4,0.2-0.7,0.4-1.1,0.6c0.6,1,0.8,2.2,0.9,3.3c0.1,0,0.4-0.1,0.6-0.2l0.1,0.1
			c-0.4,0.1-0.9,0.2-1.3,0.2c0.1-0.2,0.2-0.6,0.3-0.8c-0.2-1.2-0.8-2.3-1.6-3.2c-0.2-0.6-0.4-1.3-0.6-1.9c-1.7,0-3.4,0.5-5.2,0.5
			c-1.5,0-3.1,0.7-4.6,0.2c0.2-0.1,0.7-0.3,0.9-0.4c-0.6-0.2-1.2-0.3-1.8-0.4c-1-1.2-2.7-1.3-3.8-2.3c-2.2,0.9-3.6,2.9-5.7,3.9
			c1.3,0.6,2.3,1.6,3.2,2.7c1.2,0.4,2.4,0.8,3.5,1.5c-0.3,0.3-0.5,0.6-0.8,0.9c0.7-1,1.9-0.9,2.9-0.7c-0.3,0.5-0.8,0.9-1.5,1.1
			c-0.7,0.6-0.8,1.4-0.8,2.3c-0.7,1.3-0.9,3-2.3,3.8c0.7-0.1,1.4-0.1,2.1-0.2c1.1-0.5,2.1-1.8,3.3-1.4c0.3-0.3,0.5-0.6,0.8-0.8
			c1.4-0.4,2.9-0.8,4.2-1.5c0.1,0,0.4,0,0.5,0c2-0.9,4.3-0.9,6.1-2.2c0.1,0.1,0.4,0.2,0.6,0.3c0.7-0.5,1.4-1,2.2-0.9
			c0.3,0.2,0.6,0.5,1,0.4c1.1-0.1,2.2-0.1,3.2-0.5c1.6,0.6,3.3,0.1,5,0.1c2.1,0,4.3-0.4,6.4,0.1c-1.3,0.5-2.7,0.2-4,0.3
			c-2.3,0.1-4.5,0.2-6.8,0.3c-1.8,0.4-3.6,0.4-5.3,0.8c-0.5,0.1-1,0.1-1.5,0.1c-2,0.6-4,0.7-5.9,1.4c-1.6,0.4-3.1,1.4-4.7,1.9
			c-1.8,0.5-3.3,1.8-4.8,2.9c-1,0.4-2,0.9-2.7,1.7c-1,2-0.9,4.4-1.8,6.4c-0.3-1.9,1.3-3.7,0.8-5.6c-1.2,0-2.3,0.8-3.3,1.4
			c0.1-0.2,0.2-0.4,0.2-0.5c0.9-0.2,1.7-0.6,2.3-1.2c-1.3-0.4-2.7-0.4-4.1-0.6c-3-0.4-6-0.7-8.9-1.5c-3-0.9-6-1.4-9.1-1.9
			c-0.9-0.4-1.9-0.6-2.9-0.8c-5.2-1.1-10.3-2.7-15.5-3.8c-2.4-0.2-4.8,0-7.2-0.6c-0.6,0.1-1.2,0.2-1.7,0.1c-2.8-0.5-5.6-0.7-8.4-1
			c0,0.2,0,0.6-0.1,0.8c-1-0.3-2-0.3-3-0.6c-0.8-0.4-1.6-0.9-2.6-0.7c0.4,0.7,0.7,1.5,1.5,1.9c2.6,1.5,5.4,2.4,8.2,3.4
			c2.2,0.9,4.5,1.4,6.7,2.2c2.5,1,5.2,1.3,7.7,2.1c1.9,0.5,3.7,1.1,5.6,1.5c1.2,0.2,2.3,0.9,3.5,1.1c2.5,0.4,4.9,1.1,7.4,1.6
			c2,0.7,4.2,0.8,6.3,1.3c2.6,0.8,5.2,1.4,7.9,1.8c2.2,0.3,4.2,1.1,6.4,1.4c0.6-0.7,1.3-1.4,2.2-1.7c1.6-0.6,3.1-1.7,4.6-2.5
			c3.2-1.3,6.5-2.7,10-3.3c1.9-0.8,3.9-0.9,5.8-1.6c1.5-0.6,3.2-0.7,4.7-1.1c0.1,0.1,0.4,0.3,0.5,0.4c0.2-0.3,0.3-0.7,0.7-0.6
			c4.1-0.5,8.3-0.8,12.4-1.2c1.5,0,3-0.5,4.5-0.5c2.5-0.1,5.1-0.4,7.6-0.1c1.8,0.2,3.6-0.5,5.4-0.1c1.1,0.2,2.1,0.1,3.2,0.2
			c0.1-0.1,0.4-0.4,0.5-0.6c0,0.1-0.1,0.4-0.1,0.6c0.8,0,1.7,0.2,2.5-0.2c0,0.1,0,0.2,0.1,0.3c2.5-0.1,5,0.5,7.6,0.6
			c1.3,0,2.5,0.5,3.8,0.9c-0.2-0.3-0.5-0.6-0.7-0.8c0.1-1.2-0.2-2.5-0.3-3.7c-1.4-0.7-3,0.1-4.4-0.2c-2-0.3-4.1-0.5-6.2-0.4
			c0-0.2,0-0.4,0-0.6c0.3,0,1,0.1,1.4,0.1c-0.7-0.4-1.5-0.3-2.2-0.3c0.1,0.2,0.3,0.5,0.4,0.7c-0.3-0.1-0.8-0.2-1.1-0.2
			c0-0.1-0.1-0.4-0.1-0.5c-0.3,0-0.6-0.1-0.9-0.1c-0.2-0.8-0.3-1.6-0.7-2.3c-0.4-0.2-0.9-0.5-1.3-0.7c0.4,0.1,0.8,0.3,1.2,0.6
			c0-0.2,0.1-0.5,0.2-0.7c0.5-0.1,0.6,0.5,0.8,0.8c0.7-0.1,1.5,0.1,2.2,0.3c0.3-0.1,0.5-0.2,0.8-0.3c-0.2,0.2-0.5,0.6-0.7,0.8
			c1.5-0.2,2.8-0.8,4-1.8c0.3-0.5,0.4,0.3,0.6,0.4c0.2-0.1,0.5-0.2,0.6-0.2c0.2-0.2,0.3-0.5,0.5-0.7c0.5,0.8,0.8,1.7,1,2.7
			c0.1-0.1,0.3-0.4,0.4-0.5c-0.3,0.8-0.3,1.7-0.4,2.6c0.5,0,0.9,0,1.4,0c0-0.1,0-0.4,0-0.5c0.9,0.4,1.9,0.4,2.9,0.5
			c0.3-1.8,0.3-3.8,1.4-5.4c-1.6-0.3-3.2-1-4.8-1.2c-0.1,0.1-0.2,0.4-0.2,0.5c-0.1-0.2-0.2-0.4-0.3-0.6c-3.2-0.6-6.4-1.2-9.7-1.1
			c-1.5,0.6-2.3,2.2-3.7,2.9c0.1,0.2,0.4,0.5,0.6,0.6c-0.5-0.2-1-0.4-1.4-0.6c-1.1,0.3-2.2,0.7-3.2,1c0-0.8-0.1-1.7-0.4-2.5
			c-0.1,0.1-0.2,0.2-0.3,0.2c0.1,0.2,0.3,0.5,0.4,0.6c-0.3,0.8-1,0.1-1.4-0.2c-0.2,0-0.5,0.1-0.7,0.2c-0.2-0.2-0.3-0.5-0.2-0.9
			c0.5-0.1,1-0.1,1.6-0.1c-0.5-0.2-1-0.5-1.5-1c0.8-0.2,1.6,0.2,2.3,0.4c0.7-0.2,1.5-0.4,2.3-0.4c0,0.2,0,0.6,0,0.7
			c0.3-0.1,0.6-0.3,1-0.4c-0.2-0.2-0.5-0.5-0.7-0.7c-0.5,0.1-0.9,0.1-1.4,0c0.2-0.2,0.5-0.5,0.7-0.6c-0.6-0.1-1.2-0.1-1.8-0.2
			c0.3,0.2,0.6,0.4,1,0.6c-0.5,0.5-1.3,0.5-2,0.5c-0.1-0.1-0.3-0.3-0.4-0.4c-0.4,0.1-0.9,0.2-1.3,0.3c0.1,0.3,0.2,0.7,0.3,1
			c-0.1,0.4-0.3,0.8-0.4,1.3c0.6,0.3,1.2,0.5,1.9,0.8c-0.9,0.3-1.8,0-2.7-0.2c-1-0.2-2,0-3-0.1c0.1,0.2,0.2,0.7,0.3,0.9
			c-0.2-0.4-0.4-0.7-0.6-1.1l0.5,0.1c0.1-0.6,0.1-1.2,0.3-1.8c0.2-0.5,1.1-0.9,0.6-1.5c0.4-0.1,0.8-0.2,1.2-0.3
			c-0.6-0.3-1.1-0.6-1.7-1c0.1,0.2,0.3,0.5,0.4,0.7c-1.4,0-2.8-0.4-4.2-0.1c-0.5-0.1-1-0.1-1.5-0.1c0-0.1,0-0.3,0-0.4
			c-0.4,0.5-0.8,0.9-1.4,1.2c-0.1-0.2-0.2-0.5-0.3-0.6c-1.8,0-3.6-0.6-5.4-0.2c0.6,0.1,1.2,0.2,1.9,0.3c-0.5,0.1-0.9,0.3-1.4,0.4
			c-0.2-0.1-0.5-0.3-0.7-0.4c-0.4,0.6-0.7,1.3-1,2c0.3,0.5,0.8,0.1,1.2-0.1c0,0.1-0.1,0.4-0.1,0.6c1,0.7,2.1,1.4,3.4,1.4
			c0.1-0.1,0.2-0.3,0.3-0.4c0.2,0.1,0.5,0.3,0.6,0.4c0.4-0.4,0.8-0.8,1.3-1.1c0.1,0.6-0.6,1-0.9,1.4c-0.1,0.2-0.4,0.7-0.5,0.9
			c0-0.2-0.1-0.6-0.2-0.8c-0.8,0.1-1.6-0.3-2.5-0.2c-0.1-0.1-0.2-0.2-0.2-0.3c-1-0.2-1.7-0.9-2.7-1.1c-0.1-0.2-0.2-0.6-0.3-0.8
			c0.4-0.6,0.7-1.2,1-1.8c-0.5-0.1-1.1-0.2-1.6-0.4c0.8,0,1.6,0,2.3-0.2c-0.8-0.3-1.6-0.3-2.4-0.3c-0.1-0.4-0.3-0.8-0.6-1.1
			c0.5-0.1,0.9-0.2,1.4-0.4c-0.1,0.3-0.1,0.6-0.2,0.9c0.5,0.2,0.7-0.4,1.1-0.7c0.1,0.3,0.2,0.5,0.3,0.8l0.2-0.6l0.3,0.5
			c0.2-0.7,1.1,0.6,1-0.3c0.7-0.2,1.4-0.4,2.1,0c-0.1,0.6,0.1,0.7,0.4-0.1c4.8,0,9.7,0.1,14.5,0.9c1.7,0.3,3.4,0.2,5.1,0.4
			c1.5-0.1,3.1,0.2,4.6,0.4c2.1,0.3,4.2,0.2,6.3,0.7c2.6,0.5,5.2,0.9,7.7,1.9c0.2-0.2,0.6-0.5,0.8-0.7
			C148.6,122.6,147.8,122.6,147,122.4z M143.1,117.2c-0.7-0.1-1.4-0.2-2.1-0.3c0.6,0.4,1.1,0.8,1.7,1.2c0.3-0.1,0.6-0.3,0.9-0.4
			C143.5,117.6,143.2,117.3,143.1,117.2z M141.5,119.3c0.1-0.2,0.4-0.5,0.5-0.7c-0.1-0.2-0.3-0.6-0.3-0.8c0,0.2,0,0.7,0,0.9
			c-0.5-0.1-1-0.1-1.5-0.2c0.2-0.3,0.4-0.7,0.6-1c-0.2,0.1-0.5,0.3-0.7,0.5c0-0.2,0-0.6,0.1-0.8c-0.1,0-0.4-0.1-0.6-0.1
			c-0.1-0.3-0.3-0.6-0.4-0.9c0.1-0.1,0.5-0.4,0.6-0.5c-0.2-0.4-0.6-0.6-1-0.7c0.2-0.1,0.5-0.4,0.7-0.5l-0.2-0.2
			c-0.2,0.2-0.5,0.5-0.6,0.7c-0.1-0.3-0.2-0.7-0.3-1c-0.4,0.5-0.9,0.9-1.5,1c-0.2-0.4-0.4-0.7-0.5-1.1c0.4-0.8,1.1,0.1,1.7,0.1
			c-0.6-0.4-1.2-0.6-1.8-0.9c0,0.5,0,1,0.1,1.5c-0.5-0.2-1.4,0.1-1.4-0.7c-0.3-0.2-0.5-0.5-0.8-0.7c0.3,0.9,0.7,1.8,1.1,2.7
			c0.4,0.1,0.8,0.2,1.1,0.4c-0.2,0.1-0.5,0.2-0.7,0.3c0,0.7-0.1,1.3-0.1,2c-0.2,0.2-0.7,0.6-0.9,0.8c1.5,0.2,3,0.5,4.5,0.6
			c0-0.1-0.1-0.4-0.1-0.6c0.1,0.1,0.4,0.3,0.6,0.4c0.2-0.1,0.6-0.3,0.8-0.3c-0.1,0.1-0.4,0.4-0.6,0.6c1.4,0.2,2.9,0.4,4.3,0.5
			c-0.3-0.3-0.6-0.6-0.9-0.9c0.6,0,1.1-0.1,1.7-0.1c-0.2-0.1-0.5-0.3-0.6-0.4C143.3,118.5,142.4,119.5,141.5,119.3z M134,112.1
			c-0.9,0.2-1.8-0.4-2.7-0.3c0.5,0.2,1.1,0.3,1.6,0.4c-0.3,0.6-0.4,1.3-0.9,1.7c-0.6-0.4-0.4-1.2-0.6-1.8c-0.1,0.2-0.2,0.7-0.3,1
			c-0.2-0.1-0.5-0.2-0.6-0.2c-0.4,0.3-0.9,0.6-1.2-0.1c0.1-0.7,0.8-0.6,1.4-0.6c0-0.2,0-0.4,0-0.6c-0.4,0-0.9,0-1.3-0.2
			c-0.1,0.1-0.2,0.3-0.3,0.4c-0.4-0.7-1.2-0.9-1.9-1.2c0,0.1-0.1,0.4-0.1,0.5c0.2,0,0.5,0,0.7,0c0.1,0.1,0.4,0.4,0.6,0.6
			c-0.1,0.1-0.3,0.3-0.4,0.4l0.3-0.2c-0.1,1,0.9,1.1,1.5,1.5c-0.2,0.3-0.4,0.7-0.7,1c0.3,0.1,0.5,0.2,0.8,0.3
			c0.1-0.2,0.2-0.4,0.3-0.6c0.7,0.3,1.3,0.2,2,0.1c0.3-0.8,0.9-1.4,1.7-1.8c0.5,0,0.9,0.3,1.4,0.5c0.1-0.1,0.4-0.2,0.6-0.3
			C135.3,112.5,134.7,112.2,134,112.1z M133.2,114.4c-0.1,0.1-0.4,0.4-0.5,0.5c0.4,0.4,0.7,0.7,1.1,1.1c-0.3,0.3-0.6,0.6-0.9,0.9
			c0.1,0.3,0.3,0.6,0.4,0.9c0.4,0.1,0.8,0.2,1.1,0.2C134.5,116.7,134.5,115.2,133.2,114.4z M132.5,115.2c-0.4-0.2-1-0.4-1.3,0
			C131.3,115.7,133.1,115.9,132.5,115.2z M141.7,126.1 M131.8,115.8c-0.4,0.2-0.5,0.4-0.1,0.6C132.2,116.3,132.2,116.1,131.8,115.8z
			 M127.5,112.2c-0.5-0.1-0.6,0-0.5,0.4C127.4,112.8,127.6,112.6,127.5,112.2z M131.7,122.2c-0.3-0.2-1-0.1-1.2,0.2
			C130.7,122.9,131.9,122.8,131.7,122.2z M129.5,121.2c-0.5-0.1-0.6,0-0.5,0.4C129.5,121.8,129.7,121.7,129.5,121.2z M134.6,127.6
			 M122.6,122.6c-0.5,0-0.6,0.2-0.3,0.6C122.7,123.1,122.9,122.9,122.6,122.6z M94.8,112.9c0.5,0.5,0.7,1.4,1.6,1.4
			c0-0.4-0.1-0.8-0.1-1.1c0.3-0.1,0.6-0.3,1-0.4C96.3,112.7,95.6,113.2,94.8,112.9z M97.7,113.6 M97.8,119c-1-0.1-2.1,0.2-3.1,0
			c-1.7-0.3-3.5-0.6-5.3-0.7c-2.5,0-4.9-1.1-7.2-2c0.1-0.1,0.3-0.3,0.4-0.5c-0.7-0.3-1.5-0.4-2.2-0.8c-0.8-0.6-1.5-1.3-2.4-1.8
			c-0.6-0.2-1.2-0.3-1.9-0.5c-0.4-0.2-0.7-0.5-1.1-0.7c-0.1-0.3-0.1-0.5-0.2-0.8c0,0.1-0.1,0.4-0.2,0.6c-2.4-1.1-4.7-2.5-6.7-4.2
			c0,0.1-0.1,0.4-0.1,0.5c-0.5-0.5-1.1-1-1.6-1.6c-0.3,0.3-0.5,0.6-0.8,0.9c-2.3,1.6-4.7,3.1-7.2,4.3c-2.1,0.8-3.9,2.2-6,3.1
			c-2.1,0.9-4.2,1.8-6.2,2.7c-3,1.5-6.3,2.3-9.6,3.2c-7.7,2.2-15.5,4.1-23.4,5.2c-0.3,0.1-0.6,0.2-0.9,0.4c4.3,0.6,8.6,1.2,12.9,1.7
			c1.2,0.2,2.4,0,3.5,0.3c1.3,0.3,2.6,0.1,4,0.2c3,0.3,5.8-1,8.6-1.8c1.9-0.7,4.1-0.8,5.8-2c0.1,0.1,0.4,0.3,0.6,0.5
			c0-0.2,0.1-0.6,0.2-0.8c0.3,0.2,0.7,0.4,1,0.6c1.5-0.8,3.2-1.7,5-1.6c1.6-0.6,3.1-1.3,4.6-2c1.9-0.7,3.7-1.6,5.5-2.7
			c0.1,0.1,0.4,0.2,0.5,0.3c-1.8,0.7-3.3,1.9-5.1,2.6c-1.6,0.6-3.1,1.5-4.7,1.8c-1.8,0.4-3.5,1.2-5.3,1.5c0.3,0.5,0.1,0.8-0.3,1.1
			c-0.4-0.3-0.8-0.3-1.2,0c-0.8,0.4-1.4,1.1-1.9,1.8c-0.2-0.1-0.3-0.2-0.5-0.4c-1,0.2-2.1,0.6-3.2,0.6c-0.3-0.2-0.5-0.5-0.5-0.9
			c-0.1,0-0.3,0.1-0.4,0.2c0,0.1,0.1,0.4,0.1,0.5c0.2,0.1,0.7,0.3,1,0.4c-1.1,0.6-2.4,0.5-3.7,0.7c-0.1-0.1-0.2-0.2-0.3-0.3
			c-0.7-0.1-1.5-0.1-2.2,0.1c2.2,0.5,4.4,1.2,6.6,1.8c3.2,0.8,6.5,1.3,9.7,2c0.2-0.2,0.5-0.5,0.7-0.6c-0.1,0.2-0.2,0.5-0.3,0.8
			c3.4,1,6.9,1.6,10.3,2.6c0.8-0.7,1.7-1.2,2-2.3c0.6,0.4,0.3,1.4,0.8,2c1-0.7,0.1-1.8,0.5-2.7c0.4,0.4,0.4,1,0.5,1.6
			c0.1,0.1,0.3,0.2,0.3,0.3c-0.4,0.2-0.8,0.4-1.1,0.8c0.4,0,0.8,0,1.2,0c0.1,0.4,0.2,0.8,0.3,1.1c2,0.2,4,0.5,6,0.5
			c0.6,0.1,0.9-0.4,1.2-0.8c0.1,0.1,0.4,0.4,0.6,0.5c0.1-0.1,0.3-0.4,0.5-0.6c-0.3-0.2-0.7-0.2-1.1-0.3l0.2-0.3
			c-0.2-0.1-0.5-0.4-0.7-0.5c0.5,0,1-0.1,1.5-0.1c0.2-0.3,0.3-0.6,0.4-1c0.2-0.1,0.4-0.3,0.6-0.4c0.9-1.3,0.9-3,1.6-4.4
			c-1.4-0.5-2.6-1.4-3.9-2.1l0.4-0.3c-0.1,0.1-0.3,0.2-0.4,0.3c-0.1-0.2-0.4-0.7-0.5-0.9c0.2,0,0.5-0.1,0.7-0.2
			c-2.1-1.5-3.8-3.6-6.2-4.8c0,0.7-0.1,1.4-0.2,2.1c-0.8,0.6-1.6,1.3-2.4,1.9c-0.3,1.2-1,2.4-0.7,3.8c-0.1,0.7-0.3,1.3-0.2,2
			c0.3,0.7,1,1,1.7,0.9c-0.2-0.1-0.6-0.4-0.8-0.5c0.3-0.2,0.7-0.4,1-0.7c0.1,0.3,0.2,0.5,0.4,0.8c-0.2,0.4-0.5,0.7-0.7,1.1
			c-0.2-0.1-0.6-0.3-0.7-0.4c-0.2,0.3-0.5,0.6-0.7,0.9c-0.2-0.4-0.4-0.9-0.7-1.3c-0.6-0.6-1.5-0.2-2.3-0.3c-0.5-0.5-1.1-1-1.7-1.4
			c-0.3,0.1-0.6,0.1-0.9,0.2c-0.5-0.4-0.7-1-0.7-1.6c-0.2-0.4-0.4-0.9-0.6-1.3c0.7,0.3,1.3,0.7,1.9,1c0.8,0,1.5-0.5,2.3-0.7
			c0.7-0.2,1.5,0.4,2.1,0c0.4-1,0.5-2.1,0.9-3.1c0.7-0.2,1.3-0.3,1.9-0.7c0.9-0.7,0.9-2.1,0.1-2.9c-0.3-0.1-0.5-0.1-0.8-0.2
			c-1.1-0.3-2.3-0.3-3.5-0.4c0.2-0.3,0.7-0.8,1-1c0.1,0.2,0.3,0.4,0.4,0.6c0-0.4,0-0.7,0.1-1c-0.1,0.1-0.4,0.2-0.5,0.3l-0.5-0.1
			c0.8-0.6,1.7-1.1,2.5-1.5c-0.1-0.3-0.2-0.5-0.2-0.8c0.1,0.1,0.3,0.3,0.5,0.4c0.5-0.3,1-0.7,1.5-0.9c-0.1,0.2-0.2,0.6-0.3,0.8
			c0.7-0.9,1.7-1.5,2.7-2c0,0.3,0,0.5,0,0.8l0.7,0c-0.2,0.2-0.6,0.6-0.7,0.8c0.5-0.2,0.9-0.5,1.4-0.7c-0.7,0-0.6-1-1.3-1.1
			c0.5-0.2,1-0.4,1.4-0.7c-0.8-1.1-1.8-2.1-2.4-3.3c0.8,0.7,1.4,1.5,2.2,2.3c0.9,0.8,1.2,2,1.8,3c0.1-0.1,0.2-0.4,0.3-0.6
			c0.2,0.2,0.6,0.5,0.8,0.6c-0.2,0-0.6,0.1-0.8,0.2c3.2,2,6.5,3.8,9.9,5.3c1.2,0.4,2.5-0.1,3.7-0.1c2.3-0.1,4.6-0.4,6.8-0.7
			c2.1-0.1,4.2-0.4,6.2-0.7C99.5,119.6,98.6,119.3,97.8,119z M72.5,116.4c-0.2,0.2-0.6,0.6-0.8,0.8c-0.4,0.1-0.8,0.2-1.1,0.3
			c0.5,0,0.9,0.1,1.4,0.1C72.2,117.2,72.3,116.8,72.5,116.4z M74.7,119.4c-0.2,0.3-0.4,0.6-0.7,0.8c-0.3,0.1-0.6,0.3-1,0.4
			c-0.1-0.2-0.2-0.4-0.3-0.7c-0.3,0.3-0.7,0.6-1,0.9c0.2-0.1,0.6-0.2,0.8-0.3c0.7,0.4,0,0.8-0.3,1.2c0.1,0,0.4,0.1,0.5,0.1
			c0.6-0.8,1.4-1.5,2.2-2.1C74.9,119.6,74.8,119.5,74.7,119.4z M73.3,118.7c-0.8,0.4-1.5,0.9-2.2,1.4
			C72,119.9,72.8,119.4,73.3,118.7z M73.8,119.4c-0.3-0.2-1,0.2-0.7,0.5C73.4,120.1,74.1,119.8,73.8,119.4z M70.2,116.4 M70.1,117.8
			c-0.2,0.2-0.4,0.4-0.6,0.7c-0.1-0.1-0.4-0.4-0.5-0.6c0,0.6-0.4,1-0.8,1.4c0.3-0.1,0.6-0.1,0.9-0.1c0.2,0.3,0.4,0.5,0.5,0.8
			c-0.1-0.4-0.3-0.7-0.4-1.1c0.6-0.3,1.2-0.5,1.8-0.8C70.7,118,70.4,117.9,70.1,117.8z M68.6,117 M70.8,119.6
			c-0.6,0.3-1.1,0.6-1.6,1c0.3,0,0.6,0,0.9-0.1c0.2,0.4,0.4,0.8,0.6,1.2c-0.1-0.4-0.1-0.8-0.2-1.2C70.6,120.3,70.7,120,70.8,119.6z
			 M63.2,127.6c-0.4-0.2-0.6-0.1-0.5,0.4C63.2,128.1,63.3,128,63.2,127.6z M63.4,129.1c0.4,0.6,0.7,1.3,1,1.9c0-0.7,0.1-1.4,0.2-2
			C64.2,129,63.8,129.1,63.4,129.1z M63.2,130.3c-0.3-0.2-0.9-0.3-1.1,0.1C62.2,130.8,63.4,130.8,63.2,130.3z M67.2,135.3
			c-0.5,0-0.9,0.1-1.4,0.1c0-0.1-0.1-0.2-0.2-0.3c-0.1,0.1-0.3,0.2-0.4,0.2c-0.1-0.1-0.2-0.4-0.3-0.5c-0.4,0.2-0.7,0.3-1.1,0.5
			c1.1,0.5,2.4,0.7,3.6,0.9C67.3,136,67.2,135.7,67.2,135.3z"/>
	</g>
	<path class="st0" d="M231.4,120.2c0.1,0.4,0,0.5-0.5,0.4C230.7,120.1,230.9,120,231.4,120.2z"/>
	<path class="st0" d="M228.7,119.1c0.2,0.1,0.5,0.3,0.7,0.4c0,0.4,0.1,0.8,0.1,1.2c0.2-0.2,0.4-0.3,0.6-0.5c0.3,0.3,0.6,0.6,0.8,0.9
		c-0.2,0.2-0.5,0.4-0.7,0.7c-0.8-0.2-0.5,1.2-1.1,1.5c-0.1-0.2-0.3-0.7-0.3-0.9c-0.5-0.3-1.1-0.9-0.5-1.4c-0.3,0-0.6-0.1-0.9-0.1
		c0-0.5,0-1,0-1.6c0.4,0.4,0.8,0.7,1.3,0.9C228.6,119.9,228.7,119.4,228.7,119.1z"/>
	<path class="st0" d="M214.9,119.3c-0.5-1,1-1.9,1.9-1.8C216.2,118.1,215.6,118.7,214.9,119.3z"/>
	<path class="st0" d="M221,122.8c0.3,0.1,0.5,0.8,0.1,1C220.8,123.6,220.6,122.9,221,122.8z"/>
	<path class="st0" d="M213.4,121c0-0.8,0.6-1.7,1.4-1.9C214.3,119.7,213.9,120.4,213.4,121z"/>
	<path class="st0" d="M205.7,112.8c0.8-0.2,1.6-0.1,2.3,0.3C207.2,113.6,206.4,113,205.7,112.8z"/>
	<path class="st0" d="M222.4,132.6c0.4,0.2,0.7,0.3,1.1,0.5c-0.3,0.1-0.8,0.2-1.1,0.3c0.2,0.2,0.5,0.5,0.7,0.7
		c-0.3,0.4-0.8,0.6-1.3,0.9c-0.3-0.8,0-1.9,1-2C222.7,132.9,222.5,132.7,222.4,132.6z"/>
	<path class="st0" d="M209.5,119c0.4,0.6,0.7,1.3,0.8,2c0.1,0.1,0.3,0.2,0.4,0.3c-0.1,0.1-0.4,0.4-0.6,0.5
		C209.8,120.9,209.6,120,209.5,119z"/>
	<path class="st0" d="M216.9,132.2c0.1,0.1,0.4,0.2,0.5,0.2c-0.5,0.4-1,0.9-1.6,1.3c-0.1,0.3-0.1,0.7-0.2,1
		c-0.9,0.2-1.8,0.5-2.7,0.8c0-0.1-0.1-0.3-0.2-0.3c0.3-0.4,0.8-0.6,1.2-0.9C215.1,133.8,215.9,132.8,216.9,132.2z"/>
	<path class="st0" d="M221,136.3c0.4,0.4,0.5,0.8,0.3,1.2c-0.5,0.4-1.2,0.6-1.8,0.9c-0.1-0.4-0.2-0.8-0.3-1.3
		C219.8,136.8,220.4,136.6,221,136.3z"/>
	<path class="st0" d="M209.1,126.1c0,0.4-0.2,0.7-0.5,0.9c-0.2,0.2-0.3,0.5-0.5,0.7c-0.3-0.6-0.2-1.3-0.1-1.9
		c0.2,0.2,0.5,0.6,0.7,0.7C208.7,126.5,209,126.3,209.1,126.1z"/>
	<path class="st0" d="M197.7,115c0.4,0.1,0.5,0.3,0.3,0.7C197.6,115.6,197.5,115.4,197.7,115z"/>
	<path class="st0" d="M195.9,118.3c0.4,0.1,0.6,0.9,0.1,1.1C195.6,119.2,195.5,118.4,195.9,118.3z"/>
	<path class="st0" d="M204.2,128.9c0.1,0.6-0.9,1.4-1.5,1.4C203.1,129.7,203.6,129.1,204.2,128.9z"/>
	<path class="st0" d="M187.4,112.8c0.3,0.3-0.5,1-0.8,0.7C186.7,113.1,187,112.8,187.4,112.8z"/>
	<path class="st0" d="M182.8,111.1c0.5,0.2,0.4,0.5,0,0.8C182.4,111.6,182.4,111.3,182.8,111.1z"/>
	<path class="st0" d="M195.3,124.4c0.4,0.3,0.4,0.5,0,0.8C194.9,124.9,194.9,124.7,195.3,124.4z"/>
	<path class="st0" d="M182.1,112.8c-0.2-0.3,0.3-0.8,0.6-0.6C182.9,112.5,182.4,113,182.1,112.8z"/>
	<path class="st0" d="M193,123.7c0.1,0.4,0,0.6-0.5,0.4C192.4,123.6,192.5,123.5,193,123.7z"/>
	<path class="st0" d="M191.5,124.8c0.7,0.4,1.3-0.1,1.9-0.4c-0.3,0.5-0.8,0.9-1.2,1.4c-0.2,0.3-0.1,1.4-0.7,1.1
		c-0.1-0.1-0.4-0.2-0.5-0.3c0.4-0.5,0.8-0.8,1.2-1.2C191.9,125.3,191.7,125.1,191.5,124.8z"/>
	<path class="st0" d="M199.2,132.2c0.5,0.3,0.5,0.5,0,0.7C198.7,132.7,198.7,132.5,199.2,132.2z"/>
	<path class="st0" d="M184.5,117c0.8,1.2,1.3,2.5,2,3.7l-0.2,0.6C185.5,120,184.4,118.6,184.5,117z"/>
	<path class="st0" d="M180.3,117.7c0.1,0.1,0.3,0.4,0.5,0.5c-0.4,0.7-0.9,1.2-1.2,1.9c0-0.3,0-0.7,0-1c0.1-0.1,0.4-0.2,0.5-0.2
		C180.1,118.6,179.7,117.8,180.3,117.7z"/>
	<path class="st0" d="M182.3,120c-0.1,0.8,0,1.6,0.3,2.3c0.2,0.6,0.8,1.3,0.4,2c-0.3-0.6-0.5-1.3-0.7-2c-0.1-0.1-0.3-0.3-0.3-0.3
		c-0.1-0.5-0.1-0.9-0.2-1.4C181.9,120.4,182.2,120.2,182.3,120z"/>
	<path class="st0" d="M178.5,121.4c0,0.5-0.3,1.2-0.7,1.5C177.4,122.4,178,121.6,178.5,121.4z"/>
	<path class="st0" d="M167.3,110.8c0.4,0.2,0.4,0.4,0,0.6C166.8,111.1,166.9,110.9,167.3,110.8z"/>
	<path class="st0" d="M166.1,110.1c0.2,0.3,0.5,0.6,0.7,0.8c-0.7,0.4-1.5,0.8-2.2,1.1c-0.4,0.4-0.8,0.4-1.3,0.2
		C164.3,111.7,165.3,111,166.1,110.1z"/>
	<path class="st0" d="M178.2,123c0,0.1-0.2,0.4-0.2,0.6c-0.3,0-0.5-0.1-0.5-0.4C177.6,123.1,178,123.1,178.2,123z"/>
	<path class="st0" d="M166.9,113.1c0.2,0.4,0.1,0.6-0.4,0.6C166.3,113.3,166.4,113.1,166.9,113.1z"/>
	<g>
		<path class="st0" d="M160.1,119.8c1.9,0.3,3.9,0.8,5.3,2.2c0.1,0.3-0.2,0.5-0.5,0.7c-0.7-0.2-1.4-0.3-2.1-0.4
			c0.3-0.2,0.8-0.5,1.1-0.7c-0.6-0.3-1.3-0.6-1.9-0.8c1.2,0.4,0.7,2.3-0.6,1.8c-0.4,0.3-0.9,0.5-1.3,0.8c-0.6,0.1-1.2,0.4-1.9,0.2
			c0.8-0.7,1.8-1.1,2.8-1.4c-0.6-0.3-1.2-0.5-1.8-0.6c0-0.3,0-0.6,0-0.8c0.4,0,0.9,0,1.3,0c0,0.2,0.1,0.5,0.1,0.6
			c0.2-0.2,0.5-0.5,0.7-0.7c-0.5,0-0.9-0.1-1.4-0.1c-0.2-0.1-0.5-0.3-0.6-0.4c-0.3,0.2-0.5,0.5-0.8,0.7c0.1,0.1,0.4,0.4,0.5,0.6
			c-0.1,0.1-0.2,0.3-0.3,0.5c0.2,0.1,0.5,0.2,0.7,0.2c-0.5,0.5-1.2,0.9-1.8,1.2c-0.1-0.5,0.1-1,0.5-1.3c-0.5-0.4-0.5-1.4,0.3-1.4
			c0.2-0.4,0.5-0.8,0.7-1.2c-0.6,0.3-1.2,0.5-1.5,1.1c-0.2,0-0.7,0-0.9,0c0-0.3,0-0.7,0.1-1c0.9-0.1,1.8-0.5,2.7-0.6
			C159.8,119.2,160,119.5,160.1,119.8z M162,121.5"/>
	</g>
	<path class="st0" d="M157.8,121.5c0,0.4-0.1,0.8-0.4,1.1c-0.6-0.4-1.6-0.9-0.8-1.7C156.9,121.1,157.5,121.4,157.8,121.5z"/>
	<path class="st0" d="M155,121.4c0.4,0.5-0.9,1.3-1.2,0.7C154,121.7,154.6,121.5,155,121.4z"/>
	<path class="st0" d="M154.9,122.5c0.9,0,1.8,0.2,2.4,0.9c0.3,0.7-0.2,1.2-0.6,1.8c-0.2,0-0.6,0.1-0.8,0.1c-0.2,0.2-0.5,0.6-0.6,0.7
		c-0.1-0.4-0.2-0.7-0.3-1.1c0.1-0.2,0.2-0.4,0.4-0.6c0.2,0.2,0.5,0.6,0.7,0.8C156.4,124.1,155.4,123.2,154.9,122.5z"/>
	<path class="st0" d="M143.1,109c0.1,0.4,0,0.6-0.4,0.6C142.5,109.3,142.6,109.1,143.1,109z"/>
	<path class="st0" d="M153.2,122.1c0.5,0.2,0.9,0.4,1.4,0.6c-0.4,0.3-0.7,0.7-1.1,1.1c-0.1-0.1-0.4-0.3-0.5-0.4
		c-1,0.6-1.6,1.7-2.4,2.6c-0.2,0.7-0.3,1.5-0.8,2.1c0.3,1-0.8,2.1,0.1,2.9c-0.4,0.2-0.8,0.5-1.3,0.3c0.5-1.9,0.7-3.9,1.3-5.8
		C150.6,124,152,123.1,153.2,122.1z"/>
	<path class="st0" d="M154.5,123.9c0.4,0.2,0.4,0.4,0,0.6C154.1,124.2,154.1,124,154.5,123.9z"/>
	<path class="st0" d="M153.4,124c0.4,0.4,0.9,0.8,1.3,1.2c-0.5,0.1-1.1,0.2-1.6,0.3c-0.1-0.2-0.4-0.5-0.6-0.7
		c0.1-0.2,0.2-0.5,0.3-0.6C152.9,124.1,153.2,124,153.4,124z"/>
	<path class="st0" d="M151.1,125.4c0.4-0.2,0.8-0.4,1.1-0.6c0.2,0.2,0.5,0.6,0.7,0.9c-0.3,0.4-0.9,0.9-0.6,1.5c-0.5,0-1-0.1-1.4-0.3
		c0.4-0.4,1.2-0.7,1.1-1.4l-0.6,0.3L151.1,125.4z"/>
	<path class="st0" d="M150.9,127.6c0.4,0.1,0.9,0.2,1.3,0.3c-0.2,0.7-0.8,1.1-1.6,1.2c0.1,0.1,0.4,0.4,0.6,0.5
		c-0.4,0-0.8,0.1-1.3,0.1c0.1-0.5,0.2-1.1,0.3-1.6C150.3,128,150.7,127.7,150.9,127.6z"/>
	<path class="st0" d="M138.1,114.5c0.4,0.2,0.4,0.4,0,0.6C137.7,114.9,137.7,114.7,138.1,114.5z"/>
	<path class="st0" d="M137.8,115.6c0.4,0.2,0.4,0.4,0,0.6C137.4,116,137.4,115.8,137.8,115.6z"/>
	<path class="st0" d="M138,116.8c0.2,0.1,0.4,0.1,0.7,0.2c-0.2,0.5-0.2,0.9-0.3,1.4c0.3,0.1,0.5,0.2,0.8,0.3
		c-0.3,0.2-0.7,0.4-1.1,0.6c0.1-0.3,0.1-0.6,0.2-1c-0.4-0.1-0.8,0.1-1.2,0.1c0.2-0.1,0.6-0.4,0.7-0.5c-0.3-0.1-0.6-0.2-0.8-0.3
		C137.4,117.4,137.7,117.1,138,116.8z"/>
	<path class="st0" d="M136,115.7c0.2-0.4,1-0.3,1.1,0.1C136.9,116.2,136.2,116.1,136,115.7z"/>
	<path class="st0" d="M147,127.8c0.4,0.2,0.4,0.5,0,0.7C146.7,128.3,146.7,128,147,127.8z"/>
	<path class="st0" d="M126.8,117.1c0-0.5,0.9-0.5,0.9,0C127.7,117.7,126.8,117.7,126.8,117.1z"/>
	<path class="st0" d="M124,113.6c0.3,0.3-0.2,1.1-0.6,0.9C123.1,114.1,123.6,113.3,124,113.6z"/>
	<path class="st0" d="M121.3,113.5c0.4-0.3,0.7-0.6,1.1-0.8c0.1,0.9,0.3,1.9-0.4,2.6l-0.5-0.2l-0.2,0.2c0.2,0,0.5,0.1,0.7,0.1
		c0.5-0.9,1.6-0.3,2.3-0.1c-1,0.5-2,0.7-3.1,0.9c0.7,0.2,1.4,0.3,2.1,0.5c-0.6,0.1-1.2,0.1-1.9,0.1c-0.1,0.1-0.2,0.3-0.2,0.4
		c-0.9,0.2-1.8,0-2.7-0.2c0.3,0,0.8-0.1,1.1-0.1c0.2-0.4,0.9-0.7,0.3-1.2c0.3-0.1,0.8-0.1,1-0.4c-0.1-0.1-0.4-0.2-0.5-0.3
		c0.1-0.7,1.3-0.5,1.8-0.8c-0.1-0.3-0.3-0.7-0.4-1c-0.5,0.5-0.9,0.9-1.4,1.4c-0.7,0.3-1.4,0.7-2.1,1.1c-0.6-0.5-1-1.5-2-1.4
		c0-0.5-0.6-0.2-0.7-0.5c-0.3-0.5-0.7-1-1.1-1.5c0.9,0.2,1.9,0.6,2.3,1.5c0.4,0,0.8,0,1.2-0.1c-0.6-0.6-1.1-1.2-1.6-1.9
		c0.2,0,0.6-0.1,0.8-0.2c0.5,0.4,1.2,0.8,1.1,1.6c0.5-0.5,0.9-1.1,1.6-1.4c0.9,0.6-0.6,1.2-0.9,1.7c-0.1,0-0.4,0-0.6,0
		c-0.1,0.4-0.5,0.6-0.7,0.9c0.9,0.8,1.9-0.3,2.8-0.7c0.7-0.4,0.2-1.5,1-1.8c0.7,0.5-0.1,0.9-0.4,1.3L121.3,113.5z"/>
	<path class="st0" d="M112.6,122.1c1.1-0.4,2-1.7,3.2-1.3c-1,0.8-2.5,1.2-3.1,2.5C112.5,122.9,112.6,122.5,112.6,122.1z"/>
	<path class="st0" d="M107.6,117.3c0.9,0,1.9,0,2.8,0.2c-0.5,0.2-1,0.2-1.6,0.1c-2.3-0.2-4.5,0-6.8-0.3c-0.1-0.1-0.4-0.2-0.6-0.2
		c1.6-0.3,3.1,0.2,4.7,0c-0.5-0.8-1-1.6-1.6-2.3c0.4,0.1,0.9,0.2,1.3,0.3c0.2,0.4,0.3,0.7,0.5,1.1c0.3-0.3,0.7-0.5,1-0.8
		C107.6,116.1,107.9,116.7,107.6,117.3z"/>
	<path class="st0" d="M118.5,126.5c0.6,0.2-0.2,1-0.6,0.7C117.7,126.9,118.2,126.4,118.5,126.5z"/>
	<path class="st0" d="M115.3,126c0.8,0.1,1.6,0.3,2.4,0.5c-0.2,0.8-0.5,1.9-1.5,1.6c0.2-0.2,0.6-0.6,0.8-0.8c-1-0.4-2.1,0.2-3.2,0
		c0-0.1,0-0.4,0-0.5c-0.1,0.1-0.4,0.2-0.5,0.3c0-0.5,0-1,0.1-1.5C113.9,125.9,114.7,125.9,115.3,126z"/>
	<path class="st0" d="M103.6,120.4c0.6,0.2,0.1,0.8-0.3,0.5C102.8,120.8,103.3,120.1,103.6,120.4z"/>
	<path class="st0" d="M106.3,125.6c1.2,0.4,2.5,0.7,3.4,1.5c-0.9,0.4-1.6-0.2-2.4-0.4c-1.1-0.3-2-1.1-3.1-1.5c0-0.1-0.1-0.4-0.1-0.6
		c-0.5,0.1-1,0.1-1.5,0.2c-0.4,0.3-0.8,0.6-1.3,0.8c0.1-0.7,0.3-1.5,0.4-2.2c0.9,0.2,1.9,0.4,2.8-0.1c0.1,0.1,0.3,0.3,0.4,0.5
		l0.3-0.2C105.5,124.3,105.8,125.1,106.3,125.6z"/>
	<path class="st0" d="M97.3,117c1,0,1.9,0,2.8,0.4c-1.1,0.1-2.2-0.1-3.4-0.1c-0.2-0.3-0.3-0.7-0.5-1c0.3,0.3,0.7,0.3,1.1,0.1
		C97.3,116.5,97.3,116.8,97.3,117z"/>
	<path class="st0" d="M92.9,116.6c1.2-0.2,2.3,0.1,3.5,0.4C95.2,117.1,94,116.9,92.9,116.6z"/>
	<path class="st0" d="M102.8,125.4c0.1,0.4-0.1,0.6-0.5,0.4C102.2,125.4,102.4,125.3,102.8,125.4z"/>
	<path class="st0" d="M90.5,113.5c0.5,0.3,0.4,0.5,0,0.8C90,114,90,113.7,90.5,113.5z"/>
	<path class="st0" d="M89.4,113.6c0.1,0.2,0.4,0.6,0.5,0.8c-0.1,0.4-0.3,0.9-0.5,1.3c-0.4-0.3-0.9-0.7-1.3-1
		c-0.2,0.2-0.5,0.3-0.5,0.6c0.5,0.3,1.1,0.6,1.6,1c-0.6-0.2-1.2-0.3-1.9-0.3c-0.3-0.7-0.9-1.3-1.7-1c-0.1-0.5-0.1-1-0.2-1.5
		c0.4,0,0.9,0,1.3,0.1c0.1,0.4-0.4,0.4-0.6,0.5l0.1,0.5C87.2,114.1,88.3,113.8,89.4,113.6z"/>
	<path class="st0" d="M94,122.5c0.3,0.3,0.2,0.5-0.3,0.6C93.4,122.7,93.5,122.6,94,122.5z"/>
	<path class="st0" d="M57.4,129.5c0.1,0.4,0.3,0.8,0.4,1.2c-0.3,0.2-0.6,0.4-0.9,0.6C57,130.6,56.8,129.9,57.4,129.5z"/>
	<path class="st0" d="M50.6,127.2c0.2,0.3,0.5,0.5,0.7,0.8c-0.3,0.5-0.5,0.9-0.9,1.3C50.1,128.7,50.1,127.9,50.6,127.2z"/>
	<path class="st0" d="M45.7,129.4c0.5,0.1,0.2,0.8-0.2,0.7C45,130.1,45.3,129.3,45.7,129.4z"/>
	<path class="st0" d="M44.5,128.5c0.2,0.4-0.8,0.9-1,0.5C43.6,128.6,44.1,128.3,44.5,128.5z"/>
</g>
</svg>
