<?xml version="1.0" encoding="utf-8"?>
<!-- Generator: Adobe Illustrator 26.0.3, SVG Export Plug-In . SVG Version: 6.00 Build 0)  -->
<svg version="1.1" id="Слой_14" xmlns="http://www.w3.org/2000/svg" xmlns:xlink="http://www.w3.org/1999/xlink" x="0px"
	 y="0px" viewBox="0 0 239.5 150.2" style="enable-background:new 0 0 239.5 150.2;" xml:space="preserve">
<g>
	<path d="M201.5,108.1c-0.2,0.1-0.4,0.3-0.5,0.4c-0.5-0.1-1-0.2-1.4-0.2c-6.3-0.1-12.7,0-19-0.2c-4.6-0.1-8.6-1.7-12.2-4.6
		c-0.7-0.6-1.5-1.2-2.3-1.8c-2.3,2.8-5.6,4.8-9.4,5.6c-2.7,0.6-5.6,0.8-8.4,0.8c-5,0.1-10,0-15,0c-0.3,0-0.6-0.1-0.8,0
		c-0.6,0.4-0.9,0-1.4-0.4c1.2-0.1,1.5-1,2-1.8c2.1-3.3,4.1-6.6,6.2-9.8c1.2-1.9,2.6-3.2,4.3-4.3c-0.2-0.2-0.4-0.3-0.5-0.4
		c-4.8-3.1-9.4-6.4-13.4-10.4c-3.2-3.1-5.6-6.8-7.4-10.9c-0.4-1-1-1.8-1.4-2.8c-0.1-0.2,0.1-0.6,0.3-0.7c0.2-0.1,0.6-0.1,0.9-0.1
		c5.1-0.2,10.1,0.3,15.1,1.4c0.2,0,0.4,0.1,0.6,0.1c0.1,0,0.2,0,0.3,0c-0.1-1.6-0.3-3.1-0.3-4.6c-0.1-4.2,0.4-8.4,1.3-12.6
		c0.2-0.8,0.3-1.6,0.3-2.3c0-0.6,0.3-0.6,0.7-0.4c0.3,0.1,0.6,0.3,0.8,0.5c4.3,3.1,8.5,6.3,12.1,10.3c0.2,0.2,0.4,0.5,0.6,0.7
		c0.2,0.2,0.3,0.4,0.5,0.5c4.1-7.4,8.2-14.8,12.3-22.1c0.1,0,0.3,0,0.4,0c4,7.4,8.4,14.6,12.2,22.3c0.7-0.8,1.3-1.5,2-2.3
		c3.4-3.7,7.4-6.6,11.4-9.5c0.2-0.2,0.5-0.3,0.8-0.4c0.2,0,0.5,0.2,0.5,0.4c0.4,2,0.7,4.1,1,6.1c0.7,4.3,0.8,8.7,0.2,13.1
		c0,0.1,0,0.3,0,0.6c0.8-0.2,1.5-0.3,2.2-0.4c4.6-0.9,9.2-1.3,13.9-1.1c0.3,0,0.6,0,0.8,0.2c0.2,0.1,0.3,0.5,0.2,0.6
		c-0.9,1.8-1.8,3.6-2.8,5.5c-2.1,4.2-5,7.7-8.7,10.6c-3.5,2.8-7.1,5.3-10.6,7.9c-0.3,0.2-0.5,0.4-0.8,0.6c3.7,2.5,5.5,6.4,7.8,9.9
		c1.1,1.8,2.2,3.6,3.4,5.3C200.6,107.6,201.1,107.8,201.5,108.1z M166.6,39.1c-2,3.7-4.1,7.3-6,11c-1.9,3.4-3.7,6.9-5.5,10.3
		c-0.3,0.5-0.2,0.8,0.1,1.2c0.8,1.1,1.5,2.2,2.2,3.3c3.5,5.7,6.3,11.7,7.9,18.2c0.9,3.6,1,7.2,1,10.9c0,0.5,0.1,1.1,0.1,1.6
		c0.1,0,0.2,0,0.3,0c0-0.7,0-1.4,0-2.2c0.2-3.1,0.2-6.2,0.8-9.3c1.7-7.7,5-14.8,9.5-21.3c1-1.5,1.1-2.6,0.2-4.1
		c-2.6-4.5-5-9.1-7.5-13.6C168.7,43.2,167.6,41.2,166.6,39.1z M121.9,67.4c0.5,1.1,1,2.2,1.5,3.2c1.6,3.6,3.7,6.8,6.5,9.6
		c3.4,3.5,7.3,6.4,11.4,9.2c4.7,3.2,9.6,6.1,15.1,7.9c1.6,0.5,3.3,0.9,4.9,1.4c-1.3-1-2.6-1.7-3.9-2.5c-10-6.2-16.3-15-19-26.4
		c-0.1-0.6-0.4-0.8-0.9-0.9c-3.5-0.8-7-1.4-10.6-1.5C125.3,67.3,123.7,67.4,121.9,67.4z M211,67.5c-0.2,0-0.3,0-0.4,0
		c-5.1-0.2-10.1,0.3-15.1,1.5c-0.6,0.1-0.9,0.4-1,1c-0.8,3.7-2.1,7.1-3.9,10.4c-3.7,7.1-9.2,12.4-16.1,16.4c-1,0.6-2,1.2-3.2,1.9
		c0.4,0,0.5,0,0.7-0.1c2.4-0.7,4.9-1.3,7.2-2.2c8.9-3.7,16.5-9.2,23.5-15.7C206.5,77,208.9,72.4,211,67.5z M133.2,107.4
		c1,0,2.1,0,3.1,0c5.1-0.1,10.2-0.1,15.3-0.2c4.6-0.1,8.8-1.5,12.3-4.4c0.8-0.6,1.4-1.5,2.2-2.3c-0.7-0.2-1.2-0.4-1.6-0.5
		c-6.9-1-13.3-3.4-19.2-7.1c-0.6-0.4-1.2-0.3-1.7,0.2c-1.1,1.1-2.3,2.1-3.2,3.3C138,100,135.6,103.7,133.2,107.4z M167.1,100.3
		c0,0.1-0.1,0.2-0.1,0.3c0.7,0.7,1.2,1.5,2,2.1c3.4,2.8,7.4,4.3,11.8,4.5c5.1,0.2,10.2,0.2,15.3,0.2c1.2,0,2.4,0,3.6,0
		c0,0,0-0.1,0-0.1c-2.1-3.3-4.2-6.6-6.4-9.9c-1-1.5-2.3-2.8-3.6-4.1c-0.9-0.9-1.3-0.9-2.5-0.2c-5.3,3.2-11,5.5-17.1,6.5
		C169.1,99.9,168.1,100.1,167.1,100.3z M182.2,72.9c0.3-0.1,0.4-0.1,0.5-0.2c3.3-1.8,6.9-3.1,10.5-4.1c0.6-0.1,0.6-0.5,0.7-0.9
		c0.7-4.9,0.4-9.8-0.5-14.6c-0.2-1.2-0.5-2.4-0.7-3.8c-0.8,0.6-1.5,1.1-2.1,1.6c-3.4,2.5-6.6,5.2-9.5,8.3c-1.2,1.3-1.7,2.3-0.9,4.2
		C181.6,66.3,182.1,69.5,182.2,72.9z M140.2,49.2c-0.1,0.7-0.2,1.3-0.3,1.9c-1.2,5.4-1.6,10.8-0.9,16.3c0.1,0.7,0.3,1,1,1.3
		c3.1,1.1,6.1,2.3,9.1,3.4c0.5,0.2,1,0.5,1.5,0.7c0.1-0.2,0.1-0.2,0.1-0.3c0.2-3.8,1.1-7.4,2.6-10.9c0.1-0.3,0-0.8-0.2-1.1
		C149.6,56.1,145,52.7,140.2,49.2z M193.7,69.5c-0.3,0.1-0.5,0.1-0.6,0.1c-3.5,1-6.8,2.3-10,4c-0.6,0.3-0.8,0.6-0.8,1.3
		c-0.1,3.5-0.7,6.8-2.5,9.8c-2.5,4-5.1,8-7.7,11.9c-0.2,0.3-0.5,0.6-0.7,0.9C183,91.6,190.6,82.5,193.7,69.5z M161.5,97.5
		c-2.1-3.2-4.2-6.4-6.4-9.6c-2.7-4.1-4.4-8.4-4.4-13.4c0-0.3-0.3-0.7-0.6-0.8c-1.8-0.9-3.7-1.8-5.6-2.6c-1.6-0.7-3.3-1.1-5.2-1.8
		C142.3,82.4,149.9,91.5,161.5,97.5z M165,99c0.4-3.1,0.3-4.8-0.6-7.8c-1.8-5.8-4.5-10.9-9.5-14.6c-1-0.7-2-1.4-3.2-2.2
		c0,0.3-0.1,0.4-0.1,0.5c0.1,2.8,0.5,5.6,1.9,8.1c1.7,3,3.5,6,5.4,8.9c1.3,1.9,2.7,3.7,4.2,5.5C163.6,98.1,164.3,98.4,165,99z
		 M167.9,98.9c0.5-0.3,0.9-0.4,1.2-0.7c0.8-0.8,1.7-1.6,2.4-2.6c1.7-2.4,3.4-4.8,5-7.3c1.7-2.7,3.5-5.4,4.2-8.6
		c0.4-1.6,0.5-3.3,0.8-5.1C172.1,79.1,166.6,91.7,167.9,98.9z M165.1,90.1c-0.6-10.5-5.1-19.5-10.8-28.1c-0.2,0.3-0.3,0.3-0.3,0.4
		c-1.4,3.3-2.2,6.8-2.4,10.4c0,0.6,0.3,0.8,0.7,1.1c4.6,2.7,8.3,6.2,10.6,11.1C163.7,86.6,164.4,88.4,165.1,90.1z M178.7,62.2
		c-5.7,8.5-10.3,17.4-10.9,27.9c0.2-0.2,0.3-0.5,0.4-0.8c2.1-6,5.5-11.1,11-14.4c1.8-1.1,2.2-2.2,1.9-4.2
		C180.7,67.7,180,64.9,178.7,62.2z"/>
	<path d="M166.2,108.8c1,0,1.7,0.6,1.7,1.4c0,0.9-0.9,1.6-2,1.6c-0.9,0-1.5-0.6-1.5-1.5C164.5,109.4,165.3,108.8,166.2,108.8z"/>
	<path d="M168.5,29.5c0,1-0.6,1.7-1.4,1.7c-0.9,0-1.6-0.6-1.6-1.3c0-1,0.7-1.6,1.7-1.6C168,28.4,168.5,28.9,168.5,29.5z"/>
	<path d="M166.5,117.6c0.6,0,1.1,0.6,1.1,1.3c0,0.5-0.8,1.2-1.4,1.2c-0.8,0-1-0.6-1.2-1.2C164.9,118.3,165.8,117.6,166.5,117.6z"/>
	<path d="M167.3,127.8c-0.1,0.6-0.4,1.1-1.1,1.1c-0.9,0-0.8-0.8-1-1.3c-0.1-0.5,0.6-1.1,1.1-1C167,126.7,167.2,127.2,167.3,127.8z"
		/>
	<path d="M167,23.2c-0.5,0-0.9-0.3-0.8-1c0-0.5,0.2-1.1,0.9-1c0.4,0.1,1,0.5,1,0.8C168,22.6,168,23.4,167,23.2z"/>
</g>
</svg>
