<?xml version="1.0" encoding="utf-8"?>
<!-- Generator: Adobe Illustrator 26.0.3, SVG Export Plug-In . SVG Version: 6.00 Build 0)  -->
<svg version="1.1" id="Слой_11" xmlns="http://www.w3.org/2000/svg" xmlns:xlink="http://www.w3.org/1999/xlink" x="0px"
	 y="0px" viewBox="0 0 239.5 150.2" style="enable-background:new 0 0 239.5 150.2;" xml:space="preserve">
<path d="M224.5,88.8c-0.2-0.9-0.4-1.9-0.8-2.8c-0.6-0.5-1.4-0.9-1.6-1.8c-1.2-2.5,0.1-5.3-1-7.8c-0.7-1.9-1.9-3.5-3.1-5.1
	c-1.4-1.8-2.9-3.5-4.9-4.5c-0.2,0.7-0.5,1.3-0.9,1.9c-0.7-0.5-1.5-0.9-2.3-1c0-0.1,0.1-0.3,0.2-0.5c1.3-0.5,3-0.8,3.4-2.2
	c0.8-3.3-1-7.3-4.3-8.3c-1-0.5-2.2,0-3.2-0.7c-1.8-0.9-4.1-0.6-5.8,0.5c-0.1,0.2-0.4,0.6-0.5,0.7c-1.6,0-3,1-4.3,1.9
	c-1.3,1-3.1,0.5-4.6,0.4c-1.4-0.1-3-0.2-4-1.4c-1.9-2.1-4-4.3-4.5-7.1c0.2-0.7,0.7-1.4,1.1-2c0.7,0.2,1,0.9,1.3,1.5
	c0.2,1.1,0,2.5,1.1,3.2c0.4,0,0.7,0.1,1.1,0.1c0,1,0.5,1.8,1.5,2c0,0.3,0.1,0.7,0.1,1c0.9,0,1.7-0.2,2.5-0.5c0,0.2,0.1,0.6,0.1,0.8
	c1.3,0.1,2.7,0.1,3.9-0.4c1-0.7,2.1-1.2,2.9-2c0.4,0.1,0.7,0.2,1.1,0.3c0.4,0.4,0.8,0.8,1.2,1.2c0.8-1.2,1.4-2.6,1.7-4
	c0.9-0.7,1.3-1.7,1.9-2.6c0.9-1.5,2-2.8,2.3-4.6c0.2-0.1,0.4-0.2,0.7-0.3c0.1-1.5,0.2-3,0-4.4c-0.3-1.6-1-3.2-1.9-4.5
	c0.1-0.1,0.2-0.4,0.3-0.6c-0.9-1.3-2.3-1.9-3.7-2.4c-0.3-1-0.8-1.9-1.3-2.8c-0.1,0-0.3-0.1-0.4-0.2c-0.1,0.2-0.2,0.6-0.3,0.8
	c-1.4-1.1-3-2-4.5-3c-0.7-0.6-1.5,0.1-2.2-0.3c-1.4-0.5-2.7-1-4-1.5c0,0.2,0,0.7,0,0.9c-2.1,0.4-4.3,0.1-6.3,0.7
	c-0.1,0.1-0.2,0.3-0.3,0.4c1.4,1.8,3.2,3.3,4.1,5.5c0.9,2.5,1,5.4-0.4,7.7c0-0.8,0.1-1.6,0.2-2.4c0.1-1.5-0.3-3-0.7-4.5
	c0.4,0.2,0.7,0.3,1.1,0.4c-0.1-0.2-0.3-0.6-0.4-0.8c-1-0.9-2-1.8-2.5-3c-0.9-1.8-3-3-5-2.7c-0.6,0.1-1.1,0.3-1.7,0
	c-3-1.1-6.9-0.2-8.5,2.7c0.8,0,1.5,0.1,2.3,0.2c-0.3,0.6-1,0.9-1.5,1.3c-0.5-0.1-1-0.2-1.5-0.3c-0.5-0.4-0.9-0.8-1.3-1.3
	c-0.1,0.6-0.2,1.2-0.1,1.7c-1.5,0.5-2.7,1.6-3.8,2.8c0.7-2.5,1.9-4.9,2.4-7.5c0.6,0,1.2-0.1,1.8-0.1c-0.5-0.7-1.4-1-2.1-1.3
	c-0.3,0.3-0.2,0.7-0.3,1.1c-0.9,0.1-1.7,0.5-2.5,1c0-0.7,0-1.3,0-2c2.3-1,5-1,7.4-0.3c-0.3-1.2-1.8-1.1-2.6-1.8
	c1.8-0.5,3.6,0.3,5.4,0.3c-0.3-0.6-1-0.8-1.5-1.2c1.1-0.1,2.1,0.4,3.1,0.7c-0.1-0.7-0.3-1.5-0.4-2.2c0.4,0.6,0.5,1.5,1.2,1.7
	c0-0.3,0-0.8,0-1.1c0.3,0.2,0.6,0.4,0.9,0.5c0,0.7-0.3,1.4,0,2c0.8-1.1,1.7-2.1,2.6-3.1c0.4,0.5,0.9,1.1,1.3,1.7
	c-1,1.1-2,2.2-2.6,3.5c1,0.1,2,0.1,3,0.4c0.6,0.2,1.2,0.7,1.8,0.8c0-1.7-0.9-3.2-1.6-4.7c0.5-0.4,1.1-0.8,1.6-1.2
	c0.3-0.8,0.5-1.6,0.5-2.4c-0.4,0.2-0.8,0.5-1.1,0.7c-0.1-0.1-0.3-0.2-0.4-0.3c-0.3,0.8-0.7,1.6-0.8,2.4c0.7-0.2,0.9-1.1,1.6-1.4
	c-0.1,0.9-1.1,1.2-1.7,1.9c-0.4-0.5-0.8-1.1-1.2-1.6c0.8-0.7,1.7-1.4,2.8-1.4c0-0.4,0-0.7,0-1.1c-1.2,0.6-2.2,1.3-3.2,2.1
	c-1.8-2-4.1-3.7-6.8-4c-0.2,0.2-0.4,0.3-0.6,0.5c2.1,0.1,4.1,1,5.6,2.5c-0.4,0.6-0.7,1.3-1,2c-0.6-0.1-0.7-1.1-1.4-1.1
	c0,0.2,0,0.6,0,0.8c-0.7-1.3-1.5-2.5-2.5-3.6c-0.2,0-0.5,0-0.7,0c1,1.5,1.8,3.2,2.2,5c-1.4-0.4-2.8-0.5-4.2-0.4
	c-0.1,0.2-0.2,0.5-0.2,0.7c-1.1,0-2.2,0.2-3.2,0.5c0,0.1,0,0.4,0,0.5c0.4,0.1,0.8,0.3,1.2,0.4c0,0,0,0.1,0,0.1c-1.4,0-2.9,0-4.2,0.5
	c-0.4,0.2-1,0.3-1.2,0.8c0.1,1.1,0,2.2,0.2,3.2c0.7-0.8,1.6-1.6,2.8-1.6c-0.6,3.3-2.7,6.3-2.6,9.7c0.1,0,0.3-0.1,0.4-0.1
	c0.5-2,2.1-3.8,4.1-4.3c0,0.7,0,1.5,0,2.2c0.4-0.1,0.8-0.3,1.2-0.5c-0.6,2.8-0.3,5.9,1.4,8.3c1.3,1.9,3.4,3,5.6,3.3
	c-0.6,1-1.2,2.1-2,3c0.1,0.1,0.3,0.3,0.4,0.4c1.7-1.4,3.7-2.4,5.1-4.2c0,1.3,0,2.7-0.3,3.9c-0.2,1-0.7,2-0.6,3.1
	c1.2-1.3,1.9-2.9,2.6-4.6c0,3.6-2.1,6.9-4.6,9.3c0.2,0,0.5,0.1,0.7,0.1c1.6-1.5,3.3-2.7,4.5-4.6c1.6-2.3,2-5.2,2.1-8
	c0.2,0,0.6,0.1,0.8,0.2c0.3,0.4,0.8,0.8,1.3,0.8c0.1-0.8,0.2-1.6,0.3-2.4c1.6-1.7,2.6-3.8,2.7-6.1c0.3-2.8-1-5.5-2.7-7.6
	c0.5,0,0.9,0,1.4,0.1l0-0.5c-1.3,0-2.7-0.5-3.2-1.6c2.4-0.2,4.7-0.2,7.1-0.7c1.2,0.2,2.3,0.8,3.4,1.1c0.5,0.3,0.9-0.5,1.4,0
	c1.5,1,3,2,4.5,3c0.3,0.3,0.7,0.3,1.1,0.2c0.2,0.6,0.4,1.3,0.6,2c0.7,0.2,1.6,0.3,2.2,0.8c0.2,0.8,0.8,1.4,1.3,2.1
	c1.4,2.2,2.3,5,1.8,7.7c-0.1-0.1-0.4-0.4-0.6-0.5c0.2,3-2.2,5.1-3.3,7.5c-0.3-0.2-0.6-0.3-0.9-0.4c0,1.7-0.6,3.3-1.3,4.8
	c-0.2-0.2-0.5-0.4-0.7-0.6c-0.5-0.3-1-0.7-1.6-0.6c-0.5,0.2-0.9,0.7-1.4,1.1c-0.3,0-0.6,0.1-0.8,0.1c-0.7,1.5-2.7,1.3-4,1.4
	c0-0.4-0.1-0.8-0.1-1.2c-0.8,0.3-1.6,0.8-2.6,0.8c0-0.2,0-0.7,0-0.9c-0.4-0.2-0.9-0.3-1.3-0.5c-0.3-0.5,0-1-0.1-1.6
	c-0.7,0-1.5,0.1-2-0.4c-0.3-0.9,0-1.9-0.5-2.8c-0.4-0.8-1-1.8-2.1-1.7c-0.4,0.9-0.8,1.7-1.2,2.5c0,2.1,1.3,3.9,2.6,5.5
	c1.2,1.4,2.3,3.1,4.2,3.6c1.2,0.2,2.4,0.3,3.7,0.4c1,0,2.2,0.2,3.1-0.4c0.9-0.6,1.8-1.4,2.9-1.8c1.2-0.5,2.5-0.4,3.7-0.3
	c0.3,0.1,0.6,0,0.8-0.3c-0.1,0-0.2,0-0.3,0c-0.4-0.3-0.9-0.5-1.3-0.6c0-0.1,0.1-0.3,0.1-0.4c1.5-0.5,3.2-0.6,4.7,0.1
	c-0.3,0.1-0.6,0.3-0.9,0.4c0,0.6,0.4,1.2,0.5,1.8c-1.1,0.5-2.3,0.8-3.4,1.2c-0.2,0-0.5,0.1-0.6,0.2l-0.2,0.1
	c-3.7,1.4-7.6,2.1-11.5,2.8c-0.4-0.1-0.8-0.1-1.2,0c-1.2-0.2-2.2-0.7-3.4-0.9c-1.8-0.2-3.7-0.4-5.6-0.1c-0.3-0.4-0.5-0.8-0.8-1.2
	c-1.4,0.6-2.6,1.5-4,1.9c0,0.1-0.1,0.4-0.1,0.5c1.6-0.1,3.1-0.5,4.7-0.6c0.8,1.3,1.8,2.4,2.8,3.6c1.9,2.2,3.7,4.7,6.3,6.2
	c3,2.2,6.4,3.9,8.7,6.9c3,4.1,5.4,8.6,7.8,13.1c-2.9,0.1-5.9,0.1-8.8,0c-5.9-0.5-11.7-1.6-17.3-3.6c-2.3-0.8-4.5-1.7-6.6-2.7
	c-0.7-2.7-1.2-5.4-1.9-8.1c-0.4-1.5-1.3-2.7-1.8-4.1c-0.4-1.1-0.5-2.3-0.7-3.5c-0.3-1-1.2-1.6-1.4-2.6c-0.2-0.7-0.5-1.5-1.1-2
	c-1.1-0.5-2.2,0.7-2.3,1.7c-0.3,1.9,0.5,3.9,2,5.1c0.1,1.4-0.1,2.8-0.5,4.1c-1.6-0.2-3.2-0.4-4.8,0.1c-0.6,0.1-1.2,0.4-1.7,0.1
	c-2-0.8-4-1.3-5.8-2.3c-0.7-0.3-1.1-1-1.5-1.5c-0.4,0-0.9,0.1-1.1,0.5c-0.7,1.1-0.9,2.6-0.4,3.8c-0.3,0-0.6-0.1-0.9-0.1
	c-0.3,1.2-0.5,2.8,0.6,3.7c1.2,0.9,2.5,1.7,3.3,3c0.4,0.5,0.6,1.3,1.3,1.6c0.1-0.8,0.1-1.6,0.1-2.3c0.7,0.2,0.6,1,0.9,1.5
	c0.7,1.3,2.3,1.5,3.4,2.3c1.5,1.1,2.8,2.4,3.8,3.9c-2.4-1.2-4.6-2.8-7.1-4.1c-1-0.3-2.2,0.2-3.2-0.1c-1.6-1.1-2.4-3-2.7-4.8
	c-0.1,0-0.4,0.1-0.6,0.1c0.4,2,0.5,4.1,0.6,6.1c0,0.5,0.3,0.9,0.6,1.2c1.2,1.3,2.7,2.4,3.8,3.8c0.1-0.2,0.3-0.3,0.4-0.5
	c-1.5-1.3-2.9-2.7-4.3-4.1c-0.1-1.1-0.1-2.2-0.1-3.2c0.7,0.8,1.2,1.8,2.2,2.1c1.1,0.2,2.3-0.4,3.3,0.2c1.9,1.1,3.8,2.3,5.7,3.4
	c0.9,0.5,1.6,1.1,2.6,1.4c-0.1-0.4-0.1-0.7-0.4-1c-1.5-1.9-3-3.9-5.1-5.1c-0.7-0.4-1.5-0.7-2.2-1.2c-0.6-0.5-0.7-1.2-0.8-1.9
	c1.9-0.5,3.8-0.7,5.7-0.9c3.2-0.5,6.4,0.5,9.1,2.2c0.3,0.2,0.7,0.1,1,0.1c-0.6-0.7-1.4-1.1-2.1-1.7c-1.7-1.2-3-2.9-3.7-4.8
	c-0.8,0-1.6,0-2.5-0.1c0,0.2,0.1,0.5,0.2,0.6c0.6,0,1.3,0,1.9,0c0.6,1.5,1.5,2.7,2.6,3.8c-1.5-0.5-3-0.8-4.6-0.9
	c-2.4,0.1-4.7,0.4-7,0.9c0.3-1-0.3-1.9-0.4-2.9c1.1-0.8,2.3-1.5,3.7-1.8c1.2,0.2,2.4,0.8,3.7,0.6c-0.5-0.9-1.6-0.4-2.3-0.9
	c1.6-0.5,3.4-0.3,5,0.1c0.5-2,0.7-4,0.5-6.1c-0.3,0-0.6,0.1-1,0.1c-0.9-1.3-1.2-2.8-1-4.3c0.6,0.3,0.7,1.1,1.3,1.3
	c0.4,0.2,0.7-0.2,1.1-0.3c0.4,0.8,1,1.5,1.3,2.3c0.3,1.2,0.3,2.4,0.7,3.6c0.4,1.2,1.1,2.3,1.5,3.5c0.8,2.6,1.3,5.2,1.9,7.8
	c0.1,0.5,0.1,1.1,0.7,1.3c6.6,3.2,13.7,5.2,20.9,6c4.9,0.5,9.9,0.4,14.8,0.1c1,0.2,2,0.5,2.9,1.1c2.9,1.7,4.9,4.6,5.9,7.8
	c-7.3-0.6-14.6-2-21.8-2.9c-4.1-0.6-8.2-0.6-12.2-1c-4.1-0.5-8.2-1.4-12.2-2.1c-1.9-0.4-3.9-0.5-5.8-0.8c-2.7-2.4-5.9-4.2-9.1-5.7
	c-0.6-0.2-1.1-0.6-1.8-0.5c-1,0.6-1,2.2-0.2,3c0.8,0.9,2,1.2,3.1,1.3c1.8,0.2,3,1.9,4.7,2.3c1.5,0.5,3.3-0.2,4.6,0.9
	c1.7,0.9,3.6,1.3,5.4,1.8c5.7,1.4,11.3,3,17.1,4.3c4.8,1,9.7,1.1,14.5,1.3c1.2,0.1,2.4,0.3,3.6,0.2c4.8,0.7,9.7,1.5,13.8,4.3
	c0.6,0.6,1.6,1.1,1.6,2c-3.2-0.9-6.6-0.6-9.8,0.3c0,0.2,0,0.4,0.1,0.7c1,0.8,1.8,1.7,2.9,2.4c-0.1,0-0.4,0.1-0.5,0.2
	c-1.5,0-2.9-0.2-4.4-0.1c-4.8-0.5-9.6-1.2-14.1-2.6c-2.2-0.7-4.2-2-6.2-3.2c-5.1-3.1-10.6-5.6-16-8.1c-1.7-0.8-3.5-1.4-5.3-2.1
	c-0.1,0.1-0.3,0.3-0.4,0.4c3.5,3.3,7.2,6.3,11.1,9.1c0.4,0.3,0.8,0.6,1.2,1c0.4,0.8,0.2,1.8,0.2,2.7c-4.2-0.2-8.3-1.5-12-3.6
	c-2-1.1-3.9-2.3-6.2-2.6c-1.6-0.2-3.2,0-4.7,0.2c-0.1-1-0.4-2-0.6-3c-0.6-2.5-1.1-5-2-7.4c-0.1,0.1-0.1,0.2-0.1,0.3
	c-0.2-0.6-0.3-1.3-0.8-1.7c0,0.2-0.1,0.7-0.1,0.9c-2.4-1.1-4.5-3.1-5.9-5.3c-0.5-0.8-1.2-1.5-2.2-1.8c-1.8-0.5-3.6-0.2-5.3,0.6
	c-0.5,0.2-1.1,0.8-1.7,0.4c-1.1-0.7-2.3-1.1-3.4-1.6c-0.2,0.2-0.4,0.5-0.6,0.7c-0.3-4.5-0.1-9.2,1.6-13.4c0.8-1.8,1.8-3.7,3.4-4.9
	c2-1.5,4.7-1.9,6.9-0.8c0.5,1.4,1.5,2.6,2.4,3.7c0.4,0.5,0.8,1.2,1.6,1.1c-0.6-1.1-1.3-2.3-1.8-3.5c-0.5-1-1.2-2-1.2-3.2
	c0-1.8,0.6-3.6,1.8-4.9c1.3-1.6,3.3-2.3,5.3-2.1c-0.9,0.7-1.6,1.6-2,2.6c-1,0.2-2.2,0.1-2.9,1c-0.8,0.8-0.9,1.9-0.8,2.9
	c0.3,0,0.7,0.1,1,0.1c2.1,0.5,3.6,2.2,4.6,4c0.3,0.5,0.6,1.1,1.2,1.3c-0.4-1.6-0.6-3.4,0.1-5c0.5-1.2,1.4-2.4,2.7-2.9
	c0.2,1.8,0.1,3.5,0.1,5.3c0.3-0.1,0.5-0.3,0.6-0.6c0.4-1.1,1.2-2.1,2-2.9c0.8-0.8,1.5-1.7,2.5-2.2c1.1-0.3,2.5,0,3.4-0.8
	c0.8-0.6,1.2-1.5,1.2-2.5c0.2-1.9,0.6-3.8,1.2-5.7c0.1-1.5,0.2-3.1,0.1-4.6c-0.3-0.5-0.8-0.9-1.3-1.4c-1.6-1.5-2.7-3.4-3.6-5.3
	c-1.6,0.7-3.3,1.3-5,0.8c-1.3-0.9-2.7-1.6-4.3-1.4c0,0.6,0,1.2,0.3,1.7c0.6,0,1.2-0.1,1.9,0c0.9,0.5,1.7,1.4,1.8,2.5
	c-0.1,0-0.4,0.1-0.5,0.2c0.1-0.8-0.6-0.8-1.2-0.7c-0.1,0.8,0.2,1.5,0.6,2.1c0.9,0.2,1.8,0,2.3-0.7c0.5,0.5,0.6,1.4,0.9,2.1
	c0.6,1.7,0.2,3.5,0.7,5.3c0.3,0.9,0.7,1.8,0.8,2.8c0.1,1.2-0.4,2.3-0.7,3.4c-0.8-0.3-1.6-0.5-2.5-0.7c-1.1-0.4-1.5-1.5-2-2.5
	c-1.3-2.5-2.7-4.9-4-7.4c-0.9-1.6-0.4-3.5-0.9-5.3c-0.4-1.5-1.1-2.9-2-4.2c-0.3-2.1-0.6-4.2-0.9-6.2c-0.1,0-0.3,0.1-0.5,0.1
	c-0.3,3.8-0.2,7.6-0.3,11.5c0,0.4,0.1,1.1-0.6,1.1c0,1.6,0.1,3.1,0.2,4.7c-0.1,0.4-0.9,0.2-0.7,0.8c0,3.1-0.6,6.2-1.5,9.1
	c-0.7,0.3-1.2,0.9-1.8,1.4c0.6-4.9,0.2-9.9,1.8-14.6c-0.1,0-0.4-0.1-0.5-0.2c0.8-3.6,1.6-7.2,1.9-10.8c0-0.1,0-0.4-0.1-0.6
	c-0.8,0.7-1.1,1.8-1.9,2.5c0.8-2.4,1.8-4.7,2.8-7c0.3,0.1,0.7,0.2,1,0.4c0-2.4,1-4.6,1.9-6.7c0.8-1.7,1.6-3.4,2.8-4.8
	c0.7-0.8,1.5-1.5,2.6-1.8c4.1-1,8.5-1.6,12.7-1.1c0.2-0.2,0.4-0.3,0.6-0.5c-4.4-0.5-8.9,0-13.3,1.1c-1.1,0.3-2.1,0.9-2.8,1.8
	c-1.9,2.3-3.1,5.2-4.2,8c-0.4,1-0.6,2.1-0.8,3.2c-0.2,0-0.6-0.1-0.8-0.1c-1.2,3.2-2.6,6.4-3.8,9.7c0.1,0,0.4,0,0.5,0
	c0.8-0.9,1.3-1.9,2.1-2.7c-0.5,3.8-1.1,7.6-2.3,11.2c0.1,0.1,0.4,0.3,0.6,0.4c-0.8,3.9-0.8,8-1.1,11.9c-0.1,0.7-0.1,1.3,0,2
	c0.6-0.5,1.2-1.1,1.7-1.7c0,0.4,0,0.9,0.6,0.9c1.2-3.4,2-7,2.1-10.6c0.2,0,0.6,0,0.8,0c0-1.2,0-2.4-0.2-3.7c0.1-0.2,0.3-0.5,0.4-0.7
	c0.4-3.4-0.1-6.9,0.4-10.4c0.2,1.1,0.1,2.2,0.7,3.2c0.9,1.4,1.5,3,1.8,4.6c0.1,1.6,0.1,3.4,1,4.9c1.5,2.7,2.9,5.4,4.4,8.1
	c0.3,0.7,1,1.1,1.6,1.6c1.1,0.2,2.2,0.6,3.3,1c0-1.5,0.9-2.8,0.7-4.2c0-1-0.5-1.9-0.8-2.8c-0.5-1.8-0.1-3.7-0.8-5.4
	c-0.4-1.8-1.5-3.3-2-5c1.1,0,2.3,0.1,3.3-0.4c0.4-0.1,0.7-0.4,1.2-0.3c1.1,2.2,2.6,4.3,4.5,5.9c0.1,1.6,0,3.2-0.2,4.7
	c-0.6,1.9-0.9,3.8-1.1,5.8c-0.1,1.3-1.3,2.2-2.5,2.3c-0.6,0-1.2,0-1.8,0.1c-1.8,1-2.9,2.7-4.4,4.1c0-1.1,0-2.2-0.2-3.3
	c0.9-0.9,2.4-0.6,3.6-0.7c-0.5-1-1.8-1.2-2.7-1.7c-0.8-0.3-1.5-0.9-2.4-0.8c0.3,0.9,0.6,1.8,0.9,2.7c-2.3,1.2-3.6,3.8-3.6,6.4
	c-0.8-0.8-1.4-1.7-2.3-2.4c-0.9-0.7-2-1.1-3.1-1.3c0-0.6,0.1-1.3,0.6-1.8c0.7-0.9,1.9-1,2.9-1c0.6-0.8,0.8-1.8,1.7-2.4
	c0.7-0.6,1.6-0.4,2.5-0.5c-0.3-1.1-1.9-0.8-2.8-0.9c-4.6-0.3-8.2,4.7-7,9c0.3,0.8,0.8,1.5,1.1,2.3c-0.7-0.6-1.1-1.5-1.4-2.3
	c-1.5-0.6-3.3-0.8-4.9-0.4c-2.3,0.5-4.1,2.3-5.2,4.3c-2.9,4.8-3.1,10.6-2.8,16c0.3,1.2-0.4,2.3-0.6,3.4c-1.2,4.8-1.1,9.9-0.2,14.8
	c0.9,4.2,2.5,8.3,4.2,12.2c0.4,0.8,0.9,1.8,1.8,2.1c0.6-0.8,1.1-1.8,1.6-2.8c-0.1-1-0.7-1.9-1-2.8c-2-5.3-3-11.1-2.8-16.8
	c0.5,0.6,0.9,1.3,1.5,1.9c2.2,2.3,5.3,3.4,8.2,4.3c3.3,0.9,6.6,1.8,10,2c0.9,4,1.2,8.2,1.1,12.3c-1.4-0.4-2.8-0.9-4.2-1.3
	c-2.7-1.1-5.5-2.1-8-3.7c-0.6-0.4-1.1-0.7-1.7-0.9c-0.4,1.3-0.7,2.7-0.4,4c0.5,2.3,1.1,4.6,2.2,6.7c-2.6,0.3-4.5-1.6-6.7-2.4
	c0,0.6,0,1.2,0.4,1.6c0.8,0.7,1.9,1.2,2.8,1.7c2.1,1.1,4.3,2,6.5,2.8c-1.8,3.4-2.7,7.3-2.7,11.2c0,3.6,0.1,7.3,0.7,10.8
	c0.1,0.6,0.2,1.3,0.7,1.7c0.2-3.2,0.3-6.5,0.4-9.8c0.4-3.4,0.5-6.9,1.8-10.1c0.5-1,0.9-2,1.7-2.8c2.1-0.1,4.1,0.2,6.2,0.6
	c0,3.4-0.4,6.8-1.2,10.1c-0.8,3.9-1.9,7.6-3.2,11.3c0.1,0,0.4-0.1,0.6-0.1c0.7-1.8,1.3-3.6,1.8-5.5c1.4-5.1,2.6-10.4,2.6-15.8
	c3.9,0.7,7.9,0.8,11.9,0.3c2.8-0.1,5.5-0.6,8.3-1c-0.1,3.1,0.2,6.2,0.7,9.2c0.3,2.2,0.9,4.3,1.6,6.3c0.3,1,0.7,2.1,1.7,2.6
	c0-0.8-0.4-1.5-0.6-2.3c-0.8-2.2-0.8-4.5-1.2-6.7c-0.1-3.5-0.1-7.1-0.2-10.6c1.9,0.4,3.8,0.5,5.7,0c2.1-0.4,4-1.8,6.3-1.6
	c1.6,0.1,3.1,1,4.2,2.2c1.2,0.7,2.8,1,3.4,2.5c0.6,0,1.1,0,1.7,0c0.3-0.5,0.5-1.1,1-1.5c0.6-0.3,1.2-0.7,1.6-1.2
	c-0.2-0.5-0.5-1-0.7-1.5c0.2-0.6,0.8-1,1.3-1.4c-0.1,0.6-0.2,1.2-0.3,1.8l0,0.1c-0.5,4.6,0,9.2,0.2,13.8c0.1,3.5,0.3,7,1.5,10.2
	c-1.6-1-2.8-2.6-3.8-4.2c-2.6-4.2-3.1-9.4-2.9-14.3c-0.1,0-0.4,0-0.6,0c-0.1,3,0,6.1,0.7,9c0.9,4.1,3.2,8,6.8,10.3
	c0.3,0.2,0.6,0.3,0.9,0.4c-0.2-1-0.7-1.8-1-2.8c-1.1-3.7-1-7.5-1.2-11.3c-0.2-3.2-0.3-6.4-0.2-9.7c0.2-3,0.8-5.9,2.1-8.6
	c-0.8-0.6-1.7-1.1-2.6-1.3l-0.1-0.5c2.7,0.1,5.3,0.3,8-0.2c2.4-0.2,4.8-0.1,7.1-0.7c1.8-0.7,3.2-2.3,3.2-4.2
	c0.3,0.1,0.7,0.3,1.1,0.3c0.7-2.1,0.8-4.4,1.1-6.6c0.3-3.3,0.5-6.6,0.7-9.9C225.6,92.6,224.9,90.7,224.5,88.8z M180.7,27.4
	c-1-0.4-2.1-0.7-3.2-0.8c0.5-0.8,1.1-1.8,1.9-2.3C180.1,25.2,180.5,26.3,180.7,27.4z M176.6,20.5c0.3,0.4,0.6,0.7,0.9,1.1
	c-0.6,0.5-1.1,1.1-1.6,1.7C176,22.4,176.1,21.4,176.6,20.5z M176.8,29.2c0.1,1.5,0.7,2.9,0.7,4.4c-0.6-1.1-1.9-2-1.7-3.5
	C176,29.7,176.4,29.4,176.8,29.2z M177.6,39.2c-0.8-0.1-1-1.1-1.3-1.7c-0.3-1-0.1-2.6,0.9-3.1C177.9,36,177.9,37.6,177.6,39.2z
	 M169.3,30.2c1.7-2.1,4.6-2.2,7.1-1.8c-0.6,0.8-1.5,1.4-1.2,2.5c-0.6-0.3-1.2-0.7-1.9-0.5c-0.6,0.1-1.2,0.4-1.8,0.5
	C170.7,30.6,170,30.4,169.3,30.2z M171.3,31.6c0.9,0.5,1.3,1.5,1.7,2.5c-1.1-0.6-2.2-1.1-3.4-1.1C169.8,32.3,170.6,31.7,171.3,31.6z
	 M168.6,41.9c-0.9-1.8-1.2-3.9-0.9-5.8c0.1-0.8,0.3-1.6,0.3-2.4c-0.5,0.3-0.9,0.6-1.4,0.9c0-0.6,0-1.2,0-1.8
	c0.8-0.1,1.6-0.1,2.3-0.2c0,0.2-0.1,0.6-0.1,0.8c1.9,0.2,4.1,0.7,4.9,2.6c0.1,0,0.4-0.1,0.6-0.1c-0.6-1.7-1.1-3.4-2.4-4.7
	c0.8-0.1,1.7-0.3,2.6-0.1c1.2,0.5,1.4,1.8,2.2,2.7c-0.3,0.8-1,1.6-0.9,2.5c-0.2,1.2,0.4,2.3,1.2,3.2c0.5,0.3,0.2,0.9,0.1,1.3
	c-0.6,1.7-1.6,3.3-2.3,5C172.1,46,169.7,44.2,168.6,41.9z M176.9,42.6c-0.1,0.9-0.2,1.8-0.3,2.7c-0.4,0.1-0.8,0.3-1.2,0.4
	C175.9,44.7,176.4,43.6,176.9,42.6z M174.2,48c0.2-0.5,0.5-1,0.8-1.6c0.7-0.3,1.4-0.5,2.1-0.7C176.3,46.7,175.3,47.4,174.2,48z
	 M177.3,44.8c-0.3-0.5,0-1,0.1-1.5C177.8,43.6,177.8,44.7,177.3,44.8z M181.7,44c-0.2,3.5-0.6,7.2-3.1,9.9c-0.1,0.2-0.3,0.4-0.4,0.6
	c0-0.2,0.1-0.5,0.1-0.6c1.9-3.1,2-6.9,1.7-10.4c-0.1,0-0.4,0.1-0.6,0.1c0.1,2.3-0.5,4.6-1.5,6.6c0.4-2.7,0.6-5.5-0.2-8.2
	c-0.3-0.9,0.8-1.7,0.3-2.6c0.2-1.5,0.5-3.1-0.1-4.5c1,0.2,1.8,1,2.2,1.8C181.5,39,181.8,41.6,181.7,44z M183.6,45.2
	c-0.4,0-0.4-0.8,0-0.8C184.1,44.4,184.1,45.2,183.6,45.2z M184.9,42.4c-0.1,0-0.3,0.1-0.3,0.2c0-0.7,0-1.4,0.1-2
	c-0.1-0.2-0.3-0.5-0.4-0.7c0.1,0,0.3-0.1,0.4-0.1C184.8,40.7,185,41.6,184.9,42.4z M185.2,39.9c-0.1-0.3-0.3-0.6-0.4-0.9
	c-0.2-0.4-0.4-0.9-0.7-1.3c-0.1,0-0.4,0-0.6,0.1c0.2,0.9,0.3,1.8,0.2,2.8c-0.4,0.1-0.8,0.3-1.2,0.4c0.2,0.5,0.4,1,0.7,1.5
	c0.2,0.3,0.5,0.5,0.9,0.3c0.1,1-1.1,1.2-1.3,2.1c-0.2,0-0.5,0.1-0.7,0.1c0.3-0.7,0.2-1.6,0.2-2.3c-0.1-2.5-0.5-5.1-2.2-7
	c-0.6-0.8-1.6-1.1-2.4-1.7c0.3-0.3,0.5-0.7,0.4-1.1c-0.2-1.3-0.7-2.7-0.7-4c1.6-0.5,3.6-0.2,4.8,1.1c0.7,0.8,1.1,1.9,1.8,2.8
	c-0.1,0.8,0.5,1.3,0.8,2C185.3,36.3,185.5,38.1,185.2,39.9z M177.7,62.2c-0.2-0.5,0.9-0.9,1.1-0.3C178.7,62.3,178,62.5,177.7,62.2z
	 M153.1,83.1c-0.1,0.2-0.2,0.5-0.3,0.7c-0.7-0.6-1.2-1.5-2-2.1c-0.8-0.6-2-1.1-2.2-2.2c0-0.5-0.3-1.6,0.6-1.4c0,0.2-0.1,0.7-0.1,1
	c2,0.4,4,1.6,4.6,3.6C153.5,82.8,153.2,83,153.1,83.1z M155.2,82.5c-0.2,0-0.7,0-0.9,0c-0.7-1.3-1.6-2.5-3-3.1
	c-0.5-0.3-1.2-0.3-1.4-1c0.5,0.1,1,0.4,1.4,0.7c1.3,0.6,2.7,1.3,3.4,2.6C154.9,81.9,155.1,82.2,155.2,82.5z M157.1,77.6
	c-1,0.7-2.8,1-3,2.5c-1.3-1.3-3.2-1.6-4.5-3c-0.6-1.1-0.2-2.6,0.6-3.5c1.6,2.2,4.5,2.6,6.9,3.6V77.6z M165.2,68.2
	c-0.4-0.2-0.8-0.5-0.9-0.9c0.3-0.2,0.6-0.3,0.9-0.4C165.3,67.3,165.2,67.7,165.2,68.2z M160.7,94.6c-1.2-0.4-2-1.4-3.2-1.8
	c-1.3-0.5-2.8-0.5-3.8-1.4c-0.6-0.6-0.6-1.5-0.1-2.2c2,0.8,3.9,1.7,5.7,2.8c1.4,0.9,2.8,1.7,3.9,2.9
	C162.4,95.1,161.6,94.9,160.7,94.6z M159.9,46.5c-0.2,0-0.6,0-0.8,0c0.5-0.3,0.8-0.8,1-1.3c-0.4-1.1-1.1-2.1-2.2-2.6
	c-0.6-0.2-1.2-0.1-1.8-0.1c0-0.2,0-0.5,0-0.6c1.4-0.1,2.6,0.7,3.8,1.5c0,0.2,0,0.5-0.1,0.7C160.3,44.8,160.6,45.8,159.9,46.5z
	 M158.4,60c0.9,0.3,1.7,0.6,2.5,1.2c-0.7,0.2-1.3,0.4-2,0.5C158.7,61.1,158.6,60.5,158.4,60z M141.7,87.1c1.9-0.6,4.4-0.4,5.5,1.5
	c1.4,2.4,3.5,4.3,6,5.5c0.4,0.2,0.8,0.3,1.3,0.4c-0.3,0.8-0.1,1.8-0.1,2.6c0,1.8,0.1,3.6,0.1,5.5c-0.8-0.8-1.4-1.8-2.2-2.6
	c-3.2-4.1-6.8-7.9-11-10.8c-0.5-0.3-1-0.6-1.5-1C140.3,87.5,141.1,87.5,141.7,87.1z M153.7,104.3c-3.3-0.6-6.5-1.5-9.7-2.6
	c-3-1-5.8-3.1-7-6.2c-0.1,0-0.3,0-0.5,0c-0.4,6.3,0.6,12.7,2.9,18.6c0.3,0.8,0.8,1.6,0.9,2.5c-0.5,0.6-0.7,1.6-1.4,2
	c-0.7-0.8-1.1-1.8-1.5-2.8c-1.7-4.1-3.3-8.3-3.9-12.7c-0.6-4.3-0.5-8.6,0.6-12.8c0-0.5,0.5-0.8,0.8-1.2c-0.2-0.9,0-1.7,0.3-2.5
	c1.1,0.2,2.1,0.8,3.1,1.3c0.1,0.4-0.4,0.6-0.6,0.8c-0.9,0.6-1.5,1.4-2.4,2c-0.1-0.3-0.2-0.9-0.3-1.2c-0.2,0.2-0.3,0.4-0.5,0.7
	c0.2,0.5,0.3,1,0.5,1.5c1.6-0.7,2.5-2.7,4.3-3.2c4.9,2.9,8.8,7,12.3,11.4c1.2,1.4,2.1,2.9,3.5,4.2c0.2-2.3-0.3-4.6,0-7
	c0.5,2.5,1.1,5,1.7,7.5C155.7,104.7,154.7,104.5,153.7,104.3z M157.6,127.1c-2.1-0.3-4.2-0.8-6.4-0.6c-1.4,1.3-2.1,3.2-2.6,5
	c-0.9,3.8-1.1,7.7-1.4,11.6c-0.1,0.5-0.1,1.1-0.1,1.6c0,0.4,0,0.9-0.1,1.4c-0.2-2.4-0.4-4.8-0.4-7.2c-0.1-4.2,0.5-8.5,2.5-12.2
	c0.2-0.4,0.4-1.1-0.2-1.2c-3-1-6-2.3-8.7-3.9c-0.4-0.1-0.4-0.5-0.5-0.9c1.1,0.7,2.3,1.4,3.5,1.8c1.1,0.4,2.4,0.3,3.6,0.2
	c-1.6-2.2-2.2-4.9-2.7-7.5c-0.2-1,0-1.9,0.2-2.9c0.8,0.4,1.5,0.8,2.3,1.3c3.6,2,7.4,3.3,11.4,4.4
	C157.8,121.1,157.8,124.1,157.6,127.1z M157.7,106.9c-0.1-0.6-0.1-1.1-0.2-1.7c1.3-0.1,2.6-0.3,4-0.2c2.2,0.2,4.2,1.3,6,2.4
	c3.8,2.2,8.2,3.7,12.6,4c0.1,4.4-0.2,8.9-0.3,13.3c-5.2-2.5-10.7-4-16.2-5.6c-1.7-0.4-3.4-0.9-5.1-1.4
	C158.6,114.1,158.3,110.5,157.7,106.9z M179.6,136.2c-0.5-3.2-0.7-6.5-0.7-9.8c-3.3,0.4-6.6,0.8-9.9,1.2c-3.6,0.1-7.2,0.2-10.8-0.5
	c0.1-3,0.3-5.9,0.3-8.9c1.6,0.4,3.2,0.9,4.9,1.3c5.5,1.7,11.2,3.2,16.4,5.7c0.1,3.7,0.1,7.4,0.4,11.1L179.6,136.2z M213.2,67.6
	c2.1,1.3,3.7,3.3,5.1,5.2c0.9,1.4,1.9,2.7,2.3,4.3c0.5,1.5,0.1,3.1,0.2,4.7c0,0.9,0.4,1.7,0.6,2.6c-1.7-1.1-3.3-2.3-5.1-3.1
	c-0.4-2.4-0.4-4.8-1.1-7.2c-0.4-1.7-1.3-3.3-2.4-4.6C212.3,69,213.1,68.2,213.2,67.6z M212.3,69.6c1.1,1.2,2,2.7,2.4,4.3
	c0.8,2.5,0.7,5.2,1.1,7.7c2,0.9,3.9,2.1,5.5,3.5c-1.2,0-2.3,0-3.4,0c-3.7,0.3-7.6,1.9-9.3,5.4c0,0-0.1,0-0.2-0.1
	c-0.5-1-0.9-2.1-1.4-3.1c-0.3-0.5,0-1.1,0.1-1.6c0.8-2.4,0.9-5,0.2-7.4C208.5,75.2,210.3,72.3,212.3,69.6z M206.6,85.8
	c-0.5-0.4-0.5-1.1-0.6-1.7c-0.1-1.6,0.3-3.2,0.9-4.6C207.7,81.6,207,83.8,206.6,85.8z M212.1,60.1c0.8,1.5,1.1,3.3,0.6,5
	c-0.9,1.5-3,1.3-4.2,2.5c0,0.2,0.1,0.5,0.1,0.6c1,0.1,2,0.2,2.8,0.9c0.2,0.7-0.5,1.1-0.8,1.7c-1.6,2.1-2.7,4.5-3.8,6.8
	c-0.6-1.6-0.6-3.2-0.8-4.9c0-1,0.1-2,0.5-2.9c0.6-1.1,1.7-1.9,2-3.2c0.7-2.5,1.2-5.4,0-7.9c-0.3-0.7-1.1-1.1-1-1.9
	C209.6,57.3,211.3,58.4,212.1,60.1z M204.6,91c-2.1-4.1-4.4-8.1-7.1-11.8c-2.7-3.5-6.7-5.4-10.1-8c-2.9-2.4-5.1-5.6-7.5-8.5
	c2.4-0.4,4.9-0.1,7.3,0.7c1.3,0.5,2.8,0.4,4.1,0c1.8-0.3,3.5-0.8,5.3-1.1c2.5-0.6,4.9-1.6,7.4-2.3c0.8-0.2,1.6-0.5,2.2-1.1
	c-0.1-0.6-0.4-1.1-0.6-1.6c0.7-0.1,1.4-0.1,1.9,0.5c2.2,2.3,1.7,5.7,1,8.5c-0.3,1.6-1.9,2.6-2.3,4.1c-0.6,1.9-0.3,3.9,0.1,5.7
	c0.1,1,0.8,2,0.4,3c-0.5,1.5-1.1,3.1-1,4.7c0,1.1,0.4,2.1,0.7,3.1C205.8,88.3,205,89.6,204.6,91z M206.2,118.2
	c-0.4,1.1-0.6,2.6-1.8,3.1c-0.2,0.1-0.5,0.3-0.7,0.4c-0.7,0.4-1.6,0.6-2.4,0.6c1.4-1.6,3.2-2.9,4.2-4.9
	C205.7,117.8,206.4,117.8,206.2,118.2z M204.8,117.6c-1,1.5-2.2,2.7-3.5,3.9c-0.4,0.3-0.7,0.7-1.2,0.6c-0.7-0.2-1.4-0.5-2.2-0.7
	c0.2,0.6,0.5,1.2,0.2,1.8c-0.4,0.5-1.1,0.9-1.3,1.6c1.3-0.3,2.4-1.1,3.5-1.8c1.2,0.1,2.4,0.1,3.4-0.5l0.5-0.2l-0.1,0.5
	c-0.5,0.5-1.1,0.9-1.5,1.4c0.1,0.5,0.6,0.9,0.9,1.4c-0.3,0.6-1.2,0.7-1.6,1.3c-0.2,0.4-0.4,0.7-0.6,1.1c-0.3,0-0.6,0-0.9,0
	c-0.6-0.9-1.6-1.5-2.6-1.9c-1.2-0.4-1.9-1.5-3.1-2.1c-1.4-0.7-3-0.8-4.5-0.5c-1.1,0.3-2.2,0.8-3.3,1.2c-2.1,0.6-4.5,0.9-6.6,0.1
	c0.2-4.4,0.1-8.8,0.4-13.2c0.2,0,0.5-0.1,0.7-0.1c4.5,0.7,9.1,0.7,13.5,1.9c3,0.7,5.8,2.3,8.9,2.5c0,0.1,0,0.4,0,0.6
	c0,0.1,0,0.3,0,0.4C204.2,117.1,204.5,117.3,204.8,117.6z M199.4,122.9c-0.5,0.2-0.6,0-0.5-0.5C199.4,122.3,199.6,122.5,199.4,122.9
	z M218.5,114.8c-2.5,0.4-5.1,0.4-7.7,0.5c-2,0-4.1,0.1-6.1,0c-2.5-0.1-4.9-0.8-7.2-1.7c-5.4-1.9-11.1-2-16.8-2.6
	c0-0.9,0-1.8-0.1-2.7c-0.5-1.3-1.8-1.8-2.8-2.6c-2.9-2.2-5.7-4.4-8.3-6.8c1.6,0.3,3.1,1.1,4.6,1.8c5.7,2.6,11.3,5.3,16.6,8.6
	c2.5,1.6,5.2,2.6,8.1,3.2c3.2,0.7,6.4,1.3,9.6,1.6c2.6,0.3,5.1,0.4,7.7,0.4c0-0.1-0.1-0.4-0.1-0.5l0,0c-1.2-1-2.6-1.8-3.6-3.1
	c2.5-0.6,5.1-0.9,7.7-0.4c0.6,0.1,1.4,0.1,1.8,0.7C222,112.9,220.3,114.4,218.5,114.8z M224.6,98.9c-0.3,3.9-0.6,7.8-1.2,11.6
	c-1.3,0-1.4-1.4-2.2-2.1c-1.9-1.7-4.2-2.6-6.6-3.4c-2.6-0.8-5.2-1.4-7.9-1.6c-5.9-0.8-11.9-0.4-17.8-1.6c-5.3-1.1-10.5-2.6-15.7-3.9
	c-2.3-0.7-4.7-1-6.8-2.1c4,0.4,8,1.4,12,2c5.1,0.9,10.2,0.8,15.3,1.4c0.9,0.1,1.8,0.2,2.7,0.3c0,0,0.1,0.1,0.1,0.2
	c1,0,1.9,0.1,2.9,0.3c4.6,0.7,9.2,1.5,13.8,1.9c1.2,0.1,2.5,0.2,3.8,0.2c-0.1-1.7-1-3.2-1.9-4.6c-1.6-2.3-3.8-4.3-6.5-5.1
	c-1.2-0.4-2.5-0.2-3.8,0c0.3-1.6,0.9-3.2,1.7-4.7c0.8,1.3,1.2,2.8,2,4.2c0.3-0.2,0.4-0.7,0.6-1c0.4-1.2,1.4-2.2,2.4-3
	c2.7-2,6.2-2.4,9.5-2.2c0.9,0,1.6,0.5,2.4,0.9c0.4,1.8,0.9,3.5,1.3,5.3C225.2,94.2,224.7,96.6,224.6,98.9z"/>
</svg>
