<?xml version="1.0" encoding="utf-8"?>
<!-- Generator: Adobe Illustrator 26.0.3, SVG Export Plug-In . SVG Version: 6.00 Build 0)  -->
<svg version="1.1" id="Слой_10" xmlns="http://www.w3.org/2000/svg" xmlns:xlink="http://www.w3.org/1999/xlink" x="0px"
	 y="0px" viewBox="0 0 239.5 150.2" style="enable-background:new 0 0 239.5 150.2;" xml:space="preserve">
<path d="M223.5,119.5c-1.6-1.5-4.1-1.4-5.5-3.1c-1.3-1.7-0.8-4.1-1.9-5.8c-0.7-1-2.2-0.9-3-0.2c-0.5-0.7-1.1-1.4-1.3-2.3
	c-0.1-1.2-0.2-2.6-0.9-3.6c-0.7-0.8-1.8-0.7-2.7-1.1c-1.6-0.7-3-2-4.7-2.5c-0.3-1.8,1-3.3,1.7-4.8c0.6-1.2,0.9-2.7,0.2-3.9
	c-0.5-1.1-1.6-1.7-2.7-1.9c-3.8-0.6-7.7,0.1-11.6-0.4c-2.8-0.1-5.6-0.6-8-2c-2.3-1.3-3.9-3.3-5.5-5.3c0.5,0.2,1.8,0.6,2.7,0.9
	c3.3,0.8,6.7,0.9,10.1,0.4c4.2,0.1,8.6-0.7,12.3-2.9c3.3-1.6,6.1-4.2,8.3-7.2c3.1-4.3,5.3-9.3,6.4-14.5c0.5-2.7,0.9-5.4,0.5-8.2
	c-0.4-3.2-2-6.4-4.9-8.1c-2.1-1.3-4.8-1.7-7.2-1.1c-4.7,1.2-8.6,4.7-10.8,9c-1.5,2.8-1.9,6-2,9.1c0.1,5,1.1,10,1.6,14.9
	c0.3,1.9,0,3.9-0.7,5.8c-0.5,1.1-1.8,1.8-2.7,2.5c-0.8,0.2-1.7,0.4-2.5,0.3c-2.4-0.2-4.8-0.5-7.1-1l-0.5-0.1c0,0,0,0,0,0
	c-0.5-0.1-1.2-0.2-1.8-0.3c-1.6-0.3-3.4-0.6-4.1-2.2c-0.9-1.9,0.7-3.7,0.6-5.6c0.1-1.8-0.6-3.6-0.6-5.4c1.8-0.3,3.6-0.8,5.5-1
	c1-0.2,2.1-0.1,2.9-0.8c0.3-1.2-1.1-1.5-1.9-2c-1.6-1-3-2.3-4.3-3.7c-0.5-0.5-1-1.2-1.9-1.3c-0.2,0.2-0.4,0.5-0.6,0.7
	c-0.5-2-0.3-4.1-1.3-6c-0.6-1.1-1.6-2-2.4-2.8c0.5-0.3,1.1-0.5,1.6-0.7c1.2,0.6,2,1.7,3.3,2.2c1.2,0.3,2.5,0.1,3.4-0.8
	c1.2-1,1-2.8,0.6-4.1c-1.1-0.2-1.4,1.1-2.1,1.8c-1.8,0.2-3.4-0.9-5.1-1.2c-0.8-0.3-1.7-0.2-2.6-0.2c-1.3-0.5-0.8-2.4-2-3
	c1.2-2.2,2.9-4,4.5-5.9c1.8-1.9,3.4-3.9,4.9-6c1.1-1.6,2-3.4,3.1-5.1c0.3,3.4,3,5.9,6,7.1c-0.2,0.6-0.5,1.3-1.1,1.7
	c-0.9-0.3-1.6-1.1-2.5-0.9c0,0.5-0.2,1.1,0.3,1.4c0.4,0.4,1,0.3,1.5,0.3l0-0.3c-0.5-0.2-1.4-0.2-1.3-0.9c1.4,0.9,3,1.5,4.7,1.4
	c1.8-0.2,3.7-0.4,5.4-1.4c0.3-0.2,0.5-0.4,0.4-0.8c-2.2-0.3-4.5-0.3-6.6-0.9c0-2.8-1.5-5.4-2.7-7.9c1.5,0.2,2.9,0.1,4.4,0.4
	c2.9,0.4,5.4,2.2,7.5,4.3c0.2,0.4,0.7,0.4,1.1,0.4c-0.6-1.4-1.8-2.4-2.8-3.6c-2.5-2.6-5.5-5-9.1-5.8c-0.9-0.3-2.1-0.3-2.8,0.5
	c-0.3,1.1,0.2,2.1,0.6,3.1c-1.7-0.1-3.3-1.5-3.5-3.2c-0.6-1.7,0-3.5,0.1-5.3c1.2-6.4,3.5-12.6,5.4-18.9c-0.3,0.1-0.5,0.3-0.6,0.6
	c-1.3,3.8-2.4,7.6-3.6,11.4c-0.9,3.4-1.9,6.9-2,10.5c0.1,1.3,0.1,2.7,1,3.8c0.8,1.2,2.3,1.5,3.6,1.8c1.1,2.5,2.6,4.9,2.8,7.7
	c-2.2-0.9-4.2-2.5-5-4.7c-0.4-0.8-0.3-1.8-0.9-2.5c-1.1,0.9-1.6,2.3-2.4,3.5c-2.3,4.1-5.7,7.5-8.7,11.1c-1,1.2-2,2.5-2.5,4
	c-0.2,0.8-0.1,1.6-0.1,2.4c0.2,1.6,1.5,3.5,3.4,3.1c1.1,0.9,2,2,2.6,3.2c0.8,1.9,0.6,4,1.1,6c0.6,2.3-2.1,3.9-1.5,6.2
	c0,0.8,0.7,1.3,1.5,1.4c0.3,1.8,0.8,3.5,0.7,5.3c0,1.6-1,3-0.9,4.7c0.1,0.8,0.6,1.4,1.1,1.9c-0.2,0-0.7-0.1-1-0.1l0,0
	c-1.6-0.6-3.2-0.8-4.7-1.3c-3.4-0.8-6.8-1.7-10.4-1.8c-2.6-0.1-5.5,0.2-7.5,2.1c-1.8,1.7-1.8,4.4-1.6,6.7c0.9,6.4,4.5,12,8.6,16.8
	c1.7,2.2,3.6,4.3,5.1,6.7c1.1,1.9,1.9,4.3,1.1,6.5c-0.2,0.5-0.3,1.2-0.9,1.4c-1.1,0.4-2.3,0.7-3.3,1.4c0,0.4,0.5,0.6,0.9,0.5
	c1-0.2,1.9-0.7,2.7-1.4c0.9-1,2.3-1.3,3.4-2.2c3.2-2.1,4.6-5.9,5.3-9.4c0.6,1.1,1.7,2.1,3.1,2c2.6-0.4,4.7-2.4,6.4-4.2
	c1.5-1.2,2.6-2.8,3.5-4.5c0.5-0.7,0.2-1.7,0.8-2.3c0.6-0.7,1.6-0.7,2.4-0.7c0.9,0.1,1.7-0.5,2.4-0.8c-0.7,1.8-2,3.6-3.9,4.3
	c-0.5,0.2-1.1,0.4-1.4,0.8c0.1,0.1,0.2,0.2,0.3,0.2c2,0.5,4.1,0.6,6,1.3c2.6,0.7,4.6,2.7,6,4.9c1.8,2.9,3,6.2,3.6,9.5
	c0.2,1.8,0.6,3.7,0.3,5.5c-0.4,4.1-2.3,8.2-5.6,10.8c-3.1-4.8-5.3-10.1-8.6-14.7c-1.3-1.8-2.8-3.6-4.9-4.6c-1.7-0.9-3.8-0.8-5.5,0
	c-2.6,1.2-4.7,3.5-5.5,6.3c-0.8,2.5-0.4,5.2,0.4,7.6c1.2,3.2,3.5,6.1,6.6,7.7c5.3,2.6,11.9,1.9,16.7-1.4c0.4-0.4,0.7,0.1,1,0.5
	c1.3,1.9,3,3.8,5.3,4.5c2,0.4,4.1,0.1,6-0.7c3.5-1.5,6.6-3.6,9.5-5.9c1.9-1.5,3.8-3.1,5.3-5c1.1-1.4,1.9-3.1,2-4.9
	C225.1,121.8,224.6,120.4,223.5,119.5z M191,83.4c1.5-0.6,3-2.5,3.5-4.2c0.6-3.3,0-6.7-0.4-9.9c-0.4-2.7-0.6-5.4-0.9-8.1
	c-0.1-3.5,0.4-7.2,2-10.3c1.9-3.8,5.3-7.1,9.4-8.3c3-0.8,6.5-0.4,8.8,1.8c2.2,1.8,3.3,4.6,3.6,7.3c0.2,1.3,0.3,2.6,0.1,3.9
	c-0.5,5.6-2.5,11-5.3,15.8c-1.8,2.9-3.9,5.7-6.6,7.7c-3.2,2.7-7.4,3.9-11.5,4.4c-0.9,0.1-2,0.3-2.9,0.1L191,83.4z M183.6,83.5
	c0.7,0.2,1.4,0,2,0.3c-1.2,0.1-2.5-0.2-3.7-0.5C182.5,83.2,183,83.3,183.6,83.5z M183.4,24.5c0.2-0.8,1.2-0.4,1.8-0.4
	c3.5,0.7,6.3,3,8.7,5.5c0.4,0.5,1.2,0.7,1.3,1.4c-1.9-1.8-4.5-2.9-7.1-3.1c-1.2-0.1-2.4-0.4-3.7-0.3
	C183.9,26.6,183.3,25.6,183.4,24.5z M187,36.3c2.1,0.6,4.2,0.7,6.3,0.8c-0.3,0.6-1.1,0.8-1.7,0.9c-1.9,0.5-4,0.8-5.9,0
	C186.4,37.7,186.8,37.1,187,36.3z M168.4,49.4c-0.5-0.8-0.4-1.7-0.4-2.5c0.5,0.8,0.5,1.8,1.3,2.4c1,0.4,2.2,0.1,3.3,0.5
	c1.7,0.5,3.6,1.6,5.4,0.9c0.6-0.2,0.8-1.3,1.5-1.3c0.3,1.1,0.4,2.5-0.5,3.4c-0.6,0.6-1.4,0.7-2.2,0.6c-1.3-0.4-2.2-1.7-3.5-2.2
	c-0.9-0.2-1.7,0.4-2.4,0.8C169.9,51.1,169,50.4,168.4,49.4z M175.2,60.7c1.5,0.9,2.3,2.6,3.8,3.5c0.3,0.1,0.5,0.4,0.7,0.7l0,0.1
	c-1.4-0.7-3.6-1.3-4.5-2.5C174.7,62,175.2,61.3,175.2,60.7z M173.2,66.4c0.4-1.2,1.4-2.2,1.4-3.5c1.2,1.1,3.8,2.3,5.4,2.5
	c0,0,0,0,0,0c0.3,0.1,0.6,0.2,0.9,0.4c-1.8-0.3-3.9-0.8-5.4,0.5c-0.8,0.6-1,1.6-1.3,2.5C173.1,68.6,173,67.2,173.2,66.4z
	 M176.1,66.2c1.6-0.8,3.9,0,5.5,0.5c0,0,0,0,0,0c0.4,0.1,0.7,0.3,1,0.5c-0.8,0.4-1.8,0.3-2.7,0.5c-1.8,0.1-3.4,0.7-5.1,1.1
	C174.8,67.7,175.3,66.7,176.1,66.2z M161.4,119.5l0-0.3c0.7-0.2,1.4-0.5,2.2-0.7C163.1,119.2,162.2,119.5,161.4,119.5z M194.1,135.6
	c-5.1,2.6-11.9,2.6-16.5-1.2c-3.2-2.6-5.1-6.6-5.3-10.7c0.1-2.4,0.9-4.8,2.5-6.6c1.6-1.9,4.2-3.3,6.7-2.6c2.2,0.5,3.8,2.2,5.2,3.8
	c3.8,4.9,6.1,10.7,9.5,15.9C195.7,134.8,194.9,135.2,194.1,135.6z M214.8,110.4c0.9,0.4,1.2,1.5,1.4,2.4c-1-0.8-2.1-1.3-3-2.2
	C213.7,110.3,214.3,110.1,214.8,110.4z M215.8,113.2c0.9,0.6,0,1.6-0.6,2.1c-1.7,1.1-3.7,1.6-5.7,1.6c0.6-0.6,1.4-0.9,2-1.6
	c1.1-1,1.2-2.6,1.3-4C213.9,111.8,214.8,112.5,215.8,113.2z M212.6,110.9c-0.4,1.2-0.4,2.5-1,3.6c-0.4,0.7-1,1.3-1.8,1.6
	c1-2,1.4-4.3,1.8-6.5C212,110.1,212.3,110.5,212.6,110.9z M210.6,107.2c0.6,1.5,0.4,3.2,0,4.7c-0.3,1.4-0.6,2.8-1.4,4
	c-0.5-0.7-0.2-1.6-0.3-2.3c-0.1-2.9,0.1-5.8,0.8-8.7C210.3,105.7,210.3,106.5,210.6,107.2z M203,105.1c-2,0.4-4.1-0.9-4.6-2.9
	c0.9-1.6,3-1.3,4.5-0.8C202.9,102.7,204.1,104,203,105.1z M172.7,105c-0.4-4.2,0.1-8.5,1.7-12.5c0.6-1.3,1.3-2.7,2.4-3.7
	c1.4-1.3,3.7-0.9,5.1,0.3c0,0.2-0.1,0.5-0.2,0.6c-1,0.7-2.1,1.1-3.1,1.9c-1.6,1.1-2.6,2.9-3.4,4.6C174.1,99,173.3,102,172.7,105
	L172.7,105z M184.7,100.6c-0.5,1.5-1.5,2.9-2.7,4c-0.6,0.4-1.6,0.4-2.1-0.3c-0.8-1-0.8-2.3-0.9-3.5c-0.2-1.4-0.1-2.9-0.2-4.3
	c0-0.9,0.1-1.8,0.7-2.5c0.8-0.2,1.5,0.2,2.2,0.5c1.4,0.8,2.8,1.8,3.6,3.3C185.9,98.7,185.1,99.7,184.7,100.6z M220.7,130.2
	c-3,2.8-6.3,5.2-9.9,7.3c-2.3,1.3-5,2.4-7.7,2c-2.8-0.7-4.7-3-6.2-5.3c4.3-3.4,6.5-9.1,5.9-14.4c-0.2-3.6-1.3-7-2.9-10.2
	c-1.1-2.1-2.5-4.2-4.6-5.6c-2.5-1.6-5.6-1.8-8.5-2.3c1.1-0.5,2.2-1,3.1-1.9c1.1-1.1,1.8-2.4,2.4-3.8c-0.9,0-1.4,0.9-2.3,1
	c-0.9,0.3-1.9-0.1-2.7,0.4c-0.4,0.2-0.7,0.4-1,0.6c-0.9-2-2.7-3.4-4.7-4.2c-0.9-0.3-2.1-0.3-2.6,0.6c-0.7,1.6-0.5,3.3-0.5,5
	c0.3,1.7,0.1,3.6,1,5.1c0.4,0.7,1.3,0.8,2.1,0.7c-1.1,1.2-2.3,2.2-3.7,3c-1.1,0.5-2.7,0.8-3.7-0.3c-0.8-0.8-1.2-2-0.8-3.1
	c1-4.1,1.7-8.5,4.4-12c1.2-1.6,3.3-2.1,4.7-3.4c0.2-0.6-0.4-1.1-0.8-1.3c-1-0.5-2.2-0.8-3.3-0.4c-1.8,0.5-3,2.1-3.8,3.6
	c-1.3,2.6-2,5.4-2.2,8.3c-0.3,1.6-0.3,3.2,0,4.8c0.1,0.8,0.3,1.7,0.1,2.6c-0.7,2.5-1.3,5-2.9,7.1c-1.1,1.5-2.7,2.6-4.4,3.3
	c1.1-2.6,0.5-5.5-0.9-7.8c-2.3-3.5-5.2-6.6-7.6-10c-2.3-3-4.1-6.4-5.2-10.1c-0.4-1.6-0.8-3.3-0.7-5c-0.1-1.6,0.3-3.3,1.5-4.5
	c0.9-1,2.3-1.4,3.6-1.7c3.7-0.5,7.4,0.4,11,1.1c2.6,0.6,5.8,1.7,8.5,2.2l0,0c0.6,0.1,1.2,0.1,1.6,0.7c2,2.8,4.4,5.6,7.8,6.8
	c5.3,1.9,11.1,1,16.6,1.3c1.3,0.2,2.7,0.5,3.5,1.7c0.6,0.7,0.6,1.7,0.5,2.6c-0.5,2.1-2.3,3.8-2.3,6c-0.9,0-1.9-0.1-2.8,0
	c-0.7,0.2-1.2,0.7-1.8,1.1c-0.3,2.6,3.3,4.6,5.4,3.1c1.1-0.9,0.3-2.3,0.1-3.5c1.6,0.7,2.8,1.9,4.5,2.5c0.5,0.2,1.1,0.1,1.5,0.4
	c-0.9,1.9-0.8,4-1.1,6c-0.1,1.3,0,2.7-0.1,4c0,0.7,0.1,1.5,0.5,2.1c-0.2,0.2-0.3,0.4-0.2,0.7c2.8-0.1,5.9-0.8,7.9-3
	c0,1.2,0.5,2.4,1.5,3.1c1.4,0.9,3.1,1.2,4.5,2.1c1.5,1.1,2.2,3.1,1.7,4.9C223.9,126.7,222.3,128.6,220.7,130.2z"/>
</svg>
