<?xml version="1.0" encoding="utf-8"?>
<!-- Generator: Adobe Illustrator 24.0.2, SVG Export Plug-In . SVG Version: 6.00 Build 0)  -->
<svg version="1.1" id="Слой_1" xmlns="http://www.w3.org/2000/svg" xmlns:xlink="http://www.w3.org/1999/xlink" x="0px" y="0px"
	 viewBox="0 0 238.1 150.2" style="enable-background:new 0 0 238.1 150.2;" xml:space="preserve">
<style type="text/css">
	.st0{fill-rule:evenodd;clip-rule:evenodd;fill:#36362F;}
</style>
<path class="st0" d="M151.8,18.2L151.8,18.2c-4.2-0.1-7.2-0.7-10-1.7c-2.9-1.1-5.5-2.7-9-5l-0.9-0.6l-0.8,0.7
	c-5.3,4.8-15.2,6.4-23.1,5.6c-1.5-0.1-3-0.4-4.3-0.7c-1.3-0.3-2.4-0.7-3.4-1.2l-1-0.5l-0.7,0.9c-0.7,1-1.5,1.9-2.2,2.9l-0.1,0.1
	c-0.1,0.1-0.2,0.3-0.3,0.4c-0.7,1-1.5,1.9-2,2.6l0,0l-0.6,0.8l0.6,0.8c9.6,12.9,9.5,25.8,3.9,37.5c-1.1,2.3-2.4,4.6-3.9,6.8
	c-1.5,2.2-3.2,4.4-5,6.5l-0.8,0.9l0.8,0.9c0.9,1,1.9,1.9,2.9,2.9l0.2,0.1c0.8,0.7,1.5,1.5,2.3,2.3c-0.1,2.1-0.2,4-0.2,6
	c0.3,17.6,8,28.5,17.4,35.2c9.3,6.6,20.4,9,27.4,9.6c0.1,0,0.3,0,0.4,0c1,0.1,1.9,0.2,2.8,0.2c3.1,2.7,6.3,5.3,9.5,7.8v0l0,0
	c3.2-2.6,6.3-5.2,9.5-7.8c0.9,0,1.8-0.1,2.8-0.2c0.1,0,0.3,0,0.4,0c7-0.6,18-3,27.4-9.6c9.4-6.7,17.1-17.6,17.4-35.2
	c0-1.9,0-3.9-0.2-6c0.8-0.8,1.6-1.6,2.4-2.4c0.1-0.1,0.1-0.1,0.2-0.2c0.9-0.9,1.8-1.8,2.7-2.7l0.8-0.9l-0.8-0.9
	c-1.8-2.1-3.5-4.3-5-6.5c-1.5-2.2-2.8-4.5-3.9-6.8c-5.6-11.7-5.7-24.6,3.9-37.5l0.6-0.8l-0.6-0.8l0,0c-0.6-0.8-1.4-1.9-2.3-3
	c-0.8-1-1.5-2-2.3-3l-0.7-0.9l-1,0.5c-1,0.5-2.1,0.9-3.4,1.2c-1.3,0.3-2.8,0.6-4.3,0.7c-7.9,0.8-17.7-0.8-23.1-5.6l-0.8-0.7
	l-0.9,0.6c-3.4,2.3-6.1,3.9-9,5C159,17.5,156,18,151.8,18.2L151.8,18.2z M100.3,18.3c0.9,0.4,1.9,0.7,2.9,0.9c1.4,0.3,3,0.6,4.7,0.8
	c8.1,0.8,18.3-0.8,24.3-5.6c5.9,4.2,12.6,6.7,19.6,6.5c7,0.2,13.7-2.3,19.6-6.5c6,4.8,16.2,6.4,24.3,5.6c1.7-0.2,3.2-0.4,4.7-0.8
	c1.1-0.3,2-0.6,2.9-0.9c0.3,0.4,0.7,0.9,1,1.4l0,0c0.2,0.3,0.4,0.5,0.6,0.8c0.6,0.7,1.1,1.5,1.7,2.2c-9.7,13.6-9.5,27.1-3.6,39.5
	c1.2,2.4,2.6,4.8,4.1,7.1c1.3,2,2.8,3.9,4.4,5.8c-0.7,0.7-1.3,1.3-2,2c-0.1,0.1-0.2,0.2-0.3,0.3l0,0c-0.9,0.8-1.7,1.7-2.6,2.6v0l0,0
	l-0.4,0.4l0.1,0.6c0.2,2.2,0.2,4.3,0.2,6.3c-0.3,16.5-7.5,26.8-16.3,33c-8.9,6.3-19.3,8.6-26,9.1c-1.4,0.1-2.6,0.1-3.6,0.1l-0.5,0
	c-2.7,2.4-5.5,4.8-8.4,7.1c-2.9-2.4-5.7-4.7-8.4-7.1l-0.5,0c-1,0-2.2,0-3.6-0.1c-6.7-0.5-17.2-2.8-26-9.1c-8.8-6.2-16-16.5-16.3-33
	c0-2,0-4.1,0.2-6.3l0-0.6l-0.4-0.4v0l0,0C95.9,79,95,78.1,94,77.2l-0.1-0.1h0l0,0c-0.7-0.7-1.3-1.3-2-2c1.6-1.9,3.1-3.8,4.4-5.8
	c1.6-2.3,3-4.7,4.1-7.1c5.9-12.3,6.1-25.9-3.6-39.5c0.6-0.8,1.1-1.5,1.7-2.2C99.2,19.7,99.8,18.9,100.3,18.3z M136.8,22.9v13.5h14.6
	v14.1h-14.6v12.4h-14.1V50.4h-13.4c0.3-2.3,0.5-4.5,0.5-6.7c0-2.4-0.3-4.9-0.9-7.3h13.8V24.1c3.4-0.8,6.4-2.1,9.2-3.8
	C133.4,21.3,135,22.1,136.8,22.9z M191.5,62.8h-5.1V25c1.6,0.2,3.3,0.2,5.1,0.2V62.8z M181.5,62.8h-5.1V22.7
	c1.6,0.6,3.3,1.2,5.1,1.6V62.8z M171.5,62.8h-5.1V23.1c1.9-0.8,3.7-1.7,5.1-2.7V62.8z M161.5,62.8h-5.1v-37c0.3,0,0.7-0.1,1-0.1
	c1.4-0.2,2.8-0.5,4.1-0.9V62.8z M165,75.9V73c0.4,0,1.6,0,2.5,0c0.4,0,0.7,0,0.8,0c2.4,0,2.4,2.9-0.1,3
	C167.8,76,165.6,75.9,165,75.9z M133.5,70.5v-2v0h6.5v-2.7h-9.3v12.8h2.8v-5.4h3.8v-2.7H133.5z M153.2,74.4
	c-1.4,2.7-5.1,1.9-5.1-2.2c0-4.2,3.8-4.9,5.1-2.2l2.4-1.4c-0.6-1.4-2.3-3.1-4.7-3.1c-3.8,0-5.7,3.1-5.7,6.7c0,3.7,1.9,6.7,5.7,6.7
	c2.4,0,4.2-1.6,4.7-3.1L153.2,74.4z M165,70.5v-2.2c0.3,0,0.7,0,1.2,0h0h0h0h0c0.7,0,1.4,0,1.6,0c2.1-0.2,2.3,2.3,0.1,2.2
	C167.4,70.5,165.5,70.5,165,70.5z M162.3,78.6h5.5c1.3,0,2.4-0.2,3.3-0.7c1.9-1.1,2.8-4.7,0.2-6.2c2.5-2.6,0.9-6-3-6
	c-0.8,0-3.9,0-6,0.1V78.6z M115.6,115.6V81.4h-13.1c-0.1,0.5-0.2,1-0.2,1.4c-0.1,0.5-0.1,0.9-0.1,1.2l0,0c-0.1,1.2-0.1,2.3,0,3.4
	c0.2,9.1,3,17.9,9.7,24.7C112.9,113.4,114.2,114.5,115.6,115.6z M188,115.6V81.4h13.1c0.1,0.5,0.2,1,0.2,1.4
	c0.1,0.5,0.1,0.9,0.1,1.2l0,0c0.1,1.2,0.1,2.3,0,3.4c-0.2,9.1-3,17.9-9.7,24.7C190.7,113.4,189.4,114.5,188,115.6z M159.2,91.6v-0.9
	c3.9,2.5,6.4,6.8,6.4,11.7c0,4.9-2.6,9.2-6.4,11.7v-0.9c-2.1,1.4-4.7,2.3-7.4,2.3c-2.7,0-5.2-0.8-7.3-2.2c7.4-0.6,12.2-3.5,13.6-7.2
	c0.2-0.4,0.6-0.6,1.1-0.6v7.7c1.7-1.2,3.1-2.7,4.1-4.5c0.3-2-2.4-3.4-4.1-3.2v-0.6c-0.4,0-0.7,0.1-0.9,0.2c-0.6-3.8-3.9-4.7-6.4-3.1
	c-3.2-2.3-1.6-5.4-1-6c1.8-2.1,5.3-1.2,8.3,0.8v-0.9c0.2,0.2,0.5,0.3,0.7,0.5c1.7,1.2,3.2,2.7,4.9,5.1
	C164.5,97.4,162.4,93.8,159.2,91.6l0,4.2c-2.8-1.7-6.2-2.1-7.4-1.5c-1.9-1.1-1.8-3.8-0.1-5c1.4,0,2.6,0.2,3.7,0.4
	C156.8,90.3,158.1,90.9,159.2,91.6z M159.2,81.4v9.3c-2.1-1.4-4.7-2.1-7.4-2.1c-2.7,0-5.3,0.8-7.4,2.1v1.3c0.1-0.2,0.1-0.3,0.2-0.5
	c0.2-0.2,0.4-0.3,0.6-0.5c1.6-1,3.5-1.6,5.5-1.8c0,0,0,0,0,0c0,0,0,0,0,0c0,0,0,0,0,0c-2,2.4-0.4,4.6,0.3,5.4
	c-3.8,3.4-0.6,7.4,0.4,7.8c0.4,0.9-2.3,3.4-4.1,2.9c-1.3-0.4-2.3-1.2-2.9-2.3v1.5c0.1,0.1,0.2,0.2,0.2,0.3c0.1,0.2,0,0.4-0.2,0.6
	v0.9c0.5-0.4,0.8-0.9,0.9-1.1c4,2.3,6.7-1.1,6.8-2.6c0.5-0.6,1.7-1.1,3-0.7c1.4,0.4,2.4,1.8,2.4,2.8c-0.2,3.4-4.3,6.9-13.1,7.7v1.6
	c2.1,1.4,4.7,2.1,7.4,2.1c2.7,0,5.3-0.8,7.4-2.1v10.4c5.4-0.3,10.2-1,14.4-2.2V81.4H159.2z M159.2,96.8c2.5,1.6,4.7,4,5.4,6
	c0.1,0.4,0.2,0.7,0.2,1.1c-0.1,1.2-0.4,2.4-0.9,3.4c-0.1,0.1-0.1,0.2-0.2,0.3c-0.9-2.4-3.1-2.8-4.5-2.7V96.8z M144.4,90.8v-9.3H130
	v40.9c4.2,1.1,9,1.9,14.4,2.2v-10.4c-3.9-2.5-6.4-6.8-6.4-11.7S140.5,93.2,144.4,90.8z M144.4,92.1v11.1
	C142.7,100.3,143.2,95.5,144.4,92.1z M144.4,104.7c-1.6-2.3-2.7-5.2-1.1-12.2c-2.8,2.4-4.6,6-4.6,10c0,1.7,0.3,3.4,1,4.9
	c1.5,0.5,3.9-0.8,4.7-1.7V104.7z M144.4,106.5c-0.9,0.8-2.4,1.8-4.3,1.7c0.8,1.7,2,3.2,3.5,4.4c0.3,0,0.6,0,0.8-0.1V106.5z"/>
</svg>
