<?xml version="1.0" encoding="utf-8"?>
<!-- Generator: Adobe Illustrator 24.0.2, SVG Export Plug-In . SVG Version: 6.00 Build 0)  -->
<svg version="1.1" id="Слой_1" xmlns:xodm="http://www.corel.com/coreldraw/odm/2003"
	 xmlns="http://www.w3.org/2000/svg" xmlns:xlink="http://www.w3.org/1999/xlink" x="0px" y="0px" viewBox="0 0 238.1 150.2"
	 style="enable-background:new 0 0 238.1 150.2;" xml:space="preserve">
<style type="text/css">
	.st0{fill-rule:evenodd;clip-rule:evenodd;fill:#151518;}
</style>
<g id="Слой_x0020_1">
	<path class="st0" d="M157.3,80.2c0.5-0.4,7-4.1,7.6-4.4l0.3,0.5c0.6,1.3,1,3.8,1,5.2c0,2.5-0.6,3.8-1.2,5.8c-0.8-0.2-3-1.6-3.8-2.1
		c-1.1-0.6-2.8-1.7-3.9-2.1C157.5,82.2,157.6,81,157.3,80.2z M150.1,124l-0.4,0l-8.5-5.2c-1.5-1-6.4-4.8-7.8-6
		c-3.8-3.4-3.5-3.2-6.9-6.8c-1.1-1.2-5.5-6.5-6-8c0.5-0.2,3.5-0.8,4-0.8c1.7,2.8,3.2,5.2,5.1,7.8c1.9,2.6,3.9,4.7,6.1,7
		c2.9,3.1,7.1,6.6,10.5,9.1C147.5,122.1,149.1,123,150.1,124L150.1,124z M194.9,52.7c0.2,4.8,0.4,9.2,0,14c-0.8,0.3-4.4,0.1-5.5,0.1
		c0-1.7,0.2-3.7,0.2-5.5l0-4.3c0-0.9,0-0.9-0.2-1.2c0.4-2.4-1.1-11.1-1.6-13.7c-0.9-4.8-2.3-8.8-2.9-12.3c0.6,0.1,5.5,1.9,6.1,2.2
		c0.8,0.4,0.9,2.1,1.1,3c0.3,1.1,0.5,2.1,0.8,3.3C193.6,42,194.7,49,194.9,52.7L194.9,52.7z M143.2,91.8c-0.5-0.9-1.5-1.4-1.9-2.4
		c0.9-0.4,1.8-1,2.6-1.5l2.6-1.6c0.7-0.1,1.7-1,2.5-1.3c0.5,0.3,0.8,0.8,1.3,0.8c0,0,0.1,0,0.1,0.1c0,0,0.1,0.1,0.1,0.1l0.9,0.5
		l0,8.7c-1.3,0-2.4-0.5-3.6-0.7c-0.7-0.4-1.6-0.7-2.4-1.2c-0.4-0.3-0.8-0.4-1.2-0.8C143.8,92.3,143.6,91.9,143.2,91.8z M144.3,85
		l-4.2,2.2c0,0-0.3-0.3-0.4-0.3c0-0.8-1.1-2.8-1-5.8c0-1.5,0.6-4.4,1.4-5.4l7.7,4.4c-0.2,1.1-0.2,1.7,0,2.8c-0.6,0.3-1.1,0.6-1.8,1
		L144.3,85L144.3,85z M153.6,124.8c-0.1-0.2-0.4,0.2,0.3-0.4c0.8-0.6,0.1-0.3,1-0.5c-0.3,0.7,0.4,0.2-1.1,0.8
		C153.6,124.8,153.8,124.8,153.6,124.8L153.6,124.8z M177.2,107.2c-0.5,1.1-3.8,3.9-4.8,4.8c-2.7,2.4-2.4,2.2-5.4,4.4
		c-2.6,1.9-2.9,2.3-5.7,4c-1.1,0.7-5.1,3.3-6.2,3.5c0.3-0.4,0.2-0.3,0.7-0.6c0.3-0.2,0.4-0.3,0.7-0.5c2.7-2,3.9-2.8,6.7-5.1
		c5.4-4.5,7.3-7,11.7-12.1c1.5-2.3,2.8-3.8,4.5-6.5c3.8-6.3,6.3-12.3,8.1-19.5c0.3-1,0.7-3.8,1-4.6c0.7-0.2,4.5-0.4,5.5-0.4
		c-0.1,1.9-1.9,7.8-2.6,9.7c-0.5,1.4-1.1,3.2-1.7,4.5c-1.5,3.1-2.4,5.1-4.3,8c-1.9,3-4.2,6.3-6.6,8.9
		C178.2,106.2,177.8,106.9,177.2,107.2L177.2,107.2z M124.2,93c-0.9-1.1-2.8-6.5-3.4-8.5c-0.9-3-1.6-6.1-2.2-9.5
		c-2.2-13.8-0.2-28.6,2.8-42.1c0.7-3.2,0.4-3.7,1.8-4.1c1.4-0.5,2.9-0.9,4.4-1.4c15.4-4.5,37-3.9,51.5,0.5c3.5,1.1,3,0.7,3.5,2.4
		c2,7.8,3.8,16.9,4.3,24.9c0.1,1.9,0.5,10.1,0,11.4c-1.2,0.5-21.2,0-24.7,0.2c0.6,0.6,1.9,1.5,2.7,2.3c4.7,4.4,4.2,8.4,5,10
		c1.3-0.1,3.6-0.7,4.9-1c1.7-0.4,3.1-0.7,3.4-2.5l7.9-0.5c-0.1,2.4-1.3,6.5-1.9,8.6c-3.9,13-10.8,22.5-20.2,31.5
		c-1.5,1.4-9.5,8.1-11.5,9.1c-0.6-0.5-1.3-0.9-2-1.4l-5.7-4.4c-5-4.1-9.4-8.3-13.3-13.6c-1.2-1.6-4.7-6.4-5.3-8.1
		c3.1-0.9,6.2-2.3,9-3.8c0.9-0.5,1.9-1.2,2.8-1.5c-0.1-0.7-1.2-2.4-1.6-3.3c-0.9-2-0.8-2.8-1.1-3.6c-0.4,0.2-1.9,1.8-2.5,2.4
		C130.9,88.8,126.6,92.5,124.2,93L124.2,93z M118.9,95.3c-0.5-0.4-0.8-1.1-1.1-1.7c-3.6-7.5-4.2-8.6-6.4-17.4
		c-0.3-1.4-0.5-3.1-0.8-4.5c-2-12.8-0.3-25.6,2.7-37.9c0.3-1.1,0.1-1.3,1-1.7c1.1-0.5,5.1-2,5.8-2.1c-0.3,2.1-1.3,4.8-1.8,7.1
		c-3.9,16.6-4.4,33.3,1.4,49.6l2.9,7.1C121.6,94.2,120.1,95,118.9,95.3L118.9,95.3z M110,29.2c-0.3,1.7-0.9,3.4-1.3,5.1
		c-8.9,37.2-0.3,67.8,32,89.3c1.3,0.9,2.6,1.6,3.9,2.4c1.4,0.8,2.7,1.5,4.1,2.3c4.6,2.5,3.6,2.1,6.3,0.8c4.3-2.1,10.1-5.7,13.8-8.5
		c2.5-1.8,4.9-3.7,7-5.8c0.6-0.6,1.1-0.9,1.7-1.5c0.5-0.6,1.1-1.1,1.5-1.5c9.4-9.1,16.8-22.2,19.5-38c2.3-13.4,0.7-29.6-3.1-42.9
		c-0.3-1-0.1-1.6-1.1-2c-3-1.3-6.2-2.5-9.3-3.5c-11-3.7-20.8-5.4-33-5.3c-11.5,0.1-22.4,1.7-32.9,5.6C119.1,25.7,110,29.2,110,29.2z
		 M144.2,95.9c0.3,0.4,0.3,0.4,1,0.7l3.6,1.3c1.8,0.4,4,0.6,5.9,0.3c3.9-0.5,6.6-2,9-4c2.5-2.3,4.3-4.6,5.2-8.2
		c3.1-11.6-6.3-22.6-18.2-21.3c-11.7,1.3-18.3,14.2-13.2,24.3C138.8,91.3,142.3,95.6,144.2,95.9L144.2,95.9z M162.5,91.1
		c-2,1.1-1.7,3-8.9,4.2l0-8.9c2.5-1.1,1.4-0.8,2.5-1.4l0.5,0.2c0.5,0.6,6.3,3.6,7,4.4l-0.8,1.1c0,0-0.1,0.1-0.1,0.2
		C162.5,91,162.6,90.9,162.5,91.1z M154.8,82.3c-0.1,0.1-0.1,0.1-0.2,0.3l-0.4,0.5c-0.2,0.3-0.4,0.4-0.8,0.5c-0.9,0.3-1.5,0-2.2-0.2
		l-0.7-0.9c-1.2-2.3,1.6-4.4,3.6-2.8C155,80.5,154.7,81.2,154.8,82.3L154.8,82.3z M141.2,73.7c0.4-1.2,2.9-3.2,4.1-4
		c1.2-0.7,4.1-1.9,6-1.8l0,8.7c-0.4,0.2-0.9,0.4-1.4,0.6c-0.5,0.3-0.7,0.6-1.1,0.8L141.2,73.7L141.2,73.7z M153.6,67.8
		c2.2,0.2,4.5,1,6,1.9c1.2,0.7,3.6,2.8,4,3.8c-1.2,0.6-2.6,1.5-3.8,2.2c-0.8,0.5-3.1,2-3.9,2.2c-0.6-0.8-1.3-1-2.3-1.4L153.6,67.8
		L153.6,67.8z M123.8,70c-2.1,0.4-2.5-0.4-2.4,2.2c0,2.4,0.2,2.1,2.4,2.2c0.9,1.8,1.6,3.2,4.1,3.2c2.3,0,5.1,0.2,7.4,0
		c0.9-1.8,1-4.7,4.9-8.6c0.8-0.8,2.1-1.7,2.3-2.2c-1.4-0.1-15.1-0.2-16.1,0.2C125,67.5,124.5,68.8,123.8,70L123.8,70z M126.4,44
		c0.3,0.4,0.5,1.4,0.7,2.2c0.2,0.8,0.5,1.6,0.6,2.3l-2.9,0c0.1-0.8,0.5-1.6,0.7-2.3C125.8,45.4,126,44.5,126.4,44z M120.2,53.8
		l2.5,0c0.4-0.5,1.1-2.5,1.3-3.3l4.2-0.1c0.3,1,0.3,2.4,0.8,3.3l4,0l-2-6.9c-0.7-2.3-1.4-4.7-1.9-7l-3.3,0
		C125.2,45,120.5,52,120.2,53.8L120.2,53.8z M162.6,44.8c-0.2-0.4,0-0.4-0.3-0.8l-3.3,0c0.1,0.8,0.2,1.2,0.3,2.2
		c0,0.9,0.1,1.7,0.1,2.5c0.1,1.7,0,3.5,0.1,5.2l3.3-0.1l-0.2-7.6c0.5-0.3,1-0.9,1.7-0.6c0.6,0.7,0.5,6.7,0.6,8.2l3.3,0
		c0.1-1.5,0-6.5-0.4-7.8c-0.3-1.1-1-1.9-2-2.1C164.4,43.7,163.4,44.4,162.6,44.8L162.6,44.8z M180.6,53.8l3.3,0.1
		c0-2.9-0.9-10.3-1.1-14l-3.3,0L180.6,53.8L180.6,53.8z M142.8,49.4c1.3,0.3,2,0.7,2,1.8c-1,0.7-2,1-3.3,0.1l-0.4-0.4
		c-0.6-0.1-0.3-0.2-0.8-0.3l-0.1,2.2c1.9,0.8,4.8,1.2,6.6-0.2c0.7-0.5,0.8-1.1,1.1-1.6c0.2-3.2-2.6-2.9-4.5-4.6
		c-0.1-2.8,3.3-0.4,4-0.4c-0.2-0.5-0.1-1.1-0.1-1.7c-2.1-0.9-4.7-0.9-6.1,0.5c-0.5,0.5-1.3,1.7-0.7,2.8
		C141.1,48.7,142.2,49,142.8,49.4C142.8,49.4,142.8,49.4,142.8,49.4z M142.3,73.3c0.3,0.3,5.9,3.8,6.6,4c0.5-0.5,1.1-0.6,1.7-1
		l0-7.6C148,68.5,144.1,71.3,142.3,73.3L142.3,73.3z M162.6,73.3c-1-1.6-5.2-4.5-8.3-4.6l0,7.7l1.8,0.9L162.6,73.3L162.6,73.3z
		 M140.2,86.3c0.8-0.2,2.6-1.4,3.4-1.8c1-0.6,2.3-1.2,3.3-1.9l0-2.1l-6.7-3.7C139,80.5,139.1,82.6,140.2,86.3L140.2,86.3z M137.4,45
		l0-1l-2.9,0c0.2,3.3-0.2,6.5-0.2,9.8l3.4,0c0.1-1.6,0.2-3.4,0.2-5c0-1.9-0.2-3.3,2.2-2.9l0-2.1C138.5,43.9,138.4,44.6,137.4,45
		L137.4,45z M175.1,48.1c0.3,3.3,0.7,3.7-0.8,4C171.5,52.5,171.3,49.2,175.1,48.1z M152.1,48.5c-0.1-2.1-0.3-3.3,2.1-3
		c0.5,0.6,0.6,0.9,0.6,2C154,47.7,153,48.3,152.1,48.5z M150.9,81.9c0.2,0.7,1.1,1.5,2.2,1.2c2.1-0.6,1.2-3.8-0.9-3.3
		C151.3,80,150.6,80.9,150.9,81.9L150.9,81.9z M158,80.4l0,1.6l7.4-1.7c0.1-1-0.5-2.8-0.8-3.6C164.7,76.7,158,80.4,158,80.4z
		 M149.1,47.2c-0.2,1.8-0.2,2.2,0.2,3.8c1,1.4,1.6,2.4,3.6,2.9c1,0.3,1.9,0.1,2.8-0.3c1-0.4,1.4-0.6,2.2-1.2l-0.9-1
		c-1.9,0.9-4.1,1.5-4.8-1.5c1.5-0.8,3.7-1.5,5.4-2.2c0.1-3.7-5.2-5.8-7.8-1.8C149.5,46.3,149.2,47,149.1,47.2L149.1,47.2z
		 M170.3,43.9l0.1,2.1c0.9-0.4,1.2-0.8,2.4-0.8c1.2-0.1,1.9,0.3,2,1.4c-0.1,0.1,0,0-0.3,0.2c-0.2,0.1-0.2,0.1-0.4,0.2
		c-0.9,0.3-1.7,0.5-2.5,1c-3.1,1.9-1.6,4.8,0.1,5.4c1.3,0.4,2.7-0.2,3.7-0.7l0.3,0.6l3,0c0-1.3-0.1-2.8-0.2-4.1
		c-0.1-1.6,0-2.8-0.8-3.7C175.9,43.6,173.1,43.2,170.3,43.9L170.3,43.9z"/>
</g>
</svg>
