<?xml version="1.0" encoding="utf-8"?>
<!-- Generator: Adobe Illustrator 24.0.2, SVG Export Plug-In . SVG Version: 6.00 Build 0)  -->
<svg version="1.1" id="Слой_1" xmlns="http://www.w3.org/2000/svg" xmlns:xlink="http://www.w3.org/1999/xlink" x="0px" y="0px"
	 viewBox="0 0 238.11 150.24" style="enable-background:new 0 0 238.11 150.24;" xml:space="preserve">
<g>
	<path d="M7.78,143.49c0-45.48,0-90.88,0-136.31c74.18,0,148.33,0,222.53,0c0,45.41,0,90.83,0,136.31
		C156.15,143.49,82,143.49,7.78,143.49z M9.72,141.8c72.92,0,145.79,0,218.66,0c0-44.34,0-88.64,0-132.97c-72.9,0-145.76,0-218.66,0
		C9.72,53.16,9.72,97.46,9.72,141.8z"/>
	<path d="M212.61,12.58c-0.09,5.31,4.64,9.68,11.4,9.54c0,35.45,0,70.9,0,106.37c-0.85,0.07-1.67,0.12-2.48,0.22
		c-3.92,0.49-7.63,3.01-8.69,7.19c-0.17,0.68-0.18,1.4-0.27,2.19c-62.32,0-124.67,0-187.03,0c0.04-5.3-4.72-9.79-11.44-9.58
		c0-35.45,0-70.9,0-106.32c1.13-0.14,2.2-0.18,3.24-0.4c3.91-0.84,6.74-2.98,7.92-6.93c0.21-0.71,0.19-1.48,0.28-2.28
		C87.86,12.58,150.21,12.58,212.61,12.58z M132.76,136.77c0-2.38-0.02-4.61,0-6.84c0.03-4.05,0.14-8.1,0.11-12.15
		c-0.01-1.96,0.29-3.85,0.77-5.73c0.21-0.85,0.46-1.67,0.26-2.6c-0.15-0.71-0.1-1.54,0.1-2.24c0.53-1.82,1.19-3.6,1.8-5.4
		c0.47-1.38,0.34-1.72-0.91-2.45c-0.76-0.44-1.25-1.07-1.46-1.96c-0.49-2.06-0.02-4.01,0.67-5.92c1.01-2.79,1.28-5.6,0.47-8.48
		c-0.36-1.27-0.75-2.52-1.12-3.78c-0.79-2.69-1.26-5.48-2.74-7.94c-0.72-1.21-1.38-2.41-2.49-3.36c-1.24-1.06-2.45-2.22-3.43-3.53
		c-1.94-2.59-3.68-5.32-5.55-7.96c-1.83-2.6-3.72-5.15-5.58-7.73c-0.97-1.35-1.93-2.71-2.88-4.08c-1-1.45-1.94-2.95-2.99-4.35
		c-0.93-1.24-2.06-2.33-2.97-3.59c-0.91-1.26-1.92-2.49-2.31-4.06c-0.2-0.81-0.4-1.63-0.69-2.41c-0.53-1.44-1.16-2.85-1.68-4.3
		c-0.18-0.49-0.13-1.02,0.26-1.48c0.11-0.13,0.11-0.44,0.04-0.63c-0.27-0.79-0.02-1.63,0.58-1.88c0.69-0.28,1.73,0.01,2.13,0.64
		c0.69,1.07,1.39,2.13,2.02,3.23c0.61,1.08,1.45,1.82,2.7,1.96c1.13,0.13,1.33,0.3,1.62,1.39c0.37,1.39,0.71,2.81,1.27,4.13
		c0.36,0.85,1.07,1.57,1.68,2.29c0.97,1.13,1.9,2.32,3,3.31c1.96,1.77,4.05,3.41,6.06,5.13c0.98,0.84,1.62,1.92,2.18,3.09
		c0.51,1.07,1.2,2.09,2,2.98c1.59,1.77,3.3,3.42,4.95,5.13c1.05,1.09,1.85,2.49,3.47,2.92c0.26,0.07,0.52,0.19,0.75,0.33
		c1.48,0.96,2.96,1.93,4.44,2.9c0.88,0.59,1.81,0.77,2.75,0.23c0.87-0.5,0.85-1.38,0.79-2.24c-0.03-0.39-0.14-0.77-0.12-1.15
		c0.04-0.6-0.24-1-0.75-1.17c-1.55-0.51-1.86-1.77-2.03-3.15c-0.12-0.95-0.23-1.89-0.37-2.84c-0.26-1.89-0.38-3.75,0.74-5.48
		c1.08-1.66,2.31-3.18,4.35-3.58c1.1-0.22,2.28-0.13,3.41-0.03c0.84,0.08,1.73,0.26,2.48,0.65c2.88,1.5,4.04,4.1,4.34,7.18
		c0.09,0.96,0.06,1.92,0.17,2.88c0.11,0.94-0.15,1.7-0.75,2.41c-0.26,0.31-0.48,0.75-0.5,1.15c-0.07,1.15-0.04,2.3-0.01,3.46
		c0.01,0.26,0.13,0.6,0.32,0.76c1.1,0.94,2.95,0.86,4-0.13c0.23-0.22,0.47-0.44,0.68-0.69c1.64-1.88,3.74-2.98,6.12-3.65
		c1-0.28,2.07-0.62,2.55-1.64c0.75-1.59,2.01-2.6,3.46-3.45c1.65-0.98,3.17-2.11,3.98-3.91c1.2-2.66,3.02-4.86,5.03-6.93
		c1.13-1.17,2.41-2.21,3.42-3.47c1.33-1.66,2.57-3.43,3.17-5.51c0.43-1.47,0.68-3,1.04-4.49c0.24-1.02,0.45-1.13,1.46-1.29
		c1.17-0.18,1.59-0.52,1.87-1.57c0.57-2.15,2.11-3.32,4.14-3.93c0.44-0.13,0.84,0.01,1.17,0.47c0.53,0.74,0.27,1.4-0.07,2.13
		c0.32,0.15,0.6,0.31,0.9,0.41c0.97,0.3,1.25,0.99,0.67,1.8c-1.06,1.48-1.75,3.12-2.27,4.86c-0.38,1.27-0.8,2.55-1.78,3.48
		c-0.74,0.7-1.35,1.47-1.87,2.32c-0.22,0.37-0.47,0.73-0.68,1.1c-1.06,1.88-2.12,3.75-3.17,5.64c-0.72,1.31-1.33,2.69-2.16,3.92
		c-0.95,1.41-2.14,2.66-3.15,4.04c-0.86,1.17-1.53,2.49-2.44,3.61c-1.36,1.66-2.51,3.44-3.6,5.28c-1.49,2.52-3.27,4.8-5.67,6.53
		c-1.64,1.19-3,2.6-3.65,4.55c-0.58,1.76-1.03,3.56-1.6,5.32c-0.26,0.8-0.36,1.57-0.24,2.4c0.05,0.38,0.1,0.78,0.02,1.14
		c-0.37,1.71-0.74,3.41-1.18,5.1c-0.34,1.32-0.45,2.58,0.31,3.81c0.2,0.33,0.26,0.78,0.27,1.18c0.03,1.71,0.01,3.41,0.01,5.12
		c0,1.52-0.31,2.98-0.86,4.39c-0.65,1.68-0.77,3.38-0.04,5.04c1.1,2.48,1.41,5.09,1.6,7.75c0.09,1.29,0.29,2.58,0.54,3.84
		c0.29,1.43,0.74,2.85,0.52,4.32c-0.11,0.73-0.01,1.37,0.15,2.06c0.26,1.17,0.48,2.36,0.55,3.55c0.07,1.18-0.14,2.38-0.09,3.57
		c0.09,2.56,0.26,5.12,0.4,7.68c0.01,0.18,0.03,0.35,0.05,0.62c14.53,0,29.02,0,43.44,0c1.22-6.24,5.47-8.86,11.36-9.64
		c0-34.6,0-69.18,0-103.78c-2.82-0.16-5.3-0.98-7.44-2.68c-2.17-1.72-3.55-3.93-3.84-6.73c-61.47,0-122.88,0-184.29,0
		c-0.62,4.93-4.86,8.98-11.32,9.45c0,34.58,0,69.17,0,103.74c5.94,0.79,10.17,3.44,11.37,9.64
		C62.23,136.77,97.53,136.77,132.76,136.77z M159.91,60.48c-0.48,0.34-0.8,0.62-1.17,0.83c-0.38,0.22-0.38,0.43-0.27,0.84
		c0.47,1.7,0.85,3.42,1.28,5.12c0.75,2.96,1.45,5.93,2.29,8.86c0.4,1.4,1.2,2.63,2.49,3.73c0.07-0.91,0.13-1.65,0.17-2.39
		c0.02-0.4-0.04-0.81,0.01-1.21c0.11-0.78,0.34-1.55,0.42-2.34c0.37-3.83,2.44-6.71,5.08-9.29c1.3-1.26,2.94-2.14,3.88-3.81
		c0.75-1.34,1.66-2.59,2.54-3.85c0.87-1.24,1.06-2.85,2.21-3.92c-0.06-0.73,0.21-1.5-0.22-2.13c-0.64,0.18-1.2,0.36-1.76,0.5
		c-0.71,0.18-1.17-0.33-0.97-1.04c0.2-0.72,0.66-1.25,1.35-1.41c0.89-0.21,1.3-0.81,1.74-1.51c0.49-0.78,1.05-1.54,1.69-2.2
		c0.39-0.4,1-0.59,1.51-0.88c0.04,0.05,0.08,0.1,0.12,0.15c-0.43,0.53-0.44,1.02,0.07,1.49c0.06,0.05,0.05,0.17,0.09,0.25
		c0.4,0.91-0.16,1.61-0.5,2.36c-0.12,0.25-0.24,0.49-0.37,0.74c0.05,0.03,0.1,0.06,0.15,0.09c0.58-0.69,1.19-1.37,1.74-2.08
		c2.22-2.9,3.99-6.06,5.5-9.37c1-2.21,2.07-4.36,4.02-5.93c0.85-0.68,1.33-1.59,1.64-2.61c0.24-0.79,0.45-1.61,0.75-2.38
		c0.53-1.35,1.12-2.67,1.68-4.01c-0.05-0.04-0.1-0.08-0.15-0.13c-1.34,0.78-1.87,2.37-3.11,3.3c0.03-0.45,0.05-0.9,0.23-1.29
		c0.44-0.97,0.96-1.91,1.41-2.88c0.15-0.32,0.27-0.68,0.27-1.03c0-0.17-0.27-0.45-0.46-0.48c-0.68-0.11-1.2,0.29-1.57,0.79
		c-0.79,1.06-1.49,2.17-2.26,3.25c-0.45,0.64-0.94,1.2-1.86,1.23c-0.63,0.02-1.09,0.46-1.3,1.07c-0.13,0.38-0.24,0.79-0.27,1.19
		c-0.2,2.49-0.92,4.78-2.52,6.76c-1.2,1.49-2.3,3.07-3.55,4.52c-0.79,0.91-1.81,1.62-2.66,2.48c-1.71,1.72-2.82,3.83-3.93,5.96
		c-0.47,0.9-0.86,1.96-1.96,2.38c-1.99,0.76-3.22,2.42-4.58,3.91c-0.56,0.62-0.96,1.38-1.48,2.03c-0.19,0.24-0.52,0.45-0.81,0.5
		c-1.49,0.26-2.92,0.69-4.16,1.58c-0.3,0.21-0.53,0.52-0.88,0.87c0.41,0.02,0.64,0.02,0.86,0.05c0.76,0.09,0.88,0.36,0.44,0.97
		c-0.15,0.2-0.29,0.41-0.44,0.61c0.49,0.81,0.29,1.77-0.55,2.44c-0.15-0.2-0.36-0.37-0.42-0.59c-0.22-0.7-0.44-1.33-1.43-0.88
		C159.91,61.28,159.91,60.96,159.91,60.48z M120.49,53.73c1,0.71,2.15,2.63,2.27,3.72c0.02,0.14-0.1,0.38-0.22,0.45
		c-0.44,0.24-0.34,0.56-0.16,0.87c0.73,1.26,1.34,2.61,2.23,3.74c1.36,1.71,2.95,3.23,4.39,4.87c1.01,1.16,2.06,2.32,2.88,3.62
		c1.27,2.01,1.45,4.44,2.25,6.65c0.14,0.38,0.22,0.78,0.28,1.18c0.12,0.72,0.21,1.45,0.31,2.17c0.07,0.02,0.14,0.03,0.21,0.05
		c0.1-0.17,0.23-0.33,0.29-0.51c0.31-0.94,0.58-1.9,0.92-2.83c1.2-3.3,1.85-6.7,2.16-10.19c0.1-1.18,0.24-2.35,0.43-3.52
		c0.09-0.54,0.17-1.17,0.96-1.35c-0.53-0.42-0.99-0.79-1.44-1.16c-2.01-1.66-4.29-2.79-6.77-3.55c-0.05-0.02-0.12-0.03-0.15-0.07
		c-0.84-1.04-1.66-2.1-2.53-3.11c-0.97-1.14-1.92-2.31-3.01-3.33c-0.96-0.9-1.88-1.78-2.32-3.06c-0.14-0.4-0.4-0.76-0.62-1.13
		c-1.13-1.81-2.71-3.19-4.29-4.6c-2.31-2.06-4.5-4.26-6.73-6.41c-0.87-0.84-1.89-1.24-3.11-1.15c-0.58,0.04-0.91,0.4-0.85,0.87
		c0.14,1.04,0.25,2.15,0.69,3.07c0.7,1.47,1.61,2.85,2.53,4.19c1.45,2.12,2.95,4.21,4.5,6.26c0.69,0.91,1.56,1.68,2.34,2.5
		c0.2-0.76,0.3-1.39,0.53-1.97c0.29-0.71,0.24-1.37-0.1-2.03c-0.22-0.43-0.47-0.84-0.68-1.27c-0.18-0.38-0.31-0.79-0.47-1.19
		c0.06-0.04,0.13-0.08,0.19-0.12c0.17,0.13,0.38,0.22,0.51,0.38c0.78,0.95,1.52,1.93,2.33,2.85c0.39,0.44,0.92,0.76,1.36,1.15
		c0.38,0.34,0.84,0.64,1.08,1.07c0.37,0.65,0.02,1.17-0.71,1.12c-0.4-0.03-0.84-0.21-1.18-0.44c-0.49-0.34-0.83-0.3-1.12,0.19
		c-0.34,0.57-0.5,1.18-0.2,1.82c0.29,0.63,0.58,1.27,0.88,1.9c0.05,0,0.09-0.01,0.14-0.01C120.49,54.89,120.49,54.35,120.49,53.73z
		 M152.83,55.78c-0.15,0.25-0.24,0.34-0.25,0.44c-0.15,1.51-1.46,2.27-2.19,3.41c-0.1,0.15-0.34,0.3-0.52,0.3
		c-1.23,0.04-2.46,0.13-3.68,0.01c-0.95-0.1-1.41-0.12-1.93,0.72c-0.54,0.88-0.88,1.9-2.13,2c-0.03,0-0.06,0.06-0.12,0.12
		c0.41,0.9,1.11,1.58,1.89,2.17c1.25,0.93,2.52,1.88,4.2,1.65c1.64-0.22,3.12-0.85,4.45-1.86c1.04-0.79,1.86-1.74,2.47-2.97
		c-1.15,0.05-1.78-0.5-1.99-1.52c-0.1-0.46-0.19-0.94-0.2-1.41C152.81,57.89,152.83,56.93,152.83,55.78z M155.09,80.3
		c-1.02,0-2.19,0.49-2.83,1.29c-1.24,1.56-1.79,3.47-1.85,5.35c-0.07,2.15,0.78,4.13,2.54,5.57c1.25,1.02,3.07,1,4.11-0.34
		c0.32-0.41,0.55-0.89,0.8-1.35c0.73-1.38,1.18-2.89,1.16-4.43c-0.02-1.25-0.33-2.51-0.66-3.73
		C157.98,81.28,156.52,80.3,155.09,80.3z M166.42,136.71c-0.11-0.63-0.25-1.18-0.29-1.74c-0.12-1.83-0.23-3.66-0.28-5.5
		c-0.08-3.27-0.06-6.54-0.16-9.81c-0.05-1.57-0.23-3.13-0.42-4.69c-0.23-1.94-0.6-3.86-0.79-5.8c-0.2-2.02-0.64-3.97-1.5-5.81
		c-0.46-0.99-0.57-1.99-0.29-3.05c0.39-1.53,0.77-3.07,1.11-4.61c0.51-2.3-0.39-4.25-1.57-6.2c-0.5,0.9-0.9,1.74-0.53,2.71
		c0.24,0.61,0.48,1.22,0.78,1.8c0.53,1.01,0.91,2.09,0.69,3.21c-0.21,1.07-0.67,2.1-0.98,3.15c-0.16,0.56-0.42,1.19-0.32,1.72
		c0.61,3.19,1.36,6.36,1.97,9.56c0.39,2.07,0.67,4.17,0.87,6.27c0.1,1.06-0.14,2.15-0.1,3.23c0.13,3-0.38,5.89-1.32,8.73
		c-0.21,0.65-0.26,1.29,0.16,1.99c0.76,1.29,0.84,2.7,0.19,4.13c-0.15-0.07-0.27-0.12-0.4-0.18c-0.14,0.32-0.26,0.59-0.39,0.89
		C164.07,136.71,165.2,136.71,166.42,136.71z M141.94,89.06c-0.08,0.04-0.15,0.09-0.23,0.13c-0.17,0.76-0.3,1.54-0.52,2.28
		c-0.13,0.45,0.07,0.62,0.4,0.78c0.57,0.28,1.12,0.61,1.7,0.85c2.38,0.99,4.31,0.61,5.75-1.48c0.84-1.22,0.8-2.34-0.22-3.89
		c-0.45-0.69-0.7-1.31-0.27-2.12c1.24-2.31-0.34-4.67-2.96-4.76c-1.92-0.06-3.31,1.05-4.72,2.2c0.5,0.81,0.98,1.59,1.46,2.37
		c0.1-0.08,0.12-0.09,0.13-0.11c0.04-0.05,0.08-0.11,0.11-0.17c0.71-1.27,1.75-1.94,3.25-1.8c0.74,0.07,1.09,0.53,1.05,1.4
		c-0.03,0.6-0.32,0.83-1.08,0.81c-0.49-0.01-0.99-0.08-1.52-0.13c0,0.95,0,1.84,0,2.76c0.47-0.09,0.91-0.19,1.36-0.27
		c0.86-0.15,1.6,0.36,1.77,1.21c0.14,0.69-0.48,1.74-1.13,1.81c-1.45,0.15-2.86,0.08-3.87-1.2
		C142.24,89.52,142.09,89.28,141.94,89.06z M109.81,34.25c-0.45-1.77-0.82-3.48-1.33-5.15c-0.13-0.42-0.69-1.01-1.07-1.01
		c-1.16-0.02-1.7-0.73-2.26-1.53c-0.91-1.31-1.81-2.62-2.75-3.91c-0.15-0.2-0.6-0.45-0.69-0.38c-0.24,0.19-0.48,0.52-0.5,0.81
		c-0.02,0.3,0.18,0.65,0.35,0.93c0.62,1.03,1.29,2.04,1.92,3.07c0.38,0.63,0.26,0.99-0.29,1.46c-0.23,0.2-0.46,0.56-0.46,0.84
		c0.03,2.44,0.9,4.57,2.55,6.35c0.25,0.26,0.85,0.55,1.06,0.43c0.59-0.35,1.04-0.92,1.58-1.35c0.29-0.24,0.65-0.42,1.01-0.54
		C109.19,34.18,109.48,34.25,109.81,34.25z M133.54,136.69c1.29,0,2.54,0,4.02,0c-0.45-0.54-0.78-0.96-1.13-1.35
		c-0.28-0.32-0.75-0.57-0.86-0.94c-0.32-0.99-0.56-2.01-0.71-3.04c-0.08-0.57-0.2-0.96-0.9-1.04
		C133.82,132.45,133.68,134.57,133.54,136.69z M136.53,92.1c-0.27,0.37-0.43,0.67-0.66,0.91c-0.99,1.03-1.54,2.25-1.76,3.66
		c-0.1,0.62,0.12,0.96,0.53,1.31c0.72-0.89,1.37-1.79,2.12-2.61c0.6-0.64,0.71-1.27,0.32-2.04C136.89,92.98,136.74,92.6,136.53,92.1
		z M134.51,93.17c2.23-2.81,2.88-5.22,1.47-6.85C135.5,88.57,135.02,90.81,134.51,93.17z M151,76.11c0.26,0,0.47,0,0.64,0
		c0.12-0.56,0.23-1.07,0.34-1.58c0.07-0.01,0.13-0.01,0.2-0.02c0.23,0.55,0.46,1.1,0.69,1.66c0.06,0,0.11,0.01,0.17,0.01
		c0.21-1.16,0.45-2.32,0.6-3.5c0.08-0.67-0.32-1.01-0.99-0.99c-0.21,0-0.42,0.04-0.63,0.06c0.33,0.23,0.76,0.22,0.98,0.43
		c0.5,0.46,0.01,1-0.1,1.48c-0.03,0.13-0.55,0.16-0.87,0.24c-0.04-0.52-0.07-0.86-0.1-1.19c-0.05,0-0.1,0-0.15,0.01
		C151.54,73.84,151.28,74.95,151,76.11z M148.72,74.52c0.07-0.01,0.13-0.02,0.2-0.04c0.35,0.45,0.7,0.91,1.11,1.44
		c-0.09-0.95-0.21-1.77-0.23-2.58c-0.04-1.54-0.19-1.7-1.71-1.45c-0.02,0-0.03,0.03-0.16,0.13c0.1,1.35,0.2,2.79,0.3,4.22
		c0.11,0.01,0.23,0.01,0.34,0.02C148.62,75.68,148.67,75.1,148.72,74.52z M146.17,72.13c-0.1,0.01-0.19,0.02-0.29,0.03
		c0,0.25-0.06,0.51,0.01,0.73c0.28,0.91,0.61,1.79,0.88,2.7c0.05,0.18-0.06,0.59-0.12,0.59c-0.27,0.02-0.62,0.02-0.78-0.14
		c-0.21-0.2-0.27-0.56-0.36-0.86c-0.24-0.75-0.46-1.51-0.7-2.26c-0.05-0.14-0.17-0.26-0.26-0.39c-0.07,0.03-0.13,0.06-0.2,0.1
		c0.35,1.36,0.68,2.73,1.39,3.96c0.3,0.52,0.78,0.17,1.09,0.03c0.2-0.09,0.3-0.53,0.34-0.82c0.03-0.25-0.08-0.53-0.15-0.79
		C146.74,74.05,146.45,73.09,146.17,72.13z M154.26,76.45c0.08,0.02,0.16,0.04,0.24,0.07c0.67-1.14,1.35-2.27,1.99-3.42
		c0.07-0.13-0.05-0.36-0.11-0.73c-0.42,0.64-0.71,1.1-1.01,1.55c-0.12-0.37-0.05-0.69-0.06-1.01c-0.01-0.27,0.24-0.7-0.42-0.74
		C154.69,73.6,154.47,75.02,154.26,76.45z M164.15,90.69c-0.28-1.53-0.56-3.03-0.85-4.62C162.18,87.84,162.83,89.93,164.15,90.69z
		 M143.24,73.8c-0.16-0.45-0.34-0.83-0.89-0.63c-0.48,0.17-0.97,0.45-0.7,1.03c0.49,1.07,1.05,2.12,1.68,3.11
		c0.11,0.18,0.69,0.15,1.03,0.07c0.39-0.09,0.59-0.39,0.27-1c-0.31,0.39-0.57,0.71-0.84,1.04c-1-1.41-1.6-2.85-1.55-3.77
		C142.55,73.7,142.85,73.74,143.24,73.8z M102.66,27.62c-0.59-0.96-1.13-1.86-1.69-2.78c-0.47,0.61-0.35,0.97,1.04,3.2
		C102.2,27.91,102.39,27.79,102.66,27.62z M149.31,67.3c-0.79,0.32-0.87,0.81-0.63,1.51c0.25,0.74,0.76,0.56,1.33,0.53
		C149.77,68.65,149.54,67.99,149.31,67.3z M166.51,129.73c0,1.69,0,3.39,0,5.08C167.18,133.1,166.9,131.4,166.51,129.73z
		 M135.21,106.15c0.06,0.03,0.12,0.06,0.18,0.08c0.73-2.02,1.45-4.05,2.18-6.07c-0.09-0.03-0.18-0.06-0.28-0.1
		C136.6,102.1,135.91,104.13,135.21,106.15z"/>
	<path d="M23.37,13.96c0.24,3.79-3.77,6.78-7.68,6.69c0-2.22,0-4.43,0-6.69C18.24,13.96,20.78,13.96,23.37,13.96z"/>
	<path d="M214.74,13.95c2.57,0,5.1,0,7.67,0c0,2.22,0,4.44,0,6.66C218.97,20.9,214.48,17.96,214.74,13.95z"/>
	<path d="M23.36,136.71c-2.58,0-5.1,0-7.67,0c0-2.23,0-4.43,0-6.63C18.87,129.62,23.66,132.61,23.36,136.71z"/>
	<path d="M214.75,136.68c-0.28-3.81,3.97-6.91,7.69-6.66c0,2.2,0,4.41,0,6.66C219.89,136.68,217.34,136.68,214.75,136.68z"/>
	<path d="M176.41,55.84c-0.11-0.92-0.07-1.68,0.6-2.24c0.14-0.12,0.34-0.17,0.52-0.25c0.08,0.2,0.28,0.44,0.23,0.59
		c-0.15,0.41-0.37,0.81-0.62,1.17C176.96,55.37,176.69,55.57,176.41,55.84z"/>
	<path d="M135.04,64.22c-0.48-0.86-1.15-1.57-0.9-2.53c0.31-1.2,0.85-1.47,2.04-1.11c1.04,0.31,1.53,0.74,1.2,2.59
		C136.46,63.07,135.61,63.24,135.04,64.22z"/>
	<path d="M114.55,45.35c1.05,0.19,1.83,1.27,1.54,2.13C115.18,47.62,114.44,46.6,114.55,45.35z"/>
	<path d="M154.82,90.56c-0.41-0.28-0.93-0.47-1.22-0.84c-1.34-1.73-1.06-4.21,0.06-5.85c0.79-1.15,1.96-0.94,2.78,0.33
		c0.72,1.1,0.55,2.27,0.34,3.43c-0.13,0.72-0.43,1.42-0.71,2.11C155.89,90.23,155.46,90.44,154.82,90.56z"/>
	<path d="M149.37,72c0,0.52,0.04,0.98-0.02,1.43c-0.02,0.19-0.27,0.48-0.4,0.48c-0.18-0.01-0.45-0.22-0.52-0.4
		C148.16,72.8,148.44,72.36,149.37,72z"/>
</g>
</svg>
