<?xml version="1.0" encoding="utf-8"?>
<!-- Generator: Adobe Illustrator 24.0.2, SVG Export Plug-In . SVG Version: 6.00 Build 0)  -->
<svg version="1.1" id="Слой_1" xmlns:xodm="http://www.corel.com/coreldraw/odm/2003"
	 xmlns="http://www.w3.org/2000/svg" xmlns:xlink="http://www.w3.org/1999/xlink" x="0px" y="0px" viewBox="0 0 238.1 150.2"
	 style="enable-background:new 0 0 238.1 150.2;" xml:space="preserve">
<style type="text/css">
	.st0{fill-rule:evenodd;clip-rule:evenodd;}
</style>
<g id="Слой_x0020_1">
	<path class="st0" d="M135.4,28l-4,0c0.5,0.1,2.7,2,3.1,2.5l-1.1,3.7c1.3-0.6,1.9-1.8,3.3-2.3c1,0.6,2.4,2,3.1,2.3l-1.1-3.6
		c0.7-0.7,2.8-1.8,3.1-2.5l-3.9-0.2l-1.2-3.4c-0.2,0.2-0.1,0-0.3,0.3C136.4,24.7,135.4,28,135.4,28z M144.2,139.2
		c0.1-0.1,1.5,0.1,1.9,0.1c0.7,0,1.3-0.2,2-0.3c7.9-1.9,11.4-2.2,19.5-0.6c1.9,0.4,4.9,1.4,6.6,1.1c0.4-0.1,0.6-0.2,0.9-0.2
		c-0.4,0.8-2.6,1-3.6,0.9c-1.1-0.1-2.6-0.6-3.7-0.8c-2.5-0.6-5.2-1-8-1.1c-2.8-0.1-5.5,0.3-8.2,0.8
		C149.8,139.4,145.8,140.7,144.2,139.2L144.2,139.2z M136.2,129.3c0.5,0.2,1.2,1.9,5.5,1.4c6-0.7,10.8-3,18-2.8
		c4.4,0.1,8,0.8,12,1.9c2.7,0.7,7.6,2.1,10.1,0.6c0.4-0.2,0.7-0.6,1-0.8c-0.2,0.9-3.2,4.8-4,5.7c-0.1,0.1-0.2,0.2-0.3,0.3l-0.7,0.8
		c-0.8,1-2,1.9-3.4,2.1c-1.4,0.2-2.4-0.1-3.6-0.5c-6.9-1.8-12.1-2.4-19.2-1c-2,0.4-5.2,1.6-7.2,1.3c-2.3-0.3-3.4-2.3-4.7-3.9
		c-0.3-0.4-0.6-0.8-0.9-1.3C138.2,132.6,136.3,129.9,136.2,129.3L136.2,129.3z M136,127.7l-3.7,1.4c-1.3,0.4-2.6,0.7-4.1,0.8
		c-3.6,0.3-5.6-0.1-8.3-1.5c0.1-0.2,0.5-0.4,0.8-0.4c0.3-0.1,1.4,0.6,2.7,0.9c3.1,0.7,7.8-0.2,10.8-1.4c0.5-0.2,1.5-0.7,1.9-0.8
		c0.3,0.8,0.3,1.3,1.8,1.8c2.6,0.9,6.8-0.3,9.3-0.9c4.1-1,8.2-1.7,12.7-1.7c8.2,0.1,13.7,2.8,18.4,3.1c1.4,0.1,3.3,0.1,4.2-1
		c0.4-0.5,0.4-0.9,0.6-1.2c1.2,0.4,2.1,0.9,3.6,1.4c3.4,0.9,7.3,1.7,10.7,0.3c0.9-0.4,0.9-0.6,1.8,0c-0.4,0.6-2.6,1.2-3.5,1.4
		c-3.5,0.6-7.4-0.2-10.7-1.4c-0.5-0.2-1.4-0.6-1.8-0.7c-1.3,3.7-8.3,1.6-11,1c-4.1-1-7.9-1.9-12.4-1.9c-4.3,0-8.7,0.7-12.7,1.7
		C143.9,129.5,137.2,131.3,136,127.7L136,127.7z M173.4,127.3l3.8-4.9c1,0.2,3.9,2.1,4.5,3.1c0.4,0.6,0.6,1.3,0.1,2
		C180.5,129.2,173.9,127.6,173.4,127.3z M142,122.3c0.6,0.9,1.2,1.7,1.8,2.5l1.9,2.4c0,0,0,0.1-0.2,0.1c-0.1,0-0.2,0.1-0.3,0.1
		c-2,0.5-6.6,1.6-7.9,0C135.7,125.3,141.3,122.3,142,122.3L142,122.3z M193.1,124c0.1,0.3,0.1,0.2,0.4,0.5c0.8,0.8,1.7,1.6,2.6,2.3
		c0.3,0.2,0.9,0.6,1.1,0.8c-1.8,1-3.5,1.1-5.8,0.8c-2.9-0.3-5.5-1.1-7.9-2.3c-1.4-0.7-0.2-0.3-1.7-1.8c-1.2-1.2-1.6-1.4-3-2.2
		c-0.3-0.2-0.9-0.4-1.1-0.6c0.2-0.4,3.1-4.7,3.4-5.7c0.9,0.2,7.9,5.2,14,4.3c0.8-0.1,1.4-0.4,2.2-0.6c-0.4,1.3-2.2,3.1-3.5,3.9
		C193.6,123.7,193.3,123.8,193.1,124L193.1,124z M121.8,119.4c1.6,0.3,2,0.8,4.6,0.6c3-0.3,5.4-1.3,8-2.5c0.8-0.4,3.2-1.7,3.6-1.8
		c0.2,0.7,1.9,3.4,2.5,4.3c0.2,0.4,0.7,1,0.9,1.4c-0.3,0.2-0.7,0.4-1.1,0.6l-3,2.1c-1.2,1.1-0.4,1.1-1.6,1.8
		c-0.8,0.4-1.5,0.7-2.4,1.1c-2.6,1-6,1.6-8.8,1.2c-0.8-0.1-2.2-0.4-2.7-0.8c0,0,0-0.1,0-0.1l0.5-0.4c1-0.6,3.2-2.4,3.7-3.2
		C124.2,122.9,122.8,121.1,121.8,119.4z M156.5,118c0.7-2.2,0.3-0.9,0.7-3c0.4,0.1,0.7,0.3,1.1,0.5c0.5,0.2,0.9,0.2,1.3,0.4
		c0.1,1.3,0.3,1.8,0.8,2.7c-0.5,0-0.9-0.4-1.1-0.6c-0.4,1.8-1.3,2.8-2.3,4.2c-0.2,0.2-0.3,0.4-0.5,0.7c-0.9,1.3,0.6,0.5,1.5,0.9
		c0.6,0.3,0.4,0.9,0,1.1c-0.3-0.2,0-0.4-1.1-0.5c-0.8-0.1-3.2-0.1-3.8,0.3c-0.2,0.1-0.2,0.3-0.4,0.5c-0.6-0.1-0.6-0.5-0.3-0.8
		c0.1-0.1,0.1-0.1,0.1-0.1c0,0,0,0,0.1,0c0,0,0,0,0.1-0.1c0,0,0,0,0.1-0.1c0,0,0,0,0.1-0.1c-0.8,0-0.8,0.2-1.3,0.5
		c-0.6-0.7,0.1-0.9,0.8-0.9c0.2-0.2,0.2-0.6,0.9-0.5c1,0.1,1.4,0.9,2.1-0.4c0.7-1.3,2.3-3.8,2.5-5.2
		C157.3,117.6,157.3,117.9,156.5,118L156.5,118z M125,114l0-1.1l2.4,0l0,1.1c0.8,0.1,1.8-0.1,1.8,0.9c0,1-1,0.9-1.8,0.9l0,1.5
		c-0.7,0.2-1.7,0.2-2.5,0.2v-1.7c-0.9,0-1.8,0.1-1.8-0.9C123.1,113.9,124.2,114.1,125,114L125,114z M191.8,114l0-1.1l2.4,0l0,1.1
		c0.8,0,1.9-0.1,1.9,0.9c0,0.9-1,0.9-1.8,0.9l0,1.7c-0.6,0-1.9,0-2.4-0.2l-0.1-1.4c-0.8-0.1-1.8,0.1-1.8-0.8
		C189.9,114,190.9,114,191.8,114L191.8,114z M181.6,115.1l0.3-0.7c0.5,0.1,1.4,0.7,1.8,0.9c1.8,0.9,3.7,1.8,5.7,2.4
		c2.3,0.7,4.6,1.1,7.1,0.5c0.9-0.2,1.2-0.6,1.9-0.8c-0.1,1-0.5,1.2-1.4,1.5c-3.7,1.3-8.3-0.1-11.6-1.7
		C184.7,116.8,182,115.5,181.6,115.1L181.6,115.1z M120.8,117.1c1.6,0.7,1.9,1.1,4.2,1.1c5.4,0.1,11.3-3.9,12.2-4.1l0.4,0.8
		c-1.3,0.5-3.1,2.1-8,3.5c-1.5,0.4-3.4,0.8-5.1,0.6c-0.6,0-2.9-0.5-3.3-1C121,118,120.8,117.3,120.8,117.1L120.8,117.1z
		 M162.7,110.7c0.3,0,2.8,1,3.2,1.2c1.2,0.5,1.9,1.1,2.5,2c1.9,2.8-0.1,6.4-0.6,6.6c0.1-1,0.6-1.4,0.1-3.4c-0.4-1.8-1.7-3.6-3.1-4.7
		C164.4,112.1,162.9,111.1,162.7,110.7L162.7,110.7z M190.1,110.6c0.6-0.7,4.7-0.8,6.1-0.1c-0.1,0.3,0.1,0.1-0.2,0.2
		c-0.3,0.2-0.2,0-0.8,0.5c-0.4,0.4-0.4,0.7-0.8,1l-2.6,0C190.9,110.7,190.6,111.2,190.1,110.6L190.1,110.6z M123.1,110.6
		c0.4-0.6,3.6-0.6,4.7-0.4l1.2,0.6c-0.4,0.2-0.3,0.1-0.8,0.5c-0.4,0.3-0.4,0.6-0.7,0.9l-2.6,0C124,110.7,123.9,111.2,123.1,110.6
		L123.1,110.6z M165,109.1c0.6-0.1,1.1-0.2,1.6-0.4l1.5-0.7c-0.1,0.4-0.6,1.1-1,1.2l-1.8,0C164.9,109.2,165.1,109.2,165,109.1
		L165,109.1z M192.6,109.5c-1-0.4-1.5-3-0.7-4.7c0.4-0.9,0.6-0.7,0.9-1.2c0.3,0.4-0.1,0.2,0.7,1.4c0.3,0.4,0.6,0.9,0.8,1.3
		c0.5,1.1,0.5,2.8-0.6,3.2c0.1-0.8,0.1-1.1-0.2-1.8c-0.2-0.5-0.4-0.9-0.6-1.4C191.9,107.1,192.6,109.4,192.6,109.5L192.6,109.5z
		 M125.6,109.6c-1-0.4-1.1-2-0.6-3.1c0.4-1.1,1.2-1.6,1.5-2.8c0.7,0.3,1.3,1.6,1.4,2.8c0.1,1.1-0.3,2.8-1.1,3.1
		c0.3-1.1,0.6-2.4-0.3-3.2C125.8,107.3,125.4,108.4,125.6,109.6L125.6,109.6z M164.3,108.9c0.1-0.1,0-0.1,0.1-0.2
		c0.2-0.2,0.7-0.3,0.7-1.3c0.9-0.1,1.6-0.4,2.3-0.7c0.9-0.4,1.7-1,2.1-1.1c-0.2,0.7-1.5,1.8-2.1,2.2
		C166.6,108.3,165.5,108.8,164.3,108.9L164.3,108.9z M165.3,107.1c0.1-0.3,0.2-0.2,0.4-0.6c0.2-0.3,0.1-0.5,0.2-0.8
		c1.2-0.4,3.3-1.5,4.2-2.3c0.3-0.3,0.2-0.3,0.6-0.4c-0.2,1-1.4,2.1-2.1,2.6C167.4,106.4,166.8,106.6,165.3,107.1L165.3,107.1z
		 M165.8,105.4c0.3-0.7,0.3-0.4,0.3-1.3c1.7-1,3.5-1.9,5-3.5c0.2-0.2,0.4-0.4,0.7-0.6c-0.2,1.4-1.4,2.4-2.4,3.3
		C168.8,103.8,166.7,105.1,165.8,105.4L165.8,105.4z M166,103.7c0.2-0.8,0.2-0.5,0.1-1.3c0.8-0.3,3.2-2.1,3.9-2.7
		c0.6-0.6,1.1-1,1.7-1.6l0.8-0.9c0.2-0.2,0.6-0.8,0.8-0.9c0.3,1.5-2.8,4.3-3.9,5.2C168.7,102,166.7,103.4,166,103.7z M189.6,96.1
		c0.4,0,0.5,0,0.8,0.2c0.1,0,0.2,0.1,0.3,0.2c0.2,0.1,0.1,0.1,0.3,0.2c0.1-1.8,0.3-4.2,1.3-5.6c0.2-0.3,0.8-1.1,1.1-1.2
		c-0.1,4,3.1,6.5,3.3,11.2c0,0,0.1-0.1,0.1,0l0.4-0.4c0.4-0.4,1.1-0.9,1.7-1c-0.2,1.1-0.5,1.6-0.5,2.9c0,1.1,0.1,2.2-0.1,3.3
		c-0.3,1.7-1.5,3.5-3.1,3.7c0.5-1.7,0.8-2.3-0.4-4.5c-0.4-0.6-0.7-1.1-1-1.7c-0.5-0.8-0.6-1.7-0.8-2c-1.2,2.2-2.7,3.2-2.3,6.2
		c0.1,1,0.5,1.4,0.7,2.1c-0.9,0-2-1.4-2.4-2.2c-0.6-1.1-0.7-2.6-0.5-4c0.3-2,1.5-3.6,1.5-5.3C190.1,97,189.7,96.8,189.6,96.1
		L189.6,96.1z M127.9,109.6c1.8-4,0.5-5-1-7.4c-0.2-0.3-0.4-0.7-0.5-0.9c-0.9,2.5-0.7,1.8-1.8,3.8c-1,1.8-1,2.8-0.3,4.4
		c-1.6-0.2-2.8-2-3.2-3.7c-0.2-1.1-0.1-2.2-0.1-3.3c0-1.3-0.3-1.8-0.5-2.9c1,0.1,1.8,1.2,2.1,1.4c0.1-4.5,3.2-6.8,3.3-11.2
		c0.6,0.2,1.5,1.8,1.8,2.8c0.3,1.2,0.4,2.8,0.6,4c0.5-0.3,0.5-0.5,1.4-0.5c-0.1,0.6-0.4,0.8-0.5,1.8c0,1.8,1.2,3.4,1.5,5.5
		c0.3,2.4-0.2,3.7-1.4,5.3C129.2,108.9,128.3,109.6,127.9,109.6L127.9,109.6z M162.3,102.9c0-0.4,0.1-0.3,0.3-0.6l3.3-2.9
		c0.2-0.2,0.3-0.3,0.6-0.5c0.5-0.5,1.4-1.6,1.9-2.3c0.3-0.4,0.5-0.9,0.7-1.4c0.3-0.7,0.2-1,0.3-1.7c0.4,0.1,0.6,1.1,0.5,1.6
		c-0.1,0.6-0.4,1.1-0.6,1.5c-1.4,2.5-3.5,3.8-5.7,5.3C163.3,102.2,162.6,102.8,162.3,102.9z M169.2,99.6c0.2-0.5,1.2-1.3,1.9-2.2
		c0.9-1.2,1.4-2,2-3.3c0.2-0.4,0.2-0.7,0.4-0.9c0.4,0.6,0.2,1.8-0.2,2.3C172.7,96.5,170,99.4,169.2,99.6L169.2,99.6z M167.7,92
		c1,0.1,1.4,1.1,1.3,2c-0.2,1.9-1.7,3.4-3,4.7c-0.8,0.8-2.7,2.2-3.2,2.8c-0.3,0.4-0.5,0.5-0.8,0.8c-1.9,2.4-1.4,4.3-2.9,5.3
		l-0.2,0.2c0.8,0.4,1.8-1.1,2-1.7c1.1-2.7,1.1-2.5,3.5-4.2c2.5-1.7,4.3-3.2,5.9-5.8c1-1.7,1.8-3.4,2-5.7c0.6,0,0.9,1.3,0.8,2
		c-0.2,1.3-1.1,2.9-1.9,4c-0.2,0.3-0.4,0.6-0.6,0.9c-0.2,0.3-0.4,0.5-0.7,0.8l-2.2,2.2c-1.7,1.4-2.9,1.9-4,2.8
		c-0.2,0.2-0.1,0-0.2,0.2c0.8-0.1,1.5-0.7,2.1-0.7c0.3,0.7-0.6,1.2-0.9,1.4c-0.4,0.3-1.5,0.6-1.8,0.8c1,0,1.9-0.6,2.7-0.6
		c-0.1,1.1-1.7,1.5-2.7,1.7c0.2,0.1,0.1,0.2,0.6,0.1c0.2,0,0.4,0,0.6-0.1c0.4-0.1,0.8-0.2,1.3-0.2c-0.2,1.4-2,1.1-2.5,1.5
		c0.5,0.3,1.3,0.1,1.9,0.1c-0.2,0.8-1.1,0.9-2,1.1c0.7,0.9,3.5,1,4.4,1.1c-0.2,0.7-2.3,2.1-5,0.2c-0.4-0.3-0.9-1-1.3-1.1
		c0,0.7,1.1,1.7,1.5,2c1.3,1.1,2.7,2,3.3,3.8c0.2,0.7,0.5,2.6-0.1,3c-0.1-1.3,0-1.7-0.6-2.8c-0.4-0.7-1.1-1.4-1.6-1.8
		c-0.3-0.3-0.5-0.5-0.9-0.8c-1-1-1.4-1.5-1.9-2.8l-0.2-0.3c-0.7,1.8,3.4,5,3.4,5.1c0.2,0.5-0.5,2.3,1.2,3.8c0.3,0.2,0.3,0.1,0.4,0.4
		c-0.5,0.2-1.1-0.1-1.5-0.3c-0.1,0.9,0.5,5.2,1.6,5.5c0.9,0.3,1.3-0.2,2.1,0.4c0,0.5-0.2,0.7-0.4,0.9c-0.5-0.2-0.2-0.4-1.2-0.5
		c-0.5-0.1-1.1-0.1-1.7-0.1c-0.5,0-1.1,0-1.6,0.1c-0.3,0.1-0.4,0.1-0.6,0.2c-0.4,0.3-0.2,0.2-0.4,0.5c-0.2-0.1-0.4-0.1-0.4-0.4
		c0-0.3,0.2-0.3,0.4-0.6c-0.8,0.1-0.6,0.3-1.1,0.4c-0.5-0.7,0.3-0.9,0.9-0.9c0.1-1.2,1.7,0,2.4-0.1c0.4-0.1,0,0,0.2-0.1
		c0.1-0.3-0.3-0.9-0.4-1.2c-0.6-1.4-0.9-2.8-1.2-4.3c-0.2,0.1,0,0-0.2,0.2c-0.2,0.2-0.4,0.4-0.7,0.5c0.3-0.8,0.3-2.2-0.2-3
		c-3.2-0.3-7.2-1.8-8.2-4.8c-0.8-2.4,0.2-4.8,1.8-6.4c0.3-0.3,0.8-0.7,1.2-1c0.9-0.7,3.1-2.2,3.2-3.3c0.2-1.7-2-1.1-2.9-0.9
		l-0.5,0.8c0.8,0.1,0.6,0.2,1.1,0.5c0.2-0.1,0.4-0.2,0.5-0.3c-0.1,1-1.3,1.2-1.8,0.5l-0.2-0.3c-0.7,0.4-0.1,0.5-0.6,1
		c-0.7,0.8-0.2,0.3-0.6,0.9c-1.1-0.2-0.7-1.1,0.3-1.7c0.2-0.1,0.5-0.3,0.6-0.5c-0.6,0-1.9,1-2.1,0c0.7,0,0.6-0.2,1.2-0.4
		c0.6-0.2,0.8,0.1,1.3,0.2l0.4-0.6c-0.2-0.2-0.3-0.2-0.4-0.4l0.6-0.1l0.1-0.7c-0.5,0-1,0.2-1.4,0.3c0.1-0.6,0.4-0.7,0.9-0.9l0.3-0.1
		c0,0,0,0,0.1,0c0,0,0,0,0.1,0l-0.2-0.6l0.5-0.1l0.2,0.6l0.9,0c-0.2-2,4.6,0.4,5.8,0.2c0.4-0.1,0.4-0.3,0.7-0.4c0,0.6-0.3,0.9-0.8,1
		c-0.7,0.2-1.1,0.1-1.8,0c0.3,0.4,1.8,1.3-0.2,3.5c-0.9,1-1.7,1.8-2.3,3.1c-0.3,0.6-0.7,2.6,0.1,2.9c0.6,0,1-3,1.8-4.4
		c0.4-0.7,0.9-1.2,1.4-1.6l0.8-0.7c2-1.9,3.8-3.2,5-5.9C168.3,92.9,167.6,92.7,167.7,92L167.7,92z M156.5,89.8l-1,0l1.2-2.2
		c0.2-0.5,0.8-1.9,1.2-2.2c0.3,0.3,1.3,2.6,1.6,3.3c0.2,0.4,0.5,0.8,0.6,1.1l-1,0c-0.1-0.5-0.2-1-0.5-1.3l-1.6,0
		c-0.1,0.2-0.2,0.4-0.3,0.6C156.6,89.3,156.6,89.5,156.5,89.8L156.5,89.8z M148.2,88.2c-0.2,1-1.2,2-2.5,1.6c-1-0.3-1.7-1.4-1.4-2.7
		C144.8,84.4,148.9,85.1,148.2,88.2L148.2,88.2z M143.5,88c-0.4,2.7-4.5,2.2-4-0.9c0.2-1.1,1.2-2,2.5-1.8
		C143,85.6,143.7,86.7,143.5,88z M172.2,88.8l0,0.7c-1.6,0.9-3.7,0.1-3.8-1.7c-0.1-1,0.4-1.7,1-2c0.9-0.6,1.6-0.5,2.7-0.3l0,0.7
		c-0.7-0.2-1.3-0.5-2.1-0.1c-1.1,0.6-1.1,2.7,0.2,3.1C171.2,89.5,171.6,89,172.2,88.8L172.2,88.8z M152.6,85.4
		c0.6,0,2.8-0.1,2.4,1.4c-0.1,0.4-0.4,0.5-0.6,0.7c0.6,0.3,1.1,1,0.5,1.8c-0.5,0.6-1.4,0.5-2.4,0.5
		C152.9,88.4,152.9,86.8,152.6,85.4z M180.7,85.4c0.8,0,1.7-0.1,2.1,0.4c0.8,0.8-0.1,1.6-0.2,1.7c0.8,0.6,1,1.3,0.5,1.8
		c-0.5,0.5-1.5,0.4-2.4,0.5C180.9,88.5,180.9,86.7,180.7,85.4L180.7,85.4z M173.1,85.4l1,0c-0.3,1.2-0.2,2.6-0.2,3.9
		c0.7,0,1.1-0.2,1.7-0.3l-0.3,0.8l-2.2,0C173.3,88.4,173.4,86.8,173.1,85.4L173.1,85.4z M160.7,85.4l1,0c-0.3,1.3-0.1,2.5-0.2,3.9
		c0.6,0.1,1.2-0.1,1.7-0.3l-0.3,0.8l-2.2,0C161,88.4,160.9,86.8,160.7,85.4L160.7,85.4z M151.7,86.1c-0.4-0.1-0.7-0.3-1.2-0.2
		c0,1.3-0.1,2.6,0.2,3.9l-1,0c0.2-1.3,0.1-2.5,0.2-3.9l-1.4,0.2l0.2-0.7l3.4,0C152,85.4,151.7,86.1,151.7,86.1z M178.7,85.4l1,0
		c-0.3,1.2-0.2,3.2,0,4.4l-0.7,0c-0.1-0.1,0-0.1-0.1-0.2c-0.1-0.2,0,0-0.1-0.2c-1,0.7-2.3,0.6-2.6-0.3c-0.2-0.5,0-2.3-0.3-3.7l1,0
		c-0.2,0.9-0.2,1.4-0.2,2.4c0,0.9,0,1.6,1,1.6c0.9,0,1-0.7,1-1.5C178.9,86.9,179,86.3,178.7,85.4L178.7,85.4z M163.9,85.4l1,0
		c-0.3,1.2-0.2,2.6-0.2,3.9c0.6,0.1,1.2-0.2,1.7-0.3l-0.3,0.7l-2.2,0C164.1,88.7,164.3,86.4,163.9,85.4L163.9,85.4z M138.5,86.1
		c-0.5-0.2-0.6-0.2-1.3-0.2l0,1.5l1.4,0c0,0.3-0.2,0.4-0.4,0.6l-1.1-0.2c0,0.9,0,1.2,0.2,2.1l-1,0c0.3-1.3,0.3-3,0-4.4l2.5,0
		L138.5,86.1L138.5,86.1z M169.1,126.4l-0.9-0.1c0.1-0.2,0-0.2,0.3-0.5l2.2-2.4c0.3-0.4,0.6-0.7,0.8-1.1c1.1-1.4,2-2.8,3.1-4.3
		c4.8-7.2,8.7-18.4,10.2-26.9c0.3-2,0.9-4.6,0.9-6.6l-52,0c0,4.6,2.4,13.8,3.9,18.4c1.1,3.3,2.8,7.4,4.4,10.4c1.1,2,2.8,5.1,4.1,6.9
		c0.6,0.8,1,1.4,1.6,2.2l2.5,3c0.2,0.3,0.8,0.7,0.9,1l-1,0.2l-3.1-3.8c-7.5-9.8-12.1-23-13.8-35.3c-0.6-4.1-1.2-13.6-0.8-17.9
		c0.7,0.2,2.8,1.7,6.5,2.5c5.4,1.1,10.3,0.7,15.3-1.7c2.6-1.2,5.3-3.2,5.6-3.4c0.3,0.2,0.9,0.6,1.3,0.9c1.3,0.9,2.8,1.8,4.3,2.5
		c6.5,3.1,13.8,3.1,20.4,0.1c0.5-0.2,1-0.6,1.5-0.8c0.2,2.1,0.1,6.8,0,9c-0.6,13.3-3.7,25.5-10,37c-0.6,1-1.2,2-1.8,2.9
		c-0.3,0.5-0.7,0.9-0.9,1.4c-0.3,0.5-0.6,1-1,1.4c-0.7,0.9-1.3,1.8-2,2.7L169.1,126.4L169.1,126.4z M144.3,71.3
		c-3.1,0-4.7-0.2-7.5-1.2c-1-0.3-1.9-0.7-2.7-1.2c-0.4-0.2-0.9-0.4-1.3-0.7c-0.3-0.2-1-0.6-1.3-0.7c-0.3,8.3-0.4,14.4,1.2,23.1
		c1.5,8.7,4.7,18.3,9.1,25.7c1,1.7,2.2,3.8,3.4,5.3c0.8,1.1,2.4,3.3,3.4,4.3c0.2,0.2,0.4,0.4,0.5,0.7l-2.1,0.4
		c-2.4-2.4-5.4-7.1-7.3-10.3c-2-3.5-3.9-7.9-5.4-12.2c-3.3-9.4-4.9-19.2-4.9-30.2c0-3.2,0-6.8,0.4-9.9c2.3-0.1,0.6,0.1,3.8,2
		c5.5,3.3,12.6,3.9,18.5,1.3c1.1-0.5,2.1-1,3.1-1.5c0.5-0.3,0.9-0.6,1.4-0.9c0.2-0.2,0.4-0.3,0.6-0.5c0.7-0.6,1.1-0.4,2.6-0.3
		c3.2,0,1.5-0.1,4.5,1.8c1,0.6,2,1.1,3.2,1.6c5.7,2.4,10,2.2,15.7,0.2c1.1-0.4,2.1-0.9,3-1.5l1.9-1.5c0.8-0.7,0.3-0.6,1.7-0.6
		c0.3,1,0.3,8.3,0.3,9.7c0,9.5-1.1,17.6-3.7,26.5c-2.2,7.5-6,16-10.6,22.2l-1.6,2.1c-0.4,0.5-1.3,1.6-1.8,2l-2.1-0.4
		c0.1-0.3,1.6-1.9,2-2.4c0.6-0.8,1.3-1.7,1.9-2.6c8.2-11.4,12.8-26.4,13.7-40.4c0.4-6.6,0.4-7.7,0.1-13.5c-0.3,0-2,1.1-2.5,1.3
		c-6.1,3.1-12.9,3.1-19.2,0.5c-2.5-1-4.7-2.5-6.7-4c-0.3,0.1-0.5,0.3-0.7,0.5c-1.9,1.4-3.6,2.4-5.9,3.4
		C150.1,70.6,148,71.3,144.3,71.3L144.3,71.3z M175.3,68.8c-2.9,0-6.8-1.2-9.3-2.5c-1.4-0.7-1.5-1-2.3-1.5l23.3,0
		c-0.2,0.4-1.8,1.4-2.3,1.6C182.3,67.8,178.1,68.8,175.3,68.8z M144,68.5c-2.3,0-4.5-0.4-6.5-1.1c-1.1-0.4-4.3-1.8-4.9-2.6
		c7.6,0,15.4-0.1,23,0c-1.2,0.9-3.4,2-5,2.6C148.6,68.1,146.6,68.5,144,68.5L144,68.5L144,68.5z M159.5,34.5c-0.1-0.8,0-1.7,0.5-2.1
		c0.5,0.7,0.5,1.3,0.4,2.2c0.7-0.3,1.3-0.4,1.7,0.3c0.4,0.7,0.1,1.3-0.6,1.4c0.3-1.2-0.9-1.4-1.2-0.6c-0.7,1.5,2.2,2.5,4.4,1.2
		c0.3-0.2,0.6-0.5,0.8-0.6c0.1,1.7,0.1,3.3-0.5,4.9c-0.1,0.4-0.4,0.9-0.5,1.3c0.3-0.2,0.4-0.4,0.9-0.4c1.3-0.1,1.5,1.7-0.2,1.4
		c0.1,1.1,1.4,1.7,2.3,1.3c0.2-0.1,0.4-0.3,0.5-0.4c0.1-0.1,0.1-0.1,0.2-0.1c0.5,0.8,0,0.8-0.2,1.3c2.5,1.1,4.6-1.5,2.9-2.3
		c0.1,0.7-0.2,1.1-0.9,1c-1.1-0.6-0.3-2,1-1.7c1.4,0.3,1.2,1.5,1.2,2.4c0.9-0.2,1.8-0.3,2.8-0.3c1.3,0,1.3,0.1,2.2-0.8
		c0.6,0.5,0,1.1-0.1,1.5c2.2,0.4,2.8,2,4.5,2.9c0.9,0.5,1.1,0.3,2,0.1c-0.1,0.7-0.3,0.5-0.5,0.9l3,0c0.6-0.9,0.5-2.9-1-2.6
		c-0.3,0.5-0.1,1,0.6,0.7c-0.1,1.2-1.7,0.6-1.6-0.5c0.1-0.5,0.5-0.8,0.8-0.9c0.6-0.2,1,0.1,1.4,0.3c-0.1-0.9-0.2-2.1,0.4-2.6
		C187.2,44,187,45,187,46c0.4-0.2,0.8-0.5,1.3-0.4c0.4,0.1,0.8,0.4,0.9,0.8c0.4,1.4-1.3,1.8-1.5,0.7c0.3,0.1,0.2,0.1,0.6,0
		c0.2-0.2,0.3-0.7-0.1-0.8c-1.5-0.1-1.6,2.1-0.8,2.7l4.2,0c-0.1,0.2,0,0-0.1,0.2l-0.3,0.3c-0.1,0.1-0.2,0.3-0.3,0.4
		c-0.2,0.3-0.3,0.7-0.4,1.1c-0.2,0.8-0.1,1.8,0.2,2.5c0.8,1.9,2.3,1.4,2,0.4c-0.1-0.4-0.5-0.4-0.7-0.7c0.6-0.7,2,0.5,1.4,1.6
		c-0.4,0.9-1.8,0.9-2.5,0.4c-0.6-0.5-1.1-1.3-1.3-2.3c-0.3-1.4,0-1.9,0.3-3.1l-7.2,0c-1.3,0-1.1-0.4-1.9-0.6c0,0.4,0,0.8-0.2,1.1
		c-0.6-0.2-0.7-0.6-1.2-0.9c-0.1,0.7-0.6,1.6-1.3,1.6c0-1,0.1-2.4-0.6-2.9c-0.5,0.7-0.5,1.4-1.8,1.4c0.1-0.9,0.2-1.3-0.3-2
		c-1.1-1.7-4.1-1.1-5,0.2c0.3,0.2,0.6,0.4,0.8,0.7c0.2,0.4,0.2,0.8,0.1,1.2c-0.7-0.2-1-0.4-1.6,0c-1.3,0.9-0.7,3.3,0.5,3.9
		c0.3-0.3,0.3-0.7,0.9-0.9c0,0.9,0.5,1.3,1.2,1.5c2.9,0.7,3.6-3.7,0.6-3.5c0.1,0.2,0,0.1,0.1,0.2c0.1,0.2,0.2,0.2,0.3,0.4
		c0.1,0.9-1.1,1.1-1.6,0.5c-1.4-1.7,2.4-2.9,3.7-0.6c0.8,1.4,0,2-0.2,2.8c0.6-0.2,1.5-0.5,2-0.8c0.7-0.4,1.2-0.6,1.2-1.6
		c0.6,0.1,0.7,0.3,0.7,0.9c0.7-0.3,1.4-0.7,2.2-1c0.9-0.3,1.6-0.6,2.6-0.8c2.1-0.3,4,0.3,4.5,2c0.9,2.8-3.1,3.9-4.2,1.8
		c-0.6-1.1,0.7-2,1.3-1.2c0.3,0.5,0,0.8-0.2,1.2c0.6,0.2,1,0.3,1.6,0c0.4-0.2,0.8-0.6,0.7-1.2c0-1.1-1-1.6-1.9-1.9
		c-1.6-0.4-5.1,0.8-5.9,1.6c0.7,0.4,1.5,0.4,1.5,1.6c-0.9-0.3-1-0.6-2.2-0.6c-2.5-0.1-4.2,1.4-6.8,1.4c-3.7,0-5.9-3.1-5.2-6.4
		c0.3-1.5,0.8-1.5,1.4-2.5l-1.3-0.3c0.1,0.7-0.2,1-0.9,0.9c0.4-1.9-2.2-1.8-2.3-4.1c-0.2,0.1-0.6,0.8-0.8,1.1
		c-0.3,0.4-0.6,0.8-0.8,1.1c-0.6,0.7-1.3,1.3-2.1,1.8l0,2.9c0.4-0.6,0.4-1.3,1.2-2.2c2.2-2.4,4.9,0.5,4.8,3.5c0,1-0.2,1.9-0.6,2.6
		c-0.9,1.7-2.8,2.3-4.2,0.9c-0.9-1-0.7-1.3-1.2-2.1l0,3.6l23.3,0c3.9,0,7.9-0.1,11.8,0l0,7.6l-58.8,0c-4.2,0-8.4,0.1-12.6,0l0-7.6
		l7.9,0c9.1,0,18.1-0.1,27.2,0l0-3.4c-0.4,0.4-1.2,3.4-3.7,2.6c-1.4-0.4-2.3-2.4-2.3-4.2c0-2.8,2.4-5.8,4.8-3.6
		c0.4,0.4,0.7,0.9,1,1.5l0.3,0.6c0-0.2,0.1-2.3,0-2.6c-0.1-0.1-2.9-2.2-3.5-4l-0.2,0.4c-0.2,0.7-0.6,1.2-1.1,1.7
		c-0.5,0.5-1.3,0.9-1.1,2c-0.9,0.2-0.9-0.9-0.9-0.9l-1.2,0.2c0.2,0.5,2.5,2.5,1,5.9c-0.7,1.6-2.4,3-4.9,3c-3.5,0-5.3-2.6-8.9-0.8
		c-0.2-1.1,0.9-1.2,1.5-1.6c-0.9-0.9-4.4-1.9-5.9-1.6c-3.1,0.7-2,4.1,0.5,3.1c-0.1-0.3-0.1-0.1-0.2-0.4c-0.2-0.3,0-0.9,0.3-1.1
		c2.2-0.2,1.3,2.6-1.1,2.5c-3.5-0.2-2.8-5.8,2.8-4.8c1.6,0.3,3,1.1,4.3,1.7c0.1-0.1,0,0,0.1-0.2c0.1-0.4,0.2-0.7,0.8-0.7
		c-0.1,1.6,2.1,2,3.2,2.4c-0.1-0.4-0.4-0.7-0.5-1.3c-0.1-1.6,1.1-2.8,2.8-2.7c1.1,0.1,2,1,1.2,1.9c-0.5,0.5-1.7,0.3-1.5-0.6
		c0.1-0.3,0.3-0.3,0.4-0.6c-1.9-0.1-2.6,1.9-1.5,3c1,1,3.4,0.7,3.3-1c0.5,0.1,0.7,0.5,0.8,0.9c0.9-0.3,1.5-1.5,1.2-2.8
		c-0.4-2.1-2-1.2-2.3-1.2c-0.2-1.4,0.2-1.3,0.9-1.9c-0.8-1.5-3.8-1.8-5-0.2c-0.5,0.7-0.4,1.1-0.3,2c-1,0.1-1.5-0.6-1.7-1.4
		c-0.9,0.5-0.7,2.2-0.7,2.9c-0.8,0.1-1.1-0.9-1.4-1.6c-0.4,0.3-0.6,0.7-1.2,0.9c-0.2-0.3-0.2-0.7-0.3-1c0,0,0,0,0-0.1c0,0,0,0,0-0.1
		l-0.4,0.3c-0.1,0.1-0.3,0.1-0.4,0.2c-1.1,0.3-6.1,0.1-8.2,0.2c0.3,1.2,0.6,1.7,0.3,3.1c-0.2,1-0.6,1.9-1.3,2.3
		c-0.8,0.6-2.1,0.5-2.5-0.4c-0.5-1.1,0.8-2.2,1.5-1.6c-0.3,0.3-0.6,0.2-0.7,0.7c-0.1,0.5,0.2,0.8,0.6,0.8c1.8,0.2,2.1-3.5,1.2-5
		l-0.6-0.7c0,0,0,0,0-0.1l4.3,0c1-1.3,0-3.5-1.2-2.5c0,0.6,0.2,0.7,0.7,0.5c0,0.3,0,0.4-0.3,0.6c-1.3,0.6-1.8-1.6-0.3-2
		c0.6-0.2,1,0.1,1.4,0.3c0-1-0.1-1.9,0.5-2.5c0.6,0.8,0.5,1.4,0.4,2.6c0.4-0.2,0.8-0.5,1.4-0.3c0.3,0.1,0.8,0.5,0.8,0.9
		c0.2,1.2-1.6,1.7-1.6,0.5c0.2,0.1,0.4,0.1,0.7,0c0.1-0.2,0.1-0.4,0-0.6c-1.2-0.8-2,1.6-1.1,2.5l2.9,0c-0.2-0.4-0.4-0.2-0.5-0.9
		c0.8,0.2,1.1,0.4,1.9-0.1c1.6-0.9,2.1-2.4,4.5-2.9c-0.3-0.5-0.7-0.7-0.2-1.4c0.2,0.1,0.1,0,0.3,0.2c0.6,0.6,1.1,0.6,2,0.6
		c1.1,0,1.8,0.1,2.8,0.3c-0.1-0.8-0.1-1.4,0.3-1.9c1.1-1.3,3.1,0.1,2.1,1.1c-0.5,0.5-1.4,0.2-1.2-0.8c-0.5,0.2-0.7,0.7-0.5,1.3
		c0.3,1.2,2.6,1.8,3.5,1c-0.3-0.3-0.7-0.8-0.2-1.2c0.3,0.3,0.3,0.4,0.7,0.6c1,0.3,2.1-0.2,2.2-1.3c-1.7,0.4-1.6-1.4-0.2-1.4
		c0.4,0,0.6,0.3,0.8,0.4c-0.6-1.7-1-2.7-1-4.9c0-0.3-0.1-1.5,0.3-1.1c2.3,2,5.7,1,4.9-0.8c-0.2-0.6-1.6-0.6-1.2,0.7
		c-0.8-0.1-1-0.9-0.6-1.5C158,34.2,158.8,34.2,159.5,34.5L159.5,34.5z M157,36.7c-0.7,0-1.4-0.4-1.8-0.8c-0.4-0.4-0.9-1.1-1.3-1.4
		c-0.2,1-0.5,2.3-0.5,3.4c0,1.4,0.2,2.1,0.5,3.4c-0.6,0.3-0.9,0.3-1.3,1c-0.4,0.8,0,1.2,0.3,1.8c-0.6-0.1-0.7-0.6-1.1-1.1
		c-0.2,0.1,0,0-0.2,0.1l-0.5,0.4c-0.3-0.7-0.2-0.9-0.7-1.3c-0.8-0.7-2.4-0.5-3.1,0.3c-0.1,0.1-0.3,0.4-0.4,0.6l-0.2,0.6
		c-0.2,0.4,0,0.1-0.1,0.3c-0.7,0-1.4,0-2.2-0.1c-1.3,0-0.7-0.6-1.3-0.8l-1,0c-0.1,0.1-0.4,0.6-0.5,0.7c-0.2,0.4-0.2,0.7-0.2,1.1
		c-2.3,0.9-3.1,3.2-4.8,2.6c0.2-1.7-0.5-2.4-2.1-2.6c-0.1-1.2-0.5-1.8-1.1-2.3c-1.3,0.1-1.4,1.1-1.7,2.2c-1.5,0.1-2.5,1.1-2.2,2.5
		c0.1,0.6,0.4,0.6,0.5,1c-1.9,0-2.8-0.3-3.1,1.3c1.1,0.5,1.6,1.5,1.4,3.1c-0.4-0.2-0.5-0.5-1.3-0.4c-1.5,0.1-2.1,1.5-1.5,3.2
		c-2.3,0.1-2.3-0.2-2.3,2.2l0,5.6c0,1.9,0.8,1.5,3.1,1.5l2.4,0c0,1.3-0.2,2.9-0.2,4.3c-0.4,14.6,1,26.6,6.5,40.2
		c0.3,0.8,1.6,3.5,1.7,4c-1.3,0.7-2.5,1.5-4,2.1c-0.6,0.3-4.1,1.6-4.5,1.5l0-0.2c0.2-0.1,0.4-0.1,0.7-0.2c0.6-0.2,1.2-0.7,1.2-1.5
		c0-1.2-0.8-1.7-1.8-1.8c0-0.8,0.4-1.3,1-1.5c0.9-0.4,0.8-0.7,0.7-1.7l-0.4-0.3c0.8-0.4,1.5-1.8,1.9-2.7c0.4-1.3,0.4-2.9,0.2-4.2
		c-0.3-1.3-0.8-2.3-1.2-3.5c-0.7-2.3,0.7-2.4,0.1-3.9l-1.5,0c-0.1-1.4-0.4-3.2-1-4.2c-0.2-0.4-0.8-1.2-1.1-1.5
		c-0.3-0.3-1.1-0.9-1.7-0.9c-0.1,0.7-0.1,1.7-0.2,2.3c-0.1,0.5-0.3,1.7-0.5,2c-0.1-0.9-0.1-1.4-0.7-1.8l-0.2,0.4
		c-0.4,1.4,0.2,2.9,0.2,3.1c-0.2,0.4-0.4,0.5-0.6,1c-0.2,0.4-0.3,0.7-0.5,1.2c-0.3,0.8-0.5,1.8-0.8,2.5c-0.4-0.1-0.7-0.4-1.2-0.5
		c-0.5-0.1-1,0.2-1,0.7c-0.1,0.5,0.5,2.4,0.5,3.3c0,2.2-0.1,4,1.2,5.8c0.2,0.3,0.9,1,1.2,1.1c-1,2.5,1.6,1.1,1.7,3.4
		c-2.5,0.3-2.5,3.2,0,3.5l0,0.7c-2,0-3.5-1.2-5.1-1.7c-0.1,1.4,0.2,1.4,1,2.5c0.3,0.4,0.4,0.7,0.7,1.1c0.8,0.9,1.4,2.5,3,4
		c0.3,0.3,0.7,0.5,1,0.8c-0.8,0.8-1.6,1.5-2.6,2.2c-0.4,0.3-1,0.7-1.4,0.9l-1.6,0.8l0,1c1.6,1.2,4.8,2,7.2,2c1.5,0,3.4-0.2,4.7-0.5
		c1.6-0.4,2.6-0.9,4-1.3c0.4,0.5,0.8,1.2,1.1,1.8c0.7,1.3,2.9,4.1,3.7,5.2c1,1.3,1.9,2,2.8,3c2.9,2.9,6.3,1.4,9.9,0.7
		c5.4-1,10.1-0.7,15.5,0.5c2,0.5,4,1.2,6.1,0.6c0.7-0.2,1.2-0.5,1.6-0.8c1.2-1.1,2.4-2.2,3.5-3.5c1.4-1.8,2.8-3.5,4.1-5.5
		c0.3-0.4,0.6-1.2,0.9-1.6c1.1,0.1,3.4,1.5,8,1.8c1.5,0.1,3,0,4.4-0.4c1.3-0.3,2.9-1.3,3.6-1.4l0-1.1c-0.6-0.5-1.5-0.8-2.3-1.4
		c-0.3-0.2-0.5-0.3-0.7-0.5c-0.6-0.4-2.2-1.7-2.6-2.2c0.4-0.4,0.7-0.5,1.2-1c1.8-1.8,2.3-2.9,3.5-5.2c0.3-0.6,0.1-1.3-0.5-1.4
		c-0.5-0.1-1.2,0.3-1.6,0.5c-0.6,0.2-1.2,0.4-1.8,0.4l0-0.9c1.1-0.1,1.8-0.6,1.9-1.7c0-0.6-0.2-0.9-0.5-1.2
		c-0.4-0.4-0.7-0.4-1.3-0.5c0-2.4,2.7-0.8,1.7-3.4c0.7-0.3,1.5-1.4,1.9-2.3c0.5-1.2,0.6-2.2,0.6-3.6c-0.1-3,1.1-5-0.3-5.1
		c-0.6,0-1.1,0.5-1.5,0.5c-0.1-0.4-1.4-4.7-1.6-4.3l-0.1,0c-0.9-0.2,0.6-2.4-0.3-3.9c-0.6,0.4-0.6,1.2-0.7,1.7l-0.1,0.1
		c-0.2-0.8-0.2-1.2-0.3-2.1c-0.1-0.7-0.1-1.5-0.2-2.2c-1.2,0.1-2.4,1.6-2.8,2.4c-0.6,1.1-0.9,2.8-1,4.3l-1.5,0
		c-0.6,1.6,1,1.7-0.2,4.7c-0.6,1.6-1.1,2.7-1.1,4.7c0,1.2,0.2,2.1,0.6,3c0.6,1.3,1.1,1.5,1.5,2.1l-0.4,0.2c-0.1,0.9-0.2,1.3,0.7,1.7
		c0.6,0.3,0.9,0.8,1,1.5c-1,0.2-1.9,0.5-1.9,1.8c0,0.5,0.3,1.1,0.5,1.3c0.3,0.3,0.8,0.4,1.3,0.5l0,0.5c-1.4-0.1-7.5-2.7-8.6-3.7
		c0.1-0.4,0.7-1.5,0.9-2c0.3-0.6,0.6-1.4,0.9-2.1c2.4-5.8,4.3-12,5.3-18.1c1.4-8,1.4-14.3,1.4-22.2c0-1.4-0.2-2.9-0.2-4.3
		c1.5,0,3,0,4.5,0c1.6,0,1.2-1,1.2-4.1l0-5.2l-2.3,0c0.3-1,0.5-1.8-0.3-2.6c-1.1-1.1-1.8-0.5-2.5-0.2c-0.2-1.7,0.2-2.6,1.4-3.2
		c-0.3-1.6-1.3-1.3-3.1-1.3c0.2-0.4,0.4-0.4,0.5-1c0.2-1.4-0.7-2.4-2.3-2.5c-0.1-1.1-0.5-2.1-1.7-2.2c-0.8,0.6-0.8,1-1.1,2.2
		c-0.7,0.4-2.3,0-2.1,2.7c-0.7,0.2-0.8,0.2-1.4-0.2c-0.8-0.5-1.4-1.2-2.2-1.8c-0.4-0.3-0.9-0.5-1.3-0.7c0-1-0.2-1.1-0.5-1.8l-1.1,0
		c-0.8,0.9,0.2,0.8-2.2,0.8l-1.3,0.1c-0.4-2.8-4.3-2.9-4.5-0.4c-0.2-0.1-0.2-0.1-0.4-0.2c0,0-0.1-0.1-0.1-0.1
		c-0.2-0.2,0-0.1-0.2-0.1c-0.4,0.4-0.4,1.2-1.1,1.1c0.3-0.4,0.6-0.9,0.4-1.7c-0.3-0.8-0.7-0.7-1.3-1.1c0.1-1,1.2-5.4-0.2-5.8
		c-0.5-0.1-0.7,0.1-1,0.3c-0.5,0.4-1.1,0.8-2,0.9c0.3-0.9,0.6-1.1,0.1-2.1c-0.4-0.8-0.8-0.8-1.6-1.1c-0.1-0.6-0.2-1.1-0.5-1.6
		c-0.1-0.2-0.2-0.2-0.3-0.4h-1c-0.1,0.4-0.5,0.8-0.7,1.4c-0.2,1-0.2,0.2-1.2,0.9c-0.4,0.2-0.7,0.7-0.8,1.2
		C156.5,35.7,156.8,36.1,157,36.7L157,36.7z M159.2,40.2l-0.2-0.2l0.4-0.1c0,0,0,0,0.1,0c0.6-0.2,0.4,0,1.2,0.1
		c-0.2,0.2-0.1,0.1-0.4,0.2c0.2,0.8-0.8,0.9-0.5,1.7c0.1-0.1,0,0.2,0.2-0.4c0.2-0.8,0.6-0.6,1.3-1.5c0.3-0.4,0.1-0.4,0.4-0.7
		c0.2,0.2,0.1,0.1,0.2,0.3l0.2,0.3c0.1-0.3,0.2-0.6,0.3-0.9c0,0,0.2,0,0.2,0.6c0,0.6-0.2,0.6-0.4,1.1c-0.1,0.2,0,0.3-0.1,0.5
		c-0.3,0.7-0.5,1.2-1,1.6c0.6,0.3,0.8,0.7,0.6,1.5c-0.3-0.4,0-0.9-0.7-1.3c0.2,0.4,0.2,0.3,0.2,0.8c0-0.3,0-0.4-0.3-0.6
		c-0.1,0.3,0.1,0.5,0.2,0.7c-0.2,0-0.1,0-0.2,0.1c0,0.2,0.1,0.6,0.2,0.7c0.3,0.3,0.3-0.1,0.4,0.3c-1-0.3-0.8,0.2-1.3-0.2
		c0.4-0.2,0.2-0.1,0.6-0.1l-0.4-1c-0.2-0.4,0-0.4-0.3-0.4c0,0.5-0.1,0.7-0.6,1.4c0.3,0.2,0.3,0,0.4,0.3c-0.9-0.1-0.9,0.1-1.1,0
		l-0.1-0.1c0,0,0,0,0,0c0.4-0.2,0.3-0.1,0.6-0.1c0.2-0.3,0.3-0.6,0.5-0.9l-0.1-0.7c-0.6-0.2-1.2-0.7-0.7-1.5c0.3-0.5,1.1-0.7,1-1.2
		c-0.1-0.1,0.1,0-0.2-0.1C159.4,40.2,159.3,40.2,159.2,40.2L159.2,40.2L159.2,40.2z M155.3,38.3c-0.1,1.8,0.6,3.5,1.4,4.8
		c0.6,1,2,2.6,3.1,3.1c1.2-0.7,2.4-1.9,3.1-3.1c0.7-1.1,1.6-3.1,1.4-4.8c-1.7,0.2-2.5,1-4.4-0.5c0,0,0,0-0.1,0l-0.1,0.1c0,0,0,0,0,0
		C158,39.3,156.3,38.4,155.3,38.3L155.3,38.3z M190.2,108c-0.5-2.4-0.3-3.6,0.7-5.6c0.8-1.5,2-2.7,2.1-4.7c0.5,0.2,1,1.5,1.2,2.3
		c1,4.2,2.4,4.3,2.2,8.2c1.1-0.7,1.4-3.7,1-5.4c-0.1-0.3,0-0.2-0.2-0.4c-0.3,0.4-0.6,0.6-0.7,1c-0.1-0.1-0.1,0.1-0.1-0.3
		c-0.2-0.6,0-0.8-0.6-2.4c-0.7-2-1.2-2.9-2-4.6c-0.5-1.1-0.7-2.1-0.8-2.5c-0.2,0.4-0.3,1.4-0.4,1.9c-0.1,0.6-0.3,1.3-0.5,1.9
		c-0.7,2.4-2.3,5.4-2.5,6.7c-0.2,0.9-0.1,2.1,0.3,3l0.3,0.6c0,0,0,0,0,0.1L190.2,108z M123,108.2c0-0.5-0.1-1.1,0-1.7
		c0.2-1.7,0.7-2.4,1.3-3.9c0.8-1.8,1-4.5,2-5c0,2,1.3,3.2,2,4.7c1,2,1.2,3.1,0.7,5.6l0.3-0.4c1.6-3.5-0.9-6-2.1-10.2l-0.9-3.7
		c-0.8,3.5-3,5.6-3.4,9.8c-0.3-0.2-0.5-0.8-0.9-1C121.7,104.3,121.7,106.7,123,108.2L123,108.2z M176.8,75.3
		c2.5-0.7,3.1,5.7,0.9,6.3c-1.5,0.4-2.2-1.6-2.3-2.7C175.2,77.6,175.4,75.7,176.8,75.3L176.8,75.3z M176.7,74.4
		c-1.1,0.2-1.7,0.7-2.2,1.5c-1.5,3,0.1,7.3,3.4,6.6c1.9-0.4,2.9-2.4,2.6-4.8C180.3,75.8,178.9,73.9,176.7,74.4z M169.5,75.4
		c2.6-0.9,3.2,5.5,1,6.2C168.1,82.4,167.1,76.2,169.5,75.4z M169.5,74.4c-4.2,0.8-3.2,9,1.2,8.1c1.8-0.4,2.8-2.4,2.6-4.6
		C173.1,76,171.7,74,169.5,74.4z M157.1,75.3c2.3,0,2,2.5,0,2.7L157.1,75.3z M155.2,82.4l2.4,0c-0.1-0.7-0.6-0.1-0.5-3.4l0.2,0.3
		c0.1,0.1,0.1,0.2,0.1,0.3c0.6,1,2.1,3.7,3.6,2.8c-0.8-0.8-0.7-0.6-1.4-1.7c-0.3-0.4-1.1-1.6-1.2-2.1c0.6-0.4,1-0.5,1.3-1.1
		c0.4-0.7,0.3-1.5-0.1-2.1c-0.8-1.1-2.7-0.9-4.3-0.9c0.1,0.6,0.4,0.3,0.4,1.9c0,1.2,0.1,4.4-0.2,5.3c0,0.1-0.1,0.2-0.2,0.4
		C155.2,82.2,155.2,82,155.2,82.4L155.2,82.4z M149.8,82.2c0.4,0.2,3.6,0.1,4.4,0.1c0.2-0.6,0.5-1.2,0.6-1.8
		c-0.9,0.4-0.9,0.9-2.9,0.9l0-2.8c1.5,0,1.3,0.4,1.9,0.5l0-2c-0.4,0.1-0.2,0-0.4,0.2c-0.4,0.3-1,0.4-1.5,0.3l0-2.5
		c0.5,0,1,0,1.4,0.1c0.8,0.2,0.6,0.4,1,0.5c0-0.4,0-1.1-0.2-1.5c-0.4-0.2-3.5-0.1-4.2-0.1c0,0.5,0.5,0.3,0.5,1.7
		c0,1,0.1,4.6-0.2,5.4C150.1,81.9,149.9,82,149.8,82.2L149.8,82.2z M145.1,82.3l1.1,0c0.1-0.6,0.5-1.4,0.7-2.1
		c0.3-0.9,1.5-4.4,1.9-5c0.5-0.7,0.6-0.4,0.6-0.8l-2.2,0c0,0.8,0.8-0.2-0.3,3c-0.3,0.9-0.7,2-1,2.8c-0.3-0.3-0.9-2.4-1-2.9
		c-1-3.1-0.3-2-0.3-2.9l-2.5,0c0.1,0.4,0.4,0.3,0.9,1.8c0.2,0.7,0.5,1.4,0.7,2.1c0.2,0.7,0.5,1.4,0.7,2
		C144.6,80.8,144.9,81.6,145.1,82.3L145.1,82.3z M163.4,75.4c2.4-0.3,2.3,2.9,0,2.9l0-2.1L163.4,75.4L163.4,75.4z M161.6,82.4
		c0.6,0,1.5,0.1,2.1,0c-0.1-0.4-0.3-0.5-0.4-1.3c0-0.6-0.1-1.2,0-1.8c0.8-0.4,1.5,0,2.4-0.9c1.2-1.1,1-3.3-1-3.8
		c-0.5-0.1-2.6-0.2-3.1-0.1c0.1,0.6,0.5,0.2,0.4,1.7c0,0.9,0,4.7-0.1,5.3C161.8,81.9,161.6,82,161.6,82.4z M180.9,74.4
		c0.2,0.5,0.5,0.2,0.5,1.7c0,1,0.1,4.7-0.2,5.5c-0.1,0.4-0.3,0.4-0.4,0.8l4.3,0c0.2-0.4,0.6-1.4,0.6-1.9c-0.3,0.1-1.4,1.2-2.9,0.9
		c0-1.2-0.3-5.5,0.3-6.4c0.2-0.3,0.3-0.2,0.3-0.6L180.9,74.4L180.9,74.4z M134.2,82.3l4.1,0c0.1-0.1,0,0,0.1-0.2
		c0.1-0.2,0,0,0.1-0.2l0.5-1.5c-0.4,0.2-1.5,1.2-2.9,0.9c0-1-0.2-5.5,0.2-6.4c0.2-0.4,0.3-0.2,0.3-0.7l-2.4,0c0.1,1.1,0.4-0.9,0.4,4
		C134.7,82.9,134.4,81.2,134.2,82.3L134.2,82.3z M139.2,82.3l2.5,0c0.1-0.5-0.4-0.2-0.5-1.6c0-1-0.1-4.7,0.2-5.5
		c0.1-0.3,0.3-0.5,0.3-0.8l-2.2,0c0,0.4,0.2,0.4,0.3,0.8c0.1,0.6,0.2,5.6-0.1,6.4C139.4,82,139.2,82,139.2,82.3L139.2,82.3z
		 M144.8,131.9c0.8,1,0.5,0.5,1,2.1c0.2,0.9,0.5,1.7,0.1,2.5c0.4,0.1,3-0.6,3.3-0.8c0-0.4,0.1-0.8-0.1-1.2c-0.4,0.1-0.6,0.9-2,1.1
		c-0.1-0.4-0.4-1.2-0.3-1.6c0.9-0.2,0.8,0,1.4,0.2c0-0.5-0.2-1.3-0.4-1.6c-0.2,0.2-0.2,0.4-0.5,0.5c-0.2,0.1-0.5,0.3-0.7,0.3
		c-0.2-0.3-0.4-1-0.3-1.4c1.9-0.4,1.3,0,2.1,0c0-0.3-0.2-0.7-0.4-0.9C147.5,131.2,145,131.7,144.8,131.9L144.8,131.9z M170.2,132.3
		c0.1,0.2,0.1,0.2,0.3,0.4c0.4,0.4,0.1,0.3,0.4,0.4c0.2-0.3,0.1-0.7,0.5-0.8c0.8-0.4,1.4,0.7,0.5,1.6c-0.5,0.5-1.2,1-1.9,1.4
		c-0.7,0.4-0.9,0.3-1.2,0.6c0.2,0.2,0.5,0.2,0.9,0.3c0.3,0.1,0.6,0.1,0.9,0.2c0.6,0.1,1.3,0.4,1.8,0.4c0.2-0.1,0.9-1,0.5-1
		c-0.2,0-0.3,0.1-0.9,0.1c-0.2,0-0.3,0-0.5-0.1c-0.5-0.1-0.4-0.1-0.5-0.2c0.3-0.3,2.5-1.2,2.4-2.8c-0.1-0.7-0.6-1.2-1.3-1.3
		C171,131.4,170.6,131.9,170.2,132.3L170.2,132.3z M164.4,134c-0.3,0.9-1.8,0.4-1.3-0.8c0.1-0.3,0.6-0.6,1-0.3
		C164.4,133,164.5,133.6,164.4,134z M163.9,130.7c0.8-0.5,1.1,0.8,0.5,1.1c-0.4,0.2-0.7,0-0.8-0.3
		C163.5,131.1,163.7,130.9,163.9,130.7L163.9,130.7z M163.3,132.2c-0.2,0.3-1,0.5-1,1.5c0,1.6,2.2,1.9,2.9,0.6
		c0.4-0.9-0.1-1.3-0.5-1.8c0.4-0.3,0.9-0.6,0.8-1.3c-0.1-1.2-1.9-1.6-2.5-0.4C162.6,131.4,163.1,131.9,163.3,132.2L163.3,132.2z
		 M161.9,58.2c-0.3-0.1-1.2-0.1-1.5,0c0.2,0.3,0.3,0.2,0.6,0.9l0.7,2.2c0.3,0.8,0.2,0.8,0.5,0.9c0.2-0.1,0.2-0.1,0.3-0.5L163,60
		c0.3,0.3,0.5,1.6,0.8,2.2l0.3,0c0.2-0.4,0.6-1.6,0.8-2.1c0.8-2.3,0.6-1.2,0.9-1.9l-1.4,0c0.4,0.7,0.3,0.6,0.1,1.4
		c-0.1,0.4-0.2,1-0.5,1.3l-1-2.6c-0.4,0.6-0.6,1.9-0.9,2.6c-0.1-0.2-0.6-1.7-0.6-2C161.7,58.4,161.8,58.4,161.9,58.2L161.9,58.2z
		 M167.3,132.5c-0.2-1.4,1.1-1.4,1.3-0.7C168.8,132.6,168,133.3,167.3,132.5z M168.1,133.5c-0.3,0.6-1.3,1.3-2.1,1.5
		c0,0-0.2,0-0.2,0c-0.2,0.1-0.1,0-0.1,0.1c1.1,0.7,2.1,0.1,2.8-0.7c0.5-0.5,1.4-1.7,0.9-2.9c-0.5-1.1-2-1.1-2.7-0.3
		C166.2,131.9,166.1,133.5,168.1,133.5L168.1,133.5z M187.2,58.2c0,0,0.2,0.4,0.3,0.4c0.2,0.4,0.1,1.2,0.1,1.7c0,1.9-0.1,1.3-0.4,2
		l1.2,0c-0.1-0.3-0.1-0.1-0.3-0.5c-0.1-0.3-0.1-1.9,0-2.3c0.3,0.2,1.8,2.4,1.9,2.8l1,0c-0.2-1.2-0.2,0-0.2-2.1c0-2.2,0.1-1.2,0.4-2
		l-1.2,0c0.1,0.3,0.2,0.2,0.3,0.5l0,2.3c-0.3-0.2-0.7-1-1-1.3c-0.4-0.6-0.5-0.6-0.8-1.5L187.2,58.2L187.2,58.2z M159.4,112.7
		c-0.1-0.2,0,0-0.2-0.2c-1.1-0.9-2.1-1.4-2.7-3.4c-0.5-1.4-0.3-2.7,0.2-4.1c0.2-0.4,0.5-0.7,0.6-1.1c-0.6,0.3-1.3,1.3-1.7,2
		C154.2,108.9,156.5,112.2,159.4,112.7L159.4,112.7z M150.3,134.3c0,0.3,0.2,0.9,0.4,1.1c0.7-0.1,2.8,0,2.6-1.8
		c-0.2-1.5-2.4-1.2-2.6-1.9c-0.1-0.5,0.3-0.8,0.7-0.8c0.6-0.1,0.7,0.3,1.1,0.4c0-0.4-0.1-0.6-0.2-1c-1.1-0.1-1.9,0-2.3,0.7
		c-0.5,0.8-0.1,1.5,0.9,1.9c0.7,0.3,1.9,0.3,1.6,1.4c-0.1,0.4-0.6,0.6-1.1,0.5C150.8,134.8,150.6,134.4,150.3,134.3L150.3,134.3z
		 M143.3,58.1c0.4,0.9,0.3,1,0.3,2.1c0,1.8-0.1,1.2-0.3,2l1.2,0c-0.2-0.5-0.3-0.1-0.3-1.2c0-0.5,0-1.1,0-1.6
		c0.3,0.2,1.8,2.5,1.9,2.8l0.9,0c-0.1-0.5-0.2-0.4-0.2-1.1c-0.2-2.8,0.3-2.6,0.3-3l-1.1,0c0.1,0.4,0,0,0.2,0.3
		c0.2,0.4,0.1,2.1,0.1,2.6c-0.2-0.1-1.7-2.2-1.8-2.8L143.3,58.1L143.3,58.1z M140.2,87.8c0.3,2.1,2.9,1.9,2.7-0.4
		C142.6,85.2,139.8,85.5,140.2,87.8z M144.9,87.8c0.3,2.1,2.9,1.9,2.7-0.4C147.3,85.2,144.5,85.5,144.9,87.8z M153.4,130.1
		c0,0.4-0.2,0.9,0,1.2c0.3-0.1,0.1,0,0.3-0.3c0.1-0.2,0.1-0.2,0.3-0.3c0.3-0.2,0.5-0.2,0.9-0.2c0.1,0.8,0.3,2.7,0.2,3.4
		c-0.1,0.4-0.3,0.6-0.3,0.8c0.3,0,1.5,0,1.8-0.2c-0.5-0.8-0.4-0.7-0.5-1.9c-0.1-0.6-0.2-1.7-0.2-2.2c1.1,0,1,0.4,1.6,0.5l-0.3-1.2
		C156,129.7,154.5,130,153.4,130.1L153.4,130.1z M132.1,58.1c0.2,0.5,0.4,0.1,0.4,1.5c0,0.5,0,1.3,0,1.8c0.2,1.1,1.6,1,2.2,0.4
		c0,0,0,0,0,0.1s0,0,0,0.1c0.2,0.3-0.1-0.3,0.1,0.1c0,0,0,0.1,0,0.2l0.9,0c-0.1-0.4,0-0.1-0.2-0.4c-0.2-0.3-0.1-2.5-0.1-2.9
		c0-0.5,0.2-0.5,0.4-0.8l-1.4,0c0.1,0.3,0.2,0.3,0.3,0.6l0,2.3c-0.3,0.4-0.5,0.7-1.3,0.6c-0.5-0.4-0.3-1.1-0.3-1.8
		c0.1-1.8,0-0.9,0.4-1.8L132.1,58.1L132.1,58.1z M172.1,58.2c0.3,0.4,0.3,0.2,0.3,0.8c0.1,3.4-0.3,2.5-0.3,3.2l1.3,0
		c0-0.3-0.3-0.2-0.3-0.8c0-0.4,0-0.8,0-1.1c0.6,0.6,1,1.3,1.6,2l1.1,0c0-0.2,0-0.1-0.2-0.3c-0.6-0.4-1.4-1.5-1.8-2.1
		c0.3-0.4,1.1-1.2,1.5-1.5l0.2-0.2l-1.5,0c0.1,0.5-0.1,0.7-0.3,1c-0.2,0.2-0.4,0.5-0.6,0.6c0-1.3,0-1,0.4-1.6
		C173,58.1,172.5,58.1,172.1,58.2L172.1,58.2z M184.5,60.2c-0.2-2.4,1.8-2.2,1.9,0C186.5,62.4,184.7,62.5,184.5,60.2z M183.8,60.5
		c0.1,1,0.9,2,2,1.8c1-0.2,1.5-1.3,1.3-2.5C186.8,57.1,183.4,57.6,183.8,60.5z M178,60.8c0-0.3,0.4-1.3,0.6-1.6
		c0.2,0.3,0.5,1.2,0.6,1.6L178,60.8z M177.9,62.2c-0.1-0.3-0.1-0.1-0.2-0.4c-0.1-0.2,0-0.3,0.1-0.5l1.6,0c0.3,0.6,0,0.5-0.1,0.9
		l1.6,0c0-0.1-0.4-0.5-0.6-0.8l-1.3-3.3l-0.4,0c-0.3,0.7-0.6,1.4-0.9,2.2c-1,2.4-0.8,1.3-1.1,2L177.9,62.2L177.9,62.2z M157.9,58.6
		c1.3,0.1,1.1,1.2,0,1.4L157.9,58.6z M157,58.1c0.1,0.6,0.2,0.1,0.2,0.9c0,1.4,0.1,2.1-0.3,3.1l1.2,0c-0.3-0.6-0.3-0.9-0.2-1.7
		c0.2,0.3,0.3,0.7,0.8,1.2c0.3,0.4,0.6,0.7,1.4,0.6c-0.1-0.1-0.3-0.2-0.5-0.4c-0.4-0.3-0.8-1.1-1-1.6l0.2-0.2
		c0.2-0.2,0.4-0.2,0.5-0.5C159.8,58.1,157.8,58.1,157,58.1z M166.2,60.9c0-0.4,0.4-1.2,0.6-1.6c0.2,0.3,0.6,1.2,0.6,1.7L166.2,60.9
		L166.2,60.9z M166.1,62.2c-0.1-0.4-0.4-0.2-0.2-0.9l1.7,0c0.3,0.7-0.1,0.4-0.1,0.9l1.5,0c0-0.2-0.1-0.2-0.3-0.4
		c-0.5-0.6-1.4-3.6-1.7-3.7l-0.3,0c-0.1,0.1-0.1,0.1-0.1,0.2c-0.3,0.5-1,2.9-1.7,3.6c-0.2,0.2-0.2,0.1-0.3,0.4L166.1,62.2
		L166.1,62.2z M129.4,60.5c-0.4-2.4,1.4-3,1.8-0.9C131.7,61.9,129.8,62.7,129.4,60.5z M128.7,60.5c0.5,2.7,3.7,2.1,3.3-0.8
		C131.5,56.9,128.1,57.7,128.7,60.5z M191.5,58.2c0.2,0.7,0.4,3.2,0.1,3.7c-0.2,0.3-0.1,0-0.2,0.4l2.3,0l0.3-1
		c-0.5,0.2-0.8,0.5-1.6,0.4l0-1.4c0.6,0,0.6,0.2,1,0.3l0-1.2c-0.4,0.2-0.3,0.3-1,0.4l0-1.2c0.8,0,0.9,0.2,1.3,0.3l-0.1-0.8
		L191.5,58.2L191.5,58.2z M162.5,48.6l1.8,0l-0.2,0.2c-0.1,0.2-0.1-0.1-0.1,0.2c0,0.2,0.5,1.4-0.7,1.3c-0.4,0-0.7-0.3-0.6-0.8
		C162.8,49,162.8,49.1,162.5,48.6L162.5,48.6z M161.6,49.2c0.3,0.2,0.3,0,0.6,0.3c-0.3,0.3-0.5,0.1-0.6,0.7c0.5,0.8,3.1,0.9,3.3-0.2
		c-0.2-0.4-0.2-0.2-0.4-0.5l0.6-0.1C164.5,47.4,162.3,47.4,161.6,49.2L161.6,49.2z M154.7,48.9c0.3,0.5,0.8,1,1.2,1.4
		c0.2,0.2,0.2,0.3,0.4,0.4c0.2-0.2,0.2-0.2,0.4-0.4c0.1-0.2,0.3-0.3,0.4-0.4c0.3-0.3,0.5-0.6,0.7-1
		C157.3,47.6,155.4,47.3,154.7,48.9z M150,58.1c0.2,0.5,0.3,0.3,0.6,0.9c0.1,0.3,0.3,0.8,0.4,1.1c0.2,0.6,0.6,1.4,0.8,2.1
		c0.6,0,0.5,0,0.6-0.2l1.1-3c0.4-0.9,0.5-0.5,0.5-0.9l-1.2,0c0,0.4,0,0,0.1,0.5c0.1,0.4-0.7,2.5-0.8,2.7l-0.8-2.3
		c-0.1-0.5,0.1-0.5,0.2-0.8L150,58.1L150,58.1z M147.5,58.1c0.1,0.5,0.2,0.3,0.2,0.9l0,2.3c-0.1,0.5-0.2,0.4-0.3,0.8l2.3,0l0.3-0.9
		c-0.5,0.2-0.9,0.5-1.6,0.4v-1.4c0.5,0,0.6,0.2,1,0.3l0-1.1c-0.2,0.1-0.2,0.3-0.9,0.4l0-1.3c0.7,0,0.9,0.2,1.3,0.3l-0.1-0.7
		L147.5,58.1L147.5,58.1z M154.2,58.1c0.1,0.3,0.1,0.2,0.2,0.4c0.1,0.4,0.1,1.2,0.1,1.6c0,2.2-0.1,1.2-0.3,2l2.3,0l0.3-0.9
		c-0.6,0.2-0.7,0.5-1.6,0.4l0-1.4c0.4,0,0.6,0.2,1,0.3l0-1.1c-0.3,0.2-0.5,0.4-1,0.4l0-1.2c0.7-0.1,0.8,0.1,1.3,0.2l-0.2-0.7
		c-0.2,0,0.1,0-0.2,0L154.2,58.1L154.2,58.1z M160.2,130.7c0.4,0.6,0.6,0.3,0.5,2c0,0.4-0.1,1.2-0.3,1.5c-0.2,0.3-0.2,0.1-0.3,0.4
		l1.8,0.1c-0.1-0.5-0.3-0.5-0.3-1.1c0-1.1,0.3-2.8,0.2-3.9c-0.5-0.1-0.6,0.1-0.8,0.3C160.6,130.4,160.4,130.5,160.2,130.7
		L160.2,130.7z M126.9,58.1l-1.7,0c0.2,0.4,0.3,0.1,0.8,0.8c0.2,0.3,0.4,0.6,0.5,0.9c0.7,1.1-0.1,2.1-0.1,2.4l1.3,0
		c-0.1-0.5-0.2-0.1-0.3-0.5c-0.3-1.1,0.2-2,0.7-2.8c0.3-0.4,0.5-0.5,0.7-0.8l-1.3,0c0.1,0.6,0.1,1.1-0.4,1.6
		c-0.2-0.3-0.5-0.8-0.5-1.2L126.9,58.1L126.9,58.1z M154.8,54c0.2,1.1,2.3,1.2,2.9,0c-0.2-0.3-1.1-1.3-1.4-1.6
		C156.1,52.5,155,53.7,154.8,54L154.8,54z M181.3,58.2c0.4,0.9,0.3,0.5,0.3,2.1c-0.1,2.4-0.2,1.3-0.4,2l2.2,0l0.3-0.9
		c-0.5,0.3-0.5,0.4-1.4,0.5l0-2.2c0-1.3,0.2-1,0.4-1.4L181.3,58.2L181.3,58.2z M170.8,58.1l-1.3,0c0.1,0.6,0.3-0.3,0.3,1.4
		c0,0.6,0,1.2,0,1.7c0,0.9-1.3,1,1.8,0.9l0.3-0.9c-0.6,0.2-0.5,0.4-1.4,0.5c0-0.7,0-1.3,0-2c0-0.6-0.1-1,0.2-1.4
		C170.8,58.2,170.8,58.4,170.8,58.1L170.8,58.1z M138.1,61.7c0-0.7,0-1.3,0-2c0-1,0-0.9,0.4-1.6l-1.4,0c0.2,0.5,0.3,0.2,0.3,0.9
		l0,1.6c0,1.6-0.2,0.9-0.3,1.5l2.2,0l0.3-0.9C139.2,61.4,139,61.7,138.1,61.7L138.1,61.7z M139.7,58.1c0.5,0.7,0.3,1.1,0.3,2.1
		c0,2.1-0.1,1.4-0.4,2l2.2,0l0.3-0.9c-0.5,0.2-0.4,0.4-1.4,0.5c0-0.4-0.1-2.7,0-3c0.1-0.3,0.2-0.3,0.3-0.6L139.7,58.1L139.7,58.1z
		 M165.3,53.3c0.2-0.9,0.3-1.5,0.3-2.5c-0.6,0.3-0.7,0.3-0.8,0.6c0,0,0,0.1,0,0.1l-0.1,0.2c-0.4-0.1-0.2,0-0.4-0.3l-0.5,0l0.1,1.6
		c0.1-0.1,0.7-0.6,1.2,0L165.3,53.3L165.3,53.3z M162.1,52.8c0.3-0.1,0.7,0,0.9,0.2l0-1.6l-0.6-0.1c-0.3,0.3-0.2,0.3-0.4,0.4
		c-0.2-0.3-0.1-0.2-0.1-0.5l-0.6-0.2c0,1,0,1.7,0.3,2.5C161.7,53.2,161.7,52.9,162.1,52.8L162.1,52.8z M157,51.5
		c0.2,0.4,0.5,0.6,0.9,1.1c0.1,0.1,0.1,0.1,0.2,0.2c0.2,0.2,0.1,0.1,0.2,0.2c0.4-0.7,0.3-2,0.1-2.9C158.1,50.1,157.2,51.3,157,51.5
		L157,51.5z M154.3,52.9c0.3-0.1,1.2-1.2,1.3-1.3c-0.1-0.3-1-1.3-1.4-1.5C154,51,154,51.9,154.3,52.9z M181.5,89.4
		c0.6,0,1-0.2,1-0.9c0-0.6-0.5-0.9-1-1L181.5,89.4L181.5,89.4z M153.5,89.4c1.4,0.2,1.2-1.8,0-1.7L153.5,89.4z M163.7,54.9
		c0.6,0,1.4-0.8,0.8-1.5C163.7,53.3,163.6,54.2,163.7,54.9z M181.5,87.4c1.1-0.2,1.2-1.4,0-1.6V87.4z M162.2,53.4
		c-0.5,0.6,0.2,1.4,0.8,1.5c0.1-0.4,0-0.7-0.1-1.1C162.8,53.5,162.7,53.4,162.2,53.4z M153.5,87.4c1,0.1,1.2-1.7,0-1.5L153.5,87.4z
		 M158.8,132.8l0.2-0.2c0.3-0.5-0.4-1.1-0.9-0.6C157.8,132.4,158.1,132.9,158.8,132.8L158.8,132.8z M157.3,87.9l1,0l-0.4-1.1
		C157.6,87,157.4,87.6,157.3,87.9L157.3,87.9z M156.2,98.4c0.5,0,0.9-0.1,1.1-0.5c-0.3-0.2-0.5-0.2-1-0.1L156.2,98.4L156.2,98.4z
		 M135.9,59.2c0.5-0.1,0.8-0.6,0.9-1.2l-0.6,0c-0.1,0.2-0.1,0.4-0.1,0.7C136,59,136,59,135.9,59.2z M159.2,97.2L158,97
		c-0.1,0.6,0.2,0.6,0.8,0.4C158.8,97.4,159.2,97.2,159.2,97.2z M158.5,24.4l-3.7,0c0.5,0.7,2.1,1.7,2.9,2.4l-1.1,3.7
		c1.3-0.5,1.1-1.2,3.2-2.3c1.7,0.9,2.3,1.9,3.2,2.3l-1.2-3.8c0.7-0.3,2.8-1.7,3.1-2.3l-3.8,0c-0.4-0.8-0.7-2.3-1-3l-0.3-0.5
		c-0.4,0.6-0.5,1.1-0.7,1.8C158.9,23.2,158.7,23.9,158.5,24.4L158.5,24.4z M181.8,27.8c-1.1,0.3-2.7,0-3.9,0.2
		c0.3,0.4,2.2,1.5,3,2.5l-1.1,3.6c0.8-0.2,0.9-0.6,1.5-1.1c0.5-0.4,1.1-0.8,1.6-1.1c1.2,0.3,2.4,1.9,3.3,2.3l-1.1-3.7
		c0.7-0.7,2.8-1.9,3.2-2.5l-3.9,0c-0.3-0.6-0.4-1.1-0.7-1.8c-0.3-0.9-0.3-1.3-0.8-1.8L181.8,27.8L181.8,27.8z M146.9,20l-3.7,0
		l2.9,2.4l-1.1,3.7c1-0.4,2.1-1.7,3.2-2.2c1.3,0.5,2.1,1.6,3.2,2.3l-1.1-3.8l2.7-2c0.5-0.4,0.1,0,0.4-0.5l-3.8,0
		c-0.3-0.7-0.4-1.1-0.6-1.7c-0.1-0.3-0.2-0.5-0.3-0.9c-0.1-0.2,0-0.2-0.1-0.4c-0.2-0.4-0.2-0.3-0.3-0.5
		C147.6,17.5,147.4,19.1,146.9,20z M158.5,12.7l-3.7,0c0.2,0.3,0,0.1,0.3,0.3l1.1,0.9c0.5,0.4,0.9,0.6,1.4,1.2l-1.1,3.7
		c1.3-0.6,1.9-1.6,3.2-2.2c1.2,0.5,2.2,1.8,3.2,2.3c-0.2-1.2-1-2.6-1.1-3.8c0.5-0.4,1.1-0.8,1.5-1.1c0.7-0.5,1.2-0.7,1.5-1.3l-3.8,0
		l-1.3-3.5C159.2,10.1,159.1,11.4,158.5,12.7L158.5,12.7z M170.1,20l-3.7,0c0.4,0.7,2.2,1.8,2.8,2.5l-1.1,3.8
		c0.7-0.3,1.1-0.8,1.5-1.1c0.5-0.4,1.2-0.9,1.7-1.2c1.2,0.6,2.3,1.9,3.2,2.3l-1.2-3.8c0.7-0.2,1.2-0.7,1.6-1
		c0.2-0.2,0.5-0.3,0.7-0.5l0.8-0.8c-4-0.2-3.6,0.9-4.4-1.7c-0.2-0.6-0.3-1.3-0.7-1.8c-0.2,0.2-0.1-0.1-0.3,0.3
		c0,0.1-0.1,0.4-0.1,0.4c-0.1,0.4-0.2,0.7-0.3,1C170.6,18.9,170.4,19.4,170.1,20L170.1,20z"/>
</g>
</svg>
