<?xml version="1.0" encoding="utf-8"?>
<!-- Generator: Adobe Illustrator 26.0.3, SVG Export Plug-In . SVG Version: 6.00 Build 0)  -->
<svg version="1.0" id="Слой_1" xmlns="http://www.w3.org/2000/svg" xmlns:xlink="http://www.w3.org/1999/xlink" x="0px" y="0px"
	 viewBox="0 0 239.5 150.2" style="enable-background:new 0 0 239.5 150.2;" xml:space="preserve">
<g>
	<g>
		<path d="M146.1,21.5c2.7-0.1,5.4-0.1,8.2,0c5.1,0.3,10.2,1.4,14.9,3.2c7.8,2.8,14.8,7.4,20.5,13.3c8.2,8.4,13.7,19.7,15,31.4
			c0.5,3.6,0.5,7.2,0.3,10.6c-0.3,3.6-0.9,7.3-1.9,10.8c-2,7.2-5.6,14-10.2,19.7c-7.5,9.4-18.3,16.2-30.1,18.9
			c-2.1,0.5-4.2,0.8-6.3,1c-2.7,0.3-5.3,0.3-7.9,0.3c-13.7-0.3-27-6-36.7-15.6c-5.6-5.4-10-12-12.7-19.2c-2-5.1-3.1-10.5-3.6-16
			c-0.1-2.4-0.1-5,0-7.4c0.5-6.6,2.1-13.1,4.9-19.1c3.2-6.9,7.9-13.3,13.7-18.3c7.9-6.9,17.8-11.7,28.4-13.1
			C143.9,21.7,145,21.6,146.1,21.5z M146.2,23.8c-11.1,0.9-21.9,5.6-30.2,13c-8.4,7.4-14.5,17.6-16.7,28.6
			c-1.4,6.3-1.5,12.8-0.5,19.2c0.9,6,3,11.8,5.9,17.1c3.6,6.4,8.4,11.9,14.2,16.3c9.3,7.1,21.1,11,32.8,10.6
			c11.1-0.2,22.1-4.2,30.9-10.9c5.7-4.4,10.4-10,13.9-16.2c2.9-5.2,4.9-11,5.8-16.9c0.8-5.4,0.9-11.1,0-16.6
			c-1.9-11.8-7.9-22.9-16.8-30.8c-5.9-5.3-13.1-9.4-20.8-11.5C158.7,23.8,152.3,23.3,146.2,23.8z"/>
	</g>
	<g>
		<path d="M148.4,24.7c3.9-0.1,8,0.1,11.8,0.9c8.2,1.5,16,5.2,22.3,10.4c9.5,7.6,16.2,18.6,18.3,30.6c0.3,1.9,0.6,3.8,0.8,5.8
			c0.1,2.2,0.1,4.4,0,6.6c-0.3,6.4-2,12.7-4.6,18.5c-5.8,12.6-16.8,22.7-29.9,27.1c-9.8,3.4-20.6,3.7-30.6,0.9
			c-6.4-1.7-12.4-4.9-17.6-8.9c-5.8-4.5-10.5-10.2-14-16.6c-2.8-5.1-4.5-10.8-5.4-16.6c-0.1-1.4-0.3-2.7-0.5-4.1
			c-0.1-2.1-0.1-4.2,0-6.3c0.3-5.9,1.7-11.8,4.1-17.2c3.4-7.9,8.7-14.8,15.4-20.1C127.1,29.1,137.6,25.2,148.4,24.7z M152.7,27
			c-3.7-0.1-7.4,0.1-11.1,0.8c-9.3,1.7-18.1,6.3-24.9,12.7c-7.2,6.8-12.2,15.9-14.1,25.5c-1.6,7.9-1.3,16.1,0.9,23.7
			c2.4,8.2,6.9,15.7,13.2,21.6c8.3,8,19.7,13,31.3,13.5c10.5,0.6,21.2-2.3,30-8.2c5.9-3.9,10.9-9.1,14.6-15.2
			c5.2-8.6,7.8-18.8,7.1-28.7c-0.7-11.5-5.7-22.7-13.7-30.9c-6-6.3-13.8-10.9-22.1-13.2C160,27.8,156.3,27.2,152.7,27z"/>
	</g>
	<path d="M145.7,30.7c0.6,0,1.3-0.1,1.9,0c0,1.2,0,2.2,0,3.4c1.2,0,2.3-0.1,3.4-0.1c0-1.2,0-2.2-0.1-3.4c0.7,0,1.3,0,2,0
		c0,2.8,0.1,5.7,0.2,8.4c-0.6,0-1.3,0-1.9,0c0-1.2-0.1-2.2-0.1-3.4c-1.2,0-2.3,0-3.4,0.1c0,1.2,0,2.3,0.1,3.4c-0.6,0-1.3,0-1.9,0
		C145.8,36.4,145.7,33.5,145.7,30.7z"/>
	<path d="M156.7,34.3c0.3-1,0.5-2.2,0.8-3.2c2.1,0.5,4.2,0.9,6.3,1.4c-0.1,0.6-0.2,1.2-0.3,1.7c-1.5-0.3-2.9-0.7-4.4-0.9
		c-0.1,0.6-0.2,1-0.3,1.6c1.2,0.3,2.4,0.5,3.6,0.8c-0.2,0.5-0.6,1-0.8,1.5c-1-0.2-2.1-0.5-3.1-0.7c-0.1,0.6-0.1,1.2-0.3,1.6
		c1.5,0.3,3,0.7,4.5,0.9c-0.1,0.6-0.2,1.2-0.3,1.6c-2.1-0.3-4.2-0.9-6.3-1.3C155.9,37.7,156.5,36,156.7,34.3z"/>
	<path d="M137.3,32.6c1.4-0.9,3.4-1.2,4.9-0.2c-0.2,0.6-0.5,1-0.7,1.6c-1-0.3-2.3-0.6-3.2,0.2c-1.5,1.3-0.9,3.9,0.8,4.6
		c1.3,0.6,2.8-0.3,3.4-1.5c0.5,0.2,1,0.6,1.5,0.9c-0.6,1-1.5,2-2.8,2.3c-1.3,0.5-2.9,0.2-3.9-0.6c-1.2-0.8-1.9-2.3-1.7-3.8
		C135.3,34.6,136.1,33.4,137.3,32.6z"/>
	<path d="M166.2,37.9c-0.7-1.4,0.3-3.4,2-3.5c1.7-0.1,3.6,1,4.3,2.7c-0.5,0.2-0.9,0.7-1.5,0.8c-0.6-0.8-1.2-1.6-2.2-1.7
		c-0.5-0.1-0.8,0.3-0.8,0.8c0.2,0.7,0.8,1,1.3,1.4c0.7,0.6,1.5,1.4,1.6,2.4c-0.1,1-0.7,2.1-1.9,2.4c-1.2,0.3-2.3-0.1-3.1-0.7
		c-0.9-0.6-1.5-1.4-2-2.3c0.6-0.2,1-0.6,1.6-0.8c0.5,1,1.3,2,2.3,2.2c0.2,0.1,0.6,0,0.8-0.1c0.1-0.2,0.3-0.6,0.1-0.8
		C168.1,39.5,166.8,39,166.2,37.9z"/>
	<path d="M129.1,35.9c0.6-0.3,1-0.6,1.6-0.9c1.3,2.1,2.5,4.2,3.7,6.1c0.2,0.3,0.5,0.7,0.6,1.2c-0.5,0.2-0.9,0.6-1.4,0.8
		c-2.1-0.9-4.2-1.6-6.3-2.4c0.9,1.5,1.9,3,2.8,4.5c-0.5,0.3-1,0.7-1.5,0.9c-0.2,0-0.2-0.2-0.3-0.5c-1.4-2.3-2.8-4.5-4.1-6.8
		c0.5-0.3,0.9-0.7,1.5-0.9c2,0.8,4.1,1.6,6,2.3C130.8,38.9,129.9,37.5,129.1,35.9z"/>
	<path d="M174.2,39c0.3-0.5,0.7-0.9,1-1.4c1.9,1.5,3.8,2.8,5.6,4.3c-0.3,0.5-0.7,0.9-1,1.4c-0.7-0.6-1.4-1-2.1-1.6
		c-1.4,1.7-2.8,3.6-4.1,5.3c-0.6-0.2-1-0.7-1.5-1c1.3-1.9,2.8-3.6,4.1-5.4C175.6,40.1,174.9,39.6,174.2,39z"/>
	<g>
		<path d="M129.8,49.8c5.9-4.9,13.4-7.4,21.1-7.5c6,0,12,1.6,17.1,4.6c1.6,0.9,3.1,2.1,4.5,3.2c1.3,0.2,2.5,0.3,3.8,0.7
			c0.3,1.4,0.5,2.9,0.9,4.2c3.2,4.1,5.6,8.9,6.6,14c0.9,4.5,0.9,9.4,0,13.9c-1.4,6.8-5.1,13.2-10.3,17.9c-4.3,3.9-9.5,6.6-15.2,8
			c-0.8,0.2-1.7,0.3-2.5,0.7c-1.4,0.6-2.8,1-4.2,1.6c-0.3,0.1-0.8,0.1-1.2,0c-1.7-0.6-3.5-1.2-5.2-1.9c-1.6-0.3-3.4-0.7-4.9-1.3
			c-7.1-2.3-13.3-7.1-17.5-13.2c-3.8-5.6-5.9-12.4-5.8-19.1c0-7.3,2.5-14.6,7.1-20.3c0.2-0.3,0.5-0.6,0.7-0.9
			c0.2-1.3,0.5-2.4,0.7-3.6c1-0.2,2.2-0.5,3.2-0.6C129.2,50.3,129.4,50,129.8,49.8z M133,49.8c9.3-1,18.5-1.2,27.8-0.7
			c2.7,0.2,5.3,0.3,7.9,0.7c-5.6-3.8-12.4-5.8-19.1-5.4C143.6,44.5,137.9,46.3,133,49.8z M127.7,53.1c-0.7,2.2-0.9,4.6-1.3,6.9
			c-0.9,7.8-1.2,15.7-0.1,23.6c0.7,5.3,3.2,10.2,6.8,14.1c4.7,5.2,11.1,8.8,17.8,10.9c4.3-1.4,8.4-3.2,12.2-5.9
			c5.1-3.6,9.3-8.6,11.3-14.5c1.3-3.4,1.4-6.9,1.7-10.4c0.2-5,0.2-10.1-0.3-14.9c-0.1-1.6-0.3-3.1-0.6-4.7c-0.2-1.6-0.5-3.4-0.9-4.9
			c-1.7-0.3-3.4-0.7-5.1-0.8c-6-0.8-12-1.2-18.1-1.2C143.2,51.2,135.3,51.7,127.7,53.1z M119.7,69.8c-1,5.2-0.7,10.8,0.9,15.9
			c2.7,8.4,9,15.6,17.1,19.3c-6.5-4.7-11.2-11.8-13.1-19.7c-0.6-2.9-0.8-5.9-1-8.8c-0.1-3.6-0.1-7.3,0-10.9c0.2-2.3,0.3-4.6,0.7-6.9
			C122,62.1,120.4,65.9,119.7,69.8z M177.7,59.2c0.8,6.6,1,13.2,0.5,19.8c0,1.3-0.2,2.4-0.3,3.7c-0.7,6.1-3.4,12-7.4,16.7
			c-1.7,2.1-3.7,3.8-5.8,5.4c5.6-2.7,10.4-7.1,13.5-12.4c2.5-4.3,4.2-9.1,4.4-14.1C183,71.6,181.3,64.7,177.7,59.2z"/>
	</g>
	<g>
		<path d="M117.4,45.2c0.3-0.5,0.8-0.8,1.2-1.3c2.9,1,5.8,2.1,8.7,3.2c-0.3,0.6-0.8,0.9-1.3,1.4c-0.7-0.2-1.3-0.5-2-0.7
			c-0.8,0.8-1.6,1.7-2.4,2.7c0.2,0.6,0.7,1.3,0.8,1.9c-0.5,0.5-0.8,0.9-1.3,1.4C119.9,50.9,118.6,48,117.4,45.2z M119.7,46.1
			c0.3,0.9,0.8,1.7,1.2,2.7c0.6-0.5,1-1,1.5-1.6C121.4,46.8,120.6,46.5,119.7,46.1z"/>
	</g>
	<path d="M177.3,49.5c2.1-1.6,4.1-3.4,6-5c1.4,1.6,2.8,3.2,4.1,5c-0.5,0.3-0.8,0.7-1.3,1c-1-1.2-2-2.3-2.9-3.5
		c-0.5,0.3-0.8,0.7-1.3,1c0.8,1,1.7,2,2.4,3c-0.6,0.2-1.2,0.3-1.7,0.6c-0.7-0.8-1.4-1.6-2-2.4c-0.5,0.3-0.9,0.7-1.4,1
		c0.9,1.2,2,2.3,3,3.5c-0.5,0.3-0.9,0.7-1.3,1c-1.2-1.4-2.3-2.8-3.5-4.2c-0.2-0.2-0.5-0.5-0.6-0.8C177,49.7,177.2,49.7,177.3,49.5z"
		/>
	<path d="M112.7,51c2.5,1.3,5.1,2.7,7.5,3.9c-0.3,0.6-0.6,1-0.8,1.6c-1.6-0.8-3.2-1.7-4.9-2.5c0.7,1.3,1.4,2.5,2.1,3.8
		c-1.4,0.1-2.9,0.2-4.3,0.5c1.6,0.8,3.2,1.7,4.9,2.5c-0.2,0.6-0.6,1-0.8,1.6c-2.5-1.3-5-2.7-7.5-3.9c0.2-0.6,0.6-1.3,0.9-1.9
		c1.4-0.1,2.8-0.1,4.3-0.3c-0.7-1.2-1.5-2.4-2.2-3.6C112.2,52.1,112.5,51.5,112.7,51z"/>
	<g>
		<path d="M182.1,56.5c2.5-1.3,5.1-2.5,7.6-3.8c0.6,1.3,1.3,2.5,1.9,3.8c0.3,0.9,0.5,2.1-0.1,2.9c-0.6,0.7-1.5,1.2-2.3,1.3
			c-0.7,0-1.4-0.3-2-0.7c-0.6,1-1.2,2.1-1.7,3.1c-0.3-0.7-0.7-1.3-1-2c0.6-0.9,1-2,1.6-2.9c-0.2-0.5-0.5-0.8-0.7-1.3
			c-0.8,0.3-1.6,0.8-2.4,1.2C182.6,57.6,182.3,57.1,182.1,56.5z M186.8,56.2c0.5,0.7,0.7,1.6,1.3,2.2c0.7,0.7,2.1,0,2-0.9
			c-0.1-0.8-0.7-1.6-1-2.3C188.3,55.5,187.6,55.8,186.8,56.2z"/>
	</g>
	<g>
		<path d="M150.4,53.9c0.3-0.1,0.8-0.2,1.3-0.3c0,0.8,0,1.6,0,2.3c0.9-0.3,1.7-0.6,2.7-0.9c-0.6,1.4-0.2,3,0.7,4.1
			c0,0.7-0.1,1.3,0,2c0.2,1,0.8,2,1.4,2.8c-0.2,1-0.2,2.1-0.1,3.1c0.3,1.6,1.3,3.1,2.1,4.5c0-0.5,0.1-0.9,0.1-1.5
			c0-3.8,0.1-7.6,0.1-11.6c-0.3,0-0.6,0-0.9,0.1c0,0.1-0.1,0.2-0.2,0.3c-0.7,0.1-1.3,0.1-2,0.1c0.6-0.3,1.5-0.3,1.9-0.9
			c0.6-0.2,1-0.3,1.6-0.6c0,1.9,0,3.6,0,5.4c1.9-0.6,3.6-1.3,5.4-1.9c-0.3,2.3-0.6,4.7,0.3,6.8c0.2,0.6,0.5,1,0.8,1.5
			c-1.7,0.6-3.5,1.2-5.1,1.7c-0.5,0.2-1,0.2-1.4,0.6c0,0.1,0,0.5,0,0.6c2-0.1,3.9-0.5,5.8-0.8c-0.2,1-0.9,1.9-1.6,2.7
			c-0.5,0.6-0.2,1.5,0.2,1.9c3.8,0.1,7.5,0,11.3,0c-0.1,0.7-0.1,1.3-0.1,2c-15.9,0-31.6,0-47.5,0c0-0.7,0-1.3-0.1-2
			c3.9,0,7.9,0,11.8,0c-0.6-0.9-1.2-1.7-1.9-2.5c-0.2-0.3-0.6-0.6-0.9-0.7c-1.3-0.6-2.5-1.2-3.9-1.6c0-0.1,0.1-0.2,0.1-0.3
			c2,0.8,4.2,1.2,6.3,1.5c1.3,0.3,2.5,0.3,3.8,0.6c0-0.6,0-1,0-1.6c-0.7,0.2-1.5,0.3-2.1,0.9c-1.3-1-1.9-3.1-0.9-4.6
			c2.2-0.8,4.4-1.4,6.5-2.3c0.1,0.1,0.2,0.1,0.3,0.2c-0.1,0.8-0.1,1.5,0,2.3c0.2,0.8,0.6,1.6,0.9,2.3c-0.1-0.9-0.2-1.9,0.2-2.8
			c0.2-0.3,0.3-0.7,0.7-0.8c2.7-0.9,5.3-1.9,8-2.8c-1.9,0.1-3.7,0.3-5.6,0.8c-0.9,0.2-1.9,0.9-2.5,1.6c-0.9-1-1.3-2.5-0.9-3.9
			c0.2-0.5,0.6-0.9,1-1c-0.6-0.2-0.9-0.8-1-1.4c-0.2-1,0.2-2.1,0.8-2.9c1-0.3,2-0.7,3-1c0-0.6,0-1,0-1.6c-0.2,0-0.5,0-0.7,0.1
			c-0.2,0-0.3,0.3-0.6,0.3c-0.6,0.1-1.2,0.1-1.7,0.1c0.3-0.3,0.7-0.3,1.2-0.5C149.7,54.4,149.9,54.1,150.4,53.9z M151.9,59.4
			c-1.3,0.2-2.8,0.5-3.7,1.6c0.1,0.1,0.2,0.2,0.5,0.2c2.1-0.8,4.2-1.5,6.3-2.2C153.8,59.2,152.8,59.3,151.9,59.4z M143.2,71.3
			c0,0.6,0,1.2,0,1.7c2.5,0.2,5.2,0.2,7.8,0.2c0-0.6,0-1.2,0-1.7c-0.7,0.2-1.5,0.5-2,1.2c-0.3-0.3-0.8-0.8-1-1.3
			C146.3,71.2,144.7,71.2,143.2,71.3z M151.6,71.3c0,0.6,0,1.3,0,1.9c0.8,0,1.6,0,2.3,0s1.4-0.6,2.1-0.6c0.8,0,1.5-0.1,2.3-0.2
			c0-0.1,0-0.5,0-0.6C156.1,71.3,153.8,71.1,151.6,71.3z M139.1,76.1c6.6,0,13.3,0,19.9,0c0.3,0,0.7,0,1.2-0.1
			c-1.5,0-2.9-0.8-4.5-0.8c-0.9,0.3-2,0.6-3,0.6c-2,0.1-3.9-0.6-5.8-0.8c-0.5,0.6-1.3,0.7-2.1,0.8c-1.4,0.2-2.8-0.3-4.2-0.6
			C140.1,75.2,139.2,75.5,139.1,76.1z"/>
	</g>
	<path d="M141.4,59.4c0.5-0.2,1-0.3,1.5-0.6c0,0.9,0,2,0,2.9c0.7-0.2,1.5-0.5,2.2-0.8c-0.1,0.6-0.2,1.3-0.1,1.9
		c0.1,0.9,0.7,1.7,1.3,2.5c-0.1,0-0.5-0.1-0.6-0.1c-1.9,0.3-3.7,0.3-5.3,1.3c-0.3,0.1-0.5,0.6-0.9,0.6c-0.6-0.6-0.6-1.5-0.6-2.3
		c0-0.8,0.3-1.5,0.9-2.1c0.8-0.3,1.9-0.6,2.7-0.9c0-0.7,0-1.4,0-2.1c-0.3,0.1-1-0.1-1.2,0.5c-0.7,0.1-1.3,0.1-2,0.1
		C140.1,59.9,141,60,141.4,59.4z"/>
	<path d="M132.5,70.5c1.4-3,3.7-5.6,6.5-7.4c-1.3,2.4-2,5.2-1.5,7.9C135.9,70.6,134.2,70.3,132.5,70.5z"/>
	<g>
		<path d="M188,74c0.9-0.6,2.3-0.5,2.9,0.6c0.5,0.9,0.5,2.1,0.1,3c-0.2,0.6-0.6,1-1.2,1.3c-0.8,0.2-1.9,0.1-2.5-0.5
			c0.2-0.3,0.3-0.6,0.6-0.9c0.5,0.2,1,0.7,1.5,0.3c0.3-0.1,0.5-0.6,0.7-0.9c-0.7,0.2-1.6,0.3-2.3-0.1C186.9,76.1,187,74.5,188,74z
			 M188.3,75.6c0.1,0.7,0.9,0.6,1.5,0.5c0.5-0.5,0.2-1.5-0.6-1.4C188.7,74.5,188.2,75,188.3,75.6z"/>
	</g>
	<path d="M105.9,74.1c0.7-0.2,1.5-0.6,2.3-0.5c0,1.7,0,3.5,0,5.1c-0.3,0-0.7,0-1.2,0c0-1.3,0-2.7,0-3.9c-0.3,0.1-0.6,0.1-0.8,0.2
		C106,74.7,105.9,74.5,105.9,74.1z"/>
	<g>
		<path d="M194.9,73.7c0.3,0,0.7,0,1,0c0,1,0,2.1,0,3.1c0.2,0,0.5,0,0.7,0c0,0.3,0,0.6,0,0.9c-0.2,0-0.5,0-0.7,0c0,0.3,0,0.7,0,1.2
			c-0.3,0-0.7,0-1.2,0c0-0.3,0-0.7,0-1.2c-0.8,0-1.6,0-2.4,0c-0.1-0.2-0.1-0.6-0.2-0.8C193.1,75.9,194,74.8,194.9,73.7z M193.4,76.8
			c0.5,0,0.8,0,1.3,0c0-0.5,0-0.9,0-1.5C194.2,75.9,193.9,76.3,193.4,76.8z"/>
	</g>
	<g>
		<path d="M109.6,75c-0.1-0.7,0.6-1.2,1.2-1.3c0.6-0.1,1.4-0.1,1.9,0.3c0.7,0.5,0.7,1.7-0.1,2.2c0.3,0.2,0.7,0.6,0.8,0.9
			c0.1,0.9-0.7,1.7-1.5,1.7c-0.8,0.1-1.9,0-2.2-0.8c-0.3-0.7,0-1.5,0.6-1.9C109.7,76,109.5,75.5,109.6,75z M110.8,74.8
			c-0.3,0.2-0.1,0.8,0.2,0.9c0.3,0.2,1,0,1-0.5C112.2,74.6,111.2,74.3,110.8,74.8z M110.7,76.9c0,0.1-0.1,0.3-0.2,0.5
			c0.2,0.9,1.9,0.8,1.7-0.2C111.9,76.5,111.1,76.7,110.7,76.9z"/>
	</g>
	<path d="M127.2,78.7c5.4,6.6,11,13.3,16.4,19.9c0.8,0.7-0.2,2.1,0.7,2.7c0.5,0.3,1.2-0.5,1.6,0.1c1.5,1.9,3,3.6,4.5,5.4
		c-6.4-2.2-12.5-5.6-16.9-10.8c-2.9-3.4-5-7.5-5.8-11.9C127.6,82.5,127.2,80.6,127.2,78.7z"/>
	<path d="M134.7,78.9c2.8,0,5.7,0,8.4,0c1.4,1.7,2.8,3.4,4.2,5.1c-0.7,0.6-1,1.4-1.7,1.9c-0.7,0.6-1.9,0.5-2.4,1.2
		c-0.3,0.2-0.5,0.7-0.7,1.2c-0.1-0.1-0.2-0.2-0.3-0.3C139.7,84.8,137.3,81.8,134.7,78.9z"/>
	<path d="M150.6,78.9c2.8,0,5.6,0,8.4,0c3.9,4.6,7.8,9.4,11.7,14c-1.2,1.9-2.5,3.7-4.2,5.2c-2-2.4-4.1-4.7-6-7.2
		c0.2-0.6,0.9-1,0.9-1.7c-0.3-0.9-1.6-0.8-2.3-1.2c-0.2-0.5-0.5-0.9-0.9-1.2c-0.6-0.5-1.5-0.3-2-1C154.3,83.4,152.3,81.2,150.6,78.9
		z"/>
	<path d="M166.7,78.9c2.7,0,5.2,0,7.9,0c-0.2,2.7-0.3,5.4-1.2,8C171.1,84.2,168.9,81.5,166.7,78.9z"/>
	<path d="M149.8,83.4c0.3-0.5,0.6-0.8,0.9-1.3c0.3,0.5,0.6,0.8,0.9,1.3c-0.5,0.3-0.7,0.8-0.9,1.3C150.6,84.2,150.2,83.7,149.8,83.4z
		"/>
	<path d="M148.4,84.3c0.7-0.3,1.6,0.1,2,0.8c0.3,0.5,0.2,1.2,0.2,1.6c-0.5-0.3-0.9-0.8-1.5-0.6c-0.9,0.3-1.2,1.6-2.1,1.9
		c-0.6,0.2-1.6,0.3-1.7,1.2c-0.2,0.5,0,0.8,0.1,1.2c-0.7-0.1-1.5-0.3-1.9-1c-0.5-0.8,0-1.9,0.8-2.2c0.7-0.2,1.5-0.5,2.1-1
		C147.1,85.6,147.5,84.7,148.4,84.3z"/>
	<path d="M151.3,85c0.3-0.7,1.3-1.2,2.1-0.7c0.5,0.2,0.7,0.6,0.9,0.9c0.6,0.8,1.5,1.4,2.5,1.7c0.5,0.1,1,0.3,1.3,0.8
		c0.3,0.6,0.2,1.5-0.3,2c-0.5,0.3-0.9,0.6-1.5,0.6c0.1-0.5,0.3-0.9,0.1-1.4c-0.5-0.9-1.7-0.7-2.4-1.4c-0.5-0.5-0.8-1.4-1.5-1.5
		c-0.6-0.1-0.9,0.3-1.3,0.6C151.1,86.2,150.9,85.5,151.3,85z"/>
	<path d="M151.1,88c0-0.6,0.6-1.3,1.3-1c0.5,0.1,0.7,0.6,1,0.9c0.5,0.6,1,0.8,1.7,0.9c0.7,0.3,0.8,1.5,0,1.7c-0.9,0.3-2,0.6-3,0.9
		c-0.2-0.3-0.7-0.6-1-0.8C151.1,90,151.1,88.9,151.1,88z"/>
	<path d="M148.9,87.2c0.6-0.5,1.5,0,1.6,0.7c0,1,0,2,0,3c-0.5,0.1-0.8,0.3-1,0.7c-1-0.3-2-0.6-3-1c-0.5-0.2-0.7-0.9-0.3-1.4
		c0.3-0.6,1-0.5,1.5-0.8C148.2,88.2,148.4,87.7,148.9,87.2z"/>
	<path d="M159,88.8c0.5,0.1,1,0.3,1.5,0.5c-0.2,0.3-0.6,0.8-0.8,1.2c-0.5-0.2-1-0.3-1.6-0.5C158.5,89.7,158.8,89.4,159,88.8z"/>
	<path d="M141,89.3c0.5-0.1,0.9-0.3,1.4-0.5c0.2,0.5,0.6,0.9,1,1.3c-0.6,0.1-1.2,0.1-1.6,0.5C141.6,90.1,141.2,89.7,141,89.3z"/>
	<path d="M143.4,90.7c0.6-0.1,1.3,0.1,1.9,0.3c-0.5,0.2-0.9,0.5-1,1c-0.1,1,1.2,1.6,1,2.7c0,0.7-0.1,1.4,0.3,2
		c0.3,0.5,0.9,0.3,1.4,0.3c-0.5,0.6-0.9,1.5-1.7,1.4c-0.8,0.1-1.6-0.6-1.6-1.4c0-0.8,0-1.5-0.3-2.3c-0.2-0.8-0.9-1.4-1.2-2.1
		C141.9,91.8,142.5,90.8,143.4,90.7z"/>
	<path d="M156.6,91c0.2-0.3,0.8-0.3,1.3-0.5c1.2-0.1,2.1,1.3,1.4,2.2c-0.5,0.7-1,1.4-1.2,2.2c-0.2,0.8,0,1.7-0.3,2.5
		c-0.2,0.5-0.8,0.8-1.5,0.8c-0.8,0-1.4-0.8-1.7-1.4c0.5,0,1,0.1,1.4-0.2c0.8-0.7,0.1-1.9,0.6-2.8c0.3-0.6,0.8-1,0.9-1.6
		C157.4,91.7,157.1,91.2,156.6,91z"/>
	<path d="M145.7,91.5c0.1,0,0.2-0.1,0.3-0.1c1,0.2,2.1,0.7,3.1,0.9c0.1,0.3,0.2,0.8,0.3,1.2c-0.1,0.5-0.5,0.7-0.7,1
		c-0.5,0.6-0.7,1.2-1.3,1.6c-0.6,0.6-1.6-0.1-1.5-0.9c0-0.8-0.2-1.6-0.7-2.2C144.9,92.6,145,91.7,145.7,91.5z"/>
	<path d="M152.4,92.3c0.9-0.3,1.9-0.6,2.8-0.9c0.7-0.2,1.4,0.3,1.3,1c-0.1,0.6-0.6,0.9-0.8,1.4c-0.3,0.7,0,1.5-0.5,2.2
		c-0.5,0.2-1,0.3-1.5-0.1c-0.7-0.8-1.2-1.6-1.9-2.4C152.2,93.1,152.3,92.8,152.4,92.3z"/>
	<path d="M150.4,91.8c0.5-0.3,1.4,0,1.3,0.7c0,0.6-0.7,1-1.2,0.7C149.9,93,149.8,92.2,150.4,91.8z"/>
	<path d="M150.1,93.9c0.5,0.1,0.9,0.1,1.3,0c0.6,0.8,1.2,1.5,1.7,2.3c0.5,0.5,0.1,1.3-0.5,1.5c-0.7,0.2-1.3-0.3-2-0.3
		c-0.7,0-1.3,0.5-2,0.3c-0.5-0.2-0.8-0.9-0.5-1.4C148.9,95.5,149.5,94.7,150.1,93.9z"/>
	<path d="M146.8,99.1c-0.1-0.7,0.3-1.3,0.9-1.9c0,0.7,0.6,1.4,1.4,1.4c0.7-0.1,1.3-0.5,2-0.5c0.8,0,1.5,0.7,2.2,0.2
		c0.5-0.2,0.7-0.7,0.7-1.3c0.5,0.5,0.9,1,0.8,1.9c0,1-1.3,1.7-2.2,1.3c-1.2-0.5-2.5-0.3-3.7,0C148,100.9,146.8,100.2,146.8,99.1z"/>
	<path d="M158.7,97.4c1.2,1.4,2.3,2.8,3.5,4.3c-1.9,1.3-3.7,2.3-5.8,3.2c-0.9-1.2-2-2.4-3-3.6c0.5-0.1,0.9-0.2,1.4-0.5
		c0.6,0.2,1.2,0.3,1.7,0.6c0.5,0.1,1-0.2,1-0.7c0.1-0.6,0-1.3,0.1-1.9C158.1,98.4,158.5,98,158.7,97.4z"/>
	<path d="M144.8,99.1c0.6-0.1,1-0.2,1.5-0.5c-0.2,0.5-0.2,1,0,1.6c-0.5,0.1-1,0.2-1.5,0.5C144.8,100.2,144.8,99.7,144.8,99.1z"/>
	<path d="M155.2,98.7c0.5,0.2,1,0.5,1.5,0.6c0,0.5,0,1,0,1.5c-0.5-0.1-0.9-0.3-1.4-0.5C155.4,99.7,155.4,99.1,155.2,98.7z"/>
	<path d="M137.7,113.4c1.9-1.5,4.7-1.4,6.4,0.2c-0.5,0.5-0.8,0.9-1.3,1.4c-0.8-0.7-1.9-1.3-2.9-0.8c-1.5,0.5-2.2,2.3-1.5,3.7
		c0.2,0.7,0.8,1.3,1.6,1.5c1,0.3,2.2-0.1,3-0.9c0.5,0.3,0.8,0.8,1.3,1.3c-1.7,2.1-5.2,2.1-6.9,0C135.8,118,135.9,115,137.7,113.4z"
		/>
	<path d="M146.1,112.5c0.7,0,1.3,0,2,0c0,2.9,0,5.8,0,8.7c-0.7,0-1.3,0-2,0C146.1,118.3,146.1,115.4,146.1,112.5z"/>
	<path d="M149.8,112.5c2.4,0,4.7,0,7.2,0c0,0.6,0,1.2,0,1.7c-0.9,0-1.7,0-2.7,0c0,2.3,0,4.6,0,6.9c-0.6,0-1.3,0-1.9,0
		c0-2.3,0-4.6,0-6.9c-0.9,0-1.7,0-2.7,0C149.8,113.7,149.8,113.1,149.8,112.5z"/>
	<path d="M157.8,112.5c0.8,0,1.5,0,2.3,0c0.7,1.2,1.4,2.3,2.1,3.5c0.7-1.2,1.4-2.3,2.1-3.5c0.7,0,1.5,0,2.2,0
		c-1,1.6-2.1,3.2-3.1,4.9c-0.1,0.1-0.2,0.3-0.2,0.6c0,1,0,2.2,0,3.2c-0.7,0-1.3,0-2,0c0-1.2,0-2.3,0-3.5
		C160,115.9,158.8,114.3,157.8,112.5z"/>
</g>
</svg>
