<?xml version="1.0" encoding="utf-8"?>
<!-- Generator: Adobe Illustrator 24.0.2, SVG Export Plug-In . SVG Version: 6.00 Build 0)  -->
<svg version="1.1" id="Слой_1" xmlns="http://www.w3.org/2000/svg" xmlns:xlink="http://www.w3.org/1999/xlink" x="0px" y="0px"
	 viewBox="0 0 238.1 150.2" style="enable-background:new 0 0 238.1 150.2;" xml:space="preserve">
<g>
	<path d="M129.1,149.5c-0.1-0.1-0.3-0.2-0.4-0.2c-1.4-0.1-2.7-0.2-4.1-0.3c-0.4,0-0.8,0-1.3,0.1c0.5-0.8,1.2-1.2,1.9-1.4
		c0.7-0.2,1.4-0.3,2.1-0.3c1.1,0,2.1,1,2.1,2.1C129.3,149.5,129.2,149.5,129.1,149.5z"/>
	<path d="M193,95.6c-0.4-0.7-0.7-1.4-1.1-2.1c-0.5-0.9-1-1.7-1.5-2.6c-0.6-0.9-1-1.9-1.7-2.7c-1.1-1.3-2.2-2.7-3.6-3.8
		c-0.8-0.6-1.7-1.1-2.4-1.8c-0.9-0.8-1.8-1.7-2.8-2.3c-1.4-0.9-2.9-1.3-4.6-1.1c-0.9,0.2-1.9,0-2.8,0c-0.6,0-1.2,0.1-1.7,0.2
		c-0.4,0.1-0.8,0.5-1.2,0.5c-1,0.1-1.9,0-2.9,0c-0.2,0-0.3,0-0.5,0c-0.5,0.1-0.6-0.1-0.6-0.6c0-1-0.3-1.1-1.1-0.6
		c-1.3,0.8-2.7,0.6-4.1,0.4c-0.6-0.1-1-1.4-0.7-2c0.1-0.2,0.2-0.3,0.3-0.5c0.3-0.4,0.2-0.8-0.2-1.1c-0.5-0.3-0.9-0.7-1.4-1
		c-0.5-0.4-0.6-1.3-0.3-2c1-2,2-4,3.1-6c0.7-1.1,1.6-2.1,2.5-3.1c0.1-0.1,0.5-0.2,0.7-0.1c1.5,0.5,3,1,4.5,1.5
		c0.8,0.3,1.6,0.6,2.5,0.9c1.1,0.3,2.2,0.6,3.2,1c1,0.3,2,0.6,3.1,0.9c0.4,0.1,0.8,0.3,1.2,0.5c1,0.4,2,0.9,3,1.3
		c1.1,0.5,2.2,1,3.4,1.6c0.2,0.1,0.4,0.3,0.5,0.5c1,1.1,2.3,1.6,3.5,2.3c0.5,0.3,1,0.7,1.5,1c1,0.6,2.1,1.2,3.1,1.9
		c1.2,0.7,2.3,1.5,3.4,2.3c1.5,1,2.7,2.4,4.3,3.2c0.4,0.2,0.8,0.4,1.3,0.6c1.2,0.5,2,1.5,3,2.4c0.2,0.2,0.3,0.4,0.6,0.5
		c2,0.9,3.4,2.6,4.9,4.1c1,1,2.1,2,3.2,3c1.7,1.6,3.8,3,5.1,5.2c0.8,1.3,1.2,2.6,1.3,4.1c0.1,0.9,0.1,1.9,0.1,2.8
		c0,0.3-0.2,0.7-0.4,1c-0.3,0.5-0.7,1-1,1.5c-0.7,1.1-1.4,2.2-2.1,3.3c-0.6,0.9-1.6,1.2-2.5,1.5c-0.6,0.2-1.2,0.5-1.9,0.7
		c-1,0.3-2,0.6-3.1,0.9c-0.6,0.2-1.3,0.3-1.9,0.5c-1.2,0.3-2.4,0.7-3.6,1.1c-0.9,0.3-1.7,0.8-2.5,1.1c-1.2,0.3-2.4,0.5-3.7,0.7
		c-0.9,0.2-1.7,0.5-2.6,0.7c-1,0.2-2,0.5-3,0.6c-1.6,0.1-3.3,0-4.9,0.1c-0.5,0-1.1,0.2-1.6,0.2c-1.1,0.1-2.1-0.2-3.1-0.5
		c-0.6-0.2-1.2-0.2-1.8-0.3c-0.7-0.1-1.3-0.3-2-0.4c-1.3-0.2-2.7-0.6-4-0.6c-2.6,0.1-5,0.9-6.7,3c-0.8,0.9-1.4,2-2.1,3
		c-0.4,0.5-0.9,0.9-1.3,1.5c-1.3,1.7-2.6,3.4-3.4,5.4c-0.3,0.6-0.4,1.3-0.6,1.9c-0.4,1.3-0.8,2.6-1.3,3.9c-1,2.7-1.8,5.5-2.4,8.3
		c-0.2,0.8-0.6,1.6-0.9,2.4c-0.4,0.9-0.8,1.9-1.1,2.6c-0.8,0-1.6,0.1-2.4,0.1c0.3-0.5,0.5-1,0.9-1.4c0.9-0.9,1.4-1.9,1.8-3.1
		c0.6-2,1.2-3.9,1.7-5.9c0.4-1.5,0.7-3,1.2-4.5c0.5-1.7,0.9-3.5,1.5-5.2c0.6-1.9,1.3-3.7,1.9-5.5c0.1-0.3,0.4-0.6,0.7-0.8
		c1-0.7,1.4-1.7,0.6-2.6c-1.1-1.3-1.6-2.8-2.4-4.3c-0.1-0.2-0.4-0.3-0.6-0.5c-0.2,0.3-0.3,0.5-0.5,0.8c0,0.1,0.1,0.2,0.1,0.2
		c0,0.3,0,0.7-0.2,0.8c-1.3,1.1-1.8,2.6-2.6,4c-1,1.7-1.9,3.5-2.9,5.3c0,0.1-0.1,0.1-0.3,0.2c0-0.4,0.2-0.8,0.1-1.1
		c0-0.4-0.1-0.9-0.3-1.1c-0.5-0.5-0.5-1.1-0.6-1.8c-0.1-0.7,0-1.4-0.2-2.1c-0.1-0.7-0.7-0.9-1.3-0.6c-0.2,0.1-0.5,0.3-0.7,0.4
		c-0.4,0-0.9,0.1-1.2-0.1c-0.4-0.3-0.6-0.8-0.4-1.3c0.4-1.2-0.2-2.2-0.6-3.2c-0.1-0.3-0.6-0.6-1-0.7c-1.1-0.4-2.2-0.7-3.2-1
		c-0.1,0-0.2,0-0.4,0c0.7,1.6,1.9,3,1.1,5c-0.2-1.5-0.6-2.8-2.2-3.4c0.1,1.6,0.7,3.1-0.5,4.5c0-0.5,0-1.1,0-1.6
		c0-0.6-0.2-1.1-0.8-1.5c-0.7-0.5-0.9-0.5-1.4,0.2c-0.4,0.5-0.9,1-0.4,1.7c0.6,0.8,0.1,1.4-0.2,2c-0.4,0.9-1,1.7-1.5,2.6
		c-0.1,0.1-0.2,0.3-0.3,0.4c-0.3-0.1-0.5-0.2-0.7-0.3c-0.2,0.2-0.3,0.4-0.4,0.6c-0.3,0.4,0.4,0.9-0.4,1.3c-0.1-0.1-0.3-0.2-0.5-0.4
		c0,0.2-0.1,0.4-0.1,0.5c-0.1,0.4-0.3,0.6-0.7,0.3c-0.5-0.3-0.8-0.2-1,0.4c-0.1-0.1-0.2-0.2-0.3-0.4c-0.2,0.4-0.5,0.8-0.7,1.2
		c-0.1-0.2-0.3-0.4-0.4-0.6c0,0.2,0,0.4-0.1,0.5c-0.2,0.2-0.5,0.4-0.5,0.3c-0.4-0.3-0.7,0-1.1,0c-0.8,0.1-1.7,0.1-2.5,0.1
		c-0.3,0-0.6,0-1,0c-0.1,0.1-0.1,0.2-0.2,0.3c0.3,0.2,0.6,0.3,0.8,0.5c0.3,0.3,0.5,0.7,0.6,1c0.4,1.1,0.9,1.3,2,0.9
		c0.4-0.2,0.9-0.1,1.4,0c-1.3,0.5-2.6,0.9-4,1.4c0.1,0.2,0.2,0.3,0.3,0.5c-0.1,0-0.3,0.1-0.3,0.1c-0.1,0.4-0.1,0.8-0.3,0.9
		c-0.3,0.2-0.7,0.1-1.1,0.1c0.1,0.2,0.1,0.3,0.1,0.3c-0.2,0.2-0.4,0.4-0.6,0.6c-0.4,0.4-0.8,0.3-1.2,0c-0.4-0.4-0.9-0.4-1.4-0.4
		c-1-0.1-2.1-0.3-3.1-0.4c-0.2,0-0.3,0-0.6-0.1c0.1,0.3,0.2,0.6,0.3,0.8c0,0,0,0.1-0.1,0.1c-0.7-0.5-1.5-0.9-2.2-1.4
		c-0.3-0.2-0.5-0.6-0.9-0.4c0,0-0.2-0.1-0.3-0.2c-1-0.9-1.7-2-1.9-3.3c-0.2-1.6-0.4-3.3-0.6-5c0-0.1,0-0.2,0-0.3
		c0.1-1.1,0.1-1.1-0.9-1.4c-0.3-0.1-0.6-0.3-0.9-0.4c-0.3-0.2-0.6-0.5-1-0.2c-0.1,0.1-0.6-0.1-0.7-0.3c-0.6-0.7-1.1-1.4-1.5-2.2
		c-0.2-0.4-0.4-0.3-0.7-0.2c-0.3,0.2-0.6,0.4-0.9,0.4c-0.8-0.1-1,0.4-1.1,0.8c1.1,0.7,2.1,1.3,3.1,2c0.4,0.3,0.8,0.7,1.2,1.1
		c0.3,0.4,0.6,0.3,1,0.1c0.4-0.2,0.9-0.4,1.5-0.7c-0.4,0.7-0.7,1.3-1,2c0.5,0.1,0.9,0.1,1.2,0.2c0.2,1.1-0.3,1.7-1.3,1.8
		c-0.3,0-0.6,0.1-0.9,0.2c-1.2,0.6-2.5,0.4-3.7,0c-0.4-0.1-0.8-0.7-1-1.1c-0.3-0.8-0.7-1.4-1.5-1.8c-0.4-0.2-0.7-0.9-1.3-0.7
		c-0.3,0.5-0.6,0.9-0.9,1.4c-0.2,0.3-0.4,0.2-0.7,0c-0.4-0.5-0.7-0.9-1.2-1.5c-0.1,0.4-0.3,0.7-0.3,1.1c-0.1,1.2-0.1,2.3-0.1,3.5
		c0,0.2,0.3,0.4,0.4,0.5c0.4,0.2,0.8,0.3,1.1,0.6c0.5,0.3,0.7,0,1-0.3c0.4-0.7,1-0.7,1.5-0.1c1.2,1.7,2.5,3.3,3.7,5
		c0.6,0.8,1.4,1.6,2,2.5c0.1,0.2,0.1,0.4,0.2,0.7c-0.2,0-0.5,0.1-0.7,0.1c-0.7-0.3-1.3-0.7-2.1-0.9c-0.6-0.2-1.3,0-2,0
		c-0.2,0-0.3,0.1-0.5,0.2c-0.3,0.1-0.6,0.3-0.7,0.5c-0.2,0.4-0.1,0.9,0.3,1.3c1.2,1.2,2.4,2.3,3.6,3.5c0.3,0.3,0.4,0.5,0.3,1
		c-0.2,0.5,0.3,1,0.8,1.1c0-0.8,0-1.6,0-2.4c-0.1,0-0.1,0-0.2-0.1c0.3-0.2,0.7-0.5,1-0.7c0.1,0.4,0.2,0.6,0.2,0.9
		c0.1,0,0.1,0,0.2,0.1c0.4-0.5,0.8-1.1,1.2-1.6c0.3-0.5,0.8-0.6,1.3-0.5c0.4,0.1,0.8,0.3,0.8,0.8c0,0.2-0.1,0.3-0.1,0.5
		c-0.1,0-0.1,0-0.2,0c0-0.1-0.1-0.2-0.1-0.2c-0.2-0.2-0.3-0.4-0.5-0.6c-0.2,0.2-0.6,0.4-0.6,0.7c-0.1,1.2-0.1,2.4-0.1,3.5
		c0,0.5,0.5,0.7,0.9,0.8c0.5,0.1,0.7-0.2,0.9-0.5c0.1-0.1,0.2-0.2,0.2-0.3c0.2,0.4,0.4,0.9,0.7,1.2c0.3,0.3,0.8,0.5,1.2,0.8
		c0.3,1.5-0.8,2.5-1.4,3.9c-0.1-0.3-0.3-0.6-0.3-0.8c-0.1-0.5,0-1-0.1-1.5c-0.1-0.7-0.5-0.9-1.1-0.7c-0.5,0.2-0.9,0.3-1.4,0
		c-0.2-0.1-0.6,0-0.7,0.2c-0.2,0.4-0.1,0.8,0.2,1.1c0.3,0.3,0.8,0.6,0.3,1.2c-0.1,0.2-0.4,0.4-0.6,0.4c-0.9,0-1.7,0-2.6,0
		c0-0.1,0-0.1,0-0.2c0-0.2,0-0.5-0.1-0.7c-0.3,0.1-0.5,0.2-0.8,0.4c-0.5,0.2-0.9,0.4-1.4,0.5c-0.3,0.1-0.6,0-0.9,0
		c-0.7,0-1.3,0-1.8-0.5c-0.3-0.4-0.8-0.5-1.1,0.2c-0.3,0.5-0.8,0.4-1.2,0.4c-0.4,0-0.8,0-1.2,0c-0.9,0-1.8,0-2.7,0
		c-0.1,0-0.3-0.2-0.4-0.3c-0.3-1.4-0.6-2.9-1-4.3c-0.2-0.7-0.4-1.4-0.7-2c-0.7-1.5-0.8-3.1-1.1-4.7c-0.2-1.4-0.6-2.7-0.9-4
		c-0.3-1.2-0.4-2.4-0.8-3.6c-0.5-1.5-1.2-2.9-1.7-4.4c-0.9-2.2-2.5-3.9-3.8-5.7c-0.8-1.1-1.7-2.2-2.1-3.6c-0.1-0.3-0.7-0.5-1.1-0.8
		c-0.3-0.2-0.6-0.3-0.8-0.5c-0.6-0.5-1.3-0.8-2.1-0.8c-2-0.1-4,0.2-6,0.6c-1.6,0.3-3.1,0.5-4.7,0.5c-1.1,0-2.3,0.3-3.4,0.2
		c-1.2-0.1-2.3-0.4-3.4-0.7c-0.9-0.2-1.8-0.4-2.7-0.6c-0.9-0.2-1.7-0.6-2.6-0.7c-1.5-0.2-2.8-1.1-4.2-1.6c-0.7-0.3-1.5-0.4-2.2-0.7
		c-1-0.4-1.9-0.9-2.8-1.4c-1-0.5-2.1-0.8-3.1-1.3c-1.2-0.5-2.3-1.2-3.4-1.8c-1.1-0.6-2.2-1.4-3.3-2c-1.2-0.6-2.1-1.5-3-2.5
		c-1.2-1.2-2.4-2.4-3.5-3.7c-0.3-0.4-0.5-1-0.5-1.5c0-1,0.1-2,0.3-2.9c0.2-0.6,0.7-1.2,1.1-1.7c1-1.3,2.2-2.5,3.2-3.8
		c1.4-1.7,2.9-3.3,4.2-5c1.1-1.5,2.5-2.6,3.8-3.9c0.7-0.7,1.2-1.6,1.9-2.4c0.7-0.8,1.4-1.5,2.1-2.2c0.8-0.7,1.5-1.5,2.4-2.1
		c1.2-0.9,2.5-1.6,3.8-2.4c0.8-0.6,1.6-1.3,2.4-1.9c0.8-0.6,1.7-1,2.5-1.5c1.2-0.7,2.6-1.3,3.6-2.2c1-0.8,1.8-1.9,2.2-3.3
		c0.2-0.8,1.1-1,1.7-1.3c0.8-0.4,1.6-0.5,2.5-0.8c0.2-0.1,0.4,0,0.7,0c1.3,0,2.6-0.3,3.7-1.1c0.6-0.4,1.3-0.5,2-0.7
		c0.9-0.3,1.8-0.5,2.7-0.7c0.9-0.3,1.8-0.6,2.7-0.9c1-0.3,2-0.7,3-1c0.8-0.2,1.6-0.1,2.3-0.2c0.1,0,0.2,0,0.3,0
		c0.9-0.4,2.4,0.3,3,1.1c1,1.4,2,2.8,2.4,4.6c0.2,0.8,0.8,1.5,1.2,2.3c1,1.9,0.7,1.9-0.5,3.3c-0.5,0.6-0.8,1.2-0.8,2
		c0,0.7-0.1,1.5-0.4,2.1c-0.7,1.3-2,1.5-3.5,0.5c-1-0.6-2-0.5-3-0.4C85.2,70.9,84.6,71,84,71c-0.3,0-0.6-0.2-0.9-0.2
		c-2.4-0.9-5-0.5-7.5-0.5c-0.4,0-0.8,0.1-1.2,0.3c-0.2,0.1-0.3,0.4-0.5,0.5c-1.5,1.1-3.1,2.3-4.6,3.4c-1.4,1-2.2,2.3-3.1,3.7
		c-0.4,0.6-0.7,1.1-1.1,1.6c-0.1,0.1-0.4,0.2-0.5,0.2c-0.5-0.1-0.7,0.3-0.8,0.6c-0.7,1.8-1.4,3.7-2.1,5.5c-0.2,0.6-0.4,1.3-0.6,1.9
		c-0.1,0.4-0.3,0.8-0.5,1.1c-0.4,0.5-0.2,1-0.1,1.5c0.2,0.4,1.4,0.6,1.7,0.5c0.5-0.2,1.1-0.3,1.6-0.4c0.4-0.1,0.8-0.1,1.2-0.3
		c1.3-0.5,2.7-0.6,4.1-0.5c1.3,0.1,2.6,0,3.9,0.3c0.9,0.2,1.7,0.8,2.6,1.2c1.3,0.7,2.6,1.5,4.1,1.3c0.7-0.1,1.3-0.3,2-0.4
		c0.4-0.1,0.8-0.2,1.2-0.3c1-0.3,2-0.5,3-0.8c0.2,0,0.4,0,0.7,0c1.1,0,2.3-0.1,3.4,0c1,0.1,2,0.3,3,0.5c0.6,0.1,1.2,0.2,1.8,0.3
		c0.9,0.2,1.8,0.5,2.7,0.8c0.8,0.2,1.6,0.5,2.3,0.8c1,0.4,1.9,1,2.9,1.3c0.6,0.2,1.3,0.4,1.8,0.2c1.4-0.5,2.7-1.1,4.1-1.7
		c1-0.4,2-0.8,3-1.2c0.8-0.3,1.6-0.7,2.4-1.1c0.7-0.4,0.8-0.8,0.6-1.6c-0.2-0.5-0.4-1-0.6-1.6c-0.3-1-0.4-2.1-0.7-3.1
		c-0.2-0.6-0.5-1.2-0.7-1.8c-0.4-1.1-0.7-2.2-1-3.3c-0.1-0.2-0.2-0.5-0.4-0.6c-0.8-0.7-1.3-1.6-1.5-2.7c0-0.3-0.2-0.7-0.4-0.9
		c-1-1.9-1.2-3.8-0.7-5.9c0.2-0.7,0.3-1.5,0.4-2.2c0.1-0.3,0.2-0.6,0.4-0.7c0.7-0.5,0.9-1.1,0.7-2c-0.4-1.8-0.7-3.6-1-5.5
		c-0.2-1.3,0.2-2.4,0.5-3.6c0.4-1.6,1.4-2.9,2.4-4.2c0.4-0.5,0.8-0.9,1.2-1.4c0.7-0.8,1.6-0.9,2.5-1.2c1.2-0.5,2.4-0.8,3.6-1.4
		c0.8-0.4,1.7-0.5,2.6-0.7c1.5-0.2,3-0.3,4.5-0.3c1.4,0,2.8,0.3,4.2,0.5c1.4,0.1,2.4,1,3.7,1.4c0.7,0.2,1.4,0.4,2.1,0.7
		c1,0.5,1.4,1.4,1.2,2.5c-0.2,1,0.5,1.8,1.5,1.9c1,0,1.5,0.5,2,1.3c1,1.5,1,3.2,0.9,4.9c-0.1,1.3-0.1,2.6-0.2,3.9
		c0,0.6-0.1,1.2-0.1,1.7c0,0.9,0.2,1.1,1,1.6c0.4,0.2,0.8,0.8,0.9,1.2c0.2,1.3,0.2,2.6,0.3,3.9c0,1.2,0.1,2.4-0.5,3.6
		c-0.8,1.7-2.1,2.7-3.9,3.1c-0.6,0.1-1.1,0.5-1.2,1.5c-0.2,1.8-0.5,3.5-0.5,5.3c0,0.7,0.3,1.6,0.7,2.2c0.9,1.6,2.6,2.6,4.1,3.5
		c2.7,1.5,5.5,2.8,8.3,4.1c0.9,0.5,1.7,0.5,2.7-0.1c0.7-0.5,1.8-0.6,2.7-0.9c0.8-0.2,1.6-0.4,2.4-0.6c0.6-0.2,1.2-0.3,1.8-0.4
		c0.4-0.1,0.8-0.2,1.2-0.3c0.8-0.2,1.7-0.4,2.5-0.5c0.7-0.1,1.5,0.1,2.2,0.2c0.8,0.1,1.6,0.4,2.4,0.6c0.7,0.2,1.4,0.4,2.1,0.6
		c1.1,0.3,2.2,0.6,3.3,1c0.8,0.2,1.6,0.4,2.3,0.8c0.7,0.4,1.4,0.2,2.1,0c0.6-0.2,1.2-0.5,1.8-0.5c2.1-0.1,4.1-0.2,6.2-0.1
		c1.5,0.1,3.1,0.5,4.6,0.7c0.5,0.1,1,0,1.4,0C193,95.7,193,95.6,193,95.6z M111.7,67.6c-0.8-1-1.7-1-2,0c-0.3,1-0.6,2-0.5,3
		c0.1,1.5,0.3,2.9,0.6,4.4c0.2,1,0.6,1.9,0.9,2.8c0.2,0.5,0.8,0.8,1.1,0.5c0.2-0.2,0.2-0.8,0.1-0.9c-0.5-0.5-0.3-0.9-0.1-1.3
		c0.2-0.4,0.5-0.8,0.8-1.4c0.3,0.9,0.6,1.6,0.7,2.4c0.2,0.8,0.6,1.3,1.3,1.8c0.9,0.6,1.7,1.4,1.9,2.6c0.1,0.7,0.3,1.4,0.5,2
		c0.1,0,0.1,0,0.2,0c0.1-0.3,0.4-0.5,0.4-0.8c0.1-0.8,0-1.7,0-2.5c0-1.4,0.2-2.8,1.4-3.8c0.5-0.4,0.9-0.9,1.3-1.3
		c0.2-0.2,0.4-0.5,0.6-0.8c0,0.1,0,0.2,0.1,0.3c0.3,0.2,0.7,0.4,1,0.5c0.3,0.1,0.7,0.1,1.1,0.1c0.8,0.1,1.6,0.2,2.4,0.3
		c0.6,0.1,1.2,0.1,1.8,0.1c0.5,0,1.1-0.1,1.7-0.2c-0.2,0.3-0.3,0.7-0.4,0.8c-1.1,0.2-1.7,1.3-2.9,1.5c-0.6,0.1-1-0.1-1.4-0.2
		c-0.4-0.1-1,0-1.1-0.7c0-0.1-0.2-0.2-0.4-0.3c-0.4-0.2-0.7-0.4-1.1-0.7c-0.3-0.2-0.5-0.5-0.8-0.8c-0.3,1.7-1.7,2.7-1.7,4.5
		c0.9-0.4,1.6-0.9,2.6-0.5c0,0.2,0.1,0.4,0.1,0.7c0.2,0,0.4,0,0.6,0c1.4,0.1,2.9,0.1,4.3,0.3c0.7,0.1,1.4,0.3,2.2,0.5
		c0.2,0,0.5,0,0.6-0.1c0.6-0.6,1.2-0.4,1.8-0.1c0.2,0.1,0.5,0,0.7-0.1c0.1-0.1,0.1-0.5,0-0.6c-0.4-0.9-0.8-1.7-1.3-2.6
		c-0.4-0.9-0.8-1.7-1.3-2.6c1.5,1.4,2.5,3,3.1,4.8c0.7,1.9,0.5,3.9,0.1,6c0.4-0.2,0.7-0.2,0.7-0.3c0.2-0.7,0.6-0.7,1-0.4
		c0.1-0.6,0.3-1.3,0.4-1.9c0-0.1,0-0.3,0-0.5c-0.2-0.8,0-1.3,0.7-1.7c0.6-0.4,1-1,1.5-1.5c0.7-0.9,1.2-1.8,1.9-2.6
		c0.1-0.1,0.4-0.2,0.5-0.1c0.2,0.3,0.3,0.6,0.4,0.9c0.1,0.3,0,0.6-0.1,0.9c0.2,0,0.5,0.1,0.7,0c1.5-0.7,2.5-1.9,2.8-3.6
		c0.2-1,0.4-1.9,0.5-2.9c0.1-1,0-2-0.2-3c-0.2-1.1-0.9-1.4-2-1c-0.2,0.1-0.4,0.1-0.7,0.1c0.1-0.4,0.2-0.7,0.2-1
		c0.2-1,0.4-1.9,0.4-2.9c-0.1-1.3,0.1-2.5,0.1-3.8c0-0.2-0.3-0.5-0.4-0.7c-0.1,0-0.2,0.1-0.2,0.1c0,0.4,0.1,0.8,0.1,1.2
		c0,0-0.1,0-0.1,0c-0.7-1.3-1.5-2.6-2.2-3.9c-0.2,0.4-0.4,0.7-0.5,0.9c-0.8-1.1-1.4-2.1-2.1-3c-0.5-0.7-1.3-0.9-2.1-0.6
		c-0.2,0.1-0.4,0.1-0.6,0.1c-1.4,0-2.7,0.1-4.1,0c-0.4,0-0.8-0.2-1.3-0.3c0.2-0.4,0.3-0.6,0.4-0.9c-1.1,0.2-2,0.4-3,0.5
		c0,0,0-0.1-0.1-0.2c0.4-0.3,0.9-0.5,1.5-0.8c-1.1-0.2-1.8,0.2-2.5,0.9c-0.2,0.2-0.6,0.5-0.9,0.5c-0.8,0.1-1.5,0.3-2.2,0.7
		c-0.4,0.2-0.8,0.4-1.1,0.6c-0.8,0.5-1.6,0.9-2.5,1.4c-0.1,0.1-0.3,0-0.5,0c-0.2,0-0.4-0.1-0.6-0.2c-0.2-0.1-0.3-0.2-0.4-0.2
		c-0.3-0.1-0.9-0.5-1-0.4c-0.7,0.6-1.3,1.2-1.8,2c-0.6,1.1-0.8,2.3-0.7,3.6c0.1,2.1-0.1,4.1-0.2,6.1C112.2,67.4,112,67.5,111.7,67.6
		z M99.8,98.3c-0.1-0.5-0.1-1-0.2-1.4c-0.3-0.8-0.6-1.6-1-2.4c-0.1-0.2-0.4-0.5-0.7-0.5c-1.2-0.2-2.4-0.4-3.6-0.9
		c-1-0.4-2.2-0.5-3.3-0.5c-3-0.1-6,0.1-9,0.8c-0.5,0.1-1,0.4-1.6,0.5c-1,0.2-2,0.5-2.9-0.3c-0.4-0.4-1-0.7-1.5-0.9
		c-0.9-0.4-1.9-0.6-2.8-1.1c-1.1-0.6-2.3-0.5-3.5-0.5c-0.5,0-1,0-1.5,0c-1.5,0-2.9,0.4-4.1,1.2c-1.6,1.1-3.4,1.8-5.1,2.7
		c-1.1,0.5-2.1,1-2,2.5c0,0.6-0.5,1.1-1.1,1.1c-0.9,0.1-1.8,0-2.8,0c0-0.4,0.1-0.9,0.1-1.4c-0.3,0-0.7-0.1-1-0.1
		c-0.5,0-1.1,0.2-1.6,0.1c-0.7-0.1-1.4-0.4-2.1-0.7c-0.7-0.2-1.6,0-2,0.5c-0.3,0.5-0.3,1.2,0.2,1.7c0.2,0.2,0.4,0.3,0.6,0.5
		c0.7,0.6,1.4,1.1,2.4,1c0.6,0,1.1,0,1.8,0c-0.2,0.6-0.5,1-0.6,1.5c-0.1,0.4-0.2,1.1,0,1.3c1,0.8,2.2,1.4,3.6,1.4c1.1,0,2.2,0,3.3,0
		c0.7,0,1.3,0,2.2,0c-0.3,0.3-0.4,0.4-0.5,0.5c-1.5,0.7-3.1,1.4-4.6,2.2c-0.3,0.1-0.5,0.5-0.7,0.8c0,0.1,0.2,0.4,0.4,0.4
		c0.7,0.1,1.4,0.2,2.1,0.3c0.9,0.1,1.8,0.2,2.7,0.3c0.1,0,0.1,0,0.2,0c0.6,0.2,1.1,0.4,1.7,0.4c1.3,0,2.5,0.5,3.7,0.8
		c0.5,0.1,1.1,0.3,1.6,0.3c0.9-0.1,1.8-0.3,2.6-0.5c0.3-0.1,0.6-0.2,1-0.2c2,0,3.9,0,5.9,0c0.3,0,0.6-0.1,0.9-0.3
		c0.4-0.2,0.4-0.6,0-0.7c-1-0.6-2.1-1.1-3.2-1.6c-0.5-0.2-0.7-0.4-0.7-0.9c0-1-0.4-1.3-1.4-1.3c-0.3,0-0.7,0-1,0
		c-0.4,0-0.9,0-1.3-0.2c-0.7-0.4-1.4-0.6-2.3-0.7c-0.6,0-1.2-0.2-1.8-0.4c-0.5-0.2-1-0.5-1.5-0.6c-1-0.3-1.6-0.8-1.9-1.9
		c-0.1-0.3-0.5-0.7-0.8-0.7c-1-0.2-1.8-0.9-1.9-1.8c0-0.2,0.1-0.4,0.2-0.5c0-0.1,0.3,0,0.4,0.1c1,0.9,2.2,1.2,3.5,1.2
		c1.5-0.1,3,0,4.5,0c0.2,0,0.4,0,0.5,0c1.2,0.3,2.4,0.7,3.6,1c1.1,0.3,2.2,0.6,3.3,0.7c1.2,0.1,2.5,0.4,3.8-0.1
		c0.2-0.1,0.5-0.1,0.7,0c0.5,0.1,1,0.2,1.6,0.2c0.2,0,0.3,0,0.5,0.1c1.1,0.2,2.2,0.5,3.2,0c0.2-0.1,0.5,0,0.6,0.1
		c0.5,0.5,1,1,1.5,1.5c0.6,0.6,1.2,1.2,1.9,1.8c0.9,0.7,1.9,1.3,2.8,2c0.4,0.3,0.7,0.6,1.1,0.8c0.8,0.5,1.7,0.9,2.4,1.4
		c1.3,1,2.5,2.1,3.8,3.1c0.2,0.1,0.4,0.2,0.6,0.2c1.5,0.2,2.7-0.5,3.8-1.5c0.3-0.3,0.7-0.5,1.1-0.8c0-0.1,0-0.2,0-0.2
		c-0.3-0.1-0.6-0.3-1-0.4c-0.8-0.2-1.4,0.1-1.9,0.7c-0.5,0.6-1.1,0.8-1.8,0.5c0.5-0.6,0.9-1.2,1.4-1.7c0.5-0.5,1.1-1,1.7-1.5
		c-0.5-0.3-1-0.4-1.5-0.2c-0.6,0.3-1.2,0.6-1.8,0.9c-0.7,0.4-1.4,0.7-2.1,0.4c-0.3-0.1-0.9-0.1-0.9-0.7c1.7-0.1,3.8-1.6,4.1-2.3
		c-2.2-0.6-2.7-0.8-2.7-1.4c0.9,0.1,1.8,0.2,2.6-0.1c0-0.1,0-0.1,0-0.2c-1.2-0.6-2.5-1.2-3.7-1.8c0.7-0.1,1.4-0.1,2.1,0.1
		c0.6,0.1,1.2,0.4,1.9,0.5c0.1,0,0.3-0.1,0.4-0.2c0,0,0-0.2-0.1-0.3c-0.7-0.4-1.4-0.9-2.1-1.3c-0.8-0.5-1.6-1-2.3-1.5
		c0.3-0.1,0.6-0.2,0.9,0c0.9,0.4,1.7,0.9,2.5,1.4c0.4,0.2,0.8,0.4,1.2,0.5c0-0.1,0.1-0.1,0.1-0.2c-1.6-1.9-3.7-3.4-4.5-5.8
		C97.8,96.2,98.1,97.8,99.8,98.3z M85.6,65c0,0-0.1,0.1-0.1,0.1c-0.2-0.2-0.3-0.4-0.5-0.5c-0.1-0.1-0.4,0-0.4,0
		c-0.2,0.4,0.3,2,0.7,2.2c0.5,0.4,1.1,0.7,1.6,1.1c1.1,1,1.8,0.9,2.8-0.3c0.1-0.1,0.4-0.3,0.6-0.2c1.1,0.4,1.5,0.1,1.7-1.1
		c0-0.2,0.2-0.5,0.3-0.5c1.4-0.5,1.4-1.3,1-2.3c-0.5-1.1-1.1-2.1-1.6-3.1c-0.5-1.2-1.1-2.3-1.7-3.5c-0.7-1.3-2.1-1.3-3.3-1
		c-0.9,0.3-1.9,0.5-2.8,0.7c-1.2,0.3-2.5,0.6-3.7,1c-1.2,0.3-2.3,0.9-3.5,1.1c-1.1,0.2-2,0.6-3,1c-0.8,0.3-1.5,0.9-2.5,0.9
		c-1.1,0-2.3,0.3-3.4,0.5c-0.9,0.2-1.2,0.8-1.2,1.7c0,0.5,0,1.1,0,1.9c-0.5-0.9-0.7-0.3-1-0.1c-1.5,1-3,2-4.5,3
		c-1.9,1.3-3.7,2.7-5.5,4.1c-1.8,1.3-3.6,2.6-5.3,4c-1.5,1.3-3.1,2.5-4.4,4c-2.4,2.7-4.7,5.5-7,8.3c-1,1.2-2.2,2.3-3.2,3.4
		c-0.7,0.8-1.4,1.7-1.9,2.7c-0.5,0.9,0,1.7,1,1.7c0.4,0,0.8,0,1.1,0.1c1,0.5,1.9,0.6,2.9,0c0.6-0.4,1.2-0.6,1.8-0.9
		c0.5-0.3,1.2-0.6,1.3-1c0.2-1,0.8-1.6,1.6-2.2c0.3-0.3,0.5-0.2,0.8,0c0.4,0.3,0.9,0.4,1.4,0.2c0.2-0.1,0.4-0.2,0.5-0.2
		c1.8,0,3.7,0,5.5,0.3c0.3,0.1,0.7-0.1,1-0.3c0.2-0.1,0.5-0.2,0.7-0.3c0.6-0.4,1.3-0.8,1.4-1.6c0.1-0.8,0.2-1.7,0.3-2.6
		c-0.5,0-0.9,0-1.4,0c-0.9,0-1.3-0.4-1.3-1.2c0-0.8,0.2-1.5,0.5-2.2c0.3-0.8,0.8-1.3,1.4-1.7c0.7-0.5,1.5-1,2.2-1.5
		c0.7-0.5,1.4-1.1,2.1-1.7c0.4-0.3,0.7-0.7,1-1.1c-1-0.3-1.2-0.9-0.6-1.5c0.5-0.5,1.1-1.1,1.6-1.6c0.2-0.2,0.4-0.5,0.7-0.7
		c0.7-0.5,1.4-1,2.1-1.5c0.8-0.5,1.6-1.1,2.4-1.6c0.9-0.6,1.9-1,2.7-1.6c0.5-0.4,1.4-0.8,0.7-1.7c0.5-0.3,1.1,0.3,1.5-0.5
		c0.4-0.7-0.2-0.9-0.5-1.3c0.6-0.3,1-0.2,1.2,0.3c0.3,0.7,0.5,0.7,1,0.1c0.7-0.9,1.1-0.9,2.1-0.3c0.1,0.1,0.3,0.1,0.4,0.1
		c1.4,0,2.9,0,4.3,0c0.4,0,0.8,0,0.8-0.5c0-0.5-0.1-0.9-0.6-1.1c-0.5-0.2-0.9-0.4-1.4-0.6c0.7-0.3,1.1-0.8,1.8-0.6
		c0.3,0.1,0.6,0.2,0.9,0.2c1,0.1,1.9,0,2.8-0.5c0.2-0.1,0.7-0.1,0.7,0.1C85,63.7,85.3,64.3,85.6,65z M193.4,100.9
		c-0.2,0.1-0.6,0.4-0.8,0.4c-0.3-0.1-0.6-0.4-0.8-0.7c-0.1-0.1-0.3-0.3-0.4-0.4c-1.2-1-1.8-2.6-3.3-3.5c-0.5-0.3-0.8-0.5-1.3-0.1
		c-0.2,0.1-0.5,0.1-0.7,0.1c-0.4,0-0.8-0.2-1.2-0.2c-1.9,0-3.9,0.1-5.8,0.2c-0.2,0-0.4,0.1-0.6,0.2c-1.9,0.8-3.9,1.3-6.1,1.2
		c-1.3-0.1-2.3-0.5-3-1.6c-0.6-0.9-1.6-1.1-2.6-0.9c-0.7,0.1-1.4-0.2-1.7-0.8c-0.1-0.2-0.4-0.3-0.7-0.4c-0.3,0-0.7,0-1,0.1
		c-1.2,0.2-2.4,0.3-3.5,0.7c-1.2,0.5-2.4,1.3-3.5,2.1c-1.4,1.2-2.6,2.6-3.9,3.9c-0.4,0.4-0.8,0.8-1.2,1.2c-0.2,0.2-0.3,0.4-0.5,0.6
		c0.1,0.1,0.2,0.2,0.2,0.3c2.5-1.5,4.5-3.8,7.3-4.8c-1,0.8-2.1,1.5-3.1,2.3c-1,0.8-2,1.7-2.9,2.6c-0.9,0.9-2.1,1.4-2.9,2.5
		c0.3,0,0.5,0,0.6,0c1.6-0.6,3.1-1.3,4.7-1.9c1.2-0.5,2.4,0.4,2.3,1.8c-0.2-0.1-0.4-0.2-0.6-0.3c-0.2-0.1-0.5-0.2-0.7-0.2
		c-1.5,0-2.9,0.4-4.2,1.2c-0.9,0.5-1.8,1-2.8,1.5c0.9,0.5,1.7,0.3,2.5,0.3c0.9-0.1,1.7-0.2,2.6-0.2c0.3,0,0.6,0.3,0.7,0.5
		c0.4,0.9,0.7,1.8,1.1,2.9c0.5-0.2,1.1-0.4,1.6-0.6c1.5-0.7,3.1-1.3,4.6-2c0.4-0.2,0.8-0.4,1.1-0.6c0.6-0.4,1.1-0.9,1.7-1.4
		c0.8-0.7,1.7-1.4,2.5-2.2c0.4-0.4,0.9-0.7,1.4-1.2c0.2,1.1,0.3,1.2,1.2,1.2c0.2,0,0.4,0,0.6,0c1.3,0.2,2.5,0.5,3.8,0.5
		c2.9,0,5.9-0.1,8.8-0.2c1.4-0.1,2.7-0.2,4.1-0.3c0.2,0,0.3-0.1,0.4-0.1c0.9-0.3,1.7-0.7,2.7-0.7c0.7,0,1.5,0.1,2-0.5
		c0.3-0.4,0.7-0.3,1-0.1c0.4,0.2,0.9,0.5,1.3,0.7c0,0,0.1-0.1,0.1-0.1C194.1,102.7,193.8,101.8,193.4,100.9z M179.6,76.6
		c0.5,0.4,0.8,0.7,1.2,1c1.4,0.8,2.9,1.5,4.2,2.4c0.9,0.6,1.7,1.4,2.5,2c0.6,0.5,1.2,0.9,1.9,1.4c0-0.6,0-0.9,0-1.2
		c0.1-0.4,0.1-0.9,0.3-1.3c0.3-0.7,0-1.4-0.7-1.7c-0.6-0.2-1.1-0.4-1.7-0.5c-0.5-0.1-1-0.2-1.6-0.3c0,0.1,0,0.1-0.1,0.2
		c0.2,0.2,0.5,0.3,0.7,0.5c-0.3,0.5-0.4,0.5-0.6,0.1c-0.5-0.8-0.9-1.6-1.3-2.4c-0.2-0.4-0.5-0.6-1-0.7c-0.5,0-1.1-0.2-1.6-0.4
		c-0.4-0.1-0.5-0.4-0.3-0.8c0.3-0.6,0.5-1.2,0.8-1.8c0.2-0.4,0.2-0.8-0.2-1.1c-0.8-0.6-1.5-1.2-2.3-1.8c-0.4,0.5-0.4,1.4-1.4,1
		c0-0.3,0-0.6,0-0.9c-0.5-0.1-1-0.2-1.6-0.3c0.2,0.4,0.3,0.7,0.5,1.1c-0.4-0.2-0.7-0.6-1-0.6c-0.5,0-0.6-0.3-0.8-0.6
		c-0.3-0.5-0.6-0.9-0.9-1.4c-0.1,0-0.1,0.1-0.2,0.1c0.1,0.2,0.3,0.5,0.4,0.7c0,0-0.1,0.1-0.2,0.1c-0.7-0.7-1.4-1.5-2.1-2.2
		c-0.3-0.3-0.6-0.6-1-0.7c-2-0.6-3.9-1.3-5.7-2.3c-0.3-0.2-0.7-0.3-1.1-0.4c-1.2,0-1.9,0.8-2.5,1.7c-0.7,1.3-1.5,2.5-2.2,3.8
		c-0.6,1.1-1.1,2.2-1.7,3.3c-0.3,0.6,0.1,1.1,0.5,1.2c0.6,0.2,0.9,0.5,1.2,1c0.2,0.3,0.6,0.7,1,0.8c0.3,0.1,0.8-0.2,1.2-0.4
		c0.1,0.2,0.2,0.4,0.3,0.6c0.1,0.2,0.2,0.4,0.3,0.6c0.3,0.5,1,0.5,1.2,0c0.2-0.4,0.3-0.8,0.4-1.2c0.3-1.3,0.1-2.6-0.1-3.9
		c0-0.3-0.2-0.6-0.5-0.7c-0.5-0.2-0.4-0.5-0.1-0.9c0.3,0.4,0.7,0.9,0.8,1.3c0.1,1.1,0.7,1.7,1.6,2.1c0.6,0.2,0.9,0.6,1.2,1.2
		c0.2,0.4,0.6,0.9,1,1.1c0.6,0.2,1.3,0.2,2,0.2c0.6,0,1.2,0,1.8-0.2c1-0.2,1.9-0.5,2.9-0.6c0.7-0.1,1.4-0.3,2-0.1
		c0.8,0.3,1.5,0.3,2.2-0.1c0.5-0.3,0.9-0.1,1.1,0.3c0.2,0.5,0,0.8-0.5,1.1C180,76.4,179.8,76.5,179.6,76.6z M132,91.7
		c0.2-0.8,0.6-1.2,1.6-0.9c-1.4-1.4-0.8-2.7-0.4-4c-0.4-0.1-0.7-0.1-1.1-0.2c-0.2,0.5-0.4,1-0.6,1.5c-0.1,0-0.1,0-0.2,0.1
		c-0.4-1,0-2.2-0.5-3.4c-0.6,0.9-1.2,1.7-1.8,2.7c-0.1-0.3-0.1-0.3-0.1-0.4c0-1.1-0.7-2-1.8-2c-1.3,0-2.7,0-4,0.1
		c-1.5,0.1-1.8,0.7-1.4,2.2c0,0.2,0.1,0.3,0.1,0.5c0,0-0.1,0-0.1,0c-0.6-1-1.2-2.1-1.8-3.2c-0.6,0.9,0,2-0.9,2.8
		c0-0.6-0.1-1-0.1-1.4c0,0-0.1,0-0.1,0c-0.1,0.4-0.1,0.8-0.2,1.2c-0.2-0.1-0.3-0.2-0.6-0.3c0,0.4-0.1,0.7-0.1,1c0,0.6,0,1.2,0,1.8
		c0,0.5,0,0.9,0.5,0.9c-0.1,0.3-0.2,0.6-0.3,0.9c0.3,0,0.7-0.1,1.1-0.1c0,0.5,0.6,0.9,0,1.5c-0.1-0.1-0.2-0.2-0.3-0.3
		c-0.1,0.3-0.2,0.6-0.2,0.9c0,0.1,0,0.4,0.1,0.4c0.4,0.4,0.9,0.7,1.3,1.1c0.1,0.1,0.2,0.3,0.1,0.3c-0.3,0.7,0.2,1.2,0.4,1.7
		c0.1,0,0.1,0,0.2,0c0-0.4,0-0.8,0-1.2c0.3,0.1,0.6,0.3,0.9,0.4c0,0.3,0,0.6,0,0.9c0.1,0,0.1,0,0.2,0c0.2-0.4,0.3-0.7,0.5-1.1
		c0.7,0.2,1.2,0.7,1.3,1.5c0.3-0.1,0.5-0.2,0.6-0.3c0.1-0.4,0.3-0.7,0.3-0.9c0.6,0,1,0,1.6,0c0,0.3-0.1,0.7-0.2,1.1
		c0,0.1,0.1,0.1,0.1,0.2c0.7-0.5,1.4-0.9,2.1-1.4c0,0.3,0,0.6,0,1c0.2-0.2,0.3-0.2,0.4-0.3c0.3-0.6,0.5-1.2,0.8-1.8
		c0.2-0.4,0.3-0.8,0.9-0.5c0.6-1.4,0.7-1.6,1.3-2c0.3,0.1,0.5,0.3,0.7,0.4C132.9,92,132.8,91.7,132,91.7z M209.7,91.5
		c-0.1,0.8-0.5,1.4-1.2,2s-1.5,0.3-2.3,0.7c0.1,0.3,0.1,0.5,0.2,0.8c-0.9,0-1.3-0.6-1.6-1.2c-0.4-0.7-0.9-1.1-1.7-1.2
		c-0.2,0-0.5,0.2-0.5,0.3c0.1,0.5,0.1,1-0.1,1.5c-0.1,0.2,0.1,0.4,0.2,0.6c0.3,0.5,0.6,1.1,0.8,1.6c0.2,0.7-0.4,1-0.7,1.3
		c-0.3,0.3-0.6,0.2-0.9,0.1c-0.4-0.2-0.8-0.4-1.3-0.5c-0.6-0.2-1.3-0.6-2-0.1c0.4,0.7,0.9,1.3,1.3,2c0.3,0.5,0.8,0.7,1.4,0.7
		c0.7,0,1.4-0.1,2,0.4c1,0.8,2.4,0.4,3.5,1.2c0.1,0.1,0.3,0,0.4,0c0.2,0.1,0.5,0.1,0.7,0.2c0.2,0.1,0.4,0.2,0.6,0.3
		c0.5,0.3,1,0.6,1.5,0.9c0.3,0.2,0.5,0.5,0.8,0.6c0.7,0.3,1.5,0.6,2.3,0.8c0.7,0.2,1.4,0.5,2,0.5c1.4,0,2.9-0.1,4.3-0.3
		c0.2,0,0.6-0.3,0.7-0.4c0.1-0.6,0.1-1.3,0-1.9c-0.4-1.3-1.3-2.4-2.2-3.4c-1.4-1.6-2.9-3.1-4.4-4.6c-0.8-0.8-1.6-1.5-2.3-2.3
		C210.9,91.5,210.4,91.3,209.7,91.5z M92.9,116.3c-0.1,0.7-0.2,1.3-0.4,2c-0.4,1.5,0,3,0.4,4.5c0.2,1,0.5,2,0.8,3
		c0.2,0.8,0.3,1.5,0.5,2.3c0.3,1.3,0.8,2.6,1.1,4c0.4,2,1.2,3.7,2.1,5.5c0.1,0.2,0.5,0.4,0.7,0.3c0.7-0.2,1.2-0.9,1.2-1.7
		c0-1.9,0-3.8,0-5.7c0-0.5,0-1,0.2-1.5c0.3-1.4,0.7-2.7,0-4.3c-0.2,0.3-0.4,0.5-0.5,0.7c-0.1,0.3-0.1,0.5-0.1,0.8
		c-0.1,0-0.1,0-0.2,0c-0.5-0.8-0.9-1.5-1.4-2.3c-0.4-0.7-0.7-1.5-1-2.2c-0.6-1.3-1.8-2.4-1.8-4C94.6,117,93.7,116.3,92.9,116.3z
		 M197.2,84.8c-0.1,0.3-0.2,0.6-0.1,0.8c0.3,1.1,0.7,2.2,1,3.2c0.1,0.2,0.3,0.4,0.4,0.5c0.7,0.4,0.9-0.2,1.2-0.6
		c0.3,0.4,0.5,0.7,0.8,1c-0.1,0-0.1,0-0.2,0c-0.2,0.4-0.3,0.9-0.5,1.3c0.1,0,0.2,0.1,0.3,0.1c0.3-0.4,0.5-0.8,0.9-1.3
		c0.4,0.3,0.9,0.7,1.4,1.1c0.1,0.1,0.2,0.3,0.4,0.4c0.9,1,2.1,1.5,3.3,2c0.5,0.2,1-0.2,0.9-0.8c0-0.4,0-0.8,0-1.2
		c0.5,0,1-0.1,1.4-0.1c0.2,0,0.4-0.2,0.4-0.3c0-0.1-0.1-0.3-0.2-0.5c0-0.1-0.1-0.2-0.2-0.3c0.3,0,0.6,0,1.1,0
		c-0.5-0.6-0.8-1.2-1.2-1.6c-1.3-1.2-2.6-2.3-3.9-3.4c-0.3-0.3-0.6-0.6-1-0.8c-1.1-0.7-2.2-1.5-3.4-2.1c-0.6-0.3-1.3-0.6-1.9-0.8
		c0,0.1-0.1,0.2-0.1,0.2c0.2,0.9,0.9,1.5,1.5,1.9c0.7,0.5,1.5,0.8,2.2,1.2c-0.3,0.7-0.6,1.4-0.9,2c-0.5-1-0.6-2.4-2.1-2.6
		C198.3,85.2,197.9,85.4,197.2,84.8z M113,93.6c-0.5,0.4-0.8,1-1.3,1.2c-0.7,0.3-1.5,0.4-2.3,0.7c-0.4,0.1-0.9,0.4-1.2,0.6
		c-0.4,0.3-0.8,0.4-1.2,0.1c-0.6-0.4-1.2-0.3-1.8-0.2c-0.2,0-0.3,0.1-0.5,0.2c-0.6,0-1.2,0-1,1.1c-0.4-0.3-0.6-0.5-0.9-0.7
		c-0.7-0.6-1.4-1.2-2.2-1.8c-0.8-0.6-1.2-0.5-1.6,0c0.2,0.2,0.4,0.5,0.6,0.7c0.5,0.7,0.9,1.4,0.9,2.3c0,0.7,0.3,1.1,1,1
		c0.7-1-0.4-1.7-0.3-2.6c0.6,0.8,1,1.7,1.5,2.6c0.1,0.2,0.1,0.5,0.3,0.6c0.3,0.1,0.6,0.1,1,0.1c0-0.2-0.1-0.5-0.1-0.7
		c0-0.2-0.1-0.3-0.2-0.6c0.4,0.6,0.7,1,1.1,1.4c0.5,0.6,0.6,0.6,1-0.1c0.1,0.1,0.3,0.1,0.4,0.2c0.7,0.7,1.5,1,2.5,0.9
		c0.7-0.1,1.4-0.2,2-0.3c0.5-0.1,1.1-0.1,1.4-0.4c0.6-0.4,1-1,1.5-1.5c0.1-0.1,0.1-0.2,0.1-0.2c0.1-0.3,0.2-0.7,0.2-1
		c0-0.2,0-0.5-0.1-0.5c-0.1-0.1-0.4-0.1-0.6,0c-0.3,0.2-0.6,0.5-0.9,0.7c-0.1,0.1-0.3,0.1-0.5,0.2c0-0.2-0.1-0.4,0-0.6
		c0.4-0.6,0.8-1.2,1.2-1.8C113.1,94.6,113.5,94.1,113,93.6z M125.2,118.9c0.6-0.1,1.5-1.7,1.4-2.6c-0.5,0.5-0.9,1-1.3,1.5
		c-0.3-0.3-0.6-0.7-0.9-1c-0.1,0-0.1,0-0.2,0c0.1,0.4,0.1,0.8,0.2,1.2c-0.8-0.5-1.7-1.1-2.7-1c-0.1,0.3-0.1,0.5-0.2,0.8
		c-0.3-0.1-0.6-0.2-0.9-0.3c-0.8-0.2-1.6-0.4-2.4-0.6c-0.8-0.3-1.6-0.4-2.3,0.2c0.6,0.9,1.6,1.6,1.6,2.8c-0.2-0.2-0.3-0.4-0.4-0.6
		c-0.3,0.3-0.6,0.5-0.9,0.9c0.4,0.4,0.7,0.9,1.2,1.4c0.1-0.4,0.2-0.6,0.3-0.9c0.1,0.3,0.1,0.5,0.2,0.7c0.1,0,0.2,0,0.2,0
		c0-0.3,0-0.7,0.1-1c0-0.2,0.2-0.3,0.3-0.5c0.1,0.1,0.2,0.3,0.3,0.4c0.3,0.5,0.4,1.4,1.4,1.3c-0.2,0.4-0.3,0.7-0.4,1
		c-0.2,0.5,0,0.9,0.5,0.9c1.2,0.1,2.5,0.2,3.7,0.3c0.8,0,0.8,0,0.7-0.8c0.7,0,1.3,0,2.1,0c-0.3-0.6-0.7-1.1-1-1.7
		c0.3-0.2,0.5-0.3,0.9-0.5C126,120.2,125.6,119.6,125.2,118.9z M141.9,108.8c0.3,1.2,0.5,2.3,0.9,3.4c0.2,0.6,0.1,1-0.1,1.6
		c-0.1,0.3,0,0.7,0.1,1c0.1,0,0.2,0,0.2,0.1c0.4-0.5,0.9-1,1.3-1.6c0.6-0.8,1.1-1.6,1.7-2.3c0.7-0.8,0.6-1.3-0.4-1.7
		c-0.2-0.1-0.4-0.3-0.4-0.5c0.1-0.8,0.2-1.6,0.3-2.4c1.2,0.4,1.5,0.3,2.1-0.9c0.2-0.4,0.6-0.7,0.7-1.1c0.1-0.3,0.1-0.8-0.1-1
		c-0.5-0.5-1.1-1.1-1.7-1.4c-0.7-0.3-1.5-0.5-2.3-0.6c-0.7,0-1.4,0.1-2.1,0.3c-0.3,0.1-0.5,0.4-0.8,0.6c0.2,0.2,0.3,0.4,0.5,0.6
		c0.1,0.1,0.2,0.1,0.4,0.1c0.9,0.1,1.5,0.8,1.5,1.7c0,0.1,0.1,0.1,0.1,0.2c0,0.2,0.1,0.3,0.1,0.5c-0.2,0.7-0.4,1.3-0.5,2
		C143.3,108.1,142.5,108.8,141.9,108.8z M115.5,108.9c0,0.1-0.1,0.2-0.1,0.2c0.4,0.3,0.9,0.6,1.3,0.9c0.3,0.2,0.8,0.5,0.8,0.6
		c-0.1,0.6,0.4,0.5,0.6,0.7c0.1,0.2,0.5,0.2,0.7,0.3c0.4,0.1,0.4,0.2,0.2,0.6c-0.1,0.1-0.2,0.3-0.1,0.5c0.1,0.1,0.3,0.3,0.4,0.2
		c0.1-0.1,0.2-0.3,0.3-0.4c0.1-0.1,0.2-0.2,0.4-0.3c0,0.1,0.1,0.1,0.1,0.2c-0.2,0.2-0.3,0.3-0.4,0.5c-0.5,0.6-0.3,1,0.4,1.2
		c0.1,0,0.2,0.2,0.3,0.3c0.1,0.2,0.2,0.4,0.3,0.6c0.1,0,0.1,0,0.2,0.1c0.3-0.5,0.6-1,0.9-1.6c0.3,0.6,0.6,1.2,0.9,1.8
		c0.1,0.1,0.3,0.2,0.4,0.3c0.1-0.2,0.2-0.3,0.2-0.5c0.1-0.8,0-1.5-0.6-2.1c0.5,0,1,0.2,1.4,0.2c0.5,0.1,1,0.1,1.4-0.4
		c-0.9-0.9-3.1-1.3-3.7-0.3c-0.2-0.1-0.3-0.2-0.5-0.4c0.2-0.1,0.3-0.1,0.4-0.2c0.2-0.2,0.6-0.3,0.7-0.6c0-0.2-0.2-0.6-0.4-0.8
		c-0.9-0.6-1.9-0.8-3-0.7c-0.4,0.1-0.9,0-1.4-0.2C116.9,109.4,116.2,109.1,115.5,108.9z M114.8,113.5c-0.5-0.1-0.9-0.1-1.4-0.2
		c-0.6-0.1-1.2-0.5-1.9-0.4c-0.4,0-0.7,0-0.8-0.3c-0.1-0.2,0.2-0.5,0.4-0.7c0.2-0.3,0.4-0.6,0.8-1c-0.6,0.1-1,0.3-1.5,0.2
		c-0.4,0-0.6,0.2-0.8,0.5c-0.5,0.8-1,1.6-0.2,2.5c0.1,0.1,0.1,0.4,0.2,0.6c0.3,0.8,0.5,1.7,1.3,2.2c0.2,0.1,0.4,0.2,0.7,0.2
		c0-0.1,0.1-0.1,0.1-0.2c-0.7-0.9-1.7-1.7-1.5-3c0.4,0,0.7,0,1.1,0c-0.1-0.3-0.1-0.4-0.1-0.6c0.2,0,0.4,0,0.5,0
		c0.1,0.3,0.1,0.6,0.2,0.8c0.2,1.1,1.7,1.9,2.5,1.2c0.6-0.5,1.1-0.5,1.7-0.3c0.1,0,0.4-0.1,0.5-0.2c0.5-1,0.2-1.4-0.9-1.4
		c-0.1,0-0.1,0-0.2,0c0-0.4,0-0.9,0-1.3c0-0.1-0.1-0.3-0.2-0.4c-0.1,0-0.3,0-0.4,0.1C114.3,112.1,114.3,112.6,114.8,113.5z
		 M107.2,144.3c-0.4-0.1-1.1,0.2-1.5-0.5c-0.4-0.7-1-1.3-1.6-1.9c-0.3-0.2-0.8-0.3-1.2-0.2c-0.2,0-0.4,0.7-0.2,0.9
		c0.4,0.8,0.9,1.6,1.5,2.3c0.8,1,1.7,1.8,1.9,3.1c0.2,1,0.9,0.9,1.3,0.4c0.2-0.2,0.3-0.7,0.3-1C107.6,146.4,107.4,145.4,107.2,144.3
		z M137.9,96.4c0,0,0.1,0.1,0.1,0.1c0.2-0.5,0.5-0.9,0.7-1.4c0.3-1,0.4-2.1,0.6-3.2c0.2-0.9-0.2-1.4-0.9-1.3
		c-0.3-1.7-0.3-1.7-0.7-1.8c-0.1,0.3-0.2,0.6-0.3,0.9c-0.8,0.2-0.9,0.3-0.7,1.2c0,0.2,0.1,0.4,0.1,0.6c0.1,1,0.4,2-0.3,2.9
		c-0.3,0.4-0.5,1-0.7,1.5c-0.2,0.4-0.1,0.7,0.3,0.9c0.5,0.2,0.7-0.1,0.8-0.5c0.2-0.4,0.3-0.9,0.5-1.3c0.1,0,0.2,0,0.3,0
		C137.8,95.5,137.8,96,137.9,96.4z M191.5,112.5c-1.1-0.6-2.1-1.5-3.5-1.5c-1,0-2-0.1-3,0.2c-1.6,0.5-3.2,0.7-4.8,1.1
		c-0.2,0-0.3,0.2-0.5,0.4c0.7,0.2,1.2,0.3,1.7,0.4c0.4,0.1,0.8,0.2,1.2,0.2c0.7,0,1.4-0.2,2-0.3c0.6-0.1,1.1-0.3,1.7-0.4
		c0.7-0.2,1.4-0.6,2.2-0.3C189.4,112.9,190.5,112.6,191.5,112.5z M101.3,134.6c0.7-0.5,1.3,0,1.8,0.1c0.9,0.2,1.7,0.5,2.6,0.4
		c0.1-0.2,0.1-0.5,0.2-0.7c0.2-0.9-0.2-1.9-1-2.3c-1-0.6-2-0.7-3.1-0.6c-0.7,0.1-1.2,0.7-1.1,1.4C100.7,133.4,101,134,101.3,134.6z
		 M108.1,108.3c-0.5,0.6-1,0.9-1.7,1c-0.3,0-0.8,0.1-0.7,0.6c0.1,1,0.2,2,0.6,2.9c0.4,1.2,1.1,2.3,1.7,3.4c0.1,0.1,0.2,0.2,0.3,0.3
		c0.1-0.1,0.2-0.3,0.2-0.4c0-0.2,0-0.4,0-0.5c-0.2-0.5,0.1-0.8,0.4-1c0.1-0.1,0.3-0.2,0.4-0.3c-1.6-1.2-1.6-1.2-1.5-1.8
		c0.5-0.1,0.9-0.2,1.5-0.3c-0.4-0.3-0.5-0.4-0.7-0.5c-0.6-0.4-0.7-0.9-0.3-1.4C108.5,109.7,108.5,108.9,108.1,108.3z M147.7,110.5
		c0,0,0,0.1,0,0.2c0.4,0.1,0.8,0.3,1.2,0.4c0.7,0.2,1.4,0.2,2,0.6c0.6,0.4,1.1,1.1,1.6,1.7c0.2,0.3,0.4,0.4,0.7,0.2
		c0.5-0.4,1-0.8,1.4-1.2c0.1-0.1,0.2-0.2,0.2-0.3c0.2-1.2-0.8-2.4-2-2.3c-1.5,0.1-3,0.3-4.5,0.5
		C148.1,110.3,147.9,110.4,147.7,110.5z M44.5,102.8c-0.6-1.5-1.8-1.7-2.9-1.9c-0.9-0.2-1.7-0.4-2.5-1c-0.5-0.4-0.9-0.8-1.5-1.2
		c-0.2,0.7,0.1,1.1,0.4,1.6c0.3,0.5,0.8,1,1.1,1.5c0.4,0.9,1,1.1,1.8,1.1c0.5,0,1.1,0.1,1.6,0.1C43.2,103,43.9,102.9,44.5,102.8z
		 M136.6,116.4c-0.2,0.5-0.4,1-0.6,1.4c-0.2,0.3-0.4,0.4-0.6,0.7c0,0.1,0.1,0.1,0.1,0.2c-0.2,0-0.3-0.1-0.5-0.1c0,0.3,0,0.6,0,0.9
		c-0.3-0.1-0.6-0.2-0.7,0.3c0,0.2-0.3,0.4-0.6,0.7c0-0.4-0.1-0.7-0.1-0.9c-0.1,0-0.2,0.1-0.3,0.1c-0.4,0.1-0.9,0.1-1.2,0.4
		c-0.4,0.5-0.9,0.4-1.4,0.5c-0.5,0.1-1.1,0.1-1.6,0.8c0.7,0.1,1.3,0.4,1.9,0.3c0.9-0.1,1.8-0.4,2.7-0.7c0.8-0.2,1.5-0.5,1.8-1.4
		c0.1-0.2,0.3-0.3,0.5-0.4c1.2-0.6,1.6-1.6,1.7-3.3C137.3,116.1,136.9,116.3,136.6,116.4z M109.2,104.6c-0.1-0.8,0.1-1.6-0.6-2.1
		c-0.6-0.4-1.2-1-2.1-0.8c-0.2,0-0.4,0.1-0.6,0c-0.5-0.3-1-0.5-1.7-0.3c-0.5,0.2-0.9,0.3-1,0.8c0,0.6,0,1.3,0.1,1.9
		c0.2,0.7,0.5,0.8,1,0.4c0-0.6-0.1-1.1-0.1-1.6c0-0.2,0.2-0.5,0.3-0.7c0.2,0.2,0.5,0.3,0.7,0.5c0.4,0.5,0.8,1.1,1.3,1.7
		c0.2-0.2,0.3-0.3,0.3-0.4c0.2-0.4,0.4-0.6,0.8-0.2C108.2,104,108.6,104.2,109.2,104.6z M145.4,112.8c0.7,0.3,1.3,0.5,1.9,0.9
		c0.8,0.4,1.6,0.7,2,1.6c0.2,0.4,0.2,0.9,0.4,1.3c0.2,0.6,0.6,0.7,1,0.2c0.5-0.6,0.9-1.2,0.5-2c-0.3-0.7-0.8-1.3-1.7-1.4
		c-0.9-0.2-1.8-0.5-2.6-0.7C146.5,112.6,146,112.1,145.4,112.8z M123.5,127.4c0-0.1-0.1-0.3-0.1-0.4c-1,0-2.1,0-3.2,0
		c0-0.1,0-0.1,0-0.2c0.4-0.2,0.9-0.2,0.7-0.9c-0.6-0.1-1.2-0.4-1.7-0.3c-0.5,0.1-1.1-0.7-1.6,0.1c0.3,0.2,0.5,0.4,0.8,0.6
		c0,0,0,0.1,0,0.1c-0.6-0.2-1.3-0.3-1.9-0.5c0.5,0.8,1.2,1,2,1.3c1.1,0.4,2.2,0.9,3.4,0.7C122.5,128,123,127.6,123.5,127.4z
		 M149.6,98.1c0.2-0.1,0.4-0.2,0.6-0.3c0.4-0.3,0.9-0.6,1.3-0.9c0.5-0.3,0.5-0.6,0-0.8c-0.6-0.2-1.2-0.3-1.7-0.6
		c-0.4-0.2-0.9-0.4-1.2,0.1c-0.3,0.4-0.5,0.8-0.6,1.2c-0.1,0.2,0,0.5,0.1,0.6C148.6,97.7,149.1,97.9,149.6,98.1z M128.6,81.2
		c0-0.1,0-0.2,0-0.3c-0.2-0.1-0.4-0.4-0.6-0.4c-1.7-0.5-3.4-0.7-5.2-0.3c-0.3,0.1-0.5,0.5-0.8,0.7c0.2,0.1,0.5,0.2,0.7,0.2
		c0.1,0,0.3,0,0.4,0C125,81.2,126.8,81.2,128.6,81.2z M104,111.7c-1.3,0.7-2.6,1.1-4,0.8c0.5,0.7,1.1,1.3,1.6,1.9
		c0.3,0.4,0.6,0.3,0.9,0c0.5-0.7,1-1.5,1.5-2.2C104,112.2,104,112,104,111.7z M122.2,108c0.8,1.1,1.4,1.4,2.5,1.2
		c0.4-0.1,0.7-0.5,1-0.8c0.1-0.1-0.1-0.5-0.3-0.6C124.6,107.2,123.1,107.3,122.2,108z M193.6,104.8c-0.2,0.4-0.3,0.6-0.3,0.9
		c-0.1,0.6-0.2,1.2,0.4,1.6c0.5,0.3,1,0.5,1.6,0.2c0.4-0.2,0.6-0.8,0.3-1.1C195,105.7,194.3,105.3,193.6,104.8z M108.2,147.9
		c0.5-0.3,0.7-0.7,0.6-1.3c0-0.3-0.1-0.7-0.1-1c-0.1-1.1-0.5-2.2-1-3.2C107.3,142.9,107.7,146.7,108.2,147.9z M115.2,95.5
		c0.1,0,0.2,0,0.2,0c0.7-1.3-0.2-2.6-0.1-4.2c-0.5,0.5-0.9,0.8-1.3,1.1c-0.1,0.1-0.1,0.4,0,0.5C114.4,93.8,114.8,94.7,115.2,95.5z
		 M127.4,115.3c0.6-0.3,1.1-0.7,1.7-1c1.1-0.4,1.7-1.2,2.5-2c0.1-0.1,0.1-0.3,0.1-0.5c-0.1,0-0.1-0.1-0.2-0.1
		C130,112.7,128.3,113.5,127.4,115.3z M195.1,85.9c0-0.1,0.1-0.1,0.1-0.2c-0.5-0.3-1-0.6-1.6-0.9c-0.5-0.3-1.1-0.6-1.5-1
		c-0.4-0.4-0.7-1-0.9-1.6c-0.2-0.5-0.3-1.1-0.5-1.9c-0.6,1.1-0.2,1.9,0.2,2.6c0.5,0.8,1.3,1.5,2,2.2
		C193.5,85.8,194.3,85.9,195.1,85.9z M123.7,126.2c0.2-0.9,0.2-1.6-0.2-1.7c-0.5-0.1-1.1-0.3-1.5-0.2c-0.5,0.1-0.6,1.1-0.4,1.9
		c0.2-0.1,0.4-0.3,0.6-0.4c0.4-0.3,0.7-0.5,1,0.1C123.3,126,123.5,126.1,123.7,126.2z M105.1,113.2c-0.6,0.7-1.2,1.3-1.8,2
		c-0.3,0.3-0.5,0.7-0.1,1c0.4,0.3,0.7,0.1,1-0.3c0.4-0.6,0.8-1.2,1.2-1.8C105.5,113.8,105.6,113.4,105.1,113.2z M153.3,97.2
		c-0.1,0.5-0.2,1-0.3,1.5c0.1,0,0.2,0.1,0.3,0.1c0.6-1,1.2-2,1.8-3c-0.1,0-0.1-0.1-0.2-0.1c-0.7,0.3-1.3,0.6-2,1
		c-0.2,0.1-0.4,0.5-0.5,0.7c0.1,0.1,0.1,0.1,0.2,0.2C152.8,97.4,153.1,97.3,153.3,97.2z M193.9,82.9c-0.1,0.1-0.1,0.1-0.2,0.2
		c0.3,0.3,0.6,0.6,0.9,0.9c-0.3,0.3-0.5,0.5-0.8,0.7c0.6,0.2,1.1,0.3,1.7,0.4c0.8-0.8,0.6-1.4-0.4-1.8
		C194.7,83.2,194.3,83,193.9,82.9z M209.7,110c-0.1,0.8,0.2,1,1,1.1c1.6,0.1,2.2-0.1,2.3-0.7C211.8,110.2,210.7,110.1,209.7,110z
		 M135.2,108.3c0.1,0.1,0.2,0.1,0.3,0.2c0.6-0.6,1.2-1.1,1.6-1.7c0.7-1,0.2-1.7-0.8-1.7C136.5,106.3,136.2,107.5,135.2,108.3z
		 M126.4,127.3c-0.1-0.8-0.1-1.6-0.2-2.3c-0.8,0.3-1.3,0.9-1.2,1.4C125.2,127.2,125.3,127.3,126.4,127.3z M107.3,116.8
		c-0.1-0.1-0.1-0.2-0.2-0.2c-1.1,0.1-1.2,1.2-1.8,1.9c0.2,0.3,0.4,0.5,0.6,0.8C106.4,118.4,106.8,117.6,107.3,116.8z M192.4,80.6
		c-0.1,0.5-0.2,0.9-0.2,1.3c0,0.2,0,0.6,0.1,0.7c0.3,0.1,0.6,0.2,0.9,0.1c0.2-0.1,0.4-0.5,0.3-0.7C193.2,81.4,192.9,80.8,192.4,80.6
		z M100.6,143.7c-0.2,0.3-0.5,0.6-0.5,0.9c0,0.7,0.4,1.2,1,1.6C101.5,145.4,101.3,144.4,100.6,143.7z M113,118.8
		c-0.1-0.7-0.2-1.1-0.3-1.7c-0.4,0.2-0.8,0.2-1,0.5c-0.2,0.2-0.2,0.8-0.1,0.9C112,118.6,112.4,118.6,113,118.8z M55,95.8
		c0.9,0.4,1.5,0.2,1.8-0.4c0.2-0.4,0.1-0.7-0.3-0.6C56,95,55.6,95.5,55,95.8z M101.2,137.8c0.2,0.2,0.3,0.5,0.5,0.7
		c0.2,0.2,0.5,0.2,0.8,0.2c0-0.2,0.2-0.5,0.1-0.7C102.3,137.4,101.7,137.3,101.2,137.8z M128.2,110.9c-0.6,0.4-1.3,0.8-2,1.3
		C127.3,112.5,128,112.1,128.2,110.9z M150.4,101.5c0.9,0,2.1-1.1,2.5-2.1C152.1,100.1,151.3,100.7,150.4,101.5z M114.3,100.4
		c-0.3,0.6,0,0.9,0.5,1c0.2,0.1,0.4,0.2,0.5,0.1c0.1-0.1,0.2-0.4,0.2-0.6c0-0.2-0.3-0.3-0.4-0.4
		C114.9,100.5,114.6,100.5,114.3,100.4z M118.2,121.3c0,0.5,0.1,1,0.1,1.5c0.7,0.1,0.7,0,0.7-0.7
		C119.1,121.4,118.9,121.3,118.2,121.3z M215.4,108.8c-0.8-0.1-1.1,0.2-1.3,1c0.4-0.1,0.9,0,1.2-0.2
		C215.3,109.5,215.3,109,215.4,108.8z M109.6,115.1c-0.6,0.2-0.8,0.5-0.7,1c0,0.2,0.3,0.4,0.5,0.7c0.1,0,0.1-0.1,0.2-0.1
		C109.6,116.1,109.6,115.6,109.6,115.1z M133.1,109.5c0.8,0.3,1.8-0.3,1.8-1.1C134.3,108.8,133.8,109.1,133.1,109.5z M151.1,99.9
		c-0.1-0.1-0.1-0.2-0.2-0.3c-0.6,0.4-1.1,0.7-1.7,1.1c0,0,0,0.2,0,0.3c0.1,0,0.3,0.1,0.3,0c0.3-0.2,0.5-0.4,0.7-0.5
		C150.6,100.2,150.8,100.1,151.1,99.9z M146.3,100.9c0.7,0.5,1.5,0.1,2-0.8C147.6,100.4,147,100.6,146.3,100.9z M124.5,110.9
		c0-0.1,0-0.2,0-0.2c-0.3-0.1-0.6-0.2-0.9-0.1c-0.2,0-0.4,0.2-0.6,0.3c0.2,0.1,0.5,0.4,0.7,0.4C124,111.3,124.3,111.1,124.5,110.9z
		 M115.9,104.9c0-0.1,0.1-0.1,0.1-0.2c-0.4-0.8-0.6-0.9-1.8-0.6C114.9,104.5,115.4,104.7,115.9,104.9z M196.1,82.7
		c-0.3-1-0.4-1.1-1.5-0.4C195.2,82.4,195.6,82.6,196.1,82.7z M107.7,118.3c0.7,0.2,1.2-0.2,1.8-0.3
		C108.8,117.4,108.4,117.5,107.7,118.3z M151.8,99.4c0.7-0.5,0.5-1.1,0.4-1.7C151.7,98.1,151.7,98.1,151.8,99.4z M106.8,132.8
		c-0.3,0.4-0.6,0.8-0.1,1c0.1,0.1,0.4-0.1,0.6-0.2C107.1,133.4,106.9,133.1,106.8,132.8z M195.6,101.4c0.3,0.3,0.5,0.6,0.9,1
		C196.7,101.5,196.5,101.3,195.6,101.4z M196.7,81.2c0-0.1,0.1-0.1,0.1-0.2c-0.6-0.3-1.1-0.5-1.7-0.8c0,0.1-0.1,0.2-0.1,0.2
		C195.5,80.7,196.1,81,196.7,81.2z M118.1,112.6c0.1-0.2,0.3-0.3,0.3-0.5c0-0.1,0-0.3,0-0.5c0,0-0.3-0.1-0.4,0
		C117.8,111.9,117.7,112.3,118.1,112.6z M115.8,106.4c0,0.1-0.1,0.2-0.1,0.3c0.2,0.2,0.4,0.4,0.6,0.5c0.1,0,0.3-0.2,0.6-0.5
		C116.4,106.6,116.1,106.5,115.8,106.4z"/>
	<path d="M127.7,137c0,0.9,0.1,1.6,0.1,2.4c0,0.2,0.2,0.5,0.3,0.7c0.2-0.1,0.4-0.3,0.6-0.4c0,0,0.1,0,0.2-0.1c0,0.4,0,0.7,0.1,1.1
		c-0.3-0.1-0.5-0.2-0.8-0.3c-0.2,0.9-0.1,1.8,0.2,2.6c0.1,0.3,0.7,0.4,1,0.6c0.1,0,0.2-0.1,0.3-0.1c0.2-1.5,0.4-3.1,0.5-4.6
		c0,2.8,0.4,4.3,1.4,4.4c0-0.6-0.1-1.2-0.1-1.8c0-0.6-0.1-1.2-0.1-1.8c0.1,0,0.2,0,0.3,0c0.1,0.3,0.2,0.7,0.2,1c0,0.5,0,1,0,1.5
		c0,1,0.4,1.4,1.4,1.4c-0.7,0.6-1.4,0.4-2.9-0.9c0,0.9-0.5,1.3-1.2,1.6c-0.1,0.1-0.1,0.4-0.1,0.6c0,1.5-0.9,2.1-2.3,1.7
		c-0.1,0-0.2-0.1-0.2-0.1c-0.9-0.3-0.9-0.3-0.7-1.3c0.1-0.5,0-0.9-0.5-1c-0.7-0.1-1-0.5-0.9-1.2c0-0.2,0-0.5-0.1-0.9
		c0.2,0.3,0.3,0.4,0.4,0.6c0.3,0.5,0.6,0.9,1.2,0.9c0.2,0,0.5-0.2,0.5-0.3c0-0.5,0.1-1.1-0.1-1.6c-0.3-0.6-0.1-1.2-0.1-1.8
		c0-0.6,0-1.2-0.1-1.8c-0.2-0.7,0-1.1,0.8-1.1C127,137,127.4,137,127.7,137z M127.5,138c0,0,0-0.1,0-0.2c-0.2-0.2-0.4-0.6-0.6-0.6
		c-0.4,0-0.6,0.3-0.5,0.7c0.1,0.6,0.1,1.2,0.1,1.8c0.1,0.9,0.1,1.7,0.2,2.6c0.1,0.4,0.3,0.8,0.5,1.1c0.2-0.4,0.5-0.8,0.7-1.2
		c0,0-0.1-0.1-0.1-0.2C127.7,140.8,127.6,139.5,127.5,138z"/>
	<path d="M115.1,143.1c-0.1-0.3-0.1-0.6-0.2-0.8c-0.5-1.4-0.1-2.7,0.6-4c0.4-0.7,1.2-0.9,2.1-1.1c-0.2,0.2-0.3,0.4-0.4,0.5
		c-0.8,0.3-0.9,1-1,1.8c-0.2,1.3,0.2,2.5,0.8,3.6c0.3,0.5,0.8,0.9,1.4,0.8c0.5-0.1,0.8-0.5,0.9-1c0.2-0.8,0.3-1.6-0.4-2.1
		c0.7-0.4,0.9-0.3,0.9,0.5c0,0.7-0.1,1.4-0.3,2.1c-0.3,1-1.3,1.3-2,1.4c-0.6,0.1-1.3-0.7-1.9-1.1
		C115.5,143.5,115.3,143.3,115.1,143.1z M115.9,138.6c-0.9,1-0.9,2.3-0.7,3.5c0.1,0.7,0.6,1.4,1.6,1.5
		C116.1,142,115.8,140.4,115.9,138.6z"/>
	<path d="M143,126.6c-0.5-0.2-1-0.4-1.4-0.7c-0.7-0.5-0.6-1.5,0.2-1.9c0.5-0.2,0.8-0.8,1.5-0.8c0.7,0,1,0.4,1.2,0.9
		c0.1,0.5,0.1,1-0.1,1.5c-0.2,0.7-0.5,0.8-1.3,0.7C143.1,126.5,143.1,126.6,143,126.6z"/>
	<path d="M120.7,139.4c0.1,1,0.3,1.9,0.4,2.9c0.1,0.8,0.3,1.1,1.3,0.9c-0.1-1.3-0.2-2.6-0.3-4c0.1,0,0.1,0,0.2,0
		c0.1,0.4,0.1,0.7,0.2,1.2c0.4-0.1,0.8-0.2,1.2-0.2c0,0.2-0.1,0.5-0.1,0.6c-0.3,0-0.8,0-0.8,0.1c-0.1,0.4-0.1,0.9,0,1.3
		c0.1,0.7,0.3,1.4,0.5,2.1c-0.8,0-1.5,0-2.2,0c-0.4,0-0.5-0.4-0.5-0.8c0.1-0.8,0.3-1.6-0.2-2.5c-0.2-0.4,0-1,0-1.6
		C120.6,139.4,120.7,139.4,120.7,139.4z"/>
	<path d="M141.3,143.5c-0.1,0.9-0.2,1.9-0.4,2.8c-0.1,0-0.1,0-0.2,0c0-0.2-0.2-0.5-0.1-0.7c0.3-1.8,0.7-3.6,1-5.4
		c0-0.2,0-0.5,0.1-0.8c0.1,0.2,0.2,0.3,0.2,0.5c-0.1,0.9-0.2,1.8-0.4,2.8c0.9,0,1.2-0.5,1.4-1c0.2-0.5,0.1-1,0.2-1.5
		c0.7,0.9,0.6,1.9-0.5,2.9c-0.2,0.2-0.3,0.5-0.4,0.8c-0.1,0.3,0,0.6,0,0.8c-0.1,0.8,0,1.5,0.6,2.1c0.1,0.1,0.1,0.3,0.2,0.4
		c-0.6-0.1-1.1-0.8-1.1-1.5C141.8,144.2,141.8,144.2,141.3,143.5z"/>
	<path d="M138.4,134c0.9-0.1,1.7-0.1,2.5-0.3c0.8-0.2,1.6-0.3,2.4,0.2C141.3,135.5,139.1,135.6,138.4,134z"/>
	<path d="M145.2,144.3c1-1.6,2.5-2.8,3.7-4.2c0.2,1-0.5,1.5-0.9,2.2c-0.1,0.1-0.2,0.3-0.4,0.4c-0.6,0.3-1.1,0.7-1.5,1.3
		c-0.2,0.3-0.6,0.4-0.9,0.5C145.3,144.4,145.2,144.3,145.2,144.3z"/>
	<path d="M138.5,143.5c0.2-1,0.3-2,0.5-3.1c-0.5,0-0.8-0.1-1.1-0.1c0,0,0-0.1,0-0.1c0.4-0.1,0.8-0.1,1.2-0.2
		c0.1,0.6,0.2,1.2,0.2,1.8c0.1,0,0.1,0,0.2,0c0.1-0.4,0.2-0.9,0.3-1.3c0.1,0,0.1,0,0.2,0c-0.1,1-0.2,2-0.3,2.9c0,0-0.1,0-0.1,0
		c-0.1-0.2-0.1-0.4-0.2-0.8C139.1,143,138.8,143.3,138.5,143.5z"/>
	<path d="M134.5,146.2c0.4,1.1,0.4,1.1-1.1,2.1c-0.1-0.5-0.4-1.1-0.2-1.4C133.4,146.6,134,146.4,134.5,146.2z"/>
	<path d="M150.1,138.3c-0.2-0.6,0-1.1,0.6-1.6c0.1-0.1,0.2-0.2,0.3-0.2c0.2-0.1,0.5-0.1,0.7-0.2c0,0.3,0.1,0.7,0,0.8
		C151.2,137.6,150.7,137.9,150.1,138.3z"/>
	<path d="M151.8,140.9c0.1,0.5-0.5,1.7-0.9,1.8c-0.4,0-0.6-0.2-0.5-0.6C150.3,141.5,150.9,141.1,151.8,140.9z"/>
	<path d="M136.7,143.1c-0.3-1.7,0-3.1,0.6-4.7C137.1,140,136.9,141.5,136.7,143.1z"/>
	<path d="M133.6,137.3c-1.2-0.1-1.4,0.8-1.8,1.4c0,0-0.1-0.1-0.2-0.1c0.2-0.5,0.4-1.2,0.7-1.6C132.5,136.8,133.1,136.8,133.6,137.3z
		"/>
	<path d="M134.4,140.6c0.2,0,0.4,0,0.6,0c-0.1,0.5-0.3,1-0.4,1.5c0,0-0.1,0-0.1,0C134.5,141.6,134.5,141.2,134.4,140.6z"/>
	<path d="M117.8,137.5c0.6,0,1.1,0.6,1.1,1.3C118.5,138.4,118.1,137.9,117.8,137.5z"/>
	<path d="M140,145.8c-0.6,0-0.8-0.5-0.4-1.5C139.7,144.8,139.9,145.3,140,145.8z"/>
	<path d="M138.1,138c0.7,0.5,1.1,1.1,1.1,1.7C138.8,139.1,138.5,138.6,138.1,138z"/>
	<path d="M137.7,144.2c-0.4-0.1-0.9-0.2-1.3-0.4c0-0.1,0-0.1,0-0.2c0.2-0.1,0.3-0.2,0.3-0.2c0.4,0.2,0.6,0.4,0.9,0.6
		C137.7,144.2,137.7,144.2,137.7,144.2z"/>
	<path d="M132.7,67.7c-0.1,0.2-0.2,0.4-0.3,0.6c-0.3,0.8-0.9,0.9-1.7,0.6c-0.4-0.2-0.9-0.2-1.4-0.2c-1.5,0.1-2.5-0.8-2.4-2.3
		c0-0.2,0.2-0.5,0.3-0.6c1-0.7,2-1,3.2-1.1c0.5,0,1,0,1.5,0c0.8,0,1.4,0.5,1.7,1.4c-0.5,0.1-1.1-0.4-1.4,0.5
		c0.6-0.1,1.1-0.1,1.7-0.2c0.3,0,0.7-0.1,1-0.1c0.4,0,0.9-0.2,1.1,0.3c0.2,0.6,0.3,1.1-0.2,1.7c-0.5,0.5-1,1.1-1.8,0.8
		C133.6,68.7,133.2,68.1,132.7,67.7z"/>
	<path d="M115.6,69c0.1-0.3,0.2-0.4,0.2-0.5c-0.3-1.2,0.8-1.2,1.4-1.6c0.3-0.2,0.7-0.4,1.1-0.6c-0.5-0.7-1.2-0.5-1.8-0.6
		c-0.8-0.1-1,0.5-1.4,1.1c-0.4-0.3-0.4-1.1,0.1-1.4c1.4-0.7,2.7-1.5,4.4-1c1.1,0.3,2.1,0.6,3.2,0.9c1,0.3,1.5,1.3,1,2.2
		c-0.3,0.5-0.9,0.7-1.4,1c-0.3,0.1-0.7,0-1.1,0c-0.5,0-1.1-0.1-1.5,0.3c-0.3,0.3-0.8,0.3-1.2,0c-0.3-0.3-0.6-0.3-1.1-0.2
		C117.1,68.8,116.4,68.8,115.6,69z"/>
	<path d="M111.8,72.3c-0.7,0.1-0.8-0.3-0.8-0.8c0-0.5,0.4-0.9,0.8-0.7c0.4,0.2,0.6,0.7,0.8,1.1c0,0.1-0.4,0.4-0.6,0.6
		C111.9,72.4,111.8,72.4,111.8,72.3z"/>
	<path d="M120.3,70.3c-0.2,0.4-1.4,0.4-2.2,0C119,70.3,119.7,70.3,120.3,70.3z"/>
	<path d="M141.8,71.6c-0.3,0.3-0.5,0.5-0.7,0.7c-0.1-0.1-0.3-0.3-0.3-0.4c0.1-0.2,0.3-0.5,0.5-0.6C141.3,71.3,141.6,71.5,141.8,71.6
		z"/>
	<path d="M132.4,70.3c-0.5,0.4-1.1,0.3-1.6,0.3c0-0.1,0-0.2,0-0.3C131.4,70.3,131.9,70.3,132.4,70.3z"/>
	<path d="M69.5,66c0.2,0.2,0.5,0.4,0.9,0.7c-0.4,0.2-0.9,0.1-1.2-0.2c-0.3-0.2-0.3-0.5,0-0.8c0.1-0.1,0-0.3-0.1-0.5
		c-0.1-0.2-0.2-0.3-0.3-0.5c0.6-0.1,0.9,0.3,1,0.7C69.8,65.5,69.6,65.7,69.5,66z"/>
	<path d="M84.9,61.8c0.3,0,0.5-0.1,0.6,0c0.2,0.2,0.4,0.5,0.6,0.7c-0.1,0-0.1,0.1-0.2,0.1C85.7,62.4,85.3,62.2,84.9,61.8z"/>
	<path d="M162.7,67.4c0.2,0.6,0.4,1.1,0.6,1.7C162.8,69,162.5,68.3,162.7,67.4z"/>
	<path d="M125.9,91.3c-0.9,0.9-2,0.7-2.9-0.3C124,91.1,124.9,91.2,125.9,91.3z"/>
	<path d="M206.6,94.9c1.8-0.1,3.3-0.4,3.9-2.1c1.5,1.4,3.1,2.7,4.6,4.1c-0.8,1-1.4,1.7-2.1,2.6c-0.6-0.8-1.1-1.5-1.7-2.2
		c-0.4-0.5-0.8-1-1.2-1.5c-0.6-0.6-1.3-0.8-2.1-0.8c-0.4,0-0.7,0-1.1,0C206.9,95.1,206.8,95,206.6,94.9z"/>
	<path d="M205,86.5c-0.5,0.3-0.9,0.5-1.4,0.8c-0.7-0.3-0.4-1-0.3-1.6C203.9,85.9,204.4,86.2,205,86.5z"/>
	<path d="M206.2,88.3c0.5,0,1.2,0.4,1.4,0.8c0,0.1,0,0.2,0,0.3s-0.2,0-0.3,0c-0.4-0.3-0.8-0.6-1.2-0.9
		C206.1,88.4,206.2,88.4,206.2,88.3z"/>
	<path d="M106,99c0.8-0.1,1.1,0.4,1.2,1.1C106.8,99.7,106.4,99.4,106,99z"/>
	<path d="M118.1,118.2c1-0.3,1.7,0.1,2.3,0.7c0.3,0.3,0.7,0.7,1,1c0.1,0.1,0.1,0.2,0.1,0.4c-0.1,0-0.2,0.1-0.4,0
		C119.9,119.9,118.9,119.3,118.1,118.2z"/>
	<path d="M118.4,110.8c1,0,1.8,0,2.8,0c-0.3,0.7-0.8,0.9-1.4,0.6C119.3,111.1,118.9,111,118.4,110.8z"/>
</g>
</svg>
