<?xml version="1.0" encoding="utf-8"?>
<!-- Generator: Adobe Illustrator 26.0.3, SVG Export Plug-In . SVG Version: 6.00 Build 0)  -->
<svg version="1.1" id="Слой_1" xmlns="http://www.w3.org/2000/svg" xmlns:xlink="http://www.w3.org/1999/xlink" x="0px" y="0px"
	 viewBox="0 0 238.1 150.2" style="enable-background:new 0 0 238.1 150.2;" xml:space="preserve">
<g>
	<g>
		<path d="M204.6,37.6c1.1-0.3,1.6,0.9,2.3,1.6c0.3,0.3,1.1,1,0.4,1.4c-1.4,0.7-2.5,1.7-3.7,2.7c-0.6,0.8-0.9,1.7-1.4,2.6
			c0.3,0.4,0.5,0.8,0.8,1.2c-0.1,0.3-0.2,0.6-0.3,0.8c0.1-0.2,0.4-0.5,0.5-0.6c0.4,0.6,0.9,1.2,1.3,1.8c-0.1,0.1-0.4,0.2-0.5,0.3
			c0.7-0.1,0.9,0.6,1.2,1.1c0.8,1.4-0.1,3.4-1.6,3.9c0,0.7-0.1,1.3-0.1,2c-0.7,0-1.4,0-2.1,0c-1.2,0.9-2.6,1.7-4,2.1
			c-0.2-0.2-0.5-0.5-0.7-0.7c-0.7,0.6-1.6,1.2-2.5,0.6c-0.9-0.6-0.7-1.8-0.2-2.6c-0.6-0.3-1.2-0.5-1.8-0.7c-0.2-0.3-0.4-0.5-0.5-0.8
			c-0.2,0.1-0.5,0.4-0.6,0.5c-0.2-0.4-0.4-0.8-0.5-1.2c-0.7,0.7-1.5,1.2-2.4,1.4c0-1.1-0.6-2-1.7-2.2c0.7,1.2,1.6,2.4,2,3.7
			c0.2,1.6,0.1,3.3-0.5,4.8c-0.3,0.2-0.5,0.3-0.8,0.5c0,0.5,0,1,0.1,1.5c-0.5-0.1-1.1-0.2-1.6-0.3c0.1-1.6,0.3-3.2,0.6-4.8
			c-0.7-1.2-1.8-1.9-2.9-2.7c-0.3,0.7-0.2,2-1.3,1.9c0.2,0,0.5,0.1,0.6,0.1c-0.4,1.2-0.7,2.3-1,3.5c0.2,0.2,0.5,0.5,0.6,0.6
			c-0.6,0.2-1.5,0.7-2.1,0.1c-0.4-1.7,0.2-3.5,0-5.2c0-0.8,0.5-1.6,0.2-2.3c-0.3-1-0.7-2-1.3-2.9c1.2-1.1,1.7-2.7,2.7-4
			c0.7-1.4,2.2-1.9,3.5-2.5c0-0.7-0.2-1.5,0.3-2.1c0.7-0.7,1.8-0.4,2.5,0.2c0.5,0.5,0.2,1.3,0.2,1.9c0.9,0.7,1.1,1.8,1.4,2.8
			c0.4,1.2,0.6,2.4,0.8,3.6c-0.2,0.3-0.5,0.6-0.7,1c0.3,0.2,0.6,0.5,0.9,0.7l-0.2-0.4c1.9,0,3.5,1.2,5.3,1.6
			c0.4-0.6,0.8-1.1,1.3-1.7c-0.3-1.2-0.3-2.5-0.5-3.7c-0.2-0.8,0.3-1.5,0.8-2c0,0.3-0.1,0.6-0.1,0.9c0.4,0.5,0.3,1.1,0.1,1.7
			c0.4,0.6,0.9,1.1,1.3,1.7c0.3,0,0.8,0,1,0c0-0.7,0-1.5,0.4-2.2c-0.5-1.5-0.9-3-1.1-4.5c-0.1-0.6,0.4-1,0.8-1.4
			c0.9-0.9,1.5-2,2.2-3.1c0.7,0.4,1.5,0.8,2.2,1.2c0.4-0.4,0.8-0.9,1.3-1.1c-0.1-0.6-0.1-1.1-0.2-1.7
			C204.9,38,204.7,37.8,204.6,37.6z M187.1,48.2c-0.4,0.6-0.8,1.2-1.2,1.7c-0.1,0.5-0.2,1-0.3,1.6c0.8,0.6,1.8,1.6,2.8,1
			C188.1,51,187.7,49.6,187.1,48.2z M186.8,57.7c0.4,0.2,0.8-0.5,0.5-0.8C186.9,56.7,186.5,57.5,186.8,57.7z"/>
	</g>
	<path d="M187,62.6c0.9-0.1,2-0.1,2.7,0.5c-0.8,0.1-1.7,0.1-2.5,0.2C187.2,63.1,187.1,62.8,187,62.6z"/>
	<g>
		<path d="M135.1,64.5c2.2,0,4.3,0,6.5,0c0,1.4,0,2.8,0,4.2c-0.1,0.1-0.4,0.4-0.6,0.5c0.1,0,0.4,0.1,0.6,0.1c-0.1,6.1,0,12.2,0,18.2
			c0.1,1.9,0,4-1.1,5.7c-1.4,2.2-3.9,3.4-6.4,4c-0.2-0.3-0.4-0.6-0.6-0.9c0,0.4,0.1,0.7,0.1,1.1c-1.7-0.1-3.3,0-5-0.1
			c0.1-2-0.1-4.1,0-6.1c1.8,0,3.6,0.2,5.3-0.3c1.1-0.3,1.4-1.4,1.3-2.4C135.1,80.6,135.1,72.6,135.1,64.5z M136.2,70 M135.6,78.4
			 M133.6,93.7c-0.4,0-0.5,0.8,0,0.8C134,94.5,134.1,93.7,133.6,93.7z M135.1,94.4"/>
	</g>
	<g>
		<path d="M146.3,64.5c1.3,0,2.6,0,3.9,0c0,0.2,0,0.6,0.1,0.8c0-0.2,0.1-0.6,0.1-0.8c0.8,0,1.6,0,2.4,0c0,2,0,4,0.1,6
			c-0.2-0.1-0.6-0.2-0.8-0.2c0.3,0.2,0.5,0.4,0.8,0.6c0,6.8,0,13.6,0,20.3c1.6,0.1,3.2,0,4.8,0c0,0.2,0.1,0.7,0.2,0.9
			c0-0.2,0-0.6,0-0.8c0.4,0,0.8-0.1,1.3-0.1c0-2.4,0-4.8,0-7.2l0.7,0.1c-0.2-0.1-0.5-0.2-0.7-0.2c0-1.5,0-3.1,0-4.6l0.6,0.3
			c-0.1-0.1-0.4-0.4-0.5-0.5c-0.1-1.2,0-2.4-0.1-3.6l0.7,0c-0.2,0-0.5-0.1-0.7-0.1c0-2.4,0-4.8,0-7.3c0.2-0.1,0.6-0.2,0.8-0.3
			c-0.2,0-0.6,0-0.8,0c0.2-1.1,0-2.2,0-3.3c2.2,0,4.3,0,6.5,0c-0.1,4.9,0.1,9.9-0.1,14.8c0.2,1.7,0.1,3.5,0.1,5.2
			c0.1,2.8,0.1,5.6,0,8.4c0,2.3-2.1,4.2-4.3,4.3c-2.2,0.1-4.5,0-6.7,0c-0.3-0.3-0.5-0.5-0.8-0.8c0,0.2,0,0.6,0,0.8
			c-2.4,0.1-5.5,0.1-6.8-2.4c0.2-0.1,0.6-0.2,0.9-0.2c-0.1-0.3-0.2-0.6-0.3-1c-0.1,0.3-0.4,0.9-0.6,1.3c-1-2.2-0.3-4.7-0.6-7
			c0.2,0,0.6,0,0.8-0.1c-0.2,0-0.6-0.1-0.8-0.2c0.1-6.7,0.1-13.4,0-20.2c0.1,0,0.3,0.1,0.5,0.1C146.4,66.7,146.3,65.6,146.3,64.5z
			 M161.4,82.1c0.2,0.1,0.6,0.2,0.7,0.2c0-0.3,0-0.9,0-1.2C161.8,81.4,161.4,81.6,161.4,82.1z M164.6,88.1"/>
	</g>
	<g>
		<path d="M170.6,64.5c0.4,0.1,0.7,0.2,1.1,0.3c0.8-0.3,1.7-0.2,2.5-0.2c2.5,0,5.1,0,7.6,0c0,0.2-0.1,0.6-0.1,0.9
			c0.1-0.3,0.2-0.6,0.3-0.9c2.2,0,4.8-0.4,6.4,1.4c2.2,2.1,0.9,5.2,1.3,7.8c-0.2,0-0.6,0.1-0.7,0.1c0.2,0,0.6,0.1,0.7,0.1
			c-0.1,3.5,0,7.1,0,10.6c-0.3,0.3-0.6,0.5-0.9,0.7c0.3-0.1,0.7-0.2,1-0.3c-0.4,2.4,0.4,4.9-0.7,7.2c-0.8,2-2.6,3.3-4.4,4.3
			c0-0.6-0.2-1.2-0.4-1.8c0,0.3-0.1,1-0.1,1.3c0.1,0.2,0.2,0.3,0.3,0.5c-1.4,0.3-2.7,0.7-4.1,0.7c-3.3,0-6.6,0-9.9,0
			c0-6,0-12,0-18.1c0.2-0.3,0.4-0.6,0.6-0.9l-0.6,0.2c0-0.5-0.1-1.4-0.1-1.9c0.3,0.1,0.8,0.2,1,0.3c-0.3-0.3-0.7-0.5-1-0.7
			c0-1.5,0-3,0-4.5l0.7,0c-0.2,0-0.5-0.1-0.7-0.1C170.6,69.3,170.6,66.9,170.6,64.5z M177.1,70.6c0,6.9,0,13.8,0,20.7
			c1.1,0,2.1,0,3.2,0c0,0.2,0.1,0.6,0.1,0.8c0-0.2,0-0.6,0-0.8c1.2-0.1,2.9-0.5,2.9-2c0-6.2,0-12.4,0-18.7
			C181.2,70.6,179.2,70.6,177.1,70.6z M175.6,83 M184.6,87.4c0.5-0.1,0.5-0.3,0.2-0.7C184.4,86.8,184.3,87,184.6,87.4z M183.9,88
			c-0.4,0.3,0,1.1,0.5,0.8C184.7,88.5,184.3,87.6,183.9,88z"/>
	</g>
	<g>
		<path d="M194.5,67.6c0.7-1.9,2.7-3.1,4.7-3c3.2,0,6.5,0,9.7,0c2.3,0,4.5,2,4.5,4.4c0,2.7,0,5.3,0,8c0.1,0.7-0.3,1.2-0.6,1.8
			l0.7-0.4c0,1.1,0,2.1,0,3.2c-0.2,0-0.5-0.1-0.6-0.1l0.1,0.4l0.5-0.2c0,2.3-0.1,4.7,0,7.1c-0.4,0-0.8,0.1-1.2,0.3
			c0.4,0.1,0.8,0.1,1.2,0.1c0,0.7,0,1.4,0,2.1c-0.2,0-0.5,0.1-0.7,0.1c0.2,0,0.5,0.1,0.7,0.1c0,1.6,0,3.4-1.3,4.5
			c-2.1,2.2-5.3,1.2-7.9,1.4c0.1-0.2,0.2-0.6,0.2-0.8c-0.2,0.3-0.3,0.5-0.4,0.8c-1.8-0.1-3.7,0-5.5-0.1c-1.4-0.1-2.6-1-3.5-2
			c0.2-0.2,0.3-0.4,0.5-0.6c-0.2,0-0.6,0-0.8,0c-0.4-1.3-0.3-2.7-0.3-4.1c0-6.4-0.1-12.7,0.1-19.1C194.3,70.2,194.2,68.9,194.5,67.6
			z M210.6,68.3l0.2,0c-0.1-0.7,0-1.5,0-2.2C210.3,66.7,210.5,67.6,210.6,68.3z M200.8,70.7c0,6.9,0,13.7,0,20.6c2.1,0,4.1,0,6.2,0
			c0-1.6-0.1-3.3,0-4.9c-0.2-4.2,0.1-8.4-0.1-12.6c0.2,0,0.6,0,0.8,0c-0.3-0.3-0.5-0.7-0.8-1c0-0.7,0-1.4,0-2.2c-1.6,0-3.3,0-4.9,0
			c0.1-0.2,0.2-0.6,0.2-0.8C202,70.5,201.4,70.7,200.8,70.7z M198.5,78.2c0.6,0,0.6-1,0-1.1C198,77.2,198,78.1,198.5,78.2z
			 M209.6,80.7 M208,84 M194.6,89 M206.3,92.7 M203.8,94.5c-0.2,0.7-0.6,1.4-0.4,2.2C203.8,96,203.8,95.2,203.8,94.5z"/>
	</g>
</g>
</svg>
