<?xml version="1.0" encoding="utf-8"?>
<!-- Generator: Adobe Illustrator 26.0.3, SVG Export Plug-In . SVG Version: 6.00 Build 0)  -->
<svg version="1.1" id="Слой_21" xmlns="http://www.w3.org/2000/svg" xmlns:xlink="http://www.w3.org/1999/xlink" x="0px"
	 y="0px" viewBox="0 0 239.5 150.2" style="enable-background:new 0 0 239.5 150.2;" xml:space="preserve">
<g>
	<path d="M134.7,28.8c5.2,0.2,10.5,0.7,15.7,1c0.2-2-0.5-3.9-0.3-5.9c0-1.8,1.2-3.3,1-5.2c-5.2-0.4-10.4-0.7-15.6-1.1
		c-0.5,1.8,0.4,3.6,0.2,5.5C135.6,25.1,134.6,26.9,134.7,28.8z M136,18.5c2.3,0,4.5,0.2,6.8,0.4c-0.3,1.3-0.8,2.6-1.1,4
		c0.9-0.4,1.7-0.8,2.6-1.2c-0.3-0.9-0.4-1.8-0.5-2.7c2.2,0.1,4.5,0.2,6.7,0.4c-1.2,3.1-1.3,6.5-0.6,9.8c-2.2-0.2-4.4-0.3-6.7-0.4
		c0.1-0.8,0.1-1.6,0.6-2.2c0.1-0.8,0.2-1.5,0.2-2.3c-0.8,0.5-1.9,0.6-2.4,1.4c0.2,1,0.4,2,0.5,3c-2.2-0.2-4.5-0.3-6.7-0.4
		c0.1-0.8,0.1-1.6,0.6-2.2C136.4,23.5,136.5,21,136,18.5z"/>
	<path d="M117.4,35c4.8-1.9,9.7-3.9,14.5-5.7c-0.4-0.8-0.5-1.8-1.1-2.5c-1.1-0.5-2.3-0.8-3.4-1.3c0.4,1.4,2.1,1.4,3.2,2
		c0.1,0.3,0.3,1,0.4,1.4c-1.9,0.7-3.7,1.5-5.6,2.2c-0.4-1.7-2-2.5-3.5-3c0.2,0.5,0.5,1.1,0.7,1.6c0.7,0.5,1,1.2,1.4,1.9
		c-2.1,0.8-4.2,1.7-6.3,2.5c-0.3-3.3-1.5-6.5-3.6-9.1c2.1-0.8,4.2-1.7,6.3-2.5c0.3,1.3,0.4,2.6,0.6,3.9c1.1-1.3,1.5-2.9,0.9-4.5
		c1.8-0.6,3.4-1.4,5.2-1.9c0.1,0.3,0.4,0.9,0.6,1.2c-0.7,1.4-1.6,2.8-2,4.4c1.5-0.8,1.5-2.9,2.8-4c-0.3-0.9-0.6-1.7-1-2.6
		c-4.8,1.9-9.5,3.7-14.3,5.6c0.9,2.4,2.8,4.3,3.3,6.9C116.4,32.7,117,33.9,117.4,35z"/>
	<path d="M159.6,32.9c-0.1-0.2-0.2-0.7-0.3-1c-1.9-0.6-3.7-1.6-5.6-2.4c2.2-2.5,3.6-5.6,4.1-8.9c1.8,0.8,3.7,1.7,5.5,2.6
		c-0.5-0.9-0.7-1.8-0.6-2.8c0.9,0.4,1.9,0.9,2.5,1.7c1-0.4,2,0.4,2.9,0.7c-0.8,0.9-1.9,1.3-3,1.1c2,0.9,3.9,1.8,5.9,2.7
		c-0.3,0.6-0.5,1.1-1,1.6c-1.3,1.4-1.8,3.3-2.6,5c0.1,0.9-0.2,1.7-0.5,2.4c-2-1-4.1-1.9-6.1-2.9c0.9-1.2,2.1-2.3,2.5-3.8
		c-1,0.1-1.9,0.3-2.9,0.4c0,1.3-0.4,2.6-0.7,3.9c2.6,0.8,5,2.2,7.5,3.2c1.1-1.7,0.9-3.8,1.8-5.5c0.7-1.7,2.2-2.9,2.9-4.6
		c-1.4-0.7-2.8-1.2-4.1-1.9c-0.3-0.8,0.9-1.2,1.2-1.9c-2.2-1.1-4.4-2.1-6.6-3.2c-0.2,0.8-0.3,1.5-0.5,2.3c-1.4-0.6-2.9-1.3-4.3-1.9
		c-0.5,1.1-1.1,2.2-0.9,3.4c-0.6,2.6-2.7,4.3-3.7,6.7C155.2,30.9,157.4,31.9,159.6,32.9z"/>
	<path d="M165,23.9c0.1,0,0.1,0,0.2,0C165.1,23.9,165.1,23.9,165,23.9C165,23.9,165,23.9,165,23.9z"/>
	<path d="M167,22.7c-1,0-2,0.2-3,0.5l0.7-0.9c-0.3-0.2-1-0.5-1.3-0.7c0.2,0.3,0.6,0.8,0.8,1.1c-0.4,1.6-1.6,2.8-2.4,4.2
		c0.9-0.1,1.8-0.2,2.8-0.3c0.1-0.9,0.2-1.8,0.5-2.7c-0.3,0-0.6-0.1-0.9-0.3C165,23.1,166.2,23.4,167,22.7z"/>
	<path d="M104.9,45.5c1.5,1.1,3.4,0.1,4.7-0.9c2.5-2.1,4.6-4.8,5.7-7.9c-0.5-1.4-2-2.2-3.2-3.1c-0.6,0.4-1,0.9-1.5,1.3
		c0,0,0,0,0,0.1c-0.8,1.2-1.8,2.3-2.8,3.5c0.6,0.6,1.2,1.1,1.7,1.7c-0.4-0.1-1.3-0.3-1.7-0.4c0.2,0.3,0.6,0.9,0.8,1.2
		c0.7-0.2,1.2-0.7,1.7-1c-0.5-0.6-1.1-1.1-1.6-1.7c1.1-1.3,2.3-2.6,3.4-3.9c0.9,0.7,1.7,1.5,2.6,2.2c-1.4,3.1-3.5,5.9-6.2,7.9
		c-1,0.7-2.4,1.2-3.4,0.3c-1.6-1.3-3.5-2.5-4.3-4.4c0.8-4.1,4.4-7,7.7-9.3c0.7,0.6,1.4,1.3,2.1,1.9c-1.1,1.3-2.2,2.5-3.3,3.8
		c-1-0.8-1.9-0.5-2.6,0.4c0.9,0.9,1.8,1.8,3,2.4c-0.6-1-1.3-1.9-1.9-2.8c0.6,0.3,1.1,0.7,1.7,1.1c0.9-1,1.7-2,2.6-3l0.7,0.1l0-0.1
		l0.1,0l-0.4-0.5c0.4-0.5,0.9-1,1.3-1.4c-1-0.8-1.9-1.7-2.8-2.6c-2.9,1.5-5.4,3.9-7.2,6.6c-0.9,1.4-2,3.4-0.7,4.9
		C102,43.2,103.4,44.4,104.9,45.5z"/>
	<path d="M152.1,78.8c7.9-2.2,16-5.1,22.3-10.5c3.3-2.8,5.7-6.4,8.3-9.8c1.9-2.4,4.5-4.1,6.8-6.1c-17.4,5-34.8,10.3-52.1,15.4
		c1.2-3.1,2.2-6.3,4.1-9.1c1.5-2.2,4.1-2.8,6.5-3.5c11.3-3.4,22.5-6.9,33.8-10.3c1.5-3.9,3-7.8,4.6-11.6
		C169.6,38.6,152.7,43.7,136,49c-5.4,1.7-10.3,5.2-13.4,10c-3,4.4-4,9.7-6.4,14.4c-3.5,3.3-8.1,5.1-11.8,8.1c-1,0.7-1.5,1.8-1.9,2.9
		c-2.3,1.3-4.8,2.3-6.9,3.9c-1.1,0.8-1.7,2.2-1.5,3.6c0.2,2,0.7,3.9,1,5.9c0.9-1,1.9-2.1,3.2-2.6c5.1-2.4,10.5-3.8,15.9-5.4
		C126.8,85.9,139.5,82.4,152.1,78.8z"/>
	<path d="M133.9,38.3c8.6-2.6,18.2-2,26.4,1.9c0.8-0.2,1.6-0.5,2.4-0.7c-7.5-4.3-16.6-5.5-25.1-4c-10.6,1.9-20.3,8.5-26,17.7
		c-4.8,7.5-6.7,16.7-5.6,25.5c0.6-0.3,1.1-0.7,1.7-1c-0.7-7.9,0.9-16,5-22.9C117.4,47,125.1,41,133.9,38.3z"/>
	<polygon points="107.6,39.6 107.7,39.7 107.8,39.7 107.7,39.6 	"/>
	<path d="M92.6,63.5c-0.1-0.2-0.2-0.7-0.2-0.9c-1,0.1-2,0-2.9-0.2c0.8-2.1,1.7-4.2,2.6-6.4c1.4-0.1,2.8-0.1,4.2-0.2
		c-0.9-1.1-1.8-2.2-2.8-3.2c0.9-2,1.5-4.2,2.6-6.1c0.2,0.1,0.7,0.3,0.9,0.3c2.2,2,5.2,2.8,8.1,3.3c-0.8,2-1.7,4-2.5,6
		c-1.5-0.7-2.6-2.1-4.2-2.4c1,1.4,2.4,2.5,3.5,3.9c-0.1,0.6-0.3,1.1-0.4,1.7c-1.8,0.1-3.6,0.2-5.4,0.5c0.7,0.3,1.5,0.6,2.2,0.8
		c0.8-0.2,1.7,0.1,2.4,0.3c-0.7,1.7-1.4,3.4-2.1,5.1c-1.6-1-3.1-2.2-4.9-2.9c-0.3,0.2-0.6,0.4-1,0.6c2.5,0.4,4,2.5,6.3,3.2
		c0.7-1.9,1.6-3.8,2.3-5.8c-0.1-0.2-0.3-0.7-0.4-1c1.4-0.3,2.5-2.6,1-3.4c0.3,0,0.8-0.1,1.1-0.1c1.2-2.2,1.9-4.6,3-6.9
		c-1.1-0.5-2.2-1.1-3.4-0.8c-2.5-0.6-4.4-2.4-6.8-3.5c-1,2.4-2,4.8-2.9,7.3c0.7,0.8,1.5,1.6,2.2,2.5c-1.1,0-2.1,0-3.2,0
		c-1.1,2.4-2.1,4.9-3.1,7.4C89.9,63.1,91.2,63.6,92.6,63.5z"/>
	<path d="M181.4,46c-10.8,3.3-21.5,6.4-32.3,9.7c-2.1,0.2-1.9,2.7-2.7,4.1c11.2-3.3,22.5-6.7,33.7-10.1
		C180.5,48.5,180.9,47.2,181.4,46z"/>
	<path d="M144.6,64.5c11.1-3.3,22.3-6.6,33.4-9.9c0.8-1.2,1.1-2.6,1.6-3.9c-11.2,3.3-22.4,6.7-33.6,10
		C145.5,61.9,145,63.2,144.6,64.5z"/>
	<path d="M191.5,72.9c2.2,0.1,3.7-1.8,5.8-1.9c0.4,0.5,0.7,1.1,1.1,1.6c1.8-0.4,3.5-0.8,5.3-1.1c-0.4-2.1-0.9-4.2-1.3-6.3
		c-0.7,0.1-1.4,0.2-2.1,0.3c-0.2-1.2-0.4-2.3-0.6-3.5c0.6-0.1,1.3-0.2,1.9-0.3c-0.4-2.1-0.9-4.2-1.3-6.3c-1.3,0.2-2.6,0.6-4,0.6
		c-0.1,0.2-0.2,0.7-0.3,0.9c1.2-0.2,2.5-0.5,3.7-0.7c0.3,1.7,0.7,3.3,1,5c-0.6,0.2-1.3,0.4-1.9,0.6c0.2,1.3,0.9,2.7,0.1,4
		c-0.4-1.4-0.7-2.9-0.7-4.4c0.6-0.2,1.1-0.5,1.7-0.7c-0.3-1.2-0.5-2.4-0.7-3.6c-1,0.2-1.9,0.4-2.9,0.6c-0.3,0.5-0.4,1.3-1.1,1.4
		c-1.7,0.6-3.5,0.7-5.3,0.3c0.9,4,1.6,7.9,2.6,11.9c0.7,0.3,1.3-0.6,1.9-0.8c1.6-0.6,3.9-1.3,4.7,0.8c1-0.3,2.3-0.4,3.1-0.8
		c0.1,0.1,0.4,0.4,0.6,0.6c-1.3,0.5-2.6,0.8-3.9,1c-0.6-0.6-1-1.8-2-1.4c-1.8,0-3,1.7-4.8,1.7c-1-4.4-1.9-8.9-2.9-13.3
		c0.7-0.1,1.3-0.2,2-0.4c1.7,0.7,4,0.2,4.9-1.4c-0.3-0.3-0.6-0.6-0.9-0.9c-0.1,0.4-0.4,1.1-0.6,1.5c-2,0.7-4.2-0.3-6.2,0.7
		C189.5,63.2,190.4,68,191.5,72.9z M196,66.3c-0.8-0.1-1.6-0.3-2.4-0.5c-0.2-0.4-0.4-0.9-0.6-1.3c0.1,0.5,0.1,1,0.2,1.5
		c0.7,0.2,1.5,0.4,2.2,0.5c-0.8,0.2-1.7,0.4-2.5,0.6c-0.2-0.9-0.4-1.9-0.6-2.8c1.7-0.4,3.3-0.8,5-1.1c0.3,1.1,0.5,2.2,0.8,3.3
		C197.5,66.5,196.5,66.4,196,66.3z M202.2,70.1l-0.1,0.1c-0.2-1.1-0.4-2.3-0.7-3.4c-0.5,0-1.5,0-2,0c0-0.1-0.1-0.4-0.2-0.5
		c0.1-0.2,0.3-0.5,0.4-0.7c0.7,0.2,1.4,0.4,2.1,0.6c0.4,1,0.6,2.1,0.9,3.1C202.6,69.5,202.3,69.9,202.2,70.1z"/>
	<path d="M124,106.7c10.3,6.4,23.6,7.8,34.9,3.1c10.7-4.2,19.3-13.4,22.7-24.4c2.5-7.6,2.3-16,0-23.7c-0.5,0.6-0.9,1.2-1.4,1.9
		c3.2,11.1,0.8,23.6-6.4,32.7c-6.4,8.3-16.4,13.7-26.9,14.3c-7.8,0.6-15.7-1.6-22.4-5.7C124.4,105.6,124.2,106.2,124,106.7z"/>
	<path d="M194.1,64.5c0.9,0.1,1.8-0.1,2.7,0.3c0,0.1-0.1,0.3-0.1,0.4l-0.9,0.4c0.6,0,1.1,0,1.7,0.1c-0.2-0.6-0.3-1.2-0.6-1.8
		C195.9,64.1,195,64.3,194.1,64.5z"/>
	<path d="M98.7,81.4c1.4-2.5,1.2-5.5,1.1-8.3c-0.1-1.8-0.8-4.2-2.8-4.4c-2-0.1-4.1-0.6-6,0c-1.8,0.7-2.2,3-2.4,4.7
		c-0.2,2.6-0.5,5.5,0.7,7.9c1.1,1.8,3.4,1.3,5.1,1.5C96,82.9,97.9,82.9,98.7,81.4z M89.1,76.2c0.2-2.3-0.2-5.1,1.8-6.7
		c1.7-0.9,3.8-0.2,5.6-0.2c2.4,0.1,2.7,3,2.7,4.9c-0.1,2.6,0.3,5.8-1.8,7.7c-2,0.8-4.4,0.2-6.5,0C89,80.7,89.2,78.1,89.1,76.2z"/>
	<path d="M169.4,77.4c0.8-1.7,1.5-3.4,2.2-5.1c-3.6,2.4-7.7,3.8-11.8,5.2c-7.2,2.1-14.5,4.3-21.7,6.4c-1.8,0.4-1.7,2.8-2.5,4.1
		c10.7-3.3,21.4-6.5,32.2-9.7C168.4,78.2,169.2,78.2,169.4,77.4z"/>
	<path d="M199.7,76.5c-0.8-1.8-3.1-2.1-4.9-2.1c-2,0.1-3.1,2.1-3.5,3.9c-0.6,3-1,6.1-1.6,9.1c2.8,0.5,5.6-0.1,8.3,0.9
		c0.9,0.8,2.2,0.9,3.3,1.1c0.4-2.5,0.9-4.9,1.2-7.4c-1-0.1-1.9-0.2-2.9-0.4C199.9,79.9,200.3,78.1,199.7,76.5z M202,82.4
		c-0.4,2.1-0.7,4.2-1.2,6.3c-0.8-0.3-1.5-0.6-2.2-1c-2.6-0.6-5.3-1.1-8-0.7c0.4-2.6,0.9-5.1,1.3-7.7c0.3-1.6,0.7-3.5,2.4-4.1
		c1.8-0.3,4.2-0.1,5,1.8c0.5,1.8,0,3.8-0.4,5.6C199.9,82.5,200.9,82.4,202,82.4z"/>
	<path d="M96.6,74.6c-1.8-0.1-3.5-0.1-5.3-0.1c0.2,0.7-0.2,1.8,0.6,2.1c1.7,0.1,3.4,0,5.2,0C97,76,97.5,74.9,96.6,74.6z M91.7,75.3
		c1.6,0.1,3.7-0.7,5,0.6C95,75.8,93,76.6,91.7,75.3z"/>
	<path d="M133.8,92.8c11.2-3.4,22.5-6.6,33.6-10.1c0.6-1.2,1-2.5,1.5-3.8c-11.3,3.2-22.5,6.7-33.7,10
		C134.8,90.2,134.3,91.5,133.8,92.8z"/>
	<path d="M193.4,80.7c0.1,1.9,2.3,1.1,3.5,1.5c0.5-2-1.6-2.2-3-2.1c0.7,0.6,1.6,0.8,2.5,1C195.4,81.6,194.3,81.2,193.4,80.7z"/>
	<path d="M129.6,104.3c8.6-2.6,17.2-5.1,25.8-7.6c3.5-1,7.3-2.7,9.1-6.1c1-2.2,1.7-4.6,2.5-7c-10,3-20,6-30,8.9
		c-1.2,0.4-2.4,0.6-3.6,1.2C132.1,97.2,130.9,100.8,129.6,104.3z"/>
	<path d="M130.5,86.3c-7,1.9-13.9,4-20.9,6c-2.5,6.7-5,13.4-7.5,20c6.9-1.9,13.8-3.8,20.7-5.8C125.5,99.9,127.9,93.1,130.5,86.3z"/>
	<path d="M193.9,91.1c-1.5-0.9-0.4,1.4,0.3,0.7c2,0.5,4.2-0.2,6.1,1c-1,2.1-2.1,4.2-3.1,6.3c-0.8-0.4-1.5-0.9-2.2-1.4
		c-0.2,0.2-0.5,0.7-0.7,0.9c0.9,0.3,1.8,0.6,2.6,1c-0.9,1.9-1.8,3.8-2.8,5.6c-0.7-0.4-1.5-0.8-2-1.4c-2-2.3-4.4-4.1-6.6-6.2
		c1.1-2.3,2.3-4.5,3.4-6.8c1.2,0.2,2.5,0.7,3.7,0.3c0-0.1,0-0.3-0.1-0.4c-1.4-0.2-2.7-0.4-4-0.6c-1.3,2.5-2.5,5.1-3.8,7.5
		c2.2,2.5,5.1,4.3,7.1,6.9c0.7,0.7,1.7,1,2.6,1.5c2.3-4.5,4.6-9,6.7-13.6c-0.9-0.4-1.8-0.9-2.7-1.3
		C196.8,91.7,195.4,91.2,193.9,91.1z"/>
	<path d="M192.2,96.9c-0.5-0.6-0.9-0.7-1.2-0.1C191.5,97.5,191.9,97.5,192.2,96.9z"/>
	<path d="M183.6,109.1c1.3-1.4,2.6-2.8,4-4.1c-1.6-1.6-3.2-3.3-5-4.7c-2.9,3.3-6.1,6.5-9,9.8c1,1,2.1,1.9,3.4,2.5
		c2.5,1.4,3.4,4.2,5.7,5.9c1.8-1.9,3.6-3.9,5.5-5.8C187,111.1,185,110.4,183.6,109.1z M182.6,117.6c-1.9-2-3.2-4.5-5.7-5.9
		c-0.9-0.4-1.8-1-2.5-1.7c2.8-2.9,5.6-5.8,8.3-8.8c1.3,1.2,2.6,2.3,3.8,3.6c-0.8,1.4-2.1,2.5-3.2,3.6c-0.7-0.6-1.4-1.2-2.2-1.7
		c0.7,3,4.2,3.9,6.2,5.9C185.7,114.3,184.2,115.9,182.6,117.6z"/>
	<path d="M111.2,117.4c-0.5,0.9-0.9,1.9-1.4,2.8c4.4,2.3,8.8,4.7,13.2,7.1c1-1.5,1.9-3.2,1.2-5.1c-1.3,0.2-0.6,1.4-0.5,2.3
		c-0.3,0.6-0.6,1.2-0.9,1.9c-2-1.1-4.2-2-6.1-3.3c0.4-1,0.8-1.9,1.2-2.8c-1.1,0.4-1.4,1.7-1.9,2.6c-1.8-1-3.6-1.8-5.3-3
		c0.3-0.6,0.5-1.4,1.1-1.8c2.4-2,4.4-4.4,6.6-6.6c2.3,1.1,4.4,2.4,6.7,3.5c-0.2,1.5-0.5,3-0.8,4.6c0.2-0.1,0.7-0.2,0.9-0.2
		c-0.1-1.6,0.4-3,0.7-4.6c-2.5-1.4-5.1-2.7-7.6-4.1C115.9,112.8,114,115.6,111.2,117.4z"/>
	<path d="M171.5,111.2c-4.4,2.3-8.9,4.4-13.4,6.7c0.5,0.9,0.9,1.9,1.4,2.8c1.6,1,1.9,2.9,2.8,4.4c-0.1,1.5,0.7,2.7,1.5,3.9
		c4.4-2.3,8.9-4.4,13.4-6.7c-0.6-1.4-1.4-2.7-2.4-3.8C172.9,116.4,173.1,113.5,171.5,111.2z M163.8,128.2c-0.8-2.7-1.5-5.5-3.3-7.8
		c-0.6-0.7-1.1-1.4-1.5-2.2c4.1-2,8.3-4.1,12.4-6.2c0.9,1.7,0.9,3.7,1.9,5.3c0.7,1.8,2.3,2.9,3,4.8C172,124.1,168,126.3,163.8,128.2
		z"/>
	<path d="M131.3,128.5c-1.4-0.1-2.8-0.5-4.2-0.9c1.1-2.5,2.2-5,2.6-7.7c-0.5-1-0.2-2.1,0.2-3.1c2.6,0.8,5.4,1.2,8,2.1
		c0.3-0.2,0.7-0.4,1-0.7c-3.3-0.5-6.5-1.5-9.7-2.2c-0.3,1.4-1,2.8-0.4,4.1c-0.4,1.5-0.5,3.2-1.4,4.5c-0.7,1-0.9,2.2-1.2,3.4
		c1.8,0.5,3.5,0.9,5.3,1.3C131.6,129.2,131.4,128.8,131.3,128.5z"/>
	<path d="M167.5,118.8c-0.2-0.8-0.6-1.4-1.2-1.9c-0.1-0.2-0.3-0.6-0.5-0.8C166.1,117.3,165.6,119.5,167.5,118.8z"/>
	<path d="M118.9,118.2c0.6-0.4,0.7-0.8,0-1.2C118.3,117.5,118.3,117.9,118.9,118.2z"/>
	<path d="M157.9,125.4c-1.3-2.3-2.4-4.8-3.6-7.2c-2.8,0.6-5.6,0.9-8.4,1.5c-0.6,3.3-0.5,6.7-1.4,9.9c0.1,1,0.3,1.9,0.4,2.9
		c5-0.7,9.9-1.7,14.9-2.5c-0.2-1.1-0.3-2.1-0.5-3.2C158.8,126.4,158.2,126,157.9,125.4z M152.2,130.6c-0.1-0.9-0.2-1.9-0.3-2.8
		c-0.2,0.1-0.7,0.3-0.9,0.4c0.2,0.8,0.5,1.7,0.7,2.5c-2.1,0.5-4.1,0.8-6.2,1.2c-0.1-0.9-0.4-1.7-0.2-2.6c0.7-2.9,0.7-5.9,1.2-8.9
		c2.5-0.5,4.9-0.8,7.4-1.3c1.7,2.7,2.5,6,4.8,8.4c0.1,0.7,0.3,1.4,0.4,2C156.8,129.8,154.5,130.2,152.2,130.6z"/>
	<path d="M142.6,121.4c-0.3-1.4-1.7-2-2.8-2.8c-0.3,0.2-0.7,0.4-1,0.6c1.6,0.3,3.3,1.4,3.3,3.2c0,1.2-1,1.9-1.9,2.5
		c0.9,1.3,1.4,3.2,0,4.4c-2.3,1.8-5.2,0.3-7.7-0.3c-0.3,0.2-0.6,0.5-1,0.7c2.7,0.1,5.5,1.8,8.2,0.7c2-0.8,2.6-3.4,1.6-5.2
		C142.3,124.2,143.2,122.8,142.6,121.4z"/>
	<path d="M124.7,120.1c-0.7-0.7-0.9,1-0.7,1.4C124.7,122.3,124.9,120.5,124.7,120.1z"/>
	<path d="M135.3,122.4c1-0.1,1.2-0.5,0.6-1.1C134.9,121.4,134.7,121.8,135.3,122.4z"/>
	<path d="M134.3,126.4c1-0.1,1.2-0.5,0.6-1.1C134,125.4,133.7,125.7,134.3,126.4z"/>
	<path d="M167.6,121.5c0.2,0.5,0.5,1,0.7,1.4c0.3,0.1,0.8,0.3,1,0.4c-0.1-0.8-0.3-1.7-0.6-2.5C168.5,121,167.9,121.3,167.6,121.5z"
		/>
	<path d="M150.7,125.5c0.7-0.4,0.7-0.9,0-1.3C150,124.7,150,125.1,150.7,125.5z"/>
	<path d="M135.9,27.5c1.8,0.1,3.6,0.4,5.4,0.4c-0.3-0.9-0.5-1.9-0.6-2.9c1.4-0.6,2.7-1.3,4.1-2c-0.1,1.7,0,3.5-1.1,4.9
		c1.8,0.2,3.5,0.3,5.3,0.5c-0.3-0.9-0.6-1.7-0.5-2.6c0.2-1.9,0-4,1.1-5.7c-1.8-0.1-3.5-0.2-5.3-0.4c0.2,0.8,0.4,1.6,0.5,2.4
		c-1.3,0.6-2.7,1.3-4,2c0.1-1.5,0.1-3.1,0.9-4.5c-1.8-0.1-3.5-0.2-5.3-0.4c0.3,1,0.6,2,0.5,3C136.9,24,137.3,26,135.9,27.5z"/>
	<path d="M125.8,30.2c1.5-0.6,3.1-1,4.5-1.9c-1.9-0.7-3.7-1.8-5.5-2.6c0.7-1.6,1.6-3.2,2.4-4.8c-1.4,0.5-2.8,1-4.3,1.5
		c0.6,1.8-0.3,3.3-1.2,4.8C123.2,27.9,125.1,28.4,125.8,30.2z"/>
	<path d="M154.8,29.1c1.6,0.7,3.3,1.5,4.9,2.2c0-1,0.1-2,0.4-2.9c0.8-0.1,1.7-0.1,2.5,0c0-0.2,0.1-0.7,0.2-1
		c-0.5,0.1-1.6,0.2-2.1,0.2c0.6-1.4,1.1-3.1,2.6-3.8c-1.6-0.9-3.3-1.6-5-2.4c0,0.4,0.1,1.2,0.1,1.6c-0.8,1.7-1.5,3.3-2.3,5
		C155.6,28.4,155.2,28.8,154.8,29.1z"/>
	<path d="M123.1,31.2c-0.7-0.7-1.4-1.4-1.7-2.4c-0.6-1.8-1.7-3.4-1.4-5.4c-1.7,0.6-3.3,1.3-5,1.9c0.6,0.7,1.3,1.4,1.6,2.4
		c0.6,1.8,1.7,3.5,1.4,5.4C119.8,32.6,121.5,31.9,123.1,31.2z"/>
	<path d="M161.9,32.3c1.6,0.9,3.2,1.6,4.8,2.3c-0.1-2.4,1.5-4.4,2.3-6.6c0.3-0.2,1-0.7,1.3-0.9c-1.6-0.9-3.3-1.6-5-2.3
		c0,0.8,0,1.6-0.1,2.4c-0.6,0-1.9,0.1-2.6,0.1c0.6,0.4,1.2,0.9,1.9,0.9C163.8,29.7,163.3,31.4,161.9,32.3z"/>
	<path d="M107.3,35.8c0.7-0.9,1.6-1.7,2.2-2.7c-0.3-0.3-0.8-0.8-1-1.1c-1.5,1-2.8,2.1-4.1,3.3c0.3,0.2,0.6,0.3,0.9,0.5
		C106,35.2,106.7,35.7,107.3,35.8z"/>
	<path d="M104,35.7c-0.9,1.5-2.3,2.9-2.4,4.7c0.5,1.2,1.7,1.8,2.5,2.7c0.9,0.7,1.9,2,3.2,1.2c3-1.7,5-4.6,6.5-7.6
		c-0.6-0.5-1.1-1-1.6-1.5c-0.8,0.9-1.6,1.9-2.4,2.8c0.4,0.5,0.8,1.1,1.1,1.7c-0.4,0.9-1.3,2.2-2.4,1.6c-1.5-1.1-2.8-2.3-4.1-3.6
		C104.4,37.1,104.3,36.4,104,35.7z"/>
	<path d="M98.1,65.1c0.5-1.3,1.1-2.6,1.6-4c-0.5,0.1-1,0.2-1.4,0.3c-1.9-0.7-3.9-1.5-5.7-2.4c2.9-0.4,6.1,0.2,8.8-0.9
		c-1.9-2.2-4-4.1-5.8-6.3c2.3,1.1,5,1.4,6.7,3.4c0.7-1.7,1.4-3.3,1.9-5c-0.3,0.1-1,0.4-1.3,0.5c-2.1-1.1-4.8-1.4-6.3-3.4
		c-0.7,1.7-1.4,3.4-2.2,5.1c0.9,1.3,2.8,2.2,2.8,4c-1.5,0.1-3,0.1-4.6,0.2c-0.6,1.8-1.4,3.6-2.1,5.4c0.9,0,1.8-0.1,2.6,0.3
		C94.8,63,96.8,63.5,98.1,65.1z"/>
	<path d="M97,81.3c1.4-1.3,1.4-3.4,1.6-5.1c0.1-2.1,0.2-4.7-1.5-6.3c-1.9,0.1-3.8-0.4-5.7,0c-1.3,0.9-1.2,2.8-1.6,4.1
		c0.3,0.3,0.6,0.5,0.9,0.8c-0.1-1.3,1.3-1.1,2.1-1.1c1.5,0.2,3.1-0.2,4.4,0.5c0.7,0.9,0.6,2.9-0.8,3.1c-1.8,0-3.5,0-5.3-0.2
		c-0.6-0.8-1-1.8-1.5-2.6c0.1,2.3-0.4,5.1,1.5,6.8C93.2,81.3,95.1,81.6,97,81.3z"/>
	<path d="M198,83.3c0.3-2.1,1-4.3,0.3-6.4c-1.2-1.2-4.1-1.8-5,0.1c-0.6,1.4-1.2,3.1-0.2,4.4c-0.4-2.7,3.1-2.5,4.3-1.1
		c0.2,0.9,0,1.8,0,2.7c-1.4-0.2-2.9-0.4-4.3-0.6c-0.3-0.5-0.6-1-0.9-1.5c0,1.8-0.4,3.7-0.7,5.5c3-0.5,6.2,0.1,8.9,1.4
		c0.3-1.6,0.6-3.2,0.8-4.8C200.1,83.3,199.1,83.4,198,83.3z"/>
	<path d="M186.3,97.5c2.4,2.2,4.8,4.3,7,6.7c0.1,0,0.4-0.1,0.6-0.1c0.5-1.5,2.2-3,1.5-4.5c-0.7,0.1-1.5,0.1-2.2,0
		c0.4-1,0.8-2,1.4-2.9c1-0.4,1.3,1.4,2.2,1.4c1-1.6,1.7-3.4,2.6-5.1c-3.4-0.3-6.8-0.8-10.2-1.4C188.3,93.6,187.3,95.5,186.3,97.5z
		 M192.2,98.6c-1.2-1.1-2.5-2.1-3.7-3.2c1.6,0.2,3.2,0.5,4.8,0.9C192.9,97,192.5,97.8,192.2,98.6z"/>
	<path d="M181.3,106.3c0.8-0.2,1.3,0.8,1.9,1.1c0.8-0.8,1.6-1.7,2.5-2.4c-1-0.9-1.9-1.9-2.9-2.8c-2.4,2.6-4.9,5.1-7.2,7.7
		c2.7,1.7,5.5,3.8,6.9,6.7c1.3-1.3,2.6-2.6,3.8-4.1c-2.6-1.1-4.4-3.4-6.5-5.2C180.2,107,180.7,106.6,181.3,106.3z"/>
	<path d="M118.7,112.3c-2.4,2.4-4.7,4.8-7.1,7.1c1.4,0.9,2.8,1.7,4.2,2.3c0.6-0.7,0.3-1.8,0.5-2.6c1.2,0.4,2.2,1,3.2,1.7
		c-0.7,0.6-1.4,1.2-2,1.8c1.6,1,3.3,1.8,4.9,2.8c0.2-0.3,0.4-0.6,0.7-0.8c-0.3-3.1,0.9-6.1,1.4-9.1
		C122.5,114.3,120.5,113.4,118.7,112.3z M119.6,119.3c-0.8-0.4-1.5-0.9-2.3-1.3c1.2-1.2,2.2-2.5,3.4-3.6
		C120.4,116.1,120,117.7,119.6,119.3z"/>
	<path d="M166.1,115.6c0.8,1,1.9,1.9,2.3,3.2c-0.7,0.5-1.4,0.8-2.2,1.1c-0.9-1-0.9-2.3-1.2-3.5c-1.8,0.2-3.4,1.6-5.1,2.2
		c2.2,2.4,3.8,5.5,4.3,8.7c1.7-0.8,3.4-1.6,5-2.5c-1-1.1-2-2.3-2.5-3.7c0.8-0.4,1.6-0.8,2.4-1.2c0.7,1.3,1.1,2.8,1.3,4.2
		c1.6-0.8,3.2-1.5,4.8-2.4c0.1-0.8-0.9-1.2-1.3-1.8c-1.3-2.1-2.5-4.4-2.8-7C169.4,113.9,167.7,114.6,166.1,115.6z"/>
	<path d="M141.3,122.9c0.5-1.3-0.7-2.5-1.9-2.8c-3-1-6.1-1.5-9.2-2.4c0.4,3.3-0.5,6.7-2.3,9.5c3.1,0.7,6.1,1.6,9.2,2.1
		c1.3,0.2,3-0.3,3.2-1.7c0.5-1.5-1.1-2.3-2-3C139.3,123.9,140.9,124.3,141.3,122.9z M136,127c-0.3,0.1-0.9,0.3-1.2,0.4
		c-0.6-0.2-1.2-0.3-1.9-0.5c0.3-1,0.4-2.1,0.9-3.1c0.8,0.3,1.7,0.4,2.2,1.1C136.7,125.6,136.1,126.4,136,127z M137.1,122.4
		c-0.5,1.3-2,0.6-3,0.5c0.2-0.9,0.5-1.8,0.7-2.6C135.8,120.6,137.6,120.9,137.1,122.4z"/>
	<path d="M147,120.9c-0.2,3.4-0.6,6.7-1.2,10c1.7-0.2,3.4-0.5,5-0.8c-0.4-0.8-0.9-1.7-1.3-2.5c1.1-0.3,2.3-0.5,3.5-0.6
		c-0.1,0.9-0.2,1.9-0.4,2.8c1.9-0.3,3.8-0.6,5.8-1c-1.8-2.9-3.4-5.9-4.8-9C151.4,120.2,149.2,120.6,147,120.9z M149.7,126.3
		c0.1-1.7,0.4-3.3,0.5-5c0.7,1.5,1.4,3,2,4.5C151.3,126,150.5,126.1,149.7,126.3z"/>
</g>
</svg>
