<?xml version="1.0" encoding="utf-8"?>
<!-- Generator: Adobe Illustrator 26.0.3, SVG Export Plug-In . SVG Version: 6.00 Build 0)  -->
<svg version="1.0" id="Слой_1" xmlns="http://www.w3.org/2000/svg" xmlns:xlink="http://www.w3.org/1999/xlink" x="0px" y="0px"
	 viewBox="0 0 239.5 150.2" style="enable-background:new 0 0 239.5 150.2;" xml:space="preserve">
<g>
	<g>
		<path d="M133.6,83c3.3,1.3,6.6,2.6,9.9,4.1c0,2.2,0,4.6,0,6.9c-0.8-0.3-1.6-0.4-2.5-0.7c0-1.3,0-2.6,0-4c-0.7-0.3-1.3-0.4-2-0.7
			c0,4.4,0,8.7,0,13.1c1.2,0,2.4,0,3.6,0c0,1.2,0,2.4,0,3.7c-1.2,0-2.4,0-3.6,0c0,5.7,0,11.4,0,16.9c0.7-0.3,1.3-0.5,2-0.7
			c0-2.1,0-4.4,0-6.5c0.9-0.3,1.9-0.7,2.8-0.9c0,3.2,0,6.3,0,9.5c-3.4,1.3-6.9,2.8-10.3,4.1c0-1.1,0-2.1,0-3.2
			c0.7-0.3,1.2-0.5,1.9-0.8c0-12.2,0-24.5,0-36.6c-0.7-0.3-1.2-0.5-1.9-0.8C133.6,85.1,133.6,84,133.6,83z"/>
		<path d="M208.4,87.2c3.6-1.5,7.3-2.9,10.8-4.4c0,2.5,0,5,0,7.4c-0.8,0.3-1.5,0.7-2.2,0.9c0-1.3,0-2.8,0-4.1
			c-0.5,0.3-1.1,0.4-1.6,0.7c0,11.6,0,23.4,0,35c0.4,0.1,0.9,0.4,1.3,0.5c0,1.1,0,2.1,0,3.2c-2-0.8-4-1.6-6.1-2.4c0-1.1,0-2,0-3
			c0.5,0.1,0.9,0.3,1.5,0.5c0-10.8,0-21.7,0-32.7c-0.5,0.1-1.1,0.4-1.6,0.5c0,1.3,0,2.6,0,4c-0.8,0.3-1.5,0.5-2.2,0.8
			C208.4,92,208.4,89.6,208.4,87.2z"/>
		<path d="M144.6,90.3c0-1.1,0-2,0-3c1.7,0.5,3.6,0.9,5.3,1.5c0,0.9,0,2,0,2.9c-0.4-0.1-0.7-0.1-1.1-0.3c0.4,4.6,0.9,9.3,1.3,13.8
			c0.1,0.8,0.1,1.5,0.3,2.2c0.1-0.4,0.1-0.8,0.1-1.2c0.4-4.8,0.8-9.5,1.2-14.1c-0.3-0.1-0.7-0.1-0.9-0.3c0-0.9,0-2,0-2.9
			c1.7,0.4,3.3,0.7,5,1.1c0,0.9,0,2,0,2.9c-0.3,0-0.7-0.1-0.9-0.1c-0.9,9.7-2,19.2-2.9,28.8c-0.9,0.3-2,0.4-2.9,0.7
			c-1.2-10.6-2.2-21.2-3.4-31.7C145.2,90.4,144.8,90.4,144.6,90.3z"/>
		<path d="M201,89.2c1.7-0.5,3.4-1.1,5.3-1.5c0.5-0.1,1.1,0.4,1.1,0.9c0,2.1,0,4.1,0,6.2c-0.8,0.3-1.7,0.5-2.5,0.8
			c0-1.5,0-2.8,0-4.2c-0.7,0.1-1.2,0.3-1.9,0.5c0,2,0,4,0,5.8c0,0.4,0.1,0.8,0.3,1.2c1.2,2.5,2.9,4.9,4.4,7.3
			c0.3,0.7,0.8,1.2,0.8,1.9c0,4.8,0,9.4,0,14.1c0,0.5-0.4,0.9-0.9,1.1c-0.3,0.1-0.5,0-0.8,0c-1.7-0.4-3.4-0.8-5-1.3
			c-0.7-0.1-1.1-0.8-1.1-1.5c0-2.1,0-4.4,0-6.5c0.9,0.3,1.9,0.4,2.6,0.7c0,1.6,0,3.2,0,4.8c0.7,0.1,1.2,0.3,1.9,0.4
			c0-3.6,0-7.1,0-10.7c0-0.5-0.3-1.1-0.5-1.5c-1.5-2.5-3-4.8-4.4-7.3c-0.3-0.5-0.5-1.1-0.5-1.6c0-2.5,0-5.2,0-7.7
			C199.6,90.1,200.2,89.3,201,89.2z"/>
		<path d="M156.7,90.1c2.8,0.4,5.6,0.8,8.5,1.1c0,2.1,0,4.2,0,6.3c-0.8-0.1-1.5-0.1-2.2-0.3c0-1.2,0-2.2,0-3.4
			c-0.5,0-1.2-0.1-1.7-0.1c0,2.9,0,5.8,0,8.7c0.9,0,2,0,2.9,0c0,1.1,0,2.1,0,3.2c-0.9,0-2,0-2.9,0c0,3.8,0,7.7,0,11.4
			c0.7-0.1,1.2-0.1,1.9-0.3c0-1.6,0-3.2,0-4.6c0-0.1,0-0.4,0-0.5c0.8-0.1,1.7-0.1,2.5-0.3c0,2.6,0,5.4,0,8.1c-3,0.4-6.2,0.8-9.3,1.2
			c0-0.9,0-2,0-2.9c0.5-0.1,1.1-0.1,1.5-0.3c0-8.1,0-16.1,0-24.2c-0.4,0-0.8-0.1-1.1-0.1C156.7,92.1,156.7,91.1,156.7,90.1z"/>
		<g>
			<path d="M192.3,90.8c0.9-0.1,1.9-0.3,2.8-0.4c1.2,9.3,2.4,18.5,3.6,27.8c0.4,0,0.7,0.1,1.1,0.1c0,0.9,0,2,0,2.9
				c-1.9-0.3-3.7-0.7-5.6-0.9c0-0.9,0-2,0-2.9c0.3,0,0.7,0.1,0.9,0.1c-0.1-1.3-0.3-2.6-0.3-4c-0.7-0.1-1.3-0.1-2.1-0.3
				c-0.1,1.3-0.3,2.6-0.3,3.8c0.3,0,0.5,0.1,0.9,0.1c0,0.9,0,2,0,2.9c-1.7-0.3-3.4-0.4-5.2-0.7c0-0.9,0-2,0-2.9c0.4,0,0.8,0,1.1,0.1
				C190,108.1,191.2,99.4,192.3,90.8z M193,110c0.5,0.1,1.1,0.1,1.6,0.3c-0.3-2.8-0.5-5.6-0.8-8.3C193.4,104.5,193.1,107.2,193,110z
				"/>
		</g>
		<g>
			<path d="M166.2,91.3c1.7,0.1,3.4,0.1,5.2,0.3c0.7,0,1.3,0.1,2,0.1c0.7,0.1,1.5,0.4,1.9,0.9c0.5,0.5,0.7,1.3,0.7,2.1
				c0,2.6,0,5.4,0,8.1c0,0.8-0.5,1.3-1.1,1.9c0.8,0.4,1.1,1.3,1.2,2.1c0,2.8,0,5.6,0,8.5c0,0.5,0.4,0.8,0.9,0.8c0,0.9,0,1.9,0,2.9
				c-0.9,0-1.9,0-2.6-0.4c-0.5-0.3-0.9-0.8-1.1-1.3c-0.1-0.8-0.1-1.5-0.1-2.2c0-2.9,0-5.8,0-8.7c-0.8,0-1.6,0-2.2,0
				c0,3.3,0,6.6,0,9.9c0.4,0,0.8,0,1.2,0c0,0.9,0,2,0,2.9c-1.9,0.1-3.6,0.3-5.4,0.3c0-0.9,0-2,0-2.9c0.4,0,0.8,0,1.1-0.1
				c0-7.4,0-14.7,0-22.1c-0.5,0-1.1-0.1-1.5-0.1C166.2,93.3,166.2,92.2,166.2,91.3z M170.9,94.5c0,2.8,0,5.4,0,8.2
				c0.7,0,1.3,0,2.1,0c0-2.6,0-5.4,0-8.1C172.3,94.6,171.5,94.5,170.9,94.5z"/>
		</g>
		<path d="M177.8,91.7c2-0.1,4-0.1,6-0.3c0,0.9,0,2,0,2.9c-0.4,0-0.9,0-1.3,0.1c0,7.3,0,14.4,0,21.7c0.7,0,1.3,0.1,2,0.1
			c0-1.9,0-3.7,0-5.6c0.9,0,1.7,0.1,2.6,0.1c0,2.8,0,5.7,0,8.5c-3-0.1-6-0.3-9-0.4c0-0.9,0-2,0-2.9c0.4,0,0.8,0,1.1,0
			c0-7.1,0-14.3,0-21.6c-0.4,0-0.9,0-1.3,0C177.8,93.7,177.8,92.8,177.8,91.7z"/>
		<g>
			<path d="M218.7,125.3c0.8-0.3,1.7,0.3,1.9,1.1c0.1,0.8-0.5,1.7-1.3,1.7c-0.8,0-1.5-0.5-1.5-1.3
				C217.6,126.2,218.1,125.6,218.7,125.3z M218.6,125.6c-0.5,0.1-0.9,0.8-0.8,1.3c0,0.7,0.7,1.2,1.3,1.2c0.8,0,1.3-0.8,1.2-1.5
				C220.3,125.7,219.4,125.2,218.6,125.6z"/>
		</g>
		<g>
			<path d="M218.5,125.8c0.4,0,0.8,0,1.1,0.1c0.3,0.3,0.3,0.7-0.1,0.8c0.3,0.1,0.3,0.4,0.3,0.8c0,0-0.1,0-0.3,0c0-0.1,0-0.5-0.1-0.5
				s-0.4,0-0.5,0c0,0.3,0,0.4,0,0.7c-0.1,0-0.3,0-0.3,0C218.5,127,218.5,126.5,218.5,125.8z M218.7,126.1c0,0.3,0,0.4,0,0.7
				c0.3,0,0.7,0.1,0.7-0.3C219.5,126,219,126.1,218.7,126.1z"/>
		</g>
	</g>
	<g>
		<path d="M166.1,125.6c3.2-0.5,6.3-0.7,9.5-0.4c-4.8,0.5-9.4,1.9-13.6,4.1c-0.1,0-0.3,0.1-0.3,0.3c0.1,0.1,0.3,0.1,0.4,0.3
			c1.1,0.4,2,0.8,3,1.1c0.3,0.1,0.7,0,0.8-0.1c2.2-1.3,4.6-2,7.1-2.5c1.1-0.3,2.1-0.4,3.2-0.4c-1.9,0.7-3.7,1.3-5.4,2.4
			c-0.8,0.5-1.6,0.9-2.1,1.7c-0.1,0.1-0.1,0.3,0,0.4c1.6,0.7,3,1.2,4.6,1.7c0.4,0.1,0.8,0.4,1.2,0.3c0.3,0,0.5-0.3,0.8-0.4
			c3.3-2,7-3.4,10.7-4.4c4.1-0.9,8.5-1.3,12.7-1.1c-4.2,0.5-8.5,1.6-12.4,3.4c-4,1.9-7.5,4.5-10.2,7.9c-0.1,0.3-0.4,0.3-0.7,0.1
			c-7.1-3.3-14.3-6.6-21.4-9.9c-0.3-0.1-0.1-0.4,0-0.5C157.9,127.4,162,126.2,166.1,125.6z"/>
	</g>
</g>
</svg>
