<?xml version="1.0" encoding="utf-8"?>
<!-- Generator: Adobe Illustrator 26.0.3, SVG Export Plug-In . SVG Version: 6.00 Build 0)  -->
<svg version="1.1" id="Слой_16" xmlns="http://www.w3.org/2000/svg" xmlns:xlink="http://www.w3.org/1999/xlink" x="0px"
	 y="0px" viewBox="0 0 239.5 150.2" style="enable-background:new 0 0 239.5 150.2;" xml:space="preserve">
<g>
	<path d="M118,79.6c0.1,3.1,0.5,6.2,0.9,9.3c0.1,0.8,0.3,1.5,0.4,2.3c0.1,0.8,0.3,1.6,0.5,2.4c0.3,1.3,0.6,2.7,1,4
		c0.2,0.8,0.4,1.6,0.7,2.3c0.2,0.7,0.4,1.4,0.7,2.1c0.5,1.6,1.1,3.2,1.8,4.7c0.6,1.4,1.2,2.7,1.9,4c0.8,1.6,1.7,3.1,2.6,4.6
		c3,4.7,6.7,8.9,11.4,11.9c1.4,0.9,2.9,1.7,4.5,2.2c2.1,0.9,4.4,1.3,6.7,1.5h2.1c2.9-0.2,5.7-0.9,8.3-2.1c1.5-0.7,3-1.6,4.4-2.6
		c0,0,0.2-0.1,0.2-0.1c0.7-0.5,1.3-1,1.9-1.5c0.2-0.2,0.5-0.4,0.7-0.6c0.5-0.5,1-0.9,1.5-1.4c0.2-0.2,0.5-0.5,0.7-0.8
		c0.5-0.6,1-1.1,1.5-1.7c0.1-0.2,0.3-0.3,0.4-0.5c1.6-2,3-4.2,4.3-6.4c0.9-1.5,1.7-3.1,2.4-4.7c0.3-0.6,0.5-1.2,0.8-1.8
		c0.7-1.6,1.3-3.2,1.8-4.8c0.2-0.7,0.5-1.4,0.7-2.1c0.5-1.5,0.9-3.1,1.3-4.7c0.1-0.5,0.2-1.1,0.4-1.6c0.2-0.9,0.4-1.7,0.5-2.6
		c0.3-1.4,0.4-2.8,0.7-4.2c0.1-1.1,0.2-2.1,0.4-3.2l0-0.1c0-1.3,0.2-2.6,0.3-3.9c0-0.5,0-1,0.1-1.5c0-0.7,0-1.5,0.1-2.2
		c0-0.7,0-1.5,0-2.2c0-0.7,0-1.5-0.1-2.2c0-0.4,0-0.8,0-1.3c-0.1-1.3-0.2-2.6-0.3-3.8c-0.1-0.5-0.1-1-0.2-1.5
		c-0.3-2.9-0.8-5.7-1.4-8.6c-0.2-0.8-0.4-1.5-0.5-2.3c-0.4-1.7-0.9-3.3-1.4-5c-0.2-0.5-0.4-1.1-0.5-1.6c-0.5-1.5-1.1-2.9-1.7-4.4
		c-0.3-0.7-0.6-1.4-0.9-2c-0.7-1.6-1.5-3.2-2.4-4.7c-1.3-2.2-2.7-4.3-4.3-6.3c-0.1-0.1-0.2-0.3-0.3-0.4c-0.6-0.6-1.1-1.3-1.7-1.9
		c-0.2-0.2-0.3-0.3-0.5-0.5c-0.6-0.6-1.2-1.1-1.8-1.7c-0.1-0.1-0.3-0.2-0.4-0.3c-2-1.7-4.2-3.2-6.5-4.2c-0.8-0.4-1.5-0.7-2.3-0.9
		c-1.9-0.7-4-1-6-1.2h-2.2c-2.3,0.2-4.6,0.6-6.7,1.5c-1.6,0.6-3.1,1.4-4.5,2.2c-4.6,2.9-8.3,7.1-11.3,11.6c-1,1.5-1.9,3-2.7,4.6
		c-0.7,1.4-1.4,2.8-2,4.3c-0.6,1.4-1.2,2.9-1.7,4.4c-0.2,0.7-0.5,1.4-0.7,2.1c-0.2,0.7-0.5,1.5-0.7,2.2c-0.4,1.5-0.8,3-1.1,4.6
		c-0.2,0.8-0.4,1.6-0.5,2.5c-0.1,0.4-0.1,0.9-0.2,1.3c-0.6,3.4-1,6.8-1.1,10.2c0,0.4,0,0.8,0,1.2c0,0.7-0.1,1.4-0.1,2.2
		c0,0.7,0,1.5,0,2.2c0,0.7,0,1.4,0.1,2.2C118,78.7,118,79.2,118,79.6z M120,71.5c0.1-1.6,0.2-3.3,0.4-4.9c0.6-6.5,2.1-12.9,4.4-18.9
		c1.9-4.8,4.4-9.4,7.6-13.4c3-3.7,6.8-7,11.2-8.9c4.2-1.9,9-2.3,13.5-1.2c5.3,1.3,10,4.6,13.6,8.6c3.9,4.4,6.8,9.6,9,15
		c2.6,6.7,4.1,13.8,4.6,21c0.1,0.9,0.1,1.7,0.2,2.6c0.1,2.2,0.1,4.4,0,6.5c-0.2,2.6-0.3,5.2-0.7,7.7c-0.8,6-2.3,11.8-4.7,17.4
		c-2.2,5.2-5.1,10-8.9,14.1c-3.2,3.4-7.2,6.2-11.7,7.6c-3.7,1.2-7.7,1.2-11.5,0.2c-4.8-1.3-9-4.2-12.4-7.7c-3.8-4-6.7-8.8-8.9-13.9
		c-3.5-8.2-5.2-17.1-5.5-25.9C119.9,75.3,120,73.4,120,71.5z"/>
	<path d="M178.2,48.3c-0.6-1.6-1.3-3.2-2.1-4.8c-2.4-4.8-5.5-9.3-9.6-12.8c0,1.9,0,3.7,0,5.6c-0.1,2.9,0.4,5.8,0.5,8.7
		C170.8,45.9,174.6,46.9,178.2,48.3z"/>
	<path d="M137.1,41.3c0.3-3.3,0.2-6.7,0.2-10c-5.1,4.5-8.6,10.6-11.1,16.8c3.5-1.3,7-2.3,10.6-3C136.9,43.8,137,42.5,137.1,41.3z"/>
	<path d="M150.1,55.6c-0.7,0.1-1.4,0.1-2.2,0.2c0-1,0-1.9,0-2.9c0.6-0.1,1.2-0.1,1.8-0.2c0-0.6,0-1.2,0-1.8c-0.6,0-1.2,0-1.8,0.1
		c0-0.9,0-1.7,0-2.6c0.6,0,1.3-0.1,1.9-0.1c0-0.7,0-1.3,0-2c-1.5,0.2-3,0.2-4.5,0.3c0,3.8,0,7.5,0,11.3c1.6-0.1,3.1-0.2,4.7-0.3
		C150.1,56.9,150.1,56.3,150.1,55.6z"/>
	<path d="M155.3,57.7c0.7,0,1.4,0.1,2.1,0.1l0,0.1c0.1-0.4,0.1-0.7,0.1-1.1c0-3.4,0-6.8,0-10.3c-0.3,0-0.6,0-1,0
		c-0.4-0.1-0.8-0.1-1.1-0.1c0,1.7,0,3.4,0,5.1c-0.1,0-0.3,0-0.4,0c-0.5-1.7-1-3.4-1.6-5.1c-0.7,0-1.3-0.1-2-0.1l-0.1,0
		c0,3.8,0,7.5,0,11.3c0.5,0,1,0,1.5,0c0.2,0,0.4,0.1,0.6,0.1c0-1.7,0-3.4,0-5.1c0.1,0,0.3,0,0.4,0C154.3,54.2,154.8,56,155.3,57.7z"
		/>
	<path d="M160.3,48.6c0,3.1,0,6.2,0,9.3c0.9,0.2,1.7,0.3,2.6,0.4c0-3.1,0-6.2,0-9.3c0.6,0.1,1.1,0.2,1.7,0.2c0-0.6,0-1.3,0-1.9
		c-2-0.3-4-0.6-6-0.9c0,0.7,0,1.3,0,2C159.2,48.5,159.7,48.6,160.3,48.6z"/>
	<path d="M143.1,58.1c0.4-3.8,1-7.7,1.4-11.5c-0.9,0.2-1.8,0.3-2.6,0.5c-0.3,2.7-0.5,5.4-0.7,8.1c-0.1,0-0.3,0-0.4,0
		c-0.2-2.6-0.4-5.2-0.8-7.8c-0.9,0.1-1.8,0.3-2.6,0.5c0.5,3.7,1.1,7.3,1.6,11C140.4,58.6,141.7,58.4,143.1,58.1z"/>
	<path d="M166.3,58c0.8,1.1,2.2,1.7,3.6,1.8c0.6,0,1.3-0.3,1.6-0.9c0.3-0.6,0.3-1.4,0.3-2.1c0.1-2.4,0-4.8,0-7.2
		c0-0.3,0.1-0.7-0.3-0.8l0,0c-0.5-0.1-0.9-0.2-1.4-0.3c-0.3-0.1-0.5-0.2-0.8-0.2c0,3.1,0,6.3,0,9.4c-0.2,0.1-0.3,0.2-0.5,0.3
		c-0.3,0-0.6-0.2-0.7-0.6c-0.1-0.6,0-1.2-0.1-1.7c0-2.4,0-4.8,0-7.2c0-0.2,0-0.4-0.1-0.6c-0.7-0.2-1.4-0.4-2-0.6
		c-0.1,0-0.2-0.1-0.3-0.1c0,2.9-0.1,5.9,0,8.8C165.6,56.8,165.9,57.5,166.3,58z"/>
	<path d="M130.5,59.4c0.2,0.6,0.7,1,1.3,1.1c1.1,0.1,2.1-0.2,3-0.8c1-0.7,1.6-1.9,1.6-3.1c0.1-2.9,0-5.7,0-8.6
		c-0.7,0.1-1.4,0.4-2,0.6c-0.1,0-0.3,0.1-0.4,0.1c0,3.2,0,6.4,0,9.6c-0.2,0.3-0.5,0.6-0.8,0.5c-0.3-0.2-0.3-0.5-0.3-0.8
		c0-3,0-6,0-8.9c-0.8,0.2-1.5,0.5-2.3,0.6c-0.2,0.4-0.2,0.9-0.2,1.3c0,2.3,0,4.5,0,6.8C130.3,58.3,130.3,58.9,130.5,59.4z"/>
	<path d="M177.2,50.6c-0.8-0.5-1.8-0.9-2.8-1c-0.6,0-1.2,0.3-1.3,0.9c-0.3,1.4-0.2,3.1,0.8,4.3c0.7,0.8,1.5,1.6,2.2,2.4
		c0.6,0.6,0.6,1.5,0.5,2.3c0,0.2-0.1,0.6-0.4,0.6c-0.5,0.1-1-0.3-1-0.7c0-0.6,0-1.3,0-1.9c-0.7-0.3-1.5-0.5-2.2-0.8
		c0,1-0.1,2.2,0.5,3.1c0.6,1,1.6,1.6,2.7,2c0.7,0.2,1.5,0.3,2.2,0c0.5-0.3,0.5-0.9,0.6-1.3c0-1,0.1-2-0.3-2.9
		c-0.6-1.4-1.9-2.4-2.9-3.5c-0.5-0.6-0.6-1.5-0.4-2.3c0.3-0.4,1.1-0.1,1.1,0.4c0.1,0.5,0.1,0.9,0.1,1.4c0.8,0.3,1.5,0.5,2.3,0.7
		c0-0.6,0-1.2-0.2-1.9C178.4,51.7,177.8,51.1,177.2,50.6z"/>
	<path d="M127.9,61.7c0.5-0.3,0.9-0.9,0.9-1.5c0.1-1.1,0.1-2.2,0.1-3.3c0-2.2,0-4.5,0-6.7c-0.1,0-0.3,0.1-0.4,0.1
		c-0.6,0.2-1.2,0.5-1.8,0.7c-0.2,0.5-0.1,1.1-0.1,1.7c0,2.2,0,4.5,0,6.7c0,0.2,0,0.5,0.1,0.7c-0.2,0.5-0.7,0.8-1.1,1.1
		c-0.1,0.5,0,1,0,1.5C126.3,62.4,127.2,62.1,127.9,61.7z"/>
	<path d="M137.6,108c0-1.8,0.1-3.6-0.1-5.4c-0.5-6.4-0.8-12.7-1-19.1c0-0.8,0.1-1.6-0.1-2.4c0-0.4,0-0.7,0-1.1
		c-0.1-4.2-0.1-8.5-0.1-12.7c-0.1,0-0.2,0.1-0.3,0.2c-3.2,1.5-6.2,3.6-8.9,5.9c-0.4,0.4-0.8,0.7-1.2,1.1c-0.1,0.7-0.1,1.5-0.1,2.2
		c0,5.7,0,11.5,0,17.2c0,0.7,0,1.5,0.1,2.2c0.1,0.5,0.4,1,0.6,1.5c1.6,3.9,3.7,7.6,6.3,11c1.4,1.8,3,3.5,4.8,5
		C137.6,111.7,137.6,109.9,137.6,108z"/>
	<path d="M144.4,89.4c0,0.4,0,0.9,0.2,1.3c0.5,1.2,1.2,2.3,1.8,3.4c3.7-1.2,7.7-1,11.3,0c0.6-1.2,1.4-2.3,1.9-3.5
		c0.2-0.4,0.2-0.8,0.2-1.2c-0.6,0.2-1.2,0.5-1.7,1c-0.4,0.3-0.7,0.7-1.2,0.7c-0.9,0-1.5-0.9-1.3-1.7c0.1-0.5,0.3-1,0-1.4
		c-0.4-0.4-1-0.2-1.3,0.1c-0.5,0.5-0.3,1.2-0.6,1.7c-0.7,0.9-2.2,1-3,0.1c-0.3-0.4-0.3-0.8-0.4-1.2c-0.1-0.4-0.4-0.8-0.9-0.9
		c-0.4-0.1-1,0.2-0.9,0.7c0,0.4,0.2,0.9,0.2,1.3c0,0.7-0.7,1.4-1.4,1.4c-0.5,0-0.9-0.4-1.2-0.7C145.7,89.9,145.1,89.6,144.4,89.4z"
		/>
	<path d="M146.4,28.2c0,5.2,0,10.4,0,15.7c0.5,0,1-0.1,1.5-0.1c0.2,0,0.4,0,0.6-0.1c1.1,0.1,2.3-0.1,3.4,0c1.1,0,2.3,0.1,3.4,0
		c0.2,0.1,0.4,0.1,0.6,0.1c0.7,0.1,1.4,0.1,2.1,0.2c0-6,0-12,0-18c-0.2,0-0.4-0.1-0.6-0.1l-0.1-0.1c-2-0.6-4.2-0.8-6.3-0.6
		c-1.6,0-3.1,0.4-4.6,0.8l0,0.1C146.3,26.7,146.4,27.5,146.4,28.2z"/>
	<path d="M178.4,74.4L178.4,74.4c-3-2.8-6.4-5.2-10-7c-0.1,0-0.2-0.1-0.2-0.1c0,4.1,0.1,8.3-0.1,12.4c0,0.4,0,0.8,0,1.2
		c-0.2,0.8-0.1,1.5-0.1,2.3c-0.2,6.5-0.5,13-1,19.6c-0.2,1.6-0.1,3.3-0.1,5c0,2.1,0,4.2,0,6.3c4.3-3.5,7.5-8.1,10-12.9
		c0.6-1.2,1.2-2.4,1.6-3.7c0.1-0.8,0.1-1.6,0.1-2.4c0-6.1,0-12.3,0-18.4C178.5,75.9,178.5,75.1,178.4,74.4z"/>
	<path d="M161.2,99.2c-0.2-1-1.2-1.7-2.2-1.8c-2.2-0.1-4.4,0-6.6,0c-2.3,0-4.6-0.1-6.9,0c-1,0-1.9,0.7-2.2,1.7
		c-0.2,0.9-0.1,1.8-0.1,2.7c0,1.5-0.1,3,0.1,4.4c0.2,2.8,1.4,5.5,3.2,7.7c1.7,2.1,3.8,3.9,5.8,5.7c2.4-2,4.8-4.1,6.6-6.8
		c1.3-1.9,2.2-4.2,2.4-6.6c0.2-1.4,0.1-2.9,0.1-4.3C161.3,101,161.4,100.1,161.2,99.2z M157.2,106.4c0.3,0.8,0.5,1.7,0.4,2.6
		c-0.1,0.5-0.7,0.8-0.8,1.4c-0.2,0.6-0.6,1-0.9,1.5c-0.2,0.4,0.1,0.8,0.3,1.2c-0.4,0.4-1,0.8-1.3,1.4c-0.2,0.4,0.1,0.7,0.2,1.1
		c-0.2,0.4-0.7,0.5-1.1,0.5c-0.2-0.6-0.4-1.3,0-1.9c0.3-0.4,0.3-0.9,0.2-1.3c-0.2-0.5-0.6-0.8-0.9-1.2c-0.2-0.3-0.4-0.7-0.8-0.8
		c-0.5,0.1-0.8,0.6-1.2,0.7c-0.7,0.2-1.4,0-2.1-0.1c-0.1,0.3-0.1,0.6-0.2,0.9c-0.3,0-0.7,0-0.9-0.2c0-0.3-0.1-0.8,0.2-1
		c0.7-0.5,1.7-0.2,2.4-0.7c0-0.5-0.1-0.9-0.1-1.4c0.2-0.6,0.6-1.1,0.9-1.7c-0.8-0.7-1.5-1.6-2.5-1.7c0,0.6,0.6,1,0.5,1.6
		c0,0.3-0.5,0.6-0.8,0.4c-0.8-0.7,0-2-0.9-2.6c-0.3,0.4-0.6,0.9-1.1,1.1c-0.4-0.6-0.1-1.2,0.1-1.8c0.3,0,0.6,0.1,0.9,0
		c0.3-0.2,0.5-0.4,0.7-0.6c0.5,0.1,0.8,0.5,1.3,0.7c0.1-0.3,0.3-0.6,0.4-0.9c-0.5,0-1.1,0.3-1.4-0.2c-0.2-0.6,0.2-1.3,0.1-1.9
		c-0.4-0.6-0.8-1.1-1-1.7c0.3,0.1,0.6,0.2,0.9,0.3c-0.1-0.3-0.2-0.5-0.3-0.8c1.1,0.8,2.4,0.7,3.6,1.1c0.8,0.3,1.8,0.6,2.2,1.5
		c0.9,1.9,1.1,4,1.8,5.9c0.1,0.4,0.5,0.6,1,0.5c0-0.3,0.1-0.5,0-0.8c-0.3-1-0.9-2-0.9-3c0-0.5,0.2-0.9,0.6-1.2
		c0.5-0.3,1.2,0.1,1.4,0.6c0.2,0.6,0.2,1.2,0.3,1.8c-0.3-0.2-0.7-0.3-0.9-0.6c-0.2-0.3-0.2-0.7-0.2-1.1c-0.1,0-0.3,0-0.4,0
		C156.4,104.7,156.9,105.5,157.2,106.4z"/>
	<path d="M126.9,69.9c6.8-4.4,14.7-7.1,22.8-7.4c5.4-0.3,10.8,0.5,15.9,2.2c5.3,1.7,10.3,4.4,14.7,7.8c0.8,0.6,1.6,1.3,2.4,1.9
		c0-1.3,0-2.5,0-3.8c0-1.1-0.2-2.2-0.2-3.3c-8.7-4.3-18.4-6.5-28.1-6.8c-1.4-0.1-2.7-0.1-4.1-0.1c-2.6,0.1-5.2,0.2-7.7,0.6
		c-4.1,0.5-8.1,1.3-12.1,2.5c-3,0.9-5.8,2.1-8.7,3.3c0,0.6,0,1.2-0.1,1.7c-0.2,1.7-0.1,3.4-0.1,5.1C123.4,72.3,125.1,71,126.9,69.9z
		"/>
	<path d="M146.7,84.6c0.2-0.1,0.4-0.2,0.6-0.2c2-0.9,4.2-1.3,6.4-1c1.6,0.2,3.2,0.8,4.6,1.5c0-6.9,0-13.8,0-20.7
		c-3.8-0.7-7.8-0.6-11.6-0.1l0,0.1c-0.1,0.5-0.1,1.1-0.1,1.6C146.7,72,146.6,78.3,146.7,84.6z"/>
	<path d="M3.5,3.8v142.6H236V3.8H3.5z M234.3,144.7H5.2V5.5h229.1V144.7z"/>
	<path d="M230.3,43.3c0-11.3,0-22.6,0-33.8c-11.3,0-22.6,0-33.8,0c4.2,1.2,13.1,4.2,21.3,12.4C226,30.1,229.1,39.1,230.3,43.3z"/>
	<path d="M43.1,9.5c-11.3,0-22.6,0-33.8,0c0,11.3,0,22.6,0,33.8c1.2-4.2,4.3-13.2,12.6-21.5C29.9,13.7,38.9,10.6,43.1,9.5z"/>
	<path d="M230.3,106.9c-1.2,4.2-4.3,13.2-12.6,21.5c-8.2,8.1-17.1,11.2-21.3,12.4c11.3,0,22.6,0,33.8,0
		C230.3,129.4,230.3,118.2,230.3,106.9z"/>
	<path d="M21.8,128.3c-8.3-8.2-11.4-17.3-12.6-21.5c0,11.3,0,22.6,0,33.8c11.3,0,22.6,0,33.8,0C38.9,139.6,29.9,136.5,21.8,128.3z"
		/>
</g>
</svg>
