<?xml version="1.0" encoding="utf-8"?>
<!-- Generator: Adobe Illustrator 26.0.3, SVG Export Plug-In . SVG Version: 6.00 Build 0)  -->
<svg version="1.1" id="Слой_14" xmlns="http://www.w3.org/2000/svg" xmlns:xlink="http://www.w3.org/1999/xlink" x="0px"
	 y="0px" viewBox="0 0 239.5 150.2" style="enable-background:new 0 0 239.5 150.2;" xml:space="preserve">
<style type="text/css">
	.st0{fill:#020202;}
</style>
<g>
	<path class="st0" d="M138,32.9c-0.4,1.9-0.7,3.8-1,5.7c2-1,3.9-2,5.8-3c0.2-0.1,0.5-0.2,0.7,0c2,1,3.9,2,5.9,3
		c-0.1-0.7-0.2-1.3-0.4-2c-0.3-1.6-0.6-3.2-0.8-4.7c1.6-1.6,3.2-3.2,4.8-4.8c-2.2-0.3-4.5-0.6-6.8-0.9c-1.1-2-2-4.1-3.1-6.1
		c-1.1,2-2,4.1-3.1,6.1c-2.3,0.3-4.5,0.6-6.8,0.9c1.6,1.6,3.2,3.2,4.8,4.8C138.2,32.2,138.1,32.5,138,32.9z"/>
	<path class="st0" d="M114,34.8c-0.4,1.9-0.7,3.9-1,5.8c2-1,3.9-2,5.9-3c0.2-0.2,0.5,0,0.7,0.1c1.3,0.7,2.6,1.4,3.9,2.1
		c0.6,0.3,1.1,0.7,1.8,0.9c-0.4-2.1-0.7-4.3-1.1-6.4c-0.1-0.4,0.3-0.6,0.5-0.8c1.5-1.4,3-2.8,4.4-4.3c-2.2-0.4-4.5-0.7-6.8-1
		c-1-2-2-4.1-3-6.1c-1.1,2-2,4.1-3.1,6.1c-2.3,0.3-4.5,0.6-6.8,0.9c1.6,1.6,3.2,3.2,4.8,4.8C114.1,34.1,114,34.5,114,34.8z"/>
	<path class="st0" d="M162.4,34.4c-0.4,2.1-0.7,4.1-1,6.2c0.7-0.3,1.3-0.6,1.9-1c1.2-0.7,2.5-1.3,3.7-2c0.2-0.1,0.4-0.3,0.7-0.1
		c2,1,3.9,2,5.9,3c-0.1-0.6-0.2-1.3-0.3-1.9c-0.3-1.6-0.6-3.2-0.8-4.9c1.6-1.6,3.2-3.2,4.8-4.8c-2.3-0.3-4.5-0.6-6.8-0.9
		c-1.1-2-2-4.1-3.1-6.1c-1,2-2,4.1-3,6.1c-2.2,0.4-4.5,0.7-6.8,1c1.5,1.6,3.2,3,4.7,4.6C162.5,33.9,162.4,34.2,162.4,34.4z"/>
	<path class="st0" d="M146.6,44.4c-3,0-6,0-8.9,0c-1.1,0.1-2.1,0.1-3.2,0.1c-8.4,0.4-16.8,1.3-25.1,2.5c0,12.5,0,25.1,0,37.6
		c-0.1,6.4,1.4,12.8,4.3,18.5c3.2,6.4,7.9,12,13.3,16.6c4.8,4.1,10.1,7.5,15.7,10.2c0.2,0.1,0.4,0.2,0.7,0.3
		c0.5-0.1,0.9-0.4,1.3-0.6c5.8-2.8,11.2-6.4,16.1-10.7c4.4-3.9,8.3-8.5,11.2-13.7c3.4-6,5.3-12.9,5.3-19.8c0-2.7,0-5.4,0-8
		c-0.1-3.9,0-7.9,0-11.8c0-6.2,0-12.4,0-18.6c-2.4-0.4-4.8-0.7-7.2-1C162.3,45.2,154.4,44.6,146.6,44.4z M175.5,48.6
		c0,11.9,0,23.9,0,35.8c0,3.5-0.3,7-1.2,10.4c-1.6,6.1-4.6,11.7-8.6,16.6c-3.2,3.8-6.8,7.2-10.8,10.1c-3.6,2.7-7.5,5-11.6,6.9
		c-5.4-2.6-10.5-5.8-15.1-9.7c-3.1-2.6-6-5.6-8.5-8.8c-3.7-4.8-6.4-10.3-7.8-16.2c-0.6-2.9-1-6-0.9-9c0-12.1,0-24.1,0-36.2
		c9.6-1.4,19.2-2.2,28.8-2.5c10.5-0.2,21,0.6,31.5,1.9C172.7,48.2,174.1,48.4,175.5,48.6z"/>
	<path class="st0" d="M141.3,68.3c-1.5,0.1-3,0-4.4,0.1c-7.8,0.3-15.6,1-23.3,2c0,0.6,0,1.2,0,1.7c3.9-0.6,7.8-1,11.7-1.3
		c4-0.3,8.1-0.6,12.1-0.7c2.1-0.1,4.2-0.1,6.2-0.1c1.8,0,3.6,0,5.3,0.1c2.5,0.1,5,0.2,7.5,0.4c5.5,0.4,11,0.9,16.4,1.7
		c0-0.6,0-1.2,0-1.7c-5.9-0.8-11.8-1.4-17.7-1.7c-1.7-0.1-3.3-0.2-5-0.2c-1.6-0.1-3.3,0-4.9-0.2C144,68.3,142.7,68.3,141.3,68.3z"/>
	<path class="st0" d="M136,83.8c0.3,0.9,0.8,1.7,1.3,2.6c0.2,0.3,0.3,0.7,0.6,0.9c0.5,0,0.9-0.2,1.3-0.3c2.6-0.6,5.3-0.5,7.9,0
		c0.5,0.1,1,0.2,1.4,0.3c0.6-1.1,1.3-2.2,1.8-3.3c0.1-0.3,0.3-0.7,0.1-1.1c-0.6,0.1-1.1,0.4-1.6,0.8c-0.3,0.3-0.7,0.7-1.2,0.8
		c-0.8-0.1-1.5-0.9-1.2-1.7c0.1-0.4,0.3-0.9-0.1-1.3c-0.4-0.4-1-0.2-1.3,0.2c-0.4,0.5-0.2,1.2-0.6,1.6c-0.7,0.9-2.2,0.8-2.8-0.1
		c-0.2-0.5-0.1-1.2-0.6-1.6c-0.3-0.3-1-0.5-1.3,0c-0.3,0.7,0.3,1.4-0.1,2.1c-0.2,0.6-1,1.1-1.6,0.7c-0.7-0.5-1.4-1.4-2.3-1.4
		C135.9,83.2,135.9,83.5,136,83.8z"/>
	<path class="st0" d="M144.1,88.2c-3.2,0-6.4,0.2-9.6,0.7c0,3.4,0,6.9,0,10.3c0,1.5,0.4,3,1,4.3c0.9,2,2.4,3.7,4.1,5.1
		c1.2,0.9,2.4,1.8,3.7,2.3c0.6-0.1,1.1-0.5,1.6-0.8c1.7-1,3.2-2.3,4.5-3.8c1.7-2,2.9-4.6,2.8-7.3c0-3.4,0-6.8,0-10.2
		C149.5,88.5,146.8,88.3,144.1,88.2z M147.3,97.4c0.3,0.9,0.7,1.9,0.5,2.9c-0.1,0.5-0.7,0.6-0.7,1.1c-0.1,0.6-0.7,0.9-0.8,1.5
		c-0.1,0.3,0.3,0.6,0.3,0.9c-0.4,0.3-0.8,0.6-1.1,1c-0.2,0.3-0.1,0.6,0.2,0.8c0,0.3-0.3,0.5-0.6,0.6c-0.1,0-0.2,0-0.3,0
		c-0.1,0-0.2-0.1-0.2-0.1c-0.2-0.4-0.2-0.9-0.1-1.3c0-0.2,0.3-0.3,0.4-0.5c0-0.4,0.1-1-0.3-1.3c-0.4-0.3-0.6-0.9-1-1.2
		c-0.4-0.2-0.7,0.3-1,0.4c-0.6,0.2-1.3,0.1-2,0c-0.3,0.1-0.2,0.5-0.3,0.7c-0.1,0-0.2,0.1-0.3,0.1c-0.2-0.1-0.5-0.1-0.6-0.3
		c0-0.3,0-0.7,0.3-0.9c0.6-0.3,1.4-0.1,1.9-0.5c0.1-0.4-0.1-0.7,0-1.1c0-0.6,0.6-1,0.7-1.6c-0.3-0.3-0.6-0.5-0.8-0.8
		c-0.3-0.3-0.6-0.4-1-0.6c-0.1,0-0.2,0-0.2,0c-0.1,0.5,0.5,0.8,0.4,1.3c0,0.3-0.3,0.6-0.6,0.5c-0.4-0.3-0.6-0.8-0.5-1.3
		c0.1-0.4,0-0.7-0.3-1c-0.1,0-0.2,0.1-0.2,0.1c-0.1,0.2-0.3,0.4-0.4,0.6c-0.2,0.1-0.5,0.1-0.7,0c0-0.5,0.1-0.9,0.3-1.3
		c0.3,0,0.7,0,1-0.1c0.1-0.2,0.2-0.6,0.5-0.5c0.3,0.1,0.5,0.4,0.8,0.5c0.1,0,0.2,0,0.2-0.1c0.1-0.2,0.2-0.5,0.3-0.7
		c-0.3,0.1-0.6,0.2-0.9,0.2c-0.1-0.1-0.3-0.2-0.4-0.3c-0.2-0.6,0.2-1.2,0-1.7c-0.4-0.4-0.7-0.9-0.9-1.5c0.2,0.1,0.5,0.2,0.8,0.3
		c-0.1-0.2-0.2-0.5-0.3-0.7c0.4,0.1,0.7,0.4,1.1,0.5c1.1,0.2,2.3,0.4,3.3,1c0.5,0.2,0.7,0.7,0.9,1.2c0.6,1.5,0.8,3,1.3,4.6
		c0.1,0.3,0.3,0.7,0.7,0.7c0.1-0.1,0.2-0.2,0.3-0.4c-0.3-1-0.8-1.9-0.9-2.9c-0.1-0.5,0.4-1.1,0.9-1.1c0.4,0,0.8,0.4,0.9,0.7
		c0.1,0.5,0.1,1,0.3,1.5c-0.4-0.2-0.7-0.3-1-0.6c-0.1-0.2-0.1-0.4-0.1-0.5c0-0.1-0.1-0.2-0.1-0.4c-0.1,0-0.2,0.1-0.3,0.1
		C146.9,96.3,147.1,96.9,147.3,97.4z"/>
	<path class="st0" d="M140,47c-9.4,0.2-18.8,1.1-28.1,2.4c0,11.8,0,23.6,0,35.3c0,2.9,0.3,5.9,0.9,8.8c1.3,5.7,4,11.1,7.6,15.8
		c2.4,3.2,5.2,6,8.3,8.6c4.5,3.8,9.4,7,14.7,9.5c4-1.9,7.7-4.1,11.3-6.7c3.9-2.9,7.5-6.2,10.5-9.9c3.9-4.7,6.9-10.2,8.4-16.2
		c0.8-3.3,1.2-6.7,1.2-10.2c0-11.7,0-23.3,0-35c-1.4-0.2-2.7-0.4-4.1-0.6C160.5,47.6,150.2,46.8,140,47z M156.3,48.3
		c4.1,0.3,8.1,0.7,12.2,1.1c1.8,0.2,3.6,0.4,5.4,0.7c0,11.9,0,23.9,0,35.8c-0.1,0.8,0,1.7-0.1,2.6c-0.1,1.8-0.4,3.7-0.8,5.5
		c-1.6,6.2-4.7,12.1-9,17c-0.8,0.9-1.6,1.9-2.5,2.7c-3.8,3.9-8.1,7.3-12.8,10.1c-1.7,1-3.4,2-5.2,2.8c-0.7-0.3-1.4-0.7-2.2-1.1
		c-2.8-1.5-5.4-3.1-8-4.9c-2.8-2.1-5.4-4.3-7.9-6.8c-2.9-2.9-5.4-6.1-7.4-9.6c-1.5-2.5-2.7-5.2-3.5-8c-0.9-2.5-1.3-5.1-1.5-7.7
		c-0.2-2.3-0.1-4.6-0.1-7c0-10.5,0-20.9,0-31.4c7-0.9,14-1.6,21-2c0.9-0.1,1.9-0.1,2.8-0.1c1.1-0.1,2.2-0.1,3.2-0.1
		c3.4-0.1,6.8,0,10.2,0.1C152.1,48,154.2,48.1,156.3,48.3z"/>
	<path class="st0" d="M144.6,64.3c0-2.9,0-5.8,0-8.7c0.8,2.9,1.6,5.8,2.4,8.7c0.7,0,1.3,0,2,0c0-4,0-8,0-11.9c-0.6,0-1.1,0-1.7,0
		c0,2.4,0,4.8,0,7.2c-0.7-2.4-1.3-4.8-2-7.2c-0.8,0-1.6,0-2.4,0c0,4,0,8,0,11.9C143.5,64.3,144.1,64.3,144.6,64.3z"/>
	<path class="st0" d="M141.1,64.3c0-0.6,0-1.1,0-1.7c-1.1,0-2.2,0-3.3,0.1c0-1.2,0-2.3,0-3.5c0.9,0,1.7-0.1,2.6-0.1
		c0-0.6,0-1.1,0-1.7c-0.9,0-1.7,0-2.6,0c0-1.1,0-2.2,0-3.3c1.1-0.1,2.2-0.1,3.3-0.1c0-0.6,0-1.1,0-1.7c-1.3,0-2.6,0-3.9,0l-0.1,0
		c-0.4,0-0.8,0-1.2,0c0,4,0,8,0,12c0.6,0,1.1,0,1.7,0C138.8,64.3,140,64.3,141.1,64.3z"/>
	<path class="st0" d="M152.3,54.2c0,3.4,0,6.8,0,10.2c0.6,0,1.3,0,1.9,0.1c0-0.2,0-0.4,0-0.7c0-3.2,0-6.4,0-9.6c0.7,0,1.3,0,2,0.1
		c0-0.6,0-1.2,0-1.7c-2-0.1-3.9-0.2-5.9-0.3c0,0.6,0,1.1,0,1.7C151,54.2,151.6,54.1,152.3,54.2z"/>
	<path class="st0" d="M132.6,64.5c0.2-1.7,0.5-3.3,0.7-5c0.4-2.3,0.7-4.7,1.1-7c-0.6,0-1.2,0-1.7,0.1c0,0.2-0.1,0.5-0.1,0.7
		c-0.5,3.1-0.9,6.1-1.4,9.2c-0.5-3.2-1-6.5-1.4-9.7c-0.6,0-1.3,0.1-1.9,0.1c0.6,3.9,1.2,7.9,1.9,11.8
		C130.7,64.6,131.7,64.6,132.6,64.5z"/>
	<path class="st0" d="M159.9,65.1c0.8,0.1,1.7,0.1,2.4-0.4c0.7-0.5,0.8-1.4,0.8-2.2c0-3.1,0-6.1,0-9.2c-0.4,0-0.8-0.1-1.2-0.1
		c-0.2,0-0.3-0.1-0.5-0.1c0,3.1,0,6.2,0,9.3c0,0.3-0.1,0.7-0.4,0.9c-0.4,0.2-0.8,0.2-1.2,0c-0.4-0.2-0.6-0.7-0.5-1.1
		c0-3.1,0-6.2,0-9.3c-0.6-0.1-1.3-0.1-1.9-0.2c0,3,0,6.1,0,9.1c0,0.7,0.1,1.4,0.4,2C158.3,64.6,159.1,65,159.9,65.1z"/>
	<path class="st0" d="M120.8,59.4c0,0.9,0.1,1.7,0,2.6c0,0.8,0,1.7,0.4,2.4c0.4,0.7,1.1,1,1.9,1c0.9,0,2-0.2,2.7-0.9
		c0.6-0.6,0.8-1.6,0.8-2.4c0-3,0-6.1,0-9.1c-0.6,0.1-1.1,0.1-1.7,0.1c0,3.1,0,6.2,0,9.3c0,0.3,0,0.6-0.2,0.8
		c-0.3,0.4-0.9,0.5-1.4,0.4c-0.5-0.1-0.6-0.7-0.6-1.1c0-3.1,0-6.1,0-9.2c-0.6,0.1-1.2,0.1-1.8,0.2c-0.1,1.1,0,2.3,0,3.4
		C120.8,57.8,120.9,58.6,120.8,59.4z"/>
	<path class="st0" d="M167.3,65.9c0.8,0.1,1.8,0.1,2.5-0.5c0.7-0.8,0.7-1.9,0.6-2.8c-0.2-1.4-1.2-2.5-2.1-3.4
		c-0.6-0.7-1.4-1.5-1.4-2.5c0-0.4,0-1,0.4-1.3c0.4-0.1,0.9-0.1,1.1,0.3c0.3,0.4,0.2,1,0.2,1.4c0.6,0.1,1.2,0.1,1.7,0.2
		c0-0.9-0.1-2-0.7-2.7c-0.6-0.8-1.8-1.1-2.8-1c-0.7,0.1-1.3,0.5-1.6,1.1c-0.4,1-0.4,2.1,0,3.1c0.5,1.2,1.4,2.1,2.3,3
		c0.6,0.6,1.1,1.4,1.1,2.2c0,0.4,0,0.9-0.4,1.1c-0.6,0.1-1.3,0-1.6-0.6c-0.2-0.5-0.1-1-0.1-1.5c-0.6-0.1-1.1-0.1-1.7-0.2
		c0,0.9,0,1.9,0.4,2.7C165.6,65.3,166.4,65.8,167.3,65.9z"/>
	<path class="st0" d="M118.1,65.4c0.7-0.6,0.9-1.7,0.9-2.6c0-3,0-6,0-9c-0.2,0-0.3,0-0.5,0.1c-0.5,0-0.9,0.1-1.4,0.2
		c0,3,0,6.1,0,9.1c0,0.4-0.1,0.8-0.4,1c-0.4,0.3-0.9,0.3-1.4,0.4c0,0.6,0,1.1,0,1.7C116.4,66.1,117.4,66,118.1,65.4z"/>
	<path class="st0" d="M147.7,83.6c0.5-0.4,0.9-0.8,1.4-1.1c0.3-0.1,0.2-0.4,0.2-0.6c0-3.6,0-7.2,0-10.8c-2.3,0-4.6-0.1-6.9-0.1
		c-1.7,0-3.3,0.1-5,0.1c-0.1,3,0,6,0,9.1c0.1,0.8,0,1.6,0,2.3c0.3,0.3,0.7,0.5,1,0.8c0.2,0.1,0.3,0.4,0.5,0.3
		c0.2-0.1,0.3-0.3,0.2-0.5c-0.1-0.6-0.2-1.2,0-1.8c0.3-0.7,1.1-1,1.8-0.8c0.5,0.1,0.9,0.4,1.3,0.8c0.2,0.5,0.2,1,0.4,1.5
		c0.3,0.5,1,0.4,1.4,0c0-0.5,0.1-0.9,0.3-1.4c0.5-0.6,1.3-1,2-0.9c0.5,0.1,1,0.5,1.1,1.1c0.1,0.5,0,1-0.1,1.5
		C147.2,83.3,147.5,83.4,147.7,83.6z"/>
	<path class="st0" d="M124.7,71.8c-1.4,0.1-2.8,0.3-4.2,0.4c-2.3,0.3-4.6,0.5-7,0.8c0,3.7,0,7.4,0,11c0,1.6,0,3.1,0.2,4.7
		c0.2,2.2,0.5,4.4,1.2,6.5c1.3,4.3,3.4,8.4,6.1,12.1c1.3,1.8,2.8,3.5,4.4,5.2c0-13.6,0-27.2,0-40.8C125.2,71.8,125,71.8,124.7,71.8
		L124.7,71.8z"/>
	<path class="st0" d="M161.1,71.8c0,13.6,0,27.3,0,40.9c0.6-0.6,1.2-1.2,1.7-1.9c4.1-4.5,7.1-10,8.8-15.8c0.6-2,0.9-4,1.1-6.1
		c0.2-2.3,0.2-4.6,0.2-6.9c0-3,0-5.9,0-8.9C169,72.5,165.1,72.1,161.1,71.8z"/>
	<path class="st0" d="M149.3,118.7c0-3.6,0-7.2,0-10.8c-1.6,1.6-3.4,2.9-5.4,3.8c-0.2,0.1-0.3,0.2-0.5,0.2c-0.3-0.1-0.6-0.3-0.9-0.4
		c-1.9-1-3.6-2.3-5.1-3.8c0,4.7,0,9.4,0,14.2c0,0.1,0,0.3,0.1,0.4c1.9,1.2,3.9,2.3,5.9,3.3c1.3-0.7,2.6-1.3,3.9-2.1
		c0.7-0.4,1.4-0.8,2-1.2C149.3,121.1,149.2,119.9,149.3,118.7z"/>
	<path class="st0" d="M2.8,2.4v145.3h233.7V2.4H2.8z M234.5,145.8H4.8V4.4h229.7V145.8z"/>
	<path class="st0" d="M232.7,6.4H6.8v137.4h225.9V6.4z M232,143H7.5V7.2H232V143z"/>
</g>
</svg>
