<?xml version="1.0" encoding="utf-8"?>
<!-- Generator: Adobe Illustrator 26.0.3, SVG Export Plug-In . SVG Version: 6.00 Build 0)  -->
<svg version="1.1" id="Слой_28" xmlns="http://www.w3.org/2000/svg" xmlns:xlink="http://www.w3.org/1999/xlink" x="0px"
	 y="0px" viewBox="0 0 239.5 150.2" style="enable-background:new 0 0 239.5 150.2;" xml:space="preserve">
<style type="text/css">
	.st0{fill:#140F13;}
</style>
<g>
	<path class="st0" d="M215.9,53.3c-2.2-2-3.9-4.5-5.3-7.1c-1-1.9-1.8-4-2.3-6.1c-0.3-1.4-0.3-2.8-0.3-4.2c0-2,0-4.1,0.4-6.1
		c0.7-3.1,1.9-6.2,3.8-8.8c0.3-0.4,0.6-0.8,0.9-1.2c0.2-0.4-0.1-0.8-0.3-1.2c-0.8-1.2-1.8-2.4-2.6-3.6c-0.4-0.5-0.9-1.2-1.6-1.1
		c-1,0.1-1.9,0.5-2.9,0.7c-3.2,0.8-6.7,1-10,0.4c-2.7-0.5-5.2-1.7-7.5-3.2c-0.6-0.3-1.1-0.7-1.8-0.9c-0.6,0.2-1,0.6-1.5,0.9
		c-2.3,1.4-4.7,2.4-7.3,3c-2.4,0.7-4.9,0.4-7.3,0.5c-1.9,0.1-3.8-0.5-5.6-1c-1.9-0.6-3.7-1.4-5.4-2.4c-0.6-0.3-1.1-0.7-1.7-1
		c-0.2-0.1-0.4,0.2-0.6,0.2c-1.8,1.2-3.8,2.2-5.8,3c-4,1.6-8.5,1.5-12.6,0.5c-1-0.2-2-0.6-3-0.7c-0.8,0-1.3,0.6-1.7,1.1
		c-0.9,1.2-1.9,2.5-2.7,3.8c-0.3,0.3-0.2,0.8,0.1,1.1c1.4,1.7,2.5,3.6,3.3,5.6c0.5,1.6,1,3.2,1.4,4.9c0.4,1.7,0.3,3.4,0.3,5.1
		c0,1.3,0,2.7-0.3,4c-1,4.4-3.2,8.4-6.1,11.7c-0.8,1-1.9,1.9-2.6,3c0.6,0.9,1.4,1.6,2,2.4c0.6,0.7,1.4,1.3,1.9,2.1
		c0.1,0.5,0,1,0,1.4c0,3,0.2,6.1,0.9,9c0.9,3.8,2.5,7.4,4.5,10.7c2.2,3.7,5.7,6.6,9.5,8.5c3.2,1.7,6.6,2.8,10.2,3.6
		c0.2-0.7,0.2-1.4,0.1-2c0-0.3-0.4-0.3-0.6-0.4c-4.2-1.1-8.4-2.7-12-5.2c-1.7-1.2-3.3-2.7-4.5-4.4c-2.3-3.3-3.9-7-4.9-10.9
		c-0.8-3-0.6-6.1-0.8-9.1c-0.1-0.7,0-1.5-0.1-2.2c-1-1.1-2.1-2.1-3.1-3.2c3.2-3.8,6.1-8,7.5-12.8c0.5-1.9,0.7-3.9,0.7-5.9
		c0-2.4,0-4.9-0.6-7.2c-0.7-2.7-1.7-5.4-3.2-7.8c-0.3-0.5-0.7-0.9-0.9-1.4c0.5-1.1,1.3-2.1,2.2-3.1c3.4,0.9,6.9,1.7,10.4,1.4
		c2.4-0.1,4.8-1,7-1.8c1.5-0.5,2.7-1.7,4.3-2c1.5,0.4,2.8,1.3,4.3,1.9c2.6,1.2,5.4,1.8,8.2,1.9c1.6,0.1,3.2,0.1,4.8,0
		c1.7-0.1,3.3-0.6,4.9-1c2.5-0.7,4.7-1.9,6.9-3c0.9,0.5,1.8,0.9,2.7,1.4c0.9,0.6,1.9,0.9,2.9,1.3c1.4,0.5,2.8,1,4.2,1.2
		c3.9,0.6,7.8-0.2,11.5-1.1c0.5-0.2,0.8,0.4,1.1,0.7c0.5,0.8,1.1,1.5,1.4,2.4c-0.3,0.6-0.8,1.1-1.1,1.7c-1.3,2.3-2.2,4.7-2.9,7.2
		c-0.6,2.2-0.7,4.6-0.7,6.9c0,1.8,0.1,3.6,0.5,5.4c0.7,3,2,5.8,3.7,8.4c1.2,1.9,2.6,3.7,4.1,5.4c-1.1,1.1-2.2,2.1-3.2,3.3
		c-0.2,0.8-0.1,1.7-0.1,2.5c-0.1,3.2-0.1,6.5-1,9.7c-0.9,3-2.1,5.9-3.7,8.5c-1.4,2.3-3.2,4.3-5.3,5.8c-2.6,2-5.7,3.3-8.7,4.3
		c-1.4,0.5-2.9,0.9-4.4,1.2c-0.4,0.1-0.8,0.3-0.8,0.8c0.2,0.5,0.4,1,0.6,1.6c1-0.1,2-0.4,2.9-0.7c4.4-1.2,8.8-3,12.4-5.9
		c2.5-2,4.6-4.6,6.1-7.5c1.3-2.5,2.5-5,3.1-7.7c0.7-2.9,1.2-5.8,1.3-8.7c0-1-0.1-1.9-0.2-2.9c1.4-1.5,2.9-2.9,4.1-4.5v-0.1
		C216.6,54,216.3,53.7,215.9,53.3z"/>
	<path class="st0" d="M194.2,21.1c-2.7-0.7-5.3-1.7-7.7-3c-0.6,0.3-1.1,0.5-1.7,0.8c-2.7,1.3-5.6,2.1-8.5,2.5
		c-2,0.2-4.1,0.1-6.1,0.1c-3,0.1-5.9-0.7-8.7-1.7c-1.3-0.5-2.7-1-3.9-1.7c-2.4,1-4.8,2.2-7.3,2.9c-2.6,0.6-5.3,0.7-8,0.6
		c-1,0-1.9-0.3-2.9-0.3c0.1,0.3,0.1,0.6,0.2,0.8c1,2.4,1.7,4.9,2.2,7.4c0.4,2,0.4,4.1,0.4,6.2c0,1.7,0.1,3.4-0.3,5.1
		c-0.3,1.3-0.7,2.5-1.1,3.7c-0.1,0.5-0.4,1-0.3,1.5c0.8,0.1,1.6,0.1,2.4,0.1c4.1,0.1,8.2,0.1,12.3,0.1c0.9-1.4,1.9-2.9,3.3-3.9
		c0.6-0.5,1.3-0.9,2-1.4c0.1-1.1,0-2.3,0-3.4c3.8-0.2,7.6-0.1,11.4-0.1c0.1-3.8,0.1-7.5,0.2-11.3c0.1-1.3,0.1-2.5,0.1-3.8
		c0.9,0,1.8-0.1,2.8-0.1c0,4.5,0,8.9,0.1,13.4c0,0.6,0,1.2,0.1,1.8c0.2,0.1,0.4,0.1,0.6,0.2c0.9,0.1,1.8,0.1,2.8,0.1
		c0.1-5.2-0.1-10.3,0.2-15.5c0-0.3,0.3-0.4,0.5-0.5c0.9-0.4,1.9-0.7,2.9-0.7c0.2,1.2,0.1,2.4,0.2,3.6c0,4.8,0,9.6,0,14.4
		c0,0.2,0.3,0.4,0.4,0.5c0.3,0.3,0.7,0.7,1.2,0.6c0.2,0,0.5-0.1,0.7,0c0.3,0.4,0.6,1,1,1.3c0.1-0.1,0.2-0.3,0.2-0.5
		c0.1-7.3-0.2-14.7,0.3-22c1.2-0.2,2.2,0.5,3.2,1c0,7.6,0,15.3,0,22.9c0,1.1-0.1,2.4,0.8,3.3c0.8,0.1,1.6,0,2.3,0
		c3.8-0.1,7.6,0,11.3-0.2c0-0.3,0-0.6-0.1-0.9c-0.5-1.7-1.1-3.4-1.4-5.1c-0.4-2.2-0.2-4.5-0.2-6.7c0.2-3.8,1-7.5,2.5-11
		c0.2-0.3,0.3-0.7,0.3-1.1c-1.2,0-2.3,0.3-3.5,0.3C198.8,21.7,196.5,21.8,194.2,21.1z M141.8,26.7c-0.4-1.5-0.8-3-1.6-4.4
		c2.3-0.1,4.7,0.1,7,0c1.3-0.1,2.5-0.4,3.8-0.7c0.3,2.2,0.3,4.4,0.3,6.6c-2.9,0-5.8,0.1-8.7-0.2C141.8,28,141.9,27.1,141.8,26.7z
		 M151.3,45.7c-2.9,0-5.8,0-8.7-0.1c-0.4,0-0.8,0-1.2-0.1c0.2-1.2,0.6-2.4,0.8-3.6c0.3-1.4,0.6-2.8,0.8-4.3c2.8-0.1,5.5-0.1,8.3,0
		C151.3,40.3,151.3,43,151.3,45.7z M171.1,28.2c-3.5,0-7.1,0-10.6,0c0-1.9,0.1-3.9,0.1-5.8c0-0.7,0-1.4,0.3-2c3.3,1,6.8,2,10.3,2
		C171.1,24.3,171.1,26.2,171.1,28.2z M196.1,45.7c-1.2,0-2.4,0-3.5,0c0-6.1,0.1-12.1,0.1-18.2c0.1-2-0.1-4,0.3-6
		c1.1,0.3,2.1,0.5,3.2,0.8C196.1,30,196.1,37.9,196.1,45.7z M201.6,41.2c0.3,1.4,0.8,2.8,1.1,4.3c-0.9,0.4-2,0.1-2.9,0.2
		c0-7.8,0-15.6,0-23.4c1.3,0,2.6-0.1,3.9-0.2C201.3,28.1,200.4,34.8,201.6,41.2z"/>
	<path class="st0" d="M156.7,93.7c-0.3,1-0.9,1.8-1.2,2.7c0.2,0.3,0.7,0.2,0.9,0.6c0.6,0.9,0.4,2,0.5,3c0.1,0.2,0,0.6,0.3,0.7
		c0.3-0.5,0.2-1,0.3-1.6c0.4-3.1,0.5-6.2,1-9.3c0.8,1.3,1.5,2.6,2.2,4c1.4,2.4,2.7,5,4.8,6.9c1.7,1.7,4.2,2.2,6.6,2.2
		c1.2-0.1,2.3-0.4,3.4-0.5c-0.6,0.5-1.4,0.7-2.1,0.8c-1.7,0.3-3.4,0.3-5.1,0c-0.4-0.1-0.8-0.2-1.3-0.2c0.7,0.6,1.5,1,2.2,1.4
		c1.2,0.6,2.4,1.3,3.7,1.5c1,0.2,2.1-0.2,2.9-0.7c2.6-1.5,4.5-3.8,7-5.5c0.2-0.2,0.5-0.3,0.8-0.4c0.1,1.1-0.2,2.1-0.5,3.1
		c-0.8,2.2-1.9,4.4-3.3,6.3c-0.3,0.5-0.8,1-1,1.6c0.9-0.3,1.6-0.9,2.2-1.6c1.4-1.5,2.6-3.2,3.6-5c0.5-0.9,1-1.9,1.6-2.7
		c0.2-0.2,0.3-0.5,0.6-0.5c0.2,0.3,0.1,0.7,0.2,1c0.1-0.2,0.3-0.4,0.3-0.6c0.4-1.5,0.5-3,0.3-4.5c-0.4-1.8-1.4-3.4-1.7-5.2
		c-1.4,2.1-2.7,4.3-4.7,5.9c0.5-1.2,1.5-2.1,1.9-3.3c0.2-1.2,0.7-2.4,1.4-3.3c0.2-0.3,0.7-0.1,0.9-0.5c0.4-0.7,0.6-1.5,0.9-2.2
		c0.8-2.3,1.4-4.6,2-6.9c0.4-1.4,0.7-2.9,0.8-4.4c0-0.5-0.1-1.2-0.7-1.2c-0.5,0.1-1,0.4-1.5,0.6c0.3,0.6,0.7,1.2,0.7,1.9
		c0.1,1.2-0.3,2.3-0.8,3.3c-0.6,1.2-1.6,2.2-2.2,3.4c-0.7,1.3-1.4,2.6-1.7,4c-0.2,0.9-0.6,1.8-1.2,2.6c-0.2,0.3-0.6,0.5-0.7,0.9
		c-0.1,0.9,0.2,1.8,0,2.7c-0.5,0.8-1.5,1.2-2.4,1.4c-1,0.3-1.9,0.6-2.7,1.2c-0.1,0.4,0.6,0.5,0.6,0.9c-0.3,0.6-0.9,1-1.3,1.5
		c-0.5,0.6-0.8,1.3-1.4,1.9c-0.3,0.3-0.9,0.7-1.3,0.4c-0.7-0.4-0.1-1.6-0.9-1.9c-0.9,0-1.6,0.7-2.4,1c-0.4,0-0.9-0.2-1-0.5
		c-0.1-0.5,0.5-0.7,0.8-1c0-0.6-0.5-1-1-1.2c-0.9-0.3-1.9,0.1-2.7,0c-0.6-0.8-1.2-1.5-1.7-2.4c0.5,0.2,1,0.5,1.5,0.7
		c0.9,0.3,1.9,0.3,2.9,0.3c-0.1-0.3-0.2-0.6-0.5-0.7c-0.9-0.8-2-1.3-3.1-1.9c-0.9-0.5-1.8-1.1-2.2-2.1c-0.2-0.4-0.2-0.9-0.5-1.2
		c-0.1,0.5-0.2,0.9-0.3,1.4c-0.7-1.4-1.7-2.7-2.5-4.1c-0.6-1.1-1.3-2.1-1.6-3.3c0.1,0.1,0.3,0.2,0.4,0.2c1,1,1.7,2.5,3,3.2
		c-0.1-0.4-0.3-0.8-0.5-1.1c-1.4-2.8-3.2-5.4-4.2-8.4c-0.1-0.2-0.2-0.4-0.3-0.6c-0.5,0.4-0.9,0.9-1.3,1.4c-1.4-1.4-2.6-3.1-3.3-5
		c-0.4-1.2-0.8-2.7-0.1-3.8c0.2-0.2,0.4,0,0.6,0.1c0.2,0.8-0.3,1.7-0.2,2.5c0.2,0.7,0.7,1.2,1.1,1.7c0.6,0.7,1.1,1.4,1.8,2
		c0-1.7-1.5-2.9-1.9-4.5c0.4-0.6,1.1-0.8,1.5-1.4c-0.4-0.8-1.7-0.4-2.1-1.2c-0.4-1,0.2-2.1-0.2-3.1c-0.1,0.1-0.3,0.2-0.4,0.3
		c-0.1-0.9,0-1.7,0-2.6c0.6,0.6,1.4,1.2,1.8,2c0.4,0.6,0.5,1.4,0.5,2.1c0.3,0,0.6,0,0.9,0c0.6,2.2,0.1,4.6,0.5,6.8
		c0,0.2,0.1,0.4,0.4,0.5c0.2-0.9,0.1-1.8,0.4-2.7c0.5-2,0.5-4.1,0.6-6.1c0.1-1,1.1-1.5,1.4-2.5c0.1-0.3-0.3-0.3-0.5-0.4
		c0.2-0.6,0.5-1.1,0.4-1.7c-0.1-0.6,0.4-1.1,0.8-1.6c0.8-0.9,1.6-1.9,2.4-2.8c0,0.2,0.1,0.4,0.1,0.6c0.5,0,0.9-0.4,1.2-0.7
		c0.2-0.2,0.4-0.5,0.7-0.4c0.4,0.1,0.7,0.3,1.1,0.5c0.9,0.4,1.9,0.6,2.8,1c0.9,0.3,1.7,0.8,2.6,1c-0.1,0.3-0.3,0.5-0.4,0.8
		c0.6-0.2,1.1-0.4,1.7-0.4c0.2,0.2,0,0.8,0.4,0.7c0.7-0.8,1.2-1.9,2.3-2.3c0,0.6-0.3,1.1-0.5,1.6c0.4-0.4,0.8-0.8,1.2-1.1
		c0,0.3-0.1,0.6-0.2,0.9c0.7-0.2,1.3-0.6,1.8-1c0.3-0.2,0.4-0.6,0.8-0.6c0.8-0.1,1.7-0.1,2.6,0.1c0.3,0,0.3,0.3,0.4,0.5
		c2.2,0.3,4.4,0.2,6.6,0.5c0-0.3-0.1-0.7,0.2-1c0.5,1.9,0.5,3.9,0.8,5.9c0.2,1.4,0.5,2.9,1.2,4.2c0.1-0.2,0.1-0.5,0.2-0.7
		c0.2,0.4,0.3,1,0.3,1.5c0.1,1.7,0.3,3.3,0.7,4.9c0.2,0.9,0.4,1.9,0.2,2.9c-0.2,1.4-0.7,2.7-0.8,4.1c0.6,0.1,1.2-0.3,1.5-0.8
		c-0.2-0.4-0.5-0.7-0.3-1.1c0.3-0.6,0.5-1.3,1-1.8c0.1,0.3,0.2,0.6,0.3,0.8c0.3-0.1,0.4-0.6,0.5-0.9c0.8-2.7,1.3-5.6,1.5-8.4
		c0-0.9,0.2-1.9-0.1-2.8c-0.1-0.3-0.3-0.5-0.6-0.7c-0.5-0.2-0.4-0.8-0.3-1.2c0.1-0.1,0.2-0.2,0.3-0.4c0-0.7-0.3-1.4,0.1-2
		c-0.6-0.8-0.6-1.8-0.7-2.7c-0.2-0.9-0.6-1.7-0.8-2.6c0.2,0,0.5,0.1,0.6,0.1c-0.2-0.6-0.5-1.2-0.6-1.8c0.5,0,0.9,0.3,1.4,0.5
		c-0.1-0.8-0.4-1.4-0.5-2.2c0.2,0,0.5,0,0.7,0c0-0.3,0-0.5-0.2-0.8c-0.9-2.1-2.2-4-3.6-5.7c-0.6-1.7-2.3-2.5-3.2-4.1
		c0.1-0.2,0.4-0.4,0.1-0.6c-0.9-0.7-2.2-0.8-2.7-1.9c-0.3,0-0.7,0-0.9-0.2c-0.8-0.7-1.6-1.3-2.6-1.6c-0.7-0.2-1.4-0.1-2.1-0.4
		c-0.4-0.2-0.7-0.4-1.1-0.6c-1,0.3-2.1-0.1-3.1-0.3c-0.3,0.2-0.7,0.3-1.1,0.3c-2.5,0-5-0.2-7.4,0.3c-0.8,0.1-1.3,0.9-2.1,1.1
		c-0.6,0.3-1.3,0.4-1.8,0.8c-0.2,0.3-0.3,0.6-0.6,0.8c-1.2,1-2.6,1.7-3.6,3c-1.4,1.8-2.6,3.8-3.7,5.7c-0.5,1-1.1,1.9-1.3,3
		c0.4-0.1,0.6-0.4,1-0.6c-0.1,0.6-0.4,1.1-0.6,1.6c0.3,0,0.6-0.1,0.8-0.1c-0.1,0.8-0.5,1.5-0.8,2.3c-0.5,1.3-1.1,2.7-1.2,4.2
		c0,0.4-0.4,0.9-0.1,1.3c0.3,0.5,0.2,1.1,0.5,1.6c0.3,0.8,0.7,1.6,0.6,2.5c-0.5-0.5-0.9-1.4-1.7-1.3c-0.5,0.4-0.5,1.1-0.6,1.7
		c0,1.8,0.1,3.6-0.2,5.4c-0.2,2,0.5,3.9,1.1,5.7c0.3,1,1.2,1.8,1.9,2.5c0.5,0.4,1,0.8,1.7,0.8c0.2-0.2,0.4-0.3,0.7-0.5
		c0.2,0.7,0.4,1.4,0.5,2.1c0.5,2.7,0.9,5.5,0.8,8.3C157,91.4,157,92.6,156.7,93.7z M193.2,68.5c-0.1,0.7-0.6,1.4-0.6,2.1
		c-0.1,0.8,0.1,1.7-0.3,2.5l-0.2,0.1c-0.2-0.4-0.2-0.9-0.2-1.3c-0.5-0.2-0.9,0.7-1.4,0.7c-0.1-0.8,0.5-1.4,0.9-2.1
		C191.9,69.8,192.4,69,193.2,68.5z M188.1,59.7c0.2,0,0.4,0,0.6,0.1c0.1-0.6,0.2-1.3,0.8-1.6c0.1,0.1,0.2,0.3,0.4,0.4
		c0.1,0,0.3,0,0.4,0c0-0.4-0.1-0.8,0-1.3c0.6,0.3,1.1,0.9,1.2,1.6c0.1,0.9,0.1,1.8,0.2,2.7c-0.4-0.4-0.8-0.7-1.2-1
		c-0.1,1,0.3,2.1,0.3,3.1c-0.5-0.3-0.9-0.8-1.4-1.2c0,1-0.1,1.9-0.1,2.9c-0.4-0.4-0.6-0.9-0.8-1.4c-0.3-1.1-0.5-2.2-0.5-3.4
		C187.9,60.3,188,60,188.1,59.7z M182.3,57.8c-0.3-0.2-0.1-0.7-0.3-1c-0.4-0.8-1-1.5-1.3-2.3c0.3,0.1,0.5,0.3,0.7,0.5
		c0.9,0.9,1.8,1.9,2.5,2.9c0.2,0.2,0.2,0.4,0.3,0.7C183.5,58.7,182.8,58.2,182.3,57.8z M153.8,56.6c0.2-0.5,0.4-1.1,0.9-1.5
		c0.5-0.4,0.8-0.9,1.2-1.4c0.1,0.2,0.2,0.3,0.3,0.5c0.4-0.2,0.6-0.6,0.9-0.8c0.3-0.3,0.7-0.7,0.6-1.2c-0.4,0-0.8-0.1-1.2-0.1
		c0.4-0.6,1-1,1.4-1.7c-0.2,0-0.5,0-0.6,0c0.5-1.1,1.5-1.9,2-3c-0.8,0.1-1.5,0.6-2.3,0.8c-0.1-0.2,0.2-0.7-0.1-0.7
		c-0.3,0.2-0.5,0.4-0.7,0.6c0.1-0.9,0.8-1.6,1.5-2.1c0.3-0.2,0.6-0.3,0.9-0.4c-0.1,0.3-0.2,0.6-0.3,0.9c1.1-0.4,2.3-0.4,3.2-1
		c0.1-0.4-0.5-0.4-0.7-0.5c1.1-0.9,2.6-1.1,3.9-1.7c-0.2-0.2-0.4-0.4-0.6-0.5c0.9-0.4,1.9-0.1,2.8-0.4c-0.7-0.7-1.8-0.8-2.5-1.5
		c1.2-0.1,2.3,0.1,3.5,0c-0.3-0.4-0.7-0.7-1.1-1.1c0.2,0,0.5,0,0.7,0c-0.2-0.2-0.4-0.4-0.6-0.6c1.2,0,2.2,0.5,3.2,1.1
		c-0.3,0.1-0.5,0.2-0.8,0.3c0.3,0.5,0.8,0.9,1.1,1.3c-0.8,0-1.6,0-2.3,0.1c0.4,0.7,0.9,1.2,1.3,1.8c-0.6-0.1-1.3-0.2-1.9-0.2
		c-0.3-0.1-0.5,0.3-0.8,0.4c-0.3,0.1-0.6,0.3-0.8,0.5c1,0.5,2.1,0.9,3.2,1.2c0-0.2-0.1-0.5-0.1-0.6c1,0.3,1.9,1,2.9,1.4
		c0.3,0.1,0.5-0.2,0.8-0.1c0.9,0.3,1.6,0.9,2.5,1.1c-0.6-1.2-1.7-2.1-2.4-3.2c1,0.3,1.8,0.9,2.7,1.3c0.8,0.5,1.6,1.2,2.4,1.6
		c-0.3-0.7-0.9-1.2-1.1-1.9c0.4,0.1,0.7,0.2,1,0.3c-0.5-1.5-2-2.4-2.9-3.6c0.8,0.1,1.6,0.4,2.5,0.5c-0.3-0.6-0.9-0.9-1.3-1.4
		c0.4,0.1,0.8,0.2,1.2,0.2c-0.4-0.3-0.7-0.6-1-1c0.9,0,1.7,0.4,2.6,0.5c-0.2-0.2-0.4-0.4-0.5-0.6c0.1-0.2,0.4,0,0.6,0
		c1,0.1,2,0.6,2.9,1.1c-0.3,0.1-0.7,0-1,0.3c0.3,0.6,0.7,1.2,0.9,1.8c-0.9-0.4-1.6-1.3-2.6-1.4c-0.1,0.3,0.2,0.5,0.4,0.7
		c0.8,0.9,1.8,1.8,2.7,2.7c0.3,0.3,0.6,0.5,0.9,0.7c0.3-0.1,0.2-0.4,0.4-0.6c0.6,0.7,1.4,1.2,2.2,1.7c-0.1-0.6-0.2-1.1-0.2-1.7
		c0.4,0.3,0.8,0.6,1.3,0.6c0.6,0.4,0.9,1.3,0.8,2.1c-0.3-0.1-0.5-0.1-0.8-0.2c0.1,0.3,0.1,0.6,0.2,0.9c-0.3-0.1-0.6-0.3-1-0.5
		c-0.7-0.5-1.5-0.7-2.2-1.2c-1.2-0.7-2.2-1.6-3.4-2.1c-0.4,0.1-0.8,0.1-1.2,0.1c0.2,0.8,0.8,1.5,0.7,2.3c-0.3,0-0.5,0-0.8,0
		c0.7,1.3,1.7,2.4,2.8,3.3c0.1-0.8-0.4-1.5-0.5-2.3c0.3,0.2,0.5,0.6,0.6,0.9c0.5,0.9,1,1.9,1.6,2.7c0.2,0.3,0.4,0.6,0.7,0.7
		c-0.5-2-1.5-3.8-2.3-5.7c0.6,0.1,0.9,0.7,1.3,1.1c0.9,1.1,1.7,2.3,2.8,3.3c0.3,0.3,0.5,0.5,0.7,0.9c-0.7-0.2-1.2-0.6-1.8-0.9
		c0.6,1.2,1.6,2,2,3.3c-0.6-0.2-1-0.6-1.6-0.8c0.3,1.3,1.1,2.4,1.3,3.6c-0.4,0.2-0.6,0.6-0.6,1c-1.2-1.2-1.9-2.7-2.6-4.2
		c0.4,0.4,0.8,0.8,1.3,1c-0.1-0.8-0.7-1.3-1.1-1.9c-1.2-1.4-2.6-2.8-4.2-3.9c-0.4-0.3-0.9-0.5-1.3-0.7c0.1,0.7,1,1.1,1.2,1.8
		c-1.5-0.4-2.8-1.4-4.4-1.7c0.4,0.8,1.1,1.3,1.7,1.9c0.7,0.7,1.6,1.1,2.1,1.9c0.6,0.7,1.3,1.5,1.6,2.4c-0.4-0.1-0.7-0.2-1.1-0.3
		c0.2,0.5,0.5,1,0.7,1.5c-0.6-0.1-1-0.8-1.4-1.2c-1.5-2.1-3.1-4.3-5.1-5.9c-0.7-0.6-1.6-1.1-2.5-1.2c0,0.4,0.3,0.8,0.5,1.1
		c0.4,0.5,0.8,1,1.3,1.3c0-0.1,0.1-0.4,0.1-0.6c0.4,0.2,0.5,0.7,0.7,1.1c0.5,0.9,1.4,1.5,2.1,2.3c0.8,0.8,1.3,1.8,1.9,2.7
		c0.4,0.6,0.9,1.2,1.2,1.8c-0.7,0.2-1.5,0-2.1-0.4c-0.5-0.3-1-0.7-1.2-1.2c0.4,0.1,0.8,0.3,1.2,0.4c-0.2-0.6-0.6-1.2-1-1.7
		c-1.9-2.3-3.9-4.5-6.1-6.5c-0.4-0.4-0.8-0.8-1.2-1.2c-0.2-0.2,0.1-0.6-0.2-0.7c-1.1-0.4-2.3-0.7-3.4-0.9c-0.3,0-0.8-0.1-0.8,0.3
		c0.2,0.2,0.4,0.3,0.7,0.5c-0.5,0.3-1,0.3-1.6,0.4c0,0.1,0,0.2,0,0.3c0.2,0.1,0.4,0.2,0.6,0.3c-0.9,0.2-1.9,0.3-2.6,1
		c1,0.5,2.1,0.1,3.1,0.3c0.8,0.1,1.5,0.6,2.3,0.9c0.9,0.3,1.7,0.6,2.6,0.6c0-0.3-0.2-0.5-0.3-0.8c0.9,0.5,1.7,1.1,2.5,1.8
		c0.5,0.4,1,0.7,1.4,1.2c0,0.3-0.4,0.2-0.6,0.2c-1.4-0.2-2.5-1.1-3.8-1.5c0.3,1,1.7,1.2,1.9,2.2c0.5,1.1,1.8,1.7,2.3,2.8
		c-0.6-0.3-1.1-0.7-1.6-1.1c0.2,0.4,0.4,0.7,0.6,1.1c-1.4-1.2-2.5-2.8-4.1-3.8c-0.8-0.6-1.9-0.9-2.6-1.8c0.1,0,0.4-0.1,0.5-0.1
		c0.1-0.2-0.1-0.3-0.3-0.4c-0.7-0.5-1.5-0.5-2.3-0.6c-0.9-0.1-1.7,0.1-2.5,0.4c0.2,0.2,0.6,0.3,0.8,0.6c-0.5,0.2-1,0.4-1.4,0.6
		c-0.2,0.1-0.2,0.4,0.1,0.4c0.8,0.2,1.6,0,2.3,0.4c-0.5,0.7-1.4,1.1-1.8,1.8c0.9,0.1,1.8-0.1,2.5-0.5c0.6-0.1,1.3,0.1,1.9,0.1
		c-0.1-0.2-0.3-0.4-0.4-0.6c1.4,0.1,2.7,0.6,3.8,1.3c0.4,0.3-0.3,0.3-0.5,0.4c0.3,0.3,0.7,0.6,1,0.9c-1-0.1-1.9-0.6-2.9-0.6
		c0.6,1,1.7,1.6,2.3,2.6c-0.5-0.1-1-0.4-1.6-0.6c0.2,0.7,0.9,1,1.4,1.5c-0.5,0-1,0-1.4-0.2c-1-0.5-1.8-1.3-2.5-2.1
		c0.1-0.1,0.3-0.2,0.4-0.2c-0.4-0.5-1-0.7-1.6-0.8c-1-0.2-2.1-0.4-3.1,0c0.4,0.5,1.2,0.3,1.7,0.8c-0.4,0.5-1.3,0.5-1.5,1.2
		c0.5,0,1,0.1,1.4,0.4c-0.1,0.3-0.4,0.4-0.7,0.6c-0.3,0.8-0.7,1.6-1.5,2c0-0.4,0-0.7,0-1.1c-0.5,0.1-0.9,0.3-1.4,0.4
		c0.2-0.4,0.3-0.8,0.5-1.2c-0.1,0-0.4,0-0.6,0c0.1-0.4,0.4-0.8,0.7-1.1c-0.1-0.3-0.6-0.1-0.8-0.4c-0.1-0.2-0.1-0.5-0.2-0.7
		c-0.6,0.6-0.7,1.7-1.6,2c-0.7,0.6-0.7,1.5-0.8,2.3c-0.2-0.3-0.4-0.6-0.8-0.7c0,0.4,0,0.9-0.4,1.1C152.9,58.9,153.4,57.7,153.8,56.6
		z"/>
	<path class="st0" d="M137.5,65.7c0.5,3.3,1.5,6.6,3.2,9.5c1.1,1.9,2.4,3.8,4,5.3c1.4,1.4,3.1,2.2,4.9,3.1c2.1,1,4.2,1.8,6.4,2.3
		c0.1-0.9-0.1-1.8-0.3-2.7c-0.1-0.6-0.2-1.2-0.5-1.8c-0.5-0.2-1.2,0-1.6-0.4c-1.4-1.1-2.8-2.4-3.2-4.2c-0.5-1.8-1.3-3.7-0.9-5.6
		c0.3-1.9,0.2-3.8,0.3-5.7c0.1-0.5,0.1-1.1,0.6-1.5c0.3-0.2,0.6-0.3,0.9-0.4c0-0.9-0.5-1.6-0.5-2.5c0.3-1,0.4-2,0.5-3.1
		c-4.6,0.1-9.2,0-13.7,0C136.8,60.6,137.1,63.2,137.5,65.7z M137.8,60.6c0-0.6,0.2-1.2,0.3-1.7c2.5,0,5,0,7.5,0
		c0,7.2,0.1,14.5-0.1,21.7c-0.8-0.8-1.5-1.6-2.3-2.4c-2-2.5-3.4-5.5-4.3-8.5C138.1,66.7,137.7,63.6,137.8,60.6z"/>
	<path class="st0" d="M189.4,82.8c-0.4,0-0.5,0.5-0.6,0.8c-0.2,0.8-0.5,1.6-0.6,2.4c1-0.2,2-0.7,3-1c1.4-0.5,2.8-1.1,4.2-1.8
		c2.5-1.3,4.8-3.1,6.4-5.4c1.7-2.4,2.9-5.1,3.8-7.8c1.1-3.5,1.4-7.2,1-10.9c0-0.3-0.2-0.6-0.3-0.9c-1.5,0.1-3,0-4.5,0
		c-2.9,0-5.8,0.1-8.7,0.1c0.1,1.1,0.2,2.2,0.5,3.3c0.1,0.5,0.5,0.8,0.6,1.2c-0.1,0.4-0.4,0.8-0.3,1.3c0.1,0.5,0,1-0.2,1.5
		c0.1,0.6,1,0.9,0.9,1.6c0,3.2-0.4,6.3-1.1,9.4c-0.3,1.1-0.5,2.2-1.1,3.1c-0.3,0.5-0.9,0.1-1.3,0.5c0.2,0.4,0.5,0.7,0.4,1.2
		C191.2,82.2,190.3,82.8,189.4,82.8z M197.8,58.9c2.7,0,5.4,0,8.1,0c0.3,1.2,0.2,2.4,0.2,3.6c-0.1,3.1-0.7,6.2-1.8,9.1
		c-1.1,2.8-2.6,5.6-4.7,7.8c-0.5,0.5-1,1.1-1.7,1.4c-0.2-0.8-0.2-1.6-0.2-2.4C197.7,71.9,197.8,65.4,197.8,58.9z"/>
	<path class="st0" d="M187.6,70c-0.6-1.8-0.9-3.7-1.3-5.6c-0.3-1.1-0.5-2.2-1.2-3.1c-0.3,0.7-0.2,1.4-0.2,2.1
		c-0.1,1.8,0,3.7-0.3,5.5c-0.1,0.9-0.6,1.8-0.8,2.7c0.7,0,1.4,0.1,2.1,0.3c0.8,0.2,1.6,0.7,2.5,0.8C188.2,71.9,187.8,71,187.6,70z"
		/>
	<path class="st0" d="M158.2,65.8c-0.3,1.6-0.4,3.3-0.6,4.9c0,0.4-0.1,0.9,0.1,1.3c0.5-0.4,1-0.8,1.4-1.4c0-1.3,0-2.6-0.1-4
		c0-0.7-0.1-1.4-0.3-2C158.3,64.9,158.3,65.4,158.2,65.8z"/>
	<path class="st0" d="M165.6,75.8c0.3,0,0.7-0.1,1-0.2c0.3-0.4,0.5-0.8,0.8-1.2c0.7,0,1.1,0.5,1.6,0.9c-0.3,0.2-0.6,0.3-0.8,0.5
		c0.5,0,1,0.1,1.4-0.2c-0.2-0.4-0.5-0.8-0.7-1.2c0.9,0,1.2,0.9,2,1.3c0.1-0.7,0-1.5-0.6-1.9c-0.4-0.4-1-0.4-1.5-0.6
		c-0.5-0.2-0.8-0.7-1.3-0.9c-0.9-0.5-1.9-0.5-2.9-0.8c-1.3-0.5-2.8-0.4-4.1,0c-0.5,0.1-0.9,0.4-1.2,0.7c0.7,0.8,1.9,0.7,2.9,0.6
		c0.7-0.1,1.5,0.1,2.1,0.5c-0.9,0.3-1.9,0.5-2.7,1c0.2,0,0.4,0.1,0.6,0.2c0.3,0.2,0.4,0.8,0.8,0.6c0.7-0.3,1.5-0.9,2.2-0.4
		c-0.1,0.2-0.3,0.4-0.4,0.6C164.9,75.5,165.2,75.8,165.6,75.8z"/>
	<path class="st0" d="M187,74.8c0.2-0.1,0.5-0.1,0.7-0.3c0.1-0.2-0.1-0.4-0.2-0.6c-0.6-0.7-1.6-1.1-2.5-1.1
		c-0.6-0.1-0.9,0.7-1.5,0.5c-1.7-0.3-3.2,0.5-4.8,0.9c-0.5,0.2-1.1,0.1-1.4,0.6c-0.1,0.3-0.4,0.4-0.7,0.4c-0.6-0.4-1.4-0.6-2.1-0.6
		c-0.2,0-0.5,0-0.5,0.2c0.2,0.4,0.4,0.7,0.5,1.1c0.2,1.8,0.1,3.5,0.2,5.3c0.1,0.9,0,1.8,0.3,2.6c0.2,0.5,0.6,1,0.6,1.6
		c0,0.5-0.1,1-0.1,1.5c0.8-0.1,0.7-1,0.9-1.5c0.8-0.1,1.3,1,1,1.7c-0.6,0.7-1.4,1.1-2.1,1.6c-0.7,0.4-1.5,0.9-2.2,1.2
		c-0.2,0.1-0.5,0-0.7-0.1c-1.7-1-3.2-2.2-4.5-3.6c0,0.2,0,0.4,0.1,0.6c0.5,0.8,1.4,1.3,1.9,2.1c-0.4,0.2-1,0.2-1.4,0.5
		c0,0.2-0.1,0.4-0.1,0.6c-0.6-0.1-1.4-0.1-1.7,0.6c0.3,0,0.6,0,0.8,0c0.6,0.4,1.3,0.6,2,0.6c0.7,0.1,1.5,0.1,1.9-0.5
		c0,0.5,0,1.1,0.2,1.6c0,0.2,0.3,0.1,0.4-0.1c0.2-0.4,0.1-0.9,0.2-1.4c0.3,0.1,0.5,0.2,0.8,0.4c0.2-0.4,0.5-0.9,1-1
		c0.2,0.4,0,1,0.4,1.3c0.9,0.1,1.8,0.1,2.7-0.1c0.7-0.3,1.5,0.2,2.3,0.2c-0.6-0.8-1.3-1.5-2.1-2c0.5-0.6,1.2-1,1.5-1.7
		c-0.4-1.7-1.8-3.1-1.7-4.9c-0.1,0-0.4,0-0.5,0c-0.4-1-0.3-2-0.2-3c0.1,0,0.2,0,0.3-0.1c0.2,0.2,0.4,0.3,0.7,0.5
		c-0.1-1-0.4-1.9-0.4-2.9c0-0.5,0.5-0.6,0.9-0.8c-0.1-1,1.1-1.2,1.8-1c-0.1,0.3-0.7,0.8-0.2,1c0.5,0.2,1.2,0.2,1.7-0.2
		c0.4-0.3,0.7-0.8,1.2-0.8c0.5,0,1,0.6,0.7,1.1c-0.4,0.4-0.8,0.7-1.3,0.9c-0.4,0.2-0.9,0.1-1.1,0.4c0.9,0.5,1.9,0.1,2.7-0.4
		c0.6-0.4,1.2-0.9,1.3-1.6c0.1-0.4-0.6-0.5-0.5-0.9C185.2,74.9,186.1,75,187,74.8z"/>
	<path class="st0" d="M165.2,77.7c1.1,0.3,2.3-0.1,3.2-0.7c-0.6,0.1-1.2,0.2-1.8,0.2c-0.6,0-1.3,0-1.9,0.2
		C164.7,77.6,165.1,77.6,165.2,77.7z"/>
	<path class="st0" d="M168.1,78.6c0.4-0.1,0.7-0.3,1.1-0.6c0.2-0.1,0.4-0.3,0.4-0.6C168.8,77.2,168.2,78,168.1,78.6z"/>
	<path class="st0" d="M171.2,84.4c-0.3,0.8-0.4,1.7-0.2,2.5c0,0,0.1,0,0.1,0C171.3,86.1,171.3,85.2,171.2,84.4z"/>
	<path class="st0" d="M167.3,86.1c-0.6,0.2-1.1,0.8-1.2,1.4C166.7,87.3,167.1,86.7,167.3,86.1z"/>
	<path class="st0" d="M174,89.1c0.4-0.2,1-0.5,1.1-1C174.6,88.3,174.3,88.7,174,89.1z"/>
	<path class="st0" d="M178.3,93.6c0.1-0.4,0.1-0.8-0.3-1c-0.3-0.3-0.7,0.1-1.1,0.1c-1.3,0.3-2.7,0.2-4,0.7c-0.3,0.1-0.6,0.3-0.9,0.1
		c-1.5-0.8-3.4-0.5-4.9-1.3c-0.2-0.1-0.3-0.3-0.4-0.5c-0.6,0.2-0.8,0.8-0.9,1.3c0.6,0.1,1.1-0.4,1.7-0.1c1.6,0.8,3.5,1.2,5.3,1.3
		c1.1,0.1,2.2-0.1,3.3,0.1c0.1,0.9-0.8,1.6-1.6,1.6c-1.2,0.1-2.4,0.1-3.5-0.1c-0.7-0.1-1.4-0.5-2.1-0.6c0.2,0.4,0.6,0.7,0.9,0.9
		c0.9,0.6,2,1.2,3.1,1.2c1.5-0.1,2.9-1,3.9-2.1c0.3-0.4,0.6-0.7,0.7-1.2c-0.2-0.1-0.6-0.1-0.4-0.4C177.4,93.6,177.9,93.6,178.3,93.6
		z"/>
	<path class="st0" d="M153.5,95.7c-1,0.9-2.3,1.2-3.4,1.9c-2.6,1.5-5.1,3.1-7.7,4.5c-0.8,0.5-1.7,0.9-2.3,1.5
		c-0.3,0.3-0.3,0.8-0.1,1.1c0.8-0.1,1.5-0.6,2.2-1c2-1.3,3.8-2.8,5.8-4.2c0.7-0.5,1.4-1,2.2-1.3c0.3,0.5-0.2,0.9-0.6,1.2
		c-2.3,2.1-4.9,3.9-7.6,5.6c-0.5,0.3-1,0.6-1.4,1c-0.3,0.4-0.2,1,0,1.4c0.6-0.1,1.1-0.4,1.5-0.7c1.7-1.2,3.4-2.5,5.1-3.9
		c0.9-0.7,1.7-1.5,2.7-2c0.3-0.2,0.8-0.4,1,0c1.7,2.5,3.1,5.2,4.9,7.6c1.7,2.4,3.8,4.5,6.1,6.2c2.3,1.8,4.7,3.3,7.1,4.9
		c1,0.6,2,1.4,3.1,1.8c1,0.4,1.9-0.2,2.7-0.6c2.6-1.6,5-3.5,7.4-5.4c2.3-1.9,4.2-4.2,6-6.4c1.9-2.5,3.1-5.4,4.2-8.2
		c0.3-0.6,0.5-1.2,1.1-1.5c0.2-0.2,0.5-0.1,0.7,0c1.8,0.7,3.5,1.7,5.3,2.4c1.6,0.7,3.3,1.4,5,2c0.5,0.2,0.6-0.4,0.7-0.8
		c0-0.5-0.4-0.8-0.8-1c-2.5-1-5.1-1.7-7.5-2.9c-0.2-0.1-0.4-0.2-0.5-0.4c0.7,0,1.3,0.2,2,0.4c1.8,0.6,3.7,1.1,5.5,1.6
		c0.6,0.1,1.2,0.4,1.8,0.1c-0.5-0.6-1.3-0.7-2.1-1c-2.1-0.7-4.3-1.1-6.4-1.7c-1.5-0.4-3.1-0.9-4.2-2c-0.7-0.7-1.6-1-2.5-1.4
		c-0.7-0.3-1.1-0.9-1.7-1.3c-0.5-0.3-1-0.2-1.5-0.2c0.4,1.1,1.2,2.1,1.4,3.2c0.1,1.2,0,2.3-0.1,3.5c-0.1,1.2-0.7,2.2-1.3,3.2
		c-1.7,3-4,5.7-6.7,7.9c-2.4,1.9-4.8,3.9-7.5,5.5c-0.2,0.1-0.3,0.1-0.5,0c-2.4-1.5-4.8-2.8-7.1-4.3c-1.7-1.2-3.3-2.7-4.8-4.1
		c-2.1-2-3.9-4.3-5.1-7c-0.5-1.2-1.2-2.4-1-3.8c0.1-0.9,0.9-1.5,1.1-2.4C154.7,94.6,154.1,95.3,153.5,95.7z"/>
	<path class="st0" d="M202.9,115c-1.2-0.8-2.6-1.2-3.8-1.9c0-0.1-0.1-0.2-0.1-0.2c0.9-0.2,1.7,0.2,2.6,0.5c0.6,0.2,1.3,0.7,2,0.4
		c0.3-0.5,0.4-1.1,0.1-1.6c-0.9-0.7-2.2-0.7-3.1-1.4c1.1-0.3,2.2,0,3.3-0.3c0.3-0.6,0.4-1.2,0.4-1.9c0.1-1.1,0.3-2.2,0.2-3.4
		c0-0.4-0.3-0.8-0.7-1c-0.8-0.4-1.7-0.6-2.5-1c-2.5-0.9-4.9-2-7.4-2.8c-1.2,1.1-1.3,2.9-1.4,4.4c-0.3,5.1-0.3,10.2-0.6,15.4
		c0,0.7-0.1,1.4,0.1,2c1.8-0.6,3.4-1.6,4.9-2.6c0.2-0.2,0.7-0.4,0.5-0.7c-0.5-0.8-1.1-1.5-1.6-2.4c-0.1-0.2,0.2-0.2,0.3-0.2
		c1.5,0.3,2.9,1.3,4.4,1.4c0.9-0.3,1.6-1.1,2.3-1.8C203.2,115.7,203.3,115.2,202.9,115z"/>
	<path class="st0" d="M143.9,119c-0.1,0.4-0.2,0.9,0.2,1.2c0.8,0.5,1.8,0.8,2.6,1.2c2.1,0.8,4.2,1.5,6.4,2.1
		c0.4,0.1,0.9,0.2,1.3,0.2c0.1-0.7-0.2-1.4-0.5-2c-0.5-0.6-1.3-0.7-1.9-1.2c0.4-0.6,1-1.1,1.3-1.8c0.3-0.8,0.1-1.7-0.1-2.5
		c-1.1,0.8-2,2-3.3,2.5c0.8-1.4,2-2.6,2.8-4c0.2-0.3,0.2-0.6,0.1-0.9c-0.2-2.8-0.7-5.6-1-8.4c0-0.3-0.2-0.6-0.4-0.9
		c-0.8,0.9-0.8,2.2-1.3,3.3c-0.5-1.6-0.1-3.2-0.5-4.8c-0.1,0-0.2,0-0.3,0c-0.6,1.5-1.1,3-1.8,4.5c-0.3,0.5-0.4,1.2-0.9,1.6
		c0-1.3,0.6-2.6,0.6-3.9c-0.7,0.7-1.2,1.6-2,2.3c0,0-0.1-0.1-0.1-0.1c0.4-0.9,0.9-1.7,1.2-2.6c-0.6,0.3-1.2,0.8-1.8,1.2
		c-1.1,0.8-2.3,1.6-3.3,2.6c-0.4,0.3-0.3,0.8-0.2,1.3c0.3,1.8,0.6,3.5,0.9,5.3c0.2,0.9,0.3,1.9,0.6,2.8c0,0,0.1,0,0.2,0.1
		c0.5-0.7,0.1-1.7,0.7-2.3c0.5-0.5,1.1-1.1,1.9-1.3c0,0.2,0,0.5-0.1,0.7C144.8,116.3,144.2,117.6,143.9,119z"/>
	<path class="st0" d="M173.1,113.2c0.8-0.9,1.4-1.9,2-2.9c0.9-1.4,1.8-2.9,2.4-4.5c-2,0.9-3.5,2.7-5.6,3.4c-1.7,0.4-3.3-0.4-4.9-0.6
		c0.2,1.3,0.9,2.4,1.5,3.5c0.4,0.7,0.9,1.5,1.6,1.9c0.1,0,0.2-0.1,0.2-0.1c0.1-0.5,0-1.1,0-1.6C171.4,112.2,172.1,113.1,173.1,113.2
		z"/>
	<path class="st0" d="M167.3,123.5c0.3,0.6,0.9,1,1.4,1.5c0.6-0.3,1.1-0.7,1.7-1.1c0.5-0.1,1,0,1.6-0.1c2.4,0,4.9,0,7.3,0
		c0-1.7,0.2-3.4,0-5.1c-1.8,1.3-3.4,2.8-5.5,3.6c-0.5,0.2-1,0.1-1.5-0.1c-1.2-0.4-2.4-1-3.5-1.7c-0.6-0.3-1.1-0.7-1.8-0.9
		c0.4,0.8,1,1.5,1.3,2.3c-0.5-0.1-0.9-0.4-1.4-0.6C167,122.1,167,122.8,167.3,123.5z"/>
	<path class="st0" d="M200.8,124.5c-0.8,0-1.7-0.1-2.6,0.1c-0.9,0.2-0.9,1.2-1.2,1.9c-0.3,0.7,0.5,1.1,0.9,1.6
		c-0.8,2.8-1.5,5.6-2.3,8.3c-0.1,0.4-0.3,0.9-0.1,1.3c0.3,0.5,0.7,0.9,1.2,1.2c0.7,0,1.5,0,2.2,0c0.3-0.2,0.4-0.6,0.5-0.9
		c1.1-3.8,2-7.6,3.1-11.4c0.1-0.3,0.1-0.6-0.1-0.9C202.1,125.2,201.6,124.5,200.8,124.5z M200.6,126.6c-0.9,3.3-1.7,6.6-2.7,9.9
		c-0.1,0.4-0.5,1-1,0.8c-0.3,0-0.1-0.4-0.1-0.5c0.7-2.7,1.5-5.4,2.2-8.1c0.1-0.6,0.4-1.2,0.1-1.7c-0.3-0.2-0.8-0.4-0.6-0.9
		c0-0.3,0.3-0.3,0.6-0.4c0.6-0.1,1.2-0.1,1.8-0.1C200.8,126,200.7,126.3,200.6,126.6z"/>
	<path class="st0" d="M144,124.6c-1-0.1-2-0.1-3,0.1c-1.8,1.9-3.1,4.1-4.6,6.2c-0.5-1.3-0.5-2.6-0.8-3.9c-0.1-0.9-0.7-1.6-1.3-2.1
		c-0.5-0.4-1.1-0.3-1.7-0.3c-0.6,0-1.3-0.1-1.9,0.2c-0.4,0.4-0.5,1-0.7,1.4c-1.2,3.8-2.1,7.7-3.2,11.6c0.6,0.6,1.2,1.4,2.1,1.4
		c0.6,0,1.4,0.1,1.8-0.4c0.9-1.9,1-4.1,1.7-6c0.2,1.4,0.3,2.8,0.5,4.3c0.1,1.1,1.1,1.8,2.1,2.2h0.3c0.4-0.2,0.7-0.5,1-0.8
		c1.1-1.4,1.9-3,3-4.4c-0.2,1.2-0.6,2.3-0.7,3.4c-0.1,0.6,0.4,1,0.8,1.3c0.5,0.4,1.2,0.4,1.8,0.4c0.4,0,0.8-0.1,1-0.5
		c0.3-0.5,0.4-1.1,0.6-1.6c1.1-3.7,1.9-7.4,3-11C145.3,125.5,144.8,124.7,144,124.6z M141,136.1c-0.1,0.4-0.2,0.7-0.3,1
		c-0.3,0.1-0.6,0.1-0.8,0c0-0.3,0-0.7,0.1-1c0.6-2.1,1.1-4.1,1.6-6.2c0.2-0.8,0.4-1.6,0.4-2.4c-0.3,0-0.6-0.2-0.8,0.1
		c-1.3,1.7-2.5,3.5-3.7,5.3c-1,1.4-1.9,2.9-3,4.2c0,0-0.1,0-0.2,0c-0.3-0.9-0.4-1.9-0.6-2.9c-0.3-2.3-0.5-4.6-1-6.8
		c-0.3,0-0.6-0.1-0.8,0.2c-0.4,0.6-0.5,1.3-0.7,2c-0.7,2.3-1.2,4.7-2,7c-0.1,0.5-0.7,0.5-1.1,0.6c1.1-3.9,2.1-7.8,3.2-11.7
		c0.7,0,1.4,0,2,0.1c0.3,0,0.6,0.2,0.6,0.5c0.1,1.6,0.4,3.2,0.6,4.8c0.2,1.1,0.3,2.3,0.6,3.4c0.2-0.1,0.4-0.2,0.5-0.4
		c0.8-0.9,1.4-1.9,2-2.9c1.2-1.8,2.6-3.6,3.9-5.4c0.7,0,1.4-0.1,2.2,0C142.9,129.2,141.9,132.6,141,136.1z"/>
	<path class="st0" d="M175.2,132.2c-0.9-1.2-1.8-2.4-2.7-3.6c1.7,0,3.3-0.1,5-0.1c0.6-0.1,1.5-0.1,1.9-0.7c0.2-0.5,0.4-1.1,0.4-1.7
		c-0.2-0.7-0.9-1-1.3-1.5c-2,0-4.1,0-6.1,0c-0.8,0.1-1.7,0.1-2.4,0.5c-0.6,0.4-1,0.9-1.4,1.4c-0.3-0.8-0.8-1.4-1.4-1.9
		c-1.9,0-3.7,0-5.6,0c-1,0-2,0-2.9,0.6c-0.9,0.7-1.7,1.7-1.8,2.9c-0.1,0.5,0.1,1,0.4,1.4c1.2,1.9,2.8,3.6,4.1,5.5
		c-1.8,0.2-3.6,0-5.4,0.2c-0.8,0.1-1.4,0.9-1.6,1.6c-0.6-0.5-1.2-1.1-1.8-1.7c-1.2,0-2.5,0-3.7,0c-0.3,0-0.5-0.1-0.7-0.2
		c1.1-0.4,2.3-0.2,3.4-0.4c1-0.1,2,0,3-0.3c0.5-0.1,0.6-0.7,0.6-1.2c0-0.5,0.2-1-0.1-1.4c-0.3-0.4-0.7-0.8-1.1-1.1
		c-1.4-0.1-2.9,0.2-4.3-0.2c-0.4-0.5,0.1-1.2,0.1-1.7c1.5,0,3,0,4.6,0c0.6,0,1.2,0,1.8-0.2c0.5-0.3,0.6-0.9,0.8-1.5
		c0.4-0.9-0.5-1.7-1.1-2.3c-2.5,0-5,0-7.5,0c-0.5,0.1-1.2,0-1.4,0.5c-0.5,1.1-0.8,2.3-1.1,3.5c-0.8,2.9-1.6,5.9-2.3,8.8
		c0.3,0.7,0.9,1.2,1.4,1.7h6.1c0.8-0.1,1.6,0,2.4-0.3c0.5-0.5,0.6-1.2,0.9-1.9c0.2,0.9,0.8,1.5,1.5,2.1h5c1.1-0.1,2.3,0,3.3-0.6
		c0.8-0.5,1.2-1.3,1.7-2c0,0.4-0.1,0.9,0.1,1.2c0.4,0.5,0.8,0.9,1.2,1.4h4.8c1.2-0.1,2.6-0.1,3.7-0.7c0.9-0.7,1.5-1.7,1.7-2.8
		C177,134.3,176,133.3,175.2,132.2z M151.9,137c-0.9,0.2-1.8,0.2-2.7,0.2c-1.4,0-2.9,0-4.3-0.1c-0.1,0-0.3-0.1-0.4-0.2
		c1-3.8,2-7.5,2.9-11.3c2.4-0.1,4.9-0.1,7.3,0c0.1,0.3,0.1,0.8-0.3,0.9c-1.9,0.3-3.9-0.1-5.8,0.3c-0.5,0.3-0.6,1-0.7,1.5
		c-0.3,1-0.6,1.9-0.5,3c0.4,0.1,0.8,0.2,1.2,0.2c1.6,0,3.2,0,4.8,0c-0.1,0.4-0.1,0.8-0.3,1.1c-2.1,0.3-4.2,0.2-6.3,0.2
		c-0.4,1.1-0.6,2.2-0.6,3.4c2,0.1,4,0,6,0.3C152,136.6,152,136.8,151.9,137z M163.3,135.9c-0.3,0.5-0.7,1-1.3,1.1
		c-1.3,0.2-2.6,0.1-3.8,0.2c-0.9,0.1-1.9,0-2.8,0.1c0.1-0.3,0-0.9,0.5-0.9c1.8-0.2,3.5-0.1,5.3-0.3c0.5-0.1,1.4-0.2,1.3-0.9
		c-0.1-0.6-0.5-1.1-0.9-1.5c-1.2-1.5-2.4-3.1-3.5-4.8c-0.2-0.3-0.4-0.8-0.2-1.2c0.3-0.8,0.9-1.5,1.7-1.8c1.2-0.3,2.4-0.2,3.6-0.2
		c1.1,0,2.1-0.1,3.2,0.1c0,0.2-0.1,0.5-0.1,0.7c-2,0.4-4,0-6,0.3c-0.4,0.1-0.9,0.3-1,0.7c-0.1,0.4,0.1,0.8,0.3,1.1
		c1.3,1.9,3,3.7,4.2,5.7C164.1,134.9,163.6,135.4,163.3,135.9z M166,135.5c-1.4-2.4-3.2-4.5-4.8-6.8c2.3-0.3,4.6,0,6.8-0.5
		c0.1,0.4,0.2,0.9,0.4,1.2c1.2,1.9,2.8,3.6,4.1,5.4c-1.9,0.3-3.9,0-5.8,0.3C166.5,135.2,166.2,135.3,166,135.5z M174.9,135.7
		c-0.4,0.8-1.2,1.5-2.1,1.5c-2,0.1-4,0.2-6-0.1c0-0.3,0.1-0.5,0.1-0.7c1.9-0.2,3.9-0.1,5.8-0.2c0.6,0,1.5-0.7,1.1-1.4
		c-0.3-0.6-0.8-1.1-1.2-1.6c-1-1.3-1.9-2.6-2.8-3.9c-0.3-0.4-0.7-1-0.5-1.5c0.4-1.1,1.5-1.9,2.7-2c1.9-0.2,3.8-0.1,5.7-0.1
		c0,0.3,0,0.7,0,1.1c-1.6,0-3.3,0-4.9,0c-0.8,0.1-1.8,0-2.2,0.8c0.3,1.2,1.1,2.1,1.8,3.1c0.9,1.1,1.8,2.2,2.6,3.4
		C175.5,134.5,175.1,135.1,174.9,135.7z"/>
	<path class="st0" d="M188.6,124.5c-2.2,0-4.4,0-6.6,0c-0.6,0.1-1.3,0-1.7,0.6c-0.3,0.6-0.4,1.2-0.5,1.9c0.5,0.8,1.3,1.5,2.3,1.6
		c-0.3,1.9-0.8,3.8-1.2,5.6c-0.1,0.2-0.1,0.6-0.4,0.7c-0.8,0.1-1.7,0-2.4,0.3c-0.7,0.3-0.9,1.2-1.1,1.9c-0.1,0.9,0.8,1.5,1.3,2.1
		h5.6c0.7-0.1,1.4,0,2-0.2c0.4,0,0.6-0.4,0.7-0.7c0.2-0.5,0.4-1.1,0.5-1.6c-0.6-0.8-1.4-1.6-2.4-1.8c0.6-2.1,1.1-4.2,1.8-6.2
		c0.8-0.1,1.7-0.1,2.5-0.3c0.7-0.3,0.8-1.1,0.9-1.8c0.1-0.6-0.3-1.1-0.7-1.5C189.1,124.8,189,124.5,188.6,124.5z M187.9,126.5
		c-0.9,0.3-1.9-0.1-2.7,0.4c-0.6,1.4-1,2.8-1.4,4.3c-0.4,1.3-0.7,2.7-1,4c0,0.3-0.1,0.6,0,0.8c0.8,0.4,1.6,0.1,2.4,0.4
		c-0.1,0.2,0,0.6-0.3,0.6c-1,0.2-2,0.1-3,0.2c-1.2,0-2.4,0.1-3.6,0.1c0.1-0.3,0.1-0.6,0.2-0.8c0.9-0.3,1.9,0,2.7-0.5
		c0.4-0.5,0.5-1.2,0.7-1.7c0.6-2.1,1.2-4.2,1.7-6.3c0.1-0.3,0.2-0.8-0.2-1c-0.7-0.3-1.5-0.3-2.2-0.4c0-0.3,0-0.7,0.4-0.8
		c1.5-0.2,3-0.1,4.5-0.1c0.6,0,1.3-0.1,1.9,0.2C188,126,188,126.3,187.9,126.5z"/>
	<path class="st0" d="M214.2,124.5c-1.4,0-2.9,0-4.3,0c-0.7,0-1.3,0.1-2,0.3c-0.8,0.3-1.4,0.9-1.9,1.5c-0.6,0.6-0.9,1.3-1.2,2.1
		c-0.6,2-1.2,4-1.6,6.1c-0.1,0.6-0.2,1.3,0,2c0.4,0.9,1.1,1.5,1.9,2.1c0.5,0.4,1.1,0.5,1.7,0.5c1.5,0,3,0.1,4.4-0.1
		c1.6-0.4,2.9-1.6,3.8-3c0.7-2.5,1.4-5,1.9-7.6V128C216.7,126.5,215.3,125.5,214.2,124.5z M215.4,127.8c-0.2,1.7-0.7,3.4-1.1,5
		c-0.3,1-0.4,2.1-1,2.9c-0.4,0.6-0.9,1-1.5,1.4c-0.9,0.6-2.1,0.5-3.1,0.5c-0.9,0-1.7,0.1-2.6-0.1c-0.9-0.3-1.6-1.3-1.3-2.2
		c0.5-2.3,1.1-4.6,1.9-6.8c0.3-1.2,1.4-2,2.4-2.4c1.2-0.3,2.4-0.1,3.6-0.2c0.8,0,1.7,0,2.2,0.6C215.3,126.8,215.5,127.3,215.4,127.8
		z"/>
	<path class="st0" d="M213.3,127.3c-1.1-0.4-2.3-0.3-3.4-0.2c-0.8,0.1-1.6,0.4-2.1,1.1c-0.4,0.9-0.7,2-1,2.9
		c-0.3,1.3-0.7,2.5-0.9,3.9c0.1,0.5,0.3,1.1,0.8,1.3c0.7,0.2,1.4,0.1,2.1,0.1c1,0,2.2,0.1,3.1-0.5c0.6-0.4,0.7-1.2,1-1.8
		c0.5-1.7,1-3.4,1.3-5.1C214.4,128.3,214,127.5,213.3,127.3z M212.5,129.2c-0.3,1.7-0.9,3.4-1.5,5.1c-0.1,0.6-0.8,0.6-1.2,0.6
		c-0.7,0-1.5,0.1-2.2-0.2c0.4-1.5,0.7-3,1.2-4.4c0.2-0.6,0.5-1.4,1.2-1.6c0.7-0.3,1.6-0.2,2.3-0.1
		C212.7,128.6,212.5,129,212.5,129.2z"/>
</g>
</svg>
