<?xml version="1.0" encoding="utf-8"?>
<!-- Generator: Adobe Illustrator 26.0.3, SVG Export Plug-In . SVG Version: 6.00 Build 0)  -->
<svg version="1.1" id="Сан-Хосе_Шаркс" xmlns="http://www.w3.org/2000/svg" xmlns:xlink="http://www.w3.org/1999/xlink"
	 x="0px" y="0px" viewBox="0 0 239.5 150.2" style="enable-background:new 0 0 239.5 150.2;" xml:space="preserve">
<style type="text/css">
	.st0{fill:#010101;}
</style>
<g>
	<path class="st0" d="M193.5,92.4c-0.6-2.2-1.1-4.4-2-6.5c-0.5-1.3-1.7-2.2-2.9-2.8c-0.4-0.3-0.9-0.5-1.1-0.9
		c-0.1-0.4,0.2-0.7,0.3-1c2.8-4.9,5.2-10.1,7.3-15.5c1.2-3.1,2.5-6.3,3.5-9.5c0.1-0.6,0.6-1.4,0-2c-5.2,2.4-10.3,5.1-15.5,7.3
		c-2.8,1.2-5.7,2.4-8.4,3.8c-0.8,0.4-1.3,1-1.9,1.6c-3.3-3-6.9-5.7-10.5-8.4c-0.8-0.6-1.7-1-2.2-1.9c-1.9-3.4-3.8-6.7-5.9-10
		c-5.7-9.2-13-17.3-21.2-24.3c-4.4-3.7-9.2-7.2-14.5-9.7c0.9,2.3,2.1,4.5,3.2,6.7c2.8,5.7,5.7,11.3,7.8,17.3c1.2,3.4,2.3,7,2.6,10.6
		c-15.6-1.1-31-3.8-46.4-6.7c-0.4-0.1-0.7-0.2-1.1-0.3c0.2,0.8,0.8,1.4,1.2,2.1c7.2,11.4,14.4,22.7,21.5,34.1
		c-2.3,0.1-4.5,0.4-6.8,0.4c-3.1,0.4-6.3,0.1-9.4,0.4c-3.4,0.1-6.8,0-10.1,0.3c-2.7,0-5.5,0.1-8.2,0.2c-0.3,0-0.6,0.2-0.8,0.3
		c1.9,1.3,3.9,2.2,5.9,3.2c6,2.7,12.2,5,18.5,7c5.9,1.9,11.9,3.5,17.9,5.1c1.4,0.3,2.8,0.8,4.2,1.1c0,0.1,0.1,0.2,0.1,0.3l0.2-0.1
		c0.6,0,1.1,0.2,1.6,0.3c4.3,1.1,8.7,1.9,13.1,2.1c1.9,0.1,3.7,0,5.6,0c-0.4-0.5-0.7-1.1-1.1-1.6c3.7,2.4,7.5,4.9,11.3,7.1
		c0,0.1,0.1,0.3,0.2,0.4c-6.5-0.3-13,0-19.5-0.6c-0.8-0.1-1.6-0.2-2.4-0.2c-0.2,0-0.6,0-0.8,0c-1.3-1.8-2.4-3.6-3.6-5.5
		c-1.3-0.3-2.5-0.6-3.8-0.9c1.5,2.5,3.2,4.9,4.7,7.5c-2.9,2.4-5.9,4.8-8.7,7.4c-4.8,4.6-8.9,9.8-13,15c-0.6,0.9-1.4,1.8-1.8,2.8
		c-0.1,0.5,0.2,1.2,0.8,1.1c3.5,0,7-0.1,10.5-0.2c1.3-0.1,2.6,0.1,3.9-0.3c1.5-3.4,3.4-6.7,5.7-9.6c2.5-2.9,5.1-5.5,7.8-8.2
		c3.7,5.8,7.4,11.6,11,17.4c4.5-7,8.9-14.1,13.4-21.1c0.9-0.1,1.8-0.1,2.7-0.3c0.9,0.4,1.8,1,2.6,1.6c-0.4,0.3-0.8,0.7-1.2,1
		c0.4,0.5,0.7,1.1,0.8,1.7c0.4,0,0.9,0,1.3,0c0.4-0.4,0.7-1.1,1-1.6c0.8,0.4,1.6,0.8,2.4,1.2c0.1,0.5,0,1.1,0.5,1.3
		c0.6-0.3,1.2-0.6,1.8-0.9c3.1,0.7,6.3,0.9,9.4,0.3c2.9,0.7,6.1,1.1,8.8-0.3c3.2,1.5,6.8,1.5,10.2,1.5c1.6,0,3.2,0.1,4.7-0.4
		c0.3-0.1,0.8-0.3,0.6-0.7c-0.6-4.3-1.8-8.5-3.1-12.6C195.6,96.9,194.3,94.8,193.5,92.4z M132.3,48.4c0,0.8,0.1,1.6,0.1,2.4
		c-3.2-0.1-6.4-0.1-9.5,0.2c-1.1,0.1-2.2,0.5-3.3,0.3C123.6,49.8,127.9,48.8,132.3,48.4z M114.1,76c-1.7,0.2-3.3,0.3-5,0.4
		c-0.4,0-0.4-0.5-0.6-0.8c1.9,0.1,3.8-0.4,5.8-0.4c1.2,0.6,2.3,1.4,3.4,2.1c0.8,0.7,1.8,1.2,2.3,2.2C117.9,78.5,116.3,76.8,114.1,76
		z M132.4,68.5c-3.7-2.1-7.5-4.2-11.5-5.7c-2.3-0.8-4.7-1.4-7.1-2.1c-0.9-0.2-1.7-0.6-2.6-0.5c-0.5,0.4-1,0.9-1.7,1
		c0.4-0.7,0.8-1.3,1.4-1.8c0.6,0,1.2,0.2,1.7,0.3c7.9,1.7,15.4,5.2,21.9,10C133.8,69.3,133.1,68.9,132.4,68.5z M143.3,90.9
		c-0.2-0.4-0.4-0.8-0.5-1.2c-0.5-3-0.4-6-0.2-9c0.7,0.3,0.9,1.1,1.4,1.6C143.5,85.2,143.3,88.1,143.3,90.9z M146,92.7
		c-0.9-3-0.6-6.2-0.5-9.3c0.1,0,0.3,0,0.4,0c0.3,0.5,0.6,1.1,0.9,1.6C146.4,87.6,146.1,90.2,146,92.7z M148.6,94.2
		c-0.7-2.4-0.4-4.9-0.2-7.3c0-0.3,0.1-0.6,0.3-0.8c0.4,0.5,0.7,1.1,1.1,1.7C149.2,89.8,148.9,92,148.6,94.2z M117.8,109.4
		c0.9,0.1,1.9,0.3,2.8,0.4c-1,0.2-2,0.2-3,0.2C117.7,109.8,117.8,109.5,117.8,109.4z M112.9,114.4c0.5-0.1,0.9-0.1,1.4-0.2
		c3.2-0.3,6.4-0.5,9.6-0.3c0-0.2,0-0.4-0.1-0.6c-3.5-0.1-6.9,0.1-10.4,0.5c1.2-1.2,2.4-2.4,3.7-3.5c1.6,0,3.3,0,4.9,0.1
		c1.1,0.2,2.1,0.2,3.2,0.6c0.5,0.2,0.9,0.4,1.4,0.6c-0.6,0.6-1.2,1.1-1.7,1.9c-0.3,0.2-0.7,0.3-1,0.5l0.4,0.2
		c-1.2,1-2.2,2.3-3.2,3.5c-3.6-1-7.3-0.2-10.9-0.2C111.1,116.4,112,115.5,112.9,114.4z M109.9,118c1.3-0.1,2.6-0.1,3.9-0.2
		c0.2,0.2,0.4,0.4,0.6,0.6c-1.9,0.1-3.7,0.4-5.6,0.7C109.1,118.7,109.4,118.2,109.9,118z M108.4,119.7c3.2-0.5,6.4-0.8,9.6-1.1
		c0.6,0,1.3,0,1.8-0.2c0-0.1-0.1-0.3-0.1-0.4c-1.7,0.4-3.4,0.1-5.1,0.4c-0.2-0.2-0.4-0.4-0.6-0.6c2.2,0,4.5-0.3,6.6,0.2
		c0,0.1,0,0.3-0.1,0.4l-0.6-0.2c0.1,0.2,0.2,0.6,0.3,0.9c-0.7,0.7-1.2,1.7-1.8,2.5c-1.6-0.7-3.3-0.9-5-0.9c-2,0-4,0-5.9,0.1
		C107.8,120.3,108.1,120,108.4,119.7z M115.1,127.5c-0.8,0.4-1.7,0.2-2.5,0.3c-3.6,0-7.2,0.4-10.9,0.4c0.7-1.2,1.5-2.2,2.3-3.2
		c4.2-0.5,8.4-0.9,12.6-0.6C116.2,125.5,115.7,126.5,115.1,127.5z M104.5,124.4c0.9-1,1.7-2.2,2.6-3.2c2.3-0.2,4.6-0.1,7-0.1
		c1.4,0,2.8,0.2,4.1,0.7c-0.4,0.7-0.8,1.4-1.2,2.1C112.8,123.5,108.6,124,104.5,124.4z M117.6,124.7c-0.1,0-0.4-0.1-0.5-0.1
		c0.4-0.6,0.7-1.5,1.4-1.9C118.4,123.4,117.9,124.1,117.6,124.7z M119,122.3l-0.5,0c0.5-0.9,1.1-1.8,1.7-2.7c0.1,0,0.4,0.1,0.5,0.1
		C120.2,120.5,119.6,121.4,119,122.3z M121.2,119.2c-0.4,0.1-0.5,0-0.4-0.5C121.2,118.7,121.4,118.8,121.2,119.2z M124.4,115.6
		c-0.9,1-1.9,2-2.7,3.1l-0.5-0.3c0.6-1,1.4-1.8,2.2-2.6c0.3-0.4,0.6-0.8,1.1-0.9C124.5,115,124.5,115.4,124.4,115.6z M125.5,114.6
		c-0.2,0.4-1,0.2-0.7-0.3c0.6-0.7,1.1-1.5,1.9-1.8C127.1,113.4,126,113.9,125.5,114.6z M127.3,112.7c-0.4-0.2-0.5-1,0-1.1
		C127.7,111.7,127.8,112.5,127.3,112.7z M130.3,109.7c-0.8,0.7-1.5,1.5-2.4,2.2c-0.1-0.5-0.1-1.2,0.4-1.5c0.7-0.6,1.3-1.3,2-1.9
		C130.3,108.9,130.3,109.3,130.3,109.7z M127.7,110.4c-0.9-0.3-1.8-0.7-2.8-0.8l0.1,0.6c0.7,0.1,2.1,0,2.2,1c-1.4-0.5-2.7-1-4.1-1.2
		c0.6,0,1.3,0,1.9,0.1l-0.2-0.5c-2.1-0.2-4.2-0.3-6.3-0.5c1-0.9,2.1-1.8,3.1-2.6c3,0,6,0.2,8.8,1.3
		C129.4,108.7,128.5,109.5,127.7,110.4z M140.4,123.3c-2.9-4.7-5.9-9.3-9-13.9c0.1-0.1,0.4-0.3,0.6-0.4l0-0.1c1.4,0.1,2.7-0.4,4-0.3
		c1.4,0.2,2.7-0.1,4.1-0.1c1.9-0.3,3.9-0.1,5.9-0.4c1.1-0.1,2.3,0,3.4,0c0.2-0.2,0.6-0.1,0.9-0.1C146.9,113,143.7,118.2,140.4,123.3
		z M150,106.3c-5.9,0.6-11.9,0.6-17.8,0.7c-0.6,0-1,0.4-1.4,0.6c-2.6-1.3-5.7-1.3-8.5-1.5c1.4-1.1,2.7-2.3,4.2-3.1
		c2.2,0.2,4.4,0.4,6.7,0.5c4.4,0.4,8.8,0.2,13.2,0.4c4.3-0.1,8.6,0.1,12.8-0.6c1.3-0.3,2.6-0.2,3.9-0.1c0,0.6,0,1.3,0.6,1.5
		c0,0.1,0.1,0.3,0.1,0.4C159.1,105.2,154.5,105.9,150,106.3z M155.8,100.9c0.2,0.2,0.3,0.3,0.5,0.5l-0.5,0.7
		c1.2,0.3,2.4-0.3,3.6-0.1c-1.2,0.8-2.7,0.5-4.1,0.8c-1-0.8-2-1.5-3.1-2.1c-0.5-0.2-1.3,0-1.4-0.7c1.2-0.1,2.5-0.1,3.7-0.1
		c-0.2,0.2-0.5,0.7-0.7,0.9C154.5,101,155.2,101,155.8,100.9z M159.3,110.8c-0.3-0.3-0.6-0.6-0.8-0.9c0.6-0.7,1.5-1.2,2.5-1.2
		C160.4,109.3,159.9,110.1,159.3,110.8z M163.8,111.7c0-0.6,0.1-1.2,0.1-1.8c0.6,0.2,0.8,0.8,1.1,1.3
		C164.7,111.4,164.3,111.6,163.8,111.7z M174.6,110.9c-0.4,0-0.8,0.1-1.2,0.2c-1.7,0.1-3.5,0.2-5.3-0.1c-1.6,0-3.5-0.7-3.8-2.5
		c-0.6,0.1-0.5,0.9-0.8,1.4c-0.3-0.1-0.6-0.2-0.9-0.4c-0.4-0.2-0.7-0.3-1.1-0.5c0-0.4,0.1-0.8,0.1-1.2c-0.5,0.1-0.9,0.2-1.4,0.2
		c-0.5-0.3-0.8-0.7-0.9-1.2c0.6,0,1.2-0.1,1.8-0.2c1.4-0.1,3-0.2,3.9-1.5c0.5,0,1-0.1,1.6-0.1c-0.9,0.7-1.9,1.5-2.8,2.3
		c0.4,0.6,1.2,0.3,1.8,0.5c1.8,0.2,3.6,0.2,5.5,0.2c-0.8,0.7-1.8,1.1-2.6,1.8c2.3,0.5,4.7,0.3,7.1,0.3
		C175.2,110.4,174.9,110.7,174.6,110.9z M178,111.4c-0.9-0.2-1.8-0.2-2.6-0.5c0.5-0.4,1-0.8,1.5-1.3c-2.3,0-4.7,0-7-0.1
		c0.7-0.8,1.8-1.1,2.4-2c-2.5-0.1-5,0.2-7.4-0.3c1-0.9,2.1-1.7,2.9-2.7c-1,0-2.1,0.1-3.1,0.1c-0.6-0.2-0.8-0.9-0.8-1.5
		c-0.2-0.3-0.3-0.7-0.7-0.9c-1.2-0.2-2.3-0.2-3.5-0.2c0.1-0.2,0.4-0.6,0.6-0.9c-0.6,0-1.2,0.1-1.7,0.2c-0.6,0.1-1.2,0.1-1.8,0.2
		l0.3-0.5c-0.2-0.2-0.3-0.5-0.3-0.9l-0.4,0.1l0-0.3c-0.3,0.2-1.2,0.4-1.2,0c0-0.1,0-0.4,0.1-0.5c1.1,0.1,2.4,0,3.4,0.5
		c0.4,0.1,0.8,0.1,1.2,0.2c0.5,0.1,0.9,0.2,1.4,0.4c1.4,0.4,2.8,0.9,4.1,1.5c0.3,0.1,0.6,0.3,0.9,0.5c1.9,1,3.6,2,5.5,3
		c2.1,1.2,4.3,2.2,6.4,3.2c1.3,0.6,2.5,1.2,3.8,1.7c0.4,0.2,0.9,0.4,1.3,0.6C181.4,111.7,179.7,111.4,178,111.4z M161.1,90.7
		c2.3,2.1,4,4.8,5.5,7.5c-1.4-0.6-2.8-1.2-4-2.1C161.6,94.5,161.4,92.5,161.1,90.7z M194.9,110.8c-4.9-1.8-9.8-3.8-14.3-6.4
		c-2.9-1.6-5.6-3.3-8.3-5.1c0.4-1.1,0.5-2.3,0.4-3.4c-0.4,0.5-0.6,1-1.1,1.4c-0.6,0.2-1.2,0.2-1.8,0.2c-2.2-2.6-4.1-5.4-5.3-8.6
		c-0.2-0.7-0.8-1.1-1.5-1.3c-1.9-0.6-3.9-0.6-5.9-0.7c-0.6-0.4-1.1-1-1.6-1.5c-3.4-3.2-6.9-6.4-10.7-9.1c-0.7-0.4-1.4-0.9-2-1.4
		c0.8,0.3,1.6,0.6,2.4,0.6c-0.3-1.5-1.3-2.7-2.1-4c-1.7-2.4-3.4-4.7-5.5-6.8c-0.6-0.5-1.2-1-1.7-1.7c3.9-0.3,7.8,0,11.6,0.8
		c5.4,1.2,10.6,3.1,16,4.6c0.7,0.2,1.4,0.4,2.2,0.3c-0.1-0.9-0.4-1.8-0.7-2.6c-1-2.3-2-4.6-3.3-6.8c0.6,0.2,1.1,0.6,1.6,1
		c5.9,4.5,11.7,9.3,16.8,14.7c2.4,2.6,4.7,5.2,6.9,7.9c1.2,1,2.8,1.5,3.5,2.9c1.1,2.2,1.6,4.7,2.2,7.1c0.9,2.4,2.1,4.6,2.9,7
		c1.2,3.8,2.3,7.6,2.9,11.5C197.1,111.8,196,111.2,194.9,110.8z"/>
	<path class="st0" d="M191.6,43.5c-4,6.1-7.9,12.3-11.9,18.4c1.3-0.6,2.8-1.1,4-1.8c4.2-6.6,8.3-13.3,12.6-19.8
		c-13.2,2.7-26.5,4.9-39.9,6.4c-0.4,0-0.7,0.1-0.9,0.5c0.4,0.6,0.8,1.1,1.1,1.7C168.4,47.7,180,45.8,191.6,43.5z"/>
	<path class="st0" d="M215.4,58.5c-1.6-0.3-3.2-0.6-4.8-0.4c-0.7,0.1-1.5-0.1-2.1,0.4c-0.6,0.7-1.1,1.6-1.5,2.4
		c0,0.9,0.6,1.8,0.1,2.6c-1.4,2.6-2.7,5.2-4.1,7.8c-2.9,5.4-6.2,10.6-9.5,15.7c-0.8,0.9,0.2,1.9,0.4,2.8c0.7-0.3,1.2-0.8,2-0.7
		c1.4-1.7,3.1-3.1,4.4-4.9c2.4-3.3,4.5-6.7,6.9-10c1.9-2.8,3.5-5.9,5-9c1.1-0.2,2.5-0.3,2.8-1.6C215.2,61.8,215.6,60.2,215.4,58.5z
		 M212,62.4c-4.3,6.8-8,14-12.6,20.7c-1.3,1.7-2.3,3.6-4,4.9c-0.2-0.2-0.4-0.3-0.6-0.5c0,0.3-0.1,0.9-0.1,1.2
		c-0.1,0-0.4,0.1-0.5,0.1c-0.1-0.4-0.2-0.7-0.4-1.1c0.4-0.2,0.8-0.4,1.2-0.6c0.2,0.2,0.3,0.3,0.5,0.5c0.1-0.2,0.3-0.6,0.4-0.8
		c-0.1-0.2-0.3-0.6-0.4-0.8c-0.5,0.5-1,0.8-1.6,1c3.3-3.9,5.7-8.4,8.2-12.7c2.2-3.8,4-7.8,6.2-11.6c0.9-0.9,2.4-0.7,3.6-0.7
		C212,62.1,212,62.3,212,62.4z M213.3,60.7c-1.8,0-3.5-0.1-5.3,0.1c0.3-0.5,0.7-1,1.1-1.4c1.7-0.5,3.4-0.4,5.2-0.3
		C214.3,59.8,213.7,60.2,213.3,60.7z"/>
	<path class="st0" d="M196.7,90.2c0.7,0,1.5-0.1,2.2,0c0,0.4,0.1,0.8,0.1,1.2c-0.8-0.4-1.7-0.6-2.6-0.7c0.1-0.2,0.3-0.6,0.4-0.8
		c-0.5,0.1-1,0.2-1.5,0.3c0.1,0.3-0.1,0.8,0.3,0.9c0.8,0.5,1.7,1,2.6,1.4c0.6,0.3,1.2-0.3,1.6-0.7c-0.4-0.6-0.5-1.3-0.6-2
		C198.4,89.6,197.1,89.3,196.7,90.2z"/>
</g>
</svg>
